G04 #@! TF.GenerationSoftware,KiCad,Pcbnew,(5.1.2)-2*
G04 #@! TF.CreationDate,2019-08-24T11:58:42+07:00*
G04 #@! TF.ProjectId,siren_sound,73697265-6e5f-4736-9f75-6e642e6b6963,rev?*
G04 #@! TF.SameCoordinates,Original*
G04 #@! TF.FileFunction,Legend,Top*
G04 #@! TF.FilePolarity,Positive*
%FSLAX46Y46*%
G04 Gerber Fmt 4.6, Leading zero omitted, Abs format (unit mm)*
G04 Created by KiCad (PCBNEW (5.1.2)-2) date 2019-08-24 11:58:42*
%MOMM*%
%LPD*%
G04 APERTURE LIST*
%ADD10C,0.120000*%
%ADD11C,0.127000*%
%ADD12C,0.200000*%
%ADD13C,0.150000*%
%ADD14C,0.050000*%
G04 APERTURE END LIST*
D10*
X62880000Y-97460000D02*
X61580000Y-97460000D01*
X62230000Y-96860000D02*
X62230000Y-98060000D01*
X62584000Y-102621000D02*
X61876000Y-102621000D01*
X62789000Y-102581000D02*
X61671000Y-102581000D01*
X62937000Y-102541000D02*
X61523000Y-102541000D01*
X63059000Y-102501000D02*
X61401000Y-102501000D01*
X63164000Y-102461000D02*
X61296000Y-102461000D01*
X63258000Y-102421000D02*
X61202000Y-102421000D01*
X63342000Y-102381000D02*
X61118000Y-102381000D01*
X63419000Y-102341000D02*
X61041000Y-102341000D01*
X63491000Y-102301000D02*
X60969000Y-102301000D01*
X63557000Y-102261000D02*
X60903000Y-102261000D01*
X63620000Y-102221000D02*
X60840000Y-102221000D01*
X63678000Y-102181000D02*
X60782000Y-102181000D01*
X63734000Y-102141000D02*
X60726000Y-102141000D01*
X63786000Y-102101000D02*
X60674000Y-102101000D01*
X63836000Y-102061000D02*
X60624000Y-102061000D01*
X61250000Y-102021000D02*
X60576000Y-102021000D01*
X63884000Y-102021000D02*
X63210000Y-102021000D01*
X61250000Y-101981000D02*
X60531000Y-101981000D01*
X63929000Y-101981000D02*
X63210000Y-101981000D01*
X61250000Y-101941000D02*
X60488000Y-101941000D01*
X63972000Y-101941000D02*
X63210000Y-101941000D01*
X61250000Y-101901000D02*
X60447000Y-101901000D01*
X64013000Y-101901000D02*
X63210000Y-101901000D01*
X61250000Y-101861000D02*
X60407000Y-101861000D01*
X64053000Y-101861000D02*
X63210000Y-101861000D01*
X61250000Y-101821000D02*
X60369000Y-101821000D01*
X64091000Y-101821000D02*
X63210000Y-101821000D01*
X61250000Y-101781000D02*
X60333000Y-101781000D01*
X64127000Y-101781000D02*
X63210000Y-101781000D01*
X61250000Y-101741000D02*
X60298000Y-101741000D01*
X64162000Y-101741000D02*
X63210000Y-101741000D01*
X61250000Y-101701000D02*
X60265000Y-101701000D01*
X64195000Y-101701000D02*
X63210000Y-101701000D01*
X61250000Y-101661000D02*
X60233000Y-101661000D01*
X64227000Y-101661000D02*
X63210000Y-101661000D01*
X61250000Y-101621000D02*
X60202000Y-101621000D01*
X64258000Y-101621000D02*
X63210000Y-101621000D01*
X61250000Y-101581000D02*
X60172000Y-101581000D01*
X64288000Y-101581000D02*
X63210000Y-101581000D01*
X61250000Y-101541000D02*
X60144000Y-101541000D01*
X64316000Y-101541000D02*
X63210000Y-101541000D01*
X61250000Y-101501000D02*
X60117000Y-101501000D01*
X64343000Y-101501000D02*
X63210000Y-101501000D01*
X61250000Y-101461000D02*
X60090000Y-101461000D01*
X64370000Y-101461000D02*
X63210000Y-101461000D01*
X61250000Y-101421000D02*
X60065000Y-101421000D01*
X64395000Y-101421000D02*
X63210000Y-101421000D01*
X61250000Y-101381000D02*
X60041000Y-101381000D01*
X64419000Y-101381000D02*
X63210000Y-101381000D01*
X61250000Y-101341000D02*
X60018000Y-101341000D01*
X64442000Y-101341000D02*
X63210000Y-101341000D01*
X61250000Y-101301000D02*
X59996000Y-101301000D01*
X64464000Y-101301000D02*
X63210000Y-101301000D01*
X61250000Y-101261000D02*
X59974000Y-101261000D01*
X64486000Y-101261000D02*
X63210000Y-101261000D01*
X61250000Y-101221000D02*
X59954000Y-101221000D01*
X64506000Y-101221000D02*
X63210000Y-101221000D01*
X61250000Y-101181000D02*
X59934000Y-101181000D01*
X64526000Y-101181000D02*
X63210000Y-101181000D01*
X61250000Y-101141000D02*
X59915000Y-101141000D01*
X64545000Y-101141000D02*
X63210000Y-101141000D01*
X61250000Y-101101000D02*
X59897000Y-101101000D01*
X64563000Y-101101000D02*
X63210000Y-101101000D01*
X61250000Y-101061000D02*
X59880000Y-101061000D01*
X64580000Y-101061000D02*
X63210000Y-101061000D01*
X61250000Y-101021000D02*
X59864000Y-101021000D01*
X64596000Y-101021000D02*
X63210000Y-101021000D01*
X61250000Y-100981000D02*
X59848000Y-100981000D01*
X64612000Y-100981000D02*
X63210000Y-100981000D01*
X61250000Y-100941000D02*
X59834000Y-100941000D01*
X64626000Y-100941000D02*
X63210000Y-100941000D01*
X61250000Y-100901000D02*
X59820000Y-100901000D01*
X64640000Y-100901000D02*
X63210000Y-100901000D01*
X61250000Y-100861000D02*
X59806000Y-100861000D01*
X64654000Y-100861000D02*
X63210000Y-100861000D01*
X61250000Y-100821000D02*
X59794000Y-100821000D01*
X64666000Y-100821000D02*
X63210000Y-100821000D01*
X61250000Y-100781000D02*
X59782000Y-100781000D01*
X64678000Y-100781000D02*
X63210000Y-100781000D01*
X61250000Y-100740000D02*
X59770000Y-100740000D01*
X64690000Y-100740000D02*
X63210000Y-100740000D01*
X61250000Y-100700000D02*
X59760000Y-100700000D01*
X64700000Y-100700000D02*
X63210000Y-100700000D01*
X61250000Y-100660000D02*
X59750000Y-100660000D01*
X64710000Y-100660000D02*
X63210000Y-100660000D01*
X61250000Y-100620000D02*
X59741000Y-100620000D01*
X64719000Y-100620000D02*
X63210000Y-100620000D01*
X61250000Y-100580000D02*
X59732000Y-100580000D01*
X64728000Y-100580000D02*
X63210000Y-100580000D01*
X61250000Y-100540000D02*
X59724000Y-100540000D01*
X64736000Y-100540000D02*
X63210000Y-100540000D01*
X61250000Y-100500000D02*
X59717000Y-100500000D01*
X64743000Y-100500000D02*
X63210000Y-100500000D01*
X61250000Y-100460000D02*
X59711000Y-100460000D01*
X64749000Y-100460000D02*
X63210000Y-100460000D01*
X61250000Y-100420000D02*
X59705000Y-100420000D01*
X64755000Y-100420000D02*
X63210000Y-100420000D01*
X61250000Y-100380000D02*
X59699000Y-100380000D01*
X64761000Y-100380000D02*
X63210000Y-100380000D01*
X61250000Y-100340000D02*
X59695000Y-100340000D01*
X64765000Y-100340000D02*
X63210000Y-100340000D01*
X61250000Y-100300000D02*
X59691000Y-100300000D01*
X64769000Y-100300000D02*
X63210000Y-100300000D01*
X61250000Y-100260000D02*
X59687000Y-100260000D01*
X64773000Y-100260000D02*
X63210000Y-100260000D01*
X61250000Y-100220000D02*
X59684000Y-100220000D01*
X64776000Y-100220000D02*
X63210000Y-100220000D01*
X61250000Y-100180000D02*
X59682000Y-100180000D01*
X64778000Y-100180000D02*
X63210000Y-100180000D01*
X61250000Y-100140000D02*
X59681000Y-100140000D01*
X64779000Y-100140000D02*
X63210000Y-100140000D01*
X61250000Y-100100000D02*
X59680000Y-100100000D01*
X64780000Y-100100000D02*
X63210000Y-100100000D01*
X64780000Y-100060000D02*
X59680000Y-100060000D01*
X61050277Y-102365722D02*
G75*
G03X63410000Y-102365580I1179723J2305722D01*
G01*
X61050277Y-102365722D02*
G75*
G02X61050000Y-97754420I1179723J2305722D01*
G01*
X63409723Y-102365722D02*
G75*
G03X63410000Y-97754420I-1179723J2305722D01*
G01*
X58455722Y-86450277D02*
G75*
G03X53844420Y-86450000I-2305722J-1179723D01*
G01*
X58455722Y-88809723D02*
G75*
G02X53844420Y-88810000I-2305722J1179723D01*
G01*
X58455722Y-88809723D02*
G75*
G03X58455580Y-86450000I-2305722J1179723D01*
G01*
X56150000Y-85080000D02*
X56150000Y-90180000D01*
X56190000Y-85080000D02*
X56190000Y-86650000D01*
X56190000Y-88610000D02*
X56190000Y-90180000D01*
X56230000Y-85081000D02*
X56230000Y-86650000D01*
X56230000Y-88610000D02*
X56230000Y-90179000D01*
X56270000Y-85082000D02*
X56270000Y-86650000D01*
X56270000Y-88610000D02*
X56270000Y-90178000D01*
X56310000Y-85084000D02*
X56310000Y-86650000D01*
X56310000Y-88610000D02*
X56310000Y-90176000D01*
X56350000Y-85087000D02*
X56350000Y-86650000D01*
X56350000Y-88610000D02*
X56350000Y-90173000D01*
X56390000Y-85091000D02*
X56390000Y-86650000D01*
X56390000Y-88610000D02*
X56390000Y-90169000D01*
X56430000Y-85095000D02*
X56430000Y-86650000D01*
X56430000Y-88610000D02*
X56430000Y-90165000D01*
X56470000Y-85099000D02*
X56470000Y-86650000D01*
X56470000Y-88610000D02*
X56470000Y-90161000D01*
X56510000Y-85105000D02*
X56510000Y-86650000D01*
X56510000Y-88610000D02*
X56510000Y-90155000D01*
X56550000Y-85111000D02*
X56550000Y-86650000D01*
X56550000Y-88610000D02*
X56550000Y-90149000D01*
X56590000Y-85117000D02*
X56590000Y-86650000D01*
X56590000Y-88610000D02*
X56590000Y-90143000D01*
X56630000Y-85124000D02*
X56630000Y-86650000D01*
X56630000Y-88610000D02*
X56630000Y-90136000D01*
X56670000Y-85132000D02*
X56670000Y-86650000D01*
X56670000Y-88610000D02*
X56670000Y-90128000D01*
X56710000Y-85141000D02*
X56710000Y-86650000D01*
X56710000Y-88610000D02*
X56710000Y-90119000D01*
X56750000Y-85150000D02*
X56750000Y-86650000D01*
X56750000Y-88610000D02*
X56750000Y-90110000D01*
X56790000Y-85160000D02*
X56790000Y-86650000D01*
X56790000Y-88610000D02*
X56790000Y-90100000D01*
X56830000Y-85170000D02*
X56830000Y-86650000D01*
X56830000Y-88610000D02*
X56830000Y-90090000D01*
X56871000Y-85182000D02*
X56871000Y-86650000D01*
X56871000Y-88610000D02*
X56871000Y-90078000D01*
X56911000Y-85194000D02*
X56911000Y-86650000D01*
X56911000Y-88610000D02*
X56911000Y-90066000D01*
X56951000Y-85206000D02*
X56951000Y-86650000D01*
X56951000Y-88610000D02*
X56951000Y-90054000D01*
X56991000Y-85220000D02*
X56991000Y-86650000D01*
X56991000Y-88610000D02*
X56991000Y-90040000D01*
X57031000Y-85234000D02*
X57031000Y-86650000D01*
X57031000Y-88610000D02*
X57031000Y-90026000D01*
X57071000Y-85248000D02*
X57071000Y-86650000D01*
X57071000Y-88610000D02*
X57071000Y-90012000D01*
X57111000Y-85264000D02*
X57111000Y-86650000D01*
X57111000Y-88610000D02*
X57111000Y-89996000D01*
X57151000Y-85280000D02*
X57151000Y-86650000D01*
X57151000Y-88610000D02*
X57151000Y-89980000D01*
X57191000Y-85297000D02*
X57191000Y-86650000D01*
X57191000Y-88610000D02*
X57191000Y-89963000D01*
X57231000Y-85315000D02*
X57231000Y-86650000D01*
X57231000Y-88610000D02*
X57231000Y-89945000D01*
X57271000Y-85334000D02*
X57271000Y-86650000D01*
X57271000Y-88610000D02*
X57271000Y-89926000D01*
X57311000Y-85354000D02*
X57311000Y-86650000D01*
X57311000Y-88610000D02*
X57311000Y-89906000D01*
X57351000Y-85374000D02*
X57351000Y-86650000D01*
X57351000Y-88610000D02*
X57351000Y-89886000D01*
X57391000Y-85396000D02*
X57391000Y-86650000D01*
X57391000Y-88610000D02*
X57391000Y-89864000D01*
X57431000Y-85418000D02*
X57431000Y-86650000D01*
X57431000Y-88610000D02*
X57431000Y-89842000D01*
X57471000Y-85441000D02*
X57471000Y-86650000D01*
X57471000Y-88610000D02*
X57471000Y-89819000D01*
X57511000Y-85465000D02*
X57511000Y-86650000D01*
X57511000Y-88610000D02*
X57511000Y-89795000D01*
X57551000Y-85490000D02*
X57551000Y-86650000D01*
X57551000Y-88610000D02*
X57551000Y-89770000D01*
X57591000Y-85517000D02*
X57591000Y-86650000D01*
X57591000Y-88610000D02*
X57591000Y-89743000D01*
X57631000Y-85544000D02*
X57631000Y-86650000D01*
X57631000Y-88610000D02*
X57631000Y-89716000D01*
X57671000Y-85572000D02*
X57671000Y-86650000D01*
X57671000Y-88610000D02*
X57671000Y-89688000D01*
X57711000Y-85602000D02*
X57711000Y-86650000D01*
X57711000Y-88610000D02*
X57711000Y-89658000D01*
X57751000Y-85633000D02*
X57751000Y-86650000D01*
X57751000Y-88610000D02*
X57751000Y-89627000D01*
X57791000Y-85665000D02*
X57791000Y-86650000D01*
X57791000Y-88610000D02*
X57791000Y-89595000D01*
X57831000Y-85698000D02*
X57831000Y-86650000D01*
X57831000Y-88610000D02*
X57831000Y-89562000D01*
X57871000Y-85733000D02*
X57871000Y-86650000D01*
X57871000Y-88610000D02*
X57871000Y-89527000D01*
X57911000Y-85769000D02*
X57911000Y-86650000D01*
X57911000Y-88610000D02*
X57911000Y-89491000D01*
X57951000Y-85807000D02*
X57951000Y-86650000D01*
X57951000Y-88610000D02*
X57951000Y-89453000D01*
X57991000Y-85847000D02*
X57991000Y-86650000D01*
X57991000Y-88610000D02*
X57991000Y-89413000D01*
X58031000Y-85888000D02*
X58031000Y-86650000D01*
X58031000Y-88610000D02*
X58031000Y-89372000D01*
X58071000Y-85931000D02*
X58071000Y-86650000D01*
X58071000Y-88610000D02*
X58071000Y-89329000D01*
X58111000Y-85976000D02*
X58111000Y-86650000D01*
X58111000Y-88610000D02*
X58111000Y-89284000D01*
X58151000Y-86024000D02*
X58151000Y-89236000D01*
X58191000Y-86074000D02*
X58191000Y-89186000D01*
X58231000Y-86126000D02*
X58231000Y-89134000D01*
X58271000Y-86182000D02*
X58271000Y-89078000D01*
X58311000Y-86240000D02*
X58311000Y-89020000D01*
X58351000Y-86303000D02*
X58351000Y-88957000D01*
X58391000Y-86369000D02*
X58391000Y-88891000D01*
X58431000Y-86441000D02*
X58431000Y-88819000D01*
X58471000Y-86518000D02*
X58471000Y-88742000D01*
X58511000Y-86602000D02*
X58511000Y-88658000D01*
X58551000Y-86696000D02*
X58551000Y-88564000D01*
X58591000Y-86801000D02*
X58591000Y-88459000D01*
X58631000Y-86923000D02*
X58631000Y-88337000D01*
X58671000Y-87071000D02*
X58671000Y-88189000D01*
X58711000Y-87276000D02*
X58711000Y-87984000D01*
X52950000Y-87630000D02*
X54150000Y-87630000D01*
X53550000Y-86980000D02*
X53550000Y-88280000D01*
X69200000Y-104470000D02*
X70500000Y-104470000D01*
X69850000Y-105070000D02*
X69850000Y-103870000D01*
X69496000Y-99309000D02*
X70204000Y-99309000D01*
X69291000Y-99349000D02*
X70409000Y-99349000D01*
X69143000Y-99389000D02*
X70557000Y-99389000D01*
X69021000Y-99429000D02*
X70679000Y-99429000D01*
X68916000Y-99469000D02*
X70784000Y-99469000D01*
X68822000Y-99509000D02*
X70878000Y-99509000D01*
X68738000Y-99549000D02*
X70962000Y-99549000D01*
X68661000Y-99589000D02*
X71039000Y-99589000D01*
X68589000Y-99629000D02*
X71111000Y-99629000D01*
X68523000Y-99669000D02*
X71177000Y-99669000D01*
X68460000Y-99709000D02*
X71240000Y-99709000D01*
X68402000Y-99749000D02*
X71298000Y-99749000D01*
X68346000Y-99789000D02*
X71354000Y-99789000D01*
X68294000Y-99829000D02*
X71406000Y-99829000D01*
X68244000Y-99869000D02*
X71456000Y-99869000D01*
X70830000Y-99909000D02*
X71504000Y-99909000D01*
X68196000Y-99909000D02*
X68870000Y-99909000D01*
X70830000Y-99949000D02*
X71549000Y-99949000D01*
X68151000Y-99949000D02*
X68870000Y-99949000D01*
X70830000Y-99989000D02*
X71592000Y-99989000D01*
X68108000Y-99989000D02*
X68870000Y-99989000D01*
X70830000Y-100029000D02*
X71633000Y-100029000D01*
X68067000Y-100029000D02*
X68870000Y-100029000D01*
X70830000Y-100069000D02*
X71673000Y-100069000D01*
X68027000Y-100069000D02*
X68870000Y-100069000D01*
X70830000Y-100109000D02*
X71711000Y-100109000D01*
X67989000Y-100109000D02*
X68870000Y-100109000D01*
X70830000Y-100149000D02*
X71747000Y-100149000D01*
X67953000Y-100149000D02*
X68870000Y-100149000D01*
X70830000Y-100189000D02*
X71782000Y-100189000D01*
X67918000Y-100189000D02*
X68870000Y-100189000D01*
X70830000Y-100229000D02*
X71815000Y-100229000D01*
X67885000Y-100229000D02*
X68870000Y-100229000D01*
X70830000Y-100269000D02*
X71847000Y-100269000D01*
X67853000Y-100269000D02*
X68870000Y-100269000D01*
X70830000Y-100309000D02*
X71878000Y-100309000D01*
X67822000Y-100309000D02*
X68870000Y-100309000D01*
X70830000Y-100349000D02*
X71908000Y-100349000D01*
X67792000Y-100349000D02*
X68870000Y-100349000D01*
X70830000Y-100389000D02*
X71936000Y-100389000D01*
X67764000Y-100389000D02*
X68870000Y-100389000D01*
X70830000Y-100429000D02*
X71963000Y-100429000D01*
X67737000Y-100429000D02*
X68870000Y-100429000D01*
X70830000Y-100469000D02*
X71990000Y-100469000D01*
X67710000Y-100469000D02*
X68870000Y-100469000D01*
X70830000Y-100509000D02*
X72015000Y-100509000D01*
X67685000Y-100509000D02*
X68870000Y-100509000D01*
X70830000Y-100549000D02*
X72039000Y-100549000D01*
X67661000Y-100549000D02*
X68870000Y-100549000D01*
X70830000Y-100589000D02*
X72062000Y-100589000D01*
X67638000Y-100589000D02*
X68870000Y-100589000D01*
X70830000Y-100629000D02*
X72084000Y-100629000D01*
X67616000Y-100629000D02*
X68870000Y-100629000D01*
X70830000Y-100669000D02*
X72106000Y-100669000D01*
X67594000Y-100669000D02*
X68870000Y-100669000D01*
X70830000Y-100709000D02*
X72126000Y-100709000D01*
X67574000Y-100709000D02*
X68870000Y-100709000D01*
X70830000Y-100749000D02*
X72146000Y-100749000D01*
X67554000Y-100749000D02*
X68870000Y-100749000D01*
X70830000Y-100789000D02*
X72165000Y-100789000D01*
X67535000Y-100789000D02*
X68870000Y-100789000D01*
X70830000Y-100829000D02*
X72183000Y-100829000D01*
X67517000Y-100829000D02*
X68870000Y-100829000D01*
X70830000Y-100869000D02*
X72200000Y-100869000D01*
X67500000Y-100869000D02*
X68870000Y-100869000D01*
X70830000Y-100909000D02*
X72216000Y-100909000D01*
X67484000Y-100909000D02*
X68870000Y-100909000D01*
X70830000Y-100949000D02*
X72232000Y-100949000D01*
X67468000Y-100949000D02*
X68870000Y-100949000D01*
X70830000Y-100989000D02*
X72246000Y-100989000D01*
X67454000Y-100989000D02*
X68870000Y-100989000D01*
X70830000Y-101029000D02*
X72260000Y-101029000D01*
X67440000Y-101029000D02*
X68870000Y-101029000D01*
X70830000Y-101069000D02*
X72274000Y-101069000D01*
X67426000Y-101069000D02*
X68870000Y-101069000D01*
X70830000Y-101109000D02*
X72286000Y-101109000D01*
X67414000Y-101109000D02*
X68870000Y-101109000D01*
X70830000Y-101149000D02*
X72298000Y-101149000D01*
X67402000Y-101149000D02*
X68870000Y-101149000D01*
X70830000Y-101190000D02*
X72310000Y-101190000D01*
X67390000Y-101190000D02*
X68870000Y-101190000D01*
X70830000Y-101230000D02*
X72320000Y-101230000D01*
X67380000Y-101230000D02*
X68870000Y-101230000D01*
X70830000Y-101270000D02*
X72330000Y-101270000D01*
X67370000Y-101270000D02*
X68870000Y-101270000D01*
X70830000Y-101310000D02*
X72339000Y-101310000D01*
X67361000Y-101310000D02*
X68870000Y-101310000D01*
X70830000Y-101350000D02*
X72348000Y-101350000D01*
X67352000Y-101350000D02*
X68870000Y-101350000D01*
X70830000Y-101390000D02*
X72356000Y-101390000D01*
X67344000Y-101390000D02*
X68870000Y-101390000D01*
X70830000Y-101430000D02*
X72363000Y-101430000D01*
X67337000Y-101430000D02*
X68870000Y-101430000D01*
X70830000Y-101470000D02*
X72369000Y-101470000D01*
X67331000Y-101470000D02*
X68870000Y-101470000D01*
X70830000Y-101510000D02*
X72375000Y-101510000D01*
X67325000Y-101510000D02*
X68870000Y-101510000D01*
X70830000Y-101550000D02*
X72381000Y-101550000D01*
X67319000Y-101550000D02*
X68870000Y-101550000D01*
X70830000Y-101590000D02*
X72385000Y-101590000D01*
X67315000Y-101590000D02*
X68870000Y-101590000D01*
X70830000Y-101630000D02*
X72389000Y-101630000D01*
X67311000Y-101630000D02*
X68870000Y-101630000D01*
X70830000Y-101670000D02*
X72393000Y-101670000D01*
X67307000Y-101670000D02*
X68870000Y-101670000D01*
X70830000Y-101710000D02*
X72396000Y-101710000D01*
X67304000Y-101710000D02*
X68870000Y-101710000D01*
X70830000Y-101750000D02*
X72398000Y-101750000D01*
X67302000Y-101750000D02*
X68870000Y-101750000D01*
X70830000Y-101790000D02*
X72399000Y-101790000D01*
X67301000Y-101790000D02*
X68870000Y-101790000D01*
X70830000Y-101830000D02*
X72400000Y-101830000D01*
X67300000Y-101830000D02*
X68870000Y-101830000D01*
X67300000Y-101870000D02*
X72400000Y-101870000D01*
X71029723Y-99564278D02*
G75*
G03X68670000Y-99564420I-1179723J-2305722D01*
G01*
X71029723Y-99564278D02*
G75*
G02X71030000Y-104175580I-1179723J-2305722D01*
G01*
X68670277Y-99564278D02*
G75*
G03X68670000Y-104175580I1179723J-2305722D01*
G01*
X55880000Y-92710000D02*
X55880000Y-102870000D01*
X57150000Y-92710000D02*
X49530000Y-92710000D01*
X49530000Y-92710000D02*
X49530000Y-102870000D01*
X49530000Y-102870000D02*
X57150000Y-102870000D01*
X57150000Y-102870000D02*
X57150000Y-92710000D01*
X81280000Y-92710000D02*
X81280000Y-102870000D01*
X88900000Y-92710000D02*
X81280000Y-92710000D01*
X88900000Y-102870000D02*
X88900000Y-92710000D01*
X81280000Y-102870000D02*
X88900000Y-102870000D01*
X82550000Y-102870000D02*
X82550000Y-92710000D01*
X67310000Y-77720000D02*
X67310000Y-74930000D01*
X68580000Y-77720000D02*
X68580000Y-74930000D01*
X69850000Y-77720000D02*
X69850000Y-74930000D01*
X66180000Y-74930000D02*
X70980000Y-74930000D01*
X70980000Y-74930000D02*
X70980000Y-69740000D01*
X70980000Y-69740000D02*
X66180000Y-69740000D01*
X66180000Y-69740000D02*
X66180000Y-74930000D01*
X72530000Y-69740000D02*
X72530000Y-74930000D01*
X77330000Y-69740000D02*
X72530000Y-69740000D01*
X77330000Y-74930000D02*
X77330000Y-69740000D01*
X72530000Y-74930000D02*
X77330000Y-74930000D01*
X76200000Y-77720000D02*
X76200000Y-74930000D01*
X74930000Y-77720000D02*
X74930000Y-74930000D01*
X73660000Y-77720000D02*
X73660000Y-74930000D01*
X73700000Y-97790000D02*
G75*
G03X73700000Y-97790000I-1310000J0D01*
G01*
X71080000Y-97790000D02*
X68410000Y-97790000D01*
X62230000Y-92670000D02*
X62230000Y-90000000D01*
X63540000Y-93980000D02*
G75*
G03X63540000Y-93980000I-1310000J0D01*
G01*
X67350000Y-82550000D02*
G75*
G03X67350000Y-82550000I-1310000J0D01*
G01*
X67350000Y-82550000D02*
X70020000Y-82550000D01*
X77470000Y-96560000D02*
X77470000Y-99230000D01*
X78780000Y-95250000D02*
G75*
G03X78780000Y-95250000I-1310000J0D01*
G01*
X77470000Y-88860000D02*
X77470000Y-86190000D01*
X78780000Y-90170000D02*
G75*
G03X78780000Y-90170000I-1310000J0D01*
G01*
X80050000Y-104140000D02*
G75*
G03X80050000Y-104140000I-1310000J0D01*
G01*
X77430000Y-104140000D02*
X74760000Y-104140000D01*
X89145001Y-85550000D02*
X89145001Y-84050000D01*
X87895001Y-81550000D02*
X83395001Y-81550000D01*
X82145001Y-84050000D02*
X82145001Y-85550000D01*
X83395001Y-88050000D02*
X87895001Y-88050000D01*
D11*
X66550000Y-94670000D02*
X66550000Y-95470000D01*
X66550000Y-95470000D02*
X73150000Y-95470000D01*
X73150000Y-95470000D02*
X73150000Y-94870000D01*
X73150000Y-85570000D02*
X73150000Y-84870000D01*
X73150000Y-84870000D02*
X66550000Y-84870000D01*
X66550000Y-84870000D02*
X66550000Y-85570000D01*
D12*
X75050000Y-93970000D02*
G75*
G03X75050000Y-93970000I-100000J0D01*
G01*
D13*
X65976666Y-87722380D02*
X65643333Y-87246190D01*
X65405238Y-87722380D02*
X65405238Y-86722380D01*
X65786190Y-86722380D01*
X65881428Y-86770000D01*
X65929047Y-86817619D01*
X65976666Y-86912857D01*
X65976666Y-87055714D01*
X65929047Y-87150952D01*
X65881428Y-87198571D01*
X65786190Y-87246190D01*
X65405238Y-87246190D01*
X66405238Y-87198571D02*
X66738571Y-87198571D01*
X66881428Y-87722380D02*
X66405238Y-87722380D01*
X66405238Y-86722380D01*
X66881428Y-86722380D01*
X67643333Y-87198571D02*
X67310000Y-87198571D01*
X67310000Y-87722380D02*
X67310000Y-86722380D01*
X67786190Y-86722380D01*
X68310000Y-86722380D02*
X68310000Y-86960476D01*
X68071904Y-86865238D02*
X68310000Y-86960476D01*
X68548095Y-86865238D01*
X68167142Y-87150952D02*
X68310000Y-86960476D01*
X68452857Y-87150952D01*
X69071904Y-86722380D02*
X69071904Y-86960476D01*
X68833809Y-86865238D02*
X69071904Y-86960476D01*
X69310000Y-86865238D01*
X68929047Y-87150952D02*
X69071904Y-86960476D01*
X69214761Y-87150952D01*
X71056666Y-88992380D02*
X70723333Y-88516190D01*
X70485238Y-88992380D02*
X70485238Y-87992380D01*
X70866190Y-87992380D01*
X70961428Y-88040000D01*
X71009047Y-88087619D01*
X71056666Y-88182857D01*
X71056666Y-88325714D01*
X71009047Y-88420952D01*
X70961428Y-88468571D01*
X70866190Y-88516190D01*
X70485238Y-88516190D01*
X71485238Y-88468571D02*
X71818571Y-88468571D01*
X71961428Y-88992380D02*
X71485238Y-88992380D01*
X71485238Y-87992380D01*
X71961428Y-87992380D01*
X72723333Y-88468571D02*
X72390000Y-88468571D01*
X72390000Y-88992380D02*
X72390000Y-87992380D01*
X72866190Y-87992380D01*
X73390000Y-87992380D02*
X73390000Y-88230476D01*
X73151904Y-88135238D02*
X73390000Y-88230476D01*
X73628095Y-88135238D01*
X73247142Y-88420952D02*
X73390000Y-88230476D01*
X73532857Y-88420952D01*
X74151904Y-87992380D02*
X74151904Y-88230476D01*
X73913809Y-88135238D02*
X74151904Y-88230476D01*
X74390000Y-88135238D01*
X74009047Y-88420952D02*
X74151904Y-88230476D01*
X74294761Y-88420952D01*
X63436666Y-95342380D02*
X63103333Y-94866190D01*
X62865238Y-95342380D02*
X62865238Y-94342380D01*
X63246190Y-94342380D01*
X63341428Y-94390000D01*
X63389047Y-94437619D01*
X63436666Y-94532857D01*
X63436666Y-94675714D01*
X63389047Y-94770952D01*
X63341428Y-94818571D01*
X63246190Y-94866190D01*
X62865238Y-94866190D01*
X63865238Y-94818571D02*
X64198571Y-94818571D01*
X64341428Y-95342380D02*
X63865238Y-95342380D01*
X63865238Y-94342380D01*
X64341428Y-94342380D01*
X65103333Y-94818571D02*
X64770000Y-94818571D01*
X64770000Y-95342380D02*
X64770000Y-94342380D01*
X65246190Y-94342380D01*
X65770000Y-94342380D02*
X65770000Y-94580476D01*
X65531904Y-94485238D02*
X65770000Y-94580476D01*
X66008095Y-94485238D01*
X65627142Y-94770952D02*
X65770000Y-94580476D01*
X65912857Y-94770952D01*
X66531904Y-94342380D02*
X66531904Y-94580476D01*
X66293809Y-94485238D02*
X66531904Y-94580476D01*
X66770000Y-94485238D01*
X66389047Y-94770952D02*
X66531904Y-94580476D01*
X66674761Y-94770952D01*
X63436666Y-104232380D02*
X63103333Y-103756190D01*
X62865238Y-104232380D02*
X62865238Y-103232380D01*
X63246190Y-103232380D01*
X63341428Y-103280000D01*
X63389047Y-103327619D01*
X63436666Y-103422857D01*
X63436666Y-103565714D01*
X63389047Y-103660952D01*
X63341428Y-103708571D01*
X63246190Y-103756190D01*
X62865238Y-103756190D01*
X63865238Y-103708571D02*
X64198571Y-103708571D01*
X64341428Y-104232380D02*
X63865238Y-104232380D01*
X63865238Y-103232380D01*
X64341428Y-103232380D01*
X65103333Y-103708571D02*
X64770000Y-103708571D01*
X64770000Y-104232380D02*
X64770000Y-103232380D01*
X65246190Y-103232380D01*
X65770000Y-103232380D02*
X65770000Y-103470476D01*
X65531904Y-103375238D02*
X65770000Y-103470476D01*
X66008095Y-103375238D01*
X65627142Y-103660952D02*
X65770000Y-103470476D01*
X65912857Y-103660952D01*
X66531904Y-103232380D02*
X66531904Y-103470476D01*
X66293809Y-103375238D02*
X66531904Y-103470476D01*
X66770000Y-103375238D01*
X66389047Y-103660952D02*
X66531904Y-103470476D01*
X66674761Y-103660952D01*
X66397142Y-100226666D02*
X66444761Y-100274285D01*
X66492380Y-100417142D01*
X66492380Y-100512380D01*
X66444761Y-100655238D01*
X66349523Y-100750476D01*
X66254285Y-100798095D01*
X66063809Y-100845714D01*
X65920952Y-100845714D01*
X65730476Y-100798095D01*
X65635238Y-100750476D01*
X65540000Y-100655238D01*
X65492380Y-100512380D01*
X65492380Y-100417142D01*
X65540000Y-100274285D01*
X65587619Y-100226666D01*
X66492380Y-99274285D02*
X66492380Y-99845714D01*
X66492380Y-99560000D02*
X65492380Y-99560000D01*
X65635238Y-99655238D01*
X65730476Y-99750476D01*
X65778095Y-99845714D01*
X55983333Y-84177142D02*
X55935714Y-84224761D01*
X55792857Y-84272380D01*
X55697619Y-84272380D01*
X55554761Y-84224761D01*
X55459523Y-84129523D01*
X55411904Y-84034285D01*
X55364285Y-83843809D01*
X55364285Y-83700952D01*
X55411904Y-83510476D01*
X55459523Y-83415238D01*
X55554761Y-83320000D01*
X55697619Y-83272380D01*
X55792857Y-83272380D01*
X55935714Y-83320000D01*
X55983333Y-83367619D01*
X56364285Y-83367619D02*
X56411904Y-83320000D01*
X56507142Y-83272380D01*
X56745238Y-83272380D01*
X56840476Y-83320000D01*
X56888095Y-83367619D01*
X56935714Y-83462857D01*
X56935714Y-83558095D01*
X56888095Y-83700952D01*
X56316666Y-84272380D01*
X56935714Y-84272380D01*
X66397142Y-102036666D02*
X66444761Y-102084285D01*
X66492380Y-102227142D01*
X66492380Y-102322380D01*
X66444761Y-102465238D01*
X66349523Y-102560476D01*
X66254285Y-102608095D01*
X66063809Y-102655714D01*
X65920952Y-102655714D01*
X65730476Y-102608095D01*
X65635238Y-102560476D01*
X65540000Y-102465238D01*
X65492380Y-102322380D01*
X65492380Y-102227142D01*
X65540000Y-102084285D01*
X65587619Y-102036666D01*
X65492380Y-101703333D02*
X65492380Y-101084285D01*
X65873333Y-101417619D01*
X65873333Y-101274761D01*
X65920952Y-101179523D01*
X65968571Y-101131904D01*
X66063809Y-101084285D01*
X66301904Y-101084285D01*
X66397142Y-101131904D01*
X66444761Y-101179523D01*
X66492380Y-101274761D01*
X66492380Y-101560476D01*
X66444761Y-101655714D01*
X66397142Y-101703333D01*
X47712380Y-98123333D02*
X48426666Y-98123333D01*
X48569523Y-98170952D01*
X48664761Y-98266190D01*
X48712380Y-98409047D01*
X48712380Y-98504285D01*
X48712380Y-97123333D02*
X48712380Y-97694761D01*
X48712380Y-97409047D02*
X47712380Y-97409047D01*
X47855238Y-97504285D01*
X47950476Y-97599523D01*
X47998095Y-97694761D01*
X90622380Y-98432857D02*
X90622380Y-98909047D01*
X89622380Y-98909047D01*
X90574761Y-98147142D02*
X90622380Y-98004285D01*
X90622380Y-97766190D01*
X90574761Y-97670952D01*
X90527142Y-97623333D01*
X90431904Y-97575714D01*
X90336666Y-97575714D01*
X90241428Y-97623333D01*
X90193809Y-97670952D01*
X90146190Y-97766190D01*
X90098571Y-97956666D01*
X90050952Y-98051904D01*
X90003333Y-98099523D01*
X89908095Y-98147142D01*
X89812857Y-98147142D01*
X89717619Y-98099523D01*
X89670000Y-98051904D01*
X89622380Y-97956666D01*
X89622380Y-97718571D01*
X89670000Y-97575714D01*
X90622380Y-96623333D02*
X90622380Y-97194761D01*
X90622380Y-96909047D02*
X89622380Y-96909047D01*
X89765238Y-97004285D01*
X89860476Y-97099523D01*
X89908095Y-97194761D01*
X68484761Y-81067619D02*
X68389523Y-81020000D01*
X68294285Y-80924761D01*
X68151428Y-80781904D01*
X68056190Y-80734285D01*
X67960952Y-80734285D01*
X68008571Y-80972380D02*
X67913333Y-80924761D01*
X67818095Y-80829523D01*
X67770476Y-80639047D01*
X67770476Y-80305714D01*
X67818095Y-80115238D01*
X67913333Y-80020000D01*
X68008571Y-79972380D01*
X68199047Y-79972380D01*
X68294285Y-80020000D01*
X68389523Y-80115238D01*
X68437142Y-80305714D01*
X68437142Y-80639047D01*
X68389523Y-80829523D01*
X68294285Y-80924761D01*
X68199047Y-80972380D01*
X68008571Y-80972380D01*
X69389523Y-80972380D02*
X68818095Y-80972380D01*
X69103809Y-80972380D02*
X69103809Y-79972380D01*
X69008571Y-80115238D01*
X68913333Y-80210476D01*
X68818095Y-80258095D01*
X74834761Y-81067619D02*
X74739523Y-81020000D01*
X74644285Y-80924761D01*
X74501428Y-80781904D01*
X74406190Y-80734285D01*
X74310952Y-80734285D01*
X74358571Y-80972380D02*
X74263333Y-80924761D01*
X74168095Y-80829523D01*
X74120476Y-80639047D01*
X74120476Y-80305714D01*
X74168095Y-80115238D01*
X74263333Y-80020000D01*
X74358571Y-79972380D01*
X74549047Y-79972380D01*
X74644285Y-80020000D01*
X74739523Y-80115238D01*
X74787142Y-80305714D01*
X74787142Y-80639047D01*
X74739523Y-80829523D01*
X74644285Y-80924761D01*
X74549047Y-80972380D01*
X74358571Y-80972380D01*
X75168095Y-80067619D02*
X75215714Y-80020000D01*
X75310952Y-79972380D01*
X75549047Y-79972380D01*
X75644285Y-80020000D01*
X75691904Y-80067619D01*
X75739523Y-80162857D01*
X75739523Y-80258095D01*
X75691904Y-80400952D01*
X75120476Y-80972380D01*
X75739523Y-80972380D01*
X69683333Y-100552380D02*
X69350000Y-100076190D01*
X69111904Y-100552380D02*
X69111904Y-99552380D01*
X69492857Y-99552380D01*
X69588095Y-99600000D01*
X69635714Y-99647619D01*
X69683333Y-99742857D01*
X69683333Y-99885714D01*
X69635714Y-99980952D01*
X69588095Y-100028571D01*
X69492857Y-100076190D01*
X69111904Y-100076190D01*
X70635714Y-100552380D02*
X70064285Y-100552380D01*
X70350000Y-100552380D02*
X70350000Y-99552380D01*
X70254761Y-99695238D01*
X70159523Y-99790476D01*
X70064285Y-99838095D01*
X60372380Y-91606666D02*
X59896190Y-91940000D01*
X60372380Y-92178095D02*
X59372380Y-92178095D01*
X59372380Y-91797142D01*
X59420000Y-91701904D01*
X59467619Y-91654285D01*
X59562857Y-91606666D01*
X59705714Y-91606666D01*
X59800952Y-91654285D01*
X59848571Y-91701904D01*
X59896190Y-91797142D01*
X59896190Y-92178095D01*
X59467619Y-91225714D02*
X59420000Y-91178095D01*
X59372380Y-91082857D01*
X59372380Y-90844761D01*
X59420000Y-90749523D01*
X59467619Y-90701904D01*
X59562857Y-90654285D01*
X59658095Y-90654285D01*
X59800952Y-90701904D01*
X60372380Y-91273333D01*
X60372380Y-90654285D01*
X68413333Y-80692380D02*
X68080000Y-80216190D01*
X67841904Y-80692380D02*
X67841904Y-79692380D01*
X68222857Y-79692380D01*
X68318095Y-79740000D01*
X68365714Y-79787619D01*
X68413333Y-79882857D01*
X68413333Y-80025714D01*
X68365714Y-80120952D01*
X68318095Y-80168571D01*
X68222857Y-80216190D01*
X67841904Y-80216190D01*
X68746666Y-79692380D02*
X69365714Y-79692380D01*
X69032380Y-80073333D01*
X69175238Y-80073333D01*
X69270476Y-80120952D01*
X69318095Y-80168571D01*
X69365714Y-80263809D01*
X69365714Y-80501904D01*
X69318095Y-80597142D01*
X69270476Y-80644761D01*
X69175238Y-80692380D01*
X68889523Y-80692380D01*
X68794285Y-80644761D01*
X68746666Y-80597142D01*
X80232380Y-97956666D02*
X79756190Y-98290000D01*
X80232380Y-98528095D02*
X79232380Y-98528095D01*
X79232380Y-98147142D01*
X79280000Y-98051904D01*
X79327619Y-98004285D01*
X79422857Y-97956666D01*
X79565714Y-97956666D01*
X79660952Y-98004285D01*
X79708571Y-98051904D01*
X79756190Y-98147142D01*
X79756190Y-98528095D01*
X79565714Y-97099523D02*
X80232380Y-97099523D01*
X79184761Y-97337619D02*
X79899047Y-97575714D01*
X79899047Y-96956666D01*
X75612380Y-87796666D02*
X75136190Y-88130000D01*
X75612380Y-88368095D02*
X74612380Y-88368095D01*
X74612380Y-87987142D01*
X74660000Y-87891904D01*
X74707619Y-87844285D01*
X74802857Y-87796666D01*
X74945714Y-87796666D01*
X75040952Y-87844285D01*
X75088571Y-87891904D01*
X75136190Y-87987142D01*
X75136190Y-88368095D01*
X74612380Y-86891904D02*
X74612380Y-87368095D01*
X75088571Y-87415714D01*
X75040952Y-87368095D01*
X74993333Y-87272857D01*
X74993333Y-87034761D01*
X75040952Y-86939523D01*
X75088571Y-86891904D01*
X75183809Y-86844285D01*
X75421904Y-86844285D01*
X75517142Y-86891904D01*
X75564761Y-86939523D01*
X75612380Y-87034761D01*
X75612380Y-87272857D01*
X75564761Y-87368095D01*
X75517142Y-87415714D01*
X76033333Y-106902380D02*
X75700000Y-106426190D01*
X75461904Y-106902380D02*
X75461904Y-105902380D01*
X75842857Y-105902380D01*
X75938095Y-105950000D01*
X75985714Y-105997619D01*
X76033333Y-106092857D01*
X76033333Y-106235714D01*
X75985714Y-106330952D01*
X75938095Y-106378571D01*
X75842857Y-106426190D01*
X75461904Y-106426190D01*
X76890476Y-105902380D02*
X76700000Y-105902380D01*
X76604761Y-105950000D01*
X76557142Y-105997619D01*
X76461904Y-106140476D01*
X76414285Y-106330952D01*
X76414285Y-106711904D01*
X76461904Y-106807142D01*
X76509523Y-106854761D01*
X76604761Y-106902380D01*
X76795238Y-106902380D01*
X76890476Y-106854761D01*
X76938095Y-106807142D01*
X76985714Y-106711904D01*
X76985714Y-106473809D01*
X76938095Y-106378571D01*
X76890476Y-106330952D01*
X76795238Y-106283333D01*
X76604761Y-106283333D01*
X76509523Y-106330952D01*
X76461904Y-106378571D01*
X76414285Y-106473809D01*
X84311667Y-80954761D02*
X84454524Y-81002380D01*
X84692620Y-81002380D01*
X84787858Y-80954761D01*
X84835477Y-80907142D01*
X84883096Y-80811904D01*
X84883096Y-80716666D01*
X84835477Y-80621428D01*
X84787858Y-80573809D01*
X84692620Y-80526190D01*
X84502143Y-80478571D01*
X84406905Y-80430952D01*
X84359286Y-80383333D01*
X84311667Y-80288095D01*
X84311667Y-80192857D01*
X84359286Y-80097619D01*
X84406905Y-80050000D01*
X84502143Y-80002380D01*
X84740239Y-80002380D01*
X84883096Y-80050000D01*
X85216429Y-80002380D02*
X85454524Y-81002380D01*
X85645001Y-80288095D01*
X85835477Y-81002380D01*
X86073572Y-80002380D01*
X86978334Y-81002380D02*
X86406905Y-81002380D01*
X86692620Y-81002380D02*
X86692620Y-80002380D01*
X86597381Y-80145238D01*
X86502143Y-80240476D01*
X86406905Y-80288095D01*
D14*
X69848083Y-95967755D02*
X69848083Y-96778736D01*
X69895788Y-96874145D01*
X69943493Y-96921850D01*
X70038902Y-96969555D01*
X70229721Y-96969555D01*
X70325131Y-96921850D01*
X70372836Y-96874145D01*
X70420540Y-96778736D01*
X70420540Y-95967755D01*
X71422340Y-96969555D02*
X70849883Y-96969555D01*
X71136112Y-96969555D02*
X71136112Y-95967755D01*
X71040702Y-96110869D01*
X70945293Y-96206279D01*
X70849883Y-96253983D01*
X67806438Y-84351971D02*
X67806438Y-83351041D01*
X68378398Y-84351971D01*
X68378398Y-83351041D01*
X68855031Y-83827675D02*
X69188675Y-83827675D01*
X69331665Y-84351971D02*
X68855031Y-84351971D01*
X68855031Y-83351041D01*
X69331665Y-83351041D01*
X70237268Y-83351041D02*
X69760635Y-83351041D01*
X69712971Y-83827675D01*
X69760635Y-83780011D01*
X69855961Y-83732348D01*
X70094278Y-83732348D01*
X70189605Y-83780011D01*
X70237268Y-83827675D01*
X70284931Y-83923001D01*
X70284931Y-84161318D01*
X70237268Y-84256645D01*
X70189605Y-84304308D01*
X70094278Y-84351971D01*
X69855961Y-84351971D01*
X69760635Y-84304308D01*
X69712971Y-84256645D01*
X71190535Y-83351041D02*
X70713901Y-83351041D01*
X70666238Y-83827675D01*
X70713901Y-83780011D01*
X70809228Y-83732348D01*
X71047545Y-83732348D01*
X71142871Y-83780011D01*
X71190535Y-83827675D01*
X71238198Y-83923001D01*
X71238198Y-84161318D01*
X71190535Y-84256645D01*
X71142871Y-84304308D01*
X71047545Y-84351971D01*
X70809228Y-84351971D01*
X70713901Y-84304308D01*
X70666238Y-84256645D01*
X72143801Y-83351041D02*
X71667168Y-83351041D01*
X71619505Y-83827675D01*
X71667168Y-83780011D01*
X71762495Y-83732348D01*
X72000811Y-83732348D01*
X72096138Y-83780011D01*
X72143801Y-83827675D01*
X72191465Y-83923001D01*
X72191465Y-84161318D01*
X72143801Y-84256645D01*
X72096138Y-84304308D01*
X72000811Y-84351971D01*
X71762495Y-84351971D01*
X71667168Y-84304308D01*
X71619505Y-84256645D01*
M02*
