M48
; DRILL file {KiCad (5.1.2)-2} date 8/24/2019 11:58:28 AM
; FORMAT={-:-/ absolute / metric / decimal}
; #@! TF.CreationDate,2019-08-24T11:58:28+07:00
; #@! TF.GenerationSoftware,Kicad,Pcbnew,(5.1.2)-2
FMAT,2
METRIC
T1C0.500
T2C0.760
T3C0.800
T4C1.000
T5C1.100
T6C1.520
%
G90
G05
T1
X72.39Y-91.44
X67.31Y-90.17
T2
X65.88Y-88.9
X65.88Y-91.44
X65.88Y-93.98
X73.82Y-88.9
X73.82Y-91.44
X73.82Y-93.98
T3
X73.66Y-104.14
X78.74Y-104.14
X77.47Y-95.25
X77.47Y-100.33
X69.85Y-100.87
X69.85Y-102.87
X55.15Y-87.63
X57.15Y-87.63
X62.23Y-88.9
X62.23Y-93.98
X62.23Y-99.06
X62.23Y-101.06
X64.77Y-97.79
X77.47Y-85.09
X77.47Y-90.17
X67.31Y-97.79
X72.39Y-97.79
T4
X67.31Y-78.74
X68.58Y-78.74
X69.85Y-78.74
X65.88Y-86.36
X73.82Y-86.36
X66.04Y-82.55
X71.12Y-82.55
X64.77Y-106.68
X73.66Y-78.74
X74.93Y-78.74
X76.2Y-78.74
T5
X82.395Y-82.55
X82.395Y-87.05
X88.895Y-82.55
X88.895Y-87.05
T6
X85.09Y-95.25
X85.09Y-100.33
X53.34Y-95.25
X53.34Y-100.33
T0
M30
