G04 #@! TF.GenerationSoftware,KiCad,Pcbnew,(5.1.4)-1*
G04 #@! TF.CreationDate,2020-10-06T15:22:12+07:00*
G04 #@! TF.ProjectId,digitalWeight,64696769-7461-46c5-9765-696768742e6b,rev?*
G04 #@! TF.SameCoordinates,Original*
G04 #@! TF.FileFunction,Legend,Top*
G04 #@! TF.FilePolarity,Positive*
%FSLAX46Y46*%
G04 Gerber Fmt 4.6, Leading zero omitted, Abs format (unit mm)*
G04 Created by KiCad (PCBNEW (5.1.4)-1) date 2020-10-06 15:22:12*
%MOMM*%
%LPD*%
G04 APERTURE LIST*
%ADD10C,0.150000*%
%ADD11C,0.120000*%
G04 APERTURE END LIST*
D10*
X148501100Y-51663600D02*
X148501100Y-105003600D01*
X214541100Y-64363600D02*
X214541100Y-53187600D01*
X217081100Y-66903600D02*
X214541100Y-64363600D01*
X217081100Y-101193600D02*
X217081100Y-66903600D01*
X214541100Y-103733600D02*
X217081100Y-101193600D01*
X214541100Y-105003600D02*
X214541100Y-103733600D01*
X213017100Y-51663600D02*
X214541100Y-53187600D01*
X148501100Y-105003600D02*
X214541100Y-105003600D01*
X148501100Y-51663600D02*
X213017100Y-51663600D01*
X172717460Y-67563480D02*
X172717460Y-66166480D01*
X172717460Y-72008480D02*
X172717460Y-73532480D01*
X171955460Y-71627480D02*
X173479460Y-71627480D01*
X171955460Y-71881480D02*
X173479460Y-71881480D01*
X172717460Y-72135480D02*
X173479460Y-72135480D01*
X173479460Y-72135480D02*
X173479460Y-67563480D01*
X173479460Y-67563480D02*
X171955460Y-67563480D01*
X171955460Y-67563480D02*
X171955460Y-72135480D01*
X171955460Y-72135480D02*
X172717460Y-72135480D01*
X195580000Y-64770000D02*
X203200000Y-64770000D01*
X195580000Y-62230000D02*
X203200000Y-62230000D01*
X192760000Y-61950000D02*
X194310000Y-61950000D01*
X203200000Y-64770000D02*
X203200000Y-62230000D01*
X195580000Y-62230000D02*
X195580000Y-64770000D01*
X194310000Y-65050000D02*
X192760000Y-65050000D01*
X192760000Y-65050000D02*
X192760000Y-61950000D01*
X193040000Y-82550000D02*
X205740000Y-82550000D01*
X205740000Y-82550000D02*
X205740000Y-85090000D01*
X205740000Y-85090000D02*
X193040000Y-85090000D01*
X190220000Y-82270000D02*
X191770000Y-82270000D01*
X193040000Y-82550000D02*
X193040000Y-85090000D01*
X191770000Y-85370000D02*
X190220000Y-85370000D01*
X190220000Y-85370000D02*
X190220000Y-82270000D01*
X193040000Y-90170000D02*
X205740000Y-90170000D01*
X205740000Y-90170000D02*
X205740000Y-92710000D01*
X205740000Y-92710000D02*
X193040000Y-92710000D01*
X190220000Y-89890000D02*
X191770000Y-89890000D01*
X193040000Y-90170000D02*
X193040000Y-92710000D01*
X191770000Y-92990000D02*
X190220000Y-92990000D01*
X190220000Y-92990000D02*
X190220000Y-89890000D01*
X207010000Y-68580000D02*
X207010000Y-76200000D01*
X209550000Y-68580000D02*
X209550000Y-76200000D01*
X209830000Y-65760000D02*
X209830000Y-67310000D01*
X207010000Y-76200000D02*
X209550000Y-76200000D01*
X209550000Y-68580000D02*
X207010000Y-68580000D01*
X206730000Y-67310000D02*
X206730000Y-65760000D01*
X206730000Y-65760000D02*
X209830000Y-65760000D01*
X210820000Y-59690000D02*
X210820000Y-57150000D01*
X210540000Y-62510000D02*
X210540000Y-60960000D01*
X210820000Y-59690000D02*
X213360000Y-59690000D01*
X213640000Y-60960000D02*
X213640000Y-62510000D01*
X213640000Y-62510000D02*
X210540000Y-62510000D01*
X213360000Y-59690000D02*
X213360000Y-57150000D01*
X213360000Y-57150000D02*
X210820000Y-57150000D01*
X207010000Y-59690000D02*
X207010000Y-57150000D01*
X206730000Y-62510000D02*
X206730000Y-60960000D01*
X207010000Y-59690000D02*
X209550000Y-59690000D01*
X209830000Y-60960000D02*
X209830000Y-62510000D01*
X209830000Y-62510000D02*
X206730000Y-62510000D01*
X209550000Y-59690000D02*
X209550000Y-57150000D01*
X209550000Y-57150000D02*
X207010000Y-57150000D01*
D11*
X163830000Y-69850000D02*
X163830000Y-59690000D01*
X162560000Y-69850000D02*
X170180000Y-69850000D01*
X170180000Y-69850000D02*
X170180000Y-59690000D01*
X170180000Y-59690000D02*
X162560000Y-59690000D01*
X162560000Y-59690000D02*
X162560000Y-69850000D01*
D10*
X149803004Y-50099980D02*
X150469671Y-51099980D01*
X150469671Y-50099980D02*
X149803004Y-51099980D01*
X150803004Y-50814266D02*
X151279195Y-50814266D01*
X150707766Y-51099980D02*
X151041100Y-50099980D01*
X151374433Y-51099980D01*
X152231576Y-51099980D02*
X151660147Y-51099980D01*
X151945861Y-51099980D02*
X151945861Y-50099980D01*
X151850623Y-50242838D01*
X151755385Y-50338076D01*
X151660147Y-50385695D01*
X210985100Y-73356742D02*
X211032719Y-73404361D01*
X210985100Y-73451980D01*
X210937480Y-73404361D01*
X210985100Y-73356742D01*
X210985100Y-73451980D01*
X175709840Y-70237575D02*
X174709840Y-70237575D01*
X174709840Y-69999480D01*
X174757460Y-69856622D01*
X174852698Y-69761384D01*
X174947936Y-69713765D01*
X175138412Y-69666146D01*
X175281269Y-69666146D01*
X175471745Y-69713765D01*
X175566983Y-69761384D01*
X175662221Y-69856622D01*
X175709840Y-69999480D01*
X175709840Y-70237575D01*
X175709840Y-68713765D02*
X175709840Y-69285194D01*
X175709840Y-68999480D02*
X174709840Y-68999480D01*
X174852698Y-69094718D01*
X174947936Y-69189956D01*
X174995555Y-69285194D01*
X189662380Y-64238095D02*
X188662380Y-64238095D01*
X188662380Y-63857142D01*
X188710000Y-63761904D01*
X188757619Y-63714285D01*
X188852857Y-63666666D01*
X188995714Y-63666666D01*
X189090952Y-63714285D01*
X189138571Y-63761904D01*
X189186190Y-63857142D01*
X189186190Y-64238095D01*
X188757619Y-63285714D02*
X188710000Y-63238095D01*
X188662380Y-63142857D01*
X188662380Y-62904761D01*
X188710000Y-62809523D01*
X188757619Y-62761904D01*
X188852857Y-62714285D01*
X188948095Y-62714285D01*
X189090952Y-62761904D01*
X189662380Y-63333333D01*
X189662380Y-62714285D01*
X187122380Y-84558095D02*
X186122380Y-84558095D01*
X186122380Y-84177142D01*
X186170000Y-84081904D01*
X186217619Y-84034285D01*
X186312857Y-83986666D01*
X186455714Y-83986666D01*
X186550952Y-84034285D01*
X186598571Y-84081904D01*
X186646190Y-84177142D01*
X186646190Y-84558095D01*
X186122380Y-83653333D02*
X186122380Y-83034285D01*
X186503333Y-83367619D01*
X186503333Y-83224761D01*
X186550952Y-83129523D01*
X186598571Y-83081904D01*
X186693809Y-83034285D01*
X186931904Y-83034285D01*
X187027142Y-83081904D01*
X187074761Y-83129523D01*
X187122380Y-83224761D01*
X187122380Y-83510476D01*
X187074761Y-83605714D01*
X187027142Y-83653333D01*
X187122380Y-92178095D02*
X186122380Y-92178095D01*
X186122380Y-91797142D01*
X186170000Y-91701904D01*
X186217619Y-91654285D01*
X186312857Y-91606666D01*
X186455714Y-91606666D01*
X186550952Y-91654285D01*
X186598571Y-91701904D01*
X186646190Y-91797142D01*
X186646190Y-92178095D01*
X186455714Y-90749523D02*
X187122380Y-90749523D01*
X186074761Y-90987619D02*
X186789047Y-91225714D01*
X186789047Y-90606666D01*
X207541904Y-62662380D02*
X207541904Y-61662380D01*
X207922857Y-61662380D01*
X208018095Y-61710000D01*
X208065714Y-61757619D01*
X208113333Y-61852857D01*
X208113333Y-61995714D01*
X208065714Y-62090952D01*
X208018095Y-62138571D01*
X207922857Y-62186190D01*
X207541904Y-62186190D01*
X209018095Y-61662380D02*
X208541904Y-61662380D01*
X208494285Y-62138571D01*
X208541904Y-62090952D01*
X208637142Y-62043333D01*
X208875238Y-62043333D01*
X208970476Y-62090952D01*
X209018095Y-62138571D01*
X209065714Y-62233809D01*
X209065714Y-62471904D01*
X209018095Y-62567142D01*
X208970476Y-62614761D01*
X208875238Y-62662380D01*
X208637142Y-62662380D01*
X208541904Y-62614761D01*
X208494285Y-62567142D01*
X211351904Y-66512380D02*
X211351904Y-65512380D01*
X211732857Y-65512380D01*
X211828095Y-65560000D01*
X211875714Y-65607619D01*
X211923333Y-65702857D01*
X211923333Y-65845714D01*
X211875714Y-65940952D01*
X211828095Y-65988571D01*
X211732857Y-66036190D01*
X211351904Y-66036190D01*
X212780476Y-65512380D02*
X212590000Y-65512380D01*
X212494761Y-65560000D01*
X212447142Y-65607619D01*
X212351904Y-65750476D01*
X212304285Y-65940952D01*
X212304285Y-66321904D01*
X212351904Y-66417142D01*
X212399523Y-66464761D01*
X212494761Y-66512380D01*
X212685238Y-66512380D01*
X212780476Y-66464761D01*
X212828095Y-66417142D01*
X212875714Y-66321904D01*
X212875714Y-66083809D01*
X212828095Y-65988571D01*
X212780476Y-65940952D01*
X212685238Y-65893333D01*
X212494761Y-65893333D01*
X212399523Y-65940952D01*
X212351904Y-65988571D01*
X212304285Y-66083809D01*
X207541904Y-66512380D02*
X207541904Y-65512380D01*
X207922857Y-65512380D01*
X208018095Y-65560000D01*
X208065714Y-65607619D01*
X208113333Y-65702857D01*
X208113333Y-65845714D01*
X208065714Y-65940952D01*
X208018095Y-65988571D01*
X207922857Y-66036190D01*
X207541904Y-66036190D01*
X208446666Y-65512380D02*
X209113333Y-65512380D01*
X208684761Y-66512380D01*
X171902380Y-65508095D02*
X170902380Y-65508095D01*
X170902380Y-65127142D01*
X170950000Y-65031904D01*
X170997619Y-64984285D01*
X171092857Y-64936666D01*
X171235714Y-64936666D01*
X171330952Y-64984285D01*
X171378571Y-65031904D01*
X171426190Y-65127142D01*
X171426190Y-65508095D01*
X171902380Y-63984285D02*
X171902380Y-64555714D01*
X171902380Y-64270000D02*
X170902380Y-64270000D01*
X171045238Y-64365238D01*
X171140476Y-64460476D01*
X171188095Y-64555714D01*
M02*
