M48
; DRILL file {KiCad (5.1.4)-1} date 10/6/2020 3:22:09 PM
; FORMAT={-:-/ absolute / inch / decimal}
; #@! TF.CreationDate,2020-10-06T15:22:09+07:00
; #@! TF.GenerationSoftware,Kicad,Pcbnew,(5.1.4)-1
; #@! TF.FileFunction,Plated,1,2,PTH
FMAT,2
INCH
T1C0.0276
T2C0.0400
T3C0.0598
%
G90
G05
T1
X6.7999Y-2.55
X6.7999Y-2.95
T2
X7.65Y-2.5
X7.75Y-2.5
X7.85Y-2.5
X7.95Y-2.5
X8.35Y-2.3
X8.35Y-2.4
X7.55Y-3.6
X7.65Y-3.6
X7.75Y-3.6
X7.85Y-3.6
X7.95Y-3.6
X8.05Y-3.6
X8.2Y-2.65
X8.2Y-2.75
X8.2Y-2.85
X8.2Y-2.95
X6.5865Y-2.134
X6.6865Y-2.134
X6.7865Y-2.134
X6.8865Y-2.134
X6.9465Y-4.034
X6.9865Y-2.134
X7.0465Y-4.034
X7.0865Y-2.134
X7.1465Y-4.034
X7.1865Y-2.134
X7.2465Y-4.034
X7.2865Y-2.134
X7.3465Y-4.034
X7.3865Y-2.134
X7.4465Y-4.034
X7.4865Y-2.134
X7.5465Y-4.034
X7.6465Y-2.134
X7.6465Y-4.034
X7.7465Y-2.134
X7.8465Y-2.134
X7.8465Y-4.034
X7.9465Y-2.134
X7.9465Y-4.034
X8.0465Y-2.134
X8.0465Y-4.034
X8.1465Y-2.134
X8.1465Y-4.034
X8.2465Y-2.134
X8.2465Y-4.034
X8.3465Y-2.134
X8.3465Y-4.034
X8.3515Y-2.934
X8.3515Y-3.034
X8.3515Y-3.134
X8.4515Y-2.934
X8.4515Y-3.034
X8.4515Y-3.134
X8.2Y-2.3
X8.2Y-2.4
X7.55Y-3.3
X7.65Y-3.3
X7.75Y-3.3
X7.85Y-3.3
X7.95Y-3.3
X8.05Y-3.3
T3
X6.55Y-2.45
X6.55Y-2.65
T0
M30
