G04 PROTEUS GERBER X2 FILE*
%TF.GenerationSoftware,Labcenter,Proteus,8.6-SP2-Build23525*%
%TF.CreationDate,2019-06-13T07:32:06+00:00*%
%TF.FileFunction,Plated,0,2,PTH*%
%TF.FilePolarity,Positive*%
%TF.Part,Single*%
%FSLAX45Y45*%
%MOMM*%
G01*
%TA.AperFunction,ViaDrill*%
%ADD70C,0.381000*%
%TA.AperFunction,ComponentDrill*%
%ADD71C,1.270000*%
%ADD20C,1.778000*%
%TA.AperFunction,ComponentDrill*%
%ADD21C,0.762000*%
%TA.AperFunction,OtherDrill,Unknown*%
%ADD22C,1.778000*%
%ADD23C,1.524000*%
%TD.AperFunction*%
D70*
X-6652960Y+7326943D03*
X-6181316Y+6403308D03*
X-7514325Y+4949067D03*
X-7519365Y+8113986D03*
X-6006845Y+5698248D03*
X-6551505Y+5713959D03*
X-7795325Y+5121482D03*
X-7790000Y+5570000D03*
X-7800000Y+6280000D03*
X-7812963Y+7196990D03*
D71*
X-10870000Y+5900000D03*
X-10870000Y+6154000D03*
X-10870000Y+6408000D03*
X-10870000Y+6662000D03*
D20*
X-4400000Y+7990000D03*
X-4400000Y+6990000D03*
X-4400000Y+5990000D03*
X-4400000Y+4990000D03*
D71*
X-8752000Y+7914000D03*
X-8752000Y+7660000D03*
X-7990000Y+7660000D03*
X-7990000Y+7914000D03*
D21*
X-9270000Y+7650000D03*
D71*
X-10286000Y+7650000D03*
X-8790000Y+7190000D03*
X-8790000Y+6936000D03*
D21*
X-8028000Y+6936000D03*
D71*
X-8028000Y+7190000D03*
X-9270000Y+6920000D03*
X-10286000Y+6920000D03*
X-9240000Y+6090000D03*
X-10256000Y+6090000D03*
X-8770000Y+5300000D03*
X-8770000Y+5046000D03*
X-8008000Y+5046000D03*
D21*
X-8008000Y+5300000D03*
D71*
X-9250000Y+5060000D03*
X-10266000Y+5060000D03*
X-7140000Y+8414000D03*
X-7140000Y+8160000D03*
X-7140000Y+7906000D03*
X-7140000Y+7308000D03*
X-7140000Y+7054000D03*
X-7140000Y+6800000D03*
X-7160000Y+6264000D03*
X-7160000Y+6010000D03*
X-7160000Y+5756000D03*
X-7140000Y+5210000D03*
X-7140000Y+4956000D03*
X-7140000Y+4702000D03*
X-6136000Y+8180000D03*
X-5120000Y+8180000D03*
X-6190000Y+5920000D03*
X-5174000Y+5920000D03*
X-6260000Y+6690000D03*
X-5244000Y+6690000D03*
X-6170000Y+4990000D03*
X-5154000Y+4990000D03*
D22*
X-11090000Y+8640000D03*
X-11100000Y+4220000D03*
X-3740000Y+4420000D03*
D23*
X-3630000Y+8690000D03*
D71*
X-8760000Y+6160000D03*
D21*
X-8760000Y+5906000D03*
X-7998000Y+5906000D03*
X-7998000Y+6160000D03*
X-6130000Y+7170000D03*
X-5368000Y+7170000D03*
X-6140000Y+7710000D03*
X-5378000Y+7710000D03*
M02*
