G04 PROTEUS GERBER X2 FILE*
%TF.GenerationSoftware,Labcenter,Proteus,8.6-SP2-Build23525*%
%TF.CreationDate,2019-07-05T07:02:46+00:00*%
%TF.FileFunction,Legend,Top*%
%TF.FilePolarity,Positive*%
%TF.Part,Single*%
%FSLAX45Y45*%
%MOMM*%
G01*
%TA.AperFunction,Material*%
%ADD18C,0.203200*%
%TA.AperFunction,Profile*%
%ADD17C,0.203200*%
%TD.AperFunction*%
D18*
X-13372000Y+8624000D02*
X-14388000Y+8624000D01*
X-13372000Y+7608000D02*
X-14388000Y+7608000D01*
X-14388000Y+8624000D02*
X-14388000Y+7608000D01*
X-13372000Y+8624000D02*
X-13372000Y+7608000D01*
X-13239920Y+7798500D02*
X-13331360Y+7798500D01*
X-13331360Y+7877875D01*
X-13316120Y+7893750D01*
X-13300880Y+7893750D01*
X-13285640Y+7877875D01*
X-13285640Y+7798500D01*
X-13300880Y+7925500D02*
X-13331360Y+7957250D01*
X-13331360Y+7989000D01*
X-13300880Y+8020750D01*
X-13270400Y+8020750D01*
X-13239920Y+7989000D01*
X-13239920Y+7957250D01*
X-13270400Y+7925500D01*
X-13300880Y+7925500D01*
X-13331360Y+8052500D02*
X-13239920Y+8052500D01*
X-13285640Y+8100125D01*
X-13239920Y+8147750D01*
X-13331360Y+8147750D01*
X-13239920Y+8274750D02*
X-13239920Y+8179500D01*
X-13331360Y+8179500D01*
X-13331360Y+8274750D01*
X-13285640Y+8179500D02*
X-13285640Y+8243000D01*
X-13239920Y+8306500D02*
X-13331360Y+8306500D01*
X-13331360Y+8385875D01*
X-13316120Y+8401750D01*
X-13300880Y+8401750D01*
X-13285640Y+8385875D01*
X-13285640Y+8306500D01*
X-13285640Y+8385875D02*
X-13270400Y+8401750D01*
X-13239920Y+8401750D01*
X-10690000Y+4292000D02*
X-10190000Y+4292000D01*
X-10190000Y+8292000D01*
X-10690000Y+8292000D01*
X-10690000Y+4292000D01*
X-12940000Y+4292000D02*
X-12440000Y+4292000D01*
X-12440000Y+8292000D01*
X-12940000Y+8292000D01*
X-12940000Y+4292000D01*
X-12260000Y+8039120D02*
X-12260000Y+8130560D01*
X-12228250Y+8176280D01*
X-12196500Y+8176280D01*
X-12164750Y+8130560D01*
X-12164750Y+8039120D01*
X-12260000Y+8084840D02*
X-12164750Y+8084840D01*
X-12133000Y+8061980D02*
X-12133000Y+8153420D01*
X-12117125Y+8176280D01*
X-12053625Y+8176280D01*
X-12037750Y+8153420D01*
X-12037750Y+8061980D01*
X-12053625Y+8039120D01*
X-12117125Y+8039120D01*
X-12133000Y+8061980D01*
X-12133000Y+8039120D02*
X-12037750Y+8176280D01*
X-12196500Y+7824840D02*
X-12164750Y+7824840D01*
X-12164750Y+7779120D01*
X-12228250Y+7779120D01*
X-12260000Y+7824840D01*
X-12260000Y+7870560D01*
X-12228250Y+7916280D01*
X-12180625Y+7916280D01*
X-12164750Y+7893420D01*
X-12270000Y+7656280D02*
X-12270000Y+7587700D01*
X-12222375Y+7519120D01*
X-12174750Y+7587700D01*
X-12174750Y+7656280D01*
X-12143000Y+7656280D02*
X-12143000Y+7541980D01*
X-12127125Y+7519120D01*
X-12063625Y+7519120D01*
X-12047750Y+7541980D01*
X-12047750Y+7656280D01*
X-12270000Y+7281980D02*
X-12254125Y+7259120D01*
X-12190625Y+7259120D01*
X-12174750Y+7281980D01*
X-12174750Y+7304840D01*
X-12190625Y+7327700D01*
X-12254125Y+7327700D01*
X-12270000Y+7350560D01*
X-12270000Y+7373420D01*
X-12254125Y+7396280D01*
X-12190625Y+7396280D01*
X-12174750Y+7373420D01*
X-12127125Y+7373420D02*
X-12111250Y+7396280D01*
X-12063625Y+7396280D01*
X-12047750Y+7373420D01*
X-12047750Y+7350560D01*
X-12063625Y+7327700D01*
X-12047750Y+7304840D01*
X-12047750Y+7281980D01*
X-12063625Y+7259120D01*
X-12111250Y+7259120D01*
X-12127125Y+7281980D01*
X-12095375Y+7327700D02*
X-12063625Y+7327700D01*
X-12260000Y+7021980D02*
X-12244125Y+6999120D01*
X-12180625Y+6999120D01*
X-12164750Y+7021980D01*
X-12164750Y+7044840D01*
X-12180625Y+7067700D01*
X-12244125Y+7067700D01*
X-12260000Y+7090560D01*
X-12260000Y+7113420D01*
X-12244125Y+7136280D01*
X-12180625Y+7136280D01*
X-12164750Y+7113420D01*
X-12117125Y+7113420D02*
X-12101250Y+7136280D01*
X-12053625Y+7136280D01*
X-12037750Y+7113420D01*
X-12037750Y+7090560D01*
X-12053625Y+7067700D01*
X-12101250Y+7067700D01*
X-12117125Y+7044840D01*
X-12117125Y+6999120D01*
X-12037750Y+6999120D01*
X-12260000Y+6761980D02*
X-12244125Y+6739120D01*
X-12180625Y+6739120D01*
X-12164750Y+6761980D01*
X-12164750Y+6784840D01*
X-12180625Y+6807700D01*
X-12244125Y+6807700D01*
X-12260000Y+6830560D01*
X-12260000Y+6853420D01*
X-12244125Y+6876280D01*
X-12180625Y+6876280D01*
X-12164750Y+6853420D01*
X-12101250Y+6830560D02*
X-12069500Y+6876280D01*
X-12069500Y+6739120D01*
X-12270000Y+6501980D02*
X-12254125Y+6479120D01*
X-12190625Y+6479120D01*
X-12174750Y+6501980D01*
X-12174750Y+6524840D01*
X-12190625Y+6547700D01*
X-12254125Y+6547700D01*
X-12270000Y+6570560D01*
X-12270000Y+6593420D01*
X-12254125Y+6616280D01*
X-12190625Y+6616280D01*
X-12174750Y+6593420D01*
X-12047750Y+6501980D02*
X-12063625Y+6479120D01*
X-12111250Y+6479120D01*
X-12143000Y+6524840D01*
X-12143000Y+6570560D01*
X-12111250Y+6616280D01*
X-12063625Y+6616280D01*
X-12047750Y+6593420D01*
X-12270000Y+6241980D02*
X-12254125Y+6219120D01*
X-12190625Y+6219120D01*
X-12174750Y+6241980D01*
X-12174750Y+6264840D01*
X-12190625Y+6287700D01*
X-12254125Y+6287700D01*
X-12270000Y+6310560D01*
X-12270000Y+6333420D01*
X-12254125Y+6356280D01*
X-12190625Y+6356280D01*
X-12174750Y+6333420D01*
X-12143000Y+6241980D02*
X-12143000Y+6333420D01*
X-12127125Y+6356280D01*
X-12063625Y+6356280D01*
X-12047750Y+6333420D01*
X-12047750Y+6241980D01*
X-12063625Y+6219120D01*
X-12127125Y+6219120D01*
X-12143000Y+6241980D01*
X-12143000Y+6219120D02*
X-12047750Y+6356280D01*
X-12270000Y+6011980D02*
X-12254125Y+5989120D01*
X-12190625Y+5989120D01*
X-12174750Y+6011980D01*
X-12174750Y+6034840D01*
X-12190625Y+6057700D01*
X-12254125Y+6057700D01*
X-12270000Y+6080560D01*
X-12270000Y+6103420D01*
X-12254125Y+6126280D01*
X-12190625Y+6126280D01*
X-12174750Y+6103420D01*
X-12143000Y+6126280D02*
X-12143000Y+5989120D01*
X-12047750Y+6126280D02*
X-12095375Y+6057700D01*
X-12047750Y+5989120D01*
X-12143000Y+6057700D02*
X-12095375Y+6057700D01*
X-12216500Y+5774840D02*
X-12184750Y+5774840D01*
X-12184750Y+5729120D01*
X-12248250Y+5729120D01*
X-12280000Y+5774840D01*
X-12280000Y+5820560D01*
X-12248250Y+5866280D01*
X-12200625Y+5866280D01*
X-12184750Y+5843420D01*
X-12264125Y+5583420D02*
X-12248250Y+5606280D01*
X-12200625Y+5606280D01*
X-12184750Y+5583420D01*
X-12184750Y+5560560D01*
X-12200625Y+5537700D01*
X-12184750Y+5514840D01*
X-12184750Y+5491980D01*
X-12200625Y+5469120D01*
X-12248250Y+5469120D01*
X-12264125Y+5491980D01*
X-12232375Y+5537700D02*
X-12200625Y+5537700D01*
X-12153000Y+5606280D02*
X-12153000Y+5537700D01*
X-12105375Y+5469120D01*
X-12057750Y+5537700D01*
X-12057750Y+5606280D01*
X-12174750Y+5209120D02*
X-12270000Y+5209120D01*
X-12270000Y+5346280D01*
X-12174750Y+5346280D01*
X-12270000Y+5277700D02*
X-12206500Y+5277700D01*
X-12143000Y+5209120D02*
X-12143000Y+5346280D01*
X-12047750Y+5209120D01*
X-12047750Y+5346280D01*
X-12270000Y+4949120D02*
X-12270000Y+5086280D01*
X-12190625Y+5086280D01*
X-12174750Y+5063420D01*
X-12174750Y+5040560D01*
X-12190625Y+5017700D01*
X-12270000Y+5017700D01*
X-12190625Y+5017700D02*
X-12174750Y+4994840D01*
X-12174750Y+4949120D01*
X-12143000Y+4971980D02*
X-12127125Y+4949120D01*
X-12063625Y+4949120D01*
X-12047750Y+4971980D01*
X-12047750Y+4994840D01*
X-12063625Y+5017700D01*
X-12127125Y+5017700D01*
X-12143000Y+5040560D01*
X-12143000Y+5063420D01*
X-12127125Y+5086280D01*
X-12063625Y+5086280D01*
X-12047750Y+5063420D01*
X-12016000Y+5086280D02*
X-11920750Y+5086280D01*
X-11968375Y+5086280D02*
X-11968375Y+4949120D01*
X-12216500Y+4734840D02*
X-12184750Y+4734840D01*
X-12184750Y+4689120D01*
X-12248250Y+4689120D01*
X-12280000Y+4734840D01*
X-12280000Y+4780560D01*
X-12248250Y+4826280D01*
X-12200625Y+4826280D01*
X-12184750Y+4803420D01*
X-12280000Y+4566280D02*
X-12280000Y+4497700D01*
X-12232375Y+4429120D01*
X-12184750Y+4497700D01*
X-12184750Y+4566280D01*
X-12137125Y+4566280D02*
X-12073625Y+4566280D01*
X-12105375Y+4566280D02*
X-12105375Y+4429120D01*
X-12137125Y+4429120D02*
X-12073625Y+4429120D01*
X-12026000Y+4429120D02*
X-12026000Y+4566280D01*
X-11930750Y+4429120D01*
X-11930750Y+4566280D01*
X-11140000Y+8029120D02*
X-11140000Y+8166280D01*
X-11076500Y+8166280D01*
X-11044750Y+8120560D01*
X-11044750Y+8074840D01*
X-11076500Y+8029120D01*
X-11140000Y+8029120D01*
X-11013000Y+8051980D02*
X-11013000Y+8143420D01*
X-10997125Y+8166280D01*
X-10933625Y+8166280D01*
X-10917750Y+8143420D01*
X-10917750Y+8051980D01*
X-10933625Y+8029120D01*
X-10997125Y+8029120D01*
X-11013000Y+8051980D01*
X-11013000Y+8029120D02*
X-10917750Y+8166280D01*
X-11140000Y+7769120D02*
X-11140000Y+7906280D01*
X-11076500Y+7906280D01*
X-11044750Y+7860560D01*
X-11044750Y+7814840D01*
X-11076500Y+7769120D01*
X-11140000Y+7769120D01*
X-10981250Y+7860560D02*
X-10949500Y+7906280D01*
X-10949500Y+7769120D01*
X-11150000Y+7509120D02*
X-11150000Y+7646280D01*
X-11086500Y+7646280D01*
X-11054750Y+7600560D01*
X-11054750Y+7554840D01*
X-11086500Y+7509120D01*
X-11150000Y+7509120D01*
X-11007125Y+7623420D02*
X-10991250Y+7646280D01*
X-10943625Y+7646280D01*
X-10927750Y+7623420D01*
X-10927750Y+7600560D01*
X-10943625Y+7577700D01*
X-10991250Y+7577700D01*
X-11007125Y+7554840D01*
X-11007125Y+7509120D01*
X-10927750Y+7509120D01*
X-11150000Y+7249120D02*
X-11150000Y+7386280D01*
X-11086500Y+7386280D01*
X-11054750Y+7340560D01*
X-11054750Y+7294840D01*
X-11086500Y+7249120D01*
X-11150000Y+7249120D01*
X-11007125Y+7363420D02*
X-10991250Y+7386280D01*
X-10943625Y+7386280D01*
X-10927750Y+7363420D01*
X-10927750Y+7340560D01*
X-10943625Y+7317700D01*
X-10927750Y+7294840D01*
X-10927750Y+7271980D01*
X-10943625Y+7249120D01*
X-10991250Y+7249120D01*
X-11007125Y+7271980D01*
X-10975375Y+7317700D02*
X-10943625Y+7317700D01*
X-11140000Y+6989120D02*
X-11140000Y+7126280D01*
X-11076500Y+7126280D01*
X-11044750Y+7080560D01*
X-11044750Y+7034840D01*
X-11076500Y+6989120D01*
X-11140000Y+6989120D01*
X-10917750Y+7034840D02*
X-11013000Y+7034840D01*
X-10949500Y+7126280D01*
X-10949500Y+6989120D01*
X-11124125Y+6843420D02*
X-11108250Y+6866280D01*
X-11060625Y+6866280D01*
X-11044750Y+6843420D01*
X-11044750Y+6820560D01*
X-11060625Y+6797700D01*
X-11044750Y+6774840D01*
X-11044750Y+6751980D01*
X-11060625Y+6729120D01*
X-11108250Y+6729120D01*
X-11124125Y+6751980D01*
X-11092375Y+6797700D02*
X-11060625Y+6797700D01*
X-11013000Y+6866280D02*
X-11013000Y+6797700D01*
X-10965375Y+6729120D01*
X-10917750Y+6797700D01*
X-10917750Y+6866280D01*
X-11086500Y+6514840D02*
X-11054750Y+6514840D01*
X-11054750Y+6469120D01*
X-11118250Y+6469120D01*
X-11150000Y+6514840D01*
X-11150000Y+6560560D01*
X-11118250Y+6606280D01*
X-11070625Y+6606280D01*
X-11054750Y+6583420D01*
X-11150000Y+6209120D02*
X-11150000Y+6346280D01*
X-11086500Y+6346280D01*
X-11054750Y+6300560D01*
X-11054750Y+6254840D01*
X-11086500Y+6209120D01*
X-11150000Y+6209120D01*
X-10927750Y+6346280D02*
X-11007125Y+6346280D01*
X-11007125Y+6300560D01*
X-10943625Y+6300560D01*
X-10927750Y+6277700D01*
X-10927750Y+6231980D01*
X-10943625Y+6209120D01*
X-10991250Y+6209120D01*
X-11007125Y+6231980D01*
X-11150000Y+5979120D02*
X-11150000Y+6116280D01*
X-11086500Y+6116280D01*
X-11054750Y+6070560D01*
X-11054750Y+6024840D01*
X-11086500Y+5979120D01*
X-11150000Y+5979120D01*
X-10927750Y+6093420D02*
X-10943625Y+6116280D01*
X-10991250Y+6116280D01*
X-11007125Y+6093420D01*
X-11007125Y+6001980D01*
X-10991250Y+5979120D01*
X-10943625Y+5979120D01*
X-10927750Y+6001980D01*
X-10927750Y+6024840D01*
X-10943625Y+6047700D01*
X-11007125Y+6047700D01*
X-11160000Y+5719120D02*
X-11160000Y+5856280D01*
X-11096500Y+5856280D01*
X-11064750Y+5810560D01*
X-11064750Y+5764840D01*
X-11096500Y+5719120D01*
X-11160000Y+5719120D01*
X-11017125Y+5856280D02*
X-10937750Y+5856280D01*
X-10937750Y+5833420D01*
X-11017125Y+5719120D01*
X-11160000Y+5459120D02*
X-11160000Y+5596280D01*
X-11096500Y+5596280D01*
X-11064750Y+5550560D01*
X-11064750Y+5504840D01*
X-11096500Y+5459120D01*
X-11160000Y+5459120D01*
X-11001250Y+5527700D02*
X-11017125Y+5550560D01*
X-11017125Y+5573420D01*
X-11001250Y+5596280D01*
X-10953625Y+5596280D01*
X-10937750Y+5573420D01*
X-10937750Y+5550560D01*
X-10953625Y+5527700D01*
X-11001250Y+5527700D01*
X-11017125Y+5504840D01*
X-11017125Y+5481980D01*
X-11001250Y+5459120D01*
X-10953625Y+5459120D01*
X-10937750Y+5481980D01*
X-10937750Y+5504840D01*
X-10953625Y+5527700D01*
X-11150000Y+5199120D02*
X-11150000Y+5336280D01*
X-11070625Y+5336280D01*
X-11054750Y+5313420D01*
X-11054750Y+5290560D01*
X-11070625Y+5267700D01*
X-11150000Y+5267700D01*
X-11070625Y+5267700D02*
X-11054750Y+5244840D01*
X-11054750Y+5199120D01*
X-11023000Y+5336280D02*
X-10927750Y+5199120D01*
X-11023000Y+5199120D02*
X-10927750Y+5336280D01*
X-11150000Y+5076280D02*
X-11054750Y+5076280D01*
X-11102375Y+5076280D02*
X-11102375Y+4939120D01*
X-11023000Y+5076280D02*
X-10927750Y+4939120D01*
X-11023000Y+4939120D02*
X-10927750Y+5076280D01*
X-11096500Y+4724840D02*
X-11064750Y+4724840D01*
X-11064750Y+4679120D01*
X-11128250Y+4679120D01*
X-11160000Y+4724840D01*
X-11160000Y+4770560D01*
X-11128250Y+4816280D01*
X-11080625Y+4816280D01*
X-11064750Y+4793420D01*
X-11144125Y+4533420D02*
X-11128250Y+4556280D01*
X-11080625Y+4556280D01*
X-11064750Y+4533420D01*
X-11064750Y+4510560D01*
X-11080625Y+4487700D01*
X-11064750Y+4464840D01*
X-11064750Y+4441980D01*
X-11080625Y+4419120D01*
X-11128250Y+4419120D01*
X-11144125Y+4441980D01*
X-11112375Y+4487700D02*
X-11080625Y+4487700D01*
X-11033000Y+4556280D02*
X-11033000Y+4487700D01*
X-10985375Y+4419120D01*
X-10937750Y+4487700D01*
X-10937750Y+4556280D01*
X-12200000Y+8332640D02*
X-12200000Y+8424080D01*
X-12152375Y+8378360D01*
X-12104750Y+8424080D01*
X-12104750Y+8332640D01*
X-12073000Y+8393600D02*
X-12041250Y+8424080D01*
X-12009500Y+8424080D01*
X-11977750Y+8393600D01*
X-11977750Y+8363120D01*
X-12009500Y+8332640D01*
X-12041250Y+8332640D01*
X-12073000Y+8363120D01*
X-12073000Y+8393600D01*
X-11946000Y+8332640D02*
X-11946000Y+8424080D01*
X-11850750Y+8332640D01*
X-11850750Y+8424080D01*
X-11819000Y+8347880D02*
X-11803125Y+8332640D01*
X-11739625Y+8332640D01*
X-11723750Y+8347880D01*
X-11723750Y+8363120D01*
X-11739625Y+8378360D01*
X-11803125Y+8378360D01*
X-11819000Y+8393600D01*
X-11819000Y+8408840D01*
X-11803125Y+8424080D01*
X-11739625Y+8424080D01*
X-11723750Y+8408840D01*
X-11692000Y+8424080D02*
X-11596750Y+8424080D01*
X-11644375Y+8424080D02*
X-11644375Y+8332640D01*
X-11469750Y+8332640D02*
X-11565000Y+8332640D01*
X-11565000Y+8424080D01*
X-11469750Y+8424080D01*
X-11565000Y+8378360D02*
X-11501500Y+8378360D01*
X-11438000Y+8332640D02*
X-11438000Y+8424080D01*
X-11358625Y+8424080D01*
X-11342750Y+8408840D01*
X-11342750Y+8393600D01*
X-11358625Y+8378360D01*
X-11438000Y+8378360D01*
X-11358625Y+8378360D02*
X-11342750Y+8363120D01*
X-11342750Y+8332640D01*
X-11295125Y+8424080D02*
X-11231625Y+8424080D01*
X-11263375Y+8424080D02*
X-11263375Y+8332640D01*
X-11295125Y+8332640D02*
X-11231625Y+8332640D01*
X-11184000Y+8424080D02*
X-11088750Y+8424080D01*
X-11136375Y+8424080D02*
X-11136375Y+8332640D01*
X-10961750Y+8347880D02*
X-10977625Y+8332640D01*
X-11025250Y+8332640D01*
X-11057000Y+8363120D01*
X-11057000Y+8393600D01*
X-11025250Y+8424080D01*
X-10977625Y+8424080D01*
X-10961750Y+8408840D01*
X-9382000Y+8387000D02*
X-9255000Y+8387000D01*
X-9255000Y+7879000D01*
X-9763000Y+7879000D01*
X-9763000Y+8387000D01*
X-9636000Y+8387000D01*
X-9509000Y+8260000D02*
X-9483124Y+8262436D01*
X-9459152Y+8269485D01*
X-9437562Y+8280762D01*
X-9418830Y+8295878D01*
X-9403431Y+8314446D01*
X-9391842Y+8336081D01*
X-9384540Y+8360394D01*
X-9382000Y+8387000D01*
X-9509000Y+8260000D02*
X-9535606Y+8262436D01*
X-9559919Y+8269485D01*
X-9581554Y+8280762D01*
X-9600122Y+8295878D01*
X-9615238Y+8314446D01*
X-9626515Y+8336081D01*
X-9633564Y+8360394D01*
X-9636000Y+8387000D01*
X-10207500Y+8488600D02*
X-10175750Y+8519080D01*
X-10144000Y+8519080D01*
X-10112250Y+8488600D01*
X-10112250Y+8458120D01*
X-10144000Y+8427640D01*
X-10175750Y+8427640D01*
X-10207500Y+8458120D01*
X-10207500Y+8488600D01*
X-10080500Y+8427640D02*
X-10080500Y+8519080D01*
X-10001125Y+8519080D01*
X-9985250Y+8503840D01*
X-9985250Y+8488600D01*
X-10001125Y+8473360D01*
X-10080500Y+8473360D01*
X-9953500Y+8519080D02*
X-9858250Y+8519080D01*
X-9905875Y+8519080D02*
X-9905875Y+8427640D01*
X-9826500Y+8488600D02*
X-9794750Y+8519080D01*
X-9763000Y+8519080D01*
X-9731250Y+8488600D01*
X-9731250Y+8458120D01*
X-9763000Y+8427640D01*
X-9794750Y+8427640D01*
X-9826500Y+8458120D01*
X-9826500Y+8488600D01*
X-9604250Y+8442880D02*
X-9620125Y+8427640D01*
X-9667750Y+8427640D01*
X-9699500Y+8458120D01*
X-9699500Y+8488600D01*
X-9667750Y+8519080D01*
X-9620125Y+8519080D01*
X-9604250Y+8503840D01*
X-9572500Y+8488600D02*
X-9540750Y+8519080D01*
X-9509000Y+8519080D01*
X-9477250Y+8488600D01*
X-9477250Y+8458120D01*
X-9509000Y+8427640D01*
X-9540750Y+8427640D01*
X-9572500Y+8458120D01*
X-9572500Y+8488600D01*
X-9445500Y+8519080D02*
X-9445500Y+8442880D01*
X-9429625Y+8427640D01*
X-9366125Y+8427640D01*
X-9350250Y+8442880D01*
X-9350250Y+8519080D01*
X-9318500Y+8427640D02*
X-9318500Y+8519080D01*
X-9239125Y+8519080D01*
X-9223250Y+8503840D01*
X-9223250Y+8488600D01*
X-9239125Y+8473360D01*
X-9318500Y+8473360D01*
X-9191500Y+8519080D02*
X-9191500Y+8427640D01*
X-9096250Y+8427640D01*
X-8969250Y+8427640D02*
X-9064500Y+8427640D01*
X-9064500Y+8519080D01*
X-8969250Y+8519080D01*
X-9064500Y+8473360D02*
X-9001000Y+8473360D01*
X-8937500Y+8427640D02*
X-8937500Y+8519080D01*
X-8858125Y+8519080D01*
X-8842250Y+8503840D01*
X-8842250Y+8488600D01*
X-8858125Y+8473360D01*
X-8937500Y+8473360D01*
X-8858125Y+8473360D02*
X-8842250Y+8458120D01*
X-8842250Y+8427640D01*
X-9735000Y+7090000D02*
X-9608000Y+7090000D01*
X-9608000Y+7026500D02*
X-9100000Y+7026500D01*
X-9100000Y+7153500D01*
X-9608000Y+7153500D01*
X-9608000Y+7026500D01*
X-9100000Y+7090000D02*
X-8973000Y+7090000D01*
X-9481000Y+7194140D02*
X-9481000Y+7285580D01*
X-9401625Y+7285580D01*
X-9385750Y+7270340D01*
X-9385750Y+7255100D01*
X-9401625Y+7239860D01*
X-9481000Y+7239860D01*
X-9401625Y+7239860D02*
X-9385750Y+7224620D01*
X-9385750Y+7194140D01*
X-9322250Y+7255100D02*
X-9290500Y+7285580D01*
X-9290500Y+7194140D01*
X-9719000Y+6520000D02*
X-9592000Y+6520000D01*
X-9592000Y+6456500D02*
X-9084000Y+6456500D01*
X-9084000Y+6583500D01*
X-9592000Y+6583500D01*
X-9592000Y+6456500D01*
X-9084000Y+6520000D02*
X-8957000Y+6520000D01*
X-9465000Y+6624140D02*
X-9465000Y+6715580D01*
X-9385625Y+6715580D01*
X-9369750Y+6700340D01*
X-9369750Y+6685100D01*
X-9385625Y+6669860D01*
X-9465000Y+6669860D01*
X-9385625Y+6669860D02*
X-9369750Y+6654620D01*
X-9369750Y+6624140D01*
X-9322125Y+6700340D02*
X-9306250Y+6715580D01*
X-9258625Y+6715580D01*
X-9242750Y+6700340D01*
X-9242750Y+6685100D01*
X-9258625Y+6669860D01*
X-9242750Y+6654620D01*
X-9242750Y+6639380D01*
X-9258625Y+6624140D01*
X-9306250Y+6624140D01*
X-9322125Y+6639380D01*
X-9290375Y+6669860D02*
X-9258625Y+6669860D01*
X-7239500Y+8170000D02*
X-7240880Y+8204999D01*
X-7252079Y+8274999D01*
X-7275398Y+8344999D01*
X-7313115Y+8414999D01*
X-7370381Y+8484997D01*
X-7440381Y+8541793D01*
X-7510381Y+8579190D01*
X-7580381Y+8602254D01*
X-7650381Y+8613227D01*
X-7684000Y+8614500D01*
X-8128500Y+8170000D02*
X-8127120Y+8204999D01*
X-8115921Y+8274999D01*
X-8092602Y+8344999D01*
X-8054885Y+8414999D01*
X-7997619Y+8484997D01*
X-7927619Y+8541793D01*
X-7857619Y+8579190D01*
X-7787619Y+8602254D01*
X-7717619Y+8613227D01*
X-7684000Y+8614500D01*
X-8128500Y+8170000D02*
X-8127120Y+8135001D01*
X-8115921Y+8065001D01*
X-8092602Y+7995001D01*
X-8054885Y+7925001D01*
X-7997619Y+7855003D01*
X-7927619Y+7798207D01*
X-7857619Y+7760810D01*
X-7787619Y+7737746D01*
X-7717619Y+7726773D01*
X-7684000Y+7725500D01*
X-7239500Y+8170000D02*
X-7240880Y+8135001D01*
X-7252079Y+8065001D01*
X-7275398Y+7995001D01*
X-7313115Y+7925001D01*
X-7370381Y+7855003D01*
X-7440381Y+7798207D01*
X-7510381Y+7760810D01*
X-7580381Y+7737746D01*
X-7650381Y+7726773D01*
X-7684000Y+7725500D01*
X-8065000Y+7916000D02*
X-8128500Y+7852500D01*
X-8001500Y+7725500D01*
X-7938000Y+7789000D01*
X-7183620Y+7804875D02*
X-7198860Y+7820750D01*
X-7198860Y+7868375D01*
X-7183620Y+7884250D01*
X-7168380Y+7884250D01*
X-7153140Y+7868375D01*
X-7153140Y+7820750D01*
X-7137900Y+7804875D01*
X-7107420Y+7804875D01*
X-7107420Y+7884250D01*
X-7107420Y+7916000D02*
X-7198860Y+7916000D01*
X-7107420Y+8011250D01*
X-7198860Y+8011250D01*
X-7183620Y+8058875D02*
X-7198860Y+8074750D01*
X-7198860Y+8122375D01*
X-7183620Y+8138250D01*
X-7168380Y+8138250D01*
X-7153140Y+8122375D01*
X-7153140Y+8074750D01*
X-7137900Y+8058875D01*
X-7107420Y+8058875D01*
X-7107420Y+8138250D01*
X-7183620Y+8185875D02*
X-7198860Y+8201750D01*
X-7198860Y+8249375D01*
X-7183620Y+8265250D01*
X-7168380Y+8265250D01*
X-7153140Y+8249375D01*
X-7153140Y+8201750D01*
X-7137900Y+8185875D01*
X-7107420Y+8185875D01*
X-7107420Y+8265250D01*
X-7183620Y+8312875D02*
X-7198860Y+8328750D01*
X-7198860Y+8376375D01*
X-7183620Y+8392250D01*
X-7168380Y+8392250D01*
X-7153140Y+8376375D01*
X-7153140Y+8328750D01*
X-7137900Y+8312875D01*
X-7107420Y+8312875D01*
X-7107420Y+8392250D01*
X-7183620Y+8439875D02*
X-7198860Y+8455750D01*
X-7198860Y+8503375D01*
X-7183620Y+8519250D01*
X-7168380Y+8519250D01*
X-7153140Y+8503375D01*
X-7153140Y+8455750D01*
X-7137900Y+8439875D01*
X-7107420Y+8439875D01*
X-7107420Y+8519250D01*
X-9573080Y+7397920D02*
X-9054920Y+7397920D01*
X-9054920Y+7664620D01*
X-9573080Y+7664620D01*
X-9573080Y+7397920D01*
X-9491800Y+7662080D02*
X-9491800Y+7400460D01*
X-9644200Y+7530000D02*
X-9573080Y+7530000D01*
X-9054920Y+7530000D02*
X-8983800Y+7530000D01*
X-9441000Y+7705260D02*
X-9441000Y+7796700D01*
X-9377500Y+7796700D01*
X-9345750Y+7766220D01*
X-9345750Y+7735740D01*
X-9377500Y+7705260D01*
X-9441000Y+7705260D01*
X-9282250Y+7766220D02*
X-9250500Y+7796700D01*
X-9250500Y+7705260D01*
X-8987000Y+6020000D02*
X-9114000Y+6020000D01*
X-9622000Y+5956500D02*
X-9114000Y+5956500D01*
X-9114000Y+6083500D01*
X-9622000Y+6083500D01*
X-9622000Y+5956500D01*
X-9622000Y+6020000D02*
X-9749000Y+6020000D01*
X-9495000Y+5824420D02*
X-9495000Y+5915860D01*
X-9415625Y+5915860D01*
X-9399750Y+5900620D01*
X-9399750Y+5885380D01*
X-9415625Y+5870140D01*
X-9495000Y+5870140D01*
X-9415625Y+5870140D02*
X-9399750Y+5854900D01*
X-9399750Y+5824420D01*
X-9352125Y+5900620D02*
X-9336250Y+5915860D01*
X-9288625Y+5915860D01*
X-9272750Y+5900620D01*
X-9272750Y+5885380D01*
X-9288625Y+5870140D01*
X-9336250Y+5870140D01*
X-9352125Y+5854900D01*
X-9352125Y+5824420D01*
X-9272750Y+5824420D01*
X-9607080Y+5385380D02*
X-9088920Y+5385380D01*
X-9088920Y+5652080D01*
X-9607080Y+5652080D01*
X-9607080Y+5385380D01*
X-9170200Y+5387920D02*
X-9170200Y+5649540D01*
X-9017800Y+5520000D02*
X-9088920Y+5520000D01*
X-9607080Y+5520000D02*
X-9678200Y+5520000D01*
X-9475000Y+5253300D02*
X-9475000Y+5344740D01*
X-9411500Y+5344740D01*
X-9379750Y+5314260D01*
X-9379750Y+5283780D01*
X-9411500Y+5253300D01*
X-9475000Y+5253300D01*
X-9332125Y+5329500D02*
X-9316250Y+5344740D01*
X-9268625Y+5344740D01*
X-9252750Y+5329500D01*
X-9252750Y+5314260D01*
X-9268625Y+5299020D01*
X-9316250Y+5299020D01*
X-9332125Y+5283780D01*
X-9332125Y+5253300D01*
X-9252750Y+5253300D01*
X-8400000Y+5700000D02*
X-6150000Y+5700000D01*
X-6150000Y+7350000D01*
X-8400000Y+7350000D01*
X-8400000Y+5700000D01*
X-7846500Y+5567920D02*
X-7846500Y+5659360D01*
X-7767125Y+5659360D01*
X-7751250Y+5644120D01*
X-7751250Y+5628880D01*
X-7767125Y+5613640D01*
X-7846500Y+5613640D01*
X-7767125Y+5613640D02*
X-7751250Y+5598400D01*
X-7751250Y+5567920D01*
X-7624250Y+5567920D02*
X-7719500Y+5567920D01*
X-7719500Y+5659360D01*
X-7624250Y+5659360D01*
X-7719500Y+5613640D02*
X-7656000Y+5613640D01*
X-7592500Y+5659360D02*
X-7592500Y+5567920D01*
X-7497250Y+5567920D01*
X-7465500Y+5567920D02*
X-7465500Y+5628880D01*
X-7433750Y+5659360D01*
X-7402000Y+5659360D01*
X-7370250Y+5628880D01*
X-7370250Y+5567920D01*
X-7465500Y+5598400D02*
X-7370250Y+5598400D01*
X-7243250Y+5659360D02*
X-7338500Y+5567920D01*
X-7338500Y+5659360D02*
X-7290875Y+5613640D01*
X-7211500Y+5552680D02*
X-7116250Y+5552680D01*
X-7068625Y+5644120D02*
X-7052750Y+5659360D01*
X-7005125Y+5659360D01*
X-6989250Y+5644120D01*
X-6989250Y+5628880D01*
X-7005125Y+5613640D01*
X-7052750Y+5613640D01*
X-7068625Y+5598400D01*
X-7068625Y+5567920D01*
X-6989250Y+5567920D01*
X-6862250Y+5598400D02*
X-6957500Y+5598400D01*
X-6894000Y+5659360D01*
X-6894000Y+5567920D01*
X-6830500Y+5659360D02*
X-6830500Y+5613640D01*
X-6782875Y+5567920D01*
X-6735250Y+5613640D01*
X-6735250Y+5659360D01*
X-6896000Y+3022000D02*
X-6896000Y+4038000D01*
X-7912000Y+3022000D02*
X-7912000Y+4038000D01*
X-6896000Y+4038000D02*
X-7912000Y+4038000D01*
X-6896000Y+3022000D02*
X-7912000Y+3022000D01*
X-7658000Y+2981360D02*
X-7658000Y+2889920D01*
X-7562750Y+2889920D01*
X-7531000Y+2950880D02*
X-7499250Y+2981360D01*
X-7467500Y+2981360D01*
X-7435750Y+2950880D01*
X-7435750Y+2920400D01*
X-7467500Y+2889920D01*
X-7499250Y+2889920D01*
X-7531000Y+2920400D01*
X-7531000Y+2950880D01*
X-7404000Y+2889920D02*
X-7404000Y+2950880D01*
X-7372250Y+2981360D01*
X-7340500Y+2981360D01*
X-7308750Y+2950880D01*
X-7308750Y+2889920D01*
X-7404000Y+2920400D02*
X-7308750Y+2920400D01*
X-7277000Y+2889920D02*
X-7277000Y+2981360D01*
X-7213500Y+2981360D01*
X-7181750Y+2950880D01*
X-7181750Y+2920400D01*
X-7213500Y+2889920D01*
X-7277000Y+2889920D01*
X-13857000Y+6169000D02*
X-13603000Y+6169000D01*
X-13603000Y+6931000D01*
X-13857000Y+6931000D01*
X-13857000Y+6169000D01*
X-13603000Y+6931000D02*
X-13476000Y+6931000D01*
X-13476000Y+6169000D01*
X-13603000Y+6169000D01*
X-13603000Y+6931000D02*
X-13476000Y+6804000D01*
X-13603000Y+6804000D02*
X-13476000Y+6677000D01*
X-13603000Y+6677000D02*
X-13476000Y+6550000D01*
X-13603000Y+6550000D02*
X-13476000Y+6423000D01*
X-13603000Y+6423000D02*
X-13476000Y+6296000D01*
X-13603000Y+6296000D02*
X-13476000Y+6169000D01*
X-13420120Y+6121375D02*
X-13435360Y+6137250D01*
X-13435360Y+6184875D01*
X-13420120Y+6200750D01*
X-13404880Y+6200750D01*
X-13389640Y+6184875D01*
X-13389640Y+6137250D01*
X-13374400Y+6121375D01*
X-13343920Y+6121375D01*
X-13343920Y+6200750D01*
X-13374400Y+6327750D02*
X-13374400Y+6232500D01*
X-13435360Y+6296000D01*
X-13343920Y+6296000D01*
X-13435360Y+6359500D02*
X-13389640Y+6359500D01*
X-13343920Y+6407125D01*
X-13389640Y+6454750D01*
X-13435360Y+6454750D01*
X-13389640Y+6502375D02*
X-13389640Y+6581750D01*
X-13404880Y+6645250D02*
X-13435360Y+6677000D01*
X-13343920Y+6677000D01*
X-13420120Y+6756375D02*
X-13435360Y+6772250D01*
X-13435360Y+6819875D01*
X-13420120Y+6835750D01*
X-13404880Y+6835750D01*
X-13389640Y+6819875D01*
X-13389640Y+6772250D01*
X-13374400Y+6756375D01*
X-13343920Y+6756375D01*
X-13343920Y+6835750D01*
X-13435360Y+6867500D02*
X-13389640Y+6867500D01*
X-13343920Y+6915125D01*
X-13389640Y+6962750D01*
X-13435360Y+6962750D01*
X-14220000Y+6335000D02*
X-14245876Y+6342516D01*
X-14269848Y+6364170D01*
X-14291438Y+6398624D01*
X-14310170Y+6444538D01*
X-14325569Y+6500571D01*
X-14337158Y+6565386D01*
X-14344460Y+6637642D01*
X-14347000Y+6716000D01*
X-14220000Y+7097000D02*
X-14245876Y+7089380D01*
X-14269848Y+7067472D01*
X-14291438Y+7032706D01*
X-14310170Y+6986510D01*
X-14325569Y+6930312D01*
X-14337158Y+6865542D01*
X-14344460Y+6793629D01*
X-14347000Y+6716000D01*
X-14220000Y+7097000D02*
X-14194124Y+7089380D01*
X-14170152Y+7067472D01*
X-14148562Y+7032706D01*
X-14129830Y+6986510D01*
X-14114431Y+6930312D01*
X-14102842Y+6865542D01*
X-14095540Y+6793629D01*
X-14093000Y+6716000D01*
X-14220000Y+6335000D02*
X-14194124Y+6342516D01*
X-14170152Y+6364170D01*
X-14148562Y+6398624D01*
X-14129830Y+6444538D01*
X-14114431Y+6500571D01*
X-14102842Y+6565386D01*
X-14095540Y+6637642D01*
X-14093000Y+6716000D01*
X-14402880Y+6684250D02*
X-14387640Y+6668375D01*
X-14387640Y+6620750D01*
X-14418120Y+6589000D01*
X-14448600Y+6589000D01*
X-14479080Y+6620750D01*
X-14479080Y+6668375D01*
X-14463840Y+6684250D01*
X-14463840Y+6731875D02*
X-14479080Y+6747750D01*
X-14479080Y+6795375D01*
X-14463840Y+6811250D01*
X-14448600Y+6811250D01*
X-14433360Y+6795375D01*
X-14418120Y+6811250D01*
X-14402880Y+6811250D01*
X-14387640Y+6795375D01*
X-14387640Y+6747750D01*
X-14402880Y+6731875D01*
X-14433360Y+6763625D02*
X-14433360Y+6795375D01*
X-13213000Y+5340000D02*
X-13220516Y+5314124D01*
X-13242170Y+5290152D01*
X-13276624Y+5268562D01*
X-13322538Y+5249830D01*
X-13378572Y+5234431D01*
X-13443386Y+5222842D01*
X-13515642Y+5215540D01*
X-13594000Y+5213000D01*
X-13975000Y+5340000D02*
X-13967380Y+5314124D01*
X-13945472Y+5290152D01*
X-13910706Y+5268562D01*
X-13864510Y+5249830D01*
X-13808312Y+5234431D01*
X-13743542Y+5222842D01*
X-13671629Y+5215540D01*
X-13594000Y+5213000D01*
X-13975000Y+5340000D02*
X-13967380Y+5365876D01*
X-13945472Y+5389848D01*
X-13910706Y+5411438D01*
X-13864510Y+5430170D01*
X-13808312Y+5445569D01*
X-13743542Y+5457158D01*
X-13671629Y+5464460D01*
X-13594000Y+5467000D01*
X-13213000Y+5340000D02*
X-13220516Y+5365876D01*
X-13242170Y+5389848D01*
X-13276624Y+5411438D01*
X-13322538Y+5430170D01*
X-13378572Y+5445569D01*
X-13443386Y+5457158D01*
X-13515642Y+5464460D01*
X-13594000Y+5467000D01*
X-13625750Y+5096160D02*
X-13641625Y+5080920D01*
X-13689250Y+5080920D01*
X-13721000Y+5111400D01*
X-13721000Y+5141880D01*
X-13689250Y+5172360D01*
X-13641625Y+5172360D01*
X-13625750Y+5157120D01*
X-13498750Y+5111400D02*
X-13594000Y+5111400D01*
X-13530500Y+5172360D01*
X-13530500Y+5080920D01*
X-8386000Y+3062000D02*
X-8386000Y+4078000D01*
X-9402000Y+3062000D02*
X-9402000Y+4078000D01*
X-8386000Y+4078000D02*
X-9402000Y+4078000D01*
X-8386000Y+3062000D02*
X-9402000Y+3062000D01*
X-9402000Y+2929920D02*
X-9402000Y+3021360D01*
X-9306750Y+3021360D01*
X-9402000Y+2975640D02*
X-9338500Y+2975640D01*
X-9179750Y+2929920D02*
X-9275000Y+2929920D01*
X-9275000Y+3021360D01*
X-9179750Y+3021360D01*
X-9275000Y+2975640D02*
X-9211500Y+2975640D01*
X-9052750Y+2929920D02*
X-9148000Y+2929920D01*
X-9148000Y+3021360D01*
X-9052750Y+3021360D01*
X-9148000Y+2975640D02*
X-9084500Y+2975640D01*
X-9021000Y+2929920D02*
X-9021000Y+3021360D01*
X-8957500Y+3021360D01*
X-8925750Y+2990880D01*
X-8925750Y+2960400D01*
X-8957500Y+2929920D01*
X-9021000Y+2929920D01*
X-8894000Y+2929920D02*
X-8894000Y+3021360D01*
X-8814625Y+3021360D01*
X-8798750Y+3006120D01*
X-8798750Y+2990880D01*
X-8814625Y+2975640D01*
X-8798750Y+2960400D01*
X-8798750Y+2945160D01*
X-8814625Y+2929920D01*
X-8894000Y+2929920D01*
X-8894000Y+2975640D02*
X-8814625Y+2975640D01*
X-8767000Y+2929920D02*
X-8767000Y+2990880D01*
X-8735250Y+3021360D01*
X-8703500Y+3021360D01*
X-8671750Y+2990880D01*
X-8671750Y+2929920D01*
X-8767000Y+2960400D02*
X-8671750Y+2960400D01*
X-8544750Y+2945160D02*
X-8560625Y+2929920D01*
X-8608250Y+2929920D01*
X-8640000Y+2960400D01*
X-8640000Y+2990880D01*
X-8608250Y+3021360D01*
X-8560625Y+3021360D01*
X-8544750Y+3006120D01*
X-8513000Y+3021360D02*
X-8513000Y+2929920D01*
X-8417750Y+3021360D02*
X-8465375Y+2975640D01*
X-8417750Y+2929920D01*
X-8513000Y+2975640D02*
X-8465375Y+2975640D01*
X-9517000Y+4359000D02*
X-9263000Y+4359000D01*
X-9263000Y+5121000D01*
X-9517000Y+5121000D01*
X-9517000Y+4359000D01*
X-9644000Y+4359000D01*
X-9644000Y+5121000D01*
X-9517000Y+5121000D01*
X-9517000Y+4359000D02*
X-9644000Y+4486000D01*
X-9517000Y+4486000D02*
X-9644000Y+4613000D01*
X-9517000Y+4613000D02*
X-9644000Y+4740000D01*
X-9517000Y+4740000D02*
X-9644000Y+4867000D01*
X-9517000Y+4867000D02*
X-9644000Y+4994000D01*
X-9517000Y+4994000D02*
X-9644000Y+5121000D01*
X-9760840Y+4247875D02*
X-9776080Y+4263750D01*
X-9776080Y+4311375D01*
X-9760840Y+4327250D01*
X-9745600Y+4327250D01*
X-9730360Y+4311375D01*
X-9730360Y+4263750D01*
X-9715120Y+4247875D01*
X-9684640Y+4247875D01*
X-9684640Y+4327250D01*
X-9715120Y+4454250D02*
X-9715120Y+4359000D01*
X-9776080Y+4422500D01*
X-9684640Y+4422500D01*
X-9776080Y+4486000D02*
X-9730360Y+4486000D01*
X-9684640Y+4533625D01*
X-9730360Y+4581250D01*
X-9776080Y+4581250D01*
X-9730360Y+4628875D02*
X-9730360Y+4708250D01*
X-9760840Y+4755875D02*
X-9776080Y+4771750D01*
X-9776080Y+4819375D01*
X-9760840Y+4835250D01*
X-9745600Y+4835250D01*
X-9730360Y+4819375D01*
X-9715120Y+4835250D01*
X-9699880Y+4835250D01*
X-9684640Y+4819375D01*
X-9684640Y+4771750D01*
X-9699880Y+4755875D01*
X-9730360Y+4787625D02*
X-9730360Y+4819375D01*
X-9699880Y+4914625D02*
X-9699880Y+4930500D01*
X-9684640Y+4930500D01*
X-9684640Y+4914625D01*
X-9699880Y+4914625D01*
X-9760840Y+5009875D02*
X-9776080Y+5025750D01*
X-9776080Y+5073375D01*
X-9760840Y+5089250D01*
X-9745600Y+5089250D01*
X-9730360Y+5073375D01*
X-9715120Y+5089250D01*
X-9699880Y+5089250D01*
X-9684640Y+5073375D01*
X-9684640Y+5025750D01*
X-9699880Y+5009875D01*
X-9730360Y+5041625D02*
X-9730360Y+5073375D01*
X-9776080Y+5121000D02*
X-9730360Y+5121000D01*
X-9684640Y+5168625D01*
X-9730360Y+5216250D01*
X-9776080Y+5216250D01*
X-8670000Y+4353000D02*
X-8695876Y+4360516D01*
X-8719848Y+4382170D01*
X-8741438Y+4416624D01*
X-8760170Y+4462538D01*
X-8775569Y+4518571D01*
X-8787158Y+4583386D01*
X-8794460Y+4655642D01*
X-8797000Y+4734000D01*
X-8670000Y+5115000D02*
X-8695876Y+5107380D01*
X-8719848Y+5085472D01*
X-8741438Y+5050706D01*
X-8760170Y+5004510D01*
X-8775569Y+4948312D01*
X-8787158Y+4883542D01*
X-8794460Y+4811629D01*
X-8797000Y+4734000D01*
X-8670000Y+5115000D02*
X-8644124Y+5107380D01*
X-8620152Y+5085472D01*
X-8598562Y+5050706D01*
X-8579830Y+5004510D01*
X-8564431Y+4948312D01*
X-8552842Y+4883542D01*
X-8545540Y+4811629D01*
X-8543000Y+4734000D01*
X-8670000Y+4353000D02*
X-8644124Y+4360516D01*
X-8620152Y+4382170D01*
X-8598562Y+4416624D01*
X-8579830Y+4462538D01*
X-8564431Y+4518571D01*
X-8552842Y+4583386D01*
X-8545540Y+4655642D01*
X-8543000Y+4734000D01*
X-8852880Y+4702250D02*
X-8837640Y+4686375D01*
X-8837640Y+4638750D01*
X-8868120Y+4607000D01*
X-8898600Y+4607000D01*
X-8929080Y+4638750D01*
X-8929080Y+4686375D01*
X-8913840Y+4702250D01*
X-8898600Y+4765750D02*
X-8929080Y+4797500D01*
X-8837640Y+4797500D01*
X-8060000Y+4355000D02*
X-8085876Y+4362516D01*
X-8109848Y+4384170D01*
X-8131438Y+4418624D01*
X-8150170Y+4464538D01*
X-8165569Y+4520571D01*
X-8177158Y+4585386D01*
X-8184460Y+4657642D01*
X-8187000Y+4736000D01*
X-8060000Y+5117000D02*
X-8085876Y+5109380D01*
X-8109848Y+5087472D01*
X-8131438Y+5052706D01*
X-8150170Y+5006510D01*
X-8165569Y+4950312D01*
X-8177158Y+4885542D01*
X-8184460Y+4813629D01*
X-8187000Y+4736000D01*
X-8060000Y+5117000D02*
X-8034124Y+5109380D01*
X-8010152Y+5087472D01*
X-7988562Y+5052706D01*
X-7969830Y+5006510D01*
X-7954431Y+4950312D01*
X-7942842Y+4885542D01*
X-7935540Y+4813629D01*
X-7933000Y+4736000D01*
X-8060000Y+4355000D02*
X-8034124Y+4362516D01*
X-8010152Y+4384170D01*
X-7988562Y+4418624D01*
X-7969830Y+4464538D01*
X-7954431Y+4520571D01*
X-7942842Y+4585386D01*
X-7935540Y+4657642D01*
X-7933000Y+4736000D01*
X-8242880Y+4704250D02*
X-8227640Y+4688375D01*
X-8227640Y+4640750D01*
X-8258120Y+4609000D01*
X-8288600Y+4609000D01*
X-8319080Y+4640750D01*
X-8319080Y+4688375D01*
X-8303840Y+4704250D01*
X-8303840Y+4751875D02*
X-8319080Y+4767750D01*
X-8319080Y+4815375D01*
X-8303840Y+4831250D01*
X-8288600Y+4831250D01*
X-8273360Y+4815375D01*
X-8273360Y+4767750D01*
X-8258120Y+4751875D01*
X-8227640Y+4751875D01*
X-8227640Y+4831250D01*
X-6727000Y+4930000D02*
X-6854000Y+4930000D01*
X-7362000Y+4866500D02*
X-6854000Y+4866500D01*
X-6854000Y+4993500D01*
X-7362000Y+4993500D01*
X-7362000Y+4866500D01*
X-7362000Y+4930000D02*
X-7489000Y+4930000D01*
X-7235000Y+4734420D02*
X-7235000Y+4825860D01*
X-7155625Y+4825860D01*
X-7139750Y+4810620D01*
X-7139750Y+4795380D01*
X-7155625Y+4780140D01*
X-7235000Y+4780140D01*
X-7155625Y+4780140D02*
X-7139750Y+4764900D01*
X-7139750Y+4734420D01*
X-7012750Y+4825860D02*
X-7092125Y+4825860D01*
X-7092125Y+4795380D01*
X-7028625Y+4795380D01*
X-7012750Y+4780140D01*
X-7012750Y+4749660D01*
X-7028625Y+4734420D01*
X-7076250Y+4734420D01*
X-7092125Y+4749660D01*
X-6747000Y+4620000D02*
X-6874000Y+4620000D01*
X-7382000Y+4556500D02*
X-6874000Y+4556500D01*
X-6874000Y+4683500D01*
X-7382000Y+4683500D01*
X-7382000Y+4556500D01*
X-7382000Y+4620000D02*
X-7509000Y+4620000D01*
X-7255000Y+4424420D02*
X-7255000Y+4515860D01*
X-7175625Y+4515860D01*
X-7159750Y+4500620D01*
X-7159750Y+4485380D01*
X-7175625Y+4470140D01*
X-7255000Y+4470140D01*
X-7175625Y+4470140D02*
X-7159750Y+4454900D01*
X-7159750Y+4424420D01*
X-7032750Y+4500620D02*
X-7048625Y+4515860D01*
X-7096250Y+4515860D01*
X-7112125Y+4500620D01*
X-7112125Y+4439660D01*
X-7096250Y+4424420D01*
X-7048625Y+4424420D01*
X-7032750Y+4439660D01*
X-7032750Y+4454900D01*
X-7048625Y+4470140D01*
X-7112125Y+4470140D01*
X-10759000Y+3510000D02*
X-10632000Y+3510000D01*
X-10632000Y+3446500D02*
X-10124000Y+3446500D01*
X-10124000Y+3573500D01*
X-10632000Y+3573500D01*
X-10632000Y+3446500D01*
X-10124000Y+3510000D02*
X-9997000Y+3510000D01*
X-10505000Y+3614140D02*
X-10505000Y+3705580D01*
X-10425625Y+3705580D01*
X-10409750Y+3690340D01*
X-10409750Y+3675100D01*
X-10425625Y+3659860D01*
X-10505000Y+3659860D01*
X-10425625Y+3659860D02*
X-10409750Y+3644620D01*
X-10409750Y+3614140D01*
X-10362125Y+3705580D02*
X-10282750Y+3705580D01*
X-10282750Y+3690340D01*
X-10362125Y+3614140D01*
X-10733000Y+2800000D02*
X-10606000Y+2800000D01*
X-10606000Y+2736500D02*
X-10098000Y+2736500D01*
X-10098000Y+2863500D01*
X-10606000Y+2863500D01*
X-10606000Y+2736500D01*
X-10098000Y+2800000D02*
X-9971000Y+2800000D01*
X-10479000Y+2904140D02*
X-10479000Y+2995580D01*
X-10399625Y+2995580D01*
X-10383750Y+2980340D01*
X-10383750Y+2965100D01*
X-10399625Y+2949860D01*
X-10479000Y+2949860D01*
X-10399625Y+2949860D02*
X-10383750Y+2934620D01*
X-10383750Y+2904140D01*
X-10320250Y+2949860D02*
X-10336125Y+2965100D01*
X-10336125Y+2980340D01*
X-10320250Y+2995580D01*
X-10272625Y+2995580D01*
X-10256750Y+2980340D01*
X-10256750Y+2965100D01*
X-10272625Y+2949860D01*
X-10320250Y+2949860D01*
X-10336125Y+2934620D01*
X-10336125Y+2919380D01*
X-10320250Y+2904140D01*
X-10272625Y+2904140D01*
X-10256750Y+2919380D01*
X-10256750Y+2934620D01*
X-10272625Y+2949860D01*
D17*
X-14930000Y+2130000D02*
X-5170000Y+2130000D01*
X-5170000Y+9560000D01*
X-14930000Y+9560000D01*
X-14930000Y+2130000D01*
D18*
X-9250000Y+4205700D02*
X-9097600Y+4205700D01*
X-9173800Y+4251420D02*
X-9173800Y+4159980D01*
X-8654600Y+4195700D02*
X-8527600Y+4195700D01*
X-7160000Y+4163000D02*
X-7007600Y+4163000D01*
X-7083800Y+4213800D02*
X-7083800Y+4112200D01*
X-7764600Y+4183000D02*
X-7637600Y+4183000D01*
X-13190000Y+8303000D02*
X-13037600Y+8303000D01*
X-13113800Y+8353800D02*
X-13113800Y+8252200D01*
X-13196200Y+7673000D02*
X-13069200Y+7673000D01*
X-11338400Y+9227600D02*
X-11287600Y+9227600D01*
X-11287600Y+9176800D01*
X-11389200Y+9176800D01*
X-11440000Y+9227600D01*
X-11440000Y+9278400D01*
X-11389200Y+9329200D01*
X-11313000Y+9329200D01*
X-11287600Y+9303800D01*
X-11236800Y+9329200D02*
X-11236800Y+9176800D01*
X-11084400Y+9176800D01*
X-11033600Y+9278400D02*
X-10982800Y+9329200D01*
X-10932000Y+9329200D01*
X-10881200Y+9278400D01*
X-10881200Y+9227600D01*
X-10932000Y+9176800D01*
X-10982800Y+9176800D01*
X-11033600Y+9227600D01*
X-11033600Y+9278400D01*
X-10830400Y+9176800D02*
X-10830400Y+9329200D01*
X-10703400Y+9329200D01*
X-10678000Y+9303800D01*
X-10678000Y+9278400D01*
X-10703400Y+9253000D01*
X-10678000Y+9227600D01*
X-10678000Y+9202200D01*
X-10703400Y+9176800D01*
X-10830400Y+9176800D01*
X-10830400Y+9253000D02*
X-10703400Y+9253000D01*
X-10627200Y+9176800D02*
X-10627200Y+9278400D01*
X-10576400Y+9329200D01*
X-10525600Y+9329200D01*
X-10474800Y+9278400D01*
X-10474800Y+9176800D01*
X-10627200Y+9227600D02*
X-10474800Y+9227600D01*
X-10424000Y+9329200D02*
X-10424000Y+9176800D01*
X-10271600Y+9176800D01*
X-9865200Y+9202200D02*
X-9890600Y+9176800D01*
X-9966800Y+9176800D01*
X-10017600Y+9227600D01*
X-10017600Y+9278400D01*
X-9966800Y+9329200D01*
X-9890600Y+9329200D01*
X-9865200Y+9303800D01*
X-9814400Y+9278400D02*
X-9763600Y+9329200D01*
X-9712800Y+9329200D01*
X-9662000Y+9278400D01*
X-9662000Y+9227600D01*
X-9712800Y+9176800D01*
X-9763600Y+9176800D01*
X-9814400Y+9227600D01*
X-9814400Y+9278400D01*
X-9611200Y+9176800D02*
X-9611200Y+9329200D01*
X-9458800Y+9176800D01*
X-9458800Y+9329200D01*
X-9408000Y+9329200D02*
X-9255600Y+9329200D01*
X-9331800Y+9329200D02*
X-9331800Y+9176800D01*
X-9204800Y+9176800D02*
X-9204800Y+9329200D01*
X-9077800Y+9329200D01*
X-9052400Y+9303800D01*
X-9052400Y+9278400D01*
X-9077800Y+9253000D01*
X-9204800Y+9253000D01*
X-9077800Y+9253000D02*
X-9052400Y+9227600D01*
X-9052400Y+9176800D01*
X-9001600Y+9278400D02*
X-8950800Y+9329200D01*
X-8900000Y+9329200D01*
X-8849200Y+9278400D01*
X-8849200Y+9227600D01*
X-8900000Y+9176800D01*
X-8950800Y+9176800D01*
X-9001600Y+9227600D01*
X-9001600Y+9278400D01*
X-8798400Y+9329200D02*
X-8798400Y+9176800D01*
X-8646000Y+9176800D01*
X-13500000Y+3556800D02*
X-13500000Y+3709200D01*
X-13373000Y+3709200D01*
X-13347600Y+3683800D01*
X-13347600Y+3658400D01*
X-13373000Y+3633000D01*
X-13500000Y+3633000D01*
X-13296800Y+3709200D02*
X-13296800Y+3556800D01*
X-13144400Y+3556800D01*
X-12941200Y+3582200D02*
X-12966600Y+3556800D01*
X-13042800Y+3556800D01*
X-13093600Y+3607600D01*
X-13093600Y+3658400D01*
X-13042800Y+3709200D01*
X-12966600Y+3709200D01*
X-12941200Y+3683800D01*
X-14760000Y+3084240D02*
X-14760000Y+3358560D01*
X-14626650Y+3221400D01*
X-14493300Y+3358560D01*
X-14493300Y+3084240D01*
X-14404400Y+3221400D02*
X-14359950Y+3267120D01*
X-14182150Y+3267120D01*
X-14137700Y+3221400D01*
X-14137700Y+3129960D01*
X-14182150Y+3084240D01*
X-14359950Y+3084240D01*
X-14404400Y+3129960D01*
X-14404400Y+3221400D01*
X-14048800Y+3084240D02*
X-14048800Y+3267120D01*
X-14048800Y+3221400D02*
X-14004350Y+3267120D01*
X-13826550Y+3267120D01*
X-13782100Y+3221400D01*
X-13782100Y+3084240D01*
X-13470950Y+3267120D02*
X-13648750Y+3267120D01*
X-13693200Y+3221400D01*
X-13648750Y+3175680D01*
X-13470950Y+3175680D01*
X-13426500Y+3129960D01*
X-13470950Y+3084240D01*
X-13693200Y+3084240D01*
X-13293150Y+3358560D02*
X-13293150Y+3129960D01*
X-13248700Y+3084240D01*
X-13115350Y+3084240D01*
X-13070900Y+3129960D01*
X-13337600Y+3267120D02*
X-13115350Y+3267120D01*
X-12982000Y+3175680D02*
X-12715300Y+3175680D01*
X-12715300Y+3221400D01*
X-12759750Y+3267120D01*
X-12937550Y+3267120D01*
X-12982000Y+3221400D01*
X-12982000Y+3129960D01*
X-12937550Y+3084240D01*
X-12759750Y+3084240D01*
X-12626400Y+3084240D02*
X-12626400Y+3267120D01*
X-12626400Y+3221400D02*
X-12581950Y+3267120D01*
X-12404150Y+3267120D01*
X-12359700Y+3221400D01*
X-12226350Y+3358560D02*
X-12048550Y+3358560D01*
X-12137450Y+3358560D02*
X-12137450Y+3084240D01*
X-12226350Y+3084240D02*
X-12048550Y+3084240D01*
X-11915200Y+3358560D02*
X-11648500Y+3358560D01*
X-11781850Y+3358560D02*
X-11781850Y+3084240D01*
X-11292900Y+3129960D02*
X-11337350Y+3084240D01*
X-11470700Y+3084240D01*
X-11559600Y+3175680D01*
X-11559600Y+3267120D01*
X-11470700Y+3358560D01*
X-11337350Y+3358560D01*
X-11292900Y+3312840D01*
X-6390000Y+4629000D02*
X-6390000Y+4502000D01*
X-6453500Y+3994000D02*
X-6326500Y+3994000D01*
X-6326500Y+4502000D01*
X-6453500Y+4502000D01*
X-6453500Y+3994000D01*
X-6390000Y+3994000D02*
X-6390000Y+3867000D01*
X-6194420Y+4121000D02*
X-6285860Y+4121000D01*
X-6285860Y+4200375D01*
X-6270620Y+4216250D01*
X-6255380Y+4216250D01*
X-6240140Y+4200375D01*
X-6240140Y+4121000D01*
X-6240140Y+4200375D02*
X-6224900Y+4216250D01*
X-6194420Y+4216250D01*
X-6255380Y+4343250D02*
X-6240140Y+4327375D01*
X-6240140Y+4279750D01*
X-6255380Y+4263875D01*
X-6270620Y+4263875D01*
X-6285860Y+4279750D01*
X-6285860Y+4327375D01*
X-6270620Y+4343250D01*
X-6209660Y+4343250D01*
X-6194420Y+4327375D01*
X-6194420Y+4279750D01*
X-6252080Y+4552920D02*
X-5985380Y+4552920D01*
X-5985380Y+5071080D01*
X-6252080Y+5071080D01*
X-6252080Y+4552920D01*
X-5987920Y+4989800D02*
X-6249540Y+4989800D01*
X-6120000Y+5142200D02*
X-6120000Y+5071080D01*
X-6120000Y+4552920D02*
X-6120000Y+4481800D01*
X-5853300Y+4685000D02*
X-5944740Y+4685000D01*
X-5944740Y+4748500D01*
X-5914260Y+4780250D01*
X-5883780Y+4780250D01*
X-5853300Y+4748500D01*
X-5853300Y+4685000D01*
X-5929500Y+4827875D02*
X-5944740Y+4843750D01*
X-5944740Y+4891375D01*
X-5929500Y+4907250D01*
X-5914260Y+4907250D01*
X-5899020Y+4891375D01*
X-5883780Y+4907250D01*
X-5868540Y+4907250D01*
X-5853300Y+4891375D01*
X-5853300Y+4843750D01*
X-5868540Y+4827875D01*
X-5899020Y+4859625D02*
X-5899020Y+4891375D01*
X-7513000Y+5250000D02*
X-7386000Y+5250000D01*
X-7386000Y+5186500D02*
X-6878000Y+5186500D01*
X-6878000Y+5313500D01*
X-7386000Y+5313500D01*
X-7386000Y+5186500D01*
X-6878000Y+5250000D02*
X-6751000Y+5250000D01*
X-7259000Y+5354140D02*
X-7259000Y+5445580D01*
X-7179625Y+5445580D01*
X-7163750Y+5430340D01*
X-7163750Y+5415100D01*
X-7179625Y+5399860D01*
X-7259000Y+5399860D01*
X-7179625Y+5399860D02*
X-7163750Y+5384620D01*
X-7163750Y+5354140D01*
X-7036750Y+5384620D02*
X-7132000Y+5384620D01*
X-7068500Y+5445580D01*
X-7068500Y+5354140D01*
X-5751090Y+5671060D02*
X-5857770Y+5671060D01*
X-5857770Y+5575810D01*
X-5857770Y+5448810D02*
X-5857770Y+5544060D01*
X-5751090Y+5544060D01*
X-5751090Y+5448810D01*
X-5804430Y+5544060D02*
X-5804430Y+5480560D01*
X-5857770Y+5417060D02*
X-5751090Y+5417060D01*
X-5751090Y+5353560D01*
X-5786650Y+5321810D01*
X-5822210Y+5321810D01*
X-5857770Y+5353560D01*
X-5857770Y+5417060D01*
X-5875550Y+5290060D02*
X-5875550Y+5194810D01*
X-5857770Y+5147185D02*
X-5768870Y+5147185D01*
X-5751090Y+5131310D01*
X-5751090Y+5083685D01*
X-5768870Y+5067810D01*
X-5804430Y+5163060D02*
X-5804430Y+5099560D01*
X-5822210Y+5036060D02*
X-5822210Y+4940810D01*
X-5804430Y+4940810D01*
X-5786650Y+4956685D01*
X-5786650Y+5020185D01*
X-5804430Y+5036060D01*
X-5839990Y+5036060D01*
X-5857770Y+5020185D01*
X-5857770Y+4956685D01*
X-5822210Y+4909060D02*
X-5822210Y+4813810D01*
X-5804430Y+4813810D01*
X-5786650Y+4829685D01*
X-5786650Y+4893185D01*
X-5804430Y+4909060D01*
X-5839990Y+4909060D01*
X-5857770Y+4893185D01*
X-5857770Y+4829685D01*
X-5804430Y+4686810D02*
X-5786650Y+4702685D01*
X-5786650Y+4766185D01*
X-5804430Y+4782060D01*
X-5839990Y+4782060D01*
X-5857770Y+4766185D01*
X-5857770Y+4702685D01*
X-5839990Y+4686810D01*
X-5857770Y+4686810D02*
X-5751090Y+4686810D01*
X-5804430Y+4655060D02*
X-5786650Y+4639185D01*
X-5786650Y+4575685D01*
X-5804430Y+4559810D01*
X-5839990Y+4559810D01*
X-5857770Y+4575685D01*
X-5857770Y+4639185D01*
X-5839990Y+4655060D01*
X-5857770Y+4655060D02*
X-5751090Y+4655060D01*
X-5786650Y+4512185D02*
X-5786650Y+4448685D01*
X-5804430Y+4432810D01*
X-5857770Y+4432810D01*
X-5857770Y+4512185D01*
X-5839990Y+4528060D01*
X-5822210Y+4512185D01*
X-5822210Y+4432810D01*
X-5804430Y+4305810D02*
X-5786650Y+4321685D01*
X-5786650Y+4385185D01*
X-5804430Y+4401060D01*
X-5839990Y+4401060D01*
X-5857770Y+4385185D01*
X-5857770Y+4321685D01*
X-5839990Y+4305810D01*
X-5751090Y+4274060D02*
X-5857770Y+4274060D01*
X-5839990Y+4274060D02*
X-5786650Y+4178810D01*
X-5822210Y+4242310D02*
X-5857770Y+4178810D01*
X-9674800Y+5820465D02*
X-9674800Y+5744265D01*
X-9522400Y+5744265D01*
X-9319200Y+5744265D02*
X-9471600Y+5744265D01*
X-9471600Y+5820465D01*
X-9319200Y+5820465D01*
X-9471600Y+5782365D02*
X-9370000Y+5782365D01*
X-9268400Y+5744265D02*
X-9268400Y+5820465D01*
X-9166800Y+5820465D01*
X-9116000Y+5795065D01*
X-9116000Y+5769665D01*
X-9166800Y+5744265D01*
X-9268400Y+5744265D01*
M02*
