G04 PROTEUS GERBER X2 FILE*
%TF.GenerationSoftware,Labcenter,Proteus,8.6-SP2-Build23525*%
%TF.CreationDate,2019-07-05T07:02:46+00:00*%
%TF.FileFunction,Copper,L2,Bot*%
%TF.FilePolarity,Positive*%
%TF.Part,Single*%
%FSLAX45Y45*%
%MOMM*%
G01*
%TA.AperFunction,Conductor*%
%ADD10C,1.270000*%
%TA.AperFunction,ComponentPad*%
%ADD11C,3.048000*%
%TA.AperFunction,ComponentPad*%
%ADD12C,1.778000*%
%TA.AperFunction,ComponentPad*%
%ADD13C,2.286000*%
%TA.AperFunction,ComponentPad*%
%ADD14C,2.540000*%
%TA.AperFunction,ComponentPad*%
%ADD15R,2.286000X2.286000*%
%TA.AperFunction,OtherPad,Unknown*%
%ADD16C,6.350000*%
%TA.AperFunction,Profile*%
%ADD17C,0.203200*%
%TD.AperFunction*%
D10*
X-10460000Y+7562000D02*
X-10740488Y+7562000D01*
X-10773350Y+7568442D01*
X-10799851Y+7586137D01*
X-10817546Y+7612638D01*
X-10823988Y+7645500D01*
X-10823988Y+8386012D01*
X-10817546Y+8418874D01*
X-10799851Y+8445375D01*
X-10773350Y+8463070D01*
X-10740488Y+8469512D01*
X-10050623Y+8469512D01*
X-10017781Y+8466316D01*
X-9987409Y+8457120D01*
X-9960096Y+8442513D01*
X-9936430Y+8423082D01*
X-9916999Y+8399416D01*
X-9902392Y+8372103D01*
X-9893196Y+8341731D01*
X-9890000Y+8308889D01*
X-9890000Y+8260000D01*
X-9128000Y+8260000D02*
X-9290000Y+8260000D01*
X-9322862Y+8253558D01*
X-9349363Y+8235863D01*
X-9367058Y+8209362D01*
X-9373500Y+8176500D01*
X-9373500Y+7726500D01*
X-9377523Y+7685156D01*
X-9389099Y+7646922D01*
X-9407488Y+7612539D01*
X-9431948Y+7582747D01*
X-9461740Y+7558287D01*
X-9496123Y+7539898D01*
X-9534357Y+7528322D01*
X-9575701Y+7524299D01*
X-9707700Y+7524299D01*
X-9822000Y+7530000D01*
X-9128000Y+8006000D02*
X-9128000Y+7610688D01*
X-9133950Y+7549549D01*
X-9151068Y+7493010D01*
X-9178261Y+7442165D01*
X-9214433Y+7398108D01*
X-9258489Y+7361936D01*
X-9309335Y+7334743D01*
X-9365874Y+7317625D01*
X-9427013Y+7311675D01*
X-9698325Y+7311675D01*
X-9731382Y+7308458D01*
X-9761953Y+7299202D01*
X-9789445Y+7284499D01*
X-9813266Y+7264941D01*
X-9832824Y+7241120D01*
X-9847527Y+7213628D01*
X-9856783Y+7183057D01*
X-9857187Y+7178900D01*
X-9862000Y+7090000D01*
X-9890000Y+8006000D02*
X-9934000Y+8006000D01*
X-9956152Y+8003844D01*
X-9976638Y+7997642D01*
X-9995060Y+7987789D01*
X-10011023Y+7974683D01*
X-10024129Y+7958720D01*
X-10033982Y+7940298D01*
X-10040184Y+7919812D01*
X-10042340Y+7897660D01*
X-10042340Y+6846441D01*
X-10035898Y+6813579D01*
X-10018203Y+6787078D01*
X-9991702Y+6769383D01*
X-9958840Y+6762941D01*
X-9613680Y+6762941D01*
X-8992941Y+6762941D01*
X-8961669Y+6759898D01*
X-8932750Y+6751142D01*
X-8906743Y+6737233D01*
X-8884209Y+6718731D01*
X-8865708Y+6696197D01*
X-8851799Y+6670191D01*
X-8843043Y+6641271D01*
X-8840000Y+6610000D01*
X-8810000Y+6580000D01*
X-8810000Y+6550000D01*
X-8830000Y+6520000D01*
X-9846000Y+6520000D02*
X-10433814Y+6520000D01*
X-10438549Y+6524735D01*
X-10460000Y+6546000D01*
X-7684000Y+8424000D02*
X-8145203Y+8424000D01*
X-8185990Y+8420031D01*
X-8223709Y+8408610D01*
X-8257629Y+8390469D01*
X-8287020Y+8366338D01*
X-8311151Y+8336947D01*
X-8329292Y+8303026D01*
X-8340713Y+8265308D01*
X-8344682Y+8224521D01*
X-8344682Y+7785318D01*
X-8348966Y+7741292D01*
X-8361293Y+7700578D01*
X-8380875Y+7663965D01*
X-8406922Y+7632240D01*
X-8438647Y+7606193D01*
X-8475260Y+7586611D01*
X-8515974Y+7574284D01*
X-8560000Y+7570000D01*
X-8691700Y+7570000D01*
X-8806000Y+7530000D01*
X-7430000Y+8170000D02*
X-7969476Y+8170000D01*
X-8014513Y+8165617D01*
X-8056162Y+8153007D01*
X-8093617Y+8132975D01*
X-8126071Y+8106329D01*
X-8152717Y+8073875D01*
X-8172749Y+8036420D01*
X-8185359Y+7994771D01*
X-8189742Y+7949734D01*
X-8189742Y+7740258D01*
X-8196910Y+7666597D01*
X-8217535Y+7598476D01*
X-8250298Y+7537217D01*
X-8293879Y+7484137D01*
X-8346959Y+7440556D01*
X-8408218Y+7407793D01*
X-8476339Y+7387168D01*
X-8550000Y+7380000D01*
X-8635304Y+7380000D01*
X-8668166Y+7373558D01*
X-8694667Y+7355863D01*
X-8712362Y+7329362D01*
X-8718804Y+7296500D01*
X-8718804Y+7224992D01*
X-8721132Y+7201070D01*
X-8727830Y+7178947D01*
X-8738470Y+7159053D01*
X-8752623Y+7141815D01*
X-8769861Y+7127662D01*
X-8789755Y+7117022D01*
X-8811878Y+7110324D01*
X-8835800Y+7107996D01*
X-8846000Y+7090000D01*
X-7684000Y+8424000D02*
X-7110467Y+8424000D01*
X-7043353Y+8417469D01*
X-6981287Y+8398677D01*
X-6925472Y+8368826D01*
X-6877109Y+8329118D01*
X-6837402Y+8280756D01*
X-6807551Y+8224941D01*
X-6788759Y+8162875D01*
X-6782228Y+8095761D01*
X-6782228Y+7784033D01*
X-6782228Y+7247000D01*
X-6750000Y+7120000D01*
X-7684000Y+7916000D02*
X-7684000Y+7036000D01*
X-7688895Y+6985701D01*
X-7702978Y+6939186D01*
X-7725350Y+6897355D01*
X-7755109Y+6861109D01*
X-7791355Y+6831350D01*
X-7833186Y+6808979D01*
X-7879701Y+6794895D01*
X-7930000Y+6790000D01*
X-8303499Y+6790000D01*
X-8350931Y+6785384D01*
X-8394796Y+6772103D01*
X-8434242Y+6751006D01*
X-8468422Y+6722943D01*
X-8496485Y+6688763D01*
X-8517582Y+6649316D01*
X-8530863Y+6605452D01*
X-8535479Y+6558020D01*
X-8535479Y+6082497D01*
X-8541921Y+6049635D01*
X-8559616Y+6023134D01*
X-8586117Y+6005439D01*
X-8618979Y+5998997D01*
X-8771100Y+5998997D01*
X-8860000Y+6020000D01*
X-6600000Y+4930000D02*
X-6848310Y+4930000D01*
X-6882743Y+4926649D01*
X-6914585Y+4917008D01*
X-6943221Y+4901693D01*
X-6968033Y+4881321D01*
X-6988405Y+4856509D01*
X-7003720Y+4827873D01*
X-7013361Y+4796031D01*
X-7016712Y+4761598D01*
X-7019131Y+4736735D01*
X-7026093Y+4713742D01*
X-7037151Y+4693065D01*
X-7051861Y+4675149D01*
X-7069777Y+4660439D01*
X-7090454Y+4649381D01*
X-7113447Y+4642419D01*
X-7138310Y+4640000D01*
X-7180000Y+4640000D01*
X-7547100Y+4640000D01*
X-7636000Y+4620000D01*
X-8150000Y+5920000D02*
X-8150000Y+5630000D01*
X-8152838Y+5600837D01*
X-8161004Y+5573867D01*
X-8173975Y+5549614D01*
X-8191229Y+5528599D01*
X-8212244Y+5511345D01*
X-8236497Y+5498374D01*
X-8263467Y+5490208D01*
X-8292630Y+5487370D01*
X-8751100Y+5487370D01*
X-8840000Y+5520000D01*
X-9876000Y+6020000D02*
X-9876000Y+5540000D01*
X-9856000Y+5520000D01*
X-8060000Y+4482000D02*
X-8651091Y+4482000D01*
X-8686372Y+4446719D01*
X-8670000Y+4480000D01*
X-8060612Y+5009981D02*
X-8060612Y+5070927D01*
X-8062723Y+5092620D01*
X-8063816Y+5103852D01*
X-8073035Y+5134300D01*
X-8087679Y+5161682D01*
X-8107159Y+5185408D01*
X-8130885Y+5204888D01*
X-8158266Y+5219532D01*
X-8188715Y+5228751D01*
X-8221640Y+5231955D01*
X-9275300Y+5231955D01*
X-9296598Y+5229882D01*
X-9316294Y+5223919D01*
X-9334006Y+5214446D01*
X-9349353Y+5201845D01*
X-9361954Y+5186498D01*
X-9371427Y+5168786D01*
X-9377390Y+5149090D01*
X-9379463Y+5127792D01*
X-9379463Y+5108300D01*
X-9390000Y+4994000D01*
X-8062723Y+5092620D02*
X-8062723Y+5078900D01*
X-8060612Y+5009981D01*
X-8060000Y+4990000D01*
X-8670000Y+4480000D02*
X-8670000Y+4646530D01*
X-8676442Y+4679392D01*
X-8694137Y+4705893D01*
X-8720638Y+4723588D01*
X-8753500Y+4730030D01*
X-9275700Y+4730030D01*
X-9390000Y+4740000D01*
X-8670000Y+4988000D02*
X-8626865Y+4988000D01*
X-8581887Y+4983623D01*
X-8540292Y+4971029D01*
X-8502886Y+4951024D01*
X-8470475Y+4924413D01*
X-8443864Y+4892002D01*
X-8423859Y+4854596D01*
X-8411265Y+4813001D01*
X-8406888Y+4768023D01*
X-8400446Y+4735161D01*
X-8382751Y+4708660D01*
X-8356250Y+4690965D01*
X-8323388Y+4684523D01*
X-7936112Y+4684523D01*
X-7903250Y+4678081D01*
X-7876749Y+4660386D01*
X-7859054Y+4633884D01*
X-7852612Y+4601023D01*
X-7852612Y+4240000D01*
X-7859054Y+4207138D01*
X-7876749Y+4180637D01*
X-7903250Y+4162942D01*
X-7936112Y+4156500D01*
X-8959652Y+4156500D01*
X-9149390Y+3966762D02*
X-9149390Y+3722400D01*
X-9148000Y+3570000D01*
X-9390000Y+4486000D02*
X-9364148Y+4486000D01*
X-9317506Y+4481461D01*
X-9274373Y+4468401D01*
X-9235584Y+4447656D01*
X-9201974Y+4420061D01*
X-9174379Y+4386451D01*
X-9153634Y+4347662D01*
X-9140574Y+4304529D01*
X-9136035Y+4257887D01*
X-9136035Y+4037197D01*
X-9136035Y+3722400D01*
X-9148000Y+3570000D01*
X-8959652Y+4156500D02*
X-8998447Y+4152725D01*
X-9034324Y+4141862D01*
X-9066588Y+4124607D01*
X-9094544Y+4101654D01*
X-9117497Y+4073698D01*
X-9134752Y+4041434D01*
X-9136035Y+4037197D01*
X-9145615Y+4005557D01*
X-9149390Y+3966762D01*
X-10460000Y+4768000D02*
X-9458000Y+4768000D01*
X-9430000Y+4740000D01*
X-13848000Y+5340000D02*
X-13848000Y+4902327D01*
X-13841500Y+4835528D01*
X-13822796Y+4773753D01*
X-13793085Y+4718200D01*
X-13753564Y+4670065D01*
X-13705428Y+4630544D01*
X-13649875Y+4600833D01*
X-13588101Y+4582129D01*
X-13521302Y+4575629D01*
X-12778900Y+4575629D01*
X-12690000Y+4514000D01*
X-13340000Y+5340000D02*
X-13340000Y+5556561D01*
X-13336682Y+5590660D01*
X-13327134Y+5622195D01*
X-13311967Y+5650553D01*
X-13291792Y+5675125D01*
X-13267220Y+5695300D01*
X-13238862Y+5710467D01*
X-13207327Y+5720015D01*
X-13173228Y+5723333D01*
X-12778900Y+5723333D01*
X-12690000Y+5784000D01*
X-14220000Y+6462000D02*
X-14217254Y+6490217D01*
X-14209353Y+6516311D01*
X-14196803Y+6539777D01*
X-14180109Y+6560109D01*
X-14159776Y+6576803D01*
X-14136310Y+6589354D01*
X-14110216Y+6597254D01*
X-14082000Y+6600000D01*
X-13950000Y+6600000D01*
X-13844300Y+6600000D01*
X-13730000Y+6550000D01*
X-13880000Y+8370000D02*
X-14171839Y+8370000D01*
X-14205941Y+8366681D01*
X-14237478Y+8357133D01*
X-14265838Y+8341965D01*
X-14290412Y+8321788D01*
X-14310589Y+8297215D01*
X-14325757Y+8268854D01*
X-14335305Y+8237317D01*
X-14338624Y+8203215D01*
X-14338624Y+7088624D01*
X-14336264Y+7064369D01*
X-14329472Y+7041939D01*
X-14318684Y+7021768D01*
X-14304334Y+7004290D01*
X-14286856Y+6989940D01*
X-14266685Y+6979152D01*
X-14244255Y+6972360D01*
X-14220000Y+6970000D01*
X-13896000Y+6970000D01*
X-13862058Y+6966697D01*
X-13830670Y+6957193D01*
X-13802442Y+6942097D01*
X-13777984Y+6922016D01*
X-13757903Y+6897557D01*
X-13742807Y+6869330D01*
X-13733303Y+6837942D01*
X-13730000Y+6804000D01*
X-13469126Y+6550000D02*
X-13436264Y+6543558D01*
X-13409763Y+6525863D01*
X-13392068Y+6499362D01*
X-13385626Y+6466500D01*
X-13385626Y+5428900D01*
X-13340000Y+5340000D01*
X-13730000Y+6296000D02*
X-13730000Y+5490000D01*
X-13731990Y+5469553D01*
X-13737715Y+5450645D01*
X-13758906Y+5418906D01*
X-13790644Y+5397715D01*
X-13809553Y+5391990D01*
X-13830000Y+5390000D01*
X-13848000Y+5340000D01*
X-13880000Y+7862000D02*
X-13718079Y+7862000D01*
X-13663823Y+7856720D01*
X-13613649Y+7841529D01*
X-13568528Y+7817397D01*
X-13529432Y+7785297D01*
X-13497332Y+7746201D01*
X-13473200Y+7701080D01*
X-13458009Y+7650905D01*
X-13452729Y+7596650D01*
X-13452729Y+6707271D01*
X-13455858Y+6675114D01*
X-13464862Y+6645376D01*
X-13479165Y+6618633D01*
X-13498190Y+6595461D01*
X-13521362Y+6576436D01*
X-13548105Y+6562133D01*
X-13577843Y+6553129D01*
X-13610000Y+6550000D01*
X-13730000Y+6550000D01*
X-13610000Y+6550000D02*
X-13469126Y+6550000D01*
X-13880000Y+8370000D02*
X-13880000Y+8713169D01*
X-13873558Y+8746030D01*
X-13855863Y+8772532D01*
X-13829362Y+8790227D01*
X-13796500Y+8796669D01*
X-9416669Y+8796669D01*
X-9366233Y+8791761D01*
X-9319591Y+8777639D01*
X-9277646Y+8755206D01*
X-9241302Y+8725366D01*
X-9211462Y+8689022D01*
X-9189030Y+8647078D01*
X-9174908Y+8600436D01*
X-9170000Y+8550000D01*
X-9170000Y+8348900D01*
X-9128000Y+8260000D01*
X-6750000Y+5920000D02*
X-6924904Y+5920000D01*
X-6979857Y+5925348D01*
X-7030676Y+5940734D01*
X-7076376Y+5965176D01*
X-7115975Y+5997688D01*
X-7148488Y+6037287D01*
X-7172929Y+6082988D01*
X-7188316Y+6133807D01*
X-7193664Y+6188760D01*
X-7193664Y+6762534D01*
X-7187222Y+6795396D01*
X-7169527Y+6821897D01*
X-7143026Y+6839592D01*
X-7110164Y+6846034D01*
X-6353966Y+6846034D01*
X-6322485Y+6849098D01*
X-6293372Y+6857912D01*
X-6267191Y+6871914D01*
X-6244506Y+6890540D01*
X-6225880Y+6913225D01*
X-6211878Y+6939406D01*
X-6203064Y+6968519D01*
X-6200000Y+7000000D01*
X-6200000Y+8630000D01*
X-6203383Y+8664760D01*
X-6213115Y+8696904D01*
X-6228576Y+8725812D01*
X-6249141Y+8750859D01*
X-6274188Y+8771425D01*
X-6303096Y+8786885D01*
X-6335241Y+8796617D01*
X-6370000Y+8800000D01*
X-8836748Y+8800000D01*
X-8886367Y+8795171D01*
X-8932253Y+8781278D01*
X-8973518Y+8759209D01*
X-9009273Y+8729852D01*
X-9038630Y+8694097D01*
X-9060699Y+8652832D01*
X-9074592Y+8606946D01*
X-9079421Y+8557327D01*
X-9079421Y+8348900D01*
X-9128000Y+8260000D01*
X-8840000Y+5520000D02*
X-9188890Y+5520000D01*
X-9220105Y+5523038D01*
X-9248972Y+5531778D01*
X-9274932Y+5545662D01*
X-9297426Y+5564130D01*
X-9315894Y+5586623D01*
X-9329778Y+5612583D01*
X-9338518Y+5641451D01*
X-9341556Y+5672666D01*
X-9341556Y+6385277D01*
X-9344237Y+6412823D01*
X-9351950Y+6438298D01*
X-9364202Y+6461206D01*
X-9380499Y+6481056D01*
X-9400349Y+6497354D01*
X-9423258Y+6509606D01*
X-9448732Y+6517319D01*
X-9476279Y+6520000D01*
X-9846000Y+6520000D01*
X-10460000Y+6546000D02*
X-11466942Y+6546000D01*
X-11509022Y+6541905D01*
X-11547937Y+6530123D01*
X-11582932Y+6511406D01*
X-11613255Y+6486510D01*
X-11638151Y+6456187D01*
X-11656868Y+6421192D01*
X-11668650Y+6382277D01*
X-11672745Y+6340197D01*
X-11672745Y+5967255D01*
X-11675675Y+5937146D01*
X-11684106Y+5909302D01*
X-11697497Y+5884262D01*
X-11715311Y+5862566D01*
X-11737007Y+5844752D01*
X-11762047Y+5831360D01*
X-11789891Y+5822930D01*
X-11820000Y+5820000D01*
X-12601100Y+5820000D01*
X-12690000Y+5784000D01*
X-10460000Y+6292000D02*
X-10948000Y+6292000D01*
X-10995437Y+6287384D01*
X-11039305Y+6274102D01*
X-11078755Y+6253003D01*
X-11112938Y+6224938D01*
X-11141003Y+6190755D01*
X-11162102Y+6151305D01*
X-11175384Y+6107437D01*
X-11180000Y+6060000D01*
X-11180000Y+2992987D01*
X-11176567Y+2957709D01*
X-11166689Y+2925084D01*
X-11150998Y+2895746D01*
X-11130126Y+2870324D01*
X-11104705Y+2849453D01*
X-11075366Y+2833762D01*
X-11042742Y+2823884D01*
X-11007464Y+2820451D01*
X-10948900Y+2820451D01*
X-10860000Y+2800000D01*
X-10886000Y+3510000D02*
X-10559379Y+3510000D01*
X-10522258Y+3506388D01*
X-10487929Y+3495994D01*
X-10457058Y+3479483D01*
X-10430309Y+3457521D01*
X-10408347Y+3430772D01*
X-10391836Y+3399900D01*
X-10381442Y+3365572D01*
X-10377830Y+3328451D01*
X-10377830Y+2949240D01*
X-10374840Y+2918518D01*
X-10366238Y+2890107D01*
X-10352574Y+2864557D01*
X-10334397Y+2842419D01*
X-10312259Y+2824242D01*
X-10286709Y+2810578D01*
X-10258298Y+2801976D01*
X-10227576Y+2798986D01*
X-9932900Y+2798986D01*
X-9844000Y+2800000D01*
X-9870000Y+3510000D02*
X-9870000Y+3421635D01*
X-9866437Y+3385026D01*
X-9856187Y+3351172D01*
X-9839904Y+3320726D01*
X-9818245Y+3294346D01*
X-9791865Y+3272687D01*
X-9761420Y+3256405D01*
X-9727565Y+3246154D01*
X-9690957Y+3242592D01*
X-8810900Y+3242592D01*
X-8772863Y+3246293D01*
X-8737688Y+3256944D01*
X-8706055Y+3273861D01*
X-8678646Y+3296365D01*
X-8656142Y+3323774D01*
X-8639225Y+3355407D01*
X-8628574Y+3390582D01*
X-8625946Y+3417600D01*
X-8640000Y+3570000D01*
X-9390000Y+4740000D02*
X-9430000Y+4740000D01*
X-9617379Y+4740000D01*
X-9661682Y+4735689D01*
X-9702653Y+4723284D01*
X-9739497Y+4703578D01*
X-9771422Y+4677366D01*
X-9797634Y+4645442D01*
X-9817340Y+4608597D01*
X-9829745Y+4567626D01*
X-9834056Y+4523323D01*
X-9834056Y+3598900D01*
X-9870000Y+3510000D01*
X-6750000Y+5920000D02*
X-5984648Y+5920000D01*
X-5952113Y+5916834D01*
X-5922026Y+5907724D01*
X-5894969Y+5893253D01*
X-5871525Y+5874005D01*
X-5852276Y+5850560D01*
X-5837806Y+5823503D01*
X-5828696Y+5793416D01*
X-5825530Y+5760882D01*
X-5825530Y+3788647D01*
X-5830733Y+3735185D01*
X-5845702Y+3685744D01*
X-5869481Y+3641283D01*
X-5901111Y+3602758D01*
X-5939636Y+3571128D01*
X-5984097Y+3547349D01*
X-6033538Y+3532380D01*
X-6087000Y+3527177D01*
X-6997600Y+3527177D01*
X-7150000Y+3530000D01*
X-6350000Y+6520000D02*
X-5820000Y+6520000D01*
X-5762749Y+6514429D01*
X-5709805Y+6498398D01*
X-5662193Y+6472935D01*
X-5620938Y+6439062D01*
X-5587066Y+6397808D01*
X-5561602Y+6350195D01*
X-5545571Y+6297251D01*
X-5540000Y+6240000D01*
X-5540000Y+3588589D01*
X-5546425Y+3522570D01*
X-5564910Y+3461517D01*
X-5594274Y+3406612D01*
X-5633333Y+3359039D01*
X-5680906Y+3319980D01*
X-5735811Y+3290616D01*
X-5796864Y+3272131D01*
X-5862883Y+3265706D01*
X-7461588Y+3265706D01*
X-7501748Y+3269614D01*
X-7538886Y+3280859D01*
X-7572285Y+3298721D01*
X-7601224Y+3322481D01*
X-7624985Y+3351420D01*
X-7642847Y+3384819D01*
X-7654092Y+3421958D01*
X-7658000Y+3462118D01*
X-7658000Y+3530000D01*
X-6120000Y+4304000D02*
X-6120000Y+3910000D01*
X-6123582Y+3873196D01*
X-6133887Y+3839160D01*
X-6150256Y+3808552D01*
X-6172031Y+3782031D01*
X-6198552Y+3760256D01*
X-6229160Y+3743887D01*
X-6263196Y+3733582D01*
X-6300000Y+3730000D01*
X-6301100Y+3730000D01*
X-6390000Y+3740000D01*
X-6120000Y+5320000D02*
X-6120000Y+5501880D01*
X-6123085Y+5533585D01*
X-6131963Y+5562905D01*
X-6146064Y+5589273D01*
X-6164822Y+5612119D01*
X-6187669Y+5630877D01*
X-6214036Y+5644979D01*
X-6243357Y+5653857D01*
X-6275062Y+5656942D01*
X-7378751Y+5656942D01*
X-7414302Y+5660402D01*
X-7447178Y+5670356D01*
X-7476743Y+5686168D01*
X-7502361Y+5707201D01*
X-7523394Y+5732818D01*
X-7539206Y+5762384D01*
X-7549160Y+5795260D01*
X-7552620Y+5830811D01*
X-7559062Y+5863672D01*
X-7576757Y+5890174D01*
X-7603258Y+5907869D01*
X-7636120Y+5914311D01*
X-8023000Y+5914311D01*
X-8150000Y+5920000D01*
X-7640000Y+5250000D02*
X-7640000Y+4954000D01*
X-7616000Y+4930000D01*
X-6624000Y+5250000D02*
X-6480441Y+5250000D01*
X-6447214Y+5243487D01*
X-6420418Y+5225595D01*
X-6402527Y+5198800D01*
X-6396014Y+5165573D01*
X-6396014Y+4844900D01*
X-6390000Y+4756000D01*
X-6624000Y+5250000D02*
X-6624000Y+5264000D01*
X-6627303Y+5297942D01*
X-6636807Y+5329330D01*
X-6651903Y+5357557D01*
X-6671984Y+5382016D01*
X-6696442Y+5402097D01*
X-6724670Y+5417193D01*
X-6756058Y+5426697D01*
X-6790000Y+5430000D01*
X-7855157Y+5430000D01*
X-7890796Y+5423013D01*
X-7919538Y+5403823D01*
X-7938728Y+5375081D01*
X-7945715Y+5339442D01*
X-7945715Y+5104285D01*
X-7947989Y+5080917D01*
X-7954532Y+5059307D01*
X-7964925Y+5039874D01*
X-7978750Y+5023035D01*
X-7995589Y+5009210D01*
X-8015022Y+4998817D01*
X-8036632Y+4992274D01*
X-8060000Y+4990000D01*
X-6620000Y+4620000D02*
X-6620000Y+4230991D01*
X-6625019Y+4179411D01*
X-6639462Y+4131712D01*
X-6662403Y+4088816D01*
X-6692920Y+4051648D01*
X-6730088Y+4021131D01*
X-6772984Y+3998190D01*
X-6820683Y+3983747D01*
X-6872263Y+3978728D01*
X-7861272Y+3978728D01*
X-7912129Y+3973779D01*
X-7959160Y+3959539D01*
X-8001455Y+3936919D01*
X-8038102Y+3906830D01*
X-8068191Y+3870183D01*
X-8090811Y+3827888D01*
X-8105051Y+3780857D01*
X-8110000Y+3730000D01*
X-8110000Y+2665396D01*
X-8113801Y+2626340D01*
X-8124736Y+2590222D01*
X-8142108Y+2557741D01*
X-8165215Y+2529598D01*
X-8193358Y+2506490D01*
X-8225839Y+2489119D01*
X-8261957Y+2478184D01*
X-8301013Y+2474383D01*
X-10720061Y+2474383D01*
X-10748674Y+2477167D01*
X-10775134Y+2485179D01*
X-10798930Y+2497905D01*
X-10819549Y+2514834D01*
X-10836478Y+2535452D01*
X-10849204Y+2559248D01*
X-10857216Y+2585709D01*
X-10860000Y+2614322D01*
X-10860000Y+2800000D01*
D11*
X-13880000Y+8370000D03*
X-13880000Y+7862000D03*
D12*
X-12690000Y+8070000D03*
X-12690000Y+7816000D03*
X-12690000Y+7562000D03*
X-12690000Y+7308000D03*
X-12690000Y+7054000D03*
X-12690000Y+6800000D03*
X-12690000Y+6546000D03*
X-12690000Y+6292000D03*
X-12690000Y+6038000D03*
X-12690000Y+5784000D03*
X-12690000Y+5530000D03*
X-12690000Y+5276000D03*
X-12690000Y+5022000D03*
X-12690000Y+4768000D03*
X-12690000Y+4514000D03*
X-10460000Y+4514000D03*
X-10460000Y+4768000D03*
X-10460000Y+5022000D03*
X-10460000Y+5276000D03*
X-10460000Y+5530000D03*
X-10460000Y+5784000D03*
X-10460000Y+6038000D03*
X-10460000Y+6292000D03*
X-10460000Y+6546000D03*
X-10460000Y+6800000D03*
X-10460000Y+7054000D03*
X-10460000Y+7308000D03*
X-10460000Y+7562000D03*
X-10460000Y+7816000D03*
X-10460000Y+8070000D03*
X-9890000Y+8260000D03*
X-9890000Y+8006000D03*
X-9128000Y+8006000D03*
X-9128000Y+8260000D03*
X-9862000Y+7090000D03*
X-8846000Y+7090000D03*
X-9846000Y+6520000D03*
X-8830000Y+6520000D03*
X-7684000Y+7916000D03*
X-7430000Y+8170000D03*
X-7684000Y+8424000D03*
D13*
X-8806000Y+7530000D03*
X-9822000Y+7530000D03*
D12*
X-8860000Y+6020000D03*
X-9876000Y+6020000D03*
X-9856000Y+5520000D03*
X-8840000Y+5520000D03*
D14*
X-6750000Y+5920000D03*
X-6750000Y+7120000D03*
X-6350000Y+6520000D03*
X-8150000Y+7120000D03*
X-8150000Y+5920000D03*
D11*
X-7150000Y+3530000D03*
X-7658000Y+3530000D03*
D15*
X-13730000Y+6804000D03*
X-13730000Y+6550000D03*
X-13730000Y+6296000D03*
D12*
X-14220000Y+6462000D03*
X-14220000Y+6970000D03*
X-13340000Y+5340000D03*
X-13848000Y+5340000D03*
D11*
X-8640000Y+3570000D03*
X-9148000Y+3570000D03*
D15*
X-9390000Y+4486000D03*
X-9390000Y+4740000D03*
X-9390000Y+4994000D03*
D12*
X-8670000Y+4480000D03*
X-8670000Y+4988000D03*
X-8060000Y+4482000D03*
X-8060000Y+4990000D03*
X-6600000Y+4930000D03*
X-7616000Y+4930000D03*
X-6620000Y+4620000D03*
X-7636000Y+4620000D03*
X-10886000Y+3510000D03*
X-9870000Y+3510000D03*
X-10860000Y+2800000D03*
X-9844000Y+2800000D03*
D16*
X-14480000Y+2620000D03*
X-5600000Y+2600000D03*
X-5600000Y+9070000D03*
X-14480000Y+9070000D03*
D12*
X-6390000Y+4756000D03*
X-6390000Y+3740000D03*
D13*
X-6120000Y+4304000D03*
X-6120000Y+5320000D03*
D12*
X-7640000Y+5250000D03*
X-6624000Y+5250000D03*
D17*
X-14930000Y+2130000D02*
X-5170000Y+2130000D01*
X-5170000Y+9560000D01*
X-14930000Y+9560000D01*
X-14930000Y+2130000D01*
M02*
