  0
SECTION
  2
HEADER
  9
$ACADVER
  1
AC1009
  9
$INSUNITS
 70
     1
  0
ENDSEC
  0
SECTION
  2
TABLES
  0
TABLE
  2
LAYER
 70
     8
  0
LAYER
  2
0
 62
     7
 70
0
  6
CONTINUOUS
  0
LAYER
  2
1
 62
     1
 70
0
  6
CONTINUOUS
  0
LAYER
  2
2
 62
     2
 70
0
  6
CONTINUOUS
  0
LAYER
  2
3
 62
     3
 70
0
  6
CONTINUOUS
  0
LAYER
  2
4
 62
     4
 70
0
  6
CONTINUOUS
  0
LAYER
  2
5
 62
     5
 70
0
  6
CONTINUOUS
  0
LAYER
  2
6
 62
     6
 70
0
  6
CONTINUOUS
  0
LAYER
  2
7
 62
     7
 70
0
  6
CONTINUOUS
  0
ENDTAB
  0
TABLE
  2
STYLE
 70
     1
  0
STYLE
 70
     0
  2
STANDARD
  3
TXT
 40
0.00
 41
1.00
 42
1.00
 50
0.00
 71
     0
  0
ENDTAB
  0
ENDSEC
  0
SECTION
  2
BLOCKS
  0
BLOCK
  8
0
  2
EPAD
 70
0
 10
0.0
 20
0.0
  0
POLYLINE
  8
0
 66
1
 70
1
 40
0.5
 41
0.5
  0
VERTEX
  8
0
 10
-0.25
 20
0.0
 42
1.0
  0
VERTEX
  8
0
 10
0.25
 20
0.0
 42
1.0
  0
SEQEND
  8
0
  0
ENDBLK
  8
0
  0
BLOCK
  8
0
  2
RPAD
 70
0
 10
0.0
 20
0.0
  0
TRACE
  8
0
 10
-0.5
 20
-0.5
 11
-0.5
 21
0.5
 12
0.5
 22
-0.5
 13
0.5
 23
0.5
  0
ENDBLK
  8
0
  0
ENDSEC
0
SECTION
2
ENTITIES
0
POLYLINE
8
0
66
1
40
0.008000
41
0.008000
0
VERTEX
8
0
10
-1.307874
20
1.094094
0
VERTEX
8
0
10
-1.707874
20
1.094094
0
SEQEND
8
0
0
POLYLINE
8
0
66
1
40
0.008000
41
0.008000
0
VERTEX
8
0
10
-1.307874
20
0.694094
0
VERTEX
8
0
10
-1.707874
20
0.694094
0
SEQEND
8
0
0
POLYLINE
8
0
66
1
40
0.008000
41
0.008000
0
VERTEX
8
0
10
-1.707874
20
1.094094
0
VERTEX
8
0
10
-1.707874
20
0.694094
0
SEQEND
8
0
0
POLYLINE
8
0
66
1
40
0.008000
41
0.008000
0
VERTEX
8
0
10
-1.307874
20
1.094094
0
VERTEX
8
0
10
-1.307874
20
0.694094
0
SEQEND
8
0
0
TEXT
8
0
10
-1.249874
20
0.769094
40
0.048000
41
1.041667
50
90.000000
1
POWER
0
POLYLINE
8
0
66
1
40
0.008000
41
0.008000
0
VERTEX
8
0
10
-0.251969
20
-0.611417
0
VERTEX
8
0
10
-0.055118
20
-0.611417
0
VERTEX
8
0
10
-0.055118
20
0.963386
0
VERTEX
8
0
10
-0.251969
20
0.963386
0
VERTEX
8
0
10
-0.251969
20
-0.611417
0
SEQEND
8
0
0
POLYLINE
8
0
66
1
40
0.008000
41
0.008000
0
VERTEX
8
0
10
-1.137795
20
-0.611417
0
VERTEX
8
0
10
-0.940945
20
-0.611417
0
VERTEX
8
0
10
-0.940945
20
0.963386
0
VERTEX
8
0
10
-1.137795
20
0.963386
0
VERTEX
8
0
10
-1.137795
20
-0.611417
0
SEQEND
8
0
0
TEXT
8
0
10
-0.870079
20
0.854827
40
0.072000
41
0.694444
1
A0
0
TEXT
8
0
10
-0.870079
20
0.752465
40
0.072000
41
0.694444
1
G
0
TEXT
8
0
10
-0.874016
20
0.650102
40
0.072000
41
0.694444
1
VU
0
TEXT
8
0
10
-0.874016
20
0.547740
40
0.072000
41
0.694444
1
S3
0
TEXT
8
0
10
-0.870079
20
0.445378
40
0.072000
41
0.694444
1
S2
0
TEXT
8
0
10
-0.870079
20
0.343016
40
0.072000
41
0.694444
1
S1
0
TEXT
8
0
10
-0.874016
20
0.240654
40
0.072000
41
0.694444
1
SC
0
TEXT
8
0
10
-0.874016
20
0.138291
40
0.072000
41
0.694444
1
S0
0
TEXT
8
0
10
-0.874016
20
0.047740
40
0.072000
41
0.694444
1
SK
0
TEXT
8
0
10
-0.877953
20
-0.054622
40
0.072000
41
0.694444
1
G
0
TEXT
8
0
10
-0.877953
20
-0.156984
40
0.072000
41
0.694444
1
3V
0
TEXT
8
0
10
-0.874016
20
-0.259346
40
0.072000
41
0.694444
1
EN
0
TEXT
8
0
10
-0.874016
20
-0.361709
40
0.072000
41
0.694444
1
RST
0
TEXT
8
0
10
-0.877953
20
-0.464071
40
0.072000
41
0.694444
1
G
0
TEXT
8
0
10
-0.877953
20
-0.566433
40
0.072000
41
0.694444
1
VIN
0
TEXT
8
0
10
-0.429134
20
0.850890
40
0.072000
41
0.694444
1
D0
0
TEXT
8
0
10
-0.429134
20
0.748528
40
0.072000
41
0.694444
1
D1
0
TEXT
8
0
10
-0.433071
20
0.646165
40
0.072000
41
0.694444
1
D2
0
TEXT
8
0
10
-0.433071
20
0.543803
40
0.072000
41
0.694444
1
D3
0
TEXT
8
0
10
-0.429134
20
0.441441
40
0.072000
41
0.694444
1
D4
0
TEXT
8
0
10
-0.429134
20
0.339079
40
0.072000
41
0.694444
1
3V
0
TEXT
8
0
10
-0.433071
20
0.236717
40
0.072000
41
0.694444
1
G
0
TEXT
8
0
10
-0.433071
20
0.134354
40
0.072000
41
0.694444
1
D5
0
TEXT
8
0
10
-0.433071
20
0.043803
40
0.072000
41
0.694444
1
D6
0
TEXT
8
0
10
-0.437008
20
-0.058559
40
0.072000
41
0.694444
1
D7
0
TEXT
8
0
10
-0.437008
20
-0.160921
40
0.072000
41
0.694444
1
D8
0
TEXT
8
0
10
-0.433071
20
-0.263283
40
0.072000
41
0.694444
1
RX
0
TEXT
8
0
10
-0.433071
20
-0.365646
40
0.072000
41
0.694444
1
TX
0
TEXT
8
0
10
-0.437008
20
-0.468008
40
0.072000
41
0.694444
1
G
0
TEXT
8
0
10
-0.437008
20
-0.570370
40
0.072000
41
0.694444
1
3V
0
TEXT
8
0
10
-0.846457
20
0.973386
40
0.048000
41
1.041667
1
MONSTERITC
0
POLYLINE
8
0
66
1
40
0.008000
41
0.008000
0
VERTEX
8
0
10
0.262992
20
1.000787
0
VERTEX
8
0
10
0.312992
20
1.000787
0
VERTEX
8
0
10
0.312992
20
0.800787
0
VERTEX
8
0
10
0.112992
20
0.800787
0
VERTEX
8
0
10
0.112992
20
1.000787
0
VERTEX
8
0
10
0.162992
20
1.000787
0
SEQEND
8
0
0
POLYLINE
8
0
66
1
40
0.008000
41
0.008000
0
VERTEX
8
0
10
0.212992
20
0.950787
0
VERTEX
8
0
10
0.223180
20
0.951746
0
VERTEX
8
0
10
0.232617
20
0.954522
0
VERTEX
8
0
10
0.241117
20
0.958961
0
VERTEX
8
0
10
0.248492
20
0.964913
0
VERTEX
8
0
10
0.254555
20
0.972223
0
VERTEX
8
0
10
0.259117
20
0.980741
0
VERTEX
8
0
10
0.261992
20
0.990313
0
VERTEX
8
0
10
0.262992
20
1.000787
0
SEQEND
8
0
0
POLYLINE
8
0
66
1
40
0.008000
41
0.008000
0
VERTEX
8
0
10
0.212992
20
0.950787
0
VERTEX
8
0
10
0.202517
20
0.951746
0
VERTEX
8
0
10
0.192945
20
0.954522
0
VERTEX
8
0
10
0.184428
20
0.958961
0
VERTEX
8
0
10
0.177117
20
0.964913
0
VERTEX
8
0
10
0.171166
20
0.972223
0
VERTEX
8
0
10
0.166726
20
0.980741
0
VERTEX
8
0
10
0.163951
20
0.990313
0
VERTEX
8
0
10
0.162992
20
1.000787
0
SEQEND
8
0
0
TEXT
8
0
10
-0.062008
20
1.010787
40
0.048000
41
1.041667
1
OPTOCOUPLER
0
POLYLINE
8
0
66
1
40
0.008000
41
0.008000
0
VERTEX
8
0
10
0.124016
20
0.490157
0
VERTEX
8
0
10
0.174016
20
0.490157
0
SEQEND
8
0
0
POLYLINE
8
0
66
1
40
0.008000
41
0.008000
0
VERTEX
8
0
10
0.174016
20
0.465157
0
VERTEX
8
0
10
0.374016
20
0.465157
0
VERTEX
8
0
10
0.374016
20
0.515157
0
VERTEX
8
0
10
0.174016
20
0.515157
0
VERTEX
8
0
10
0.174016
20
0.465157
0
SEQEND
8
0
0
POLYLINE
8
0
66
1
40
0.008000
41
0.008000
0
VERTEX
8
0
10
0.374016
20
0.490157
0
VERTEX
8
0
10
0.424016
20
0.490157
0
SEQEND
8
0
0
TEXT
8
0
10
0.224016
20
0.525157
40
0.048000
41
1.041667
1
R1
0
POLYLINE
8
0
66
1
40
0.008000
41
0.008000
0
VERTEX
8
0
10
0.130315
20
0.265748
0
VERTEX
8
0
10
0.180315
20
0.265748
0
SEQEND
8
0
0
POLYLINE
8
0
66
1
40
0.008000
41
0.008000
0
VERTEX
8
0
10
0.180315
20
0.240748
0
VERTEX
8
0
10
0.380315
20
0.240748
0
VERTEX
8
0
10
0.380315
20
0.290748
0
VERTEX
8
0
10
0.180315
20
0.290748
0
VERTEX
8
0
10
0.180315
20
0.240748
0
SEQEND
8
0
0
POLYLINE
8
0
66
1
40
0.008000
41
0.008000
0
VERTEX
8
0
10
0.380315
20
0.265748
0
VERTEX
8
0
10
0.430315
20
0.265748
0
SEQEND
8
0
0
TEXT
8
0
10
0.230315
20
0.300748
40
0.048000
41
1.041667
1
R3
0
CIRCLE
8
0
10
0.931496
20
0.915354
40
0.175000
0
POLYLINE
8
0
66
1
40
0.008000
41
0.008000
0
VERTEX
8
0
10
0.781496
20
0.815354
0
VERTEX
8
0
10
0.756496
20
0.790354
0
VERTEX
8
0
10
0.806496
20
0.740354
0
VERTEX
8
0
10
0.831496
20
0.765354
0
SEQEND
8
0
0
TEXT
8
0
10
1.164496
20
0.765354
40
0.048000
41
1.041667
50
90.000000
1
2N2222
0
POLYLINE
8
0
66
1
40
0.008000
41
0.008000
0
VERTEX
8
0
10
0.187764
20
0.611386
0
VERTEX
8
0
10
0.391764
20
0.611386
0
VERTEX
8
0
10
0.391764
20
0.716386
0
VERTEX
8
0
10
0.187764
20
0.716386
0
VERTEX
8
0
10
0.187764
20
0.611386
0
SEQEND
8
0
0
POLYLINE
8
0
66
1
40
0.008000
41
0.008000
0
VERTEX
8
0
10
0.219764
20
0.715386
0
VERTEX
8
0
10
0.219764
20
0.612386
0
SEQEND
8
0
0
POLYLINE
8
0
66
1
40
0.008000
41
0.008000
0
VERTEX
8
0
10
0.159764
20
0.663386
0
VERTEX
8
0
10
0.187764
20
0.663386
0
SEQEND
8
0
0
POLYLINE
8
0
66
1
40
0.008000
41
0.008000
0
VERTEX
8
0
10
0.391764
20
0.663386
0
VERTEX
8
0
10
0.419764
20
0.663386
0
SEQEND
8
0
0
TEXT
8
0
10
0.239764
20
0.726386
40
0.048000
41
1.041667
1
D1
0
POLYLINE
8
0
66
1
40
0.008000
41
0.008000
0
VERTEX
8
0
10
0.418504
20
0.068898
0
VERTEX
8
0
10
0.368504
20
0.068898
0
SEQEND
8
0
0
POLYLINE
8
0
66
1
40
0.008000
41
0.008000
0
VERTEX
8
0
10
0.168504
20
0.043898
0
VERTEX
8
0
10
0.368504
20
0.043898
0
VERTEX
8
0
10
0.368504
20
0.093898
0
VERTEX
8
0
10
0.168504
20
0.093898
0
VERTEX
8
0
10
0.168504
20
0.043898
0
SEQEND
8
0
0
POLYLINE
8
0
66
1
40
0.008000
41
0.008000
0
VERTEX
8
0
10
0.168504
20
0.068898
0
VERTEX
8
0
10
0.118504
20
0.068898
0
SEQEND
8
0
0
TEXT
8
0
10
0.218504
20
-0.014102
40
0.048000
41
1.041667
1
R2
0
POLYLINE
8
0
66
1
40
0.008000
41
0.008000
0
VERTEX
8
0
10
0.174378
20
-0.180953
0
VERTEX
8
0
10
0.378378
20
-0.180953
0
VERTEX
8
0
10
0.378378
20
-0.075953
0
VERTEX
8
0
10
0.174378
20
-0.075953
0
VERTEX
8
0
10
0.174378
20
-0.180953
0
SEQEND
8
0
0
POLYLINE
8
0
66
1
40
0.008000
41
0.008000
0
VERTEX
8
0
10
0.346378
20
-0.179953
0
VERTEX
8
0
10
0.346378
20
-0.076953
0
SEQEND
8
0
0
POLYLINE
8
0
66
1
40
0.008000
41
0.008000
0
VERTEX
8
0
10
0.406378
20
-0.127953
0
VERTEX
8
0
10
0.378378
20
-0.127953
0
SEQEND
8
0
0
POLYLINE
8
0
66
1
40
0.008000
41
0.008000
0
VERTEX
8
0
10
0.174378
20
-0.127953
0
VERTEX
8
0
10
0.146378
20
-0.127953
0
SEQEND
8
0
0
TEXT
8
0
10
0.226378
20
-0.238953
40
0.048000
41
1.041667
1
D2
0
POLYLINE
8
0
66
1
40
0.008000
41
0.008000
0
VERTEX
8
0
10
0.649606
20
-0.057087
0
VERTEX
8
0
10
1.535433
20
-0.057087
0
VERTEX
8
0
10
1.535433
20
0.592520
0
VERTEX
8
0
10
0.649606
20
0.592520
0
VERTEX
8
0
10
0.649606
20
-0.057087
0
SEQEND
8
0
0
TEXT
8
0
10
0.867520
20
-0.115087
40
0.048000
41
1.041667
1
RELAY_24V
0
POLYLINE
8
0
66
1
40
0.008000
41
0.008000
0
VERTEX
8
0
10
1.241732
20
-1.111417
0
VERTEX
8
0
10
1.241732
20
-0.711417
0
SEQEND
8
0
0
POLYLINE
8
0
66
1
40
0.008000
41
0.008000
0
VERTEX
8
0
10
0.841732
20
-1.111417
0
VERTEX
8
0
10
0.841732
20
-0.711417
0
SEQEND
8
0
0
POLYLINE
8
0
66
1
40
0.008000
41
0.008000
0
VERTEX
8
0
10
1.241732
20
-0.711417
0
VERTEX
8
0
10
0.841732
20
-0.711417
0
SEQEND
8
0
0
POLYLINE
8
0
66
1
40
0.008000
41
0.008000
0
VERTEX
8
0
10
1.241732
20
-1.111417
0
VERTEX
8
0
10
0.841732
20
-1.111417
0
SEQEND
8
0
0
TEXT
8
0
10
0.941732
20
-1.169417
40
0.048000
41
1.041667
1
LOAD
0
POLYLINE
8
0
66
1
40
0.008000
41
0.008000
0
VERTEX
8
0
10
-1.498819
20
0.127559
0
VERTEX
8
0
10
-1.398819
20
0.127559
0
VERTEX
8
0
10
-1.398819
20
0.427559
0
VERTEX
8
0
10
-1.498819
20
0.427559
0
VERTEX
8
0
10
-1.498819
20
0.127559
0
SEQEND
8
0
0
POLYLINE
8
0
66
1
40
0.008000
41
0.008000
0
VERTEX
8
0
10
-1.398819
20
0.427559
0
VERTEX
8
0
10
-1.348819
20
0.427559
0
VERTEX
8
0
10
-1.348819
20
0.127559
0
VERTEX
8
0
10
-1.398819
20
0.127559
0
SEQEND
8
0
0
POLYLINE
8
0
66
1
40
0.008000
41
0.008000
0
VERTEX
8
0
10
-1.398819
20
0.427559
0
VERTEX
8
0
10
-1.348819
20
0.377559
0
SEQEND
8
0
0
POLYLINE
8
0
66
1
40
0.008000
41
0.008000
0
VERTEX
8
0
10
-1.398819
20
0.377559
0
VERTEX
8
0
10
-1.348819
20
0.327559
0
SEQEND
8
0
0
POLYLINE
8
0
66
1
40
0.008000
41
0.008000
0
VERTEX
8
0
10
-1.398819
20
0.327559
0
VERTEX
8
0
10
-1.348819
20
0.277559
0
SEQEND
8
0
0
POLYLINE
8
0
66
1
40
0.008000
41
0.008000
0
VERTEX
8
0
10
-1.398819
20
0.277559
0
VERTEX
8
0
10
-1.348819
20
0.227559
0
SEQEND
8
0
0
POLYLINE
8
0
66
1
40
0.008000
41
0.008000
0
VERTEX
8
0
10
-1.398819
20
0.227559
0
VERTEX
8
0
10
-1.348819
20
0.177559
0
SEQEND
8
0
0
POLYLINE
8
0
66
1
40
0.008000
41
0.008000
0
VERTEX
8
0
10
-1.398819
20
0.177559
0
VERTEX
8
0
10
-1.348819
20
0.127559
0
SEQEND
8
0
0
TEXT
8
0
10
-1.290819
20
0.102559
40
0.048000
41
1.041667
50
90.000000
1
24V-12V
0
POLYLINE
8
0
66
1
40
0.008000
41
0.008000
0
VERTEX
8
0
10
-1.641732
20
0.192913
0
VERTEX
8
0
10
-1.651920
20
0.195872
0
VERTEX
8
0
10
-1.661357
20
0.204398
0
VERTEX
8
0
10
-1.669857
20
0.217962
0
VERTEX
8
0
10
-1.677232
20
0.236039
0
VERTEX
8
0
10
-1.683295
20
0.258099
0
VERTEX
8
0
10
-1.687857
20
0.283617
0
VERTEX
8
0
10
-1.690732
20
0.312064
0
VERTEX
8
0
10
-1.691732
20
0.342913
0
SEQEND
8
0
0
POLYLINE
8
0
66
1
40
0.008000
41
0.008000
0
VERTEX
8
0
10
-1.641732
20
0.492913
0
VERTEX
8
0
10
-1.651920
20
0.489913
0
VERTEX
8
0
10
-1.661357
20
0.481288
0
VERTEX
8
0
10
-1.669857
20
0.467601
0
VERTEX
8
0
10
-1.677232
20
0.449413
0
VERTEX
8
0
10
-1.683295
20
0.427288
0
VERTEX
8
0
10
-1.687857
20
0.401788
0
VERTEX
8
0
10
-1.690732
20
0.373476
0
VERTEX
8
0
10
-1.691732
20
0.342913
0
SEQEND
8
0
0
POLYLINE
8
0
66
1
40
0.008000
41
0.008000
0
VERTEX
8
0
10
-1.641732
20
0.492913
0
VERTEX
8
0
10
-1.631545
20
0.489913
0
VERTEX
8
0
10
-1.622107
20
0.481288
0
VERTEX
8
0
10
-1.613607
20
0.467601
0
VERTEX
8
0
10
-1.606232
20
0.449413
0
VERTEX
8
0
10
-1.600170
20
0.427288
0
VERTEX
8
0
10
-1.595607
20
0.401788
0
VERTEX
8
0
10
-1.592732
20
0.373476
0
VERTEX
8
0
10
-1.591732
20
0.342913
0
SEQEND
8
0
0
POLYLINE
8
0
66
1
40
0.008000
41
0.008000
0
VERTEX
8
0
10
-1.641732
20
0.192913
0
VERTEX
8
0
10
-1.631545
20
0.195872
0
VERTEX
8
0
10
-1.622107
20
0.204398
0
VERTEX
8
0
10
-1.613607
20
0.217962
0
VERTEX
8
0
10
-1.606232
20
0.236039
0
VERTEX
8
0
10
-1.600170
20
0.258099
0
VERTEX
8
0
10
-1.595607
20
0.283617
0
VERTEX
8
0
10
-1.592732
20
0.312064
0
VERTEX
8
0
10
-1.591732
20
0.342913
0
SEQEND
8
0
0
TEXT
8
0
10
-1.701732
20
0.292913
40
0.048000
41
1.041667
50
90.000000
1
C3
0
POLYLINE
8
0
66
1
40
0.008000
41
0.008000
0
VERTEX
8
0
10
-1.245276
20
-0.198819
0
VERTEX
8
0
10
-1.248235
20
-0.209006
0
VERTEX
8
0
10
-1.256760
20
-0.218444
0
VERTEX
8
0
10
-1.270324
20
-0.226944
0
VERTEX
8
0
10
-1.288401
20
-0.234319
0
VERTEX
8
0
10
-1.310461
20
-0.240381
0
VERTEX
8
0
10
-1.335979
20
-0.244944
0
VERTEX
8
0
10
-1.364426
20
-0.247819
0
VERTEX
8
0
10
-1.395276
20
-0.248819
0
SEQEND
8
0
0
POLYLINE
8
0
66
1
40
0.008000
41
0.008000
0
VERTEX
8
0
10
-1.545276
20
-0.198819
0
VERTEX
8
0
10
-1.542276
20
-0.209006
0
VERTEX
8
0
10
-1.533650
20
-0.218444
0
VERTEX
8
0
10
-1.519963
20
-0.226944
0
VERTEX
8
0
10
-1.501776
20
-0.234319
0
VERTEX
8
0
10
-1.479650
20
-0.240381
0
VERTEX
8
0
10
-1.454150
20
-0.244944
0
VERTEX
8
0
10
-1.425838
20
-0.247819
0
VERTEX
8
0
10
-1.395276
20
-0.248819
0
SEQEND
8
0
0
POLYLINE
8
0
66
1
40
0.008000
41
0.008000
0
VERTEX
8
0
10
-1.545276
20
-0.198819
0
VERTEX
8
0
10
-1.542276
20
-0.188631
0
VERTEX
8
0
10
-1.533650
20
-0.179194
0
VERTEX
8
0
10
-1.519963
20
-0.170694
0
VERTEX
8
0
10
-1.501776
20
-0.163319
0
VERTEX
8
0
10
-1.479650
20
-0.157256
0
VERTEX
8
0
10
-1.454150
20
-0.152694
0
VERTEX
8
0
10
-1.425838
20
-0.149819
0
VERTEX
8
0
10
-1.395276
20
-0.148819
0
SEQEND
8
0
0
POLYLINE
8
0
66
1
40
0.008000
41
0.008000
0
VERTEX
8
0
10
-1.245276
20
-0.198819
0
VERTEX
8
0
10
-1.248235
20
-0.188631
0
VERTEX
8
0
10
-1.256760
20
-0.179194
0
VERTEX
8
0
10
-1.270324
20
-0.170694
0
VERTEX
8
0
10
-1.288401
20
-0.163319
0
VERTEX
8
0
10
-1.310461
20
-0.157256
0
VERTEX
8
0
10
-1.335979
20
-0.152694
0
VERTEX
8
0
10
-1.364426
20
-0.149819
0
VERTEX
8
0
10
-1.395276
20
-0.148819
0
SEQEND
8
0
0
TEXT
8
0
10
-1.445276
20
-0.306819
40
0.048000
41
1.041667
1
C4
0
POLYLINE
8
0
66
1
40
0.008000
41
0.008000
0
VERTEX
8
0
10
0.655118
20
-1.095669
0
VERTEX
8
0
10
0.655118
20
-0.695669
0
SEQEND
8
0
0
POLYLINE
8
0
66
1
40
0.008000
41
0.008000
0
VERTEX
8
0
10
0.255118
20
-1.095669
0
VERTEX
8
0
10
0.255118
20
-0.695669
0
SEQEND
8
0
0
POLYLINE
8
0
66
1
40
0.008000
41
0.008000
0
VERTEX
8
0
10
0.655118
20
-0.695669
0
VERTEX
8
0
10
0.255118
20
-0.695669
0
SEQEND
8
0
0
POLYLINE
8
0
66
1
40
0.008000
41
0.008000
0
VERTEX
8
0
10
0.655118
20
-1.095669
0
VERTEX
8
0
10
0.255118
20
-1.095669
0
SEQEND
8
0
0
TEXT
8
0
10
0.255118
20
-1.153669
40
0.048000
41
1.041667
1
FEEDBACK
0
POLYLINE
8
0
66
1
40
0.008000
41
0.008000
0
VERTEX
8
0
10
0.209843
20
-0.585039
0
VERTEX
8
0
10
0.309843
20
-0.585039
0
VERTEX
8
0
10
0.309843
20
-0.285039
0
VERTEX
8
0
10
0.209843
20
-0.285039
0
VERTEX
8
0
10
0.209843
20
-0.585039
0
VERTEX
8
0
10
0.159843
20
-0.585039
0
VERTEX
8
0
10
0.159843
20
-0.285039
0
VERTEX
8
0
10
0.209843
20
-0.285039
0
SEQEND
8
0
0
POLYLINE
8
0
66
1
40
0.008000
41
0.008000
0
VERTEX
8
0
10
0.209843
20
-0.585039
0
VERTEX
8
0
10
0.159843
20
-0.535039
0
SEQEND
8
0
0
POLYLINE
8
0
66
1
40
0.008000
41
0.008000
0
VERTEX
8
0
10
0.209843
20
-0.535039
0
VERTEX
8
0
10
0.159843
20
-0.485039
0
SEQEND
8
0
0
POLYLINE
8
0
66
1
40
0.008000
41
0.008000
0
VERTEX
8
0
10
0.209843
20
-0.485039
0
VERTEX
8
0
10
0.159843
20
-0.435039
0
SEQEND
8
0
0
POLYLINE
8
0
66
1
40
0.008000
41
0.008000
0
VERTEX
8
0
10
0.209843
20
-0.435039
0
VERTEX
8
0
10
0.159843
20
-0.385039
0
SEQEND
8
0
0
POLYLINE
8
0
66
1
40
0.008000
41
0.008000
0
VERTEX
8
0
10
0.209843
20
-0.385039
0
VERTEX
8
0
10
0.159843
20
-0.335039
0
SEQEND
8
0
0
POLYLINE
8
0
66
1
40
0.008000
41
0.008000
0
VERTEX
8
0
10
0.209843
20
-0.335039
0
VERTEX
8
0
10
0.159843
20
-0.285039
0
SEQEND
8
0
0
TEXT
8
0
10
0.149843
20
-0.635039
40
0.048000
41
1.041667
50
90.000000
1
24V-3.3V
0
POLYLINE
8
0
66
1
40
0.008000
41
0.008000
0
VERTEX
8
0
10
0.543307
20
-0.587402
0
VERTEX
8
0
10
0.533120
20
-0.584443
0
VERTEX
8
0
10
0.523682
20
-0.575917
0
VERTEX
8
0
10
0.515182
20
-0.562353
0
VERTEX
8
0
10
0.507807
20
-0.544276
0
VERTEX
8
0
10
0.501744
20
-0.522216
0
VERTEX
8
0
10
0.497182
20
-0.496698
0
VERTEX
8
0
10
0.494307
20
-0.468251
0
VERTEX
8
0
10
0.493307
20
-0.437402
0
SEQEND
8
0
0
POLYLINE
8
0
66
1
40
0.008000
41
0.008000
0
VERTEX
8
0
10
0.543307
20
-0.287402
0
VERTEX
8
0
10
0.533120
20
-0.290402
0
VERTEX
8
0
10
0.523682
20
-0.299027
0
VERTEX
8
0
10
0.515182
20
-0.312714
0
VERTEX
8
0
10
0.507807
20
-0.330902
0
VERTEX
8
0
10
0.501744
20
-0.353027
0
VERTEX
8
0
10
0.497182
20
-0.378527
0
VERTEX
8
0
10
0.494307
20
-0.406839
0
VERTEX
8
0
10
0.493307
20
-0.437402
0
SEQEND
8
0
0
POLYLINE
8
0
66
1
40
0.008000
41
0.008000
0
VERTEX
8
0
10
0.543307
20
-0.287402
0
VERTEX
8
0
10
0.553494
20
-0.290402
0
VERTEX
8
0
10
0.562932
20
-0.299027
0
VERTEX
8
0
10
0.571432
20
-0.312714
0
VERTEX
8
0
10
0.578807
20
-0.330902
0
VERTEX
8
0
10
0.584870
20
-0.353027
0
VERTEX
8
0
10
0.589432
20
-0.378527
0
VERTEX
8
0
10
0.592307
20
-0.406839
0
VERTEX
8
0
10
0.593307
20
-0.437402
0
SEQEND
8
0
0
POLYLINE
8
0
66
1
40
0.008000
41
0.008000
0
VERTEX
8
0
10
0.543307
20
-0.587402
0
VERTEX
8
0
10
0.553494
20
-0.584443
0
VERTEX
8
0
10
0.562932
20
-0.575917
0
VERTEX
8
0
10
0.571432
20
-0.562353
0
VERTEX
8
0
10
0.578807
20
-0.544276
0
VERTEX
8
0
10
0.584870
20
-0.522216
0
VERTEX
8
0
10
0.589432
20
-0.496698
0
VERTEX
8
0
10
0.592307
20
-0.468251
0
VERTEX
8
0
10
0.593307
20
-0.437402
0
SEQEND
8
0
0
TEXT
8
0
10
0.483307
20
-0.487402
40
0.048000
41
1.041667
50
90.000000
1
C1
0
POLYLINE
8
0
66
1
40
0.008000
41
0.008000
0
VERTEX
8
0
10
0.783465
20
-0.586614
0
VERTEX
8
0
10
0.773277
20
-0.583655
0
VERTEX
8
0
10
0.763839
20
-0.575130
0
VERTEX
8
0
10
0.755339
20
-0.561565
0
VERTEX
8
0
10
0.747965
20
-0.543489
0
VERTEX
8
0
10
0.741902
20
-0.521429
0
VERTEX
8
0
10
0.737339
20
-0.495911
0
VERTEX
8
0
10
0.734465
20
-0.467464
0
VERTEX
8
0
10
0.733465
20
-0.436614
0
SEQEND
8
0
0
POLYLINE
8
0
66
1
40
0.008000
41
0.008000
0
VERTEX
8
0
10
0.783465
20
-0.286614
0
VERTEX
8
0
10
0.773277
20
-0.289614
0
VERTEX
8
0
10
0.763839
20
-0.298239
0
VERTEX
8
0
10
0.755339
20
-0.311927
0
VERTEX
8
0
10
0.747965
20
-0.330114
0
VERTEX
8
0
10
0.741902
20
-0.352239
0
VERTEX
8
0
10
0.737339
20
-0.377739
0
VERTEX
8
0
10
0.734465
20
-0.406052
0
VERTEX
8
0
10
0.733465
20
-0.436614
0
SEQEND
8
0
0
POLYLINE
8
0
66
1
40
0.008000
41
0.008000
0
VERTEX
8
0
10
0.783465
20
-0.286614
0
VERTEX
8
0
10
0.793652
20
-0.289614
0
VERTEX
8
0
10
0.803090
20
-0.298239
0
VERTEX
8
0
10
0.811590
20
-0.311927
0
VERTEX
8
0
10
0.818965
20
-0.330114
0
VERTEX
8
0
10
0.825027
20
-0.352239
0
VERTEX
8
0
10
0.829590
20
-0.377739
0
VERTEX
8
0
10
0.832465
20
-0.406052
0
VERTEX
8
0
10
0.833465
20
-0.436614
0
SEQEND
8
0
0
POLYLINE
8
0
66
1
40
0.008000
41
0.008000
0
VERTEX
8
0
10
0.783465
20
-0.586614
0
VERTEX
8
0
10
0.793652
20
-0.583655
0
VERTEX
8
0
10
0.803090
20
-0.575130
0
VERTEX
8
0
10
0.811590
20
-0.561565
0
VERTEX
8
0
10
0.818965
20
-0.543489
0
VERTEX
8
0
10
0.825027
20
-0.521429
0
VERTEX
8
0
10
0.829590
20
-0.495911
0
VERTEX
8
0
10
0.832465
20
-0.467464
0
VERTEX
8
0
10
0.833465
20
-0.436614
0
SEQEND
8
0
0
TEXT
8
0
10
0.723465
20
-0.486614
40
0.048000
41
1.041667
50
90.000000
1
C2
0
POLYLINE
8
0
66
1
40
0.008000
41
0.008000
0
VERTEX
8
0
10
1.308268
20
-0.360236
0
VERTEX
8
0
10
1.258268
20
-0.360236
0
SEQEND
8
0
0
POLYLINE
8
0
66
1
40
0.008000
41
0.008000
0
VERTEX
8
0
10
1.058268
20
-0.385236
0
VERTEX
8
0
10
1.258268
20
-0.385236
0
VERTEX
8
0
10
1.258268
20
-0.335236
0
VERTEX
8
0
10
1.058268
20
-0.335236
0
VERTEX
8
0
10
1.058268
20
-0.385236
0
SEQEND
8
0
0
POLYLINE
8
0
66
1
40
0.008000
41
0.008000
0
VERTEX
8
0
10
1.058268
20
-0.360236
0
VERTEX
8
0
10
1.008268
20
-0.360236
0
SEQEND
8
0
0
TEXT
8
0
10
1.108268
20
-0.443236
40
0.048000
41
1.041667
1
R5
0
POLYLINE
8
0
66
1
40
0.008000
41
0.008000
0
VERTEX
8
0
10
1.300394
20
-0.482283
0
VERTEX
8
0
10
1.250394
20
-0.482283
0
SEQEND
8
0
0
POLYLINE
8
0
66
1
40
0.008000
41
0.008000
0
VERTEX
8
0
10
1.050394
20
-0.507283
0
VERTEX
8
0
10
1.250394
20
-0.507283
0
VERTEX
8
0
10
1.250394
20
-0.457283
0
VERTEX
8
0
10
1.050394
20
-0.457283
0
VERTEX
8
0
10
1.050394
20
-0.507283
0
SEQEND
8
0
0
POLYLINE
8
0
66
1
40
0.008000
41
0.008000
0
VERTEX
8
0
10
1.050394
20
-0.482283
0
VERTEX
8
0
10
1.000394
20
-0.482283
0
SEQEND
8
0
0
TEXT
8
0
10
1.100394
20
-0.565283
40
0.048000
41
1.041667
1
R6
0
POLYLINE
8
0
66
1
40
0.008000
41
0.008000
0
VERTEX
8
0
10
-0.279134
20
-0.919291
0
VERTEX
8
0
10
-0.229134
20
-0.919291
0
SEQEND
8
0
0
POLYLINE
8
0
66
1
40
0.008000
41
0.008000
0
VERTEX
8
0
10
-0.229134
20
-0.944291
0
VERTEX
8
0
10
-0.029134
20
-0.944291
0
VERTEX
8
0
10
-0.029134
20
-0.894291
0
VERTEX
8
0
10
-0.229134
20
-0.894291
0
VERTEX
8
0
10
-0.229134
20
-0.944291
0
SEQEND
8
0
0
POLYLINE
8
0
66
1
40
0.008000
41
0.008000
0
VERTEX
8
0
10
-0.029134
20
-0.919291
0
VERTEX
8
0
10
0.020866
20
-0.919291
0
SEQEND
8
0
0
TEXT
8
0
10
-0.179134
20
-0.884291
40
0.048000
41
1.041667
1
R7
0
POLYLINE
8
0
66
1
40
0.008000
41
0.008000
0
VERTEX
8
0
10
-0.268898
20
-1.198819
0
VERTEX
8
0
10
-0.218898
20
-1.198819
0
SEQEND
8
0
0
POLYLINE
8
0
66
1
40
0.008000
41
0.008000
0
VERTEX
8
0
10
-0.218898
20
-1.223819
0
VERTEX
8
0
10
-0.018898
20
-1.223819
0
VERTEX
8
0
10
-0.018898
20
-1.173819
0
VERTEX
8
0
10
-0.218898
20
-1.173819
0
VERTEX
8
0
10
-0.218898
20
-1.223819
0
SEQEND
8
0
0
POLYLINE
8
0
66
1
40
0.008000
41
0.008000
0
VERTEX
8
0
10
-0.018898
20
-1.198819
0
VERTEX
8
0
10
0.031102
20
-1.198819
0
SEQEND
8
0
0
TEXT
8
0
10
-0.168898
20
-1.163819
40
0.048000
41
1.041667
1
R8
0
POLYLINE
8
0
66
1
40
0.008000
41
0.008000
0
VERTEX
8
0
10
-1.921260
20
-1.462598
0
VERTEX
8
0
10
1.921260
20
-1.462598
0
VERTEX
8
0
10
1.921260
20
1.462598
0
VERTEX
8
0
10
-1.921260
20
1.462598
0
VERTEX
8
0
10
-1.921260
20
-1.462598
0
SEQEND
8
0
0
TEXT
8
0
10
0.314961
20
-0.681394
40
0.072000
41
1.111111
1
+
0
TEXT
8
0
10
0.539370
20
-0.685331
40
0.072000
41
1.111111
1
-
0
TEXT
8
0
10
1.137795
20
-0.702205
40
0.080000
41
1.000000
1
+
0
TEXT
8
0
10
0.889764
20
-0.694331
40
0.080000
41
1.000000
1
-
0
TEXT
8
0
10
-1.236220
20
0.927717
40
0.080000
41
1.000000
1
+
0
TEXT
8
0
10
-1.248661
20
0.679685
40
0.080000
41
1.000000
1
-
0
TEXT
8
0
10
-0.547244
20
1.301732
40
0.080000
41
1.000000
1
GLOBAL CONTROL
0
TEXT
8
0
10
-1.358268
20
-0.910866
40
0.080000
41
1.000000
1
PLC
0
TEXT
8
0
10
-1.854331
20
-1.104913
40
0.144000
41
0.972222
1
MonsterITC
0
POLYLINE
8
0
66
1
40
0.008000
41
0.008000
0
VERTEX
8
0
10
1.440945
20
-0.478740
0
VERTEX
8
0
10
1.440945
20
-0.528740
0
SEQEND
8
0
0
POLYLINE
8
0
66
1
40
0.008000
41
0.008000
0
VERTEX
8
0
10
1.415945
20
-0.728740
0
VERTEX
8
0
10
1.465945
20
-0.728740
0
VERTEX
8
0
10
1.465945
20
-0.528740
0
VERTEX
8
0
10
1.415945
20
-0.528740
0
VERTEX
8
0
10
1.415945
20
-0.728740
0
SEQEND
8
0
0
POLYLINE
8
0
66
1
40
0.008000
41
0.008000
0
VERTEX
8
0
10
1.440945
20
-0.728740
0
VERTEX
8
0
10
1.440945
20
-0.778740
0
SEQEND
8
0
0
TEXT
8
0
10
1.523945
20
-0.678740
40
0.048000
41
1.041667
50
90.000000
1
R9
0
POLYLINE
8
0
66
1
40
0.008000
41
0.008000
0
VERTEX
8
0
10
1.495244
20
-0.508693
0
VERTEX
8
0
10
1.600244
20
-0.508693
0
VERTEX
8
0
10
1.600244
20
-0.304693
0
VERTEX
8
0
10
1.495244
20
-0.304693
0
VERTEX
8
0
10
1.495244
20
-0.508693
0
SEQEND
8
0
0
POLYLINE
8
0
66
1
40
0.008000
41
0.008000
0
VERTEX
8
0
10
1.599244
20
-0.336693
0
VERTEX
8
0
10
1.496244
20
-0.336693
0
SEQEND
8
0
0
POLYLINE
8
0
66
1
40
0.008000
41
0.008000
0
VERTEX
8
0
10
1.547244
20
-0.276693
0
VERTEX
8
0
10
1.547244
20
-0.304693
0
SEQEND
8
0
0
POLYLINE
8
0
66
1
40
0.008000
41
0.008000
0
VERTEX
8
0
10
1.547244
20
-0.508693
0
VERTEX
8
0
10
1.547244
20
-0.536693
0
SEQEND
8
0
0
TEXT
8
0
10
1.658244
20
-0.456693
40
0.048000
41
1.041667
50
90.000000
1
D3
0
POLYLINE
8
0
66
1
40
0.008000
41
0.008000
0
VERTEX
8
0
10
0.998819
20
-0.234252
0
VERTEX
8
0
10
1.048819
20
-0.234252
0
SEQEND
8
0
0
POLYLINE
8
0
66
1
40
0.008000
41
0.008000
0
VERTEX
8
0
10
1.048819
20
-0.259252
0
VERTEX
8
0
10
1.248819
20
-0.259252
0
VERTEX
8
0
10
1.248819
20
-0.209252
0
VERTEX
8
0
10
1.048819
20
-0.209252
0
VERTEX
8
0
10
1.048819
20
-0.259252
0
SEQEND
8
0
0
POLYLINE
8
0
66
1
40
0.008000
41
0.008000
0
VERTEX
8
0
10
1.248819
20
-0.234252
0
VERTEX
8
0
10
1.298819
20
-0.234252
0
SEQEND
8
0
0
TEXT
8
0
10
1.098819
20
-0.199252
40
0.048000
41
1.041667
1
R4
0
TEXT
8
0
10
1.643484
20
-0.068480
40
0.056000
41
0.892857
50
270.000000
1
LED_feedback
0
TEXT
8
0
10
0.147717
20
-0.044659
40
0.040000
41
2.000000
1
LED
0
ENDSEC
0
EOF

