G04 PROTEUS GERBER X2 FILE*
%TF.GenerationSoftware,Labcenter,Proteus,8.6-SP2-Build23525*%
%TF.CreationDate,2019-07-05T07:02:46+00:00*%
%TF.FileFunction,Plated,0,2,PTH*%
%TF.FilePolarity,Positive*%
%TF.Part,Single*%
%FSLAX45Y45*%
%MOMM*%
G01*
%TA.AperFunction,ComponentDrill*%
%ADD19C,1.524000*%
%TA.AperFunction,ComponentDrill*%
%ADD70C,0.762000*%
%TA.AperFunction,ComponentDrill*%
%ADD71C,1.016000*%
%TA.AperFunction,ComponentDrill*%
%ADD20C,1.270000*%
%TA.AperFunction,OtherDrill,Unknown*%
%ADD21C,3.000000*%
%TD.AperFunction*%
D19*
X-13880000Y+8370000D03*
X-13880000Y+7862000D03*
D70*
X-12690000Y+8070000D03*
X-12690000Y+7816000D03*
X-12690000Y+7562000D03*
X-12690000Y+7308000D03*
X-12690000Y+7054000D03*
X-12690000Y+6800000D03*
X-12690000Y+6546000D03*
X-12690000Y+6292000D03*
X-12690000Y+6038000D03*
X-12690000Y+5784000D03*
X-12690000Y+5530000D03*
X-12690000Y+5276000D03*
X-12690000Y+5022000D03*
X-12690000Y+4768000D03*
X-12690000Y+4514000D03*
X-10460000Y+4514000D03*
X-10460000Y+4768000D03*
X-10460000Y+5022000D03*
X-10460000Y+5276000D03*
X-10460000Y+5530000D03*
X-10460000Y+5784000D03*
X-10460000Y+6038000D03*
X-10460000Y+6292000D03*
X-10460000Y+6546000D03*
X-10460000Y+6800000D03*
X-10460000Y+7054000D03*
X-10460000Y+7308000D03*
X-10460000Y+7562000D03*
X-10460000Y+7816000D03*
X-10460000Y+8070000D03*
X-9890000Y+8260000D03*
X-9890000Y+8006000D03*
X-9128000Y+8006000D03*
X-9128000Y+8260000D03*
X-9862000Y+7090000D03*
X-8846000Y+7090000D03*
X-9846000Y+6520000D03*
X-8830000Y+6520000D03*
X-7684000Y+7916000D03*
X-7430000Y+8170000D03*
X-7684000Y+8424000D03*
D71*
X-8806000Y+7530000D03*
X-9822000Y+7530000D03*
D70*
X-8860000Y+6020000D03*
X-9876000Y+6020000D03*
X-9856000Y+5520000D03*
X-8840000Y+5520000D03*
D19*
X-6750000Y+5920000D03*
X-6750000Y+7120000D03*
X-6350000Y+6520000D03*
X-8150000Y+7120000D03*
X-8150000Y+5920000D03*
X-7150000Y+3530000D03*
X-7658000Y+3530000D03*
D20*
X-13730000Y+6804000D03*
X-13730000Y+6550000D03*
X-13730000Y+6296000D03*
D70*
X-14220000Y+6462000D03*
X-14220000Y+6970000D03*
X-13340000Y+5340000D03*
X-13848000Y+5340000D03*
D19*
X-8640000Y+3570000D03*
X-9148000Y+3570000D03*
D20*
X-9390000Y+4486000D03*
X-9390000Y+4740000D03*
X-9390000Y+4994000D03*
D70*
X-8670000Y+4480000D03*
X-8670000Y+4988000D03*
X-8060000Y+4482000D03*
X-8060000Y+4990000D03*
X-6600000Y+4930000D03*
X-7616000Y+4930000D03*
X-6620000Y+4620000D03*
X-7636000Y+4620000D03*
X-10886000Y+3510000D03*
X-9870000Y+3510000D03*
X-10860000Y+2800000D03*
X-9844000Y+2800000D03*
D21*
X-14480000Y+2620000D03*
X-5600000Y+2600000D03*
X-5600000Y+9070000D03*
X-14480000Y+9070000D03*
D70*
X-6390000Y+4756000D03*
X-6390000Y+3740000D03*
D71*
X-6120000Y+4304000D03*
X-6120000Y+5320000D03*
D70*
X-7640000Y+5250000D03*
X-6624000Y+5250000D03*
M02*
