G04 #@! TF.GenerationSoftware,KiCad,Pcbnew,(5.1.2)-2*
G04 #@! TF.CreationDate,2019-08-24T11:53:36+07:00*
G04 #@! TF.ProjectId,siren_sound,73697265-6e5f-4736-9f75-6e642e6b6963,rev?*
G04 #@! TF.SameCoordinates,Original*
G04 #@! TF.FileFunction,Copper,L2,Bot*
G04 #@! TF.FilePolarity,Positive*
%FSLAX46Y46*%
G04 Gerber Fmt 4.6, Leading zero omitted, Abs format (unit mm)*
G04 Created by KiCad (PCBNEW (5.1.2)-2) date 2019-08-24 11:53:36*
%MOMM*%
%LPD*%
G04 APERTURE LIST*
%ADD10C,0.300000*%
%ADD11C,1.700000*%
%ADD12R,1.100000X1.900000*%
%ADD13C,1.800000*%
%ADD14C,2.000000*%
%ADD15R,1.600000X1.600000*%
%ADD16R,1.800000X1.800000*%
%ADD17C,1.600000*%
%ADD18R,3.000000X3.000000*%
%ADD19C,3.000000*%
%ADD20O,1.200000X2.500000*%
%ADD21R,1.200000X2.500000*%
%ADD22O,1.600000X1.600000*%
%ADD23O,2.000000X2.000000*%
%ADD24O,1.800000X1.680000*%
%ADD25R,1.268000X1.700000*%
%ADD26R,1.100000X1.800000*%
%ADD27C,0.800000*%
%ADD28C,0.900000*%
%ADD29C,0.500000*%
%ADD30C,1.000000*%
%ADD31C,0.700000*%
G04 APERTURE END LIST*
D10*
X47661428Y-80688571D02*
X47661428Y-79188571D01*
X48161428Y-80260000D01*
X48661428Y-79188571D01*
X48661428Y-80688571D01*
X49590000Y-80688571D02*
X49447142Y-80617142D01*
X49375714Y-80545714D01*
X49304285Y-80402857D01*
X49304285Y-79974285D01*
X49375714Y-79831428D01*
X49447142Y-79760000D01*
X49590000Y-79688571D01*
X49804285Y-79688571D01*
X49947142Y-79760000D01*
X50018571Y-79831428D01*
X50090000Y-79974285D01*
X50090000Y-80402857D01*
X50018571Y-80545714D01*
X49947142Y-80617142D01*
X49804285Y-80688571D01*
X49590000Y-80688571D01*
X50732857Y-79688571D02*
X50732857Y-80688571D01*
X50732857Y-79831428D02*
X50804285Y-79760000D01*
X50947142Y-79688571D01*
X51161428Y-79688571D01*
X51304285Y-79760000D01*
X51375714Y-79902857D01*
X51375714Y-80688571D01*
X52018571Y-80617142D02*
X52161428Y-80688571D01*
X52447142Y-80688571D01*
X52590000Y-80617142D01*
X52661428Y-80474285D01*
X52661428Y-80402857D01*
X52590000Y-80260000D01*
X52447142Y-80188571D01*
X52232857Y-80188571D01*
X52090000Y-80117142D01*
X52018571Y-79974285D01*
X52018571Y-79902857D01*
X52090000Y-79760000D01*
X52232857Y-79688571D01*
X52447142Y-79688571D01*
X52590000Y-79760000D01*
X53090000Y-79688571D02*
X53661428Y-79688571D01*
X53304285Y-79188571D02*
X53304285Y-80474285D01*
X53375714Y-80617142D01*
X53518571Y-80688571D01*
X53661428Y-80688571D01*
X54732857Y-80617142D02*
X54590000Y-80688571D01*
X54304285Y-80688571D01*
X54161428Y-80617142D01*
X54090000Y-80474285D01*
X54090000Y-79902857D01*
X54161428Y-79760000D01*
X54304285Y-79688571D01*
X54590000Y-79688571D01*
X54732857Y-79760000D01*
X54804285Y-79902857D01*
X54804285Y-80045714D01*
X54090000Y-80188571D01*
X55447142Y-80688571D02*
X55447142Y-79688571D01*
X55447142Y-79974285D02*
X55518571Y-79831428D01*
X55590000Y-79760000D01*
X55732857Y-79688571D01*
X55875714Y-79688571D01*
X56375714Y-80688571D02*
X56375714Y-79188571D01*
X56875714Y-79188571D02*
X57732857Y-79188571D01*
X57304285Y-80688571D02*
X57304285Y-79188571D01*
X59090000Y-80545714D02*
X59018571Y-80617142D01*
X58804285Y-80688571D01*
X58661428Y-80688571D01*
X58447142Y-80617142D01*
X58304285Y-80474285D01*
X58232857Y-80331428D01*
X58161428Y-80045714D01*
X58161428Y-79831428D01*
X58232857Y-79545714D01*
X58304285Y-79402857D01*
X58447142Y-79260000D01*
X58661428Y-79188571D01*
X58804285Y-79188571D01*
X59018571Y-79260000D01*
X59090000Y-79331428D01*
D11*
X67310000Y-90170000D03*
D12*
X72390000Y-91440000D03*
D13*
X64770000Y-97790000D03*
D14*
X64770000Y-106680000D03*
D11*
X62230000Y-101060000D03*
D15*
X62230000Y-99060000D03*
D16*
X55150000Y-87630000D03*
D14*
X57150000Y-87630000D03*
D17*
X69850000Y-100870000D03*
D15*
X69850000Y-102870000D03*
D18*
X53340000Y-100330000D03*
D19*
X53340000Y-95250000D03*
X85090000Y-100330000D03*
D18*
X85090000Y-95250000D03*
D20*
X68580000Y-78740000D03*
X69850000Y-78740000D03*
D21*
X67310000Y-78740000D03*
X73660000Y-78740000D03*
D20*
X76200000Y-78740000D03*
X74930000Y-78740000D03*
D17*
X72390000Y-97790000D03*
D22*
X67310000Y-97790000D03*
D23*
X62230000Y-88900000D03*
D11*
X62230000Y-93980000D03*
D14*
X66040000Y-82550000D03*
D23*
X71120000Y-82550000D03*
D22*
X77470000Y-100330000D03*
D17*
X77470000Y-95250000D03*
D23*
X77470000Y-85090000D03*
D17*
X77470000Y-90170000D03*
X78740000Y-104140000D03*
D24*
X73660000Y-104140000D03*
D14*
X88895001Y-82550000D03*
X88895001Y-87050000D03*
X82395001Y-82550000D03*
X82395001Y-87050000D03*
D11*
X65880000Y-93980000D03*
X65880000Y-91440000D03*
X65880000Y-88900000D03*
D14*
X65880000Y-86360000D03*
D25*
X73820000Y-93980000D03*
D26*
X73820000Y-91440000D03*
D11*
X73820000Y-88900000D03*
D14*
X73820000Y-86360000D03*
D27*
X53340000Y-102330000D02*
X53880000Y-102870000D01*
X53340000Y-100330000D02*
X53340000Y-102330000D01*
D28*
X60420000Y-102870000D02*
X62230000Y-101060000D01*
D27*
X53880000Y-102870000D02*
X60420000Y-102870000D01*
D29*
X62640002Y-101060000D02*
X62230000Y-101060000D01*
D27*
X55340000Y-100330000D02*
X53340000Y-100330000D01*
X57150000Y-98520000D02*
X55340000Y-100330000D01*
X57150000Y-87630000D02*
X57150000Y-98520000D01*
D29*
X62420000Y-100870000D02*
X62230000Y-101060000D01*
D28*
X69850000Y-100870000D02*
X62420000Y-100870000D01*
X78585001Y-78740000D02*
X82395001Y-82550000D01*
X76200000Y-78740000D02*
X78585001Y-78740000D01*
X88895001Y-82550000D02*
X82395001Y-82550000D01*
D29*
X73820000Y-95114000D02*
X73820000Y-93980000D01*
D27*
X73820000Y-98210002D02*
X73820000Y-95114000D01*
D29*
X72990001Y-99040001D02*
X73820000Y-98210002D01*
X72690037Y-99040001D02*
X72990001Y-99040001D01*
X71660037Y-100070001D02*
X72690037Y-99040001D01*
X70649999Y-100070001D02*
X71660037Y-100070001D01*
X69850000Y-100870000D02*
X70649999Y-100070001D01*
D28*
X80010000Y-97100002D02*
X80010000Y-84935001D01*
X78050002Y-99060000D02*
X80010000Y-97100002D01*
X76780002Y-97790000D02*
X78050002Y-99060000D01*
X76200000Y-97790000D02*
X76780002Y-97790000D01*
D29*
X76200000Y-92215678D02*
X76200000Y-97790000D01*
X73820000Y-93980000D02*
X72686000Y-93980000D01*
D28*
X80010000Y-84935001D02*
X82395001Y-82550000D01*
D29*
X72686000Y-93980000D02*
X71120000Y-93980000D01*
X69850000Y-92710000D02*
X69850000Y-91440000D01*
X71120000Y-93980000D02*
X69850000Y-92710000D01*
X69850000Y-91440000D02*
X71120000Y-90170000D01*
X74154322Y-90170000D02*
X76200000Y-92215678D01*
X71120000Y-90170000D02*
X74154322Y-90170000D01*
D30*
X62230000Y-97760000D02*
X59690000Y-95220000D01*
X62230000Y-99060000D02*
X62230000Y-97760000D01*
X59690000Y-91440000D02*
X62230000Y-88900000D01*
X59690000Y-95220000D02*
X59690000Y-91440000D01*
D28*
X71120000Y-99060000D02*
X62230000Y-99060000D01*
D29*
X72390000Y-97790000D02*
X71120000Y-99060000D01*
D27*
X56420000Y-86360000D02*
X55150000Y-87630000D01*
X65880000Y-86360000D02*
X56420000Y-86360000D01*
D28*
X72390000Y-100330000D02*
X69850000Y-102870000D01*
X77470000Y-100330000D02*
X72390000Y-100330000D01*
D27*
X74453999Y-92073999D02*
X73820000Y-91440000D01*
D29*
X74930000Y-92550000D02*
X74453999Y-92073999D01*
D27*
X74930000Y-97790000D02*
X74930000Y-92550000D01*
X77470000Y-100330000D02*
X74930000Y-97790000D01*
D29*
X65880000Y-88900000D02*
X67310000Y-90330000D01*
X73820000Y-91440000D02*
X72390000Y-91440000D01*
D28*
X53340000Y-95250000D02*
X53340000Y-85090000D01*
X53340000Y-85090000D02*
X55880000Y-82550000D01*
X55880000Y-82550000D02*
X66040000Y-82550000D01*
D30*
X67310000Y-81280000D02*
X66040000Y-82550000D01*
X67310000Y-78740000D02*
X67310000Y-81280000D01*
D28*
X53339998Y-104140000D02*
X49530000Y-100330002D01*
X73660000Y-104140000D02*
X53339998Y-104140000D01*
X49530000Y-99060000D02*
X53340000Y-95250000D01*
X49530000Y-100330002D02*
X49530000Y-99060000D01*
X90345002Y-81853999D02*
X86030993Y-77539990D01*
X85090000Y-100330000D02*
X90345002Y-95074998D01*
X90345002Y-95074998D02*
X90345002Y-81853999D01*
D29*
X73660000Y-78437194D02*
X73660000Y-78740000D01*
D28*
X79539999Y-103340001D02*
X78740000Y-104140000D01*
D29*
X79539999Y-102800001D02*
X79539999Y-103340001D01*
D28*
X85090000Y-97250000D02*
X79539999Y-102800001D01*
X85090000Y-95250000D02*
X85090000Y-97250000D01*
X69850000Y-78740000D02*
X71120000Y-78740000D01*
X73820000Y-81440000D02*
X73820000Y-86360000D01*
X71120000Y-78740000D02*
X73820000Y-81440000D01*
D27*
X73820000Y-86360000D02*
X72390000Y-86360000D01*
X72390000Y-86360000D02*
X71120000Y-87630000D01*
X71120000Y-87630000D02*
X71120000Y-88900000D01*
X70960000Y-88900000D02*
X66040000Y-93820000D01*
D29*
X71120000Y-88900000D02*
X70960000Y-88900000D01*
X66040000Y-93820000D02*
X65880000Y-93980000D01*
D28*
X74930000Y-82550000D02*
X77470000Y-85090000D01*
X74930000Y-78740000D02*
X74930000Y-82550000D01*
D27*
X73660000Y-76690000D02*
X73660000Y-78740000D01*
X74150000Y-76200000D02*
X73660000Y-76690000D01*
X82550000Y-76200000D02*
X74150000Y-76200000D01*
X83889990Y-77539990D02*
X82550000Y-76200000D01*
X86030993Y-77539990D02*
X83889990Y-77539990D01*
D28*
X88895001Y-87050000D02*
X82395001Y-87050000D01*
X82395001Y-87050000D02*
X82395001Y-97944999D01*
X82395001Y-97944999D02*
X76200000Y-104140000D01*
X76200000Y-104140000D02*
X73660000Y-106680000D01*
X73660000Y-106680000D02*
X69850000Y-106680000D01*
X69850000Y-106680000D02*
X67310000Y-106680000D01*
X67310000Y-106680000D02*
X64770000Y-106680000D01*
D30*
X67310000Y-97790000D02*
X64770000Y-97790000D01*
D28*
X76200000Y-88900000D02*
X77470000Y-90170000D01*
X73820000Y-88900000D02*
X76200000Y-88900000D01*
X77470000Y-95250000D02*
X77470000Y-90170000D01*
D30*
X68580000Y-80010000D02*
X71120000Y-82550000D01*
D29*
X68580000Y-78740000D02*
X68580000Y-80010000D01*
D30*
X71120000Y-83681370D02*
X67171370Y-87630000D01*
D29*
X71120000Y-82550000D02*
X71120000Y-83681370D01*
X62230000Y-92848630D02*
X62230000Y-93980000D01*
D30*
X62230000Y-90945678D02*
X62230000Y-92848630D01*
D31*
X65545678Y-87630000D02*
X62230000Y-90945678D01*
D29*
X67171370Y-87630000D02*
X65545678Y-87630000D01*
M02*
