G04 #@! TF.GenerationSoftware,KiCad,Pcbnew,(5.1.2)-2*
G04 #@! TF.CreationDate,2019-08-24T11:53:36+07:00*
G04 #@! TF.ProjectId,siren_sound,73697265-6e5f-4736-9f75-6e642e6b6963,rev?*
G04 #@! TF.SameCoordinates,Original*
G04 #@! TF.FileFunction,Copper,L1,Top*
G04 #@! TF.FilePolarity,Positive*
%FSLAX46Y46*%
G04 Gerber Fmt 4.6, Leading zero omitted, Abs format (unit mm)*
G04 Created by KiCad (PCBNEW (5.1.2)-2) date 2019-08-24 11:53:36*
%MOMM*%
%LPD*%
G04 APERTURE LIST*
%ADD10C,1.700000*%
%ADD11R,1.100000X1.900000*%
%ADD12C,1.800000*%
%ADD13C,2.000000*%
%ADD14R,1.600000X1.600000*%
%ADD15R,1.800000X1.800000*%
%ADD16C,1.600000*%
%ADD17R,3.000000X3.000000*%
%ADD18C,3.000000*%
%ADD19O,1.200000X2.500000*%
%ADD20R,1.200000X2.500000*%
%ADD21O,1.600000X1.600000*%
%ADD22O,2.000000X2.000000*%
%ADD23O,1.800000X1.680000*%
%ADD24R,1.268000X1.700000*%
%ADD25R,1.100000X1.800000*%
%ADD26C,0.500000*%
G04 APERTURE END LIST*
D10*
X67310000Y-90170000D03*
D11*
X72390000Y-91440000D03*
D12*
X64770000Y-97790000D03*
D13*
X64770000Y-106680000D03*
D10*
X62230000Y-101060000D03*
D14*
X62230000Y-99060000D03*
D15*
X55150000Y-87630000D03*
D13*
X57150000Y-87630000D03*
D16*
X69850000Y-100870000D03*
D14*
X69850000Y-102870000D03*
D17*
X53340000Y-100330000D03*
D18*
X53340000Y-95250000D03*
X85090000Y-100330000D03*
D17*
X85090000Y-95250000D03*
D19*
X68580000Y-78740000D03*
X69850000Y-78740000D03*
D20*
X67310000Y-78740000D03*
X73660000Y-78740000D03*
D19*
X76200000Y-78740000D03*
X74930000Y-78740000D03*
D16*
X72390000Y-97790000D03*
D21*
X67310000Y-97790000D03*
D22*
X62230000Y-88900000D03*
D10*
X62230000Y-93980000D03*
D13*
X66040000Y-82550000D03*
D22*
X71120000Y-82550000D03*
D21*
X77470000Y-100330000D03*
D16*
X77470000Y-95250000D03*
D22*
X77470000Y-85090000D03*
D16*
X77470000Y-90170000D03*
X78740000Y-104140000D03*
D23*
X73660000Y-104140000D03*
D13*
X88895001Y-82550000D03*
X88895001Y-87050000D03*
X82395001Y-82550000D03*
X82395001Y-87050000D03*
D10*
X65880000Y-93980000D03*
X65880000Y-91440000D03*
X65880000Y-88900000D03*
D13*
X65880000Y-86360000D03*
D24*
X73820000Y-93980000D03*
D25*
X73820000Y-91440000D03*
D10*
X73820000Y-88900000D03*
D13*
X73820000Y-86360000D03*
D26*
X71120000Y-91440000D02*
X67310000Y-91440000D01*
X71120000Y-91440000D02*
X72390000Y-91440000D01*
X67310000Y-91440000D02*
X67310000Y-90170000D01*
X64770000Y-97790000D02*
X64770000Y-106680000D01*
M02*
