  0
SECTION
  2
HEADER
  9
$ANGBASE
  50
0.0
  9
$ANGDIR
  70
1
  9
$MEASUREMENT
  70
0
  0
ENDSEC
  0
SECTION
  2
TABLES
  0
TABLE
  2
LTYPE
  70
4
  0
LTYPE
  5
40F
  2
CONTINUOUS
  70
0
  3
Solid line
  72
65
  73
0
  40
0.0
  0
LTYPE
  5
410
  2
DASHDOT
 70
0
  3
Dash Dot ____ _ ____ _
 72
65
 73
4
 40
2.0
 49
1.25
 49
-0.25
 49
0.25
 49
-0.25
  0
LTYPE
  5
411
  2
DASHED
 70
0
  3
Dashed __ __ __ __ __
 72
65
 73
2
 40
0.75
 49
0.5
 49
-0.25
  0
LTYPE
  5
43B
  2
DOTTED
 70
0
  3
Dotted .  .  .  .
 72
65
 73
2
 40
0.2
 49
0.0
 49
-0.2
  0
ENDTAB
  0
TABLE
  2
STYLE
  70
4
  0
STYLE
  2
KICAD
  70
0
  40
0
  41
1
  42
1
  50
0
  71
0
  3
isocp.shx
  0
STYLE
  2
KICADB
  70
0
  40
0
  41
1
  42
1
  50
0
  71
0
  3
isocp.shx
  0
STYLE
  2
KICADI
  70
0
  40
0
  41
1
  42
1
  50
15
  71
0
  3
isocp.shx
  0
STYLE
  2
KICADBI
  70
0
  40
0
  41
1
  42
1
  50
15
  71
0
  3
isocp.shx
  0
ENDTAB
  0
TABLE
  2
LAYER
  70
1
  0
LAYER
  2
BLACK
  70
0
  62
7
  6
CONTINUOUS
  0
ENDTAB
  0
ENDSEC
  0
SECTION
  2
ENTITIES
0
LINE
8
BLACK
6
CONTINUOUS
10
4.57191
20
-3.54011
11
4.57781
21
-3.54128
0
LINE
8
BLACK
6
CONTINUOUS
10
4.57781
20
-3.54128
11
4.58892
21
-3.54589
0
LINE
8
BLACK
6
CONTINUOUS
10
4.58892
20
-3.54589
11
4.59893
21
-3.55257
0
LINE
8
BLACK
6
CONTINUOUS
10
4.59893
20
-3.55257
11
4.60743
21
-3.56107
0
LINE
8
BLACK
6
CONTINUOUS
10
4.60743
20
-3.56107
11
4.61411
21
-3.57108
0
LINE
8
BLACK
6
CONTINUOUS
10
4.61411
20
-3.57108
11
4.61872
21
-3.58219
0
LINE
8
BLACK
6
CONTINUOUS
10
4.61872
20
-3.58219
11
4.62106
21
-3.59399
0
LINE
8
BLACK
6
CONTINUOUS
10
4.62106
20
-3.59399
11
4.62106
21
-3.60601
0
LINE
8
BLACK
6
CONTINUOUS
10
4.62106
20
-3.60601
11
4.61872
21
-3.61781
0
LINE
8
BLACK
6
CONTINUOUS
10
4.61872
20
-3.61781
11
4.61411
21
-3.62892
0
LINE
8
BLACK
6
CONTINUOUS
10
4.61411
20
-3.62892
11
4.60743
21
-3.63893
0
LINE
8
BLACK
6
CONTINUOUS
10
4.60743
20
-3.63893
11
4.59893
21
-3.64743
0
LINE
8
BLACK
6
CONTINUOUS
10
4.59893
20
-3.64743
11
4.58892
21
-3.65411
0
LINE
8
BLACK
6
CONTINUOUS
10
4.58892
20
-3.65411
11
4.57781
21
-3.65872
0
LINE
8
BLACK
6
CONTINUOUS
10
4.57781
20
-3.65872
11
4.57191
21
-3.65989
0
LINE
8
BLACK
6
CONTINUOUS
10
4.57191
20
-3.65989
11
4.56601
21
-3.66106
0
LINE
8
BLACK
6
CONTINUOUS
10
4.56601
20
-3.66106
11
4.55399
21
-3.66106
0
LINE
8
BLACK
6
CONTINUOUS
10
4.55399
20
-3.66106
11
4.54809
21
-3.65989
0
LINE
8
BLACK
6
CONTINUOUS
10
4.54809
20
-3.65989
11
4.54219
21
-3.65872
0
LINE
8
BLACK
6
CONTINUOUS
10
4.54219
20
-3.65872
11
4.53108
21
-3.65411
0
LINE
8
BLACK
6
CONTINUOUS
10
4.53108
20
-3.65411
11
4.52107
21
-3.64743
0
LINE
8
BLACK
6
CONTINUOUS
10
4.52107
20
-3.64743
11
4.51257
21
-3.63893
0
LINE
8
BLACK
6
CONTINUOUS
10
4.51257
20
-3.63893
11
4.50589
21
-3.62892
0
LINE
8
BLACK
6
CONTINUOUS
10
4.50589
20
-3.62892
11
4.50128
21
-3.61781
0
LINE
8
BLACK
6
CONTINUOUS
10
4.50128
20
-3.61781
11
4.49894
21
-3.60601
0
LINE
8
BLACK
6
CONTINUOUS
10
4.49894
20
-3.60601
11
4.49894
21
-3.59399
0
LINE
8
BLACK
6
CONTINUOUS
10
4.49894
20
-3.59399
11
4.50128
21
-3.58219
0
LINE
8
BLACK
6
CONTINUOUS
10
4.50128
20
-3.58219
11
4.50589
21
-3.57108
0
LINE
8
BLACK
6
CONTINUOUS
10
4.50589
20
-3.57108
11
4.51257
21
-3.56107
0
LINE
8
BLACK
6
CONTINUOUS
10
4.51257
20
-3.56107
11
4.52107
21
-3.55257
0
LINE
8
BLACK
6
CONTINUOUS
10
4.52107
20
-3.55257
11
4.53108
21
-3.54589
0
LINE
8
BLACK
6
CONTINUOUS
10
4.53108
20
-3.54589
11
4.54219
21
-3.54128
0
LINE
8
BLACK
6
CONTINUOUS
10
4.54219
20
-3.54128
11
4.54809
21
-3.54011
0
LINE
8
BLACK
6
CONTINUOUS
10
4.54809
20
-3.54011
11
4.55399
21
-3.53894
0
LINE
8
BLACK
6
CONTINUOUS
10
4.55399
20
-3.53894
11
4.56601
21
-3.53894
0
LINE
8
BLACK
6
CONTINUOUS
10
4.56601
20
-3.53894
11
4.57191
21
-3.54011
0
LINE
8
BLACK
6
CONTINUOUS
10
4.05191
20
-3.38011
11
4.05781
21
-3.38128
0
LINE
8
BLACK
6
CONTINUOUS
10
4.05781
20
-3.38128
11
4.06892
21
-3.38589
0
LINE
8
BLACK
6
CONTINUOUS
10
4.06892
20
-3.38589
11
4.07893
21
-3.39257
0
LINE
8
BLACK
6
CONTINUOUS
10
4.07893
20
-3.39257
11
4.08743
21
-3.40107
0
LINE
8
BLACK
6
CONTINUOUS
10
4.08743
20
-3.40107
11
4.09411
21
-3.41108
0
LINE
8
BLACK
6
CONTINUOUS
10
4.09411
20
-3.41108
11
4.09872
21
-3.42219
0
LINE
8
BLACK
6
CONTINUOUS
10
4.09872
20
-3.42219
11
4.10106
21
-3.43399
0
LINE
8
BLACK
6
CONTINUOUS
10
4.10106
20
-3.43399
11
4.10106
21
-3.44601
0
LINE
8
BLACK
6
CONTINUOUS
10
4.10106
20
-3.44601
11
4.09872
21
-3.45781
0
LINE
8
BLACK
6
CONTINUOUS
10
4.09872
20
-3.45781
11
4.09411
21
-3.46892
0
LINE
8
BLACK
6
CONTINUOUS
10
4.09411
20
-3.46892
11
4.08743
21
-3.47893
0
LINE
8
BLACK
6
CONTINUOUS
10
4.08743
20
-3.47893
11
4.07893
21
-3.48743
0
LINE
8
BLACK
6
CONTINUOUS
10
4.07893
20
-3.48743
11
4.06892
21
-3.49411
0
LINE
8
BLACK
6
CONTINUOUS
10
4.06892
20
-3.49411
11
4.05781
21
-3.49872
0
LINE
8
BLACK
6
CONTINUOUS
10
4.05781
20
-3.49872
11
4.05191
21
-3.49989
0
LINE
8
BLACK
6
CONTINUOUS
10
4.05191
20
-3.49989
11
4.04601
21
-3.50106
0
LINE
8
BLACK
6
CONTINUOUS
10
4.04601
20
-3.50106
11
4.03399
21
-3.50106
0
LINE
8
BLACK
6
CONTINUOUS
10
4.03399
20
-3.50106
11
4.02809
21
-3.49989
0
LINE
8
BLACK
6
CONTINUOUS
10
4.02809
20
-3.49989
11
4.02219
21
-3.49872
0
LINE
8
BLACK
6
CONTINUOUS
10
4.02219
20
-3.49872
11
4.01108
21
-3.49411
0
LINE
8
BLACK
6
CONTINUOUS
10
4.01108
20
-3.49411
11
4.00107
21
-3.48743
0
LINE
8
BLACK
6
CONTINUOUS
10
4.00107
20
-3.48743
11
3.99257
21
-3.47893
0
LINE
8
BLACK
6
CONTINUOUS
10
3.99257
20
-3.47893
11
3.98589
21
-3.46892
0
LINE
8
BLACK
6
CONTINUOUS
10
3.98589
20
-3.46892
11
3.98128
21
-3.45781
0
LINE
8
BLACK
6
CONTINUOUS
10
3.98128
20
-3.45781
11
3.97894
21
-3.44601
0
LINE
8
BLACK
6
CONTINUOUS
10
3.97894
20
-3.44601
11
3.97894
21
-3.43399
0
LINE
8
BLACK
6
CONTINUOUS
10
3.97894
20
-3.43399
11
3.98128
21
-3.42219
0
LINE
8
BLACK
6
CONTINUOUS
10
3.98128
20
-3.42219
11
3.98589
21
-3.41108
0
LINE
8
BLACK
6
CONTINUOUS
10
3.98589
20
-3.41108
11
3.99257
21
-3.40107
0
LINE
8
BLACK
6
CONTINUOUS
10
3.99257
20
-3.40107
11
4.00107
21
-3.39257
0
LINE
8
BLACK
6
CONTINUOUS
10
4.00107
20
-3.39257
11
4.01108
21
-3.38589
0
LINE
8
BLACK
6
CONTINUOUS
10
4.01108
20
-3.38589
11
4.02219
21
-3.38128
0
LINE
8
BLACK
6
CONTINUOUS
10
4.02219
20
-3.38128
11
4.02809
21
-3.38011
0
LINE
8
BLACK
6
CONTINUOUS
10
4.02809
20
-3.38011
11
4.03399
21
-3.37894
0
LINE
8
BLACK
6
CONTINUOUS
10
4.03399
20
-3.37894
11
4.04601
21
-3.37894
0
LINE
8
BLACK
6
CONTINUOUS
10
4.04601
20
-3.37894
11
4.05191
21
-3.38011
0
LINE
8
BLACK
6
CONTINUOUS
10
3.90106
20
-3.50106
11
3.77894
21
-3.50106
0
LINE
8
BLACK
6
CONTINUOUS
10
3.77894
20
-3.50106
11
3.77894
21
-3.37894
0
LINE
8
BLACK
6
CONTINUOUS
10
3.77894
20
-3.37894
11
3.90106
21
-3.37894
0
LINE
8
BLACK
6
CONTINUOUS
10
3.90106
20
-3.37894
11
3.90106
21
-3.50106
0
LINE
8
BLACK
6
CONTINUOUS
10
4.32138
20
-3.48138
11
4.23862
21
-3.48138
0
LINE
8
BLACK
6
CONTINUOUS
10
4.23862
20
-3.48138
11
4.23862
21
-3.39862
0
LINE
8
BLACK
6
CONTINUOUS
10
4.23862
20
-3.39862
11
4.32138
21
-3.39862
0
LINE
8
BLACK
6
CONTINUOUS
10
4.32138
20
-3.39862
11
4.32138
21
-3.48138
0
LINE
8
BLACK
6
CONTINUOUS
10
4.62106
20
-3.46106
11
4.49894
21
-3.46106
0
LINE
8
BLACK
6
CONTINUOUS
10
4.49894
20
-3.46106
11
4.49894
21
-3.33894
0
LINE
8
BLACK
6
CONTINUOUS
10
4.49894
20
-3.33894
11
4.62106
21
-3.33894
0
LINE
8
BLACK
6
CONTINUOUS
10
4.62106
20
-3.33894
11
4.62106
21
-3.46106
0
LINE
8
BLACK
6
CONTINUOUS
10
3.56106
20
-3.38106
11
3.43894
21
-3.38106
0
LINE
8
BLACK
6
CONTINUOUS
10
3.43894
20
-3.38106
11
3.43894
21
-3.25894
0
LINE
8
BLACK
6
CONTINUOUS
10
3.43894
20
-3.25894
11
3.56106
21
-3.25894
0
LINE
8
BLACK
6
CONTINUOUS
10
3.56106
20
-3.25894
11
3.56106
21
-3.38106
0
LINE
8
BLACK
6
CONTINUOUS
10
4.04623
20
-3.23285
11
4.05087
21
-3.23378
0
LINE
8
BLACK
6
CONTINUOUS
10
4.05087
20
-3.23378
11
4.0545
21
-3.23528
0
LINE
8
BLACK
6
CONTINUOUS
10
4.0545
20
-3.23528
11
4.05962
21
-3.2374
0
LINE
8
BLACK
6
CONTINUOUS
10
4.05962
20
-3.2374
11
4.06749
21
-3.24266
0
LINE
8
BLACK
6
CONTINUOUS
10
4.06749
20
-3.24266
11
4.07419
21
-3.24936
0
LINE
8
BLACK
6
CONTINUOUS
10
4.07419
20
-3.24936
11
4.07945
21
-3.25723
0
LINE
8
BLACK
6
CONTINUOUS
10
4.07945
20
-3.25723
11
4.08307
21
-3.26598
0
LINE
8
BLACK
6
CONTINUOUS
10
4.08307
20
-3.26598
11
4.08492
21
-3.27527
0
LINE
8
BLACK
6
CONTINUOUS
10
4.08492
20
-3.27527
11
4.08492
21
-3.28473
0
LINE
8
BLACK
6
CONTINUOUS
10
4.08492
20
-3.28473
11
4.08307
21
-3.29402
0
LINE
8
BLACK
6
CONTINUOUS
10
4.08307
20
-3.29402
11
4.07945
21
-3.30277
0
LINE
8
BLACK
6
CONTINUOUS
10
4.07945
20
-3.30277
11
4.07419
21
-3.31064
0
LINE
8
BLACK
6
CONTINUOUS
10
4.07419
20
-3.31064
11
4.06749
21
-3.31734
0
LINE
8
BLACK
6
CONTINUOUS
10
4.06749
20
-3.31734
11
4.05962
21
-3.3226
0
LINE
8
BLACK
6
CONTINUOUS
10
4.05962
20
-3.3226
11
4.0545
21
-3.32472
0
LINE
8
BLACK
6
CONTINUOUS
10
4.0545
20
-3.32472
11
4.05087
21
-3.32622
0
LINE
8
BLACK
6
CONTINUOUS
10
4.05087
20
-3.32622
11
4.04623
21
-3.32715
0
LINE
8
BLACK
6
CONTINUOUS
10
4.04623
20
-3.32715
11
4.04158
21
-3.32807
0
LINE
8
BLACK
6
CONTINUOUS
10
4.04158
20
-3.32807
11
4.03212
21
-3.32807
0
LINE
8
BLACK
6
CONTINUOUS
10
4.03212
20
-3.32807
11
4.02747
21
-3.32715
0
LINE
8
BLACK
6
CONTINUOUS
10
4.02747
20
-3.32715
11
4.02283
21
-3.32622
0
LINE
8
BLACK
6
CONTINUOUS
10
4.02283
20
-3.32622
11
4.0192
21
-3.32472
0
LINE
8
BLACK
6
CONTINUOUS
10
4.0192
20
-3.32472
11
4.01408
21
-3.3226
0
LINE
8
BLACK
6
CONTINUOUS
10
4.01408
20
-3.3226
11
4.00621
21
-3.31734
0
LINE
8
BLACK
6
CONTINUOUS
10
4.00621
20
-3.31734
11
3.99951
21
-3.31064
0
LINE
8
BLACK
6
CONTINUOUS
10
3.99951
20
-3.31064
11
3.99425
21
-3.30277
0
LINE
8
BLACK
6
CONTINUOUS
10
3.99425
20
-3.30277
11
3.99063
21
-3.29402
0
LINE
8
BLACK
6
CONTINUOUS
10
3.99063
20
-3.29402
11
3.98878
21
-3.28473
0
LINE
8
BLACK
6
CONTINUOUS
10
3.98878
20
-3.28473
11
3.98878
21
-3.27527
0
LINE
8
BLACK
6
CONTINUOUS
10
3.98878
20
-3.27527
11
3.99063
21
-3.26598
0
LINE
8
BLACK
6
CONTINUOUS
10
3.99063
20
-3.26598
11
3.99425
21
-3.25723
0
LINE
8
BLACK
6
CONTINUOUS
10
3.99425
20
-3.25723
11
3.99951
21
-3.24936
0
LINE
8
BLACK
6
CONTINUOUS
10
3.99951
20
-3.24936
11
4.00621
21
-3.24266
0
LINE
8
BLACK
6
CONTINUOUS
10
4.00621
20
-3.24266
11
4.01408
21
-3.2374
0
LINE
8
BLACK
6
CONTINUOUS
10
4.01408
20
-3.2374
11
4.0192
21
-3.23528
0
LINE
8
BLACK
6
CONTINUOUS
10
4.0192
20
-3.23528
11
4.02283
21
-3.23378
0
LINE
8
BLACK
6
CONTINUOUS
10
4.02283
20
-3.23378
11
4.02747
21
-3.23285
0
LINE
8
BLACK
6
CONTINUOUS
10
4.02747
20
-3.23285
11
4.03212
21
-3.23193
0
LINE
8
BLACK
6
CONTINUOUS
10
4.03212
20
-3.23193
11
4.04158
21
-3.23193
0
LINE
8
BLACK
6
CONTINUOUS
10
4.04158
20
-3.23193
11
4.04623
21
-3.23285
0
LINE
8
BLACK
6
CONTINUOUS
10
3.84938
20
-3.23285
11
3.85402
21
-3.23378
0
LINE
8
BLACK
6
CONTINUOUS
10
3.85402
20
-3.23378
11
3.85765
21
-3.23528
0
LINE
8
BLACK
6
CONTINUOUS
10
3.85765
20
-3.23528
11
3.86277
21
-3.2374
0
LINE
8
BLACK
6
CONTINUOUS
10
3.86277
20
-3.2374
11
3.87064
21
-3.24266
0
LINE
8
BLACK
6
CONTINUOUS
10
3.87064
20
-3.24266
11
3.87734
21
-3.24936
0
LINE
8
BLACK
6
CONTINUOUS
10
3.87734
20
-3.24936
11
3.8826
21
-3.25723
0
LINE
8
BLACK
6
CONTINUOUS
10
3.8826
20
-3.25723
11
3.88622
21
-3.26598
0
LINE
8
BLACK
6
CONTINUOUS
10
3.88622
20
-3.26598
11
3.88807
21
-3.27527
0
LINE
8
BLACK
6
CONTINUOUS
10
3.88807
20
-3.27527
11
3.88807
21
-3.28473
0
LINE
8
BLACK
6
CONTINUOUS
10
3.88807
20
-3.28473
11
3.88622
21
-3.29402
0
LINE
8
BLACK
6
CONTINUOUS
10
3.88622
20
-3.29402
11
3.8826
21
-3.30277
0
LINE
8
BLACK
6
CONTINUOUS
10
3.8826
20
-3.30277
11
3.87734
21
-3.31064
0
LINE
8
BLACK
6
CONTINUOUS
10
3.87734
20
-3.31064
11
3.87064
21
-3.31734
0
LINE
8
BLACK
6
CONTINUOUS
10
3.87064
20
-3.31734
11
3.86277
21
-3.3226
0
LINE
8
BLACK
6
CONTINUOUS
10
3.86277
20
-3.3226
11
3.85765
21
-3.32472
0
LINE
8
BLACK
6
CONTINUOUS
10
3.85765
20
-3.32472
11
3.85402
21
-3.32622
0
LINE
8
BLACK
6
CONTINUOUS
10
3.85402
20
-3.32622
11
3.84938
21
-3.32715
0
LINE
8
BLACK
6
CONTINUOUS
10
3.84938
20
-3.32715
11
3.84473
21
-3.32807
0
LINE
8
BLACK
6
CONTINUOUS
10
3.84473
20
-3.32807
11
3.83527
21
-3.32807
0
LINE
8
BLACK
6
CONTINUOUS
10
3.83527
20
-3.32807
11
3.83062
21
-3.32715
0
LINE
8
BLACK
6
CONTINUOUS
10
3.83062
20
-3.32715
11
3.82598
21
-3.32622
0
LINE
8
BLACK
6
CONTINUOUS
10
3.82598
20
-3.32622
11
3.82235
21
-3.32472
0
LINE
8
BLACK
6
CONTINUOUS
10
3.82235
20
-3.32472
11
3.81723
21
-3.3226
0
LINE
8
BLACK
6
CONTINUOUS
10
3.81723
20
-3.3226
11
3.80936
21
-3.31734
0
LINE
8
BLACK
6
CONTINUOUS
10
3.80936
20
-3.31734
11
3.80266
21
-3.31064
0
LINE
8
BLACK
6
CONTINUOUS
10
3.80266
20
-3.31064
11
3.7974
21
-3.30277
0
LINE
8
BLACK
6
CONTINUOUS
10
3.7974
20
-3.30277
11
3.79378
21
-3.29402
0
LINE
8
BLACK
6
CONTINUOUS
10
3.79378
20
-3.29402
11
3.79193
21
-3.28473
0
LINE
8
BLACK
6
CONTINUOUS
10
3.79193
20
-3.28473
11
3.79193
21
-3.27527
0
LINE
8
BLACK
6
CONTINUOUS
10
3.79193
20
-3.27527
11
3.79378
21
-3.26598
0
LINE
8
BLACK
6
CONTINUOUS
10
3.79378
20
-3.26598
11
3.7974
21
-3.25723
0
LINE
8
BLACK
6
CONTINUOUS
10
3.7974
20
-3.25723
11
3.80266
21
-3.24936
0
LINE
8
BLACK
6
CONTINUOUS
10
3.80266
20
-3.24936
11
3.80936
21
-3.24266
0
LINE
8
BLACK
6
CONTINUOUS
10
3.80936
20
-3.24266
11
3.81723
21
-3.2374
0
LINE
8
BLACK
6
CONTINUOUS
10
3.81723
20
-3.2374
11
3.82235
21
-3.23528
0
LINE
8
BLACK
6
CONTINUOUS
10
3.82235
20
-3.23528
11
3.82598
21
-3.23378
0
LINE
8
BLACK
6
CONTINUOUS
10
3.82598
20
-3.23378
11
3.83062
21
-3.23285
0
LINE
8
BLACK
6
CONTINUOUS
10
3.83062
20
-3.23285
11
3.83527
21
-3.23193
0
LINE
8
BLACK
6
CONTINUOUS
10
3.83527
20
-3.23193
11
3.84473
21
-3.23193
0
LINE
8
BLACK
6
CONTINUOUS
10
3.84473
20
-3.23193
11
3.84938
21
-3.23285
0
LINE
8
BLACK
6
CONTINUOUS
10
4.29207
20
-3.20336
11
4.2996
21
-3.20648
0
LINE
8
BLACK
6
CONTINUOUS
10
4.2996
20
-3.20648
11
4.2996
21
-3.20648
0
LINE
8
BLACK
6
CONTINUOUS
10
4.2996
20
-3.20648
11
4.30638
21
-3.21101
0
LINE
8
BLACK
6
CONTINUOUS
10
4.30638
20
-3.21101
11
4.31214
21
-3.21677
0
LINE
8
BLACK
6
CONTINUOUS
10
4.31214
20
-3.21677
11
4.31667
21
-3.22355
0
LINE
8
BLACK
6
CONTINUOUS
10
4.31667
20
-3.22355
11
4.31979
21
-3.23108
0
LINE
8
BLACK
6
CONTINUOUS
10
4.31979
20
-3.23108
11
4.32138
21
-3.23907
0
LINE
8
BLACK
6
CONTINUOUS
10
4.32138
20
-3.23907
11
4.32138
21
-3.24723
0
LINE
8
BLACK
6
CONTINUOUS
10
4.32138
20
-3.24723
11
4.31979
21
-3.25522
0
LINE
8
BLACK
6
CONTINUOUS
10
4.31979
20
-3.25522
11
4.31895
21
-3.25723
0
LINE
8
BLACK
6
CONTINUOUS
10
4.31895
20
-3.25723
11
4.31667
21
-3.26275
0
LINE
8
BLACK
6
CONTINUOUS
10
4.31667
20
-3.26275
11
4.31214
21
-3.26953
0
LINE
8
BLACK
6
CONTINUOUS
10
4.31214
20
-3.26953
11
4.30638
21
-3.27529
0
LINE
8
BLACK
6
CONTINUOUS
10
4.30638
20
-3.27529
11
4.2996
21
-3.27982
0
LINE
8
BLACK
6
CONTINUOUS
10
4.2996
20
-3.27982
11
4.2996
21
-3.27982
0
LINE
8
BLACK
6
CONTINUOUS
10
4.2996
20
-3.27982
11
4.2996
21
-3.27982
0
LINE
8
BLACK
6
CONTINUOUS
10
4.2996
20
-3.27982
11
4.29207
21
-3.28294
0
LINE
8
BLACK
6
CONTINUOUS
10
4.29207
20
-3.28294
11
4.28408
21
-3.28453
0
LINE
8
BLACK
6
CONTINUOUS
10
4.28408
20
-3.28453
11
4.27592
21
-3.28453
0
LINE
8
BLACK
6
CONTINUOUS
10
4.27592
20
-3.28453
11
4.26793
21
-3.28294
0
LINE
8
BLACK
6
CONTINUOUS
10
4.26793
20
-3.28294
11
4.2604
21
-3.27982
0
LINE
8
BLACK
6
CONTINUOUS
10
4.2604
20
-3.27982
11
4.2604
21
-3.27982
0
LINE
8
BLACK
6
CONTINUOUS
10
4.2604
20
-3.27982
11
4.2604
21
-3.27982
0
LINE
8
BLACK
6
CONTINUOUS
10
4.2604
20
-3.27982
11
4.25362
21
-3.27529
0
LINE
8
BLACK
6
CONTINUOUS
10
4.25362
20
-3.27529
11
4.24786
21
-3.26953
0
LINE
8
BLACK
6
CONTINUOUS
10
4.24786
20
-3.26953
11
4.24333
21
-3.26275
0
LINE
8
BLACK
6
CONTINUOUS
10
4.24333
20
-3.26275
11
4.24105
21
-3.25723
0
LINE
8
BLACK
6
CONTINUOUS
10
4.24105
20
-3.25723
11
4.24021
21
-3.25522
0
LINE
8
BLACK
6
CONTINUOUS
10
4.24021
20
-3.25522
11
4.23862
21
-3.24723
0
LINE
8
BLACK
6
CONTINUOUS
10
4.23862
20
-3.24723
11
4.23862
21
-3.23907
0
LINE
8
BLACK
6
CONTINUOUS
10
4.23862
20
-3.23907
11
4.24021
21
-3.23108
0
LINE
8
BLACK
6
CONTINUOUS
10
4.24021
20
-3.23108
11
4.24333
21
-3.22355
0
LINE
8
BLACK
6
CONTINUOUS
10
4.24333
20
-3.22355
11
4.24786
21
-3.21677
0
LINE
8
BLACK
6
CONTINUOUS
10
4.24786
20
-3.21677
11
4.25362
21
-3.21101
0
LINE
8
BLACK
6
CONTINUOUS
10
4.25362
20
-3.21101
11
4.2604
21
-3.20648
0
LINE
8
BLACK
6
CONTINUOUS
10
4.2604
20
-3.20648
11
4.2604
21
-3.20648
0
LINE
8
BLACK
6
CONTINUOUS
10
4.2604
20
-3.20648
11
4.26793
21
-3.20336
0
LINE
8
BLACK
6
CONTINUOUS
10
4.26793
20
-3.20336
11
4.27592
21
-3.20177
0
LINE
8
BLACK
6
CONTINUOUS
10
4.27592
20
-3.20177
11
4.28408
21
-3.20177
0
LINE
8
BLACK
6
CONTINUOUS
10
4.28408
20
-3.20177
11
4.29207
21
-3.20336
0
LINE
8
BLACK
6
CONTINUOUS
10
3.51191
20
-3.06011
11
3.51781
21
-3.06128
0
LINE
8
BLACK
6
CONTINUOUS
10
3.51781
20
-3.06128
11
3.52892
21
-3.06589
0
LINE
8
BLACK
6
CONTINUOUS
10
3.52892
20
-3.06589
11
3.53893
21
-3.07257
0
LINE
8
BLACK
6
CONTINUOUS
10
3.53893
20
-3.07257
11
3.54743
21
-3.08107
0
LINE
8
BLACK
6
CONTINUOUS
10
3.54743
20
-3.08107
11
3.55411
21
-3.09108
0
LINE
8
BLACK
6
CONTINUOUS
10
3.55411
20
-3.09108
11
3.55872
21
-3.10219
0
LINE
8
BLACK
6
CONTINUOUS
10
3.55872
20
-3.10219
11
3.56106
21
-3.11399
0
LINE
8
BLACK
6
CONTINUOUS
10
3.56106
20
-3.11399
11
3.56106
21
-3.12601
0
LINE
8
BLACK
6
CONTINUOUS
10
3.56106
20
-3.12601
11
3.55872
21
-3.13781
0
LINE
8
BLACK
6
CONTINUOUS
10
3.55872
20
-3.13781
11
3.55411
21
-3.14892
0
LINE
8
BLACK
6
CONTINUOUS
10
3.55411
20
-3.14892
11
3.54743
21
-3.15893
0
LINE
8
BLACK
6
CONTINUOUS
10
3.54743
20
-3.15893
11
3.53893
21
-3.16743
0
LINE
8
BLACK
6
CONTINUOUS
10
3.53893
20
-3.16743
11
3.52892
21
-3.17411
0
LINE
8
BLACK
6
CONTINUOUS
10
3.52892
20
-3.17411
11
3.51781
21
-3.17872
0
LINE
8
BLACK
6
CONTINUOUS
10
3.51781
20
-3.17872
11
3.51191
21
-3.17989
0
LINE
8
BLACK
6
CONTINUOUS
10
3.51191
20
-3.17989
11
3.50601
21
-3.18106
0
LINE
8
BLACK
6
CONTINUOUS
10
3.50601
20
-3.18106
11
3.49399
21
-3.18106
0
LINE
8
BLACK
6
CONTINUOUS
10
3.49399
20
-3.18106
11
3.48809
21
-3.17989
0
LINE
8
BLACK
6
CONTINUOUS
10
3.48809
20
-3.17989
11
3.48219
21
-3.17872
0
LINE
8
BLACK
6
CONTINUOUS
10
3.48219
20
-3.17872
11
3.47108
21
-3.17411
0
LINE
8
BLACK
6
CONTINUOUS
10
3.47108
20
-3.17411
11
3.46107
21
-3.16743
0
LINE
8
BLACK
6
CONTINUOUS
10
3.46107
20
-3.16743
11
3.45257
21
-3.15893
0
LINE
8
BLACK
6
CONTINUOUS
10
3.45257
20
-3.15893
11
3.44589
21
-3.14892
0
LINE
8
BLACK
6
CONTINUOUS
10
3.44589
20
-3.14892
11
3.44128
21
-3.13781
0
LINE
8
BLACK
6
CONTINUOUS
10
3.44128
20
-3.13781
11
3.43894
21
-3.12601
0
LINE
8
BLACK
6
CONTINUOUS
10
3.43894
20
-3.12601
11
3.43894
21
-3.11399
0
LINE
8
BLACK
6
CONTINUOUS
10
3.43894
20
-3.11399
11
3.44128
21
-3.10219
0
LINE
8
BLACK
6
CONTINUOUS
10
3.44128
20
-3.10219
11
3.44589
21
-3.09108
0
LINE
8
BLACK
6
CONTINUOUS
10
3.44589
20
-3.09108
11
3.45257
21
-3.08107
0
LINE
8
BLACK
6
CONTINUOUS
10
3.45257
20
-3.08107
11
3.46107
21
-3.07257
0
LINE
8
BLACK
6
CONTINUOUS
10
3.46107
20
-3.07257
11
3.47108
21
-3.06589
0
LINE
8
BLACK
6
CONTINUOUS
10
3.47108
20
-3.06589
11
3.48219
21
-3.06128
0
LINE
8
BLACK
6
CONTINUOUS
10
3.48219
20
-3.06128
11
3.48809
21
-3.06011
0
LINE
8
BLACK
6
CONTINUOUS
10
3.48809
20
-3.06011
11
3.49399
21
-3.05894
0
LINE
8
BLACK
6
CONTINUOUS
10
3.49399
20
-3.05894
11
3.50601
21
-3.05894
0
LINE
8
BLACK
6
CONTINUOUS
10
3.50601
20
-3.05894
11
3.51191
21
-3.06011
0
LINE
8
BLACK
6
CONTINUOUS
10
4.57191
20
-3.06011
11
4.57781
21
-3.06128
0
LINE
8
BLACK
6
CONTINUOUS
10
4.57781
20
-3.06128
11
4.58892
21
-3.06589
0
LINE
8
BLACK
6
CONTINUOUS
10
4.58892
20
-3.06589
11
4.59893
21
-3.07257
0
LINE
8
BLACK
6
CONTINUOUS
10
4.59893
20
-3.07257
11
4.60743
21
-3.08107
0
LINE
8
BLACK
6
CONTINUOUS
10
4.60743
20
-3.08107
11
4.61411
21
-3.09108
0
LINE
8
BLACK
6
CONTINUOUS
10
4.61411
20
-3.09108
11
4.61872
21
-3.10219
0
LINE
8
BLACK
6
CONTINUOUS
10
4.61872
20
-3.10219
11
4.62106
21
-3.11399
0
LINE
8
BLACK
6
CONTINUOUS
10
4.62106
20
-3.11399
11
4.62106
21
-3.12601
0
LINE
8
BLACK
6
CONTINUOUS
10
4.62106
20
-3.12601
11
4.61872
21
-3.13781
0
LINE
8
BLACK
6
CONTINUOUS
10
4.61872
20
-3.13781
11
4.61411
21
-3.14892
0
LINE
8
BLACK
6
CONTINUOUS
10
4.61411
20
-3.14892
11
4.60743
21
-3.15893
0
LINE
8
BLACK
6
CONTINUOUS
10
4.60743
20
-3.15893
11
4.59893
21
-3.16743
0
LINE
8
BLACK
6
CONTINUOUS
10
4.59893
20
-3.16743
11
4.58892
21
-3.17411
0
LINE
8
BLACK
6
CONTINUOUS
10
4.58892
20
-3.17411
11
4.57781
21
-3.17872
0
LINE
8
BLACK
6
CONTINUOUS
10
4.57781
20
-3.17872
11
4.57191
21
-3.17989
0
LINE
8
BLACK
6
CONTINUOUS
10
4.57191
20
-3.17989
11
4.56601
21
-3.18106
0
LINE
8
BLACK
6
CONTINUOUS
10
4.56601
20
-3.18106
11
4.55399
21
-3.18106
0
LINE
8
BLACK
6
CONTINUOUS
10
4.55399
20
-3.18106
11
4.54809
21
-3.17989
0
LINE
8
BLACK
6
CONTINUOUS
10
4.54809
20
-3.17989
11
4.54219
21
-3.17872
0
LINE
8
BLACK
6
CONTINUOUS
10
4.54219
20
-3.17872
11
4.53108
21
-3.17411
0
LINE
8
BLACK
6
CONTINUOUS
10
4.53108
20
-3.17411
11
4.52107
21
-3.16743
0
LINE
8
BLACK
6
CONTINUOUS
10
4.52107
20
-3.16743
11
4.51257
21
-3.15893
0
LINE
8
BLACK
6
CONTINUOUS
10
4.51257
20
-3.15893
11
4.50589
21
-3.14892
0
LINE
8
BLACK
6
CONTINUOUS
10
4.50589
20
-3.14892
11
4.50128
21
-3.13781
0
LINE
8
BLACK
6
CONTINUOUS
10
4.50128
20
-3.13781
11
4.49894
21
-3.12601
0
LINE
8
BLACK
6
CONTINUOUS
10
4.49894
20
-3.12601
11
4.49894
21
-3.11399
0
LINE
8
BLACK
6
CONTINUOUS
10
4.49894
20
-3.11399
11
4.50128
21
-3.10219
0
LINE
8
BLACK
6
CONTINUOUS
10
4.50128
20
-3.10219
11
4.50589
21
-3.09108
0
LINE
8
BLACK
6
CONTINUOUS
10
4.50589
20
-3.09108
11
4.51257
21
-3.08107
0
LINE
8
BLACK
6
CONTINUOUS
10
4.51257
20
-3.08107
11
4.52107
21
-3.07257
0
LINE
8
BLACK
6
CONTINUOUS
10
4.52107
20
-3.07257
11
4.53108
21
-3.06589
0
LINE
8
BLACK
6
CONTINUOUS
10
4.53108
20
-3.06589
11
4.54219
21
-3.06128
0
LINE
8
BLACK
6
CONTINUOUS
10
4.54219
20
-3.06128
11
4.54809
21
-3.06011
0
LINE
8
BLACK
6
CONTINUOUS
10
4.54809
20
-3.06011
11
4.55399
21
-3.05894
0
LINE
8
BLACK
6
CONTINUOUS
10
4.55399
20
-3.05894
11
4.56601
21
-3.05894
0
LINE
8
BLACK
6
CONTINUOUS
10
4.56601
20
-3.05894
11
4.57191
21
-3.06011
0
LINE
8
BLACK
6
CONTINUOUS
10
3.95245
20
-3.03693
11
3.95607
21
-3.03843
0
LINE
8
BLACK
6
CONTINUOUS
10
3.95607
20
-3.03843
11
3.9612
21
-3.04055
0
LINE
8
BLACK
6
CONTINUOUS
10
3.9612
20
-3.04055
11
3.96907
21
-3.04581
0
LINE
8
BLACK
6
CONTINUOUS
10
3.96907
20
-3.04581
11
3.97576
21
-3.05251
0
LINE
8
BLACK
6
CONTINUOUS
10
3.97576
20
-3.05251
11
3.98103
21
-3.06038
0
LINE
8
BLACK
6
CONTINUOUS
10
3.98103
20
-3.06038
11
3.98232
21
-3.06349
0
LINE
8
BLACK
6
CONTINUOUS
10
3.98232
20
-3.06349
11
3.98465
21
-3.06913
0
LINE
8
BLACK
6
CONTINUOUS
10
3.98465
20
-3.06913
11
3.98533
21
-3.07257
0
LINE
8
BLACK
6
CONTINUOUS
10
3.98533
20
-3.07257
11
3.9865
21
-3.07842
0
LINE
8
BLACK
6
CONTINUOUS
10
3.9865
20
-3.07842
11
3.9865
21
-3.08788
0
LINE
8
BLACK
6
CONTINUOUS
10
3.9865
20
-3.08788
11
3.98557
21
-3.09253
0
LINE
8
BLACK
6
CONTINUOUS
10
3.98557
20
-3.09253
11
3.98465
21
-3.09717
0
LINE
8
BLACK
6
CONTINUOUS
10
3.98465
20
-3.09717
11
3.98395
21
-3.09885
0
LINE
8
BLACK
6
CONTINUOUS
10
3.98395
20
-3.09885
11
3.98103
21
-3.10592
0
LINE
8
BLACK
6
CONTINUOUS
10
3.98103
20
-3.10592
11
3.97576
21
-3.11379
0
LINE
8
BLACK
6
CONTINUOUS
10
3.97576
20
-3.11379
11
3.96907
21
-3.12049
0
LINE
8
BLACK
6
CONTINUOUS
10
3.96907
20
-3.12049
11
3.9612
21
-3.12575
0
LINE
8
BLACK
6
CONTINUOUS
10
3.9612
20
-3.12575
11
3.95607
21
-3.12787
0
LINE
8
BLACK
6
CONTINUOUS
10
3.95607
20
-3.12787
11
3.95245
21
-3.12937
0
LINE
8
BLACK
6
CONTINUOUS
10
3.95245
20
-3.12937
11
3.9478
21
-3.1303
0
LINE
8
BLACK
6
CONTINUOUS
10
3.9478
20
-3.1303
11
3.94316
21
-3.13122
0
LINE
8
BLACK
6
CONTINUOUS
10
3.94316
20
-3.13122
11
3.93369
21
-3.13122
0
LINE
8
BLACK
6
CONTINUOUS
10
3.93369
20
-3.13122
11
3.92905
21
-3.1303
0
LINE
8
BLACK
6
CONTINUOUS
10
3.92905
20
-3.1303
11
3.9244
21
-3.12937
0
LINE
8
BLACK
6
CONTINUOUS
10
3.9244
20
-3.12937
11
3.92078
21
-3.12787
0
LINE
8
BLACK
6
CONTINUOUS
10
3.92078
20
-3.12787
11
3.91566
21
-3.12575
0
LINE
8
BLACK
6
CONTINUOUS
10
3.91566
20
-3.12575
11
3.90778
21
-3.12049
0
LINE
8
BLACK
6
CONTINUOUS
10
3.90778
20
-3.12049
11
3.90109
21
-3.11379
0
LINE
8
BLACK
6
CONTINUOUS
10
3.90109
20
-3.11379
11
3.89583
21
-3.10592
0
LINE
8
BLACK
6
CONTINUOUS
10
3.89583
20
-3.10592
11
3.8929
21
-3.09885
0
LINE
8
BLACK
6
CONTINUOUS
10
3.8929
20
-3.09885
11
3.8922
21
-3.09717
0
LINE
8
BLACK
6
CONTINUOUS
10
3.8922
20
-3.09717
11
3.89128
21
-3.09253
0
LINE
8
BLACK
6
CONTINUOUS
10
3.89128
20
-3.09253
11
3.89035
21
-3.08788
0
LINE
8
BLACK
6
CONTINUOUS
10
3.89035
20
-3.08788
11
3.89035
21
-3.07842
0
LINE
8
BLACK
6
CONTINUOUS
10
3.89035
20
-3.07842
11
3.89152
21
-3.07257
0
LINE
8
BLACK
6
CONTINUOUS
10
3.89152
20
-3.07257
11
3.8922
21
-3.06913
0
LINE
8
BLACK
6
CONTINUOUS
10
3.8922
20
-3.06913
11
3.89454
21
-3.06349
0
LINE
8
BLACK
6
CONTINUOUS
10
3.89454
20
-3.06349
11
3.89583
21
-3.06038
0
LINE
8
BLACK
6
CONTINUOUS
10
3.89583
20
-3.06038
11
3.90109
21
-3.05251
0
LINE
8
BLACK
6
CONTINUOUS
10
3.90109
20
-3.05251
11
3.90778
21
-3.04581
0
LINE
8
BLACK
6
CONTINUOUS
10
3.90778
20
-3.04581
11
3.91566
21
-3.04055
0
LINE
8
BLACK
6
CONTINUOUS
10
3.91566
20
-3.04055
11
3.92078
21
-3.03843
0
LINE
8
BLACK
6
CONTINUOUS
10
3.92078
20
-3.03843
11
3.9244
21
-3.03693
0
LINE
8
BLACK
6
CONTINUOUS
10
3.9244
20
-3.03693
11
3.93369
21
-3.03508
0
LINE
8
BLACK
6
CONTINUOUS
10
3.93369
20
-3.03508
11
3.94316
21
-3.03508
0
LINE
8
BLACK
6
CONTINUOUS
10
3.94316
20
-3.03508
11
3.95245
21
-3.03693
0
LINE
8
BLACK
6
CONTINUOUS
10
4.3229
20
-3.05058
11
4.3258
21
-3.05086
0
LINE
8
BLACK
6
CONTINUOUS
10
4.3258
20
-3.05086
11
4.33137
21
-3.05255
0
LINE
8
BLACK
6
CONTINUOUS
10
4.33137
20
-3.05255
11
4.33651
21
-3.0553
0
LINE
8
BLACK
6
CONTINUOUS
10
4.33651
20
-3.0553
11
4.33768
21
-3.05626
0
LINE
8
BLACK
6
CONTINUOUS
10
4.33768
20
-3.05626
11
4.34101
21
-3.05899
0
LINE
8
BLACK
6
CONTINUOUS
10
4.34101
20
-3.05899
11
4.34289
21
-3.06128
0
LINE
8
BLACK
6
CONTINUOUS
10
4.34289
20
-3.06128
11
4.3447
21
-3.06349
0
LINE
8
BLACK
6
CONTINUOUS
10
4.3447
20
-3.06349
11
4.34745
21
-3.06863
0
LINE
8
BLACK
6
CONTINUOUS
10
4.34745
20
-3.06863
11
4.34914
21
-3.0742
0
LINE
8
BLACK
6
CONTINUOUS
10
4.34914
20
-3.0742
11
4.34971
21
-3.08
0
LINE
8
BLACK
6
CONTINUOUS
10
4.34971
20
-3.08
11
4.34914
21
-3.0858
0
LINE
8
BLACK
6
CONTINUOUS
10
4.34914
20
-3.0858
11
4.34745
21
-3.09137
0
LINE
8
BLACK
6
CONTINUOUS
10
4.34745
20
-3.09137
11
4.3447
21
-3.09651
0
LINE
8
BLACK
6
CONTINUOUS
10
4.3447
20
-3.09651
11
4.34374
21
-3.09768
0
LINE
8
BLACK
6
CONTINUOUS
10
4.34374
20
-3.09768
11
4.34101
21
-3.10101
0
LINE
8
BLACK
6
CONTINUOUS
10
4.34101
20
-3.10101
11
4.33862
21
-3.10297
0
LINE
8
BLACK
6
CONTINUOUS
10
4.33862
20
-3.10297
11
4.33651
21
-3.1047
0
LINE
8
BLACK
6
CONTINUOUS
10
4.33651
20
-3.1047
11
4.33137
21
-3.10745
0
LINE
8
BLACK
6
CONTINUOUS
10
4.33137
20
-3.10745
11
4.3258
21
-3.10914
0
LINE
8
BLACK
6
CONTINUOUS
10
4.3258
20
-3.10914
11
4.3229
21
-3.10942
0
LINE
8
BLACK
6
CONTINUOUS
10
4.3229
20
-3.10942
11
4.32145
21
-3.10957
0
LINE
8
BLACK
6
CONTINUOUS
10
4.32145
20
-3.10957
11
4.31855
21
-3.10957
0
LINE
8
BLACK
6
CONTINUOUS
10
4.31855
20
-3.10957
11
4.3171
21
-3.10942
0
LINE
8
BLACK
6
CONTINUOUS
10
4.3171
20
-3.10942
11
4.3142
21
-3.10914
0
LINE
8
BLACK
6
CONTINUOUS
10
4.3142
20
-3.10914
11
4.30863
21
-3.10745
0
LINE
8
BLACK
6
CONTINUOUS
10
4.30863
20
-3.10745
11
4.30349
21
-3.1047
0
LINE
8
BLACK
6
CONTINUOUS
10
4.30349
20
-3.1047
11
4.30138
21
-3.10297
0
LINE
8
BLACK
6
CONTINUOUS
10
4.30138
20
-3.10297
11
4.29899
21
-3.10101
0
LINE
8
BLACK
6
CONTINUOUS
10
4.29899
20
-3.10101
11
4.29626
21
-3.09768
0
LINE
8
BLACK
6
CONTINUOUS
10
4.29626
20
-3.09768
11
4.2953
21
-3.09651
0
LINE
8
BLACK
6
CONTINUOUS
10
4.2953
20
-3.09651
11
4.29255
21
-3.09137
0
LINE
8
BLACK
6
CONTINUOUS
10
4.29255
20
-3.09137
11
4.29086
21
-3.0858
0
LINE
8
BLACK
6
CONTINUOUS
10
4.29086
20
-3.0858
11
4.29029
21
-3.08
0
LINE
8
BLACK
6
CONTINUOUS
10
4.29029
20
-3.08
11
4.29086
21
-3.0742
0
LINE
8
BLACK
6
CONTINUOUS
10
4.29086
20
-3.0742
11
4.29255
21
-3.06863
0
LINE
8
BLACK
6
CONTINUOUS
10
4.29255
20
-3.06863
11
4.2953
21
-3.06349
0
LINE
8
BLACK
6
CONTINUOUS
10
4.2953
20
-3.06349
11
4.29711
21
-3.06128
0
LINE
8
BLACK
6
CONTINUOUS
10
4.29711
20
-3.06128
11
4.29899
21
-3.05899
0
LINE
8
BLACK
6
CONTINUOUS
10
4.29899
20
-3.05899
11
4.30232
21
-3.05626
0
LINE
8
BLACK
6
CONTINUOUS
10
4.30232
20
-3.05626
11
4.30349
21
-3.0553
0
LINE
8
BLACK
6
CONTINUOUS
10
4.30349
20
-3.0553
11
4.30863
21
-3.05255
0
LINE
8
BLACK
6
CONTINUOUS
10
4.30863
20
-3.05255
11
4.3142
21
-3.05086
0
LINE
8
BLACK
6
CONTINUOUS
10
4.3142
20
-3.05086
11
4.3171
21
-3.05058
0
LINE
8
BLACK
6
CONTINUOUS
10
4.3171
20
-3.05058
11
4.31855
21
-3.05043
0
LINE
8
BLACK
6
CONTINUOUS
10
4.31855
20
-3.05043
11
4.32145
21
-3.05043
0
LINE
8
BLACK
6
CONTINUOUS
10
4.32145
20
-3.05043
11
4.3229
21
-3.05058
0
LINE
8
BLACK
6
CONTINUOUS
10
4.22862
20
-3.05157
11
4.231
21
-3.05255
0
LINE
8
BLACK
6
CONTINUOUS
10
4.231
20
-3.05255
11
4.23401
21
-3.0538
0
LINE
8
BLACK
6
CONTINUOUS
10
4.23401
20
-3.0538
11
4.23885
21
-3.05703
0
LINE
8
BLACK
6
CONTINUOUS
10
4.23885
20
-3.05703
11
4.24297
21
-3.06115
0
LINE
8
BLACK
6
CONTINUOUS
10
4.24297
20
-3.06115
11
4.2462
21
-3.06599
0
LINE
8
BLACK
6
CONTINUOUS
10
4.2462
20
-3.06599
11
4.2462
21
-3.06599
0
LINE
8
BLACK
6
CONTINUOUS
10
4.2462
20
-3.06599
11
4.24843
21
-3.07138
0
LINE
8
BLACK
6
CONTINUOUS
10
4.24843
20
-3.07138
11
4.24957
21
-3.07709
0
LINE
8
BLACK
6
CONTINUOUS
10
4.24957
20
-3.07709
11
4.24957
21
-3.08291
0
LINE
8
BLACK
6
CONTINUOUS
10
4.24957
20
-3.08291
11
4.24843
21
-3.08862
0
LINE
8
BLACK
6
CONTINUOUS
10
4.24843
20
-3.08862
11
4.2462
21
-3.09401
0
LINE
8
BLACK
6
CONTINUOUS
10
4.2462
20
-3.09401
11
4.24297
21
-3.09885
0
LINE
8
BLACK
6
CONTINUOUS
10
4.24297
20
-3.09885
11
4.23885
21
-3.10297
0
LINE
8
BLACK
6
CONTINUOUS
10
4.23885
20
-3.10297
11
4.23401
21
-3.1062
0
LINE
8
BLACK
6
CONTINUOUS
10
4.23401
20
-3.1062
11
4.23401
21
-3.1062
0
LINE
8
BLACK
6
CONTINUOUS
10
4.23401
20
-3.1062
11
4.23401
21
-3.1062
0
LINE
8
BLACK
6
CONTINUOUS
10
4.23401
20
-3.1062
11
4.22862
21
-3.10843
0
LINE
8
BLACK
6
CONTINUOUS
10
4.22862
20
-3.10843
11
4.22291
21
-3.10957
0
LINE
8
BLACK
6
CONTINUOUS
10
4.22291
20
-3.10957
11
4.21709
21
-3.10957
0
LINE
8
BLACK
6
CONTINUOUS
10
4.21709
20
-3.10957
11
4.21138
21
-3.10843
0
LINE
8
BLACK
6
CONTINUOUS
10
4.21138
20
-3.10843
11
4.20599
21
-3.1062
0
LINE
8
BLACK
6
CONTINUOUS
10
4.20599
20
-3.1062
11
4.20599
21
-3.1062
0
LINE
8
BLACK
6
CONTINUOUS
10
4.20599
20
-3.1062
11
4.20599
21
-3.1062
0
LINE
8
BLACK
6
CONTINUOUS
10
4.20599
20
-3.1062
11
4.20115
21
-3.10297
0
LINE
8
BLACK
6
CONTINUOUS
10
4.20115
20
-3.10297
11
4.19703
21
-3.09885
0
LINE
8
BLACK
6
CONTINUOUS
10
4.19703
20
-3.09885
11
4.1938
21
-3.09401
0
LINE
8
BLACK
6
CONTINUOUS
10
4.1938
20
-3.09401
11
4.19157
21
-3.08862
0
LINE
8
BLACK
6
CONTINUOUS
10
4.19157
20
-3.08862
11
4.19043
21
-3.08291
0
LINE
8
BLACK
6
CONTINUOUS
10
4.19043
20
-3.08291
11
4.19043
21
-3.07709
0
LINE
8
BLACK
6
CONTINUOUS
10
4.19043
20
-3.07709
11
4.19157
21
-3.07138
0
LINE
8
BLACK
6
CONTINUOUS
10
4.19157
20
-3.07138
11
4.1938
21
-3.06599
0
LINE
8
BLACK
6
CONTINUOUS
10
4.1938
20
-3.06599
11
4.1938
21
-3.06599
0
LINE
8
BLACK
6
CONTINUOUS
10
4.1938
20
-3.06599
11
4.19703
21
-3.06115
0
LINE
8
BLACK
6
CONTINUOUS
10
4.19703
20
-3.06115
11
4.20115
21
-3.05703
0
LINE
8
BLACK
6
CONTINUOUS
10
4.20115
20
-3.05703
11
4.20599
21
-3.0538
0
LINE
8
BLACK
6
CONTINUOUS
10
4.20599
20
-3.0538
11
4.209
21
-3.05255
0
LINE
8
BLACK
6
CONTINUOUS
10
4.209
20
-3.05255
11
4.21138
21
-3.05157
0
LINE
8
BLACK
6
CONTINUOUS
10
4.21138
20
-3.05157
11
4.21709
21
-3.05043
0
LINE
8
BLACK
6
CONTINUOUS
10
4.21709
20
-3.05043
11
4.22291
21
-3.05043
0
LINE
8
BLACK
6
CONTINUOUS
10
4.22291
20
-3.05043
11
4.22862
21
-3.05157
0
LINE
8
BLACK
6
CONTINUOUS
10
4.05843
20
-2.99843
11
3.98157
21
-2.99843
0
LINE
8
BLACK
6
CONTINUOUS
10
3.98157
20
-2.99843
11
3.98157
21
-2.92157
0
LINE
8
BLACK
6
CONTINUOUS
10
3.98157
20
-2.92157
11
4.05843
21
-2.92157
0
LINE
8
BLACK
6
CONTINUOUS
10
4.05843
20
-2.92157
11
4.05843
21
-2.99843
0
LINE
8
BLACK
6
CONTINUOUS
10
3.93278
20
-2.92305
11
3.93278
21
-2.92305
0
LINE
8
BLACK
6
CONTINUOUS
10
3.93278
20
-2.92305
11
3.93278
21
-2.92305
0
LINE
8
BLACK
6
CONTINUOUS
10
3.93278
20
-2.92305
11
3.93978
21
-2.92595
0
LINE
8
BLACK
6
CONTINUOUS
10
3.93978
20
-2.92595
11
3.93978
21
-2.92595
0
LINE
8
BLACK
6
CONTINUOUS
10
3.93978
20
-2.92595
11
3.94607
21
-2.93015
0
LINE
8
BLACK
6
CONTINUOUS
10
3.94607
20
-2.93015
11
3.95142
21
-2.93551
0
LINE
8
BLACK
6
CONTINUOUS
10
3.95142
20
-2.93551
11
3.95493
21
-2.94075
0
LINE
8
BLACK
6
CONTINUOUS
10
3.95493
20
-2.94075
11
3.95563
21
-2.9418
0
LINE
8
BLACK
6
CONTINUOUS
10
3.95563
20
-2.9418
11
3.95787
21
-2.94721
0
LINE
8
BLACK
6
CONTINUOUS
10
3.95787
20
-2.94721
11
3.95852
21
-2.94879
0
LINE
8
BLACK
6
CONTINUOUS
10
3.95852
20
-2.94879
11
3.96
21
-2.95622
0
LINE
8
BLACK
6
CONTINUOUS
10
3.96
20
-2.95622
11
3.96
21
-2.96378
0
LINE
8
BLACK
6
CONTINUOUS
10
3.96
20
-2.96378
11
3.95852
21
-2.97121
0
LINE
8
BLACK
6
CONTINUOUS
10
3.95852
20
-2.97121
11
3.95852
21
-2.97121
0
LINE
8
BLACK
6
CONTINUOUS
10
3.95852
20
-2.97121
11
3.95563
21
-2.9782
0
LINE
8
BLACK
6
CONTINUOUS
10
3.95563
20
-2.9782
11
3.95563
21
-2.9782
0
LINE
8
BLACK
6
CONTINUOUS
10
3.95563
20
-2.9782
11
3.95142
21
-2.98449
0
LINE
8
BLACK
6
CONTINUOUS
10
3.95142
20
-2.98449
11
3.94607
21
-2.98985
0
LINE
8
BLACK
6
CONTINUOUS
10
3.94607
20
-2.98985
11
3.94082
21
-2.99335
0
LINE
8
BLACK
6
CONTINUOUS
10
3.94082
20
-2.99335
11
3.93978
21
-2.99405
0
LINE
8
BLACK
6
CONTINUOUS
10
3.93978
20
-2.99405
11
3.93437
21
-2.99629
0
LINE
8
BLACK
6
CONTINUOUS
10
3.93437
20
-2.99629
11
3.93278
21
-2.99695
0
LINE
8
BLACK
6
CONTINUOUS
10
3.93278
20
-2.99695
11
3.92536
21
-2.99843
0
LINE
8
BLACK
6
CONTINUOUS
10
3.92536
20
-2.99843
11
3.91779
21
-2.99843
0
LINE
8
BLACK
6
CONTINUOUS
10
3.91779
20
-2.99843
11
3.91037
21
-2.99695
0
LINE
8
BLACK
6
CONTINUOUS
10
3.91037
20
-2.99695
11
3.90878
21
-2.99629
0
LINE
8
BLACK
6
CONTINUOUS
10
3.90878
20
-2.99629
11
3.90337
21
-2.99405
0
LINE
8
BLACK
6
CONTINUOUS
10
3.90337
20
-2.99405
11
3.90233
21
-2.99335
0
LINE
8
BLACK
6
CONTINUOUS
10
3.90233
20
-2.99335
11
3.89708
21
-2.98985
0
LINE
8
BLACK
6
CONTINUOUS
10
3.89708
20
-2.98985
11
3.89173
21
-2.98449
0
LINE
8
BLACK
6
CONTINUOUS
10
3.89173
20
-2.98449
11
3.88752
21
-2.9782
0
LINE
8
BLACK
6
CONTINUOUS
10
3.88752
20
-2.9782
11
3.88752
21
-2.9782
0
LINE
8
BLACK
6
CONTINUOUS
10
3.88752
20
-2.9782
11
3.88463
21
-2.97121
0
LINE
8
BLACK
6
CONTINUOUS
10
3.88463
20
-2.97121
11
3.88463
21
-2.97121
0
LINE
8
BLACK
6
CONTINUOUS
10
3.88463
20
-2.97121
11
3.88315
21
-2.96378
0
LINE
8
BLACK
6
CONTINUOUS
10
3.88315
20
-2.96378
11
3.88315
21
-2.95622
0
LINE
8
BLACK
6
CONTINUOUS
10
3.88315
20
-2.95622
11
3.88463
21
-2.94879
0
LINE
8
BLACK
6
CONTINUOUS
10
3.88463
20
-2.94879
11
3.88528
21
-2.94721
0
LINE
8
BLACK
6
CONTINUOUS
10
3.88528
20
-2.94721
11
3.88752
21
-2.9418
0
LINE
8
BLACK
6
CONTINUOUS
10
3.88752
20
-2.9418
11
3.88822
21
-2.94075
0
LINE
8
BLACK
6
CONTINUOUS
10
3.88822
20
-2.94075
11
3.89173
21
-2.93551
0
LINE
8
BLACK
6
CONTINUOUS
10
3.89173
20
-2.93551
11
3.89708
21
-2.93015
0
LINE
8
BLACK
6
CONTINUOUS
10
3.89708
20
-2.93015
11
3.90337
21
-2.92595
0
LINE
8
BLACK
6
CONTINUOUS
10
3.90337
20
-2.92595
11
3.90337
21
-2.92595
0
LINE
8
BLACK
6
CONTINUOUS
10
3.90337
20
-2.92595
11
3.91037
21
-2.92305
0
LINE
8
BLACK
6
CONTINUOUS
10
3.91037
20
-2.92305
11
3.91037
21
-2.92305
0
LINE
8
BLACK
6
CONTINUOUS
10
3.91037
20
-2.92305
11
3.91037
21
-2.92305
0
LINE
8
BLACK
6
CONTINUOUS
10
3.91037
20
-2.92305
11
3.91779
21
-2.92157
0
LINE
8
BLACK
6
CONTINUOUS
10
3.91779
20
-2.92157
11
3.92536
21
-2.92157
0
LINE
8
BLACK
6
CONTINUOUS
10
3.92536
20
-2.92157
11
3.93278
21
-2.92305
0
LINE
8
BLACK
6
CONTINUOUS
10
3.83436
20
-2.92305
11
3.83436
21
-2.92305
0
LINE
8
BLACK
6
CONTINUOUS
10
3.83436
20
-2.92305
11
3.83436
21
-2.92305
0
LINE
8
BLACK
6
CONTINUOUS
10
3.83436
20
-2.92305
11
3.84135
21
-2.92595
0
LINE
8
BLACK
6
CONTINUOUS
10
3.84135
20
-2.92595
11
3.84135
21
-2.92595
0
LINE
8
BLACK
6
CONTINUOUS
10
3.84135
20
-2.92595
11
3.84764
21
-2.93015
0
LINE
8
BLACK
6
CONTINUOUS
10
3.84764
20
-2.93015
11
3.853
21
-2.93551
0
LINE
8
BLACK
6
CONTINUOUS
10
3.853
20
-2.93551
11
3.8565
21
-2.94075
0
LINE
8
BLACK
6
CONTINUOUS
10
3.8565
20
-2.94075
11
3.8572
21
-2.9418
0
LINE
8
BLACK
6
CONTINUOUS
10
3.8572
20
-2.9418
11
3.85944
21
-2.94721
0
LINE
8
BLACK
6
CONTINUOUS
10
3.85944
20
-2.94721
11
3.8601
21
-2.94879
0
LINE
8
BLACK
6
CONTINUOUS
10
3.8601
20
-2.94879
11
3.86157
21
-2.95622
0
LINE
8
BLACK
6
CONTINUOUS
10
3.86157
20
-2.95622
11
3.86157
21
-2.96378
0
LINE
8
BLACK
6
CONTINUOUS
10
3.86157
20
-2.96378
11
3.8601
21
-2.97121
0
LINE
8
BLACK
6
CONTINUOUS
10
3.8601
20
-2.97121
11
3.8601
21
-2.97121
0
LINE
8
BLACK
6
CONTINUOUS
10
3.8601
20
-2.97121
11
3.8572
21
-2.9782
0
LINE
8
BLACK
6
CONTINUOUS
10
3.8572
20
-2.9782
11
3.8572
21
-2.9782
0
LINE
8
BLACK
6
CONTINUOUS
10
3.8572
20
-2.9782
11
3.853
21
-2.98449
0
LINE
8
BLACK
6
CONTINUOUS
10
3.853
20
-2.98449
11
3.84764
21
-2.98985
0
LINE
8
BLACK
6
CONTINUOUS
10
3.84764
20
-2.98985
11
3.8424
21
-2.99335
0
LINE
8
BLACK
6
CONTINUOUS
10
3.8424
20
-2.99335
11
3.84135
21
-2.99405
0
LINE
8
BLACK
6
CONTINUOUS
10
3.84135
20
-2.99405
11
3.83594
21
-2.99629
0
LINE
8
BLACK
6
CONTINUOUS
10
3.83594
20
-2.99629
11
3.83436
21
-2.99695
0
LINE
8
BLACK
6
CONTINUOUS
10
3.83436
20
-2.99695
11
3.82693
21
-2.99843
0
LINE
8
BLACK
6
CONTINUOUS
10
3.82693
20
-2.99843
11
3.81936
21
-2.99843
0
LINE
8
BLACK
6
CONTINUOUS
10
3.81936
20
-2.99843
11
3.81194
21
-2.99695
0
LINE
8
BLACK
6
CONTINUOUS
10
3.81194
20
-2.99695
11
3.81036
21
-2.99629
0
LINE
8
BLACK
6
CONTINUOUS
10
3.81036
20
-2.99629
11
3.80495
21
-2.99405
0
LINE
8
BLACK
6
CONTINUOUS
10
3.80495
20
-2.99405
11
3.8039
21
-2.99335
0
LINE
8
BLACK
6
CONTINUOUS
10
3.8039
20
-2.99335
11
3.79866
21
-2.98985
0
LINE
8
BLACK
6
CONTINUOUS
10
3.79866
20
-2.98985
11
3.7933
21
-2.98449
0
LINE
8
BLACK
6
CONTINUOUS
10
3.7933
20
-2.98449
11
3.7891
21
-2.9782
0
LINE
8
BLACK
6
CONTINUOUS
10
3.7891
20
-2.9782
11
3.7891
21
-2.9782
0
LINE
8
BLACK
6
CONTINUOUS
10
3.7891
20
-2.9782
11
3.7862
21
-2.97121
0
LINE
8
BLACK
6
CONTINUOUS
10
3.7862
20
-2.97121
11
3.7862
21
-2.97121
0
LINE
8
BLACK
6
CONTINUOUS
10
3.7862
20
-2.97121
11
3.78472
21
-2.96378
0
LINE
8
BLACK
6
CONTINUOUS
10
3.78472
20
-2.96378
11
3.78472
21
-2.95622
0
LINE
8
BLACK
6
CONTINUOUS
10
3.78472
20
-2.95622
11
3.7862
21
-2.94879
0
LINE
8
BLACK
6
CONTINUOUS
10
3.7862
20
-2.94879
11
3.78686
21
-2.94721
0
LINE
8
BLACK
6
CONTINUOUS
10
3.78686
20
-2.94721
11
3.7891
21
-2.9418
0
LINE
8
BLACK
6
CONTINUOUS
10
3.7891
20
-2.9418
11
3.7898
21
-2.94075
0
LINE
8
BLACK
6
CONTINUOUS
10
3.7898
20
-2.94075
11
3.7933
21
-2.93551
0
LINE
8
BLACK
6
CONTINUOUS
10
3.7933
20
-2.93551
11
3.79866
21
-2.93015
0
LINE
8
BLACK
6
CONTINUOUS
10
3.79866
20
-2.93015
11
3.80495
21
-2.92595
0
LINE
8
BLACK
6
CONTINUOUS
10
3.80495
20
-2.92595
11
3.80495
21
-2.92595
0
LINE
8
BLACK
6
CONTINUOUS
10
3.80495
20
-2.92595
11
3.81194
21
-2.92305
0
LINE
8
BLACK
6
CONTINUOUS
10
3.81194
20
-2.92305
11
3.81194
21
-2.92305
0
LINE
8
BLACK
6
CONTINUOUS
10
3.81194
20
-2.92305
11
3.81194
21
-2.92305
0
LINE
8
BLACK
6
CONTINUOUS
10
3.81194
20
-2.92305
11
3.81936
21
-2.92157
0
LINE
8
BLACK
6
CONTINUOUS
10
3.81936
20
-2.92157
11
3.82693
21
-2.92157
0
LINE
8
BLACK
6
CONTINUOUS
10
3.82693
20
-2.92157
11
3.83436
21
-2.92305
0
LINE
8
BLACK
6
CONTINUOUS
10
4.62106
20
-2.98106
11
4.49894
21
-2.98106
0
LINE
8
BLACK
6
CONTINUOUS
10
4.49894
20
-2.98106
11
4.49894
21
-2.85894
0
LINE
8
BLACK
6
CONTINUOUS
10
4.49894
20
-2.85894
11
4.62106
21
-2.85894
0
LINE
8
BLACK
6
CONTINUOUS
10
4.62106
20
-2.85894
11
4.62106
21
-2.98106
  0
ENDSEC
  0
EOF
