  0
SECTION
  2
HEADER
  9
$ANGBASE
  50
0.0
  9
$ANGDIR
  70
1
  9
$MEASUREMENT
  70
0
  0
ENDSEC
  0
SECTION
  2
TABLES
  0
TABLE
  2
LTYPE
  70
4
  0
LTYPE
  5
40F
  2
CONTINUOUS
  70
0
  3
Solid line
  72
65
  73
0
  40
0.0
  0
LTYPE
  5
410
  2
DASHDOT
 70
0
  3
Dash Dot ____ _ ____ _
 72
65
 73
4
 40
2.0
 49
1.25
 49
-0.25
 49
0.25
 49
-0.25
  0
LTYPE
  5
411
  2
DASHED
 70
0
  3
Dashed __ __ __ __ __
 72
65
 73
2
 40
0.75
 49
0.5
 49
-0.25
  0
LTYPE
  5
43B
  2
DOTTED
 70
0
  3
Dotted .  .  .  .
 72
65
 73
2
 40
0.2
 49
0.0
 49
-0.2
  0
ENDTAB
  0
TABLE
  2
STYLE
  70
4
  0
STYLE
  2
KICAD
  70
0
  40
0
  41
1
  42
1
  50
0
  71
0
  3
isocp.shx
  0
STYLE
  2
KICADB
  70
0
  40
0
  41
1
  42
1
  50
0
  71
0
  3
isocp.shx
  0
STYLE
  2
KICADI
  70
0
  40
0
  41
1
  42
1
  50
15
  71
0
  3
isocp.shx
  0
STYLE
  2
KICADBI
  70
0
  40
0
  41
1
  42
1
  50
15
  71
0
  3
isocp.shx
  0
ENDTAB
  0
TABLE
  2
LAYER
  70
1
  0
LAYER
  2
BLACK
  70
0
  62
7
  6
CONTINUOUS
  0
ENDTAB
  0
ENDSEC
  0
SECTION
  2
ENTITIES
0
LINE
8
BLACK
6
CONTINUOUS
10
4.57723
20
-3.54321
11
4.58797
21
-3.54767
0
LINE
8
BLACK
6
CONTINUOUS
10
4.58797
20
-3.54767
11
4.59765
21
-3.55413
0
LINE
8
BLACK
6
CONTINUOUS
10
4.59765
20
-3.55413
11
4.60587
21
-3.56235
0
LINE
8
BLACK
6
CONTINUOUS
10
4.60587
20
-3.56235
11
4.61233
21
-3.57203
0
LINE
8
BLACK
6
CONTINUOUS
10
4.61233
20
-3.57203
11
4.61679
21
-3.58277
0
LINE
8
BLACK
6
CONTINUOUS
10
4.61679
20
-3.58277
11
4.61906
21
-3.59418
0
LINE
8
BLACK
6
CONTINUOUS
10
4.61906
20
-3.59418
11
4.61906
21
-3.60582
0
LINE
8
BLACK
6
CONTINUOUS
10
4.61906
20
-3.60582
11
4.61679
21
-3.61723
0
LINE
8
BLACK
6
CONTINUOUS
10
4.61679
20
-3.61723
11
4.61233
21
-3.62797
0
LINE
8
BLACK
6
CONTINUOUS
10
4.61233
20
-3.62797
11
4.60587
21
-3.63765
0
LINE
8
BLACK
6
CONTINUOUS
10
4.60587
20
-3.63765
11
4.59765
21
-3.64587
0
LINE
8
BLACK
6
CONTINUOUS
10
4.59765
20
-3.64587
11
4.58797
21
-3.65233
0
LINE
8
BLACK
6
CONTINUOUS
10
4.58797
20
-3.65233
11
4.57723
21
-3.65679
0
LINE
8
BLACK
6
CONTINUOUS
10
4.57723
20
-3.65679
11
4.56582
21
-3.65906
0
LINE
8
BLACK
6
CONTINUOUS
10
4.56582
20
-3.65906
11
4.55418
21
-3.65906
0
LINE
8
BLACK
6
CONTINUOUS
10
4.55418
20
-3.65906
11
4.54277
21
-3.65679
0
LINE
8
BLACK
6
CONTINUOUS
10
4.54277
20
-3.65679
11
4.53203
21
-3.65233
0
LINE
8
BLACK
6
CONTINUOUS
10
4.53203
20
-3.65233
11
4.52235
21
-3.64587
0
LINE
8
BLACK
6
CONTINUOUS
10
4.52235
20
-3.64587
11
4.51413
21
-3.63765
0
LINE
8
BLACK
6
CONTINUOUS
10
4.51413
20
-3.63765
11
4.50767
21
-3.62797
0
LINE
8
BLACK
6
CONTINUOUS
10
4.50767
20
-3.62797
11
4.50321
21
-3.61723
0
LINE
8
BLACK
6
CONTINUOUS
10
4.50321
20
-3.61723
11
4.50094
21
-3.60582
0
LINE
8
BLACK
6
CONTINUOUS
10
4.50094
20
-3.60582
11
4.50094
21
-3.59418
0
LINE
8
BLACK
6
CONTINUOUS
10
4.50094
20
-3.59418
11
4.50321
21
-3.58277
0
LINE
8
BLACK
6
CONTINUOUS
10
4.50321
20
-3.58277
11
4.50767
21
-3.57203
0
LINE
8
BLACK
6
CONTINUOUS
10
4.50767
20
-3.57203
11
4.51413
21
-3.56235
0
LINE
8
BLACK
6
CONTINUOUS
10
4.51413
20
-3.56235
11
4.52235
21
-3.55413
0
LINE
8
BLACK
6
CONTINUOUS
10
4.52235
20
-3.55413
11
4.53203
21
-3.54767
0
LINE
8
BLACK
6
CONTINUOUS
10
4.53203
20
-3.54767
11
4.54277
21
-3.54321
0
LINE
8
BLACK
6
CONTINUOUS
10
4.54277
20
-3.54321
11
4.55418
21
-3.54094
0
LINE
8
BLACK
6
CONTINUOUS
10
4.55418
20
-3.54094
11
4.56582
21
-3.54094
0
LINE
8
BLACK
6
CONTINUOUS
10
4.56582
20
-3.54094
11
4.57723
21
-3.54321
0
LINE
8
BLACK
6
CONTINUOUS
10
3.89906
20
-3.49906
11
3.78094
21
-3.49906
0
LINE
8
BLACK
6
CONTINUOUS
10
3.78094
20
-3.49906
11
3.78094
21
-3.38094
0
LINE
8
BLACK
6
CONTINUOUS
10
3.78094
20
-3.38094
11
3.89906
21
-3.38094
0
LINE
8
BLACK
6
CONTINUOUS
10
3.89906
20
-3.38094
11
3.89906
21
-3.49906
0
LINE
8
BLACK
6
CONTINUOUS
10
4.05723
20
-3.38321
11
4.06797
21
-3.38767
0
LINE
8
BLACK
6
CONTINUOUS
10
4.06797
20
-3.38767
11
4.07765
21
-3.39413
0
LINE
8
BLACK
6
CONTINUOUS
10
4.07765
20
-3.39413
11
4.08587
21
-3.40235
0
LINE
8
BLACK
6
CONTINUOUS
10
4.08587
20
-3.40235
11
4.09233
21
-3.41203
0
LINE
8
BLACK
6
CONTINUOUS
10
4.09233
20
-3.41203
11
4.09679
21
-3.42277
0
LINE
8
BLACK
6
CONTINUOUS
10
4.09679
20
-3.42277
11
4.09906
21
-3.43418
0
LINE
8
BLACK
6
CONTINUOUS
10
4.09906
20
-3.43418
11
4.09906
21
-3.44582
0
LINE
8
BLACK
6
CONTINUOUS
10
4.09906
20
-3.44582
11
4.09679
21
-3.45723
0
LINE
8
BLACK
6
CONTINUOUS
10
4.09679
20
-3.45723
11
4.09233
21
-3.46797
0
LINE
8
BLACK
6
CONTINUOUS
10
4.09233
20
-3.46797
11
4.08587
21
-3.47765
0
LINE
8
BLACK
6
CONTINUOUS
10
4.08587
20
-3.47765
11
4.07765
21
-3.48587
0
LINE
8
BLACK
6
CONTINUOUS
10
4.07765
20
-3.48587
11
4.06797
21
-3.49233
0
LINE
8
BLACK
6
CONTINUOUS
10
4.06797
20
-3.49233
11
4.05723
21
-3.49679
0
LINE
8
BLACK
6
CONTINUOUS
10
4.05723
20
-3.49679
11
4.04582
21
-3.49906
0
LINE
8
BLACK
6
CONTINUOUS
10
4.04582
20
-3.49906
11
4.03418
21
-3.49906
0
LINE
8
BLACK
6
CONTINUOUS
10
4.03418
20
-3.49906
11
4.02277
21
-3.49679
0
LINE
8
BLACK
6
CONTINUOUS
10
4.02277
20
-3.49679
11
4.01203
21
-3.49233
0
LINE
8
BLACK
6
CONTINUOUS
10
4.01203
20
-3.49233
11
4.00235
21
-3.48587
0
LINE
8
BLACK
6
CONTINUOUS
10
4.00235
20
-3.48587
11
3.99413
21
-3.47765
0
LINE
8
BLACK
6
CONTINUOUS
10
3.99413
20
-3.47765
11
3.98767
21
-3.46797
0
LINE
8
BLACK
6
CONTINUOUS
10
3.98767
20
-3.46797
11
3.98321
21
-3.45723
0
LINE
8
BLACK
6
CONTINUOUS
10
3.98321
20
-3.45723
11
3.98094
21
-3.44582
0
LINE
8
BLACK
6
CONTINUOUS
10
3.98094
20
-3.44582
11
3.98094
21
-3.43418
0
LINE
8
BLACK
6
CONTINUOUS
10
3.98094
20
-3.43418
11
3.98321
21
-3.42277
0
LINE
8
BLACK
6
CONTINUOUS
10
3.98321
20
-3.42277
11
3.98767
21
-3.41203
0
LINE
8
BLACK
6
CONTINUOUS
10
3.98767
20
-3.41203
11
3.99413
21
-3.40235
0
LINE
8
BLACK
6
CONTINUOUS
10
3.99413
20
-3.40235
11
4.00235
21
-3.39413
0
LINE
8
BLACK
6
CONTINUOUS
10
4.00235
20
-3.39413
11
4.01203
21
-3.38767
0
LINE
8
BLACK
6
CONTINUOUS
10
4.01203
20
-3.38767
11
4.02277
21
-3.38321
0
LINE
8
BLACK
6
CONTINUOUS
10
4.02277
20
-3.38321
11
4.03418
21
-3.38094
0
LINE
8
BLACK
6
CONTINUOUS
10
4.03418
20
-3.38094
11
4.04582
21
-3.38094
0
LINE
8
BLACK
6
CONTINUOUS
10
4.04582
20
-3.38094
11
4.05723
21
-3.38321
0
LINE
8
BLACK
6
CONTINUOUS
10
4.31937
20
-3.47937
11
4.24063
21
-3.47937
0
LINE
8
BLACK
6
CONTINUOUS
10
4.24063
20
-3.47937
11
4.24063
21
-3.40063
0
LINE
8
BLACK
6
CONTINUOUS
10
4.24063
20
-3.40063
11
4.31937
21
-3.40063
0
LINE
8
BLACK
6
CONTINUOUS
10
4.31937
20
-3.40063
11
4.31937
21
-3.47937
0
LINE
8
BLACK
6
CONTINUOUS
10
4.61906
20
-3.45906
11
4.50094
21
-3.45906
0
LINE
8
BLACK
6
CONTINUOUS
10
4.50094
20
-3.45906
11
4.50094
21
-3.34094
0
LINE
8
BLACK
6
CONTINUOUS
10
4.50094
20
-3.34094
11
4.61906
21
-3.34094
0
LINE
8
BLACK
6
CONTINUOUS
10
4.61906
20
-3.34094
11
4.61906
21
-3.45906
0
LINE
8
BLACK
6
CONTINUOUS
10
3.55906
20
-3.37906
11
3.44094
21
-3.37906
0
LINE
8
BLACK
6
CONTINUOUS
10
3.44094
20
-3.37906
11
3.44094
21
-3.26094
0
LINE
8
BLACK
6
CONTINUOUS
10
3.44094
20
-3.26094
11
3.55906
21
-3.26094
0
LINE
8
BLACK
6
CONTINUOUS
10
3.55906
20
-3.26094
11
3.55906
21
-3.37906
0
LINE
8
BLACK
6
CONTINUOUS
10
4.05029
20
-3.23571
11
4.05867
21
-3.23918
0
LINE
8
BLACK
6
CONTINUOUS
10
4.05867
20
-3.23918
11
4.06621
21
-3.24422
0
LINE
8
BLACK
6
CONTINUOUS
10
4.06621
20
-3.24422
11
4.07263
21
-3.25064
0
LINE
8
BLACK
6
CONTINUOUS
10
4.07263
20
-3.25064
11
4.07767
21
-3.25818
0
LINE
8
BLACK
6
CONTINUOUS
10
4.07767
20
-3.25818
11
4.08114
21
-3.26656
0
LINE
8
BLACK
6
CONTINUOUS
10
4.08114
20
-3.26656
11
4.08291
21
-3.27546
0
LINE
8
BLACK
6
CONTINUOUS
10
4.08291
20
-3.27546
11
4.08291
21
-3.28454
0
LINE
8
BLACK
6
CONTINUOUS
10
4.08291
20
-3.28454
11
4.08114
21
-3.29344
0
LINE
8
BLACK
6
CONTINUOUS
10
4.08114
20
-3.29344
11
4.07767
21
-3.30182
0
LINE
8
BLACK
6
CONTINUOUS
10
4.07767
20
-3.30182
11
4.07263
21
-3.30936
0
LINE
8
BLACK
6
CONTINUOUS
10
4.07263
20
-3.30936
11
4.06621
21
-3.31578
0
LINE
8
BLACK
6
CONTINUOUS
10
4.06621
20
-3.31578
11
4.05867
21
-3.32082
0
LINE
8
BLACK
6
CONTINUOUS
10
4.05867
20
-3.32082
11
4.05029
21
-3.32429
0
LINE
8
BLACK
6
CONTINUOUS
10
4.05029
20
-3.32429
11
4.04139
21
-3.32606
0
LINE
8
BLACK
6
CONTINUOUS
10
4.04139
20
-3.32606
11
4.03231
21
-3.32606
0
LINE
8
BLACK
6
CONTINUOUS
10
4.03231
20
-3.32606
11
4.02341
21
-3.32429
0
LINE
8
BLACK
6
CONTINUOUS
10
4.02341
20
-3.32429
11
4.01503
21
-3.32082
0
LINE
8
BLACK
6
CONTINUOUS
10
4.01503
20
-3.32082
11
4.00749
21
-3.31578
0
LINE
8
BLACK
6
CONTINUOUS
10
4.00749
20
-3.31578
11
4.00107
21
-3.30936
0
LINE
8
BLACK
6
CONTINUOUS
10
4.00107
20
-3.30936
11
3.99603
21
-3.30182
0
LINE
8
BLACK
6
CONTINUOUS
10
3.99603
20
-3.30182
11
3.99256
21
-3.29344
0
LINE
8
BLACK
6
CONTINUOUS
10
3.99256
20
-3.29344
11
3.99079
21
-3.28454
0
LINE
8
BLACK
6
CONTINUOUS
10
3.99079
20
-3.28454
11
3.99079
21
-3.27546
0
LINE
8
BLACK
6
CONTINUOUS
10
3.99079
20
-3.27546
11
3.99256
21
-3.26656
0
LINE
8
BLACK
6
CONTINUOUS
10
3.99256
20
-3.26656
11
3.99603
21
-3.25818
0
LINE
8
BLACK
6
CONTINUOUS
10
3.99603
20
-3.25818
11
4.00107
21
-3.25064
0
LINE
8
BLACK
6
CONTINUOUS
10
4.00107
20
-3.25064
11
4.00749
21
-3.24422
0
LINE
8
BLACK
6
CONTINUOUS
10
4.00749
20
-3.24422
11
4.01503
21
-3.23918
0
LINE
8
BLACK
6
CONTINUOUS
10
4.01503
20
-3.23918
11
4.02341
21
-3.23571
0
LINE
8
BLACK
6
CONTINUOUS
10
4.02341
20
-3.23571
11
4.03231
21
-3.23394
0
LINE
8
BLACK
6
CONTINUOUS
10
4.03231
20
-3.23394
11
4.04139
21
-3.23394
0
LINE
8
BLACK
6
CONTINUOUS
10
4.04139
20
-3.23394
11
4.05029
21
-3.23571
0
LINE
8
BLACK
6
CONTINUOUS
10
3.85344
20
-3.23571
11
3.86182
21
-3.23918
0
LINE
8
BLACK
6
CONTINUOUS
10
3.86182
20
-3.23918
11
3.86936
21
-3.24422
0
LINE
8
BLACK
6
CONTINUOUS
10
3.86936
20
-3.24422
11
3.87578
21
-3.25064
0
LINE
8
BLACK
6
CONTINUOUS
10
3.87578
20
-3.25064
11
3.88082
21
-3.25818
0
LINE
8
BLACK
6
CONTINUOUS
10
3.88082
20
-3.25818
11
3.88429
21
-3.26656
0
LINE
8
BLACK
6
CONTINUOUS
10
3.88429
20
-3.26656
11
3.88606
21
-3.27546
0
LINE
8
BLACK
6
CONTINUOUS
10
3.88606
20
-3.27546
11
3.88606
21
-3.28454
0
LINE
8
BLACK
6
CONTINUOUS
10
3.88606
20
-3.28454
11
3.88429
21
-3.29344
0
LINE
8
BLACK
6
CONTINUOUS
10
3.88429
20
-3.29344
11
3.88082
21
-3.30182
0
LINE
8
BLACK
6
CONTINUOUS
10
3.88082
20
-3.30182
11
3.87578
21
-3.30936
0
LINE
8
BLACK
6
CONTINUOUS
10
3.87578
20
-3.30936
11
3.86936
21
-3.31578
0
LINE
8
BLACK
6
CONTINUOUS
10
3.86936
20
-3.31578
11
3.86182
21
-3.32082
0
LINE
8
BLACK
6
CONTINUOUS
10
3.86182
20
-3.32082
11
3.85344
21
-3.32429
0
LINE
8
BLACK
6
CONTINUOUS
10
3.85344
20
-3.32429
11
3.84454
21
-3.32606
0
LINE
8
BLACK
6
CONTINUOUS
10
3.84454
20
-3.32606
11
3.83546
21
-3.32606
0
LINE
8
BLACK
6
CONTINUOUS
10
3.83546
20
-3.32606
11
3.82656
21
-3.32429
0
LINE
8
BLACK
6
CONTINUOUS
10
3.82656
20
-3.32429
11
3.81818
21
-3.32082
0
LINE
8
BLACK
6
CONTINUOUS
10
3.81818
20
-3.32082
11
3.81064
21
-3.31578
0
LINE
8
BLACK
6
CONTINUOUS
10
3.81064
20
-3.31578
11
3.80422
21
-3.30936
0
LINE
8
BLACK
6
CONTINUOUS
10
3.80422
20
-3.30936
11
3.79918
21
-3.30182
0
LINE
8
BLACK
6
CONTINUOUS
10
3.79918
20
-3.30182
11
3.79571
21
-3.29344
0
LINE
8
BLACK
6
CONTINUOUS
10
3.79571
20
-3.29344
11
3.79394
21
-3.28454
0
LINE
8
BLACK
6
CONTINUOUS
10
3.79394
20
-3.28454
11
3.79394
21
-3.27546
0
LINE
8
BLACK
6
CONTINUOUS
10
3.79394
20
-3.27546
11
3.79571
21
-3.26656
0
LINE
8
BLACK
6
CONTINUOUS
10
3.79571
20
-3.26656
11
3.79918
21
-3.25818
0
LINE
8
BLACK
6
CONTINUOUS
10
3.79918
20
-3.25818
11
3.80422
21
-3.25064
0
LINE
8
BLACK
6
CONTINUOUS
10
3.80422
20
-3.25064
11
3.81064
21
-3.24422
0
LINE
8
BLACK
6
CONTINUOUS
10
3.81064
20
-3.24422
11
3.81818
21
-3.23918
0
LINE
8
BLACK
6
CONTINUOUS
10
3.81818
20
-3.23918
11
3.82656
21
-3.23571
0
LINE
8
BLACK
6
CONTINUOUS
10
3.82656
20
-3.23571
11
3.83546
21
-3.23394
0
LINE
8
BLACK
6
CONTINUOUS
10
3.83546
20
-3.23394
11
3.84454
21
-3.23394
0
LINE
8
BLACK
6
CONTINUOUS
10
3.84454
20
-3.23394
11
3.85344
21
-3.23571
0
LINE
8
BLACK
6
CONTINUOUS
10
4.29148
20
-3.20529
11
4.29865
21
-3.20826
0
LINE
8
BLACK
6
CONTINUOUS
10
4.29865
20
-3.20826
11
4.3051
21
-3.21257
0
LINE
8
BLACK
6
CONTINUOUS
10
4.3051
20
-3.21257
11
4.31058
21
-3.21805
0
LINE
8
BLACK
6
CONTINUOUS
10
4.31058
20
-3.21805
11
4.31489
21
-3.2245
0
LINE
8
BLACK
6
CONTINUOUS
10
4.31489
20
-3.2245
11
4.31786
21
-3.23167
0
LINE
8
BLACK
6
CONTINUOUS
10
4.31786
20
-3.23167
11
4.31937
21
-3.23927
0
LINE
8
BLACK
6
CONTINUOUS
10
4.31937
20
-3.23927
11
4.31937
21
-3.24703
0
LINE
8
BLACK
6
CONTINUOUS
10
4.31937
20
-3.24703
11
4.31786
21
-3.25463
0
LINE
8
BLACK
6
CONTINUOUS
10
4.31786
20
-3.25463
11
4.31489
21
-3.2618
0
LINE
8
BLACK
6
CONTINUOUS
10
4.31489
20
-3.2618
11
4.31058
21
-3.26825
0
LINE
8
BLACK
6
CONTINUOUS
10
4.31058
20
-3.26825
11
4.3051
21
-3.27373
0
LINE
8
BLACK
6
CONTINUOUS
10
4.3051
20
-3.27373
11
4.29865
21
-3.27804
0
LINE
8
BLACK
6
CONTINUOUS
10
4.29865
20
-3.27804
11
4.29148
21
-3.28101
0
LINE
8
BLACK
6
CONTINUOUS
10
4.29148
20
-3.28101
11
4.28388
21
-3.28252
0
LINE
8
BLACK
6
CONTINUOUS
10
4.28388
20
-3.28252
11
4.27612
21
-3.28252
0
LINE
8
BLACK
6
CONTINUOUS
10
4.27612
20
-3.28252
11
4.26852
21
-3.28101
0
LINE
8
BLACK
6
CONTINUOUS
10
4.26852
20
-3.28101
11
4.26135
21
-3.27804
0
LINE
8
BLACK
6
CONTINUOUS
10
4.26135
20
-3.27804
11
4.2549
21
-3.27373
0
LINE
8
BLACK
6
CONTINUOUS
10
4.2549
20
-3.27373
11
4.24942
21
-3.26825
0
LINE
8
BLACK
6
CONTINUOUS
10
4.24942
20
-3.26825
11
4.24511
21
-3.2618
0
LINE
8
BLACK
6
CONTINUOUS
10
4.24511
20
-3.2618
11
4.24214
21
-3.25463
0
LINE
8
BLACK
6
CONTINUOUS
10
4.24214
20
-3.25463
11
4.24063
21
-3.24703
0
LINE
8
BLACK
6
CONTINUOUS
10
4.24063
20
-3.24703
11
4.24063
21
-3.23927
0
LINE
8
BLACK
6
CONTINUOUS
10
4.24063
20
-3.23927
11
4.24214
21
-3.23167
0
LINE
8
BLACK
6
CONTINUOUS
10
4.24214
20
-3.23167
11
4.24511
21
-3.2245
0
LINE
8
BLACK
6
CONTINUOUS
10
4.24511
20
-3.2245
11
4.24942
21
-3.21805
0
LINE
8
BLACK
6
CONTINUOUS
10
4.24942
20
-3.21805
11
4.2549
21
-3.21257
0
LINE
8
BLACK
6
CONTINUOUS
10
4.2549
20
-3.21257
11
4.26135
21
-3.20826
0
LINE
8
BLACK
6
CONTINUOUS
10
4.26135
20
-3.20826
11
4.26852
21
-3.20529
0
LINE
8
BLACK
6
CONTINUOUS
10
4.26852
20
-3.20529
11
4.27612
21
-3.20378
0
LINE
8
BLACK
6
CONTINUOUS
10
4.27612
20
-3.20378
11
4.28388
21
-3.20378
0
LINE
8
BLACK
6
CONTINUOUS
10
4.28388
20
-3.20378
11
4.29148
21
-3.20529
0
LINE
8
BLACK
6
CONTINUOUS
10
4.57723
20
-3.06321
11
4.58797
21
-3.06767
0
LINE
8
BLACK
6
CONTINUOUS
10
4.58797
20
-3.06767
11
4.59765
21
-3.07413
0
LINE
8
BLACK
6
CONTINUOUS
10
4.59765
20
-3.07413
11
4.60587
21
-3.08235
0
LINE
8
BLACK
6
CONTINUOUS
10
4.60587
20
-3.08235
11
4.61233
21
-3.09203
0
LINE
8
BLACK
6
CONTINUOUS
10
4.61233
20
-3.09203
11
4.61679
21
-3.10277
0
LINE
8
BLACK
6
CONTINUOUS
10
4.61679
20
-3.10277
11
4.61906
21
-3.11418
0
LINE
8
BLACK
6
CONTINUOUS
10
4.61906
20
-3.11418
11
4.61906
21
-3.12582
0
LINE
8
BLACK
6
CONTINUOUS
10
4.61906
20
-3.12582
11
4.61679
21
-3.13723
0
LINE
8
BLACK
6
CONTINUOUS
10
4.61679
20
-3.13723
11
4.61233
21
-3.14797
0
LINE
8
BLACK
6
CONTINUOUS
10
4.61233
20
-3.14797
11
4.60587
21
-3.15765
0
LINE
8
BLACK
6
CONTINUOUS
10
4.60587
20
-3.15765
11
4.59765
21
-3.16587
0
LINE
8
BLACK
6
CONTINUOUS
10
4.59765
20
-3.16587
11
4.58797
21
-3.17233
0
LINE
8
BLACK
6
CONTINUOUS
10
4.58797
20
-3.17233
11
4.57723
21
-3.17679
0
LINE
8
BLACK
6
CONTINUOUS
10
4.57723
20
-3.17679
11
4.56582
21
-3.17906
0
LINE
8
BLACK
6
CONTINUOUS
10
4.56582
20
-3.17906
11
4.55418
21
-3.17906
0
LINE
8
BLACK
6
CONTINUOUS
10
4.55418
20
-3.17906
11
4.54277
21
-3.17679
0
LINE
8
BLACK
6
CONTINUOUS
10
4.54277
20
-3.17679
11
4.53203
21
-3.17233
0
LINE
8
BLACK
6
CONTINUOUS
10
4.53203
20
-3.17233
11
4.52235
21
-3.16587
0
LINE
8
BLACK
6
CONTINUOUS
10
4.52235
20
-3.16587
11
4.51413
21
-3.15765
0
LINE
8
BLACK
6
CONTINUOUS
10
4.51413
20
-3.15765
11
4.50767
21
-3.14797
0
LINE
8
BLACK
6
CONTINUOUS
10
4.50767
20
-3.14797
11
4.50321
21
-3.13723
0
LINE
8
BLACK
6
CONTINUOUS
10
4.50321
20
-3.13723
11
4.50094
21
-3.12582
0
LINE
8
BLACK
6
CONTINUOUS
10
4.50094
20
-3.12582
11
4.50094
21
-3.11418
0
LINE
8
BLACK
6
CONTINUOUS
10
4.50094
20
-3.11418
11
4.50321
21
-3.10277
0
LINE
8
BLACK
6
CONTINUOUS
10
4.50321
20
-3.10277
11
4.50767
21
-3.09203
0
LINE
8
BLACK
6
CONTINUOUS
10
4.50767
20
-3.09203
11
4.51413
21
-3.08235
0
LINE
8
BLACK
6
CONTINUOUS
10
4.51413
20
-3.08235
11
4.52235
21
-3.07413
0
LINE
8
BLACK
6
CONTINUOUS
10
4.52235
20
-3.07413
11
4.53203
21
-3.06767
0
LINE
8
BLACK
6
CONTINUOUS
10
4.53203
20
-3.06767
11
4.54277
21
-3.06321
0
LINE
8
BLACK
6
CONTINUOUS
10
4.54277
20
-3.06321
11
4.55418
21
-3.06094
0
LINE
8
BLACK
6
CONTINUOUS
10
4.55418
20
-3.06094
11
4.56582
21
-3.06094
0
LINE
8
BLACK
6
CONTINUOUS
10
4.56582
20
-3.06094
11
4.57723
21
-3.06321
0
LINE
8
BLACK
6
CONTINUOUS
10
3.51723
20
-3.06321
11
3.52797
21
-3.06767
0
LINE
8
BLACK
6
CONTINUOUS
10
3.52797
20
-3.06767
11
3.53765
21
-3.07413
0
LINE
8
BLACK
6
CONTINUOUS
10
3.53765
20
-3.07413
11
3.54587
21
-3.08235
0
LINE
8
BLACK
6
CONTINUOUS
10
3.54587
20
-3.08235
11
3.55233
21
-3.09203
0
LINE
8
BLACK
6
CONTINUOUS
10
3.55233
20
-3.09203
11
3.55679
21
-3.10277
0
LINE
8
BLACK
6
CONTINUOUS
10
3.55679
20
-3.10277
11
3.55906
21
-3.11418
0
LINE
8
BLACK
6
CONTINUOUS
10
3.55906
20
-3.11418
11
3.55906
21
-3.12582
0
LINE
8
BLACK
6
CONTINUOUS
10
3.55906
20
-3.12582
11
3.55679
21
-3.13723
0
LINE
8
BLACK
6
CONTINUOUS
10
3.55679
20
-3.13723
11
3.55233
21
-3.14797
0
LINE
8
BLACK
6
CONTINUOUS
10
3.55233
20
-3.14797
11
3.54587
21
-3.15765
0
LINE
8
BLACK
6
CONTINUOUS
10
3.54587
20
-3.15765
11
3.53765
21
-3.16587
0
LINE
8
BLACK
6
CONTINUOUS
10
3.53765
20
-3.16587
11
3.52797
21
-3.17233
0
LINE
8
BLACK
6
CONTINUOUS
10
3.52797
20
-3.17233
11
3.51723
21
-3.17679
0
LINE
8
BLACK
6
CONTINUOUS
10
3.51723
20
-3.17679
11
3.50582
21
-3.17906
0
LINE
8
BLACK
6
CONTINUOUS
10
3.50582
20
-3.17906
11
3.49418
21
-3.17906
0
LINE
8
BLACK
6
CONTINUOUS
10
3.49418
20
-3.17906
11
3.48277
21
-3.17679
0
LINE
8
BLACK
6
CONTINUOUS
10
3.48277
20
-3.17679
11
3.47203
21
-3.17233
0
LINE
8
BLACK
6
CONTINUOUS
10
3.47203
20
-3.17233
11
3.46235
21
-3.16587
0
LINE
8
BLACK
6
CONTINUOUS
10
3.46235
20
-3.16587
11
3.45413
21
-3.15765
0
LINE
8
BLACK
6
CONTINUOUS
10
3.45413
20
-3.15765
11
3.44767
21
-3.14797
0
LINE
8
BLACK
6
CONTINUOUS
10
3.44767
20
-3.14797
11
3.44321
21
-3.13723
0
LINE
8
BLACK
6
CONTINUOUS
10
3.44321
20
-3.13723
11
3.44094
21
-3.12582
0
LINE
8
BLACK
6
CONTINUOUS
10
3.44094
20
-3.12582
11
3.44094
21
-3.11418
0
LINE
8
BLACK
6
CONTINUOUS
10
3.44094
20
-3.11418
11
3.44321
21
-3.10277
0
LINE
8
BLACK
6
CONTINUOUS
10
3.44321
20
-3.10277
11
3.44767
21
-3.09203
0
LINE
8
BLACK
6
CONTINUOUS
10
3.44767
20
-3.09203
11
3.45413
21
-3.08235
0
LINE
8
BLACK
6
CONTINUOUS
10
3.45413
20
-3.08235
11
3.46235
21
-3.07413
0
LINE
8
BLACK
6
CONTINUOUS
10
3.46235
20
-3.07413
11
3.47203
21
-3.06767
0
LINE
8
BLACK
6
CONTINUOUS
10
3.47203
20
-3.06767
11
3.48277
21
-3.06321
0
LINE
8
BLACK
6
CONTINUOUS
10
3.48277
20
-3.06321
11
3.49418
21
-3.06094
0
LINE
8
BLACK
6
CONTINUOUS
10
3.49418
20
-3.06094
11
3.50582
21
-3.06094
0
LINE
8
BLACK
6
CONTINUOUS
10
3.50582
20
-3.06094
11
3.51723
21
-3.06321
0
LINE
8
BLACK
6
CONTINUOUS
10
3.95186
20
-3.03886
11
3.96024
21
-3.04233
0
LINE
8
BLACK
6
CONTINUOUS
10
3.96024
20
-3.04233
11
3.96779
21
-3.04737
0
LINE
8
BLACK
6
CONTINUOUS
10
3.96779
20
-3.04737
11
3.9742
21
-3.05379
0
LINE
8
BLACK
6
CONTINUOUS
10
3.9742
20
-3.05379
11
3.97925
21
-3.06133
0
LINE
8
BLACK
6
CONTINUOUS
10
3.97925
20
-3.06133
11
3.98272
21
-3.06971
0
LINE
8
BLACK
6
CONTINUOUS
10
3.98272
20
-3.06971
11
3.98449
21
-3.07861
0
LINE
8
BLACK
6
CONTINUOUS
10
3.98449
20
-3.07861
11
3.98449
21
-3.08769
0
LINE
8
BLACK
6
CONTINUOUS
10
3.98449
20
-3.08769
11
3.98272
21
-3.09659
0
LINE
8
BLACK
6
CONTINUOUS
10
3.98272
20
-3.09659
11
3.97925
21
-3.10497
0
LINE
8
BLACK
6
CONTINUOUS
10
3.97925
20
-3.10497
11
3.9742
21
-3.11251
0
LINE
8
BLACK
6
CONTINUOUS
10
3.9742
20
-3.11251
11
3.96779
21
-3.11893
0
LINE
8
BLACK
6
CONTINUOUS
10
3.96779
20
-3.11893
11
3.96024
21
-3.12397
0
LINE
8
BLACK
6
CONTINUOUS
10
3.96024
20
-3.12397
11
3.95186
21
-3.12744
0
LINE
8
BLACK
6
CONTINUOUS
10
3.95186
20
-3.12744
11
3.94296
21
-3.12921
0
LINE
8
BLACK
6
CONTINUOUS
10
3.94296
20
-3.12921
11
3.93389
21
-3.12921
0
LINE
8
BLACK
6
CONTINUOUS
10
3.93389
20
-3.12921
11
3.92499
21
-3.12744
0
LINE
8
BLACK
6
CONTINUOUS
10
3.92499
20
-3.12744
11
3.91661
21
-3.12397
0
LINE
8
BLACK
6
CONTINUOUS
10
3.91661
20
-3.12397
11
3.90906
21
-3.11893
0
LINE
8
BLACK
6
CONTINUOUS
10
3.90906
20
-3.11893
11
3.90265
21
-3.11251
0
LINE
8
BLACK
6
CONTINUOUS
10
3.90265
20
-3.11251
11
3.8976
21
-3.10497
0
LINE
8
BLACK
6
CONTINUOUS
10
3.8976
20
-3.10497
11
3.89413
21
-3.09659
0
LINE
8
BLACK
6
CONTINUOUS
10
3.89413
20
-3.09659
11
3.89236
21
-3.08769
0
LINE
8
BLACK
6
CONTINUOUS
10
3.89236
20
-3.08769
11
3.89236
21
-3.07861
0
LINE
8
BLACK
6
CONTINUOUS
10
3.89236
20
-3.07861
11
3.89413
21
-3.06971
0
LINE
8
BLACK
6
CONTINUOUS
10
3.89413
20
-3.06971
11
3.8976
21
-3.06133
0
LINE
8
BLACK
6
CONTINUOUS
10
3.8976
20
-3.06133
11
3.90265
21
-3.05379
0
LINE
8
BLACK
6
CONTINUOUS
10
3.90265
20
-3.05379
11
3.90906
21
-3.04737
0
LINE
8
BLACK
6
CONTINUOUS
10
3.90906
20
-3.04737
11
3.91661
21
-3.04233
0
LINE
8
BLACK
6
CONTINUOUS
10
3.91661
20
-3.04233
11
3.92499
21
-3.03886
0
LINE
8
BLACK
6
CONTINUOUS
10
3.92499
20
-3.03886
11
3.93389
21
-3.03709
0
LINE
8
BLACK
6
CONTINUOUS
10
3.93389
20
-3.03709
11
3.94296
21
-3.03709
0
LINE
8
BLACK
6
CONTINUOUS
10
3.94296
20
-3.03709
11
3.95186
21
-3.03886
0
LINE
8
BLACK
6
CONTINUOUS
10
4.3254
20
-3.05284
11
4.3306
21
-3.05442
0
LINE
8
BLACK
6
CONTINUOUS
10
4.3306
20
-3.05442
11
4.33539
21
-3.05697
0
LINE
8
BLACK
6
CONTINUOUS
10
4.33539
20
-3.05697
11
4.33958
21
-3.06042
0
LINE
8
BLACK
6
CONTINUOUS
10
4.33958
20
-3.06042
11
4.34303
21
-3.06461
0
LINE
8
BLACK
6
CONTINUOUS
10
4.34303
20
-3.06461
11
4.34558
21
-3.0694
0
LINE
8
BLACK
6
CONTINUOUS
10
4.34558
20
-3.0694
11
4.34716
21
-3.0746
0
LINE
8
BLACK
6
CONTINUOUS
10
4.34716
20
-3.0746
11
4.34769
21
-3.08
0
LINE
8
BLACK
6
CONTINUOUS
10
4.34769
20
-3.08
11
4.34716
21
-3.0854
0
LINE
8
BLACK
6
CONTINUOUS
10
4.34716
20
-3.0854
11
4.34558
21
-3.0906
0
LINE
8
BLACK
6
CONTINUOUS
10
4.34558
20
-3.0906
11
4.34303
21
-3.09539
0
LINE
8
BLACK
6
CONTINUOUS
10
4.34303
20
-3.09539
11
4.33958
21
-3.09958
0
LINE
8
BLACK
6
CONTINUOUS
10
4.33958
20
-3.09958
11
4.33539
21
-3.10303
0
LINE
8
BLACK
6
CONTINUOUS
10
4.33539
20
-3.10303
11
4.3306
21
-3.10558
0
LINE
8
BLACK
6
CONTINUOUS
10
4.3306
20
-3.10558
11
4.3254
21
-3.10716
0
LINE
8
BLACK
6
CONTINUOUS
10
4.3254
20
-3.10716
11
4.32135
21
-3.10756
0
LINE
8
BLACK
6
CONTINUOUS
10
4.32135
20
-3.10756
11
4.31865
21
-3.10756
0
LINE
8
BLACK
6
CONTINUOUS
10
4.31865
20
-3.10756
11
4.3146
21
-3.10716
0
LINE
8
BLACK
6
CONTINUOUS
10
4.3146
20
-3.10716
11
4.3094
21
-3.10558
0
LINE
8
BLACK
6
CONTINUOUS
10
4.3094
20
-3.10558
11
4.30461
21
-3.10303
0
LINE
8
BLACK
6
CONTINUOUS
10
4.30461
20
-3.10303
11
4.30042
21
-3.09958
0
LINE
8
BLACK
6
CONTINUOUS
10
4.30042
20
-3.09958
11
4.29697
21
-3.09539
0
LINE
8
BLACK
6
CONTINUOUS
10
4.29697
20
-3.09539
11
4.29442
21
-3.0906
0
LINE
8
BLACK
6
CONTINUOUS
10
4.29442
20
-3.0906
11
4.29284
21
-3.0854
0
LINE
8
BLACK
6
CONTINUOUS
10
4.29284
20
-3.0854
11
4.29231
21
-3.08
0
LINE
8
BLACK
6
CONTINUOUS
10
4.29231
20
-3.08
11
4.29284
21
-3.0746
0
LINE
8
BLACK
6
CONTINUOUS
10
4.29284
20
-3.0746
11
4.29442
21
-3.0694
0
LINE
8
BLACK
6
CONTINUOUS
10
4.29442
20
-3.0694
11
4.29697
21
-3.06461
0
LINE
8
BLACK
6
CONTINUOUS
10
4.29697
20
-3.06461
11
4.30042
21
-3.06042
0
LINE
8
BLACK
6
CONTINUOUS
10
4.30042
20
-3.06042
11
4.30461
21
-3.05697
0
LINE
8
BLACK
6
CONTINUOUS
10
4.30461
20
-3.05697
11
4.3094
21
-3.05442
0
LINE
8
BLACK
6
CONTINUOUS
10
4.3094
20
-3.05442
11
4.3146
21
-3.05284
0
LINE
8
BLACK
6
CONTINUOUS
10
4.3146
20
-3.05284
11
4.31865
21
-3.05244
0
LINE
8
BLACK
6
CONTINUOUS
10
4.31865
20
-3.05244
11
4.32135
21
-3.05244
0
LINE
8
BLACK
6
CONTINUOUS
10
4.32135
20
-3.05244
11
4.3254
21
-3.05284
0
LINE
8
BLACK
6
CONTINUOUS
10
4.22804
20
-3.0535
11
4.23305
21
-3.05558
0
LINE
8
BLACK
6
CONTINUOUS
10
4.23305
20
-3.05558
11
4.23757
21
-3.05859
0
LINE
8
BLACK
6
CONTINUOUS
10
4.23757
20
-3.05859
11
4.24141
21
-3.06243
0
LINE
8
BLACK
6
CONTINUOUS
10
4.24141
20
-3.06243
11
4.24442
21
-3.06695
0
LINE
8
BLACK
6
CONTINUOUS
10
4.24442
20
-3.06695
11
4.2465
21
-3.07196
0
LINE
8
BLACK
6
CONTINUOUS
10
4.2465
20
-3.07196
11
4.24756
21
-3.07729
0
LINE
8
BLACK
6
CONTINUOUS
10
4.24756
20
-3.07729
11
4.24756
21
-3.08271
0
LINE
8
BLACK
6
CONTINUOUS
10
4.24756
20
-3.08271
11
4.2465
21
-3.08804
0
LINE
8
BLACK
6
CONTINUOUS
10
4.2465
20
-3.08804
11
4.24442
21
-3.09305
0
LINE
8
BLACK
6
CONTINUOUS
10
4.24442
20
-3.09305
11
4.24141
21
-3.09757
0
LINE
8
BLACK
6
CONTINUOUS
10
4.24141
20
-3.09757
11
4.23757
21
-3.10141
0
LINE
8
BLACK
6
CONTINUOUS
10
4.23757
20
-3.10141
11
4.23305
21
-3.10442
0
LINE
8
BLACK
6
CONTINUOUS
10
4.23305
20
-3.10442
11
4.22804
21
-3.1065
0
LINE
8
BLACK
6
CONTINUOUS
10
4.22804
20
-3.1065
11
4.22271
21
-3.10756
0
LINE
8
BLACK
6
CONTINUOUS
10
4.22271
20
-3.10756
11
4.21729
21
-3.10756
0
LINE
8
BLACK
6
CONTINUOUS
10
4.21729
20
-3.10756
11
4.21196
21
-3.1065
0
LINE
8
BLACK
6
CONTINUOUS
10
4.21196
20
-3.1065
11
4.20695
21
-3.10442
0
LINE
8
BLACK
6
CONTINUOUS
10
4.20695
20
-3.10442
11
4.20243
21
-3.10141
0
LINE
8
BLACK
6
CONTINUOUS
10
4.20243
20
-3.10141
11
4.19859
21
-3.09757
0
LINE
8
BLACK
6
CONTINUOUS
10
4.19859
20
-3.09757
11
4.19558
21
-3.09305
0
LINE
8
BLACK
6
CONTINUOUS
10
4.19558
20
-3.09305
11
4.1935
21
-3.08804
0
LINE
8
BLACK
6
CONTINUOUS
10
4.1935
20
-3.08804
11
4.19244
21
-3.08271
0
LINE
8
BLACK
6
CONTINUOUS
10
4.19244
20
-3.08271
11
4.19244
21
-3.07729
0
LINE
8
BLACK
6
CONTINUOUS
10
4.19244
20
-3.07729
11
4.1935
21
-3.07196
0
LINE
8
BLACK
6
CONTINUOUS
10
4.1935
20
-3.07196
11
4.19558
21
-3.06695
0
LINE
8
BLACK
6
CONTINUOUS
10
4.19558
20
-3.06695
11
4.19859
21
-3.06243
0
LINE
8
BLACK
6
CONTINUOUS
10
4.19859
20
-3.06243
11
4.20243
21
-3.05859
0
LINE
8
BLACK
6
CONTINUOUS
10
4.20243
20
-3.05859
11
4.20695
21
-3.05558
0
LINE
8
BLACK
6
CONTINUOUS
10
4.20695
20
-3.05558
11
4.21196
21
-3.0535
0
LINE
8
BLACK
6
CONTINUOUS
10
4.21196
20
-3.0535
11
4.21729
21
-3.05244
0
LINE
8
BLACK
6
CONTINUOUS
10
4.21729
20
-3.05244
11
4.22271
21
-3.05244
0
LINE
8
BLACK
6
CONTINUOUS
10
4.22271
20
-3.05244
11
4.22804
21
-3.0535
0
LINE
8
BLACK
6
CONTINUOUS
10
3.83377
20
-2.92498
11
3.8404
21
-2.92773
0
LINE
8
BLACK
6
CONTINUOUS
10
3.8404
20
-2.92773
11
3.84636
21
-2.93171
0
LINE
8
BLACK
6
CONTINUOUS
10
3.84636
20
-2.93171
11
3.85144
21
-2.93679
0
LINE
8
BLACK
6
CONTINUOUS
10
3.85144
20
-2.93679
11
3.85542
21
-2.94275
0
LINE
8
BLACK
6
CONTINUOUS
10
3.85542
20
-2.94275
11
3.85817
21
-2.94938
0
LINE
8
BLACK
6
CONTINUOUS
10
3.85817
20
-2.94938
11
3.85957
21
-2.95641
0
LINE
8
BLACK
6
CONTINUOUS
10
3.85957
20
-2.95641
11
3.85957
21
-2.96359
0
LINE
8
BLACK
6
CONTINUOUS
10
3.85957
20
-2.96359
11
3.85817
21
-2.97062
0
LINE
8
BLACK
6
CONTINUOUS
10
3.85817
20
-2.97062
11
3.85542
21
-2.97725
0
LINE
8
BLACK
6
CONTINUOUS
10
3.85542
20
-2.97725
11
3.85144
21
-2.98321
0
LINE
8
BLACK
6
CONTINUOUS
10
3.85144
20
-2.98321
11
3.84636
21
-2.98829
0
LINE
8
BLACK
6
CONTINUOUS
10
3.84636
20
-2.98829
11
3.8404
21
-2.99227
0
LINE
8
BLACK
6
CONTINUOUS
10
3.8404
20
-2.99227
11
3.83377
21
-2.99502
0
LINE
8
BLACK
6
CONTINUOUS
10
3.83377
20
-2.99502
11
3.82674
21
-2.99642
0
LINE
8
BLACK
6
CONTINUOUS
10
3.82674
20
-2.99642
11
3.81956
21
-2.99642
0
LINE
8
BLACK
6
CONTINUOUS
10
3.81956
20
-2.99642
11
3.81253
21
-2.99502
0
LINE
8
BLACK
6
CONTINUOUS
10
3.81253
20
-2.99502
11
3.8059
21
-2.99227
0
LINE
8
BLACK
6
CONTINUOUS
10
3.8059
20
-2.99227
11
3.79993
21
-2.98829
0
LINE
8
BLACK
6
CONTINUOUS
10
3.79993
20
-2.98829
11
3.79486
21
-2.98321
0
LINE
8
BLACK
6
CONTINUOUS
10
3.79486
20
-2.98321
11
3.79088
21
-2.97725
0
LINE
8
BLACK
6
CONTINUOUS
10
3.79088
20
-2.97725
11
3.78813
21
-2.97062
0
LINE
8
BLACK
6
CONTINUOUS
10
3.78813
20
-2.97062
11
3.78673
21
-2.96359
0
LINE
8
BLACK
6
CONTINUOUS
10
3.78673
20
-2.96359
11
3.78673
21
-2.95641
0
LINE
8
BLACK
6
CONTINUOUS
10
3.78673
20
-2.95641
11
3.78813
21
-2.94938
0
LINE
8
BLACK
6
CONTINUOUS
10
3.78813
20
-2.94938
11
3.79088
21
-2.94275
0
LINE
8
BLACK
6
CONTINUOUS
10
3.79088
20
-2.94275
11
3.79486
21
-2.93679
0
LINE
8
BLACK
6
CONTINUOUS
10
3.79486
20
-2.93679
11
3.79993
21
-2.93171
0
LINE
8
BLACK
6
CONTINUOUS
10
3.79993
20
-2.93171
11
3.8059
21
-2.92773
0
LINE
8
BLACK
6
CONTINUOUS
10
3.8059
20
-2.92773
11
3.81253
21
-2.92498
0
LINE
8
BLACK
6
CONTINUOUS
10
3.81253
20
-2.92498
11
3.81956
21
-2.92358
0
LINE
8
BLACK
6
CONTINUOUS
10
3.81956
20
-2.92358
11
3.82674
21
-2.92358
0
LINE
8
BLACK
6
CONTINUOUS
10
3.82674
20
-2.92358
11
3.83377
21
-2.92498
0
LINE
8
BLACK
6
CONTINUOUS
10
4.05642
20
-2.99642
11
3.98358
21
-2.99642
0
LINE
8
BLACK
6
CONTINUOUS
10
3.98358
20
-2.99642
11
3.98358
21
-2.92358
0
LINE
8
BLACK
6
CONTINUOUS
10
3.98358
20
-2.92358
11
4.05642
21
-2.92358
0
LINE
8
BLACK
6
CONTINUOUS
10
4.05642
20
-2.92358
11
4.05642
21
-2.99642
0
LINE
8
BLACK
6
CONTINUOUS
10
3.9322
20
-2.92498
11
3.93882
21
-2.92773
0
LINE
8
BLACK
6
CONTINUOUS
10
3.93882
20
-2.92773
11
3.94479
21
-2.93171
0
LINE
8
BLACK
6
CONTINUOUS
10
3.94479
20
-2.93171
11
3.94986
21
-2.93679
0
LINE
8
BLACK
6
CONTINUOUS
10
3.94986
20
-2.93679
11
3.95385
21
-2.94275
0
LINE
8
BLACK
6
CONTINUOUS
10
3.95385
20
-2.94275
11
3.95659
21
-2.94938
0
LINE
8
BLACK
6
CONTINUOUS
10
3.95659
20
-2.94938
11
3.95799
21
-2.95641
0
LINE
8
BLACK
6
CONTINUOUS
10
3.95799
20
-2.95641
11
3.95799
21
-2.96359
0
LINE
8
BLACK
6
CONTINUOUS
10
3.95799
20
-2.96359
11
3.95659
21
-2.97062
0
LINE
8
BLACK
6
CONTINUOUS
10
3.95659
20
-2.97062
11
3.95385
21
-2.97725
0
LINE
8
BLACK
6
CONTINUOUS
10
3.95385
20
-2.97725
11
3.94986
21
-2.98321
0
LINE
8
BLACK
6
CONTINUOUS
10
3.94986
20
-2.98321
11
3.94479
21
-2.98829
0
LINE
8
BLACK
6
CONTINUOUS
10
3.94479
20
-2.98829
11
3.93882
21
-2.99227
0
LINE
8
BLACK
6
CONTINUOUS
10
3.93882
20
-2.99227
11
3.9322
21
-2.99502
0
LINE
8
BLACK
6
CONTINUOUS
10
3.9322
20
-2.99502
11
3.92516
21
-2.99642
0
LINE
8
BLACK
6
CONTINUOUS
10
3.92516
20
-2.99642
11
3.91799
21
-2.99642
0
LINE
8
BLACK
6
CONTINUOUS
10
3.91799
20
-2.99642
11
3.91095
21
-2.99502
0
LINE
8
BLACK
6
CONTINUOUS
10
3.91095
20
-2.99502
11
3.90432
21
-2.99227
0
LINE
8
BLACK
6
CONTINUOUS
10
3.90432
20
-2.99227
11
3.89836
21
-2.98829
0
LINE
8
BLACK
6
CONTINUOUS
10
3.89836
20
-2.98829
11
3.89329
21
-2.98321
0
LINE
8
BLACK
6
CONTINUOUS
10
3.89329
20
-2.98321
11
3.8893
21
-2.97725
0
LINE
8
BLACK
6
CONTINUOUS
10
3.8893
20
-2.97725
11
3.88656
21
-2.97062
0
LINE
8
BLACK
6
CONTINUOUS
10
3.88656
20
-2.97062
11
3.88516
21
-2.96359
0
LINE
8
BLACK
6
CONTINUOUS
10
3.88516
20
-2.96359
11
3.88516
21
-2.95641
0
LINE
8
BLACK
6
CONTINUOUS
10
3.88516
20
-2.95641
11
3.88656
21
-2.94938
0
LINE
8
BLACK
6
CONTINUOUS
10
3.88656
20
-2.94938
11
3.8893
21
-2.94275
0
LINE
8
BLACK
6
CONTINUOUS
10
3.8893
20
-2.94275
11
3.89329
21
-2.93679
0
LINE
8
BLACK
6
CONTINUOUS
10
3.89329
20
-2.93679
11
3.89836
21
-2.93171
0
LINE
8
BLACK
6
CONTINUOUS
10
3.89836
20
-2.93171
11
3.90432
21
-2.92773
0
LINE
8
BLACK
6
CONTINUOUS
10
3.90432
20
-2.92773
11
3.91095
21
-2.92498
0
LINE
8
BLACK
6
CONTINUOUS
10
3.91095
20
-2.92498
11
3.91799
21
-2.92358
0
LINE
8
BLACK
6
CONTINUOUS
10
3.91799
20
-2.92358
11
3.92516
21
-2.92358
0
LINE
8
BLACK
6
CONTINUOUS
10
3.92516
20
-2.92358
11
3.9322
21
-2.92498
0
LINE
8
BLACK
6
CONTINUOUS
10
4.61906
20
-2.97906
11
4.50094
21
-2.97906
0
LINE
8
BLACK
6
CONTINUOUS
10
4.50094
20
-2.97906
11
4.50094
21
-2.86094
0
LINE
8
BLACK
6
CONTINUOUS
10
4.50094
20
-2.86094
11
4.61906
21
-2.86094
0
LINE
8
BLACK
6
CONTINUOUS
10
4.61906
20
-2.86094
11
4.61906
21
-2.97906
  0
ENDSEC
  0
EOF
