  0
SECTION
  2
HEADER
  9
$ANGBASE
  50
0.0
  9
$ANGDIR
  70
1
  9
$MEASUREMENT
  70
0
  0
ENDSEC
  0
SECTION
  2
TABLES
  0
TABLE
  2
LTYPE
  70
4
  0
LTYPE
  5
40F
  2
CONTINUOUS
  70
0
  3
Solid line
  72
65
  73
0
  40
0.0
  0
LTYPE
  5
410
  2
DASHDOT
 70
0
  3
Dash Dot ____ _ ____ _
 72
65
 73
4
 40
2.0
 49
1.25
 49
-0.25
 49
0.25
 49
-0.25
  0
LTYPE
  5
411
  2
DASHED
 70
0
  3
Dashed __ __ __ __ __
 72
65
 73
2
 40
0.75
 49
0.5
 49
-0.25
  0
LTYPE
  5
43B
  2
DOTTED
 70
0
  3
Dotted .  .  .  .
 72
65
 73
2
 40
0.2
 49
0.0
 49
-0.2
  0
ENDTAB
  0
TABLE
  2
STYLE
  70
4
  0
STYLE
  2
KICAD
  70
0
  40
0
  41
1
  42
1
  50
0
  71
0
  3
isocp.shx
  0
STYLE
  2
KICADB
  70
0
  40
0
  41
1
  42
1
  50
0
  71
0
  3
isocp.shx
  0
STYLE
  2
KICADI
  70
0
  40
0
  41
1
  42
1
  50
15
  71
0
  3
isocp.shx
  0
STYLE
  2
KICADBI
  70
0
  40
0
  41
1
  42
1
  50
15
  71
0
  3
isocp.shx
  0
ENDTAB
  0
TABLE
  2
LAYER
  70
1
  0
LAYER
  2
BLACK
  70
0
  62
7
  6
CONTINUOUS
  0
ENDTAB
  0
ENDSEC
  0
SECTION
  2
ENTITIES
0
LINE
8
BLACK
6
CONTINUOUS
10
4.57723
20
-3.06321
11
4.58797
21
-3.06767
0
LINE
8
BLACK
6
CONTINUOUS
10
4.58797
20
-3.06767
11
4.59765
21
-3.07413
0
LINE
8
BLACK
6
CONTINUOUS
10
4.59765
20
-3.07413
11
4.60587
21
-3.08235
0
LINE
8
BLACK
6
CONTINUOUS
10
4.60587
20
-3.08235
11
4.61233
21
-3.09203
0
LINE
8
BLACK
6
CONTINUOUS
10
4.61233
20
-3.09203
11
4.61414
21
-3.09638
0
LINE
8
BLACK
6
CONTINUOUS
10
4.61414
20
-3.09638
11
4.65884
21
-3.09638
0
LINE
8
BLACK
6
CONTINUOUS
10
4.65884
20
-3.09638
11
4.66
21
-3.09626
0
LINE
8
BLACK
6
CONTINUOUS
10
4.66
20
-3.09626
11
4.66116
21
-3.09638
0
LINE
8
BLACK
6
CONTINUOUS
10
4.66116
20
-3.09638
11
4.66463
21
-3.09672
0
LINE
8
BLACK
6
CONTINUOUS
10
4.66463
20
-3.09672
11
4.66908
21
-3.09807
0
LINE
8
BLACK
6
CONTINUOUS
10
4.66908
20
-3.09807
11
4.67319
21
-3.10026
0
LINE
8
BLACK
6
CONTINUOUS
10
4.67319
20
-3.10026
11
4.67678
21
-3.10322
0
LINE
8
BLACK
6
CONTINUOUS
10
4.67678
20
-3.10322
11
4.67752
21
-3.10412
0
LINE
8
BLACK
6
CONTINUOUS
10
4.67752
20
-3.10412
11
4.69588
21
-3.12248
0
LINE
8
BLACK
6
CONTINUOUS
10
4.69588
20
-3.12248
11
4.69678
21
-3.12322
0
LINE
8
BLACK
6
CONTINUOUS
10
4.69678
20
-3.12322
11
4.69974
21
-3.12681
0
LINE
8
BLACK
6
CONTINUOUS
10
4.69974
20
-3.12681
11
4.70193
21
-3.13092
0
LINE
8
BLACK
6
CONTINUOUS
10
4.70193
20
-3.13092
11
4.70328
21
-3.13537
0
LINE
8
BLACK
6
CONTINUOUS
10
4.70328
20
-3.13537
11
4.70362
21
-3.13884
0
LINE
8
BLACK
6
CONTINUOUS
10
4.70362
20
-3.13884
11
4.70362
21
-3.13884
0
LINE
8
BLACK
6
CONTINUOUS
10
4.70362
20
-3.13884
11
4.70374
21
-3.14
0
LINE
8
BLACK
6
CONTINUOUS
10
4.70374
20
-3.14
11
4.70362
21
-3.14116
0
LINE
8
BLACK
6
CONTINUOUS
10
4.70362
20
-3.14116
11
4.70362
21
-3.47884
0
LINE
8
BLACK
6
CONTINUOUS
10
4.70362
20
-3.47884
11
4.70374
21
-3.48
0
LINE
8
BLACK
6
CONTINUOUS
10
4.70374
20
-3.48
11
4.70362
21
-3.48116
0
LINE
8
BLACK
6
CONTINUOUS
10
4.70362
20
-3.48116
11
4.70328
21
-3.48463
0
LINE
8
BLACK
6
CONTINUOUS
10
4.70328
20
-3.48463
11
4.70193
21
-3.48908
0
LINE
8
BLACK
6
CONTINUOUS
10
4.70193
20
-3.48908
11
4.69974
21
-3.49319
0
LINE
8
BLACK
6
CONTINUOUS
10
4.69974
20
-3.49319
11
4.69678
21
-3.49678
0
LINE
8
BLACK
6
CONTINUOUS
10
4.69678
20
-3.49678
11
4.69588
21
-3.49752
0
LINE
8
BLACK
6
CONTINUOUS
10
4.69588
20
-3.49752
11
4.61498
21
-3.57842
0
LINE
8
BLACK
6
CONTINUOUS
10
4.61498
20
-3.57842
11
4.61679
21
-3.58277
0
LINE
8
BLACK
6
CONTINUOUS
10
4.61679
20
-3.58277
11
4.61906
21
-3.59418
0
LINE
8
BLACK
6
CONTINUOUS
10
4.61906
20
-3.59418
11
4.61906
21
-3.60582
0
LINE
8
BLACK
6
CONTINUOUS
10
4.61906
20
-3.60582
11
4.61679
21
-3.61723
0
LINE
8
BLACK
6
CONTINUOUS
10
4.61679
20
-3.61723
11
4.61233
21
-3.62797
0
LINE
8
BLACK
6
CONTINUOUS
10
4.61233
20
-3.62797
11
4.60587
21
-3.63765
0
LINE
8
BLACK
6
CONTINUOUS
10
4.60587
20
-3.63765
11
4.59765
21
-3.64587
0
LINE
8
BLACK
6
CONTINUOUS
10
4.59765
20
-3.64587
11
4.58797
21
-3.65233
0
LINE
8
BLACK
6
CONTINUOUS
10
4.58797
20
-3.65233
11
4.57723
21
-3.65679
0
LINE
8
BLACK
6
CONTINUOUS
10
4.57723
20
-3.65679
11
4.56582
21
-3.65906
0
LINE
8
BLACK
6
CONTINUOUS
10
4.56582
20
-3.65906
11
4.55418
21
-3.65906
0
LINE
8
BLACK
6
CONTINUOUS
10
4.55418
20
-3.65906
11
4.54277
21
-3.65679
0
LINE
8
BLACK
6
CONTINUOUS
10
4.54277
20
-3.65679
11
4.53203
21
-3.65233
0
LINE
8
BLACK
6
CONTINUOUS
10
4.53203
20
-3.65233
11
4.52235
21
-3.64587
0
LINE
8
BLACK
6
CONTINUOUS
10
4.52235
20
-3.64587
11
4.51413
21
-3.63765
0
LINE
8
BLACK
6
CONTINUOUS
10
4.51413
20
-3.63765
11
4.50767
21
-3.62797
0
LINE
8
BLACK
6
CONTINUOUS
10
4.50767
20
-3.62797
11
4.50321
21
-3.61723
0
LINE
8
BLACK
6
CONTINUOUS
10
4.50321
20
-3.61723
11
4.50094
21
-3.60582
0
LINE
8
BLACK
6
CONTINUOUS
10
4.50094
20
-3.60582
11
4.50094
21
-3.59418
0
LINE
8
BLACK
6
CONTINUOUS
10
4.50094
20
-3.59418
11
4.50321
21
-3.58277
0
LINE
8
BLACK
6
CONTINUOUS
10
4.50321
20
-3.58277
11
4.50502
21
-3.57842
0
LINE
8
BLACK
6
CONTINUOUS
10
4.50502
20
-3.57842
11
4.39022
21
-3.46362
0
LINE
8
BLACK
6
CONTINUOUS
10
4.39022
20
-3.46362
11
4.31937
21
-3.46362
0
LINE
8
BLACK
6
CONTINUOUS
10
4.31937
20
-3.46362
11
4.31937
21
-3.47937
0
LINE
8
BLACK
6
CONTINUOUS
10
4.31937
20
-3.47937
11
4.24063
21
-3.47937
0
LINE
8
BLACK
6
CONTINUOUS
10
4.24063
20
-3.47937
11
4.24063
21
-3.46362
0
LINE
8
BLACK
6
CONTINUOUS
10
4.24063
20
-3.46362
11
4.09414
21
-3.46362
0
LINE
8
BLACK
6
CONTINUOUS
10
4.09414
20
-3.46362
11
4.09233
21
-3.46797
0
LINE
8
BLACK
6
CONTINUOUS
10
4.09233
20
-3.46797
11
4.08587
21
-3.47765
0
LINE
8
BLACK
6
CONTINUOUS
10
4.08587
20
-3.47765
11
4.07765
21
-3.48587
0
LINE
8
BLACK
6
CONTINUOUS
10
4.07765
20
-3.48587
11
4.06797
21
-3.49233
0
LINE
8
BLACK
6
CONTINUOUS
10
4.06797
20
-3.49233
11
4.05723
21
-3.49679
0
LINE
8
BLACK
6
CONTINUOUS
10
4.05723
20
-3.49679
11
4.04582
21
-3.49906
0
LINE
8
BLACK
6
CONTINUOUS
10
4.04582
20
-3.49906
11
4.03418
21
-3.49906
0
LINE
8
BLACK
6
CONTINUOUS
10
4.03418
20
-3.49906
11
4.02277
21
-3.49679
0
LINE
8
BLACK
6
CONTINUOUS
10
4.02277
20
-3.49679
11
4.01203
21
-3.49233
0
LINE
8
BLACK
6
CONTINUOUS
10
4.01203
20
-3.49233
11
4.00235
21
-3.48587
0
LINE
8
BLACK
6
CONTINUOUS
10
4.00235
20
-3.48587
11
3.99413
21
-3.47765
0
LINE
8
BLACK
6
CONTINUOUS
10
3.99413
20
-3.47765
11
3.98767
21
-3.46797
0
LINE
8
BLACK
6
CONTINUOUS
10
3.98767
20
-3.46797
11
3.98321
21
-3.45723
0
LINE
8
BLACK
6
CONTINUOUS
10
3.98321
20
-3.45723
11
3.98094
21
-3.44582
0
LINE
8
BLACK
6
CONTINUOUS
10
3.98094
20
-3.44582
11
3.98094
21
-3.43418
0
LINE
8
BLACK
6
CONTINUOUS
10
3.98094
20
-3.43418
11
3.98321
21
-3.42277
0
LINE
8
BLACK
6
CONTINUOUS
10
3.98321
20
-3.42277
11
3.98502
21
-3.41842
0
LINE
8
BLACK
6
CONTINUOUS
10
3.98502
20
-3.41842
11
3.87585
21
-3.30926
0
LINE
8
BLACK
6
CONTINUOUS
10
3.87585
20
-3.30926
11
3.87578
21
-3.30936
0
LINE
8
BLACK
6
CONTINUOUS
10
3.87578
20
-3.30936
11
3.86936
21
-3.31578
0
LINE
8
BLACK
6
CONTINUOUS
10
3.86936
20
-3.31578
11
3.86182
21
-3.32082
0
LINE
8
BLACK
6
CONTINUOUS
10
3.86182
20
-3.32082
11
3.85344
21
-3.32429
0
LINE
8
BLACK
6
CONTINUOUS
10
3.85344
20
-3.32429
11
3.84454
21
-3.32606
0
LINE
8
BLACK
6
CONTINUOUS
10
3.84454
20
-3.32606
11
3.83546
21
-3.32606
0
LINE
8
BLACK
6
CONTINUOUS
10
3.83546
20
-3.32606
11
3.82869
21
-3.32472
0
LINE
8
BLACK
6
CONTINUOUS
10
3.82869
20
-3.32472
11
3.81752
21
-3.33588
0
LINE
8
BLACK
6
CONTINUOUS
10
3.81752
20
-3.33588
11
3.81678
21
-3.33678
0
LINE
8
BLACK
6
CONTINUOUS
10
3.81678
20
-3.33678
11
3.81319
21
-3.33974
0
LINE
8
BLACK
6
CONTINUOUS
10
3.81319
20
-3.33974
11
3.80908
21
-3.34193
0
LINE
8
BLACK
6
CONTINUOUS
10
3.80908
20
-3.34193
11
3.80463
21
-3.34328
0
LINE
8
BLACK
6
CONTINUOUS
10
3.80463
20
-3.34328
11
3.80116
21
-3.34362
0
LINE
8
BLACK
6
CONTINUOUS
10
3.80116
20
-3.34362
11
3.8
21
-3.34374
0
LINE
8
BLACK
6
CONTINUOUS
10
3.8
20
-3.34374
11
3.79884
21
-3.34362
0
LINE
8
BLACK
6
CONTINUOUS
10
3.79884
20
-3.34362
11
3.55906
21
-3.34362
0
LINE
8
BLACK
6
CONTINUOUS
10
3.55906
20
-3.34362
11
3.55906
21
-3.37906
0
LINE
8
BLACK
6
CONTINUOUS
10
3.55906
20
-3.37906
11
3.44094
21
-3.37906
0
LINE
8
BLACK
6
CONTINUOUS
10
3.44094
20
-3.37906
11
3.44094
21
-3.26094
0
LINE
8
BLACK
6
CONTINUOUS
10
3.44094
20
-3.26094
11
3.55906
21
-3.26094
0
LINE
8
BLACK
6
CONTINUOUS
10
3.55906
20
-3.26094
11
3.55906
21
-3.29638
0
LINE
8
BLACK
6
CONTINUOUS
10
3.55906
20
-3.29638
11
3.79022
21
-3.29638
0
LINE
8
BLACK
6
CONTINUOUS
10
3.79022
20
-3.29638
11
3.79528
21
-3.29131
0
LINE
8
BLACK
6
CONTINUOUS
10
3.79528
20
-3.29131
11
3.79394
21
-3.28454
0
LINE
8
BLACK
6
CONTINUOUS
10
3.79394
20
-3.28454
11
3.79394
21
-3.27546
0
LINE
8
BLACK
6
CONTINUOUS
10
3.79394
20
-3.27546
11
3.79571
21
-3.26656
0
LINE
8
BLACK
6
CONTINUOUS
10
3.79571
20
-3.26656
11
3.79918
21
-3.25818
0
LINE
8
BLACK
6
CONTINUOUS
10
3.79918
20
-3.25818
11
3.80422
21
-3.25064
0
LINE
8
BLACK
6
CONTINUOUS
10
3.80422
20
-3.25064
11
3.81064
21
-3.24422
0
LINE
8
BLACK
6
CONTINUOUS
10
3.81064
20
-3.24422
11
3.81818
21
-3.23918
0
LINE
8
BLACK
6
CONTINUOUS
10
3.81818
20
-3.23918
11
3.82656
21
-3.23571
0
LINE
8
BLACK
6
CONTINUOUS
10
3.82656
20
-3.23571
11
3.83546
21
-3.23394
0
LINE
8
BLACK
6
CONTINUOUS
10
3.83546
20
-3.23394
11
3.84454
21
-3.23394
0
LINE
8
BLACK
6
CONTINUOUS
10
3.84454
20
-3.23394
11
3.85344
21
-3.23571
0
LINE
8
BLACK
6
CONTINUOUS
10
3.85344
20
-3.23571
11
3.86182
21
-3.23918
0
LINE
8
BLACK
6
CONTINUOUS
10
3.86182
20
-3.23918
11
3.86936
21
-3.24422
0
LINE
8
BLACK
6
CONTINUOUS
10
3.86936
20
-3.24422
11
3.87578
21
-3.25064
0
LINE
8
BLACK
6
CONTINUOUS
10
3.87578
20
-3.25064
11
3.87957
21
-3.25631
0
LINE
8
BLACK
6
CONTINUOUS
10
3.87957
20
-3.25631
11
3.88
21
-3.25626
0
LINE
8
BLACK
6
CONTINUOUS
10
3.88
20
-3.25626
11
3.88116
21
-3.25638
0
LINE
8
BLACK
6
CONTINUOUS
10
3.88116
20
-3.25638
11
3.88463
21
-3.25672
0
LINE
8
BLACK
6
CONTINUOUS
10
3.88463
20
-3.25672
11
3.88908
21
-3.25807
0
LINE
8
BLACK
6
CONTINUOUS
10
3.88908
20
-3.25807
11
3.89319
21
-3.26026
0
LINE
8
BLACK
6
CONTINUOUS
10
3.89319
20
-3.26026
11
3.89678
21
-3.26322
0
LINE
8
BLACK
6
CONTINUOUS
10
3.89678
20
-3.26322
11
3.89752
21
-3.26412
0
LINE
8
BLACK
6
CONTINUOUS
10
3.89752
20
-3.26412
11
4.01842
21
-3.38502
0
LINE
8
BLACK
6
CONTINUOUS
10
4.01842
20
-3.38502
11
4.02277
21
-3.38321
0
LINE
8
BLACK
6
CONTINUOUS
10
4.02277
20
-3.38321
11
4.03418
21
-3.38094
0
LINE
8
BLACK
6
CONTINUOUS
10
4.03418
20
-3.38094
11
4.04582
21
-3.38094
0
LINE
8
BLACK
6
CONTINUOUS
10
4.04582
20
-3.38094
11
4.05723
21
-3.38321
0
LINE
8
BLACK
6
CONTINUOUS
10
4.05723
20
-3.38321
11
4.06797
21
-3.38767
0
LINE
8
BLACK
6
CONTINUOUS
10
4.06797
20
-3.38767
11
4.07765
21
-3.39413
0
LINE
8
BLACK
6
CONTINUOUS
10
4.07765
20
-3.39413
11
4.08587
21
-3.40235
0
LINE
8
BLACK
6
CONTINUOUS
10
4.08587
20
-3.40235
11
4.09233
21
-3.41203
0
LINE
8
BLACK
6
CONTINUOUS
10
4.09233
20
-3.41203
11
4.09414
21
-3.41638
0
LINE
8
BLACK
6
CONTINUOUS
10
4.09414
20
-3.41638
11
4.24063
21
-3.41638
0
LINE
8
BLACK
6
CONTINUOUS
10
4.24063
20
-3.41638
11
4.24063
21
-3.40063
0
LINE
8
BLACK
6
CONTINUOUS
10
4.24063
20
-3.40063
11
4.31937
21
-3.40063
0
LINE
8
BLACK
6
CONTINUOUS
10
4.31937
20
-3.40063
11
4.31937
21
-3.41638
0
LINE
8
BLACK
6
CONTINUOUS
10
4.31937
20
-3.41638
11
4.39884
21
-3.41638
0
LINE
8
BLACK
6
CONTINUOUS
10
4.39884
20
-3.41638
11
4.4
21
-3.41626
0
LINE
8
BLACK
6
CONTINUOUS
10
4.4
20
-3.41626
11
4.40116
21
-3.41638
0
LINE
8
BLACK
6
CONTINUOUS
10
4.40116
20
-3.41638
11
4.40463
21
-3.41672
0
LINE
8
BLACK
6
CONTINUOUS
10
4.40463
20
-3.41672
11
4.40908
21
-3.41807
0
LINE
8
BLACK
6
CONTINUOUS
10
4.40908
20
-3.41807
11
4.41319
21
-3.42026
0
LINE
8
BLACK
6
CONTINUOUS
10
4.41319
20
-3.42026
11
4.41678
21
-3.42322
0
LINE
8
BLACK
6
CONTINUOUS
10
4.41678
20
-3.42322
11
4.41752
21
-3.42412
0
LINE
8
BLACK
6
CONTINUOUS
10
4.41752
20
-3.42412
11
4.53842
21
-3.54502
0
LINE
8
BLACK
6
CONTINUOUS
10
4.53842
20
-3.54502
11
4.54277
21
-3.54321
0
LINE
8
BLACK
6
CONTINUOUS
10
4.54277
20
-3.54321
11
4.55418
21
-3.54094
0
LINE
8
BLACK
6
CONTINUOUS
10
4.55418
20
-3.54094
11
4.56582
21
-3.54094
0
LINE
8
BLACK
6
CONTINUOUS
10
4.56582
20
-3.54094
11
4.57723
21
-3.54321
0
LINE
8
BLACK
6
CONTINUOUS
10
4.57723
20
-3.54321
11
4.58158
21
-3.54502
0
LINE
8
BLACK
6
CONTINUOUS
10
4.58158
20
-3.54502
11
4.65638
21
-3.47022
0
LINE
8
BLACK
6
CONTINUOUS
10
4.65638
20
-3.47022
11
4.65638
21
-3.14978
0
LINE
8
BLACK
6
CONTINUOUS
10
4.65638
20
-3.14978
11
4.65022
21
-3.14362
0
LINE
8
BLACK
6
CONTINUOUS
10
4.65022
20
-3.14362
11
4.61414
21
-3.14362
0
LINE
8
BLACK
6
CONTINUOUS
10
4.61414
20
-3.14362
11
4.61233
21
-3.14797
0
LINE
8
BLACK
6
CONTINUOUS
10
4.61233
20
-3.14797
11
4.60587
21
-3.15765
0
LINE
8
BLACK
6
CONTINUOUS
10
4.60587
20
-3.15765
11
4.59765
21
-3.16587
0
LINE
8
BLACK
6
CONTINUOUS
10
4.59765
20
-3.16587
11
4.58797
21
-3.17233
0
LINE
8
BLACK
6
CONTINUOUS
10
4.58797
20
-3.17233
11
4.57723
21
-3.17679
0
LINE
8
BLACK
6
CONTINUOUS
10
4.57723
20
-3.17679
11
4.56582
21
-3.17906
0
LINE
8
BLACK
6
CONTINUOUS
10
4.56582
20
-3.17906
11
4.55418
21
-3.17906
0
LINE
8
BLACK
6
CONTINUOUS
10
4.55418
20
-3.17906
11
4.54277
21
-3.17679
0
LINE
8
BLACK
6
CONTINUOUS
10
4.54277
20
-3.17679
11
4.53203
21
-3.17233
0
LINE
8
BLACK
6
CONTINUOUS
10
4.53203
20
-3.17233
11
4.52235
21
-3.16587
0
LINE
8
BLACK
6
CONTINUOUS
10
4.52235
20
-3.16587
11
4.51413
21
-3.15765
0
LINE
8
BLACK
6
CONTINUOUS
10
4.51413
20
-3.15765
11
4.50767
21
-3.14797
0
LINE
8
BLACK
6
CONTINUOUS
10
4.50767
20
-3.14797
11
4.50321
21
-3.13723
0
LINE
8
BLACK
6
CONTINUOUS
10
4.50321
20
-3.13723
11
4.50094
21
-3.12582
0
LINE
8
BLACK
6
CONTINUOUS
10
4.50094
20
-3.12582
11
4.50094
21
-3.11418
0
LINE
8
BLACK
6
CONTINUOUS
10
4.50094
20
-3.11418
11
4.50321
21
-3.10277
0
LINE
8
BLACK
6
CONTINUOUS
10
4.50321
20
-3.10277
11
4.50767
21
-3.09203
0
LINE
8
BLACK
6
CONTINUOUS
10
4.50767
20
-3.09203
11
4.51413
21
-3.08235
0
LINE
8
BLACK
6
CONTINUOUS
10
4.51413
20
-3.08235
11
4.52235
21
-3.07413
0
LINE
8
BLACK
6
CONTINUOUS
10
4.52235
20
-3.07413
11
4.53203
21
-3.06767
0
LINE
8
BLACK
6
CONTINUOUS
10
4.53203
20
-3.06767
11
4.54277
21
-3.06321
0
LINE
8
BLACK
6
CONTINUOUS
10
4.54277
20
-3.06321
11
4.55418
21
-3.06094
0
LINE
8
BLACK
6
CONTINUOUS
10
4.55418
20
-3.06094
11
4.56582
21
-3.06094
0
LINE
8
BLACK
6
CONTINUOUS
10
4.56582
20
-3.06094
11
4.57723
21
-3.06321
0
LINE
8
BLACK
6
CONTINUOUS
10
4.35486
20
-2.79638
11
4.35833
21
-2.79672
0
LINE
8
BLACK
6
CONTINUOUS
10
4.35833
20
-2.79672
11
4.36278
21
-2.79807
0
LINE
8
BLACK
6
CONTINUOUS
10
4.36278
20
-2.79807
11
4.36689
21
-2.80026
0
LINE
8
BLACK
6
CONTINUOUS
10
4.36689
20
-2.80026
11
4.37048
21
-2.80322
0
LINE
8
BLACK
6
CONTINUOUS
10
4.37048
20
-2.80322
11
4.37122
21
-2.80412
0
LINE
8
BLACK
6
CONTINUOUS
10
4.37122
20
-2.80412
11
4.46349
21
-2.89638
0
LINE
8
BLACK
6
CONTINUOUS
10
4.46349
20
-2.89638
11
4.50094
21
-2.89638
0
LINE
8
BLACK
6
CONTINUOUS
10
4.50094
20
-2.89638
11
4.50094
21
-2.86094
0
LINE
8
BLACK
6
CONTINUOUS
10
4.50094
20
-2.86094
11
4.61906
21
-2.86094
0
LINE
8
BLACK
6
CONTINUOUS
10
4.61906
20
-2.86094
11
4.61906
21
-2.97906
0
LINE
8
BLACK
6
CONTINUOUS
10
4.61906
20
-2.97906
11
4.53402
21
-2.97906
0
LINE
8
BLACK
6
CONTINUOUS
10
4.53402
20
-2.97906
11
4.53319
21
-2.97974
0
LINE
8
BLACK
6
CONTINUOUS
10
4.53319
20
-2.97974
11
4.52908
21
-2.98193
0
LINE
8
BLACK
6
CONTINUOUS
10
4.52908
20
-2.98193
11
4.52463
21
-2.98328
0
LINE
8
BLACK
6
CONTINUOUS
10
4.52463
20
-2.98328
11
4.52
21
-2.98374
0
LINE
8
BLACK
6
CONTINUOUS
10
4.52
20
-2.98374
11
4.51537
21
-2.98328
0
LINE
8
BLACK
6
CONTINUOUS
10
4.51537
20
-2.98328
11
4.51092
21
-2.98193
0
LINE
8
BLACK
6
CONTINUOUS
10
4.51092
20
-2.98193
11
4.50681
21
-2.97974
0
LINE
8
BLACK
6
CONTINUOUS
10
4.50681
20
-2.97974
11
4.50598
21
-2.97906
0
LINE
8
BLACK
6
CONTINUOUS
10
4.50598
20
-2.97906
11
4.50094
21
-2.97906
0
LINE
8
BLACK
6
CONTINUOUS
10
4.50094
20
-2.97906
11
4.50094
21
-2.97402
0
LINE
8
BLACK
6
CONTINUOUS
10
4.50094
20
-2.97402
11
4.50026
21
-2.97319
0
LINE
8
BLACK
6
CONTINUOUS
10
4.50026
20
-2.97319
11
4.49807
21
-2.96908
0
LINE
8
BLACK
6
CONTINUOUS
10
4.49807
20
-2.96908
11
4.49672
21
-2.96463
0
LINE
8
BLACK
6
CONTINUOUS
10
4.49672
20
-2.96463
11
4.49626
21
-2.96
0
LINE
8
BLACK
6
CONTINUOUS
10
4.49626
20
-2.96
11
4.49672
21
-2.95537
0
LINE
8
BLACK
6
CONTINUOUS
10
4.49672
20
-2.95537
11
4.49807
21
-2.95092
0
LINE
8
BLACK
6
CONTINUOUS
10
4.49807
20
-2.95092
11
4.50026
21
-2.94681
0
LINE
8
BLACK
6
CONTINUOUS
10
4.50026
20
-2.94681
11
4.50094
21
-2.94598
0
LINE
8
BLACK
6
CONTINUOUS
10
4.50094
20
-2.94598
11
4.50094
21
-2.94362
0
LINE
8
BLACK
6
CONTINUOUS
10
4.50094
20
-2.94362
11
4.45486
21
-2.94362
0
LINE
8
BLACK
6
CONTINUOUS
10
4.45486
20
-2.94362
11
4.4537
21
-2.94374
0
LINE
8
BLACK
6
CONTINUOUS
10
4.4537
20
-2.94374
11
4.45254
21
-2.94362
0
LINE
8
BLACK
6
CONTINUOUS
10
4.45254
20
-2.94362
11
4.45254
21
-2.94362
0
LINE
8
BLACK
6
CONTINUOUS
10
4.45254
20
-2.94362
11
4.44951
21
-2.94332
0
LINE
8
BLACK
6
CONTINUOUS
10
4.44951
20
-2.94332
11
4.44907
21
-2.94328
0
LINE
8
BLACK
6
CONTINUOUS
10
4.44907
20
-2.94328
11
4.44732
21
-2.94275
0
LINE
8
BLACK
6
CONTINUOUS
10
4.44732
20
-2.94275
11
4.44462
21
-2.94193
0
LINE
8
BLACK
6
CONTINUOUS
10
4.44462
20
-2.94193
11
4.44051
21
-2.93974
0
LINE
8
BLACK
6
CONTINUOUS
10
4.44051
20
-2.93974
11
4.43692
21
-2.93678
0
LINE
8
BLACK
6
CONTINUOUS
10
4.43692
20
-2.93678
11
4.43618
21
-2.93588
0
LINE
8
BLACK
6
CONTINUOUS
10
4.43618
20
-2.93588
11
4.34392
21
-2.84362
0
LINE
8
BLACK
6
CONTINUOUS
10
4.34392
20
-2.84362
11
3.92143
21
-2.84362
0
LINE
8
BLACK
6
CONTINUOUS
10
3.92143
20
-2.84362
11
3.84677
21
-2.91828
0
LINE
8
BLACK
6
CONTINUOUS
10
3.84677
20
-2.91828
11
3.84677
21
-2.93212
0
LINE
8
BLACK
6
CONTINUOUS
10
3.84677
20
-2.93212
11
3.85144
21
-2.93679
0
LINE
8
BLACK
6
CONTINUOUS
10
3.85144
20
-2.93679
11
3.85542
21
-2.94275
0
LINE
8
BLACK
6
CONTINUOUS
10
3.85542
20
-2.94275
11
3.85817
21
-2.94938
0
LINE
8
BLACK
6
CONTINUOUS
10
3.85817
20
-2.94938
11
3.85957
21
-2.95641
0
LINE
8
BLACK
6
CONTINUOUS
10
3.85957
20
-2.95641
11
3.85957
21
-2.96359
0
LINE
8
BLACK
6
CONTINUOUS
10
3.85957
20
-2.96359
11
3.85817
21
-2.97062
0
LINE
8
BLACK
6
CONTINUOUS
10
3.85817
20
-2.97062
11
3.85542
21
-2.97725
0
LINE
8
BLACK
6
CONTINUOUS
10
3.85542
20
-2.97725
11
3.85144
21
-2.98321
0
LINE
8
BLACK
6
CONTINUOUS
10
3.85144
20
-2.98321
11
3.84636
21
-2.98829
0
LINE
8
BLACK
6
CONTINUOUS
10
3.84636
20
-2.98829
11
3.8404
21
-2.99227
0
LINE
8
BLACK
6
CONTINUOUS
10
3.8404
20
-2.99227
11
3.83377
21
-2.99502
0
LINE
8
BLACK
6
CONTINUOUS
10
3.83377
20
-2.99502
11
3.82674
21
-2.99642
0
LINE
8
BLACK
6
CONTINUOUS
10
3.82674
20
-2.99642
11
3.81956
21
-2.99642
0
LINE
8
BLACK
6
CONTINUOUS
10
3.81956
20
-2.99642
11
3.81253
21
-2.99502
0
LINE
8
BLACK
6
CONTINUOUS
10
3.81253
20
-2.99502
11
3.8059
21
-2.99227
0
LINE
8
BLACK
6
CONTINUOUS
10
3.8059
20
-2.99227
11
3.79993
21
-2.98829
0
LINE
8
BLACK
6
CONTINUOUS
10
3.79993
20
-2.98829
11
3.79486
21
-2.98321
0
LINE
8
BLACK
6
CONTINUOUS
10
3.79486
20
-2.98321
11
3.79088
21
-2.97725
0
LINE
8
BLACK
6
CONTINUOUS
10
3.79088
20
-2.97725
11
3.78813
21
-2.97062
0
LINE
8
BLACK
6
CONTINUOUS
10
3.78813
20
-2.97062
11
3.78673
21
-2.96359
0
LINE
8
BLACK
6
CONTINUOUS
10
3.78673
20
-2.96359
11
3.78673
21
-2.95699
0
LINE
8
BLACK
6
CONTINUOUS
10
3.78673
20
-2.95699
11
3.77431
21
-2.94457
0
LINE
8
BLACK
6
CONTINUOUS
10
3.77431
20
-2.94457
11
3.58268
21
-2.94457
0
LINE
8
BLACK
6
CONTINUOUS
10
3.58268
20
-2.94457
11
3.58268
21
-3.05978
0
LINE
8
BLACK
6
CONTINUOUS
10
3.58268
20
-3.05978
11
3.58279
21
-3.06094
0
LINE
8
BLACK
6
CONTINUOUS
10
3.58279
20
-3.06094
11
3.58268
21
-3.06211
0
LINE
8
BLACK
6
CONTINUOUS
10
3.58268
20
-3.06211
11
3.58268
21
-3.06211
0
LINE
8
BLACK
6
CONTINUOUS
10
3.58268
20
-3.06211
11
3.58234
21
-3.06558
0
LINE
8
BLACK
6
CONTINUOUS
10
3.58234
20
-3.06558
11
3.58098
21
-3.07003
0
LINE
8
BLACK
6
CONTINUOUS
10
3.58098
20
-3.07003
11
3.57879
21
-3.07413
0
LINE
8
BLACK
6
CONTINUOUS
10
3.57879
20
-3.07413
11
3.57584
21
-3.07773
0
LINE
8
BLACK
6
CONTINUOUS
10
3.57584
20
-3.07773
11
3.57494
21
-3.07847
0
LINE
8
BLACK
6
CONTINUOUS
10
3.57494
20
-3.07847
11
3.55498
21
-3.09842
0
LINE
8
BLACK
6
CONTINUOUS
10
3.55498
20
-3.09842
11
3.55679
21
-3.10277
0
LINE
8
BLACK
6
CONTINUOUS
10
3.55679
20
-3.10277
11
3.55906
21
-3.11418
0
LINE
8
BLACK
6
CONTINUOUS
10
3.55906
20
-3.11418
11
3.55906
21
-3.12582
0
LINE
8
BLACK
6
CONTINUOUS
10
3.55906
20
-3.12582
11
3.55679
21
-3.13723
0
LINE
8
BLACK
6
CONTINUOUS
10
3.55679
20
-3.13723
11
3.55233
21
-3.14797
0
LINE
8
BLACK
6
CONTINUOUS
10
3.55233
20
-3.14797
11
3.54587
21
-3.15765
0
LINE
8
BLACK
6
CONTINUOUS
10
3.54587
20
-3.15765
11
3.53765
21
-3.16587
0
LINE
8
BLACK
6
CONTINUOUS
10
3.53765
20
-3.16587
11
3.52797
21
-3.17233
0
LINE
8
BLACK
6
CONTINUOUS
10
3.52797
20
-3.17233
11
3.51723
21
-3.17679
0
LINE
8
BLACK
6
CONTINUOUS
10
3.51723
20
-3.17679
11
3.50582
21
-3.17906
0
LINE
8
BLACK
6
CONTINUOUS
10
3.50582
20
-3.17906
11
3.49418
21
-3.17906
0
LINE
8
BLACK
6
CONTINUOUS
10
3.49418
20
-3.17906
11
3.48277
21
-3.17679
0
LINE
8
BLACK
6
CONTINUOUS
10
3.48277
20
-3.17679
11
3.47842
21
-3.17498
0
LINE
8
BLACK
6
CONTINUOUS
10
3.47842
20
-3.17498
11
3.38362
21
-3.26978
0
LINE
8
BLACK
6
CONTINUOUS
10
3.38362
20
-3.26978
11
3.38362
21
-3.41022
0
LINE
8
BLACK
6
CONTINUOUS
10
3.38362
20
-3.41022
11
3.38978
21
-3.41638
0
LINE
8
BLACK
6
CONTINUOUS
10
3.38978
20
-3.41638
11
3.78094
21
-3.41638
0
LINE
8
BLACK
6
CONTINUOUS
10
3.78094
20
-3.41638
11
3.78094
21
-3.38094
0
LINE
8
BLACK
6
CONTINUOUS
10
3.78094
20
-3.38094
11
3.89906
21
-3.38094
0
LINE
8
BLACK
6
CONTINUOUS
10
3.89906
20
-3.38094
11
3.89906
21
-3.49906
0
LINE
8
BLACK
6
CONTINUOUS
10
3.89906
20
-3.49906
11
3.78094
21
-3.49906
0
LINE
8
BLACK
6
CONTINUOUS
10
3.78094
20
-3.49906
11
3.78094
21
-3.46362
0
LINE
8
BLACK
6
CONTINUOUS
10
3.78094
20
-3.46362
11
3.38116
21
-3.46362
0
LINE
8
BLACK
6
CONTINUOUS
10
3.38116
20
-3.46362
11
3.38
21
-3.46374
0
LINE
8
BLACK
6
CONTINUOUS
10
3.38
20
-3.46374
11
3.37884
21
-3.46362
0
LINE
8
BLACK
6
CONTINUOUS
10
3.37884
20
-3.46362
11
3.37884
21
-3.46362
0
LINE
8
BLACK
6
CONTINUOUS
10
3.37884
20
-3.46362
11
3.37581
21
-3.46332
0
LINE
8
BLACK
6
CONTINUOUS
10
3.37581
20
-3.46332
11
3.37537
21
-3.46328
0
LINE
8
BLACK
6
CONTINUOUS
10
3.37537
20
-3.46328
11
3.37402
21
-3.46287
0
LINE
8
BLACK
6
CONTINUOUS
10
3.37402
20
-3.46287
11
3.37092
21
-3.46193
0
LINE
8
BLACK
6
CONTINUOUS
10
3.37092
20
-3.46193
11
3.36681
21
-3.45974
0
LINE
8
BLACK
6
CONTINUOUS
10
3.36681
20
-3.45974
11
3.36322
21
-3.45678
0
LINE
8
BLACK
6
CONTINUOUS
10
3.36322
20
-3.45678
11
3.36248
21
-3.45588
0
LINE
8
BLACK
6
CONTINUOUS
10
3.36248
20
-3.45588
11
3.34412
21
-3.43752
0
LINE
8
BLACK
6
CONTINUOUS
10
3.34412
20
-3.43752
11
3.34322
21
-3.43678
0
LINE
8
BLACK
6
CONTINUOUS
10
3.34322
20
-3.43678
11
3.34026
21
-3.43319
0
LINE
8
BLACK
6
CONTINUOUS
10
3.34026
20
-3.43319
11
3.33807
21
-3.42908
0
LINE
8
BLACK
6
CONTINUOUS
10
3.33807
20
-3.42908
11
3.33672
21
-3.42463
0
LINE
8
BLACK
6
CONTINUOUS
10
3.33672
20
-3.42463
11
3.33626
21
-3.42
0
LINE
8
BLACK
6
CONTINUOUS
10
3.33626
20
-3.42
11
3.33638
21
-3.41884
0
LINE
8
BLACK
6
CONTINUOUS
10
3.33638
20
-3.41884
11
3.33638
21
-3.26116
0
LINE
8
BLACK
6
CONTINUOUS
10
3.33638
20
-3.26116
11
3.33626
21
-3.26
0
LINE
8
BLACK
6
CONTINUOUS
10
3.33626
20
-3.26
11
3.33672
21
-3.25537
0
LINE
8
BLACK
6
CONTINUOUS
10
3.33672
20
-3.25537
11
3.33767
21
-3.25223
0
LINE
8
BLACK
6
CONTINUOUS
10
3.33767
20
-3.25223
11
3.33807
21
-3.25092
0
LINE
8
BLACK
6
CONTINUOUS
10
3.33807
20
-3.25092
11
3.34026
21
-3.24681
0
LINE
8
BLACK
6
CONTINUOUS
10
3.34026
20
-3.24681
11
3.34322
21
-3.24322
0
LINE
8
BLACK
6
CONTINUOUS
10
3.34322
20
-3.24322
11
3.34412
21
-3.24248
0
LINE
8
BLACK
6
CONTINUOUS
10
3.34412
20
-3.24248
11
3.44502
21
-3.14158
0
LINE
8
BLACK
6
CONTINUOUS
10
3.44502
20
-3.14158
11
3.44321
21
-3.13723
0
LINE
8
BLACK
6
CONTINUOUS
10
3.44321
20
-3.13723
11
3.44094
21
-3.12582
0
LINE
8
BLACK
6
CONTINUOUS
10
3.44094
20
-3.12582
11
3.44094
21
-3.11418
0
LINE
8
BLACK
6
CONTINUOUS
10
3.44094
20
-3.11418
11
3.44321
21
-3.10277
0
LINE
8
BLACK
6
CONTINUOUS
10
3.44321
20
-3.10277
11
3.44767
21
-3.09203
0
LINE
8
BLACK
6
CONTINUOUS
10
3.44767
20
-3.09203
11
3.45413
21
-3.08235
0
LINE
8
BLACK
6
CONTINUOUS
10
3.45413
20
-3.08235
11
3.46235
21
-3.07413
0
LINE
8
BLACK
6
CONTINUOUS
10
3.46235
20
-3.07413
11
3.47203
21
-3.06767
0
LINE
8
BLACK
6
CONTINUOUS
10
3.47203
20
-3.06767
11
3.48277
21
-3.06321
0
LINE
8
BLACK
6
CONTINUOUS
10
3.48277
20
-3.06321
11
3.49418
21
-3.06094
0
LINE
8
BLACK
6
CONTINUOUS
10
3.49418
20
-3.06094
11
3.50582
21
-3.06094
0
LINE
8
BLACK
6
CONTINUOUS
10
3.50582
20
-3.06094
11
3.51723
21
-3.06321
0
LINE
8
BLACK
6
CONTINUOUS
10
3.51723
20
-3.06321
11
3.52158
21
-3.06502
0
LINE
8
BLACK
6
CONTINUOUS
10
3.52158
20
-3.06502
11
3.53543
21
-3.05116
0
LINE
8
BLACK
6
CONTINUOUS
10
3.53543
20
-3.05116
11
3.53543
21
-2.92211
0
LINE
8
BLACK
6
CONTINUOUS
10
3.53543
20
-2.92211
11
3.53532
21
-2.92094
0
LINE
8
BLACK
6
CONTINUOUS
10
3.53532
20
-2.92094
11
3.53577
21
-2.91631
0
LINE
8
BLACK
6
CONTINUOUS
10
3.53577
20
-2.91631
11
3.53713
21
-2.91186
0
LINE
8
BLACK
6
CONTINUOUS
10
3.53713
20
-2.91186
11
3.53932
21
-2.90776
0
LINE
8
BLACK
6
CONTINUOUS
10
3.53932
20
-2.90776
11
3.54227
21
-2.90416
0
LINE
8
BLACK
6
CONTINUOUS
10
3.54227
20
-2.90416
11
3.54587
21
-2.90121
0
LINE
8
BLACK
6
CONTINUOUS
10
3.54587
20
-2.90121
11
3.54997
21
-2.89902
0
LINE
8
BLACK
6
CONTINUOUS
10
3.54997
20
-2.89902
11
3.55442
21
-2.89766
0
LINE
8
BLACK
6
CONTINUOUS
10
3.55442
20
-2.89766
11
3.55789
21
-2.89732
0
LINE
8
BLACK
6
CONTINUOUS
10
3.55789
20
-2.89732
11
3.55906
21
-2.89721
0
LINE
8
BLACK
6
CONTINUOUS
10
3.55906
20
-2.89721
11
3.56022
21
-2.89732
0
LINE
8
BLACK
6
CONTINUOUS
10
3.56022
20
-2.89732
11
3.78293
21
-2.89732
0
LINE
8
BLACK
6
CONTINUOUS
10
3.78293
20
-2.89732
11
3.78409
21
-2.89721
0
LINE
8
BLACK
6
CONTINUOUS
10
3.78409
20
-2.89721
11
3.78525
21
-2.89732
0
LINE
8
BLACK
6
CONTINUOUS
10
3.78525
20
-2.89732
11
3.78873
21
-2.89766
0
LINE
8
BLACK
6
CONTINUOUS
10
3.78873
20
-2.89766
11
3.79318
21
-2.89902
0
LINE
8
BLACK
6
CONTINUOUS
10
3.79318
20
-2.89902
11
3.79728
21
-2.90121
0
LINE
8
BLACK
6
CONTINUOUS
10
3.79728
20
-2.90121
11
3.8
21
-2.90344
0
LINE
8
BLACK
6
CONTINUOUS
10
3.8
20
-2.90344
11
3.80029
21
-2.90248
0
LINE
8
BLACK
6
CONTINUOUS
10
3.80029
20
-2.90248
11
3.80122
21
-2.89941
0
LINE
8
BLACK
6
CONTINUOUS
10
3.80122
20
-2.89941
11
3.80341
21
-2.89531
0
LINE
8
BLACK
6
CONTINUOUS
10
3.80341
20
-2.89531
11
3.80637
21
-2.89171
0
LINE
8
BLACK
6
CONTINUOUS
10
3.80637
20
-2.89171
11
3.80727
21
-2.89097
0
LINE
8
BLACK
6
CONTINUOUS
10
3.80727
20
-2.89097
11
3.89412
21
-2.80412
0
LINE
8
BLACK
6
CONTINUOUS
10
3.89412
20
-2.80412
11
3.89486
21
-2.80322
0
LINE
8
BLACK
6
CONTINUOUS
10
3.89486
20
-2.80322
11
3.89846
21
-2.80026
0
LINE
8
BLACK
6
CONTINUOUS
10
3.89846
20
-2.80026
11
3.90256
21
-2.79807
0
LINE
8
BLACK
6
CONTINUOUS
10
3.90256
20
-2.79807
11
3.90702
21
-2.79672
0
LINE
8
BLACK
6
CONTINUOUS
10
3.90702
20
-2.79672
11
3.91165
21
-2.79626
0
LINE
8
BLACK
6
CONTINUOUS
10
3.91165
20
-2.79626
11
3.91281
21
-2.79638
0
LINE
8
BLACK
6
CONTINUOUS
10
3.91281
20
-2.79638
11
4.35254
21
-2.79638
0
LINE
8
BLACK
6
CONTINUOUS
10
4.35254
20
-2.79638
11
4.3537
21
-2.79626
0
LINE
8
BLACK
6
CONTINUOUS
10
4.3537
20
-2.79626
11
4.35486
21
-2.79638
0
LINE
8
BLACK
6
CONTINUOUS
10
4.16013
20
-2.85638
11
4.16361
21
-2.85672
0
LINE
8
BLACK
6
CONTINUOUS
10
4.16361
20
-2.85672
11
4.16806
21
-2.85807
0
LINE
8
BLACK
6
CONTINUOUS
10
4.16806
20
-2.85807
11
4.17216
21
-2.86026
0
LINE
8
BLACK
6
CONTINUOUS
10
4.17216
20
-2.86026
11
4.17576
21
-2.86322
0
LINE
8
BLACK
6
CONTINUOUS
10
4.17576
20
-2.86322
11
4.1765
21
-2.86412
0
LINE
8
BLACK
6
CONTINUOUS
10
4.1765
20
-2.86412
11
4.33588
21
-3.0235
0
LINE
8
BLACK
6
CONTINUOUS
10
4.33588
20
-3.0235
11
4.33678
21
-3.02424
0
LINE
8
BLACK
6
CONTINUOUS
10
4.33678
20
-3.02424
11
4.33974
21
-3.02784
0
LINE
8
BLACK
6
CONTINUOUS
10
4.33974
20
-3.02784
11
4.34193
21
-3.03194
0
LINE
8
BLACK
6
CONTINUOUS
10
4.34193
20
-3.03194
11
4.34328
21
-3.03639
0
LINE
8
BLACK
6
CONTINUOUS
10
4.34328
20
-3.03639
11
4.34374
21
-3.04103
0
LINE
8
BLACK
6
CONTINUOUS
10
4.34374
20
-3.04103
11
4.34362
21
-3.04219
0
LINE
8
BLACK
6
CONTINUOUS
10
4.34362
20
-3.04219
11
4.34362
21
-3.06573
0
LINE
8
BLACK
6
CONTINUOUS
10
4.34362
20
-3.06573
11
4.34558
21
-3.0694
0
LINE
8
BLACK
6
CONTINUOUS
10
4.34558
20
-3.0694
11
4.34716
21
-3.0746
0
LINE
8
BLACK
6
CONTINUOUS
10
4.34716
20
-3.0746
11
4.34769
21
-3.08
0
LINE
8
BLACK
6
CONTINUOUS
10
4.34769
20
-3.08
11
4.34716
21
-3.0854
0
LINE
8
BLACK
6
CONTINUOUS
10
4.34716
20
-3.0854
11
4.34558
21
-3.0906
0
LINE
8
BLACK
6
CONTINUOUS
10
4.34558
20
-3.0906
11
4.34362
21
-3.09427
0
LINE
8
BLACK
6
CONTINUOUS
10
4.34362
20
-3.09427
11
4.34362
21
-3.20199
0
LINE
8
BLACK
6
CONTINUOUS
10
4.34362
20
-3.20199
11
4.34374
21
-3.20315
0
LINE
8
BLACK
6
CONTINUOUS
10
4.34374
20
-3.20315
11
4.34362
21
-3.20431
0
LINE
8
BLACK
6
CONTINUOUS
10
4.34362
20
-3.20431
11
4.34328
21
-3.20778
0
LINE
8
BLACK
6
CONTINUOUS
10
4.34328
20
-3.20778
11
4.34193
21
-3.21223
0
LINE
8
BLACK
6
CONTINUOUS
10
4.34193
20
-3.21223
11
4.33974
21
-3.21634
0
LINE
8
BLACK
6
CONTINUOUS
10
4.33974
20
-3.21634
11
4.33678
21
-3.21993
0
LINE
8
BLACK
6
CONTINUOUS
10
4.33678
20
-3.21993
11
4.33588
21
-3.22067
0
LINE
8
BLACK
6
CONTINUOUS
10
4.33588
20
-3.22067
11
4.31902
21
-3.23753
0
LINE
8
BLACK
6
CONTINUOUS
10
4.31902
20
-3.23753
11
4.31937
21
-3.23927
0
LINE
8
BLACK
6
CONTINUOUS
10
4.31937
20
-3.23927
11
4.31937
21
-3.24703
0
LINE
8
BLACK
6
CONTINUOUS
10
4.31937
20
-3.24703
11
4.31902
21
-3.24877
0
LINE
8
BLACK
6
CONTINUOUS
10
4.31902
20
-3.24877
11
4.36663
21
-3.29638
0
LINE
8
BLACK
6
CONTINUOUS
10
4.36663
20
-3.29638
11
4.37254
21
-3.29638
0
LINE
8
BLACK
6
CONTINUOUS
10
4.37254
20
-3.29638
11
4.3737
21
-3.29626
0
LINE
8
BLACK
6
CONTINUOUS
10
4.3737
20
-3.29626
11
4.37486
21
-3.29638
0
LINE
8
BLACK
6
CONTINUOUS
10
4.37486
20
-3.29638
11
4.37833
21
-3.29672
0
LINE
8
BLACK
6
CONTINUOUS
10
4.37833
20
-3.29672
11
4.38278
21
-3.29807
0
LINE
8
BLACK
6
CONTINUOUS
10
4.38278
20
-3.29807
11
4.38689
21
-3.30026
0
LINE
8
BLACK
6
CONTINUOUS
10
4.38689
20
-3.30026
11
4.39048
21
-3.30322
0
LINE
8
BLACK
6
CONTINUOUS
10
4.39048
20
-3.30322
11
4.39122
21
-3.30412
0
LINE
8
BLACK
6
CONTINUOUS
10
4.39122
20
-3.30412
11
4.46349
21
-3.37638
0
LINE
8
BLACK
6
CONTINUOUS
10
4.46349
20
-3.37638
11
4.50094
21
-3.37638
0
LINE
8
BLACK
6
CONTINUOUS
10
4.50094
20
-3.37638
11
4.50094
21
-3.34094
0
LINE
8
BLACK
6
CONTINUOUS
10
4.50094
20
-3.34094
11
4.61906
21
-3.34094
0
LINE
8
BLACK
6
CONTINUOUS
10
4.61906
20
-3.34094
11
4.61906
21
-3.45906
0
LINE
8
BLACK
6
CONTINUOUS
10
4.61906
20
-3.45906
11
4.50094
21
-3.45906
0
LINE
8
BLACK
6
CONTINUOUS
10
4.50094
20
-3.45906
11
4.50094
21
-3.42362
0
LINE
8
BLACK
6
CONTINUOUS
10
4.50094
20
-3.42362
11
4.45486
21
-3.42362
0
LINE
8
BLACK
6
CONTINUOUS
10
4.45486
20
-3.42362
11
4.4537
21
-3.42374
0
LINE
8
BLACK
6
CONTINUOUS
10
4.4537
20
-3.42374
11
4.44907
21
-3.42328
0
LINE
8
BLACK
6
CONTINUOUS
10
4.44907
20
-3.42328
11
4.44886
21
-3.42322
0
LINE
8
BLACK
6
CONTINUOUS
10
4.44886
20
-3.42322
11
4.44462
21
-3.42193
0
LINE
8
BLACK
6
CONTINUOUS
10
4.44462
20
-3.42193
11
4.44051
21
-3.41974
0
LINE
8
BLACK
6
CONTINUOUS
10
4.44051
20
-3.41974
11
4.43692
21
-3.41678
0
LINE
8
BLACK
6
CONTINUOUS
10
4.43692
20
-3.41678
11
4.43618
21
-3.41588
0
LINE
8
BLACK
6
CONTINUOUS
10
4.43618
20
-3.41588
11
4.36392
21
-3.34362
0
LINE
8
BLACK
6
CONTINUOUS
10
4.36392
20
-3.34362
11
4.35801
21
-3.34362
0
LINE
8
BLACK
6
CONTINUOUS
10
4.35801
20
-3.34362
11
4.35685
21
-3.34374
0
LINE
8
BLACK
6
CONTINUOUS
10
4.35685
20
-3.34374
11
4.35222
21
-3.34328
0
LINE
8
BLACK
6
CONTINUOUS
10
4.35222
20
-3.34328
11
4.34777
21
-3.34193
0
LINE
8
BLACK
6
CONTINUOUS
10
4.34777
20
-3.34193
11
4.34634
21
-3.34117
0
LINE
8
BLACK
6
CONTINUOUS
10
4.34634
20
-3.34117
11
4.34366
21
-3.33974
0
LINE
8
BLACK
6
CONTINUOUS
10
4.34366
20
-3.33974
11
4.34007
21
-3.33678
0
LINE
8
BLACK
6
CONTINUOUS
10
4.34007
20
-3.33678
11
4.33933
21
-3.33588
0
LINE
8
BLACK
6
CONTINUOUS
10
4.33933
20
-3.33588
11
4.28562
21
-3.28217
0
LINE
8
BLACK
6
CONTINUOUS
10
4.28562
20
-3.28217
11
4.28388
21
-3.28252
0
LINE
8
BLACK
6
CONTINUOUS
10
4.28388
20
-3.28252
11
4.27612
21
-3.28252
0
LINE
8
BLACK
6
CONTINUOUS
10
4.27612
20
-3.28252
11
4.26852
21
-3.28101
0
LINE
8
BLACK
6
CONTINUOUS
10
4.26852
20
-3.28101
11
4.26135
21
-3.27804
0
LINE
8
BLACK
6
CONTINUOUS
10
4.26135
20
-3.27804
11
4.2549
21
-3.27373
0
LINE
8
BLACK
6
CONTINUOUS
10
4.2549
20
-3.27373
11
4.24942
21
-3.26825
0
LINE
8
BLACK
6
CONTINUOUS
10
4.24942
20
-3.26825
11
4.24511
21
-3.2618
0
LINE
8
BLACK
6
CONTINUOUS
10
4.24511
20
-3.2618
11
4.24214
21
-3.25463
0
LINE
8
BLACK
6
CONTINUOUS
10
4.24214
20
-3.25463
11
4.24063
21
-3.24703
0
LINE
8
BLACK
6
CONTINUOUS
10
4.24063
20
-3.24703
11
4.24063
21
-3.23927
0
LINE
8
BLACK
6
CONTINUOUS
10
4.24063
20
-3.23927
11
4.24214
21
-3.23167
0
LINE
8
BLACK
6
CONTINUOUS
10
4.24214
20
-3.23167
11
4.24511
21
-3.2245
0
LINE
8
BLACK
6
CONTINUOUS
10
4.24511
20
-3.2245
11
4.24942
21
-3.21805
0
LINE
8
BLACK
6
CONTINUOUS
10
4.24942
20
-3.21805
11
4.2549
21
-3.21257
0
LINE
8
BLACK
6
CONTINUOUS
10
4.2549
20
-3.21257
11
4.26135
21
-3.20826
0
LINE
8
BLACK
6
CONTINUOUS
10
4.26135
20
-3.20826
11
4.26852
21
-3.20529
0
LINE
8
BLACK
6
CONTINUOUS
10
4.26852
20
-3.20529
11
4.27612
21
-3.20378
0
LINE
8
BLACK
6
CONTINUOUS
10
4.27612
20
-3.20378
11
4.28388
21
-3.20378
0
LINE
8
BLACK
6
CONTINUOUS
10
4.28388
20
-3.20378
11
4.28562
21
-3.20413
0
LINE
8
BLACK
6
CONTINUOUS
10
4.28562
20
-3.20413
11
4.29638
21
-3.19337
0
LINE
8
BLACK
6
CONTINUOUS
10
4.29638
20
-3.19337
11
4.29638
21
-3.09427
0
LINE
8
BLACK
6
CONTINUOUS
10
4.29638
20
-3.09427
11
4.29442
21
-3.0906
0
LINE
8
BLACK
6
CONTINUOUS
10
4.29442
20
-3.0906
11
4.29284
21
-3.0854
0
LINE
8
BLACK
6
CONTINUOUS
10
4.29284
20
-3.0854
11
4.29231
21
-3.08
0
LINE
8
BLACK
6
CONTINUOUS
10
4.29231
20
-3.08
11
4.29284
21
-3.0746
0
LINE
8
BLACK
6
CONTINUOUS
10
4.29284
20
-3.0746
11
4.29442
21
-3.0694
0
LINE
8
BLACK
6
CONTINUOUS
10
4.29442
20
-3.0694
11
4.29638
21
-3.06573
0
LINE
8
BLACK
6
CONTINUOUS
10
4.29638
20
-3.06573
11
4.29638
21
-3.05081
0
LINE
8
BLACK
6
CONTINUOUS
10
4.29638
20
-3.05081
11
4.14919
21
-2.90362
0
LINE
8
BLACK
6
CONTINUOUS
10
4.14919
20
-2.90362
11
3.95986
21
-2.90362
0
LINE
8
BLACK
6
CONTINUOUS
10
3.95986
20
-2.90362
11
3.9452
21
-2.91828
0
LINE
8
BLACK
6
CONTINUOUS
10
3.9452
20
-2.91828
11
3.9452
21
-2.93212
0
LINE
8
BLACK
6
CONTINUOUS
10
3.9452
20
-2.93212
11
3.94986
21
-2.93679
0
LINE
8
BLACK
6
CONTINUOUS
10
3.94986
20
-2.93679
11
3.95385
21
-2.94275
0
LINE
8
BLACK
6
CONTINUOUS
10
3.95385
20
-2.94275
11
3.95659
21
-2.94938
0
LINE
8
BLACK
6
CONTINUOUS
10
3.95659
20
-2.94938
11
3.95799
21
-2.95641
0
LINE
8
BLACK
6
CONTINUOUS
10
3.95799
20
-2.95641
11
3.95799
21
-2.96359
0
LINE
8
BLACK
6
CONTINUOUS
10
3.95799
20
-2.96359
11
3.95659
21
-2.97062
0
LINE
8
BLACK
6
CONTINUOUS
10
3.95659
20
-2.97062
11
3.95385
21
-2.97725
0
LINE
8
BLACK
6
CONTINUOUS
10
3.95385
20
-2.97725
11
3.94986
21
-2.98321
0
LINE
8
BLACK
6
CONTINUOUS
10
3.94986
20
-2.98321
11
3.94479
21
-2.98829
0
LINE
8
BLACK
6
CONTINUOUS
10
3.94479
20
-2.98829
11
3.93882
21
-2.99227
0
LINE
8
BLACK
6
CONTINUOUS
10
3.93882
20
-2.99227
11
3.9322
21
-2.99502
0
LINE
8
BLACK
6
CONTINUOUS
10
3.9322
20
-2.99502
11
3.92516
21
-2.99642
0
LINE
8
BLACK
6
CONTINUOUS
10
3.92516
20
-2.99642
11
3.91799
21
-2.99642
0
LINE
8
BLACK
6
CONTINUOUS
10
3.91799
20
-2.99642
11
3.91095
21
-2.99502
0
LINE
8
BLACK
6
CONTINUOUS
10
3.91095
20
-2.99502
11
3.90432
21
-2.99227
0
LINE
8
BLACK
6
CONTINUOUS
10
3.90432
20
-2.99227
11
3.89836
21
-2.98829
0
LINE
8
BLACK
6
CONTINUOUS
10
3.89836
20
-2.98829
11
3.89329
21
-2.98321
0
LINE
8
BLACK
6
CONTINUOUS
10
3.89329
20
-2.98321
11
3.8893
21
-2.97725
0
LINE
8
BLACK
6
CONTINUOUS
10
3.8893
20
-2.97725
11
3.88656
21
-2.97062
0
LINE
8
BLACK
6
CONTINUOUS
10
3.88656
20
-2.97062
11
3.88516
21
-2.96359
0
LINE
8
BLACK
6
CONTINUOUS
10
3.88516
20
-2.96359
11
3.88516
21
-2.95641
0
LINE
8
BLACK
6
CONTINUOUS
10
3.88516
20
-2.95641
11
3.88656
21
-2.94938
0
LINE
8
BLACK
6
CONTINUOUS
10
3.88656
20
-2.94938
11
3.8893
21
-2.94275
0
LINE
8
BLACK
6
CONTINUOUS
10
3.8893
20
-2.94275
11
3.89329
21
-2.93679
0
LINE
8
BLACK
6
CONTINUOUS
10
3.89329
20
-2.93679
11
3.89795
21
-2.93212
0
LINE
8
BLACK
6
CONTINUOUS
10
3.89795
20
-2.93212
11
3.89795
21
-2.90966
0
LINE
8
BLACK
6
CONTINUOUS
10
3.89795
20
-2.90966
11
3.89784
21
-2.9085
0
LINE
8
BLACK
6
CONTINUOUS
10
3.89784
20
-2.9085
11
3.89829
21
-2.90387
0
LINE
8
BLACK
6
CONTINUOUS
10
3.89829
20
-2.90387
11
3.89965
21
-2.89941
0
LINE
8
BLACK
6
CONTINUOUS
10
3.89965
20
-2.89941
11
3.89986
21
-2.89902
0
LINE
8
BLACK
6
CONTINUOUS
10
3.89986
20
-2.89902
11
3.90184
21
-2.89531
0
LINE
8
BLACK
6
CONTINUOUS
10
3.90184
20
-2.89531
11
3.90479
21
-2.89171
0
LINE
8
BLACK
6
CONTINUOUS
10
3.90479
20
-2.89171
11
3.90569
21
-2.89097
0
LINE
8
BLACK
6
CONTINUOUS
10
3.90569
20
-2.89097
11
3.93255
21
-2.86412
0
LINE
8
BLACK
6
CONTINUOUS
10
3.93255
20
-2.86412
11
3.93329
21
-2.86322
0
LINE
8
BLACK
6
CONTINUOUS
10
3.93329
20
-2.86322
11
3.93689
21
-2.86026
0
LINE
8
BLACK
6
CONTINUOUS
10
3.93689
20
-2.86026
11
3.94099
21
-2.85807
0
LINE
8
BLACK
6
CONTINUOUS
10
3.94099
20
-2.85807
11
3.94544
21
-2.85672
0
LINE
8
BLACK
6
CONTINUOUS
10
3.94544
20
-2.85672
11
3.94891
21
-2.85638
0
LINE
8
BLACK
6
CONTINUOUS
10
3.94891
20
-2.85638
11
3.95007
21
-2.85626
0
LINE
8
BLACK
6
CONTINUOUS
10
3.95007
20
-2.85626
11
3.95123
21
-2.85638
0
LINE
8
BLACK
6
CONTINUOUS
10
3.95123
20
-2.85638
11
4.15781
21
-2.85638
0
LINE
8
BLACK
6
CONTINUOUS
10
4.15781
20
-2.85638
11
4.15897
21
-2.85626
0
LINE
8
BLACK
6
CONTINUOUS
10
4.15897
20
-2.85626
11
4.16013
21
-2.85638
0
LINE
8
BLACK
6
CONTINUOUS
10
4.22804
20
-3.0535
11
4.23305
21
-3.05558
0
LINE
8
BLACK
6
CONTINUOUS
10
4.23305
20
-3.05558
11
4.23757
21
-3.05859
0
LINE
8
BLACK
6
CONTINUOUS
10
4.23757
20
-3.05859
11
4.24141
21
-3.06243
0
LINE
8
BLACK
6
CONTINUOUS
10
4.24141
20
-3.06243
11
4.24442
21
-3.06695
0
LINE
8
BLACK
6
CONTINUOUS
10
4.24442
20
-3.06695
11
4.2465
21
-3.07196
0
LINE
8
BLACK
6
CONTINUOUS
10
4.2465
20
-3.07196
11
4.24756
21
-3.07729
0
LINE
8
BLACK
6
CONTINUOUS
10
4.24756
20
-3.07729
11
4.24756
21
-3.08271
0
LINE
8
BLACK
6
CONTINUOUS
10
4.24756
20
-3.08271
11
4.2465
21
-3.08804
0
LINE
8
BLACK
6
CONTINUOUS
10
4.2465
20
-3.08804
11
4.24442
21
-3.09305
0
LINE
8
BLACK
6
CONTINUOUS
10
4.24442
20
-3.09305
11
4.24141
21
-3.09757
0
LINE
8
BLACK
6
CONTINUOUS
10
4.24141
20
-3.09757
11
4.23757
21
-3.10141
0
LINE
8
BLACK
6
CONTINUOUS
10
4.23757
20
-3.10141
11
4.23305
21
-3.10442
0
LINE
8
BLACK
6
CONTINUOUS
10
4.23305
20
-3.10442
11
4.22804
21
-3.1065
0
LINE
8
BLACK
6
CONTINUOUS
10
4.22804
20
-3.1065
11
4.22663
21
-3.10678
0
LINE
8
BLACK
6
CONTINUOUS
10
4.22663
20
-3.10678
11
4.07669
21
-3.25672
0
LINE
8
BLACK
6
CONTINUOUS
10
4.07669
20
-3.25672
11
4.07767
21
-3.25818
0
LINE
8
BLACK
6
CONTINUOUS
10
4.07767
20
-3.25818
11
4.08114
21
-3.26656
0
LINE
8
BLACK
6
CONTINUOUS
10
4.08114
20
-3.26656
11
4.08291
21
-3.27546
0
LINE
8
BLACK
6
CONTINUOUS
10
4.08291
20
-3.27546
11
4.08291
21
-3.28454
0
LINE
8
BLACK
6
CONTINUOUS
10
4.08291
20
-3.28454
11
4.08114
21
-3.29344
0
LINE
8
BLACK
6
CONTINUOUS
10
4.08114
20
-3.29344
11
4.07767
21
-3.30182
0
LINE
8
BLACK
6
CONTINUOUS
10
4.07767
20
-3.30182
11
4.07263
21
-3.30936
0
LINE
8
BLACK
6
CONTINUOUS
10
4.07263
20
-3.30936
11
4.06621
21
-3.31578
0
LINE
8
BLACK
6
CONTINUOUS
10
4.06621
20
-3.31578
11
4.05867
21
-3.32082
0
LINE
8
BLACK
6
CONTINUOUS
10
4.05867
20
-3.32082
11
4.05029
21
-3.32429
0
LINE
8
BLACK
6
CONTINUOUS
10
4.05029
20
-3.32429
11
4.04139
21
-3.32606
0
LINE
8
BLACK
6
CONTINUOUS
10
4.04139
20
-3.32606
11
4.03231
21
-3.32606
0
LINE
8
BLACK
6
CONTINUOUS
10
4.03231
20
-3.32606
11
4.02341
21
-3.32429
0
LINE
8
BLACK
6
CONTINUOUS
10
4.02341
20
-3.32429
11
4.01503
21
-3.32082
0
LINE
8
BLACK
6
CONTINUOUS
10
4.01503
20
-3.32082
11
4.00749
21
-3.31578
0
LINE
8
BLACK
6
CONTINUOUS
10
4.00749
20
-3.31578
11
4.00107
21
-3.30936
0
LINE
8
BLACK
6
CONTINUOUS
10
4.00107
20
-3.30936
11
3.99603
21
-3.30182
0
LINE
8
BLACK
6
CONTINUOUS
10
3.99603
20
-3.30182
11
3.99256
21
-3.29344
0
LINE
8
BLACK
6
CONTINUOUS
10
3.99256
20
-3.29344
11
3.99079
21
-3.28454
0
LINE
8
BLACK
6
CONTINUOUS
10
3.99079
20
-3.28454
11
3.99079
21
-3.27546
0
LINE
8
BLACK
6
CONTINUOUS
10
3.99079
20
-3.27546
11
3.99256
21
-3.26656
0
LINE
8
BLACK
6
CONTINUOUS
10
3.99256
20
-3.26656
11
3.99603
21
-3.25818
0
LINE
8
BLACK
6
CONTINUOUS
10
3.99603
20
-3.25818
11
4.00107
21
-3.25064
0
LINE
8
BLACK
6
CONTINUOUS
10
4.00107
20
-3.25064
11
4.00749
21
-3.24422
0
LINE
8
BLACK
6
CONTINUOUS
10
4.00749
20
-3.24422
11
4.01503
21
-3.23918
0
LINE
8
BLACK
6
CONTINUOUS
10
4.01503
20
-3.23918
11
4.02341
21
-3.23571
0
LINE
8
BLACK
6
CONTINUOUS
10
4.02341
20
-3.23571
11
4.03231
21
-3.23394
0
LINE
8
BLACK
6
CONTINUOUS
10
4.03231
20
-3.23394
11
4.03266
21
-3.23394
0
LINE
8
BLACK
6
CONTINUOUS
10
4.03266
20
-3.23394
11
4.19322
21
-3.07337
0
LINE
8
BLACK
6
CONTINUOUS
10
4.19322
20
-3.07337
11
4.1935
21
-3.07196
0
LINE
8
BLACK
6
CONTINUOUS
10
4.1935
20
-3.07196
11
4.19558
21
-3.06695
0
LINE
8
BLACK
6
CONTINUOUS
10
4.19558
20
-3.06695
11
4.19859
21
-3.06243
0
LINE
8
BLACK
6
CONTINUOUS
10
4.19859
20
-3.06243
11
4.20243
21
-3.05859
0
LINE
8
BLACK
6
CONTINUOUS
10
4.20243
20
-3.05859
11
4.20695
21
-3.05558
0
LINE
8
BLACK
6
CONTINUOUS
10
4.20695
20
-3.05558
11
4.21196
21
-3.0535
0
LINE
8
BLACK
6
CONTINUOUS
10
4.21196
20
-3.0535
11
4.21729
21
-3.05244
0
LINE
8
BLACK
6
CONTINUOUS
10
4.21729
20
-3.05244
11
4.22271
21
-3.05244
0
LINE
8
BLACK
6
CONTINUOUS
10
4.22271
20
-3.05244
11
4.22804
21
-3.0535
0
LINE
8
BLACK
6
CONTINUOUS
10
4.05642
20
-2.99642
11
4.04362
21
-2.99642
0
LINE
8
BLACK
6
CONTINUOUS
10
4.04362
20
-2.99642
11
4.04362
21
-3.00041
0
LINE
8
BLACK
6
CONTINUOUS
10
4.04362
20
-3.00041
11
4.04374
21
-3.00157
0
LINE
8
BLACK
6
CONTINUOUS
10
4.04374
20
-3.00157
11
4.04328
21
-3.00621
0
LINE
8
BLACK
6
CONTINUOUS
10
4.04328
20
-3.00621
11
4.04193
21
-3.01066
0
LINE
8
BLACK
6
CONTINUOUS
10
4.04193
20
-3.01066
11
4.03974
21
-3.01476
0
LINE
8
BLACK
6
CONTINUOUS
10
4.03974
20
-3.01476
11
4.03678
21
-3.01836
0
LINE
8
BLACK
6
CONTINUOUS
10
4.03678
20
-3.01836
11
4.03588
21
-3.0191
0
LINE
8
BLACK
6
CONTINUOUS
10
4.03588
20
-3.0191
11
3.98314
21
-3.07184
0
LINE
8
BLACK
6
CONTINUOUS
10
3.98314
20
-3.07184
11
3.98449
21
-3.07861
0
LINE
8
BLACK
6
CONTINUOUS
10
3.98449
20
-3.07861
11
3.98449
21
-3.08769
0
LINE
8
BLACK
6
CONTINUOUS
10
3.98449
20
-3.08769
11
3.98272
21
-3.09659
0
LINE
8
BLACK
6
CONTINUOUS
10
3.98272
20
-3.09659
11
3.97925
21
-3.10497
0
LINE
8
BLACK
6
CONTINUOUS
10
3.97925
20
-3.10497
11
3.9742
21
-3.11251
0
LINE
8
BLACK
6
CONTINUOUS
10
3.9742
20
-3.11251
11
3.96779
21
-3.11893
0
LINE
8
BLACK
6
CONTINUOUS
10
3.96779
20
-3.11893
11
3.96024
21
-3.12397
0
LINE
8
BLACK
6
CONTINUOUS
10
3.96024
20
-3.12397
11
3.95186
21
-3.12744
0
LINE
8
BLACK
6
CONTINUOUS
10
3.95186
20
-3.12744
11
3.94296
21
-3.12921
0
LINE
8
BLACK
6
CONTINUOUS
10
3.94296
20
-3.12921
11
3.93389
21
-3.12921
0
LINE
8
BLACK
6
CONTINUOUS
10
3.93389
20
-3.12921
11
3.92499
21
-3.12744
0
LINE
8
BLACK
6
CONTINUOUS
10
3.92499
20
-3.12744
11
3.91661
21
-3.12397
0
LINE
8
BLACK
6
CONTINUOUS
10
3.91661
20
-3.12397
11
3.90906
21
-3.11893
0
LINE
8
BLACK
6
CONTINUOUS
10
3.90906
20
-3.11893
11
3.90265
21
-3.11251
0
LINE
8
BLACK
6
CONTINUOUS
10
3.90265
20
-3.11251
11
3.8976
21
-3.10497
0
LINE
8
BLACK
6
CONTINUOUS
10
3.8976
20
-3.10497
11
3.89413
21
-3.09659
0
LINE
8
BLACK
6
CONTINUOUS
10
3.89413
20
-3.09659
11
3.89236
21
-3.08769
0
LINE
8
BLACK
6
CONTINUOUS
10
3.89236
20
-3.08769
11
3.89236
21
-3.07861
0
LINE
8
BLACK
6
CONTINUOUS
10
3.89236
20
-3.07861
11
3.89413
21
-3.06971
0
LINE
8
BLACK
6
CONTINUOUS
10
3.89413
20
-3.06971
11
3.8976
21
-3.06133
0
LINE
8
BLACK
6
CONTINUOUS
10
3.8976
20
-3.06133
11
3.90265
21
-3.05379
0
LINE
8
BLACK
6
CONTINUOUS
10
3.90265
20
-3.05379
11
3.90906
21
-3.04737
0
LINE
8
BLACK
6
CONTINUOUS
10
3.90906
20
-3.04737
11
3.91661
21
-3.04233
0
LINE
8
BLACK
6
CONTINUOUS
10
3.91661
20
-3.04233
11
3.92499
21
-3.03886
0
LINE
8
BLACK
6
CONTINUOUS
10
3.92499
20
-3.03886
11
3.93389
21
-3.03709
0
LINE
8
BLACK
6
CONTINUOUS
10
3.93389
20
-3.03709
11
3.94296
21
-3.03709
0
LINE
8
BLACK
6
CONTINUOUS
10
3.94296
20
-3.03709
11
3.94973
21
-3.03843
0
LINE
8
BLACK
6
CONTINUOUS
10
3.94973
20
-3.03843
11
3.99175
21
-2.99642
0
LINE
8
BLACK
6
CONTINUOUS
10
3.99175
20
-2.99642
11
3.98358
21
-2.99642
0
LINE
8
BLACK
6
CONTINUOUS
10
3.98358
20
-2.99642
11
3.98358
21
-2.92358
0
LINE
8
BLACK
6
CONTINUOUS
10
3.98358
20
-2.92358
11
4.05642
21
-2.92358
0
LINE
8
BLACK
6
CONTINUOUS
10
4.05642
20
-2.92358
11
4.05642
21
-2.99642
  0
ENDSEC
  0
EOF
