  0
SECTION
  2
HEADER
  9
$ANGBASE
  50
0.0
  9
$ANGDIR
  70
1
  9
$MEASUREMENT
  70
0
  0
ENDSEC
  0
SECTION
  2
TABLES
  0
TABLE
  2
LTYPE
  70
4
  0
LTYPE
  5
40F
  2
CONTINUOUS
  70
0
  3
Solid line
  72
65
  73
0
  40
0.0
  0
LTYPE
  5
410
  2
DASHDOT
 70
0
  3
Dash Dot ____ _ ____ _
 72
65
 73
4
 40
2.0
 49
1.25
 49
-0.25
 49
0.25
 49
-0.25
  0
LTYPE
  5
411
  2
DASHED
 70
0
  3
Dashed __ __ __ __ __
 72
65
 73
2
 40
0.75
 49
0.5
 49
-0.25
  0
LTYPE
  5
43B
  2
DOTTED
 70
0
  3
Dotted .  .  .  .
 72
65
 73
2
 40
0.2
 49
0.0
 49
-0.2
  0
ENDTAB
  0
TABLE
  2
STYLE
  70
4
  0
STYLE
  2
KICAD
  70
0
  40
0
  41
1
  42
1
  50
0
  71
0
  3
isocp.shx
  0
STYLE
  2
KICADB
  70
0
  40
0
  41
1
  42
1
  50
0
  71
0
  3
isocp.shx
  0
STYLE
  2
KICADI
  70
0
  40
0
  41
1
  42
1
  50
15
  71
0
  3
isocp.shx
  0
STYLE
  2
KICADBI
  70
0
  40
0
  41
1
  42
1
  50
15
  71
0
  3
isocp.shx
  0
ENDTAB
  0
TABLE
  2
LAYER
  70
1
  0
LAYER
  2
BLACK
  70
0
  62
7
  6
CONTINUOUS
  0
ENDTAB
  0
ENDSEC
  0
SECTION
  2
ENTITIES
0
LINE
8
BLACK
6
CONTINUOUS
10
4.84
20
-2.69901
11
4.84005
21
-2.69902
0
LINE
8
BLACK
6
CONTINUOUS
10
4.84005
20
-2.69902
11
4.84019
21
-2.69903
0
LINE
8
BLACK
6
CONTINUOUS
10
4.84019
20
-2.69903
11
4.84038
21
-2.69909
0
LINE
8
BLACK
6
CONTINUOUS
10
4.84038
20
-2.69909
11
4.84055
21
-2.69918
0
LINE
8
BLACK
6
CONTINUOUS
10
4.84055
20
-2.69918
11
4.8407
21
-2.6993
0
LINE
8
BLACK
6
CONTINUOUS
10
4.8407
20
-2.6993
11
4.84082
21
-2.69945
0
LINE
8
BLACK
6
CONTINUOUS
10
4.84082
20
-2.69945
11
4.84091
21
-2.69962
0
LINE
8
BLACK
6
CONTINUOUS
10
4.84091
20
-2.69962
11
4.84097
21
-2.69981
0
LINE
8
BLACK
6
CONTINUOUS
10
4.84097
20
-2.69981
11
4.84099
21
-2.7
0
LINE
8
BLACK
6
CONTINUOUS
10
4.84099
20
-2.7
11
4.84098
21
-2.70005
0
LINE
8
BLACK
6
CONTINUOUS
10
4.84098
20
-2.70005
11
4.84098
21
-3.75995
0
LINE
8
BLACK
6
CONTINUOUS
10
4.84098
20
-3.75995
11
4.84099
21
-3.76
0
LINE
8
BLACK
6
CONTINUOUS
10
4.84099
20
-3.76
11
4.84097
21
-3.76019
0
LINE
8
BLACK
6
CONTINUOUS
10
4.84097
20
-3.76019
11
4.84091
21
-3.76038
0
LINE
8
BLACK
6
CONTINUOUS
10
4.84091
20
-3.76038
11
4.84082
21
-3.76055
0
LINE
8
BLACK
6
CONTINUOUS
10
4.84082
20
-3.76055
11
4.8407
21
-3.7607
0
LINE
8
BLACK
6
CONTINUOUS
10
4.8407
20
-3.7607
11
4.84055
21
-3.76082
0
LINE
8
BLACK
6
CONTINUOUS
10
4.84055
20
-3.76082
11
4.84038
21
-3.76091
0
LINE
8
BLACK
6
CONTINUOUS
10
4.84038
20
-3.76091
11
4.84019
21
-3.76097
0
LINE
8
BLACK
6
CONTINUOUS
10
4.84019
20
-3.76097
11
4.84005
21
-3.76098
0
LINE
8
BLACK
6
CONTINUOUS
10
4.84005
20
-3.76098
11
4.84005
21
-3.76098
0
LINE
8
BLACK
6
CONTINUOUS
10
4.84005
20
-3.76098
11
4.84
21
-3.76099
0
LINE
8
BLACK
6
CONTINUOUS
10
4.84
20
-3.76099
11
4.83995
21
-3.76098
0
LINE
8
BLACK
6
CONTINUOUS
10
4.83995
20
-3.76098
11
3.32
21
-3.76098
0
LINE
8
BLACK
6
CONTINUOUS
10
3.32
20
-3.76098
11
3.31997
21
-3.76098
0
LINE
8
BLACK
6
CONTINUOUS
10
3.31997
20
-3.76098
11
3.31996
21
-3.76098
0
LINE
8
BLACK
6
CONTINUOUS
10
3.31996
20
-3.76098
11
3.31995
21
-3.76098
0
LINE
8
BLACK
6
CONTINUOUS
10
3.31995
20
-3.76098
11
3.31991
21
-3.76098
0
LINE
8
BLACK
6
CONTINUOUS
10
3.31991
20
-3.76098
11
3.20001
21
-3.75099
0
LINE
8
BLACK
6
CONTINUOUS
10
3.20001
20
-3.75099
11
3.2
21
-3.75099
0
LINE
8
BLACK
6
CONTINUOUS
10
3.2
20
-3.75099
11
3.19991
21
-3.75098
0
LINE
8
BLACK
6
CONTINUOUS
10
3.19991
20
-3.75098
11
3.19987
21
-3.75098
0
LINE
8
BLACK
6
CONTINUOUS
10
3.19987
20
-3.75098
11
3.19986
21
-3.75098
0
LINE
8
BLACK
6
CONTINUOUS
10
3.19986
20
-3.75098
11
3.19981
21
-3.75097
0
LINE
8
BLACK
6
CONTINUOUS
10
3.19981
20
-3.75097
11
3.19977
21
-3.75096
0
LINE
8
BLACK
6
CONTINUOUS
10
3.19977
20
-3.75096
11
3.19973
21
-3.75095
0
LINE
8
BLACK
6
CONTINUOUS
10
3.19973
20
-3.75095
11
3.19968
21
-3.75093
0
LINE
8
BLACK
6
CONTINUOUS
10
3.19968
20
-3.75093
11
3.19962
21
-3.75091
0
LINE
8
BLACK
6
CONTINUOUS
10
3.19962
20
-3.75091
11
3.19959
21
-3.75089
0
LINE
8
BLACK
6
CONTINUOUS
10
3.19959
20
-3.75089
11
3.19955
21
-3.75088
0
LINE
8
BLACK
6
CONTINUOUS
10
3.19955
20
-3.75088
11
3.1995
21
-3.75085
0
LINE
8
BLACK
6
CONTINUOUS
10
3.1995
20
-3.75085
11
3.19945
21
-3.75082
0
LINE
8
BLACK
6
CONTINUOUS
10
3.19945
20
-3.75082
11
3.19942
21
-3.7508
0
LINE
8
BLACK
6
CONTINUOUS
10
3.19942
20
-3.7508
11
3.19938
21
-3.75077
0
LINE
8
BLACK
6
CONTINUOUS
10
3.19938
20
-3.75077
11
3.19934
21
-3.75073
0
LINE
8
BLACK
6
CONTINUOUS
10
3.19934
20
-3.75073
11
3.1993
21
-3.7507
0
LINE
8
BLACK
6
CONTINUOUS
10
3.1993
20
-3.7507
11
3.19927
21
-3.75067
0
LINE
8
BLACK
6
CONTINUOUS
10
3.19927
20
-3.75067
11
3.19925
21
-3.75064
0
LINE
8
BLACK
6
CONTINUOUS
10
3.19925
20
-3.75064
11
3.19921
21
-3.75059
0
LINE
8
BLACK
6
CONTINUOUS
10
3.19921
20
-3.75059
11
3.19918
21
-3.75055
0
LINE
8
BLACK
6
CONTINUOUS
10
3.19918
20
-3.75055
11
3.19916
21
-3.75051
0
LINE
8
BLACK
6
CONTINUOUS
10
3.19916
20
-3.75051
11
3.19913
21
-3.75048
0
LINE
8
BLACK
6
CONTINUOUS
10
3.19913
20
-3.75048
11
3.19911
21
-3.75043
0
LINE
8
BLACK
6
CONTINUOUS
10
3.19911
20
-3.75043
11
3.19909
21
-3.75038
0
LINE
8
BLACK
6
CONTINUOUS
10
3.19909
20
-3.75038
11
3.19907
21
-3.75034
0
LINE
8
BLACK
6
CONTINUOUS
10
3.19907
20
-3.75034
11
3.19906
21
-3.7503
0
LINE
8
BLACK
6
CONTINUOUS
10
3.19906
20
-3.7503
11
3.19905
21
-3.75025
0
LINE
8
BLACK
6
CONTINUOUS
10
3.19905
20
-3.75025
11
3.19903
21
-3.75019
0
LINE
8
BLACK
6
CONTINUOUS
10
3.19903
20
-3.75019
11
3.19903
21
-3.75015
0
LINE
8
BLACK
6
CONTINUOUS
10
3.19903
20
-3.75015
11
3.19902
21
-3.75011
0
LINE
8
BLACK
6
CONTINUOUS
10
3.19902
20
-3.75011
11
3.19902
21
-3.75006
0
LINE
8
BLACK
6
CONTINUOUS
10
3.19902
20
-3.75006
11
3.19902
21
-3.75005
0
LINE
8
BLACK
6
CONTINUOUS
10
3.19902
20
-3.75005
11
3.19902
21
-3.75001
0
LINE
8
BLACK
6
CONTINUOUS
10
3.19902
20
-3.75001
11
3.19901
21
-3.74992
0
LINE
8
BLACK
6
CONTINUOUS
10
3.19901
20
-3.74992
11
3.19902
21
-3.74991
0
LINE
8
BLACK
6
CONTINUOUS
10
3.19902
20
-3.74991
11
3.19902
21
-2.70005
0
LINE
8
BLACK
6
CONTINUOUS
10
3.19902
20
-2.70005
11
3.19901
21
-2.7
0
LINE
8
BLACK
6
CONTINUOUS
10
3.19901
20
-2.7
11
3.19903
21
-2.69981
0
LINE
8
BLACK
6
CONTINUOUS
10
3.19903
20
-2.69981
11
3.19909
21
-2.69962
0
LINE
8
BLACK
6
CONTINUOUS
10
3.19909
20
-2.69962
11
3.19918
21
-2.69945
0
LINE
8
BLACK
6
CONTINUOUS
10
3.19918
20
-2.69945
11
3.1993
21
-2.6993
0
LINE
8
BLACK
6
CONTINUOUS
10
3.1993
20
-2.6993
11
3.19945
21
-2.69918
0
LINE
8
BLACK
6
CONTINUOUS
10
3.19945
20
-2.69918
11
3.19962
21
-2.69909
0
LINE
8
BLACK
6
CONTINUOUS
10
3.19962
20
-2.69909
11
3.19981
21
-2.69903
0
LINE
8
BLACK
6
CONTINUOUS
10
3.19981
20
-2.69903
11
3.19995
21
-2.69902
0
LINE
8
BLACK
6
CONTINUOUS
10
3.19995
20
-2.69902
11
3.2
21
-2.69901
0
LINE
8
BLACK
6
CONTINUOUS
10
3.2
20
-2.69901
11
3.20005
21
-2.69902
0
LINE
8
BLACK
6
CONTINUOUS
10
3.20005
20
-2.69902
11
4.83995
21
-2.69902
0
LINE
8
BLACK
6
CONTINUOUS
10
4.83995
20
-2.69902
11
4.84
21
-2.69901
0
LINE
8
BLACK
6
CONTINUOUS
10
3.20098
20
-3.74909
11
3.32004
21
-3.75902
0
LINE
8
BLACK
6
CONTINUOUS
10
3.32004
20
-3.75902
11
4.83902
21
-3.75902
0
LINE
8
BLACK
6
CONTINUOUS
10
4.83902
20
-3.75902
11
4.83902
21
-2.70098
0
LINE
8
BLACK
6
CONTINUOUS
10
4.83902
20
-2.70098
11
3.20098
21
-2.70098
0
LINE
8
BLACK
6
CONTINUOUS
10
3.20098
20
-2.70098
11
3.20098
21
-3.74909
  0
ENDSEC
  0
EOF
