  0
SECTION
  2
HEADER
  9
$ANGBASE
  50
0.0
  9
$ANGDIR
  70
  1
  9
$MEASUREMENT
  70
0
  0
ENDSEC
  0
SECTION
  2
TABLES
  0
TABLE
  2
LTYPE
  70
4
  0
LTYPE
  5
40F
  2
CONTINUOUS
  70
0
  3
Solid line
  72
65
  73
0
  40
0.0
  0
LTYPE
  5
410
  2
DASHDOT
 70
0
  3
Dash Dot ____ _ ____ _
 72
65
 73
4
 40
2.0
 49
1.25
 49
-0.25
 49
0.25
 49
-0.25
  0
LTYPE
  5
411
  2
DASHED
 70
0
  3
Dashed __ __ __ __ __
 72
65
 73
2
 40
0.75
 49
0.5
 49
-0.25
  0
LTYPE
  5
43B
  2
DOTTED
 70
0
  3
Dotted .  .  .  .
 72
65
 73
2
 40
0.2
 49
0.0
 49
-0.2
  0
ENDTAB
  0
TABLE
  2
STYLE
  70
4
  0
STYLE
  2
KICAD
  70
0
  40
0
  41
1
  42
1
  50
0
  71
0
  3
isocp.shx
  0
STYLE
  2
KICADB
  70
0
  40
0
  41
1
  42
1
  50
0
  71
0
  3
isocp.shx
  0
STYLE
  2
KICADI
  70
0
  40
0
  41
1
  42
1
  50
15
  71
0
  3
isocp.shx
  0
STYLE
  2
KICADBI
  70
0
  40
0
  41
1
  42
1
  50
15
  71
0
  3
isocp.shx
  0
ENDTAB
  0
TABLE
  2
LAYER
  70
30
  0
LAYER
  2
BLACK
  70
0
  62
7
  6
CONTINUOUS
  0
LAYER
  2
GRAY1
  70
0
  62
251
  6
CONTINUOUS
  0
LAYER
  2
GRAY2
  70
0
  62
8
  6
CONTINUOUS
  0
LAYER
  2
GRAY3
  70
0
  62
9
  6
CONTINUOUS
  0
LAYER
  2
WHITE
  70
0
  62
7
  6
CONTINUOUS
  0
LAYER
  2
LYELLOW
  70
0
  62
51
  6
CONTINUOUS
  0
LAYER
  2
BLUE1
  70
0
  62
178
  6
CONTINUOUS
  0
LAYER
  2
GREEN1
  70
0
  62
98
  6
CONTINUOUS
  0
LAYER
  2
CYAN1
  70
0
  62
138
  6
CONTINUOUS
  0
LAYER
  2
RED1
  70
0
  62
18
  6
CONTINUOUS
  0
LAYER
  2
MAGENTA1
  70
0
  62
228
  6
CONTINUOUS
  0
LAYER
  2
BROWN1
  70
0
  62
58
  6
CONTINUOUS
  0
LAYER
  2
BLUE2
  70
0
  62
5
  6
CONTINUOUS
  0
LAYER
  2
GREEN2
  70
0
  62
3
  6
CONTINUOUS
  0
LAYER
  2
CYAN2
  70
0
  62
4
  6
CONTINUOUS
  0
LAYER
  2
RED2
  70
0
  62
1
  6
CONTINUOUS
  0
LAYER
  2
MAGENTA2
  70
0
  62
6
  6
CONTINUOUS
  0
LAYER
  2
BROWN2
  70
0
  62
54
  6
CONTINUOUS
  0
LAYER
  2
BLUE3
  70
0
  62
171
  6
CONTINUOUS
  0
LAYER
  2
GREEN3
  70
0
  62
91
  6
CONTINUOUS
  0
LAYER
  2
CYAN3
  70
0
  62
131
  6
CONTINUOUS
  0
LAYER
  2
RED3
  70
0
  62
11
  6
CONTINUOUS
  0
LAYER
  2
MAGENTA3
  70
0
  62
221
  6
CONTINUOUS
  0
LAYER
  2
YELLOW3
  70
0
  62
2
  6
CONTINUOUS
  0
LAYER
  2
BLUE4
  70
0
  62
5
  6
CONTINUOUS
  0
LAYER
  2
GREEN4
  70
0
  62
3
  6
CONTINUOUS
  0
LAYER
  2
CYAN4
  70
0
  62
4
  6
CONTINUOUS
  0
LAYER
  2
RED4
  70
0
  62
1
  6
CONTINUOUS
  0
LAYER
  2
MAGENTA4
  70
0
  62
6
  6
CONTINUOUS
  0
LAYER
  2
YELLOW4
  70
0
  62
2
  6
CONTINUOUS
  0
ENDTAB
  0
ENDSEC
  0
SECTION
  2
ENTITIES
0
LINE
8
BLACK
6
CONTINUOUS
10
118.897
20
-159.512
11
118.897
21
-159.513
0
LINE
8
BLACK
6
CONTINUOUS
10
118.897
20
-159.513
11
118.897
21
-159.517
0
LINE
8
BLACK
6
CONTINUOUS
10
118.897
20
-159.517
11
118.895
21
-159.522
0
LINE
8
BLACK
6
CONTINUOUS
10
118.895
20
-159.522
11
118.893
21
-159.526
0
LINE
8
BLACK
6
CONTINUOUS
10
118.893
20
-159.526
11
118.89
21
-159.53
0
LINE
8
BLACK
6
CONTINUOUS
10
118.89
20
-159.53
11
118.886
21
-159.533
0
LINE
8
BLACK
6
CONTINUOUS
10
118.886
20
-159.533
11
118.882
21
-159.535
0
LINE
8
BLACK
6
CONTINUOUS
10
118.882
20
-159.535
11
118.877
21
-159.537
0
LINE
8
BLACK
6
CONTINUOUS
10
118.877
20
-159.537
11
118.872
21
-159.537
0
LINE
8
BLACK
6
CONTINUOUS
10
118.872
20
-159.537
11
118.871
21
-159.537
0
LINE
8
BLACK
6
CONTINUOUS
10
118.871
20
-159.537
11
115.58
21
-159.537
0
LINE
8
BLACK
6
CONTINUOUS
10
115.58
20
-159.537
11
114.065
21
-161.053
0
LINE
8
BLACK
6
CONTINUOUS
10
114.065
20
-161.053
11
114.064
21
-161.054
0
LINE
8
BLACK
6
CONTINUOUS
10
114.064
20
-161.054
11
114.06
21
-161.057
0
LINE
8
BLACK
6
CONTINUOUS
10
114.06
20
-161.057
11
114.056
21
-161.059
0
LINE
8
BLACK
6
CONTINUOUS
10
114.056
20
-161.059
11
114.051
21
-161.061
0
LINE
8
BLACK
6
CONTINUOUS
10
114.051
20
-161.061
11
114.047
21
-161.061
0
LINE
8
BLACK
6
CONTINUOUS
10
114.047
20
-161.061
11
114.047
21
-161.061
0
LINE
8
BLACK
6
CONTINUOUS
10
114.047
20
-161.061
11
114.046
21
-161.061
0
LINE
8
BLACK
6
CONTINUOUS
10
114.046
20
-161.061
11
114.045
21
-161.061
0
LINE
8
BLACK
6
CONTINUOUS
10
114.045
20
-161.061
11
102.88
21
-161.061
0
LINE
8
BLACK
6
CONTINUOUS
10
102.88
20
-161.061
11
100.349
21
-163.593
0
LINE
8
BLACK
6
CONTINUOUS
10
100.349
20
-163.593
11
100.348
21
-163.594
0
LINE
8
BLACK
6
CONTINUOUS
10
100.348
20
-163.594
11
100.344
21
-163.597
0
LINE
8
BLACK
6
CONTINUOUS
10
100.344
20
-163.597
11
100.34
21
-163.599
0
LINE
8
BLACK
6
CONTINUOUS
10
100.34
20
-163.599
11
100.335
21
-163.601
0
LINE
8
BLACK
6
CONTINUOUS
10
100.335
20
-163.601
11
100.331
21
-163.601
0
LINE
8
BLACK
6
CONTINUOUS
10
100.331
20
-163.601
11
100.331
21
-163.601
0
LINE
8
BLACK
6
CONTINUOUS
10
100.331
20
-163.601
11
100.33
21
-163.601
0
LINE
8
BLACK
6
CONTINUOUS
10
100.33
20
-163.601
11
100.329
21
-163.601
0
LINE
8
BLACK
6
CONTINUOUS
10
100.329
20
-163.601
11
66.0412
21
-163.601
0
LINE
8
BLACK
6
CONTINUOUS
10
66.0412
20
-163.601
11
66.04
21
-163.601
0
LINE
8
BLACK
6
CONTINUOUS
10
66.04
20
-163.601
11
66.0351
21
-163.601
0
LINE
8
BLACK
6
CONTINUOUS
10
66.0351
20
-163.601
11
66.0337
21
-163.6
0
LINE
8
BLACK
6
CONTINUOUS
10
66.0337
20
-163.6
11
66.0304
21
-163.599
0
LINE
8
BLACK
6
CONTINUOUS
10
66.0304
20
-163.599
11
66.026
21
-163.597
0
LINE
8
BLACK
6
CONTINUOUS
10
66.026
20
-163.597
11
66.0222
21
-163.594
0
LINE
8
BLACK
6
CONTINUOUS
10
66.0222
20
-163.594
11
66.0215
21
-163.593
0
LINE
8
BLACK
6
CONTINUOUS
10
66.0215
20
-163.593
11
63.4896
21
-161.061
0
LINE
8
BLACK
6
CONTINUOUS
10
63.4896
20
-161.061
11
60.4532
21
-161.061
0
LINE
8
BLACK
6
CONTINUOUS
10
60.4532
20
-161.061
11
60.452
21
-161.061
0
LINE
8
BLACK
6
CONTINUOUS
10
60.452
20
-161.061
11
60.4471
21
-161.061
0
LINE
8
BLACK
6
CONTINUOUS
10
60.4471
20
-161.061
11
60.4424
21
-161.059
0
LINE
8
BLACK
6
CONTINUOUS
10
60.4424
20
-161.059
11
60.438
21
-161.057
0
LINE
8
BLACK
6
CONTINUOUS
10
60.438
20
-161.057
11
60.4342
21
-161.054
0
LINE
8
BLACK
6
CONTINUOUS
10
60.4342
20
-161.054
11
60.4335
21
-161.053
0
LINE
8
BLACK
6
CONTINUOUS
10
60.4335
20
-161.053
11
60.4311
21
-161.05
0
LINE
8
BLACK
6
CONTINUOUS
10
60.4311
20
-161.05
11
60.4288
21
-161.046
0
LINE
8
BLACK
6
CONTINUOUS
10
60.4288
20
-161.046
11
60.4274
21
-161.041
0
LINE
8
BLACK
6
CONTINUOUS
10
60.4274
20
-161.041
11
60.4269
21
-161.036
0
LINE
8
BLACK
6
CONTINUOUS
10
60.4269
20
-161.036
11
60.427
21
-161.035
0
LINE
8
BLACK
6
CONTINUOUS
10
60.427
20
-161.035
11
60.427
21
-70.1052
0
LINE
8
BLACK
6
CONTINUOUS
10
60.427
20
-70.1052
11
60.4269
21
-70.104
0
LINE
8
BLACK
6
CONTINUOUS
10
60.4269
20
-70.104
11
60.4274
21
-70.0991
0
LINE
8
BLACK
6
CONTINUOUS
10
60.4274
20
-70.0991
11
60.4288
21
-70.0944
0
LINE
8
BLACK
6
CONTINUOUS
10
60.4288
20
-70.0944
11
60.4311
21
-70.09
0
LINE
8
BLACK
6
CONTINUOUS
10
60.4311
20
-70.09
11
60.4342
21
-70.0862
0
LINE
8
BLACK
6
CONTINUOUS
10
60.4342
20
-70.0862
11
60.438
21
-70.0831
0
LINE
8
BLACK
6
CONTINUOUS
10
60.438
20
-70.0831
11
60.4424
21
-70.0808
0
LINE
8
BLACK
6
CONTINUOUS
10
60.4424
20
-70.0808
11
60.4471
21
-70.0794
0
LINE
8
BLACK
6
CONTINUOUS
10
60.4471
20
-70.0794
11
60.4508
21
-70.079
0
LINE
8
BLACK
6
CONTINUOUS
10
60.4508
20
-70.079
11
60.4508
21
-70.079
0
LINE
8
BLACK
6
CONTINUOUS
10
60.4508
20
-70.079
11
60.452
21
-70.0789
0
LINE
8
BLACK
6
CONTINUOUS
10
60.452
20
-70.0789
11
60.4532
21
-70.079
0
LINE
8
BLACK
6
CONTINUOUS
10
60.4532
20
-70.079
11
118.871
21
-70.079
0
LINE
8
BLACK
6
CONTINUOUS
10
118.871
20
-70.079
11
118.872
21
-70.0789
0
LINE
8
BLACK
6
CONTINUOUS
10
118.872
20
-70.0789
11
118.873
21
-70.079
0
LINE
8
BLACK
6
CONTINUOUS
10
118.873
20
-70.079
11
118.873
21
-70.079
0
LINE
8
BLACK
6
CONTINUOUS
10
118.873
20
-70.079
11
118.877
21
-70.0794
0
LINE
8
BLACK
6
CONTINUOUS
10
118.877
20
-70.0794
11
118.882
21
-70.0808
0
LINE
8
BLACK
6
CONTINUOUS
10
118.882
20
-70.0808
11
118.886
21
-70.0831
0
LINE
8
BLACK
6
CONTINUOUS
10
118.886
20
-70.0831
11
118.89
21
-70.0862
0
LINE
8
BLACK
6
CONTINUOUS
10
118.89
20
-70.0862
11
118.893
21
-70.09
0
LINE
8
BLACK
6
CONTINUOUS
10
118.893
20
-70.09
11
118.895
21
-70.0944
0
LINE
8
BLACK
6
CONTINUOUS
10
118.895
20
-70.0944
11
118.897
21
-70.0991
0
LINE
8
BLACK
6
CONTINUOUS
10
118.897
20
-70.0991
11
118.897
21
-70.104
0
LINE
8
BLACK
6
CONTINUOUS
10
118.897
20
-70.104
11
118.897
21
-70.1052
0
LINE
8
BLACK
6
CONTINUOUS
10
118.897
20
-70.1052
11
118.897
21
-159.511
0
LINE
8
BLACK
6
CONTINUOUS
10
118.897
20
-159.511
11
118.897
21
-159.512
0
LINE
8
BLACK
6
CONTINUOUS
10
63.5
20
-161.011
11
63.5012
21
-161.011
0
LINE
8
BLACK
6
CONTINUOUS
10
63.5012
20
-161.011
11
63.5012
21
-161.011
0
LINE
8
BLACK
6
CONTINUOUS
10
63.5012
20
-161.011
11
63.5049
21
-161.011
0
LINE
8
BLACK
6
CONTINUOUS
10
63.5049
20
-161.011
11
63.5096
21
-161.013
0
LINE
8
BLACK
6
CONTINUOUS
10
63.5096
20
-161.013
11
63.514
21
-161.015
0
LINE
8
BLACK
6
CONTINUOUS
10
63.514
20
-161.015
11
63.5178
21
-161.018
0
LINE
8
BLACK
6
CONTINUOUS
10
63.5178
20
-161.018
11
63.5185
21
-161.019
0
LINE
8
BLACK
6
CONTINUOUS
10
63.5185
20
-161.019
11
66.0504
21
-163.551
0
LINE
8
BLACK
6
CONTINUOUS
10
66.0504
20
-163.551
11
100.32
21
-163.551
0
LINE
8
BLACK
6
CONTINUOUS
10
100.32
20
-163.551
11
102.851
21
-161.019
0
LINE
8
BLACK
6
CONTINUOUS
10
102.851
20
-161.019
11
102.852
21
-161.018
0
LINE
8
BLACK
6
CONTINUOUS
10
102.852
20
-161.018
11
102.856
21
-161.015
0
LINE
8
BLACK
6
CONTINUOUS
10
102.856
20
-161.015
11
102.86
21
-161.013
0
LINE
8
BLACK
6
CONTINUOUS
10
102.86
20
-161.013
11
102.864
21
-161.012
0
LINE
8
BLACK
6
CONTINUOUS
10
102.864
20
-161.012
11
102.865
21
-161.011
0
LINE
8
BLACK
6
CONTINUOUS
10
102.865
20
-161.011
11
102.87
21
-161.011
0
LINE
8
BLACK
6
CONTINUOUS
10
102.87
20
-161.011
11
102.871
21
-161.011
0
LINE
8
BLACK
6
CONTINUOUS
10
102.871
20
-161.011
11
114.036
21
-161.011
0
LINE
8
BLACK
6
CONTINUOUS
10
114.036
20
-161.011
11
115.551
21
-159.495
0
LINE
8
BLACK
6
CONTINUOUS
10
115.551
20
-159.495
11
115.552
21
-159.494
0
LINE
8
BLACK
6
CONTINUOUS
10
115.552
20
-159.494
11
115.556
21
-159.491
0
LINE
8
BLACK
6
CONTINUOUS
10
115.556
20
-159.491
11
115.56
21
-159.489
0
LINE
8
BLACK
6
CONTINUOUS
10
115.56
20
-159.489
11
115.564
21
-159.488
0
LINE
8
BLACK
6
CONTINUOUS
10
115.564
20
-159.488
11
115.565
21
-159.487
0
LINE
8
BLACK
6
CONTINUOUS
10
115.565
20
-159.487
11
115.57
21
-159.487
0
LINE
8
BLACK
6
CONTINUOUS
10
115.57
20
-159.487
11
115.571
21
-159.487
0
LINE
8
BLACK
6
CONTINUOUS
10
115.571
20
-159.487
11
118.847
21
-159.487
0
LINE
8
BLACK
6
CONTINUOUS
10
118.847
20
-159.487
11
118.847
21
-70.3568
0
LINE
8
BLACK
6
CONTINUOUS
10
118.847
20
-70.3568
11
118.847
21
-70.3568
0
LINE
8
BLACK
6
CONTINUOUS
10
118.847
20
-70.3568
11
118.847
21
-70.129
0
LINE
8
BLACK
6
CONTINUOUS
10
118.847
20
-70.129
11
60.477
21
-70.129
0
LINE
8
BLACK
6
CONTINUOUS
10
60.477
20
-70.129
11
60.477
21
-161.011
0
LINE
8
BLACK
6
CONTINUOUS
10
60.477
20
-161.011
11
63.4988
21
-161.011
0
LINE
8
BLACK
6
CONTINUOUS
10
63.4988
20
-161.011
11
63.5
21
-161.011
  0
ENDSEC
  0
EOF
