M48
; DRILL file {KiCad (5.1.2)-2} date 9/8/2020 11:20:43 AM
; FORMAT={2:4/ absolute / inch / suppress leading zeros}
; #@! TF.CreationDate,2020-09-08T11:20:43+07:00
; #@! TF.GenerationSoftware,Kicad,Pcbnew,(5.1.2)-2
FMAT,2
INCH,TZ
T1C0.0354
T2C0.0394
T3C0.0400
T4C0.0598
%
G90
G05
T1
X37800Y-34300
X42800Y-34300
X28400Y-34800
X29400Y-34800
X31700Y-38100
X36700Y-38100
X36700Y-30000
X36700Y-31000
X36700Y-32000
X31800Y-34300
X36800Y-34300
X28400Y-41400
X29400Y-41400
X31700Y-36600
X36700Y-36600
X33300Y-29700
X33300Y-30700
X28400Y-38000
X29400Y-38000
X38500Y-29816
X38500Y-30800
X31700Y-39500
X36700Y-39500
T2
X31600Y-44500
X36500Y-44300
T3
X31200Y-56700
X32200Y-56700
X33200Y-56700
X34200Y-56700
X30700Y-48000
X31700Y-48000
X32700Y-48000
X33700Y-48000
X34700Y-48000
X35700Y-48000
X36700Y-48000
X37700Y-48000
X40600Y-39600
X40600Y-40600
X40600Y-41600
X40600Y-42600
X25500Y-35400
X25500Y-36400
X25500Y-37400
X25500Y-38400
X25500Y-39400
X25500Y-40400
X25500Y-41400
X25500Y-42400
X25500Y-44400
X25500Y-45400
X25500Y-46400
X25500Y-47400
X25500Y-48400
X25500Y-49400
X25500Y-50400
X25500Y-51400
X25500Y-53400
X25500Y-54400
X25500Y-55400
X25500Y-56400
X25500Y-57400
X25500Y-58400
X25500Y-59400
X25500Y-60400
X27500Y-61400
X27500Y-62400
X28500Y-61400
X28500Y-62400
X29500Y-61400
X29500Y-62400
X30500Y-61400
X30500Y-62400
X31500Y-61400
X31500Y-62400
X32500Y-61400
X32500Y-62400
X33500Y-61400
X33500Y-62400
X34500Y-61400
X34500Y-62400
X35500Y-61400
X35500Y-62400
X36500Y-61400
X36500Y-62400
X37500Y-61400
X37500Y-62400
X38500Y-61400
X38500Y-62400
X39500Y-61400
X39500Y-62400
X40500Y-61400
X40500Y-62400
X41500Y-61400
X41500Y-62400
X42500Y-61400
X42500Y-62400
X43500Y-61400
X43500Y-62400
X44500Y-31800
X44500Y-32800
X44500Y-33800
X44500Y-34800
X44500Y-35800
X44500Y-36800
X44500Y-37800
X44500Y-38800
X44500Y-39800
X44500Y-40800
X44500Y-42400
X44500Y-43400
X44500Y-44400
X44500Y-45400
X44500Y-46400
X44500Y-47400
X44500Y-48400
X44500Y-49400
X44500Y-51400
X44500Y-52400
X44500Y-53400
X44500Y-54400
X44500Y-55400
X44500Y-56400
X44500Y-57400
X44500Y-58400
X44500Y-61400
X44500Y-62400
X40600Y-45000
X40600Y-46000
X40600Y-47000
X40600Y-48000
X40500Y-51200
X40500Y-52200
X40500Y-53200
X40500Y-54200
T4
X40600Y-30500
X42600Y-30500
T0
M30
