  0
SECTION
  2
HEADER
  9
$ANGBASE
  50
0.0
  9
$ANGDIR
  70
  1
  9
$MEASUREMENT
  70
0
  0
ENDSEC
  0
SECTION
  2
TABLES
  0
TABLE
  2
LTYPE
  70
4
  0
LTYPE
  5
40F
  2
CONTINUOUS
  70
0
  3
Solid line
  72
65
  73
0
  40
0.0
  0
LTYPE
  5
410
  2
DASHDOT
 70
0
  3
Dash Dot ____ _ ____ _
 72
65
 73
4
 40
2.0
 49
1.25
 49
-0.25
 49
0.25
 49
-0.25
  0
LTYPE
  5
411
  2
DASHED
 70
0
  3
Dashed __ __ __ __ __
 72
65
 73
2
 40
0.75
 49
0.5
 49
-0.25
  0
LTYPE
  5
43B
  2
DOTTED
 70
0
  3
Dotted .  .  .  .
 72
65
 73
2
 40
0.2
 49
0.0
 49
-0.2
  0
ENDTAB
  0
TABLE
  2
STYLE
  70
4
  0
STYLE
  2
KICAD
  70
0
  40
0
  41
1
  42
1
  50
0
  71
0
  3
isocp.shx
  0
STYLE
  2
KICADB
  70
0
  40
0
  41
1
  42
1
  50
0
  71
0
  3
isocp.shx
  0
STYLE
  2
KICADI
  70
0
  40
0
  41
1
  42
1
  50
15
  71
0
  3
isocp.shx
  0
STYLE
  2
KICADBI
  70
0
  40
0
  41
1
  42
1
  50
15
  71
0
  3
isocp.shx
  0
ENDTAB
  0
TABLE
  2
LAYER
  70
30
  0
LAYER
  2
BLACK
  70
0
  62
7
  6
CONTINUOUS
  0
LAYER
  2
GRAY1
  70
0
  62
251
  6
CONTINUOUS
  0
LAYER
  2
GRAY2
  70
0
  62
8
  6
CONTINUOUS
  0
LAYER
  2
GRAY3
  70
0
  62
9
  6
CONTINUOUS
  0
LAYER
  2
WHITE
  70
0
  62
7
  6
CONTINUOUS
  0
LAYER
  2
LYELLOW
  70
0
  62
51
  6
CONTINUOUS
  0
LAYER
  2
BLUE1
  70
0
  62
178
  6
CONTINUOUS
  0
LAYER
  2
GREEN1
  70
0
  62
98
  6
CONTINUOUS
  0
LAYER
  2
CYAN1
  70
0
  62
138
  6
CONTINUOUS
  0
LAYER
  2
RED1
  70
0
  62
18
  6
CONTINUOUS
  0
LAYER
  2
MAGENTA1
  70
0
  62
228
  6
CONTINUOUS
  0
LAYER
  2
BROWN1
  70
0
  62
58
  6
CONTINUOUS
  0
LAYER
  2
BLUE2
  70
0
  62
5
  6
CONTINUOUS
  0
LAYER
  2
GREEN2
  70
0
  62
3
  6
CONTINUOUS
  0
LAYER
  2
CYAN2
  70
0
  62
4
  6
CONTINUOUS
  0
LAYER
  2
RED2
  70
0
  62
1
  6
CONTINUOUS
  0
LAYER
  2
MAGENTA2
  70
0
  62
6
  6
CONTINUOUS
  0
LAYER
  2
BROWN2
  70
0
  62
54
  6
CONTINUOUS
  0
LAYER
  2
BLUE3
  70
0
  62
171
  6
CONTINUOUS
  0
LAYER
  2
GREEN3
  70
0
  62
91
  6
CONTINUOUS
  0
LAYER
  2
CYAN3
  70
0
  62
131
  6
CONTINUOUS
  0
LAYER
  2
RED3
  70
0
  62
11
  6
CONTINUOUS
  0
LAYER
  2
MAGENTA3
  70
0
  62
221
  6
CONTINUOUS
  0
LAYER
  2
YELLOW3
  70
0
  62
2
  6
CONTINUOUS
  0
LAYER
  2
BLUE4
  70
0
  62
5
  6
CONTINUOUS
  0
LAYER
  2
GREEN4
  70
0
  62
3
  6
CONTINUOUS
  0
LAYER
  2
CYAN4
  70
0
  62
4
  6
CONTINUOUS
  0
LAYER
  2
RED4
  70
0
  62
1
  6
CONTINUOUS
  0
LAYER
  2
MAGENTA4
  70
0
  62
6
  6
CONTINUOUS
  0
LAYER
  2
YELLOW4
  70
0
  62
2
  6
CONTINUOUS
  0
ENDTAB
  0
ENDSEC
  0
SECTION
  2
ENTITIES
0
LINE
8
BLACK
6
CONTINUOUS
10
114.181
20
-159.647
11
68.699
21
-159.647
0
LINE
8
BLACK
6
CONTINUOUS
10
68.699
20
-159.647
11
68.699
21
-154.805
0
LINE
8
BLACK
6
CONTINUOUS
10
68.699
20
-154.805
11
114.181
21
-154.805
0
LINE
8
BLACK
6
CONTINUOUS
10
114.181
20
-154.805
11
114.181
21
-159.647
0
LINE
8
BLACK
6
CONTINUOUS
10
66.071
20
-154.567
11
63.469
21
-154.567
0
LINE
8
BLACK
6
CONTINUOUS
10
63.469
20
-154.567
11
63.469
21
-134.485
0
LINE
8
BLACK
6
CONTINUOUS
10
63.469
20
-134.485
11
66.071
21
-134.485
0
LINE
8
BLACK
6
CONTINUOUS
10
66.071
20
-134.485
11
66.071
21
-154.567
0
LINE
8
BLACK
6
CONTINUOUS
10
114.331
20
-149.487
11
111.729
21
-149.487
0
LINE
8
BLACK
6
CONTINUOUS
10
111.729
20
-149.487
11
111.729
21
-129.405
0
LINE
8
BLACK
6
CONTINUOUS
10
111.729
20
-129.405
11
114.331
21
-129.405
0
LINE
8
BLACK
6
CONTINUOUS
10
114.331
20
-129.405
11
114.331
21
-149.487
0
LINE
8
BLACK
6
CONTINUOUS
10
88.019
20
-145.169
11
78.097
21
-145.169
0
LINE
8
BLACK
6
CONTINUOUS
10
78.097
20
-145.169
11
78.097
21
-142.867
0
LINE
8
BLACK
6
CONTINUOUS
10
78.097
20
-142.867
11
88.019
21
-142.867
0
LINE
8
BLACK
6
CONTINUOUS
10
88.019
20
-142.867
11
88.019
21
-145.169
0
LINE
8
BLACK
6
CONTINUOUS
10
104.021
20
-138.819
11
101.719
21
-138.819
0
LINE
8
BLACK
6
CONTINUOUS
10
101.719
20
-138.819
11
101.719
21
-128.897
0
LINE
8
BLACK
6
CONTINUOUS
10
101.719
20
-128.897
11
104.021
21
-128.897
0
LINE
8
BLACK
6
CONTINUOUS
10
104.021
20
-128.897
11
104.021
21
-138.819
0
LINE
8
BLACK
6
CONTINUOUS
10
66.071
20
-131.707
11
63.469
21
-131.707
0
LINE
8
BLACK
6
CONTINUOUS
10
63.469
20
-131.707
11
63.469
21
-111.625
0
LINE
8
BLACK
6
CONTINUOUS
10
63.469
20
-111.625
11
66.071
21
-111.625
0
LINE
8
BLACK
6
CONTINUOUS
10
66.071
20
-111.625
11
66.071
21
-131.707
0
LINE
8
BLACK
6
CONTINUOUS
10
114.331
20
-126.627
11
111.729
21
-126.627
0
LINE
8
BLACK
6
CONTINUOUS
10
111.729
20
-126.627
11
111.729
21
-106.545
0
LINE
8
BLACK
6
CONTINUOUS
10
111.729
20
-106.545
11
114.331
21
-106.545
0
LINE
8
BLACK
6
CONTINUOUS
10
114.331
20
-106.545
11
114.331
21
-126.627
0
LINE
8
BLACK
6
CONTINUOUS
10
96.909
20
-123.071
11
76.827
21
-123.071
0
LINE
8
BLACK
6
CONTINUOUS
10
76.827
20
-123.071
11
76.827
21
-120.769
0
LINE
8
BLACK
6
CONTINUOUS
10
76.827
20
-120.769
11
96.909
21
-120.769
0
LINE
8
BLACK
6
CONTINUOUS
10
96.909
20
-120.769
11
96.909
21
-123.071
0
LINE
8
BLACK
6
CONTINUOUS
10
104.275
20
-123.071
11
101.973
21
-123.071
0
LINE
8
BLACK
6
CONTINUOUS
10
101.973
20
-123.071
11
101.973
21
-113.149
0
LINE
8
BLACK
6
CONTINUOUS
10
101.973
20
-113.149
11
104.275
21
-113.149
0
LINE
8
BLACK
6
CONTINUOUS
10
104.275
20
-113.149
11
104.275
21
-123.071
0
LINE
8
BLACK
6
CONTINUOUS
10
104.275
20
-109.355
11
101.973
21
-109.355
0
LINE
8
BLACK
6
CONTINUOUS
10
101.973
20
-109.355
11
101.973
21
-99.433
0
LINE
8
BLACK
6
CONTINUOUS
10
101.973
20
-99.433
11
104.275
21
-99.433
0
LINE
8
BLACK
6
CONTINUOUS
10
104.275
20
-99.433
11
104.275
21
-109.355
0
LINE
8
BLACK
6
CONTINUOUS
10
66.071
20
-108.847
11
63.469
21
-108.847
0
LINE
8
BLACK
6
CONTINUOUS
10
63.469
20
-108.847
11
63.469
21
-88.765
0
LINE
8
BLACK
6
CONTINUOUS
10
63.469
20
-88.765
11
66.071
21
-88.765
0
LINE
8
BLACK
6
CONTINUOUS
10
66.071
20
-88.765
11
66.071
21
-108.847
0
LINE
8
BLACK
6
CONTINUOUS
10
74.9005
20
-104.027
11
75.0117
21
-104.049
0
LINE
8
BLACK
6
CONTINUOUS
10
75.0117
20
-104.049
11
75.2212
21
-104.136
0
LINE
8
BLACK
6
CONTINUOUS
10
75.2212
20
-104.136
11
75.4097
21
-104.262
0
LINE
8
BLACK
6
CONTINUOUS
10
75.4097
20
-104.262
11
75.57
21
-104.422
0
LINE
8
BLACK
6
CONTINUOUS
10
75.57
20
-104.422
11
75.696
21
-104.611
0
LINE
8
BLACK
6
CONTINUOUS
10
75.696
20
-104.611
11
75.7828
21
-104.82
0
LINE
8
BLACK
6
CONTINUOUS
10
75.7828
20
-104.82
11
75.827
21
-105.043
0
LINE
8
BLACK
6
CONTINUOUS
10
75.827
20
-105.043
11
75.827
21
-105.269
0
LINE
8
BLACK
6
CONTINUOUS
10
75.827
20
-105.269
11
75.7828
21
-105.492
0
LINE
8
BLACK
6
CONTINUOUS
10
75.7828
20
-105.492
11
75.696
21
-105.701
0
LINE
8
BLACK
6
CONTINUOUS
10
75.696
20
-105.701
11
75.57
21
-105.89
0
LINE
8
BLACK
6
CONTINUOUS
10
75.57
20
-105.89
11
75.4097
21
-106.05
0
LINE
8
BLACK
6
CONTINUOUS
10
75.4097
20
-106.05
11
75.2212
21
-106.176
0
LINE
8
BLACK
6
CONTINUOUS
10
75.2212
20
-106.176
11
75.0117
21
-106.263
0
LINE
8
BLACK
6
CONTINUOUS
10
75.0117
20
-106.263
11
74.9005
21
-106.285
0
LINE
8
BLACK
6
CONTINUOUS
10
74.9005
20
-106.285
11
74.7894
21
-106.307
0
LINE
8
BLACK
6
CONTINUOUS
10
74.7894
20
-106.307
11
74.5626
21
-106.307
0
LINE
8
BLACK
6
CONTINUOUS
10
74.5626
20
-106.307
11
74.4515
21
-106.285
0
LINE
8
BLACK
6
CONTINUOUS
10
74.4515
20
-106.285
11
74.3403
21
-106.263
0
LINE
8
BLACK
6
CONTINUOUS
10
74.3403
20
-106.263
11
74.1308
21
-106.176
0
LINE
8
BLACK
6
CONTINUOUS
10
74.1308
20
-106.176
11
73.9423
21
-106.05
0
LINE
8
BLACK
6
CONTINUOUS
10
73.9423
20
-106.05
11
73.782
21
-105.89
0
LINE
8
BLACK
6
CONTINUOUS
10
73.782
20
-105.89
11
73.656
21
-105.701
0
LINE
8
BLACK
6
CONTINUOUS
10
73.656
20
-105.701
11
73.5692
21
-105.492
0
LINE
8
BLACK
6
CONTINUOUS
10
73.5692
20
-105.492
11
73.525
21
-105.269
0
LINE
8
BLACK
6
CONTINUOUS
10
73.525
20
-105.269
11
73.525
21
-105.043
0
LINE
8
BLACK
6
CONTINUOUS
10
73.525
20
-105.043
11
73.5692
21
-104.82
0
LINE
8
BLACK
6
CONTINUOUS
10
73.5692
20
-104.82
11
73.656
21
-104.611
0
LINE
8
BLACK
6
CONTINUOUS
10
73.656
20
-104.611
11
73.782
21
-104.422
0
LINE
8
BLACK
6
CONTINUOUS
10
73.782
20
-104.422
11
73.9423
21
-104.262
0
LINE
8
BLACK
6
CONTINUOUS
10
73.9423
20
-104.262
11
74.1308
21
-104.136
0
LINE
8
BLACK
6
CONTINUOUS
10
74.1308
20
-104.136
11
74.3403
21
-104.049
0
LINE
8
BLACK
6
CONTINUOUS
10
74.3403
20
-104.049
11
74.4515
21
-104.027
0
LINE
8
BLACK
6
CONTINUOUS
10
74.4515
20
-104.027
11
74.5626
21
-104.005
0
LINE
8
BLACK
6
CONTINUOUS
10
74.5626
20
-104.005
11
74.7894
21
-104.005
0
LINE
8
BLACK
6
CONTINUOUS
10
74.7894
20
-104.005
11
74.9005
21
-104.027
0
LINE
8
BLACK
6
CONTINUOUS
10
73.187
20
-106.207
11
71.085
21
-106.207
0
LINE
8
BLACK
6
CONTINUOUS
10
71.085
20
-106.207
11
71.085
21
-104.105
0
LINE
8
BLACK
6
CONTINUOUS
10
71.085
20
-104.105
11
73.187
21
-104.105
0
LINE
8
BLACK
6
CONTINUOUS
10
73.187
20
-104.105
11
73.187
21
-106.207
0
LINE
8
BLACK
6
CONTINUOUS
10
114.331
20
-104.783
11
111.729
21
-104.783
0
LINE
8
BLACK
6
CONTINUOUS
10
111.729
20
-104.783
11
111.729
21
-79.621
0
LINE
8
BLACK
6
CONTINUOUS
10
111.729
20
-79.621
11
114.331
21
-79.621
0
LINE
8
BLACK
6
CONTINUOUS
10
114.331
20
-79.621
11
114.331
21
-104.783
0
LINE
8
BLACK
6
CONTINUOUS
10
80.7425
20
-99.2011
11
80.8537
21
-99.2232
0
LINE
8
BLACK
6
CONTINUOUS
10
80.8537
20
-99.2232
11
81.0632
21
-99.31
0
LINE
8
BLACK
6
CONTINUOUS
10
81.0632
20
-99.31
11
81.2517
21
-99.436
0
LINE
8
BLACK
6
CONTINUOUS
10
81.2517
20
-99.436
11
81.412
21
-99.5963
0
LINE
8
BLACK
6
CONTINUOUS
10
81.412
20
-99.5963
11
81.538
21
-99.7848
0
LINE
8
BLACK
6
CONTINUOUS
10
81.538
20
-99.7848
11
81.6248
21
-99.9943
0
LINE
8
BLACK
6
CONTINUOUS
10
81.6248
20
-99.9943
11
81.669
21
-100.217
0
LINE
8
BLACK
6
CONTINUOUS
10
81.669
20
-100.217
11
81.669
21
-100.443
0
LINE
8
BLACK
6
CONTINUOUS
10
81.669
20
-100.443
11
81.6248
21
-100.666
0
LINE
8
BLACK
6
CONTINUOUS
10
81.6248
20
-100.666
11
81.538
21
-100.875
0
LINE
8
BLACK
6
CONTINUOUS
10
81.538
20
-100.875
11
81.412
21
-101.064
0
LINE
8
BLACK
6
CONTINUOUS
10
81.412
20
-101.064
11
81.2517
21
-101.224
0
LINE
8
BLACK
6
CONTINUOUS
10
81.2517
20
-101.224
11
81.0632
21
-101.35
0
LINE
8
BLACK
6
CONTINUOUS
10
81.0632
20
-101.35
11
80.8537
21
-101.437
0
LINE
8
BLACK
6
CONTINUOUS
10
80.8537
20
-101.437
11
80.7425
21
-101.459
0
LINE
8
BLACK
6
CONTINUOUS
10
80.7425
20
-101.459
11
80.6314
21
-101.481
0
LINE
8
BLACK
6
CONTINUOUS
10
80.6314
20
-101.481
11
80.4046
21
-101.481
0
LINE
8
BLACK
6
CONTINUOUS
10
80.4046
20
-101.481
11
80.2935
21
-101.459
0
LINE
8
BLACK
6
CONTINUOUS
10
80.2935
20
-101.459
11
80.1823
21
-101.437
0
LINE
8
BLACK
6
CONTINUOUS
10
80.1823
20
-101.437
11
79.9728
21
-101.35
0
LINE
8
BLACK
6
CONTINUOUS
10
79.9728
20
-101.35
11
79.7843
21
-101.224
0
LINE
8
BLACK
6
CONTINUOUS
10
79.7843
20
-101.224
11
79.624
21
-101.064
0
LINE
8
BLACK
6
CONTINUOUS
10
79.624
20
-101.064
11
79.498
21
-100.875
0
LINE
8
BLACK
6
CONTINUOUS
10
79.498
20
-100.875
11
79.4112
21
-100.666
0
LINE
8
BLACK
6
CONTINUOUS
10
79.4112
20
-100.666
11
79.367
21
-100.443
0
LINE
8
BLACK
6
CONTINUOUS
10
79.367
20
-100.443
11
79.367
21
-100.217
0
LINE
8
BLACK
6
CONTINUOUS
10
79.367
20
-100.217
11
79.4112
21
-99.9943
0
LINE
8
BLACK
6
CONTINUOUS
10
79.4112
20
-99.9943
11
79.498
21
-99.7848
0
LINE
8
BLACK
6
CONTINUOUS
10
79.498
20
-99.7848
11
79.624
21
-99.5963
0
LINE
8
BLACK
6
CONTINUOUS
10
79.624
20
-99.5963
11
79.7843
21
-99.436
0
LINE
8
BLACK
6
CONTINUOUS
10
79.7843
20
-99.436
11
79.9728
21
-99.31
0
LINE
8
BLACK
6
CONTINUOUS
10
79.9728
20
-99.31
11
80.1823
21
-99.2232
0
LINE
8
BLACK
6
CONTINUOUS
10
80.1823
20
-99.2232
11
80.2935
21
-99.2011
0
LINE
8
BLACK
6
CONTINUOUS
10
80.2935
20
-99.2011
11
80.4046
21
-99.179
0
LINE
8
BLACK
6
CONTINUOUS
10
80.4046
20
-99.179
11
80.6314
21
-99.179
0
LINE
8
BLACK
6
CONTINUOUS
10
80.6314
20
-99.179
11
80.7425
21
-99.2011
0
LINE
8
BLACK
6
CONTINUOUS
10
93.4425
20
-99.2011
11
93.5537
21
-99.2232
0
LINE
8
BLACK
6
CONTINUOUS
10
93.5537
20
-99.2232
11
93.7632
21
-99.31
0
LINE
8
BLACK
6
CONTINUOUS
10
93.7632
20
-99.31
11
93.9517
21
-99.436
0
LINE
8
BLACK
6
CONTINUOUS
10
93.9517
20
-99.436
11
94.112
21
-99.5963
0
LINE
8
BLACK
6
CONTINUOUS
10
94.112
20
-99.5963
11
94.238
21
-99.7848
0
LINE
8
BLACK
6
CONTINUOUS
10
94.238
20
-99.7848
11
94.3248
21
-99.9943
0
LINE
8
BLACK
6
CONTINUOUS
10
94.3248
20
-99.9943
11
94.369
21
-100.217
0
LINE
8
BLACK
6
CONTINUOUS
10
94.369
20
-100.217
11
94.369
21
-100.443
0
LINE
8
BLACK
6
CONTINUOUS
10
94.369
20
-100.443
11
94.3248
21
-100.666
0
LINE
8
BLACK
6
CONTINUOUS
10
94.3248
20
-100.666
11
94.238
21
-100.875
0
LINE
8
BLACK
6
CONTINUOUS
10
94.238
20
-100.875
11
94.112
21
-101.064
0
LINE
8
BLACK
6
CONTINUOUS
10
94.112
20
-101.064
11
93.9517
21
-101.224
0
LINE
8
BLACK
6
CONTINUOUS
10
93.9517
20
-101.224
11
93.7632
21
-101.35
0
LINE
8
BLACK
6
CONTINUOUS
10
93.7632
20
-101.35
11
93.5537
21
-101.437
0
LINE
8
BLACK
6
CONTINUOUS
10
93.5537
20
-101.437
11
93.4425
21
-101.459
0
LINE
8
BLACK
6
CONTINUOUS
10
93.4425
20
-101.459
11
93.3314
21
-101.481
0
LINE
8
BLACK
6
CONTINUOUS
10
93.3314
20
-101.481
11
93.1046
21
-101.481
0
LINE
8
BLACK
6
CONTINUOUS
10
93.1046
20
-101.481
11
92.9935
21
-101.459
0
LINE
8
BLACK
6
CONTINUOUS
10
92.9935
20
-101.459
11
92.8823
21
-101.437
0
LINE
8
BLACK
6
CONTINUOUS
10
92.8823
20
-101.437
11
92.6728
21
-101.35
0
LINE
8
BLACK
6
CONTINUOUS
10
92.6728
20
-101.35
11
92.4843
21
-101.224
0
LINE
8
BLACK
6
CONTINUOUS
10
92.4843
20
-101.224
11
92.324
21
-101.064
0
LINE
8
BLACK
6
CONTINUOUS
10
92.324
20
-101.064
11
92.198
21
-100.875
0
LINE
8
BLACK
6
CONTINUOUS
10
92.198
20
-100.875
11
92.1112
21
-100.666
0
LINE
8
BLACK
6
CONTINUOUS
10
92.1112
20
-100.666
11
92.067
21
-100.443
0
LINE
8
BLACK
6
CONTINUOUS
10
92.067
20
-100.443
11
92.067
21
-100.217
0
LINE
8
BLACK
6
CONTINUOUS
10
92.067
20
-100.217
11
92.1112
21
-99.9943
0
LINE
8
BLACK
6
CONTINUOUS
10
92.1112
20
-99.9943
11
92.198
21
-99.7848
0
LINE
8
BLACK
6
CONTINUOUS
10
92.198
20
-99.7848
11
92.324
21
-99.5963
0
LINE
8
BLACK
6
CONTINUOUS
10
92.324
20
-99.5963
11
92.4843
21
-99.436
0
LINE
8
BLACK
6
CONTINUOUS
10
92.4843
20
-99.436
11
92.6728
21
-99.31
0
LINE
8
BLACK
6
CONTINUOUS
10
92.6728
20
-99.31
11
92.8823
21
-99.2232
0
LINE
8
BLACK
6
CONTINUOUS
10
92.8823
20
-99.2232
11
92.9935
21
-99.2011
0
LINE
8
BLACK
6
CONTINUOUS
10
92.9935
20
-99.2011
11
93.1046
21
-99.179
0
LINE
8
BLACK
6
CONTINUOUS
10
93.1046
20
-99.179
11
93.3314
21
-99.179
0
LINE
8
BLACK
6
CONTINUOUS
10
93.3314
20
-99.179
11
93.4425
21
-99.2011
0
LINE
8
BLACK
6
CONTINUOUS
10
93.4425
20
-95.6451
11
93.5537
21
-95.6672
0
LINE
8
BLACK
6
CONTINUOUS
10
93.5537
20
-95.6672
11
93.7632
21
-95.754
0
LINE
8
BLACK
6
CONTINUOUS
10
93.7632
20
-95.754
11
93.9517
21
-95.88
0
LINE
8
BLACK
6
CONTINUOUS
10
93.9517
20
-95.88
11
94.112
21
-96.0403
0
LINE
8
BLACK
6
CONTINUOUS
10
94.112
20
-96.0403
11
94.1833
21
-96.147
0
LINE
8
BLACK
6
CONTINUOUS
10
94.1833
20
-96.147
11
94.238
21
-96.2288
0
LINE
8
BLACK
6
CONTINUOUS
10
94.238
20
-96.2288
11
94.3248
21
-96.4383
0
LINE
8
BLACK
6
CONTINUOUS
10
94.3248
20
-96.4383
11
94.3636
21
-96.6334
0
LINE
8
BLACK
6
CONTINUOUS
10
94.3636
20
-96.6334
11
94.369
21
-96.6606
0
LINE
8
BLACK
6
CONTINUOUS
10
94.369
20
-96.6606
11
94.369
21
-96.8874
0
LINE
8
BLACK
6
CONTINUOUS
10
94.369
20
-96.8874
11
94.3248
21
-97.1097
0
LINE
8
BLACK
6
CONTINUOUS
10
94.3248
20
-97.1097
11
94.238
21
-97.3192
0
LINE
8
BLACK
6
CONTINUOUS
10
94.238
20
-97.3192
11
94.112
21
-97.5077
0
LINE
8
BLACK
6
CONTINUOUS
10
94.112
20
-97.5077
11
93.9517
21
-97.668
0
LINE
8
BLACK
6
CONTINUOUS
10
93.9517
20
-97.668
11
93.7632
21
-97.794
0
LINE
8
BLACK
6
CONTINUOUS
10
93.7632
20
-97.794
11
93.5537
21
-97.8808
0
LINE
8
BLACK
6
CONTINUOUS
10
93.5537
20
-97.8808
11
93.4425
21
-97.9029
0
LINE
8
BLACK
6
CONTINUOUS
10
93.4425
20
-97.9029
11
93.3314
21
-97.925
0
LINE
8
BLACK
6
CONTINUOUS
10
93.3314
20
-97.925
11
93.1046
21
-97.925
0
LINE
8
BLACK
6
CONTINUOUS
10
93.1046
20
-97.925
11
92.9935
21
-97.9029
0
LINE
8
BLACK
6
CONTINUOUS
10
92.9935
20
-97.9029
11
92.8823
21
-97.8808
0
LINE
8
BLACK
6
CONTINUOUS
10
92.8823
20
-97.8808
11
92.6728
21
-97.794
0
LINE
8
BLACK
6
CONTINUOUS
10
92.6728
20
-97.794
11
92.4843
21
-97.668
0
LINE
8
BLACK
6
CONTINUOUS
10
92.4843
20
-97.668
11
92.324
21
-97.5077
0
LINE
8
BLACK
6
CONTINUOUS
10
92.324
20
-97.5077
11
92.198
21
-97.3192
0
LINE
8
BLACK
6
CONTINUOUS
10
92.198
20
-97.3192
11
92.1112
21
-97.1097
0
LINE
8
BLACK
6
CONTINUOUS
10
92.1112
20
-97.1097
11
92.067
21
-96.8874
0
LINE
8
BLACK
6
CONTINUOUS
10
92.067
20
-96.8874
11
92.067
21
-96.6606
0
LINE
8
BLACK
6
CONTINUOUS
10
92.067
20
-96.6606
11
92.0724
21
-96.6334
0
LINE
8
BLACK
6
CONTINUOUS
10
92.0724
20
-96.6334
11
92.1112
21
-96.4383
0
LINE
8
BLACK
6
CONTINUOUS
10
92.1112
20
-96.4383
11
92.198
21
-96.2288
0
LINE
8
BLACK
6
CONTINUOUS
10
92.198
20
-96.2288
11
92.2527
21
-96.147
0
LINE
8
BLACK
6
CONTINUOUS
10
92.2527
20
-96.147
11
92.324
21
-96.0403
0
LINE
8
BLACK
6
CONTINUOUS
10
92.324
20
-96.0403
11
92.4843
21
-95.88
0
LINE
8
BLACK
6
CONTINUOUS
10
92.4843
20
-95.88
11
92.6728
21
-95.754
0
LINE
8
BLACK
6
CONTINUOUS
10
92.6728
20
-95.754
11
92.8823
21
-95.6672
0
LINE
8
BLACK
6
CONTINUOUS
10
92.8823
20
-95.6672
11
92.9935
21
-95.6451
0
LINE
8
BLACK
6
CONTINUOUS
10
92.9935
20
-95.6451
11
93.1046
21
-95.623
0
LINE
8
BLACK
6
CONTINUOUS
10
93.1046
20
-95.623
11
93.3314
21
-95.623
0
LINE
8
BLACK
6
CONTINUOUS
10
93.3314
20
-95.623
11
93.4425
21
-95.6451
0
LINE
8
BLACK
6
CONTINUOUS
10
80.7425
20
-95.6451
11
80.8537
21
-95.6672
0
LINE
8
BLACK
6
CONTINUOUS
10
80.8537
20
-95.6672
11
81.0632
21
-95.754
0
LINE
8
BLACK
6
CONTINUOUS
10
81.0632
20
-95.754
11
81.2517
21
-95.88
0
LINE
8
BLACK
6
CONTINUOUS
10
81.2517
20
-95.88
11
81.412
21
-96.0403
0
LINE
8
BLACK
6
CONTINUOUS
10
81.412
20
-96.0403
11
81.4833
21
-96.147
0
LINE
8
BLACK
6
CONTINUOUS
10
81.4833
20
-96.147
11
81.538
21
-96.2288
0
LINE
8
BLACK
6
CONTINUOUS
10
81.538
20
-96.2288
11
81.6248
21
-96.4383
0
LINE
8
BLACK
6
CONTINUOUS
10
81.6248
20
-96.4383
11
81.6636
21
-96.6334
0
LINE
8
BLACK
6
CONTINUOUS
10
81.6636
20
-96.6334
11
81.669
21
-96.6606
0
LINE
8
BLACK
6
CONTINUOUS
10
81.669
20
-96.6606
11
81.669
21
-96.8874
0
LINE
8
BLACK
6
CONTINUOUS
10
81.669
20
-96.8874
11
81.6248
21
-97.1097
0
LINE
8
BLACK
6
CONTINUOUS
10
81.6248
20
-97.1097
11
81.538
21
-97.3192
0
LINE
8
BLACK
6
CONTINUOUS
10
81.538
20
-97.3192
11
81.412
21
-97.5077
0
LINE
8
BLACK
6
CONTINUOUS
10
81.412
20
-97.5077
11
81.2517
21
-97.668
0
LINE
8
BLACK
6
CONTINUOUS
10
81.2517
20
-97.668
11
81.0632
21
-97.794
0
LINE
8
BLACK
6
CONTINUOUS
10
81.0632
20
-97.794
11
80.8537
21
-97.8808
0
LINE
8
BLACK
6
CONTINUOUS
10
80.8537
20
-97.8808
11
80.7425
21
-97.9029
0
LINE
8
BLACK
6
CONTINUOUS
10
80.7425
20
-97.9029
11
80.6314
21
-97.925
0
LINE
8
BLACK
6
CONTINUOUS
10
80.6314
20
-97.925
11
80.4046
21
-97.925
0
LINE
8
BLACK
6
CONTINUOUS
10
80.4046
20
-97.925
11
80.2935
21
-97.9029
0
LINE
8
BLACK
6
CONTINUOUS
10
80.2935
20
-97.9029
11
80.1823
21
-97.8808
0
LINE
8
BLACK
6
CONTINUOUS
10
80.1823
20
-97.8808
11
79.9728
21
-97.794
0
LINE
8
BLACK
6
CONTINUOUS
10
79.9728
20
-97.794
11
79.7843
21
-97.668
0
LINE
8
BLACK
6
CONTINUOUS
10
79.7843
20
-97.668
11
79.624
21
-97.5077
0
LINE
8
BLACK
6
CONTINUOUS
10
79.624
20
-97.5077
11
79.498
21
-97.3192
0
LINE
8
BLACK
6
CONTINUOUS
10
79.498
20
-97.3192
11
79.4112
21
-97.1097
0
LINE
8
BLACK
6
CONTINUOUS
10
79.4112
20
-97.1097
11
79.367
21
-96.8874
0
LINE
8
BLACK
6
CONTINUOUS
10
79.367
20
-96.8874
11
79.367
21
-96.6606
0
LINE
8
BLACK
6
CONTINUOUS
10
79.367
20
-96.6606
11
79.3724
21
-96.6334
0
LINE
8
BLACK
6
CONTINUOUS
10
79.3724
20
-96.6334
11
79.4112
21
-96.4383
0
LINE
8
BLACK
6
CONTINUOUS
10
79.4112
20
-96.4383
11
79.498
21
-96.2288
0
LINE
8
BLACK
6
CONTINUOUS
10
79.498
20
-96.2288
11
79.5527
21
-96.147
0
LINE
8
BLACK
6
CONTINUOUS
10
79.5527
20
-96.147
11
79.624
21
-96.0403
0
LINE
8
BLACK
6
CONTINUOUS
10
79.624
20
-96.0403
11
79.7843
21
-95.88
0
LINE
8
BLACK
6
CONTINUOUS
10
79.7843
20
-95.88
11
79.9728
21
-95.754
0
LINE
8
BLACK
6
CONTINUOUS
10
79.9728
20
-95.754
11
80.1823
21
-95.6672
0
LINE
8
BLACK
6
CONTINUOUS
10
80.1823
20
-95.6672
11
80.2935
21
-95.6451
0
LINE
8
BLACK
6
CONTINUOUS
10
80.2935
20
-95.6451
11
80.4046
21
-95.623
0
LINE
8
BLACK
6
CONTINUOUS
10
80.4046
20
-95.623
11
80.6314
21
-95.623
0
LINE
8
BLACK
6
CONTINUOUS
10
80.6314
20
-95.623
11
80.7425
21
-95.6451
0
LINE
8
BLACK
6
CONTINUOUS
10
74.9005
20
-95.3911
11
75.0117
21
-95.4132
0
LINE
8
BLACK
6
CONTINUOUS
10
75.0117
20
-95.4132
11
75.2212
21
-95.5
0
LINE
8
BLACK
6
CONTINUOUS
10
75.2212
20
-95.5
11
75.4097
21
-95.626
0
LINE
8
BLACK
6
CONTINUOUS
10
75.4097
20
-95.626
11
75.57
21
-95.7863
0
LINE
8
BLACK
6
CONTINUOUS
10
75.57
20
-95.7863
11
75.696
21
-95.9748
0
LINE
8
BLACK
6
CONTINUOUS
10
75.696
20
-95.9748
11
75.696
21
-95.9748
0
LINE
8
BLACK
6
CONTINUOUS
10
75.696
20
-95.9748
11
75.7828
21
-96.1843
0
LINE
8
BLACK
6
CONTINUOUS
10
75.7828
20
-96.1843
11
75.827
21
-96.4066
0
LINE
8
BLACK
6
CONTINUOUS
10
75.827
20
-96.4066
11
75.827
21
-96.6334
0
LINE
8
BLACK
6
CONTINUOUS
10
75.827
20
-96.6334
11
75.8216
21
-96.6606
0
LINE
8
BLACK
6
CONTINUOUS
10
75.8216
20
-96.6606
11
75.7828
21
-96.8557
0
LINE
8
BLACK
6
CONTINUOUS
10
75.7828
20
-96.8557
11
75.696
21
-97.0652
0
LINE
8
BLACK
6
CONTINUOUS
10
75.696
20
-97.0652
11
75.57
21
-97.2537
0
LINE
8
BLACK
6
CONTINUOUS
10
75.57
20
-97.2537
11
75.4097
21
-97.414
0
LINE
8
BLACK
6
CONTINUOUS
10
75.4097
20
-97.414
11
75.2212
21
-97.54
0
LINE
8
BLACK
6
CONTINUOUS
10
75.2212
20
-97.54
11
75.0117
21
-97.6268
0
LINE
8
BLACK
6
CONTINUOUS
10
75.0117
20
-97.6268
11
74.9005
21
-97.6489
0
LINE
8
BLACK
6
CONTINUOUS
10
74.9005
20
-97.6489
11
74.7894
21
-97.671
0
LINE
8
BLACK
6
CONTINUOUS
10
74.7894
20
-97.671
11
74.5626
21
-97.671
0
LINE
8
BLACK
6
CONTINUOUS
10
74.5626
20
-97.671
11
74.4515
21
-97.6489
0
LINE
8
BLACK
6
CONTINUOUS
10
74.4515
20
-97.6489
11
74.3403
21
-97.6268
0
LINE
8
BLACK
6
CONTINUOUS
10
74.3403
20
-97.6268
11
74.1308
21
-97.54
0
LINE
8
BLACK
6
CONTINUOUS
10
74.1308
20
-97.54
11
73.9423
21
-97.414
0
LINE
8
BLACK
6
CONTINUOUS
10
73.9423
20
-97.414
11
73.782
21
-97.2537
0
LINE
8
BLACK
6
CONTINUOUS
10
73.782
20
-97.2537
11
73.656
21
-97.0652
0
LINE
8
BLACK
6
CONTINUOUS
10
73.656
20
-97.0652
11
73.5692
21
-96.8557
0
LINE
8
BLACK
6
CONTINUOUS
10
73.5692
20
-96.8557
11
73.5304
21
-96.6606
0
LINE
8
BLACK
6
CONTINUOUS
10
73.5304
20
-96.6606
11
73.525
21
-96.6334
0
LINE
8
BLACK
6
CONTINUOUS
10
73.525
20
-96.6334
11
73.525
21
-96.4066
0
LINE
8
BLACK
6
CONTINUOUS
10
73.525
20
-96.4066
11
73.5692
21
-96.1843
0
LINE
8
BLACK
6
CONTINUOUS
10
73.5692
20
-96.1843
11
73.656
21
-95.9748
0
LINE
8
BLACK
6
CONTINUOUS
10
73.656
20
-95.9748
11
73.656
21
-95.9748
0
LINE
8
BLACK
6
CONTINUOUS
10
73.656
20
-95.9748
11
73.782
21
-95.7863
0
LINE
8
BLACK
6
CONTINUOUS
10
73.782
20
-95.7863
11
73.9423
21
-95.626
0
LINE
8
BLACK
6
CONTINUOUS
10
73.9423
20
-95.626
11
74.1308
21
-95.5
0
LINE
8
BLACK
6
CONTINUOUS
10
74.1308
20
-95.5
11
74.3403
21
-95.4132
0
LINE
8
BLACK
6
CONTINUOUS
10
74.3403
20
-95.4132
11
74.4515
21
-95.3911
0
LINE
8
BLACK
6
CONTINUOUS
10
74.4515
20
-95.3911
11
74.5626
21
-95.369
0
LINE
8
BLACK
6
CONTINUOUS
10
74.5626
20
-95.369
11
74.7894
21
-95.369
0
LINE
8
BLACK
6
CONTINUOUS
10
74.7894
20
-95.369
11
74.9005
21
-95.3911
0
LINE
8
BLACK
6
CONTINUOUS
10
73.187
20
-97.571
11
71.085
21
-97.571
0
LINE
8
BLACK
6
CONTINUOUS
10
71.085
20
-97.571
11
71.085
21
-95.469
0
LINE
8
BLACK
6
CONTINUOUS
10
71.085
20
-95.469
11
73.187
21
-95.469
0
LINE
8
BLACK
6
CONTINUOUS
10
73.187
20
-95.469
11
73.187
21
-97.571
0
LINE
8
BLACK
6
CONTINUOUS
10
93.4425
20
-91.8351
11
93.5537
21
-91.8572
0
LINE
8
BLACK
6
CONTINUOUS
10
93.5537
20
-91.8572
11
93.7632
21
-91.944
0
LINE
8
BLACK
6
CONTINUOUS
10
93.7632
20
-91.944
11
93.9517
21
-92.07
0
LINE
8
BLACK
6
CONTINUOUS
10
93.9517
20
-92.07
11
94.112
21
-92.2303
0
LINE
8
BLACK
6
CONTINUOUS
10
94.112
20
-92.2303
11
94.238
21
-92.4188
0
LINE
8
BLACK
6
CONTINUOUS
10
94.238
20
-92.4188
11
94.3248
21
-92.6283
0
LINE
8
BLACK
6
CONTINUOUS
10
94.3248
20
-92.6283
11
94.369
21
-92.8506
0
LINE
8
BLACK
6
CONTINUOUS
10
94.369
20
-92.8506
11
94.369
21
-93.0774
0
LINE
8
BLACK
6
CONTINUOUS
10
94.369
20
-93.0774
11
94.3248
21
-93.2997
0
LINE
8
BLACK
6
CONTINUOUS
10
94.3248
20
-93.2997
11
94.238
21
-93.5092
0
LINE
8
BLACK
6
CONTINUOUS
10
94.238
20
-93.5092
11
94.112
21
-93.6977
0
LINE
8
BLACK
6
CONTINUOUS
10
94.112
20
-93.6977
11
93.9517
21
-93.858
0
LINE
8
BLACK
6
CONTINUOUS
10
93.9517
20
-93.858
11
93.7632
21
-93.984
0
LINE
8
BLACK
6
CONTINUOUS
10
93.7632
20
-93.984
11
93.5537
21
-94.0708
0
LINE
8
BLACK
6
CONTINUOUS
10
93.5537
20
-94.0708
11
93.4425
21
-94.0929
0
LINE
8
BLACK
6
CONTINUOUS
10
93.4425
20
-94.0929
11
93.3314
21
-94.115
0
LINE
8
BLACK
6
CONTINUOUS
10
93.3314
20
-94.115
11
93.1046
21
-94.115
0
LINE
8
BLACK
6
CONTINUOUS
10
93.1046
20
-94.115
11
92.9935
21
-94.0929
0
LINE
8
BLACK
6
CONTINUOUS
10
92.9935
20
-94.0929
11
92.8823
21
-94.0708
0
LINE
8
BLACK
6
CONTINUOUS
10
92.8823
20
-94.0708
11
92.6728
21
-93.984
0
LINE
8
BLACK
6
CONTINUOUS
10
92.6728
20
-93.984
11
92.4843
21
-93.858
0
LINE
8
BLACK
6
CONTINUOUS
10
92.4843
20
-93.858
11
92.324
21
-93.6977
0
LINE
8
BLACK
6
CONTINUOUS
10
92.324
20
-93.6977
11
92.198
21
-93.5092
0
LINE
8
BLACK
6
CONTINUOUS
10
92.198
20
-93.5092
11
92.1112
21
-93.2997
0
LINE
8
BLACK
6
CONTINUOUS
10
92.1112
20
-93.2997
11
92.067
21
-93.0774
0
LINE
8
BLACK
6
CONTINUOUS
10
92.067
20
-93.0774
11
92.067
21
-92.8506
0
LINE
8
BLACK
6
CONTINUOUS
10
92.067
20
-92.8506
11
92.1112
21
-92.6283
0
LINE
8
BLACK
6
CONTINUOUS
10
92.1112
20
-92.6283
11
92.198
21
-92.4188
0
LINE
8
BLACK
6
CONTINUOUS
10
92.198
20
-92.4188
11
92.324
21
-92.2303
0
LINE
8
BLACK
6
CONTINUOUS
10
92.324
20
-92.2303
11
92.4843
21
-92.07
0
LINE
8
BLACK
6
CONTINUOUS
10
92.4843
20
-92.07
11
92.6728
21
-91.944
0
LINE
8
BLACK
6
CONTINUOUS
10
92.6728
20
-91.944
11
92.8823
21
-91.8572
0
LINE
8
BLACK
6
CONTINUOUS
10
92.8823
20
-91.8572
11
92.9935
21
-91.8351
0
LINE
8
BLACK
6
CONTINUOUS
10
92.9935
20
-91.8351
11
93.1046
21
-91.813
0
LINE
8
BLACK
6
CONTINUOUS
10
93.1046
20
-91.813
11
93.3314
21
-91.813
0
LINE
8
BLACK
6
CONTINUOUS
10
93.3314
20
-91.813
11
93.4425
21
-91.8351
0
LINE
8
BLACK
6
CONTINUOUS
10
80.7425
20
-91.8351
11
80.8537
21
-91.8572
0
LINE
8
BLACK
6
CONTINUOUS
10
80.8537
20
-91.8572
11
81.0632
21
-91.944
0
LINE
8
BLACK
6
CONTINUOUS
10
81.0632
20
-91.944
11
81.2517
21
-92.07
0
LINE
8
BLACK
6
CONTINUOUS
10
81.2517
20
-92.07
11
81.412
21
-92.2303
0
LINE
8
BLACK
6
CONTINUOUS
10
81.412
20
-92.2303
11
81.538
21
-92.4188
0
LINE
8
BLACK
6
CONTINUOUS
10
81.538
20
-92.4188
11
81.6248
21
-92.6283
0
LINE
8
BLACK
6
CONTINUOUS
10
81.6248
20
-92.6283
11
81.669
21
-92.8506
0
LINE
8
BLACK
6
CONTINUOUS
10
81.669
20
-92.8506
11
81.669
21
-93.0774
0
LINE
8
BLACK
6
CONTINUOUS
10
81.669
20
-93.0774
11
81.6248
21
-93.2997
0
LINE
8
BLACK
6
CONTINUOUS
10
81.6248
20
-93.2997
11
81.538
21
-93.5092
0
LINE
8
BLACK
6
CONTINUOUS
10
81.538
20
-93.5092
11
81.412
21
-93.6977
0
LINE
8
BLACK
6
CONTINUOUS
10
81.412
20
-93.6977
11
81.2517
21
-93.858
0
LINE
8
BLACK
6
CONTINUOUS
10
81.2517
20
-93.858
11
81.0632
21
-93.984
0
LINE
8
BLACK
6
CONTINUOUS
10
81.0632
20
-93.984
11
80.8537
21
-94.0708
0
LINE
8
BLACK
6
CONTINUOUS
10
80.8537
20
-94.0708
11
80.7425
21
-94.0929
0
LINE
8
BLACK
6
CONTINUOUS
10
80.7425
20
-94.0929
11
80.6314
21
-94.115
0
LINE
8
BLACK
6
CONTINUOUS
10
80.6314
20
-94.115
11
80.4046
21
-94.115
0
LINE
8
BLACK
6
CONTINUOUS
10
80.4046
20
-94.115
11
80.2935
21
-94.0929
0
LINE
8
BLACK
6
CONTINUOUS
10
80.2935
20
-94.0929
11
80.1823
21
-94.0708
0
LINE
8
BLACK
6
CONTINUOUS
10
80.1823
20
-94.0708
11
79.9728
21
-93.984
0
LINE
8
BLACK
6
CONTINUOUS
10
79.9728
20
-93.984
11
79.7843
21
-93.858
0
LINE
8
BLACK
6
CONTINUOUS
10
79.7843
20
-93.858
11
79.624
21
-93.6977
0
LINE
8
BLACK
6
CONTINUOUS
10
79.624
20
-93.6977
11
79.498
21
-93.5092
0
LINE
8
BLACK
6
CONTINUOUS
10
79.498
20
-93.5092
11
79.4112
21
-93.2997
0
LINE
8
BLACK
6
CONTINUOUS
10
79.4112
20
-93.2997
11
79.367
21
-93.0774
0
LINE
8
BLACK
6
CONTINUOUS
10
79.367
20
-93.0774
11
79.367
21
-92.8506
0
LINE
8
BLACK
6
CONTINUOUS
10
79.367
20
-92.8506
11
79.4112
21
-92.6283
0
LINE
8
BLACK
6
CONTINUOUS
10
79.4112
20
-92.6283
11
79.498
21
-92.4188
0
LINE
8
BLACK
6
CONTINUOUS
10
79.498
20
-92.4188
11
79.624
21
-92.2303
0
LINE
8
BLACK
6
CONTINUOUS
10
79.624
20
-92.2303
11
79.7843
21
-92.07
0
LINE
8
BLACK
6
CONTINUOUS
10
79.7843
20
-92.07
11
79.9728
21
-91.944
0
LINE
8
BLACK
6
CONTINUOUS
10
79.9728
20
-91.944
11
80.1823
21
-91.8572
0
LINE
8
BLACK
6
CONTINUOUS
10
80.1823
20
-91.8572
11
80.2935
21
-91.8351
0
LINE
8
BLACK
6
CONTINUOUS
10
80.2935
20
-91.8351
11
80.4046
21
-91.813
0
LINE
8
BLACK
6
CONTINUOUS
10
80.4046
20
-91.813
11
80.6314
21
-91.813
0
LINE
8
BLACK
6
CONTINUOUS
10
80.6314
20
-91.813
11
80.7425
21
-91.8351
0
LINE
8
BLACK
6
CONTINUOUS
10
74.9005
20
-87.2631
11
75.0117
21
-87.2852
0
LINE
8
BLACK
6
CONTINUOUS
10
75.0117
20
-87.2852
11
75.2212
21
-87.372
0
LINE
8
BLACK
6
CONTINUOUS
10
75.2212
20
-87.372
11
75.4097
21
-87.498
0
LINE
8
BLACK
6
CONTINUOUS
10
75.4097
20
-87.498
11
75.57
21
-87.6583
0
LINE
8
BLACK
6
CONTINUOUS
10
75.57
20
-87.6583
11
75.696
21
-87.8468
0
LINE
8
BLACK
6
CONTINUOUS
10
75.696
20
-87.8468
11
75.7828
21
-88.0563
0
LINE
8
BLACK
6
CONTINUOUS
10
75.7828
20
-88.0563
11
75.827
21
-88.2786
0
LINE
8
BLACK
6
CONTINUOUS
10
75.827
20
-88.2786
11
75.827
21
-88.5054
0
LINE
8
BLACK
6
CONTINUOUS
10
75.827
20
-88.5054
11
75.7828
21
-88.7277
0
LINE
8
BLACK
6
CONTINUOUS
10
75.7828
20
-88.7277
11
75.696
21
-88.9372
0
LINE
8
BLACK
6
CONTINUOUS
10
75.696
20
-88.9372
11
75.57
21
-89.1257
0
LINE
8
BLACK
6
CONTINUOUS
10
75.57
20
-89.1257
11
75.4097
21
-89.286
0
LINE
8
BLACK
6
CONTINUOUS
10
75.4097
20
-89.286
11
75.2212
21
-89.412
0
LINE
8
BLACK
6
CONTINUOUS
10
75.2212
20
-89.412
11
75.0117
21
-89.4988
0
LINE
8
BLACK
6
CONTINUOUS
10
75.0117
20
-89.4988
11
74.9005
21
-89.5209
0
LINE
8
BLACK
6
CONTINUOUS
10
74.9005
20
-89.5209
11
74.7894
21
-89.543
0
LINE
8
BLACK
6
CONTINUOUS
10
74.7894
20
-89.543
11
74.5626
21
-89.543
0
LINE
8
BLACK
6
CONTINUOUS
10
74.5626
20
-89.543
11
74.4515
21
-89.5209
0
LINE
8
BLACK
6
CONTINUOUS
10
74.4515
20
-89.5209
11
74.3403
21
-89.4988
0
LINE
8
BLACK
6
CONTINUOUS
10
74.3403
20
-89.4988
11
74.1308
21
-89.412
0
LINE
8
BLACK
6
CONTINUOUS
10
74.1308
20
-89.412
11
73.9423
21
-89.286
0
LINE
8
BLACK
6
CONTINUOUS
10
73.9423
20
-89.286
11
73.782
21
-89.1257
0
LINE
8
BLACK
6
CONTINUOUS
10
73.782
20
-89.1257
11
73.656
21
-88.9372
0
LINE
8
BLACK
6
CONTINUOUS
10
73.656
20
-88.9372
11
73.5692
21
-88.7277
0
LINE
8
BLACK
6
CONTINUOUS
10
73.5692
20
-88.7277
11
73.525
21
-88.5054
0
LINE
8
BLACK
6
CONTINUOUS
10
73.525
20
-88.5054
11
73.525
21
-88.2786
0
LINE
8
BLACK
6
CONTINUOUS
10
73.525
20
-88.2786
11
73.5692
21
-88.0563
0
LINE
8
BLACK
6
CONTINUOUS
10
73.5692
20
-88.0563
11
73.656
21
-87.8468
0
LINE
8
BLACK
6
CONTINUOUS
10
73.656
20
-87.8468
11
73.782
21
-87.6583
0
LINE
8
BLACK
6
CONTINUOUS
10
73.782
20
-87.6583
11
73.9423
21
-87.498
0
LINE
8
BLACK
6
CONTINUOUS
10
73.9423
20
-87.498
11
74.1308
21
-87.372
0
LINE
8
BLACK
6
CONTINUOUS
10
74.1308
20
-87.372
11
74.3403
21
-87.2852
0
LINE
8
BLACK
6
CONTINUOUS
10
74.3403
20
-87.2852
11
74.4515
21
-87.2631
0
LINE
8
BLACK
6
CONTINUOUS
10
74.4515
20
-87.2631
11
74.5626
21
-87.241
0
LINE
8
BLACK
6
CONTINUOUS
10
74.5626
20
-87.241
11
74.7894
21
-87.241
0
LINE
8
BLACK
6
CONTINUOUS
10
74.7894
20
-87.241
11
74.9005
21
-87.2631
0
LINE
8
BLACK
6
CONTINUOUS
10
73.187
20
-89.443
11
71.085
21
-89.443
0
LINE
8
BLACK
6
CONTINUOUS
10
71.085
20
-89.443
11
71.085
21
-87.341
0
LINE
8
BLACK
6
CONTINUOUS
10
71.085
20
-87.341
11
73.187
21
-87.341
0
LINE
8
BLACK
6
CONTINUOUS
10
73.187
20
-87.341
11
73.187
21
-89.443
0
LINE
8
BLACK
6
CONTINUOUS
10
80.9965
20
-85.9931
11
81.1077
21
-86.0152
0
LINE
8
BLACK
6
CONTINUOUS
10
81.1077
20
-86.0152
11
81.3172
21
-86.102
0
LINE
8
BLACK
6
CONTINUOUS
10
81.3172
20
-86.102
11
81.5057
21
-86.228
0
LINE
8
BLACK
6
CONTINUOUS
10
81.5057
20
-86.228
11
81.666
21
-86.3883
0
LINE
8
BLACK
6
CONTINUOUS
10
81.666
20
-86.3883
11
81.792
21
-86.5768
0
LINE
8
BLACK
6
CONTINUOUS
10
81.792
20
-86.5768
11
81.8788
21
-86.7863
0
LINE
8
BLACK
6
CONTINUOUS
10
81.8788
20
-86.7863
11
81.923
21
-87.0086
0
LINE
8
BLACK
6
CONTINUOUS
10
81.923
20
-87.0086
11
81.923
21
-87.2354
0
LINE
8
BLACK
6
CONTINUOUS
10
81.923
20
-87.2354
11
81.8788
21
-87.4577
0
LINE
8
BLACK
6
CONTINUOUS
10
81.8788
20
-87.4577
11
81.792
21
-87.6672
0
LINE
8
BLACK
6
CONTINUOUS
10
81.792
20
-87.6672
11
81.666
21
-87.8557
0
LINE
8
BLACK
6
CONTINUOUS
10
81.666
20
-87.8557
11
81.5057
21
-88.016
0
LINE
8
BLACK
6
CONTINUOUS
10
81.5057
20
-88.016
11
81.3172
21
-88.142
0
LINE
8
BLACK
6
CONTINUOUS
10
81.3172
20
-88.142
11
81.1077
21
-88.2288
0
LINE
8
BLACK
6
CONTINUOUS
10
81.1077
20
-88.2288
11
80.9965
21
-88.2509
0
LINE
8
BLACK
6
CONTINUOUS
10
80.9965
20
-88.2509
11
80.8854
21
-88.273
0
LINE
8
BLACK
6
CONTINUOUS
10
80.8854
20
-88.273
11
80.6586
21
-88.273
0
LINE
8
BLACK
6
CONTINUOUS
10
80.6586
20
-88.273
11
80.5475
21
-88.2509
0
LINE
8
BLACK
6
CONTINUOUS
10
80.5475
20
-88.2509
11
80.4363
21
-88.2288
0
LINE
8
BLACK
6
CONTINUOUS
10
80.4363
20
-88.2288
11
80.2268
21
-88.142
0
LINE
8
BLACK
6
CONTINUOUS
10
80.2268
20
-88.142
11
80.0383
21
-88.016
0
LINE
8
BLACK
6
CONTINUOUS
10
80.0383
20
-88.016
11
79.878
21
-87.8557
0
LINE
8
BLACK
6
CONTINUOUS
10
79.878
20
-87.8557
11
79.752
21
-87.6672
0
LINE
8
BLACK
6
CONTINUOUS
10
79.752
20
-87.6672
11
79.6652
21
-87.4577
0
LINE
8
BLACK
6
CONTINUOUS
10
79.6652
20
-87.4577
11
79.621
21
-87.2354
0
LINE
8
BLACK
6
CONTINUOUS
10
79.621
20
-87.2354
11
79.621
21
-87.0086
0
LINE
8
BLACK
6
CONTINUOUS
10
79.621
20
-87.0086
11
79.6652
21
-86.7863
0
LINE
8
BLACK
6
CONTINUOUS
10
79.6652
20
-86.7863
11
79.752
21
-86.5768
0
LINE
8
BLACK
6
CONTINUOUS
10
79.752
20
-86.5768
11
79.878
21
-86.3883
0
LINE
8
BLACK
6
CONTINUOUS
10
79.878
20
-86.3883
11
80.0383
21
-86.228
0
LINE
8
BLACK
6
CONTINUOUS
10
80.0383
20
-86.228
11
80.2268
21
-86.102
0
LINE
8
BLACK
6
CONTINUOUS
10
80.2268
20
-86.102
11
80.4363
21
-86.0152
0
LINE
8
BLACK
6
CONTINUOUS
10
80.4363
20
-86.0152
11
80.5475
21
-85.9931
0
LINE
8
BLACK
6
CONTINUOUS
10
80.5475
20
-85.9931
11
80.6586
21
-85.971
0
LINE
8
BLACK
6
CONTINUOUS
10
80.6586
20
-85.971
11
80.8854
21
-85.971
0
LINE
8
BLACK
6
CONTINUOUS
10
80.8854
20
-85.971
11
80.9965
21
-85.9931
0
LINE
8
BLACK
6
CONTINUOUS
10
93.6965
20
-85.9931
11
93.8077
21
-86.0152
0
LINE
8
BLACK
6
CONTINUOUS
10
93.8077
20
-86.0152
11
94.0172
21
-86.102
0
LINE
8
BLACK
6
CONTINUOUS
10
94.0172
20
-86.102
11
94.2057
21
-86.228
0
LINE
8
BLACK
6
CONTINUOUS
10
94.2057
20
-86.228
11
94.366
21
-86.3883
0
LINE
8
BLACK
6
CONTINUOUS
10
94.366
20
-86.3883
11
94.492
21
-86.5768
0
LINE
8
BLACK
6
CONTINUOUS
10
94.492
20
-86.5768
11
94.5788
21
-86.7863
0
LINE
8
BLACK
6
CONTINUOUS
10
94.5788
20
-86.7863
11
94.623
21
-87.0086
0
LINE
8
BLACK
6
CONTINUOUS
10
94.623
20
-87.0086
11
94.623
21
-87.2354
0
LINE
8
BLACK
6
CONTINUOUS
10
94.623
20
-87.2354
11
94.5788
21
-87.4577
0
LINE
8
BLACK
6
CONTINUOUS
10
94.5788
20
-87.4577
11
94.492
21
-87.6672
0
LINE
8
BLACK
6
CONTINUOUS
10
94.492
20
-87.6672
11
94.366
21
-87.8557
0
LINE
8
BLACK
6
CONTINUOUS
10
94.366
20
-87.8557
11
94.2057
21
-88.016
0
LINE
8
BLACK
6
CONTINUOUS
10
94.2057
20
-88.016
11
94.0172
21
-88.142
0
LINE
8
BLACK
6
CONTINUOUS
10
94.0172
20
-88.142
11
93.8077
21
-88.2288
0
LINE
8
BLACK
6
CONTINUOUS
10
93.8077
20
-88.2288
11
93.6965
21
-88.2509
0
LINE
8
BLACK
6
CONTINUOUS
10
93.6965
20
-88.2509
11
93.5854
21
-88.273
0
LINE
8
BLACK
6
CONTINUOUS
10
93.5854
20
-88.273
11
93.3586
21
-88.273
0
LINE
8
BLACK
6
CONTINUOUS
10
93.3586
20
-88.273
11
93.2475
21
-88.2509
0
LINE
8
BLACK
6
CONTINUOUS
10
93.2475
20
-88.2509
11
93.1363
21
-88.2288
0
LINE
8
BLACK
6
CONTINUOUS
10
93.1363
20
-88.2288
11
92.9268
21
-88.142
0
LINE
8
BLACK
6
CONTINUOUS
10
92.9268
20
-88.142
11
92.7383
21
-88.016
0
LINE
8
BLACK
6
CONTINUOUS
10
92.7383
20
-88.016
11
92.578
21
-87.8557
0
LINE
8
BLACK
6
CONTINUOUS
10
92.578
20
-87.8557
11
92.452
21
-87.6672
0
LINE
8
BLACK
6
CONTINUOUS
10
92.452
20
-87.6672
11
92.3652
21
-87.4577
0
LINE
8
BLACK
6
CONTINUOUS
10
92.3652
20
-87.4577
11
92.321
21
-87.2354
0
LINE
8
BLACK
6
CONTINUOUS
10
92.321
20
-87.2354
11
92.321
21
-87.0086
0
LINE
8
BLACK
6
CONTINUOUS
10
92.321
20
-87.0086
11
92.3652
21
-86.7863
0
LINE
8
BLACK
6
CONTINUOUS
10
92.3652
20
-86.7863
11
92.452
21
-86.5768
0
LINE
8
BLACK
6
CONTINUOUS
10
92.452
20
-86.5768
11
92.578
21
-86.3883
0
LINE
8
BLACK
6
CONTINUOUS
10
92.578
20
-86.3883
11
92.7383
21
-86.228
0
LINE
8
BLACK
6
CONTINUOUS
10
92.7383
20
-86.228
11
92.9268
21
-86.102
0
LINE
8
BLACK
6
CONTINUOUS
10
92.9268
20
-86.102
11
93.1363
21
-86.0152
0
LINE
8
BLACK
6
CONTINUOUS
10
93.1363
20
-86.0152
11
93.2475
21
-85.9931
0
LINE
8
BLACK
6
CONTINUOUS
10
93.2475
20
-85.9931
11
93.3586
21
-85.971
0
LINE
8
BLACK
6
CONTINUOUS
10
93.3586
20
-85.971
11
93.5854
21
-85.971
0
LINE
8
BLACK
6
CONTINUOUS
10
93.5854
20
-85.971
11
93.6965
21
-85.9931
0
LINE
8
BLACK
6
CONTINUOUS
10
108.937
20
-85.9931
11
109.048
21
-86.0152
0
LINE
8
BLACK
6
CONTINUOUS
10
109.048
20
-86.0152
11
109.257
21
-86.102
0
LINE
8
BLACK
6
CONTINUOUS
10
109.257
20
-86.102
11
109.446
21
-86.228
0
LINE
8
BLACK
6
CONTINUOUS
10
109.446
20
-86.228
11
109.606
21
-86.3883
0
LINE
8
BLACK
6
CONTINUOUS
10
109.606
20
-86.3883
11
109.732
21
-86.5768
0
LINE
8
BLACK
6
CONTINUOUS
10
109.732
20
-86.5768
11
109.819
21
-86.7863
0
LINE
8
BLACK
6
CONTINUOUS
10
109.819
20
-86.7863
11
109.863
21
-87.0086
0
LINE
8
BLACK
6
CONTINUOUS
10
109.863
20
-87.0086
11
109.863
21
-87.2354
0
LINE
8
BLACK
6
CONTINUOUS
10
109.863
20
-87.2354
11
109.819
21
-87.4577
0
LINE
8
BLACK
6
CONTINUOUS
10
109.819
20
-87.4577
11
109.732
21
-87.6672
0
LINE
8
BLACK
6
CONTINUOUS
10
109.732
20
-87.6672
11
109.606
21
-87.8557
0
LINE
8
BLACK
6
CONTINUOUS
10
109.606
20
-87.8557
11
109.446
21
-88.016
0
LINE
8
BLACK
6
CONTINUOUS
10
109.446
20
-88.016
11
109.257
21
-88.142
0
LINE
8
BLACK
6
CONTINUOUS
10
109.257
20
-88.142
11
109.048
21
-88.2288
0
LINE
8
BLACK
6
CONTINUOUS
10
109.048
20
-88.2288
11
108.937
21
-88.2509
0
LINE
8
BLACK
6
CONTINUOUS
10
108.937
20
-88.2509
11
108.825
21
-88.273
0
LINE
8
BLACK
6
CONTINUOUS
10
108.825
20
-88.273
11
108.599
21
-88.273
0
LINE
8
BLACK
6
CONTINUOUS
10
108.599
20
-88.273
11
108.487
21
-88.2509
0
LINE
8
BLACK
6
CONTINUOUS
10
108.487
20
-88.2509
11
108.376
21
-88.2288
0
LINE
8
BLACK
6
CONTINUOUS
10
108.376
20
-88.2288
11
108.167
21
-88.142
0
LINE
8
BLACK
6
CONTINUOUS
10
108.167
20
-88.142
11
107.978
21
-88.016
0
LINE
8
BLACK
6
CONTINUOUS
10
107.978
20
-88.016
11
107.818
21
-87.8557
0
LINE
8
BLACK
6
CONTINUOUS
10
107.818
20
-87.8557
11
107.692
21
-87.6672
0
LINE
8
BLACK
6
CONTINUOUS
10
107.692
20
-87.6672
11
107.605
21
-87.4577
0
LINE
8
BLACK
6
CONTINUOUS
10
107.605
20
-87.4577
11
107.561
21
-87.2354
0
LINE
8
BLACK
6
CONTINUOUS
10
107.561
20
-87.2354
11
107.561
21
-87.0086
0
LINE
8
BLACK
6
CONTINUOUS
10
107.561
20
-87.0086
11
107.605
21
-86.7863
0
LINE
8
BLACK
6
CONTINUOUS
10
107.605
20
-86.7863
11
107.692
21
-86.5768
0
LINE
8
BLACK
6
CONTINUOUS
10
107.692
20
-86.5768
11
107.818
21
-86.3883
0
LINE
8
BLACK
6
CONTINUOUS
10
107.818
20
-86.3883
11
107.978
21
-86.228
0
LINE
8
BLACK
6
CONTINUOUS
10
107.978
20
-86.228
11
108.167
21
-86.102
0
LINE
8
BLACK
6
CONTINUOUS
10
108.167
20
-86.102
11
108.376
21
-86.0152
0
LINE
8
BLACK
6
CONTINUOUS
10
108.376
20
-86.0152
11
108.487
21
-85.9931
0
LINE
8
BLACK
6
CONTINUOUS
10
108.487
20
-85.9931
11
108.599
21
-85.971
0
LINE
8
BLACK
6
CONTINUOUS
10
108.599
20
-85.971
11
108.825
21
-85.971
0
LINE
8
BLACK
6
CONTINUOUS
10
108.825
20
-85.971
11
108.937
21
-85.9931
0
LINE
8
BLACK
6
CONTINUOUS
10
97.063
20
-88.173
11
94.961
21
-88.173
0
LINE
8
BLACK
6
CONTINUOUS
10
94.961
20
-88.173
11
94.961
21
-86.071
0
LINE
8
BLACK
6
CONTINUOUS
10
94.961
20
-86.071
11
97.063
21
-86.071
0
LINE
8
BLACK
6
CONTINUOUS
10
97.063
20
-86.071
11
97.063
21
-88.173
0
LINE
8
BLACK
6
CONTINUOUS
10
93.4425
20
-77.6111
11
93.5537
21
-77.6332
0
LINE
8
BLACK
6
CONTINUOUS
10
93.5537
20
-77.6332
11
93.7632
21
-77.72
0
LINE
8
BLACK
6
CONTINUOUS
10
93.7632
20
-77.72
11
93.9517
21
-77.846
0
LINE
8
BLACK
6
CONTINUOUS
10
93.9517
20
-77.846
11
94.112
21
-78.0063
0
LINE
8
BLACK
6
CONTINUOUS
10
94.112
20
-78.0063
11
94.238
21
-78.1948
0
LINE
8
BLACK
6
CONTINUOUS
10
94.238
20
-78.1948
11
94.238
21
-78.1948
0
LINE
8
BLACK
6
CONTINUOUS
10
94.238
20
-78.1948
11
94.2421
21
-78.2047
0
LINE
8
BLACK
6
CONTINUOUS
10
94.2421
20
-78.2047
11
94.3248
21
-78.4043
0
LINE
8
BLACK
6
CONTINUOUS
10
94.3248
20
-78.4043
11
94.369
21
-78.6266
0
LINE
8
BLACK
6
CONTINUOUS
10
94.369
20
-78.6266
11
94.369
21
-78.8534
0
LINE
8
BLACK
6
CONTINUOUS
10
94.369
20
-78.8534
11
94.3248
21
-79.0757
0
LINE
8
BLACK
6
CONTINUOUS
10
94.3248
20
-79.0757
11
94.3027
21
-79.129
0
LINE
8
BLACK
6
CONTINUOUS
10
94.3027
20
-79.129
11
94.2518
21
-79.252
0
LINE
8
BLACK
6
CONTINUOUS
10
94.2518
20
-79.252
11
94.238
21
-79.2852
0
LINE
8
BLACK
6
CONTINUOUS
10
94.238
20
-79.2852
11
94.112
21
-79.4737
0
LINE
8
BLACK
6
CONTINUOUS
10
94.112
20
-79.4737
11
93.9517
21
-79.634
0
LINE
8
BLACK
6
CONTINUOUS
10
93.9517
20
-79.634
11
93.7632
21
-79.76
0
LINE
8
BLACK
6
CONTINUOUS
10
93.7632
20
-79.76
11
93.5537
21
-79.8468
0
LINE
8
BLACK
6
CONTINUOUS
10
93.5537
20
-79.8468
11
93.4262
21
-79.8721
0
LINE
8
BLACK
6
CONTINUOUS
10
93.4262
20
-79.8721
11
93.3494
21
-79.8874
0
LINE
8
BLACK
6
CONTINUOUS
10
93.3494
20
-79.8874
11
93.326
21
-79.8945
0
LINE
8
BLACK
6
CONTINUOUS
10
93.326
20
-79.8945
11
93.3044
21
-79.9061
0
LINE
8
BLACK
6
CONTINUOUS
10
93.3044
20
-79.9061
11
93.2854
21
-79.9216
0
LINE
8
BLACK
6
CONTINUOUS
10
93.2854
20
-79.9216
11
93.2699
21
-79.9406
0
LINE
8
BLACK
6
CONTINUOUS
10
93.2699
20
-79.9406
11
93.2583
21
-79.9622
0
LINE
8
BLACK
6
CONTINUOUS
10
93.2583
20
-79.9622
11
93.2512
21
-79.9856
0
LINE
8
BLACK
6
CONTINUOUS
10
93.2512
20
-79.9856
11
93.2488
21
-80.01
0
LINE
8
BLACK
6
CONTINUOUS
10
93.2488
20
-80.01
11
93.2512
21
-80.0344
0
LINE
8
BLACK
6
CONTINUOUS
10
93.2512
20
-80.0344
11
93.2583
21
-80.0578
0
LINE
8
BLACK
6
CONTINUOUS
10
93.2583
20
-80.0578
11
93.2699
21
-80.0794
0
LINE
8
BLACK
6
CONTINUOUS
10
93.2699
20
-80.0794
11
93.2854
21
-80.0984
0
LINE
8
BLACK
6
CONTINUOUS
10
93.2854
20
-80.0984
11
93.3044
21
-80.1139
0
LINE
8
BLACK
6
CONTINUOUS
10
93.3044
20
-80.1139
11
93.326
21
-80.1255
0
LINE
8
BLACK
6
CONTINUOUS
10
93.326
20
-80.1255
11
93.3494
21
-80.1326
0
LINE
8
BLACK
6
CONTINUOUS
10
93.3494
20
-80.1326
11
93.4262
21
-80.1479
0
LINE
8
BLACK
6
CONTINUOUS
10
93.4262
20
-80.1479
11
93.5537
21
-80.1732
0
LINE
8
BLACK
6
CONTINUOUS
10
93.5537
20
-80.1732
11
93.7632
21
-80.26
0
LINE
8
BLACK
6
CONTINUOUS
10
93.7632
20
-80.26
11
93.9517
21
-80.386
0
LINE
8
BLACK
6
CONTINUOUS
10
93.9517
20
-80.386
11
94.112
21
-80.5463
0
LINE
8
BLACK
6
CONTINUOUS
10
94.112
20
-80.5463
11
94.238
21
-80.7348
0
LINE
8
BLACK
6
CONTINUOUS
10
94.238
20
-80.7348
11
94.3248
21
-80.9443
0
LINE
8
BLACK
6
CONTINUOUS
10
94.3248
20
-80.9443
11
94.369
21
-81.1666
0
LINE
8
BLACK
6
CONTINUOUS
10
94.369
20
-81.1666
11
94.369
21
-81.3934
0
LINE
8
BLACK
6
CONTINUOUS
10
94.369
20
-81.3934
11
94.3248
21
-81.6157
0
LINE
8
BLACK
6
CONTINUOUS
10
94.3248
20
-81.6157
11
94.238
21
-81.8252
0
LINE
8
BLACK
6
CONTINUOUS
10
94.238
20
-81.8252
11
94.112
21
-82.0137
0
LINE
8
BLACK
6
CONTINUOUS
10
94.112
20
-82.0137
11
93.9517
21
-82.174
0
LINE
8
BLACK
6
CONTINUOUS
10
93.9517
20
-82.174
11
93.7632
21
-82.3
0
LINE
8
BLACK
6
CONTINUOUS
10
93.7632
20
-82.3
11
93.5537
21
-82.3868
0
LINE
8
BLACK
6
CONTINUOUS
10
93.5537
20
-82.3868
11
93.4425
21
-82.4089
0
LINE
8
BLACK
6
CONTINUOUS
10
93.4425
20
-82.4089
11
93.3314
21
-82.431
0
LINE
8
BLACK
6
CONTINUOUS
10
93.3314
20
-82.431
11
93.1046
21
-82.431
0
LINE
8
BLACK
6
CONTINUOUS
10
93.1046
20
-82.431
11
92.9935
21
-82.4089
0
LINE
8
BLACK
6
CONTINUOUS
10
92.9935
20
-82.4089
11
92.8823
21
-82.3868
0
LINE
8
BLACK
6
CONTINUOUS
10
92.8823
20
-82.3868
11
92.6728
21
-82.3
0
LINE
8
BLACK
6
CONTINUOUS
10
92.6728
20
-82.3
11
92.4843
21
-82.174
0
LINE
8
BLACK
6
CONTINUOUS
10
92.4843
20
-82.174
11
92.324
21
-82.0137
0
LINE
8
BLACK
6
CONTINUOUS
10
92.324
20
-82.0137
11
92.198
21
-81.8252
0
LINE
8
BLACK
6
CONTINUOUS
10
92.198
20
-81.8252
11
92.1112
21
-81.6157
0
LINE
8
BLACK
6
CONTINUOUS
10
92.1112
20
-81.6157
11
92.067
21
-81.3934
0
LINE
8
BLACK
6
CONTINUOUS
10
92.067
20
-81.3934
11
92.067
21
-81.1666
0
LINE
8
BLACK
6
CONTINUOUS
10
92.067
20
-81.1666
11
92.1112
21
-80.9443
0
LINE
8
BLACK
6
CONTINUOUS
10
92.1112
20
-80.9443
11
92.198
21
-80.7348
0
LINE
8
BLACK
6
CONTINUOUS
10
92.198
20
-80.7348
11
92.324
21
-80.5463
0
LINE
8
BLACK
6
CONTINUOUS
10
92.324
20
-80.5463
11
92.4843
21
-80.386
0
LINE
8
BLACK
6
CONTINUOUS
10
92.4843
20
-80.386
11
92.6728
21
-80.26
0
LINE
8
BLACK
6
CONTINUOUS
10
92.6728
20
-80.26
11
92.8823
21
-80.1732
0
LINE
8
BLACK
6
CONTINUOUS
10
92.8823
20
-80.1732
11
93.0098
21
-80.1479
0
LINE
8
BLACK
6
CONTINUOUS
10
93.0098
20
-80.1479
11
93.0866
21
-80.1326
0
LINE
8
BLACK
6
CONTINUOUS
10
93.0866
20
-80.1326
11
93.11
21
-80.1255
0
LINE
8
BLACK
6
CONTINUOUS
10
93.11
20
-80.1255
11
93.1316
21
-80.1139
0
LINE
8
BLACK
6
CONTINUOUS
10
93.1316
20
-80.1139
11
93.1506
21
-80.0984
0
LINE
8
BLACK
6
CONTINUOUS
10
93.1506
20
-80.0984
11
93.1661
21
-80.0794
0
LINE
8
BLACK
6
CONTINUOUS
10
93.1661
20
-80.0794
11
93.1776
21
-80.0578
0
LINE
8
BLACK
6
CONTINUOUS
10
93.1776
20
-80.0578
11
93.1848
21
-80.0344
0
LINE
8
BLACK
6
CONTINUOUS
10
93.1848
20
-80.0344
11
93.1872
21
-80.01
0
LINE
8
BLACK
6
CONTINUOUS
10
93.1872
20
-80.01
11
93.1848
21
-79.9856
0
LINE
8
BLACK
6
CONTINUOUS
10
93.1848
20
-79.9856
11
93.1776
21
-79.9622
0
LINE
8
BLACK
6
CONTINUOUS
10
93.1776
20
-79.9622
11
93.1661
21
-79.9406
0
LINE
8
BLACK
6
CONTINUOUS
10
93.1661
20
-79.9406
11
93.1506
21
-79.9216
0
LINE
8
BLACK
6
CONTINUOUS
10
93.1506
20
-79.9216
11
93.1316
21
-79.9061
0
LINE
8
BLACK
6
CONTINUOUS
10
93.1316
20
-79.9061
11
93.11
21
-79.8945
0
LINE
8
BLACK
6
CONTINUOUS
10
93.11
20
-79.8945
11
93.0866
21
-79.8874
0
LINE
8
BLACK
6
CONTINUOUS
10
93.0866
20
-79.8874
11
93.0098
21
-79.8721
0
LINE
8
BLACK
6
CONTINUOUS
10
93.0098
20
-79.8721
11
92.8823
21
-79.8468
0
LINE
8
BLACK
6
CONTINUOUS
10
92.8823
20
-79.8468
11
92.6728
21
-79.76
0
LINE
8
BLACK
6
CONTINUOUS
10
92.6728
20
-79.76
11
92.4843
21
-79.634
0
LINE
8
BLACK
6
CONTINUOUS
10
92.4843
20
-79.634
11
92.324
21
-79.4737
0
LINE
8
BLACK
6
CONTINUOUS
10
92.324
20
-79.4737
11
92.198
21
-79.2852
0
LINE
8
BLACK
6
CONTINUOUS
10
92.198
20
-79.2852
11
92.1842
21
-79.252
0
LINE
8
BLACK
6
CONTINUOUS
10
92.1842
20
-79.252
11
92.1333
21
-79.129
0
LINE
8
BLACK
6
CONTINUOUS
10
92.1333
20
-79.129
11
92.1112
21
-79.0757
0
LINE
8
BLACK
6
CONTINUOUS
10
92.1112
20
-79.0757
11
92.067
21
-78.8534
0
LINE
8
BLACK
6
CONTINUOUS
10
92.067
20
-78.8534
11
92.067
21
-78.6266
0
LINE
8
BLACK
6
CONTINUOUS
10
92.067
20
-78.6266
11
92.1112
21
-78.4043
0
LINE
8
BLACK
6
CONTINUOUS
10
92.1112
20
-78.4043
11
92.1939
21
-78.2047
0
LINE
8
BLACK
6
CONTINUOUS
10
92.1939
20
-78.2047
11
92.198
21
-78.1948
0
LINE
8
BLACK
6
CONTINUOUS
10
92.198
20
-78.1948
11
92.198
21
-78.1948
0
LINE
8
BLACK
6
CONTINUOUS
10
92.198
20
-78.1948
11
92.324
21
-78.0063
0
LINE
8
BLACK
6
CONTINUOUS
10
92.324
20
-78.0063
11
92.4843
21
-77.846
0
LINE
8
BLACK
6
CONTINUOUS
10
92.4843
20
-77.846
11
92.6728
21
-77.72
0
LINE
8
BLACK
6
CONTINUOUS
10
92.6728
20
-77.72
11
92.8823
21
-77.6332
0
LINE
8
BLACK
6
CONTINUOUS
10
92.8823
20
-77.6332
11
92.9935
21
-77.6111
0
LINE
8
BLACK
6
CONTINUOUS
10
92.9935
20
-77.6111
11
93.1046
21
-77.589
0
LINE
8
BLACK
6
CONTINUOUS
10
93.1046
20
-77.589
11
93.3314
21
-77.589
0
LINE
8
BLACK
6
CONTINUOUS
10
93.3314
20
-77.589
11
93.4425
21
-77.6111
0
LINE
8
BLACK
6
CONTINUOUS
10
98.0145
20
-74.6031
11
98.1257
21
-74.6252
0
LINE
8
BLACK
6
CONTINUOUS
10
98.1257
20
-74.6252
11
98.3352
21
-74.712
0
LINE
8
BLACK
6
CONTINUOUS
10
98.3352
20
-74.712
11
98.5237
21
-74.838
0
LINE
8
BLACK
6
CONTINUOUS
10
98.5237
20
-74.838
11
98.684
21
-74.9983
0
LINE
8
BLACK
6
CONTINUOUS
10
98.684
20
-74.9983
11
98.81
21
-75.1868
0
LINE
8
BLACK
6
CONTINUOUS
10
98.81
20
-75.1868
11
98.81
21
-75.1868
0
LINE
8
BLACK
6
CONTINUOUS
10
98.81
20
-75.1868
11
98.8968
21
-75.3963
0
LINE
8
BLACK
6
CONTINUOUS
10
98.8968
20
-75.3963
11
98.941
21
-75.6186
0
LINE
8
BLACK
6
CONTINUOUS
10
98.941
20
-75.6186
11
98.941
21
-75.8454
0
LINE
8
BLACK
6
CONTINUOUS
10
98.941
20
-75.8454
11
98.8968
21
-76.0677
0
LINE
8
BLACK
6
CONTINUOUS
10
98.8968
20
-76.0677
11
98.815
21
-76.2653
0
LINE
8
BLACK
6
CONTINUOUS
10
98.815
20
-76.2653
11
98.81
21
-76.2772
0
LINE
8
BLACK
6
CONTINUOUS
10
98.81
20
-76.2772
11
98.684
21
-76.4657
0
LINE
8
BLACK
6
CONTINUOUS
10
98.684
20
-76.4657
11
98.5237
21
-76.626
0
LINE
8
BLACK
6
CONTINUOUS
10
98.5237
20
-76.626
11
98.3352
21
-76.752
0
LINE
8
BLACK
6
CONTINUOUS
10
98.3352
20
-76.752
11
98.1257
21
-76.8388
0
LINE
8
BLACK
6
CONTINUOUS
10
98.1257
20
-76.8388
11
98.022
21
-76.8594
0
LINE
8
BLACK
6
CONTINUOUS
10
98.022
20
-76.8594
11
97.9985
21
-76.8665
0
LINE
8
BLACK
6
CONTINUOUS
10
97.9985
20
-76.8665
11
97.9769
21
-76.8781
0
LINE
8
BLACK
6
CONTINUOUS
10
97.9769
20
-76.8781
11
97.958
21
-76.8936
0
LINE
8
BLACK
6
CONTINUOUS
10
97.958
20
-76.8936
11
97.9424
21
-76.9126
0
LINE
8
BLACK
6
CONTINUOUS
10
97.9424
20
-76.9126
11
97.9309
21
-76.9342
0
LINE
8
BLACK
6
CONTINUOUS
10
97.9309
20
-76.9342
11
97.9238
21
-76.9576
0
LINE
8
BLACK
6
CONTINUOUS
10
97.9238
20
-76.9576
11
97.9214
21
-76.982
0
LINE
8
BLACK
6
CONTINUOUS
10
97.9214
20
-76.982
11
97.9238
21
-77.0064
0
LINE
8
BLACK
6
CONTINUOUS
10
97.9238
20
-77.0064
11
97.9309
21
-77.0298
0
LINE
8
BLACK
6
CONTINUOUS
10
97.9309
20
-77.0298
11
97.9424
21
-77.0514
0
LINE
8
BLACK
6
CONTINUOUS
10
97.9424
20
-77.0514
11
97.958
21
-77.0704
0
LINE
8
BLACK
6
CONTINUOUS
10
97.958
20
-77.0704
11
97.9769
21
-77.0859
0
LINE
8
BLACK
6
CONTINUOUS
10
97.9769
20
-77.0859
11
97.9985
21
-77.0975
0
LINE
8
BLACK
6
CONTINUOUS
10
97.9985
20
-77.0975
11
98.022
21
-77.1046
0
LINE
8
BLACK
6
CONTINUOUS
10
98.022
20
-77.1046
11
98.1257
21
-77.1252
0
LINE
8
BLACK
6
CONTINUOUS
10
98.1257
20
-77.1252
11
98.3352
21
-77.212
0
LINE
8
BLACK
6
CONTINUOUS
10
98.3352
20
-77.212
11
98.5237
21
-77.338
0
LINE
8
BLACK
6
CONTINUOUS
10
98.5237
20
-77.338
11
98.684
21
-77.4983
0
LINE
8
BLACK
6
CONTINUOUS
10
98.684
20
-77.4983
11
98.7742
21
-77.6332
0
LINE
8
BLACK
6
CONTINUOUS
10
98.7742
20
-77.6332
11
98.81
21
-77.6868
0
LINE
8
BLACK
6
CONTINUOUS
10
98.81
20
-77.6868
11
98.8238
21
-77.72
0
LINE
8
BLACK
6
CONTINUOUS
10
98.8238
20
-77.72
11
98.8759
21
-77.846
0
LINE
8
BLACK
6
CONTINUOUS
10
98.8759
20
-77.846
11
98.8968
21
-77.8963
0
LINE
8
BLACK
6
CONTINUOUS
10
98.8968
20
-77.8963
11
98.9356
21
-78.0914
0
LINE
8
BLACK
6
CONTINUOUS
10
98.9356
20
-78.0914
11
98.941
21
-78.1186
0
LINE
8
BLACK
6
CONTINUOUS
10
98.941
20
-78.1186
11
98.941
21
-78.3454
0
LINE
8
BLACK
6
CONTINUOUS
10
98.941
20
-78.3454
11
98.8968
21
-78.5677
0
LINE
8
BLACK
6
CONTINUOUS
10
98.8968
20
-78.5677
11
98.81
21
-78.7772
0
LINE
8
BLACK
6
CONTINUOUS
10
98.81
20
-78.7772
11
98.684
21
-78.9657
0
LINE
8
BLACK
6
CONTINUOUS
10
98.684
20
-78.9657
11
98.5237
21
-79.126
0
LINE
8
BLACK
6
CONTINUOUS
10
98.5237
20
-79.126
11
98.3352
21
-79.252
0
LINE
8
BLACK
6
CONTINUOUS
10
98.3352
20
-79.252
11
98.1257
21
-79.3388
0
LINE
8
BLACK
6
CONTINUOUS
10
98.1257
20
-79.3388
11
98.0145
21
-79.3609
0
LINE
8
BLACK
6
CONTINUOUS
10
98.0145
20
-79.3609
11
97.9034
21
-79.383
0
LINE
8
BLACK
6
CONTINUOUS
10
97.9034
20
-79.383
11
97.6766
21
-79.383
0
LINE
8
BLACK
6
CONTINUOUS
10
97.6766
20
-79.383
11
97.5655
21
-79.3609
0
LINE
8
BLACK
6
CONTINUOUS
10
97.5655
20
-79.3609
11
97.4543
21
-79.3388
0
LINE
8
BLACK
6
CONTINUOUS
10
97.4543
20
-79.3388
11
97.2448
21
-79.252
0
LINE
8
BLACK
6
CONTINUOUS
10
97.2448
20
-79.252
11
97.0563
21
-79.126
0
LINE
8
BLACK
6
CONTINUOUS
10
97.0563
20
-79.126
11
96.896
21
-78.9657
0
LINE
8
BLACK
6
CONTINUOUS
10
96.896
20
-78.9657
11
96.77
21
-78.7772
0
LINE
8
BLACK
6
CONTINUOUS
10
96.77
20
-78.7772
11
96.6832
21
-78.5677
0
LINE
8
BLACK
6
CONTINUOUS
10
96.6832
20
-78.5677
11
96.639
21
-78.3454
0
LINE
8
BLACK
6
CONTINUOUS
10
96.639
20
-78.3454
11
96.639
21
-78.1186
0
LINE
8
BLACK
6
CONTINUOUS
10
96.639
20
-78.1186
11
96.6444
21
-78.0914
0
LINE
8
BLACK
6
CONTINUOUS
10
96.6444
20
-78.0914
11
96.6832
21
-77.8963
0
LINE
8
BLACK
6
CONTINUOUS
10
96.6832
20
-77.8963
11
96.7041
21
-77.846
0
LINE
8
BLACK
6
CONTINUOUS
10
96.7041
20
-77.846
11
96.7562
21
-77.72
0
LINE
8
BLACK
6
CONTINUOUS
10
96.7562
20
-77.72
11
96.77
21
-77.6868
0
LINE
8
BLACK
6
CONTINUOUS
10
96.77
20
-77.6868
11
96.8058
21
-77.6332
0
LINE
8
BLACK
6
CONTINUOUS
10
96.8058
20
-77.6332
11
96.896
21
-77.4983
0
LINE
8
BLACK
6
CONTINUOUS
10
96.896
20
-77.4983
11
97.0563
21
-77.338
0
LINE
8
BLACK
6
CONTINUOUS
10
97.0563
20
-77.338
11
97.2448
21
-77.212
0
LINE
8
BLACK
6
CONTINUOUS
10
97.2448
20
-77.212
11
97.4543
21
-77.1252
0
LINE
8
BLACK
6
CONTINUOUS
10
97.4543
20
-77.1252
11
97.558
21
-77.1046
0
LINE
8
BLACK
6
CONTINUOUS
10
97.558
20
-77.1046
11
97.5815
21
-77.0975
0
LINE
8
BLACK
6
CONTINUOUS
10
97.5815
20
-77.0975
11
97.6031
21
-77.0859
0
LINE
8
BLACK
6
CONTINUOUS
10
97.6031
20
-77.0859
11
97.622
21
-77.0704
0
LINE
8
BLACK
6
CONTINUOUS
10
97.622
20
-77.0704
11
97.6376
21
-77.0514
0
LINE
8
BLACK
6
CONTINUOUS
10
97.6376
20
-77.0514
11
97.6491
21
-77.0298
0
LINE
8
BLACK
6
CONTINUOUS
10
97.6491
20
-77.0298
11
97.6562
21
-77.0064
0
LINE
8
BLACK
6
CONTINUOUS
10
97.6562
20
-77.0064
11
97.6586
21
-76.982
0
LINE
8
BLACK
6
CONTINUOUS
10
97.6586
20
-76.982
11
97.6562
21
-76.9576
0
LINE
8
BLACK
6
CONTINUOUS
10
97.6562
20
-76.9576
11
97.6491
21
-76.9342
0
LINE
8
BLACK
6
CONTINUOUS
10
97.6491
20
-76.9342
11
97.6376
21
-76.9126
0
LINE
8
BLACK
6
CONTINUOUS
10
97.6376
20
-76.9126
11
97.622
21
-76.8936
0
LINE
8
BLACK
6
CONTINUOUS
10
97.622
20
-76.8936
11
97.6031
21
-76.8781
0
LINE
8
BLACK
6
CONTINUOUS
10
97.6031
20
-76.8781
11
97.5815
21
-76.8665
0
LINE
8
BLACK
6
CONTINUOUS
10
97.5815
20
-76.8665
11
97.558
21
-76.8594
0
LINE
8
BLACK
6
CONTINUOUS
10
97.558
20
-76.8594
11
97.4543
21
-76.8388
0
LINE
8
BLACK
6
CONTINUOUS
10
97.4543
20
-76.8388
11
97.2448
21
-76.752
0
LINE
8
BLACK
6
CONTINUOUS
10
97.2448
20
-76.752
11
97.0563
21
-76.626
0
LINE
8
BLACK
6
CONTINUOUS
10
97.0563
20
-76.626
11
96.896
21
-76.4657
0
LINE
8
BLACK
6
CONTINUOUS
10
96.896
20
-76.4657
11
96.77
21
-76.2772
0
LINE
8
BLACK
6
CONTINUOUS
10
96.77
20
-76.2772
11
96.7651
21
-76.2653
0
LINE
8
BLACK
6
CONTINUOUS
10
96.7651
20
-76.2653
11
96.6832
21
-76.0677
0
LINE
8
BLACK
6
CONTINUOUS
10
96.6832
20
-76.0677
11
96.639
21
-75.8454
0
LINE
8
BLACK
6
CONTINUOUS
10
96.639
20
-75.8454
11
96.639
21
-75.6186
0
LINE
8
BLACK
6
CONTINUOUS
10
96.639
20
-75.6186
11
96.6832
21
-75.3963
0
LINE
8
BLACK
6
CONTINUOUS
10
96.6832
20
-75.3963
11
96.77
21
-75.1868
0
LINE
8
BLACK
6
CONTINUOUS
10
96.77
20
-75.1868
11
96.77
21
-75.1868
0
LINE
8
BLACK
6
CONTINUOUS
10
96.77
20
-75.1868
11
96.896
21
-74.9983
0
LINE
8
BLACK
6
CONTINUOUS
10
96.896
20
-74.9983
11
97.0563
21
-74.838
0
LINE
8
BLACK
6
CONTINUOUS
10
97.0563
20
-74.838
11
97.2448
21
-74.712
0
LINE
8
BLACK
6
CONTINUOUS
10
97.2448
20
-74.712
11
97.4543
21
-74.6252
0
LINE
8
BLACK
6
CONTINUOUS
10
97.4543
20
-74.6252
11
97.5655
21
-74.6031
0
LINE
8
BLACK
6
CONTINUOUS
10
97.5655
20
-74.6031
11
97.6766
21
-74.581
0
LINE
8
BLACK
6
CONTINUOUS
10
97.6766
20
-74.581
11
97.9034
21
-74.581
0
LINE
8
BLACK
6
CONTINUOUS
10
97.9034
20
-74.581
11
98.0145
21
-74.6031
0
LINE
8
BLACK
6
CONTINUOUS
10
84.7545
20
-76.8388
11
84.9177
21
-76.8712
0
LINE
8
BLACK
6
CONTINUOUS
10
84.9177
20
-76.8712
11
85.0175
21
-76.9126
0
LINE
8
BLACK
6
CONTINUOUS
10
85.0175
20
-76.9126
11
85.1263
21
-76.9576
0
LINE
8
BLACK
6
CONTINUOUS
10
85.1263
20
-76.9576
11
85.1272
21
-76.958
0
LINE
8
BLACK
6
CONTINUOUS
10
85.1272
20
-76.958
11
85.3157
21
-77.084
0
LINE
8
BLACK
6
CONTINUOUS
10
85.3157
20
-77.084
11
85.476
21
-77.2443
0
LINE
8
BLACK
6
CONTINUOUS
10
85.476
20
-77.2443
11
85.602
21
-77.4328
0
LINE
8
BLACK
6
CONTINUOUS
10
85.602
20
-77.4328
11
85.6807
21
-77.6228
0
LINE
8
BLACK
6
CONTINUOUS
10
85.6807
20
-77.6228
11
85.6888
21
-77.6423
0
LINE
8
BLACK
6
CONTINUOUS
10
85.6888
20
-77.6423
11
85.733
21
-77.8646
0
LINE
8
BLACK
6
CONTINUOUS
10
85.733
20
-77.8646
11
85.733
21
-78.0914
0
LINE
8
BLACK
6
CONTINUOUS
10
85.733
20
-78.0914
11
85.7276
21
-78.1186
0
LINE
8
BLACK
6
CONTINUOUS
10
85.7276
20
-78.1186
11
85.6888
21
-78.3137
0
LINE
8
BLACK
6
CONTINUOUS
10
85.6888
20
-78.3137
11
85.602
21
-78.5232
0
LINE
8
BLACK
6
CONTINUOUS
10
85.602
20
-78.5232
11
85.476
21
-78.7117
0
LINE
8
BLACK
6
CONTINUOUS
10
85.476
20
-78.7117
11
85.3157
21
-78.872
0
LINE
8
BLACK
6
CONTINUOUS
10
85.3157
20
-78.872
11
85.1272
21
-78.998
0
LINE
8
BLACK
6
CONTINUOUS
10
85.1272
20
-78.998
11
84.9177
21
-79.0848
0
LINE
8
BLACK
6
CONTINUOUS
10
84.9177
20
-79.0848
11
84.8065
21
-79.1069
0
LINE
8
BLACK
6
CONTINUOUS
10
84.8065
20
-79.1069
11
84.6954
21
-79.129
0
LINE
8
BLACK
6
CONTINUOUS
10
84.6954
20
-79.129
11
84.4686
21
-79.129
0
LINE
8
BLACK
6
CONTINUOUS
10
84.4686
20
-79.129
11
84.3575
21
-79.1069
0
LINE
8
BLACK
6
CONTINUOUS
10
84.3575
20
-79.1069
11
84.2463
21
-79.0848
0
LINE
8
BLACK
6
CONTINUOUS
10
84.2463
20
-79.0848
11
84.0368
21
-78.998
0
LINE
8
BLACK
6
CONTINUOUS
10
84.0368
20
-78.998
11
83.8483
21
-78.872
0
LINE
8
BLACK
6
CONTINUOUS
10
83.8483
20
-78.872
11
83.688
21
-78.7117
0
LINE
8
BLACK
6
CONTINUOUS
10
83.688
20
-78.7117
11
83.562
21
-78.5232
0
LINE
8
BLACK
6
CONTINUOUS
10
83.562
20
-78.5232
11
83.4752
21
-78.3137
0
LINE
8
BLACK
6
CONTINUOUS
10
83.4752
20
-78.3137
11
83.4364
21
-78.1186
0
LINE
8
BLACK
6
CONTINUOUS
10
83.4364
20
-78.1186
11
83.431
21
-78.0914
0
LINE
8
BLACK
6
CONTINUOUS
10
83.431
20
-78.0914
11
83.431
21
-77.8646
0
LINE
8
BLACK
6
CONTINUOUS
10
83.431
20
-77.8646
11
83.4752
21
-77.6423
0
LINE
8
BLACK
6
CONTINUOUS
10
83.4752
20
-77.6423
11
83.4833
21
-77.6228
0
LINE
8
BLACK
6
CONTINUOUS
10
83.4833
20
-77.6228
11
83.562
21
-77.4328
0
LINE
8
BLACK
6
CONTINUOUS
10
83.562
20
-77.4328
11
83.688
21
-77.2443
0
LINE
8
BLACK
6
CONTINUOUS
10
83.688
20
-77.2443
11
83.8483
21
-77.084
0
LINE
8
BLACK
6
CONTINUOUS
10
83.8483
20
-77.084
11
84.0368
21
-76.958
0
LINE
8
BLACK
6
CONTINUOUS
10
84.0368
20
-76.958
11
84.0377
21
-76.9576
0
LINE
8
BLACK
6
CONTINUOUS
10
84.0377
20
-76.9576
11
84.1465
21
-76.9126
0
LINE
8
BLACK
6
CONTINUOUS
10
84.1465
20
-76.9126
11
84.2463
21
-76.8712
0
LINE
8
BLACK
6
CONTINUOUS
10
84.2463
20
-76.8712
11
84.4095
21
-76.8388
0
LINE
8
BLACK
6
CONTINUOUS
10
84.4095
20
-76.8388
11
84.4686
21
-76.827
0
LINE
8
BLACK
6
CONTINUOUS
10
84.4686
20
-76.827
11
84.6954
21
-76.827
0
LINE
8
BLACK
6
CONTINUOUS
10
84.6954
20
-76.827
11
84.7545
21
-76.8388
0
LINE
8
BLACK
6
CONTINUOUS
10
103.427
20
-75.9488
11
103.576
21
-75.9786
0
LINE
8
BLACK
6
CONTINUOUS
10
103.576
20
-75.9786
11
103.859
21
-76.0955
0
LINE
8
BLACK
6
CONTINUOUS
10
103.859
20
-76.0955
11
104.113
21
-76.2653
0
LINE
8
BLACK
6
CONTINUOUS
10
104.113
20
-76.2653
11
104.329
21
-76.4813
0
LINE
8
BLACK
6
CONTINUOUS
10
104.329
20
-76.4813
11
104.498
21
-76.7353
0
LINE
8
BLACK
6
CONTINUOUS
10
104.498
20
-76.7353
11
104.615
21
-77.0176
0
LINE
8
BLACK
6
CONTINUOUS
10
104.615
20
-77.0176
11
104.675
21
-77.3172
0
LINE
8
BLACK
6
CONTINUOUS
10
104.675
20
-77.3172
11
104.675
21
-77.6228
0
LINE
8
BLACK
6
CONTINUOUS
10
104.675
20
-77.6228
11
104.615
21
-77.9224
0
LINE
8
BLACK
6
CONTINUOUS
10
104.615
20
-77.9224
11
104.498
21
-78.2047
0
LINE
8
BLACK
6
CONTINUOUS
10
104.498
20
-78.2047
11
104.329
21
-78.4587
0
LINE
8
BLACK
6
CONTINUOUS
10
104.329
20
-78.4587
11
104.113
21
-78.6747
0
LINE
8
BLACK
6
CONTINUOUS
10
104.113
20
-78.6747
11
103.859
21
-78.8445
0
LINE
8
BLACK
6
CONTINUOUS
10
103.859
20
-78.8445
11
103.576
21
-78.9614
0
LINE
8
BLACK
6
CONTINUOUS
10
103.576
20
-78.9614
11
103.427
21
-78.9912
0
LINE
8
BLACK
6
CONTINUOUS
10
103.427
20
-78.9912
11
103.277
21
-79.021
0
LINE
8
BLACK
6
CONTINUOUS
10
103.277
20
-79.021
11
102.971
21
-79.021
0
LINE
8
BLACK
6
CONTINUOUS
10
102.971
20
-79.021
11
102.821
21
-78.9912
0
LINE
8
BLACK
6
CONTINUOUS
10
102.821
20
-78.9912
11
102.672
21
-78.9614
0
LINE
8
BLACK
6
CONTINUOUS
10
102.672
20
-78.9614
11
102.389
21
-78.8445
0
LINE
8
BLACK
6
CONTINUOUS
10
102.389
20
-78.8445
11
102.135
21
-78.6747
0
LINE
8
BLACK
6
CONTINUOUS
10
102.135
20
-78.6747
11
101.919
21
-78.4587
0
LINE
8
BLACK
6
CONTINUOUS
10
101.919
20
-78.4587
11
101.75
21
-78.2047
0
LINE
8
BLACK
6
CONTINUOUS
10
101.75
20
-78.2047
11
101.633
21
-77.9224
0
LINE
8
BLACK
6
CONTINUOUS
10
101.633
20
-77.9224
11
101.573
21
-77.6228
0
LINE
8
BLACK
6
CONTINUOUS
10
101.573
20
-77.6228
11
101.573
21
-77.3172
0
LINE
8
BLACK
6
CONTINUOUS
10
101.573
20
-77.3172
11
101.633
21
-77.0176
0
LINE
8
BLACK
6
CONTINUOUS
10
101.633
20
-77.0176
11
101.75
21
-76.7353
0
LINE
8
BLACK
6
CONTINUOUS
10
101.75
20
-76.7353
11
101.919
21
-76.4813
0
LINE
8
BLACK
6
CONTINUOUS
10
101.919
20
-76.4813
11
102.135
21
-76.2653
0
LINE
8
BLACK
6
CONTINUOUS
10
102.135
20
-76.2653
11
102.389
21
-76.0955
0
LINE
8
BLACK
6
CONTINUOUS
10
102.389
20
-76.0955
11
102.672
21
-75.9786
0
LINE
8
BLACK
6
CONTINUOUS
10
102.672
20
-75.9786
11
102.821
21
-75.9488
0
LINE
8
BLACK
6
CONTINUOUS
10
102.821
20
-75.9488
11
102.971
21
-75.919
0
LINE
8
BLACK
6
CONTINUOUS
10
102.971
20
-75.919
11
103.277
21
-75.919
0
LINE
8
BLACK
6
CONTINUOUS
10
103.277
20
-75.919
11
103.427
21
-75.9488
0
LINE
8
BLACK
6
CONTINUOUS
10
109.755
20
-79.021
11
106.653
21
-79.021
0
LINE
8
BLACK
6
CONTINUOUS
10
106.653
20
-79.021
11
106.653
21
-75.919
0
LINE
8
BLACK
6
CONTINUOUS
10
106.653
20
-75.919
11
109.755
21
-75.919
0
LINE
8
BLACK
6
CONTINUOUS
10
109.755
20
-75.919
11
109.755
21
-79.021
0
LINE
8
BLACK
6
CONTINUOUS
10
94.269
20
-77.251
11
92.167
21
-77.251
0
LINE
8
BLACK
6
CONTINUOUS
10
92.167
20
-77.251
11
92.167
21
-75.149
0
LINE
8
BLACK
6
CONTINUOUS
10
92.167
20
-75.149
11
94.269
21
-75.149
0
LINE
8
BLACK
6
CONTINUOUS
10
94.269
20
-75.149
11
94.269
21
-77.251
0
LINE
8
BLACK
6
CONTINUOUS
10
85.533
20
-76.389
11
83.631
21
-76.389
0
LINE
8
BLACK
6
CONTINUOUS
10
83.631
20
-76.389
11
83.631
21
-74.487
0
LINE
8
BLACK
6
CONTINUOUS
10
83.631
20
-74.487
11
85.533
21
-74.487
0
LINE
8
BLACK
6
CONTINUOUS
10
85.533
20
-74.487
11
85.533
21
-76.389
  0
ENDSEC
  0
EOF
