  0
SECTION
  2
HEADER
  9
$ANGBASE
  50
0.0
  9
$ANGDIR
  70
  1
  9
$MEASUREMENT
  70
0
  0
ENDSEC
  0
SECTION
  2
TABLES
  0
TABLE
  2
LTYPE
  70
4
  0
LTYPE
  5
40F
  2
CONTINUOUS
  70
0
  3
Solid line
  72
65
  73
0
  40
0.0
  0
LTYPE
  5
410
  2
DASHDOT
 70
0
  3
Dash Dot ____ _ ____ _
 72
65
 73
4
 40
2.0
 49
1.25
 49
-0.25
 49
0.25
 49
-0.25
  0
LTYPE
  5
411
  2
DASHED
 70
0
  3
Dashed __ __ __ __ __
 72
65
 73
2
 40
0.75
 49
0.5
 49
-0.25
  0
LTYPE
  5
43B
  2
DOTTED
 70
0
  3
Dotted .  .  .  .
 72
65
 73
2
 40
0.2
 49
0.0
 49
-0.2
  0
ENDTAB
  0
TABLE
  2
STYLE
  70
4
  0
STYLE
  2
KICAD
  70
0
  40
0
  41
1
  42
1
  50
0
  71
0
  3
isocp.shx
  0
STYLE
  2
KICADB
  70
0
  40
0
  41
1
  42
1
  50
0
  71
0
  3
isocp.shx
  0
STYLE
  2
KICADI
  70
0
  40
0
  41
1
  42
1
  50
15
  71
0
  3
isocp.shx
  0
STYLE
  2
KICADBI
  70
0
  40
0
  41
1
  42
1
  50
15
  71
0
  3
isocp.shx
  0
ENDTAB
  0
TABLE
  2
LAYER
  70
30
  0
LAYER
  2
BLACK
  70
0
  62
7
  6
CONTINUOUS
  0
LAYER
  2
GRAY1
  70
0
  62
251
  6
CONTINUOUS
  0
LAYER
  2
GRAY2
  70
0
  62
8
  6
CONTINUOUS
  0
LAYER
  2
GRAY3
  70
0
  62
9
  6
CONTINUOUS
  0
LAYER
  2
WHITE
  70
0
  62
7
  6
CONTINUOUS
  0
LAYER
  2
LYELLOW
  70
0
  62
51
  6
CONTINUOUS
  0
LAYER
  2
BLUE1
  70
0
  62
178
  6
CONTINUOUS
  0
LAYER
  2
GREEN1
  70
0
  62
98
  6
CONTINUOUS
  0
LAYER
  2
CYAN1
  70
0
  62
138
  6
CONTINUOUS
  0
LAYER
  2
RED1
  70
0
  62
18
  6
CONTINUOUS
  0
LAYER
  2
MAGENTA1
  70
0
  62
228
  6
CONTINUOUS
  0
LAYER
  2
BROWN1
  70
0
  62
58
  6
CONTINUOUS
  0
LAYER
  2
BLUE2
  70
0
  62
5
  6
CONTINUOUS
  0
LAYER
  2
GREEN2
  70
0
  62
3
  6
CONTINUOUS
  0
LAYER
  2
CYAN2
  70
0
  62
4
  6
CONTINUOUS
  0
LAYER
  2
RED2
  70
0
  62
1
  6
CONTINUOUS
  0
LAYER
  2
MAGENTA2
  70
0
  62
6
  6
CONTINUOUS
  0
LAYER
  2
BROWN2
  70
0
  62
54
  6
CONTINUOUS
  0
LAYER
  2
BLUE3
  70
0
  62
171
  6
CONTINUOUS
  0
LAYER
  2
GREEN3
  70
0
  62
91
  6
CONTINUOUS
  0
LAYER
  2
CYAN3
  70
0
  62
131
  6
CONTINUOUS
  0
LAYER
  2
RED3
  70
0
  62
11
  6
CONTINUOUS
  0
LAYER
  2
MAGENTA3
  70
0
  62
221
  6
CONTINUOUS
  0
LAYER
  2
YELLOW3
  70
0
  62
2
  6
CONTINUOUS
  0
LAYER
  2
BLUE4
  70
0
  62
5
  6
CONTINUOUS
  0
LAYER
  2
GREEN4
  70
0
  62
3
  6
CONTINUOUS
  0
LAYER
  2
CYAN4
  70
0
  62
4
  6
CONTINUOUS
  0
LAYER
  2
RED4
  70
0
  62
1
  6
CONTINUOUS
  0
LAYER
  2
MAGENTA4
  70
0
  62
6
  6
CONTINUOUS
  0
LAYER
  2
YELLOW4
  70
0
  62
2
  6
CONTINUOUS
  0
ENDTAB
  0
ENDSEC
  0
SECTION
  2
ENTITIES
0
LINE
8
BLACK
6
CONTINUOUS
10
88.73
20
-159.596
11
86.53
21
-159.596
0
LINE
8
BLACK
6
CONTINUOUS
10
86.53
20
-159.596
11
86.53
21
-157.396
0
LINE
8
BLACK
6
CONTINUOUS
10
86.53
20
-157.396
11
88.73
21
-157.396
0
LINE
8
BLACK
6
CONTINUOUS
10
88.73
20
-157.396
11
88.73
21
-159.596
0
LINE
8
BLACK
6
CONTINUOUS
10
103.97
20
-159.596
11
101.77
21
-159.596
0
LINE
8
BLACK
6
CONTINUOUS
10
101.77
20
-159.596
11
101.77
21
-157.396
0
LINE
8
BLACK
6
CONTINUOUS
10
101.77
20
-157.396
11
103.97
21
-157.396
0
LINE
8
BLACK
6
CONTINUOUS
10
103.97
20
-157.396
11
103.97
21
-159.596
0
LINE
8
BLACK
6
CONTINUOUS
10
76.03
20
-159.596
11
73.83
21
-159.596
0
LINE
8
BLACK
6
CONTINUOUS
10
73.83
20
-159.596
11
73.83
21
-157.396
0
LINE
8
BLACK
6
CONTINUOUS
10
73.83
20
-157.396
11
76.03
21
-157.396
0
LINE
8
BLACK
6
CONTINUOUS
10
76.03
20
-157.396
11
76.03
21
-159.596
0
LINE
8
BLACK
6
CONTINUOUS
10
96.35
20
-159.596
11
94.15
21
-159.596
0
LINE
8
BLACK
6
CONTINUOUS
10
94.15
20
-159.596
11
94.15
21
-157.396
0
LINE
8
BLACK
6
CONTINUOUS
10
94.15
20
-157.396
11
96.35
21
-157.396
0
LINE
8
BLACK
6
CONTINUOUS
10
96.35
20
-157.396
11
96.35
21
-159.596
0
LINE
8
BLACK
6
CONTINUOUS
10
93.81
20
-159.596
11
91.61
21
-159.596
0
LINE
8
BLACK
6
CONTINUOUS
10
91.61
20
-159.596
11
91.61
21
-157.396
0
LINE
8
BLACK
6
CONTINUOUS
10
91.61
20
-157.396
11
93.81
21
-157.396
0
LINE
8
BLACK
6
CONTINUOUS
10
93.81
20
-157.396
11
93.81
21
-159.596
0
LINE
8
BLACK
6
CONTINUOUS
10
98.89
20
-159.596
11
96.69
21
-159.596
0
LINE
8
BLACK
6
CONTINUOUS
10
96.69
20
-159.596
11
96.69
21
-157.396
0
LINE
8
BLACK
6
CONTINUOUS
10
96.69
20
-157.396
11
98.89
21
-157.396
0
LINE
8
BLACK
6
CONTINUOUS
10
98.89
20
-157.396
11
98.89
21
-159.596
0
LINE
8
BLACK
6
CONTINUOUS
10
91.27
20
-159.596
11
89.07
21
-159.596
0
LINE
8
BLACK
6
CONTINUOUS
10
89.07
20
-159.596
11
89.07
21
-157.396
0
LINE
8
BLACK
6
CONTINUOUS
10
89.07
20
-157.396
11
91.27
21
-157.396
0
LINE
8
BLACK
6
CONTINUOUS
10
91.27
20
-157.396
11
91.27
21
-159.596
0
LINE
8
BLACK
6
CONTINUOUS
10
106.51
20
-159.596
11
104.31
21
-159.596
0
LINE
8
BLACK
6
CONTINUOUS
10
104.31
20
-159.596
11
104.31
21
-157.396
0
LINE
8
BLACK
6
CONTINUOUS
10
104.31
20
-157.396
11
106.51
21
-157.396
0
LINE
8
BLACK
6
CONTINUOUS
10
106.51
20
-157.396
11
106.51
21
-159.596
0
LINE
8
BLACK
6
CONTINUOUS
10
101.43
20
-159.596
11
99.23
21
-159.596
0
LINE
8
BLACK
6
CONTINUOUS
10
99.23
20
-159.596
11
99.23
21
-157.396
0
LINE
8
BLACK
6
CONTINUOUS
10
99.23
20
-157.396
11
101.43
21
-157.396
0
LINE
8
BLACK
6
CONTINUOUS
10
101.43
20
-157.396
11
101.43
21
-159.596
0
LINE
8
BLACK
6
CONTINUOUS
10
109.05
20
-159.596
11
106.85
21
-159.596
0
LINE
8
BLACK
6
CONTINUOUS
10
106.85
20
-159.596
11
106.85
21
-157.396
0
LINE
8
BLACK
6
CONTINUOUS
10
106.85
20
-157.396
11
109.05
21
-157.396
0
LINE
8
BLACK
6
CONTINUOUS
10
109.05
20
-157.396
11
109.05
21
-159.596
0
LINE
8
BLACK
6
CONTINUOUS
10
86.19
20
-159.596
11
83.99
21
-159.596
0
LINE
8
BLACK
6
CONTINUOUS
10
83.99
20
-159.596
11
83.99
21
-157.396
0
LINE
8
BLACK
6
CONTINUOUS
10
83.99
20
-157.396
11
86.19
21
-157.396
0
LINE
8
BLACK
6
CONTINUOUS
10
86.19
20
-157.396
11
86.19
21
-159.596
0
LINE
8
BLACK
6
CONTINUOUS
10
83.65
20
-159.596
11
81.45
21
-159.596
0
LINE
8
BLACK
6
CONTINUOUS
10
81.45
20
-159.596
11
81.45
21
-157.396
0
LINE
8
BLACK
6
CONTINUOUS
10
81.45
20
-157.396
11
83.65
21
-157.396
0
LINE
8
BLACK
6
CONTINUOUS
10
83.65
20
-157.396
11
83.65
21
-159.596
0
LINE
8
BLACK
6
CONTINUOUS
10
114.13
20
-159.596
11
111.93
21
-159.596
0
LINE
8
BLACK
6
CONTINUOUS
10
111.93
20
-159.596
11
111.93
21
-157.396
0
LINE
8
BLACK
6
CONTINUOUS
10
111.93
20
-157.396
11
114.13
21
-157.396
0
LINE
8
BLACK
6
CONTINUOUS
10
114.13
20
-157.396
11
114.13
21
-159.596
0
LINE
8
BLACK
6
CONTINUOUS
10
81.11
20
-159.596
11
78.91
21
-159.596
0
LINE
8
BLACK
6
CONTINUOUS
10
78.91
20
-159.596
11
78.91
21
-157.396
0
LINE
8
BLACK
6
CONTINUOUS
10
78.91
20
-157.396
11
81.11
21
-157.396
0
LINE
8
BLACK
6
CONTINUOUS
10
81.11
20
-157.396
11
81.11
21
-159.596
0
LINE
8
BLACK
6
CONTINUOUS
10
70.95
20
-159.596
11
68.75
21
-159.596
0
LINE
8
BLACK
6
CONTINUOUS
10
68.75
20
-159.596
11
68.75
21
-157.396
0
LINE
8
BLACK
6
CONTINUOUS
10
68.75
20
-157.396
11
70.95
21
-157.396
0
LINE
8
BLACK
6
CONTINUOUS
10
70.95
20
-157.396
11
70.95
21
-159.596
0
LINE
8
BLACK
6
CONTINUOUS
10
78.57
20
-159.596
11
76.37
21
-159.596
0
LINE
8
BLACK
6
CONTINUOUS
10
76.37
20
-159.596
11
76.37
21
-157.396
0
LINE
8
BLACK
6
CONTINUOUS
10
76.37
20
-157.396
11
78.57
21
-157.396
0
LINE
8
BLACK
6
CONTINUOUS
10
78.57
20
-157.396
11
78.57
21
-159.596
0
LINE
8
BLACK
6
CONTINUOUS
10
111.59
20
-159.596
11
109.39
21
-159.596
0
LINE
8
BLACK
6
CONTINUOUS
10
109.39
20
-159.596
11
109.39
21
-157.396
0
LINE
8
BLACK
6
CONTINUOUS
10
109.39
20
-157.396
11
111.59
21
-157.396
0
LINE
8
BLACK
6
CONTINUOUS
10
111.59
20
-157.396
11
111.59
21
-159.596
0
LINE
8
BLACK
6
CONTINUOUS
10
73.49
20
-159.596
11
71.29
21
-159.596
0
LINE
8
BLACK
6
CONTINUOUS
10
71.29
20
-159.596
11
71.29
21
-157.396
0
LINE
8
BLACK
6
CONTINUOUS
10
71.29
20
-157.396
11
73.49
21
-157.396
0
LINE
8
BLACK
6
CONTINUOUS
10
73.49
20
-157.396
11
73.49
21
-159.596
0
LINE
8
BLACK
6
CONTINUOUS
10
82.888
20
-145.118
11
82.388
21
-145.118
0
LINE
8
BLACK
6
CONTINUOUS
10
82.388
20
-145.118
11
82.388
21
-150.881
0
LINE
8
BLACK
6
CONTINUOUS
10
82.388
20
-150.881
11
83.4305
21
-151.924
0
LINE
8
BLACK
6
CONTINUOUS
10
83.4305
20
-151.924
11
104.249
21
-151.924
0
LINE
8
BLACK
6
CONTINUOUS
10
104.249
20
-151.924
11
104.278
21
-151.921
0
LINE
8
BLACK
6
CONTINUOUS
10
104.278
20
-151.921
11
104.307
21
-151.924
0
LINE
8
BLACK
6
CONTINUOUS
10
104.307
20
-151.924
11
104.396
21
-151.933
0
LINE
8
BLACK
6
CONTINUOUS
10
104.396
20
-151.933
11
104.509
21
-151.967
0
LINE
8
BLACK
6
CONTINUOUS
10
104.509
20
-151.967
11
104.613
21
-152.023
0
LINE
8
BLACK
6
CONTINUOUS
10
104.613
20
-152.023
11
104.704
21
-152.098
0
LINE
8
BLACK
6
CONTINUOUS
10
104.704
20
-152.098
11
104.723
21
-152.121
0
LINE
8
BLACK
6
CONTINUOUS
10
104.723
20
-152.121
11
105.813
21
-153.211
0
LINE
8
BLACK
6
CONTINUOUS
10
105.813
20
-153.211
11
105.836
21
-153.23
0
LINE
8
BLACK
6
CONTINUOUS
10
105.836
20
-153.23
11
105.911
21
-153.321
0
LINE
8
BLACK
6
CONTINUOUS
10
105.911
20
-153.321
11
105.948
21
-153.389
0
LINE
8
BLACK
6
CONTINUOUS
10
105.948
20
-153.389
11
105.967
21
-153.425
0
LINE
8
BLACK
6
CONTINUOUS
10
105.967
20
-153.425
11
106.001
21
-153.538
0
LINE
8
BLACK
6
CONTINUOUS
10
106.001
20
-153.538
11
106.013
21
-153.656
0
LINE
8
BLACK
6
CONTINUOUS
10
106.013
20
-153.656
11
106.01
21
-153.685
0
LINE
8
BLACK
6
CONTINUOUS
10
106.01
20
-153.685
11
106.01
21
-154.856
0
LINE
8
BLACK
6
CONTINUOUS
10
106.01
20
-154.856
11
106.51
21
-154.856
0
LINE
8
BLACK
6
CONTINUOUS
10
106.51
20
-154.856
11
106.51
21
-157.056
0
LINE
8
BLACK
6
CONTINUOUS
10
106.51
20
-157.056
11
104.31
21
-157.056
0
LINE
8
BLACK
6
CONTINUOUS
10
104.31
20
-157.056
11
104.31
21
-154.856
0
LINE
8
BLACK
6
CONTINUOUS
10
104.31
20
-154.856
11
104.81
21
-154.856
0
LINE
8
BLACK
6
CONTINUOUS
10
104.81
20
-154.856
11
104.81
21
-153.905
0
LINE
8
BLACK
6
CONTINUOUS
10
104.81
20
-153.905
11
104.029
21
-153.124
0
LINE
8
BLACK
6
CONTINUOUS
10
104.029
20
-153.124
11
83.2115
21
-153.124
0
LINE
8
BLACK
6
CONTINUOUS
10
83.2115
20
-153.124
11
83.182
21
-153.127
0
LINE
8
BLACK
6
CONTINUOUS
10
83.182
20
-153.127
11
83.0644
21
-153.115
0
LINE
8
BLACK
6
CONTINUOUS
10
83.0644
20
-153.115
11
82.9513
21
-153.081
0
LINE
8
BLACK
6
CONTINUOUS
10
82.9513
20
-153.081
11
82.847
21
-153.025
0
LINE
8
BLACK
6
CONTINUOUS
10
82.847
20
-153.025
11
82.7557
21
-152.95
0
LINE
8
BLACK
6
CONTINUOUS
10
82.7557
20
-152.95
11
82.7369
21
-152.927
0
LINE
8
BLACK
6
CONTINUOUS
10
82.7369
20
-152.927
11
81.3846
21
-151.575
0
LINE
8
BLACK
6
CONTINUOUS
10
81.3846
20
-151.575
11
81.3617
21
-151.556
0
LINE
8
BLACK
6
CONTINUOUS
10
81.3617
20
-151.556
11
81.2867
21
-151.465
0
LINE
8
BLACK
6
CONTINUOUS
10
81.2867
20
-151.465
11
81.231
21
-151.361
0
LINE
8
BLACK
6
CONTINUOUS
10
81.231
20
-151.361
11
81.1967
21
-151.248
0
LINE
8
BLACK
6
CONTINUOUS
10
81.1967
20
-151.248
11
81.188
21
-151.159
0
LINE
8
BLACK
6
CONTINUOUS
10
81.188
20
-151.159
11
81.1851
21
-151.13
0
LINE
8
BLACK
6
CONTINUOUS
10
81.1851
20
-151.13
11
81.188
21
-151.101
0
LINE
8
BLACK
6
CONTINUOUS
10
81.188
20
-151.101
11
81.188
21
-145.118
0
LINE
8
BLACK
6
CONTINUOUS
10
81.188
20
-145.118
11
80.688
21
-145.118
0
LINE
8
BLACK
6
CONTINUOUS
10
80.688
20
-145.118
11
80.688
21
-142.918
0
LINE
8
BLACK
6
CONTINUOUS
10
80.688
20
-142.918
11
82.888
21
-142.918
0
LINE
8
BLACK
6
CONTINUOUS
10
82.888
20
-142.918
11
82.888
21
-145.118
0
LINE
8
BLACK
6
CONTINUOUS
10
70.95
20
-157.056
11
68.75
21
-157.056
0
LINE
8
BLACK
6
CONTINUOUS
10
68.75
20
-157.056
11
68.75
21
-154.856
0
LINE
8
BLACK
6
CONTINUOUS
10
68.75
20
-154.856
11
70.95
21
-154.856
0
LINE
8
BLACK
6
CONTINUOUS
10
70.95
20
-154.856
11
70.95
21
-157.056
0
LINE
8
BLACK
6
CONTINUOUS
10
85.428
20
-145.118
11
84.928
21
-145.118
0
LINE
8
BLACK
6
CONTINUOUS
10
84.928
20
-145.118
11
84.928
21
-149.611
0
LINE
8
BLACK
6
CONTINUOUS
10
84.928
20
-149.611
11
85.8405
21
-150.524
0
LINE
8
BLACK
6
CONTINUOUS
10
85.8405
20
-150.524
11
105.389
21
-150.524
0
LINE
8
BLACK
6
CONTINUOUS
10
105.389
20
-150.524
11
105.418
21
-150.521
0
LINE
8
BLACK
6
CONTINUOUS
10
105.418
20
-150.521
11
105.447
21
-150.524
0
LINE
8
BLACK
6
CONTINUOUS
10
105.447
20
-150.524
11
105.536
21
-150.533
0
LINE
8
BLACK
6
CONTINUOUS
10
105.536
20
-150.533
11
105.649
21
-150.567
0
LINE
8
BLACK
6
CONTINUOUS
10
105.649
20
-150.567
11
105.753
21
-150.623
0
LINE
8
BLACK
6
CONTINUOUS
10
105.753
20
-150.623
11
105.844
21
-150.698
0
LINE
8
BLACK
6
CONTINUOUS
10
105.844
20
-150.698
11
105.863
21
-150.721
0
LINE
8
BLACK
6
CONTINUOUS
10
105.863
20
-150.721
11
108.353
21
-153.211
0
LINE
8
BLACK
6
CONTINUOUS
10
108.353
20
-153.211
11
108.376
21
-153.23
0
LINE
8
BLACK
6
CONTINUOUS
10
108.376
20
-153.23
11
108.451
21
-153.321
0
LINE
8
BLACK
6
CONTINUOUS
10
108.451
20
-153.321
11
108.507
21
-153.425
0
LINE
8
BLACK
6
CONTINUOUS
10
108.507
20
-153.425
11
108.523
21
-153.479
0
LINE
8
BLACK
6
CONTINUOUS
10
108.523
20
-153.479
11
108.541
21
-153.538
0
LINE
8
BLACK
6
CONTINUOUS
10
108.541
20
-153.538
11
108.553
21
-153.656
0
LINE
8
BLACK
6
CONTINUOUS
10
108.553
20
-153.656
11
108.55
21
-153.685
0
LINE
8
BLACK
6
CONTINUOUS
10
108.55
20
-153.685
11
108.55
21
-154.856
0
LINE
8
BLACK
6
CONTINUOUS
10
108.55
20
-154.856
11
109.05
21
-154.856
0
LINE
8
BLACK
6
CONTINUOUS
10
109.05
20
-154.856
11
109.05
21
-157.056
0
LINE
8
BLACK
6
CONTINUOUS
10
109.05
20
-157.056
11
106.85
21
-157.056
0
LINE
8
BLACK
6
CONTINUOUS
10
106.85
20
-157.056
11
106.85
21
-154.856
0
LINE
8
BLACK
6
CONTINUOUS
10
106.85
20
-154.856
11
107.35
21
-154.856
0
LINE
8
BLACK
6
CONTINUOUS
10
107.35
20
-154.856
11
107.35
21
-153.905
0
LINE
8
BLACK
6
CONTINUOUS
10
107.35
20
-153.905
11
105.169
21
-151.724
0
LINE
8
BLACK
6
CONTINUOUS
10
105.169
20
-151.724
11
85.6215
21
-151.724
0
LINE
8
BLACK
6
CONTINUOUS
10
85.6215
20
-151.724
11
85.592
21
-151.727
0
LINE
8
BLACK
6
CONTINUOUS
10
85.592
20
-151.727
11
85.4744
21
-151.715
0
LINE
8
BLACK
6
CONTINUOUS
10
85.4744
20
-151.715
11
85.3613
21
-151.681
0
LINE
8
BLACK
6
CONTINUOUS
10
85.3613
20
-151.681
11
85.257
21
-151.625
0
LINE
8
BLACK
6
CONTINUOUS
10
85.257
20
-151.625
11
85.1657
21
-151.55
0
LINE
8
BLACK
6
CONTINUOUS
10
85.1657
20
-151.55
11
85.1469
21
-151.527
0
LINE
8
BLACK
6
CONTINUOUS
10
85.1469
20
-151.527
11
83.9246
21
-150.305
0
LINE
8
BLACK
6
CONTINUOUS
10
83.9246
20
-150.305
11
83.9017
21
-150.286
0
LINE
8
BLACK
6
CONTINUOUS
10
83.9017
20
-150.286
11
83.8267
21
-150.195
0
LINE
8
BLACK
6
CONTINUOUS
10
83.8267
20
-150.195
11
83.771
21
-150.091
0
LINE
8
BLACK
6
CONTINUOUS
10
83.771
20
-150.091
11
83.7367
21
-149.978
0
LINE
8
BLACK
6
CONTINUOUS
10
83.7367
20
-149.978
11
83.728
21
-149.889
0
LINE
8
BLACK
6
CONTINUOUS
10
83.728
20
-149.889
11
83.7251
21
-149.86
0
LINE
8
BLACK
6
CONTINUOUS
10
83.7251
20
-149.86
11
83.728
21
-149.831
0
LINE
8
BLACK
6
CONTINUOUS
10
83.728
20
-149.831
11
83.728
21
-145.118
0
LINE
8
BLACK
6
CONTINUOUS
10
83.728
20
-145.118
11
83.228
21
-145.118
0
LINE
8
BLACK
6
CONTINUOUS
10
83.228
20
-145.118
11
83.228
21
-142.918
0
LINE
8
BLACK
6
CONTINUOUS
10
83.228
20
-142.918
11
85.428
21
-142.918
0
LINE
8
BLACK
6
CONTINUOUS
10
85.428
20
-142.918
11
85.428
21
-145.118
0
LINE
8
BLACK
6
CONTINUOUS
10
98.89
20
-157.056
11
96.69
21
-157.056
0
LINE
8
BLACK
6
CONTINUOUS
10
96.69
20
-157.056
11
96.69
21
-154.856
0
LINE
8
BLACK
6
CONTINUOUS
10
96.69
20
-154.856
11
98.89
21
-154.856
0
LINE
8
BLACK
6
CONTINUOUS
10
98.89
20
-154.856
11
98.89
21
-157.056
0
LINE
8
BLACK
6
CONTINUOUS
10
87.968
20
-145.118
11
87.468
21
-145.118
0
LINE
8
BLACK
6
CONTINUOUS
10
87.468
20
-145.118
11
87.468
21
-148.087
0
LINE
8
BLACK
6
CONTINUOUS
10
87.468
20
-148.087
11
88.5045
21
-149.124
0
LINE
8
BLACK
6
CONTINUOUS
10
88.5045
20
-149.124
11
105.968
21
-149.124
0
LINE
8
BLACK
6
CONTINUOUS
10
105.968
20
-149.124
11
105.998
21
-149.121
0
LINE
8
BLACK
6
CONTINUOUS
10
105.998
20
-149.121
11
106.027
21
-149.124
0
LINE
8
BLACK
6
CONTINUOUS
10
106.027
20
-149.124
11
106.116
21
-149.133
0
LINE
8
BLACK
6
CONTINUOUS
10
106.116
20
-149.133
11
106.229
21
-149.167
0
LINE
8
BLACK
6
CONTINUOUS
10
106.229
20
-149.167
11
106.333
21
-149.223
0
LINE
8
BLACK
6
CONTINUOUS
10
106.333
20
-149.223
11
106.424
21
-149.298
0
LINE
8
BLACK
6
CONTINUOUS
10
106.424
20
-149.298
11
106.443
21
-149.321
0
LINE
8
BLACK
6
CONTINUOUS
10
106.443
20
-149.321
11
110.893
21
-153.771
0
LINE
8
BLACK
6
CONTINUOUS
10
110.893
20
-153.771
11
110.916
21
-153.79
0
LINE
8
BLACK
6
CONTINUOUS
10
110.916
20
-153.79
11
110.991
21
-153.881
0
LINE
8
BLACK
6
CONTINUOUS
10
110.991
20
-153.881
11
111.047
21
-153.985
0
LINE
8
BLACK
6
CONTINUOUS
10
111.047
20
-153.985
11
111.064
21
-154.042
0
LINE
8
BLACK
6
CONTINUOUS
10
111.064
20
-154.042
11
111.081
21
-154.098
0
LINE
8
BLACK
6
CONTINUOUS
10
111.081
20
-154.098
11
111.093
21
-154.216
0
LINE
8
BLACK
6
CONTINUOUS
10
111.093
20
-154.216
11
111.09
21
-154.246
0
LINE
8
BLACK
6
CONTINUOUS
10
111.09
20
-154.246
11
111.09
21
-154.856
0
LINE
8
BLACK
6
CONTINUOUS
10
111.09
20
-154.856
11
111.59
21
-154.856
0
LINE
8
BLACK
6
CONTINUOUS
10
111.59
20
-154.856
11
111.59
21
-157.056
0
LINE
8
BLACK
6
CONTINUOUS
10
111.59
20
-157.056
11
109.39
21
-157.056
0
LINE
8
BLACK
6
CONTINUOUS
10
109.39
20
-157.056
11
109.39
21
-154.856
0
LINE
8
BLACK
6
CONTINUOUS
10
109.39
20
-154.856
11
109.89
21
-154.856
0
LINE
8
BLACK
6
CONTINUOUS
10
109.89
20
-154.856
11
109.89
21
-154.465
0
LINE
8
BLACK
6
CONTINUOUS
10
109.89
20
-154.465
11
105.749
21
-150.324
0
LINE
8
BLACK
6
CONTINUOUS
10
105.749
20
-150.324
11
88.2854
21
-150.324
0
LINE
8
BLACK
6
CONTINUOUS
10
88.2854
20
-150.324
11
88.256
21
-150.327
0
LINE
8
BLACK
6
CONTINUOUS
10
88.256
20
-150.327
11
88.1383
21
-150.315
0
LINE
8
BLACK
6
CONTINUOUS
10
88.1383
20
-150.315
11
88.0252
21
-150.281
0
LINE
8
BLACK
6
CONTINUOUS
10
88.0252
20
-150.281
11
87.921
21
-150.225
0
LINE
8
BLACK
6
CONTINUOUS
10
87.921
20
-150.225
11
87.8297
21
-150.15
0
LINE
8
BLACK
6
CONTINUOUS
10
87.8297
20
-150.15
11
87.8109
21
-150.127
0
LINE
8
BLACK
6
CONTINUOUS
10
87.8109
20
-150.127
11
86.4646
21
-148.781
0
LINE
8
BLACK
6
CONTINUOUS
10
86.4646
20
-148.781
11
86.4417
21
-148.762
0
LINE
8
BLACK
6
CONTINUOUS
10
86.4417
20
-148.762
11
86.3667
21
-148.671
0
LINE
8
BLACK
6
CONTINUOUS
10
86.3667
20
-148.671
11
86.311
21
-148.567
0
LINE
8
BLACK
6
CONTINUOUS
10
86.311
20
-148.567
11
86.2767
21
-148.454
0
LINE
8
BLACK
6
CONTINUOUS
10
86.2767
20
-148.454
11
86.268
21
-148.365
0
LINE
8
BLACK
6
CONTINUOUS
10
86.268
20
-148.365
11
86.2651
21
-148.336
0
LINE
8
BLACK
6
CONTINUOUS
10
86.2651
20
-148.336
11
86.268
21
-148.307
0
LINE
8
BLACK
6
CONTINUOUS
10
86.268
20
-148.307
11
86.268
21
-145.118
0
LINE
8
BLACK
6
CONTINUOUS
10
86.268
20
-145.118
11
85.768
21
-145.118
0
LINE
8
BLACK
6
CONTINUOUS
10
85.768
20
-145.118
11
85.768
21
-142.918
0
LINE
8
BLACK
6
CONTINUOUS
10
85.768
20
-142.918
11
87.968
21
-142.918
0
LINE
8
BLACK
6
CONTINUOUS
10
87.968
20
-142.918
11
87.968
21
-145.118
0
LINE
8
BLACK
6
CONTINUOUS
10
80.348
20
-145.118
11
79.848
21
-145.118
0
LINE
8
BLACK
6
CONTINUOUS
10
79.848
20
-145.118
11
79.848
21
-151.643
0
LINE
8
BLACK
6
CONTINUOUS
10
79.848
20
-151.643
11
81.5285
21
-153.324
0
LINE
8
BLACK
6
CONTINUOUS
10
81.5285
20
-153.324
11
101.909
21
-153.324
0
LINE
8
BLACK
6
CONTINUOUS
10
101.909
20
-153.324
11
101.938
21
-153.321
0
LINE
8
BLACK
6
CONTINUOUS
10
101.938
20
-153.321
11
101.967
21
-153.324
0
LINE
8
BLACK
6
CONTINUOUS
10
101.967
20
-153.324
11
102.056
21
-153.333
0
LINE
8
BLACK
6
CONTINUOUS
10
102.056
20
-153.333
11
102.169
21
-153.367
0
LINE
8
BLACK
6
CONTINUOUS
10
102.169
20
-153.367
11
102.273
21
-153.423
0
LINE
8
BLACK
6
CONTINUOUS
10
102.273
20
-153.423
11
102.364
21
-153.498
0
LINE
8
BLACK
6
CONTINUOUS
10
102.364
20
-153.498
11
102.383
21
-153.521
0
LINE
8
BLACK
6
CONTINUOUS
10
102.383
20
-153.521
11
103.273
21
-154.411
0
LINE
8
BLACK
6
CONTINUOUS
10
103.273
20
-154.411
11
103.296
21
-154.43
0
LINE
8
BLACK
6
CONTINUOUS
10
103.296
20
-154.43
11
103.371
21
-154.521
0
LINE
8
BLACK
6
CONTINUOUS
10
103.371
20
-154.521
11
103.427
21
-154.625
0
LINE
8
BLACK
6
CONTINUOUS
10
103.427
20
-154.625
11
103.438
21
-154.661
0
LINE
8
BLACK
6
CONTINUOUS
10
103.438
20
-154.661
11
103.461
21
-154.738
0
LINE
8
BLACK
6
CONTINUOUS
10
103.461
20
-154.738
11
103.473
21
-154.856
0
LINE
8
BLACK
6
CONTINUOUS
10
103.473
20
-154.856
11
103.473
21
-154.856
0
LINE
8
BLACK
6
CONTINUOUS
10
103.473
20
-154.856
11
103.97
21
-154.856
0
LINE
8
BLACK
6
CONTINUOUS
10
103.97
20
-154.856
11
103.97
21
-157.056
0
LINE
8
BLACK
6
CONTINUOUS
10
103.97
20
-157.056
11
101.77
21
-157.056
0
LINE
8
BLACK
6
CONTINUOUS
10
101.77
20
-157.056
11
101.77
21
-154.856
0
LINE
8
BLACK
6
CONTINUOUS
10
101.77
20
-154.856
11
102.021
21
-154.856
0
LINE
8
BLACK
6
CONTINUOUS
10
102.021
20
-154.856
11
101.689
21
-154.524
0
LINE
8
BLACK
6
CONTINUOUS
10
101.689
20
-154.524
11
81.3095
21
-154.524
0
LINE
8
BLACK
6
CONTINUOUS
10
81.3095
20
-154.524
11
81.28
21
-154.527
0
LINE
8
BLACK
6
CONTINUOUS
10
81.28
20
-154.527
11
81.1624
21
-154.515
0
LINE
8
BLACK
6
CONTINUOUS
10
81.1624
20
-154.515
11
81.0493
21
-154.481
0
LINE
8
BLACK
6
CONTINUOUS
10
81.0493
20
-154.481
11
80.945
21
-154.425
0
LINE
8
BLACK
6
CONTINUOUS
10
80.945
20
-154.425
11
80.8537
21
-154.35
0
LINE
8
BLACK
6
CONTINUOUS
10
80.8537
20
-154.35
11
80.8349
21
-154.327
0
LINE
8
BLACK
6
CONTINUOUS
10
80.8349
20
-154.327
11
78.8446
21
-152.337
0
LINE
8
BLACK
6
CONTINUOUS
10
78.8446
20
-152.337
11
78.8217
21
-152.318
0
LINE
8
BLACK
6
CONTINUOUS
10
78.8217
20
-152.318
11
78.7467
21
-152.227
0
LINE
8
BLACK
6
CONTINUOUS
10
78.7467
20
-152.227
11
78.691
21
-152.123
0
LINE
8
BLACK
6
CONTINUOUS
10
78.691
20
-152.123
11
78.6567
21
-152.01
0
LINE
8
BLACK
6
CONTINUOUS
10
78.6567
20
-152.01
11
78.648
21
-151.921
0
LINE
8
BLACK
6
CONTINUOUS
10
78.648
20
-151.921
11
78.6451
21
-151.892
0
LINE
8
BLACK
6
CONTINUOUS
10
78.6451
20
-151.892
11
78.648
21
-151.863
0
LINE
8
BLACK
6
CONTINUOUS
10
78.648
20
-151.863
11
78.648
21
-145.118
0
LINE
8
BLACK
6
CONTINUOUS
10
78.648
20
-145.118
11
78.148
21
-145.118
0
LINE
8
BLACK
6
CONTINUOUS
10
78.148
20
-145.118
11
78.148
21
-142.918
0
LINE
8
BLACK
6
CONTINUOUS
10
78.148
20
-142.918
11
80.348
21
-142.918
0
LINE
8
BLACK
6
CONTINUOUS
10
80.348
20
-142.918
11
80.348
21
-145.118
0
LINE
8
BLACK
6
CONTINUOUS
10
114.13
20
-157.056
11
111.93
21
-157.056
0
LINE
8
BLACK
6
CONTINUOUS
10
111.93
20
-157.056
11
111.93
21
-154.856
0
LINE
8
BLACK
6
CONTINUOUS
10
111.93
20
-154.856
11
114.13
21
-154.856
0
LINE
8
BLACK
6
CONTINUOUS
10
114.13
20
-154.856
11
114.13
21
-157.056
0
LINE
8
BLACK
6
CONTINUOUS
10
96.35
20
-157.056
11
94.15
21
-157.056
0
LINE
8
BLACK
6
CONTINUOUS
10
94.15
20
-157.056
11
94.15
21
-154.856
0
LINE
8
BLACK
6
CONTINUOUS
10
94.15
20
-154.856
11
96.35
21
-154.856
0
LINE
8
BLACK
6
CONTINUOUS
10
96.35
20
-154.856
11
96.35
21
-157.056
0
LINE
8
BLACK
6
CONTINUOUS
10
101.43
20
-157.056
11
99.23
21
-157.056
0
LINE
8
BLACK
6
CONTINUOUS
10
99.23
20
-157.056
11
99.23
21
-154.856
0
LINE
8
BLACK
6
CONTINUOUS
10
99.23
20
-154.856
11
101.43
21
-154.856
0
LINE
8
BLACK
6
CONTINUOUS
10
101.43
20
-154.856
11
101.43
21
-157.056
0
LINE
8
BLACK
6
CONTINUOUS
10
73.49
20
-157.056
11
71.29
21
-157.056
0
LINE
8
BLACK
6
CONTINUOUS
10
71.29
20
-157.056
11
71.29
21
-154.856
0
LINE
8
BLACK
6
CONTINUOUS
10
71.29
20
-154.856
11
73.49
21
-154.856
0
LINE
8
BLACK
6
CONTINUOUS
10
73.49
20
-154.856
11
73.49
21
-157.056
0
LINE
8
BLACK
6
CONTINUOUS
10
78.57
20
-157.056
11
76.37
21
-157.056
0
LINE
8
BLACK
6
CONTINUOUS
10
76.37
20
-157.056
11
76.37
21
-154.856
0
LINE
8
BLACK
6
CONTINUOUS
10
76.37
20
-154.856
11
78.57
21
-154.856
0
LINE
8
BLACK
6
CONTINUOUS
10
78.57
20
-154.856
11
78.57
21
-157.056
0
LINE
8
BLACK
6
CONTINUOUS
10
76.03
20
-157.056
11
73.83
21
-157.056
0
LINE
8
BLACK
6
CONTINUOUS
10
73.83
20
-157.056
11
73.83
21
-154.856
0
LINE
8
BLACK
6
CONTINUOUS
10
73.83
20
-154.856
11
76.03
21
-154.856
0
LINE
8
BLACK
6
CONTINUOUS
10
76.03
20
-154.856
11
76.03
21
-157.056
0
LINE
8
BLACK
6
CONTINUOUS
10
93.81
20
-157.056
11
91.61
21
-157.056
0
LINE
8
BLACK
6
CONTINUOUS
10
91.61
20
-157.056
11
91.61
21
-154.856
0
LINE
8
BLACK
6
CONTINUOUS
10
91.61
20
-154.856
11
93.81
21
-154.856
0
LINE
8
BLACK
6
CONTINUOUS
10
93.81
20
-154.856
11
93.81
21
-157.056
0
LINE
8
BLACK
6
CONTINUOUS
10
91.27
20
-157.056
11
89.07
21
-157.056
0
LINE
8
BLACK
6
CONTINUOUS
10
89.07
20
-157.056
11
89.07
21
-154.856
0
LINE
8
BLACK
6
CONTINUOUS
10
89.07
20
-154.856
11
91.27
21
-154.856
0
LINE
8
BLACK
6
CONTINUOUS
10
91.27
20
-154.856
11
91.27
21
-157.056
0
LINE
8
BLACK
6
CONTINUOUS
10
81.11
20
-157.056
11
78.91
21
-157.056
0
LINE
8
BLACK
6
CONTINUOUS
10
78.91
20
-157.056
11
78.91
21
-154.856
0
LINE
8
BLACK
6
CONTINUOUS
10
78.91
20
-154.856
11
81.11
21
-154.856
0
LINE
8
BLACK
6
CONTINUOUS
10
81.11
20
-154.856
11
81.11
21
-157.056
0
LINE
8
BLACK
6
CONTINUOUS
10
83.65
20
-157.056
11
81.45
21
-157.056
0
LINE
8
BLACK
6
CONTINUOUS
10
81.45
20
-157.056
11
81.45
21
-154.856
0
LINE
8
BLACK
6
CONTINUOUS
10
81.45
20
-154.856
11
83.65
21
-154.856
0
LINE
8
BLACK
6
CONTINUOUS
10
83.65
20
-154.856
11
83.65
21
-157.056
0
LINE
8
BLACK
6
CONTINUOUS
10
88.73
20
-157.056
11
86.53
21
-157.056
0
LINE
8
BLACK
6
CONTINUOUS
10
86.53
20
-157.056
11
86.53
21
-154.856
0
LINE
8
BLACK
6
CONTINUOUS
10
86.53
20
-154.856
11
88.73
21
-154.856
0
LINE
8
BLACK
6
CONTINUOUS
10
88.73
20
-154.856
11
88.73
21
-157.056
0
LINE
8
BLACK
6
CONTINUOUS
10
86.19
20
-157.056
11
83.99
21
-157.056
0
LINE
8
BLACK
6
CONTINUOUS
10
83.99
20
-157.056
11
83.99
21
-154.856
0
LINE
8
BLACK
6
CONTINUOUS
10
83.99
20
-154.856
11
86.19
21
-154.856
0
LINE
8
BLACK
6
CONTINUOUS
10
86.19
20
-154.856
11
86.19
21
-157.056
0
LINE
8
BLACK
6
CONTINUOUS
10
66.02
20
-154.516
11
63.52
21
-154.516
0
LINE
8
BLACK
6
CONTINUOUS
10
63.52
20
-154.516
11
63.52
21
-152.316
0
LINE
8
BLACK
6
CONTINUOUS
10
63.52
20
-152.316
11
66.02
21
-152.316
0
LINE
8
BLACK
6
CONTINUOUS
10
66.02
20
-152.316
11
66.02
21
-154.516
0
LINE
8
BLACK
6
CONTINUOUS
10
66.02
20
-151.976
11
63.52
21
-151.976
0
LINE
8
BLACK
6
CONTINUOUS
10
63.52
20
-151.976
11
63.52
21
-149.776
0
LINE
8
BLACK
6
CONTINUOUS
10
63.52
20
-149.776
11
66.02
21
-149.776
0
LINE
8
BLACK
6
CONTINUOUS
10
66.02
20
-149.776
11
66.02
21
-151.976
0
LINE
8
BLACK
6
CONTINUOUS
10
66.02
20
-101.176
11
63.52
21
-101.176
0
LINE
8
BLACK
6
CONTINUOUS
10
63.52
20
-101.176
11
63.52
21
-100.925
0
LINE
8
BLACK
6
CONTINUOUS
10
63.52
20
-100.925
11
63.32
21
-101.125
0
LINE
8
BLACK
6
CONTINUOUS
10
63.32
20
-101.125
11
63.32
21
-109.187
0
LINE
8
BLACK
6
CONTINUOUS
10
63.32
20
-109.187
11
64.4085
21
-110.276
0
LINE
8
BLACK
6
CONTINUOUS
10
64.4085
20
-110.276
11
74.2705
21
-110.276
0
LINE
8
BLACK
6
CONTINUOUS
10
74.2705
20
-110.276
11
74.3
21
-110.273
0
LINE
8
BLACK
6
CONTINUOUS
10
74.3
20
-110.273
11
74.3295
21
-110.276
0
LINE
8
BLACK
6
CONTINUOUS
10
74.3295
20
-110.276
11
74.4176
21
-110.285
0
LINE
8
BLACK
6
CONTINUOUS
10
74.4176
20
-110.285
11
74.5307
21
-110.319
0
LINE
8
BLACK
6
CONTINUOUS
10
74.5307
20
-110.319
11
74.635
21
-110.375
0
LINE
8
BLACK
6
CONTINUOUS
10
74.635
20
-110.375
11
74.7263
21
-110.45
0
LINE
8
BLACK
6
CONTINUOUS
10
74.7263
20
-110.45
11
74.7451
21
-110.473
0
LINE
8
BLACK
6
CONTINUOUS
10
74.7451
20
-110.473
11
76.7025
21
-112.43
0
LINE
8
BLACK
6
CONTINUOUS
10
76.7025
20
-112.43
11
79.3419
21
-112.43
0
LINE
8
BLACK
6
CONTINUOUS
10
79.3419
20
-112.43
11
79.4096
21
-112.329
0
LINE
8
BLACK
6
CONTINUOUS
10
79.4096
20
-112.329
11
79.5628
21
-112.176
0
LINE
8
BLACK
6
CONTINUOUS
10
79.5628
20
-112.176
11
79.743
21
-112.055
0
LINE
8
BLACK
6
CONTINUOUS
10
79.743
20
-112.055
11
79.9431
21
-111.972
0
LINE
8
BLACK
6
CONTINUOUS
10
79.9431
20
-111.972
11
80.1557
21
-111.93
0
LINE
8
BLACK
6
CONTINUOUS
10
80.1557
20
-111.93
11
80.3723
21
-111.93
0
LINE
8
BLACK
6
CONTINUOUS
10
80.3723
20
-111.93
11
80.5849
21
-111.972
0
LINE
8
BLACK
6
CONTINUOUS
10
80.5849
20
-111.972
11
80.785
21
-112.055
0
LINE
8
BLACK
6
CONTINUOUS
10
80.785
20
-112.055
11
80.9652
21
-112.176
0
LINE
8
BLACK
6
CONTINUOUS
10
80.9652
20
-112.176
11
81.1184
21
-112.329
0
LINE
8
BLACK
6
CONTINUOUS
10
81.1184
20
-112.329
11
81.2388
21
-112.509
0
LINE
8
BLACK
6
CONTINUOUS
10
81.2388
20
-112.509
11
81.3217
21
-112.709
0
LINE
8
BLACK
6
CONTINUOUS
10
81.3217
20
-112.709
11
81.364
21
-112.922
0
LINE
8
BLACK
6
CONTINUOUS
10
81.364
20
-112.922
11
81.364
21
-113.138
0
LINE
8
BLACK
6
CONTINUOUS
10
81.364
20
-113.138
11
81.3217
21
-113.351
0
LINE
8
BLACK
6
CONTINUOUS
10
81.3217
20
-113.351
11
81.2388
21
-113.551
0
LINE
8
BLACK
6
CONTINUOUS
10
81.2388
20
-113.551
11
81.1184
21
-113.731
0
LINE
8
BLACK
6
CONTINUOUS
10
81.1184
20
-113.731
11
80.9652
21
-113.884
0
LINE
8
BLACK
6
CONTINUOUS
10
80.9652
20
-113.884
11
80.785
21
-114.005
0
LINE
8
BLACK
6
CONTINUOUS
10
80.785
20
-114.005
11
80.5849
21
-114.088
0
LINE
8
BLACK
6
CONTINUOUS
10
80.5849
20
-114.088
11
80.3723
21
-114.13
0
LINE
8
BLACK
6
CONTINUOUS
10
80.3723
20
-114.13
11
80.1557
21
-114.13
0
LINE
8
BLACK
6
CONTINUOUS
10
80.1557
20
-114.13
11
79.9431
21
-114.088
0
LINE
8
BLACK
6
CONTINUOUS
10
79.9431
20
-114.088
11
79.743
21
-114.005
0
LINE
8
BLACK
6
CONTINUOUS
10
79.743
20
-114.005
11
79.5628
21
-113.884
0
LINE
8
BLACK
6
CONTINUOUS
10
79.5628
20
-113.884
11
79.4096
21
-113.731
0
LINE
8
BLACK
6
CONTINUOUS
10
79.4096
20
-113.731
11
79.3419
21
-113.63
0
LINE
8
BLACK
6
CONTINUOUS
10
79.3419
20
-113.63
11
77.9025
21
-113.63
0
LINE
8
BLACK
6
CONTINUOUS
10
77.9025
20
-113.63
11
78.3814
21
-114.109
0
LINE
8
BLACK
6
CONTINUOUS
10
78.3814
20
-114.109
11
78.4043
21
-114.128
0
LINE
8
BLACK
6
CONTINUOUS
10
78.4043
20
-114.128
11
78.4793
21
-114.219
0
LINE
8
BLACK
6
CONTINUOUS
10
78.4793
20
-114.219
11
78.535
21
-114.323
0
LINE
8
BLACK
6
CONTINUOUS
10
78.535
20
-114.323
11
78.5693
21
-114.436
0
LINE
8
BLACK
6
CONTINUOUS
10
78.5693
20
-114.436
11
78.578
21
-114.525
0
LINE
8
BLACK
6
CONTINUOUS
10
78.578
20
-114.525
11
78.578
21
-114.525
0
LINE
8
BLACK
6
CONTINUOUS
10
78.578
20
-114.525
11
78.5809
21
-114.554
0
LINE
8
BLACK
6
CONTINUOUS
10
78.5809
20
-114.554
11
78.578
21
-114.583
0
LINE
8
BLACK
6
CONTINUOUS
10
78.578
20
-114.583
11
78.578
21
-120.82
0
LINE
8
BLACK
6
CONTINUOUS
10
78.578
20
-120.82
11
79.078
21
-120.82
0
LINE
8
BLACK
6
CONTINUOUS
10
79.078
20
-120.82
11
79.078
21
-123.02
0
LINE
8
BLACK
6
CONTINUOUS
10
79.078
20
-123.02
11
78.478
21
-123.02
0
LINE
8
BLACK
6
CONTINUOUS
10
78.478
20
-123.02
11
78.478
21
-138.223
0
LINE
8
BLACK
6
CONTINUOUS
10
78.478
20
-138.223
11
80.9791
21
-140.724
0
LINE
8
BLACK
6
CONTINUOUS
10
80.9791
20
-140.724
11
89.1294
21
-140.724
0
LINE
8
BLACK
6
CONTINUOUS
10
89.1294
20
-140.724
11
89.154
21
-140.722
0
LINE
8
BLACK
6
CONTINUOUS
10
89.154
20
-140.722
11
89.1786
21
-140.724
0
LINE
8
BLACK
6
CONTINUOUS
10
89.1786
20
-140.724
11
89.252
21
-140.731
0
LINE
8
BLACK
6
CONTINUOUS
10
89.252
20
-140.731
11
89.3463
21
-140.76
0
LINE
8
BLACK
6
CONTINUOUS
10
89.3463
20
-140.76
11
89.4331
21
-140.806
0
LINE
8
BLACK
6
CONTINUOUS
10
89.4331
20
-140.806
11
89.5093
21
-140.869
0
LINE
8
BLACK
6
CONTINUOUS
10
89.5093
20
-140.869
11
89.5249
21
-140.888
0
LINE
8
BLACK
6
CONTINUOUS
10
89.5249
20
-140.888
11
96.4731
21
-147.836
0
LINE
8
BLACK
6
CONTINUOUS
10
96.4731
20
-147.836
11
106.424
21
-147.836
0
LINE
8
BLACK
6
CONTINUOUS
10
106.424
20
-147.836
11
106.448
21
-147.834
0
LINE
8
BLACK
6
CONTINUOUS
10
106.448
20
-147.834
11
106.546
21
-147.843
0
LINE
8
BLACK
6
CONTINUOUS
10
106.546
20
-147.843
11
106.641
21
-147.872
0
LINE
8
BLACK
6
CONTINUOUS
10
106.641
20
-147.872
11
106.641
21
-147.872
0
LINE
8
BLACK
6
CONTINUOUS
10
106.641
20
-147.872
11
106.728
21
-147.918
0
LINE
8
BLACK
6
CONTINUOUS
10
106.728
20
-147.918
11
106.804
21
-147.981
0
LINE
8
BLACK
6
CONTINUOUS
10
106.804
20
-147.981
11
106.819
21
-148
0
LINE
8
BLACK
6
CONTINUOUS
10
106.819
20
-148
11
109.656
21
-150.836
0
LINE
8
BLACK
6
CONTINUOUS
10
109.656
20
-150.836
11
115.13
21
-150.836
0
LINE
8
BLACK
6
CONTINUOUS
10
115.13
20
-150.836
11
115.68
21
-150.286
0
LINE
8
BLACK
6
CONTINUOUS
10
115.68
20
-150.286
11
115.68
21
-128.579
0
LINE
8
BLACK
6
CONTINUOUS
10
115.68
20
-128.579
11
114.877
21
-127.776
0
LINE
8
BLACK
6
CONTINUOUS
10
114.877
20
-127.776
11
102.389
21
-127.776
0
LINE
8
BLACK
6
CONTINUOUS
10
102.389
20
-127.776
11
101.57
21
-128.595
0
LINE
8
BLACK
6
CONTINUOUS
10
101.57
20
-128.595
11
101.57
21
-136.581
0
LINE
8
BLACK
6
CONTINUOUS
10
101.57
20
-136.581
11
101.77
21
-136.781
0
LINE
8
BLACK
6
CONTINUOUS
10
101.77
20
-136.781
11
101.77
21
-136.568
0
LINE
8
BLACK
6
CONTINUOUS
10
101.77
20
-136.568
11
103.97
21
-136.568
0
LINE
8
BLACK
6
CONTINUOUS
10
103.97
20
-136.568
11
103.97
21
-138.768
0
LINE
8
BLACK
6
CONTINUOUS
10
103.97
20
-138.768
11
101.77
21
-138.768
0
LINE
8
BLACK
6
CONTINUOUS
10
101.77
20
-138.768
11
101.77
21
-138.136
0
LINE
8
BLACK
6
CONTINUOUS
10
101.77
20
-138.136
11
101.758
21
-138.132
0
LINE
8
BLACK
6
CONTINUOUS
10
101.758
20
-138.132
11
101.671
21
-138.086
0
LINE
8
BLACK
6
CONTINUOUS
10
101.671
20
-138.086
11
101.595
21
-138.023
0
LINE
8
BLACK
6
CONTINUOUS
10
101.595
20
-138.023
11
101.579
21
-138.004
0
LINE
8
BLACK
6
CONTINUOUS
10
101.579
20
-138.004
11
100.734
21
-137.159
0
LINE
8
BLACK
6
CONTINUOUS
10
100.734
20
-137.159
11
100.715
21
-137.143
0
LINE
8
BLACK
6
CONTINUOUS
10
100.715
20
-137.143
11
100.652
21
-137.067
0
LINE
8
BLACK
6
CONTINUOUS
10
100.652
20
-137.067
11
100.606
21
-136.98
0
LINE
8
BLACK
6
CONTINUOUS
10
100.606
20
-136.98
11
100.577
21
-136.886
0
LINE
8
BLACK
6
CONTINUOUS
10
100.577
20
-136.886
11
100.57
21
-136.813
0
LINE
8
BLACK
6
CONTINUOUS
10
100.57
20
-136.813
11
100.568
21
-136.788
0
LINE
8
BLACK
6
CONTINUOUS
10
100.568
20
-136.788
11
100.57
21
-136.763
0
LINE
8
BLACK
6
CONTINUOUS
10
100.57
20
-136.763
11
100.57
21
-128.413
0
LINE
8
BLACK
6
CONTINUOUS
10
100.57
20
-128.413
11
100.568
21
-128.388
0
LINE
8
BLACK
6
CONTINUOUS
10
100.568
20
-128.388
11
100.577
21
-128.29
0
LINE
8
BLACK
6
CONTINUOUS
10
100.577
20
-128.29
11
100.606
21
-128.196
0
LINE
8
BLACK
6
CONTINUOUS
10
100.606
20
-128.196
11
100.652
21
-128.109
0
LINE
8
BLACK
6
CONTINUOUS
10
100.652
20
-128.109
11
100.715
21
-128.033
0
LINE
8
BLACK
6
CONTINUOUS
10
100.715
20
-128.033
11
100.734
21
-128.017
0
LINE
8
BLACK
6
CONTINUOUS
10
100.734
20
-128.017
11
101.811
21
-126.94
0
LINE
8
BLACK
6
CONTINUOUS
10
101.811
20
-126.94
11
101.827
21
-126.921
0
LINE
8
BLACK
6
CONTINUOUS
10
101.827
20
-126.921
11
101.903
21
-126.858
0
LINE
8
BLACK
6
CONTINUOUS
10
101.903
20
-126.858
11
101.99
21
-126.812
0
LINE
8
BLACK
6
CONTINUOUS
10
101.99
20
-126.812
11
102.084
21
-126.783
0
LINE
8
BLACK
6
CONTINUOUS
10
102.084
20
-126.783
11
102.157
21
-126.776
0
LINE
8
BLACK
6
CONTINUOUS
10
102.157
20
-126.776
11
102.182
21
-126.774
0
LINE
8
BLACK
6
CONTINUOUS
10
102.182
20
-126.774
11
102.207
21
-126.776
0
LINE
8
BLACK
6
CONTINUOUS
10
102.207
20
-126.776
11
115.059
21
-126.776
0
LINE
8
BLACK
6
CONTINUOUS
10
115.059
20
-126.776
11
115.084
21
-126.774
0
LINE
8
BLACK
6
CONTINUOUS
10
115.084
20
-126.774
11
115.109
21
-126.776
0
LINE
8
BLACK
6
CONTINUOUS
10
115.109
20
-126.776
11
115.109
21
-126.776
0
LINE
8
BLACK
6
CONTINUOUS
10
115.109
20
-126.776
11
115.182
21
-126.783
0
LINE
8
BLACK
6
CONTINUOUS
10
115.182
20
-126.783
11
115.276
21
-126.812
0
LINE
8
BLACK
6
CONTINUOUS
10
115.276
20
-126.812
11
115.363
21
-126.858
0
LINE
8
BLACK
6
CONTINUOUS
10
115.363
20
-126.858
11
115.439
21
-126.921
0
LINE
8
BLACK
6
CONTINUOUS
10
115.439
20
-126.921
11
115.455
21
-126.94
0
LINE
8
BLACK
6
CONTINUOUS
10
115.455
20
-126.94
11
116.516
21
-128.001
0
LINE
8
BLACK
6
CONTINUOUS
10
116.516
20
-128.001
11
116.535
21
-128.017
0
LINE
8
BLACK
6
CONTINUOUS
10
116.535
20
-128.017
11
116.551
21
-128.036
0
LINE
8
BLACK
6
CONTINUOUS
10
116.551
20
-128.036
11
116.551
21
-128.036
0
LINE
8
BLACK
6
CONTINUOUS
10
116.551
20
-128.036
11
116.598
21
-128.093
0
LINE
8
BLACK
6
CONTINUOUS
10
116.598
20
-128.093
11
116.644
21
-128.18
0
LINE
8
BLACK
6
CONTINUOUS
10
116.644
20
-128.18
11
116.673
21
-128.274
0
LINE
8
BLACK
6
CONTINUOUS
10
116.673
20
-128.274
11
116.682
21
-128.372
0
LINE
8
BLACK
6
CONTINUOUS
10
116.682
20
-128.372
11
116.68
21
-128.397
0
LINE
8
BLACK
6
CONTINUOUS
10
116.68
20
-128.397
11
116.68
21
-150.468
0
LINE
8
BLACK
6
CONTINUOUS
10
116.68
20
-150.468
11
116.682
21
-150.493
0
LINE
8
BLACK
6
CONTINUOUS
10
116.682
20
-150.493
11
116.673
21
-150.591
0
LINE
8
BLACK
6
CONTINUOUS
10
116.673
20
-150.591
11
116.644
21
-150.685
0
LINE
8
BLACK
6
CONTINUOUS
10
116.644
20
-150.685
11
116.598
21
-150.772
0
LINE
8
BLACK
6
CONTINUOUS
10
116.598
20
-150.772
11
116.579
21
-150.795
0
LINE
8
BLACK
6
CONTINUOUS
10
116.579
20
-150.795
11
116.535
21
-150.848
0
LINE
8
BLACK
6
CONTINUOUS
10
116.535
20
-150.848
11
116.516
21
-150.864
0
LINE
8
BLACK
6
CONTINUOUS
10
116.516
20
-150.864
11
115.708
21
-151.672
0
LINE
8
BLACK
6
CONTINUOUS
10
115.708
20
-151.672
11
115.692
21
-151.691
0
LINE
8
BLACK
6
CONTINUOUS
10
115.692
20
-151.691
11
115.616
21
-151.754
0
LINE
8
BLACK
6
CONTINUOUS
10
115.616
20
-151.754
11
115.529
21
-151.8
0
LINE
8
BLACK
6
CONTINUOUS
10
115.529
20
-151.8
11
115.435
21
-151.829
0
LINE
8
BLACK
6
CONTINUOUS
10
115.435
20
-151.829
11
115.362
21
-151.836
0
LINE
8
BLACK
6
CONTINUOUS
10
115.362
20
-151.836
11
115.337
21
-151.838
0
LINE
8
BLACK
6
CONTINUOUS
10
115.337
20
-151.838
11
115.313
21
-151.836
0
LINE
8
BLACK
6
CONTINUOUS
10
115.313
20
-151.836
11
109.473
21
-151.836
0
LINE
8
BLACK
6
CONTINUOUS
10
109.473
20
-151.836
11
109.448
21
-151.838
0
LINE
8
BLACK
6
CONTINUOUS
10
109.448
20
-151.838
11
109.424
21
-151.836
0
LINE
8
BLACK
6
CONTINUOUS
10
109.424
20
-151.836
11
109.424
21
-151.836
0
LINE
8
BLACK
6
CONTINUOUS
10
109.424
20
-151.836
11
109.35
21
-151.829
0
LINE
8
BLACK
6
CONTINUOUS
10
109.35
20
-151.829
11
109.256
21
-151.8
0
LINE
8
BLACK
6
CONTINUOUS
10
109.256
20
-151.8
11
109.169
21
-151.754
0
LINE
8
BLACK
6
CONTINUOUS
10
109.169
20
-151.754
11
109.093
21
-151.691
0
LINE
8
BLACK
6
CONTINUOUS
10
109.093
20
-151.691
11
109.077
21
-151.672
0
LINE
8
BLACK
6
CONTINUOUS
10
109.077
20
-151.672
11
106.241
21
-148.836
0
LINE
8
BLACK
6
CONTINUOUS
10
106.241
20
-148.836
11
96.2906
21
-148.836
0
LINE
8
BLACK
6
CONTINUOUS
10
96.2906
20
-148.836
11
96.266
21
-148.838
0
LINE
8
BLACK
6
CONTINUOUS
10
96.266
20
-148.838
11
96.168
21
-148.829
0
LINE
8
BLACK
6
CONTINUOUS
10
96.168
20
-148.829
11
96.0737
21
-148.8
0
LINE
8
BLACK
6
CONTINUOUS
10
96.0737
20
-148.8
11
95.9869
21
-148.754
0
LINE
8
BLACK
6
CONTINUOUS
10
95.9869
20
-148.754
11
95.9298
21
-148.707
0
LINE
8
BLACK
6
CONTINUOUS
10
95.9298
20
-148.707
11
95.9298
21
-148.707
0
LINE
8
BLACK
6
CONTINUOUS
10
95.9298
20
-148.707
11
95.9107
21
-148.691
0
LINE
8
BLACK
6
CONTINUOUS
10
95.9107
20
-148.691
11
95.8951
21
-148.672
0
LINE
8
BLACK
6
CONTINUOUS
10
95.8951
20
-148.672
11
88.9469
21
-141.724
0
LINE
8
BLACK
6
CONTINUOUS
10
88.9469
20
-141.724
11
80.7966
21
-141.724
0
LINE
8
BLACK
6
CONTINUOUS
10
80.7966
20
-141.724
11
80.772
21
-141.726
0
LINE
8
BLACK
6
CONTINUOUS
10
80.772
20
-141.726
11
80.674
21
-141.717
0
LINE
8
BLACK
6
CONTINUOUS
10
80.674
20
-141.717
11
80.5797
21
-141.688
0
LINE
8
BLACK
6
CONTINUOUS
10
80.5797
20
-141.688
11
80.4929
21
-141.642
0
LINE
8
BLACK
6
CONTINUOUS
10
80.4929
20
-141.642
11
80.4167
21
-141.579
0
LINE
8
BLACK
6
CONTINUOUS
10
80.4167
20
-141.579
11
80.4011
21
-141.56
0
LINE
8
BLACK
6
CONTINUOUS
10
80.4011
20
-141.56
11
77.6418
21
-138.801
0
LINE
8
BLACK
6
CONTINUOUS
10
77.6418
20
-138.801
11
77.6227
21
-138.785
0
LINE
8
BLACK
6
CONTINUOUS
10
77.6227
20
-138.785
11
77.5603
21
-138.709
0
LINE
8
BLACK
6
CONTINUOUS
10
77.5603
20
-138.709
11
77.5138
21
-138.622
0
LINE
8
BLACK
6
CONTINUOUS
10
77.5138
20
-138.622
11
77.4852
21
-138.528
0
LINE
8
BLACK
6
CONTINUOUS
10
77.4852
20
-138.528
11
77.478
21
-138.455
0
LINE
8
BLACK
6
CONTINUOUS
10
77.478
20
-138.455
11
77.4756
21
-138.43
0
LINE
8
BLACK
6
CONTINUOUS
10
77.4756
20
-138.43
11
77.478
21
-138.405
0
LINE
8
BLACK
6
CONTINUOUS
10
77.478
20
-138.405
11
77.478
21
-123.02
0
LINE
8
BLACK
6
CONTINUOUS
10
77.478
20
-123.02
11
76.878
21
-123.02
0
LINE
8
BLACK
6
CONTINUOUS
10
76.878
20
-123.02
11
76.878
21
-120.82
0
LINE
8
BLACK
6
CONTINUOUS
10
76.878
20
-120.82
11
77.378
21
-120.82
0
LINE
8
BLACK
6
CONTINUOUS
10
77.378
20
-120.82
11
77.378
21
-114.803
0
LINE
8
BLACK
6
CONTINUOUS
10
77.378
20
-114.803
11
76.0506
21
-113.475
0
LINE
8
BLACK
6
CONTINUOUS
10
76.0506
20
-113.475
11
76.0506
21
-113.475
0
LINE
8
BLACK
6
CONTINUOUS
10
76.0506
20
-113.475
11
76.0506
21
-113.475
0
LINE
8
BLACK
6
CONTINUOUS
10
76.0506
20
-113.475
11
76.0277
21
-113.456
0
LINE
8
BLACK
6
CONTINUOUS
10
76.0277
20
-113.456
11
76.0089
21
-113.433
0
LINE
8
BLACK
6
CONTINUOUS
10
76.0089
20
-113.433
11
74.0515
21
-111.476
0
LINE
8
BLACK
6
CONTINUOUS
10
74.0515
20
-111.476
11
64.1895
21
-111.476
0
LINE
8
BLACK
6
CONTINUOUS
10
64.1895
20
-111.476
11
64.16
21
-111.479
0
LINE
8
BLACK
6
CONTINUOUS
10
64.16
20
-111.479
11
64.0424
21
-111.467
0
LINE
8
BLACK
6
CONTINUOUS
10
64.0424
20
-111.467
11
63.9293
21
-111.433
0
LINE
8
BLACK
6
CONTINUOUS
10
63.9293
20
-111.433
11
63.9087
21
-111.422
0
LINE
8
BLACK
6
CONTINUOUS
10
63.9087
20
-111.422
11
63.825
21
-111.377
0
LINE
8
BLACK
6
CONTINUOUS
10
63.825
20
-111.377
11
63.7337
21
-111.302
0
LINE
8
BLACK
6
CONTINUOUS
10
63.7337
20
-111.302
11
63.7149
21
-111.279
0
LINE
8
BLACK
6
CONTINUOUS
10
63.7149
20
-111.279
11
62.3166
21
-109.881
0
LINE
8
BLACK
6
CONTINUOUS
10
62.3166
20
-109.881
11
62.2937
21
-109.862
0
LINE
8
BLACK
6
CONTINUOUS
10
62.2937
20
-109.862
11
62.2187
21
-109.771
0
LINE
8
BLACK
6
CONTINUOUS
10
62.2187
20
-109.771
11
62.163
21
-109.667
0
LINE
8
BLACK
6
CONTINUOUS
10
62.163
20
-109.667
11
62.1537
21
-109.636
0
LINE
8
BLACK
6
CONTINUOUS
10
62.1537
20
-109.636
11
62.1287
21
-109.554
0
LINE
8
BLACK
6
CONTINUOUS
10
62.1287
20
-109.554
11
62.1171
21
-109.436
0
LINE
8
BLACK
6
CONTINUOUS
10
62.1171
20
-109.436
11
62.12
21
-109.407
0
LINE
8
BLACK
6
CONTINUOUS
10
62.12
20
-109.407
11
62.12
21
-100.905
0
LINE
8
BLACK
6
CONTINUOUS
10
62.12
20
-100.905
11
62.1171
21
-100.876
0
LINE
8
BLACK
6
CONTINUOUS
10
62.1171
20
-100.876
11
62.1287
21
-100.758
0
LINE
8
BLACK
6
CONTINUOUS
10
62.1287
20
-100.758
11
62.1287
21
-100.758
0
LINE
8
BLACK
6
CONTINUOUS
10
62.1287
20
-100.758
11
62.163
21
-100.645
0
LINE
8
BLACK
6
CONTINUOUS
10
62.163
20
-100.645
11
62.2187
21
-100.541
0
LINE
8
BLACK
6
CONTINUOUS
10
62.2187
20
-100.541
11
62.2937
21
-100.45
0
LINE
8
BLACK
6
CONTINUOUS
10
62.2937
20
-100.45
11
62.3166
21
-100.431
0
LINE
8
BLACK
6
CONTINUOUS
10
62.3166
20
-100.431
11
63.0749
21
-99.6726
0
LINE
8
BLACK
6
CONTINUOUS
10
63.0749
20
-99.6726
11
63.0937
21
-99.6497
0
LINE
8
BLACK
6
CONTINUOUS
10
63.0937
20
-99.6497
11
63.185
21
-99.5747
0
LINE
8
BLACK
6
CONTINUOUS
10
63.185
20
-99.5747
11
63.2893
21
-99.519
0
LINE
8
BLACK
6
CONTINUOUS
10
63.2893
20
-99.519
11
63.3681
21
-99.4951
0
LINE
8
BLACK
6
CONTINUOUS
10
63.3681
20
-99.4951
11
63.4024
21
-99.4847
0
LINE
8
BLACK
6
CONTINUOUS
10
63.4024
20
-99.4847
11
63.4136
21
-99.4836
0
LINE
8
BLACK
6
CONTINUOUS
10
63.4136
20
-99.4836
11
63.4905
21
-99.476
0
LINE
8
BLACK
6
CONTINUOUS
10
63.4905
20
-99.476
11
63.4905
21
-99.476
0
LINE
8
BLACK
6
CONTINUOUS
10
63.4905
20
-99.476
11
63.52
21
-99.4731
0
LINE
8
BLACK
6
CONTINUOUS
10
63.52
20
-99.4731
11
63.52
21
-99.4731
0
LINE
8
BLACK
6
CONTINUOUS
10
63.52
20
-99.4731
11
63.52
21
-98.976
0
LINE
8
BLACK
6
CONTINUOUS
10
63.52
20
-98.976
11
66.02
21
-98.976
0
LINE
8
BLACK
6
CONTINUOUS
10
66.02
20
-98.976
11
66.02
21
-101.176
0
LINE
8
BLACK
6
CONTINUOUS
10
91.5437
20
-106.25
11
91.648
21
-106.306
0
LINE
8
BLACK
6
CONTINUOUS
10
91.648
20
-106.306
11
91.7393
21
-106.381
0
LINE
8
BLACK
6
CONTINUOUS
10
91.7393
20
-106.381
11
91.7581
21
-106.404
0
LINE
8
BLACK
6
CONTINUOUS
10
91.7581
20
-106.404
11
92.9585
21
-107.604
0
LINE
8
BLACK
6
CONTINUOUS
10
92.9585
20
-107.604
11
102.024
21
-107.604
0
LINE
8
BLACK
6
CONTINUOUS
10
102.024
20
-107.604
11
102.024
21
-107.104
0
LINE
8
BLACK
6
CONTINUOUS
10
102.024
20
-107.104
11
104.224
21
-107.104
0
LINE
8
BLACK
6
CONTINUOUS
10
104.224
20
-107.104
11
104.224
21
-109.304
0
LINE
8
BLACK
6
CONTINUOUS
10
104.224
20
-109.304
11
102.024
21
-109.304
0
LINE
8
BLACK
6
CONTINUOUS
10
102.024
20
-109.304
11
102.024
21
-108.804
0
LINE
8
BLACK
6
CONTINUOUS
10
102.024
20
-108.804
11
92.7395
21
-108.804
0
LINE
8
BLACK
6
CONTINUOUS
10
92.7395
20
-108.804
11
92.71
21
-108.807
0
LINE
8
BLACK
6
CONTINUOUS
10
92.71
20
-108.807
11
92.5924
21
-108.795
0
LINE
8
BLACK
6
CONTINUOUS
10
92.5924
20
-108.795
11
92.5581
21
-108.785
0
LINE
8
BLACK
6
CONTINUOUS
10
92.5581
20
-108.785
11
92.4793
21
-108.761
0
LINE
8
BLACK
6
CONTINUOUS
10
92.4793
20
-108.761
11
92.375
21
-108.705
0
LINE
8
BLACK
6
CONTINUOUS
10
92.375
20
-108.705
11
92.2837
21
-108.63
0
LINE
8
BLACK
6
CONTINUOUS
10
92.2837
20
-108.63
11
92.2649
21
-108.607
0
LINE
8
BLACK
6
CONTINUOUS
10
92.2649
20
-108.607
11
91.313
21
-107.656
0
LINE
8
BLACK
6
CONTINUOUS
10
91.313
20
-107.656
11
89.9801
21
-108.988
0
LINE
8
BLACK
6
CONTINUOUS
10
89.9801
20
-108.988
11
89.9613
21
-109.011
0
LINE
8
BLACK
6
CONTINUOUS
10
89.9613
20
-109.011
11
89.9384
21
-109.03
0
LINE
8
BLACK
6
CONTINUOUS
10
89.9384
20
-109.03
11
81.758
21
-117.211
0
LINE
8
BLACK
6
CONTINUOUS
10
81.758
20
-117.211
11
81.758
21
-120.743
0
LINE
8
BLACK
6
CONTINUOUS
10
81.758
20
-120.743
11
81.7609
21
-120.772
0
LINE
8
BLACK
6
CONTINUOUS
10
81.7609
20
-120.772
11
81.758
21
-120.801
0
LINE
8
BLACK
6
CONTINUOUS
10
81.758
20
-120.801
11
81.758
21
-120.801
0
LINE
8
BLACK
6
CONTINUOUS
10
81.758
20
-120.801
11
81.7493
21
-120.89
0
LINE
8
BLACK
6
CONTINUOUS
10
81.7493
20
-120.89
11
81.715
21
-121.003
0
LINE
8
BLACK
6
CONTINUOUS
10
81.715
20
-121.003
11
81.6593
21
-121.107
0
LINE
8
BLACK
6
CONTINUOUS
10
81.6593
20
-121.107
11
81.618
21
-121.157
0
LINE
8
BLACK
6
CONTINUOUS
10
81.618
20
-121.157
11
81.618
21
-123.02
0
LINE
8
BLACK
6
CONTINUOUS
10
81.618
20
-123.02
11
81.018
21
-123.02
0
LINE
8
BLACK
6
CONTINUOUS
10
81.018
20
-123.02
11
81.018
21
-136.364
0
LINE
8
BLACK
6
CONTINUOUS
10
81.018
20
-136.364
11
84.178
21
-139.524
0
LINE
8
BLACK
6
CONTINUOUS
10
84.178
20
-139.524
11
89.6265
21
-139.524
0
LINE
8
BLACK
6
CONTINUOUS
10
89.6265
20
-139.524
11
89.6511
21
-139.522
0
LINE
8
BLACK
6
CONTINUOUS
10
89.6511
20
-139.522
11
89.6756
21
-139.524
0
LINE
8
BLACK
6
CONTINUOUS
10
89.6756
20
-139.524
11
89.7491
21
-139.531
0
LINE
8
BLACK
6
CONTINUOUS
10
89.7491
20
-139.531
11
89.8433
21
-139.56
0
LINE
8
BLACK
6
CONTINUOUS
10
89.8433
20
-139.56
11
89.9302
21
-139.606
0
LINE
8
BLACK
6
CONTINUOUS
10
89.9302
20
-139.606
11
90.0063
21
-139.669
0
LINE
8
BLACK
6
CONTINUOUS
10
90.0063
20
-139.669
11
90.022
21
-139.688
0
LINE
8
BLACK
6
CONTINUOUS
10
90.022
20
-139.688
11
96.9702
21
-146.636
0
LINE
8
BLACK
6
CONTINUOUS
10
96.9702
20
-146.636
11
106.921
21
-146.636
0
LINE
8
BLACK
6
CONTINUOUS
10
106.921
20
-146.636
11
106.945
21
-146.634
0
LINE
8
BLACK
6
CONTINUOUS
10
106.945
20
-146.634
11
106.97
21
-146.636
0
LINE
8
BLACK
6
CONTINUOUS
10
106.97
20
-146.636
11
107.043
21
-146.643
0
LINE
8
BLACK
6
CONTINUOUS
10
107.043
20
-146.643
11
107.138
21
-146.672
0
LINE
8
BLACK
6
CONTINUOUS
10
107.138
20
-146.672
11
107.225
21
-146.718
0
LINE
8
BLACK
6
CONTINUOUS
10
107.225
20
-146.718
11
107.301
21
-146.781
0
LINE
8
BLACK
6
CONTINUOUS
10
107.301
20
-146.781
11
107.316
21
-146.8
0
LINE
8
BLACK
6
CONTINUOUS
10
107.316
20
-146.8
11
110.153
21
-149.636
0
LINE
8
BLACK
6
CONTINUOUS
10
110.153
20
-149.636
11
114.48
21
-149.636
0
LINE
8
BLACK
6
CONTINUOUS
10
114.48
20
-149.636
11
114.48
21
-129.256
0
LINE
8
BLACK
6
CONTINUOUS
10
114.48
20
-129.256
11
106.469
21
-129.256
0
LINE
8
BLACK
6
CONTINUOUS
10
106.469
20
-129.256
11
105.341
21
-130.384
0
LINE
8
BLACK
6
CONTINUOUS
10
105.341
20
-130.384
11
105.325
21
-130.403
0
LINE
8
BLACK
6
CONTINUOUS
10
105.325
20
-130.403
11
105.249
21
-130.466
0
LINE
8
BLACK
6
CONTINUOUS
10
105.249
20
-130.466
11
105.162
21
-130.512
0
LINE
8
BLACK
6
CONTINUOUS
10
105.162
20
-130.512
11
105.068
21
-130.541
0
LINE
8
BLACK
6
CONTINUOUS
10
105.068
20
-130.541
11
104.995
21
-130.548
0
LINE
8
BLACK
6
CONTINUOUS
10
104.995
20
-130.548
11
104.97
21
-130.55
0
LINE
8
BLACK
6
CONTINUOUS
10
104.97
20
-130.55
11
104.945
21
-130.548
0
LINE
8
BLACK
6
CONTINUOUS
10
104.945
20
-130.548
11
103.97
21
-130.548
0
LINE
8
BLACK
6
CONTINUOUS
10
103.97
20
-130.548
11
103.97
21
-131.148
0
LINE
8
BLACK
6
CONTINUOUS
10
103.97
20
-131.148
11
101.77
21
-131.148
0
LINE
8
BLACK
6
CONTINUOUS
10
101.77
20
-131.148
11
101.77
21
-128.948
0
LINE
8
BLACK
6
CONTINUOUS
10
101.77
20
-128.948
11
103.97
21
-128.948
0
LINE
8
BLACK
6
CONTINUOUS
10
103.97
20
-128.948
11
103.97
21
-129.548
0
LINE
8
BLACK
6
CONTINUOUS
10
103.97
20
-129.548
11
104.763
21
-129.548
0
LINE
8
BLACK
6
CONTINUOUS
10
104.763
20
-129.548
11
105.891
21
-128.42
0
LINE
8
BLACK
6
CONTINUOUS
10
105.891
20
-128.42
11
105.907
21
-128.401
0
LINE
8
BLACK
6
CONTINUOUS
10
105.907
20
-128.401
11
105.983
21
-128.338
0
LINE
8
BLACK
6
CONTINUOUS
10
105.983
20
-128.338
11
106.07
21
-128.292
0
LINE
8
BLACK
6
CONTINUOUS
10
106.07
20
-128.292
11
106.164
21
-128.263
0
LINE
8
BLACK
6
CONTINUOUS
10
106.164
20
-128.263
11
106.237
21
-128.256
0
LINE
8
BLACK
6
CONTINUOUS
10
106.237
20
-128.256
11
106.237
21
-128.256
0
LINE
8
BLACK
6
CONTINUOUS
10
106.237
20
-128.256
11
106.262
21
-128.254
0
LINE
8
BLACK
6
CONTINUOUS
10
106.262
20
-128.254
11
106.287
21
-128.256
0
LINE
8
BLACK
6
CONTINUOUS
10
106.287
20
-128.256
11
114.815
21
-128.256
0
LINE
8
BLACK
6
CONTINUOUS
10
114.815
20
-128.256
11
114.84
21
-128.254
0
LINE
8
BLACK
6
CONTINUOUS
10
114.84
20
-128.254
11
114.865
21
-128.256
0
LINE
8
BLACK
6
CONTINUOUS
10
114.865
20
-128.256
11
114.938
21
-128.263
0
LINE
8
BLACK
6
CONTINUOUS
10
114.938
20
-128.263
11
115.032
21
-128.292
0
LINE
8
BLACK
6
CONTINUOUS
10
115.032
20
-128.292
11
115.119
21
-128.338
0
LINE
8
BLACK
6
CONTINUOUS
10
115.119
20
-128.338
11
115.195
21
-128.401
0
LINE
8
BLACK
6
CONTINUOUS
10
115.195
20
-128.401
11
115.211
21
-128.42
0
LINE
8
BLACK
6
CONTINUOUS
10
115.211
20
-128.42
11
115.316
21
-128.525
0
LINE
8
BLACK
6
CONTINUOUS
10
115.316
20
-128.525
11
115.335
21
-128.541
0
LINE
8
BLACK
6
CONTINUOUS
10
115.335
20
-128.541
11
115.398
21
-128.617
0
LINE
8
BLACK
6
CONTINUOUS
10
115.398
20
-128.617
11
115.444
21
-128.704
0
LINE
8
BLACK
6
CONTINUOUS
10
115.444
20
-128.704
11
115.46
21
-128.756
0
LINE
8
BLACK
6
CONTINUOUS
10
115.46
20
-128.756
11
115.473
21
-128.798
0
LINE
8
BLACK
6
CONTINUOUS
10
115.473
20
-128.798
11
115.482
21
-128.896
0
LINE
8
BLACK
6
CONTINUOUS
10
115.482
20
-128.896
11
115.48
21
-128.921
0
LINE
8
BLACK
6
CONTINUOUS
10
115.48
20
-128.921
11
115.48
21
-149.971
0
LINE
8
BLACK
6
CONTINUOUS
10
115.48
20
-149.971
11
115.482
21
-149.996
0
LINE
8
BLACK
6
CONTINUOUS
10
115.482
20
-149.996
11
115.48
21
-150.021
0
LINE
8
BLACK
6
CONTINUOUS
10
115.48
20
-150.021
11
115.473
21
-150.094
0
LINE
8
BLACK
6
CONTINUOUS
10
115.473
20
-150.094
11
115.444
21
-150.188
0
LINE
8
BLACK
6
CONTINUOUS
10
115.444
20
-150.188
11
115.398
21
-150.275
0
LINE
8
BLACK
6
CONTINUOUS
10
115.398
20
-150.275
11
115.335
21
-150.351
0
LINE
8
BLACK
6
CONTINUOUS
10
115.335
20
-150.351
11
115.316
21
-150.367
0
LINE
8
BLACK
6
CONTINUOUS
10
115.316
20
-150.367
11
115.211
21
-150.472
0
LINE
8
BLACK
6
CONTINUOUS
10
115.211
20
-150.472
11
115.195
21
-150.491
0
LINE
8
BLACK
6
CONTINUOUS
10
115.195
20
-150.491
11
115.119
21
-150.554
0
LINE
8
BLACK
6
CONTINUOUS
10
115.119
20
-150.554
11
115.032
21
-150.6
0
LINE
8
BLACK
6
CONTINUOUS
10
115.032
20
-150.6
11
114.938
21
-150.629
0
LINE
8
BLACK
6
CONTINUOUS
10
114.938
20
-150.629
11
114.865
21
-150.636
0
LINE
8
BLACK
6
CONTINUOUS
10
114.865
20
-150.636
11
114.84
21
-150.638
0
LINE
8
BLACK
6
CONTINUOUS
10
114.84
20
-150.638
11
114.815
21
-150.636
0
LINE
8
BLACK
6
CONTINUOUS
10
114.815
20
-150.636
11
109.97
21
-150.636
0
LINE
8
BLACK
6
CONTINUOUS
10
109.97
20
-150.636
11
109.945
21
-150.638
0
LINE
8
BLACK
6
CONTINUOUS
10
109.945
20
-150.638
11
109.921
21
-150.636
0
LINE
8
BLACK
6
CONTINUOUS
10
109.921
20
-150.636
11
109.921
21
-150.636
0
LINE
8
BLACK
6
CONTINUOUS
10
109.921
20
-150.636
11
109.847
21
-150.629
0
LINE
8
BLACK
6
CONTINUOUS
10
109.847
20
-150.629
11
109.753
21
-150.6
0
LINE
8
BLACK
6
CONTINUOUS
10
109.753
20
-150.6
11
109.666
21
-150.554
0
LINE
8
BLACK
6
CONTINUOUS
10
109.666
20
-150.554
11
109.59
21
-150.491
0
LINE
8
BLACK
6
CONTINUOUS
10
109.59
20
-150.491
11
109.575
21
-150.472
0
LINE
8
BLACK
6
CONTINUOUS
10
109.575
20
-150.472
11
106.738
21
-147.636
0
LINE
8
BLACK
6
CONTINUOUS
10
106.738
20
-147.636
11
96.7876
21
-147.636
0
LINE
8
BLACK
6
CONTINUOUS
10
96.7876
20
-147.636
11
96.7631
21
-147.638
0
LINE
8
BLACK
6
CONTINUOUS
10
96.7631
20
-147.638
11
96.665
21
-147.629
0
LINE
8
BLACK
6
CONTINUOUS
10
96.665
20
-147.629
11
96.5708
21
-147.6
0
LINE
8
BLACK
6
CONTINUOUS
10
96.5708
20
-147.6
11
96.4839
21
-147.554
0
LINE
8
BLACK
6
CONTINUOUS
10
96.4839
20
-147.554
11
96.4078
21
-147.491
0
LINE
8
BLACK
6
CONTINUOUS
10
96.4078
20
-147.491
11
96.3921
21
-147.472
0
LINE
8
BLACK
6
CONTINUOUS
10
96.3921
20
-147.472
11
89.444
21
-140.524
0
LINE
8
BLACK
6
CONTINUOUS
10
89.444
20
-140.524
11
83.9955
21
-140.524
0
LINE
8
BLACK
6
CONTINUOUS
10
83.9955
20
-140.524
11
83.9709
21
-140.526
0
LINE
8
BLACK
6
CONTINUOUS
10
83.9709
20
-140.526
11
83.9464
21
-140.524
0
LINE
8
BLACK
6
CONTINUOUS
10
83.9464
20
-140.524
11
83.9464
21
-140.524
0
LINE
8
BLACK
6
CONTINUOUS
10
83.9464
20
-140.524
11
83.8729
21
-140.517
0
LINE
8
BLACK
6
CONTINUOUS
10
83.8729
20
-140.517
11
83.7787
21
-140.488
0
LINE
8
BLACK
6
CONTINUOUS
10
83.7787
20
-140.488
11
83.6918
21
-140.442
0
LINE
8
BLACK
6
CONTINUOUS
10
83.6918
20
-140.442
11
83.6157
21
-140.379
0
LINE
8
BLACK
6
CONTINUOUS
10
83.6157
20
-140.379
11
83.6
21
-140.36
0
LINE
8
BLACK
6
CONTINUOUS
10
83.6
20
-140.36
11
80.1818
21
-136.942
0
LINE
8
BLACK
6
CONTINUOUS
10
80.1818
20
-136.942
11
80.1627
21
-136.926
0
LINE
8
BLACK
6
CONTINUOUS
10
80.1627
20
-136.926
11
80.1003
21
-136.85
0
LINE
8
BLACK
6
CONTINUOUS
10
80.1003
20
-136.85
11
80.0538
21
-136.763
0
LINE
8
BLACK
6
CONTINUOUS
10
80.0538
20
-136.763
11
80.0252
21
-136.669
0
LINE
8
BLACK
6
CONTINUOUS
10
80.0252
20
-136.669
11
80.018
21
-136.596
0
LINE
8
BLACK
6
CONTINUOUS
10
80.018
20
-136.596
11
80.0156
21
-136.571
0
LINE
8
BLACK
6
CONTINUOUS
10
80.0156
20
-136.571
11
80.018
21
-136.547
0
LINE
8
BLACK
6
CONTINUOUS
10
80.018
20
-136.547
11
80.018
21
-124.045
0
LINE
8
BLACK
6
CONTINUOUS
10
80.018
20
-124.045
11
80.018
21
-124.045
0
LINE
8
BLACK
6
CONTINUOUS
10
80.018
20
-124.045
11
80.018
21
-123.02
0
LINE
8
BLACK
6
CONTINUOUS
10
80.018
20
-123.02
11
79.418
21
-123.02
0
LINE
8
BLACK
6
CONTINUOUS
10
79.418
20
-123.02
11
79.418
21
-120.82
0
LINE
8
BLACK
6
CONTINUOUS
10
79.418
20
-120.82
11
80.2615
21
-120.82
0
LINE
8
BLACK
6
CONTINUOUS
10
80.2615
20
-120.82
11
80.558
21
-120.523
0
LINE
8
BLACK
6
CONTINUOUS
10
80.558
20
-120.523
11
80.558
21
-116.991
0
LINE
8
BLACK
6
CONTINUOUS
10
80.558
20
-116.991
11
80.5551
21
-116.962
0
LINE
8
BLACK
6
CONTINUOUS
10
80.5551
20
-116.962
11
80.5667
21
-116.844
0
LINE
8
BLACK
6
CONTINUOUS
10
80.5667
20
-116.844
11
80.601
21
-116.731
0
LINE
8
BLACK
6
CONTINUOUS
10
80.601
20
-116.731
11
80.6057
21
-116.722
0
LINE
8
BLACK
6
CONTINUOUS
10
80.6057
20
-116.722
11
80.6567
21
-116.627
0
LINE
8
BLACK
6
CONTINUOUS
10
80.6567
20
-116.627
11
80.7317
21
-116.536
0
LINE
8
BLACK
6
CONTINUOUS
10
80.7317
20
-116.536
11
80.7546
21
-116.517
0
LINE
8
BLACK
6
CONTINUOUS
10
80.7546
20
-116.517
11
88.935
21
-108.336
0
LINE
8
BLACK
6
CONTINUOUS
10
88.935
20
-108.336
11
88.935
21
-93.8645
0
LINE
8
BLACK
6
CONTINUOUS
10
88.935
20
-93.8645
11
88.9321
21
-93.835
0
LINE
8
BLACK
6
CONTINUOUS
10
88.9321
20
-93.835
11
88.9437
21
-93.7174
0
LINE
8
BLACK
6
CONTINUOUS
10
88.9437
20
-93.7174
11
88.9595
21
-93.6652
0
LINE
8
BLACK
6
CONTINUOUS
10
88.9595
20
-93.6652
11
88.978
21
-93.6043
0
LINE
8
BLACK
6
CONTINUOUS
10
88.978
20
-93.6043
11
89.0337
21
-93.5
0
LINE
8
BLACK
6
CONTINUOUS
10
89.0337
20
-93.5
11
89.1087
21
-93.4087
0
LINE
8
BLACK
6
CONTINUOUS
10
89.1087
20
-93.4087
11
89.1316
21
-93.3899
0
LINE
8
BLACK
6
CONTINUOUS
10
89.1316
20
-93.3899
11
91.8609
21
-90.6606
0
LINE
8
BLACK
6
CONTINUOUS
10
91.8609
20
-90.6606
11
91.8797
21
-90.6377
0
LINE
8
BLACK
6
CONTINUOUS
10
91.8797
20
-90.6377
11
91.971
21
-90.5627
0
LINE
8
BLACK
6
CONTINUOUS
10
91.971
20
-90.5627
11
92.0753
21
-90.507
0
LINE
8
BLACK
6
CONTINUOUS
10
92.0753
20
-90.507
11
92.1541
21
-90.4831
0
LINE
8
BLACK
6
CONTINUOUS
10
92.1541
20
-90.4831
11
92.1884
21
-90.4727
0
LINE
8
BLACK
6
CONTINUOUS
10
92.1884
20
-90.4727
11
92.306
21
-90.4611
0
LINE
8
BLACK
6
CONTINUOUS
10
92.306
20
-90.4611
11
92.3355
21
-90.464
0
LINE
8
BLACK
6
CONTINUOUS
10
92.3355
20
-90.464
11
108.585
21
-90.464
0
LINE
8
BLACK
6
CONTINUOUS
10
108.585
20
-90.464
11
110.012
21
-89.0375
0
LINE
8
BLACK
6
CONTINUOUS
10
110.012
20
-89.0375
11
110.012
21
-82.8265
0
LINE
8
BLACK
6
CONTINUOUS
10
110.012
20
-82.8265
11
107.801
21
-80.6151
0
LINE
8
BLACK
6
CONTINUOUS
10
107.801
20
-80.6151
11
107.778
21
-80.5963
0
LINE
8
BLACK
6
CONTINUOUS
10
107.778
20
-80.5963
11
107.703
21
-80.505
0
LINE
8
BLACK
6
CONTINUOUS
10
107.703
20
-80.505
11
107.647
21
-80.4007
0
LINE
8
BLACK
6
CONTINUOUS
10
107.647
20
-80.4007
11
107.613
21
-80.2876
0
LINE
8
BLACK
6
CONTINUOUS
10
107.613
20
-80.2876
11
107.601
21
-80.17
0
LINE
8
BLACK
6
CONTINUOUS
10
107.601
20
-80.17
11
107.604
21
-80.1405
0
LINE
8
BLACK
6
CONTINUOUS
10
107.604
20
-80.1405
11
107.604
21
-78.97
0
LINE
8
BLACK
6
CONTINUOUS
10
107.604
20
-78.97
11
106.704
21
-78.97
0
LINE
8
BLACK
6
CONTINUOUS
10
106.704
20
-78.97
11
106.704
21
-76.8185
0
LINE
8
BLACK
6
CONTINUOUS
10
106.704
20
-76.8185
11
105.117
21
-75.232
0
LINE
8
BLACK
6
CONTINUOUS
10
105.117
20
-75.232
11
99.1385
21
-75.232
0
LINE
8
BLACK
6
CONTINUOUS
10
99.1385
20
-75.232
11
98.8663
21
-75.5043
0
LINE
8
BLACK
6
CONTINUOUS
10
98.8663
20
-75.5043
11
98.89
21
-75.6237
0
LINE
8
BLACK
6
CONTINUOUS
10
98.89
20
-75.6237
11
98.89
21
-75.8403
0
LINE
8
BLACK
6
CONTINUOUS
10
98.89
20
-75.8403
11
98.8477
21
-76.0529
0
LINE
8
BLACK
6
CONTINUOUS
10
98.8477
20
-76.0529
11
98.7648
21
-76.253
0
LINE
8
BLACK
6
CONTINUOUS
10
98.7648
20
-76.253
11
98.6444
21
-76.4332
0
LINE
8
BLACK
6
CONTINUOUS
10
98.6444
20
-76.4332
11
98.4912
21
-76.5864
0
LINE
8
BLACK
6
CONTINUOUS
10
98.4912
20
-76.5864
11
98.311
21
-76.7068
0
LINE
8
BLACK
6
CONTINUOUS
10
98.311
20
-76.7068
11
98.1109
21
-76.7897
0
LINE
8
BLACK
6
CONTINUOUS
10
98.1109
20
-76.7897
11
97.8983
21
-76.832
0
LINE
8
BLACK
6
CONTINUOUS
10
97.8983
20
-76.832
11
97.6817
21
-76.832
0
LINE
8
BLACK
6
CONTINUOUS
10
97.6817
20
-76.832
11
97.4691
21
-76.7897
0
LINE
8
BLACK
6
CONTINUOUS
10
97.4691
20
-76.7897
11
97.269
21
-76.7068
0
LINE
8
BLACK
6
CONTINUOUS
10
97.269
20
-76.7068
11
97.0888
21
-76.5864
0
LINE
8
BLACK
6
CONTINUOUS
10
97.0888
20
-76.5864
11
96.9356
21
-76.4332
0
LINE
8
BLACK
6
CONTINUOUS
10
96.9356
20
-76.4332
11
96.8152
21
-76.253
0
LINE
8
BLACK
6
CONTINUOUS
10
96.8152
20
-76.253
11
96.7323
21
-76.0529
0
LINE
8
BLACK
6
CONTINUOUS
10
96.7323
20
-76.0529
11
96.69
21
-75.8403
0
LINE
8
BLACK
6
CONTINUOUS
10
96.69
20
-75.8403
11
96.69
21
-75.6237
0
LINE
8
BLACK
6
CONTINUOUS
10
96.69
20
-75.6237
11
96.7137
21
-75.5043
0
LINE
8
BLACK
6
CONTINUOUS
10
96.7137
20
-75.5043
11
96.2866
21
-75.0771
0
LINE
8
BLACK
6
CONTINUOUS
10
96.2866
20
-75.0771
11
96.2866
21
-75.0771
0
LINE
8
BLACK
6
CONTINUOUS
10
96.2866
20
-75.0771
11
96.2095
21
-75
0
LINE
8
BLACK
6
CONTINUOUS
10
96.2095
20
-75
11
87.9685
21
-75
0
LINE
8
BLACK
6
CONTINUOUS
10
87.9685
20
-75
11
87.1271
21
-75.8414
0
LINE
8
BLACK
6
CONTINUOUS
10
87.1271
20
-75.8414
11
87.1083
21
-75.8643
0
LINE
8
BLACK
6
CONTINUOUS
10
87.1083
20
-75.8643
11
87.017
21
-75.9393
0
LINE
8
BLACK
6
CONTINUOUS
10
87.017
20
-75.9393
11
86.9127
21
-75.995
0
LINE
8
BLACK
6
CONTINUOUS
10
86.9127
20
-75.995
11
86.7996
21
-76.0293
0
LINE
8
BLACK
6
CONTINUOUS
10
86.7996
20
-76.0293
11
86.7115
21
-76.038
0
LINE
8
BLACK
6
CONTINUOUS
10
86.7115
20
-76.038
11
86.682
21
-76.0409
0
LINE
8
BLACK
6
CONTINUOUS
10
86.682
20
-76.0409
11
86.6525
21
-76.038
0
LINE
8
BLACK
6
CONTINUOUS
10
86.6525
20
-76.038
11
85.482
21
-76.038
0
LINE
8
BLACK
6
CONTINUOUS
10
85.482
20
-76.038
11
85.482
21
-76.338
0
LINE
8
BLACK
6
CONTINUOUS
10
85.482
20
-76.338
11
83.682
21
-76.338
0
LINE
8
BLACK
6
CONTINUOUS
10
83.682
20
-76.338
11
83.682
21
-76.038
0
LINE
8
BLACK
6
CONTINUOUS
10
83.682
20
-76.038
11
82.7305
21
-76.038
0
LINE
8
BLACK
6
CONTINUOUS
10
82.7305
20
-76.038
11
72.736
21
-86.0325
0
LINE
8
BLACK
6
CONTINUOUS
10
72.736
20
-86.0325
11
72.736
21
-87.392
0
LINE
8
BLACK
6
CONTINUOUS
10
72.736
20
-87.392
11
73.136
21
-87.392
0
LINE
8
BLACK
6
CONTINUOUS
10
73.136
20
-87.392
11
73.136
21
-89.392
0
LINE
8
BLACK
6
CONTINUOUS
10
73.136
20
-89.392
11
72.736
21
-89.392
0
LINE
8
BLACK
6
CONTINUOUS
10
72.736
20
-89.392
11
72.736
21
-95.52
0
LINE
8
BLACK
6
CONTINUOUS
10
72.736
20
-95.52
11
73.136
21
-95.52
0
LINE
8
BLACK
6
CONTINUOUS
10
73.136
20
-95.52
11
73.136
21
-97.52
0
LINE
8
BLACK
6
CONTINUOUS
10
73.136
20
-97.52
11
72.736
21
-97.52
0
LINE
8
BLACK
6
CONTINUOUS
10
72.736
20
-97.52
11
72.736
21
-104.156
0
LINE
8
BLACK
6
CONTINUOUS
10
72.736
20
-104.156
11
73.136
21
-104.156
0
LINE
8
BLACK
6
CONTINUOUS
10
73.136
20
-104.156
11
73.136
21
-106.156
0
LINE
8
BLACK
6
CONTINUOUS
10
73.136
20
-106.156
11
71.136
21
-106.156
0
LINE
8
BLACK
6
CONTINUOUS
10
71.136
20
-106.156
11
71.136
21
-105.005
0
LINE
8
BLACK
6
CONTINUOUS
10
71.136
20
-105.005
11
69.3475
21
-103.216
0
LINE
8
BLACK
6
CONTINUOUS
10
69.3475
20
-103.216
11
66.02
21
-103.216
0
LINE
8
BLACK
6
CONTINUOUS
10
66.02
20
-103.216
11
66.02
21
-103.716
0
LINE
8
BLACK
6
CONTINUOUS
10
66.02
20
-103.716
11
63.52
21
-103.716
0
LINE
8
BLACK
6
CONTINUOUS
10
63.52
20
-103.716
11
63.52
21
-101.516
0
LINE
8
BLACK
6
CONTINUOUS
10
63.52
20
-101.516
11
66.02
21
-101.516
0
LINE
8
BLACK
6
CONTINUOUS
10
66.02
20
-101.516
11
66.02
21
-102.016
0
LINE
8
BLACK
6
CONTINUOUS
10
66.02
20
-102.016
11
69.5665
21
-102.016
0
LINE
8
BLACK
6
CONTINUOUS
10
69.5665
20
-102.016
11
69.596
21
-102.013
0
LINE
8
BLACK
6
CONTINUOUS
10
69.596
20
-102.013
11
69.6255
21
-102.016
0
LINE
8
BLACK
6
CONTINUOUS
10
69.6255
20
-102.016
11
69.7136
21
-102.025
0
LINE
8
BLACK
6
CONTINUOUS
10
69.7136
20
-102.025
11
69.8267
21
-102.059
0
LINE
8
BLACK
6
CONTINUOUS
10
69.8267
20
-102.059
11
69.931
21
-102.115
0
LINE
8
BLACK
6
CONTINUOUS
10
69.931
20
-102.115
11
70.0223
21
-102.19
0
LINE
8
BLACK
6
CONTINUOUS
10
70.0223
20
-102.19
11
70.0411
21
-102.213
0
LINE
8
BLACK
6
CONTINUOUS
10
70.0411
20
-102.213
11
71.536
21
-103.707
0
LINE
8
BLACK
6
CONTINUOUS
10
71.536
20
-103.707
11
71.536
21
-97.52
0
LINE
8
BLACK
6
CONTINUOUS
10
71.536
20
-97.52
11
71.136
21
-97.52
0
LINE
8
BLACK
6
CONTINUOUS
10
71.136
20
-97.52
11
71.136
21
-95.52
0
LINE
8
BLACK
6
CONTINUOUS
10
71.136
20
-95.52
11
71.536
21
-95.52
0
LINE
8
BLACK
6
CONTINUOUS
10
71.536
20
-95.52
11
71.536
21
-89.392
0
LINE
8
BLACK
6
CONTINUOUS
10
71.536
20
-89.392
11
71.136
21
-89.392
0
LINE
8
BLACK
6
CONTINUOUS
10
71.136
20
-89.392
11
71.136
21
-87.392
0
LINE
8
BLACK
6
CONTINUOUS
10
71.136
20
-87.392
11
71.536
21
-87.392
0
LINE
8
BLACK
6
CONTINUOUS
10
71.536
20
-87.392
11
71.536
21
-86.1625
0
LINE
8
BLACK
6
CONTINUOUS
10
71.536
20
-86.1625
11
71.536
21
-85.8135
0
LINE
8
BLACK
6
CONTINUOUS
10
71.536
20
-85.8135
11
71.5331
21
-85.784
0
LINE
8
BLACK
6
CONTINUOUS
10
71.5331
20
-85.784
11
71.5447
21
-85.6664
0
LINE
8
BLACK
6
CONTINUOUS
10
71.5447
20
-85.6664
11
71.5646
21
-85.6007
0
LINE
8
BLACK
6
CONTINUOUS
10
71.5646
20
-85.6007
11
71.579
21
-85.5533
0
LINE
8
BLACK
6
CONTINUOUS
10
71.579
20
-85.5533
11
71.6347
21
-85.449
0
LINE
8
BLACK
6
CONTINUOUS
10
71.6347
20
-85.449
11
71.7097
21
-85.3577
0
LINE
8
BLACK
6
CONTINUOUS
10
71.7097
20
-85.3577
11
71.7326
21
-85.3389
0
LINE
8
BLACK
6
CONTINUOUS
10
71.7326
20
-85.3389
11
82.0369
21
-75.0346
0
LINE
8
BLACK
6
CONTINUOUS
10
82.0369
20
-75.0346
11
82.0557
21
-75.0117
0
LINE
8
BLACK
6
CONTINUOUS
10
82.0557
20
-75.0117
11
82.147
21
-74.9367
0
LINE
8
BLACK
6
CONTINUOUS
10
82.147
20
-74.9367
11
82.2513
21
-74.881
0
LINE
8
BLACK
6
CONTINUOUS
10
82.2513
20
-74.881
11
82.2625
21
-74.8776
0
LINE
8
BLACK
6
CONTINUOUS
10
82.2625
20
-74.8776
11
82.3644
21
-74.8467
0
LINE
8
BLACK
6
CONTINUOUS
10
82.3644
20
-74.8467
11
82.482
21
-74.8351
0
LINE
8
BLACK
6
CONTINUOUS
10
82.482
20
-74.8351
11
82.5115
21
-74.838
0
LINE
8
BLACK
6
CONTINUOUS
10
82.5115
20
-74.838
11
83.682
21
-74.838
0
LINE
8
BLACK
6
CONTINUOUS
10
83.682
20
-74.838
11
83.682
21
-74.538
0
LINE
8
BLACK
6
CONTINUOUS
10
83.682
20
-74.538
11
85.482
21
-74.538
0
LINE
8
BLACK
6
CONTINUOUS
10
85.482
20
-74.538
11
85.482
21
-74.838
0
LINE
8
BLACK
6
CONTINUOUS
10
85.482
20
-74.838
11
86.4335
21
-74.838
0
LINE
8
BLACK
6
CONTINUOUS
10
86.4335
20
-74.838
11
87.2749
21
-73.9966
0
LINE
8
BLACK
6
CONTINUOUS
10
87.2749
20
-73.9966
11
87.2937
21
-73.9737
0
LINE
8
BLACK
6
CONTINUOUS
10
87.2937
20
-73.9737
11
87.385
21
-73.8987
0
LINE
8
BLACK
6
CONTINUOUS
10
87.385
20
-73.8987
11
87.4893
21
-73.843
0
LINE
8
BLACK
6
CONTINUOUS
10
87.4893
20
-73.843
11
87.6024
21
-73.8087
0
LINE
8
BLACK
6
CONTINUOUS
10
87.6024
20
-73.8087
11
87.72
21
-73.7971
0
LINE
8
BLACK
6
CONTINUOUS
10
87.72
20
-73.7971
11
87.7495
21
-73.8
0
LINE
8
BLACK
6
CONTINUOUS
10
87.7495
20
-73.8
11
96.4285
21
-73.8
0
LINE
8
BLACK
6
CONTINUOUS
10
96.4285
20
-73.8
11
96.458
21
-73.7971
0
LINE
8
BLACK
6
CONTINUOUS
10
96.458
20
-73.7971
11
96.4875
21
-73.8
0
LINE
8
BLACK
6
CONTINUOUS
10
96.4875
20
-73.8
11
96.5756
21
-73.8087
0
LINE
8
BLACK
6
CONTINUOUS
10
96.5756
20
-73.8087
11
96.6887
21
-73.843
0
LINE
8
BLACK
6
CONTINUOUS
10
96.6887
20
-73.843
11
96.793
21
-73.8987
0
LINE
8
BLACK
6
CONTINUOUS
10
96.793
20
-73.8987
11
96.8843
21
-73.9737
0
LINE
8
BLACK
6
CONTINUOUS
10
96.8843
20
-73.9737
11
96.9031
21
-73.9966
0
LINE
8
BLACK
6
CONTINUOUS
10
96.9031
20
-73.9966
11
97.1351
21
-74.2286
0
LINE
8
BLACK
6
CONTINUOUS
10
97.1351
20
-74.2286
11
97.1351
21
-74.2286
0
LINE
8
BLACK
6
CONTINUOUS
10
97.1351
20
-74.2286
11
97.5623
21
-74.6557
0
LINE
8
BLACK
6
CONTINUOUS
10
97.5623
20
-74.6557
11
97.6817
21
-74.632
0
LINE
8
BLACK
6
CONTINUOUS
10
97.6817
20
-74.632
11
97.8983
21
-74.632
0
LINE
8
BLACK
6
CONTINUOUS
10
97.8983
20
-74.632
11
98.0177
21
-74.6557
0
LINE
8
BLACK
6
CONTINUOUS
10
98.0177
20
-74.6557
11
98.4449
21
-74.2286
0
LINE
8
BLACK
6
CONTINUOUS
10
98.4449
20
-74.2286
11
98.4637
21
-74.2057
0
LINE
8
BLACK
6
CONTINUOUS
10
98.4637
20
-74.2057
11
98.555
21
-74.1307
0
LINE
8
BLACK
6
CONTINUOUS
10
98.555
20
-74.1307
11
98.6593
21
-74.075
0
LINE
8
BLACK
6
CONTINUOUS
10
98.6593
20
-74.075
11
98.7724
21
-74.0407
0
LINE
8
BLACK
6
CONTINUOUS
10
98.7724
20
-74.0407
11
98.89
21
-74.0291
0
LINE
8
BLACK
6
CONTINUOUS
10
98.89
20
-74.0291
11
98.9195
21
-74.032
0
LINE
8
BLACK
6
CONTINUOUS
10
98.9195
20
-74.032
11
105.337
21
-74.032
0
LINE
8
BLACK
6
CONTINUOUS
10
105.337
20
-74.032
11
105.366
21
-74.0291
0
LINE
8
BLACK
6
CONTINUOUS
10
105.366
20
-74.0291
11
105.395
21
-74.032
0
LINE
8
BLACK
6
CONTINUOUS
10
105.395
20
-74.032
11
105.484
21
-74.0407
0
LINE
8
BLACK
6
CONTINUOUS
10
105.484
20
-74.0407
11
105.597
21
-74.075
0
LINE
8
BLACK
6
CONTINUOUS
10
105.597
20
-74.075
11
105.701
21
-74.1307
0
LINE
8
BLACK
6
CONTINUOUS
10
105.701
20
-74.1307
11
105.792
21
-74.2057
0
LINE
8
BLACK
6
CONTINUOUS
10
105.792
20
-74.2057
11
105.811
21
-74.2286
0
LINE
8
BLACK
6
CONTINUOUS
10
105.811
20
-74.2286
11
107.553
21
-75.97
0
LINE
8
BLACK
6
CONTINUOUS
10
107.553
20
-75.97
11
109.704
21
-75.97
0
LINE
8
BLACK
6
CONTINUOUS
10
109.704
20
-75.97
11
109.704
21
-78.97
0
LINE
8
BLACK
6
CONTINUOUS
10
109.704
20
-78.97
11
108.804
21
-78.97
0
LINE
8
BLACK
6
CONTINUOUS
10
108.804
20
-78.97
11
108.804
21
-79.9215
0
LINE
8
BLACK
6
CONTINUOUS
10
108.804
20
-79.9215
11
111.015
21
-82.1329
0
LINE
8
BLACK
6
CONTINUOUS
10
111.015
20
-82.1329
11
111.038
21
-82.1517
0
LINE
8
BLACK
6
CONTINUOUS
10
111.038
20
-82.1517
11
111.113
21
-82.243
0
LINE
8
BLACK
6
CONTINUOUS
10
111.113
20
-82.243
11
111.164
21
-82.3377
0
LINE
8
BLACK
6
CONTINUOUS
10
111.164
20
-82.3377
11
111.169
21
-82.3473
0
LINE
8
BLACK
6
CONTINUOUS
10
111.169
20
-82.3473
11
111.203
21
-82.4604
0
LINE
8
BLACK
6
CONTINUOUS
10
111.203
20
-82.4604
11
111.215
21
-82.578
0
LINE
8
BLACK
6
CONTINUOUS
10
111.215
20
-82.578
11
111.212
21
-82.6075
0
LINE
8
BLACK
6
CONTINUOUS
10
111.212
20
-82.6075
11
111.212
21
-89.2565
0
LINE
8
BLACK
6
CONTINUOUS
10
111.212
20
-89.2565
11
111.215
21
-89.286
0
LINE
8
BLACK
6
CONTINUOUS
10
111.215
20
-89.286
11
111.212
21
-89.3155
0
LINE
8
BLACK
6
CONTINUOUS
10
111.212
20
-89.3155
11
111.203
21
-89.4036
0
LINE
8
BLACK
6
CONTINUOUS
10
111.203
20
-89.4036
11
111.169
21
-89.5167
0
LINE
8
BLACK
6
CONTINUOUS
10
111.169
20
-89.5167
11
111.113
21
-89.621
0
LINE
8
BLACK
6
CONTINUOUS
10
111.113
20
-89.621
11
111.038
21
-89.7123
0
LINE
8
BLACK
6
CONTINUOUS
10
111.038
20
-89.7123
11
111.015
21
-89.7311
0
LINE
8
BLACK
6
CONTINUOUS
10
111.015
20
-89.7311
11
109.279
21
-91.4674
0
LINE
8
BLACK
6
CONTINUOUS
10
109.279
20
-91.4674
11
109.26
21
-91.4903
0
LINE
8
BLACK
6
CONTINUOUS
10
109.26
20
-91.4903
11
109.169
21
-91.5653
0
LINE
8
BLACK
6
CONTINUOUS
10
109.169
20
-91.5653
11
109.065
21
-91.621
0
LINE
8
BLACK
6
CONTINUOUS
10
109.065
20
-91.621
11
108.952
21
-91.6553
0
LINE
8
BLACK
6
CONTINUOUS
10
108.952
20
-91.6553
11
108.863
21
-91.664
0
LINE
8
BLACK
6
CONTINUOUS
10
108.863
20
-91.664
11
108.834
21
-91.6669
0
LINE
8
BLACK
6
CONTINUOUS
10
108.834
20
-91.6669
11
108.805
21
-91.664
0
LINE
8
BLACK
6
CONTINUOUS
10
108.805
20
-91.664
11
92.5545
21
-91.664
0
LINE
8
BLACK
6
CONTINUOUS
10
92.5545
20
-91.664
11
90.135
21
-94.0835
0
LINE
8
BLACK
6
CONTINUOUS
10
90.135
20
-94.0835
11
90.135
21
-107.136
0
LINE
8
BLACK
6
CONTINUOUS
10
90.135
20
-107.136
11
90.8679
21
-106.404
0
LINE
8
BLACK
6
CONTINUOUS
10
90.8679
20
-106.404
11
90.8867
21
-106.381
0
LINE
8
BLACK
6
CONTINUOUS
10
90.8867
20
-106.381
11
90.9096
21
-106.362
0
LINE
8
BLACK
6
CONTINUOUS
10
90.9096
20
-106.362
11
90.9096
21
-106.362
0
LINE
8
BLACK
6
CONTINUOUS
10
90.9096
20
-106.362
11
90.978
21
-106.306
0
LINE
8
BLACK
6
CONTINUOUS
10
90.978
20
-106.306
11
91.0823
21
-106.25
0
LINE
8
BLACK
6
CONTINUOUS
10
91.0823
20
-106.25
11
91.1954
21
-106.216
0
LINE
8
BLACK
6
CONTINUOUS
10
91.1954
20
-106.216
11
91.313
21
-106.204
0
LINE
8
BLACK
6
CONTINUOUS
10
91.313
20
-106.204
11
91.4306
21
-106.216
0
LINE
8
BLACK
6
CONTINUOUS
10
91.4306
20
-106.216
11
91.5437
21
-106.25
0
LINE
8
BLACK
6
CONTINUOUS
10
66.02
20
-149.436
11
63.52
21
-149.436
0
LINE
8
BLACK
6
CONTINUOUS
10
63.52
20
-149.436
11
63.52
21
-147.236
0
LINE
8
BLACK
6
CONTINUOUS
10
63.52
20
-147.236
11
66.02
21
-147.236
0
LINE
8
BLACK
6
CONTINUOUS
10
66.02
20
-147.236
11
66.02
21
-149.436
0
LINE
8
BLACK
6
CONTINUOUS
10
84.158
20
-123.02
11
83.558
21
-123.02
0
LINE
8
BLACK
6
CONTINUOUS
10
83.558
20
-123.02
11
83.558
21
-137.207
0
LINE
8
BLACK
6
CONTINUOUS
10
83.558
20
-137.207
11
84.5351
21
-138.184
0
LINE
8
BLACK
6
CONTINUOUS
10
84.5351
20
-138.184
11
89.9836
21
-138.184
0
LINE
8
BLACK
6
CONTINUOUS
10
89.9836
20
-138.184
11
90.0081
21
-138.182
0
LINE
8
BLACK
6
CONTINUOUS
10
90.0081
20
-138.182
11
90.0327
21
-138.184
0
LINE
8
BLACK
6
CONTINUOUS
10
90.0327
20
-138.184
11
90.1062
21
-138.191
0
LINE
8
BLACK
6
CONTINUOUS
10
90.1062
20
-138.191
11
90.2004
21
-138.22
0
LINE
8
BLACK
6
CONTINUOUS
10
90.2004
20
-138.22
11
90.2873
21
-138.266
0
LINE
8
BLACK
6
CONTINUOUS
10
90.2873
20
-138.266
11
90.3634
21
-138.329
0
LINE
8
BLACK
6
CONTINUOUS
10
90.3634
20
-138.329
11
90.3791
21
-138.348
0
LINE
8
BLACK
6
CONTINUOUS
10
90.3791
20
-138.348
11
97.4672
21
-145.436
0
LINE
8
BLACK
6
CONTINUOUS
10
97.4672
20
-145.436
11
107.984
21
-145.436
0
LINE
8
BLACK
6
CONTINUOUS
10
107.984
20
-145.436
11
108.009
21
-145.434
0
LINE
8
BLACK
6
CONTINUOUS
10
108.009
20
-145.434
11
108.034
21
-145.436
0
LINE
8
BLACK
6
CONTINUOUS
10
108.034
20
-145.436
11
108.107
21
-145.443
0
LINE
8
BLACK
6
CONTINUOUS
10
108.107
20
-145.443
11
108.201
21
-145.472
0
LINE
8
BLACK
6
CONTINUOUS
10
108.201
20
-145.472
11
108.288
21
-145.518
0
LINE
8
BLACK
6
CONTINUOUS
10
108.288
20
-145.518
11
108.364
21
-145.581
0
LINE
8
BLACK
6
CONTINUOUS
10
108.364
20
-145.581
11
108.38
21
-145.6
0
LINE
8
BLACK
6
CONTINUOUS
10
108.38
20
-145.6
11
110.616
21
-147.836
0
LINE
8
BLACK
6
CONTINUOUS
10
110.616
20
-147.836
11
111.78
21
-147.836
0
LINE
8
BLACK
6
CONTINUOUS
10
111.78
20
-147.836
11
111.78
21
-147.236
0
LINE
8
BLACK
6
CONTINUOUS
10
111.78
20
-147.236
11
114.28
21
-147.236
0
LINE
8
BLACK
6
CONTINUOUS
10
114.28
20
-147.236
11
114.28
21
-149.436
0
LINE
8
BLACK
6
CONTINUOUS
10
114.28
20
-149.436
11
111.78
21
-149.436
0
LINE
8
BLACK
6
CONTINUOUS
10
111.78
20
-149.436
11
111.78
21
-148.836
0
LINE
8
BLACK
6
CONTINUOUS
10
111.78
20
-148.836
11
110.434
21
-148.836
0
LINE
8
BLACK
6
CONTINUOUS
10
110.434
20
-148.836
11
110.409
21
-148.838
0
LINE
8
BLACK
6
CONTINUOUS
10
110.409
20
-148.838
11
110.311
21
-148.829
0
LINE
8
BLACK
6
CONTINUOUS
10
110.311
20
-148.829
11
110.311
21
-148.829
0
LINE
8
BLACK
6
CONTINUOUS
10
110.311
20
-148.829
11
110.217
21
-148.8
0
LINE
8
BLACK
6
CONTINUOUS
10
110.217
20
-148.8
11
110.13
21
-148.754
0
LINE
8
BLACK
6
CONTINUOUS
10
110.13
20
-148.754
11
110.054
21
-148.691
0
LINE
8
BLACK
6
CONTINUOUS
10
110.054
20
-148.691
11
110.038
21
-148.672
0
LINE
8
BLACK
6
CONTINUOUS
10
110.038
20
-148.672
11
107.802
21
-146.436
0
LINE
8
BLACK
6
CONTINUOUS
10
107.802
20
-146.436
11
97.2847
21
-146.436
0
LINE
8
BLACK
6
CONTINUOUS
10
97.2847
20
-146.436
11
97.2601
21
-146.438
0
LINE
8
BLACK
6
CONTINUOUS
10
97.2601
20
-146.438
11
97.2356
21
-146.436
0
LINE
8
BLACK
6
CONTINUOUS
10
97.2356
20
-146.436
11
97.2356
21
-146.436
0
LINE
8
BLACK
6
CONTINUOUS
10
97.2356
20
-146.436
11
97.1621
21
-146.429
0
LINE
8
BLACK
6
CONTINUOUS
10
97.1621
20
-146.429
11
97.0679
21
-146.4
0
LINE
8
BLACK
6
CONTINUOUS
10
97.0679
20
-146.4
11
96.981
21
-146.354
0
LINE
8
BLACK
6
CONTINUOUS
10
96.981
20
-146.354
11
96.9049
21
-146.291
0
LINE
8
BLACK
6
CONTINUOUS
10
96.9049
20
-146.291
11
96.8892
21
-146.272
0
LINE
8
BLACK
6
CONTINUOUS
10
96.8892
20
-146.272
11
89.801
21
-139.184
0
LINE
8
BLACK
6
CONTINUOUS
10
89.801
20
-139.184
11
84.3526
21
-139.184
0
LINE
8
BLACK
6
CONTINUOUS
10
84.3526
20
-139.184
11
84.328
21
-139.186
0
LINE
8
BLACK
6
CONTINUOUS
10
84.328
20
-139.186
11
84.3034
21
-139.184
0
LINE
8
BLACK
6
CONTINUOUS
10
84.3034
20
-139.184
11
84.3034
21
-139.184
0
LINE
8
BLACK
6
CONTINUOUS
10
84.3034
20
-139.184
11
84.23
21
-139.177
0
LINE
8
BLACK
6
CONTINUOUS
10
84.23
20
-139.177
11
84.1357
21
-139.148
0
LINE
8
BLACK
6
CONTINUOUS
10
84.1357
20
-139.148
11
84.0489
21
-139.102
0
LINE
8
BLACK
6
CONTINUOUS
10
84.0489
20
-139.102
11
83.9727
21
-139.039
0
LINE
8
BLACK
6
CONTINUOUS
10
83.9727
20
-139.039
11
83.9571
21
-139.02
0
LINE
8
BLACK
6
CONTINUOUS
10
83.9571
20
-139.02
11
82.7218
21
-137.785
0
LINE
8
BLACK
6
CONTINUOUS
10
82.7218
20
-137.785
11
82.7027
21
-137.769
0
LINE
8
BLACK
6
CONTINUOUS
10
82.7027
20
-137.769
11
82.6403
21
-137.693
0
LINE
8
BLACK
6
CONTINUOUS
10
82.6403
20
-137.693
11
82.5938
21
-137.606
0
LINE
8
BLACK
6
CONTINUOUS
10
82.5938
20
-137.606
11
82.5652
21
-137.512
0
LINE
8
BLACK
6
CONTINUOUS
10
82.5652
20
-137.512
11
82.558
21
-137.439
0
LINE
8
BLACK
6
CONTINUOUS
10
82.558
20
-137.439
11
82.5556
21
-137.414
0
LINE
8
BLACK
6
CONTINUOUS
10
82.5556
20
-137.414
11
82.558
21
-137.389
0
LINE
8
BLACK
6
CONTINUOUS
10
82.558
20
-137.389
11
82.558
21
-123.02
0
LINE
8
BLACK
6
CONTINUOUS
10
82.558
20
-123.02
11
81.958
21
-123.02
0
LINE
8
BLACK
6
CONTINUOUS
10
81.958
20
-123.02
11
81.958
21
-120.82
0
LINE
8
BLACK
6
CONTINUOUS
10
81.958
20
-120.82
11
84.158
21
-120.82
0
LINE
8
BLACK
6
CONTINUOUS
10
84.158
20
-120.82
11
84.158
21
-123.02
0
LINE
8
BLACK
6
CONTINUOUS
10
66.02
20
-146.896
11
63.52
21
-146.896
0
LINE
8
BLACK
6
CONTINUOUS
10
63.52
20
-146.896
11
63.52
21
-144.696
0
LINE
8
BLACK
6
CONTINUOUS
10
63.52
20
-144.696
11
66.02
21
-144.696
0
LINE
8
BLACK
6
CONTINUOUS
10
66.02
20
-144.696
11
66.02
21
-146.896
0
LINE
8
BLACK
6
CONTINUOUS
10
86.698
20
-123.02
11
86.098
21
-123.02
0
LINE
8
BLACK
6
CONTINUOUS
10
86.098
20
-123.02
11
86.098
21
-136.191
0
LINE
8
BLACK
6
CONTINUOUS
10
86.098
20
-136.191
11
86.8911
21
-136.984
0
LINE
8
BLACK
6
CONTINUOUS
10
86.8911
20
-136.984
11
90.4806
21
-136.984
0
LINE
8
BLACK
6
CONTINUOUS
10
90.4806
20
-136.984
11
90.5052
21
-136.982
0
LINE
8
BLACK
6
CONTINUOUS
10
90.5052
20
-136.982
11
90.5298
21
-136.984
0
LINE
8
BLACK
6
CONTINUOUS
10
90.5298
20
-136.984
11
90.6032
21
-136.991
0
LINE
8
BLACK
6
CONTINUOUS
10
90.6032
20
-136.991
11
90.6975
21
-137.02
0
LINE
8
BLACK
6
CONTINUOUS
10
90.6975
20
-137.02
11
90.7843
21
-137.066
0
LINE
8
BLACK
6
CONTINUOUS
10
90.7843
20
-137.066
11
90.8605
21
-137.129
0
LINE
8
BLACK
6
CONTINUOUS
10
90.8605
20
-137.129
11
90.8761
21
-137.148
0
LINE
8
BLACK
6
CONTINUOUS
10
90.8761
20
-137.148
11
97.9643
21
-144.236
0
LINE
8
BLACK
6
CONTINUOUS
10
97.9643
20
-144.236
11
108.482
21
-144.236
0
LINE
8
BLACK
6
CONTINUOUS
10
108.482
20
-144.236
11
108.506
21
-144.234
0
LINE
8
BLACK
6
CONTINUOUS
10
108.506
20
-144.234
11
108.531
21
-144.236
0
LINE
8
BLACK
6
CONTINUOUS
10
108.531
20
-144.236
11
108.604
21
-144.243
0
LINE
8
BLACK
6
CONTINUOUS
10
108.604
20
-144.243
11
108.698
21
-144.272
0
LINE
8
BLACK
6
CONTINUOUS
10
108.698
20
-144.272
11
108.785
21
-144.318
0
LINE
8
BLACK
6
CONTINUOUS
10
108.785
20
-144.318
11
108.861
21
-144.381
0
LINE
8
BLACK
6
CONTINUOUS
10
108.861
20
-144.381
11
108.877
21
-144.4
0
LINE
8
BLACK
6
CONTINUOUS
10
108.877
20
-144.4
11
109.773
21
-145.296
0
LINE
8
BLACK
6
CONTINUOUS
10
109.773
20
-145.296
11
111.78
21
-145.296
0
LINE
8
BLACK
6
CONTINUOUS
10
111.78
20
-145.296
11
111.78
21
-144.696
0
LINE
8
BLACK
6
CONTINUOUS
10
111.78
20
-144.696
11
114.28
21
-144.696
0
LINE
8
BLACK
6
CONTINUOUS
10
114.28
20
-144.696
11
114.28
21
-146.896
0
LINE
8
BLACK
6
CONTINUOUS
10
114.28
20
-146.896
11
111.78
21
-146.896
0
LINE
8
BLACK
6
CONTINUOUS
10
111.78
20
-146.896
11
111.78
21
-146.296
0
LINE
8
BLACK
6
CONTINUOUS
10
111.78
20
-146.296
11
109.591
21
-146.296
0
LINE
8
BLACK
6
CONTINUOUS
10
109.591
20
-146.296
11
109.566
21
-146.298
0
LINE
8
BLACK
6
CONTINUOUS
10
109.566
20
-146.298
11
109.468
21
-146.289
0
LINE
8
BLACK
6
CONTINUOUS
10
109.468
20
-146.289
11
109.374
21
-146.26
0
LINE
8
BLACK
6
CONTINUOUS
10
109.374
20
-146.26
11
109.287
21
-146.214
0
LINE
8
BLACK
6
CONTINUOUS
10
109.287
20
-146.214
11
109.211
21
-146.151
0
LINE
8
BLACK
6
CONTINUOUS
10
109.211
20
-146.151
11
109.195
21
-146.132
0
LINE
8
BLACK
6
CONTINUOUS
10
109.195
20
-146.132
11
108.299
21
-145.236
0
LINE
8
BLACK
6
CONTINUOUS
10
108.299
20
-145.236
11
97.7817
21
-145.236
0
LINE
8
BLACK
6
CONTINUOUS
10
97.7817
20
-145.236
11
97.7572
21
-145.238
0
LINE
8
BLACK
6
CONTINUOUS
10
97.7572
20
-145.238
11
97.7326
21
-145.236
0
LINE
8
BLACK
6
CONTINUOUS
10
97.7326
20
-145.236
11
97.7326
21
-145.236
0
LINE
8
BLACK
6
CONTINUOUS
10
97.7326
20
-145.236
11
97.6592
21
-145.229
0
LINE
8
BLACK
6
CONTINUOUS
10
97.6592
20
-145.229
11
97.5649
21
-145.2
0
LINE
8
BLACK
6
CONTINUOUS
10
97.5649
20
-145.2
11
97.4781
21
-145.154
0
LINE
8
BLACK
6
CONTINUOUS
10
97.4781
20
-145.154
11
97.4019
21
-145.091
0
LINE
8
BLACK
6
CONTINUOUS
10
97.4019
20
-145.091
11
97.3863
21
-145.072
0
LINE
8
BLACK
6
CONTINUOUS
10
97.3863
20
-145.072
11
90.2981
21
-137.984
0
LINE
8
BLACK
6
CONTINUOUS
10
90.2981
20
-137.984
11
86.7086
21
-137.984
0
LINE
8
BLACK
6
CONTINUOUS
10
86.7086
20
-137.984
11
86.684
21
-137.986
0
LINE
8
BLACK
6
CONTINUOUS
10
86.684
20
-137.986
11
86.586
21
-137.977
0
LINE
8
BLACK
6
CONTINUOUS
10
86.586
20
-137.977
11
86.4917
21
-137.948
0
LINE
8
BLACK
6
CONTINUOUS
10
86.4917
20
-137.948
11
86.4049
21
-137.902
0
LINE
8
BLACK
6
CONTINUOUS
10
86.4049
20
-137.902
11
86.3287
21
-137.839
0
LINE
8
BLACK
6
CONTINUOUS
10
86.3287
20
-137.839
11
86.3131
21
-137.82
0
LINE
8
BLACK
6
CONTINUOUS
10
86.3131
20
-137.82
11
85.2618
21
-136.769
0
LINE
8
BLACK
6
CONTINUOUS
10
85.2618
20
-136.769
11
85.2427
21
-136.753
0
LINE
8
BLACK
6
CONTINUOUS
10
85.2427
20
-136.753
11
85.1803
21
-136.677
0
LINE
8
BLACK
6
CONTINUOUS
10
85.1803
20
-136.677
11
85.1338
21
-136.59
0
LINE
8
BLACK
6
CONTINUOUS
10
85.1338
20
-136.59
11
85.1052
21
-136.496
0
LINE
8
BLACK
6
CONTINUOUS
10
85.1052
20
-136.496
11
85.103
21
-136.473
0
LINE
8
BLACK
6
CONTINUOUS
10
85.103
20
-136.473
11
85.0956
21
-136.398
0
LINE
8
BLACK
6
CONTINUOUS
10
85.0956
20
-136.398
11
85.098
21
-136.373
0
LINE
8
BLACK
6
CONTINUOUS
10
85.098
20
-136.373
11
85.098
21
-123.02
0
LINE
8
BLACK
6
CONTINUOUS
10
85.098
20
-123.02
11
84.498
21
-123.02
0
LINE
8
BLACK
6
CONTINUOUS
10
84.498
20
-123.02
11
84.498
21
-120.82
0
LINE
8
BLACK
6
CONTINUOUS
10
84.498
20
-120.82
11
86.698
21
-120.82
0
LINE
8
BLACK
6
CONTINUOUS
10
86.698
20
-120.82
11
86.698
21
-123.02
0
LINE
8
BLACK
6
CONTINUOUS
10
103.97
20
-134.528
11
105.141
21
-134.528
0
LINE
8
BLACK
6
CONTINUOUS
10
105.141
20
-134.528
11
105.17
21
-134.525
0
LINE
8
BLACK
6
CONTINUOUS
10
105.17
20
-134.525
11
105.199
21
-134.528
0
LINE
8
BLACK
6
CONTINUOUS
10
105.199
20
-134.528
11
105.288
21
-134.537
0
LINE
8
BLACK
6
CONTINUOUS
10
105.288
20
-134.537
11
105.401
21
-134.571
0
LINE
8
BLACK
6
CONTINUOUS
10
105.401
20
-134.571
11
105.505
21
-134.627
0
LINE
8
BLACK
6
CONTINUOUS
10
105.505
20
-134.627
11
105.596
21
-134.702
0
LINE
8
BLACK
6
CONTINUOUS
10
105.596
20
-134.702
11
105.615
21
-134.725
0
LINE
8
BLACK
6
CONTINUOUS
10
105.615
20
-134.725
11
108.223
21
-137.333
0
LINE
8
BLACK
6
CONTINUOUS
10
108.223
20
-137.333
11
108.246
21
-137.352
0
LINE
8
BLACK
6
CONTINUOUS
10
108.246
20
-137.352
11
108.321
21
-137.443
0
LINE
8
BLACK
6
CONTINUOUS
10
108.321
20
-137.443
11
108.358
21
-137.511
0
LINE
8
BLACK
6
CONTINUOUS
10
108.358
20
-137.511
11
108.377
21
-137.547
0
LINE
8
BLACK
6
CONTINUOUS
10
108.377
20
-137.547
11
108.411
21
-137.66
0
LINE
8
BLACK
6
CONTINUOUS
10
108.411
20
-137.66
11
108.423
21
-137.778
0
LINE
8
BLACK
6
CONTINUOUS
10
108.423
20
-137.778
11
108.42
21
-137.807
0
LINE
8
BLACK
6
CONTINUOUS
10
108.42
20
-137.807
11
108.42
21
-140.247
0
LINE
8
BLACK
6
CONTINUOUS
10
108.42
20
-140.247
11
110.829
21
-142.656
0
LINE
8
BLACK
6
CONTINUOUS
10
110.829
20
-142.656
11
111.78
21
-142.656
0
LINE
8
BLACK
6
CONTINUOUS
10
111.78
20
-142.656
11
111.78
21
-142.156
0
LINE
8
BLACK
6
CONTINUOUS
10
111.78
20
-142.156
11
114.28
21
-142.156
0
LINE
8
BLACK
6
CONTINUOUS
10
114.28
20
-142.156
11
114.28
21
-144.356
0
LINE
8
BLACK
6
CONTINUOUS
10
114.28
20
-144.356
11
111.78
21
-144.356
0
LINE
8
BLACK
6
CONTINUOUS
10
111.78
20
-144.356
11
111.78
21
-143.856
0
LINE
8
BLACK
6
CONTINUOUS
10
111.78
20
-143.856
11
110.609
21
-143.856
0
LINE
8
BLACK
6
CONTINUOUS
10
110.609
20
-143.856
11
110.58
21
-143.859
0
LINE
8
BLACK
6
CONTINUOUS
10
110.58
20
-143.859
11
110.462
21
-143.847
0
LINE
8
BLACK
6
CONTINUOUS
10
110.462
20
-143.847
11
110.349
21
-143.813
0
LINE
8
BLACK
6
CONTINUOUS
10
110.349
20
-143.813
11
110.245
21
-143.757
0
LINE
8
BLACK
6
CONTINUOUS
10
110.245
20
-143.757
11
110.154
21
-143.682
0
LINE
8
BLACK
6
CONTINUOUS
10
110.154
20
-143.682
11
110.135
21
-143.659
0
LINE
8
BLACK
6
CONTINUOUS
10
110.135
20
-143.659
11
107.417
21
-140.941
0
LINE
8
BLACK
6
CONTINUOUS
10
107.417
20
-140.941
11
107.394
21
-140.922
0
LINE
8
BLACK
6
CONTINUOUS
10
107.394
20
-140.922
11
107.319
21
-140.831
0
LINE
8
BLACK
6
CONTINUOUS
10
107.319
20
-140.831
11
107.263
21
-140.727
0
LINE
8
BLACK
6
CONTINUOUS
10
107.263
20
-140.727
11
107.26
21
-140.716
0
LINE
8
BLACK
6
CONTINUOUS
10
107.26
20
-140.716
11
107.229
21
-140.614
0
LINE
8
BLACK
6
CONTINUOUS
10
107.229
20
-140.614
11
107.217
21
-140.496
0
LINE
8
BLACK
6
CONTINUOUS
10
107.217
20
-140.496
11
107.22
21
-140.467
0
LINE
8
BLACK
6
CONTINUOUS
10
107.22
20
-140.467
11
107.22
21
-138.027
0
LINE
8
BLACK
6
CONTINUOUS
10
107.22
20
-138.027
11
104.921
21
-135.728
0
LINE
8
BLACK
6
CONTINUOUS
10
104.921
20
-135.728
11
103.97
21
-135.728
0
LINE
8
BLACK
6
CONTINUOUS
10
103.97
20
-135.728
11
103.97
21
-136.228
0
LINE
8
BLACK
6
CONTINUOUS
10
103.97
20
-136.228
11
101.77
21
-136.228
0
LINE
8
BLACK
6
CONTINUOUS
10
101.77
20
-136.228
11
101.77
21
-134.028
0
LINE
8
BLACK
6
CONTINUOUS
10
101.77
20
-134.028
11
103.97
21
-134.028
0
LINE
8
BLACK
6
CONTINUOUS
10
103.97
20
-134.028
11
103.97
21
-134.528
0
LINE
8
BLACK
6
CONTINUOUS
10
66.02
20
-144.356
11
63.52
21
-144.356
0
LINE
8
BLACK
6
CONTINUOUS
10
63.52
20
-144.356
11
63.52
21
-142.156
0
LINE
8
BLACK
6
CONTINUOUS
10
63.52
20
-142.156
11
66.02
21
-142.156
0
LINE
8
BLACK
6
CONTINUOUS
10
66.02
20
-142.156
11
66.02
21
-144.356
0
LINE
8
BLACK
6
CONTINUOUS
10
103.97
20
-131.988
11
106.905
21
-131.988
0
LINE
8
BLACK
6
CONTINUOUS
10
106.905
20
-131.988
11
106.934
21
-131.985
0
LINE
8
BLACK
6
CONTINUOUS
10
106.934
20
-131.985
11
106.963
21
-131.988
0
LINE
8
BLACK
6
CONTINUOUS
10
106.963
20
-131.988
11
107.052
21
-131.997
0
LINE
8
BLACK
6
CONTINUOUS
10
107.052
20
-131.997
11
107.165
21
-132.031
0
LINE
8
BLACK
6
CONTINUOUS
10
107.165
20
-132.031
11
107.269
21
-132.087
0
LINE
8
BLACK
6
CONTINUOUS
10
107.269
20
-132.087
11
107.36
21
-132.162
0
LINE
8
BLACK
6
CONTINUOUS
10
107.36
20
-132.162
11
107.379
21
-132.185
0
LINE
8
BLACK
6
CONTINUOUS
10
107.379
20
-132.185
11
109.623
21
-134.429
0
LINE
8
BLACK
6
CONTINUOUS
10
109.623
20
-134.429
11
109.646
21
-134.448
0
LINE
8
BLACK
6
CONTINUOUS
10
109.646
20
-134.448
11
109.721
21
-134.539
0
LINE
8
BLACK
6
CONTINUOUS
10
109.721
20
-134.539
11
109.777
21
-134.643
0
LINE
8
BLACK
6
CONTINUOUS
10
109.777
20
-134.643
11
109.811
21
-134.756
0
LINE
8
BLACK
6
CONTINUOUS
10
109.811
20
-134.756
11
109.823
21
-134.874
0
LINE
8
BLACK
6
CONTINUOUS
10
109.823
20
-134.874
11
109.82
21
-134.903
0
LINE
8
BLACK
6
CONTINUOUS
10
109.82
20
-134.903
11
109.82
21
-139.197
0
LINE
8
BLACK
6
CONTINUOUS
10
109.82
20
-139.197
11
110.739
21
-140.116
0
LINE
8
BLACK
6
CONTINUOUS
10
110.739
20
-140.116
11
111.78
21
-140.116
0
LINE
8
BLACK
6
CONTINUOUS
10
111.78
20
-140.116
11
111.78
21
-139.616
0
LINE
8
BLACK
6
CONTINUOUS
10
111.78
20
-139.616
11
114.28
21
-139.616
0
LINE
8
BLACK
6
CONTINUOUS
10
114.28
20
-139.616
11
114.28
21
-141.816
0
LINE
8
BLACK
6
CONTINUOUS
10
114.28
20
-141.816
11
111.78
21
-141.816
0
LINE
8
BLACK
6
CONTINUOUS
10
111.78
20
-141.816
11
111.78
21
-141.316
0
LINE
8
BLACK
6
CONTINUOUS
10
111.78
20
-141.316
11
110.519
21
-141.316
0
LINE
8
BLACK
6
CONTINUOUS
10
110.519
20
-141.316
11
110.49
21
-141.319
0
LINE
8
BLACK
6
CONTINUOUS
10
110.49
20
-141.319
11
110.372
21
-141.307
0
LINE
8
BLACK
6
CONTINUOUS
10
110.372
20
-141.307
11
110.338
21
-141.297
0
LINE
8
BLACK
6
CONTINUOUS
10
110.338
20
-141.297
11
110.259
21
-141.273
0
LINE
8
BLACK
6
CONTINUOUS
10
110.259
20
-141.273
11
110.155
21
-141.217
0
LINE
8
BLACK
6
CONTINUOUS
10
110.155
20
-141.217
11
110.064
21
-141.142
0
LINE
8
BLACK
6
CONTINUOUS
10
110.064
20
-141.142
11
110.045
21
-141.119
0
LINE
8
BLACK
6
CONTINUOUS
10
110.045
20
-141.119
11
108.817
21
-139.891
0
LINE
8
BLACK
6
CONTINUOUS
10
108.817
20
-139.891
11
108.794
21
-139.872
0
LINE
8
BLACK
6
CONTINUOUS
10
108.794
20
-139.872
11
108.719
21
-139.781
0
LINE
8
BLACK
6
CONTINUOUS
10
108.719
20
-139.781
11
108.663
21
-139.677
0
LINE
8
BLACK
6
CONTINUOUS
10
108.663
20
-139.677
11
108.656
21
-139.653
0
LINE
8
BLACK
6
CONTINUOUS
10
108.656
20
-139.653
11
108.629
21
-139.564
0
LINE
8
BLACK
6
CONTINUOUS
10
108.629
20
-139.564
11
108.617
21
-139.446
0
LINE
8
BLACK
6
CONTINUOUS
10
108.617
20
-139.446
11
108.62
21
-139.417
0
LINE
8
BLACK
6
CONTINUOUS
10
108.62
20
-139.417
11
108.62
21
-135.123
0
LINE
8
BLACK
6
CONTINUOUS
10
108.62
20
-135.123
11
106.685
21
-133.188
0
LINE
8
BLACK
6
CONTINUOUS
10
106.685
20
-133.188
11
103.97
21
-133.188
0
LINE
8
BLACK
6
CONTINUOUS
10
103.97
20
-133.188
11
103.97
21
-133.688
0
LINE
8
BLACK
6
CONTINUOUS
10
103.97
20
-133.688
11
101.77
21
-133.688
0
LINE
8
BLACK
6
CONTINUOUS
10
101.77
20
-133.688
11
101.77
21
-131.488
0
LINE
8
BLACK
6
CONTINUOUS
10
101.77
20
-131.488
11
103.97
21
-131.488
0
LINE
8
BLACK
6
CONTINUOUS
10
103.97
20
-131.488
11
103.97
21
-131.988
0
LINE
8
BLACK
6
CONTINUOUS
10
66.02
20
-141.816
11
63.52
21
-141.816
0
LINE
8
BLACK
6
CONTINUOUS
10
63.52
20
-141.816
11
63.52
21
-139.616
0
LINE
8
BLACK
6
CONTINUOUS
10
63.52
20
-139.616
11
66.02
21
-139.616
0
LINE
8
BLACK
6
CONTINUOUS
10
66.02
20
-139.616
11
66.02
21
-141.816
0
LINE
8
BLACK
6
CONTINUOUS
10
114.28
20
-139.276
11
111.78
21
-139.276
0
LINE
8
BLACK
6
CONTINUOUS
10
111.78
20
-139.276
11
111.78
21
-137.076
0
LINE
8
BLACK
6
CONTINUOUS
10
111.78
20
-137.076
11
114.28
21
-137.076
0
LINE
8
BLACK
6
CONTINUOUS
10
114.28
20
-137.076
11
114.28
21
-139.276
0
LINE
8
BLACK
6
CONTINUOUS
10
66.02
20
-139.276
11
63.52
21
-139.276
0
LINE
8
BLACK
6
CONTINUOUS
10
63.52
20
-139.276
11
63.52
21
-137.076
0
LINE
8
BLACK
6
CONTINUOUS
10
63.52
20
-137.076
11
66.02
21
-137.076
0
LINE
8
BLACK
6
CONTINUOUS
10
66.02
20
-137.076
11
66.02
21
-139.276
0
LINE
8
BLACK
6
CONTINUOUS
10
66.02
20
-136.736
11
63.52
21
-136.736
0
LINE
8
BLACK
6
CONTINUOUS
10
63.52
20
-136.736
11
63.52
21
-134.536
0
LINE
8
BLACK
6
CONTINUOUS
10
63.52
20
-134.536
11
66.02
21
-134.536
0
LINE
8
BLACK
6
CONTINUOUS
10
66.02
20
-134.536
11
66.02
21
-136.736
0
LINE
8
BLACK
6
CONTINUOUS
10
114.28
20
-136.736
11
111.78
21
-136.736
0
LINE
8
BLACK
6
CONTINUOUS
10
111.78
20
-136.736
11
111.78
21
-134.536
0
LINE
8
BLACK
6
CONTINUOUS
10
111.78
20
-134.536
11
114.28
21
-134.536
0
LINE
8
BLACK
6
CONTINUOUS
10
114.28
20
-134.536
11
114.28
21
-136.736
0
LINE
8
BLACK
6
CONTINUOUS
10
114.28
20
-134.196
11
111.78
21
-134.196
0
LINE
8
BLACK
6
CONTINUOUS
10
111.78
20
-134.196
11
111.78
21
-131.996
0
LINE
8
BLACK
6
CONTINUOUS
10
111.78
20
-131.996
11
114.28
21
-131.996
0
LINE
8
BLACK
6
CONTINUOUS
10
114.28
20
-131.996
11
114.28
21
-134.196
0
LINE
8
BLACK
6
CONTINUOUS
10
114.28
20
-131.656
11
111.78
21
-131.656
0
LINE
8
BLACK
6
CONTINUOUS
10
111.78
20
-131.656
11
111.78
21
-129.456
0
LINE
8
BLACK
6
CONTINUOUS
10
111.78
20
-129.456
11
114.28
21
-129.456
0
LINE
8
BLACK
6
CONTINUOUS
10
114.28
20
-129.456
11
114.28
21
-131.656
0
LINE
8
BLACK
6
CONTINUOUS
10
66.02
20
-131.656
11
63.52
21
-131.656
0
LINE
8
BLACK
6
CONTINUOUS
10
63.52
20
-131.656
11
63.52
21
-129.456
0
LINE
8
BLACK
6
CONTINUOUS
10
63.52
20
-129.456
11
66.02
21
-129.456
0
LINE
8
BLACK
6
CONTINUOUS
10
66.02
20
-129.456
11
66.02
21
-131.656
0
LINE
8
BLACK
6
CONTINUOUS
10
66.02
20
-129.116
11
63.52
21
-129.116
0
LINE
8
BLACK
6
CONTINUOUS
10
63.52
20
-129.116
11
63.52
21
-126.916
0
LINE
8
BLACK
6
CONTINUOUS
10
63.52
20
-126.916
11
66.02
21
-126.916
0
LINE
8
BLACK
6
CONTINUOUS
10
66.02
20
-126.916
11
66.02
21
-129.116
0
LINE
8
BLACK
6
CONTINUOUS
10
66.02
20
-126.576
11
63.52
21
-126.576
0
LINE
8
BLACK
6
CONTINUOUS
10
63.52
20
-126.576
11
63.52
21
-124.376
0
LINE
8
BLACK
6
CONTINUOUS
10
63.52
20
-124.376
11
66.02
21
-124.376
0
LINE
8
BLACK
6
CONTINUOUS
10
66.02
20
-124.376
11
66.02
21
-126.576
0
LINE
8
BLACK
6
CONTINUOUS
10
114.28
20
-126.576
11
111.78
21
-126.576
0
LINE
8
BLACK
6
CONTINUOUS
10
111.78
20
-126.576
11
111.78
21
-124.376
0
LINE
8
BLACK
6
CONTINUOUS
10
111.78
20
-124.376
11
114.28
21
-124.376
0
LINE
8
BLACK
6
CONTINUOUS
10
114.28
20
-124.376
11
114.28
21
-126.576
0
LINE
8
BLACK
6
CONTINUOUS
10
114.28
20
-121.496
11
111.78
21
-121.496
0
LINE
8
BLACK
6
CONTINUOUS
10
111.78
20
-121.496
11
111.78
21
-121.245
0
LINE
8
BLACK
6
CONTINUOUS
10
111.78
20
-121.245
11
107.907
21
-125.117
0
LINE
8
BLACK
6
CONTINUOUS
10
107.907
20
-125.117
11
107.888
21
-125.14
0
LINE
8
BLACK
6
CONTINUOUS
10
107.888
20
-125.14
11
107.797
21
-125.215
0
LINE
8
BLACK
6
CONTINUOUS
10
107.797
20
-125.215
11
107.693
21
-125.271
0
LINE
8
BLACK
6
CONTINUOUS
10
107.693
20
-125.271
11
107.58
21
-125.305
0
LINE
8
BLACK
6
CONTINUOUS
10
107.58
20
-125.305
11
107.491
21
-125.314
0
LINE
8
BLACK
6
CONTINUOUS
10
107.491
20
-125.314
11
107.462
21
-125.317
0
LINE
8
BLACK
6
CONTINUOUS
10
107.462
20
-125.317
11
107.433
21
-125.314
0
LINE
8
BLACK
6
CONTINUOUS
10
107.433
20
-125.314
11
100.881
21
-125.314
0
LINE
8
BLACK
6
CONTINUOUS
10
100.881
20
-125.314
11
100.852
21
-125.317
0
LINE
8
BLACK
6
CONTINUOUS
10
100.852
20
-125.317
11
100.734
21
-125.305
0
LINE
8
BLACK
6
CONTINUOUS
10
100.734
20
-125.305
11
100.621
21
-125.271
0
LINE
8
BLACK
6
CONTINUOUS
10
100.621
20
-125.271
11
100.621
21
-125.271
0
LINE
8
BLACK
6
CONTINUOUS
10
100.621
20
-125.271
11
100.517
21
-125.215
0
LINE
8
BLACK
6
CONTINUOUS
10
100.517
20
-125.215
11
100.426
21
-125.14
0
LINE
8
BLACK
6
CONTINUOUS
10
100.426
20
-125.14
11
100.407
21
-125.117
0
LINE
8
BLACK
6
CONTINUOUS
10
100.407
20
-125.117
11
97.8095
21
-122.52
0
LINE
8
BLACK
6
CONTINUOUS
10
97.8095
20
-122.52
11
96.858
21
-122.52
0
LINE
8
BLACK
6
CONTINUOUS
10
96.858
20
-122.52
11
96.858
21
-123.02
0
LINE
8
BLACK
6
CONTINUOUS
10
96.858
20
-123.02
11
94.658
21
-123.02
0
LINE
8
BLACK
6
CONTINUOUS
10
94.658
20
-123.02
11
94.658
21
-122.673
0
LINE
8
BLACK
6
CONTINUOUS
10
94.658
20
-122.673
11
94.5697
21
-122.6
0
LINE
8
BLACK
6
CONTINUOUS
10
94.5697
20
-122.6
11
94.4947
21
-122.509
0
LINE
8
BLACK
6
CONTINUOUS
10
94.4947
20
-122.509
11
94.439
21
-122.405
0
LINE
8
BLACK
6
CONTINUOUS
10
94.439
20
-122.405
11
94.4047
21
-122.292
0
LINE
8
BLACK
6
CONTINUOUS
10
94.4047
20
-122.292
11
94.3931
21
-122.174
0
LINE
8
BLACK
6
CONTINUOUS
10
94.3931
20
-122.174
11
94.4047
21
-122.056
0
LINE
8
BLACK
6
CONTINUOUS
10
94.4047
20
-122.056
11
94.439
21
-121.943
0
LINE
8
BLACK
6
CONTINUOUS
10
94.439
20
-121.943
11
94.4947
21
-121.839
0
LINE
8
BLACK
6
CONTINUOUS
10
94.4947
20
-121.839
11
94.5509
21
-121.771
0
LINE
8
BLACK
6
CONTINUOUS
10
94.5509
20
-121.771
11
94.658
21
-121.663
0
LINE
8
BLACK
6
CONTINUOUS
10
94.658
20
-121.663
11
94.658
21
-120.82
0
LINE
8
BLACK
6
CONTINUOUS
10
94.658
20
-120.82
11
96.858
21
-120.82
0
LINE
8
BLACK
6
CONTINUOUS
10
96.858
20
-120.82
11
96.858
21
-121.32
0
LINE
8
BLACK
6
CONTINUOUS
10
96.858
20
-121.32
11
98.0285
21
-121.32
0
LINE
8
BLACK
6
CONTINUOUS
10
98.0285
20
-121.32
11
98.058
21
-121.317
0
LINE
8
BLACK
6
CONTINUOUS
10
98.058
20
-121.317
11
98.0875
21
-121.32
0
LINE
8
BLACK
6
CONTINUOUS
10
98.0875
20
-121.32
11
98.1756
21
-121.329
0
LINE
8
BLACK
6
CONTINUOUS
10
98.1756
20
-121.329
11
98.2887
21
-121.363
0
LINE
8
BLACK
6
CONTINUOUS
10
98.2887
20
-121.363
11
98.393
21
-121.419
0
LINE
8
BLACK
6
CONTINUOUS
10
98.393
20
-121.419
11
98.4843
21
-121.494
0
LINE
8
BLACK
6
CONTINUOUS
10
98.4843
20
-121.494
11
98.5031
21
-121.517
0
LINE
8
BLACK
6
CONTINUOUS
10
98.5031
20
-121.517
11
101.101
21
-124.114
0
LINE
8
BLACK
6
CONTINUOUS
10
101.101
20
-124.114
11
107.213
21
-124.114
0
LINE
8
BLACK
6
CONTINUOUS
10
107.213
20
-124.114
11
111.335
21
-119.993
0
LINE
8
BLACK
6
CONTINUOUS
10
111.335
20
-119.993
11
111.354
21
-119.97
0
LINE
8
BLACK
6
CONTINUOUS
10
111.354
20
-119.97
11
111.445
21
-119.895
0
LINE
8
BLACK
6
CONTINUOUS
10
111.445
20
-119.895
11
111.549
21
-119.839
0
LINE
8
BLACK
6
CONTINUOUS
10
111.549
20
-119.839
11
111.662
21
-119.805
0
LINE
8
BLACK
6
CONTINUOUS
10
111.662
20
-119.805
11
111.78
21
-119.793
0
LINE
8
BLACK
6
CONTINUOUS
10
111.78
20
-119.793
11
111.78
21
-119.793
0
LINE
8
BLACK
6
CONTINUOUS
10
111.78
20
-119.793
11
111.78
21
-119.296
0
LINE
8
BLACK
6
CONTINUOUS
10
111.78
20
-119.296
11
114.28
21
-119.296
0
LINE
8
BLACK
6
CONTINUOUS
10
114.28
20
-119.296
11
114.28
21
-121.496
0
LINE
8
BLACK
6
CONTINUOUS
10
114.28
20
-124.036
11
111.78
21
-124.036
0
LINE
8
BLACK
6
CONTINUOUS
10
111.78
20
-124.036
11
111.78
21
-121.836
0
LINE
8
BLACK
6
CONTINUOUS
10
111.78
20
-121.836
11
114.28
21
-121.836
0
LINE
8
BLACK
6
CONTINUOUS
10
114.28
20
-121.836
11
114.28
21
-124.036
0
LINE
8
BLACK
6
CONTINUOUS
10
66.02
20
-124.036
11
63.52
21
-124.036
0
LINE
8
BLACK
6
CONTINUOUS
10
63.52
20
-124.036
11
63.52
21
-121.836
0
LINE
8
BLACK
6
CONTINUOUS
10
63.52
20
-121.836
11
66.02
21
-121.836
0
LINE
8
BLACK
6
CONTINUOUS
10
66.02
20
-121.836
11
66.02
21
-124.036
0
LINE
8
BLACK
6
CONTINUOUS
10
93.0309
20
-111.464
11
93.231
21
-111.547
0
LINE
8
BLACK
6
CONTINUOUS
10
93.231
20
-111.547
11
93.4112
21
-111.668
0
LINE
8
BLACK
6
CONTINUOUS
10
93.4112
20
-111.668
11
93.5644
21
-111.821
0
LINE
8
BLACK
6
CONTINUOUS
10
93.5644
20
-111.821
11
93.6848
21
-112.001
0
LINE
8
BLACK
6
CONTINUOUS
10
93.6848
20
-112.001
11
93.7677
21
-112.201
0
LINE
8
BLACK
6
CONTINUOUS
10
93.7677
20
-112.201
11
93.81
21
-112.414
0
LINE
8
BLACK
6
CONTINUOUS
10
93.81
20
-112.414
11
93.81
21
-112.63
0
LINE
8
BLACK
6
CONTINUOUS
10
93.81
20
-112.63
11
93.7863
21
-112.75
0
LINE
8
BLACK
6
CONTINUOUS
10
93.7863
20
-112.75
11
94.2994
21
-113.263
0
LINE
8
BLACK
6
CONTINUOUS
10
94.2994
20
-113.263
11
94.3223
21
-113.282
0
LINE
8
BLACK
6
CONTINUOUS
10
94.3223
20
-113.282
11
94.3973
21
-113.373
0
LINE
8
BLACK
6
CONTINUOUS
10
94.3973
20
-113.373
11
94.4418
21
-113.456
0
LINE
8
BLACK
6
CONTINUOUS
10
94.4418
20
-113.456
11
94.453
21
-113.477
0
LINE
8
BLACK
6
CONTINUOUS
10
94.453
20
-113.477
11
94.4631
21
-113.511
0
LINE
8
BLACK
6
CONTINUOUS
10
94.4631
20
-113.511
11
102.024
21
-121.071
0
LINE
8
BLACK
6
CONTINUOUS
10
102.024
20
-121.071
11
102.024
21
-120.82
0
LINE
8
BLACK
6
CONTINUOUS
10
102.024
20
-120.82
11
104.224
21
-120.82
0
LINE
8
BLACK
6
CONTINUOUS
10
104.224
20
-120.82
11
104.224
21
-123.02
0
LINE
8
BLACK
6
CONTINUOUS
10
104.224
20
-123.02
11
102.024
21
-123.02
0
LINE
8
BLACK
6
CONTINUOUS
10
102.024
20
-123.02
11
102.024
21
-122.523
0
LINE
8
BLACK
6
CONTINUOUS
10
102.024
20
-122.523
11
102.024
21
-122.523
0
LINE
8
BLACK
6
CONTINUOUS
10
102.024
20
-122.523
11
101.906
21
-122.511
0
LINE
8
BLACK
6
CONTINUOUS
10
101.906
20
-122.511
11
101.793
21
-122.477
0
LINE
8
BLACK
6
CONTINUOUS
10
101.793
20
-122.477
11
101.757
21
-122.458
0
LINE
8
BLACK
6
CONTINUOUS
10
101.757
20
-122.458
11
101.689
21
-122.421
0
LINE
8
BLACK
6
CONTINUOUS
10
101.689
20
-122.421
11
101.598
21
-122.346
0
LINE
8
BLACK
6
CONTINUOUS
10
101.598
20
-122.346
11
101.579
21
-122.323
0
LINE
8
BLACK
6
CONTINUOUS
10
101.579
20
-122.323
11
93.4926
21
-114.237
0
LINE
8
BLACK
6
CONTINUOUS
10
93.4926
20
-114.237
11
93.4697
21
-114.218
0
LINE
8
BLACK
6
CONTINUOUS
10
93.4697
20
-114.218
11
93.3947
21
-114.127
0
LINE
8
BLACK
6
CONTINUOUS
10
93.3947
20
-114.127
11
93.339
21
-114.023
0
LINE
8
BLACK
6
CONTINUOUS
10
93.339
20
-114.023
11
93.3289
21
-113.989
0
LINE
8
BLACK
6
CONTINUOUS
10
93.3289
20
-113.989
11
92.9377
21
-113.598
0
LINE
8
BLACK
6
CONTINUOUS
10
92.9377
20
-113.598
11
92.8183
21
-113.622
0
LINE
8
BLACK
6
CONTINUOUS
10
92.8183
20
-113.622
11
92.6017
21
-113.622
0
LINE
8
BLACK
6
CONTINUOUS
10
92.6017
20
-113.622
11
92.3891
21
-113.58
0
LINE
8
BLACK
6
CONTINUOUS
10
92.3891
20
-113.58
11
92.189
21
-113.497
0
LINE
8
BLACK
6
CONTINUOUS
10
92.189
20
-113.497
11
92.0088
21
-113.376
0
LINE
8
BLACK
6
CONTINUOUS
10
92.0088
20
-113.376
11
91.8556
21
-113.223
0
LINE
8
BLACK
6
CONTINUOUS
10
91.8556
20
-113.223
11
91.7352
21
-113.043
0
LINE
8
BLACK
6
CONTINUOUS
10
91.7352
20
-113.043
11
91.6523
21
-112.843
0
LINE
8
BLACK
6
CONTINUOUS
10
91.6523
20
-112.843
11
91.61
21
-112.63
0
LINE
8
BLACK
6
CONTINUOUS
10
91.61
20
-112.63
11
91.61
21
-112.414
0
LINE
8
BLACK
6
CONTINUOUS
10
91.61
20
-112.414
11
91.6523
21
-112.201
0
LINE
8
BLACK
6
CONTINUOUS
10
91.6523
20
-112.201
11
91.7352
21
-112.001
0
LINE
8
BLACK
6
CONTINUOUS
10
91.7352
20
-112.001
11
91.8556
21
-111.821
0
LINE
8
BLACK
6
CONTINUOUS
10
91.8556
20
-111.821
11
92.0088
21
-111.668
0
LINE
8
BLACK
6
CONTINUOUS
10
92.0088
20
-111.668
11
92.189
21
-111.547
0
LINE
8
BLACK
6
CONTINUOUS
10
92.189
20
-111.547
11
92.3891
21
-111.464
0
LINE
8
BLACK
6
CONTINUOUS
10
92.3891
20
-111.464
11
92.6017
21
-111.422
0
LINE
8
BLACK
6
CONTINUOUS
10
92.6017
20
-111.422
11
92.8183
21
-111.422
0
LINE
8
BLACK
6
CONTINUOUS
10
92.8183
20
-111.422
11
93.0309
21
-111.464
0
LINE
8
BLACK
6
CONTINUOUS
10
94.318
20
-123.02
11
92.118
21
-123.02
0
LINE
8
BLACK
6
CONTINUOUS
10
92.118
20
-123.02
11
92.118
21
-120.82
0
LINE
8
BLACK
6
CONTINUOUS
10
92.118
20
-120.82
11
94.318
21
-120.82
0
LINE
8
BLACK
6
CONTINUOUS
10
94.318
20
-120.82
11
94.318
21
-123.02
0
LINE
8
BLACK
6
CONTINUOUS
10
91.778
20
-123.02
11
89.578
21
-123.02
0
LINE
8
BLACK
6
CONTINUOUS
10
89.578
20
-123.02
11
89.578
21
-120.82
0
LINE
8
BLACK
6
CONTINUOUS
10
89.578
20
-120.82
11
91.778
21
-120.82
0
LINE
8
BLACK
6
CONTINUOUS
10
91.778
20
-120.82
11
91.778
21
-123.02
0
LINE
8
BLACK
6
CONTINUOUS
10
89.238
20
-123.02
11
87.038
21
-123.02
0
LINE
8
BLACK
6
CONTINUOUS
10
87.038
20
-123.02
11
87.038
21
-120.82
0
LINE
8
BLACK
6
CONTINUOUS
10
87.038
20
-120.82
11
89.238
21
-120.82
0
LINE
8
BLACK
6
CONTINUOUS
10
89.238
20
-120.82
11
89.238
21
-123.02
0
LINE
8
BLACK
6
CONTINUOUS
10
66.02
20
-121.496
11
63.52
21
-121.496
0
LINE
8
BLACK
6
CONTINUOUS
10
63.52
20
-121.496
11
63.52
21
-119.296
0
LINE
8
BLACK
6
CONTINUOUS
10
63.52
20
-119.296
11
66.02
21
-119.296
0
LINE
8
BLACK
6
CONTINUOUS
10
66.02
20
-119.296
11
66.02
21
-121.496
0
LINE
8
BLACK
6
CONTINUOUS
10
114.28
20
-118.956
11
111.78
21
-118.956
0
LINE
8
BLACK
6
CONTINUOUS
10
111.78
20
-118.956
11
111.78
21
-118.705
0
LINE
8
BLACK
6
CONTINUOUS
10
111.78
20
-118.705
11
110.701
21
-119.783
0
LINE
8
BLACK
6
CONTINUOUS
10
110.701
20
-119.783
11
110.682
21
-119.806
0
LINE
8
BLACK
6
CONTINUOUS
10
110.682
20
-119.806
11
110.591
21
-119.881
0
LINE
8
BLACK
6
CONTINUOUS
10
110.591
20
-119.881
11
110.487
21
-119.937
0
LINE
8
BLACK
6
CONTINUOUS
10
110.487
20
-119.937
11
110.374
21
-119.971
0
LINE
8
BLACK
6
CONTINUOUS
10
110.374
20
-119.971
11
110.285
21
-119.98
0
LINE
8
BLACK
6
CONTINUOUS
10
110.285
20
-119.98
11
110.256
21
-119.983
0
LINE
8
BLACK
6
CONTINUOUS
10
110.256
20
-119.983
11
110.227
21
-119.98
0
LINE
8
BLACK
6
CONTINUOUS
10
110.227
20
-119.98
11
104.224
21
-119.98
0
LINE
8
BLACK
6
CONTINUOUS
10
104.224
20
-119.98
11
104.224
21
-120.48
0
LINE
8
BLACK
6
CONTINUOUS
10
104.224
20
-120.48
11
102.024
21
-120.48
0
LINE
8
BLACK
6
CONTINUOUS
10
102.024
20
-120.48
11
102.024
21
-118.28
0
LINE
8
BLACK
6
CONTINUOUS
10
102.024
20
-118.28
11
104.224
21
-118.28
0
LINE
8
BLACK
6
CONTINUOUS
10
104.224
20
-118.28
11
104.224
21
-118.78
0
LINE
8
BLACK
6
CONTINUOUS
10
104.224
20
-118.78
11
110.007
21
-118.78
0
LINE
8
BLACK
6
CONTINUOUS
10
110.007
20
-118.78
11
111.335
21
-117.453
0
LINE
8
BLACK
6
CONTINUOUS
10
111.335
20
-117.453
11
111.354
21
-117.43
0
LINE
8
BLACK
6
CONTINUOUS
10
111.354
20
-117.43
11
111.445
21
-117.355
0
LINE
8
BLACK
6
CONTINUOUS
10
111.445
20
-117.355
11
111.549
21
-117.299
0
LINE
8
BLACK
6
CONTINUOUS
10
111.549
20
-117.299
11
111.628
21
-117.275
0
LINE
8
BLACK
6
CONTINUOUS
10
111.628
20
-117.275
11
111.662
21
-117.265
0
LINE
8
BLACK
6
CONTINUOUS
10
111.662
20
-117.265
11
111.674
21
-117.264
0
LINE
8
BLACK
6
CONTINUOUS
10
111.674
20
-117.264
11
111.751
21
-117.256
0
LINE
8
BLACK
6
CONTINUOUS
10
111.751
20
-117.256
11
111.751
21
-117.256
0
LINE
8
BLACK
6
CONTINUOUS
10
111.751
20
-117.256
11
111.78
21
-117.253
0
LINE
8
BLACK
6
CONTINUOUS
10
111.78
20
-117.253
11
111.78
21
-117.253
0
LINE
8
BLACK
6
CONTINUOUS
10
111.78
20
-117.253
11
111.78
21
-116.756
0
LINE
8
BLACK
6
CONTINUOUS
10
111.78
20
-116.756
11
114.28
21
-116.756
0
LINE
8
BLACK
6
CONTINUOUS
10
114.28
20
-116.756
11
114.28
21
-118.956
0
LINE
8
BLACK
6
CONTINUOUS
10
66.02
20
-118.956
11
63.52
21
-118.956
0
LINE
8
BLACK
6
CONTINUOUS
10
63.52
20
-118.956
11
63.52
21
-116.756
0
LINE
8
BLACK
6
CONTINUOUS
10
63.52
20
-116.756
11
66.02
21
-116.756
0
LINE
8
BLACK
6
CONTINUOUS
10
66.02
20
-116.756
11
66.02
21
-118.956
0
LINE
8
BLACK
6
CONTINUOUS
10
114.28
20
-116.416
11
111.78
21
-116.416
0
LINE
8
BLACK
6
CONTINUOUS
10
111.78
20
-116.416
11
111.78
21
-116.165
0
LINE
8
BLACK
6
CONTINUOUS
10
111.78
20
-116.165
11
110.701
21
-117.243
0
LINE
8
BLACK
6
CONTINUOUS
10
110.701
20
-117.243
11
110.682
21
-117.266
0
LINE
8
BLACK
6
CONTINUOUS
10
110.682
20
-117.266
11
110.591
21
-117.341
0
LINE
8
BLACK
6
CONTINUOUS
10
110.591
20
-117.341
11
110.487
21
-117.397
0
LINE
8
BLACK
6
CONTINUOUS
10
110.487
20
-117.397
11
110.374
21
-117.431
0
LINE
8
BLACK
6
CONTINUOUS
10
110.374
20
-117.431
11
110.285
21
-117.44
0
LINE
8
BLACK
6
CONTINUOUS
10
110.285
20
-117.44
11
110.256
21
-117.443
0
LINE
8
BLACK
6
CONTINUOUS
10
110.256
20
-117.443
11
110.227
21
-117.44
0
LINE
8
BLACK
6
CONTINUOUS
10
110.227
20
-117.44
11
104.224
21
-117.44
0
LINE
8
BLACK
6
CONTINUOUS
10
104.224
20
-117.44
11
104.224
21
-117.94
0
LINE
8
BLACK
6
CONTINUOUS
10
104.224
20
-117.94
11
102.024
21
-117.94
0
LINE
8
BLACK
6
CONTINUOUS
10
102.024
20
-117.94
11
102.024
21
-115.74
0
LINE
8
BLACK
6
CONTINUOUS
10
102.024
20
-115.74
11
104.224
21
-115.74
0
LINE
8
BLACK
6
CONTINUOUS
10
104.224
20
-115.74
11
104.224
21
-116.24
0
LINE
8
BLACK
6
CONTINUOUS
10
104.224
20
-116.24
11
110.007
21
-116.24
0
LINE
8
BLACK
6
CONTINUOUS
10
110.007
20
-116.24
11
111.335
21
-114.913
0
LINE
8
BLACK
6
CONTINUOUS
10
111.335
20
-114.913
11
111.354
21
-114.89
0
LINE
8
BLACK
6
CONTINUOUS
10
111.354
20
-114.89
11
111.445
21
-114.815
0
LINE
8
BLACK
6
CONTINUOUS
10
111.445
20
-114.815
11
111.549
21
-114.759
0
LINE
8
BLACK
6
CONTINUOUS
10
111.549
20
-114.759
11
111.657
21
-114.726
0
LINE
8
BLACK
6
CONTINUOUS
10
111.657
20
-114.726
11
111.662
21
-114.725
0
LINE
8
BLACK
6
CONTINUOUS
10
111.662
20
-114.725
11
111.674
21
-114.724
0
LINE
8
BLACK
6
CONTINUOUS
10
111.674
20
-114.724
11
111.751
21
-114.716
0
LINE
8
BLACK
6
CONTINUOUS
10
111.751
20
-114.716
11
111.751
21
-114.716
0
LINE
8
BLACK
6
CONTINUOUS
10
111.751
20
-114.716
11
111.78
21
-114.713
0
LINE
8
BLACK
6
CONTINUOUS
10
111.78
20
-114.713
11
111.78
21
-114.713
0
LINE
8
BLACK
6
CONTINUOUS
10
111.78
20
-114.713
11
111.78
21
-114.216
0
LINE
8
BLACK
6
CONTINUOUS
10
111.78
20
-114.216
11
114.28
21
-114.216
0
LINE
8
BLACK
6
CONTINUOUS
10
114.28
20
-114.216
11
114.28
21
-116.416
0
LINE
8
BLACK
6
CONTINUOUS
10
66.02
20
-116.416
11
63.52
21
-116.416
0
LINE
8
BLACK
6
CONTINUOUS
10
63.52
20
-116.416
11
63.52
21
-114.216
0
LINE
8
BLACK
6
CONTINUOUS
10
63.52
20
-114.216
11
66.02
21
-114.216
0
LINE
8
BLACK
6
CONTINUOUS
10
66.02
20
-114.216
11
66.02
21
-116.416
0
LINE
8
BLACK
6
CONTINUOUS
10
114.28
20
-113.876
11
111.78
21
-113.876
0
LINE
8
BLACK
6
CONTINUOUS
10
111.78
20
-113.876
11
111.78
21
-113.376
0
LINE
8
BLACK
6
CONTINUOUS
10
111.78
20
-113.376
11
104.897
21
-113.376
0
LINE
8
BLACK
6
CONTINUOUS
10
104.897
20
-113.376
11
104.224
21
-114.049
0
LINE
8
BLACK
6
CONTINUOUS
10
104.224
20
-114.049
11
104.224
21
-115.4
0
LINE
8
BLACK
6
CONTINUOUS
10
104.224
20
-115.4
11
102.024
21
-115.4
0
LINE
8
BLACK
6
CONTINUOUS
10
102.024
20
-115.4
11
102.024
21
-113.2
0
LINE
8
BLACK
6
CONTINUOUS
10
102.024
20
-113.2
11
103.375
21
-113.2
0
LINE
8
BLACK
6
CONTINUOUS
10
103.375
20
-113.2
11
104.203
21
-112.373
0
LINE
8
BLACK
6
CONTINUOUS
10
104.203
20
-112.373
11
104.222
21
-112.35
0
LINE
8
BLACK
6
CONTINUOUS
10
104.222
20
-112.35
11
104.313
21
-112.275
0
LINE
8
BLACK
6
CONTINUOUS
10
104.313
20
-112.275
11
104.417
21
-112.219
0
LINE
8
BLACK
6
CONTINUOUS
10
104.417
20
-112.219
11
104.496
21
-112.195
0
LINE
8
BLACK
6
CONTINUOUS
10
104.496
20
-112.195
11
104.53
21
-112.185
0
LINE
8
BLACK
6
CONTINUOUS
10
104.53
20
-112.185
11
104.542
21
-112.184
0
LINE
8
BLACK
6
CONTINUOUS
10
104.542
20
-112.184
11
104.619
21
-112.176
0
LINE
8
BLACK
6
CONTINUOUS
10
104.619
20
-112.176
11
104.619
21
-112.176
0
LINE
8
BLACK
6
CONTINUOUS
10
104.619
20
-112.176
11
104.648
21
-112.173
0
LINE
8
BLACK
6
CONTINUOUS
10
104.648
20
-112.173
11
104.677
21
-112.176
0
LINE
8
BLACK
6
CONTINUOUS
10
104.677
20
-112.176
11
111.78
21
-112.176
0
LINE
8
BLACK
6
CONTINUOUS
10
111.78
20
-112.176
11
111.78
21
-111.676
0
LINE
8
BLACK
6
CONTINUOUS
10
111.78
20
-111.676
11
114.28
21
-111.676
0
LINE
8
BLACK
6
CONTINUOUS
10
114.28
20
-111.676
11
114.28
21
-113.876
0
LINE
8
BLACK
6
CONTINUOUS
10
66.02
20
-113.876
11
63.52
21
-113.876
0
LINE
8
BLACK
6
CONTINUOUS
10
63.52
20
-113.876
11
63.52
21
-111.676
0
LINE
8
BLACK
6
CONTINUOUS
10
63.52
20
-111.676
11
66.02
21
-111.676
0
LINE
8
BLACK
6
CONTINUOUS
10
66.02
20
-111.676
11
66.02
21
-113.876
0
LINE
8
BLACK
6
CONTINUOUS
10
111.78
20
-109.136
11
114.28
21
-109.136
0
LINE
8
BLACK
6
CONTINUOUS
10
114.28
20
-109.136
11
114.28
21
-111.336
0
LINE
8
BLACK
6
CONTINUOUS
10
114.28
20
-111.336
11
111.78
21
-111.336
0
LINE
8
BLACK
6
CONTINUOUS
10
111.78
20
-111.336
11
111.78
21
-110.836
0
LINE
8
BLACK
6
CONTINUOUS
10
111.78
20
-110.836
11
108.825
21
-110.836
0
LINE
8
BLACK
6
CONTINUOUS
10
108.825
20
-110.836
11
108.796
21
-110.839
0
LINE
8
BLACK
6
CONTINUOUS
10
108.796
20
-110.839
11
108.767
21
-110.836
0
LINE
8
BLACK
6
CONTINUOUS
10
108.767
20
-110.836
11
108.767
21
-110.836
0
LINE
8
BLACK
6
CONTINUOUS
10
108.767
20
-110.836
11
108.69
21
-110.828
0
LINE
8
BLACK
6
CONTINUOUS
10
108.69
20
-110.828
11
108.678
21
-110.827
0
LINE
8
BLACK
6
CONTINUOUS
10
108.678
20
-110.827
11
108.644
21
-110.817
0
LINE
8
BLACK
6
CONTINUOUS
10
108.644
20
-110.817
11
108.565
21
-110.793
0
LINE
8
BLACK
6
CONTINUOUS
10
108.565
20
-110.793
11
108.461
21
-110.737
0
LINE
8
BLACK
6
CONTINUOUS
10
108.461
20
-110.737
11
108.37
21
-110.662
0
LINE
8
BLACK
6
CONTINUOUS
10
108.37
20
-110.662
11
108.351
21
-110.639
0
LINE
8
BLACK
6
CONTINUOUS
10
108.351
20
-110.639
11
104.224
21
-106.513
0
LINE
8
BLACK
6
CONTINUOUS
10
104.224
20
-106.513
11
104.224
21
-106.764
0
LINE
8
BLACK
6
CONTINUOUS
10
104.224
20
-106.764
11
102.024
21
-106.764
0
LINE
8
BLACK
6
CONTINUOUS
10
102.024
20
-106.764
11
102.024
21
-104.564
0
LINE
8
BLACK
6
CONTINUOUS
10
102.024
20
-104.564
11
104.224
21
-104.564
0
LINE
8
BLACK
6
CONTINUOUS
10
104.224
20
-104.564
11
104.224
21
-105.061
0
LINE
8
BLACK
6
CONTINUOUS
10
104.224
20
-105.061
11
104.224
21
-105.061
0
LINE
8
BLACK
6
CONTINUOUS
10
104.224
20
-105.061
11
104.253
21
-105.064
0
LINE
8
BLACK
6
CONTINUOUS
10
104.253
20
-105.064
11
104.342
21
-105.073
0
LINE
8
BLACK
6
CONTINUOUS
10
104.342
20
-105.073
11
104.455
21
-105.107
0
LINE
8
BLACK
6
CONTINUOUS
10
104.455
20
-105.107
11
104.559
21
-105.163
0
LINE
8
BLACK
6
CONTINUOUS
10
104.559
20
-105.163
11
104.65
21
-105.238
0
LINE
8
BLACK
6
CONTINUOUS
10
104.65
20
-105.238
11
104.669
21
-105.261
0
LINE
8
BLACK
6
CONTINUOUS
10
104.669
20
-105.261
11
109.045
21
-109.636
0
LINE
8
BLACK
6
CONTINUOUS
10
109.045
20
-109.636
11
111.78
21
-109.636
0
LINE
8
BLACK
6
CONTINUOUS
10
111.78
20
-109.636
11
111.78
21
-109.136
0
LINE
8
BLACK
6
CONTINUOUS
10
111.78
20
-106.596
11
114.28
21
-106.596
0
LINE
8
BLACK
6
CONTINUOUS
10
114.28
20
-106.596
11
114.28
21
-108.796
0
LINE
8
BLACK
6
CONTINUOUS
10
114.28
20
-108.796
11
111.78
21
-108.796
0
LINE
8
BLACK
6
CONTINUOUS
10
111.78
20
-108.796
11
111.78
21
-108.296
0
LINE
8
BLACK
6
CONTINUOUS
10
111.78
20
-108.296
11
108.825
21
-108.296
0
LINE
8
BLACK
6
CONTINUOUS
10
108.825
20
-108.296
11
108.796
21
-108.299
0
LINE
8
BLACK
6
CONTINUOUS
10
108.796
20
-108.299
11
108.767
21
-108.296
0
LINE
8
BLACK
6
CONTINUOUS
10
108.767
20
-108.296
11
108.767
21
-108.296
0
LINE
8
BLACK
6
CONTINUOUS
10
108.767
20
-108.296
11
108.69
21
-108.288
0
LINE
8
BLACK
6
CONTINUOUS
10
108.69
20
-108.288
11
108.678
21
-108.287
0
LINE
8
BLACK
6
CONTINUOUS
10
108.678
20
-108.287
11
108.644
21
-108.277
0
LINE
8
BLACK
6
CONTINUOUS
10
108.644
20
-108.277
11
108.565
21
-108.253
0
LINE
8
BLACK
6
CONTINUOUS
10
108.565
20
-108.253
11
108.461
21
-108.197
0
LINE
8
BLACK
6
CONTINUOUS
10
108.461
20
-108.197
11
108.37
21
-108.122
0
LINE
8
BLACK
6
CONTINUOUS
10
108.37
20
-108.122
11
108.351
21
-108.099
0
LINE
8
BLACK
6
CONTINUOUS
10
108.351
20
-108.099
11
104.224
21
-103.973
0
LINE
8
BLACK
6
CONTINUOUS
10
104.224
20
-103.973
11
104.224
21
-104.224
0
LINE
8
BLACK
6
CONTINUOUS
10
104.224
20
-104.224
11
102.024
21
-104.224
0
LINE
8
BLACK
6
CONTINUOUS
10
102.024
20
-104.224
11
102.024
21
-102.024
0
LINE
8
BLACK
6
CONTINUOUS
10
102.024
20
-102.024
11
104.224
21
-102.024
0
LINE
8
BLACK
6
CONTINUOUS
10
104.224
20
-102.024
11
104.224
21
-102.521
0
LINE
8
BLACK
6
CONTINUOUS
10
104.224
20
-102.521
11
104.224
21
-102.521
0
LINE
8
BLACK
6
CONTINUOUS
10
104.224
20
-102.521
11
104.253
21
-102.524
0
LINE
8
BLACK
6
CONTINUOUS
10
104.253
20
-102.524
11
104.342
21
-102.533
0
LINE
8
BLACK
6
CONTINUOUS
10
104.342
20
-102.533
11
104.455
21
-102.567
0
LINE
8
BLACK
6
CONTINUOUS
10
104.455
20
-102.567
11
104.559
21
-102.623
0
LINE
8
BLACK
6
CONTINUOUS
10
104.559
20
-102.623
11
104.65
21
-102.698
0
LINE
8
BLACK
6
CONTINUOUS
10
104.65
20
-102.698
11
104.669
21
-102.721
0
LINE
8
BLACK
6
CONTINUOUS
10
104.669
20
-102.721
11
109.045
21
-107.096
0
LINE
8
BLACK
6
CONTINUOUS
10
109.045
20
-107.096
11
111.78
21
-107.096
0
LINE
8
BLACK
6
CONTINUOUS
10
111.78
20
-107.096
11
111.78
21
-106.596
0
LINE
8
BLACK
6
CONTINUOUS
10
93.7929
20
-86.0643
11
93.993
21
-86.1472
0
LINE
8
BLACK
6
CONTINUOUS
10
93.993
20
-86.1472
11
94.1732
21
-86.2676
0
LINE
8
BLACK
6
CONTINUOUS
10
94.1732
20
-86.2676
11
94.3264
21
-86.4208
0
LINE
8
BLACK
6
CONTINUOUS
10
94.3264
20
-86.4208
11
94.4468
21
-86.601
0
LINE
8
BLACK
6
CONTINUOUS
10
94.4468
20
-86.601
11
94.5297
21
-86.8011
0
LINE
8
BLACK
6
CONTINUOUS
10
94.5297
20
-86.8011
11
94.572
21
-87.0137
0
LINE
8
BLACK
6
CONTINUOUS
10
94.572
20
-87.0137
11
94.572
21
-87.2303
0
LINE
8
BLACK
6
CONTINUOUS
10
94.572
20
-87.2303
11
94.5297
21
-87.4429
0
LINE
8
BLACK
6
CONTINUOUS
10
94.5297
20
-87.4429
11
94.4468
21
-87.643
0
LINE
8
BLACK
6
CONTINUOUS
10
94.4468
20
-87.643
11
94.3264
21
-87.8232
0
LINE
8
BLACK
6
CONTINUOUS
10
94.3264
20
-87.8232
11
94.1732
21
-87.9764
0
LINE
8
BLACK
6
CONTINUOUS
10
94.1732
20
-87.9764
11
93.993
21
-88.0968
0
LINE
8
BLACK
6
CONTINUOUS
10
93.993
20
-88.0968
11
93.7929
21
-88.1797
0
LINE
8
BLACK
6
CONTINUOUS
10
93.7929
20
-88.1797
11
93.5803
21
-88.222
0
LINE
8
BLACK
6
CONTINUOUS
10
93.5803
20
-88.222
11
93.3637
21
-88.222
0
LINE
8
BLACK
6
CONTINUOUS
10
93.3637
20
-88.222
11
93.1511
21
-88.1797
0
LINE
8
BLACK
6
CONTINUOUS
10
93.1511
20
-88.1797
11
92.951
21
-88.0968
0
LINE
8
BLACK
6
CONTINUOUS
10
92.951
20
-88.0968
11
92.7708
21
-87.9764
0
LINE
8
BLACK
6
CONTINUOUS
10
92.7708
20
-87.9764
11
92.6176
21
-87.8232
0
LINE
8
BLACK
6
CONTINUOUS
10
92.6176
20
-87.8232
11
92.5499
21
-87.722
0
LINE
8
BLACK
6
CONTINUOUS
10
92.5499
20
-87.722
11
92.1649
21
-87.722
0
LINE
8
BLACK
6
CONTINUOUS
10
92.1649
20
-87.722
11
92.1457
21
-87.7412
0
LINE
8
BLACK
6
CONTINUOUS
10
92.1457
20
-87.7412
11
93.4665
21
-89.062
0
LINE
8
BLACK
6
CONTINUOUS
10
93.4665
20
-89.062
11
105.923
21
-89.062
0
LINE
8
BLACK
6
CONTINUOUS
10
105.923
20
-89.062
11
107.636
21
-87.3497
0
LINE
8
BLACK
6
CONTINUOUS
10
107.636
20
-87.3497
11
107.612
21
-87.2303
0
LINE
8
BLACK
6
CONTINUOUS
10
107.612
20
-87.2303
11
107.612
21
-87.0137
0
LINE
8
BLACK
6
CONTINUOUS
10
107.612
20
-87.0137
11
107.654
21
-86.8011
0
LINE
8
BLACK
6
CONTINUOUS
10
107.654
20
-86.8011
11
107.737
21
-86.601
0
LINE
8
BLACK
6
CONTINUOUS
10
107.737
20
-86.601
11
107.858
21
-86.4208
0
LINE
8
BLACK
6
CONTINUOUS
10
107.858
20
-86.4208
11
108.011
21
-86.2676
0
LINE
8
BLACK
6
CONTINUOUS
10
108.011
20
-86.2676
11
108.191
21
-86.1472
0
LINE
8
BLACK
6
CONTINUOUS
10
108.191
20
-86.1472
11
108.391
21
-86.0643
0
LINE
8
BLACK
6
CONTINUOUS
10
108.391
20
-86.0643
11
108.604
21
-86.022
0
LINE
8
BLACK
6
CONTINUOUS
10
108.604
20
-86.022
11
108.82
21
-86.022
0
LINE
8
BLACK
6
CONTINUOUS
10
108.82
20
-86.022
11
109.033
21
-86.0643
0
LINE
8
BLACK
6
CONTINUOUS
10
109.033
20
-86.0643
11
109.233
21
-86.1472
0
LINE
8
BLACK
6
CONTINUOUS
10
109.233
20
-86.1472
11
109.413
21
-86.2676
0
LINE
8
BLACK
6
CONTINUOUS
10
109.413
20
-86.2676
11
109.566
21
-86.4208
0
LINE
8
BLACK
6
CONTINUOUS
10
109.566
20
-86.4208
11
109.687
21
-86.601
0
LINE
8
BLACK
6
CONTINUOUS
10
109.687
20
-86.601
11
109.77
21
-86.8011
0
LINE
8
BLACK
6
CONTINUOUS
10
109.77
20
-86.8011
11
109.812
21
-87.0137
0
LINE
8
BLACK
6
CONTINUOUS
10
109.812
20
-87.0137
11
109.812
21
-87.2303
0
LINE
8
BLACK
6
CONTINUOUS
10
109.812
20
-87.2303
11
109.77
21
-87.4429
0
LINE
8
BLACK
6
CONTINUOUS
10
109.77
20
-87.4429
11
109.687
21
-87.643
0
LINE
8
BLACK
6
CONTINUOUS
10
109.687
20
-87.643
11
109.566
21
-87.8232
0
LINE
8
BLACK
6
CONTINUOUS
10
109.566
20
-87.8232
11
109.413
21
-87.9764
0
LINE
8
BLACK
6
CONTINUOUS
10
109.413
20
-87.9764
11
109.233
21
-88.0968
0
LINE
8
BLACK
6
CONTINUOUS
10
109.233
20
-88.0968
11
109.033
21
-88.1797
0
LINE
8
BLACK
6
CONTINUOUS
10
109.033
20
-88.1797
11
108.82
21
-88.222
0
LINE
8
BLACK
6
CONTINUOUS
10
108.82
20
-88.222
11
108.604
21
-88.222
0
LINE
8
BLACK
6
CONTINUOUS
10
108.604
20
-88.222
11
108.484
21
-88.1983
0
LINE
8
BLACK
6
CONTINUOUS
10
108.484
20
-88.1983
11
106.617
21
-90.0654
0
LINE
8
BLACK
6
CONTINUOUS
10
106.617
20
-90.0654
11
106.598
21
-90.0883
0
LINE
8
BLACK
6
CONTINUOUS
10
106.598
20
-90.0883
11
106.507
21
-90.1633
0
LINE
8
BLACK
6
CONTINUOUS
10
106.507
20
-90.1633
11
106.403
21
-90.219
0
LINE
8
BLACK
6
CONTINUOUS
10
106.403
20
-90.219
11
106.29
21
-90.2533
0
LINE
8
BLACK
6
CONTINUOUS
10
106.29
20
-90.2533
11
106.201
21
-90.262
0
LINE
8
BLACK
6
CONTINUOUS
10
106.201
20
-90.262
11
106.172
21
-90.2649
0
LINE
8
BLACK
6
CONTINUOUS
10
106.172
20
-90.2649
11
106.143
21
-90.262
0
LINE
8
BLACK
6
CONTINUOUS
10
106.143
20
-90.262
11
93.2475
21
-90.262
0
LINE
8
BLACK
6
CONTINUOUS
10
93.2475
20
-90.262
11
93.218
21
-90.2649
0
LINE
8
BLACK
6
CONTINUOUS
10
93.218
20
-90.2649
11
93.1004
21
-90.2533
0
LINE
8
BLACK
6
CONTINUOUS
10
93.1004
20
-90.2533
11
92.9873
21
-90.219
0
LINE
8
BLACK
6
CONTINUOUS
10
92.9873
20
-90.219
11
92.883
21
-90.1633
0
LINE
8
BLACK
6
CONTINUOUS
10
92.883
20
-90.1633
11
92.7917
21
-90.0883
0
LINE
8
BLACK
6
CONTINUOUS
10
92.7917
20
-90.0883
11
92.7729
21
-90.0654
0
LINE
8
BLACK
6
CONTINUOUS
10
92.7729
20
-90.0654
11
91.4297
21
-88.7222
0
LINE
8
BLACK
6
CONTINUOUS
10
91.4297
20
-88.7222
11
91.1647
21
-88.7222
0
LINE
8
BLACK
6
CONTINUOUS
10
91.1647
20
-88.7222
11
87.214
21
-92.6729
0
LINE
8
BLACK
6
CONTINUOUS
10
87.214
20
-92.6729
11
87.214
21
-100.301
0
LINE
8
BLACK
6
CONTINUOUS
10
87.214
20
-100.301
11
87.2169
21
-100.33
0
LINE
8
BLACK
6
CONTINUOUS
10
87.2169
20
-100.33
11
87.214
21
-100.359
0
LINE
8
BLACK
6
CONTINUOUS
10
87.214
20
-100.359
11
87.2053
21
-100.448
0
LINE
8
BLACK
6
CONTINUOUS
10
87.2053
20
-100.448
11
87.171
21
-100.561
0
LINE
8
BLACK
6
CONTINUOUS
10
87.171
20
-100.561
11
87.1153
21
-100.665
0
LINE
8
BLACK
6
CONTINUOUS
10
87.1153
20
-100.665
11
87.0403
21
-100.756
0
LINE
8
BLACK
6
CONTINUOUS
10
87.0403
20
-100.756
11
87.0174
21
-100.775
0
LINE
8
BLACK
6
CONTINUOUS
10
87.0174
20
-100.775
11
79.6931
21
-108.099
0
LINE
8
BLACK
6
CONTINUOUS
10
79.6931
20
-108.099
11
79.6743
21
-108.122
0
LINE
8
BLACK
6
CONTINUOUS
10
79.6743
20
-108.122
11
79.583
21
-108.197
0
LINE
8
BLACK
6
CONTINUOUS
10
79.583
20
-108.197
11
79.4787
21
-108.253
0
LINE
8
BLACK
6
CONTINUOUS
10
79.4787
20
-108.253
11
79.3656
21
-108.287
0
LINE
8
BLACK
6
CONTINUOUS
10
79.3656
20
-108.287
11
79.2775
21
-108.296
0
LINE
8
BLACK
6
CONTINUOUS
10
79.2775
20
-108.296
11
79.248
21
-108.299
0
LINE
8
BLACK
6
CONTINUOUS
10
79.248
20
-108.299
11
79.2185
21
-108.296
0
LINE
8
BLACK
6
CONTINUOUS
10
79.2185
20
-108.296
11
66.02
21
-108.296
0
LINE
8
BLACK
6
CONTINUOUS
10
66.02
20
-108.296
11
66.02
21
-108.796
0
LINE
8
BLACK
6
CONTINUOUS
10
66.02
20
-108.796
11
63.52
21
-108.796
0
LINE
8
BLACK
6
CONTINUOUS
10
63.52
20
-108.796
11
63.52
21
-106.596
0
LINE
8
BLACK
6
CONTINUOUS
10
63.52
20
-106.596
11
66.02
21
-106.596
0
LINE
8
BLACK
6
CONTINUOUS
10
66.02
20
-106.596
11
66.02
21
-107.096
0
LINE
8
BLACK
6
CONTINUOUS
10
66.02
20
-107.096
11
78.9995
21
-107.096
0
LINE
8
BLACK
6
CONTINUOUS
10
78.9995
20
-107.096
11
86.014
21
-100.081
0
LINE
8
BLACK
6
CONTINUOUS
10
86.014
20
-100.081
11
86.014
21
-92.4538
0
LINE
8
BLACK
6
CONTINUOUS
10
86.014
20
-92.4538
11
86.0111
21
-92.4244
0
LINE
8
BLACK
6
CONTINUOUS
10
86.0111
20
-92.4244
11
86.0227
21
-92.3067
0
LINE
8
BLACK
6
CONTINUOUS
10
86.0227
20
-92.3067
11
86.0227
21
-92.3067
0
LINE
8
BLACK
6
CONTINUOUS
10
86.0227
20
-92.3067
11
86.057
21
-92.1936
0
LINE
8
BLACK
6
CONTINUOUS
10
86.057
20
-92.1936
11
86.1127
21
-92.0894
0
LINE
8
BLACK
6
CONTINUOUS
10
86.1127
20
-92.0894
11
86.1877
21
-91.998
0
LINE
8
BLACK
6
CONTINUOUS
10
86.1877
20
-91.998
11
86.2106
21
-91.9793
0
LINE
8
BLACK
6
CONTINUOUS
10
86.2106
20
-91.9793
11
90.4711
21
-87.7188
0
LINE
8
BLACK
6
CONTINUOUS
10
90.4711
20
-87.7188
11
90.4899
21
-87.6959
0
LINE
8
BLACK
6
CONTINUOUS
10
90.4899
20
-87.6959
11
90.5128
21
-87.6771
0
LINE
8
BLACK
6
CONTINUOUS
10
90.5128
20
-87.6771
11
91.4713
21
-86.7186
0
LINE
8
BLACK
6
CONTINUOUS
10
91.4713
20
-86.7186
11
91.49
21
-86.6957
0
LINE
8
BLACK
6
CONTINUOUS
10
91.49
20
-86.6957
11
91.5814
21
-86.6207
0
LINE
8
BLACK
6
CONTINUOUS
10
91.5814
20
-86.6207
11
91.6856
21
-86.565
0
LINE
8
BLACK
6
CONTINUOUS
10
91.6856
20
-86.565
11
91.7644
21
-86.5411
0
LINE
8
BLACK
6
CONTINUOUS
10
91.7644
20
-86.5411
11
91.7987
21
-86.5307
0
LINE
8
BLACK
6
CONTINUOUS
10
91.7987
20
-86.5307
11
91.9164
21
-86.5191
0
LINE
8
BLACK
6
CONTINUOUS
10
91.9164
20
-86.5191
11
91.9458
21
-86.522
0
LINE
8
BLACK
6
CONTINUOUS
10
91.9458
20
-86.522
11
92.5499
21
-86.522
0
LINE
8
BLACK
6
CONTINUOUS
10
92.5499
20
-86.522
11
92.6176
21
-86.4208
0
LINE
8
BLACK
6
CONTINUOUS
10
92.6176
20
-86.4208
11
92.7708
21
-86.2676
0
LINE
8
BLACK
6
CONTINUOUS
10
92.7708
20
-86.2676
11
92.951
21
-86.1472
0
LINE
8
BLACK
6
CONTINUOUS
10
92.951
20
-86.1472
11
93.1511
21
-86.0643
0
LINE
8
BLACK
6
CONTINUOUS
10
93.1511
20
-86.0643
11
93.3637
21
-86.022
0
LINE
8
BLACK
6
CONTINUOUS
10
93.3637
20
-86.022
11
93.5803
21
-86.022
0
LINE
8
BLACK
6
CONTINUOUS
10
93.5803
20
-86.022
11
93.7929
21
-86.0643
0
LINE
8
BLACK
6
CONTINUOUS
10
80.8389
20
-99.2723
11
81.039
21
-99.3552
0
LINE
8
BLACK
6
CONTINUOUS
10
81.039
20
-99.3552
11
81.2192
21
-99.4756
0
LINE
8
BLACK
6
CONTINUOUS
10
81.2192
20
-99.4756
11
81.3724
21
-99.6288
0
LINE
8
BLACK
6
CONTINUOUS
10
81.3724
20
-99.6288
11
81.4928
21
-99.809
0
LINE
8
BLACK
6
CONTINUOUS
10
81.4928
20
-99.809
11
81.5757
21
-100.009
0
LINE
8
BLACK
6
CONTINUOUS
10
81.5757
20
-100.009
11
81.618
21
-100.222
0
LINE
8
BLACK
6
CONTINUOUS
10
81.618
20
-100.222
11
81.618
21
-100.438
0
LINE
8
BLACK
6
CONTINUOUS
10
81.618
20
-100.438
11
81.5757
21
-100.651
0
LINE
8
BLACK
6
CONTINUOUS
10
81.5757
20
-100.651
11
81.4928
21
-100.851
0
LINE
8
BLACK
6
CONTINUOUS
10
81.4928
20
-100.851
11
81.3724
21
-101.031
0
LINE
8
BLACK
6
CONTINUOUS
10
81.3724
20
-101.031
11
81.2192
21
-101.184
0
LINE
8
BLACK
6
CONTINUOUS
10
81.2192
20
-101.184
11
81.039
21
-101.305
0
LINE
8
BLACK
6
CONTINUOUS
10
81.039
20
-101.305
11
80.8389
21
-101.388
0
LINE
8
BLACK
6
CONTINUOUS
10
80.8389
20
-101.388
11
80.6263
21
-101.43
0
LINE
8
BLACK
6
CONTINUOUS
10
80.6263
20
-101.43
11
80.4097
21
-101.43
0
LINE
8
BLACK
6
CONTINUOUS
10
80.4097
20
-101.43
11
80.1971
21
-101.388
0
LINE
8
BLACK
6
CONTINUOUS
10
80.1971
20
-101.388
11
79.997
21
-101.305
0
LINE
8
BLACK
6
CONTINUOUS
10
79.997
20
-101.305
11
79.8168
21
-101.184
0
LINE
8
BLACK
6
CONTINUOUS
10
79.8168
20
-101.184
11
79.6636
21
-101.031
0
LINE
8
BLACK
6
CONTINUOUS
10
79.6636
20
-101.031
11
79.5959
21
-100.93
0
LINE
8
BLACK
6
CONTINUOUS
10
79.5959
20
-100.93
11
77.4645
21
-100.93
0
LINE
8
BLACK
6
CONTINUOUS
10
77.4645
20
-100.93
11
75.276
21
-103.119
0
LINE
8
BLACK
6
CONTINUOUS
10
75.276
20
-103.119
11
75.276
21
-104.234
0
LINE
8
BLACK
6
CONTINUOUS
10
75.276
20
-104.234
11
75.3772
21
-104.302
0
LINE
8
BLACK
6
CONTINUOUS
10
75.3772
20
-104.302
11
75.5304
21
-104.455
0
LINE
8
BLACK
6
CONTINUOUS
10
75.5304
20
-104.455
11
75.6508
21
-104.635
0
LINE
8
BLACK
6
CONTINUOUS
10
75.6508
20
-104.635
11
75.7337
21
-104.835
0
LINE
8
BLACK
6
CONTINUOUS
10
75.7337
20
-104.835
11
75.776
21
-105.048
0
LINE
8
BLACK
6
CONTINUOUS
10
75.776
20
-105.048
11
75.776
21
-105.264
0
LINE
8
BLACK
6
CONTINUOUS
10
75.776
20
-105.264
11
75.7337
21
-105.477
0
LINE
8
BLACK
6
CONTINUOUS
10
75.7337
20
-105.477
11
75.6508
21
-105.677
0
LINE
8
BLACK
6
CONTINUOUS
10
75.6508
20
-105.677
11
75.5304
21
-105.857
0
LINE
8
BLACK
6
CONTINUOUS
10
75.5304
20
-105.857
11
75.3772
21
-106.01
0
LINE
8
BLACK
6
CONTINUOUS
10
75.3772
20
-106.01
11
75.197
21
-106.131
0
LINE
8
BLACK
6
CONTINUOUS
10
75.197
20
-106.131
11
74.9969
21
-106.214
0
LINE
8
BLACK
6
CONTINUOUS
10
74.9969
20
-106.214
11
74.7843
21
-106.256
0
LINE
8
BLACK
6
CONTINUOUS
10
74.7843
20
-106.256
11
74.5677
21
-106.256
0
LINE
8
BLACK
6
CONTINUOUS
10
74.5677
20
-106.256
11
74.3551
21
-106.214
0
LINE
8
BLACK
6
CONTINUOUS
10
74.3551
20
-106.214
11
74.155
21
-106.131
0
LINE
8
BLACK
6
CONTINUOUS
10
74.155
20
-106.131
11
73.9748
21
-106.01
0
LINE
8
BLACK
6
CONTINUOUS
10
73.9748
20
-106.01
11
73.8216
21
-105.857
0
LINE
8
BLACK
6
CONTINUOUS
10
73.8216
20
-105.857
11
73.7012
21
-105.677
0
LINE
8
BLACK
6
CONTINUOUS
10
73.7012
20
-105.677
11
73.6183
21
-105.477
0
LINE
8
BLACK
6
CONTINUOUS
10
73.6183
20
-105.477
11
73.576
21
-105.264
0
LINE
8
BLACK
6
CONTINUOUS
10
73.576
20
-105.264
11
73.576
21
-105.048
0
LINE
8
BLACK
6
CONTINUOUS
10
73.576
20
-105.048
11
73.6183
21
-104.835
0
LINE
8
BLACK
6
CONTINUOUS
10
73.6183
20
-104.835
11
73.7012
21
-104.635
0
LINE
8
BLACK
6
CONTINUOUS
10
73.7012
20
-104.635
11
73.8216
21
-104.455
0
LINE
8
BLACK
6
CONTINUOUS
10
73.8216
20
-104.455
11
73.9748
21
-104.302
0
LINE
8
BLACK
6
CONTINUOUS
10
73.9748
20
-104.302
11
74.076
21
-104.234
0
LINE
8
BLACK
6
CONTINUOUS
10
74.076
20
-104.234
11
74.076
21
-102.899
0
LINE
8
BLACK
6
CONTINUOUS
10
74.076
20
-102.899
11
74.0731
21
-102.87
0
LINE
8
BLACK
6
CONTINUOUS
10
74.0731
20
-102.87
11
74.0847
21
-102.752
0
LINE
8
BLACK
6
CONTINUOUS
10
74.0847
20
-102.752
11
74.119
21
-102.639
0
LINE
8
BLACK
6
CONTINUOUS
10
74.119
20
-102.639
11
74.1278
21
-102.623
0
LINE
8
BLACK
6
CONTINUOUS
10
74.1278
20
-102.623
11
74.1747
21
-102.535
0
LINE
8
BLACK
6
CONTINUOUS
10
74.1747
20
-102.535
11
74.2497
21
-102.444
0
LINE
8
BLACK
6
CONTINUOUS
10
74.2497
20
-102.444
11
74.2726
21
-102.425
0
LINE
8
BLACK
6
CONTINUOUS
10
74.2726
20
-102.425
11
76.7709
21
-99.9266
0
LINE
8
BLACK
6
CONTINUOUS
10
76.7709
20
-99.9266
11
76.7897
21
-99.9037
0
LINE
8
BLACK
6
CONTINUOUS
10
76.7897
20
-99.9037
11
76.881
21
-99.8287
0
LINE
8
BLACK
6
CONTINUOUS
10
76.881
20
-99.8287
11
76.9853
21
-99.773
0
LINE
8
BLACK
6
CONTINUOUS
10
76.9853
20
-99.773
11
77.0641
21
-99.7491
0
LINE
8
BLACK
6
CONTINUOUS
10
77.0641
20
-99.7491
11
77.0984
21
-99.7387
0
LINE
8
BLACK
6
CONTINUOUS
10
77.0984
20
-99.7387
11
77.1096
21
-99.7376
0
LINE
8
BLACK
6
CONTINUOUS
10
77.1096
20
-99.7376
11
77.1865
21
-99.73
0
LINE
8
BLACK
6
CONTINUOUS
10
77.1865
20
-99.73
11
77.1865
21
-99.73
0
LINE
8
BLACK
6
CONTINUOUS
10
77.1865
20
-99.73
11
77.216
21
-99.7271
0
LINE
8
BLACK
6
CONTINUOUS
10
77.216
20
-99.7271
11
77.2455
21
-99.73
0
LINE
8
BLACK
6
CONTINUOUS
10
77.2455
20
-99.73
11
79.5959
21
-99.73
0
LINE
8
BLACK
6
CONTINUOUS
10
79.5959
20
-99.73
11
79.6636
21
-99.6288
0
LINE
8
BLACK
6
CONTINUOUS
10
79.6636
20
-99.6288
11
79.8168
21
-99.4756
0
LINE
8
BLACK
6
CONTINUOUS
10
79.8168
20
-99.4756
11
79.997
21
-99.3552
0
LINE
8
BLACK
6
CONTINUOUS
10
79.997
20
-99.3552
11
80.1971
21
-99.2723
0
LINE
8
BLACK
6
CONTINUOUS
10
80.1971
20
-99.2723
11
80.4097
21
-99.23
0
LINE
8
BLACK
6
CONTINUOUS
10
80.4097
20
-99.23
11
80.6263
21
-99.23
0
LINE
8
BLACK
6
CONTINUOUS
10
80.6263
20
-99.23
11
80.8389
21
-99.2723
0
LINE
8
BLACK
6
CONTINUOUS
10
66.02
20
-106.256
11
63.52
21
-106.256
0
LINE
8
BLACK
6
CONTINUOUS
10
63.52
20
-106.256
11
63.52
21
-104.056
0
LINE
8
BLACK
6
CONTINUOUS
10
63.52
20
-104.056
11
66.02
21
-104.056
0
LINE
8
BLACK
6
CONTINUOUS
10
66.02
20
-104.056
11
66.02
21
-106.256
0
LINE
8
BLACK
6
CONTINUOUS
10
111.78
20
-102.532
11
114.28
21
-102.532
0
LINE
8
BLACK
6
CONTINUOUS
10
114.28
20
-102.532
11
114.28
21
-104.732
0
LINE
8
BLACK
6
CONTINUOUS
10
114.28
20
-104.732
11
111.78
21
-104.732
0
LINE
8
BLACK
6
CONTINUOUS
10
111.78
20
-104.732
11
111.78
21
-104.232
0
LINE
8
BLACK
6
CONTINUOUS
10
111.78
20
-104.232
11
108.501
21
-104.232
0
LINE
8
BLACK
6
CONTINUOUS
10
108.501
20
-104.232
11
108.472
21
-104.235
0
LINE
8
BLACK
6
CONTINUOUS
10
108.472
20
-104.235
11
108.354
21
-104.223
0
LINE
8
BLACK
6
CONTINUOUS
10
108.354
20
-104.223
11
108.241
21
-104.189
0
LINE
8
BLACK
6
CONTINUOUS
10
108.241
20
-104.189
11
108.137
21
-104.133
0
LINE
8
BLACK
6
CONTINUOUS
10
108.137
20
-104.133
11
108.046
21
-104.058
0
LINE
8
BLACK
6
CONTINUOUS
10
108.046
20
-104.058
11
108.027
21
-104.035
0
LINE
8
BLACK
6
CONTINUOUS
10
108.027
20
-104.035
11
105.175
21
-101.184
0
LINE
8
BLACK
6
CONTINUOUS
10
105.175
20
-101.184
11
104.224
21
-101.184
0
LINE
8
BLACK
6
CONTINUOUS
10
104.224
20
-101.184
11
104.224
21
-101.684
0
LINE
8
BLACK
6
CONTINUOUS
10
104.224
20
-101.684
11
102.024
21
-101.684
0
LINE
8
BLACK
6
CONTINUOUS
10
102.024
20
-101.684
11
102.024
21
-99.484
0
LINE
8
BLACK
6
CONTINUOUS
10
102.024
20
-99.484
11
104.224
21
-99.484
0
LINE
8
BLACK
6
CONTINUOUS
10
104.224
20
-99.484
11
104.224
21
-99.984
0
LINE
8
BLACK
6
CONTINUOUS
10
104.224
20
-99.984
11
105.395
21
-99.984
0
LINE
8
BLACK
6
CONTINUOUS
10
105.395
20
-99.984
11
105.424
21
-99.9811
0
LINE
8
BLACK
6
CONTINUOUS
10
105.424
20
-99.9811
11
105.453
21
-99.984
0
LINE
8
BLACK
6
CONTINUOUS
10
105.453
20
-99.984
11
105.542
21
-99.9927
0
LINE
8
BLACK
6
CONTINUOUS
10
105.542
20
-99.9927
11
105.655
21
-100.027
0
LINE
8
BLACK
6
CONTINUOUS
10
105.655
20
-100.027
11
105.759
21
-100.083
0
LINE
8
BLACK
6
CONTINUOUS
10
105.759
20
-100.083
11
105.85
21
-100.158
0
LINE
8
BLACK
6
CONTINUOUS
10
105.85
20
-100.158
11
105.869
21
-100.181
0
LINE
8
BLACK
6
CONTINUOUS
10
105.869
20
-100.181
11
108.721
21
-103.032
0
LINE
8
BLACK
6
CONTINUOUS
10
108.721
20
-103.032
11
111.78
21
-103.032
0
LINE
8
BLACK
6
CONTINUOUS
10
111.78
20
-103.032
11
111.78
21
-102.532
0
LINE
8
BLACK
6
CONTINUOUS
10
114.28
20
-102.192
11
111.78
21
-102.192
0
LINE
8
BLACK
6
CONTINUOUS
10
111.78
20
-102.192
11
111.78
21
-99.992
0
LINE
8
BLACK
6
CONTINUOUS
10
111.78
20
-99.992
11
114.28
21
-99.992
0
LINE
8
BLACK
6
CONTINUOUS
10
114.28
20
-99.992
11
114.28
21
-102.192
0
LINE
8
BLACK
6
CONTINUOUS
10
114.28
20
-99.652
11
111.78
21
-99.652
0
LINE
8
BLACK
6
CONTINUOUS
10
111.78
20
-99.652
11
111.78
21
-99.152
0
LINE
8
BLACK
6
CONTINUOUS
10
111.78
20
-99.152
11
95.2445
21
-99.152
0
LINE
8
BLACK
6
CONTINUOUS
10
95.2445
20
-99.152
11
94.2943
21
-100.102
0
LINE
8
BLACK
6
CONTINUOUS
10
94.2943
20
-100.102
11
94.318
21
-100.222
0
LINE
8
BLACK
6
CONTINUOUS
10
94.318
20
-100.222
11
94.318
21
-100.438
0
LINE
8
BLACK
6
CONTINUOUS
10
94.318
20
-100.438
11
94.2757
21
-100.651
0
LINE
8
BLACK
6
CONTINUOUS
10
94.2757
20
-100.651
11
94.1928
21
-100.851
0
LINE
8
BLACK
6
CONTINUOUS
10
94.1928
20
-100.851
11
94.0724
21
-101.031
0
LINE
8
BLACK
6
CONTINUOUS
10
94.0724
20
-101.031
11
93.9192
21
-101.184
0
LINE
8
BLACK
6
CONTINUOUS
10
93.9192
20
-101.184
11
93.739
21
-101.305
0
LINE
8
BLACK
6
CONTINUOUS
10
93.739
20
-101.305
11
93.5389
21
-101.388
0
LINE
8
BLACK
6
CONTINUOUS
10
93.5389
20
-101.388
11
93.3263
21
-101.43
0
LINE
8
BLACK
6
CONTINUOUS
10
93.3263
20
-101.43
11
93.1097
21
-101.43
0
LINE
8
BLACK
6
CONTINUOUS
10
93.1097
20
-101.43
11
92.8971
21
-101.388
0
LINE
8
BLACK
6
CONTINUOUS
10
92.8971
20
-101.388
11
92.697
21
-101.305
0
LINE
8
BLACK
6
CONTINUOUS
10
92.697
20
-101.305
11
92.5168
21
-101.184
0
LINE
8
BLACK
6
CONTINUOUS
10
92.5168
20
-101.184
11
92.3636
21
-101.031
0
LINE
8
BLACK
6
CONTINUOUS
10
92.3636
20
-101.031
11
92.2432
21
-100.851
0
LINE
8
BLACK
6
CONTINUOUS
10
92.2432
20
-100.851
11
92.1603
21
-100.651
0
LINE
8
BLACK
6
CONTINUOUS
10
92.1603
20
-100.651
11
92.118
21
-100.438
0
LINE
8
BLACK
6
CONTINUOUS
10
92.118
20
-100.438
11
92.118
21
-100.222
0
LINE
8
BLACK
6
CONTINUOUS
10
92.118
20
-100.222
11
92.1603
21
-100.009
0
LINE
8
BLACK
6
CONTINUOUS
10
92.1603
20
-100.009
11
92.2432
21
-99.809
0
LINE
8
BLACK
6
CONTINUOUS
10
92.2432
20
-99.809
11
92.3636
21
-99.6288
0
LINE
8
BLACK
6
CONTINUOUS
10
92.3636
20
-99.6288
11
92.5168
21
-99.4756
0
LINE
8
BLACK
6
CONTINUOUS
10
92.5168
20
-99.4756
11
92.697
21
-99.3552
0
LINE
8
BLACK
6
CONTINUOUS
10
92.697
20
-99.3552
11
92.8971
21
-99.2723
0
LINE
8
BLACK
6
CONTINUOUS
10
92.8971
20
-99.2723
11
93.1097
21
-99.23
0
LINE
8
BLACK
6
CONTINUOUS
10
93.1097
20
-99.23
11
93.3263
21
-99.23
0
LINE
8
BLACK
6
CONTINUOUS
10
93.3263
20
-99.23
11
93.4457
21
-99.2537
0
LINE
8
BLACK
6
CONTINUOUS
10
93.4457
20
-99.2537
11
94.5509
21
-98.1486
0
LINE
8
BLACK
6
CONTINUOUS
10
94.5509
20
-98.1486
11
94.5697
21
-98.1257
0
LINE
8
BLACK
6
CONTINUOUS
10
94.5697
20
-98.1257
11
94.661
21
-98.0507
0
LINE
8
BLACK
6
CONTINUOUS
10
94.661
20
-98.0507
11
94.7653
21
-97.995
0
LINE
8
BLACK
6
CONTINUOUS
10
94.7653
20
-97.995
11
94.8784
21
-97.9607
0
LINE
8
BLACK
6
CONTINUOUS
10
94.8784
20
-97.9607
11
94.9665
21
-97.952
0
LINE
8
BLACK
6
CONTINUOUS
10
94.9665
20
-97.952
11
94.996
21
-97.9491
0
LINE
8
BLACK
6
CONTINUOUS
10
94.996
20
-97.9491
11
95.0255
21
-97.952
0
LINE
8
BLACK
6
CONTINUOUS
10
95.0255
20
-97.952
11
111.78
21
-97.952
0
LINE
8
BLACK
6
CONTINUOUS
10
111.78
20
-97.952
11
111.78
21
-97.452
0
LINE
8
BLACK
6
CONTINUOUS
10
111.78
20
-97.452
11
114.28
21
-97.452
0
LINE
8
BLACK
6
CONTINUOUS
10
114.28
20
-97.452
11
114.28
21
-99.652
0
LINE
8
BLACK
6
CONTINUOUS
10
66.02
20
-98.636
11
63.52
21
-98.636
0
LINE
8
BLACK
6
CONTINUOUS
10
63.52
20
-98.636
11
63.52
21
-96.436
0
LINE
8
BLACK
6
CONTINUOUS
10
63.52
20
-96.436
11
66.02
21
-96.436
0
LINE
8
BLACK
6
CONTINUOUS
10
66.02
20
-96.436
11
66.02
21
-98.636
0
LINE
8
BLACK
6
CONTINUOUS
10
114.28
20
-97.112
11
111.78
21
-97.112
0
LINE
8
BLACK
6
CONTINUOUS
10
111.78
20
-97.112
11
111.78
21
-96.274
0
LINE
8
BLACK
6
CONTINUOUS
10
111.78
20
-96.274
11
94.5665
21
-96.274
0
LINE
8
BLACK
6
CONTINUOUS
10
94.5665
20
-96.274
11
94.2943
21
-96.5463
0
LINE
8
BLACK
6
CONTINUOUS
10
94.2943
20
-96.5463
11
94.318
21
-96.6657
0
LINE
8
BLACK
6
CONTINUOUS
10
94.318
20
-96.6657
11
94.318
21
-96.8823
0
LINE
8
BLACK
6
CONTINUOUS
10
94.318
20
-96.8823
11
94.2757
21
-97.0949
0
LINE
8
BLACK
6
CONTINUOUS
10
94.2757
20
-97.0949
11
94.1928
21
-97.295
0
LINE
8
BLACK
6
CONTINUOUS
10
94.1928
20
-97.295
11
94.0724
21
-97.4752
0
LINE
8
BLACK
6
CONTINUOUS
10
94.0724
20
-97.4752
11
93.9192
21
-97.6284
0
LINE
8
BLACK
6
CONTINUOUS
10
93.9192
20
-97.6284
11
93.739
21
-97.7488
0
LINE
8
BLACK
6
CONTINUOUS
10
93.739
20
-97.7488
11
93.5389
21
-97.8317
0
LINE
8
BLACK
6
CONTINUOUS
10
93.5389
20
-97.8317
11
93.3263
21
-97.874
0
LINE
8
BLACK
6
CONTINUOUS
10
93.3263
20
-97.874
11
93.1097
21
-97.874
0
LINE
8
BLACK
6
CONTINUOUS
10
93.1097
20
-97.874
11
92.8971
21
-97.8317
0
LINE
8
BLACK
6
CONTINUOUS
10
92.8971
20
-97.8317
11
92.697
21
-97.7488
0
LINE
8
BLACK
6
CONTINUOUS
10
92.697
20
-97.7488
11
92.5168
21
-97.6284
0
LINE
8
BLACK
6
CONTINUOUS
10
92.5168
20
-97.6284
11
92.3636
21
-97.4752
0
LINE
8
BLACK
6
CONTINUOUS
10
92.3636
20
-97.4752
11
92.2432
21
-97.295
0
LINE
8
BLACK
6
CONTINUOUS
10
92.2432
20
-97.295
11
92.1603
21
-97.0949
0
LINE
8
BLACK
6
CONTINUOUS
10
92.1603
20
-97.0949
11
92.118
21
-96.8823
0
LINE
8
BLACK
6
CONTINUOUS
10
92.118
20
-96.8823
11
92.118
21
-96.6657
0
LINE
8
BLACK
6
CONTINUOUS
10
92.118
20
-96.6657
11
92.1603
21
-96.4531
0
LINE
8
BLACK
6
CONTINUOUS
10
92.1603
20
-96.4531
11
92.2432
21
-96.253
0
LINE
8
BLACK
6
CONTINUOUS
10
92.2432
20
-96.253
11
92.3636
21
-96.0728
0
LINE
8
BLACK
6
CONTINUOUS
10
92.3636
20
-96.0728
11
92.5168
21
-95.9196
0
LINE
8
BLACK
6
CONTINUOUS
10
92.5168
20
-95.9196
11
92.697
21
-95.7992
0
LINE
8
BLACK
6
CONTINUOUS
10
92.697
20
-95.7992
11
92.8971
21
-95.7163
0
LINE
8
BLACK
6
CONTINUOUS
10
92.8971
20
-95.7163
11
93.1097
21
-95.674
0
LINE
8
BLACK
6
CONTINUOUS
10
93.1097
20
-95.674
11
93.3263
21
-95.674
0
LINE
8
BLACK
6
CONTINUOUS
10
93.3263
20
-95.674
11
93.4457
21
-95.6977
0
LINE
8
BLACK
6
CONTINUOUS
10
93.4457
20
-95.6977
11
93.8729
21
-95.2706
0
LINE
8
BLACK
6
CONTINUOUS
10
93.8729
20
-95.2706
11
93.8917
21
-95.2477
0
LINE
8
BLACK
6
CONTINUOUS
10
93.8917
20
-95.2477
11
93.983
21
-95.1727
0
LINE
8
BLACK
6
CONTINUOUS
10
93.983
20
-95.1727
11
94.0873
21
-95.117
0
LINE
8
BLACK
6
CONTINUOUS
10
94.0873
20
-95.117
11
94.2004
21
-95.0827
0
LINE
8
BLACK
6
CONTINUOUS
10
94.2004
20
-95.0827
11
94.318
21
-95.0711
0
LINE
8
BLACK
6
CONTINUOUS
10
94.318
20
-95.0711
11
94.3475
21
-95.074
0
LINE
8
BLACK
6
CONTINUOUS
10
94.3475
20
-95.074
11
111.78
21
-95.074
0
LINE
8
BLACK
6
CONTINUOUS
10
111.78
20
-95.074
11
111.78
21
-94.912
0
LINE
8
BLACK
6
CONTINUOUS
10
111.78
20
-94.912
11
114.28
21
-94.912
0
LINE
8
BLACK
6
CONTINUOUS
10
114.28
20
-94.912
11
114.28
21
-97.112
0
LINE
8
BLACK
6
CONTINUOUS
10
74.9969
20
-95.4623
11
75.197
21
-95.5452
0
LINE
8
BLACK
6
CONTINUOUS
10
75.197
20
-95.5452
11
75.3772
21
-95.6656
0
LINE
8
BLACK
6
CONTINUOUS
10
75.3772
20
-95.6656
11
75.5304
21
-95.8188
0
LINE
8
BLACK
6
CONTINUOUS
10
75.5304
20
-95.8188
11
75.6508
21
-95.999
0
LINE
8
BLACK
6
CONTINUOUS
10
75.6508
20
-95.999
11
75.7233
21
-96.174
0
LINE
8
BLACK
6
CONTINUOUS
10
75.7233
20
-96.174
11
79.5959
21
-96.174
0
LINE
8
BLACK
6
CONTINUOUS
10
79.5959
20
-96.174
11
79.6636
21
-96.0728
0
LINE
8
BLACK
6
CONTINUOUS
10
79.6636
20
-96.0728
11
79.8168
21
-95.9196
0
LINE
8
BLACK
6
CONTINUOUS
10
79.8168
20
-95.9196
11
79.997
21
-95.7992
0
LINE
8
BLACK
6
CONTINUOUS
10
79.997
20
-95.7992
11
80.1971
21
-95.7163
0
LINE
8
BLACK
6
CONTINUOUS
10
80.1971
20
-95.7163
11
80.4097
21
-95.674
0
LINE
8
BLACK
6
CONTINUOUS
10
80.4097
20
-95.674
11
80.6263
21
-95.674
0
LINE
8
BLACK
6
CONTINUOUS
10
80.6263
20
-95.674
11
80.8389
21
-95.7163
0
LINE
8
BLACK
6
CONTINUOUS
10
80.8389
20
-95.7163
11
81.039
21
-95.7992
0
LINE
8
BLACK
6
CONTINUOUS
10
81.039
20
-95.7992
11
81.2192
21
-95.9196
0
LINE
8
BLACK
6
CONTINUOUS
10
81.2192
20
-95.9196
11
81.3724
21
-96.0728
0
LINE
8
BLACK
6
CONTINUOUS
10
81.3724
20
-96.0728
11
81.4928
21
-96.253
0
LINE
8
BLACK
6
CONTINUOUS
10
81.4928
20
-96.253
11
81.5757
21
-96.4531
0
LINE
8
BLACK
6
CONTINUOUS
10
81.5757
20
-96.4531
11
81.618
21
-96.6657
0
LINE
8
BLACK
6
CONTINUOUS
10
81.618
20
-96.6657
11
81.618
21
-96.8823
0
LINE
8
BLACK
6
CONTINUOUS
10
81.618
20
-96.8823
11
81.5757
21
-97.0949
0
LINE
8
BLACK
6
CONTINUOUS
10
81.5757
20
-97.0949
11
81.4928
21
-97.295
0
LINE
8
BLACK
6
CONTINUOUS
10
81.4928
20
-97.295
11
81.3724
21
-97.4752
0
LINE
8
BLACK
6
CONTINUOUS
10
81.3724
20
-97.4752
11
81.2192
21
-97.6284
0
LINE
8
BLACK
6
CONTINUOUS
10
81.2192
20
-97.6284
11
81.039
21
-97.7488
0
LINE
8
BLACK
6
CONTINUOUS
10
81.039
20
-97.7488
11
80.8389
21
-97.8317
0
LINE
8
BLACK
6
CONTINUOUS
10
80.8389
20
-97.8317
11
80.6263
21
-97.874
0
LINE
8
BLACK
6
CONTINUOUS
10
80.6263
20
-97.874
11
80.4097
21
-97.874
0
LINE
8
BLACK
6
CONTINUOUS
10
80.4097
20
-97.874
11
80.1971
21
-97.8317
0
LINE
8
BLACK
6
CONTINUOUS
10
80.1971
20
-97.8317
11
79.997
21
-97.7488
0
LINE
8
BLACK
6
CONTINUOUS
10
79.997
20
-97.7488
11
79.8168
21
-97.6284
0
LINE
8
BLACK
6
CONTINUOUS
10
79.8168
20
-97.6284
11
79.6636
21
-97.4752
0
LINE
8
BLACK
6
CONTINUOUS
10
79.6636
20
-97.4752
11
79.5959
21
-97.374
0
LINE
8
BLACK
6
CONTINUOUS
10
79.5959
20
-97.374
11
75.3776
21
-97.374
0
LINE
8
BLACK
6
CONTINUOUS
10
75.3776
20
-97.374
11
75.3772
21
-97.3744
0
LINE
8
BLACK
6
CONTINUOUS
10
75.3772
20
-97.3744
11
75.197
21
-97.4948
0
LINE
8
BLACK
6
CONTINUOUS
10
75.197
20
-97.4948
11
74.9969
21
-97.5777
0
LINE
8
BLACK
6
CONTINUOUS
10
74.9969
20
-97.5777
11
74.7843
21
-97.62
0
LINE
8
BLACK
6
CONTINUOUS
10
74.7843
20
-97.62
11
74.5677
21
-97.62
0
LINE
8
BLACK
6
CONTINUOUS
10
74.5677
20
-97.62
11
74.3551
21
-97.5777
0
LINE
8
BLACK
6
CONTINUOUS
10
74.3551
20
-97.5777
11
74.155
21
-97.4948
0
LINE
8
BLACK
6
CONTINUOUS
10
74.155
20
-97.4948
11
73.9748
21
-97.3744
0
LINE
8
BLACK
6
CONTINUOUS
10
73.9748
20
-97.3744
11
73.8216
21
-97.2212
0
LINE
8
BLACK
6
CONTINUOUS
10
73.8216
20
-97.2212
11
73.7012
21
-97.041
0
LINE
8
BLACK
6
CONTINUOUS
10
73.7012
20
-97.041
11
73.6183
21
-96.8409
0
LINE
8
BLACK
6
CONTINUOUS
10
73.6183
20
-96.8409
11
73.576
21
-96.6283
0
LINE
8
BLACK
6
CONTINUOUS
10
73.576
20
-96.6283
11
73.576
21
-96.4117
0
LINE
8
BLACK
6
CONTINUOUS
10
73.576
20
-96.4117
11
73.6183
21
-96.1991
0
LINE
8
BLACK
6
CONTINUOUS
10
73.6183
20
-96.1991
11
73.7012
21
-95.999
0
LINE
8
BLACK
6
CONTINUOUS
10
73.7012
20
-95.999
11
73.8216
21
-95.8188
0
LINE
8
BLACK
6
CONTINUOUS
10
73.8216
20
-95.8188
11
73.9748
21
-95.6656
0
LINE
8
BLACK
6
CONTINUOUS
10
73.9748
20
-95.6656
11
74.155
21
-95.5452
0
LINE
8
BLACK
6
CONTINUOUS
10
74.155
20
-95.5452
11
74.3551
21
-95.4623
0
LINE
8
BLACK
6
CONTINUOUS
10
74.3551
20
-95.4623
11
74.5677
21
-95.42
0
LINE
8
BLACK
6
CONTINUOUS
10
74.5677
20
-95.42
11
74.7843
21
-95.42
0
LINE
8
BLACK
6
CONTINUOUS
10
74.7843
20
-95.42
11
74.9969
21
-95.4623
0
LINE
8
BLACK
6
CONTINUOUS
10
66.02
20
-96.096
11
63.52
21
-96.096
0
LINE
8
BLACK
6
CONTINUOUS
10
63.52
20
-96.096
11
63.52
21
-93.896
0
LINE
8
BLACK
6
CONTINUOUS
10
63.52
20
-93.896
11
66.02
21
-93.896
0
LINE
8
BLACK
6
CONTINUOUS
10
66.02
20
-93.896
11
66.02
21
-96.096
0
LINE
8
BLACK
6
CONTINUOUS
10
93.5389
20
-91.9063
11
93.739
21
-91.9892
0
LINE
8
BLACK
6
CONTINUOUS
10
93.739
20
-91.9892
11
93.9192
21
-92.1096
0
LINE
8
BLACK
6
CONTINUOUS
10
93.9192
20
-92.1096
11
94.0724
21
-92.2628
0
LINE
8
BLACK
6
CONTINUOUS
10
94.0724
20
-92.2628
11
94.1401
21
-92.364
0
LINE
8
BLACK
6
CONTINUOUS
10
94.1401
20
-92.364
11
112.493
21
-92.364
0
LINE
8
BLACK
6
CONTINUOUS
10
112.493
20
-92.364
11
112.522
21
-92.3611
0
LINE
8
BLACK
6
CONTINUOUS
10
112.522
20
-92.3611
11
112.551
21
-92.364
0
LINE
8
BLACK
6
CONTINUOUS
10
112.551
20
-92.364
11
112.633
21
-92.372
0
LINE
8
BLACK
6
CONTINUOUS
10
112.633
20
-92.372
11
114.28
21
-92.372
0
LINE
8
BLACK
6
CONTINUOUS
10
114.28
20
-92.372
11
114.28
21
-94.572
0
LINE
8
BLACK
6
CONTINUOUS
10
114.28
20
-94.572
11
111.78
21
-94.572
0
LINE
8
BLACK
6
CONTINUOUS
10
111.78
20
-94.572
11
111.78
21
-93.564
0
LINE
8
BLACK
6
CONTINUOUS
10
111.78
20
-93.564
11
94.1401
21
-93.564
0
LINE
8
BLACK
6
CONTINUOUS
10
94.1401
20
-93.564
11
94.0724
21
-93.6652
0
LINE
8
BLACK
6
CONTINUOUS
10
94.0724
20
-93.6652
11
93.9192
21
-93.8184
0
LINE
8
BLACK
6
CONTINUOUS
10
93.9192
20
-93.8184
11
93.739
21
-93.9388
0
LINE
8
BLACK
6
CONTINUOUS
10
93.739
20
-93.9388
11
93.5389
21
-94.0217
0
LINE
8
BLACK
6
CONTINUOUS
10
93.5389
20
-94.0217
11
93.3263
21
-94.064
0
LINE
8
BLACK
6
CONTINUOUS
10
93.3263
20
-94.064
11
93.1097
21
-94.064
0
LINE
8
BLACK
6
CONTINUOUS
10
93.1097
20
-94.064
11
92.8971
21
-94.0217
0
LINE
8
BLACK
6
CONTINUOUS
10
92.8971
20
-94.0217
11
92.697
21
-93.9388
0
LINE
8
BLACK
6
CONTINUOUS
10
92.697
20
-93.9388
11
92.5168
21
-93.8184
0
LINE
8
BLACK
6
CONTINUOUS
10
92.5168
20
-93.8184
11
92.3636
21
-93.6652
0
LINE
8
BLACK
6
CONTINUOUS
10
92.3636
20
-93.6652
11
92.2432
21
-93.485
0
LINE
8
BLACK
6
CONTINUOUS
10
92.2432
20
-93.485
11
92.1603
21
-93.2849
0
LINE
8
BLACK
6
CONTINUOUS
10
92.1603
20
-93.2849
11
92.118
21
-93.0723
0
LINE
8
BLACK
6
CONTINUOUS
10
92.118
20
-93.0723
11
92.118
21
-92.8557
0
LINE
8
BLACK
6
CONTINUOUS
10
92.118
20
-92.8557
11
92.1603
21
-92.6431
0
LINE
8
BLACK
6
CONTINUOUS
10
92.1603
20
-92.6431
11
92.2432
21
-92.443
0
LINE
8
BLACK
6
CONTINUOUS
10
92.2432
20
-92.443
11
92.3636
21
-92.2628
0
LINE
8
BLACK
6
CONTINUOUS
10
92.3636
20
-92.2628
11
92.5168
21
-92.1096
0
LINE
8
BLACK
6
CONTINUOUS
10
92.5168
20
-92.1096
11
92.697
21
-91.9892
0
LINE
8
BLACK
6
CONTINUOUS
10
92.697
20
-91.9892
11
92.8971
21
-91.9063
0
LINE
8
BLACK
6
CONTINUOUS
10
92.8971
20
-91.9063
11
93.1097
21
-91.864
0
LINE
8
BLACK
6
CONTINUOUS
10
93.1097
20
-91.864
11
93.3263
21
-91.864
0
LINE
8
BLACK
6
CONTINUOUS
10
93.3263
20
-91.864
11
93.5389
21
-91.9063
0
LINE
8
BLACK
6
CONTINUOUS
10
74.9969
20
-87.3343
11
75.197
21
-87.4172
0
LINE
8
BLACK
6
CONTINUOUS
10
75.197
20
-87.4172
11
75.3772
21
-87.5376
0
LINE
8
BLACK
6
CONTINUOUS
10
75.3772
20
-87.5376
11
75.5304
21
-87.6908
0
LINE
8
BLACK
6
CONTINUOUS
10
75.5304
20
-87.6908
11
75.6508
21
-87.871
0
LINE
8
BLACK
6
CONTINUOUS
10
75.6508
20
-87.871
11
75.7337
21
-88.0711
0
LINE
8
BLACK
6
CONTINUOUS
10
75.7337
20
-88.0711
11
75.776
21
-88.2837
0
LINE
8
BLACK
6
CONTINUOUS
10
75.776
20
-88.2837
11
75.776
21
-88.5003
0
LINE
8
BLACK
6
CONTINUOUS
10
75.776
20
-88.5003
11
75.7337
21
-88.7129
0
LINE
8
BLACK
6
CONTINUOUS
10
75.7337
20
-88.7129
11
75.6508
21
-88.913
0
LINE
8
BLACK
6
CONTINUOUS
10
75.6508
20
-88.913
11
75.5304
21
-89.0932
0
LINE
8
BLACK
6
CONTINUOUS
10
75.5304
20
-89.0932
11
75.3772
21
-89.2464
0
LINE
8
BLACK
6
CONTINUOUS
10
75.3772
20
-89.2464
11
75.276
21
-89.3141
0
LINE
8
BLACK
6
CONTINUOUS
10
75.276
20
-89.3141
11
75.276
21
-90.6835
0
LINE
8
BLACK
6
CONTINUOUS
10
75.276
20
-90.6835
11
76.9565
21
-92.364
0
LINE
8
BLACK
6
CONTINUOUS
10
76.9565
20
-92.364
11
79.5959
21
-92.364
0
LINE
8
BLACK
6
CONTINUOUS
10
79.5959
20
-92.364
11
79.6636
21
-92.2628
0
LINE
8
BLACK
6
CONTINUOUS
10
79.6636
20
-92.2628
11
79.8168
21
-92.1096
0
LINE
8
BLACK
6
CONTINUOUS
10
79.8168
20
-92.1096
11
79.997
21
-91.9892
0
LINE
8
BLACK
6
CONTINUOUS
10
79.997
20
-91.9892
11
80.1971
21
-91.9063
0
LINE
8
BLACK
6
CONTINUOUS
10
80.1971
20
-91.9063
11
80.4097
21
-91.864
0
LINE
8
BLACK
6
CONTINUOUS
10
80.4097
20
-91.864
11
80.6263
21
-91.864
0
LINE
8
BLACK
6
CONTINUOUS
10
80.6263
20
-91.864
11
80.8389
21
-91.9063
0
LINE
8
BLACK
6
CONTINUOUS
10
80.8389
20
-91.9063
11
81.039
21
-91.9892
0
LINE
8
BLACK
6
CONTINUOUS
10
81.039
20
-91.9892
11
81.2192
21
-92.1096
0
LINE
8
BLACK
6
CONTINUOUS
10
81.2192
20
-92.1096
11
81.3724
21
-92.2628
0
LINE
8
BLACK
6
CONTINUOUS
10
81.3724
20
-92.2628
11
81.4928
21
-92.443
0
LINE
8
BLACK
6
CONTINUOUS
10
81.4928
20
-92.443
11
81.5757
21
-92.6431
0
LINE
8
BLACK
6
CONTINUOUS
10
81.5757
20
-92.6431
11
81.618
21
-92.8557
0
LINE
8
BLACK
6
CONTINUOUS
10
81.618
20
-92.8557
11
81.618
21
-93.0723
0
LINE
8
BLACK
6
CONTINUOUS
10
81.618
20
-93.0723
11
81.5757
21
-93.2849
0
LINE
8
BLACK
6
CONTINUOUS
10
81.5757
20
-93.2849
11
81.4928
21
-93.485
0
LINE
8
BLACK
6
CONTINUOUS
10
81.4928
20
-93.485
11
81.3724
21
-93.6652
0
LINE
8
BLACK
6
CONTINUOUS
10
81.3724
20
-93.6652
11
81.2192
21
-93.8184
0
LINE
8
BLACK
6
CONTINUOUS
10
81.2192
20
-93.8184
11
81.039
21
-93.9388
0
LINE
8
BLACK
6
CONTINUOUS
10
81.039
20
-93.9388
11
80.8389
21
-94.0217
0
LINE
8
BLACK
6
CONTINUOUS
10
80.8389
20
-94.0217
11
80.6263
21
-94.064
0
LINE
8
BLACK
6
CONTINUOUS
10
80.6263
20
-94.064
11
80.4097
21
-94.064
0
LINE
8
BLACK
6
CONTINUOUS
10
80.4097
20
-94.064
11
80.1971
21
-94.0217
0
LINE
8
BLACK
6
CONTINUOUS
10
80.1971
20
-94.0217
11
79.997
21
-93.9388
0
LINE
8
BLACK
6
CONTINUOUS
10
79.997
20
-93.9388
11
79.8168
21
-93.8184
0
LINE
8
BLACK
6
CONTINUOUS
10
79.8168
20
-93.8184
11
79.6636
21
-93.6652
0
LINE
8
BLACK
6
CONTINUOUS
10
79.6636
20
-93.6652
11
79.5959
21
-93.564
0
LINE
8
BLACK
6
CONTINUOUS
10
79.5959
20
-93.564
11
76.7375
21
-93.564
0
LINE
8
BLACK
6
CONTINUOUS
10
76.7375
20
-93.564
11
76.708
21
-93.5669
0
LINE
8
BLACK
6
CONTINUOUS
10
76.708
20
-93.5669
11
76.5904
21
-93.5553
0
LINE
8
BLACK
6
CONTINUOUS
10
76.5904
20
-93.5553
11
76.4773
21
-93.521
0
LINE
8
BLACK
6
CONTINUOUS
10
76.4773
20
-93.521
11
76.373
21
-93.4653
0
LINE
8
BLACK
6
CONTINUOUS
10
76.373
20
-93.4653
11
76.2817
21
-93.3903
0
LINE
8
BLACK
6
CONTINUOUS
10
76.2817
20
-93.3903
11
76.2629
21
-93.3674
0
LINE
8
BLACK
6
CONTINUOUS
10
76.2629
20
-93.3674
11
74.2726
21
-91.3771
0
LINE
8
BLACK
6
CONTINUOUS
10
74.2726
20
-91.3771
11
74.2497
21
-91.3583
0
LINE
8
BLACK
6
CONTINUOUS
10
74.2497
20
-91.3583
11
74.1747
21
-91.267
0
LINE
8
BLACK
6
CONTINUOUS
10
74.1747
20
-91.267
11
74.119
21
-91.1627
0
LINE
8
BLACK
6
CONTINUOUS
10
74.119
20
-91.1627
11
74.0847
21
-91.0496
0
LINE
8
BLACK
6
CONTINUOUS
10
74.0847
20
-91.0496
11
74.0731
21
-90.932
0
LINE
8
BLACK
6
CONTINUOUS
10
74.0731
20
-90.932
11
74.076
21
-90.9025
0
LINE
8
BLACK
6
CONTINUOUS
10
74.076
20
-90.9025
11
74.076
21
-89.3141
0
LINE
8
BLACK
6
CONTINUOUS
10
74.076
20
-89.3141
11
73.9748
21
-89.2464
0
LINE
8
BLACK
6
CONTINUOUS
10
73.9748
20
-89.2464
11
73.8216
21
-89.0932
0
LINE
8
BLACK
6
CONTINUOUS
10
73.8216
20
-89.0932
11
73.7012
21
-88.913
0
LINE
8
BLACK
6
CONTINUOUS
10
73.7012
20
-88.913
11
73.6183
21
-88.7129
0
LINE
8
BLACK
6
CONTINUOUS
10
73.6183
20
-88.7129
11
73.576
21
-88.5003
0
LINE
8
BLACK
6
CONTINUOUS
10
73.576
20
-88.5003
11
73.576
21
-88.2837
0
LINE
8
BLACK
6
CONTINUOUS
10
73.576
20
-88.2837
11
73.6183
21
-88.0711
0
LINE
8
BLACK
6
CONTINUOUS
10
73.6183
20
-88.0711
11
73.7012
21
-87.871
0
LINE
8
BLACK
6
CONTINUOUS
10
73.7012
20
-87.871
11
73.8216
21
-87.6908
0
LINE
8
BLACK
6
CONTINUOUS
10
73.8216
20
-87.6908
11
73.9748
21
-87.5376
0
LINE
8
BLACK
6
CONTINUOUS
10
73.9748
20
-87.5376
11
74.155
21
-87.4172
0
LINE
8
BLACK
6
CONTINUOUS
10
74.155
20
-87.4172
11
74.3551
21
-87.3343
0
LINE
8
BLACK
6
CONTINUOUS
10
74.3551
20
-87.3343
11
74.5677
21
-87.292
0
LINE
8
BLACK
6
CONTINUOUS
10
74.5677
20
-87.292
11
74.7843
21
-87.292
0
LINE
8
BLACK
6
CONTINUOUS
10
74.7843
20
-87.292
11
74.9969
21
-87.3343
0
LINE
8
BLACK
6
CONTINUOUS
10
66.02
20
-93.556
11
63.52
21
-93.556
0
LINE
8
BLACK
6
CONTINUOUS
10
63.52
20
-93.556
11
63.52
21
-91.356
0
LINE
8
BLACK
6
CONTINUOUS
10
63.52
20
-91.356
11
66.02
21
-91.356
0
LINE
8
BLACK
6
CONTINUOUS
10
66.02
20
-91.356
11
66.02
21
-93.556
0
LINE
8
BLACK
6
CONTINUOUS
10
114.28
20
-92.032
11
111.78
21
-92.032
0
LINE
8
BLACK
6
CONTINUOUS
10
111.78
20
-92.032
11
111.78
21
-89.832
0
LINE
8
BLACK
6
CONTINUOUS
10
111.78
20
-89.832
11
114.28
21
-89.832
0
LINE
8
BLACK
6
CONTINUOUS
10
114.28
20
-89.832
11
114.28
21
-92.032
0
LINE
8
BLACK
6
CONTINUOUS
10
66.02
20
-91.016
11
63.52
21
-91.016
0
LINE
8
BLACK
6
CONTINUOUS
10
63.52
20
-91.016
11
63.52
21
-88.816
0
LINE
8
BLACK
6
CONTINUOUS
10
63.52
20
-88.816
11
66.02
21
-88.816
0
LINE
8
BLACK
6
CONTINUOUS
10
66.02
20
-88.816
11
66.02
21
-91.016
0
LINE
8
BLACK
6
CONTINUOUS
10
114.28
20
-89.492
11
111.78
21
-89.492
0
LINE
8
BLACK
6
CONTINUOUS
10
111.78
20
-89.492
11
111.78
21
-87.292
0
LINE
8
BLACK
6
CONTINUOUS
10
111.78
20
-87.292
11
114.28
21
-87.292
0
LINE
8
BLACK
6
CONTINUOUS
10
114.28
20
-87.292
11
114.28
21
-89.492
0
LINE
8
BLACK
6
CONTINUOUS
10
84.9029
20
-76.9203
11
85.103
21
-77.0032
0
LINE
8
BLACK
6
CONTINUOUS
10
85.103
20
-77.0032
11
85.2832
21
-77.1236
0
LINE
8
BLACK
6
CONTINUOUS
10
85.2832
20
-77.1236
11
85.4364
21
-77.2768
0
LINE
8
BLACK
6
CONTINUOUS
10
85.4364
20
-77.2768
11
85.5568
21
-77.457
0
LINE
8
BLACK
6
CONTINUOUS
10
85.5568
20
-77.457
11
85.6397
21
-77.6571
0
LINE
8
BLACK
6
CONTINUOUS
10
85.6397
20
-77.6571
11
85.682
21
-77.8697
0
LINE
8
BLACK
6
CONTINUOUS
10
85.682
20
-77.8697
11
85.682
21
-78.0863
0
LINE
8
BLACK
6
CONTINUOUS
10
85.682
20
-78.0863
11
85.6397
21
-78.2989
0
LINE
8
BLACK
6
CONTINUOUS
10
85.6397
20
-78.2989
11
85.5568
21
-78.499
0
LINE
8
BLACK
6
CONTINUOUS
10
85.5568
20
-78.499
11
85.4364
21
-78.6792
0
LINE
8
BLACK
6
CONTINUOUS
10
85.4364
20
-78.6792
11
85.2832
21
-78.8324
0
LINE
8
BLACK
6
CONTINUOUS
10
85.2832
20
-78.8324
11
85.182
21
-78.9001
0
LINE
8
BLACK
6
CONTINUOUS
10
85.182
20
-78.9001
11
85.182
21
-83.2825
0
LINE
8
BLACK
6
CONTINUOUS
10
85.182
20
-83.2825
11
85.1849
21
-83.312
0
LINE
8
BLACK
6
CONTINUOUS
10
85.1849
20
-83.312
11
85.182
21
-83.3415
0
LINE
8
BLACK
6
CONTINUOUS
10
85.182
20
-83.3415
11
85.1733
21
-83.4296
0
LINE
8
BLACK
6
CONTINUOUS
10
85.1733
20
-83.4296
11
85.139
21
-83.5427
0
LINE
8
BLACK
6
CONTINUOUS
10
85.139
20
-83.5427
11
85.0833
21
-83.647
0
LINE
8
BLACK
6
CONTINUOUS
10
85.0833
20
-83.647
11
85.0083
21
-83.7383
0
LINE
8
BLACK
6
CONTINUOUS
10
85.0083
20
-83.7383
11
84.9854
21
-83.7571
0
LINE
8
BLACK
6
CONTINUOUS
10
84.9854
20
-83.7571
11
81.8483
21
-86.8943
0
LINE
8
BLACK
6
CONTINUOUS
10
81.8483
20
-86.8943
11
81.872
21
-87.0137
0
LINE
8
BLACK
6
CONTINUOUS
10
81.872
20
-87.0137
11
81.872
21
-87.2303
0
LINE
8
BLACK
6
CONTINUOUS
10
81.872
20
-87.2303
11
81.8297
21
-87.4429
0
LINE
8
BLACK
6
CONTINUOUS
10
81.8297
20
-87.4429
11
81.7468
21
-87.643
0
LINE
8
BLACK
6
CONTINUOUS
10
81.7468
20
-87.643
11
81.6264
21
-87.8232
0
LINE
8
BLACK
6
CONTINUOUS
10
81.6264
20
-87.8232
11
81.4732
21
-87.9764
0
LINE
8
BLACK
6
CONTINUOUS
10
81.4732
20
-87.9764
11
81.293
21
-88.0968
0
LINE
8
BLACK
6
CONTINUOUS
10
81.293
20
-88.0968
11
81.0929
21
-88.1797
0
LINE
8
BLACK
6
CONTINUOUS
10
81.0929
20
-88.1797
11
80.8803
21
-88.222
0
LINE
8
BLACK
6
CONTINUOUS
10
80.8803
20
-88.222
11
80.6637
21
-88.222
0
LINE
8
BLACK
6
CONTINUOUS
10
80.6637
20
-88.222
11
80.4511
21
-88.1797
0
LINE
8
BLACK
6
CONTINUOUS
10
80.4511
20
-88.1797
11
80.251
21
-88.0968
0
LINE
8
BLACK
6
CONTINUOUS
10
80.251
20
-88.0968
11
80.0708
21
-87.9764
0
LINE
8
BLACK
6
CONTINUOUS
10
80.0708
20
-87.9764
11
79.9176
21
-87.8232
0
LINE
8
BLACK
6
CONTINUOUS
10
79.9176
20
-87.8232
11
79.7972
21
-87.643
0
LINE
8
BLACK
6
CONTINUOUS
10
79.7972
20
-87.643
11
79.7143
21
-87.4429
0
LINE
8
BLACK
6
CONTINUOUS
10
79.7143
20
-87.4429
11
79.672
21
-87.2303
0
LINE
8
BLACK
6
CONTINUOUS
10
79.672
20
-87.2303
11
79.672
21
-87.0137
0
LINE
8
BLACK
6
CONTINUOUS
10
79.672
20
-87.0137
11
79.7143
21
-86.8011
0
LINE
8
BLACK
6
CONTINUOUS
10
79.7143
20
-86.8011
11
79.7972
21
-86.601
0
LINE
8
BLACK
6
CONTINUOUS
10
79.7972
20
-86.601
11
79.9176
21
-86.4208
0
LINE
8
BLACK
6
CONTINUOUS
10
79.9176
20
-86.4208
11
80.0708
21
-86.2676
0
LINE
8
BLACK
6
CONTINUOUS
10
80.0708
20
-86.2676
11
80.251
21
-86.1472
0
LINE
8
BLACK
6
CONTINUOUS
10
80.251
20
-86.1472
11
80.4511
21
-86.0643
0
LINE
8
BLACK
6
CONTINUOUS
10
80.4511
20
-86.0643
11
80.6637
21
-86.022
0
LINE
8
BLACK
6
CONTINUOUS
10
80.6637
20
-86.022
11
80.8803
21
-86.022
0
LINE
8
BLACK
6
CONTINUOUS
10
80.8803
20
-86.022
11
80.9997
21
-86.0457
0
LINE
8
BLACK
6
CONTINUOUS
10
80.9997
20
-86.0457
11
83.982
21
-83.0635
0
LINE
8
BLACK
6
CONTINUOUS
10
83.982
20
-83.0635
11
83.982
21
-78.9001
0
LINE
8
BLACK
6
CONTINUOUS
10
83.982
20
-78.9001
11
83.8808
21
-78.8324
0
LINE
8
BLACK
6
CONTINUOUS
10
83.8808
20
-78.8324
11
83.7276
21
-78.6792
0
LINE
8
BLACK
6
CONTINUOUS
10
83.7276
20
-78.6792
11
83.6072
21
-78.499
0
LINE
8
BLACK
6
CONTINUOUS
10
83.6072
20
-78.499
11
83.5243
21
-78.2989
0
LINE
8
BLACK
6
CONTINUOUS
10
83.5243
20
-78.2989
11
83.482
21
-78.0863
0
LINE
8
BLACK
6
CONTINUOUS
10
83.482
20
-78.0863
11
83.482
21
-77.8697
0
LINE
8
BLACK
6
CONTINUOUS
10
83.482
20
-77.8697
11
83.5243
21
-77.6571
0
LINE
8
BLACK
6
CONTINUOUS
10
83.5243
20
-77.6571
11
83.6072
21
-77.457
0
LINE
8
BLACK
6
CONTINUOUS
10
83.6072
20
-77.457
11
83.7276
21
-77.2768
0
LINE
8
BLACK
6
CONTINUOUS
10
83.7276
20
-77.2768
11
83.8808
21
-77.1236
0
LINE
8
BLACK
6
CONTINUOUS
10
83.8808
20
-77.1236
11
84.061
21
-77.0032
0
LINE
8
BLACK
6
CONTINUOUS
10
84.061
20
-77.0032
11
84.2611
21
-76.9203
0
LINE
8
BLACK
6
CONTINUOUS
10
84.2611
20
-76.9203
11
84.4737
21
-76.878
0
LINE
8
BLACK
6
CONTINUOUS
10
84.4737
20
-76.878
11
84.6903
21
-76.878
0
LINE
8
BLACK
6
CONTINUOUS
10
84.6903
20
-76.878
11
84.9029
21
-76.9203
0
LINE
8
BLACK
6
CONTINUOUS
10
97.012
20
-86.122
11
97.012
21
-88.122
0
LINE
8
BLACK
6
CONTINUOUS
10
97.012
20
-88.122
11
95.012
21
-88.122
0
LINE
8
BLACK
6
CONTINUOUS
10
95.012
20
-88.122
11
95.012
21
-86.122
0
LINE
8
BLACK
6
CONTINUOUS
10
95.012
20
-86.122
11
95.412
21
-86.122
0
LINE
8
BLACK
6
CONTINUOUS
10
95.412
20
-86.122
11
95.412
21
-84.8925
0
LINE
8
BLACK
6
CONTINUOUS
10
95.412
20
-84.8925
11
95.412
21
-84.8925
0
LINE
8
BLACK
6
CONTINUOUS
10
95.412
20
-84.8925
11
95.412
21
-80.9504
0
LINE
8
BLACK
6
CONTINUOUS
10
95.412
20
-80.9504
11
93.9876
21
-79.526
0
LINE
8
BLACK
6
CONTINUOUS
10
93.9876
20
-79.526
11
93.9192
21
-79.5944
0
LINE
8
BLACK
6
CONTINUOUS
10
93.9192
20
-79.5944
11
93.739
21
-79.7148
0
LINE
8
BLACK
6
CONTINUOUS
10
93.739
20
-79.7148
11
93.5389
21
-79.7977
0
LINE
8
BLACK
6
CONTINUOUS
10
93.5389
20
-79.7977
11
93.3263
21
-79.84
0
LINE
8
BLACK
6
CONTINUOUS
10
93.3263
20
-79.84
11
93.1097
21
-79.84
0
LINE
8
BLACK
6
CONTINUOUS
10
93.1097
20
-79.84
11
92.8971
21
-79.7977
0
LINE
8
BLACK
6
CONTINUOUS
10
92.8971
20
-79.7977
11
92.697
21
-79.7148
0
LINE
8
BLACK
6
CONTINUOUS
10
92.697
20
-79.7148
11
92.5168
21
-79.5944
0
LINE
8
BLACK
6
CONTINUOUS
10
92.5168
20
-79.5944
11
92.3636
21
-79.4412
0
LINE
8
BLACK
6
CONTINUOUS
10
92.3636
20
-79.4412
11
92.2432
21
-79.261
0
LINE
8
BLACK
6
CONTINUOUS
10
92.2432
20
-79.261
11
92.1603
21
-79.0609
0
LINE
8
BLACK
6
CONTINUOUS
10
92.1603
20
-79.0609
11
92.118
21
-78.8483
0
LINE
8
BLACK
6
CONTINUOUS
10
92.118
20
-78.8483
11
92.118
21
-78.6317
0
LINE
8
BLACK
6
CONTINUOUS
10
92.118
20
-78.6317
11
92.1603
21
-78.4191
0
LINE
8
BLACK
6
CONTINUOUS
10
92.1603
20
-78.4191
11
92.2432
21
-78.219
0
LINE
8
BLACK
6
CONTINUOUS
10
92.2432
20
-78.219
11
92.3636
21
-78.0388
0
LINE
8
BLACK
6
CONTINUOUS
10
92.3636
20
-78.0388
11
92.5168
21
-77.8856
0
LINE
8
BLACK
6
CONTINUOUS
10
92.5168
20
-77.8856
11
92.697
21
-77.7652
0
LINE
8
BLACK
6
CONTINUOUS
10
92.697
20
-77.7652
11
92.8971
21
-77.6823
0
LINE
8
BLACK
6
CONTINUOUS
10
92.8971
20
-77.6823
11
93.1097
21
-77.64
0
LINE
8
BLACK
6
CONTINUOUS
10
93.1097
20
-77.64
11
93.3263
21
-77.64
0
LINE
8
BLACK
6
CONTINUOUS
10
93.3263
20
-77.64
11
93.5389
21
-77.6823
0
LINE
8
BLACK
6
CONTINUOUS
10
93.5389
20
-77.6823
11
93.739
21
-77.7652
0
LINE
8
BLACK
6
CONTINUOUS
10
93.739
20
-77.7652
11
93.9192
21
-77.8856
0
LINE
8
BLACK
6
CONTINUOUS
10
93.9192
20
-77.8856
11
94.0724
21
-78.0388
0
LINE
8
BLACK
6
CONTINUOUS
10
94.0724
20
-78.0388
11
94.1443
21
-78.1464
0
LINE
8
BLACK
6
CONTINUOUS
10
94.1443
20
-78.1464
11
94.1677
21
-78.1487
0
LINE
8
BLACK
6
CONTINUOUS
10
94.1677
20
-78.1487
11
94.2808
21
-78.183
0
LINE
8
BLACK
6
CONTINUOUS
10
94.2808
20
-78.183
11
94.385
21
-78.2387
0
LINE
8
BLACK
6
CONTINUOUS
10
94.385
20
-78.2387
11
94.4764
21
-78.3137
0
LINE
8
BLACK
6
CONTINUOUS
10
94.4764
20
-78.3137
11
94.4952
21
-78.3366
0
LINE
8
BLACK
6
CONTINUOUS
10
94.4952
20
-78.3366
11
96.4154
21
-80.2568
0
LINE
8
BLACK
6
CONTINUOUS
10
96.4154
20
-80.2568
11
96.4383
21
-80.2756
0
LINE
8
BLACK
6
CONTINUOUS
10
96.4383
20
-80.2756
11
96.5133
21
-80.367
0
LINE
8
BLACK
6
CONTINUOUS
10
96.5133
20
-80.367
11
96.569
21
-80.4712
0
LINE
8
BLACK
6
CONTINUOUS
10
96.569
20
-80.4712
11
96.6033
21
-80.5843
0
LINE
8
BLACK
6
CONTINUOUS
10
96.6033
20
-80.5843
11
96.6149
21
-80.7019
0
LINE
8
BLACK
6
CONTINUOUS
10
96.6149
20
-80.7019
11
96.612
21
-80.7314
0
LINE
8
BLACK
6
CONTINUOUS
10
96.612
20
-80.7314
11
96.612
21
-86.122
0
LINE
8
BLACK
6
CONTINUOUS
10
96.612
20
-86.122
11
97.012
21
-86.122
0
LINE
8
BLACK
6
CONTINUOUS
10
114.28
20
-86.952
11
111.78
21
-86.952
0
LINE
8
BLACK
6
CONTINUOUS
10
111.78
20
-86.952
11
111.78
21
-84.752
0
LINE
8
BLACK
6
CONTINUOUS
10
111.78
20
-84.752
11
114.28
21
-84.752
0
LINE
8
BLACK
6
CONTINUOUS
10
114.28
20
-84.752
11
114.28
21
-86.952
0
LINE
8
BLACK
6
CONTINUOUS
10
114.28
20
-84.412
11
111.78
21
-84.412
0
LINE
8
BLACK
6
CONTINUOUS
10
111.78
20
-84.412
11
111.78
21
-82.212
0
LINE
8
BLACK
6
CONTINUOUS
10
111.78
20
-82.212
11
114.28
21
-82.212
0
LINE
8
BLACK
6
CONTINUOUS
10
114.28
20
-82.212
11
114.28
21
-84.412
0
LINE
8
BLACK
6
CONTINUOUS
10
93.5389
20
-80.2223
11
93.739
21
-80.3052
0
LINE
8
BLACK
6
CONTINUOUS
10
93.739
20
-80.3052
11
93.9192
21
-80.4256
0
LINE
8
BLACK
6
CONTINUOUS
10
93.9192
20
-80.4256
11
94.0724
21
-80.5788
0
LINE
8
BLACK
6
CONTINUOUS
10
94.0724
20
-80.5788
11
94.1928
21
-80.759
0
LINE
8
BLACK
6
CONTINUOUS
10
94.1928
20
-80.759
11
94.2757
21
-80.9591
0
LINE
8
BLACK
6
CONTINUOUS
10
94.2757
20
-80.9591
11
94.318
21
-81.1717
0
LINE
8
BLACK
6
CONTINUOUS
10
94.318
20
-81.1717
11
94.318
21
-81.3883
0
LINE
8
BLACK
6
CONTINUOUS
10
94.318
20
-81.3883
11
94.2757
21
-81.6009
0
LINE
8
BLACK
6
CONTINUOUS
10
94.2757
20
-81.6009
11
94.1928
21
-81.801
0
LINE
8
BLACK
6
CONTINUOUS
10
94.1928
20
-81.801
11
94.0724
21
-81.9812
0
LINE
8
BLACK
6
CONTINUOUS
10
94.0724
20
-81.9812
11
93.9192
21
-82.1344
0
LINE
8
BLACK
6
CONTINUOUS
10
93.9192
20
-82.1344
11
93.739
21
-82.2548
0
LINE
8
BLACK
6
CONTINUOUS
10
93.739
20
-82.2548
11
93.5389
21
-82.3377
0
LINE
8
BLACK
6
CONTINUOUS
10
93.5389
20
-82.3377
11
93.3263
21
-82.38
0
LINE
8
BLACK
6
CONTINUOUS
10
93.3263
20
-82.38
11
93.1097
21
-82.38
0
LINE
8
BLACK
6
CONTINUOUS
10
93.1097
20
-82.38
11
92.8971
21
-82.3377
0
LINE
8
BLACK
6
CONTINUOUS
10
92.8971
20
-82.3377
11
92.697
21
-82.2548
0
LINE
8
BLACK
6
CONTINUOUS
10
92.697
20
-82.2548
11
92.5168
21
-82.1344
0
LINE
8
BLACK
6
CONTINUOUS
10
92.5168
20
-82.1344
11
92.3636
21
-81.9812
0
LINE
8
BLACK
6
CONTINUOUS
10
92.3636
20
-81.9812
11
92.2432
21
-81.801
0
LINE
8
BLACK
6
CONTINUOUS
10
92.2432
20
-81.801
11
92.1603
21
-81.6009
0
LINE
8
BLACK
6
CONTINUOUS
10
92.1603
20
-81.6009
11
92.118
21
-81.3883
0
LINE
8
BLACK
6
CONTINUOUS
10
92.118
20
-81.3883
11
92.118
21
-81.1717
0
LINE
8
BLACK
6
CONTINUOUS
10
92.118
20
-81.1717
11
92.1603
21
-80.9591
0
LINE
8
BLACK
6
CONTINUOUS
10
92.1603
20
-80.9591
11
92.2432
21
-80.759
0
LINE
8
BLACK
6
CONTINUOUS
10
92.2432
20
-80.759
11
92.3636
21
-80.5788
0
LINE
8
BLACK
6
CONTINUOUS
10
92.3636
20
-80.5788
11
92.5168
21
-80.4256
0
LINE
8
BLACK
6
CONTINUOUS
10
92.5168
20
-80.4256
11
92.697
21
-80.3052
0
LINE
8
BLACK
6
CONTINUOUS
10
92.697
20
-80.3052
11
92.8971
21
-80.2223
0
LINE
8
BLACK
6
CONTINUOUS
10
92.8971
20
-80.2223
11
93.1097
21
-80.18
0
LINE
8
BLACK
6
CONTINUOUS
10
93.1097
20
-80.18
11
93.3263
21
-80.18
0
LINE
8
BLACK
6
CONTINUOUS
10
93.3263
20
-80.18
11
93.5389
21
-80.2223
0
LINE
8
BLACK
6
CONTINUOUS
10
114.28
20
-81.872
11
111.78
21
-81.872
0
LINE
8
BLACK
6
CONTINUOUS
10
111.78
20
-81.872
11
111.78
21
-79.672
0
LINE
8
BLACK
6
CONTINUOUS
10
111.78
20
-79.672
11
114.28
21
-79.672
0
LINE
8
BLACK
6
CONTINUOUS
10
114.28
20
-79.672
11
114.28
21
-81.872
0
LINE
8
BLACK
6
CONTINUOUS
10
96.9356
20
-77.5308
11
97.0888
21
-77.3776
0
LINE
8
BLACK
6
CONTINUOUS
10
97.0888
20
-77.3776
11
97.269
21
-77.2572
0
LINE
8
BLACK
6
CONTINUOUS
10
97.269
20
-77.2572
11
97.4691
21
-77.1743
0
LINE
8
BLACK
6
CONTINUOUS
10
97.4691
20
-77.1743
11
97.6817
21
-77.132
0
LINE
8
BLACK
6
CONTINUOUS
10
97.6817
20
-77.132
11
97.8983
21
-77.132
0
LINE
8
BLACK
6
CONTINUOUS
10
97.8983
20
-77.132
11
98.1109
21
-77.1743
0
LINE
8
BLACK
6
CONTINUOUS
10
98.1109
20
-77.1743
11
98.311
21
-77.2572
0
LINE
8
BLACK
6
CONTINUOUS
10
98.311
20
-77.2572
11
98.4912
21
-77.3776
0
LINE
8
BLACK
6
CONTINUOUS
10
98.4912
20
-77.3776
11
98.6444
21
-77.5308
0
LINE
8
BLACK
6
CONTINUOUS
10
98.6444
20
-77.5308
11
98.7121
21
-77.632
0
LINE
8
BLACK
6
CONTINUOUS
10
98.7121
20
-77.632
11
101.627
21
-77.632
0
LINE
8
BLACK
6
CONTINUOUS
10
101.627
20
-77.632
11
101.624
21
-77.6177
0
LINE
8
BLACK
6
CONTINUOUS
10
101.624
20
-77.6177
11
101.624
21
-77.3223
0
LINE
8
BLACK
6
CONTINUOUS
10
101.624
20
-77.3223
11
101.682
21
-77.0325
0
LINE
8
BLACK
6
CONTINUOUS
10
101.682
20
-77.0325
11
101.795
21
-76.7595
0
LINE
8
BLACK
6
CONTINUOUS
10
101.795
20
-76.7595
11
101.959
21
-76.5138
0
LINE
8
BLACK
6
CONTINUOUS
10
101.959
20
-76.5138
11
102.168
21
-76.3049
0
LINE
8
BLACK
6
CONTINUOUS
10
102.168
20
-76.3049
11
102.413
21
-76.1407
0
LINE
8
BLACK
6
CONTINUOUS
10
102.413
20
-76.1407
11
102.686
21
-76.0276
0
LINE
8
BLACK
6
CONTINUOUS
10
102.686
20
-76.0276
11
102.976
21
-75.97
0
LINE
8
BLACK
6
CONTINUOUS
10
102.976
20
-75.97
11
103.272
21
-75.97
0
LINE
8
BLACK
6
CONTINUOUS
10
103.272
20
-75.97
11
103.562
21
-76.0276
0
LINE
8
BLACK
6
CONTINUOUS
10
103.562
20
-76.0276
11
103.835
21
-76.1407
0
LINE
8
BLACK
6
CONTINUOUS
10
103.835
20
-76.1407
11
104.08
21
-76.3049
0
LINE
8
BLACK
6
CONTINUOUS
10
104.08
20
-76.3049
11
104.289
21
-76.5138
0
LINE
8
BLACK
6
CONTINUOUS
10
104.289
20
-76.5138
11
104.453
21
-76.7595
0
LINE
8
BLACK
6
CONTINUOUS
10
104.453
20
-76.7595
11
104.566
21
-77.0325
0
LINE
8
BLACK
6
CONTINUOUS
10
104.566
20
-77.0325
11
104.624
21
-77.3223
0
LINE
8
BLACK
6
CONTINUOUS
10
104.624
20
-77.3223
11
104.624
21
-77.6177
0
LINE
8
BLACK
6
CONTINUOUS
10
104.624
20
-77.6177
11
104.566
21
-77.9075
0
LINE
8
BLACK
6
CONTINUOUS
10
104.566
20
-77.9075
11
104.453
21
-78.1805
0
LINE
8
BLACK
6
CONTINUOUS
10
104.453
20
-78.1805
11
104.289
21
-78.4262
0
LINE
8
BLACK
6
CONTINUOUS
10
104.289
20
-78.4262
11
104.08
21
-78.6351
0
LINE
8
BLACK
6
CONTINUOUS
10
104.08
20
-78.6351
11
103.835
21
-78.7993
0
LINE
8
BLACK
6
CONTINUOUS
10
103.835
20
-78.7993
11
103.562
21
-78.9124
0
LINE
8
BLACK
6
CONTINUOUS
10
103.562
20
-78.9124
11
103.272
21
-78.97
0
LINE
8
BLACK
6
CONTINUOUS
10
103.272
20
-78.97
11
102.976
21
-78.97
0
LINE
8
BLACK
6
CONTINUOUS
10
102.976
20
-78.97
11
102.686
21
-78.9124
0
LINE
8
BLACK
6
CONTINUOUS
10
102.686
20
-78.9124
11
102.473
21
-78.824
0
LINE
8
BLACK
6
CONTINUOUS
10
102.473
20
-78.824
11
102.391
21
-78.832
0
LINE
8
BLACK
6
CONTINUOUS
10
102.391
20
-78.832
11
102.362
21
-78.8349
0
LINE
8
BLACK
6
CONTINUOUS
10
102.362
20
-78.8349
11
102.333
21
-78.832
0
LINE
8
BLACK
6
CONTINUOUS
10
102.333
20
-78.832
11
98.7121
21
-78.832
0
LINE
8
BLACK
6
CONTINUOUS
10
98.7121
20
-78.832
11
98.6444
21
-78.9332
0
LINE
8
BLACK
6
CONTINUOUS
10
98.6444
20
-78.9332
11
98.4912
21
-79.0864
0
LINE
8
BLACK
6
CONTINUOUS
10
98.4912
20
-79.0864
11
98.311
21
-79.2068
0
LINE
8
BLACK
6
CONTINUOUS
10
98.311
20
-79.2068
11
98.1109
21
-79.2897
0
LINE
8
BLACK
6
CONTINUOUS
10
98.1109
20
-79.2897
11
97.8983
21
-79.332
0
LINE
8
BLACK
6
CONTINUOUS
10
97.8983
20
-79.332
11
97.6817
21
-79.332
0
LINE
8
BLACK
6
CONTINUOUS
10
97.6817
20
-79.332
11
97.4691
21
-79.2897
0
LINE
8
BLACK
6
CONTINUOUS
10
97.4691
20
-79.2897
11
97.269
21
-79.2068
0
LINE
8
BLACK
6
CONTINUOUS
10
97.269
20
-79.2068
11
97.0888
21
-79.0864
0
LINE
8
BLACK
6
CONTINUOUS
10
97.0888
20
-79.0864
11
96.9356
21
-78.9332
0
LINE
8
BLACK
6
CONTINUOUS
10
96.9356
20
-78.9332
11
96.8679
21
-78.832
0
LINE
8
BLACK
6
CONTINUOUS
10
96.8679
20
-78.832
11
95.5515
21
-78.832
0
LINE
8
BLACK
6
CONTINUOUS
10
95.5515
20
-78.832
11
95.522
21
-78.8349
0
LINE
8
BLACK
6
CONTINUOUS
10
95.522
20
-78.8349
11
95.4044
21
-78.8233
0
LINE
8
BLACK
6
CONTINUOUS
10
95.4044
20
-78.8233
11
95.2913
21
-78.789
0
LINE
8
BLACK
6
CONTINUOUS
10
95.2913
20
-78.789
11
95.187
21
-78.7333
0
LINE
8
BLACK
6
CONTINUOUS
10
95.187
20
-78.7333
11
95.0957
21
-78.6583
0
LINE
8
BLACK
6
CONTINUOUS
10
95.0957
20
-78.6583
11
95.0769
21
-78.6354
0
LINE
8
BLACK
6
CONTINUOUS
10
95.0769
20
-78.6354
11
93.6415
21
-77.2
0
LINE
8
BLACK
6
CONTINUOUS
10
93.6415
20
-77.2
11
92.218
21
-77.2
0
LINE
8
BLACK
6
CONTINUOUS
10
92.218
20
-77.2
11
92.218
21
-75.2
0
LINE
8
BLACK
6
CONTINUOUS
10
92.218
20
-75.2
11
94.218
21
-75.2
0
LINE
8
BLACK
6
CONTINUOUS
10
94.218
20
-75.2
11
94.218
21
-76.0795
0
LINE
8
BLACK
6
CONTINUOUS
10
94.218
20
-76.0795
11
95.7705
21
-77.632
0
LINE
8
BLACK
6
CONTINUOUS
10
95.7705
20
-77.632
11
96.8679
21
-77.632
0
LINE
8
BLACK
6
CONTINUOUS
10
96.8679
20
-77.632
11
96.9356
21
-77.5308
0
CIRCLE
8
BLACK
10
92.71
20
-112.522
40
0.5
0
CIRCLE
8
BLACK
10
80.264
20
-113.03
40
0.5
  0
ENDSEC
  0
EOF
