G04 #@! TF.GenerationSoftware,KiCad,Pcbnew,(5.1.2)-2*
G04 #@! TF.CreationDate,2020-09-08T11:20:29+07:00*
G04 #@! TF.ProjectId,Balancing_Robot,42616c61-6e63-4696-9e67-5f526f626f74,rev?*
G04 #@! TF.SameCoordinates,Original*
G04 #@! TF.FileFunction,Soldermask,Bot*
G04 #@! TF.FilePolarity,Negative*
%FSLAX46Y46*%
G04 Gerber Fmt 4.6, Leading zero omitted, Abs format (unit mm)*
G04 Created by KiCad (PCBNEW (5.1.2)-2) date 2020-09-08 11:20:29*
%MOMM*%
%LPD*%
G04 APERTURE LIST*
%ADD10C,0.100000*%
G04 APERTURE END LIST*
D10*
G36*
X114181000Y-159647000D02*
G01*
X68699000Y-159647000D01*
X68699000Y-154805000D01*
X114181000Y-154805000D01*
X114181000Y-159647000D01*
X114181000Y-159647000D01*
G37*
G36*
X66071000Y-154567000D02*
G01*
X63469000Y-154567000D01*
X63469000Y-134485000D01*
X66071000Y-134485000D01*
X66071000Y-154567000D01*
X66071000Y-154567000D01*
G37*
G36*
X114331000Y-149487000D02*
G01*
X111729000Y-149487000D01*
X111729000Y-129405000D01*
X114331000Y-129405000D01*
X114331000Y-149487000D01*
X114331000Y-149487000D01*
G37*
G36*
X88019000Y-145169000D02*
G01*
X78097000Y-145169000D01*
X78097000Y-142867000D01*
X88019000Y-142867000D01*
X88019000Y-145169000D01*
X88019000Y-145169000D01*
G37*
G36*
X104021000Y-138819000D02*
G01*
X101719000Y-138819000D01*
X101719000Y-128897000D01*
X104021000Y-128897000D01*
X104021000Y-138819000D01*
X104021000Y-138819000D01*
G37*
G36*
X66071000Y-131707000D02*
G01*
X63469000Y-131707000D01*
X63469000Y-111625000D01*
X66071000Y-111625000D01*
X66071000Y-131707000D01*
X66071000Y-131707000D01*
G37*
G36*
X114331000Y-126627000D02*
G01*
X111729000Y-126627000D01*
X111729000Y-106545000D01*
X114331000Y-106545000D01*
X114331000Y-126627000D01*
X114331000Y-126627000D01*
G37*
G36*
X96909000Y-123071000D02*
G01*
X76827000Y-123071000D01*
X76827000Y-120769000D01*
X96909000Y-120769000D01*
X96909000Y-123071000D01*
X96909000Y-123071000D01*
G37*
G36*
X104275000Y-123071000D02*
G01*
X101973000Y-123071000D01*
X101973000Y-113149000D01*
X104275000Y-113149000D01*
X104275000Y-123071000D01*
X104275000Y-123071000D01*
G37*
G36*
X104275000Y-109355000D02*
G01*
X101973000Y-109355000D01*
X101973000Y-99433000D01*
X104275000Y-99433000D01*
X104275000Y-109355000D01*
X104275000Y-109355000D01*
G37*
G36*
X66071000Y-108847000D02*
G01*
X63469000Y-108847000D01*
X63469000Y-88765000D01*
X66071000Y-88765000D01*
X66071000Y-108847000D01*
X66071000Y-108847000D01*
G37*
G36*
X74900549Y-104027116D02*
G01*
X75011734Y-104049232D01*
X75221203Y-104135997D01*
X75409720Y-104261960D01*
X75570040Y-104422280D01*
X75696003Y-104610797D01*
X75782768Y-104820266D01*
X75827000Y-105042636D01*
X75827000Y-105269364D01*
X75782768Y-105491734D01*
X75696003Y-105701203D01*
X75570040Y-105889720D01*
X75409720Y-106050040D01*
X75221203Y-106176003D01*
X75011734Y-106262768D01*
X74900549Y-106284884D01*
X74789365Y-106307000D01*
X74562635Y-106307000D01*
X74451451Y-106284884D01*
X74340266Y-106262768D01*
X74130797Y-106176003D01*
X73942280Y-106050040D01*
X73781960Y-105889720D01*
X73655997Y-105701203D01*
X73569232Y-105491734D01*
X73525000Y-105269364D01*
X73525000Y-105042636D01*
X73569232Y-104820266D01*
X73655997Y-104610797D01*
X73781960Y-104422280D01*
X73942280Y-104261960D01*
X74130797Y-104135997D01*
X74340266Y-104049232D01*
X74451451Y-104027116D01*
X74562635Y-104005000D01*
X74789365Y-104005000D01*
X74900549Y-104027116D01*
X74900549Y-104027116D01*
G37*
G36*
X73187000Y-106207000D02*
G01*
X71085000Y-106207000D01*
X71085000Y-104105000D01*
X73187000Y-104105000D01*
X73187000Y-106207000D01*
X73187000Y-106207000D01*
G37*
G36*
X114331000Y-104783000D02*
G01*
X111729000Y-104783000D01*
X111729000Y-79621000D01*
X114331000Y-79621000D01*
X114331000Y-104783000D01*
X114331000Y-104783000D01*
G37*
G36*
X80742549Y-99201116D02*
G01*
X80853734Y-99223232D01*
X81063203Y-99309997D01*
X81251720Y-99435960D01*
X81412040Y-99596280D01*
X81538003Y-99784797D01*
X81624768Y-99994266D01*
X81669000Y-100216636D01*
X81669000Y-100443364D01*
X81624768Y-100665734D01*
X81538003Y-100875203D01*
X81412040Y-101063720D01*
X81251720Y-101224040D01*
X81063203Y-101350003D01*
X80853734Y-101436768D01*
X80742549Y-101458884D01*
X80631365Y-101481000D01*
X80404635Y-101481000D01*
X80293451Y-101458884D01*
X80182266Y-101436768D01*
X79972797Y-101350003D01*
X79784280Y-101224040D01*
X79623960Y-101063720D01*
X79497997Y-100875203D01*
X79411232Y-100665734D01*
X79367000Y-100443364D01*
X79367000Y-100216636D01*
X79411232Y-99994266D01*
X79497997Y-99784797D01*
X79623960Y-99596280D01*
X79784280Y-99435960D01*
X79972797Y-99309997D01*
X80182266Y-99223232D01*
X80293451Y-99201116D01*
X80404635Y-99179000D01*
X80631365Y-99179000D01*
X80742549Y-99201116D01*
X80742549Y-99201116D01*
G37*
G36*
X93442549Y-99201116D02*
G01*
X93553734Y-99223232D01*
X93763203Y-99309997D01*
X93951720Y-99435960D01*
X94112040Y-99596280D01*
X94238003Y-99784797D01*
X94324768Y-99994266D01*
X94369000Y-100216636D01*
X94369000Y-100443364D01*
X94324768Y-100665734D01*
X94238003Y-100875203D01*
X94112040Y-101063720D01*
X93951720Y-101224040D01*
X93763203Y-101350003D01*
X93553734Y-101436768D01*
X93442549Y-101458884D01*
X93331365Y-101481000D01*
X93104635Y-101481000D01*
X92993451Y-101458884D01*
X92882266Y-101436768D01*
X92672797Y-101350003D01*
X92484280Y-101224040D01*
X92323960Y-101063720D01*
X92197997Y-100875203D01*
X92111232Y-100665734D01*
X92067000Y-100443364D01*
X92067000Y-100216636D01*
X92111232Y-99994266D01*
X92197997Y-99784797D01*
X92323960Y-99596280D01*
X92484280Y-99435960D01*
X92672797Y-99309997D01*
X92882266Y-99223232D01*
X92993451Y-99201116D01*
X93104635Y-99179000D01*
X93331365Y-99179000D01*
X93442549Y-99201116D01*
X93442549Y-99201116D01*
G37*
G36*
X93442549Y-95645116D02*
G01*
X93553734Y-95667232D01*
X93763203Y-95753997D01*
X93951720Y-95879960D01*
X94112040Y-96040280D01*
X94183348Y-96147000D01*
X94238004Y-96228799D01*
X94324768Y-96438267D01*
X94363576Y-96633365D01*
X94369000Y-96660636D01*
X94369000Y-96887364D01*
X94324768Y-97109734D01*
X94238003Y-97319203D01*
X94112040Y-97507720D01*
X93951720Y-97668040D01*
X93763203Y-97794003D01*
X93553734Y-97880768D01*
X93442549Y-97902884D01*
X93331365Y-97925000D01*
X93104635Y-97925000D01*
X92993451Y-97902884D01*
X92882266Y-97880768D01*
X92672797Y-97794003D01*
X92484280Y-97668040D01*
X92323960Y-97507720D01*
X92197997Y-97319203D01*
X92111232Y-97109734D01*
X92067000Y-96887364D01*
X92067000Y-96660636D01*
X92072425Y-96633365D01*
X92111232Y-96438267D01*
X92197996Y-96228799D01*
X92252652Y-96147000D01*
X92323960Y-96040280D01*
X92484280Y-95879960D01*
X92672797Y-95753997D01*
X92882266Y-95667232D01*
X92993451Y-95645116D01*
X93104635Y-95623000D01*
X93331365Y-95623000D01*
X93442549Y-95645116D01*
X93442549Y-95645116D01*
G37*
G36*
X80742549Y-95645116D02*
G01*
X80853734Y-95667232D01*
X81063203Y-95753997D01*
X81251720Y-95879960D01*
X81412040Y-96040280D01*
X81483348Y-96147000D01*
X81538004Y-96228799D01*
X81624768Y-96438267D01*
X81663576Y-96633365D01*
X81669000Y-96660636D01*
X81669000Y-96887364D01*
X81624768Y-97109734D01*
X81538003Y-97319203D01*
X81412040Y-97507720D01*
X81251720Y-97668040D01*
X81063203Y-97794003D01*
X80853734Y-97880768D01*
X80742549Y-97902884D01*
X80631365Y-97925000D01*
X80404635Y-97925000D01*
X80293451Y-97902884D01*
X80182266Y-97880768D01*
X79972797Y-97794003D01*
X79784280Y-97668040D01*
X79623960Y-97507720D01*
X79497997Y-97319203D01*
X79411232Y-97109734D01*
X79367000Y-96887364D01*
X79367000Y-96660636D01*
X79372425Y-96633365D01*
X79411232Y-96438267D01*
X79497996Y-96228799D01*
X79552652Y-96147000D01*
X79623960Y-96040280D01*
X79784280Y-95879960D01*
X79972797Y-95753997D01*
X80182266Y-95667232D01*
X80293451Y-95645116D01*
X80404635Y-95623000D01*
X80631365Y-95623000D01*
X80742549Y-95645116D01*
X80742549Y-95645116D01*
G37*
G36*
X74900549Y-95391116D02*
G01*
X75011734Y-95413232D01*
X75221203Y-95499997D01*
X75409720Y-95625960D01*
X75570040Y-95786280D01*
X75696003Y-95974797D01*
X75696004Y-95974799D01*
X75782768Y-96184267D01*
X75827000Y-96406635D01*
X75827000Y-96633365D01*
X75821575Y-96660636D01*
X75782768Y-96855734D01*
X75696003Y-97065203D01*
X75570040Y-97253720D01*
X75409720Y-97414040D01*
X75221203Y-97540003D01*
X75011734Y-97626768D01*
X74900549Y-97648884D01*
X74789365Y-97671000D01*
X74562635Y-97671000D01*
X74451451Y-97648884D01*
X74340266Y-97626768D01*
X74130797Y-97540003D01*
X73942280Y-97414040D01*
X73781960Y-97253720D01*
X73655997Y-97065203D01*
X73569232Y-96855734D01*
X73530425Y-96660636D01*
X73525000Y-96633365D01*
X73525000Y-96406635D01*
X73569232Y-96184267D01*
X73655996Y-95974799D01*
X73655997Y-95974797D01*
X73781960Y-95786280D01*
X73942280Y-95625960D01*
X74130797Y-95499997D01*
X74340266Y-95413232D01*
X74451451Y-95391116D01*
X74562635Y-95369000D01*
X74789365Y-95369000D01*
X74900549Y-95391116D01*
X74900549Y-95391116D01*
G37*
G36*
X73187000Y-97571000D02*
G01*
X71085000Y-97571000D01*
X71085000Y-95469000D01*
X73187000Y-95469000D01*
X73187000Y-97571000D01*
X73187000Y-97571000D01*
G37*
G36*
X93442549Y-91835116D02*
G01*
X93553734Y-91857232D01*
X93763203Y-91943997D01*
X93951720Y-92069960D01*
X94112040Y-92230280D01*
X94238003Y-92418797D01*
X94324768Y-92628266D01*
X94369000Y-92850636D01*
X94369000Y-93077364D01*
X94324768Y-93299734D01*
X94238003Y-93509203D01*
X94112040Y-93697720D01*
X93951720Y-93858040D01*
X93763203Y-93984003D01*
X93553734Y-94070768D01*
X93442549Y-94092884D01*
X93331365Y-94115000D01*
X93104635Y-94115000D01*
X92993451Y-94092884D01*
X92882266Y-94070768D01*
X92672797Y-93984003D01*
X92484280Y-93858040D01*
X92323960Y-93697720D01*
X92197997Y-93509203D01*
X92111232Y-93299734D01*
X92067000Y-93077364D01*
X92067000Y-92850636D01*
X92111232Y-92628266D01*
X92197997Y-92418797D01*
X92323960Y-92230280D01*
X92484280Y-92069960D01*
X92672797Y-91943997D01*
X92882266Y-91857232D01*
X92993451Y-91835116D01*
X93104635Y-91813000D01*
X93331365Y-91813000D01*
X93442549Y-91835116D01*
X93442549Y-91835116D01*
G37*
G36*
X80742549Y-91835116D02*
G01*
X80853734Y-91857232D01*
X81063203Y-91943997D01*
X81251720Y-92069960D01*
X81412040Y-92230280D01*
X81538003Y-92418797D01*
X81624768Y-92628266D01*
X81669000Y-92850636D01*
X81669000Y-93077364D01*
X81624768Y-93299734D01*
X81538003Y-93509203D01*
X81412040Y-93697720D01*
X81251720Y-93858040D01*
X81063203Y-93984003D01*
X80853734Y-94070768D01*
X80742549Y-94092884D01*
X80631365Y-94115000D01*
X80404635Y-94115000D01*
X80293451Y-94092884D01*
X80182266Y-94070768D01*
X79972797Y-93984003D01*
X79784280Y-93858040D01*
X79623960Y-93697720D01*
X79497997Y-93509203D01*
X79411232Y-93299734D01*
X79367000Y-93077364D01*
X79367000Y-92850636D01*
X79411232Y-92628266D01*
X79497997Y-92418797D01*
X79623960Y-92230280D01*
X79784280Y-92069960D01*
X79972797Y-91943997D01*
X80182266Y-91857232D01*
X80293451Y-91835116D01*
X80404635Y-91813000D01*
X80631365Y-91813000D01*
X80742549Y-91835116D01*
X80742549Y-91835116D01*
G37*
G36*
X74900549Y-87263116D02*
G01*
X75011734Y-87285232D01*
X75221203Y-87371997D01*
X75409720Y-87497960D01*
X75570040Y-87658280D01*
X75696003Y-87846797D01*
X75782768Y-88056266D01*
X75827000Y-88278636D01*
X75827000Y-88505364D01*
X75782768Y-88727734D01*
X75696003Y-88937203D01*
X75570040Y-89125720D01*
X75409720Y-89286040D01*
X75221203Y-89412003D01*
X75011734Y-89498768D01*
X74900549Y-89520884D01*
X74789365Y-89543000D01*
X74562635Y-89543000D01*
X74451451Y-89520884D01*
X74340266Y-89498768D01*
X74130797Y-89412003D01*
X73942280Y-89286040D01*
X73781960Y-89125720D01*
X73655997Y-88937203D01*
X73569232Y-88727734D01*
X73525000Y-88505364D01*
X73525000Y-88278636D01*
X73569232Y-88056266D01*
X73655997Y-87846797D01*
X73781960Y-87658280D01*
X73942280Y-87497960D01*
X74130797Y-87371997D01*
X74340266Y-87285232D01*
X74451451Y-87263116D01*
X74562635Y-87241000D01*
X74789365Y-87241000D01*
X74900549Y-87263116D01*
X74900549Y-87263116D01*
G37*
G36*
X73187000Y-89443000D02*
G01*
X71085000Y-89443000D01*
X71085000Y-87341000D01*
X73187000Y-87341000D01*
X73187000Y-89443000D01*
X73187000Y-89443000D01*
G37*
G36*
X80996549Y-85993116D02*
G01*
X81107734Y-86015232D01*
X81317203Y-86101997D01*
X81505720Y-86227960D01*
X81666040Y-86388280D01*
X81792003Y-86576797D01*
X81878768Y-86786266D01*
X81923000Y-87008636D01*
X81923000Y-87235364D01*
X81878768Y-87457734D01*
X81792003Y-87667203D01*
X81666040Y-87855720D01*
X81505720Y-88016040D01*
X81317203Y-88142003D01*
X81107734Y-88228768D01*
X80996549Y-88250884D01*
X80885365Y-88273000D01*
X80658635Y-88273000D01*
X80547451Y-88250884D01*
X80436266Y-88228768D01*
X80226797Y-88142003D01*
X80038280Y-88016040D01*
X79877960Y-87855720D01*
X79751997Y-87667203D01*
X79665232Y-87457734D01*
X79621000Y-87235364D01*
X79621000Y-87008636D01*
X79665232Y-86786266D01*
X79751997Y-86576797D01*
X79877960Y-86388280D01*
X80038280Y-86227960D01*
X80226797Y-86101997D01*
X80436266Y-86015232D01*
X80547451Y-85993116D01*
X80658635Y-85971000D01*
X80885365Y-85971000D01*
X80996549Y-85993116D01*
X80996549Y-85993116D01*
G37*
G36*
X93696549Y-85993116D02*
G01*
X93807734Y-86015232D01*
X94017203Y-86101997D01*
X94205720Y-86227960D01*
X94366040Y-86388280D01*
X94492003Y-86576797D01*
X94578768Y-86786266D01*
X94623000Y-87008636D01*
X94623000Y-87235364D01*
X94578768Y-87457734D01*
X94492003Y-87667203D01*
X94366040Y-87855720D01*
X94205720Y-88016040D01*
X94017203Y-88142003D01*
X93807734Y-88228768D01*
X93696549Y-88250884D01*
X93585365Y-88273000D01*
X93358635Y-88273000D01*
X93247451Y-88250884D01*
X93136266Y-88228768D01*
X92926797Y-88142003D01*
X92738280Y-88016040D01*
X92577960Y-87855720D01*
X92451997Y-87667203D01*
X92365232Y-87457734D01*
X92321000Y-87235364D01*
X92321000Y-87008636D01*
X92365232Y-86786266D01*
X92451997Y-86576797D01*
X92577960Y-86388280D01*
X92738280Y-86227960D01*
X92926797Y-86101997D01*
X93136266Y-86015232D01*
X93247451Y-85993116D01*
X93358635Y-85971000D01*
X93585365Y-85971000D01*
X93696549Y-85993116D01*
X93696549Y-85993116D01*
G37*
G36*
X108936549Y-85993116D02*
G01*
X109047734Y-86015232D01*
X109257203Y-86101997D01*
X109445720Y-86227960D01*
X109606040Y-86388280D01*
X109732003Y-86576797D01*
X109818768Y-86786266D01*
X109863000Y-87008636D01*
X109863000Y-87235364D01*
X109818768Y-87457734D01*
X109732003Y-87667203D01*
X109606040Y-87855720D01*
X109445720Y-88016040D01*
X109257203Y-88142003D01*
X109047734Y-88228768D01*
X108936549Y-88250884D01*
X108825365Y-88273000D01*
X108598635Y-88273000D01*
X108487451Y-88250884D01*
X108376266Y-88228768D01*
X108166797Y-88142003D01*
X107978280Y-88016040D01*
X107817960Y-87855720D01*
X107691997Y-87667203D01*
X107605232Y-87457734D01*
X107561000Y-87235364D01*
X107561000Y-87008636D01*
X107605232Y-86786266D01*
X107691997Y-86576797D01*
X107817960Y-86388280D01*
X107978280Y-86227960D01*
X108166797Y-86101997D01*
X108376266Y-86015232D01*
X108487451Y-85993116D01*
X108598635Y-85971000D01*
X108825365Y-85971000D01*
X108936549Y-85993116D01*
X108936549Y-85993116D01*
G37*
G36*
X97063000Y-88173000D02*
G01*
X94961000Y-88173000D01*
X94961000Y-86071000D01*
X97063000Y-86071000D01*
X97063000Y-88173000D01*
X97063000Y-88173000D01*
G37*
G36*
X93442549Y-77611116D02*
G01*
X93553734Y-77633232D01*
X93763203Y-77719997D01*
X93951720Y-77845960D01*
X94112040Y-78006280D01*
X94238003Y-78194797D01*
X94238004Y-78194799D01*
X94242094Y-78204674D01*
X94324768Y-78404266D01*
X94369000Y-78626636D01*
X94369000Y-78853364D01*
X94324768Y-79075734D01*
X94302704Y-79129000D01*
X94251755Y-79252004D01*
X94238003Y-79285203D01*
X94112040Y-79473720D01*
X93951720Y-79634040D01*
X93763203Y-79760003D01*
X93553734Y-79846768D01*
X93426161Y-79872144D01*
X93349448Y-79887403D01*
X93325999Y-79894516D01*
X93304388Y-79906067D01*
X93285446Y-79921612D01*
X93269901Y-79940554D01*
X93258350Y-79962165D01*
X93251237Y-79985614D01*
X93248835Y-80010000D01*
X93251237Y-80034386D01*
X93258350Y-80057835D01*
X93269901Y-80079446D01*
X93285446Y-80098388D01*
X93304388Y-80113933D01*
X93325999Y-80125484D01*
X93349448Y-80132597D01*
X93426161Y-80147856D01*
X93553734Y-80173232D01*
X93763203Y-80259997D01*
X93951720Y-80385960D01*
X94112040Y-80546280D01*
X94238003Y-80734797D01*
X94324768Y-80944266D01*
X94369000Y-81166636D01*
X94369000Y-81393364D01*
X94324768Y-81615734D01*
X94238003Y-81825203D01*
X94112040Y-82013720D01*
X93951720Y-82174040D01*
X93763203Y-82300003D01*
X93553734Y-82386768D01*
X93442549Y-82408884D01*
X93331365Y-82431000D01*
X93104635Y-82431000D01*
X92993451Y-82408884D01*
X92882266Y-82386768D01*
X92672797Y-82300003D01*
X92484280Y-82174040D01*
X92323960Y-82013720D01*
X92197997Y-81825203D01*
X92111232Y-81615734D01*
X92067000Y-81393364D01*
X92067000Y-81166636D01*
X92111232Y-80944266D01*
X92197997Y-80734797D01*
X92323960Y-80546280D01*
X92484280Y-80385960D01*
X92672797Y-80259997D01*
X92882266Y-80173232D01*
X93009839Y-80147856D01*
X93086552Y-80132597D01*
X93110001Y-80125484D01*
X93131612Y-80113933D01*
X93150554Y-80098388D01*
X93166099Y-80079446D01*
X93177650Y-80057835D01*
X93184763Y-80034386D01*
X93187165Y-80010000D01*
X93184763Y-79985614D01*
X93177650Y-79962165D01*
X93166099Y-79940554D01*
X93150554Y-79921612D01*
X93131612Y-79906067D01*
X93110001Y-79894516D01*
X93086552Y-79887403D01*
X93009839Y-79872144D01*
X92882266Y-79846768D01*
X92672797Y-79760003D01*
X92484280Y-79634040D01*
X92323960Y-79473720D01*
X92197997Y-79285203D01*
X92184246Y-79252004D01*
X92133296Y-79129000D01*
X92111232Y-79075734D01*
X92067000Y-78853364D01*
X92067000Y-78626636D01*
X92111232Y-78404266D01*
X92193906Y-78204674D01*
X92197996Y-78194799D01*
X92197997Y-78194797D01*
X92323960Y-78006280D01*
X92484280Y-77845960D01*
X92672797Y-77719997D01*
X92882266Y-77633232D01*
X92993451Y-77611116D01*
X93104635Y-77589000D01*
X93331365Y-77589000D01*
X93442549Y-77611116D01*
X93442549Y-77611116D01*
G37*
G36*
X98014549Y-74603116D02*
G01*
X98125734Y-74625232D01*
X98335203Y-74711997D01*
X98523720Y-74837960D01*
X98684040Y-74998280D01*
X98810003Y-75186797D01*
X98810004Y-75186799D01*
X98896768Y-75396267D01*
X98941000Y-75618635D01*
X98941000Y-75845365D01*
X98896768Y-76067733D01*
X98814951Y-76265259D01*
X98810003Y-76277203D01*
X98684040Y-76465720D01*
X98523720Y-76626040D01*
X98335203Y-76752003D01*
X98125734Y-76838768D01*
X98021993Y-76859403D01*
X97998545Y-76866516D01*
X97976934Y-76878067D01*
X97957992Y-76893612D01*
X97942447Y-76912554D01*
X97930896Y-76934165D01*
X97923783Y-76957614D01*
X97921381Y-76982000D01*
X97923783Y-77006386D01*
X97930896Y-77029835D01*
X97942447Y-77051446D01*
X97957992Y-77070388D01*
X97976934Y-77085933D01*
X97998545Y-77097484D01*
X98021993Y-77104597D01*
X98125734Y-77125232D01*
X98335203Y-77211997D01*
X98523720Y-77337960D01*
X98684040Y-77498280D01*
X98774212Y-77633232D01*
X98810004Y-77686799D01*
X98823755Y-77719997D01*
X98875931Y-77845960D01*
X98896768Y-77896267D01*
X98935576Y-78091365D01*
X98941000Y-78118636D01*
X98941000Y-78345364D01*
X98896768Y-78567734D01*
X98810003Y-78777203D01*
X98684040Y-78965720D01*
X98523720Y-79126040D01*
X98335203Y-79252003D01*
X98125734Y-79338768D01*
X98014549Y-79360884D01*
X97903365Y-79383000D01*
X97676635Y-79383000D01*
X97565451Y-79360884D01*
X97454266Y-79338768D01*
X97244797Y-79252003D01*
X97056280Y-79126040D01*
X96895960Y-78965720D01*
X96769997Y-78777203D01*
X96683232Y-78567734D01*
X96639000Y-78345364D01*
X96639000Y-78118636D01*
X96644425Y-78091365D01*
X96683232Y-77896267D01*
X96704070Y-77845960D01*
X96756245Y-77719997D01*
X96769996Y-77686799D01*
X96805788Y-77633232D01*
X96895960Y-77498280D01*
X97056280Y-77337960D01*
X97244797Y-77211997D01*
X97454266Y-77125232D01*
X97558007Y-77104597D01*
X97581455Y-77097484D01*
X97603066Y-77085933D01*
X97622008Y-77070388D01*
X97637553Y-77051446D01*
X97649104Y-77029835D01*
X97656217Y-77006386D01*
X97658619Y-76982000D01*
X97656217Y-76957614D01*
X97649104Y-76934165D01*
X97637553Y-76912554D01*
X97622008Y-76893612D01*
X97603066Y-76878067D01*
X97581455Y-76866516D01*
X97558007Y-76859403D01*
X97454266Y-76838768D01*
X97244797Y-76752003D01*
X97056280Y-76626040D01*
X96895960Y-76465720D01*
X96769997Y-76277203D01*
X96765050Y-76265259D01*
X96683232Y-76067733D01*
X96639000Y-75845365D01*
X96639000Y-75618635D01*
X96683232Y-75396267D01*
X96769996Y-75186799D01*
X96769997Y-75186797D01*
X96895960Y-74998280D01*
X97056280Y-74837960D01*
X97244797Y-74711997D01*
X97454266Y-74625232D01*
X97565451Y-74603116D01*
X97676635Y-74581000D01*
X97903365Y-74581000D01*
X98014549Y-74603116D01*
X98014549Y-74603116D01*
G37*
G36*
X84754526Y-76838768D02*
G01*
X84917734Y-76871232D01*
X85017494Y-76912554D01*
X85126279Y-76957614D01*
X85127203Y-76957997D01*
X85315720Y-77083960D01*
X85476040Y-77244280D01*
X85602003Y-77432797D01*
X85680689Y-77622761D01*
X85688768Y-77642267D01*
X85733000Y-77864635D01*
X85733000Y-78091365D01*
X85727575Y-78118636D01*
X85688768Y-78313734D01*
X85602003Y-78523203D01*
X85476040Y-78711720D01*
X85315720Y-78872040D01*
X85127203Y-78998003D01*
X84917734Y-79084768D01*
X84806549Y-79106884D01*
X84695365Y-79129000D01*
X84468635Y-79129000D01*
X84357451Y-79106884D01*
X84246266Y-79084768D01*
X84036797Y-78998003D01*
X83848280Y-78872040D01*
X83687960Y-78711720D01*
X83561997Y-78523203D01*
X83475232Y-78313734D01*
X83436425Y-78118636D01*
X83431000Y-78091365D01*
X83431000Y-77864635D01*
X83475232Y-77642267D01*
X83483312Y-77622761D01*
X83561997Y-77432797D01*
X83687960Y-77244280D01*
X83848280Y-77083960D01*
X84036797Y-76957997D01*
X84037722Y-76957614D01*
X84146506Y-76912554D01*
X84246266Y-76871232D01*
X84409474Y-76838768D01*
X84468635Y-76827000D01*
X84695365Y-76827000D01*
X84754526Y-76838768D01*
X84754526Y-76838768D01*
G37*
G36*
X103426585Y-75948802D02*
G01*
X103576410Y-75978604D01*
X103858674Y-76095521D01*
X104112705Y-76265259D01*
X104328741Y-76481295D01*
X104498479Y-76735326D01*
X104615396Y-77017590D01*
X104675000Y-77317240D01*
X104675000Y-77622760D01*
X104615396Y-77922410D01*
X104498479Y-78204674D01*
X104328741Y-78458705D01*
X104112705Y-78674741D01*
X103858674Y-78844479D01*
X103576410Y-78961396D01*
X103426585Y-78991198D01*
X103276761Y-79021000D01*
X102971239Y-79021000D01*
X102821415Y-78991198D01*
X102671590Y-78961396D01*
X102389326Y-78844479D01*
X102135295Y-78674741D01*
X101919259Y-78458705D01*
X101749521Y-78204674D01*
X101632604Y-77922410D01*
X101573000Y-77622760D01*
X101573000Y-77317240D01*
X101632604Y-77017590D01*
X101749521Y-76735326D01*
X101919259Y-76481295D01*
X102135295Y-76265259D01*
X102389326Y-76095521D01*
X102671590Y-75978604D01*
X102821415Y-75948802D01*
X102971239Y-75919000D01*
X103276761Y-75919000D01*
X103426585Y-75948802D01*
X103426585Y-75948802D01*
G37*
G36*
X109755000Y-79021000D02*
G01*
X106653000Y-79021000D01*
X106653000Y-75919000D01*
X109755000Y-75919000D01*
X109755000Y-79021000D01*
X109755000Y-79021000D01*
G37*
G36*
X94269000Y-77251000D02*
G01*
X92167000Y-77251000D01*
X92167000Y-75149000D01*
X94269000Y-75149000D01*
X94269000Y-77251000D01*
X94269000Y-77251000D01*
G37*
G36*
X85533000Y-76389000D02*
G01*
X83631000Y-76389000D01*
X83631000Y-74487000D01*
X85533000Y-74487000D01*
X85533000Y-76389000D01*
X85533000Y-76389000D01*
G37*
M02*
