  0
SECTION
  2
HEADER
  9
$ANGBASE
  50
0.0
  9
$ANGDIR
  70
  1
  9
$MEASUREMENT
  70
0
  0
ENDSEC
  0
SECTION
  2
TABLES
  0
TABLE
  2
LTYPE
  70
4
  0
LTYPE
  5
40F
  2
CONTINUOUS
  70
0
  3
Solid line
  72
65
  73
0
  40
0.0
  0
LTYPE
  5
410
  2
DASHDOT
 70
0
  3
Dash Dot ____ _ ____ _
 72
65
 73
4
 40
2.0
 49
1.25
 49
-0.25
 49
0.25
 49
-0.25
  0
LTYPE
  5
411
  2
DASHED
 70
0
  3
Dashed __ __ __ __ __
 72
65
 73
2
 40
0.75
 49
0.5
 49
-0.25
  0
LTYPE
  5
43B
  2
DOTTED
 70
0
  3
Dotted .  .  .  .
 72
65
 73
2
 40
0.2
 49
0.0
 49
-0.2
  0
ENDTAB
  0
TABLE
  2
STYLE
  70
4
  0
STYLE
  2
KICAD
  70
0
  40
0
  41
1
  42
1
  50
0
  71
0
  3
isocp.shx
  0
STYLE
  2
KICADB
  70
0
  40
0
  41
1
  42
1
  50
0
  71
0
  3
isocp.shx
  0
STYLE
  2
KICADI
  70
0
  40
0
  41
1
  42
1
  50
15
  71
0
  3
isocp.shx
  0
STYLE
  2
KICADBI
  70
0
  40
0
  41
1
  42
1
  50
15
  71
0
  3
isocp.shx
  0
ENDTAB
  0
TABLE
  2
LAYER
  70
30
  0
LAYER
  2
BLACK
  70
0
  62
7
  6
CONTINUOUS
  0
LAYER
  2
GRAY1
  70
0
  62
251
  6
CONTINUOUS
  0
LAYER
  2
GRAY2
  70
0
  62
8
  6
CONTINUOUS
  0
LAYER
  2
GRAY3
  70
0
  62
9
  6
CONTINUOUS
  0
LAYER
  2
WHITE
  70
0
  62
7
  6
CONTINUOUS
  0
LAYER
  2
LYELLOW
  70
0
  62
51
  6
CONTINUOUS
  0
LAYER
  2
BLUE1
  70
0
  62
178
  6
CONTINUOUS
  0
LAYER
  2
GREEN1
  70
0
  62
98
  6
CONTINUOUS
  0
LAYER
  2
CYAN1
  70
0
  62
138
  6
CONTINUOUS
  0
LAYER
  2
RED1
  70
0
  62
18
  6
CONTINUOUS
  0
LAYER
  2
MAGENTA1
  70
0
  62
228
  6
CONTINUOUS
  0
LAYER
  2
BROWN1
  70
0
  62
58
  6
CONTINUOUS
  0
LAYER
  2
BLUE2
  70
0
  62
5
  6
CONTINUOUS
  0
LAYER
  2
GREEN2
  70
0
  62
3
  6
CONTINUOUS
  0
LAYER
  2
CYAN2
  70
0
  62
4
  6
CONTINUOUS
  0
LAYER
  2
RED2
  70
0
  62
1
  6
CONTINUOUS
  0
LAYER
  2
MAGENTA2
  70
0
  62
6
  6
CONTINUOUS
  0
LAYER
  2
BROWN2
  70
0
  62
54
  6
CONTINUOUS
  0
LAYER
  2
BLUE3
  70
0
  62
171
  6
CONTINUOUS
  0
LAYER
  2
GREEN3
  70
0
  62
91
  6
CONTINUOUS
  0
LAYER
  2
CYAN3
  70
0
  62
131
  6
CONTINUOUS
  0
LAYER
  2
RED3
  70
0
  62
11
  6
CONTINUOUS
  0
LAYER
  2
MAGENTA3
  70
0
  62
221
  6
CONTINUOUS
  0
LAYER
  2
YELLOW3
  70
0
  62
2
  6
CONTINUOUS
  0
LAYER
  2
BLUE4
  70
0
  62
5
  6
CONTINUOUS
  0
LAYER
  2
GREEN4
  70
0
  62
3
  6
CONTINUOUS
  0
LAYER
  2
CYAN4
  70
0
  62
4
  6
CONTINUOUS
  0
LAYER
  2
RED4
  70
0
  62
1
  6
CONTINUOUS
  0
LAYER
  2
MAGENTA4
  70
0
  62
6
  6
CONTINUOUS
  0
LAYER
  2
YELLOW4
  70
0
  62
2
  6
CONTINUOUS
  0
ENDTAB
  0
ENDSEC
  0
SECTION
  2
ENTITIES
0
LINE
8
BLACK
6
CONTINUOUS
10
81.11
20
-159.596
11
78.91
21
-159.596
0
LINE
8
BLACK
6
CONTINUOUS
10
78.91
20
-159.596
11
78.91
21
-157.396
0
LINE
8
BLACK
6
CONTINUOUS
10
78.91
20
-157.396
11
81.11
21
-157.396
0
LINE
8
BLACK
6
CONTINUOUS
10
81.11
20
-157.396
11
81.11
21
-159.596
0
LINE
8
BLACK
6
CONTINUOUS
10
96.35
20
-159.596
11
94.15
21
-159.596
0
LINE
8
BLACK
6
CONTINUOUS
10
94.15
20
-159.596
11
94.15
21
-157.396
0
LINE
8
BLACK
6
CONTINUOUS
10
94.15
20
-157.396
11
96.35
21
-157.396
0
LINE
8
BLACK
6
CONTINUOUS
10
96.35
20
-157.396
11
96.35
21
-159.596
0
LINE
8
BLACK
6
CONTINUOUS
10
98.89
20
-159.596
11
96.69
21
-159.596
0
LINE
8
BLACK
6
CONTINUOUS
10
96.69
20
-159.596
11
96.69
21
-157.396
0
LINE
8
BLACK
6
CONTINUOUS
10
96.69
20
-157.396
11
98.89
21
-157.396
0
LINE
8
BLACK
6
CONTINUOUS
10
98.89
20
-157.396
11
98.89
21
-159.596
0
LINE
8
BLACK
6
CONTINUOUS
10
93.81
20
-159.596
11
91.61
21
-159.596
0
LINE
8
BLACK
6
CONTINUOUS
10
91.61
20
-159.596
11
91.61
21
-157.396
0
LINE
8
BLACK
6
CONTINUOUS
10
91.61
20
-157.396
11
93.81
21
-157.396
0
LINE
8
BLACK
6
CONTINUOUS
10
93.81
20
-157.396
11
93.81
21
-159.596
0
LINE
8
BLACK
6
CONTINUOUS
10
91.27
20
-159.596
11
89.07
21
-159.596
0
LINE
8
BLACK
6
CONTINUOUS
10
89.07
20
-159.596
11
89.07
21
-157.396
0
LINE
8
BLACK
6
CONTINUOUS
10
89.07
20
-157.396
11
91.27
21
-157.396
0
LINE
8
BLACK
6
CONTINUOUS
10
91.27
20
-157.396
11
91.27
21
-159.596
0
LINE
8
BLACK
6
CONTINUOUS
10
101.43
20
-159.596
11
99.23
21
-159.596
0
LINE
8
BLACK
6
CONTINUOUS
10
99.23
20
-159.596
11
99.23
21
-157.396
0
LINE
8
BLACK
6
CONTINUOUS
10
99.23
20
-157.396
11
101.43
21
-157.396
0
LINE
8
BLACK
6
CONTINUOUS
10
101.43
20
-157.396
11
101.43
21
-159.596
0
LINE
8
BLACK
6
CONTINUOUS
10
88.73
20
-159.596
11
86.53
21
-159.596
0
LINE
8
BLACK
6
CONTINUOUS
10
86.53
20
-159.596
11
86.53
21
-157.396
0
LINE
8
BLACK
6
CONTINUOUS
10
86.53
20
-157.396
11
88.73
21
-157.396
0
LINE
8
BLACK
6
CONTINUOUS
10
88.73
20
-157.396
11
88.73
21
-159.596
0
LINE
8
BLACK
6
CONTINUOUS
10
86.19
20
-159.596
11
83.99
21
-159.596
0
LINE
8
BLACK
6
CONTINUOUS
10
83.99
20
-159.596
11
83.99
21
-157.396
0
LINE
8
BLACK
6
CONTINUOUS
10
83.99
20
-157.396
11
86.19
21
-157.396
0
LINE
8
BLACK
6
CONTINUOUS
10
86.19
20
-157.396
11
86.19
21
-159.596
0
LINE
8
BLACK
6
CONTINUOUS
10
103.97
20
-159.596
11
101.77
21
-159.596
0
LINE
8
BLACK
6
CONTINUOUS
10
101.77
20
-159.596
11
101.77
21
-157.396
0
LINE
8
BLACK
6
CONTINUOUS
10
101.77
20
-157.396
11
103.97
21
-157.396
0
LINE
8
BLACK
6
CONTINUOUS
10
103.97
20
-157.396
11
103.97
21
-159.596
0
LINE
8
BLACK
6
CONTINUOUS
10
83.65
20
-159.596
11
81.45
21
-159.596
0
LINE
8
BLACK
6
CONTINUOUS
10
81.45
20
-159.596
11
81.45
21
-157.396
0
LINE
8
BLACK
6
CONTINUOUS
10
81.45
20
-157.396
11
83.65
21
-157.396
0
LINE
8
BLACK
6
CONTINUOUS
10
83.65
20
-157.396
11
83.65
21
-159.596
0
LINE
8
BLACK
6
CONTINUOUS
10
106.51
20
-159.596
11
104.31
21
-159.596
0
LINE
8
BLACK
6
CONTINUOUS
10
104.31
20
-159.596
11
104.31
21
-157.396
0
LINE
8
BLACK
6
CONTINUOUS
10
104.31
20
-157.396
11
106.51
21
-157.396
0
LINE
8
BLACK
6
CONTINUOUS
10
106.51
20
-157.396
11
106.51
21
-159.596
0
LINE
8
BLACK
6
CONTINUOUS
10
78.57
20
-159.596
11
76.37
21
-159.596
0
LINE
8
BLACK
6
CONTINUOUS
10
76.37
20
-159.596
11
76.37
21
-157.396
0
LINE
8
BLACK
6
CONTINUOUS
10
76.37
20
-157.396
11
78.57
21
-157.396
0
LINE
8
BLACK
6
CONTINUOUS
10
78.57
20
-157.396
11
78.57
21
-159.596
0
LINE
8
BLACK
6
CONTINUOUS
10
76.03
20
-159.596
11
73.83
21
-159.596
0
LINE
8
BLACK
6
CONTINUOUS
10
73.83
20
-159.596
11
73.83
21
-157.396
0
LINE
8
BLACK
6
CONTINUOUS
10
73.83
20
-157.396
11
76.03
21
-157.396
0
LINE
8
BLACK
6
CONTINUOUS
10
76.03
20
-157.396
11
76.03
21
-159.596
0
LINE
8
BLACK
6
CONTINUOUS
10
109.05
20
-159.596
11
106.85
21
-159.596
0
LINE
8
BLACK
6
CONTINUOUS
10
106.85
20
-159.596
11
106.85
21
-157.396
0
LINE
8
BLACK
6
CONTINUOUS
10
106.85
20
-157.396
11
109.05
21
-157.396
0
LINE
8
BLACK
6
CONTINUOUS
10
109.05
20
-157.396
11
109.05
21
-159.596
0
LINE
8
BLACK
6
CONTINUOUS
10
73.49
20
-159.596
11
71.29
21
-159.596
0
LINE
8
BLACK
6
CONTINUOUS
10
71.29
20
-159.596
11
71.29
21
-157.396
0
LINE
8
BLACK
6
CONTINUOUS
10
71.29
20
-157.396
11
73.49
21
-157.396
0
LINE
8
BLACK
6
CONTINUOUS
10
73.49
20
-157.396
11
73.49
21
-159.596
0
LINE
8
BLACK
6
CONTINUOUS
10
70.95
20
-159.596
11
68.75
21
-159.596
0
LINE
8
BLACK
6
CONTINUOUS
10
68.75
20
-159.596
11
68.75
21
-157.396
0
LINE
8
BLACK
6
CONTINUOUS
10
68.75
20
-157.396
11
70.95
21
-157.396
0
LINE
8
BLACK
6
CONTINUOUS
10
70.95
20
-157.396
11
70.95
21
-159.596
0
LINE
8
BLACK
6
CONTINUOUS
10
111.59
20
-159.596
11
109.39
21
-159.596
0
LINE
8
BLACK
6
CONTINUOUS
10
109.39
20
-159.596
11
109.39
21
-157.396
0
LINE
8
BLACK
6
CONTINUOUS
10
109.39
20
-157.396
11
111.59
21
-157.396
0
LINE
8
BLACK
6
CONTINUOUS
10
111.59
20
-157.396
11
111.59
21
-159.596
0
LINE
8
BLACK
6
CONTINUOUS
10
114.13
20
-159.596
11
111.93
21
-159.596
0
LINE
8
BLACK
6
CONTINUOUS
10
111.93
20
-159.596
11
111.93
21
-157.396
0
LINE
8
BLACK
6
CONTINUOUS
10
111.93
20
-157.396
11
114.13
21
-157.396
0
LINE
8
BLACK
6
CONTINUOUS
10
114.13
20
-157.396
11
114.13
21
-159.596
0
LINE
8
BLACK
6
CONTINUOUS
10
114.13
20
-157.056
11
111.93
21
-157.056
0
LINE
8
BLACK
6
CONTINUOUS
10
111.93
20
-157.056
11
111.93
21
-154.856
0
LINE
8
BLACK
6
CONTINUOUS
10
111.93
20
-154.856
11
114.13
21
-154.856
0
LINE
8
BLACK
6
CONTINUOUS
10
114.13
20
-154.856
11
114.13
21
-157.056
0
LINE
8
BLACK
6
CONTINUOUS
10
103.97
20
-157.056
11
101.77
21
-157.056
0
LINE
8
BLACK
6
CONTINUOUS
10
101.77
20
-157.056
11
101.77
21
-154.856
0
LINE
8
BLACK
6
CONTINUOUS
10
101.77
20
-154.856
11
103.97
21
-154.856
0
LINE
8
BLACK
6
CONTINUOUS
10
103.97
20
-154.856
11
103.97
21
-157.056
0
LINE
8
BLACK
6
CONTINUOUS
10
106.51
20
-157.056
11
104.31
21
-157.056
0
LINE
8
BLACK
6
CONTINUOUS
10
104.31
20
-157.056
11
104.31
21
-154.856
0
LINE
8
BLACK
6
CONTINUOUS
10
104.31
20
-154.856
11
106.51
21
-154.856
0
LINE
8
BLACK
6
CONTINUOUS
10
106.51
20
-154.856
11
106.51
21
-157.056
0
LINE
8
BLACK
6
CONTINUOUS
10
101.43
20
-157.056
11
99.23
21
-157.056
0
LINE
8
BLACK
6
CONTINUOUS
10
99.23
20
-157.056
11
99.23
21
-154.856
0
LINE
8
BLACK
6
CONTINUOUS
10
99.23
20
-154.856
11
101.43
21
-154.856
0
LINE
8
BLACK
6
CONTINUOUS
10
101.43
20
-154.856
11
101.43
21
-157.056
0
LINE
8
BLACK
6
CONTINUOUS
10
109.05
20
-157.056
11
106.85
21
-157.056
0
LINE
8
BLACK
6
CONTINUOUS
10
106.85
20
-157.056
11
106.85
21
-154.856
0
LINE
8
BLACK
6
CONTINUOUS
10
106.85
20
-154.856
11
109.05
21
-154.856
0
LINE
8
BLACK
6
CONTINUOUS
10
109.05
20
-154.856
11
109.05
21
-157.056
0
LINE
8
BLACK
6
CONTINUOUS
10
98.89
20
-157.056
11
96.69
21
-157.056
0
LINE
8
BLACK
6
CONTINUOUS
10
96.69
20
-157.056
11
96.69
21
-154.856
0
LINE
8
BLACK
6
CONTINUOUS
10
96.69
20
-154.856
11
98.89
21
-154.856
0
LINE
8
BLACK
6
CONTINUOUS
10
98.89
20
-154.856
11
98.89
21
-157.056
0
LINE
8
BLACK
6
CONTINUOUS
10
111.59
20
-157.056
11
109.39
21
-157.056
0
LINE
8
BLACK
6
CONTINUOUS
10
109.39
20
-157.056
11
109.39
21
-154.856
0
LINE
8
BLACK
6
CONTINUOUS
10
109.39
20
-154.856
11
111.59
21
-154.856
0
LINE
8
BLACK
6
CONTINUOUS
10
111.59
20
-154.856
11
111.59
21
-157.056
0
LINE
8
BLACK
6
CONTINUOUS
10
96.35
20
-157.056
11
94.15
21
-157.056
0
LINE
8
BLACK
6
CONTINUOUS
10
94.15
20
-157.056
11
94.15
21
-154.856
0
LINE
8
BLACK
6
CONTINUOUS
10
94.15
20
-154.856
11
96.35
21
-154.856
0
LINE
8
BLACK
6
CONTINUOUS
10
96.35
20
-154.856
11
96.35
21
-157.056
0
LINE
8
BLACK
6
CONTINUOUS
10
93.81
20
-157.056
11
91.61
21
-157.056
0
LINE
8
BLACK
6
CONTINUOUS
10
91.61
20
-157.056
11
91.61
21
-154.856
0
LINE
8
BLACK
6
CONTINUOUS
10
91.61
20
-154.856
11
93.81
21
-154.856
0
LINE
8
BLACK
6
CONTINUOUS
10
93.81
20
-154.856
11
93.81
21
-157.056
0
LINE
8
BLACK
6
CONTINUOUS
10
91.27
20
-157.056
11
89.07
21
-157.056
0
LINE
8
BLACK
6
CONTINUOUS
10
89.07
20
-157.056
11
89.07
21
-154.856
0
LINE
8
BLACK
6
CONTINUOUS
10
89.07
20
-154.856
11
91.27
21
-154.856
0
LINE
8
BLACK
6
CONTINUOUS
10
91.27
20
-154.856
11
91.27
21
-157.056
0
LINE
8
BLACK
6
CONTINUOUS
10
88.73
20
-157.056
11
86.53
21
-157.056
0
LINE
8
BLACK
6
CONTINUOUS
10
86.53
20
-157.056
11
86.53
21
-154.856
0
LINE
8
BLACK
6
CONTINUOUS
10
86.53
20
-154.856
11
88.73
21
-154.856
0
LINE
8
BLACK
6
CONTINUOUS
10
88.73
20
-154.856
11
88.73
21
-157.056
0
LINE
8
BLACK
6
CONTINUOUS
10
86.19
20
-157.056
11
83.99
21
-157.056
0
LINE
8
BLACK
6
CONTINUOUS
10
83.99
20
-157.056
11
83.99
21
-154.856
0
LINE
8
BLACK
6
CONTINUOUS
10
83.99
20
-154.856
11
86.19
21
-154.856
0
LINE
8
BLACK
6
CONTINUOUS
10
86.19
20
-154.856
11
86.19
21
-157.056
0
LINE
8
BLACK
6
CONTINUOUS
10
83.65
20
-157.056
11
81.45
21
-157.056
0
LINE
8
BLACK
6
CONTINUOUS
10
81.45
20
-157.056
11
81.45
21
-154.856
0
LINE
8
BLACK
6
CONTINUOUS
10
81.45
20
-154.856
11
83.65
21
-154.856
0
LINE
8
BLACK
6
CONTINUOUS
10
83.65
20
-154.856
11
83.65
21
-157.056
0
LINE
8
BLACK
6
CONTINUOUS
10
81.11
20
-157.056
11
78.91
21
-157.056
0
LINE
8
BLACK
6
CONTINUOUS
10
78.91
20
-157.056
11
78.91
21
-154.856
0
LINE
8
BLACK
6
CONTINUOUS
10
78.91
20
-154.856
11
81.11
21
-154.856
0
LINE
8
BLACK
6
CONTINUOUS
10
81.11
20
-154.856
11
81.11
21
-157.056
0
LINE
8
BLACK
6
CONTINUOUS
10
78.57
20
-157.056
11
76.37
21
-157.056
0
LINE
8
BLACK
6
CONTINUOUS
10
76.37
20
-157.056
11
76.37
21
-154.856
0
LINE
8
BLACK
6
CONTINUOUS
10
76.37
20
-154.856
11
78.57
21
-154.856
0
LINE
8
BLACK
6
CONTINUOUS
10
78.57
20
-154.856
11
78.57
21
-157.056
0
LINE
8
BLACK
6
CONTINUOUS
10
76.03
20
-157.056
11
73.83
21
-157.056
0
LINE
8
BLACK
6
CONTINUOUS
10
73.83
20
-157.056
11
73.83
21
-154.856
0
LINE
8
BLACK
6
CONTINUOUS
10
73.83
20
-154.856
11
76.03
21
-154.856
0
LINE
8
BLACK
6
CONTINUOUS
10
76.03
20
-154.856
11
76.03
21
-157.056
0
LINE
8
BLACK
6
CONTINUOUS
10
73.49
20
-157.056
11
71.29
21
-157.056
0
LINE
8
BLACK
6
CONTINUOUS
10
71.29
20
-157.056
11
71.29
21
-154.856
0
LINE
8
BLACK
6
CONTINUOUS
10
71.29
20
-154.856
11
73.49
21
-154.856
0
LINE
8
BLACK
6
CONTINUOUS
10
73.49
20
-154.856
11
73.49
21
-157.056
0
LINE
8
BLACK
6
CONTINUOUS
10
70.95
20
-157.056
11
68.75
21
-157.056
0
LINE
8
BLACK
6
CONTINUOUS
10
68.75
20
-157.056
11
68.75
21
-154.856
0
LINE
8
BLACK
6
CONTINUOUS
10
68.75
20
-154.856
11
70.95
21
-154.856
0
LINE
8
BLACK
6
CONTINUOUS
10
70.95
20
-154.856
11
70.95
21
-157.056
0
LINE
8
BLACK
6
CONTINUOUS
10
66.02
20
-154.516
11
63.52
21
-154.516
0
LINE
8
BLACK
6
CONTINUOUS
10
63.52
20
-154.516
11
63.52
21
-152.316
0
LINE
8
BLACK
6
CONTINUOUS
10
63.52
20
-152.316
11
66.02
21
-152.316
0
LINE
8
BLACK
6
CONTINUOUS
10
66.02
20
-152.316
11
66.02
21
-154.516
0
LINE
8
BLACK
6
CONTINUOUS
10
66.02
20
-151.976
11
63.52
21
-151.976
0
LINE
8
BLACK
6
CONTINUOUS
10
63.52
20
-151.976
11
63.52
21
-149.776
0
LINE
8
BLACK
6
CONTINUOUS
10
63.52
20
-149.776
11
66.02
21
-149.776
0
LINE
8
BLACK
6
CONTINUOUS
10
66.02
20
-149.776
11
66.02
21
-151.976
0
LINE
8
BLACK
6
CONTINUOUS
10
66.02
20
-149.436
11
63.52
21
-149.436
0
LINE
8
BLACK
6
CONTINUOUS
10
63.52
20
-149.436
11
63.52
21
-147.236
0
LINE
8
BLACK
6
CONTINUOUS
10
63.52
20
-147.236
11
66.02
21
-147.236
0
LINE
8
BLACK
6
CONTINUOUS
10
66.02
20
-147.236
11
66.02
21
-149.436
0
LINE
8
BLACK
6
CONTINUOUS
10
114.28
20
-149.436
11
111.78
21
-149.436
0
LINE
8
BLACK
6
CONTINUOUS
10
111.78
20
-149.436
11
111.78
21
-147.236
0
LINE
8
BLACK
6
CONTINUOUS
10
111.78
20
-147.236
11
114.28
21
-147.236
0
LINE
8
BLACK
6
CONTINUOUS
10
114.28
20
-147.236
11
114.28
21
-149.436
0
LINE
8
BLACK
6
CONTINUOUS
10
66.02
20
-146.896
11
63.52
21
-146.896
0
LINE
8
BLACK
6
CONTINUOUS
10
63.52
20
-146.896
11
63.52
21
-144.696
0
LINE
8
BLACK
6
CONTINUOUS
10
63.52
20
-144.696
11
66.02
21
-144.696
0
LINE
8
BLACK
6
CONTINUOUS
10
66.02
20
-144.696
11
66.02
21
-146.896
0
LINE
8
BLACK
6
CONTINUOUS
10
114.28
20
-146.896
11
111.78
21
-146.896
0
LINE
8
BLACK
6
CONTINUOUS
10
111.78
20
-146.896
11
111.78
21
-144.696
0
LINE
8
BLACK
6
CONTINUOUS
10
111.78
20
-144.696
11
114.28
21
-144.696
0
LINE
8
BLACK
6
CONTINUOUS
10
114.28
20
-144.696
11
114.28
21
-146.896
0
LINE
8
BLACK
6
CONTINUOUS
10
87.968
20
-145.118
11
85.768
21
-145.118
0
LINE
8
BLACK
6
CONTINUOUS
10
85.768
20
-145.118
11
85.768
21
-142.918
0
LINE
8
BLACK
6
CONTINUOUS
10
85.768
20
-142.918
11
87.968
21
-142.918
0
LINE
8
BLACK
6
CONTINUOUS
10
87.968
20
-142.918
11
87.968
21
-145.118
0
LINE
8
BLACK
6
CONTINUOUS
10
85.428
20
-145.118
11
83.228
21
-145.118
0
LINE
8
BLACK
6
CONTINUOUS
10
83.228
20
-145.118
11
83.228
21
-142.918
0
LINE
8
BLACK
6
CONTINUOUS
10
83.228
20
-142.918
11
85.428
21
-142.918
0
LINE
8
BLACK
6
CONTINUOUS
10
85.428
20
-142.918
11
85.428
21
-145.118
0
LINE
8
BLACK
6
CONTINUOUS
10
82.888
20
-145.118
11
80.688
21
-145.118
0
LINE
8
BLACK
6
CONTINUOUS
10
80.688
20
-145.118
11
80.688
21
-142.918
0
LINE
8
BLACK
6
CONTINUOUS
10
80.688
20
-142.918
11
82.888
21
-142.918
0
LINE
8
BLACK
6
CONTINUOUS
10
82.888
20
-142.918
11
82.888
21
-145.118
0
LINE
8
BLACK
6
CONTINUOUS
10
80.348
20
-145.118
11
78.148
21
-145.118
0
LINE
8
BLACK
6
CONTINUOUS
10
78.148
20
-145.118
11
78.148
21
-142.918
0
LINE
8
BLACK
6
CONTINUOUS
10
78.148
20
-142.918
11
80.348
21
-142.918
0
LINE
8
BLACK
6
CONTINUOUS
10
80.348
20
-142.918
11
80.348
21
-145.118
0
LINE
8
BLACK
6
CONTINUOUS
10
114.28
20
-144.356
11
111.78
21
-144.356
0
LINE
8
BLACK
6
CONTINUOUS
10
111.78
20
-144.356
11
111.78
21
-142.156
0
LINE
8
BLACK
6
CONTINUOUS
10
111.78
20
-142.156
11
114.28
21
-142.156
0
LINE
8
BLACK
6
CONTINUOUS
10
114.28
20
-142.156
11
114.28
21
-144.356
0
LINE
8
BLACK
6
CONTINUOUS
10
66.02
20
-144.356
11
63.52
21
-144.356
0
LINE
8
BLACK
6
CONTINUOUS
10
63.52
20
-144.356
11
63.52
21
-142.156
0
LINE
8
BLACK
6
CONTINUOUS
10
63.52
20
-142.156
11
66.02
21
-142.156
0
LINE
8
BLACK
6
CONTINUOUS
10
66.02
20
-142.156
11
66.02
21
-144.356
0
LINE
8
BLACK
6
CONTINUOUS
10
114.28
20
-141.816
11
111.78
21
-141.816
0
LINE
8
BLACK
6
CONTINUOUS
10
111.78
20
-141.816
11
111.78
21
-139.616
0
LINE
8
BLACK
6
CONTINUOUS
10
111.78
20
-139.616
11
114.28
21
-139.616
0
LINE
8
BLACK
6
CONTINUOUS
10
114.28
20
-139.616
11
114.28
21
-141.816
0
LINE
8
BLACK
6
CONTINUOUS
10
66.02
20
-141.816
11
63.52
21
-141.816
0
LINE
8
BLACK
6
CONTINUOUS
10
63.52
20
-141.816
11
63.52
21
-139.616
0
LINE
8
BLACK
6
CONTINUOUS
10
63.52
20
-139.616
11
66.02
21
-139.616
0
LINE
8
BLACK
6
CONTINUOUS
10
66.02
20
-139.616
11
66.02
21
-141.816
0
LINE
8
BLACK
6
CONTINUOUS
10
66.02
20
-139.276
11
63.52
21
-139.276
0
LINE
8
BLACK
6
CONTINUOUS
10
63.52
20
-139.276
11
63.52
21
-137.076
0
LINE
8
BLACK
6
CONTINUOUS
10
63.52
20
-137.076
11
66.02
21
-137.076
0
LINE
8
BLACK
6
CONTINUOUS
10
66.02
20
-137.076
11
66.02
21
-139.276
0
LINE
8
BLACK
6
CONTINUOUS
10
114.28
20
-139.276
11
111.78
21
-139.276
0
LINE
8
BLACK
6
CONTINUOUS
10
111.78
20
-139.276
11
111.78
21
-137.076
0
LINE
8
BLACK
6
CONTINUOUS
10
111.78
20
-137.076
11
114.28
21
-137.076
0
LINE
8
BLACK
6
CONTINUOUS
10
114.28
20
-137.076
11
114.28
21
-139.276
0
LINE
8
BLACK
6
CONTINUOUS
10
103.97
20
-138.768
11
101.77
21
-138.768
0
LINE
8
BLACK
6
CONTINUOUS
10
101.77
20
-138.768
11
101.77
21
-136.568
0
LINE
8
BLACK
6
CONTINUOUS
10
101.77
20
-136.568
11
103.97
21
-136.568
0
LINE
8
BLACK
6
CONTINUOUS
10
103.97
20
-136.568
11
103.97
21
-138.768
0
LINE
8
BLACK
6
CONTINUOUS
10
66.02
20
-136.736
11
63.52
21
-136.736
0
LINE
8
BLACK
6
CONTINUOUS
10
63.52
20
-136.736
11
63.52
21
-134.536
0
LINE
8
BLACK
6
CONTINUOUS
10
63.52
20
-134.536
11
66.02
21
-134.536
0
LINE
8
BLACK
6
CONTINUOUS
10
66.02
20
-134.536
11
66.02
21
-136.736
0
LINE
8
BLACK
6
CONTINUOUS
10
114.28
20
-136.736
11
111.78
21
-136.736
0
LINE
8
BLACK
6
CONTINUOUS
10
111.78
20
-136.736
11
111.78
21
-134.536
0
LINE
8
BLACK
6
CONTINUOUS
10
111.78
20
-134.536
11
114.28
21
-134.536
0
LINE
8
BLACK
6
CONTINUOUS
10
114.28
20
-134.536
11
114.28
21
-136.736
0
LINE
8
BLACK
6
CONTINUOUS
10
103.97
20
-136.228
11
101.77
21
-136.228
0
LINE
8
BLACK
6
CONTINUOUS
10
101.77
20
-136.228
11
101.77
21
-134.028
0
LINE
8
BLACK
6
CONTINUOUS
10
101.77
20
-134.028
11
103.97
21
-134.028
0
LINE
8
BLACK
6
CONTINUOUS
10
103.97
20
-134.028
11
103.97
21
-136.228
0
LINE
8
BLACK
6
CONTINUOUS
10
114.28
20
-134.196
11
111.78
21
-134.196
0
LINE
8
BLACK
6
CONTINUOUS
10
111.78
20
-134.196
11
111.78
21
-131.996
0
LINE
8
BLACK
6
CONTINUOUS
10
111.78
20
-131.996
11
114.28
21
-131.996
0
LINE
8
BLACK
6
CONTINUOUS
10
114.28
20
-131.996
11
114.28
21
-134.196
0
LINE
8
BLACK
6
CONTINUOUS
10
103.97
20
-133.688
11
101.77
21
-133.688
0
LINE
8
BLACK
6
CONTINUOUS
10
101.77
20
-133.688
11
101.77
21
-131.488
0
LINE
8
BLACK
6
CONTINUOUS
10
101.77
20
-131.488
11
103.97
21
-131.488
0
LINE
8
BLACK
6
CONTINUOUS
10
103.97
20
-131.488
11
103.97
21
-133.688
0
LINE
8
BLACK
6
CONTINUOUS
10
66.02
20
-131.656
11
63.52
21
-131.656
0
LINE
8
BLACK
6
CONTINUOUS
10
63.52
20
-131.656
11
63.52
21
-129.456
0
LINE
8
BLACK
6
CONTINUOUS
10
63.52
20
-129.456
11
66.02
21
-129.456
0
LINE
8
BLACK
6
CONTINUOUS
10
66.02
20
-129.456
11
66.02
21
-131.656
0
LINE
8
BLACK
6
CONTINUOUS
10
114.28
20
-131.656
11
111.78
21
-131.656
0
LINE
8
BLACK
6
CONTINUOUS
10
111.78
20
-131.656
11
111.78
21
-129.456
0
LINE
8
BLACK
6
CONTINUOUS
10
111.78
20
-129.456
11
114.28
21
-129.456
0
LINE
8
BLACK
6
CONTINUOUS
10
114.28
20
-129.456
11
114.28
21
-131.656
0
LINE
8
BLACK
6
CONTINUOUS
10
103.97
20
-131.148
11
101.77
21
-131.148
0
LINE
8
BLACK
6
CONTINUOUS
10
101.77
20
-131.148
11
101.77
21
-128.948
0
LINE
8
BLACK
6
CONTINUOUS
10
101.77
20
-128.948
11
103.97
21
-128.948
0
LINE
8
BLACK
6
CONTINUOUS
10
103.97
20
-128.948
11
103.97
21
-131.148
0
LINE
8
BLACK
6
CONTINUOUS
10
66.02
20
-129.116
11
63.52
21
-129.116
0
LINE
8
BLACK
6
CONTINUOUS
10
63.52
20
-129.116
11
63.52
21
-126.916
0
LINE
8
BLACK
6
CONTINUOUS
10
63.52
20
-126.916
11
66.02
21
-126.916
0
LINE
8
BLACK
6
CONTINUOUS
10
66.02
20
-126.916
11
66.02
21
-129.116
0
LINE
8
BLACK
6
CONTINUOUS
10
66.02
20
-126.576
11
63.52
21
-126.576
0
LINE
8
BLACK
6
CONTINUOUS
10
63.52
20
-126.576
11
63.52
21
-124.376
0
LINE
8
BLACK
6
CONTINUOUS
10
63.52
20
-124.376
11
66.02
21
-124.376
0
LINE
8
BLACK
6
CONTINUOUS
10
66.02
20
-124.376
11
66.02
21
-126.576
0
LINE
8
BLACK
6
CONTINUOUS
10
114.28
20
-126.576
11
111.78
21
-126.576
0
LINE
8
BLACK
6
CONTINUOUS
10
111.78
20
-126.576
11
111.78
21
-124.376
0
LINE
8
BLACK
6
CONTINUOUS
10
111.78
20
-124.376
11
114.28
21
-124.376
0
LINE
8
BLACK
6
CONTINUOUS
10
114.28
20
-124.376
11
114.28
21
-126.576
0
LINE
8
BLACK
6
CONTINUOUS
10
66.02
20
-124.036
11
63.52
21
-124.036
0
LINE
8
BLACK
6
CONTINUOUS
10
63.52
20
-124.036
11
63.52
21
-121.836
0
LINE
8
BLACK
6
CONTINUOUS
10
63.52
20
-121.836
11
66.02
21
-121.836
0
LINE
8
BLACK
6
CONTINUOUS
10
66.02
20
-121.836
11
66.02
21
-124.036
0
LINE
8
BLACK
6
CONTINUOUS
10
114.28
20
-124.036
11
111.78
21
-124.036
0
LINE
8
BLACK
6
CONTINUOUS
10
111.78
20
-124.036
11
111.78
21
-121.836
0
LINE
8
BLACK
6
CONTINUOUS
10
111.78
20
-121.836
11
114.28
21
-121.836
0
LINE
8
BLACK
6
CONTINUOUS
10
114.28
20
-121.836
11
114.28
21
-124.036
0
LINE
8
BLACK
6
CONTINUOUS
10
81.618
20
-123.02
11
79.418
21
-123.02
0
LINE
8
BLACK
6
CONTINUOUS
10
79.418
20
-123.02
11
79.418
21
-120.82
0
LINE
8
BLACK
6
CONTINUOUS
10
79.418
20
-120.82
11
81.618
21
-120.82
0
LINE
8
BLACK
6
CONTINUOUS
10
81.618
20
-120.82
11
81.618
21
-123.02
0
LINE
8
BLACK
6
CONTINUOUS
10
96.858
20
-123.02
11
94.658
21
-123.02
0
LINE
8
BLACK
6
CONTINUOUS
10
94.658
20
-123.02
11
94.658
21
-120.82
0
LINE
8
BLACK
6
CONTINUOUS
10
94.658
20
-120.82
11
96.858
21
-120.82
0
LINE
8
BLACK
6
CONTINUOUS
10
96.858
20
-120.82
11
96.858
21
-123.02
0
LINE
8
BLACK
6
CONTINUOUS
10
104.224
20
-123.02
11
102.024
21
-123.02
0
LINE
8
BLACK
6
CONTINUOUS
10
102.024
20
-123.02
11
102.024
21
-120.82
0
LINE
8
BLACK
6
CONTINUOUS
10
102.024
20
-120.82
11
104.224
21
-120.82
0
LINE
8
BLACK
6
CONTINUOUS
10
104.224
20
-120.82
11
104.224
21
-123.02
0
LINE
8
BLACK
6
CONTINUOUS
10
94.318
20
-123.02
11
92.118
21
-123.02
0
LINE
8
BLACK
6
CONTINUOUS
10
92.118
20
-123.02
11
92.118
21
-120.82
0
LINE
8
BLACK
6
CONTINUOUS
10
92.118
20
-120.82
11
94.318
21
-120.82
0
LINE
8
BLACK
6
CONTINUOUS
10
94.318
20
-120.82
11
94.318
21
-123.02
0
LINE
8
BLACK
6
CONTINUOUS
10
91.778
20
-123.02
11
89.578
21
-123.02
0
LINE
8
BLACK
6
CONTINUOUS
10
89.578
20
-123.02
11
89.578
21
-120.82
0
LINE
8
BLACK
6
CONTINUOUS
10
89.578
20
-120.82
11
91.778
21
-120.82
0
LINE
8
BLACK
6
CONTINUOUS
10
91.778
20
-120.82
11
91.778
21
-123.02
0
LINE
8
BLACK
6
CONTINUOUS
10
89.238
20
-123.02
11
87.038
21
-123.02
0
LINE
8
BLACK
6
CONTINUOUS
10
87.038
20
-123.02
11
87.038
21
-120.82
0
LINE
8
BLACK
6
CONTINUOUS
10
87.038
20
-120.82
11
89.238
21
-120.82
0
LINE
8
BLACK
6
CONTINUOUS
10
89.238
20
-120.82
11
89.238
21
-123.02
0
LINE
8
BLACK
6
CONTINUOUS
10
86.698
20
-123.02
11
84.498
21
-123.02
0
LINE
8
BLACK
6
CONTINUOUS
10
84.498
20
-123.02
11
84.498
21
-120.82
0
LINE
8
BLACK
6
CONTINUOUS
10
84.498
20
-120.82
11
86.698
21
-120.82
0
LINE
8
BLACK
6
CONTINUOUS
10
86.698
20
-120.82
11
86.698
21
-123.02
0
LINE
8
BLACK
6
CONTINUOUS
10
79.078
20
-123.02
11
76.878
21
-123.02
0
LINE
8
BLACK
6
CONTINUOUS
10
76.878
20
-123.02
11
76.878
21
-120.82
0
LINE
8
BLACK
6
CONTINUOUS
10
76.878
20
-120.82
11
79.078
21
-120.82
0
LINE
8
BLACK
6
CONTINUOUS
10
79.078
20
-120.82
11
79.078
21
-123.02
0
LINE
8
BLACK
6
CONTINUOUS
10
84.158
20
-123.02
11
81.958
21
-123.02
0
LINE
8
BLACK
6
CONTINUOUS
10
81.958
20
-123.02
11
81.958
21
-120.82
0
LINE
8
BLACK
6
CONTINUOUS
10
81.958
20
-120.82
11
84.158
21
-120.82
0
LINE
8
BLACK
6
CONTINUOUS
10
84.158
20
-120.82
11
84.158
21
-123.02
0
LINE
8
BLACK
6
CONTINUOUS
10
114.28
20
-121.496
11
111.78
21
-121.496
0
LINE
8
BLACK
6
CONTINUOUS
10
111.78
20
-121.496
11
111.78
21
-119.296
0
LINE
8
BLACK
6
CONTINUOUS
10
111.78
20
-119.296
11
114.28
21
-119.296
0
LINE
8
BLACK
6
CONTINUOUS
10
114.28
20
-119.296
11
114.28
21
-121.496
0
LINE
8
BLACK
6
CONTINUOUS
10
66.02
20
-121.496
11
63.52
21
-121.496
0
LINE
8
BLACK
6
CONTINUOUS
10
63.52
20
-121.496
11
63.52
21
-119.296
0
LINE
8
BLACK
6
CONTINUOUS
10
63.52
20
-119.296
11
66.02
21
-119.296
0
LINE
8
BLACK
6
CONTINUOUS
10
66.02
20
-119.296
11
66.02
21
-121.496
0
LINE
8
BLACK
6
CONTINUOUS
10
104.224
20
-120.48
11
102.024
21
-120.48
0
LINE
8
BLACK
6
CONTINUOUS
10
102.024
20
-120.48
11
102.024
21
-118.28
0
LINE
8
BLACK
6
CONTINUOUS
10
102.024
20
-118.28
11
104.224
21
-118.28
0
LINE
8
BLACK
6
CONTINUOUS
10
104.224
20
-118.28
11
104.224
21
-120.48
0
LINE
8
BLACK
6
CONTINUOUS
10
114.28
20
-118.956
11
111.78
21
-118.956
0
LINE
8
BLACK
6
CONTINUOUS
10
111.78
20
-118.956
11
111.78
21
-116.756
0
LINE
8
BLACK
6
CONTINUOUS
10
111.78
20
-116.756
11
114.28
21
-116.756
0
LINE
8
BLACK
6
CONTINUOUS
10
114.28
20
-116.756
11
114.28
21
-118.956
0
LINE
8
BLACK
6
CONTINUOUS
10
66.02
20
-118.956
11
63.52
21
-118.956
0
LINE
8
BLACK
6
CONTINUOUS
10
63.52
20
-118.956
11
63.52
21
-116.756
0
LINE
8
BLACK
6
CONTINUOUS
10
63.52
20
-116.756
11
66.02
21
-116.756
0
LINE
8
BLACK
6
CONTINUOUS
10
66.02
20
-116.756
11
66.02
21
-118.956
0
LINE
8
BLACK
6
CONTINUOUS
10
104.224
20
-117.94
11
102.024
21
-117.94
0
LINE
8
BLACK
6
CONTINUOUS
10
102.024
20
-117.94
11
102.024
21
-115.74
0
LINE
8
BLACK
6
CONTINUOUS
10
102.024
20
-115.74
11
104.224
21
-115.74
0
LINE
8
BLACK
6
CONTINUOUS
10
104.224
20
-115.74
11
104.224
21
-117.94
0
LINE
8
BLACK
6
CONTINUOUS
10
114.28
20
-116.416
11
111.78
21
-116.416
0
LINE
8
BLACK
6
CONTINUOUS
10
111.78
20
-116.416
11
111.78
21
-114.216
0
LINE
8
BLACK
6
CONTINUOUS
10
111.78
20
-114.216
11
114.28
21
-114.216
0
LINE
8
BLACK
6
CONTINUOUS
10
114.28
20
-114.216
11
114.28
21
-116.416
0
LINE
8
BLACK
6
CONTINUOUS
10
66.02
20
-116.416
11
63.52
21
-116.416
0
LINE
8
BLACK
6
CONTINUOUS
10
63.52
20
-116.416
11
63.52
21
-114.216
0
LINE
8
BLACK
6
CONTINUOUS
10
63.52
20
-114.216
11
66.02
21
-114.216
0
LINE
8
BLACK
6
CONTINUOUS
10
66.02
20
-114.216
11
66.02
21
-116.416
0
LINE
8
BLACK
6
CONTINUOUS
10
104.224
20
-115.4
11
102.024
21
-115.4
0
LINE
8
BLACK
6
CONTINUOUS
10
102.024
20
-115.4
11
102.024
21
-113.2
0
LINE
8
BLACK
6
CONTINUOUS
10
102.024
20
-113.2
11
104.224
21
-113.2
0
LINE
8
BLACK
6
CONTINUOUS
10
104.224
20
-113.2
11
104.224
21
-115.4
0
LINE
8
BLACK
6
CONTINUOUS
10
93.0309
20
-111.464
11
93.231
21
-111.547
0
LINE
8
BLACK
6
CONTINUOUS
10
93.231
20
-111.547
11
93.4112
21
-111.668
0
LINE
8
BLACK
6
CONTINUOUS
10
93.4112
20
-111.668
11
93.5644
21
-111.821
0
LINE
8
BLACK
6
CONTINUOUS
10
93.5644
20
-111.821
11
93.6848
21
-112.001
0
LINE
8
BLACK
6
CONTINUOUS
10
93.6848
20
-112.001
11
93.7677
21
-112.201
0
LINE
8
BLACK
6
CONTINUOUS
10
93.7677
20
-112.201
11
93.81
21
-112.414
0
LINE
8
BLACK
6
CONTINUOUS
10
93.81
20
-112.414
11
93.81
21
-112.63
0
LINE
8
BLACK
6
CONTINUOUS
10
93.81
20
-112.63
11
93.7677
21
-112.843
0
LINE
8
BLACK
6
CONTINUOUS
10
93.7677
20
-112.843
11
93.6848
21
-113.043
0
LINE
8
BLACK
6
CONTINUOUS
10
93.6848
20
-113.043
11
93.5644
21
-113.223
0
LINE
8
BLACK
6
CONTINUOUS
10
93.5644
20
-113.223
11
93.4112
21
-113.376
0
LINE
8
BLACK
6
CONTINUOUS
10
93.4112
20
-113.376
11
93.231
21
-113.497
0
LINE
8
BLACK
6
CONTINUOUS
10
93.231
20
-113.497
11
93.0309
21
-113.58
0
LINE
8
BLACK
6
CONTINUOUS
10
93.0309
20
-113.58
11
92.8183
21
-113.622
0
LINE
8
BLACK
6
CONTINUOUS
10
92.8183
20
-113.622
11
92.6017
21
-113.622
0
LINE
8
BLACK
6
CONTINUOUS
10
92.6017
20
-113.622
11
92.43
21
-113.588
0
LINE
8
BLACK
6
CONTINUOUS
10
92.43
20
-113.588
11
92.3196
21
-113.621
0
LINE
8
BLACK
6
CONTINUOUS
10
92.3196
20
-113.621
11
92.2315
21
-113.63
0
LINE
8
BLACK
6
CONTINUOUS
10
92.2315
20
-113.63
11
92.202
21
-113.633
0
LINE
8
BLACK
6
CONTINUOUS
10
92.202
20
-113.633
11
92.1725
21
-113.63
0
LINE
8
BLACK
6
CONTINUOUS
10
92.1725
20
-113.63
11
81.1861
21
-113.63
0
LINE
8
BLACK
6
CONTINUOUS
10
81.1861
20
-113.63
11
81.1184
21
-113.731
0
LINE
8
BLACK
6
CONTINUOUS
10
81.1184
20
-113.731
11
80.9652
21
-113.884
0
LINE
8
BLACK
6
CONTINUOUS
10
80.9652
20
-113.884
11
80.785
21
-114.005
0
LINE
8
BLACK
6
CONTINUOUS
10
80.785
20
-114.005
11
80.5849
21
-114.088
0
LINE
8
BLACK
6
CONTINUOUS
10
80.5849
20
-114.088
11
80.3723
21
-114.13
0
LINE
8
BLACK
6
CONTINUOUS
10
80.3723
20
-114.13
11
80.1557
21
-114.13
0
LINE
8
BLACK
6
CONTINUOUS
10
80.1557
20
-114.13
11
79.9431
21
-114.088
0
LINE
8
BLACK
6
CONTINUOUS
10
79.9431
20
-114.088
11
79.743
21
-114.005
0
LINE
8
BLACK
6
CONTINUOUS
10
79.743
20
-114.005
11
79.5628
21
-113.884
0
LINE
8
BLACK
6
CONTINUOUS
10
79.5628
20
-113.884
11
79.4096
21
-113.731
0
LINE
8
BLACK
6
CONTINUOUS
10
79.4096
20
-113.731
11
79.2892
21
-113.551
0
LINE
8
BLACK
6
CONTINUOUS
10
79.2892
20
-113.551
11
79.2063
21
-113.351
0
LINE
8
BLACK
6
CONTINUOUS
10
79.2063
20
-113.351
11
79.164
21
-113.138
0
LINE
8
BLACK
6
CONTINUOUS
10
79.164
20
-113.138
11
79.164
21
-112.922
0
LINE
8
BLACK
6
CONTINUOUS
10
79.164
20
-112.922
11
79.2063
21
-112.709
0
LINE
8
BLACK
6
CONTINUOUS
10
79.2063
20
-112.709
11
79.2892
21
-112.509
0
LINE
8
BLACK
6
CONTINUOUS
10
79.2892
20
-112.509
11
79.4096
21
-112.329
0
LINE
8
BLACK
6
CONTINUOUS
10
79.4096
20
-112.329
11
79.5628
21
-112.176
0
LINE
8
BLACK
6
CONTINUOUS
10
79.5628
20
-112.176
11
79.743
21
-112.055
0
LINE
8
BLACK
6
CONTINUOUS
10
79.743
20
-112.055
11
79.9431
21
-111.972
0
LINE
8
BLACK
6
CONTINUOUS
10
79.9431
20
-111.972
11
80.1557
21
-111.93
0
LINE
8
BLACK
6
CONTINUOUS
10
80.1557
20
-111.93
11
80.3723
21
-111.93
0
LINE
8
BLACK
6
CONTINUOUS
10
80.3723
20
-111.93
11
80.5849
21
-111.972
0
LINE
8
BLACK
6
CONTINUOUS
10
80.5849
20
-111.972
11
80.785
21
-112.055
0
LINE
8
BLACK
6
CONTINUOUS
10
80.785
20
-112.055
11
80.9652
21
-112.176
0
LINE
8
BLACK
6
CONTINUOUS
10
80.9652
20
-112.176
11
81.1184
21
-112.329
0
LINE
8
BLACK
6
CONTINUOUS
10
81.1184
20
-112.329
11
81.1861
21
-112.43
0
LINE
8
BLACK
6
CONTINUOUS
10
81.1861
20
-112.43
11
91.61
21
-112.43
0
LINE
8
BLACK
6
CONTINUOUS
10
91.61
20
-112.43
11
91.61
21
-112.414
0
LINE
8
BLACK
6
CONTINUOUS
10
91.61
20
-112.414
11
91.6523
21
-112.201
0
LINE
8
BLACK
6
CONTINUOUS
10
91.6523
20
-112.201
11
91.7352
21
-112.001
0
LINE
8
BLACK
6
CONTINUOUS
10
91.7352
20
-112.001
11
91.8556
21
-111.821
0
LINE
8
BLACK
6
CONTINUOUS
10
91.8556
20
-111.821
11
92.0088
21
-111.668
0
LINE
8
BLACK
6
CONTINUOUS
10
92.0088
20
-111.668
11
92.189
21
-111.547
0
LINE
8
BLACK
6
CONTINUOUS
10
92.189
20
-111.547
11
92.3891
21
-111.464
0
LINE
8
BLACK
6
CONTINUOUS
10
92.3891
20
-111.464
11
92.6017
21
-111.422
0
LINE
8
BLACK
6
CONTINUOUS
10
92.6017
20
-111.422
11
92.8183
21
-111.422
0
LINE
8
BLACK
6
CONTINUOUS
10
92.8183
20
-111.422
11
93.0309
21
-111.464
0
LINE
8
BLACK
6
CONTINUOUS
10
66.02
20
-113.876
11
63.52
21
-113.876
0
LINE
8
BLACK
6
CONTINUOUS
10
63.52
20
-113.876
11
63.52
21
-111.676
0
LINE
8
BLACK
6
CONTINUOUS
10
63.52
20
-111.676
11
66.02
21
-111.676
0
LINE
8
BLACK
6
CONTINUOUS
10
66.02
20
-111.676
11
66.02
21
-113.876
0
LINE
8
BLACK
6
CONTINUOUS
10
114.28
20
-113.876
11
111.78
21
-113.876
0
LINE
8
BLACK
6
CONTINUOUS
10
111.78
20
-113.876
11
111.78
21
-111.676
0
LINE
8
BLACK
6
CONTINUOUS
10
111.78
20
-111.676
11
114.28
21
-111.676
0
LINE
8
BLACK
6
CONTINUOUS
10
114.28
20
-111.676
11
114.28
21
-113.876
0
LINE
8
BLACK
6
CONTINUOUS
10
114.28
20
-111.336
11
111.78
21
-111.336
0
LINE
8
BLACK
6
CONTINUOUS
10
111.78
20
-111.336
11
111.78
21
-109.136
0
LINE
8
BLACK
6
CONTINUOUS
10
111.78
20
-109.136
11
114.28
21
-109.136
0
LINE
8
BLACK
6
CONTINUOUS
10
114.28
20
-109.136
11
114.28
21
-111.336
0
LINE
8
BLACK
6
CONTINUOUS
10
104.224
20
-109.304
11
102.024
21
-109.304
0
LINE
8
BLACK
6
CONTINUOUS
10
102.024
20
-109.304
11
102.024
21
-107.104
0
LINE
8
BLACK
6
CONTINUOUS
10
102.024
20
-107.104
11
104.224
21
-107.104
0
LINE
8
BLACK
6
CONTINUOUS
10
104.224
20
-107.104
11
104.224
21
-109.304
0
LINE
8
BLACK
6
CONTINUOUS
10
66.02
20
-108.796
11
63.52
21
-108.796
0
LINE
8
BLACK
6
CONTINUOUS
10
63.52
20
-108.796
11
63.52
21
-106.596
0
LINE
8
BLACK
6
CONTINUOUS
10
63.52
20
-106.596
11
66.02
21
-106.596
0
LINE
8
BLACK
6
CONTINUOUS
10
66.02
20
-106.596
11
66.02
21
-108.796
0
LINE
8
BLACK
6
CONTINUOUS
10
114.28
20
-108.796
11
111.78
21
-108.796
0
LINE
8
BLACK
6
CONTINUOUS
10
111.78
20
-108.796
11
111.78
21
-106.596
0
LINE
8
BLACK
6
CONTINUOUS
10
111.78
20
-106.596
11
114.28
21
-106.596
0
LINE
8
BLACK
6
CONTINUOUS
10
114.28
20
-106.596
11
114.28
21
-108.796
0
LINE
8
BLACK
6
CONTINUOUS
10
104.224
20
-106.764
11
102.024
21
-106.764
0
LINE
8
BLACK
6
CONTINUOUS
10
102.024
20
-106.764
11
102.024
21
-104.564
0
LINE
8
BLACK
6
CONTINUOUS
10
102.024
20
-104.564
11
104.224
21
-104.564
0
LINE
8
BLACK
6
CONTINUOUS
10
104.224
20
-104.564
11
104.224
21
-106.764
0
LINE
8
BLACK
6
CONTINUOUS
10
66.02
20
-106.256
11
63.52
21
-106.256
0
LINE
8
BLACK
6
CONTINUOUS
10
63.52
20
-106.256
11
63.52
21
-104.056
0
LINE
8
BLACK
6
CONTINUOUS
10
63.52
20
-104.056
11
66.02
21
-104.056
0
LINE
8
BLACK
6
CONTINUOUS
10
66.02
20
-104.056
11
66.02
21
-106.256
0
LINE
8
BLACK
6
CONTINUOUS
10
74.9969
20
-104.098
11
75.197
21
-104.181
0
LINE
8
BLACK
6
CONTINUOUS
10
75.197
20
-104.181
11
75.3772
21
-104.302
0
LINE
8
BLACK
6
CONTINUOUS
10
75.3772
20
-104.302
11
75.5304
21
-104.455
0
LINE
8
BLACK
6
CONTINUOUS
10
75.5304
20
-104.455
11
75.6508
21
-104.635
0
LINE
8
BLACK
6
CONTINUOUS
10
75.6508
20
-104.635
11
75.7337
21
-104.835
0
LINE
8
BLACK
6
CONTINUOUS
10
75.7337
20
-104.835
11
75.776
21
-105.048
0
LINE
8
BLACK
6
CONTINUOUS
10
75.776
20
-105.048
11
75.776
21
-105.264
0
LINE
8
BLACK
6
CONTINUOUS
10
75.776
20
-105.264
11
75.7337
21
-105.477
0
LINE
8
BLACK
6
CONTINUOUS
10
75.7337
20
-105.477
11
75.6508
21
-105.677
0
LINE
8
BLACK
6
CONTINUOUS
10
75.6508
20
-105.677
11
75.5304
21
-105.857
0
LINE
8
BLACK
6
CONTINUOUS
10
75.5304
20
-105.857
11
75.3772
21
-106.01
0
LINE
8
BLACK
6
CONTINUOUS
10
75.3772
20
-106.01
11
75.197
21
-106.131
0
LINE
8
BLACK
6
CONTINUOUS
10
75.197
20
-106.131
11
74.9969
21
-106.214
0
LINE
8
BLACK
6
CONTINUOUS
10
74.9969
20
-106.214
11
74.7843
21
-106.256
0
LINE
8
BLACK
6
CONTINUOUS
10
74.7843
20
-106.256
11
74.5677
21
-106.256
0
LINE
8
BLACK
6
CONTINUOUS
10
74.5677
20
-106.256
11
74.3551
21
-106.214
0
LINE
8
BLACK
6
CONTINUOUS
10
74.3551
20
-106.214
11
74.155
21
-106.131
0
LINE
8
BLACK
6
CONTINUOUS
10
74.155
20
-106.131
11
73.9748
21
-106.01
0
LINE
8
BLACK
6
CONTINUOUS
10
73.9748
20
-106.01
11
73.8216
21
-105.857
0
LINE
8
BLACK
6
CONTINUOUS
10
73.8216
20
-105.857
11
73.7012
21
-105.677
0
LINE
8
BLACK
6
CONTINUOUS
10
73.7012
20
-105.677
11
73.6183
21
-105.477
0
LINE
8
BLACK
6
CONTINUOUS
10
73.6183
20
-105.477
11
73.576
21
-105.264
0
LINE
8
BLACK
6
CONTINUOUS
10
73.576
20
-105.264
11
73.576
21
-105.048
0
LINE
8
BLACK
6
CONTINUOUS
10
73.576
20
-105.048
11
73.6183
21
-104.835
0
LINE
8
BLACK
6
CONTINUOUS
10
73.6183
20
-104.835
11
73.7012
21
-104.635
0
LINE
8
BLACK
6
CONTINUOUS
10
73.7012
20
-104.635
11
73.8216
21
-104.455
0
LINE
8
BLACK
6
CONTINUOUS
10
73.8216
20
-104.455
11
73.9748
21
-104.302
0
LINE
8
BLACK
6
CONTINUOUS
10
73.9748
20
-104.302
11
74.155
21
-104.181
0
LINE
8
BLACK
6
CONTINUOUS
10
74.155
20
-104.181
11
74.3551
21
-104.098
0
LINE
8
BLACK
6
CONTINUOUS
10
74.3551
20
-104.098
11
74.5677
21
-104.056
0
LINE
8
BLACK
6
CONTINUOUS
10
74.5677
20
-104.056
11
74.7843
21
-104.056
0
LINE
8
BLACK
6
CONTINUOUS
10
74.7843
20
-104.056
11
74.9969
21
-104.098
0
LINE
8
BLACK
6
CONTINUOUS
10
73.136
20
-106.156
11
71.136
21
-106.156
0
LINE
8
BLACK
6
CONTINUOUS
10
71.136
20
-106.156
11
71.136
21
-104.156
0
LINE
8
BLACK
6
CONTINUOUS
10
71.136
20
-104.156
11
73.136
21
-104.156
0
LINE
8
BLACK
6
CONTINUOUS
10
73.136
20
-104.156
11
73.136
21
-106.156
0
LINE
8
BLACK
6
CONTINUOUS
10
114.28
20
-104.732
11
111.78
21
-104.732
0
LINE
8
BLACK
6
CONTINUOUS
10
111.78
20
-104.732
11
111.78
21
-102.532
0
LINE
8
BLACK
6
CONTINUOUS
10
111.78
20
-102.532
11
114.28
21
-102.532
0
LINE
8
BLACK
6
CONTINUOUS
10
114.28
20
-102.532
11
114.28
21
-104.732
0
LINE
8
BLACK
6
CONTINUOUS
10
104.224
20
-104.224
11
102.024
21
-104.224
0
LINE
8
BLACK
6
CONTINUOUS
10
102.024
20
-104.224
11
102.024
21
-102.024
0
LINE
8
BLACK
6
CONTINUOUS
10
102.024
20
-102.024
11
104.224
21
-102.024
0
LINE
8
BLACK
6
CONTINUOUS
10
104.224
20
-102.024
11
104.224
21
-104.224
0
LINE
8
BLACK
6
CONTINUOUS
10
66.02
20
-103.716
11
63.52
21
-103.716
0
LINE
8
BLACK
6
CONTINUOUS
10
63.52
20
-103.716
11
63.52
21
-101.516
0
LINE
8
BLACK
6
CONTINUOUS
10
63.52
20
-101.516
11
66.02
21
-101.516
0
LINE
8
BLACK
6
CONTINUOUS
10
66.02
20
-101.516
11
66.02
21
-103.716
0
LINE
8
BLACK
6
CONTINUOUS
10
114.28
20
-102.192
11
111.78
21
-102.192
0
LINE
8
BLACK
6
CONTINUOUS
10
111.78
20
-102.192
11
111.78
21
-99.992
0
LINE
8
BLACK
6
CONTINUOUS
10
111.78
20
-99.992
11
114.28
21
-99.992
0
LINE
8
BLACK
6
CONTINUOUS
10
114.28
20
-99.992
11
114.28
21
-102.192
0
LINE
8
BLACK
6
CONTINUOUS
10
104.224
20
-101.684
11
102.024
21
-101.684
0
LINE
8
BLACK
6
CONTINUOUS
10
102.024
20
-101.684
11
102.024
21
-99.484
0
LINE
8
BLACK
6
CONTINUOUS
10
102.024
20
-99.484
11
104.224
21
-99.484
0
LINE
8
BLACK
6
CONTINUOUS
10
104.224
20
-99.484
11
104.224
21
-101.684
0
LINE
8
BLACK
6
CONTINUOUS
10
80.8389
20
-99.2723
11
81.039
21
-99.3552
0
LINE
8
BLACK
6
CONTINUOUS
10
81.039
20
-99.3552
11
81.2192
21
-99.4756
0
LINE
8
BLACK
6
CONTINUOUS
10
81.2192
20
-99.4756
11
81.3724
21
-99.6288
0
LINE
8
BLACK
6
CONTINUOUS
10
81.3724
20
-99.6288
11
81.4928
21
-99.809
0
LINE
8
BLACK
6
CONTINUOUS
10
81.4928
20
-99.809
11
81.5757
21
-100.009
0
LINE
8
BLACK
6
CONTINUOUS
10
81.5757
20
-100.009
11
81.618
21
-100.222
0
LINE
8
BLACK
6
CONTINUOUS
10
81.618
20
-100.222
11
81.618
21
-100.438
0
LINE
8
BLACK
6
CONTINUOUS
10
81.618
20
-100.438
11
81.5757
21
-100.651
0
LINE
8
BLACK
6
CONTINUOUS
10
81.5757
20
-100.651
11
81.4928
21
-100.851
0
LINE
8
BLACK
6
CONTINUOUS
10
81.4928
20
-100.851
11
81.3724
21
-101.031
0
LINE
8
BLACK
6
CONTINUOUS
10
81.3724
20
-101.031
11
81.2192
21
-101.184
0
LINE
8
BLACK
6
CONTINUOUS
10
81.2192
20
-101.184
11
81.039
21
-101.305
0
LINE
8
BLACK
6
CONTINUOUS
10
81.039
20
-101.305
11
80.8389
21
-101.388
0
LINE
8
BLACK
6
CONTINUOUS
10
80.8389
20
-101.388
11
80.6263
21
-101.43
0
LINE
8
BLACK
6
CONTINUOUS
10
80.6263
20
-101.43
11
80.4097
21
-101.43
0
LINE
8
BLACK
6
CONTINUOUS
10
80.4097
20
-101.43
11
80.1971
21
-101.388
0
LINE
8
BLACK
6
CONTINUOUS
10
80.1971
20
-101.388
11
79.997
21
-101.305
0
LINE
8
BLACK
6
CONTINUOUS
10
79.997
20
-101.305
11
79.8168
21
-101.184
0
LINE
8
BLACK
6
CONTINUOUS
10
79.8168
20
-101.184
11
79.6636
21
-101.031
0
LINE
8
BLACK
6
CONTINUOUS
10
79.6636
20
-101.031
11
79.5432
21
-100.851
0
LINE
8
BLACK
6
CONTINUOUS
10
79.5432
20
-100.851
11
79.4603
21
-100.651
0
LINE
8
BLACK
6
CONTINUOUS
10
79.4603
20
-100.651
11
79.418
21
-100.438
0
LINE
8
BLACK
6
CONTINUOUS
10
79.418
20
-100.438
11
79.418
21
-100.222
0
LINE
8
BLACK
6
CONTINUOUS
10
79.418
20
-100.222
11
79.4603
21
-100.009
0
LINE
8
BLACK
6
CONTINUOUS
10
79.4603
20
-100.009
11
79.5432
21
-99.809
0
LINE
8
BLACK
6
CONTINUOUS
10
79.5432
20
-99.809
11
79.6636
21
-99.6288
0
LINE
8
BLACK
6
CONTINUOUS
10
79.6636
20
-99.6288
11
79.8168
21
-99.4756
0
LINE
8
BLACK
6
CONTINUOUS
10
79.8168
20
-99.4756
11
79.997
21
-99.3552
0
LINE
8
BLACK
6
CONTINUOUS
10
79.997
20
-99.3552
11
80.1971
21
-99.2723
0
LINE
8
BLACK
6
CONTINUOUS
10
80.1971
20
-99.2723
11
80.4097
21
-99.23
0
LINE
8
BLACK
6
CONTINUOUS
10
80.4097
20
-99.23
11
80.6263
21
-99.23
0
LINE
8
BLACK
6
CONTINUOUS
10
80.6263
20
-99.23
11
80.8389
21
-99.2723
0
LINE
8
BLACK
6
CONTINUOUS
10
93.5389
20
-99.2723
11
93.739
21
-99.3552
0
LINE
8
BLACK
6
CONTINUOUS
10
93.739
20
-99.3552
11
93.9192
21
-99.4756
0
LINE
8
BLACK
6
CONTINUOUS
10
93.9192
20
-99.4756
11
94.0724
21
-99.6288
0
LINE
8
BLACK
6
CONTINUOUS
10
94.0724
20
-99.6288
11
94.1928
21
-99.809
0
LINE
8
BLACK
6
CONTINUOUS
10
94.1928
20
-99.809
11
94.2757
21
-100.009
0
LINE
8
BLACK
6
CONTINUOUS
10
94.2757
20
-100.009
11
94.318
21
-100.222
0
LINE
8
BLACK
6
CONTINUOUS
10
94.318
20
-100.222
11
94.318
21
-100.438
0
LINE
8
BLACK
6
CONTINUOUS
10
94.318
20
-100.438
11
94.2757
21
-100.651
0
LINE
8
BLACK
6
CONTINUOUS
10
94.2757
20
-100.651
11
94.1928
21
-100.851
0
LINE
8
BLACK
6
CONTINUOUS
10
94.1928
20
-100.851
11
94.0724
21
-101.031
0
LINE
8
BLACK
6
CONTINUOUS
10
94.0724
20
-101.031
11
93.9192
21
-101.184
0
LINE
8
BLACK
6
CONTINUOUS
10
93.9192
20
-101.184
11
93.739
21
-101.305
0
LINE
8
BLACK
6
CONTINUOUS
10
93.739
20
-101.305
11
93.5389
21
-101.388
0
LINE
8
BLACK
6
CONTINUOUS
10
93.5389
20
-101.388
11
93.3263
21
-101.43
0
LINE
8
BLACK
6
CONTINUOUS
10
93.3263
20
-101.43
11
93.1097
21
-101.43
0
LINE
8
BLACK
6
CONTINUOUS
10
93.1097
20
-101.43
11
92.8971
21
-101.388
0
LINE
8
BLACK
6
CONTINUOUS
10
92.8971
20
-101.388
11
92.697
21
-101.305
0
LINE
8
BLACK
6
CONTINUOUS
10
92.697
20
-101.305
11
92.5168
21
-101.184
0
LINE
8
BLACK
6
CONTINUOUS
10
92.5168
20
-101.184
11
92.3636
21
-101.031
0
LINE
8
BLACK
6
CONTINUOUS
10
92.3636
20
-101.031
11
92.2432
21
-100.851
0
LINE
8
BLACK
6
CONTINUOUS
10
92.2432
20
-100.851
11
92.1603
21
-100.651
0
LINE
8
BLACK
6
CONTINUOUS
10
92.1603
20
-100.651
11
92.118
21
-100.438
0
LINE
8
BLACK
6
CONTINUOUS
10
92.118
20
-100.438
11
92.118
21
-100.222
0
LINE
8
BLACK
6
CONTINUOUS
10
92.118
20
-100.222
11
92.1603
21
-100.009
0
LINE
8
BLACK
6
CONTINUOUS
10
92.1603
20
-100.009
11
92.2432
21
-99.809
0
LINE
8
BLACK
6
CONTINUOUS
10
92.2432
20
-99.809
11
92.3636
21
-99.6288
0
LINE
8
BLACK
6
CONTINUOUS
10
92.3636
20
-99.6288
11
92.5168
21
-99.4756
0
LINE
8
BLACK
6
CONTINUOUS
10
92.5168
20
-99.4756
11
92.697
21
-99.3552
0
LINE
8
BLACK
6
CONTINUOUS
10
92.697
20
-99.3552
11
92.8971
21
-99.2723
0
LINE
8
BLACK
6
CONTINUOUS
10
92.8971
20
-99.2723
11
93.1097
21
-99.23
0
LINE
8
BLACK
6
CONTINUOUS
10
93.1097
20
-99.23
11
93.3263
21
-99.23
0
LINE
8
BLACK
6
CONTINUOUS
10
93.3263
20
-99.23
11
93.5389
21
-99.2723
0
LINE
8
BLACK
6
CONTINUOUS
10
66.02
20
-101.176
11
63.52
21
-101.176
0
LINE
8
BLACK
6
CONTINUOUS
10
63.52
20
-101.176
11
63.52
21
-98.976
0
LINE
8
BLACK
6
CONTINUOUS
10
63.52
20
-98.976
11
66.02
21
-98.976
0
LINE
8
BLACK
6
CONTINUOUS
10
66.02
20
-98.976
11
66.02
21
-101.176
0
LINE
8
BLACK
6
CONTINUOUS
10
114.28
20
-99.652
11
111.78
21
-99.652
0
LINE
8
BLACK
6
CONTINUOUS
10
111.78
20
-99.652
11
111.78
21
-97.452
0
LINE
8
BLACK
6
CONTINUOUS
10
111.78
20
-97.452
11
114.28
21
-97.452
0
LINE
8
BLACK
6
CONTINUOUS
10
114.28
20
-97.452
11
114.28
21
-99.652
0
LINE
8
BLACK
6
CONTINUOUS
10
66.02
20
-98.636
11
63.52
21
-98.636
0
LINE
8
BLACK
6
CONTINUOUS
10
63.52
20
-98.636
11
63.52
21
-96.436
0
LINE
8
BLACK
6
CONTINUOUS
10
63.52
20
-96.436
11
66.02
21
-96.436
0
LINE
8
BLACK
6
CONTINUOUS
10
66.02
20
-96.436
11
66.02
21
-98.636
0
LINE
8
BLACK
6
CONTINUOUS
10
93.5389
20
-95.7163
11
93.739
21
-95.7992
0
LINE
8
BLACK
6
CONTINUOUS
10
93.739
20
-95.7992
11
93.9192
21
-95.9196
0
LINE
8
BLACK
6
CONTINUOUS
10
93.9192
20
-95.9196
11
94.0724
21
-96.0728
0
LINE
8
BLACK
6
CONTINUOUS
10
94.0724
20
-96.0728
11
94.1928
21
-96.253
0
LINE
8
BLACK
6
CONTINUOUS
10
94.1928
20
-96.253
11
94.2757
21
-96.4531
0
LINE
8
BLACK
6
CONTINUOUS
10
94.2757
20
-96.4531
11
94.318
21
-96.6657
0
LINE
8
BLACK
6
CONTINUOUS
10
94.318
20
-96.6657
11
94.318
21
-96.8823
0
LINE
8
BLACK
6
CONTINUOUS
10
94.318
20
-96.8823
11
94.2757
21
-97.0949
0
LINE
8
BLACK
6
CONTINUOUS
10
94.2757
20
-97.0949
11
94.1928
21
-97.295
0
LINE
8
BLACK
6
CONTINUOUS
10
94.1928
20
-97.295
11
94.0724
21
-97.4752
0
LINE
8
BLACK
6
CONTINUOUS
10
94.0724
20
-97.4752
11
93.9192
21
-97.6284
0
LINE
8
BLACK
6
CONTINUOUS
10
93.9192
20
-97.6284
11
93.739
21
-97.7488
0
LINE
8
BLACK
6
CONTINUOUS
10
93.739
20
-97.7488
11
93.5389
21
-97.8317
0
LINE
8
BLACK
6
CONTINUOUS
10
93.5389
20
-97.8317
11
93.3263
21
-97.874
0
LINE
8
BLACK
6
CONTINUOUS
10
93.3263
20
-97.874
11
93.1097
21
-97.874
0
LINE
8
BLACK
6
CONTINUOUS
10
93.1097
20
-97.874
11
92.8971
21
-97.8317
0
LINE
8
BLACK
6
CONTINUOUS
10
92.8971
20
-97.8317
11
92.697
21
-97.7488
0
LINE
8
BLACK
6
CONTINUOUS
10
92.697
20
-97.7488
11
92.5168
21
-97.6284
0
LINE
8
BLACK
6
CONTINUOUS
10
92.5168
20
-97.6284
11
92.3636
21
-97.4752
0
LINE
8
BLACK
6
CONTINUOUS
10
92.3636
20
-97.4752
11
92.2432
21
-97.295
0
LINE
8
BLACK
6
CONTINUOUS
10
92.2432
20
-97.295
11
92.1603
21
-97.0949
0
LINE
8
BLACK
6
CONTINUOUS
10
92.1603
20
-97.0949
11
92.118
21
-96.8823
0
LINE
8
BLACK
6
CONTINUOUS
10
92.118
20
-96.8823
11
92.118
21
-96.6657
0
LINE
8
BLACK
6
CONTINUOUS
10
92.118
20
-96.6657
11
92.1603
21
-96.4531
0
LINE
8
BLACK
6
CONTINUOUS
10
92.1603
20
-96.4531
11
92.2432
21
-96.253
0
LINE
8
BLACK
6
CONTINUOUS
10
92.2432
20
-96.253
11
92.3636
21
-96.0728
0
LINE
8
BLACK
6
CONTINUOUS
10
92.3636
20
-96.0728
11
92.5168
21
-95.9196
0
LINE
8
BLACK
6
CONTINUOUS
10
92.5168
20
-95.9196
11
92.697
21
-95.7992
0
LINE
8
BLACK
6
CONTINUOUS
10
92.697
20
-95.7992
11
92.8971
21
-95.7163
0
LINE
8
BLACK
6
CONTINUOUS
10
92.8971
20
-95.7163
11
93.1097
21
-95.674
0
LINE
8
BLACK
6
CONTINUOUS
10
93.1097
20
-95.674
11
93.3263
21
-95.674
0
LINE
8
BLACK
6
CONTINUOUS
10
93.3263
20
-95.674
11
93.5389
21
-95.7163
0
LINE
8
BLACK
6
CONTINUOUS
10
80.8389
20
-95.7163
11
81.039
21
-95.7992
0
LINE
8
BLACK
6
CONTINUOUS
10
81.039
20
-95.7992
11
81.2192
21
-95.9196
0
LINE
8
BLACK
6
CONTINUOUS
10
81.2192
20
-95.9196
11
81.3724
21
-96.0728
0
LINE
8
BLACK
6
CONTINUOUS
10
81.3724
20
-96.0728
11
81.4928
21
-96.253
0
LINE
8
BLACK
6
CONTINUOUS
10
81.4928
20
-96.253
11
81.5757
21
-96.4531
0
LINE
8
BLACK
6
CONTINUOUS
10
81.5757
20
-96.4531
11
81.618
21
-96.6657
0
LINE
8
BLACK
6
CONTINUOUS
10
81.618
20
-96.6657
11
81.618
21
-96.8823
0
LINE
8
BLACK
6
CONTINUOUS
10
81.618
20
-96.8823
11
81.5757
21
-97.0949
0
LINE
8
BLACK
6
CONTINUOUS
10
81.5757
20
-97.0949
11
81.4928
21
-97.295
0
LINE
8
BLACK
6
CONTINUOUS
10
81.4928
20
-97.295
11
81.3724
21
-97.4752
0
LINE
8
BLACK
6
CONTINUOUS
10
81.3724
20
-97.4752
11
81.2192
21
-97.6284
0
LINE
8
BLACK
6
CONTINUOUS
10
81.2192
20
-97.6284
11
81.039
21
-97.7488
0
LINE
8
BLACK
6
CONTINUOUS
10
81.039
20
-97.7488
11
80.8389
21
-97.8317
0
LINE
8
BLACK
6
CONTINUOUS
10
80.8389
20
-97.8317
11
80.6263
21
-97.874
0
LINE
8
BLACK
6
CONTINUOUS
10
80.6263
20
-97.874
11
80.4097
21
-97.874
0
LINE
8
BLACK
6
CONTINUOUS
10
80.4097
20
-97.874
11
80.1971
21
-97.8317
0
LINE
8
BLACK
6
CONTINUOUS
10
80.1971
20
-97.8317
11
79.997
21
-97.7488
0
LINE
8
BLACK
6
CONTINUOUS
10
79.997
20
-97.7488
11
79.8168
21
-97.6284
0
LINE
8
BLACK
6
CONTINUOUS
10
79.8168
20
-97.6284
11
79.6636
21
-97.4752
0
LINE
8
BLACK
6
CONTINUOUS
10
79.6636
20
-97.4752
11
79.5432
21
-97.295
0
LINE
8
BLACK
6
CONTINUOUS
10
79.5432
20
-97.295
11
79.4603
21
-97.0949
0
LINE
8
BLACK
6
CONTINUOUS
10
79.4603
20
-97.0949
11
79.418
21
-96.8823
0
LINE
8
BLACK
6
CONTINUOUS
10
79.418
20
-96.8823
11
79.418
21
-96.6657
0
LINE
8
BLACK
6
CONTINUOUS
10
79.418
20
-96.6657
11
79.4603
21
-96.4531
0
LINE
8
BLACK
6
CONTINUOUS
10
79.4603
20
-96.4531
11
79.5432
21
-96.253
0
LINE
8
BLACK
6
CONTINUOUS
10
79.5432
20
-96.253
11
79.6636
21
-96.0728
0
LINE
8
BLACK
6
CONTINUOUS
10
79.6636
20
-96.0728
11
79.8168
21
-95.9196
0
LINE
8
BLACK
6
CONTINUOUS
10
79.8168
20
-95.9196
11
79.997
21
-95.7992
0
LINE
8
BLACK
6
CONTINUOUS
10
79.997
20
-95.7992
11
80.1971
21
-95.7163
0
LINE
8
BLACK
6
CONTINUOUS
10
80.1971
20
-95.7163
11
80.4097
21
-95.674
0
LINE
8
BLACK
6
CONTINUOUS
10
80.4097
20
-95.674
11
80.6263
21
-95.674
0
LINE
8
BLACK
6
CONTINUOUS
10
80.6263
20
-95.674
11
80.8389
21
-95.7163
0
LINE
8
BLACK
6
CONTINUOUS
10
74.9969
20
-95.4623
11
75.197
21
-95.5452
0
LINE
8
BLACK
6
CONTINUOUS
10
75.197
20
-95.5452
11
75.3772
21
-95.6656
0
LINE
8
BLACK
6
CONTINUOUS
10
75.3772
20
-95.6656
11
75.5304
21
-95.8188
0
LINE
8
BLACK
6
CONTINUOUS
10
75.5304
20
-95.8188
11
75.6508
21
-95.999
0
LINE
8
BLACK
6
CONTINUOUS
10
75.6508
20
-95.999
11
75.7337
21
-96.1991
0
LINE
8
BLACK
6
CONTINUOUS
10
75.7337
20
-96.1991
11
75.776
21
-96.4117
0
LINE
8
BLACK
6
CONTINUOUS
10
75.776
20
-96.4117
11
75.776
21
-96.6283
0
LINE
8
BLACK
6
CONTINUOUS
10
75.776
20
-96.6283
11
75.7337
21
-96.8409
0
LINE
8
BLACK
6
CONTINUOUS
10
75.7337
20
-96.8409
11
75.6508
21
-97.041
0
LINE
8
BLACK
6
CONTINUOUS
10
75.6508
20
-97.041
11
75.5304
21
-97.2212
0
LINE
8
BLACK
6
CONTINUOUS
10
75.5304
20
-97.2212
11
75.3772
21
-97.3744
0
LINE
8
BLACK
6
CONTINUOUS
10
75.3772
20
-97.3744
11
75.197
21
-97.4948
0
LINE
8
BLACK
6
CONTINUOUS
10
75.197
20
-97.4948
11
74.9969
21
-97.5777
0
LINE
8
BLACK
6
CONTINUOUS
10
74.9969
20
-97.5777
11
74.7843
21
-97.62
0
LINE
8
BLACK
6
CONTINUOUS
10
74.7843
20
-97.62
11
74.5677
21
-97.62
0
LINE
8
BLACK
6
CONTINUOUS
10
74.5677
20
-97.62
11
74.3551
21
-97.5777
0
LINE
8
BLACK
6
CONTINUOUS
10
74.3551
20
-97.5777
11
74.155
21
-97.4948
0
LINE
8
BLACK
6
CONTINUOUS
10
74.155
20
-97.4948
11
73.9748
21
-97.3744
0
LINE
8
BLACK
6
CONTINUOUS
10
73.9748
20
-97.3744
11
73.8216
21
-97.2212
0
LINE
8
BLACK
6
CONTINUOUS
10
73.8216
20
-97.2212
11
73.7012
21
-97.041
0
LINE
8
BLACK
6
CONTINUOUS
10
73.7012
20
-97.041
11
73.6183
21
-96.8409
0
LINE
8
BLACK
6
CONTINUOUS
10
73.6183
20
-96.8409
11
73.576
21
-96.6283
0
LINE
8
BLACK
6
CONTINUOUS
10
73.576
20
-96.6283
11
73.576
21
-96.4117
0
LINE
8
BLACK
6
CONTINUOUS
10
73.576
20
-96.4117
11
73.6183
21
-96.1991
0
LINE
8
BLACK
6
CONTINUOUS
10
73.6183
20
-96.1991
11
73.7012
21
-95.999
0
LINE
8
BLACK
6
CONTINUOUS
10
73.7012
20
-95.999
11
73.8216
21
-95.8188
0
LINE
8
BLACK
6
CONTINUOUS
10
73.8216
20
-95.8188
11
73.9748
21
-95.6656
0
LINE
8
BLACK
6
CONTINUOUS
10
73.9748
20
-95.6656
11
74.155
21
-95.5452
0
LINE
8
BLACK
6
CONTINUOUS
10
74.155
20
-95.5452
11
74.3551
21
-95.4623
0
LINE
8
BLACK
6
CONTINUOUS
10
74.3551
20
-95.4623
11
74.5677
21
-95.42
0
LINE
8
BLACK
6
CONTINUOUS
10
74.5677
20
-95.42
11
74.7843
21
-95.42
0
LINE
8
BLACK
6
CONTINUOUS
10
74.7843
20
-95.42
11
74.9969
21
-95.4623
0
LINE
8
BLACK
6
CONTINUOUS
10
73.136
20
-97.52
11
71.136
21
-97.52
0
LINE
8
BLACK
6
CONTINUOUS
10
71.136
20
-97.52
11
71.136
21
-95.52
0
LINE
8
BLACK
6
CONTINUOUS
10
71.136
20
-95.52
11
73.136
21
-95.52
0
LINE
8
BLACK
6
CONTINUOUS
10
73.136
20
-95.52
11
73.136
21
-97.52
0
LINE
8
BLACK
6
CONTINUOUS
10
114.28
20
-97.112
11
111.78
21
-97.112
0
LINE
8
BLACK
6
CONTINUOUS
10
111.78
20
-97.112
11
111.78
21
-94.912
0
LINE
8
BLACK
6
CONTINUOUS
10
111.78
20
-94.912
11
114.28
21
-94.912
0
LINE
8
BLACK
6
CONTINUOUS
10
114.28
20
-94.912
11
114.28
21
-97.112
0
LINE
8
BLACK
6
CONTINUOUS
10
66.02
20
-96.096
11
63.52
21
-96.096
0
LINE
8
BLACK
6
CONTINUOUS
10
63.52
20
-96.096
11
63.52
21
-93.896
0
LINE
8
BLACK
6
CONTINUOUS
10
63.52
20
-93.896
11
66.02
21
-93.896
0
LINE
8
BLACK
6
CONTINUOUS
10
66.02
20
-93.896
11
66.02
21
-96.096
0
LINE
8
BLACK
6
CONTINUOUS
10
114.28
20
-94.572
11
111.78
21
-94.572
0
LINE
8
BLACK
6
CONTINUOUS
10
111.78
20
-94.572
11
111.78
21
-92.372
0
LINE
8
BLACK
6
CONTINUOUS
10
111.78
20
-92.372
11
114.28
21
-92.372
0
LINE
8
BLACK
6
CONTINUOUS
10
114.28
20
-92.372
11
114.28
21
-94.572
0
LINE
8
BLACK
6
CONTINUOUS
10
80.8389
20
-91.9063
11
81.039
21
-91.9892
0
LINE
8
BLACK
6
CONTINUOUS
10
81.039
20
-91.9892
11
81.2192
21
-92.1096
0
LINE
8
BLACK
6
CONTINUOUS
10
81.2192
20
-92.1096
11
81.3724
21
-92.2628
0
LINE
8
BLACK
6
CONTINUOUS
10
81.3724
20
-92.2628
11
81.4928
21
-92.443
0
LINE
8
BLACK
6
CONTINUOUS
10
81.4928
20
-92.443
11
81.5757
21
-92.6431
0
LINE
8
BLACK
6
CONTINUOUS
10
81.5757
20
-92.6431
11
81.618
21
-92.8557
0
LINE
8
BLACK
6
CONTINUOUS
10
81.618
20
-92.8557
11
81.618
21
-93.0723
0
LINE
8
BLACK
6
CONTINUOUS
10
81.618
20
-93.0723
11
81.5757
21
-93.2849
0
LINE
8
BLACK
6
CONTINUOUS
10
81.5757
20
-93.2849
11
81.4928
21
-93.485
0
LINE
8
BLACK
6
CONTINUOUS
10
81.4928
20
-93.485
11
81.3724
21
-93.6652
0
LINE
8
BLACK
6
CONTINUOUS
10
81.3724
20
-93.6652
11
81.2192
21
-93.8184
0
LINE
8
BLACK
6
CONTINUOUS
10
81.2192
20
-93.8184
11
81.039
21
-93.9388
0
LINE
8
BLACK
6
CONTINUOUS
10
81.039
20
-93.9388
11
80.8389
21
-94.0217
0
LINE
8
BLACK
6
CONTINUOUS
10
80.8389
20
-94.0217
11
80.6263
21
-94.064
0
LINE
8
BLACK
6
CONTINUOUS
10
80.6263
20
-94.064
11
80.4097
21
-94.064
0
LINE
8
BLACK
6
CONTINUOUS
10
80.4097
20
-94.064
11
80.1971
21
-94.0217
0
LINE
8
BLACK
6
CONTINUOUS
10
80.1971
20
-94.0217
11
79.997
21
-93.9388
0
LINE
8
BLACK
6
CONTINUOUS
10
79.997
20
-93.9388
11
79.8168
21
-93.8184
0
LINE
8
BLACK
6
CONTINUOUS
10
79.8168
20
-93.8184
11
79.6636
21
-93.6652
0
LINE
8
BLACK
6
CONTINUOUS
10
79.6636
20
-93.6652
11
79.5432
21
-93.485
0
LINE
8
BLACK
6
CONTINUOUS
10
79.5432
20
-93.485
11
79.4603
21
-93.2849
0
LINE
8
BLACK
6
CONTINUOUS
10
79.4603
20
-93.2849
11
79.418
21
-93.0723
0
LINE
8
BLACK
6
CONTINUOUS
10
79.418
20
-93.0723
11
79.418
21
-92.8557
0
LINE
8
BLACK
6
CONTINUOUS
10
79.418
20
-92.8557
11
79.4603
21
-92.6431
0
LINE
8
BLACK
6
CONTINUOUS
10
79.4603
20
-92.6431
11
79.5432
21
-92.443
0
LINE
8
BLACK
6
CONTINUOUS
10
79.5432
20
-92.443
11
79.6636
21
-92.2628
0
LINE
8
BLACK
6
CONTINUOUS
10
79.6636
20
-92.2628
11
79.8168
21
-92.1096
0
LINE
8
BLACK
6
CONTINUOUS
10
79.8168
20
-92.1096
11
79.997
21
-91.9892
0
LINE
8
BLACK
6
CONTINUOUS
10
79.997
20
-91.9892
11
80.1971
21
-91.9063
0
LINE
8
BLACK
6
CONTINUOUS
10
80.1971
20
-91.9063
11
80.4097
21
-91.864
0
LINE
8
BLACK
6
CONTINUOUS
10
80.4097
20
-91.864
11
80.6263
21
-91.864
0
LINE
8
BLACK
6
CONTINUOUS
10
80.6263
20
-91.864
11
80.8389
21
-91.9063
0
LINE
8
BLACK
6
CONTINUOUS
10
93.5389
20
-91.9063
11
93.739
21
-91.9892
0
LINE
8
BLACK
6
CONTINUOUS
10
93.739
20
-91.9892
11
93.9192
21
-92.1096
0
LINE
8
BLACK
6
CONTINUOUS
10
93.9192
20
-92.1096
11
94.0724
21
-92.2628
0
LINE
8
BLACK
6
CONTINUOUS
10
94.0724
20
-92.2628
11
94.1928
21
-92.443
0
LINE
8
BLACK
6
CONTINUOUS
10
94.1928
20
-92.443
11
94.2757
21
-92.6431
0
LINE
8
BLACK
6
CONTINUOUS
10
94.2757
20
-92.6431
11
94.318
21
-92.8557
0
LINE
8
BLACK
6
CONTINUOUS
10
94.318
20
-92.8557
11
94.318
21
-93.0723
0
LINE
8
BLACK
6
CONTINUOUS
10
94.318
20
-93.0723
11
94.2757
21
-93.2849
0
LINE
8
BLACK
6
CONTINUOUS
10
94.2757
20
-93.2849
11
94.1928
21
-93.485
0
LINE
8
BLACK
6
CONTINUOUS
10
94.1928
20
-93.485
11
94.0724
21
-93.6652
0
LINE
8
BLACK
6
CONTINUOUS
10
94.0724
20
-93.6652
11
93.9192
21
-93.8184
0
LINE
8
BLACK
6
CONTINUOUS
10
93.9192
20
-93.8184
11
93.739
21
-93.9388
0
LINE
8
BLACK
6
CONTINUOUS
10
93.739
20
-93.9388
11
93.5389
21
-94.0217
0
LINE
8
BLACK
6
CONTINUOUS
10
93.5389
20
-94.0217
11
93.3263
21
-94.064
0
LINE
8
BLACK
6
CONTINUOUS
10
93.3263
20
-94.064
11
93.1097
21
-94.064
0
LINE
8
BLACK
6
CONTINUOUS
10
93.1097
20
-94.064
11
92.8971
21
-94.0217
0
LINE
8
BLACK
6
CONTINUOUS
10
92.8971
20
-94.0217
11
92.697
21
-93.9388
0
LINE
8
BLACK
6
CONTINUOUS
10
92.697
20
-93.9388
11
92.5168
21
-93.8184
0
LINE
8
BLACK
6
CONTINUOUS
10
92.5168
20
-93.8184
11
92.3636
21
-93.6652
0
LINE
8
BLACK
6
CONTINUOUS
10
92.3636
20
-93.6652
11
92.2432
21
-93.485
0
LINE
8
BLACK
6
CONTINUOUS
10
92.2432
20
-93.485
11
92.1603
21
-93.2849
0
LINE
8
BLACK
6
CONTINUOUS
10
92.1603
20
-93.2849
11
92.118
21
-93.0723
0
LINE
8
BLACK
6
CONTINUOUS
10
92.118
20
-93.0723
11
92.118
21
-92.8557
0
LINE
8
BLACK
6
CONTINUOUS
10
92.118
20
-92.8557
11
92.1603
21
-92.6431
0
LINE
8
BLACK
6
CONTINUOUS
10
92.1603
20
-92.6431
11
92.2432
21
-92.443
0
LINE
8
BLACK
6
CONTINUOUS
10
92.2432
20
-92.443
11
92.3636
21
-92.2628
0
LINE
8
BLACK
6
CONTINUOUS
10
92.3636
20
-92.2628
11
92.5168
21
-92.1096
0
LINE
8
BLACK
6
CONTINUOUS
10
92.5168
20
-92.1096
11
92.697
21
-91.9892
0
LINE
8
BLACK
6
CONTINUOUS
10
92.697
20
-91.9892
11
92.8971
21
-91.9063
0
LINE
8
BLACK
6
CONTINUOUS
10
92.8971
20
-91.9063
11
93.1097
21
-91.864
0
LINE
8
BLACK
6
CONTINUOUS
10
93.1097
20
-91.864
11
93.3263
21
-91.864
0
LINE
8
BLACK
6
CONTINUOUS
10
93.3263
20
-91.864
11
93.5389
21
-91.9063
0
LINE
8
BLACK
6
CONTINUOUS
10
66.02
20
-93.556
11
63.52
21
-93.556
0
LINE
8
BLACK
6
CONTINUOUS
10
63.52
20
-93.556
11
63.52
21
-91.356
0
LINE
8
BLACK
6
CONTINUOUS
10
63.52
20
-91.356
11
66.02
21
-91.356
0
LINE
8
BLACK
6
CONTINUOUS
10
66.02
20
-91.356
11
66.02
21
-93.556
0
LINE
8
BLACK
6
CONTINUOUS
10
114.28
20
-92.032
11
111.78
21
-92.032
0
LINE
8
BLACK
6
CONTINUOUS
10
111.78
20
-92.032
11
111.78
21
-89.832
0
LINE
8
BLACK
6
CONTINUOUS
10
111.78
20
-89.832
11
114.28
21
-89.832
0
LINE
8
BLACK
6
CONTINUOUS
10
114.28
20
-89.832
11
114.28
21
-92.032
0
LINE
8
BLACK
6
CONTINUOUS
10
66.02
20
-91.016
11
63.52
21
-91.016
0
LINE
8
BLACK
6
CONTINUOUS
10
63.52
20
-91.016
11
63.52
21
-88.816
0
LINE
8
BLACK
6
CONTINUOUS
10
63.52
20
-88.816
11
66.02
21
-88.816
0
LINE
8
BLACK
6
CONTINUOUS
10
66.02
20
-88.816
11
66.02
21
-91.016
0
LINE
8
BLACK
6
CONTINUOUS
10
74.9969
20
-87.3343
11
75.197
21
-87.4172
0
LINE
8
BLACK
6
CONTINUOUS
10
75.197
20
-87.4172
11
75.3772
21
-87.5376
0
LINE
8
BLACK
6
CONTINUOUS
10
75.3772
20
-87.5376
11
75.5304
21
-87.6908
0
LINE
8
BLACK
6
CONTINUOUS
10
75.5304
20
-87.6908
11
75.6508
21
-87.871
0
LINE
8
BLACK
6
CONTINUOUS
10
75.6508
20
-87.871
11
75.7337
21
-88.0711
0
LINE
8
BLACK
6
CONTINUOUS
10
75.7337
20
-88.0711
11
75.776
21
-88.2837
0
LINE
8
BLACK
6
CONTINUOUS
10
75.776
20
-88.2837
11
75.776
21
-88.5003
0
LINE
8
BLACK
6
CONTINUOUS
10
75.776
20
-88.5003
11
75.7337
21
-88.7129
0
LINE
8
BLACK
6
CONTINUOUS
10
75.7337
20
-88.7129
11
75.6508
21
-88.913
0
LINE
8
BLACK
6
CONTINUOUS
10
75.6508
20
-88.913
11
75.5304
21
-89.0932
0
LINE
8
BLACK
6
CONTINUOUS
10
75.5304
20
-89.0932
11
75.3772
21
-89.2464
0
LINE
8
BLACK
6
CONTINUOUS
10
75.3772
20
-89.2464
11
75.197
21
-89.3668
0
LINE
8
BLACK
6
CONTINUOUS
10
75.197
20
-89.3668
11
74.9969
21
-89.4497
0
LINE
8
BLACK
6
CONTINUOUS
10
74.9969
20
-89.4497
11
74.7843
21
-89.492
0
LINE
8
BLACK
6
CONTINUOUS
10
74.7843
20
-89.492
11
74.5677
21
-89.492
0
LINE
8
BLACK
6
CONTINUOUS
10
74.5677
20
-89.492
11
74.3551
21
-89.4497
0
LINE
8
BLACK
6
CONTINUOUS
10
74.3551
20
-89.4497
11
74.155
21
-89.3668
0
LINE
8
BLACK
6
CONTINUOUS
10
74.155
20
-89.3668
11
73.9748
21
-89.2464
0
LINE
8
BLACK
6
CONTINUOUS
10
73.9748
20
-89.2464
11
73.8216
21
-89.0932
0
LINE
8
BLACK
6
CONTINUOUS
10
73.8216
20
-89.0932
11
73.7012
21
-88.913
0
LINE
8
BLACK
6
CONTINUOUS
10
73.7012
20
-88.913
11
73.6183
21
-88.7129
0
LINE
8
BLACK
6
CONTINUOUS
10
73.6183
20
-88.7129
11
73.576
21
-88.5003
0
LINE
8
BLACK
6
CONTINUOUS
10
73.576
20
-88.5003
11
73.576
21
-88.2837
0
LINE
8
BLACK
6
CONTINUOUS
10
73.576
20
-88.2837
11
73.6183
21
-88.0711
0
LINE
8
BLACK
6
CONTINUOUS
10
73.6183
20
-88.0711
11
73.7012
21
-87.871
0
LINE
8
BLACK
6
CONTINUOUS
10
73.7012
20
-87.871
11
73.8216
21
-87.6908
0
LINE
8
BLACK
6
CONTINUOUS
10
73.8216
20
-87.6908
11
73.9748
21
-87.5376
0
LINE
8
BLACK
6
CONTINUOUS
10
73.9748
20
-87.5376
11
74.155
21
-87.4172
0
LINE
8
BLACK
6
CONTINUOUS
10
74.155
20
-87.4172
11
74.3551
21
-87.3343
0
LINE
8
BLACK
6
CONTINUOUS
10
74.3551
20
-87.3343
11
74.5677
21
-87.292
0
LINE
8
BLACK
6
CONTINUOUS
10
74.5677
20
-87.292
11
74.7843
21
-87.292
0
LINE
8
BLACK
6
CONTINUOUS
10
74.7843
20
-87.292
11
74.9969
21
-87.3343
0
LINE
8
BLACK
6
CONTINUOUS
10
114.28
20
-89.492
11
111.78
21
-89.492
0
LINE
8
BLACK
6
CONTINUOUS
10
111.78
20
-89.492
11
111.78
21
-87.292
0
LINE
8
BLACK
6
CONTINUOUS
10
111.78
20
-87.292
11
114.28
21
-87.292
0
LINE
8
BLACK
6
CONTINUOUS
10
114.28
20
-87.292
11
114.28
21
-89.492
0
LINE
8
BLACK
6
CONTINUOUS
10
73.136
20
-89.392
11
71.136
21
-89.392
0
LINE
8
BLACK
6
CONTINUOUS
10
71.136
20
-89.392
11
71.136
21
-87.392
0
LINE
8
BLACK
6
CONTINUOUS
10
71.136
20
-87.392
11
73.136
21
-87.392
0
LINE
8
BLACK
6
CONTINUOUS
10
73.136
20
-87.392
11
73.136
21
-89.392
0
LINE
8
BLACK
6
CONTINUOUS
10
109.033
20
-86.0643
11
109.233
21
-86.1472
0
LINE
8
BLACK
6
CONTINUOUS
10
109.233
20
-86.1472
11
109.413
21
-86.2676
0
LINE
8
BLACK
6
CONTINUOUS
10
109.413
20
-86.2676
11
109.566
21
-86.4208
0
LINE
8
BLACK
6
CONTINUOUS
10
109.566
20
-86.4208
11
109.687
21
-86.601
0
LINE
8
BLACK
6
CONTINUOUS
10
109.687
20
-86.601
11
109.77
21
-86.8011
0
LINE
8
BLACK
6
CONTINUOUS
10
109.77
20
-86.8011
11
109.812
21
-87.0137
0
LINE
8
BLACK
6
CONTINUOUS
10
109.812
20
-87.0137
11
109.812
21
-87.2303
0
LINE
8
BLACK
6
CONTINUOUS
10
109.812
20
-87.2303
11
109.77
21
-87.4429
0
LINE
8
BLACK
6
CONTINUOUS
10
109.77
20
-87.4429
11
109.687
21
-87.643
0
LINE
8
BLACK
6
CONTINUOUS
10
109.687
20
-87.643
11
109.566
21
-87.8232
0
LINE
8
BLACK
6
CONTINUOUS
10
109.566
20
-87.8232
11
109.413
21
-87.9764
0
LINE
8
BLACK
6
CONTINUOUS
10
109.413
20
-87.9764
11
109.233
21
-88.0968
0
LINE
8
BLACK
6
CONTINUOUS
10
109.233
20
-88.0968
11
109.033
21
-88.1797
0
LINE
8
BLACK
6
CONTINUOUS
10
109.033
20
-88.1797
11
108.82
21
-88.222
0
LINE
8
BLACK
6
CONTINUOUS
10
108.82
20
-88.222
11
108.604
21
-88.222
0
LINE
8
BLACK
6
CONTINUOUS
10
108.604
20
-88.222
11
108.391
21
-88.1797
0
LINE
8
BLACK
6
CONTINUOUS
10
108.391
20
-88.1797
11
108.191
21
-88.0968
0
LINE
8
BLACK
6
CONTINUOUS
10
108.191
20
-88.0968
11
108.011
21
-87.9764
0
LINE
8
BLACK
6
CONTINUOUS
10
108.011
20
-87.9764
11
107.858
21
-87.8232
0
LINE
8
BLACK
6
CONTINUOUS
10
107.858
20
-87.8232
11
107.737
21
-87.643
0
LINE
8
BLACK
6
CONTINUOUS
10
107.737
20
-87.643
11
107.654
21
-87.4429
0
LINE
8
BLACK
6
CONTINUOUS
10
107.654
20
-87.4429
11
107.612
21
-87.2303
0
LINE
8
BLACK
6
CONTINUOUS
10
107.612
20
-87.2303
11
107.612
21
-87.0137
0
LINE
8
BLACK
6
CONTINUOUS
10
107.612
20
-87.0137
11
107.654
21
-86.8011
0
LINE
8
BLACK
6
CONTINUOUS
10
107.654
20
-86.8011
11
107.737
21
-86.601
0
LINE
8
BLACK
6
CONTINUOUS
10
107.737
20
-86.601
11
107.858
21
-86.4208
0
LINE
8
BLACK
6
CONTINUOUS
10
107.858
20
-86.4208
11
108.011
21
-86.2676
0
LINE
8
BLACK
6
CONTINUOUS
10
108.011
20
-86.2676
11
108.191
21
-86.1472
0
LINE
8
BLACK
6
CONTINUOUS
10
108.191
20
-86.1472
11
108.391
21
-86.0643
0
LINE
8
BLACK
6
CONTINUOUS
10
108.391
20
-86.0643
11
108.604
21
-86.022
0
LINE
8
BLACK
6
CONTINUOUS
10
108.604
20
-86.022
11
108.82
21
-86.022
0
LINE
8
BLACK
6
CONTINUOUS
10
108.82
20
-86.022
11
109.033
21
-86.0643
0
LINE
8
BLACK
6
CONTINUOUS
10
93.7929
20
-86.0643
11
93.993
21
-86.1472
0
LINE
8
BLACK
6
CONTINUOUS
10
93.993
20
-86.1472
11
94.1732
21
-86.2676
0
LINE
8
BLACK
6
CONTINUOUS
10
94.1732
20
-86.2676
11
94.3264
21
-86.4208
0
LINE
8
BLACK
6
CONTINUOUS
10
94.3264
20
-86.4208
11
94.4468
21
-86.601
0
LINE
8
BLACK
6
CONTINUOUS
10
94.4468
20
-86.601
11
94.5297
21
-86.8011
0
LINE
8
BLACK
6
CONTINUOUS
10
94.5297
20
-86.8011
11
94.572
21
-87.0137
0
LINE
8
BLACK
6
CONTINUOUS
10
94.572
20
-87.0137
11
94.572
21
-87.2303
0
LINE
8
BLACK
6
CONTINUOUS
10
94.572
20
-87.2303
11
94.5297
21
-87.4429
0
LINE
8
BLACK
6
CONTINUOUS
10
94.5297
20
-87.4429
11
94.4468
21
-87.643
0
LINE
8
BLACK
6
CONTINUOUS
10
94.4468
20
-87.643
11
94.3264
21
-87.8232
0
LINE
8
BLACK
6
CONTINUOUS
10
94.3264
20
-87.8232
11
94.1732
21
-87.9764
0
LINE
8
BLACK
6
CONTINUOUS
10
94.1732
20
-87.9764
11
93.993
21
-88.0968
0
LINE
8
BLACK
6
CONTINUOUS
10
93.993
20
-88.0968
11
93.7929
21
-88.1797
0
LINE
8
BLACK
6
CONTINUOUS
10
93.7929
20
-88.1797
11
93.5803
21
-88.222
0
LINE
8
BLACK
6
CONTINUOUS
10
93.5803
20
-88.222
11
93.3637
21
-88.222
0
LINE
8
BLACK
6
CONTINUOUS
10
93.3637
20
-88.222
11
93.1511
21
-88.1797
0
LINE
8
BLACK
6
CONTINUOUS
10
93.1511
20
-88.1797
11
92.951
21
-88.0968
0
LINE
8
BLACK
6
CONTINUOUS
10
92.951
20
-88.0968
11
92.7708
21
-87.9764
0
LINE
8
BLACK
6
CONTINUOUS
10
92.7708
20
-87.9764
11
92.6176
21
-87.8232
0
LINE
8
BLACK
6
CONTINUOUS
10
92.6176
20
-87.8232
11
92.4972
21
-87.643
0
LINE
8
BLACK
6
CONTINUOUS
10
92.4972
20
-87.643
11
92.4143
21
-87.4429
0
LINE
8
BLACK
6
CONTINUOUS
10
92.4143
20
-87.4429
11
92.372
21
-87.2303
0
LINE
8
BLACK
6
CONTINUOUS
10
92.372
20
-87.2303
11
92.372
21
-87.0137
0
LINE
8
BLACK
6
CONTINUOUS
10
92.372
20
-87.0137
11
92.4143
21
-86.8011
0
LINE
8
BLACK
6
CONTINUOUS
10
92.4143
20
-86.8011
11
92.4972
21
-86.601
0
LINE
8
BLACK
6
CONTINUOUS
10
92.4972
20
-86.601
11
92.6176
21
-86.4208
0
LINE
8
BLACK
6
CONTINUOUS
10
92.6176
20
-86.4208
11
92.7708
21
-86.2676
0
LINE
8
BLACK
6
CONTINUOUS
10
92.7708
20
-86.2676
11
92.951
21
-86.1472
0
LINE
8
BLACK
6
CONTINUOUS
10
92.951
20
-86.1472
11
93.1511
21
-86.0643
0
LINE
8
BLACK
6
CONTINUOUS
10
93.1511
20
-86.0643
11
93.3637
21
-86.022
0
LINE
8
BLACK
6
CONTINUOUS
10
93.3637
20
-86.022
11
93.5803
21
-86.022
0
LINE
8
BLACK
6
CONTINUOUS
10
93.5803
20
-86.022
11
93.7929
21
-86.0643
0
LINE
8
BLACK
6
CONTINUOUS
10
81.0929
20
-86.0643
11
81.293
21
-86.1472
0
LINE
8
BLACK
6
CONTINUOUS
10
81.293
20
-86.1472
11
81.4732
21
-86.2676
0
LINE
8
BLACK
6
CONTINUOUS
10
81.4732
20
-86.2676
11
81.6264
21
-86.4208
0
LINE
8
BLACK
6
CONTINUOUS
10
81.6264
20
-86.4208
11
81.7468
21
-86.601
0
LINE
8
BLACK
6
CONTINUOUS
10
81.7468
20
-86.601
11
81.8297
21
-86.8011
0
LINE
8
BLACK
6
CONTINUOUS
10
81.8297
20
-86.8011
11
81.872
21
-87.0137
0
LINE
8
BLACK
6
CONTINUOUS
10
81.872
20
-87.0137
11
81.872
21
-87.2303
0
LINE
8
BLACK
6
CONTINUOUS
10
81.872
20
-87.2303
11
81.8297
21
-87.4429
0
LINE
8
BLACK
6
CONTINUOUS
10
81.8297
20
-87.4429
11
81.7468
21
-87.643
0
LINE
8
BLACK
6
CONTINUOUS
10
81.7468
20
-87.643
11
81.6264
21
-87.8232
0
LINE
8
BLACK
6
CONTINUOUS
10
81.6264
20
-87.8232
11
81.4732
21
-87.9764
0
LINE
8
BLACK
6
CONTINUOUS
10
81.4732
20
-87.9764
11
81.293
21
-88.0968
0
LINE
8
BLACK
6
CONTINUOUS
10
81.293
20
-88.0968
11
81.0929
21
-88.1797
0
LINE
8
BLACK
6
CONTINUOUS
10
81.0929
20
-88.1797
11
80.8803
21
-88.222
0
LINE
8
BLACK
6
CONTINUOUS
10
80.8803
20
-88.222
11
80.6637
21
-88.222
0
LINE
8
BLACK
6
CONTINUOUS
10
80.6637
20
-88.222
11
80.4511
21
-88.1797
0
LINE
8
BLACK
6
CONTINUOUS
10
80.4511
20
-88.1797
11
80.251
21
-88.0968
0
LINE
8
BLACK
6
CONTINUOUS
10
80.251
20
-88.0968
11
80.0708
21
-87.9764
0
LINE
8
BLACK
6
CONTINUOUS
10
80.0708
20
-87.9764
11
79.9176
21
-87.8232
0
LINE
8
BLACK
6
CONTINUOUS
10
79.9176
20
-87.8232
11
79.7972
21
-87.643
0
LINE
8
BLACK
6
CONTINUOUS
10
79.7972
20
-87.643
11
79.7143
21
-87.4429
0
LINE
8
BLACK
6
CONTINUOUS
10
79.7143
20
-87.4429
11
79.672
21
-87.2303
0
LINE
8
BLACK
6
CONTINUOUS
10
79.672
20
-87.2303
11
79.672
21
-87.0137
0
LINE
8
BLACK
6
CONTINUOUS
10
79.672
20
-87.0137
11
79.7143
21
-86.8011
0
LINE
8
BLACK
6
CONTINUOUS
10
79.7143
20
-86.8011
11
79.7972
21
-86.601
0
LINE
8
BLACK
6
CONTINUOUS
10
79.7972
20
-86.601
11
79.9176
21
-86.4208
0
LINE
8
BLACK
6
CONTINUOUS
10
79.9176
20
-86.4208
11
80.0708
21
-86.2676
0
LINE
8
BLACK
6
CONTINUOUS
10
80.0708
20
-86.2676
11
80.251
21
-86.1472
0
LINE
8
BLACK
6
CONTINUOUS
10
80.251
20
-86.1472
11
80.4511
21
-86.0643
0
LINE
8
BLACK
6
CONTINUOUS
10
80.4511
20
-86.0643
11
80.6637
21
-86.022
0
LINE
8
BLACK
6
CONTINUOUS
10
80.6637
20
-86.022
11
80.8803
21
-86.022
0
LINE
8
BLACK
6
CONTINUOUS
10
80.8803
20
-86.022
11
81.0929
21
-86.0643
0
LINE
8
BLACK
6
CONTINUOUS
10
97.012
20
-88.122
11
95.012
21
-88.122
0
LINE
8
BLACK
6
CONTINUOUS
10
95.012
20
-88.122
11
95.012
21
-86.122
0
LINE
8
BLACK
6
CONTINUOUS
10
95.012
20
-86.122
11
97.012
21
-86.122
0
LINE
8
BLACK
6
CONTINUOUS
10
97.012
20
-86.122
11
97.012
21
-88.122
0
LINE
8
BLACK
6
CONTINUOUS
10
114.28
20
-86.952
11
111.78
21
-86.952
0
LINE
8
BLACK
6
CONTINUOUS
10
111.78
20
-86.952
11
111.78
21
-84.752
0
LINE
8
BLACK
6
CONTINUOUS
10
111.78
20
-84.752
11
114.28
21
-84.752
0
LINE
8
BLACK
6
CONTINUOUS
10
114.28
20
-84.752
11
114.28
21
-86.952
0
LINE
8
BLACK
6
CONTINUOUS
10
114.28
20
-84.412
11
111.78
21
-84.412
0
LINE
8
BLACK
6
CONTINUOUS
10
111.78
20
-84.412
11
111.78
21
-82.212
0
LINE
8
BLACK
6
CONTINUOUS
10
111.78
20
-82.212
11
114.28
21
-82.212
0
LINE
8
BLACK
6
CONTINUOUS
10
114.28
20
-82.212
11
114.28
21
-84.412
0
LINE
8
BLACK
6
CONTINUOUS
10
93.5389
20
-80.2223
11
93.739
21
-80.3052
0
LINE
8
BLACK
6
CONTINUOUS
10
93.739
20
-80.3052
11
93.9192
21
-80.4256
0
LINE
8
BLACK
6
CONTINUOUS
10
93.9192
20
-80.4256
11
94.0724
21
-80.5788
0
LINE
8
BLACK
6
CONTINUOUS
10
94.0724
20
-80.5788
11
94.1928
21
-80.759
0
LINE
8
BLACK
6
CONTINUOUS
10
94.1928
20
-80.759
11
94.2757
21
-80.9591
0
LINE
8
BLACK
6
CONTINUOUS
10
94.2757
20
-80.9591
11
94.318
21
-81.1717
0
LINE
8
BLACK
6
CONTINUOUS
10
94.318
20
-81.1717
11
94.318
21
-81.3883
0
LINE
8
BLACK
6
CONTINUOUS
10
94.318
20
-81.3883
11
94.2757
21
-81.6009
0
LINE
8
BLACK
6
CONTINUOUS
10
94.2757
20
-81.6009
11
94.1928
21
-81.801
0
LINE
8
BLACK
6
CONTINUOUS
10
94.1928
20
-81.801
11
94.0724
21
-81.9812
0
LINE
8
BLACK
6
CONTINUOUS
10
94.0724
20
-81.9812
11
93.9192
21
-82.1344
0
LINE
8
BLACK
6
CONTINUOUS
10
93.9192
20
-82.1344
11
93.739
21
-82.2548
0
LINE
8
BLACK
6
CONTINUOUS
10
93.739
20
-82.2548
11
93.5389
21
-82.3377
0
LINE
8
BLACK
6
CONTINUOUS
10
93.5389
20
-82.3377
11
93.3263
21
-82.38
0
LINE
8
BLACK
6
CONTINUOUS
10
93.3263
20
-82.38
11
93.1097
21
-82.38
0
LINE
8
BLACK
6
CONTINUOUS
10
93.1097
20
-82.38
11
92.8971
21
-82.3377
0
LINE
8
BLACK
6
CONTINUOUS
10
92.8971
20
-82.3377
11
92.697
21
-82.2548
0
LINE
8
BLACK
6
CONTINUOUS
10
92.697
20
-82.2548
11
92.5168
21
-82.1344
0
LINE
8
BLACK
6
CONTINUOUS
10
92.5168
20
-82.1344
11
92.3636
21
-81.9812
0
LINE
8
BLACK
6
CONTINUOUS
10
92.3636
20
-81.9812
11
92.2432
21
-81.801
0
LINE
8
BLACK
6
CONTINUOUS
10
92.2432
20
-81.801
11
92.1603
21
-81.6009
0
LINE
8
BLACK
6
CONTINUOUS
10
92.1603
20
-81.6009
11
92.118
21
-81.3883
0
LINE
8
BLACK
6
CONTINUOUS
10
92.118
20
-81.3883
11
92.118
21
-81.1717
0
LINE
8
BLACK
6
CONTINUOUS
10
92.118
20
-81.1717
11
92.1603
21
-80.9591
0
LINE
8
BLACK
6
CONTINUOUS
10
92.1603
20
-80.9591
11
92.2432
21
-80.759
0
LINE
8
BLACK
6
CONTINUOUS
10
92.2432
20
-80.759
11
92.3636
21
-80.5788
0
LINE
8
BLACK
6
CONTINUOUS
10
92.3636
20
-80.5788
11
92.5168
21
-80.4256
0
LINE
8
BLACK
6
CONTINUOUS
10
92.5168
20
-80.4256
11
92.697
21
-80.3052
0
LINE
8
BLACK
6
CONTINUOUS
10
92.697
20
-80.3052
11
92.8971
21
-80.2223
0
LINE
8
BLACK
6
CONTINUOUS
10
92.8971
20
-80.2223
11
93.1097
21
-80.18
0
LINE
8
BLACK
6
CONTINUOUS
10
93.1097
20
-80.18
11
93.3263
21
-80.18
0
LINE
8
BLACK
6
CONTINUOUS
10
93.3263
20
-80.18
11
93.5389
21
-80.2223
0
LINE
8
BLACK
6
CONTINUOUS
10
114.28
20
-81.872
11
111.78
21
-81.872
0
LINE
8
BLACK
6
CONTINUOUS
10
111.78
20
-81.872
11
111.78
21
-79.672
0
LINE
8
BLACK
6
CONTINUOUS
10
111.78
20
-79.672
11
114.28
21
-79.672
0
LINE
8
BLACK
6
CONTINUOUS
10
114.28
20
-79.672
11
114.28
21
-81.872
0
LINE
8
BLACK
6
CONTINUOUS
10
93.5389
20
-77.6823
11
93.739
21
-77.7652
0
LINE
8
BLACK
6
CONTINUOUS
10
93.739
20
-77.7652
11
93.9192
21
-77.8856
0
LINE
8
BLACK
6
CONTINUOUS
10
93.9192
20
-77.8856
11
94.0724
21
-78.0388
0
LINE
8
BLACK
6
CONTINUOUS
10
94.0724
20
-78.0388
11
94.1928
21
-78.219
0
LINE
8
BLACK
6
CONTINUOUS
10
94.1928
20
-78.219
11
94.2757
21
-78.4191
0
LINE
8
BLACK
6
CONTINUOUS
10
94.2757
20
-78.4191
11
94.318
21
-78.6317
0
LINE
8
BLACK
6
CONTINUOUS
10
94.318
20
-78.6317
11
94.318
21
-78.8483
0
LINE
8
BLACK
6
CONTINUOUS
10
94.318
20
-78.8483
11
94.2757
21
-79.0609
0
LINE
8
BLACK
6
CONTINUOUS
10
94.2757
20
-79.0609
11
94.1928
21
-79.261
0
LINE
8
BLACK
6
CONTINUOUS
10
94.1928
20
-79.261
11
94.0724
21
-79.4412
0
LINE
8
BLACK
6
CONTINUOUS
10
94.0724
20
-79.4412
11
93.9192
21
-79.5944
0
LINE
8
BLACK
6
CONTINUOUS
10
93.9192
20
-79.5944
11
93.739
21
-79.7148
0
LINE
8
BLACK
6
CONTINUOUS
10
93.739
20
-79.7148
11
93.5389
21
-79.7977
0
LINE
8
BLACK
6
CONTINUOUS
10
93.5389
20
-79.7977
11
93.3263
21
-79.84
0
LINE
8
BLACK
6
CONTINUOUS
10
93.3263
20
-79.84
11
93.1097
21
-79.84
0
LINE
8
BLACK
6
CONTINUOUS
10
93.1097
20
-79.84
11
92.8971
21
-79.7977
0
LINE
8
BLACK
6
CONTINUOUS
10
92.8971
20
-79.7977
11
92.697
21
-79.7148
0
LINE
8
BLACK
6
CONTINUOUS
10
92.697
20
-79.7148
11
92.5168
21
-79.5944
0
LINE
8
BLACK
6
CONTINUOUS
10
92.5168
20
-79.5944
11
92.3636
21
-79.4412
0
LINE
8
BLACK
6
CONTINUOUS
10
92.3636
20
-79.4412
11
92.2432
21
-79.261
0
LINE
8
BLACK
6
CONTINUOUS
10
92.2432
20
-79.261
11
92.1603
21
-79.0609
0
LINE
8
BLACK
6
CONTINUOUS
10
92.1603
20
-79.0609
11
92.118
21
-78.8483
0
LINE
8
BLACK
6
CONTINUOUS
10
92.118
20
-78.8483
11
92.118
21
-78.6317
0
LINE
8
BLACK
6
CONTINUOUS
10
92.118
20
-78.6317
11
92.1603
21
-78.4191
0
LINE
8
BLACK
6
CONTINUOUS
10
92.1603
20
-78.4191
11
92.2432
21
-78.219
0
LINE
8
BLACK
6
CONTINUOUS
10
92.2432
20
-78.219
11
92.3636
21
-78.0388
0
LINE
8
BLACK
6
CONTINUOUS
10
92.3636
20
-78.0388
11
92.5168
21
-77.8856
0
LINE
8
BLACK
6
CONTINUOUS
10
92.5168
20
-77.8856
11
92.697
21
-77.7652
0
LINE
8
BLACK
6
CONTINUOUS
10
92.697
20
-77.7652
11
92.8971
21
-77.6823
0
LINE
8
BLACK
6
CONTINUOUS
10
92.8971
20
-77.6823
11
93.1097
21
-77.64
0
LINE
8
BLACK
6
CONTINUOUS
10
93.1097
20
-77.64
11
93.3263
21
-77.64
0
LINE
8
BLACK
6
CONTINUOUS
10
93.3263
20
-77.64
11
93.5389
21
-77.6823
0
LINE
8
BLACK
6
CONTINUOUS
10
98.1109
20
-77.1743
11
98.311
21
-77.2572
0
LINE
8
BLACK
6
CONTINUOUS
10
98.311
20
-77.2572
11
98.4912
21
-77.3776
0
LINE
8
BLACK
6
CONTINUOUS
10
98.4912
20
-77.3776
11
98.6444
21
-77.5308
0
LINE
8
BLACK
6
CONTINUOUS
10
98.6444
20
-77.5308
11
98.7648
21
-77.711
0
LINE
8
BLACK
6
CONTINUOUS
10
98.7648
20
-77.711
11
98.8477
21
-77.9111
0
LINE
8
BLACK
6
CONTINUOUS
10
98.8477
20
-77.9111
11
98.89
21
-78.1237
0
LINE
8
BLACK
6
CONTINUOUS
10
98.89
20
-78.1237
11
98.89
21
-78.3403
0
LINE
8
BLACK
6
CONTINUOUS
10
98.89
20
-78.3403
11
98.8477
21
-78.5529
0
LINE
8
BLACK
6
CONTINUOUS
10
98.8477
20
-78.5529
11
98.7648
21
-78.753
0
LINE
8
BLACK
6
CONTINUOUS
10
98.7648
20
-78.753
11
98.6444
21
-78.9332
0
LINE
8
BLACK
6
CONTINUOUS
10
98.6444
20
-78.9332
11
98.4912
21
-79.0864
0
LINE
8
BLACK
6
CONTINUOUS
10
98.4912
20
-79.0864
11
98.311
21
-79.2068
0
LINE
8
BLACK
6
CONTINUOUS
10
98.311
20
-79.2068
11
98.1109
21
-79.2897
0
LINE
8
BLACK
6
CONTINUOUS
10
98.1109
20
-79.2897
11
97.8983
21
-79.332
0
LINE
8
BLACK
6
CONTINUOUS
10
97.8983
20
-79.332
11
97.6817
21
-79.332
0
LINE
8
BLACK
6
CONTINUOUS
10
97.6817
20
-79.332
11
97.4691
21
-79.2897
0
LINE
8
BLACK
6
CONTINUOUS
10
97.4691
20
-79.2897
11
97.269
21
-79.2068
0
LINE
8
BLACK
6
CONTINUOUS
10
97.269
20
-79.2068
11
97.0888
21
-79.0864
0
LINE
8
BLACK
6
CONTINUOUS
10
97.0888
20
-79.0864
11
96.9356
21
-78.9332
0
LINE
8
BLACK
6
CONTINUOUS
10
96.9356
20
-78.9332
11
96.8152
21
-78.753
0
LINE
8
BLACK
6
CONTINUOUS
10
96.8152
20
-78.753
11
96.7323
21
-78.5529
0
LINE
8
BLACK
6
CONTINUOUS
10
96.7323
20
-78.5529
11
96.69
21
-78.3403
0
LINE
8
BLACK
6
CONTINUOUS
10
96.69
20
-78.3403
11
96.69
21
-78.1237
0
LINE
8
BLACK
6
CONTINUOUS
10
96.69
20
-78.1237
11
96.7323
21
-77.9111
0
LINE
8
BLACK
6
CONTINUOUS
10
96.7323
20
-77.9111
11
96.8152
21
-77.711
0
LINE
8
BLACK
6
CONTINUOUS
10
96.8152
20
-77.711
11
96.9356
21
-77.5308
0
LINE
8
BLACK
6
CONTINUOUS
10
96.9356
20
-77.5308
11
97.0888
21
-77.3776
0
LINE
8
BLACK
6
CONTINUOUS
10
97.0888
20
-77.3776
11
97.269
21
-77.2572
0
LINE
8
BLACK
6
CONTINUOUS
10
97.269
20
-77.2572
11
97.4691
21
-77.1743
0
LINE
8
BLACK
6
CONTINUOUS
10
97.4691
20
-77.1743
11
97.6817
21
-77.132
0
LINE
8
BLACK
6
CONTINUOUS
10
97.6817
20
-77.132
11
97.8983
21
-77.132
0
LINE
8
BLACK
6
CONTINUOUS
10
97.8983
20
-77.132
11
98.1109
21
-77.1743
0
LINE
8
BLACK
6
CONTINUOUS
10
84.9029
20
-76.9203
11
85.103
21
-77.0032
0
LINE
8
BLACK
6
CONTINUOUS
10
85.103
20
-77.0032
11
85.2832
21
-77.1236
0
LINE
8
BLACK
6
CONTINUOUS
10
85.2832
20
-77.1236
11
85.4364
21
-77.2768
0
LINE
8
BLACK
6
CONTINUOUS
10
85.4364
20
-77.2768
11
85.5568
21
-77.457
0
LINE
8
BLACK
6
CONTINUOUS
10
85.5568
20
-77.457
11
85.6397
21
-77.6571
0
LINE
8
BLACK
6
CONTINUOUS
10
85.6397
20
-77.6571
11
85.682
21
-77.8697
0
LINE
8
BLACK
6
CONTINUOUS
10
85.682
20
-77.8697
11
85.682
21
-78.0863
0
LINE
8
BLACK
6
CONTINUOUS
10
85.682
20
-78.0863
11
85.6397
21
-78.2989
0
LINE
8
BLACK
6
CONTINUOUS
10
85.6397
20
-78.2989
11
85.5568
21
-78.499
0
LINE
8
BLACK
6
CONTINUOUS
10
85.5568
20
-78.499
11
85.4364
21
-78.6792
0
LINE
8
BLACK
6
CONTINUOUS
10
85.4364
20
-78.6792
11
85.2832
21
-78.8324
0
LINE
8
BLACK
6
CONTINUOUS
10
85.2832
20
-78.8324
11
85.103
21
-78.9528
0
LINE
8
BLACK
6
CONTINUOUS
10
85.103
20
-78.9528
11
84.9029
21
-79.0357
0
LINE
8
BLACK
6
CONTINUOUS
10
84.9029
20
-79.0357
11
84.6903
21
-79.078
0
LINE
8
BLACK
6
CONTINUOUS
10
84.6903
20
-79.078
11
84.4737
21
-79.078
0
LINE
8
BLACK
6
CONTINUOUS
10
84.4737
20
-79.078
11
84.2611
21
-79.0357
0
LINE
8
BLACK
6
CONTINUOUS
10
84.2611
20
-79.0357
11
84.061
21
-78.9528
0
LINE
8
BLACK
6
CONTINUOUS
10
84.061
20
-78.9528
11
83.8808
21
-78.8324
0
LINE
8
BLACK
6
CONTINUOUS
10
83.8808
20
-78.8324
11
83.7276
21
-78.6792
0
LINE
8
BLACK
6
CONTINUOUS
10
83.7276
20
-78.6792
11
83.6072
21
-78.499
0
LINE
8
BLACK
6
CONTINUOUS
10
83.6072
20
-78.499
11
83.5243
21
-78.2989
0
LINE
8
BLACK
6
CONTINUOUS
10
83.5243
20
-78.2989
11
83.482
21
-78.0863
0
LINE
8
BLACK
6
CONTINUOUS
10
83.482
20
-78.0863
11
83.482
21
-77.8697
0
LINE
8
BLACK
6
CONTINUOUS
10
83.482
20
-77.8697
11
83.5243
21
-77.6571
0
LINE
8
BLACK
6
CONTINUOUS
10
83.5243
20
-77.6571
11
83.6072
21
-77.457
0
LINE
8
BLACK
6
CONTINUOUS
10
83.6072
20
-77.457
11
83.7276
21
-77.2768
0
LINE
8
BLACK
6
CONTINUOUS
10
83.7276
20
-77.2768
11
83.8808
21
-77.1236
0
LINE
8
BLACK
6
CONTINUOUS
10
83.8808
20
-77.1236
11
84.061
21
-77.0032
0
LINE
8
BLACK
6
CONTINUOUS
10
84.061
20
-77.0032
11
84.2611
21
-76.9203
0
LINE
8
BLACK
6
CONTINUOUS
10
84.2611
20
-76.9203
11
84.4737
21
-76.878
0
LINE
8
BLACK
6
CONTINUOUS
10
84.4737
20
-76.878
11
84.6903
21
-76.878
0
LINE
8
BLACK
6
CONTINUOUS
10
84.6903
20
-76.878
11
84.9029
21
-76.9203
0
LINE
8
BLACK
6
CONTINUOUS
10
103.562
20
-76.0276
11
103.835
21
-76.1407
0
LINE
8
BLACK
6
CONTINUOUS
10
103.835
20
-76.1407
11
104.08
21
-76.3049
0
LINE
8
BLACK
6
CONTINUOUS
10
104.08
20
-76.3049
11
104.289
21
-76.5138
0
LINE
8
BLACK
6
CONTINUOUS
10
104.289
20
-76.5138
11
104.453
21
-76.7595
0
LINE
8
BLACK
6
CONTINUOUS
10
104.453
20
-76.7595
11
104.566
21
-77.0325
0
LINE
8
BLACK
6
CONTINUOUS
10
104.566
20
-77.0325
11
104.624
21
-77.3223
0
LINE
8
BLACK
6
CONTINUOUS
10
104.624
20
-77.3223
11
104.624
21
-77.6177
0
LINE
8
BLACK
6
CONTINUOUS
10
104.624
20
-77.6177
11
104.566
21
-77.9075
0
LINE
8
BLACK
6
CONTINUOUS
10
104.566
20
-77.9075
11
104.453
21
-78.1805
0
LINE
8
BLACK
6
CONTINUOUS
10
104.453
20
-78.1805
11
104.289
21
-78.4262
0
LINE
8
BLACK
6
CONTINUOUS
10
104.289
20
-78.4262
11
104.08
21
-78.6351
0
LINE
8
BLACK
6
CONTINUOUS
10
104.08
20
-78.6351
11
103.835
21
-78.7993
0
LINE
8
BLACK
6
CONTINUOUS
10
103.835
20
-78.7993
11
103.562
21
-78.9124
0
LINE
8
BLACK
6
CONTINUOUS
10
103.562
20
-78.9124
11
103.272
21
-78.97
0
LINE
8
BLACK
6
CONTINUOUS
10
103.272
20
-78.97
11
102.976
21
-78.97
0
LINE
8
BLACK
6
CONTINUOUS
10
102.976
20
-78.97
11
102.686
21
-78.9124
0
LINE
8
BLACK
6
CONTINUOUS
10
102.686
20
-78.9124
11
102.413
21
-78.7993
0
LINE
8
BLACK
6
CONTINUOUS
10
102.413
20
-78.7993
11
102.168
21
-78.6351
0
LINE
8
BLACK
6
CONTINUOUS
10
102.168
20
-78.6351
11
101.959
21
-78.4262
0
LINE
8
BLACK
6
CONTINUOUS
10
101.959
20
-78.4262
11
101.795
21
-78.1805
0
LINE
8
BLACK
6
CONTINUOUS
10
101.795
20
-78.1805
11
101.682
21
-77.9075
0
LINE
8
BLACK
6
CONTINUOUS
10
101.682
20
-77.9075
11
101.624
21
-77.6177
0
LINE
8
BLACK
6
CONTINUOUS
10
101.624
20
-77.6177
11
101.624
21
-77.3223
0
LINE
8
BLACK
6
CONTINUOUS
10
101.624
20
-77.3223
11
101.682
21
-77.0325
0
LINE
8
BLACK
6
CONTINUOUS
10
101.682
20
-77.0325
11
101.795
21
-76.7595
0
LINE
8
BLACK
6
CONTINUOUS
10
101.795
20
-76.7595
11
101.959
21
-76.5138
0
LINE
8
BLACK
6
CONTINUOUS
10
101.959
20
-76.5138
11
102.168
21
-76.3049
0
LINE
8
BLACK
6
CONTINUOUS
10
102.168
20
-76.3049
11
102.413
21
-76.1407
0
LINE
8
BLACK
6
CONTINUOUS
10
102.413
20
-76.1407
11
102.686
21
-76.0276
0
LINE
8
BLACK
6
CONTINUOUS
10
102.686
20
-76.0276
11
102.976
21
-75.97
0
LINE
8
BLACK
6
CONTINUOUS
10
102.976
20
-75.97
11
103.272
21
-75.97
0
LINE
8
BLACK
6
CONTINUOUS
10
103.272
20
-75.97
11
103.562
21
-76.0276
0
LINE
8
BLACK
6
CONTINUOUS
10
109.704
20
-78.97
11
106.704
21
-78.97
0
LINE
8
BLACK
6
CONTINUOUS
10
106.704
20
-78.97
11
106.704
21
-75.97
0
LINE
8
BLACK
6
CONTINUOUS
10
106.704
20
-75.97
11
109.704
21
-75.97
0
LINE
8
BLACK
6
CONTINUOUS
10
109.704
20
-75.97
11
109.704
21
-78.97
0
LINE
8
BLACK
6
CONTINUOUS
10
94.218
20
-77.2
11
92.218
21
-77.2
0
LINE
8
BLACK
6
CONTINUOUS
10
92.218
20
-77.2
11
92.218
21
-75.2
0
LINE
8
BLACK
6
CONTINUOUS
10
92.218
20
-75.2
11
94.218
21
-75.2
0
LINE
8
BLACK
6
CONTINUOUS
10
94.218
20
-75.2
11
94.218
21
-77.2
0
LINE
8
BLACK
6
CONTINUOUS
10
98.1109
20
-74.6743
11
98.311
21
-74.7572
0
LINE
8
BLACK
6
CONTINUOUS
10
98.311
20
-74.7572
11
98.4912
21
-74.8776
0
LINE
8
BLACK
6
CONTINUOUS
10
98.4912
20
-74.8776
11
98.6444
21
-75.0308
0
LINE
8
BLACK
6
CONTINUOUS
10
98.6444
20
-75.0308
11
98.7648
21
-75.211
0
LINE
8
BLACK
6
CONTINUOUS
10
98.7648
20
-75.211
11
98.8477
21
-75.4111
0
LINE
8
BLACK
6
CONTINUOUS
10
98.8477
20
-75.4111
11
98.89
21
-75.6237
0
LINE
8
BLACK
6
CONTINUOUS
10
98.89
20
-75.6237
11
98.89
21
-75.8403
0
LINE
8
BLACK
6
CONTINUOUS
10
98.89
20
-75.8403
11
98.8477
21
-76.0529
0
LINE
8
BLACK
6
CONTINUOUS
10
98.8477
20
-76.0529
11
98.7648
21
-76.253
0
LINE
8
BLACK
6
CONTINUOUS
10
98.7648
20
-76.253
11
98.6444
21
-76.4332
0
LINE
8
BLACK
6
CONTINUOUS
10
98.6444
20
-76.4332
11
98.4912
21
-76.5864
0
LINE
8
BLACK
6
CONTINUOUS
10
98.4912
20
-76.5864
11
98.311
21
-76.7068
0
LINE
8
BLACK
6
CONTINUOUS
10
98.311
20
-76.7068
11
98.1109
21
-76.7897
0
LINE
8
BLACK
6
CONTINUOUS
10
98.1109
20
-76.7897
11
97.8983
21
-76.832
0
LINE
8
BLACK
6
CONTINUOUS
10
97.8983
20
-76.832
11
97.6817
21
-76.832
0
LINE
8
BLACK
6
CONTINUOUS
10
97.6817
20
-76.832
11
97.4691
21
-76.7897
0
LINE
8
BLACK
6
CONTINUOUS
10
97.4691
20
-76.7897
11
97.269
21
-76.7068
0
LINE
8
BLACK
6
CONTINUOUS
10
97.269
20
-76.7068
11
97.0888
21
-76.5864
0
LINE
8
BLACK
6
CONTINUOUS
10
97.0888
20
-76.5864
11
96.9356
21
-76.4332
0
LINE
8
BLACK
6
CONTINUOUS
10
96.9356
20
-76.4332
11
96.8152
21
-76.253
0
LINE
8
BLACK
6
CONTINUOUS
10
96.8152
20
-76.253
11
96.7323
21
-76.0529
0
LINE
8
BLACK
6
CONTINUOUS
10
96.7323
20
-76.0529
11
96.69
21
-75.8403
0
LINE
8
BLACK
6
CONTINUOUS
10
96.69
20
-75.8403
11
96.69
21
-75.6237
0
LINE
8
BLACK
6
CONTINUOUS
10
96.69
20
-75.6237
11
96.7323
21
-75.4111
0
LINE
8
BLACK
6
CONTINUOUS
10
96.7323
20
-75.4111
11
96.8152
21
-75.211
0
LINE
8
BLACK
6
CONTINUOUS
10
96.8152
20
-75.211
11
96.9356
21
-75.0308
0
LINE
8
BLACK
6
CONTINUOUS
10
96.9356
20
-75.0308
11
97.0888
21
-74.8776
0
LINE
8
BLACK
6
CONTINUOUS
10
97.0888
20
-74.8776
11
97.269
21
-74.7572
0
LINE
8
BLACK
6
CONTINUOUS
10
97.269
20
-74.7572
11
97.4691
21
-74.6743
0
LINE
8
BLACK
6
CONTINUOUS
10
97.4691
20
-74.6743
11
97.6817
21
-74.632
0
LINE
8
BLACK
6
CONTINUOUS
10
97.6817
20
-74.632
11
97.8983
21
-74.632
0
LINE
8
BLACK
6
CONTINUOUS
10
97.8983
20
-74.632
11
98.1109
21
-74.6743
0
LINE
8
BLACK
6
CONTINUOUS
10
85.482
20
-76.338
11
83.682
21
-76.338
0
LINE
8
BLACK
6
CONTINUOUS
10
83.682
20
-76.338
11
83.682
21
-74.538
0
LINE
8
BLACK
6
CONTINUOUS
10
83.682
20
-74.538
11
85.482
21
-74.538
0
LINE
8
BLACK
6
CONTINUOUS
10
85.482
20
-74.538
11
85.482
21
-76.338
0
CIRCLE
8
BLACK
10
92.71
20
-112.522
40
0.5
0
CIRCLE
8
BLACK
10
80.264
20
-113.03
40
0.5
  0
ENDSEC
  0
EOF
