G04 #@! TF.GenerationSoftware,KiCad,Pcbnew,(5.1.2)-2*
G04 #@! TF.CreationDate,2020-09-08T11:20:29+07:00*
G04 #@! TF.ProjectId,Balancing_Robot,42616c61-6e63-4696-9e67-5f526f626f74,rev?*
G04 #@! TF.SameCoordinates,Original*
G04 #@! TF.FileFunction,Legend,Top*
G04 #@! TF.FilePolarity,Positive*
%FSLAX46Y46*%
G04 Gerber Fmt 4.6, Leading zero omitted, Abs format (unit mm)*
G04 Created by KiCad (PCBNEW (5.1.2)-2) date 2020-09-08 11:20:29*
%MOMM*%
%LPD*%
G04 APERTURE LIST*
%ADD10C,0.150000*%
%ADD11C,0.120000*%
G04 APERTURE END LIST*
D10*
X107442095Y-72278857D02*
X108965904Y-72278857D01*
X102108095Y-72278857D02*
X103631904Y-72278857D01*
X102870000Y-73040761D02*
X102870000Y-71516952D01*
X115570000Y-61976000D02*
X115570000Y-159512000D01*
X62230000Y-61976000D02*
X62230000Y-161036000D01*
X115570000Y-159512000D02*
X114046000Y-161036000D01*
X62230000Y-161036000D02*
X63500000Y-161036000D01*
X63500000Y-161036000D02*
X66040000Y-163576000D01*
X66040000Y-163576000D02*
X100330000Y-163576000D01*
X100330000Y-163576000D02*
X102870000Y-161036000D01*
X102870000Y-161036000D02*
X114046000Y-161036000D01*
X115570000Y-61976000D02*
X62230000Y-61976000D01*
D11*
X98710000Y-76353000D02*
X98710000Y-77611000D01*
X96870000Y-76353000D02*
X96870000Y-77611000D01*
X70846000Y-86847000D02*
X70846000Y-89937000D01*
X75906000Y-88392000D02*
G75*
G03X75906000Y-88392000I-2500000J0D01*
G01*
X76396000Y-88392462D02*
G75*
G03X70846000Y-86847170I-2990000J462D01*
G01*
X76396000Y-88391538D02*
G75*
G02X70846000Y-89936830I-2990000J-462D01*
G01*
X76396000Y-96519538D02*
G75*
G02X70846000Y-98064830I-2990000J-462D01*
G01*
X76396000Y-96520462D02*
G75*
G03X70846000Y-94975170I-2990000J462D01*
G01*
X75906000Y-96520000D02*
G75*
G03X75906000Y-96520000I-2500000J0D01*
G01*
X70846000Y-94975000D02*
X70846000Y-98065000D01*
X70846000Y-103611000D02*
X70846000Y-106701000D01*
X75906000Y-105156000D02*
G75*
G03X75906000Y-105156000I-2500000J0D01*
G01*
X76396000Y-105156462D02*
G75*
G03X70846000Y-103611170I-2990000J462D01*
G01*
X76396000Y-105155538D02*
G75*
G02X70846000Y-106700830I-2990000J-462D01*
G01*
X99642000Y-85652000D02*
X99642000Y-88592000D01*
X99642000Y-88592000D02*
X105082000Y-88592000D01*
X105082000Y-88592000D02*
X105082000Y-85652000D01*
X105082000Y-85652000D02*
X99642000Y-85652000D01*
X97152000Y-87122000D02*
X99642000Y-87122000D01*
X107572000Y-87122000D02*
X105082000Y-87122000D01*
X100542000Y-85652000D02*
X100542000Y-88592000D01*
X100662000Y-85652000D02*
X100662000Y-88592000D01*
X100422000Y-85652000D02*
X100422000Y-88592000D01*
X84582462Y-79698000D02*
G75*
G02X83037170Y-74148000I-462J2990000D01*
G01*
X84581538Y-79698000D02*
G75*
G03X86126830Y-74148000I462J2990000D01*
G01*
X87082000Y-76708000D02*
G75*
G03X87082000Y-76708000I-2500000J0D01*
G01*
X86127000Y-74148000D02*
X83037000Y-74148000D01*
X103124000Y-123250000D02*
X101794000Y-123250000D01*
X101794000Y-123250000D02*
X101794000Y-121920000D01*
X101794000Y-120650000D02*
X101794000Y-112970000D01*
X104454000Y-112970000D02*
X101794000Y-112970000D01*
X104454000Y-120650000D02*
X104454000Y-112970000D01*
X104454000Y-120650000D02*
X101794000Y-120650000D01*
X91888000Y-82610000D02*
X94548000Y-82610000D01*
X91888000Y-77470000D02*
X91888000Y-82610000D01*
X94548000Y-77470000D02*
X94548000Y-82610000D01*
X91888000Y-77470000D02*
X94548000Y-77470000D01*
X91888000Y-76200000D02*
X91888000Y-74870000D01*
X91888000Y-74870000D02*
X93218000Y-74870000D01*
X100584000Y-74930000D02*
X110744000Y-74930000D01*
X100584000Y-73660000D02*
X100584000Y-81280000D01*
X100584000Y-81280000D02*
X110744000Y-81280000D01*
X110744000Y-81280000D02*
X110744000Y-73660000D01*
X110744000Y-73660000D02*
X100584000Y-73660000D01*
X104454000Y-106934000D02*
X101794000Y-106934000D01*
X104454000Y-106934000D02*
X104454000Y-99254000D01*
X104454000Y-99254000D02*
X101794000Y-99254000D01*
X101794000Y-106934000D02*
X101794000Y-99254000D01*
X101794000Y-109534000D02*
X101794000Y-108204000D01*
X103124000Y-109534000D02*
X101794000Y-109534000D01*
X88198000Y-144018000D02*
X88198000Y-145348000D01*
X88198000Y-145348000D02*
X86868000Y-145348000D01*
X85598000Y-145348000D02*
X77918000Y-145348000D01*
X77918000Y-142688000D02*
X77918000Y-145348000D01*
X85598000Y-142688000D02*
X77918000Y-142688000D01*
X85598000Y-142688000D02*
X85598000Y-145348000D01*
X79248000Y-123250000D02*
X79248000Y-120590000D01*
X79248000Y-123250000D02*
X97088000Y-123250000D01*
X97088000Y-123250000D02*
X97088000Y-120590000D01*
X79248000Y-120590000D02*
X97088000Y-120590000D01*
X76648000Y-120590000D02*
X77978000Y-120590000D01*
X76648000Y-121920000D02*
X76648000Y-120590000D01*
X104200000Y-136398000D02*
X101540000Y-136398000D01*
X104200000Y-136398000D02*
X104200000Y-128718000D01*
X104200000Y-128718000D02*
X101540000Y-128718000D01*
X101540000Y-136398000D02*
X101540000Y-128718000D01*
X101540000Y-138998000D02*
X101540000Y-137668000D01*
X102870000Y-138998000D02*
X101540000Y-138998000D01*
X91488000Y-94684000D02*
X91488000Y-91244000D01*
X91488000Y-91244000D02*
X82248000Y-91244000D01*
X82248000Y-91244000D02*
X82248000Y-94684000D01*
X82248000Y-94684000D02*
X91488000Y-94684000D01*
X92178000Y-92964000D02*
X91488000Y-92964000D01*
X81558000Y-92964000D02*
X82248000Y-92964000D01*
X81558000Y-96774000D02*
X82248000Y-96774000D01*
X92178000Y-96774000D02*
X91488000Y-96774000D01*
X82248000Y-98494000D02*
X91488000Y-98494000D01*
X82248000Y-95054000D02*
X82248000Y-98494000D01*
X91488000Y-95054000D02*
X82248000Y-95054000D01*
X91488000Y-98494000D02*
X91488000Y-95054000D01*
X91488000Y-102050000D02*
X91488000Y-98610000D01*
X91488000Y-98610000D02*
X82248000Y-98610000D01*
X82248000Y-98610000D02*
X82248000Y-102050000D01*
X82248000Y-102050000D02*
X91488000Y-102050000D01*
X92178000Y-100330000D02*
X91488000Y-100330000D01*
X81558000Y-100330000D02*
X82248000Y-100330000D01*
X92432000Y-87122000D02*
X91742000Y-87122000D01*
X81812000Y-87122000D02*
X82502000Y-87122000D01*
X91742000Y-85402000D02*
X82502000Y-85402000D01*
X91742000Y-88842000D02*
X91742000Y-85402000D01*
X82502000Y-88842000D02*
X91742000Y-88842000D01*
X82502000Y-85402000D02*
X82502000Y-88842000D01*
D10*
X116038380Y-65754095D02*
X117038380Y-65087428D01*
X116038380Y-65087428D02*
X117038380Y-65754095D01*
X116752666Y-64754095D02*
X116752666Y-64277904D01*
X117038380Y-64849333D02*
X116038380Y-64516000D01*
X117038380Y-64182666D01*
X117038380Y-63325523D02*
X117038380Y-63896952D01*
X117038380Y-63611238D02*
X116038380Y-63611238D01*
X116181238Y-63706476D01*
X116276476Y-63801714D01*
X116324095Y-63896952D01*
X94591142Y-124460000D02*
X94638761Y-124412380D01*
X94686380Y-124460000D01*
X94638761Y-124507619D01*
X94591142Y-124460000D01*
X94686380Y-124460000D01*
X99292380Y-78624857D02*
X99292380Y-78529619D01*
X99340000Y-78434380D01*
X99387619Y-78386761D01*
X99482857Y-78339142D01*
X99673333Y-78291523D01*
X99911428Y-78291523D01*
X100101904Y-78339142D01*
X100197142Y-78386761D01*
X100244761Y-78434380D01*
X100292380Y-78529619D01*
X100292380Y-78624857D01*
X100244761Y-78720095D01*
X100197142Y-78767714D01*
X100101904Y-78815333D01*
X99911428Y-78862952D01*
X99673333Y-78862952D01*
X99482857Y-78815333D01*
X99387619Y-78767714D01*
X99340000Y-78720095D01*
X99292380Y-78624857D01*
X100197142Y-77862952D02*
X100244761Y-77815333D01*
X100292380Y-77862952D01*
X100244761Y-77910571D01*
X100197142Y-77862952D01*
X100292380Y-77862952D01*
X100292380Y-76862952D02*
X100292380Y-77434380D01*
X100292380Y-77148666D02*
X99292380Y-77148666D01*
X99435238Y-77243904D01*
X99530476Y-77339142D01*
X99578095Y-77434380D01*
X99625714Y-76005809D02*
X100292380Y-76005809D01*
X99625714Y-76434380D02*
X100149523Y-76434380D01*
X100244761Y-76386761D01*
X100292380Y-76291523D01*
X100292380Y-76148666D01*
X100244761Y-76053428D01*
X100197142Y-76005809D01*
X99768571Y-75196285D02*
X99768571Y-75529619D01*
X100292380Y-75529619D02*
X99292380Y-75529619D01*
X99292380Y-75053428D01*
X71810761Y-84884380D02*
X71334571Y-84884380D01*
X71334571Y-83884380D01*
X72144095Y-84360571D02*
X72477428Y-84360571D01*
X72620285Y-84884380D02*
X72144095Y-84884380D01*
X72144095Y-83884380D01*
X72620285Y-83884380D01*
X73048857Y-84884380D02*
X73048857Y-83884380D01*
X73286952Y-83884380D01*
X73429809Y-83932000D01*
X73525047Y-84027238D01*
X73572666Y-84122476D01*
X73620285Y-84312952D01*
X73620285Y-84455809D01*
X73572666Y-84646285D01*
X73525047Y-84741523D01*
X73429809Y-84836761D01*
X73286952Y-84884380D01*
X73048857Y-84884380D01*
X74572666Y-84884380D02*
X74001238Y-84884380D01*
X74286952Y-84884380D02*
X74286952Y-83884380D01*
X74191714Y-84027238D01*
X74096476Y-84122476D01*
X74001238Y-84170095D01*
X74953619Y-83979619D02*
X75001238Y-83932000D01*
X75096476Y-83884380D01*
X75334571Y-83884380D01*
X75429809Y-83932000D01*
X75477428Y-83979619D01*
X75525047Y-84074857D01*
X75525047Y-84170095D01*
X75477428Y-84312952D01*
X74906000Y-84884380D01*
X75525047Y-84884380D01*
X71810761Y-93012380D02*
X71334571Y-93012380D01*
X71334571Y-92012380D01*
X72144095Y-92488571D02*
X72477428Y-92488571D01*
X72620285Y-93012380D02*
X72144095Y-93012380D01*
X72144095Y-92012380D01*
X72620285Y-92012380D01*
X73048857Y-93012380D02*
X73048857Y-92012380D01*
X73286952Y-92012380D01*
X73429809Y-92060000D01*
X73525047Y-92155238D01*
X73572666Y-92250476D01*
X73620285Y-92440952D01*
X73620285Y-92583809D01*
X73572666Y-92774285D01*
X73525047Y-92869523D01*
X73429809Y-92964761D01*
X73286952Y-93012380D01*
X73048857Y-93012380D01*
X74572666Y-93012380D02*
X74001238Y-93012380D01*
X74286952Y-93012380D02*
X74286952Y-92012380D01*
X74191714Y-92155238D01*
X74096476Y-92250476D01*
X74001238Y-92298095D01*
X75525047Y-93012380D02*
X74953619Y-93012380D01*
X75239333Y-93012380D02*
X75239333Y-92012380D01*
X75144095Y-92155238D01*
X75048857Y-92250476D01*
X74953619Y-92298095D01*
X71810761Y-101648380D02*
X71334571Y-101648380D01*
X71334571Y-100648380D01*
X72144095Y-101124571D02*
X72477428Y-101124571D01*
X72620285Y-101648380D02*
X72144095Y-101648380D01*
X72144095Y-100648380D01*
X72620285Y-100648380D01*
X73048857Y-101648380D02*
X73048857Y-100648380D01*
X73286952Y-100648380D01*
X73429809Y-100696000D01*
X73525047Y-100791238D01*
X73572666Y-100886476D01*
X73620285Y-101076952D01*
X73620285Y-101219809D01*
X73572666Y-101410285D01*
X73525047Y-101505523D01*
X73429809Y-101600761D01*
X73286952Y-101648380D01*
X73048857Y-101648380D01*
X74572666Y-101648380D02*
X74001238Y-101648380D01*
X74286952Y-101648380D02*
X74286952Y-100648380D01*
X74191714Y-100791238D01*
X74096476Y-100886476D01*
X74001238Y-100934095D01*
X75191714Y-100648380D02*
X75286952Y-100648380D01*
X75382190Y-100696000D01*
X75429809Y-100743619D01*
X75477428Y-100838857D01*
X75525047Y-101029333D01*
X75525047Y-101267428D01*
X75477428Y-101457904D01*
X75429809Y-101553142D01*
X75382190Y-101600761D01*
X75286952Y-101648380D01*
X75191714Y-101648380D01*
X75096476Y-101600761D01*
X75048857Y-101553142D01*
X75001238Y-101457904D01*
X74953619Y-101267428D01*
X74953619Y-101029333D01*
X75001238Y-100838857D01*
X75048857Y-100743619D01*
X75096476Y-100696000D01*
X75191714Y-100648380D01*
X100528666Y-85104380D02*
X100528666Y-84104380D01*
X100766761Y-84104380D01*
X100909619Y-84152000D01*
X101004857Y-84247238D01*
X101052476Y-84342476D01*
X101100095Y-84532952D01*
X101100095Y-84675809D01*
X101052476Y-84866285D01*
X101004857Y-84961523D01*
X100909619Y-85056761D01*
X100766761Y-85104380D01*
X100528666Y-85104380D01*
X101528666Y-85104380D02*
X101528666Y-84437714D01*
X101528666Y-84104380D02*
X101481047Y-84152000D01*
X101528666Y-84199619D01*
X101576285Y-84152000D01*
X101528666Y-84104380D01*
X101528666Y-84199619D01*
X102147714Y-85104380D02*
X102052476Y-85056761D01*
X102004857Y-85009142D01*
X101957238Y-84913904D01*
X101957238Y-84628190D01*
X102004857Y-84532952D01*
X102052476Y-84485333D01*
X102147714Y-84437714D01*
X102290571Y-84437714D01*
X102385809Y-84485333D01*
X102433428Y-84532952D01*
X102481047Y-84628190D01*
X102481047Y-84913904D01*
X102433428Y-85009142D01*
X102385809Y-85056761D01*
X102290571Y-85104380D01*
X102147714Y-85104380D01*
X103338190Y-85104380D02*
X103338190Y-84104380D01*
X103338190Y-85056761D02*
X103242952Y-85104380D01*
X103052476Y-85104380D01*
X102957238Y-85056761D01*
X102909619Y-85009142D01*
X102862000Y-84913904D01*
X102862000Y-84628190D01*
X102909619Y-84532952D01*
X102957238Y-84485333D01*
X103052476Y-84437714D01*
X103242952Y-84437714D01*
X103338190Y-84485333D01*
X104195333Y-85056761D02*
X104100095Y-85104380D01*
X103909619Y-85104380D01*
X103814380Y-85056761D01*
X103766761Y-84961523D01*
X103766761Y-84580571D01*
X103814380Y-84485333D01*
X103909619Y-84437714D01*
X104100095Y-84437714D01*
X104195333Y-84485333D01*
X104242952Y-84580571D01*
X104242952Y-84675809D01*
X103766761Y-84771047D01*
X95750095Y-85674380D02*
X95750095Y-84674380D01*
X96321523Y-85674380D02*
X95892952Y-85102952D01*
X96321523Y-84674380D02*
X95750095Y-85245809D01*
X88994380Y-81041333D02*
X88994380Y-81517523D01*
X87994380Y-81517523D01*
X88470571Y-80708000D02*
X88470571Y-80374666D01*
X88994380Y-80231809D02*
X88994380Y-80708000D01*
X87994380Y-80708000D01*
X87994380Y-80231809D01*
X88994380Y-79803238D02*
X87994380Y-79803238D01*
X87994380Y-79565142D01*
X88042000Y-79422285D01*
X88137238Y-79327047D01*
X88232476Y-79279428D01*
X88422952Y-79231809D01*
X88565809Y-79231809D01*
X88756285Y-79279428D01*
X88851523Y-79327047D01*
X88946761Y-79422285D01*
X88994380Y-79565142D01*
X88994380Y-79803238D01*
X88994380Y-78041333D02*
X87994380Y-78041333D01*
X88327714Y-77565142D02*
X88994380Y-77565142D01*
X88422952Y-77565142D02*
X88375333Y-77517523D01*
X88327714Y-77422285D01*
X88327714Y-77279428D01*
X88375333Y-77184190D01*
X88470571Y-77136571D01*
X88994380Y-77136571D01*
X88994380Y-76231809D02*
X87994380Y-76231809D01*
X88946761Y-76231809D02*
X88994380Y-76327047D01*
X88994380Y-76517523D01*
X88946761Y-76612761D01*
X88899142Y-76660380D01*
X88803904Y-76708000D01*
X88518190Y-76708000D01*
X88422952Y-76660380D01*
X88375333Y-76612761D01*
X88327714Y-76517523D01*
X88327714Y-76327047D01*
X88375333Y-76231809D01*
X88994380Y-75755619D02*
X88327714Y-75755619D01*
X87994380Y-75755619D02*
X88042000Y-75803238D01*
X88089619Y-75755619D01*
X88042000Y-75708000D01*
X87994380Y-75755619D01*
X88089619Y-75755619D01*
X88946761Y-74850857D02*
X88994380Y-74946095D01*
X88994380Y-75136571D01*
X88946761Y-75231809D01*
X88899142Y-75279428D01*
X88803904Y-75327047D01*
X88518190Y-75327047D01*
X88422952Y-75279428D01*
X88375333Y-75231809D01*
X88327714Y-75136571D01*
X88327714Y-74946095D01*
X88375333Y-74850857D01*
X88994380Y-73993714D02*
X88470571Y-73993714D01*
X88375333Y-74041333D01*
X88327714Y-74136571D01*
X88327714Y-74327047D01*
X88375333Y-74422285D01*
X88946761Y-73993714D02*
X88994380Y-74088952D01*
X88994380Y-74327047D01*
X88946761Y-74422285D01*
X88851523Y-74469904D01*
X88756285Y-74469904D01*
X88661047Y-74422285D01*
X88613428Y-74327047D01*
X88613428Y-74088952D01*
X88565809Y-73993714D01*
X88327714Y-73660380D02*
X88327714Y-73279428D01*
X87994380Y-73517523D02*
X88851523Y-73517523D01*
X88946761Y-73469904D01*
X88994380Y-73374666D01*
X88994380Y-73279428D01*
X88994380Y-72803238D02*
X88946761Y-72898476D01*
X88899142Y-72946095D01*
X88803904Y-72993714D01*
X88518190Y-72993714D01*
X88422952Y-72946095D01*
X88375333Y-72898476D01*
X88327714Y-72803238D01*
X88327714Y-72660380D01*
X88375333Y-72565142D01*
X88422952Y-72517523D01*
X88518190Y-72469904D01*
X88803904Y-72469904D01*
X88899142Y-72517523D01*
X88946761Y-72565142D01*
X88994380Y-72660380D01*
X88994380Y-72803238D01*
X88994380Y-72041333D02*
X88327714Y-72041333D01*
X88518190Y-72041333D02*
X88422952Y-71993714D01*
X88375333Y-71946095D01*
X88327714Y-71850857D01*
X88327714Y-71755619D01*
X101243047Y-125142380D02*
X101243047Y-124142380D01*
X101624000Y-124142380D01*
X101719238Y-124190000D01*
X101766857Y-124237619D01*
X101814476Y-124332857D01*
X101814476Y-124475714D01*
X101766857Y-124570952D01*
X101719238Y-124618571D01*
X101624000Y-124666190D01*
X101243047Y-124666190D01*
X102147809Y-124142380D02*
X102385904Y-125142380D01*
X102576380Y-124428095D01*
X102766857Y-125142380D01*
X103004952Y-124142380D01*
X103385904Y-125142380D02*
X103385904Y-124142380D01*
X103719238Y-124856666D01*
X104052571Y-124142380D01*
X104052571Y-125142380D01*
X104481142Y-124237619D02*
X104528761Y-124190000D01*
X104624000Y-124142380D01*
X104862095Y-124142380D01*
X104957333Y-124190000D01*
X105004952Y-124237619D01*
X105052571Y-124332857D01*
X105052571Y-124428095D01*
X105004952Y-124570952D01*
X104433523Y-125142380D01*
X105052571Y-125142380D01*
X91003714Y-73302761D02*
X91146571Y-73350380D01*
X91384666Y-73350380D01*
X91479904Y-73302761D01*
X91527523Y-73255142D01*
X91575142Y-73159904D01*
X91575142Y-73064666D01*
X91527523Y-72969428D01*
X91479904Y-72921809D01*
X91384666Y-72874190D01*
X91194190Y-72826571D01*
X91098952Y-72778952D01*
X91051333Y-72731333D01*
X91003714Y-72636095D01*
X91003714Y-72540857D01*
X91051333Y-72445619D01*
X91098952Y-72398000D01*
X91194190Y-72350380D01*
X91432285Y-72350380D01*
X91575142Y-72398000D01*
X91908476Y-72683714D02*
X92098952Y-73350380D01*
X92289428Y-72874190D01*
X92479904Y-73350380D01*
X92670380Y-72683714D01*
X93051333Y-73350380D02*
X93051333Y-72683714D01*
X93051333Y-72350380D02*
X93003714Y-72398000D01*
X93051333Y-72445619D01*
X93098952Y-72398000D01*
X93051333Y-72350380D01*
X93051333Y-72445619D01*
X93384666Y-72683714D02*
X93765619Y-72683714D01*
X93527523Y-72350380D02*
X93527523Y-73207523D01*
X93575142Y-73302761D01*
X93670380Y-73350380D01*
X93765619Y-73350380D01*
X94527523Y-73302761D02*
X94432285Y-73350380D01*
X94241809Y-73350380D01*
X94146571Y-73302761D01*
X94098952Y-73255142D01*
X94051333Y-73159904D01*
X94051333Y-72874190D01*
X94098952Y-72778952D01*
X94146571Y-72731333D01*
X94241809Y-72683714D01*
X94432285Y-72683714D01*
X94527523Y-72731333D01*
X94956095Y-73350380D02*
X94956095Y-72350380D01*
X95384666Y-73350380D02*
X95384666Y-72826571D01*
X95337047Y-72731333D01*
X95241809Y-72683714D01*
X95098952Y-72683714D01*
X95003714Y-72731333D01*
X94956095Y-72778952D01*
X102661619Y-83138095D02*
X102661619Y-81838095D01*
X103156857Y-81838095D01*
X103280666Y-81900000D01*
X103342571Y-81961904D01*
X103404476Y-82085714D01*
X103404476Y-82271428D01*
X103342571Y-82395238D01*
X103280666Y-82457142D01*
X103156857Y-82519047D01*
X102661619Y-82519047D01*
X104209238Y-81838095D02*
X104456857Y-81838095D01*
X104580666Y-81900000D01*
X104704476Y-82023809D01*
X104766380Y-82271428D01*
X104766380Y-82704761D01*
X104704476Y-82952380D01*
X104580666Y-83076190D01*
X104456857Y-83138095D01*
X104209238Y-83138095D01*
X104085428Y-83076190D01*
X103961619Y-82952380D01*
X103899714Y-82704761D01*
X103899714Y-82271428D01*
X103961619Y-82023809D01*
X104085428Y-81900000D01*
X104209238Y-81838095D01*
X105199714Y-81838095D02*
X105509238Y-83138095D01*
X105756857Y-82209523D01*
X106004476Y-83138095D01*
X106314000Y-81838095D01*
X106809238Y-82457142D02*
X107242571Y-82457142D01*
X107428285Y-83138095D02*
X106809238Y-83138095D01*
X106809238Y-81838095D01*
X107428285Y-81838095D01*
X108728285Y-83138095D02*
X108294952Y-82519047D01*
X107985428Y-83138095D02*
X107985428Y-81838095D01*
X108480666Y-81838095D01*
X108604476Y-81900000D01*
X108666380Y-81961904D01*
X108728285Y-82085714D01*
X108728285Y-82271428D01*
X108666380Y-82395238D01*
X108604476Y-82457142D01*
X108480666Y-82519047D01*
X107985428Y-82519047D01*
X101243047Y-111426380D02*
X101243047Y-110426380D01*
X101624000Y-110426380D01*
X101719238Y-110474000D01*
X101766857Y-110521619D01*
X101814476Y-110616857D01*
X101814476Y-110759714D01*
X101766857Y-110854952D01*
X101719238Y-110902571D01*
X101624000Y-110950190D01*
X101243047Y-110950190D01*
X102147809Y-110426380D02*
X102385904Y-111426380D01*
X102576380Y-110712095D01*
X102766857Y-111426380D01*
X103004952Y-110426380D01*
X103385904Y-111426380D02*
X103385904Y-110426380D01*
X103719238Y-111140666D01*
X104052571Y-110426380D01*
X104052571Y-111426380D01*
X105052571Y-111426380D02*
X104481142Y-111426380D01*
X104766857Y-111426380D02*
X104766857Y-110426380D01*
X104671619Y-110569238D01*
X104576380Y-110664476D01*
X104481142Y-110712095D01*
X89566571Y-146756095D02*
X89566571Y-146422761D01*
X90090380Y-146279904D02*
X90090380Y-146756095D01*
X89090380Y-146756095D01*
X89090380Y-146279904D01*
X89423714Y-145851333D02*
X90090380Y-145851333D01*
X89518952Y-145851333D02*
X89471333Y-145803714D01*
X89423714Y-145708476D01*
X89423714Y-145565619D01*
X89471333Y-145470380D01*
X89566571Y-145422761D01*
X90090380Y-145422761D01*
X90042761Y-144518000D02*
X90090380Y-144613238D01*
X90090380Y-144803714D01*
X90042761Y-144898952D01*
X89995142Y-144946571D01*
X89899904Y-144994190D01*
X89614190Y-144994190D01*
X89518952Y-144946571D01*
X89471333Y-144898952D01*
X89423714Y-144803714D01*
X89423714Y-144613238D01*
X89471333Y-144518000D01*
X90090380Y-143946571D02*
X90042761Y-144041809D01*
X89995142Y-144089428D01*
X89899904Y-144137047D01*
X89614190Y-144137047D01*
X89518952Y-144089428D01*
X89471333Y-144041809D01*
X89423714Y-143946571D01*
X89423714Y-143803714D01*
X89471333Y-143708476D01*
X89518952Y-143660857D01*
X89614190Y-143613238D01*
X89899904Y-143613238D01*
X89995142Y-143660857D01*
X90042761Y-143708476D01*
X90090380Y-143803714D01*
X90090380Y-143946571D01*
X90090380Y-142756095D02*
X89090380Y-142756095D01*
X90042761Y-142756095D02*
X90090380Y-142851333D01*
X90090380Y-143041809D01*
X90042761Y-143137047D01*
X89995142Y-143184666D01*
X89899904Y-143232285D01*
X89614190Y-143232285D01*
X89518952Y-143184666D01*
X89471333Y-143137047D01*
X89423714Y-143041809D01*
X89423714Y-142851333D01*
X89471333Y-142756095D01*
X90042761Y-141898952D02*
X90090380Y-141994190D01*
X90090380Y-142184666D01*
X90042761Y-142279904D01*
X89947523Y-142327523D01*
X89566571Y-142327523D01*
X89471333Y-142279904D01*
X89423714Y-142184666D01*
X89423714Y-141994190D01*
X89471333Y-141898952D01*
X89566571Y-141851333D01*
X89661809Y-141851333D01*
X89757047Y-142327523D01*
X90090380Y-141422761D02*
X89423714Y-141422761D01*
X89614190Y-141422761D02*
X89518952Y-141375142D01*
X89471333Y-141327523D01*
X89423714Y-141232285D01*
X89423714Y-141137047D01*
X75660380Y-125181904D02*
X74660380Y-125181904D01*
X75374666Y-124848571D01*
X74660380Y-124515238D01*
X75660380Y-124515238D01*
X75660380Y-124039047D02*
X74660380Y-124039047D01*
X74660380Y-123658095D01*
X74708000Y-123562857D01*
X74755619Y-123515238D01*
X74850857Y-123467619D01*
X74993714Y-123467619D01*
X75088952Y-123515238D01*
X75136571Y-123562857D01*
X75184190Y-123658095D01*
X75184190Y-124039047D01*
X74660380Y-123039047D02*
X75469904Y-123039047D01*
X75565142Y-122991428D01*
X75612761Y-122943809D01*
X75660380Y-122848571D01*
X75660380Y-122658095D01*
X75612761Y-122562857D01*
X75565142Y-122515238D01*
X75469904Y-122467619D01*
X74660380Y-122467619D01*
X74660380Y-121562857D02*
X74660380Y-121753333D01*
X74708000Y-121848571D01*
X74755619Y-121896190D01*
X74898476Y-121991428D01*
X75088952Y-122039047D01*
X75469904Y-122039047D01*
X75565142Y-121991428D01*
X75612761Y-121943809D01*
X75660380Y-121848571D01*
X75660380Y-121658095D01*
X75612761Y-121562857D01*
X75565142Y-121515238D01*
X75469904Y-121467619D01*
X75231809Y-121467619D01*
X75136571Y-121515238D01*
X75088952Y-121562857D01*
X75041333Y-121658095D01*
X75041333Y-121848571D01*
X75088952Y-121943809D01*
X75136571Y-121991428D01*
X75231809Y-122039047D01*
X74660380Y-120848571D02*
X74660380Y-120753333D01*
X74708000Y-120658095D01*
X74755619Y-120610476D01*
X74850857Y-120562857D01*
X75041333Y-120515238D01*
X75279428Y-120515238D01*
X75469904Y-120562857D01*
X75565142Y-120610476D01*
X75612761Y-120658095D01*
X75660380Y-120753333D01*
X75660380Y-120848571D01*
X75612761Y-120943809D01*
X75565142Y-120991428D01*
X75469904Y-121039047D01*
X75279428Y-121086666D01*
X75041333Y-121086666D01*
X74850857Y-121039047D01*
X74755619Y-120991428D01*
X74708000Y-120943809D01*
X74660380Y-120848571D01*
X74660380Y-119610476D02*
X74660380Y-120086666D01*
X75136571Y-120134285D01*
X75088952Y-120086666D01*
X75041333Y-119991428D01*
X75041333Y-119753333D01*
X75088952Y-119658095D01*
X75136571Y-119610476D01*
X75231809Y-119562857D01*
X75469904Y-119562857D01*
X75565142Y-119610476D01*
X75612761Y-119658095D01*
X75660380Y-119753333D01*
X75660380Y-119991428D01*
X75612761Y-120086666D01*
X75565142Y-120134285D01*
X74660380Y-118943809D02*
X74660380Y-118848571D01*
X74708000Y-118753333D01*
X74755619Y-118705714D01*
X74850857Y-118658095D01*
X75041333Y-118610476D01*
X75279428Y-118610476D01*
X75469904Y-118658095D01*
X75565142Y-118705714D01*
X75612761Y-118753333D01*
X75660380Y-118848571D01*
X75660380Y-118943809D01*
X75612761Y-119039047D01*
X75565142Y-119086666D01*
X75469904Y-119134285D01*
X75279428Y-119181904D01*
X75041333Y-119181904D01*
X74850857Y-119134285D01*
X74755619Y-119086666D01*
X74708000Y-119039047D01*
X74660380Y-118943809D01*
X99941428Y-140890380D02*
X99941428Y-139890380D01*
X100512857Y-140890380D01*
X100512857Y-139890380D01*
X101370000Y-140842761D02*
X101274761Y-140890380D01*
X101084285Y-140890380D01*
X100989047Y-140842761D01*
X100941428Y-140747523D01*
X100941428Y-140366571D01*
X100989047Y-140271333D01*
X101084285Y-140223714D01*
X101274761Y-140223714D01*
X101370000Y-140271333D01*
X101417619Y-140366571D01*
X101417619Y-140461809D01*
X100941428Y-140557047D01*
X101750952Y-140890380D02*
X102274761Y-140223714D01*
X101750952Y-140223714D02*
X102274761Y-140890380D01*
X102512857Y-140223714D02*
X102893809Y-140223714D01*
X102655714Y-139890380D02*
X102655714Y-140747523D01*
X102703333Y-140842761D01*
X102798571Y-140890380D01*
X102893809Y-140890380D01*
X103227142Y-140890380D02*
X103227142Y-140223714D01*
X103227142Y-139890380D02*
X103179523Y-139938000D01*
X103227142Y-139985619D01*
X103274761Y-139938000D01*
X103227142Y-139890380D01*
X103227142Y-139985619D01*
X103846190Y-140890380D02*
X103750952Y-140842761D01*
X103703333Y-140795142D01*
X103655714Y-140699904D01*
X103655714Y-140414190D01*
X103703333Y-140318952D01*
X103750952Y-140271333D01*
X103846190Y-140223714D01*
X103989047Y-140223714D01*
X104084285Y-140271333D01*
X104131904Y-140318952D01*
X104179523Y-140414190D01*
X104179523Y-140699904D01*
X104131904Y-140795142D01*
X104084285Y-140842761D01*
X103989047Y-140890380D01*
X103846190Y-140890380D01*
X104608095Y-140223714D02*
X104608095Y-140890380D01*
X104608095Y-140318952D02*
X104655714Y-140271333D01*
X104750952Y-140223714D01*
X104893809Y-140223714D01*
X104989047Y-140271333D01*
X105036666Y-140366571D01*
X105036666Y-140890380D01*
X86653714Y-96136380D02*
X86082285Y-96136380D01*
X86368000Y-96136380D02*
X86368000Y-95136380D01*
X86272761Y-95279238D01*
X86177523Y-95374476D01*
X86082285Y-95422095D01*
X87082285Y-96136380D02*
X87082285Y-95136380D01*
X87653714Y-96136380D02*
X87225142Y-95564952D01*
X87653714Y-95136380D02*
X87082285Y-95707809D01*
X86653714Y-99946380D02*
X86082285Y-99946380D01*
X86368000Y-99946380D02*
X86368000Y-98946380D01*
X86272761Y-99089238D01*
X86177523Y-99184476D01*
X86082285Y-99232095D01*
X87082285Y-99946380D02*
X87082285Y-98946380D01*
X87653714Y-99946380D02*
X87225142Y-99374952D01*
X87653714Y-98946380D02*
X87082285Y-99517809D01*
X86653714Y-103502380D02*
X86082285Y-103502380D01*
X86368000Y-103502380D02*
X86368000Y-102502380D01*
X86272761Y-102645238D01*
X86177523Y-102740476D01*
X86082285Y-102788095D01*
X87082285Y-103502380D02*
X87082285Y-102502380D01*
X87653714Y-103502380D02*
X87225142Y-102930952D01*
X87653714Y-102502380D02*
X87082285Y-103073809D01*
X86907714Y-84854380D02*
X86336285Y-84854380D01*
X86622000Y-84854380D02*
X86622000Y-83854380D01*
X86526761Y-83997238D01*
X86431523Y-84092476D01*
X86336285Y-84140095D01*
X87336285Y-84854380D02*
X87336285Y-83854380D01*
X87907714Y-84854380D02*
X87479142Y-84282952D01*
X87907714Y-83854380D02*
X87336285Y-84425809D01*
M02*
