G04 #@! TF.GenerationSoftware,KiCad,Pcbnew,(5.1.2)-2*
G04 #@! TF.CreationDate,2020-09-08T11:20:29+07:00*
G04 #@! TF.ProjectId,Balancing_Robot,42616c61-6e63-4696-9e67-5f526f626f74,rev?*
G04 #@! TF.SameCoordinates,Original*
G04 #@! TF.FileFunction,Copper,L2,Bot*
G04 #@! TF.FilePolarity,Positive*
%FSLAX46Y46*%
G04 Gerber Fmt 4.6, Leading zero omitted, Abs format (unit mm)*
G04 Created by KiCad (PCBNEW (5.1.2)-2) date 2020-09-08 11:20:29*
%MOMM*%
%LPD*%
G04 APERTURE LIST*
%ADD10R,2.200000X2.200000*%
%ADD11R,2.500000X2.200000*%
%ADD12C,2.200000*%
%ADD13R,2.000000X2.000000*%
%ADD14R,1.800000X1.800000*%
%ADD15R,3.000000X3.000000*%
%ADD16C,3.000000*%
%ADD17C,1.200000*%
%ADD18C,1.000000*%
G04 APERTURE END LIST*
D10*
X69850000Y-158496000D03*
X69850000Y-155956000D03*
X72390000Y-158496000D03*
X72390000Y-155956000D03*
X74930000Y-158496000D03*
X74930000Y-155956000D03*
X77470000Y-158496000D03*
X77470000Y-155956000D03*
X80010000Y-158496000D03*
X80010000Y-155956000D03*
X82550000Y-158496000D03*
X82550000Y-155956000D03*
X85090000Y-158496000D03*
X85090000Y-155956000D03*
X87630000Y-158496000D03*
X87630000Y-155956000D03*
X90170000Y-158496000D03*
X90170000Y-155956000D03*
X92710000Y-158496000D03*
X92710000Y-155956000D03*
X95250000Y-158496000D03*
X95250000Y-155956000D03*
X97790000Y-158496000D03*
X97790000Y-155956000D03*
X100330000Y-158496000D03*
X100330000Y-155956000D03*
X102870000Y-158496000D03*
X102870000Y-155956000D03*
X105410000Y-158496000D03*
X105410000Y-155956000D03*
X107950000Y-158496000D03*
X107950000Y-155956000D03*
X110490000Y-158496000D03*
X110490000Y-155956000D03*
X113030000Y-158496000D03*
X113030000Y-155956000D03*
D11*
X64770000Y-153416000D03*
X64770000Y-150876000D03*
X64770000Y-148336000D03*
X64770000Y-145796000D03*
X64770000Y-143256000D03*
X64770000Y-140716000D03*
X64770000Y-138176000D03*
X64770000Y-135636000D03*
X64770000Y-130556000D03*
X64770000Y-128016000D03*
X64770000Y-125476000D03*
X64770000Y-122936000D03*
X64770000Y-120396000D03*
X64770000Y-117856000D03*
X64770000Y-115316000D03*
X64770000Y-89916000D03*
X113030000Y-96012000D03*
X113030000Y-93472000D03*
X113030000Y-90932000D03*
X113030000Y-85852000D03*
X113030000Y-83312000D03*
X113030000Y-80772000D03*
X113030000Y-98552000D03*
X113030000Y-101092000D03*
X113030000Y-103632000D03*
X113030000Y-88392000D03*
X113030000Y-107696000D03*
X113030000Y-110236000D03*
X113030000Y-112776000D03*
X113030000Y-115316000D03*
X113030000Y-117856000D03*
X113030000Y-120396000D03*
X113030000Y-122936000D03*
X113030000Y-125476000D03*
X113030000Y-130556000D03*
X113030000Y-133096000D03*
X113030000Y-135636000D03*
X113030000Y-138176000D03*
X113030000Y-140716000D03*
X113030000Y-143256000D03*
X113030000Y-145796000D03*
X113030000Y-148336000D03*
X64770000Y-92456000D03*
X64770000Y-94996000D03*
X64770000Y-97536000D03*
X64770000Y-100076000D03*
X64770000Y-102616000D03*
X64770000Y-105156000D03*
X64770000Y-107696000D03*
X64770000Y-112776000D03*
D12*
X97790000Y-75732000D03*
X97790000Y-78232000D03*
D13*
X72136000Y-88392000D03*
D12*
X74676000Y-88392000D03*
X74676000Y-96520000D03*
D13*
X72136000Y-96520000D03*
X72136000Y-105156000D03*
D12*
X74676000Y-105156000D03*
D13*
X96012000Y-87122000D03*
D12*
X108712000Y-87122000D03*
X84582000Y-77978000D03*
D14*
X84582000Y-75438000D03*
D10*
X103124000Y-114300000D03*
X103124000Y-116840000D03*
X103124000Y-119380000D03*
X103124000Y-121920000D03*
D13*
X93218000Y-76200000D03*
D12*
X93218000Y-78740000D03*
X93218000Y-81280000D03*
D15*
X108204000Y-77470000D03*
D16*
X103124000Y-77470000D03*
D10*
X103124000Y-108204000D03*
X103124000Y-105664000D03*
X103124000Y-103124000D03*
X103124000Y-100584000D03*
X79248000Y-144018000D03*
X81788000Y-144018000D03*
X84328000Y-144018000D03*
X86868000Y-144018000D03*
X77978000Y-121920000D03*
X80518000Y-121920000D03*
X83058000Y-121920000D03*
X85598000Y-121920000D03*
X88138000Y-121920000D03*
X90678000Y-121920000D03*
X93218000Y-121920000D03*
X95758000Y-121920000D03*
X102870000Y-137668000D03*
X102870000Y-135128000D03*
X102870000Y-132588000D03*
X102870000Y-130048000D03*
D12*
X93218000Y-92964000D03*
X80518000Y-92964000D03*
X80518000Y-96774000D03*
X93218000Y-96774000D03*
X93218000Y-100330000D03*
X80518000Y-100330000D03*
X93472000Y-87122000D03*
X80772000Y-87122000D03*
X92710000Y-112522000D03*
X80264000Y-113030000D03*
D17*
X72136000Y-86192000D02*
X72136000Y-88392000D01*
X72136000Y-85784000D02*
X72136000Y-86192000D01*
X82482000Y-75438000D02*
X72136000Y-85784000D01*
X84582000Y-75438000D02*
X82482000Y-75438000D01*
X72136000Y-88392000D02*
X72136000Y-96520000D01*
X72136000Y-96520000D02*
X72136000Y-105156000D01*
X69596000Y-102616000D02*
X72136000Y-105156000D01*
X64770000Y-102616000D02*
X69596000Y-102616000D01*
X92710000Y-108204000D02*
X103124000Y-108204000D01*
D18*
X106945462Y-147135990D02*
X96763060Y-147135990D01*
X109945473Y-150136001D02*
X106945462Y-147135990D01*
X114840001Y-150136001D02*
X109945473Y-150136001D01*
X104970000Y-130048000D02*
X106262001Y-128755999D01*
X102870000Y-130048000D02*
X104970000Y-130048000D01*
X106262001Y-128755999D02*
X114840001Y-128755999D01*
X114840001Y-128755999D02*
X114980001Y-128895999D01*
X96763060Y-147135990D02*
X89651060Y-140023990D01*
X114980001Y-128895999D02*
X114980001Y-149996001D01*
X114980001Y-149996001D02*
X114840001Y-150136001D01*
X80518000Y-124020000D02*
X80518000Y-121920000D01*
X80518000Y-136571070D02*
X80518000Y-124020000D01*
X83970920Y-140023990D02*
X80518000Y-136571070D01*
X89651060Y-140023990D02*
X83970920Y-140023990D01*
D17*
X81157999Y-120772001D02*
X81157999Y-116962001D01*
X80518000Y-121412000D02*
X81157999Y-120772001D01*
X80518000Y-121920000D02*
X80518000Y-121412000D01*
X91313000Y-106807000D02*
X92710000Y-108204000D01*
X98889999Y-74632001D02*
X97790000Y-75732000D01*
X105366001Y-74632001D02*
X98889999Y-74632001D01*
X108204000Y-77470000D02*
X105366001Y-74632001D01*
X96690001Y-74632001D02*
X97790000Y-75732000D01*
X96457999Y-74399999D02*
X96690001Y-74632001D01*
X87720001Y-74399999D02*
X96457999Y-74399999D01*
X86682000Y-75438000D02*
X87720001Y-74399999D01*
X84582000Y-75438000D02*
X86682000Y-75438000D01*
X110612001Y-82578001D02*
X110612001Y-89285999D01*
X108204000Y-77470000D02*
X108204000Y-80170000D01*
X108204000Y-80170000D02*
X110612001Y-82578001D01*
X89535000Y-93834998D02*
X89535000Y-108585000D01*
X92305999Y-91063999D02*
X89535000Y-93834998D01*
X108834001Y-91063999D02*
X92305999Y-91063999D01*
X110612001Y-89285999D02*
X108834001Y-91063999D01*
X81157999Y-116962001D02*
X89535000Y-108585000D01*
X89535000Y-108585000D02*
X91313000Y-106807000D01*
X96234366Y-78232000D02*
X97790000Y-78232000D01*
X95522002Y-78232000D02*
X96234366Y-78232000D01*
X93490002Y-76200000D02*
X95522002Y-78232000D01*
X93218000Y-76200000D02*
X93490002Y-76200000D01*
X102362000Y-78232000D02*
X97790000Y-78232000D01*
X103124000Y-77470000D02*
X102362000Y-78232000D01*
X76708000Y-92964000D02*
X80518000Y-92964000D01*
X74676000Y-88392000D02*
X74676000Y-90932000D01*
X74676000Y-90932000D02*
X76708000Y-92964000D01*
X74930000Y-96774000D02*
X74676000Y-96520000D01*
X80518000Y-96774000D02*
X74930000Y-96774000D01*
X77216000Y-100330000D02*
X80518000Y-100330000D01*
X74676000Y-105156000D02*
X74676000Y-102870000D01*
X74676000Y-102870000D02*
X77216000Y-100330000D01*
X96012000Y-84922000D02*
X96012000Y-87122000D01*
X96012000Y-80701910D02*
X96012000Y-84922000D01*
X94050090Y-78740000D02*
X96012000Y-80701910D01*
X93218000Y-78740000D02*
X94050090Y-78740000D01*
X93472000Y-87122000D02*
X91916366Y-87122000D01*
X86614000Y-92424366D02*
X86614000Y-100330000D01*
X79248000Y-107696000D02*
X64770000Y-107696000D01*
X86614000Y-100330000D02*
X79248000Y-107696000D01*
X108712000Y-87122000D02*
X106172000Y-89662000D01*
X106172000Y-89662000D02*
X93218000Y-89662000D01*
X91678183Y-88122183D02*
X90916183Y-88122183D01*
X93218000Y-89662000D02*
X91678183Y-88122183D01*
X91916366Y-87122000D02*
X90916183Y-88122183D01*
X90916183Y-88122183D02*
X86614000Y-92424366D01*
X84582000Y-83312000D02*
X80772000Y-87122000D01*
X84582000Y-77978000D02*
X84582000Y-83312000D01*
X104648000Y-112776000D02*
X113030000Y-112776000D01*
X103124000Y-114300000D02*
X104648000Y-112776000D01*
X111779998Y-115316000D02*
X113030000Y-115316000D01*
X110255998Y-116840000D02*
X111779998Y-115316000D01*
X103124000Y-116840000D02*
X110255998Y-116840000D01*
X111779998Y-117856000D02*
X113030000Y-117856000D01*
X110255998Y-119380000D02*
X111779998Y-117856000D01*
X103124000Y-119380000D02*
X110255998Y-119380000D01*
D18*
X77978000Y-138430000D02*
X77978000Y-121920000D01*
X80772000Y-141224000D02*
X77978000Y-138430000D01*
X89154000Y-141224000D02*
X80772000Y-141224000D01*
X96265999Y-148335999D02*
X89154000Y-141224000D01*
X116180021Y-128372022D02*
X116180010Y-150493062D01*
X101949998Y-137668000D02*
X101069999Y-136788001D01*
X106448402Y-148336000D02*
X96265999Y-148335999D01*
X102870000Y-137668000D02*
X101949998Y-137668000D01*
X101069999Y-136788001D02*
X101069999Y-128387999D01*
X102181997Y-127276001D02*
X115084001Y-127276001D01*
X101069999Y-128387999D02*
X102181997Y-127276001D01*
X115084001Y-127276001D02*
X116180021Y-128372022D01*
X109448413Y-151336011D02*
X106448402Y-148336000D01*
X115337061Y-151336011D02*
X109448413Y-151336011D01*
X116180010Y-150493062D02*
X115337061Y-151336011D01*
D17*
X64159997Y-110875999D02*
X74299999Y-110875999D01*
X62719999Y-109436001D02*
X64159997Y-110875999D01*
X62719999Y-100875999D02*
X62719999Y-109436001D01*
X64770000Y-100076000D02*
X63519998Y-100076000D01*
X63519998Y-100076000D02*
X62719999Y-100875999D01*
X77978000Y-114554000D02*
X77978000Y-121920000D01*
X102023998Y-121920000D02*
X93895998Y-113792000D01*
X103124000Y-121920000D02*
X102023998Y-121920000D01*
X76454000Y-113030000D02*
X80264000Y-113030000D01*
X76454000Y-113030000D02*
X77978000Y-114554000D01*
X74299999Y-110875999D02*
X76454000Y-113030000D01*
X93895998Y-113792000D02*
X93895998Y-113707998D01*
X93895998Y-113707998D02*
X92710000Y-112522000D01*
X92710000Y-112522000D02*
X92710000Y-112522000D01*
X80264000Y-113030000D02*
X80264000Y-113030000D01*
X95250000Y-121920000D02*
X94996000Y-122174000D01*
X110580000Y-110236000D02*
X113030000Y-110236000D01*
X108796002Y-110236000D02*
X110580000Y-110236000D01*
X104224002Y-105664000D02*
X108796002Y-110236000D01*
X103124000Y-105664000D02*
X104224002Y-105664000D01*
X110580000Y-107696000D02*
X113030000Y-107696000D01*
X108796002Y-107696000D02*
X110580000Y-107696000D01*
X104224002Y-103124000D02*
X108796002Y-107696000D01*
X103124000Y-103124000D02*
X104224002Y-103124000D01*
X110580000Y-103632000D02*
X113030000Y-103632000D01*
X108472000Y-103632000D02*
X110580000Y-103632000D01*
X105424000Y-100584000D02*
X108472000Y-103632000D01*
X103124000Y-100584000D02*
X105424000Y-100584000D01*
X102870000Y-154855998D02*
X101938002Y-153924000D01*
X102870000Y-155956000D02*
X102870000Y-154855998D01*
X101938002Y-153924000D02*
X81280000Y-153924000D01*
X79248000Y-151892000D02*
X79248000Y-144018000D01*
X81280000Y-153924000D02*
X79248000Y-151892000D01*
X81788000Y-151130000D02*
X81788000Y-144018000D01*
X83181990Y-152523990D02*
X81788000Y-151130000D01*
X104277990Y-152523990D02*
X83181990Y-152523990D01*
X105410000Y-155956000D02*
X105410000Y-153656000D01*
X105410000Y-153656000D02*
X104277990Y-152523990D01*
X84328000Y-149860000D02*
X84328000Y-144018000D01*
X85591980Y-151123980D02*
X84328000Y-149860000D01*
X105417980Y-151123980D02*
X85591980Y-151123980D01*
X107950000Y-155956000D02*
X107950000Y-153656000D01*
X107950000Y-153656000D02*
X105417980Y-151123980D01*
X110490000Y-154216089D02*
X105997883Y-149723970D01*
X110490000Y-155956000D02*
X110490000Y-154216089D01*
X105997883Y-149723970D02*
X88255970Y-149723970D01*
X86868000Y-148336000D02*
X86868000Y-144018000D01*
X88255970Y-149723970D02*
X86868000Y-148336000D01*
D18*
X83058000Y-137414000D02*
X83058000Y-121920000D01*
X113030000Y-148336000D02*
X110409070Y-148336000D01*
X108009050Y-145935980D02*
X97260120Y-145935980D01*
X97260120Y-145935980D02*
X90008140Y-138684000D01*
X90008140Y-138684000D02*
X84328000Y-138684000D01*
X110409070Y-148336000D02*
X108009050Y-145935980D01*
X84328000Y-138684000D02*
X83058000Y-137414000D01*
X85598000Y-136398000D02*
X85598000Y-121920000D01*
X109566140Y-145796000D02*
X108506110Y-144735970D01*
X113030000Y-145796000D02*
X109566140Y-145796000D01*
X108506110Y-144735970D02*
X97757180Y-144735970D01*
X97757180Y-144735970D02*
X90505200Y-137483990D01*
X90505200Y-137483990D02*
X86683990Y-137483990D01*
X86683990Y-137483990D02*
X85598000Y-136398000D01*
D17*
X111779998Y-120396000D02*
X107461998Y-124714000D01*
X113030000Y-120396000D02*
X111779998Y-120396000D01*
X98058000Y-121920000D02*
X95758000Y-121920000D01*
X100852000Y-124714000D02*
X98058000Y-121920000D01*
X107461998Y-124714000D02*
X100852000Y-124714000D01*
X105170000Y-135128000D02*
X107819990Y-137777990D01*
X102870000Y-135128000D02*
X105170000Y-135128000D01*
X110580000Y-143256000D02*
X113030000Y-143256000D01*
X107819990Y-140495990D02*
X110580000Y-143256000D01*
X107819990Y-137777990D02*
X107819990Y-140495990D01*
X110490000Y-140716000D02*
X113030000Y-140716000D01*
X109220000Y-139446000D02*
X110490000Y-140716000D01*
X109220000Y-134874000D02*
X109220000Y-139446000D01*
X102870000Y-132588000D02*
X106934000Y-132588000D01*
X106934000Y-132588000D02*
X109220000Y-134874000D01*
X112522000Y-92964000D02*
X113030000Y-93472000D01*
X93218000Y-92964000D02*
X112522000Y-92964000D01*
X112692001Y-95674001D02*
X113030000Y-96012000D01*
X94317999Y-95674001D02*
X112692001Y-95674001D01*
X93218000Y-96774000D02*
X94317999Y-95674001D01*
X94996000Y-98552000D02*
X113030000Y-98552000D01*
X93218000Y-100330000D02*
X94996000Y-98552000D01*
M02*
