  0
SECTION
  2
HEADER
  9
$ANGBASE
  50
0.0
  9
$ANGDIR
  70
  1
  9
$MEASUREMENT
  70
0
  0
ENDSEC
  0
SECTION
  2
TABLES
  0
TABLE
  2
LTYPE
  70
4
  0
LTYPE
  5
40F
  2
CONTINUOUS
  70
0
  3
Solid line
  72
65
  73
0
  40
0.0
  0
LTYPE
  5
410
  2
DASHDOT
 70
0
  3
Dash Dot ____ _ ____ _
 72
65
 73
4
 40
2.0
 49
1.25
 49
-0.25
 49
0.25
 49
-0.25
  0
LTYPE
  5
411
  2
DASHED
 70
0
  3
Dashed __ __ __ __ __
 72
65
 73
2
 40
0.75
 49
0.5
 49
-0.25
  0
LTYPE
  5
43B
  2
DOTTED
 70
0
  3
Dotted .  .  .  .
 72
65
 73
2
 40
0.2
 49
0.0
 49
-0.2
  0
ENDTAB
  0
TABLE
  2
STYLE
  70
4
  0
STYLE
  2
KICAD
  70
0
  40
0
  41
1
  42
1
  50
0
  71
0
  3
isocp.shx
  0
STYLE
  2
KICADB
  70
0
  40
0
  41
1
  42
1
  50
0
  71
0
  3
isocp.shx
  0
STYLE
  2
KICADI
  70
0
  40
0
  41
1
  42
1
  50
15
  71
0
  3
isocp.shx
  0
STYLE
  2
KICADBI
  70
0
  40
0
  41
1
  42
1
  50
15
  71
0
  3
isocp.shx
  0
ENDTAB
  0
TABLE
  2
LAYER
  70
30
  0
LAYER
  2
BLACK
  70
0
  62
7
  6
CONTINUOUS
  0
LAYER
  2
GRAY1
  70
0
  62
251
  6
CONTINUOUS
  0
LAYER
  2
GRAY2
  70
0
  62
8
  6
CONTINUOUS
  0
LAYER
  2
GRAY3
  70
0
  62
9
  6
CONTINUOUS
  0
LAYER
  2
WHITE
  70
0
  62
7
  6
CONTINUOUS
  0
LAYER
  2
LYELLOW
  70
0
  62
51
  6
CONTINUOUS
  0
LAYER
  2
BLUE1
  70
0
  62
178
  6
CONTINUOUS
  0
LAYER
  2
GREEN1
  70
0
  62
98
  6
CONTINUOUS
  0
LAYER
  2
CYAN1
  70
0
  62
138
  6
CONTINUOUS
  0
LAYER
  2
RED1
  70
0
  62
18
  6
CONTINUOUS
  0
LAYER
  2
MAGENTA1
  70
0
  62
228
  6
CONTINUOUS
  0
LAYER
  2
BROWN1
  70
0
  62
58
  6
CONTINUOUS
  0
LAYER
  2
BLUE2
  70
0
  62
5
  6
CONTINUOUS
  0
LAYER
  2
GREEN2
  70
0
  62
3
  6
CONTINUOUS
  0
LAYER
  2
CYAN2
  70
0
  62
4
  6
CONTINUOUS
  0
LAYER
  2
RED2
  70
0
  62
1
  6
CONTINUOUS
  0
LAYER
  2
MAGENTA2
  70
0
  62
6
  6
CONTINUOUS
  0
LAYER
  2
BROWN2
  70
0
  62
54
  6
CONTINUOUS
  0
LAYER
  2
BLUE3
  70
0
  62
171
  6
CONTINUOUS
  0
LAYER
  2
GREEN3
  70
0
  62
91
  6
CONTINUOUS
  0
LAYER
  2
CYAN3
  70
0
  62
131
  6
CONTINUOUS
  0
LAYER
  2
RED3
  70
0
  62
11
  6
CONTINUOUS
  0
LAYER
  2
MAGENTA3
  70
0
  62
221
  6
CONTINUOUS
  0
LAYER
  2
YELLOW3
  70
0
  62
2
  6
CONTINUOUS
  0
LAYER
  2
BLUE4
  70
0
  62
5
  6
CONTINUOUS
  0
LAYER
  2
GREEN4
  70
0
  62
3
  6
CONTINUOUS
  0
LAYER
  2
CYAN4
  70
0
  62
4
  6
CONTINUOUS
  0
LAYER
  2
RED4
  70
0
  62
1
  6
CONTINUOUS
  0
LAYER
  2
MAGENTA4
  70
0
  62
6
  6
CONTINUOUS
  0
LAYER
  2
YELLOW4
  70
0
  62
2
  6
CONTINUOUS
  0
ENDTAB
  0
ENDSEC
  0
SECTION
  2
ENTITIES
0
LINE
8
BLACK
6
CONTINUOUS
10
118.693
20
-111.615
11
119.057
21
-111.766
0
LINE
8
BLACK
6
CONTINUOUS
10
119.057
20
-111.766
11
119.385
21
-111.984
0
LINE
8
BLACK
6
CONTINUOUS
10
119.385
20
-111.984
11
119.664
21
-112.263
0
LINE
8
BLACK
6
CONTINUOUS
10
119.664
20
-112.263
11
119.882
21
-112.591
0
LINE
8
BLACK
6
CONTINUOUS
10
119.882
20
-112.591
11
120.033
21
-112.955
0
LINE
8
BLACK
6
CONTINUOUS
10
120.033
20
-112.955
11
120.11
21
-113.341
0
LINE
8
BLACK
6
CONTINUOUS
10
120.11
20
-113.341
11
120.11
21
-113.735
0
LINE
8
BLACK
6
CONTINUOUS
10
120.11
20
-113.735
11
120.033
21
-114.121
0
LINE
8
BLACK
6
CONTINUOUS
10
120.033
20
-114.121
11
119.882
21
-114.485
0
LINE
8
BLACK
6
CONTINUOUS
10
119.882
20
-114.485
11
119.664
21
-114.813
0
LINE
8
BLACK
6
CONTINUOUS
10
119.664
20
-114.813
11
119.385
21
-115.092
0
LINE
8
BLACK
6
CONTINUOUS
10
119.385
20
-115.092
11
119.057
21
-115.31
0
LINE
8
BLACK
6
CONTINUOUS
10
119.057
20
-115.31
11
118.693
21
-115.461
0
LINE
8
BLACK
6
CONTINUOUS
10
118.693
20
-115.461
11
118.307
21
-115.538
0
LINE
8
BLACK
6
CONTINUOUS
10
118.307
20
-115.538
11
117.913
21
-115.538
0
LINE
8
BLACK
6
CONTINUOUS
10
117.913
20
-115.538
11
117.527
21
-115.461
0
LINE
8
BLACK
6
CONTINUOUS
10
117.527
20
-115.461
11
117.163
21
-115.31
0
LINE
8
BLACK
6
CONTINUOUS
10
117.163
20
-115.31
11
116.835
21
-115.092
0
LINE
8
BLACK
6
CONTINUOUS
10
116.835
20
-115.092
11
116.556
21
-114.813
0
LINE
8
BLACK
6
CONTINUOUS
10
116.556
20
-114.813
11
116.338
21
-114.485
0
LINE
8
BLACK
6
CONTINUOUS
10
116.338
20
-114.485
11
116.187
21
-114.121
0
LINE
8
BLACK
6
CONTINUOUS
10
116.187
20
-114.121
11
116.11
21
-113.735
0
LINE
8
BLACK
6
CONTINUOUS
10
116.11
20
-113.735
11
116.11
21
-113.341
0
LINE
8
BLACK
6
CONTINUOUS
10
116.11
20
-113.341
11
116.187
21
-112.955
0
LINE
8
BLACK
6
CONTINUOUS
10
116.187
20
-112.955
11
116.338
21
-112.591
0
LINE
8
BLACK
6
CONTINUOUS
10
116.338
20
-112.591
11
116.556
21
-112.263
0
LINE
8
BLACK
6
CONTINUOUS
10
116.556
20
-112.263
11
116.835
21
-111.984
0
LINE
8
BLACK
6
CONTINUOUS
10
116.835
20
-111.984
11
117.163
21
-111.766
0
LINE
8
BLACK
6
CONTINUOUS
10
117.163
20
-111.766
11
117.527
21
-111.615
0
LINE
8
BLACK
6
CONTINUOUS
10
117.527
20
-111.615
11
117.913
21
-111.538
0
LINE
8
BLACK
6
CONTINUOUS
10
117.913
20
-111.538
11
118.307
21
-111.538
0
LINE
8
BLACK
6
CONTINUOUS
10
118.307
20
-111.538
11
118.693
21
-111.615
0
LINE
8
BLACK
6
CONTINUOUS
10
91.2614
20
-111.615
11
91.6254
21
-111.766
0
LINE
8
BLACK
6
CONTINUOUS
10
91.6254
20
-111.766
11
91.9529
21
-111.984
0
LINE
8
BLACK
6
CONTINUOUS
10
91.9529
20
-111.984
11
92.2315
21
-112.263
0
LINE
8
BLACK
6
CONTINUOUS
10
92.2315
20
-112.263
11
92.4504
21
-112.591
0
LINE
8
BLACK
6
CONTINUOUS
10
92.4504
20
-112.591
11
92.6011
21
-112.955
0
LINE
8
BLACK
6
CONTINUOUS
10
92.6011
20
-112.955
11
92.678
21
-113.341
0
LINE
8
BLACK
6
CONTINUOUS
10
92.678
20
-113.341
11
92.678
21
-113.735
0
LINE
8
BLACK
6
CONTINUOUS
10
92.678
20
-113.735
11
92.6011
21
-114.121
0
LINE
8
BLACK
6
CONTINUOUS
10
92.6011
20
-114.121
11
92.4504
21
-114.485
0
LINE
8
BLACK
6
CONTINUOUS
10
92.4504
20
-114.485
11
92.2315
21
-114.813
0
LINE
8
BLACK
6
CONTINUOUS
10
92.2315
20
-114.813
11
91.9529
21
-115.092
0
LINE
8
BLACK
6
CONTINUOUS
10
91.9529
20
-115.092
11
91.6254
21
-115.31
0
LINE
8
BLACK
6
CONTINUOUS
10
91.6254
20
-115.31
11
91.2614
21
-115.461
0
LINE
8
BLACK
6
CONTINUOUS
10
91.2614
20
-115.461
11
90.875
21
-115.538
0
LINE
8
BLACK
6
CONTINUOUS
10
90.875
20
-115.538
11
90.481
21
-115.538
0
LINE
8
BLACK
6
CONTINUOUS
10
90.481
20
-115.538
11
90.0946
21
-115.461
0
LINE
8
BLACK
6
CONTINUOUS
10
90.0946
20
-115.461
11
89.7306
21
-115.31
0
LINE
8
BLACK
6
CONTINUOUS
10
89.7306
20
-115.31
11
89.4031
21
-115.092
0
LINE
8
BLACK
6
CONTINUOUS
10
89.4031
20
-115.092
11
89.1245
21
-114.813
0
LINE
8
BLACK
6
CONTINUOUS
10
89.1245
20
-114.813
11
88.9056
21
-114.485
0
LINE
8
BLACK
6
CONTINUOUS
10
88.9056
20
-114.485
11
88.7549
21
-114.121
0
LINE
8
BLACK
6
CONTINUOUS
10
88.7549
20
-114.121
11
88.678
21
-113.735
0
LINE
8
BLACK
6
CONTINUOUS
10
88.678
20
-113.735
11
88.678
21
-113.341
0
LINE
8
BLACK
6
CONTINUOUS
10
88.678
20
-113.341
11
88.7549
21
-112.955
0
LINE
8
BLACK
6
CONTINUOUS
10
88.7549
20
-112.955
11
88.9056
21
-112.591
0
LINE
8
BLACK
6
CONTINUOUS
10
88.9056
20
-112.591
11
89.1245
21
-112.263
0
LINE
8
BLACK
6
CONTINUOUS
10
89.1245
20
-112.263
11
89.4031
21
-111.984
0
LINE
8
BLACK
6
CONTINUOUS
10
89.4031
20
-111.984
11
89.7306
21
-111.766
0
LINE
8
BLACK
6
CONTINUOUS
10
89.7306
20
-111.766
11
90.0946
21
-111.615
0
LINE
8
BLACK
6
CONTINUOUS
10
90.0946
20
-111.615
11
90.481
21
-111.538
0
LINE
8
BLACK
6
CONTINUOUS
10
90.481
20
-111.538
11
90.875
21
-111.538
0
LINE
8
BLACK
6
CONTINUOUS
10
90.875
20
-111.538
11
91.2614
21
-111.615
0
LINE
8
BLACK
6
CONTINUOUS
10
96.01
20
-91.6411
11
96.01
21
-97.1194
0
LINE
8
BLACK
6
CONTINUOUS
10
96.01
20
-97.1194
11
96.0124
21
-97.144
0
LINE
8
BLACK
6
CONTINUOUS
10
96.0124
20
-97.144
11
96.01
21
-97.1685
0
LINE
8
BLACK
6
CONTINUOUS
10
96.01
20
-97.1685
11
96.0028
21
-97.242
0
LINE
8
BLACK
6
CONTINUOUS
10
96.0028
20
-97.242
11
95.9742
21
-97.3363
0
LINE
8
BLACK
6
CONTINUOUS
10
95.9742
20
-97.3363
11
95.9278
21
-97.4231
0
LINE
8
BLACK
6
CONTINUOUS
10
95.9278
20
-97.4231
11
95.8653
21
-97.4993
0
LINE
8
BLACK
6
CONTINUOUS
10
95.8653
20
-97.4993
11
95.8462
21
-97.5149
0
LINE
8
BLACK
6
CONTINUOUS
10
95.8462
20
-97.5149
11
94.9809
21
-98.3802
0
LINE
8
BLACK
6
CONTINUOUS
10
94.9809
20
-98.3802
11
94.9653
21
-98.3993
0
LINE
8
BLACK
6
CONTINUOUS
10
94.9653
20
-98.3993
11
94.8891
21
-98.4617
0
LINE
8
BLACK
6
CONTINUOUS
10
94.8891
20
-98.4617
11
94.8023
21
-98.5082
0
LINE
8
BLACK
6
CONTINUOUS
10
94.8023
20
-98.5082
11
94.708
21
-98.5368
0
LINE
8
BLACK
6
CONTINUOUS
10
94.708
20
-98.5368
11
94.6346
21
-98.544
0
LINE
8
BLACK
6
CONTINUOUS
10
94.6346
20
-98.544
11
94.61
21
-98.5464
0
LINE
8
BLACK
6
CONTINUOUS
10
94.61
20
-98.5464
11
94.5854
21
-98.544
0
LINE
8
BLACK
6
CONTINUOUS
10
94.5854
20
-98.544
11
93.61
21
-98.544
0
LINE
8
BLACK
6
CONTINUOUS
10
93.61
20
-98.544
11
93.61
21
-98.944
0
LINE
8
BLACK
6
CONTINUOUS
10
93.61
20
-98.944
11
91.81
21
-98.944
0
LINE
8
BLACK
6
CONTINUOUS
10
91.81
20
-98.944
11
91.81
21
-98.544
0
LINE
8
BLACK
6
CONTINUOUS
10
91.81
20
-98.544
11
91.0171
21
-98.544
0
LINE
8
BLACK
6
CONTINUOUS
10
91.0171
20
-98.544
11
90.67
21
-98.8911
0
LINE
8
BLACK
6
CONTINUOUS
10
90.67
20
-98.8911
11
90.67
21
-106.106
0
LINE
8
BLACK
6
CONTINUOUS
10
90.67
20
-106.106
11
92.1137
21
-107.55
0
LINE
8
BLACK
6
CONTINUOUS
10
92.1137
20
-107.55
11
98.568
21
-107.55
0
LINE
8
BLACK
6
CONTINUOUS
10
98.568
20
-107.55
11
98.568
21
-107.45
0
LINE
8
BLACK
6
CONTINUOUS
10
98.568
20
-107.45
11
100.568
21
-107.45
0
LINE
8
BLACK
6
CONTINUOUS
10
100.568
20
-107.45
11
100.568
21
-107.55
0
LINE
8
BLACK
6
CONTINUOUS
10
100.568
20
-107.55
11
106.188
21
-107.55
0
LINE
8
BLACK
6
CONTINUOUS
10
106.188
20
-107.55
11
106.188
21
-107.45
0
LINE
8
BLACK
6
CONTINUOUS
10
106.188
20
-107.45
11
116.391
21
-107.45
0
LINE
8
BLACK
6
CONTINUOUS
10
116.391
20
-107.45
11
116.67
21
-107.171
0
LINE
8
BLACK
6
CONTINUOUS
10
116.67
20
-107.171
11
116.67
21
-99.5851
0
LINE
8
BLACK
6
CONTINUOUS
10
116.67
20
-99.5851
11
116.283
21
-99.198
0
LINE
8
BLACK
6
CONTINUOUS
10
116.283
20
-99.198
11
114.67
21
-99.198
0
LINE
8
BLACK
6
CONTINUOUS
10
114.67
20
-99.198
11
114.67
21
-97.398
0
LINE
8
BLACK
6
CONTINUOUS
10
114.67
20
-97.398
11
116.47
21
-97.398
0
LINE
8
BLACK
6
CONTINUOUS
10
116.47
20
-97.398
11
116.47
21
-97.9709
0
LINE
8
BLACK
6
CONTINUOUS
10
116.47
20
-97.9709
11
117.506
21
-99.0071
0
LINE
8
BLACK
6
CONTINUOUS
10
117.506
20
-99.0071
11
117.525
21
-99.0227
0
LINE
8
BLACK
6
CONTINUOUS
10
117.525
20
-99.0227
11
117.588
21
-99.0989
0
LINE
8
BLACK
6
CONTINUOUS
10
117.588
20
-99.0989
11
117.634
21
-99.1857
0
LINE
8
BLACK
6
CONTINUOUS
10
117.634
20
-99.1857
11
117.663
21
-99.28
0
LINE
8
BLACK
6
CONTINUOUS
10
117.663
20
-99.28
11
117.67
21
-99.3534
0
LINE
8
BLACK
6
CONTINUOUS
10
117.67
20
-99.3534
11
117.672
21
-99.378
0
LINE
8
BLACK
6
CONTINUOUS
10
117.672
20
-99.378
11
117.67
21
-99.4026
0
LINE
8
BLACK
6
CONTINUOUS
10
117.67
20
-99.4026
11
117.67
21
-107.353
0
LINE
8
BLACK
6
CONTINUOUS
10
117.67
20
-107.353
11
117.672
21
-107.378
0
LINE
8
BLACK
6
CONTINUOUS
10
117.672
20
-107.378
11
117.67
21
-107.403
0
LINE
8
BLACK
6
CONTINUOUS
10
117.67
20
-107.403
11
117.663
21
-107.476
0
LINE
8
BLACK
6
CONTINUOUS
10
117.663
20
-107.476
11
117.634
21
-107.57
0
LINE
8
BLACK
6
CONTINUOUS
10
117.634
20
-107.57
11
117.588
21
-107.657
0
LINE
8
BLACK
6
CONTINUOUS
10
117.588
20
-107.657
11
117.525
21
-107.733
0
LINE
8
BLACK
6
CONTINUOUS
10
117.525
20
-107.733
11
117.506
21
-107.749
0
LINE
8
BLACK
6
CONTINUOUS
10
117.506
20
-107.749
11
116.969
21
-108.286
0
LINE
8
BLACK
6
CONTINUOUS
10
116.969
20
-108.286
11
116.953
21
-108.305
0
LINE
8
BLACK
6
CONTINUOUS
10
116.953
20
-108.305
11
116.877
21
-108.368
0
LINE
8
BLACK
6
CONTINUOUS
10
116.877
20
-108.368
11
116.79
21
-108.414
0
LINE
8
BLACK
6
CONTINUOUS
10
116.79
20
-108.414
11
116.696
21
-108.443
0
LINE
8
BLACK
6
CONTINUOUS
10
116.696
20
-108.443
11
116.623
21
-108.45
0
LINE
8
BLACK
6
CONTINUOUS
10
116.623
20
-108.45
11
116.598
21
-108.452
0
LINE
8
BLACK
6
CONTINUOUS
10
116.598
20
-108.452
11
116.573
21
-108.45
0
LINE
8
BLACK
6
CONTINUOUS
10
116.573
20
-108.45
11
106.188
21
-108.45
0
LINE
8
BLACK
6
CONTINUOUS
10
106.188
20
-108.45
11
106.188
21
-108.35
0
LINE
8
BLACK
6
CONTINUOUS
10
106.188
20
-108.35
11
100.568
21
-108.35
0
LINE
8
BLACK
6
CONTINUOUS
10
100.568
20
-108.35
11
100.568
21
-108.45
0
LINE
8
BLACK
6
CONTINUOUS
10
100.568
20
-108.45
11
98.568
21
-108.45
0
LINE
8
BLACK
6
CONTINUOUS
10
98.568
20
-108.45
11
98.568
21
-108.35
0
LINE
8
BLACK
6
CONTINUOUS
10
98.568
20
-108.35
11
91.9676
21
-108.35
0
LINE
8
BLACK
6
CONTINUOUS
10
91.9676
20
-108.35
11
91.948
21
-108.352
0
LINE
8
BLACK
6
CONTINUOUS
10
91.948
20
-108.352
11
91.8696
21
-108.344
0
LINE
8
BLACK
6
CONTINUOUS
10
91.8696
20
-108.344
11
91.7942
21
-108.321
0
LINE
8
BLACK
6
CONTINUOUS
10
91.7942
20
-108.321
11
91.7247
21
-108.284
0
LINE
8
BLACK
6
CONTINUOUS
10
91.7247
20
-108.284
11
91.679
21
-108.247
0
LINE
8
BLACK
6
CONTINUOUS
10
91.679
20
-108.247
11
91.6638
21
-108.234
0
LINE
8
BLACK
6
CONTINUOUS
10
91.6638
20
-108.234
11
91.6513
21
-108.219
0
LINE
8
BLACK
6
CONTINUOUS
10
91.6513
20
-108.219
11
90.0998
21
-106.668
0
LINE
8
BLACK
6
CONTINUOUS
10
90.0998
20
-106.668
11
90.072
21
-106.665
0
LINE
8
BLACK
6
CONTINUOUS
10
90.072
20
-106.665
11
89.9777
21
-106.636
0
LINE
8
BLACK
6
CONTINUOUS
10
89.9777
20
-106.636
11
89.8909
21
-106.59
0
LINE
8
BLACK
6
CONTINUOUS
10
89.8909
20
-106.59
11
89.8147
21
-106.527
0
LINE
8
BLACK
6
CONTINUOUS
10
89.8147
20
-106.527
11
89.7523
21
-106.451
0
LINE
8
BLACK
6
CONTINUOUS
10
89.7523
20
-106.451
11
89.7058
21
-106.364
0
LINE
8
BLACK
6
CONTINUOUS
10
89.7058
20
-106.364
11
89.6772
21
-106.27
0
LINE
8
BLACK
6
CONTINUOUS
10
89.6772
20
-106.27
11
89.67
21
-106.197
0
LINE
8
BLACK
6
CONTINUOUS
10
89.67
20
-106.197
11
89.67
21
-98.7086
0
LINE
8
BLACK
6
CONTINUOUS
10
89.67
20
-98.7086
11
89.6676
21
-98.684
0
LINE
8
BLACK
6
CONTINUOUS
10
89.6676
20
-98.684
11
89.6772
21
-98.586
0
LINE
8
BLACK
6
CONTINUOUS
10
89.6772
20
-98.586
11
89.7008
21
-98.5082
0
LINE
8
BLACK
6
CONTINUOUS
10
89.7008
20
-98.5082
11
89.7058
21
-98.4917
0
LINE
8
BLACK
6
CONTINUOUS
10
89.7058
20
-98.4917
11
89.7523
21
-98.4049
0
LINE
8
BLACK
6
CONTINUOUS
10
89.7523
20
-98.4049
11
89.8147
21
-98.3287
0
LINE
8
BLACK
6
CONTINUOUS
10
89.8147
20
-98.3287
11
89.8338
21
-98.3131
0
LINE
8
BLACK
6
CONTINUOUS
10
89.8338
20
-98.3131
11
90.4391
21
-97.7078
0
LINE
8
BLACK
6
CONTINUOUS
10
90.4391
20
-97.7078
11
90.4547
21
-97.6887
0
LINE
8
BLACK
6
CONTINUOUS
10
90.4547
20
-97.6887
11
90.5309
21
-97.6263
0
LINE
8
BLACK
6
CONTINUOUS
10
90.5309
20
-97.6263
11
90.6177
21
-97.5798
0
LINE
8
BLACK
6
CONTINUOUS
10
90.6177
20
-97.5798
11
90.712
21
-97.5512
0
LINE
8
BLACK
6
CONTINUOUS
10
90.712
20
-97.5512
11
90.7854
21
-97.544
0
LINE
8
BLACK
6
CONTINUOUS
10
90.7854
20
-97.544
11
90.81
21
-97.5416
0
LINE
8
BLACK
6
CONTINUOUS
10
90.81
20
-97.5416
11
90.8346
21
-97.544
0
LINE
8
BLACK
6
CONTINUOUS
10
90.8346
20
-97.544
11
91.81
21
-97.544
0
LINE
8
BLACK
6
CONTINUOUS
10
91.81
20
-97.544
11
91.81
21
-97.144
0
LINE
8
BLACK
6
CONTINUOUS
10
91.81
20
-97.144
11
93.61
21
-97.144
0
LINE
8
BLACK
6
CONTINUOUS
10
93.61
20
-97.144
11
93.61
21
-97.544
0
LINE
8
BLACK
6
CONTINUOUS
10
93.61
20
-97.544
11
94.4029
21
-97.544
0
LINE
8
BLACK
6
CONTINUOUS
10
94.4029
20
-97.544
11
95.01
21
-96.9369
0
LINE
8
BLACK
6
CONTINUOUS
10
95.01
20
-96.9369
11
95.01
21
-91.4585
0
LINE
8
BLACK
6
CONTINUOUS
10
95.01
20
-91.4585
11
95.0076
21
-91.434
0
LINE
8
BLACK
6
CONTINUOUS
10
95.0076
20
-91.434
11
95.0172
21
-91.336
0
LINE
8
BLACK
6
CONTINUOUS
10
95.0172
20
-91.336
11
95.0354
21
-91.2763
0
LINE
8
BLACK
6
CONTINUOUS
10
95.0354
20
-91.2763
11
95.0458
21
-91.2417
0
LINE
8
BLACK
6
CONTINUOUS
10
95.0458
20
-91.2417
11
95.0923
21
-91.1549
0
LINE
8
BLACK
6
CONTINUOUS
10
95.0923
20
-91.1549
11
95.1547
21
-91.0787
0
LINE
8
BLACK
6
CONTINUOUS
10
95.1547
20
-91.0787
11
95.1738
21
-91.0631
0
LINE
8
BLACK
6
CONTINUOUS
10
95.1738
20
-91.0631
11
96.4031
21
-89.8338
0
LINE
8
BLACK
6
CONTINUOUS
10
96.4031
20
-89.8338
11
96.4187
21
-89.8147
0
LINE
8
BLACK
6
CONTINUOUS
10
96.4187
20
-89.8147
11
96.4949
21
-89.7523
0
LINE
8
BLACK
6
CONTINUOUS
10
96.4949
20
-89.7523
11
96.5817
21
-89.7058
0
LINE
8
BLACK
6
CONTINUOUS
10
96.5817
20
-89.7058
11
96.676
21
-89.6772
0
LINE
8
BLACK
6
CONTINUOUS
10
96.676
20
-89.6772
11
96.7494
21
-89.67
0
LINE
8
BLACK
6
CONTINUOUS
10
96.7494
20
-89.67
11
96.7494
21
-89.67
0
LINE
8
BLACK
6
CONTINUOUS
10
96.7494
20
-89.67
11
96.774
21
-89.6676
0
LINE
8
BLACK
6
CONTINUOUS
10
96.774
20
-89.6676
11
96.7985
21
-89.67
0
LINE
8
BLACK
6
CONTINUOUS
10
96.7985
20
-89.67
11
99.068
21
-89.67
0
LINE
8
BLACK
6
CONTINUOUS
10
99.068
20
-89.67
11
99.068
21
-88.8771
0
LINE
8
BLACK
6
CONTINUOUS
10
99.068
20
-88.8771
11
94.2278
21
-84.0369
0
LINE
8
BLACK
6
CONTINUOUS
10
94.2278
20
-84.0369
11
94.2087
21
-84.0213
0
LINE
8
BLACK
6
CONTINUOUS
10
94.2087
20
-84.0213
11
94.1463
21
-83.9451
0
LINE
8
BLACK
6
CONTINUOUS
10
94.1463
20
-83.9451
11
94.0998
21
-83.8583
0
LINE
8
BLACK
6
CONTINUOUS
10
94.0998
20
-83.8583
11
94.0931
21
-83.836
0
LINE
8
BLACK
6
CONTINUOUS
10
94.0931
20
-83.836
11
94.0712
21
-83.764
0
LINE
8
BLACK
6
CONTINUOUS
10
94.0712
20
-83.764
11
94.0616
21
-83.666
0
LINE
8
BLACK
6
CONTINUOUS
10
94.0616
20
-83.666
11
94.064
21
-83.6414
0
LINE
8
BLACK
6
CONTINUOUS
10
94.064
20
-83.6414
11
94.064
21
-75.7091
0
LINE
8
BLACK
6
CONTINUOUS
10
94.064
20
-75.7091
11
93.6769
21
-75.322
0
LINE
8
BLACK
6
CONTINUOUS
10
93.6769
20
-75.322
11
92.064
21
-75.322
0
LINE
8
BLACK
6
CONTINUOUS
10
92.064
20
-75.322
11
92.064
21
-73.522
0
LINE
8
BLACK
6
CONTINUOUS
10
92.064
20
-73.522
11
93.864
21
-73.522
0
LINE
8
BLACK
6
CONTINUOUS
10
93.864
20
-73.522
11
93.864
21
-74.0949
0
LINE
8
BLACK
6
CONTINUOUS
10
93.864
20
-74.0949
11
94.9002
21
-75.1311
0
LINE
8
BLACK
6
CONTINUOUS
10
94.9002
20
-75.1311
11
94.9193
21
-75.1467
0
LINE
8
BLACK
6
CONTINUOUS
10
94.9193
20
-75.1467
11
94.9817
21
-75.2229
0
LINE
8
BLACK
6
CONTINUOUS
10
94.9817
20
-75.2229
11
95.0282
21
-75.3097
0
LINE
8
BLACK
6
CONTINUOUS
10
95.0282
20
-75.3097
11
95.0568
21
-75.404
0
LINE
8
BLACK
6
CONTINUOUS
10
95.0568
20
-75.404
11
95.064
21
-75.4774
0
LINE
8
BLACK
6
CONTINUOUS
10
95.064
20
-75.4774
11
95.0664
21
-75.502
0
LINE
8
BLACK
6
CONTINUOUS
10
95.0664
20
-75.502
11
95.064
21
-75.5266
0
LINE
8
BLACK
6
CONTINUOUS
10
95.064
20
-75.5266
11
95.064
21
-83.4589
0
LINE
8
BLACK
6
CONTINUOUS
10
95.064
20
-83.4589
11
99.9042
21
-88.2991
0
LINE
8
BLACK
6
CONTINUOUS
10
99.9042
20
-88.2991
11
99.9233
21
-88.3147
0
LINE
8
BLACK
6
CONTINUOUS
10
99.9233
20
-88.3147
11
99.9857
21
-88.3909
0
LINE
8
BLACK
6
CONTINUOUS
10
99.9857
20
-88.3909
11
100.032
21
-88.4777
0
LINE
8
BLACK
6
CONTINUOUS
10
100.032
20
-88.4777
11
100.061
21
-88.572
0
LINE
8
BLACK
6
CONTINUOUS
10
100.061
20
-88.572
11
100.068
21
-88.6454
0
LINE
8
BLACK
6
CONTINUOUS
10
100.068
20
-88.6454
11
100.068
21
-88.6454
0
LINE
8
BLACK
6
CONTINUOUS
10
100.068
20
-88.6454
11
100.07
21
-88.67
0
LINE
8
BLACK
6
CONTINUOUS
10
100.07
20
-88.67
11
100.068
21
-88.6945
0
LINE
8
BLACK
6
CONTINUOUS
10
100.068
20
-88.6945
11
100.068
21
-89.67
0
LINE
8
BLACK
6
CONTINUOUS
10
100.068
20
-89.67
11
100.568
21
-89.67
0
LINE
8
BLACK
6
CONTINUOUS
10
100.568
20
-89.67
11
100.568
21
-90.67
0
LINE
8
BLACK
6
CONTINUOUS
10
100.568
20
-90.67
11
99.5926
21
-90.67
0
LINE
8
BLACK
6
CONTINUOUS
10
99.5926
20
-90.67
11
99.568
21
-90.6724
0
LINE
8
BLACK
6
CONTINUOUS
10
99.568
20
-90.6724
11
99.5434
21
-90.67
0
LINE
8
BLACK
6
CONTINUOUS
10
99.5434
20
-90.67
11
96.9811
21
-90.67
0
LINE
8
BLACK
6
CONTINUOUS
10
96.9811
20
-90.67
11
96.01
21
-91.6411
0
LINE
8
BLACK
6
CONTINUOUS
10
116.47
20
-106.818
11
115.123
21
-106.818
0
LINE
8
BLACK
6
CONTINUOUS
10
115.123
20
-106.818
11
114.855
21
-107.086
0
LINE
8
BLACK
6
CONTINUOUS
10
114.855
20
-107.086
11
114.839
21
-107.105
0
LINE
8
BLACK
6
CONTINUOUS
10
114.839
20
-107.105
11
114.763
21
-107.168
0
LINE
8
BLACK
6
CONTINUOUS
10
114.763
20
-107.168
11
114.676
21
-107.214
0
LINE
8
BLACK
6
CONTINUOUS
10
114.676
20
-107.214
11
114.582
21
-107.243
0
LINE
8
BLACK
6
CONTINUOUS
10
114.582
20
-107.243
11
114.509
21
-107.25
0
LINE
8
BLACK
6
CONTINUOUS
10
114.509
20
-107.25
11
114.484
21
-107.252
0
LINE
8
BLACK
6
CONTINUOUS
10
114.484
20
-107.252
11
114.459
21
-107.25
0
LINE
8
BLACK
6
CONTINUOUS
10
114.459
20
-107.25
11
108.773
21
-107.25
0
LINE
8
BLACK
6
CONTINUOUS
10
108.773
20
-107.25
11
108.748
21
-107.252
0
LINE
8
BLACK
6
CONTINUOUS
10
108.748
20
-107.252
11
108.723
21
-107.25
0
LINE
8
BLACK
6
CONTINUOUS
10
108.723
20
-107.25
11
108.65
21
-107.243
0
LINE
8
BLACK
6
CONTINUOUS
10
108.65
20
-107.243
11
108.556
21
-107.214
0
LINE
8
BLACK
6
CONTINUOUS
10
108.556
20
-107.214
11
108.492
21
-107.18
0
LINE
8
BLACK
6
CONTINUOUS
10
108.492
20
-107.18
11
104.828
21
-107.18
0
LINE
8
BLACK
6
CONTINUOUS
10
104.828
20
-107.18
11
104.8
21
-107.222
0
LINE
8
BLACK
6
CONTINUOUS
10
104.8
20
-107.222
11
104.682
21
-107.34
0
LINE
8
BLACK
6
CONTINUOUS
10
104.682
20
-107.34
11
104.543
21
-107.433
0
LINE
8
BLACK
6
CONTINUOUS
10
104.543
20
-107.433
11
104.388
21
-107.497
0
LINE
8
BLACK
6
CONTINUOUS
10
104.388
20
-107.497
11
104.224
21
-107.53
0
LINE
8
BLACK
6
CONTINUOUS
10
104.224
20
-107.53
11
104.056
21
-107.53
0
LINE
8
BLACK
6
CONTINUOUS
10
104.056
20
-107.53
11
103.892
21
-107.497
0
LINE
8
BLACK
6
CONTINUOUS
10
103.892
20
-107.497
11
103.737
21
-107.433
0
LINE
8
BLACK
6
CONTINUOUS
10
103.737
20
-107.433
11
103.598
21
-107.34
0
LINE
8
BLACK
6
CONTINUOUS
10
103.598
20
-107.34
11
103.48
21
-107.222
0
LINE
8
BLACK
6
CONTINUOUS
10
103.48
20
-107.222
11
103.387
21
-107.083
0
LINE
8
BLACK
6
CONTINUOUS
10
103.387
20
-107.083
11
103.323
21
-106.928
0
LINE
8
BLACK
6
CONTINUOUS
10
103.323
20
-106.928
11
103.29
21
-106.764
0
LINE
8
BLACK
6
CONTINUOUS
10
103.29
20
-106.764
11
103.29
21
-106.596
0
LINE
8
BLACK
6
CONTINUOUS
10
103.29
20
-106.596
11
103.323
21
-106.432
0
LINE
8
BLACK
6
CONTINUOUS
10
103.323
20
-106.432
11
103.387
21
-106.277
0
LINE
8
BLACK
6
CONTINUOUS
10
103.387
20
-106.277
11
103.48
21
-106.138
0
LINE
8
BLACK
6
CONTINUOUS
10
103.48
20
-106.138
11
103.598
21
-106.02
0
LINE
8
BLACK
6
CONTINUOUS
10
103.598
20
-106.02
11
103.737
21
-105.927
0
LINE
8
BLACK
6
CONTINUOUS
10
103.737
20
-105.927
11
103.892
21
-105.863
0
LINE
8
BLACK
6
CONTINUOUS
10
103.892
20
-105.863
11
104.056
21
-105.83
0
LINE
8
BLACK
6
CONTINUOUS
10
104.056
20
-105.83
11
104.224
21
-105.83
0
LINE
8
BLACK
6
CONTINUOUS
10
104.224
20
-105.83
11
104.388
21
-105.863
0
LINE
8
BLACK
6
CONTINUOUS
10
104.388
20
-105.863
11
104.543
21
-105.927
0
LINE
8
BLACK
6
CONTINUOUS
10
104.543
20
-105.927
11
104.682
21
-106.02
0
LINE
8
BLACK
6
CONTINUOUS
10
104.682
20
-106.02
11
104.8
21
-106.138
0
LINE
8
BLACK
6
CONTINUOUS
10
104.8
20
-106.138
11
104.828
21
-106.18
0
LINE
8
BLACK
6
CONTINUOUS
10
104.828
20
-106.18
11
108.653
21
-106.18
0
LINE
8
BLACK
6
CONTINUOUS
10
108.653
20
-106.18
11
108.678
21
-106.178
0
LINE
8
BLACK
6
CONTINUOUS
10
108.678
20
-106.178
11
108.703
21
-106.18
0
LINE
8
BLACK
6
CONTINUOUS
10
108.703
20
-106.18
11
108.776
21
-106.187
0
LINE
8
BLACK
6
CONTINUOUS
10
108.776
20
-106.187
11
108.87
21
-106.216
0
LINE
8
BLACK
6
CONTINUOUS
10
108.87
20
-106.216
11
108.934
21
-106.25
0
LINE
8
BLACK
6
CONTINUOUS
10
108.934
20
-106.25
11
114.277
21
-106.25
0
LINE
8
BLACK
6
CONTINUOUS
10
114.277
20
-106.25
11
114.67
21
-105.857
0
LINE
8
BLACK
6
CONTINUOUS
10
114.67
20
-105.857
11
114.67
21
-105.018
0
LINE
8
BLACK
6
CONTINUOUS
10
114.67
20
-105.018
11
116.47
21
-105.018
0
LINE
8
BLACK
6
CONTINUOUS
10
116.47
20
-105.018
11
116.47
21
-106.818
0
LINE
8
BLACK
6
CONTINUOUS
10
108.188
20
-103.37
11
103.282
21
-103.37
0
LINE
8
BLACK
6
CONTINUOUS
10
103.282
20
-103.37
11
102.106
21
-104.546
0
LINE
8
BLACK
6
CONTINUOUS
10
102.106
20
-104.546
11
102.09
21
-104.565
0
LINE
8
BLACK
6
CONTINUOUS
10
102.09
20
-104.565
11
102.014
21
-104.628
0
LINE
8
BLACK
6
CONTINUOUS
10
102.014
20
-104.628
11
101.927
21
-104.674
0
LINE
8
BLACK
6
CONTINUOUS
10
101.927
20
-104.674
11
101.833
21
-104.703
0
LINE
8
BLACK
6
CONTINUOUS
10
101.833
20
-104.703
11
101.759
21
-104.71
0
LINE
8
BLACK
6
CONTINUOUS
10
101.759
20
-104.71
11
101.735
21
-104.712
0
LINE
8
BLACK
6
CONTINUOUS
10
101.735
20
-104.712
11
101.71
21
-104.71
0
LINE
8
BLACK
6
CONTINUOUS
10
101.71
20
-104.71
11
96.2711
21
-104.71
0
LINE
8
BLACK
6
CONTINUOUS
10
96.2711
20
-104.71
11
94.9809
21
-106
0
LINE
8
BLACK
6
CONTINUOUS
10
94.9809
20
-106
11
94.9653
21
-106.019
0
LINE
8
BLACK
6
CONTINUOUS
10
94.9653
20
-106.019
11
94.8891
21
-106.082
0
LINE
8
BLACK
6
CONTINUOUS
10
94.8891
20
-106.082
11
94.8023
21
-106.128
0
LINE
8
BLACK
6
CONTINUOUS
10
94.8023
20
-106.128
11
94.708
21
-106.157
0
LINE
8
BLACK
6
CONTINUOUS
10
94.708
20
-106.157
11
94.6346
21
-106.164
0
LINE
8
BLACK
6
CONTINUOUS
10
94.6346
20
-106.164
11
94.61
21
-106.166
0
LINE
8
BLACK
6
CONTINUOUS
10
94.61
20
-106.166
11
94.5854
21
-106.164
0
LINE
8
BLACK
6
CONTINUOUS
10
94.5854
20
-106.164
11
93.61
21
-106.164
0
LINE
8
BLACK
6
CONTINUOUS
10
93.61
20
-106.164
11
93.61
21
-106.564
0
LINE
8
BLACK
6
CONTINUOUS
10
93.61
20
-106.564
11
91.81
21
-106.564
0
LINE
8
BLACK
6
CONTINUOUS
10
91.81
20
-106.564
11
91.81
21
-104.764
0
LINE
8
BLACK
6
CONTINUOUS
10
91.81
20
-104.764
11
93.61
21
-104.764
0
LINE
8
BLACK
6
CONTINUOUS
10
93.61
20
-104.764
11
93.61
21
-105.164
0
LINE
8
BLACK
6
CONTINUOUS
10
93.61
20
-105.164
11
94.4029
21
-105.164
0
LINE
8
BLACK
6
CONTINUOUS
10
94.4029
20
-105.164
11
95.6931
21
-103.874
0
LINE
8
BLACK
6
CONTINUOUS
10
95.6931
20
-103.874
11
95.7087
21
-103.855
0
LINE
8
BLACK
6
CONTINUOUS
10
95.7087
20
-103.855
11
95.7849
21
-103.792
0
LINE
8
BLACK
6
CONTINUOUS
10
95.7849
20
-103.792
11
95.8717
21
-103.746
0
LINE
8
BLACK
6
CONTINUOUS
10
95.8717
20
-103.746
11
95.966
21
-103.717
0
LINE
8
BLACK
6
CONTINUOUS
10
95.966
20
-103.717
11
95.9854
21
-103.715
0
LINE
8
BLACK
6
CONTINUOUS
10
95.9854
20
-103.715
11
96.064
21
-103.708
0
LINE
8
BLACK
6
CONTINUOUS
10
96.064
20
-103.708
11
96.0886
21
-103.71
0
LINE
8
BLACK
6
CONTINUOUS
10
96.0886
20
-103.71
11
101.528
21
-103.71
0
LINE
8
BLACK
6
CONTINUOUS
10
101.528
20
-103.71
11
102.704
21
-102.534
0
LINE
8
BLACK
6
CONTINUOUS
10
102.704
20
-102.534
11
102.719
21
-102.515
0
LINE
8
BLACK
6
CONTINUOUS
10
102.719
20
-102.515
11
102.796
21
-102.452
0
LINE
8
BLACK
6
CONTINUOUS
10
102.796
20
-102.452
11
102.882
21
-102.406
0
LINE
8
BLACK
6
CONTINUOUS
10
102.882
20
-102.406
11
102.977
21
-102.377
0
LINE
8
BLACK
6
CONTINUOUS
10
102.977
20
-102.377
11
103.05
21
-102.37
0
LINE
8
BLACK
6
CONTINUOUS
10
103.05
20
-102.37
11
103.075
21
-102.368
0
LINE
8
BLACK
6
CONTINUOUS
10
103.075
20
-102.368
11
103.099
21
-102.37
0
LINE
8
BLACK
6
CONTINUOUS
10
103.099
20
-102.37
11
108.188
21
-102.37
0
LINE
8
BLACK
6
CONTINUOUS
10
108.188
20
-102.37
11
108.188
21
-103.37
0
LINE
8
BLACK
6
CONTINUOUS
10
106.188
20
-104.91
11
109.195
21
-104.91
0
LINE
8
BLACK
6
CONTINUOUS
10
109.195
20
-104.91
11
109.22
21
-104.908
0
LINE
8
BLACK
6
CONTINUOUS
10
109.22
20
-104.908
11
109.245
21
-104.91
0
LINE
8
BLACK
6
CONTINUOUS
10
109.245
20
-104.91
11
109.318
21
-104.917
0
LINE
8
BLACK
6
CONTINUOUS
10
109.318
20
-104.917
11
109.412
21
-104.946
0
LINE
8
BLACK
6
CONTINUOUS
10
109.412
20
-104.946
11
109.499
21
-104.992
0
LINE
8
BLACK
6
CONTINUOUS
10
109.499
20
-104.992
11
109.569
21
-105.05
0
LINE
8
BLACK
6
CONTINUOUS
10
109.569
20
-105.05
11
111.921
21
-105.05
0
LINE
8
BLACK
6
CONTINUOUS
10
111.921
20
-105.05
11
111.936
21
-105.035
0
LINE
8
BLACK
6
CONTINUOUS
10
111.936
20
-105.035
11
111.926
21
-104.986
0
LINE
8
BLACK
6
CONTINUOUS
10
111.926
20
-104.986
11
111.926
21
-104.818
0
LINE
8
BLACK
6
CONTINUOUS
10
111.926
20
-104.818
11
111.959
21
-104.654
0
LINE
8
BLACK
6
CONTINUOUS
10
111.959
20
-104.654
11
112.023
21
-104.499
0
LINE
8
BLACK
6
CONTINUOUS
10
112.023
20
-104.499
11
112.116
21
-104.36
0
LINE
8
BLACK
6
CONTINUOUS
10
112.116
20
-104.36
11
112.234
21
-104.242
0
LINE
8
BLACK
6
CONTINUOUS
10
112.234
20
-104.242
11
112.373
21
-104.149
0
LINE
8
BLACK
6
CONTINUOUS
10
112.373
20
-104.149
11
112.528
21
-104.085
0
LINE
8
BLACK
6
CONTINUOUS
10
112.528
20
-104.085
11
112.692
21
-104.052
0
LINE
8
BLACK
6
CONTINUOUS
10
112.692
20
-104.052
11
112.86
21
-104.052
0
LINE
8
BLACK
6
CONTINUOUS
10
112.86
20
-104.052
11
113.024
21
-104.085
0
LINE
8
BLACK
6
CONTINUOUS
10
113.024
20
-104.085
11
113.179
21
-104.149
0
LINE
8
BLACK
6
CONTINUOUS
10
113.179
20
-104.149
11
113.318
21
-104.242
0
LINE
8
BLACK
6
CONTINUOUS
10
113.318
20
-104.242
11
113.436
21
-104.36
0
LINE
8
BLACK
6
CONTINUOUS
10
113.436
20
-104.36
11
113.529
21
-104.499
0
LINE
8
BLACK
6
CONTINUOUS
10
113.529
20
-104.499
11
113.593
21
-104.654
0
LINE
8
BLACK
6
CONTINUOUS
10
113.593
20
-104.654
11
113.626
21
-104.818
0
LINE
8
BLACK
6
CONTINUOUS
10
113.626
20
-104.818
11
113.626
21
-104.986
0
LINE
8
BLACK
6
CONTINUOUS
10
113.626
20
-104.986
11
113.593
21
-105.15
0
LINE
8
BLACK
6
CONTINUOUS
10
113.593
20
-105.15
11
113.529
21
-105.305
0
LINE
8
BLACK
6
CONTINUOUS
10
113.529
20
-105.305
11
113.436
21
-105.444
0
LINE
8
BLACK
6
CONTINUOUS
10
113.436
20
-105.444
11
113.318
21
-105.562
0
LINE
8
BLACK
6
CONTINUOUS
10
113.318
20
-105.562
11
113.179
21
-105.655
0
LINE
8
BLACK
6
CONTINUOUS
10
113.179
20
-105.655
11
113.024
21
-105.719
0
LINE
8
BLACK
6
CONTINUOUS
10
113.024
20
-105.719
11
112.86
21
-105.752
0
LINE
8
BLACK
6
CONTINUOUS
10
112.86
20
-105.752
11
112.692
21
-105.752
0
LINE
8
BLACK
6
CONTINUOUS
10
112.692
20
-105.752
11
112.643
21
-105.742
0
LINE
8
BLACK
6
CONTINUOUS
10
112.643
20
-105.742
11
112.499
21
-105.886
0
LINE
8
BLACK
6
CONTINUOUS
10
112.499
20
-105.886
11
112.483
21
-105.905
0
LINE
8
BLACK
6
CONTINUOUS
10
112.483
20
-105.905
11
112.407
21
-105.968
0
LINE
8
BLACK
6
CONTINUOUS
10
112.407
20
-105.968
11
112.32
21
-106.014
0
LINE
8
BLACK
6
CONTINUOUS
10
112.32
20
-106.014
11
112.226
21
-106.043
0
LINE
8
BLACK
6
CONTINUOUS
10
112.226
20
-106.043
11
112.153
21
-106.05
0
LINE
8
BLACK
6
CONTINUOUS
10
112.153
20
-106.05
11
112.128
21
-106.052
0
LINE
8
BLACK
6
CONTINUOUS
10
112.128
20
-106.052
11
112.103
21
-106.05
0
LINE
8
BLACK
6
CONTINUOUS
10
112.103
20
-106.05
11
109.385
21
-106.05
0
LINE
8
BLACK
6
CONTINUOUS
10
109.385
20
-106.05
11
109.36
21
-106.052
0
LINE
8
BLACK
6
CONTINUOUS
10
109.36
20
-106.052
11
109.262
21
-106.043
0
LINE
8
BLACK
6
CONTINUOUS
10
109.262
20
-106.043
11
109.168
21
-106.014
0
LINE
8
BLACK
6
CONTINUOUS
10
109.168
20
-106.014
11
109.081
21
-105.968
0
LINE
8
BLACK
6
CONTINUOUS
10
109.081
20
-105.968
11
109.011
21
-105.91
0
LINE
8
BLACK
6
CONTINUOUS
10
109.011
20
-105.91
11
106.188
21
-105.91
0
LINE
8
BLACK
6
CONTINUOUS
10
106.188
20
-105.91
11
106.188
21
-104.91
0
LINE
8
BLACK
6
CONTINUOUS
10
98.568
20
-104.91
11
102.909
21
-104.91
0
LINE
8
BLACK
6
CONTINUOUS
10
102.909
20
-104.91
11
104.085
21
-103.734
0
LINE
8
BLACK
6
CONTINUOUS
10
104.085
20
-103.734
11
104.101
21
-103.715
0
LINE
8
BLACK
6
CONTINUOUS
10
104.101
20
-103.715
11
104.177
21
-103.652
0
LINE
8
BLACK
6
CONTINUOUS
10
104.177
20
-103.652
11
104.264
21
-103.606
0
LINE
8
BLACK
6
CONTINUOUS
10
104.264
20
-103.606
11
104.317
21
-103.59
0
LINE
8
BLACK
6
CONTINUOUS
10
104.317
20
-103.59
11
104.358
21
-103.577
0
LINE
8
BLACK
6
CONTINUOUS
10
104.358
20
-103.577
11
104.456
21
-103.568
0
LINE
8
BLACK
6
CONTINUOUS
10
104.456
20
-103.568
11
104.481
21
-103.57
0
LINE
8
BLACK
6
CONTINUOUS
10
104.481
20
-103.57
11
109.618
21
-103.57
0
LINE
8
BLACK
6
CONTINUOUS
10
109.618
20
-103.57
11
109.646
21
-103.528
0
LINE
8
BLACK
6
CONTINUOUS
10
109.646
20
-103.528
11
109.764
21
-103.41
0
LINE
8
BLACK
6
CONTINUOUS
10
109.764
20
-103.41
11
109.903
21
-103.317
0
LINE
8
BLACK
6
CONTINUOUS
10
109.903
20
-103.317
11
110.058
21
-103.253
0
LINE
8
BLACK
6
CONTINUOUS
10
110.058
20
-103.253
11
110.222
21
-103.22
0
LINE
8
BLACK
6
CONTINUOUS
10
110.222
20
-103.22
11
110.39
21
-103.22
0
LINE
8
BLACK
6
CONTINUOUS
10
110.39
20
-103.22
11
110.554
21
-103.253
0
LINE
8
BLACK
6
CONTINUOUS
10
110.554
20
-103.253
11
110.709
21
-103.317
0
LINE
8
BLACK
6
CONTINUOUS
10
110.709
20
-103.317
11
110.848
21
-103.41
0
LINE
8
BLACK
6
CONTINUOUS
10
110.848
20
-103.41
11
110.966
21
-103.528
0
LINE
8
BLACK
6
CONTINUOUS
10
110.966
20
-103.528
11
111.059
21
-103.667
0
LINE
8
BLACK
6
CONTINUOUS
10
111.059
20
-103.667
11
111.123
21
-103.822
0
LINE
8
BLACK
6
CONTINUOUS
10
111.123
20
-103.822
11
111.156
21
-103.986
0
LINE
8
BLACK
6
CONTINUOUS
10
111.156
20
-103.986
11
111.156
21
-104.154
0
LINE
8
BLACK
6
CONTINUOUS
10
111.156
20
-104.154
11
111.123
21
-104.318
0
LINE
8
BLACK
6
CONTINUOUS
10
111.123
20
-104.318
11
111.059
21
-104.473
0
LINE
8
BLACK
6
CONTINUOUS
10
111.059
20
-104.473
11
110.966
21
-104.612
0
LINE
8
BLACK
6
CONTINUOUS
10
110.966
20
-104.612
11
110.848
21
-104.73
0
LINE
8
BLACK
6
CONTINUOUS
10
110.848
20
-104.73
11
110.709
21
-104.823
0
LINE
8
BLACK
6
CONTINUOUS
10
110.709
20
-104.823
11
110.554
21
-104.887
0
LINE
8
BLACK
6
CONTINUOUS
10
110.554
20
-104.887
11
110.39
21
-104.92
0
LINE
8
BLACK
6
CONTINUOUS
10
110.39
20
-104.92
11
110.222
21
-104.92
0
LINE
8
BLACK
6
CONTINUOUS
10
110.222
20
-104.92
11
110.058
21
-104.887
0
LINE
8
BLACK
6
CONTINUOUS
10
110.058
20
-104.887
11
109.903
21
-104.823
0
LINE
8
BLACK
6
CONTINUOUS
10
109.903
20
-104.823
11
109.764
21
-104.73
0
LINE
8
BLACK
6
CONTINUOUS
10
109.764
20
-104.73
11
109.646
21
-104.612
0
LINE
8
BLACK
6
CONTINUOUS
10
109.646
20
-104.612
11
109.618
21
-104.57
0
LINE
8
BLACK
6
CONTINUOUS
10
109.618
20
-104.57
11
104.663
21
-104.57
0
LINE
8
BLACK
6
CONTINUOUS
10
104.663
20
-104.57
11
103.487
21
-105.746
0
LINE
8
BLACK
6
CONTINUOUS
10
103.487
20
-105.746
11
103.471
21
-105.765
0
LINE
8
BLACK
6
CONTINUOUS
10
103.471
20
-105.765
11
103.395
21
-105.828
0
LINE
8
BLACK
6
CONTINUOUS
10
103.395
20
-105.828
11
103.308
21
-105.874
0
LINE
8
BLACK
6
CONTINUOUS
10
103.308
20
-105.874
11
103.214
21
-105.903
0
LINE
8
BLACK
6
CONTINUOUS
10
103.214
20
-105.903
11
103.141
21
-105.91
0
LINE
8
BLACK
6
CONTINUOUS
10
103.141
20
-105.91
11
103.116
21
-105.912
0
LINE
8
BLACK
6
CONTINUOUS
10
103.116
20
-105.912
11
103.091
21
-105.91
0
LINE
8
BLACK
6
CONTINUOUS
10
103.091
20
-105.91
11
98.568
21
-105.91
0
LINE
8
BLACK
6
CONTINUOUS
10
98.568
20
-105.91
11
98.568
21
-104.91
0
LINE
8
BLACK
6
CONTINUOUS
10
98.568
20
-102.37
11
100.305
21
-102.37
0
LINE
8
BLACK
6
CONTINUOUS
10
100.305
20
-102.37
11
100.33
21
-102.368
0
LINE
8
BLACK
6
CONTINUOUS
10
100.33
20
-102.368
11
100.355
21
-102.37
0
LINE
8
BLACK
6
CONTINUOUS
10
100.355
20
-102.37
11
100.568
21
-102.37
0
LINE
8
BLACK
6
CONTINUOUS
10
100.568
20
-102.37
11
100.568
21
-102.43
0
LINE
8
BLACK
6
CONTINUOUS
10
100.568
20
-102.43
11
100.609
21
-102.452
0
LINE
8
BLACK
6
CONTINUOUS
10
100.609
20
-102.452
11
100.679
21
-102.51
0
LINE
8
BLACK
6
CONTINUOUS
10
100.679
20
-102.51
11
101.031
21
-102.51
0
LINE
8
BLACK
6
CONTINUOUS
10
101.031
20
-102.51
11
102.207
21
-101.334
0
LINE
8
BLACK
6
CONTINUOUS
10
102.207
20
-101.334
11
102.222
21
-101.315
0
LINE
8
BLACK
6
CONTINUOUS
10
102.222
20
-101.315
11
102.299
21
-101.252
0
LINE
8
BLACK
6
CONTINUOUS
10
102.299
20
-101.252
11
102.385
21
-101.206
0
LINE
8
BLACK
6
CONTINUOUS
10
102.385
20
-101.206
11
102.448
21
-101.187
0
LINE
8
BLACK
6
CONTINUOUS
10
102.448
20
-101.187
11
102.48
21
-101.177
0
LINE
8
BLACK
6
CONTINUOUS
10
102.48
20
-101.177
11
102.578
21
-101.168
0
LINE
8
BLACK
6
CONTINUOUS
10
102.578
20
-101.168
11
102.602
21
-101.17
0
LINE
8
BLACK
6
CONTINUOUS
10
102.602
20
-101.17
11
111.937
21
-101.17
0
LINE
8
BLACK
6
CONTINUOUS
10
111.937
20
-101.17
11
111.962
21
-101.168
0
LINE
8
BLACK
6
CONTINUOUS
10
111.962
20
-101.168
11
111.987
21
-101.17
0
LINE
8
BLACK
6
CONTINUOUS
10
111.987
20
-101.17
11
112.06
21
-101.177
0
LINE
8
BLACK
6
CONTINUOUS
10
112.06
20
-101.177
11
112.154
21
-101.206
0
LINE
8
BLACK
6
CONTINUOUS
10
112.154
20
-101.206
11
112.241
21
-101.252
0
LINE
8
BLACK
6
CONTINUOUS
10
112.241
20
-101.252
11
112.317
21
-101.315
0
LINE
8
BLACK
6
CONTINUOUS
10
112.317
20
-101.315
11
112.333
21
-101.334
0
LINE
8
BLACK
6
CONTINUOUS
10
112.333
20
-101.334
11
113.877
21
-102.878
0
LINE
8
BLACK
6
CONTINUOUS
10
113.877
20
-102.878
11
114.67
21
-102.878
0
LINE
8
BLACK
6
CONTINUOUS
10
114.67
20
-102.878
11
114.67
21
-102.478
0
LINE
8
BLACK
6
CONTINUOUS
10
114.67
20
-102.478
11
116.47
21
-102.478
0
LINE
8
BLACK
6
CONTINUOUS
10
116.47
20
-102.478
11
116.47
21
-104.278
0
LINE
8
BLACK
6
CONTINUOUS
10
116.47
20
-104.278
11
114.67
21
-104.278
0
LINE
8
BLACK
6
CONTINUOUS
10
114.67
20
-104.278
11
114.67
21
-103.878
0
LINE
8
BLACK
6
CONTINUOUS
10
114.67
20
-103.878
11
113.695
21
-103.878
0
LINE
8
BLACK
6
CONTINUOUS
10
113.695
20
-103.878
11
113.67
21
-103.88
0
LINE
8
BLACK
6
CONTINUOUS
10
113.67
20
-103.88
11
113.645
21
-103.878
0
LINE
8
BLACK
6
CONTINUOUS
10
113.645
20
-103.878
11
113.645
21
-103.878
0
LINE
8
BLACK
6
CONTINUOUS
10
113.645
20
-103.878
11
113.572
21
-103.871
0
LINE
8
BLACK
6
CONTINUOUS
10
113.572
20
-103.871
11
113.478
21
-103.842
0
LINE
8
BLACK
6
CONTINUOUS
10
113.478
20
-103.842
11
113.391
21
-103.796
0
LINE
8
BLACK
6
CONTINUOUS
10
113.391
20
-103.796
11
113.315
21
-103.733
0
LINE
8
BLACK
6
CONTINUOUS
10
113.315
20
-103.733
11
113.299
21
-103.714
0
LINE
8
BLACK
6
CONTINUOUS
10
113.299
20
-103.714
11
111.755
21
-102.17
0
LINE
8
BLACK
6
CONTINUOUS
10
111.755
20
-102.17
11
102.785
21
-102.17
0
LINE
8
BLACK
6
CONTINUOUS
10
102.785
20
-102.17
11
101.609
21
-103.346
0
LINE
8
BLACK
6
CONTINUOUS
10
101.609
20
-103.346
11
101.593
21
-103.365
0
LINE
8
BLACK
6
CONTINUOUS
10
101.593
20
-103.365
11
101.517
21
-103.428
0
LINE
8
BLACK
6
CONTINUOUS
10
101.517
20
-103.428
11
101.43
21
-103.474
0
LINE
8
BLACK
6
CONTINUOUS
10
101.43
20
-103.474
11
101.336
21
-103.503
0
LINE
8
BLACK
6
CONTINUOUS
10
101.336
20
-103.503
11
101.262
21
-103.51
0
LINE
8
BLACK
6
CONTINUOUS
10
101.262
20
-103.51
11
101.238
21
-103.512
0
LINE
8
BLACK
6
CONTINUOUS
10
101.238
20
-103.512
11
101.213
21
-103.51
0
LINE
8
BLACK
6
CONTINUOUS
10
101.213
20
-103.51
11
100.495
21
-103.51
0
LINE
8
BLACK
6
CONTINUOUS
10
100.495
20
-103.51
11
100.47
21
-103.512
0
LINE
8
BLACK
6
CONTINUOUS
10
100.47
20
-103.512
11
100.445
21
-103.51
0
LINE
8
BLACK
6
CONTINUOUS
10
100.445
20
-103.51
11
100.445
21
-103.51
0
LINE
8
BLACK
6
CONTINUOUS
10
100.445
20
-103.51
11
100.372
21
-103.503
0
LINE
8
BLACK
6
CONTINUOUS
10
100.372
20
-103.503
11
100.278
21
-103.474
0
LINE
8
BLACK
6
CONTINUOUS
10
100.278
20
-103.474
11
100.191
21
-103.428
0
LINE
8
BLACK
6
CONTINUOUS
10
100.191
20
-103.428
11
100.121
21
-103.37
0
LINE
8
BLACK
6
CONTINUOUS
10
100.121
20
-103.37
11
98.568
21
-103.37
0
LINE
8
BLACK
6
CONTINUOUS
10
98.568
20
-103.37
11
98.568
21
-102.37
0
LINE
8
BLACK
6
CONTINUOUS
10
108.188
20
-95.1843
11
109.257
21
-96.2533
0
LINE
8
BLACK
6
CONTINUOUS
10
109.257
20
-96.2533
11
109.272
21
-96.2658
0
LINE
8
BLACK
6
CONTINUOUS
10
109.272
20
-96.2658
11
109.285
21
-96.281
0
LINE
8
BLACK
6
CONTINUOUS
10
109.285
20
-96.281
11
109.322
21
-96.3267
0
LINE
8
BLACK
6
CONTINUOUS
10
109.322
20
-96.3267
11
109.359
21
-96.3962
0
LINE
8
BLACK
6
CONTINUOUS
10
109.359
20
-96.3962
11
109.382
21
-96.4716
0
LINE
8
BLACK
6
CONTINUOUS
10
109.382
20
-96.4716
11
109.39
21
-96.55
0
LINE
8
BLACK
6
CONTINUOUS
10
109.39
20
-96.55
11
109.388
21
-96.5696
0
LINE
8
BLACK
6
CONTINUOUS
10
109.388
20
-96.5696
11
109.388
21
-98.5504
0
LINE
8
BLACK
6
CONTINUOUS
10
109.388
20
-98.5504
11
109.39
21
-98.57
0
LINE
8
BLACK
6
CONTINUOUS
10
109.39
20
-98.57
11
109.382
21
-98.6484
0
LINE
8
BLACK
6
CONTINUOUS
10
109.382
20
-98.6484
11
109.359
21
-98.7238
0
LINE
8
BLACK
6
CONTINUOUS
10
109.359
20
-98.7238
11
109.335
21
-98.7687
0
LINE
8
BLACK
6
CONTINUOUS
10
109.335
20
-98.7687
11
109.322
21
-98.7933
0
LINE
8
BLACK
6
CONTINUOUS
10
109.322
20
-98.7933
11
109.272
21
-98.8542
0
LINE
8
BLACK
6
CONTINUOUS
10
109.272
20
-98.8542
11
109.257
21
-98.8667
0
LINE
8
BLACK
6
CONTINUOUS
10
109.257
20
-98.8667
11
108.965
21
-99.1589
0
LINE
8
BLACK
6
CONTINUOUS
10
108.965
20
-99.1589
11
108.952
21
-99.1742
0
LINE
8
BLACK
6
CONTINUOUS
10
108.952
20
-99.1742
11
108.891
21
-99.2242
0
LINE
8
BLACK
6
CONTINUOUS
10
108.891
20
-99.2242
11
108.822
21
-99.2613
0
LINE
8
BLACK
6
CONTINUOUS
10
108.822
20
-99.2613
11
108.746
21
-99.2842
0
LINE
8
BLACK
6
CONTINUOUS
10
108.746
20
-99.2842
11
108.688
21
-99.29
0
LINE
8
BLACK
6
CONTINUOUS
10
108.688
20
-99.29
11
108.688
21
-99.29
0
LINE
8
BLACK
6
CONTINUOUS
10
108.688
20
-99.29
11
108.668
21
-99.2919
0
LINE
8
BLACK
6
CONTINUOUS
10
108.668
20
-99.2919
11
108.648
21
-99.29
0
LINE
8
BLACK
6
CONTINUOUS
10
108.648
20
-99.29
11
103.968
21
-99.29
0
LINE
8
BLACK
6
CONTINUOUS
10
103.968
20
-99.29
11
101.219
21
-102.039
0
LINE
8
BLACK
6
CONTINUOUS
10
101.219
20
-102.039
11
101.206
21
-102.054
0
LINE
8
BLACK
6
CONTINUOUS
10
101.206
20
-102.054
11
101.145
21
-102.104
0
LINE
8
BLACK
6
CONTINUOUS
10
101.145
20
-102.104
11
101.076
21
-102.141
0
LINE
8
BLACK
6
CONTINUOUS
10
101.076
20
-102.141
11
101
21
-102.164
0
LINE
8
BLACK
6
CONTINUOUS
10
101
20
-102.164
11
100.942
21
-102.17
0
LINE
8
BLACK
6
CONTINUOUS
10
100.942
20
-102.17
11
100.942
21
-102.17
0
LINE
8
BLACK
6
CONTINUOUS
10
100.942
20
-102.17
11
100.922
21
-102.172
0
LINE
8
BLACK
6
CONTINUOUS
10
100.922
20
-102.172
11
100.902
21
-102.17
0
LINE
8
BLACK
6
CONTINUOUS
10
100.902
20
-102.17
11
96.3548
21
-102.17
0
LINE
8
BLACK
6
CONTINUOUS
10
96.3548
20
-102.17
11
96.3493
21
-102.226
0
LINE
8
BLACK
6
CONTINUOUS
10
96.3493
20
-102.226
11
96.315
21
-102.339
0
LINE
8
BLACK
6
CONTINUOUS
10
96.315
20
-102.339
11
96.2593
21
-102.443
0
LINE
8
BLACK
6
CONTINUOUS
10
96.2593
20
-102.443
11
96.1843
21
-102.534
0
LINE
8
BLACK
6
CONTINUOUS
10
96.1843
20
-102.534
11
96.093
21
-102.609
0
LINE
8
BLACK
6
CONTINUOUS
10
96.093
20
-102.609
11
95.9887
21
-102.665
0
LINE
8
BLACK
6
CONTINUOUS
10
95.9887
20
-102.665
11
95.8756
21
-102.699
0
LINE
8
BLACK
6
CONTINUOUS
10
95.8756
20
-102.699
11
95.7875
21
-102.708
0
LINE
8
BLACK
6
CONTINUOUS
10
95.7875
20
-102.708
11
94.6745
21
-102.708
0
LINE
8
BLACK
6
CONTINUOUS
10
94.6745
20
-102.708
11
93.8551
21
-103.527
0
LINE
8
BLACK
6
CONTINUOUS
10
93.8551
20
-103.527
11
93.8363
21
-103.55
0
LINE
8
BLACK
6
CONTINUOUS
10
93.8363
20
-103.55
11
93.745
21
-103.625
0
LINE
8
BLACK
6
CONTINUOUS
10
93.745
20
-103.625
11
93.6407
21
-103.681
0
LINE
8
BLACK
6
CONTINUOUS
10
93.6407
20
-103.681
11
93.61
21
-103.69
0
LINE
8
BLACK
6
CONTINUOUS
10
93.61
20
-103.69
11
93.61
21
-104.024
0
LINE
8
BLACK
6
CONTINUOUS
10
93.61
20
-104.024
11
91.81
21
-104.024
0
LINE
8
BLACK
6
CONTINUOUS
10
91.81
20
-104.024
11
91.81
21
-102.224
0
LINE
8
BLACK
6
CONTINUOUS
10
91.81
20
-102.224
11
93.4615
21
-102.224
0
LINE
8
BLACK
6
CONTINUOUS
10
93.4615
20
-102.224
11
93.9809
21
-101.705
0
LINE
8
BLACK
6
CONTINUOUS
10
93.9809
20
-101.705
11
93.9997
21
-101.682
0
LINE
8
BLACK
6
CONTINUOUS
10
93.9997
20
-101.682
11
94.091
21
-101.607
0
LINE
8
BLACK
6
CONTINUOUS
10
94.091
20
-101.607
11
94.1953
21
-101.551
0
LINE
8
BLACK
6
CONTINUOUS
10
94.1953
20
-101.551
11
94.3084
21
-101.517
0
LINE
8
BLACK
6
CONTINUOUS
10
94.3084
20
-101.517
11
94.3965
21
-101.508
0
LINE
8
BLACK
6
CONTINUOUS
10
94.3965
20
-101.508
11
94.426
21
-101.505
0
LINE
8
BLACK
6
CONTINUOUS
10
94.426
20
-101.505
11
94.4555
21
-101.508
0
LINE
8
BLACK
6
CONTINUOUS
10
94.4555
20
-101.508
11
95.7875
21
-101.508
0
LINE
8
BLACK
6
CONTINUOUS
10
95.7875
20
-101.508
11
95.7919
21
-101.508
0
LINE
8
BLACK
6
CONTINUOUS
10
95.7919
20
-101.508
11
95.7993
21
-101.501
0
LINE
8
BLACK
6
CONTINUOUS
10
95.7993
20
-101.501
11
95.8118
21
-101.486
0
LINE
8
BLACK
6
CONTINUOUS
10
95.8118
20
-101.486
11
95.8727
21
-101.436
0
LINE
8
BLACK
6
CONTINUOUS
10
95.8727
20
-101.436
11
95.9422
21
-101.399
0
LINE
8
BLACK
6
CONTINUOUS
10
95.9422
20
-101.399
11
96.0176
21
-101.376
0
LINE
8
BLACK
6
CONTINUOUS
10
96.0176
20
-101.376
11
96.0764
21
-101.37
0
LINE
8
BLACK
6
CONTINUOUS
10
96.0764
20
-101.37
11
96.096
21
-101.368
0
LINE
8
BLACK
6
CONTINUOUS
10
96.096
20
-101.368
11
96.1156
21
-101.37
0
LINE
8
BLACK
6
CONTINUOUS
10
96.1156
20
-101.37
11
100.756
21
-101.37
0
LINE
8
BLACK
6
CONTINUOUS
10
100.756
20
-101.37
11
103.505
21
-98.621
0
LINE
8
BLACK
6
CONTINUOUS
10
103.505
20
-98.621
11
103.518
21
-98.6058
0
LINE
8
BLACK
6
CONTINUOUS
10
103.518
20
-98.6058
11
103.533
21
-98.5933
0
LINE
8
BLACK
6
CONTINUOUS
10
103.533
20
-98.5933
11
103.533
21
-98.5933
0
LINE
8
BLACK
6
CONTINUOUS
10
103.533
20
-98.5933
11
103.579
21
-98.5558
0
LINE
8
BLACK
6
CONTINUOUS
10
103.579
20
-98.5558
11
103.579
21
-98.5558
0
LINE
8
BLACK
6
CONTINUOUS
10
103.579
20
-98.5558
11
103.579
21
-98.5558
0
LINE
8
BLACK
6
CONTINUOUS
10
103.579
20
-98.5558
11
103.648
21
-98.5187
0
LINE
8
BLACK
6
CONTINUOUS
10
103.648
20
-98.5187
11
103.724
21
-98.4958
0
LINE
8
BLACK
6
CONTINUOUS
10
103.724
20
-98.4958
11
103.782
21
-98.49
0
LINE
8
BLACK
6
CONTINUOUS
10
103.782
20
-98.49
11
103.782
21
-98.49
0
LINE
8
BLACK
6
CONTINUOUS
10
103.782
20
-98.49
11
103.802
21
-98.4881
0
LINE
8
BLACK
6
CONTINUOUS
10
103.802
20
-98.4881
11
103.822
21
-98.49
0
LINE
8
BLACK
6
CONTINUOUS
10
103.822
20
-98.49
11
108.502
21
-98.49
0
LINE
8
BLACK
6
CONTINUOUS
10
108.502
20
-98.49
11
108.588
21
-98.4043
0
LINE
8
BLACK
6
CONTINUOUS
10
108.588
20
-98.4043
11
108.588
21
-96.7157
0
LINE
8
BLACK
6
CONTINUOUS
10
108.588
20
-96.7157
11
107.622
21
-95.75
0
LINE
8
BLACK
6
CONTINUOUS
10
107.622
20
-95.75
11
106.188
21
-95.75
0
LINE
8
BLACK
6
CONTINUOUS
10
106.188
20
-95.75
11
106.188
21
-94.75
0
LINE
8
BLACK
6
CONTINUOUS
10
106.188
20
-94.75
11
108.188
21
-94.75
0
LINE
8
BLACK
6
CONTINUOUS
10
108.188
20
-94.75
11
108.188
21
-95.1843
0
LINE
8
BLACK
6
CONTINUOUS
10
105.152
20
-96.6809
11
105.133
21
-96.6653
0
LINE
8
BLACK
6
CONTINUOUS
10
105.133
20
-96.6653
11
105.07
21
-96.5891
0
LINE
8
BLACK
6
CONTINUOUS
10
105.07
20
-96.5891
11
105.024
21
-96.5023
0
LINE
8
BLACK
6
CONTINUOUS
10
105.024
20
-96.5023
11
104.995
21
-96.408
0
LINE
8
BLACK
6
CONTINUOUS
10
104.995
20
-96.408
11
104.988
21
-96.3346
0
LINE
8
BLACK
6
CONTINUOUS
10
104.988
20
-96.3346
11
104.986
21
-96.31
0
LINE
8
BLACK
6
CONTINUOUS
10
104.986
20
-96.31
11
104.988
21
-96.2854
0
LINE
8
BLACK
6
CONTINUOUS
10
104.988
20
-96.2854
11
104.988
21
-94.2146
0
LINE
8
BLACK
6
CONTINUOUS
10
104.988
20
-94.2146
11
104.986
21
-94.19
0
LINE
8
BLACK
6
CONTINUOUS
10
104.986
20
-94.19
11
104.995
21
-94.092
0
LINE
8
BLACK
6
CONTINUOUS
10
104.995
20
-94.092
11
105.024
21
-93.9977
0
LINE
8
BLACK
6
CONTINUOUS
10
105.024
20
-93.9977
11
105.048
21
-93.952
0
LINE
8
BLACK
6
CONTINUOUS
10
105.048
20
-93.952
11
105.07
21
-93.9109
0
LINE
8
BLACK
6
CONTINUOUS
10
105.07
20
-93.9109
11
105.133
21
-93.8347
0
LINE
8
BLACK
6
CONTINUOUS
10
105.133
20
-93.8347
11
105.152
21
-93.8191
0
LINE
8
BLACK
6
CONTINUOUS
10
105.152
20
-93.8191
11
105.257
21
-93.7138
0
LINE
8
BLACK
6
CONTINUOUS
10
105.257
20
-93.7138
11
105.273
21
-93.6947
0
LINE
8
BLACK
6
CONTINUOUS
10
105.273
20
-93.6947
11
105.349
21
-93.6323
0
LINE
8
BLACK
6
CONTINUOUS
10
105.349
20
-93.6323
11
105.436
21
-93.5858
0
LINE
8
BLACK
6
CONTINUOUS
10
105.436
20
-93.5858
11
105.53
21
-93.5572
0
LINE
8
BLACK
6
CONTINUOUS
10
105.53
20
-93.5572
11
105.603
21
-93.55
0
LINE
8
BLACK
6
CONTINUOUS
10
105.603
20
-93.55
11
105.628
21
-93.5476
0
LINE
8
BLACK
6
CONTINUOUS
10
105.628
20
-93.5476
11
105.653
21
-93.55
0
LINE
8
BLACK
6
CONTINUOUS
10
105.653
20
-93.55
11
108.723
21
-93.55
0
LINE
8
BLACK
6
CONTINUOUS
10
108.723
20
-93.55
11
108.748
21
-93.5476
0
LINE
8
BLACK
6
CONTINUOUS
10
108.748
20
-93.5476
11
108.773
21
-93.55
0
LINE
8
BLACK
6
CONTINUOUS
10
108.773
20
-93.55
11
108.846
21
-93.5572
0
LINE
8
BLACK
6
CONTINUOUS
10
108.846
20
-93.5572
11
108.94
21
-93.5858
0
LINE
8
BLACK
6
CONTINUOUS
10
108.94
20
-93.5858
11
109.027
21
-93.6323
0
LINE
8
BLACK
6
CONTINUOUS
10
109.027
20
-93.6323
11
109.103
21
-93.6947
0
LINE
8
BLACK
6
CONTINUOUS
10
109.103
20
-93.6947
11
109.119
21
-93.7138
0
LINE
8
BLACK
6
CONTINUOUS
10
109.119
20
-93.7138
11
110.424
21
-95.0191
0
LINE
8
BLACK
6
CONTINUOUS
10
110.424
20
-95.0191
11
110.443
21
-95.0347
0
LINE
8
BLACK
6
CONTINUOUS
10
110.443
20
-95.0347
11
110.506
21
-95.1109
0
LINE
8
BLACK
6
CONTINUOUS
10
110.506
20
-95.1109
11
110.552
21
-95.1977
0
LINE
8
BLACK
6
CONTINUOUS
10
110.552
20
-95.1977
11
110.568
21
-95.25
0
LINE
8
BLACK
6
CONTINUOUS
10
110.568
20
-95.25
11
110.581
21
-95.292
0
LINE
8
BLACK
6
CONTINUOUS
10
110.581
20
-95.292
11
110.59
21
-95.39
0
LINE
8
BLACK
6
CONTINUOUS
10
110.59
20
-95.39
11
110.588
21
-95.4146
0
LINE
8
BLACK
6
CONTINUOUS
10
110.588
20
-95.4146
11
110.588
21
-99.4054
0
LINE
8
BLACK
6
CONTINUOUS
10
110.588
20
-99.4054
11
110.59
21
-99.43
0
LINE
8
BLACK
6
CONTINUOUS
10
110.59
20
-99.43
11
110.59
21
-99.433
0
LINE
8
BLACK
6
CONTINUOUS
10
110.59
20
-99.433
11
114.12
21
-99.433
0
LINE
8
BLACK
6
CONTINUOUS
10
114.12
20
-99.433
11
114.145
21
-99.4306
0
LINE
8
BLACK
6
CONTINUOUS
10
114.145
20
-99.4306
11
114.17
21
-99.433
0
LINE
8
BLACK
6
CONTINUOUS
10
114.17
20
-99.433
11
114.243
21
-99.4402
0
LINE
8
BLACK
6
CONTINUOUS
10
114.243
20
-99.4402
11
114.337
21
-99.4688
0
LINE
8
BLACK
6
CONTINUOUS
10
114.337
20
-99.4688
11
114.424
21
-99.5153
0
LINE
8
BLACK
6
CONTINUOUS
10
114.424
20
-99.5153
11
114.5
21
-99.5777
0
LINE
8
BLACK
6
CONTINUOUS
10
114.5
20
-99.5777
11
114.516
21
-99.5968
0
LINE
8
BLACK
6
CONTINUOUS
10
114.516
20
-99.5968
11
114.857
21
-99.938
0
LINE
8
BLACK
6
CONTINUOUS
10
114.857
20
-99.938
11
116.47
21
-99.938
0
LINE
8
BLACK
6
CONTINUOUS
10
116.47
20
-99.938
11
116.47
21
-101.738
0
LINE
8
BLACK
6
CONTINUOUS
10
116.47
20
-101.738
11
114.67
21
-101.738
0
LINE
8
BLACK
6
CONTINUOUS
10
114.67
20
-101.738
11
114.67
21
-101.165
0
LINE
8
BLACK
6
CONTINUOUS
10
114.67
20
-101.165
11
113.938
21
-100.433
0
LINE
8
BLACK
6
CONTINUOUS
10
113.938
20
-100.433
11
109.792
21
-100.433
0
LINE
8
BLACK
6
CONTINUOUS
10
109.792
20
-100.433
11
109.559
21
-100.666
0
LINE
8
BLACK
6
CONTINUOUS
10
109.559
20
-100.666
11
109.543
21
-100.685
0
LINE
8
BLACK
6
CONTINUOUS
10
109.543
20
-100.685
11
109.467
21
-100.748
0
LINE
8
BLACK
6
CONTINUOUS
10
109.467
20
-100.748
11
109.38
21
-100.794
0
LINE
8
BLACK
6
CONTINUOUS
10
109.38
20
-100.794
11
109.286
21
-100.823
0
LINE
8
BLACK
6
CONTINUOUS
10
109.286
20
-100.823
11
109.213
21
-100.83
0
LINE
8
BLACK
6
CONTINUOUS
10
109.213
20
-100.83
11
109.188
21
-100.832
0
LINE
8
BLACK
6
CONTINUOUS
10
109.188
20
-100.832
11
109.163
21
-100.83
0
LINE
8
BLACK
6
CONTINUOUS
10
109.163
20
-100.83
11
106.188
21
-100.83
0
LINE
8
BLACK
6
CONTINUOUS
10
106.188
20
-100.83
11
106.188
21
-99.83
0
LINE
8
BLACK
6
CONTINUOUS
10
106.188
20
-99.83
11
108.981
21
-99.83
0
LINE
8
BLACK
6
CONTINUOUS
10
108.981
20
-99.83
11
109.214
21
-99.5968
0
LINE
8
BLACK
6
CONTINUOUS
10
109.214
20
-99.5968
11
109.23
21
-99.5777
0
LINE
8
BLACK
6
CONTINUOUS
10
109.23
20
-99.5777
11
109.249
21
-99.5621
0
LINE
8
BLACK
6
CONTINUOUS
10
109.249
20
-99.5621
11
109.588
21
-99.2229
0
LINE
8
BLACK
6
CONTINUOUS
10
109.588
20
-99.2229
11
109.588
21
-95.5971
0
LINE
8
BLACK
6
CONTINUOUS
10
109.588
20
-95.5971
11
108.541
21
-94.55
0
LINE
8
BLACK
6
CONTINUOUS
10
108.541
20
-94.55
11
105.988
21
-94.55
0
LINE
8
BLACK
6
CONTINUOUS
10
105.988
20
-94.55
11
105.988
21
-96.1029
0
LINE
8
BLACK
6
CONTINUOUS
10
105.988
20
-96.1029
11
107.175
21
-97.29
0
LINE
8
BLACK
6
CONTINUOUS
10
107.175
20
-97.29
11
108.188
21
-97.29
0
LINE
8
BLACK
6
CONTINUOUS
10
108.188
20
-97.29
11
108.188
21
-98.29
0
LINE
8
BLACK
6
CONTINUOUS
10
108.188
20
-98.29
11
106.993
21
-98.29
0
LINE
8
BLACK
6
CONTINUOUS
10
106.993
20
-98.29
11
106.968
21
-98.2924
0
LINE
8
BLACK
6
CONTINUOUS
10
106.968
20
-98.2924
11
106.943
21
-98.29
0
LINE
8
BLACK
6
CONTINUOUS
10
106.943
20
-98.29
11
100.168
21
-98.29
0
LINE
8
BLACK
6
CONTINUOUS
10
100.168
20
-98.29
11
100.168
21
-99.83
0
LINE
8
BLACK
6
CONTINUOUS
10
100.168
20
-99.83
11
100.568
21
-99.83
0
LINE
8
BLACK
6
CONTINUOUS
10
100.568
20
-99.83
11
100.568
21
-100.83
0
LINE
8
BLACK
6
CONTINUOUS
10
100.568
20
-100.83
11
99.9045
21
-100.83
0
LINE
8
BLACK
6
CONTINUOUS
10
99.9045
20
-100.83
11
99.903
21
-100.831
0
LINE
8
BLACK
6
CONTINUOUS
10
99.903
20
-100.831
11
99.7987
21
-100.887
0
LINE
8
BLACK
6
CONTINUOUS
10
99.7987
20
-100.887
11
99.6856
21
-100.921
0
LINE
8
BLACK
6
CONTINUOUS
10
99.6856
20
-100.921
11
99.568
21
-100.933
0
LINE
8
BLACK
6
CONTINUOUS
10
99.568
20
-100.933
11
99.5385
21
-100.93
0
LINE
8
BLACK
6
CONTINUOUS
10
99.5385
20
-100.93
11
93.61
21
-100.93
0
LINE
8
BLACK
6
CONTINUOUS
10
93.61
20
-100.93
11
93.61
21
-101.484
0
LINE
8
BLACK
6
CONTINUOUS
10
93.61
20
-101.484
11
91.81
21
-101.484
0
LINE
8
BLACK
6
CONTINUOUS
10
91.81
20
-101.484
11
91.81
21
-99.684
0
LINE
8
BLACK
6
CONTINUOUS
10
91.81
20
-99.684
11
93.61
21
-99.684
0
LINE
8
BLACK
6
CONTINUOUS
10
93.61
20
-99.684
11
93.61
21
-99.73
0
LINE
8
BLACK
6
CONTINUOUS
10
93.61
20
-99.73
11
95.3969
21
-99.73
0
LINE
8
BLACK
6
CONTINUOUS
10
95.3969
20
-99.73
11
96.21
21
-98.9169
0
LINE
8
BLACK
6
CONTINUOUS
10
96.21
20
-98.9169
11
96.21
21
-92.0365
0
LINE
8
BLACK
6
CONTINUOUS
10
96.21
20
-92.0365
11
96.2076
21
-92.012
0
LINE
8
BLACK
6
CONTINUOUS
10
96.2076
20
-92.012
11
96.2173
21
-91.914
0
LINE
8
BLACK
6
CONTINUOUS
10
96.2173
20
-91.914
11
96.2343
21
-91.8577
0
LINE
8
BLACK
6
CONTINUOUS
10
96.2343
20
-91.8577
11
96.2458
21
-91.8197
0
LINE
8
BLACK
6
CONTINUOUS
10
96.2458
20
-91.8197
11
96.2923
21
-91.7328
0
LINE
8
BLACK
6
CONTINUOUS
10
96.2923
20
-91.7328
11
96.3548
21
-91.6567
0
LINE
8
BLACK
6
CONTINUOUS
10
96.3548
20
-91.6567
11
96.3738
21
-91.641
0
LINE
8
BLACK
6
CONTINUOUS
10
96.3738
20
-91.641
11
96.9111
21
-91.1038
0
LINE
8
BLACK
6
CONTINUOUS
10
96.9111
20
-91.1038
11
96.9267
21
-91.0847
0
LINE
8
BLACK
6
CONTINUOUS
10
96.9267
20
-91.0847
11
97.0029
21
-91.0223
0
LINE
8
BLACK
6
CONTINUOUS
10
97.0029
20
-91.0223
11
97.0897
21
-90.9758
0
LINE
8
BLACK
6
CONTINUOUS
10
97.0897
20
-90.9758
11
97.184
21
-90.9472
0
LINE
8
BLACK
6
CONTINUOUS
10
97.184
20
-90.9472
11
97.2574
21
-90.94
0
LINE
8
BLACK
6
CONTINUOUS
10
97.2574
20
-90.94
11
97.2574
21
-90.94
0
LINE
8
BLACK
6
CONTINUOUS
10
97.2574
20
-90.94
11
97.282
21
-90.9376
0
LINE
8
BLACK
6
CONTINUOUS
10
97.282
20
-90.9376
11
97.3065
21
-90.94
0
LINE
8
BLACK
6
CONTINUOUS
10
97.3065
20
-90.94
11
100.846
21
-90.94
0
LINE
8
BLACK
6
CONTINUOUS
10
100.846
20
-90.94
11
100.846
21
-85.99
0
LINE
8
BLACK
6
CONTINUOUS
10
100.846
20
-85.99
11
100.446
21
-85.99
0
LINE
8
BLACK
6
CONTINUOUS
10
100.446
20
-85.99
11
100.446
21
-85.49
0
LINE
8
BLACK
6
CONTINUOUS
10
100.446
20
-85.49
11
99.6656
21
-85.49
0
LINE
8
BLACK
6
CONTINUOUS
10
99.6656
20
-85.49
11
99.646
21
-85.4919
0
LINE
8
BLACK
6
CONTINUOUS
10
99.646
20
-85.4919
11
99.6264
21
-85.49
0
LINE
8
BLACK
6
CONTINUOUS
10
99.6264
20
-85.49
11
99.6264
21
-85.49
0
LINE
8
BLACK
6
CONTINUOUS
10
99.6264
20
-85.49
11
99.5676
21
-85.4842
0
LINE
8
BLACK
6
CONTINUOUS
10
99.5676
20
-85.4842
11
99.4922
21
-85.4613
0
LINE
8
BLACK
6
CONTINUOUS
10
99.4922
20
-85.4613
11
99.4227
21
-85.4242
0
LINE
8
BLACK
6
CONTINUOUS
10
99.4227
20
-85.4242
11
99.3618
21
-85.3742
0
LINE
8
BLACK
6
CONTINUOUS
10
99.3618
20
-85.3742
11
99.3493
21
-85.3589
0
LINE
8
BLACK
6
CONTINUOUS
10
99.3493
20
-85.3589
11
99.299
21
-85.3087
0
LINE
8
BLACK
6
CONTINUOUS
10
99.299
20
-85.3087
11
99.2838
21
-85.2962
0
LINE
8
BLACK
6
CONTINUOUS
10
99.2838
20
-85.2962
11
99.2713
21
-85.281
0
LINE
8
BLACK
6
CONTINUOUS
10
99.2713
20
-85.281
11
99.2713
21
-85.2809
0
LINE
8
BLACK
6
CONTINUOUS
10
99.2713
20
-85.2809
11
99.2338
21
-85.2353
0
LINE
8
BLACK
6
CONTINUOUS
10
99.2338
20
-85.2353
11
99.1967
21
-85.1658
0
LINE
8
BLACK
6
CONTINUOUS
10
99.1967
20
-85.1658
11
99.1738
21
-85.0904
0
LINE
8
BLACK
6
CONTINUOUS
10
99.1738
20
-85.0904
11
99.1661
21
-85.012
0
LINE
8
BLACK
6
CONTINUOUS
10
99.1661
20
-85.012
11
99.168
21
-84.9923
0
LINE
8
BLACK
6
CONTINUOUS
10
99.168
20
-84.9923
11
99.168
21
-78.778
0
LINE
8
BLACK
6
CONTINUOUS
10
99.168
20
-78.778
11
98.768
21
-78.778
0
LINE
8
BLACK
6
CONTINUOUS
10
98.768
20
-78.778
11
98.768
21
-77.178
0
LINE
8
BLACK
6
CONTINUOUS
10
98.768
20
-77.178
11
99.068
21
-77.178
0
LINE
8
BLACK
6
CONTINUOUS
10
99.068
20
-77.178
11
99.068
21
-73.1766
0
LINE
8
BLACK
6
CONTINUOUS
10
99.068
20
-73.1766
11
99.0656
21
-73.152
0
LINE
8
BLACK
6
CONTINUOUS
10
99.0656
20
-73.152
11
99.0752
21
-73.054
0
LINE
8
BLACK
6
CONTINUOUS
10
99.0752
20
-73.054
11
99.0839
21
-73.0254
0
LINE
8
BLACK
6
CONTINUOUS
10
99.0839
20
-73.0254
11
99.1038
21
-72.9597
0
LINE
8
BLACK
6
CONTINUOUS
10
99.1038
20
-72.9597
11
99.1503
21
-72.8729
0
LINE
8
BLACK
6
CONTINUOUS
10
99.1503
20
-72.8729
11
99.2127
21
-72.7967
0
LINE
8
BLACK
6
CONTINUOUS
10
99.2127
20
-72.7967
11
99.2318
21
-72.7811
0
LINE
8
BLACK
6
CONTINUOUS
10
99.2318
20
-72.7811
11
99.6309
21
-72.382
0
LINE
8
BLACK
6
CONTINUOUS
10
99.6309
20
-72.382
11
93.864
21
-72.382
0
LINE
8
BLACK
6
CONTINUOUS
10
93.864
20
-72.382
11
93.864
21
-72.782
0
LINE
8
BLACK
6
CONTINUOUS
10
93.864
20
-72.782
11
92.064
21
-72.782
0
LINE
8
BLACK
6
CONTINUOUS
10
92.064
20
-72.782
11
92.064
21
-70.982
0
LINE
8
BLACK
6
CONTINUOUS
10
92.064
20
-70.982
11
93.864
21
-70.982
0
LINE
8
BLACK
6
CONTINUOUS
10
93.864
20
-70.982
11
93.864
21
-71.382
0
LINE
8
BLACK
6
CONTINUOUS
10
93.864
20
-71.382
11
100.1
21
-71.382
0
LINE
8
BLACK
6
CONTINUOUS
10
100.1
20
-71.382
11
100.1
21
-69.62
0
LINE
8
BLACK
6
CONTINUOUS
10
100.1
20
-69.62
11
103.1
21
-69.62
0
LINE
8
BLACK
6
CONTINUOUS
10
103.1
20
-69.62
11
103.1
21
-72.62
0
LINE
8
BLACK
6
CONTINUOUS
10
103.1
20
-72.62
11
100.807
21
-72.62
0
LINE
8
BLACK
6
CONTINUOUS
10
100.807
20
-72.62
11
100.068
21
-73.3591
0
LINE
8
BLACK
6
CONTINUOUS
10
100.068
20
-73.3591
11
100.068
21
-77.178
0
LINE
8
BLACK
6
CONTINUOUS
10
100.068
20
-77.178
11
100.368
21
-77.178
0
LINE
8
BLACK
6
CONTINUOUS
10
100.368
20
-77.178
11
100.368
21
-78.778
0
LINE
8
BLACK
6
CONTINUOUS
10
100.368
20
-78.778
11
99.968
21
-78.778
0
LINE
8
BLACK
6
CONTINUOUS
10
99.968
20
-78.778
11
99.968
21
-84.69
0
LINE
8
BLACK
6
CONTINUOUS
10
99.968
20
-84.69
11
100.446
21
-84.69
0
LINE
8
BLACK
6
CONTINUOUS
10
100.446
20
-84.69
11
100.446
21
-84.19
0
LINE
8
BLACK
6
CONTINUOUS
10
100.446
20
-84.19
11
102.246
21
-84.19
0
LINE
8
BLACK
6
CONTINUOUS
10
102.246
20
-84.19
11
102.246
21
-85.99
0
LINE
8
BLACK
6
CONTINUOUS
10
102.246
20
-85.99
11
101.846
21
-85.99
0
LINE
8
BLACK
6
CONTINUOUS
10
101.846
20
-85.99
11
101.846
21
-91.1274
0
LINE
8
BLACK
6
CONTINUOUS
10
101.846
20
-91.1274
11
101.848
21
-91.152
0
LINE
8
BLACK
6
CONTINUOUS
10
101.848
20
-91.152
11
101.846
21
-91.1766
0
LINE
8
BLACK
6
CONTINUOUS
10
101.846
20
-91.1766
11
101.839
21
-91.25
0
LINE
8
BLACK
6
CONTINUOUS
10
101.839
20
-91.25
11
101.81
21
-91.3443
0
LINE
8
BLACK
6
CONTINUOUS
10
101.81
20
-91.3443
11
101.764
21
-91.4311
0
LINE
8
BLACK
6
CONTINUOUS
10
101.764
20
-91.4311
11
101.701
21
-91.5073
0
LINE
8
BLACK
6
CONTINUOUS
10
101.701
20
-91.5073
11
101.682
21
-91.5229
0
LINE
8
BLACK
6
CONTINUOUS
10
101.682
20
-91.5229
11
101.429
21
-91.7762
0
LINE
8
BLACK
6
CONTINUOUS
10
101.429
20
-91.7762
11
101.413
21
-91.7953
0
LINE
8
BLACK
6
CONTINUOUS
10
101.413
20
-91.7953
11
101.337
21
-91.8577
0
LINE
8
BLACK
6
CONTINUOUS
10
101.337
20
-91.8577
11
101.25
21
-91.9042
0
LINE
8
BLACK
6
CONTINUOUS
10
101.25
20
-91.9042
11
101.156
21
-91.9328
0
LINE
8
BLACK
6
CONTINUOUS
10
101.156
20
-91.9328
11
101.083
21
-91.94
0
LINE
8
BLACK
6
CONTINUOUS
10
101.083
20
-91.94
11
101.058
21
-91.9424
0
LINE
8
BLACK
6
CONTINUOUS
10
101.058
20
-91.9424
11
101.033
21
-91.94
0
LINE
8
BLACK
6
CONTINUOUS
10
101.033
20
-91.94
11
97.4891
21
-91.94
0
LINE
8
BLACK
6
CONTINUOUS
10
97.4891
20
-91.94
11
97.21
21
-92.2191
0
LINE
8
BLACK
6
CONTINUOUS
10
97.21
20
-92.2191
11
97.21
21
-99.0994
0
LINE
8
BLACK
6
CONTINUOUS
10
97.21
20
-99.0994
11
97.2124
21
-99.124
0
LINE
8
BLACK
6
CONTINUOUS
10
97.2124
20
-99.124
11
97.21
21
-99.1485
0
LINE
8
BLACK
6
CONTINUOUS
10
97.21
20
-99.1485
11
97.21
21
-99.1485
0
LINE
8
BLACK
6
CONTINUOUS
10
97.21
20
-99.1485
11
97.2028
21
-99.222
0
LINE
8
BLACK
6
CONTINUOUS
10
97.2028
20
-99.222
11
97.1742
21
-99.3162
0
LINE
8
BLACK
6
CONTINUOUS
10
97.1742
20
-99.3162
11
97.1278
21
-99.4031
0
LINE
8
BLACK
6
CONTINUOUS
10
97.1278
20
-99.4031
11
97.0653
21
-99.4792
0
LINE
8
BLACK
6
CONTINUOUS
10
97.0653
20
-99.4792
11
97.0462
21
-99.4949
0
LINE
8
BLACK
6
CONTINUOUS
10
97.0462
20
-99.4949
11
96.8111
21
-99.73
0
LINE
8
BLACK
6
CONTINUOUS
10
96.8111
20
-99.73
11
98.968
21
-99.73
0
LINE
8
BLACK
6
CONTINUOUS
10
98.968
20
-99.73
11
98.968
21
-98.29
0
LINE
8
BLACK
6
CONTINUOUS
10
98.968
20
-98.29
11
98.568
21
-98.29
0
LINE
8
BLACK
6
CONTINUOUS
10
98.568
20
-98.29
11
98.568
21
-97.29
0
LINE
8
BLACK
6
CONTINUOUS
10
98.568
20
-97.29
11
99.2315
21
-97.29
0
LINE
8
BLACK
6
CONTINUOUS
10
99.2315
20
-97.29
11
99.233
21
-97.2887
0
LINE
8
BLACK
6
CONTINUOUS
10
99.233
20
-97.2887
11
99.3373
21
-97.233
0
LINE
8
BLACK
6
CONTINUOUS
10
99.3373
20
-97.233
11
99.4504
21
-97.1987
0
LINE
8
BLACK
6
CONTINUOUS
10
99.4504
20
-97.1987
11
99.568
21
-97.1871
0
LINE
8
BLACK
6
CONTINUOUS
10
99.568
20
-97.1871
11
99.6856
21
-97.1987
0
LINE
8
BLACK
6
CONTINUOUS
10
99.6856
20
-97.1987
11
99.7987
21
-97.233
0
LINE
8
BLACK
6
CONTINUOUS
10
99.7987
20
-97.233
11
99.903
21
-97.2887
0
LINE
8
BLACK
6
CONTINUOUS
10
99.903
20
-97.2887
11
99.9045
21
-97.29
0
LINE
8
BLACK
6
CONTINUOUS
10
99.9045
20
-97.29
11
105.761
21
-97.29
0
LINE
8
BLACK
6
CONTINUOUS
10
105.761
20
-97.29
11
105.152
21
-96.6809
0
LINE
8
BLACK
6
CONTINUOUS
10
112.572
20
-67.2272
11
112.601
21
-67.2359
0
LINE
8
BLACK
6
CONTINUOUS
10
112.601
20
-67.2359
11
112.666
21
-67.2558
0
LINE
8
BLACK
6
CONTINUOUS
10
112.666
20
-67.2558
11
112.753
21
-67.3022
0
LINE
8
BLACK
6
CONTINUOUS
10
112.753
20
-67.3022
11
112.829
21
-67.3647
0
LINE
8
BLACK
6
CONTINUOUS
10
112.829
20
-67.3647
11
112.845
21
-67.3838
0
LINE
8
BLACK
6
CONTINUOUS
10
112.845
20
-67.3838
11
119.752
21
-74.291
0
LINE
8
BLACK
6
CONTINUOUS
10
119.752
20
-74.291
11
119.771
21
-74.3066
0
LINE
8
BLACK
6
CONTINUOUS
10
119.771
20
-74.3066
11
119.834
21
-74.3827
0
LINE
8
BLACK
6
CONTINUOUS
10
119.834
20
-74.3827
11
119.88
21
-74.4696
0
LINE
8
BLACK
6
CONTINUOUS
10
119.88
20
-74.4696
11
119.909
21
-74.5639
0
LINE
8
BLACK
6
CONTINUOUS
10
119.909
20
-74.5639
11
119.916
21
-74.6373
0
LINE
8
BLACK
6
CONTINUOUS
10
119.916
20
-74.6373
11
119.918
21
-74.6619
0
LINE
8
BLACK
6
CONTINUOUS
10
119.918
20
-74.6619
11
119.916
21
-74.6864
0
LINE
8
BLACK
6
CONTINUOUS
10
119.916
20
-74.6864
11
119.916
21
-93.8874
0
LINE
8
BLACK
6
CONTINUOUS
10
119.916
20
-93.8874
11
119.918
21
-93.912
0
LINE
8
BLACK
6
CONTINUOUS
10
119.918
20
-93.912
11
119.916
21
-93.9365
0
LINE
8
BLACK
6
CONTINUOUS
10
119.916
20
-93.9365
11
119.916
21
-93.9365
0
LINE
8
BLACK
6
CONTINUOUS
10
119.916
20
-93.9365
11
119.909
21
-94.01
0
LINE
8
BLACK
6
CONTINUOUS
10
119.909
20
-94.01
11
119.88
21
-94.1042
0
LINE
8
BLACK
6
CONTINUOUS
10
119.88
20
-94.1042
11
119.834
21
-94.1911
0
LINE
8
BLACK
6
CONTINUOUS
10
119.834
20
-94.1911
11
119.771
21
-94.2672
0
LINE
8
BLACK
6
CONTINUOUS
10
119.771
20
-94.2672
11
119.752
21
-94.2829
0
LINE
8
BLACK
6
CONTINUOUS
10
119.752
20
-94.2829
11
117.941
21
-96.0942
0
LINE
8
BLACK
6
CONTINUOUS
10
117.941
20
-96.0942
11
117.925
21
-96.1133
0
LINE
8
BLACK
6
CONTINUOUS
10
117.925
20
-96.1133
11
117.849
21
-96.1757
0
LINE
8
BLACK
6
CONTINUOUS
10
117.849
20
-96.1757
11
117.762
21
-96.2222
0
LINE
8
BLACK
6
CONTINUOUS
10
117.762
20
-96.2222
11
117.668
21
-96.2508
0
LINE
8
BLACK
6
CONTINUOUS
10
117.668
20
-96.2508
11
117.595
21
-96.258
0
LINE
8
BLACK
6
CONTINUOUS
10
117.595
20
-96.258
11
117.57
21
-96.2604
0
LINE
8
BLACK
6
CONTINUOUS
10
117.57
20
-96.2604
11
117.545
21
-96.258
0
LINE
8
BLACK
6
CONTINUOUS
10
117.545
20
-96.258
11
116.57
21
-96.258
0
LINE
8
BLACK
6
CONTINUOUS
10
116.57
20
-96.258
11
116.57
21
-96.758
0
LINE
8
BLACK
6
CONTINUOUS
10
116.57
20
-96.758
11
114.57
21
-96.758
0
LINE
8
BLACK
6
CONTINUOUS
10
114.57
20
-96.758
11
114.57
21
-94.758
0
LINE
8
BLACK
6
CONTINUOUS
10
114.57
20
-94.758
11
116.57
21
-94.758
0
LINE
8
BLACK
6
CONTINUOUS
10
116.57
20
-94.758
11
116.57
21
-95.258
0
LINE
8
BLACK
6
CONTINUOUS
10
116.57
20
-95.258
11
117.363
21
-95.258
0
LINE
8
BLACK
6
CONTINUOUS
10
117.363
20
-95.258
11
118.916
21
-93.7049
0
LINE
8
BLACK
6
CONTINUOUS
10
118.916
20
-93.7049
11
118.916
21
-74.869
0
LINE
8
BLACK
6
CONTINUOUS
10
118.916
20
-74.869
11
112.267
21
-68.22
0
LINE
8
BLACK
6
CONTINUOUS
10
112.267
20
-68.22
11
92.576
21
-68.22
0
LINE
8
BLACK
6
CONTINUOUS
10
92.576
20
-68.22
11
90.664
21
-70.132
0
LINE
8
BLACK
6
CONTINUOUS
10
90.664
20
-70.132
11
90.664
21
-78.3949
0
LINE
8
BLACK
6
CONTINUOUS
10
90.664
20
-78.3949
11
91.2711
21
-79.002
0
LINE
8
BLACK
6
CONTINUOUS
10
91.2711
20
-79.002
11
92.064
21
-79.002
0
LINE
8
BLACK
6
CONTINUOUS
10
92.064
20
-79.002
11
92.064
21
-78.602
0
LINE
8
BLACK
6
CONTINUOUS
10
92.064
20
-78.602
11
93.864
21
-78.602
0
LINE
8
BLACK
6
CONTINUOUS
10
93.864
20
-78.602
11
93.864
21
-80.402
0
LINE
8
BLACK
6
CONTINUOUS
10
93.864
20
-80.402
11
92.064
21
-80.402
0
LINE
8
BLACK
6
CONTINUOUS
10
92.064
20
-80.402
11
92.064
21
-80.002
0
LINE
8
BLACK
6
CONTINUOUS
10
92.064
20
-80.002
11
91.0885
21
-80.002
0
LINE
8
BLACK
6
CONTINUOUS
10
91.0885
20
-80.002
11
91.064
21
-80.0044
0
LINE
8
BLACK
6
CONTINUOUS
10
91.064
20
-80.0044
11
91.0394
21
-80.002
0
LINE
8
BLACK
6
CONTINUOUS
10
91.0394
20
-80.002
11
91.0394
21
-80.002
0
LINE
8
BLACK
6
CONTINUOUS
10
91.0394
20
-80.002
11
90.966
21
-79.9948
0
LINE
8
BLACK
6
CONTINUOUS
10
90.966
20
-79.9948
11
90.8717
21
-79.9662
0
LINE
8
BLACK
6
CONTINUOUS
10
90.8717
20
-79.9662
11
90.7849
21
-79.9197
0
LINE
8
BLACK
6
CONTINUOUS
10
90.7849
20
-79.9197
11
90.7087
21
-79.8573
0
LINE
8
BLACK
6
CONTINUOUS
10
90.7087
20
-79.8573
11
90.6931
21
-79.8382
0
LINE
8
BLACK
6
CONTINUOUS
10
90.6931
20
-79.8382
11
89.8278
21
-78.9729
0
LINE
8
BLACK
6
CONTINUOUS
10
89.8278
20
-78.9729
11
89.8087
21
-78.9573
0
LINE
8
BLACK
6
CONTINUOUS
10
89.8087
20
-78.9573
11
89.7462
21
-78.8811
0
LINE
8
BLACK
6
CONTINUOUS
10
89.7462
20
-78.8811
11
89.6998
21
-78.7943
0
LINE
8
BLACK
6
CONTINUOUS
10
89.6998
20
-78.7943
11
89.6712
21
-78.7
0
LINE
8
BLACK
6
CONTINUOUS
10
89.6712
20
-78.7
11
89.6616
21
-78.602
0
LINE
8
BLACK
6
CONTINUOUS
10
89.6616
20
-78.602
11
89.664
21
-78.5774
0
LINE
8
BLACK
6
CONTINUOUS
10
89.664
20
-78.5774
11
89.664
21
-69.9495
0
LINE
8
BLACK
6
CONTINUOUS
10
89.664
20
-69.9495
11
89.6616
21
-69.9249
0
LINE
8
BLACK
6
CONTINUOUS
10
89.6616
20
-69.9249
11
89.6712
21
-69.8269
0
LINE
8
BLACK
6
CONTINUOUS
10
89.6712
20
-69.8269
11
89.6822
21
-69.7907
0
LINE
8
BLACK
6
CONTINUOUS
10
89.6822
20
-69.7907
11
89.6998
21
-69.7327
0
LINE
8
BLACK
6
CONTINUOUS
10
89.6998
20
-69.7327
11
89.7462
21
-69.6458
0
LINE
8
BLACK
6
CONTINUOUS
10
89.7462
20
-69.6458
11
89.8087
21
-69.5697
0
LINE
8
BLACK
6
CONTINUOUS
10
89.8087
20
-69.5697
11
89.8278
21
-69.554
0
LINE
8
BLACK
6
CONTINUOUS
10
89.8278
20
-69.554
11
91.998
21
-67.3838
0
LINE
8
BLACK
6
CONTINUOUS
10
91.998
20
-67.3838
11
92.0137
21
-67.3647
0
LINE
8
BLACK
6
CONTINUOUS
10
92.0137
20
-67.3647
11
92.0327
21
-67.3491
0
LINE
8
BLACK
6
CONTINUOUS
10
92.0327
20
-67.3491
11
92.0327
21
-67.3491
0
LINE
8
BLACK
6
CONTINUOUS
10
92.0327
20
-67.3491
11
92.0898
21
-67.3022
0
LINE
8
BLACK
6
CONTINUOUS
10
92.0898
20
-67.3022
11
92.1767
21
-67.2558
0
LINE
8
BLACK
6
CONTINUOUS
10
92.1767
20
-67.2558
11
92.2709
21
-67.2272
0
LINE
8
BLACK
6
CONTINUOUS
10
92.2709
20
-67.2272
11
92.3689
21
-67.2176
0
LINE
8
BLACK
6
CONTINUOUS
10
92.3689
20
-67.2176
11
92.3935
21
-67.22
0
LINE
8
BLACK
6
CONTINUOUS
10
92.3935
20
-67.22
11
112.45
21
-67.22
0
LINE
8
BLACK
6
CONTINUOUS
10
112.45
20
-67.22
11
112.474
21
-67.2176
0
LINE
8
BLACK
6
CONTINUOUS
10
112.474
20
-67.2176
11
112.572
21
-67.2272
0
LINE
8
BLACK
6
CONTINUOUS
10
93.864
20
-85.482
11
93.464
21
-85.482
0
LINE
8
BLACK
6
CONTINUOUS
10
93.464
20
-85.482
11
93.464
21
-86.2749
0
LINE
8
BLACK
6
CONTINUOUS
10
93.464
20
-86.2749
11
94.6462
21
-87.4571
0
LINE
8
BLACK
6
CONTINUOUS
10
94.6462
20
-87.4571
11
94.6653
21
-87.4727
0
LINE
8
BLACK
6
CONTINUOUS
10
94.6653
20
-87.4727
11
94.7277
21
-87.5489
0
LINE
8
BLACK
6
CONTINUOUS
10
94.7277
20
-87.5489
11
94.7742
21
-87.6357
0
LINE
8
BLACK
6
CONTINUOUS
10
94.7742
20
-87.6357
11
94.7742
21
-87.6357
0
LINE
8
BLACK
6
CONTINUOUS
10
94.7742
20
-87.6357
11
94.8028
21
-87.73
0
LINE
8
BLACK
6
CONTINUOUS
10
94.8028
20
-87.73
11
94.8124
21
-87.828
0
LINE
8
BLACK
6
CONTINUOUS
10
94.8124
20
-87.828
11
94.81
21
-87.8526
0
LINE
8
BLACK
6
CONTINUOUS
10
94.81
20
-87.8526
11
94.81
21
-94.3994
0
LINE
8
BLACK
6
CONTINUOUS
10
94.81
20
-94.3994
11
94.8124
21
-94.424
0
LINE
8
BLACK
6
CONTINUOUS
10
94.8124
20
-94.424
11
94.81
21
-94.4486
0
LINE
8
BLACK
6
CONTINUOUS
10
94.81
20
-94.4486
11
94.81
21
-94.4486
0
LINE
8
BLACK
6
CONTINUOUS
10
94.81
20
-94.4486
11
94.8028
21
-94.522
0
LINE
8
BLACK
6
CONTINUOUS
10
94.8028
20
-94.522
11
94.7742
21
-94.6163
0
LINE
8
BLACK
6
CONTINUOUS
10
94.7742
20
-94.6163
11
94.7277
21
-94.7031
0
LINE
8
BLACK
6
CONTINUOUS
10
94.7277
20
-94.7031
11
94.6653
21
-94.7793
0
LINE
8
BLACK
6
CONTINUOUS
10
94.6653
20
-94.7793
11
94.6462
21
-94.7949
0
LINE
8
BLACK
6
CONTINUOUS
10
94.6462
20
-94.7949
11
93.61
21
-95.8311
0
LINE
8
BLACK
6
CONTINUOUS
10
93.61
20
-95.8311
11
93.61
21
-96.404
0
LINE
8
BLACK
6
CONTINUOUS
10
93.61
20
-96.404
11
91.81
21
-96.404
0
LINE
8
BLACK
6
CONTINUOUS
10
91.81
20
-96.404
11
91.81
21
-94.604
0
LINE
8
BLACK
6
CONTINUOUS
10
91.81
20
-94.604
11
93.4229
21
-94.604
0
LINE
8
BLACK
6
CONTINUOUS
10
93.4229
20
-94.604
11
93.81
21
-94.2169
0
LINE
8
BLACK
6
CONTINUOUS
10
93.81
20
-94.2169
11
93.81
21
-88.0351
0
LINE
8
BLACK
6
CONTINUOUS
10
93.81
20
-88.0351
11
92.6278
21
-86.8529
0
LINE
8
BLACK
6
CONTINUOUS
10
92.6278
20
-86.8529
11
92.6087
21
-86.8373
0
LINE
8
BLACK
6
CONTINUOUS
10
92.6087
20
-86.8373
11
92.5463
21
-86.7611
0
LINE
8
BLACK
6
CONTINUOUS
10
92.5463
20
-86.7611
11
92.4998
21
-86.6743
0
LINE
8
BLACK
6
CONTINUOUS
10
92.4998
20
-86.6743
11
92.4712
21
-86.58
0
LINE
8
BLACK
6
CONTINUOUS
10
92.4712
20
-86.58
11
92.4616
21
-86.482
0
LINE
8
BLACK
6
CONTINUOUS
10
92.4616
20
-86.482
11
92.464
21
-86.4574
0
LINE
8
BLACK
6
CONTINUOUS
10
92.464
20
-86.4574
11
92.464
21
-85.482
0
LINE
8
BLACK
6
CONTINUOUS
10
92.464
20
-85.482
11
92.064
21
-85.482
0
LINE
8
BLACK
6
CONTINUOUS
10
92.064
20
-85.482
11
92.064
21
-83.682
0
LINE
8
BLACK
6
CONTINUOUS
10
92.064
20
-83.682
11
93.864
21
-83.682
0
LINE
8
BLACK
6
CONTINUOUS
10
93.864
20
-83.682
11
93.864
21
-85.482
0
LINE
8
BLACK
6
CONTINUOUS
10
98.568
20
-94.75
11
101.928
21
-94.75
0
LINE
8
BLACK
6
CONTINUOUS
10
101.928
20
-94.75
11
101.956
21
-94.7082
0
LINE
8
BLACK
6
CONTINUOUS
10
101.956
20
-94.7082
11
102.074
21
-94.5898
0
LINE
8
BLACK
6
CONTINUOUS
10
102.074
20
-94.5898
11
102.213
21
-94.4967
0
LINE
8
BLACK
6
CONTINUOUS
10
102.213
20
-94.4967
11
102.368
21
-94.4327
0
LINE
8
BLACK
6
CONTINUOUS
10
102.368
20
-94.4327
11
102.532
21
-94.4
0
LINE
8
BLACK
6
CONTINUOUS
10
102.532
20
-94.4
11
102.7
21
-94.4
0
LINE
8
BLACK
6
CONTINUOUS
10
102.7
20
-94.4
11
102.864
21
-94.4327
0
LINE
8
BLACK
6
CONTINUOUS
10
102.864
20
-94.4327
11
103.019
21
-94.4967
0
LINE
8
BLACK
6
CONTINUOUS
10
103.019
20
-94.4967
11
103.158
21
-94.5898
0
LINE
8
BLACK
6
CONTINUOUS
10
103.158
20
-94.5898
11
103.276
21
-94.7082
0
LINE
8
BLACK
6
CONTINUOUS
10
103.276
20
-94.7082
11
103.369
21
-94.8474
0
LINE
8
BLACK
6
CONTINUOUS
10
103.369
20
-94.8474
11
103.433
21
-95.0021
0
LINE
8
BLACK
6
CONTINUOUS
10
103.433
20
-95.0021
11
103.466
21
-95.1663
0
LINE
8
BLACK
6
CONTINUOUS
10
103.466
20
-95.1663
11
103.466
21
-95.3337
0
LINE
8
BLACK
6
CONTINUOUS
10
103.466
20
-95.3337
11
103.433
21
-95.4979
0
LINE
8
BLACK
6
CONTINUOUS
10
103.433
20
-95.4979
11
103.369
21
-95.6526
0
LINE
8
BLACK
6
CONTINUOUS
10
103.369
20
-95.6526
11
103.276
21
-95.7918
0
LINE
8
BLACK
6
CONTINUOUS
10
103.276
20
-95.7918
11
103.158
21
-95.9102
0
LINE
8
BLACK
6
CONTINUOUS
10
103.158
20
-95.9102
11
103.019
21
-96.0033
0
LINE
8
BLACK
6
CONTINUOUS
10
103.019
20
-96.0033
11
102.864
21
-96.0673
0
LINE
8
BLACK
6
CONTINUOUS
10
102.864
20
-96.0673
11
102.7
21
-96.1
0
LINE
8
BLACK
6
CONTINUOUS
10
102.7
20
-96.1
11
102.532
21
-96.1
0
LINE
8
BLACK
6
CONTINUOUS
10
102.532
20
-96.1
11
102.368
21
-96.0673
0
LINE
8
BLACK
6
CONTINUOUS
10
102.368
20
-96.0673
11
102.213
21
-96.0033
0
LINE
8
BLACK
6
CONTINUOUS
10
102.213
20
-96.0033
11
102.074
21
-95.9102
0
LINE
8
BLACK
6
CONTINUOUS
10
102.074
20
-95.9102
11
101.956
21
-95.7918
0
LINE
8
BLACK
6
CONTINUOUS
10
101.956
20
-95.7918
11
101.928
21
-95.75
0
LINE
8
BLACK
6
CONTINUOUS
10
101.928
20
-95.75
11
98.568
21
-95.75
0
LINE
8
BLACK
6
CONTINUOUS
10
98.568
20
-95.75
11
98.568
21
-94.75
0
LINE
8
BLACK
6
CONTINUOUS
10
112.002
20
-68.42
11
112.075
21
-68.4272
0
LINE
8
BLACK
6
CONTINUOUS
10
112.075
20
-68.4272
11
112.169
21
-68.4558
0
LINE
8
BLACK
6
CONTINUOUS
10
112.169
20
-68.4558
11
112.256
21
-68.5023
0
LINE
8
BLACK
6
CONTINUOUS
10
112.256
20
-68.5023
11
112.332
21
-68.5647
0
LINE
8
BLACK
6
CONTINUOUS
10
112.332
20
-68.5647
11
112.348
21
-68.5838
0
LINE
8
BLACK
6
CONTINUOUS
10
112.348
20
-68.5838
11
118.552
21
-74.788
0
LINE
8
BLACK
6
CONTINUOUS
10
118.552
20
-74.788
11
118.571
21
-74.8037
0
LINE
8
BLACK
6
CONTINUOUS
10
118.571
20
-74.8037
11
118.587
21
-74.8228
0
LINE
8
BLACK
6
CONTINUOUS
10
118.587
20
-74.8228
11
118.634
21
-74.8798
0
LINE
8
BLACK
6
CONTINUOUS
10
118.634
20
-74.8798
11
118.68
21
-74.9667
0
LINE
8
BLACK
6
CONTINUOUS
10
118.68
20
-74.9667
11
118.709
21
-75.0609
0
LINE
8
BLACK
6
CONTINUOUS
10
118.709
20
-75.0609
11
118.718
21
-75.1589
0
LINE
8
BLACK
6
CONTINUOUS
10
118.718
20
-75.1589
11
118.716
21
-75.1835
0
LINE
8
BLACK
6
CONTINUOUS
10
118.716
20
-75.1835
11
118.716
21
-86.8685
0
LINE
8
BLACK
6
CONTINUOUS
10
118.716
20
-86.8685
11
118.718
21
-86.8931
0
LINE
8
BLACK
6
CONTINUOUS
10
118.718
20
-86.8931
11
118.709
21
-86.9911
0
LINE
8
BLACK
6
CONTINUOUS
10
118.709
20
-86.9911
11
118.68
21
-87.0853
0
LINE
8
BLACK
6
CONTINUOUS
10
118.68
20
-87.0853
11
118.634
21
-87.1722
0
LINE
8
BLACK
6
CONTINUOUS
10
118.634
20
-87.1722
11
118.587
21
-87.2292
0
LINE
8
BLACK
6
CONTINUOUS
10
118.587
20
-87.2292
11
118.587
21
-87.2293
0
LINE
8
BLACK
6
CONTINUOUS
10
118.587
20
-87.2293
11
118.571
21
-87.2483
0
LINE
8
BLACK
6
CONTINUOUS
10
118.571
20
-87.2483
11
118.552
21
-87.264
0
LINE
8
BLACK
6
CONTINUOUS
10
118.552
20
-87.264
11
116.07
21
-89.7462
0
LINE
8
BLACK
6
CONTINUOUS
10
116.07
20
-89.7462
11
116.07
21
-92.218
0
LINE
8
BLACK
6
CONTINUOUS
10
116.07
20
-92.218
11
116.47
21
-92.218
0
LINE
8
BLACK
6
CONTINUOUS
10
116.47
20
-92.218
11
116.47
21
-94.218
0
LINE
8
BLACK
6
CONTINUOUS
10
116.47
20
-94.218
11
114.67
21
-94.218
0
LINE
8
BLACK
6
CONTINUOUS
10
114.67
20
-94.218
11
114.67
21
-92.218
0
LINE
8
BLACK
6
CONTINUOUS
10
114.67
20
-92.218
11
115.07
21
-92.218
0
LINE
8
BLACK
6
CONTINUOUS
10
115.07
20
-92.218
11
115.07
21
-89.5636
0
LINE
8
BLACK
6
CONTINUOUS
10
115.07
20
-89.5636
11
115.068
21
-89.5391
0
LINE
8
BLACK
6
CONTINUOUS
10
115.068
20
-89.5391
11
115.077
21
-89.4411
0
LINE
8
BLACK
6
CONTINUOUS
10
115.077
20
-89.4411
11
115.106
21
-89.3468
0
LINE
8
BLACK
6
CONTINUOUS
10
115.106
20
-89.3468
11
115.117
21
-89.3258
0
LINE
8
BLACK
6
CONTINUOUS
10
115.117
20
-89.3258
11
115.152
21
-89.2599
0
LINE
8
BLACK
6
CONTINUOUS
10
115.152
20
-89.2599
11
115.215
21
-89.1838
0
LINE
8
BLACK
6
CONTINUOUS
10
115.215
20
-89.1838
11
115.234
21
-89.1681
0
LINE
8
BLACK
6
CONTINUOUS
10
115.234
20
-89.1681
11
117.716
21
-86.686
0
LINE
8
BLACK
6
CONTINUOUS
10
117.716
20
-86.686
11
117.716
21
-75.366
0
LINE
8
BLACK
6
CONTINUOUS
10
117.716
20
-75.366
11
111.77
21
-69.42
0
LINE
8
BLACK
6
CONTINUOUS
10
111.77
20
-69.42
11
93.0731
21
-69.42
0
LINE
8
BLACK
6
CONTINUOUS
10
93.0731
20
-69.42
11
91.864
21
-70.6291
0
LINE
8
BLACK
6
CONTINUOUS
10
91.864
20
-70.6291
11
91.864
21
-75.6749
0
LINE
8
BLACK
6
CONTINUOUS
10
91.864
20
-75.6749
11
92.2511
21
-76.062
0
LINE
8
BLACK
6
CONTINUOUS
10
92.2511
20
-76.062
11
93.864
21
-76.062
0
LINE
8
BLACK
6
CONTINUOUS
10
93.864
20
-76.062
11
93.864
21
-77.862
0
LINE
8
BLACK
6
CONTINUOUS
10
93.864
20
-77.862
11
92.064
21
-77.862
0
LINE
8
BLACK
6
CONTINUOUS
10
92.064
20
-77.862
11
92.064
21
-77.2891
0
LINE
8
BLACK
6
CONTINUOUS
10
92.064
20
-77.2891
11
91.0278
21
-76.2529
0
LINE
8
BLACK
6
CONTINUOUS
10
91.0278
20
-76.2529
11
91.0087
21
-76.2373
0
LINE
8
BLACK
6
CONTINUOUS
10
91.0087
20
-76.2373
11
90.9463
21
-76.1611
0
LINE
8
BLACK
6
CONTINUOUS
10
90.9463
20
-76.1611
11
90.8998
21
-76.0743
0
LINE
8
BLACK
6
CONTINUOUS
10
90.8998
20
-76.0743
11
90.8997
21
-76.0737
0
LINE
8
BLACK
6
CONTINUOUS
10
90.8997
20
-76.0737
11
90.8712
21
-75.98
0
LINE
8
BLACK
6
CONTINUOUS
10
90.8712
20
-75.98
11
90.8616
21
-75.882
0
LINE
8
BLACK
6
CONTINUOUS
10
90.8616
20
-75.882
11
90.864
21
-75.8574
0
LINE
8
BLACK
6
CONTINUOUS
10
90.864
20
-75.8574
11
90.864
21
-70.4466
0
LINE
8
BLACK
6
CONTINUOUS
10
90.864
20
-70.4466
11
90.8616
21
-70.422
0
LINE
8
BLACK
6
CONTINUOUS
10
90.8616
20
-70.422
11
90.8712
21
-70.324
0
LINE
8
BLACK
6
CONTINUOUS
10
90.8712
20
-70.324
11
90.8845
21
-70.2802
0
LINE
8
BLACK
6
CONTINUOUS
10
90.8845
20
-70.2802
11
90.8998
21
-70.2297
0
LINE
8
BLACK
6
CONTINUOUS
10
90.8998
20
-70.2297
11
90.9463
21
-70.1429
0
LINE
8
BLACK
6
CONTINUOUS
10
90.9463
20
-70.1429
11
91.0087
21
-70.0667
0
LINE
8
BLACK
6
CONTINUOUS
10
91.0087
20
-70.0667
11
91.0278
21
-70.0511
0
LINE
8
BLACK
6
CONTINUOUS
10
91.0278
20
-70.0511
11
92.4951
21
-68.5838
0
LINE
8
BLACK
6
CONTINUOUS
10
92.4951
20
-68.5838
11
92.5107
21
-68.5647
0
LINE
8
BLACK
6
CONTINUOUS
10
92.5107
20
-68.5647
11
92.5869
21
-68.5023
0
LINE
8
BLACK
6
CONTINUOUS
10
92.5869
20
-68.5023
11
92.6737
21
-68.4558
0
LINE
8
BLACK
6
CONTINUOUS
10
92.6737
20
-68.4558
11
92.768
21
-68.4272
0
LINE
8
BLACK
6
CONTINUOUS
10
92.768
20
-68.4272
11
92.8414
21
-68.42
0
LINE
8
BLACK
6
CONTINUOUS
10
92.8414
20
-68.42
11
92.866
21
-68.4176
0
LINE
8
BLACK
6
CONTINUOUS
10
92.866
20
-68.4176
11
92.8906
21
-68.42
0
LINE
8
BLACK
6
CONTINUOUS
10
92.8906
20
-68.42
11
111.953
21
-68.42
0
LINE
8
BLACK
6
CONTINUOUS
10
111.953
20
-68.42
11
111.977
21
-68.4176
0
LINE
8
BLACK
6
CONTINUOUS
10
111.977
20
-68.4176
11
112.002
21
-68.42
0
LINE
8
BLACK
6
CONTINUOUS
10
93.864
20
-82.942
11
92.2511
21
-82.942
0
LINE
8
BLACK
6
CONTINUOUS
10
92.2511
20
-82.942
11
91.864
21
-83.3291
0
LINE
8
BLACK
6
CONTINUOUS
10
91.864
20
-83.3291
11
91.864
21
-89.5109
0
LINE
8
BLACK
6
CONTINUOUS
10
91.864
20
-89.5109
11
93.0462
21
-90.6931
0
LINE
8
BLACK
6
CONTINUOUS
10
93.0462
20
-90.6931
11
93.0653
21
-90.7087
0
LINE
8
BLACK
6
CONTINUOUS
10
93.0653
20
-90.7087
11
93.1277
21
-90.7849
0
LINE
8
BLACK
6
CONTINUOUS
10
93.1277
20
-90.7849
11
93.1742
21
-90.8717
0
LINE
8
BLACK
6
CONTINUOUS
10
93.1742
20
-90.8717
11
93.1971
21
-90.9472
0
LINE
8
BLACK
6
CONTINUOUS
10
93.1971
20
-90.9472
11
93.2028
21
-90.966
0
LINE
8
BLACK
6
CONTINUOUS
10
93.2028
20
-90.966
11
93.2124
21
-91.064
0
LINE
8
BLACK
6
CONTINUOUS
10
93.2124
20
-91.064
11
93.21
21
-91.0886
0
LINE
8
BLACK
6
CONTINUOUS
10
93.21
20
-91.0886
11
93.21
21
-92.064
0
LINE
8
BLACK
6
CONTINUOUS
10
93.21
20
-92.064
11
93.61
21
-92.064
0
LINE
8
BLACK
6
CONTINUOUS
10
93.61
20
-92.064
11
93.61
21
-93.864
0
LINE
8
BLACK
6
CONTINUOUS
10
93.61
20
-93.864
11
91.81
21
-93.864
0
LINE
8
BLACK
6
CONTINUOUS
10
91.81
20
-93.864
11
91.81
21
-92.064
0
LINE
8
BLACK
6
CONTINUOUS
10
91.81
20
-92.064
11
92.21
21
-92.064
0
LINE
8
BLACK
6
CONTINUOUS
10
92.21
20
-92.064
11
92.21
21
-91.2711
0
LINE
8
BLACK
6
CONTINUOUS
10
92.21
20
-91.2711
11
91.0278
21
-90.0889
0
LINE
8
BLACK
6
CONTINUOUS
10
91.0278
20
-90.0889
11
91.0087
21
-90.0733
0
LINE
8
BLACK
6
CONTINUOUS
10
91.0087
20
-90.0733
11
90.9463
21
-89.9971
0
LINE
8
BLACK
6
CONTINUOUS
10
90.9463
20
-89.9971
11
90.8998
21
-89.9103
0
LINE
8
BLACK
6
CONTINUOUS
10
90.8998
20
-89.9103
11
90.8939
21
-89.8909
0
LINE
8
BLACK
6
CONTINUOUS
10
90.8939
20
-89.8909
11
90.8712
21
-89.816
0
LINE
8
BLACK
6
CONTINUOUS
10
90.8712
20
-89.816
11
90.8616
21
-89.718
0
LINE
8
BLACK
6
CONTINUOUS
10
90.8616
20
-89.718
11
90.864
21
-89.6934
0
LINE
8
BLACK
6
CONTINUOUS
10
90.864
20
-89.6934
11
90.864
21
-83.1466
0
LINE
8
BLACK
6
CONTINUOUS
10
90.864
20
-83.1466
11
90.8616
21
-83.122
0
LINE
8
BLACK
6
CONTINUOUS
10
90.8616
20
-83.122
11
90.8712
21
-83.024
0
LINE
8
BLACK
6
CONTINUOUS
10
90.8712
20
-83.024
11
90.8857
21
-82.9763
0
LINE
8
BLACK
6
CONTINUOUS
10
90.8857
20
-82.9763
11
90.8998
21
-82.9297
0
LINE
8
BLACK
6
CONTINUOUS
10
90.8998
20
-82.9297
11
90.9463
21
-82.8429
0
LINE
8
BLACK
6
CONTINUOUS
10
90.9463
20
-82.8429
11
91.0087
21
-82.7667
0
LINE
8
BLACK
6
CONTINUOUS
10
91.0087
20
-82.7667
11
91.0278
21
-82.7511
0
LINE
8
BLACK
6
CONTINUOUS
10
91.0278
20
-82.7511
11
92.064
21
-81.7149
0
LINE
8
BLACK
6
CONTINUOUS
10
92.064
20
-81.7149
11
92.064
21
-81.142
0
LINE
8
BLACK
6
CONTINUOUS
10
92.064
20
-81.142
11
93.864
21
-81.142
0
LINE
8
BLACK
6
CONTINUOUS
10
93.864
20
-81.142
11
93.864
21
-82.942
0
LINE
8
BLACK
6
CONTINUOUS
10
98.568
20
-92.21
11
101.361
21
-92.21
0
LINE
8
BLACK
6
CONTINUOUS
10
101.361
20
-92.21
11
102.694
21
-90.8769
0
LINE
8
BLACK
6
CONTINUOUS
10
102.694
20
-90.8769
11
102.694
21
-89.1266
0
LINE
8
BLACK
6
CONTINUOUS
10
102.694
20
-89.1266
11
102.692
21
-89.102
0
LINE
8
BLACK
6
CONTINUOUS
10
102.692
20
-89.102
11
102.701
21
-89.004
0
LINE
8
BLACK
6
CONTINUOUS
10
102.701
20
-89.004
11
102.73
21
-88.9097
0
LINE
8
BLACK
6
CONTINUOUS
10
102.73
20
-88.9097
11
102.755
21
-88.8623
0
LINE
8
BLACK
6
CONTINUOUS
10
102.755
20
-88.8623
11
102.776
21
-88.8229
0
LINE
8
BLACK
6
CONTINUOUS
10
102.776
20
-88.8229
11
102.839
21
-88.7467
0
LINE
8
BLACK
6
CONTINUOUS
10
102.839
20
-88.7467
11
102.858
21
-88.7311
0
LINE
8
BLACK
6
CONTINUOUS
10
102.858
20
-88.7311
11
107.196
21
-84.3929
0
LINE
8
BLACK
6
CONTINUOUS
10
107.196
20
-84.3929
11
107.196
21
-80.7966
0
LINE
8
BLACK
6
CONTINUOUS
10
107.196
20
-80.7966
11
107.194
21
-80.772
0
LINE
8
BLACK
6
CONTINUOUS
10
107.194
20
-80.772
11
107.203
21
-80.674
0
LINE
8
BLACK
6
CONTINUOUS
10
107.203
20
-80.674
11
107.232
21
-80.5797
0
LINE
8
BLACK
6
CONTINUOUS
10
107.232
20
-80.5797
11
107.239
21
-80.5654
0
LINE
8
BLACK
6
CONTINUOUS
10
107.239
20
-80.5654
11
107.278
21
-80.4929
0
LINE
8
BLACK
6
CONTINUOUS
10
107.278
20
-80.4929
11
107.341
21
-80.4167
0
LINE
8
BLACK
6
CONTINUOUS
10
107.341
20
-80.4167
11
107.36
21
-80.4011
0
LINE
8
BLACK
6
CONTINUOUS
10
107.36
20
-80.4011
11
108.341
21
-79.4198
0
LINE
8
BLACK
6
CONTINUOUS
10
108.341
20
-79.4198
11
108.357
21
-79.4007
0
LINE
8
BLACK
6
CONTINUOUS
10
108.357
20
-79.4007
11
108.433
21
-79.3383
0
LINE
8
BLACK
6
CONTINUOUS
10
108.433
20
-79.3383
11
108.52
21
-79.2918
0
LINE
8
BLACK
6
CONTINUOUS
10
108.52
20
-79.2918
11
108.585
21
-79.2719
0
LINE
8
BLACK
6
CONTINUOUS
10
108.585
20
-79.2719
11
108.614
21
-79.2632
0
LINE
8
BLACK
6
CONTINUOUS
10
108.614
20
-79.2632
11
108.712
21
-79.2536
0
LINE
8
BLACK
6
CONTINUOUS
10
108.712
20
-79.2536
11
108.737
21
-79.256
0
LINE
8
BLACK
6
CONTINUOUS
10
108.737
20
-79.256
11
114.316
21
-79.256
0
LINE
8
BLACK
6
CONTINUOUS
10
114.316
20
-79.256
11
114.316
21
-78.756
0
LINE
8
BLACK
6
CONTINUOUS
10
114.316
20
-78.756
11
116.316
21
-78.756
0
LINE
8
BLACK
6
CONTINUOUS
10
116.316
20
-78.756
11
116.316
21
-80.756
0
LINE
8
BLACK
6
CONTINUOUS
10
116.316
20
-80.756
11
114.316
21
-80.756
0
LINE
8
BLACK
6
CONTINUOUS
10
114.316
20
-80.756
11
114.316
21
-80.256
0
LINE
8
BLACK
6
CONTINUOUS
10
114.316
20
-80.256
11
108.919
21
-80.256
0
LINE
8
BLACK
6
CONTINUOUS
10
108.919
20
-80.256
11
108.196
21
-80.9791
0
LINE
8
BLACK
6
CONTINUOUS
10
108.196
20
-80.9791
11
108.196
21
-84.5754
0
LINE
8
BLACK
6
CONTINUOUS
10
108.196
20
-84.5754
11
108.198
21
-84.6
0
LINE
8
BLACK
6
CONTINUOUS
10
108.198
20
-84.6
11
108.196
21
-84.6246
0
LINE
8
BLACK
6
CONTINUOUS
10
108.196
20
-84.6246
11
108.196
21
-84.6246
0
LINE
8
BLACK
6
CONTINUOUS
10
108.196
20
-84.6246
11
108.189
21
-84.698
0
LINE
8
BLACK
6
CONTINUOUS
10
108.189
20
-84.698
11
108.16
21
-84.7923
0
LINE
8
BLACK
6
CONTINUOUS
10
108.16
20
-84.7923
11
108.137
21
-84.836
0
LINE
8
BLACK
6
CONTINUOUS
10
108.137
20
-84.836
11
108.114
21
-84.8791
0
LINE
8
BLACK
6
CONTINUOUS
10
108.114
20
-84.8791
11
108.069
21
-84.934
0
LINE
8
BLACK
6
CONTINUOUS
10
108.069
20
-84.934
11
108.051
21
-84.9553
0
LINE
8
BLACK
6
CONTINUOUS
10
108.051
20
-84.9553
11
108.032
21
-84.9709
0
LINE
8
BLACK
6
CONTINUOUS
10
108.032
20
-84.9709
11
103.694
21
-89.3091
0
LINE
8
BLACK
6
CONTINUOUS
10
103.694
20
-89.3091
11
103.694
21
-91.0595
0
LINE
8
BLACK
6
CONTINUOUS
10
103.694
20
-91.0595
11
103.696
21
-91.084
0
LINE
8
BLACK
6
CONTINUOUS
10
103.696
20
-91.084
11
103.694
21
-91.1086
0
LINE
8
BLACK
6
CONTINUOUS
10
103.694
20
-91.1086
11
103.694
21
-91.1086
0
LINE
8
BLACK
6
CONTINUOUS
10
103.694
20
-91.1086
11
103.687
21
-91.182
0
LINE
8
BLACK
6
CONTINUOUS
10
103.687
20
-91.182
11
103.658
21
-91.2763
0
LINE
8
BLACK
6
CONTINUOUS
10
103.658
20
-91.2763
11
103.612
21
-91.3631
0
LINE
8
BLACK
6
CONTINUOUS
10
103.612
20
-91.3631
11
103.549
21
-91.4393
0
LINE
8
BLACK
6
CONTINUOUS
10
103.549
20
-91.4393
11
103.53
21
-91.4549
0
LINE
8
BLACK
6
CONTINUOUS
10
103.53
20
-91.4549
11
101.939
21
-93.0462
0
LINE
8
BLACK
6
CONTINUOUS
10
101.939
20
-93.0462
11
101.923
21
-93.0653
0
LINE
8
BLACK
6
CONTINUOUS
10
101.923
20
-93.0653
11
101.847
21
-93.1277
0
LINE
8
BLACK
6
CONTINUOUS
10
101.847
20
-93.1277
11
101.76
21
-93.1742
0
LINE
8
BLACK
6
CONTINUOUS
10
101.76
20
-93.1742
11
101.666
21
-93.2028
0
LINE
8
BLACK
6
CONTINUOUS
10
101.666
20
-93.2028
11
101.593
21
-93.21
0
LINE
8
BLACK
6
CONTINUOUS
10
101.593
20
-93.21
11
101.568
21
-93.2124
0
LINE
8
BLACK
6
CONTINUOUS
10
101.568
20
-93.2124
11
101.543
21
-93.21
0
LINE
8
BLACK
6
CONTINUOUS
10
101.543
20
-93.21
11
98.568
21
-93.21
0
LINE
8
BLACK
6
CONTINUOUS
10
98.568
20
-93.21
11
98.568
21
-92.21
0
LINE
8
BLACK
6
CONTINUOUS
10
108.188
20
-93.21
11
104.927
21
-93.21
0
LINE
8
BLACK
6
CONTINUOUS
10
104.927
20
-93.21
11
104.902
21
-93.2124
0
LINE
8
BLACK
6
CONTINUOUS
10
104.902
20
-93.2124
11
104.877
21
-93.21
0
LINE
8
BLACK
6
CONTINUOUS
10
104.877
20
-93.21
11
104.877
21
-93.21
0
LINE
8
BLACK
6
CONTINUOUS
10
104.877
20
-93.21
11
104.804
21
-93.2028
0
LINE
8
BLACK
6
CONTINUOUS
10
104.804
20
-93.2028
11
104.71
21
-93.1742
0
LINE
8
BLACK
6
CONTINUOUS
10
104.71
20
-93.1742
11
104.623
21
-93.1277
0
LINE
8
BLACK
6
CONTINUOUS
10
104.623
20
-93.1277
11
104.547
21
-93.0653
0
LINE
8
BLACK
6
CONTINUOUS
10
104.547
20
-93.0653
11
104.531
21
-93.0462
0
LINE
8
BLACK
6
CONTINUOUS
10
104.531
20
-93.0462
11
104.058
21
-92.5729
0
LINE
8
BLACK
6
CONTINUOUS
10
104.058
20
-92.5729
11
104.039
21
-92.5573
0
LINE
8
BLACK
6
CONTINUOUS
10
104.039
20
-92.5573
11
103.976
21
-92.4811
0
LINE
8
BLACK
6
CONTINUOUS
10
103.976
20
-92.4811
11
103.93
21
-92.3943
0
LINE
8
BLACK
6
CONTINUOUS
10
103.93
20
-92.3943
11
103.922
21
-92.3672
0
LINE
8
BLACK
6
CONTINUOUS
10
103.922
20
-92.3672
11
103.901
21
-92.3
0
LINE
8
BLACK
6
CONTINUOUS
10
103.901
20
-92.3
11
103.892
21
-92.202
0
LINE
8
BLACK
6
CONTINUOUS
10
103.892
20
-92.202
11
103.894
21
-92.1774
0
LINE
8
BLACK
6
CONTINUOUS
10
103.894
20
-92.1774
11
103.894
21
-89.6866
0
LINE
8
BLACK
6
CONTINUOUS
10
103.894
20
-89.6866
11
103.892
21
-89.662
0
LINE
8
BLACK
6
CONTINUOUS
10
103.892
20
-89.662
11
103.901
21
-89.564
0
LINE
8
BLACK
6
CONTINUOUS
10
103.901
20
-89.564
11
103.91
21
-89.5354
0
LINE
8
BLACK
6
CONTINUOUS
10
103.91
20
-89.5354
11
103.93
21
-89.4697
0
LINE
8
BLACK
6
CONTINUOUS
10
103.93
20
-89.4697
11
103.976
21
-89.3829
0
LINE
8
BLACK
6
CONTINUOUS
10
103.976
20
-89.3829
11
104.039
21
-89.3067
0
LINE
8
BLACK
6
CONTINUOUS
10
104.039
20
-89.3067
11
104.058
21
-89.2911
0
LINE
8
BLACK
6
CONTINUOUS
10
104.058
20
-89.2911
11
111.389
21
-81.9598
0
LINE
8
BLACK
6
CONTINUOUS
10
111.389
20
-81.9598
11
111.405
21
-81.9407
0
LINE
8
BLACK
6
CONTINUOUS
10
111.405
20
-81.9407
11
111.481
21
-81.8783
0
LINE
8
BLACK
6
CONTINUOUS
10
111.481
20
-81.8783
11
111.568
21
-81.8318
0
LINE
8
BLACK
6
CONTINUOUS
10
111.568
20
-81.8318
11
111.662
21
-81.8032
0
LINE
8
BLACK
6
CONTINUOUS
10
111.662
20
-81.8032
11
111.735
21
-81.796
0
LINE
8
BLACK
6
CONTINUOUS
10
111.735
20
-81.796
11
111.735
21
-81.796
0
LINE
8
BLACK
6
CONTINUOUS
10
111.735
20
-81.796
11
111.76
21
-81.7936
0
LINE
8
BLACK
6
CONTINUOUS
10
111.76
20
-81.7936
11
111.785
21
-81.796
0
LINE
8
BLACK
6
CONTINUOUS
10
111.785
20
-81.796
11
114.316
21
-81.796
0
LINE
8
BLACK
6
CONTINUOUS
10
114.316
20
-81.796
11
114.316
21
-81.296
0
LINE
8
BLACK
6
CONTINUOUS
10
114.316
20
-81.296
11
116.316
21
-81.296
0
LINE
8
BLACK
6
CONTINUOUS
10
116.316
20
-81.296
11
116.316
21
-83.296
0
LINE
8
BLACK
6
CONTINUOUS
10
116.316
20
-83.296
11
114.316
21
-83.296
0
LINE
8
BLACK
6
CONTINUOUS
10
114.316
20
-83.296
11
114.316
21
-82.796
0
LINE
8
BLACK
6
CONTINUOUS
10
114.316
20
-82.796
11
111.967
21
-82.796
0
LINE
8
BLACK
6
CONTINUOUS
10
111.967
20
-82.796
11
104.894
21
-89.8691
0
LINE
8
BLACK
6
CONTINUOUS
10
104.894
20
-89.8691
11
104.894
21
-91.9949
0
LINE
8
BLACK
6
CONTINUOUS
10
104.894
20
-91.9949
11
105.109
21
-92.21
0
LINE
8
BLACK
6
CONTINUOUS
10
105.109
20
-92.21
11
108.188
21
-92.21
0
LINE
8
BLACK
6
CONTINUOUS
10
108.188
20
-92.21
11
108.188
21
-93.21
0
LINE
8
BLACK
6
CONTINUOUS
10
106.188
20
-89.67
11
113.035
21
-89.67
0
LINE
8
BLACK
6
CONTINUOUS
10
113.035
20
-89.67
11
116.516
21
-86.1889
0
LINE
8
BLACK
6
CONTINUOUS
10
116.516
20
-86.1889
11
116.516
21
-75.8631
0
LINE
8
BLACK
6
CONTINUOUS
10
116.516
20
-75.8631
11
116.083
21
-75.43
0
LINE
8
BLACK
6
CONTINUOUS
10
116.083
20
-75.43
11
109.681
21
-75.43
0
LINE
8
BLACK
6
CONTINUOUS
10
109.681
20
-75.43
11
107.051
21
-78.0602
0
LINE
8
BLACK
6
CONTINUOUS
10
107.051
20
-78.0602
11
107.035
21
-78.0793
0
LINE
8
BLACK
6
CONTINUOUS
10
107.035
20
-78.0793
11
107.016
21
-78.0949
0
LINE
8
BLACK
6
CONTINUOUS
10
107.016
20
-78.0949
11
106.028
21
-79.0836
0
LINE
8
BLACK
6
CONTINUOUS
10
106.028
20
-79.0836
11
106.056
21
-79.152
0
LINE
8
BLACK
6
CONTINUOUS
10
106.056
20
-79.152
11
106.102
21
-79.3838
0
LINE
8
BLACK
6
CONTINUOUS
10
106.102
20
-79.3838
11
106.102
21
-79.6202
0
LINE
8
BLACK
6
CONTINUOUS
10
106.102
20
-79.6202
11
106.056
21
-79.852
0
LINE
8
BLACK
6
CONTINUOUS
10
106.056
20
-79.852
11
105.965
21
-80.0704
0
LINE
8
BLACK
6
CONTINUOUS
10
105.965
20
-80.0704
11
105.834
21
-80.267
0
LINE
8
BLACK
6
CONTINUOUS
10
105.834
20
-80.267
11
105.667
21
-80.4341
0
LINE
8
BLACK
6
CONTINUOUS
10
105.667
20
-80.4341
11
105.47
21
-80.5654
0
LINE
8
BLACK
6
CONTINUOUS
10
105.47
20
-80.5654
11
105.252
21
-80.6559
0
LINE
8
BLACK
6
CONTINUOUS
10
105.252
20
-80.6559
11
105.02
21
-80.702
0
LINE
8
BLACK
6
CONTINUOUS
10
105.02
20
-80.702
11
104.784
21
-80.702
0
LINE
8
BLACK
6
CONTINUOUS
10
104.784
20
-80.702
11
104.552
21
-80.6559
0
LINE
8
BLACK
6
CONTINUOUS
10
104.552
20
-80.6559
11
104.334
21
-80.5654
0
LINE
8
BLACK
6
CONTINUOUS
10
104.334
20
-80.5654
11
104.137
21
-80.4341
0
LINE
8
BLACK
6
CONTINUOUS
10
104.137
20
-80.4341
11
103.97
21
-80.267
0
LINE
8
BLACK
6
CONTINUOUS
10
103.97
20
-80.267
11
103.839
21
-80.0704
0
LINE
8
BLACK
6
CONTINUOUS
10
103.839
20
-80.0704
11
103.748
21
-79.852
0
LINE
8
BLACK
6
CONTINUOUS
10
103.748
20
-79.852
11
103.702
21
-79.6202
0
LINE
8
BLACK
6
CONTINUOUS
10
103.702
20
-79.6202
11
103.702
21
-79.3838
0
LINE
8
BLACK
6
CONTINUOUS
10
103.702
20
-79.3838
11
103.748
21
-79.152
0
LINE
8
BLACK
6
CONTINUOUS
10
103.748
20
-79.152
11
103.776
21
-79.0836
0
LINE
8
BLACK
6
CONTINUOUS
10
103.776
20
-79.0836
11
103.171
21
-78.478
0
LINE
8
BLACK
6
CONTINUOUS
10
103.171
20
-78.478
11
102.196
21
-78.478
0
LINE
8
BLACK
6
CONTINUOUS
10
102.196
20
-78.478
11
102.189
21
-78.488
0
LINE
8
BLACK
6
CONTINUOUS
10
102.189
20
-78.488
11
102.078
21
-78.5994
0
LINE
8
BLACK
6
CONTINUOUS
10
102.078
20
-78.5994
11
101.947
21
-78.687
0
LINE
8
BLACK
6
CONTINUOUS
10
101.947
20
-78.687
11
101.801
21
-78.7473
0
LINE
8
BLACK
6
CONTINUOUS
10
101.801
20
-78.7473
11
101.647
21
-78.778
0
LINE
8
BLACK
6
CONTINUOUS
10
101.647
20
-78.778
11
101.489
21
-78.778
0
LINE
8
BLACK
6
CONTINUOUS
10
101.489
20
-78.778
11
101.335
21
-78.7473
0
LINE
8
BLACK
6
CONTINUOUS
10
101.335
20
-78.7473
11
101.189
21
-78.687
0
LINE
8
BLACK
6
CONTINUOUS
10
101.189
20
-78.687
11
101.058
21
-78.5994
0
LINE
8
BLACK
6
CONTINUOUS
10
101.058
20
-78.5994
11
100.947
21
-78.488
0
LINE
8
BLACK
6
CONTINUOUS
10
100.947
20
-78.488
11
100.859
21
-78.3569
0
LINE
8
BLACK
6
CONTINUOUS
10
100.859
20
-78.3569
11
100.799
21
-78.2114
0
LINE
8
BLACK
6
CONTINUOUS
10
100.799
20
-78.2114
11
100.768
21
-78.0568
0
LINE
8
BLACK
6
CONTINUOUS
10
100.768
20
-78.0568
11
100.768
21
-77.8992
0
LINE
8
BLACK
6
CONTINUOUS
10
100.768
20
-77.8992
11
100.799
21
-77.7446
0
LINE
8
BLACK
6
CONTINUOUS
10
100.799
20
-77.7446
11
100.859
21
-77.5991
0
LINE
8
BLACK
6
CONTINUOUS
10
100.859
20
-77.5991
11
100.947
21
-77.468
0
LINE
8
BLACK
6
CONTINUOUS
10
100.947
20
-77.468
11
101.058
21
-77.3566
0
LINE
8
BLACK
6
CONTINUOUS
10
101.058
20
-77.3566
11
101.189
21
-77.269
0
LINE
8
BLACK
6
CONTINUOUS
10
101.189
20
-77.269
11
101.335
21
-77.2087
0
LINE
8
BLACK
6
CONTINUOUS
10
101.335
20
-77.2087
11
101.489
21
-77.178
0
LINE
8
BLACK
6
CONTINUOUS
10
101.489
20
-77.178
11
101.647
21
-77.178
0
LINE
8
BLACK
6
CONTINUOUS
10
101.647
20
-77.178
11
101.801
21
-77.2087
0
LINE
8
BLACK
6
CONTINUOUS
10
101.801
20
-77.2087
11
101.947
21
-77.269
0
LINE
8
BLACK
6
CONTINUOUS
10
101.947
20
-77.269
11
102.078
21
-77.3566
0
LINE
8
BLACK
6
CONTINUOUS
10
102.078
20
-77.3566
11
102.189
21
-77.468
0
LINE
8
BLACK
6
CONTINUOUS
10
102.189
20
-77.468
11
102.196
21
-77.478
0
LINE
8
BLACK
6
CONTINUOUS
10
102.196
20
-77.478
11
103.353
21
-77.478
0
LINE
8
BLACK
6
CONTINUOUS
10
103.353
20
-77.478
11
103.378
21
-77.4756
0
LINE
8
BLACK
6
CONTINUOUS
10
103.378
20
-77.4756
11
103.403
21
-77.478
0
LINE
8
BLACK
6
CONTINUOUS
10
103.403
20
-77.478
11
103.476
21
-77.4852
0
LINE
8
BLACK
6
CONTINUOUS
10
103.476
20
-77.4852
11
103.57
21
-77.5138
0
LINE
8
BLACK
6
CONTINUOUS
10
103.57
20
-77.5138
11
103.657
21
-77.5603
0
LINE
8
BLACK
6
CONTINUOUS
10
103.657
20
-77.5603
11
103.733
21
-77.6227
0
LINE
8
BLACK
6
CONTINUOUS
10
103.733
20
-77.6227
11
103.749
21
-77.6418
0
LINE
8
BLACK
6
CONTINUOUS
10
103.749
20
-77.6418
11
104.484
21
-78.3765
0
LINE
8
BLACK
6
CONTINUOUS
10
104.484
20
-78.3765
11
104.552
21
-78.3481
0
LINE
8
BLACK
6
CONTINUOUS
10
104.552
20
-78.3481
11
104.784
21
-78.302
0
LINE
8
BLACK
6
CONTINUOUS
10
104.784
20
-78.302
11
105.02
21
-78.302
0
LINE
8
BLACK
6
CONTINUOUS
10
105.02
20
-78.302
11
105.252
21
-78.3481
0
LINE
8
BLACK
6
CONTINUOUS
10
105.252
20
-78.3481
11
105.32
21
-78.3765
0
LINE
8
BLACK
6
CONTINUOUS
10
105.32
20
-78.3765
11
106.18
21
-77.5169
0
LINE
8
BLACK
6
CONTINUOUS
10
106.18
20
-77.5169
11
106.18
21
-72.5365
0
LINE
8
BLACK
6
CONTINUOUS
10
106.18
20
-72.5365
11
105.969
21
-72.4493
0
LINE
8
BLACK
6
CONTINUOUS
10
105.969
20
-72.4493
11
105.724
21
-72.2851
0
LINE
8
BLACK
6
CONTINUOUS
10
105.724
20
-72.2851
11
105.515
21
-72.0762
0
LINE
8
BLACK
6
CONTINUOUS
10
105.515
20
-72.0762
11
105.351
21
-71.8305
0
LINE
8
BLACK
6
CONTINUOUS
10
105.351
20
-71.8305
11
105.238
21
-71.5575
0
LINE
8
BLACK
6
CONTINUOUS
10
105.238
20
-71.5575
11
105.18
21
-71.2677
0
LINE
8
BLACK
6
CONTINUOUS
10
105.18
20
-71.2677
11
105.18
21
-70.9723
0
LINE
8
BLACK
6
CONTINUOUS
10
105.18
20
-70.9723
11
105.238
21
-70.6825
0
LINE
8
BLACK
6
CONTINUOUS
10
105.238
20
-70.6825
11
105.351
21
-70.4095
0
LINE
8
BLACK
6
CONTINUOUS
10
105.351
20
-70.4095
11
105.515
21
-70.1638
0
LINE
8
BLACK
6
CONTINUOUS
10
105.515
20
-70.1638
11
105.724
21
-69.9549
0
LINE
8
BLACK
6
CONTINUOUS
10
105.724
20
-69.9549
11
105.969
21
-69.7907
0
LINE
8
BLACK
6
CONTINUOUS
10
105.969
20
-69.7907
11
106.242
21
-69.6776
0
LINE
8
BLACK
6
CONTINUOUS
10
106.242
20
-69.6776
11
106.532
21
-69.62
0
LINE
8
BLACK
6
CONTINUOUS
10
106.532
20
-69.62
11
106.828
21
-69.62
0
LINE
8
BLACK
6
CONTINUOUS
10
106.828
20
-69.62
11
107.118
21
-69.6776
0
LINE
8
BLACK
6
CONTINUOUS
10
107.118
20
-69.6776
11
107.391
21
-69.7907
0
LINE
8
BLACK
6
CONTINUOUS
10
107.391
20
-69.7907
11
107.636
21
-69.9549
0
LINE
8
BLACK
6
CONTINUOUS
10
107.636
20
-69.9549
11
107.845
21
-70.1638
0
LINE
8
BLACK
6
CONTINUOUS
10
107.845
20
-70.1638
11
108.009
21
-70.4095
0
LINE
8
BLACK
6
CONTINUOUS
10
108.009
20
-70.4095
11
108.122
21
-70.6825
0
LINE
8
BLACK
6
CONTINUOUS
10
108.122
20
-70.6825
11
108.18
21
-70.9723
0
LINE
8
BLACK
6
CONTINUOUS
10
108.18
20
-70.9723
11
108.18
21
-71.2677
0
LINE
8
BLACK
6
CONTINUOUS
10
108.18
20
-71.2677
11
108.122
21
-71.5575
0
LINE
8
BLACK
6
CONTINUOUS
10
108.122
20
-71.5575
11
108.009
21
-71.8305
0
LINE
8
BLACK
6
CONTINUOUS
10
108.009
20
-71.8305
11
107.845
21
-72.0762
0
LINE
8
BLACK
6
CONTINUOUS
10
107.845
20
-72.0762
11
107.636
21
-72.2851
0
LINE
8
BLACK
6
CONTINUOUS
10
107.636
20
-72.2851
11
107.391
21
-72.4493
0
LINE
8
BLACK
6
CONTINUOUS
10
107.391
20
-72.4493
11
107.18
21
-72.5365
0
LINE
8
BLACK
6
CONTINUOUS
10
107.18
20
-72.5365
11
107.18
21
-76.5169
0
LINE
8
BLACK
6
CONTINUOUS
10
107.18
20
-76.5169
11
109.103
21
-74.5938
0
LINE
8
BLACK
6
CONTINUOUS
10
109.103
20
-74.5938
11
109.119
21
-74.5747
0
LINE
8
BLACK
6
CONTINUOUS
10
109.119
20
-74.5747
11
109.195
21
-74.5123
0
LINE
8
BLACK
6
CONTINUOUS
10
109.195
20
-74.5123
11
109.282
21
-74.4658
0
LINE
8
BLACK
6
CONTINUOUS
10
109.282
20
-74.4658
11
109.376
21
-74.4372
0
LINE
8
BLACK
6
CONTINUOUS
10
109.376
20
-74.4372
11
109.449
21
-74.43
0
LINE
8
BLACK
6
CONTINUOUS
10
109.449
20
-74.43
11
109.449
21
-74.43
0
LINE
8
BLACK
6
CONTINUOUS
10
109.449
20
-74.43
11
109.474
21
-74.4276
0
LINE
8
BLACK
6
CONTINUOUS
10
109.474
20
-74.4276
11
109.499
21
-74.43
0
LINE
8
BLACK
6
CONTINUOUS
10
109.499
20
-74.43
11
116.265
21
-74.43
0
LINE
8
BLACK
6
CONTINUOUS
10
116.265
20
-74.43
11
116.29
21
-74.4276
0
LINE
8
BLACK
6
CONTINUOUS
10
116.29
20
-74.4276
11
116.315
21
-74.43
0
LINE
8
BLACK
6
CONTINUOUS
10
116.315
20
-74.43
11
116.388
21
-74.4372
0
LINE
8
BLACK
6
CONTINUOUS
10
116.388
20
-74.4372
11
116.482
21
-74.4658
0
LINE
8
BLACK
6
CONTINUOUS
10
116.482
20
-74.4658
11
116.569
21
-74.5123
0
LINE
8
BLACK
6
CONTINUOUS
10
116.569
20
-74.5123
11
116.645
21
-74.5747
0
LINE
8
BLACK
6
CONTINUOUS
10
116.645
20
-74.5747
11
116.661
21
-74.5938
0
LINE
8
BLACK
6
CONTINUOUS
10
116.661
20
-74.5938
11
117.352
21
-75.2851
0
LINE
8
BLACK
6
CONTINUOUS
10
117.352
20
-75.2851
11
117.371
21
-75.3007
0
LINE
8
BLACK
6
CONTINUOUS
10
117.371
20
-75.3007
11
117.434
21
-75.3769
0
LINE
8
BLACK
6
CONTINUOUS
10
117.434
20
-75.3769
11
117.48
21
-75.4637
0
LINE
8
BLACK
6
CONTINUOUS
10
117.48
20
-75.4637
11
117.509
21
-75.558
0
LINE
8
BLACK
6
CONTINUOUS
10
117.509
20
-75.558
11
117.518
21
-75.656
0
LINE
8
BLACK
6
CONTINUOUS
10
117.518
20
-75.656
11
117.516
21
-75.6806
0
LINE
8
BLACK
6
CONTINUOUS
10
117.516
20
-75.6806
11
117.516
21
-86.3714
0
LINE
8
BLACK
6
CONTINUOUS
10
117.516
20
-86.3714
11
117.518
21
-86.396
0
LINE
8
BLACK
6
CONTINUOUS
10
117.518
20
-86.396
11
117.516
21
-86.4206
0
LINE
8
BLACK
6
CONTINUOUS
10
117.516
20
-86.4206
11
117.509
21
-86.494
0
LINE
8
BLACK
6
CONTINUOUS
10
117.509
20
-86.494
11
117.48
21
-86.5883
0
LINE
8
BLACK
6
CONTINUOUS
10
117.48
20
-86.5883
11
117.434
21
-86.6751
0
LINE
8
BLACK
6
CONTINUOUS
10
117.434
20
-86.6751
11
117.371
21
-86.7513
0
LINE
8
BLACK
6
CONTINUOUS
10
117.371
20
-86.7513
11
117.352
21
-86.7669
0
LINE
8
BLACK
6
CONTINUOUS
10
117.352
20
-86.7669
11
113.613
21
-90.5062
0
LINE
8
BLACK
6
CONTINUOUS
10
113.613
20
-90.5062
11
113.597
21
-90.5253
0
LINE
8
BLACK
6
CONTINUOUS
10
113.597
20
-90.5253
11
113.521
21
-90.5877
0
LINE
8
BLACK
6
CONTINUOUS
10
113.521
20
-90.5877
11
113.434
21
-90.6342
0
LINE
8
BLACK
6
CONTINUOUS
10
113.434
20
-90.6342
11
113.352
21
-90.6592
0
LINE
8
BLACK
6
CONTINUOUS
10
113.352
20
-90.6592
11
113.34
21
-90.6628
0
LINE
8
BLACK
6
CONTINUOUS
10
113.34
20
-90.6628
11
113.304
21
-90.6663
0
LINE
8
BLACK
6
CONTINUOUS
10
113.304
20
-90.6663
11
113.267
21
-90.67
0
LINE
8
BLACK
6
CONTINUOUS
10
113.267
20
-90.67
11
113.242
21
-90.6724
0
LINE
8
BLACK
6
CONTINUOUS
10
113.242
20
-90.6724
11
113.217
21
-90.67
0
LINE
8
BLACK
6
CONTINUOUS
10
113.217
20
-90.67
11
106.188
21
-90.67
0
LINE
8
BLACK
6
CONTINUOUS
10
106.188
20
-90.67
11
106.188
21
-89.67
0
LINE
8
BLACK
6
CONTINUOUS
10
113.182
20
-85.3778
11
113.064
21
-85.4962
0
LINE
8
BLACK
6
CONTINUOUS
10
113.064
20
-85.4962
11
112.925
21
-85.5893
0
LINE
8
BLACK
6
CONTINUOUS
10
112.925
20
-85.5893
11
112.77
21
-85.6533
0
LINE
8
BLACK
6
CONTINUOUS
10
112.77
20
-85.6533
11
112.606
21
-85.686
0
LINE
8
BLACK
6
CONTINUOUS
10
112.606
20
-85.686
11
112.438
21
-85.686
0
LINE
8
BLACK
6
CONTINUOUS
10
112.438
20
-85.686
11
112.274
21
-85.6533
0
LINE
8
BLACK
6
CONTINUOUS
10
112.274
20
-85.6533
11
112.119
21
-85.5893
0
LINE
8
BLACK
6
CONTINUOUS
10
112.119
20
-85.5893
11
111.98
21
-85.4962
0
LINE
8
BLACK
6
CONTINUOUS
10
111.98
20
-85.4962
11
111.862
21
-85.3778
0
LINE
8
BLACK
6
CONTINUOUS
10
111.862
20
-85.3778
11
111.769
21
-85.2386
0
LINE
8
BLACK
6
CONTINUOUS
10
111.769
20
-85.2386
11
111.705
21
-85.0839
0
LINE
8
BLACK
6
CONTINUOUS
10
111.705
20
-85.0839
11
111.672
21
-84.9197
0
LINE
8
BLACK
6
CONTINUOUS
10
111.672
20
-84.9197
11
111.672
21
-84.7523
0
LINE
8
BLACK
6
CONTINUOUS
10
111.672
20
-84.7523
11
111.705
21
-84.5881
0
LINE
8
BLACK
6
CONTINUOUS
10
111.705
20
-84.5881
11
111.769
21
-84.4334
0
LINE
8
BLACK
6
CONTINUOUS
10
111.769
20
-84.4334
11
111.862
21
-84.2942
0
LINE
8
BLACK
6
CONTINUOUS
10
111.862
20
-84.2942
11
111.98
21
-84.1758
0
LINE
8
BLACK
6
CONTINUOUS
10
111.98
20
-84.1758
11
112.119
21
-84.0827
0
LINE
8
BLACK
6
CONTINUOUS
10
112.119
20
-84.0827
11
112.274
21
-84.0187
0
LINE
8
BLACK
6
CONTINUOUS
10
112.274
20
-84.0187
11
112.438
21
-83.986
0
LINE
8
BLACK
6
CONTINUOUS
10
112.438
20
-83.986
11
112.606
21
-83.986
0
LINE
8
BLACK
6
CONTINUOUS
10
112.606
20
-83.986
11
112.77
21
-84.0187
0
LINE
8
BLACK
6
CONTINUOUS
10
112.77
20
-84.0187
11
112.925
21
-84.0827
0
LINE
8
BLACK
6
CONTINUOUS
10
112.925
20
-84.0827
11
113.064
21
-84.1758
0
LINE
8
BLACK
6
CONTINUOUS
10
113.064
20
-84.1758
11
113.182
21
-84.2942
0
LINE
8
BLACK
6
CONTINUOUS
10
113.182
20
-84.2942
11
113.21
21
-84.336
0
LINE
8
BLACK
6
CONTINUOUS
10
113.21
20
-84.336
11
114.316
21
-84.336
0
LINE
8
BLACK
6
CONTINUOUS
10
114.316
20
-84.336
11
114.316
21
-83.836
0
LINE
8
BLACK
6
CONTINUOUS
10
114.316
20
-83.836
11
116.316
21
-83.836
0
LINE
8
BLACK
6
CONTINUOUS
10
116.316
20
-83.836
11
116.316
21
-85.836
0
LINE
8
BLACK
6
CONTINUOUS
10
116.316
20
-85.836
11
114.316
21
-85.836
0
LINE
8
BLACK
6
CONTINUOUS
10
114.316
20
-85.836
11
114.316
21
-85.336
0
LINE
8
BLACK
6
CONTINUOUS
10
114.316
20
-85.336
11
113.21
21
-85.336
0
LINE
8
BLACK
6
CONTINUOUS
10
113.21
20
-85.336
11
113.182
21
-85.3778
0
LINE
8
BLACK
6
CONTINUOUS
10
101.609
20
-81.6846
11
101.772
21
-81.7524
0
LINE
8
BLACK
6
CONTINUOUS
10
101.772
20
-81.7524
11
101.92
21
-81.8509
0
LINE
8
BLACK
6
CONTINUOUS
10
101.92
20
-81.8509
11
102.045
21
-81.9763
0
LINE
8
BLACK
6
CONTINUOUS
10
102.045
20
-81.9763
11
102.144
21
-82.1237
0
LINE
8
BLACK
6
CONTINUOUS
10
102.144
20
-82.1237
11
102.154
21
-82.15
0
LINE
8
BLACK
6
CONTINUOUS
10
102.154
20
-82.15
11
102.85
21
-82.15
0
LINE
8
BLACK
6
CONTINUOUS
10
102.85
20
-82.15
11
102.87
21
-82.1481
0
LINE
8
BLACK
6
CONTINUOUS
10
102.87
20
-82.1481
11
102.89
21
-82.15
0
LINE
8
BLACK
6
CONTINUOUS
10
102.89
20
-82.15
11
102.89
21
-82.15
0
LINE
8
BLACK
6
CONTINUOUS
10
102.89
20
-82.15
11
102.948
21
-82.1558
0
LINE
8
BLACK
6
CONTINUOUS
10
102.948
20
-82.1558
11
103.024
21
-82.1787
0
LINE
8
BLACK
6
CONTINUOUS
10
103.024
20
-82.1787
11
103.093
21
-82.2158
0
LINE
8
BLACK
6
CONTINUOUS
10
103.093
20
-82.2158
11
103.154
21
-82.2658
0
LINE
8
BLACK
6
CONTINUOUS
10
103.154
20
-82.2658
11
103.167
21
-82.2811
0
LINE
8
BLACK
6
CONTINUOUS
10
103.167
20
-82.2811
11
104.384
21
-83.4982
0
LINE
8
BLACK
6
CONTINUOUS
10
104.384
20
-83.4982
11
104.441
21
-83.468
0
LINE
8
BLACK
6
CONTINUOUS
10
104.441
20
-83.468
11
104.667
21
-83.3994
0
LINE
8
BLACK
6
CONTINUOUS
10
104.667
20
-83.3994
11
104.843
21
-83.382
0
LINE
8
BLACK
6
CONTINUOUS
10
104.843
20
-83.382
11
104.961
21
-83.382
0
LINE
8
BLACK
6
CONTINUOUS
10
104.961
20
-83.382
11
105.137
21
-83.3994
0
LINE
8
BLACK
6
CONTINUOUS
10
105.137
20
-83.3994
11
105.363
21
-83.468
0
LINE
8
BLACK
6
CONTINUOUS
10
105.363
20
-83.468
11
105.572
21
-83.5794
0
LINE
8
BLACK
6
CONTINUOUS
10
105.572
20
-83.5794
11
105.755
21
-83.7294
0
LINE
8
BLACK
6
CONTINUOUS
10
105.755
20
-83.7294
11
105.905
21
-83.9121
0
LINE
8
BLACK
6
CONTINUOUS
10
105.905
20
-83.9121
11
106.016
21
-84.1206
0
LINE
8
BLACK
6
CONTINUOUS
10
106.016
20
-84.1206
11
106.085
21
-84.3468
0
LINE
8
BLACK
6
CONTINUOUS
10
106.085
20
-84.3468
11
106.108
21
-84.582
0
LINE
8
BLACK
6
CONTINUOUS
10
106.108
20
-84.582
11
106.085
21
-84.8172
0
LINE
8
BLACK
6
CONTINUOUS
10
106.085
20
-84.8172
11
106.016
21
-85.0434
0
LINE
8
BLACK
6
CONTINUOUS
10
106.016
20
-85.0434
11
105.905
21
-85.2519
0
LINE
8
BLACK
6
CONTINUOUS
10
105.905
20
-85.2519
11
105.755
21
-85.4346
0
LINE
8
BLACK
6
CONTINUOUS
10
105.755
20
-85.4346
11
105.572
21
-85.5846
0
LINE
8
BLACK
6
CONTINUOUS
10
105.572
20
-85.5846
11
105.363
21
-85.696
0
LINE
8
BLACK
6
CONTINUOUS
10
105.363
20
-85.696
11
105.137
21
-85.7646
0
LINE
8
BLACK
6
CONTINUOUS
10
105.137
20
-85.7646
11
104.961
21
-85.782
0
LINE
8
BLACK
6
CONTINUOUS
10
104.961
20
-85.782
11
104.843
21
-85.782
0
LINE
8
BLACK
6
CONTINUOUS
10
104.843
20
-85.782
11
104.667
21
-85.7646
0
LINE
8
BLACK
6
CONTINUOUS
10
104.667
20
-85.7646
11
104.441
21
-85.696
0
LINE
8
BLACK
6
CONTINUOUS
10
104.441
20
-85.696
11
104.232
21
-85.5846
0
LINE
8
BLACK
6
CONTINUOUS
10
104.232
20
-85.5846
11
104.049
21
-85.4346
0
LINE
8
BLACK
6
CONTINUOUS
10
104.049
20
-85.4346
11
103.899
21
-85.2519
0
LINE
8
BLACK
6
CONTINUOUS
10
103.899
20
-85.2519
11
103.788
21
-85.0434
0
LINE
8
BLACK
6
CONTINUOUS
10
103.788
20
-85.0434
11
103.719
21
-84.8172
0
LINE
8
BLACK
6
CONTINUOUS
10
103.719
20
-84.8172
11
103.696
21
-84.582
0
LINE
8
BLACK
6
CONTINUOUS
10
103.696
20
-84.582
11
103.719
21
-84.3468
0
LINE
8
BLACK
6
CONTINUOUS
10
103.719
20
-84.3468
11
103.788
21
-84.1206
0
LINE
8
BLACK
6
CONTINUOUS
10
103.788
20
-84.1206
11
103.818
21
-84.0639
0
LINE
8
BLACK
6
CONTINUOUS
10
103.818
20
-84.0639
11
102.704
21
-82.95
0
LINE
8
BLACK
6
CONTINUOUS
10
102.704
20
-82.95
11
102.154
21
-82.95
0
LINE
8
BLACK
6
CONTINUOUS
10
102.154
20
-82.95
11
102.144
21
-82.9763
0
LINE
8
BLACK
6
CONTINUOUS
10
102.144
20
-82.9763
11
102.045
21
-83.1237
0
LINE
8
BLACK
6
CONTINUOUS
10
102.045
20
-83.1237
11
101.92
21
-83.2491
0
LINE
8
BLACK
6
CONTINUOUS
10
101.92
20
-83.2491
11
101.772
21
-83.3476
0
LINE
8
BLACK
6
CONTINUOUS
10
101.772
20
-83.3476
11
101.609
21
-83.4154
0
LINE
8
BLACK
6
CONTINUOUS
10
101.609
20
-83.4154
11
101.435
21
-83.45
0
LINE
8
BLACK
6
CONTINUOUS
10
101.435
20
-83.45
11
101.257
21
-83.45
0
LINE
8
BLACK
6
CONTINUOUS
10
101.257
20
-83.45
11
101.083
21
-83.4154
0
LINE
8
BLACK
6
CONTINUOUS
10
101.083
20
-83.4154
11
100.92
21
-83.3476
0
LINE
8
BLACK
6
CONTINUOUS
10
100.92
20
-83.3476
11
100.772
21
-83.2491
0
LINE
8
BLACK
6
CONTINUOUS
10
100.772
20
-83.2491
11
100.647
21
-83.1237
0
LINE
8
BLACK
6
CONTINUOUS
10
100.647
20
-83.1237
11
100.548
21
-82.9763
0
LINE
8
BLACK
6
CONTINUOUS
10
100.548
20
-82.9763
11
100.481
21
-82.8125
0
LINE
8
BLACK
6
CONTINUOUS
10
100.481
20
-82.8125
11
100.446
21
-82.6386
0
LINE
8
BLACK
6
CONTINUOUS
10
100.446
20
-82.6386
11
100.446
21
-82.4614
0
LINE
8
BLACK
6
CONTINUOUS
10
100.446
20
-82.4614
11
100.481
21
-82.2875
0
LINE
8
BLACK
6
CONTINUOUS
10
100.481
20
-82.2875
11
100.548
21
-82.1237
0
LINE
8
BLACK
6
CONTINUOUS
10
100.548
20
-82.1237
11
100.647
21
-81.9763
0
LINE
8
BLACK
6
CONTINUOUS
10
100.647
20
-81.9763
11
100.772
21
-81.8509
0
LINE
8
BLACK
6
CONTINUOUS
10
100.772
20
-81.8509
11
100.92
21
-81.7524
0
LINE
8
BLACK
6
CONTINUOUS
10
100.92
20
-81.7524
11
101.083
21
-81.6846
0
LINE
8
BLACK
6
CONTINUOUS
10
101.083
20
-81.6846
11
101.257
21
-81.65
0
LINE
8
BLACK
6
CONTINUOUS
10
101.257
20
-81.65
11
101.435
21
-81.65
0
LINE
8
BLACK
6
CONTINUOUS
10
101.435
20
-81.65
11
101.609
21
-81.6846
0
LINE
8
BLACK
6
CONTINUOUS
10
116.316
20
-78.216
11
114.316
21
-78.216
0
LINE
8
BLACK
6
CONTINUOUS
10
114.316
20
-78.216
11
114.316
21
-77.716
0
LINE
8
BLACK
6
CONTINUOUS
10
114.316
20
-77.716
11
113.523
21
-77.716
0
LINE
8
BLACK
6
CONTINUOUS
10
113.523
20
-77.716
11
113.433
21
-77.8062
0
LINE
8
BLACK
6
CONTINUOUS
10
113.433
20
-77.8062
11
113.417
21
-77.8253
0
LINE
8
BLACK
6
CONTINUOUS
10
113.417
20
-77.8253
11
113.341
21
-77.8877
0
LINE
8
BLACK
6
CONTINUOUS
10
113.341
20
-77.8877
11
113.254
21
-77.9342
0
LINE
8
BLACK
6
CONTINUOUS
10
113.254
20
-77.9342
11
113.16
21
-77.9628
0
LINE
8
BLACK
6
CONTINUOUS
10
113.16
20
-77.9628
11
113.087
21
-77.97
0
LINE
8
BLACK
6
CONTINUOUS
10
113.087
20
-77.97
11
113.062
21
-77.9724
0
LINE
8
BLACK
6
CONTINUOUS
10
113.062
20
-77.9724
11
113.037
21
-77.97
0
LINE
8
BLACK
6
CONTINUOUS
10
113.037
20
-77.97
11
111.178
21
-77.97
0
LINE
8
BLACK
6
CONTINUOUS
10
111.178
20
-77.97
11
111.15
21
-78.0118
0
LINE
8
BLACK
6
CONTINUOUS
10
111.15
20
-78.0118
11
111.032
21
-78.1302
0
LINE
8
BLACK
6
CONTINUOUS
10
111.032
20
-78.1302
11
110.893
21
-78.2233
0
LINE
8
BLACK
6
CONTINUOUS
10
110.893
20
-78.2233
11
110.738
21
-78.2873
0
LINE
8
BLACK
6
CONTINUOUS
10
110.738
20
-78.2873
11
110.574
21
-78.32
0
LINE
8
BLACK
6
CONTINUOUS
10
110.574
20
-78.32
11
110.406
21
-78.32
0
LINE
8
BLACK
6
CONTINUOUS
10
110.406
20
-78.32
11
110.242
21
-78.2873
0
LINE
8
BLACK
6
CONTINUOUS
10
110.242
20
-78.2873
11
110.087
21
-78.2233
0
LINE
8
BLACK
6
CONTINUOUS
10
110.087
20
-78.2233
11
109.948
21
-78.1302
0
LINE
8
BLACK
6
CONTINUOUS
10
109.948
20
-78.1302
11
109.83
21
-78.0118
0
LINE
8
BLACK
6
CONTINUOUS
10
109.83
20
-78.0118
11
109.737
21
-77.8726
0
LINE
8
BLACK
6
CONTINUOUS
10
109.737
20
-77.8726
11
109.673
21
-77.7179
0
LINE
8
BLACK
6
CONTINUOUS
10
109.673
20
-77.7179
11
109.64
21
-77.5537
0
LINE
8
BLACK
6
CONTINUOUS
10
109.64
20
-77.5537
11
109.64
21
-77.3863
0
LINE
8
BLACK
6
CONTINUOUS
10
109.64
20
-77.3863
11
109.673
21
-77.2221
0
LINE
8
BLACK
6
CONTINUOUS
10
109.673
20
-77.2221
11
109.737
21
-77.0674
0
LINE
8
BLACK
6
CONTINUOUS
10
109.737
20
-77.0674
11
109.83
21
-76.9282
0
LINE
8
BLACK
6
CONTINUOUS
10
109.83
20
-76.9282
11
109.948
21
-76.8098
0
LINE
8
BLACK
6
CONTINUOUS
10
109.948
20
-76.8098
11
110.087
21
-76.7167
0
LINE
8
BLACK
6
CONTINUOUS
10
110.087
20
-76.7167
11
110.242
21
-76.6527
0
LINE
8
BLACK
6
CONTINUOUS
10
110.242
20
-76.6527
11
110.406
21
-76.62
0
LINE
8
BLACK
6
CONTINUOUS
10
110.406
20
-76.62
11
110.574
21
-76.62
0
LINE
8
BLACK
6
CONTINUOUS
10
110.574
20
-76.62
11
110.738
21
-76.6527
0
LINE
8
BLACK
6
CONTINUOUS
10
110.738
20
-76.6527
11
110.893
21
-76.7167
0
LINE
8
BLACK
6
CONTINUOUS
10
110.893
20
-76.7167
11
111.032
21
-76.8098
0
LINE
8
BLACK
6
CONTINUOUS
10
111.032
20
-76.8098
11
111.15
21
-76.9282
0
LINE
8
BLACK
6
CONTINUOUS
10
111.15
20
-76.9282
11
111.178
21
-76.97
0
LINE
8
BLACK
6
CONTINUOUS
10
111.178
20
-76.97
11
112.855
21
-76.97
0
LINE
8
BLACK
6
CONTINUOUS
10
112.855
20
-76.97
11
112.945
21
-76.8798
0
LINE
8
BLACK
6
CONTINUOUS
10
112.945
20
-76.8798
11
112.961
21
-76.8607
0
LINE
8
BLACK
6
CONTINUOUS
10
112.961
20
-76.8607
11
113.037
21
-76.7983
0
LINE
8
BLACK
6
CONTINUOUS
10
113.037
20
-76.7983
11
113.124
21
-76.7518
0
LINE
8
BLACK
6
CONTINUOUS
10
113.124
20
-76.7518
11
113.218
21
-76.7232
0
LINE
8
BLACK
6
CONTINUOUS
10
113.218
20
-76.7232
11
113.291
21
-76.716
0
LINE
8
BLACK
6
CONTINUOUS
10
113.291
20
-76.716
11
113.291
21
-76.716
0
LINE
8
BLACK
6
CONTINUOUS
10
113.291
20
-76.716
11
113.316
21
-76.7136
0
LINE
8
BLACK
6
CONTINUOUS
10
113.316
20
-76.7136
11
113.341
21
-76.716
0
LINE
8
BLACK
6
CONTINUOUS
10
113.341
20
-76.716
11
114.316
21
-76.716
0
LINE
8
BLACK
6
CONTINUOUS
10
114.316
20
-76.716
11
114.316
21
-76.216
0
LINE
8
BLACK
6
CONTINUOUS
10
114.316
20
-76.216
11
116.316
21
-76.216
0
LINE
8
BLACK
6
CONTINUOUS
10
116.316
20
-76.216
11
116.316
21
-78.216
0
LINE
8
BLACK
6
CONTINUOUS
10
91.2614
20
-59.7989
11
91.6254
21
-59.9496
0
LINE
8
BLACK
6
CONTINUOUS
10
91.6254
20
-59.9496
11
91.9529
21
-60.1685
0
LINE
8
BLACK
6
CONTINUOUS
10
91.9529
20
-60.1685
11
92.2315
21
-60.4471
0
LINE
8
BLACK
6
CONTINUOUS
10
92.2315
20
-60.4471
11
92.4504
21
-60.7746
0
LINE
8
BLACK
6
CONTINUOUS
10
92.4504
20
-60.7746
11
92.6011
21
-61.1386
0
LINE
8
BLACK
6
CONTINUOUS
10
92.6011
20
-61.1386
11
92.678
21
-61.525
0
LINE
8
BLACK
6
CONTINUOUS
10
92.678
20
-61.525
11
92.678
21
-61.919
0
LINE
8
BLACK
6
CONTINUOUS
10
92.678
20
-61.919
11
92.6011
21
-62.3054
0
LINE
8
BLACK
6
CONTINUOUS
10
92.6011
20
-62.3054
11
92.4504
21
-62.6694
0
LINE
8
BLACK
6
CONTINUOUS
10
92.4504
20
-62.6694
11
92.2315
21
-62.9969
0
LINE
8
BLACK
6
CONTINUOUS
10
92.2315
20
-62.9969
11
91.9529
21
-63.2755
0
LINE
8
BLACK
6
CONTINUOUS
10
91.9529
20
-63.2755
11
91.6254
21
-63.4944
0
LINE
8
BLACK
6
CONTINUOUS
10
91.6254
20
-63.4944
11
91.2614
21
-63.6451
0
LINE
8
BLACK
6
CONTINUOUS
10
91.2614
20
-63.6451
11
90.875
21
-63.722
0
LINE
8
BLACK
6
CONTINUOUS
10
90.875
20
-63.722
11
90.481
21
-63.722
0
LINE
8
BLACK
6
CONTINUOUS
10
90.481
20
-63.722
11
90.0946
21
-63.6451
0
LINE
8
BLACK
6
CONTINUOUS
10
90.0946
20
-63.6451
11
89.7306
21
-63.4944
0
LINE
8
BLACK
6
CONTINUOUS
10
89.7306
20
-63.4944
11
89.4031
21
-63.2755
0
LINE
8
BLACK
6
CONTINUOUS
10
89.4031
20
-63.2755
11
89.1245
21
-62.9969
0
LINE
8
BLACK
6
CONTINUOUS
10
89.1245
20
-62.9969
11
88.9056
21
-62.6694
0
LINE
8
BLACK
6
CONTINUOUS
10
88.9056
20
-62.6694
11
88.7549
21
-62.3054
0
LINE
8
BLACK
6
CONTINUOUS
10
88.7549
20
-62.3054
11
88.678
21
-61.919
0
LINE
8
BLACK
6
CONTINUOUS
10
88.678
20
-61.919
11
88.678
21
-61.525
0
LINE
8
BLACK
6
CONTINUOUS
10
88.678
20
-61.525
11
88.7549
21
-61.1386
0
LINE
8
BLACK
6
CONTINUOUS
10
88.7549
20
-61.1386
11
88.9056
21
-60.7746
0
LINE
8
BLACK
6
CONTINUOUS
10
88.9056
20
-60.7746
11
89.1245
21
-60.4471
0
LINE
8
BLACK
6
CONTINUOUS
10
89.1245
20
-60.4471
11
89.4031
21
-60.1685
0
LINE
8
BLACK
6
CONTINUOUS
10
89.4031
20
-60.1685
11
89.7306
21
-59.9496
0
LINE
8
BLACK
6
CONTINUOUS
10
89.7306
20
-59.9496
11
90.0946
21
-59.7989
0
LINE
8
BLACK
6
CONTINUOUS
10
90.0946
20
-59.7989
11
90.481
21
-59.722
0
LINE
8
BLACK
6
CONTINUOUS
10
90.481
20
-59.722
11
90.875
21
-59.722
0
LINE
8
BLACK
6
CONTINUOUS
10
90.875
20
-59.722
11
91.2614
21
-59.7989
0
LINE
8
BLACK
6
CONTINUOUS
10
118.439
20
-59.5449
11
118.803
21
-59.6956
0
LINE
8
BLACK
6
CONTINUOUS
10
118.803
20
-59.6956
11
119.131
21
-59.9145
0
LINE
8
BLACK
6
CONTINUOUS
10
119.131
20
-59.9145
11
119.41
21
-60.1931
0
LINE
8
BLACK
6
CONTINUOUS
10
119.41
20
-60.1931
11
119.628
21
-60.5206
0
LINE
8
BLACK
6
CONTINUOUS
10
119.628
20
-60.5206
11
119.779
21
-60.8846
0
LINE
8
BLACK
6
CONTINUOUS
10
119.779
20
-60.8846
11
119.856
21
-61.271
0
LINE
8
BLACK
6
CONTINUOUS
10
119.856
20
-61.271
11
119.856
21
-61.665
0
LINE
8
BLACK
6
CONTINUOUS
10
119.856
20
-61.665
11
119.779
21
-62.0514
0
LINE
8
BLACK
6
CONTINUOUS
10
119.779
20
-62.0514
11
119.628
21
-62.4154
0
LINE
8
BLACK
6
CONTINUOUS
10
119.628
20
-62.4154
11
119.41
21
-62.7429
0
LINE
8
BLACK
6
CONTINUOUS
10
119.41
20
-62.7429
11
119.131
21
-63.0215
0
LINE
8
BLACK
6
CONTINUOUS
10
119.131
20
-63.0215
11
118.803
21
-63.2404
0
LINE
8
BLACK
6
CONTINUOUS
10
118.803
20
-63.2404
11
118.439
21
-63.3911
0
LINE
8
BLACK
6
CONTINUOUS
10
118.439
20
-63.3911
11
118.053
21
-63.468
0
LINE
8
BLACK
6
CONTINUOUS
10
118.053
20
-63.468
11
117.659
21
-63.468
0
LINE
8
BLACK
6
CONTINUOUS
10
117.659
20
-63.468
11
117.273
21
-63.3911
0
LINE
8
BLACK
6
CONTINUOUS
10
117.273
20
-63.3911
11
116.909
21
-63.2404
0
LINE
8
BLACK
6
CONTINUOUS
10
116.909
20
-63.2404
11
116.581
21
-63.0215
0
LINE
8
BLACK
6
CONTINUOUS
10
116.581
20
-63.0215
11
116.302
21
-62.7429
0
LINE
8
BLACK
6
CONTINUOUS
10
116.302
20
-62.7429
11
116.084
21
-62.4154
0
LINE
8
BLACK
6
CONTINUOUS
10
116.084
20
-62.4154
11
115.933
21
-62.0514
0
LINE
8
BLACK
6
CONTINUOUS
10
115.933
20
-62.0514
11
115.856
21
-61.665
0
LINE
8
BLACK
6
CONTINUOUS
10
115.856
20
-61.665
11
115.856
21
-61.271
0
LINE
8
BLACK
6
CONTINUOUS
10
115.856
20
-61.271
11
115.933
21
-60.8846
0
LINE
8
BLACK
6
CONTINUOUS
10
115.933
20
-60.8846
11
116.084
21
-60.5206
0
LINE
8
BLACK
6
CONTINUOUS
10
116.084
20
-60.5206
11
116.302
21
-60.1931
0
LINE
8
BLACK
6
CONTINUOUS
10
116.302
20
-60.1931
11
116.581
21
-59.9145
0
LINE
8
BLACK
6
CONTINUOUS
10
116.581
20
-59.9145
11
116.909
21
-59.6956
0
LINE
8
BLACK
6
CONTINUOUS
10
116.909
20
-59.6956
11
117.273
21
-59.5449
0
LINE
8
BLACK
6
CONTINUOUS
10
117.273
20
-59.5449
11
117.659
21
-59.468
0
LINE
8
BLACK
6
CONTINUOUS
10
117.659
20
-59.468
11
118.053
21
-59.468
0
LINE
8
BLACK
6
CONTINUOUS
10
118.053
20
-59.468
11
118.439
21
-59.5449
0
CIRCLE
8
BLACK
10
117.856
20
-61.468
40
1.5
0
CIRCLE
8
BLACK
10
90.678
20
-61.722
40
1.5
0
CIRCLE
8
BLACK
10
118.11
20
-113.538
40
1.5
0
CIRCLE
8
BLACK
10
90.678
20
-113.538
40
1.5
0
CIRCLE
8
BLACK
10
102.616
20
-95.25
40
0.4
0
CIRCLE
8
BLACK
10
104.14
20
-106.68
40
0.4
0
CIRCLE
8
BLACK
10
112.776
20
-104.902
40
0.4
0
CIRCLE
8
BLACK
10
112.522
20
-84.836
40
0.4
0
CIRCLE
8
BLACK
10
110.306
20
-104.07
40
0.4
0
CIRCLE
8
BLACK
10
110.49
20
-77.47
40
0.4
  0
ENDSEC
  0
EOF
