  0
SECTION
  2
HEADER
  9
$ANGBASE
  50
0.0
  9
$ANGDIR
  70
  1
  9
$MEASUREMENT
  70
0
  0
ENDSEC
  0
SECTION
  2
TABLES
  0
TABLE
  2
LTYPE
  70
4
  0
LTYPE
  5
40F
  2
CONTINUOUS
  70
0
  3
Solid line
  72
65
  73
0
  40
0.0
  0
LTYPE
  5
410
  2
DASHDOT
 70
0
  3
Dash Dot ____ _ ____ _
 72
65
 73
4
 40
2.0
 49
1.25
 49
-0.25
 49
0.25
 49
-0.25
  0
LTYPE
  5
411
  2
DASHED
 70
0
  3
Dashed __ __ __ __ __
 72
65
 73
2
 40
0.75
 49
0.5
 49
-0.25
  0
LTYPE
  5
43B
  2
DOTTED
 70
0
  3
Dotted .  .  .  .
 72
65
 73
2
 40
0.2
 49
0.0
 49
-0.2
  0
ENDTAB
  0
TABLE
  2
STYLE
  70
4
  0
STYLE
  2
KICAD
  70
0
  40
0
  41
1
  42
1
  50
0
  71
0
  3
isocp.shx
  0
STYLE
  2
KICADB
  70
0
  40
0
  41
1
  42
1
  50
0
  71
0
  3
isocp.shx
  0
STYLE
  2
KICADI
  70
0
  40
0
  41
1
  42
1
  50
15
  71
0
  3
isocp.shx
  0
STYLE
  2
KICADBI
  70
0
  40
0
  41
1
  42
1
  50
15
  71
0
  3
isocp.shx
  0
ENDTAB
  0
TABLE
  2
LAYER
  70
30
  0
LAYER
  2
BLACK
  70
0
  62
7
  6
CONTINUOUS
  0
LAYER
  2
GRAY1
  70
0
  62
251
  6
CONTINUOUS
  0
LAYER
  2
GRAY2
  70
0
  62
8
  6
CONTINUOUS
  0
LAYER
  2
GRAY3
  70
0
  62
9
  6
CONTINUOUS
  0
LAYER
  2
WHITE
  70
0
  62
7
  6
CONTINUOUS
  0
LAYER
  2
LYELLOW
  70
0
  62
51
  6
CONTINUOUS
  0
LAYER
  2
BLUE1
  70
0
  62
178
  6
CONTINUOUS
  0
LAYER
  2
GREEN1
  70
0
  62
98
  6
CONTINUOUS
  0
LAYER
  2
CYAN1
  70
0
  62
138
  6
CONTINUOUS
  0
LAYER
  2
RED1
  70
0
  62
18
  6
CONTINUOUS
  0
LAYER
  2
MAGENTA1
  70
0
  62
228
  6
CONTINUOUS
  0
LAYER
  2
BROWN1
  70
0
  62
58
  6
CONTINUOUS
  0
LAYER
  2
BLUE2
  70
0
  62
5
  6
CONTINUOUS
  0
LAYER
  2
GREEN2
  70
0
  62
3
  6
CONTINUOUS
  0
LAYER
  2
CYAN2
  70
0
  62
4
  6
CONTINUOUS
  0
LAYER
  2
RED2
  70
0
  62
1
  6
CONTINUOUS
  0
LAYER
  2
MAGENTA2
  70
0
  62
6
  6
CONTINUOUS
  0
LAYER
  2
BROWN2
  70
0
  62
54
  6
CONTINUOUS
  0
LAYER
  2
BLUE3
  70
0
  62
171
  6
CONTINUOUS
  0
LAYER
  2
GREEN3
  70
0
  62
91
  6
CONTINUOUS
  0
LAYER
  2
CYAN3
  70
0
  62
131
  6
CONTINUOUS
  0
LAYER
  2
RED3
  70
0
  62
11
  6
CONTINUOUS
  0
LAYER
  2
MAGENTA3
  70
0
  62
221
  6
CONTINUOUS
  0
LAYER
  2
YELLOW3
  70
0
  62
2
  6
CONTINUOUS
  0
LAYER
  2
BLUE4
  70
0
  62
5
  6
CONTINUOUS
  0
LAYER
  2
GREEN4
  70
0
  62
3
  6
CONTINUOUS
  0
LAYER
  2
CYAN4
  70
0
  62
4
  6
CONTINUOUS
  0
LAYER
  2
RED4
  70
0
  62
1
  6
CONTINUOUS
  0
LAYER
  2
MAGENTA4
  70
0
  62
6
  6
CONTINUOUS
  0
LAYER
  2
YELLOW4
  70
0
  62
2
  6
CONTINUOUS
  0
ENDTAB
  0
ENDSEC
  0
SECTION
  2
ENTITIES
0
LINE
8
BLACK
6
CONTINUOUS
10
118.693
20
-111.615
11
119.057
21
-111.766
0
LINE
8
BLACK
6
CONTINUOUS
10
119.057
20
-111.766
11
119.385
21
-111.984
0
LINE
8
BLACK
6
CONTINUOUS
10
119.385
20
-111.984
11
119.664
21
-112.263
0
LINE
8
BLACK
6
CONTINUOUS
10
119.664
20
-112.263
11
119.882
21
-112.591
0
LINE
8
BLACK
6
CONTINUOUS
10
119.882
20
-112.591
11
120.033
21
-112.955
0
LINE
8
BLACK
6
CONTINUOUS
10
120.033
20
-112.955
11
120.11
21
-113.341
0
LINE
8
BLACK
6
CONTINUOUS
10
120.11
20
-113.341
11
120.11
21
-113.735
0
LINE
8
BLACK
6
CONTINUOUS
10
120.11
20
-113.735
11
120.033
21
-114.121
0
LINE
8
BLACK
6
CONTINUOUS
10
120.033
20
-114.121
11
119.882
21
-114.485
0
LINE
8
BLACK
6
CONTINUOUS
10
119.882
20
-114.485
11
119.664
21
-114.813
0
LINE
8
BLACK
6
CONTINUOUS
10
119.664
20
-114.813
11
119.385
21
-115.092
0
LINE
8
BLACK
6
CONTINUOUS
10
119.385
20
-115.092
11
119.057
21
-115.31
0
LINE
8
BLACK
6
CONTINUOUS
10
119.057
20
-115.31
11
118.693
21
-115.461
0
LINE
8
BLACK
6
CONTINUOUS
10
118.693
20
-115.461
11
118.307
21
-115.538
0
LINE
8
BLACK
6
CONTINUOUS
10
118.307
20
-115.538
11
117.913
21
-115.538
0
LINE
8
BLACK
6
CONTINUOUS
10
117.913
20
-115.538
11
117.527
21
-115.461
0
LINE
8
BLACK
6
CONTINUOUS
10
117.527
20
-115.461
11
117.163
21
-115.31
0
LINE
8
BLACK
6
CONTINUOUS
10
117.163
20
-115.31
11
116.835
21
-115.092
0
LINE
8
BLACK
6
CONTINUOUS
10
116.835
20
-115.092
11
116.556
21
-114.813
0
LINE
8
BLACK
6
CONTINUOUS
10
116.556
20
-114.813
11
116.338
21
-114.485
0
LINE
8
BLACK
6
CONTINUOUS
10
116.338
20
-114.485
11
116.187
21
-114.121
0
LINE
8
BLACK
6
CONTINUOUS
10
116.187
20
-114.121
11
116.11
21
-113.735
0
LINE
8
BLACK
6
CONTINUOUS
10
116.11
20
-113.735
11
116.11
21
-113.341
0
LINE
8
BLACK
6
CONTINUOUS
10
116.11
20
-113.341
11
116.187
21
-112.955
0
LINE
8
BLACK
6
CONTINUOUS
10
116.187
20
-112.955
11
116.338
21
-112.591
0
LINE
8
BLACK
6
CONTINUOUS
10
116.338
20
-112.591
11
116.556
21
-112.263
0
LINE
8
BLACK
6
CONTINUOUS
10
116.556
20
-112.263
11
116.835
21
-111.984
0
LINE
8
BLACK
6
CONTINUOUS
10
116.835
20
-111.984
11
117.163
21
-111.766
0
LINE
8
BLACK
6
CONTINUOUS
10
117.163
20
-111.766
11
117.527
21
-111.615
0
LINE
8
BLACK
6
CONTINUOUS
10
117.527
20
-111.615
11
117.913
21
-111.538
0
LINE
8
BLACK
6
CONTINUOUS
10
117.913
20
-111.538
11
118.307
21
-111.538
0
LINE
8
BLACK
6
CONTINUOUS
10
118.307
20
-111.538
11
118.693
21
-111.615
0
LINE
8
BLACK
6
CONTINUOUS
10
91.2614
20
-111.615
11
91.6254
21
-111.766
0
LINE
8
BLACK
6
CONTINUOUS
10
91.6254
20
-111.766
11
91.9529
21
-111.984
0
LINE
8
BLACK
6
CONTINUOUS
10
91.9529
20
-111.984
11
92.2315
21
-112.263
0
LINE
8
BLACK
6
CONTINUOUS
10
92.2315
20
-112.263
11
92.4504
21
-112.591
0
LINE
8
BLACK
6
CONTINUOUS
10
92.4504
20
-112.591
11
92.6011
21
-112.955
0
LINE
8
BLACK
6
CONTINUOUS
10
92.6011
20
-112.955
11
92.678
21
-113.341
0
LINE
8
BLACK
6
CONTINUOUS
10
92.678
20
-113.341
11
92.678
21
-113.735
0
LINE
8
BLACK
6
CONTINUOUS
10
92.678
20
-113.735
11
92.6011
21
-114.121
0
LINE
8
BLACK
6
CONTINUOUS
10
92.6011
20
-114.121
11
92.4504
21
-114.485
0
LINE
8
BLACK
6
CONTINUOUS
10
92.4504
20
-114.485
11
92.2315
21
-114.813
0
LINE
8
BLACK
6
CONTINUOUS
10
92.2315
20
-114.813
11
91.9529
21
-115.092
0
LINE
8
BLACK
6
CONTINUOUS
10
91.9529
20
-115.092
11
91.6254
21
-115.31
0
LINE
8
BLACK
6
CONTINUOUS
10
91.6254
20
-115.31
11
91.2614
21
-115.461
0
LINE
8
BLACK
6
CONTINUOUS
10
91.2614
20
-115.461
11
90.875
21
-115.538
0
LINE
8
BLACK
6
CONTINUOUS
10
90.875
20
-115.538
11
90.481
21
-115.538
0
LINE
8
BLACK
6
CONTINUOUS
10
90.481
20
-115.538
11
90.0946
21
-115.461
0
LINE
8
BLACK
6
CONTINUOUS
10
90.0946
20
-115.461
11
89.7306
21
-115.31
0
LINE
8
BLACK
6
CONTINUOUS
10
89.7306
20
-115.31
11
89.4031
21
-115.092
0
LINE
8
BLACK
6
CONTINUOUS
10
89.4031
20
-115.092
11
89.1245
21
-114.813
0
LINE
8
BLACK
6
CONTINUOUS
10
89.1245
20
-114.813
11
88.9056
21
-114.485
0
LINE
8
BLACK
6
CONTINUOUS
10
88.9056
20
-114.485
11
88.7549
21
-114.121
0
LINE
8
BLACK
6
CONTINUOUS
10
88.7549
20
-114.121
11
88.678
21
-113.735
0
LINE
8
BLACK
6
CONTINUOUS
10
88.678
20
-113.735
11
88.678
21
-113.341
0
LINE
8
BLACK
6
CONTINUOUS
10
88.678
20
-113.341
11
88.7549
21
-112.955
0
LINE
8
BLACK
6
CONTINUOUS
10
88.7549
20
-112.955
11
88.9056
21
-112.591
0
LINE
8
BLACK
6
CONTINUOUS
10
88.9056
20
-112.591
11
89.1245
21
-112.263
0
LINE
8
BLACK
6
CONTINUOUS
10
89.1245
20
-112.263
11
89.4031
21
-111.984
0
LINE
8
BLACK
6
CONTINUOUS
10
89.4031
20
-111.984
11
89.7306
21
-111.766
0
LINE
8
BLACK
6
CONTINUOUS
10
89.7306
20
-111.766
11
90.0946
21
-111.615
0
LINE
8
BLACK
6
CONTINUOUS
10
90.0946
20
-111.615
11
90.481
21
-111.538
0
LINE
8
BLACK
6
CONTINUOUS
10
90.481
20
-111.538
11
90.875
21
-111.538
0
LINE
8
BLACK
6
CONTINUOUS
10
90.875
20
-111.538
11
91.2614
21
-111.615
0
LINE
8
BLACK
6
CONTINUOUS
10
100.568
20
-108.45
11
98.568
21
-108.45
0
LINE
8
BLACK
6
CONTINUOUS
10
98.568
20
-108.45
11
98.568
21
-107.45
0
LINE
8
BLACK
6
CONTINUOUS
10
98.568
20
-107.45
11
100.568
21
-107.45
0
LINE
8
BLACK
6
CONTINUOUS
10
100.568
20
-107.45
11
100.568
21
-108.45
0
LINE
8
BLACK
6
CONTINUOUS
10
108.188
20
-108.45
11
106.188
21
-108.45
0
LINE
8
BLACK
6
CONTINUOUS
10
106.188
20
-108.45
11
106.188
21
-107.45
0
LINE
8
BLACK
6
CONTINUOUS
10
106.188
20
-107.45
11
108.188
21
-107.45
0
LINE
8
BLACK
6
CONTINUOUS
10
108.188
20
-107.45
11
108.188
21
-108.45
0
LINE
8
BLACK
6
CONTINUOUS
10
102.864
20
-94.4327
11
103.019
21
-94.4967
0
LINE
8
BLACK
6
CONTINUOUS
10
103.019
20
-94.4967
11
103.158
21
-94.5898
0
LINE
8
BLACK
6
CONTINUOUS
10
103.158
20
-94.5898
11
103.276
21
-94.7082
0
LINE
8
BLACK
6
CONTINUOUS
10
103.276
20
-94.7082
11
103.369
21
-94.8474
0
LINE
8
BLACK
6
CONTINUOUS
10
103.369
20
-94.8474
11
103.433
21
-95.0021
0
LINE
8
BLACK
6
CONTINUOUS
10
103.433
20
-95.0021
11
103.466
21
-95.1663
0
LINE
8
BLACK
6
CONTINUOUS
10
103.466
20
-95.1663
11
103.466
21
-95.3337
0
LINE
8
BLACK
6
CONTINUOUS
10
103.466
20
-95.3337
11
103.433
21
-95.4979
0
LINE
8
BLACK
6
CONTINUOUS
10
103.433
20
-95.4979
11
103.369
21
-95.6526
0
LINE
8
BLACK
6
CONTINUOUS
10
103.369
20
-95.6526
11
103.276
21
-95.7918
0
LINE
8
BLACK
6
CONTINUOUS
10
103.276
20
-95.7918
11
103.158
21
-95.9102
0
LINE
8
BLACK
6
CONTINUOUS
10
103.158
20
-95.9102
11
103.116
21
-95.9382
0
LINE
8
BLACK
6
CONTINUOUS
10
103.116
20
-95.9382
11
103.116
21
-104.949
0
LINE
8
BLACK
6
CONTINUOUS
10
103.116
20
-104.949
11
104.007
21
-105.84
0
LINE
8
BLACK
6
CONTINUOUS
10
104.007
20
-105.84
11
104.056
21
-105.83
0
LINE
8
BLACK
6
CONTINUOUS
10
104.056
20
-105.83
11
104.224
21
-105.83
0
LINE
8
BLACK
6
CONTINUOUS
10
104.224
20
-105.83
11
104.388
21
-105.863
0
LINE
8
BLACK
6
CONTINUOUS
10
104.388
20
-105.863
11
104.543
21
-105.927
0
LINE
8
BLACK
6
CONTINUOUS
10
104.543
20
-105.927
11
104.682
21
-106.02
0
LINE
8
BLACK
6
CONTINUOUS
10
104.682
20
-106.02
11
104.8
21
-106.138
0
LINE
8
BLACK
6
CONTINUOUS
10
104.8
20
-106.138
11
104.893
21
-106.277
0
LINE
8
BLACK
6
CONTINUOUS
10
104.893
20
-106.277
11
104.957
21
-106.432
0
LINE
8
BLACK
6
CONTINUOUS
10
104.957
20
-106.432
11
104.99
21
-106.596
0
LINE
8
BLACK
6
CONTINUOUS
10
104.99
20
-106.596
11
104.99
21
-106.764
0
LINE
8
BLACK
6
CONTINUOUS
10
104.99
20
-106.764
11
104.957
21
-106.928
0
LINE
8
BLACK
6
CONTINUOUS
10
104.957
20
-106.928
11
104.893
21
-107.083
0
LINE
8
BLACK
6
CONTINUOUS
10
104.893
20
-107.083
11
104.8
21
-107.222
0
LINE
8
BLACK
6
CONTINUOUS
10
104.8
20
-107.222
11
104.682
21
-107.34
0
LINE
8
BLACK
6
CONTINUOUS
10
104.682
20
-107.34
11
104.543
21
-107.433
0
LINE
8
BLACK
6
CONTINUOUS
10
104.543
20
-107.433
11
104.388
21
-107.497
0
LINE
8
BLACK
6
CONTINUOUS
10
104.388
20
-107.497
11
104.224
21
-107.53
0
LINE
8
BLACK
6
CONTINUOUS
10
104.224
20
-107.53
11
104.056
21
-107.53
0
LINE
8
BLACK
6
CONTINUOUS
10
104.056
20
-107.53
11
103.892
21
-107.497
0
LINE
8
BLACK
6
CONTINUOUS
10
103.892
20
-107.497
11
103.737
21
-107.433
0
LINE
8
BLACK
6
CONTINUOUS
10
103.737
20
-107.433
11
103.598
21
-107.34
0
LINE
8
BLACK
6
CONTINUOUS
10
103.598
20
-107.34
11
103.48
21
-107.222
0
LINE
8
BLACK
6
CONTINUOUS
10
103.48
20
-107.222
11
103.387
21
-107.083
0
LINE
8
BLACK
6
CONTINUOUS
10
103.387
20
-107.083
11
103.323
21
-106.928
0
LINE
8
BLACK
6
CONTINUOUS
10
103.323
20
-106.928
11
103.29
21
-106.764
0
LINE
8
BLACK
6
CONTINUOUS
10
103.29
20
-106.764
11
103.29
21
-106.596
0
LINE
8
BLACK
6
CONTINUOUS
10
103.29
20
-106.596
11
103.3
21
-106.547
0
LINE
8
BLACK
6
CONTINUOUS
10
103.3
20
-106.547
11
102.28
21
-105.527
0
LINE
8
BLACK
6
CONTINUOUS
10
102.28
20
-105.527
11
102.261
21
-105.511
0
LINE
8
BLACK
6
CONTINUOUS
10
102.261
20
-105.511
11
102.198
21
-105.435
0
LINE
8
BLACK
6
CONTINUOUS
10
102.198
20
-105.435
11
102.152
21
-105.348
0
LINE
8
BLACK
6
CONTINUOUS
10
102.152
20
-105.348
11
102.143
21
-105.32
0
LINE
8
BLACK
6
CONTINUOUS
10
102.143
20
-105.32
11
102.123
21
-105.254
0
LINE
8
BLACK
6
CONTINUOUS
10
102.123
20
-105.254
11
102.114
21
-105.156
0
LINE
8
BLACK
6
CONTINUOUS
10
102.114
20
-105.156
11
102.116
21
-105.131
0
LINE
8
BLACK
6
CONTINUOUS
10
102.116
20
-105.131
11
102.116
21
-95.9382
0
LINE
8
BLACK
6
CONTINUOUS
10
102.116
20
-95.9382
11
102.074
21
-95.9102
0
LINE
8
BLACK
6
CONTINUOUS
10
102.074
20
-95.9102
11
101.956
21
-95.7918
0
LINE
8
BLACK
6
CONTINUOUS
10
101.956
20
-95.7918
11
101.863
21
-95.6526
0
LINE
8
BLACK
6
CONTINUOUS
10
101.863
20
-95.6526
11
101.799
21
-95.4979
0
LINE
8
BLACK
6
CONTINUOUS
10
101.799
20
-95.4979
11
101.766
21
-95.3337
0
LINE
8
BLACK
6
CONTINUOUS
10
101.766
20
-95.3337
11
101.766
21
-95.1663
0
LINE
8
BLACK
6
CONTINUOUS
10
101.766
20
-95.1663
11
101.799
21
-95.0021
0
LINE
8
BLACK
6
CONTINUOUS
10
101.799
20
-95.0021
11
101.863
21
-94.8474
0
LINE
8
BLACK
6
CONTINUOUS
10
101.863
20
-94.8474
11
101.956
21
-94.7082
0
LINE
8
BLACK
6
CONTINUOUS
10
101.956
20
-94.7082
11
102.074
21
-94.5898
0
LINE
8
BLACK
6
CONTINUOUS
10
102.074
20
-94.5898
11
102.213
21
-94.4967
0
LINE
8
BLACK
6
CONTINUOUS
10
102.213
20
-94.4967
11
102.368
21
-94.4327
0
LINE
8
BLACK
6
CONTINUOUS
10
102.368
20
-94.4327
11
102.532
21
-94.4
0
LINE
8
BLACK
6
CONTINUOUS
10
102.532
20
-94.4
11
102.7
21
-94.4
0
LINE
8
BLACK
6
CONTINUOUS
10
102.7
20
-94.4
11
102.864
21
-94.4327
0
LINE
8
BLACK
6
CONTINUOUS
10
116.47
20
-106.818
11
114.67
21
-106.818
0
LINE
8
BLACK
6
CONTINUOUS
10
114.67
20
-106.818
11
114.67
21
-105.018
0
LINE
8
BLACK
6
CONTINUOUS
10
114.67
20
-105.018
11
116.47
21
-105.018
0
LINE
8
BLACK
6
CONTINUOUS
10
116.47
20
-105.018
11
116.47
21
-106.818
0
LINE
8
BLACK
6
CONTINUOUS
10
93.61
20
-106.564
11
91.81
21
-106.564
0
LINE
8
BLACK
6
CONTINUOUS
10
91.81
20
-106.564
11
91.81
21
-104.764
0
LINE
8
BLACK
6
CONTINUOUS
10
91.81
20
-104.764
11
93.61
21
-104.764
0
LINE
8
BLACK
6
CONTINUOUS
10
93.61
20
-104.764
11
93.61
21
-106.564
0
LINE
8
BLACK
6
CONTINUOUS
10
108.188
20
-105.91
11
106.188
21
-105.91
0
LINE
8
BLACK
6
CONTINUOUS
10
106.188
20
-105.91
11
106.188
21
-104.91
0
LINE
8
BLACK
6
CONTINUOUS
10
106.188
20
-104.91
11
108.188
21
-104.91
0
LINE
8
BLACK
6
CONTINUOUS
10
108.188
20
-104.91
11
108.188
21
-105.91
0
LINE
8
BLACK
6
CONTINUOUS
10
100.568
20
-105.91
11
98.568
21
-105.91
0
LINE
8
BLACK
6
CONTINUOUS
10
98.568
20
-105.91
11
98.568
21
-104.91
0
LINE
8
BLACK
6
CONTINUOUS
10
98.568
20
-104.91
11
100.568
21
-104.91
0
LINE
8
BLACK
6
CONTINUOUS
10
100.568
20
-104.91
11
100.568
21
-105.91
0
LINE
8
BLACK
6
CONTINUOUS
10
112.77
20
-84.0187
11
112.925
21
-84.0827
0
LINE
8
BLACK
6
CONTINUOUS
10
112.925
20
-84.0827
11
113.064
21
-84.1758
0
LINE
8
BLACK
6
CONTINUOUS
10
113.064
20
-84.1758
11
113.182
21
-84.2942
0
LINE
8
BLACK
6
CONTINUOUS
10
113.182
20
-84.2942
11
113.275
21
-84.4334
0
LINE
8
BLACK
6
CONTINUOUS
10
113.275
20
-84.4334
11
113.339
21
-84.5881
0
LINE
8
BLACK
6
CONTINUOUS
10
113.339
20
-84.5881
11
113.372
21
-84.7523
0
LINE
8
BLACK
6
CONTINUOUS
10
113.372
20
-84.7523
11
113.372
21
-84.9197
0
LINE
8
BLACK
6
CONTINUOUS
10
113.372
20
-84.9197
11
113.339
21
-85.0839
0
LINE
8
BLACK
6
CONTINUOUS
10
113.339
20
-85.0839
11
113.275
21
-85.2386
0
LINE
8
BLACK
6
CONTINUOUS
10
113.275
20
-85.2386
11
113.182
21
-85.3778
0
LINE
8
BLACK
6
CONTINUOUS
10
113.182
20
-85.3778
11
113.064
21
-85.4962
0
LINE
8
BLACK
6
CONTINUOUS
10
113.064
20
-85.4962
11
113.022
21
-85.5242
0
LINE
8
BLACK
6
CONTINUOUS
10
113.022
20
-85.5242
11
113.022
21
-104.084
0
LINE
8
BLACK
6
CONTINUOUS
10
113.022
20
-104.084
11
113.024
21
-104.085
0
LINE
8
BLACK
6
CONTINUOUS
10
113.024
20
-104.085
11
113.179
21
-104.149
0
LINE
8
BLACK
6
CONTINUOUS
10
113.179
20
-104.149
11
113.318
21
-104.242
0
LINE
8
BLACK
6
CONTINUOUS
10
113.318
20
-104.242
11
113.436
21
-104.36
0
LINE
8
BLACK
6
CONTINUOUS
10
113.436
20
-104.36
11
113.529
21
-104.499
0
LINE
8
BLACK
6
CONTINUOUS
10
113.529
20
-104.499
11
113.593
21
-104.654
0
LINE
8
BLACK
6
CONTINUOUS
10
113.593
20
-104.654
11
113.626
21
-104.818
0
LINE
8
BLACK
6
CONTINUOUS
10
113.626
20
-104.818
11
113.626
21
-104.986
0
LINE
8
BLACK
6
CONTINUOUS
10
113.626
20
-104.986
11
113.593
21
-105.15
0
LINE
8
BLACK
6
CONTINUOUS
10
113.593
20
-105.15
11
113.529
21
-105.305
0
LINE
8
BLACK
6
CONTINUOUS
10
113.529
20
-105.305
11
113.436
21
-105.444
0
LINE
8
BLACK
6
CONTINUOUS
10
113.436
20
-105.444
11
113.318
21
-105.562
0
LINE
8
BLACK
6
CONTINUOUS
10
113.318
20
-105.562
11
113.179
21
-105.655
0
LINE
8
BLACK
6
CONTINUOUS
10
113.179
20
-105.655
11
113.024
21
-105.719
0
LINE
8
BLACK
6
CONTINUOUS
10
113.024
20
-105.719
11
112.86
21
-105.752
0
LINE
8
BLACK
6
CONTINUOUS
10
112.86
20
-105.752
11
112.692
21
-105.752
0
LINE
8
BLACK
6
CONTINUOUS
10
112.692
20
-105.752
11
112.528
21
-105.719
0
LINE
8
BLACK
6
CONTINUOUS
10
112.528
20
-105.719
11
112.373
21
-105.655
0
LINE
8
BLACK
6
CONTINUOUS
10
112.373
20
-105.655
11
112.234
21
-105.562
0
LINE
8
BLACK
6
CONTINUOUS
10
112.234
20
-105.562
11
112.116
21
-105.444
0
LINE
8
BLACK
6
CONTINUOUS
10
112.116
20
-105.444
11
112.023
21
-105.305
0
LINE
8
BLACK
6
CONTINUOUS
10
112.023
20
-105.305
11
111.959
21
-105.15
0
LINE
8
BLACK
6
CONTINUOUS
10
111.959
20
-105.15
11
111.926
21
-104.986
0
LINE
8
BLACK
6
CONTINUOUS
10
111.926
20
-104.986
11
111.926
21
-104.818
0
LINE
8
BLACK
6
CONTINUOUS
10
111.926
20
-104.818
11
111.959
21
-104.654
0
LINE
8
BLACK
6
CONTINUOUS
10
111.959
20
-104.654
11
112.022
21
-104.501
0
LINE
8
BLACK
6
CONTINUOUS
10
112.022
20
-104.501
11
112.022
21
-85.5242
0
LINE
8
BLACK
6
CONTINUOUS
10
112.022
20
-85.5242
11
111.98
21
-85.4962
0
LINE
8
BLACK
6
CONTINUOUS
10
111.98
20
-85.4962
11
111.862
21
-85.3778
0
LINE
8
BLACK
6
CONTINUOUS
10
111.862
20
-85.3778
11
111.769
21
-85.2386
0
LINE
8
BLACK
6
CONTINUOUS
10
111.769
20
-85.2386
11
111.705
21
-85.0839
0
LINE
8
BLACK
6
CONTINUOUS
10
111.705
20
-85.0839
11
111.672
21
-84.9197
0
LINE
8
BLACK
6
CONTINUOUS
10
111.672
20
-84.9197
11
111.672
21
-84.7523
0
LINE
8
BLACK
6
CONTINUOUS
10
111.672
20
-84.7523
11
111.705
21
-84.5881
0
LINE
8
BLACK
6
CONTINUOUS
10
111.705
20
-84.5881
11
111.769
21
-84.4334
0
LINE
8
BLACK
6
CONTINUOUS
10
111.769
20
-84.4334
11
111.862
21
-84.2942
0
LINE
8
BLACK
6
CONTINUOUS
10
111.862
20
-84.2942
11
111.98
21
-84.1758
0
LINE
8
BLACK
6
CONTINUOUS
10
111.98
20
-84.1758
11
112.119
21
-84.0827
0
LINE
8
BLACK
6
CONTINUOUS
10
112.119
20
-84.0827
11
112.274
21
-84.0187
0
LINE
8
BLACK
6
CONTINUOUS
10
112.274
20
-84.0187
11
112.438
21
-83.986
0
LINE
8
BLACK
6
CONTINUOUS
10
112.438
20
-83.986
11
112.606
21
-83.986
0
LINE
8
BLACK
6
CONTINUOUS
10
112.606
20
-83.986
11
112.77
21
-84.0187
0
LINE
8
BLACK
6
CONTINUOUS
10
110.738
20
-76.6527
11
110.893
21
-76.7167
0
LINE
8
BLACK
6
CONTINUOUS
10
110.893
20
-76.7167
11
111.032
21
-76.8098
0
LINE
8
BLACK
6
CONTINUOUS
10
111.032
20
-76.8098
11
111.15
21
-76.9282
0
LINE
8
BLACK
6
CONTINUOUS
10
111.15
20
-76.9282
11
111.243
21
-77.0674
0
LINE
8
BLACK
6
CONTINUOUS
10
111.243
20
-77.0674
11
111.307
21
-77.2221
0
LINE
8
BLACK
6
CONTINUOUS
10
111.307
20
-77.2221
11
111.34
21
-77.3863
0
LINE
8
BLACK
6
CONTINUOUS
10
111.34
20
-77.3863
11
111.34
21
-77.5537
0
LINE
8
BLACK
6
CONTINUOUS
10
111.34
20
-77.5537
11
111.307
21
-77.7179
0
LINE
8
BLACK
6
CONTINUOUS
10
111.307
20
-77.7179
11
111.243
21
-77.8726
0
LINE
8
BLACK
6
CONTINUOUS
10
111.243
20
-77.8726
11
111.15
21
-78.0118
0
LINE
8
BLACK
6
CONTINUOUS
10
111.15
20
-78.0118
11
111.032
21
-78.1302
0
LINE
8
BLACK
6
CONTINUOUS
10
111.032
20
-78.1302
11
110.99
21
-78.1582
0
LINE
8
BLACK
6
CONTINUOUS
10
110.99
20
-78.1582
11
110.99
21
-103.564
0
LINE
8
BLACK
6
CONTINUOUS
10
110.99
20
-103.564
11
111.059
21
-103.667
0
LINE
8
BLACK
6
CONTINUOUS
10
111.059
20
-103.667
11
111.123
21
-103.822
0
LINE
8
BLACK
6
CONTINUOUS
10
111.123
20
-103.822
11
111.156
21
-103.986
0
LINE
8
BLACK
6
CONTINUOUS
10
111.156
20
-103.986
11
111.156
21
-104.154
0
LINE
8
BLACK
6
CONTINUOUS
10
111.156
20
-104.154
11
111.123
21
-104.318
0
LINE
8
BLACK
6
CONTINUOUS
10
111.123
20
-104.318
11
111.059
21
-104.473
0
LINE
8
BLACK
6
CONTINUOUS
10
111.059
20
-104.473
11
110.966
21
-104.612
0
LINE
8
BLACK
6
CONTINUOUS
10
110.966
20
-104.612
11
110.848
21
-104.73
0
LINE
8
BLACK
6
CONTINUOUS
10
110.848
20
-104.73
11
110.709
21
-104.823
0
LINE
8
BLACK
6
CONTINUOUS
10
110.709
20
-104.823
11
110.554
21
-104.887
0
LINE
8
BLACK
6
CONTINUOUS
10
110.554
20
-104.887
11
110.39
21
-104.92
0
LINE
8
BLACK
6
CONTINUOUS
10
110.39
20
-104.92
11
110.222
21
-104.92
0
LINE
8
BLACK
6
CONTINUOUS
10
110.222
20
-104.92
11
110.058
21
-104.887
0
LINE
8
BLACK
6
CONTINUOUS
10
110.058
20
-104.887
11
109.903
21
-104.823
0
LINE
8
BLACK
6
CONTINUOUS
10
109.903
20
-104.823
11
109.764
21
-104.73
0
LINE
8
BLACK
6
CONTINUOUS
10
109.764
20
-104.73
11
109.646
21
-104.612
0
LINE
8
BLACK
6
CONTINUOUS
10
109.646
20
-104.612
11
109.553
21
-104.473
0
LINE
8
BLACK
6
CONTINUOUS
10
109.553
20
-104.473
11
109.489
21
-104.318
0
LINE
8
BLACK
6
CONTINUOUS
10
109.489
20
-104.318
11
109.456
21
-104.154
0
LINE
8
BLACK
6
CONTINUOUS
10
109.456
20
-104.154
11
109.456
21
-103.986
0
LINE
8
BLACK
6
CONTINUOUS
10
109.456
20
-103.986
11
109.489
21
-103.822
0
LINE
8
BLACK
6
CONTINUOUS
10
109.489
20
-103.822
11
109.553
21
-103.667
0
LINE
8
BLACK
6
CONTINUOUS
10
109.553
20
-103.667
11
109.646
21
-103.528
0
LINE
8
BLACK
6
CONTINUOUS
10
109.646
20
-103.528
11
109.764
21
-103.41
0
LINE
8
BLACK
6
CONTINUOUS
10
109.764
20
-103.41
11
109.903
21
-103.317
0
LINE
8
BLACK
6
CONTINUOUS
10
109.903
20
-103.317
11
109.99
21
-103.281
0
LINE
8
BLACK
6
CONTINUOUS
10
109.99
20
-103.281
11
109.99
21
-78.1582
0
LINE
8
BLACK
6
CONTINUOUS
10
109.99
20
-78.1582
11
109.948
21
-78.1302
0
LINE
8
BLACK
6
CONTINUOUS
10
109.948
20
-78.1302
11
109.83
21
-78.0118
0
LINE
8
BLACK
6
CONTINUOUS
10
109.83
20
-78.0118
11
109.737
21
-77.8726
0
LINE
8
BLACK
6
CONTINUOUS
10
109.737
20
-77.8726
11
109.673
21
-77.7179
0
LINE
8
BLACK
6
CONTINUOUS
10
109.673
20
-77.7179
11
109.64
21
-77.5537
0
LINE
8
BLACK
6
CONTINUOUS
10
109.64
20
-77.5537
11
109.64
21
-77.3863
0
LINE
8
BLACK
6
CONTINUOUS
10
109.64
20
-77.3863
11
109.673
21
-77.2221
0
LINE
8
BLACK
6
CONTINUOUS
10
109.673
20
-77.2221
11
109.737
21
-77.0674
0
LINE
8
BLACK
6
CONTINUOUS
10
109.737
20
-77.0674
11
109.83
21
-76.9282
0
LINE
8
BLACK
6
CONTINUOUS
10
109.83
20
-76.9282
11
109.948
21
-76.8098
0
LINE
8
BLACK
6
CONTINUOUS
10
109.948
20
-76.8098
11
110.087
21
-76.7167
0
LINE
8
BLACK
6
CONTINUOUS
10
110.087
20
-76.7167
11
110.242
21
-76.6527
0
LINE
8
BLACK
6
CONTINUOUS
10
110.242
20
-76.6527
11
110.406
21
-76.62
0
LINE
8
BLACK
6
CONTINUOUS
10
110.406
20
-76.62
11
110.574
21
-76.62
0
LINE
8
BLACK
6
CONTINUOUS
10
110.574
20
-76.62
11
110.738
21
-76.6527
0
LINE
8
BLACK
6
CONTINUOUS
10
116.47
20
-104.278
11
114.67
21
-104.278
0
LINE
8
BLACK
6
CONTINUOUS
10
114.67
20
-104.278
11
114.67
21
-102.478
0
LINE
8
BLACK
6
CONTINUOUS
10
114.67
20
-102.478
11
116.47
21
-102.478
0
LINE
8
BLACK
6
CONTINUOUS
10
116.47
20
-102.478
11
116.47
21
-104.278
0
LINE
8
BLACK
6
CONTINUOUS
10
93.61
20
-104.024
11
91.81
21
-104.024
0
LINE
8
BLACK
6
CONTINUOUS
10
91.81
20
-104.024
11
91.81
21
-102.224
0
LINE
8
BLACK
6
CONTINUOUS
10
91.81
20
-102.224
11
93.61
21
-102.224
0
LINE
8
BLACK
6
CONTINUOUS
10
93.61
20
-102.224
11
93.61
21
-104.024
0
LINE
8
BLACK
6
CONTINUOUS
10
108.188
20
-103.37
11
106.188
21
-103.37
0
LINE
8
BLACK
6
CONTINUOUS
10
106.188
20
-103.37
11
106.188
21
-102.37
0
LINE
8
BLACK
6
CONTINUOUS
10
106.188
20
-102.37
11
108.188
21
-102.37
0
LINE
8
BLACK
6
CONTINUOUS
10
108.188
20
-102.37
11
108.188
21
-103.37
0
LINE
8
BLACK
6
CONTINUOUS
10
100.568
20
-103.37
11
98.568
21
-103.37
0
LINE
8
BLACK
6
CONTINUOUS
10
98.568
20
-103.37
11
98.568
21
-102.37
0
LINE
8
BLACK
6
CONTINUOUS
10
98.568
20
-102.37
11
100.568
21
-102.37
0
LINE
8
BLACK
6
CONTINUOUS
10
100.568
20
-102.37
11
100.568
21
-103.37
0
LINE
8
BLACK
6
CONTINUOUS
10
116.47
20
-101.738
11
114.67
21
-101.738
0
LINE
8
BLACK
6
CONTINUOUS
10
114.67
20
-101.738
11
114.67
21
-99.938
0
LINE
8
BLACK
6
CONTINUOUS
10
114.67
20
-99.938
11
116.47
21
-99.938
0
LINE
8
BLACK
6
CONTINUOUS
10
116.47
20
-99.938
11
116.47
21
-101.738
0
LINE
8
BLACK
6
CONTINUOUS
10
93.61
20
-101.484
11
91.81
21
-101.484
0
LINE
8
BLACK
6
CONTINUOUS
10
91.81
20
-101.484
11
91.81
21
-99.684
0
LINE
8
BLACK
6
CONTINUOUS
10
91.81
20
-99.684
11
93.61
21
-99.684
0
LINE
8
BLACK
6
CONTINUOUS
10
93.61
20
-99.684
11
93.61
21
-101.484
0
LINE
8
BLACK
6
CONTINUOUS
10
108.188
20
-100.83
11
106.188
21
-100.83
0
LINE
8
BLACK
6
CONTINUOUS
10
106.188
20
-100.83
11
106.188
21
-99.83
0
LINE
8
BLACK
6
CONTINUOUS
10
106.188
20
-99.83
11
108.188
21
-99.83
0
LINE
8
BLACK
6
CONTINUOUS
10
108.188
20
-99.83
11
108.188
21
-100.83
0
LINE
8
BLACK
6
CONTINUOUS
10
100.568
20
-100.83
11
98.568
21
-100.83
0
LINE
8
BLACK
6
CONTINUOUS
10
98.568
20
-100.83
11
98.568
21
-99.83
0
LINE
8
BLACK
6
CONTINUOUS
10
98.568
20
-99.83
11
100.568
21
-99.83
0
LINE
8
BLACK
6
CONTINUOUS
10
100.568
20
-99.83
11
100.568
21
-100.83
0
LINE
8
BLACK
6
CONTINUOUS
10
116.47
20
-99.198
11
114.67
21
-99.198
0
LINE
8
BLACK
6
CONTINUOUS
10
114.67
20
-99.198
11
114.67
21
-97.398
0
LINE
8
BLACK
6
CONTINUOUS
10
114.67
20
-97.398
11
116.47
21
-97.398
0
LINE
8
BLACK
6
CONTINUOUS
10
116.47
20
-97.398
11
116.47
21
-99.198
0
LINE
8
BLACK
6
CONTINUOUS
10
93.61
20
-98.944
11
91.81
21
-98.944
0
LINE
8
BLACK
6
CONTINUOUS
10
91.81
20
-98.944
11
91.81
21
-97.144
0
LINE
8
BLACK
6
CONTINUOUS
10
91.81
20
-97.144
11
93.61
21
-97.144
0
LINE
8
BLACK
6
CONTINUOUS
10
93.61
20
-97.144
11
93.61
21
-98.944
0
LINE
8
BLACK
6
CONTINUOUS
10
100.568
20
-98.29
11
98.568
21
-98.29
0
LINE
8
BLACK
6
CONTINUOUS
10
98.568
20
-98.29
11
98.568
21
-97.29
0
LINE
8
BLACK
6
CONTINUOUS
10
98.568
20
-97.29
11
100.568
21
-97.29
0
LINE
8
BLACK
6
CONTINUOUS
10
100.568
20
-97.29
11
100.568
21
-98.29
0
LINE
8
BLACK
6
CONTINUOUS
10
108.188
20
-98.29
11
106.188
21
-98.29
0
LINE
8
BLACK
6
CONTINUOUS
10
106.188
20
-98.29
11
106.188
21
-97.29
0
LINE
8
BLACK
6
CONTINUOUS
10
106.188
20
-97.29
11
108.188
21
-97.29
0
LINE
8
BLACK
6
CONTINUOUS
10
108.188
20
-97.29
11
108.188
21
-98.29
0
LINE
8
BLACK
6
CONTINUOUS
10
116.57
20
-96.758
11
114.57
21
-96.758
0
LINE
8
BLACK
6
CONTINUOUS
10
114.57
20
-96.758
11
114.57
21
-94.758
0
LINE
8
BLACK
6
CONTINUOUS
10
114.57
20
-94.758
11
116.57
21
-94.758
0
LINE
8
BLACK
6
CONTINUOUS
10
116.57
20
-94.758
11
116.57
21
-96.758
0
LINE
8
BLACK
6
CONTINUOUS
10
93.61
20
-96.404
11
91.81
21
-96.404
0
LINE
8
BLACK
6
CONTINUOUS
10
91.81
20
-96.404
11
91.81
21
-94.604
0
LINE
8
BLACK
6
CONTINUOUS
10
91.81
20
-94.604
11
93.61
21
-94.604
0
LINE
8
BLACK
6
CONTINUOUS
10
93.61
20
-94.604
11
93.61
21
-96.404
0
LINE
8
BLACK
6
CONTINUOUS
10
100.568
20
-95.75
11
98.568
21
-95.75
0
LINE
8
BLACK
6
CONTINUOUS
10
98.568
20
-95.75
11
98.568
21
-94.75
0
LINE
8
BLACK
6
CONTINUOUS
10
98.568
20
-94.75
11
100.568
21
-94.75
0
LINE
8
BLACK
6
CONTINUOUS
10
100.568
20
-94.75
11
100.568
21
-95.75
0
LINE
8
BLACK
6
CONTINUOUS
10
108.188
20
-95.75
11
106.188
21
-95.75
0
LINE
8
BLACK
6
CONTINUOUS
10
106.188
20
-95.75
11
106.188
21
-94.75
0
LINE
8
BLACK
6
CONTINUOUS
10
106.188
20
-94.75
11
108.188
21
-94.75
0
LINE
8
BLACK
6
CONTINUOUS
10
108.188
20
-94.75
11
108.188
21
-95.75
0
LINE
8
BLACK
6
CONTINUOUS
10
116.47
20
-94.218
11
114.67
21
-94.218
0
LINE
8
BLACK
6
CONTINUOUS
10
114.67
20
-94.218
11
114.67
21
-92.218
0
LINE
8
BLACK
6
CONTINUOUS
10
114.67
20
-92.218
11
116.47
21
-92.218
0
LINE
8
BLACK
6
CONTINUOUS
10
116.47
20
-92.218
11
116.47
21
-94.218
0
LINE
8
BLACK
6
CONTINUOUS
10
93.61
20
-93.864
11
91.81
21
-93.864
0
LINE
8
BLACK
6
CONTINUOUS
10
91.81
20
-93.864
11
91.81
21
-92.064
0
LINE
8
BLACK
6
CONTINUOUS
10
91.81
20
-92.064
11
93.61
21
-92.064
0
LINE
8
BLACK
6
CONTINUOUS
10
93.61
20
-92.064
11
93.61
21
-93.864
0
LINE
8
BLACK
6
CONTINUOUS
10
108.188
20
-93.21
11
106.188
21
-93.21
0
LINE
8
BLACK
6
CONTINUOUS
10
106.188
20
-93.21
11
106.188
21
-92.21
0
LINE
8
BLACK
6
CONTINUOUS
10
106.188
20
-92.21
11
108.188
21
-92.21
0
LINE
8
BLACK
6
CONTINUOUS
10
108.188
20
-92.21
11
108.188
21
-93.21
0
LINE
8
BLACK
6
CONTINUOUS
10
100.568
20
-93.21
11
98.568
21
-93.21
0
LINE
8
BLACK
6
CONTINUOUS
10
98.568
20
-93.21
11
98.568
21
-92.21
0
LINE
8
BLACK
6
CONTINUOUS
10
98.568
20
-92.21
11
100.568
21
-92.21
0
LINE
8
BLACK
6
CONTINUOUS
10
100.568
20
-92.21
11
100.568
21
-93.21
0
LINE
8
BLACK
6
CONTINUOUS
10
108.188
20
-90.67
11
106.188
21
-90.67
0
LINE
8
BLACK
6
CONTINUOUS
10
106.188
20
-90.67
11
106.188
21
-89.67
0
LINE
8
BLACK
6
CONTINUOUS
10
106.188
20
-89.67
11
108.188
21
-89.67
0
LINE
8
BLACK
6
CONTINUOUS
10
108.188
20
-89.67
11
108.188
21
-90.67
0
LINE
8
BLACK
6
CONTINUOUS
10
100.568
20
-90.67
11
98.568
21
-90.67
0
LINE
8
BLACK
6
CONTINUOUS
10
98.568
20
-90.67
11
98.568
21
-89.67
0
LINE
8
BLACK
6
CONTINUOUS
10
98.568
20
-89.67
11
100.568
21
-89.67
0
LINE
8
BLACK
6
CONTINUOUS
10
100.568
20
-89.67
11
100.568
21
-90.67
0
LINE
8
BLACK
6
CONTINUOUS
10
102.246
20
-85.99
11
100.446
21
-85.99
0
LINE
8
BLACK
6
CONTINUOUS
10
100.446
20
-85.99
11
100.446
21
-84.19
0
LINE
8
BLACK
6
CONTINUOUS
10
100.446
20
-84.19
11
102.246
21
-84.19
0
LINE
8
BLACK
6
CONTINUOUS
10
102.246
20
-84.19
11
102.246
21
-85.99
0
LINE
8
BLACK
6
CONTINUOUS
10
116.316
20
-85.836
11
114.316
21
-85.836
0
LINE
8
BLACK
6
CONTINUOUS
10
114.316
20
-85.836
11
114.316
21
-83.836
0
LINE
8
BLACK
6
CONTINUOUS
10
114.316
20
-83.836
11
116.316
21
-83.836
0
LINE
8
BLACK
6
CONTINUOUS
10
116.316
20
-83.836
11
116.316
21
-85.836
0
LINE
8
BLACK
6
CONTINUOUS
10
105.137
20
-83.3994
11
105.363
21
-83.468
0
LINE
8
BLACK
6
CONTINUOUS
10
105.363
20
-83.468
11
105.572
21
-83.5794
0
LINE
8
BLACK
6
CONTINUOUS
10
105.572
20
-83.5794
11
105.755
21
-83.7294
0
LINE
8
BLACK
6
CONTINUOUS
10
105.755
20
-83.7294
11
105.905
21
-83.9121
0
LINE
8
BLACK
6
CONTINUOUS
10
105.905
20
-83.9121
11
106.016
21
-84.1206
0
LINE
8
BLACK
6
CONTINUOUS
10
106.016
20
-84.1206
11
106.085
21
-84.3468
0
LINE
8
BLACK
6
CONTINUOUS
10
106.085
20
-84.3468
11
106.108
21
-84.582
0
LINE
8
BLACK
6
CONTINUOUS
10
106.108
20
-84.582
11
106.085
21
-84.8172
0
LINE
8
BLACK
6
CONTINUOUS
10
106.085
20
-84.8172
11
106.016
21
-85.0434
0
LINE
8
BLACK
6
CONTINUOUS
10
106.016
20
-85.0434
11
105.905
21
-85.2519
0
LINE
8
BLACK
6
CONTINUOUS
10
105.905
20
-85.2519
11
105.755
21
-85.4346
0
LINE
8
BLACK
6
CONTINUOUS
10
105.755
20
-85.4346
11
105.572
21
-85.5846
0
LINE
8
BLACK
6
CONTINUOUS
10
105.572
20
-85.5846
11
105.363
21
-85.696
0
LINE
8
BLACK
6
CONTINUOUS
10
105.363
20
-85.696
11
105.137
21
-85.7646
0
LINE
8
BLACK
6
CONTINUOUS
10
105.137
20
-85.7646
11
104.961
21
-85.782
0
LINE
8
BLACK
6
CONTINUOUS
10
104.961
20
-85.782
11
104.843
21
-85.782
0
LINE
8
BLACK
6
CONTINUOUS
10
104.843
20
-85.782
11
104.667
21
-85.7646
0
LINE
8
BLACK
6
CONTINUOUS
10
104.667
20
-85.7646
11
104.441
21
-85.696
0
LINE
8
BLACK
6
CONTINUOUS
10
104.441
20
-85.696
11
104.232
21
-85.5846
0
LINE
8
BLACK
6
CONTINUOUS
10
104.232
20
-85.5846
11
104.049
21
-85.4346
0
LINE
8
BLACK
6
CONTINUOUS
10
104.049
20
-85.4346
11
103.899
21
-85.2519
0
LINE
8
BLACK
6
CONTINUOUS
10
103.899
20
-85.2519
11
103.788
21
-85.0434
0
LINE
8
BLACK
6
CONTINUOUS
10
103.788
20
-85.0434
11
103.719
21
-84.8172
0
LINE
8
BLACK
6
CONTINUOUS
10
103.719
20
-84.8172
11
103.696
21
-84.582
0
LINE
8
BLACK
6
CONTINUOUS
10
103.696
20
-84.582
11
103.719
21
-84.3468
0
LINE
8
BLACK
6
CONTINUOUS
10
103.719
20
-84.3468
11
103.788
21
-84.1206
0
LINE
8
BLACK
6
CONTINUOUS
10
103.788
20
-84.1206
11
103.899
21
-83.9121
0
LINE
8
BLACK
6
CONTINUOUS
10
103.899
20
-83.9121
11
104.049
21
-83.7294
0
LINE
8
BLACK
6
CONTINUOUS
10
104.049
20
-83.7294
11
104.232
21
-83.5794
0
LINE
8
BLACK
6
CONTINUOUS
10
104.232
20
-83.5794
11
104.441
21
-83.468
0
LINE
8
BLACK
6
CONTINUOUS
10
104.441
20
-83.468
11
104.667
21
-83.3994
0
LINE
8
BLACK
6
CONTINUOUS
10
104.667
20
-83.3994
11
104.843
21
-83.382
0
LINE
8
BLACK
6
CONTINUOUS
10
104.843
20
-83.382
11
104.961
21
-83.382
0
LINE
8
BLACK
6
CONTINUOUS
10
104.961
20
-83.382
11
105.137
21
-83.3994
0
LINE
8
BLACK
6
CONTINUOUS
10
93.864
20
-85.482
11
92.064
21
-85.482
0
LINE
8
BLACK
6
CONTINUOUS
10
92.064
20
-85.482
11
92.064
21
-83.682
0
LINE
8
BLACK
6
CONTINUOUS
10
92.064
20
-83.682
11
93.864
21
-83.682
0
LINE
8
BLACK
6
CONTINUOUS
10
93.864
20
-83.682
11
93.864
21
-85.482
0
LINE
8
BLACK
6
CONTINUOUS
10
101.609
20
-81.6846
11
101.772
21
-81.7524
0
LINE
8
BLACK
6
CONTINUOUS
10
101.772
20
-81.7524
11
101.92
21
-81.8509
0
LINE
8
BLACK
6
CONTINUOUS
10
101.92
20
-81.8509
11
102.045
21
-81.9763
0
LINE
8
BLACK
6
CONTINUOUS
10
102.045
20
-81.9763
11
102.144
21
-82.1237
0
LINE
8
BLACK
6
CONTINUOUS
10
102.144
20
-82.1237
11
102.211
21
-82.2875
0
LINE
8
BLACK
6
CONTINUOUS
10
102.211
20
-82.2875
11
102.246
21
-82.4614
0
LINE
8
BLACK
6
CONTINUOUS
10
102.246
20
-82.4614
11
102.246
21
-82.6386
0
LINE
8
BLACK
6
CONTINUOUS
10
102.246
20
-82.6386
11
102.211
21
-82.8125
0
LINE
8
BLACK
6
CONTINUOUS
10
102.211
20
-82.8125
11
102.144
21
-82.9763
0
LINE
8
BLACK
6
CONTINUOUS
10
102.144
20
-82.9763
11
102.045
21
-83.1237
0
LINE
8
BLACK
6
CONTINUOUS
10
102.045
20
-83.1237
11
101.92
21
-83.2491
0
LINE
8
BLACK
6
CONTINUOUS
10
101.92
20
-83.2491
11
101.772
21
-83.3476
0
LINE
8
BLACK
6
CONTINUOUS
10
101.772
20
-83.3476
11
101.609
21
-83.4154
0
LINE
8
BLACK
6
CONTINUOUS
10
101.609
20
-83.4154
11
101.435
21
-83.45
0
LINE
8
BLACK
6
CONTINUOUS
10
101.435
20
-83.45
11
101.257
21
-83.45
0
LINE
8
BLACK
6
CONTINUOUS
10
101.257
20
-83.45
11
101.083
21
-83.4154
0
LINE
8
BLACK
6
CONTINUOUS
10
101.083
20
-83.4154
11
100.92
21
-83.3476
0
LINE
8
BLACK
6
CONTINUOUS
10
100.92
20
-83.3476
11
100.772
21
-83.2491
0
LINE
8
BLACK
6
CONTINUOUS
10
100.772
20
-83.2491
11
100.647
21
-83.1237
0
LINE
8
BLACK
6
CONTINUOUS
10
100.647
20
-83.1237
11
100.548
21
-82.9763
0
LINE
8
BLACK
6
CONTINUOUS
10
100.548
20
-82.9763
11
100.481
21
-82.8125
0
LINE
8
BLACK
6
CONTINUOUS
10
100.481
20
-82.8125
11
100.446
21
-82.6386
0
LINE
8
BLACK
6
CONTINUOUS
10
100.446
20
-82.6386
11
100.446
21
-82.4614
0
LINE
8
BLACK
6
CONTINUOUS
10
100.446
20
-82.4614
11
100.481
21
-82.2875
0
LINE
8
BLACK
6
CONTINUOUS
10
100.481
20
-82.2875
11
100.548
21
-82.1237
0
LINE
8
BLACK
6
CONTINUOUS
10
100.548
20
-82.1237
11
100.647
21
-81.9763
0
LINE
8
BLACK
6
CONTINUOUS
10
100.647
20
-81.9763
11
100.772
21
-81.8509
0
LINE
8
BLACK
6
CONTINUOUS
10
100.772
20
-81.8509
11
100.92
21
-81.7524
0
LINE
8
BLACK
6
CONTINUOUS
10
100.92
20
-81.7524
11
101.083
21
-81.6846
0
LINE
8
BLACK
6
CONTINUOUS
10
101.083
20
-81.6846
11
101.257
21
-81.65
0
LINE
8
BLACK
6
CONTINUOUS
10
101.257
20
-81.65
11
101.435
21
-81.65
0
LINE
8
BLACK
6
CONTINUOUS
10
101.435
20
-81.65
11
101.609
21
-81.6846
0
LINE
8
BLACK
6
CONTINUOUS
10
116.316
20
-83.296
11
114.316
21
-83.296
0
LINE
8
BLACK
6
CONTINUOUS
10
114.316
20
-83.296
11
114.316
21
-81.296
0
LINE
8
BLACK
6
CONTINUOUS
10
114.316
20
-81.296
11
116.316
21
-81.296
0
LINE
8
BLACK
6
CONTINUOUS
10
116.316
20
-81.296
11
116.316
21
-83.296
0
LINE
8
BLACK
6
CONTINUOUS
10
93.864
20
-82.942
11
92.064
21
-82.942
0
LINE
8
BLACK
6
CONTINUOUS
10
92.064
20
-82.942
11
92.064
21
-81.142
0
LINE
8
BLACK
6
CONTINUOUS
10
92.064
20
-81.142
11
93.864
21
-81.142
0
LINE
8
BLACK
6
CONTINUOUS
10
93.864
20
-81.142
11
93.864
21
-82.942
0
LINE
8
BLACK
6
CONTINUOUS
10
116.316
20
-80.756
11
114.316
21
-80.756
0
LINE
8
BLACK
6
CONTINUOUS
10
114.316
20
-80.756
11
114.316
21
-78.756
0
LINE
8
BLACK
6
CONTINUOUS
10
114.316
20
-78.756
11
116.316
21
-78.756
0
LINE
8
BLACK
6
CONTINUOUS
10
116.316
20
-78.756
11
116.316
21
-80.756
0
LINE
8
BLACK
6
CONTINUOUS
10
105.252
20
-78.3481
11
105.47
21
-78.4386
0
LINE
8
BLACK
6
CONTINUOUS
10
105.47
20
-78.4386
11
105.667
21
-78.5699
0
LINE
8
BLACK
6
CONTINUOUS
10
105.667
20
-78.5699
11
105.834
21
-78.737
0
LINE
8
BLACK
6
CONTINUOUS
10
105.834
20
-78.737
11
105.965
21
-78.9336
0
LINE
8
BLACK
6
CONTINUOUS
10
105.965
20
-78.9336
11
106.056
21
-79.152
0
LINE
8
BLACK
6
CONTINUOUS
10
106.056
20
-79.152
11
106.102
21
-79.3838
0
LINE
8
BLACK
6
CONTINUOUS
10
106.102
20
-79.3838
11
106.102
21
-79.6202
0
LINE
8
BLACK
6
CONTINUOUS
10
106.102
20
-79.6202
11
106.056
21
-79.852
0
LINE
8
BLACK
6
CONTINUOUS
10
106.056
20
-79.852
11
105.965
21
-80.0704
0
LINE
8
BLACK
6
CONTINUOUS
10
105.965
20
-80.0704
11
105.834
21
-80.267
0
LINE
8
BLACK
6
CONTINUOUS
10
105.834
20
-80.267
11
105.667
21
-80.4341
0
LINE
8
BLACK
6
CONTINUOUS
10
105.667
20
-80.4341
11
105.47
21
-80.5654
0
LINE
8
BLACK
6
CONTINUOUS
10
105.47
20
-80.5654
11
105.252
21
-80.6559
0
LINE
8
BLACK
6
CONTINUOUS
10
105.252
20
-80.6559
11
105.02
21
-80.702
0
LINE
8
BLACK
6
CONTINUOUS
10
105.02
20
-80.702
11
104.784
21
-80.702
0
LINE
8
BLACK
6
CONTINUOUS
10
104.784
20
-80.702
11
104.552
21
-80.6559
0
LINE
8
BLACK
6
CONTINUOUS
10
104.552
20
-80.6559
11
104.334
21
-80.5654
0
LINE
8
BLACK
6
CONTINUOUS
10
104.334
20
-80.5654
11
104.137
21
-80.4341
0
LINE
8
BLACK
6
CONTINUOUS
10
104.137
20
-80.4341
11
103.97
21
-80.267
0
LINE
8
BLACK
6
CONTINUOUS
10
103.97
20
-80.267
11
103.839
21
-80.0704
0
LINE
8
BLACK
6
CONTINUOUS
10
103.839
20
-80.0704
11
103.748
21
-79.852
0
LINE
8
BLACK
6
CONTINUOUS
10
103.748
20
-79.852
11
103.702
21
-79.6202
0
LINE
8
BLACK
6
CONTINUOUS
10
103.702
20
-79.6202
11
103.702
21
-79.3838
0
LINE
8
BLACK
6
CONTINUOUS
10
103.702
20
-79.3838
11
103.748
21
-79.152
0
LINE
8
BLACK
6
CONTINUOUS
10
103.748
20
-79.152
11
103.839
21
-78.9336
0
LINE
8
BLACK
6
CONTINUOUS
10
103.839
20
-78.9336
11
103.97
21
-78.737
0
LINE
8
BLACK
6
CONTINUOUS
10
103.97
20
-78.737
11
104.137
21
-78.5699
0
LINE
8
BLACK
6
CONTINUOUS
10
104.137
20
-78.5699
11
104.334
21
-78.4386
0
LINE
8
BLACK
6
CONTINUOUS
10
104.334
20
-78.4386
11
104.552
21
-78.3481
0
LINE
8
BLACK
6
CONTINUOUS
10
104.552
20
-78.3481
11
104.784
21
-78.302
0
LINE
8
BLACK
6
CONTINUOUS
10
104.784
20
-78.302
11
105.02
21
-78.302
0
LINE
8
BLACK
6
CONTINUOUS
10
105.02
20
-78.302
11
105.252
21
-78.3481
0
LINE
8
BLACK
6
CONTINUOUS
10
93.864
20
-80.402
11
92.064
21
-80.402
0
LINE
8
BLACK
6
CONTINUOUS
10
92.064
20
-80.402
11
92.064
21
-78.602
0
LINE
8
BLACK
6
CONTINUOUS
10
92.064
20
-78.602
11
93.864
21
-78.602
0
LINE
8
BLACK
6
CONTINUOUS
10
93.864
20
-78.602
11
93.864
21
-80.402
0
LINE
8
BLACK
6
CONTINUOUS
10
100.368
20
-78.778
11
98.768
21
-78.778
0
LINE
8
BLACK
6
CONTINUOUS
10
98.768
20
-78.778
11
98.768
21
-77.178
0
LINE
8
BLACK
6
CONTINUOUS
10
98.768
20
-77.178
11
100.368
21
-77.178
0
LINE
8
BLACK
6
CONTINUOUS
10
100.368
20
-77.178
11
100.368
21
-78.778
0
LINE
8
BLACK
6
CONTINUOUS
10
101.801
20
-77.2087
11
101.947
21
-77.269
0
LINE
8
BLACK
6
CONTINUOUS
10
101.947
20
-77.269
11
102.078
21
-77.3566
0
LINE
8
BLACK
6
CONTINUOUS
10
102.078
20
-77.3566
11
102.189
21
-77.468
0
LINE
8
BLACK
6
CONTINUOUS
10
102.189
20
-77.468
11
102.277
21
-77.5991
0
LINE
8
BLACK
6
CONTINUOUS
10
102.277
20
-77.5991
11
102.337
21
-77.7446
0
LINE
8
BLACK
6
CONTINUOUS
10
102.337
20
-77.7446
11
102.368
21
-77.8992
0
LINE
8
BLACK
6
CONTINUOUS
10
102.368
20
-77.8992
11
102.368
21
-78.0568
0
LINE
8
BLACK
6
CONTINUOUS
10
102.368
20
-78.0568
11
102.337
21
-78.2114
0
LINE
8
BLACK
6
CONTINUOUS
10
102.337
20
-78.2114
11
102.277
21
-78.3569
0
LINE
8
BLACK
6
CONTINUOUS
10
102.277
20
-78.3569
11
102.189
21
-78.488
0
LINE
8
BLACK
6
CONTINUOUS
10
102.189
20
-78.488
11
102.078
21
-78.5994
0
LINE
8
BLACK
6
CONTINUOUS
10
102.078
20
-78.5994
11
101.947
21
-78.687
0
LINE
8
BLACK
6
CONTINUOUS
10
101.947
20
-78.687
11
101.801
21
-78.7473
0
LINE
8
BLACK
6
CONTINUOUS
10
101.801
20
-78.7473
11
101.647
21
-78.778
0
LINE
8
BLACK
6
CONTINUOUS
10
101.647
20
-78.778
11
101.489
21
-78.778
0
LINE
8
BLACK
6
CONTINUOUS
10
101.489
20
-78.778
11
101.335
21
-78.7473
0
LINE
8
BLACK
6
CONTINUOUS
10
101.335
20
-78.7473
11
101.189
21
-78.687
0
LINE
8
BLACK
6
CONTINUOUS
10
101.189
20
-78.687
11
101.058
21
-78.5994
0
LINE
8
BLACK
6
CONTINUOUS
10
101.058
20
-78.5994
11
100.947
21
-78.488
0
LINE
8
BLACK
6
CONTINUOUS
10
100.947
20
-78.488
11
100.859
21
-78.3569
0
LINE
8
BLACK
6
CONTINUOUS
10
100.859
20
-78.3569
11
100.799
21
-78.2114
0
LINE
8
BLACK
6
CONTINUOUS
10
100.799
20
-78.2114
11
100.768
21
-78.0568
0
LINE
8
BLACK
6
CONTINUOUS
10
100.768
20
-78.0568
11
100.768
21
-77.8992
0
LINE
8
BLACK
6
CONTINUOUS
10
100.768
20
-77.8992
11
100.799
21
-77.7446
0
LINE
8
BLACK
6
CONTINUOUS
10
100.799
20
-77.7446
11
100.859
21
-77.5991
0
LINE
8
BLACK
6
CONTINUOUS
10
100.859
20
-77.5991
11
100.947
21
-77.468
0
LINE
8
BLACK
6
CONTINUOUS
10
100.947
20
-77.468
11
101.058
21
-77.3566
0
LINE
8
BLACK
6
CONTINUOUS
10
101.058
20
-77.3566
11
101.189
21
-77.269
0
LINE
8
BLACK
6
CONTINUOUS
10
101.189
20
-77.269
11
101.335
21
-77.2087
0
LINE
8
BLACK
6
CONTINUOUS
10
101.335
20
-77.2087
11
101.489
21
-77.178
0
LINE
8
BLACK
6
CONTINUOUS
10
101.489
20
-77.178
11
101.647
21
-77.178
0
LINE
8
BLACK
6
CONTINUOUS
10
101.647
20
-77.178
11
101.801
21
-77.2087
0
LINE
8
BLACK
6
CONTINUOUS
10
116.316
20
-78.216
11
114.316
21
-78.216
0
LINE
8
BLACK
6
CONTINUOUS
10
114.316
20
-78.216
11
114.316
21
-76.216
0
LINE
8
BLACK
6
CONTINUOUS
10
114.316
20
-76.216
11
116.316
21
-76.216
0
LINE
8
BLACK
6
CONTINUOUS
10
116.316
20
-76.216
11
116.316
21
-78.216
0
LINE
8
BLACK
6
CONTINUOUS
10
93.864
20
-77.862
11
92.064
21
-77.862
0
LINE
8
BLACK
6
CONTINUOUS
10
92.064
20
-77.862
11
92.064
21
-76.062
0
LINE
8
BLACK
6
CONTINUOUS
10
92.064
20
-76.062
11
93.864
21
-76.062
0
LINE
8
BLACK
6
CONTINUOUS
10
93.864
20
-76.062
11
93.864
21
-77.862
0
LINE
8
BLACK
6
CONTINUOUS
10
93.864
20
-75.322
11
92.064
21
-75.322
0
LINE
8
BLACK
6
CONTINUOUS
10
92.064
20
-75.322
11
92.064
21
-73.522
0
LINE
8
BLACK
6
CONTINUOUS
10
92.064
20
-73.522
11
93.864
21
-73.522
0
LINE
8
BLACK
6
CONTINUOUS
10
93.864
20
-73.522
11
93.864
21
-75.322
0
LINE
8
BLACK
6
CONTINUOUS
10
93.864
20
-72.782
11
92.064
21
-72.782
0
LINE
8
BLACK
6
CONTINUOUS
10
92.064
20
-72.782
11
92.064
21
-70.982
0
LINE
8
BLACK
6
CONTINUOUS
10
92.064
20
-70.982
11
93.864
21
-70.982
0
LINE
8
BLACK
6
CONTINUOUS
10
93.864
20
-70.982
11
93.864
21
-72.782
0
LINE
8
BLACK
6
CONTINUOUS
10
103.1
20
-72.62
11
100.1
21
-72.62
0
LINE
8
BLACK
6
CONTINUOUS
10
100.1
20
-72.62
11
100.1
21
-69.62
0
LINE
8
BLACK
6
CONTINUOUS
10
100.1
20
-69.62
11
103.1
21
-69.62
0
LINE
8
BLACK
6
CONTINUOUS
10
103.1
20
-69.62
11
103.1
21
-72.62
0
LINE
8
BLACK
6
CONTINUOUS
10
107.118
20
-69.6776
11
107.391
21
-69.7907
0
LINE
8
BLACK
6
CONTINUOUS
10
107.391
20
-69.7907
11
107.636
21
-69.9549
0
LINE
8
BLACK
6
CONTINUOUS
10
107.636
20
-69.9549
11
107.845
21
-70.1638
0
LINE
8
BLACK
6
CONTINUOUS
10
107.845
20
-70.1638
11
108.009
21
-70.4095
0
LINE
8
BLACK
6
CONTINUOUS
10
108.009
20
-70.4095
11
108.122
21
-70.6825
0
LINE
8
BLACK
6
CONTINUOUS
10
108.122
20
-70.6825
11
108.18
21
-70.9723
0
LINE
8
BLACK
6
CONTINUOUS
10
108.18
20
-70.9723
11
108.18
21
-71.2677
0
LINE
8
BLACK
6
CONTINUOUS
10
108.18
20
-71.2677
11
108.122
21
-71.5575
0
LINE
8
BLACK
6
CONTINUOUS
10
108.122
20
-71.5575
11
108.009
21
-71.8305
0
LINE
8
BLACK
6
CONTINUOUS
10
108.009
20
-71.8305
11
107.845
21
-72.0762
0
LINE
8
BLACK
6
CONTINUOUS
10
107.845
20
-72.0762
11
107.636
21
-72.2851
0
LINE
8
BLACK
6
CONTINUOUS
10
107.636
20
-72.2851
11
107.391
21
-72.4493
0
LINE
8
BLACK
6
CONTINUOUS
10
107.391
20
-72.4493
11
107.118
21
-72.5624
0
LINE
8
BLACK
6
CONTINUOUS
10
107.118
20
-72.5624
11
106.828
21
-72.62
0
LINE
8
BLACK
6
CONTINUOUS
10
106.828
20
-72.62
11
106.532
21
-72.62
0
LINE
8
BLACK
6
CONTINUOUS
10
106.532
20
-72.62
11
106.242
21
-72.5624
0
LINE
8
BLACK
6
CONTINUOUS
10
106.242
20
-72.5624
11
105.969
21
-72.4493
0
LINE
8
BLACK
6
CONTINUOUS
10
105.969
20
-72.4493
11
105.724
21
-72.2851
0
LINE
8
BLACK
6
CONTINUOUS
10
105.724
20
-72.2851
11
105.515
21
-72.0762
0
LINE
8
BLACK
6
CONTINUOUS
10
105.515
20
-72.0762
11
105.351
21
-71.8305
0
LINE
8
BLACK
6
CONTINUOUS
10
105.351
20
-71.8305
11
105.238
21
-71.5575
0
LINE
8
BLACK
6
CONTINUOUS
10
105.238
20
-71.5575
11
105.18
21
-71.2677
0
LINE
8
BLACK
6
CONTINUOUS
10
105.18
20
-71.2677
11
105.18
21
-70.9723
0
LINE
8
BLACK
6
CONTINUOUS
10
105.18
20
-70.9723
11
105.238
21
-70.6825
0
LINE
8
BLACK
6
CONTINUOUS
10
105.238
20
-70.6825
11
105.351
21
-70.4095
0
LINE
8
BLACK
6
CONTINUOUS
10
105.351
20
-70.4095
11
105.515
21
-70.1638
0
LINE
8
BLACK
6
CONTINUOUS
10
105.515
20
-70.1638
11
105.724
21
-69.9549
0
LINE
8
BLACK
6
CONTINUOUS
10
105.724
20
-69.9549
11
105.969
21
-69.7907
0
LINE
8
BLACK
6
CONTINUOUS
10
105.969
20
-69.7907
11
106.242
21
-69.6776
0
LINE
8
BLACK
6
CONTINUOUS
10
106.242
20
-69.6776
11
106.532
21
-69.62
0
LINE
8
BLACK
6
CONTINUOUS
10
106.532
20
-69.62
11
106.828
21
-69.62
0
LINE
8
BLACK
6
CONTINUOUS
10
106.828
20
-69.62
11
107.118
21
-69.6776
0
LINE
8
BLACK
6
CONTINUOUS
10
91.2614
20
-59.7989
11
91.6254
21
-59.9496
0
LINE
8
BLACK
6
CONTINUOUS
10
91.6254
20
-59.9496
11
91.9529
21
-60.1685
0
LINE
8
BLACK
6
CONTINUOUS
10
91.9529
20
-60.1685
11
92.2315
21
-60.4471
0
LINE
8
BLACK
6
CONTINUOUS
10
92.2315
20
-60.4471
11
92.4504
21
-60.7746
0
LINE
8
BLACK
6
CONTINUOUS
10
92.4504
20
-60.7746
11
92.6011
21
-61.1386
0
LINE
8
BLACK
6
CONTINUOUS
10
92.6011
20
-61.1386
11
92.678
21
-61.525
0
LINE
8
BLACK
6
CONTINUOUS
10
92.678
20
-61.525
11
92.678
21
-61.919
0
LINE
8
BLACK
6
CONTINUOUS
10
92.678
20
-61.919
11
92.6011
21
-62.3054
0
LINE
8
BLACK
6
CONTINUOUS
10
92.6011
20
-62.3054
11
92.4504
21
-62.6694
0
LINE
8
BLACK
6
CONTINUOUS
10
92.4504
20
-62.6694
11
92.2315
21
-62.9969
0
LINE
8
BLACK
6
CONTINUOUS
10
92.2315
20
-62.9969
11
91.9529
21
-63.2755
0
LINE
8
BLACK
6
CONTINUOUS
10
91.9529
20
-63.2755
11
91.6254
21
-63.4944
0
LINE
8
BLACK
6
CONTINUOUS
10
91.6254
20
-63.4944
11
91.2614
21
-63.6451
0
LINE
8
BLACK
6
CONTINUOUS
10
91.2614
20
-63.6451
11
90.875
21
-63.722
0
LINE
8
BLACK
6
CONTINUOUS
10
90.875
20
-63.722
11
90.481
21
-63.722
0
LINE
8
BLACK
6
CONTINUOUS
10
90.481
20
-63.722
11
90.0946
21
-63.6451
0
LINE
8
BLACK
6
CONTINUOUS
10
90.0946
20
-63.6451
11
89.7306
21
-63.4944
0
LINE
8
BLACK
6
CONTINUOUS
10
89.7306
20
-63.4944
11
89.4031
21
-63.2755
0
LINE
8
BLACK
6
CONTINUOUS
10
89.4031
20
-63.2755
11
89.1245
21
-62.9969
0
LINE
8
BLACK
6
CONTINUOUS
10
89.1245
20
-62.9969
11
88.9056
21
-62.6694
0
LINE
8
BLACK
6
CONTINUOUS
10
88.9056
20
-62.6694
11
88.7549
21
-62.3054
0
LINE
8
BLACK
6
CONTINUOUS
10
88.7549
20
-62.3054
11
88.678
21
-61.919
0
LINE
8
BLACK
6
CONTINUOUS
10
88.678
20
-61.919
11
88.678
21
-61.525
0
LINE
8
BLACK
6
CONTINUOUS
10
88.678
20
-61.525
11
88.7549
21
-61.1386
0
LINE
8
BLACK
6
CONTINUOUS
10
88.7549
20
-61.1386
11
88.9056
21
-60.7746
0
LINE
8
BLACK
6
CONTINUOUS
10
88.9056
20
-60.7746
11
89.1245
21
-60.4471
0
LINE
8
BLACK
6
CONTINUOUS
10
89.1245
20
-60.4471
11
89.4031
21
-60.1685
0
LINE
8
BLACK
6
CONTINUOUS
10
89.4031
20
-60.1685
11
89.7306
21
-59.9496
0
LINE
8
BLACK
6
CONTINUOUS
10
89.7306
20
-59.9496
11
90.0946
21
-59.7989
0
LINE
8
BLACK
6
CONTINUOUS
10
90.0946
20
-59.7989
11
90.481
21
-59.722
0
LINE
8
BLACK
6
CONTINUOUS
10
90.481
20
-59.722
11
90.875
21
-59.722
0
LINE
8
BLACK
6
CONTINUOUS
10
90.875
20
-59.722
11
91.2614
21
-59.7989
0
LINE
8
BLACK
6
CONTINUOUS
10
118.439
20
-59.5449
11
118.803
21
-59.6956
0
LINE
8
BLACK
6
CONTINUOUS
10
118.803
20
-59.6956
11
119.131
21
-59.9145
0
LINE
8
BLACK
6
CONTINUOUS
10
119.131
20
-59.9145
11
119.41
21
-60.1931
0
LINE
8
BLACK
6
CONTINUOUS
10
119.41
20
-60.1931
11
119.628
21
-60.5206
0
LINE
8
BLACK
6
CONTINUOUS
10
119.628
20
-60.5206
11
119.779
21
-60.8846
0
LINE
8
BLACK
6
CONTINUOUS
10
119.779
20
-60.8846
11
119.856
21
-61.271
0
LINE
8
BLACK
6
CONTINUOUS
10
119.856
20
-61.271
11
119.856
21
-61.665
0
LINE
8
BLACK
6
CONTINUOUS
10
119.856
20
-61.665
11
119.779
21
-62.0514
0
LINE
8
BLACK
6
CONTINUOUS
10
119.779
20
-62.0514
11
119.628
21
-62.4154
0
LINE
8
BLACK
6
CONTINUOUS
10
119.628
20
-62.4154
11
119.41
21
-62.7429
0
LINE
8
BLACK
6
CONTINUOUS
10
119.41
20
-62.7429
11
119.131
21
-63.0215
0
LINE
8
BLACK
6
CONTINUOUS
10
119.131
20
-63.0215
11
118.803
21
-63.2404
0
LINE
8
BLACK
6
CONTINUOUS
10
118.803
20
-63.2404
11
118.439
21
-63.3911
0
LINE
8
BLACK
6
CONTINUOUS
10
118.439
20
-63.3911
11
118.053
21
-63.468
0
LINE
8
BLACK
6
CONTINUOUS
10
118.053
20
-63.468
11
117.659
21
-63.468
0
LINE
8
BLACK
6
CONTINUOUS
10
117.659
20
-63.468
11
117.273
21
-63.3911
0
LINE
8
BLACK
6
CONTINUOUS
10
117.273
20
-63.3911
11
116.909
21
-63.2404
0
LINE
8
BLACK
6
CONTINUOUS
10
116.909
20
-63.2404
11
116.581
21
-63.0215
0
LINE
8
BLACK
6
CONTINUOUS
10
116.581
20
-63.0215
11
116.302
21
-62.7429
0
LINE
8
BLACK
6
CONTINUOUS
10
116.302
20
-62.7429
11
116.084
21
-62.4154
0
LINE
8
BLACK
6
CONTINUOUS
10
116.084
20
-62.4154
11
115.933
21
-62.0514
0
LINE
8
BLACK
6
CONTINUOUS
10
115.933
20
-62.0514
11
115.856
21
-61.665
0
LINE
8
BLACK
6
CONTINUOUS
10
115.856
20
-61.665
11
115.856
21
-61.271
0
LINE
8
BLACK
6
CONTINUOUS
10
115.856
20
-61.271
11
115.933
21
-60.8846
0
LINE
8
BLACK
6
CONTINUOUS
10
115.933
20
-60.8846
11
116.084
21
-60.5206
0
LINE
8
BLACK
6
CONTINUOUS
10
116.084
20
-60.5206
11
116.302
21
-60.1931
0
LINE
8
BLACK
6
CONTINUOUS
10
116.302
20
-60.1931
11
116.581
21
-59.9145
0
LINE
8
BLACK
6
CONTINUOUS
10
116.581
20
-59.9145
11
116.909
21
-59.6956
0
LINE
8
BLACK
6
CONTINUOUS
10
116.909
20
-59.6956
11
117.273
21
-59.5449
0
LINE
8
BLACK
6
CONTINUOUS
10
117.273
20
-59.5449
11
117.659
21
-59.468
0
LINE
8
BLACK
6
CONTINUOUS
10
117.659
20
-59.468
11
118.053
21
-59.468
0
LINE
8
BLACK
6
CONTINUOUS
10
118.053
20
-59.468
11
118.439
21
-59.5449
0
CIRCLE
8
BLACK
10
117.856
20
-61.468
40
1.5
0
CIRCLE
8
BLACK
10
90.678
20
-61.722
40
1.5
0
CIRCLE
8
BLACK
10
118.11
20
-113.538
40
1.5
0
CIRCLE
8
BLACK
10
90.678
20
-113.538
40
1.5
0
CIRCLE
8
BLACK
10
102.616
20
-95.25
40
0.4
0
CIRCLE
8
BLACK
10
104.14
20
-106.68
40
0.4
0
CIRCLE
8
BLACK
10
112.776
20
-104.902
40
0.4
0
CIRCLE
8
BLACK
10
112.522
20
-84.836
40
0.4
0
CIRCLE
8
BLACK
10
110.306
20
-104.07
40
0.4
0
CIRCLE
8
BLACK
10
110.49
20
-77.47
40
0.4
  0
ENDSEC
  0
EOF
