M48
; DRILL file {KiCad (5.1.2)-2} date 4/13/2020 3:56:59 PM
; FORMAT={2:4/ absolute / inch / suppress leading zeros}
; #@! TF.CreationDate,2020-04-13T15:56:59+07:00
; #@! TF.GenerationSoftware,Kicad,Pcbnew,(5.1.2)-2
FMAT,2
INCH,TZ
T1C0.0315
T2C0.0354
T3C0.0394
T4C0.0472
T5C0.0598
T6C0.1181
%
G90
G05
T1
X40400Y-37500
X41000Y-42000
X43428Y-40972
X43500Y-30500
X44300Y-33400
X44400Y-41300
X39200Y-35500
X39200Y-36500
X39200Y-37500
X39200Y-38500
X39200Y-39500
X39200Y-40500
X39200Y-41500
X39200Y-42500
X42200Y-35500
X42200Y-36500
X42200Y-37500
X42200Y-38500
X42200Y-39500
X42200Y-40500
X42200Y-41500
X42200Y-42500
X39200Y-30700
X39987Y-30700
T2
X39900Y-32500
X39900Y-33500
T3
X45400Y-30400
X45400Y-31400
X45400Y-32400
X45400Y-33400
X45500Y-36700
X45500Y-37700
X45500Y-38700
X45500Y-39700
X45500Y-40700
X45500Y-41700
X36600Y-28300
X36600Y-29300
X36600Y-30300
X36600Y-31300
X36600Y-32300
X36600Y-33300
X36500Y-36600
X36500Y-37600
X36500Y-38600
X36500Y-39600
X36500Y-40600
X36500Y-41600
T4
X41300Y-31300
X41300Y-33300
T5
X40000Y-28000
X42000Y-28000
T6
X35700Y-24300
X35700Y-44700
X46400Y-24200
X46500Y-44700
T0
M30
