  0
SECTION
  2
HEADER
  9
$ANGBASE
  50
0.0
  9
$ANGDIR
  70
  1
  9
$MEASUREMENT
  70
0
  0
ENDSEC
  0
SECTION
  2
TABLES
  0
TABLE
  2
LTYPE
  70
4
  0
LTYPE
  5
40F
  2
CONTINUOUS
  70
0
  3
Solid line
  72
65
  73
0
  40
0.0
  0
LTYPE
  5
410
  2
DASHDOT
 70
0
  3
Dash Dot ____ _ ____ _
 72
65
 73
4
 40
2.0
 49
1.25
 49
-0.25
 49
0.25
 49
-0.25
  0
LTYPE
  5
411
  2
DASHED
 70
0
  3
Dashed __ __ __ __ __
 72
65
 73
2
 40
0.75
 49
0.5
 49
-0.25
  0
LTYPE
  5
43B
  2
DOTTED
 70
0
  3
Dotted .  .  .  .
 72
65
 73
2
 40
0.2
 49
0.0
 49
-0.2
  0
ENDTAB
  0
TABLE
  2
STYLE
  70
4
  0
STYLE
  2
KICAD
  70
0
  40
0
  41
1
  42
1
  50
0
  71
0
  3
isocp.shx
  0
STYLE
  2
KICADB
  70
0
  40
0
  41
1
  42
1
  50
0
  71
0
  3
isocp.shx
  0
STYLE
  2
KICADI
  70
0
  40
0
  41
1
  42
1
  50
15
  71
0
  3
isocp.shx
  0
STYLE
  2
KICADBI
  70
0
  40
0
  41
1
  42
1
  50
15
  71
0
  3
isocp.shx
  0
ENDTAB
  0
TABLE
  2
LAYER
  70
30
  0
LAYER
  2
BLACK
  70
0
  62
7
  6
CONTINUOUS
  0
LAYER
  2
GRAY1
  70
0
  62
251
  6
CONTINUOUS
  0
LAYER
  2
GRAY2
  70
0
  62
8
  6
CONTINUOUS
  0
LAYER
  2
GRAY3
  70
0
  62
9
  6
CONTINUOUS
  0
LAYER
  2
WHITE
  70
0
  62
7
  6
CONTINUOUS
  0
LAYER
  2
LYELLOW
  70
0
  62
51
  6
CONTINUOUS
  0
LAYER
  2
BLUE1
  70
0
  62
178
  6
CONTINUOUS
  0
LAYER
  2
GREEN1
  70
0
  62
98
  6
CONTINUOUS
  0
LAYER
  2
CYAN1
  70
0
  62
138
  6
CONTINUOUS
  0
LAYER
  2
RED1
  70
0
  62
18
  6
CONTINUOUS
  0
LAYER
  2
MAGENTA1
  70
0
  62
228
  6
CONTINUOUS
  0
LAYER
  2
BROWN1
  70
0
  62
58
  6
CONTINUOUS
  0
LAYER
  2
BLUE2
  70
0
  62
5
  6
CONTINUOUS
  0
LAYER
  2
GREEN2
  70
0
  62
3
  6
CONTINUOUS
  0
LAYER
  2
CYAN2
  70
0
  62
4
  6
CONTINUOUS
  0
LAYER
  2
RED2
  70
0
  62
1
  6
CONTINUOUS
  0
LAYER
  2
MAGENTA2
  70
0
  62
6
  6
CONTINUOUS
  0
LAYER
  2
BROWN2
  70
0
  62
54
  6
CONTINUOUS
  0
LAYER
  2
BLUE3
  70
0
  62
171
  6
CONTINUOUS
  0
LAYER
  2
GREEN3
  70
0
  62
91
  6
CONTINUOUS
  0
LAYER
  2
CYAN3
  70
0
  62
131
  6
CONTINUOUS
  0
LAYER
  2
RED3
  70
0
  62
11
  6
CONTINUOUS
  0
LAYER
  2
MAGENTA3
  70
0
  62
221
  6
CONTINUOUS
  0
LAYER
  2
YELLOW3
  70
0
  62
2
  6
CONTINUOUS
  0
LAYER
  2
BLUE4
  70
0
  62
5
  6
CONTINUOUS
  0
LAYER
  2
GREEN4
  70
0
  62
3
  6
CONTINUOUS
  0
LAYER
  2
CYAN4
  70
0
  62
4
  6
CONTINUOUS
  0
LAYER
  2
RED4
  70
0
  62
1
  6
CONTINUOUS
  0
LAYER
  2
MAGENTA4
  70
0
  62
6
  6
CONTINUOUS
  0
LAYER
  2
YELLOW4
  70
0
  62
2
  6
CONTINUOUS
  0
ENDTAB
  0
ENDSEC
  0
SECTION
  2
ENTITIES
0
LINE
8
BLACK
6
CONTINUOUS
10
108.239
20
-108.501
11
106.137
21
-108.501
0
LINE
8
BLACK
6
CONTINUOUS
10
106.137
20
-108.501
11
106.137
21
-107.399
0
LINE
8
BLACK
6
CONTINUOUS
10
106.137
20
-107.399
11
108.239
21
-107.399
0
LINE
8
BLACK
6
CONTINUOUS
10
108.239
20
-107.399
11
108.239
21
-108.501
0
LINE
8
BLACK
6
CONTINUOUS
10
100.619
20
-108.501
11
98.517
21
-108.501
0
LINE
8
BLACK
6
CONTINUOUS
10
98.517
20
-108.501
11
98.517
21
-107.399
0
LINE
8
BLACK
6
CONTINUOUS
10
98.517
20
-107.399
11
100.619
21
-107.399
0
LINE
8
BLACK
6
CONTINUOUS
10
100.619
20
-107.399
11
100.619
21
-108.501
0
LINE
8
BLACK
6
CONTINUOUS
10
116.521
20
-106.869
11
114.619
21
-106.869
0
LINE
8
BLACK
6
CONTINUOUS
10
114.619
20
-106.869
11
114.619
21
-104.967
0
LINE
8
BLACK
6
CONTINUOUS
10
114.619
20
-104.967
11
116.521
21
-104.967
0
LINE
8
BLACK
6
CONTINUOUS
10
116.521
20
-104.967
11
116.521
21
-106.869
0
LINE
8
BLACK
6
CONTINUOUS
10
93.661
20
-106.615
11
91.759
21
-106.615
0
LINE
8
BLACK
6
CONTINUOUS
10
91.759
20
-106.615
11
91.759
21
-104.713
0
LINE
8
BLACK
6
CONTINUOUS
10
91.759
20
-104.713
11
93.661
21
-104.713
0
LINE
8
BLACK
6
CONTINUOUS
10
93.661
20
-104.713
11
93.661
21
-106.615
0
LINE
8
BLACK
6
CONTINUOUS
10
108.239
20
-105.961
11
106.137
21
-105.961
0
LINE
8
BLACK
6
CONTINUOUS
10
106.137
20
-105.961
11
106.137
21
-104.859
0
LINE
8
BLACK
6
CONTINUOUS
10
106.137
20
-104.859
11
108.239
21
-104.859
0
LINE
8
BLACK
6
CONTINUOUS
10
108.239
20
-104.859
11
108.239
21
-105.961
0
LINE
8
BLACK
6
CONTINUOUS
10
100.619
20
-105.961
11
98.517
21
-105.961
0
LINE
8
BLACK
6
CONTINUOUS
10
98.517
20
-105.961
11
98.517
21
-104.859
0
LINE
8
BLACK
6
CONTINUOUS
10
98.517
20
-104.859
11
100.619
21
-104.859
0
LINE
8
BLACK
6
CONTINUOUS
10
100.619
20
-104.859
11
100.619
21
-105.961
0
LINE
8
BLACK
6
CONTINUOUS
10
116.521
20
-104.329
11
114.619
21
-104.329
0
LINE
8
BLACK
6
CONTINUOUS
10
114.619
20
-104.329
11
114.619
21
-102.427
0
LINE
8
BLACK
6
CONTINUOUS
10
114.619
20
-102.427
11
116.521
21
-102.427
0
LINE
8
BLACK
6
CONTINUOUS
10
116.521
20
-102.427
11
116.521
21
-104.329
0
LINE
8
BLACK
6
CONTINUOUS
10
93.661
20
-104.075
11
91.759
21
-104.075
0
LINE
8
BLACK
6
CONTINUOUS
10
91.759
20
-104.075
11
91.759
21
-102.173
0
LINE
8
BLACK
6
CONTINUOUS
10
91.759
20
-102.173
11
93.661
21
-102.173
0
LINE
8
BLACK
6
CONTINUOUS
10
93.661
20
-102.173
11
93.661
21
-104.075
0
LINE
8
BLACK
6
CONTINUOUS
10
108.239
20
-103.421
11
106.137
21
-103.421
0
LINE
8
BLACK
6
CONTINUOUS
10
106.137
20
-103.421
11
106.137
21
-102.319
0
LINE
8
BLACK
6
CONTINUOUS
10
106.137
20
-102.319
11
108.239
21
-102.319
0
LINE
8
BLACK
6
CONTINUOUS
10
108.239
20
-102.319
11
108.239
21
-103.421
0
LINE
8
BLACK
6
CONTINUOUS
10
100.619
20
-103.421
11
98.517
21
-103.421
0
LINE
8
BLACK
6
CONTINUOUS
10
98.517
20
-103.421
11
98.517
21
-102.319
0
LINE
8
BLACK
6
CONTINUOUS
10
98.517
20
-102.319
11
100.619
21
-102.319
0
LINE
8
BLACK
6
CONTINUOUS
10
100.619
20
-102.319
11
100.619
21
-103.421
0
LINE
8
BLACK
6
CONTINUOUS
10
116.521
20
-101.789
11
114.619
21
-101.789
0
LINE
8
BLACK
6
CONTINUOUS
10
114.619
20
-101.789
11
114.619
21
-99.887
0
LINE
8
BLACK
6
CONTINUOUS
10
114.619
20
-99.887
11
116.521
21
-99.887
0
LINE
8
BLACK
6
CONTINUOUS
10
116.521
20
-99.887
11
116.521
21
-101.789
0
LINE
8
BLACK
6
CONTINUOUS
10
93.661
20
-101.535
11
91.759
21
-101.535
0
LINE
8
BLACK
6
CONTINUOUS
10
91.759
20
-101.535
11
91.759
21
-99.633
0
LINE
8
BLACK
6
CONTINUOUS
10
91.759
20
-99.633
11
93.661
21
-99.633
0
LINE
8
BLACK
6
CONTINUOUS
10
93.661
20
-99.633
11
93.661
21
-101.535
0
LINE
8
BLACK
6
CONTINUOUS
10
100.619
20
-100.881
11
98.517
21
-100.881
0
LINE
8
BLACK
6
CONTINUOUS
10
98.517
20
-100.881
11
98.517
21
-99.779
0
LINE
8
BLACK
6
CONTINUOUS
10
98.517
20
-99.779
11
100.619
21
-99.779
0
LINE
8
BLACK
6
CONTINUOUS
10
100.619
20
-99.779
11
100.619
21
-100.881
0
LINE
8
BLACK
6
CONTINUOUS
10
108.239
20
-100.881
11
106.137
21
-100.881
0
LINE
8
BLACK
6
CONTINUOUS
10
106.137
20
-100.881
11
106.137
21
-99.779
0
LINE
8
BLACK
6
CONTINUOUS
10
106.137
20
-99.779
11
108.239
21
-99.779
0
LINE
8
BLACK
6
CONTINUOUS
10
108.239
20
-99.779
11
108.239
21
-100.881
0
LINE
8
BLACK
6
CONTINUOUS
10
116.521
20
-99.249
11
114.619
21
-99.249
0
LINE
8
BLACK
6
CONTINUOUS
10
114.619
20
-99.249
11
114.619
21
-97.347
0
LINE
8
BLACK
6
CONTINUOUS
10
114.619
20
-97.347
11
116.521
21
-97.347
0
LINE
8
BLACK
6
CONTINUOUS
10
116.521
20
-97.347
11
116.521
21
-99.249
0
LINE
8
BLACK
6
CONTINUOUS
10
93.661
20
-98.995
11
91.759
21
-98.995
0
LINE
8
BLACK
6
CONTINUOUS
10
91.759
20
-98.995
11
91.759
21
-97.093
0
LINE
8
BLACK
6
CONTINUOUS
10
91.759
20
-97.093
11
93.661
21
-97.093
0
LINE
8
BLACK
6
CONTINUOUS
10
93.661
20
-97.093
11
93.661
21
-98.995
0
LINE
8
BLACK
6
CONTINUOUS
10
100.619
20
-98.341
11
98.517
21
-98.341
0
LINE
8
BLACK
6
CONTINUOUS
10
98.517
20
-98.341
11
98.517
21
-97.239
0
LINE
8
BLACK
6
CONTINUOUS
10
98.517
20
-97.239
11
100.619
21
-97.239
0
LINE
8
BLACK
6
CONTINUOUS
10
100.619
20
-97.239
11
100.619
21
-98.341
0
LINE
8
BLACK
6
CONTINUOUS
10
108.239
20
-98.341
11
106.137
21
-98.341
0
LINE
8
BLACK
6
CONTINUOUS
10
106.137
20
-98.341
11
106.137
21
-97.239
0
LINE
8
BLACK
6
CONTINUOUS
10
106.137
20
-97.239
11
108.239
21
-97.239
0
LINE
8
BLACK
6
CONTINUOUS
10
108.239
20
-97.239
11
108.239
21
-98.341
0
LINE
8
BLACK
6
CONTINUOUS
10
116.621
20
-96.809
11
114.519
21
-96.809
0
LINE
8
BLACK
6
CONTINUOUS
10
114.519
20
-96.809
11
114.519
21
-94.707
0
LINE
8
BLACK
6
CONTINUOUS
10
114.519
20
-94.707
11
116.621
21
-94.707
0
LINE
8
BLACK
6
CONTINUOUS
10
116.621
20
-94.707
11
116.621
21
-96.809
0
LINE
8
BLACK
6
CONTINUOUS
10
93.661
20
-96.455
11
91.759
21
-96.455
0
LINE
8
BLACK
6
CONTINUOUS
10
91.759
20
-96.455
11
91.759
21
-94.553
0
LINE
8
BLACK
6
CONTINUOUS
10
91.759
20
-94.553
11
93.661
21
-94.553
0
LINE
8
BLACK
6
CONTINUOUS
10
93.661
20
-94.553
11
93.661
21
-96.455
0
LINE
8
BLACK
6
CONTINUOUS
10
100.619
20
-95.801
11
98.517
21
-95.801
0
LINE
8
BLACK
6
CONTINUOUS
10
98.517
20
-95.801
11
98.517
21
-94.699
0
LINE
8
BLACK
6
CONTINUOUS
10
98.517
20
-94.699
11
100.619
21
-94.699
0
LINE
8
BLACK
6
CONTINUOUS
10
100.619
20
-94.699
11
100.619
21
-95.801
0
LINE
8
BLACK
6
CONTINUOUS
10
108.239
20
-95.801
11
106.137
21
-95.801
0
LINE
8
BLACK
6
CONTINUOUS
10
106.137
20
-95.801
11
106.137
21
-94.699
0
LINE
8
BLACK
6
CONTINUOUS
10
106.137
20
-94.699
11
108.239
21
-94.699
0
LINE
8
BLACK
6
CONTINUOUS
10
108.239
20
-94.699
11
108.239
21
-95.801
0
LINE
8
BLACK
6
CONTINUOUS
10
116.521
20
-94.269
11
114.619
21
-94.269
0
LINE
8
BLACK
6
CONTINUOUS
10
114.619
20
-94.269
11
114.619
21
-92.167
0
LINE
8
BLACK
6
CONTINUOUS
10
114.619
20
-92.167
11
116.521
21
-92.167
0
LINE
8
BLACK
6
CONTINUOUS
10
116.521
20
-92.167
11
116.521
21
-94.269
0
LINE
8
BLACK
6
CONTINUOUS
10
93.661
20
-93.915
11
91.759
21
-93.915
0
LINE
8
BLACK
6
CONTINUOUS
10
91.759
20
-93.915
11
91.759
21
-92.013
0
LINE
8
BLACK
6
CONTINUOUS
10
91.759
20
-92.013
11
93.661
21
-92.013
0
LINE
8
BLACK
6
CONTINUOUS
10
93.661
20
-92.013
11
93.661
21
-93.915
0
LINE
8
BLACK
6
CONTINUOUS
10
100.619
20
-93.261
11
98.517
21
-93.261
0
LINE
8
BLACK
6
CONTINUOUS
10
98.517
20
-93.261
11
98.517
21
-92.159
0
LINE
8
BLACK
6
CONTINUOUS
10
98.517
20
-92.159
11
100.619
21
-92.159
0
LINE
8
BLACK
6
CONTINUOUS
10
100.619
20
-92.159
11
100.619
21
-93.261
0
LINE
8
BLACK
6
CONTINUOUS
10
108.239
20
-93.261
11
106.137
21
-93.261
0
LINE
8
BLACK
6
CONTINUOUS
10
106.137
20
-93.261
11
106.137
21
-92.159
0
LINE
8
BLACK
6
CONTINUOUS
10
106.137
20
-92.159
11
108.239
21
-92.159
0
LINE
8
BLACK
6
CONTINUOUS
10
108.239
20
-92.159
11
108.239
21
-93.261
0
LINE
8
BLACK
6
CONTINUOUS
10
100.619
20
-90.721
11
98.517
21
-90.721
0
LINE
8
BLACK
6
CONTINUOUS
10
98.517
20
-90.721
11
98.517
21
-89.619
0
LINE
8
BLACK
6
CONTINUOUS
10
98.517
20
-89.619
11
100.619
21
-89.619
0
LINE
8
BLACK
6
CONTINUOUS
10
100.619
20
-89.619
11
100.619
21
-90.721
0
LINE
8
BLACK
6
CONTINUOUS
10
108.239
20
-90.721
11
106.137
21
-90.721
0
LINE
8
BLACK
6
CONTINUOUS
10
106.137
20
-90.721
11
106.137
21
-89.619
0
LINE
8
BLACK
6
CONTINUOUS
10
106.137
20
-89.619
11
108.239
21
-89.619
0
LINE
8
BLACK
6
CONTINUOUS
10
108.239
20
-89.619
11
108.239
21
-90.721
0
LINE
8
BLACK
6
CONTINUOUS
10
102.297
20
-86.041
11
100.395
21
-86.041
0
LINE
8
BLACK
6
CONTINUOUS
10
100.395
20
-86.041
11
100.395
21
-84.139
0
LINE
8
BLACK
6
CONTINUOUS
10
100.395
20
-84.139
11
102.297
21
-84.139
0
LINE
8
BLACK
6
CONTINUOUS
10
102.297
20
-84.139
11
102.297
21
-86.041
0
LINE
8
BLACK
6
CONTINUOUS
10
116.367
20
-85.887
11
114.265
21
-85.887
0
LINE
8
BLACK
6
CONTINUOUS
10
114.265
20
-85.887
11
114.265
21
-83.785
0
LINE
8
BLACK
6
CONTINUOUS
10
114.265
20
-83.785
11
116.367
21
-83.785
0
LINE
8
BLACK
6
CONTINUOUS
10
116.367
20
-83.785
11
116.367
21
-85.887
0
LINE
8
BLACK
6
CONTINUOUS
10
105.147
20
-83.3491
11
105.383
21
-83.4206
0
LINE
8
BLACK
6
CONTINUOUS
10
105.383
20
-83.4206
11
105.6
21
-83.5368
0
LINE
8
BLACK
6
CONTINUOUS
10
105.6
20
-83.5368
11
105.791
21
-83.6931
0
LINE
8
BLACK
6
CONTINUOUS
10
105.791
20
-83.6931
11
105.947
21
-83.8836
0
LINE
8
BLACK
6
CONTINUOUS
10
105.947
20
-83.8836
11
106.063
21
-84.1009
0
LINE
8
BLACK
6
CONTINUOUS
10
106.063
20
-84.1009
11
106.135
21
-84.3368
0
LINE
8
BLACK
6
CONTINUOUS
10
106.135
20
-84.3368
11
106.159
21
-84.582
0
LINE
8
BLACK
6
CONTINUOUS
10
106.159
20
-84.582
11
106.135
21
-84.8272
0
LINE
8
BLACK
6
CONTINUOUS
10
106.135
20
-84.8272
11
106.063
21
-85.0631
0
LINE
8
BLACK
6
CONTINUOUS
10
106.063
20
-85.0631
11
105.947
21
-85.2804
0
LINE
8
BLACK
6
CONTINUOUS
10
105.947
20
-85.2804
11
105.791
21
-85.4709
0
LINE
8
BLACK
6
CONTINUOUS
10
105.791
20
-85.4709
11
105.6
21
-85.6272
0
LINE
8
BLACK
6
CONTINUOUS
10
105.6
20
-85.6272
11
105.383
21
-85.7434
0
LINE
8
BLACK
6
CONTINUOUS
10
105.383
20
-85.7434
11
105.147
21
-85.8149
0
LINE
8
BLACK
6
CONTINUOUS
10
105.147
20
-85.8149
11
104.963
21
-85.833
0
LINE
8
BLACK
6
CONTINUOUS
10
104.963
20
-85.833
11
104.841
21
-85.833
0
LINE
8
BLACK
6
CONTINUOUS
10
104.841
20
-85.833
11
104.657
21
-85.8149
0
LINE
8
BLACK
6
CONTINUOUS
10
104.657
20
-85.8149
11
104.421
21
-85.7434
0
LINE
8
BLACK
6
CONTINUOUS
10
104.421
20
-85.7434
11
104.204
21
-85.6272
0
LINE
8
BLACK
6
CONTINUOUS
10
104.204
20
-85.6272
11
104.013
21
-85.4709
0
LINE
8
BLACK
6
CONTINUOUS
10
104.013
20
-85.4709
11
103.857
21
-85.2804
0
LINE
8
BLACK
6
CONTINUOUS
10
103.857
20
-85.2804
11
103.741
21
-85.0631
0
LINE
8
BLACK
6
CONTINUOUS
10
103.741
20
-85.0631
11
103.669
21
-84.8272
0
LINE
8
BLACK
6
CONTINUOUS
10
103.669
20
-84.8272
11
103.645
21
-84.582
0
LINE
8
BLACK
6
CONTINUOUS
10
103.645
20
-84.582
11
103.669
21
-84.3368
0
LINE
8
BLACK
6
CONTINUOUS
10
103.669
20
-84.3368
11
103.741
21
-84.1009
0
LINE
8
BLACK
6
CONTINUOUS
10
103.741
20
-84.1009
11
103.857
21
-83.8836
0
LINE
8
BLACK
6
CONTINUOUS
10
103.857
20
-83.8836
11
104.013
21
-83.6931
0
LINE
8
BLACK
6
CONTINUOUS
10
104.013
20
-83.6931
11
104.204
21
-83.5368
0
LINE
8
BLACK
6
CONTINUOUS
10
104.204
20
-83.5368
11
104.421
21
-83.4206
0
LINE
8
BLACK
6
CONTINUOUS
10
104.421
20
-83.4206
11
104.657
21
-83.3491
0
LINE
8
BLACK
6
CONTINUOUS
10
104.657
20
-83.3491
11
104.841
21
-83.331
0
LINE
8
BLACK
6
CONTINUOUS
10
104.841
20
-83.331
11
104.963
21
-83.331
0
LINE
8
BLACK
6
CONTINUOUS
10
104.963
20
-83.331
11
105.147
21
-83.3491
0
LINE
8
BLACK
6
CONTINUOUS
10
93.915
20
-85.533
11
92.013
21
-85.533
0
LINE
8
BLACK
6
CONTINUOUS
10
92.013
20
-85.533
11
92.013
21
-83.631
0
LINE
8
BLACK
6
CONTINUOUS
10
92.013
20
-83.631
11
93.915
21
-83.631
0
LINE
8
BLACK
6
CONTINUOUS
10
93.915
20
-83.631
11
93.915
21
-85.533
0
LINE
8
BLACK
6
CONTINUOUS
10
101.623
20
-81.6355
11
101.796
21
-81.7072
0
LINE
8
BLACK
6
CONTINUOUS
10
101.796
20
-81.7072
11
101.796
21
-81.7072
0
LINE
8
BLACK
6
CONTINUOUS
10
101.796
20
-81.7072
11
101.952
21
-81.8113
0
LINE
8
BLACK
6
CONTINUOUS
10
101.952
20
-81.8113
11
102.085
21
-81.9438
0
LINE
8
BLACK
6
CONTINUOUS
10
102.085
20
-81.9438
11
102.085
21
-81.9438
0
LINE
8
BLACK
6
CONTINUOUS
10
102.085
20
-81.9438
11
102.189
21
-82.0995
0
LINE
8
BLACK
6
CONTINUOUS
10
102.189
20
-82.0995
11
102.26
21
-82.2726
0
LINE
8
BLACK
6
CONTINUOUS
10
102.26
20
-82.2726
11
102.297
21
-82.4563
0
LINE
8
BLACK
6
CONTINUOUS
10
102.297
20
-82.4563
11
102.297
21
-82.6437
0
LINE
8
BLACK
6
CONTINUOUS
10
102.297
20
-82.6437
11
102.26
21
-82.8274
0
LINE
8
BLACK
6
CONTINUOUS
10
102.26
20
-82.8274
11
102.189
21
-83.0005
0
LINE
8
BLACK
6
CONTINUOUS
10
102.189
20
-83.0005
11
102.189
21
-83.0005
0
LINE
8
BLACK
6
CONTINUOUS
10
102.189
20
-83.0005
11
102.085
21
-83.1562
0
LINE
8
BLACK
6
CONTINUOUS
10
102.085
20
-83.1562
11
101.952
21
-83.2887
0
LINE
8
BLACK
6
CONTINUOUS
10
101.952
20
-83.2887
11
101.889
21
-83.331
0
LINE
8
BLACK
6
CONTINUOUS
10
101.889
20
-83.331
11
101.796
21
-83.3928
0
LINE
8
BLACK
6
CONTINUOUS
10
101.796
20
-83.3928
11
101.623
21
-83.4645
0
LINE
8
BLACK
6
CONTINUOUS
10
101.623
20
-83.4645
11
101.44
21
-83.501
0
LINE
8
BLACK
6
CONTINUOUS
10
101.44
20
-83.501
11
101.252
21
-83.501
0
LINE
8
BLACK
6
CONTINUOUS
10
101.252
20
-83.501
11
101.069
21
-83.4645
0
LINE
8
BLACK
6
CONTINUOUS
10
101.069
20
-83.4645
11
100.896
21
-83.3928
0
LINE
8
BLACK
6
CONTINUOUS
10
100.896
20
-83.3928
11
100.803
21
-83.331
0
LINE
8
BLACK
6
CONTINUOUS
10
100.803
20
-83.331
11
100.74
21
-83.2887
0
LINE
8
BLACK
6
CONTINUOUS
10
100.74
20
-83.2887
11
100.607
21
-83.1562
0
LINE
8
BLACK
6
CONTINUOUS
10
100.607
20
-83.1562
11
100.503
21
-83.0005
0
LINE
8
BLACK
6
CONTINUOUS
10
100.503
20
-83.0005
11
100.503
21
-83.0005
0
LINE
8
BLACK
6
CONTINUOUS
10
100.503
20
-83.0005
11
100.432
21
-82.8274
0
LINE
8
BLACK
6
CONTINUOUS
10
100.432
20
-82.8274
11
100.395
21
-82.6437
0
LINE
8
BLACK
6
CONTINUOUS
10
100.395
20
-82.6437
11
100.395
21
-82.4563
0
LINE
8
BLACK
6
CONTINUOUS
10
100.395
20
-82.4563
11
100.432
21
-82.2726
0
LINE
8
BLACK
6
CONTINUOUS
10
100.432
20
-82.2726
11
100.503
21
-82.0995
0
LINE
8
BLACK
6
CONTINUOUS
10
100.503
20
-82.0995
11
100.607
21
-81.9438
0
LINE
8
BLACK
6
CONTINUOUS
10
100.607
20
-81.9438
11
100.607
21
-81.9438
0
LINE
8
BLACK
6
CONTINUOUS
10
100.607
20
-81.9438
11
100.74
21
-81.8113
0
LINE
8
BLACK
6
CONTINUOUS
10
100.74
20
-81.8113
11
100.896
21
-81.7072
0
LINE
8
BLACK
6
CONTINUOUS
10
100.896
20
-81.7072
11
100.896
21
-81.7072
0
LINE
8
BLACK
6
CONTINUOUS
10
100.896
20
-81.7072
11
101.069
21
-81.6355
0
LINE
8
BLACK
6
CONTINUOUS
10
101.069
20
-81.6355
11
101.252
21
-81.599
0
LINE
8
BLACK
6
CONTINUOUS
10
101.252
20
-81.599
11
101.44
21
-81.599
0
LINE
8
BLACK
6
CONTINUOUS
10
101.44
20
-81.599
11
101.623
21
-81.6355
0
LINE
8
BLACK
6
CONTINUOUS
10
116.367
20
-83.347
11
114.265
21
-83.347
0
LINE
8
BLACK
6
CONTINUOUS
10
114.265
20
-83.347
11
114.265
21
-81.245
0
LINE
8
BLACK
6
CONTINUOUS
10
114.265
20
-81.245
11
116.367
21
-81.245
0
LINE
8
BLACK
6
CONTINUOUS
10
116.367
20
-81.245
11
116.367
21
-83.347
0
LINE
8
BLACK
6
CONTINUOUS
10
93.915
20
-82.993
11
92.013
21
-82.993
0
LINE
8
BLACK
6
CONTINUOUS
10
92.013
20
-82.993
11
92.013
21
-81.091
0
LINE
8
BLACK
6
CONTINUOUS
10
92.013
20
-81.091
11
93.915
21
-81.091
0
LINE
8
BLACK
6
CONTINUOUS
10
93.915
20
-81.091
11
93.915
21
-82.993
0
LINE
8
BLACK
6
CONTINUOUS
10
116.367
20
-80.807
11
114.265
21
-80.807
0
LINE
8
BLACK
6
CONTINUOUS
10
114.265
20
-80.807
11
114.265
21
-78.705
0
LINE
8
BLACK
6
CONTINUOUS
10
114.265
20
-78.705
11
116.367
21
-78.705
0
LINE
8
BLACK
6
CONTINUOUS
10
116.367
20
-78.705
11
116.367
21
-80.807
0
LINE
8
BLACK
6
CONTINUOUS
10
105.267
20
-78.2991
11
105.465
21
-78.3811
0
LINE
8
BLACK
6
CONTINUOUS
10
105.465
20
-78.3811
11
105.495
21
-78.3934
0
LINE
8
BLACK
6
CONTINUOUS
10
105.495
20
-78.3934
11
105.699
21
-78.5303
0
LINE
8
BLACK
6
CONTINUOUS
10
105.699
20
-78.5303
11
105.874
21
-78.7045
0
LINE
8
BLACK
6
CONTINUOUS
10
105.874
20
-78.7045
11
106.011
21
-78.9094
0
LINE
8
BLACK
6
CONTINUOUS
10
106.011
20
-78.9094
11
106.105
21
-79.1371
0
LINE
8
BLACK
6
CONTINUOUS
10
106.105
20
-79.1371
11
106.153
21
-79.3788
0
LINE
8
BLACK
6
CONTINUOUS
10
106.153
20
-79.3788
11
106.153
21
-79.6252
0
LINE
8
BLACK
6
CONTINUOUS
10
106.153
20
-79.6252
11
106.105
21
-79.8669
0
LINE
8
BLACK
6
CONTINUOUS
10
106.105
20
-79.8669
11
106.011
21
-80.0946
0
LINE
8
BLACK
6
CONTINUOUS
10
106.011
20
-80.0946
11
105.874
21
-80.2995
0
LINE
8
BLACK
6
CONTINUOUS
10
105.874
20
-80.2995
11
105.699
21
-80.4737
0
LINE
8
BLACK
6
CONTINUOUS
10
105.699
20
-80.4737
11
105.495
21
-80.6106
0
LINE
8
BLACK
6
CONTINUOUS
10
105.495
20
-80.6106
11
105.495
21
-80.6106
0
LINE
8
BLACK
6
CONTINUOUS
10
105.495
20
-80.6106
11
105.495
21
-80.6106
0
LINE
8
BLACK
6
CONTINUOUS
10
105.495
20
-80.6106
11
105.267
21
-80.7049
0
LINE
8
BLACK
6
CONTINUOUS
10
105.267
20
-80.7049
11
105.025
21
-80.753
0
LINE
8
BLACK
6
CONTINUOUS
10
105.025
20
-80.753
11
104.779
21
-80.753
0
LINE
8
BLACK
6
CONTINUOUS
10
104.779
20
-80.753
11
104.537
21
-80.7049
0
LINE
8
BLACK
6
CONTINUOUS
10
104.537
20
-80.7049
11
104.309
21
-80.6106
0
LINE
8
BLACK
6
CONTINUOUS
10
104.309
20
-80.6106
11
104.309
21
-80.6106
0
LINE
8
BLACK
6
CONTINUOUS
10
104.309
20
-80.6106
11
104.309
21
-80.6106
0
LINE
8
BLACK
6
CONTINUOUS
10
104.309
20
-80.6106
11
104.105
21
-80.4737
0
LINE
8
BLACK
6
CONTINUOUS
10
104.105
20
-80.4737
11
103.93
21
-80.2995
0
LINE
8
BLACK
6
CONTINUOUS
10
103.93
20
-80.2995
11
103.793
21
-80.0946
0
LINE
8
BLACK
6
CONTINUOUS
10
103.793
20
-80.0946
11
103.699
21
-79.8669
0
LINE
8
BLACK
6
CONTINUOUS
10
103.699
20
-79.8669
11
103.651
21
-79.6252
0
LINE
8
BLACK
6
CONTINUOUS
10
103.651
20
-79.6252
11
103.651
21
-79.3788
0
LINE
8
BLACK
6
CONTINUOUS
10
103.651
20
-79.3788
11
103.699
21
-79.1371
0
LINE
8
BLACK
6
CONTINUOUS
10
103.699
20
-79.1371
11
103.793
21
-78.9094
0
LINE
8
BLACK
6
CONTINUOUS
10
103.793
20
-78.9094
11
103.93
21
-78.7045
0
LINE
8
BLACK
6
CONTINUOUS
10
103.93
20
-78.7045
11
104.105
21
-78.5303
0
LINE
8
BLACK
6
CONTINUOUS
10
104.105
20
-78.5303
11
104.309
21
-78.3934
0
LINE
8
BLACK
6
CONTINUOUS
10
104.309
20
-78.3934
11
104.339
21
-78.3811
0
LINE
8
BLACK
6
CONTINUOUS
10
104.339
20
-78.3811
11
104.537
21
-78.2991
0
LINE
8
BLACK
6
CONTINUOUS
10
104.537
20
-78.2991
11
104.779
21
-78.251
0
LINE
8
BLACK
6
CONTINUOUS
10
104.779
20
-78.251
11
105.025
21
-78.251
0
LINE
8
BLACK
6
CONTINUOUS
10
105.025
20
-78.251
11
105.267
21
-78.2991
0
LINE
8
BLACK
6
CONTINUOUS
10
93.915
20
-80.453
11
92.013
21
-80.453
0
LINE
8
BLACK
6
CONTINUOUS
10
92.013
20
-80.453
11
92.013
21
-78.551
0
LINE
8
BLACK
6
CONTINUOUS
10
92.013
20
-78.551
11
93.915
21
-78.551
0
LINE
8
BLACK
6
CONTINUOUS
10
93.915
20
-78.551
11
93.915
21
-80.453
0
LINE
8
BLACK
6
CONTINUOUS
10
100.419
20
-78.829
11
98.717
21
-78.829
0
LINE
8
BLACK
6
CONTINUOUS
10
98.717
20
-78.829
11
98.717
21
-77.127
0
LINE
8
BLACK
6
CONTINUOUS
10
98.717
20
-77.127
11
100.419
21
-77.127
0
LINE
8
BLACK
6
CONTINUOUS
10
100.419
20
-77.127
11
100.419
21
-78.829
0
LINE
8
BLACK
6
CONTINUOUS
10
101.816
20
-77.1597
11
101.971
21
-77.2239
0
LINE
8
BLACK
6
CONTINUOUS
10
101.971
20
-77.2239
11
102.11
21
-77.317
0
LINE
8
BLACK
6
CONTINUOUS
10
102.11
20
-77.317
11
102.229
21
-77.4355
0
LINE
8
BLACK
6
CONTINUOUS
10
102.229
20
-77.4355
11
102.322
21
-77.5749
0
LINE
8
BLACK
6
CONTINUOUS
10
102.322
20
-77.5749
11
102.386
21
-77.7298
0
LINE
8
BLACK
6
CONTINUOUS
10
102.386
20
-77.7298
11
102.419
21
-77.8942
0
LINE
8
BLACK
6
CONTINUOUS
10
102.419
20
-77.8942
11
102.419
21
-78.0618
0
LINE
8
BLACK
6
CONTINUOUS
10
102.419
20
-78.0618
11
102.386
21
-78.2262
0
LINE
8
BLACK
6
CONTINUOUS
10
102.386
20
-78.2262
11
102.322
21
-78.3811
0
LINE
8
BLACK
6
CONTINUOUS
10
102.322
20
-78.3811
11
102.229
21
-78.5205
0
LINE
8
BLACK
6
CONTINUOUS
10
102.229
20
-78.5205
11
102.11
21
-78.639
0
LINE
8
BLACK
6
CONTINUOUS
10
102.11
20
-78.639
11
101.971
21
-78.7321
0
LINE
8
BLACK
6
CONTINUOUS
10
101.971
20
-78.7321
11
101.816
21
-78.7963
0
LINE
8
BLACK
6
CONTINUOUS
10
101.816
20
-78.7963
11
101.652
21
-78.829
0
LINE
8
BLACK
6
CONTINUOUS
10
101.652
20
-78.829
11
101.484
21
-78.829
0
LINE
8
BLACK
6
CONTINUOUS
10
101.484
20
-78.829
11
101.32
21
-78.7963
0
LINE
8
BLACK
6
CONTINUOUS
10
101.32
20
-78.7963
11
101.165
21
-78.7321
0
LINE
8
BLACK
6
CONTINUOUS
10
101.165
20
-78.7321
11
101.026
21
-78.639
0
LINE
8
BLACK
6
CONTINUOUS
10
101.026
20
-78.639
11
100.907
21
-78.5205
0
LINE
8
BLACK
6
CONTINUOUS
10
100.907
20
-78.5205
11
100.814
21
-78.3811
0
LINE
8
BLACK
6
CONTINUOUS
10
100.814
20
-78.3811
11
100.75
21
-78.2262
0
LINE
8
BLACK
6
CONTINUOUS
10
100.75
20
-78.2262
11
100.717
21
-78.0618
0
LINE
8
BLACK
6
CONTINUOUS
10
100.717
20
-78.0618
11
100.717
21
-77.8942
0
LINE
8
BLACK
6
CONTINUOUS
10
100.717
20
-77.8942
11
100.75
21
-77.7298
0
LINE
8
BLACK
6
CONTINUOUS
10
100.75
20
-77.7298
11
100.814
21
-77.5749
0
LINE
8
BLACK
6
CONTINUOUS
10
100.814
20
-77.5749
11
100.907
21
-77.4355
0
LINE
8
BLACK
6
CONTINUOUS
10
100.907
20
-77.4355
11
101.026
21
-77.317
0
LINE
8
BLACK
6
CONTINUOUS
10
101.026
20
-77.317
11
101.165
21
-77.2239
0
LINE
8
BLACK
6
CONTINUOUS
10
101.165
20
-77.2239
11
101.32
21
-77.1597
0
LINE
8
BLACK
6
CONTINUOUS
10
101.32
20
-77.1597
11
101.484
21
-77.127
0
LINE
8
BLACK
6
CONTINUOUS
10
101.484
20
-77.127
11
101.652
21
-77.127
0
LINE
8
BLACK
6
CONTINUOUS
10
101.652
20
-77.127
11
101.816
21
-77.1597
0
LINE
8
BLACK
6
CONTINUOUS
10
116.367
20
-78.267
11
114.265
21
-78.267
0
LINE
8
BLACK
6
CONTINUOUS
10
114.265
20
-78.267
11
114.265
21
-76.165
0
LINE
8
BLACK
6
CONTINUOUS
10
114.265
20
-76.165
11
116.367
21
-76.165
0
LINE
8
BLACK
6
CONTINUOUS
10
116.367
20
-76.165
11
116.367
21
-78.267
0
LINE
8
BLACK
6
CONTINUOUS
10
93.915
20
-77.913
11
92.013
21
-77.913
0
LINE
8
BLACK
6
CONTINUOUS
10
92.013
20
-77.913
11
92.013
21
-76.011
0
LINE
8
BLACK
6
CONTINUOUS
10
92.013
20
-76.011
11
93.915
21
-76.011
0
LINE
8
BLACK
6
CONTINUOUS
10
93.915
20
-76.011
11
93.915
21
-77.913
0
LINE
8
BLACK
6
CONTINUOUS
10
93.915
20
-75.373
11
92.013
21
-75.373
0
LINE
8
BLACK
6
CONTINUOUS
10
92.013
20
-75.373
11
92.013
21
-73.471
0
LINE
8
BLACK
6
CONTINUOUS
10
92.013
20
-73.471
11
93.915
21
-73.471
0
LINE
8
BLACK
6
CONTINUOUS
10
93.915
20
-73.471
11
93.915
21
-75.373
0
LINE
8
BLACK
6
CONTINUOUS
10
93.915
20
-72.833
11
92.013
21
-72.833
0
LINE
8
BLACK
6
CONTINUOUS
10
92.013
20
-72.833
11
92.013
21
-70.931
0
LINE
8
BLACK
6
CONTINUOUS
10
92.013
20
-70.931
11
93.915
21
-70.931
0
LINE
8
BLACK
6
CONTINUOUS
10
93.915
20
-70.931
11
93.915
21
-72.833
0
LINE
8
BLACK
6
CONTINUOUS
10
103.151
20
-72.671
11
100.049
21
-72.671
0
LINE
8
BLACK
6
CONTINUOUS
10
100.049
20
-72.671
11
100.049
21
-69.569
0
LINE
8
BLACK
6
CONTINUOUS
10
100.049
20
-69.569
11
103.151
21
-69.569
0
LINE
8
BLACK
6
CONTINUOUS
10
103.151
20
-69.569
11
103.151
21
-72.671
0
LINE
8
BLACK
6
CONTINUOUS
10
106.983
20
-69.5988
11
107.132
21
-69.6286
0
LINE
8
BLACK
6
CONTINUOUS
10
107.132
20
-69.6286
11
107.415
21
-69.7455
0
LINE
8
BLACK
6
CONTINUOUS
10
107.415
20
-69.7455
11
107.669
21
-69.9153
0
LINE
8
BLACK
6
CONTINUOUS
10
107.669
20
-69.9153
11
107.885
21
-70.1313
0
LINE
8
BLACK
6
CONTINUOUS
10
107.885
20
-70.1313
11
108.054
21
-70.3853
0
LINE
8
BLACK
6
CONTINUOUS
10
108.054
20
-70.3853
11
108.171
21
-70.6676
0
LINE
8
BLACK
6
CONTINUOUS
10
108.171
20
-70.6676
11
108.171
21
-70.6676
0
LINE
8
BLACK
6
CONTINUOUS
10
108.171
20
-70.6676
11
108.224
21
-70.931
0
LINE
8
BLACK
6
CONTINUOUS
10
108.224
20
-70.931
11
108.231
21
-70.9672
0
LINE
8
BLACK
6
CONTINUOUS
10
108.231
20
-70.9672
11
108.231
21
-71.2728
0
LINE
8
BLACK
6
CONTINUOUS
10
108.231
20
-71.2728
11
108.171
21
-71.5724
0
LINE
8
BLACK
6
CONTINUOUS
10
108.171
20
-71.5724
11
108.054
21
-71.8547
0
LINE
8
BLACK
6
CONTINUOUS
10
108.054
20
-71.8547
11
107.885
21
-72.1087
0
LINE
8
BLACK
6
CONTINUOUS
10
107.885
20
-72.1087
11
107.669
21
-72.3247
0
LINE
8
BLACK
6
CONTINUOUS
10
107.669
20
-72.3247
11
107.415
21
-72.4945
0
LINE
8
BLACK
6
CONTINUOUS
10
107.415
20
-72.4945
11
107.132
21
-72.6114
0
LINE
8
BLACK
6
CONTINUOUS
10
107.132
20
-72.6114
11
106.983
21
-72.6412
0
LINE
8
BLACK
6
CONTINUOUS
10
106.983
20
-72.6412
11
106.833
21
-72.671
0
LINE
8
BLACK
6
CONTINUOUS
10
106.833
20
-72.671
11
106.527
21
-72.671
0
LINE
8
BLACK
6
CONTINUOUS
10
106.527
20
-72.671
11
106.377
21
-72.6412
0
LINE
8
BLACK
6
CONTINUOUS
10
106.377
20
-72.6412
11
106.228
21
-72.6114
0
LINE
8
BLACK
6
CONTINUOUS
10
106.228
20
-72.6114
11
105.945
21
-72.4945
0
LINE
8
BLACK
6
CONTINUOUS
10
105.945
20
-72.4945
11
105.691
21
-72.3247
0
LINE
8
BLACK
6
CONTINUOUS
10
105.691
20
-72.3247
11
105.475
21
-72.1087
0
LINE
8
BLACK
6
CONTINUOUS
10
105.475
20
-72.1087
11
105.306
21
-71.8547
0
LINE
8
BLACK
6
CONTINUOUS
10
105.306
20
-71.8547
11
105.189
21
-71.5724
0
LINE
8
BLACK
6
CONTINUOUS
10
105.189
20
-71.5724
11
105.129
21
-71.2728
0
LINE
8
BLACK
6
CONTINUOUS
10
105.129
20
-71.2728
11
105.129
21
-70.9672
0
LINE
8
BLACK
6
CONTINUOUS
10
105.129
20
-70.9672
11
105.136
21
-70.931
0
LINE
8
BLACK
6
CONTINUOUS
10
105.136
20
-70.931
11
105.189
21
-70.6676
0
LINE
8
BLACK
6
CONTINUOUS
10
105.189
20
-70.6676
11
105.189
21
-70.6676
0
LINE
8
BLACK
6
CONTINUOUS
10
105.189
20
-70.6676
11
105.306
21
-70.3853
0
LINE
8
BLACK
6
CONTINUOUS
10
105.306
20
-70.3853
11
105.475
21
-70.1313
0
LINE
8
BLACK
6
CONTINUOUS
10
105.475
20
-70.1313
11
105.691
21
-69.9153
0
LINE
8
BLACK
6
CONTINUOUS
10
105.691
20
-69.9153
11
105.945
21
-69.7455
0
LINE
8
BLACK
6
CONTINUOUS
10
105.945
20
-69.7455
11
106.228
21
-69.6286
0
LINE
8
BLACK
6
CONTINUOUS
10
106.228
20
-69.6286
11
106.377
21
-69.5988
0
LINE
8
BLACK
6
CONTINUOUS
10
106.377
20
-69.5988
11
106.527
21
-69.569
0
LINE
8
BLACK
6
CONTINUOUS
10
106.527
20
-69.569
11
106.833
21
-69.569
0
LINE
8
BLACK
6
CONTINUOUS
10
106.833
20
-69.569
11
106.983
21
-69.5988
  0
ENDSEC
  0
EOF
