  0
SECTION
  2
HEADER
  9
$ANGBASE
  50
0.0
  9
$ANGDIR
  70
  1
  9
$MEASUREMENT
  70
0
  0
ENDSEC
  0
SECTION
  2
TABLES
  0
TABLE
  2
LTYPE
  70
4
  0
LTYPE
  5
40F
  2
CONTINUOUS
  70
0
  3
Solid line
  72
65
  73
0
  40
0.0
  0
LTYPE
  5
410
  2
DASHDOT
 70
0
  3
Dash Dot ____ _ ____ _
 72
65
 73
4
 40
2.0
 49
1.25
 49
-0.25
 49
0.25
 49
-0.25
  0
LTYPE
  5
411
  2
DASHED
 70
0
  3
Dashed __ __ __ __ __
 72
65
 73
2
 40
0.75
 49
0.5
 49
-0.25
  0
LTYPE
  5
43B
  2
DOTTED
 70
0
  3
Dotted .  .  .  .
 72
65
 73
2
 40
0.2
 49
0.0
 49
-0.2
  0
ENDTAB
  0
TABLE
  2
STYLE
  70
4
  0
STYLE
  2
KICAD
  70
0
  40
0
  41
1
  42
1
  50
0
  71
0
  3
isocp.shx
  0
STYLE
  2
KICADB
  70
0
  40
0
  41
1
  42
1
  50
0
  71
0
  3
isocp.shx
  0
STYLE
  2
KICADI
  70
0
  40
0
  41
1
  42
1
  50
15
  71
0
  3
isocp.shx
  0
STYLE
  2
KICADBI
  70
0
  40
0
  41
1
  42
1
  50
15
  71
0
  3
isocp.shx
  0
ENDTAB
  0
TABLE
  2
LAYER
  70
30
  0
LAYER
  2
BLACK
  70
0
  62
7
  6
CONTINUOUS
  0
LAYER
  2
GRAY1
  70
0
  62
251
  6
CONTINUOUS
  0
LAYER
  2
GRAY2
  70
0
  62
8
  6
CONTINUOUS
  0
LAYER
  2
GRAY3
  70
0
  62
9
  6
CONTINUOUS
  0
LAYER
  2
WHITE
  70
0
  62
7
  6
CONTINUOUS
  0
LAYER
  2
LYELLOW
  70
0
  62
51
  6
CONTINUOUS
  0
LAYER
  2
BLUE1
  70
0
  62
178
  6
CONTINUOUS
  0
LAYER
  2
GREEN1
  70
0
  62
98
  6
CONTINUOUS
  0
LAYER
  2
CYAN1
  70
0
  62
138
  6
CONTINUOUS
  0
LAYER
  2
RED1
  70
0
  62
18
  6
CONTINUOUS
  0
LAYER
  2
MAGENTA1
  70
0
  62
228
  6
CONTINUOUS
  0
LAYER
  2
BROWN1
  70
0
  62
58
  6
CONTINUOUS
  0
LAYER
  2
BLUE2
  70
0
  62
5
  6
CONTINUOUS
  0
LAYER
  2
GREEN2
  70
0
  62
3
  6
CONTINUOUS
  0
LAYER
  2
CYAN2
  70
0
  62
4
  6
CONTINUOUS
  0
LAYER
  2
RED2
  70
0
  62
1
  6
CONTINUOUS
  0
LAYER
  2
MAGENTA2
  70
0
  62
6
  6
CONTINUOUS
  0
LAYER
  2
BROWN2
  70
0
  62
54
  6
CONTINUOUS
  0
LAYER
  2
BLUE3
  70
0
  62
171
  6
CONTINUOUS
  0
LAYER
  2
GREEN3
  70
0
  62
91
  6
CONTINUOUS
  0
LAYER
  2
CYAN3
  70
0
  62
131
  6
CONTINUOUS
  0
LAYER
  2
RED3
  70
0
  62
11
  6
CONTINUOUS
  0
LAYER
  2
MAGENTA3
  70
0
  62
221
  6
CONTINUOUS
  0
LAYER
  2
YELLOW3
  70
0
  62
2
  6
CONTINUOUS
  0
LAYER
  2
BLUE4
  70
0
  62
5
  6
CONTINUOUS
  0
LAYER
  2
GREEN4
  70
0
  62
3
  6
CONTINUOUS
  0
LAYER
  2
CYAN4
  70
0
  62
4
  6
CONTINUOUS
  0
LAYER
  2
RED4
  70
0
  62
1
  6
CONTINUOUS
  0
LAYER
  2
MAGENTA4
  70
0
  62
6
  6
CONTINUOUS
  0
LAYER
  2
YELLOW4
  70
0
  62
2
  6
CONTINUOUS
  0
ENDTAB
  0
ENDSEC
  0
SECTION
  2
ENTITIES
0
LINE
8
BLACK
6
CONTINUOUS
10
81.534
20
-117.881
11
81.5328
21
-117.881
0
LINE
8
BLACK
6
CONTINUOUS
10
81.5328
20
-117.881
11
81.5328
21
-117.881
0
LINE
8
BLACK
6
CONTINUOUS
10
81.5328
20
-117.881
11
81.5291
21
-117.881
0
LINE
8
BLACK
6
CONTINUOUS
10
81.5291
20
-117.881
11
81.5244
21
-117.879
0
LINE
8
BLACK
6
CONTINUOUS
10
81.5244
20
-117.879
11
81.52
21
-117.877
0
LINE
8
BLACK
6
CONTINUOUS
10
81.52
20
-117.877
11
81.5162
21
-117.874
0
LINE
8
BLACK
6
CONTINUOUS
10
81.5162
20
-117.874
11
81.5131
21
-117.87
0
LINE
8
BLACK
6
CONTINUOUS
10
81.5131
20
-117.87
11
81.5108
21
-117.866
0
LINE
8
BLACK
6
CONTINUOUS
10
81.5108
20
-117.866
11
81.5094
21
-117.861
0
LINE
8
BLACK
6
CONTINUOUS
10
81.5094
20
-117.861
11
81.5089
21
-117.856
0
LINE
8
BLACK
6
CONTINUOUS
10
81.5089
20
-117.856
11
81.509
21
-117.855
0
LINE
8
BLACK
6
CONTINUOUS
10
81.509
20
-117.855
11
81.509
21
-57.4052
0
LINE
8
BLACK
6
CONTINUOUS
10
81.509
20
-57.4052
11
81.5089
21
-57.404
0
LINE
8
BLACK
6
CONTINUOUS
10
81.5089
20
-57.404
11
81.5094
21
-57.3991
0
LINE
8
BLACK
6
CONTINUOUS
10
81.5094
20
-57.3991
11
81.5108
21
-57.3944
0
LINE
8
BLACK
6
CONTINUOUS
10
81.5108
20
-57.3944
11
81.5131
21
-57.39
0
LINE
8
BLACK
6
CONTINUOUS
10
81.5131
20
-57.39
11
81.5162
21
-57.3862
0
LINE
8
BLACK
6
CONTINUOUS
10
81.5162
20
-57.3862
11
81.52
21
-57.3831
0
LINE
8
BLACK
6
CONTINUOUS
10
81.52
20
-57.3831
11
81.5244
21
-57.3808
0
LINE
8
BLACK
6
CONTINUOUS
10
81.5244
20
-57.3808
11
81.5291
21
-57.3794
0
LINE
8
BLACK
6
CONTINUOUS
10
81.5291
20
-57.3794
11
81.5328
21
-57.379
0
LINE
8
BLACK
6
CONTINUOUS
10
81.5328
20
-57.379
11
81.534
21
-57.3789
0
LINE
8
BLACK
6
CONTINUOUS
10
81.534
20
-57.3789
11
81.5352
21
-57.379
0
LINE
8
BLACK
6
CONTINUOUS
10
81.5352
20
-57.379
11
122.173
21
-57.379
0
LINE
8
BLACK
6
CONTINUOUS
10
122.173
20
-57.379
11
122.174
21
-57.3789
0
LINE
8
BLACK
6
CONTINUOUS
10
122.174
20
-57.3789
11
122.175
21
-57.379
0
LINE
8
BLACK
6
CONTINUOUS
10
122.175
20
-57.379
11
122.179
21
-57.3794
0
LINE
8
BLACK
6
CONTINUOUS
10
122.179
20
-57.3794
11
122.184
21
-57.3808
0
LINE
8
BLACK
6
CONTINUOUS
10
122.184
20
-57.3808
11
122.188
21
-57.3831
0
LINE
8
BLACK
6
CONTINUOUS
10
122.188
20
-57.3831
11
122.192
21
-57.3862
0
LINE
8
BLACK
6
CONTINUOUS
10
122.192
20
-57.3862
11
122.195
21
-57.39
0
LINE
8
BLACK
6
CONTINUOUS
10
122.195
20
-57.39
11
122.197
21
-57.3944
0
LINE
8
BLACK
6
CONTINUOUS
10
122.197
20
-57.3944
11
122.199
21
-57.3991
0
LINE
8
BLACK
6
CONTINUOUS
10
122.199
20
-57.3991
11
122.199
21
-57.404
0
LINE
8
BLACK
6
CONTINUOUS
10
122.199
20
-57.404
11
122.199
21
-57.4052
0
LINE
8
BLACK
6
CONTINUOUS
10
122.199
20
-57.4052
11
122.199
21
-117.855
0
LINE
8
BLACK
6
CONTINUOUS
10
122.199
20
-117.855
11
122.199
21
-117.856
0
LINE
8
BLACK
6
CONTINUOUS
10
122.199
20
-117.856
11
122.199
21
-117.861
0
LINE
8
BLACK
6
CONTINUOUS
10
122.199
20
-117.861
11
122.197
21
-117.866
0
LINE
8
BLACK
6
CONTINUOUS
10
122.197
20
-117.866
11
122.195
21
-117.87
0
LINE
8
BLACK
6
CONTINUOUS
10
122.195
20
-117.87
11
122.192
21
-117.874
0
LINE
8
BLACK
6
CONTINUOUS
10
122.192
20
-117.874
11
122.188
21
-117.877
0
LINE
8
BLACK
6
CONTINUOUS
10
122.188
20
-117.877
11
122.184
21
-117.879
0
LINE
8
BLACK
6
CONTINUOUS
10
122.184
20
-117.879
11
122.179
21
-117.881
0
LINE
8
BLACK
6
CONTINUOUS
10
122.179
20
-117.881
11
122.175
21
-117.881
0
LINE
8
BLACK
6
CONTINUOUS
10
122.175
20
-117.881
11
122.175
21
-117.881
0
LINE
8
BLACK
6
CONTINUOUS
10
122.175
20
-117.881
11
122.174
21
-117.881
0
LINE
8
BLACK
6
CONTINUOUS
10
122.174
20
-117.881
11
122.173
21
-117.881
0
LINE
8
BLACK
6
CONTINUOUS
10
122.173
20
-117.881
11
81.5352
21
-117.881
0
LINE
8
BLACK
6
CONTINUOUS
10
81.5352
20
-117.881
11
81.534
21
-117.881
0
LINE
8
BLACK
6
CONTINUOUS
10
122.149
20
-57.429
11
81.559
21
-57.429
0
LINE
8
BLACK
6
CONTINUOUS
10
81.559
20
-57.429
11
81.559
21
-117.831
0
LINE
8
BLACK
6
CONTINUOUS
10
81.559
20
-117.831
11
122.149
21
-117.831
0
LINE
8
BLACK
6
CONTINUOUS
10
122.149
20
-117.831
11
122.149
21
-57.429
  0
ENDSEC
  0
EOF
