G04 #@! TF.GenerationSoftware,KiCad,Pcbnew,(5.1.2)-2*
G04 #@! TF.CreationDate,2019-08-22T14:59:00+07:00*
G04 #@! TF.ProjectId,led_testing,6c65645f-7465-4737-9469-6e672e6b6963,rev?*
G04 #@! TF.SameCoordinates,Original*
G04 #@! TF.FileFunction,Soldermask,Bot*
G04 #@! TF.FilePolarity,Negative*
%FSLAX46Y46*%
G04 Gerber Fmt 4.6, Leading zero omitted, Abs format (unit mm)*
G04 Created by KiCad (PCBNEW (5.1.2)-2) date 2019-08-22 14:59:00*
%MOMM*%
%LPD*%
G04 APERTURE LIST*
%ADD10C,0.100000*%
G04 APERTURE END LIST*
D10*
G36*
X51102585Y-181358802D02*
G01*
X51252410Y-181388604D01*
X51534674Y-181505521D01*
X51788705Y-181675259D01*
X52004741Y-181891295D01*
X52174479Y-182145326D01*
X52291396Y-182427590D01*
X52351000Y-182727240D01*
X52351000Y-183032760D01*
X52291396Y-183332410D01*
X52174479Y-183614674D01*
X52004741Y-183868705D01*
X51788705Y-184084741D01*
X51534674Y-184254479D01*
X51252410Y-184371396D01*
X51102585Y-184401198D01*
X50952761Y-184431000D01*
X50647239Y-184431000D01*
X50497415Y-184401198D01*
X50347590Y-184371396D01*
X50065326Y-184254479D01*
X49811295Y-184084741D01*
X49595259Y-183868705D01*
X49425521Y-183614674D01*
X49308604Y-183332410D01*
X49249000Y-183032760D01*
X49249000Y-182727240D01*
X49308604Y-182427590D01*
X49425521Y-182145326D01*
X49595259Y-181891295D01*
X49811295Y-181675259D01*
X50065326Y-181505521D01*
X50347590Y-181388604D01*
X50497415Y-181358802D01*
X50647239Y-181329000D01*
X50952761Y-181329000D01*
X51102585Y-181358802D01*
X51102585Y-181358802D01*
G37*
G36*
X52351000Y-179351000D02*
G01*
X49249000Y-179351000D01*
X49249000Y-176249000D01*
X52351000Y-176249000D01*
X52351000Y-179351000D01*
X52351000Y-179351000D01*
G37*
G36*
X63745239Y-176567101D02*
G01*
X63981053Y-176638634D01*
X64198381Y-176754799D01*
X64388871Y-176911129D01*
X64545201Y-177101619D01*
X64661366Y-177318947D01*
X64732899Y-177554761D01*
X64757053Y-177800000D01*
X64732899Y-178045239D01*
X64661366Y-178281053D01*
X64545201Y-178498381D01*
X64388871Y-178688871D01*
X64198381Y-178845201D01*
X63981053Y-178961366D01*
X63745239Y-179032899D01*
X63561457Y-179051000D01*
X63438543Y-179051000D01*
X63254761Y-179032899D01*
X63018947Y-178961366D01*
X62801619Y-178845201D01*
X62611129Y-178688871D01*
X62454799Y-178498381D01*
X62338634Y-178281053D01*
X62267101Y-178045239D01*
X62242947Y-177800000D01*
X62267101Y-177554761D01*
X62338634Y-177318947D01*
X62454799Y-177101619D01*
X62611129Y-176911129D01*
X62801619Y-176754799D01*
X63018947Y-176638634D01*
X63254761Y-176567101D01*
X63438543Y-176549000D01*
X63561457Y-176549000D01*
X63745239Y-176567101D01*
X63745239Y-176567101D01*
G37*
G36*
X84184903Y-176597075D02*
G01*
X84285236Y-176638634D01*
X84412571Y-176691378D01*
X84617466Y-176828285D01*
X84791715Y-177002534D01*
X84928622Y-177207429D01*
X85022925Y-177435097D01*
X85071000Y-177676787D01*
X85071000Y-177923213D01*
X85022925Y-178164903D01*
X84928622Y-178392571D01*
X84791715Y-178597466D01*
X84617466Y-178771715D01*
X84412571Y-178908622D01*
X84412570Y-178908623D01*
X84412569Y-178908623D01*
X84184903Y-179002925D01*
X83943214Y-179051000D01*
X83696786Y-179051000D01*
X83455097Y-179002925D01*
X83227431Y-178908623D01*
X83227430Y-178908623D01*
X83227429Y-178908622D01*
X83022534Y-178771715D01*
X82848285Y-178597466D01*
X82711378Y-178392571D01*
X82617075Y-178164903D01*
X82569000Y-177923213D01*
X82569000Y-177676787D01*
X82617075Y-177435097D01*
X82711378Y-177207429D01*
X82848285Y-177002534D01*
X83022534Y-176828285D01*
X83227429Y-176691378D01*
X83354765Y-176638634D01*
X83455097Y-176597075D01*
X83696786Y-176549000D01*
X83943214Y-176549000D01*
X84184903Y-176597075D01*
X84184903Y-176597075D01*
G37*
G36*
X94286564Y-176789389D02*
G01*
X94477833Y-176868615D01*
X94477835Y-176868616D01*
X94649973Y-176983635D01*
X94796365Y-177130027D01*
X94911385Y-177302167D01*
X94990611Y-177493436D01*
X95031000Y-177696484D01*
X95031000Y-177903516D01*
X94990611Y-178106564D01*
X94966446Y-178164903D01*
X94911384Y-178297835D01*
X94796365Y-178469973D01*
X94649973Y-178616365D01*
X94477835Y-178731384D01*
X94477834Y-178731385D01*
X94477833Y-178731385D01*
X94286564Y-178810611D01*
X94083516Y-178851000D01*
X93876484Y-178851000D01*
X93673436Y-178810611D01*
X93482167Y-178731385D01*
X93482166Y-178731385D01*
X93482165Y-178731384D01*
X93310027Y-178616365D01*
X93163635Y-178469973D01*
X93048616Y-178297835D01*
X92993554Y-178164903D01*
X92969389Y-178106564D01*
X92929000Y-177903516D01*
X92929000Y-177696484D01*
X92969389Y-177493436D01*
X93048615Y-177302167D01*
X93163635Y-177130027D01*
X93310027Y-176983635D01*
X93482165Y-176868616D01*
X93482167Y-176868615D01*
X93673436Y-176789389D01*
X93876484Y-176749000D01*
X94083516Y-176749000D01*
X94286564Y-176789389D01*
X94286564Y-176789389D01*
G37*
G36*
X97571000Y-178851000D02*
G01*
X95469000Y-178851000D01*
X95469000Y-176749000D01*
X97571000Y-176749000D01*
X97571000Y-178851000D01*
X97571000Y-178851000D01*
G37*
G36*
X97571000Y-173771000D02*
G01*
X95469000Y-173771000D01*
X95469000Y-171669000D01*
X97571000Y-171669000D01*
X97571000Y-173771000D01*
X97571000Y-173771000D01*
G37*
G36*
X94286564Y-171709389D02*
G01*
X94463700Y-171782761D01*
X94477835Y-171788616D01*
X94649973Y-171903635D01*
X94796365Y-172050027D01*
X94909780Y-172219764D01*
X94911385Y-172222167D01*
X94990611Y-172413436D01*
X95031000Y-172616484D01*
X95031000Y-172823516D01*
X94990611Y-173026564D01*
X94933939Y-173163382D01*
X94911384Y-173217835D01*
X94796365Y-173389973D01*
X94649973Y-173536365D01*
X94477835Y-173651384D01*
X94477834Y-173651385D01*
X94477833Y-173651385D01*
X94286564Y-173730611D01*
X94083516Y-173771000D01*
X93876484Y-173771000D01*
X93673436Y-173730611D01*
X93482167Y-173651385D01*
X93482166Y-173651385D01*
X93482165Y-173651384D01*
X93310027Y-173536365D01*
X93163635Y-173389973D01*
X93048616Y-173217835D01*
X93026061Y-173163382D01*
X92969389Y-173026564D01*
X92929000Y-172823516D01*
X92929000Y-172616484D01*
X92969389Y-172413436D01*
X93048615Y-172222167D01*
X93050221Y-172219764D01*
X93163635Y-172050027D01*
X93310027Y-171903635D01*
X93482165Y-171788616D01*
X93496300Y-171782761D01*
X93673436Y-171709389D01*
X93876484Y-171669000D01*
X94083516Y-171669000D01*
X94286564Y-171709389D01*
X94286564Y-171709389D01*
G37*
G36*
X64069904Y-171262076D02*
G01*
X64170237Y-171303635D01*
X64297572Y-171356379D01*
X64502467Y-171493286D01*
X64676716Y-171667535D01*
X64742923Y-171766621D01*
X64813624Y-171872432D01*
X64907926Y-172100098D01*
X64956001Y-172341787D01*
X64956001Y-172588215D01*
X64907926Y-172829904D01*
X64826467Y-173026565D01*
X64813623Y-173057572D01*
X64676716Y-173262467D01*
X64502467Y-173436716D01*
X64297572Y-173573623D01*
X64297571Y-173573624D01*
X64297570Y-173573624D01*
X64069904Y-173667926D01*
X63828215Y-173716001D01*
X63581787Y-173716001D01*
X63340098Y-173667926D01*
X63112432Y-173573624D01*
X63112431Y-173573624D01*
X63112430Y-173573623D01*
X62907535Y-173436716D01*
X62733286Y-173262467D01*
X62596379Y-173057572D01*
X62583536Y-173026565D01*
X62502076Y-172829904D01*
X62454001Y-172588215D01*
X62454001Y-172341787D01*
X62502076Y-172100098D01*
X62596378Y-171872432D01*
X62667079Y-171766621D01*
X62733286Y-171667535D01*
X62907535Y-171493286D01*
X63112430Y-171356379D01*
X63239766Y-171303635D01*
X63340098Y-171262076D01*
X63581787Y-171214001D01*
X63828215Y-171214001D01*
X64069904Y-171262076D01*
X64069904Y-171262076D01*
G37*
G36*
X84270240Y-171232102D02*
G01*
X84506054Y-171303635D01*
X84723382Y-171419800D01*
X84913872Y-171576130D01*
X85070202Y-171766620D01*
X85186367Y-171983948D01*
X85257900Y-172219762D01*
X85282054Y-172465001D01*
X85257900Y-172710240D01*
X85186367Y-172946054D01*
X85070202Y-173163382D01*
X84913872Y-173353872D01*
X84723382Y-173510202D01*
X84506054Y-173626367D01*
X84270240Y-173697900D01*
X84086458Y-173716001D01*
X83963544Y-173716001D01*
X83779762Y-173697900D01*
X83543948Y-173626367D01*
X83326620Y-173510202D01*
X83136130Y-173353872D01*
X82979800Y-173163382D01*
X82863635Y-172946054D01*
X82792102Y-172710240D01*
X82767948Y-172465001D01*
X82792102Y-172219762D01*
X82863635Y-171983948D01*
X82979800Y-171766620D01*
X83136130Y-171576130D01*
X83326620Y-171419800D01*
X83543948Y-171303635D01*
X83779762Y-171232102D01*
X83963544Y-171214001D01*
X84086458Y-171214001D01*
X84270240Y-171232102D01*
X84270240Y-171232102D01*
G37*
G36*
X51886425Y-171782760D02*
G01*
X51886428Y-171782761D01*
X51886429Y-171782761D01*
X52065693Y-171837140D01*
X52065696Y-171837142D01*
X52065697Y-171837142D01*
X52230903Y-171925446D01*
X52375712Y-172044288D01*
X52494554Y-172189097D01*
X52582858Y-172354303D01*
X52582860Y-172354307D01*
X52637239Y-172533571D01*
X52637240Y-172533575D01*
X52655601Y-172720000D01*
X52637240Y-172906425D01*
X52637239Y-172906428D01*
X52637239Y-172906429D01*
X52582860Y-173085693D01*
X52582858Y-173085696D01*
X52582858Y-173085697D01*
X52494554Y-173250903D01*
X52375712Y-173395712D01*
X52230903Y-173514554D01*
X52065697Y-173602858D01*
X52065693Y-173602860D01*
X51886429Y-173657239D01*
X51886428Y-173657239D01*
X51886425Y-173657240D01*
X51746718Y-173671000D01*
X49853282Y-173671000D01*
X49713575Y-173657240D01*
X49713572Y-173657239D01*
X49713571Y-173657239D01*
X49534307Y-173602860D01*
X49534303Y-173602858D01*
X49369097Y-173514554D01*
X49224288Y-173395712D01*
X49105446Y-173250903D01*
X49017142Y-173085697D01*
X49017142Y-173085696D01*
X49017140Y-173085693D01*
X48962761Y-172906429D01*
X48962761Y-172906428D01*
X48962760Y-172906425D01*
X48944399Y-172720000D01*
X48962760Y-172533575D01*
X48962761Y-172533571D01*
X49017140Y-172354307D01*
X49017142Y-172354303D01*
X49105446Y-172189097D01*
X49224288Y-172044288D01*
X49369097Y-171925446D01*
X49534303Y-171837142D01*
X49534304Y-171837142D01*
X49534307Y-171837140D01*
X49713571Y-171782761D01*
X49713572Y-171782761D01*
X49713575Y-171782760D01*
X49853282Y-171769000D01*
X51746718Y-171769000D01*
X51886425Y-171782760D01*
X51886425Y-171782760D01*
G37*
G36*
X51886425Y-166702760D02*
G01*
X51886428Y-166702761D01*
X51886429Y-166702761D01*
X52065693Y-166757140D01*
X52065696Y-166757142D01*
X52065697Y-166757142D01*
X52230903Y-166845446D01*
X52375712Y-166964288D01*
X52494554Y-167109097D01*
X52535854Y-167186365D01*
X52582860Y-167274307D01*
X52637239Y-167453571D01*
X52637240Y-167453575D01*
X52655601Y-167640000D01*
X52637240Y-167826425D01*
X52637239Y-167826428D01*
X52637239Y-167826429D01*
X52582860Y-168005693D01*
X52582858Y-168005696D01*
X52582858Y-168005697D01*
X52494554Y-168170903D01*
X52375712Y-168315712D01*
X52230903Y-168434554D01*
X52065697Y-168522858D01*
X52065693Y-168522860D01*
X51886429Y-168577239D01*
X51886428Y-168577239D01*
X51886425Y-168577240D01*
X51746718Y-168591000D01*
X49853282Y-168591000D01*
X49713575Y-168577240D01*
X49713572Y-168577239D01*
X49713571Y-168577239D01*
X49534307Y-168522860D01*
X49534303Y-168522858D01*
X49369097Y-168434554D01*
X49224288Y-168315712D01*
X49105446Y-168170903D01*
X49017142Y-168005697D01*
X49017142Y-168005696D01*
X49017140Y-168005693D01*
X48962761Y-167826429D01*
X48962761Y-167826428D01*
X48962760Y-167826425D01*
X48944399Y-167640000D01*
X48962760Y-167453575D01*
X48962761Y-167453571D01*
X49017140Y-167274307D01*
X49064146Y-167186365D01*
X49105446Y-167109097D01*
X49224288Y-166964288D01*
X49369097Y-166845446D01*
X49534303Y-166757142D01*
X49534304Y-166757142D01*
X49534307Y-166757140D01*
X49713571Y-166702761D01*
X49713572Y-166702761D01*
X49713575Y-166702760D01*
X49853282Y-166689000D01*
X51746718Y-166689000D01*
X51886425Y-166702760D01*
X51886425Y-166702760D01*
G37*
G36*
X63745239Y-165137101D02*
G01*
X63981053Y-165208634D01*
X64198381Y-165324799D01*
X64388871Y-165481129D01*
X64545201Y-165671619D01*
X64661366Y-165888947D01*
X64732899Y-166124761D01*
X64757053Y-166370000D01*
X64732899Y-166615239D01*
X64661366Y-166851053D01*
X64545201Y-167068381D01*
X64388871Y-167258871D01*
X64198381Y-167415201D01*
X63981053Y-167531366D01*
X63745239Y-167602899D01*
X63561457Y-167621000D01*
X63438543Y-167621000D01*
X63254761Y-167602899D01*
X63018947Y-167531366D01*
X62801619Y-167415201D01*
X62611129Y-167258871D01*
X62454799Y-167068381D01*
X62338634Y-166851053D01*
X62267101Y-166615239D01*
X62242947Y-166370000D01*
X62267101Y-166124761D01*
X62338634Y-165888947D01*
X62454799Y-165671619D01*
X62611129Y-165481129D01*
X62801619Y-165324799D01*
X63018947Y-165208634D01*
X63254761Y-165137101D01*
X63438543Y-165119000D01*
X63561457Y-165119000D01*
X63745239Y-165137101D01*
X63745239Y-165137101D01*
G37*
G36*
X84184903Y-165167075D02*
G01*
X84285236Y-165208634D01*
X84412571Y-165261378D01*
X84617466Y-165398285D01*
X84791715Y-165572534D01*
X84928622Y-165777429D01*
X85022925Y-166005097D01*
X85071000Y-166246787D01*
X85071000Y-166493213D01*
X85022925Y-166734903D01*
X84928622Y-166962571D01*
X84791715Y-167167466D01*
X84617466Y-167341715D01*
X84412571Y-167478622D01*
X84412570Y-167478623D01*
X84412569Y-167478623D01*
X84184903Y-167572925D01*
X83943214Y-167621000D01*
X83696786Y-167621000D01*
X83455097Y-167572925D01*
X83227431Y-167478623D01*
X83227430Y-167478623D01*
X83227429Y-167478622D01*
X83022534Y-167341715D01*
X82848285Y-167167466D01*
X82711378Y-166962571D01*
X82617075Y-166734903D01*
X82569000Y-166493213D01*
X82569000Y-166246787D01*
X82617075Y-166005097D01*
X82711378Y-165777429D01*
X82848285Y-165572534D01*
X83022534Y-165398285D01*
X83227429Y-165261378D01*
X83354765Y-165208634D01*
X83455097Y-165167075D01*
X83696786Y-165119000D01*
X83943214Y-165119000D01*
X84184903Y-165167075D01*
X84184903Y-165167075D01*
G37*
G36*
X94286564Y-165359389D02*
G01*
X94477833Y-165438615D01*
X94477835Y-165438616D01*
X94649973Y-165553635D01*
X94796365Y-165700027D01*
X94911385Y-165872167D01*
X94990611Y-166063436D01*
X95031000Y-166266484D01*
X95031000Y-166473516D01*
X94990611Y-166676564D01*
X94918335Y-166851053D01*
X94911384Y-166867835D01*
X94796365Y-167039973D01*
X94649973Y-167186365D01*
X94477835Y-167301384D01*
X94477834Y-167301385D01*
X94477833Y-167301385D01*
X94286564Y-167380611D01*
X94083516Y-167421000D01*
X93876484Y-167421000D01*
X93673436Y-167380611D01*
X93482167Y-167301385D01*
X93482166Y-167301385D01*
X93482165Y-167301384D01*
X93310027Y-167186365D01*
X93163635Y-167039973D01*
X93048616Y-166867835D01*
X93041665Y-166851053D01*
X92969389Y-166676564D01*
X92929000Y-166473516D01*
X92929000Y-166266484D01*
X92969389Y-166063436D01*
X93048615Y-165872167D01*
X93163635Y-165700027D01*
X93310027Y-165553635D01*
X93482165Y-165438616D01*
X93482167Y-165438615D01*
X93673436Y-165359389D01*
X93876484Y-165319000D01*
X94083516Y-165319000D01*
X94286564Y-165359389D01*
X94286564Y-165359389D01*
G37*
G36*
X97571000Y-167421000D02*
G01*
X95469000Y-167421000D01*
X95469000Y-165319000D01*
X97571000Y-165319000D01*
X97571000Y-167421000D01*
X97571000Y-167421000D01*
G37*
G36*
X51886425Y-161622760D02*
G01*
X51886428Y-161622761D01*
X51886429Y-161622761D01*
X52065693Y-161677140D01*
X52065696Y-161677142D01*
X52065697Y-161677142D01*
X52230903Y-161765446D01*
X52375712Y-161884288D01*
X52494554Y-162029097D01*
X52582858Y-162194303D01*
X52582860Y-162194307D01*
X52637239Y-162373571D01*
X52637240Y-162373575D01*
X52655601Y-162560000D01*
X52637240Y-162746425D01*
X52637239Y-162746428D01*
X52637239Y-162746429D01*
X52582860Y-162925693D01*
X52582858Y-162925696D01*
X52582858Y-162925697D01*
X52494554Y-163090903D01*
X52375712Y-163235712D01*
X52230903Y-163354554D01*
X52065697Y-163442858D01*
X52065693Y-163442860D01*
X51886429Y-163497239D01*
X51886428Y-163497239D01*
X51886425Y-163497240D01*
X51746718Y-163511000D01*
X49853282Y-163511000D01*
X49713575Y-163497240D01*
X49713572Y-163497239D01*
X49713571Y-163497239D01*
X49534307Y-163442860D01*
X49534303Y-163442858D01*
X49369097Y-163354554D01*
X49224288Y-163235712D01*
X49105446Y-163090903D01*
X49017142Y-162925697D01*
X49017142Y-162925696D01*
X49017140Y-162925693D01*
X48962761Y-162746429D01*
X48962761Y-162746428D01*
X48962760Y-162746425D01*
X48944399Y-162560000D01*
X48962760Y-162373575D01*
X48962761Y-162373571D01*
X49017140Y-162194307D01*
X49017142Y-162194303D01*
X49105446Y-162029097D01*
X49224288Y-161884288D01*
X49369097Y-161765446D01*
X49534303Y-161677142D01*
X49534304Y-161677142D01*
X49534307Y-161677140D01*
X49713571Y-161622761D01*
X49713572Y-161622761D01*
X49713575Y-161622760D01*
X49853282Y-161609000D01*
X51746718Y-161609000D01*
X51886425Y-161622760D01*
X51886425Y-161622760D01*
G37*
G36*
X84065239Y-158787101D02*
G01*
X84301053Y-158858634D01*
X84518381Y-158974799D01*
X84708871Y-159131129D01*
X84865201Y-159321619D01*
X84981366Y-159538947D01*
X85052899Y-159774761D01*
X85077053Y-160020000D01*
X85052899Y-160265239D01*
X84981366Y-160501053D01*
X84865201Y-160718381D01*
X84708871Y-160908871D01*
X84518381Y-161065201D01*
X84301053Y-161181366D01*
X84065239Y-161252899D01*
X83881457Y-161271000D01*
X83758543Y-161271000D01*
X83574761Y-161252899D01*
X83338947Y-161181366D01*
X83121619Y-161065201D01*
X82931129Y-160908871D01*
X82774799Y-160718381D01*
X82658634Y-160501053D01*
X82587101Y-160265239D01*
X82562947Y-160020000D01*
X82587101Y-159774761D01*
X82658634Y-159538947D01*
X82774799Y-159321619D01*
X82931129Y-159131129D01*
X83121619Y-158974799D01*
X83338947Y-158858634D01*
X83574761Y-158787101D01*
X83758543Y-158769000D01*
X83881457Y-158769000D01*
X84065239Y-158787101D01*
X84065239Y-158787101D01*
G37*
G36*
X63864903Y-158817075D02*
G01*
X63965236Y-158858634D01*
X64092571Y-158911378D01*
X64297466Y-159048285D01*
X64471715Y-159222534D01*
X64608622Y-159427429D01*
X64702925Y-159655097D01*
X64751000Y-159896787D01*
X64751000Y-160143213D01*
X64702925Y-160384903D01*
X64608622Y-160612571D01*
X64471715Y-160817466D01*
X64297466Y-160991715D01*
X64092571Y-161128622D01*
X64092570Y-161128623D01*
X64092569Y-161128623D01*
X63864903Y-161222925D01*
X63623214Y-161271000D01*
X63376786Y-161271000D01*
X63135097Y-161222925D01*
X62907431Y-161128623D01*
X62907430Y-161128623D01*
X62907429Y-161128622D01*
X62702534Y-160991715D01*
X62528285Y-160817466D01*
X62391378Y-160612571D01*
X62297075Y-160384903D01*
X62249000Y-160143213D01*
X62249000Y-159896787D01*
X62297075Y-159655097D01*
X62391378Y-159427429D01*
X62528285Y-159222534D01*
X62702534Y-159048285D01*
X62907429Y-158911378D01*
X63034765Y-158858634D01*
X63135097Y-158817075D01*
X63376786Y-158769000D01*
X63623214Y-158769000D01*
X63864903Y-158817075D01*
X63864903Y-158817075D01*
G37*
G36*
X97571000Y-161071000D02*
G01*
X95469000Y-161071000D01*
X95469000Y-158969000D01*
X97571000Y-158969000D01*
X97571000Y-161071000D01*
X97571000Y-161071000D01*
G37*
G36*
X94286564Y-159009389D02*
G01*
X94477833Y-159088615D01*
X94477835Y-159088616D01*
X94649973Y-159203635D01*
X94796365Y-159350027D01*
X94911385Y-159522167D01*
X94990611Y-159713436D01*
X95031000Y-159916484D01*
X95031000Y-160123516D01*
X94990611Y-160326564D01*
X94966446Y-160384903D01*
X94911384Y-160517835D01*
X94796365Y-160689973D01*
X94649973Y-160836365D01*
X94477835Y-160951384D01*
X94477834Y-160951385D01*
X94477833Y-160951385D01*
X94286564Y-161030611D01*
X94083516Y-161071000D01*
X93876484Y-161071000D01*
X93673436Y-161030611D01*
X93482167Y-160951385D01*
X93482166Y-160951385D01*
X93482165Y-160951384D01*
X93310027Y-160836365D01*
X93163635Y-160689973D01*
X93048616Y-160517835D01*
X92993554Y-160384903D01*
X92969389Y-160326564D01*
X92929000Y-160123516D01*
X92929000Y-159916484D01*
X92969389Y-159713436D01*
X93048615Y-159522167D01*
X93163635Y-159350027D01*
X93310027Y-159203635D01*
X93482165Y-159088616D01*
X93482167Y-159088615D01*
X93673436Y-159009389D01*
X93876484Y-158969000D01*
X94083516Y-158969000D01*
X94286564Y-159009389D01*
X94286564Y-159009389D01*
G37*
G36*
X51886425Y-156542760D02*
G01*
X51886428Y-156542761D01*
X51886429Y-156542761D01*
X52065693Y-156597140D01*
X52065696Y-156597142D01*
X52065697Y-156597142D01*
X52230903Y-156685446D01*
X52375712Y-156804288D01*
X52494554Y-156949097D01*
X52582858Y-157114303D01*
X52582860Y-157114307D01*
X52637239Y-157293571D01*
X52637240Y-157293575D01*
X52655601Y-157480000D01*
X52637240Y-157666425D01*
X52637239Y-157666428D01*
X52637239Y-157666429D01*
X52582860Y-157845693D01*
X52582858Y-157845696D01*
X52582858Y-157845697D01*
X52494554Y-158010903D01*
X52375712Y-158155712D01*
X52230903Y-158274554D01*
X52065697Y-158362858D01*
X52065693Y-158362860D01*
X51886429Y-158417239D01*
X51886428Y-158417239D01*
X51886425Y-158417240D01*
X51746718Y-158431000D01*
X49853282Y-158431000D01*
X49713575Y-158417240D01*
X49713572Y-158417239D01*
X49713571Y-158417239D01*
X49534307Y-158362860D01*
X49534303Y-158362858D01*
X49369097Y-158274554D01*
X49224288Y-158155712D01*
X49105446Y-158010903D01*
X49017142Y-157845697D01*
X49017142Y-157845696D01*
X49017140Y-157845693D01*
X48962761Y-157666429D01*
X48962761Y-157666428D01*
X48962760Y-157666425D01*
X48944399Y-157480000D01*
X48962760Y-157293575D01*
X48962761Y-157293571D01*
X49017140Y-157114307D01*
X49017142Y-157114303D01*
X49105446Y-156949097D01*
X49224288Y-156804288D01*
X49369097Y-156685446D01*
X49534303Y-156597142D01*
X49534304Y-156597142D01*
X49534307Y-156597140D01*
X49713571Y-156542761D01*
X49713572Y-156542761D01*
X49713575Y-156542760D01*
X49853282Y-156529000D01*
X51746718Y-156529000D01*
X51886425Y-156542760D01*
X51886425Y-156542760D01*
G37*
G36*
X63745239Y-152652102D02*
G01*
X63981053Y-152723635D01*
X64198381Y-152839800D01*
X64388871Y-152996130D01*
X64545201Y-153186620D01*
X64661366Y-153403948D01*
X64732899Y-153639762D01*
X64757053Y-153885001D01*
X64732899Y-154130240D01*
X64661366Y-154366054D01*
X64545201Y-154583382D01*
X64388871Y-154773872D01*
X64198381Y-154930202D01*
X63981053Y-155046367D01*
X63745239Y-155117900D01*
X63561457Y-155136001D01*
X63438543Y-155136001D01*
X63254761Y-155117900D01*
X63018947Y-155046367D01*
X62801619Y-154930202D01*
X62611129Y-154773872D01*
X62454799Y-154583382D01*
X62338634Y-154366054D01*
X62267101Y-154130240D01*
X62242947Y-153885001D01*
X62267101Y-153639762D01*
X62338634Y-153403948D01*
X62454799Y-153186620D01*
X62611129Y-152996130D01*
X62801619Y-152839800D01*
X63018947Y-152723635D01*
X63254761Y-152652102D01*
X63438543Y-152634001D01*
X63561457Y-152634001D01*
X63745239Y-152652102D01*
X63745239Y-152652102D01*
G37*
G36*
X84184903Y-152682076D02*
G01*
X84386783Y-152765697D01*
X84412571Y-152776379D01*
X84617466Y-152913286D01*
X84791715Y-153087535D01*
X84928622Y-153292430D01*
X84928623Y-153292432D01*
X85022925Y-153520098D01*
X85071000Y-153761787D01*
X85071000Y-154008215D01*
X85022925Y-154249904D01*
X84957154Y-154408691D01*
X84928622Y-154477572D01*
X84791715Y-154682467D01*
X84617466Y-154856716D01*
X84412571Y-154993623D01*
X84412570Y-154993624D01*
X84412569Y-154993624D01*
X84184903Y-155087926D01*
X83943214Y-155136001D01*
X83696786Y-155136001D01*
X83455097Y-155087926D01*
X83227431Y-154993624D01*
X83227430Y-154993624D01*
X83227429Y-154993623D01*
X83022534Y-154856716D01*
X82848285Y-154682467D01*
X82711378Y-154477572D01*
X82682847Y-154408691D01*
X82617075Y-154249904D01*
X82569000Y-154008215D01*
X82569000Y-153761787D01*
X82617075Y-153520098D01*
X82711377Y-153292432D01*
X82711378Y-153292430D01*
X82848285Y-153087535D01*
X83022534Y-152913286D01*
X83227429Y-152776379D01*
X83253218Y-152765697D01*
X83455097Y-152682076D01*
X83696786Y-152634001D01*
X83943214Y-152634001D01*
X84184903Y-152682076D01*
X84184903Y-152682076D01*
G37*
G36*
X97471000Y-154621000D02*
G01*
X95569000Y-154621000D01*
X95569000Y-152719000D01*
X97471000Y-152719000D01*
X97471000Y-154621000D01*
X97471000Y-154621000D01*
G37*
G36*
X94257395Y-152755546D02*
G01*
X94430466Y-152827234D01*
X94430467Y-152827235D01*
X94586227Y-152931310D01*
X94718690Y-153063773D01*
X94771081Y-153142182D01*
X94822766Y-153219534D01*
X94894454Y-153392605D01*
X94931000Y-153576333D01*
X94931000Y-153763667D01*
X94894454Y-153947395D01*
X94822766Y-154120466D01*
X94816235Y-154130240D01*
X94718690Y-154276227D01*
X94586227Y-154408690D01*
X94507818Y-154461081D01*
X94430466Y-154512766D01*
X94257395Y-154584454D01*
X94073667Y-154621000D01*
X93886333Y-154621000D01*
X93702605Y-154584454D01*
X93529534Y-154512766D01*
X93452182Y-154461081D01*
X93373773Y-154408690D01*
X93241310Y-154276227D01*
X93143765Y-154130240D01*
X93137234Y-154120466D01*
X93065546Y-153947395D01*
X93029000Y-153763667D01*
X93029000Y-153576333D01*
X93065546Y-153392605D01*
X93137234Y-153219534D01*
X93188919Y-153142182D01*
X93241310Y-153063773D01*
X93373773Y-152931310D01*
X93529533Y-152827235D01*
X93529534Y-152827234D01*
X93702605Y-152755546D01*
X93886333Y-152719000D01*
X94073667Y-152719000D01*
X94257395Y-152755546D01*
X94257395Y-152755546D01*
G37*
G36*
X51886425Y-151462760D02*
G01*
X51886428Y-151462761D01*
X51886429Y-151462761D01*
X52065693Y-151517140D01*
X52065696Y-151517142D01*
X52065697Y-151517142D01*
X52230903Y-151605446D01*
X52375712Y-151724288D01*
X52494554Y-151869097D01*
X52582858Y-152034303D01*
X52582860Y-152034307D01*
X52637239Y-152213571D01*
X52637240Y-152213575D01*
X52655601Y-152400000D01*
X52637240Y-152586425D01*
X52637239Y-152586428D01*
X52637239Y-152586429D01*
X52582860Y-152765693D01*
X52582858Y-152765696D01*
X52582858Y-152765697D01*
X52494554Y-152930903D01*
X52375712Y-153075712D01*
X52230903Y-153194554D01*
X52065697Y-153282858D01*
X52065693Y-153282860D01*
X51886429Y-153337239D01*
X51886428Y-153337239D01*
X51886425Y-153337240D01*
X51746718Y-153351000D01*
X49853282Y-153351000D01*
X49713575Y-153337240D01*
X49713572Y-153337239D01*
X49713571Y-153337239D01*
X49534307Y-153282860D01*
X49534303Y-153282858D01*
X49369097Y-153194554D01*
X49224288Y-153075712D01*
X49105446Y-152930903D01*
X49017142Y-152765697D01*
X49017142Y-152765696D01*
X49017140Y-152765693D01*
X48962761Y-152586429D01*
X48962761Y-152586428D01*
X48962760Y-152586425D01*
X48944399Y-152400000D01*
X48962760Y-152213575D01*
X48962761Y-152213571D01*
X49017140Y-152034307D01*
X49017142Y-152034303D01*
X49105446Y-151869097D01*
X49224288Y-151724288D01*
X49369097Y-151605446D01*
X49534303Y-151517142D01*
X49534304Y-151517142D01*
X49534307Y-151517140D01*
X49713571Y-151462761D01*
X49713572Y-151462761D01*
X49713575Y-151462760D01*
X49853282Y-151449000D01*
X51746718Y-151449000D01*
X51886425Y-151462760D01*
X51886425Y-151462760D01*
G37*
G36*
X84065239Y-146087101D02*
G01*
X84301053Y-146158634D01*
X84518381Y-146274799D01*
X84708871Y-146431129D01*
X84865201Y-146621619D01*
X84981366Y-146838947D01*
X85052899Y-147074761D01*
X85077053Y-147320000D01*
X85052899Y-147565239D01*
X84981366Y-147801053D01*
X84865201Y-148018381D01*
X84708871Y-148208871D01*
X84518381Y-148365201D01*
X84301053Y-148481366D01*
X84065239Y-148552899D01*
X83881457Y-148571000D01*
X83758543Y-148571000D01*
X83574761Y-148552899D01*
X83338947Y-148481366D01*
X83121619Y-148365201D01*
X82931129Y-148208871D01*
X82774799Y-148018381D01*
X82658634Y-147801053D01*
X82587101Y-147565239D01*
X82562947Y-147320000D01*
X82587101Y-147074761D01*
X82658634Y-146838947D01*
X82774799Y-146621619D01*
X82931129Y-146431129D01*
X83121619Y-146274799D01*
X83338947Y-146158634D01*
X83574761Y-146087101D01*
X83758543Y-146069000D01*
X83881457Y-146069000D01*
X84065239Y-146087101D01*
X84065239Y-146087101D01*
G37*
G36*
X63864903Y-146117075D02*
G01*
X63965236Y-146158634D01*
X64092571Y-146211378D01*
X64297466Y-146348285D01*
X64471715Y-146522534D01*
X64556903Y-146650027D01*
X64608623Y-146727431D01*
X64702925Y-146955097D01*
X64751000Y-147196786D01*
X64751000Y-147443214D01*
X64738426Y-147506429D01*
X64702925Y-147684903D01*
X64608622Y-147912571D01*
X64471715Y-148117466D01*
X64297466Y-148291715D01*
X64092571Y-148428622D01*
X64092570Y-148428623D01*
X64092569Y-148428623D01*
X63864903Y-148522925D01*
X63623214Y-148571000D01*
X63376786Y-148571000D01*
X63135097Y-148522925D01*
X62907431Y-148428623D01*
X62907430Y-148428623D01*
X62907429Y-148428622D01*
X62702534Y-148291715D01*
X62528285Y-148117466D01*
X62391378Y-147912571D01*
X62297075Y-147684903D01*
X62261574Y-147506429D01*
X62249000Y-147443214D01*
X62249000Y-147196786D01*
X62297075Y-146955097D01*
X62391377Y-146727431D01*
X62443097Y-146650027D01*
X62528285Y-146522534D01*
X62702534Y-146348285D01*
X62907429Y-146211378D01*
X63034765Y-146158634D01*
X63135097Y-146117075D01*
X63376786Y-146069000D01*
X63623214Y-146069000D01*
X63864903Y-146117075D01*
X63864903Y-146117075D01*
G37*
G36*
X94286564Y-146309389D02*
G01*
X94463700Y-146382761D01*
X94477835Y-146388616D01*
X94649973Y-146503635D01*
X94796365Y-146650027D01*
X94889289Y-146789097D01*
X94911385Y-146822167D01*
X94990611Y-147013436D01*
X95031000Y-147216484D01*
X95031000Y-147423516D01*
X94990611Y-147626564D01*
X94966446Y-147684903D01*
X94911384Y-147817835D01*
X94796365Y-147989973D01*
X94649973Y-148136365D01*
X94477835Y-148251384D01*
X94477834Y-148251385D01*
X94477833Y-148251385D01*
X94286564Y-148330611D01*
X94083516Y-148371000D01*
X93876484Y-148371000D01*
X93673436Y-148330611D01*
X93482167Y-148251385D01*
X93482166Y-148251385D01*
X93482165Y-148251384D01*
X93310027Y-148136365D01*
X93163635Y-147989973D01*
X93048616Y-147817835D01*
X92993554Y-147684903D01*
X92969389Y-147626564D01*
X92929000Y-147423516D01*
X92929000Y-147216484D01*
X92969389Y-147013436D01*
X93048615Y-146822167D01*
X93070712Y-146789097D01*
X93163635Y-146650027D01*
X93310027Y-146503635D01*
X93482165Y-146388616D01*
X93496300Y-146382761D01*
X93673436Y-146309389D01*
X93876484Y-146269000D01*
X94083516Y-146269000D01*
X94286564Y-146309389D01*
X94286564Y-146309389D01*
G37*
G36*
X97571000Y-148371000D02*
G01*
X95469000Y-148371000D01*
X95469000Y-146269000D01*
X97571000Y-146269000D01*
X97571000Y-148371000D01*
X97571000Y-148371000D01*
G37*
G36*
X51886425Y-146382760D02*
G01*
X51886428Y-146382761D01*
X51886429Y-146382761D01*
X52065693Y-146437140D01*
X52065696Y-146437142D01*
X52065697Y-146437142D01*
X52230903Y-146525446D01*
X52375712Y-146644288D01*
X52494554Y-146789097D01*
X52521199Y-146838947D01*
X52582860Y-146954307D01*
X52637239Y-147133571D01*
X52637240Y-147133575D01*
X52655601Y-147320000D01*
X52637240Y-147506425D01*
X52637239Y-147506428D01*
X52637239Y-147506429D01*
X52582860Y-147685693D01*
X52582858Y-147685696D01*
X52582858Y-147685697D01*
X52494554Y-147850903D01*
X52375712Y-147995712D01*
X52230903Y-148114554D01*
X52065697Y-148202858D01*
X52065693Y-148202860D01*
X51886429Y-148257239D01*
X51886428Y-148257239D01*
X51886425Y-148257240D01*
X51746718Y-148271000D01*
X49853282Y-148271000D01*
X49713575Y-148257240D01*
X49713572Y-148257239D01*
X49713571Y-148257239D01*
X49534307Y-148202860D01*
X49534303Y-148202858D01*
X49369097Y-148114554D01*
X49224288Y-147995712D01*
X49105446Y-147850903D01*
X49017142Y-147685697D01*
X49017142Y-147685696D01*
X49017140Y-147685693D01*
X48962761Y-147506429D01*
X48962761Y-147506428D01*
X48962760Y-147506425D01*
X48944399Y-147320000D01*
X48962760Y-147133575D01*
X48962761Y-147133571D01*
X49017140Y-146954307D01*
X49078801Y-146838947D01*
X49105446Y-146789097D01*
X49224288Y-146644288D01*
X49369097Y-146525446D01*
X49534303Y-146437142D01*
X49534304Y-146437142D01*
X49534307Y-146437140D01*
X49713571Y-146382761D01*
X49713572Y-146382761D01*
X49713575Y-146382760D01*
X49853282Y-146369000D01*
X51746718Y-146369000D01*
X51886425Y-146382760D01*
X51886425Y-146382760D01*
G37*
G36*
X84184903Y-141037075D02*
G01*
X84285236Y-141078634D01*
X84412571Y-141131378D01*
X84617466Y-141268285D01*
X84791715Y-141442534D01*
X84876903Y-141570027D01*
X84928623Y-141647431D01*
X85022925Y-141875097D01*
X85071000Y-142116786D01*
X85071000Y-142363214D01*
X85058426Y-142426429D01*
X85022925Y-142604903D01*
X84928622Y-142832571D01*
X84791715Y-143037466D01*
X84617466Y-143211715D01*
X84412571Y-143348622D01*
X84412570Y-143348623D01*
X84412569Y-143348623D01*
X84184903Y-143442925D01*
X83943214Y-143491000D01*
X83696786Y-143491000D01*
X83455097Y-143442925D01*
X83227431Y-143348623D01*
X83227430Y-143348623D01*
X83227429Y-143348622D01*
X83022534Y-143211715D01*
X82848285Y-143037466D01*
X82711378Y-142832571D01*
X82617075Y-142604903D01*
X82581574Y-142426429D01*
X82569000Y-142363214D01*
X82569000Y-142116786D01*
X82617075Y-141875097D01*
X82711377Y-141647431D01*
X82763097Y-141570027D01*
X82848285Y-141442534D01*
X83022534Y-141268285D01*
X83227429Y-141131378D01*
X83354765Y-141078634D01*
X83455097Y-141037075D01*
X83696786Y-140989000D01*
X83943214Y-140989000D01*
X84184903Y-141037075D01*
X84184903Y-141037075D01*
G37*
G36*
X63745239Y-141007101D02*
G01*
X63981053Y-141078634D01*
X64198381Y-141194799D01*
X64388871Y-141351129D01*
X64545201Y-141541619D01*
X64661366Y-141758947D01*
X64732899Y-141994761D01*
X64757053Y-142240000D01*
X64732899Y-142485239D01*
X64661366Y-142721053D01*
X64545201Y-142938381D01*
X64388871Y-143128871D01*
X64198381Y-143285201D01*
X63981053Y-143401366D01*
X63745239Y-143472899D01*
X63561457Y-143491000D01*
X63438543Y-143491000D01*
X63254761Y-143472899D01*
X63018947Y-143401366D01*
X62801619Y-143285201D01*
X62611129Y-143128871D01*
X62454799Y-142938381D01*
X62338634Y-142721053D01*
X62267101Y-142485239D01*
X62242947Y-142240000D01*
X62267101Y-141994761D01*
X62338634Y-141758947D01*
X62454799Y-141541619D01*
X62611129Y-141351129D01*
X62801619Y-141194799D01*
X63018947Y-141078634D01*
X63254761Y-141007101D01*
X63438543Y-140989000D01*
X63561457Y-140989000D01*
X63745239Y-141007101D01*
X63745239Y-141007101D01*
G37*
G36*
X97571000Y-143291000D02*
G01*
X95469000Y-143291000D01*
X95469000Y-141189000D01*
X97571000Y-141189000D01*
X97571000Y-143291000D01*
X97571000Y-143291000D01*
G37*
G36*
X94286564Y-141229389D02*
G01*
X94463700Y-141302761D01*
X94477835Y-141308616D01*
X94649973Y-141423635D01*
X94796365Y-141570027D01*
X94889289Y-141709097D01*
X94911385Y-141742167D01*
X94990611Y-141933436D01*
X95031000Y-142136484D01*
X95031000Y-142343516D01*
X94990611Y-142546564D01*
X94966446Y-142604903D01*
X94911384Y-142737835D01*
X94796365Y-142909973D01*
X94649973Y-143056365D01*
X94477835Y-143171384D01*
X94477834Y-143171385D01*
X94477833Y-143171385D01*
X94286564Y-143250611D01*
X94083516Y-143291000D01*
X93876484Y-143291000D01*
X93673436Y-143250611D01*
X93482167Y-143171385D01*
X93482166Y-143171385D01*
X93482165Y-143171384D01*
X93310027Y-143056365D01*
X93163635Y-142909973D01*
X93048616Y-142737835D01*
X92993554Y-142604903D01*
X92969389Y-142546564D01*
X92929000Y-142343516D01*
X92929000Y-142136484D01*
X92969389Y-141933436D01*
X93048615Y-141742167D01*
X93070712Y-141709097D01*
X93163635Y-141570027D01*
X93310027Y-141423635D01*
X93482165Y-141308616D01*
X93496300Y-141302761D01*
X93673436Y-141229389D01*
X93876484Y-141189000D01*
X94083516Y-141189000D01*
X94286564Y-141229389D01*
X94286564Y-141229389D01*
G37*
G36*
X51886425Y-141302760D02*
G01*
X51886428Y-141302761D01*
X51886429Y-141302761D01*
X52065693Y-141357140D01*
X52065696Y-141357142D01*
X52065697Y-141357142D01*
X52230903Y-141445446D01*
X52375712Y-141564288D01*
X52494554Y-141709097D01*
X52521199Y-141758947D01*
X52582860Y-141874307D01*
X52637239Y-142053571D01*
X52637240Y-142053575D01*
X52655601Y-142240000D01*
X52637240Y-142426425D01*
X52637239Y-142426428D01*
X52637239Y-142426429D01*
X52582860Y-142605693D01*
X52582858Y-142605696D01*
X52582858Y-142605697D01*
X52494554Y-142770903D01*
X52375712Y-142915712D01*
X52230903Y-143034554D01*
X52065697Y-143122858D01*
X52065693Y-143122860D01*
X51886429Y-143177239D01*
X51886428Y-143177239D01*
X51886425Y-143177240D01*
X51746718Y-143191000D01*
X49853282Y-143191000D01*
X49713575Y-143177240D01*
X49713572Y-143177239D01*
X49713571Y-143177239D01*
X49534307Y-143122860D01*
X49534303Y-143122858D01*
X49369097Y-143034554D01*
X49224288Y-142915712D01*
X49105446Y-142770903D01*
X49017142Y-142605697D01*
X49017142Y-142605696D01*
X49017140Y-142605693D01*
X48962761Y-142426429D01*
X48962761Y-142426428D01*
X48962760Y-142426425D01*
X48944399Y-142240000D01*
X48962760Y-142053575D01*
X48962761Y-142053571D01*
X49017140Y-141874307D01*
X49078801Y-141758947D01*
X49105446Y-141709097D01*
X49224288Y-141564288D01*
X49369097Y-141445446D01*
X49534303Y-141357142D01*
X49534304Y-141357142D01*
X49534307Y-141357140D01*
X49713571Y-141302761D01*
X49713572Y-141302761D01*
X49713575Y-141302760D01*
X49853282Y-141289000D01*
X51746718Y-141289000D01*
X51886425Y-141302760D01*
X51886425Y-141302760D01*
G37*
G36*
X63864903Y-135957075D02*
G01*
X63965236Y-135998634D01*
X64092571Y-136051378D01*
X64297466Y-136188285D01*
X64471715Y-136362534D01*
X64608622Y-136567429D01*
X64702925Y-136795097D01*
X64751000Y-137036787D01*
X64751000Y-137283213D01*
X64702925Y-137524903D01*
X64608622Y-137752571D01*
X64471715Y-137957466D01*
X64297466Y-138131715D01*
X64092571Y-138268622D01*
X64092570Y-138268623D01*
X64092569Y-138268623D01*
X63864903Y-138362925D01*
X63623214Y-138411000D01*
X63376786Y-138411000D01*
X63135097Y-138362925D01*
X62907431Y-138268623D01*
X62907430Y-138268623D01*
X62907429Y-138268622D01*
X62702534Y-138131715D01*
X62528285Y-137957466D01*
X62391378Y-137752571D01*
X62297075Y-137524903D01*
X62249000Y-137283213D01*
X62249000Y-137036787D01*
X62297075Y-136795097D01*
X62391378Y-136567429D01*
X62528285Y-136362534D01*
X62702534Y-136188285D01*
X62907429Y-136051378D01*
X63034765Y-135998634D01*
X63135097Y-135957075D01*
X63376786Y-135909000D01*
X63623214Y-135909000D01*
X63864903Y-135957075D01*
X63864903Y-135957075D01*
G37*
G36*
X84065239Y-135927101D02*
G01*
X84301053Y-135998634D01*
X84518381Y-136114799D01*
X84708871Y-136271129D01*
X84865201Y-136461619D01*
X84981366Y-136678947D01*
X85052899Y-136914761D01*
X85077053Y-137160000D01*
X85052899Y-137405239D01*
X84981366Y-137641053D01*
X84865201Y-137858381D01*
X84708871Y-138048871D01*
X84518381Y-138205201D01*
X84301053Y-138321366D01*
X84065239Y-138392899D01*
X83881457Y-138411000D01*
X83758543Y-138411000D01*
X83574761Y-138392899D01*
X83338947Y-138321366D01*
X83121619Y-138205201D01*
X82931129Y-138048871D01*
X82774799Y-137858381D01*
X82658634Y-137641053D01*
X82587101Y-137405239D01*
X82562947Y-137160000D01*
X82587101Y-136914761D01*
X82658634Y-136678947D01*
X82774799Y-136461619D01*
X82931129Y-136271129D01*
X83121619Y-136114799D01*
X83338947Y-135998634D01*
X83574761Y-135927101D01*
X83758543Y-135909000D01*
X83881457Y-135909000D01*
X84065239Y-135927101D01*
X84065239Y-135927101D01*
G37*
G36*
X94286564Y-136149389D02*
G01*
X94477833Y-136228615D01*
X94477835Y-136228616D01*
X94649973Y-136343635D01*
X94796365Y-136490027D01*
X94911385Y-136662167D01*
X94990611Y-136853436D01*
X95031000Y-137056484D01*
X95031000Y-137263516D01*
X94990611Y-137466564D01*
X94966446Y-137524903D01*
X94911384Y-137657835D01*
X94796365Y-137829973D01*
X94649973Y-137976365D01*
X94477835Y-138091384D01*
X94477834Y-138091385D01*
X94477833Y-138091385D01*
X94286564Y-138170611D01*
X94083516Y-138211000D01*
X93876484Y-138211000D01*
X93673436Y-138170611D01*
X93482167Y-138091385D01*
X93482166Y-138091385D01*
X93482165Y-138091384D01*
X93310027Y-137976365D01*
X93163635Y-137829973D01*
X93048616Y-137657835D01*
X92993554Y-137524903D01*
X92969389Y-137466564D01*
X92929000Y-137263516D01*
X92929000Y-137056484D01*
X92969389Y-136853436D01*
X93048615Y-136662167D01*
X93163635Y-136490027D01*
X93310027Y-136343635D01*
X93482165Y-136228616D01*
X93482167Y-136228615D01*
X93673436Y-136149389D01*
X93876484Y-136109000D01*
X94083516Y-136109000D01*
X94286564Y-136149389D01*
X94286564Y-136149389D01*
G37*
G36*
X97571000Y-138211000D02*
G01*
X95469000Y-138211000D01*
X95469000Y-136109000D01*
X97571000Y-136109000D01*
X97571000Y-138211000D01*
X97571000Y-138211000D01*
G37*
G36*
X52651000Y-138111000D02*
G01*
X48949000Y-138111000D01*
X48949000Y-136209000D01*
X52651000Y-136209000D01*
X52651000Y-138111000D01*
X52651000Y-138111000D01*
G37*
M02*
