M48
; DRILL file {KiCad (5.1.2)-2} date 8/22/2019 2:58:36 PM
; FORMAT={-:-/ absolute / metric / decimal}
; #@! TF.CreationDate,2019-08-22T14:58:36+07:00
; #@! TF.GenerationSoftware,Kicad,Pcbnew,(5.1.2)-2
FMAT,2
METRIC
T1C0.900
T2C1.000
T3C1.200
T4C1.520
%
G90
G05
T1
X93.98Y-153.67
X93.98Y-142.24
X93.98Y-137.16
X96.52Y-153.67
X93.98Y-147.32
T2
X96.52Y-147.32
X93.98Y-172.72
X96.52Y-172.72
X96.52Y-142.24
X96.52Y-137.16
X93.98Y-177.8
X96.52Y-177.8
X93.98Y-160.02
X96.52Y-160.02
X93.98Y-166.37
X96.52Y-166.37
T3
X63.705Y-172.465
X84.025Y-172.465
X63.5Y-153.885
X83.82Y-153.885
X63.5Y-142.24
X83.82Y-142.24
X63.5Y-177.8
X83.82Y-177.8
X63.5Y-166.37
X83.82Y-166.37
X63.5Y-137.16
X83.82Y-137.16
X63.5Y-160.02
X83.82Y-160.02
X63.5Y-147.32
X83.82Y-147.32
X50.8Y-137.16
X50.8Y-142.24
X50.8Y-147.32
X50.8Y-152.4
X50.8Y-157.48
X50.8Y-162.56
X50.8Y-167.64
X50.8Y-172.72
T4
X50.8Y-177.8
X50.8Y-182.88
T0
M30
