G04 #@! TF.GenerationSoftware,KiCad,Pcbnew,(5.1.2)-2*
G04 #@! TF.CreationDate,2019-10-27T10:23:34-10:00*
G04 #@! TF.ProjectId,nrf24,6e726632-342e-46b6-9963-61645f706362,rev?*
G04 #@! TF.SameCoordinates,Original*
G04 #@! TF.FileFunction,Copper,L1,Top*
G04 #@! TF.FilePolarity,Positive*
%FSLAX45Y45*%
G04 Gerber Fmt 4.5, Leading zero omitted, Abs format (unit mm)*
G04 Created by KiCad (PCBNEW (5.1.2)-2) date 2019-10-27 10:23:34*
%MOMM*%
%LPD*%
G04 APERTURE LIST*
%ADD10R,2.000000X2.000000*%
%ADD11C,2.000000*%
%ADD12C,0.100000*%
%ADD13C,1.524000*%
%ADD14R,1.600000X1.600000*%
%ADD15C,1.600000*%
G04 APERTURE END LIST*
D10*
X13144500Y-8060500D03*
D11*
X13144500Y-7810500D03*
D12*
G36*
X13244500Y-7910500D02*
G01*
X13044500Y-7910500D01*
X13044500Y-7710500D01*
X13244500Y-7710500D01*
X13244500Y-7910500D01*
X13244500Y-7910500D01*
G37*
D11*
X13144500Y-7560500D03*
D12*
G36*
X13244500Y-7660500D02*
G01*
X13044500Y-7660500D01*
X13044500Y-7460500D01*
X13244500Y-7460500D01*
X13244500Y-7660500D01*
X13244500Y-7660500D01*
G37*
D11*
X13144500Y-7310500D03*
D12*
G36*
X13244500Y-7410500D02*
G01*
X13044500Y-7410500D01*
X13044500Y-7210500D01*
X13244500Y-7210500D01*
X13244500Y-7410500D01*
X13244500Y-7410500D01*
G37*
D11*
X13144500Y-7060500D03*
D12*
G36*
X13244500Y-7160500D02*
G01*
X13044500Y-7160500D01*
X13044500Y-6960500D01*
X13244500Y-6960500D01*
X13244500Y-7160500D01*
X13244500Y-7160500D01*
G37*
D11*
X13144500Y-6810500D03*
D12*
G36*
X13244500Y-6910500D02*
G01*
X13044500Y-6910500D01*
X13044500Y-6710500D01*
X13244500Y-6710500D01*
X13244500Y-6910500D01*
X13244500Y-6910500D01*
G37*
D10*
X13144500Y-6560500D03*
D11*
X13144500Y-6310500D03*
D12*
G36*
X13244500Y-6410500D02*
G01*
X13044500Y-6410500D01*
X13044500Y-6210500D01*
X13244500Y-6210500D01*
X13244500Y-6410500D01*
X13244500Y-6410500D01*
G37*
D13*
X12192000Y-7112000D03*
X12192000Y-6858000D03*
X12192000Y-6604000D03*
X12192000Y-6350000D03*
X11938000Y-6350000D03*
X11938000Y-6604000D03*
X11938000Y-6858000D03*
X11938000Y-7112000D03*
D14*
X12446000Y-7620000D03*
D15*
X12696000Y-7620000D03*
M02*
