  0
SECTION
  2
HEADER
  9
$ANGBASE
  50
0.0
  9
$ANGDIR
  70
  1
  9
$MEASUREMENT
  70
0
  0
ENDSEC
  0
SECTION
  2
TABLES
  0
TABLE
  2
LTYPE
  70
4
  0
LTYPE
  5
40F
  2
CONTINUOUS
  70
0
  3
Solid line
  72
65
  73
0
  40
0.0
  0
LTYPE
  5
410
  2
DASHDOT
 70
0
  3
Dash Dot ____ _ ____ _
 72
65
 73
4
 40
2.0
 49
1.25
 49
-0.25
 49
0.25
 49
-0.25
  0
LTYPE
  5
411
  2
DASHED
 70
0
  3
Dashed __ __ __ __ __
 72
65
 73
2
 40
0.75
 49
0.5
 49
-0.25
  0
LTYPE
  5
43B
  2
DOTTED
 70
0
  3
Dotted .  .  .  .
 72
65
 73
2
 40
0.2
 49
0.0
 49
-0.2
  0
ENDTAB
  0
TABLE
  2
STYLE
  70
4
  0
STYLE
  2
KICAD
  70
0
  40
0
  41
1
  42
1
  50
0
  71
0
  3
isocp.shx
  0
STYLE
  2
KICADB
  70
0
  40
0
  41
1
  42
1
  50
0
  71
0
  3
isocp.shx
  0
STYLE
  2
KICADI
  70
0
  40
0
  41
1
  42
1
  50
15
  71
0
  3
isocp.shx
  0
STYLE
  2
KICADBI
  70
0
  40
0
  41
1
  42
1
  50
15
  71
0
  3
isocp.shx
  0
ENDTAB
  0
TABLE
  2
LAYER
  70
30
  0
LAYER
  2
BLACK
  70
0
  62
7
  6
CONTINUOUS
  0
LAYER
  2
GRAY1
  70
0
  62
251
  6
CONTINUOUS
  0
LAYER
  2
GRAY2
  70
0
  62
8
  6
CONTINUOUS
  0
LAYER
  2
GRAY3
  70
0
  62
9
  6
CONTINUOUS
  0
LAYER
  2
WHITE
  70
0
  62
7
  6
CONTINUOUS
  0
LAYER
  2
LYELLOW
  70
0
  62
51
  6
CONTINUOUS
  0
LAYER
  2
BLUE1
  70
0
  62
178
  6
CONTINUOUS
  0
LAYER
  2
GREEN1
  70
0
  62
98
  6
CONTINUOUS
  0
LAYER
  2
CYAN1
  70
0
  62
138
  6
CONTINUOUS
  0
LAYER
  2
RED1
  70
0
  62
18
  6
CONTINUOUS
  0
LAYER
  2
MAGENTA1
  70
0
  62
228
  6
CONTINUOUS
  0
LAYER
  2
BROWN1
  70
0
  62
58
  6
CONTINUOUS
  0
LAYER
  2
BLUE2
  70
0
  62
5
  6
CONTINUOUS
  0
LAYER
  2
GREEN2
  70
0
  62
3
  6
CONTINUOUS
  0
LAYER
  2
CYAN2
  70
0
  62
4
  6
CONTINUOUS
  0
LAYER
  2
RED2
  70
0
  62
1
  6
CONTINUOUS
  0
LAYER
  2
MAGENTA2
  70
0
  62
6
  6
CONTINUOUS
  0
LAYER
  2
BROWN2
  70
0
  62
54
  6
CONTINUOUS
  0
LAYER
  2
BLUE3
  70
0
  62
171
  6
CONTINUOUS
  0
LAYER
  2
GREEN3
  70
0
  62
91
  6
CONTINUOUS
  0
LAYER
  2
CYAN3
  70
0
  62
131
  6
CONTINUOUS
  0
LAYER
  2
RED3
  70
0
  62
11
  6
CONTINUOUS
  0
LAYER
  2
MAGENTA3
  70
0
  62
221
  6
CONTINUOUS
  0
LAYER
  2
YELLOW3
  70
0
  62
2
  6
CONTINUOUS
  0
LAYER
  2
BLUE4
  70
0
  62
5
  6
CONTINUOUS
  0
LAYER
  2
GREEN4
  70
0
  62
3
  6
CONTINUOUS
  0
LAYER
  2
CYAN4
  70
0
  62
4
  6
CONTINUOUS
  0
LAYER
  2
RED4
  70
0
  62
1
  6
CONTINUOUS
  0
LAYER
  2
MAGENTA4
  70
0
  62
6
  6
CONTINUOUS
  0
LAYER
  2
YELLOW4
  70
0
  62
2
  6
CONTINUOUS
  0
ENDTAB
  0
ENDSEC
  0
SECTION
  2
ENTITIES
0
LINE
8
BLACK
6
CONTINUOUS
10
137.161
20
-58.395
11
137.165
21
-58.3954
0
LINE
8
BLACK
6
CONTINUOUS
10
137.165
20
-58.3954
11
137.17
21
-58.3968
0
LINE
8
BLACK
6
CONTINUOUS
10
137.17
20
-58.3968
11
137.174
21
-58.3991
0
LINE
8
BLACK
6
CONTINUOUS
10
137.174
20
-58.3991
11
137.178
21
-58.4022
0
LINE
8
BLACK
6
CONTINUOUS
10
137.178
20
-58.4022
11
137.181
21
-58.406
0
LINE
8
BLACK
6
CONTINUOUS
10
137.181
20
-58.406
11
137.183
21
-58.4104
0
LINE
8
BLACK
6
CONTINUOUS
10
137.183
20
-58.4104
11
137.185
21
-58.4151
0
LINE
8
BLACK
6
CONTINUOUS
10
137.185
20
-58.4151
11
137.185
21
-58.42
0
LINE
8
BLACK
6
CONTINUOUS
10
137.185
20
-58.42
11
137.185
21
-58.4212
0
LINE
8
BLACK
6
CONTINUOUS
10
137.185
20
-58.4212
11
137.185
21
-86.3588
0
LINE
8
BLACK
6
CONTINUOUS
10
137.185
20
-86.3588
11
137.185
21
-86.36
0
LINE
8
BLACK
6
CONTINUOUS
10
137.185
20
-86.36
11
137.185
21
-86.3649
0
LINE
8
BLACK
6
CONTINUOUS
10
137.185
20
-86.3649
11
137.183
21
-86.3696
0
LINE
8
BLACK
6
CONTINUOUS
10
137.183
20
-86.3696
11
137.181
21
-86.374
0
LINE
8
BLACK
6
CONTINUOUS
10
137.181
20
-86.374
11
137.178
21
-86.3778
0
LINE
8
BLACK
6
CONTINUOUS
10
137.178
20
-86.3778
11
137.174
21
-86.3809
0
LINE
8
BLACK
6
CONTINUOUS
10
137.174
20
-86.3809
11
137.17
21
-86.3832
0
LINE
8
BLACK
6
CONTINUOUS
10
137.17
20
-86.3832
11
137.165
21
-86.3846
0
LINE
8
BLACK
6
CONTINUOUS
10
137.165
20
-86.3846
11
137.161
21
-86.385
0
LINE
8
BLACK
6
CONTINUOUS
10
137.161
20
-86.385
11
137.161
21
-86.385
0
LINE
8
BLACK
6
CONTINUOUS
10
137.161
20
-86.385
11
137.16
21
-86.3851
0
LINE
8
BLACK
6
CONTINUOUS
10
137.16
20
-86.3851
11
137.159
21
-86.385
0
LINE
8
BLACK
6
CONTINUOUS
10
137.159
20
-86.385
11
104.141
21
-86.385
0
LINE
8
BLACK
6
CONTINUOUS
10
104.141
20
-86.385
11
104.14
21
-86.3851
0
LINE
8
BLACK
6
CONTINUOUS
10
104.14
20
-86.3851
11
104.139
21
-86.385
0
LINE
8
BLACK
6
CONTINUOUS
10
104.139
20
-86.385
11
104.139
21
-86.385
0
LINE
8
BLACK
6
CONTINUOUS
10
104.139
20
-86.385
11
104.135
21
-86.3846
0
LINE
8
BLACK
6
CONTINUOUS
10
104.135
20
-86.3846
11
104.13
21
-86.3832
0
LINE
8
BLACK
6
CONTINUOUS
10
104.13
20
-86.3832
11
104.126
21
-86.3809
0
LINE
8
BLACK
6
CONTINUOUS
10
104.126
20
-86.3809
11
104.122
21
-86.3778
0
LINE
8
BLACK
6
CONTINUOUS
10
104.122
20
-86.3778
11
104.119
21
-86.374
0
LINE
8
BLACK
6
CONTINUOUS
10
104.119
20
-86.374
11
104.117
21
-86.3696
0
LINE
8
BLACK
6
CONTINUOUS
10
104.117
20
-86.3696
11
104.115
21
-86.3649
0
LINE
8
BLACK
6
CONTINUOUS
10
104.115
20
-86.3649
11
104.115
21
-86.36
0
LINE
8
BLACK
6
CONTINUOUS
10
104.115
20
-86.36
11
104.115
21
-86.3588
0
LINE
8
BLACK
6
CONTINUOUS
10
104.115
20
-86.3588
11
104.115
21
-58.4212
0
LINE
8
BLACK
6
CONTINUOUS
10
104.115
20
-58.4212
11
104.115
21
-58.42
0
LINE
8
BLACK
6
CONTINUOUS
10
104.115
20
-58.42
11
104.115
21
-58.4151
0
LINE
8
BLACK
6
CONTINUOUS
10
104.115
20
-58.4151
11
104.117
21
-58.4104
0
LINE
8
BLACK
6
CONTINUOUS
10
104.117
20
-58.4104
11
104.119
21
-58.406
0
LINE
8
BLACK
6
CONTINUOUS
10
104.119
20
-58.406
11
104.122
21
-58.4022
0
LINE
8
BLACK
6
CONTINUOUS
10
104.122
20
-58.4022
11
104.126
21
-58.3991
0
LINE
8
BLACK
6
CONTINUOUS
10
104.126
20
-58.3991
11
104.13
21
-58.3968
0
LINE
8
BLACK
6
CONTINUOUS
10
104.13
20
-58.3968
11
104.135
21
-58.3954
0
LINE
8
BLACK
6
CONTINUOUS
10
104.135
20
-58.3954
11
104.139
21
-58.395
0
LINE
8
BLACK
6
CONTINUOUS
10
104.139
20
-58.395
11
104.14
21
-58.3949
0
LINE
8
BLACK
6
CONTINUOUS
10
104.14
20
-58.3949
11
104.141
21
-58.395
0
LINE
8
BLACK
6
CONTINUOUS
10
104.141
20
-58.395
11
137.159
21
-58.395
0
LINE
8
BLACK
6
CONTINUOUS
10
137.159
20
-58.395
11
137.16
21
-58.3949
0
LINE
8
BLACK
6
CONTINUOUS
10
137.16
20
-58.3949
11
137.161
21
-58.395
0
LINE
8
BLACK
6
CONTINUOUS
10
104.165
20
-58.445
11
104.165
21
-86.335
0
LINE
8
BLACK
6
CONTINUOUS
10
104.165
20
-86.335
11
137.135
21
-86.335
0
LINE
8
BLACK
6
CONTINUOUS
10
137.135
20
-86.335
11
137.135
21
-58.445
0
LINE
8
BLACK
6
CONTINUOUS
10
137.135
20
-58.445
11
104.165
21
-58.445
  0
ENDSEC
  0
EOF
