G04 #@! TF.GenerationSoftware,KiCad,Pcbnew,(5.1.2)-2*
G04 #@! TF.CreationDate,2019-10-27T10:23:34-10:00*
G04 #@! TF.ProjectId,nrf24,6e726632-342e-46b6-9963-61645f706362,rev?*
G04 #@! TF.SameCoordinates,Original*
G04 #@! TF.FileFunction,Copper,L2,Bot*
G04 #@! TF.FilePolarity,Positive*
%FSLAX45Y45*%
G04 Gerber Fmt 4.5, Leading zero omitted, Abs format (unit mm)*
G04 Created by KiCad (PCBNEW (5.1.2)-2) date 2019-10-27 10:23:34*
%MOMM*%
%LPD*%
G04 APERTURE LIST*
%ADD10R,2.000000X2.000000*%
%ADD11C,2.000000*%
%ADD12C,0.100000*%
%ADD13C,1.524000*%
%ADD14R,1.600000X1.600000*%
%ADD15C,1.600000*%
%ADD16C,0.800000*%
%ADD17C,0.254000*%
G04 APERTURE END LIST*
D10*
X13144500Y-8060500D03*
D11*
X13144500Y-7810500D03*
D12*
G36*
X13244500Y-7910500D02*
G01*
X13044500Y-7910500D01*
X13044500Y-7710500D01*
X13244500Y-7710500D01*
X13244500Y-7910500D01*
X13244500Y-7910500D01*
G37*
D11*
X13144500Y-7560500D03*
D12*
G36*
X13244500Y-7660500D02*
G01*
X13044500Y-7660500D01*
X13044500Y-7460500D01*
X13244500Y-7460500D01*
X13244500Y-7660500D01*
X13244500Y-7660500D01*
G37*
D11*
X13144500Y-7310500D03*
D12*
G36*
X13244500Y-7410500D02*
G01*
X13044500Y-7410500D01*
X13044500Y-7210500D01*
X13244500Y-7210500D01*
X13244500Y-7410500D01*
X13244500Y-7410500D01*
G37*
D11*
X13144500Y-7060500D03*
D12*
G36*
X13244500Y-7160500D02*
G01*
X13044500Y-7160500D01*
X13044500Y-6960500D01*
X13244500Y-6960500D01*
X13244500Y-7160500D01*
X13244500Y-7160500D01*
G37*
D11*
X13144500Y-6810500D03*
D12*
G36*
X13244500Y-6910500D02*
G01*
X13044500Y-6910500D01*
X13044500Y-6710500D01*
X13244500Y-6710500D01*
X13244500Y-6910500D01*
X13244500Y-6910500D01*
G37*
D10*
X13144500Y-6560500D03*
D11*
X13144500Y-6310500D03*
D12*
G36*
X13244500Y-6410500D02*
G01*
X13044500Y-6410500D01*
X13044500Y-6210500D01*
X13244500Y-6210500D01*
X13244500Y-6410500D01*
X13244500Y-6410500D01*
G37*
D13*
X12192000Y-7112000D03*
X12192000Y-6858000D03*
X12192000Y-6604000D03*
X12192000Y-6350000D03*
X11938000Y-6350000D03*
X11938000Y-6604000D03*
X11938000Y-6858000D03*
X11938000Y-7112000D03*
D14*
X12446000Y-7620000D03*
D15*
X12696000Y-7620000D03*
D16*
X11801800Y-6994200D02*
X11861800Y-6934200D01*
X12397077Y-8220500D02*
X11801800Y-7625223D01*
X13292500Y-8220500D02*
X12397077Y-8220500D01*
X11861800Y-6934200D02*
X11938000Y-6858000D01*
X13304500Y-8208500D02*
X13292500Y-8220500D01*
X13304500Y-7860500D02*
X13304500Y-8208500D01*
X11801800Y-7625223D02*
X11801800Y-6994200D01*
X13254500Y-7810500D02*
X13304500Y-7860500D01*
X13144500Y-7810500D02*
X13254500Y-7810500D01*
X11861800Y-6680200D02*
X11938000Y-6604000D01*
X11701799Y-6840201D02*
X11861800Y-6680200D01*
X12355656Y-8320501D02*
X11701799Y-7666644D01*
X13333922Y-8320501D02*
X12355656Y-8320501D01*
X13404501Y-8249922D02*
X13333922Y-8320501D01*
X13404501Y-7710501D02*
X13404501Y-8249922D01*
X13254500Y-7560500D02*
X13404501Y-7710501D01*
X11701799Y-7666644D02*
X11701799Y-6840201D01*
X13144500Y-7560500D02*
X13254500Y-7560500D01*
X11601798Y-7708066D02*
X11601798Y-6686202D01*
X11601798Y-6686202D02*
X11861800Y-6426200D01*
X13254500Y-7310500D02*
X13504502Y-7560502D01*
X13144500Y-7310500D02*
X13254500Y-7310500D01*
X13504502Y-7560502D02*
X13504502Y-8291343D01*
X13504502Y-8291343D02*
X13375343Y-8420502D01*
X13375343Y-8420502D02*
X12314234Y-8420502D01*
X12314234Y-8420502D02*
X11601798Y-7708066D01*
X11861800Y-6426200D02*
X11938000Y-6350000D01*
X13352197Y-5950497D02*
X12929235Y-5950497D01*
X13504503Y-6102803D02*
X13352197Y-5950497D01*
X13504503Y-6810497D02*
X13504503Y-6102803D01*
X13144500Y-7060500D02*
X13254500Y-7060500D01*
X13254500Y-7060500D02*
X13504503Y-6810497D01*
X12529732Y-6350000D02*
X12192000Y-6350000D01*
X12929235Y-5950497D02*
X12529732Y-6350000D01*
X13254500Y-6810500D02*
X13404502Y-6660498D01*
X13144500Y-6810500D02*
X13254500Y-6810500D01*
X13404502Y-6660498D02*
X13404502Y-6144225D01*
X12417155Y-6604000D02*
X12192000Y-6604000D01*
X13404502Y-6144225D02*
X13310775Y-6050498D01*
X13310775Y-6050498D02*
X12970657Y-6050498D01*
X12970657Y-6050498D02*
X12417155Y-6604000D01*
X12304577Y-6858000D02*
X12299763Y-6858000D01*
X13179354Y-6560500D02*
X13304501Y-6435353D01*
X13304501Y-6435353D02*
X13304501Y-6185647D01*
X13304501Y-6185647D02*
X13269353Y-6150499D01*
X13269353Y-6150499D02*
X13012078Y-6150499D01*
X13144500Y-6560500D02*
X13179354Y-6560500D01*
X13012078Y-6150499D02*
X12304577Y-6858000D01*
X12299763Y-6858000D02*
X12192000Y-6858000D01*
X12446000Y-7112000D02*
X12192000Y-7112000D01*
X12446000Y-7366000D02*
X12192000Y-7112000D01*
X12446000Y-7620000D02*
X12446000Y-7366000D01*
X12446000Y-6899000D02*
X13034500Y-6310500D01*
X12446000Y-7112000D02*
X12446000Y-6899000D01*
X11938000Y-7620000D02*
X11938000Y-7112000D01*
X13144500Y-8060500D02*
X12378500Y-8060500D01*
X12378500Y-8060500D02*
X11938000Y-7620000D01*
X12964500Y-8060500D02*
X13144500Y-8060500D01*
X12696000Y-7792000D02*
X12964500Y-8060500D01*
X12696000Y-7620000D02*
X12696000Y-7792000D01*
D17*
G36*
X12980693Y-6410500D02*
G01*
X12981919Y-6422948D01*
X12985550Y-6434918D01*
X12985861Y-6435500D01*
X12985550Y-6436082D01*
X12981919Y-6448052D01*
X12980693Y-6460500D01*
X12980693Y-6660500D01*
X12981919Y-6672948D01*
X12985550Y-6684918D01*
X12985861Y-6685500D01*
X12985550Y-6686082D01*
X12981919Y-6698052D01*
X12980693Y-6710500D01*
X12980693Y-6910500D01*
X12981919Y-6922948D01*
X12985550Y-6934918D01*
X12985861Y-6935500D01*
X12985550Y-6936082D01*
X12981919Y-6948052D01*
X12980693Y-6960500D01*
X12980693Y-7160500D01*
X12981919Y-7172948D01*
X12985550Y-7184918D01*
X12985861Y-7185500D01*
X12985550Y-7186082D01*
X12981919Y-7198052D01*
X12980693Y-7210500D01*
X12980693Y-7410500D01*
X12981919Y-7422948D01*
X12985550Y-7434918D01*
X12985861Y-7435500D01*
X12985550Y-7436082D01*
X12981919Y-7448052D01*
X12980693Y-7460500D01*
X12980693Y-7660500D01*
X12981919Y-7672948D01*
X12985550Y-7684918D01*
X12985861Y-7685500D01*
X12985550Y-7686082D01*
X12981919Y-7698052D01*
X12980693Y-7710500D01*
X12980693Y-7910500D01*
X12981919Y-7922948D01*
X12985550Y-7934918D01*
X12985849Y-7935478D01*
X12799500Y-7749129D01*
X12799500Y-7719440D01*
X12807464Y-7711476D01*
X12823168Y-7687973D01*
X12833985Y-7661857D01*
X12839500Y-7634133D01*
X12839500Y-7605866D01*
X12833985Y-7578143D01*
X12823168Y-7552027D01*
X12807464Y-7528524D01*
X12787476Y-7508536D01*
X12763973Y-7492832D01*
X12737857Y-7482015D01*
X12710133Y-7476500D01*
X12681866Y-7476500D01*
X12654143Y-7482015D01*
X12628027Y-7492832D01*
X12604524Y-7508536D01*
X12587866Y-7525194D01*
X12584950Y-7515582D01*
X12579054Y-7504551D01*
X12571118Y-7494881D01*
X12561449Y-7486946D01*
X12550418Y-7481050D01*
X12538448Y-7477419D01*
X12526000Y-7476193D01*
X12474575Y-7476500D01*
X12458700Y-7492375D01*
X12458700Y-7607300D01*
X12460700Y-7607300D01*
X12460700Y-7632700D01*
X12458700Y-7632700D01*
X12458700Y-7747625D01*
X12474575Y-7763500D01*
X12526000Y-7763807D01*
X12538448Y-7762581D01*
X12550418Y-7758950D01*
X12561449Y-7753054D01*
X12571118Y-7745118D01*
X12579054Y-7735449D01*
X12584950Y-7724418D01*
X12587866Y-7714806D01*
X12592500Y-7719440D01*
X12592500Y-7786916D01*
X12591999Y-7792000D01*
X12593998Y-7812289D01*
X12599916Y-7831799D01*
X12609527Y-7849780D01*
X12614152Y-7855416D01*
X12622460Y-7865540D01*
X12626409Y-7868780D01*
X12714629Y-7957000D01*
X12421371Y-7957000D01*
X12164371Y-7700000D01*
X12302193Y-7700000D01*
X12303419Y-7712448D01*
X12307050Y-7724418D01*
X12312946Y-7735449D01*
X12320881Y-7745118D01*
X12330551Y-7753054D01*
X12341582Y-7758950D01*
X12353552Y-7762581D01*
X12366000Y-7763807D01*
X12417425Y-7763500D01*
X12433300Y-7747625D01*
X12433300Y-7632700D01*
X12318375Y-7632700D01*
X12302500Y-7648575D01*
X12302193Y-7700000D01*
X12164371Y-7700000D01*
X12041500Y-7577129D01*
X12041500Y-7540000D01*
X12302193Y-7540000D01*
X12302500Y-7591425D01*
X12318375Y-7607300D01*
X12433300Y-7607300D01*
X12433300Y-7492375D01*
X12417425Y-7476500D01*
X12366000Y-7476193D01*
X12353552Y-7477419D01*
X12341582Y-7481050D01*
X12330551Y-7486946D01*
X12320881Y-7494881D01*
X12312946Y-7504551D01*
X12307050Y-7515582D01*
X12303419Y-7527552D01*
X12302193Y-7540000D01*
X12041500Y-7540000D01*
X12041500Y-7208556D01*
X12113404Y-7208556D01*
X12120102Y-7232566D01*
X12145005Y-7244276D01*
X12171713Y-7250902D01*
X12199202Y-7252191D01*
X12226413Y-7248092D01*
X12252302Y-7238764D01*
X12263898Y-7232566D01*
X12270596Y-7208556D01*
X12192000Y-7129960D01*
X12113404Y-7208556D01*
X12041500Y-7208556D01*
X12041500Y-7206065D01*
X12046512Y-7201053D01*
X12061800Y-7178173D01*
X12064769Y-7171006D01*
X12065236Y-7172302D01*
X12071434Y-7183898D01*
X12095443Y-7190596D01*
X12174039Y-7112000D01*
X12209960Y-7112000D01*
X12288556Y-7190596D01*
X12312566Y-7183898D01*
X12324276Y-7158995D01*
X12330902Y-7132286D01*
X12332191Y-7104798D01*
X12328092Y-7077587D01*
X12318764Y-7051698D01*
X12312566Y-7040102D01*
X12288556Y-7033404D01*
X12209960Y-7112000D01*
X12174039Y-7112000D01*
X12095443Y-7033404D01*
X12071434Y-7040102D01*
X12065051Y-7053676D01*
X12061800Y-7045827D01*
X12046512Y-7022946D01*
X12027053Y-7003488D01*
X12004173Y-6988199D01*
X11996448Y-6985000D01*
X12004173Y-6981800D01*
X12027053Y-6966512D01*
X12046512Y-6947053D01*
X12061800Y-6924173D01*
X12065000Y-6916448D01*
X12068199Y-6924173D01*
X12083488Y-6947053D01*
X12102946Y-6966512D01*
X12125827Y-6981800D01*
X12132994Y-6984769D01*
X12131698Y-6985236D01*
X12120102Y-6991434D01*
X12113404Y-7015443D01*
X12192000Y-7094039D01*
X12270596Y-7015443D01*
X12263898Y-6991434D01*
X12250324Y-6985051D01*
X12258173Y-6981800D01*
X12281053Y-6966512D01*
X12286065Y-6961500D01*
X12299494Y-6961500D01*
X12304577Y-6962001D01*
X12309660Y-6961500D01*
X12309661Y-6961500D01*
X12324867Y-6960002D01*
X12344377Y-6954084D01*
X12362357Y-6944473D01*
X12378117Y-6931540D01*
X12381358Y-6927590D01*
X12980693Y-6328256D01*
X12980693Y-6410500D01*
X12980693Y-6410500D01*
G37*
X12980693Y-6410500D02*
X12981919Y-6422948D01*
X12985550Y-6434918D01*
X12985861Y-6435500D01*
X12985550Y-6436082D01*
X12981919Y-6448052D01*
X12980693Y-6460500D01*
X12980693Y-6660500D01*
X12981919Y-6672948D01*
X12985550Y-6684918D01*
X12985861Y-6685500D01*
X12985550Y-6686082D01*
X12981919Y-6698052D01*
X12980693Y-6710500D01*
X12980693Y-6910500D01*
X12981919Y-6922948D01*
X12985550Y-6934918D01*
X12985861Y-6935500D01*
X12985550Y-6936082D01*
X12981919Y-6948052D01*
X12980693Y-6960500D01*
X12980693Y-7160500D01*
X12981919Y-7172948D01*
X12985550Y-7184918D01*
X12985861Y-7185500D01*
X12985550Y-7186082D01*
X12981919Y-7198052D01*
X12980693Y-7210500D01*
X12980693Y-7410500D01*
X12981919Y-7422948D01*
X12985550Y-7434918D01*
X12985861Y-7435500D01*
X12985550Y-7436082D01*
X12981919Y-7448052D01*
X12980693Y-7460500D01*
X12980693Y-7660500D01*
X12981919Y-7672948D01*
X12985550Y-7684918D01*
X12985861Y-7685500D01*
X12985550Y-7686082D01*
X12981919Y-7698052D01*
X12980693Y-7710500D01*
X12980693Y-7910500D01*
X12981919Y-7922948D01*
X12985550Y-7934918D01*
X12985849Y-7935478D01*
X12799500Y-7749129D01*
X12799500Y-7719440D01*
X12807464Y-7711476D01*
X12823168Y-7687973D01*
X12833985Y-7661857D01*
X12839500Y-7634133D01*
X12839500Y-7605866D01*
X12833985Y-7578143D01*
X12823168Y-7552027D01*
X12807464Y-7528524D01*
X12787476Y-7508536D01*
X12763973Y-7492832D01*
X12737857Y-7482015D01*
X12710133Y-7476500D01*
X12681866Y-7476500D01*
X12654143Y-7482015D01*
X12628027Y-7492832D01*
X12604524Y-7508536D01*
X12587866Y-7525194D01*
X12584950Y-7515582D01*
X12579054Y-7504551D01*
X12571118Y-7494881D01*
X12561449Y-7486946D01*
X12550418Y-7481050D01*
X12538448Y-7477419D01*
X12526000Y-7476193D01*
X12474575Y-7476500D01*
X12458700Y-7492375D01*
X12458700Y-7607300D01*
X12460700Y-7607300D01*
X12460700Y-7632700D01*
X12458700Y-7632700D01*
X12458700Y-7747625D01*
X12474575Y-7763500D01*
X12526000Y-7763807D01*
X12538448Y-7762581D01*
X12550418Y-7758950D01*
X12561449Y-7753054D01*
X12571118Y-7745118D01*
X12579054Y-7735449D01*
X12584950Y-7724418D01*
X12587866Y-7714806D01*
X12592500Y-7719440D01*
X12592500Y-7786916D01*
X12591999Y-7792000D01*
X12593998Y-7812289D01*
X12599916Y-7831799D01*
X12609527Y-7849780D01*
X12614152Y-7855416D01*
X12622460Y-7865540D01*
X12626409Y-7868780D01*
X12714629Y-7957000D01*
X12421371Y-7957000D01*
X12164371Y-7700000D01*
X12302193Y-7700000D01*
X12303419Y-7712448D01*
X12307050Y-7724418D01*
X12312946Y-7735449D01*
X12320881Y-7745118D01*
X12330551Y-7753054D01*
X12341582Y-7758950D01*
X12353552Y-7762581D01*
X12366000Y-7763807D01*
X12417425Y-7763500D01*
X12433300Y-7747625D01*
X12433300Y-7632700D01*
X12318375Y-7632700D01*
X12302500Y-7648575D01*
X12302193Y-7700000D01*
X12164371Y-7700000D01*
X12041500Y-7577129D01*
X12041500Y-7540000D01*
X12302193Y-7540000D01*
X12302500Y-7591425D01*
X12318375Y-7607300D01*
X12433300Y-7607300D01*
X12433300Y-7492375D01*
X12417425Y-7476500D01*
X12366000Y-7476193D01*
X12353552Y-7477419D01*
X12341582Y-7481050D01*
X12330551Y-7486946D01*
X12320881Y-7494881D01*
X12312946Y-7504551D01*
X12307050Y-7515582D01*
X12303419Y-7527552D01*
X12302193Y-7540000D01*
X12041500Y-7540000D01*
X12041500Y-7208556D01*
X12113404Y-7208556D01*
X12120102Y-7232566D01*
X12145005Y-7244276D01*
X12171713Y-7250902D01*
X12199202Y-7252191D01*
X12226413Y-7248092D01*
X12252302Y-7238764D01*
X12263898Y-7232566D01*
X12270596Y-7208556D01*
X12192000Y-7129960D01*
X12113404Y-7208556D01*
X12041500Y-7208556D01*
X12041500Y-7206065D01*
X12046512Y-7201053D01*
X12061800Y-7178173D01*
X12064769Y-7171006D01*
X12065236Y-7172302D01*
X12071434Y-7183898D01*
X12095443Y-7190596D01*
X12174039Y-7112000D01*
X12209960Y-7112000D01*
X12288556Y-7190596D01*
X12312566Y-7183898D01*
X12324276Y-7158995D01*
X12330902Y-7132286D01*
X12332191Y-7104798D01*
X12328092Y-7077587D01*
X12318764Y-7051698D01*
X12312566Y-7040102D01*
X12288556Y-7033404D01*
X12209960Y-7112000D01*
X12174039Y-7112000D01*
X12095443Y-7033404D01*
X12071434Y-7040102D01*
X12065051Y-7053676D01*
X12061800Y-7045827D01*
X12046512Y-7022946D01*
X12027053Y-7003488D01*
X12004173Y-6988199D01*
X11996448Y-6985000D01*
X12004173Y-6981800D01*
X12027053Y-6966512D01*
X12046512Y-6947053D01*
X12061800Y-6924173D01*
X12065000Y-6916448D01*
X12068199Y-6924173D01*
X12083488Y-6947053D01*
X12102946Y-6966512D01*
X12125827Y-6981800D01*
X12132994Y-6984769D01*
X12131698Y-6985236D01*
X12120102Y-6991434D01*
X12113404Y-7015443D01*
X12192000Y-7094039D01*
X12270596Y-7015443D01*
X12263898Y-6991434D01*
X12250324Y-6985051D01*
X12258173Y-6981800D01*
X12281053Y-6966512D01*
X12286065Y-6961500D01*
X12299494Y-6961500D01*
X12304577Y-6962001D01*
X12309660Y-6961500D01*
X12309661Y-6961500D01*
X12324867Y-6960002D01*
X12344377Y-6954084D01*
X12362357Y-6944473D01*
X12378117Y-6931540D01*
X12381358Y-6927590D01*
X12980693Y-6328256D01*
X12980693Y-6410500D01*
G36*
X13157200Y-6297800D02*
G01*
X13159200Y-6297800D01*
X13159200Y-6323200D01*
X13157200Y-6323200D01*
X13157200Y-6325200D01*
X13131800Y-6325200D01*
X13131800Y-6323200D01*
X13129800Y-6323200D01*
X13129800Y-6297800D01*
X13131800Y-6297800D01*
X13131800Y-6295800D01*
X13157200Y-6295800D01*
X13157200Y-6297800D01*
X13157200Y-6297800D01*
G37*
X13157200Y-6297800D02*
X13159200Y-6297800D01*
X13159200Y-6323200D01*
X13157200Y-6323200D01*
X13157200Y-6325200D01*
X13131800Y-6325200D01*
X13131800Y-6323200D01*
X13129800Y-6323200D01*
X13129800Y-6297800D01*
X13131800Y-6297800D01*
X13131800Y-6295800D01*
X13157200Y-6295800D01*
X13157200Y-6297800D01*
M02*
