G04 #@! TF.GenerationSoftware,KiCad,Pcbnew,(5.1.2)-2*
G04 #@! TF.CreationDate,2019-10-27T10:23:34-10:00*
G04 #@! TF.ProjectId,nrf24,6e726632-342e-46b6-9963-61645f706362,rev?*
G04 #@! TF.SameCoordinates,Original*
G04 #@! TF.FileFunction,Soldermask,Bot*
G04 #@! TF.FilePolarity,Negative*
%FSLAX45Y45*%
G04 Gerber Fmt 4.5, Leading zero omitted, Abs format (unit mm)*
G04 Created by KiCad (PCBNEW (5.1.2)-2) date 2019-10-27 10:23:34*
%MOMM*%
%LPD*%
G04 APERTURE LIST*
%ADD10C,0.100000*%
G04 APERTURE END LIST*
D10*
G36*
X13249600Y-8165600D02*
G01*
X13039400Y-8165600D01*
X13039400Y-7955400D01*
X13249600Y-7955400D01*
X13249600Y-8165600D01*
X13249600Y-8165600D01*
G37*
G36*
X13249600Y-7915600D02*
G01*
X13039400Y-7915600D01*
X13039400Y-7705400D01*
X13249600Y-7705400D01*
X13249600Y-7915600D01*
X13249600Y-7915600D01*
G37*
G36*
X12720823Y-7538170D02*
G01*
X12736310Y-7544585D01*
X12750248Y-7553898D01*
X12762101Y-7565752D01*
X12771415Y-7579690D01*
X12777830Y-7595177D01*
X12781100Y-7611618D01*
X12781100Y-7628382D01*
X12777830Y-7644823D01*
X12771415Y-7660310D01*
X12762101Y-7674248D01*
X12750248Y-7686101D01*
X12736310Y-7695415D01*
X12720823Y-7701830D01*
X12704382Y-7705100D01*
X12687618Y-7705100D01*
X12671177Y-7701830D01*
X12655690Y-7695415D01*
X12641752Y-7686101D01*
X12629898Y-7674248D01*
X12620585Y-7660310D01*
X12614170Y-7644823D01*
X12610900Y-7628382D01*
X12610900Y-7611618D01*
X12614170Y-7595177D01*
X12620585Y-7579690D01*
X12629898Y-7565752D01*
X12641752Y-7553898D01*
X12655690Y-7544585D01*
X12671177Y-7538170D01*
X12687618Y-7534900D01*
X12704382Y-7534900D01*
X12720823Y-7538170D01*
X12720823Y-7538170D01*
G37*
G36*
X12531100Y-7705100D02*
G01*
X12360900Y-7705100D01*
X12360900Y-7534900D01*
X12531100Y-7534900D01*
X12531100Y-7705100D01*
X12531100Y-7705100D01*
G37*
G36*
X13249600Y-7665600D02*
G01*
X13039400Y-7665600D01*
X13039400Y-7455400D01*
X13249600Y-7455400D01*
X13249600Y-7665600D01*
X13249600Y-7665600D01*
G37*
G36*
X13249600Y-7415600D02*
G01*
X13039400Y-7415600D01*
X13039400Y-7205400D01*
X13249600Y-7205400D01*
X13249600Y-7415600D01*
X13249600Y-7415600D01*
G37*
G36*
X12215714Y-7033824D02*
G01*
X12230510Y-7039953D01*
X12243825Y-7048850D01*
X12255150Y-7060174D01*
X12264047Y-7073490D01*
X12270176Y-7088286D01*
X12273300Y-7103992D01*
X12273300Y-7120007D01*
X12270176Y-7135714D01*
X12264047Y-7150510D01*
X12255150Y-7163825D01*
X12243825Y-7175150D01*
X12230510Y-7184047D01*
X12215714Y-7190176D01*
X12200007Y-7193300D01*
X12183992Y-7193300D01*
X12168286Y-7190176D01*
X12153490Y-7184047D01*
X12140174Y-7175150D01*
X12128850Y-7163825D01*
X12119953Y-7150510D01*
X12113824Y-7135714D01*
X12110700Y-7120007D01*
X12110700Y-7103992D01*
X12113824Y-7088286D01*
X12119953Y-7073490D01*
X12128850Y-7060174D01*
X12140174Y-7048850D01*
X12153490Y-7039953D01*
X12168286Y-7033824D01*
X12183992Y-7030700D01*
X12200007Y-7030700D01*
X12215714Y-7033824D01*
X12215714Y-7033824D01*
G37*
G36*
X11961714Y-7033824D02*
G01*
X11976510Y-7039953D01*
X11989825Y-7048850D01*
X12001150Y-7060174D01*
X12010047Y-7073490D01*
X12016176Y-7088286D01*
X12019300Y-7103992D01*
X12019300Y-7120007D01*
X12016176Y-7135714D01*
X12010047Y-7150510D01*
X12001150Y-7163825D01*
X11989825Y-7175150D01*
X11976510Y-7184047D01*
X11961714Y-7190176D01*
X11946007Y-7193300D01*
X11929992Y-7193300D01*
X11914286Y-7190176D01*
X11899490Y-7184047D01*
X11886174Y-7175150D01*
X11874850Y-7163825D01*
X11865953Y-7150510D01*
X11859824Y-7135714D01*
X11856700Y-7120007D01*
X11856700Y-7103992D01*
X11859824Y-7088286D01*
X11865953Y-7073490D01*
X11874850Y-7060174D01*
X11886174Y-7048850D01*
X11899490Y-7039953D01*
X11914286Y-7033824D01*
X11929992Y-7030700D01*
X11946007Y-7030700D01*
X11961714Y-7033824D01*
X11961714Y-7033824D01*
G37*
G36*
X13249600Y-7165600D02*
G01*
X13039400Y-7165600D01*
X13039400Y-6955400D01*
X13249600Y-6955400D01*
X13249600Y-7165600D01*
X13249600Y-7165600D01*
G37*
G36*
X11961714Y-6779824D02*
G01*
X11976510Y-6785953D01*
X11989825Y-6794850D01*
X12001150Y-6806174D01*
X12010047Y-6819490D01*
X12016176Y-6834286D01*
X12019300Y-6849992D01*
X12019300Y-6866007D01*
X12016176Y-6881714D01*
X12010047Y-6896510D01*
X12001150Y-6909825D01*
X11989825Y-6921150D01*
X11976510Y-6930047D01*
X11961714Y-6936176D01*
X11946007Y-6939300D01*
X11929992Y-6939300D01*
X11914286Y-6936176D01*
X11899490Y-6930047D01*
X11886174Y-6921150D01*
X11874850Y-6909825D01*
X11865953Y-6896510D01*
X11859824Y-6881714D01*
X11856700Y-6866007D01*
X11856700Y-6849992D01*
X11859824Y-6834286D01*
X11865953Y-6819490D01*
X11874850Y-6806174D01*
X11886174Y-6794850D01*
X11899490Y-6785953D01*
X11914286Y-6779824D01*
X11929992Y-6776700D01*
X11946007Y-6776700D01*
X11961714Y-6779824D01*
X11961714Y-6779824D01*
G37*
G36*
X12215714Y-6779824D02*
G01*
X12230510Y-6785953D01*
X12243825Y-6794850D01*
X12255150Y-6806174D01*
X12264047Y-6819490D01*
X12270176Y-6834286D01*
X12273300Y-6849992D01*
X12273300Y-6866007D01*
X12270176Y-6881714D01*
X12264047Y-6896510D01*
X12255150Y-6909825D01*
X12243825Y-6921150D01*
X12230510Y-6930047D01*
X12215714Y-6936176D01*
X12200007Y-6939300D01*
X12183992Y-6939300D01*
X12168286Y-6936176D01*
X12153490Y-6930047D01*
X12140174Y-6921150D01*
X12128850Y-6909825D01*
X12119953Y-6896510D01*
X12113824Y-6881714D01*
X12110700Y-6866007D01*
X12110700Y-6849992D01*
X12113824Y-6834286D01*
X12119953Y-6819490D01*
X12128850Y-6806174D01*
X12140174Y-6794850D01*
X12153490Y-6785953D01*
X12168286Y-6779824D01*
X12183992Y-6776700D01*
X12200007Y-6776700D01*
X12215714Y-6779824D01*
X12215714Y-6779824D01*
G37*
G36*
X13249600Y-6915600D02*
G01*
X13039400Y-6915600D01*
X13039400Y-6705400D01*
X13249600Y-6705400D01*
X13249600Y-6915600D01*
X13249600Y-6915600D01*
G37*
G36*
X12215714Y-6525824D02*
G01*
X12230510Y-6531953D01*
X12243825Y-6540850D01*
X12255150Y-6552174D01*
X12264047Y-6565490D01*
X12270176Y-6580286D01*
X12273300Y-6595992D01*
X12273300Y-6612007D01*
X12270176Y-6627714D01*
X12264047Y-6642510D01*
X12255150Y-6655825D01*
X12243825Y-6667150D01*
X12230510Y-6676047D01*
X12215714Y-6682176D01*
X12200007Y-6685300D01*
X12183992Y-6685300D01*
X12168286Y-6682176D01*
X12153490Y-6676047D01*
X12140174Y-6667150D01*
X12128850Y-6655825D01*
X12119953Y-6642510D01*
X12113824Y-6627714D01*
X12110700Y-6612007D01*
X12110700Y-6595992D01*
X12113824Y-6580286D01*
X12119953Y-6565490D01*
X12128850Y-6552174D01*
X12140174Y-6540850D01*
X12153490Y-6531953D01*
X12168286Y-6525824D01*
X12183992Y-6522700D01*
X12200007Y-6522700D01*
X12215714Y-6525824D01*
X12215714Y-6525824D01*
G37*
G36*
X11961714Y-6525824D02*
G01*
X11976510Y-6531953D01*
X11989825Y-6540850D01*
X12001150Y-6552174D01*
X12010047Y-6565490D01*
X12016176Y-6580286D01*
X12019300Y-6595992D01*
X12019300Y-6612007D01*
X12016176Y-6627714D01*
X12010047Y-6642510D01*
X12001150Y-6655825D01*
X11989825Y-6667150D01*
X11976510Y-6676047D01*
X11961714Y-6682176D01*
X11946007Y-6685300D01*
X11929992Y-6685300D01*
X11914286Y-6682176D01*
X11899490Y-6676047D01*
X11886174Y-6667150D01*
X11874850Y-6655825D01*
X11865953Y-6642510D01*
X11859824Y-6627714D01*
X11856700Y-6612007D01*
X11856700Y-6595992D01*
X11859824Y-6580286D01*
X11865953Y-6565490D01*
X11874850Y-6552174D01*
X11886174Y-6540850D01*
X11899490Y-6531953D01*
X11914286Y-6525824D01*
X11929992Y-6522700D01*
X11946007Y-6522700D01*
X11961714Y-6525824D01*
X11961714Y-6525824D01*
G37*
G36*
X13249600Y-6665600D02*
G01*
X13039400Y-6665600D01*
X13039400Y-6455400D01*
X13249600Y-6455400D01*
X13249600Y-6665600D01*
X13249600Y-6665600D01*
G37*
G36*
X11961714Y-6271824D02*
G01*
X11976510Y-6277953D01*
X11989825Y-6286850D01*
X12001150Y-6298174D01*
X12010047Y-6311490D01*
X12016176Y-6326286D01*
X12019300Y-6341992D01*
X12019300Y-6358007D01*
X12016176Y-6373714D01*
X12010047Y-6388510D01*
X12001150Y-6401825D01*
X11989825Y-6413150D01*
X11976510Y-6422047D01*
X11961714Y-6428176D01*
X11946007Y-6431300D01*
X11929992Y-6431300D01*
X11914286Y-6428176D01*
X11899490Y-6422047D01*
X11886174Y-6413150D01*
X11874850Y-6401825D01*
X11865953Y-6388510D01*
X11859824Y-6373714D01*
X11856700Y-6358007D01*
X11856700Y-6341992D01*
X11859824Y-6326286D01*
X11865953Y-6311490D01*
X11874850Y-6298174D01*
X11886174Y-6286850D01*
X11899490Y-6277953D01*
X11914286Y-6271824D01*
X11929992Y-6268700D01*
X11946007Y-6268700D01*
X11961714Y-6271824D01*
X11961714Y-6271824D01*
G37*
G36*
X12215714Y-6271824D02*
G01*
X12230510Y-6277953D01*
X12243825Y-6286850D01*
X12255150Y-6298174D01*
X12264047Y-6311490D01*
X12270176Y-6326286D01*
X12273300Y-6341992D01*
X12273300Y-6358007D01*
X12270176Y-6373714D01*
X12264047Y-6388510D01*
X12255150Y-6401825D01*
X12243825Y-6413150D01*
X12230510Y-6422047D01*
X12215714Y-6428176D01*
X12200007Y-6431300D01*
X12183992Y-6431300D01*
X12168286Y-6428176D01*
X12153490Y-6422047D01*
X12140174Y-6413150D01*
X12128850Y-6401825D01*
X12119953Y-6388510D01*
X12113824Y-6373714D01*
X12110700Y-6358007D01*
X12110700Y-6341992D01*
X12113824Y-6326286D01*
X12119953Y-6311490D01*
X12128850Y-6298174D01*
X12140174Y-6286850D01*
X12153490Y-6277953D01*
X12168286Y-6271824D01*
X12183992Y-6268700D01*
X12200007Y-6268700D01*
X12215714Y-6271824D01*
X12215714Y-6271824D01*
G37*
G36*
X13249600Y-6415600D02*
G01*
X13039400Y-6415600D01*
X13039400Y-6205400D01*
X13249600Y-6205400D01*
X13249600Y-6415600D01*
X13249600Y-6415600D01*
G37*
M02*
