  0
SECTION
  2
HEADER
  9
$ANGBASE
  50
0.0
  9
$ANGDIR
  70
  1
  9
$MEASUREMENT
  70
0
  0
ENDSEC
  0
SECTION
  2
TABLES
  0
TABLE
  2
LTYPE
  70
4
  0
LTYPE
  5
40F
  2
CONTINUOUS
  70
0
  3
Solid line
  72
65
  73
0
  40
0.0
  0
LTYPE
  5
410
  2
DASHDOT
 70
0
  3
Dash Dot ____ _ ____ _
 72
65
 73
4
 40
2.0
 49
1.25
 49
-0.25
 49
0.25
 49
-0.25
  0
LTYPE
  5
411
  2
DASHED
 70
0
  3
Dashed __ __ __ __ __
 72
65
 73
2
 40
0.75
 49
0.5
 49
-0.25
  0
LTYPE
  5
43B
  2
DOTTED
 70
0
  3
Dotted .  .  .  .
 72
65
 73
2
 40
0.2
 49
0.0
 49
-0.2
  0
ENDTAB
  0
TABLE
  2
STYLE
  70
4
  0
STYLE
  2
KICAD
  70
0
  40
0
  41
1
  42
1
  50
0
  71
0
  3
isocp.shx
  0
STYLE
  2
KICADB
  70
0
  40
0
  41
1
  42
1
  50
0
  71
0
  3
isocp.shx
  0
STYLE
  2
KICADI
  70
0
  40
0
  41
1
  42
1
  50
15
  71
0
  3
isocp.shx
  0
STYLE
  2
KICADBI
  70
0
  40
0
  41
1
  42
1
  50
15
  71
0
  3
isocp.shx
  0
ENDTAB
  0
TABLE
  2
LAYER
  70
30
  0
LAYER
  2
BLACK
  70
0
  62
7
  6
CONTINUOUS
  0
LAYER
  2
GRAY1
  70
0
  62
251
  6
CONTINUOUS
  0
LAYER
  2
GRAY2
  70
0
  62
8
  6
CONTINUOUS
  0
LAYER
  2
GRAY3
  70
0
  62
9
  6
CONTINUOUS
  0
LAYER
  2
WHITE
  70
0
  62
7
  6
CONTINUOUS
  0
LAYER
  2
LYELLOW
  70
0
  62
51
  6
CONTINUOUS
  0
LAYER
  2
BLUE1
  70
0
  62
178
  6
CONTINUOUS
  0
LAYER
  2
GREEN1
  70
0
  62
98
  6
CONTINUOUS
  0
LAYER
  2
CYAN1
  70
0
  62
138
  6
CONTINUOUS
  0
LAYER
  2
RED1
  70
0
  62
18
  6
CONTINUOUS
  0
LAYER
  2
MAGENTA1
  70
0
  62
228
  6
CONTINUOUS
  0
LAYER
  2
BROWN1
  70
0
  62
58
  6
CONTINUOUS
  0
LAYER
  2
BLUE2
  70
0
  62
5
  6
CONTINUOUS
  0
LAYER
  2
GREEN2
  70
0
  62
3
  6
CONTINUOUS
  0
LAYER
  2
CYAN2
  70
0
  62
4
  6
CONTINUOUS
  0
LAYER
  2
RED2
  70
0
  62
1
  6
CONTINUOUS
  0
LAYER
  2
MAGENTA2
  70
0
  62
6
  6
CONTINUOUS
  0
LAYER
  2
BROWN2
  70
0
  62
54
  6
CONTINUOUS
  0
LAYER
  2
BLUE3
  70
0
  62
171
  6
CONTINUOUS
  0
LAYER
  2
GREEN3
  70
0
  62
91
  6
CONTINUOUS
  0
LAYER
  2
CYAN3
  70
0
  62
131
  6
CONTINUOUS
  0
LAYER
  2
RED3
  70
0
  62
11
  6
CONTINUOUS
  0
LAYER
  2
MAGENTA3
  70
0
  62
221
  6
CONTINUOUS
  0
LAYER
  2
YELLOW3
  70
0
  62
2
  6
CONTINUOUS
  0
LAYER
  2
BLUE4
  70
0
  62
5
  6
CONTINUOUS
  0
LAYER
  2
GREEN4
  70
0
  62
3
  6
CONTINUOUS
  0
LAYER
  2
CYAN4
  70
0
  62
4
  6
CONTINUOUS
  0
LAYER
  2
RED4
  70
0
  62
1
  6
CONTINUOUS
  0
LAYER
  2
MAGENTA4
  70
0
  62
6
  6
CONTINUOUS
  0
LAYER
  2
YELLOW4
  70
0
  62
2
  6
CONTINUOUS
  0
ENDTAB
  0
ENDSEC
  0
SECTION
  2
ENTITIES
0
LINE
8
BLACK
6
CONTINUOUS
10
116.418
20
-76.915
11
123.308
21
-83.805
0
LINE
8
BLACK
6
CONTINUOUS
10
123.308
20
-83.805
11
133.588
21
-83.805
0
LINE
8
BLACK
6
CONTINUOUS
10
133.588
20
-83.805
11
134.645
21
-82.7477
0
LINE
8
BLACK
6
CONTINUOUS
10
134.645
20
-82.7477
11
134.645
21
-75.7707
0
LINE
8
BLACK
6
CONTINUOUS
10
134.645
20
-75.7707
11
132.445
21
-73.5707
0
LINE
8
BLACK
6
CONTINUOUS
10
132.445
20
-73.5707
11
132.445
21
-74.105
0
LINE
8
BLACK
6
CONTINUOUS
10
132.445
20
-74.105
11
130.445
21
-74.105
0
LINE
8
BLACK
6
CONTINUOUS
10
130.445
20
-74.105
11
130.445
21
-72.105
0
LINE
8
BLACK
6
CONTINUOUS
10
130.445
20
-72.105
11
132.445
21
-72.105
0
LINE
8
BLACK
6
CONTINUOUS
10
132.445
20
-72.105
11
132.445
21
-72.705
0
LINE
8
BLACK
6
CONTINUOUS
10
132.445
20
-72.705
11
132.525
21
-72.705
0
LINE
8
BLACK
6
CONTINUOUS
10
132.525
20
-72.705
11
132.545
21
-72.7031
0
LINE
8
BLACK
6
CONTINUOUS
10
132.545
20
-72.7031
11
132.565
21
-72.705
0
LINE
8
BLACK
6
CONTINUOUS
10
132.565
20
-72.705
11
132.565
21
-72.705
0
LINE
8
BLACK
6
CONTINUOUS
10
132.565
20
-72.705
11
132.623
21
-72.7108
0
LINE
8
BLACK
6
CONTINUOUS
10
132.623
20
-72.7108
11
132.699
21
-72.7337
0
LINE
8
BLACK
6
CONTINUOUS
10
132.699
20
-72.7337
11
132.768
21
-72.7708
0
LINE
8
BLACK
6
CONTINUOUS
10
132.768
20
-72.7708
11
132.829
21
-72.8208
0
LINE
8
BLACK
6
CONTINUOUS
10
132.829
20
-72.8208
11
132.842
21
-72.8361
0
LINE
8
BLACK
6
CONTINUOUS
10
132.842
20
-72.8361
11
135.314
21
-75.3083
0
LINE
8
BLACK
6
CONTINUOUS
10
135.314
20
-75.3083
11
135.329
21
-75.3208
0
LINE
8
BLACK
6
CONTINUOUS
10
135.329
20
-75.3208
11
135.379
21
-75.3817
0
LINE
8
BLACK
6
CONTINUOUS
10
135.379
20
-75.3817
11
135.416
21
-75.4512
0
LINE
8
BLACK
6
CONTINUOUS
10
135.416
20
-75.4512
11
135.439
21
-75.5266
0
LINE
8
BLACK
6
CONTINUOUS
10
135.439
20
-75.5266
11
135.444
21
-75.57
0
LINE
8
BLACK
6
CONTINUOUS
10
135.444
20
-75.57
11
135.447
21
-75.605
0
LINE
8
BLACK
6
CONTINUOUS
10
135.447
20
-75.605
11
135.445
21
-75.6247
0
LINE
8
BLACK
6
CONTINUOUS
10
135.445
20
-75.6247
11
135.445
21
-82.8938
0
LINE
8
BLACK
6
CONTINUOUS
10
135.445
20
-82.8938
11
135.447
21
-82.9134
0
LINE
8
BLACK
6
CONTINUOUS
10
135.447
20
-82.9134
11
135.445
21
-82.9331
0
LINE
8
BLACK
6
CONTINUOUS
10
135.445
20
-82.9331
11
135.445
21
-82.9331
0
LINE
8
BLACK
6
CONTINUOUS
10
135.445
20
-82.9331
11
135.439
21
-82.9918
0
LINE
8
BLACK
6
CONTINUOUS
10
135.439
20
-82.9918
11
135.416
21
-83.0672
0
LINE
8
BLACK
6
CONTINUOUS
10
135.416
20
-83.0672
11
135.379
21
-83.1367
0
LINE
8
BLACK
6
CONTINUOUS
10
135.379
20
-83.1367
11
135.329
21
-83.1976
0
LINE
8
BLACK
6
CONTINUOUS
10
135.329
20
-83.1976
11
135.314
21
-83.2102
0
LINE
8
BLACK
6
CONTINUOUS
10
135.314
20
-83.2102
11
134.05
21
-84.474
0
LINE
8
BLACK
6
CONTINUOUS
10
134.05
20
-84.474
11
134.038
21
-84.4892
0
LINE
8
BLACK
6
CONTINUOUS
10
134.038
20
-84.4892
11
133.977
21
-84.5392
0
LINE
8
BLACK
6
CONTINUOUS
10
133.977
20
-84.5392
11
133.907
21
-84.5764
0
LINE
8
BLACK
6
CONTINUOUS
10
133.907
20
-84.5764
11
133.832
21
-84.5992
0
LINE
8
BLACK
6
CONTINUOUS
10
133.832
20
-84.5992
11
133.773
21
-84.605
0
LINE
8
BLACK
6
CONTINUOUS
10
133.773
20
-84.605
11
133.773
21
-84.605
0
LINE
8
BLACK
6
CONTINUOUS
10
133.773
20
-84.605
11
133.753
21
-84.607
0
LINE
8
BLACK
6
CONTINUOUS
10
133.753
20
-84.607
11
133.734
21
-84.605
0
LINE
8
BLACK
6
CONTINUOUS
10
133.734
20
-84.605
11
123.162
21
-84.605
0
LINE
8
BLACK
6
CONTINUOUS
10
123.162
20
-84.605
11
123.142
21
-84.607
0
LINE
8
BLACK
6
CONTINUOUS
10
123.142
20
-84.607
11
123.064
21
-84.5992
0
LINE
8
BLACK
6
CONTINUOUS
10
123.064
20
-84.5992
11
122.989
21
-84.5764
0
LINE
8
BLACK
6
CONTINUOUS
10
122.989
20
-84.5764
11
122.919
21
-84.5392
0
LINE
8
BLACK
6
CONTINUOUS
10
122.919
20
-84.5392
11
122.873
21
-84.5018
0
LINE
8
BLACK
6
CONTINUOUS
10
122.873
20
-84.5018
11
122.858
21
-84.4892
0
LINE
8
BLACK
6
CONTINUOUS
10
122.858
20
-84.4892
11
122.846
21
-84.474
0
LINE
8
BLACK
6
CONTINUOUS
10
122.846
20
-84.474
11
115.749
21
-77.3774
0
LINE
8
BLACK
6
CONTINUOUS
10
115.749
20
-77.3774
11
115.734
21
-77.3649
0
LINE
8
BLACK
6
CONTINUOUS
10
115.734
20
-77.3649
11
115.684
21
-77.304
0
LINE
8
BLACK
6
CONTINUOUS
10
115.684
20
-77.304
11
115.647
21
-77.2345
0
LINE
8
BLACK
6
CONTINUOUS
10
115.647
20
-77.2345
11
115.624
21
-77.1591
0
LINE
8
BLACK
6
CONTINUOUS
10
115.624
20
-77.1591
11
115.618
21
-77.1049
0
LINE
8
BLACK
6
CONTINUOUS
10
115.618
20
-77.1049
11
115.616
21
-77.0807
0
LINE
8
BLACK
6
CONTINUOUS
10
115.616
20
-77.0807
11
115.618
21
-77.061
0
LINE
8
BLACK
6
CONTINUOUS
10
115.618
20
-77.061
11
115.618
21
-66.8817
0
LINE
8
BLACK
6
CONTINUOUS
10
115.618
20
-66.8817
11
115.616
21
-66.862
0
LINE
8
BLACK
6
CONTINUOUS
10
115.616
20
-66.862
11
115.624
21
-66.7836
0
LINE
8
BLACK
6
CONTINUOUS
10
115.624
20
-66.7836
11
115.647
21
-66.7082
0
LINE
8
BLACK
6
CONTINUOUS
10
115.647
20
-66.7082
11
115.684
21
-66.6387
0
LINE
8
BLACK
6
CONTINUOUS
10
115.684
20
-66.6387
11
115.721
21
-66.5931
0
LINE
8
BLACK
6
CONTINUOUS
10
115.721
20
-66.5931
11
115.721
21
-66.5931
0
LINE
8
BLACK
6
CONTINUOUS
10
115.721
20
-66.5931
11
115.734
21
-66.5778
0
LINE
8
BLACK
6
CONTINUOUS
10
115.734
20
-66.5778
11
115.749
21
-66.5653
0
LINE
8
BLACK
6
CONTINUOUS
10
115.749
20
-66.5653
11
118.638
21
-63.6762
0
LINE
8
BLACK
6
CONTINUOUS
10
118.638
20
-63.6762
11
118.618
21
-63.575
0
LINE
8
BLACK
6
CONTINUOUS
10
118.618
20
-63.575
11
118.618
21
-63.4249
0
LINE
8
BLACK
6
CONTINUOUS
10
118.618
20
-63.4249
11
118.647
21
-63.2777
0
LINE
8
BLACK
6
CONTINUOUS
10
118.647
20
-63.2777
11
118.705
21
-63.1391
0
LINE
8
BLACK
6
CONTINUOUS
10
118.705
20
-63.1391
11
118.788
21
-63.0143
0
LINE
8
BLACK
6
CONTINUOUS
10
118.788
20
-63.0143
11
118.894
21
-62.9081
0
LINE
8
BLACK
6
CONTINUOUS
10
118.894
20
-62.9081
11
119.019
21
-62.8247
0
LINE
8
BLACK
6
CONTINUOUS
10
119.019
20
-62.8247
11
119.158
21
-62.7673
0
LINE
8
BLACK
6
CONTINUOUS
10
119.158
20
-62.7673
11
119.305
21
-62.738
0
LINE
8
BLACK
6
CONTINUOUS
10
119.305
20
-62.738
11
119.455
21
-62.738
0
LINE
8
BLACK
6
CONTINUOUS
10
119.455
20
-62.738
11
119.602
21
-62.7673
0
LINE
8
BLACK
6
CONTINUOUS
10
119.602
20
-62.7673
11
119.741
21
-62.8247
0
LINE
8
BLACK
6
CONTINUOUS
10
119.741
20
-62.8247
11
119.866
21
-62.9081
0
LINE
8
BLACK
6
CONTINUOUS
10
119.866
20
-62.9081
11
119.972
21
-63.0143
0
LINE
8
BLACK
6
CONTINUOUS
10
119.972
20
-63.0143
11
120.055
21
-63.1391
0
LINE
8
BLACK
6
CONTINUOUS
10
120.055
20
-63.1391
11
120.113
21
-63.2777
0
LINE
8
BLACK
6
CONTINUOUS
10
120.113
20
-63.2777
11
120.142
21
-63.4249
0
LINE
8
BLACK
6
CONTINUOUS
10
120.142
20
-63.4249
11
120.142
21
-63.575
0
LINE
8
BLACK
6
CONTINUOUS
10
120.142
20
-63.575
11
120.113
21
-63.7223
0
LINE
8
BLACK
6
CONTINUOUS
10
120.113
20
-63.7223
11
120.055
21
-63.8609
0
LINE
8
BLACK
6
CONTINUOUS
10
120.055
20
-63.8609
11
119.972
21
-63.9857
0
LINE
8
BLACK
6
CONTINUOUS
10
119.972
20
-63.9857
11
119.866
21
-64.0919
0
LINE
8
BLACK
6
CONTINUOUS
10
119.866
20
-64.0919
11
119.741
21
-64.1753
0
LINE
8
BLACK
6
CONTINUOUS
10
119.741
20
-64.1753
11
119.602
21
-64.2327
0
LINE
8
BLACK
6
CONTINUOUS
10
119.602
20
-64.2327
11
119.455
21
-64.262
0
LINE
8
BLACK
6
CONTINUOUS
10
119.455
20
-64.262
11
119.305
21
-64.262
0
LINE
8
BLACK
6
CONTINUOUS
10
119.305
20
-64.262
11
119.204
21
-64.2419
0
LINE
8
BLACK
6
CONTINUOUS
10
119.204
20
-64.2419
11
116.418
21
-67.0277
0
LINE
8
BLACK
6
CONTINUOUS
10
116.418
20
-67.0277
11
116.418
21
-76.915
0
LINE
8
BLACK
6
CONTINUOUS
10
117.418
20
-76.5008
11
123.722
21
-82.805
0
LINE
8
BLACK
6
CONTINUOUS
10
123.722
20
-82.805
11
133.174
21
-82.805
0
LINE
8
BLACK
6
CONTINUOUS
10
133.174
20
-82.805
11
133.645
21
-82.3335
0
LINE
8
BLACK
6
CONTINUOUS
10
133.645
20
-82.3335
11
133.645
21
-77.2707
0
LINE
8
BLACK
6
CONTINUOUS
10
133.645
20
-77.2707
11
132.445
21
-76.0707
0
LINE
8
BLACK
6
CONTINUOUS
10
132.445
20
-76.0707
11
132.445
21
-76.605
0
LINE
8
BLACK
6
CONTINUOUS
10
132.445
20
-76.605
11
130.445
21
-76.605
0
LINE
8
BLACK
6
CONTINUOUS
10
130.445
20
-76.605
11
130.445
21
-74.605
0
LINE
8
BLACK
6
CONTINUOUS
10
130.445
20
-74.605
11
132.445
21
-74.605
0
LINE
8
BLACK
6
CONTINUOUS
10
132.445
20
-74.605
11
132.445
21
-75.205
0
LINE
8
BLACK
6
CONTINUOUS
10
132.445
20
-75.205
11
132.525
21
-75.205
0
LINE
8
BLACK
6
CONTINUOUS
10
132.525
20
-75.205
11
132.545
21
-75.2031
0
LINE
8
BLACK
6
CONTINUOUS
10
132.545
20
-75.2031
11
132.565
21
-75.205
0
LINE
8
BLACK
6
CONTINUOUS
10
132.565
20
-75.205
11
132.565
21
-75.205
0
LINE
8
BLACK
6
CONTINUOUS
10
132.565
20
-75.205
11
132.623
21
-75.2108
0
LINE
8
BLACK
6
CONTINUOUS
10
132.623
20
-75.2108
11
132.699
21
-75.2337
0
LINE
8
BLACK
6
CONTINUOUS
10
132.699
20
-75.2337
11
132.768
21
-75.2708
0
LINE
8
BLACK
6
CONTINUOUS
10
132.768
20
-75.2708
11
132.829
21
-75.3208
0
LINE
8
BLACK
6
CONTINUOUS
10
132.829
20
-75.3208
11
132.842
21
-75.3361
0
LINE
8
BLACK
6
CONTINUOUS
10
132.842
20
-75.3361
11
134.314
21
-76.8083
0
LINE
8
BLACK
6
CONTINUOUS
10
134.314
20
-76.8083
11
134.329
21
-76.8208
0
LINE
8
BLACK
6
CONTINUOUS
10
134.329
20
-76.8208
11
134.342
21
-76.8361
0
LINE
8
BLACK
6
CONTINUOUS
10
134.342
20
-76.8361
11
134.342
21
-76.8361
0
LINE
8
BLACK
6
CONTINUOUS
10
134.342
20
-76.8361
11
134.379
21
-76.8817
0
LINE
8
BLACK
6
CONTINUOUS
10
134.379
20
-76.8817
11
134.416
21
-76.9512
0
LINE
8
BLACK
6
CONTINUOUS
10
134.416
20
-76.9512
11
134.434
21
-77.0107
0
LINE
8
BLACK
6
CONTINUOUS
10
134.434
20
-77.0107
11
134.439
21
-77.0266
0
LINE
8
BLACK
6
CONTINUOUS
10
134.439
20
-77.0266
11
134.441
21
-77.0441
0
LINE
8
BLACK
6
CONTINUOUS
10
134.441
20
-77.0441
11
134.447
21
-77.105
0
LINE
8
BLACK
6
CONTINUOUS
10
134.447
20
-77.105
11
134.445
21
-77.1247
0
LINE
8
BLACK
6
CONTINUOUS
10
134.445
20
-77.1247
11
134.445
21
-82.4796
0
LINE
8
BLACK
6
CONTINUOUS
10
134.445
20
-82.4796
11
134.447
21
-82.4992
0
LINE
8
BLACK
6
CONTINUOUS
10
134.447
20
-82.4992
11
134.443
21
-82.5392
0
LINE
8
BLACK
6
CONTINUOUS
10
134.443
20
-82.5392
11
134.439
21
-82.5776
0
LINE
8
BLACK
6
CONTINUOUS
10
134.439
20
-82.5776
11
134.416
21
-82.653
0
LINE
8
BLACK
6
CONTINUOUS
10
134.416
20
-82.653
11
134.379
21
-82.7225
0
LINE
8
BLACK
6
CONTINUOUS
10
134.379
20
-82.7225
11
134.329
21
-82.7834
0
LINE
8
BLACK
6
CONTINUOUS
10
134.329
20
-82.7834
11
134.314
21
-82.796
0
LINE
8
BLACK
6
CONTINUOUS
10
134.314
20
-82.796
11
133.636
21
-83.474
0
LINE
8
BLACK
6
CONTINUOUS
10
133.636
20
-83.474
11
133.623
21
-83.4892
0
LINE
8
BLACK
6
CONTINUOUS
10
133.623
20
-83.4892
11
133.563
21
-83.5392
0
LINE
8
BLACK
6
CONTINUOUS
10
133.563
20
-83.5392
11
133.493
21
-83.5764
0
LINE
8
BLACK
6
CONTINUOUS
10
133.493
20
-83.5764
11
133.418
21
-83.5992
0
LINE
8
BLACK
6
CONTINUOUS
10
133.418
20
-83.5992
11
133.359
21
-83.605
0
LINE
8
BLACK
6
CONTINUOUS
10
133.359
20
-83.605
11
133.359
21
-83.605
0
LINE
8
BLACK
6
CONTINUOUS
10
133.359
20
-83.605
11
133.339
21
-83.6069
0
LINE
8
BLACK
6
CONTINUOUS
10
133.339
20
-83.6069
11
133.32
21
-83.605
0
LINE
8
BLACK
6
CONTINUOUS
10
133.32
20
-83.605
11
123.576
21
-83.605
0
LINE
8
BLACK
6
CONTINUOUS
10
123.576
20
-83.605
11
123.557
21
-83.6069
0
LINE
8
BLACK
6
CONTINUOUS
10
123.557
20
-83.6069
11
123.537
21
-83.605
0
LINE
8
BLACK
6
CONTINUOUS
10
123.537
20
-83.605
11
123.537
21
-83.605
0
LINE
8
BLACK
6
CONTINUOUS
10
123.537
20
-83.605
11
123.478
21
-83.5992
0
LINE
8
BLACK
6
CONTINUOUS
10
123.478
20
-83.5992
11
123.403
21
-83.5764
0
LINE
8
BLACK
6
CONTINUOUS
10
123.403
20
-83.5764
11
123.333
21
-83.5392
0
LINE
8
BLACK
6
CONTINUOUS
10
123.333
20
-83.5392
11
123.32
21
-83.528
0
LINE
8
BLACK
6
CONTINUOUS
10
123.32
20
-83.528
11
123.288
21
-83.5017
0
LINE
8
BLACK
6
CONTINUOUS
10
123.288
20
-83.5017
11
123.288
21
-83.5017
0
LINE
8
BLACK
6
CONTINUOUS
10
123.288
20
-83.5017
11
123.272
21
-83.4892
0
LINE
8
BLACK
6
CONTINUOUS
10
123.272
20
-83.4892
11
123.26
21
-83.474
0
LINE
8
BLACK
6
CONTINUOUS
10
123.26
20
-83.474
11
116.749
21
-76.9632
0
LINE
8
BLACK
6
CONTINUOUS
10
116.749
20
-76.9632
11
116.734
21
-76.9507
0
LINE
8
BLACK
6
CONTINUOUS
10
116.734
20
-76.9507
11
116.684
21
-76.8897
0
LINE
8
BLACK
6
CONTINUOUS
10
116.684
20
-76.8897
11
116.647
21
-76.8203
0
LINE
8
BLACK
6
CONTINUOUS
10
116.647
20
-76.8203
11
116.624
21
-76.7449
0
LINE
8
BLACK
6
CONTINUOUS
10
116.624
20
-76.7449
11
116.618
21
-76.6861
0
LINE
8
BLACK
6
CONTINUOUS
10
116.618
20
-76.6861
11
116.616
21
-76.6664
0
LINE
8
BLACK
6
CONTINUOUS
10
116.616
20
-76.6664
11
116.618
21
-76.6468
0
LINE
8
BLACK
6
CONTINUOUS
10
116.618
20
-76.6468
11
116.618
21
-68.4217
0
LINE
8
BLACK
6
CONTINUOUS
10
116.618
20
-68.4217
11
116.616
21
-68.402
0
LINE
8
BLACK
6
CONTINUOUS
10
116.616
20
-68.402
11
116.624
21
-68.3236
0
LINE
8
BLACK
6
CONTINUOUS
10
116.624
20
-68.3236
11
116.647
21
-68.2482
0
LINE
8
BLACK
6
CONTINUOUS
10
116.647
20
-68.2482
11
116.684
21
-68.1787
0
LINE
8
BLACK
6
CONTINUOUS
10
116.684
20
-68.1787
11
116.721
21
-68.1331
0
LINE
8
BLACK
6
CONTINUOUS
10
116.721
20
-68.1331
11
116.721
21
-68.1331
0
LINE
8
BLACK
6
CONTINUOUS
10
116.721
20
-68.1331
11
116.734
21
-68.1178
0
LINE
8
BLACK
6
CONTINUOUS
10
116.734
20
-68.1178
11
116.749
21
-68.1053
0
LINE
8
BLACK
6
CONTINUOUS
10
116.749
20
-68.1053
11
118.638
21
-66.2162
0
LINE
8
BLACK
6
CONTINUOUS
10
118.638
20
-66.2162
11
118.618
21
-66.115
0
LINE
8
BLACK
6
CONTINUOUS
10
118.618
20
-66.115
11
118.618
21
-65.965
0
LINE
8
BLACK
6
CONTINUOUS
10
118.618
20
-65.965
11
118.647
21
-65.8177
0
LINE
8
BLACK
6
CONTINUOUS
10
118.647
20
-65.8177
11
118.705
21
-65.6791
0
LINE
8
BLACK
6
CONTINUOUS
10
118.705
20
-65.6791
11
118.788
21
-65.5543
0
LINE
8
BLACK
6
CONTINUOUS
10
118.788
20
-65.5543
11
118.894
21
-65.4481
0
LINE
8
BLACK
6
CONTINUOUS
10
118.894
20
-65.4481
11
119.019
21
-65.3647
0
LINE
8
BLACK
6
CONTINUOUS
10
119.019
20
-65.3647
11
119.158
21
-65.3073
0
LINE
8
BLACK
6
CONTINUOUS
10
119.158
20
-65.3073
11
119.305
21
-65.278
0
LINE
8
BLACK
6
CONTINUOUS
10
119.305
20
-65.278
11
119.455
21
-65.278
0
LINE
8
BLACK
6
CONTINUOUS
10
119.455
20
-65.278
11
119.602
21
-65.3073
0
LINE
8
BLACK
6
CONTINUOUS
10
119.602
20
-65.3073
11
119.741
21
-65.3647
0
LINE
8
BLACK
6
CONTINUOUS
10
119.741
20
-65.3647
11
119.866
21
-65.4481
0
LINE
8
BLACK
6
CONTINUOUS
10
119.866
20
-65.4481
11
119.972
21
-65.5543
0
LINE
8
BLACK
6
CONTINUOUS
10
119.972
20
-65.5543
11
120.055
21
-65.6791
0
LINE
8
BLACK
6
CONTINUOUS
10
120.055
20
-65.6791
11
120.113
21
-65.8177
0
LINE
8
BLACK
6
CONTINUOUS
10
120.113
20
-65.8177
11
120.142
21
-65.965
0
LINE
8
BLACK
6
CONTINUOUS
10
120.142
20
-65.965
11
120.142
21
-66.115
0
LINE
8
BLACK
6
CONTINUOUS
10
120.142
20
-66.115
11
120.113
21
-66.2623
0
LINE
8
BLACK
6
CONTINUOUS
10
120.113
20
-66.2623
11
120.055
21
-66.4009
0
LINE
8
BLACK
6
CONTINUOUS
10
120.055
20
-66.4009
11
119.972
21
-66.5257
0
LINE
8
BLACK
6
CONTINUOUS
10
119.972
20
-66.5257
11
119.866
21
-66.6319
0
LINE
8
BLACK
6
CONTINUOUS
10
119.866
20
-66.6319
11
119.741
21
-66.7153
0
LINE
8
BLACK
6
CONTINUOUS
10
119.741
20
-66.7153
11
119.602
21
-66.7727
0
LINE
8
BLACK
6
CONTINUOUS
10
119.602
20
-66.7727
11
119.455
21
-66.802
0
LINE
8
BLACK
6
CONTINUOUS
10
119.455
20
-66.802
11
119.305
21
-66.802
0
LINE
8
BLACK
6
CONTINUOUS
10
119.305
20
-66.802
11
119.204
21
-66.7819
0
LINE
8
BLACK
6
CONTINUOUS
10
119.204
20
-66.7819
11
117.418
21
-68.5677
0
LINE
8
BLACK
6
CONTINUOUS
10
117.418
20
-68.5677
11
117.418
21
-76.5008
0
LINE
8
BLACK
6
CONTINUOUS
10
119.602
20
-67.8473
11
119.741
21
-67.9047
0
LINE
8
BLACK
6
CONTINUOUS
10
119.741
20
-67.9047
11
119.866
21
-67.9881
0
LINE
8
BLACK
6
CONTINUOUS
10
119.866
20
-67.9881
11
119.972
21
-68.0943
0
LINE
8
BLACK
6
CONTINUOUS
10
119.972
20
-68.0943
11
120.055
21
-68.2191
0
LINE
8
BLACK
6
CONTINUOUS
10
120.055
20
-68.2191
11
120.113
21
-68.3577
0
LINE
8
BLACK
6
CONTINUOUS
10
120.113
20
-68.3577
11
120.142
21
-68.5049
0
LINE
8
BLACK
6
CONTINUOUS
10
120.142
20
-68.5049
11
120.142
21
-68.6551
0
LINE
8
BLACK
6
CONTINUOUS
10
120.142
20
-68.6551
11
120.113
21
-68.8023
0
LINE
8
BLACK
6
CONTINUOUS
10
120.113
20
-68.8023
11
120.055
21
-68.9409
0
LINE
8
BLACK
6
CONTINUOUS
10
120.055
20
-68.9409
11
119.972
21
-69.0657
0
LINE
8
BLACK
6
CONTINUOUS
10
119.972
20
-69.0657
11
119.866
21
-69.1719
0
LINE
8
BLACK
6
CONTINUOUS
10
119.866
20
-69.1719
11
119.741
21
-69.2553
0
LINE
8
BLACK
6
CONTINUOUS
10
119.741
20
-69.2553
11
119.602
21
-69.3127
0
LINE
8
BLACK
6
CONTINUOUS
10
119.602
20
-69.3127
11
119.455
21
-69.342
0
LINE
8
BLACK
6
CONTINUOUS
10
119.455
20
-69.342
11
119.305
21
-69.342
0
LINE
8
BLACK
6
CONTINUOUS
10
119.305
20
-69.342
11
119.204
21
-69.3219
0
LINE
8
BLACK
6
CONTINUOUS
10
119.204
20
-69.3219
11
118.915
21
-69.6109
0
LINE
8
BLACK
6
CONTINUOUS
10
118.915
20
-69.6109
11
118.915
21
-69.611
0
LINE
8
BLACK
6
CONTINUOUS
10
118.915
20
-69.611
11
118.418
21
-70.1077
0
LINE
8
BLACK
6
CONTINUOUS
10
118.418
20
-70.1077
11
118.418
21
-76.0865
0
LINE
8
BLACK
6
CONTINUOUS
10
118.418
20
-76.0865
11
124.136
21
-81.805
0
LINE
8
BLACK
6
CONTINUOUS
10
124.136
20
-81.805
11
132.645
21
-81.805
0
LINE
8
BLACK
6
CONTINUOUS
10
132.645
20
-81.805
11
132.645
21
-78.7707
0
LINE
8
BLACK
6
CONTINUOUS
10
132.645
20
-78.7707
11
132.445
21
-78.5707
0
LINE
8
BLACK
6
CONTINUOUS
10
132.445
20
-78.5707
11
132.445
21
-79.105
0
LINE
8
BLACK
6
CONTINUOUS
10
132.445
20
-79.105
11
130.445
21
-79.105
0
LINE
8
BLACK
6
CONTINUOUS
10
130.445
20
-79.105
11
130.445
21
-77.105
0
LINE
8
BLACK
6
CONTINUOUS
10
130.445
20
-77.105
11
132.445
21
-77.105
0
LINE
8
BLACK
6
CONTINUOUS
10
132.445
20
-77.105
11
132.445
21
-77.705
0
LINE
8
BLACK
6
CONTINUOUS
10
132.445
20
-77.705
11
132.525
21
-77.705
0
LINE
8
BLACK
6
CONTINUOUS
10
132.525
20
-77.705
11
132.545
21
-77.7031
0
LINE
8
BLACK
6
CONTINUOUS
10
132.545
20
-77.7031
11
132.565
21
-77.705
0
LINE
8
BLACK
6
CONTINUOUS
10
132.565
20
-77.705
11
132.565
21
-77.705
0
LINE
8
BLACK
6
CONTINUOUS
10
132.565
20
-77.705
11
132.623
21
-77.7108
0
LINE
8
BLACK
6
CONTINUOUS
10
132.623
20
-77.7108
11
132.699
21
-77.7337
0
LINE
8
BLACK
6
CONTINUOUS
10
132.699
20
-77.7337
11
132.768
21
-77.7708
0
LINE
8
BLACK
6
CONTINUOUS
10
132.768
20
-77.7708
11
132.829
21
-77.8208
0
LINE
8
BLACK
6
CONTINUOUS
10
132.829
20
-77.8208
11
132.842
21
-77.8361
0
LINE
8
BLACK
6
CONTINUOUS
10
132.842
20
-77.8361
11
133.314
21
-78.3083
0
LINE
8
BLACK
6
CONTINUOUS
10
133.314
20
-78.3083
11
133.329
21
-78.3208
0
LINE
8
BLACK
6
CONTINUOUS
10
133.329
20
-78.3208
11
133.379
21
-78.3817
0
LINE
8
BLACK
6
CONTINUOUS
10
133.379
20
-78.3817
11
133.416
21
-78.4512
0
LINE
8
BLACK
6
CONTINUOUS
10
133.416
20
-78.4512
11
133.439
21
-78.5266
0
LINE
8
BLACK
6
CONTINUOUS
10
133.439
20
-78.5266
11
133.445
21
-78.5854
0
LINE
8
BLACK
6
CONTINUOUS
10
133.445
20
-78.5854
11
133.445
21
-78.5854
0
LINE
8
BLACK
6
CONTINUOUS
10
133.445
20
-78.5854
11
133.447
21
-78.605
0
LINE
8
BLACK
6
CONTINUOUS
10
133.447
20
-78.605
11
133.445
21
-78.6246
0
LINE
8
BLACK
6
CONTINUOUS
10
133.445
20
-78.6246
11
133.445
21
-82.0654
0
LINE
8
BLACK
6
CONTINUOUS
10
133.445
20
-82.0654
11
133.447
21
-82.085
0
LINE
8
BLACK
6
CONTINUOUS
10
133.447
20
-82.085
11
133.445
21
-82.1046
0
LINE
8
BLACK
6
CONTINUOUS
10
133.445
20
-82.1046
11
133.439
21
-82.1634
0
LINE
8
BLACK
6
CONTINUOUS
10
133.439
20
-82.1634
11
133.416
21
-82.2388
0
LINE
8
BLACK
6
CONTINUOUS
10
133.416
20
-82.2388
11
133.379
21
-82.3083
0
LINE
8
BLACK
6
CONTINUOUS
10
133.379
20
-82.3083
11
133.329
21
-82.3692
0
LINE
8
BLACK
6
CONTINUOUS
10
133.329
20
-82.3692
11
133.314
21
-82.3817
0
LINE
8
BLACK
6
CONTINUOUS
10
133.314
20
-82.3817
11
133.222
21
-82.4739
0
LINE
8
BLACK
6
CONTINUOUS
10
133.222
20
-82.4739
11
133.209
21
-82.4892
0
LINE
8
BLACK
6
CONTINUOUS
10
133.209
20
-82.4892
11
133.148
21
-82.5392
0
LINE
8
BLACK
6
CONTINUOUS
10
133.148
20
-82.5392
11
133.079
21
-82.5763
0
LINE
8
BLACK
6
CONTINUOUS
10
133.079
20
-82.5763
11
133.003
21
-82.5992
0
LINE
8
BLACK
6
CONTINUOUS
10
133.003
20
-82.5992
11
132.945
21
-82.605
0
LINE
8
BLACK
6
CONTINUOUS
10
132.945
20
-82.605
11
132.945
21
-82.605
0
LINE
8
BLACK
6
CONTINUOUS
10
132.945
20
-82.605
11
132.925
21
-82.6069
0
LINE
8
BLACK
6
CONTINUOUS
10
132.925
20
-82.6069
11
132.905
21
-82.605
0
LINE
8
BLACK
6
CONTINUOUS
10
132.905
20
-82.605
11
123.99
21
-82.605
0
LINE
8
BLACK
6
CONTINUOUS
10
123.99
20
-82.605
11
123.971
21
-82.6069
0
LINE
8
BLACK
6
CONTINUOUS
10
123.971
20
-82.6069
11
123.951
21
-82.605
0
LINE
8
BLACK
6
CONTINUOUS
10
123.951
20
-82.605
11
123.951
21
-82.605
0
LINE
8
BLACK
6
CONTINUOUS
10
123.951
20
-82.605
11
123.892
21
-82.5992
0
LINE
8
BLACK
6
CONTINUOUS
10
123.892
20
-82.5992
11
123.817
21
-82.5763
0
LINE
8
BLACK
6
CONTINUOUS
10
123.817
20
-82.5763
11
123.747
21
-82.5392
0
LINE
8
BLACK
6
CONTINUOUS
10
123.747
20
-82.5392
11
123.734
21
-82.5279
0
LINE
8
BLACK
6
CONTINUOUS
10
123.734
20
-82.5279
11
123.702
21
-82.5017
0
LINE
8
BLACK
6
CONTINUOUS
10
123.702
20
-82.5017
11
123.702
21
-82.5017
0
LINE
8
BLACK
6
CONTINUOUS
10
123.702
20
-82.5017
11
123.687
21
-82.4892
0
LINE
8
BLACK
6
CONTINUOUS
10
123.687
20
-82.4892
11
123.674
21
-82.474
0
LINE
8
BLACK
6
CONTINUOUS
10
123.674
20
-82.474
11
117.749
21
-76.549
0
LINE
8
BLACK
6
CONTINUOUS
10
117.749
20
-76.549
11
117.734
21
-76.5364
0
LINE
8
BLACK
6
CONTINUOUS
10
117.734
20
-76.5364
11
117.684
21
-76.4755
0
LINE
8
BLACK
6
CONTINUOUS
10
117.684
20
-76.4755
11
117.647
21
-76.406
0
LINE
8
BLACK
6
CONTINUOUS
10
117.647
20
-76.406
11
117.624
21
-76.3306
0
LINE
8
BLACK
6
CONTINUOUS
10
117.624
20
-76.3306
11
117.618
21
-76.2719
0
LINE
8
BLACK
6
CONTINUOUS
10
117.618
20
-76.2719
11
117.616
21
-76.2522
0
LINE
8
BLACK
6
CONTINUOUS
10
117.616
20
-76.2522
11
117.618
21
-76.2326
0
LINE
8
BLACK
6
CONTINUOUS
10
117.618
20
-76.2326
11
117.618
21
-69.9617
0
LINE
8
BLACK
6
CONTINUOUS
10
117.618
20
-69.9617
11
117.616
21
-69.942
0
LINE
8
BLACK
6
CONTINUOUS
10
117.616
20
-69.942
11
117.624
21
-69.8636
0
LINE
8
BLACK
6
CONTINUOUS
10
117.624
20
-69.8636
11
117.647
21
-69.7882
0
LINE
8
BLACK
6
CONTINUOUS
10
117.647
20
-69.7882
11
117.684
21
-69.7187
0
LINE
8
BLACK
6
CONTINUOUS
10
117.684
20
-69.7187
11
117.721
21
-69.6731
0
LINE
8
BLACK
6
CONTINUOUS
10
117.721
20
-69.6731
11
117.721
21
-69.673
0
LINE
8
BLACK
6
CONTINUOUS
10
117.721
20
-69.673
11
117.734
21
-69.6578
0
LINE
8
BLACK
6
CONTINUOUS
10
117.734
20
-69.6578
11
117.749
21
-69.6453
0
LINE
8
BLACK
6
CONTINUOUS
10
117.749
20
-69.6453
11
118.349
21
-69.0453
0
LINE
8
BLACK
6
CONTINUOUS
10
118.349
20
-69.0453
11
118.349
21
-69.0453
0
LINE
8
BLACK
6
CONTINUOUS
10
118.349
20
-69.0453
11
118.638
21
-68.7562
0
LINE
8
BLACK
6
CONTINUOUS
10
118.638
20
-68.7562
11
118.618
21
-68.6551
0
LINE
8
BLACK
6
CONTINUOUS
10
118.618
20
-68.6551
11
118.618
21
-68.5049
0
LINE
8
BLACK
6
CONTINUOUS
10
118.618
20
-68.5049
11
118.647
21
-68.3577
0
LINE
8
BLACK
6
CONTINUOUS
10
118.647
20
-68.3577
11
118.705
21
-68.2191
0
LINE
8
BLACK
6
CONTINUOUS
10
118.705
20
-68.2191
11
118.788
21
-68.0943
0
LINE
8
BLACK
6
CONTINUOUS
10
118.788
20
-68.0943
11
118.894
21
-67.9881
0
LINE
8
BLACK
6
CONTINUOUS
10
118.894
20
-67.9881
11
119.019
21
-67.9047
0
LINE
8
BLACK
6
CONTINUOUS
10
119.019
20
-67.9047
11
119.158
21
-67.8473
0
LINE
8
BLACK
6
CONTINUOUS
10
119.158
20
-67.8473
11
119.305
21
-67.818
0
LINE
8
BLACK
6
CONTINUOUS
10
119.305
20
-67.818
11
119.455
21
-67.818
0
LINE
8
BLACK
6
CONTINUOUS
10
119.455
20
-67.818
11
119.602
21
-67.8473
0
LINE
8
BLACK
6
CONTINUOUS
10
123.785
20
-81.0069
11
123.707
21
-80.9992
0
LINE
8
BLACK
6
CONTINUOUS
10
123.707
20
-80.9992
11
123.631
21
-80.9763
0
LINE
8
BLACK
6
CONTINUOUS
10
123.631
20
-80.9763
11
123.562
21
-80.9392
0
LINE
8
BLACK
6
CONTINUOUS
10
123.562
20
-80.9392
11
123.516
21
-80.9017
0
LINE
8
BLACK
6
CONTINUOUS
10
123.516
20
-80.9017
11
123.516
21
-80.9017
0
LINE
8
BLACK
6
CONTINUOUS
10
123.516
20
-80.9017
11
123.501
21
-80.8892
0
LINE
8
BLACK
6
CONTINUOUS
10
123.501
20
-80.8892
11
123.488
21
-80.874
0
LINE
8
BLACK
6
CONTINUOUS
10
123.488
20
-80.874
11
119.111
21
-76.4967
0
LINE
8
BLACK
6
CONTINUOUS
10
119.111
20
-76.4967
11
119.096
21
-76.4842
0
LINE
8
BLACK
6
CONTINUOUS
10
119.096
20
-76.4842
11
119.046
21
-76.4233
0
LINE
8
BLACK
6
CONTINUOUS
10
119.046
20
-76.4233
11
119.009
21
-76.3538
0
LINE
8
BLACK
6
CONTINUOUS
10
119.009
20
-76.3538
11
118.986
21
-76.2784
0
LINE
8
BLACK
6
CONTINUOUS
10
118.986
20
-76.2784
11
118.982
21
-76.2369
0
LINE
8
BLACK
6
CONTINUOUS
10
118.982
20
-76.2369
11
118.978
21
-76.2
0
LINE
8
BLACK
6
CONTINUOUS
10
118.978
20
-76.2
11
118.98
21
-76.1804
0
LINE
8
BLACK
6
CONTINUOUS
10
118.98
20
-76.1804
11
118.98
21
-71.7692
0
LINE
8
BLACK
6
CONTINUOUS
10
118.98
20
-71.7692
11
118.894
21
-71.7119
0
LINE
8
BLACK
6
CONTINUOUS
10
118.894
20
-71.7119
11
118.788
21
-71.6057
0
LINE
8
BLACK
6
CONTINUOUS
10
118.788
20
-71.6057
11
118.705
21
-71.4809
0
LINE
8
BLACK
6
CONTINUOUS
10
118.705
20
-71.4809
11
118.647
21
-71.3423
0
LINE
8
BLACK
6
CONTINUOUS
10
118.647
20
-71.3423
11
118.618
21
-71.195
0
LINE
8
BLACK
6
CONTINUOUS
10
118.618
20
-71.195
11
118.618
21
-71.045
0
LINE
8
BLACK
6
CONTINUOUS
10
118.618
20
-71.045
11
118.647
21
-70.8977
0
LINE
8
BLACK
6
CONTINUOUS
10
118.647
20
-70.8977
11
118.705
21
-70.7591
0
LINE
8
BLACK
6
CONTINUOUS
10
118.705
20
-70.7591
11
118.788
21
-70.6343
0
LINE
8
BLACK
6
CONTINUOUS
10
118.788
20
-70.6343
11
118.894
21
-70.5281
0
LINE
8
BLACK
6
CONTINUOUS
10
118.894
20
-70.5281
11
119.019
21
-70.4447
0
LINE
8
BLACK
6
CONTINUOUS
10
119.019
20
-70.4447
11
119.158
21
-70.3873
0
LINE
8
BLACK
6
CONTINUOUS
10
119.158
20
-70.3873
11
119.305
21
-70.358
0
LINE
8
BLACK
6
CONTINUOUS
10
119.305
20
-70.358
11
119.455
21
-70.358
0
LINE
8
BLACK
6
CONTINUOUS
10
119.455
20
-70.358
11
119.602
21
-70.3873
0
LINE
8
BLACK
6
CONTINUOUS
10
119.602
20
-70.3873
11
119.741
21
-70.4447
0
LINE
8
BLACK
6
CONTINUOUS
10
119.741
20
-70.4447
11
119.866
21
-70.5281
0
LINE
8
BLACK
6
CONTINUOUS
10
119.866
20
-70.5281
11
119.972
21
-70.6343
0
LINE
8
BLACK
6
CONTINUOUS
10
119.972
20
-70.6343
11
120.055
21
-70.7591
0
LINE
8
BLACK
6
CONTINUOUS
10
120.055
20
-70.7591
11
120.113
21
-70.8977
0
LINE
8
BLACK
6
CONTINUOUS
10
120.113
20
-70.8977
11
120.142
21
-71.045
0
LINE
8
BLACK
6
CONTINUOUS
10
120.142
20
-71.045
11
120.142
21
-71.195
0
LINE
8
BLACK
6
CONTINUOUS
10
120.142
20
-71.195
11
120.113
21
-71.3423
0
LINE
8
BLACK
6
CONTINUOUS
10
120.113
20
-71.3423
11
120.055
21
-71.4809
0
LINE
8
BLACK
6
CONTINUOUS
10
120.055
20
-71.4809
11
119.972
21
-71.6057
0
LINE
8
BLACK
6
CONTINUOUS
10
119.972
20
-71.6057
11
119.866
21
-71.7119
0
LINE
8
BLACK
6
CONTINUOUS
10
119.866
20
-71.7119
11
119.78
21
-71.7692
0
LINE
8
BLACK
6
CONTINUOUS
10
119.78
20
-71.7692
11
119.78
21
-76.0343
0
LINE
8
BLACK
6
CONTINUOUS
10
119.78
20
-76.0343
11
123.951
21
-80.205
0
LINE
8
BLACK
6
CONTINUOUS
10
123.951
20
-80.205
11
128.679
21
-80.205
0
LINE
8
BLACK
6
CONTINUOUS
10
128.679
20
-80.205
11
126.691
21
-78.2167
0
LINE
8
BLACK
6
CONTINUOUS
10
126.691
20
-78.2167
11
126.676
21
-78.2042
0
LINE
8
BLACK
6
CONTINUOUS
10
126.676
20
-78.2042
11
126.663
21
-78.189
0
LINE
8
BLACK
6
CONTINUOUS
10
126.663
20
-78.189
11
126.663
21
-78.1889
0
LINE
8
BLACK
6
CONTINUOUS
10
126.663
20
-78.1889
11
126.626
21
-78.1433
0
LINE
8
BLACK
6
CONTINUOUS
10
126.626
20
-78.1433
11
126.589
21
-78.0738
0
LINE
8
BLACK
6
CONTINUOUS
10
126.589
20
-78.0738
11
126.566
21
-77.9984
0
LINE
8
BLACK
6
CONTINUOUS
10
126.566
20
-77.9984
11
126.558
21
-77.92
0
LINE
8
BLACK
6
CONTINUOUS
10
126.558
20
-77.92
11
126.56
21
-77.9003
0
LINE
8
BLACK
6
CONTINUOUS
10
126.56
20
-77.9003
11
126.56
21
-76.8949
0
LINE
8
BLACK
6
CONTINUOUS
10
126.56
20
-76.8949
11
126.45
21
-76.8214
0
LINE
8
BLACK
6
CONTINUOUS
10
126.45
20
-76.8214
11
126.339
21
-76.71
0
LINE
8
BLACK
6
CONTINUOUS
10
126.339
20
-76.71
11
126.251
21
-76.5789
0
LINE
8
BLACK
6
CONTINUOUS
10
126.251
20
-76.5789
11
126.191
21
-76.4334
0
LINE
8
BLACK
6
CONTINUOUS
10
126.191
20
-76.4334
11
126.16
21
-76.2788
0
LINE
8
BLACK
6
CONTINUOUS
10
126.16
20
-76.2788
11
126.16
21
-76.1212
0
LINE
8
BLACK
6
CONTINUOUS
10
126.16
20
-76.1212
11
126.191
21
-75.9666
0
LINE
8
BLACK
6
CONTINUOUS
10
126.191
20
-75.9666
11
126.251
21
-75.8211
0
LINE
8
BLACK
6
CONTINUOUS
10
126.251
20
-75.8211
11
126.339
21
-75.69
0
LINE
8
BLACK
6
CONTINUOUS
10
126.339
20
-75.69
11
126.45
21
-75.5786
0
LINE
8
BLACK
6
CONTINUOUS
10
126.45
20
-75.5786
11
126.581
21
-75.491
0
LINE
8
BLACK
6
CONTINUOUS
10
126.581
20
-75.491
11
126.727
21
-75.4307
0
LINE
8
BLACK
6
CONTINUOUS
10
126.727
20
-75.4307
11
126.881
21
-75.4
0
LINE
8
BLACK
6
CONTINUOUS
10
126.881
20
-75.4
11
127.039
21
-75.4
0
LINE
8
BLACK
6
CONTINUOUS
10
127.039
20
-75.4
11
127.193
21
-75.4307
0
LINE
8
BLACK
6
CONTINUOUS
10
127.193
20
-75.4307
11
127.339
21
-75.491
0
LINE
8
BLACK
6
CONTINUOUS
10
127.339
20
-75.491
11
127.47
21
-75.5786
0
LINE
8
BLACK
6
CONTINUOUS
10
127.47
20
-75.5786
11
127.581
21
-75.69
0
LINE
8
BLACK
6
CONTINUOUS
10
127.581
20
-75.69
11
127.669
21
-75.8211
0
LINE
8
BLACK
6
CONTINUOUS
10
127.669
20
-75.8211
11
127.729
21
-75.9666
0
LINE
8
BLACK
6
CONTINUOUS
10
127.729
20
-75.9666
11
127.76
21
-76.1212
0
LINE
8
BLACK
6
CONTINUOUS
10
127.76
20
-76.1212
11
127.76
21
-76.2788
0
LINE
8
BLACK
6
CONTINUOUS
10
127.76
20
-76.2788
11
127.729
21
-76.4334
0
LINE
8
BLACK
6
CONTINUOUS
10
127.729
20
-76.4334
11
127.669
21
-76.5789
0
LINE
8
BLACK
6
CONTINUOUS
10
127.669
20
-76.5789
11
127.581
21
-76.71
0
LINE
8
BLACK
6
CONTINUOUS
10
127.581
20
-76.71
11
127.47
21
-76.8214
0
LINE
8
BLACK
6
CONTINUOUS
10
127.47
20
-76.8214
11
127.36
21
-76.8949
0
LINE
8
BLACK
6
CONTINUOUS
10
127.36
20
-76.8949
11
127.36
21
-77.7543
0
LINE
8
BLACK
6
CONTINUOUS
10
127.36
20
-77.7543
11
129.811
21
-80.205
0
LINE
8
BLACK
6
CONTINUOUS
10
129.811
20
-80.205
11
130.445
21
-80.205
0
LINE
8
BLACK
6
CONTINUOUS
10
130.445
20
-80.205
11
130.445
21
-79.605
0
LINE
8
BLACK
6
CONTINUOUS
10
130.445
20
-79.605
11
132.445
21
-79.605
0
LINE
8
BLACK
6
CONTINUOUS
10
132.445
20
-79.605
11
132.445
21
-81.605
0
LINE
8
BLACK
6
CONTINUOUS
10
132.445
20
-81.605
11
130.445
21
-81.605
0
LINE
8
BLACK
6
CONTINUOUS
10
130.445
20
-81.605
11
130.445
21
-81.005
0
LINE
8
BLACK
6
CONTINUOUS
10
130.445
20
-81.005
11
129.665
21
-81.005
0
LINE
8
BLACK
6
CONTINUOUS
10
129.665
20
-81.005
11
129.645
21
-81.0069
0
LINE
8
BLACK
6
CONTINUOUS
10
129.645
20
-81.0069
11
129.625
21
-81.005
0
LINE
8
BLACK
6
CONTINUOUS
10
129.625
20
-81.005
11
123.805
21
-81.005
0
LINE
8
BLACK
6
CONTINUOUS
10
123.805
20
-81.005
11
123.785
21
-81.0069
0
LINE
8
BLACK
6
CONTINUOUS
10
120.288
20
-72.0602
11
120.288
21
-72.0602
0
LINE
8
BLACK
6
CONTINUOUS
10
120.288
20
-72.0602
11
120.288
21
-72.0602
0
LINE
8
BLACK
6
CONTINUOUS
10
120.288
20
-72.0602
11
120.288
21
-72.0589
0
LINE
8
BLACK
6
CONTINUOUS
10
120.288
20
-72.0589
11
120.289
21
-72.0472
0
LINE
8
BLACK
6
CONTINUOUS
10
120.289
20
-72.0472
11
120.291
21
-72.0356
0
LINE
8
BLACK
6
CONTINUOUS
10
120.291
20
-72.0356
11
120.291
21
-72.0349
0
LINE
8
BLACK
6
CONTINUOUS
10
120.291
20
-72.0349
11
120.291
21
-72.0343
0
LINE
8
BLACK
6
CONTINUOUS
10
120.291
20
-72.0343
11
120.294
21
-72.023
0
LINE
8
BLACK
6
CONTINUOUS
10
120.294
20
-72.023
11
120.298
21
-72.0118
0
LINE
8
BLACK
6
CONTINUOUS
10
120.298
20
-72.0118
11
120.298
21
-72.0113
0
LINE
8
BLACK
6
CONTINUOUS
10
120.298
20
-72.0113
11
120.298
21
-72.0106
0
LINE
8
BLACK
6
CONTINUOUS
10
120.298
20
-72.0106
11
120.304
21
-72.0003
0
LINE
8
BLACK
6
CONTINUOUS
10
120.304
20
-72.0003
11
120.309
21
-71.99
0
LINE
8
BLACK
6
CONTINUOUS
10
120.309
20
-71.99
11
120.31
21
-71.9895
0
LINE
8
BLACK
6
CONTINUOUS
10
120.31
20
-71.9895
11
120.31
21
-71.9889
0
LINE
8
BLACK
6
CONTINUOUS
10
120.31
20
-71.9889
11
120.318
21
-71.9799
0
LINE
8
BLACK
6
CONTINUOUS
10
120.318
20
-71.9799
11
120.325
21
-71.9709
0
LINE
8
BLACK
6
CONTINUOUS
10
120.325
20
-71.9709
11
120.366
21
-71.9296
0
LINE
8
BLACK
6
CONTINUOUS
10
120.366
20
-71.9296
11
120.505
21
-71.7216
0
LINE
8
BLACK
6
CONTINUOUS
10
120.505
20
-71.7216
11
120.53
21
-71.6615
0
LINE
8
BLACK
6
CONTINUOUS
10
120.53
20
-71.6615
11
120.531
21
-71.6598
0
LINE
8
BLACK
6
CONTINUOUS
10
120.531
20
-71.6598
11
120.532
21
-71.6574
0
LINE
8
BLACK
6
CONTINUOUS
10
120.532
20
-71.6574
11
120.533
21
-71.6548
0
LINE
8
BLACK
6
CONTINUOUS
10
120.533
20
-71.6548
11
120.538
21
-71.6466
0
LINE
8
BLACK
6
CONTINUOUS
10
120.538
20
-71.6466
11
120.543
21
-71.6381
0
LINE
8
BLACK
6
CONTINUOUS
10
120.543
20
-71.6381
11
120.545
21
-71.636
0
LINE
8
BLACK
6
CONTINUOUS
10
120.545
20
-71.636
11
120.546
21
-71.6337
0
LINE
8
BLACK
6
CONTINUOUS
10
120.546
20
-71.6337
11
120.553
21
-71.6265
0
LINE
8
BLACK
6
CONTINUOUS
10
120.553
20
-71.6265
11
120.559
21
-71.6192
0
LINE
8
BLACK
6
CONTINUOUS
10
120.559
20
-71.6192
11
120.561
21
-71.6174
0
LINE
8
BLACK
6
CONTINUOUS
10
120.561
20
-71.6174
11
120.563
21
-71.6154
0
LINE
8
BLACK
6
CONTINUOUS
10
120.563
20
-71.6154
11
120.571
21
-71.6097
0
LINE
8
BLACK
6
CONTINUOUS
10
120.571
20
-71.6097
11
120.578
21
-71.6037
0
LINE
8
BLACK
6
CONTINUOUS
10
120.578
20
-71.6037
11
120.581
21
-71.6024
0
LINE
8
BLACK
6
CONTINUOUS
10
120.581
20
-71.6024
11
120.583
21
-71.6008
0
LINE
8
BLACK
6
CONTINUOUS
10
120.583
20
-71.6008
11
120.592
21
-71.5967
0
LINE
8
BLACK
6
CONTINUOUS
10
120.592
20
-71.5967
11
120.6
21
-71.5922
0
LINE
8
BLACK
6
CONTINUOUS
10
120.6
20
-71.5922
11
120.603
21
-71.5914
0
LINE
8
BLACK
6
CONTINUOUS
10
120.603
20
-71.5914
11
120.605
21
-71.5903
0
LINE
8
BLACK
6
CONTINUOUS
10
120.605
20
-71.5903
11
120.615
21
-71.588
0
LINE
8
BLACK
6
CONTINUOUS
10
120.615
20
-71.588
11
120.624
21
-71.5853
0
LINE
8
BLACK
6
CONTINUOUS
10
120.624
20
-71.5853
11
120.627
21
-71.585
0
LINE
8
BLACK
6
CONTINUOUS
10
120.627
20
-71.585
11
120.63
21
-71.5844
0
LINE
8
BLACK
6
CONTINUOUS
10
120.63
20
-71.5844
11
120.639
21
-71.5839
0
LINE
8
BLACK
6
CONTINUOUS
10
120.639
20
-71.5839
11
120.649
21
-71.5831
0
LINE
8
BLACK
6
CONTINUOUS
10
120.649
20
-71.5831
11
120.652
21
-71.5834
0
LINE
8
BLACK
6
CONTINUOUS
10
120.652
20
-71.5834
11
120.654
21
-71.5832
0
LINE
8
BLACK
6
CONTINUOUS
10
120.654
20
-71.5832
11
120.664
21
-71.5847
0
LINE
8
BLACK
6
CONTINUOUS
10
120.664
20
-71.5847
11
120.673
21
-71.5857
0
LINE
8
BLACK
6
CONTINUOUS
10
120.673
20
-71.5857
11
120.676
21
-71.5865
0
LINE
8
BLACK
6
CONTINUOUS
10
120.676
20
-71.5865
11
120.679
21
-71.5869
0
LINE
8
BLACK
6
CONTINUOUS
10
120.679
20
-71.5869
11
120.688
21
-71.5902
0
LINE
8
BLACK
6
CONTINUOUS
10
120.688
20
-71.5902
11
120.697
21
-71.5931
0
LINE
8
BLACK
6
CONTINUOUS
10
120.697
20
-71.5931
11
120.7
21
-71.5944
0
LINE
8
BLACK
6
CONTINUOUS
10
120.7
20
-71.5944
11
120.702
21
-71.5953
0
LINE
8
BLACK
6
CONTINUOUS
10
120.702
20
-71.5953
11
120.71
21
-71.6003
0
LINE
8
BLACK
6
CONTINUOUS
10
120.71
20
-71.6003
11
120.719
21
-71.6049
0
LINE
8
BLACK
6
CONTINUOUS
10
120.719
20
-71.6049
11
120.721
21
-71.6067
0
LINE
8
BLACK
6
CONTINUOUS
10
120.721
20
-71.6067
11
120.723
21
-71.6081
0
LINE
8
BLACK
6
CONTINUOUS
10
120.723
20
-71.6081
11
120.731
21
-71.6146
0
LINE
8
BLACK
6
CONTINUOUS
10
120.731
20
-71.6146
11
120.738
21
-71.6207
0
LINE
8
BLACK
6
CONTINUOUS
10
120.738
20
-71.6207
11
120.74
21
-71.6229
0
LINE
8
BLACK
6
CONTINUOUS
10
120.74
20
-71.6229
11
120.742
21
-71.6247
0
LINE
8
BLACK
6
CONTINUOUS
10
120.742
20
-71.6247
11
120.748
21
-71.6325
0
LINE
8
BLACK
6
CONTINUOUS
10
120.748
20
-71.6325
11
120.754
21
-71.64
0
LINE
8
BLACK
6
CONTINUOUS
10
120.754
20
-71.64
11
120.755
21
-71.6424
0
LINE
8
BLACK
6
CONTINUOUS
10
120.755
20
-71.6424
11
120.757
21
-71.6446
0
LINE
8
BLACK
6
CONTINUOUS
10
120.757
20
-71.6446
11
120.761
21
-71.6533
0
LINE
8
BLACK
6
CONTINUOUS
10
120.761
20
-71.6533
11
120.765
21
-71.6619
0
LINE
8
BLACK
6
CONTINUOUS
10
120.765
20
-71.6619
11
120.766
21
-71.6645
0
LINE
8
BLACK
6
CONTINUOUS
10
120.766
20
-71.6645
11
120.767
21
-71.667
0
LINE
8
BLACK
6
CONTINUOUS
10
120.767
20
-71.667
11
120.769
21
-71.6713
0
LINE
8
BLACK
6
CONTINUOUS
10
120.769
20
-71.6713
11
120.801
21
-71.7312
0
LINE
8
BLACK
6
CONTINUOUS
10
120.801
20
-71.7312
11
120.917
21
-71.7637
0
LINE
8
BLACK
6
CONTINUOUS
10
120.917
20
-71.7637
11
121.232
21
-71.4492
0
LINE
8
BLACK
6
CONTINUOUS
10
121.232
20
-71.4492
11
121.187
21
-71.3423
0
LINE
8
BLACK
6
CONTINUOUS
10
121.187
20
-71.3423
11
121.158
21
-71.195
0
LINE
8
BLACK
6
CONTINUOUS
10
121.158
20
-71.195
11
121.158
21
-71.045
0
LINE
8
BLACK
6
CONTINUOUS
10
121.158
20
-71.045
11
121.187
21
-70.8977
0
LINE
8
BLACK
6
CONTINUOUS
10
121.187
20
-70.8977
11
121.232
21
-70.7908
0
LINE
8
BLACK
6
CONTINUOUS
10
121.232
20
-70.7908
11
120.917
21
-70.4763
0
LINE
8
BLACK
6
CONTINUOUS
10
120.917
20
-70.4763
11
120.805
21
-70.5077
0
LINE
8
BLACK
6
CONTINUOUS
10
120.805
20
-70.5077
11
120.765
21
-70.5908
0
LINE
8
BLACK
6
CONTINUOUS
10
120.765
20
-70.5908
11
120.765
21
-70.5924
0
LINE
8
BLACK
6
CONTINUOUS
10
120.765
20
-70.5924
11
120.76
21
-70.6003
0
LINE
8
BLACK
6
CONTINUOUS
10
120.76
20
-70.6003
11
120.755
21
-70.6083
0
LINE
8
BLACK
6
CONTINUOUS
10
120.755
20
-70.6083
11
120.753
21
-70.6108
0
LINE
8
BLACK
6
CONTINUOUS
10
120.753
20
-70.6108
11
120.752
21
-70.6135
0
LINE
8
BLACK
6
CONTINUOUS
10
120.752
20
-70.6135
11
120.745
21
-70.6203
0
LINE
8
BLACK
6
CONTINUOUS
10
120.745
20
-70.6203
11
120.74
21
-70.6273
0
LINE
8
BLACK
6
CONTINUOUS
10
120.74
20
-70.6273
11
120.737
21
-70.6294
0
LINE
8
BLACK
6
CONTINUOUS
10
120.737
20
-70.6294
11
120.735
21
-70.6317
0
LINE
8
BLACK
6
CONTINUOUS
10
120.735
20
-70.6317
11
120.727
21
-70.6371
0
LINE
8
BLACK
6
CONTINUOUS
10
120.727
20
-70.6371
11
120.72
21
-70.6429
0
LINE
8
BLACK
6
CONTINUOUS
10
120.72
20
-70.6429
11
120.717
21
-70.6444
0
LINE
8
BLACK
6
CONTINUOUS
10
120.717
20
-70.6444
11
120.715
21
-70.6463
0
LINE
8
BLACK
6
CONTINUOUS
10
120.715
20
-70.6463
11
120.706
21
-70.6501
0
LINE
8
BLACK
6
CONTINUOUS
10
120.706
20
-70.6501
11
120.698
21
-70.6544
0
LINE
8
BLACK
6
CONTINUOUS
10
120.698
20
-70.6544
11
120.695
21
-70.6553
0
LINE
8
BLACK
6
CONTINUOUS
10
120.695
20
-70.6553
11
120.692
21
-70.6567
0
LINE
8
BLACK
6
CONTINUOUS
10
120.692
20
-70.6567
11
120.683
21
-70.6589
0
LINE
8
BLACK
6
CONTINUOUS
10
120.683
20
-70.6589
11
120.675
21
-70.6615
0
LINE
8
BLACK
6
CONTINUOUS
10
120.675
20
-70.6615
11
120.671
21
-70.6618
0
LINE
8
BLACK
6
CONTINUOUS
10
120.671
20
-70.6618
11
120.668
21
-70.6625
0
LINE
8
BLACK
6
CONTINUOUS
10
120.668
20
-70.6625
11
120.659
21
-70.6629
0
LINE
8
BLACK
6
CONTINUOUS
10
120.659
20
-70.6629
11
120.65
21
-70.6638
0
LINE
8
BLACK
6
CONTINUOUS
10
120.65
20
-70.6638
11
120.647
21
-70.6634
0
LINE
8
BLACK
6
CONTINUOUS
10
120.647
20
-70.6634
11
120.643
21
-70.6636
0
LINE
8
BLACK
6
CONTINUOUS
10
120.643
20
-70.6636
11
120.634
21
-70.6622
0
LINE
8
BLACK
6
CONTINUOUS
10
120.634
20
-70.6622
11
120.625
21
-70.6612
0
LINE
8
BLACK
6
CONTINUOUS
10
120.625
20
-70.6612
11
120.622
21
-70.6603
0
LINE
8
BLACK
6
CONTINUOUS
10
120.622
20
-70.6603
11
120.619
21
-70.6598
0
LINE
8
BLACK
6
CONTINUOUS
10
120.619
20
-70.6598
11
120.61
21
-70.6566
0
LINE
8
BLACK
6
CONTINUOUS
10
120.61
20
-70.6566
11
120.602
21
-70.6539
0
LINE
8
BLACK
6
CONTINUOUS
10
120.602
20
-70.6539
11
120.599
21
-70.6524
0
LINE
8
BLACK
6
CONTINUOUS
10
120.599
20
-70.6524
11
120.596
21
-70.6513
0
LINE
8
BLACK
6
CONTINUOUS
10
120.596
20
-70.6513
11
120.588
21
-70.6465
0
LINE
8
BLACK
6
CONTINUOUS
10
120.588
20
-70.6465
11
120.58
21
-70.6422
0
LINE
8
BLACK
6
CONTINUOUS
10
120.58
20
-70.6422
11
120.577
21
-70.6401
0
LINE
8
BLACK
6
CONTINUOUS
10
120.577
20
-70.6401
11
120.574
21
-70.6385
0
LINE
8
BLACK
6
CONTINUOUS
10
120.574
20
-70.6385
11
120.568
21
-70.6323
0
LINE
8
BLACK
6
CONTINUOUS
10
120.568
20
-70.6323
11
120.561
21
-70.6264
0
LINE
8
BLACK
6
CONTINUOUS
10
120.561
20
-70.6264
11
120.559
21
-70.6239
0
LINE
8
BLACK
6
CONTINUOUS
10
120.559
20
-70.6239
11
120.556
21
-70.6218
0
LINE
8
BLACK
6
CONTINUOUS
10
120.556
20
-70.6218
11
120.551
21
-70.6143
0
LINE
8
BLACK
6
CONTINUOUS
10
120.551
20
-70.6143
11
120.545
21
-70.6072
0
LINE
8
BLACK
6
CONTINUOUS
10
120.545
20
-70.6072
11
120.543
21
-70.6044
0
LINE
8
BLACK
6
CONTINUOUS
10
120.543
20
-70.6044
11
120.541
21
-70.6018
0
LINE
8
BLACK
6
CONTINUOUS
10
120.541
20
-70.6018
11
120.538
21
-70.5935
0
LINE
8
BLACK
6
CONTINUOUS
10
120.538
20
-70.5935
11
120.533
21
-70.5854
0
LINE
8
BLACK
6
CONTINUOUS
10
120.533
20
-70.5854
11
120.505
21
-70.5184
0
LINE
8
BLACK
6
CONTINUOUS
10
120.505
20
-70.5184
11
120.366
21
-70.3104
0
LINE
8
BLACK
6
CONTINUOUS
10
120.366
20
-70.3104
11
120.19
21
-70.1335
0
LINE
8
BLACK
6
CONTINUOUS
10
120.19
20
-70.1335
11
119.982
21
-69.9945
0
LINE
8
BLACK
6
CONTINUOUS
10
119.982
20
-69.9945
11
119.916
21
-69.9673
0
LINE
8
BLACK
6
CONTINUOUS
10
119.916
20
-69.9673
11
119.915
21
-69.9668
0
LINE
8
BLACK
6
CONTINUOUS
10
119.915
20
-69.9668
11
119.915
21
-69.9668
0
LINE
8
BLACK
6
CONTINUOUS
10
119.915
20
-69.9668
11
119.915
21
-69.9668
0
LINE
8
BLACK
6
CONTINUOUS
10
119.915
20
-69.9668
11
119.914
21
-69.9666
0
LINE
8
BLACK
6
CONTINUOUS
10
119.914
20
-69.9666
11
119.903
21
-69.9607
0
LINE
8
BLACK
6
CONTINUOUS
10
119.903
20
-69.9607
11
119.893
21
-69.9549
0
LINE
8
BLACK
6
CONTINUOUS
10
119.893
20
-69.9549
11
119.893
21
-69.9548
0
LINE
8
BLACK
6
CONTINUOUS
10
119.893
20
-69.9548
11
119.893
21
-69.9547
0
LINE
8
BLACK
6
CONTINUOUS
10
119.893
20
-69.9547
11
119.883
21
-69.9468
0
LINE
8
BLACK
6
CONTINUOUS
10
119.883
20
-69.9468
11
119.874
21
-69.939
0
LINE
8
BLACK
6
CONTINUOUS
10
119.874
20
-69.939
11
119.874
21
-69.9388
0
LINE
8
BLACK
6
CONTINUOUS
10
119.874
20
-69.9388
11
119.874
21
-69.9387
0
LINE
8
BLACK
6
CONTINUOUS
10
119.874
20
-69.9387
11
119.866
21
-69.9291
0
LINE
8
BLACK
6
CONTINUOUS
10
119.866
20
-69.9291
11
119.858
21
-69.9197
0
LINE
8
BLACK
6
CONTINUOUS
10
119.858
20
-69.9197
11
119.858
21
-69.9195
0
LINE
8
BLACK
6
CONTINUOUS
10
119.858
20
-69.9195
11
119.858
21
-69.9194
0
LINE
8
BLACK
6
CONTINUOUS
10
119.858
20
-69.9194
11
119.852
21
-69.9085
0
LINE
8
BLACK
6
CONTINUOUS
10
119.852
20
-69.9085
11
119.847
21
-69.8978
0
LINE
8
BLACK
6
CONTINUOUS
10
119.847
20
-69.8978
11
119.847
21
-69.8976
0
LINE
8
BLACK
6
CONTINUOUS
10
119.847
20
-69.8976
11
119.847
21
-69.8974
0
LINE
8
BLACK
6
CONTINUOUS
10
119.847
20
-69.8974
11
119.843
21
-69.8857
0
LINE
8
BLACK
6
CONTINUOUS
10
119.843
20
-69.8857
11
119.84
21
-69.874
0
LINE
8
BLACK
6
CONTINUOUS
10
119.84
20
-69.874
11
119.84
21
-69.8738
0
LINE
8
BLACK
6
CONTINUOUS
10
119.84
20
-69.8738
11
119.84
21
-69.8736
0
LINE
8
BLACK
6
CONTINUOUS
10
119.84
20
-69.8736
11
119.839
21
-69.8615
0
LINE
8
BLACK
6
CONTINUOUS
10
119.839
20
-69.8615
11
119.837
21
-69.8493
0
LINE
8
BLACK
6
CONTINUOUS
10
119.837
20
-69.8493
11
119.838
21
-69.8491
0
LINE
8
BLACK
6
CONTINUOUS
10
119.838
20
-69.8491
11
119.837
21
-69.8489
0
LINE
8
BLACK
6
CONTINUOUS
10
119.837
20
-69.8489
11
119.839
21
-69.8368
0
LINE
8
BLACK
6
CONTINUOUS
10
119.839
20
-69.8368
11
119.84
21
-69.8247
0
LINE
8
BLACK
6
CONTINUOUS
10
119.84
20
-69.8247
11
119.84
21
-69.8245
0
LINE
8
BLACK
6
CONTINUOUS
10
119.84
20
-69.8245
11
119.84
21
-69.8242
0
LINE
8
BLACK
6
CONTINUOUS
10
119.84
20
-69.8242
11
119.844
21
-69.8126
0
LINE
8
BLACK
6
CONTINUOUS
10
119.844
20
-69.8126
11
119.847
21
-69.801
0
LINE
8
BLACK
6
CONTINUOUS
10
119.847
20
-69.801
11
119.847
21
-69.8008
0
LINE
8
BLACK
6
CONTINUOUS
10
119.847
20
-69.8008
11
119.847
21
-69.8006
0
LINE
8
BLACK
6
CONTINUOUS
10
119.847
20
-69.8006
11
119.853
21
-69.7898
0
LINE
8
BLACK
6
CONTINUOUS
10
119.853
20
-69.7898
11
119.859
21
-69.7792
0
LINE
8
BLACK
6
CONTINUOUS
10
119.859
20
-69.7792
11
119.859
21
-69.779
0
LINE
8
BLACK
6
CONTINUOUS
10
119.859
20
-69.779
11
119.859
21
-69.7788
0
LINE
8
BLACK
6
CONTINUOUS
10
119.859
20
-69.7788
11
119.867
21
-69.7694
0
LINE
8
BLACK
6
CONTINUOUS
10
119.867
20
-69.7694
11
119.875
21
-69.76
0
LINE
8
BLACK
6
CONTINUOUS
10
119.875
20
-69.76
11
119.875
21
-69.7599
0
LINE
8
BLACK
6
CONTINUOUS
10
119.875
20
-69.7599
11
119.875
21
-69.7597
0
LINE
8
BLACK
6
CONTINUOUS
10
119.875
20
-69.7597
11
119.885
21
-69.7521
0
LINE
8
BLACK
6
CONTINUOUS
10
119.885
20
-69.7521
11
119.894
21
-69.7443
0
LINE
8
BLACK
6
CONTINUOUS
10
119.894
20
-69.7443
11
119.894
21
-69.7442
0
LINE
8
BLACK
6
CONTINUOUS
10
119.894
20
-69.7442
11
119.894
21
-69.7441
0
LINE
8
BLACK
6
CONTINUOUS
10
119.894
20
-69.7441
11
119.905
21
-69.7384
0
LINE
8
BLACK
6
CONTINUOUS
10
119.905
20
-69.7384
11
119.916
21
-69.7327
0
LINE
8
BLACK
6
CONTINUOUS
10
119.916
20
-69.7327
11
119.982
21
-69.7055
0
LINE
8
BLACK
6
CONTINUOUS
10
119.982
20
-69.7055
11
120.19
21
-69.5665
0
LINE
8
BLACK
6
CONTINUOUS
10
120.19
20
-69.5665
11
120.366
21
-69.3896
0
LINE
8
BLACK
6
CONTINUOUS
10
120.366
20
-69.3896
11
120.505
21
-69.1816
0
LINE
8
BLACK
6
CONTINUOUS
10
120.505
20
-69.1816
11
120.533
21
-69.1159
0
LINE
8
BLACK
6
CONTINUOUS
10
120.533
20
-69.1159
11
120.533
21
-69.1147
0
LINE
8
BLACK
6
CONTINUOUS
10
120.533
20
-69.1147
11
120.533
21
-69.1147
0
LINE
8
BLACK
6
CONTINUOUS
10
120.533
20
-69.1147
11
120.533
21
-69.1146
0
LINE
8
BLACK
6
CONTINUOUS
10
120.533
20
-69.1146
11
120.533
21
-69.1143
0
LINE
8
BLACK
6
CONTINUOUS
10
120.533
20
-69.1143
11
120.539
21
-69.1035
0
LINE
8
BLACK
6
CONTINUOUS
10
120.539
20
-69.1035
11
120.545
21
-69.0929
0
LINE
8
BLACK
6
CONTINUOUS
10
120.545
20
-69.0929
11
120.545
21
-69.0927
0
LINE
8
BLACK
6
CONTINUOUS
10
120.545
20
-69.0927
11
120.545
21
-69.0926
0
LINE
8
BLACK
6
CONTINUOUS
10
120.545
20
-69.0926
11
120.553
21
-69.0832
0
LINE
8
BLACK
6
CONTINUOUS
10
120.553
20
-69.0832
11
120.561
21
-69.0739
0
LINE
8
BLACK
6
CONTINUOUS
10
120.561
20
-69.0739
11
120.561
21
-69.0738
0
LINE
8
BLACK
6
CONTINUOUS
10
120.561
20
-69.0738
11
120.561
21
-69.0736
0
LINE
8
BLACK
6
CONTINUOUS
10
120.561
20
-69.0736
11
120.571
21
-69.066
0
LINE
8
BLACK
6
CONTINUOUS
10
120.571
20
-69.066
11
120.58
21
-69.0583
0
LINE
8
BLACK
6
CONTINUOUS
10
120.58
20
-69.0583
11
120.58
21
-69.0582
0
LINE
8
BLACK
6
CONTINUOUS
10
120.58
20
-69.0582
11
120.581
21
-69.0581
0
LINE
8
BLACK
6
CONTINUOUS
10
120.581
20
-69.0581
11
120.591
21
-69.0525
0
LINE
8
BLACK
6
CONTINUOUS
10
120.591
20
-69.0525
11
120.602
21
-69.0468
0
LINE
8
BLACK
6
CONTINUOUS
10
120.602
20
-69.0468
11
120.602
21
-69.0468
0
LINE
8
BLACK
6
CONTINUOUS
10
120.602
20
-69.0468
11
120.603
21
-69.0466
0
LINE
8
BLACK
6
CONTINUOUS
10
120.603
20
-69.0466
11
120.614
21
-69.0432
0
LINE
8
BLACK
6
CONTINUOUS
10
120.614
20
-69.0432
11
120.626
21
-69.0398
0
LINE
8
BLACK
6
CONTINUOUS
10
120.626
20
-69.0398
11
120.626
21
-69.0398
0
LINE
8
BLACK
6
CONTINUOUS
10
120.626
20
-69.0398
11
120.626
21
-69.0397
0
LINE
8
BLACK
6
CONTINUOUS
10
120.626
20
-69.0397
11
120.639
21
-69.0386
0
LINE
8
BLACK
6
CONTINUOUS
10
120.639
20
-69.0386
11
120.651
21
-69.0375
0
LINE
8
BLACK
6
CONTINUOUS
10
120.651
20
-69.0375
11
120.651
21
-69.0375
0
LINE
8
BLACK
6
CONTINUOUS
10
120.651
20
-69.0375
11
120.651
21
-69.0375
0
LINE
8
BLACK
6
CONTINUOUS
10
120.651
20
-69.0375
11
120.663
21
-69.0388
0
LINE
8
BLACK
6
CONTINUOUS
10
120.663
20
-69.0388
11
120.675
21
-69.04
0
LINE
8
BLACK
6
CONTINUOUS
10
120.675
20
-69.04
11
120.676
21
-69.0401
0
LINE
8
BLACK
6
CONTINUOUS
10
120.676
20
-69.0401
11
120.676
21
-69.0401
0
LINE
8
BLACK
6
CONTINUOUS
10
120.676
20
-69.0401
11
120.687
21
-69.0437
0
LINE
8
BLACK
6
CONTINUOUS
10
120.687
20
-69.0437
11
120.699
21
-69.0473
0
LINE
8
BLACK
6
CONTINUOUS
10
120.699
20
-69.0473
11
120.699
21
-69.0474
0
LINE
8
BLACK
6
CONTINUOUS
10
120.699
20
-69.0474
11
120.699
21
-69.0475
0
LINE
8
BLACK
6
CONTINUOUS
10
120.699
20
-69.0475
11
120.71
21
-69.0532
0
LINE
8
BLACK
6
CONTINUOUS
10
120.71
20
-69.0532
11
120.721
21
-69.0591
0
LINE
8
BLACK
6
CONTINUOUS
10
120.721
20
-69.0591
11
120.721
21
-69.0592
0
LINE
8
BLACK
6
CONTINUOUS
10
120.721
20
-69.0592
11
120.721
21
-69.0593
0
LINE
8
BLACK
6
CONTINUOUS
10
120.721
20
-69.0593
11
120.73
21
-69.067
0
LINE
8
BLACK
6
CONTINUOUS
10
120.73
20
-69.067
11
120.74
21
-69.0748
0
LINE
8
BLACK
6
CONTINUOUS
10
120.74
20
-69.0748
11
120.74
21
-69.075
0
LINE
8
BLACK
6
CONTINUOUS
10
120.74
20
-69.075
11
120.74
21
-69.0752
0
LINE
8
BLACK
6
CONTINUOUS
10
120.74
20
-69.0752
11
120.748
21
-69.0845
0
LINE
8
BLACK
6
CONTINUOUS
10
120.748
20
-69.0845
11
120.756
21
-69.094
0
LINE
8
BLACK
6
CONTINUOUS
10
120.756
20
-69.094
11
120.756
21
-69.0942
0
LINE
8
BLACK
6
CONTINUOUS
10
120.756
20
-69.0942
11
120.756
21
-69.0944
0
LINE
8
BLACK
6
CONTINUOUS
10
120.756
20
-69.0944
11
120.761
21
-69.105
0
LINE
8
BLACK
6
CONTINUOUS
10
120.761
20
-69.105
11
120.767
21
-69.1159
0
LINE
8
BLACK
6
CONTINUOUS
10
120.767
20
-69.1159
11
120.795
21
-69.1816
0
LINE
8
BLACK
6
CONTINUOUS
10
120.795
20
-69.1816
11
120.934
21
-69.3896
0
LINE
8
BLACK
6
CONTINUOUS
10
120.934
20
-69.3896
11
121.11
21
-69.5665
0
LINE
8
BLACK
6
CONTINUOUS
10
121.11
20
-69.5665
11
121.318
21
-69.7055
0
LINE
8
BLACK
6
CONTINUOUS
10
121.318
20
-69.7055
11
121.379
21
-69.7304
0
LINE
8
BLACK
6
CONTINUOUS
10
121.379
20
-69.7304
11
121.38
21
-69.731
0
LINE
8
BLACK
6
CONTINUOUS
10
121.38
20
-69.731
11
121.383
21
-69.7324
0
LINE
8
BLACK
6
CONTINUOUS
10
121.383
20
-69.7324
11
121.385
21
-69.7333
0
LINE
8
BLACK
6
CONTINUOUS
10
121.385
20
-69.7333
11
121.393
21
-69.7384
0
LINE
8
BLACK
6
CONTINUOUS
10
121.393
20
-69.7384
11
121.402
21
-69.743
0
LINE
8
BLACK
6
CONTINUOUS
10
121.402
20
-69.743
11
121.404
21
-69.7448
0
LINE
8
BLACK
6
CONTINUOUS
10
121.404
20
-69.7448
11
121.406
21
-69.7462
0
LINE
8
BLACK
6
CONTINUOUS
10
121.406
20
-69.7462
11
121.413
21
-69.7528
0
LINE
8
BLACK
6
CONTINUOUS
10
121.413
20
-69.7528
11
121.421
21
-69.759
0
LINE
8
BLACK
6
CONTINUOUS
10
121.421
20
-69.759
11
121.423
21
-69.7611
0
LINE
8
BLACK
6
CONTINUOUS
10
121.423
20
-69.7611
11
121.425
21
-69.763
0
LINE
8
BLACK
6
CONTINUOUS
10
121.425
20
-69.763
11
121.43
21
-69.7708
0
LINE
8
BLACK
6
CONTINUOUS
10
121.43
20
-69.7708
11
121.436
21
-69.7783
0
LINE
8
BLACK
6
CONTINUOUS
10
121.436
20
-69.7783
11
121.438
21
-69.7808
0
LINE
8
BLACK
6
CONTINUOUS
10
121.438
20
-69.7808
11
121.439
21
-69.783
0
LINE
8
BLACK
6
CONTINUOUS
10
121.439
20
-69.783
11
121.443
21
-69.7918
0
LINE
8
BLACK
6
CONTINUOUS
10
121.443
20
-69.7918
11
121.448
21
-69.8003
0
LINE
8
BLACK
6
CONTINUOUS
10
121.448
20
-69.8003
11
121.449
21
-69.803
0
LINE
8
BLACK
6
CONTINUOUS
10
121.449
20
-69.803
11
121.45
21
-69.8055
0
LINE
8
BLACK
6
CONTINUOUS
10
121.45
20
-69.8055
11
121.452
21
-69.8148
0
LINE
8
BLACK
6
CONTINUOUS
10
121.452
20
-69.8148
11
121.455
21
-69.8241
0
LINE
8
BLACK
6
CONTINUOUS
10
121.455
20
-69.8241
11
121.455
21
-69.8269
0
LINE
8
BLACK
6
CONTINUOUS
10
121.455
20
-69.8269
11
121.456
21
-69.8295
0
LINE
8
BLACK
6
CONTINUOUS
10
121.456
20
-69.8295
11
121.456
21
-69.8392
0
LINE
8
BLACK
6
CONTINUOUS
10
121.456
20
-69.8392
11
121.457
21
-69.8488
0
LINE
8
BLACK
6
CONTINUOUS
10
121.457
20
-69.8488
11
121.457
21
-69.8515
0
LINE
8
BLACK
6
CONTINUOUS
10
121.457
20
-69.8515
11
121.457
21
-69.8543
0
LINE
8
BLACK
6
CONTINUOUS
10
121.457
20
-69.8543
11
121.455
21
-69.8639
0
LINE
8
BLACK
6
CONTINUOUS
10
121.455
20
-69.8639
11
121.454
21
-69.8734
0
LINE
8
BLACK
6
CONTINUOUS
10
121.454
20
-69.8734
11
121.453
21
-69.8761
0
LINE
8
BLACK
6
CONTINUOUS
10
121.453
20
-69.8761
11
121.453
21
-69.8788
0
LINE
8
BLACK
6
CONTINUOUS
10
121.453
20
-69.8788
11
121.45
21
-69.8879
0
LINE
8
BLACK
6
CONTINUOUS
10
121.45
20
-69.8879
11
121.447
21
-69.8971
0
LINE
8
BLACK
6
CONTINUOUS
10
121.447
20
-69.8971
11
121.446
21
-69.8995
0
LINE
8
BLACK
6
CONTINUOUS
10
121.446
20
-69.8995
11
121.445
21
-69.9021
0
LINE
8
BLACK
6
CONTINUOUS
10
121.445
20
-69.9021
11
121.44
21
-69.9104
0
LINE
8
BLACK
6
CONTINUOUS
10
121.44
20
-69.9104
11
121.435
21
-69.9189
0
LINE
8
BLACK
6
CONTINUOUS
10
121.435
20
-69.9189
11
121.433
21
-69.921
0
LINE
8
BLACK
6
CONTINUOUS
10
121.433
20
-69.921
11
121.432
21
-69.9234
0
LINE
8
BLACK
6
CONTINUOUS
10
121.432
20
-69.9234
11
121.425
21
-69.9305
0
LINE
8
BLACK
6
CONTINUOUS
10
121.425
20
-69.9305
11
121.419
21
-69.938
0
LINE
8
BLACK
6
CONTINUOUS
10
121.419
20
-69.938
11
121.417
21
-69.9397
0
LINE
8
BLACK
6
CONTINUOUS
10
121.417
20
-69.9397
11
121.415
21
-69.9418
0
LINE
8
BLACK
6
CONTINUOUS
10
121.415
20
-69.9418
11
121.408
21
-69.9475
0
LINE
8
BLACK
6
CONTINUOUS
10
121.408
20
-69.9475
11
121.4
21
-69.9536
0
LINE
8
BLACK
6
CONTINUOUS
10
121.4
20
-69.9536
11
121.398
21
-69.9549
0
LINE
8
BLACK
6
CONTINUOUS
10
121.398
20
-69.9549
11
121.395
21
-69.9565
0
LINE
8
BLACK
6
CONTINUOUS
10
121.395
20
-69.9565
11
121.387
21
-69.9607
0
LINE
8
BLACK
6
CONTINUOUS
10
121.387
20
-69.9607
11
121.378
21
-69.9652
0
LINE
8
BLACK
6
CONTINUOUS
10
121.378
20
-69.9652
11
121.375
21
-69.966
0
LINE
8
BLACK
6
CONTINUOUS
10
121.375
20
-69.966
11
121.373
21
-69.9672
0
LINE
8
BLACK
6
CONTINUOUS
10
121.373
20
-69.9672
11
121.369
21
-69.9687
0
LINE
8
BLACK
6
CONTINUOUS
10
121.369
20
-69.9687
11
121.309
21
-70.0008
0
LINE
8
BLACK
6
CONTINUOUS
10
121.309
20
-70.0008
11
121.276
21
-70.1171
0
LINE
8
BLACK
6
CONTINUOUS
10
121.276
20
-70.1171
11
121.591
21
-70.4316
0
LINE
8
BLACK
6
CONTINUOUS
10
121.591
20
-70.4316
11
121.698
21
-70.3873
0
LINE
8
BLACK
6
CONTINUOUS
10
121.698
20
-70.3873
11
121.845
21
-70.358
0
LINE
8
BLACK
6
CONTINUOUS
10
121.845
20
-70.358
11
121.995
21
-70.358
0
LINE
8
BLACK
6
CONTINUOUS
10
121.995
20
-70.358
11
122.142
21
-70.3873
0
LINE
8
BLACK
6
CONTINUOUS
10
122.142
20
-70.3873
11
122.249
21
-70.4316
0
LINE
8
BLACK
6
CONTINUOUS
10
122.249
20
-70.4316
11
122.564
21
-70.1171
0
LINE
8
BLACK
6
CONTINUOUS
10
122.564
20
-70.1171
11
122.532
21
-70.0045
0
LINE
8
BLACK
6
CONTINUOUS
10
122.532
20
-70.0045
11
122.449
21
-69.9654
0
LINE
8
BLACK
6
CONTINUOUS
10
122.449
20
-69.9654
11
122.448
21
-69.9647
0
LINE
8
BLACK
6
CONTINUOUS
10
122.448
20
-69.9647
11
122.44
21
-69.9599
0
LINE
8
BLACK
6
CONTINUOUS
10
122.44
20
-69.9599
11
122.432
21
-69.9554
0
LINE
8
BLACK
6
CONTINUOUS
10
122.432
20
-69.9554
11
122.429
21
-69.9534
0
LINE
8
BLACK
6
CONTINUOUS
10
122.429
20
-69.9534
11
122.426
21
-69.9517
0
LINE
8
BLACK
6
CONTINUOUS
10
122.426
20
-69.9517
11
122.42
21
-69.9454
0
LINE
8
BLACK
6
CONTINUOUS
10
122.42
20
-69.9454
11
122.413
21
-69.9395
0
LINE
8
BLACK
6
CONTINUOUS
10
122.413
20
-69.9395
11
122.411
21
-69.937
0
LINE
8
BLACK
6
CONTINUOUS
10
122.411
20
-69.937
11
122.408
21
-69.9349
0
LINE
8
BLACK
6
CONTINUOUS
10
122.408
20
-69.9349
11
122.403
21
-69.9274
0
LINE
8
BLACK
6
CONTINUOUS
10
122.403
20
-69.9274
11
122.397
21
-69.9202
0
LINE
8
BLACK
6
CONTINUOUS
10
122.397
20
-69.9202
11
122.396
21
-69.9174
0
LINE
8
BLACK
6
CONTINUOUS
10
122.396
20
-69.9174
11
122.394
21
-69.9148
0
LINE
8
BLACK
6
CONTINUOUS
10
122.394
20
-69.9148
11
122.39
21
-69.9065
0
LINE
8
BLACK
6
CONTINUOUS
10
122.39
20
-69.9065
11
122.386
21
-69.8983
0
LINE
8
BLACK
6
CONTINUOUS
10
122.386
20
-69.8983
11
122.385
21
-69.8952
0
LINE
8
BLACK
6
CONTINUOUS
10
122.385
20
-69.8952
11
122.383
21
-69.8923
0
LINE
8
BLACK
6
CONTINUOUS
10
122.383
20
-69.8923
11
122.381
21
-69.8834
0
LINE
8
BLACK
6
CONTINUOUS
10
122.381
20
-69.8834
11
122.379
21
-69.8745
0
LINE
8
BLACK
6
CONTINUOUS
10
122.379
20
-69.8745
11
122.378
21
-69.8713
0
LINE
8
BLACK
6
CONTINUOUS
10
122.378
20
-69.8713
11
122.377
21
-69.8682
0
LINE
8
BLACK
6
CONTINUOUS
10
122.377
20
-69.8682
11
122.377
21
-69.859
0
LINE
8
BLACK
6
CONTINUOUS
10
122.377
20
-69.859
11
122.376
21
-69.8499
0
LINE
8
BLACK
6
CONTINUOUS
10
122.376
20
-69.8499
11
122.377
21
-69.8467
0
LINE
8
BLACK
6
CONTINUOUS
10
122.377
20
-69.8467
11
122.376
21
-69.8435
0
LINE
8
BLACK
6
CONTINUOUS
10
122.376
20
-69.8435
11
122.378
21
-69.8344
0
LINE
8
BLACK
6
CONTINUOUS
10
122.378
20
-69.8344
11
122.379
21
-69.8252
0
LINE
8
BLACK
6
CONTINUOUS
10
122.379
20
-69.8252
11
122.38
21
-69.8221
0
LINE
8
BLACK
6
CONTINUOUS
10
122.38
20
-69.8221
11
122.38
21
-69.819
0
LINE
8
BLACK
6
CONTINUOUS
10
122.38
20
-69.819
11
122.383
21
-69.8103
0
LINE
8
BLACK
6
CONTINUOUS
10
122.383
20
-69.8103
11
122.386
21
-69.8015
0
LINE
8
BLACK
6
CONTINUOUS
10
122.386
20
-69.8015
11
122.388
21
-69.7987
0
LINE
8
BLACK
6
CONTINUOUS
10
122.388
20
-69.7987
11
122.389
21
-69.7957
0
LINE
8
BLACK
6
CONTINUOUS
10
122.389
20
-69.7957
11
122.393
21
-69.7878
0
LINE
8
BLACK
6
CONTINUOUS
10
122.393
20
-69.7878
11
122.398
21
-69.7797
0
LINE
8
BLACK
6
CONTINUOUS
10
122.398
20
-69.7797
11
122.4
21
-69.7772
0
LINE
8
BLACK
6
CONTINUOUS
10
122.4
20
-69.7772
11
122.402
21
-69.7745
0
LINE
8
BLACK
6
CONTINUOUS
10
122.402
20
-69.7745
11
122.408
21
-69.7677
0
LINE
8
BLACK
6
CONTINUOUS
10
122.408
20
-69.7677
11
122.414
21
-69.7606
0
LINE
8
BLACK
6
CONTINUOUS
10
122.414
20
-69.7606
11
122.416
21
-69.7585
0
LINE
8
BLACK
6
CONTINUOUS
10
122.416
20
-69.7585
11
122.418
21
-69.7562
0
LINE
8
BLACK
6
CONTINUOUS
10
122.418
20
-69.7562
11
122.426
21
-69.7507
0
LINE
8
BLACK
6
CONTINUOUS
10
122.426
20
-69.7507
11
122.433
21
-69.7449
0
LINE
8
BLACK
6
CONTINUOUS
10
122.433
20
-69.7449
11
122.436
21
-69.7433
0
LINE
8
BLACK
6
CONTINUOUS
10
122.436
20
-69.7433
11
122.438
21
-69.7414
0
LINE
8
BLACK
6
CONTINUOUS
10
122.438
20
-69.7414
11
122.447
21
-69.7375
0
LINE
8
BLACK
6
CONTINUOUS
10
122.447
20
-69.7375
11
122.455
21
-69.7332
0
LINE
8
BLACK
6
CONTINUOUS
10
122.455
20
-69.7332
11
122.522
21
-69.7055
0
LINE
8
BLACK
6
CONTINUOUS
10
122.522
20
-69.7055
11
122.73
21
-69.5665
0
LINE
8
BLACK
6
CONTINUOUS
10
122.73
20
-69.5665
11
122.771
21
-69.5252
0
LINE
8
BLACK
6
CONTINUOUS
10
122.771
20
-69.5252
11
122.771
21
-69.5249
0
LINE
8
BLACK
6
CONTINUOUS
10
122.771
20
-69.5249
11
122.771
21
-69.5249
0
LINE
8
BLACK
6
CONTINUOUS
10
122.771
20
-69.5249
11
122.771
21
-69.5249
0
LINE
8
BLACK
6
CONTINUOUS
10
122.771
20
-69.5249
11
122.772
21
-69.524
0
LINE
8
BLACK
6
CONTINUOUS
10
122.772
20
-69.524
11
122.781
21
-69.5166
0
LINE
8
BLACK
6
CONTINUOUS
10
122.781
20
-69.5166
11
122.79
21
-69.5092
0
LINE
8
BLACK
6
CONTINUOUS
10
122.79
20
-69.5092
11
122.791
21
-69.5089
0
LINE
8
BLACK
6
CONTINUOUS
10
122.791
20
-69.5089
11
122.791
21
-69.5085
0
LINE
8
BLACK
6
CONTINUOUS
10
122.791
20
-69.5085
11
122.802
21
-69.5031
0
LINE
8
BLACK
6
CONTINUOUS
10
122.802
20
-69.5031
11
122.812
21
-69.4976
0
LINE
8
BLACK
6
CONTINUOUS
10
122.812
20
-69.4976
11
122.813
21
-69.4974
0
LINE
8
BLACK
6
CONTINUOUS
10
122.813
20
-69.4974
11
122.813
21
-69.4971
0
LINE
8
BLACK
6
CONTINUOUS
10
122.813
20
-69.4971
11
122.825
21
-69.4938
0
LINE
8
BLACK
6
CONTINUOUS
10
122.825
20
-69.4938
11
122.836
21
-69.4904
0
LINE
8
BLACK
6
CONTINUOUS
10
122.836
20
-69.4904
11
122.837
21
-69.4904
0
LINE
8
BLACK
6
CONTINUOUS
10
122.837
20
-69.4904
11
122.837
21
-69.4902
0
LINE
8
BLACK
6
CONTINUOUS
10
122.837
20
-69.4902
11
122.849
21
-69.4891
0
LINE
8
BLACK
6
CONTINUOUS
10
122.849
20
-69.4891
11
122.861
21
-69.488
0
LINE
8
BLACK
6
CONTINUOUS
10
122.861
20
-69.488
11
122.995
21
-69.488
0
LINE
8
BLACK
6
CONTINUOUS
10
122.995
20
-69.488
11
122.997
21
-69.488
0
LINE
8
BLACK
6
CONTINUOUS
10
122.997
20
-69.488
11
123.002
21
-69.4886
0
LINE
8
BLACK
6
CONTINUOUS
10
123.002
20
-69.4886
11
123.007
21
-69.4886
0
LINE
8
BLACK
6
CONTINUOUS
10
123.007
20
-69.4886
11
123.046
21
-69.4924
0
LINE
8
BLACK
6
CONTINUOUS
10
123.046
20
-69.4924
11
123.084
21
-69.4886
0
LINE
8
BLACK
6
CONTINUOUS
10
123.084
20
-69.4886
11
123.084
21
-69.4886
0
LINE
8
BLACK
6
CONTINUOUS
10
123.084
20
-69.4886
11
123.224
21
-69.4749
0
LINE
8
BLACK
6
CONTINUOUS
10
123.224
20
-69.4749
11
123.395
21
-69.4229
0
LINE
8
BLACK
6
CONTINUOUS
10
123.395
20
-69.4229
11
123.553
21
-69.3386
0
LINE
8
BLACK
6
CONTINUOUS
10
123.553
20
-69.3386
11
123.691
21
-69.2252
0
LINE
8
BLACK
6
CONTINUOUS
10
123.691
20
-69.2252
11
123.715
21
-69.1953
0
LINE
8
BLACK
6
CONTINUOUS
10
123.715
20
-69.1953
11
123.717
21
-69.194
0
LINE
8
BLACK
6
CONTINUOUS
10
123.717
20
-69.194
11
123.72
21
-69.1902
0
LINE
8
BLACK
6
CONTINUOUS
10
123.72
20
-69.1902
11
123.724
21
-69.1861
0
LINE
8
BLACK
6
CONTINUOUS
10
123.724
20
-69.1861
11
124.106
21
-68.804
0
LINE
8
BLACK
6
CONTINUOUS
10
124.106
20
-68.804
11
124.126
21
-68.7667
0
LINE
8
BLACK
6
CONTINUOUS
10
124.126
20
-68.7667
11
124.163
21
-68.721
0
LINE
8
BLACK
6
CONTINUOUS
10
124.163
20
-68.721
11
124.163
21
-68.721
0
LINE
8
BLACK
6
CONTINUOUS
10
124.163
20
-68.721
11
124.176
21
-68.7058
0
LINE
8
BLACK
6
CONTINUOUS
10
124.176
20
-68.7058
11
124.191
21
-68.6933
0
LINE
8
BLACK
6
CONTINUOUS
10
124.191
20
-68.6933
11
130.076
21
-62.8083
0
LINE
8
BLACK
6
CONTINUOUS
10
130.076
20
-62.8083
11
130.122
21
-62.7708
0
LINE
8
BLACK
6
CONTINUOUS
10
130.122
20
-62.7708
11
130.191
21
-62.7337
0
LINE
8
BLACK
6
CONTINUOUS
10
130.191
20
-62.7337
11
130.267
21
-62.7108
0
LINE
8
BLACK
6
CONTINUOUS
10
130.267
20
-62.7108
11
130.345
21
-62.7031
0
LINE
8
BLACK
6
CONTINUOUS
10
130.345
20
-62.7031
11
130.423
21
-62.7108
0
LINE
8
BLACK
6
CONTINUOUS
10
130.423
20
-62.7108
11
130.445
21
-62.7173
0
LINE
8
BLACK
6
CONTINUOUS
10
130.445
20
-62.7173
11
130.445
21
-62.105
0
LINE
8
BLACK
6
CONTINUOUS
10
130.445
20
-62.105
11
132.445
21
-62.105
0
LINE
8
BLACK
6
CONTINUOUS
10
132.445
20
-62.105
11
132.445
21
-64.105
0
LINE
8
BLACK
6
CONTINUOUS
10
132.445
20
-64.105
11
130.445
21
-64.105
0
LINE
8
BLACK
6
CONTINUOUS
10
130.445
20
-64.105
11
130.445
21
-63.5707
0
LINE
8
BLACK
6
CONTINUOUS
10
130.445
20
-63.5707
11
129.934
21
-64.0818
0
LINE
8
BLACK
6
CONTINUOUS
10
129.934
20
-64.0818
11
129.934
21
-64.0988
0
LINE
8
BLACK
6
CONTINUOUS
10
129.934
20
-64.0988
11
129.944
21
-64.2046
0
LINE
8
BLACK
6
CONTINUOUS
10
129.944
20
-64.2046
11
129.975
21
-64.3057
0
LINE
8
BLACK
6
CONTINUOUS
10
129.975
20
-64.3057
11
129.976
21
-64.3077
0
LINE
8
BLACK
6
CONTINUOUS
10
129.976
20
-64.3077
11
129.98
21
-64.3186
0
LINE
8
BLACK
6
CONTINUOUS
10
129.98
20
-64.3186
11
129.98
21
-64.3192
0
LINE
8
BLACK
6
CONTINUOUS
10
129.98
20
-64.3192
11
129.981
21
-64.3197
0
LINE
8
BLACK
6
CONTINUOUS
10
129.981
20
-64.3197
11
129.983
21
-64.3313
0
LINE
8
BLACK
6
CONTINUOUS
10
129.983
20
-64.3313
11
129.985
21
-64.3429
0
LINE
8
BLACK
6
CONTINUOUS
10
129.985
20
-64.3429
11
129.985
21
-64.3435
0
LINE
8
BLACK
6
CONTINUOUS
10
129.985
20
-64.3435
11
129.985
21
-64.3441
0
LINE
8
BLACK
6
CONTINUOUS
10
129.985
20
-64.3441
11
129.985
21
-64.3559
0
LINE
8
BLACK
6
CONTINUOUS
10
129.985
20
-64.3559
11
129.985
21
-64.3677
0
LINE
8
BLACK
6
CONTINUOUS
10
129.985
20
-64.3677
11
129.985
21
-64.3683
0
LINE
8
BLACK
6
CONTINUOUS
10
129.985
20
-64.3683
11
129.985
21
-64.3689
0
LINE
8
BLACK
6
CONTINUOUS
10
129.985
20
-64.3689
11
129.982
21
-64.3804
0
LINE
8
BLACK
6
CONTINUOUS
10
129.982
20
-64.3804
11
129.98
21
-64.392
0
LINE
8
BLACK
6
CONTINUOUS
10
129.98
20
-64.392
11
129.98
21
-64.3925
0
LINE
8
BLACK
6
CONTINUOUS
10
129.98
20
-64.3925
11
129.98
21
-64.3931
0
LINE
8
BLACK
6
CONTINUOUS
10
129.98
20
-64.3931
11
129.975
21
-64.404
0
LINE
8
BLACK
6
CONTINUOUS
10
129.975
20
-64.404
11
129.975
21
-64.4041
0
LINE
8
BLACK
6
CONTINUOUS
10
129.975
20
-64.4041
11
129.944
21
-64.5054
0
LINE
8
BLACK
6
CONTINUOUS
10
129.944
20
-64.5054
11
129.934
21
-64.6112
0
LINE
8
BLACK
6
CONTINUOUS
10
129.934
20
-64.6112
11
129.934
21
-66.5988
0
LINE
8
BLACK
6
CONTINUOUS
10
129.934
20
-66.5988
11
129.944
21
-66.7046
0
LINE
8
BLACK
6
CONTINUOUS
10
129.944
20
-66.7046
11
129.975
21
-66.8057
0
LINE
8
BLACK
6
CONTINUOUS
10
129.975
20
-66.8057
11
129.976
21
-66.8077
0
LINE
8
BLACK
6
CONTINUOUS
10
129.976
20
-66.8077
11
129.98
21
-66.8186
0
LINE
8
BLACK
6
CONTINUOUS
10
129.98
20
-66.8186
11
129.98
21
-66.8192
0
LINE
8
BLACK
6
CONTINUOUS
10
129.98
20
-66.8192
11
129.981
21
-66.8197
0
LINE
8
BLACK
6
CONTINUOUS
10
129.981
20
-66.8197
11
129.983
21
-66.8313
0
LINE
8
BLACK
6
CONTINUOUS
10
129.983
20
-66.8313
11
129.985
21
-66.8429
0
LINE
8
BLACK
6
CONTINUOUS
10
129.985
20
-66.8429
11
129.985
21
-66.8435
0
LINE
8
BLACK
6
CONTINUOUS
10
129.985
20
-66.8435
11
129.985
21
-66.8441
0
LINE
8
BLACK
6
CONTINUOUS
10
129.985
20
-66.8441
11
129.985
21
-66.8559
0
LINE
8
BLACK
6
CONTINUOUS
10
129.985
20
-66.8559
11
129.985
21
-66.8677
0
LINE
8
BLACK
6
CONTINUOUS
10
129.985
20
-66.8677
11
129.985
21
-66.8683
0
LINE
8
BLACK
6
CONTINUOUS
10
129.985
20
-66.8683
11
129.985
21
-66.8689
0
LINE
8
BLACK
6
CONTINUOUS
10
129.985
20
-66.8689
11
129.982
21
-66.8804
0
LINE
8
BLACK
6
CONTINUOUS
10
129.982
20
-66.8804
11
129.98
21
-66.892
0
LINE
8
BLACK
6
CONTINUOUS
10
129.98
20
-66.892
11
129.98
21
-66.8925
0
LINE
8
BLACK
6
CONTINUOUS
10
129.98
20
-66.8925
11
129.98
21
-66.8931
0
LINE
8
BLACK
6
CONTINUOUS
10
129.98
20
-66.8931
11
129.975
21
-66.904
0
LINE
8
BLACK
6
CONTINUOUS
10
129.975
20
-66.904
11
129.975
21
-66.9041
0
LINE
8
BLACK
6
CONTINUOUS
10
129.975
20
-66.9041
11
129.944
21
-67.0054
0
LINE
8
BLACK
6
CONTINUOUS
10
129.944
20
-67.0054
11
129.934
21
-67.1112
0
LINE
8
BLACK
6
CONTINUOUS
10
129.934
20
-67.1112
11
129.934
21
-69.0988
0
LINE
8
BLACK
6
CONTINUOUS
10
129.934
20
-69.0988
11
129.944
21
-69.2046
0
LINE
8
BLACK
6
CONTINUOUS
10
129.944
20
-69.2046
11
129.975
21
-69.3057
0
LINE
8
BLACK
6
CONTINUOUS
10
129.975
20
-69.3057
11
129.976
21
-69.3077
0
LINE
8
BLACK
6
CONTINUOUS
10
129.976
20
-69.3077
11
129.98
21
-69.3186
0
LINE
8
BLACK
6
CONTINUOUS
10
129.98
20
-69.3186
11
129.98
21
-69.3192
0
LINE
8
BLACK
6
CONTINUOUS
10
129.98
20
-69.3192
11
129.981
21
-69.3197
0
LINE
8
BLACK
6
CONTINUOUS
10
129.981
20
-69.3197
11
129.983
21
-69.3313
0
LINE
8
BLACK
6
CONTINUOUS
10
129.983
20
-69.3313
11
129.985
21
-69.3429
0
LINE
8
BLACK
6
CONTINUOUS
10
129.985
20
-69.3429
11
129.985
21
-69.3435
0
LINE
8
BLACK
6
CONTINUOUS
10
129.985
20
-69.3435
11
129.985
21
-69.3441
0
LINE
8
BLACK
6
CONTINUOUS
10
129.985
20
-69.3441
11
129.985
21
-69.3559
0
LINE
8
BLACK
6
CONTINUOUS
10
129.985
20
-69.3559
11
129.985
21
-69.3677
0
LINE
8
BLACK
6
CONTINUOUS
10
129.985
20
-69.3677
11
129.985
21
-69.3683
0
LINE
8
BLACK
6
CONTINUOUS
10
129.985
20
-69.3683
11
129.985
21
-69.3689
0
LINE
8
BLACK
6
CONTINUOUS
10
129.985
20
-69.3689
11
129.982
21
-69.3804
0
LINE
8
BLACK
6
CONTINUOUS
10
129.982
20
-69.3804
11
129.98
21
-69.392
0
LINE
8
BLACK
6
CONTINUOUS
10
129.98
20
-69.392
11
129.98
21
-69.3925
0
LINE
8
BLACK
6
CONTINUOUS
10
129.98
20
-69.3925
11
129.98
21
-69.3931
0
LINE
8
BLACK
6
CONTINUOUS
10
129.98
20
-69.3931
11
129.975
21
-69.404
0
LINE
8
BLACK
6
CONTINUOUS
10
129.975
20
-69.404
11
129.975
21
-69.4041
0
LINE
8
BLACK
6
CONTINUOUS
10
129.975
20
-69.4041
11
129.944
21
-69.5054
0
LINE
8
BLACK
6
CONTINUOUS
10
129.944
20
-69.5054
11
129.934
21
-69.6112
0
LINE
8
BLACK
6
CONTINUOUS
10
129.934
20
-69.6112
11
129.934
21
-71.5988
0
LINE
8
BLACK
6
CONTINUOUS
10
129.934
20
-71.5988
11
129.944
21
-71.7046
0
LINE
8
BLACK
6
CONTINUOUS
10
129.944
20
-71.7046
11
129.975
21
-71.8057
0
LINE
8
BLACK
6
CONTINUOUS
10
129.975
20
-71.8057
11
129.976
21
-71.8077
0
LINE
8
BLACK
6
CONTINUOUS
10
129.976
20
-71.8077
11
129.98
21
-71.8186
0
LINE
8
BLACK
6
CONTINUOUS
10
129.98
20
-71.8186
11
129.98
21
-71.8192
0
LINE
8
BLACK
6
CONTINUOUS
10
129.98
20
-71.8192
11
129.981
21
-71.8197
0
LINE
8
BLACK
6
CONTINUOUS
10
129.981
20
-71.8197
11
129.983
21
-71.8313
0
LINE
8
BLACK
6
CONTINUOUS
10
129.983
20
-71.8313
11
129.985
21
-71.8429
0
LINE
8
BLACK
6
CONTINUOUS
10
129.985
20
-71.8429
11
129.985
21
-71.8435
0
LINE
8
BLACK
6
CONTINUOUS
10
129.985
20
-71.8435
11
129.985
21
-71.8441
0
LINE
8
BLACK
6
CONTINUOUS
10
129.985
20
-71.8441
11
129.985
21
-71.8559
0
LINE
8
BLACK
6
CONTINUOUS
10
129.985
20
-71.8559
11
129.985
21
-71.8677
0
LINE
8
BLACK
6
CONTINUOUS
10
129.985
20
-71.8677
11
129.985
21
-71.8683
0
LINE
8
BLACK
6
CONTINUOUS
10
129.985
20
-71.8683
11
129.985
21
-71.8689
0
LINE
8
BLACK
6
CONTINUOUS
10
129.985
20
-71.8689
11
129.982
21
-71.8804
0
LINE
8
BLACK
6
CONTINUOUS
10
129.982
20
-71.8804
11
129.98
21
-71.892
0
LINE
8
BLACK
6
CONTINUOUS
10
129.98
20
-71.892
11
129.98
21
-71.8925
0
LINE
8
BLACK
6
CONTINUOUS
10
129.98
20
-71.8925
11
129.98
21
-71.8931
0
LINE
8
BLACK
6
CONTINUOUS
10
129.98
20
-71.8931
11
129.975
21
-71.904
0
LINE
8
BLACK
6
CONTINUOUS
10
129.975
20
-71.904
11
129.975
21
-71.9041
0
LINE
8
BLACK
6
CONTINUOUS
10
129.975
20
-71.9041
11
129.944
21
-72.0054
0
LINE
8
BLACK
6
CONTINUOUS
10
129.944
20
-72.0054
11
129.934
21
-72.1112
0
LINE
8
BLACK
6
CONTINUOUS
10
129.934
20
-72.1112
11
129.934
21
-74.0988
0
LINE
8
BLACK
6
CONTINUOUS
10
129.934
20
-74.0988
11
129.944
21
-74.2046
0
LINE
8
BLACK
6
CONTINUOUS
10
129.944
20
-74.2046
11
129.975
21
-74.3057
0
LINE
8
BLACK
6
CONTINUOUS
10
129.975
20
-74.3057
11
129.976
21
-74.3077
0
LINE
8
BLACK
6
CONTINUOUS
10
129.976
20
-74.3077
11
129.98
21
-74.3186
0
LINE
8
BLACK
6
CONTINUOUS
10
129.98
20
-74.3186
11
129.98
21
-74.3192
0
LINE
8
BLACK
6
CONTINUOUS
10
129.98
20
-74.3192
11
129.981
21
-74.3197
0
LINE
8
BLACK
6
CONTINUOUS
10
129.981
20
-74.3197
11
129.983
21
-74.3313
0
LINE
8
BLACK
6
CONTINUOUS
10
129.983
20
-74.3313
11
129.985
21
-74.3429
0
LINE
8
BLACK
6
CONTINUOUS
10
129.985
20
-74.3429
11
129.985
21
-74.3435
0
LINE
8
BLACK
6
CONTINUOUS
10
129.985
20
-74.3435
11
129.985
21
-74.3441
0
LINE
8
BLACK
6
CONTINUOUS
10
129.985
20
-74.3441
11
129.985
21
-74.3559
0
LINE
8
BLACK
6
CONTINUOUS
10
129.985
20
-74.3559
11
129.985
21
-74.3677
0
LINE
8
BLACK
6
CONTINUOUS
10
129.985
20
-74.3677
11
129.985
21
-74.3683
0
LINE
8
BLACK
6
CONTINUOUS
10
129.985
20
-74.3683
11
129.985
21
-74.3689
0
LINE
8
BLACK
6
CONTINUOUS
10
129.985
20
-74.3689
11
129.982
21
-74.3804
0
LINE
8
BLACK
6
CONTINUOUS
10
129.982
20
-74.3804
11
129.98
21
-74.392
0
LINE
8
BLACK
6
CONTINUOUS
10
129.98
20
-74.392
11
129.98
21
-74.3925
0
LINE
8
BLACK
6
CONTINUOUS
10
129.98
20
-74.3925
11
129.98
21
-74.3931
0
LINE
8
BLACK
6
CONTINUOUS
10
129.98
20
-74.3931
11
129.975
21
-74.404
0
LINE
8
BLACK
6
CONTINUOUS
10
129.975
20
-74.404
11
129.975
21
-74.4041
0
LINE
8
BLACK
6
CONTINUOUS
10
129.975
20
-74.4041
11
129.944
21
-74.5054
0
LINE
8
BLACK
6
CONTINUOUS
10
129.944
20
-74.5054
11
129.934
21
-74.6112
0
LINE
8
BLACK
6
CONTINUOUS
10
129.934
20
-74.6112
11
129.934
21
-76.5988
0
LINE
8
BLACK
6
CONTINUOUS
10
129.934
20
-76.5988
11
129.944
21
-76.7046
0
LINE
8
BLACK
6
CONTINUOUS
10
129.944
20
-76.7046
11
129.975
21
-76.8057
0
LINE
8
BLACK
6
CONTINUOUS
10
129.975
20
-76.8057
11
129.976
21
-76.8077
0
LINE
8
BLACK
6
CONTINUOUS
10
129.976
20
-76.8077
11
129.98
21
-76.8186
0
LINE
8
BLACK
6
CONTINUOUS
10
129.98
20
-76.8186
11
129.98
21
-76.8192
0
LINE
8
BLACK
6
CONTINUOUS
10
129.98
20
-76.8192
11
129.981
21
-76.8197
0
LINE
8
BLACK
6
CONTINUOUS
10
129.981
20
-76.8197
11
129.983
21
-76.8313
0
LINE
8
BLACK
6
CONTINUOUS
10
129.983
20
-76.8313
11
129.985
21
-76.8429
0
LINE
8
BLACK
6
CONTINUOUS
10
129.985
20
-76.8429
11
129.985
21
-76.8435
0
LINE
8
BLACK
6
CONTINUOUS
10
129.985
20
-76.8435
11
129.985
21
-76.8441
0
LINE
8
BLACK
6
CONTINUOUS
10
129.985
20
-76.8441
11
129.985
21
-76.8559
0
LINE
8
BLACK
6
CONTINUOUS
10
129.985
20
-76.8559
11
129.985
21
-76.8677
0
LINE
8
BLACK
6
CONTINUOUS
10
129.985
20
-76.8677
11
129.985
21
-76.8683
0
LINE
8
BLACK
6
CONTINUOUS
10
129.985
20
-76.8683
11
129.985
21
-76.8689
0
LINE
8
BLACK
6
CONTINUOUS
10
129.985
20
-76.8689
11
129.982
21
-76.8804
0
LINE
8
BLACK
6
CONTINUOUS
10
129.982
20
-76.8804
11
129.98
21
-76.892
0
LINE
8
BLACK
6
CONTINUOUS
10
129.98
20
-76.892
11
129.98
21
-76.8925
0
LINE
8
BLACK
6
CONTINUOUS
10
129.98
20
-76.8925
11
129.98
21
-76.8931
0
LINE
8
BLACK
6
CONTINUOUS
10
129.98
20
-76.8931
11
129.975
21
-76.904
0
LINE
8
BLACK
6
CONTINUOUS
10
129.975
20
-76.904
11
129.975
21
-76.9041
0
LINE
8
BLACK
6
CONTINUOUS
10
129.975
20
-76.9041
11
129.944
21
-77.0054
0
LINE
8
BLACK
6
CONTINUOUS
10
129.944
20
-77.0054
11
129.934
21
-77.1112
0
LINE
8
BLACK
6
CONTINUOUS
10
129.934
20
-77.1112
11
129.934
21
-79.0988
0
LINE
8
BLACK
6
CONTINUOUS
10
129.934
20
-79.0988
11
129.944
21
-79.2046
0
LINE
8
BLACK
6
CONTINUOUS
10
129.944
20
-79.2046
11
129.974
21
-79.3039
0
LINE
8
BLACK
6
CONTINUOUS
10
129.974
20
-79.3039
11
129.976
21
-79.3076
0
LINE
8
BLACK
6
CONTINUOUS
10
129.976
20
-79.3076
11
129.978
21
-79.3137
0
LINE
8
BLACK
6
CONTINUOUS
10
129.978
20
-79.3137
11
129.98
21
-79.3195
0
LINE
8
BLACK
6
CONTINUOUS
10
129.98
20
-79.3195
11
129.982
21
-79.3255
0
LINE
8
BLACK
6
CONTINUOUS
10
129.982
20
-79.3255
11
129.983
21
-79.3314
0
LINE
8
BLACK
6
CONTINUOUS
10
129.983
20
-79.3314
11
129.984
21
-79.3377
0
LINE
8
BLACK
6
CONTINUOUS
10
129.984
20
-79.3377
11
129.985
21
-79.3439
0
LINE
8
BLACK
6
CONTINUOUS
10
129.985
20
-79.3439
11
129.985
21
-79.35
0
LINE
8
BLACK
6
CONTINUOUS
10
129.985
20
-79.35
11
129.985
21
-79.3561
0
LINE
8
BLACK
6
CONTINUOUS
10
129.985
20
-79.3561
11
129.985
21
-79.3624
0
LINE
8
BLACK
6
CONTINUOUS
10
129.985
20
-79.3624
11
129.985
21
-79.3687
0
LINE
8
BLACK
6
CONTINUOUS
10
129.985
20
-79.3687
11
129.983
21
-79.3747
0
LINE
8
BLACK
6
CONTINUOUS
10
129.983
20
-79.3747
11
129.983
21
-79.3808
0
LINE
8
BLACK
6
CONTINUOUS
10
129.983
20
-79.3808
11
129.981
21
-79.3868
0
LINE
8
BLACK
6
CONTINUOUS
10
129.981
20
-79.3868
11
129.98
21
-79.3929
0
LINE
8
BLACK
6
CONTINUOUS
10
129.98
20
-79.3929
11
129.977
21
-79.3986
0
LINE
8
BLACK
6
CONTINUOUS
10
129.977
20
-79.3986
11
129.975
21
-79.4044
0
LINE
8
BLACK
6
CONTINUOUS
10
129.975
20
-79.4044
11
129.972
21
-79.4099
0
LINE
8
BLACK
6
CONTINUOUS
10
129.972
20
-79.4099
11
129.97
21
-79.4157
0
LINE
8
BLACK
6
CONTINUOUS
10
129.97
20
-79.4157
11
129.966
21
-79.4208
0
LINE
8
BLACK
6
CONTINUOUS
10
129.966
20
-79.4208
11
129.964
21
-79.4262
0
LINE
8
BLACK
6
CONTINUOUS
10
129.964
20
-79.4262
11
129.96
21
-79.431
0
LINE
8
BLACK
6
CONTINUOUS
10
129.96
20
-79.431
11
129.956
21
-79.4362
0
LINE
8
BLACK
6
CONTINUOUS
10
129.956
20
-79.4362
11
129.952
21
-79.4405
0
LINE
8
BLACK
6
CONTINUOUS
10
129.952
20
-79.4405
11
129.948
21
-79.4452
0
LINE
8
BLACK
6
CONTINUOUS
10
129.948
20
-79.4452
11
129.943
21
-79.4492
0
LINE
8
BLACK
6
CONTINUOUS
10
129.943
20
-79.4492
11
129.938
21
-79.4536
0
LINE
8
BLACK
6
CONTINUOUS
10
129.938
20
-79.4536
11
129.933
21
-79.4569
0
LINE
8
BLACK
6
CONTINUOUS
10
129.933
20
-79.4569
11
129.928
21
-79.4608
0
LINE
8
BLACK
6
CONTINUOUS
10
129.928
20
-79.4608
11
129.923
21
-79.4637
0
LINE
8
BLACK
6
CONTINUOUS
10
129.923
20
-79.4637
11
129.918
21
-79.4672
0
LINE
8
BLACK
6
CONTINUOUS
10
129.918
20
-79.4672
11
129.912
21
-79.4695
0
LINE
8
BLACK
6
CONTINUOUS
10
129.912
20
-79.4695
11
129.906
21
-79.4724
0
LINE
8
BLACK
6
CONTINUOUS
10
129.906
20
-79.4724
11
129.9
21
-79.4742
0
LINE
8
BLACK
6
CONTINUOUS
10
129.9
20
-79.4742
11
129.895
21
-79.4765
0
LINE
8
BLACK
6
CONTINUOUS
10
129.895
20
-79.4765
11
129.889
21
-79.4777
0
LINE
8
BLACK
6
CONTINUOUS
10
129.889
20
-79.4777
11
129.883
21
-79.4794
0
LINE
8
BLACK
6
CONTINUOUS
10
129.883
20
-79.4794
11
129.876
21
-79.48
0
LINE
8
BLACK
6
CONTINUOUS
10
129.876
20
-79.48
11
129.87
21
-79.4812
0
LINE
8
BLACK
6
CONTINUOUS
10
129.87
20
-79.4812
11
129.864
21
-79.4812
0
LINE
8
BLACK
6
CONTINUOUS
10
129.864
20
-79.4812
11
129.858
21
-79.4818
0
LINE
8
BLACK
6
CONTINUOUS
10
129.858
20
-79.4818
11
129.852
21
-79.4811
0
LINE
8
BLACK
6
CONTINUOUS
10
129.852
20
-79.4811
11
129.845
21
-79.4811
0
LINE
8
BLACK
6
CONTINUOUS
10
129.845
20
-79.4811
11
129.839
21
-79.4799
0
LINE
8
BLACK
6
CONTINUOUS
10
129.839
20
-79.4799
11
129.833
21
-79.4793
0
LINE
8
BLACK
6
CONTINUOUS
10
129.833
20
-79.4793
11
129.827
21
-79.4774
0
LINE
8
BLACK
6
CONTINUOUS
10
129.827
20
-79.4774
11
129.821
21
-79.4762
0
LINE
8
BLACK
6
CONTINUOUS
10
129.821
20
-79.4762
11
129.816
21
-79.4738
0
LINE
8
BLACK
6
CONTINUOUS
10
129.816
20
-79.4738
11
129.81
21
-79.472
0
LINE
8
BLACK
6
CONTINUOUS
10
129.81
20
-79.472
11
129.804
21
-79.4691
0
LINE
8
BLACK
6
CONTINUOUS
10
129.804
20
-79.4691
11
129.798
21
-79.4666
0
LINE
8
BLACK
6
CONTINUOUS
10
129.798
20
-79.4666
11
129.793
21
-79.4632
0
LINE
8
BLACK
6
CONTINUOUS
10
129.793
20
-79.4632
11
129.788
21
-79.4603
0
LINE
8
BLACK
6
CONTINUOUS
10
129.788
20
-79.4603
11
129.783
21
-79.4563
0
LINE
8
BLACK
6
CONTINUOUS
10
129.783
20
-79.4563
11
129.778
21
-79.4528
0
LINE
8
BLACK
6
CONTINUOUS
10
129.778
20
-79.4528
11
129.773
21
-79.4485
0
LINE
8
BLACK
6
CONTINUOUS
10
129.773
20
-79.4485
11
129.769
21
-79.4446
0
LINE
8
BLACK
6
CONTINUOUS
10
129.769
20
-79.4446
11
127.905
21
-77.5811
0
LINE
8
BLACK
6
CONTINUOUS
10
127.905
20
-77.5811
11
127.905
21
-77.5808
0
LINE
8
BLACK
6
CONTINUOUS
10
127.905
20
-77.5808
11
127.905
21
-77.5808
0
LINE
8
BLACK
6
CONTINUOUS
10
127.905
20
-77.5808
11
127.905
21
-77.5808
0
LINE
8
BLACK
6
CONTINUOUS
10
127.905
20
-77.5808
11
127.904
21
-77.5798
0
LINE
8
BLACK
6
CONTINUOUS
10
127.904
20
-77.5798
11
127.897
21
-77.5707
0
LINE
8
BLACK
6
CONTINUOUS
10
127.897
20
-77.5707
11
127.889
21
-77.5616
0
LINE
8
BLACK
6
CONTINUOUS
10
127.889
20
-77.5616
11
127.889
21
-77.561
0
LINE
8
BLACK
6
CONTINUOUS
10
127.889
20
-77.561
11
127.888
21
-77.5605
0
LINE
8
BLACK
6
CONTINUOUS
10
127.888
20
-77.5605
11
127.883
21
-77.55
0
LINE
8
BLACK
6
CONTINUOUS
10
127.883
20
-77.55
11
127.878
21
-77.5397
0
LINE
8
BLACK
6
CONTINUOUS
10
127.878
20
-77.5397
11
127.877
21
-77.539
0
LINE
8
BLACK
6
CONTINUOUS
10
127.877
20
-77.539
11
127.877
21
-77.5385
0
LINE
8
BLACK
6
CONTINUOUS
10
127.877
20
-77.5385
11
127.874
21
-77.5272
0
LINE
8
BLACK
6
CONTINUOUS
10
127.874
20
-77.5272
11
127.87
21
-77.516
0
LINE
8
BLACK
6
CONTINUOUS
10
127.87
20
-77.516
11
127.87
21
-77.5153
0
LINE
8
BLACK
6
CONTINUOUS
10
127.87
20
-77.5153
11
127.87
21
-77.5147
0
LINE
8
BLACK
6
CONTINUOUS
10
127.87
20
-77.5147
11
127.869
21
-77.5029
0
LINE
8
BLACK
6
CONTINUOUS
10
127.869
20
-77.5029
11
127.868
21
-77.4913
0
LINE
8
BLACK
6
CONTINUOUS
10
127.868
20
-77.4913
11
127.868
21
-77.1944
0
LINE
8
BLACK
6
CONTINUOUS
10
127.868
20
-77.1944
11
127.868
21
-77.194
0
LINE
8
BLACK
6
CONTINUOUS
10
127.868
20
-77.194
11
127.868
21
-77.194
0
LINE
8
BLACK
6
CONTINUOUS
10
127.868
20
-77.194
11
127.868
21
-77.1939
0
LINE
8
BLACK
6
CONTINUOUS
10
127.868
20
-77.1939
11
127.868
21
-77.1926
0
LINE
8
BLACK
6
CONTINUOUS
10
127.868
20
-77.1926
11
127.869
21
-77.1809
0
LINE
8
BLACK
6
CONTINUOUS
10
127.869
20
-77.1809
11
127.871
21
-77.1693
0
LINE
8
BLACK
6
CONTINUOUS
10
127.871
20
-77.1693
11
127.871
21
-77.1687
0
LINE
8
BLACK
6
CONTINUOUS
10
127.871
20
-77.1687
11
127.871
21
-77.168
0
LINE
8
BLACK
6
CONTINUOUS
10
127.871
20
-77.168
11
127.874
21
-77.1568
0
LINE
8
BLACK
6
CONTINUOUS
10
127.874
20
-77.1568
11
127.878
21
-77.1456
0
LINE
8
BLACK
6
CONTINUOUS
10
127.878
20
-77.1456
11
127.878
21
-77.145
0
LINE
8
BLACK
6
CONTINUOUS
10
127.878
20
-77.145
11
127.878
21
-77.1444
0
LINE
8
BLACK
6
CONTINUOUS
10
127.878
20
-77.1444
11
127.884
21
-77.134
0
LINE
8
BLACK
6
CONTINUOUS
10
127.884
20
-77.134
11
127.889
21
-77.1237
0
LINE
8
BLACK
6
CONTINUOUS
10
127.889
20
-77.1237
11
127.89
21
-77.1232
0
LINE
8
BLACK
6
CONTINUOUS
10
127.89
20
-77.1232
11
127.89
21
-77.1226
0
LINE
8
BLACK
6
CONTINUOUS
10
127.89
20
-77.1226
11
127.898
21
-77.1137
0
LINE
8
BLACK
6
CONTINUOUS
10
127.898
20
-77.1137
11
127.905
21
-77.1046
0
LINE
8
BLACK
6
CONTINUOUS
10
127.905
20
-77.1046
11
127.976
21
-77.0338
0
LINE
8
BLACK
6
CONTINUOUS
10
127.976
20
-77.0338
11
128.119
21
-76.8196
0
LINE
8
BLACK
6
CONTINUOUS
10
128.119
20
-76.8196
11
128.218
21
-76.5815
0
LINE
8
BLACK
6
CONTINUOUS
10
128.218
20
-76.5815
11
128.268
21
-76.3288
0
LINE
8
BLACK
6
CONTINUOUS
10
128.268
20
-76.3288
11
128.268
21
-76.0712
0
LINE
8
BLACK
6
CONTINUOUS
10
128.268
20
-76.0712
11
128.218
21
-75.8185
0
LINE
8
BLACK
6
CONTINUOUS
10
128.218
20
-75.8185
11
128.119
21
-75.5804
0
LINE
8
BLACK
6
CONTINUOUS
10
128.119
20
-75.5804
11
127.976
21
-75.3662
0
LINE
8
BLACK
6
CONTINUOUS
10
127.976
20
-75.3662
11
127.794
21
-75.184
0
LINE
8
BLACK
6
CONTINUOUS
10
127.794
20
-75.184
11
127.58
21
-75.0409
0
LINE
8
BLACK
6
CONTINUOUS
10
127.58
20
-75.0409
11
127.342
21
-74.9423
0
LINE
8
BLACK
6
CONTINUOUS
10
127.342
20
-74.9423
11
127.089
21
-74.892
0
LINE
8
BLACK
6
CONTINUOUS
10
127.089
20
-74.892
11
126.831
21
-74.892
0
LINE
8
BLACK
6
CONTINUOUS
10
126.831
20
-74.892
11
126.578
21
-74.9423
0
LINE
8
BLACK
6
CONTINUOUS
10
126.578
20
-74.9423
11
126.34
21
-75.0409
0
LINE
8
BLACK
6
CONTINUOUS
10
126.34
20
-75.0409
11
126.126
21
-75.184
0
LINE
8
BLACK
6
CONTINUOUS
10
126.126
20
-75.184
11
125.968
21
-75.3417
0
LINE
8
BLACK
6
CONTINUOUS
10
125.968
20
-75.3417
11
125.967
21
-75.343
0
LINE
8
BLACK
6
CONTINUOUS
10
125.967
20
-75.343
11
125.963
21
-75.3467
0
LINE
8
BLACK
6
CONTINUOUS
10
125.963
20
-75.3467
11
125.958
21
-75.3508
0
LINE
8
BLACK
6
CONTINUOUS
10
125.958
20
-75.3508
11
125.953
21
-75.3544
0
LINE
8
BLACK
6
CONTINUOUS
10
125.953
20
-75.3544
11
125.948
21
-75.3585
0
LINE
8
BLACK
6
CONTINUOUS
10
125.948
20
-75.3585
11
125.943
21
-75.3612
0
LINE
8
BLACK
6
CONTINUOUS
10
125.943
20
-75.3612
11
125.938
21
-75.3644
0
LINE
8
BLACK
6
CONTINUOUS
10
125.938
20
-75.3644
11
125.932
21
-75.3669
0
LINE
8
BLACK
6
CONTINUOUS
10
125.932
20
-75.3669
11
125.926
21
-75.3699
0
LINE
8
BLACK
6
CONTINUOUS
10
125.926
20
-75.3699
11
125.92
21
-75.3715
0
LINE
8
BLACK
6
CONTINUOUS
10
125.92
20
-75.3715
11
125.915
21
-75.3737
0
LINE
8
BLACK
6
CONTINUOUS
10
125.915
20
-75.3737
11
125.908
21
-75.375
0
LINE
8
BLACK
6
CONTINUOUS
10
125.908
20
-75.375
11
125.902
21
-75.3768
0
LINE
8
BLACK
6
CONTINUOUS
10
125.902
20
-75.3768
11
125.896
21
-75.3773
0
LINE
8
BLACK
6
CONTINUOUS
10
125.896
20
-75.3773
11
125.89
21
-75.3784
0
LINE
8
BLACK
6
CONTINUOUS
10
125.89
20
-75.3784
11
125.884
21
-75.3784
0
LINE
8
BLACK
6
CONTINUOUS
10
125.884
20
-75.3784
11
125.877
21
-75.3789
0
LINE
8
BLACK
6
CONTINUOUS
10
125.877
20
-75.3789
11
125.871
21
-75.3783
0
LINE
8
BLACK
6
CONTINUOUS
10
125.871
20
-75.3783
11
125.866
21
-75.3783
0
LINE
8
BLACK
6
CONTINUOUS
10
125.866
20
-75.3783
11
125.859
21
-75.377
0
LINE
8
BLACK
6
CONTINUOUS
10
125.859
20
-75.377
11
125.853
21
-75.3763
0
LINE
8
BLACK
6
CONTINUOUS
10
125.853
20
-75.3763
11
125.847
21
-75.3745
0
LINE
8
BLACK
6
CONTINUOUS
10
125.847
20
-75.3745
11
125.841
21
-75.3733
0
LINE
8
BLACK
6
CONTINUOUS
10
125.841
20
-75.3733
11
125.835
21
-75.3708
0
LINE
8
BLACK
6
CONTINUOUS
10
125.835
20
-75.3708
11
125.829
21
-75.3688
0
LINE
8
BLACK
6
CONTINUOUS
10
125.829
20
-75.3688
11
125.824
21
-75.366
0
LINE
8
BLACK
6
CONTINUOUS
10
125.824
20
-75.366
11
125.818
21
-75.3637
0
LINE
8
BLACK
6
CONTINUOUS
10
125.818
20
-75.3637
11
125.813
21
-75.3601
0
LINE
8
BLACK
6
CONTINUOUS
10
125.813
20
-75.3601
11
125.807
21
-75.357
0
LINE
8
BLACK
6
CONTINUOUS
10
125.807
20
-75.357
11
125.803
21
-75.3532
0
LINE
8
BLACK
6
CONTINUOUS
10
125.803
20
-75.3532
11
125.798
21
-75.3499
0
LINE
8
BLACK
6
CONTINUOUS
10
125.798
20
-75.3499
11
125.793
21
-75.3453
0
LINE
8
BLACK
6
CONTINUOUS
10
125.793
20
-75.3453
11
125.788
21
-75.3411
0
LINE
8
BLACK
6
CONTINUOUS
10
125.788
20
-75.3411
11
125.785
21
-75.3365
0
LINE
8
BLACK
6
CONTINUOUS
10
125.785
20
-75.3365
11
125.78
21
-75.3323
0
LINE
8
BLACK
6
CONTINUOUS
10
125.78
20
-75.3323
11
125.777
21
-75.3269
0
LINE
8
BLACK
6
CONTINUOUS
10
125.777
20
-75.3269
11
125.773
21
-75.3219
0
LINE
8
BLACK
6
CONTINUOUS
10
125.773
20
-75.3219
11
125.77
21
-75.3166
0
LINE
8
BLACK
6
CONTINUOUS
10
125.77
20
-75.3166
11
125.767
21
-75.3117
0
LINE
8
BLACK
6
CONTINUOUS
10
125.767
20
-75.3117
11
125.764
21
-75.3057
0
LINE
8
BLACK
6
CONTINUOUS
10
125.764
20
-75.3057
11
125.761
21
-75.2999
0
LINE
8
BLACK
6
CONTINUOUS
10
125.761
20
-75.2999
11
125.759
21
-75.2943
0
LINE
8
BLACK
6
CONTINUOUS
10
125.759
20
-75.2943
11
125.757
21
-75.2888
0
LINE
8
BLACK
6
CONTINUOUS
10
125.757
20
-75.2888
11
125.732
21
-75.2047
0
LINE
8
BLACK
6
CONTINUOUS
10
125.732
20
-75.2047
11
125.684
21
-75.1164
0
LINE
8
BLACK
6
CONTINUOUS
10
125.684
20
-75.1164
11
125.621
21
-75.0391
0
LINE
8
BLACK
6
CONTINUOUS
10
125.621
20
-75.0391
11
125.544
21
-74.9756
0
LINE
8
BLACK
6
CONTINUOUS
10
125.544
20
-74.9756
11
125.455
21
-74.9284
0
LINE
8
BLACK
6
CONTINUOUS
10
125.455
20
-74.9284
11
125.36
21
-74.8993
0
LINE
8
BLACK
6
CONTINUOUS
10
125.36
20
-74.8993
11
125.254
21
-74.889
0
LINE
8
BLACK
6
CONTINUOUS
10
125.254
20
-74.889
11
124.86
21
-74.8913
0
LINE
8
BLACK
6
CONTINUOUS
10
124.86
20
-74.8913
11
124.86
21
-75.4
0
LINE
8
BLACK
6
CONTINUOUS
10
124.86
20
-75.4
11
125.26
21
-75.4
0
LINE
8
BLACK
6
CONTINUOUS
10
125.26
20
-75.4
11
125.26
21
-77
0
LINE
8
BLACK
6
CONTINUOUS
10
125.26
20
-77
11
124.714
21
-77
0
LINE
8
BLACK
6
CONTINUOUS
10
124.714
20
-77
11
124.714
21
-77.4236
0
LINE
8
BLACK
6
CONTINUOUS
10
124.714
20
-77.4236
11
124.799
21
-77.5083
0
LINE
8
BLACK
6
CONTINUOUS
10
124.799
20
-77.5083
11
125.254
21
-77.511
0
LINE
8
BLACK
6
CONTINUOUS
10
125.254
20
-77.511
11
125.36
21
-77.5006
0
LINE
8
BLACK
6
CONTINUOUS
10
125.36
20
-77.5006
11
125.455
21
-77.4716
0
LINE
8
BLACK
6
CONTINUOUS
10
125.455
20
-77.4716
11
125.544
21
-77.4244
0
LINE
8
BLACK
6
CONTINUOUS
10
125.544
20
-77.4244
11
125.621
21
-77.3609
0
LINE
8
BLACK
6
CONTINUOUS
10
125.621
20
-77.3609
11
125.684
21
-77.2836
0
LINE
8
BLACK
6
CONTINUOUS
10
125.684
20
-77.2836
11
125.732
21
-77.1953
0
LINE
8
BLACK
6
CONTINUOUS
10
125.732
20
-77.1953
11
125.757
21
-77.1112
0
LINE
8
BLACK
6
CONTINUOUS
10
125.757
20
-77.1112
11
125.758
21
-77.1095
0
LINE
8
BLACK
6
CONTINUOUS
10
125.758
20
-77.1095
11
125.76
21
-77.1041
0
LINE
8
BLACK
6
CONTINUOUS
10
125.76
20
-77.1041
11
125.762
21
-77.0984
0
LINE
8
BLACK
6
CONTINUOUS
10
125.762
20
-77.0984
11
125.765
21
-77.0927
0
LINE
8
BLACK
6
CONTINUOUS
10
125.765
20
-77.0927
11
125.767
21
-77.0867
0
LINE
8
BLACK
6
CONTINUOUS
10
125.767
20
-77.0867
11
125.771
21
-77.0819
0
LINE
8
BLACK
6
CONTINUOUS
10
125.771
20
-77.0819
11
125.774
21
-77.0767
0
LINE
8
BLACK
6
CONTINUOUS
10
125.774
20
-77.0767
11
125.778
21
-77.0717
0
LINE
8
BLACK
6
CONTINUOUS
10
125.778
20
-77.0717
11
125.781
21
-77.0663
0
LINE
8
BLACK
6
CONTINUOUS
10
125.781
20
-77.0663
11
125.786
21
-77.0622
0
LINE
8
BLACK
6
CONTINUOUS
10
125.786
20
-77.0622
11
125.789
21
-77.0576
0
LINE
8
BLACK
6
CONTINUOUS
10
125.789
20
-77.0576
11
125.795
21
-77.0535
0
LINE
8
BLACK
6
CONTINUOUS
10
125.795
20
-77.0535
11
125.799
21
-77.049
0
LINE
8
BLACK
6
CONTINUOUS
10
125.799
20
-77.049
11
125.804
21
-77.0458
0
LINE
8
BLACK
6
CONTINUOUS
10
125.804
20
-77.0458
11
125.809
21
-77.042
0
LINE
8
BLACK
6
CONTINUOUS
10
125.809
20
-77.042
11
125.815
21
-77.039
0
LINE
8
BLACK
6
CONTINUOUS
10
125.815
20
-77.039
11
125.82
21
-77.0354
0
LINE
8
BLACK
6
CONTINUOUS
10
125.82
20
-77.0354
11
125.825
21
-77.0332
0
LINE
8
BLACK
6
CONTINUOUS
10
125.825
20
-77.0332
11
125.831
21
-77.0305
0
LINE
8
BLACK
6
CONTINUOUS
10
125.831
20
-77.0305
11
125.837
21
-77.0286
0
LINE
8
BLACK
6
CONTINUOUS
10
125.837
20
-77.0286
11
125.843
21
-77.0262
0
LINE
8
BLACK
6
CONTINUOUS
10
125.843
20
-77.0262
11
125.849
21
-77.0251
0
LINE
8
BLACK
6
CONTINUOUS
10
125.849
20
-77.0251
11
125.854
21
-77.0234
0
LINE
8
BLACK
6
CONTINUOUS
10
125.854
20
-77.0234
11
125.861
21
-77.0228
0
LINE
8
BLACK
6
CONTINUOUS
10
125.861
20
-77.0228
11
125.867
21
-77.0216
0
LINE
8
BLACK
6
CONTINUOUS
10
125.867
20
-77.0216
11
125.873
21
-77.0216
0
LINE
8
BLACK
6
CONTINUOUS
10
125.873
20
-77.0216
11
125.879
21
-77.0211
0
LINE
8
BLACK
6
CONTINUOUS
10
125.879
20
-77.0211
11
125.886
21
-77.0217
0
LINE
8
BLACK
6
CONTINUOUS
10
125.886
20
-77.0217
11
125.892
21
-77.0218
0
LINE
8
BLACK
6
CONTINUOUS
10
125.892
20
-77.0218
11
125.898
21
-77.023
0
LINE
8
BLACK
6
CONTINUOUS
10
125.898
20
-77.023
11
125.904
21
-77.0236
0
LINE
8
BLACK
6
CONTINUOUS
10
125.904
20
-77.0236
11
125.91
21
-77.0255
0
LINE
8
BLACK
6
CONTINUOUS
10
125.91
20
-77.0255
11
125.916
21
-77.0268
0
LINE
8
BLACK
6
CONTINUOUS
10
125.916
20
-77.0268
11
125.922
21
-77.0291
0
LINE
8
BLACK
6
CONTINUOUS
10
125.922
20
-77.0291
11
125.927
21
-77.0308
0
LINE
8
BLACK
6
CONTINUOUS
10
125.927
20
-77.0308
11
125.933
21
-77.0339
0
LINE
8
BLACK
6
CONTINUOUS
10
125.933
20
-77.0339
11
125.939
21
-77.0364
0
LINE
8
BLACK
6
CONTINUOUS
10
125.939
20
-77.0364
11
125.944
21
-77.0397
0
LINE
8
BLACK
6
CONTINUOUS
10
125.944
20
-77.0397
11
125.949
21
-77.0425
0
LINE
8
BLACK
6
CONTINUOUS
10
125.949
20
-77.0425
11
125.954
21
-77.0467
0
LINE
8
BLACK
6
CONTINUOUS
10
125.954
20
-77.0467
11
125.96
21
-77.0503
0
LINE
8
BLACK
6
CONTINUOUS
10
125.96
20
-77.0503
11
125.964
21
-77.0545
0
LINE
8
BLACK
6
CONTINUOUS
10
125.964
20
-77.0545
11
125.968
21
-77.0583
0
LINE
8
BLACK
6
CONTINUOUS
10
125.968
20
-77.0583
11
126.015
21
-77.1046
0
LINE
8
BLACK
6
CONTINUOUS
10
126.015
20
-77.1046
11
126.015
21
-77.1049
0
LINE
8
BLACK
6
CONTINUOUS
10
126.015
20
-77.1049
11
126.015
21
-77.1049
0
LINE
8
BLACK
6
CONTINUOUS
10
126.015
20
-77.1049
11
126.015
21
-77.1049
0
LINE
8
BLACK
6
CONTINUOUS
10
126.015
20
-77.1049
11
126.016
21
-77.1059
0
LINE
8
BLACK
6
CONTINUOUS
10
126.016
20
-77.1059
11
126.023
21
-77.1151
0
LINE
8
BLACK
6
CONTINUOUS
10
126.023
20
-77.1151
11
126.031
21
-77.1241
0
LINE
8
BLACK
6
CONTINUOUS
10
126.031
20
-77.1241
11
126.031
21
-77.1247
0
LINE
8
BLACK
6
CONTINUOUS
10
126.031
20
-77.1247
11
126.032
21
-77.1252
0
LINE
8
BLACK
6
CONTINUOUS
10
126.032
20
-77.1252
11
126.037
21
-77.1357
0
LINE
8
BLACK
6
CONTINUOUS
10
126.037
20
-77.1357
11
126.042
21
-77.146
0
LINE
8
BLACK
6
CONTINUOUS
10
126.042
20
-77.146
11
126.043
21
-77.1466
0
LINE
8
BLACK
6
CONTINUOUS
10
126.043
20
-77.1466
11
126.043
21
-77.1472
0
LINE
8
BLACK
6
CONTINUOUS
10
126.043
20
-77.1472
11
126.046
21
-77.1585
0
LINE
8
BLACK
6
CONTINUOUS
10
126.046
20
-77.1585
11
126.05
21
-77.1697
0
LINE
8
BLACK
6
CONTINUOUS
10
126.05
20
-77.1697
11
126.05
21
-77.1704
0
LINE
8
BLACK
6
CONTINUOUS
10
126.05
20
-77.1704
11
126.05
21
-77.171
0
LINE
8
BLACK
6
CONTINUOUS
10
126.05
20
-77.171
11
126.051
21
-77.1827
0
LINE
8
BLACK
6
CONTINUOUS
10
126.051
20
-77.1827
11
126.052
21
-77.1944
0
LINE
8
BLACK
6
CONTINUOUS
10
126.052
20
-77.1944
11
126.052
21
-77.8692
0
LINE
8
BLACK
6
CONTINUOUS
10
126.052
20
-77.8692
11
126.052
21
-77.8709
0
LINE
8
BLACK
6
CONTINUOUS
10
126.052
20
-77.8709
11
126.051
21
-77.8763
0
LINE
8
BLACK
6
CONTINUOUS
10
126.051
20
-77.8763
11
126.051
21
-77.8816
0
LINE
8
BLACK
6
CONTINUOUS
10
126.051
20
-77.8816
11
126.048
21
-77.92
0
LINE
8
BLACK
6
CONTINUOUS
10
126.048
20
-77.92
11
126.065
21
-78.098
0
LINE
8
BLACK
6
CONTINUOUS
10
126.065
20
-78.098
11
126.117
21
-78.2692
0
LINE
8
BLACK
6
CONTINUOUS
10
126.117
20
-78.2692
11
126.201
21
-78.4269
0
LINE
8
BLACK
6
CONTINUOUS
10
126.201
20
-78.4269
11
126.24
21
-78.4736
0
LINE
8
BLACK
6
CONTINUOUS
10
126.24
20
-78.4736
11
126.24
21
-78.4737
0
LINE
8
BLACK
6
CONTINUOUS
10
126.24
20
-78.4737
11
126.315
21
-78.5652
0
LINE
8
BLACK
6
CONTINUOUS
10
126.315
20
-78.5652
11
126.345
21
-78.5896
0
LINE
8
BLACK
6
CONTINUOUS
10
126.345
20
-78.5896
11
126.346
21
-78.5908
0
LINE
8
BLACK
6
CONTINUOUS
10
126.346
20
-78.5908
11
126.35
21
-78.5946
0
LINE
8
BLACK
6
CONTINUOUS
10
126.35
20
-78.5946
11
126.354
21
-78.598
0
LINE
8
BLACK
6
CONTINUOUS
10
126.354
20
-78.598
11
127.236
21
-79.4802
0
LINE
8
BLACK
6
CONTINUOUS
10
127.236
20
-79.4802
11
127.237
21
-79.4811
0
LINE
8
BLACK
6
CONTINUOUS
10
127.237
20
-79.4811
11
127.237
21
-79.4811
0
LINE
8
BLACK
6
CONTINUOUS
10
127.237
20
-79.4811
11
127.237
21
-79.4812
0
LINE
8
BLACK
6
CONTINUOUS
10
127.237
20
-79.4812
11
127.237
21
-79.4815
0
LINE
8
BLACK
6
CONTINUOUS
10
127.237
20
-79.4815
11
127.245
21
-79.491
0
LINE
8
BLACK
6
CONTINUOUS
10
127.245
20
-79.491
11
127.253
21
-79.5005
0
LINE
8
BLACK
6
CONTINUOUS
10
127.253
20
-79.5005
11
127.253
21
-79.5007
0
LINE
8
BLACK
6
CONTINUOUS
10
127.253
20
-79.5007
11
127.253
21
-79.5008
0
LINE
8
BLACK
6
CONTINUOUS
10
127.253
20
-79.5008
11
127.258
21
-79.5117
0
LINE
8
BLACK
6
CONTINUOUS
10
127.258
20
-79.5117
11
127.264
21
-79.5224
0
LINE
8
BLACK
6
CONTINUOUS
10
127.264
20
-79.5224
11
127.264
21
-79.5226
0
LINE
8
BLACK
6
CONTINUOUS
10
127.264
20
-79.5226
11
127.264
21
-79.5228
0
LINE
8
BLACK
6
CONTINUOUS
10
127.264
20
-79.5228
11
127.268
21
-79.5346
0
LINE
8
BLACK
6
CONTINUOUS
10
127.268
20
-79.5346
11
127.271
21
-79.5462
0
LINE
8
BLACK
6
CONTINUOUS
10
127.271
20
-79.5462
11
127.271
21
-79.5464
0
LINE
8
BLACK
6
CONTINUOUS
10
127.271
20
-79.5464
11
127.271
21
-79.5466
0
LINE
8
BLACK
6
CONTINUOUS
10
127.271
20
-79.5466
11
127.272
21
-79.5587
0
LINE
8
BLACK
6
CONTINUOUS
10
127.272
20
-79.5587
11
127.273
21
-79.5709
0
LINE
8
BLACK
6
CONTINUOUS
10
127.273
20
-79.5709
11
127.273
21
-79.5711
0
LINE
8
BLACK
6
CONTINUOUS
10
127.273
20
-79.5711
11
127.273
21
-79.5713
0
LINE
8
BLACK
6
CONTINUOUS
10
127.273
20
-79.5713
11
127.272
21
-79.5834
0
LINE
8
BLACK
6
CONTINUOUS
10
127.272
20
-79.5834
11
127.271
21
-79.5955
0
LINE
8
BLACK
6
CONTINUOUS
10
127.271
20
-79.5955
11
127.271
21
-79.5958
0
LINE
8
BLACK
6
CONTINUOUS
10
127.271
20
-79.5958
11
127.271
21
-79.596
0
LINE
8
BLACK
6
CONTINUOUS
10
127.271
20
-79.596
11
127.267
21
-79.6074
0
LINE
8
BLACK
6
CONTINUOUS
10
127.267
20
-79.6074
11
127.263
21
-79.6192
0
LINE
8
BLACK
6
CONTINUOUS
10
127.263
20
-79.6192
11
127.263
21
-79.6194
0
LINE
8
BLACK
6
CONTINUOUS
10
127.263
20
-79.6194
11
127.263
21
-79.6196
0
LINE
8
BLACK
6
CONTINUOUS
10
127.263
20
-79.6196
11
127.257
21
-79.6301
0
LINE
8
BLACK
6
CONTINUOUS
10
127.257
20
-79.6301
11
127.252
21
-79.641
0
LINE
8
BLACK
6
CONTINUOUS
10
127.252
20
-79.641
11
127.251
21
-79.6412
0
LINE
8
BLACK
6
CONTINUOUS
10
127.251
20
-79.6412
11
127.251
21
-79.6414
0
LINE
8
BLACK
6
CONTINUOUS
10
127.251
20
-79.6414
11
127.244
21
-79.6505
0
LINE
8
BLACK
6
CONTINUOUS
10
127.244
20
-79.6505
11
127.236
21
-79.6601
0
LINE
8
BLACK
6
CONTINUOUS
10
127.236
20
-79.6601
11
127.236
21
-79.6603
0
LINE
8
BLACK
6
CONTINUOUS
10
127.236
20
-79.6603
11
127.235
21
-79.6604
0
LINE
8
BLACK
6
CONTINUOUS
10
127.235
20
-79.6604
11
127.226
21
-79.668
0
LINE
8
BLACK
6
CONTINUOUS
10
127.226
20
-79.668
11
127.217
21
-79.6758
0
LINE
8
BLACK
6
CONTINUOUS
10
127.217
20
-79.6758
11
127.216
21
-79.6759
0
LINE
8
BLACK
6
CONTINUOUS
10
127.216
20
-79.6759
11
127.216
21
-79.676
0
LINE
8
BLACK
6
CONTINUOUS
10
127.216
20
-79.676
11
127.206
21
-79.6816
0
LINE
8
BLACK
6
CONTINUOUS
10
127.206
20
-79.6816
11
127.195
21
-79.6874
0
LINE
8
BLACK
6
CONTINUOUS
10
127.195
20
-79.6874
11
127.194
21
-79.6875
0
LINE
8
BLACK
6
CONTINUOUS
10
127.194
20
-79.6875
11
127.194
21
-79.6876
0
LINE
8
BLACK
6
CONTINUOUS
10
127.194
20
-79.6876
11
127.183
21
-79.691
0
LINE
8
BLACK
6
CONTINUOUS
10
127.183
20
-79.691
11
127.171
21
-79.6946
0
LINE
8
BLACK
6
CONTINUOUS
10
127.171
20
-79.6946
11
127.171
21
-79.6946
0
LINE
8
BLACK
6
CONTINUOUS
10
127.171
20
-79.6946
11
127.171
21
-79.6947
0
LINE
8
BLACK
6
CONTINUOUS
10
127.171
20
-79.6947
11
127.158
21
-79.6958
0
LINE
8
BLACK
6
CONTINUOUS
10
127.158
20
-79.6958
11
127.146
21
-79.697
0
LINE
8
BLACK
6
CONTINUOUS
10
127.146
20
-79.697
11
124.214
21
-79.697
0
LINE
8
BLACK
6
CONTINUOUS
10
124.214
20
-79.697
11
124.213
21
-79.697
0
LINE
8
BLACK
6
CONTINUOUS
10
124.213
20
-79.697
11
124.213
21
-79.697
0
LINE
8
BLACK
6
CONTINUOUS
10
124.213
20
-79.697
11
124.213
21
-79.697
0
LINE
8
BLACK
6
CONTINUOUS
10
124.213
20
-79.697
11
124.212
21
-79.697
0
LINE
8
BLACK
6
CONTINUOUS
10
124.212
20
-79.697
11
124.2
21
-79.6957
0
LINE
8
BLACK
6
CONTINUOUS
10
124.2
20
-79.6957
11
124.189
21
-79.6945
0
LINE
8
BLACK
6
CONTINUOUS
10
124.189
20
-79.6945
11
124.188
21
-79.6943
0
LINE
8
BLACK
6
CONTINUOUS
10
124.188
20
-79.6943
11
124.187
21
-79.6942
0
LINE
8
BLACK
6
CONTINUOUS
10
124.187
20
-79.6942
11
124.176
21
-79.6907
0
LINE
8
BLACK
6
CONTINUOUS
10
124.176
20
-79.6907
11
124.165
21
-79.6872
0
LINE
8
BLACK
6
CONTINUOUS
10
124.165
20
-79.6872
11
124.164
21
-79.6869
0
LINE
8
BLACK
6
CONTINUOUS
10
124.164
20
-79.6869
11
124.164
21
-79.6867
0
LINE
8
BLACK
6
CONTINUOUS
10
124.164
20
-79.6867
11
124.153
21
-79.6811
0
LINE
8
BLACK
6
CONTINUOUS
10
124.153
20
-79.6811
11
124.143
21
-79.6755
0
LINE
8
BLACK
6
CONTINUOUS
10
124.143
20
-79.6755
11
124.143
21
-79.6751
0
LINE
8
BLACK
6
CONTINUOUS
10
124.143
20
-79.6751
11
124.142
21
-79.6748
0
LINE
8
BLACK
6
CONTINUOUS
10
124.142
20
-79.6748
11
124.133
21
-79.6672
0
LINE
8
BLACK
6
CONTINUOUS
10
124.133
20
-79.6672
11
124.124
21
-79.6598
0
LINE
8
BLACK
6
CONTINUOUS
10
124.124
20
-79.6598
11
121.554
21
-77.0898
0
LINE
8
BLACK
6
CONTINUOUS
10
121.554
20
-77.0898
11
120.325
21
-75.8611
0
LINE
8
BLACK
6
CONTINUOUS
10
120.325
20
-75.8611
11
120.325
21
-75.8608
0
LINE
8
BLACK
6
CONTINUOUS
10
120.325
20
-75.8608
11
120.325
21
-75.8608
0
LINE
8
BLACK
6
CONTINUOUS
10
120.325
20
-75.8608
11
120.325
21
-75.8608
0
LINE
8
BLACK
6
CONTINUOUS
10
120.325
20
-75.8608
11
120.324
21
-75.8598
0
LINE
8
BLACK
6
CONTINUOUS
10
120.324
20
-75.8598
11
120.317
21
-75.8507
0
LINE
8
BLACK
6
CONTINUOUS
10
120.317
20
-75.8507
11
120.309
21
-75.8416
0
LINE
8
BLACK
6
CONTINUOUS
10
120.309
20
-75.8416
11
120.309
21
-75.841
0
LINE
8
BLACK
6
CONTINUOUS
10
120.309
20
-75.841
11
120.308
21
-75.8405
0
LINE
8
BLACK
6
CONTINUOUS
10
120.308
20
-75.8405
11
120.303
21
-75.83
0
LINE
8
BLACK
6
CONTINUOUS
10
120.303
20
-75.83
11
120.298
21
-75.8197
0
LINE
8
BLACK
6
CONTINUOUS
10
120.298
20
-75.8197
11
120.297
21
-75.819
0
LINE
8
BLACK
6
CONTINUOUS
10
120.297
20
-75.819
11
120.297
21
-75.8185
0
LINE
8
BLACK
6
CONTINUOUS
10
120.297
20
-75.8185
11
120.294
21
-75.8072
0
LINE
8
BLACK
6
CONTINUOUS
10
120.294
20
-75.8072
11
120.29
21
-75.796
0
LINE
8
BLACK
6
CONTINUOUS
10
120.29
20
-75.796
11
120.29
21
-75.7953
0
LINE
8
BLACK
6
CONTINUOUS
10
120.29
20
-75.7953
11
120.29
21
-75.7947
0
LINE
8
BLACK
6
CONTINUOUS
10
120.29
20
-75.7947
11
120.289
21
-75.7829
0
LINE
8
BLACK
6
CONTINUOUS
10
120.289
20
-75.7829
11
120.288
21
-75.7713
0
LINE
8
BLACK
6
CONTINUOUS
10
120.288
20
-75.7713
11
120.288
21
-72.0607
0
LINE
8
BLACK
6
CONTINUOUS
10
120.288
20
-72.0607
11
120.288
21
-72.0602
0
LINE
8
BLACK
6
CONTINUOUS
10
123.236
20
-76.454
11
123.152
21
-76.5387
0
LINE
8
BLACK
6
CONTINUOUS
10
123.152
20
-76.5387
11
123.149
21
-76.9941
0
LINE
8
BLACK
6
CONTINUOUS
10
123.149
20
-76.9941
11
123.159
21
-77.0996
0
LINE
8
BLACK
6
CONTINUOUS
10
123.159
20
-77.0996
11
123.188
21
-77.1953
0
LINE
8
BLACK
6
CONTINUOUS
10
123.188
20
-77.1953
11
123.236
21
-77.2836
0
LINE
8
BLACK
6
CONTINUOUS
10
123.236
20
-77.2836
11
123.299
21
-77.3609
0
LINE
8
BLACK
6
CONTINUOUS
10
123.299
20
-77.3609
11
123.376
21
-77.4244
0
LINE
8
BLACK
6
CONTINUOUS
10
123.376
20
-77.4244
11
123.465
21
-77.4716
0
LINE
8
BLACK
6
CONTINUOUS
10
123.465
20
-77.4716
11
123.56
21
-77.5006
0
LINE
8
BLACK
6
CONTINUOUS
10
123.56
20
-77.5006
11
123.666
21
-77.511
0
LINE
8
BLACK
6
CONTINUOUS
10
123.666
20
-77.511
11
124.121
21
-77.5083
0
LINE
8
BLACK
6
CONTINUOUS
10
124.121
20
-77.5083
11
124.206
21
-77.4236
0
LINE
8
BLACK
6
CONTINUOUS
10
124.206
20
-77.4236
11
124.206
21
-77
0
LINE
8
BLACK
6
CONTINUOUS
10
124.206
20
-77
11
123.66
21
-77
0
LINE
8
BLACK
6
CONTINUOUS
10
123.66
20
-77
11
123.66
21
-76.454
0
LINE
8
BLACK
6
CONTINUOUS
10
123.66
20
-76.454
11
123.236
21
-76.454
0
LINE
8
BLACK
6
CONTINUOUS
10
123.56
20
-74.8994
11
123.465
21
-74.9284
0
LINE
8
BLACK
6
CONTINUOUS
10
123.465
20
-74.9284
11
123.376
21
-74.9756
0
LINE
8
BLACK
6
CONTINUOUS
10
123.376
20
-74.9756
11
123.299
21
-75.0391
0
LINE
8
BLACK
6
CONTINUOUS
10
123.299
20
-75.0391
11
123.236
21
-75.1164
0
LINE
8
BLACK
6
CONTINUOUS
10
123.236
20
-75.1164
11
123.188
21
-75.2047
0
LINE
8
BLACK
6
CONTINUOUS
10
123.188
20
-75.2047
11
123.159
21
-75.3004
0
LINE
8
BLACK
6
CONTINUOUS
10
123.159
20
-75.3004
11
123.149
21
-75.4059
0
LINE
8
BLACK
6
CONTINUOUS
10
123.149
20
-75.4059
11
123.152
21
-75.8613
0
LINE
8
BLACK
6
CONTINUOUS
10
123.152
20
-75.8613
11
123.236
21
-75.946
0
LINE
8
BLACK
6
CONTINUOUS
10
123.236
20
-75.946
11
123.66
21
-75.946
0
LINE
8
BLACK
6
CONTINUOUS
10
123.66
20
-75.946
11
123.66
21
-75.4
0
LINE
8
BLACK
6
CONTINUOUS
10
123.66
20
-75.4
11
124.06
21
-75.4
0
LINE
8
BLACK
6
CONTINUOUS
10
124.06
20
-75.4
11
124.06
21
-74.8913
0
LINE
8
BLACK
6
CONTINUOUS
10
124.06
20
-74.8913
11
123.666
21
-74.889
0
LINE
8
BLACK
6
CONTINUOUS
10
123.666
20
-74.889
11
123.56
21
-74.8994
0
LINE
8
BLACK
6
CONTINUOUS
10
121.276
20
-72.1229
11
121.308
21
-72.2355
0
LINE
8
BLACK
6
CONTINUOUS
10
121.308
20
-72.2355
11
121.493
21
-72.3225
0
LINE
8
BLACK
6
CONTINUOUS
10
121.493
20
-72.3225
11
121.736
21
-72.3827
0
LINE
8
BLACK
6
CONTINUOUS
10
121.736
20
-72.3827
11
121.985
21
-72.3945
0
LINE
8
BLACK
6
CONTINUOUS
10
121.985
20
-72.3945
11
122.233
21
-72.3572
0
LINE
8
BLACK
6
CONTINUOUS
10
122.233
20
-72.3572
11
122.471
21
-72.2713
0
LINE
8
BLACK
6
CONTINUOUS
10
122.471
20
-72.2713
11
122.494
21
-72.2593
0
LINE
8
BLACK
6
CONTINUOUS
10
122.494
20
-72.2593
11
122.096
21
-71.8619
0
LINE
8
BLACK
6
CONTINUOUS
10
122.096
20
-71.8619
11
121.995
21
-71.882
0
LINE
8
BLACK
6
CONTINUOUS
10
121.995
20
-71.882
11
121.845
21
-71.882
0
LINE
8
BLACK
6
CONTINUOUS
10
121.845
20
-71.882
11
121.698
21
-71.8527
0
LINE
8
BLACK
6
CONTINUOUS
10
121.698
20
-71.8527
11
121.591
21
-71.8084
0
LINE
8
BLACK
6
CONTINUOUS
10
121.591
20
-71.8084
11
121.276
21
-72.1229
0
LINE
8
BLACK
6
CONTINUOUS
10
122.886
20
-71.52
11
123.055
21
-71.6898
0
LINE
8
BLACK
6
CONTINUOUS
10
123.055
20
-71.6898
11
123.123
21
-71.5472
0
LINE
8
BLACK
6
CONTINUOUS
10
123.123
20
-71.5472
11
123.129
21
-71.52
0
LINE
8
BLACK
6
CONTINUOUS
10
123.129
20
-71.52
11
122.886
21
-71.52
0
LINE
8
BLACK
6
CONTINUOUS
10
122.679
20
-70.72
11
123.126
21
-70.72
0
LINE
8
BLACK
6
CONTINUOUS
10
123.126
20
-70.72
11
123.071
21
-70.5687
0
LINE
8
BLACK
6
CONTINUOUS
10
123.071
20
-70.5687
11
123.039
21
-70.5088
0
LINE
8
BLACK
6
CONTINUOUS
10
123.039
20
-70.5088
11
122.923
21
-70.4763
0
LINE
8
BLACK
6
CONTINUOUS
10
122.923
20
-70.4763
11
122.679
21
-70.72
0
LINE
8
BLACK
6
CONTINUOUS
10
133.542
20
-59.105
11
133.542
21
-59.105
0
LINE
8
BLACK
6
CONTINUOUS
10
133.542
20
-59.105
11
133.6
21
-59.1108
0
LINE
8
BLACK
6
CONTINUOUS
10
133.6
20
-59.1108
11
133.676
21
-59.1336
0
LINE
8
BLACK
6
CONTINUOUS
10
133.676
20
-59.1336
11
133.745
21
-59.1708
0
LINE
8
BLACK
6
CONTINUOUS
10
133.745
20
-59.1708
11
133.806
21
-59.2208
0
LINE
8
BLACK
6
CONTINUOUS
10
133.806
20
-59.2208
11
133.819
21
-59.236
0
LINE
8
BLACK
6
CONTINUOUS
10
133.819
20
-59.236
11
135.314
21
-60.7313
0
LINE
8
BLACK
6
CONTINUOUS
10
135.314
20
-60.7313
11
135.329
21
-60.7438
0
LINE
8
BLACK
6
CONTINUOUS
10
135.329
20
-60.7438
11
135.379
21
-60.8047
0
LINE
8
BLACK
6
CONTINUOUS
10
135.379
20
-60.8047
11
135.416
21
-60.8742
0
LINE
8
BLACK
6
CONTINUOUS
10
135.416
20
-60.8742
11
135.426
21
-60.905
0
LINE
8
BLACK
6
CONTINUOUS
10
135.426
20
-60.905
11
135.439
21
-60.9496
0
LINE
8
BLACK
6
CONTINUOUS
10
135.439
20
-60.9496
11
135.447
21
-61.028
0
LINE
8
BLACK
6
CONTINUOUS
10
135.447
20
-61.028
11
135.445
21
-61.0477
0
LINE
8
BLACK
6
CONTINUOUS
10
135.445
20
-61.0477
11
135.445
21
-68.0853
0
LINE
8
BLACK
6
CONTINUOUS
10
135.445
20
-68.0853
11
135.447
21
-68.105
0
LINE
8
BLACK
6
CONTINUOUS
10
135.447
20
-68.105
11
135.445
21
-68.1246
0
LINE
8
BLACK
6
CONTINUOUS
10
135.445
20
-68.1246
11
135.445
21
-68.1246
0
LINE
8
BLACK
6
CONTINUOUS
10
135.445
20
-68.1246
11
135.439
21
-68.1834
0
LINE
8
BLACK
6
CONTINUOUS
10
135.439
20
-68.1834
11
135.416
21
-68.2588
0
LINE
8
BLACK
6
CONTINUOUS
10
135.416
20
-68.2588
11
135.379
21
-68.3283
0
LINE
8
BLACK
6
CONTINUOUS
10
135.379
20
-68.3283
11
135.329
21
-68.3892
0
LINE
8
BLACK
6
CONTINUOUS
10
135.329
20
-68.3892
11
135.314
21
-68.4017
0
LINE
8
BLACK
6
CONTINUOUS
10
135.314
20
-68.4017
11
132.842
21
-70.8739
0
LINE
8
BLACK
6
CONTINUOUS
10
132.842
20
-70.8739
11
132.829
21
-70.8892
0
LINE
8
BLACK
6
CONTINUOUS
10
132.829
20
-70.8892
11
132.768
21
-70.9392
0
LINE
8
BLACK
6
CONTINUOUS
10
132.768
20
-70.9392
11
132.699
21
-70.9763
0
LINE
8
BLACK
6
CONTINUOUS
10
132.699
20
-70.9763
11
132.623
21
-70.9992
0
LINE
8
BLACK
6
CONTINUOUS
10
132.623
20
-70.9992
11
132.565
21
-71.005
0
LINE
8
BLACK
6
CONTINUOUS
10
132.565
20
-71.005
11
132.565
21
-71.005
0
LINE
8
BLACK
6
CONTINUOUS
10
132.565
20
-71.005
11
132.545
21
-71.0069
0
LINE
8
BLACK
6
CONTINUOUS
10
132.545
20
-71.0069
11
132.525
21
-71.005
0
LINE
8
BLACK
6
CONTINUOUS
10
132.525
20
-71.005
11
132.445
21
-71.005
0
LINE
8
BLACK
6
CONTINUOUS
10
132.445
20
-71.005
11
132.445
21
-71.605
0
LINE
8
BLACK
6
CONTINUOUS
10
132.445
20
-71.605
11
130.445
21
-71.605
0
LINE
8
BLACK
6
CONTINUOUS
10
130.445
20
-71.605
11
130.445
21
-69.605
0
LINE
8
BLACK
6
CONTINUOUS
10
130.445
20
-69.605
11
132.445
21
-69.605
0
LINE
8
BLACK
6
CONTINUOUS
10
132.445
20
-69.605
11
132.445
21
-70.1393
0
LINE
8
BLACK
6
CONTINUOUS
10
132.445
20
-70.1393
11
134.645
21
-67.9393
0
LINE
8
BLACK
6
CONTINUOUS
10
134.645
20
-67.9393
11
134.645
21
-61.1937
0
LINE
8
BLACK
6
CONTINUOUS
10
134.645
20
-61.1937
11
133.356
21
-59.905
0
LINE
8
BLACK
6
CONTINUOUS
10
133.356
20
-59.905
11
129.458
21
-59.905
0
LINE
8
BLACK
6
CONTINUOUS
10
129.458
20
-59.905
11
125.594
21
-63.7689
0
LINE
8
BLACK
6
CONTINUOUS
10
125.594
20
-63.7689
11
125.582
21
-63.7842
0
LINE
8
BLACK
6
CONTINUOUS
10
125.582
20
-63.7842
11
125.521
21
-63.8342
0
LINE
8
BLACK
6
CONTINUOUS
10
125.521
20
-63.8342
11
125.451
21
-63.8713
0
LINE
8
BLACK
6
CONTINUOUS
10
125.451
20
-63.8713
11
125.376
21
-63.8942
0
LINE
8
BLACK
6
CONTINUOUS
10
125.376
20
-63.8942
11
125.317
21
-63.9
0
LINE
8
BLACK
6
CONTINUOUS
10
125.317
20
-63.9
11
125.317
21
-63.9
0
LINE
8
BLACK
6
CONTINUOUS
10
125.317
20
-63.9
11
125.297
21
-63.9019
0
LINE
8
BLACK
6
CONTINUOUS
10
125.297
20
-63.9019
11
125.278
21
-63.9
0
LINE
8
BLACK
6
CONTINUOUS
10
125.278
20
-63.9
11
122.569
21
-63.9
0
LINE
8
BLACK
6
CONTINUOUS
10
122.569
20
-63.9
11
122.512
21
-63.9857
0
LINE
8
BLACK
6
CONTINUOUS
10
122.512
20
-63.9857
11
122.406
21
-64.0919
0
LINE
8
BLACK
6
CONTINUOUS
10
122.406
20
-64.0919
11
122.281
21
-64.1753
0
LINE
8
BLACK
6
CONTINUOUS
10
122.281
20
-64.1753
11
122.142
21
-64.2327
0
LINE
8
BLACK
6
CONTINUOUS
10
122.142
20
-64.2327
11
121.995
21
-64.262
0
LINE
8
BLACK
6
CONTINUOUS
10
121.995
20
-64.262
11
121.845
21
-64.262
0
LINE
8
BLACK
6
CONTINUOUS
10
121.845
20
-64.262
11
121.698
21
-64.2327
0
LINE
8
BLACK
6
CONTINUOUS
10
121.698
20
-64.2327
11
121.559
21
-64.1753
0
LINE
8
BLACK
6
CONTINUOUS
10
121.559
20
-64.1753
11
121.434
21
-64.0919
0
LINE
8
BLACK
6
CONTINUOUS
10
121.434
20
-64.0919
11
121.328
21
-63.9857
0
LINE
8
BLACK
6
CONTINUOUS
10
121.328
20
-63.9857
11
121.245
21
-63.8609
0
LINE
8
BLACK
6
CONTINUOUS
10
121.245
20
-63.8609
11
121.187
21
-63.7223
0
LINE
8
BLACK
6
CONTINUOUS
10
121.187
20
-63.7223
11
121.158
21
-63.575
0
LINE
8
BLACK
6
CONTINUOUS
10
121.158
20
-63.575
11
121.158
21
-63.4249
0
LINE
8
BLACK
6
CONTINUOUS
10
121.158
20
-63.4249
11
121.187
21
-63.2777
0
LINE
8
BLACK
6
CONTINUOUS
10
121.187
20
-63.2777
11
121.245
21
-63.1391
0
LINE
8
BLACK
6
CONTINUOUS
10
121.245
20
-63.1391
11
121.328
21
-63.0143
0
LINE
8
BLACK
6
CONTINUOUS
10
121.328
20
-63.0143
11
121.434
21
-62.9081
0
LINE
8
BLACK
6
CONTINUOUS
10
121.434
20
-62.9081
11
121.559
21
-62.8247
0
LINE
8
BLACK
6
CONTINUOUS
10
121.559
20
-62.8247
11
121.698
21
-62.7673
0
LINE
8
BLACK
6
CONTINUOUS
10
121.698
20
-62.7673
11
121.845
21
-62.738
0
LINE
8
BLACK
6
CONTINUOUS
10
121.845
20
-62.738
11
121.995
21
-62.738
0
LINE
8
BLACK
6
CONTINUOUS
10
121.995
20
-62.738
11
122.142
21
-62.7673
0
LINE
8
BLACK
6
CONTINUOUS
10
122.142
20
-62.7673
11
122.281
21
-62.8247
0
LINE
8
BLACK
6
CONTINUOUS
10
122.281
20
-62.8247
11
122.406
21
-62.9081
0
LINE
8
BLACK
6
CONTINUOUS
10
122.406
20
-62.9081
11
122.512
21
-63.0143
0
LINE
8
BLACK
6
CONTINUOUS
10
122.512
20
-63.0143
11
122.569
21
-63.1
0
LINE
8
BLACK
6
CONTINUOUS
10
122.569
20
-63.1
11
125.132
21
-63.1
0
LINE
8
BLACK
6
CONTINUOUS
10
125.132
20
-63.1
11
128.996
21
-59.236
0
LINE
8
BLACK
6
CONTINUOUS
10
128.996
20
-59.236
11
129.008
21
-59.2208
0
LINE
8
BLACK
6
CONTINUOUS
10
129.008
20
-59.2208
11
129.069
21
-59.1708
0
LINE
8
BLACK
6
CONTINUOUS
10
129.069
20
-59.1708
11
129.139
21
-59.1336
0
LINE
8
BLACK
6
CONTINUOUS
10
129.139
20
-59.1336
11
129.214
21
-59.1108
0
LINE
8
BLACK
6
CONTINUOUS
10
129.214
20
-59.1108
11
129.273
21
-59.105
0
LINE
8
BLACK
6
CONTINUOUS
10
129.273
20
-59.105
11
129.292
21
-59.103
0
LINE
8
BLACK
6
CONTINUOUS
10
129.292
20
-59.103
11
129.312
21
-59.105
0
LINE
8
BLACK
6
CONTINUOUS
10
129.312
20
-59.105
11
133.502
21
-59.105
0
LINE
8
BLACK
6
CONTINUOUS
10
133.502
20
-59.105
11
133.522
21
-59.103
0
LINE
8
BLACK
6
CONTINUOUS
10
133.522
20
-59.103
11
133.542
21
-59.105
0
LINE
8
BLACK
6
CONTINUOUS
10
122.512
20
-69.0657
11
122.406
21
-69.1719
0
LINE
8
BLACK
6
CONTINUOUS
10
122.406
20
-69.1719
11
122.281
21
-69.2553
0
LINE
8
BLACK
6
CONTINUOUS
10
122.281
20
-69.2553
11
122.142
21
-69.3127
0
LINE
8
BLACK
6
CONTINUOUS
10
122.142
20
-69.3127
11
121.995
21
-69.342
0
LINE
8
BLACK
6
CONTINUOUS
10
121.995
20
-69.342
11
121.845
21
-69.342
0
LINE
8
BLACK
6
CONTINUOUS
10
121.845
20
-69.342
11
121.698
21
-69.3127
0
LINE
8
BLACK
6
CONTINUOUS
10
121.698
20
-69.3127
11
121.559
21
-69.2553
0
LINE
8
BLACK
6
CONTINUOUS
10
121.559
20
-69.2553
11
121.434
21
-69.1719
0
LINE
8
BLACK
6
CONTINUOUS
10
121.434
20
-69.1719
11
121.328
21
-69.0657
0
LINE
8
BLACK
6
CONTINUOUS
10
121.328
20
-69.0657
11
121.245
21
-68.9409
0
LINE
8
BLACK
6
CONTINUOUS
10
121.245
20
-68.9409
11
121.187
21
-68.8023
0
LINE
8
BLACK
6
CONTINUOUS
10
121.187
20
-68.8023
11
121.158
21
-68.6551
0
LINE
8
BLACK
6
CONTINUOUS
10
121.158
20
-68.6551
11
121.158
21
-68.5049
0
LINE
8
BLACK
6
CONTINUOUS
10
121.158
20
-68.5049
11
121.187
21
-68.3577
0
LINE
8
BLACK
6
CONTINUOUS
10
121.187
20
-68.3577
11
121.245
21
-68.2191
0
LINE
8
BLACK
6
CONTINUOUS
10
121.245
20
-68.2191
11
121.328
21
-68.0943
0
LINE
8
BLACK
6
CONTINUOUS
10
121.328
20
-68.0943
11
121.434
21
-67.9881
0
LINE
8
BLACK
6
CONTINUOUS
10
121.434
20
-67.9881
11
121.559
21
-67.9047
0
LINE
8
BLACK
6
CONTINUOUS
10
121.559
20
-67.9047
11
121.698
21
-67.8473
0
LINE
8
BLACK
6
CONTINUOUS
10
121.698
20
-67.8473
11
121.845
21
-67.818
0
LINE
8
BLACK
6
CONTINUOUS
10
121.845
20
-67.818
11
121.995
21
-67.818
0
LINE
8
BLACK
6
CONTINUOUS
10
121.995
20
-67.818
11
122.142
21
-67.8473
0
LINE
8
BLACK
6
CONTINUOUS
10
122.142
20
-67.8473
11
122.281
21
-67.9047
0
LINE
8
BLACK
6
CONTINUOUS
10
122.281
20
-67.9047
11
122.406
21
-67.9881
0
LINE
8
BLACK
6
CONTINUOUS
10
122.406
20
-67.9881
11
122.512
21
-68.0943
0
LINE
8
BLACK
6
CONTINUOUS
10
122.512
20
-68.0943
11
122.569
21
-68.18
0
LINE
8
BLACK
6
CONTINUOUS
10
122.569
20
-68.18
11
122.88
21
-68.18
0
LINE
8
BLACK
6
CONTINUOUS
10
122.88
20
-68.18
11
129.824
21
-61.236
0
LINE
8
BLACK
6
CONTINUOUS
10
129.824
20
-61.236
11
129.837
21
-61.2208
0
LINE
8
BLACK
6
CONTINUOUS
10
129.837
20
-61.2208
11
129.852
21
-61.2083
0
LINE
8
BLACK
6
CONTINUOUS
10
129.852
20
-61.2083
11
129.852
21
-61.2083
0
LINE
8
BLACK
6
CONTINUOUS
10
129.852
20
-61.2083
11
129.865
21
-61.1972
0
LINE
8
BLACK
6
CONTINUOUS
10
129.865
20
-61.1972
11
129.897
21
-61.1708
0
LINE
8
BLACK
6
CONTINUOUS
10
129.897
20
-61.1708
11
129.967
21
-61.1336
0
LINE
8
BLACK
6
CONTINUOUS
10
129.967
20
-61.1336
11
130.042
21
-61.1108
0
LINE
8
BLACK
6
CONTINUOUS
10
130.042
20
-61.1108
11
130.101
21
-61.105
0
LINE
8
BLACK
6
CONTINUOUS
10
130.101
20
-61.105
11
130.101
21
-61.105
0
LINE
8
BLACK
6
CONTINUOUS
10
130.101
20
-61.105
11
130.121
21
-61.1031
0
LINE
8
BLACK
6
CONTINUOUS
10
130.121
20
-61.1031
11
130.14
21
-61.105
0
LINE
8
BLACK
6
CONTINUOUS
10
130.14
20
-61.105
11
132.674
21
-61.105
0
LINE
8
BLACK
6
CONTINUOUS
10
132.674
20
-61.105
11
132.694
21
-61.1031
0
LINE
8
BLACK
6
CONTINUOUS
10
132.694
20
-61.1031
11
132.713
21
-61.105
0
LINE
8
BLACK
6
CONTINUOUS
10
132.713
20
-61.105
11
132.713
21
-61.105
0
LINE
8
BLACK
6
CONTINUOUS
10
132.713
20
-61.105
11
132.772
21
-61.1108
0
LINE
8
BLACK
6
CONTINUOUS
10
132.772
20
-61.1108
11
132.847
21
-61.1336
0
LINE
8
BLACK
6
CONTINUOUS
10
132.847
20
-61.1336
11
132.917
21
-61.1708
0
LINE
8
BLACK
6
CONTINUOUS
10
132.917
20
-61.1708
11
132.978
21
-61.2208
0
LINE
8
BLACK
6
CONTINUOUS
10
132.978
20
-61.2208
11
132.99
21
-61.236
0
LINE
8
BLACK
6
CONTINUOUS
10
132.99
20
-61.236
11
133.314
21
-61.5597
0
LINE
8
BLACK
6
CONTINUOUS
10
133.314
20
-61.5597
11
133.329
21
-61.5723
0
LINE
8
BLACK
6
CONTINUOUS
10
133.329
20
-61.5723
11
133.379
21
-61.6332
0
LINE
8
BLACK
6
CONTINUOUS
10
133.379
20
-61.6332
11
133.416
21
-61.7027
0
LINE
8
BLACK
6
CONTINUOUS
10
133.416
20
-61.7027
11
133.439
21
-61.7781
0
LINE
8
BLACK
6
CONTINUOUS
10
133.439
20
-61.7781
11
133.445
21
-61.8368
0
LINE
8
BLACK
6
CONTINUOUS
10
133.445
20
-61.8368
11
133.445
21
-61.8368
0
LINE
8
BLACK
6
CONTINUOUS
10
133.445
20
-61.8368
11
133.447
21
-61.8565
0
LINE
8
BLACK
6
CONTINUOUS
10
133.447
20
-61.8565
11
133.445
21
-61.8761
0
LINE
8
BLACK
6
CONTINUOUS
10
133.445
20
-61.8761
11
133.445
21
-64.3339
0
LINE
8
BLACK
6
CONTINUOUS
10
133.445
20
-64.3339
11
133.447
21
-64.3535
0
LINE
8
BLACK
6
CONTINUOUS
10
133.447
20
-64.3535
11
133.445
21
-64.3732
0
LINE
8
BLACK
6
CONTINUOUS
10
133.445
20
-64.3732
11
133.445
21
-64.3732
0
LINE
8
BLACK
6
CONTINUOUS
10
133.445
20
-64.3732
11
133.439
21
-64.4319
0
LINE
8
BLACK
6
CONTINUOUS
10
133.439
20
-64.4319
11
133.416
21
-64.5073
0
LINE
8
BLACK
6
CONTINUOUS
10
133.416
20
-64.5073
11
133.379
21
-64.5768
0
LINE
8
BLACK
6
CONTINUOUS
10
133.379
20
-64.5768
11
133.378
21
-64.5786
0
LINE
8
BLACK
6
CONTINUOUS
10
133.378
20
-64.5786
11
133.344
21
-64.6192
0
LINE
8
BLACK
6
CONTINUOUS
10
133.344
20
-64.6192
11
133.329
21
-64.6377
0
LINE
8
BLACK
6
CONTINUOUS
10
133.329
20
-64.6377
11
133.314
21
-64.6503
0
LINE
8
BLACK
6
CONTINUOUS
10
133.314
20
-64.6503
11
132.445
21
-65.5192
0
LINE
8
BLACK
6
CONTINUOUS
10
132.445
20
-65.5192
11
132.445
21
-66.605
0
LINE
8
BLACK
6
CONTINUOUS
10
132.445
20
-66.605
11
130.445
21
-66.605
0
LINE
8
BLACK
6
CONTINUOUS
10
130.445
20
-66.605
11
130.445
21
-64.605
0
LINE
8
BLACK
6
CONTINUOUS
10
130.445
20
-64.605
11
132.228
21
-64.605
0
LINE
8
BLACK
6
CONTINUOUS
10
132.228
20
-64.605
11
132.645
21
-64.1878
0
LINE
8
BLACK
6
CONTINUOUS
10
132.645
20
-64.1878
11
132.645
21
-62.0222
0
LINE
8
BLACK
6
CONTINUOUS
10
132.645
20
-62.0222
11
132.528
21
-61.905
0
LINE
8
BLACK
6
CONTINUOUS
10
132.528
20
-61.905
11
130.286
21
-61.905
0
LINE
8
BLACK
6
CONTINUOUS
10
130.286
20
-61.905
11
123.343
21
-68.8489
0
LINE
8
BLACK
6
CONTINUOUS
10
123.343
20
-68.8489
11
123.33
21
-68.8642
0
LINE
8
BLACK
6
CONTINUOUS
10
123.33
20
-68.8642
11
123.269
21
-68.9142
0
LINE
8
BLACK
6
CONTINUOUS
10
123.269
20
-68.9142
11
123.2
21
-68.9513
0
LINE
8
BLACK
6
CONTINUOUS
10
123.2
20
-68.9513
11
123.124
21
-68.9742
0
LINE
8
BLACK
6
CONTINUOUS
10
123.124
20
-68.9742
11
123.065
21
-68.98
0
LINE
8
BLACK
6
CONTINUOUS
10
123.065
20
-68.98
11
123.065
21
-68.98
0
LINE
8
BLACK
6
CONTINUOUS
10
123.065
20
-68.98
11
123.046
21
-68.9819
0
LINE
8
BLACK
6
CONTINUOUS
10
123.046
20
-68.9819
11
123.026
21
-68.98
0
LINE
8
BLACK
6
CONTINUOUS
10
123.026
20
-68.98
11
122.569
21
-68.98
0
LINE
8
BLACK
6
CONTINUOUS
10
122.569
20
-68.98
11
122.512
21
-69.0657
0
LINE
8
BLACK
6
CONTINUOUS
10
133.127
20
-60.105
11
133.127
21
-60.105
0
LINE
8
BLACK
6
CONTINUOUS
10
133.127
20
-60.105
11
133.186
21
-60.1108
0
LINE
8
BLACK
6
CONTINUOUS
10
133.186
20
-60.1108
11
133.262
21
-60.1336
0
LINE
8
BLACK
6
CONTINUOUS
10
133.262
20
-60.1336
11
133.331
21
-60.1708
0
LINE
8
BLACK
6
CONTINUOUS
10
133.331
20
-60.1708
11
133.392
21
-60.2208
0
LINE
8
BLACK
6
CONTINUOUS
10
133.392
20
-60.2208
11
133.404
21
-60.236
0
LINE
8
BLACK
6
CONTINUOUS
10
133.404
20
-60.236
11
134.314
21
-61.1455
0
LINE
8
BLACK
6
CONTINUOUS
10
134.314
20
-61.1455
11
134.329
21
-61.158
0
LINE
8
BLACK
6
CONTINUOUS
10
134.329
20
-61.158
11
134.37
21
-61.2083
0
LINE
8
BLACK
6
CONTINUOUS
10
134.37
20
-61.2083
11
134.379
21
-61.2189
0
LINE
8
BLACK
6
CONTINUOUS
10
134.379
20
-61.2189
11
134.416
21
-61.2884
0
LINE
8
BLACK
6
CONTINUOUS
10
134.416
20
-61.2884
11
134.439
21
-61.3638
0
LINE
8
BLACK
6
CONTINUOUS
10
134.439
20
-61.3638
11
134.447
21
-61.4422
0
LINE
8
BLACK
6
CONTINUOUS
10
134.447
20
-61.4422
11
134.445
21
-61.4619
0
LINE
8
BLACK
6
CONTINUOUS
10
134.445
20
-61.4619
11
134.445
21
-66.5853
0
LINE
8
BLACK
6
CONTINUOUS
10
134.445
20
-66.5853
11
134.447
21
-66.605
0
LINE
8
BLACK
6
CONTINUOUS
10
134.447
20
-66.605
11
134.445
21
-66.6246
0
LINE
8
BLACK
6
CONTINUOUS
10
134.445
20
-66.6246
11
134.445
21
-66.6246
0
LINE
8
BLACK
6
CONTINUOUS
10
134.445
20
-66.6246
11
134.439
21
-66.6834
0
LINE
8
BLACK
6
CONTINUOUS
10
134.439
20
-66.6834
11
134.416
21
-66.7588
0
LINE
8
BLACK
6
CONTINUOUS
10
134.416
20
-66.7588
11
134.379
21
-66.8283
0
LINE
8
BLACK
6
CONTINUOUS
10
134.379
20
-66.8283
11
134.329
21
-66.8892
0
LINE
8
BLACK
6
CONTINUOUS
10
134.329
20
-66.8892
11
134.314
21
-66.9017
0
LINE
8
BLACK
6
CONTINUOUS
10
134.314
20
-66.9017
11
132.842
21
-68.3739
0
LINE
8
BLACK
6
CONTINUOUS
10
132.842
20
-68.3739
11
132.829
21
-68.3892
0
LINE
8
BLACK
6
CONTINUOUS
10
132.829
20
-68.3892
11
132.768
21
-68.4392
0
LINE
8
BLACK
6
CONTINUOUS
10
132.768
20
-68.4392
11
132.699
21
-68.4763
0
LINE
8
BLACK
6
CONTINUOUS
10
132.699
20
-68.4763
11
132.623
21
-68.4992
0
LINE
8
BLACK
6
CONTINUOUS
10
132.623
20
-68.4992
11
132.565
21
-68.505
0
LINE
8
BLACK
6
CONTINUOUS
10
132.565
20
-68.505
11
132.565
21
-68.505
0
LINE
8
BLACK
6
CONTINUOUS
10
132.565
20
-68.505
11
132.545
21
-68.5069
0
LINE
8
BLACK
6
CONTINUOUS
10
132.545
20
-68.5069
11
132.525
21
-68.505
0
LINE
8
BLACK
6
CONTINUOUS
10
132.525
20
-68.505
11
132.445
21
-68.505
0
LINE
8
BLACK
6
CONTINUOUS
10
132.445
20
-68.505
11
132.445
21
-69.105
0
LINE
8
BLACK
6
CONTINUOUS
10
132.445
20
-69.105
11
130.445
21
-69.105
0
LINE
8
BLACK
6
CONTINUOUS
10
130.445
20
-69.105
11
130.445
21
-67.105
0
LINE
8
BLACK
6
CONTINUOUS
10
130.445
20
-67.105
11
132.445
21
-67.105
0
LINE
8
BLACK
6
CONTINUOUS
10
132.445
20
-67.105
11
132.445
21
-67.6393
0
LINE
8
BLACK
6
CONTINUOUS
10
132.445
20
-67.6393
11
133.645
21
-66.4393
0
LINE
8
BLACK
6
CONTINUOUS
10
133.645
20
-66.4393
11
133.645
21
-61.6079
0
LINE
8
BLACK
6
CONTINUOUS
10
133.645
20
-61.6079
11
132.942
21
-60.905
0
LINE
8
BLACK
6
CONTINUOUS
10
132.942
20
-60.905
11
129.872
21
-60.905
0
LINE
8
BLACK
6
CONTINUOUS
10
129.872
20
-60.905
11
124.468
21
-66.3089
0
LINE
8
BLACK
6
CONTINUOUS
10
124.468
20
-66.3089
11
124.456
21
-66.3242
0
LINE
8
BLACK
6
CONTINUOUS
10
124.456
20
-66.3242
11
124.395
21
-66.3742
0
LINE
8
BLACK
6
CONTINUOUS
10
124.395
20
-66.3742
11
124.325
21
-66.4113
0
LINE
8
BLACK
6
CONTINUOUS
10
124.325
20
-66.4113
11
124.25
21
-66.4342
0
LINE
8
BLACK
6
CONTINUOUS
10
124.25
20
-66.4342
11
124.191
21
-66.44
0
LINE
8
BLACK
6
CONTINUOUS
10
124.191
20
-66.44
11
124.191
21
-66.44
0
LINE
8
BLACK
6
CONTINUOUS
10
124.191
20
-66.44
11
124.172
21
-66.4419
0
LINE
8
BLACK
6
CONTINUOUS
10
124.172
20
-66.4419
11
124.152
21
-66.44
0
LINE
8
BLACK
6
CONTINUOUS
10
124.152
20
-66.44
11
122.569
21
-66.44
0
LINE
8
BLACK
6
CONTINUOUS
10
122.569
20
-66.44
11
122.512
21
-66.5257
0
LINE
8
BLACK
6
CONTINUOUS
10
122.512
20
-66.5257
11
122.406
21
-66.6319
0
LINE
8
BLACK
6
CONTINUOUS
10
122.406
20
-66.6319
11
122.281
21
-66.7153
0
LINE
8
BLACK
6
CONTINUOUS
10
122.281
20
-66.7153
11
122.142
21
-66.7727
0
LINE
8
BLACK
6
CONTINUOUS
10
122.142
20
-66.7727
11
121.995
21
-66.802
0
LINE
8
BLACK
6
CONTINUOUS
10
121.995
20
-66.802
11
121.845
21
-66.802
0
LINE
8
BLACK
6
CONTINUOUS
10
121.845
20
-66.802
11
121.698
21
-66.7727
0
LINE
8
BLACK
6
CONTINUOUS
10
121.698
20
-66.7727
11
121.559
21
-66.7153
0
LINE
8
BLACK
6
CONTINUOUS
10
121.559
20
-66.7153
11
121.434
21
-66.6319
0
LINE
8
BLACK
6
CONTINUOUS
10
121.434
20
-66.6319
11
121.328
21
-66.5257
0
LINE
8
BLACK
6
CONTINUOUS
10
121.328
20
-66.5257
11
121.245
21
-66.4009
0
LINE
8
BLACK
6
CONTINUOUS
10
121.245
20
-66.4009
11
121.187
21
-66.2623
0
LINE
8
BLACK
6
CONTINUOUS
10
121.187
20
-66.2623
11
121.158
21
-66.115
0
LINE
8
BLACK
6
CONTINUOUS
10
121.158
20
-66.115
11
121.158
21
-65.965
0
LINE
8
BLACK
6
CONTINUOUS
10
121.158
20
-65.965
11
121.187
21
-65.8177
0
LINE
8
BLACK
6
CONTINUOUS
10
121.187
20
-65.8177
11
121.245
21
-65.6791
0
LINE
8
BLACK
6
CONTINUOUS
10
121.245
20
-65.6791
11
121.328
21
-65.5543
0
LINE
8
BLACK
6
CONTINUOUS
10
121.328
20
-65.5543
11
121.434
21
-65.4481
0
LINE
8
BLACK
6
CONTINUOUS
10
121.434
20
-65.4481
11
121.559
21
-65.3647
0
LINE
8
BLACK
6
CONTINUOUS
10
121.559
20
-65.3647
11
121.698
21
-65.3073
0
LINE
8
BLACK
6
CONTINUOUS
10
121.698
20
-65.3073
11
121.845
21
-65.278
0
LINE
8
BLACK
6
CONTINUOUS
10
121.845
20
-65.278
11
121.995
21
-65.278
0
LINE
8
BLACK
6
CONTINUOUS
10
121.995
20
-65.278
11
122.142
21
-65.3073
0
LINE
8
BLACK
6
CONTINUOUS
10
122.142
20
-65.3073
11
122.281
21
-65.3647
0
LINE
8
BLACK
6
CONTINUOUS
10
122.281
20
-65.3647
11
122.406
21
-65.4481
0
LINE
8
BLACK
6
CONTINUOUS
10
122.406
20
-65.4481
11
122.512
21
-65.5543
0
LINE
8
BLACK
6
CONTINUOUS
10
122.512
20
-65.5543
11
122.569
21
-65.64
0
LINE
8
BLACK
6
CONTINUOUS
10
122.569
20
-65.64
11
124.006
21
-65.64
0
LINE
8
BLACK
6
CONTINUOUS
10
124.006
20
-65.64
11
129.41
21
-60.236
0
LINE
8
BLACK
6
CONTINUOUS
10
129.41
20
-60.236
11
129.422
21
-60.2208
0
LINE
8
BLACK
6
CONTINUOUS
10
129.422
20
-60.2208
11
129.483
21
-60.1708
0
LINE
8
BLACK
6
CONTINUOUS
10
129.483
20
-60.1708
11
129.553
21
-60.1336
0
LINE
8
BLACK
6
CONTINUOUS
10
129.553
20
-60.1336
11
129.628
21
-60.1108
0
LINE
8
BLACK
6
CONTINUOUS
10
129.628
20
-60.1108
11
129.687
21
-60.105
0
LINE
8
BLACK
6
CONTINUOUS
10
129.687
20
-60.105
11
129.687
21
-60.105
0
LINE
8
BLACK
6
CONTINUOUS
10
129.687
20
-60.105
11
129.707
21
-60.103
0
LINE
8
BLACK
6
CONTINUOUS
10
129.707
20
-60.103
11
129.726
21
-60.105
0
LINE
8
BLACK
6
CONTINUOUS
10
129.726
20
-60.105
11
133.088
21
-60.105
0
LINE
8
BLACK
6
CONTINUOUS
10
133.088
20
-60.105
11
133.108
21
-60.103
0
LINE
8
BLACK
6
CONTINUOUS
10
133.108
20
-60.103
11
133.127
21
-60.105
  0
ENDSEC
  0
EOF
