  0
SECTION
  2
HEADER
  9
$ANGBASE
  50
0.0
  9
$ANGDIR
  70
  1
  9
$MEASUREMENT
  70
0
  0
ENDSEC
  0
SECTION
  2
TABLES
  0
TABLE
  2
LTYPE
  70
4
  0
LTYPE
  5
40F
  2
CONTINUOUS
  70
0
  3
Solid line
  72
65
  73
0
  40
0.0
  0
LTYPE
  5
410
  2
DASHDOT
 70
0
  3
Dash Dot ____ _ ____ _
 72
65
 73
4
 40
2.0
 49
1.25
 49
-0.25
 49
0.25
 49
-0.25
  0
LTYPE
  5
411
  2
DASHED
 70
0
  3
Dashed __ __ __ __ __
 72
65
 73
2
 40
0.75
 49
0.5
 49
-0.25
  0
LTYPE
  5
43B
  2
DOTTED
 70
0
  3
Dotted .  .  .  .
 72
65
 73
2
 40
0.2
 49
0.0
 49
-0.2
  0
ENDTAB
  0
TABLE
  2
STYLE
  70
4
  0
STYLE
  2
KICAD
  70
0
  40
0
  41
1
  42
1
  50
0
  71
0
  3
isocp.shx
  0
STYLE
  2
KICADB
  70
0
  40
0
  41
1
  42
1
  50
0
  71
0
  3
isocp.shx
  0
STYLE
  2
KICADI
  70
0
  40
0
  41
1
  42
1
  50
15
  71
0
  3
isocp.shx
  0
STYLE
  2
KICADBI
  70
0
  40
0
  41
1
  42
1
  50
15
  71
0
  3
isocp.shx
  0
ENDTAB
  0
TABLE
  2
LAYER
  70
30
  0
LAYER
  2
BLACK
  70
0
  62
7
  6
CONTINUOUS
  0
LAYER
  2
GRAY1
  70
0
  62
251
  6
CONTINUOUS
  0
LAYER
  2
GRAY2
  70
0
  62
8
  6
CONTINUOUS
  0
LAYER
  2
GRAY3
  70
0
  62
9
  6
CONTINUOUS
  0
LAYER
  2
WHITE
  70
0
  62
7
  6
CONTINUOUS
  0
LAYER
  2
LYELLOW
  70
0
  62
51
  6
CONTINUOUS
  0
LAYER
  2
BLUE1
  70
0
  62
178
  6
CONTINUOUS
  0
LAYER
  2
GREEN1
  70
0
  62
98
  6
CONTINUOUS
  0
LAYER
  2
CYAN1
  70
0
  62
138
  6
CONTINUOUS
  0
LAYER
  2
RED1
  70
0
  62
18
  6
CONTINUOUS
  0
LAYER
  2
MAGENTA1
  70
0
  62
228
  6
CONTINUOUS
  0
LAYER
  2
BROWN1
  70
0
  62
58
  6
CONTINUOUS
  0
LAYER
  2
BLUE2
  70
0
  62
5
  6
CONTINUOUS
  0
LAYER
  2
GREEN2
  70
0
  62
3
  6
CONTINUOUS
  0
LAYER
  2
CYAN2
  70
0
  62
4
  6
CONTINUOUS
  0
LAYER
  2
RED2
  70
0
  62
1
  6
CONTINUOUS
  0
LAYER
  2
MAGENTA2
  70
0
  62
6
  6
CONTINUOUS
  0
LAYER
  2
BROWN2
  70
0
  62
54
  6
CONTINUOUS
  0
LAYER
  2
BLUE3
  70
0
  62
171
  6
CONTINUOUS
  0
LAYER
  2
GREEN3
  70
0
  62
91
  6
CONTINUOUS
  0
LAYER
  2
CYAN3
  70
0
  62
131
  6
CONTINUOUS
  0
LAYER
  2
RED3
  70
0
  62
11
  6
CONTINUOUS
  0
LAYER
  2
MAGENTA3
  70
0
  62
221
  6
CONTINUOUS
  0
LAYER
  2
YELLOW3
  70
0
  62
2
  6
CONTINUOUS
  0
LAYER
  2
BLUE4
  70
0
  62
5
  6
CONTINUOUS
  0
LAYER
  2
GREEN4
  70
0
  62
3
  6
CONTINUOUS
  0
LAYER
  2
CYAN4
  70
0
  62
4
  6
CONTINUOUS
  0
LAYER
  2
RED4
  70
0
  62
1
  6
CONTINUOUS
  0
LAYER
  2
MAGENTA4
  70
0
  62
6
  6
CONTINUOUS
  0
LAYER
  2
YELLOW4
  70
0
  62
2
  6
CONTINUOUS
  0
ENDTAB
  0
ENDSEC
  0
SECTION
  2
ENTITIES
0
LINE
8
BLACK
6
CONTINUOUS
10
132.445
20
-81.605
11
130.445
21
-81.605
0
LINE
8
BLACK
6
CONTINUOUS
10
130.445
20
-81.605
11
130.445
21
-79.605
0
LINE
8
BLACK
6
CONTINUOUS
10
130.445
20
-79.605
11
132.445
21
-79.605
0
LINE
8
BLACK
6
CONTINUOUS
10
132.445
20
-79.605
11
132.445
21
-81.605
0
LINE
8
BLACK
6
CONTINUOUS
10
132.445
20
-79.105
11
130.445
21
-79.105
0
LINE
8
BLACK
6
CONTINUOUS
10
130.445
20
-79.105
11
130.445
21
-77.105
0
LINE
8
BLACK
6
CONTINUOUS
10
130.445
20
-77.105
11
132.445
21
-77.105
0
LINE
8
BLACK
6
CONTINUOUS
10
132.445
20
-77.105
11
132.445
21
-79.105
0
LINE
8
BLACK
6
CONTINUOUS
10
127.193
20
-75.4307
11
127.339
21
-75.491
0
LINE
8
BLACK
6
CONTINUOUS
10
127.339
20
-75.491
11
127.47
21
-75.5786
0
LINE
8
BLACK
6
CONTINUOUS
10
127.47
20
-75.5786
11
127.581
21
-75.69
0
LINE
8
BLACK
6
CONTINUOUS
10
127.581
20
-75.69
11
127.669
21
-75.8211
0
LINE
8
BLACK
6
CONTINUOUS
10
127.669
20
-75.8211
11
127.729
21
-75.9666
0
LINE
8
BLACK
6
CONTINUOUS
10
127.729
20
-75.9666
11
127.76
21
-76.1212
0
LINE
8
BLACK
6
CONTINUOUS
10
127.76
20
-76.1212
11
127.76
21
-76.2788
0
LINE
8
BLACK
6
CONTINUOUS
10
127.76
20
-76.2788
11
127.729
21
-76.4334
0
LINE
8
BLACK
6
CONTINUOUS
10
127.729
20
-76.4334
11
127.669
21
-76.5789
0
LINE
8
BLACK
6
CONTINUOUS
10
127.669
20
-76.5789
11
127.581
21
-76.71
0
LINE
8
BLACK
6
CONTINUOUS
10
127.581
20
-76.71
11
127.47
21
-76.8214
0
LINE
8
BLACK
6
CONTINUOUS
10
127.47
20
-76.8214
11
127.339
21
-76.909
0
LINE
8
BLACK
6
CONTINUOUS
10
127.339
20
-76.909
11
127.193
21
-76.9693
0
LINE
8
BLACK
6
CONTINUOUS
10
127.193
20
-76.9693
11
127.039
21
-77
0
LINE
8
BLACK
6
CONTINUOUS
10
127.039
20
-77
11
126.881
21
-77
0
LINE
8
BLACK
6
CONTINUOUS
10
126.881
20
-77
11
126.727
21
-76.9693
0
LINE
8
BLACK
6
CONTINUOUS
10
126.727
20
-76.9693
11
126.581
21
-76.909
0
LINE
8
BLACK
6
CONTINUOUS
10
126.581
20
-76.909
11
126.45
21
-76.8214
0
LINE
8
BLACK
6
CONTINUOUS
10
126.45
20
-76.8214
11
126.339
21
-76.71
0
LINE
8
BLACK
6
CONTINUOUS
10
126.339
20
-76.71
11
126.251
21
-76.5789
0
LINE
8
BLACK
6
CONTINUOUS
10
126.251
20
-76.5789
11
126.191
21
-76.4334
0
LINE
8
BLACK
6
CONTINUOUS
10
126.191
20
-76.4334
11
126.16
21
-76.2788
0
LINE
8
BLACK
6
CONTINUOUS
10
126.16
20
-76.2788
11
126.16
21
-76.1212
0
LINE
8
BLACK
6
CONTINUOUS
10
126.16
20
-76.1212
11
126.191
21
-75.9666
0
LINE
8
BLACK
6
CONTINUOUS
10
126.191
20
-75.9666
11
126.251
21
-75.8211
0
LINE
8
BLACK
6
CONTINUOUS
10
126.251
20
-75.8211
11
126.339
21
-75.69
0
LINE
8
BLACK
6
CONTINUOUS
10
126.339
20
-75.69
11
126.45
21
-75.5786
0
LINE
8
BLACK
6
CONTINUOUS
10
126.45
20
-75.5786
11
126.581
21
-75.491
0
LINE
8
BLACK
6
CONTINUOUS
10
126.581
20
-75.491
11
126.727
21
-75.4307
0
LINE
8
BLACK
6
CONTINUOUS
10
126.727
20
-75.4307
11
126.881
21
-75.4
0
LINE
8
BLACK
6
CONTINUOUS
10
126.881
20
-75.4
11
127.039
21
-75.4
0
LINE
8
BLACK
6
CONTINUOUS
10
127.039
20
-75.4
11
127.193
21
-75.4307
0
LINE
8
BLACK
6
CONTINUOUS
10
125.26
20
-77
11
123.66
21
-77
0
LINE
8
BLACK
6
CONTINUOUS
10
123.66
20
-77
11
123.66
21
-75.4
0
LINE
8
BLACK
6
CONTINUOUS
10
123.66
20
-75.4
11
125.26
21
-75.4
0
LINE
8
BLACK
6
CONTINUOUS
10
125.26
20
-75.4
11
125.26
21
-77
0
LINE
8
BLACK
6
CONTINUOUS
10
132.445
20
-76.605
11
130.445
21
-76.605
0
LINE
8
BLACK
6
CONTINUOUS
10
130.445
20
-76.605
11
130.445
21
-74.605
0
LINE
8
BLACK
6
CONTINUOUS
10
130.445
20
-74.605
11
132.445
21
-74.605
0
LINE
8
BLACK
6
CONTINUOUS
10
132.445
20
-74.605
11
132.445
21
-76.605
0
LINE
8
BLACK
6
CONTINUOUS
10
132.445
20
-74.105
11
130.445
21
-74.105
0
LINE
8
BLACK
6
CONTINUOUS
10
130.445
20
-74.105
11
130.445
21
-72.105
0
LINE
8
BLACK
6
CONTINUOUS
10
130.445
20
-72.105
11
132.445
21
-72.105
0
LINE
8
BLACK
6
CONTINUOUS
10
132.445
20
-72.105
11
132.445
21
-74.105
0
LINE
8
BLACK
6
CONTINUOUS
10
122.142
20
-70.3873
11
122.281
21
-70.4447
0
LINE
8
BLACK
6
CONTINUOUS
10
122.281
20
-70.4447
11
122.406
21
-70.5281
0
LINE
8
BLACK
6
CONTINUOUS
10
122.406
20
-70.5281
11
122.512
21
-70.6343
0
LINE
8
BLACK
6
CONTINUOUS
10
122.512
20
-70.6343
11
122.595
21
-70.7591
0
LINE
8
BLACK
6
CONTINUOUS
10
122.595
20
-70.7591
11
122.653
21
-70.8977
0
LINE
8
BLACK
6
CONTINUOUS
10
122.653
20
-70.8977
11
122.682
21
-71.045
0
LINE
8
BLACK
6
CONTINUOUS
10
122.682
20
-71.045
11
122.682
21
-71.195
0
LINE
8
BLACK
6
CONTINUOUS
10
122.682
20
-71.195
11
122.653
21
-71.3423
0
LINE
8
BLACK
6
CONTINUOUS
10
122.653
20
-71.3423
11
122.595
21
-71.4809
0
LINE
8
BLACK
6
CONTINUOUS
10
122.595
20
-71.4809
11
122.512
21
-71.6057
0
LINE
8
BLACK
6
CONTINUOUS
10
122.512
20
-71.6057
11
122.406
21
-71.7119
0
LINE
8
BLACK
6
CONTINUOUS
10
122.406
20
-71.7119
11
122.281
21
-71.7953
0
LINE
8
BLACK
6
CONTINUOUS
10
122.281
20
-71.7953
11
122.142
21
-71.8527
0
LINE
8
BLACK
6
CONTINUOUS
10
122.142
20
-71.8527
11
121.995
21
-71.882
0
LINE
8
BLACK
6
CONTINUOUS
10
121.995
20
-71.882
11
121.845
21
-71.882
0
LINE
8
BLACK
6
CONTINUOUS
10
121.845
20
-71.882
11
121.698
21
-71.8527
0
LINE
8
BLACK
6
CONTINUOUS
10
121.698
20
-71.8527
11
121.559
21
-71.7953
0
LINE
8
BLACK
6
CONTINUOUS
10
121.559
20
-71.7953
11
121.434
21
-71.7119
0
LINE
8
BLACK
6
CONTINUOUS
10
121.434
20
-71.7119
11
121.328
21
-71.6057
0
LINE
8
BLACK
6
CONTINUOUS
10
121.328
20
-71.6057
11
121.245
21
-71.4809
0
LINE
8
BLACK
6
CONTINUOUS
10
121.245
20
-71.4809
11
121.187
21
-71.3423
0
LINE
8
BLACK
6
CONTINUOUS
10
121.187
20
-71.3423
11
121.158
21
-71.195
0
LINE
8
BLACK
6
CONTINUOUS
10
121.158
20
-71.195
11
121.158
21
-71.045
0
LINE
8
BLACK
6
CONTINUOUS
10
121.158
20
-71.045
11
121.187
21
-70.8977
0
LINE
8
BLACK
6
CONTINUOUS
10
121.187
20
-70.8977
11
121.245
21
-70.7591
0
LINE
8
BLACK
6
CONTINUOUS
10
121.245
20
-70.7591
11
121.328
21
-70.6343
0
LINE
8
BLACK
6
CONTINUOUS
10
121.328
20
-70.6343
11
121.434
21
-70.5281
0
LINE
8
BLACK
6
CONTINUOUS
10
121.434
20
-70.5281
11
121.559
21
-70.4447
0
LINE
8
BLACK
6
CONTINUOUS
10
121.559
20
-70.4447
11
121.698
21
-70.3873
0
LINE
8
BLACK
6
CONTINUOUS
10
121.698
20
-70.3873
11
121.845
21
-70.358
0
LINE
8
BLACK
6
CONTINUOUS
10
121.845
20
-70.358
11
121.995
21
-70.358
0
LINE
8
BLACK
6
CONTINUOUS
10
121.995
20
-70.358
11
122.142
21
-70.3873
0
LINE
8
BLACK
6
CONTINUOUS
10
119.602
20
-70.3873
11
119.741
21
-70.4447
0
LINE
8
BLACK
6
CONTINUOUS
10
119.741
20
-70.4447
11
119.866
21
-70.5281
0
LINE
8
BLACK
6
CONTINUOUS
10
119.866
20
-70.5281
11
119.972
21
-70.6343
0
LINE
8
BLACK
6
CONTINUOUS
10
119.972
20
-70.6343
11
120.055
21
-70.7591
0
LINE
8
BLACK
6
CONTINUOUS
10
120.055
20
-70.7591
11
120.113
21
-70.8977
0
LINE
8
BLACK
6
CONTINUOUS
10
120.113
20
-70.8977
11
120.142
21
-71.045
0
LINE
8
BLACK
6
CONTINUOUS
10
120.142
20
-71.045
11
120.142
21
-71.195
0
LINE
8
BLACK
6
CONTINUOUS
10
120.142
20
-71.195
11
120.113
21
-71.3423
0
LINE
8
BLACK
6
CONTINUOUS
10
120.113
20
-71.3423
11
120.055
21
-71.4809
0
LINE
8
BLACK
6
CONTINUOUS
10
120.055
20
-71.4809
11
119.972
21
-71.6057
0
LINE
8
BLACK
6
CONTINUOUS
10
119.972
20
-71.6057
11
119.866
21
-71.7119
0
LINE
8
BLACK
6
CONTINUOUS
10
119.866
20
-71.7119
11
119.741
21
-71.7953
0
LINE
8
BLACK
6
CONTINUOUS
10
119.741
20
-71.7953
11
119.602
21
-71.8527
0
LINE
8
BLACK
6
CONTINUOUS
10
119.602
20
-71.8527
11
119.455
21
-71.882
0
LINE
8
BLACK
6
CONTINUOUS
10
119.455
20
-71.882
11
119.305
21
-71.882
0
LINE
8
BLACK
6
CONTINUOUS
10
119.305
20
-71.882
11
119.158
21
-71.8527
0
LINE
8
BLACK
6
CONTINUOUS
10
119.158
20
-71.8527
11
119.019
21
-71.7953
0
LINE
8
BLACK
6
CONTINUOUS
10
119.019
20
-71.7953
11
118.894
21
-71.7119
0
LINE
8
BLACK
6
CONTINUOUS
10
118.894
20
-71.7119
11
118.788
21
-71.6057
0
LINE
8
BLACK
6
CONTINUOUS
10
118.788
20
-71.6057
11
118.705
21
-71.4809
0
LINE
8
BLACK
6
CONTINUOUS
10
118.705
20
-71.4809
11
118.647
21
-71.3423
0
LINE
8
BLACK
6
CONTINUOUS
10
118.647
20
-71.3423
11
118.618
21
-71.195
0
LINE
8
BLACK
6
CONTINUOUS
10
118.618
20
-71.195
11
118.618
21
-71.045
0
LINE
8
BLACK
6
CONTINUOUS
10
118.618
20
-71.045
11
118.647
21
-70.8977
0
LINE
8
BLACK
6
CONTINUOUS
10
118.647
20
-70.8977
11
118.705
21
-70.7591
0
LINE
8
BLACK
6
CONTINUOUS
10
118.705
20
-70.7591
11
118.788
21
-70.6343
0
LINE
8
BLACK
6
CONTINUOUS
10
118.788
20
-70.6343
11
118.894
21
-70.5281
0
LINE
8
BLACK
6
CONTINUOUS
10
118.894
20
-70.5281
11
119.019
21
-70.4447
0
LINE
8
BLACK
6
CONTINUOUS
10
119.019
20
-70.4447
11
119.158
21
-70.3873
0
LINE
8
BLACK
6
CONTINUOUS
10
119.158
20
-70.3873
11
119.305
21
-70.358
0
LINE
8
BLACK
6
CONTINUOUS
10
119.305
20
-70.358
11
119.455
21
-70.358
0
LINE
8
BLACK
6
CONTINUOUS
10
119.455
20
-70.358
11
119.602
21
-70.3873
0
LINE
8
BLACK
6
CONTINUOUS
10
132.445
20
-71.605
11
130.445
21
-71.605
0
LINE
8
BLACK
6
CONTINUOUS
10
130.445
20
-71.605
11
130.445
21
-69.605
0
LINE
8
BLACK
6
CONTINUOUS
10
130.445
20
-69.605
11
132.445
21
-69.605
0
LINE
8
BLACK
6
CONTINUOUS
10
132.445
20
-69.605
11
132.445
21
-71.605
0
LINE
8
BLACK
6
CONTINUOUS
10
122.142
20
-67.8473
11
122.281
21
-67.9047
0
LINE
8
BLACK
6
CONTINUOUS
10
122.281
20
-67.9047
11
122.406
21
-67.9881
0
LINE
8
BLACK
6
CONTINUOUS
10
122.406
20
-67.9881
11
122.512
21
-68.0943
0
LINE
8
BLACK
6
CONTINUOUS
10
122.512
20
-68.0943
11
122.595
21
-68.2191
0
LINE
8
BLACK
6
CONTINUOUS
10
122.595
20
-68.2191
11
122.653
21
-68.3577
0
LINE
8
BLACK
6
CONTINUOUS
10
122.653
20
-68.3577
11
122.682
21
-68.5049
0
LINE
8
BLACK
6
CONTINUOUS
10
122.682
20
-68.5049
11
122.682
21
-68.6551
0
LINE
8
BLACK
6
CONTINUOUS
10
122.682
20
-68.6551
11
122.653
21
-68.8023
0
LINE
8
BLACK
6
CONTINUOUS
10
122.653
20
-68.8023
11
122.595
21
-68.9409
0
LINE
8
BLACK
6
CONTINUOUS
10
122.595
20
-68.9409
11
122.512
21
-69.0657
0
LINE
8
BLACK
6
CONTINUOUS
10
122.512
20
-69.0657
11
122.406
21
-69.1719
0
LINE
8
BLACK
6
CONTINUOUS
10
122.406
20
-69.1719
11
122.281
21
-69.2553
0
LINE
8
BLACK
6
CONTINUOUS
10
122.281
20
-69.2553
11
122.142
21
-69.3127
0
LINE
8
BLACK
6
CONTINUOUS
10
122.142
20
-69.3127
11
121.995
21
-69.342
0
LINE
8
BLACK
6
CONTINUOUS
10
121.995
20
-69.342
11
121.845
21
-69.342
0
LINE
8
BLACK
6
CONTINUOUS
10
121.845
20
-69.342
11
121.698
21
-69.3127
0
LINE
8
BLACK
6
CONTINUOUS
10
121.698
20
-69.3127
11
121.559
21
-69.2553
0
LINE
8
BLACK
6
CONTINUOUS
10
121.559
20
-69.2553
11
121.434
21
-69.1719
0
LINE
8
BLACK
6
CONTINUOUS
10
121.434
20
-69.1719
11
121.328
21
-69.0657
0
LINE
8
BLACK
6
CONTINUOUS
10
121.328
20
-69.0657
11
121.245
21
-68.9409
0
LINE
8
BLACK
6
CONTINUOUS
10
121.245
20
-68.9409
11
121.187
21
-68.8023
0
LINE
8
BLACK
6
CONTINUOUS
10
121.187
20
-68.8023
11
121.158
21
-68.6551
0
LINE
8
BLACK
6
CONTINUOUS
10
121.158
20
-68.6551
11
121.158
21
-68.5049
0
LINE
8
BLACK
6
CONTINUOUS
10
121.158
20
-68.5049
11
121.187
21
-68.3577
0
LINE
8
BLACK
6
CONTINUOUS
10
121.187
20
-68.3577
11
121.245
21
-68.2191
0
LINE
8
BLACK
6
CONTINUOUS
10
121.245
20
-68.2191
11
121.328
21
-68.0943
0
LINE
8
BLACK
6
CONTINUOUS
10
121.328
20
-68.0943
11
121.434
21
-67.9881
0
LINE
8
BLACK
6
CONTINUOUS
10
121.434
20
-67.9881
11
121.559
21
-67.9047
0
LINE
8
BLACK
6
CONTINUOUS
10
121.559
20
-67.9047
11
121.698
21
-67.8473
0
LINE
8
BLACK
6
CONTINUOUS
10
121.698
20
-67.8473
11
121.845
21
-67.818
0
LINE
8
BLACK
6
CONTINUOUS
10
121.845
20
-67.818
11
121.995
21
-67.818
0
LINE
8
BLACK
6
CONTINUOUS
10
121.995
20
-67.818
11
122.142
21
-67.8473
0
LINE
8
BLACK
6
CONTINUOUS
10
119.602
20
-67.8473
11
119.741
21
-67.9047
0
LINE
8
BLACK
6
CONTINUOUS
10
119.741
20
-67.9047
11
119.866
21
-67.9881
0
LINE
8
BLACK
6
CONTINUOUS
10
119.866
20
-67.9881
11
119.972
21
-68.0943
0
LINE
8
BLACK
6
CONTINUOUS
10
119.972
20
-68.0943
11
120.055
21
-68.2191
0
LINE
8
BLACK
6
CONTINUOUS
10
120.055
20
-68.2191
11
120.113
21
-68.3577
0
LINE
8
BLACK
6
CONTINUOUS
10
120.113
20
-68.3577
11
120.142
21
-68.5049
0
LINE
8
BLACK
6
CONTINUOUS
10
120.142
20
-68.5049
11
120.142
21
-68.6551
0
LINE
8
BLACK
6
CONTINUOUS
10
120.142
20
-68.6551
11
120.113
21
-68.8023
0
LINE
8
BLACK
6
CONTINUOUS
10
120.113
20
-68.8023
11
120.055
21
-68.9409
0
LINE
8
BLACK
6
CONTINUOUS
10
120.055
20
-68.9409
11
119.972
21
-69.0657
0
LINE
8
BLACK
6
CONTINUOUS
10
119.972
20
-69.0657
11
119.866
21
-69.1719
0
LINE
8
BLACK
6
CONTINUOUS
10
119.866
20
-69.1719
11
119.741
21
-69.2553
0
LINE
8
BLACK
6
CONTINUOUS
10
119.741
20
-69.2553
11
119.602
21
-69.3127
0
LINE
8
BLACK
6
CONTINUOUS
10
119.602
20
-69.3127
11
119.455
21
-69.342
0
LINE
8
BLACK
6
CONTINUOUS
10
119.455
20
-69.342
11
119.305
21
-69.342
0
LINE
8
BLACK
6
CONTINUOUS
10
119.305
20
-69.342
11
119.158
21
-69.3127
0
LINE
8
BLACK
6
CONTINUOUS
10
119.158
20
-69.3127
11
119.019
21
-69.2553
0
LINE
8
BLACK
6
CONTINUOUS
10
119.019
20
-69.2553
11
118.894
21
-69.1719
0
LINE
8
BLACK
6
CONTINUOUS
10
118.894
20
-69.1719
11
118.788
21
-69.0657
0
LINE
8
BLACK
6
CONTINUOUS
10
118.788
20
-69.0657
11
118.705
21
-68.9409
0
LINE
8
BLACK
6
CONTINUOUS
10
118.705
20
-68.9409
11
118.647
21
-68.8023
0
LINE
8
BLACK
6
CONTINUOUS
10
118.647
20
-68.8023
11
118.618
21
-68.6551
0
LINE
8
BLACK
6
CONTINUOUS
10
118.618
20
-68.6551
11
118.618
21
-68.5049
0
LINE
8
BLACK
6
CONTINUOUS
10
118.618
20
-68.5049
11
118.647
21
-68.3577
0
LINE
8
BLACK
6
CONTINUOUS
10
118.647
20
-68.3577
11
118.705
21
-68.2191
0
LINE
8
BLACK
6
CONTINUOUS
10
118.705
20
-68.2191
11
118.788
21
-68.0943
0
LINE
8
BLACK
6
CONTINUOUS
10
118.788
20
-68.0943
11
118.894
21
-67.9881
0
LINE
8
BLACK
6
CONTINUOUS
10
118.894
20
-67.9881
11
119.019
21
-67.9047
0
LINE
8
BLACK
6
CONTINUOUS
10
119.019
20
-67.9047
11
119.158
21
-67.8473
0
LINE
8
BLACK
6
CONTINUOUS
10
119.158
20
-67.8473
11
119.305
21
-67.818
0
LINE
8
BLACK
6
CONTINUOUS
10
119.305
20
-67.818
11
119.455
21
-67.818
0
LINE
8
BLACK
6
CONTINUOUS
10
119.455
20
-67.818
11
119.602
21
-67.8473
0
LINE
8
BLACK
6
CONTINUOUS
10
132.445
20
-69.105
11
130.445
21
-69.105
0
LINE
8
BLACK
6
CONTINUOUS
10
130.445
20
-69.105
11
130.445
21
-67.105
0
LINE
8
BLACK
6
CONTINUOUS
10
130.445
20
-67.105
11
132.445
21
-67.105
0
LINE
8
BLACK
6
CONTINUOUS
10
132.445
20
-67.105
11
132.445
21
-69.105
0
LINE
8
BLACK
6
CONTINUOUS
10
122.142
20
-65.3073
11
122.281
21
-65.3647
0
LINE
8
BLACK
6
CONTINUOUS
10
122.281
20
-65.3647
11
122.406
21
-65.4481
0
LINE
8
BLACK
6
CONTINUOUS
10
122.406
20
-65.4481
11
122.512
21
-65.5543
0
LINE
8
BLACK
6
CONTINUOUS
10
122.512
20
-65.5543
11
122.595
21
-65.6791
0
LINE
8
BLACK
6
CONTINUOUS
10
122.595
20
-65.6791
11
122.653
21
-65.8177
0
LINE
8
BLACK
6
CONTINUOUS
10
122.653
20
-65.8177
11
122.682
21
-65.965
0
LINE
8
BLACK
6
CONTINUOUS
10
122.682
20
-65.965
11
122.682
21
-66.115
0
LINE
8
BLACK
6
CONTINUOUS
10
122.682
20
-66.115
11
122.653
21
-66.2623
0
LINE
8
BLACK
6
CONTINUOUS
10
122.653
20
-66.2623
11
122.595
21
-66.4009
0
LINE
8
BLACK
6
CONTINUOUS
10
122.595
20
-66.4009
11
122.512
21
-66.5257
0
LINE
8
BLACK
6
CONTINUOUS
10
122.512
20
-66.5257
11
122.406
21
-66.6319
0
LINE
8
BLACK
6
CONTINUOUS
10
122.406
20
-66.6319
11
122.281
21
-66.7153
0
LINE
8
BLACK
6
CONTINUOUS
10
122.281
20
-66.7153
11
122.142
21
-66.7727
0
LINE
8
BLACK
6
CONTINUOUS
10
122.142
20
-66.7727
11
121.995
21
-66.802
0
LINE
8
BLACK
6
CONTINUOUS
10
121.995
20
-66.802
11
121.845
21
-66.802
0
LINE
8
BLACK
6
CONTINUOUS
10
121.845
20
-66.802
11
121.698
21
-66.7727
0
LINE
8
BLACK
6
CONTINUOUS
10
121.698
20
-66.7727
11
121.559
21
-66.7153
0
LINE
8
BLACK
6
CONTINUOUS
10
121.559
20
-66.7153
11
121.434
21
-66.6319
0
LINE
8
BLACK
6
CONTINUOUS
10
121.434
20
-66.6319
11
121.328
21
-66.5257
0
LINE
8
BLACK
6
CONTINUOUS
10
121.328
20
-66.5257
11
121.245
21
-66.4009
0
LINE
8
BLACK
6
CONTINUOUS
10
121.245
20
-66.4009
11
121.187
21
-66.2623
0
LINE
8
BLACK
6
CONTINUOUS
10
121.187
20
-66.2623
11
121.158
21
-66.115
0
LINE
8
BLACK
6
CONTINUOUS
10
121.158
20
-66.115
11
121.158
21
-65.965
0
LINE
8
BLACK
6
CONTINUOUS
10
121.158
20
-65.965
11
121.187
21
-65.8177
0
LINE
8
BLACK
6
CONTINUOUS
10
121.187
20
-65.8177
11
121.245
21
-65.6791
0
LINE
8
BLACK
6
CONTINUOUS
10
121.245
20
-65.6791
11
121.328
21
-65.5543
0
LINE
8
BLACK
6
CONTINUOUS
10
121.328
20
-65.5543
11
121.434
21
-65.4481
0
LINE
8
BLACK
6
CONTINUOUS
10
121.434
20
-65.4481
11
121.559
21
-65.3647
0
LINE
8
BLACK
6
CONTINUOUS
10
121.559
20
-65.3647
11
121.698
21
-65.3073
0
LINE
8
BLACK
6
CONTINUOUS
10
121.698
20
-65.3073
11
121.845
21
-65.278
0
LINE
8
BLACK
6
CONTINUOUS
10
121.845
20
-65.278
11
121.995
21
-65.278
0
LINE
8
BLACK
6
CONTINUOUS
10
121.995
20
-65.278
11
122.142
21
-65.3073
0
LINE
8
BLACK
6
CONTINUOUS
10
119.602
20
-65.3073
11
119.741
21
-65.3647
0
LINE
8
BLACK
6
CONTINUOUS
10
119.741
20
-65.3647
11
119.866
21
-65.4481
0
LINE
8
BLACK
6
CONTINUOUS
10
119.866
20
-65.4481
11
119.972
21
-65.5543
0
LINE
8
BLACK
6
CONTINUOUS
10
119.972
20
-65.5543
11
120.055
21
-65.6791
0
LINE
8
BLACK
6
CONTINUOUS
10
120.055
20
-65.6791
11
120.113
21
-65.8177
0
LINE
8
BLACK
6
CONTINUOUS
10
120.113
20
-65.8177
11
120.142
21
-65.965
0
LINE
8
BLACK
6
CONTINUOUS
10
120.142
20
-65.965
11
120.142
21
-66.115
0
LINE
8
BLACK
6
CONTINUOUS
10
120.142
20
-66.115
11
120.113
21
-66.2623
0
LINE
8
BLACK
6
CONTINUOUS
10
120.113
20
-66.2623
11
120.055
21
-66.4009
0
LINE
8
BLACK
6
CONTINUOUS
10
120.055
20
-66.4009
11
119.972
21
-66.5257
0
LINE
8
BLACK
6
CONTINUOUS
10
119.972
20
-66.5257
11
119.866
21
-66.6319
0
LINE
8
BLACK
6
CONTINUOUS
10
119.866
20
-66.6319
11
119.741
21
-66.7153
0
LINE
8
BLACK
6
CONTINUOUS
10
119.741
20
-66.7153
11
119.602
21
-66.7727
0
LINE
8
BLACK
6
CONTINUOUS
10
119.602
20
-66.7727
11
119.455
21
-66.802
0
LINE
8
BLACK
6
CONTINUOUS
10
119.455
20
-66.802
11
119.305
21
-66.802
0
LINE
8
BLACK
6
CONTINUOUS
10
119.305
20
-66.802
11
119.158
21
-66.7727
0
LINE
8
BLACK
6
CONTINUOUS
10
119.158
20
-66.7727
11
119.019
21
-66.7153
0
LINE
8
BLACK
6
CONTINUOUS
10
119.019
20
-66.7153
11
118.894
21
-66.6319
0
LINE
8
BLACK
6
CONTINUOUS
10
118.894
20
-66.6319
11
118.788
21
-66.5257
0
LINE
8
BLACK
6
CONTINUOUS
10
118.788
20
-66.5257
11
118.705
21
-66.4009
0
LINE
8
BLACK
6
CONTINUOUS
10
118.705
20
-66.4009
11
118.647
21
-66.2623
0
LINE
8
BLACK
6
CONTINUOUS
10
118.647
20
-66.2623
11
118.618
21
-66.115
0
LINE
8
BLACK
6
CONTINUOUS
10
118.618
20
-66.115
11
118.618
21
-65.965
0
LINE
8
BLACK
6
CONTINUOUS
10
118.618
20
-65.965
11
118.647
21
-65.8177
0
LINE
8
BLACK
6
CONTINUOUS
10
118.647
20
-65.8177
11
118.705
21
-65.6791
0
LINE
8
BLACK
6
CONTINUOUS
10
118.705
20
-65.6791
11
118.788
21
-65.5543
0
LINE
8
BLACK
6
CONTINUOUS
10
118.788
20
-65.5543
11
118.894
21
-65.4481
0
LINE
8
BLACK
6
CONTINUOUS
10
118.894
20
-65.4481
11
119.019
21
-65.3647
0
LINE
8
BLACK
6
CONTINUOUS
10
119.019
20
-65.3647
11
119.158
21
-65.3073
0
LINE
8
BLACK
6
CONTINUOUS
10
119.158
20
-65.3073
11
119.305
21
-65.278
0
LINE
8
BLACK
6
CONTINUOUS
10
119.305
20
-65.278
11
119.455
21
-65.278
0
LINE
8
BLACK
6
CONTINUOUS
10
119.455
20
-65.278
11
119.602
21
-65.3073
0
LINE
8
BLACK
6
CONTINUOUS
10
132.445
20
-66.605
11
130.445
21
-66.605
0
LINE
8
BLACK
6
CONTINUOUS
10
130.445
20
-66.605
11
130.445
21
-64.605
0
LINE
8
BLACK
6
CONTINUOUS
10
130.445
20
-64.605
11
132.445
21
-64.605
0
LINE
8
BLACK
6
CONTINUOUS
10
132.445
20
-64.605
11
132.445
21
-66.605
0
LINE
8
BLACK
6
CONTINUOUS
10
122.142
20
-62.7673
11
122.281
21
-62.8247
0
LINE
8
BLACK
6
CONTINUOUS
10
122.281
20
-62.8247
11
122.406
21
-62.9081
0
LINE
8
BLACK
6
CONTINUOUS
10
122.406
20
-62.9081
11
122.512
21
-63.0143
0
LINE
8
BLACK
6
CONTINUOUS
10
122.512
20
-63.0143
11
122.595
21
-63.1391
0
LINE
8
BLACK
6
CONTINUOUS
10
122.595
20
-63.1391
11
122.653
21
-63.2777
0
LINE
8
BLACK
6
CONTINUOUS
10
122.653
20
-63.2777
11
122.682
21
-63.4249
0
LINE
8
BLACK
6
CONTINUOUS
10
122.682
20
-63.4249
11
122.682
21
-63.575
0
LINE
8
BLACK
6
CONTINUOUS
10
122.682
20
-63.575
11
122.653
21
-63.7223
0
LINE
8
BLACK
6
CONTINUOUS
10
122.653
20
-63.7223
11
122.595
21
-63.8609
0
LINE
8
BLACK
6
CONTINUOUS
10
122.595
20
-63.8609
11
122.512
21
-63.9857
0
LINE
8
BLACK
6
CONTINUOUS
10
122.512
20
-63.9857
11
122.406
21
-64.0919
0
LINE
8
BLACK
6
CONTINUOUS
10
122.406
20
-64.0919
11
122.281
21
-64.1753
0
LINE
8
BLACK
6
CONTINUOUS
10
122.281
20
-64.1753
11
122.142
21
-64.2327
0
LINE
8
BLACK
6
CONTINUOUS
10
122.142
20
-64.2327
11
121.995
21
-64.262
0
LINE
8
BLACK
6
CONTINUOUS
10
121.995
20
-64.262
11
121.845
21
-64.262
0
LINE
8
BLACK
6
CONTINUOUS
10
121.845
20
-64.262
11
121.698
21
-64.2327
0
LINE
8
BLACK
6
CONTINUOUS
10
121.698
20
-64.2327
11
121.559
21
-64.1753
0
LINE
8
BLACK
6
CONTINUOUS
10
121.559
20
-64.1753
11
121.434
21
-64.0919
0
LINE
8
BLACK
6
CONTINUOUS
10
121.434
20
-64.0919
11
121.328
21
-63.9857
0
LINE
8
BLACK
6
CONTINUOUS
10
121.328
20
-63.9857
11
121.245
21
-63.8609
0
LINE
8
BLACK
6
CONTINUOUS
10
121.245
20
-63.8609
11
121.187
21
-63.7223
0
LINE
8
BLACK
6
CONTINUOUS
10
121.187
20
-63.7223
11
121.158
21
-63.575
0
LINE
8
BLACK
6
CONTINUOUS
10
121.158
20
-63.575
11
121.158
21
-63.4249
0
LINE
8
BLACK
6
CONTINUOUS
10
121.158
20
-63.4249
11
121.187
21
-63.2777
0
LINE
8
BLACK
6
CONTINUOUS
10
121.187
20
-63.2777
11
121.245
21
-63.1391
0
LINE
8
BLACK
6
CONTINUOUS
10
121.245
20
-63.1391
11
121.328
21
-63.0143
0
LINE
8
BLACK
6
CONTINUOUS
10
121.328
20
-63.0143
11
121.434
21
-62.9081
0
LINE
8
BLACK
6
CONTINUOUS
10
121.434
20
-62.9081
11
121.559
21
-62.8247
0
LINE
8
BLACK
6
CONTINUOUS
10
121.559
20
-62.8247
11
121.698
21
-62.7673
0
LINE
8
BLACK
6
CONTINUOUS
10
121.698
20
-62.7673
11
121.845
21
-62.738
0
LINE
8
BLACK
6
CONTINUOUS
10
121.845
20
-62.738
11
121.995
21
-62.738
0
LINE
8
BLACK
6
CONTINUOUS
10
121.995
20
-62.738
11
122.142
21
-62.7673
0
LINE
8
BLACK
6
CONTINUOUS
10
119.602
20
-62.7673
11
119.741
21
-62.8247
0
LINE
8
BLACK
6
CONTINUOUS
10
119.741
20
-62.8247
11
119.866
21
-62.9081
0
LINE
8
BLACK
6
CONTINUOUS
10
119.866
20
-62.9081
11
119.972
21
-63.0143
0
LINE
8
BLACK
6
CONTINUOUS
10
119.972
20
-63.0143
11
120.055
21
-63.1391
0
LINE
8
BLACK
6
CONTINUOUS
10
120.055
20
-63.1391
11
120.113
21
-63.2777
0
LINE
8
BLACK
6
CONTINUOUS
10
120.113
20
-63.2777
11
120.142
21
-63.4249
0
LINE
8
BLACK
6
CONTINUOUS
10
120.142
20
-63.4249
11
120.142
21
-63.575
0
LINE
8
BLACK
6
CONTINUOUS
10
120.142
20
-63.575
11
120.113
21
-63.7223
0
LINE
8
BLACK
6
CONTINUOUS
10
120.113
20
-63.7223
11
120.055
21
-63.8609
0
LINE
8
BLACK
6
CONTINUOUS
10
120.055
20
-63.8609
11
119.972
21
-63.9857
0
LINE
8
BLACK
6
CONTINUOUS
10
119.972
20
-63.9857
11
119.866
21
-64.0919
0
LINE
8
BLACK
6
CONTINUOUS
10
119.866
20
-64.0919
11
119.741
21
-64.1753
0
LINE
8
BLACK
6
CONTINUOUS
10
119.741
20
-64.1753
11
119.602
21
-64.2327
0
LINE
8
BLACK
6
CONTINUOUS
10
119.602
20
-64.2327
11
119.455
21
-64.262
0
LINE
8
BLACK
6
CONTINUOUS
10
119.455
20
-64.262
11
119.305
21
-64.262
0
LINE
8
BLACK
6
CONTINUOUS
10
119.305
20
-64.262
11
119.158
21
-64.2327
0
LINE
8
BLACK
6
CONTINUOUS
10
119.158
20
-64.2327
11
119.019
21
-64.1753
0
LINE
8
BLACK
6
CONTINUOUS
10
119.019
20
-64.1753
11
118.894
21
-64.0919
0
LINE
8
BLACK
6
CONTINUOUS
10
118.894
20
-64.0919
11
118.788
21
-63.9857
0
LINE
8
BLACK
6
CONTINUOUS
10
118.788
20
-63.9857
11
118.705
21
-63.8609
0
LINE
8
BLACK
6
CONTINUOUS
10
118.705
20
-63.8609
11
118.647
21
-63.7223
0
LINE
8
BLACK
6
CONTINUOUS
10
118.647
20
-63.7223
11
118.618
21
-63.575
0
LINE
8
BLACK
6
CONTINUOUS
10
118.618
20
-63.575
11
118.618
21
-63.4249
0
LINE
8
BLACK
6
CONTINUOUS
10
118.618
20
-63.4249
11
118.647
21
-63.2777
0
LINE
8
BLACK
6
CONTINUOUS
10
118.647
20
-63.2777
11
118.705
21
-63.1391
0
LINE
8
BLACK
6
CONTINUOUS
10
118.705
20
-63.1391
11
118.788
21
-63.0143
0
LINE
8
BLACK
6
CONTINUOUS
10
118.788
20
-63.0143
11
118.894
21
-62.9081
0
LINE
8
BLACK
6
CONTINUOUS
10
118.894
20
-62.9081
11
119.019
21
-62.8247
0
LINE
8
BLACK
6
CONTINUOUS
10
119.019
20
-62.8247
11
119.158
21
-62.7673
0
LINE
8
BLACK
6
CONTINUOUS
10
119.158
20
-62.7673
11
119.305
21
-62.738
0
LINE
8
BLACK
6
CONTINUOUS
10
119.305
20
-62.738
11
119.455
21
-62.738
0
LINE
8
BLACK
6
CONTINUOUS
10
119.455
20
-62.738
11
119.602
21
-62.7673
0
LINE
8
BLACK
6
CONTINUOUS
10
132.445
20
-64.105
11
130.445
21
-64.105
0
LINE
8
BLACK
6
CONTINUOUS
10
130.445
20
-64.105
11
130.445
21
-62.105
0
LINE
8
BLACK
6
CONTINUOUS
10
130.445
20
-62.105
11
132.445
21
-62.105
0
LINE
8
BLACK
6
CONTINUOUS
10
132.445
20
-62.105
11
132.445
21
-64.105
  0
ENDSEC
  0
EOF
