  0
SECTION
  2
HEADER
  9
$ANGBASE
  50
0.0
  9
$ANGDIR
  70
  1
  9
$MEASUREMENT
  70
0
  0
ENDSEC
  0
SECTION
  2
TABLES
  0
TABLE
  2
LTYPE
  70
4
  0
LTYPE
  5
40F
  2
CONTINUOUS
  70
0
  3
Solid line
  72
65
  73
0
  40
0.0
  0
LTYPE
  5
410
  2
DASHDOT
 70
0
  3
Dash Dot ____ _ ____ _
 72
65
 73
4
 40
2.0
 49
1.25
 49
-0.25
 49
0.25
 49
-0.25
  0
LTYPE
  5
411
  2
DASHED
 70
0
  3
Dashed __ __ __ __ __
 72
65
 73
2
 40
0.75
 49
0.5
 49
-0.25
  0
LTYPE
  5
43B
  2
DOTTED
 70
0
  3
Dotted .  .  .  .
 72
65
 73
2
 40
0.2
 49
0.0
 49
-0.2
  0
ENDTAB
  0
TABLE
  2
STYLE
  70
4
  0
STYLE
  2
KICAD
  70
0
  40
0
  41
1
  42
1
  50
0
  71
0
  3
isocp.shx
  0
STYLE
  2
KICADB
  70
0
  40
0
  41
1
  42
1
  50
0
  71
0
  3
isocp.shx
  0
STYLE
  2
KICADI
  70
0
  40
0
  41
1
  42
1
  50
15
  71
0
  3
isocp.shx
  0
STYLE
  2
KICADBI
  70
0
  40
0
  41
1
  42
1
  50
15
  71
0
  3
isocp.shx
  0
ENDTAB
  0
TABLE
  2
LAYER
  70
30
  0
LAYER
  2
BLACK
  70
0
  62
7
  6
CONTINUOUS
  0
LAYER
  2
GRAY1
  70
0
  62
251
  6
CONTINUOUS
  0
LAYER
  2
GRAY2
  70
0
  62
8
  6
CONTINUOUS
  0
LAYER
  2
GRAY3
  70
0
  62
9
  6
CONTINUOUS
  0
LAYER
  2
WHITE
  70
0
  62
7
  6
CONTINUOUS
  0
LAYER
  2
LYELLOW
  70
0
  62
51
  6
CONTINUOUS
  0
LAYER
  2
BLUE1
  70
0
  62
178
  6
CONTINUOUS
  0
LAYER
  2
GREEN1
  70
0
  62
98
  6
CONTINUOUS
  0
LAYER
  2
CYAN1
  70
0
  62
138
  6
CONTINUOUS
  0
LAYER
  2
RED1
  70
0
  62
18
  6
CONTINUOUS
  0
LAYER
  2
MAGENTA1
  70
0
  62
228
  6
CONTINUOUS
  0
LAYER
  2
BROWN1
  70
0
  62
58
  6
CONTINUOUS
  0
LAYER
  2
BLUE2
  70
0
  62
5
  6
CONTINUOUS
  0
LAYER
  2
GREEN2
  70
0
  62
3
  6
CONTINUOUS
  0
LAYER
  2
CYAN2
  70
0
  62
4
  6
CONTINUOUS
  0
LAYER
  2
RED2
  70
0
  62
1
  6
CONTINUOUS
  0
LAYER
  2
MAGENTA2
  70
0
  62
6
  6
CONTINUOUS
  0
LAYER
  2
BROWN2
  70
0
  62
54
  6
CONTINUOUS
  0
LAYER
  2
BLUE3
  70
0
  62
171
  6
CONTINUOUS
  0
LAYER
  2
GREEN3
  70
0
  62
91
  6
CONTINUOUS
  0
LAYER
  2
CYAN3
  70
0
  62
131
  6
CONTINUOUS
  0
LAYER
  2
RED3
  70
0
  62
11
  6
CONTINUOUS
  0
LAYER
  2
MAGENTA3
  70
0
  62
221
  6
CONTINUOUS
  0
LAYER
  2
YELLOW3
  70
0
  62
2
  6
CONTINUOUS
  0
LAYER
  2
BLUE4
  70
0
  62
5
  6
CONTINUOUS
  0
LAYER
  2
GREEN4
  70
0
  62
3
  6
CONTINUOUS
  0
LAYER
  2
CYAN4
  70
0
  62
4
  6
CONTINUOUS
  0
LAYER
  2
RED4
  70
0
  62
1
  6
CONTINUOUS
  0
LAYER
  2
MAGENTA4
  70
0
  62
6
  6
CONTINUOUS
  0
LAYER
  2
YELLOW4
  70
0
  62
2
  6
CONTINUOUS
  0
ENDTAB
  0
ENDSEC
  0
SECTION
  2
ENTITIES
0
LINE
8
BLACK
6
CONTINUOUS
10
132.496
20
-81.656
11
130.394
21
-81.656
0
LINE
8
BLACK
6
CONTINUOUS
10
130.394
20
-81.656
11
130.394
21
-79.554
0
LINE
8
BLACK
6
CONTINUOUS
10
130.394
20
-79.554
11
132.496
21
-79.554
0
LINE
8
BLACK
6
CONTINUOUS
10
132.496
20
-79.554
11
132.496
21
-81.656
0
LINE
8
BLACK
6
CONTINUOUS
10
132.496
20
-79.156
11
130.394
21
-79.156
0
LINE
8
BLACK
6
CONTINUOUS
10
130.394
20
-79.156
11
130.394
21
-77.054
0
LINE
8
BLACK
6
CONTINUOUS
10
130.394
20
-77.054
11
132.496
21
-77.054
0
LINE
8
BLACK
6
CONTINUOUS
10
132.496
20
-77.054
11
132.496
21
-79.156
0
LINE
8
BLACK
6
CONTINUOUS
10
127.208
20
-75.3817
11
127.363
21
-75.4459
0
LINE
8
BLACK
6
CONTINUOUS
10
127.363
20
-75.4459
11
127.502
21
-75.539
0
LINE
8
BLACK
6
CONTINUOUS
10
127.502
20
-75.539
11
127.621
21
-75.6575
0
LINE
8
BLACK
6
CONTINUOUS
10
127.621
20
-75.6575
11
127.714
21
-75.7969
0
LINE
8
BLACK
6
CONTINUOUS
10
127.714
20
-75.7969
11
127.778
21
-75.9518
0
LINE
8
BLACK
6
CONTINUOUS
10
127.778
20
-75.9518
11
127.811
21
-76.1162
0
LINE
8
BLACK
6
CONTINUOUS
10
127.811
20
-76.1162
11
127.811
21
-76.2838
0
LINE
8
BLACK
6
CONTINUOUS
10
127.811
20
-76.2838
11
127.778
21
-76.4482
0
LINE
8
BLACK
6
CONTINUOUS
10
127.778
20
-76.4482
11
127.714
21
-76.6031
0
LINE
8
BLACK
6
CONTINUOUS
10
127.714
20
-76.6031
11
127.621
21
-76.7425
0
LINE
8
BLACK
6
CONTINUOUS
10
127.621
20
-76.7425
11
127.502
21
-76.861
0
LINE
8
BLACK
6
CONTINUOUS
10
127.502
20
-76.861
11
127.363
21
-76.9541
0
LINE
8
BLACK
6
CONTINUOUS
10
127.363
20
-76.9541
11
127.208
21
-77.0183
0
LINE
8
BLACK
6
CONTINUOUS
10
127.208
20
-77.0183
11
127.044
21
-77.051
0
LINE
8
BLACK
6
CONTINUOUS
10
127.044
20
-77.051
11
126.876
21
-77.051
0
LINE
8
BLACK
6
CONTINUOUS
10
126.876
20
-77.051
11
126.712
21
-77.0183
0
LINE
8
BLACK
6
CONTINUOUS
10
126.712
20
-77.0183
11
126.557
21
-76.9541
0
LINE
8
BLACK
6
CONTINUOUS
10
126.557
20
-76.9541
11
126.418
21
-76.861
0
LINE
8
BLACK
6
CONTINUOUS
10
126.418
20
-76.861
11
126.299
21
-76.7425
0
LINE
8
BLACK
6
CONTINUOUS
10
126.299
20
-76.7425
11
126.206
21
-76.6031
0
LINE
8
BLACK
6
CONTINUOUS
10
126.206
20
-76.6031
11
126.142
21
-76.4482
0
LINE
8
BLACK
6
CONTINUOUS
10
126.142
20
-76.4482
11
126.109
21
-76.2838
0
LINE
8
BLACK
6
CONTINUOUS
10
126.109
20
-76.2838
11
126.109
21
-76.1162
0
LINE
8
BLACK
6
CONTINUOUS
10
126.109
20
-76.1162
11
126.142
21
-75.9518
0
LINE
8
BLACK
6
CONTINUOUS
10
126.142
20
-75.9518
11
126.206
21
-75.7969
0
LINE
8
BLACK
6
CONTINUOUS
10
126.206
20
-75.7969
11
126.299
21
-75.6575
0
LINE
8
BLACK
6
CONTINUOUS
10
126.299
20
-75.6575
11
126.418
21
-75.539
0
LINE
8
BLACK
6
CONTINUOUS
10
126.418
20
-75.539
11
126.557
21
-75.4459
0
LINE
8
BLACK
6
CONTINUOUS
10
126.557
20
-75.4459
11
126.712
21
-75.3817
0
LINE
8
BLACK
6
CONTINUOUS
10
126.712
20
-75.3817
11
126.876
21
-75.349
0
LINE
8
BLACK
6
CONTINUOUS
10
126.876
20
-75.349
11
127.044
21
-75.349
0
LINE
8
BLACK
6
CONTINUOUS
10
127.044
20
-75.349
11
127.208
21
-75.3817
0
LINE
8
BLACK
6
CONTINUOUS
10
125.311
20
-77.051
11
123.609
21
-77.051
0
LINE
8
BLACK
6
CONTINUOUS
10
123.609
20
-77.051
11
123.609
21
-75.349
0
LINE
8
BLACK
6
CONTINUOUS
10
123.609
20
-75.349
11
125.311
21
-75.349
0
LINE
8
BLACK
6
CONTINUOUS
10
125.311
20
-75.349
11
125.311
21
-77.051
0
LINE
8
BLACK
6
CONTINUOUS
10
132.496
20
-76.656
11
130.394
21
-76.656
0
LINE
8
BLACK
6
CONTINUOUS
10
130.394
20
-76.656
11
130.394
21
-74.554
0
LINE
8
BLACK
6
CONTINUOUS
10
130.394
20
-74.554
11
132.496
21
-74.554
0
LINE
8
BLACK
6
CONTINUOUS
10
132.496
20
-74.554
11
132.496
21
-76.656
0
LINE
8
BLACK
6
CONTINUOUS
10
132.496
20
-74.156
11
130.394
21
-74.156
0
LINE
8
BLACK
6
CONTINUOUS
10
130.394
20
-74.156
11
130.394
21
-72.054
0
LINE
8
BLACK
6
CONTINUOUS
10
130.394
20
-72.054
11
132.496
21
-72.054
0
LINE
8
BLACK
6
CONTINUOUS
10
132.496
20
-72.054
11
132.496
21
-74.156
0
LINE
8
BLACK
6
CONTINUOUS
10
122.157
20
-70.3382
11
122.305
21
-70.3995
0
LINE
8
BLACK
6
CONTINUOUS
10
122.305
20
-70.3995
11
122.438
21
-70.4885
0
LINE
8
BLACK
6
CONTINUOUS
10
122.438
20
-70.4885
11
122.552
21
-70.6017
0
LINE
8
BLACK
6
CONTINUOUS
10
122.552
20
-70.6017
11
122.64
21
-70.7349
0
LINE
8
BLACK
6
CONTINUOUS
10
122.64
20
-70.7349
11
122.702
21
-70.8829
0
LINE
8
BLACK
6
CONTINUOUS
10
122.702
20
-70.8829
11
122.733
21
-71.0399
0
LINE
8
BLACK
6
CONTINUOUS
10
122.733
20
-71.0399
11
122.733
21
-71.2001
0
LINE
8
BLACK
6
CONTINUOUS
10
122.733
20
-71.2001
11
122.702
21
-71.3571
0
LINE
8
BLACK
6
CONTINUOUS
10
122.702
20
-71.3571
11
122.64
21
-71.5051
0
LINE
8
BLACK
6
CONTINUOUS
10
122.64
20
-71.5051
11
122.552
21
-71.6383
0
LINE
8
BLACK
6
CONTINUOUS
10
122.552
20
-71.6383
11
122.438
21
-71.7515
0
LINE
8
BLACK
6
CONTINUOUS
10
122.438
20
-71.7515
11
122.305
21
-71.8405
0
LINE
8
BLACK
6
CONTINUOUS
10
122.305
20
-71.8405
11
122.157
21
-71.9018
0
LINE
8
BLACK
6
CONTINUOUS
10
122.157
20
-71.9018
11
122
21
-71.933
0
LINE
8
BLACK
6
CONTINUOUS
10
122
20
-71.933
11
121.84
21
-71.933
0
LINE
8
BLACK
6
CONTINUOUS
10
121.84
20
-71.933
11
121.683
21
-71.9018
0
LINE
8
BLACK
6
CONTINUOUS
10
121.683
20
-71.9018
11
121.535
21
-71.8405
0
LINE
8
BLACK
6
CONTINUOUS
10
121.535
20
-71.8405
11
121.402
21
-71.7515
0
LINE
8
BLACK
6
CONTINUOUS
10
121.402
20
-71.7515
11
121.288
21
-71.6383
0
LINE
8
BLACK
6
CONTINUOUS
10
121.288
20
-71.6383
11
121.2
21
-71.5051
0
LINE
8
BLACK
6
CONTINUOUS
10
121.2
20
-71.5051
11
121.138
21
-71.3571
0
LINE
8
BLACK
6
CONTINUOUS
10
121.138
20
-71.3571
11
121.107
21
-71.2001
0
LINE
8
BLACK
6
CONTINUOUS
10
121.107
20
-71.2001
11
121.107
21
-71.0399
0
LINE
8
BLACK
6
CONTINUOUS
10
121.107
20
-71.0399
11
121.138
21
-70.8829
0
LINE
8
BLACK
6
CONTINUOUS
10
121.138
20
-70.8829
11
121.2
21
-70.7349
0
LINE
8
BLACK
6
CONTINUOUS
10
121.2
20
-70.7349
11
121.288
21
-70.6017
0
LINE
8
BLACK
6
CONTINUOUS
10
121.288
20
-70.6017
11
121.402
21
-70.4885
0
LINE
8
BLACK
6
CONTINUOUS
10
121.402
20
-70.4885
11
121.535
21
-70.3995
0
LINE
8
BLACK
6
CONTINUOUS
10
121.535
20
-70.3995
11
121.683
21
-70.3382
0
LINE
8
BLACK
6
CONTINUOUS
10
121.683
20
-70.3382
11
121.84
21
-70.307
0
LINE
8
BLACK
6
CONTINUOUS
10
121.84
20
-70.307
11
122
21
-70.307
0
LINE
8
BLACK
6
CONTINUOUS
10
122
20
-70.307
11
122.157
21
-70.3382
0
LINE
8
BLACK
6
CONTINUOUS
10
119.617
20
-70.3382
11
119.765
21
-70.3995
0
LINE
8
BLACK
6
CONTINUOUS
10
119.765
20
-70.3995
11
119.898
21
-70.4885
0
LINE
8
BLACK
6
CONTINUOUS
10
119.898
20
-70.4885
11
120.012
21
-70.6017
0
LINE
8
BLACK
6
CONTINUOUS
10
120.012
20
-70.6017
11
120.1
21
-70.7349
0
LINE
8
BLACK
6
CONTINUOUS
10
120.1
20
-70.7349
11
120.162
21
-70.8829
0
LINE
8
BLACK
6
CONTINUOUS
10
120.162
20
-70.8829
11
120.193
21
-71.0399
0
LINE
8
BLACK
6
CONTINUOUS
10
120.193
20
-71.0399
11
120.193
21
-71.2001
0
LINE
8
BLACK
6
CONTINUOUS
10
120.193
20
-71.2001
11
120.162
21
-71.3571
0
LINE
8
BLACK
6
CONTINUOUS
10
120.162
20
-71.3571
11
120.1
21
-71.5051
0
LINE
8
BLACK
6
CONTINUOUS
10
120.1
20
-71.5051
11
120.012
21
-71.6383
0
LINE
8
BLACK
6
CONTINUOUS
10
120.012
20
-71.6383
11
119.898
21
-71.7515
0
LINE
8
BLACK
6
CONTINUOUS
10
119.898
20
-71.7515
11
119.765
21
-71.8405
0
LINE
8
BLACK
6
CONTINUOUS
10
119.765
20
-71.8405
11
119.617
21
-71.9018
0
LINE
8
BLACK
6
CONTINUOUS
10
119.617
20
-71.9018
11
119.46
21
-71.933
0
LINE
8
BLACK
6
CONTINUOUS
10
119.46
20
-71.933
11
119.3
21
-71.933
0
LINE
8
BLACK
6
CONTINUOUS
10
119.3
20
-71.933
11
119.143
21
-71.9018
0
LINE
8
BLACK
6
CONTINUOUS
10
119.143
20
-71.9018
11
118.995
21
-71.8405
0
LINE
8
BLACK
6
CONTINUOUS
10
118.995
20
-71.8405
11
118.862
21
-71.7515
0
LINE
8
BLACK
6
CONTINUOUS
10
118.862
20
-71.7515
11
118.748
21
-71.6383
0
LINE
8
BLACK
6
CONTINUOUS
10
118.748
20
-71.6383
11
118.66
21
-71.5051
0
LINE
8
BLACK
6
CONTINUOUS
10
118.66
20
-71.5051
11
118.598
21
-71.3571
0
LINE
8
BLACK
6
CONTINUOUS
10
118.598
20
-71.3571
11
118.567
21
-71.2001
0
LINE
8
BLACK
6
CONTINUOUS
10
118.567
20
-71.2001
11
118.567
21
-71.0399
0
LINE
8
BLACK
6
CONTINUOUS
10
118.567
20
-71.0399
11
118.598
21
-70.8829
0
LINE
8
BLACK
6
CONTINUOUS
10
118.598
20
-70.8829
11
118.66
21
-70.7349
0
LINE
8
BLACK
6
CONTINUOUS
10
118.66
20
-70.7349
11
118.748
21
-70.6017
0
LINE
8
BLACK
6
CONTINUOUS
10
118.748
20
-70.6017
11
118.862
21
-70.4885
0
LINE
8
BLACK
6
CONTINUOUS
10
118.862
20
-70.4885
11
118.995
21
-70.3995
0
LINE
8
BLACK
6
CONTINUOUS
10
118.995
20
-70.3995
11
119.143
21
-70.3382
0
LINE
8
BLACK
6
CONTINUOUS
10
119.143
20
-70.3382
11
119.3
21
-70.307
0
LINE
8
BLACK
6
CONTINUOUS
10
119.3
20
-70.307
11
119.46
21
-70.307
0
LINE
8
BLACK
6
CONTINUOUS
10
119.46
20
-70.307
11
119.617
21
-70.3382
0
LINE
8
BLACK
6
CONTINUOUS
10
132.496
20
-71.656
11
130.394
21
-71.656
0
LINE
8
BLACK
6
CONTINUOUS
10
130.394
20
-71.656
11
130.394
21
-69.554
0
LINE
8
BLACK
6
CONTINUOUS
10
130.394
20
-69.554
11
132.496
21
-69.554
0
LINE
8
BLACK
6
CONTINUOUS
10
132.496
20
-69.554
11
132.496
21
-71.656
0
LINE
8
BLACK
6
CONTINUOUS
10
119.617
20
-67.7982
11
119.765
21
-67.8595
0
LINE
8
BLACK
6
CONTINUOUS
10
119.765
20
-67.8595
11
119.898
21
-67.9485
0
LINE
8
BLACK
6
CONTINUOUS
10
119.898
20
-67.9485
11
120.012
21
-68.0617
0
LINE
8
BLACK
6
CONTINUOUS
10
120.012
20
-68.0617
11
120.1
21
-68.1949
0
LINE
8
BLACK
6
CONTINUOUS
10
120.1
20
-68.1949
11
120.162
21
-68.3429
0
LINE
8
BLACK
6
CONTINUOUS
10
120.162
20
-68.3429
11
120.193
21
-68.4999
0
LINE
8
BLACK
6
CONTINUOUS
10
120.193
20
-68.4999
11
120.193
21
-68.6601
0
LINE
8
BLACK
6
CONTINUOUS
10
120.193
20
-68.6601
11
120.162
21
-68.8171
0
LINE
8
BLACK
6
CONTINUOUS
10
120.162
20
-68.8171
11
120.1
21
-68.9651
0
LINE
8
BLACK
6
CONTINUOUS
10
120.1
20
-68.9651
11
120.012
21
-69.0983
0
LINE
8
BLACK
6
CONTINUOUS
10
120.012
20
-69.0983
11
119.898
21
-69.2115
0
LINE
8
BLACK
6
CONTINUOUS
10
119.898
20
-69.2115
11
119.765
21
-69.3005
0
LINE
8
BLACK
6
CONTINUOUS
10
119.765
20
-69.3005
11
119.617
21
-69.3618
0
LINE
8
BLACK
6
CONTINUOUS
10
119.617
20
-69.3618
11
119.46
21
-69.393
0
LINE
8
BLACK
6
CONTINUOUS
10
119.46
20
-69.393
11
119.3
21
-69.393
0
LINE
8
BLACK
6
CONTINUOUS
10
119.3
20
-69.393
11
119.143
21
-69.3618
0
LINE
8
BLACK
6
CONTINUOUS
10
119.143
20
-69.3618
11
118.995
21
-69.3005
0
LINE
8
BLACK
6
CONTINUOUS
10
118.995
20
-69.3005
11
118.862
21
-69.2115
0
LINE
8
BLACK
6
CONTINUOUS
10
118.862
20
-69.2115
11
118.748
21
-69.0983
0
LINE
8
BLACK
6
CONTINUOUS
10
118.748
20
-69.0983
11
118.66
21
-68.9651
0
LINE
8
BLACK
6
CONTINUOUS
10
118.66
20
-68.9651
11
118.598
21
-68.8171
0
LINE
8
BLACK
6
CONTINUOUS
10
118.598
20
-68.8171
11
118.567
21
-68.6601
0
LINE
8
BLACK
6
CONTINUOUS
10
118.567
20
-68.6601
11
118.567
21
-68.4999
0
LINE
8
BLACK
6
CONTINUOUS
10
118.567
20
-68.4999
11
118.598
21
-68.3429
0
LINE
8
BLACK
6
CONTINUOUS
10
118.598
20
-68.3429
11
118.66
21
-68.1949
0
LINE
8
BLACK
6
CONTINUOUS
10
118.66
20
-68.1949
11
118.748
21
-68.0617
0
LINE
8
BLACK
6
CONTINUOUS
10
118.748
20
-68.0617
11
118.862
21
-67.9485
0
LINE
8
BLACK
6
CONTINUOUS
10
118.862
20
-67.9485
11
118.995
21
-67.8595
0
LINE
8
BLACK
6
CONTINUOUS
10
118.995
20
-67.8595
11
119.143
21
-67.7982
0
LINE
8
BLACK
6
CONTINUOUS
10
119.143
20
-67.7982
11
119.3
21
-67.767
0
LINE
8
BLACK
6
CONTINUOUS
10
119.3
20
-67.767
11
119.46
21
-67.767
0
LINE
8
BLACK
6
CONTINUOUS
10
119.46
20
-67.767
11
119.617
21
-67.7982
0
LINE
8
BLACK
6
CONTINUOUS
10
122.157
20
-67.7982
11
122.305
21
-67.8595
0
LINE
8
BLACK
6
CONTINUOUS
10
122.305
20
-67.8595
11
122.438
21
-67.9485
0
LINE
8
BLACK
6
CONTINUOUS
10
122.438
20
-67.9485
11
122.552
21
-68.0617
0
LINE
8
BLACK
6
CONTINUOUS
10
122.552
20
-68.0617
11
122.64
21
-68.1949
0
LINE
8
BLACK
6
CONTINUOUS
10
122.64
20
-68.1949
11
122.702
21
-68.3429
0
LINE
8
BLACK
6
CONTINUOUS
10
122.702
20
-68.3429
11
122.733
21
-68.4999
0
LINE
8
BLACK
6
CONTINUOUS
10
122.733
20
-68.4999
11
122.733
21
-68.6601
0
LINE
8
BLACK
6
CONTINUOUS
10
122.733
20
-68.6601
11
122.702
21
-68.8171
0
LINE
8
BLACK
6
CONTINUOUS
10
122.702
20
-68.8171
11
122.64
21
-68.9651
0
LINE
8
BLACK
6
CONTINUOUS
10
122.64
20
-68.9651
11
122.552
21
-69.0983
0
LINE
8
BLACK
6
CONTINUOUS
10
122.552
20
-69.0983
11
122.438
21
-69.2115
0
LINE
8
BLACK
6
CONTINUOUS
10
122.438
20
-69.2115
11
122.305
21
-69.3005
0
LINE
8
BLACK
6
CONTINUOUS
10
122.305
20
-69.3005
11
122.157
21
-69.3618
0
LINE
8
BLACK
6
CONTINUOUS
10
122.157
20
-69.3618
11
122
21
-69.393
0
LINE
8
BLACK
6
CONTINUOUS
10
122
20
-69.393
11
121.84
21
-69.393
0
LINE
8
BLACK
6
CONTINUOUS
10
121.84
20
-69.393
11
121.683
21
-69.3618
0
LINE
8
BLACK
6
CONTINUOUS
10
121.683
20
-69.3618
11
121.535
21
-69.3005
0
LINE
8
BLACK
6
CONTINUOUS
10
121.535
20
-69.3005
11
121.402
21
-69.2115
0
LINE
8
BLACK
6
CONTINUOUS
10
121.402
20
-69.2115
11
121.288
21
-69.0983
0
LINE
8
BLACK
6
CONTINUOUS
10
121.288
20
-69.0983
11
121.2
21
-68.9651
0
LINE
8
BLACK
6
CONTINUOUS
10
121.2
20
-68.9651
11
121.138
21
-68.8171
0
LINE
8
BLACK
6
CONTINUOUS
10
121.138
20
-68.8171
11
121.107
21
-68.6601
0
LINE
8
BLACK
6
CONTINUOUS
10
121.107
20
-68.6601
11
121.107
21
-68.4999
0
LINE
8
BLACK
6
CONTINUOUS
10
121.107
20
-68.4999
11
121.138
21
-68.3429
0
LINE
8
BLACK
6
CONTINUOUS
10
121.138
20
-68.3429
11
121.2
21
-68.1949
0
LINE
8
BLACK
6
CONTINUOUS
10
121.2
20
-68.1949
11
121.288
21
-68.0617
0
LINE
8
BLACK
6
CONTINUOUS
10
121.288
20
-68.0617
11
121.402
21
-67.9485
0
LINE
8
BLACK
6
CONTINUOUS
10
121.402
20
-67.9485
11
121.535
21
-67.8595
0
LINE
8
BLACK
6
CONTINUOUS
10
121.535
20
-67.8595
11
121.683
21
-67.7982
0
LINE
8
BLACK
6
CONTINUOUS
10
121.683
20
-67.7982
11
121.84
21
-67.767
0
LINE
8
BLACK
6
CONTINUOUS
10
121.84
20
-67.767
11
122
21
-67.767
0
LINE
8
BLACK
6
CONTINUOUS
10
122
20
-67.767
11
122.157
21
-67.7982
0
LINE
8
BLACK
6
CONTINUOUS
10
132.496
20
-69.156
11
130.394
21
-69.156
0
LINE
8
BLACK
6
CONTINUOUS
10
130.394
20
-69.156
11
130.394
21
-67.054
0
LINE
8
BLACK
6
CONTINUOUS
10
130.394
20
-67.054
11
132.496
21
-67.054
0
LINE
8
BLACK
6
CONTINUOUS
10
132.496
20
-67.054
11
132.496
21
-69.156
0
LINE
8
BLACK
6
CONTINUOUS
10
122.157
20
-65.2582
11
122.305
21
-65.3195
0
LINE
8
BLACK
6
CONTINUOUS
10
122.305
20
-65.3195
11
122.438
21
-65.4085
0
LINE
8
BLACK
6
CONTINUOUS
10
122.438
20
-65.4085
11
122.552
21
-65.5217
0
LINE
8
BLACK
6
CONTINUOUS
10
122.552
20
-65.5217
11
122.64
21
-65.6549
0
LINE
8
BLACK
6
CONTINUOUS
10
122.64
20
-65.6549
11
122.702
21
-65.8029
0
LINE
8
BLACK
6
CONTINUOUS
10
122.702
20
-65.8029
11
122.733
21
-65.9599
0
LINE
8
BLACK
6
CONTINUOUS
10
122.733
20
-65.9599
11
122.733
21
-66.1201
0
LINE
8
BLACK
6
CONTINUOUS
10
122.733
20
-66.1201
11
122.702
21
-66.2771
0
LINE
8
BLACK
6
CONTINUOUS
10
122.702
20
-66.2771
11
122.64
21
-66.4251
0
LINE
8
BLACK
6
CONTINUOUS
10
122.64
20
-66.4251
11
122.552
21
-66.5583
0
LINE
8
BLACK
6
CONTINUOUS
10
122.552
20
-66.5583
11
122.438
21
-66.6715
0
LINE
8
BLACK
6
CONTINUOUS
10
122.438
20
-66.6715
11
122.305
21
-66.7605
0
LINE
8
BLACK
6
CONTINUOUS
10
122.305
20
-66.7605
11
122.157
21
-66.8218
0
LINE
8
BLACK
6
CONTINUOUS
10
122.157
20
-66.8218
11
122
21
-66.853
0
LINE
8
BLACK
6
CONTINUOUS
10
122
20
-66.853
11
121.84
21
-66.853
0
LINE
8
BLACK
6
CONTINUOUS
10
121.84
20
-66.853
11
121.683
21
-66.8218
0
LINE
8
BLACK
6
CONTINUOUS
10
121.683
20
-66.8218
11
121.535
21
-66.7605
0
LINE
8
BLACK
6
CONTINUOUS
10
121.535
20
-66.7605
11
121.402
21
-66.6715
0
LINE
8
BLACK
6
CONTINUOUS
10
121.402
20
-66.6715
11
121.288
21
-66.5583
0
LINE
8
BLACK
6
CONTINUOUS
10
121.288
20
-66.5583
11
121.2
21
-66.4251
0
LINE
8
BLACK
6
CONTINUOUS
10
121.2
20
-66.4251
11
121.138
21
-66.2771
0
LINE
8
BLACK
6
CONTINUOUS
10
121.138
20
-66.2771
11
121.107
21
-66.1201
0
LINE
8
BLACK
6
CONTINUOUS
10
121.107
20
-66.1201
11
121.107
21
-65.9599
0
LINE
8
BLACK
6
CONTINUOUS
10
121.107
20
-65.9599
11
121.138
21
-65.8029
0
LINE
8
BLACK
6
CONTINUOUS
10
121.138
20
-65.8029
11
121.2
21
-65.6549
0
LINE
8
BLACK
6
CONTINUOUS
10
121.2
20
-65.6549
11
121.288
21
-65.5217
0
LINE
8
BLACK
6
CONTINUOUS
10
121.288
20
-65.5217
11
121.402
21
-65.4085
0
LINE
8
BLACK
6
CONTINUOUS
10
121.402
20
-65.4085
11
121.535
21
-65.3195
0
LINE
8
BLACK
6
CONTINUOUS
10
121.535
20
-65.3195
11
121.683
21
-65.2582
0
LINE
8
BLACK
6
CONTINUOUS
10
121.683
20
-65.2582
11
121.84
21
-65.227
0
LINE
8
BLACK
6
CONTINUOUS
10
121.84
20
-65.227
11
122
21
-65.227
0
LINE
8
BLACK
6
CONTINUOUS
10
122
20
-65.227
11
122.157
21
-65.2582
0
LINE
8
BLACK
6
CONTINUOUS
10
119.617
20
-65.2582
11
119.765
21
-65.3195
0
LINE
8
BLACK
6
CONTINUOUS
10
119.765
20
-65.3195
11
119.898
21
-65.4085
0
LINE
8
BLACK
6
CONTINUOUS
10
119.898
20
-65.4085
11
120.012
21
-65.5217
0
LINE
8
BLACK
6
CONTINUOUS
10
120.012
20
-65.5217
11
120.1
21
-65.6549
0
LINE
8
BLACK
6
CONTINUOUS
10
120.1
20
-65.6549
11
120.162
21
-65.8029
0
LINE
8
BLACK
6
CONTINUOUS
10
120.162
20
-65.8029
11
120.193
21
-65.9599
0
LINE
8
BLACK
6
CONTINUOUS
10
120.193
20
-65.9599
11
120.193
21
-66.1201
0
LINE
8
BLACK
6
CONTINUOUS
10
120.193
20
-66.1201
11
120.162
21
-66.2771
0
LINE
8
BLACK
6
CONTINUOUS
10
120.162
20
-66.2771
11
120.1
21
-66.4251
0
LINE
8
BLACK
6
CONTINUOUS
10
120.1
20
-66.4251
11
120.012
21
-66.5583
0
LINE
8
BLACK
6
CONTINUOUS
10
120.012
20
-66.5583
11
119.898
21
-66.6715
0
LINE
8
BLACK
6
CONTINUOUS
10
119.898
20
-66.6715
11
119.765
21
-66.7605
0
LINE
8
BLACK
6
CONTINUOUS
10
119.765
20
-66.7605
11
119.617
21
-66.8218
0
LINE
8
BLACK
6
CONTINUOUS
10
119.617
20
-66.8218
11
119.46
21
-66.853
0
LINE
8
BLACK
6
CONTINUOUS
10
119.46
20
-66.853
11
119.3
21
-66.853
0
LINE
8
BLACK
6
CONTINUOUS
10
119.3
20
-66.853
11
119.143
21
-66.8218
0
LINE
8
BLACK
6
CONTINUOUS
10
119.143
20
-66.8218
11
118.995
21
-66.7605
0
LINE
8
BLACK
6
CONTINUOUS
10
118.995
20
-66.7605
11
118.862
21
-66.6715
0
LINE
8
BLACK
6
CONTINUOUS
10
118.862
20
-66.6715
11
118.748
21
-66.5583
0
LINE
8
BLACK
6
CONTINUOUS
10
118.748
20
-66.5583
11
118.66
21
-66.4251
0
LINE
8
BLACK
6
CONTINUOUS
10
118.66
20
-66.4251
11
118.598
21
-66.2771
0
LINE
8
BLACK
6
CONTINUOUS
10
118.598
20
-66.2771
11
118.567
21
-66.1201
0
LINE
8
BLACK
6
CONTINUOUS
10
118.567
20
-66.1201
11
118.567
21
-65.9599
0
LINE
8
BLACK
6
CONTINUOUS
10
118.567
20
-65.9599
11
118.598
21
-65.8029
0
LINE
8
BLACK
6
CONTINUOUS
10
118.598
20
-65.8029
11
118.66
21
-65.6549
0
LINE
8
BLACK
6
CONTINUOUS
10
118.66
20
-65.6549
11
118.748
21
-65.5217
0
LINE
8
BLACK
6
CONTINUOUS
10
118.748
20
-65.5217
11
118.862
21
-65.4085
0
LINE
8
BLACK
6
CONTINUOUS
10
118.862
20
-65.4085
11
118.995
21
-65.3195
0
LINE
8
BLACK
6
CONTINUOUS
10
118.995
20
-65.3195
11
119.143
21
-65.2582
0
LINE
8
BLACK
6
CONTINUOUS
10
119.143
20
-65.2582
11
119.3
21
-65.227
0
LINE
8
BLACK
6
CONTINUOUS
10
119.3
20
-65.227
11
119.46
21
-65.227
0
LINE
8
BLACK
6
CONTINUOUS
10
119.46
20
-65.227
11
119.617
21
-65.2582
0
LINE
8
BLACK
6
CONTINUOUS
10
132.496
20
-66.656
11
130.394
21
-66.656
0
LINE
8
BLACK
6
CONTINUOUS
10
130.394
20
-66.656
11
130.394
21
-64.554
0
LINE
8
BLACK
6
CONTINUOUS
10
130.394
20
-64.554
11
132.496
21
-64.554
0
LINE
8
BLACK
6
CONTINUOUS
10
132.496
20
-64.554
11
132.496
21
-66.656
0
LINE
8
BLACK
6
CONTINUOUS
10
119.617
20
-62.7182
11
119.765
21
-62.7795
0
LINE
8
BLACK
6
CONTINUOUS
10
119.765
20
-62.7795
11
119.898
21
-62.8685
0
LINE
8
BLACK
6
CONTINUOUS
10
119.898
20
-62.8685
11
120.012
21
-62.9817
0
LINE
8
BLACK
6
CONTINUOUS
10
120.012
20
-62.9817
11
120.1
21
-63.1149
0
LINE
8
BLACK
6
CONTINUOUS
10
120.1
20
-63.1149
11
120.162
21
-63.2629
0
LINE
8
BLACK
6
CONTINUOUS
10
120.162
20
-63.2629
11
120.193
21
-63.4199
0
LINE
8
BLACK
6
CONTINUOUS
10
120.193
20
-63.4199
11
120.193
21
-63.5801
0
LINE
8
BLACK
6
CONTINUOUS
10
120.193
20
-63.5801
11
120.162
21
-63.7371
0
LINE
8
BLACK
6
CONTINUOUS
10
120.162
20
-63.7371
11
120.1
21
-63.8851
0
LINE
8
BLACK
6
CONTINUOUS
10
120.1
20
-63.8851
11
120.012
21
-64.0183
0
LINE
8
BLACK
6
CONTINUOUS
10
120.012
20
-64.0183
11
119.898
21
-64.1315
0
LINE
8
BLACK
6
CONTINUOUS
10
119.898
20
-64.1315
11
119.765
21
-64.2205
0
LINE
8
BLACK
6
CONTINUOUS
10
119.765
20
-64.2205
11
119.617
21
-64.2818
0
LINE
8
BLACK
6
CONTINUOUS
10
119.617
20
-64.2818
11
119.46
21
-64.313
0
LINE
8
BLACK
6
CONTINUOUS
10
119.46
20
-64.313
11
119.3
21
-64.313
0
LINE
8
BLACK
6
CONTINUOUS
10
119.3
20
-64.313
11
119.143
21
-64.2818
0
LINE
8
BLACK
6
CONTINUOUS
10
119.143
20
-64.2818
11
118.995
21
-64.2205
0
LINE
8
BLACK
6
CONTINUOUS
10
118.995
20
-64.2205
11
118.862
21
-64.1315
0
LINE
8
BLACK
6
CONTINUOUS
10
118.862
20
-64.1315
11
118.748
21
-64.0183
0
LINE
8
BLACK
6
CONTINUOUS
10
118.748
20
-64.0183
11
118.66
21
-63.8851
0
LINE
8
BLACK
6
CONTINUOUS
10
118.66
20
-63.8851
11
118.598
21
-63.7371
0
LINE
8
BLACK
6
CONTINUOUS
10
118.598
20
-63.7371
11
118.567
21
-63.5801
0
LINE
8
BLACK
6
CONTINUOUS
10
118.567
20
-63.5801
11
118.567
21
-63.4199
0
LINE
8
BLACK
6
CONTINUOUS
10
118.567
20
-63.4199
11
118.598
21
-63.2629
0
LINE
8
BLACK
6
CONTINUOUS
10
118.598
20
-63.2629
11
118.66
21
-63.1149
0
LINE
8
BLACK
6
CONTINUOUS
10
118.66
20
-63.1149
11
118.748
21
-62.9817
0
LINE
8
BLACK
6
CONTINUOUS
10
118.748
20
-62.9817
11
118.862
21
-62.8685
0
LINE
8
BLACK
6
CONTINUOUS
10
118.862
20
-62.8685
11
118.995
21
-62.7795
0
LINE
8
BLACK
6
CONTINUOUS
10
118.995
20
-62.7795
11
119.143
21
-62.7182
0
LINE
8
BLACK
6
CONTINUOUS
10
119.143
20
-62.7182
11
119.3
21
-62.687
0
LINE
8
BLACK
6
CONTINUOUS
10
119.3
20
-62.687
11
119.46
21
-62.687
0
LINE
8
BLACK
6
CONTINUOUS
10
119.46
20
-62.687
11
119.617
21
-62.7182
0
LINE
8
BLACK
6
CONTINUOUS
10
122.157
20
-62.7182
11
122.305
21
-62.7795
0
LINE
8
BLACK
6
CONTINUOUS
10
122.305
20
-62.7795
11
122.438
21
-62.8685
0
LINE
8
BLACK
6
CONTINUOUS
10
122.438
20
-62.8685
11
122.552
21
-62.9817
0
LINE
8
BLACK
6
CONTINUOUS
10
122.552
20
-62.9817
11
122.64
21
-63.1149
0
LINE
8
BLACK
6
CONTINUOUS
10
122.64
20
-63.1149
11
122.702
21
-63.2629
0
LINE
8
BLACK
6
CONTINUOUS
10
122.702
20
-63.2629
11
122.733
21
-63.4199
0
LINE
8
BLACK
6
CONTINUOUS
10
122.733
20
-63.4199
11
122.733
21
-63.5801
0
LINE
8
BLACK
6
CONTINUOUS
10
122.733
20
-63.5801
11
122.702
21
-63.7371
0
LINE
8
BLACK
6
CONTINUOUS
10
122.702
20
-63.7371
11
122.64
21
-63.8851
0
LINE
8
BLACK
6
CONTINUOUS
10
122.64
20
-63.8851
11
122.552
21
-64.0183
0
LINE
8
BLACK
6
CONTINUOUS
10
122.552
20
-64.0183
11
122.438
21
-64.1315
0
LINE
8
BLACK
6
CONTINUOUS
10
122.438
20
-64.1315
11
122.305
21
-64.2205
0
LINE
8
BLACK
6
CONTINUOUS
10
122.305
20
-64.2205
11
122.157
21
-64.2818
0
LINE
8
BLACK
6
CONTINUOUS
10
122.157
20
-64.2818
11
122
21
-64.313
0
LINE
8
BLACK
6
CONTINUOUS
10
122
20
-64.313
11
121.84
21
-64.313
0
LINE
8
BLACK
6
CONTINUOUS
10
121.84
20
-64.313
11
121.683
21
-64.2818
0
LINE
8
BLACK
6
CONTINUOUS
10
121.683
20
-64.2818
11
121.535
21
-64.2205
0
LINE
8
BLACK
6
CONTINUOUS
10
121.535
20
-64.2205
11
121.402
21
-64.1315
0
LINE
8
BLACK
6
CONTINUOUS
10
121.402
20
-64.1315
11
121.288
21
-64.0183
0
LINE
8
BLACK
6
CONTINUOUS
10
121.288
20
-64.0183
11
121.2
21
-63.8851
0
LINE
8
BLACK
6
CONTINUOUS
10
121.2
20
-63.8851
11
121.138
21
-63.7371
0
LINE
8
BLACK
6
CONTINUOUS
10
121.138
20
-63.7371
11
121.107
21
-63.5801
0
LINE
8
BLACK
6
CONTINUOUS
10
121.107
20
-63.5801
11
121.107
21
-63.4199
0
LINE
8
BLACK
6
CONTINUOUS
10
121.107
20
-63.4199
11
121.138
21
-63.2629
0
LINE
8
BLACK
6
CONTINUOUS
10
121.138
20
-63.2629
11
121.2
21
-63.1149
0
LINE
8
BLACK
6
CONTINUOUS
10
121.2
20
-63.1149
11
121.288
21
-62.9817
0
LINE
8
BLACK
6
CONTINUOUS
10
121.288
20
-62.9817
11
121.402
21
-62.8685
0
LINE
8
BLACK
6
CONTINUOUS
10
121.402
20
-62.8685
11
121.535
21
-62.7795
0
LINE
8
BLACK
6
CONTINUOUS
10
121.535
20
-62.7795
11
121.683
21
-62.7182
0
LINE
8
BLACK
6
CONTINUOUS
10
121.683
20
-62.7182
11
121.84
21
-62.687
0
LINE
8
BLACK
6
CONTINUOUS
10
121.84
20
-62.687
11
122
21
-62.687
0
LINE
8
BLACK
6
CONTINUOUS
10
122
20
-62.687
11
122.157
21
-62.7182
0
LINE
8
BLACK
6
CONTINUOUS
10
132.496
20
-64.156
11
130.394
21
-64.156
0
LINE
8
BLACK
6
CONTINUOUS
10
130.394
20
-64.156
11
130.394
21
-62.054
0
LINE
8
BLACK
6
CONTINUOUS
10
130.394
20
-62.054
11
132.496
21
-62.054
0
LINE
8
BLACK
6
CONTINUOUS
10
132.496
20
-62.054
11
132.496
21
-64.156
  0
ENDSEC
  0
EOF
