  0
SECTION
  2
HEADER
  9
$ANGBASE
  50
0.0
  9
$ANGDIR
  70
  1
  9
$MEASUREMENT
  70
0
  0
ENDSEC
  0
SECTION
  2
TABLES
  0
TABLE
  2
LTYPE
  70
4
  0
LTYPE
  5
40F
  2
CONTINUOUS
  70
0
  3
Solid line
  72
65
  73
0
  40
0.0
  0
LTYPE
  5
410
  2
DASHDOT
 70
0
  3
Dash Dot ____ _ ____ _
 72
65
 73
4
 40
2.0
 49
1.25
 49
-0.25
 49
0.25
 49
-0.25
  0
LTYPE
  5
411
  2
DASHED
 70
0
  3
Dashed __ __ __ __ __
 72
65
 73
2
 40
0.75
 49
0.5
 49
-0.25
  0
LTYPE
  5
43B
  2
DOTTED
 70
0
  3
Dotted .  .  .  .
 72
65
 73
2
 40
0.2
 49
0.0
 49
-0.2
  0
ENDTAB
  0
TABLE
  2
STYLE
  70
4
  0
STYLE
  2
KICAD
  70
0
  40
0
  41
1
  42
1
  50
0
  71
0
  3
isocp.shx
  0
STYLE
  2
KICADB
  70
0
  40
0
  41
1
  42
1
  50
0
  71
0
  3
isocp.shx
  0
STYLE
  2
KICADI
  70
0
  40
0
  41
1
  42
1
  50
15
  71
0
  3
isocp.shx
  0
STYLE
  2
KICADBI
  70
0
  40
0
  41
1
  42
1
  50
15
  71
0
  3
isocp.shx
  0
ENDTAB
  0
TABLE
  2
LAYER
  70
30
  0
LAYER
  2
BLACK
  70
0
  62
7
  6
CONTINUOUS
  0
LAYER
  2
GRAY1
  70
0
  62
251
  6
CONTINUOUS
  0
LAYER
  2
GRAY2
  70
0
  62
8
  6
CONTINUOUS
  0
LAYER
  2
GRAY3
  70
0
  62
9
  6
CONTINUOUS
  0
LAYER
  2
WHITE
  70
0
  62
7
  6
CONTINUOUS
  0
LAYER
  2
LYELLOW
  70
0
  62
51
  6
CONTINUOUS
  0
LAYER
  2
BLUE1
  70
0
  62
178
  6
CONTINUOUS
  0
LAYER
  2
GREEN1
  70
0
  62
98
  6
CONTINUOUS
  0
LAYER
  2
CYAN1
  70
0
  62
138
  6
CONTINUOUS
  0
LAYER
  2
RED1
  70
0
  62
18
  6
CONTINUOUS
  0
LAYER
  2
MAGENTA1
  70
0
  62
228
  6
CONTINUOUS
  0
LAYER
  2
BROWN1
  70
0
  62
58
  6
CONTINUOUS
  0
LAYER
  2
BLUE2
  70
0
  62
5
  6
CONTINUOUS
  0
LAYER
  2
GREEN2
  70
0
  62
3
  6
CONTINUOUS
  0
LAYER
  2
CYAN2
  70
0
  62
4
  6
CONTINUOUS
  0
LAYER
  2
RED2
  70
0
  62
1
  6
CONTINUOUS
  0
LAYER
  2
MAGENTA2
  70
0
  62
6
  6
CONTINUOUS
  0
LAYER
  2
BROWN2
  70
0
  62
54
  6
CONTINUOUS
  0
LAYER
  2
BLUE3
  70
0
  62
171
  6
CONTINUOUS
  0
LAYER
  2
GREEN3
  70
0
  62
91
  6
CONTINUOUS
  0
LAYER
  2
CYAN3
  70
0
  62
131
  6
CONTINUOUS
  0
LAYER
  2
RED3
  70
0
  62
11
  6
CONTINUOUS
  0
LAYER
  2
MAGENTA3
  70
0
  62
221
  6
CONTINUOUS
  0
LAYER
  2
YELLOW3
  70
0
  62
2
  6
CONTINUOUS
  0
LAYER
  2
BLUE4
  70
0
  62
5
  6
CONTINUOUS
  0
LAYER
  2
GREEN4
  70
0
  62
3
  6
CONTINUOUS
  0
LAYER
  2
CYAN4
  70
0
  62
4
  6
CONTINUOUS
  0
LAYER
  2
RED4
  70
0
  62
1
  6
CONTINUOUS
  0
LAYER
  2
MAGENTA4
  70
0
  62
6
  6
CONTINUOUS
  0
LAYER
  2
YELLOW4
  70
0
  62
2
  6
CONTINUOUS
  0
ENDTAB
  0
ENDSEC
  0
SECTION
  2
ENTITIES
0
LINE
8
BLACK
6
CONTINUOUS
10
103.499
20
-103.293
11
103.606
21
-103.314
0
LINE
8
BLACK
6
CONTINUOUS
10
103.606
20
-103.314
11
103.906
21
-103.439
0
LINE
8
BLACK
6
CONTINUOUS
10
103.906
20
-103.439
11
104.176
21
-103.62
0
LINE
8
BLACK
6
CONTINUOUS
10
104.176
20
-103.62
11
104.406
21
-103.85
0
LINE
8
BLACK
6
CONTINUOUS
10
104.406
20
-103.85
11
104.587
21
-104.12
0
LINE
8
BLACK
6
CONTINUOUS
10
104.587
20
-104.12
11
104.712
21
-104.42
0
LINE
8
BLACK
6
CONTINUOUS
10
104.712
20
-104.42
11
104.775
21
-104.739
0
LINE
8
BLACK
6
CONTINUOUS
10
104.775
20
-104.739
11
104.775
21
-105.065
0
LINE
8
BLACK
6
CONTINUOUS
10
104.775
20
-105.065
11
104.712
21
-105.384
0
LINE
8
BLACK
6
CONTINUOUS
10
104.712
20
-105.384
11
104.587
21
-105.684
0
LINE
8
BLACK
6
CONTINUOUS
10
104.587
20
-105.684
11
104.406
21
-105.954
0
LINE
8
BLACK
6
CONTINUOUS
10
104.406
20
-105.954
11
104.176
21
-106.184
0
LINE
8
BLACK
6
CONTINUOUS
10
104.176
20
-106.184
11
103.906
21
-106.365
0
LINE
8
BLACK
6
CONTINUOUS
10
103.906
20
-106.365
11
103.606
21
-106.49
0
LINE
8
BLACK
6
CONTINUOUS
10
103.606
20
-106.49
11
103.499
21
-106.511
0
LINE
8
BLACK
6
CONTINUOUS
10
103.499
20
-106.511
11
103.287
21
-106.553
0
LINE
8
BLACK
6
CONTINUOUS
10
103.287
20
-106.553
11
102.961
21
-106.553
0
LINE
8
BLACK
6
CONTINUOUS
10
102.961
20
-106.553
11
102.749
21
-106.511
0
LINE
8
BLACK
6
CONTINUOUS
10
102.749
20
-106.511
11
102.642
21
-106.49
0
LINE
8
BLACK
6
CONTINUOUS
10
102.642
20
-106.49
11
102.342
21
-106.365
0
LINE
8
BLACK
6
CONTINUOUS
10
102.342
20
-106.365
11
102.072
21
-106.184
0
LINE
8
BLACK
6
CONTINUOUS
10
102.072
20
-106.184
11
101.842
21
-105.954
0
LINE
8
BLACK
6
CONTINUOUS
10
101.842
20
-105.954
11
101.661
21
-105.684
0
LINE
8
BLACK
6
CONTINUOUS
10
101.661
20
-105.684
11
101.536
21
-105.384
0
LINE
8
BLACK
6
CONTINUOUS
10
101.536
20
-105.384
11
101.473
21
-105.065
0
LINE
8
BLACK
6
CONTINUOUS
10
101.473
20
-105.065
11
101.473
21
-104.739
0
LINE
8
BLACK
6
CONTINUOUS
10
101.473
20
-104.739
11
101.536
21
-104.42
0
LINE
8
BLACK
6
CONTINUOUS
10
101.536
20
-104.42
11
101.661
21
-104.12
0
LINE
8
BLACK
6
CONTINUOUS
10
101.661
20
-104.12
11
101.842
21
-103.85
0
LINE
8
BLACK
6
CONTINUOUS
10
101.842
20
-103.85
11
102.072
21
-103.62
0
LINE
8
BLACK
6
CONTINUOUS
10
102.072
20
-103.62
11
102.342
21
-103.439
0
LINE
8
BLACK
6
CONTINUOUS
10
102.342
20
-103.439
11
102.642
21
-103.314
0
LINE
8
BLACK
6
CONTINUOUS
10
102.642
20
-103.314
11
102.749
21
-103.293
0
LINE
8
BLACK
6
CONTINUOUS
10
102.749
20
-103.293
11
102.961
21
-103.251
0
LINE
8
BLACK
6
CONTINUOUS
10
102.961
20
-103.251
11
103.287
21
-103.251
0
LINE
8
BLACK
6
CONTINUOUS
10
103.287
20
-103.251
11
103.499
21
-103.293
0
LINE
8
BLACK
6
CONTINUOUS
10
75.5593
20
-103.293
11
75.6656
21
-103.314
0
LINE
8
BLACK
6
CONTINUOUS
10
75.6656
20
-103.314
11
75.966
21
-103.439
0
LINE
8
BLACK
6
CONTINUOUS
10
75.966
20
-103.439
11
76.2365
21
-103.62
0
LINE
8
BLACK
6
CONTINUOUS
10
76.2365
20
-103.62
11
76.4664
21
-103.85
0
LINE
8
BLACK
6
CONTINUOUS
10
76.4664
20
-103.85
11
76.6471
21
-104.12
0
LINE
8
BLACK
6
CONTINUOUS
10
76.6471
20
-104.12
11
76.7716
21
-104.42
0
LINE
8
BLACK
6
CONTINUOUS
10
76.7716
20
-104.42
11
76.835
21
-104.739
0
LINE
8
BLACK
6
CONTINUOUS
10
76.835
20
-104.739
11
76.835
21
-105.065
0
LINE
8
BLACK
6
CONTINUOUS
10
76.835
20
-105.065
11
76.7716
21
-105.384
0
LINE
8
BLACK
6
CONTINUOUS
10
76.7716
20
-105.384
11
76.6471
21
-105.684
0
LINE
8
BLACK
6
CONTINUOUS
10
76.6471
20
-105.684
11
76.4664
21
-105.954
0
LINE
8
BLACK
6
CONTINUOUS
10
76.4664
20
-105.954
11
76.2365
21
-106.184
0
LINE
8
BLACK
6
CONTINUOUS
10
76.2365
20
-106.184
11
75.966
21
-106.365
0
LINE
8
BLACK
6
CONTINUOUS
10
75.966
20
-106.365
11
75.6656
21
-106.49
0
LINE
8
BLACK
6
CONTINUOUS
10
75.6656
20
-106.49
11
75.5593
21
-106.511
0
LINE
8
BLACK
6
CONTINUOUS
10
75.5593
20
-106.511
11
75.3466
21
-106.553
0
LINE
8
BLACK
6
CONTINUOUS
10
75.3466
20
-106.553
11
75.0214
21
-106.553
0
LINE
8
BLACK
6
CONTINUOUS
10
75.0214
20
-106.553
11
74.8087
21
-106.511
0
LINE
8
BLACK
6
CONTINUOUS
10
74.8087
20
-106.511
11
74.7024
21
-106.49
0
LINE
8
BLACK
6
CONTINUOUS
10
74.7024
20
-106.49
11
74.402
21
-106.365
0
LINE
8
BLACK
6
CONTINUOUS
10
74.402
20
-106.365
11
74.1315
21
-106.184
0
LINE
8
BLACK
6
CONTINUOUS
10
74.1315
20
-106.184
11
73.9016
21
-105.954
0
LINE
8
BLACK
6
CONTINUOUS
10
73.9016
20
-105.954
11
73.7209
21
-105.684
0
LINE
8
BLACK
6
CONTINUOUS
10
73.7209
20
-105.684
11
73.5964
21
-105.384
0
LINE
8
BLACK
6
CONTINUOUS
10
73.5964
20
-105.384
11
73.533
21
-105.065
0
LINE
8
BLACK
6
CONTINUOUS
10
73.533
20
-105.065
11
73.533
21
-104.739
0
LINE
8
BLACK
6
CONTINUOUS
10
73.533
20
-104.739
11
73.5964
21
-104.42
0
LINE
8
BLACK
6
CONTINUOUS
10
73.5964
20
-104.42
11
73.7209
21
-104.12
0
LINE
8
BLACK
6
CONTINUOUS
10
73.7209
20
-104.12
11
73.9016
21
-103.85
0
LINE
8
BLACK
6
CONTINUOUS
10
73.9016
20
-103.85
11
74.1315
21
-103.62
0
LINE
8
BLACK
6
CONTINUOUS
10
74.1315
20
-103.62
11
74.402
21
-103.439
0
LINE
8
BLACK
6
CONTINUOUS
10
74.402
20
-103.439
11
74.7024
21
-103.314
0
LINE
8
BLACK
6
CONTINUOUS
10
74.7024
20
-103.314
11
74.8087
21
-103.293
0
LINE
8
BLACK
6
CONTINUOUS
10
74.8087
20
-103.293
11
75.0214
21
-103.251
0
LINE
8
BLACK
6
CONTINUOUS
10
75.0214
20
-103.251
11
75.3466
21
-103.251
0
LINE
8
BLACK
6
CONTINUOUS
10
75.3466
20
-103.251
11
75.5593
21
-103.293
0
LINE
8
BLACK
6
CONTINUOUS
10
99.195
20
-106.18
11
91.813
21
-106.18
0
LINE
8
BLACK
6
CONTINUOUS
10
91.813
20
-106.18
11
91.813
21
-101.338
0
LINE
8
BLACK
6
CONTINUOUS
10
91.813
20
-101.338
11
99.195
21
-101.338
0
LINE
8
BLACK
6
CONTINUOUS
10
99.195
20
-101.338
11
99.195
21
-106.18
0
LINE
8
BLACK
6
CONTINUOUS
10
71.255
20
-103.513
11
68.953
21
-103.513
0
LINE
8
BLACK
6
CONTINUOUS
10
68.953
20
-103.513
11
68.953
21
-88.511
0
LINE
8
BLACK
6
CONTINUOUS
10
68.953
20
-88.511
11
71.255
21
-88.511
0
LINE
8
BLACK
6
CONTINUOUS
10
71.255
20
-88.511
11
71.255
21
-103.513
0
LINE
8
BLACK
6
CONTINUOUS
10
119.515
20
-103.513
11
117.213
21
-103.513
0
LINE
8
BLACK
6
CONTINUOUS
10
117.213
20
-103.513
11
117.213
21
-83.431
0
LINE
8
BLACK
6
CONTINUOUS
10
117.213
20
-83.431
11
119.515
21
-83.431
0
LINE
8
BLACK
6
CONTINUOUS
10
119.515
20
-83.431
11
119.515
21
-103.513
0
LINE
8
BLACK
6
CONTINUOUS
10
52.459
20
-103.259
11
50.157
21
-103.259
0
LINE
8
BLACK
6
CONTINUOUS
10
50.157
20
-103.259
11
50.157
21
-52.697
0
LINE
8
BLACK
6
CONTINUOUS
10
50.157
20
-52.697
11
52.459
21
-52.697
0
LINE
8
BLACK
6
CONTINUOUS
10
52.459
20
-52.697
11
52.459
21
-103.259
0
LINE
8
BLACK
6
CONTINUOUS
10
65.667
20
-103.259
11
63.365
21
-103.259
0
LINE
8
BLACK
6
CONTINUOUS
10
63.365
20
-103.259
11
63.365
21
-52.697
0
LINE
8
BLACK
6
CONTINUOUS
10
63.365
20
-52.697
11
65.667
21
-52.697
0
LINE
8
BLACK
6
CONTINUOUS
10
65.667
20
-52.697
11
65.667
21
-103.259
0
LINE
8
BLACK
6
CONTINUOUS
10
44.331
20
-101.735
11
42.029
21
-101.735
0
LINE
8
BLACK
6
CONTINUOUS
10
42.029
20
-101.735
11
42.029
21
-81.653
0
LINE
8
BLACK
6
CONTINUOUS
10
42.029
20
-81.653
11
44.331
21
-81.653
0
LINE
8
BLACK
6
CONTINUOUS
10
44.331
20
-81.653
11
44.331
21
-101.735
0
LINE
8
BLACK
6
CONTINUOUS
10
80.3749
20
-94.3011
11
80.4752
21
-94.3426
0
LINE
8
BLACK
6
CONTINUOUS
10
80.4752
20
-94.3426
11
80.6026
21
-94.3954
0
LINE
8
BLACK
6
CONTINUOUS
10
80.6026
20
-94.3954
11
80.8075
21
-94.5323
0
LINE
8
BLACK
6
CONTINUOUS
10
80.8075
20
-94.5323
11
80.9817
21
-94.7065
0
LINE
8
BLACK
6
CONTINUOUS
10
80.9817
20
-94.7065
11
81.0479
21
-94.8056
0
LINE
8
BLACK
6
CONTINUOUS
10
81.0479
20
-94.8056
11
81.1186
21
-94.9114
0
LINE
8
BLACK
6
CONTINUOUS
10
81.1186
20
-94.9114
11
81.2129
21
-95.1391
0
LINE
8
BLACK
6
CONTINUOUS
10
81.2129
20
-95.1391
11
81.261
21
-95.3808
0
LINE
8
BLACK
6
CONTINUOUS
10
81.261
20
-95.3808
11
81.261
21
-95.6272
0
LINE
8
BLACK
6
CONTINUOUS
10
81.261
20
-95.6272
11
81.2367
21
-95.7492
0
LINE
8
BLACK
6
CONTINUOUS
10
81.2367
20
-95.7492
11
81.2129
21
-95.8689
0
LINE
8
BLACK
6
CONTINUOUS
10
81.2129
20
-95.8689
11
81.1186
21
-96.0966
0
LINE
8
BLACK
6
CONTINUOUS
10
81.1186
20
-96.0966
11
80.9817
21
-96.3015
0
LINE
8
BLACK
6
CONTINUOUS
10
80.9817
20
-96.3015
11
80.8075
21
-96.4757
0
LINE
8
BLACK
6
CONTINUOUS
10
80.8075
20
-96.4757
11
80.6026
21
-96.6126
0
LINE
8
BLACK
6
CONTINUOUS
10
80.6026
20
-96.6126
11
80.6026
21
-96.6126
0
LINE
8
BLACK
6
CONTINUOUS
10
80.6026
20
-96.6126
11
80.6026
21
-96.6126
0
LINE
8
BLACK
6
CONTINUOUS
10
80.6026
20
-96.6126
11
80.3749
21
-96.7069
0
LINE
8
BLACK
6
CONTINUOUS
10
80.3749
20
-96.7069
11
80.1332
21
-96.755
0
LINE
8
BLACK
6
CONTINUOUS
10
80.1332
20
-96.755
11
79.8868
21
-96.755
0
LINE
8
BLACK
6
CONTINUOUS
10
79.8868
20
-96.755
11
79.6451
21
-96.7069
0
LINE
8
BLACK
6
CONTINUOUS
10
79.6451
20
-96.7069
11
79.4174
21
-96.6126
0
LINE
8
BLACK
6
CONTINUOUS
10
79.4174
20
-96.6126
11
79.4174
21
-96.6126
0
LINE
8
BLACK
6
CONTINUOUS
10
79.4174
20
-96.6126
11
79.4174
21
-96.6126
0
LINE
8
BLACK
6
CONTINUOUS
10
79.4174
20
-96.6126
11
79.2125
21
-96.4757
0
LINE
8
BLACK
6
CONTINUOUS
10
79.2125
20
-96.4757
11
79.0383
21
-96.3015
0
LINE
8
BLACK
6
CONTINUOUS
10
79.0383
20
-96.3015
11
78.9014
21
-96.0966
0
LINE
8
BLACK
6
CONTINUOUS
10
78.9014
20
-96.0966
11
78.8071
21
-95.8689
0
LINE
8
BLACK
6
CONTINUOUS
10
78.8071
20
-95.8689
11
78.7833
21
-95.7492
0
LINE
8
BLACK
6
CONTINUOUS
10
78.7833
20
-95.7492
11
78.759
21
-95.6272
0
LINE
8
BLACK
6
CONTINUOUS
10
78.759
20
-95.6272
11
78.759
21
-95.3808
0
LINE
8
BLACK
6
CONTINUOUS
10
78.759
20
-95.3808
11
78.8071
21
-95.1391
0
LINE
8
BLACK
6
CONTINUOUS
10
78.8071
20
-95.1391
11
78.9014
21
-94.9114
0
LINE
8
BLACK
6
CONTINUOUS
10
78.9014
20
-94.9114
11
78.9721
21
-94.8056
0
LINE
8
BLACK
6
CONTINUOUS
10
78.9721
20
-94.8056
11
79.0383
21
-94.7065
0
LINE
8
BLACK
6
CONTINUOUS
10
79.0383
20
-94.7065
11
79.2125
21
-94.5323
0
LINE
8
BLACK
6
CONTINUOUS
10
79.2125
20
-94.5323
11
79.4174
21
-94.3954
0
LINE
8
BLACK
6
CONTINUOUS
10
79.4174
20
-94.3954
11
79.5448
21
-94.3426
0
LINE
8
BLACK
6
CONTINUOUS
10
79.5448
20
-94.3426
11
79.6451
21
-94.3011
0
LINE
8
BLACK
6
CONTINUOUS
10
79.6451
20
-94.3011
11
79.8868
21
-94.253
0
LINE
8
BLACK
6
CONTINUOUS
10
79.8868
20
-94.253
11
80.1332
21
-94.253
0
LINE
8
BLACK
6
CONTINUOUS
10
80.1332
20
-94.253
11
80.3749
21
-94.3011
0
LINE
8
BLACK
6
CONTINUOUS
10
87.8752
20
-94.2711
11
88.1111
21
-94.3426
0
LINE
8
BLACK
6
CONTINUOUS
10
88.1111
20
-94.3426
11
88.3284
21
-94.4588
0
LINE
8
BLACK
6
CONTINUOUS
10
88.3284
20
-94.4588
11
88.5189
21
-94.6151
0
LINE
8
BLACK
6
CONTINUOUS
10
88.5189
20
-94.6151
11
88.6752
21
-94.8056
0
LINE
8
BLACK
6
CONTINUOUS
10
88.6752
20
-94.8056
11
88.7914
21
-95.0229
0
LINE
8
BLACK
6
CONTINUOUS
10
88.7914
20
-95.0229
11
88.8629
21
-95.2588
0
LINE
8
BLACK
6
CONTINUOUS
10
88.8629
20
-95.2588
11
88.8871
21
-95.504
0
LINE
8
BLACK
6
CONTINUOUS
10
88.8871
20
-95.504
11
88.8629
21
-95.7492
0
LINE
8
BLACK
6
CONTINUOUS
10
88.8629
20
-95.7492
11
88.7914
21
-95.9851
0
LINE
8
BLACK
6
CONTINUOUS
10
88.7914
20
-95.9851
11
88.6752
21
-96.2024
0
LINE
8
BLACK
6
CONTINUOUS
10
88.6752
20
-96.2024
11
88.5189
21
-96.3929
0
LINE
8
BLACK
6
CONTINUOUS
10
88.5189
20
-96.3929
11
88.3284
21
-96.5492
0
LINE
8
BLACK
6
CONTINUOUS
10
88.3284
20
-96.5492
11
88.1111
21
-96.6654
0
LINE
8
BLACK
6
CONTINUOUS
10
88.1111
20
-96.6654
11
87.8752
21
-96.7369
0
LINE
8
BLACK
6
CONTINUOUS
10
87.8752
20
-96.7369
11
87.6915
21
-96.755
0
LINE
8
BLACK
6
CONTINUOUS
10
87.6915
20
-96.755
11
87.5685
21
-96.755
0
LINE
8
BLACK
6
CONTINUOUS
10
87.5685
20
-96.755
11
87.3848
21
-96.7369
0
LINE
8
BLACK
6
CONTINUOUS
10
87.3848
20
-96.7369
11
87.1489
21
-96.6654
0
LINE
8
BLACK
6
CONTINUOUS
10
87.1489
20
-96.6654
11
86.9316
21
-96.5492
0
LINE
8
BLACK
6
CONTINUOUS
10
86.9316
20
-96.5492
11
86.7411
21
-96.3929
0
LINE
8
BLACK
6
CONTINUOUS
10
86.7411
20
-96.3929
11
86.5848
21
-96.2024
0
LINE
8
BLACK
6
CONTINUOUS
10
86.5848
20
-96.2024
11
86.4686
21
-95.9851
0
LINE
8
BLACK
6
CONTINUOUS
10
86.4686
20
-95.9851
11
86.3971
21
-95.7492
0
LINE
8
BLACK
6
CONTINUOUS
10
86.3971
20
-95.7492
11
86.3729
21
-95.504
0
LINE
8
BLACK
6
CONTINUOUS
10
86.3729
20
-95.504
11
86.3971
21
-95.2588
0
LINE
8
BLACK
6
CONTINUOUS
10
86.3971
20
-95.2588
11
86.4686
21
-95.0229
0
LINE
8
BLACK
6
CONTINUOUS
10
86.4686
20
-95.0229
11
86.5848
21
-94.8056
0
LINE
8
BLACK
6
CONTINUOUS
10
86.5848
20
-94.8056
11
86.7411
21
-94.6151
0
LINE
8
BLACK
6
CONTINUOUS
10
86.7411
20
-94.6151
11
86.9316
21
-94.4588
0
LINE
8
BLACK
6
CONTINUOUS
10
86.9316
20
-94.4588
11
87.1489
21
-94.3426
0
LINE
8
BLACK
6
CONTINUOUS
10
87.1489
20
-94.3426
11
87.3848
21
-94.2711
0
LINE
8
BLACK
6
CONTINUOUS
10
87.3848
20
-94.2711
11
87.5685
21
-94.253
0
LINE
8
BLACK
6
CONTINUOUS
10
87.5685
20
-94.253
11
87.6915
21
-94.253
0
LINE
8
BLACK
6
CONTINUOUS
10
87.6915
20
-94.253
11
87.8752
21
-94.2711
0
LINE
8
BLACK
6
CONTINUOUS
10
108.957
20
-91.4771
11
109.193
21
-91.5486
0
LINE
8
BLACK
6
CONTINUOUS
10
109.193
20
-91.5486
11
109.41
21
-91.6648
0
LINE
8
BLACK
6
CONTINUOUS
10
109.41
20
-91.6648
11
109.601
21
-91.8211
0
LINE
8
BLACK
6
CONTINUOUS
10
109.601
20
-91.8211
11
109.757
21
-92.0116
0
LINE
8
BLACK
6
CONTINUOUS
10
109.757
20
-92.0116
11
109.873
21
-92.2289
0
LINE
8
BLACK
6
CONTINUOUS
10
109.873
20
-92.2289
11
109.945
21
-92.4648
0
LINE
8
BLACK
6
CONTINUOUS
10
109.945
20
-92.4648
11
109.969
21
-92.71
0
LINE
8
BLACK
6
CONTINUOUS
10
109.969
20
-92.71
11
109.945
21
-92.9552
0
LINE
8
BLACK
6
CONTINUOUS
10
109.945
20
-92.9552
11
109.873
21
-93.1911
0
LINE
8
BLACK
6
CONTINUOUS
10
109.873
20
-93.1911
11
109.757
21
-93.4084
0
LINE
8
BLACK
6
CONTINUOUS
10
109.757
20
-93.4084
11
109.601
21
-93.5989
0
LINE
8
BLACK
6
CONTINUOUS
10
109.601
20
-93.5989
11
109.41
21
-93.7552
0
LINE
8
BLACK
6
CONTINUOUS
10
109.41
20
-93.7552
11
109.193
21
-93.8714
0
LINE
8
BLACK
6
CONTINUOUS
10
109.193
20
-93.8714
11
108.957
21
-93.9429
0
LINE
8
BLACK
6
CONTINUOUS
10
108.957
20
-93.9429
11
108.773
21
-93.961
0
LINE
8
BLACK
6
CONTINUOUS
10
108.773
20
-93.961
11
108.651
21
-93.961
0
LINE
8
BLACK
6
CONTINUOUS
10
108.651
20
-93.961
11
108.467
21
-93.9429
0
LINE
8
BLACK
6
CONTINUOUS
10
108.467
20
-93.9429
11
108.231
21
-93.8714
0
LINE
8
BLACK
6
CONTINUOUS
10
108.231
20
-93.8714
11
108.014
21
-93.7552
0
LINE
8
BLACK
6
CONTINUOUS
10
108.014
20
-93.7552
11
107.823
21
-93.5989
0
LINE
8
BLACK
6
CONTINUOUS
10
107.823
20
-93.5989
11
107.667
21
-93.4084
0
LINE
8
BLACK
6
CONTINUOUS
10
107.667
20
-93.4084
11
107.551
21
-93.1911
0
LINE
8
BLACK
6
CONTINUOUS
10
107.551
20
-93.1911
11
107.479
21
-92.9552
0
LINE
8
BLACK
6
CONTINUOUS
10
107.479
20
-92.9552
11
107.455
21
-92.71
0
LINE
8
BLACK
6
CONTINUOUS
10
107.455
20
-92.71
11
107.479
21
-92.4648
0
LINE
8
BLACK
6
CONTINUOUS
10
107.479
20
-92.4648
11
107.551
21
-92.2289
0
LINE
8
BLACK
6
CONTINUOUS
10
107.551
20
-92.2289
11
107.667
21
-92.0116
0
LINE
8
BLACK
6
CONTINUOUS
10
107.667
20
-92.0116
11
107.823
21
-91.8211
0
LINE
8
BLACK
6
CONTINUOUS
10
107.823
20
-91.8211
11
108.014
21
-91.6648
0
LINE
8
BLACK
6
CONTINUOUS
10
108.014
20
-91.6648
11
108.231
21
-91.5486
0
LINE
8
BLACK
6
CONTINUOUS
10
108.231
20
-91.5486
11
108.467
21
-91.4771
0
LINE
8
BLACK
6
CONTINUOUS
10
108.467
20
-91.4771
11
108.651
21
-91.459
0
LINE
8
BLACK
6
CONTINUOUS
10
108.651
20
-91.459
11
108.773
21
-91.459
0
LINE
8
BLACK
6
CONTINUOUS
10
108.773
20
-91.459
11
108.957
21
-91.4771
0
LINE
8
BLACK
6
CONTINUOUS
10
81.3034
20
-87.7315
11
81.4765
21
-87.8032
0
LINE
8
BLACK
6
CONTINUOUS
10
81.4765
20
-87.8032
11
81.4765
21
-87.8032
0
LINE
8
BLACK
6
CONTINUOUS
10
81.4765
20
-87.8032
11
81.6322
21
-87.9073
0
LINE
8
BLACK
6
CONTINUOUS
10
81.6322
20
-87.9073
11
81.7647
21
-88.0398
0
LINE
8
BLACK
6
CONTINUOUS
10
81.7647
20
-88.0398
11
81.7647
21
-88.0398
0
LINE
8
BLACK
6
CONTINUOUS
10
81.7647
20
-88.0398
11
81.8688
21
-88.1955
0
LINE
8
BLACK
6
CONTINUOUS
10
81.8688
20
-88.1955
11
81.9405
21
-88.3686
0
LINE
8
BLACK
6
CONTINUOUS
10
81.9405
20
-88.3686
11
81.977
21
-88.5523
0
LINE
8
BLACK
6
CONTINUOUS
10
81.977
20
-88.5523
11
81.977
21
-88.7397
0
LINE
8
BLACK
6
CONTINUOUS
10
81.977
20
-88.7397
11
81.9405
21
-88.9234
0
LINE
8
BLACK
6
CONTINUOUS
10
81.9405
20
-88.9234
11
81.8688
21
-89.0965
0
LINE
8
BLACK
6
CONTINUOUS
10
81.8688
20
-89.0965
11
81.8688
21
-89.0965
0
LINE
8
BLACK
6
CONTINUOUS
10
81.8688
20
-89.0965
11
81.7647
21
-89.2522
0
LINE
8
BLACK
6
CONTINUOUS
10
81.7647
20
-89.2522
11
81.6322
21
-89.3847
0
LINE
8
BLACK
6
CONTINUOUS
10
81.6322
20
-89.3847
11
81.5538
21
-89.4371
0
LINE
8
BLACK
6
CONTINUOUS
10
81.5538
20
-89.4371
11
81.4765
21
-89.4888
0
LINE
8
BLACK
6
CONTINUOUS
10
81.4765
20
-89.4888
11
81.3034
21
-89.5605
0
LINE
8
BLACK
6
CONTINUOUS
10
81.3034
20
-89.5605
11
81.1197
21
-89.597
0
LINE
8
BLACK
6
CONTINUOUS
10
81.1197
20
-89.597
11
80.9323
21
-89.597
0
LINE
8
BLACK
6
CONTINUOUS
10
80.9323
20
-89.597
11
80.7486
21
-89.5605
0
LINE
8
BLACK
6
CONTINUOUS
10
80.7486
20
-89.5605
11
80.5755
21
-89.4888
0
LINE
8
BLACK
6
CONTINUOUS
10
80.5755
20
-89.4888
11
80.4982
21
-89.4371
0
LINE
8
BLACK
6
CONTINUOUS
10
80.4982
20
-89.4371
11
80.4198
21
-89.3847
0
LINE
8
BLACK
6
CONTINUOUS
10
80.4198
20
-89.3847
11
80.2873
21
-89.2522
0
LINE
8
BLACK
6
CONTINUOUS
10
80.2873
20
-89.2522
11
80.1832
21
-89.0965
0
LINE
8
BLACK
6
CONTINUOUS
10
80.1832
20
-89.0965
11
80.1832
21
-89.0965
0
LINE
8
BLACK
6
CONTINUOUS
10
80.1832
20
-89.0965
11
80.1115
21
-88.9234
0
LINE
8
BLACK
6
CONTINUOUS
10
80.1115
20
-88.9234
11
80.075
21
-88.7397
0
LINE
8
BLACK
6
CONTINUOUS
10
80.075
20
-88.7397
11
80.075
21
-88.5523
0
LINE
8
BLACK
6
CONTINUOUS
10
80.075
20
-88.5523
11
80.1115
21
-88.3686
0
LINE
8
BLACK
6
CONTINUOUS
10
80.1115
20
-88.3686
11
80.1832
21
-88.1955
0
LINE
8
BLACK
6
CONTINUOUS
10
80.1832
20
-88.1955
11
80.2873
21
-88.0398
0
LINE
8
BLACK
6
CONTINUOUS
10
80.2873
20
-88.0398
11
80.2873
21
-88.0398
0
LINE
8
BLACK
6
CONTINUOUS
10
80.2873
20
-88.0398
11
80.4198
21
-87.9073
0
LINE
8
BLACK
6
CONTINUOUS
10
80.4198
20
-87.9073
11
80.5755
21
-87.8032
0
LINE
8
BLACK
6
CONTINUOUS
10
80.5755
20
-87.8032
11
80.5755
21
-87.8032
0
LINE
8
BLACK
6
CONTINUOUS
10
80.5755
20
-87.8032
11
80.7486
21
-87.7315
0
LINE
8
BLACK
6
CONTINUOUS
10
80.7486
20
-87.7315
11
80.9323
21
-87.695
0
LINE
8
BLACK
6
CONTINUOUS
10
80.9323
20
-87.695
11
81.1197
21
-87.695
0
LINE
8
BLACK
6
CONTINUOUS
10
81.1197
20
-87.695
11
81.3034
21
-87.7315
0
LINE
8
BLACK
6
CONTINUOUS
10
87.9074
20
-87.7315
11
88.0805
21
-87.8032
0
LINE
8
BLACK
6
CONTINUOUS
10
88.0805
20
-87.8032
11
88.0805
21
-87.8032
0
LINE
8
BLACK
6
CONTINUOUS
10
88.0805
20
-87.8032
11
88.2362
21
-87.9073
0
LINE
8
BLACK
6
CONTINUOUS
10
88.2362
20
-87.9073
11
88.3687
21
-88.0398
0
LINE
8
BLACK
6
CONTINUOUS
10
88.3687
20
-88.0398
11
88.3687
21
-88.0398
0
LINE
8
BLACK
6
CONTINUOUS
10
88.3687
20
-88.0398
11
88.4728
21
-88.1955
0
LINE
8
BLACK
6
CONTINUOUS
10
88.4728
20
-88.1955
11
88.5445
21
-88.3686
0
LINE
8
BLACK
6
CONTINUOUS
10
88.5445
20
-88.3686
11
88.581
21
-88.5523
0
LINE
8
BLACK
6
CONTINUOUS
10
88.581
20
-88.5523
11
88.581
21
-88.7397
0
LINE
8
BLACK
6
CONTINUOUS
10
88.581
20
-88.7397
11
88.5445
21
-88.9234
0
LINE
8
BLACK
6
CONTINUOUS
10
88.5445
20
-88.9234
11
88.4728
21
-89.0965
0
LINE
8
BLACK
6
CONTINUOUS
10
88.4728
20
-89.0965
11
88.4728
21
-89.0965
0
LINE
8
BLACK
6
CONTINUOUS
10
88.4728
20
-89.0965
11
88.3687
21
-89.2522
0
LINE
8
BLACK
6
CONTINUOUS
10
88.3687
20
-89.2522
11
88.2362
21
-89.3847
0
LINE
8
BLACK
6
CONTINUOUS
10
88.2362
20
-89.3847
11
88.1578
21
-89.4371
0
LINE
8
BLACK
6
CONTINUOUS
10
88.1578
20
-89.4371
11
88.0805
21
-89.4888
0
LINE
8
BLACK
6
CONTINUOUS
10
88.0805
20
-89.4888
11
87.9074
21
-89.5605
0
LINE
8
BLACK
6
CONTINUOUS
10
87.9074
20
-89.5605
11
87.7237
21
-89.597
0
LINE
8
BLACK
6
CONTINUOUS
10
87.7237
20
-89.597
11
87.5363
21
-89.597
0
LINE
8
BLACK
6
CONTINUOUS
10
87.5363
20
-89.597
11
87.3526
21
-89.5605
0
LINE
8
BLACK
6
CONTINUOUS
10
87.3526
20
-89.5605
11
87.1795
21
-89.4888
0
LINE
8
BLACK
6
CONTINUOUS
10
87.1795
20
-89.4888
11
87.1022
21
-89.4371
0
LINE
8
BLACK
6
CONTINUOUS
10
87.1022
20
-89.4371
11
87.0238
21
-89.3847
0
LINE
8
BLACK
6
CONTINUOUS
10
87.0238
20
-89.3847
11
86.8913
21
-89.2522
0
LINE
8
BLACK
6
CONTINUOUS
10
86.8913
20
-89.2522
11
86.7872
21
-89.0965
0
LINE
8
BLACK
6
CONTINUOUS
10
86.7872
20
-89.0965
11
86.7872
21
-89.0965
0
LINE
8
BLACK
6
CONTINUOUS
10
86.7872
20
-89.0965
11
86.7155
21
-88.9234
0
LINE
8
BLACK
6
CONTINUOUS
10
86.7155
20
-88.9234
11
86.679
21
-88.7397
0
LINE
8
BLACK
6
CONTINUOUS
10
86.679
20
-88.7397
11
86.679
21
-88.5523
0
LINE
8
BLACK
6
CONTINUOUS
10
86.679
20
-88.5523
11
86.7155
21
-88.3686
0
LINE
8
BLACK
6
CONTINUOUS
10
86.7155
20
-88.3686
11
86.7872
21
-88.1955
0
LINE
8
BLACK
6
CONTINUOUS
10
86.7872
20
-88.1955
11
86.8913
21
-88.0398
0
LINE
8
BLACK
6
CONTINUOUS
10
86.8913
20
-88.0398
11
86.8913
21
-88.0398
0
LINE
8
BLACK
6
CONTINUOUS
10
86.8913
20
-88.0398
11
87.0238
21
-87.9073
0
LINE
8
BLACK
6
CONTINUOUS
10
87.0238
20
-87.9073
11
87.1795
21
-87.8032
0
LINE
8
BLACK
6
CONTINUOUS
10
87.1795
20
-87.8032
11
87.1795
21
-87.8032
0
LINE
8
BLACK
6
CONTINUOUS
10
87.1795
20
-87.8032
11
87.3526
21
-87.7315
0
LINE
8
BLACK
6
CONTINUOUS
10
87.3526
20
-87.7315
11
87.5363
21
-87.695
0
LINE
8
BLACK
6
CONTINUOUS
10
87.5363
20
-87.695
11
87.7237
21
-87.695
0
LINE
8
BLACK
6
CONTINUOUS
10
87.7237
20
-87.695
11
87.9074
21
-87.7315
0
LINE
8
BLACK
6
CONTINUOUS
10
86.041
20
-89.597
11
84.139
21
-89.597
0
LINE
8
BLACK
6
CONTINUOUS
10
84.139
20
-89.597
11
84.139
21
-87.695
0
LINE
8
BLACK
6
CONTINUOUS
10
84.139
20
-87.695
11
86.041
21
-87.695
0
LINE
8
BLACK
6
CONTINUOUS
10
86.041
20
-87.695
11
86.041
21
-89.597
0
LINE
8
BLACK
6
CONTINUOUS
10
92.391
20
-89.597
11
90.489
21
-89.597
0
LINE
8
BLACK
6
CONTINUOUS
10
90.489
20
-89.597
11
90.489
21
-87.695
0
LINE
8
BLACK
6
CONTINUOUS
10
90.489
20
-87.695
11
92.391
21
-87.695
0
LINE
8
BLACK
6
CONTINUOUS
10
92.391
20
-87.695
11
92.391
21
-89.597
0
LINE
8
BLACK
6
CONTINUOUS
10
94.2574
20
-87.7315
11
94.4305
21
-87.8032
0
LINE
8
BLACK
6
CONTINUOUS
10
94.4305
20
-87.8032
11
94.4305
21
-87.8032
0
LINE
8
BLACK
6
CONTINUOUS
10
94.4305
20
-87.8032
11
94.5862
21
-87.9073
0
LINE
8
BLACK
6
CONTINUOUS
10
94.5862
20
-87.9073
11
94.7187
21
-88.0398
0
LINE
8
BLACK
6
CONTINUOUS
10
94.7187
20
-88.0398
11
94.7187
21
-88.0398
0
LINE
8
BLACK
6
CONTINUOUS
10
94.7187
20
-88.0398
11
94.8228
21
-88.1955
0
LINE
8
BLACK
6
CONTINUOUS
10
94.8228
20
-88.1955
11
94.8945
21
-88.3686
0
LINE
8
BLACK
6
CONTINUOUS
10
94.8945
20
-88.3686
11
94.931
21
-88.5523
0
LINE
8
BLACK
6
CONTINUOUS
10
94.931
20
-88.5523
11
94.931
21
-88.7397
0
LINE
8
BLACK
6
CONTINUOUS
10
94.931
20
-88.7397
11
94.8945
21
-88.9234
0
LINE
8
BLACK
6
CONTINUOUS
10
94.8945
20
-88.9234
11
94.8228
21
-89.0965
0
LINE
8
BLACK
6
CONTINUOUS
10
94.8228
20
-89.0965
11
94.8228
21
-89.0965
0
LINE
8
BLACK
6
CONTINUOUS
10
94.8228
20
-89.0965
11
94.7187
21
-89.2522
0
LINE
8
BLACK
6
CONTINUOUS
10
94.7187
20
-89.2522
11
94.5862
21
-89.3847
0
LINE
8
BLACK
6
CONTINUOUS
10
94.5862
20
-89.3847
11
94.5078
21
-89.4371
0
LINE
8
BLACK
6
CONTINUOUS
10
94.5078
20
-89.4371
11
94.4305
21
-89.4888
0
LINE
8
BLACK
6
CONTINUOUS
10
94.4305
20
-89.4888
11
94.2574
21
-89.5605
0
LINE
8
BLACK
6
CONTINUOUS
10
94.2574
20
-89.5605
11
94.0737
21
-89.597
0
LINE
8
BLACK
6
CONTINUOUS
10
94.0737
20
-89.597
11
93.8863
21
-89.597
0
LINE
8
BLACK
6
CONTINUOUS
10
93.8863
20
-89.597
11
93.7026
21
-89.5605
0
LINE
8
BLACK
6
CONTINUOUS
10
93.7026
20
-89.5605
11
93.5295
21
-89.4888
0
LINE
8
BLACK
6
CONTINUOUS
10
93.5295
20
-89.4888
11
93.4522
21
-89.4371
0
LINE
8
BLACK
6
CONTINUOUS
10
93.4522
20
-89.4371
11
93.3738
21
-89.3847
0
LINE
8
BLACK
6
CONTINUOUS
10
93.3738
20
-89.3847
11
93.2413
21
-89.2522
0
LINE
8
BLACK
6
CONTINUOUS
10
93.2413
20
-89.2522
11
93.1372
21
-89.0965
0
LINE
8
BLACK
6
CONTINUOUS
10
93.1372
20
-89.0965
11
93.1372
21
-89.0965
0
LINE
8
BLACK
6
CONTINUOUS
10
93.1372
20
-89.0965
11
93.0655
21
-88.9234
0
LINE
8
BLACK
6
CONTINUOUS
10
93.0655
20
-88.9234
11
93.029
21
-88.7397
0
LINE
8
BLACK
6
CONTINUOUS
10
93.029
20
-88.7397
11
93.029
21
-88.5523
0
LINE
8
BLACK
6
CONTINUOUS
10
93.029
20
-88.5523
11
93.0655
21
-88.3686
0
LINE
8
BLACK
6
CONTINUOUS
10
93.0655
20
-88.3686
11
93.1372
21
-88.1955
0
LINE
8
BLACK
6
CONTINUOUS
10
93.1372
20
-88.1955
11
93.2413
21
-88.0398
0
LINE
8
BLACK
6
CONTINUOUS
10
93.2413
20
-88.0398
11
93.2413
21
-88.0398
0
LINE
8
BLACK
6
CONTINUOUS
10
93.2413
20
-88.0398
11
93.3738
21
-87.9073
0
LINE
8
BLACK
6
CONTINUOUS
10
93.3738
20
-87.9073
11
93.5295
21
-87.8032
0
LINE
8
BLACK
6
CONTINUOUS
10
93.5295
20
-87.8032
11
93.5295
21
-87.8032
0
LINE
8
BLACK
6
CONTINUOUS
10
93.5295
20
-87.8032
11
93.7026
21
-87.7315
0
LINE
8
BLACK
6
CONTINUOUS
10
93.7026
20
-87.7315
11
93.8863
21
-87.695
0
LINE
8
BLACK
6
CONTINUOUS
10
93.8863
20
-87.695
11
94.0737
21
-87.695
0
LINE
8
BLACK
6
CONTINUOUS
10
94.0737
20
-87.695
11
94.2574
21
-87.7315
0
LINE
8
BLACK
6
CONTINUOUS
10
79.437
20
-89.597
11
77.535
21
-89.597
0
LINE
8
BLACK
6
CONTINUOUS
10
77.535
20
-89.597
11
77.535
21
-87.695
0
LINE
8
BLACK
6
CONTINUOUS
10
77.535
20
-87.695
11
79.437
21
-87.695
0
LINE
8
BLACK
6
CONTINUOUS
10
79.437
20
-87.695
11
79.437
21
-89.597
0
LINE
8
BLACK
6
CONTINUOUS
10
75.1752
20
-83.8571
11
75.4111
21
-83.9286
0
LINE
8
BLACK
6
CONTINUOUS
10
75.4111
20
-83.9286
11
75.6284
21
-84.0448
0
LINE
8
BLACK
6
CONTINUOUS
10
75.6284
20
-84.0448
11
75.8189
21
-84.2011
0
LINE
8
BLACK
6
CONTINUOUS
10
75.8189
20
-84.2011
11
75.9752
21
-84.3916
0
LINE
8
BLACK
6
CONTINUOUS
10
75.9752
20
-84.3916
11
76.0914
21
-84.6089
0
LINE
8
BLACK
6
CONTINUOUS
10
76.0914
20
-84.6089
11
76.1629
21
-84.8448
0
LINE
8
BLACK
6
CONTINUOUS
10
76.1629
20
-84.8448
11
76.1871
21
-85.09
0
LINE
8
BLACK
6
CONTINUOUS
10
76.1871
20
-85.09
11
76.1629
21
-85.3352
0
LINE
8
BLACK
6
CONTINUOUS
10
76.1629
20
-85.3352
11
76.0914
21
-85.5711
0
LINE
8
BLACK
6
CONTINUOUS
10
76.0914
20
-85.5711
11
75.9752
21
-85.7884
0
LINE
8
BLACK
6
CONTINUOUS
10
75.9752
20
-85.7884
11
75.8189
21
-85.9789
0
LINE
8
BLACK
6
CONTINUOUS
10
75.8189
20
-85.9789
11
75.6284
21
-86.1352
0
LINE
8
BLACK
6
CONTINUOUS
10
75.6284
20
-86.1352
11
75.4111
21
-86.2514
0
LINE
8
BLACK
6
CONTINUOUS
10
75.4111
20
-86.2514
11
75.1752
21
-86.3229
0
LINE
8
BLACK
6
CONTINUOUS
10
75.1752
20
-86.3229
11
74.9915
21
-86.341
0
LINE
8
BLACK
6
CONTINUOUS
10
74.9915
20
-86.341
11
74.8685
21
-86.341
0
LINE
8
BLACK
6
CONTINUOUS
10
74.8685
20
-86.341
11
74.6848
21
-86.3229
0
LINE
8
BLACK
6
CONTINUOUS
10
74.6848
20
-86.3229
11
74.4489
21
-86.2514
0
LINE
8
BLACK
6
CONTINUOUS
10
74.4489
20
-86.2514
11
74.2316
21
-86.1352
0
LINE
8
BLACK
6
CONTINUOUS
10
74.2316
20
-86.1352
11
74.0411
21
-85.9789
0
LINE
8
BLACK
6
CONTINUOUS
10
74.0411
20
-85.9789
11
73.8848
21
-85.7884
0
LINE
8
BLACK
6
CONTINUOUS
10
73.8848
20
-85.7884
11
73.7686
21
-85.5711
0
LINE
8
BLACK
6
CONTINUOUS
10
73.7686
20
-85.5711
11
73.6971
21
-85.3352
0
LINE
8
BLACK
6
CONTINUOUS
10
73.6971
20
-85.3352
11
73.6729
21
-85.09
0
LINE
8
BLACK
6
CONTINUOUS
10
73.6729
20
-85.09
11
73.6971
21
-84.8448
0
LINE
8
BLACK
6
CONTINUOUS
10
73.6971
20
-84.8448
11
73.7686
21
-84.6089
0
LINE
8
BLACK
6
CONTINUOUS
10
73.7686
20
-84.6089
11
73.8848
21
-84.3916
0
LINE
8
BLACK
6
CONTINUOUS
10
73.8848
20
-84.3916
11
74.0411
21
-84.2011
0
LINE
8
BLACK
6
CONTINUOUS
10
74.0411
20
-84.2011
11
74.2316
21
-84.0448
0
LINE
8
BLACK
6
CONTINUOUS
10
74.2316
20
-84.0448
11
74.4489
21
-83.9286
0
LINE
8
BLACK
6
CONTINUOUS
10
74.4489
20
-83.9286
11
74.6848
21
-83.8571
0
LINE
8
BLACK
6
CONTINUOUS
10
74.6848
20
-83.8571
11
74.8685
21
-83.839
0
LINE
8
BLACK
6
CONTINUOUS
10
74.8685
20
-83.839
11
74.9915
21
-83.839
0
LINE
8
BLACK
6
CONTINUOUS
10
74.9915
20
-83.839
11
75.1752
21
-83.8571
0
LINE
8
BLACK
6
CONTINUOUS
10
109.077
20
-83.8871
11
109.177
21
-83.9286
0
LINE
8
BLACK
6
CONTINUOUS
10
109.177
20
-83.9286
11
109.305
21
-83.9814
0
LINE
8
BLACK
6
CONTINUOUS
10
109.305
20
-83.9814
11
109.509
21
-84.1183
0
LINE
8
BLACK
6
CONTINUOUS
10
109.509
20
-84.1183
11
109.684
21
-84.2925
0
LINE
8
BLACK
6
CONTINUOUS
10
109.684
20
-84.2925
11
109.821
21
-84.4974
0
LINE
8
BLACK
6
CONTINUOUS
10
109.821
20
-84.4974
11
109.915
21
-84.7251
0
LINE
8
BLACK
6
CONTINUOUS
10
109.915
20
-84.7251
11
109.963
21
-84.9668
0
LINE
8
BLACK
6
CONTINUOUS
10
109.963
20
-84.9668
11
109.963
21
-85.2132
0
LINE
8
BLACK
6
CONTINUOUS
10
109.963
20
-85.2132
11
109.915
21
-85.4549
0
LINE
8
BLACK
6
CONTINUOUS
10
109.915
20
-85.4549
11
109.821
21
-85.6826
0
LINE
8
BLACK
6
CONTINUOUS
10
109.821
20
-85.6826
11
109.684
21
-85.8875
0
LINE
8
BLACK
6
CONTINUOUS
10
109.684
20
-85.8875
11
109.509
21
-86.0617
0
LINE
8
BLACK
6
CONTINUOUS
10
109.509
20
-86.0617
11
109.305
21
-86.1986
0
LINE
8
BLACK
6
CONTINUOUS
10
109.305
20
-86.1986
11
109.305
21
-86.1986
0
LINE
8
BLACK
6
CONTINUOUS
10
109.305
20
-86.1986
11
109.305
21
-86.1986
0
LINE
8
BLACK
6
CONTINUOUS
10
109.305
20
-86.1986
11
109.077
21
-86.2929
0
LINE
8
BLACK
6
CONTINUOUS
10
109.077
20
-86.2929
11
108.835
21
-86.341
0
LINE
8
BLACK
6
CONTINUOUS
10
108.835
20
-86.341
11
108.589
21
-86.341
0
LINE
8
BLACK
6
CONTINUOUS
10
108.589
20
-86.341
11
108.347
21
-86.2929
0
LINE
8
BLACK
6
CONTINUOUS
10
108.347
20
-86.2929
11
108.119
21
-86.1986
0
LINE
8
BLACK
6
CONTINUOUS
10
108.119
20
-86.1986
11
108.119
21
-86.1986
0
LINE
8
BLACK
6
CONTINUOUS
10
108.119
20
-86.1986
11
108.119
21
-86.1986
0
LINE
8
BLACK
6
CONTINUOUS
10
108.119
20
-86.1986
11
107.915
21
-86.0617
0
LINE
8
BLACK
6
CONTINUOUS
10
107.915
20
-86.0617
11
107.74
21
-85.8875
0
LINE
8
BLACK
6
CONTINUOUS
10
107.74
20
-85.8875
11
107.603
21
-85.6826
0
LINE
8
BLACK
6
CONTINUOUS
10
107.603
20
-85.6826
11
107.509
21
-85.4549
0
LINE
8
BLACK
6
CONTINUOUS
10
107.509
20
-85.4549
11
107.461
21
-85.2132
0
LINE
8
BLACK
6
CONTINUOUS
10
107.461
20
-85.2132
11
107.461
21
-84.9668
0
LINE
8
BLACK
6
CONTINUOUS
10
107.461
20
-84.9668
11
107.509
21
-84.7251
0
LINE
8
BLACK
6
CONTINUOUS
10
107.509
20
-84.7251
11
107.603
21
-84.4974
0
LINE
8
BLACK
6
CONTINUOUS
10
107.603
20
-84.4974
11
107.74
21
-84.2925
0
LINE
8
BLACK
6
CONTINUOUS
10
107.74
20
-84.2925
11
107.915
21
-84.1183
0
LINE
8
BLACK
6
CONTINUOUS
10
107.915
20
-84.1183
11
108.119
21
-83.9814
0
LINE
8
BLACK
6
CONTINUOUS
10
108.119
20
-83.9814
11
108.247
21
-83.9286
0
LINE
8
BLACK
6
CONTINUOUS
10
108.247
20
-83.9286
11
108.347
21
-83.8871
0
LINE
8
BLACK
6
CONTINUOUS
10
108.347
20
-83.8871
11
108.589
21
-83.839
0
LINE
8
BLACK
6
CONTINUOUS
10
108.589
20
-83.839
11
108.835
21
-83.839
0
LINE
8
BLACK
6
CONTINUOUS
10
108.835
20
-83.839
11
109.077
21
-83.8871
0
LINE
8
BLACK
6
CONTINUOUS
10
71.255
20
-85.733
11
68.953
21
-85.733
0
LINE
8
BLACK
6
CONTINUOUS
10
68.953
20
-85.733
11
68.953
21
-65.651
0
LINE
8
BLACK
6
CONTINUOUS
10
68.953
20
-65.651
11
71.255
21
-65.651
0
LINE
8
BLACK
6
CONTINUOUS
10
71.255
20
-65.651
11
71.255
21
-85.733
0
LINE
8
BLACK
6
CONTINUOUS
10
80.0012
20
-82.5871
11
80.2371
21
-82.6586
0
LINE
8
BLACK
6
CONTINUOUS
10
80.2371
20
-82.6586
11
80.4544
21
-82.7748
0
LINE
8
BLACK
6
CONTINUOUS
10
80.4544
20
-82.7748
11
80.6449
21
-82.9311
0
LINE
8
BLACK
6
CONTINUOUS
10
80.6449
20
-82.9311
11
80.8012
21
-83.1216
0
LINE
8
BLACK
6
CONTINUOUS
10
80.8012
20
-83.1216
11
80.9174
21
-83.3389
0
LINE
8
BLACK
6
CONTINUOUS
10
80.9174
20
-83.3389
11
80.9889
21
-83.5748
0
LINE
8
BLACK
6
CONTINUOUS
10
80.9889
20
-83.5748
11
81.0131
21
-83.82
0
LINE
8
BLACK
6
CONTINUOUS
10
81.0131
20
-83.82
11
80.9889
21
-84.0652
0
LINE
8
BLACK
6
CONTINUOUS
10
80.9889
20
-84.0652
11
80.9174
21
-84.3011
0
LINE
8
BLACK
6
CONTINUOUS
10
80.9174
20
-84.3011
11
80.8012
21
-84.5184
0
LINE
8
BLACK
6
CONTINUOUS
10
80.8012
20
-84.5184
11
80.6449
21
-84.7089
0
LINE
8
BLACK
6
CONTINUOUS
10
80.6449
20
-84.7089
11
80.4544
21
-84.8652
0
LINE
8
BLACK
6
CONTINUOUS
10
80.4544
20
-84.8652
11
80.2371
21
-84.9814
0
LINE
8
BLACK
6
CONTINUOUS
10
80.2371
20
-84.9814
11
80.0012
21
-85.0529
0
LINE
8
BLACK
6
CONTINUOUS
10
80.0012
20
-85.0529
11
79.8175
21
-85.071
0
LINE
8
BLACK
6
CONTINUOUS
10
79.8175
20
-85.071
11
79.6945
21
-85.071
0
LINE
8
BLACK
6
CONTINUOUS
10
79.6945
20
-85.071
11
79.5108
21
-85.0529
0
LINE
8
BLACK
6
CONTINUOUS
10
79.5108
20
-85.0529
11
79.2749
21
-84.9814
0
LINE
8
BLACK
6
CONTINUOUS
10
79.2749
20
-84.9814
11
79.0576
21
-84.8652
0
LINE
8
BLACK
6
CONTINUOUS
10
79.0576
20
-84.8652
11
78.8671
21
-84.7089
0
LINE
8
BLACK
6
CONTINUOUS
10
78.8671
20
-84.7089
11
78.7108
21
-84.5184
0
LINE
8
BLACK
6
CONTINUOUS
10
78.7108
20
-84.5184
11
78.5946
21
-84.3011
0
LINE
8
BLACK
6
CONTINUOUS
10
78.5946
20
-84.3011
11
78.5231
21
-84.0652
0
LINE
8
BLACK
6
CONTINUOUS
10
78.5231
20
-84.0652
11
78.4989
21
-83.82
0
LINE
8
BLACK
6
CONTINUOUS
10
78.4989
20
-83.82
11
78.5231
21
-83.5748
0
LINE
8
BLACK
6
CONTINUOUS
10
78.5231
20
-83.5748
11
78.5946
21
-83.3389
0
LINE
8
BLACK
6
CONTINUOUS
10
78.5946
20
-83.3389
11
78.7108
21
-83.1216
0
LINE
8
BLACK
6
CONTINUOUS
10
78.7108
20
-83.1216
11
78.8671
21
-82.9311
0
LINE
8
BLACK
6
CONTINUOUS
10
78.8671
20
-82.9311
11
79.0576
21
-82.7748
0
LINE
8
BLACK
6
CONTINUOUS
10
79.0576
20
-82.7748
11
79.2749
21
-82.6586
0
LINE
8
BLACK
6
CONTINUOUS
10
79.2749
20
-82.6586
11
79.5108
21
-82.5871
0
LINE
8
BLACK
6
CONTINUOUS
10
79.5108
20
-82.5871
11
79.6945
21
-82.569
0
LINE
8
BLACK
6
CONTINUOUS
10
79.6945
20
-82.569
11
79.8175
21
-82.569
0
LINE
8
BLACK
6
CONTINUOUS
10
79.8175
20
-82.569
11
80.0012
21
-82.5871
0
LINE
8
BLACK
6
CONTINUOUS
10
85.3382
20
-83.0017
11
85.4931
21
-83.0659
0
LINE
8
BLACK
6
CONTINUOUS
10
85.4931
20
-83.0659
11
85.6325
21
-83.159
0
LINE
8
BLACK
6
CONTINUOUS
10
85.6325
20
-83.159
11
85.751
21
-83.2775
0
LINE
8
BLACK
6
CONTINUOUS
10
85.751
20
-83.2775
11
85.8441
21
-83.4169
0
LINE
8
BLACK
6
CONTINUOUS
10
85.8441
20
-83.4169
11
85.9083
21
-83.5718
0
LINE
8
BLACK
6
CONTINUOUS
10
85.9083
20
-83.5718
11
85.941
21
-83.7362
0
LINE
8
BLACK
6
CONTINUOUS
10
85.941
20
-83.7362
11
85.941
21
-83.9038
0
LINE
8
BLACK
6
CONTINUOUS
10
85.941
20
-83.9038
11
85.9083
21
-84.0682
0
LINE
8
BLACK
6
CONTINUOUS
10
85.9083
20
-84.0682
11
85.8441
21
-84.2231
0
LINE
8
BLACK
6
CONTINUOUS
10
85.8441
20
-84.2231
11
85.751
21
-84.3625
0
LINE
8
BLACK
6
CONTINUOUS
10
85.751
20
-84.3625
11
85.6325
21
-84.481
0
LINE
8
BLACK
6
CONTINUOUS
10
85.6325
20
-84.481
11
85.4931
21
-84.5741
0
LINE
8
BLACK
6
CONTINUOUS
10
85.4931
20
-84.5741
11
85.3382
21
-84.6383
0
LINE
8
BLACK
6
CONTINUOUS
10
85.3382
20
-84.6383
11
85.1738
21
-84.671
0
LINE
8
BLACK
6
CONTINUOUS
10
85.1738
20
-84.671
11
85.0062
21
-84.671
0
LINE
8
BLACK
6
CONTINUOUS
10
85.0062
20
-84.671
11
84.8418
21
-84.6383
0
LINE
8
BLACK
6
CONTINUOUS
10
84.8418
20
-84.6383
11
84.6869
21
-84.5741
0
LINE
8
BLACK
6
CONTINUOUS
10
84.6869
20
-84.5741
11
84.5475
21
-84.481
0
LINE
8
BLACK
6
CONTINUOUS
10
84.5475
20
-84.481
11
84.429
21
-84.3625
0
LINE
8
BLACK
6
CONTINUOUS
10
84.429
20
-84.3625
11
84.3359
21
-84.2231
0
LINE
8
BLACK
6
CONTINUOUS
10
84.3359
20
-84.2231
11
84.2717
21
-84.0682
0
LINE
8
BLACK
6
CONTINUOUS
10
84.2717
20
-84.0682
11
84.239
21
-83.9038
0
LINE
8
BLACK
6
CONTINUOUS
10
84.239
20
-83.9038
11
84.239
21
-83.7362
0
LINE
8
BLACK
6
CONTINUOUS
10
84.239
20
-83.7362
11
84.2717
21
-83.5718
0
LINE
8
BLACK
6
CONTINUOUS
10
84.2717
20
-83.5718
11
84.3359
21
-83.4169
0
LINE
8
BLACK
6
CONTINUOUS
10
84.3359
20
-83.4169
11
84.429
21
-83.2775
0
LINE
8
BLACK
6
CONTINUOUS
10
84.429
20
-83.2775
11
84.5475
21
-83.159
0
LINE
8
BLACK
6
CONTINUOUS
10
84.5475
20
-83.159
11
84.6869
21
-83.0659
0
LINE
8
BLACK
6
CONTINUOUS
10
84.6869
20
-83.0659
11
84.8418
21
-83.0017
0
LINE
8
BLACK
6
CONTINUOUS
10
84.8418
20
-83.0017
11
85.0062
21
-82.969
0
LINE
8
BLACK
6
CONTINUOUS
10
85.0062
20
-82.969
11
85.1738
21
-82.969
0
LINE
8
BLACK
6
CONTINUOUS
10
85.1738
20
-82.969
11
85.3382
21
-83.0017
0
LINE
8
BLACK
6
CONTINUOUS
10
87.941
20
-84.671
11
86.239
21
-84.671
0
LINE
8
BLACK
6
CONTINUOUS
10
86.239
20
-84.671
11
86.239
21
-82.969
0
LINE
8
BLACK
6
CONTINUOUS
10
86.239
20
-82.969
11
87.941
21
-82.969
0
LINE
8
BLACK
6
CONTINUOUS
10
87.941
20
-82.969
11
87.941
21
-84.671
0
LINE
8
BLACK
6
CONTINUOUS
10
98.433
20
-81.669
11
96.131
21
-81.669
0
LINE
8
BLACK
6
CONTINUOUS
10
96.131
20
-81.669
11
96.131
21
-66.667
0
LINE
8
BLACK
6
CONTINUOUS
10
96.131
20
-66.667
11
98.433
21
-66.667
0
LINE
8
BLACK
6
CONTINUOUS
10
98.433
20
-66.667
11
98.433
21
-81.669
0
LINE
8
BLACK
6
CONTINUOUS
10
119.515
20
-81.669
11
117.213
21
-81.669
0
LINE
8
BLACK
6
CONTINUOUS
10
117.213
20
-81.669
11
117.213
21
-56.507
0
LINE
8
BLACK
6
CONTINUOUS
10
117.213
20
-56.507
11
119.515
21
-56.507
0
LINE
8
BLACK
6
CONTINUOUS
10
119.515
20
-56.507
11
119.515
21
-81.669
0
LINE
8
BLACK
6
CONTINUOUS
10
92.291
20
-79.591
11
90.589
21
-79.591
0
LINE
8
BLACK
6
CONTINUOUS
10
90.589
20
-79.591
11
90.589
21
-77.889
0
LINE
8
BLACK
6
CONTINUOUS
10
90.589
20
-77.889
11
92.291
21
-77.889
0
LINE
8
BLACK
6
CONTINUOUS
10
92.291
20
-77.889
11
92.291
21
-79.591
0
LINE
8
BLACK
6
CONTINUOUS
10
93.6882
20
-77.9217
11
93.8431
21
-77.9859
0
LINE
8
BLACK
6
CONTINUOUS
10
93.8431
20
-77.9859
11
93.9825
21
-78.079
0
LINE
8
BLACK
6
CONTINUOUS
10
93.9825
20
-78.079
11
94.101
21
-78.1975
0
LINE
8
BLACK
6
CONTINUOUS
10
94.101
20
-78.1975
11
94.1941
21
-78.3369
0
LINE
8
BLACK
6
CONTINUOUS
10
94.1941
20
-78.3369
11
94.2583
21
-78.4918
0
LINE
8
BLACK
6
CONTINUOUS
10
94.2583
20
-78.4918
11
94.291
21
-78.6562
0
LINE
8
BLACK
6
CONTINUOUS
10
94.291
20
-78.6562
11
94.291
21
-78.8238
0
LINE
8
BLACK
6
CONTINUOUS
10
94.291
20
-78.8238
11
94.2583
21
-78.9882
0
LINE
8
BLACK
6
CONTINUOUS
10
94.2583
20
-78.9882
11
94.1941
21
-79.1431
0
LINE
8
BLACK
6
CONTINUOUS
10
94.1941
20
-79.1431
11
94.101
21
-79.2825
0
LINE
8
BLACK
6
CONTINUOUS
10
94.101
20
-79.2825
11
93.9825
21
-79.401
0
LINE
8
BLACK
6
CONTINUOUS
10
93.9825
20
-79.401
11
93.8431
21
-79.4941
0
LINE
8
BLACK
6
CONTINUOUS
10
93.8431
20
-79.4941
11
93.6882
21
-79.5583
0
LINE
8
BLACK
6
CONTINUOUS
10
93.6882
20
-79.5583
11
93.5238
21
-79.591
0
LINE
8
BLACK
6
CONTINUOUS
10
93.5238
20
-79.591
11
93.3562
21
-79.591
0
LINE
8
BLACK
6
CONTINUOUS
10
93.3562
20
-79.591
11
93.1918
21
-79.5583
0
LINE
8
BLACK
6
CONTINUOUS
10
93.1918
20
-79.5583
11
93.0369
21
-79.4941
0
LINE
8
BLACK
6
CONTINUOUS
10
93.0369
20
-79.4941
11
92.8975
21
-79.401
0
LINE
8
BLACK
6
CONTINUOUS
10
92.8975
20
-79.401
11
92.779
21
-79.2825
0
LINE
8
BLACK
6
CONTINUOUS
10
92.779
20
-79.2825
11
92.6859
21
-79.1431
0
LINE
8
BLACK
6
CONTINUOUS
10
92.6859
20
-79.1431
11
92.6217
21
-78.9882
0
LINE
8
BLACK
6
CONTINUOUS
10
92.6217
20
-78.9882
11
92.589
21
-78.8238
0
LINE
8
BLACK
6
CONTINUOUS
10
92.589
20
-78.8238
11
92.589
21
-78.6562
0
LINE
8
BLACK
6
CONTINUOUS
10
92.589
20
-78.6562
11
92.6217
21
-78.4918
0
LINE
8
BLACK
6
CONTINUOUS
10
92.6217
20
-78.4918
11
92.6859
21
-78.3369
0
LINE
8
BLACK
6
CONTINUOUS
10
92.6859
20
-78.3369
11
92.779
21
-78.1975
0
LINE
8
BLACK
6
CONTINUOUS
10
92.779
20
-78.1975
11
92.8975
21
-78.079
0
LINE
8
BLACK
6
CONTINUOUS
10
92.8975
20
-78.079
11
93.0369
21
-77.9859
0
LINE
8
BLACK
6
CONTINUOUS
10
93.0369
20
-77.9859
11
93.1918
21
-77.9217
0
LINE
8
BLACK
6
CONTINUOUS
10
93.1918
20
-77.9217
11
93.3562
21
-77.889
0
LINE
8
BLACK
6
CONTINUOUS
10
93.3562
20
-77.889
11
93.5238
21
-77.889
0
LINE
8
BLACK
6
CONTINUOUS
10
93.5238
20
-77.889
11
93.6882
21
-77.9217
0
LINE
8
BLACK
6
CONTINUOUS
10
114.943
20
-78.875
11
112.641
21
-78.875
0
LINE
8
BLACK
6
CONTINUOUS
10
112.641
20
-78.875
11
112.641
21
-43.553
0
LINE
8
BLACK
6
CONTINUOUS
10
112.641
20
-43.553
11
114.943
21
-43.553
0
LINE
8
BLACK
6
CONTINUOUS
10
114.943
20
-43.553
11
114.943
21
-78.875
0
LINE
8
BLACK
6
CONTINUOUS
10
107.323
20
-78.875
11
105.021
21
-78.875
0
LINE
8
BLACK
6
CONTINUOUS
10
105.021
20
-78.875
11
105.021
21
-58.793
0
LINE
8
BLACK
6
CONTINUOUS
10
105.021
20
-58.793
11
107.323
21
-58.793
0
LINE
8
BLACK
6
CONTINUOUS
10
107.323
20
-58.793
11
107.323
21
-78.875
0
LINE
8
BLACK
6
CONTINUOUS
10
87.7968
20
-77.1393
11
87.9572
21
-77.188
0
LINE
8
BLACK
6
CONTINUOUS
10
87.9572
20
-77.188
11
88.0244
21
-77.2239
0
LINE
8
BLACK
6
CONTINUOUS
10
88.0244
20
-77.2239
11
88.1051
21
-77.267
0
LINE
8
BLACK
6
CONTINUOUS
10
88.1051
20
-77.267
11
88.2347
21
-77.3733
0
LINE
8
BLACK
6
CONTINUOUS
10
88.2347
20
-77.3733
11
88.341
21
-77.5029
0
LINE
8
BLACK
6
CONTINUOUS
10
88.341
20
-77.5029
11
88.341
21
-77.5029
0
LINE
8
BLACK
6
CONTINUOUS
10
88.341
20
-77.5029
11
88.42
21
-77.6508
0
LINE
8
BLACK
6
CONTINUOUS
10
88.42
20
-77.6508
11
88.4687
21
-77.8112
0
LINE
8
BLACK
6
CONTINUOUS
10
88.4687
20
-77.8112
11
88.4851
21
-77.978
0
LINE
8
BLACK
6
CONTINUOUS
10
88.4851
20
-77.978
11
88.4687
21
-78.1448
0
LINE
8
BLACK
6
CONTINUOUS
10
88.4687
20
-78.1448
11
88.42
21
-78.3052
0
LINE
8
BLACK
6
CONTINUOUS
10
88.42
20
-78.3052
11
88.3795
21
-78.3811
0
LINE
8
BLACK
6
CONTINUOUS
10
88.3795
20
-78.3811
11
88.341
21
-78.4531
0
LINE
8
BLACK
6
CONTINUOUS
10
88.341
20
-78.4531
11
88.2347
21
-78.5827
0
LINE
8
BLACK
6
CONTINUOUS
10
88.2347
20
-78.5827
11
88.1051
21
-78.689
0
LINE
8
BLACK
6
CONTINUOUS
10
88.1051
20
-78.689
11
88.1051
21
-78.689
0
LINE
8
BLACK
6
CONTINUOUS
10
88.1051
20
-78.689
11
87.9572
21
-78.768
0
LINE
8
BLACK
6
CONTINUOUS
10
87.9572
20
-78.768
11
87.7968
21
-78.8167
0
LINE
8
BLACK
6
CONTINUOUS
10
87.7968
20
-78.8167
11
87.6718
21
-78.829
0
LINE
8
BLACK
6
CONTINUOUS
10
87.6718
20
-78.829
11
87.5882
21
-78.829
0
LINE
8
BLACK
6
CONTINUOUS
10
87.5882
20
-78.829
11
87.4632
21
-78.8167
0
LINE
8
BLACK
6
CONTINUOUS
10
87.4632
20
-78.8167
11
87.3028
21
-78.768
0
LINE
8
BLACK
6
CONTINUOUS
10
87.3028
20
-78.768
11
87.1549
21
-78.689
0
LINE
8
BLACK
6
CONTINUOUS
10
87.1549
20
-78.689
11
87.1549
21
-78.689
0
LINE
8
BLACK
6
CONTINUOUS
10
87.1549
20
-78.689
11
87.0253
21
-78.5827
0
LINE
8
BLACK
6
CONTINUOUS
10
87.0253
20
-78.5827
11
86.919
21
-78.4531
0
LINE
8
BLACK
6
CONTINUOUS
10
86.919
20
-78.4531
11
86.8805
21
-78.3811
0
LINE
8
BLACK
6
CONTINUOUS
10
86.8805
20
-78.3811
11
86.84
21
-78.3052
0
LINE
8
BLACK
6
CONTINUOUS
10
86.84
20
-78.3052
11
86.7913
21
-78.1448
0
LINE
8
BLACK
6
CONTINUOUS
10
86.7913
20
-78.1448
11
86.7749
21
-77.978
0
LINE
8
BLACK
6
CONTINUOUS
10
86.7749
20
-77.978
11
86.7913
21
-77.8112
0
LINE
8
BLACK
6
CONTINUOUS
10
86.7913
20
-77.8112
11
86.84
21
-77.6508
0
LINE
8
BLACK
6
CONTINUOUS
10
86.84
20
-77.6508
11
86.919
21
-77.5029
0
LINE
8
BLACK
6
CONTINUOUS
10
86.919
20
-77.5029
11
86.919
21
-77.5029
0
LINE
8
BLACK
6
CONTINUOUS
10
86.919
20
-77.5029
11
87.0253
21
-77.3733
0
LINE
8
BLACK
6
CONTINUOUS
10
87.0253
20
-77.3733
11
87.1549
21
-77.267
0
LINE
8
BLACK
6
CONTINUOUS
10
87.1549
20
-77.267
11
87.2356
21
-77.2239
0
LINE
8
BLACK
6
CONTINUOUS
10
87.2356
20
-77.2239
11
87.3028
21
-77.188
0
LINE
8
BLACK
6
CONTINUOUS
10
87.3028
20
-77.188
11
87.4632
21
-77.1393
0
LINE
8
BLACK
6
CONTINUOUS
10
87.4632
20
-77.1393
11
87.5882
21
-77.127
0
LINE
8
BLACK
6
CONTINUOUS
10
87.5882
20
-77.127
11
87.6718
21
-77.127
0
LINE
8
BLACK
6
CONTINUOUS
10
87.6718
20
-77.127
11
87.7968
21
-77.1393
0
LINE
8
BLACK
6
CONTINUOUS
10
85.3382
20
-77.1597
11
85.4931
21
-77.2239
0
LINE
8
BLACK
6
CONTINUOUS
10
85.4931
20
-77.2239
11
85.6325
21
-77.317
0
LINE
8
BLACK
6
CONTINUOUS
10
85.6325
20
-77.317
11
85.751
21
-77.4355
0
LINE
8
BLACK
6
CONTINUOUS
10
85.751
20
-77.4355
11
85.8441
21
-77.5749
0
LINE
8
BLACK
6
CONTINUOUS
10
85.8441
20
-77.5749
11
85.9083
21
-77.7298
0
LINE
8
BLACK
6
CONTINUOUS
10
85.9083
20
-77.7298
11
85.941
21
-77.8942
0
LINE
8
BLACK
6
CONTINUOUS
10
85.941
20
-77.8942
11
85.941
21
-78.0618
0
LINE
8
BLACK
6
CONTINUOUS
10
85.941
20
-78.0618
11
85.9083
21
-78.2262
0
LINE
8
BLACK
6
CONTINUOUS
10
85.9083
20
-78.2262
11
85.8441
21
-78.3811
0
LINE
8
BLACK
6
CONTINUOUS
10
85.8441
20
-78.3811
11
85.751
21
-78.5205
0
LINE
8
BLACK
6
CONTINUOUS
10
85.751
20
-78.5205
11
85.6325
21
-78.639
0
LINE
8
BLACK
6
CONTINUOUS
10
85.6325
20
-78.639
11
85.4931
21
-78.7321
0
LINE
8
BLACK
6
CONTINUOUS
10
85.4931
20
-78.7321
11
85.3382
21
-78.7963
0
LINE
8
BLACK
6
CONTINUOUS
10
85.3382
20
-78.7963
11
85.1738
21
-78.829
0
LINE
8
BLACK
6
CONTINUOUS
10
85.1738
20
-78.829
11
85.0062
21
-78.829
0
LINE
8
BLACK
6
CONTINUOUS
10
85.0062
20
-78.829
11
84.8418
21
-78.7963
0
LINE
8
BLACK
6
CONTINUOUS
10
84.8418
20
-78.7963
11
84.6869
21
-78.7321
0
LINE
8
BLACK
6
CONTINUOUS
10
84.6869
20
-78.7321
11
84.5475
21
-78.639
0
LINE
8
BLACK
6
CONTINUOUS
10
84.5475
20
-78.639
11
84.429
21
-78.5205
0
LINE
8
BLACK
6
CONTINUOUS
10
84.429
20
-78.5205
11
84.3359
21
-78.3811
0
LINE
8
BLACK
6
CONTINUOUS
10
84.3359
20
-78.3811
11
84.2717
21
-78.2262
0
LINE
8
BLACK
6
CONTINUOUS
10
84.2717
20
-78.2262
11
84.239
21
-78.0618
0
LINE
8
BLACK
6
CONTINUOUS
10
84.239
20
-78.0618
11
84.239
21
-77.8942
0
LINE
8
BLACK
6
CONTINUOUS
10
84.239
20
-77.8942
11
84.2717
21
-77.7298
0
LINE
8
BLACK
6
CONTINUOUS
10
84.2717
20
-77.7298
11
84.3359
21
-77.5749
0
LINE
8
BLACK
6
CONTINUOUS
10
84.3359
20
-77.5749
11
84.429
21
-77.4355
0
LINE
8
BLACK
6
CONTINUOUS
10
84.429
20
-77.4355
11
84.5475
21
-77.317
0
LINE
8
BLACK
6
CONTINUOUS
10
84.5475
20
-77.317
11
84.6869
21
-77.2239
0
LINE
8
BLACK
6
CONTINUOUS
10
84.6869
20
-77.2239
11
84.8418
21
-77.1597
0
LINE
8
BLACK
6
CONTINUOUS
10
84.8418
20
-77.1597
11
85.0062
21
-77.127
0
LINE
8
BLACK
6
CONTINUOUS
10
85.0062
20
-77.127
11
85.1738
21
-77.127
0
LINE
8
BLACK
6
CONTINUOUS
10
85.1738
20
-77.127
11
85.3382
21
-77.1597
0
LINE
8
BLACK
6
CONTINUOUS
10
44.331
20
-78.113
11
42.029
21
-78.113
0
LINE
8
BLACK
6
CONTINUOUS
10
42.029
20
-78.113
11
42.029
21
-52.951
0
LINE
8
BLACK
6
CONTINUOUS
10
42.029
20
-52.951
11
44.331
21
-52.951
0
LINE
8
BLACK
6
CONTINUOUS
10
44.331
20
-52.951
11
44.331
21
-78.113
0
LINE
8
BLACK
6
CONTINUOUS
10
80.1209
20
-74.9971
11
80.3486
21
-75.0914
0
LINE
8
BLACK
6
CONTINUOUS
10
80.3486
20
-75.0914
11
80.5535
21
-75.2283
0
LINE
8
BLACK
6
CONTINUOUS
10
80.5535
20
-75.2283
11
80.7277
21
-75.4025
0
LINE
8
BLACK
6
CONTINUOUS
10
80.7277
20
-75.4025
11
80.8646
21
-75.6074
0
LINE
8
BLACK
6
CONTINUOUS
10
80.8646
20
-75.6074
11
80.8646
21
-75.6074
0
LINE
8
BLACK
6
CONTINUOUS
10
80.8646
20
-75.6074
11
80.9589
21
-75.8351
0
LINE
8
BLACK
6
CONTINUOUS
10
80.9589
20
-75.8351
11
81.007
21
-76.0768
0
LINE
8
BLACK
6
CONTINUOUS
10
81.007
20
-76.0768
11
81.007
21
-76.3232
0
LINE
8
BLACK
6
CONTINUOUS
10
81.007
20
-76.3232
11
80.9589
21
-76.5649
0
LINE
8
BLACK
6
CONTINUOUS
10
80.9589
20
-76.5649
11
80.8646
21
-76.7926
0
LINE
8
BLACK
6
CONTINUOUS
10
80.8646
20
-76.7926
11
80.7277
21
-76.9975
0
LINE
8
BLACK
6
CONTINUOUS
10
80.7277
20
-76.9975
11
80.5535
21
-77.1717
0
LINE
8
BLACK
6
CONTINUOUS
10
80.5535
20
-77.1717
11
80.3486
21
-77.3086
0
LINE
8
BLACK
6
CONTINUOUS
10
80.3486
20
-77.3086
11
80.3486
21
-77.3086
0
LINE
8
BLACK
6
CONTINUOUS
10
80.3486
20
-77.3086
11
80.3486
21
-77.3086
0
LINE
8
BLACK
6
CONTINUOUS
10
80.3486
20
-77.3086
11
80.1209
21
-77.4029
0
LINE
8
BLACK
6
CONTINUOUS
10
80.1209
20
-77.4029
11
79.8792
21
-77.451
0
LINE
8
BLACK
6
CONTINUOUS
10
79.8792
20
-77.451
11
79.6328
21
-77.451
0
LINE
8
BLACK
6
CONTINUOUS
10
79.6328
20
-77.451
11
79.3911
21
-77.4029
0
LINE
8
BLACK
6
CONTINUOUS
10
79.3911
20
-77.4029
11
79.1634
21
-77.3086
0
LINE
8
BLACK
6
CONTINUOUS
10
79.1634
20
-77.3086
11
79.1634
21
-77.3086
0
LINE
8
BLACK
6
CONTINUOUS
10
79.1634
20
-77.3086
11
79.1634
21
-77.3086
0
LINE
8
BLACK
6
CONTINUOUS
10
79.1634
20
-77.3086
11
78.9585
21
-77.1717
0
LINE
8
BLACK
6
CONTINUOUS
10
78.9585
20
-77.1717
11
78.7843
21
-76.9975
0
LINE
8
BLACK
6
CONTINUOUS
10
78.7843
20
-76.9975
11
78.6474
21
-76.7926
0
LINE
8
BLACK
6
CONTINUOUS
10
78.6474
20
-76.7926
11
78.5531
21
-76.5649
0
LINE
8
BLACK
6
CONTINUOUS
10
78.5531
20
-76.5649
11
78.505
21
-76.3232
0
LINE
8
BLACK
6
CONTINUOUS
10
78.505
20
-76.3232
11
78.505
21
-76.0768
0
LINE
8
BLACK
6
CONTINUOUS
10
78.505
20
-76.0768
11
78.5531
21
-75.8351
0
LINE
8
BLACK
6
CONTINUOUS
10
78.5531
20
-75.8351
11
78.6474
21
-75.6074
0
LINE
8
BLACK
6
CONTINUOUS
10
78.6474
20
-75.6074
11
78.6474
21
-75.6074
0
LINE
8
BLACK
6
CONTINUOUS
10
78.6474
20
-75.6074
11
78.7843
21
-75.4025
0
LINE
8
BLACK
6
CONTINUOUS
10
78.7843
20
-75.4025
11
78.9585
21
-75.2283
0
LINE
8
BLACK
6
CONTINUOUS
10
78.9585
20
-75.2283
11
79.1634
21
-75.0914
0
LINE
8
BLACK
6
CONTINUOUS
10
79.1634
20
-75.0914
11
79.3911
21
-74.9971
0
LINE
8
BLACK
6
CONTINUOUS
10
79.3911
20
-74.9971
11
79.6328
21
-74.949
0
LINE
8
BLACK
6
CONTINUOUS
10
79.6328
20
-74.949
11
79.8792
21
-74.949
0
LINE
8
BLACK
6
CONTINUOUS
10
79.8792
20
-74.949
11
80.1209
21
-74.9971
0
LINE
8
BLACK
6
CONTINUOUS
10
76.181
20
-76.181
11
73.679
21
-76.181
0
LINE
8
BLACK
6
CONTINUOUS
10
73.679
20
-76.181
11
73.679
21
-73.679
0
LINE
8
BLACK
6
CONTINUOUS
10
73.679
20
-73.679
11
76.181
21
-73.679
0
LINE
8
BLACK
6
CONTINUOUS
10
76.181
20
-73.679
11
76.181
21
-76.181
0
LINE
8
BLACK
6
CONTINUOUS
10
92.7012
20
-73.1891
11
92.9371
21
-73.2606
0
LINE
8
BLACK
6
CONTINUOUS
10
92.9371
20
-73.2606
11
93.1544
21
-73.3768
0
LINE
8
BLACK
6
CONTINUOUS
10
93.1544
20
-73.3768
11
93.3449
21
-73.5331
0
LINE
8
BLACK
6
CONTINUOUS
10
93.3449
20
-73.5331
11
93.5012
21
-73.7236
0
LINE
8
BLACK
6
CONTINUOUS
10
93.5012
20
-73.7236
11
93.6174
21
-73.9409
0
LINE
8
BLACK
6
CONTINUOUS
10
93.6174
20
-73.9409
11
93.6889
21
-74.1768
0
LINE
8
BLACK
6
CONTINUOUS
10
93.6889
20
-74.1768
11
93.7131
21
-74.422
0
LINE
8
BLACK
6
CONTINUOUS
10
93.7131
20
-74.422
11
93.6889
21
-74.6672
0
LINE
8
BLACK
6
CONTINUOUS
10
93.6889
20
-74.6672
11
93.6174
21
-74.9031
0
LINE
8
BLACK
6
CONTINUOUS
10
93.6174
20
-74.9031
11
93.5012
21
-75.1204
0
LINE
8
BLACK
6
CONTINUOUS
10
93.5012
20
-75.1204
11
93.3449
21
-75.3109
0
LINE
8
BLACK
6
CONTINUOUS
10
93.3449
20
-75.3109
11
93.1544
21
-75.4672
0
LINE
8
BLACK
6
CONTINUOUS
10
93.1544
20
-75.4672
11
92.9371
21
-75.5834
0
LINE
8
BLACK
6
CONTINUOUS
10
92.9371
20
-75.5834
11
92.7012
21
-75.6549
0
LINE
8
BLACK
6
CONTINUOUS
10
92.7012
20
-75.6549
11
92.5175
21
-75.673
0
LINE
8
BLACK
6
CONTINUOUS
10
92.5175
20
-75.673
11
92.3945
21
-75.673
0
LINE
8
BLACK
6
CONTINUOUS
10
92.3945
20
-75.673
11
92.2108
21
-75.6549
0
LINE
8
BLACK
6
CONTINUOUS
10
92.2108
20
-75.6549
11
91.9749
21
-75.5834
0
LINE
8
BLACK
6
CONTINUOUS
10
91.9749
20
-75.5834
11
91.7576
21
-75.4672
0
LINE
8
BLACK
6
CONTINUOUS
10
91.7576
20
-75.4672
11
91.5671
21
-75.3109
0
LINE
8
BLACK
6
CONTINUOUS
10
91.5671
20
-75.3109
11
91.4108
21
-75.1204
0
LINE
8
BLACK
6
CONTINUOUS
10
91.4108
20
-75.1204
11
91.2946
21
-74.9031
0
LINE
8
BLACK
6
CONTINUOUS
10
91.2946
20
-74.9031
11
91.2231
21
-74.6672
0
LINE
8
BLACK
6
CONTINUOUS
10
91.2231
20
-74.6672
11
91.1989
21
-74.422
0
LINE
8
BLACK
6
CONTINUOUS
10
91.1989
20
-74.422
11
91.2231
21
-74.1768
0
LINE
8
BLACK
6
CONTINUOUS
10
91.2231
20
-74.1768
11
91.2946
21
-73.9409
0
LINE
8
BLACK
6
CONTINUOUS
10
91.2946
20
-73.9409
11
91.4108
21
-73.7236
0
LINE
8
BLACK
6
CONTINUOUS
10
91.4108
20
-73.7236
11
91.5671
21
-73.5331
0
LINE
8
BLACK
6
CONTINUOUS
10
91.5671
20
-73.5331
11
91.7576
21
-73.3768
0
LINE
8
BLACK
6
CONTINUOUS
10
91.7576
20
-73.3768
11
91.9749
21
-73.2606
0
LINE
8
BLACK
6
CONTINUOUS
10
91.9749
20
-73.2606
11
92.2108
21
-73.1891
0
LINE
8
BLACK
6
CONTINUOUS
10
92.2108
20
-73.1891
11
92.3945
21
-73.171
0
LINE
8
BLACK
6
CONTINUOUS
10
92.3945
20
-73.171
11
92.5175
21
-73.171
0
LINE
8
BLACK
6
CONTINUOUS
10
92.5175
20
-73.171
11
92.7012
21
-73.1891
0
LINE
8
BLACK
6
CONTINUOUS
10
88.527
20
-73.541
11
86.225
21
-73.541
0
LINE
8
BLACK
6
CONTINUOUS
10
86.225
20
-73.541
11
86.225
21
-66.159
0
LINE
8
BLACK
6
CONTINUOUS
10
86.225
20
-66.159
11
88.527
21
-66.159
0
LINE
8
BLACK
6
CONTINUOUS
10
88.527
20
-66.159
11
88.527
21
-73.541
0
LINE
8
BLACK
6
CONTINUOUS
10
100.578
20
-70.7697
11
100.733
21
-70.8339
0
LINE
8
BLACK
6
CONTINUOUS
10
100.733
20
-70.8339
11
100.872
21
-70.927
0
LINE
8
BLACK
6
CONTINUOUS
10
100.872
20
-70.927
11
100.991
21
-71.0455
0
LINE
8
BLACK
6
CONTINUOUS
10
100.991
20
-71.0455
11
101.084
21
-71.1849
0
LINE
8
BLACK
6
CONTINUOUS
10
101.084
20
-71.1849
11
101.148
21
-71.3398
0
LINE
8
BLACK
6
CONTINUOUS
10
101.148
20
-71.3398
11
101.181
21
-71.5042
0
LINE
8
BLACK
6
CONTINUOUS
10
101.181
20
-71.5042
11
101.181
21
-71.6718
0
LINE
8
BLACK
6
CONTINUOUS
10
101.181
20
-71.6718
11
101.148
21
-71.8362
0
LINE
8
BLACK
6
CONTINUOUS
10
101.148
20
-71.8362
11
101.084
21
-71.9911
0
LINE
8
BLACK
6
CONTINUOUS
10
101.084
20
-71.9911
11
100.991
21
-72.1305
0
LINE
8
BLACK
6
CONTINUOUS
10
100.991
20
-72.1305
11
100.872
21
-72.249
0
LINE
8
BLACK
6
CONTINUOUS
10
100.872
20
-72.249
11
100.733
21
-72.3421
0
LINE
8
BLACK
6
CONTINUOUS
10
100.733
20
-72.3421
11
100.578
21
-72.4063
0
LINE
8
BLACK
6
CONTINUOUS
10
100.578
20
-72.4063
11
100.414
21
-72.439
0
LINE
8
BLACK
6
CONTINUOUS
10
100.414
20
-72.439
11
100.246
21
-72.439
0
LINE
8
BLACK
6
CONTINUOUS
10
100.246
20
-72.439
11
100.082
21
-72.4063
0
LINE
8
BLACK
6
CONTINUOUS
10
100.082
20
-72.4063
11
99.9269
21
-72.3421
0
LINE
8
BLACK
6
CONTINUOUS
10
99.9269
20
-72.3421
11
99.7875
21
-72.249
0
LINE
8
BLACK
6
CONTINUOUS
10
99.7875
20
-72.249
11
99.669
21
-72.1305
0
LINE
8
BLACK
6
CONTINUOUS
10
99.669
20
-72.1305
11
99.5759
21
-71.9911
0
LINE
8
BLACK
6
CONTINUOUS
10
99.5759
20
-71.9911
11
99.5117
21
-71.8362
0
LINE
8
BLACK
6
CONTINUOUS
10
99.5117
20
-71.8362
11
99.479
21
-71.6718
0
LINE
8
BLACK
6
CONTINUOUS
10
99.479
20
-71.6718
11
99.479
21
-71.5042
0
LINE
8
BLACK
6
CONTINUOUS
10
99.479
20
-71.5042
11
99.5117
21
-71.3398
0
LINE
8
BLACK
6
CONTINUOUS
10
99.5117
20
-71.3398
11
99.5759
21
-71.1849
0
LINE
8
BLACK
6
CONTINUOUS
10
99.5759
20
-71.1849
11
99.669
21
-71.0455
0
LINE
8
BLACK
6
CONTINUOUS
10
99.669
20
-71.0455
11
99.7875
21
-70.927
0
LINE
8
BLACK
6
CONTINUOUS
10
99.7875
20
-70.927
11
99.9269
21
-70.8339
0
LINE
8
BLACK
6
CONTINUOUS
10
99.9269
20
-70.8339
11
100.082
21
-70.7697
0
LINE
8
BLACK
6
CONTINUOUS
10
100.082
20
-70.7697
11
100.246
21
-70.737
0
LINE
8
BLACK
6
CONTINUOUS
10
100.246
20
-70.737
11
100.414
21
-70.737
0
LINE
8
BLACK
6
CONTINUOUS
10
100.414
20
-70.737
11
100.578
21
-70.7697
0
LINE
8
BLACK
6
CONTINUOUS
10
74.049
20
-68.305
11
74.1788
21
-68.3443
0
LINE
8
BLACK
6
CONTINUOUS
10
74.1788
20
-68.3443
11
74.2281
21
-68.3707
0
LINE
8
BLACK
6
CONTINUOUS
10
74.2281
20
-68.3707
11
74.2984
21
-68.4083
0
LINE
8
BLACK
6
CONTINUOUS
10
74.2984
20
-68.4083
11
74.4032
21
-68.4943
0
LINE
8
BLACK
6
CONTINUOUS
10
74.4032
20
-68.4943
11
74.4892
21
-68.5991
0
LINE
8
BLACK
6
CONTINUOUS
10
74.4892
20
-68.5991
11
74.5268
21
-68.6694
0
LINE
8
BLACK
6
CONTINUOUS
10
74.5268
20
-68.6694
11
74.5532
21
-68.7187
0
LINE
8
BLACK
6
CONTINUOUS
10
74.5532
20
-68.7187
11
74.5925
21
-68.8485
0
LINE
8
BLACK
6
CONTINUOUS
10
74.5925
20
-68.8485
11
74.6025
21
-68.9497
0
LINE
8
BLACK
6
CONTINUOUS
10
74.6025
20
-68.9497
11
74.6025
21
-70.2423
0
LINE
8
BLACK
6
CONTINUOUS
10
74.6025
20
-70.2423
11
74.5925
21
-70.3435
0
LINE
8
BLACK
6
CONTINUOUS
10
74.5925
20
-70.3435
11
74.5532
21
-70.4733
0
LINE
8
BLACK
6
CONTINUOUS
10
74.5532
20
-70.4733
11
74.5426
21
-70.493
0
LINE
8
BLACK
6
CONTINUOUS
10
74.5426
20
-70.493
11
74.4892
21
-70.5929
0
LINE
8
BLACK
6
CONTINUOUS
10
74.4892
20
-70.5929
11
74.4032
21
-70.6977
0
LINE
8
BLACK
6
CONTINUOUS
10
74.4032
20
-70.6977
11
74.2984
21
-70.7837
0
LINE
8
BLACK
6
CONTINUOUS
10
74.2984
20
-70.7837
11
74.2281
21
-70.8213
0
LINE
8
BLACK
6
CONTINUOUS
10
74.2281
20
-70.8213
11
74.1788
21
-70.8477
0
LINE
8
BLACK
6
CONTINUOUS
10
74.1788
20
-70.8477
11
74.049
21
-70.887
0
LINE
8
BLACK
6
CONTINUOUS
10
74.049
20
-70.887
11
73.914
21
-70.9003
0
LINE
8
BLACK
6
CONTINUOUS
10
73.914
20
-70.9003
11
73.779
21
-70.887
0
LINE
8
BLACK
6
CONTINUOUS
10
73.779
20
-70.887
11
73.6492
21
-70.8477
0
LINE
8
BLACK
6
CONTINUOUS
10
73.6492
20
-70.8477
11
73.5999
21
-70.8213
0
LINE
8
BLACK
6
CONTINUOUS
10
73.5999
20
-70.8213
11
73.5296
21
-70.7837
0
LINE
8
BLACK
6
CONTINUOUS
10
73.5296
20
-70.7837
11
73.4248
21
-70.6977
0
LINE
8
BLACK
6
CONTINUOUS
10
73.4248
20
-70.6977
11
73.3388
21
-70.5929
0
LINE
8
BLACK
6
CONTINUOUS
10
73.3388
20
-70.5929
11
73.2854
21
-70.493
0
LINE
8
BLACK
6
CONTINUOUS
10
73.2854
20
-70.493
11
73.2748
21
-70.4733
0
LINE
8
BLACK
6
CONTINUOUS
10
73.2748
20
-70.4733
11
73.2355
21
-70.3435
0
LINE
8
BLACK
6
CONTINUOUS
10
73.2355
20
-70.3435
11
73.2255
21
-70.2423
0
LINE
8
BLACK
6
CONTINUOUS
10
73.2255
20
-70.2423
11
73.2255
21
-68.9497
0
LINE
8
BLACK
6
CONTINUOUS
10
73.2255
20
-68.9497
11
73.2355
21
-68.8485
0
LINE
8
BLACK
6
CONTINUOUS
10
73.2355
20
-68.8485
11
73.2748
21
-68.7187
0
LINE
8
BLACK
6
CONTINUOUS
10
73.2748
20
-68.7187
11
73.3388
21
-68.5991
0
LINE
8
BLACK
6
CONTINUOUS
10
73.3388
20
-68.5991
11
73.3535
21
-68.5812
0
LINE
8
BLACK
6
CONTINUOUS
10
73.3535
20
-68.5812
11
73.4248
21
-68.4943
0
LINE
8
BLACK
6
CONTINUOUS
10
73.4248
20
-68.4943
11
73.5296
21
-68.4083
0
LINE
8
BLACK
6
CONTINUOUS
10
73.5296
20
-68.4083
11
73.5999
21
-68.3707
0
LINE
8
BLACK
6
CONTINUOUS
10
73.5999
20
-68.3707
11
73.6492
21
-68.3443
0
LINE
8
BLACK
6
CONTINUOUS
10
73.6492
20
-68.3443
11
73.779
21
-68.305
0
LINE
8
BLACK
6
CONTINUOUS
10
73.779
20
-68.305
11
73.914
21
-68.2917
0
LINE
8
BLACK
6
CONTINUOUS
10
73.914
20
-68.2917
11
74.049
21
-68.305
0
LINE
8
BLACK
6
CONTINUOUS
10
79.149
20
-68.305
11
79.2788
21
-68.3443
0
LINE
8
BLACK
6
CONTINUOUS
10
79.2788
20
-68.3443
11
79.3281
21
-68.3707
0
LINE
8
BLACK
6
CONTINUOUS
10
79.3281
20
-68.3707
11
79.3984
21
-68.4083
0
LINE
8
BLACK
6
CONTINUOUS
10
79.3984
20
-68.4083
11
79.5032
21
-68.4943
0
LINE
8
BLACK
6
CONTINUOUS
10
79.5032
20
-68.4943
11
79.5892
21
-68.5991
0
LINE
8
BLACK
6
CONTINUOUS
10
79.5892
20
-68.5991
11
79.6268
21
-68.6694
0
LINE
8
BLACK
6
CONTINUOUS
10
79.6268
20
-68.6694
11
79.6532
21
-68.7187
0
LINE
8
BLACK
6
CONTINUOUS
10
79.6532
20
-68.7187
11
79.6925
21
-68.8485
0
LINE
8
BLACK
6
CONTINUOUS
10
79.6925
20
-68.8485
11
79.7025
21
-68.9497
0
LINE
8
BLACK
6
CONTINUOUS
10
79.7025
20
-68.9497
11
79.7025
21
-70.2423
0
LINE
8
BLACK
6
CONTINUOUS
10
79.7025
20
-70.2423
11
79.6925
21
-70.3435
0
LINE
8
BLACK
6
CONTINUOUS
10
79.6925
20
-70.3435
11
79.6532
21
-70.4733
0
LINE
8
BLACK
6
CONTINUOUS
10
79.6532
20
-70.4733
11
79.6426
21
-70.493
0
LINE
8
BLACK
6
CONTINUOUS
10
79.6426
20
-70.493
11
79.5892
21
-70.5929
0
LINE
8
BLACK
6
CONTINUOUS
10
79.5892
20
-70.5929
11
79.5032
21
-70.6977
0
LINE
8
BLACK
6
CONTINUOUS
10
79.5032
20
-70.6977
11
79.3984
21
-70.7837
0
LINE
8
BLACK
6
CONTINUOUS
10
79.3984
20
-70.7837
11
79.3281
21
-70.8213
0
LINE
8
BLACK
6
CONTINUOUS
10
79.3281
20
-70.8213
11
79.2788
21
-70.8477
0
LINE
8
BLACK
6
CONTINUOUS
10
79.2788
20
-70.8477
11
79.149
21
-70.887
0
LINE
8
BLACK
6
CONTINUOUS
10
79.149
20
-70.887
11
79.014
21
-70.9003
0
LINE
8
BLACK
6
CONTINUOUS
10
79.014
20
-70.9003
11
78.879
21
-70.887
0
LINE
8
BLACK
6
CONTINUOUS
10
78.879
20
-70.887
11
78.7492
21
-70.8477
0
LINE
8
BLACK
6
CONTINUOUS
10
78.7492
20
-70.8477
11
78.6999
21
-70.8213
0
LINE
8
BLACK
6
CONTINUOUS
10
78.6999
20
-70.8213
11
78.6296
21
-70.7837
0
LINE
8
BLACK
6
CONTINUOUS
10
78.6296
20
-70.7837
11
78.5248
21
-70.6977
0
LINE
8
BLACK
6
CONTINUOUS
10
78.5248
20
-70.6977
11
78.4388
21
-70.5929
0
LINE
8
BLACK
6
CONTINUOUS
10
78.4388
20
-70.5929
11
78.3854
21
-70.493
0
LINE
8
BLACK
6
CONTINUOUS
10
78.3854
20
-70.493
11
78.3748
21
-70.4733
0
LINE
8
BLACK
6
CONTINUOUS
10
78.3748
20
-70.4733
11
78.3355
21
-70.3435
0
LINE
8
BLACK
6
CONTINUOUS
10
78.3355
20
-70.3435
11
78.3255
21
-70.2423
0
LINE
8
BLACK
6
CONTINUOUS
10
78.3255
20
-70.2423
11
78.3255
21
-68.9497
0
LINE
8
BLACK
6
CONTINUOUS
10
78.3255
20
-68.9497
11
78.3355
21
-68.8485
0
LINE
8
BLACK
6
CONTINUOUS
10
78.3355
20
-68.8485
11
78.3748
21
-68.7187
0
LINE
8
BLACK
6
CONTINUOUS
10
78.3748
20
-68.7187
11
78.4388
21
-68.5991
0
LINE
8
BLACK
6
CONTINUOUS
10
78.4388
20
-68.5991
11
78.4535
21
-68.5812
0
LINE
8
BLACK
6
CONTINUOUS
10
78.4535
20
-68.5812
11
78.5248
21
-68.4943
0
LINE
8
BLACK
6
CONTINUOUS
10
78.5248
20
-68.4943
11
78.6296
21
-68.4083
0
LINE
8
BLACK
6
CONTINUOUS
10
78.6296
20
-68.4083
11
78.6999
21
-68.3707
0
LINE
8
BLACK
6
CONTINUOUS
10
78.6999
20
-68.3707
11
78.7492
21
-68.3443
0
LINE
8
BLACK
6
CONTINUOUS
10
78.7492
20
-68.3443
11
78.879
21
-68.305
0
LINE
8
BLACK
6
CONTINUOUS
10
78.879
20
-68.305
11
79.014
21
-68.2917
0
LINE
8
BLACK
6
CONTINUOUS
10
79.014
20
-68.2917
11
79.149
21
-68.305
0
LINE
8
BLACK
6
CONTINUOUS
10
77.449
20
-68.305
11
77.5788
21
-68.3443
0
LINE
8
BLACK
6
CONTINUOUS
10
77.5788
20
-68.3443
11
77.6281
21
-68.3707
0
LINE
8
BLACK
6
CONTINUOUS
10
77.6281
20
-68.3707
11
77.6984
21
-68.4083
0
LINE
8
BLACK
6
CONTINUOUS
10
77.6984
20
-68.4083
11
77.8032
21
-68.4943
0
LINE
8
BLACK
6
CONTINUOUS
10
77.8032
20
-68.4943
11
77.8892
21
-68.5991
0
LINE
8
BLACK
6
CONTINUOUS
10
77.8892
20
-68.5991
11
77.9268
21
-68.6694
0
LINE
8
BLACK
6
CONTINUOUS
10
77.9268
20
-68.6694
11
77.9532
21
-68.7187
0
LINE
8
BLACK
6
CONTINUOUS
10
77.9532
20
-68.7187
11
77.9925
21
-68.8485
0
LINE
8
BLACK
6
CONTINUOUS
10
77.9925
20
-68.8485
11
78.0025
21
-68.9497
0
LINE
8
BLACK
6
CONTINUOUS
10
78.0025
20
-68.9497
11
78.0025
21
-70.2423
0
LINE
8
BLACK
6
CONTINUOUS
10
78.0025
20
-70.2423
11
77.9925
21
-70.3435
0
LINE
8
BLACK
6
CONTINUOUS
10
77.9925
20
-70.3435
11
77.9532
21
-70.4733
0
LINE
8
BLACK
6
CONTINUOUS
10
77.9532
20
-70.4733
11
77.9426
21
-70.493
0
LINE
8
BLACK
6
CONTINUOUS
10
77.9426
20
-70.493
11
77.8892
21
-70.5929
0
LINE
8
BLACK
6
CONTINUOUS
10
77.8892
20
-70.5929
11
77.8032
21
-70.6977
0
LINE
8
BLACK
6
CONTINUOUS
10
77.8032
20
-70.6977
11
77.6984
21
-70.7837
0
LINE
8
BLACK
6
CONTINUOUS
10
77.6984
20
-70.7837
11
77.6281
21
-70.8213
0
LINE
8
BLACK
6
CONTINUOUS
10
77.6281
20
-70.8213
11
77.5788
21
-70.8477
0
LINE
8
BLACK
6
CONTINUOUS
10
77.5788
20
-70.8477
11
77.449
21
-70.887
0
LINE
8
BLACK
6
CONTINUOUS
10
77.449
20
-70.887
11
77.314
21
-70.9003
0
LINE
8
BLACK
6
CONTINUOUS
10
77.314
20
-70.9003
11
77.179
21
-70.887
0
LINE
8
BLACK
6
CONTINUOUS
10
77.179
20
-70.887
11
77.0492
21
-70.8477
0
LINE
8
BLACK
6
CONTINUOUS
10
77.0492
20
-70.8477
11
76.9999
21
-70.8213
0
LINE
8
BLACK
6
CONTINUOUS
10
76.9999
20
-70.8213
11
76.9296
21
-70.7837
0
LINE
8
BLACK
6
CONTINUOUS
10
76.9296
20
-70.7837
11
76.8248
21
-70.6977
0
LINE
8
BLACK
6
CONTINUOUS
10
76.8248
20
-70.6977
11
76.7388
21
-70.5929
0
LINE
8
BLACK
6
CONTINUOUS
10
76.7388
20
-70.5929
11
76.6854
21
-70.493
0
LINE
8
BLACK
6
CONTINUOUS
10
76.6854
20
-70.493
11
76.6748
21
-70.4733
0
LINE
8
BLACK
6
CONTINUOUS
10
76.6748
20
-70.4733
11
76.6355
21
-70.3435
0
LINE
8
BLACK
6
CONTINUOUS
10
76.6355
20
-70.3435
11
76.6255
21
-70.2423
0
LINE
8
BLACK
6
CONTINUOUS
10
76.6255
20
-70.2423
11
76.6255
21
-68.9497
0
LINE
8
BLACK
6
CONTINUOUS
10
76.6255
20
-68.9497
11
76.6355
21
-68.8485
0
LINE
8
BLACK
6
CONTINUOUS
10
76.6355
20
-68.8485
11
76.6748
21
-68.7187
0
LINE
8
BLACK
6
CONTINUOUS
10
76.6748
20
-68.7187
11
76.7388
21
-68.5991
0
LINE
8
BLACK
6
CONTINUOUS
10
76.7388
20
-68.5991
11
76.7535
21
-68.5812
0
LINE
8
BLACK
6
CONTINUOUS
10
76.7535
20
-68.5812
11
76.8248
21
-68.4943
0
LINE
8
BLACK
6
CONTINUOUS
10
76.8248
20
-68.4943
11
76.9296
21
-68.4083
0
LINE
8
BLACK
6
CONTINUOUS
10
76.9296
20
-68.4083
11
76.9999
21
-68.3707
0
LINE
8
BLACK
6
CONTINUOUS
10
76.9999
20
-68.3707
11
77.0492
21
-68.3443
0
LINE
8
BLACK
6
CONTINUOUS
10
77.0492
20
-68.3443
11
77.179
21
-68.305
0
LINE
8
BLACK
6
CONTINUOUS
10
77.179
20
-68.305
11
77.314
21
-68.2917
0
LINE
8
BLACK
6
CONTINUOUS
10
77.314
20
-68.2917
11
77.449
21
-68.305
0
LINE
8
BLACK
6
CONTINUOUS
10
75.749
20
-68.305
11
75.8788
21
-68.3443
0
LINE
8
BLACK
6
CONTINUOUS
10
75.8788
20
-68.3443
11
75.9281
21
-68.3707
0
LINE
8
BLACK
6
CONTINUOUS
10
75.9281
20
-68.3707
11
75.9984
21
-68.4083
0
LINE
8
BLACK
6
CONTINUOUS
10
75.9984
20
-68.4083
11
76.1032
21
-68.4943
0
LINE
8
BLACK
6
CONTINUOUS
10
76.1032
20
-68.4943
11
76.1892
21
-68.5991
0
LINE
8
BLACK
6
CONTINUOUS
10
76.1892
20
-68.5991
11
76.2268
21
-68.6694
0
LINE
8
BLACK
6
CONTINUOUS
10
76.2268
20
-68.6694
11
76.2532
21
-68.7187
0
LINE
8
BLACK
6
CONTINUOUS
10
76.2532
20
-68.7187
11
76.2925
21
-68.8485
0
LINE
8
BLACK
6
CONTINUOUS
10
76.2925
20
-68.8485
11
76.3025
21
-68.9497
0
LINE
8
BLACK
6
CONTINUOUS
10
76.3025
20
-68.9497
11
76.3025
21
-70.2423
0
LINE
8
BLACK
6
CONTINUOUS
10
76.3025
20
-70.2423
11
76.2925
21
-70.3435
0
LINE
8
BLACK
6
CONTINUOUS
10
76.2925
20
-70.3435
11
76.2532
21
-70.4733
0
LINE
8
BLACK
6
CONTINUOUS
10
76.2532
20
-70.4733
11
76.2426
21
-70.493
0
LINE
8
BLACK
6
CONTINUOUS
10
76.2426
20
-70.493
11
76.1892
21
-70.5929
0
LINE
8
BLACK
6
CONTINUOUS
10
76.1892
20
-70.5929
11
76.1032
21
-70.6977
0
LINE
8
BLACK
6
CONTINUOUS
10
76.1032
20
-70.6977
11
75.9984
21
-70.7837
0
LINE
8
BLACK
6
CONTINUOUS
10
75.9984
20
-70.7837
11
75.9281
21
-70.8213
0
LINE
8
BLACK
6
CONTINUOUS
10
75.9281
20
-70.8213
11
75.8788
21
-70.8477
0
LINE
8
BLACK
6
CONTINUOUS
10
75.8788
20
-70.8477
11
75.749
21
-70.887
0
LINE
8
BLACK
6
CONTINUOUS
10
75.749
20
-70.887
11
75.614
21
-70.9003
0
LINE
8
BLACK
6
CONTINUOUS
10
75.614
20
-70.9003
11
75.479
21
-70.887
0
LINE
8
BLACK
6
CONTINUOUS
10
75.479
20
-70.887
11
75.3492
21
-70.8477
0
LINE
8
BLACK
6
CONTINUOUS
10
75.3492
20
-70.8477
11
75.2999
21
-70.8213
0
LINE
8
BLACK
6
CONTINUOUS
10
75.2999
20
-70.8213
11
75.2296
21
-70.7837
0
LINE
8
BLACK
6
CONTINUOUS
10
75.2296
20
-70.7837
11
75.1248
21
-70.6977
0
LINE
8
BLACK
6
CONTINUOUS
10
75.1248
20
-70.6977
11
75.0388
21
-70.5929
0
LINE
8
BLACK
6
CONTINUOUS
10
75.0388
20
-70.5929
11
74.9854
21
-70.493
0
LINE
8
BLACK
6
CONTINUOUS
10
74.9854
20
-70.493
11
74.9748
21
-70.4733
0
LINE
8
BLACK
6
CONTINUOUS
10
74.9748
20
-70.4733
11
74.9355
21
-70.3435
0
LINE
8
BLACK
6
CONTINUOUS
10
74.9355
20
-70.3435
11
74.9255
21
-70.2423
0
LINE
8
BLACK
6
CONTINUOUS
10
74.9255
20
-70.2423
11
74.9255
21
-68.9497
0
LINE
8
BLACK
6
CONTINUOUS
10
74.9255
20
-68.9497
11
74.9355
21
-68.8485
0
LINE
8
BLACK
6
CONTINUOUS
10
74.9355
20
-68.8485
11
74.9748
21
-68.7187
0
LINE
8
BLACK
6
CONTINUOUS
10
74.9748
20
-68.7187
11
75.0388
21
-68.5991
0
LINE
8
BLACK
6
CONTINUOUS
10
75.0388
20
-68.5991
11
75.0535
21
-68.5812
0
LINE
8
BLACK
6
CONTINUOUS
10
75.0535
20
-68.5812
11
75.1248
21
-68.4943
0
LINE
8
BLACK
6
CONTINUOUS
10
75.1248
20
-68.4943
11
75.2296
21
-68.4083
0
LINE
8
BLACK
6
CONTINUOUS
10
75.2296
20
-68.4083
11
75.2999
21
-68.3707
0
LINE
8
BLACK
6
CONTINUOUS
10
75.2999
20
-68.3707
11
75.3492
21
-68.3443
0
LINE
8
BLACK
6
CONTINUOUS
10
75.3492
20
-68.3443
11
75.479
21
-68.305
0
LINE
8
BLACK
6
CONTINUOUS
10
75.479
20
-68.305
11
75.614
21
-68.2917
0
LINE
8
BLACK
6
CONTINUOUS
10
75.614
20
-68.2917
11
75.749
21
-68.305
0
LINE
8
BLACK
6
CONTINUOUS
10
80.849
20
-68.305
11
80.9788
21
-68.3443
0
LINE
8
BLACK
6
CONTINUOUS
10
80.9788
20
-68.3443
11
81.0281
21
-68.3707
0
LINE
8
BLACK
6
CONTINUOUS
10
81.0281
20
-68.3707
11
81.0984
21
-68.4083
0
LINE
8
BLACK
6
CONTINUOUS
10
81.0984
20
-68.4083
11
81.2032
21
-68.4943
0
LINE
8
BLACK
6
CONTINUOUS
10
81.2032
20
-68.4943
11
81.2892
21
-68.5991
0
LINE
8
BLACK
6
CONTINUOUS
10
81.2892
20
-68.5991
11
81.3268
21
-68.6694
0
LINE
8
BLACK
6
CONTINUOUS
10
81.3268
20
-68.6694
11
81.3532
21
-68.7187
0
LINE
8
BLACK
6
CONTINUOUS
10
81.3532
20
-68.7187
11
81.3925
21
-68.8485
0
LINE
8
BLACK
6
CONTINUOUS
10
81.3925
20
-68.8485
11
81.4025
21
-68.9497
0
LINE
8
BLACK
6
CONTINUOUS
10
81.4025
20
-68.9497
11
81.4025
21
-70.2423
0
LINE
8
BLACK
6
CONTINUOUS
10
81.4025
20
-70.2423
11
81.3925
21
-70.3435
0
LINE
8
BLACK
6
CONTINUOUS
10
81.3925
20
-70.3435
11
81.3532
21
-70.4733
0
LINE
8
BLACK
6
CONTINUOUS
10
81.3532
20
-70.4733
11
81.3426
21
-70.493
0
LINE
8
BLACK
6
CONTINUOUS
10
81.3426
20
-70.493
11
81.2892
21
-70.5929
0
LINE
8
BLACK
6
CONTINUOUS
10
81.2892
20
-70.5929
11
81.2032
21
-70.6977
0
LINE
8
BLACK
6
CONTINUOUS
10
81.2032
20
-70.6977
11
81.0984
21
-70.7837
0
LINE
8
BLACK
6
CONTINUOUS
10
81.0984
20
-70.7837
11
81.0281
21
-70.8213
0
LINE
8
BLACK
6
CONTINUOUS
10
81.0281
20
-70.8213
11
80.9788
21
-70.8477
0
LINE
8
BLACK
6
CONTINUOUS
10
80.9788
20
-70.8477
11
80.849
21
-70.887
0
LINE
8
BLACK
6
CONTINUOUS
10
80.849
20
-70.887
11
80.714
21
-70.9003
0
LINE
8
BLACK
6
CONTINUOUS
10
80.714
20
-70.9003
11
80.579
21
-70.887
0
LINE
8
BLACK
6
CONTINUOUS
10
80.579
20
-70.887
11
80.4492
21
-70.8477
0
LINE
8
BLACK
6
CONTINUOUS
10
80.4492
20
-70.8477
11
80.3999
21
-70.8213
0
LINE
8
BLACK
6
CONTINUOUS
10
80.3999
20
-70.8213
11
80.3296
21
-70.7837
0
LINE
8
BLACK
6
CONTINUOUS
10
80.3296
20
-70.7837
11
80.2248
21
-70.6977
0
LINE
8
BLACK
6
CONTINUOUS
10
80.2248
20
-70.6977
11
80.1388
21
-70.5929
0
LINE
8
BLACK
6
CONTINUOUS
10
80.1388
20
-70.5929
11
80.0854
21
-70.493
0
LINE
8
BLACK
6
CONTINUOUS
10
80.0854
20
-70.493
11
80.0748
21
-70.4733
0
LINE
8
BLACK
6
CONTINUOUS
10
80.0748
20
-70.4733
11
80.0355
21
-70.3435
0
LINE
8
BLACK
6
CONTINUOUS
10
80.0355
20
-70.3435
11
80.0255
21
-70.2423
0
LINE
8
BLACK
6
CONTINUOUS
10
80.0255
20
-70.2423
11
80.0255
21
-68.9497
0
LINE
8
BLACK
6
CONTINUOUS
10
80.0255
20
-68.9497
11
80.0355
21
-68.8485
0
LINE
8
BLACK
6
CONTINUOUS
10
80.0355
20
-68.8485
11
80.0748
21
-68.7187
0
LINE
8
BLACK
6
CONTINUOUS
10
80.0748
20
-68.7187
11
80.1388
21
-68.5991
0
LINE
8
BLACK
6
CONTINUOUS
10
80.1388
20
-68.5991
11
80.1535
21
-68.5812
0
LINE
8
BLACK
6
CONTINUOUS
10
80.1535
20
-68.5812
11
80.2248
21
-68.4943
0
LINE
8
BLACK
6
CONTINUOUS
10
80.2248
20
-68.4943
11
80.3296
21
-68.4083
0
LINE
8
BLACK
6
CONTINUOUS
10
80.3296
20
-68.4083
11
80.3999
21
-68.3707
0
LINE
8
BLACK
6
CONTINUOUS
10
80.3999
20
-68.3707
11
80.4492
21
-68.3443
0
LINE
8
BLACK
6
CONTINUOUS
10
80.4492
20
-68.3443
11
80.579
21
-68.305
0
LINE
8
BLACK
6
CONTINUOUS
10
80.579
20
-68.305
11
80.714
21
-68.2917
0
LINE
8
BLACK
6
CONTINUOUS
10
80.714
20
-68.2917
11
80.849
21
-68.305
0
LINE
8
BLACK
6
CONTINUOUS
10
100.578
20
-68.2697
11
100.733
21
-68.3339
0
LINE
8
BLACK
6
CONTINUOUS
10
100.733
20
-68.3339
11
100.872
21
-68.427
0
LINE
8
BLACK
6
CONTINUOUS
10
100.872
20
-68.427
11
100.991
21
-68.5455
0
LINE
8
BLACK
6
CONTINUOUS
10
100.991
20
-68.5455
11
101.084
21
-68.6849
0
LINE
8
BLACK
6
CONTINUOUS
10
101.084
20
-68.6849
11
101.148
21
-68.8398
0
LINE
8
BLACK
6
CONTINUOUS
10
101.148
20
-68.8398
11
101.181
21
-69.0042
0
LINE
8
BLACK
6
CONTINUOUS
10
101.181
20
-69.0042
11
101.181
21
-69.1718
0
LINE
8
BLACK
6
CONTINUOUS
10
101.181
20
-69.1718
11
101.148
21
-69.3362
0
LINE
8
BLACK
6
CONTINUOUS
10
101.148
20
-69.3362
11
101.084
21
-69.4911
0
LINE
8
BLACK
6
CONTINUOUS
10
101.084
20
-69.4911
11
100.991
21
-69.6305
0
LINE
8
BLACK
6
CONTINUOUS
10
100.991
20
-69.6305
11
100.872
21
-69.749
0
LINE
8
BLACK
6
CONTINUOUS
10
100.872
20
-69.749
11
100.733
21
-69.8421
0
LINE
8
BLACK
6
CONTINUOUS
10
100.733
20
-69.8421
11
100.578
21
-69.9063
0
LINE
8
BLACK
6
CONTINUOUS
10
100.578
20
-69.9063
11
100.414
21
-69.939
0
LINE
8
BLACK
6
CONTINUOUS
10
100.414
20
-69.939
11
100.246
21
-69.939
0
LINE
8
BLACK
6
CONTINUOUS
10
100.246
20
-69.939
11
100.082
21
-69.9063
0
LINE
8
BLACK
6
CONTINUOUS
10
100.082
20
-69.9063
11
99.9269
21
-69.8421
0
LINE
8
BLACK
6
CONTINUOUS
10
99.9269
20
-69.8421
11
99.7875
21
-69.749
0
LINE
8
BLACK
6
CONTINUOUS
10
99.7875
20
-69.749
11
99.669
21
-69.6305
0
LINE
8
BLACK
6
CONTINUOUS
10
99.669
20
-69.6305
11
99.5759
21
-69.4911
0
LINE
8
BLACK
6
CONTINUOUS
10
99.5759
20
-69.4911
11
99.5117
21
-69.3362
0
LINE
8
BLACK
6
CONTINUOUS
10
99.5117
20
-69.3362
11
99.479
21
-69.1718
0
LINE
8
BLACK
6
CONTINUOUS
10
99.479
20
-69.1718
11
99.479
21
-69.0042
0
LINE
8
BLACK
6
CONTINUOUS
10
99.479
20
-69.0042
11
99.5117
21
-68.8398
0
LINE
8
BLACK
6
CONTINUOUS
10
99.5117
20
-68.8398
11
99.5759
21
-68.6849
0
LINE
8
BLACK
6
CONTINUOUS
10
99.5759
20
-68.6849
11
99.669
21
-68.5455
0
LINE
8
BLACK
6
CONTINUOUS
10
99.669
20
-68.5455
11
99.7875
21
-68.427
0
LINE
8
BLACK
6
CONTINUOUS
10
99.7875
20
-68.427
11
99.9269
21
-68.3339
0
LINE
8
BLACK
6
CONTINUOUS
10
99.9269
20
-68.3339
11
100.082
21
-68.2697
0
LINE
8
BLACK
6
CONTINUOUS
10
100.082
20
-68.2697
11
100.246
21
-68.237
0
LINE
8
BLACK
6
CONTINUOUS
10
100.246
20
-68.237
11
100.414
21
-68.237
0
LINE
8
BLACK
6
CONTINUOUS
10
100.414
20
-68.237
11
100.578
21
-68.2697
0
LINE
8
BLACK
6
CONTINUOUS
10
103.238
20
-68.1119
11
103.387
21
-68.1416
0
LINE
8
BLACK
6
CONTINUOUS
10
103.387
20
-68.1416
11
103.551
21
-68.2095
0
LINE
8
BLACK
6
CONTINUOUS
10
103.551
20
-68.2095
11
103.698
21
-68.3081
0
LINE
8
BLACK
6
CONTINUOUS
10
103.698
20
-68.3081
11
103.824
21
-68.4336
0
LINE
8
BLACK
6
CONTINUOUS
10
103.824
20
-68.4336
11
103.922
21
-68.5812
0
LINE
8
BLACK
6
CONTINUOUS
10
103.922
20
-68.5812
11
103.99
21
-68.7452
0
LINE
8
BLACK
6
CONTINUOUS
10
103.99
20
-68.7452
11
104.025
21
-68.9193
0
LINE
8
BLACK
6
CONTINUOUS
10
104.025
20
-68.9193
11
104.025
21
-69.0967
0
LINE
8
BLACK
6
CONTINUOUS
10
104.025
20
-69.0967
11
103.99
21
-69.2708
0
LINE
8
BLACK
6
CONTINUOUS
10
103.99
20
-69.2708
11
103.922
21
-69.4348
0
LINE
8
BLACK
6
CONTINUOUS
10
103.922
20
-69.4348
11
103.824
21
-69.5824
0
LINE
8
BLACK
6
CONTINUOUS
10
103.824
20
-69.5824
11
103.698
21
-69.7079
0
LINE
8
BLACK
6
CONTINUOUS
10
103.698
20
-69.7079
11
103.551
21
-69.8065
0
LINE
8
BLACK
6
CONTINUOUS
10
103.551
20
-69.8065
11
103.387
21
-69.8744
0
LINE
8
BLACK
6
CONTINUOUS
10
103.387
20
-69.8744
11
103.238
21
-69.9041
0
LINE
8
BLACK
6
CONTINUOUS
10
103.238
20
-69.9041
11
103.213
21
-69.909
0
LINE
8
BLACK
6
CONTINUOUS
10
103.213
20
-69.909
11
103.035
21
-69.909
0
LINE
8
BLACK
6
CONTINUOUS
10
103.035
20
-69.909
11
103.01
21
-69.9041
0
LINE
8
BLACK
6
CONTINUOUS
10
103.01
20
-69.9041
11
102.861
21
-69.8744
0
LINE
8
BLACK
6
CONTINUOUS
10
102.861
20
-69.8744
11
102.697
21
-69.8065
0
LINE
8
BLACK
6
CONTINUOUS
10
102.697
20
-69.8065
11
102.55
21
-69.7079
0
LINE
8
BLACK
6
CONTINUOUS
10
102.55
20
-69.7079
11
102.424
21
-69.5824
0
LINE
8
BLACK
6
CONTINUOUS
10
102.424
20
-69.5824
11
102.326
21
-69.4348
0
LINE
8
BLACK
6
CONTINUOUS
10
102.326
20
-69.4348
11
102.258
21
-69.2708
0
LINE
8
BLACK
6
CONTINUOUS
10
102.258
20
-69.2708
11
102.223
21
-69.0967
0
LINE
8
BLACK
6
CONTINUOUS
10
102.223
20
-69.0967
11
102.223
21
-68.9193
0
LINE
8
BLACK
6
CONTINUOUS
10
102.223
20
-68.9193
11
102.258
21
-68.7452
0
LINE
8
BLACK
6
CONTINUOUS
10
102.258
20
-68.7452
11
102.326
21
-68.5812
0
LINE
8
BLACK
6
CONTINUOUS
10
102.326
20
-68.5812
11
102.424
21
-68.4336
0
LINE
8
BLACK
6
CONTINUOUS
10
102.424
20
-68.4336
11
102.55
21
-68.3081
0
LINE
8
BLACK
6
CONTINUOUS
10
102.55
20
-68.3081
11
102.697
21
-68.2095
0
LINE
8
BLACK
6
CONTINUOUS
10
102.697
20
-68.2095
11
102.861
21
-68.1416
0
LINE
8
BLACK
6
CONTINUOUS
10
102.861
20
-68.1416
11
103.01
21
-68.1119
0
LINE
8
BLACK
6
CONTINUOUS
10
103.01
20
-68.1119
11
103.035
21
-68.107
0
LINE
8
BLACK
6
CONTINUOUS
10
103.035
20
-68.107
11
103.213
21
-68.107
0
LINE
8
BLACK
6
CONTINUOUS
10
103.213
20
-68.107
11
103.238
21
-68.1119
0
LINE
8
BLACK
6
CONTINUOUS
10
92.8209
20
-65.5991
11
93.0486
21
-65.6934
0
LINE
8
BLACK
6
CONTINUOUS
10
93.0486
20
-65.6934
11
93.2535
21
-65.8303
0
LINE
8
BLACK
6
CONTINUOUS
10
93.2535
20
-65.8303
11
93.4277
21
-66.0045
0
LINE
8
BLACK
6
CONTINUOUS
10
93.4277
20
-66.0045
11
93.5215
21
-66.1449
0
LINE
8
BLACK
6
CONTINUOUS
10
93.5215
20
-66.1449
11
93.5646
21
-66.2094
0
LINE
8
BLACK
6
CONTINUOUS
10
93.5646
20
-66.2094
11
93.6589
21
-66.4371
0
LINE
8
BLACK
6
CONTINUOUS
10
93.6589
20
-66.4371
11
93.707
21
-66.6788
0
LINE
8
BLACK
6
CONTINUOUS
10
93.707
20
-66.6788
11
93.707
21
-66.9252
0
LINE
8
BLACK
6
CONTINUOUS
10
93.707
20
-66.9252
11
93.6589
21
-67.1669
0
LINE
8
BLACK
6
CONTINUOUS
10
93.6589
20
-67.1669
11
93.5763
21
-67.3663
0
LINE
8
BLACK
6
CONTINUOUS
10
93.5763
20
-67.3663
11
93.5646
21
-67.3946
0
LINE
8
BLACK
6
CONTINUOUS
10
93.5646
20
-67.3946
11
93.4277
21
-67.5995
0
LINE
8
BLACK
6
CONTINUOUS
10
93.4277
20
-67.5995
11
93.2535
21
-67.7737
0
LINE
8
BLACK
6
CONTINUOUS
10
93.2535
20
-67.7737
11
93.0486
21
-67.9106
0
LINE
8
BLACK
6
CONTINUOUS
10
93.0486
20
-67.9106
11
93.0486
21
-67.9106
0
LINE
8
BLACK
6
CONTINUOUS
10
93.0486
20
-67.9106
11
93.0486
21
-67.9106
0
LINE
8
BLACK
6
CONTINUOUS
10
93.0486
20
-67.9106
11
92.8209
21
-68.0049
0
LINE
8
BLACK
6
CONTINUOUS
10
92.8209
20
-68.0049
11
92.5792
21
-68.053
0
LINE
8
BLACK
6
CONTINUOUS
10
92.5792
20
-68.053
11
92.3328
21
-68.053
0
LINE
8
BLACK
6
CONTINUOUS
10
92.3328
20
-68.053
11
92.0911
21
-68.0049
0
LINE
8
BLACK
6
CONTINUOUS
10
92.0911
20
-68.0049
11
91.8634
21
-67.9106
0
LINE
8
BLACK
6
CONTINUOUS
10
91.8634
20
-67.9106
11
91.8634
21
-67.9106
0
LINE
8
BLACK
6
CONTINUOUS
10
91.8634
20
-67.9106
11
91.8634
21
-67.9106
0
LINE
8
BLACK
6
CONTINUOUS
10
91.8634
20
-67.9106
11
91.6585
21
-67.7737
0
LINE
8
BLACK
6
CONTINUOUS
10
91.6585
20
-67.7737
11
91.4843
21
-67.5995
0
LINE
8
BLACK
6
CONTINUOUS
10
91.4843
20
-67.5995
11
91.3474
21
-67.3946
0
LINE
8
BLACK
6
CONTINUOUS
10
91.3474
20
-67.3946
11
91.3357
21
-67.3663
0
LINE
8
BLACK
6
CONTINUOUS
10
91.3357
20
-67.3663
11
91.2531
21
-67.1669
0
LINE
8
BLACK
6
CONTINUOUS
10
91.2531
20
-67.1669
11
91.205
21
-66.9252
0
LINE
8
BLACK
6
CONTINUOUS
10
91.205
20
-66.9252
11
91.205
21
-66.6788
0
LINE
8
BLACK
6
CONTINUOUS
10
91.205
20
-66.6788
11
91.2531
21
-66.4371
0
LINE
8
BLACK
6
CONTINUOUS
10
91.2531
20
-66.4371
11
91.3474
21
-66.2094
0
LINE
8
BLACK
6
CONTINUOUS
10
91.3474
20
-66.2094
11
91.3905
21
-66.1449
0
LINE
8
BLACK
6
CONTINUOUS
10
91.3905
20
-66.1449
11
91.4843
21
-66.0045
0
LINE
8
BLACK
6
CONTINUOUS
10
91.4843
20
-66.0045
11
91.6585
21
-65.8303
0
LINE
8
BLACK
6
CONTINUOUS
10
91.6585
20
-65.8303
11
91.8634
21
-65.6934
0
LINE
8
BLACK
6
CONTINUOUS
10
91.8634
20
-65.6934
11
92.0911
21
-65.5991
0
LINE
8
BLACK
6
CONTINUOUS
10
92.0911
20
-65.5991
11
92.3328
21
-65.551
0
LINE
8
BLACK
6
CONTINUOUS
10
92.3328
20
-65.551
11
92.5792
21
-65.551
0
LINE
8
BLACK
6
CONTINUOUS
10
92.5792
20
-65.551
11
92.8209
21
-65.5991
0
LINE
8
BLACK
6
CONTINUOUS
10
100.578
20
-65.7297
11
100.733
21
-65.7939
0
LINE
8
BLACK
6
CONTINUOUS
10
100.733
20
-65.7939
11
100.872
21
-65.887
0
LINE
8
BLACK
6
CONTINUOUS
10
100.872
20
-65.887
11
100.991
21
-66.0055
0
LINE
8
BLACK
6
CONTINUOUS
10
100.991
20
-66.0055
11
101.084
21
-66.1449
0
LINE
8
BLACK
6
CONTINUOUS
10
101.084
20
-66.1449
11
101.148
21
-66.2998
0
LINE
8
BLACK
6
CONTINUOUS
10
101.148
20
-66.2998
11
101.181
21
-66.4642
0
LINE
8
BLACK
6
CONTINUOUS
10
101.181
20
-66.4642
11
101.181
21
-66.6318
0
LINE
8
BLACK
6
CONTINUOUS
10
101.181
20
-66.6318
11
101.148
21
-66.7962
0
LINE
8
BLACK
6
CONTINUOUS
10
101.148
20
-66.7962
11
101.084
21
-66.9511
0
LINE
8
BLACK
6
CONTINUOUS
10
101.084
20
-66.9511
11
100.991
21
-67.0905
0
LINE
8
BLACK
6
CONTINUOUS
10
100.991
20
-67.0905
11
100.872
21
-67.209
0
LINE
8
BLACK
6
CONTINUOUS
10
100.872
20
-67.209
11
100.733
21
-67.3021
0
LINE
8
BLACK
6
CONTINUOUS
10
100.733
20
-67.3021
11
100.578
21
-67.3663
0
LINE
8
BLACK
6
CONTINUOUS
10
100.578
20
-67.3663
11
100.414
21
-67.399
0
LINE
8
BLACK
6
CONTINUOUS
10
100.414
20
-67.399
11
100.246
21
-67.399
0
LINE
8
BLACK
6
CONTINUOUS
10
100.246
20
-67.399
11
100.082
21
-67.3663
0
LINE
8
BLACK
6
CONTINUOUS
10
100.082
20
-67.3663
11
99.9269
21
-67.3021
0
LINE
8
BLACK
6
CONTINUOUS
10
99.9269
20
-67.3021
11
99.7875
21
-67.209
0
LINE
8
BLACK
6
CONTINUOUS
10
99.7875
20
-67.209
11
99.669
21
-67.0905
0
LINE
8
BLACK
6
CONTINUOUS
10
99.669
20
-67.0905
11
99.5759
21
-66.9511
0
LINE
8
BLACK
6
CONTINUOUS
10
99.5759
20
-66.9511
11
99.5117
21
-66.7962
0
LINE
8
BLACK
6
CONTINUOUS
10
99.5117
20
-66.7962
11
99.479
21
-66.6318
0
LINE
8
BLACK
6
CONTINUOUS
10
99.479
20
-66.6318
11
99.479
21
-66.4642
0
LINE
8
BLACK
6
CONTINUOUS
10
99.479
20
-66.4642
11
99.5117
21
-66.2998
0
LINE
8
BLACK
6
CONTINUOUS
10
99.5117
20
-66.2998
11
99.5759
21
-66.1449
0
LINE
8
BLACK
6
CONTINUOUS
10
99.5759
20
-66.1449
11
99.669
21
-66.0055
0
LINE
8
BLACK
6
CONTINUOUS
10
99.669
20
-66.0055
11
99.7875
21
-65.887
0
LINE
8
BLACK
6
CONTINUOUS
10
99.7875
20
-65.887
11
99.9269
21
-65.7939
0
LINE
8
BLACK
6
CONTINUOUS
10
99.9269
20
-65.7939
11
100.082
21
-65.7297
0
LINE
8
BLACK
6
CONTINUOUS
10
100.082
20
-65.7297
11
100.246
21
-65.697
0
LINE
8
BLACK
6
CONTINUOUS
10
100.246
20
-65.697
11
100.414
21
-65.697
0
LINE
8
BLACK
6
CONTINUOUS
10
100.414
20
-65.697
11
100.578
21
-65.7297
0
LINE
8
BLACK
6
CONTINUOUS
10
80.2552
20
-62.7751
11
80.4911
21
-62.8466
0
LINE
8
BLACK
6
CONTINUOUS
10
80.4911
20
-62.8466
11
80.7084
21
-62.9628
0
LINE
8
BLACK
6
CONTINUOUS
10
80.7084
20
-62.9628
11
80.8989
21
-63.1191
0
LINE
8
BLACK
6
CONTINUOUS
10
80.8989
20
-63.1191
11
81.0552
21
-63.3096
0
LINE
8
BLACK
6
CONTINUOUS
10
81.0552
20
-63.3096
11
81.1714
21
-63.5269
0
LINE
8
BLACK
6
CONTINUOUS
10
81.1714
20
-63.5269
11
81.2429
21
-63.7628
0
LINE
8
BLACK
6
CONTINUOUS
10
81.2429
20
-63.7628
11
81.2671
21
-64.008
0
LINE
8
BLACK
6
CONTINUOUS
10
81.2671
20
-64.008
11
81.2429
21
-64.2532
0
LINE
8
BLACK
6
CONTINUOUS
10
81.2429
20
-64.2532
11
81.1714
21
-64.4891
0
LINE
8
BLACK
6
CONTINUOUS
10
81.1714
20
-64.4891
11
81.0552
21
-64.7064
0
LINE
8
BLACK
6
CONTINUOUS
10
81.0552
20
-64.7064
11
80.8989
21
-64.8969
0
LINE
8
BLACK
6
CONTINUOUS
10
80.8989
20
-64.8969
11
80.7084
21
-65.0532
0
LINE
8
BLACK
6
CONTINUOUS
10
80.7084
20
-65.0532
11
80.4911
21
-65.1694
0
LINE
8
BLACK
6
CONTINUOUS
10
80.4911
20
-65.1694
11
80.2552
21
-65.2409
0
LINE
8
BLACK
6
CONTINUOUS
10
80.2552
20
-65.2409
11
80.0715
21
-65.259
0
LINE
8
BLACK
6
CONTINUOUS
10
80.0715
20
-65.259
11
79.9485
21
-65.259
0
LINE
8
BLACK
6
CONTINUOUS
10
79.9485
20
-65.259
11
79.7648
21
-65.2409
0
LINE
8
BLACK
6
CONTINUOUS
10
79.7648
20
-65.2409
11
79.5289
21
-65.1694
0
LINE
8
BLACK
6
CONTINUOUS
10
79.5289
20
-65.1694
11
79.3116
21
-65.0532
0
LINE
8
BLACK
6
CONTINUOUS
10
79.3116
20
-65.0532
11
79.1211
21
-64.8969
0
LINE
8
BLACK
6
CONTINUOUS
10
79.1211
20
-64.8969
11
78.9648
21
-64.7064
0
LINE
8
BLACK
6
CONTINUOUS
10
78.9648
20
-64.7064
11
78.8486
21
-64.4891
0
LINE
8
BLACK
6
CONTINUOUS
10
78.8486
20
-64.4891
11
78.7771
21
-64.2532
0
LINE
8
BLACK
6
CONTINUOUS
10
78.7771
20
-64.2532
11
78.7529
21
-64.008
0
LINE
8
BLACK
6
CONTINUOUS
10
78.7529
20
-64.008
11
78.7771
21
-63.7628
0
LINE
8
BLACK
6
CONTINUOUS
10
78.7771
20
-63.7628
11
78.8486
21
-63.5269
0
LINE
8
BLACK
6
CONTINUOUS
10
78.8486
20
-63.5269
11
78.9648
21
-63.3096
0
LINE
8
BLACK
6
CONTINUOUS
10
78.9648
20
-63.3096
11
79.1211
21
-63.1191
0
LINE
8
BLACK
6
CONTINUOUS
10
79.1211
20
-63.1191
11
79.3116
21
-62.9628
0
LINE
8
BLACK
6
CONTINUOUS
10
79.3116
20
-62.9628
11
79.5289
21
-62.8466
0
LINE
8
BLACK
6
CONTINUOUS
10
79.5289
20
-62.8466
11
79.7648
21
-62.7751
0
LINE
8
BLACK
6
CONTINUOUS
10
79.7648
20
-62.7751
11
79.9485
21
-62.757
0
LINE
8
BLACK
6
CONTINUOUS
10
79.9485
20
-62.757
11
80.0715
21
-62.757
0
LINE
8
BLACK
6
CONTINUOUS
10
80.0715
20
-62.757
11
80.2552
21
-62.7751
0
LINE
8
BLACK
6
CONTINUOUS
10
92.8209
20
-62.5511
11
93.0486
21
-62.6454
0
LINE
8
BLACK
6
CONTINUOUS
10
93.0486
20
-62.6454
11
93.2535
21
-62.7823
0
LINE
8
BLACK
6
CONTINUOUS
10
93.2535
20
-62.7823
11
93.4277
21
-62.9565
0
LINE
8
BLACK
6
CONTINUOUS
10
93.4277
20
-62.9565
11
93.5514
21
-63.1416
0
LINE
8
BLACK
6
CONTINUOUS
10
93.5514
20
-63.1416
11
93.5646
21
-63.1614
0
LINE
8
BLACK
6
CONTINUOUS
10
93.5646
20
-63.1614
11
93.6589
21
-63.3891
0
LINE
8
BLACK
6
CONTINUOUS
10
93.6589
20
-63.3891
11
93.707
21
-63.6308
0
LINE
8
BLACK
6
CONTINUOUS
10
93.707
20
-63.6308
11
93.707
21
-63.8772
0
LINE
8
BLACK
6
CONTINUOUS
10
93.707
20
-63.8772
11
93.6589
21
-64.1189
0
LINE
8
BLACK
6
CONTINUOUS
10
93.6589
20
-64.1189
11
93.6075
21
-64.243
0
LINE
8
BLACK
6
CONTINUOUS
10
93.6075
20
-64.243
11
93.5646
21
-64.3466
0
LINE
8
BLACK
6
CONTINUOUS
10
93.5646
20
-64.3466
11
93.4277
21
-64.5515
0
LINE
8
BLACK
6
CONTINUOUS
10
93.4277
20
-64.5515
11
93.2535
21
-64.7257
0
LINE
8
BLACK
6
CONTINUOUS
10
93.2535
20
-64.7257
11
93.0486
21
-64.8626
0
LINE
8
BLACK
6
CONTINUOUS
10
93.0486
20
-64.8626
11
93.0486
21
-64.8626
0
LINE
8
BLACK
6
CONTINUOUS
10
93.0486
20
-64.8626
11
93.0486
21
-64.8626
0
LINE
8
BLACK
6
CONTINUOUS
10
93.0486
20
-64.8626
11
92.8209
21
-64.9569
0
LINE
8
BLACK
6
CONTINUOUS
10
92.8209
20
-64.9569
11
92.5792
21
-65.005
0
LINE
8
BLACK
6
CONTINUOUS
10
92.5792
20
-65.005
11
92.3328
21
-65.005
0
LINE
8
BLACK
6
CONTINUOUS
10
92.3328
20
-65.005
11
92.0911
21
-64.9569
0
LINE
8
BLACK
6
CONTINUOUS
10
92.0911
20
-64.9569
11
91.8634
21
-64.8626
0
LINE
8
BLACK
6
CONTINUOUS
10
91.8634
20
-64.8626
11
91.8634
21
-64.8626
0
LINE
8
BLACK
6
CONTINUOUS
10
91.8634
20
-64.8626
11
91.8634
21
-64.8626
0
LINE
8
BLACK
6
CONTINUOUS
10
91.8634
20
-64.8626
11
91.6585
21
-64.7257
0
LINE
8
BLACK
6
CONTINUOUS
10
91.6585
20
-64.7257
11
91.4843
21
-64.5515
0
LINE
8
BLACK
6
CONTINUOUS
10
91.4843
20
-64.5515
11
91.3474
21
-64.3466
0
LINE
8
BLACK
6
CONTINUOUS
10
91.3474
20
-64.3466
11
91.3045
21
-64.243
0
LINE
8
BLACK
6
CONTINUOUS
10
91.3045
20
-64.243
11
91.2531
21
-64.1189
0
LINE
8
BLACK
6
CONTINUOUS
10
91.2531
20
-64.1189
11
91.205
21
-63.8772
0
LINE
8
BLACK
6
CONTINUOUS
10
91.205
20
-63.8772
11
91.205
21
-63.6308
0
LINE
8
BLACK
6
CONTINUOUS
10
91.205
20
-63.6308
11
91.2531
21
-63.3891
0
LINE
8
BLACK
6
CONTINUOUS
10
91.2531
20
-63.3891
11
91.3474
21
-63.1614
0
LINE
8
BLACK
6
CONTINUOUS
10
91.3474
20
-63.1614
11
91.3606
21
-63.1416
0
LINE
8
BLACK
6
CONTINUOUS
10
91.3606
20
-63.1416
11
91.4843
21
-62.9565
0
LINE
8
BLACK
6
CONTINUOUS
10
91.4843
20
-62.9565
11
91.6585
21
-62.7823
0
LINE
8
BLACK
6
CONTINUOUS
10
91.6585
20
-62.7823
11
91.8634
21
-62.6454
0
LINE
8
BLACK
6
CONTINUOUS
10
91.8634
20
-62.6454
11
92.0911
21
-62.5511
0
LINE
8
BLACK
6
CONTINUOUS
10
92.0911
20
-62.5511
11
92.3328
21
-62.503
0
LINE
8
BLACK
6
CONTINUOUS
10
92.3328
20
-62.503
11
92.5792
21
-62.503
0
LINE
8
BLACK
6
CONTINUOUS
10
92.5792
20
-62.503
11
92.8209
21
-62.5511
0
LINE
8
BLACK
6
CONTINUOUS
10
103.233
20
-63.111
11
103.387
21
-63.1416
0
LINE
8
BLACK
6
CONTINUOUS
10
103.387
20
-63.1416
11
103.551
21
-63.2095
0
LINE
8
BLACK
6
CONTINUOUS
10
103.551
20
-63.2095
11
103.698
21
-63.3081
0
LINE
8
BLACK
6
CONTINUOUS
10
103.698
20
-63.3081
11
103.824
21
-63.4336
0
LINE
8
BLACK
6
CONTINUOUS
10
103.824
20
-63.4336
11
103.922
21
-63.5812
0
LINE
8
BLACK
6
CONTINUOUS
10
103.922
20
-63.5812
11
103.99
21
-63.7452
0
LINE
8
BLACK
6
CONTINUOUS
10
103.99
20
-63.7452
11
104.025
21
-63.9193
0
LINE
8
BLACK
6
CONTINUOUS
10
104.025
20
-63.9193
11
104.025
21
-64.0967
0
LINE
8
BLACK
6
CONTINUOUS
10
104.025
20
-64.0967
11
103.99
21
-64.2708
0
LINE
8
BLACK
6
CONTINUOUS
10
103.99
20
-64.2708
11
103.922
21
-64.4348
0
LINE
8
BLACK
6
CONTINUOUS
10
103.922
20
-64.4348
11
103.824
21
-64.5824
0
LINE
8
BLACK
6
CONTINUOUS
10
103.824
20
-64.5824
11
103.698
21
-64.7079
0
LINE
8
BLACK
6
CONTINUOUS
10
103.698
20
-64.7079
11
103.551
21
-64.8065
0
LINE
8
BLACK
6
CONTINUOUS
10
103.551
20
-64.8065
11
103.387
21
-64.8744
0
LINE
8
BLACK
6
CONTINUOUS
10
103.387
20
-64.8744
11
103.238
21
-64.9041
0
LINE
8
BLACK
6
CONTINUOUS
10
103.238
20
-64.9041
11
103.213
21
-64.909
0
LINE
8
BLACK
6
CONTINUOUS
10
103.213
20
-64.909
11
103.035
21
-64.909
0
LINE
8
BLACK
6
CONTINUOUS
10
103.035
20
-64.909
11
103.01
21
-64.9041
0
LINE
8
BLACK
6
CONTINUOUS
10
103.01
20
-64.9041
11
102.861
21
-64.8744
0
LINE
8
BLACK
6
CONTINUOUS
10
102.861
20
-64.8744
11
102.697
21
-64.8065
0
LINE
8
BLACK
6
CONTINUOUS
10
102.697
20
-64.8065
11
102.55
21
-64.7079
0
LINE
8
BLACK
6
CONTINUOUS
10
102.55
20
-64.7079
11
102.424
21
-64.5824
0
LINE
8
BLACK
6
CONTINUOUS
10
102.424
20
-64.5824
11
102.326
21
-64.4348
0
LINE
8
BLACK
6
CONTINUOUS
10
102.326
20
-64.4348
11
102.258
21
-64.2708
0
LINE
8
BLACK
6
CONTINUOUS
10
102.258
20
-64.2708
11
102.223
21
-64.0967
0
LINE
8
BLACK
6
CONTINUOUS
10
102.223
20
-64.0967
11
102.223
21
-63.9193
0
LINE
8
BLACK
6
CONTINUOUS
10
102.223
20
-63.9193
11
102.258
21
-63.7452
0
LINE
8
BLACK
6
CONTINUOUS
10
102.258
20
-63.7452
11
102.326
21
-63.5812
0
LINE
8
BLACK
6
CONTINUOUS
10
102.326
20
-63.5812
11
102.424
21
-63.4336
0
LINE
8
BLACK
6
CONTINUOUS
10
102.424
20
-63.4336
11
102.55
21
-63.3081
0
LINE
8
BLACK
6
CONTINUOUS
10
102.55
20
-63.3081
11
102.697
21
-63.2095
0
LINE
8
BLACK
6
CONTINUOUS
10
102.697
20
-63.2095
11
102.861
21
-63.1416
0
LINE
8
BLACK
6
CONTINUOUS
10
102.861
20
-63.1416
11
103.015
21
-63.111
0
LINE
8
BLACK
6
CONTINUOUS
10
103.015
20
-63.111
11
103.035
21
-63.107
0
LINE
8
BLACK
6
CONTINUOUS
10
103.035
20
-63.107
11
103.213
21
-63.107
0
LINE
8
BLACK
6
CONTINUOUS
10
103.213
20
-63.107
11
103.233
21
-63.111
0
LINE
8
BLACK
6
CONTINUOUS
10
100.578
20
-63.2297
11
100.733
21
-63.2939
0
LINE
8
BLACK
6
CONTINUOUS
10
100.733
20
-63.2939
11
100.872
21
-63.387
0
LINE
8
BLACK
6
CONTINUOUS
10
100.872
20
-63.387
11
100.991
21
-63.5055
0
LINE
8
BLACK
6
CONTINUOUS
10
100.991
20
-63.5055
11
101.084
21
-63.6449
0
LINE
8
BLACK
6
CONTINUOUS
10
101.084
20
-63.6449
11
101.148
21
-63.7998
0
LINE
8
BLACK
6
CONTINUOUS
10
101.148
20
-63.7998
11
101.181
21
-63.9642
0
LINE
8
BLACK
6
CONTINUOUS
10
101.181
20
-63.9642
11
101.181
21
-64.1318
0
LINE
8
BLACK
6
CONTINUOUS
10
101.181
20
-64.1318
11
101.148
21
-64.2962
0
LINE
8
BLACK
6
CONTINUOUS
10
101.148
20
-64.2962
11
101.084
21
-64.4511
0
LINE
8
BLACK
6
CONTINUOUS
10
101.084
20
-64.4511
11
100.991
21
-64.5905
0
LINE
8
BLACK
6
CONTINUOUS
10
100.991
20
-64.5905
11
100.872
21
-64.709
0
LINE
8
BLACK
6
CONTINUOUS
10
100.872
20
-64.709
11
100.733
21
-64.8021
0
LINE
8
BLACK
6
CONTINUOUS
10
100.733
20
-64.8021
11
100.578
21
-64.8663
0
LINE
8
BLACK
6
CONTINUOUS
10
100.578
20
-64.8663
11
100.414
21
-64.899
0
LINE
8
BLACK
6
CONTINUOUS
10
100.414
20
-64.899
11
100.246
21
-64.899
0
LINE
8
BLACK
6
CONTINUOUS
10
100.246
20
-64.899
11
100.082
21
-64.8663
0
LINE
8
BLACK
6
CONTINUOUS
10
100.082
20
-64.8663
11
99.9269
21
-64.8021
0
LINE
8
BLACK
6
CONTINUOUS
10
99.9269
20
-64.8021
11
99.7875
21
-64.709
0
LINE
8
BLACK
6
CONTINUOUS
10
99.7875
20
-64.709
11
99.669
21
-64.5905
0
LINE
8
BLACK
6
CONTINUOUS
10
99.669
20
-64.5905
11
99.5759
21
-64.4511
0
LINE
8
BLACK
6
CONTINUOUS
10
99.5759
20
-64.4511
11
99.5117
21
-64.2962
0
LINE
8
BLACK
6
CONTINUOUS
10
99.5117
20
-64.2962
11
99.479
21
-64.1318
0
LINE
8
BLACK
6
CONTINUOUS
10
99.479
20
-64.1318
11
99.479
21
-63.9642
0
LINE
8
BLACK
6
CONTINUOUS
10
99.479
20
-63.9642
11
99.5117
21
-63.7998
0
LINE
8
BLACK
6
CONTINUOUS
10
99.5117
20
-63.7998
11
99.5759
21
-63.6449
0
LINE
8
BLACK
6
CONTINUOUS
10
99.5759
20
-63.6449
11
99.669
21
-63.5055
0
LINE
8
BLACK
6
CONTINUOUS
10
99.669
20
-63.5055
11
99.7875
21
-63.387
0
LINE
8
BLACK
6
CONTINUOUS
10
99.7875
20
-63.387
11
99.9269
21
-63.2939
0
LINE
8
BLACK
6
CONTINUOUS
10
99.9269
20
-63.2939
11
100.082
21
-63.2297
0
LINE
8
BLACK
6
CONTINUOUS
10
100.082
20
-63.2297
11
100.246
21
-63.197
0
LINE
8
BLACK
6
CONTINUOUS
10
100.246
20
-63.197
11
100.414
21
-63.197
0
LINE
8
BLACK
6
CONTINUOUS
10
100.414
20
-63.197
11
100.578
21
-63.2297
0
LINE
8
BLACK
6
CONTINUOUS
10
74.9212
20
-61.7591
11
75.1571
21
-61.8306
0
LINE
8
BLACK
6
CONTINUOUS
10
75.1571
20
-61.8306
11
75.3744
21
-61.9468
0
LINE
8
BLACK
6
CONTINUOUS
10
75.3744
20
-61.9468
11
75.5649
21
-62.1031
0
LINE
8
BLACK
6
CONTINUOUS
10
75.5649
20
-62.1031
11
75.7212
21
-62.2936
0
LINE
8
BLACK
6
CONTINUOUS
10
75.7212
20
-62.2936
11
75.8374
21
-62.5109
0
LINE
8
BLACK
6
CONTINUOUS
10
75.8374
20
-62.5109
11
75.9089
21
-62.7468
0
LINE
8
BLACK
6
CONTINUOUS
10
75.9089
20
-62.7468
11
75.9331
21
-62.992
0
LINE
8
BLACK
6
CONTINUOUS
10
75.9331
20
-62.992
11
75.9089
21
-63.2372
0
LINE
8
BLACK
6
CONTINUOUS
10
75.9089
20
-63.2372
11
75.8374
21
-63.4731
0
LINE
8
BLACK
6
CONTINUOUS
10
75.8374
20
-63.4731
11
75.7212
21
-63.6904
0
LINE
8
BLACK
6
CONTINUOUS
10
75.7212
20
-63.6904
11
75.5649
21
-63.8809
0
LINE
8
BLACK
6
CONTINUOUS
10
75.5649
20
-63.8809
11
75.3744
21
-64.0372
0
LINE
8
BLACK
6
CONTINUOUS
10
75.3744
20
-64.0372
11
75.1571
21
-64.1534
0
LINE
8
BLACK
6
CONTINUOUS
10
75.1571
20
-64.1534
11
74.9212
21
-64.2249
0
LINE
8
BLACK
6
CONTINUOUS
10
74.9212
20
-64.2249
11
74.7375
21
-64.243
0
LINE
8
BLACK
6
CONTINUOUS
10
74.7375
20
-64.243
11
74.6145
21
-64.243
0
LINE
8
BLACK
6
CONTINUOUS
10
74.6145
20
-64.243
11
74.4308
21
-64.2249
0
LINE
8
BLACK
6
CONTINUOUS
10
74.4308
20
-64.2249
11
74.1949
21
-64.1534
0
LINE
8
BLACK
6
CONTINUOUS
10
74.1949
20
-64.1534
11
73.9776
21
-64.0372
0
LINE
8
BLACK
6
CONTINUOUS
10
73.9776
20
-64.0372
11
73.7871
21
-63.8809
0
LINE
8
BLACK
6
CONTINUOUS
10
73.7871
20
-63.8809
11
73.6308
21
-63.6904
0
LINE
8
BLACK
6
CONTINUOUS
10
73.6308
20
-63.6904
11
73.5146
21
-63.4731
0
LINE
8
BLACK
6
CONTINUOUS
10
73.5146
20
-63.4731
11
73.4431
21
-63.2372
0
LINE
8
BLACK
6
CONTINUOUS
10
73.4431
20
-63.2372
11
73.4189
21
-62.992
0
LINE
8
BLACK
6
CONTINUOUS
10
73.4189
20
-62.992
11
73.4431
21
-62.7468
0
LINE
8
BLACK
6
CONTINUOUS
10
73.4431
20
-62.7468
11
73.5146
21
-62.5109
0
LINE
8
BLACK
6
CONTINUOUS
10
73.5146
20
-62.5109
11
73.6308
21
-62.2936
0
LINE
8
BLACK
6
CONTINUOUS
10
73.6308
20
-62.2936
11
73.7871
21
-62.1031
0
LINE
8
BLACK
6
CONTINUOUS
10
73.7871
20
-62.1031
11
73.9776
21
-61.9468
0
LINE
8
BLACK
6
CONTINUOUS
10
73.9776
20
-61.9468
11
74.1949
21
-61.8306
0
LINE
8
BLACK
6
CONTINUOUS
10
74.1949
20
-61.8306
11
74.4308
21
-61.7591
0
LINE
8
BLACK
6
CONTINUOUS
10
74.4308
20
-61.7591
11
74.6145
21
-61.741
0
LINE
8
BLACK
6
CONTINUOUS
10
74.6145
20
-61.741
11
74.7375
21
-61.741
0
LINE
8
BLACK
6
CONTINUOUS
10
74.7375
20
-61.741
11
74.9212
21
-61.7591
0
LINE
8
BLACK
6
CONTINUOUS
10
98.433
20
-63.889
11
96.131
21
-63.889
0
LINE
8
BLACK
6
CONTINUOUS
10
96.131
20
-63.889
11
96.131
21
-48.887
0
LINE
8
BLACK
6
CONTINUOUS
10
96.131
20
-48.887
11
98.433
21
-48.887
0
LINE
8
BLACK
6
CONTINUOUS
10
98.433
20
-48.887
11
98.433
21
-63.889
0
LINE
8
BLACK
6
CONTINUOUS
10
85.6214
20
-61.0615
11
85.7945
21
-61.1332
0
LINE
8
BLACK
6
CONTINUOUS
10
85.7945
20
-61.1332
11
85.7945
21
-61.1332
0
LINE
8
BLACK
6
CONTINUOUS
10
85.7945
20
-61.1332
11
85.9502
21
-61.2373
0
LINE
8
BLACK
6
CONTINUOUS
10
85.9502
20
-61.2373
11
86.0827
21
-61.3698
0
LINE
8
BLACK
6
CONTINUOUS
10
86.0827
20
-61.3698
11
86.0827
21
-61.3698
0
LINE
8
BLACK
6
CONTINUOUS
10
86.0827
20
-61.3698
11
86.1868
21
-61.5255
0
LINE
8
BLACK
6
CONTINUOUS
10
86.1868
20
-61.5255
11
86.2585
21
-61.6986
0
LINE
8
BLACK
6
CONTINUOUS
10
86.2585
20
-61.6986
11
86.295
21
-61.8823
0
LINE
8
BLACK
6
CONTINUOUS
10
86.295
20
-61.8823
11
86.295
21
-62.0697
0
LINE
8
BLACK
6
CONTINUOUS
10
86.295
20
-62.0697
11
86.2585
21
-62.2534
0
LINE
8
BLACK
6
CONTINUOUS
10
86.2585
20
-62.2534
11
86.1868
21
-62.4265
0
LINE
8
BLACK
6
CONTINUOUS
10
86.1868
20
-62.4265
11
86.1868
21
-62.4265
0
LINE
8
BLACK
6
CONTINUOUS
10
86.1868
20
-62.4265
11
86.0827
21
-62.5822
0
LINE
8
BLACK
6
CONTINUOUS
10
86.0827
20
-62.5822
11
85.9502
21
-62.7147
0
LINE
8
BLACK
6
CONTINUOUS
10
85.9502
20
-62.7147
11
85.9022
21
-62.7468
0
LINE
8
BLACK
6
CONTINUOUS
10
85.9022
20
-62.7468
11
85.7945
21
-62.8188
0
LINE
8
BLACK
6
CONTINUOUS
10
85.7945
20
-62.8188
11
85.6214
21
-62.8905
0
LINE
8
BLACK
6
CONTINUOUS
10
85.6214
20
-62.8905
11
85.4377
21
-62.927
0
LINE
8
BLACK
6
CONTINUOUS
10
85.4377
20
-62.927
11
85.2503
21
-62.927
0
LINE
8
BLACK
6
CONTINUOUS
10
85.2503
20
-62.927
11
85.0666
21
-62.8905
0
LINE
8
BLACK
6
CONTINUOUS
10
85.0666
20
-62.8905
11
84.8935
21
-62.8188
0
LINE
8
BLACK
6
CONTINUOUS
10
84.8935
20
-62.8188
11
84.7858
21
-62.7468
0
LINE
8
BLACK
6
CONTINUOUS
10
84.7858
20
-62.7468
11
84.7378
21
-62.7147
0
LINE
8
BLACK
6
CONTINUOUS
10
84.7378
20
-62.7147
11
84.6053
21
-62.5822
0
LINE
8
BLACK
6
CONTINUOUS
10
84.6053
20
-62.5822
11
84.5012
21
-62.4265
0
LINE
8
BLACK
6
CONTINUOUS
10
84.5012
20
-62.4265
11
84.5012
21
-62.4265
0
LINE
8
BLACK
6
CONTINUOUS
10
84.5012
20
-62.4265
11
84.4295
21
-62.2534
0
LINE
8
BLACK
6
CONTINUOUS
10
84.4295
20
-62.2534
11
84.393
21
-62.0697
0
LINE
8
BLACK
6
CONTINUOUS
10
84.393
20
-62.0697
11
84.393
21
-61.8823
0
LINE
8
BLACK
6
CONTINUOUS
10
84.393
20
-61.8823
11
84.4295
21
-61.6986
0
LINE
8
BLACK
6
CONTINUOUS
10
84.4295
20
-61.6986
11
84.5012
21
-61.5255
0
LINE
8
BLACK
6
CONTINUOUS
10
84.5012
20
-61.5255
11
84.6053
21
-61.3698
0
LINE
8
BLACK
6
CONTINUOUS
10
84.6053
20
-61.3698
11
84.6053
21
-61.3698
0
LINE
8
BLACK
6
CONTINUOUS
10
84.6053
20
-61.3698
11
84.7378
21
-61.2373
0
LINE
8
BLACK
6
CONTINUOUS
10
84.7378
20
-61.2373
11
84.8935
21
-61.1332
0
LINE
8
BLACK
6
CONTINUOUS
10
84.8935
20
-61.1332
11
84.8935
21
-61.1332
0
LINE
8
BLACK
6
CONTINUOUS
10
84.8935
20
-61.1332
11
85.0666
21
-61.0615
0
LINE
8
BLACK
6
CONTINUOUS
10
85.0666
20
-61.0615
11
85.2503
21
-61.025
0
LINE
8
BLACK
6
CONTINUOUS
10
85.2503
20
-61.025
11
85.4377
21
-61.025
0
LINE
8
BLACK
6
CONTINUOUS
10
85.4377
20
-61.025
11
85.6214
21
-61.0615
0
LINE
8
BLACK
6
CONTINUOUS
10
86.295
20
-60.387
11
84.393
21
-60.387
0
LINE
8
BLACK
6
CONTINUOUS
10
84.393
20
-60.387
11
84.393
21
-58.485
0
LINE
8
BLACK
6
CONTINUOUS
10
84.393
20
-58.485
11
86.295
21
-58.485
0
LINE
8
BLACK
6
CONTINUOUS
10
86.295
20
-58.485
11
86.295
21
-60.387
0
LINE
8
BLACK
6
CONTINUOUS
10
103.513
20
-59.825
11
101.211
21
-59.825
0
LINE
8
BLACK
6
CONTINUOUS
10
101.211
20
-59.825
11
101.211
21
-49.903
0
LINE
8
BLACK
6
CONTINUOUS
10
101.211
20
-49.903
11
103.513
21
-49.903
0
LINE
8
BLACK
6
CONTINUOUS
10
103.513
20
-49.903
11
103.513
21
-59.825
0
LINE
8
BLACK
6
CONTINUOUS
10
107.473
20
-58.055
11
104.871
21
-58.055
0
LINE
8
BLACK
6
CONTINUOUS
10
104.871
20
-58.055
11
104.871
21
-56.753
0
LINE
8
BLACK
6
CONTINUOUS
10
104.871
20
-56.753
11
107.473
21
-56.753
0
LINE
8
BLACK
6
CONTINUOUS
10
107.473
20
-56.753
11
107.473
21
-58.055
0
LINE
8
BLACK
6
CONTINUOUS
10
92.7012
20
-54.9011
11
92.9371
21
-54.9726
0
LINE
8
BLACK
6
CONTINUOUS
10
92.9371
20
-54.9726
11
93.1544
21
-55.0888
0
LINE
8
BLACK
6
CONTINUOUS
10
93.1544
20
-55.0888
11
93.3449
21
-55.2451
0
LINE
8
BLACK
6
CONTINUOUS
10
93.3449
20
-55.2451
11
93.5012
21
-55.4356
0
LINE
8
BLACK
6
CONTINUOUS
10
93.5012
20
-55.4356
11
93.6174
21
-55.6529
0
LINE
8
BLACK
6
CONTINUOUS
10
93.6174
20
-55.6529
11
93.6889
21
-55.8888
0
LINE
8
BLACK
6
CONTINUOUS
10
93.6889
20
-55.8888
11
93.7131
21
-56.134
0
LINE
8
BLACK
6
CONTINUOUS
10
93.7131
20
-56.134
11
93.6889
21
-56.3792
0
LINE
8
BLACK
6
CONTINUOUS
10
93.6889
20
-56.3792
11
93.6174
21
-56.6151
0
LINE
8
BLACK
6
CONTINUOUS
10
93.6174
20
-56.6151
11
93.5012
21
-56.8324
0
LINE
8
BLACK
6
CONTINUOUS
10
93.5012
20
-56.8324
11
93.3449
21
-57.0229
0
LINE
8
BLACK
6
CONTINUOUS
10
93.3449
20
-57.0229
11
93.1544
21
-57.1792
0
LINE
8
BLACK
6
CONTINUOUS
10
93.1544
20
-57.1792
11
92.9371
21
-57.2954
0
LINE
8
BLACK
6
CONTINUOUS
10
92.9371
20
-57.2954
11
92.7012
21
-57.3669
0
LINE
8
BLACK
6
CONTINUOUS
10
92.7012
20
-57.3669
11
92.5175
21
-57.385
0
LINE
8
BLACK
6
CONTINUOUS
10
92.5175
20
-57.385
11
92.3945
21
-57.385
0
LINE
8
BLACK
6
CONTINUOUS
10
92.3945
20
-57.385
11
92.2108
21
-57.3669
0
LINE
8
BLACK
6
CONTINUOUS
10
92.2108
20
-57.3669
11
91.9749
21
-57.2954
0
LINE
8
BLACK
6
CONTINUOUS
10
91.9749
20
-57.2954
11
91.7576
21
-57.1792
0
LINE
8
BLACK
6
CONTINUOUS
10
91.7576
20
-57.1792
11
91.5671
21
-57.0229
0
LINE
8
BLACK
6
CONTINUOUS
10
91.5671
20
-57.0229
11
91.4108
21
-56.8324
0
LINE
8
BLACK
6
CONTINUOUS
10
91.4108
20
-56.8324
11
91.2946
21
-56.6151
0
LINE
8
BLACK
6
CONTINUOUS
10
91.2946
20
-56.6151
11
91.2231
21
-56.3792
0
LINE
8
BLACK
6
CONTINUOUS
10
91.2231
20
-56.3792
11
91.1989
21
-56.134
0
LINE
8
BLACK
6
CONTINUOUS
10
91.1989
20
-56.134
11
91.2231
21
-55.8888
0
LINE
8
BLACK
6
CONTINUOUS
10
91.2231
20
-55.8888
11
91.2946
21
-55.6529
0
LINE
8
BLACK
6
CONTINUOUS
10
91.2946
20
-55.6529
11
91.4108
21
-55.4356
0
LINE
8
BLACK
6
CONTINUOUS
10
91.4108
20
-55.4356
11
91.5671
21
-55.2451
0
LINE
8
BLACK
6
CONTINUOUS
10
91.5671
20
-55.2451
11
91.7576
21
-55.0888
0
LINE
8
BLACK
6
CONTINUOUS
10
91.7576
20
-55.0888
11
91.9749
21
-54.9726
0
LINE
8
BLACK
6
CONTINUOUS
10
91.9749
20
-54.9726
11
92.2108
21
-54.9011
0
LINE
8
BLACK
6
CONTINUOUS
10
92.2108
20
-54.9011
11
92.3945
21
-54.883
0
LINE
8
BLACK
6
CONTINUOUS
10
92.3945
20
-54.883
11
92.5175
21
-54.883
0
LINE
8
BLACK
6
CONTINUOUS
10
92.5175
20
-54.883
11
92.7012
21
-54.9011
0
LINE
8
BLACK
6
CONTINUOUS
10
75.0409
20
-54.1691
11
75.2686
21
-54.2634
0
LINE
8
BLACK
6
CONTINUOUS
10
75.2686
20
-54.2634
11
75.4735
21
-54.4003
0
LINE
8
BLACK
6
CONTINUOUS
10
75.4735
20
-54.4003
11
75.6477
21
-54.5745
0
LINE
8
BLACK
6
CONTINUOUS
10
75.6477
20
-54.5745
11
75.7846
21
-54.7794
0
LINE
8
BLACK
6
CONTINUOUS
10
75.7846
20
-54.7794
11
75.7846
21
-54.7794
0
LINE
8
BLACK
6
CONTINUOUS
10
75.7846
20
-54.7794
11
75.8789
21
-55.0071
0
LINE
8
BLACK
6
CONTINUOUS
10
75.8789
20
-55.0071
11
75.927
21
-55.2488
0
LINE
8
BLACK
6
CONTINUOUS
10
75.927
20
-55.2488
11
75.927
21
-55.4952
0
LINE
8
BLACK
6
CONTINUOUS
10
75.927
20
-55.4952
11
75.8789
21
-55.7369
0
LINE
8
BLACK
6
CONTINUOUS
10
75.8789
20
-55.7369
11
75.816
21
-55.8888
0
LINE
8
BLACK
6
CONTINUOUS
10
75.816
20
-55.8888
11
75.7846
21
-55.9646
0
LINE
8
BLACK
6
CONTINUOUS
10
75.7846
20
-55.9646
11
75.6477
21
-56.1695
0
LINE
8
BLACK
6
CONTINUOUS
10
75.6477
20
-56.1695
11
75.4735
21
-56.3437
0
LINE
8
BLACK
6
CONTINUOUS
10
75.4735
20
-56.3437
11
75.2686
21
-56.4806
0
LINE
8
BLACK
6
CONTINUOUS
10
75.2686
20
-56.4806
11
75.2686
21
-56.4806
0
LINE
8
BLACK
6
CONTINUOUS
10
75.2686
20
-56.4806
11
75.2686
21
-56.4806
0
LINE
8
BLACK
6
CONTINUOUS
10
75.2686
20
-56.4806
11
75.0409
21
-56.5749
0
LINE
8
BLACK
6
CONTINUOUS
10
75.0409
20
-56.5749
11
74.7992
21
-56.623
0
LINE
8
BLACK
6
CONTINUOUS
10
74.7992
20
-56.623
11
74.5528
21
-56.623
0
LINE
8
BLACK
6
CONTINUOUS
10
74.5528
20
-56.623
11
74.3111
21
-56.5749
0
LINE
8
BLACK
6
CONTINUOUS
10
74.3111
20
-56.5749
11
74.0834
21
-56.4806
0
LINE
8
BLACK
6
CONTINUOUS
10
74.0834
20
-56.4806
11
74.0834
21
-56.4806
0
LINE
8
BLACK
6
CONTINUOUS
10
74.0834
20
-56.4806
11
74.0834
21
-56.4806
0
LINE
8
BLACK
6
CONTINUOUS
10
74.0834
20
-56.4806
11
73.8785
21
-56.3437
0
LINE
8
BLACK
6
CONTINUOUS
10
73.8785
20
-56.3437
11
73.7043
21
-56.1695
0
LINE
8
BLACK
6
CONTINUOUS
10
73.7043
20
-56.1695
11
73.5674
21
-55.9646
0
LINE
8
BLACK
6
CONTINUOUS
10
73.5674
20
-55.9646
11
73.536
21
-55.8888
0
LINE
8
BLACK
6
CONTINUOUS
10
73.536
20
-55.8888
11
73.4731
21
-55.7369
0
LINE
8
BLACK
6
CONTINUOUS
10
73.4731
20
-55.7369
11
73.425
21
-55.4952
0
LINE
8
BLACK
6
CONTINUOUS
10
73.425
20
-55.4952
11
73.425
21
-55.2488
0
LINE
8
BLACK
6
CONTINUOUS
10
73.425
20
-55.2488
11
73.4731
21
-55.0071
0
LINE
8
BLACK
6
CONTINUOUS
10
73.4731
20
-55.0071
11
73.5674
21
-54.7794
0
LINE
8
BLACK
6
CONTINUOUS
10
73.5674
20
-54.7794
11
73.5674
21
-54.7794
0
LINE
8
BLACK
6
CONTINUOUS
10
73.5674
20
-54.7794
11
73.7043
21
-54.5745
0
LINE
8
BLACK
6
CONTINUOUS
10
73.7043
20
-54.5745
11
73.8785
21
-54.4003
0
LINE
8
BLACK
6
CONTINUOUS
10
73.8785
20
-54.4003
11
74.0834
21
-54.2634
0
LINE
8
BLACK
6
CONTINUOUS
10
74.0834
20
-54.2634
11
74.3111
21
-54.1691
0
LINE
8
BLACK
6
CONTINUOUS
10
74.3111
20
-54.1691
11
74.5528
21
-54.121
0
LINE
8
BLACK
6
CONTINUOUS
10
74.5528
20
-54.121
11
74.7992
21
-54.121
0
LINE
8
BLACK
6
CONTINUOUS
10
74.7992
20
-54.121
11
75.0409
21
-54.1691
0
LINE
8
BLACK
6
CONTINUOUS
10
85.5922
20
-54.7757
11
85.7471
21
-54.8399
0
LINE
8
BLACK
6
CONTINUOUS
10
85.7471
20
-54.8399
11
85.8865
21
-54.933
0
LINE
8
BLACK
6
CONTINUOUS
10
85.8865
20
-54.933
11
86.005
21
-55.0515
0
LINE
8
BLACK
6
CONTINUOUS
10
86.005
20
-55.0515
11
86.0981
21
-55.1909
0
LINE
8
BLACK
6
CONTINUOUS
10
86.0981
20
-55.1909
11
86.1623
21
-55.3458
0
LINE
8
BLACK
6
CONTINUOUS
10
86.1623
20
-55.3458
11
86.195
21
-55.5102
0
LINE
8
BLACK
6
CONTINUOUS
10
86.195
20
-55.5102
11
86.195
21
-55.6778
0
LINE
8
BLACK
6
CONTINUOUS
10
86.195
20
-55.6778
11
86.1623
21
-55.8422
0
LINE
8
BLACK
6
CONTINUOUS
10
86.1623
20
-55.8422
11
86.0981
21
-55.9971
0
LINE
8
BLACK
6
CONTINUOUS
10
86.0981
20
-55.9971
11
86.005
21
-56.1365
0
LINE
8
BLACK
6
CONTINUOUS
10
86.005
20
-56.1365
11
85.8865
21
-56.255
0
LINE
8
BLACK
6
CONTINUOUS
10
85.8865
20
-56.255
11
85.7471
21
-56.3481
0
LINE
8
BLACK
6
CONTINUOUS
10
85.7471
20
-56.3481
11
85.5922
21
-56.4123
0
LINE
8
BLACK
6
CONTINUOUS
10
85.5922
20
-56.4123
11
85.4278
21
-56.445
0
LINE
8
BLACK
6
CONTINUOUS
10
85.4278
20
-56.445
11
85.2602
21
-56.445
0
LINE
8
BLACK
6
CONTINUOUS
10
85.2602
20
-56.445
11
85.0958
21
-56.4123
0
LINE
8
BLACK
6
CONTINUOUS
10
85.0958
20
-56.4123
11
84.9409
21
-56.3481
0
LINE
8
BLACK
6
CONTINUOUS
10
84.9409
20
-56.3481
11
84.8015
21
-56.255
0
LINE
8
BLACK
6
CONTINUOUS
10
84.8015
20
-56.255
11
84.683
21
-56.1365
0
LINE
8
BLACK
6
CONTINUOUS
10
84.683
20
-56.1365
11
84.5899
21
-55.9971
0
LINE
8
BLACK
6
CONTINUOUS
10
84.5899
20
-55.9971
11
84.5257
21
-55.8422
0
LINE
8
BLACK
6
CONTINUOUS
10
84.5257
20
-55.8422
11
84.493
21
-55.6778
0
LINE
8
BLACK
6
CONTINUOUS
10
84.493
20
-55.6778
11
84.493
21
-55.5102
0
LINE
8
BLACK
6
CONTINUOUS
10
84.493
20
-55.5102
11
84.5257
21
-55.3458
0
LINE
8
BLACK
6
CONTINUOUS
10
84.5257
20
-55.3458
11
84.5899
21
-55.1909
0
LINE
8
BLACK
6
CONTINUOUS
10
84.5899
20
-55.1909
11
84.683
21
-55.0515
0
LINE
8
BLACK
6
CONTINUOUS
10
84.683
20
-55.0515
11
84.8015
21
-54.933
0
LINE
8
BLACK
6
CONTINUOUS
10
84.8015
20
-54.933
11
84.9409
21
-54.8399
0
LINE
8
BLACK
6
CONTINUOUS
10
84.9409
20
-54.8399
11
85.0958
21
-54.7757
0
LINE
8
BLACK
6
CONTINUOUS
10
85.0958
20
-54.7757
11
85.2602
21
-54.743
0
LINE
8
BLACK
6
CONTINUOUS
10
85.2602
20
-54.743
11
85.4278
21
-54.743
0
LINE
8
BLACK
6
CONTINUOUS
10
85.4278
20
-54.743
11
85.5922
21
-54.7757
0
LINE
8
BLACK
6
CONTINUOUS
10
118.739
20
-52.4933
11
118.846
21
-52.5144
0
LINE
8
BLACK
6
CONTINUOUS
10
118.846
20
-52.5144
11
119.146
21
-52.6389
0
LINE
8
BLACK
6
CONTINUOUS
10
119.146
20
-52.6389
11
119.416
21
-52.8196
0
LINE
8
BLACK
6
CONTINUOUS
10
119.416
20
-52.8196
11
119.646
21
-53.0495
0
LINE
8
BLACK
6
CONTINUOUS
10
119.646
20
-53.0495
11
119.827
21
-53.32
0
LINE
8
BLACK
6
CONTINUOUS
10
119.827
20
-53.32
11
119.949
21
-53.614
0
LINE
8
BLACK
6
CONTINUOUS
10
119.949
20
-53.614
11
119.952
21
-53.6204
0
LINE
8
BLACK
6
CONTINUOUS
10
119.952
20
-53.6204
11
120.015
21
-53.9394
0
LINE
8
BLACK
6
CONTINUOUS
10
120.015
20
-53.9394
11
120.015
21
-54.2646
0
LINE
8
BLACK
6
CONTINUOUS
10
120.015
20
-54.2646
11
119.984
21
-54.4196
0
LINE
8
BLACK
6
CONTINUOUS
10
119.984
20
-54.4196
11
119.952
21
-54.5836
0
LINE
8
BLACK
6
CONTINUOUS
10
119.952
20
-54.5836
11
119.827
21
-54.884
0
LINE
8
BLACK
6
CONTINUOUS
10
119.827
20
-54.884
11
119.646
21
-55.1545
0
LINE
8
BLACK
6
CONTINUOUS
10
119.646
20
-55.1545
11
119.416
21
-55.3844
0
LINE
8
BLACK
6
CONTINUOUS
10
119.416
20
-55.3844
11
119.146
21
-55.5651
0
LINE
8
BLACK
6
CONTINUOUS
10
119.146
20
-55.5651
11
118.846
21
-55.6896
0
LINE
8
BLACK
6
CONTINUOUS
10
118.846
20
-55.6896
11
118.739
21
-55.7107
0
LINE
8
BLACK
6
CONTINUOUS
10
118.739
20
-55.7107
11
118.527
21
-55.753
0
LINE
8
BLACK
6
CONTINUOUS
10
118.527
20
-55.753
11
118.201
21
-55.753
0
LINE
8
BLACK
6
CONTINUOUS
10
118.201
20
-55.753
11
117.989
21
-55.7107
0
LINE
8
BLACK
6
CONTINUOUS
10
117.989
20
-55.7107
11
117.882
21
-55.6896
0
LINE
8
BLACK
6
CONTINUOUS
10
117.882
20
-55.6896
11
117.582
21
-55.5651
0
LINE
8
BLACK
6
CONTINUOUS
10
117.582
20
-55.5651
11
117.312
21
-55.3844
0
LINE
8
BLACK
6
CONTINUOUS
10
117.312
20
-55.3844
11
117.082
21
-55.1545
0
LINE
8
BLACK
6
CONTINUOUS
10
117.082
20
-55.1545
11
116.901
21
-54.884
0
LINE
8
BLACK
6
CONTINUOUS
10
116.901
20
-54.884
11
116.776
21
-54.5836
0
LINE
8
BLACK
6
CONTINUOUS
10
116.776
20
-54.5836
11
116.744
21
-54.4196
0
LINE
8
BLACK
6
CONTINUOUS
10
116.744
20
-54.4196
11
116.713
21
-54.2646
0
LINE
8
BLACK
6
CONTINUOUS
10
116.713
20
-54.2646
11
116.713
21
-53.9394
0
LINE
8
BLACK
6
CONTINUOUS
10
116.713
20
-53.9394
11
116.776
21
-53.6204
0
LINE
8
BLACK
6
CONTINUOUS
10
116.776
20
-53.6204
11
116.779
21
-53.614
0
LINE
8
BLACK
6
CONTINUOUS
10
116.779
20
-53.614
11
116.901
21
-53.32
0
LINE
8
BLACK
6
CONTINUOUS
10
116.901
20
-53.32
11
117.082
21
-53.0495
0
LINE
8
BLACK
6
CONTINUOUS
10
117.082
20
-53.0495
11
117.312
21
-52.8196
0
LINE
8
BLACK
6
CONTINUOUS
10
117.312
20
-52.8196
11
117.582
21
-52.6389
0
LINE
8
BLACK
6
CONTINUOUS
10
117.582
20
-52.6389
11
117.882
21
-52.5144
0
LINE
8
BLACK
6
CONTINUOUS
10
117.882
20
-52.5144
11
117.989
21
-52.4933
0
LINE
8
BLACK
6
CONTINUOUS
10
117.989
20
-52.4933
11
118.201
21
-52.451
0
LINE
8
BLACK
6
CONTINUOUS
10
118.201
20
-52.451
11
118.527
21
-52.451
0
LINE
8
BLACK
6
CONTINUOUS
10
118.527
20
-52.451
11
118.739
21
-52.4933
0
LINE
8
BLACK
6
CONTINUOUS
10
107.473
20
-55.515
11
104.871
21
-55.515
0
LINE
8
BLACK
6
CONTINUOUS
10
104.871
20
-55.515
11
104.871
21
-54.213
0
LINE
8
BLACK
6
CONTINUOUS
10
104.871
20
-54.213
11
107.473
21
-54.213
0
LINE
8
BLACK
6
CONTINUOUS
10
107.473
20
-54.213
11
107.473
21
-55.515
0
LINE
8
BLACK
6
CONTINUOUS
10
81.261
20
-55.099
11
78.759
21
-55.099
0
LINE
8
BLACK
6
CONTINUOUS
10
78.759
20
-55.099
11
78.759
21
-52.597
0
LINE
8
BLACK
6
CONTINUOUS
10
78.759
20
-52.597
11
81.261
21
-52.597
0
LINE
8
BLACK
6
CONTINUOUS
10
81.261
20
-52.597
11
81.261
21
-55.099
0
LINE
8
BLACK
6
CONTINUOUS
10
70.4576
20
-51.219
11
70.5856
21
-51.2444
0
LINE
8
BLACK
6
CONTINUOUS
10
70.5856
20
-51.2444
11
70.886
21
-51.3689
0
LINE
8
BLACK
6
CONTINUOUS
10
70.886
20
-51.3689
11
71.1565
21
-51.5496
0
LINE
8
BLACK
6
CONTINUOUS
10
71.1565
20
-51.5496
11
71.3864
21
-51.7795
0
LINE
8
BLACK
6
CONTINUOUS
10
71.3864
20
-51.7795
11
71.5671
21
-52.05
0
LINE
8
BLACK
6
CONTINUOUS
10
71.5671
20
-52.05
11
71.6782
21
-52.3182
0
LINE
8
BLACK
6
CONTINUOUS
10
71.6782
20
-52.3182
11
71.6916
21
-52.3504
0
LINE
8
BLACK
6
CONTINUOUS
10
71.6916
20
-52.3504
11
71.755
21
-52.6694
0
LINE
8
BLACK
6
CONTINUOUS
10
71.755
20
-52.6694
11
71.755
21
-52.9946
0
LINE
8
BLACK
6
CONTINUOUS
10
71.755
20
-52.9946
11
71.7127
21
-53.2073
0
LINE
8
BLACK
6
CONTINUOUS
10
71.7127
20
-53.2073
11
71.6916
21
-53.3136
0
LINE
8
BLACK
6
CONTINUOUS
10
71.6916
20
-53.3136
11
71.5671
21
-53.614
0
LINE
8
BLACK
6
CONTINUOUS
10
71.5671
20
-53.614
11
71.3864
21
-53.8845
0
LINE
8
BLACK
6
CONTINUOUS
10
71.3864
20
-53.8845
11
71.1565
21
-54.1144
0
LINE
8
BLACK
6
CONTINUOUS
10
71.1565
20
-54.1144
11
70.886
21
-54.2951
0
LINE
8
BLACK
6
CONTINUOUS
10
70.886
20
-54.2951
11
70.5856
21
-54.4196
0
LINE
8
BLACK
6
CONTINUOUS
10
70.5856
20
-54.4196
11
70.4793
21
-54.4407
0
LINE
8
BLACK
6
CONTINUOUS
10
70.4793
20
-54.4407
11
70.2666
21
-54.483
0
LINE
8
BLACK
6
CONTINUOUS
10
70.2666
20
-54.483
11
69.9414
21
-54.483
0
LINE
8
BLACK
6
CONTINUOUS
10
69.9414
20
-54.483
11
69.7287
21
-54.4407
0
LINE
8
BLACK
6
CONTINUOUS
10
69.7287
20
-54.4407
11
69.6224
21
-54.4196
0
LINE
8
BLACK
6
CONTINUOUS
10
69.6224
20
-54.4196
11
69.322
21
-54.2951
0
LINE
8
BLACK
6
CONTINUOUS
10
69.322
20
-54.2951
11
69.0515
21
-54.1144
0
LINE
8
BLACK
6
CONTINUOUS
10
69.0515
20
-54.1144
11
68.8216
21
-53.8845
0
LINE
8
BLACK
6
CONTINUOUS
10
68.8216
20
-53.8845
11
68.6409
21
-53.614
0
LINE
8
BLACK
6
CONTINUOUS
10
68.6409
20
-53.614
11
68.5164
21
-53.3136
0
LINE
8
BLACK
6
CONTINUOUS
10
68.5164
20
-53.3136
11
68.4953
21
-53.2073
0
LINE
8
BLACK
6
CONTINUOUS
10
68.4953
20
-53.2073
11
68.453
21
-52.9946
0
LINE
8
BLACK
6
CONTINUOUS
10
68.453
20
-52.9946
11
68.453
21
-52.6694
0
LINE
8
BLACK
6
CONTINUOUS
10
68.453
20
-52.6694
11
68.5164
21
-52.3504
0
LINE
8
BLACK
6
CONTINUOUS
10
68.5164
20
-52.3504
11
68.5298
21
-52.3182
0
LINE
8
BLACK
6
CONTINUOUS
10
68.5298
20
-52.3182
11
68.6409
21
-52.05
0
LINE
8
BLACK
6
CONTINUOUS
10
68.6409
20
-52.05
11
68.8216
21
-51.7795
0
LINE
8
BLACK
6
CONTINUOUS
10
68.8216
20
-51.7795
11
69.0515
21
-51.5496
0
LINE
8
BLACK
6
CONTINUOUS
10
69.0515
20
-51.5496
11
69.322
21
-51.3689
0
LINE
8
BLACK
6
CONTINUOUS
10
69.322
20
-51.3689
11
69.6224
21
-51.2444
0
LINE
8
BLACK
6
CONTINUOUS
10
69.6224
20
-51.2444
11
69.7504
21
-51.219
0
LINE
8
BLACK
6
CONTINUOUS
10
69.7504
20
-51.219
11
69.9414
21
-51.181
0
LINE
8
BLACK
6
CONTINUOUS
10
69.9414
20
-51.181
11
70.2666
21
-51.181
0
LINE
8
BLACK
6
CONTINUOUS
10
70.2666
20
-51.181
11
70.4576
21
-51.219
0
LINE
8
BLACK
6
CONTINUOUS
10
86.195
20
-54.445
11
84.493
21
-54.445
0
LINE
8
BLACK
6
CONTINUOUS
10
84.493
20
-54.445
11
84.493
21
-52.743
0
LINE
8
BLACK
6
CONTINUOUS
10
84.493
20
-52.743
11
86.195
21
-52.743
0
LINE
8
BLACK
6
CONTINUOUS
10
86.195
20
-52.743
11
86.195
21
-54.445
0
LINE
8
BLACK
6
CONTINUOUS
10
107.323
20
-53.475
11
105.021
21
-53.475
0
LINE
8
BLACK
6
CONTINUOUS
10
105.021
20
-53.475
11
105.021
21
-43.553
0
LINE
8
BLACK
6
CONTINUOUS
10
105.021
20
-43.553
11
107.323
21
-43.553
0
LINE
8
BLACK
6
CONTINUOUS
10
107.323
20
-43.553
11
107.323
21
-53.475
0
LINE
8
BLACK
6
CONTINUOUS
10
92.291
20
-52.921
11
90.589
21
-52.921
0
LINE
8
BLACK
6
CONTINUOUS
10
90.589
20
-52.921
11
90.589
21
-51.219
0
LINE
8
BLACK
6
CONTINUOUS
10
90.589
20
-51.219
11
92.291
21
-51.219
0
LINE
8
BLACK
6
CONTINUOUS
10
92.291
20
-51.219
11
92.291
21
-52.921
0
LINE
8
BLACK
6
CONTINUOUS
10
93.6882
20
-51.2517
11
93.8431
21
-51.3159
0
LINE
8
BLACK
6
CONTINUOUS
10
93.8431
20
-51.3159
11
93.9825
21
-51.409
0
LINE
8
BLACK
6
CONTINUOUS
10
93.9825
20
-51.409
11
94.101
21
-51.5275
0
LINE
8
BLACK
6
CONTINUOUS
10
94.101
20
-51.5275
11
94.1941
21
-51.6669
0
LINE
8
BLACK
6
CONTINUOUS
10
94.1941
20
-51.6669
11
94.2583
21
-51.8218
0
LINE
8
BLACK
6
CONTINUOUS
10
94.2583
20
-51.8218
11
94.291
21
-51.9862
0
LINE
8
BLACK
6
CONTINUOUS
10
94.291
20
-51.9862
11
94.291
21
-52.1538
0
LINE
8
BLACK
6
CONTINUOUS
10
94.291
20
-52.1538
11
94.2583
21
-52.3182
0
LINE
8
BLACK
6
CONTINUOUS
10
94.2583
20
-52.3182
11
94.1941
21
-52.4731
0
LINE
8
BLACK
6
CONTINUOUS
10
94.1941
20
-52.4731
11
94.101
21
-52.6125
0
LINE
8
BLACK
6
CONTINUOUS
10
94.101
20
-52.6125
11
93.9825
21
-52.731
0
LINE
8
BLACK
6
CONTINUOUS
10
93.9825
20
-52.731
11
93.8431
21
-52.8241
0
LINE
8
BLACK
6
CONTINUOUS
10
93.8431
20
-52.8241
11
93.6882
21
-52.8883
0
LINE
8
BLACK
6
CONTINUOUS
10
93.6882
20
-52.8883
11
93.5238
21
-52.921
0
LINE
8
BLACK
6
CONTINUOUS
10
93.5238
20
-52.921
11
93.3562
21
-52.921
0
LINE
8
BLACK
6
CONTINUOUS
10
93.3562
20
-52.921
11
93.1918
21
-52.8883
0
LINE
8
BLACK
6
CONTINUOUS
10
93.1918
20
-52.8883
11
93.0369
21
-52.8241
0
LINE
8
BLACK
6
CONTINUOUS
10
93.0369
20
-52.8241
11
92.8975
21
-52.731
0
LINE
8
BLACK
6
CONTINUOUS
10
92.8975
20
-52.731
11
92.779
21
-52.6125
0
LINE
8
BLACK
6
CONTINUOUS
10
92.779
20
-52.6125
11
92.6859
21
-52.4731
0
LINE
8
BLACK
6
CONTINUOUS
10
92.6859
20
-52.4731
11
92.6217
21
-52.3182
0
LINE
8
BLACK
6
CONTINUOUS
10
92.6217
20
-52.3182
11
92.589
21
-52.1538
0
LINE
8
BLACK
6
CONTINUOUS
10
92.589
20
-52.1538
11
92.589
21
-51.9862
0
LINE
8
BLACK
6
CONTINUOUS
10
92.589
20
-51.9862
11
92.6217
21
-51.8218
0
LINE
8
BLACK
6
CONTINUOUS
10
92.6217
20
-51.8218
11
92.6859
21
-51.6669
0
LINE
8
BLACK
6
CONTINUOUS
10
92.6859
20
-51.6669
11
92.779
21
-51.5275
0
LINE
8
BLACK
6
CONTINUOUS
10
92.779
20
-51.5275
11
92.8975
21
-51.409
0
LINE
8
BLACK
6
CONTINUOUS
10
92.8975
20
-51.409
11
93.0369
21
-51.3159
0
LINE
8
BLACK
6
CONTINUOUS
10
93.0369
20
-51.3159
11
93.1918
21
-51.2517
0
LINE
8
BLACK
6
CONTINUOUS
10
93.1918
20
-51.2517
11
93.3562
21
-51.219
0
LINE
8
BLACK
6
CONTINUOUS
10
93.3562
20
-51.219
11
93.5238
21
-51.219
0
LINE
8
BLACK
6
CONTINUOUS
10
93.5238
20
-51.219
11
93.6882
21
-51.2517
0
LINE
8
BLACK
6
CONTINUOUS
10
76.985
20
-51.585
11
73.383
21
-51.585
0
LINE
8
BLACK
6
CONTINUOUS
10
73.383
20
-51.585
11
73.383
21
-47.983
0
LINE
8
BLACK
6
CONTINUOUS
10
73.383
20
-47.983
11
76.985
21
-47.983
0
LINE
8
BLACK
6
CONTINUOUS
10
76.985
20
-47.983
11
76.985
21
-51.585
0
LINE
8
BLACK
6
CONTINUOUS
10
71.6104
20
-44.9997
11
71.7675
21
-45.0473
0
LINE
8
BLACK
6
CONTINUOUS
10
71.7675
20
-45.0473
11
71.9122
21
-45.1247
0
LINE
8
BLACK
6
CONTINUOUS
10
71.9122
20
-45.1247
11
72.0391
21
-45.2289
0
LINE
8
BLACK
6
CONTINUOUS
10
72.0391
20
-45.2289
11
72.1433
21
-45.3558
0
LINE
8
BLACK
6
CONTINUOUS
10
72.1433
20
-45.3558
11
72.2207
21
-45.5005
0
LINE
8
BLACK
6
CONTINUOUS
10
72.2207
20
-45.5005
11
72.2683
21
-45.6576
0
LINE
8
BLACK
6
CONTINUOUS
10
72.2683
20
-45.6576
11
72.285
21
-45.8271
0
LINE
8
BLACK
6
CONTINUOUS
10
72.285
20
-45.8271
11
72.285
21
-47.7409
0
LINE
8
BLACK
6
CONTINUOUS
10
72.285
20
-47.7409
11
72.2683
21
-47.9104
0
LINE
8
BLACK
6
CONTINUOUS
10
72.2683
20
-47.9104
11
72.2207
21
-48.0675
0
LINE
8
BLACK
6
CONTINUOUS
10
72.2207
20
-48.0675
11
72.1433
21
-48.2122
0
LINE
8
BLACK
6
CONTINUOUS
10
72.1433
20
-48.2122
11
72.0391
21
-48.3391
0
LINE
8
BLACK
6
CONTINUOUS
10
72.0391
20
-48.3391
11
71.9122
21
-48.4433
0
LINE
8
BLACK
6
CONTINUOUS
10
71.9122
20
-48.4433
11
71.7675
21
-48.5207
0
LINE
8
BLACK
6
CONTINUOUS
10
71.7675
20
-48.5207
11
71.6104
21
-48.5683
0
LINE
8
BLACK
6
CONTINUOUS
10
71.6104
20
-48.5683
11
71.4409
21
-48.585
0
LINE
8
BLACK
6
CONTINUOUS
10
71.4409
20
-48.585
11
69.5271
21
-48.585
0
LINE
8
BLACK
6
CONTINUOUS
10
69.5271
20
-48.585
11
69.3576
21
-48.5683
0
LINE
8
BLACK
6
CONTINUOUS
10
69.3576
20
-48.5683
11
69.2005
21
-48.5207
0
LINE
8
BLACK
6
CONTINUOUS
10
69.2005
20
-48.5207
11
69.0558
21
-48.4433
0
LINE
8
BLACK
6
CONTINUOUS
10
69.0558
20
-48.4433
11
68.9289
21
-48.3391
0
LINE
8
BLACK
6
CONTINUOUS
10
68.9289
20
-48.3391
11
68.8247
21
-48.2122
0
LINE
8
BLACK
6
CONTINUOUS
10
68.8247
20
-48.2122
11
68.7473
21
-48.0675
0
LINE
8
BLACK
6
CONTINUOUS
10
68.7473
20
-48.0675
11
68.6997
21
-47.9104
0
LINE
8
BLACK
6
CONTINUOUS
10
68.6997
20
-47.9104
11
68.683
21
-47.7409
0
LINE
8
BLACK
6
CONTINUOUS
10
68.683
20
-47.7409
11
68.683
21
-45.8271
0
LINE
8
BLACK
6
CONTINUOUS
10
68.683
20
-45.8271
11
68.6997
21
-45.6576
0
LINE
8
BLACK
6
CONTINUOUS
10
68.6997
20
-45.6576
11
68.7473
21
-45.5005
0
LINE
8
BLACK
6
CONTINUOUS
10
68.7473
20
-45.5005
11
68.8247
21
-45.3558
0
LINE
8
BLACK
6
CONTINUOUS
10
68.8247
20
-45.3558
11
68.9289
21
-45.2289
0
LINE
8
BLACK
6
CONTINUOUS
10
68.9289
20
-45.2289
11
69.0558
21
-45.1247
0
LINE
8
BLACK
6
CONTINUOUS
10
69.0558
20
-45.1247
11
69.2005
21
-45.0473
0
LINE
8
BLACK
6
CONTINUOUS
10
69.2005
20
-45.0473
11
69.3576
21
-44.9997
0
LINE
8
BLACK
6
CONTINUOUS
10
69.3576
20
-44.9997
11
69.5271
21
-44.983
0
LINE
8
BLACK
6
CONTINUOUS
10
69.5271
20
-44.983
11
71.4409
21
-44.983
0
LINE
8
BLACK
6
CONTINUOUS
10
71.4409
20
-44.983
11
71.6104
21
-44.9997
0
LINE
8
BLACK
6
CONTINUOUS
10
94.2866
20
-46.1614
11
94.4778
21
-46.2406
0
LINE
8
BLACK
6
CONTINUOUS
10
94.4778
20
-46.2406
11
94.4778
21
-46.2406
0
LINE
8
BLACK
6
CONTINUOUS
10
94.4778
20
-46.2406
11
94.65
21
-46.3556
0
LINE
8
BLACK
6
CONTINUOUS
10
94.65
20
-46.3556
11
94.7964
21
-46.502
0
LINE
8
BLACK
6
CONTINUOUS
10
94.7964
20
-46.502
11
94.9114
21
-46.6742
0
LINE
8
BLACK
6
CONTINUOUS
10
94.9114
20
-46.6742
11
94.9906
21
-46.8654
0
LINE
8
BLACK
6
CONTINUOUS
10
94.9906
20
-46.8654
11
95.031
21
-47.0685
0
LINE
8
BLACK
6
CONTINUOUS
10
95.031
20
-47.0685
11
95.031
21
-47.2755
0
LINE
8
BLACK
6
CONTINUOUS
10
95.031
20
-47.2755
11
94.9906
21
-47.4786
0
LINE
8
BLACK
6
CONTINUOUS
10
94.9906
20
-47.4786
11
94.9114
21
-47.6698
0
LINE
8
BLACK
6
CONTINUOUS
10
94.9114
20
-47.6698
11
94.9114
21
-47.6698
0
LINE
8
BLACK
6
CONTINUOUS
10
94.9114
20
-47.6698
11
94.7964
21
-47.842
0
LINE
8
BLACK
6
CONTINUOUS
10
94.7964
20
-47.842
11
94.65
21
-47.9884
0
LINE
8
BLACK
6
CONTINUOUS
10
94.65
20
-47.9884
11
94.4778
21
-48.1034
0
LINE
8
BLACK
6
CONTINUOUS
10
94.4778
20
-48.1034
11
94.4778
21
-48.1034
0
LINE
8
BLACK
6
CONTINUOUS
10
94.4778
20
-48.1034
11
94.4778
21
-48.1034
0
LINE
8
BLACK
6
CONTINUOUS
10
94.4778
20
-48.1034
11
94.2866
21
-48.1826
0
LINE
8
BLACK
6
CONTINUOUS
10
94.2866
20
-48.1826
11
94.0835
21
-48.223
0
LINE
8
BLACK
6
CONTINUOUS
10
94.0835
20
-48.223
11
93.8765
21
-48.223
0
LINE
8
BLACK
6
CONTINUOUS
10
93.8765
20
-48.223
11
93.6734
21
-48.1826
0
LINE
8
BLACK
6
CONTINUOUS
10
93.6734
20
-48.1826
11
93.4822
21
-48.1034
0
LINE
8
BLACK
6
CONTINUOUS
10
93.4822
20
-48.1034
11
93.4822
21
-48.1034
0
LINE
8
BLACK
6
CONTINUOUS
10
93.4822
20
-48.1034
11
93.4822
21
-48.1034
0
LINE
8
BLACK
6
CONTINUOUS
10
93.4822
20
-48.1034
11
93.31
21
-47.9884
0
LINE
8
BLACK
6
CONTINUOUS
10
93.31
20
-47.9884
11
93.1636
21
-47.842
0
LINE
8
BLACK
6
CONTINUOUS
10
93.1636
20
-47.842
11
93.0486
21
-47.6698
0
LINE
8
BLACK
6
CONTINUOUS
10
93.0486
20
-47.6698
11
93.0486
21
-47.6698
0
LINE
8
BLACK
6
CONTINUOUS
10
93.0486
20
-47.6698
11
92.9694
21
-47.4786
0
LINE
8
BLACK
6
CONTINUOUS
10
92.9694
20
-47.4786
11
92.929
21
-47.2755
0
LINE
8
BLACK
6
CONTINUOUS
10
92.929
20
-47.2755
11
92.929
21
-47.0685
0
LINE
8
BLACK
6
CONTINUOUS
10
92.929
20
-47.0685
11
92.9694
21
-46.8654
0
LINE
8
BLACK
6
CONTINUOUS
10
92.9694
20
-46.8654
11
93.0486
21
-46.6742
0
LINE
8
BLACK
6
CONTINUOUS
10
93.0486
20
-46.6742
11
93.1636
21
-46.502
0
LINE
8
BLACK
6
CONTINUOUS
10
93.1636
20
-46.502
11
93.31
21
-46.3556
0
LINE
8
BLACK
6
CONTINUOUS
10
93.31
20
-46.3556
11
93.4822
21
-46.2406
0
LINE
8
BLACK
6
CONTINUOUS
10
93.4822
20
-46.2406
11
93.4822
21
-46.2406
0
LINE
8
BLACK
6
CONTINUOUS
10
93.4822
20
-46.2406
11
93.6734
21
-46.1614
0
LINE
8
BLACK
6
CONTINUOUS
10
93.6734
20
-46.1614
11
93.8765
21
-46.121
0
LINE
8
BLACK
6
CONTINUOUS
10
93.8765
20
-46.121
11
94.0835
21
-46.121
0
LINE
8
BLACK
6
CONTINUOUS
10
94.0835
20
-46.121
11
94.2866
21
-46.1614
0
LINE
8
BLACK
6
CONTINUOUS
10
100.787
20
-46.1614
11
100.978
21
-46.2406
0
LINE
8
BLACK
6
CONTINUOUS
10
100.978
20
-46.2406
11
100.978
21
-46.2406
0
LINE
8
BLACK
6
CONTINUOUS
10
100.978
20
-46.2406
11
101.15
21
-46.3556
0
LINE
8
BLACK
6
CONTINUOUS
10
101.15
20
-46.3556
11
101.296
21
-46.502
0
LINE
8
BLACK
6
CONTINUOUS
10
101.296
20
-46.502
11
101.411
21
-46.6742
0
LINE
8
BLACK
6
CONTINUOUS
10
101.411
20
-46.6742
11
101.491
21
-46.8654
0
LINE
8
BLACK
6
CONTINUOUS
10
101.491
20
-46.8654
11
101.531
21
-47.0685
0
LINE
8
BLACK
6
CONTINUOUS
10
101.531
20
-47.0685
11
101.531
21
-47.2755
0
LINE
8
BLACK
6
CONTINUOUS
10
101.531
20
-47.2755
11
101.491
21
-47.4786
0
LINE
8
BLACK
6
CONTINUOUS
10
101.491
20
-47.4786
11
101.411
21
-47.6698
0
LINE
8
BLACK
6
CONTINUOUS
10
101.411
20
-47.6698
11
101.411
21
-47.6698
0
LINE
8
BLACK
6
CONTINUOUS
10
101.411
20
-47.6698
11
101.296
21
-47.842
0
LINE
8
BLACK
6
CONTINUOUS
10
101.296
20
-47.842
11
101.15
21
-47.9884
0
LINE
8
BLACK
6
CONTINUOUS
10
101.15
20
-47.9884
11
100.978
21
-48.1034
0
LINE
8
BLACK
6
CONTINUOUS
10
100.978
20
-48.1034
11
100.978
21
-48.1034
0
LINE
8
BLACK
6
CONTINUOUS
10
100.978
20
-48.1034
11
100.978
21
-48.1034
0
LINE
8
BLACK
6
CONTINUOUS
10
100.978
20
-48.1034
11
100.787
21
-48.1826
0
LINE
8
BLACK
6
CONTINUOUS
10
100.787
20
-48.1826
11
100.584
21
-48.223
0
LINE
8
BLACK
6
CONTINUOUS
10
100.584
20
-48.223
11
100.376
21
-48.223
0
LINE
8
BLACK
6
CONTINUOUS
10
100.376
20
-48.223
11
100.173
21
-48.1826
0
LINE
8
BLACK
6
CONTINUOUS
10
100.173
20
-48.1826
11
99.9822
21
-48.1034
0
LINE
8
BLACK
6
CONTINUOUS
10
99.9822
20
-48.1034
11
99.9822
21
-48.1034
0
LINE
8
BLACK
6
CONTINUOUS
10
99.9822
20
-48.1034
11
99.9822
21
-48.1034
0
LINE
8
BLACK
6
CONTINUOUS
10
99.9822
20
-48.1034
11
99.81
21
-47.9884
0
LINE
8
BLACK
6
CONTINUOUS
10
99.81
20
-47.9884
11
99.6636
21
-47.842
0
LINE
8
BLACK
6
CONTINUOUS
10
99.6636
20
-47.842
11
99.5486
21
-47.6698
0
LINE
8
BLACK
6
CONTINUOUS
10
99.5486
20
-47.6698
11
99.5486
21
-47.6698
0
LINE
8
BLACK
6
CONTINUOUS
10
99.5486
20
-47.6698
11
99.4694
21
-47.4786
0
LINE
8
BLACK
6
CONTINUOUS
10
99.4694
20
-47.4786
11
99.429
21
-47.2755
0
LINE
8
BLACK
6
CONTINUOUS
10
99.429
20
-47.2755
11
99.429
21
-47.0685
0
LINE
8
BLACK
6
CONTINUOUS
10
99.429
20
-47.0685
11
99.4694
21
-46.8654
0
LINE
8
BLACK
6
CONTINUOUS
10
99.4694
20
-46.8654
11
99.5486
21
-46.6742
0
LINE
8
BLACK
6
CONTINUOUS
10
99.5486
20
-46.6742
11
99.6636
21
-46.502
0
LINE
8
BLACK
6
CONTINUOUS
10
99.6636
20
-46.502
11
99.81
21
-46.3556
0
LINE
8
BLACK
6
CONTINUOUS
10
99.81
20
-46.3556
11
99.9822
21
-46.2406
0
LINE
8
BLACK
6
CONTINUOUS
10
99.9822
20
-46.2406
11
99.9822
21
-46.2406
0
LINE
8
BLACK
6
CONTINUOUS
10
99.9822
20
-46.2406
11
100.173
21
-46.1614
0
LINE
8
BLACK
6
CONTINUOUS
10
100.173
20
-46.1614
11
100.376
21
-46.121
0
LINE
8
BLACK
6
CONTINUOUS
10
100.376
20
-46.121
11
100.584
21
-46.121
0
LINE
8
BLACK
6
CONTINUOUS
10
100.584
20
-46.121
11
100.787
21
-46.1614
0
LINE
8
BLACK
6
CONTINUOUS
10
85.625
20
-47.271
11
82.523
21
-47.271
0
LINE
8
BLACK
6
CONTINUOUS
10
82.523
20
-47.271
11
82.523
21
-44.169
0
LINE
8
BLACK
6
CONTINUOUS
10
82.523
20
-44.169
11
85.625
21
-44.169
0
LINE
8
BLACK
6
CONTINUOUS
10
85.625
20
-44.169
11
85.625
21
-47.271
0
LINE
8
BLACK
6
CONTINUOUS
10
89.4566
20
-44.1988
11
89.6064
21
-44.2286
0
LINE
8
BLACK
6
CONTINUOUS
10
89.6064
20
-44.2286
11
89.8887
21
-44.3455
0
LINE
8
BLACK
6
CONTINUOUS
10
89.8887
20
-44.3455
11
90.1427
21
-44.5153
0
LINE
8
BLACK
6
CONTINUOUS
10
90.1427
20
-44.5153
11
90.3587
21
-44.7313
0
LINE
8
BLACK
6
CONTINUOUS
10
90.3587
20
-44.7313
11
90.5285
21
-44.9853
0
LINE
8
BLACK
6
CONTINUOUS
10
90.5285
20
-44.9853
11
90.6454
21
-45.2676
0
LINE
8
BLACK
6
CONTINUOUS
10
90.6454
20
-45.2676
11
90.705
21
-45.5672
0
LINE
8
BLACK
6
CONTINUOUS
10
90.705
20
-45.5672
11
90.705
21
-45.8728
0
LINE
8
BLACK
6
CONTINUOUS
10
90.705
20
-45.8728
11
90.6454
21
-46.1724
0
LINE
8
BLACK
6
CONTINUOUS
10
90.6454
20
-46.1724
11
90.5285
21
-46.4547
0
LINE
8
BLACK
6
CONTINUOUS
10
90.5285
20
-46.4547
11
90.3587
21
-46.7087
0
LINE
8
BLACK
6
CONTINUOUS
10
90.3587
20
-46.7087
11
90.1427
21
-46.9247
0
LINE
8
BLACK
6
CONTINUOUS
10
90.1427
20
-46.9247
11
89.8887
21
-47.0945
0
LINE
8
BLACK
6
CONTINUOUS
10
89.8887
20
-47.0945
11
89.6064
21
-47.2114
0
LINE
8
BLACK
6
CONTINUOUS
10
89.6064
20
-47.2114
11
89.4566
21
-47.2412
0
LINE
8
BLACK
6
CONTINUOUS
10
89.4566
20
-47.2412
11
89.3068
21
-47.271
0
LINE
8
BLACK
6
CONTINUOUS
10
89.3068
20
-47.271
11
89.0012
21
-47.271
0
LINE
8
BLACK
6
CONTINUOUS
10
89.0012
20
-47.271
11
88.8514
21
-47.2412
0
LINE
8
BLACK
6
CONTINUOUS
10
88.8514
20
-47.2412
11
88.7016
21
-47.2114
0
LINE
8
BLACK
6
CONTINUOUS
10
88.7016
20
-47.2114
11
88.4193
21
-47.0945
0
LINE
8
BLACK
6
CONTINUOUS
10
88.4193
20
-47.0945
11
88.1653
21
-46.9247
0
LINE
8
BLACK
6
CONTINUOUS
10
88.1653
20
-46.9247
11
87.9493
21
-46.7087
0
LINE
8
BLACK
6
CONTINUOUS
10
87.9493
20
-46.7087
11
87.7795
21
-46.4547
0
LINE
8
BLACK
6
CONTINUOUS
10
87.7795
20
-46.4547
11
87.6626
21
-46.1724
0
LINE
8
BLACK
6
CONTINUOUS
10
87.6626
20
-46.1724
11
87.603
21
-45.8728
0
LINE
8
BLACK
6
CONTINUOUS
10
87.603
20
-45.8728
11
87.603
21
-45.5672
0
LINE
8
BLACK
6
CONTINUOUS
10
87.603
20
-45.5672
11
87.6626
21
-45.2676
0
LINE
8
BLACK
6
CONTINUOUS
10
87.6626
20
-45.2676
11
87.7795
21
-44.9853
0
LINE
8
BLACK
6
CONTINUOUS
10
87.7795
20
-44.9853
11
87.9493
21
-44.7313
0
LINE
8
BLACK
6
CONTINUOUS
10
87.9493
20
-44.7313
11
88.1653
21
-44.5153
0
LINE
8
BLACK
6
CONTINUOUS
10
88.1653
20
-44.5153
11
88.4193
21
-44.3455
0
LINE
8
BLACK
6
CONTINUOUS
10
88.4193
20
-44.3455
11
88.7016
21
-44.2286
0
LINE
8
BLACK
6
CONTINUOUS
10
88.7016
20
-44.2286
11
88.8514
21
-44.1988
0
LINE
8
BLACK
6
CONTINUOUS
10
88.8514
20
-44.1988
11
89.0012
21
-44.169
0
LINE
8
BLACK
6
CONTINUOUS
10
89.0012
20
-44.169
11
89.3068
21
-44.169
0
LINE
8
BLACK
6
CONTINUOUS
10
89.3068
20
-44.169
11
89.4566
21
-44.1988
0
LINE
8
BLACK
6
CONTINUOUS
10
76.411
20
-42.2473
11
76.5446
21
-42.2878
0
LINE
8
BLACK
6
CONTINUOUS
10
76.5446
20
-42.2878
11
76.6678
21
-42.3537
0
LINE
8
BLACK
6
CONTINUOUS
10
76.6678
20
-42.3537
11
76.7757
21
-42.4423
0
LINE
8
BLACK
6
CONTINUOUS
10
76.7757
20
-42.4423
11
76.8643
21
-42.5502
0
LINE
8
BLACK
6
CONTINUOUS
10
76.8643
20
-42.5502
11
76.9302
21
-42.6734
0
LINE
8
BLACK
6
CONTINUOUS
10
76.9302
20
-42.6734
11
76.9707
21
-42.807
0
LINE
8
BLACK
6
CONTINUOUS
10
76.9707
20
-42.807
11
76.985
21
-42.9521
0
LINE
8
BLACK
6
CONTINUOUS
10
76.985
20
-42.9521
11
76.985
21
-44.6159
0
LINE
8
BLACK
6
CONTINUOUS
10
76.985
20
-44.6159
11
76.9707
21
-44.761
0
LINE
8
BLACK
6
CONTINUOUS
10
76.9707
20
-44.761
11
76.9302
21
-44.8946
0
LINE
8
BLACK
6
CONTINUOUS
10
76.9302
20
-44.8946
11
76.8643
21
-45.0178
0
LINE
8
BLACK
6
CONTINUOUS
10
76.8643
20
-45.0178
11
76.7757
21
-45.1257
0
LINE
8
BLACK
6
CONTINUOUS
10
76.7757
20
-45.1257
11
76.6678
21
-45.2143
0
LINE
8
BLACK
6
CONTINUOUS
10
76.6678
20
-45.2143
11
76.5446
21
-45.2802
0
LINE
8
BLACK
6
CONTINUOUS
10
76.5446
20
-45.2802
11
76.411
21
-45.3207
0
LINE
8
BLACK
6
CONTINUOUS
10
76.411
20
-45.3207
11
76.2659
21
-45.335
0
LINE
8
BLACK
6
CONTINUOUS
10
76.2659
20
-45.335
11
74.1021
21
-45.335
0
LINE
8
BLACK
6
CONTINUOUS
10
74.1021
20
-45.335
11
73.957
21
-45.3207
0
LINE
8
BLACK
6
CONTINUOUS
10
73.957
20
-45.3207
11
73.8234
21
-45.2802
0
LINE
8
BLACK
6
CONTINUOUS
10
73.8234
20
-45.2802
11
73.7002
21
-45.2143
0
LINE
8
BLACK
6
CONTINUOUS
10
73.7002
20
-45.2143
11
73.5923
21
-45.1257
0
LINE
8
BLACK
6
CONTINUOUS
10
73.5923
20
-45.1257
11
73.5037
21
-45.0178
0
LINE
8
BLACK
6
CONTINUOUS
10
73.5037
20
-45.0178
11
73.4378
21
-44.8946
0
LINE
8
BLACK
6
CONTINUOUS
10
73.4378
20
-44.8946
11
73.3973
21
-44.761
0
LINE
8
BLACK
6
CONTINUOUS
10
73.3973
20
-44.761
11
73.383
21
-44.6159
0
LINE
8
BLACK
6
CONTINUOUS
10
73.383
20
-44.6159
11
73.383
21
-42.9521
0
LINE
8
BLACK
6
CONTINUOUS
10
73.383
20
-42.9521
11
73.3973
21
-42.807
0
LINE
8
BLACK
6
CONTINUOUS
10
73.3973
20
-42.807
11
73.4378
21
-42.6734
0
LINE
8
BLACK
6
CONTINUOUS
10
73.4378
20
-42.6734
11
73.5037
21
-42.5502
0
LINE
8
BLACK
6
CONTINUOUS
10
73.5037
20
-42.5502
11
73.5923
21
-42.4423
0
LINE
8
BLACK
6
CONTINUOUS
10
73.5923
20
-42.4423
11
73.7002
21
-42.3537
0
LINE
8
BLACK
6
CONTINUOUS
10
73.7002
20
-42.3537
11
73.8234
21
-42.2878
0
LINE
8
BLACK
6
CONTINUOUS
10
73.8234
20
-42.2878
11
73.957
21
-42.2473
0
LINE
8
BLACK
6
CONTINUOUS
10
73.957
20
-42.2473
11
74.1021
21
-42.233
0
LINE
8
BLACK
6
CONTINUOUS
10
74.1021
20
-42.233
11
76.2659
21
-42.233
0
LINE
8
BLACK
6
CONTINUOUS
10
76.2659
20
-42.233
11
76.411
21
-42.2473
0
LINE
8
BLACK
6
CONTINUOUS
10
94.2866
20
-41.6614
11
94.4778
21
-41.7406
0
LINE
8
BLACK
6
CONTINUOUS
10
94.4778
20
-41.7406
11
94.4778
21
-41.7406
0
LINE
8
BLACK
6
CONTINUOUS
10
94.4778
20
-41.7406
11
94.65
21
-41.8556
0
LINE
8
BLACK
6
CONTINUOUS
10
94.65
20
-41.8556
11
94.7964
21
-42.002
0
LINE
8
BLACK
6
CONTINUOUS
10
94.7964
20
-42.002
11
94.9114
21
-42.1742
0
LINE
8
BLACK
6
CONTINUOUS
10
94.9114
20
-42.1742
11
94.9906
21
-42.3654
0
LINE
8
BLACK
6
CONTINUOUS
10
94.9906
20
-42.3654
11
95.031
21
-42.5685
0
LINE
8
BLACK
6
CONTINUOUS
10
95.031
20
-42.5685
11
95.031
21
-42.7755
0
LINE
8
BLACK
6
CONTINUOUS
10
95.031
20
-42.7755
11
94.9906
21
-42.9786
0
LINE
8
BLACK
6
CONTINUOUS
10
94.9906
20
-42.9786
11
94.9782
21
-43.0085
0
LINE
8
BLACK
6
CONTINUOUS
10
94.9782
20
-43.0085
11
94.9114
21
-43.1698
0
LINE
8
BLACK
6
CONTINUOUS
10
94.9114
20
-43.1698
11
94.7964
21
-43.342
0
LINE
8
BLACK
6
CONTINUOUS
10
94.7964
20
-43.342
11
94.65
21
-43.4884
0
LINE
8
BLACK
6
CONTINUOUS
10
94.65
20
-43.4884
11
94.4778
21
-43.6034
0
LINE
8
BLACK
6
CONTINUOUS
10
94.4778
20
-43.6034
11
94.4778
21
-43.6034
0
LINE
8
BLACK
6
CONTINUOUS
10
94.4778
20
-43.6034
11
94.4778
21
-43.6034
0
LINE
8
BLACK
6
CONTINUOUS
10
94.4778
20
-43.6034
11
94.2866
21
-43.6826
0
LINE
8
BLACK
6
CONTINUOUS
10
94.2866
20
-43.6826
11
94.0835
21
-43.723
0
LINE
8
BLACK
6
CONTINUOUS
10
94.0835
20
-43.723
11
93.8765
21
-43.723
0
LINE
8
BLACK
6
CONTINUOUS
10
93.8765
20
-43.723
11
93.6734
21
-43.6826
0
LINE
8
BLACK
6
CONTINUOUS
10
93.6734
20
-43.6826
11
93.4822
21
-43.6034
0
LINE
8
BLACK
6
CONTINUOUS
10
93.4822
20
-43.6034
11
93.4822
21
-43.6034
0
LINE
8
BLACK
6
CONTINUOUS
10
93.4822
20
-43.6034
11
93.4822
21
-43.6034
0
LINE
8
BLACK
6
CONTINUOUS
10
93.4822
20
-43.6034
11
93.31
21
-43.4884
0
LINE
8
BLACK
6
CONTINUOUS
10
93.31
20
-43.4884
11
93.1636
21
-43.342
0
LINE
8
BLACK
6
CONTINUOUS
10
93.1636
20
-43.342
11
93.0486
21
-43.1698
0
LINE
8
BLACK
6
CONTINUOUS
10
93.0486
20
-43.1698
11
92.9818
21
-43.0085
0
LINE
8
BLACK
6
CONTINUOUS
10
92.9818
20
-43.0085
11
92.9694
21
-42.9786
0
LINE
8
BLACK
6
CONTINUOUS
10
92.9694
20
-42.9786
11
92.929
21
-42.7755
0
LINE
8
BLACK
6
CONTINUOUS
10
92.929
20
-42.7755
11
92.929
21
-42.5685
0
LINE
8
BLACK
6
CONTINUOUS
10
92.929
20
-42.5685
11
92.9694
21
-42.3654
0
LINE
8
BLACK
6
CONTINUOUS
10
92.9694
20
-42.3654
11
93.0486
21
-42.1742
0
LINE
8
BLACK
6
CONTINUOUS
10
93.0486
20
-42.1742
11
93.1636
21
-42.002
0
LINE
8
BLACK
6
CONTINUOUS
10
93.1636
20
-42.002
11
93.31
21
-41.8556
0
LINE
8
BLACK
6
CONTINUOUS
10
93.31
20
-41.8556
11
93.4822
21
-41.7406
0
LINE
8
BLACK
6
CONTINUOUS
10
93.4822
20
-41.7406
11
93.4822
21
-41.7406
0
LINE
8
BLACK
6
CONTINUOUS
10
93.4822
20
-41.7406
11
93.6734
21
-41.6614
0
LINE
8
BLACK
6
CONTINUOUS
10
93.6734
20
-41.6614
11
93.8765
21
-41.621
0
LINE
8
BLACK
6
CONTINUOUS
10
93.8765
20
-41.621
11
94.0835
21
-41.621
0
LINE
8
BLACK
6
CONTINUOUS
10
94.0835
20
-41.621
11
94.2866
21
-41.6614
0
LINE
8
BLACK
6
CONTINUOUS
10
100.787
20
-41.6614
11
100.978
21
-41.7406
0
LINE
8
BLACK
6
CONTINUOUS
10
100.978
20
-41.7406
11
100.978
21
-41.7406
0
LINE
8
BLACK
6
CONTINUOUS
10
100.978
20
-41.7406
11
101.15
21
-41.8556
0
LINE
8
BLACK
6
CONTINUOUS
10
101.15
20
-41.8556
11
101.296
21
-42.002
0
LINE
8
BLACK
6
CONTINUOUS
10
101.296
20
-42.002
11
101.411
21
-42.1742
0
LINE
8
BLACK
6
CONTINUOUS
10
101.411
20
-42.1742
11
101.491
21
-42.3654
0
LINE
8
BLACK
6
CONTINUOUS
10
101.491
20
-42.3654
11
101.531
21
-42.5685
0
LINE
8
BLACK
6
CONTINUOUS
10
101.531
20
-42.5685
11
101.531
21
-42.7755
0
LINE
8
BLACK
6
CONTINUOUS
10
101.531
20
-42.7755
11
101.491
21
-42.9786
0
LINE
8
BLACK
6
CONTINUOUS
10
101.491
20
-42.9786
11
101.478
21
-43.0085
0
LINE
8
BLACK
6
CONTINUOUS
10
101.478
20
-43.0085
11
101.411
21
-43.1698
0
LINE
8
BLACK
6
CONTINUOUS
10
101.411
20
-43.1698
11
101.296
21
-43.342
0
LINE
8
BLACK
6
CONTINUOUS
10
101.296
20
-43.342
11
101.15
21
-43.4884
0
LINE
8
BLACK
6
CONTINUOUS
10
101.15
20
-43.4884
11
100.978
21
-43.6034
0
LINE
8
BLACK
6
CONTINUOUS
10
100.978
20
-43.6034
11
100.978
21
-43.6034
0
LINE
8
BLACK
6
CONTINUOUS
10
100.978
20
-43.6034
11
100.978
21
-43.6034
0
LINE
8
BLACK
6
CONTINUOUS
10
100.978
20
-43.6034
11
100.787
21
-43.6826
0
LINE
8
BLACK
6
CONTINUOUS
10
100.787
20
-43.6826
11
100.584
21
-43.723
0
LINE
8
BLACK
6
CONTINUOUS
10
100.584
20
-43.723
11
100.376
21
-43.723
0
LINE
8
BLACK
6
CONTINUOUS
10
100.376
20
-43.723
11
100.173
21
-43.6826
0
LINE
8
BLACK
6
CONTINUOUS
10
100.173
20
-43.6826
11
99.9822
21
-43.6034
0
LINE
8
BLACK
6
CONTINUOUS
10
99.9822
20
-43.6034
11
99.9822
21
-43.6034
0
LINE
8
BLACK
6
CONTINUOUS
10
99.9822
20
-43.6034
11
99.9822
21
-43.6034
0
LINE
8
BLACK
6
CONTINUOUS
10
99.9822
20
-43.6034
11
99.81
21
-43.4884
0
LINE
8
BLACK
6
CONTINUOUS
10
99.81
20
-43.4884
11
99.6636
21
-43.342
0
LINE
8
BLACK
6
CONTINUOUS
10
99.6636
20
-43.342
11
99.5486
21
-43.1698
0
LINE
8
BLACK
6
CONTINUOUS
10
99.5486
20
-43.1698
11
99.4818
21
-43.0085
0
LINE
8
BLACK
6
CONTINUOUS
10
99.4818
20
-43.0085
11
99.4694
21
-42.9786
0
LINE
8
BLACK
6
CONTINUOUS
10
99.4694
20
-42.9786
11
99.429
21
-42.7755
0
LINE
8
BLACK
6
CONTINUOUS
10
99.429
20
-42.7755
11
99.429
21
-42.5685
0
LINE
8
BLACK
6
CONTINUOUS
10
99.429
20
-42.5685
11
99.4694
21
-42.3654
0
LINE
8
BLACK
6
CONTINUOUS
10
99.4694
20
-42.3654
11
99.5486
21
-42.1742
0
LINE
8
BLACK
6
CONTINUOUS
10
99.5486
20
-42.1742
11
99.6636
21
-42.002
0
LINE
8
BLACK
6
CONTINUOUS
10
99.6636
20
-42.002
11
99.81
21
-41.8556
0
LINE
8
BLACK
6
CONTINUOUS
10
99.81
20
-41.8556
11
99.9822
21
-41.7406
0
LINE
8
BLACK
6
CONTINUOUS
10
99.9822
20
-41.7406
11
99.9822
21
-41.7406
0
LINE
8
BLACK
6
CONTINUOUS
10
99.9822
20
-41.7406
11
100.173
21
-41.6614
0
LINE
8
BLACK
6
CONTINUOUS
10
100.173
20
-41.6614
11
100.376
21
-41.621
0
LINE
8
BLACK
6
CONTINUOUS
10
100.376
20
-41.621
11
100.584
21
-41.621
0
LINE
8
BLACK
6
CONTINUOUS
10
100.584
20
-41.621
11
100.787
21
-41.6614
  0
ENDSEC
  0
EOF
