G04 #@! TF.GenerationSoftware,KiCad,Pcbnew,(5.1.2)-2*
G04 #@! TF.CreationDate,2020-05-15T03:36:29+07:00*
G04 #@! TF.ProjectId,raspberypi_data,72617370-6265-4727-9970-695f64617461,rev?*
G04 #@! TF.SameCoordinates,Original*
G04 #@! TF.FileFunction,Copper,L1,Top*
G04 #@! TF.FilePolarity,Positive*
%FSLAX46Y46*%
G04 Gerber Fmt 4.6, Leading zero omitted, Abs format (unit mm)*
G04 Created by KiCad (PCBNEW (5.1.2)-2) date 2020-05-15 03:36:29*
%MOMM*%
%LPD*%
G04 APERTURE LIST*
%ADD10R,2.200000X2.200000*%
%ADD11C,1.600000*%
%ADD12R,1.600000X1.600000*%
%ADD13O,2.400000X2.400000*%
%ADD14R,2.400000X2.400000*%
%ADD15R,1.800000X1.800000*%
%ADD16C,1.800000*%
%ADD17R,3.500000X3.500000*%
%ADD18C,0.100000*%
%ADD19C,3.000000*%
%ADD20C,3.500000*%
%ADD21R,3.000000X3.000000*%
%ADD22O,1.600000X1.600000*%
%ADD23C,2.400000*%
%ADD24C,2.000000*%
%ADD25O,1.275000X2.500000*%
%ADD26R,2.500000X1.200000*%
%ADD27C,1.700000*%
%ADD28C,4.000000*%
%ADD29C,6.000000*%
%ADD30C,1.000000*%
G04 APERTURE END LIST*
D10*
X92964000Y-102489000D03*
X92964000Y-105029000D03*
X95504000Y-105029000D03*
X95504000Y-102489000D03*
X98044000Y-105029000D03*
X70104000Y-89662000D03*
X70104000Y-84582000D03*
X70104000Y-82042000D03*
X70104000Y-79502000D03*
X70104000Y-76962000D03*
X70104000Y-74422000D03*
X70104000Y-71882000D03*
X70104000Y-69342000D03*
X118364000Y-102362000D03*
X118364000Y-99822000D03*
X118364000Y-97282000D03*
X118364000Y-94742000D03*
X118364000Y-92202000D03*
X118364000Y-89662000D03*
X118364000Y-87122000D03*
X118364000Y-84582000D03*
X118364000Y-65278000D03*
X118364000Y-80518000D03*
X118364000Y-77978000D03*
X118364000Y-75438000D03*
X118364000Y-57658000D03*
X118364000Y-60198000D03*
X118364000Y-62738000D03*
X118364000Y-67818000D03*
X118364000Y-70358000D03*
X118364000Y-72898000D03*
X70104000Y-66802000D03*
X70104000Y-92202000D03*
X70104000Y-94742000D03*
X70104000Y-97282000D03*
X70104000Y-99822000D03*
X70104000Y-102362000D03*
X98044000Y-102489000D03*
X51308000Y-53848000D03*
X51308000Y-56388000D03*
X51308000Y-58928000D03*
X51308000Y-61468000D03*
X51308000Y-64008000D03*
X51308000Y-66548000D03*
X51308000Y-69088000D03*
X51308000Y-71628000D03*
X51308000Y-74168000D03*
X51308000Y-76708000D03*
X51308000Y-79248000D03*
X51308000Y-81788000D03*
X51308000Y-84328000D03*
X51308000Y-86868000D03*
X51308000Y-89408000D03*
X51308000Y-91948000D03*
X51308000Y-94488000D03*
X51308000Y-97028000D03*
X51308000Y-99568000D03*
X51308000Y-102108000D03*
X64516000Y-102108000D03*
X64516000Y-99568000D03*
X64516000Y-97028000D03*
X64516000Y-94488000D03*
X64516000Y-91948000D03*
X64516000Y-89408000D03*
X64516000Y-86868000D03*
X64516000Y-84328000D03*
X64516000Y-81788000D03*
X64516000Y-79248000D03*
X64516000Y-76708000D03*
X64516000Y-74168000D03*
X64516000Y-71628000D03*
X64516000Y-69088000D03*
X64516000Y-66548000D03*
X64516000Y-64008000D03*
X64516000Y-61468000D03*
X64516000Y-58928000D03*
X64516000Y-56388000D03*
X64516000Y-53848000D03*
X43180000Y-76962000D03*
X43180000Y-74422000D03*
X43180000Y-71882000D03*
X43180000Y-69342000D03*
X43180000Y-66802000D03*
X43180000Y-64262000D03*
X43180000Y-61722000D03*
X43180000Y-59182000D03*
X43180000Y-56642000D03*
X43180000Y-54102000D03*
X43180000Y-100584000D03*
X43180000Y-98044000D03*
X43180000Y-95504000D03*
X43180000Y-92964000D03*
X43180000Y-90424000D03*
X43180000Y-87884000D03*
X43180000Y-85344000D03*
X43180000Y-82804000D03*
D11*
X85344000Y-55594000D03*
D12*
X85344000Y-53594000D03*
X91440000Y-78740000D03*
D11*
X93440000Y-78740000D03*
D12*
X87090000Y-83820000D03*
D11*
X85090000Y-83820000D03*
X93440000Y-52070000D03*
D12*
X91440000Y-52070000D03*
D13*
X80010000Y-64008000D03*
D14*
X80010000Y-53848000D03*
D15*
X85344000Y-59436000D03*
D16*
X85344000Y-61976000D03*
X87630000Y-88646000D03*
D15*
X85090000Y-88646000D03*
X91440000Y-88646000D03*
D16*
X93980000Y-88646000D03*
D14*
X74930000Y-74930000D03*
D13*
X74930000Y-85090000D03*
D16*
X81026000Y-88646000D03*
D15*
X78486000Y-88646000D03*
D17*
X75184000Y-49784000D03*
D18*
G36*
X76257513Y-42287611D02*
G01*
X76330318Y-42298411D01*
X76401714Y-42316295D01*
X76471013Y-42341090D01*
X76537548Y-42372559D01*
X76600678Y-42410398D01*
X76659795Y-42454242D01*
X76714330Y-42503670D01*
X76763758Y-42558205D01*
X76807602Y-42617322D01*
X76845441Y-42680452D01*
X76876910Y-42746987D01*
X76901705Y-42816286D01*
X76919589Y-42887682D01*
X76930389Y-42960487D01*
X76934000Y-43034000D01*
X76934000Y-44534000D01*
X76930389Y-44607513D01*
X76919589Y-44680318D01*
X76901705Y-44751714D01*
X76876910Y-44821013D01*
X76845441Y-44887548D01*
X76807602Y-44950678D01*
X76763758Y-45009795D01*
X76714330Y-45064330D01*
X76659795Y-45113758D01*
X76600678Y-45157602D01*
X76537548Y-45195441D01*
X76471013Y-45226910D01*
X76401714Y-45251705D01*
X76330318Y-45269589D01*
X76257513Y-45280389D01*
X76184000Y-45284000D01*
X74184000Y-45284000D01*
X74110487Y-45280389D01*
X74037682Y-45269589D01*
X73966286Y-45251705D01*
X73896987Y-45226910D01*
X73830452Y-45195441D01*
X73767322Y-45157602D01*
X73708205Y-45113758D01*
X73653670Y-45064330D01*
X73604242Y-45009795D01*
X73560398Y-44950678D01*
X73522559Y-44887548D01*
X73491090Y-44821013D01*
X73466295Y-44751714D01*
X73448411Y-44680318D01*
X73437611Y-44607513D01*
X73434000Y-44534000D01*
X73434000Y-43034000D01*
X73437611Y-42960487D01*
X73448411Y-42887682D01*
X73466295Y-42816286D01*
X73491090Y-42746987D01*
X73522559Y-42680452D01*
X73560398Y-42617322D01*
X73604242Y-42558205D01*
X73653670Y-42503670D01*
X73708205Y-42454242D01*
X73767322Y-42410398D01*
X73830452Y-42372559D01*
X73896987Y-42341090D01*
X73966286Y-42316295D01*
X74037682Y-42298411D01*
X74110487Y-42287611D01*
X74184000Y-42284000D01*
X76184000Y-42284000D01*
X76257513Y-42287611D01*
X76257513Y-42287611D01*
G37*
D19*
X75184000Y-43784000D03*
D18*
G36*
X71444765Y-45038213D02*
G01*
X71529704Y-45050813D01*
X71612999Y-45071677D01*
X71693848Y-45100605D01*
X71771472Y-45137319D01*
X71845124Y-45181464D01*
X71914094Y-45232616D01*
X71977718Y-45290282D01*
X72035384Y-45353906D01*
X72086536Y-45422876D01*
X72130681Y-45496528D01*
X72167395Y-45574152D01*
X72196323Y-45655001D01*
X72217187Y-45738296D01*
X72229787Y-45823235D01*
X72234000Y-45909000D01*
X72234000Y-47659000D01*
X72229787Y-47744765D01*
X72217187Y-47829704D01*
X72196323Y-47912999D01*
X72167395Y-47993848D01*
X72130681Y-48071472D01*
X72086536Y-48145124D01*
X72035384Y-48214094D01*
X71977718Y-48277718D01*
X71914094Y-48335384D01*
X71845124Y-48386536D01*
X71771472Y-48430681D01*
X71693848Y-48467395D01*
X71612999Y-48496323D01*
X71529704Y-48517187D01*
X71444765Y-48529787D01*
X71359000Y-48534000D01*
X69609000Y-48534000D01*
X69523235Y-48529787D01*
X69438296Y-48517187D01*
X69355001Y-48496323D01*
X69274152Y-48467395D01*
X69196528Y-48430681D01*
X69122876Y-48386536D01*
X69053906Y-48335384D01*
X68990282Y-48277718D01*
X68932616Y-48214094D01*
X68881464Y-48145124D01*
X68837319Y-48071472D01*
X68800605Y-47993848D01*
X68771677Y-47912999D01*
X68750813Y-47829704D01*
X68738213Y-47744765D01*
X68734000Y-47659000D01*
X68734000Y-45909000D01*
X68738213Y-45823235D01*
X68750813Y-45738296D01*
X68771677Y-45655001D01*
X68800605Y-45574152D01*
X68837319Y-45496528D01*
X68881464Y-45422876D01*
X68932616Y-45353906D01*
X68990282Y-45290282D01*
X69053906Y-45232616D01*
X69122876Y-45181464D01*
X69196528Y-45137319D01*
X69274152Y-45100605D01*
X69355001Y-45071677D01*
X69438296Y-45050813D01*
X69523235Y-45038213D01*
X69609000Y-45034000D01*
X71359000Y-45034000D01*
X71444765Y-45038213D01*
X71444765Y-45038213D01*
G37*
D20*
X70484000Y-46784000D03*
D10*
X97282000Y-50038000D03*
X97282000Y-52578000D03*
X97282000Y-55118000D03*
X97282000Y-57658000D03*
X97282000Y-60198000D03*
X97282000Y-62738000D03*
D21*
X84074000Y-45720000D03*
D19*
X89154000Y-45720000D03*
D10*
X102362000Y-51054000D03*
X102362000Y-53594000D03*
X102362000Y-56134000D03*
X102362000Y-58674000D03*
X97282000Y-67818000D03*
X97282000Y-70358000D03*
X97282000Y-72898000D03*
X97282000Y-75438000D03*
X97282000Y-77978000D03*
X97282000Y-80518000D03*
D11*
X85090000Y-77978000D03*
D22*
X87630000Y-77978000D03*
D23*
X74676000Y-55372000D03*
D13*
X74676000Y-62992000D03*
X87630000Y-95504000D03*
D23*
X80010000Y-95504000D03*
X108712000Y-85090000D03*
D13*
X108712000Y-92710000D03*
X92456000Y-74422000D03*
D23*
X92456000Y-66802000D03*
X79756000Y-76200000D03*
D13*
X79756000Y-83820000D03*
X92456000Y-56134000D03*
D23*
X92456000Y-63754000D03*
D10*
X87376000Y-72390000D03*
X87376000Y-69850000D03*
X87376000Y-67310000D03*
D24*
X93980000Y-47172000D03*
X93980000Y-42672000D03*
X100480000Y-47172000D03*
X100480000Y-42672000D03*
D25*
X73914000Y-69596000D03*
X75614000Y-69596000D03*
X77314000Y-69596000D03*
X79014000Y-69596000D03*
X80714000Y-69596000D03*
D10*
X106172000Y-44704000D03*
X113792000Y-77724000D03*
X106172000Y-47244000D03*
X113792000Y-75184000D03*
X106172000Y-49784000D03*
X113792000Y-72644000D03*
X106172000Y-52324000D03*
X113792000Y-70104000D03*
D26*
X106172000Y-54864000D03*
D10*
X113792000Y-67564000D03*
D26*
X106172000Y-57404000D03*
D10*
X113792000Y-65024000D03*
X106172000Y-59944000D03*
X113792000Y-62484000D03*
X106172000Y-62484000D03*
X113792000Y-59944000D03*
X106172000Y-65024000D03*
X113792000Y-57404000D03*
X106172000Y-67564000D03*
X113792000Y-54864000D03*
X106172000Y-70104000D03*
X113792000Y-52324000D03*
X106172000Y-72644000D03*
X113792000Y-49784000D03*
X106172000Y-75184000D03*
X113792000Y-47244000D03*
X106172000Y-77724000D03*
X113792000Y-44704000D03*
D27*
X103124000Y-64008000D03*
X103124000Y-69008000D03*
D11*
X100330000Y-64048000D03*
X100330000Y-66548000D03*
X100330000Y-69088000D03*
X100330000Y-71588000D03*
D28*
X121412000Y-106172000D03*
D29*
X57658000Y-102870000D03*
X45212000Y-44196000D03*
X57404000Y-44196000D03*
D24*
X109982000Y-57912000D03*
X109886002Y-65278000D03*
X102362000Y-73152000D03*
X102616000Y-78232000D03*
D30*
X109982000Y-65182002D02*
X109886002Y-65278000D01*
X109982000Y-57912000D02*
X109982000Y-65182002D01*
X93980000Y-42672000D02*
X100480000Y-42672000D01*
X102362000Y-77978000D02*
X102616000Y-78232000D01*
X102362000Y-73152000D02*
X102362000Y-77978000D01*
M02*
