G04 #@! TF.GenerationSoftware,KiCad,Pcbnew,(5.1.2)-2*
G04 #@! TF.CreationDate,2020-05-15T03:36:29+07:00*
G04 #@! TF.ProjectId,raspberypi_data,72617370-6265-4727-9970-695f64617461,rev?*
G04 #@! TF.SameCoordinates,Original*
G04 #@! TF.FileFunction,Soldermask,Top*
G04 #@! TF.FilePolarity,Negative*
%FSLAX46Y46*%
G04 Gerber Fmt 4.6, Leading zero omitted, Abs format (unit mm)*
G04 Created by KiCad (PCBNEW (5.1.2)-2) date 2020-05-15 03:36:29*
%MOMM*%
%LPD*%
G04 APERTURE LIST*
%ADD10C,0.100000*%
G04 APERTURE END LIST*
D10*
G36*
X103499256Y-103293298D02*
G01*
X103605579Y-103314447D01*
X103906042Y-103438903D01*
X104176451Y-103619585D01*
X104406415Y-103849549D01*
X104587097Y-104119958D01*
X104711553Y-104420421D01*
X104775000Y-104739391D01*
X104775000Y-105064609D01*
X104711553Y-105383579D01*
X104587097Y-105684042D01*
X104406415Y-105954451D01*
X104176451Y-106184415D01*
X103906042Y-106365097D01*
X103605579Y-106489553D01*
X103499256Y-106510702D01*
X103286611Y-106553000D01*
X102961389Y-106553000D01*
X102748744Y-106510702D01*
X102642421Y-106489553D01*
X102341958Y-106365097D01*
X102071549Y-106184415D01*
X101841585Y-105954451D01*
X101660903Y-105684042D01*
X101536447Y-105383579D01*
X101473000Y-105064609D01*
X101473000Y-104739391D01*
X101536447Y-104420421D01*
X101660903Y-104119958D01*
X101841585Y-103849549D01*
X102071549Y-103619585D01*
X102341958Y-103438903D01*
X102642421Y-103314447D01*
X102748744Y-103293298D01*
X102961389Y-103251000D01*
X103286611Y-103251000D01*
X103499256Y-103293298D01*
X103499256Y-103293298D01*
G37*
G36*
X75559256Y-103293298D02*
G01*
X75665579Y-103314447D01*
X75966042Y-103438903D01*
X76236451Y-103619585D01*
X76466415Y-103849549D01*
X76647097Y-104119958D01*
X76771553Y-104420421D01*
X76835000Y-104739391D01*
X76835000Y-105064609D01*
X76771553Y-105383579D01*
X76647097Y-105684042D01*
X76466415Y-105954451D01*
X76236451Y-106184415D01*
X75966042Y-106365097D01*
X75665579Y-106489553D01*
X75559256Y-106510702D01*
X75346611Y-106553000D01*
X75021389Y-106553000D01*
X74808744Y-106510702D01*
X74702421Y-106489553D01*
X74401958Y-106365097D01*
X74131549Y-106184415D01*
X73901585Y-105954451D01*
X73720903Y-105684042D01*
X73596447Y-105383579D01*
X73533000Y-105064609D01*
X73533000Y-104739391D01*
X73596447Y-104420421D01*
X73720903Y-104119958D01*
X73901585Y-103849549D01*
X74131549Y-103619585D01*
X74401958Y-103438903D01*
X74702421Y-103314447D01*
X74808744Y-103293298D01*
X75021389Y-103251000D01*
X75346611Y-103251000D01*
X75559256Y-103293298D01*
X75559256Y-103293298D01*
G37*
G36*
X99195000Y-106180000D02*
G01*
X91813000Y-106180000D01*
X91813000Y-101338000D01*
X99195000Y-101338000D01*
X99195000Y-106180000D01*
X99195000Y-106180000D01*
G37*
G36*
X71255000Y-103513000D02*
G01*
X68953000Y-103513000D01*
X68953000Y-88511000D01*
X71255000Y-88511000D01*
X71255000Y-103513000D01*
X71255000Y-103513000D01*
G37*
G36*
X119515000Y-103513000D02*
G01*
X117213000Y-103513000D01*
X117213000Y-83431000D01*
X119515000Y-83431000D01*
X119515000Y-103513000D01*
X119515000Y-103513000D01*
G37*
G36*
X52459000Y-103259000D02*
G01*
X50157000Y-103259000D01*
X50157000Y-52697000D01*
X52459000Y-52697000D01*
X52459000Y-103259000D01*
X52459000Y-103259000D01*
G37*
G36*
X65667000Y-103259000D02*
G01*
X63365000Y-103259000D01*
X63365000Y-52697000D01*
X65667000Y-52697000D01*
X65667000Y-103259000D01*
X65667000Y-103259000D01*
G37*
G36*
X44331000Y-101735000D02*
G01*
X42029000Y-101735000D01*
X42029000Y-81653000D01*
X44331000Y-81653000D01*
X44331000Y-101735000D01*
X44331000Y-101735000D01*
G37*
G36*
X80374903Y-94301075D02*
G01*
X80475236Y-94342634D01*
X80602571Y-94395378D01*
X80807466Y-94532285D01*
X80981715Y-94706534D01*
X81047922Y-94805620D01*
X81118623Y-94911431D01*
X81212925Y-95139097D01*
X81261000Y-95380786D01*
X81261000Y-95627214D01*
X81236728Y-95749237D01*
X81212925Y-95868903D01*
X81118622Y-96096571D01*
X80981715Y-96301466D01*
X80807466Y-96475715D01*
X80602571Y-96612622D01*
X80602570Y-96612623D01*
X80602569Y-96612623D01*
X80374903Y-96706925D01*
X80133214Y-96755000D01*
X79886786Y-96755000D01*
X79645097Y-96706925D01*
X79417431Y-96612623D01*
X79417430Y-96612623D01*
X79417429Y-96612622D01*
X79212534Y-96475715D01*
X79038285Y-96301466D01*
X78901378Y-96096571D01*
X78807075Y-95868903D01*
X78783272Y-95749237D01*
X78759000Y-95627214D01*
X78759000Y-95380786D01*
X78807075Y-95139097D01*
X78901377Y-94911431D01*
X78972078Y-94805620D01*
X79038285Y-94706534D01*
X79212534Y-94532285D01*
X79417429Y-94395378D01*
X79544765Y-94342634D01*
X79645097Y-94301075D01*
X79886786Y-94253000D01*
X80133214Y-94253000D01*
X80374903Y-94301075D01*
X80374903Y-94301075D01*
G37*
G36*
X87875239Y-94271101D02*
G01*
X88111053Y-94342634D01*
X88328381Y-94458799D01*
X88518871Y-94615129D01*
X88675201Y-94805619D01*
X88791366Y-95022947D01*
X88862899Y-95258761D01*
X88887053Y-95504000D01*
X88862899Y-95749239D01*
X88791366Y-95985053D01*
X88675201Y-96202381D01*
X88518871Y-96392871D01*
X88328381Y-96549201D01*
X88111053Y-96665366D01*
X87875239Y-96736899D01*
X87691457Y-96755000D01*
X87568543Y-96755000D01*
X87384761Y-96736899D01*
X87148947Y-96665366D01*
X86931619Y-96549201D01*
X86741129Y-96392871D01*
X86584799Y-96202381D01*
X86468634Y-95985053D01*
X86397101Y-95749239D01*
X86372947Y-95504000D01*
X86397101Y-95258761D01*
X86468634Y-95022947D01*
X86584799Y-94805619D01*
X86741129Y-94615129D01*
X86931619Y-94458799D01*
X87148947Y-94342634D01*
X87384761Y-94271101D01*
X87568543Y-94253000D01*
X87691457Y-94253000D01*
X87875239Y-94271101D01*
X87875239Y-94271101D01*
G37*
G36*
X108957239Y-91477101D02*
G01*
X109193053Y-91548634D01*
X109410381Y-91664799D01*
X109600871Y-91821129D01*
X109757201Y-92011619D01*
X109873366Y-92228947D01*
X109944899Y-92464761D01*
X109969053Y-92710000D01*
X109944899Y-92955239D01*
X109873366Y-93191053D01*
X109757201Y-93408381D01*
X109600871Y-93598871D01*
X109410381Y-93755201D01*
X109193053Y-93871366D01*
X108957239Y-93942899D01*
X108773457Y-93961000D01*
X108650543Y-93961000D01*
X108466761Y-93942899D01*
X108230947Y-93871366D01*
X108013619Y-93755201D01*
X107823129Y-93598871D01*
X107666799Y-93408381D01*
X107550634Y-93191053D01*
X107479101Y-92955239D01*
X107454947Y-92710000D01*
X107479101Y-92464761D01*
X107550634Y-92228947D01*
X107666799Y-92011619D01*
X107823129Y-91821129D01*
X108013619Y-91664799D01*
X108230947Y-91548634D01*
X108466761Y-91477101D01*
X108650543Y-91459000D01*
X108773457Y-91459000D01*
X108957239Y-91477101D01*
X108957239Y-91477101D01*
G37*
G36*
X81303395Y-87731546D02*
G01*
X81476466Y-87803234D01*
X81476467Y-87803235D01*
X81632227Y-87907310D01*
X81764690Y-88039773D01*
X81764691Y-88039775D01*
X81868766Y-88195534D01*
X81940454Y-88368605D01*
X81977000Y-88552333D01*
X81977000Y-88739667D01*
X81940454Y-88923395D01*
X81868766Y-89096466D01*
X81868765Y-89096467D01*
X81764690Y-89252227D01*
X81632227Y-89384690D01*
X81553818Y-89437081D01*
X81476466Y-89488766D01*
X81303395Y-89560454D01*
X81119667Y-89597000D01*
X80932333Y-89597000D01*
X80748605Y-89560454D01*
X80575534Y-89488766D01*
X80498182Y-89437081D01*
X80419773Y-89384690D01*
X80287310Y-89252227D01*
X80183235Y-89096467D01*
X80183234Y-89096466D01*
X80111546Y-88923395D01*
X80075000Y-88739667D01*
X80075000Y-88552333D01*
X80111546Y-88368605D01*
X80183234Y-88195534D01*
X80287309Y-88039775D01*
X80287310Y-88039773D01*
X80419773Y-87907310D01*
X80575533Y-87803235D01*
X80575534Y-87803234D01*
X80748605Y-87731546D01*
X80932333Y-87695000D01*
X81119667Y-87695000D01*
X81303395Y-87731546D01*
X81303395Y-87731546D01*
G37*
G36*
X87907395Y-87731546D02*
G01*
X88080466Y-87803234D01*
X88080467Y-87803235D01*
X88236227Y-87907310D01*
X88368690Y-88039773D01*
X88368691Y-88039775D01*
X88472766Y-88195534D01*
X88544454Y-88368605D01*
X88581000Y-88552333D01*
X88581000Y-88739667D01*
X88544454Y-88923395D01*
X88472766Y-89096466D01*
X88472765Y-89096467D01*
X88368690Y-89252227D01*
X88236227Y-89384690D01*
X88157818Y-89437081D01*
X88080466Y-89488766D01*
X87907395Y-89560454D01*
X87723667Y-89597000D01*
X87536333Y-89597000D01*
X87352605Y-89560454D01*
X87179534Y-89488766D01*
X87102182Y-89437081D01*
X87023773Y-89384690D01*
X86891310Y-89252227D01*
X86787235Y-89096467D01*
X86787234Y-89096466D01*
X86715546Y-88923395D01*
X86679000Y-88739667D01*
X86679000Y-88552333D01*
X86715546Y-88368605D01*
X86787234Y-88195534D01*
X86891309Y-88039775D01*
X86891310Y-88039773D01*
X87023773Y-87907310D01*
X87179533Y-87803235D01*
X87179534Y-87803234D01*
X87352605Y-87731546D01*
X87536333Y-87695000D01*
X87723667Y-87695000D01*
X87907395Y-87731546D01*
X87907395Y-87731546D01*
G37*
G36*
X86041000Y-89597000D02*
G01*
X84139000Y-89597000D01*
X84139000Y-87695000D01*
X86041000Y-87695000D01*
X86041000Y-89597000D01*
X86041000Y-89597000D01*
G37*
G36*
X92391000Y-89597000D02*
G01*
X90489000Y-89597000D01*
X90489000Y-87695000D01*
X92391000Y-87695000D01*
X92391000Y-89597000D01*
X92391000Y-89597000D01*
G37*
G36*
X94257395Y-87731546D02*
G01*
X94430466Y-87803234D01*
X94430467Y-87803235D01*
X94586227Y-87907310D01*
X94718690Y-88039773D01*
X94718691Y-88039775D01*
X94822766Y-88195534D01*
X94894454Y-88368605D01*
X94931000Y-88552333D01*
X94931000Y-88739667D01*
X94894454Y-88923395D01*
X94822766Y-89096466D01*
X94822765Y-89096467D01*
X94718690Y-89252227D01*
X94586227Y-89384690D01*
X94507818Y-89437081D01*
X94430466Y-89488766D01*
X94257395Y-89560454D01*
X94073667Y-89597000D01*
X93886333Y-89597000D01*
X93702605Y-89560454D01*
X93529534Y-89488766D01*
X93452182Y-89437081D01*
X93373773Y-89384690D01*
X93241310Y-89252227D01*
X93137235Y-89096467D01*
X93137234Y-89096466D01*
X93065546Y-88923395D01*
X93029000Y-88739667D01*
X93029000Y-88552333D01*
X93065546Y-88368605D01*
X93137234Y-88195534D01*
X93241309Y-88039775D01*
X93241310Y-88039773D01*
X93373773Y-87907310D01*
X93529533Y-87803235D01*
X93529534Y-87803234D01*
X93702605Y-87731546D01*
X93886333Y-87695000D01*
X94073667Y-87695000D01*
X94257395Y-87731546D01*
X94257395Y-87731546D01*
G37*
G36*
X79437000Y-89597000D02*
G01*
X77535000Y-89597000D01*
X77535000Y-87695000D01*
X79437000Y-87695000D01*
X79437000Y-89597000D01*
X79437000Y-89597000D01*
G37*
G36*
X75175239Y-83857101D02*
G01*
X75411053Y-83928634D01*
X75628381Y-84044799D01*
X75818871Y-84201129D01*
X75975201Y-84391619D01*
X76091366Y-84608947D01*
X76162899Y-84844761D01*
X76187053Y-85090000D01*
X76162899Y-85335239D01*
X76091366Y-85571053D01*
X75975201Y-85788381D01*
X75818871Y-85978871D01*
X75628381Y-86135201D01*
X75411053Y-86251366D01*
X75175239Y-86322899D01*
X74991457Y-86341000D01*
X74868543Y-86341000D01*
X74684761Y-86322899D01*
X74448947Y-86251366D01*
X74231619Y-86135201D01*
X74041129Y-85978871D01*
X73884799Y-85788381D01*
X73768634Y-85571053D01*
X73697101Y-85335239D01*
X73672947Y-85090000D01*
X73697101Y-84844761D01*
X73768634Y-84608947D01*
X73884799Y-84391619D01*
X74041129Y-84201129D01*
X74231619Y-84044799D01*
X74448947Y-83928634D01*
X74684761Y-83857101D01*
X74868543Y-83839000D01*
X74991457Y-83839000D01*
X75175239Y-83857101D01*
X75175239Y-83857101D01*
G37*
G36*
X109076903Y-83887075D02*
G01*
X109177236Y-83928634D01*
X109304571Y-83981378D01*
X109509466Y-84118285D01*
X109683715Y-84292534D01*
X109820622Y-84497429D01*
X109914925Y-84725097D01*
X109963000Y-84966787D01*
X109963000Y-85213213D01*
X109914925Y-85454903D01*
X109820622Y-85682571D01*
X109683715Y-85887466D01*
X109509466Y-86061715D01*
X109304571Y-86198622D01*
X109304570Y-86198623D01*
X109304569Y-86198623D01*
X109076903Y-86292925D01*
X108835214Y-86341000D01*
X108588786Y-86341000D01*
X108347097Y-86292925D01*
X108119431Y-86198623D01*
X108119430Y-86198623D01*
X108119429Y-86198622D01*
X107914534Y-86061715D01*
X107740285Y-85887466D01*
X107603378Y-85682571D01*
X107509075Y-85454903D01*
X107461000Y-85213213D01*
X107461000Y-84966787D01*
X107509075Y-84725097D01*
X107603378Y-84497429D01*
X107740285Y-84292534D01*
X107914534Y-84118285D01*
X108119429Y-83981378D01*
X108246765Y-83928634D01*
X108347097Y-83887075D01*
X108588786Y-83839000D01*
X108835214Y-83839000D01*
X109076903Y-83887075D01*
X109076903Y-83887075D01*
G37*
G36*
X71255000Y-85733000D02*
G01*
X68953000Y-85733000D01*
X68953000Y-65651000D01*
X71255000Y-65651000D01*
X71255000Y-85733000D01*
X71255000Y-85733000D01*
G37*
G36*
X80001239Y-82587101D02*
G01*
X80237053Y-82658634D01*
X80454381Y-82774799D01*
X80644871Y-82931129D01*
X80801201Y-83121619D01*
X80917366Y-83338947D01*
X80988899Y-83574761D01*
X81013053Y-83820000D01*
X80988899Y-84065239D01*
X80917366Y-84301053D01*
X80801201Y-84518381D01*
X80644871Y-84708871D01*
X80454381Y-84865201D01*
X80237053Y-84981366D01*
X80001239Y-85052899D01*
X79817457Y-85071000D01*
X79694543Y-85071000D01*
X79510761Y-85052899D01*
X79274947Y-84981366D01*
X79057619Y-84865201D01*
X78867129Y-84708871D01*
X78710799Y-84518381D01*
X78594634Y-84301053D01*
X78523101Y-84065239D01*
X78498947Y-83820000D01*
X78523101Y-83574761D01*
X78594634Y-83338947D01*
X78710799Y-83121619D01*
X78867129Y-82931129D01*
X79057619Y-82774799D01*
X79274947Y-82658634D01*
X79510761Y-82587101D01*
X79694543Y-82569000D01*
X79817457Y-82569000D01*
X80001239Y-82587101D01*
X80001239Y-82587101D01*
G37*
G36*
X85338228Y-83001703D02*
G01*
X85493100Y-83065853D01*
X85632481Y-83158985D01*
X85751015Y-83277519D01*
X85844147Y-83416900D01*
X85908297Y-83571772D01*
X85941000Y-83736184D01*
X85941000Y-83903816D01*
X85908297Y-84068228D01*
X85844147Y-84223100D01*
X85751015Y-84362481D01*
X85632481Y-84481015D01*
X85493100Y-84574147D01*
X85338228Y-84638297D01*
X85173816Y-84671000D01*
X85006184Y-84671000D01*
X84841772Y-84638297D01*
X84686900Y-84574147D01*
X84547519Y-84481015D01*
X84428985Y-84362481D01*
X84335853Y-84223100D01*
X84271703Y-84068228D01*
X84239000Y-83903816D01*
X84239000Y-83736184D01*
X84271703Y-83571772D01*
X84335853Y-83416900D01*
X84428985Y-83277519D01*
X84547519Y-83158985D01*
X84686900Y-83065853D01*
X84841772Y-83001703D01*
X85006184Y-82969000D01*
X85173816Y-82969000D01*
X85338228Y-83001703D01*
X85338228Y-83001703D01*
G37*
G36*
X87941000Y-84671000D02*
G01*
X86239000Y-84671000D01*
X86239000Y-82969000D01*
X87941000Y-82969000D01*
X87941000Y-84671000D01*
X87941000Y-84671000D01*
G37*
G36*
X98433000Y-81669000D02*
G01*
X96131000Y-81669000D01*
X96131000Y-66667000D01*
X98433000Y-66667000D01*
X98433000Y-81669000D01*
X98433000Y-81669000D01*
G37*
G36*
X119515000Y-81669000D02*
G01*
X117213000Y-81669000D01*
X117213000Y-56507000D01*
X119515000Y-56507000D01*
X119515000Y-81669000D01*
X119515000Y-81669000D01*
G37*
G36*
X92291000Y-79591000D02*
G01*
X90589000Y-79591000D01*
X90589000Y-77889000D01*
X92291000Y-77889000D01*
X92291000Y-79591000D01*
X92291000Y-79591000D01*
G37*
G36*
X93688228Y-77921703D02*
G01*
X93843100Y-77985853D01*
X93982481Y-78078985D01*
X94101015Y-78197519D01*
X94194147Y-78336900D01*
X94258297Y-78491772D01*
X94291000Y-78656184D01*
X94291000Y-78823816D01*
X94258297Y-78988228D01*
X94194147Y-79143100D01*
X94101015Y-79282481D01*
X93982481Y-79401015D01*
X93843100Y-79494147D01*
X93688228Y-79558297D01*
X93523816Y-79591000D01*
X93356184Y-79591000D01*
X93191772Y-79558297D01*
X93036900Y-79494147D01*
X92897519Y-79401015D01*
X92778985Y-79282481D01*
X92685853Y-79143100D01*
X92621703Y-78988228D01*
X92589000Y-78823816D01*
X92589000Y-78656184D01*
X92621703Y-78491772D01*
X92685853Y-78336900D01*
X92778985Y-78197519D01*
X92897519Y-78078985D01*
X93036900Y-77985853D01*
X93191772Y-77921703D01*
X93356184Y-77889000D01*
X93523816Y-77889000D01*
X93688228Y-77921703D01*
X93688228Y-77921703D01*
G37*
G36*
X114943000Y-78875000D02*
G01*
X112641000Y-78875000D01*
X112641000Y-43553000D01*
X114943000Y-43553000D01*
X114943000Y-78875000D01*
X114943000Y-78875000D01*
G37*
G36*
X107323000Y-78875000D02*
G01*
X105021000Y-78875000D01*
X105021000Y-58793000D01*
X107323000Y-58793000D01*
X107323000Y-78875000D01*
X107323000Y-78875000D01*
G37*
G36*
X87796823Y-77139313D02*
G01*
X87957242Y-77187976D01*
X88024361Y-77223852D01*
X88105078Y-77266996D01*
X88234659Y-77373341D01*
X88341004Y-77502922D01*
X88341005Y-77502924D01*
X88420024Y-77650758D01*
X88468687Y-77811177D01*
X88485117Y-77978000D01*
X88468687Y-78144823D01*
X88420024Y-78305242D01*
X88379477Y-78381100D01*
X88341004Y-78453078D01*
X88234659Y-78582659D01*
X88105078Y-78689004D01*
X88105076Y-78689005D01*
X87957242Y-78768024D01*
X87796823Y-78816687D01*
X87671804Y-78829000D01*
X87588196Y-78829000D01*
X87463177Y-78816687D01*
X87302758Y-78768024D01*
X87154924Y-78689005D01*
X87154922Y-78689004D01*
X87025341Y-78582659D01*
X86918996Y-78453078D01*
X86880523Y-78381100D01*
X86839976Y-78305242D01*
X86791313Y-78144823D01*
X86774883Y-77978000D01*
X86791313Y-77811177D01*
X86839976Y-77650758D01*
X86918995Y-77502924D01*
X86918996Y-77502922D01*
X87025341Y-77373341D01*
X87154922Y-77266996D01*
X87235639Y-77223852D01*
X87302758Y-77187976D01*
X87463177Y-77139313D01*
X87588196Y-77127000D01*
X87671804Y-77127000D01*
X87796823Y-77139313D01*
X87796823Y-77139313D01*
G37*
G36*
X85338228Y-77159703D02*
G01*
X85493100Y-77223853D01*
X85632481Y-77316985D01*
X85751015Y-77435519D01*
X85844147Y-77574900D01*
X85908297Y-77729772D01*
X85941000Y-77894184D01*
X85941000Y-78061816D01*
X85908297Y-78226228D01*
X85844147Y-78381100D01*
X85751015Y-78520481D01*
X85632481Y-78639015D01*
X85493100Y-78732147D01*
X85338228Y-78796297D01*
X85173816Y-78829000D01*
X85006184Y-78829000D01*
X84841772Y-78796297D01*
X84686900Y-78732147D01*
X84547519Y-78639015D01*
X84428985Y-78520481D01*
X84335853Y-78381100D01*
X84271703Y-78226228D01*
X84239000Y-78061816D01*
X84239000Y-77894184D01*
X84271703Y-77729772D01*
X84335853Y-77574900D01*
X84428985Y-77435519D01*
X84547519Y-77316985D01*
X84686900Y-77223853D01*
X84841772Y-77159703D01*
X85006184Y-77127000D01*
X85173816Y-77127000D01*
X85338228Y-77159703D01*
X85338228Y-77159703D01*
G37*
G36*
X44331000Y-78113000D02*
G01*
X42029000Y-78113000D01*
X42029000Y-52951000D01*
X44331000Y-52951000D01*
X44331000Y-78113000D01*
X44331000Y-78113000D01*
G37*
G36*
X80120903Y-74997075D02*
G01*
X80348571Y-75091378D01*
X80553466Y-75228285D01*
X80727715Y-75402534D01*
X80864622Y-75607429D01*
X80864623Y-75607431D01*
X80958925Y-75835097D01*
X81007000Y-76076786D01*
X81007000Y-76323214D01*
X80958925Y-76564903D01*
X80864622Y-76792571D01*
X80727715Y-76997466D01*
X80553466Y-77171715D01*
X80348571Y-77308622D01*
X80348570Y-77308623D01*
X80348569Y-77308623D01*
X80120903Y-77402925D01*
X79879214Y-77451000D01*
X79632786Y-77451000D01*
X79391097Y-77402925D01*
X79163431Y-77308623D01*
X79163430Y-77308623D01*
X79163429Y-77308622D01*
X78958534Y-77171715D01*
X78784285Y-76997466D01*
X78647378Y-76792571D01*
X78553075Y-76564903D01*
X78505000Y-76323214D01*
X78505000Y-76076786D01*
X78553075Y-75835097D01*
X78647377Y-75607431D01*
X78647378Y-75607429D01*
X78784285Y-75402534D01*
X78958534Y-75228285D01*
X79163429Y-75091378D01*
X79391097Y-74997075D01*
X79632786Y-74949000D01*
X79879214Y-74949000D01*
X80120903Y-74997075D01*
X80120903Y-74997075D01*
G37*
G36*
X76181000Y-76181000D02*
G01*
X73679000Y-76181000D01*
X73679000Y-73679000D01*
X76181000Y-73679000D01*
X76181000Y-76181000D01*
X76181000Y-76181000D01*
G37*
G36*
X92701239Y-73189101D02*
G01*
X92937053Y-73260634D01*
X93154381Y-73376799D01*
X93344871Y-73533129D01*
X93501201Y-73723619D01*
X93617366Y-73940947D01*
X93688899Y-74176761D01*
X93713053Y-74422000D01*
X93688899Y-74667239D01*
X93617366Y-74903053D01*
X93501201Y-75120381D01*
X93344871Y-75310871D01*
X93154381Y-75467201D01*
X92937053Y-75583366D01*
X92701239Y-75654899D01*
X92517457Y-75673000D01*
X92394543Y-75673000D01*
X92210761Y-75654899D01*
X91974947Y-75583366D01*
X91757619Y-75467201D01*
X91567129Y-75310871D01*
X91410799Y-75120381D01*
X91294634Y-74903053D01*
X91223101Y-74667239D01*
X91198947Y-74422000D01*
X91223101Y-74176761D01*
X91294634Y-73940947D01*
X91410799Y-73723619D01*
X91567129Y-73533129D01*
X91757619Y-73376799D01*
X91974947Y-73260634D01*
X92210761Y-73189101D01*
X92394543Y-73171000D01*
X92517457Y-73171000D01*
X92701239Y-73189101D01*
X92701239Y-73189101D01*
G37*
G36*
X88527000Y-73541000D02*
G01*
X86225000Y-73541000D01*
X86225000Y-66159000D01*
X88527000Y-66159000D01*
X88527000Y-73541000D01*
X88527000Y-73541000D01*
G37*
G36*
X100578228Y-70769703D02*
G01*
X100733100Y-70833853D01*
X100872481Y-70926985D01*
X100991015Y-71045519D01*
X101084147Y-71184900D01*
X101148297Y-71339772D01*
X101181000Y-71504184D01*
X101181000Y-71671816D01*
X101148297Y-71836228D01*
X101084147Y-71991100D01*
X100991015Y-72130481D01*
X100872481Y-72249015D01*
X100733100Y-72342147D01*
X100578228Y-72406297D01*
X100413816Y-72439000D01*
X100246184Y-72439000D01*
X100081772Y-72406297D01*
X99926900Y-72342147D01*
X99787519Y-72249015D01*
X99668985Y-72130481D01*
X99575853Y-71991100D01*
X99511703Y-71836228D01*
X99479000Y-71671816D01*
X99479000Y-71504184D01*
X99511703Y-71339772D01*
X99575853Y-71184900D01*
X99668985Y-71045519D01*
X99787519Y-70926985D01*
X99926900Y-70833853D01*
X100081772Y-70769703D01*
X100246184Y-70737000D01*
X100413816Y-70737000D01*
X100578228Y-70769703D01*
X100578228Y-70769703D01*
G37*
G36*
X74048969Y-68304962D02*
G01*
X74178751Y-68344331D01*
X74228144Y-68370733D01*
X74298359Y-68408263D01*
X74403199Y-68494302D01*
X74489237Y-68599140D01*
X74526767Y-68669355D01*
X74553169Y-68718748D01*
X74592538Y-68848530D01*
X74602500Y-68949679D01*
X74602500Y-70242321D01*
X74592538Y-70343470D01*
X74553169Y-70473252D01*
X74542613Y-70493000D01*
X74489237Y-70592860D01*
X74403199Y-70697699D01*
X74298360Y-70783737D01*
X74228145Y-70821267D01*
X74178752Y-70847669D01*
X74048970Y-70887038D01*
X73914000Y-70900331D01*
X73779031Y-70887038D01*
X73649249Y-70847669D01*
X73599856Y-70821267D01*
X73529641Y-70783737D01*
X73424802Y-70697699D01*
X73338764Y-70592860D01*
X73285388Y-70493000D01*
X73274832Y-70473252D01*
X73235463Y-70343470D01*
X73225501Y-70242321D01*
X73225500Y-68949680D01*
X73235462Y-68848531D01*
X73274831Y-68718749D01*
X73338764Y-68599140D01*
X73353474Y-68581216D01*
X73424802Y-68494301D01*
X73529640Y-68408263D01*
X73599855Y-68370733D01*
X73649248Y-68344331D01*
X73779030Y-68304962D01*
X73914000Y-68291669D01*
X74048969Y-68304962D01*
X74048969Y-68304962D01*
G37*
G36*
X79148969Y-68304962D02*
G01*
X79278751Y-68344331D01*
X79328144Y-68370733D01*
X79398359Y-68408263D01*
X79503199Y-68494302D01*
X79589237Y-68599140D01*
X79626767Y-68669355D01*
X79653169Y-68718748D01*
X79692538Y-68848530D01*
X79702500Y-68949679D01*
X79702500Y-70242321D01*
X79692538Y-70343470D01*
X79653169Y-70473252D01*
X79642613Y-70493000D01*
X79589237Y-70592860D01*
X79503199Y-70697699D01*
X79398360Y-70783737D01*
X79328145Y-70821267D01*
X79278752Y-70847669D01*
X79148970Y-70887038D01*
X79014000Y-70900331D01*
X78879031Y-70887038D01*
X78749249Y-70847669D01*
X78699856Y-70821267D01*
X78629641Y-70783737D01*
X78524802Y-70697699D01*
X78438764Y-70592860D01*
X78385388Y-70493000D01*
X78374832Y-70473252D01*
X78335463Y-70343470D01*
X78325501Y-70242321D01*
X78325500Y-68949680D01*
X78335462Y-68848531D01*
X78374831Y-68718749D01*
X78438764Y-68599140D01*
X78453474Y-68581216D01*
X78524802Y-68494301D01*
X78629640Y-68408263D01*
X78699855Y-68370733D01*
X78749248Y-68344331D01*
X78879030Y-68304962D01*
X79014000Y-68291669D01*
X79148969Y-68304962D01*
X79148969Y-68304962D01*
G37*
G36*
X77448969Y-68304962D02*
G01*
X77578751Y-68344331D01*
X77628144Y-68370733D01*
X77698359Y-68408263D01*
X77803199Y-68494302D01*
X77889237Y-68599140D01*
X77926767Y-68669355D01*
X77953169Y-68718748D01*
X77992538Y-68848530D01*
X78002500Y-68949679D01*
X78002500Y-70242321D01*
X77992538Y-70343470D01*
X77953169Y-70473252D01*
X77942613Y-70493000D01*
X77889237Y-70592860D01*
X77803199Y-70697699D01*
X77698360Y-70783737D01*
X77628145Y-70821267D01*
X77578752Y-70847669D01*
X77448970Y-70887038D01*
X77314000Y-70900331D01*
X77179031Y-70887038D01*
X77049249Y-70847669D01*
X76999856Y-70821267D01*
X76929641Y-70783737D01*
X76824802Y-70697699D01*
X76738764Y-70592860D01*
X76685388Y-70493000D01*
X76674832Y-70473252D01*
X76635463Y-70343470D01*
X76625501Y-70242321D01*
X76625500Y-68949680D01*
X76635462Y-68848531D01*
X76674831Y-68718749D01*
X76738764Y-68599140D01*
X76753474Y-68581216D01*
X76824802Y-68494301D01*
X76929640Y-68408263D01*
X76999855Y-68370733D01*
X77049248Y-68344331D01*
X77179030Y-68304962D01*
X77314000Y-68291669D01*
X77448969Y-68304962D01*
X77448969Y-68304962D01*
G37*
G36*
X75748969Y-68304962D02*
G01*
X75878751Y-68344331D01*
X75928144Y-68370733D01*
X75998359Y-68408263D01*
X76103199Y-68494302D01*
X76189237Y-68599140D01*
X76226767Y-68669355D01*
X76253169Y-68718748D01*
X76292538Y-68848530D01*
X76302500Y-68949679D01*
X76302500Y-70242321D01*
X76292538Y-70343470D01*
X76253169Y-70473252D01*
X76242613Y-70493000D01*
X76189237Y-70592860D01*
X76103199Y-70697699D01*
X75998360Y-70783737D01*
X75928145Y-70821267D01*
X75878752Y-70847669D01*
X75748970Y-70887038D01*
X75614000Y-70900331D01*
X75479031Y-70887038D01*
X75349249Y-70847669D01*
X75299856Y-70821267D01*
X75229641Y-70783737D01*
X75124802Y-70697699D01*
X75038764Y-70592860D01*
X74985388Y-70493000D01*
X74974832Y-70473252D01*
X74935463Y-70343470D01*
X74925501Y-70242321D01*
X74925500Y-68949680D01*
X74935462Y-68848531D01*
X74974831Y-68718749D01*
X75038764Y-68599140D01*
X75053474Y-68581216D01*
X75124802Y-68494301D01*
X75229640Y-68408263D01*
X75299855Y-68370733D01*
X75349248Y-68344331D01*
X75479030Y-68304962D01*
X75614000Y-68291669D01*
X75748969Y-68304962D01*
X75748969Y-68304962D01*
G37*
G36*
X80848969Y-68304962D02*
G01*
X80978751Y-68344331D01*
X81028144Y-68370733D01*
X81098359Y-68408263D01*
X81203199Y-68494302D01*
X81289237Y-68599140D01*
X81326767Y-68669355D01*
X81353169Y-68718748D01*
X81392538Y-68848530D01*
X81402500Y-68949679D01*
X81402500Y-70242321D01*
X81392538Y-70343470D01*
X81353169Y-70473252D01*
X81342613Y-70493000D01*
X81289237Y-70592860D01*
X81203199Y-70697699D01*
X81098360Y-70783737D01*
X81028145Y-70821267D01*
X80978752Y-70847669D01*
X80848970Y-70887038D01*
X80714000Y-70900331D01*
X80579031Y-70887038D01*
X80449249Y-70847669D01*
X80399856Y-70821267D01*
X80329641Y-70783737D01*
X80224802Y-70697699D01*
X80138764Y-70592860D01*
X80085388Y-70493000D01*
X80074832Y-70473252D01*
X80035463Y-70343470D01*
X80025501Y-70242321D01*
X80025500Y-68949680D01*
X80035462Y-68848531D01*
X80074831Y-68718749D01*
X80138764Y-68599140D01*
X80153474Y-68581216D01*
X80224802Y-68494301D01*
X80329640Y-68408263D01*
X80399855Y-68370733D01*
X80449248Y-68344331D01*
X80579030Y-68304962D01*
X80714000Y-68291669D01*
X80848969Y-68304962D01*
X80848969Y-68304962D01*
G37*
G36*
X100578228Y-68269703D02*
G01*
X100733100Y-68333853D01*
X100872481Y-68426985D01*
X100991015Y-68545519D01*
X101084147Y-68684900D01*
X101148297Y-68839772D01*
X101181000Y-69004184D01*
X101181000Y-69171816D01*
X101148297Y-69336228D01*
X101084147Y-69491100D01*
X100991015Y-69630481D01*
X100872481Y-69749015D01*
X100733100Y-69842147D01*
X100578228Y-69906297D01*
X100413816Y-69939000D01*
X100246184Y-69939000D01*
X100081772Y-69906297D01*
X99926900Y-69842147D01*
X99787519Y-69749015D01*
X99668985Y-69630481D01*
X99575853Y-69491100D01*
X99511703Y-69336228D01*
X99479000Y-69171816D01*
X99479000Y-69004184D01*
X99511703Y-68839772D01*
X99575853Y-68684900D01*
X99668985Y-68545519D01*
X99787519Y-68426985D01*
X99926900Y-68333853D01*
X100081772Y-68269703D01*
X100246184Y-68237000D01*
X100413816Y-68237000D01*
X100578228Y-68269703D01*
X100578228Y-68269703D01*
G37*
G36*
X103237512Y-68111927D02*
G01*
X103386812Y-68141624D01*
X103550784Y-68209544D01*
X103698354Y-68308147D01*
X103823853Y-68433646D01*
X103922456Y-68581216D01*
X103990376Y-68745188D01*
X104025000Y-68919259D01*
X104025000Y-69096741D01*
X103990376Y-69270812D01*
X103922456Y-69434784D01*
X103823853Y-69582354D01*
X103698354Y-69707853D01*
X103550784Y-69806456D01*
X103386812Y-69874376D01*
X103237512Y-69904073D01*
X103212742Y-69909000D01*
X103035258Y-69909000D01*
X103010488Y-69904073D01*
X102861188Y-69874376D01*
X102697216Y-69806456D01*
X102549646Y-69707853D01*
X102424147Y-69582354D01*
X102325544Y-69434784D01*
X102257624Y-69270812D01*
X102223000Y-69096741D01*
X102223000Y-68919259D01*
X102257624Y-68745188D01*
X102325544Y-68581216D01*
X102424147Y-68433646D01*
X102549646Y-68308147D01*
X102697216Y-68209544D01*
X102861188Y-68141624D01*
X103010488Y-68111927D01*
X103035258Y-68107000D01*
X103212742Y-68107000D01*
X103237512Y-68111927D01*
X103237512Y-68111927D01*
G37*
G36*
X92820903Y-65599075D02*
G01*
X93048571Y-65693378D01*
X93253466Y-65830285D01*
X93427715Y-66004534D01*
X93521505Y-66144900D01*
X93564623Y-66209431D01*
X93658925Y-66437097D01*
X93707000Y-66678786D01*
X93707000Y-66925214D01*
X93658925Y-67166903D01*
X93576334Y-67366297D01*
X93564622Y-67394571D01*
X93427715Y-67599466D01*
X93253466Y-67773715D01*
X93048571Y-67910622D01*
X93048570Y-67910623D01*
X93048569Y-67910623D01*
X92820903Y-68004925D01*
X92579214Y-68053000D01*
X92332786Y-68053000D01*
X92091097Y-68004925D01*
X91863431Y-67910623D01*
X91863430Y-67910623D01*
X91863429Y-67910622D01*
X91658534Y-67773715D01*
X91484285Y-67599466D01*
X91347378Y-67394571D01*
X91335667Y-67366297D01*
X91253075Y-67166903D01*
X91205000Y-66925214D01*
X91205000Y-66678786D01*
X91253075Y-66437097D01*
X91347377Y-66209431D01*
X91390495Y-66144900D01*
X91484285Y-66004534D01*
X91658534Y-65830285D01*
X91863429Y-65693378D01*
X92091097Y-65599075D01*
X92332786Y-65551000D01*
X92579214Y-65551000D01*
X92820903Y-65599075D01*
X92820903Y-65599075D01*
G37*
G36*
X100578228Y-65729703D02*
G01*
X100733100Y-65793853D01*
X100872481Y-65886985D01*
X100991015Y-66005519D01*
X101084147Y-66144900D01*
X101148297Y-66299772D01*
X101181000Y-66464184D01*
X101181000Y-66631816D01*
X101148297Y-66796228D01*
X101084147Y-66951100D01*
X100991015Y-67090481D01*
X100872481Y-67209015D01*
X100733100Y-67302147D01*
X100578228Y-67366297D01*
X100413816Y-67399000D01*
X100246184Y-67399000D01*
X100081772Y-67366297D01*
X99926900Y-67302147D01*
X99787519Y-67209015D01*
X99668985Y-67090481D01*
X99575853Y-66951100D01*
X99511703Y-66796228D01*
X99479000Y-66631816D01*
X99479000Y-66464184D01*
X99511703Y-66299772D01*
X99575853Y-66144900D01*
X99668985Y-66005519D01*
X99787519Y-65886985D01*
X99926900Y-65793853D01*
X100081772Y-65729703D01*
X100246184Y-65697000D01*
X100413816Y-65697000D01*
X100578228Y-65729703D01*
X100578228Y-65729703D01*
G37*
G36*
X80255239Y-62775101D02*
G01*
X80491053Y-62846634D01*
X80708381Y-62962799D01*
X80898871Y-63119129D01*
X81055201Y-63309619D01*
X81171366Y-63526947D01*
X81242899Y-63762761D01*
X81267053Y-64008000D01*
X81242899Y-64253239D01*
X81171366Y-64489053D01*
X81055201Y-64706381D01*
X80898871Y-64896871D01*
X80708381Y-65053201D01*
X80491053Y-65169366D01*
X80255239Y-65240899D01*
X80071457Y-65259000D01*
X79948543Y-65259000D01*
X79764761Y-65240899D01*
X79528947Y-65169366D01*
X79311619Y-65053201D01*
X79121129Y-64896871D01*
X78964799Y-64706381D01*
X78848634Y-64489053D01*
X78777101Y-64253239D01*
X78752947Y-64008000D01*
X78777101Y-63762761D01*
X78848634Y-63526947D01*
X78964799Y-63309619D01*
X79121129Y-63119129D01*
X79311619Y-62962799D01*
X79528947Y-62846634D01*
X79764761Y-62775101D01*
X79948543Y-62757000D01*
X80071457Y-62757000D01*
X80255239Y-62775101D01*
X80255239Y-62775101D01*
G37*
G36*
X92820903Y-62551075D02*
G01*
X93048571Y-62645378D01*
X93253466Y-62782285D01*
X93427715Y-62956534D01*
X93551389Y-63141625D01*
X93564623Y-63161431D01*
X93658925Y-63389097D01*
X93707000Y-63630786D01*
X93707000Y-63877214D01*
X93658925Y-64118903D01*
X93607523Y-64243000D01*
X93564622Y-64346571D01*
X93427715Y-64551466D01*
X93253466Y-64725715D01*
X93048571Y-64862622D01*
X93048570Y-64862623D01*
X93048569Y-64862623D01*
X92820903Y-64956925D01*
X92579214Y-65005000D01*
X92332786Y-65005000D01*
X92091097Y-64956925D01*
X91863431Y-64862623D01*
X91863430Y-64862623D01*
X91863429Y-64862622D01*
X91658534Y-64725715D01*
X91484285Y-64551466D01*
X91347378Y-64346571D01*
X91304478Y-64243000D01*
X91253075Y-64118903D01*
X91205000Y-63877214D01*
X91205000Y-63630786D01*
X91253075Y-63389097D01*
X91347377Y-63161431D01*
X91360611Y-63141625D01*
X91484285Y-62956534D01*
X91658534Y-62782285D01*
X91863429Y-62645378D01*
X92091097Y-62551075D01*
X92332786Y-62503000D01*
X92579214Y-62503000D01*
X92820903Y-62551075D01*
X92820903Y-62551075D01*
G37*
G36*
X103232851Y-63111000D02*
G01*
X103386812Y-63141624D01*
X103550784Y-63209544D01*
X103698354Y-63308147D01*
X103823853Y-63433646D01*
X103922456Y-63581216D01*
X103990376Y-63745188D01*
X104025000Y-63919259D01*
X104025000Y-64096741D01*
X103990376Y-64270812D01*
X103922456Y-64434784D01*
X103823853Y-64582354D01*
X103698354Y-64707853D01*
X103550784Y-64806456D01*
X103386812Y-64874376D01*
X103237512Y-64904073D01*
X103212742Y-64909000D01*
X103035258Y-64909000D01*
X103010488Y-64904073D01*
X102861188Y-64874376D01*
X102697216Y-64806456D01*
X102549646Y-64707853D01*
X102424147Y-64582354D01*
X102325544Y-64434784D01*
X102257624Y-64270812D01*
X102223000Y-64096741D01*
X102223000Y-63919259D01*
X102257624Y-63745188D01*
X102325544Y-63581216D01*
X102424147Y-63433646D01*
X102549646Y-63308147D01*
X102697216Y-63209544D01*
X102861188Y-63141624D01*
X103015149Y-63111000D01*
X103035258Y-63107000D01*
X103212742Y-63107000D01*
X103232851Y-63111000D01*
X103232851Y-63111000D01*
G37*
G36*
X100578228Y-63229703D02*
G01*
X100733100Y-63293853D01*
X100872481Y-63386985D01*
X100991015Y-63505519D01*
X101084147Y-63644900D01*
X101148297Y-63799772D01*
X101181000Y-63964184D01*
X101181000Y-64131816D01*
X101148297Y-64296228D01*
X101084147Y-64451100D01*
X100991015Y-64590481D01*
X100872481Y-64709015D01*
X100733100Y-64802147D01*
X100578228Y-64866297D01*
X100413816Y-64899000D01*
X100246184Y-64899000D01*
X100081772Y-64866297D01*
X99926900Y-64802147D01*
X99787519Y-64709015D01*
X99668985Y-64590481D01*
X99575853Y-64451100D01*
X99511703Y-64296228D01*
X99479000Y-64131816D01*
X99479000Y-63964184D01*
X99511703Y-63799772D01*
X99575853Y-63644900D01*
X99668985Y-63505519D01*
X99787519Y-63386985D01*
X99926900Y-63293853D01*
X100081772Y-63229703D01*
X100246184Y-63197000D01*
X100413816Y-63197000D01*
X100578228Y-63229703D01*
X100578228Y-63229703D01*
G37*
G36*
X74921239Y-61759101D02*
G01*
X75157053Y-61830634D01*
X75374381Y-61946799D01*
X75564871Y-62103129D01*
X75721201Y-62293619D01*
X75837366Y-62510947D01*
X75908899Y-62746761D01*
X75933053Y-62992000D01*
X75908899Y-63237239D01*
X75837366Y-63473053D01*
X75721201Y-63690381D01*
X75564871Y-63880871D01*
X75374381Y-64037201D01*
X75157053Y-64153366D01*
X74921239Y-64224899D01*
X74737457Y-64243000D01*
X74614543Y-64243000D01*
X74430761Y-64224899D01*
X74194947Y-64153366D01*
X73977619Y-64037201D01*
X73787129Y-63880871D01*
X73630799Y-63690381D01*
X73514634Y-63473053D01*
X73443101Y-63237239D01*
X73418947Y-62992000D01*
X73443101Y-62746761D01*
X73514634Y-62510947D01*
X73630799Y-62293619D01*
X73787129Y-62103129D01*
X73977619Y-61946799D01*
X74194947Y-61830634D01*
X74430761Y-61759101D01*
X74614543Y-61741000D01*
X74737457Y-61741000D01*
X74921239Y-61759101D01*
X74921239Y-61759101D01*
G37*
G36*
X98433000Y-63889000D02*
G01*
X96131000Y-63889000D01*
X96131000Y-48887000D01*
X98433000Y-48887000D01*
X98433000Y-63889000D01*
X98433000Y-63889000D01*
G37*
G36*
X85621395Y-61061546D02*
G01*
X85794466Y-61133234D01*
X85794467Y-61133235D01*
X85950227Y-61237310D01*
X86082690Y-61369773D01*
X86082691Y-61369775D01*
X86186766Y-61525534D01*
X86258454Y-61698605D01*
X86295000Y-61882333D01*
X86295000Y-62069667D01*
X86258454Y-62253395D01*
X86186766Y-62426466D01*
X86186765Y-62426467D01*
X86082690Y-62582227D01*
X85950227Y-62714690D01*
X85902229Y-62746761D01*
X85794466Y-62818766D01*
X85621395Y-62890454D01*
X85437667Y-62927000D01*
X85250333Y-62927000D01*
X85066605Y-62890454D01*
X84893534Y-62818766D01*
X84785771Y-62746761D01*
X84737773Y-62714690D01*
X84605310Y-62582227D01*
X84501235Y-62426467D01*
X84501234Y-62426466D01*
X84429546Y-62253395D01*
X84393000Y-62069667D01*
X84393000Y-61882333D01*
X84429546Y-61698605D01*
X84501234Y-61525534D01*
X84605309Y-61369775D01*
X84605310Y-61369773D01*
X84737773Y-61237310D01*
X84893533Y-61133235D01*
X84893534Y-61133234D01*
X85066605Y-61061546D01*
X85250333Y-61025000D01*
X85437667Y-61025000D01*
X85621395Y-61061546D01*
X85621395Y-61061546D01*
G37*
G36*
X86295000Y-60387000D02*
G01*
X84393000Y-60387000D01*
X84393000Y-58485000D01*
X86295000Y-58485000D01*
X86295000Y-60387000D01*
X86295000Y-60387000D01*
G37*
G36*
X103513000Y-59825000D02*
G01*
X101211000Y-59825000D01*
X101211000Y-49903000D01*
X103513000Y-49903000D01*
X103513000Y-59825000D01*
X103513000Y-59825000D01*
G37*
G36*
X107473000Y-58055000D02*
G01*
X104871000Y-58055000D01*
X104871000Y-56753000D01*
X107473000Y-56753000D01*
X107473000Y-58055000D01*
X107473000Y-58055000D01*
G37*
G36*
X92701239Y-54901101D02*
G01*
X92937053Y-54972634D01*
X93154381Y-55088799D01*
X93344871Y-55245129D01*
X93501201Y-55435619D01*
X93617366Y-55652947D01*
X93688899Y-55888761D01*
X93713053Y-56134000D01*
X93688899Y-56379239D01*
X93617366Y-56615053D01*
X93501201Y-56832381D01*
X93344871Y-57022871D01*
X93154381Y-57179201D01*
X92937053Y-57295366D01*
X92701239Y-57366899D01*
X92517457Y-57385000D01*
X92394543Y-57385000D01*
X92210761Y-57366899D01*
X91974947Y-57295366D01*
X91757619Y-57179201D01*
X91567129Y-57022871D01*
X91410799Y-56832381D01*
X91294634Y-56615053D01*
X91223101Y-56379239D01*
X91198947Y-56134000D01*
X91223101Y-55888761D01*
X91294634Y-55652947D01*
X91410799Y-55435619D01*
X91567129Y-55245129D01*
X91757619Y-55088799D01*
X91974947Y-54972634D01*
X92210761Y-54901101D01*
X92394543Y-54883000D01*
X92517457Y-54883000D01*
X92701239Y-54901101D01*
X92701239Y-54901101D01*
G37*
G36*
X75040903Y-54169075D02*
G01*
X75268571Y-54263378D01*
X75473466Y-54400285D01*
X75647715Y-54574534D01*
X75784622Y-54779429D01*
X75784623Y-54779431D01*
X75878925Y-55007097D01*
X75927000Y-55248786D01*
X75927000Y-55495214D01*
X75878925Y-55736903D01*
X75816024Y-55888761D01*
X75784622Y-55964571D01*
X75647715Y-56169466D01*
X75473466Y-56343715D01*
X75268571Y-56480622D01*
X75268570Y-56480623D01*
X75268569Y-56480623D01*
X75040903Y-56574925D01*
X74799214Y-56623000D01*
X74552786Y-56623000D01*
X74311097Y-56574925D01*
X74083431Y-56480623D01*
X74083430Y-56480623D01*
X74083429Y-56480622D01*
X73878534Y-56343715D01*
X73704285Y-56169466D01*
X73567378Y-55964571D01*
X73535977Y-55888761D01*
X73473075Y-55736903D01*
X73425000Y-55495214D01*
X73425000Y-55248786D01*
X73473075Y-55007097D01*
X73567377Y-54779431D01*
X73567378Y-54779429D01*
X73704285Y-54574534D01*
X73878534Y-54400285D01*
X74083429Y-54263378D01*
X74311097Y-54169075D01*
X74552786Y-54121000D01*
X74799214Y-54121000D01*
X75040903Y-54169075D01*
X75040903Y-54169075D01*
G37*
G36*
X85592228Y-54775703D02*
G01*
X85747100Y-54839853D01*
X85886481Y-54932985D01*
X86005015Y-55051519D01*
X86098147Y-55190900D01*
X86162297Y-55345772D01*
X86195000Y-55510184D01*
X86195000Y-55677816D01*
X86162297Y-55842228D01*
X86098147Y-55997100D01*
X86005015Y-56136481D01*
X85886481Y-56255015D01*
X85747100Y-56348147D01*
X85592228Y-56412297D01*
X85427816Y-56445000D01*
X85260184Y-56445000D01*
X85095772Y-56412297D01*
X84940900Y-56348147D01*
X84801519Y-56255015D01*
X84682985Y-56136481D01*
X84589853Y-55997100D01*
X84525703Y-55842228D01*
X84493000Y-55677816D01*
X84493000Y-55510184D01*
X84525703Y-55345772D01*
X84589853Y-55190900D01*
X84682985Y-55051519D01*
X84801519Y-54932985D01*
X84940900Y-54839853D01*
X85095772Y-54775703D01*
X85260184Y-54743000D01*
X85427816Y-54743000D01*
X85592228Y-54775703D01*
X85592228Y-54775703D01*
G37*
G36*
X118739256Y-52493298D02*
G01*
X118845579Y-52514447D01*
X119146042Y-52638903D01*
X119416451Y-52819585D01*
X119646415Y-53049549D01*
X119827097Y-53319958D01*
X119948911Y-53614042D01*
X119951553Y-53620422D01*
X120015000Y-53939389D01*
X120015000Y-54264611D01*
X119984180Y-54419553D01*
X119951553Y-54583579D01*
X119827097Y-54884042D01*
X119646415Y-55154451D01*
X119416451Y-55384415D01*
X119146042Y-55565097D01*
X118845579Y-55689553D01*
X118739256Y-55710702D01*
X118526611Y-55753000D01*
X118201389Y-55753000D01*
X117988744Y-55710702D01*
X117882421Y-55689553D01*
X117581958Y-55565097D01*
X117311549Y-55384415D01*
X117081585Y-55154451D01*
X116900903Y-54884042D01*
X116776447Y-54583579D01*
X116743820Y-54419553D01*
X116713000Y-54264611D01*
X116713000Y-53939389D01*
X116776447Y-53620422D01*
X116779090Y-53614042D01*
X116900903Y-53319958D01*
X117081585Y-53049549D01*
X117311549Y-52819585D01*
X117581958Y-52638903D01*
X117882421Y-52514447D01*
X117988744Y-52493298D01*
X118201389Y-52451000D01*
X118526611Y-52451000D01*
X118739256Y-52493298D01*
X118739256Y-52493298D01*
G37*
G36*
X107473000Y-55515000D02*
G01*
X104871000Y-55515000D01*
X104871000Y-54213000D01*
X107473000Y-54213000D01*
X107473000Y-55515000D01*
X107473000Y-55515000D01*
G37*
G36*
X81261000Y-55099000D02*
G01*
X78759000Y-55099000D01*
X78759000Y-52597000D01*
X81261000Y-52597000D01*
X81261000Y-55099000D01*
X81261000Y-55099000D01*
G37*
G36*
X70457648Y-51219000D02*
G01*
X70585579Y-51244447D01*
X70886042Y-51368903D01*
X71156451Y-51549585D01*
X71386415Y-51779549D01*
X71567097Y-52049958D01*
X71678219Y-52318229D01*
X71691553Y-52350422D01*
X71755000Y-52669389D01*
X71755000Y-52994611D01*
X71712702Y-53207256D01*
X71691553Y-53313579D01*
X71567097Y-53614042D01*
X71386415Y-53884451D01*
X71156451Y-54114415D01*
X70886042Y-54295097D01*
X70585579Y-54419553D01*
X70479256Y-54440702D01*
X70266611Y-54483000D01*
X69941389Y-54483000D01*
X69728744Y-54440702D01*
X69622421Y-54419553D01*
X69321958Y-54295097D01*
X69051549Y-54114415D01*
X68821585Y-53884451D01*
X68640903Y-53614042D01*
X68516447Y-53313579D01*
X68495298Y-53207256D01*
X68453000Y-52994611D01*
X68453000Y-52669389D01*
X68516447Y-52350422D01*
X68529782Y-52318229D01*
X68640903Y-52049958D01*
X68821585Y-51779549D01*
X69051549Y-51549585D01*
X69321958Y-51368903D01*
X69622421Y-51244447D01*
X69750352Y-51219000D01*
X69941389Y-51181000D01*
X70266611Y-51181000D01*
X70457648Y-51219000D01*
X70457648Y-51219000D01*
G37*
G36*
X86195000Y-54445000D02*
G01*
X84493000Y-54445000D01*
X84493000Y-52743000D01*
X86195000Y-52743000D01*
X86195000Y-54445000D01*
X86195000Y-54445000D01*
G37*
G36*
X107323000Y-53475000D02*
G01*
X105021000Y-53475000D01*
X105021000Y-43553000D01*
X107323000Y-43553000D01*
X107323000Y-53475000D01*
X107323000Y-53475000D01*
G37*
G36*
X92291000Y-52921000D02*
G01*
X90589000Y-52921000D01*
X90589000Y-51219000D01*
X92291000Y-51219000D01*
X92291000Y-52921000D01*
X92291000Y-52921000D01*
G37*
G36*
X93688228Y-51251703D02*
G01*
X93843100Y-51315853D01*
X93982481Y-51408985D01*
X94101015Y-51527519D01*
X94194147Y-51666900D01*
X94258297Y-51821772D01*
X94291000Y-51986184D01*
X94291000Y-52153816D01*
X94258297Y-52318228D01*
X94194147Y-52473100D01*
X94101015Y-52612481D01*
X93982481Y-52731015D01*
X93843100Y-52824147D01*
X93688228Y-52888297D01*
X93523816Y-52921000D01*
X93356184Y-52921000D01*
X93191772Y-52888297D01*
X93036900Y-52824147D01*
X92897519Y-52731015D01*
X92778985Y-52612481D01*
X92685853Y-52473100D01*
X92621703Y-52318228D01*
X92589000Y-52153816D01*
X92589000Y-51986184D01*
X92621703Y-51821772D01*
X92685853Y-51666900D01*
X92778985Y-51527519D01*
X92897519Y-51408985D01*
X93036900Y-51315853D01*
X93191772Y-51251703D01*
X93356184Y-51219000D01*
X93523816Y-51219000D01*
X93688228Y-51251703D01*
X93688228Y-51251703D01*
G37*
G36*
X76985000Y-51585000D02*
G01*
X73383000Y-51585000D01*
X73383000Y-47983000D01*
X76985000Y-47983000D01*
X76985000Y-51585000D01*
X76985000Y-51585000D01*
G37*
G36*
X71610366Y-44999695D02*
G01*
X71767460Y-45047349D01*
X71912231Y-45124731D01*
X72039128Y-45228872D01*
X72143269Y-45355769D01*
X72220651Y-45500540D01*
X72268305Y-45657634D01*
X72285000Y-45827140D01*
X72285000Y-47740860D01*
X72268305Y-47910366D01*
X72220651Y-48067460D01*
X72143269Y-48212231D01*
X72039128Y-48339128D01*
X71912231Y-48443269D01*
X71767460Y-48520651D01*
X71610366Y-48568305D01*
X71440860Y-48585000D01*
X69527140Y-48585000D01*
X69357634Y-48568305D01*
X69200540Y-48520651D01*
X69055769Y-48443269D01*
X68928872Y-48339128D01*
X68824731Y-48212231D01*
X68747349Y-48067460D01*
X68699695Y-47910366D01*
X68683000Y-47740860D01*
X68683000Y-45827140D01*
X68699695Y-45657634D01*
X68747349Y-45500540D01*
X68824731Y-45355769D01*
X68928872Y-45228872D01*
X69055769Y-45124731D01*
X69200540Y-45047349D01*
X69357634Y-44999695D01*
X69527140Y-44983000D01*
X71440860Y-44983000D01*
X71610366Y-44999695D01*
X71610366Y-44999695D01*
G37*
G36*
X94286564Y-46161389D02*
G01*
X94477833Y-46240615D01*
X94477835Y-46240616D01*
X94649973Y-46355635D01*
X94796365Y-46502027D01*
X94911385Y-46674167D01*
X94990611Y-46865436D01*
X95031000Y-47068484D01*
X95031000Y-47275516D01*
X94990611Y-47478564D01*
X94911385Y-47669833D01*
X94911384Y-47669835D01*
X94796365Y-47841973D01*
X94649973Y-47988365D01*
X94477835Y-48103384D01*
X94477834Y-48103385D01*
X94477833Y-48103385D01*
X94286564Y-48182611D01*
X94083516Y-48223000D01*
X93876484Y-48223000D01*
X93673436Y-48182611D01*
X93482167Y-48103385D01*
X93482166Y-48103385D01*
X93482165Y-48103384D01*
X93310027Y-47988365D01*
X93163635Y-47841973D01*
X93048616Y-47669835D01*
X93048615Y-47669833D01*
X92969389Y-47478564D01*
X92929000Y-47275516D01*
X92929000Y-47068484D01*
X92969389Y-46865436D01*
X93048615Y-46674167D01*
X93163635Y-46502027D01*
X93310027Y-46355635D01*
X93482165Y-46240616D01*
X93482167Y-46240615D01*
X93673436Y-46161389D01*
X93876484Y-46121000D01*
X94083516Y-46121000D01*
X94286564Y-46161389D01*
X94286564Y-46161389D01*
G37*
G36*
X100786564Y-46161389D02*
G01*
X100977833Y-46240615D01*
X100977835Y-46240616D01*
X101149973Y-46355635D01*
X101296365Y-46502027D01*
X101411385Y-46674167D01*
X101490611Y-46865436D01*
X101531000Y-47068484D01*
X101531000Y-47275516D01*
X101490611Y-47478564D01*
X101411385Y-47669833D01*
X101411384Y-47669835D01*
X101296365Y-47841973D01*
X101149973Y-47988365D01*
X100977835Y-48103384D01*
X100977834Y-48103385D01*
X100977833Y-48103385D01*
X100786564Y-48182611D01*
X100583516Y-48223000D01*
X100376484Y-48223000D01*
X100173436Y-48182611D01*
X99982167Y-48103385D01*
X99982166Y-48103385D01*
X99982165Y-48103384D01*
X99810027Y-47988365D01*
X99663635Y-47841973D01*
X99548616Y-47669835D01*
X99548615Y-47669833D01*
X99469389Y-47478564D01*
X99429000Y-47275516D01*
X99429000Y-47068484D01*
X99469389Y-46865436D01*
X99548615Y-46674167D01*
X99663635Y-46502027D01*
X99810027Y-46355635D01*
X99982165Y-46240616D01*
X99982167Y-46240615D01*
X100173436Y-46161389D01*
X100376484Y-46121000D01*
X100583516Y-46121000D01*
X100786564Y-46161389D01*
X100786564Y-46161389D01*
G37*
G36*
X85625000Y-47271000D02*
G01*
X82523000Y-47271000D01*
X82523000Y-44169000D01*
X85625000Y-44169000D01*
X85625000Y-47271000D01*
X85625000Y-47271000D01*
G37*
G36*
X89456585Y-44198802D02*
G01*
X89606410Y-44228604D01*
X89888674Y-44345521D01*
X90142705Y-44515259D01*
X90358741Y-44731295D01*
X90528479Y-44985326D01*
X90645396Y-45267590D01*
X90705000Y-45567240D01*
X90705000Y-45872760D01*
X90645396Y-46172410D01*
X90528479Y-46454674D01*
X90358741Y-46708705D01*
X90142705Y-46924741D01*
X89888674Y-47094479D01*
X89606410Y-47211396D01*
X89456585Y-47241198D01*
X89306761Y-47271000D01*
X89001239Y-47271000D01*
X88851415Y-47241198D01*
X88701590Y-47211396D01*
X88419326Y-47094479D01*
X88165295Y-46924741D01*
X87949259Y-46708705D01*
X87779521Y-46454674D01*
X87662604Y-46172410D01*
X87603000Y-45872760D01*
X87603000Y-45567240D01*
X87662604Y-45267590D01*
X87779521Y-44985326D01*
X87949259Y-44731295D01*
X88165295Y-44515259D01*
X88419326Y-44345521D01*
X88701590Y-44228604D01*
X88851415Y-44198802D01*
X89001239Y-44169000D01*
X89306761Y-44169000D01*
X89456585Y-44198802D01*
X89456585Y-44198802D01*
G37*
G36*
X76410979Y-42247293D02*
G01*
X76544625Y-42287834D01*
X76667784Y-42353664D01*
X76775740Y-42442260D01*
X76864336Y-42550216D01*
X76930166Y-42673375D01*
X76970707Y-42807021D01*
X76985000Y-42952140D01*
X76985000Y-44615860D01*
X76970707Y-44760979D01*
X76930166Y-44894625D01*
X76864336Y-45017784D01*
X76775740Y-45125740D01*
X76667784Y-45214336D01*
X76544625Y-45280166D01*
X76410979Y-45320707D01*
X76265860Y-45335000D01*
X74102140Y-45335000D01*
X73957021Y-45320707D01*
X73823375Y-45280166D01*
X73700216Y-45214336D01*
X73592260Y-45125740D01*
X73503664Y-45017784D01*
X73437834Y-44894625D01*
X73397293Y-44760979D01*
X73383000Y-44615860D01*
X73383000Y-42952140D01*
X73397293Y-42807021D01*
X73437834Y-42673375D01*
X73503664Y-42550216D01*
X73592260Y-42442260D01*
X73700216Y-42353664D01*
X73823375Y-42287834D01*
X73957021Y-42247293D01*
X74102140Y-42233000D01*
X76265860Y-42233000D01*
X76410979Y-42247293D01*
X76410979Y-42247293D01*
G37*
G36*
X94286564Y-41661389D02*
G01*
X94477833Y-41740615D01*
X94477835Y-41740616D01*
X94649973Y-41855635D01*
X94796365Y-42002027D01*
X94911385Y-42174167D01*
X94990611Y-42365436D01*
X95031000Y-42568484D01*
X95031000Y-42775516D01*
X94990611Y-42978564D01*
X94978211Y-43008500D01*
X94911384Y-43169835D01*
X94796365Y-43341973D01*
X94649973Y-43488365D01*
X94477835Y-43603384D01*
X94477834Y-43603385D01*
X94477833Y-43603385D01*
X94286564Y-43682611D01*
X94083516Y-43723000D01*
X93876484Y-43723000D01*
X93673436Y-43682611D01*
X93482167Y-43603385D01*
X93482166Y-43603385D01*
X93482165Y-43603384D01*
X93310027Y-43488365D01*
X93163635Y-43341973D01*
X93048616Y-43169835D01*
X92981789Y-43008500D01*
X92969389Y-42978564D01*
X92929000Y-42775516D01*
X92929000Y-42568484D01*
X92969389Y-42365436D01*
X93048615Y-42174167D01*
X93163635Y-42002027D01*
X93310027Y-41855635D01*
X93482165Y-41740616D01*
X93482167Y-41740615D01*
X93673436Y-41661389D01*
X93876484Y-41621000D01*
X94083516Y-41621000D01*
X94286564Y-41661389D01*
X94286564Y-41661389D01*
G37*
G36*
X100786564Y-41661389D02*
G01*
X100977833Y-41740615D01*
X100977835Y-41740616D01*
X101149973Y-41855635D01*
X101296365Y-42002027D01*
X101411385Y-42174167D01*
X101490611Y-42365436D01*
X101531000Y-42568484D01*
X101531000Y-42775516D01*
X101490611Y-42978564D01*
X101478211Y-43008500D01*
X101411384Y-43169835D01*
X101296365Y-43341973D01*
X101149973Y-43488365D01*
X100977835Y-43603384D01*
X100977834Y-43603385D01*
X100977833Y-43603385D01*
X100786564Y-43682611D01*
X100583516Y-43723000D01*
X100376484Y-43723000D01*
X100173436Y-43682611D01*
X99982167Y-43603385D01*
X99982166Y-43603385D01*
X99982165Y-43603384D01*
X99810027Y-43488365D01*
X99663635Y-43341973D01*
X99548616Y-43169835D01*
X99481789Y-43008500D01*
X99469389Y-42978564D01*
X99429000Y-42775516D01*
X99429000Y-42568484D01*
X99469389Y-42365436D01*
X99548615Y-42174167D01*
X99663635Y-42002027D01*
X99810027Y-41855635D01*
X99982165Y-41740616D01*
X99982167Y-41740615D01*
X100173436Y-41661389D01*
X100376484Y-41621000D01*
X100583516Y-41621000D01*
X100786564Y-41661389D01*
X100786564Y-41661389D01*
G37*
M02*
