  0
SECTION
  2
HEADER
  9
$ANGBASE
  50
0.0
  9
$ANGDIR
  70
  1
  9
$MEASUREMENT
  70
0
  0
ENDSEC
  0
SECTION
  2
TABLES
  0
TABLE
  2
LTYPE
  70
4
  0
LTYPE
  5
40F
  2
CONTINUOUS
  70
0
  3
Solid line
  72
65
  73
0
  40
0.0
  0
LTYPE
  5
410
  2
DASHDOT
 70
0
  3
Dash Dot ____ _ ____ _
 72
65
 73
4
 40
2.0
 49
1.25
 49
-0.25
 49
0.25
 49
-0.25
  0
LTYPE
  5
411
  2
DASHED
 70
0
  3
Dashed __ __ __ __ __
 72
65
 73
2
 40
0.75
 49
0.5
 49
-0.25
  0
LTYPE
  5
43B
  2
DOTTED
 70
0
  3
Dotted .  .  .  .
 72
65
 73
2
 40
0.2
 49
0.0
 49
-0.2
  0
ENDTAB
  0
TABLE
  2
STYLE
  70
4
  0
STYLE
  2
KICAD
  70
0
  40
0
  41
1
  42
1
  50
0
  71
0
  3
isocp.shx
  0
STYLE
  2
KICADB
  70
0
  40
0
  41
1
  42
1
  50
0
  71
0
  3
isocp.shx
  0
STYLE
  2
KICADI
  70
0
  40
0
  41
1
  42
1
  50
15
  71
0
  3
isocp.shx
  0
STYLE
  2
KICADBI
  70
0
  40
0
  41
1
  42
1
  50
15
  71
0
  3
isocp.shx
  0
ENDTAB
  0
TABLE
  2
LAYER
  70
30
  0
LAYER
  2
BLACK
  70
0
  62
7
  6
CONTINUOUS
  0
LAYER
  2
GRAY1
  70
0
  62
251
  6
CONTINUOUS
  0
LAYER
  2
GRAY2
  70
0
  62
8
  6
CONTINUOUS
  0
LAYER
  2
GRAY3
  70
0
  62
9
  6
CONTINUOUS
  0
LAYER
  2
WHITE
  70
0
  62
7
  6
CONTINUOUS
  0
LAYER
  2
LYELLOW
  70
0
  62
51
  6
CONTINUOUS
  0
LAYER
  2
BLUE1
  70
0
  62
178
  6
CONTINUOUS
  0
LAYER
  2
GREEN1
  70
0
  62
98
  6
CONTINUOUS
  0
LAYER
  2
CYAN1
  70
0
  62
138
  6
CONTINUOUS
  0
LAYER
  2
RED1
  70
0
  62
18
  6
CONTINUOUS
  0
LAYER
  2
MAGENTA1
  70
0
  62
228
  6
CONTINUOUS
  0
LAYER
  2
BROWN1
  70
0
  62
58
  6
CONTINUOUS
  0
LAYER
  2
BLUE2
  70
0
  62
5
  6
CONTINUOUS
  0
LAYER
  2
GREEN2
  70
0
  62
3
  6
CONTINUOUS
  0
LAYER
  2
CYAN2
  70
0
  62
4
  6
CONTINUOUS
  0
LAYER
  2
RED2
  70
0
  62
1
  6
CONTINUOUS
  0
LAYER
  2
MAGENTA2
  70
0
  62
6
  6
CONTINUOUS
  0
LAYER
  2
BROWN2
  70
0
  62
54
  6
CONTINUOUS
  0
LAYER
  2
BLUE3
  70
0
  62
171
  6
CONTINUOUS
  0
LAYER
  2
GREEN3
  70
0
  62
91
  6
CONTINUOUS
  0
LAYER
  2
CYAN3
  70
0
  62
131
  6
CONTINUOUS
  0
LAYER
  2
RED3
  70
0
  62
11
  6
CONTINUOUS
  0
LAYER
  2
MAGENTA3
  70
0
  62
221
  6
CONTINUOUS
  0
LAYER
  2
YELLOW3
  70
0
  62
2
  6
CONTINUOUS
  0
LAYER
  2
BLUE4
  70
0
  62
5
  6
CONTINUOUS
  0
LAYER
  2
GREEN4
  70
0
  62
3
  6
CONTINUOUS
  0
LAYER
  2
CYAN4
  70
0
  62
4
  6
CONTINUOUS
  0
LAYER
  2
RED4
  70
0
  62
1
  6
CONTINUOUS
  0
LAYER
  2
MAGENTA4
  70
0
  62
6
  6
CONTINUOUS
  0
LAYER
  2
YELLOW4
  70
0
  62
2
  6
CONTINUOUS
  0
ENDTAB
  0
ENDSEC
  0
SECTION
  2
ENTITIES
0
LINE
8
BLACK
6
CONTINUOUS
10
123.953
20
-38.837
11
123.953
21
-38.837
0
LINE
8
BLACK
6
CONTINUOUS
10
123.953
20
-38.837
11
123.957
21
-38.8374
0
LINE
8
BLACK
6
CONTINUOUS
10
123.957
20
-38.8374
11
123.962
21
-38.8388
0
LINE
8
BLACK
6
CONTINUOUS
10
123.962
20
-38.8388
11
123.966
21
-38.8411
0
LINE
8
BLACK
6
CONTINUOUS
10
123.966
20
-38.8411
11
123.97
21
-38.8442
0
LINE
8
BLACK
6
CONTINUOUS
10
123.97
20
-38.8442
11
123.973
21
-38.848
0
LINE
8
BLACK
6
CONTINUOUS
10
123.973
20
-38.848
11
123.975
21
-38.8524
0
LINE
8
BLACK
6
CONTINUOUS
10
123.975
20
-38.8524
11
123.977
21
-38.8571
0
LINE
8
BLACK
6
CONTINUOUS
10
123.977
20
-38.8571
11
123.977
21
-38.862
0
LINE
8
BLACK
6
CONTINUOUS
10
123.977
20
-38.862
11
123.977
21
-38.8632
0
LINE
8
BLACK
6
CONTINUOUS
10
123.977
20
-38.8632
11
123.977
21
-108.711
0
LINE
8
BLACK
6
CONTINUOUS
10
123.977
20
-108.711
11
123.977
21
-108.712
0
LINE
8
BLACK
6
CONTINUOUS
10
123.977
20
-108.712
11
123.977
21
-108.713
0
LINE
8
BLACK
6
CONTINUOUS
10
123.977
20
-108.713
11
123.977
21
-108.713
0
LINE
8
BLACK
6
CONTINUOUS
10
123.977
20
-108.713
11
123.977
21
-108.717
0
LINE
8
BLACK
6
CONTINUOUS
10
123.977
20
-108.717
11
123.975
21
-108.722
0
LINE
8
BLACK
6
CONTINUOUS
10
123.975
20
-108.722
11
123.973
21
-108.726
0
LINE
8
BLACK
6
CONTINUOUS
10
123.973
20
-108.726
11
123.97
21
-108.73
0
LINE
8
BLACK
6
CONTINUOUS
10
123.97
20
-108.73
11
123.966
21
-108.733
0
LINE
8
BLACK
6
CONTINUOUS
10
123.966
20
-108.733
11
123.962
21
-108.735
0
LINE
8
BLACK
6
CONTINUOUS
10
123.962
20
-108.735
11
123.957
21
-108.737
0
LINE
8
BLACK
6
CONTINUOUS
10
123.957
20
-108.737
11
123.952
21
-108.737
0
LINE
8
BLACK
6
CONTINUOUS
10
123.952
20
-108.737
11
123.951
21
-108.737
0
LINE
8
BLACK
6
CONTINUOUS
10
123.951
20
-108.737
11
37.5932
21
-108.737
0
LINE
8
BLACK
6
CONTINUOUS
10
37.5932
20
-108.737
11
37.592
21
-108.737
0
LINE
8
BLACK
6
CONTINUOUS
10
37.592
20
-108.737
11
37.5871
21
-108.737
0
LINE
8
BLACK
6
CONTINUOUS
10
37.5871
20
-108.737
11
37.5824
21
-108.735
0
LINE
8
BLACK
6
CONTINUOUS
10
37.5824
20
-108.735
11
37.578
21
-108.733
0
LINE
8
BLACK
6
CONTINUOUS
10
37.578
20
-108.733
11
37.5742
21
-108.73
0
LINE
8
BLACK
6
CONTINUOUS
10
37.5742
20
-108.73
11
37.5711
21
-108.726
0
LINE
8
BLACK
6
CONTINUOUS
10
37.5711
20
-108.726
11
37.5688
21
-108.722
0
LINE
8
BLACK
6
CONTINUOUS
10
37.5688
20
-108.722
11
37.5674
21
-108.717
0
LINE
8
BLACK
6
CONTINUOUS
10
37.5674
20
-108.717
11
37.5669
21
-108.712
0
LINE
8
BLACK
6
CONTINUOUS
10
37.5669
20
-108.712
11
37.567
21
-108.711
0
LINE
8
BLACK
6
CONTINUOUS
10
37.567
20
-108.711
11
37.567
21
-38.8632
0
LINE
8
BLACK
6
CONTINUOUS
10
37.567
20
-38.8632
11
37.5669
21
-38.862
0
LINE
8
BLACK
6
CONTINUOUS
10
37.5669
20
-38.862
11
37.5674
21
-38.8571
0
LINE
8
BLACK
6
CONTINUOUS
10
37.5674
20
-38.8571
11
37.5688
21
-38.8524
0
LINE
8
BLACK
6
CONTINUOUS
10
37.5688
20
-38.8524
11
37.5711
21
-38.848
0
LINE
8
BLACK
6
CONTINUOUS
10
37.5711
20
-38.848
11
37.5742
21
-38.8442
0
LINE
8
BLACK
6
CONTINUOUS
10
37.5742
20
-38.8442
11
37.578
21
-38.8411
0
LINE
8
BLACK
6
CONTINUOUS
10
37.578
20
-38.8411
11
37.5824
21
-38.8388
0
LINE
8
BLACK
6
CONTINUOUS
10
37.5824
20
-38.8388
11
37.5871
21
-38.8374
0
LINE
8
BLACK
6
CONTINUOUS
10
37.5871
20
-38.8374
11
37.5908
21
-38.837
0
LINE
8
BLACK
6
CONTINUOUS
10
37.5908
20
-38.837
11
37.5908
21
-38.837
0
LINE
8
BLACK
6
CONTINUOUS
10
37.5908
20
-38.837
11
37.592
21
-38.8369
0
LINE
8
BLACK
6
CONTINUOUS
10
37.592
20
-38.8369
11
37.5932
21
-38.837
0
LINE
8
BLACK
6
CONTINUOUS
10
37.5932
20
-38.837
11
123.951
21
-38.837
0
LINE
8
BLACK
6
CONTINUOUS
10
123.951
20
-38.837
11
123.952
21
-38.8369
0
LINE
8
BLACK
6
CONTINUOUS
10
123.952
20
-38.8369
11
123.953
21
-38.837
0
LINE
8
BLACK
6
CONTINUOUS
10
37.617
20
-38.887
11
37.617
21
-108.687
0
LINE
8
BLACK
6
CONTINUOUS
10
37.617
20
-108.687
11
123.927
21
-108.687
0
LINE
8
BLACK
6
CONTINUOUS
10
123.927
20
-108.687
11
123.927
21
-38.887
0
LINE
8
BLACK
6
CONTINUOUS
10
123.927
20
-38.887
11
37.617
21
-38.887
  0
ENDSEC
  0
EOF
