M48
; DRILL file {KiCad (5.1.2)-2} date 5/15/2020 3:36:34 AM
; FORMAT={2:4/ absolute / inch / suppress leading zeros}
; #@! TF.CreationDate,2020-05-15T03:36:34+07:00
; #@! TF.GenerationSoftware,Kicad,Pcbnew,(5.1.2)-2
FMAT,2
INCH,TZ
T1C0.0315
T2C0.0354
T3C0.0394
T4C0.0433
T5C0.0472
T6C0.0598
T7C0.0787
T8C0.1260
%
G90
G05
T1
X40400Y-30800
X43262Y-25700
X43300Y-22800
X33600Y-21100
X33600Y-21887
X39500Y-25216
X39500Y-26200
X39500Y-27200
X39500Y-28184
X36000Y-20500
X36787Y-20500
X33500Y-30700
X34500Y-30700
X33500Y-33000
X34287Y-33000
X36000Y-31000
X36787Y-31000
T2
X40300Y-28800
X33500Y-34900
X34500Y-34900
X30900Y-34900
X31900Y-34900
X36000Y-34900
X37000Y-34900
X33600Y-23400
X33600Y-24400
T3
X38300Y-19700
X38300Y-20700
X38300Y-21700
X38300Y-22700
X38300Y-23700
X38300Y-24700
X27600Y-26300
X27600Y-27300
X27600Y-28300
X27600Y-29300
X27600Y-30300
X27600Y-31300
X27600Y-32300
X27600Y-33300
X27600Y-35300
X27600Y-36300
X27600Y-37300
X27600Y-38300
X27600Y-39300
X27600Y-40300
X36600Y-40350
X36600Y-41350
X37600Y-40350
X37600Y-41350
X38600Y-40350
X38600Y-41350
X46600Y-22700
X46600Y-23700
X46600Y-24700
X46600Y-25700
X46600Y-26700
X46600Y-27700
X46600Y-28700
X46600Y-29700
X46600Y-30700
X46600Y-31700
X46600Y-33300
X46600Y-34300
X46600Y-35300
X46600Y-36300
X46600Y-37300
X46600Y-38300
X46600Y-39300
X46600Y-40300
X40300Y-20100
X40300Y-21100
X40300Y-22100
X40300Y-23100
X34400Y-26500
X34400Y-27500
X34400Y-28500
X41800Y-17600
X41800Y-18600
X41800Y-19600
X41800Y-20600
X41800Y-21600
X41800Y-22600
X41800Y-23600
X41800Y-24600
X41800Y-25600
X41800Y-26600
X41800Y-27600
X41800Y-28600
X41800Y-29600
X41800Y-30600
X44800Y-17600
X44800Y-18600
X44800Y-19600
X44800Y-20600
X44800Y-21600
X44800Y-22600
X44800Y-23600
X44800Y-24600
X44800Y-25600
X44800Y-26600
X44800Y-27600
X44800Y-28600
X44800Y-29600
X44800Y-30600
X25400Y-21200
X25400Y-22200
X25400Y-23200
X25400Y-24200
X25400Y-25200
X25400Y-26200
X25400Y-27200
X25400Y-28200
X25400Y-29200
X25400Y-30200
X25400Y-31200
X25400Y-32200
X25400Y-33200
X25400Y-34200
X25400Y-35200
X25400Y-36200
X25400Y-37200
X25400Y-38200
X25400Y-39200
X25400Y-40200
X20200Y-21200
X20200Y-22200
X20200Y-23200
X20200Y-24200
X20200Y-25200
X20200Y-26200
X20200Y-27200
X20200Y-28200
X20200Y-29200
X20200Y-30200
X20200Y-31200
X20200Y-32200
X20200Y-33200
X20200Y-34200
X20200Y-35200
X20200Y-36200
X20200Y-37200
X20200Y-38200
X20200Y-39200
X20200Y-40200
X17000Y-32600
X17000Y-33600
X17000Y-34600
X17000Y-35600
X17000Y-36600
X17000Y-37600
X17000Y-38600
X17000Y-39600
X40600Y-25200
X40600Y-27169
X17000Y-21300
X17000Y-22300
X17000Y-23300
X17000Y-24300
X17000Y-25300
X17000Y-26300
X17000Y-27300
X17000Y-28300
X17000Y-29300
X17000Y-30300
X38300Y-26700
X38300Y-27700
X38300Y-28700
X38300Y-29700
X38300Y-30700
X38300Y-31700
T4
X29100Y-27400
X29769Y-27400
X30439Y-27400
X31108Y-27400
X31777Y-27400
X37000Y-16800
X37000Y-18572
X39559Y-16800
X39559Y-18572
T5
X31500Y-21200
X31500Y-25200
X31400Y-30000
X31400Y-33000
X29500Y-29500
X29500Y-33500
X36400Y-22100
X36400Y-25100
X31500Y-37600
X34500Y-37600
X36400Y-26300
X36400Y-29300
X29400Y-21800
X29400Y-24800
X42800Y-33500
X42800Y-36500
T6
X33100Y-18000
X35100Y-18000
T7
X17800Y-17400
X22600Y-17400
X22700Y-40500
X47800Y-41800
T8
X27600Y-20800
X29600Y-41300
X40600Y-41300
X46600Y-21300
T3
G00X27750Y-18025
M15
G01X27750Y-18813
M16
G05
G00X29994Y-17238
M15
G01X29206Y-17238
M16
G05
G00X29994Y-19600
M15
G01X29206Y-19600
M16
G05
T0
M30
