  0
SECTION
  2
HEADER
  9
$ANGBASE
  50
0.0
  9
$ANGDIR
  70
  1
  9
$MEASUREMENT
  70
0
  0
ENDSEC
  0
SECTION
  2
TABLES
  0
TABLE
  2
LTYPE
  70
4
  0
LTYPE
  5
40F
  2
CONTINUOUS
  70
0
  3
Solid line
  72
65
  73
0
  40
0.0
  0
LTYPE
  5
410
  2
DASHDOT
 70
0
  3
Dash Dot ____ _ ____ _
 72
65
 73
4
 40
2.0
 49
1.25
 49
-0.25
 49
0.25
 49
-0.25
  0
LTYPE
  5
411
  2
DASHED
 70
0
  3
Dashed __ __ __ __ __
 72
65
 73
2
 40
0.75
 49
0.5
 49
-0.25
  0
LTYPE
  5
43B
  2
DOTTED
 70
0
  3
Dotted .  .  .  .
 72
65
 73
2
 40
0.2
 49
0.0
 49
-0.2
  0
ENDTAB
  0
TABLE
  2
STYLE
  70
4
  0
STYLE
  2
KICAD
  70
0
  40
0
  41
1
  42
1
  50
0
  71
0
  3
isocp.shx
  0
STYLE
  2
KICADB
  70
0
  40
0
  41
1
  42
1
  50
0
  71
0
  3
isocp.shx
  0
STYLE
  2
KICADI
  70
0
  40
0
  41
1
  42
1
  50
15
  71
0
  3
isocp.shx
  0
STYLE
  2
KICADBI
  70
0
  40
0
  41
1
  42
1
  50
15
  71
0
  3
isocp.shx
  0
ENDTAB
  0
TABLE
  2
LAYER
  70
30
  0
LAYER
  2
BLACK
  70
0
  62
7
  6
CONTINUOUS
  0
LAYER
  2
GRAY1
  70
0
  62
251
  6
CONTINUOUS
  0
LAYER
  2
GRAY2
  70
0
  62
8
  6
CONTINUOUS
  0
LAYER
  2
GRAY3
  70
0
  62
9
  6
CONTINUOUS
  0
LAYER
  2
WHITE
  70
0
  62
7
  6
CONTINUOUS
  0
LAYER
  2
LYELLOW
  70
0
  62
51
  6
CONTINUOUS
  0
LAYER
  2
BLUE1
  70
0
  62
178
  6
CONTINUOUS
  0
LAYER
  2
GREEN1
  70
0
  62
98
  6
CONTINUOUS
  0
LAYER
  2
CYAN1
  70
0
  62
138
  6
CONTINUOUS
  0
LAYER
  2
RED1
  70
0
  62
18
  6
CONTINUOUS
  0
LAYER
  2
MAGENTA1
  70
0
  62
228
  6
CONTINUOUS
  0
LAYER
  2
BROWN1
  70
0
  62
58
  6
CONTINUOUS
  0
LAYER
  2
BLUE2
  70
0
  62
5
  6
CONTINUOUS
  0
LAYER
  2
GREEN2
  70
0
  62
3
  6
CONTINUOUS
  0
LAYER
  2
CYAN2
  70
0
  62
4
  6
CONTINUOUS
  0
LAYER
  2
RED2
  70
0
  62
1
  6
CONTINUOUS
  0
LAYER
  2
MAGENTA2
  70
0
  62
6
  6
CONTINUOUS
  0
LAYER
  2
BROWN2
  70
0
  62
54
  6
CONTINUOUS
  0
LAYER
  2
BLUE3
  70
0
  62
171
  6
CONTINUOUS
  0
LAYER
  2
GREEN3
  70
0
  62
91
  6
CONTINUOUS
  0
LAYER
  2
CYAN3
  70
0
  62
131
  6
CONTINUOUS
  0
LAYER
  2
RED3
  70
0
  62
11
  6
CONTINUOUS
  0
LAYER
  2
MAGENTA3
  70
0
  62
221
  6
CONTINUOUS
  0
LAYER
  2
YELLOW3
  70
0
  62
2
  6
CONTINUOUS
  0
LAYER
  2
BLUE4
  70
0
  62
5
  6
CONTINUOUS
  0
LAYER
  2
GREEN4
  70
0
  62
3
  6
CONTINUOUS
  0
LAYER
  2
CYAN4
  70
0
  62
4
  6
CONTINUOUS
  0
LAYER
  2
RED4
  70
0
  62
1
  6
CONTINUOUS
  0
LAYER
  2
MAGENTA4
  70
0
  62
6
  6
CONTINUOUS
  0
LAYER
  2
YELLOW4
  70
0
  62
2
  6
CONTINUOUS
  0
ENDTAB
  0
ENDSEC
  0
SECTION
  2
ENTITIES
0
LINE
8
BLACK
6
CONTINUOUS
10
121.995
20
-104.249
11
122.359
21
-104.4
0
LINE
8
BLACK
6
CONTINUOUS
10
122.359
20
-104.4
11
122.687
21
-104.618
0
LINE
8
BLACK
6
CONTINUOUS
10
122.687
20
-104.618
11
122.966
21
-104.897
0
LINE
8
BLACK
6
CONTINUOUS
10
122.966
20
-104.897
11
123.184
21
-105.225
0
LINE
8
BLACK
6
CONTINUOUS
10
123.184
20
-105.225
11
123.335
21
-105.589
0
LINE
8
BLACK
6
CONTINUOUS
10
123.335
20
-105.589
11
123.412
21
-105.975
0
LINE
8
BLACK
6
CONTINUOUS
10
123.412
20
-105.975
11
123.412
21
-106.369
0
LINE
8
BLACK
6
CONTINUOUS
10
123.412
20
-106.369
11
123.335
21
-106.755
0
LINE
8
BLACK
6
CONTINUOUS
10
123.335
20
-106.755
11
123.184
21
-107.119
0
LINE
8
BLACK
6
CONTINUOUS
10
123.184
20
-107.119
11
122.966
21
-107.447
0
LINE
8
BLACK
6
CONTINUOUS
10
122.966
20
-107.447
11
122.687
21
-107.726
0
LINE
8
BLACK
6
CONTINUOUS
10
122.687
20
-107.726
11
122.359
21
-107.944
0
LINE
8
BLACK
6
CONTINUOUS
10
122.359
20
-107.944
11
121.995
21
-108.095
0
LINE
8
BLACK
6
CONTINUOUS
10
121.995
20
-108.095
11
121.609
21
-108.172
0
LINE
8
BLACK
6
CONTINUOUS
10
121.609
20
-108.172
11
121.215
21
-108.172
0
LINE
8
BLACK
6
CONTINUOUS
10
121.215
20
-108.172
11
120.829
21
-108.095
0
LINE
8
BLACK
6
CONTINUOUS
10
120.829
20
-108.095
11
120.465
21
-107.944
0
LINE
8
BLACK
6
CONTINUOUS
10
120.465
20
-107.944
11
120.137
21
-107.726
0
LINE
8
BLACK
6
CONTINUOUS
10
120.137
20
-107.726
11
119.858
21
-107.447
0
LINE
8
BLACK
6
CONTINUOUS
10
119.858
20
-107.447
11
119.64
21
-107.119
0
LINE
8
BLACK
6
CONTINUOUS
10
119.64
20
-107.119
11
119.489
21
-106.755
0
LINE
8
BLACK
6
CONTINUOUS
10
119.489
20
-106.755
11
119.412
21
-106.369
0
LINE
8
BLACK
6
CONTINUOUS
10
119.412
20
-106.369
11
119.412
21
-105.975
0
LINE
8
BLACK
6
CONTINUOUS
10
119.412
20
-105.975
11
119.489
21
-105.589
0
LINE
8
BLACK
6
CONTINUOUS
10
119.489
20
-105.589
11
119.64
21
-105.225
0
LINE
8
BLACK
6
CONTINUOUS
10
119.64
20
-105.225
11
119.858
21
-104.897
0
LINE
8
BLACK
6
CONTINUOUS
10
119.858
20
-104.897
11
120.137
21
-104.618
0
LINE
8
BLACK
6
CONTINUOUS
10
120.137
20
-104.618
11
120.465
21
-104.4
0
LINE
8
BLACK
6
CONTINUOUS
10
120.465
20
-104.4
11
120.829
21
-104.249
0
LINE
8
BLACK
6
CONTINUOUS
10
120.829
20
-104.249
11
121.215
21
-104.172
0
LINE
8
BLACK
6
CONTINUOUS
10
121.215
20
-104.172
11
121.609
21
-104.172
0
LINE
8
BLACK
6
CONTINUOUS
10
121.609
20
-104.172
11
121.995
21
-104.249
0
LINE
8
BLACK
6
CONTINUOUS
10
75.6507
20
-103.363
11
75.9419
21
-103.484
0
LINE
8
BLACK
6
CONTINUOUS
10
75.9419
20
-103.484
11
76.2039
21
-103.659
0
LINE
8
BLACK
6
CONTINUOUS
10
76.2039
20
-103.659
11
76.4268
21
-103.882
0
LINE
8
BLACK
6
CONTINUOUS
10
76.4268
20
-103.882
11
76.6019
21
-104.144
0
LINE
8
BLACK
6
CONTINUOUS
10
76.6019
20
-104.144
11
76.7225
21
-104.435
0
LINE
8
BLACK
6
CONTINUOUS
10
76.7225
20
-104.435
11
76.784
21
-104.744
0
LINE
8
BLACK
6
CONTINUOUS
10
76.784
20
-104.744
11
76.784
21
-105.06
0
LINE
8
BLACK
6
CONTINUOUS
10
76.784
20
-105.06
11
76.7225
21
-105.369
0
LINE
8
BLACK
6
CONTINUOUS
10
76.7225
20
-105.369
11
76.6019
21
-105.66
0
LINE
8
BLACK
6
CONTINUOUS
10
76.6019
20
-105.66
11
76.4268
21
-105.922
0
LINE
8
BLACK
6
CONTINUOUS
10
76.4268
20
-105.922
11
76.2039
21
-106.145
0
LINE
8
BLACK
6
CONTINUOUS
10
76.2039
20
-106.145
11
75.9419
21
-106.32
0
LINE
8
BLACK
6
CONTINUOUS
10
75.9419
20
-106.32
11
75.6507
21
-106.441
0
LINE
8
BLACK
6
CONTINUOUS
10
75.6507
20
-106.441
11
75.3416
21
-106.502
0
LINE
8
BLACK
6
CONTINUOUS
10
75.3416
20
-106.502
11
75.0264
21
-106.502
0
LINE
8
BLACK
6
CONTINUOUS
10
75.0264
20
-106.502
11
74.7173
21
-106.441
0
LINE
8
BLACK
6
CONTINUOUS
10
74.7173
20
-106.441
11
74.4261
21
-106.32
0
LINE
8
BLACK
6
CONTINUOUS
10
74.4261
20
-106.32
11
74.1641
21
-106.145
0
LINE
8
BLACK
6
CONTINUOUS
10
74.1641
20
-106.145
11
73.9412
21
-105.922
0
LINE
8
BLACK
6
CONTINUOUS
10
73.9412
20
-105.922
11
73.7661
21
-105.66
0
LINE
8
BLACK
6
CONTINUOUS
10
73.7661
20
-105.66
11
73.6455
21
-105.369
0
LINE
8
BLACK
6
CONTINUOUS
10
73.6455
20
-105.369
11
73.584
21
-105.06
0
LINE
8
BLACK
6
CONTINUOUS
10
73.584
20
-105.06
11
73.584
21
-104.744
0
LINE
8
BLACK
6
CONTINUOUS
10
73.584
20
-104.744
11
73.6455
21
-104.435
0
LINE
8
BLACK
6
CONTINUOUS
10
73.6455
20
-104.435
11
73.7661
21
-104.144
0
LINE
8
BLACK
6
CONTINUOUS
10
73.7661
20
-104.144
11
73.9412
21
-103.882
0
LINE
8
BLACK
6
CONTINUOUS
10
73.9412
20
-103.882
11
74.1641
21
-103.659
0
LINE
8
BLACK
6
CONTINUOUS
10
74.1641
20
-103.659
11
74.4261
21
-103.484
0
LINE
8
BLACK
6
CONTINUOUS
10
74.4261
20
-103.484
11
74.7173
21
-103.363
0
LINE
8
BLACK
6
CONTINUOUS
10
74.7173
20
-103.363
11
75.0264
21
-103.302
0
LINE
8
BLACK
6
CONTINUOUS
10
75.0264
20
-103.302
11
75.3416
21
-103.302
0
LINE
8
BLACK
6
CONTINUOUS
10
75.3416
20
-103.302
11
75.6507
21
-103.363
0
LINE
8
BLACK
6
CONTINUOUS
10
103.591
20
-103.363
11
103.882
21
-103.484
0
LINE
8
BLACK
6
CONTINUOUS
10
103.882
20
-103.484
11
104.144
21
-103.659
0
LINE
8
BLACK
6
CONTINUOUS
10
104.144
20
-103.659
11
104.367
21
-103.882
0
LINE
8
BLACK
6
CONTINUOUS
10
104.367
20
-103.882
11
104.542
21
-104.144
0
LINE
8
BLACK
6
CONTINUOUS
10
104.542
20
-104.144
11
104.663
21
-104.435
0
LINE
8
BLACK
6
CONTINUOUS
10
104.663
20
-104.435
11
104.724
21
-104.744
0
LINE
8
BLACK
6
CONTINUOUS
10
104.724
20
-104.744
11
104.724
21
-105.06
0
LINE
8
BLACK
6
CONTINUOUS
10
104.724
20
-105.06
11
104.663
21
-105.369
0
LINE
8
BLACK
6
CONTINUOUS
10
104.663
20
-105.369
11
104.542
21
-105.66
0
LINE
8
BLACK
6
CONTINUOUS
10
104.542
20
-105.66
11
104.367
21
-105.922
0
LINE
8
BLACK
6
CONTINUOUS
10
104.367
20
-105.922
11
104.144
21
-106.145
0
LINE
8
BLACK
6
CONTINUOUS
10
104.144
20
-106.145
11
103.882
21
-106.32
0
LINE
8
BLACK
6
CONTINUOUS
10
103.882
20
-106.32
11
103.591
21
-106.441
0
LINE
8
BLACK
6
CONTINUOUS
10
103.591
20
-106.441
11
103.282
21
-106.502
0
LINE
8
BLACK
6
CONTINUOUS
10
103.282
20
-106.502
11
102.966
21
-106.502
0
LINE
8
BLACK
6
CONTINUOUS
10
102.966
20
-106.502
11
102.657
21
-106.441
0
LINE
8
BLACK
6
CONTINUOUS
10
102.657
20
-106.441
11
102.366
21
-106.32
0
LINE
8
BLACK
6
CONTINUOUS
10
102.366
20
-106.32
11
102.104
21
-106.145
0
LINE
8
BLACK
6
CONTINUOUS
10
102.104
20
-106.145
11
101.881
21
-105.922
0
LINE
8
BLACK
6
CONTINUOUS
10
101.881
20
-105.922
11
101.706
21
-105.66
0
LINE
8
BLACK
6
CONTINUOUS
10
101.706
20
-105.66
11
101.585
21
-105.369
0
LINE
8
BLACK
6
CONTINUOUS
10
101.585
20
-105.369
11
101.524
21
-105.06
0
LINE
8
BLACK
6
CONTINUOUS
10
101.524
20
-105.06
11
101.524
21
-104.744
0
LINE
8
BLACK
6
CONTINUOUS
10
101.524
20
-104.744
11
101.585
21
-104.435
0
LINE
8
BLACK
6
CONTINUOUS
10
101.585
20
-104.435
11
101.706
21
-104.144
0
LINE
8
BLACK
6
CONTINUOUS
10
101.706
20
-104.144
11
101.881
21
-103.882
0
LINE
8
BLACK
6
CONTINUOUS
10
101.881
20
-103.882
11
102.104
21
-103.659
0
LINE
8
BLACK
6
CONTINUOUS
10
102.104
20
-103.659
11
102.366
21
-103.484
0
LINE
8
BLACK
6
CONTINUOUS
10
102.366
20
-103.484
11
102.657
21
-103.363
0
LINE
8
BLACK
6
CONTINUOUS
10
102.657
20
-103.363
11
102.966
21
-103.302
0
LINE
8
BLACK
6
CONTINUOUS
10
102.966
20
-103.302
11
103.282
21
-103.302
0
LINE
8
BLACK
6
CONTINUOUS
10
103.282
20
-103.302
11
103.591
21
-103.363
0
LINE
8
BLACK
6
CONTINUOUS
10
99.144
20
-106.129
11
96.944
21
-106.129
0
LINE
8
BLACK
6
CONTINUOUS
10
96.944
20
-106.129
11
96.944
21
-103.929
0
LINE
8
BLACK
6
CONTINUOUS
10
96.944
20
-103.929
11
99.144
21
-103.929
0
LINE
8
BLACK
6
CONTINUOUS
10
99.144
20
-103.929
11
99.144
21
-106.129
0
LINE
8
BLACK
6
CONTINUOUS
10
96.604
20
-106.129
11
94.404
21
-106.129
0
LINE
8
BLACK
6
CONTINUOUS
10
94.404
20
-106.129
11
94.404
21
-103.929
0
LINE
8
BLACK
6
CONTINUOUS
10
94.404
20
-103.929
11
96.604
21
-103.929
0
LINE
8
BLACK
6
CONTINUOUS
10
96.604
20
-103.929
11
96.604
21
-106.129
0
LINE
8
BLACK
6
CONTINUOUS
10
94.064
20
-106.129
11
91.864
21
-106.129
0
LINE
8
BLACK
6
CONTINUOUS
10
91.864
20
-106.129
11
91.864
21
-103.929
0
LINE
8
BLACK
6
CONTINUOUS
10
91.864
20
-103.929
11
94.064
21
-103.929
0
LINE
8
BLACK
6
CONTINUOUS
10
94.064
20
-103.929
11
94.064
21
-106.129
0
LINE
8
BLACK
6
CONTINUOUS
10
58.5331
20
-99.9853
11
59.079
21
-100.211
0
LINE
8
BLACK
6
CONTINUOUS
10
59.079
20
-100.211
11
59.5704
21
-100.54
0
LINE
8
BLACK
6
CONTINUOUS
10
59.5704
20
-100.54
11
59.9883
21
-100.958
0
LINE
8
BLACK
6
CONTINUOUS
10
59.9883
20
-100.958
11
60.3166
21
-101.449
0
LINE
8
BLACK
6
CONTINUOUS
10
60.3166
20
-101.449
11
60.5427
21
-101.995
0
LINE
8
BLACK
6
CONTINUOUS
10
60.5427
20
-101.995
11
60.658
21
-102.575
0
LINE
8
BLACK
6
CONTINUOUS
10
60.658
20
-102.575
11
60.658
21
-103.165
0
LINE
8
BLACK
6
CONTINUOUS
10
60.658
20
-103.165
11
60.5427
21
-103.745
0
LINE
8
BLACK
6
CONTINUOUS
10
60.5427
20
-103.745
11
60.3166
21
-104.291
0
LINE
8
BLACK
6
CONTINUOUS
10
60.3166
20
-104.291
11
59.9883
21
-104.782
0
LINE
8
BLACK
6
CONTINUOUS
10
59.9883
20
-104.782
11
59.5704
21
-105.2
0
LINE
8
BLACK
6
CONTINUOUS
10
59.5704
20
-105.2
11
59.079
21
-105.529
0
LINE
8
BLACK
6
CONTINUOUS
10
59.079
20
-105.529
11
58.5331
21
-105.755
0
LINE
8
BLACK
6
CONTINUOUS
10
58.5331
20
-105.755
11
57.9535
21
-105.87
0
LINE
8
BLACK
6
CONTINUOUS
10
57.9535
20
-105.87
11
57.3625
21
-105.87
0
LINE
8
BLACK
6
CONTINUOUS
10
57.3625
20
-105.87
11
56.7829
21
-105.755
0
LINE
8
BLACK
6
CONTINUOUS
10
56.7829
20
-105.755
11
56.237
21
-105.529
0
LINE
8
BLACK
6
CONTINUOUS
10
56.237
20
-105.529
11
55.7456
21
-105.2
0
LINE
8
BLACK
6
CONTINUOUS
10
55.7456
20
-105.2
11
55.3277
21
-104.782
0
LINE
8
BLACK
6
CONTINUOUS
10
55.3277
20
-104.782
11
54.9994
21
-104.291
0
LINE
8
BLACK
6
CONTINUOUS
10
54.9994
20
-104.291
11
54.7733
21
-103.745
0
LINE
8
BLACK
6
CONTINUOUS
10
54.7733
20
-103.745
11
54.658
21
-103.165
0
LINE
8
BLACK
6
CONTINUOUS
10
54.658
20
-103.165
11
54.658
21
-102.575
0
LINE
8
BLACK
6
CONTINUOUS
10
54.658
20
-102.575
11
54.7733
21
-101.995
0
LINE
8
BLACK
6
CONTINUOUS
10
54.7733
20
-101.995
11
54.9994
21
-101.449
0
LINE
8
BLACK
6
CONTINUOUS
10
54.9994
20
-101.449
11
55.3277
21
-100.958
0
LINE
8
BLACK
6
CONTINUOUS
10
55.3277
20
-100.958
11
55.7456
21
-100.54
0
LINE
8
BLACK
6
CONTINUOUS
10
55.7456
20
-100.54
11
56.237
21
-100.211
0
LINE
8
BLACK
6
CONTINUOUS
10
56.237
20
-100.211
11
56.7829
21
-99.9853
0
LINE
8
BLACK
6
CONTINUOUS
10
56.7829
20
-99.9853
11
57.3625
21
-99.87
0
LINE
8
BLACK
6
CONTINUOUS
10
57.3625
20
-99.87
11
57.9535
21
-99.87
0
LINE
8
BLACK
6
CONTINUOUS
10
57.9535
20
-99.87
11
58.5331
21
-99.9853
0
LINE
8
BLACK
6
CONTINUOUS
10
94.064
20
-103.589
11
91.864
21
-103.589
0
LINE
8
BLACK
6
CONTINUOUS
10
91.864
20
-103.589
11
91.864
21
-101.389
0
LINE
8
BLACK
6
CONTINUOUS
10
91.864
20
-101.389
11
94.064
21
-101.389
0
LINE
8
BLACK
6
CONTINUOUS
10
94.064
20
-101.389
11
94.064
21
-103.589
0
LINE
8
BLACK
6
CONTINUOUS
10
99.144
20
-103.589
11
96.944
21
-103.589
0
LINE
8
BLACK
6
CONTINUOUS
10
96.944
20
-103.589
11
96.944
21
-101.389
0
LINE
8
BLACK
6
CONTINUOUS
10
96.944
20
-101.389
11
99.144
21
-101.389
0
LINE
8
BLACK
6
CONTINUOUS
10
99.144
20
-101.389
11
99.144
21
-103.589
0
LINE
8
BLACK
6
CONTINUOUS
10
96.604
20
-103.589
11
94.404
21
-103.589
0
LINE
8
BLACK
6
CONTINUOUS
10
94.404
20
-103.589
11
94.404
21
-101.389
0
LINE
8
BLACK
6
CONTINUOUS
10
94.404
20
-101.389
11
96.604
21
-101.389
0
LINE
8
BLACK
6
CONTINUOUS
10
96.604
20
-101.389
11
96.604
21
-103.589
0
LINE
8
BLACK
6
CONTINUOUS
10
119.464
20
-103.462
11
117.264
21
-103.462
0
LINE
8
BLACK
6
CONTINUOUS
10
117.264
20
-103.462
11
117.264
21
-101.262
0
LINE
8
BLACK
6
CONTINUOUS
10
117.264
20
-101.262
11
119.464
21
-101.262
0
LINE
8
BLACK
6
CONTINUOUS
10
119.464
20
-101.262
11
119.464
21
-103.462
0
LINE
8
BLACK
6
CONTINUOUS
10
71.204
20
-103.462
11
69.004
21
-103.462
0
LINE
8
BLACK
6
CONTINUOUS
10
69.004
20
-103.462
11
69.004
21
-101.262
0
LINE
8
BLACK
6
CONTINUOUS
10
69.004
20
-101.262
11
71.204
21
-101.262
0
LINE
8
BLACK
6
CONTINUOUS
10
71.204
20
-101.262
11
71.204
21
-103.462
0
LINE
8
BLACK
6
CONTINUOUS
10
52.408
20
-103.208
11
50.208
21
-103.208
0
LINE
8
BLACK
6
CONTINUOUS
10
50.208
20
-103.208
11
50.208
21
-101.008
0
LINE
8
BLACK
6
CONTINUOUS
10
50.208
20
-101.008
11
52.408
21
-101.008
0
LINE
8
BLACK
6
CONTINUOUS
10
52.408
20
-101.008
11
52.408
21
-103.208
0
LINE
8
BLACK
6
CONTINUOUS
10
65.616
20
-103.208
11
63.416
21
-103.208
0
LINE
8
BLACK
6
CONTINUOUS
10
63.416
20
-103.208
11
63.416
21
-101.008
0
LINE
8
BLACK
6
CONTINUOUS
10
63.416
20
-101.008
11
65.616
21
-101.008
0
LINE
8
BLACK
6
CONTINUOUS
10
65.616
20
-101.008
11
65.616
21
-103.208
0
LINE
8
BLACK
6
CONTINUOUS
10
44.28
20
-101.684
11
42.08
21
-101.684
0
LINE
8
BLACK
6
CONTINUOUS
10
42.08
20
-101.684
11
42.08
21
-99.484
0
LINE
8
BLACK
6
CONTINUOUS
10
42.08
20
-99.484
11
44.28
21
-99.484
0
LINE
8
BLACK
6
CONTINUOUS
10
44.28
20
-99.484
11
44.28
21
-101.684
0
LINE
8
BLACK
6
CONTINUOUS
10
119.464
20
-100.922
11
117.264
21
-100.922
0
LINE
8
BLACK
6
CONTINUOUS
10
117.264
20
-100.922
11
117.264
21
-98.722
0
LINE
8
BLACK
6
CONTINUOUS
10
117.264
20
-98.722
11
119.464
21
-98.722
0
LINE
8
BLACK
6
CONTINUOUS
10
119.464
20
-98.722
11
119.464
21
-100.922
0
LINE
8
BLACK
6
CONTINUOUS
10
71.204
20
-100.922
11
69.004
21
-100.922
0
LINE
8
BLACK
6
CONTINUOUS
10
69.004
20
-100.922
11
69.004
21
-98.722
0
LINE
8
BLACK
6
CONTINUOUS
10
69.004
20
-98.722
11
71.204
21
-98.722
0
LINE
8
BLACK
6
CONTINUOUS
10
71.204
20
-98.722
11
71.204
21
-100.922
0
LINE
8
BLACK
6
CONTINUOUS
10
52.408
20
-100.668
11
50.208
21
-100.668
0
LINE
8
BLACK
6
CONTINUOUS
10
50.208
20
-100.668
11
50.208
21
-98.468
0
LINE
8
BLACK
6
CONTINUOUS
10
50.208
20
-98.468
11
52.408
21
-98.468
0
LINE
8
BLACK
6
CONTINUOUS
10
52.408
20
-98.468
11
52.408
21
-100.668
0
LINE
8
BLACK
6
CONTINUOUS
10
65.616
20
-100.668
11
63.416
21
-100.668
0
LINE
8
BLACK
6
CONTINUOUS
10
63.416
20
-100.668
11
63.416
21
-98.468
0
LINE
8
BLACK
6
CONTINUOUS
10
63.416
20
-98.468
11
65.616
21
-98.468
0
LINE
8
BLACK
6
CONTINUOUS
10
65.616
20
-98.468
11
65.616
21
-100.668
0
LINE
8
BLACK
6
CONTINUOUS
10
44.28
20
-99.144
11
42.08
21
-99.144
0
LINE
8
BLACK
6
CONTINUOUS
10
42.08
20
-99.144
11
42.08
21
-96.944
0
LINE
8
BLACK
6
CONTINUOUS
10
42.08
20
-96.944
11
44.28
21
-96.944
0
LINE
8
BLACK
6
CONTINUOUS
10
44.28
20
-96.944
11
44.28
21
-99.144
0
LINE
8
BLACK
6
CONTINUOUS
10
71.204
20
-98.382
11
69.004
21
-98.382
0
LINE
8
BLACK
6
CONTINUOUS
10
69.004
20
-98.382
11
69.004
21
-96.182
0
LINE
8
BLACK
6
CONTINUOUS
10
69.004
20
-96.182
11
71.204
21
-96.182
0
LINE
8
BLACK
6
CONTINUOUS
10
71.204
20
-96.182
11
71.204
21
-98.382
0
LINE
8
BLACK
6
CONTINUOUS
10
119.464
20
-98.382
11
117.264
21
-98.382
0
LINE
8
BLACK
6
CONTINUOUS
10
117.264
20
-98.382
11
117.264
21
-96.182
0
LINE
8
BLACK
6
CONTINUOUS
10
117.264
20
-96.182
11
119.464
21
-96.182
0
LINE
8
BLACK
6
CONTINUOUS
10
119.464
20
-96.182
11
119.464
21
-98.382
0
LINE
8
BLACK
6
CONTINUOUS
10
65.616
20
-98.128
11
63.416
21
-98.128
0
LINE
8
BLACK
6
CONTINUOUS
10
63.416
20
-98.128
11
63.416
21
-95.928
0
LINE
8
BLACK
6
CONTINUOUS
10
63.416
20
-95.928
11
65.616
21
-95.928
0
LINE
8
BLACK
6
CONTINUOUS
10
65.616
20
-95.928
11
65.616
21
-98.128
0
LINE
8
BLACK
6
CONTINUOUS
10
52.408
20
-98.128
11
50.208
21
-98.128
0
LINE
8
BLACK
6
CONTINUOUS
10
50.208
20
-98.128
11
50.208
21
-95.928
0
LINE
8
BLACK
6
CONTINUOUS
10
50.208
20
-95.928
11
52.408
21
-95.928
0
LINE
8
BLACK
6
CONTINUOUS
10
52.408
20
-95.928
11
52.408
21
-98.128
0
LINE
8
BLACK
6
CONTINUOUS
10
87.8652
20
-94.3214
11
88.0914
21
-94.39
0
LINE
8
BLACK
6
CONTINUOUS
10
88.0914
20
-94.39
11
88.2999
21
-94.5014
0
LINE
8
BLACK
6
CONTINUOUS
10
88.2999
20
-94.5014
11
88.4826
21
-94.6514
0
LINE
8
BLACK
6
CONTINUOUS
10
88.4826
20
-94.6514
11
88.6326
21
-94.8341
0
LINE
8
BLACK
6
CONTINUOUS
10
88.6326
20
-94.8341
11
88.744
21
-95.0426
0
LINE
8
BLACK
6
CONTINUOUS
10
88.744
20
-95.0426
11
88.8126
21
-95.2688
0
LINE
8
BLACK
6
CONTINUOUS
10
88.8126
20
-95.2688
11
88.8358
21
-95.504
0
LINE
8
BLACK
6
CONTINUOUS
10
88.8358
20
-95.504
11
88.8126
21
-95.7392
0
LINE
8
BLACK
6
CONTINUOUS
10
88.8126
20
-95.7392
11
88.744
21
-95.9654
0
LINE
8
BLACK
6
CONTINUOUS
10
88.744
20
-95.9654
11
88.6326
21
-96.1739
0
LINE
8
BLACK
6
CONTINUOUS
10
88.6326
20
-96.1739
11
88.4826
21
-96.3566
0
LINE
8
BLACK
6
CONTINUOUS
10
88.4826
20
-96.3566
11
88.2999
21
-96.5066
0
LINE
8
BLACK
6
CONTINUOUS
10
88.2999
20
-96.5066
11
88.0914
21
-96.618
0
LINE
8
BLACK
6
CONTINUOUS
10
88.0914
20
-96.618
11
87.8652
21
-96.6866
0
LINE
8
BLACK
6
CONTINUOUS
10
87.8652
20
-96.6866
11
87.6889
21
-96.704
0
LINE
8
BLACK
6
CONTINUOUS
10
87.6889
20
-96.704
11
87.571
21
-96.704
0
LINE
8
BLACK
6
CONTINUOUS
10
87.571
20
-96.704
11
87.3948
21
-96.6866
0
LINE
8
BLACK
6
CONTINUOUS
10
87.3948
20
-96.6866
11
87.1686
21
-96.618
0
LINE
8
BLACK
6
CONTINUOUS
10
87.1686
20
-96.618
11
86.9601
21
-96.5066
0
LINE
8
BLACK
6
CONTINUOUS
10
86.9601
20
-96.5066
11
86.7774
21
-96.3566
0
LINE
8
BLACK
6
CONTINUOUS
10
86.7774
20
-96.3566
11
86.6274
21
-96.1739
0
LINE
8
BLACK
6
CONTINUOUS
10
86.6274
20
-96.1739
11
86.516
21
-95.9654
0
LINE
8
BLACK
6
CONTINUOUS
10
86.516
20
-95.9654
11
86.4474
21
-95.7392
0
LINE
8
BLACK
6
CONTINUOUS
10
86.4474
20
-95.7392
11
86.4242
21
-95.504
0
LINE
8
BLACK
6
CONTINUOUS
10
86.4242
20
-95.504
11
86.4474
21
-95.2688
0
LINE
8
BLACK
6
CONTINUOUS
10
86.4474
20
-95.2688
11
86.516
21
-95.0426
0
LINE
8
BLACK
6
CONTINUOUS
10
86.516
20
-95.0426
11
86.6274
21
-94.8341
0
LINE
8
BLACK
6
CONTINUOUS
10
86.6274
20
-94.8341
11
86.7774
21
-94.6514
0
LINE
8
BLACK
6
CONTINUOUS
10
86.7774
20
-94.6514
11
86.9601
21
-94.5014
0
LINE
8
BLACK
6
CONTINUOUS
10
86.9601
20
-94.5014
11
87.1686
21
-94.39
0
LINE
8
BLACK
6
CONTINUOUS
10
87.1686
20
-94.39
11
87.3948
21
-94.3214
0
LINE
8
BLACK
6
CONTINUOUS
10
87.3948
20
-94.3214
11
87.571
21
-94.304
0
LINE
8
BLACK
6
CONTINUOUS
10
87.571
20
-94.304
11
87.6889
21
-94.304
0
LINE
8
BLACK
6
CONTINUOUS
10
87.6889
20
-94.304
11
87.8652
21
-94.3214
0
LINE
8
BLACK
6
CONTINUOUS
10
80.36
20
-94.3501
11
80.5784
21
-94.4406
0
LINE
8
BLACK
6
CONTINUOUS
10
80.5784
20
-94.4406
11
80.775
21
-94.5719
0
LINE
8
BLACK
6
CONTINUOUS
10
80.775
20
-94.5719
11
80.9421
21
-94.739
0
LINE
8
BLACK
6
CONTINUOUS
10
80.9421
20
-94.739
11
81.0734
21
-94.9356
0
LINE
8
BLACK
6
CONTINUOUS
10
81.0734
20
-94.9356
11
81.1639
21
-95.154
0
LINE
8
BLACK
6
CONTINUOUS
10
81.1639
20
-95.154
11
81.21
21
-95.3858
0
LINE
8
BLACK
6
CONTINUOUS
10
81.21
20
-95.3858
11
81.21
21
-95.6222
0
LINE
8
BLACK
6
CONTINUOUS
10
81.21
20
-95.6222
11
81.1639
21
-95.854
0
LINE
8
BLACK
6
CONTINUOUS
10
81.1639
20
-95.854
11
81.0734
21
-96.0724
0
LINE
8
BLACK
6
CONTINUOUS
10
81.0734
20
-96.0724
11
80.9421
21
-96.269
0
LINE
8
BLACK
6
CONTINUOUS
10
80.9421
20
-96.269
11
80.775
21
-96.4361
0
LINE
8
BLACK
6
CONTINUOUS
10
80.775
20
-96.4361
11
80.5784
21
-96.5674
0
LINE
8
BLACK
6
CONTINUOUS
10
80.5784
20
-96.5674
11
80.36
21
-96.6579
0
LINE
8
BLACK
6
CONTINUOUS
10
80.36
20
-96.6579
11
80.1282
21
-96.704
0
LINE
8
BLACK
6
CONTINUOUS
10
80.1282
20
-96.704
11
79.8918
21
-96.704
0
LINE
8
BLACK
6
CONTINUOUS
10
79.8918
20
-96.704
11
79.66
21
-96.6579
0
LINE
8
BLACK
6
CONTINUOUS
10
79.66
20
-96.6579
11
79.4416
21
-96.5674
0
LINE
8
BLACK
6
CONTINUOUS
10
79.4416
20
-96.5674
11
79.245
21
-96.4361
0
LINE
8
BLACK
6
CONTINUOUS
10
79.245
20
-96.4361
11
79.0779
21
-96.269
0
LINE
8
BLACK
6
CONTINUOUS
10
79.0779
20
-96.269
11
78.9466
21
-96.0724
0
LINE
8
BLACK
6
CONTINUOUS
10
78.9466
20
-96.0724
11
78.8561
21
-95.854
0
LINE
8
BLACK
6
CONTINUOUS
10
78.8561
20
-95.854
11
78.81
21
-95.6222
0
LINE
8
BLACK
6
CONTINUOUS
10
78.81
20
-95.6222
11
78.81
21
-95.3858
0
LINE
8
BLACK
6
CONTINUOUS
10
78.81
20
-95.3858
11
78.8561
21
-95.154
0
LINE
8
BLACK
6
CONTINUOUS
10
78.8561
20
-95.154
11
78.9466
21
-94.9356
0
LINE
8
BLACK
6
CONTINUOUS
10
78.9466
20
-94.9356
11
79.0779
21
-94.739
0
LINE
8
BLACK
6
CONTINUOUS
10
79.0779
20
-94.739
11
79.245
21
-94.5719
0
LINE
8
BLACK
6
CONTINUOUS
10
79.245
20
-94.5719
11
79.4416
21
-94.4406
0
LINE
8
BLACK
6
CONTINUOUS
10
79.4416
20
-94.4406
11
79.66
21
-94.3501
0
LINE
8
BLACK
6
CONTINUOUS
10
79.66
20
-94.3501
11
79.8918
21
-94.304
0
LINE
8
BLACK
6
CONTINUOUS
10
79.8918
20
-94.304
11
80.1282
21
-94.304
0
LINE
8
BLACK
6
CONTINUOUS
10
80.1282
20
-94.304
11
80.36
21
-94.3501
0
LINE
8
BLACK
6
CONTINUOUS
10
44.28
20
-96.604
11
42.08
21
-96.604
0
LINE
8
BLACK
6
CONTINUOUS
10
42.08
20
-96.604
11
42.08
21
-94.404
0
LINE
8
BLACK
6
CONTINUOUS
10
42.08
20
-94.404
11
44.28
21
-94.404
0
LINE
8
BLACK
6
CONTINUOUS
10
44.28
20
-94.404
11
44.28
21
-96.604
0
LINE
8
BLACK
6
CONTINUOUS
10
119.464
20
-95.842
11
117.264
21
-95.842
0
LINE
8
BLACK
6
CONTINUOUS
10
117.264
20
-95.842
11
117.264
21
-93.642
0
LINE
8
BLACK
6
CONTINUOUS
10
117.264
20
-93.642
11
119.464
21
-93.642
0
LINE
8
BLACK
6
CONTINUOUS
10
119.464
20
-93.642
11
119.464
21
-95.842
0
LINE
8
BLACK
6
CONTINUOUS
10
71.204
20
-95.842
11
69.004
21
-95.842
0
LINE
8
BLACK
6
CONTINUOUS
10
69.004
20
-95.842
11
69.004
21
-93.642
0
LINE
8
BLACK
6
CONTINUOUS
10
69.004
20
-93.642
11
71.204
21
-93.642
0
LINE
8
BLACK
6
CONTINUOUS
10
71.204
20
-93.642
11
71.204
21
-95.842
0
LINE
8
BLACK
6
CONTINUOUS
10
52.408
20
-95.588
11
50.208
21
-95.588
0
LINE
8
BLACK
6
CONTINUOUS
10
50.208
20
-95.588
11
50.208
21
-93.388
0
LINE
8
BLACK
6
CONTINUOUS
10
50.208
20
-93.388
11
52.408
21
-93.388
0
LINE
8
BLACK
6
CONTINUOUS
10
52.408
20
-93.388
11
52.408
21
-95.588
0
LINE
8
BLACK
6
CONTINUOUS
10
65.616
20
-95.588
11
63.416
21
-95.588
0
LINE
8
BLACK
6
CONTINUOUS
10
63.416
20
-95.588
11
63.416
21
-93.388
0
LINE
8
BLACK
6
CONTINUOUS
10
63.416
20
-93.388
11
65.616
21
-93.388
0
LINE
8
BLACK
6
CONTINUOUS
10
65.616
20
-93.388
11
65.616
21
-95.588
0
LINE
8
BLACK
6
CONTINUOUS
10
44.28
20
-94.064
11
42.08
21
-94.064
0
LINE
8
BLACK
6
CONTINUOUS
10
42.08
20
-94.064
11
42.08
21
-91.864
0
LINE
8
BLACK
6
CONTINUOUS
10
42.08
20
-91.864
11
44.28
21
-91.864
0
LINE
8
BLACK
6
CONTINUOUS
10
44.28
20
-91.864
11
44.28
21
-94.064
0
LINE
8
BLACK
6
CONTINUOUS
10
108.947
20
-91.5274
11
109.173
21
-91.596
0
LINE
8
BLACK
6
CONTINUOUS
10
109.173
20
-91.596
11
109.382
21
-91.7074
0
LINE
8
BLACK
6
CONTINUOUS
10
109.382
20
-91.7074
11
109.565
21
-91.8574
0
LINE
8
BLACK
6
CONTINUOUS
10
109.565
20
-91.8574
11
109.715
21
-92.0401
0
LINE
8
BLACK
6
CONTINUOUS
10
109.715
20
-92.0401
11
109.826
21
-92.2486
0
LINE
8
BLACK
6
CONTINUOUS
10
109.826
20
-92.2486
11
109.895
21
-92.4748
0
LINE
8
BLACK
6
CONTINUOUS
10
109.895
20
-92.4748
11
109.918
21
-92.71
0
LINE
8
BLACK
6
CONTINUOUS
10
109.918
20
-92.71
11
109.895
21
-92.9452
0
LINE
8
BLACK
6
CONTINUOUS
10
109.895
20
-92.9452
11
109.826
21
-93.1714
0
LINE
8
BLACK
6
CONTINUOUS
10
109.826
20
-93.1714
11
109.715
21
-93.3799
0
LINE
8
BLACK
6
CONTINUOUS
10
109.715
20
-93.3799
11
109.565
21
-93.5626
0
LINE
8
BLACK
6
CONTINUOUS
10
109.565
20
-93.5626
11
109.382
21
-93.7126
0
LINE
8
BLACK
6
CONTINUOUS
10
109.382
20
-93.7126
11
109.173
21
-93.824
0
LINE
8
BLACK
6
CONTINUOUS
10
109.173
20
-93.824
11
108.947
21
-93.8926
0
LINE
8
BLACK
6
CONTINUOUS
10
108.947
20
-93.8926
11
108.771
21
-93.91
0
LINE
8
BLACK
6
CONTINUOUS
10
108.771
20
-93.91
11
108.653
21
-93.91
0
LINE
8
BLACK
6
CONTINUOUS
10
108.653
20
-93.91
11
108.477
21
-93.8926
0
LINE
8
BLACK
6
CONTINUOUS
10
108.477
20
-93.8926
11
108.251
21
-93.824
0
LINE
8
BLACK
6
CONTINUOUS
10
108.251
20
-93.824
11
108.042
21
-93.7126
0
LINE
8
BLACK
6
CONTINUOUS
10
108.042
20
-93.7126
11
107.859
21
-93.5626
0
LINE
8
BLACK
6
CONTINUOUS
10
107.859
20
-93.5626
11
107.709
21
-93.3799
0
LINE
8
BLACK
6
CONTINUOUS
10
107.709
20
-93.3799
11
107.598
21
-93.1714
0
LINE
8
BLACK
6
CONTINUOUS
10
107.598
20
-93.1714
11
107.529
21
-92.9452
0
LINE
8
BLACK
6
CONTINUOUS
10
107.529
20
-92.9452
11
107.506
21
-92.71
0
LINE
8
BLACK
6
CONTINUOUS
10
107.506
20
-92.71
11
107.529
21
-92.4748
0
LINE
8
BLACK
6
CONTINUOUS
10
107.529
20
-92.4748
11
107.598
21
-92.2486
0
LINE
8
BLACK
6
CONTINUOUS
10
107.598
20
-92.2486
11
107.709
21
-92.0401
0
LINE
8
BLACK
6
CONTINUOUS
10
107.709
20
-92.0401
11
107.859
21
-91.8574
0
LINE
8
BLACK
6
CONTINUOUS
10
107.859
20
-91.8574
11
108.042
21
-91.7074
0
LINE
8
BLACK
6
CONTINUOUS
10
108.042
20
-91.7074
11
108.251
21
-91.596
0
LINE
8
BLACK
6
CONTINUOUS
10
108.251
20
-91.596
11
108.477
21
-91.5274
0
LINE
8
BLACK
6
CONTINUOUS
10
108.477
20
-91.5274
11
108.653
21
-91.51
0
LINE
8
BLACK
6
CONTINUOUS
10
108.653
20
-91.51
11
108.771
21
-91.51
0
LINE
8
BLACK
6
CONTINUOUS
10
108.771
20
-91.51
11
108.947
21
-91.5274
0
LINE
8
BLACK
6
CONTINUOUS
10
119.464
20
-93.302
11
117.264
21
-93.302
0
LINE
8
BLACK
6
CONTINUOUS
10
117.264
20
-93.302
11
117.264
21
-91.102
0
LINE
8
BLACK
6
CONTINUOUS
10
117.264
20
-91.102
11
119.464
21
-91.102
0
LINE
8
BLACK
6
CONTINUOUS
10
119.464
20
-91.102
11
119.464
21
-93.302
0
LINE
8
BLACK
6
CONTINUOUS
10
71.204
20
-93.302
11
69.004
21
-93.302
0
LINE
8
BLACK
6
CONTINUOUS
10
69.004
20
-93.302
11
69.004
21
-91.102
0
LINE
8
BLACK
6
CONTINUOUS
10
69.004
20
-91.102
11
71.204
21
-91.102
0
LINE
8
BLACK
6
CONTINUOUS
10
71.204
20
-91.102
11
71.204
21
-93.302
0
LINE
8
BLACK
6
CONTINUOUS
10
52.408
20
-93.048
11
50.208
21
-93.048
0
LINE
8
BLACK
6
CONTINUOUS
10
50.208
20
-93.048
11
50.208
21
-90.848
0
LINE
8
BLACK
6
CONTINUOUS
10
50.208
20
-90.848
11
52.408
21
-90.848
0
LINE
8
BLACK
6
CONTINUOUS
10
52.408
20
-90.848
11
52.408
21
-93.048
0
LINE
8
BLACK
6
CONTINUOUS
10
65.616
20
-93.048
11
63.416
21
-93.048
0
LINE
8
BLACK
6
CONTINUOUS
10
63.416
20
-93.048
11
63.416
21
-90.848
0
LINE
8
BLACK
6
CONTINUOUS
10
63.416
20
-90.848
11
65.616
21
-90.848
0
LINE
8
BLACK
6
CONTINUOUS
10
65.616
20
-90.848
11
65.616
21
-93.048
0
LINE
8
BLACK
6
CONTINUOUS
10
44.28
20
-91.524
11
42.08
21
-91.524
0
LINE
8
BLACK
6
CONTINUOUS
10
42.08
20
-91.524
11
42.08
21
-89.324
0
LINE
8
BLACK
6
CONTINUOUS
10
42.08
20
-89.324
11
44.28
21
-89.324
0
LINE
8
BLACK
6
CONTINUOUS
10
44.28
20
-89.324
11
44.28
21
-91.524
0
LINE
8
BLACK
6
CONTINUOUS
10
119.464
20
-90.762
11
117.264
21
-90.762
0
LINE
8
BLACK
6
CONTINUOUS
10
117.264
20
-90.762
11
117.264
21
-88.562
0
LINE
8
BLACK
6
CONTINUOUS
10
117.264
20
-88.562
11
119.464
21
-88.562
0
LINE
8
BLACK
6
CONTINUOUS
10
119.464
20
-88.562
11
119.464
21
-90.762
0
LINE
8
BLACK
6
CONTINUOUS
10
71.204
20
-90.762
11
69.004
21
-90.762
0
LINE
8
BLACK
6
CONTINUOUS
10
69.004
20
-90.762
11
69.004
21
-88.562
0
LINE
8
BLACK
6
CONTINUOUS
10
69.004
20
-88.562
11
71.204
21
-88.562
0
LINE
8
BLACK
6
CONTINUOUS
10
71.204
20
-88.562
11
71.204
21
-90.762
0
LINE
8
BLACK
6
CONTINUOUS
10
52.408
20
-90.508
11
50.208
21
-90.508
0
LINE
8
BLACK
6
CONTINUOUS
10
50.208
20
-90.508
11
50.208
21
-88.308
0
LINE
8
BLACK
6
CONTINUOUS
10
50.208
20
-88.308
11
52.408
21
-88.308
0
LINE
8
BLACK
6
CONTINUOUS
10
52.408
20
-88.308
11
52.408
21
-90.508
0
LINE
8
BLACK
6
CONTINUOUS
10
65.616
20
-90.508
11
63.416
21
-90.508
0
LINE
8
BLACK
6
CONTINUOUS
10
63.416
20
-90.508
11
63.416
21
-88.308
0
LINE
8
BLACK
6
CONTINUOUS
10
63.416
20
-88.308
11
65.616
21
-88.308
0
LINE
8
BLACK
6
CONTINUOUS
10
65.616
20
-88.308
11
65.616
21
-90.508
0
LINE
8
BLACK
6
CONTINUOUS
10
79.386
20
-89.546
11
77.586
21
-89.546
0
LINE
8
BLACK
6
CONTINUOUS
10
77.586
20
-89.546
11
77.586
21
-87.746
0
LINE
8
BLACK
6
CONTINUOUS
10
77.586
20
-87.746
11
79.386
21
-87.746
0
LINE
8
BLACK
6
CONTINUOUS
10
79.386
20
-87.746
11
79.386
21
-89.546
0
LINE
8
BLACK
6
CONTINUOUS
10
81.2885
20
-87.7806
11
81.4523
21
-87.8484
0
LINE
8
BLACK
6
CONTINUOUS
10
81.4523
20
-87.8484
11
81.5997
21
-87.9469
0
LINE
8
BLACK
6
CONTINUOUS
10
81.5997
20
-87.9469
11
81.7251
21
-88.0723
0
LINE
8
BLACK
6
CONTINUOUS
10
81.7251
20
-88.0723
11
81.8236
21
-88.2197
0
LINE
8
BLACK
6
CONTINUOUS
10
81.8236
20
-88.2197
11
81.8914
21
-88.3835
0
LINE
8
BLACK
6
CONTINUOUS
10
81.8914
20
-88.3835
11
81.926
21
-88.5574
0
LINE
8
BLACK
6
CONTINUOUS
10
81.926
20
-88.5574
11
81.926
21
-88.7346
0
LINE
8
BLACK
6
CONTINUOUS
10
81.926
20
-88.7346
11
81.8914
21
-88.9085
0
LINE
8
BLACK
6
CONTINUOUS
10
81.8914
20
-88.9085
11
81.8236
21
-89.0723
0
LINE
8
BLACK
6
CONTINUOUS
10
81.8236
20
-89.0723
11
81.7251
21
-89.2197
0
LINE
8
BLACK
6
CONTINUOUS
10
81.7251
20
-89.2197
11
81.5997
21
-89.3451
0
LINE
8
BLACK
6
CONTINUOUS
10
81.5997
20
-89.3451
11
81.4523
21
-89.4436
0
LINE
8
BLACK
6
CONTINUOUS
10
81.4523
20
-89.4436
11
81.2885
21
-89.5114
0
LINE
8
BLACK
6
CONTINUOUS
10
81.2885
20
-89.5114
11
81.1146
21
-89.546
0
LINE
8
BLACK
6
CONTINUOUS
10
81.1146
20
-89.546
11
80.9374
21
-89.546
0
LINE
8
BLACK
6
CONTINUOUS
10
80.9374
20
-89.546
11
80.7635
21
-89.5114
0
LINE
8
BLACK
6
CONTINUOUS
10
80.7635
20
-89.5114
11
80.5997
21
-89.4436
0
LINE
8
BLACK
6
CONTINUOUS
10
80.5997
20
-89.4436
11
80.4523
21
-89.3451
0
LINE
8
BLACK
6
CONTINUOUS
10
80.4523
20
-89.3451
11
80.3269
21
-89.2197
0
LINE
8
BLACK
6
CONTINUOUS
10
80.3269
20
-89.2197
11
80.2284
21
-89.0723
0
LINE
8
BLACK
6
CONTINUOUS
10
80.2284
20
-89.0723
11
80.1606
21
-88.9085
0
LINE
8
BLACK
6
CONTINUOUS
10
80.1606
20
-88.9085
11
80.126
21
-88.7346
0
LINE
8
BLACK
6
CONTINUOUS
10
80.126
20
-88.7346
11
80.126
21
-88.5574
0
LINE
8
BLACK
6
CONTINUOUS
10
80.126
20
-88.5574
11
80.1606
21
-88.3835
0
LINE
8
BLACK
6
CONTINUOUS
10
80.1606
20
-88.3835
11
80.2284
21
-88.2197
0
LINE
8
BLACK
6
CONTINUOUS
10
80.2284
20
-88.2197
11
80.3269
21
-88.0723
0
LINE
8
BLACK
6
CONTINUOUS
10
80.3269
20
-88.0723
11
80.4523
21
-87.9469
0
LINE
8
BLACK
6
CONTINUOUS
10
80.4523
20
-87.9469
11
80.5997
21
-87.8484
0
LINE
8
BLACK
6
CONTINUOUS
10
80.5997
20
-87.8484
11
80.7635
21
-87.7806
0
LINE
8
BLACK
6
CONTINUOUS
10
80.7635
20
-87.7806
11
80.9374
21
-87.746
0
LINE
8
BLACK
6
CONTINUOUS
10
80.9374
20
-87.746
11
81.1146
21
-87.746
0
LINE
8
BLACK
6
CONTINUOUS
10
81.1146
20
-87.746
11
81.2885
21
-87.7806
0
LINE
8
BLACK
6
CONTINUOUS
10
94.2425
20
-87.7806
11
94.4063
21
-87.8484
0
LINE
8
BLACK
6
CONTINUOUS
10
94.4063
20
-87.8484
11
94.5537
21
-87.9469
0
LINE
8
BLACK
6
CONTINUOUS
10
94.5537
20
-87.9469
11
94.6791
21
-88.0723
0
LINE
8
BLACK
6
CONTINUOUS
10
94.6791
20
-88.0723
11
94.7776
21
-88.2197
0
LINE
8
BLACK
6
CONTINUOUS
10
94.7776
20
-88.2197
11
94.8454
21
-88.3835
0
LINE
8
BLACK
6
CONTINUOUS
10
94.8454
20
-88.3835
11
94.88
21
-88.5574
0
LINE
8
BLACK
6
CONTINUOUS
10
94.88
20
-88.5574
11
94.88
21
-88.7346
0
LINE
8
BLACK
6
CONTINUOUS
10
94.88
20
-88.7346
11
94.8454
21
-88.9085
0
LINE
8
BLACK
6
CONTINUOUS
10
94.8454
20
-88.9085
11
94.7776
21
-89.0723
0
LINE
8
BLACK
6
CONTINUOUS
10
94.7776
20
-89.0723
11
94.6791
21
-89.2197
0
LINE
8
BLACK
6
CONTINUOUS
10
94.6791
20
-89.2197
11
94.5537
21
-89.3451
0
LINE
8
BLACK
6
CONTINUOUS
10
94.5537
20
-89.3451
11
94.4063
21
-89.4436
0
LINE
8
BLACK
6
CONTINUOUS
10
94.4063
20
-89.4436
11
94.2425
21
-89.5114
0
LINE
8
BLACK
6
CONTINUOUS
10
94.2425
20
-89.5114
11
94.0686
21
-89.546
0
LINE
8
BLACK
6
CONTINUOUS
10
94.0686
20
-89.546
11
93.8914
21
-89.546
0
LINE
8
BLACK
6
CONTINUOUS
10
93.8914
20
-89.546
11
93.7175
21
-89.5114
0
LINE
8
BLACK
6
CONTINUOUS
10
93.7175
20
-89.5114
11
93.5537
21
-89.4436
0
LINE
8
BLACK
6
CONTINUOUS
10
93.5537
20
-89.4436
11
93.4063
21
-89.3451
0
LINE
8
BLACK
6
CONTINUOUS
10
93.4063
20
-89.3451
11
93.2809
21
-89.2197
0
LINE
8
BLACK
6
CONTINUOUS
10
93.2809
20
-89.2197
11
93.1824
21
-89.0723
0
LINE
8
BLACK
6
CONTINUOUS
10
93.1824
20
-89.0723
11
93.1146
21
-88.9085
0
LINE
8
BLACK
6
CONTINUOUS
10
93.1146
20
-88.9085
11
93.08
21
-88.7346
0
LINE
8
BLACK
6
CONTINUOUS
10
93.08
20
-88.7346
11
93.08
21
-88.5574
0
LINE
8
BLACK
6
CONTINUOUS
10
93.08
20
-88.5574
11
93.1146
21
-88.3835
0
LINE
8
BLACK
6
CONTINUOUS
10
93.1146
20
-88.3835
11
93.1824
21
-88.2197
0
LINE
8
BLACK
6
CONTINUOUS
10
93.1824
20
-88.2197
11
93.2809
21
-88.0723
0
LINE
8
BLACK
6
CONTINUOUS
10
93.2809
20
-88.0723
11
93.4063
21
-87.9469
0
LINE
8
BLACK
6
CONTINUOUS
10
93.4063
20
-87.9469
11
93.5537
21
-87.8484
0
LINE
8
BLACK
6
CONTINUOUS
10
93.5537
20
-87.8484
11
93.7175
21
-87.7806
0
LINE
8
BLACK
6
CONTINUOUS
10
93.7175
20
-87.7806
11
93.8914
21
-87.746
0
LINE
8
BLACK
6
CONTINUOUS
10
93.8914
20
-87.746
11
94.0686
21
-87.746
0
LINE
8
BLACK
6
CONTINUOUS
10
94.0686
20
-87.746
11
94.2425
21
-87.7806
0
LINE
8
BLACK
6
CONTINUOUS
10
92.34
20
-89.546
11
90.54
21
-89.546
0
LINE
8
BLACK
6
CONTINUOUS
10
90.54
20
-89.546
11
90.54
21
-87.746
0
LINE
8
BLACK
6
CONTINUOUS
10
90.54
20
-87.746
11
92.34
21
-87.746
0
LINE
8
BLACK
6
CONTINUOUS
10
92.34
20
-87.746
11
92.34
21
-89.546
0
LINE
8
BLACK
6
CONTINUOUS
10
85.99
20
-89.546
11
84.19
21
-89.546
0
LINE
8
BLACK
6
CONTINUOUS
10
84.19
20
-89.546
11
84.19
21
-87.746
0
LINE
8
BLACK
6
CONTINUOUS
10
84.19
20
-87.746
11
85.99
21
-87.746
0
LINE
8
BLACK
6
CONTINUOUS
10
85.99
20
-87.746
11
85.99
21
-89.546
0
LINE
8
BLACK
6
CONTINUOUS
10
87.8925
20
-87.7806
11
88.0563
21
-87.8484
0
LINE
8
BLACK
6
CONTINUOUS
10
88.0563
20
-87.8484
11
88.2037
21
-87.9469
0
LINE
8
BLACK
6
CONTINUOUS
10
88.2037
20
-87.9469
11
88.3291
21
-88.0723
0
LINE
8
BLACK
6
CONTINUOUS
10
88.3291
20
-88.0723
11
88.4276
21
-88.2197
0
LINE
8
BLACK
6
CONTINUOUS
10
88.4276
20
-88.2197
11
88.4954
21
-88.3835
0
LINE
8
BLACK
6
CONTINUOUS
10
88.4954
20
-88.3835
11
88.53
21
-88.5574
0
LINE
8
BLACK
6
CONTINUOUS
10
88.53
20
-88.5574
11
88.53
21
-88.7346
0
LINE
8
BLACK
6
CONTINUOUS
10
88.53
20
-88.7346
11
88.4954
21
-88.9085
0
LINE
8
BLACK
6
CONTINUOUS
10
88.4954
20
-88.9085
11
88.4276
21
-89.0723
0
LINE
8
BLACK
6
CONTINUOUS
10
88.4276
20
-89.0723
11
88.3291
21
-89.2197
0
LINE
8
BLACK
6
CONTINUOUS
10
88.3291
20
-89.2197
11
88.2037
21
-89.3451
0
LINE
8
BLACK
6
CONTINUOUS
10
88.2037
20
-89.3451
11
88.0563
21
-89.4436
0
LINE
8
BLACK
6
CONTINUOUS
10
88.0563
20
-89.4436
11
87.8925
21
-89.5114
0
LINE
8
BLACK
6
CONTINUOUS
10
87.8925
20
-89.5114
11
87.7186
21
-89.546
0
LINE
8
BLACK
6
CONTINUOUS
10
87.7186
20
-89.546
11
87.5414
21
-89.546
0
LINE
8
BLACK
6
CONTINUOUS
10
87.5414
20
-89.546
11
87.3675
21
-89.5114
0
LINE
8
BLACK
6
CONTINUOUS
10
87.3675
20
-89.5114
11
87.2037
21
-89.4436
0
LINE
8
BLACK
6
CONTINUOUS
10
87.2037
20
-89.4436
11
87.0563
21
-89.3451
0
LINE
8
BLACK
6
CONTINUOUS
10
87.0563
20
-89.3451
11
86.9309
21
-89.2197
0
LINE
8
BLACK
6
CONTINUOUS
10
86.9309
20
-89.2197
11
86.8324
21
-89.0723
0
LINE
8
BLACK
6
CONTINUOUS
10
86.8324
20
-89.0723
11
86.7646
21
-88.9085
0
LINE
8
BLACK
6
CONTINUOUS
10
86.7646
20
-88.9085
11
86.73
21
-88.7346
0
LINE
8
BLACK
6
CONTINUOUS
10
86.73
20
-88.7346
11
86.73
21
-88.5574
0
LINE
8
BLACK
6
CONTINUOUS
10
86.73
20
-88.5574
11
86.7646
21
-88.3835
0
LINE
8
BLACK
6
CONTINUOUS
10
86.7646
20
-88.3835
11
86.8324
21
-88.2197
0
LINE
8
BLACK
6
CONTINUOUS
10
86.8324
20
-88.2197
11
86.9309
21
-88.0723
0
LINE
8
BLACK
6
CONTINUOUS
10
86.9309
20
-88.0723
11
87.0563
21
-87.9469
0
LINE
8
BLACK
6
CONTINUOUS
10
87.0563
20
-87.9469
11
87.2037
21
-87.8484
0
LINE
8
BLACK
6
CONTINUOUS
10
87.2037
20
-87.8484
11
87.3675
21
-87.7806
0
LINE
8
BLACK
6
CONTINUOUS
10
87.3675
20
-87.7806
11
87.5414
21
-87.746
0
LINE
8
BLACK
6
CONTINUOUS
10
87.5414
20
-87.746
11
87.7186
21
-87.746
0
LINE
8
BLACK
6
CONTINUOUS
10
87.7186
20
-87.746
11
87.8925
21
-87.7806
0
LINE
8
BLACK
6
CONTINUOUS
10
44.28
20
-88.984
11
42.08
21
-88.984
0
LINE
8
BLACK
6
CONTINUOUS
10
42.08
20
-88.984
11
42.08
21
-86.784
0
LINE
8
BLACK
6
CONTINUOUS
10
42.08
20
-86.784
11
44.28
21
-86.784
0
LINE
8
BLACK
6
CONTINUOUS
10
44.28
20
-86.784
11
44.28
21
-88.984
0
LINE
8
BLACK
6
CONTINUOUS
10
119.464
20
-88.222
11
117.264
21
-88.222
0
LINE
8
BLACK
6
CONTINUOUS
10
117.264
20
-88.222
11
117.264
21
-86.022
0
LINE
8
BLACK
6
CONTINUOUS
10
117.264
20
-86.022
11
119.464
21
-86.022
0
LINE
8
BLACK
6
CONTINUOUS
10
119.464
20
-86.022
11
119.464
21
-88.222
0
LINE
8
BLACK
6
CONTINUOUS
10
65.616
20
-87.968
11
63.416
21
-87.968
0
LINE
8
BLACK
6
CONTINUOUS
10
63.416
20
-87.968
11
63.416
21
-85.768
0
LINE
8
BLACK
6
CONTINUOUS
10
63.416
20
-85.768
11
65.616
21
-85.768
0
LINE
8
BLACK
6
CONTINUOUS
10
65.616
20
-85.768
11
65.616
21
-87.968
0
LINE
8
BLACK
6
CONTINUOUS
10
52.408
20
-87.968
11
50.208
21
-87.968
0
LINE
8
BLACK
6
CONTINUOUS
10
50.208
20
-87.968
11
50.208
21
-85.768
0
LINE
8
BLACK
6
CONTINUOUS
10
50.208
20
-85.768
11
52.408
21
-85.768
0
LINE
8
BLACK
6
CONTINUOUS
10
52.408
20
-85.768
11
52.408
21
-87.968
0
LINE
8
BLACK
6
CONTINUOUS
10
44.28
20
-86.444
11
42.08
21
-86.444
0
LINE
8
BLACK
6
CONTINUOUS
10
42.08
20
-86.444
11
42.08
21
-84.244
0
LINE
8
BLACK
6
CONTINUOUS
10
42.08
20
-84.244
11
44.28
21
-84.244
0
LINE
8
BLACK
6
CONTINUOUS
10
44.28
20
-84.244
11
44.28
21
-86.444
0
LINE
8
BLACK
6
CONTINUOUS
10
75.1652
20
-83.9074
11
75.3914
21
-83.976
0
LINE
8
BLACK
6
CONTINUOUS
10
75.3914
20
-83.976
11
75.5999
21
-84.0874
0
LINE
8
BLACK
6
CONTINUOUS
10
75.5999
20
-84.0874
11
75.7826
21
-84.2374
0
LINE
8
BLACK
6
CONTINUOUS
10
75.7826
20
-84.2374
11
75.9326
21
-84.4201
0
LINE
8
BLACK
6
CONTINUOUS
10
75.9326
20
-84.4201
11
76.044
21
-84.6286
0
LINE
8
BLACK
6
CONTINUOUS
10
76.044
20
-84.6286
11
76.1126
21
-84.8548
0
LINE
8
BLACK
6
CONTINUOUS
10
76.1126
20
-84.8548
11
76.1358
21
-85.09
0
LINE
8
BLACK
6
CONTINUOUS
10
76.1358
20
-85.09
11
76.1126
21
-85.3252
0
LINE
8
BLACK
6
CONTINUOUS
10
76.1126
20
-85.3252
11
76.044
21
-85.5514
0
LINE
8
BLACK
6
CONTINUOUS
10
76.044
20
-85.5514
11
75.9326
21
-85.7599
0
LINE
8
BLACK
6
CONTINUOUS
10
75.9326
20
-85.7599
11
75.7826
21
-85.9426
0
LINE
8
BLACK
6
CONTINUOUS
10
75.7826
20
-85.9426
11
75.5999
21
-86.0926
0
LINE
8
BLACK
6
CONTINUOUS
10
75.5999
20
-86.0926
11
75.3914
21
-86.204
0
LINE
8
BLACK
6
CONTINUOUS
10
75.3914
20
-86.204
11
75.1652
21
-86.2726
0
LINE
8
BLACK
6
CONTINUOUS
10
75.1652
20
-86.2726
11
74.989
21
-86.29
0
LINE
8
BLACK
6
CONTINUOUS
10
74.989
20
-86.29
11
74.871
21
-86.29
0
LINE
8
BLACK
6
CONTINUOUS
10
74.871
20
-86.29
11
74.6948
21
-86.2726
0
LINE
8
BLACK
6
CONTINUOUS
10
74.6948
20
-86.2726
11
74.4686
21
-86.204
0
LINE
8
BLACK
6
CONTINUOUS
10
74.4686
20
-86.204
11
74.2601
21
-86.0926
0
LINE
8
BLACK
6
CONTINUOUS
10
74.2601
20
-86.0926
11
74.0774
21
-85.9426
0
LINE
8
BLACK
6
CONTINUOUS
10
74.0774
20
-85.9426
11
73.9274
21
-85.7599
0
LINE
8
BLACK
6
CONTINUOUS
10
73.9274
20
-85.7599
11
73.816
21
-85.5514
0
LINE
8
BLACK
6
CONTINUOUS
10
73.816
20
-85.5514
11
73.7474
21
-85.3252
0
LINE
8
BLACK
6
CONTINUOUS
10
73.7474
20
-85.3252
11
73.7242
21
-85.09
0
LINE
8
BLACK
6
CONTINUOUS
10
73.7242
20
-85.09
11
73.7474
21
-84.8548
0
LINE
8
BLACK
6
CONTINUOUS
10
73.7474
20
-84.8548
11
73.816
21
-84.6286
0
LINE
8
BLACK
6
CONTINUOUS
10
73.816
20
-84.6286
11
73.9274
21
-84.4201
0
LINE
8
BLACK
6
CONTINUOUS
10
73.9274
20
-84.4201
11
74.0774
21
-84.2374
0
LINE
8
BLACK
6
CONTINUOUS
10
74.0774
20
-84.2374
11
74.2601
21
-84.0874
0
LINE
8
BLACK
6
CONTINUOUS
10
74.2601
20
-84.0874
11
74.4686
21
-83.976
0
LINE
8
BLACK
6
CONTINUOUS
10
74.4686
20
-83.976
11
74.6948
21
-83.9074
0
LINE
8
BLACK
6
CONTINUOUS
10
74.6948
20
-83.9074
11
74.871
21
-83.89
0
LINE
8
BLACK
6
CONTINUOUS
10
74.871
20
-83.89
11
74.989
21
-83.89
0
LINE
8
BLACK
6
CONTINUOUS
10
74.989
20
-83.89
11
75.1652
21
-83.9074
0
LINE
8
BLACK
6
CONTINUOUS
10
109.062
20
-83.9361
11
109.28
21
-84.0266
0
LINE
8
BLACK
6
CONTINUOUS
10
109.28
20
-84.0266
11
109.477
21
-84.1579
0
LINE
8
BLACK
6
CONTINUOUS
10
109.477
20
-84.1579
11
109.644
21
-84.325
0
LINE
8
BLACK
6
CONTINUOUS
10
109.644
20
-84.325
11
109.775
21
-84.5216
0
LINE
8
BLACK
6
CONTINUOUS
10
109.775
20
-84.5216
11
109.866
21
-84.74
0
LINE
8
BLACK
6
CONTINUOUS
10
109.866
20
-84.74
11
109.912
21
-84.9718
0
LINE
8
BLACK
6
CONTINUOUS
10
109.912
20
-84.9718
11
109.912
21
-85.2082
0
LINE
8
BLACK
6
CONTINUOUS
10
109.912
20
-85.2082
11
109.866
21
-85.44
0
LINE
8
BLACK
6
CONTINUOUS
10
109.866
20
-85.44
11
109.775
21
-85.6584
0
LINE
8
BLACK
6
CONTINUOUS
10
109.775
20
-85.6584
11
109.644
21
-85.855
0
LINE
8
BLACK
6
CONTINUOUS
10
109.644
20
-85.855
11
109.477
21
-86.0221
0
LINE
8
BLACK
6
CONTINUOUS
10
109.477
20
-86.0221
11
109.28
21
-86.1534
0
LINE
8
BLACK
6
CONTINUOUS
10
109.28
20
-86.1534
11
109.062
21
-86.2439
0
LINE
8
BLACK
6
CONTINUOUS
10
109.062
20
-86.2439
11
108.83
21
-86.29
0
LINE
8
BLACK
6
CONTINUOUS
10
108.83
20
-86.29
11
108.594
21
-86.29
0
LINE
8
BLACK
6
CONTINUOUS
10
108.594
20
-86.29
11
108.362
21
-86.2439
0
LINE
8
BLACK
6
CONTINUOUS
10
108.362
20
-86.2439
11
108.144
21
-86.1534
0
LINE
8
BLACK
6
CONTINUOUS
10
108.144
20
-86.1534
11
107.947
21
-86.0221
0
LINE
8
BLACK
6
CONTINUOUS
10
107.947
20
-86.0221
11
107.78
21
-85.855
0
LINE
8
BLACK
6
CONTINUOUS
10
107.78
20
-85.855
11
107.649
21
-85.6584
0
LINE
8
BLACK
6
CONTINUOUS
10
107.649
20
-85.6584
11
107.558
21
-85.44
0
LINE
8
BLACK
6
CONTINUOUS
10
107.558
20
-85.44
11
107.512
21
-85.2082
0
LINE
8
BLACK
6
CONTINUOUS
10
107.512
20
-85.2082
11
107.512
21
-84.9718
0
LINE
8
BLACK
6
CONTINUOUS
10
107.512
20
-84.9718
11
107.558
21
-84.74
0
LINE
8
BLACK
6
CONTINUOUS
10
107.558
20
-84.74
11
107.649
21
-84.5216
0
LINE
8
BLACK
6
CONTINUOUS
10
107.649
20
-84.5216
11
107.78
21
-84.325
0
LINE
8
BLACK
6
CONTINUOUS
10
107.78
20
-84.325
11
107.947
21
-84.1579
0
LINE
8
BLACK
6
CONTINUOUS
10
107.947
20
-84.1579
11
108.144
21
-84.0266
0
LINE
8
BLACK
6
CONTINUOUS
10
108.144
20
-84.0266
11
108.362
21
-83.9361
0
LINE
8
BLACK
6
CONTINUOUS
10
108.362
20
-83.9361
11
108.594
21
-83.89
0
LINE
8
BLACK
6
CONTINUOUS
10
108.594
20
-83.89
11
108.83
21
-83.89
0
LINE
8
BLACK
6
CONTINUOUS
10
108.83
20
-83.89
11
109.062
21
-83.9361
0
LINE
8
BLACK
6
CONTINUOUS
10
71.204
20
-85.682
11
69.004
21
-85.682
0
LINE
8
BLACK
6
CONTINUOUS
10
69.004
20
-85.682
11
69.004
21
-83.482
0
LINE
8
BLACK
6
CONTINUOUS
10
69.004
20
-83.482
11
71.204
21
-83.482
0
LINE
8
BLACK
6
CONTINUOUS
10
71.204
20
-83.482
11
71.204
21
-85.682
0
LINE
8
BLACK
6
CONTINUOUS
10
119.464
20
-85.682
11
117.264
21
-85.682
0
LINE
8
BLACK
6
CONTINUOUS
10
117.264
20
-85.682
11
117.264
21
-83.482
0
LINE
8
BLACK
6
CONTINUOUS
10
117.264
20
-83.482
11
119.464
21
-83.482
0
LINE
8
BLACK
6
CONTINUOUS
10
119.464
20
-83.482
11
119.464
21
-85.682
0
LINE
8
BLACK
6
CONTINUOUS
10
52.408
20
-85.428
11
50.208
21
-85.428
0
LINE
8
BLACK
6
CONTINUOUS
10
50.208
20
-85.428
11
50.208
21
-83.228
0
LINE
8
BLACK
6
CONTINUOUS
10
50.208
20
-83.228
11
52.408
21
-83.228
0
LINE
8
BLACK
6
CONTINUOUS
10
52.408
20
-83.228
11
52.408
21
-85.428
0
LINE
8
BLACK
6
CONTINUOUS
10
65.616
20
-85.428
11
63.416
21
-85.428
0
LINE
8
BLACK
6
CONTINUOUS
10
63.416
20
-85.428
11
63.416
21
-83.228
0
LINE
8
BLACK
6
CONTINUOUS
10
63.416
20
-83.228
11
65.616
21
-83.228
0
LINE
8
BLACK
6
CONTINUOUS
10
65.616
20
-83.228
11
65.616
21
-85.428
0
LINE
8
BLACK
6
CONTINUOUS
10
79.9912
20
-82.6374
11
80.2174
21
-82.706
0
LINE
8
BLACK
6
CONTINUOUS
10
80.2174
20
-82.706
11
80.4259
21
-82.8174
0
LINE
8
BLACK
6
CONTINUOUS
10
80.4259
20
-82.8174
11
80.6086
21
-82.9674
0
LINE
8
BLACK
6
CONTINUOUS
10
80.6086
20
-82.9674
11
80.7586
21
-83.1501
0
LINE
8
BLACK
6
CONTINUOUS
10
80.7586
20
-83.1501
11
80.87
21
-83.3586
0
LINE
8
BLACK
6
CONTINUOUS
10
80.87
20
-83.3586
11
80.9386
21
-83.5848
0
LINE
8
BLACK
6
CONTINUOUS
10
80.9386
20
-83.5848
11
80.9618
21
-83.82
0
LINE
8
BLACK
6
CONTINUOUS
10
80.9618
20
-83.82
11
80.9386
21
-84.0552
0
LINE
8
BLACK
6
CONTINUOUS
10
80.9386
20
-84.0552
11
80.87
21
-84.2814
0
LINE
8
BLACK
6
CONTINUOUS
10
80.87
20
-84.2814
11
80.7586
21
-84.4899
0
LINE
8
BLACK
6
CONTINUOUS
10
80.7586
20
-84.4899
11
80.6086
21
-84.6726
0
LINE
8
BLACK
6
CONTINUOUS
10
80.6086
20
-84.6726
11
80.4259
21
-84.8226
0
LINE
8
BLACK
6
CONTINUOUS
10
80.4259
20
-84.8226
11
80.2174
21
-84.934
0
LINE
8
BLACK
6
CONTINUOUS
10
80.2174
20
-84.934
11
79.9912
21
-85.0026
0
LINE
8
BLACK
6
CONTINUOUS
10
79.9912
20
-85.0026
11
79.8149
21
-85.02
0
LINE
8
BLACK
6
CONTINUOUS
10
79.8149
20
-85.02
11
79.697
21
-85.02
0
LINE
8
BLACK
6
CONTINUOUS
10
79.697
20
-85.02
11
79.5208
21
-85.0026
0
LINE
8
BLACK
6
CONTINUOUS
10
79.5208
20
-85.0026
11
79.2946
21
-84.934
0
LINE
8
BLACK
6
CONTINUOUS
10
79.2946
20
-84.934
11
79.0861
21
-84.8226
0
LINE
8
BLACK
6
CONTINUOUS
10
79.0861
20
-84.8226
11
78.9034
21
-84.6726
0
LINE
8
BLACK
6
CONTINUOUS
10
78.9034
20
-84.6726
11
78.7534
21
-84.4899
0
LINE
8
BLACK
6
CONTINUOUS
10
78.7534
20
-84.4899
11
78.642
21
-84.2814
0
LINE
8
BLACK
6
CONTINUOUS
10
78.642
20
-84.2814
11
78.5734
21
-84.0552
0
LINE
8
BLACK
6
CONTINUOUS
10
78.5734
20
-84.0552
11
78.5502
21
-83.82
0
LINE
8
BLACK
6
CONTINUOUS
10
78.5502
20
-83.82
11
78.5734
21
-83.5848
0
LINE
8
BLACK
6
CONTINUOUS
10
78.5734
20
-83.5848
11
78.642
21
-83.3586
0
LINE
8
BLACK
6
CONTINUOUS
10
78.642
20
-83.3586
11
78.7534
21
-83.1501
0
LINE
8
BLACK
6
CONTINUOUS
10
78.7534
20
-83.1501
11
78.9034
21
-82.9674
0
LINE
8
BLACK
6
CONTINUOUS
10
78.9034
20
-82.9674
11
79.0861
21
-82.8174
0
LINE
8
BLACK
6
CONTINUOUS
10
79.0861
20
-82.8174
11
79.2946
21
-82.706
0
LINE
8
BLACK
6
CONTINUOUS
10
79.2946
20
-82.706
11
79.5208
21
-82.6374
0
LINE
8
BLACK
6
CONTINUOUS
10
79.5208
20
-82.6374
11
79.697
21
-82.62
0
LINE
8
BLACK
6
CONTINUOUS
10
79.697
20
-82.62
11
79.8149
21
-82.62
0
LINE
8
BLACK
6
CONTINUOUS
10
79.8149
20
-82.62
11
79.9912
21
-82.6374
0
LINE
8
BLACK
6
CONTINUOUS
10
87.89
20
-84.62
11
86.29
21
-84.62
0
LINE
8
BLACK
6
CONTINUOUS
10
86.29
20
-84.62
11
86.29
21
-83.02
0
LINE
8
BLACK
6
CONTINUOUS
10
86.29
20
-83.02
11
87.89
21
-83.02
0
LINE
8
BLACK
6
CONTINUOUS
10
87.89
20
-83.02
11
87.89
21
-84.62
0
LINE
8
BLACK
6
CONTINUOUS
10
85.3234
20
-83.0507
11
85.4689
21
-83.111
0
LINE
8
BLACK
6
CONTINUOUS
10
85.4689
20
-83.111
11
85.6
21
-83.1986
0
LINE
8
BLACK
6
CONTINUOUS
10
85.6
20
-83.1986
11
85.7114
21
-83.31
0
LINE
8
BLACK
6
CONTINUOUS
10
85.7114
20
-83.31
11
85.799
21
-83.4411
0
LINE
8
BLACK
6
CONTINUOUS
10
85.799
20
-83.4411
11
85.8593
21
-83.5866
0
LINE
8
BLACK
6
CONTINUOUS
10
85.8593
20
-83.5866
11
85.89
21
-83.7412
0
LINE
8
BLACK
6
CONTINUOUS
10
85.89
20
-83.7412
11
85.89
21
-83.8988
0
LINE
8
BLACK
6
CONTINUOUS
10
85.89
20
-83.8988
11
85.8593
21
-84.0534
0
LINE
8
BLACK
6
CONTINUOUS
10
85.8593
20
-84.0534
11
85.799
21
-84.1989
0
LINE
8
BLACK
6
CONTINUOUS
10
85.799
20
-84.1989
11
85.7114
21
-84.33
0
LINE
8
BLACK
6
CONTINUOUS
10
85.7114
20
-84.33
11
85.6
21
-84.4414
0
LINE
8
BLACK
6
CONTINUOUS
10
85.6
20
-84.4414
11
85.4689
21
-84.529
0
LINE
8
BLACK
6
CONTINUOUS
10
85.4689
20
-84.529
11
85.3234
21
-84.5893
0
LINE
8
BLACK
6
CONTINUOUS
10
85.3234
20
-84.5893
11
85.1688
21
-84.62
0
LINE
8
BLACK
6
CONTINUOUS
10
85.1688
20
-84.62
11
85.0112
21
-84.62
0
LINE
8
BLACK
6
CONTINUOUS
10
85.0112
20
-84.62
11
84.8566
21
-84.5893
0
LINE
8
BLACK
6
CONTINUOUS
10
84.8566
20
-84.5893
11
84.7111
21
-84.529
0
LINE
8
BLACK
6
CONTINUOUS
10
84.7111
20
-84.529
11
84.58
21
-84.4414
0
LINE
8
BLACK
6
CONTINUOUS
10
84.58
20
-84.4414
11
84.4686
21
-84.33
0
LINE
8
BLACK
6
CONTINUOUS
10
84.4686
20
-84.33
11
84.381
21
-84.1989
0
LINE
8
BLACK
6
CONTINUOUS
10
84.381
20
-84.1989
11
84.3207
21
-84.0534
0
LINE
8
BLACK
6
CONTINUOUS
10
84.3207
20
-84.0534
11
84.29
21
-83.8988
0
LINE
8
BLACK
6
CONTINUOUS
10
84.29
20
-83.8988
11
84.29
21
-83.7412
0
LINE
8
BLACK
6
CONTINUOUS
10
84.29
20
-83.7412
11
84.3207
21
-83.5866
0
LINE
8
BLACK
6
CONTINUOUS
10
84.3207
20
-83.5866
11
84.381
21
-83.4411
0
LINE
8
BLACK
6
CONTINUOUS
10
84.381
20
-83.4411
11
84.4686
21
-83.31
0
LINE
8
BLACK
6
CONTINUOUS
10
84.4686
20
-83.31
11
84.58
21
-83.1986
0
LINE
8
BLACK
6
CONTINUOUS
10
84.58
20
-83.1986
11
84.7111
21
-83.111
0
LINE
8
BLACK
6
CONTINUOUS
10
84.7111
20
-83.111
11
84.8566
21
-83.0507
0
LINE
8
BLACK
6
CONTINUOUS
10
84.8566
20
-83.0507
11
85.0112
21
-83.02
0
LINE
8
BLACK
6
CONTINUOUS
10
85.0112
20
-83.02
11
85.1688
21
-83.02
0
LINE
8
BLACK
6
CONTINUOUS
10
85.1688
20
-83.02
11
85.3234
21
-83.0507
0
LINE
8
BLACK
6
CONTINUOUS
10
44.28
20
-83.904
11
42.08
21
-83.904
0
LINE
8
BLACK
6
CONTINUOUS
10
42.08
20
-83.904
11
42.08
21
-81.704
0
LINE
8
BLACK
6
CONTINUOUS
10
42.08
20
-81.704
11
44.28
21
-81.704
0
LINE
8
BLACK
6
CONTINUOUS
10
44.28
20
-81.704
11
44.28
21
-83.904
0
LINE
8
BLACK
6
CONTINUOUS
10
71.204
20
-83.142
11
69.004
21
-83.142
0
LINE
8
BLACK
6
CONTINUOUS
10
69.004
20
-83.142
11
69.004
21
-80.942
0
LINE
8
BLACK
6
CONTINUOUS
10
69.004
20
-80.942
11
71.204
21
-80.942
0
LINE
8
BLACK
6
CONTINUOUS
10
71.204
20
-80.942
11
71.204
21
-83.142
0
LINE
8
BLACK
6
CONTINUOUS
10
65.616
20
-82.888
11
63.416
21
-82.888
0
LINE
8
BLACK
6
CONTINUOUS
10
63.416
20
-82.888
11
63.416
21
-80.688
0
LINE
8
BLACK
6
CONTINUOUS
10
63.416
20
-80.688
11
65.616
21
-80.688
0
LINE
8
BLACK
6
CONTINUOUS
10
65.616
20
-80.688
11
65.616
21
-82.888
0
LINE
8
BLACK
6
CONTINUOUS
10
52.408
20
-82.888
11
50.208
21
-82.888
0
LINE
8
BLACK
6
CONTINUOUS
10
50.208
20
-82.888
11
50.208
21
-80.688
0
LINE
8
BLACK
6
CONTINUOUS
10
50.208
20
-80.688
11
52.408
21
-80.688
0
LINE
8
BLACK
6
CONTINUOUS
10
52.408
20
-80.688
11
52.408
21
-82.888
0
LINE
8
BLACK
6
CONTINUOUS
10
98.382
20
-81.618
11
96.182
21
-81.618
0
LINE
8
BLACK
6
CONTINUOUS
10
96.182
20
-81.618
11
96.182
21
-79.418
0
LINE
8
BLACK
6
CONTINUOUS
10
96.182
20
-79.418
11
98.382
21
-79.418
0
LINE
8
BLACK
6
CONTINUOUS
10
98.382
20
-79.418
11
98.382
21
-81.618
0
LINE
8
BLACK
6
CONTINUOUS
10
119.464
20
-81.618
11
117.264
21
-81.618
0
LINE
8
BLACK
6
CONTINUOUS
10
117.264
20
-81.618
11
117.264
21
-79.418
0
LINE
8
BLACK
6
CONTINUOUS
10
117.264
20
-79.418
11
119.464
21
-79.418
0
LINE
8
BLACK
6
CONTINUOUS
10
119.464
20
-79.418
11
119.464
21
-81.618
0
LINE
8
BLACK
6
CONTINUOUS
10
71.204
20
-80.602
11
69.004
21
-80.602
0
LINE
8
BLACK
6
CONTINUOUS
10
69.004
20
-80.602
11
69.004
21
-78.402
0
LINE
8
BLACK
6
CONTINUOUS
10
69.004
20
-78.402
11
71.204
21
-78.402
0
LINE
8
BLACK
6
CONTINUOUS
10
71.204
20
-78.402
11
71.204
21
-80.602
0
LINE
8
BLACK
6
CONTINUOUS
10
65.616
20
-80.348
11
63.416
21
-80.348
0
LINE
8
BLACK
6
CONTINUOUS
10
63.416
20
-80.348
11
63.416
21
-78.148
0
LINE
8
BLACK
6
CONTINUOUS
10
63.416
20
-78.148
11
65.616
21
-78.148
0
LINE
8
BLACK
6
CONTINUOUS
10
65.616
20
-78.148
11
65.616
21
-80.348
0
LINE
8
BLACK
6
CONTINUOUS
10
52.408
20
-80.348
11
50.208
21
-80.348
0
LINE
8
BLACK
6
CONTINUOUS
10
50.208
20
-80.348
11
50.208
21
-78.148
0
LINE
8
BLACK
6
CONTINUOUS
10
50.208
20
-78.148
11
52.408
21
-78.148
0
LINE
8
BLACK
6
CONTINUOUS
10
52.408
20
-78.148
11
52.408
21
-80.348
0
LINE
8
BLACK
6
CONTINUOUS
10
93.6734
20
-77.9707
11
93.8189
21
-78.031
0
LINE
8
BLACK
6
CONTINUOUS
10
93.8189
20
-78.031
11
93.95
21
-78.1186
0
LINE
8
BLACK
6
CONTINUOUS
10
93.95
20
-78.1186
11
94.0614
21
-78.23
0
LINE
8
BLACK
6
CONTINUOUS
10
94.0614
20
-78.23
11
94.149
21
-78.3611
0
LINE
8
BLACK
6
CONTINUOUS
10
94.149
20
-78.3611
11
94.2093
21
-78.5066
0
LINE
8
BLACK
6
CONTINUOUS
10
94.2093
20
-78.5066
11
94.24
21
-78.6612
0
LINE
8
BLACK
6
CONTINUOUS
10
94.24
20
-78.6612
11
94.24
21
-78.8188
0
LINE
8
BLACK
6
CONTINUOUS
10
94.24
20
-78.8188
11
94.2093
21
-78.9734
0
LINE
8
BLACK
6
CONTINUOUS
10
94.2093
20
-78.9734
11
94.149
21
-79.1189
0
LINE
8
BLACK
6
CONTINUOUS
10
94.149
20
-79.1189
11
94.0614
21
-79.25
0
LINE
8
BLACK
6
CONTINUOUS
10
94.0614
20
-79.25
11
93.95
21
-79.3614
0
LINE
8
BLACK
6
CONTINUOUS
10
93.95
20
-79.3614
11
93.8189
21
-79.449
0
LINE
8
BLACK
6
CONTINUOUS
10
93.8189
20
-79.449
11
93.6734
21
-79.5093
0
LINE
8
BLACK
6
CONTINUOUS
10
93.6734
20
-79.5093
11
93.5188
21
-79.54
0
LINE
8
BLACK
6
CONTINUOUS
10
93.5188
20
-79.54
11
93.3612
21
-79.54
0
LINE
8
BLACK
6
CONTINUOUS
10
93.3612
20
-79.54
11
93.2066
21
-79.5093
0
LINE
8
BLACK
6
CONTINUOUS
10
93.2066
20
-79.5093
11
93.0611
21
-79.449
0
LINE
8
BLACK
6
CONTINUOUS
10
93.0611
20
-79.449
11
92.93
21
-79.3614
0
LINE
8
BLACK
6
CONTINUOUS
10
92.93
20
-79.3614
11
92.8186
21
-79.25
0
LINE
8
BLACK
6
CONTINUOUS
10
92.8186
20
-79.25
11
92.731
21
-79.1189
0
LINE
8
BLACK
6
CONTINUOUS
10
92.731
20
-79.1189
11
92.6707
21
-78.9734
0
LINE
8
BLACK
6
CONTINUOUS
10
92.6707
20
-78.9734
11
92.64
21
-78.8188
0
LINE
8
BLACK
6
CONTINUOUS
10
92.64
20
-78.8188
11
92.64
21
-78.6612
0
LINE
8
BLACK
6
CONTINUOUS
10
92.64
20
-78.6612
11
92.6707
21
-78.5066
0
LINE
8
BLACK
6
CONTINUOUS
10
92.6707
20
-78.5066
11
92.731
21
-78.3611
0
LINE
8
BLACK
6
CONTINUOUS
10
92.731
20
-78.3611
11
92.8186
21
-78.23
0
LINE
8
BLACK
6
CONTINUOUS
10
92.8186
20
-78.23
11
92.93
21
-78.1186
0
LINE
8
BLACK
6
CONTINUOUS
10
92.93
20
-78.1186
11
93.0611
21
-78.031
0
LINE
8
BLACK
6
CONTINUOUS
10
93.0611
20
-78.031
11
93.2066
21
-77.9707
0
LINE
8
BLACK
6
CONTINUOUS
10
93.2066
20
-77.9707
11
93.3612
21
-77.94
0
LINE
8
BLACK
6
CONTINUOUS
10
93.3612
20
-77.94
11
93.5188
21
-77.94
0
LINE
8
BLACK
6
CONTINUOUS
10
93.5188
20
-77.94
11
93.6734
21
-77.9707
0
LINE
8
BLACK
6
CONTINUOUS
10
92.24
20
-79.54
11
90.64
21
-79.54
0
LINE
8
BLACK
6
CONTINUOUS
10
90.64
20
-79.54
11
90.64
21
-77.94
0
LINE
8
BLACK
6
CONTINUOUS
10
90.64
20
-77.94
11
92.24
21
-77.94
0
LINE
8
BLACK
6
CONTINUOUS
10
92.24
20
-77.94
11
92.24
21
-79.54
0
LINE
8
BLACK
6
CONTINUOUS
10
102.654
20
-72.1904
11
102.836
21
-72.2658
0
LINE
8
BLACK
6
CONTINUOUS
10
102.836
20
-72.2658
11
102.999
21
-72.3752
0
LINE
8
BLACK
6
CONTINUOUS
10
102.999
20
-72.3752
11
103.139
21
-72.5145
0
LINE
8
BLACK
6
CONTINUOUS
10
103.139
20
-72.5145
11
103.248
21
-72.6783
0
LINE
8
BLACK
6
CONTINUOUS
10
103.248
20
-72.6783
11
103.324
21
-72.8603
0
LINE
8
BLACK
6
CONTINUOUS
10
103.324
20
-72.8603
11
103.362
21
-73.0535
0
LINE
8
BLACK
6
CONTINUOUS
10
103.362
20
-73.0535
11
103.362
21
-73.2505
0
LINE
8
BLACK
6
CONTINUOUS
10
103.362
20
-73.2505
11
103.324
21
-73.4437
0
LINE
8
BLACK
6
CONTINUOUS
10
103.324
20
-73.4437
11
103.248
21
-73.6257
0
LINE
8
BLACK
6
CONTINUOUS
10
103.248
20
-73.6257
11
103.139
21
-73.7895
0
LINE
8
BLACK
6
CONTINUOUS
10
103.139
20
-73.7895
11
102.999
21
-73.9288
0
LINE
8
BLACK
6
CONTINUOUS
10
102.999
20
-73.9288
11
102.862
21
-74.0206
0
LINE
8
BLACK
6
CONTINUOUS
10
102.862
20
-74.0206
11
102.862
21
-77.2613
0
LINE
8
BLACK
6
CONTINUOUS
10
102.862
20
-77.2613
11
102.908
21
-77.2704
0
LINE
8
BLACK
6
CONTINUOUS
10
102.908
20
-77.2704
11
103.09
21
-77.3458
0
LINE
8
BLACK
6
CONTINUOUS
10
103.09
20
-77.3458
11
103.253
21
-77.4552
0
LINE
8
BLACK
6
CONTINUOUS
10
103.253
20
-77.4552
11
103.393
21
-77.5945
0
LINE
8
BLACK
6
CONTINUOUS
10
103.393
20
-77.5945
11
103.502
21
-77.7583
0
LINE
8
BLACK
6
CONTINUOUS
10
103.502
20
-77.7583
11
103.578
21
-77.9403
0
LINE
8
BLACK
6
CONTINUOUS
10
103.578
20
-77.9403
11
103.616
21
-78.1335
0
LINE
8
BLACK
6
CONTINUOUS
10
103.616
20
-78.1335
11
103.616
21
-78.3305
0
LINE
8
BLACK
6
CONTINUOUS
10
103.616
20
-78.3305
11
103.578
21
-78.5237
0
LINE
8
BLACK
6
CONTINUOUS
10
103.578
20
-78.5237
11
103.502
21
-78.7057
0
LINE
8
BLACK
6
CONTINUOUS
10
103.502
20
-78.7057
11
103.393
21
-78.8695
0
LINE
8
BLACK
6
CONTINUOUS
10
103.393
20
-78.8695
11
103.253
21
-79.0088
0
LINE
8
BLACK
6
CONTINUOUS
10
103.253
20
-79.0088
11
103.09
21
-79.1182
0
LINE
8
BLACK
6
CONTINUOUS
10
103.09
20
-79.1182
11
102.908
21
-79.1936
0
LINE
8
BLACK
6
CONTINUOUS
10
102.908
20
-79.1936
11
102.714
21
-79.232
0
LINE
8
BLACK
6
CONTINUOUS
10
102.714
20
-79.232
11
102.518
21
-79.232
0
LINE
8
BLACK
6
CONTINUOUS
10
102.518
20
-79.232
11
102.324
21
-79.1936
0
LINE
8
BLACK
6
CONTINUOUS
10
102.324
20
-79.1936
11
102.142
21
-79.1182
0
LINE
8
BLACK
6
CONTINUOUS
10
102.142
20
-79.1182
11
101.979
21
-79.0088
0
LINE
8
BLACK
6
CONTINUOUS
10
101.979
20
-79.0088
11
101.839
21
-78.8695
0
LINE
8
BLACK
6
CONTINUOUS
10
101.839
20
-78.8695
11
101.73
21
-78.7057
0
LINE
8
BLACK
6
CONTINUOUS
10
101.73
20
-78.7057
11
101.654
21
-78.5237
0
LINE
8
BLACK
6
CONTINUOUS
10
101.654
20
-78.5237
11
101.616
21
-78.3305
0
LINE
8
BLACK
6
CONTINUOUS
10
101.616
20
-78.3305
11
101.616
21
-78.1335
0
LINE
8
BLACK
6
CONTINUOUS
10
101.616
20
-78.1335
11
101.654
21
-77.9403
0
LINE
8
BLACK
6
CONTINUOUS
10
101.654
20
-77.9403
11
101.73
21
-77.7583
0
LINE
8
BLACK
6
CONTINUOUS
10
101.73
20
-77.7583
11
101.839
21
-77.5945
0
LINE
8
BLACK
6
CONTINUOUS
10
101.839
20
-77.5945
11
101.862
21
-77.5718
0
LINE
8
BLACK
6
CONTINUOUS
10
101.862
20
-77.5718
11
101.862
21
-74.0206
0
LINE
8
BLACK
6
CONTINUOUS
10
101.862
20
-74.0206
11
101.725
21
-73.9288
0
LINE
8
BLACK
6
CONTINUOUS
10
101.725
20
-73.9288
11
101.585
21
-73.7895
0
LINE
8
BLACK
6
CONTINUOUS
10
101.585
20
-73.7895
11
101.476
21
-73.6257
0
LINE
8
BLACK
6
CONTINUOUS
10
101.476
20
-73.6257
11
101.4
21
-73.4437
0
LINE
8
BLACK
6
CONTINUOUS
10
101.4
20
-73.4437
11
101.362
21
-73.2505
0
LINE
8
BLACK
6
CONTINUOUS
10
101.362
20
-73.2505
11
101.362
21
-73.0535
0
LINE
8
BLACK
6
CONTINUOUS
10
101.362
20
-73.0535
11
101.4
21
-72.8603
0
LINE
8
BLACK
6
CONTINUOUS
10
101.4
20
-72.8603
11
101.476
21
-72.6783
0
LINE
8
BLACK
6
CONTINUOUS
10
101.476
20
-72.6783
11
101.585
21
-72.5145
0
LINE
8
BLACK
6
CONTINUOUS
10
101.585
20
-72.5145
11
101.725
21
-72.3752
0
LINE
8
BLACK
6
CONTINUOUS
10
101.725
20
-72.3752
11
101.888
21
-72.2658
0
LINE
8
BLACK
6
CONTINUOUS
10
101.888
20
-72.2658
11
102.07
21
-72.1904
0
LINE
8
BLACK
6
CONTINUOUS
10
102.07
20
-72.1904
11
102.264
21
-72.152
0
LINE
8
BLACK
6
CONTINUOUS
10
102.264
20
-72.152
11
102.46
21
-72.152
0
LINE
8
BLACK
6
CONTINUOUS
10
102.46
20
-72.152
11
102.654
21
-72.1904
0
LINE
8
BLACK
6
CONTINUOUS
10
119.464
20
-79.078
11
117.264
21
-79.078
0
LINE
8
BLACK
6
CONTINUOUS
10
117.264
20
-79.078
11
117.264
21
-76.878
0
LINE
8
BLACK
6
CONTINUOUS
10
117.264
20
-76.878
11
119.464
21
-76.878
0
LINE
8
BLACK
6
CONTINUOUS
10
119.464
20
-76.878
11
119.464
21
-79.078
0
LINE
8
BLACK
6
CONTINUOUS
10
98.382
20
-79.078
11
96.182
21
-79.078
0
LINE
8
BLACK
6
CONTINUOUS
10
96.182
20
-79.078
11
96.182
21
-76.878
0
LINE
8
BLACK
6
CONTINUOUS
10
96.182
20
-76.878
11
98.382
21
-76.878
0
LINE
8
BLACK
6
CONTINUOUS
10
98.382
20
-76.878
11
98.382
21
-79.078
0
LINE
8
BLACK
6
CONTINUOUS
10
107.272
20
-78.824
11
105.072
21
-78.824
0
LINE
8
BLACK
6
CONTINUOUS
10
105.072
20
-78.824
11
105.072
21
-76.624
0
LINE
8
BLACK
6
CONTINUOUS
10
105.072
20
-76.624
11
107.272
21
-76.624
0
LINE
8
BLACK
6
CONTINUOUS
10
107.272
20
-76.624
11
107.272
21
-78.824
0
LINE
8
BLACK
6
CONTINUOUS
10
114.892
20
-78.824
11
112.692
21
-78.824
0
LINE
8
BLACK
6
CONTINUOUS
10
112.692
20
-78.824
11
112.692
21
-76.624
0
LINE
8
BLACK
6
CONTINUOUS
10
112.692
20
-76.624
11
114.892
21
-76.624
0
LINE
8
BLACK
6
CONTINUOUS
10
114.892
20
-76.624
11
114.892
21
-78.824
0
LINE
8
BLACK
6
CONTINUOUS
10
87.7868
20
-77.1896
11
87.9376
21
-77.2353
0
LINE
8
BLACK
6
CONTINUOUS
10
87.9376
20
-77.2353
11
88.0766
21
-77.3096
0
LINE
8
BLACK
6
CONTINUOUS
10
88.0766
20
-77.3096
11
88.1984
21
-77.4096
0
LINE
8
BLACK
6
CONTINUOUS
10
88.1984
20
-77.4096
11
88.2984
21
-77.5314
0
LINE
8
BLACK
6
CONTINUOUS
10
88.2984
20
-77.5314
11
88.3727
21
-77.6704
0
LINE
8
BLACK
6
CONTINUOUS
10
88.3727
20
-77.6704
11
88.4184
21
-77.8212
0
LINE
8
BLACK
6
CONTINUOUS
10
88.4184
20
-77.8212
11
88.4339
21
-77.978
0
LINE
8
BLACK
6
CONTINUOUS
10
88.4339
20
-77.978
11
88.4184
21
-78.1348
0
LINE
8
BLACK
6
CONTINUOUS
10
88.4184
20
-78.1348
11
88.3727
21
-78.2856
0
LINE
8
BLACK
6
CONTINUOUS
10
88.3727
20
-78.2856
11
88.2984
21
-78.4246
0
LINE
8
BLACK
6
CONTINUOUS
10
88.2984
20
-78.4246
11
88.1984
21
-78.5464
0
LINE
8
BLACK
6
CONTINUOUS
10
88.1984
20
-78.5464
11
88.0766
21
-78.6464
0
LINE
8
BLACK
6
CONTINUOUS
10
88.0766
20
-78.6464
11
87.9376
21
-78.7207
0
LINE
8
BLACK
6
CONTINUOUS
10
87.9376
20
-78.7207
11
87.7868
21
-78.7664
0
LINE
8
BLACK
6
CONTINUOUS
10
87.7868
20
-78.7664
11
87.6693
21
-78.778
0
LINE
8
BLACK
6
CONTINUOUS
10
87.6693
20
-78.778
11
87.5907
21
-78.778
0
LINE
8
BLACK
6
CONTINUOUS
10
87.5907
20
-78.778
11
87.4732
21
-78.7664
0
LINE
8
BLACK
6
CONTINUOUS
10
87.4732
20
-78.7664
11
87.3224
21
-78.7207
0
LINE
8
BLACK
6
CONTINUOUS
10
87.3224
20
-78.7207
11
87.1834
21
-78.6464
0
LINE
8
BLACK
6
CONTINUOUS
10
87.1834
20
-78.6464
11
87.0616
21
-78.5464
0
LINE
8
BLACK
6
CONTINUOUS
10
87.0616
20
-78.5464
11
86.9616
21
-78.4246
0
LINE
8
BLACK
6
CONTINUOUS
10
86.9616
20
-78.4246
11
86.8873
21
-78.2856
0
LINE
8
BLACK
6
CONTINUOUS
10
86.8873
20
-78.2856
11
86.8416
21
-78.1348
0
LINE
8
BLACK
6
CONTINUOUS
10
86.8416
20
-78.1348
11
86.8261
21
-77.978
0
LINE
8
BLACK
6
CONTINUOUS
10
86.8261
20
-77.978
11
86.8416
21
-77.8212
0
LINE
8
BLACK
6
CONTINUOUS
10
86.8416
20
-77.8212
11
86.8873
21
-77.6704
0
LINE
8
BLACK
6
CONTINUOUS
10
86.8873
20
-77.6704
11
86.9616
21
-77.5314
0
LINE
8
BLACK
6
CONTINUOUS
10
86.9616
20
-77.5314
11
87.0616
21
-77.4096
0
LINE
8
BLACK
6
CONTINUOUS
10
87.0616
20
-77.4096
11
87.1834
21
-77.3096
0
LINE
8
BLACK
6
CONTINUOUS
10
87.1834
20
-77.3096
11
87.3224
21
-77.2353
0
LINE
8
BLACK
6
CONTINUOUS
10
87.3224
20
-77.2353
11
87.4732
21
-77.1896
0
LINE
8
BLACK
6
CONTINUOUS
10
87.4732
20
-77.1896
11
87.5907
21
-77.178
0
LINE
8
BLACK
6
CONTINUOUS
10
87.5907
20
-77.178
11
87.6693
21
-77.178
0
LINE
8
BLACK
6
CONTINUOUS
10
87.6693
20
-77.178
11
87.7868
21
-77.1896
0
LINE
8
BLACK
6
CONTINUOUS
10
85.3234
20
-77.2087
11
85.4689
21
-77.269
0
LINE
8
BLACK
6
CONTINUOUS
10
85.4689
20
-77.269
11
85.6
21
-77.3566
0
LINE
8
BLACK
6
CONTINUOUS
10
85.6
20
-77.3566
11
85.7114
21
-77.468
0
LINE
8
BLACK
6
CONTINUOUS
10
85.7114
20
-77.468
11
85.799
21
-77.5991
0
LINE
8
BLACK
6
CONTINUOUS
10
85.799
20
-77.5991
11
85.8593
21
-77.7446
0
LINE
8
BLACK
6
CONTINUOUS
10
85.8593
20
-77.7446
11
85.89
21
-77.8992
0
LINE
8
BLACK
6
CONTINUOUS
10
85.89
20
-77.8992
11
85.89
21
-78.0568
0
LINE
8
BLACK
6
CONTINUOUS
10
85.89
20
-78.0568
11
85.8593
21
-78.2114
0
LINE
8
BLACK
6
CONTINUOUS
10
85.8593
20
-78.2114
11
85.799
21
-78.3569
0
LINE
8
BLACK
6
CONTINUOUS
10
85.799
20
-78.3569
11
85.7114
21
-78.488
0
LINE
8
BLACK
6
CONTINUOUS
10
85.7114
20
-78.488
11
85.6
21
-78.5994
0
LINE
8
BLACK
6
CONTINUOUS
10
85.6
20
-78.5994
11
85.4689
21
-78.687
0
LINE
8
BLACK
6
CONTINUOUS
10
85.4689
20
-78.687
11
85.3234
21
-78.7473
0
LINE
8
BLACK
6
CONTINUOUS
10
85.3234
20
-78.7473
11
85.1688
21
-78.778
0
LINE
8
BLACK
6
CONTINUOUS
10
85.1688
20
-78.778
11
85.0112
21
-78.778
0
LINE
8
BLACK
6
CONTINUOUS
10
85.0112
20
-78.778
11
84.8566
21
-78.7473
0
LINE
8
BLACK
6
CONTINUOUS
10
84.8566
20
-78.7473
11
84.7111
21
-78.687
0
LINE
8
BLACK
6
CONTINUOUS
10
84.7111
20
-78.687
11
84.58
21
-78.5994
0
LINE
8
BLACK
6
CONTINUOUS
10
84.58
20
-78.5994
11
84.4686
21
-78.488
0
LINE
8
BLACK
6
CONTINUOUS
10
84.4686
20
-78.488
11
84.381
21
-78.3569
0
LINE
8
BLACK
6
CONTINUOUS
10
84.381
20
-78.3569
11
84.3207
21
-78.2114
0
LINE
8
BLACK
6
CONTINUOUS
10
84.3207
20
-78.2114
11
84.29
21
-78.0568
0
LINE
8
BLACK
6
CONTINUOUS
10
84.29
20
-78.0568
11
84.29
21
-77.8992
0
LINE
8
BLACK
6
CONTINUOUS
10
84.29
20
-77.8992
11
84.3207
21
-77.7446
0
LINE
8
BLACK
6
CONTINUOUS
10
84.3207
20
-77.7446
11
84.381
21
-77.5991
0
LINE
8
BLACK
6
CONTINUOUS
10
84.381
20
-77.5991
11
84.4686
21
-77.468
0
LINE
8
BLACK
6
CONTINUOUS
10
84.4686
20
-77.468
11
84.58
21
-77.3566
0
LINE
8
BLACK
6
CONTINUOUS
10
84.58
20
-77.3566
11
84.7111
21
-77.269
0
LINE
8
BLACK
6
CONTINUOUS
10
84.7111
20
-77.269
11
84.8566
21
-77.2087
0
LINE
8
BLACK
6
CONTINUOUS
10
84.8566
20
-77.2087
11
85.0112
21
-77.178
0
LINE
8
BLACK
6
CONTINUOUS
10
85.0112
20
-77.178
11
85.1688
21
-77.178
0
LINE
8
BLACK
6
CONTINUOUS
10
85.1688
20
-77.178
11
85.3234
21
-77.2087
0
LINE
8
BLACK
6
CONTINUOUS
10
44.28
20
-78.062
11
42.08
21
-78.062
0
LINE
8
BLACK
6
CONTINUOUS
10
42.08
20
-78.062
11
42.08
21
-75.862
0
LINE
8
BLACK
6
CONTINUOUS
10
42.08
20
-75.862
11
44.28
21
-75.862
0
LINE
8
BLACK
6
CONTINUOUS
10
44.28
20
-75.862
11
44.28
21
-78.062
0
LINE
8
BLACK
6
CONTINUOUS
10
71.204
20
-78.062
11
69.004
21
-78.062
0
LINE
8
BLACK
6
CONTINUOUS
10
69.004
20
-78.062
11
69.004
21
-75.862
0
LINE
8
BLACK
6
CONTINUOUS
10
69.004
20
-75.862
11
71.204
21
-75.862
0
LINE
8
BLACK
6
CONTINUOUS
10
71.204
20
-75.862
11
71.204
21
-78.062
0
LINE
8
BLACK
6
CONTINUOUS
10
52.408
20
-77.808
11
50.208
21
-77.808
0
LINE
8
BLACK
6
CONTINUOUS
10
50.208
20
-77.808
11
50.208
21
-75.608
0
LINE
8
BLACK
6
CONTINUOUS
10
50.208
20
-75.608
11
52.408
21
-75.608
0
LINE
8
BLACK
6
CONTINUOUS
10
52.408
20
-75.608
11
52.408
21
-77.808
0
LINE
8
BLACK
6
CONTINUOUS
10
65.616
20
-77.808
11
63.416
21
-77.808
0
LINE
8
BLACK
6
CONTINUOUS
10
63.416
20
-77.808
11
63.416
21
-75.608
0
LINE
8
BLACK
6
CONTINUOUS
10
63.416
20
-75.608
11
65.616
21
-75.608
0
LINE
8
BLACK
6
CONTINUOUS
10
65.616
20
-75.608
11
65.616
21
-77.808
0
LINE
8
BLACK
6
CONTINUOUS
10
80.106
20
-75.0461
11
80.3244
21
-75.1366
0
LINE
8
BLACK
6
CONTINUOUS
10
80.3244
20
-75.1366
11
80.521
21
-75.2679
0
LINE
8
BLACK
6
CONTINUOUS
10
80.521
20
-75.2679
11
80.6881
21
-75.435
0
LINE
8
BLACK
6
CONTINUOUS
10
80.6881
20
-75.435
11
80.8194
21
-75.6316
0
LINE
8
BLACK
6
CONTINUOUS
10
80.8194
20
-75.6316
11
80.9099
21
-75.85
0
LINE
8
BLACK
6
CONTINUOUS
10
80.9099
20
-75.85
11
80.956
21
-76.0818
0
LINE
8
BLACK
6
CONTINUOUS
10
80.956
20
-76.0818
11
80.956
21
-76.3182
0
LINE
8
BLACK
6
CONTINUOUS
10
80.956
20
-76.3182
11
80.9099
21
-76.55
0
LINE
8
BLACK
6
CONTINUOUS
10
80.9099
20
-76.55
11
80.8194
21
-76.7684
0
LINE
8
BLACK
6
CONTINUOUS
10
80.8194
20
-76.7684
11
80.6881
21
-76.965
0
LINE
8
BLACK
6
CONTINUOUS
10
80.6881
20
-76.965
11
80.521
21
-77.1321
0
LINE
8
BLACK
6
CONTINUOUS
10
80.521
20
-77.1321
11
80.3244
21
-77.2634
0
LINE
8
BLACK
6
CONTINUOUS
10
80.3244
20
-77.2634
11
80.106
21
-77.3539
0
LINE
8
BLACK
6
CONTINUOUS
10
80.106
20
-77.3539
11
79.8742
21
-77.4
0
LINE
8
BLACK
6
CONTINUOUS
10
79.8742
20
-77.4
11
79.6378
21
-77.4
0
LINE
8
BLACK
6
CONTINUOUS
10
79.6378
20
-77.4
11
79.406
21
-77.3539
0
LINE
8
BLACK
6
CONTINUOUS
10
79.406
20
-77.3539
11
79.1876
21
-77.2634
0
LINE
8
BLACK
6
CONTINUOUS
10
79.1876
20
-77.2634
11
78.991
21
-77.1321
0
LINE
8
BLACK
6
CONTINUOUS
10
78.991
20
-77.1321
11
78.8239
21
-76.965
0
LINE
8
BLACK
6
CONTINUOUS
10
78.8239
20
-76.965
11
78.6926
21
-76.7684
0
LINE
8
BLACK
6
CONTINUOUS
10
78.6926
20
-76.7684
11
78.6021
21
-76.55
0
LINE
8
BLACK
6
CONTINUOUS
10
78.6021
20
-76.55
11
78.556
21
-76.3182
0
LINE
8
BLACK
6
CONTINUOUS
10
78.556
20
-76.3182
11
78.556
21
-76.0818
0
LINE
8
BLACK
6
CONTINUOUS
10
78.556
20
-76.0818
11
78.6021
21
-75.85
0
LINE
8
BLACK
6
CONTINUOUS
10
78.6021
20
-75.85
11
78.6926
21
-75.6316
0
LINE
8
BLACK
6
CONTINUOUS
10
78.6926
20
-75.6316
11
78.8239
21
-75.435
0
LINE
8
BLACK
6
CONTINUOUS
10
78.8239
20
-75.435
11
78.991
21
-75.2679
0
LINE
8
BLACK
6
CONTINUOUS
10
78.991
20
-75.2679
11
79.1876
21
-75.1366
0
LINE
8
BLACK
6
CONTINUOUS
10
79.1876
20
-75.1366
11
79.406
21
-75.0461
0
LINE
8
BLACK
6
CONTINUOUS
10
79.406
20
-75.0461
11
79.6378
21
-75
0
LINE
8
BLACK
6
CONTINUOUS
10
79.6378
20
-75
11
79.8742
21
-75
0
LINE
8
BLACK
6
CONTINUOUS
10
79.8742
20
-75
11
80.106
21
-75.0461
0
LINE
8
BLACK
6
CONTINUOUS
10
98.382
20
-76.538
11
96.182
21
-76.538
0
LINE
8
BLACK
6
CONTINUOUS
10
96.182
20
-76.538
11
96.182
21
-74.338
0
LINE
8
BLACK
6
CONTINUOUS
10
96.182
20
-74.338
11
98.382
21
-74.338
0
LINE
8
BLACK
6
CONTINUOUS
10
98.382
20
-74.338
11
98.382
21
-76.538
0
LINE
8
BLACK
6
CONTINUOUS
10
119.464
20
-76.538
11
117.264
21
-76.538
0
LINE
8
BLACK
6
CONTINUOUS
10
117.264
20
-76.538
11
117.264
21
-74.338
0
LINE
8
BLACK
6
CONTINUOUS
10
117.264
20
-74.338
11
119.464
21
-74.338
0
LINE
8
BLACK
6
CONTINUOUS
10
119.464
20
-74.338
11
119.464
21
-76.538
0
LINE
8
BLACK
6
CONTINUOUS
10
114.892
20
-76.284
11
112.692
21
-76.284
0
LINE
8
BLACK
6
CONTINUOUS
10
112.692
20
-76.284
11
112.692
21
-74.084
0
LINE
8
BLACK
6
CONTINUOUS
10
112.692
20
-74.084
11
114.892
21
-74.084
0
LINE
8
BLACK
6
CONTINUOUS
10
114.892
20
-74.084
11
114.892
21
-76.284
0
LINE
8
BLACK
6
CONTINUOUS
10
107.272
20
-76.284
11
105.072
21
-76.284
0
LINE
8
BLACK
6
CONTINUOUS
10
105.072
20
-76.284
11
105.072
21
-74.084
0
LINE
8
BLACK
6
CONTINUOUS
10
105.072
20
-74.084
11
107.272
21
-74.084
0
LINE
8
BLACK
6
CONTINUOUS
10
107.272
20
-74.084
11
107.272
21
-76.284
0
LINE
8
BLACK
6
CONTINUOUS
10
76.13
20
-76.13
11
73.73
21
-76.13
0
LINE
8
BLACK
6
CONTINUOUS
10
73.73
20
-76.13
11
73.73
21
-73.73
0
LINE
8
BLACK
6
CONTINUOUS
10
73.73
20
-73.73
11
76.13
21
-73.73
0
LINE
8
BLACK
6
CONTINUOUS
10
76.13
20
-73.73
11
76.13
21
-76.13
0
LINE
8
BLACK
6
CONTINUOUS
10
92.6912
20
-73.2394
11
92.9174
21
-73.308
0
LINE
8
BLACK
6
CONTINUOUS
10
92.9174
20
-73.308
11
93.1259
21
-73.4194
0
LINE
8
BLACK
6
CONTINUOUS
10
93.1259
20
-73.4194
11
93.3086
21
-73.5694
0
LINE
8
BLACK
6
CONTINUOUS
10
93.3086
20
-73.5694
11
93.4586
21
-73.7521
0
LINE
8
BLACK
6
CONTINUOUS
10
93.4586
20
-73.7521
11
93.57
21
-73.9606
0
LINE
8
BLACK
6
CONTINUOUS
10
93.57
20
-73.9606
11
93.6386
21
-74.1868
0
LINE
8
BLACK
6
CONTINUOUS
10
93.6386
20
-74.1868
11
93.6618
21
-74.422
0
LINE
8
BLACK
6
CONTINUOUS
10
93.6618
20
-74.422
11
93.6386
21
-74.6572
0
LINE
8
BLACK
6
CONTINUOUS
10
93.6386
20
-74.6572
11
93.57
21
-74.8834
0
LINE
8
BLACK
6
CONTINUOUS
10
93.57
20
-74.8834
11
93.4586
21
-75.0919
0
LINE
8
BLACK
6
CONTINUOUS
10
93.4586
20
-75.0919
11
93.3086
21
-75.2746
0
LINE
8
BLACK
6
CONTINUOUS
10
93.3086
20
-75.2746
11
93.1259
21
-75.4246
0
LINE
8
BLACK
6
CONTINUOUS
10
93.1259
20
-75.4246
11
92.9174
21
-75.536
0
LINE
8
BLACK
6
CONTINUOUS
10
92.9174
20
-75.536
11
92.6912
21
-75.6046
0
LINE
8
BLACK
6
CONTINUOUS
10
92.6912
20
-75.6046
11
92.5149
21
-75.622
0
LINE
8
BLACK
6
CONTINUOUS
10
92.5149
20
-75.622
11
92.397
21
-75.622
0
LINE
8
BLACK
6
CONTINUOUS
10
92.397
20
-75.622
11
92.2208
21
-75.6046
0
LINE
8
BLACK
6
CONTINUOUS
10
92.2208
20
-75.6046
11
91.9946
21
-75.536
0
LINE
8
BLACK
6
CONTINUOUS
10
91.9946
20
-75.536
11
91.7861
21
-75.4246
0
LINE
8
BLACK
6
CONTINUOUS
10
91.7861
20
-75.4246
11
91.6034
21
-75.2746
0
LINE
8
BLACK
6
CONTINUOUS
10
91.6034
20
-75.2746
11
91.4534
21
-75.0919
0
LINE
8
BLACK
6
CONTINUOUS
10
91.4534
20
-75.0919
11
91.342
21
-74.8834
0
LINE
8
BLACK
6
CONTINUOUS
10
91.342
20
-74.8834
11
91.2734
21
-74.6572
0
LINE
8
BLACK
6
CONTINUOUS
10
91.2734
20
-74.6572
11
91.2502
21
-74.422
0
LINE
8
BLACK
6
CONTINUOUS
10
91.2502
20
-74.422
11
91.2734
21
-74.1868
0
LINE
8
BLACK
6
CONTINUOUS
10
91.2734
20
-74.1868
11
91.342
21
-73.9606
0
LINE
8
BLACK
6
CONTINUOUS
10
91.342
20
-73.9606
11
91.4534
21
-73.7521
0
LINE
8
BLACK
6
CONTINUOUS
10
91.4534
20
-73.7521
11
91.6034
21
-73.5694
0
LINE
8
BLACK
6
CONTINUOUS
10
91.6034
20
-73.5694
11
91.7861
21
-73.4194
0
LINE
8
BLACK
6
CONTINUOUS
10
91.7861
20
-73.4194
11
91.9946
21
-73.308
0
LINE
8
BLACK
6
CONTINUOUS
10
91.9946
20
-73.308
11
92.2208
21
-73.2394
0
LINE
8
BLACK
6
CONTINUOUS
10
92.2208
20
-73.2394
11
92.397
21
-73.222
0
LINE
8
BLACK
6
CONTINUOUS
10
92.397
20
-73.222
11
92.5149
21
-73.222
0
LINE
8
BLACK
6
CONTINUOUS
10
92.5149
20
-73.222
11
92.6912
21
-73.2394
0
LINE
8
BLACK
6
CONTINUOUS
10
71.204
20
-75.522
11
69.004
21
-75.522
0
LINE
8
BLACK
6
CONTINUOUS
10
69.004
20
-75.522
11
69.004
21
-73.322
0
LINE
8
BLACK
6
CONTINUOUS
10
69.004
20
-73.322
11
71.204
21
-73.322
0
LINE
8
BLACK
6
CONTINUOUS
10
71.204
20
-73.322
11
71.204
21
-75.522
0
LINE
8
BLACK
6
CONTINUOUS
10
44.28
20
-75.522
11
42.08
21
-75.522
0
LINE
8
BLACK
6
CONTINUOUS
10
42.08
20
-75.522
11
42.08
21
-73.322
0
LINE
8
BLACK
6
CONTINUOUS
10
42.08
20
-73.322
11
44.28
21
-73.322
0
LINE
8
BLACK
6
CONTINUOUS
10
44.28
20
-73.322
11
44.28
21
-75.522
0
LINE
8
BLACK
6
CONTINUOUS
10
52.408
20
-75.268
11
50.208
21
-75.268
0
LINE
8
BLACK
6
CONTINUOUS
10
50.208
20
-75.268
11
50.208
21
-73.068
0
LINE
8
BLACK
6
CONTINUOUS
10
50.208
20
-73.068
11
52.408
21
-73.068
0
LINE
8
BLACK
6
CONTINUOUS
10
52.408
20
-73.068
11
52.408
21
-75.268
0
LINE
8
BLACK
6
CONTINUOUS
10
65.616
20
-75.268
11
63.416
21
-75.268
0
LINE
8
BLACK
6
CONTINUOUS
10
63.416
20
-75.268
11
63.416
21
-73.068
0
LINE
8
BLACK
6
CONTINUOUS
10
63.416
20
-73.068
11
65.616
21
-73.068
0
LINE
8
BLACK
6
CONTINUOUS
10
65.616
20
-73.068
11
65.616
21
-75.268
0
LINE
8
BLACK
6
CONTINUOUS
10
119.464
20
-73.998
11
117.264
21
-73.998
0
LINE
8
BLACK
6
CONTINUOUS
10
117.264
20
-73.998
11
117.264
21
-71.798
0
LINE
8
BLACK
6
CONTINUOUS
10
117.264
20
-71.798
11
119.464
21
-71.798
0
LINE
8
BLACK
6
CONTINUOUS
10
119.464
20
-71.798
11
119.464
21
-73.998
0
LINE
8
BLACK
6
CONTINUOUS
10
98.382
20
-73.998
11
96.182
21
-73.998
0
LINE
8
BLACK
6
CONTINUOUS
10
96.182
20
-73.998
11
96.182
21
-71.798
0
LINE
8
BLACK
6
CONTINUOUS
10
96.182
20
-71.798
11
98.382
21
-71.798
0
LINE
8
BLACK
6
CONTINUOUS
10
98.382
20
-71.798
11
98.382
21
-73.998
0
LINE
8
BLACK
6
CONTINUOUS
10
107.272
20
-73.744
11
105.072
21
-73.744
0
LINE
8
BLACK
6
CONTINUOUS
10
105.072
20
-73.744
11
105.072
21
-71.544
0
LINE
8
BLACK
6
CONTINUOUS
10
105.072
20
-71.544
11
107.272
21
-71.544
0
LINE
8
BLACK
6
CONTINUOUS
10
107.272
20
-71.544
11
107.272
21
-73.744
0
LINE
8
BLACK
6
CONTINUOUS
10
114.892
20
-73.744
11
112.692
21
-73.744
0
LINE
8
BLACK
6
CONTINUOUS
10
112.692
20
-73.744
11
112.692
21
-71.544
0
LINE
8
BLACK
6
CONTINUOUS
10
112.692
20
-71.544
11
114.892
21
-71.544
0
LINE
8
BLACK
6
CONTINUOUS
10
114.892
20
-71.544
11
114.892
21
-73.744
0
LINE
8
BLACK
6
CONTINUOUS
10
88.476
20
-73.49
11
86.276
21
-73.49
0
LINE
8
BLACK
6
CONTINUOUS
10
86.276
20
-73.49
11
86.276
21
-71.29
0
LINE
8
BLACK
6
CONTINUOUS
10
86.276
20
-71.29
11
88.476
21
-71.29
0
LINE
8
BLACK
6
CONTINUOUS
10
88.476
20
-71.29
11
88.476
21
-73.49
0
LINE
8
BLACK
6
CONTINUOUS
10
44.28
20
-72.982
11
42.08
21
-72.982
0
LINE
8
BLACK
6
CONTINUOUS
10
42.08
20
-72.982
11
42.08
21
-70.782
0
LINE
8
BLACK
6
CONTINUOUS
10
42.08
20
-70.782
11
44.28
21
-70.782
0
LINE
8
BLACK
6
CONTINUOUS
10
44.28
20
-70.782
11
44.28
21
-72.982
0
LINE
8
BLACK
6
CONTINUOUS
10
71.204
20
-72.982
11
69.004
21
-72.982
0
LINE
8
BLACK
6
CONTINUOUS
10
69.004
20
-72.982
11
69.004
21
-70.782
0
LINE
8
BLACK
6
CONTINUOUS
10
69.004
20
-70.782
11
71.204
21
-70.782
0
LINE
8
BLACK
6
CONTINUOUS
10
71.204
20
-70.782
11
71.204
21
-72.982
0
LINE
8
BLACK
6
CONTINUOUS
10
65.616
20
-72.728
11
63.416
21
-72.728
0
LINE
8
BLACK
6
CONTINUOUS
10
63.416
20
-72.728
11
63.416
21
-70.528
0
LINE
8
BLACK
6
CONTINUOUS
10
63.416
20
-70.528
11
65.616
21
-70.528
0
LINE
8
BLACK
6
CONTINUOUS
10
65.616
20
-70.528
11
65.616
21
-72.728
0
LINE
8
BLACK
6
CONTINUOUS
10
52.408
20
-72.728
11
50.208
21
-72.728
0
LINE
8
BLACK
6
CONTINUOUS
10
50.208
20
-72.728
11
50.208
21
-70.528
0
LINE
8
BLACK
6
CONTINUOUS
10
50.208
20
-70.528
11
52.408
21
-70.528
0
LINE
8
BLACK
6
CONTINUOUS
10
52.408
20
-70.528
11
52.408
21
-72.728
0
LINE
8
BLACK
6
CONTINUOUS
10
100.563
20
-70.8187
11
100.709
21
-70.879
0
LINE
8
BLACK
6
CONTINUOUS
10
100.709
20
-70.879
11
100.84
21
-70.9666
0
LINE
8
BLACK
6
CONTINUOUS
10
100.84
20
-70.9666
11
100.951
21
-71.078
0
LINE
8
BLACK
6
CONTINUOUS
10
100.951
20
-71.078
11
101.039
21
-71.2091
0
LINE
8
BLACK
6
CONTINUOUS
10
101.039
20
-71.2091
11
101.099
21
-71.3546
0
LINE
8
BLACK
6
CONTINUOUS
10
101.099
20
-71.3546
11
101.13
21
-71.5092
0
LINE
8
BLACK
6
CONTINUOUS
10
101.13
20
-71.5092
11
101.13
21
-71.6668
0
LINE
8
BLACK
6
CONTINUOUS
10
101.13
20
-71.6668
11
101.099
21
-71.8214
0
LINE
8
BLACK
6
CONTINUOUS
10
101.099
20
-71.8214
11
101.039
21
-71.9669
0
LINE
8
BLACK
6
CONTINUOUS
10
101.039
20
-71.9669
11
100.951
21
-72.098
0
LINE
8
BLACK
6
CONTINUOUS
10
100.951
20
-72.098
11
100.84
21
-72.2094
0
LINE
8
BLACK
6
CONTINUOUS
10
100.84
20
-72.2094
11
100.709
21
-72.297
0
LINE
8
BLACK
6
CONTINUOUS
10
100.709
20
-72.297
11
100.563
21
-72.3573
0
LINE
8
BLACK
6
CONTINUOUS
10
100.563
20
-72.3573
11
100.409
21
-72.388
0
LINE
8
BLACK
6
CONTINUOUS
10
100.409
20
-72.388
11
100.251
21
-72.388
0
LINE
8
BLACK
6
CONTINUOUS
10
100.251
20
-72.388
11
100.097
21
-72.3573
0
LINE
8
BLACK
6
CONTINUOUS
10
100.097
20
-72.3573
11
99.9511
21
-72.297
0
LINE
8
BLACK
6
CONTINUOUS
10
99.9511
20
-72.297
11
99.82
21
-72.2094
0
LINE
8
BLACK
6
CONTINUOUS
10
99.82
20
-72.2094
11
99.7086
21
-72.098
0
LINE
8
BLACK
6
CONTINUOUS
10
99.7086
20
-72.098
11
99.621
21
-71.9669
0
LINE
8
BLACK
6
CONTINUOUS
10
99.621
20
-71.9669
11
99.5607
21
-71.8214
0
LINE
8
BLACK
6
CONTINUOUS
10
99.5607
20
-71.8214
11
99.53
21
-71.6668
0
LINE
8
BLACK
6
CONTINUOUS
10
99.53
20
-71.6668
11
99.53
21
-71.5092
0
LINE
8
BLACK
6
CONTINUOUS
10
99.53
20
-71.5092
11
99.5607
21
-71.3546
0
LINE
8
BLACK
6
CONTINUOUS
10
99.5607
20
-71.3546
11
99.621
21
-71.2091
0
LINE
8
BLACK
6
CONTINUOUS
10
99.621
20
-71.2091
11
99.7086
21
-71.078
0
LINE
8
BLACK
6
CONTINUOUS
10
99.7086
20
-71.078
11
99.82
21
-70.9666
0
LINE
8
BLACK
6
CONTINUOUS
10
99.82
20
-70.9666
11
99.9511
21
-70.879
0
LINE
8
BLACK
6
CONTINUOUS
10
99.9511
20
-70.879
11
100.097
21
-70.8187
0
LINE
8
BLACK
6
CONTINUOUS
10
100.097
20
-70.8187
11
100.251
21
-70.788
0
LINE
8
BLACK
6
CONTINUOUS
10
100.251
20
-70.788
11
100.409
21
-70.788
0
LINE
8
BLACK
6
CONTINUOUS
10
100.409
20
-70.788
11
100.563
21
-70.8187
0
LINE
8
BLACK
6
CONTINUOUS
10
98.382
20
-71.458
11
96.182
21
-71.458
0
LINE
8
BLACK
6
CONTINUOUS
10
96.182
20
-71.458
11
96.182
21
-69.258
0
LINE
8
BLACK
6
CONTINUOUS
10
96.182
20
-69.258
11
98.382
21
-69.258
0
LINE
8
BLACK
6
CONTINUOUS
10
98.382
20
-69.258
11
98.382
21
-71.458
0
LINE
8
BLACK
6
CONTINUOUS
10
119.464
20
-71.458
11
117.264
21
-71.458
0
LINE
8
BLACK
6
CONTINUOUS
10
117.264
20
-71.458
11
117.264
21
-69.258
0
LINE
8
BLACK
6
CONTINUOUS
10
117.264
20
-69.258
11
119.464
21
-69.258
0
LINE
8
BLACK
6
CONTINUOUS
10
119.464
20
-69.258
11
119.464
21
-71.458
0
LINE
8
BLACK
6
CONTINUOUS
10
107.272
20
-71.204
11
105.072
21
-71.204
0
LINE
8
BLACK
6
CONTINUOUS
10
105.072
20
-71.204
11
105.072
21
-69.004
0
LINE
8
BLACK
6
CONTINUOUS
10
105.072
20
-69.004
11
107.272
21
-69.004
0
LINE
8
BLACK
6
CONTINUOUS
10
107.272
20
-69.004
11
107.272
21
-71.204
0
LINE
8
BLACK
6
CONTINUOUS
10
114.892
20
-71.204
11
112.692
21
-71.204
0
LINE
8
BLACK
6
CONTINUOUS
10
112.692
20
-71.204
11
112.692
21
-69.004
0
LINE
8
BLACK
6
CONTINUOUS
10
112.692
20
-69.004
11
114.892
21
-69.004
0
LINE
8
BLACK
6
CONTINUOUS
10
114.892
20
-69.004
11
114.892
21
-71.204
0
LINE
8
BLACK
6
CONTINUOUS
10
88.476
20
-70.95
11
86.276
21
-70.95
0
LINE
8
BLACK
6
CONTINUOUS
10
86.276
20
-70.95
11
86.276
21
-68.75
0
LINE
8
BLACK
6
CONTINUOUS
10
86.276
20
-68.75
11
88.476
21
-68.75
0
LINE
8
BLACK
6
CONTINUOUS
10
88.476
20
-68.75
11
88.476
21
-70.95
0
LINE
8
BLACK
6
CONTINUOUS
10
74.039
20
-68.3552
11
74.1591
21
-68.3917
0
LINE
8
BLACK
6
CONTINUOUS
10
74.1591
20
-68.3917
11
74.2699
21
-68.4509
0
LINE
8
BLACK
6
CONTINUOUS
10
74.2699
20
-68.4509
11
74.367
21
-68.5305
0
LINE
8
BLACK
6
CONTINUOUS
10
74.367
20
-68.5305
11
74.4466
21
-68.6276
0
LINE
8
BLACK
6
CONTINUOUS
10
74.4466
20
-68.6276
11
74.5058
21
-68.7384
0
LINE
8
BLACK
6
CONTINUOUS
10
74.5058
20
-68.7384
11
74.5423
21
-68.8585
0
LINE
8
BLACK
6
CONTINUOUS
10
74.5423
20
-68.8585
11
74.5515
21
-68.9522
0
LINE
8
BLACK
6
CONTINUOUS
10
74.5515
20
-68.9522
11
74.5515
21
-70.2398
0
LINE
8
BLACK
6
CONTINUOUS
10
74.5515
20
-70.2398
11
74.5423
21
-70.3335
0
LINE
8
BLACK
6
CONTINUOUS
10
74.5423
20
-70.3335
11
74.5058
21
-70.4536
0
LINE
8
BLACK
6
CONTINUOUS
10
74.5058
20
-70.4536
11
74.4466
21
-70.5644
0
LINE
8
BLACK
6
CONTINUOUS
10
74.4466
20
-70.5644
11
74.367
21
-70.6615
0
LINE
8
BLACK
6
CONTINUOUS
10
74.367
20
-70.6615
11
74.2699
21
-70.7411
0
LINE
8
BLACK
6
CONTINUOUS
10
74.2699
20
-70.7411
11
74.1591
21
-70.8003
0
LINE
8
BLACK
6
CONTINUOUS
10
74.1591
20
-70.8003
11
74.039
21
-70.8368
0
LINE
8
BLACK
6
CONTINUOUS
10
74.039
20
-70.8368
11
73.914
21
-70.8491
0
LINE
8
BLACK
6
CONTINUOUS
10
73.914
20
-70.8491
11
73.789
21
-70.8368
0
LINE
8
BLACK
6
CONTINUOUS
10
73.789
20
-70.8368
11
73.6689
21
-70.8003
0
LINE
8
BLACK
6
CONTINUOUS
10
73.6689
20
-70.8003
11
73.5581
21
-70.7411
0
LINE
8
BLACK
6
CONTINUOUS
10
73.5581
20
-70.7411
11
73.461
21
-70.6615
0
LINE
8
BLACK
6
CONTINUOUS
10
73.461
20
-70.6615
11
73.3814
21
-70.5644
0
LINE
8
BLACK
6
CONTINUOUS
10
73.3814
20
-70.5644
11
73.3222
21
-70.4536
0
LINE
8
BLACK
6
CONTINUOUS
10
73.3222
20
-70.4536
11
73.2857
21
-70.3335
0
LINE
8
BLACK
6
CONTINUOUS
10
73.2857
20
-70.3335
11
73.2765
21
-70.2398
0
LINE
8
BLACK
6
CONTINUOUS
10
73.2765
20
-70.2398
11
73.2765
21
-68.9522
0
LINE
8
BLACK
6
CONTINUOUS
10
73.2765
20
-68.9522
11
73.2857
21
-68.8585
0
LINE
8
BLACK
6
CONTINUOUS
10
73.2857
20
-68.8585
11
73.3222
21
-68.7384
0
LINE
8
BLACK
6
CONTINUOUS
10
73.3222
20
-68.7384
11
73.3814
21
-68.6276
0
LINE
8
BLACK
6
CONTINUOUS
10
73.3814
20
-68.6276
11
73.461
21
-68.5305
0
LINE
8
BLACK
6
CONTINUOUS
10
73.461
20
-68.5305
11
73.5581
21
-68.4509
0
LINE
8
BLACK
6
CONTINUOUS
10
73.5581
20
-68.4509
11
73.6689
21
-68.3917
0
LINE
8
BLACK
6
CONTINUOUS
10
73.6689
20
-68.3917
11
73.789
21
-68.3552
0
LINE
8
BLACK
6
CONTINUOUS
10
73.789
20
-68.3552
11
73.914
21
-68.3429
0
LINE
8
BLACK
6
CONTINUOUS
10
73.914
20
-68.3429
11
74.039
21
-68.3552
0
LINE
8
BLACK
6
CONTINUOUS
10
75.739
20
-68.3552
11
75.8591
21
-68.3917
0
LINE
8
BLACK
6
CONTINUOUS
10
75.8591
20
-68.3917
11
75.9699
21
-68.4509
0
LINE
8
BLACK
6
CONTINUOUS
10
75.9699
20
-68.4509
11
76.067
21
-68.5305
0
LINE
8
BLACK
6
CONTINUOUS
10
76.067
20
-68.5305
11
76.1466
21
-68.6276
0
LINE
8
BLACK
6
CONTINUOUS
10
76.1466
20
-68.6276
11
76.2058
21
-68.7384
0
LINE
8
BLACK
6
CONTINUOUS
10
76.2058
20
-68.7384
11
76.2423
21
-68.8585
0
LINE
8
BLACK
6
CONTINUOUS
10
76.2423
20
-68.8585
11
76.2515
21
-68.9522
0
LINE
8
BLACK
6
CONTINUOUS
10
76.2515
20
-68.9522
11
76.2515
21
-70.2398
0
LINE
8
BLACK
6
CONTINUOUS
10
76.2515
20
-70.2398
11
76.2423
21
-70.3335
0
LINE
8
BLACK
6
CONTINUOUS
10
76.2423
20
-70.3335
11
76.2058
21
-70.4536
0
LINE
8
BLACK
6
CONTINUOUS
10
76.2058
20
-70.4536
11
76.1466
21
-70.5644
0
LINE
8
BLACK
6
CONTINUOUS
10
76.1466
20
-70.5644
11
76.067
21
-70.6615
0
LINE
8
BLACK
6
CONTINUOUS
10
76.067
20
-70.6615
11
75.9699
21
-70.7411
0
LINE
8
BLACK
6
CONTINUOUS
10
75.9699
20
-70.7411
11
75.8591
21
-70.8003
0
LINE
8
BLACK
6
CONTINUOUS
10
75.8591
20
-70.8003
11
75.739
21
-70.8368
0
LINE
8
BLACK
6
CONTINUOUS
10
75.739
20
-70.8368
11
75.614
21
-70.8491
0
LINE
8
BLACK
6
CONTINUOUS
10
75.614
20
-70.8491
11
75.489
21
-70.8368
0
LINE
8
BLACK
6
CONTINUOUS
10
75.489
20
-70.8368
11
75.3689
21
-70.8003
0
LINE
8
BLACK
6
CONTINUOUS
10
75.3689
20
-70.8003
11
75.2581
21
-70.7411
0
LINE
8
BLACK
6
CONTINUOUS
10
75.2581
20
-70.7411
11
75.161
21
-70.6615
0
LINE
8
BLACK
6
CONTINUOUS
10
75.161
20
-70.6615
11
75.0814
21
-70.5644
0
LINE
8
BLACK
6
CONTINUOUS
10
75.0814
20
-70.5644
11
75.0222
21
-70.4536
0
LINE
8
BLACK
6
CONTINUOUS
10
75.0222
20
-70.4536
11
74.9857
21
-70.3335
0
LINE
8
BLACK
6
CONTINUOUS
10
74.9857
20
-70.3335
11
74.9765
21
-70.2398
0
LINE
8
BLACK
6
CONTINUOUS
10
74.9765
20
-70.2398
11
74.9765
21
-68.9522
0
LINE
8
BLACK
6
CONTINUOUS
10
74.9765
20
-68.9522
11
74.9857
21
-68.8585
0
LINE
8
BLACK
6
CONTINUOUS
10
74.9857
20
-68.8585
11
75.0222
21
-68.7384
0
LINE
8
BLACK
6
CONTINUOUS
10
75.0222
20
-68.7384
11
75.0814
21
-68.6276
0
LINE
8
BLACK
6
CONTINUOUS
10
75.0814
20
-68.6276
11
75.161
21
-68.5305
0
LINE
8
BLACK
6
CONTINUOUS
10
75.161
20
-68.5305
11
75.2581
21
-68.4509
0
LINE
8
BLACK
6
CONTINUOUS
10
75.2581
20
-68.4509
11
75.3689
21
-68.3917
0
LINE
8
BLACK
6
CONTINUOUS
10
75.3689
20
-68.3917
11
75.489
21
-68.3552
0
LINE
8
BLACK
6
CONTINUOUS
10
75.489
20
-68.3552
11
75.614
21
-68.3429
0
LINE
8
BLACK
6
CONTINUOUS
10
75.614
20
-68.3429
11
75.739
21
-68.3552
0
LINE
8
BLACK
6
CONTINUOUS
10
77.439
20
-68.3552
11
77.5591
21
-68.3917
0
LINE
8
BLACK
6
CONTINUOUS
10
77.5591
20
-68.3917
11
77.6699
21
-68.4509
0
LINE
8
BLACK
6
CONTINUOUS
10
77.6699
20
-68.4509
11
77.767
21
-68.5305
0
LINE
8
BLACK
6
CONTINUOUS
10
77.767
20
-68.5305
11
77.8466
21
-68.6276
0
LINE
8
BLACK
6
CONTINUOUS
10
77.8466
20
-68.6276
11
77.9058
21
-68.7384
0
LINE
8
BLACK
6
CONTINUOUS
10
77.9058
20
-68.7384
11
77.9423
21
-68.8585
0
LINE
8
BLACK
6
CONTINUOUS
10
77.9423
20
-68.8585
11
77.9515
21
-68.9522
0
LINE
8
BLACK
6
CONTINUOUS
10
77.9515
20
-68.9522
11
77.9515
21
-70.2398
0
LINE
8
BLACK
6
CONTINUOUS
10
77.9515
20
-70.2398
11
77.9423
21
-70.3335
0
LINE
8
BLACK
6
CONTINUOUS
10
77.9423
20
-70.3335
11
77.9058
21
-70.4536
0
LINE
8
BLACK
6
CONTINUOUS
10
77.9058
20
-70.4536
11
77.8466
21
-70.5644
0
LINE
8
BLACK
6
CONTINUOUS
10
77.8466
20
-70.5644
11
77.767
21
-70.6615
0
LINE
8
BLACK
6
CONTINUOUS
10
77.767
20
-70.6615
11
77.6699
21
-70.7411
0
LINE
8
BLACK
6
CONTINUOUS
10
77.6699
20
-70.7411
11
77.5591
21
-70.8003
0
LINE
8
BLACK
6
CONTINUOUS
10
77.5591
20
-70.8003
11
77.439
21
-70.8368
0
LINE
8
BLACK
6
CONTINUOUS
10
77.439
20
-70.8368
11
77.314
21
-70.8491
0
LINE
8
BLACK
6
CONTINUOUS
10
77.314
20
-70.8491
11
77.189
21
-70.8368
0
LINE
8
BLACK
6
CONTINUOUS
10
77.189
20
-70.8368
11
77.0689
21
-70.8003
0
LINE
8
BLACK
6
CONTINUOUS
10
77.0689
20
-70.8003
11
76.9581
21
-70.7411
0
LINE
8
BLACK
6
CONTINUOUS
10
76.9581
20
-70.7411
11
76.861
21
-70.6615
0
LINE
8
BLACK
6
CONTINUOUS
10
76.861
20
-70.6615
11
76.7814
21
-70.5644
0
LINE
8
BLACK
6
CONTINUOUS
10
76.7814
20
-70.5644
11
76.7222
21
-70.4536
0
LINE
8
BLACK
6
CONTINUOUS
10
76.7222
20
-70.4536
11
76.6857
21
-70.3335
0
LINE
8
BLACK
6
CONTINUOUS
10
76.6857
20
-70.3335
11
76.6765
21
-70.2398
0
LINE
8
BLACK
6
CONTINUOUS
10
76.6765
20
-70.2398
11
76.6765
21
-68.9522
0
LINE
8
BLACK
6
CONTINUOUS
10
76.6765
20
-68.9522
11
76.6857
21
-68.8585
0
LINE
8
BLACK
6
CONTINUOUS
10
76.6857
20
-68.8585
11
76.7222
21
-68.7384
0
LINE
8
BLACK
6
CONTINUOUS
10
76.7222
20
-68.7384
11
76.7814
21
-68.6276
0
LINE
8
BLACK
6
CONTINUOUS
10
76.7814
20
-68.6276
11
76.861
21
-68.5305
0
LINE
8
BLACK
6
CONTINUOUS
10
76.861
20
-68.5305
11
76.9581
21
-68.4509
0
LINE
8
BLACK
6
CONTINUOUS
10
76.9581
20
-68.4509
11
77.0689
21
-68.3917
0
LINE
8
BLACK
6
CONTINUOUS
10
77.0689
20
-68.3917
11
77.189
21
-68.3552
0
LINE
8
BLACK
6
CONTINUOUS
10
77.189
20
-68.3552
11
77.314
21
-68.3429
0
LINE
8
BLACK
6
CONTINUOUS
10
77.314
20
-68.3429
11
77.439
21
-68.3552
0
LINE
8
BLACK
6
CONTINUOUS
10
79.139
20
-68.3552
11
79.2591
21
-68.3917
0
LINE
8
BLACK
6
CONTINUOUS
10
79.2591
20
-68.3917
11
79.3699
21
-68.4509
0
LINE
8
BLACK
6
CONTINUOUS
10
79.3699
20
-68.4509
11
79.467
21
-68.5305
0
LINE
8
BLACK
6
CONTINUOUS
10
79.467
20
-68.5305
11
79.5466
21
-68.6276
0
LINE
8
BLACK
6
CONTINUOUS
10
79.5466
20
-68.6276
11
79.6058
21
-68.7384
0
LINE
8
BLACK
6
CONTINUOUS
10
79.6058
20
-68.7384
11
79.6423
21
-68.8585
0
LINE
8
BLACK
6
CONTINUOUS
10
79.6423
20
-68.8585
11
79.6515
21
-68.9522
0
LINE
8
BLACK
6
CONTINUOUS
10
79.6515
20
-68.9522
11
79.6515
21
-70.2398
0
LINE
8
BLACK
6
CONTINUOUS
10
79.6515
20
-70.2398
11
79.6423
21
-70.3335
0
LINE
8
BLACK
6
CONTINUOUS
10
79.6423
20
-70.3335
11
79.6058
21
-70.4536
0
LINE
8
BLACK
6
CONTINUOUS
10
79.6058
20
-70.4536
11
79.5466
21
-70.5644
0
LINE
8
BLACK
6
CONTINUOUS
10
79.5466
20
-70.5644
11
79.467
21
-70.6615
0
LINE
8
BLACK
6
CONTINUOUS
10
79.467
20
-70.6615
11
79.3699
21
-70.7411
0
LINE
8
BLACK
6
CONTINUOUS
10
79.3699
20
-70.7411
11
79.2591
21
-70.8003
0
LINE
8
BLACK
6
CONTINUOUS
10
79.2591
20
-70.8003
11
79.139
21
-70.8368
0
LINE
8
BLACK
6
CONTINUOUS
10
79.139
20
-70.8368
11
79.014
21
-70.8491
0
LINE
8
BLACK
6
CONTINUOUS
10
79.014
20
-70.8491
11
78.889
21
-70.8368
0
LINE
8
BLACK
6
CONTINUOUS
10
78.889
20
-70.8368
11
78.7689
21
-70.8003
0
LINE
8
BLACK
6
CONTINUOUS
10
78.7689
20
-70.8003
11
78.6581
21
-70.7411
0
LINE
8
BLACK
6
CONTINUOUS
10
78.6581
20
-70.7411
11
78.561
21
-70.6615
0
LINE
8
BLACK
6
CONTINUOUS
10
78.561
20
-70.6615
11
78.4814
21
-70.5644
0
LINE
8
BLACK
6
CONTINUOUS
10
78.4814
20
-70.5644
11
78.4222
21
-70.4536
0
LINE
8
BLACK
6
CONTINUOUS
10
78.4222
20
-70.4536
11
78.3857
21
-70.3335
0
LINE
8
BLACK
6
CONTINUOUS
10
78.3857
20
-70.3335
11
78.3765
21
-70.2398
0
LINE
8
BLACK
6
CONTINUOUS
10
78.3765
20
-70.2398
11
78.3765
21
-68.9522
0
LINE
8
BLACK
6
CONTINUOUS
10
78.3765
20
-68.9522
11
78.3857
21
-68.8585
0
LINE
8
BLACK
6
CONTINUOUS
10
78.3857
20
-68.8585
11
78.4222
21
-68.7384
0
LINE
8
BLACK
6
CONTINUOUS
10
78.4222
20
-68.7384
11
78.4814
21
-68.6276
0
LINE
8
BLACK
6
CONTINUOUS
10
78.4814
20
-68.6276
11
78.561
21
-68.5305
0
LINE
8
BLACK
6
CONTINUOUS
10
78.561
20
-68.5305
11
78.6581
21
-68.4509
0
LINE
8
BLACK
6
CONTINUOUS
10
78.6581
20
-68.4509
11
78.7689
21
-68.3917
0
LINE
8
BLACK
6
CONTINUOUS
10
78.7689
20
-68.3917
11
78.889
21
-68.3552
0
LINE
8
BLACK
6
CONTINUOUS
10
78.889
20
-68.3552
11
79.014
21
-68.3429
0
LINE
8
BLACK
6
CONTINUOUS
10
79.014
20
-68.3429
11
79.139
21
-68.3552
0
LINE
8
BLACK
6
CONTINUOUS
10
80.839
20
-68.3552
11
80.9591
21
-68.3917
0
LINE
8
BLACK
6
CONTINUOUS
10
80.9591
20
-68.3917
11
81.0699
21
-68.4509
0
LINE
8
BLACK
6
CONTINUOUS
10
81.0699
20
-68.4509
11
81.167
21
-68.5305
0
LINE
8
BLACK
6
CONTINUOUS
10
81.167
20
-68.5305
11
81.2466
21
-68.6276
0
LINE
8
BLACK
6
CONTINUOUS
10
81.2466
20
-68.6276
11
81.3058
21
-68.7384
0
LINE
8
BLACK
6
CONTINUOUS
10
81.3058
20
-68.7384
11
81.3423
21
-68.8585
0
LINE
8
BLACK
6
CONTINUOUS
10
81.3423
20
-68.8585
11
81.3515
21
-68.9522
0
LINE
8
BLACK
6
CONTINUOUS
10
81.3515
20
-68.9522
11
81.3515
21
-70.2398
0
LINE
8
BLACK
6
CONTINUOUS
10
81.3515
20
-70.2398
11
81.3423
21
-70.3335
0
LINE
8
BLACK
6
CONTINUOUS
10
81.3423
20
-70.3335
11
81.3058
21
-70.4536
0
LINE
8
BLACK
6
CONTINUOUS
10
81.3058
20
-70.4536
11
81.2466
21
-70.5644
0
LINE
8
BLACK
6
CONTINUOUS
10
81.2466
20
-70.5644
11
81.167
21
-70.6615
0
LINE
8
BLACK
6
CONTINUOUS
10
81.167
20
-70.6615
11
81.0699
21
-70.7411
0
LINE
8
BLACK
6
CONTINUOUS
10
81.0699
20
-70.7411
11
80.9591
21
-70.8003
0
LINE
8
BLACK
6
CONTINUOUS
10
80.9591
20
-70.8003
11
80.839
21
-70.8368
0
LINE
8
BLACK
6
CONTINUOUS
10
80.839
20
-70.8368
11
80.714
21
-70.8491
0
LINE
8
BLACK
6
CONTINUOUS
10
80.714
20
-70.8491
11
80.589
21
-70.8368
0
LINE
8
BLACK
6
CONTINUOUS
10
80.589
20
-70.8368
11
80.4689
21
-70.8003
0
LINE
8
BLACK
6
CONTINUOUS
10
80.4689
20
-70.8003
11
80.3581
21
-70.7411
0
LINE
8
BLACK
6
CONTINUOUS
10
80.3581
20
-70.7411
11
80.261
21
-70.6615
0
LINE
8
BLACK
6
CONTINUOUS
10
80.261
20
-70.6615
11
80.1814
21
-70.5644
0
LINE
8
BLACK
6
CONTINUOUS
10
80.1814
20
-70.5644
11
80.1222
21
-70.4536
0
LINE
8
BLACK
6
CONTINUOUS
10
80.1222
20
-70.4536
11
80.0857
21
-70.3335
0
LINE
8
BLACK
6
CONTINUOUS
10
80.0857
20
-70.3335
11
80.0765
21
-70.2398
0
LINE
8
BLACK
6
CONTINUOUS
10
80.0765
20
-70.2398
11
80.0765
21
-68.9522
0
LINE
8
BLACK
6
CONTINUOUS
10
80.0765
20
-68.9522
11
80.0857
21
-68.8585
0
LINE
8
BLACK
6
CONTINUOUS
10
80.0857
20
-68.8585
11
80.1222
21
-68.7384
0
LINE
8
BLACK
6
CONTINUOUS
10
80.1222
20
-68.7384
11
80.1814
21
-68.6276
0
LINE
8
BLACK
6
CONTINUOUS
10
80.1814
20
-68.6276
11
80.261
21
-68.5305
0
LINE
8
BLACK
6
CONTINUOUS
10
80.261
20
-68.5305
11
80.3581
21
-68.4509
0
LINE
8
BLACK
6
CONTINUOUS
10
80.3581
20
-68.4509
11
80.4689
21
-68.3917
0
LINE
8
BLACK
6
CONTINUOUS
10
80.4689
20
-68.3917
11
80.589
21
-68.3552
0
LINE
8
BLACK
6
CONTINUOUS
10
80.589
20
-68.3552
11
80.714
21
-68.3429
0
LINE
8
BLACK
6
CONTINUOUS
10
80.714
20
-68.3429
11
80.839
21
-68.3552
0
LINE
8
BLACK
6
CONTINUOUS
10
71.204
20
-70.442
11
69.004
21
-70.442
0
LINE
8
BLACK
6
CONTINUOUS
10
69.004
20
-70.442
11
69.004
21
-68.242
0
LINE
8
BLACK
6
CONTINUOUS
10
69.004
20
-68.242
11
71.204
21
-68.242
0
LINE
8
BLACK
6
CONTINUOUS
10
71.204
20
-68.242
11
71.204
21
-70.442
0
LINE
8
BLACK
6
CONTINUOUS
10
44.28
20
-70.442
11
42.08
21
-70.442
0
LINE
8
BLACK
6
CONTINUOUS
10
42.08
20
-70.442
11
42.08
21
-68.242
0
LINE
8
BLACK
6
CONTINUOUS
10
42.08
20
-68.242
11
44.28
21
-68.242
0
LINE
8
BLACK
6
CONTINUOUS
10
44.28
20
-68.242
11
44.28
21
-70.442
0
LINE
8
BLACK
6
CONTINUOUS
10
52.408
20
-70.188
11
50.208
21
-70.188
0
LINE
8
BLACK
6
CONTINUOUS
10
50.208
20
-70.188
11
50.208
21
-67.988
0
LINE
8
BLACK
6
CONTINUOUS
10
50.208
20
-67.988
11
52.408
21
-67.988
0
LINE
8
BLACK
6
CONTINUOUS
10
52.408
20
-67.988
11
52.408
21
-70.188
0
LINE
8
BLACK
6
CONTINUOUS
10
65.616
20
-70.188
11
63.416
21
-70.188
0
LINE
8
BLACK
6
CONTINUOUS
10
63.416
20
-70.188
11
63.416
21
-67.988
0
LINE
8
BLACK
6
CONTINUOUS
10
63.416
20
-67.988
11
65.616
21
-67.988
0
LINE
8
BLACK
6
CONTINUOUS
10
65.616
20
-67.988
11
65.616
21
-70.188
0
LINE
8
BLACK
6
CONTINUOUS
10
100.563
20
-68.3187
11
100.709
21
-68.379
0
LINE
8
BLACK
6
CONTINUOUS
10
100.709
20
-68.379
11
100.84
21
-68.4666
0
LINE
8
BLACK
6
CONTINUOUS
10
100.84
20
-68.4666
11
100.951
21
-68.578
0
LINE
8
BLACK
6
CONTINUOUS
10
100.951
20
-68.578
11
101.039
21
-68.7091
0
LINE
8
BLACK
6
CONTINUOUS
10
101.039
20
-68.7091
11
101.099
21
-68.8546
0
LINE
8
BLACK
6
CONTINUOUS
10
101.099
20
-68.8546
11
101.13
21
-69.0092
0
LINE
8
BLACK
6
CONTINUOUS
10
101.13
20
-69.0092
11
101.13
21
-69.1668
0
LINE
8
BLACK
6
CONTINUOUS
10
101.13
20
-69.1668
11
101.099
21
-69.3214
0
LINE
8
BLACK
6
CONTINUOUS
10
101.099
20
-69.3214
11
101.039
21
-69.4669
0
LINE
8
BLACK
6
CONTINUOUS
10
101.039
20
-69.4669
11
100.951
21
-69.598
0
LINE
8
BLACK
6
CONTINUOUS
10
100.951
20
-69.598
11
100.84
21
-69.7094
0
LINE
8
BLACK
6
CONTINUOUS
10
100.84
20
-69.7094
11
100.709
21
-69.797
0
LINE
8
BLACK
6
CONTINUOUS
10
100.709
20
-69.797
11
100.563
21
-69.8573
0
LINE
8
BLACK
6
CONTINUOUS
10
100.563
20
-69.8573
11
100.409
21
-69.888
0
LINE
8
BLACK
6
CONTINUOUS
10
100.409
20
-69.888
11
100.251
21
-69.888
0
LINE
8
BLACK
6
CONTINUOUS
10
100.251
20
-69.888
11
100.097
21
-69.8573
0
LINE
8
BLACK
6
CONTINUOUS
10
100.097
20
-69.8573
11
99.9511
21
-69.797
0
LINE
8
BLACK
6
CONTINUOUS
10
99.9511
20
-69.797
11
99.82
21
-69.7094
0
LINE
8
BLACK
6
CONTINUOUS
10
99.82
20
-69.7094
11
99.7086
21
-69.598
0
LINE
8
BLACK
6
CONTINUOUS
10
99.7086
20
-69.598
11
99.621
21
-69.4669
0
LINE
8
BLACK
6
CONTINUOUS
10
99.621
20
-69.4669
11
99.5607
21
-69.3214
0
LINE
8
BLACK
6
CONTINUOUS
10
99.5607
20
-69.3214
11
99.53
21
-69.1668
0
LINE
8
BLACK
6
CONTINUOUS
10
99.53
20
-69.1668
11
99.53
21
-69.0092
0
LINE
8
BLACK
6
CONTINUOUS
10
99.53
20
-69.0092
11
99.5607
21
-68.8546
0
LINE
8
BLACK
6
CONTINUOUS
10
99.5607
20
-68.8546
11
99.621
21
-68.7091
0
LINE
8
BLACK
6
CONTINUOUS
10
99.621
20
-68.7091
11
99.7086
21
-68.578
0
LINE
8
BLACK
6
CONTINUOUS
10
99.7086
20
-68.578
11
99.82
21
-68.4666
0
LINE
8
BLACK
6
CONTINUOUS
10
99.82
20
-68.4666
11
99.9511
21
-68.379
0
LINE
8
BLACK
6
CONTINUOUS
10
99.9511
20
-68.379
11
100.097
21
-68.3187
0
LINE
8
BLACK
6
CONTINUOUS
10
100.097
20
-68.3187
11
100.251
21
-68.288
0
LINE
8
BLACK
6
CONTINUOUS
10
100.251
20
-68.288
11
100.409
21
-68.288
0
LINE
8
BLACK
6
CONTINUOUS
10
100.409
20
-68.288
11
100.563
21
-68.3187
0
LINE
8
BLACK
6
CONTINUOUS
10
103.372
20
-68.1907
11
103.527
21
-68.2547
0
LINE
8
BLACK
6
CONTINUOUS
10
103.527
20
-68.2547
11
103.666
21
-68.3478
0
LINE
8
BLACK
6
CONTINUOUS
10
103.666
20
-68.3478
11
103.784
21
-68.4662
0
LINE
8
BLACK
6
CONTINUOUS
10
103.784
20
-68.4662
11
103.877
21
-68.6054
0
LINE
8
BLACK
6
CONTINUOUS
10
103.877
20
-68.6054
11
103.941
21
-68.7601
0
LINE
8
BLACK
6
CONTINUOUS
10
103.941
20
-68.7601
11
103.974
21
-68.9243
0
LINE
8
BLACK
6
CONTINUOUS
10
103.974
20
-68.9243
11
103.974
21
-69.0917
0
LINE
8
BLACK
6
CONTINUOUS
10
103.974
20
-69.0917
11
103.941
21
-69.2559
0
LINE
8
BLACK
6
CONTINUOUS
10
103.941
20
-69.2559
11
103.877
21
-69.4106
0
LINE
8
BLACK
6
CONTINUOUS
10
103.877
20
-69.4106
11
103.784
21
-69.5498
0
LINE
8
BLACK
6
CONTINUOUS
10
103.784
20
-69.5498
11
103.666
21
-69.6682
0
LINE
8
BLACK
6
CONTINUOUS
10
103.666
20
-69.6682
11
103.527
21
-69.7613
0
LINE
8
BLACK
6
CONTINUOUS
10
103.527
20
-69.7613
11
103.372
21
-69.8253
0
LINE
8
BLACK
6
CONTINUOUS
10
103.372
20
-69.8253
11
103.208
21
-69.858
0
LINE
8
BLACK
6
CONTINUOUS
10
103.208
20
-69.858
11
103.04
21
-69.858
0
LINE
8
BLACK
6
CONTINUOUS
10
103.04
20
-69.858
11
102.876
21
-69.8253
0
LINE
8
BLACK
6
CONTINUOUS
10
102.876
20
-69.8253
11
102.721
21
-69.7613
0
LINE
8
BLACK
6
CONTINUOUS
10
102.721
20
-69.7613
11
102.582
21
-69.6682
0
LINE
8
BLACK
6
CONTINUOUS
10
102.582
20
-69.6682
11
102.464
21
-69.5498
0
LINE
8
BLACK
6
CONTINUOUS
10
102.464
20
-69.5498
11
102.371
21
-69.4106
0
LINE
8
BLACK
6
CONTINUOUS
10
102.371
20
-69.4106
11
102.307
21
-69.2559
0
LINE
8
BLACK
6
CONTINUOUS
10
102.307
20
-69.2559
11
102.274
21
-69.0917
0
LINE
8
BLACK
6
CONTINUOUS
10
102.274
20
-69.0917
11
102.274
21
-68.9243
0
LINE
8
BLACK
6
CONTINUOUS
10
102.274
20
-68.9243
11
102.307
21
-68.7601
0
LINE
8
BLACK
6
CONTINUOUS
10
102.307
20
-68.7601
11
102.371
21
-68.6054
0
LINE
8
BLACK
6
CONTINUOUS
10
102.371
20
-68.6054
11
102.464
21
-68.4662
0
LINE
8
BLACK
6
CONTINUOUS
10
102.464
20
-68.4662
11
102.582
21
-68.3478
0
LINE
8
BLACK
6
CONTINUOUS
10
102.582
20
-68.3478
11
102.721
21
-68.2547
0
LINE
8
BLACK
6
CONTINUOUS
10
102.721
20
-68.2547
11
102.876
21
-68.1907
0
LINE
8
BLACK
6
CONTINUOUS
10
102.876
20
-68.1907
11
103.04
21
-68.158
0
LINE
8
BLACK
6
CONTINUOUS
10
103.04
20
-68.158
11
103.208
21
-68.158
0
LINE
8
BLACK
6
CONTINUOUS
10
103.208
20
-68.158
11
103.372
21
-68.1907
0
LINE
8
BLACK
6
CONTINUOUS
10
98.382
20
-68.918
11
96.182
21
-68.918
0
LINE
8
BLACK
6
CONTINUOUS
10
96.182
20
-68.918
11
96.182
21
-66.718
0
LINE
8
BLACK
6
CONTINUOUS
10
96.182
20
-66.718
11
98.382
21
-66.718
0
LINE
8
BLACK
6
CONTINUOUS
10
98.382
20
-66.718
11
98.382
21
-68.918
0
LINE
8
BLACK
6
CONTINUOUS
10
119.464
20
-68.918
11
117.264
21
-68.918
0
LINE
8
BLACK
6
CONTINUOUS
10
117.264
20
-68.918
11
117.264
21
-66.718
0
LINE
8
BLACK
6
CONTINUOUS
10
117.264
20
-66.718
11
119.464
21
-66.718
0
LINE
8
BLACK
6
CONTINUOUS
10
119.464
20
-66.718
11
119.464
21
-68.918
0
LINE
8
BLACK
6
CONTINUOUS
10
107.272
20
-68.664
11
105.072
21
-68.664
0
LINE
8
BLACK
6
CONTINUOUS
10
105.072
20
-68.664
11
105.072
21
-66.464
0
LINE
8
BLACK
6
CONTINUOUS
10
105.072
20
-66.464
11
107.272
21
-66.464
0
LINE
8
BLACK
6
CONTINUOUS
10
107.272
20
-66.464
11
107.272
21
-68.664
0
LINE
8
BLACK
6
CONTINUOUS
10
114.892
20
-68.664
11
112.692
21
-68.664
0
LINE
8
BLACK
6
CONTINUOUS
10
112.692
20
-68.664
11
112.692
21
-66.464
0
LINE
8
BLACK
6
CONTINUOUS
10
112.692
20
-66.464
11
114.892
21
-66.464
0
LINE
8
BLACK
6
CONTINUOUS
10
114.892
20
-66.464
11
114.892
21
-68.664
0
LINE
8
BLACK
6
CONTINUOUS
10
88.476
20
-68.41
11
86.276
21
-68.41
0
LINE
8
BLACK
6
CONTINUOUS
10
86.276
20
-68.41
11
86.276
21
-66.21
0
LINE
8
BLACK
6
CONTINUOUS
10
86.276
20
-66.21
11
88.476
21
-66.21
0
LINE
8
BLACK
6
CONTINUOUS
10
88.476
20
-66.21
11
88.476
21
-68.41
0
LINE
8
BLACK
6
CONTINUOUS
10
92.806
20
-65.6481
11
93.0244
21
-65.7386
0
LINE
8
BLACK
6
CONTINUOUS
10
93.0244
20
-65.7386
11
93.221
21
-65.8699
0
LINE
8
BLACK
6
CONTINUOUS
10
93.221
20
-65.8699
11
93.3881
21
-66.037
0
LINE
8
BLACK
6
CONTINUOUS
10
93.3881
20
-66.037
11
93.5194
21
-66.2336
0
LINE
8
BLACK
6
CONTINUOUS
10
93.5194
20
-66.2336
11
93.6099
21
-66.452
0
LINE
8
BLACK
6
CONTINUOUS
10
93.6099
20
-66.452
11
93.656
21
-66.6838
0
LINE
8
BLACK
6
CONTINUOUS
10
93.656
20
-66.6838
11
93.656
21
-66.9202
0
LINE
8
BLACK
6
CONTINUOUS
10
93.656
20
-66.9202
11
93.6099
21
-67.152
0
LINE
8
BLACK
6
CONTINUOUS
10
93.6099
20
-67.152
11
93.5194
21
-67.3704
0
LINE
8
BLACK
6
CONTINUOUS
10
93.5194
20
-67.3704
11
93.3881
21
-67.567
0
LINE
8
BLACK
6
CONTINUOUS
10
93.3881
20
-67.567
11
93.221
21
-67.7341
0
LINE
8
BLACK
6
CONTINUOUS
10
93.221
20
-67.7341
11
93.0244
21
-67.8654
0
LINE
8
BLACK
6
CONTINUOUS
10
93.0244
20
-67.8654
11
92.806
21
-67.9559
0
LINE
8
BLACK
6
CONTINUOUS
10
92.806
20
-67.9559
11
92.5742
21
-68.002
0
LINE
8
BLACK
6
CONTINUOUS
10
92.5742
20
-68.002
11
92.3378
21
-68.002
0
LINE
8
BLACK
6
CONTINUOUS
10
92.3378
20
-68.002
11
92.106
21
-67.9559
0
LINE
8
BLACK
6
CONTINUOUS
10
92.106
20
-67.9559
11
91.8876
21
-67.8654
0
LINE
8
BLACK
6
CONTINUOUS
10
91.8876
20
-67.8654
11
91.691
21
-67.7341
0
LINE
8
BLACK
6
CONTINUOUS
10
91.691
20
-67.7341
11
91.5239
21
-67.567
0
LINE
8
BLACK
6
CONTINUOUS
10
91.5239
20
-67.567
11
91.3926
21
-67.3704
0
LINE
8
BLACK
6
CONTINUOUS
10
91.3926
20
-67.3704
11
91.3021
21
-67.152
0
LINE
8
BLACK
6
CONTINUOUS
10
91.3021
20
-67.152
11
91.256
21
-66.9202
0
LINE
8
BLACK
6
CONTINUOUS
10
91.256
20
-66.9202
11
91.256
21
-66.6838
0
LINE
8
BLACK
6
CONTINUOUS
10
91.256
20
-66.6838
11
91.3021
21
-66.452
0
LINE
8
BLACK
6
CONTINUOUS
10
91.3021
20
-66.452
11
91.3926
21
-66.2336
0
LINE
8
BLACK
6
CONTINUOUS
10
91.3926
20
-66.2336
11
91.5239
21
-66.037
0
LINE
8
BLACK
6
CONTINUOUS
10
91.5239
20
-66.037
11
91.691
21
-65.8699
0
LINE
8
BLACK
6
CONTINUOUS
10
91.691
20
-65.8699
11
91.8876
21
-65.7386
0
LINE
8
BLACK
6
CONTINUOUS
10
91.8876
20
-65.7386
11
92.106
21
-65.6481
0
LINE
8
BLACK
6
CONTINUOUS
10
92.106
20
-65.6481
11
92.3378
21
-65.602
0
LINE
8
BLACK
6
CONTINUOUS
10
92.3378
20
-65.602
11
92.5742
21
-65.602
0
LINE
8
BLACK
6
CONTINUOUS
10
92.5742
20
-65.602
11
92.806
21
-65.6481
0
LINE
8
BLACK
6
CONTINUOUS
10
71.204
20
-67.902
11
69.004
21
-67.902
0
LINE
8
BLACK
6
CONTINUOUS
10
69.004
20
-67.902
11
69.004
21
-65.702
0
LINE
8
BLACK
6
CONTINUOUS
10
69.004
20
-65.702
11
71.204
21
-65.702
0
LINE
8
BLACK
6
CONTINUOUS
10
71.204
20
-65.702
11
71.204
21
-67.902
0
LINE
8
BLACK
6
CONTINUOUS
10
44.28
20
-67.902
11
42.08
21
-67.902
0
LINE
8
BLACK
6
CONTINUOUS
10
42.08
20
-67.902
11
42.08
21
-65.702
0
LINE
8
BLACK
6
CONTINUOUS
10
42.08
20
-65.702
11
44.28
21
-65.702
0
LINE
8
BLACK
6
CONTINUOUS
10
44.28
20
-65.702
11
44.28
21
-67.902
0
LINE
8
BLACK
6
CONTINUOUS
10
65.616
20
-67.648
11
63.416
21
-67.648
0
LINE
8
BLACK
6
CONTINUOUS
10
63.416
20
-67.648
11
63.416
21
-65.448
0
LINE
8
BLACK
6
CONTINUOUS
10
63.416
20
-65.448
11
65.616
21
-65.448
0
LINE
8
BLACK
6
CONTINUOUS
10
65.616
20
-65.448
11
65.616
21
-67.648
0
LINE
8
BLACK
6
CONTINUOUS
10
52.408
20
-67.648
11
50.208
21
-67.648
0
LINE
8
BLACK
6
CONTINUOUS
10
50.208
20
-67.648
11
50.208
21
-65.448
0
LINE
8
BLACK
6
CONTINUOUS
10
50.208
20
-65.448
11
52.408
21
-65.448
0
LINE
8
BLACK
6
CONTINUOUS
10
52.408
20
-65.448
11
52.408
21
-67.648
0
LINE
8
BLACK
6
CONTINUOUS
10
100.563
20
-65.7787
11
100.709
21
-65.839
0
LINE
8
BLACK
6
CONTINUOUS
10
100.709
20
-65.839
11
100.84
21
-65.9266
0
LINE
8
BLACK
6
CONTINUOUS
10
100.84
20
-65.9266
11
100.951
21
-66.038
0
LINE
8
BLACK
6
CONTINUOUS
10
100.951
20
-66.038
11
101.039
21
-66.1691
0
LINE
8
BLACK
6
CONTINUOUS
10
101.039
20
-66.1691
11
101.099
21
-66.3146
0
LINE
8
BLACK
6
CONTINUOUS
10
101.099
20
-66.3146
11
101.13
21
-66.4692
0
LINE
8
BLACK
6
CONTINUOUS
10
101.13
20
-66.4692
11
101.13
21
-66.6268
0
LINE
8
BLACK
6
CONTINUOUS
10
101.13
20
-66.6268
11
101.099
21
-66.7814
0
LINE
8
BLACK
6
CONTINUOUS
10
101.099
20
-66.7814
11
101.039
21
-66.9269
0
LINE
8
BLACK
6
CONTINUOUS
10
101.039
20
-66.9269
11
100.951
21
-67.058
0
LINE
8
BLACK
6
CONTINUOUS
10
100.951
20
-67.058
11
100.84
21
-67.1694
0
LINE
8
BLACK
6
CONTINUOUS
10
100.84
20
-67.1694
11
100.709
21
-67.257
0
LINE
8
BLACK
6
CONTINUOUS
10
100.709
20
-67.257
11
100.563
21
-67.3173
0
LINE
8
BLACK
6
CONTINUOUS
10
100.563
20
-67.3173
11
100.409
21
-67.348
0
LINE
8
BLACK
6
CONTINUOUS
10
100.409
20
-67.348
11
100.251
21
-67.348
0
LINE
8
BLACK
6
CONTINUOUS
10
100.251
20
-67.348
11
100.097
21
-67.3173
0
LINE
8
BLACK
6
CONTINUOUS
10
100.097
20
-67.3173
11
99.9511
21
-67.257
0
LINE
8
BLACK
6
CONTINUOUS
10
99.9511
20
-67.257
11
99.82
21
-67.1694
0
LINE
8
BLACK
6
CONTINUOUS
10
99.82
20
-67.1694
11
99.7086
21
-67.058
0
LINE
8
BLACK
6
CONTINUOUS
10
99.7086
20
-67.058
11
99.621
21
-66.9269
0
LINE
8
BLACK
6
CONTINUOUS
10
99.621
20
-66.9269
11
99.5607
21
-66.7814
0
LINE
8
BLACK
6
CONTINUOUS
10
99.5607
20
-66.7814
11
99.53
21
-66.6268
0
LINE
8
BLACK
6
CONTINUOUS
10
99.53
20
-66.6268
11
99.53
21
-66.4692
0
LINE
8
BLACK
6
CONTINUOUS
10
99.53
20
-66.4692
11
99.5607
21
-66.3146
0
LINE
8
BLACK
6
CONTINUOUS
10
99.5607
20
-66.3146
11
99.621
21
-66.1691
0
LINE
8
BLACK
6
CONTINUOUS
10
99.621
20
-66.1691
11
99.7086
21
-66.038
0
LINE
8
BLACK
6
CONTINUOUS
10
99.7086
20
-66.038
11
99.82
21
-65.9266
0
LINE
8
BLACK
6
CONTINUOUS
10
99.82
20
-65.9266
11
99.9511
21
-65.839
0
LINE
8
BLACK
6
CONTINUOUS
10
99.9511
20
-65.839
11
100.097
21
-65.7787
0
LINE
8
BLACK
6
CONTINUOUS
10
100.097
20
-65.7787
11
100.251
21
-65.748
0
LINE
8
BLACK
6
CONTINUOUS
10
100.251
20
-65.748
11
100.409
21
-65.748
0
LINE
8
BLACK
6
CONTINUOUS
10
100.409
20
-65.748
11
100.563
21
-65.7787
0
LINE
8
BLACK
6
CONTINUOUS
10
119.464
20
-66.378
11
117.264
21
-66.378
0
LINE
8
BLACK
6
CONTINUOUS
10
117.264
20
-66.378
11
117.264
21
-64.178
0
LINE
8
BLACK
6
CONTINUOUS
10
117.264
20
-64.178
11
119.464
21
-64.178
0
LINE
8
BLACK
6
CONTINUOUS
10
119.464
20
-64.178
11
119.464
21
-66.378
0
LINE
8
BLACK
6
CONTINUOUS
10
110.274
20
-56.9504
11
110.456
21
-57.0258
0
LINE
8
BLACK
6
CONTINUOUS
10
110.456
20
-57.0258
11
110.619
21
-57.1352
0
LINE
8
BLACK
6
CONTINUOUS
10
110.619
20
-57.1352
11
110.759
21
-57.2745
0
LINE
8
BLACK
6
CONTINUOUS
10
110.759
20
-57.2745
11
110.868
21
-57.4383
0
LINE
8
BLACK
6
CONTINUOUS
10
110.868
20
-57.4383
11
110.944
21
-57.6203
0
LINE
8
BLACK
6
CONTINUOUS
10
110.944
20
-57.6203
11
110.982
21
-57.8135
0
LINE
8
BLACK
6
CONTINUOUS
10
110.982
20
-57.8135
11
110.982
21
-58.0105
0
LINE
8
BLACK
6
CONTINUOUS
10
110.982
20
-58.0105
11
110.944
21
-58.2037
0
LINE
8
BLACK
6
CONTINUOUS
10
110.944
20
-58.2037
11
110.868
21
-58.3857
0
LINE
8
BLACK
6
CONTINUOUS
10
110.868
20
-58.3857
11
110.759
21
-58.5495
0
LINE
8
BLACK
6
CONTINUOUS
10
110.759
20
-58.5495
11
110.619
21
-58.6888
0
LINE
8
BLACK
6
CONTINUOUS
10
110.619
20
-58.6888
11
110.482
21
-58.7806
0
LINE
8
BLACK
6
CONTINUOUS
10
110.482
20
-58.7806
11
110.482
21
-64.4735
0
LINE
8
BLACK
6
CONTINUOUS
10
110.482
20
-64.4735
11
110.523
21
-64.5012
0
LINE
8
BLACK
6
CONTINUOUS
10
110.523
20
-64.5012
11
110.663
21
-64.6405
0
LINE
8
BLACK
6
CONTINUOUS
10
110.663
20
-64.6405
11
110.772
21
-64.8043
0
LINE
8
BLACK
6
CONTINUOUS
10
110.772
20
-64.8043
11
110.848
21
-64.9863
0
LINE
8
BLACK
6
CONTINUOUS
10
110.848
20
-64.9863
11
110.886
21
-65.1795
0
LINE
8
BLACK
6
CONTINUOUS
10
110.886
20
-65.1795
11
110.886
21
-65.3765
0
LINE
8
BLACK
6
CONTINUOUS
10
110.886
20
-65.3765
11
110.848
21
-65.5697
0
LINE
8
BLACK
6
CONTINUOUS
10
110.848
20
-65.5697
11
110.772
21
-65.7517
0
LINE
8
BLACK
6
CONTINUOUS
10
110.772
20
-65.7517
11
110.663
21
-65.9155
0
LINE
8
BLACK
6
CONTINUOUS
10
110.663
20
-65.9155
11
110.523
21
-66.0548
0
LINE
8
BLACK
6
CONTINUOUS
10
110.523
20
-66.0548
11
110.36
21
-66.1642
0
LINE
8
BLACK
6
CONTINUOUS
10
110.36
20
-66.1642
11
110.178
21
-66.2396
0
LINE
8
BLACK
6
CONTINUOUS
10
110.178
20
-66.2396
11
109.984
21
-66.278
0
LINE
8
BLACK
6
CONTINUOUS
10
109.984
20
-66.278
11
109.788
21
-66.278
0
LINE
8
BLACK
6
CONTINUOUS
10
109.788
20
-66.278
11
109.594
21
-66.2396
0
LINE
8
BLACK
6
CONTINUOUS
10
109.594
20
-66.2396
11
109.412
21
-66.1642
0
LINE
8
BLACK
6
CONTINUOUS
10
109.412
20
-66.1642
11
109.249
21
-66.0548
0
LINE
8
BLACK
6
CONTINUOUS
10
109.249
20
-66.0548
11
109.109
21
-65.9155
0
LINE
8
BLACK
6
CONTINUOUS
10
109.109
20
-65.9155
11
109
21
-65.7517
0
LINE
8
BLACK
6
CONTINUOUS
10
109
20
-65.7517
11
108.924
21
-65.5697
0
LINE
8
BLACK
6
CONTINUOUS
10
108.924
20
-65.5697
11
108.886
21
-65.3765
0
LINE
8
BLACK
6
CONTINUOUS
10
108.886
20
-65.3765
11
108.886
21
-65.1795
0
LINE
8
BLACK
6
CONTINUOUS
10
108.886
20
-65.1795
11
108.924
21
-64.9863
0
LINE
8
BLACK
6
CONTINUOUS
10
108.924
20
-64.9863
11
109
21
-64.8043
0
LINE
8
BLACK
6
CONTINUOUS
10
109
20
-64.8043
11
109.109
21
-64.6405
0
LINE
8
BLACK
6
CONTINUOUS
10
109.109
20
-64.6405
11
109.249
21
-64.5012
0
LINE
8
BLACK
6
CONTINUOUS
10
109.249
20
-64.5012
11
109.412
21
-64.3918
0
LINE
8
BLACK
6
CONTINUOUS
10
109.412
20
-64.3918
11
109.482
21
-64.3629
0
LINE
8
BLACK
6
CONTINUOUS
10
109.482
20
-64.3629
11
109.482
21
-58.7806
0
LINE
8
BLACK
6
CONTINUOUS
10
109.482
20
-58.7806
11
109.345
21
-58.6888
0
LINE
8
BLACK
6
CONTINUOUS
10
109.345
20
-58.6888
11
109.205
21
-58.5495
0
LINE
8
BLACK
6
CONTINUOUS
10
109.205
20
-58.5495
11
109.096
21
-58.3857
0
LINE
8
BLACK
6
CONTINUOUS
10
109.096
20
-58.3857
11
109.02
21
-58.2037
0
LINE
8
BLACK
6
CONTINUOUS
10
109.02
20
-58.2037
11
108.982
21
-58.0105
0
LINE
8
BLACK
6
CONTINUOUS
10
108.982
20
-58.0105
11
108.982
21
-57.8135
0
LINE
8
BLACK
6
CONTINUOUS
10
108.982
20
-57.8135
11
109.02
21
-57.6203
0
LINE
8
BLACK
6
CONTINUOUS
10
109.02
20
-57.6203
11
109.096
21
-57.4383
0
LINE
8
BLACK
6
CONTINUOUS
10
109.096
20
-57.4383
11
109.205
21
-57.2745
0
LINE
8
BLACK
6
CONTINUOUS
10
109.205
20
-57.2745
11
109.345
21
-57.1352
0
LINE
8
BLACK
6
CONTINUOUS
10
109.345
20
-57.1352
11
109.508
21
-57.0258
0
LINE
8
BLACK
6
CONTINUOUS
10
109.508
20
-57.0258
11
109.69
21
-56.9504
0
LINE
8
BLACK
6
CONTINUOUS
10
109.69
20
-56.9504
11
109.884
21
-56.912
0
LINE
8
BLACK
6
CONTINUOUS
10
109.884
20
-56.912
11
110.08
21
-56.912
0
LINE
8
BLACK
6
CONTINUOUS
10
110.08
20
-56.912
11
110.274
21
-56.9504
0
LINE
8
BLACK
6
CONTINUOUS
10
114.892
20
-66.124
11
112.692
21
-66.124
0
LINE
8
BLACK
6
CONTINUOUS
10
112.692
20
-66.124
11
112.692
21
-63.924
0
LINE
8
BLACK
6
CONTINUOUS
10
112.692
20
-63.924
11
114.892
21
-63.924
0
LINE
8
BLACK
6
CONTINUOUS
10
114.892
20
-63.924
11
114.892
21
-66.124
0
LINE
8
BLACK
6
CONTINUOUS
10
107.272
20
-66.124
11
105.072
21
-66.124
0
LINE
8
BLACK
6
CONTINUOUS
10
105.072
20
-66.124
11
105.072
21
-63.924
0
LINE
8
BLACK
6
CONTINUOUS
10
105.072
20
-63.924
11
107.272
21
-63.924
0
LINE
8
BLACK
6
CONTINUOUS
10
107.272
20
-63.924
11
107.272
21
-66.124
0
LINE
8
BLACK
6
CONTINUOUS
10
44.28
20
-65.362
11
42.08
21
-65.362
0
LINE
8
BLACK
6
CONTINUOUS
10
42.08
20
-65.362
11
42.08
21
-63.162
0
LINE
8
BLACK
6
CONTINUOUS
10
42.08
20
-63.162
11
44.28
21
-63.162
0
LINE
8
BLACK
6
CONTINUOUS
10
44.28
20
-63.162
11
44.28
21
-65.362
0
LINE
8
BLACK
6
CONTINUOUS
10
80.2452
20
-62.8254
11
80.4714
21
-62.894
0
LINE
8
BLACK
6
CONTINUOUS
10
80.4714
20
-62.894
11
80.6799
21
-63.0054
0
LINE
8
BLACK
6
CONTINUOUS
10
80.6799
20
-63.0054
11
80.8626
21
-63.1554
0
LINE
8
BLACK
6
CONTINUOUS
10
80.8626
20
-63.1554
11
81.0126
21
-63.3381
0
LINE
8
BLACK
6
CONTINUOUS
10
81.0126
20
-63.3381
11
81.124
21
-63.5466
0
LINE
8
BLACK
6
CONTINUOUS
10
81.124
20
-63.5466
11
81.1926
21
-63.7728
0
LINE
8
BLACK
6
CONTINUOUS
10
81.1926
20
-63.7728
11
81.2158
21
-64.008
0
LINE
8
BLACK
6
CONTINUOUS
10
81.2158
20
-64.008
11
81.1926
21
-64.2432
0
LINE
8
BLACK
6
CONTINUOUS
10
81.1926
20
-64.2432
11
81.124
21
-64.4694
0
LINE
8
BLACK
6
CONTINUOUS
10
81.124
20
-64.4694
11
81.0126
21
-64.6779
0
LINE
8
BLACK
6
CONTINUOUS
10
81.0126
20
-64.6779
11
80.8626
21
-64.8606
0
LINE
8
BLACK
6
CONTINUOUS
10
80.8626
20
-64.8606
11
80.6799
21
-65.0106
0
LINE
8
BLACK
6
CONTINUOUS
10
80.6799
20
-65.0106
11
80.4714
21
-65.122
0
LINE
8
BLACK
6
CONTINUOUS
10
80.4714
20
-65.122
11
80.2452
21
-65.1906
0
LINE
8
BLACK
6
CONTINUOUS
10
80.2452
20
-65.1906
11
80.069
21
-65.208
0
LINE
8
BLACK
6
CONTINUOUS
10
80.069
20
-65.208
11
79.951
21
-65.208
0
LINE
8
BLACK
6
CONTINUOUS
10
79.951
20
-65.208
11
79.7748
21
-65.1906
0
LINE
8
BLACK
6
CONTINUOUS
10
79.7748
20
-65.1906
11
79.5486
21
-65.122
0
LINE
8
BLACK
6
CONTINUOUS
10
79.5486
20
-65.122
11
79.3401
21
-65.0106
0
LINE
8
BLACK
6
CONTINUOUS
10
79.3401
20
-65.0106
11
79.1574
21
-64.8606
0
LINE
8
BLACK
6
CONTINUOUS
10
79.1574
20
-64.8606
11
79.0074
21
-64.6779
0
LINE
8
BLACK
6
CONTINUOUS
10
79.0074
20
-64.6779
11
78.896
21
-64.4694
0
LINE
8
BLACK
6
CONTINUOUS
10
78.896
20
-64.4694
11
78.8274
21
-64.2432
0
LINE
8
BLACK
6
CONTINUOUS
10
78.8274
20
-64.2432
11
78.8042
21
-64.008
0
LINE
8
BLACK
6
CONTINUOUS
10
78.8042
20
-64.008
11
78.8274
21
-63.7728
0
LINE
8
BLACK
6
CONTINUOUS
10
78.8274
20
-63.7728
11
78.896
21
-63.5466
0
LINE
8
BLACK
6
CONTINUOUS
10
78.896
20
-63.5466
11
79.0074
21
-63.3381
0
LINE
8
BLACK
6
CONTINUOUS
10
79.0074
20
-63.3381
11
79.1574
21
-63.1554
0
LINE
8
BLACK
6
CONTINUOUS
10
79.1574
20
-63.1554
11
79.3401
21
-63.0054
0
LINE
8
BLACK
6
CONTINUOUS
10
79.3401
20
-63.0054
11
79.5486
21
-62.894
0
LINE
8
BLACK
6
CONTINUOUS
10
79.5486
20
-62.894
11
79.7748
21
-62.8254
0
LINE
8
BLACK
6
CONTINUOUS
10
79.7748
20
-62.8254
11
79.951
21
-62.808
0
LINE
8
BLACK
6
CONTINUOUS
10
79.951
20
-62.808
11
80.069
21
-62.808
0
LINE
8
BLACK
6
CONTINUOUS
10
80.069
20
-62.808
11
80.2452
21
-62.8254
0
LINE
8
BLACK
6
CONTINUOUS
10
65.616
20
-65.108
11
63.416
21
-65.108
0
LINE
8
BLACK
6
CONTINUOUS
10
63.416
20
-65.108
11
63.416
21
-62.908
0
LINE
8
BLACK
6
CONTINUOUS
10
63.416
20
-62.908
11
65.616
21
-62.908
0
LINE
8
BLACK
6
CONTINUOUS
10
65.616
20
-62.908
11
65.616
21
-65.108
0
LINE
8
BLACK
6
CONTINUOUS
10
52.408
20
-65.108
11
50.208
21
-65.108
0
LINE
8
BLACK
6
CONTINUOUS
10
50.208
20
-65.108
11
50.208
21
-62.908
0
LINE
8
BLACK
6
CONTINUOUS
10
50.208
20
-62.908
11
52.408
21
-62.908
0
LINE
8
BLACK
6
CONTINUOUS
10
52.408
20
-62.908
11
52.408
21
-65.108
0
LINE
8
BLACK
6
CONTINUOUS
10
92.806
20
-62.6001
11
93.0244
21
-62.6906
0
LINE
8
BLACK
6
CONTINUOUS
10
93.0244
20
-62.6906
11
93.221
21
-62.8219
0
LINE
8
BLACK
6
CONTINUOUS
10
93.221
20
-62.8219
11
93.3881
21
-62.989
0
LINE
8
BLACK
6
CONTINUOUS
10
93.3881
20
-62.989
11
93.5194
21
-63.1856
0
LINE
8
BLACK
6
CONTINUOUS
10
93.5194
20
-63.1856
11
93.6099
21
-63.404
0
LINE
8
BLACK
6
CONTINUOUS
10
93.6099
20
-63.404
11
93.656
21
-63.6358
0
LINE
8
BLACK
6
CONTINUOUS
10
93.656
20
-63.6358
11
93.656
21
-63.8722
0
LINE
8
BLACK
6
CONTINUOUS
10
93.656
20
-63.8722
11
93.6099
21
-64.104
0
LINE
8
BLACK
6
CONTINUOUS
10
93.6099
20
-64.104
11
93.5194
21
-64.3224
0
LINE
8
BLACK
6
CONTINUOUS
10
93.5194
20
-64.3224
11
93.3881
21
-64.519
0
LINE
8
BLACK
6
CONTINUOUS
10
93.3881
20
-64.519
11
93.221
21
-64.6861
0
LINE
8
BLACK
6
CONTINUOUS
10
93.221
20
-64.6861
11
93.0244
21
-64.8174
0
LINE
8
BLACK
6
CONTINUOUS
10
93.0244
20
-64.8174
11
92.806
21
-64.9079
0
LINE
8
BLACK
6
CONTINUOUS
10
92.806
20
-64.9079
11
92.5742
21
-64.954
0
LINE
8
BLACK
6
CONTINUOUS
10
92.5742
20
-64.954
11
92.3378
21
-64.954
0
LINE
8
BLACK
6
CONTINUOUS
10
92.3378
20
-64.954
11
92.106
21
-64.9079
0
LINE
8
BLACK
6
CONTINUOUS
10
92.106
20
-64.9079
11
91.8876
21
-64.8174
0
LINE
8
BLACK
6
CONTINUOUS
10
91.8876
20
-64.8174
11
91.691
21
-64.6861
0
LINE
8
BLACK
6
CONTINUOUS
10
91.691
20
-64.6861
11
91.5239
21
-64.519
0
LINE
8
BLACK
6
CONTINUOUS
10
91.5239
20
-64.519
11
91.3926
21
-64.3224
0
LINE
8
BLACK
6
CONTINUOUS
10
91.3926
20
-64.3224
11
91.3021
21
-64.104
0
LINE
8
BLACK
6
CONTINUOUS
10
91.3021
20
-64.104
11
91.256
21
-63.8722
0
LINE
8
BLACK
6
CONTINUOUS
10
91.256
20
-63.8722
11
91.256
21
-63.6358
0
LINE
8
BLACK
6
CONTINUOUS
10
91.256
20
-63.6358
11
91.3021
21
-63.404
0
LINE
8
BLACK
6
CONTINUOUS
10
91.3021
20
-63.404
11
91.3926
21
-63.1856
0
LINE
8
BLACK
6
CONTINUOUS
10
91.3926
20
-63.1856
11
91.5239
21
-62.989
0
LINE
8
BLACK
6
CONTINUOUS
10
91.5239
20
-62.989
11
91.691
21
-62.8219
0
LINE
8
BLACK
6
CONTINUOUS
10
91.691
20
-62.8219
11
91.8876
21
-62.6906
0
LINE
8
BLACK
6
CONTINUOUS
10
91.8876
20
-62.6906
11
92.106
21
-62.6001
0
LINE
8
BLACK
6
CONTINUOUS
10
92.106
20
-62.6001
11
92.3378
21
-62.554
0
LINE
8
BLACK
6
CONTINUOUS
10
92.3378
20
-62.554
11
92.5742
21
-62.554
0
LINE
8
BLACK
6
CONTINUOUS
10
92.5742
20
-62.554
11
92.806
21
-62.6001
0
LINE
8
BLACK
6
CONTINUOUS
10
103.372
20
-63.1907
11
103.527
21
-63.2547
0
LINE
8
BLACK
6
CONTINUOUS
10
103.527
20
-63.2547
11
103.666
21
-63.3478
0
LINE
8
BLACK
6
CONTINUOUS
10
103.666
20
-63.3478
11
103.784
21
-63.4662
0
LINE
8
BLACK
6
CONTINUOUS
10
103.784
20
-63.4662
11
103.877
21
-63.6054
0
LINE
8
BLACK
6
CONTINUOUS
10
103.877
20
-63.6054
11
103.941
21
-63.7601
0
LINE
8
BLACK
6
CONTINUOUS
10
103.941
20
-63.7601
11
103.974
21
-63.9243
0
LINE
8
BLACK
6
CONTINUOUS
10
103.974
20
-63.9243
11
103.974
21
-64.0917
0
LINE
8
BLACK
6
CONTINUOUS
10
103.974
20
-64.0917
11
103.941
21
-64.2559
0
LINE
8
BLACK
6
CONTINUOUS
10
103.941
20
-64.2559
11
103.877
21
-64.4106
0
LINE
8
BLACK
6
CONTINUOUS
10
103.877
20
-64.4106
11
103.784
21
-64.5498
0
LINE
8
BLACK
6
CONTINUOUS
10
103.784
20
-64.5498
11
103.666
21
-64.6682
0
LINE
8
BLACK
6
CONTINUOUS
10
103.666
20
-64.6682
11
103.527
21
-64.7613
0
LINE
8
BLACK
6
CONTINUOUS
10
103.527
20
-64.7613
11
103.372
21
-64.8253
0
LINE
8
BLACK
6
CONTINUOUS
10
103.372
20
-64.8253
11
103.208
21
-64.858
0
LINE
8
BLACK
6
CONTINUOUS
10
103.208
20
-64.858
11
103.04
21
-64.858
0
LINE
8
BLACK
6
CONTINUOUS
10
103.04
20
-64.858
11
102.876
21
-64.8253
0
LINE
8
BLACK
6
CONTINUOUS
10
102.876
20
-64.8253
11
102.721
21
-64.7613
0
LINE
8
BLACK
6
CONTINUOUS
10
102.721
20
-64.7613
11
102.582
21
-64.6682
0
LINE
8
BLACK
6
CONTINUOUS
10
102.582
20
-64.6682
11
102.464
21
-64.5498
0
LINE
8
BLACK
6
CONTINUOUS
10
102.464
20
-64.5498
11
102.371
21
-64.4106
0
LINE
8
BLACK
6
CONTINUOUS
10
102.371
20
-64.4106
11
102.307
21
-64.2559
0
LINE
8
BLACK
6
CONTINUOUS
10
102.307
20
-64.2559
11
102.274
21
-64.0917
0
LINE
8
BLACK
6
CONTINUOUS
10
102.274
20
-64.0917
11
102.274
21
-63.9243
0
LINE
8
BLACK
6
CONTINUOUS
10
102.274
20
-63.9243
11
102.307
21
-63.7601
0
LINE
8
BLACK
6
CONTINUOUS
10
102.307
20
-63.7601
11
102.371
21
-63.6054
0
LINE
8
BLACK
6
CONTINUOUS
10
102.371
20
-63.6054
11
102.464
21
-63.4662
0
LINE
8
BLACK
6
CONTINUOUS
10
102.464
20
-63.4662
11
102.582
21
-63.3478
0
LINE
8
BLACK
6
CONTINUOUS
10
102.582
20
-63.3478
11
102.721
21
-63.2547
0
LINE
8
BLACK
6
CONTINUOUS
10
102.721
20
-63.2547
11
102.876
21
-63.1907
0
LINE
8
BLACK
6
CONTINUOUS
10
102.876
20
-63.1907
11
103.04
21
-63.158
0
LINE
8
BLACK
6
CONTINUOUS
10
103.04
20
-63.158
11
103.208
21
-63.158
0
LINE
8
BLACK
6
CONTINUOUS
10
103.208
20
-63.158
11
103.372
21
-63.1907
0
LINE
8
BLACK
6
CONTINUOUS
10
100.563
20
-63.2787
11
100.709
21
-63.339
0
LINE
8
BLACK
6
CONTINUOUS
10
100.709
20
-63.339
11
100.84
21
-63.4266
0
LINE
8
BLACK
6
CONTINUOUS
10
100.84
20
-63.4266
11
100.951
21
-63.538
0
LINE
8
BLACK
6
CONTINUOUS
10
100.951
20
-63.538
11
101.039
21
-63.6691
0
LINE
8
BLACK
6
CONTINUOUS
10
101.039
20
-63.6691
11
101.099
21
-63.8146
0
LINE
8
BLACK
6
CONTINUOUS
10
101.099
20
-63.8146
11
101.13
21
-63.9692
0
LINE
8
BLACK
6
CONTINUOUS
10
101.13
20
-63.9692
11
101.13
21
-64.1268
0
LINE
8
BLACK
6
CONTINUOUS
10
101.13
20
-64.1268
11
101.099
21
-64.2814
0
LINE
8
BLACK
6
CONTINUOUS
10
101.099
20
-64.2814
11
101.039
21
-64.4269
0
LINE
8
BLACK
6
CONTINUOUS
10
101.039
20
-64.4269
11
100.951
21
-64.558
0
LINE
8
BLACK
6
CONTINUOUS
10
100.951
20
-64.558
11
100.84
21
-64.6694
0
LINE
8
BLACK
6
CONTINUOUS
10
100.84
20
-64.6694
11
100.709
21
-64.757
0
LINE
8
BLACK
6
CONTINUOUS
10
100.709
20
-64.757
11
100.563
21
-64.8173
0
LINE
8
BLACK
6
CONTINUOUS
10
100.563
20
-64.8173
11
100.409
21
-64.848
0
LINE
8
BLACK
6
CONTINUOUS
10
100.409
20
-64.848
11
100.251
21
-64.848
0
LINE
8
BLACK
6
CONTINUOUS
10
100.251
20
-64.848
11
100.097
21
-64.8173
0
LINE
8
BLACK
6
CONTINUOUS
10
100.097
20
-64.8173
11
99.9511
21
-64.757
0
LINE
8
BLACK
6
CONTINUOUS
10
99.9511
20
-64.757
11
99.82
21
-64.6694
0
LINE
8
BLACK
6
CONTINUOUS
10
99.82
20
-64.6694
11
99.7086
21
-64.558
0
LINE
8
BLACK
6
CONTINUOUS
10
99.7086
20
-64.558
11
99.621
21
-64.4269
0
LINE
8
BLACK
6
CONTINUOUS
10
99.621
20
-64.4269
11
99.5607
21
-64.2814
0
LINE
8
BLACK
6
CONTINUOUS
10
99.5607
20
-64.2814
11
99.53
21
-64.1268
0
LINE
8
BLACK
6
CONTINUOUS
10
99.53
20
-64.1268
11
99.53
21
-63.9692
0
LINE
8
BLACK
6
CONTINUOUS
10
99.53
20
-63.9692
11
99.5607
21
-63.8146
0
LINE
8
BLACK
6
CONTINUOUS
10
99.5607
20
-63.8146
11
99.621
21
-63.6691
0
LINE
8
BLACK
6
CONTINUOUS
10
99.621
20
-63.6691
11
99.7086
21
-63.538
0
LINE
8
BLACK
6
CONTINUOUS
10
99.7086
20
-63.538
11
99.82
21
-63.4266
0
LINE
8
BLACK
6
CONTINUOUS
10
99.82
20
-63.4266
11
99.9511
21
-63.339
0
LINE
8
BLACK
6
CONTINUOUS
10
99.9511
20
-63.339
11
100.097
21
-63.2787
0
LINE
8
BLACK
6
CONTINUOUS
10
100.097
20
-63.2787
11
100.251
21
-63.248
0
LINE
8
BLACK
6
CONTINUOUS
10
100.251
20
-63.248
11
100.409
21
-63.248
0
LINE
8
BLACK
6
CONTINUOUS
10
100.409
20
-63.248
11
100.563
21
-63.2787
0
LINE
8
BLACK
6
CONTINUOUS
10
74.9112
20
-61.8094
11
75.1374
21
-61.878
0
LINE
8
BLACK
6
CONTINUOUS
10
75.1374
20
-61.878
11
75.3459
21
-61.9894
0
LINE
8
BLACK
6
CONTINUOUS
10
75.3459
20
-61.9894
11
75.5286
21
-62.1394
0
LINE
8
BLACK
6
CONTINUOUS
10
75.5286
20
-62.1394
11
75.6786
21
-62.3221
0
LINE
8
BLACK
6
CONTINUOUS
10
75.6786
20
-62.3221
11
75.79
21
-62.5306
0
LINE
8
BLACK
6
CONTINUOUS
10
75.79
20
-62.5306
11
75.8586
21
-62.7568
0
LINE
8
BLACK
6
CONTINUOUS
10
75.8586
20
-62.7568
11
75.8818
21
-62.992
0
LINE
8
BLACK
6
CONTINUOUS
10
75.8818
20
-62.992
11
75.8586
21
-63.2272
0
LINE
8
BLACK
6
CONTINUOUS
10
75.8586
20
-63.2272
11
75.79
21
-63.4534
0
LINE
8
BLACK
6
CONTINUOUS
10
75.79
20
-63.4534
11
75.6786
21
-63.6619
0
LINE
8
BLACK
6
CONTINUOUS
10
75.6786
20
-63.6619
11
75.5286
21
-63.8446
0
LINE
8
BLACK
6
CONTINUOUS
10
75.5286
20
-63.8446
11
75.3459
21
-63.9946
0
LINE
8
BLACK
6
CONTINUOUS
10
75.3459
20
-63.9946
11
75.1374
21
-64.106
0
LINE
8
BLACK
6
CONTINUOUS
10
75.1374
20
-64.106
11
74.9112
21
-64.1746
0
LINE
8
BLACK
6
CONTINUOUS
10
74.9112
20
-64.1746
11
74.7349
21
-64.192
0
LINE
8
BLACK
6
CONTINUOUS
10
74.7349
20
-64.192
11
74.617
21
-64.192
0
LINE
8
BLACK
6
CONTINUOUS
10
74.617
20
-64.192
11
74.4408
21
-64.1746
0
LINE
8
BLACK
6
CONTINUOUS
10
74.4408
20
-64.1746
11
74.2146
21
-64.106
0
LINE
8
BLACK
6
CONTINUOUS
10
74.2146
20
-64.106
11
74.0061
21
-63.9946
0
LINE
8
BLACK
6
CONTINUOUS
10
74.0061
20
-63.9946
11
73.8234
21
-63.8446
0
LINE
8
BLACK
6
CONTINUOUS
10
73.8234
20
-63.8446
11
73.6734
21
-63.6619
0
LINE
8
BLACK
6
CONTINUOUS
10
73.6734
20
-63.6619
11
73.562
21
-63.4534
0
LINE
8
BLACK
6
CONTINUOUS
10
73.562
20
-63.4534
11
73.4934
21
-63.2272
0
LINE
8
BLACK
6
CONTINUOUS
10
73.4934
20
-63.2272
11
73.4702
21
-62.992
0
LINE
8
BLACK
6
CONTINUOUS
10
73.4702
20
-62.992
11
73.4934
21
-62.7568
0
LINE
8
BLACK
6
CONTINUOUS
10
73.4934
20
-62.7568
11
73.562
21
-62.5306
0
LINE
8
BLACK
6
CONTINUOUS
10
73.562
20
-62.5306
11
73.6734
21
-62.3221
0
LINE
8
BLACK
6
CONTINUOUS
10
73.6734
20
-62.3221
11
73.8234
21
-62.1394
0
LINE
8
BLACK
6
CONTINUOUS
10
73.8234
20
-62.1394
11
74.0061
21
-61.9894
0
LINE
8
BLACK
6
CONTINUOUS
10
74.0061
20
-61.9894
11
74.2146
21
-61.878
0
LINE
8
BLACK
6
CONTINUOUS
10
74.2146
20
-61.878
11
74.4408
21
-61.8094
0
LINE
8
BLACK
6
CONTINUOUS
10
74.4408
20
-61.8094
11
74.617
21
-61.792
0
LINE
8
BLACK
6
CONTINUOUS
10
74.617
20
-61.792
11
74.7349
21
-61.792
0
LINE
8
BLACK
6
CONTINUOUS
10
74.7349
20
-61.792
11
74.9112
21
-61.8094
0
LINE
8
BLACK
6
CONTINUOUS
10
98.382
20
-63.838
11
96.182
21
-63.838
0
LINE
8
BLACK
6
CONTINUOUS
10
96.182
20
-63.838
11
96.182
21
-61.638
0
LINE
8
BLACK
6
CONTINUOUS
10
96.182
20
-61.638
11
98.382
21
-61.638
0
LINE
8
BLACK
6
CONTINUOUS
10
98.382
20
-61.638
11
98.382
21
-63.838
0
LINE
8
BLACK
6
CONTINUOUS
10
119.464
20
-63.838
11
117.264
21
-63.838
0
LINE
8
BLACK
6
CONTINUOUS
10
117.264
20
-63.838
11
117.264
21
-61.638
0
LINE
8
BLACK
6
CONTINUOUS
10
117.264
20
-61.638
11
119.464
21
-61.638
0
LINE
8
BLACK
6
CONTINUOUS
10
119.464
20
-61.638
11
119.464
21
-63.838
0
LINE
8
BLACK
6
CONTINUOUS
10
107.272
20
-63.584
11
105.072
21
-63.584
0
LINE
8
BLACK
6
CONTINUOUS
10
105.072
20
-63.584
11
105.072
21
-61.384
0
LINE
8
BLACK
6
CONTINUOUS
10
105.072
20
-61.384
11
107.272
21
-61.384
0
LINE
8
BLACK
6
CONTINUOUS
10
107.272
20
-61.384
11
107.272
21
-63.584
0
LINE
8
BLACK
6
CONTINUOUS
10
114.892
20
-63.584
11
112.692
21
-63.584
0
LINE
8
BLACK
6
CONTINUOUS
10
112.692
20
-63.584
11
112.692
21
-61.384
0
LINE
8
BLACK
6
CONTINUOUS
10
112.692
20
-61.384
11
114.892
21
-61.384
0
LINE
8
BLACK
6
CONTINUOUS
10
114.892
20
-61.384
11
114.892
21
-63.584
0
LINE
8
BLACK
6
CONTINUOUS
10
85.6065
20
-61.1106
11
85.7703
21
-61.1784
0
LINE
8
BLACK
6
CONTINUOUS
10
85.7703
20
-61.1784
11
85.9177
21
-61.2769
0
LINE
8
BLACK
6
CONTINUOUS
10
85.9177
20
-61.2769
11
86.0431
21
-61.4023
0
LINE
8
BLACK
6
CONTINUOUS
10
86.0431
20
-61.4023
11
86.1416
21
-61.5497
0
LINE
8
BLACK
6
CONTINUOUS
10
86.1416
20
-61.5497
11
86.2094
21
-61.7135
0
LINE
8
BLACK
6
CONTINUOUS
10
86.2094
20
-61.7135
11
86.244
21
-61.8874
0
LINE
8
BLACK
6
CONTINUOUS
10
86.244
20
-61.8874
11
86.244
21
-62.0646
0
LINE
8
BLACK
6
CONTINUOUS
10
86.244
20
-62.0646
11
86.2094
21
-62.2385
0
LINE
8
BLACK
6
CONTINUOUS
10
86.2094
20
-62.2385
11
86.1416
21
-62.4023
0
LINE
8
BLACK
6
CONTINUOUS
10
86.1416
20
-62.4023
11
86.0431
21
-62.5497
0
LINE
8
BLACK
6
CONTINUOUS
10
86.0431
20
-62.5497
11
85.9177
21
-62.6751
0
LINE
8
BLACK
6
CONTINUOUS
10
85.9177
20
-62.6751
11
85.7703
21
-62.7736
0
LINE
8
BLACK
6
CONTINUOUS
10
85.7703
20
-62.7736
11
85.6065
21
-62.8414
0
LINE
8
BLACK
6
CONTINUOUS
10
85.6065
20
-62.8414
11
85.4326
21
-62.876
0
LINE
8
BLACK
6
CONTINUOUS
10
85.4326
20
-62.876
11
85.2554
21
-62.876
0
LINE
8
BLACK
6
CONTINUOUS
10
85.2554
20
-62.876
11
85.0815
21
-62.8414
0
LINE
8
BLACK
6
CONTINUOUS
10
85.0815
20
-62.8414
11
84.9177
21
-62.7736
0
LINE
8
BLACK
6
CONTINUOUS
10
84.9177
20
-62.7736
11
84.7703
21
-62.6751
0
LINE
8
BLACK
6
CONTINUOUS
10
84.7703
20
-62.6751
11
84.6449
21
-62.5497
0
LINE
8
BLACK
6
CONTINUOUS
10
84.6449
20
-62.5497
11
84.5464
21
-62.4023
0
LINE
8
BLACK
6
CONTINUOUS
10
84.5464
20
-62.4023
11
84.4786
21
-62.2385
0
LINE
8
BLACK
6
CONTINUOUS
10
84.4786
20
-62.2385
11
84.444
21
-62.0646
0
LINE
8
BLACK
6
CONTINUOUS
10
84.444
20
-62.0646
11
84.444
21
-61.8874
0
LINE
8
BLACK
6
CONTINUOUS
10
84.444
20
-61.8874
11
84.4786
21
-61.7135
0
LINE
8
BLACK
6
CONTINUOUS
10
84.4786
20
-61.7135
11
84.5464
21
-61.5497
0
LINE
8
BLACK
6
CONTINUOUS
10
84.5464
20
-61.5497
11
84.6449
21
-61.4023
0
LINE
8
BLACK
6
CONTINUOUS
10
84.6449
20
-61.4023
11
84.7703
21
-61.2769
0
LINE
8
BLACK
6
CONTINUOUS
10
84.7703
20
-61.2769
11
84.9177
21
-61.1784
0
LINE
8
BLACK
6
CONTINUOUS
10
84.9177
20
-61.1784
11
85.0815
21
-61.1106
0
LINE
8
BLACK
6
CONTINUOUS
10
85.0815
20
-61.1106
11
85.2554
21
-61.076
0
LINE
8
BLACK
6
CONTINUOUS
10
85.2554
20
-61.076
11
85.4326
21
-61.076
0
LINE
8
BLACK
6
CONTINUOUS
10
85.4326
20
-61.076
11
85.6065
21
-61.1106
0
LINE
8
BLACK
6
CONTINUOUS
10
44.28
20
-62.822
11
42.08
21
-62.822
0
LINE
8
BLACK
6
CONTINUOUS
10
42.08
20
-62.822
11
42.08
21
-60.622
0
LINE
8
BLACK
6
CONTINUOUS
10
42.08
20
-60.622
11
44.28
21
-60.622
0
LINE
8
BLACK
6
CONTINUOUS
10
44.28
20
-60.622
11
44.28
21
-62.822
0
LINE
8
BLACK
6
CONTINUOUS
10
65.616
20
-62.568
11
63.416
21
-62.568
0
LINE
8
BLACK
6
CONTINUOUS
10
63.416
20
-62.568
11
63.416
21
-60.368
0
LINE
8
BLACK
6
CONTINUOUS
10
63.416
20
-60.368
11
65.616
21
-60.368
0
LINE
8
BLACK
6
CONTINUOUS
10
65.616
20
-60.368
11
65.616
21
-62.568
0
LINE
8
BLACK
6
CONTINUOUS
10
52.408
20
-62.568
11
50.208
21
-62.568
0
LINE
8
BLACK
6
CONTINUOUS
10
50.208
20
-62.568
11
50.208
21
-60.368
0
LINE
8
BLACK
6
CONTINUOUS
10
50.208
20
-60.368
11
52.408
21
-60.368
0
LINE
8
BLACK
6
CONTINUOUS
10
52.408
20
-60.368
11
52.408
21
-62.568
0
LINE
8
BLACK
6
CONTINUOUS
10
119.464
20
-61.298
11
117.264
21
-61.298
0
LINE
8
BLACK
6
CONTINUOUS
10
117.264
20
-61.298
11
117.264
21
-59.098
0
LINE
8
BLACK
6
CONTINUOUS
10
117.264
20
-59.098
11
119.464
21
-59.098
0
LINE
8
BLACK
6
CONTINUOUS
10
119.464
20
-59.098
11
119.464
21
-61.298
0
LINE
8
BLACK
6
CONTINUOUS
10
98.382
20
-61.298
11
96.182
21
-61.298
0
LINE
8
BLACK
6
CONTINUOUS
10
96.182
20
-61.298
11
96.182
21
-59.098
0
LINE
8
BLACK
6
CONTINUOUS
10
96.182
20
-59.098
11
98.382
21
-59.098
0
LINE
8
BLACK
6
CONTINUOUS
10
98.382
20
-59.098
11
98.382
21
-61.298
0
LINE
8
BLACK
6
CONTINUOUS
10
114.892
20
-61.044
11
112.692
21
-61.044
0
LINE
8
BLACK
6
CONTINUOUS
10
112.692
20
-61.044
11
112.692
21
-58.844
0
LINE
8
BLACK
6
CONTINUOUS
10
112.692
20
-58.844
11
114.892
21
-58.844
0
LINE
8
BLACK
6
CONTINUOUS
10
114.892
20
-58.844
11
114.892
21
-61.044
0
LINE
8
BLACK
6
CONTINUOUS
10
107.272
20
-61.044
11
105.072
21
-61.044
0
LINE
8
BLACK
6
CONTINUOUS
10
105.072
20
-61.044
11
105.072
21
-58.844
0
LINE
8
BLACK
6
CONTINUOUS
10
105.072
20
-58.844
11
107.272
21
-58.844
0
LINE
8
BLACK
6
CONTINUOUS
10
107.272
20
-58.844
11
107.272
21
-61.044
0
LINE
8
BLACK
6
CONTINUOUS
10
86.244
20
-60.336
11
84.444
21
-60.336
0
LINE
8
BLACK
6
CONTINUOUS
10
84.444
20
-60.336
11
84.444
21
-58.536
0
LINE
8
BLACK
6
CONTINUOUS
10
84.444
20
-58.536
11
86.244
21
-58.536
0
LINE
8
BLACK
6
CONTINUOUS
10
86.244
20
-58.536
11
86.244
21
-60.336
0
LINE
8
BLACK
6
CONTINUOUS
10
44.28
20
-60.282
11
42.08
21
-60.282
0
LINE
8
BLACK
6
CONTINUOUS
10
42.08
20
-60.282
11
42.08
21
-58.082
0
LINE
8
BLACK
6
CONTINUOUS
10
42.08
20
-58.082
11
44.28
21
-58.082
0
LINE
8
BLACK
6
CONTINUOUS
10
44.28
20
-58.082
11
44.28
21
-60.282
0
LINE
8
BLACK
6
CONTINUOUS
10
52.408
20
-60.028
11
50.208
21
-60.028
0
LINE
8
BLACK
6
CONTINUOUS
10
50.208
20
-60.028
11
50.208
21
-57.828
0
LINE
8
BLACK
6
CONTINUOUS
10
50.208
20
-57.828
11
52.408
21
-57.828
0
LINE
8
BLACK
6
CONTINUOUS
10
52.408
20
-57.828
11
52.408
21
-60.028
0
LINE
8
BLACK
6
CONTINUOUS
10
65.616
20
-60.028
11
63.416
21
-60.028
0
LINE
8
BLACK
6
CONTINUOUS
10
63.416
20
-60.028
11
63.416
21
-57.828
0
LINE
8
BLACK
6
CONTINUOUS
10
63.416
20
-57.828
11
65.616
21
-57.828
0
LINE
8
BLACK
6
CONTINUOUS
10
65.616
20
-57.828
11
65.616
21
-60.028
0
LINE
8
BLACK
6
CONTINUOUS
10
103.462
20
-59.774
11
101.262
21
-59.774
0
LINE
8
BLACK
6
CONTINUOUS
10
101.262
20
-59.774
11
101.262
21
-57.574
0
LINE
8
BLACK
6
CONTINUOUS
10
101.262
20
-57.574
11
103.462
21
-57.574
0
LINE
8
BLACK
6
CONTINUOUS
10
103.462
20
-57.574
11
103.462
21
-59.774
0
LINE
8
BLACK
6
CONTINUOUS
10
98.382
20
-58.758
11
96.182
21
-58.758
0
LINE
8
BLACK
6
CONTINUOUS
10
96.182
20
-58.758
11
96.182
21
-56.558
0
LINE
8
BLACK
6
CONTINUOUS
10
96.182
20
-56.558
11
98.382
21
-56.558
0
LINE
8
BLACK
6
CONTINUOUS
10
98.382
20
-56.558
11
98.382
21
-58.758
0
LINE
8
BLACK
6
CONTINUOUS
10
119.464
20
-58.758
11
117.264
21
-58.758
0
LINE
8
BLACK
6
CONTINUOUS
10
117.264
20
-58.758
11
117.264
21
-56.558
0
LINE
8
BLACK
6
CONTINUOUS
10
117.264
20
-56.558
11
119.464
21
-56.558
0
LINE
8
BLACK
6
CONTINUOUS
10
119.464
20
-56.558
11
119.464
21
-58.758
0
LINE
8
BLACK
6
CONTINUOUS
10
114.892
20
-58.504
11
112.692
21
-58.504
0
LINE
8
BLACK
6
CONTINUOUS
10
112.692
20
-58.504
11
112.692
21
-56.304
0
LINE
8
BLACK
6
CONTINUOUS
10
112.692
20
-56.304
11
114.892
21
-56.304
0
LINE
8
BLACK
6
CONTINUOUS
10
114.892
20
-56.304
11
114.892
21
-58.504
0
LINE
8
BLACK
6
CONTINUOUS
10
107.422
20
-58.004
11
104.922
21
-58.004
0
LINE
8
BLACK
6
CONTINUOUS
10
104.922
20
-58.004
11
104.922
21
-56.804
0
LINE
8
BLACK
6
CONTINUOUS
10
104.922
20
-56.804
11
107.422
21
-56.804
0
LINE
8
BLACK
6
CONTINUOUS
10
107.422
20
-56.804
11
107.422
21
-58.004
0
LINE
8
BLACK
6
CONTINUOUS
10
44.28
20
-57.742
11
42.08
21
-57.742
0
LINE
8
BLACK
6
CONTINUOUS
10
42.08
20
-57.742
11
42.08
21
-55.542
0
LINE
8
BLACK
6
CONTINUOUS
10
42.08
20
-55.542
11
44.28
21
-55.542
0
LINE
8
BLACK
6
CONTINUOUS
10
44.28
20
-55.542
11
44.28
21
-57.742
0
LINE
8
BLACK
6
CONTINUOUS
10
65.616
20
-57.488
11
63.416
21
-57.488
0
LINE
8
BLACK
6
CONTINUOUS
10
63.416
20
-57.488
11
63.416
21
-55.288
0
LINE
8
BLACK
6
CONTINUOUS
10
63.416
20
-55.288
11
65.616
21
-55.288
0
LINE
8
BLACK
6
CONTINUOUS
10
65.616
20
-55.288
11
65.616
21
-57.488
0
LINE
8
BLACK
6
CONTINUOUS
10
52.408
20
-57.488
11
50.208
21
-57.488
0
LINE
8
BLACK
6
CONTINUOUS
10
50.208
20
-57.488
11
50.208
21
-55.288
0
LINE
8
BLACK
6
CONTINUOUS
10
50.208
20
-55.288
11
52.408
21
-55.288
0
LINE
8
BLACK
6
CONTINUOUS
10
52.408
20
-55.288
11
52.408
21
-57.488
0
LINE
8
BLACK
6
CONTINUOUS
10
92.6912
20
-54.9514
11
92.9174
21
-55.02
0
LINE
8
BLACK
6
CONTINUOUS
10
92.9174
20
-55.02
11
93.1259
21
-55.1314
0
LINE
8
BLACK
6
CONTINUOUS
10
93.1259
20
-55.1314
11
93.3086
21
-55.2814
0
LINE
8
BLACK
6
CONTINUOUS
10
93.3086
20
-55.2814
11
93.4586
21
-55.4641
0
LINE
8
BLACK
6
CONTINUOUS
10
93.4586
20
-55.4641
11
93.57
21
-55.6726
0
LINE
8
BLACK
6
CONTINUOUS
10
93.57
20
-55.6726
11
93.6386
21
-55.8988
0
LINE
8
BLACK
6
CONTINUOUS
10
93.6386
20
-55.8988
11
93.6618
21
-56.134
0
LINE
8
BLACK
6
CONTINUOUS
10
93.6618
20
-56.134
11
93.6386
21
-56.3692
0
LINE
8
BLACK
6
CONTINUOUS
10
93.6386
20
-56.3692
11
93.57
21
-56.5954
0
LINE
8
BLACK
6
CONTINUOUS
10
93.57
20
-56.5954
11
93.4586
21
-56.8039
0
LINE
8
BLACK
6
CONTINUOUS
10
93.4586
20
-56.8039
11
93.3086
21
-56.9866
0
LINE
8
BLACK
6
CONTINUOUS
10
93.3086
20
-56.9866
11
93.1259
21
-57.1366
0
LINE
8
BLACK
6
CONTINUOUS
10
93.1259
20
-57.1366
11
92.9174
21
-57.248
0
LINE
8
BLACK
6
CONTINUOUS
10
92.9174
20
-57.248
11
92.6912
21
-57.3166
0
LINE
8
BLACK
6
CONTINUOUS
10
92.6912
20
-57.3166
11
92.5149
21
-57.334
0
LINE
8
BLACK
6
CONTINUOUS
10
92.5149
20
-57.334
11
92.397
21
-57.334
0
LINE
8
BLACK
6
CONTINUOUS
10
92.397
20
-57.334
11
92.2208
21
-57.3166
0
LINE
8
BLACK
6
CONTINUOUS
10
92.2208
20
-57.3166
11
91.9946
21
-57.248
0
LINE
8
BLACK
6
CONTINUOUS
10
91.9946
20
-57.248
11
91.7861
21
-57.1366
0
LINE
8
BLACK
6
CONTINUOUS
10
91.7861
20
-57.1366
11
91.6034
21
-56.9866
0
LINE
8
BLACK
6
CONTINUOUS
10
91.6034
20
-56.9866
11
91.4534
21
-56.8039
0
LINE
8
BLACK
6
CONTINUOUS
10
91.4534
20
-56.8039
11
91.342
21
-56.5954
0
LINE
8
BLACK
6
CONTINUOUS
10
91.342
20
-56.5954
11
91.2734
21
-56.3692
0
LINE
8
BLACK
6
CONTINUOUS
10
91.2734
20
-56.3692
11
91.2502
21
-56.134
0
LINE
8
BLACK
6
CONTINUOUS
10
91.2502
20
-56.134
11
91.2734
21
-55.8988
0
LINE
8
BLACK
6
CONTINUOUS
10
91.2734
20
-55.8988
11
91.342
21
-55.6726
0
LINE
8
BLACK
6
CONTINUOUS
10
91.342
20
-55.6726
11
91.4534
21
-55.4641
0
LINE
8
BLACK
6
CONTINUOUS
10
91.4534
20
-55.4641
11
91.6034
21
-55.2814
0
LINE
8
BLACK
6
CONTINUOUS
10
91.6034
20
-55.2814
11
91.7861
21
-55.1314
0
LINE
8
BLACK
6
CONTINUOUS
10
91.7861
20
-55.1314
11
91.9946
21
-55.02
0
LINE
8
BLACK
6
CONTINUOUS
10
91.9946
20
-55.02
11
92.2208
21
-54.9514
0
LINE
8
BLACK
6
CONTINUOUS
10
92.2208
20
-54.9514
11
92.397
21
-54.934
0
LINE
8
BLACK
6
CONTINUOUS
10
92.397
20
-54.934
11
92.5149
21
-54.934
0
LINE
8
BLACK
6
CONTINUOUS
10
92.5149
20
-54.934
11
92.6912
21
-54.9514
0
LINE
8
BLACK
6
CONTINUOUS
10
103.462
20
-57.234
11
101.262
21
-57.234
0
LINE
8
BLACK
6
CONTINUOUS
10
101.262
20
-57.234
11
101.262
21
-55.034
0
LINE
8
BLACK
6
CONTINUOUS
10
101.262
20
-55.034
11
103.462
21
-55.034
0
LINE
8
BLACK
6
CONTINUOUS
10
103.462
20
-55.034
11
103.462
21
-57.234
0
LINE
8
BLACK
6
CONTINUOUS
10
75.026
20
-54.2181
11
75.2444
21
-54.3086
0
LINE
8
BLACK
6
CONTINUOUS
10
75.2444
20
-54.3086
11
75.441
21
-54.4399
0
LINE
8
BLACK
6
CONTINUOUS
10
75.441
20
-54.4399
11
75.6081
21
-54.607
0
LINE
8
BLACK
6
CONTINUOUS
10
75.6081
20
-54.607
11
75.7394
21
-54.8036
0
LINE
8
BLACK
6
CONTINUOUS
10
75.7394
20
-54.8036
11
75.8299
21
-55.022
0
LINE
8
BLACK
6
CONTINUOUS
10
75.8299
20
-55.022
11
75.876
21
-55.2538
0
LINE
8
BLACK
6
CONTINUOUS
10
75.876
20
-55.2538
11
75.876
21
-55.4902
0
LINE
8
BLACK
6
CONTINUOUS
10
75.876
20
-55.4902
11
75.8299
21
-55.722
0
LINE
8
BLACK
6
CONTINUOUS
10
75.8299
20
-55.722
11
75.7394
21
-55.9404
0
LINE
8
BLACK
6
CONTINUOUS
10
75.7394
20
-55.9404
11
75.6081
21
-56.137
0
LINE
8
BLACK
6
CONTINUOUS
10
75.6081
20
-56.137
11
75.441
21
-56.3041
0
LINE
8
BLACK
6
CONTINUOUS
10
75.441
20
-56.3041
11
75.2444
21
-56.4354
0
LINE
8
BLACK
6
CONTINUOUS
10
75.2444
20
-56.4354
11
75.026
21
-56.5259
0
LINE
8
BLACK
6
CONTINUOUS
10
75.026
20
-56.5259
11
74.7942
21
-56.572
0
LINE
8
BLACK
6
CONTINUOUS
10
74.7942
20
-56.572
11
74.5578
21
-56.572
0
LINE
8
BLACK
6
CONTINUOUS
10
74.5578
20
-56.572
11
74.326
21
-56.5259
0
LINE
8
BLACK
6
CONTINUOUS
10
74.326
20
-56.5259
11
74.1076
21
-56.4354
0
LINE
8
BLACK
6
CONTINUOUS
10
74.1076
20
-56.4354
11
73.911
21
-56.3041
0
LINE
8
BLACK
6
CONTINUOUS
10
73.911
20
-56.3041
11
73.7439
21
-56.137
0
LINE
8
BLACK
6
CONTINUOUS
10
73.7439
20
-56.137
11
73.6126
21
-55.9404
0
LINE
8
BLACK
6
CONTINUOUS
10
73.6126
20
-55.9404
11
73.5221
21
-55.722
0
LINE
8
BLACK
6
CONTINUOUS
10
73.5221
20
-55.722
11
73.476
21
-55.4902
0
LINE
8
BLACK
6
CONTINUOUS
10
73.476
20
-55.4902
11
73.476
21
-55.2538
0
LINE
8
BLACK
6
CONTINUOUS
10
73.476
20
-55.2538
11
73.5221
21
-55.022
0
LINE
8
BLACK
6
CONTINUOUS
10
73.5221
20
-55.022
11
73.6126
21
-54.8036
0
LINE
8
BLACK
6
CONTINUOUS
10
73.6126
20
-54.8036
11
73.7439
21
-54.607
0
LINE
8
BLACK
6
CONTINUOUS
10
73.7439
20
-54.607
11
73.911
21
-54.4399
0
LINE
8
BLACK
6
CONTINUOUS
10
73.911
20
-54.4399
11
74.1076
21
-54.3086
0
LINE
8
BLACK
6
CONTINUOUS
10
74.1076
20
-54.3086
11
74.326
21
-54.2181
0
LINE
8
BLACK
6
CONTINUOUS
10
74.326
20
-54.2181
11
74.5578
21
-54.172
0
LINE
8
BLACK
6
CONTINUOUS
10
74.5578
20
-54.172
11
74.7942
21
-54.172
0
LINE
8
BLACK
6
CONTINUOUS
10
74.7942
20
-54.172
11
75.026
21
-54.2181
0
LINE
8
BLACK
6
CONTINUOUS
10
85.5774
20
-54.8247
11
85.7229
21
-54.885
0
LINE
8
BLACK
6
CONTINUOUS
10
85.7229
20
-54.885
11
85.854
21
-54.9726
0
LINE
8
BLACK
6
CONTINUOUS
10
85.854
20
-54.9726
11
85.9654
21
-55.084
0
LINE
8
BLACK
6
CONTINUOUS
10
85.9654
20
-55.084
11
86.053
21
-55.2151
0
LINE
8
BLACK
6
CONTINUOUS
10
86.053
20
-55.2151
11
86.1133
21
-55.3606
0
LINE
8
BLACK
6
CONTINUOUS
10
86.1133
20
-55.3606
11
86.144
21
-55.5152
0
LINE
8
BLACK
6
CONTINUOUS
10
86.144
20
-55.5152
11
86.144
21
-55.6728
0
LINE
8
BLACK
6
CONTINUOUS
10
86.144
20
-55.6728
11
86.1133
21
-55.8274
0
LINE
8
BLACK
6
CONTINUOUS
10
86.1133
20
-55.8274
11
86.053
21
-55.9729
0
LINE
8
BLACK
6
CONTINUOUS
10
86.053
20
-55.9729
11
85.9654
21
-56.104
0
LINE
8
BLACK
6
CONTINUOUS
10
85.9654
20
-56.104
11
85.854
21
-56.2154
0
LINE
8
BLACK
6
CONTINUOUS
10
85.854
20
-56.2154
11
85.7229
21
-56.303
0
LINE
8
BLACK
6
CONTINUOUS
10
85.7229
20
-56.303
11
85.5774
21
-56.3633
0
LINE
8
BLACK
6
CONTINUOUS
10
85.5774
20
-56.3633
11
85.4228
21
-56.394
0
LINE
8
BLACK
6
CONTINUOUS
10
85.4228
20
-56.394
11
85.2652
21
-56.394
0
LINE
8
BLACK
6
CONTINUOUS
10
85.2652
20
-56.394
11
85.1106
21
-56.3633
0
LINE
8
BLACK
6
CONTINUOUS
10
85.1106
20
-56.3633
11
84.9651
21
-56.303
0
LINE
8
BLACK
6
CONTINUOUS
10
84.9651
20
-56.303
11
84.834
21
-56.2154
0
LINE
8
BLACK
6
CONTINUOUS
10
84.834
20
-56.2154
11
84.7226
21
-56.104
0
LINE
8
BLACK
6
CONTINUOUS
10
84.7226
20
-56.104
11
84.635
21
-55.9729
0
LINE
8
BLACK
6
CONTINUOUS
10
84.635
20
-55.9729
11
84.5747
21
-55.8274
0
LINE
8
BLACK
6
CONTINUOUS
10
84.5747
20
-55.8274
11
84.544
21
-55.6728
0
LINE
8
BLACK
6
CONTINUOUS
10
84.544
20
-55.6728
11
84.544
21
-55.5152
0
LINE
8
BLACK
6
CONTINUOUS
10
84.544
20
-55.5152
11
84.5747
21
-55.3606
0
LINE
8
BLACK
6
CONTINUOUS
10
84.5747
20
-55.3606
11
84.635
21
-55.2151
0
LINE
8
BLACK
6
CONTINUOUS
10
84.635
20
-55.2151
11
84.7226
21
-55.084
0
LINE
8
BLACK
6
CONTINUOUS
10
84.7226
20
-55.084
11
84.834
21
-54.9726
0
LINE
8
BLACK
6
CONTINUOUS
10
84.834
20
-54.9726
11
84.9651
21
-54.885
0
LINE
8
BLACK
6
CONTINUOUS
10
84.9651
20
-54.885
11
85.1106
21
-54.8247
0
LINE
8
BLACK
6
CONTINUOUS
10
85.1106
20
-54.8247
11
85.2652
21
-54.794
0
LINE
8
BLACK
6
CONTINUOUS
10
85.2652
20
-54.794
11
85.4228
21
-54.794
0
LINE
8
BLACK
6
CONTINUOUS
10
85.4228
20
-54.794
11
85.5774
21
-54.8247
0
LINE
8
BLACK
6
CONTINUOUS
10
98.382
20
-56.218
11
96.182
21
-56.218
0
LINE
8
BLACK
6
CONTINUOUS
10
96.182
20
-56.218
11
96.182
21
-54.018
0
LINE
8
BLACK
6
CONTINUOUS
10
96.182
20
-54.018
11
98.382
21
-54.018
0
LINE
8
BLACK
6
CONTINUOUS
10
98.382
20
-54.018
11
98.382
21
-56.218
0
LINE
8
BLACK
6
CONTINUOUS
10
114.892
20
-55.964
11
112.692
21
-55.964
0
LINE
8
BLACK
6
CONTINUOUS
10
112.692
20
-55.964
11
112.692
21
-53.764
0
LINE
8
BLACK
6
CONTINUOUS
10
112.692
20
-53.764
11
114.892
21
-53.764
0
LINE
8
BLACK
6
CONTINUOUS
10
114.892
20
-53.764
11
114.892
21
-55.964
0
LINE
8
BLACK
6
CONTINUOUS
10
118.831
20
-52.5635
11
119.122
21
-52.6841
0
LINE
8
BLACK
6
CONTINUOUS
10
119.122
20
-52.6841
11
119.384
21
-52.8592
0
LINE
8
BLACK
6
CONTINUOUS
10
119.384
20
-52.8592
11
119.607
21
-53.0821
0
LINE
8
BLACK
6
CONTINUOUS
10
119.607
20
-53.0821
11
119.782
21
-53.3441
0
LINE
8
BLACK
6
CONTINUOUS
10
119.782
20
-53.3441
11
119.903
21
-53.6353
0
LINE
8
BLACK
6
CONTINUOUS
10
119.903
20
-53.6353
11
119.964
21
-53.9444
0
LINE
8
BLACK
6
CONTINUOUS
10
119.964
20
-53.9444
11
119.964
21
-54.2596
0
LINE
8
BLACK
6
CONTINUOUS
10
119.964
20
-54.2596
11
119.903
21
-54.5687
0
LINE
8
BLACK
6
CONTINUOUS
10
119.903
20
-54.5687
11
119.782
21
-54.8599
0
LINE
8
BLACK
6
CONTINUOUS
10
119.782
20
-54.8599
11
119.607
21
-55.1219
0
LINE
8
BLACK
6
CONTINUOUS
10
119.607
20
-55.1219
11
119.384
21
-55.3448
0
LINE
8
BLACK
6
CONTINUOUS
10
119.384
20
-55.3448
11
119.122
21
-55.5199
0
LINE
8
BLACK
6
CONTINUOUS
10
119.122
20
-55.5199
11
118.831
21
-55.6405
0
LINE
8
BLACK
6
CONTINUOUS
10
118.831
20
-55.6405
11
118.522
21
-55.702
0
LINE
8
BLACK
6
CONTINUOUS
10
118.522
20
-55.702
11
118.206
21
-55.702
0
LINE
8
BLACK
6
CONTINUOUS
10
118.206
20
-55.702
11
117.897
21
-55.6405
0
LINE
8
BLACK
6
CONTINUOUS
10
117.897
20
-55.6405
11
117.606
21
-55.5199
0
LINE
8
BLACK
6
CONTINUOUS
10
117.606
20
-55.5199
11
117.344
21
-55.3448
0
LINE
8
BLACK
6
CONTINUOUS
10
117.344
20
-55.3448
11
117.121
21
-55.1219
0
LINE
8
BLACK
6
CONTINUOUS
10
117.121
20
-55.1219
11
116.946
21
-54.8599
0
LINE
8
BLACK
6
CONTINUOUS
10
116.946
20
-54.8599
11
116.825
21
-54.5687
0
LINE
8
BLACK
6
CONTINUOUS
10
116.825
20
-54.5687
11
116.764
21
-54.2596
0
LINE
8
BLACK
6
CONTINUOUS
10
116.764
20
-54.2596
11
116.764
21
-53.9444
0
LINE
8
BLACK
6
CONTINUOUS
10
116.764
20
-53.9444
11
116.825
21
-53.6353
0
LINE
8
BLACK
6
CONTINUOUS
10
116.825
20
-53.6353
11
116.946
21
-53.3441
0
LINE
8
BLACK
6
CONTINUOUS
10
116.946
20
-53.3441
11
117.121
21
-53.0821
0
LINE
8
BLACK
6
CONTINUOUS
10
117.121
20
-53.0821
11
117.344
21
-52.8592
0
LINE
8
BLACK
6
CONTINUOUS
10
117.344
20
-52.8592
11
117.606
21
-52.6841
0
LINE
8
BLACK
6
CONTINUOUS
10
117.606
20
-52.6841
11
117.897
21
-52.5635
0
LINE
8
BLACK
6
CONTINUOUS
10
117.897
20
-52.5635
11
118.206
21
-52.502
0
LINE
8
BLACK
6
CONTINUOUS
10
118.206
20
-52.502
11
118.522
21
-52.502
0
LINE
8
BLACK
6
CONTINUOUS
10
118.522
20
-52.502
11
118.831
21
-52.5635
0
LINE
8
BLACK
6
CONTINUOUS
10
107.422
20
-55.464
11
104.922
21
-55.464
0
LINE
8
BLACK
6
CONTINUOUS
10
104.922
20
-55.464
11
104.922
21
-54.264
0
LINE
8
BLACK
6
CONTINUOUS
10
104.922
20
-54.264
11
107.422
21
-54.264
0
LINE
8
BLACK
6
CONTINUOUS
10
107.422
20
-54.264
11
107.422
21
-55.464
0
LINE
8
BLACK
6
CONTINUOUS
10
44.28
20
-55.202
11
42.08
21
-55.202
0
LINE
8
BLACK
6
CONTINUOUS
10
42.08
20
-55.202
11
42.08
21
-53.002
0
LINE
8
BLACK
6
CONTINUOUS
10
42.08
20
-53.002
11
44.28
21
-53.002
0
LINE
8
BLACK
6
CONTINUOUS
10
44.28
20
-53.002
11
44.28
21
-55.202
0
LINE
8
BLACK
6
CONTINUOUS
10
81.21
20
-55.048
11
78.81
21
-55.048
0
LINE
8
BLACK
6
CONTINUOUS
10
78.81
20
-55.048
11
78.81
21
-52.648
0
LINE
8
BLACK
6
CONTINUOUS
10
78.81
20
-52.648
11
81.21
21
-52.648
0
LINE
8
BLACK
6
CONTINUOUS
10
81.21
20
-52.648
11
81.21
21
-55.048
0
LINE
8
BLACK
6
CONTINUOUS
10
65.616
20
-54.948
11
63.416
21
-54.948
0
LINE
8
BLACK
6
CONTINUOUS
10
63.416
20
-54.948
11
63.416
21
-52.748
0
LINE
8
BLACK
6
CONTINUOUS
10
63.416
20
-52.748
11
65.616
21
-52.748
0
LINE
8
BLACK
6
CONTINUOUS
10
65.616
20
-52.748
11
65.616
21
-54.948
0
LINE
8
BLACK
6
CONTINUOUS
10
52.408
20
-54.948
11
50.208
21
-54.948
0
LINE
8
BLACK
6
CONTINUOUS
10
50.208
20
-54.948
11
50.208
21
-52.748
0
LINE
8
BLACK
6
CONTINUOUS
10
50.208
20
-52.748
11
52.408
21
-52.748
0
LINE
8
BLACK
6
CONTINUOUS
10
52.408
20
-52.748
11
52.408
21
-54.948
0
LINE
8
BLACK
6
CONTINUOUS
10
103.462
20
-54.694
11
101.262
21
-54.694
0
LINE
8
BLACK
6
CONTINUOUS
10
101.262
20
-54.694
11
101.262
21
-52.494
0
LINE
8
BLACK
6
CONTINUOUS
10
101.262
20
-52.494
11
103.462
21
-52.494
0
LINE
8
BLACK
6
CONTINUOUS
10
103.462
20
-52.494
11
103.462
21
-54.694
0
LINE
8
BLACK
6
CONTINUOUS
10
70.5707
20
-51.2935
11
70.8619
21
-51.4141
0
LINE
8
BLACK
6
CONTINUOUS
10
70.8619
20
-51.4141
11
71.1239
21
-51.5892
0
LINE
8
BLACK
6
CONTINUOUS
10
71.1239
20
-51.5892
11
71.3468
21
-51.8121
0
LINE
8
BLACK
6
CONTINUOUS
10
71.3468
20
-51.8121
11
71.5219
21
-52.0741
0
LINE
8
BLACK
6
CONTINUOUS
10
71.5219
20
-52.0741
11
71.6425
21
-52.3653
0
LINE
8
BLACK
6
CONTINUOUS
10
71.6425
20
-52.3653
11
71.704
21
-52.6744
0
LINE
8
BLACK
6
CONTINUOUS
10
71.704
20
-52.6744
11
71.704
21
-52.9896
0
LINE
8
BLACK
6
CONTINUOUS
10
71.704
20
-52.9896
11
71.6425
21
-53.2987
0
LINE
8
BLACK
6
CONTINUOUS
10
71.6425
20
-53.2987
11
71.5219
21
-53.5899
0
LINE
8
BLACK
6
CONTINUOUS
10
71.5219
20
-53.5899
11
71.3468
21
-53.8519
0
LINE
8
BLACK
6
CONTINUOUS
10
71.3468
20
-53.8519
11
71.1239
21
-54.0748
0
LINE
8
BLACK
6
CONTINUOUS
10
71.1239
20
-54.0748
11
70.8619
21
-54.2499
0
LINE
8
BLACK
6
CONTINUOUS
10
70.8619
20
-54.2499
11
70.5707
21
-54.3705
0
LINE
8
BLACK
6
CONTINUOUS
10
70.5707
20
-54.3705
11
70.2616
21
-54.432
0
LINE
8
BLACK
6
CONTINUOUS
10
70.2616
20
-54.432
11
69.9464
21
-54.432
0
LINE
8
BLACK
6
CONTINUOUS
10
69.9464
20
-54.432
11
69.6373
21
-54.3705
0
LINE
8
BLACK
6
CONTINUOUS
10
69.6373
20
-54.3705
11
69.3461
21
-54.2499
0
LINE
8
BLACK
6
CONTINUOUS
10
69.3461
20
-54.2499
11
69.0841
21
-54.0748
0
LINE
8
BLACK
6
CONTINUOUS
10
69.0841
20
-54.0748
11
68.8612
21
-53.8519
0
LINE
8
BLACK
6
CONTINUOUS
10
68.8612
20
-53.8519
11
68.6861
21
-53.5899
0
LINE
8
BLACK
6
CONTINUOUS
10
68.6861
20
-53.5899
11
68.5655
21
-53.2987
0
LINE
8
BLACK
6
CONTINUOUS
10
68.5655
20
-53.2987
11
68.504
21
-52.9896
0
LINE
8
BLACK
6
CONTINUOUS
10
68.504
20
-52.9896
11
68.504
21
-52.6744
0
LINE
8
BLACK
6
CONTINUOUS
10
68.504
20
-52.6744
11
68.5655
21
-52.3653
0
LINE
8
BLACK
6
CONTINUOUS
10
68.5655
20
-52.3653
11
68.6861
21
-52.0741
0
LINE
8
BLACK
6
CONTINUOUS
10
68.6861
20
-52.0741
11
68.8612
21
-51.8121
0
LINE
8
BLACK
6
CONTINUOUS
10
68.8612
20
-51.8121
11
69.0841
21
-51.5892
0
LINE
8
BLACK
6
CONTINUOUS
10
69.0841
20
-51.5892
11
69.3461
21
-51.4141
0
LINE
8
BLACK
6
CONTINUOUS
10
69.3461
20
-51.4141
11
69.6373
21
-51.2935
0
LINE
8
BLACK
6
CONTINUOUS
10
69.6373
20
-51.2935
11
69.9464
21
-51.232
0
LINE
8
BLACK
6
CONTINUOUS
10
69.9464
20
-51.232
11
70.2616
21
-51.232
0
LINE
8
BLACK
6
CONTINUOUS
10
70.2616
20
-51.232
11
70.5707
21
-51.2935
0
LINE
8
BLACK
6
CONTINUOUS
10
86.144
20
-54.394
11
84.544
21
-54.394
0
LINE
8
BLACK
6
CONTINUOUS
10
84.544
20
-54.394
11
84.544
21
-52.794
0
LINE
8
BLACK
6
CONTINUOUS
10
84.544
20
-52.794
11
86.144
21
-52.794
0
LINE
8
BLACK
6
CONTINUOUS
10
86.144
20
-52.794
11
86.144
21
-54.394
0
LINE
8
BLACK
6
CONTINUOUS
10
98.382
20
-53.678
11
96.182
21
-53.678
0
LINE
8
BLACK
6
CONTINUOUS
10
96.182
20
-53.678
11
96.182
21
-51.478
0
LINE
8
BLACK
6
CONTINUOUS
10
96.182
20
-51.478
11
98.382
21
-51.478
0
LINE
8
BLACK
6
CONTINUOUS
10
98.382
20
-51.478
11
98.382
21
-53.678
0
LINE
8
BLACK
6
CONTINUOUS
10
107.272
20
-53.424
11
105.072
21
-53.424
0
LINE
8
BLACK
6
CONTINUOUS
10
105.072
20
-53.424
11
105.072
21
-51.224
0
LINE
8
BLACK
6
CONTINUOUS
10
105.072
20
-51.224
11
107.272
21
-51.224
0
LINE
8
BLACK
6
CONTINUOUS
10
107.272
20
-51.224
11
107.272
21
-53.424
0
LINE
8
BLACK
6
CONTINUOUS
10
114.892
20
-53.424
11
112.692
21
-53.424
0
LINE
8
BLACK
6
CONTINUOUS
10
112.692
20
-53.424
11
112.692
21
-51.224
0
LINE
8
BLACK
6
CONTINUOUS
10
112.692
20
-51.224
11
114.892
21
-51.224
0
LINE
8
BLACK
6
CONTINUOUS
10
114.892
20
-51.224
11
114.892
21
-53.424
0
LINE
8
BLACK
6
CONTINUOUS
10
92.24
20
-52.87
11
90.64
21
-52.87
0
LINE
8
BLACK
6
CONTINUOUS
10
90.64
20
-52.87
11
90.64
21
-51.27
0
LINE
8
BLACK
6
CONTINUOUS
10
90.64
20
-51.27
11
92.24
21
-51.27
0
LINE
8
BLACK
6
CONTINUOUS
10
92.24
20
-51.27
11
92.24
21
-52.87
0
LINE
8
BLACK
6
CONTINUOUS
10
93.6734
20
-51.3007
11
93.8189
21
-51.361
0
LINE
8
BLACK
6
CONTINUOUS
10
93.8189
20
-51.361
11
93.95
21
-51.4486
0
LINE
8
BLACK
6
CONTINUOUS
10
93.95
20
-51.4486
11
94.0614
21
-51.56
0
LINE
8
BLACK
6
CONTINUOUS
10
94.0614
20
-51.56
11
94.149
21
-51.6911
0
LINE
8
BLACK
6
CONTINUOUS
10
94.149
20
-51.6911
11
94.2093
21
-51.8366
0
LINE
8
BLACK
6
CONTINUOUS
10
94.2093
20
-51.8366
11
94.24
21
-51.9912
0
LINE
8
BLACK
6
CONTINUOUS
10
94.24
20
-51.9912
11
94.24
21
-52.1488
0
LINE
8
BLACK
6
CONTINUOUS
10
94.24
20
-52.1488
11
94.2093
21
-52.3034
0
LINE
8
BLACK
6
CONTINUOUS
10
94.2093
20
-52.3034
11
94.149
21
-52.4489
0
LINE
8
BLACK
6
CONTINUOUS
10
94.149
20
-52.4489
11
94.0614
21
-52.58
0
LINE
8
BLACK
6
CONTINUOUS
10
94.0614
20
-52.58
11
93.95
21
-52.6914
0
LINE
8
BLACK
6
CONTINUOUS
10
93.95
20
-52.6914
11
93.8189
21
-52.779
0
LINE
8
BLACK
6
CONTINUOUS
10
93.8189
20
-52.779
11
93.6734
21
-52.8393
0
LINE
8
BLACK
6
CONTINUOUS
10
93.6734
20
-52.8393
11
93.5188
21
-52.87
0
LINE
8
BLACK
6
CONTINUOUS
10
93.5188
20
-52.87
11
93.3612
21
-52.87
0
LINE
8
BLACK
6
CONTINUOUS
10
93.3612
20
-52.87
11
93.2066
21
-52.8393
0
LINE
8
BLACK
6
CONTINUOUS
10
93.2066
20
-52.8393
11
93.0611
21
-52.779
0
LINE
8
BLACK
6
CONTINUOUS
10
93.0611
20
-52.779
11
92.93
21
-52.6914
0
LINE
8
BLACK
6
CONTINUOUS
10
92.93
20
-52.6914
11
92.8186
21
-52.58
0
LINE
8
BLACK
6
CONTINUOUS
10
92.8186
20
-52.58
11
92.731
21
-52.4489
0
LINE
8
BLACK
6
CONTINUOUS
10
92.731
20
-52.4489
11
92.6707
21
-52.3034
0
LINE
8
BLACK
6
CONTINUOUS
10
92.6707
20
-52.3034
11
92.64
21
-52.1488
0
LINE
8
BLACK
6
CONTINUOUS
10
92.64
20
-52.1488
11
92.64
21
-51.9912
0
LINE
8
BLACK
6
CONTINUOUS
10
92.64
20
-51.9912
11
92.6707
21
-51.8366
0
LINE
8
BLACK
6
CONTINUOUS
10
92.6707
20
-51.8366
11
92.731
21
-51.6911
0
LINE
8
BLACK
6
CONTINUOUS
10
92.731
20
-51.6911
11
92.8186
21
-51.56
0
LINE
8
BLACK
6
CONTINUOUS
10
92.8186
20
-51.56
11
92.93
21
-51.4486
0
LINE
8
BLACK
6
CONTINUOUS
10
92.93
20
-51.4486
11
93.0611
21
-51.361
0
LINE
8
BLACK
6
CONTINUOUS
10
93.0611
20
-51.361
11
93.2066
21
-51.3007
0
LINE
8
BLACK
6
CONTINUOUS
10
93.2066
20
-51.3007
11
93.3612
21
-51.27
0
LINE
8
BLACK
6
CONTINUOUS
10
93.3612
20
-51.27
11
93.5188
21
-51.27
0
LINE
8
BLACK
6
CONTINUOUS
10
93.5188
20
-51.27
11
93.6734
21
-51.3007
0
LINE
8
BLACK
6
CONTINUOUS
10
103.462
20
-52.154
11
101.262
21
-52.154
0
LINE
8
BLACK
6
CONTINUOUS
10
101.262
20
-52.154
11
101.262
21
-49.954
0
LINE
8
BLACK
6
CONTINUOUS
10
101.262
20
-49.954
11
103.462
21
-49.954
0
LINE
8
BLACK
6
CONTINUOUS
10
103.462
20
-49.954
11
103.462
21
-52.154
0
LINE
8
BLACK
6
CONTINUOUS
10
76.934
20
-51.534
11
73.434
21
-51.534
0
LINE
8
BLACK
6
CONTINUOUS
10
73.434
20
-51.534
11
73.434
21
-48.034
0
LINE
8
BLACK
6
CONTINUOUS
10
73.434
20
-48.034
11
76.934
21
-48.034
0
LINE
8
BLACK
6
CONTINUOUS
10
76.934
20
-48.034
11
76.934
21
-51.534
0
LINE
8
BLACK
6
CONTINUOUS
10
98.382
20
-51.138
11
96.182
21
-51.138
0
LINE
8
BLACK
6
CONTINUOUS
10
96.182
20
-51.138
11
96.182
21
-48.938
0
LINE
8
BLACK
6
CONTINUOUS
10
96.182
20
-48.938
11
98.382
21
-48.938
0
LINE
8
BLACK
6
CONTINUOUS
10
98.382
20
-48.938
11
98.382
21
-51.138
0
LINE
8
BLACK
6
CONTINUOUS
10
114.892
20
-50.884
11
112.692
21
-50.884
0
LINE
8
BLACK
6
CONTINUOUS
10
112.692
20
-50.884
11
112.692
21
-48.684
0
LINE
8
BLACK
6
CONTINUOUS
10
112.692
20
-48.684
11
114.892
21
-48.684
0
LINE
8
BLACK
6
CONTINUOUS
10
114.892
20
-48.684
11
114.892
21
-50.884
0
LINE
8
BLACK
6
CONTINUOUS
10
107.272
20
-50.884
11
105.072
21
-50.884
0
LINE
8
BLACK
6
CONTINUOUS
10
105.072
20
-50.884
11
105.072
21
-48.684
0
LINE
8
BLACK
6
CONTINUOUS
10
105.072
20
-48.684
11
107.272
21
-48.684
0
LINE
8
BLACK
6
CONTINUOUS
10
107.272
20
-48.684
11
107.272
21
-50.884
0
LINE
8
BLACK
6
CONTINUOUS
10
71.5297
20
-45.0508
11
71.6938
21
-45.1006
0
LINE
8
BLACK
6
CONTINUOUS
10
71.6938
20
-45.1006
11
71.8451
21
-45.1815
0
LINE
8
BLACK
6
CONTINUOUS
10
71.8451
20
-45.1815
11
71.9777
21
-45.2903
0
LINE
8
BLACK
6
CONTINUOUS
10
71.9777
20
-45.2903
11
72.0865
21
-45.4229
0
LINE
8
BLACK
6
CONTINUOUS
10
72.0865
20
-45.4229
11
72.1674
21
-45.5742
0
LINE
8
BLACK
6
CONTINUOUS
10
72.1674
20
-45.5742
11
72.2172
21
-45.7383
0
LINE
8
BLACK
6
CONTINUOUS
10
72.2172
20
-45.7383
11
72.234
21
-45.909
0
LINE
8
BLACK
6
CONTINUOUS
10
72.234
20
-45.909
11
72.234
21
-47.659
0
LINE
8
BLACK
6
CONTINUOUS
10
72.234
20
-47.659
11
72.2172
21
-47.8297
0
LINE
8
BLACK
6
CONTINUOUS
10
72.2172
20
-47.8297
11
72.1674
21
-47.9938
0
LINE
8
BLACK
6
CONTINUOUS
10
72.1674
20
-47.9938
11
72.0865
21
-48.1451
0
LINE
8
BLACK
6
CONTINUOUS
10
72.0865
20
-48.1451
11
71.9777
21
-48.2777
0
LINE
8
BLACK
6
CONTINUOUS
10
71.9777
20
-48.2777
11
71.8451
21
-48.3865
0
LINE
8
BLACK
6
CONTINUOUS
10
71.8451
20
-48.3865
11
71.6938
21
-48.4674
0
LINE
8
BLACK
6
CONTINUOUS
10
71.6938
20
-48.4674
11
71.5297
21
-48.5172
0
LINE
8
BLACK
6
CONTINUOUS
10
71.5297
20
-48.5172
11
71.359
21
-48.534
0
LINE
8
BLACK
6
CONTINUOUS
10
71.359
20
-48.534
11
69.609
21
-48.534
0
LINE
8
BLACK
6
CONTINUOUS
10
69.609
20
-48.534
11
69.4383
21
-48.5172
0
LINE
8
BLACK
6
CONTINUOUS
10
69.4383
20
-48.5172
11
69.2742
21
-48.4674
0
LINE
8
BLACK
6
CONTINUOUS
10
69.2742
20
-48.4674
11
69.1229
21
-48.3865
0
LINE
8
BLACK
6
CONTINUOUS
10
69.1229
20
-48.3865
11
68.9903
21
-48.2777
0
LINE
8
BLACK
6
CONTINUOUS
10
68.9903
20
-48.2777
11
68.8815
21
-48.1451
0
LINE
8
BLACK
6
CONTINUOUS
10
68.8815
20
-48.1451
11
68.8006
21
-47.9938
0
LINE
8
BLACK
6
CONTINUOUS
10
68.8006
20
-47.9938
11
68.7508
21
-47.8297
0
LINE
8
BLACK
6
CONTINUOUS
10
68.7508
20
-47.8297
11
68.734
21
-47.659
0
LINE
8
BLACK
6
CONTINUOUS
10
68.734
20
-47.659
11
68.734
21
-45.909
0
LINE
8
BLACK
6
CONTINUOUS
10
68.734
20
-45.909
11
68.7508
21
-45.7383
0
LINE
8
BLACK
6
CONTINUOUS
10
68.7508
20
-45.7383
11
68.8006
21
-45.5742
0
LINE
8
BLACK
6
CONTINUOUS
10
68.8006
20
-45.5742
11
68.8815
21
-45.4229
0
LINE
8
BLACK
6
CONTINUOUS
10
68.8815
20
-45.4229
11
68.9903
21
-45.2903
0
LINE
8
BLACK
6
CONTINUOUS
10
68.9903
20
-45.2903
11
69.1229
21
-45.1815
0
LINE
8
BLACK
6
CONTINUOUS
10
69.1229
20
-45.1815
11
69.2742
21
-45.1006
0
LINE
8
BLACK
6
CONTINUOUS
10
69.2742
20
-45.1006
11
69.4383
21
-45.0508
0
LINE
8
BLACK
6
CONTINUOUS
10
69.4383
20
-45.0508
11
69.609
21
-45.034
0
LINE
8
BLACK
6
CONTINUOUS
10
69.609
20
-45.034
11
71.359
21
-45.034
0
LINE
8
BLACK
6
CONTINUOUS
10
71.359
20
-45.034
11
71.5297
21
-45.0508
0
LINE
8
BLACK
6
CONTINUOUS
10
114.892
20
-48.344
11
112.692
21
-48.344
0
LINE
8
BLACK
6
CONTINUOUS
10
112.692
20
-48.344
11
112.692
21
-46.144
0
LINE
8
BLACK
6
CONTINUOUS
10
112.692
20
-46.144
11
114.892
21
-46.144
0
LINE
8
BLACK
6
CONTINUOUS
10
114.892
20
-46.144
11
114.892
21
-48.344
0
LINE
8
BLACK
6
CONTINUOUS
10
107.272
20
-48.344
11
105.072
21
-48.344
0
LINE
8
BLACK
6
CONTINUOUS
10
105.072
20
-48.344
11
105.072
21
-46.144
0
LINE
8
BLACK
6
CONTINUOUS
10
105.072
20
-46.144
11
107.272
21
-46.144
0
LINE
8
BLACK
6
CONTINUOUS
10
107.272
20
-46.144
11
107.272
21
-48.344
0
LINE
8
BLACK
6
CONTINUOUS
10
94.2717
20
-46.2104
11
94.4537
21
-46.2858
0
LINE
8
BLACK
6
CONTINUOUS
10
94.4537
20
-46.2858
11
94.6175
21
-46.3952
0
LINE
8
BLACK
6
CONTINUOUS
10
94.6175
20
-46.3952
11
94.7568
21
-46.5345
0
LINE
8
BLACK
6
CONTINUOUS
10
94.7568
20
-46.5345
11
94.8662
21
-46.6983
0
LINE
8
BLACK
6
CONTINUOUS
10
94.8662
20
-46.6983
11
94.9416
21
-46.8803
0
LINE
8
BLACK
6
CONTINUOUS
10
94.9416
20
-46.8803
11
94.98
21
-47.0735
0
LINE
8
BLACK
6
CONTINUOUS
10
94.98
20
-47.0735
11
94.98
21
-47.2705
0
LINE
8
BLACK
6
CONTINUOUS
10
94.98
20
-47.2705
11
94.9416
21
-47.4637
0
LINE
8
BLACK
6
CONTINUOUS
10
94.9416
20
-47.4637
11
94.8662
21
-47.6457
0
LINE
8
BLACK
6
CONTINUOUS
10
94.8662
20
-47.6457
11
94.7568
21
-47.8095
0
LINE
8
BLACK
6
CONTINUOUS
10
94.7568
20
-47.8095
11
94.6175
21
-47.9488
0
LINE
8
BLACK
6
CONTINUOUS
10
94.6175
20
-47.9488
11
94.4537
21
-48.0582
0
LINE
8
BLACK
6
CONTINUOUS
10
94.4537
20
-48.0582
11
94.2717
21
-48.1336
0
LINE
8
BLACK
6
CONTINUOUS
10
94.2717
20
-48.1336
11
94.0785
21
-48.172
0
LINE
8
BLACK
6
CONTINUOUS
10
94.0785
20
-48.172
11
93.8815
21
-48.172
0
LINE
8
BLACK
6
CONTINUOUS
10
93.8815
20
-48.172
11
93.6883
21
-48.1336
0
LINE
8
BLACK
6
CONTINUOUS
10
93.6883
20
-48.1336
11
93.5063
21
-48.0582
0
LINE
8
BLACK
6
CONTINUOUS
10
93.5063
20
-48.0582
11
93.3425
21
-47.9488
0
LINE
8
BLACK
6
CONTINUOUS
10
93.3425
20
-47.9488
11
93.2032
21
-47.8095
0
LINE
8
BLACK
6
CONTINUOUS
10
93.2032
20
-47.8095
11
93.0938
21
-47.6457
0
LINE
8
BLACK
6
CONTINUOUS
10
93.0938
20
-47.6457
11
93.0184
21
-47.4637
0
LINE
8
BLACK
6
CONTINUOUS
10
93.0184
20
-47.4637
11
92.98
21
-47.2705
0
LINE
8
BLACK
6
CONTINUOUS
10
92.98
20
-47.2705
11
92.98
21
-47.0735
0
LINE
8
BLACK
6
CONTINUOUS
10
92.98
20
-47.0735
11
93.0184
21
-46.8803
0
LINE
8
BLACK
6
CONTINUOUS
10
93.0184
20
-46.8803
11
93.0938
21
-46.6983
0
LINE
8
BLACK
6
CONTINUOUS
10
93.0938
20
-46.6983
11
93.2032
21
-46.5345
0
LINE
8
BLACK
6
CONTINUOUS
10
93.2032
20
-46.5345
11
93.3425
21
-46.3952
0
LINE
8
BLACK
6
CONTINUOUS
10
93.3425
20
-46.3952
11
93.5063
21
-46.2858
0
LINE
8
BLACK
6
CONTINUOUS
10
93.5063
20
-46.2858
11
93.6883
21
-46.2104
0
LINE
8
BLACK
6
CONTINUOUS
10
93.6883
20
-46.2104
11
93.8815
21
-46.172
0
LINE
8
BLACK
6
CONTINUOUS
10
93.8815
20
-46.172
11
94.0785
21
-46.172
0
LINE
8
BLACK
6
CONTINUOUS
10
94.0785
20
-46.172
11
94.2717
21
-46.2104
0
LINE
8
BLACK
6
CONTINUOUS
10
100.772
20
-46.2104
11
100.954
21
-46.2858
0
LINE
8
BLACK
6
CONTINUOUS
10
100.954
20
-46.2858
11
101.117
21
-46.3952
0
LINE
8
BLACK
6
CONTINUOUS
10
101.117
20
-46.3952
11
101.257
21
-46.5345
0
LINE
8
BLACK
6
CONTINUOUS
10
101.257
20
-46.5345
11
101.366
21
-46.6983
0
LINE
8
BLACK
6
CONTINUOUS
10
101.366
20
-46.6983
11
101.442
21
-46.8803
0
LINE
8
BLACK
6
CONTINUOUS
10
101.442
20
-46.8803
11
101.48
21
-47.0735
0
LINE
8
BLACK
6
CONTINUOUS
10
101.48
20
-47.0735
11
101.48
21
-47.2705
0
LINE
8
BLACK
6
CONTINUOUS
10
101.48
20
-47.2705
11
101.442
21
-47.4637
0
LINE
8
BLACK
6
CONTINUOUS
10
101.442
20
-47.4637
11
101.366
21
-47.6457
0
LINE
8
BLACK
6
CONTINUOUS
10
101.366
20
-47.6457
11
101.257
21
-47.8095
0
LINE
8
BLACK
6
CONTINUOUS
10
101.257
20
-47.8095
11
101.117
21
-47.9488
0
LINE
8
BLACK
6
CONTINUOUS
10
101.117
20
-47.9488
11
100.954
21
-48.0582
0
LINE
8
BLACK
6
CONTINUOUS
10
100.954
20
-48.0582
11
100.772
21
-48.1336
0
LINE
8
BLACK
6
CONTINUOUS
10
100.772
20
-48.1336
11
100.578
21
-48.172
0
LINE
8
BLACK
6
CONTINUOUS
10
100.578
20
-48.172
11
100.382
21
-48.172
0
LINE
8
BLACK
6
CONTINUOUS
10
100.382
20
-48.172
11
100.188
21
-48.1336
0
LINE
8
BLACK
6
CONTINUOUS
10
100.188
20
-48.1336
11
100.006
21
-48.0582
0
LINE
8
BLACK
6
CONTINUOUS
10
100.006
20
-48.0582
11
99.8425
21
-47.9488
0
LINE
8
BLACK
6
CONTINUOUS
10
99.8425
20
-47.9488
11
99.7032
21
-47.8095
0
LINE
8
BLACK
6
CONTINUOUS
10
99.7032
20
-47.8095
11
99.5938
21
-47.6457
0
LINE
8
BLACK
6
CONTINUOUS
10
99.5938
20
-47.6457
11
99.5184
21
-47.4637
0
LINE
8
BLACK
6
CONTINUOUS
10
99.5184
20
-47.4637
11
99.48
21
-47.2705
0
LINE
8
BLACK
6
CONTINUOUS
10
99.48
20
-47.2705
11
99.48
21
-47.0735
0
LINE
8
BLACK
6
CONTINUOUS
10
99.48
20
-47.0735
11
99.5184
21
-46.8803
0
LINE
8
BLACK
6
CONTINUOUS
10
99.5184
20
-46.8803
11
99.5938
21
-46.6983
0
LINE
8
BLACK
6
CONTINUOUS
10
99.5938
20
-46.6983
11
99.7032
21
-46.5345
0
LINE
8
BLACK
6
CONTINUOUS
10
99.7032
20
-46.5345
11
99.8425
21
-46.3952
0
LINE
8
BLACK
6
CONTINUOUS
10
99.8425
20
-46.3952
11
100.006
21
-46.2858
0
LINE
8
BLACK
6
CONTINUOUS
10
100.006
20
-46.2858
11
100.188
21
-46.2104
0
LINE
8
BLACK
6
CONTINUOUS
10
100.188
20
-46.2104
11
100.382
21
-46.172
0
LINE
8
BLACK
6
CONTINUOUS
10
100.382
20
-46.172
11
100.578
21
-46.172
0
LINE
8
BLACK
6
CONTINUOUS
10
100.578
20
-46.172
11
100.772
21
-46.2104
0
LINE
8
BLACK
6
CONTINUOUS
10
89.5915
20
-44.2776
11
89.8645
21
-44.3907
0
LINE
8
BLACK
6
CONTINUOUS
10
89.8645
20
-44.3907
11
90.1102
21
-44.5549
0
LINE
8
BLACK
6
CONTINUOUS
10
90.1102
20
-44.5549
11
90.3191
21
-44.7638
0
LINE
8
BLACK
6
CONTINUOUS
10
90.3191
20
-44.7638
11
90.4833
21
-45.0095
0
LINE
8
BLACK
6
CONTINUOUS
10
90.4833
20
-45.0095
11
90.5964
21
-45.2825
0
LINE
8
BLACK
6
CONTINUOUS
10
90.5964
20
-45.2825
11
90.654
21
-45.5723
0
LINE
8
BLACK
6
CONTINUOUS
10
90.654
20
-45.5723
11
90.654
21
-45.8677
0
LINE
8
BLACK
6
CONTINUOUS
10
90.654
20
-45.8677
11
90.5964
21
-46.1575
0
LINE
8
BLACK
6
CONTINUOUS
10
90.5964
20
-46.1575
11
90.4833
21
-46.4305
0
LINE
8
BLACK
6
CONTINUOUS
10
90.4833
20
-46.4305
11
90.3191
21
-46.6762
0
LINE
8
BLACK
6
CONTINUOUS
10
90.3191
20
-46.6762
11
90.1102
21
-46.8851
0
LINE
8
BLACK
6
CONTINUOUS
10
90.1102
20
-46.8851
11
89.8645
21
-47.0493
0
LINE
8
BLACK
6
CONTINUOUS
10
89.8645
20
-47.0493
11
89.5915
21
-47.1624
0
LINE
8
BLACK
6
CONTINUOUS
10
89.5915
20
-47.1624
11
89.3017
21
-47.22
0
LINE
8
BLACK
6
CONTINUOUS
10
89.3017
20
-47.22
11
89.0063
21
-47.22
0
LINE
8
BLACK
6
CONTINUOUS
10
89.0063
20
-47.22
11
88.7165
21
-47.1624
0
LINE
8
BLACK
6
CONTINUOUS
10
88.7165
20
-47.1624
11
88.4435
21
-47.0493
0
LINE
8
BLACK
6
CONTINUOUS
10
88.4435
20
-47.0493
11
88.1978
21
-46.8851
0
LINE
8
BLACK
6
CONTINUOUS
10
88.1978
20
-46.8851
11
87.9889
21
-46.6762
0
LINE
8
BLACK
6
CONTINUOUS
10
87.9889
20
-46.6762
11
87.8247
21
-46.4305
0
LINE
8
BLACK
6
CONTINUOUS
10
87.8247
20
-46.4305
11
87.7116
21
-46.1575
0
LINE
8
BLACK
6
CONTINUOUS
10
87.7116
20
-46.1575
11
87.654
21
-45.8677
0
LINE
8
BLACK
6
CONTINUOUS
10
87.654
20
-45.8677
11
87.654
21
-45.5723
0
LINE
8
BLACK
6
CONTINUOUS
10
87.654
20
-45.5723
11
87.7116
21
-45.2825
0
LINE
8
BLACK
6
CONTINUOUS
10
87.7116
20
-45.2825
11
87.8247
21
-45.0095
0
LINE
8
BLACK
6
CONTINUOUS
10
87.8247
20
-45.0095
11
87.9889
21
-44.7638
0
LINE
8
BLACK
6
CONTINUOUS
10
87.9889
20
-44.7638
11
88.1978
21
-44.5549
0
LINE
8
BLACK
6
CONTINUOUS
10
88.1978
20
-44.5549
11
88.4435
21
-44.3907
0
LINE
8
BLACK
6
CONTINUOUS
10
88.4435
20
-44.3907
11
88.7165
21
-44.2776
0
LINE
8
BLACK
6
CONTINUOUS
10
88.7165
20
-44.2776
11
89.0063
21
-44.22
0
LINE
8
BLACK
6
CONTINUOUS
10
89.0063
20
-44.22
11
89.3017
21
-44.22
0
LINE
8
BLACK
6
CONTINUOUS
10
89.3017
20
-44.22
11
89.5915
21
-44.2776
0
LINE
8
BLACK
6
CONTINUOUS
10
85.574
20
-47.22
11
82.574
21
-47.22
0
LINE
8
BLACK
6
CONTINUOUS
10
82.574
20
-47.22
11
82.574
21
-44.22
0
LINE
8
BLACK
6
CONTINUOUS
10
82.574
20
-44.22
11
85.574
21
-44.22
0
LINE
8
BLACK
6
CONTINUOUS
10
85.574
20
-44.22
11
85.574
21
-47.22
0
LINE
8
BLACK
6
CONTINUOUS
10
58.2791
20
-41.3113
11
58.825
21
-41.5374
0
LINE
8
BLACK
6
CONTINUOUS
10
58.825
20
-41.5374
11
59.3164
21
-41.8657
0
LINE
8
BLACK
6
CONTINUOUS
10
59.3164
20
-41.8657
11
59.7343
21
-42.2836
0
LINE
8
BLACK
6
CONTINUOUS
10
59.7343
20
-42.2836
11
60.0626
21
-42.775
0
LINE
8
BLACK
6
CONTINUOUS
10
60.0626
20
-42.775
11
60.2887
21
-43.3209
0
LINE
8
BLACK
6
CONTINUOUS
10
60.2887
20
-43.3209
11
60.404
21
-43.9005
0
LINE
8
BLACK
6
CONTINUOUS
10
60.404
20
-43.9005
11
60.404
21
-44.4915
0
LINE
8
BLACK
6
CONTINUOUS
10
60.404
20
-44.4915
11
60.2887
21
-45.0711
0
LINE
8
BLACK
6
CONTINUOUS
10
60.2887
20
-45.0711
11
60.0626
21
-45.617
0
LINE
8
BLACK
6
CONTINUOUS
10
60.0626
20
-45.617
11
59.7343
21
-46.1084
0
LINE
8
BLACK
6
CONTINUOUS
10
59.7343
20
-46.1084
11
59.3164
21
-46.5263
0
LINE
8
BLACK
6
CONTINUOUS
10
59.3164
20
-46.5263
11
58.825
21
-46.8546
0
LINE
8
BLACK
6
CONTINUOUS
10
58.825
20
-46.8546
11
58.2791
21
-47.0807
0
LINE
8
BLACK
6
CONTINUOUS
10
58.2791
20
-47.0807
11
57.6995
21
-47.196
0
LINE
8
BLACK
6
CONTINUOUS
10
57.6995
20
-47.196
11
57.1085
21
-47.196
0
LINE
8
BLACK
6
CONTINUOUS
10
57.1085
20
-47.196
11
56.5289
21
-47.0807
0
LINE
8
BLACK
6
CONTINUOUS
10
56.5289
20
-47.0807
11
55.983
21
-46.8546
0
LINE
8
BLACK
6
CONTINUOUS
10
55.983
20
-46.8546
11
55.4916
21
-46.5263
0
LINE
8
BLACK
6
CONTINUOUS
10
55.4916
20
-46.5263
11
55.0737
21
-46.1084
0
LINE
8
BLACK
6
CONTINUOUS
10
55.0737
20
-46.1084
11
54.7454
21
-45.617
0
LINE
8
BLACK
6
CONTINUOUS
10
54.7454
20
-45.617
11
54.5193
21
-45.0711
0
LINE
8
BLACK
6
CONTINUOUS
10
54.5193
20
-45.0711
11
54.404
21
-44.4915
0
LINE
8
BLACK
6
CONTINUOUS
10
54.404
20
-44.4915
11
54.404
21
-43.9005
0
LINE
8
BLACK
6
CONTINUOUS
10
54.404
20
-43.9005
11
54.5193
21
-43.3209
0
LINE
8
BLACK
6
CONTINUOUS
10
54.5193
20
-43.3209
11
54.7454
21
-42.775
0
LINE
8
BLACK
6
CONTINUOUS
10
54.7454
20
-42.775
11
55.0737
21
-42.2836
0
LINE
8
BLACK
6
CONTINUOUS
10
55.0737
20
-42.2836
11
55.4916
21
-41.8657
0
LINE
8
BLACK
6
CONTINUOUS
10
55.4916
20
-41.8657
11
55.983
21
-41.5374
0
LINE
8
BLACK
6
CONTINUOUS
10
55.983
20
-41.5374
11
56.5289
21
-41.3113
0
LINE
8
BLACK
6
CONTINUOUS
10
56.5289
20
-41.3113
11
57.1085
21
-41.196
0
LINE
8
BLACK
6
CONTINUOUS
10
57.1085
20
-41.196
11
57.6995
21
-41.196
0
LINE
8
BLACK
6
CONTINUOUS
10
57.6995
20
-41.196
11
58.2791
21
-41.3113
0
LINE
8
BLACK
6
CONTINUOUS
10
46.0871
20
-41.3113
11
46.633
21
-41.5374
0
LINE
8
BLACK
6
CONTINUOUS
10
46.633
20
-41.5374
11
47.1244
21
-41.8657
0
LINE
8
BLACK
6
CONTINUOUS
10
47.1244
20
-41.8657
11
47.5423
21
-42.2836
0
LINE
8
BLACK
6
CONTINUOUS
10
47.5423
20
-42.2836
11
47.8706
21
-42.775
0
LINE
8
BLACK
6
CONTINUOUS
10
47.8706
20
-42.775
11
48.0967
21
-43.3209
0
LINE
8
BLACK
6
CONTINUOUS
10
48.0967
20
-43.3209
11
48.212
21
-43.9005
0
LINE
8
BLACK
6
CONTINUOUS
10
48.212
20
-43.9005
11
48.212
21
-44.4915
0
LINE
8
BLACK
6
CONTINUOUS
10
48.212
20
-44.4915
11
48.0967
21
-45.0711
0
LINE
8
BLACK
6
CONTINUOUS
10
48.0967
20
-45.0711
11
47.8706
21
-45.617
0
LINE
8
BLACK
6
CONTINUOUS
10
47.8706
20
-45.617
11
47.5423
21
-46.1084
0
LINE
8
BLACK
6
CONTINUOUS
10
47.5423
20
-46.1084
11
47.1244
21
-46.5263
0
LINE
8
BLACK
6
CONTINUOUS
10
47.1244
20
-46.5263
11
46.633
21
-46.8546
0
LINE
8
BLACK
6
CONTINUOUS
10
46.633
20
-46.8546
11
46.0871
21
-47.0807
0
LINE
8
BLACK
6
CONTINUOUS
10
46.0871
20
-47.0807
11
45.5075
21
-47.196
0
LINE
8
BLACK
6
CONTINUOUS
10
45.5075
20
-47.196
11
44.9165
21
-47.196
0
LINE
8
BLACK
6
CONTINUOUS
10
44.9165
20
-47.196
11
44.3369
21
-47.0807
0
LINE
8
BLACK
6
CONTINUOUS
10
44.3369
20
-47.0807
11
43.791
21
-46.8546
0
LINE
8
BLACK
6
CONTINUOUS
10
43.791
20
-46.8546
11
43.2996
21
-46.5263
0
LINE
8
BLACK
6
CONTINUOUS
10
43.2996
20
-46.5263
11
42.8817
21
-46.1084
0
LINE
8
BLACK
6
CONTINUOUS
10
42.8817
20
-46.1084
11
42.5534
21
-45.617
0
LINE
8
BLACK
6
CONTINUOUS
10
42.5534
20
-45.617
11
42.3273
21
-45.0711
0
LINE
8
BLACK
6
CONTINUOUS
10
42.3273
20
-45.0711
11
42.212
21
-44.4915
0
LINE
8
BLACK
6
CONTINUOUS
10
42.212
20
-44.4915
11
42.212
21
-43.9005
0
LINE
8
BLACK
6
CONTINUOUS
10
42.212
20
-43.9005
11
42.3273
21
-43.3209
0
LINE
8
BLACK
6
CONTINUOUS
10
42.3273
20
-43.3209
11
42.5534
21
-42.775
0
LINE
8
BLACK
6
CONTINUOUS
10
42.5534
20
-42.775
11
42.8817
21
-42.2836
0
LINE
8
BLACK
6
CONTINUOUS
10
42.8817
20
-42.2836
11
43.2996
21
-41.8657
0
LINE
8
BLACK
6
CONTINUOUS
10
43.2996
20
-41.8657
11
43.791
21
-41.5374
0
LINE
8
BLACK
6
CONTINUOUS
10
43.791
20
-41.5374
11
44.3369
21
-41.3113
0
LINE
8
BLACK
6
CONTINUOUS
10
44.3369
20
-41.3113
11
44.9165
21
-41.196
0
LINE
8
BLACK
6
CONTINUOUS
10
44.9165
20
-41.196
11
45.5075
21
-41.196
0
LINE
8
BLACK
6
CONTINUOUS
10
45.5075
20
-41.196
11
46.0871
21
-41.3113
0
LINE
8
BLACK
6
CONTINUOUS
10
107.272
20
-45.804
11
105.072
21
-45.804
0
LINE
8
BLACK
6
CONTINUOUS
10
105.072
20
-45.804
11
105.072
21
-43.604
0
LINE
8
BLACK
6
CONTINUOUS
10
105.072
20
-43.604
11
107.272
21
-43.604
0
LINE
8
BLACK
6
CONTINUOUS
10
107.272
20
-43.604
11
107.272
21
-45.804
0
LINE
8
BLACK
6
CONTINUOUS
10
114.892
20
-45.804
11
112.692
21
-45.804
0
LINE
8
BLACK
6
CONTINUOUS
10
112.692
20
-45.804
11
112.692
21
-43.604
0
LINE
8
BLACK
6
CONTINUOUS
10
112.692
20
-43.604
11
114.892
21
-43.604
0
LINE
8
BLACK
6
CONTINUOUS
10
114.892
20
-43.604
11
114.892
21
-45.804
0
LINE
8
BLACK
6
CONTINUOUS
10
76.3303
20
-42.2984
11
76.471
21
-42.3411
0
LINE
8
BLACK
6
CONTINUOUS
10
76.471
20
-42.3411
11
76.6007
21
-42.4104
0
LINE
8
BLACK
6
CONTINUOUS
10
76.6007
20
-42.4104
11
76.7143
21
-42.5037
0
LINE
8
BLACK
6
CONTINUOUS
10
76.7143
20
-42.5037
11
76.8076
21
-42.6173
0
LINE
8
BLACK
6
CONTINUOUS
10
76.8076
20
-42.6173
11
76.8769
21
-42.747
0
LINE
8
BLACK
6
CONTINUOUS
10
76.8769
20
-42.747
11
76.9196
21
-42.8877
0
LINE
8
BLACK
6
CONTINUOUS
10
76.9196
20
-42.8877
11
76.934
21
-43.034
0
LINE
8
BLACK
6
CONTINUOUS
10
76.934
20
-43.034
11
76.934
21
-44.534
0
LINE
8
BLACK
6
CONTINUOUS
10
76.934
20
-44.534
11
76.9196
21
-44.6803
0
LINE
8
BLACK
6
CONTINUOUS
10
76.9196
20
-44.6803
11
76.8769
21
-44.821
0
LINE
8
BLACK
6
CONTINUOUS
10
76.8769
20
-44.821
11
76.8076
21
-44.9507
0
LINE
8
BLACK
6
CONTINUOUS
10
76.8076
20
-44.9507
11
76.7143
21
-45.0643
0
LINE
8
BLACK
6
CONTINUOUS
10
76.7143
20
-45.0643
11
76.6007
21
-45.1576
0
LINE
8
BLACK
6
CONTINUOUS
10
76.6007
20
-45.1576
11
76.471
21
-45.2269
0
LINE
8
BLACK
6
CONTINUOUS
10
76.471
20
-45.2269
11
76.3303
21
-45.2696
0
LINE
8
BLACK
6
CONTINUOUS
10
76.3303
20
-45.2696
11
76.184
21
-45.284
0
LINE
8
BLACK
6
CONTINUOUS
10
76.184
20
-45.284
11
74.184
21
-45.284
0
LINE
8
BLACK
6
CONTINUOUS
10
74.184
20
-45.284
11
74.0377
21
-45.2696
0
LINE
8
BLACK
6
CONTINUOUS
10
74.0377
20
-45.2696
11
73.897
21
-45.2269
0
LINE
8
BLACK
6
CONTINUOUS
10
73.897
20
-45.2269
11
73.7673
21
-45.1576
0
LINE
8
BLACK
6
CONTINUOUS
10
73.7673
20
-45.1576
11
73.6537
21
-45.0643
0
LINE
8
BLACK
6
CONTINUOUS
10
73.6537
20
-45.0643
11
73.5604
21
-44.9507
0
LINE
8
BLACK
6
CONTINUOUS
10
73.5604
20
-44.9507
11
73.4911
21
-44.821
0
LINE
8
BLACK
6
CONTINUOUS
10
73.4911
20
-44.821
11
73.4484
21
-44.6803
0
LINE
8
BLACK
6
CONTINUOUS
10
73.4484
20
-44.6803
11
73.434
21
-44.534
0
LINE
8
BLACK
6
CONTINUOUS
10
73.434
20
-44.534
11
73.434
21
-43.034
0
LINE
8
BLACK
6
CONTINUOUS
10
73.434
20
-43.034
11
73.4484
21
-42.8877
0
LINE
8
BLACK
6
CONTINUOUS
10
73.4484
20
-42.8877
11
73.4911
21
-42.747
0
LINE
8
BLACK
6
CONTINUOUS
10
73.4911
20
-42.747
11
73.5604
21
-42.6173
0
LINE
8
BLACK
6
CONTINUOUS
10
73.5604
20
-42.6173
11
73.6537
21
-42.5037
0
LINE
8
BLACK
6
CONTINUOUS
10
73.6537
20
-42.5037
11
73.7673
21
-42.4104
0
LINE
8
BLACK
6
CONTINUOUS
10
73.7673
20
-42.4104
11
73.897
21
-42.3411
0
LINE
8
BLACK
6
CONTINUOUS
10
73.897
20
-42.3411
11
74.0377
21
-42.2984
0
LINE
8
BLACK
6
CONTINUOUS
10
74.0377
20
-42.2984
11
74.184
21
-42.284
0
LINE
8
BLACK
6
CONTINUOUS
10
74.184
20
-42.284
11
76.184
21
-42.284
0
LINE
8
BLACK
6
CONTINUOUS
10
76.184
20
-42.284
11
76.3303
21
-42.2984
0
LINE
8
BLACK
6
CONTINUOUS
10
94.2717
20
-41.7104
11
94.4537
21
-41.7858
0
LINE
8
BLACK
6
CONTINUOUS
10
94.4537
20
-41.7858
11
94.6175
21
-41.8952
0
LINE
8
BLACK
6
CONTINUOUS
10
94.6175
20
-41.8952
11
94.7568
21
-42.0345
0
LINE
8
BLACK
6
CONTINUOUS
10
94.7568
20
-42.0345
11
94.8486
21
-42.172
0
LINE
8
BLACK
6
CONTINUOUS
10
94.8486
20
-42.172
11
99.6114
21
-42.172
0
LINE
8
BLACK
6
CONTINUOUS
10
99.6114
20
-42.172
11
99.7032
21
-42.0345
0
LINE
8
BLACK
6
CONTINUOUS
10
99.7032
20
-42.0345
11
99.8425
21
-41.8952
0
LINE
8
BLACK
6
CONTINUOUS
10
99.8425
20
-41.8952
11
100.006
21
-41.7858
0
LINE
8
BLACK
6
CONTINUOUS
10
100.006
20
-41.7858
11
100.188
21
-41.7104
0
LINE
8
BLACK
6
CONTINUOUS
10
100.188
20
-41.7104
11
100.382
21
-41.672
0
LINE
8
BLACK
6
CONTINUOUS
10
100.382
20
-41.672
11
100.578
21
-41.672
0
LINE
8
BLACK
6
CONTINUOUS
10
100.578
20
-41.672
11
100.772
21
-41.7104
0
LINE
8
BLACK
6
CONTINUOUS
10
100.772
20
-41.7104
11
100.954
21
-41.7858
0
LINE
8
BLACK
6
CONTINUOUS
10
100.954
20
-41.7858
11
101.117
21
-41.8952
0
LINE
8
BLACK
6
CONTINUOUS
10
101.117
20
-41.8952
11
101.257
21
-42.0345
0
LINE
8
BLACK
6
CONTINUOUS
10
101.257
20
-42.0345
11
101.366
21
-42.1983
0
LINE
8
BLACK
6
CONTINUOUS
10
101.366
20
-42.1983
11
101.442
21
-42.3803
0
LINE
8
BLACK
6
CONTINUOUS
10
101.442
20
-42.3803
11
101.48
21
-42.5735
0
LINE
8
BLACK
6
CONTINUOUS
10
101.48
20
-42.5735
11
101.48
21
-42.7705
0
LINE
8
BLACK
6
CONTINUOUS
10
101.48
20
-42.7705
11
101.442
21
-42.9637
0
LINE
8
BLACK
6
CONTINUOUS
10
101.442
20
-42.9637
11
101.366
21
-43.1457
0
LINE
8
BLACK
6
CONTINUOUS
10
101.366
20
-43.1457
11
101.257
21
-43.3095
0
LINE
8
BLACK
6
CONTINUOUS
10
101.257
20
-43.3095
11
101.117
21
-43.4488
0
LINE
8
BLACK
6
CONTINUOUS
10
101.117
20
-43.4488
11
100.954
21
-43.5582
0
LINE
8
BLACK
6
CONTINUOUS
10
100.954
20
-43.5582
11
100.772
21
-43.6336
0
LINE
8
BLACK
6
CONTINUOUS
10
100.772
20
-43.6336
11
100.578
21
-43.672
0
LINE
8
BLACK
6
CONTINUOUS
10
100.578
20
-43.672
11
100.382
21
-43.672
0
LINE
8
BLACK
6
CONTINUOUS
10
100.382
20
-43.672
11
100.188
21
-43.6336
0
LINE
8
BLACK
6
CONTINUOUS
10
100.188
20
-43.6336
11
100.006
21
-43.5582
0
LINE
8
BLACK
6
CONTINUOUS
10
100.006
20
-43.5582
11
99.8425
21
-43.4488
0
LINE
8
BLACK
6
CONTINUOUS
10
99.8425
20
-43.4488
11
99.7032
21
-43.3095
0
LINE
8
BLACK
6
CONTINUOUS
10
99.7032
20
-43.3095
11
99.6114
21
-43.172
0
LINE
8
BLACK
6
CONTINUOUS
10
99.6114
20
-43.172
11
94.8486
21
-43.172
0
LINE
8
BLACK
6
CONTINUOUS
10
94.8486
20
-43.172
11
94.7568
21
-43.3095
0
LINE
8
BLACK
6
CONTINUOUS
10
94.7568
20
-43.3095
11
94.6175
21
-43.4488
0
LINE
8
BLACK
6
CONTINUOUS
10
94.6175
20
-43.4488
11
94.4537
21
-43.5582
0
LINE
8
BLACK
6
CONTINUOUS
10
94.4537
20
-43.5582
11
94.2717
21
-43.6336
0
LINE
8
BLACK
6
CONTINUOUS
10
94.2717
20
-43.6336
11
94.0785
21
-43.672
0
LINE
8
BLACK
6
CONTINUOUS
10
94.0785
20
-43.672
11
93.8815
21
-43.672
0
LINE
8
BLACK
6
CONTINUOUS
10
93.8815
20
-43.672
11
93.6883
21
-43.6336
0
LINE
8
BLACK
6
CONTINUOUS
10
93.6883
20
-43.6336
11
93.5063
21
-43.5582
0
LINE
8
BLACK
6
CONTINUOUS
10
93.5063
20
-43.5582
11
93.3425
21
-43.4488
0
LINE
8
BLACK
6
CONTINUOUS
10
93.3425
20
-43.4488
11
93.2032
21
-43.3095
0
LINE
8
BLACK
6
CONTINUOUS
10
93.2032
20
-43.3095
11
93.0938
21
-43.1457
0
LINE
8
BLACK
6
CONTINUOUS
10
93.0938
20
-43.1457
11
93.0184
21
-42.9637
0
LINE
8
BLACK
6
CONTINUOUS
10
93.0184
20
-42.9637
11
92.98
21
-42.7705
0
LINE
8
BLACK
6
CONTINUOUS
10
92.98
20
-42.7705
11
92.98
21
-42.5735
0
LINE
8
BLACK
6
CONTINUOUS
10
92.98
20
-42.5735
11
93.0184
21
-42.3803
0
LINE
8
BLACK
6
CONTINUOUS
10
93.0184
20
-42.3803
11
93.0938
21
-42.1983
0
LINE
8
BLACK
6
CONTINUOUS
10
93.0938
20
-42.1983
11
93.2032
21
-42.0345
0
LINE
8
BLACK
6
CONTINUOUS
10
93.2032
20
-42.0345
11
93.3425
21
-41.8952
0
LINE
8
BLACK
6
CONTINUOUS
10
93.3425
20
-41.8952
11
93.5063
21
-41.7858
0
LINE
8
BLACK
6
CONTINUOUS
10
93.5063
20
-41.7858
11
93.6883
21
-41.7104
0
LINE
8
BLACK
6
CONTINUOUS
10
93.6883
20
-41.7104
11
93.8815
21
-41.672
0
LINE
8
BLACK
6
CONTINUOUS
10
93.8815
20
-41.672
11
94.0785
21
-41.672
0
LINE
8
BLACK
6
CONTINUOUS
10
94.0785
20
-41.672
11
94.2717
21
-41.7104
0
CIRCLE
8
BLACK
10
121.412
20
-106.172
40
1
0
CIRCLE
8
BLACK
10
57.658
20
-102.87
40
1
0
CIRCLE
8
BLACK
10
45.212
20
-44.196
40
1
0
CIRCLE
8
BLACK
10
57.404
20
-44.196
40
1
0
CIRCLE
8
BLACK
10
109.982
20
-57.912
40
0.4
0
CIRCLE
8
BLACK
10
109.886
20
-65.278
40
0.4
0
CIRCLE
8
BLACK
10
102.362
20
-73.152
40
0.45
0
CIRCLE
8
BLACK
10
102.616
20
-78.232
40
0.4
  0
ENDSEC
  0
EOF
