G04 #@! TF.GenerationSoftware,KiCad,Pcbnew,(5.1.2)-2*
G04 #@! TF.CreationDate,2020-05-15T03:36:29+07:00*
G04 #@! TF.ProjectId,raspberypi_data,72617370-6265-4727-9970-695f64617461,rev?*
G04 #@! TF.SameCoordinates,Original*
G04 #@! TF.FileFunction,Legend,Top*
G04 #@! TF.FilePolarity,Positive*
%FSLAX46Y46*%
G04 Gerber Fmt 4.6, Leading zero omitted, Abs format (unit mm)*
G04 Created by KiCad (PCBNEW (5.1.2)-2) date 2020-05-15 03:36:29*
%MOMM*%
%LPD*%
G04 APERTURE LIST*
%ADD10C,0.150000*%
%ADD11C,0.120000*%
G04 APERTURE END LIST*
D10*
X120904000Y-38862000D02*
X67564000Y-38862000D01*
X108204000Y-104902000D02*
X119380000Y-104902000D01*
X105664000Y-107442000D02*
X108204000Y-104902000D01*
X71374000Y-107442000D02*
X105664000Y-107442000D01*
X68834000Y-104902000D02*
X71374000Y-107442000D01*
X67564000Y-104902000D02*
X68834000Y-104902000D01*
X120904000Y-103378000D02*
X119380000Y-104902000D01*
X67564000Y-38862000D02*
X67564000Y-104902000D01*
X120904000Y-38862000D02*
X120904000Y-103378000D01*
D11*
X51308000Y-103438000D02*
X49978000Y-103438000D01*
X49978000Y-103438000D02*
X49978000Y-102108000D01*
X49978000Y-100838000D02*
X49978000Y-52518000D01*
X52638000Y-52518000D02*
X49978000Y-52518000D01*
X52638000Y-100838000D02*
X52638000Y-52518000D01*
X52638000Y-100838000D02*
X49978000Y-100838000D01*
X65846000Y-100838000D02*
X63186000Y-100838000D01*
X65846000Y-100838000D02*
X65846000Y-52518000D01*
X65846000Y-52518000D02*
X63186000Y-52518000D01*
X63186000Y-100838000D02*
X63186000Y-52518000D01*
X63186000Y-103438000D02*
X63186000Y-102108000D01*
X64516000Y-103438000D02*
X63186000Y-103438000D01*
X44510000Y-75692000D02*
X41850000Y-75692000D01*
X44510000Y-75692000D02*
X44510000Y-52772000D01*
X44510000Y-52772000D02*
X41850000Y-52772000D01*
X41850000Y-75692000D02*
X41850000Y-52772000D01*
X41850000Y-78292000D02*
X41850000Y-76962000D01*
X43180000Y-78292000D02*
X41850000Y-78292000D01*
X44510000Y-99314000D02*
X41850000Y-99314000D01*
X44510000Y-99314000D02*
X44510000Y-81474000D01*
X44510000Y-81474000D02*
X41850000Y-81474000D01*
X41850000Y-99314000D02*
X41850000Y-81474000D01*
X41850000Y-101914000D02*
X41850000Y-100584000D01*
X43180000Y-101914000D02*
X41850000Y-101914000D01*
X87069000Y-52039225D02*
X86569000Y-52039225D01*
X86819000Y-51789225D02*
X86819000Y-52289225D01*
X85628000Y-57195000D02*
X85060000Y-57195000D01*
X85862000Y-57155000D02*
X84826000Y-57155000D01*
X86021000Y-57115000D02*
X84667000Y-57115000D01*
X86149000Y-57075000D02*
X84539000Y-57075000D01*
X86259000Y-57035000D02*
X84429000Y-57035000D01*
X86355000Y-56995000D02*
X84333000Y-56995000D01*
X86442000Y-56955000D02*
X84246000Y-56955000D01*
X86522000Y-56915000D02*
X84166000Y-56915000D01*
X86595000Y-56875000D02*
X84093000Y-56875000D01*
X86663000Y-56835000D02*
X84025000Y-56835000D01*
X86727000Y-56795000D02*
X83961000Y-56795000D01*
X86787000Y-56755000D02*
X83901000Y-56755000D01*
X86844000Y-56715000D02*
X83844000Y-56715000D01*
X86898000Y-56675000D02*
X83790000Y-56675000D01*
X86949000Y-56635000D02*
X83739000Y-56635000D01*
X84304000Y-56595000D02*
X83691000Y-56595000D01*
X86997000Y-56595000D02*
X86384000Y-56595000D01*
X84304000Y-56555000D02*
X83645000Y-56555000D01*
X87043000Y-56555000D02*
X86384000Y-56555000D01*
X84304000Y-56515000D02*
X83601000Y-56515000D01*
X87087000Y-56515000D02*
X86384000Y-56515000D01*
X84304000Y-56475000D02*
X83559000Y-56475000D01*
X87129000Y-56475000D02*
X86384000Y-56475000D01*
X84304000Y-56435000D02*
X83518000Y-56435000D01*
X87170000Y-56435000D02*
X86384000Y-56435000D01*
X84304000Y-56395000D02*
X83480000Y-56395000D01*
X87208000Y-56395000D02*
X86384000Y-56395000D01*
X84304000Y-56355000D02*
X83443000Y-56355000D01*
X87245000Y-56355000D02*
X86384000Y-56355000D01*
X84304000Y-56315000D02*
X83407000Y-56315000D01*
X87281000Y-56315000D02*
X86384000Y-56315000D01*
X84304000Y-56275000D02*
X83373000Y-56275000D01*
X87315000Y-56275000D02*
X86384000Y-56275000D01*
X84304000Y-56235000D02*
X83340000Y-56235000D01*
X87348000Y-56235000D02*
X86384000Y-56235000D01*
X84304000Y-56195000D02*
X83309000Y-56195000D01*
X87379000Y-56195000D02*
X86384000Y-56195000D01*
X84304000Y-56155000D02*
X83279000Y-56155000D01*
X87409000Y-56155000D02*
X86384000Y-56155000D01*
X84304000Y-56115000D02*
X83249000Y-56115000D01*
X87439000Y-56115000D02*
X86384000Y-56115000D01*
X84304000Y-56075000D02*
X83222000Y-56075000D01*
X87466000Y-56075000D02*
X86384000Y-56075000D01*
X84304000Y-56035000D02*
X83195000Y-56035000D01*
X87493000Y-56035000D02*
X86384000Y-56035000D01*
X84304000Y-55995000D02*
X83169000Y-55995000D01*
X87519000Y-55995000D02*
X86384000Y-55995000D01*
X84304000Y-55955000D02*
X83144000Y-55955000D01*
X87544000Y-55955000D02*
X86384000Y-55955000D01*
X84304000Y-55915000D02*
X83120000Y-55915000D01*
X87568000Y-55915000D02*
X86384000Y-55915000D01*
X84304000Y-55875000D02*
X83097000Y-55875000D01*
X87591000Y-55875000D02*
X86384000Y-55875000D01*
X84304000Y-55835000D02*
X83076000Y-55835000D01*
X87612000Y-55835000D02*
X86384000Y-55835000D01*
X84304000Y-55795000D02*
X83054000Y-55795000D01*
X87634000Y-55795000D02*
X86384000Y-55795000D01*
X84304000Y-55755000D02*
X83034000Y-55755000D01*
X87654000Y-55755000D02*
X86384000Y-55755000D01*
X84304000Y-55715000D02*
X83015000Y-55715000D01*
X87673000Y-55715000D02*
X86384000Y-55715000D01*
X84304000Y-55675000D02*
X82996000Y-55675000D01*
X87692000Y-55675000D02*
X86384000Y-55675000D01*
X84304000Y-55635000D02*
X82979000Y-55635000D01*
X87709000Y-55635000D02*
X86384000Y-55635000D01*
X84304000Y-55595000D02*
X82962000Y-55595000D01*
X87726000Y-55595000D02*
X86384000Y-55595000D01*
X84304000Y-55555000D02*
X82946000Y-55555000D01*
X87742000Y-55555000D02*
X86384000Y-55555000D01*
X84304000Y-55515000D02*
X82930000Y-55515000D01*
X87758000Y-55515000D02*
X86384000Y-55515000D01*
X84304000Y-55475000D02*
X82916000Y-55475000D01*
X87772000Y-55475000D02*
X86384000Y-55475000D01*
X84304000Y-55435000D02*
X82902000Y-55435000D01*
X87786000Y-55435000D02*
X86384000Y-55435000D01*
X84304000Y-55395000D02*
X82889000Y-55395000D01*
X87799000Y-55395000D02*
X86384000Y-55395000D01*
X84304000Y-55355000D02*
X82876000Y-55355000D01*
X87812000Y-55355000D02*
X86384000Y-55355000D01*
X84304000Y-55315000D02*
X82864000Y-55315000D01*
X87824000Y-55315000D02*
X86384000Y-55315000D01*
X84304000Y-55274000D02*
X82853000Y-55274000D01*
X87835000Y-55274000D02*
X86384000Y-55274000D01*
X84304000Y-55234000D02*
X82843000Y-55234000D01*
X87845000Y-55234000D02*
X86384000Y-55234000D01*
X84304000Y-55194000D02*
X82833000Y-55194000D01*
X87855000Y-55194000D02*
X86384000Y-55194000D01*
X84304000Y-55154000D02*
X82824000Y-55154000D01*
X87864000Y-55154000D02*
X86384000Y-55154000D01*
X84304000Y-55114000D02*
X82816000Y-55114000D01*
X87872000Y-55114000D02*
X86384000Y-55114000D01*
X84304000Y-55074000D02*
X82808000Y-55074000D01*
X87880000Y-55074000D02*
X86384000Y-55074000D01*
X84304000Y-55034000D02*
X82801000Y-55034000D01*
X87887000Y-55034000D02*
X86384000Y-55034000D01*
X84304000Y-54994000D02*
X82794000Y-54994000D01*
X87894000Y-54994000D02*
X86384000Y-54994000D01*
X84304000Y-54954000D02*
X82788000Y-54954000D01*
X87900000Y-54954000D02*
X86384000Y-54954000D01*
X84304000Y-54914000D02*
X82783000Y-54914000D01*
X87905000Y-54914000D02*
X86384000Y-54914000D01*
X84304000Y-54874000D02*
X82779000Y-54874000D01*
X87909000Y-54874000D02*
X86384000Y-54874000D01*
X84304000Y-54834000D02*
X82775000Y-54834000D01*
X87913000Y-54834000D02*
X86384000Y-54834000D01*
X84304000Y-54794000D02*
X82771000Y-54794000D01*
X87917000Y-54794000D02*
X86384000Y-54794000D01*
X84304000Y-54754000D02*
X82768000Y-54754000D01*
X87920000Y-54754000D02*
X86384000Y-54754000D01*
X84304000Y-54714000D02*
X82766000Y-54714000D01*
X87922000Y-54714000D02*
X86384000Y-54714000D01*
X84304000Y-54674000D02*
X82765000Y-54674000D01*
X87923000Y-54674000D02*
X86384000Y-54674000D01*
X87924000Y-54634000D02*
X86384000Y-54634000D01*
X84304000Y-54634000D02*
X82764000Y-54634000D01*
X87924000Y-54594000D02*
X86384000Y-54594000D01*
X84304000Y-54594000D02*
X82764000Y-54594000D01*
X87964000Y-54594000D02*
G75*
G03X87964000Y-54594000I-2620000J0D01*
G01*
X95060000Y-78740000D02*
G75*
G03X95060000Y-78740000I-2620000J0D01*
G01*
X92440000Y-79780000D02*
X92440000Y-81320000D01*
X92440000Y-76160000D02*
X92440000Y-77700000D01*
X92480000Y-79780000D02*
X92480000Y-81320000D01*
X92480000Y-76160000D02*
X92480000Y-77700000D01*
X92520000Y-76161000D02*
X92520000Y-77700000D01*
X92520000Y-79780000D02*
X92520000Y-81319000D01*
X92560000Y-76162000D02*
X92560000Y-77700000D01*
X92560000Y-79780000D02*
X92560000Y-81318000D01*
X92600000Y-76164000D02*
X92600000Y-77700000D01*
X92600000Y-79780000D02*
X92600000Y-81316000D01*
X92640000Y-76167000D02*
X92640000Y-77700000D01*
X92640000Y-79780000D02*
X92640000Y-81313000D01*
X92680000Y-76171000D02*
X92680000Y-77700000D01*
X92680000Y-79780000D02*
X92680000Y-81309000D01*
X92720000Y-76175000D02*
X92720000Y-77700000D01*
X92720000Y-79780000D02*
X92720000Y-81305000D01*
X92760000Y-76179000D02*
X92760000Y-77700000D01*
X92760000Y-79780000D02*
X92760000Y-81301000D01*
X92800000Y-76184000D02*
X92800000Y-77700000D01*
X92800000Y-79780000D02*
X92800000Y-81296000D01*
X92840000Y-76190000D02*
X92840000Y-77700000D01*
X92840000Y-79780000D02*
X92840000Y-81290000D01*
X92880000Y-76197000D02*
X92880000Y-77700000D01*
X92880000Y-79780000D02*
X92880000Y-81283000D01*
X92920000Y-76204000D02*
X92920000Y-77700000D01*
X92920000Y-79780000D02*
X92920000Y-81276000D01*
X92960000Y-76212000D02*
X92960000Y-77700000D01*
X92960000Y-79780000D02*
X92960000Y-81268000D01*
X93000000Y-76220000D02*
X93000000Y-77700000D01*
X93000000Y-79780000D02*
X93000000Y-81260000D01*
X93040000Y-76229000D02*
X93040000Y-77700000D01*
X93040000Y-79780000D02*
X93040000Y-81251000D01*
X93080000Y-76239000D02*
X93080000Y-77700000D01*
X93080000Y-79780000D02*
X93080000Y-81241000D01*
X93120000Y-76249000D02*
X93120000Y-77700000D01*
X93120000Y-79780000D02*
X93120000Y-81231000D01*
X93161000Y-76260000D02*
X93161000Y-77700000D01*
X93161000Y-79780000D02*
X93161000Y-81220000D01*
X93201000Y-76272000D02*
X93201000Y-77700000D01*
X93201000Y-79780000D02*
X93201000Y-81208000D01*
X93241000Y-76285000D02*
X93241000Y-77700000D01*
X93241000Y-79780000D02*
X93241000Y-81195000D01*
X93281000Y-76298000D02*
X93281000Y-77700000D01*
X93281000Y-79780000D02*
X93281000Y-81182000D01*
X93321000Y-76312000D02*
X93321000Y-77700000D01*
X93321000Y-79780000D02*
X93321000Y-81168000D01*
X93361000Y-76326000D02*
X93361000Y-77700000D01*
X93361000Y-79780000D02*
X93361000Y-81154000D01*
X93401000Y-76342000D02*
X93401000Y-77700000D01*
X93401000Y-79780000D02*
X93401000Y-81138000D01*
X93441000Y-76358000D02*
X93441000Y-77700000D01*
X93441000Y-79780000D02*
X93441000Y-81122000D01*
X93481000Y-76375000D02*
X93481000Y-77700000D01*
X93481000Y-79780000D02*
X93481000Y-81105000D01*
X93521000Y-76392000D02*
X93521000Y-77700000D01*
X93521000Y-79780000D02*
X93521000Y-81088000D01*
X93561000Y-76411000D02*
X93561000Y-77700000D01*
X93561000Y-79780000D02*
X93561000Y-81069000D01*
X93601000Y-76430000D02*
X93601000Y-77700000D01*
X93601000Y-79780000D02*
X93601000Y-81050000D01*
X93641000Y-76450000D02*
X93641000Y-77700000D01*
X93641000Y-79780000D02*
X93641000Y-81030000D01*
X93681000Y-76472000D02*
X93681000Y-77700000D01*
X93681000Y-79780000D02*
X93681000Y-81008000D01*
X93721000Y-76493000D02*
X93721000Y-77700000D01*
X93721000Y-79780000D02*
X93721000Y-80987000D01*
X93761000Y-76516000D02*
X93761000Y-77700000D01*
X93761000Y-79780000D02*
X93761000Y-80964000D01*
X93801000Y-76540000D02*
X93801000Y-77700000D01*
X93801000Y-79780000D02*
X93801000Y-80940000D01*
X93841000Y-76565000D02*
X93841000Y-77700000D01*
X93841000Y-79780000D02*
X93841000Y-80915000D01*
X93881000Y-76591000D02*
X93881000Y-77700000D01*
X93881000Y-79780000D02*
X93881000Y-80889000D01*
X93921000Y-76618000D02*
X93921000Y-77700000D01*
X93921000Y-79780000D02*
X93921000Y-80862000D01*
X93961000Y-76645000D02*
X93961000Y-77700000D01*
X93961000Y-79780000D02*
X93961000Y-80835000D01*
X94001000Y-76675000D02*
X94001000Y-77700000D01*
X94001000Y-79780000D02*
X94001000Y-80805000D01*
X94041000Y-76705000D02*
X94041000Y-77700000D01*
X94041000Y-79780000D02*
X94041000Y-80775000D01*
X94081000Y-76736000D02*
X94081000Y-77700000D01*
X94081000Y-79780000D02*
X94081000Y-80744000D01*
X94121000Y-76769000D02*
X94121000Y-77700000D01*
X94121000Y-79780000D02*
X94121000Y-80711000D01*
X94161000Y-76803000D02*
X94161000Y-77700000D01*
X94161000Y-79780000D02*
X94161000Y-80677000D01*
X94201000Y-76839000D02*
X94201000Y-77700000D01*
X94201000Y-79780000D02*
X94201000Y-80641000D01*
X94241000Y-76876000D02*
X94241000Y-77700000D01*
X94241000Y-79780000D02*
X94241000Y-80604000D01*
X94281000Y-76914000D02*
X94281000Y-77700000D01*
X94281000Y-79780000D02*
X94281000Y-80566000D01*
X94321000Y-76955000D02*
X94321000Y-77700000D01*
X94321000Y-79780000D02*
X94321000Y-80525000D01*
X94361000Y-76997000D02*
X94361000Y-77700000D01*
X94361000Y-79780000D02*
X94361000Y-80483000D01*
X94401000Y-77041000D02*
X94401000Y-77700000D01*
X94401000Y-79780000D02*
X94401000Y-80439000D01*
X94441000Y-77087000D02*
X94441000Y-77700000D01*
X94441000Y-79780000D02*
X94441000Y-80393000D01*
X94481000Y-77135000D02*
X94481000Y-80345000D01*
X94521000Y-77186000D02*
X94521000Y-80294000D01*
X94561000Y-77240000D02*
X94561000Y-80240000D01*
X94601000Y-77297000D02*
X94601000Y-80183000D01*
X94641000Y-77357000D02*
X94641000Y-80123000D01*
X94681000Y-77421000D02*
X94681000Y-80059000D01*
X94721000Y-77489000D02*
X94721000Y-79991000D01*
X94761000Y-77562000D02*
X94761000Y-79918000D01*
X94801000Y-77642000D02*
X94801000Y-79838000D01*
X94841000Y-77729000D02*
X94841000Y-79751000D01*
X94881000Y-77825000D02*
X94881000Y-79655000D01*
X94921000Y-77935000D02*
X94921000Y-79545000D01*
X94961000Y-78063000D02*
X94961000Y-79417000D01*
X95001000Y-78222000D02*
X95001000Y-79258000D01*
X95041000Y-78456000D02*
X95041000Y-79024000D01*
X89635225Y-77265000D02*
X90135225Y-77265000D01*
X89885225Y-77015000D02*
X89885225Y-77515000D01*
X88710000Y-83820000D02*
G75*
G03X88710000Y-83820000I-2620000J0D01*
G01*
X86090000Y-82780000D02*
X86090000Y-81240000D01*
X86090000Y-86400000D02*
X86090000Y-84860000D01*
X86050000Y-82780000D02*
X86050000Y-81240000D01*
X86050000Y-86400000D02*
X86050000Y-84860000D01*
X86010000Y-86399000D02*
X86010000Y-84860000D01*
X86010000Y-82780000D02*
X86010000Y-81241000D01*
X85970000Y-86398000D02*
X85970000Y-84860000D01*
X85970000Y-82780000D02*
X85970000Y-81242000D01*
X85930000Y-86396000D02*
X85930000Y-84860000D01*
X85930000Y-82780000D02*
X85930000Y-81244000D01*
X85890000Y-86393000D02*
X85890000Y-84860000D01*
X85890000Y-82780000D02*
X85890000Y-81247000D01*
X85850000Y-86389000D02*
X85850000Y-84860000D01*
X85850000Y-82780000D02*
X85850000Y-81251000D01*
X85810000Y-86385000D02*
X85810000Y-84860000D01*
X85810000Y-82780000D02*
X85810000Y-81255000D01*
X85770000Y-86381000D02*
X85770000Y-84860000D01*
X85770000Y-82780000D02*
X85770000Y-81259000D01*
X85730000Y-86376000D02*
X85730000Y-84860000D01*
X85730000Y-82780000D02*
X85730000Y-81264000D01*
X85690000Y-86370000D02*
X85690000Y-84860000D01*
X85690000Y-82780000D02*
X85690000Y-81270000D01*
X85650000Y-86363000D02*
X85650000Y-84860000D01*
X85650000Y-82780000D02*
X85650000Y-81277000D01*
X85610000Y-86356000D02*
X85610000Y-84860000D01*
X85610000Y-82780000D02*
X85610000Y-81284000D01*
X85570000Y-86348000D02*
X85570000Y-84860000D01*
X85570000Y-82780000D02*
X85570000Y-81292000D01*
X85530000Y-86340000D02*
X85530000Y-84860000D01*
X85530000Y-82780000D02*
X85530000Y-81300000D01*
X85490000Y-86331000D02*
X85490000Y-84860000D01*
X85490000Y-82780000D02*
X85490000Y-81309000D01*
X85450000Y-86321000D02*
X85450000Y-84860000D01*
X85450000Y-82780000D02*
X85450000Y-81319000D01*
X85410000Y-86311000D02*
X85410000Y-84860000D01*
X85410000Y-82780000D02*
X85410000Y-81329000D01*
X85369000Y-86300000D02*
X85369000Y-84860000D01*
X85369000Y-82780000D02*
X85369000Y-81340000D01*
X85329000Y-86288000D02*
X85329000Y-84860000D01*
X85329000Y-82780000D02*
X85329000Y-81352000D01*
X85289000Y-86275000D02*
X85289000Y-84860000D01*
X85289000Y-82780000D02*
X85289000Y-81365000D01*
X85249000Y-86262000D02*
X85249000Y-84860000D01*
X85249000Y-82780000D02*
X85249000Y-81378000D01*
X85209000Y-86248000D02*
X85209000Y-84860000D01*
X85209000Y-82780000D02*
X85209000Y-81392000D01*
X85169000Y-86234000D02*
X85169000Y-84860000D01*
X85169000Y-82780000D02*
X85169000Y-81406000D01*
X85129000Y-86218000D02*
X85129000Y-84860000D01*
X85129000Y-82780000D02*
X85129000Y-81422000D01*
X85089000Y-86202000D02*
X85089000Y-84860000D01*
X85089000Y-82780000D02*
X85089000Y-81438000D01*
X85049000Y-86185000D02*
X85049000Y-84860000D01*
X85049000Y-82780000D02*
X85049000Y-81455000D01*
X85009000Y-86168000D02*
X85009000Y-84860000D01*
X85009000Y-82780000D02*
X85009000Y-81472000D01*
X84969000Y-86149000D02*
X84969000Y-84860000D01*
X84969000Y-82780000D02*
X84969000Y-81491000D01*
X84929000Y-86130000D02*
X84929000Y-84860000D01*
X84929000Y-82780000D02*
X84929000Y-81510000D01*
X84889000Y-86110000D02*
X84889000Y-84860000D01*
X84889000Y-82780000D02*
X84889000Y-81530000D01*
X84849000Y-86088000D02*
X84849000Y-84860000D01*
X84849000Y-82780000D02*
X84849000Y-81552000D01*
X84809000Y-86067000D02*
X84809000Y-84860000D01*
X84809000Y-82780000D02*
X84809000Y-81573000D01*
X84769000Y-86044000D02*
X84769000Y-84860000D01*
X84769000Y-82780000D02*
X84769000Y-81596000D01*
X84729000Y-86020000D02*
X84729000Y-84860000D01*
X84729000Y-82780000D02*
X84729000Y-81620000D01*
X84689000Y-85995000D02*
X84689000Y-84860000D01*
X84689000Y-82780000D02*
X84689000Y-81645000D01*
X84649000Y-85969000D02*
X84649000Y-84860000D01*
X84649000Y-82780000D02*
X84649000Y-81671000D01*
X84609000Y-85942000D02*
X84609000Y-84860000D01*
X84609000Y-82780000D02*
X84609000Y-81698000D01*
X84569000Y-85915000D02*
X84569000Y-84860000D01*
X84569000Y-82780000D02*
X84569000Y-81725000D01*
X84529000Y-85885000D02*
X84529000Y-84860000D01*
X84529000Y-82780000D02*
X84529000Y-81755000D01*
X84489000Y-85855000D02*
X84489000Y-84860000D01*
X84489000Y-82780000D02*
X84489000Y-81785000D01*
X84449000Y-85824000D02*
X84449000Y-84860000D01*
X84449000Y-82780000D02*
X84449000Y-81816000D01*
X84409000Y-85791000D02*
X84409000Y-84860000D01*
X84409000Y-82780000D02*
X84409000Y-81849000D01*
X84369000Y-85757000D02*
X84369000Y-84860000D01*
X84369000Y-82780000D02*
X84369000Y-81883000D01*
X84329000Y-85721000D02*
X84329000Y-84860000D01*
X84329000Y-82780000D02*
X84329000Y-81919000D01*
X84289000Y-85684000D02*
X84289000Y-84860000D01*
X84289000Y-82780000D02*
X84289000Y-81956000D01*
X84249000Y-85646000D02*
X84249000Y-84860000D01*
X84249000Y-82780000D02*
X84249000Y-81994000D01*
X84209000Y-85605000D02*
X84209000Y-84860000D01*
X84209000Y-82780000D02*
X84209000Y-82035000D01*
X84169000Y-85563000D02*
X84169000Y-84860000D01*
X84169000Y-82780000D02*
X84169000Y-82077000D01*
X84129000Y-85519000D02*
X84129000Y-84860000D01*
X84129000Y-82780000D02*
X84129000Y-82121000D01*
X84089000Y-85473000D02*
X84089000Y-84860000D01*
X84089000Y-82780000D02*
X84089000Y-82167000D01*
X84049000Y-85425000D02*
X84049000Y-82215000D01*
X84009000Y-85374000D02*
X84009000Y-82266000D01*
X83969000Y-85320000D02*
X83969000Y-82320000D01*
X83929000Y-85263000D02*
X83929000Y-82377000D01*
X83889000Y-85203000D02*
X83889000Y-82437000D01*
X83849000Y-85139000D02*
X83849000Y-82501000D01*
X83809000Y-85071000D02*
X83809000Y-82569000D01*
X83769000Y-84998000D02*
X83769000Y-82642000D01*
X83729000Y-84918000D02*
X83729000Y-82722000D01*
X83689000Y-84831000D02*
X83689000Y-82809000D01*
X83649000Y-84735000D02*
X83649000Y-82905000D01*
X83609000Y-84625000D02*
X83609000Y-83015000D01*
X83569000Y-84497000D02*
X83569000Y-83143000D01*
X83529000Y-84338000D02*
X83529000Y-83302000D01*
X83489000Y-84104000D02*
X83489000Y-83536000D01*
X88894775Y-85295000D02*
X88394775Y-85295000D01*
X88644775Y-85545000D02*
X88644775Y-85045000D01*
X89885225Y-50345000D02*
X89885225Y-50845000D01*
X89635225Y-50595000D02*
X90135225Y-50595000D01*
X95041000Y-51786000D02*
X95041000Y-52354000D01*
X95001000Y-51552000D02*
X95001000Y-52588000D01*
X94961000Y-51393000D02*
X94961000Y-52747000D01*
X94921000Y-51265000D02*
X94921000Y-52875000D01*
X94881000Y-51155000D02*
X94881000Y-52985000D01*
X94841000Y-51059000D02*
X94841000Y-53081000D01*
X94801000Y-50972000D02*
X94801000Y-53168000D01*
X94761000Y-50892000D02*
X94761000Y-53248000D01*
X94721000Y-50819000D02*
X94721000Y-53321000D01*
X94681000Y-50751000D02*
X94681000Y-53389000D01*
X94641000Y-50687000D02*
X94641000Y-53453000D01*
X94601000Y-50627000D02*
X94601000Y-53513000D01*
X94561000Y-50570000D02*
X94561000Y-53570000D01*
X94521000Y-50516000D02*
X94521000Y-53624000D01*
X94481000Y-50465000D02*
X94481000Y-53675000D01*
X94441000Y-53110000D02*
X94441000Y-53723000D01*
X94441000Y-50417000D02*
X94441000Y-51030000D01*
X94401000Y-53110000D02*
X94401000Y-53769000D01*
X94401000Y-50371000D02*
X94401000Y-51030000D01*
X94361000Y-53110000D02*
X94361000Y-53813000D01*
X94361000Y-50327000D02*
X94361000Y-51030000D01*
X94321000Y-53110000D02*
X94321000Y-53855000D01*
X94321000Y-50285000D02*
X94321000Y-51030000D01*
X94281000Y-53110000D02*
X94281000Y-53896000D01*
X94281000Y-50244000D02*
X94281000Y-51030000D01*
X94241000Y-53110000D02*
X94241000Y-53934000D01*
X94241000Y-50206000D02*
X94241000Y-51030000D01*
X94201000Y-53110000D02*
X94201000Y-53971000D01*
X94201000Y-50169000D02*
X94201000Y-51030000D01*
X94161000Y-53110000D02*
X94161000Y-54007000D01*
X94161000Y-50133000D02*
X94161000Y-51030000D01*
X94121000Y-53110000D02*
X94121000Y-54041000D01*
X94121000Y-50099000D02*
X94121000Y-51030000D01*
X94081000Y-53110000D02*
X94081000Y-54074000D01*
X94081000Y-50066000D02*
X94081000Y-51030000D01*
X94041000Y-53110000D02*
X94041000Y-54105000D01*
X94041000Y-50035000D02*
X94041000Y-51030000D01*
X94001000Y-53110000D02*
X94001000Y-54135000D01*
X94001000Y-50005000D02*
X94001000Y-51030000D01*
X93961000Y-53110000D02*
X93961000Y-54165000D01*
X93961000Y-49975000D02*
X93961000Y-51030000D01*
X93921000Y-53110000D02*
X93921000Y-54192000D01*
X93921000Y-49948000D02*
X93921000Y-51030000D01*
X93881000Y-53110000D02*
X93881000Y-54219000D01*
X93881000Y-49921000D02*
X93881000Y-51030000D01*
X93841000Y-53110000D02*
X93841000Y-54245000D01*
X93841000Y-49895000D02*
X93841000Y-51030000D01*
X93801000Y-53110000D02*
X93801000Y-54270000D01*
X93801000Y-49870000D02*
X93801000Y-51030000D01*
X93761000Y-53110000D02*
X93761000Y-54294000D01*
X93761000Y-49846000D02*
X93761000Y-51030000D01*
X93721000Y-53110000D02*
X93721000Y-54317000D01*
X93721000Y-49823000D02*
X93721000Y-51030000D01*
X93681000Y-53110000D02*
X93681000Y-54338000D01*
X93681000Y-49802000D02*
X93681000Y-51030000D01*
X93641000Y-53110000D02*
X93641000Y-54360000D01*
X93641000Y-49780000D02*
X93641000Y-51030000D01*
X93601000Y-53110000D02*
X93601000Y-54380000D01*
X93601000Y-49760000D02*
X93601000Y-51030000D01*
X93561000Y-53110000D02*
X93561000Y-54399000D01*
X93561000Y-49741000D02*
X93561000Y-51030000D01*
X93521000Y-53110000D02*
X93521000Y-54418000D01*
X93521000Y-49722000D02*
X93521000Y-51030000D01*
X93481000Y-53110000D02*
X93481000Y-54435000D01*
X93481000Y-49705000D02*
X93481000Y-51030000D01*
X93441000Y-53110000D02*
X93441000Y-54452000D01*
X93441000Y-49688000D02*
X93441000Y-51030000D01*
X93401000Y-53110000D02*
X93401000Y-54468000D01*
X93401000Y-49672000D02*
X93401000Y-51030000D01*
X93361000Y-53110000D02*
X93361000Y-54484000D01*
X93361000Y-49656000D02*
X93361000Y-51030000D01*
X93321000Y-53110000D02*
X93321000Y-54498000D01*
X93321000Y-49642000D02*
X93321000Y-51030000D01*
X93281000Y-53110000D02*
X93281000Y-54512000D01*
X93281000Y-49628000D02*
X93281000Y-51030000D01*
X93241000Y-53110000D02*
X93241000Y-54525000D01*
X93241000Y-49615000D02*
X93241000Y-51030000D01*
X93201000Y-53110000D02*
X93201000Y-54538000D01*
X93201000Y-49602000D02*
X93201000Y-51030000D01*
X93161000Y-53110000D02*
X93161000Y-54550000D01*
X93161000Y-49590000D02*
X93161000Y-51030000D01*
X93120000Y-53110000D02*
X93120000Y-54561000D01*
X93120000Y-49579000D02*
X93120000Y-51030000D01*
X93080000Y-53110000D02*
X93080000Y-54571000D01*
X93080000Y-49569000D02*
X93080000Y-51030000D01*
X93040000Y-53110000D02*
X93040000Y-54581000D01*
X93040000Y-49559000D02*
X93040000Y-51030000D01*
X93000000Y-53110000D02*
X93000000Y-54590000D01*
X93000000Y-49550000D02*
X93000000Y-51030000D01*
X92960000Y-53110000D02*
X92960000Y-54598000D01*
X92960000Y-49542000D02*
X92960000Y-51030000D01*
X92920000Y-53110000D02*
X92920000Y-54606000D01*
X92920000Y-49534000D02*
X92920000Y-51030000D01*
X92880000Y-53110000D02*
X92880000Y-54613000D01*
X92880000Y-49527000D02*
X92880000Y-51030000D01*
X92840000Y-53110000D02*
X92840000Y-54620000D01*
X92840000Y-49520000D02*
X92840000Y-51030000D01*
X92800000Y-53110000D02*
X92800000Y-54626000D01*
X92800000Y-49514000D02*
X92800000Y-51030000D01*
X92760000Y-53110000D02*
X92760000Y-54631000D01*
X92760000Y-49509000D02*
X92760000Y-51030000D01*
X92720000Y-53110000D02*
X92720000Y-54635000D01*
X92720000Y-49505000D02*
X92720000Y-51030000D01*
X92680000Y-53110000D02*
X92680000Y-54639000D01*
X92680000Y-49501000D02*
X92680000Y-51030000D01*
X92640000Y-53110000D02*
X92640000Y-54643000D01*
X92640000Y-49497000D02*
X92640000Y-51030000D01*
X92600000Y-53110000D02*
X92600000Y-54646000D01*
X92600000Y-49494000D02*
X92600000Y-51030000D01*
X92560000Y-53110000D02*
X92560000Y-54648000D01*
X92560000Y-49492000D02*
X92560000Y-51030000D01*
X92520000Y-53110000D02*
X92520000Y-54649000D01*
X92520000Y-49491000D02*
X92520000Y-51030000D01*
X92480000Y-49490000D02*
X92480000Y-51030000D01*
X92480000Y-53110000D02*
X92480000Y-54650000D01*
X92440000Y-49490000D02*
X92440000Y-51030000D01*
X92440000Y-53110000D02*
X92440000Y-54650000D01*
X95060000Y-52070000D02*
G75*
G03X95060000Y-52070000I-2620000J0D01*
G01*
X81930000Y-56148000D02*
X78090000Y-56148000D01*
X81930000Y-56388000D02*
X78090000Y-56388000D01*
X81930000Y-56268000D02*
X78090000Y-56268000D01*
X78090000Y-62848000D02*
X78570000Y-62848000D01*
X78090000Y-55008000D02*
X78090000Y-62848000D01*
X78570000Y-55008000D02*
X78090000Y-55008000D01*
X81930000Y-62848000D02*
X81450000Y-62848000D01*
X81930000Y-55008000D02*
X81930000Y-62848000D01*
X81450000Y-55008000D02*
X81930000Y-55008000D01*
X85343538Y-63696000D02*
G75*
G03X86888830Y-58146000I462J2990000D01*
G01*
X85344462Y-63696000D02*
G75*
G02X83799170Y-58146000I-462J2990000D01*
G01*
X87844000Y-60706000D02*
G75*
G03X87844000Y-60706000I-2500000J0D01*
G01*
X86889000Y-58146000D02*
X83799000Y-58146000D01*
X89350000Y-88645538D02*
G75*
G02X83800000Y-90190830I-2990000J-462D01*
G01*
X89350000Y-88646462D02*
G75*
G03X83800000Y-87101170I-2990000J462D01*
G01*
X88860000Y-88646000D02*
G75*
G03X88860000Y-88646000I-2500000J0D01*
G01*
X83800000Y-87101000D02*
X83800000Y-90191000D01*
X90150000Y-87101000D02*
X90150000Y-90191000D01*
X95210000Y-88646000D02*
G75*
G03X95210000Y-88646000I-2500000J0D01*
G01*
X95700000Y-88646462D02*
G75*
G03X90150000Y-87101170I-2990000J462D01*
G01*
X95700000Y-88645538D02*
G75*
G02X90150000Y-90190830I-2990000J-462D01*
G01*
X76370000Y-76090000D02*
X76850000Y-76090000D01*
X76850000Y-76090000D02*
X76850000Y-83930000D01*
X76850000Y-83930000D02*
X76370000Y-83930000D01*
X73490000Y-76090000D02*
X73010000Y-76090000D01*
X73010000Y-76090000D02*
X73010000Y-83930000D01*
X73010000Y-83930000D02*
X73490000Y-83930000D01*
X76850000Y-77350000D02*
X73010000Y-77350000D01*
X76850000Y-77470000D02*
X73010000Y-77470000D01*
X76850000Y-77230000D02*
X73010000Y-77230000D01*
X77196000Y-87101000D02*
X77196000Y-90191000D01*
X82256000Y-88646000D02*
G75*
G03X82256000Y-88646000I-2500000J0D01*
G01*
X82746000Y-88645538D02*
G75*
G02X77196000Y-90190830I-2990000J-462D01*
G01*
X82746000Y-88646462D02*
G75*
G03X77196000Y-87101170I-2990000J462D01*
G01*
X78934000Y-50884000D02*
X79984000Y-50884000D01*
X79984000Y-49834000D02*
X79984000Y-50884000D01*
X70584000Y-44784000D02*
X70584000Y-35984000D01*
X70584000Y-35984000D02*
X79784000Y-35984000D01*
X73284000Y-50684000D02*
X70584000Y-50684000D01*
X70584000Y-50684000D02*
X70584000Y-48784000D01*
X79784000Y-35984000D02*
X79784000Y-50684000D01*
X79784000Y-50684000D02*
X77184000Y-50684000D01*
X95952000Y-51308000D02*
X98612000Y-51308000D01*
X95952000Y-51308000D02*
X95952000Y-64068000D01*
X95952000Y-64068000D02*
X98612000Y-64068000D01*
X98612000Y-51308000D02*
X98612000Y-64068000D01*
X98612000Y-48708000D02*
X98612000Y-50038000D01*
X97282000Y-48708000D02*
X98612000Y-48708000D01*
X91694000Y-48260000D02*
X81534000Y-48260000D01*
X91694000Y-49530000D02*
X91694000Y-41910000D01*
X91694000Y-41910000D02*
X81534000Y-41910000D01*
X81534000Y-41910000D02*
X81534000Y-49530000D01*
X81534000Y-49530000D02*
X91694000Y-49530000D01*
X101032000Y-52324000D02*
X103692000Y-52324000D01*
X101032000Y-52324000D02*
X101032000Y-60004000D01*
X101032000Y-60004000D02*
X103692000Y-60004000D01*
X103692000Y-52324000D02*
X103692000Y-60004000D01*
X103692000Y-49724000D02*
X103692000Y-51054000D01*
X102362000Y-49724000D02*
X103692000Y-49724000D01*
X97282000Y-81848000D02*
X95952000Y-81848000D01*
X95952000Y-81848000D02*
X95952000Y-80518000D01*
X95952000Y-79248000D02*
X95952000Y-66488000D01*
X98612000Y-66488000D02*
X95952000Y-66488000D01*
X98612000Y-79248000D02*
X98612000Y-66488000D01*
X98612000Y-79248000D02*
X95952000Y-79248000D01*
X86602118Y-78898000D02*
G75*
G02X86602118Y-77058000I-1512118J920000D01*
G01*
X77296000Y-55372000D02*
G75*
G03X77296000Y-55372000I-2620000J0D01*
G01*
X74676000Y-57992000D02*
X74676000Y-61492000D01*
X82630000Y-95504000D02*
X86130000Y-95504000D01*
X82630000Y-95504000D02*
G75*
G03X82630000Y-95504000I-2620000J0D01*
G01*
X111332000Y-85090000D02*
G75*
G03X111332000Y-85090000I-2620000J0D01*
G01*
X108712000Y-87710000D02*
X108712000Y-91210000D01*
X92456000Y-69422000D02*
X92456000Y-72922000D01*
X95076000Y-66802000D02*
G75*
G03X95076000Y-66802000I-2620000J0D01*
G01*
X82376000Y-76200000D02*
G75*
G03X82376000Y-76200000I-2620000J0D01*
G01*
X79756000Y-78820000D02*
X79756000Y-82320000D01*
X92456000Y-61134000D02*
X92456000Y-57634000D01*
X95076000Y-63754000D02*
G75*
G03X95076000Y-63754000I-2620000J0D01*
G01*
X89406000Y-64965000D02*
X89406000Y-74735000D01*
X83066000Y-64965000D02*
X83066000Y-74735000D01*
X89406000Y-64965000D02*
X83066000Y-64965000D01*
X89406000Y-74735000D02*
X83066000Y-74735000D01*
X94980000Y-48172000D02*
X99480000Y-48172000D01*
X93730000Y-44172000D02*
X93730000Y-45672000D01*
X99480000Y-41672000D02*
X94980000Y-41672000D01*
X100730000Y-45672000D02*
X100730000Y-44172000D01*
X72193000Y-66826000D02*
X82434000Y-66826000D01*
X72193000Y-71567000D02*
X82434000Y-71567000D01*
X72193000Y-66826000D02*
X72193000Y-71567000D01*
X82434000Y-66826000D02*
X82434000Y-71567000D01*
X72193000Y-68366000D02*
X82434000Y-68366000D01*
X110982000Y-43374000D02*
G75*
G02X108982000Y-43374000I-1000000J0D01*
G01*
X108982000Y-43374000D02*
X107332000Y-43374000D01*
X107332000Y-43374000D02*
X107332000Y-79054000D01*
X107332000Y-79054000D02*
X112632000Y-79054000D01*
X112632000Y-79054000D02*
X112632000Y-43374000D01*
X112632000Y-43374000D02*
X110982000Y-43374000D01*
X104574000Y-64258000D02*
X104574000Y-68758000D01*
X101674000Y-64258000D02*
X101674000Y-68758000D01*
X101674000Y-64258000D02*
G75*
G02X104574000Y-64258000I1450000J0D01*
G01*
X101674000Y-68758000D02*
G75*
G03X104574000Y-68758000I1450000J0D01*
G01*
X101250000Y-65927000D02*
X101250000Y-64669000D01*
X99410000Y-65927000D02*
X99410000Y-64669000D01*
X101250000Y-69709000D02*
X101250000Y-70967000D01*
X99410000Y-69709000D02*
X99410000Y-70967000D01*
D10*
X121372380Y-42640095D02*
X122372380Y-41973428D01*
X121372380Y-41973428D02*
X122372380Y-42640095D01*
X122086666Y-41640095D02*
X122086666Y-41163904D01*
X122372380Y-41735333D02*
X121372380Y-41402000D01*
X122372380Y-41068666D01*
X122372380Y-40211523D02*
X122372380Y-40782952D01*
X122372380Y-40497238D02*
X121372380Y-40497238D01*
X121515238Y-40592476D01*
X121610476Y-40687714D01*
X121658095Y-40782952D01*
X99925142Y-101346000D02*
X99972761Y-101298380D01*
X100020380Y-101346000D01*
X99972761Y-101393619D01*
X99925142Y-101346000D01*
X100020380Y-101346000D01*
X50974666Y-104330380D02*
X50974666Y-105044666D01*
X50927047Y-105187523D01*
X50831809Y-105282761D01*
X50688952Y-105330380D01*
X50593714Y-105330380D01*
X51403238Y-104425619D02*
X51450857Y-104378000D01*
X51546095Y-104330380D01*
X51784190Y-104330380D01*
X51879428Y-104378000D01*
X51927047Y-104425619D01*
X51974666Y-104520857D01*
X51974666Y-104616095D01*
X51927047Y-104758952D01*
X51355619Y-105330380D01*
X51974666Y-105330380D01*
X64182666Y-104330380D02*
X64182666Y-105044666D01*
X64135047Y-105187523D01*
X64039809Y-105282761D01*
X63896952Y-105330380D01*
X63801714Y-105330380D01*
X64563619Y-104330380D02*
X65182666Y-104330380D01*
X64849333Y-104711333D01*
X64992190Y-104711333D01*
X65087428Y-104758952D01*
X65135047Y-104806571D01*
X65182666Y-104901809D01*
X65182666Y-105139904D01*
X65135047Y-105235142D01*
X65087428Y-105282761D01*
X64992190Y-105330380D01*
X64706476Y-105330380D01*
X64611238Y-105282761D01*
X64563619Y-105235142D01*
X42846666Y-79184380D02*
X42846666Y-79898666D01*
X42799047Y-80041523D01*
X42703809Y-80136761D01*
X42560952Y-80184380D01*
X42465714Y-80184380D01*
X43751428Y-79517714D02*
X43751428Y-80184380D01*
X43513333Y-79136761D02*
X43275238Y-79851047D01*
X43894285Y-79851047D01*
X42846666Y-102806380D02*
X42846666Y-103520666D01*
X42799047Y-103663523D01*
X42703809Y-103758761D01*
X42560952Y-103806380D01*
X42465714Y-103806380D01*
X43370476Y-103806380D02*
X43560952Y-103806380D01*
X43656190Y-103758761D01*
X43703809Y-103711142D01*
X43799047Y-103568285D01*
X43846666Y-103377809D01*
X43846666Y-102996857D01*
X43799047Y-102901619D01*
X43751428Y-102854000D01*
X43656190Y-102806380D01*
X43465714Y-102806380D01*
X43370476Y-102854000D01*
X43322857Y-102901619D01*
X43275238Y-102996857D01*
X43275238Y-103234952D01*
X43322857Y-103330190D01*
X43370476Y-103377809D01*
X43465714Y-103425428D01*
X43656190Y-103425428D01*
X43751428Y-103377809D01*
X43799047Y-103330190D01*
X43846666Y-103234952D01*
X89451142Y-54760666D02*
X89498761Y-54808285D01*
X89546380Y-54951142D01*
X89546380Y-55046380D01*
X89498761Y-55189238D01*
X89403523Y-55284476D01*
X89308285Y-55332095D01*
X89117809Y-55379714D01*
X88974952Y-55379714D01*
X88784476Y-55332095D01*
X88689238Y-55284476D01*
X88594000Y-55189238D01*
X88546380Y-55046380D01*
X88546380Y-54951142D01*
X88594000Y-54808285D01*
X88641619Y-54760666D01*
X89546380Y-53808285D02*
X89546380Y-54379714D01*
X89546380Y-54094000D02*
X88546380Y-54094000D01*
X88689238Y-54189238D01*
X88784476Y-54284476D01*
X88832095Y-54379714D01*
X92273333Y-75347142D02*
X92225714Y-75394761D01*
X92082857Y-75442380D01*
X91987619Y-75442380D01*
X91844761Y-75394761D01*
X91749523Y-75299523D01*
X91701904Y-75204285D01*
X91654285Y-75013809D01*
X91654285Y-74870952D01*
X91701904Y-74680476D01*
X91749523Y-74585238D01*
X91844761Y-74490000D01*
X91987619Y-74442380D01*
X92082857Y-74442380D01*
X92225714Y-74490000D01*
X92273333Y-74537619D01*
X92654285Y-74537619D02*
X92701904Y-74490000D01*
X92797142Y-74442380D01*
X93035238Y-74442380D01*
X93130476Y-74490000D01*
X93178095Y-74537619D01*
X93225714Y-74632857D01*
X93225714Y-74728095D01*
X93178095Y-74870952D01*
X92606666Y-75442380D01*
X93225714Y-75442380D01*
X85923333Y-87927142D02*
X85875714Y-87974761D01*
X85732857Y-88022380D01*
X85637619Y-88022380D01*
X85494761Y-87974761D01*
X85399523Y-87879523D01*
X85351904Y-87784285D01*
X85304285Y-87593809D01*
X85304285Y-87450952D01*
X85351904Y-87260476D01*
X85399523Y-87165238D01*
X85494761Y-87070000D01*
X85637619Y-87022380D01*
X85732857Y-87022380D01*
X85875714Y-87070000D01*
X85923333Y-87117619D01*
X86256666Y-87022380D02*
X86875714Y-87022380D01*
X86542380Y-87403333D01*
X86685238Y-87403333D01*
X86780476Y-87450952D01*
X86828095Y-87498571D01*
X86875714Y-87593809D01*
X86875714Y-87831904D01*
X86828095Y-87927142D01*
X86780476Y-87974761D01*
X86685238Y-88022380D01*
X86399523Y-88022380D01*
X86304285Y-87974761D01*
X86256666Y-87927142D01*
X92273333Y-48677142D02*
X92225714Y-48724761D01*
X92082857Y-48772380D01*
X91987619Y-48772380D01*
X91844761Y-48724761D01*
X91749523Y-48629523D01*
X91701904Y-48534285D01*
X91654285Y-48343809D01*
X91654285Y-48200952D01*
X91701904Y-48010476D01*
X91749523Y-47915238D01*
X91844761Y-47820000D01*
X91987619Y-47772380D01*
X92082857Y-47772380D01*
X92225714Y-47820000D01*
X92273333Y-47867619D01*
X93130476Y-48105714D02*
X93130476Y-48772380D01*
X92892380Y-47724761D02*
X92654285Y-48439047D01*
X93273333Y-48439047D01*
X83382380Y-59666095D02*
X82382380Y-59666095D01*
X82382380Y-59428000D01*
X82430000Y-59285142D01*
X82525238Y-59189904D01*
X82620476Y-59142285D01*
X82810952Y-59094666D01*
X82953809Y-59094666D01*
X83144285Y-59142285D01*
X83239523Y-59189904D01*
X83334761Y-59285142D01*
X83382380Y-59428000D01*
X83382380Y-59666095D01*
X83382380Y-58142285D02*
X83382380Y-58713714D01*
X83382380Y-58428000D02*
X82382380Y-58428000D01*
X82525238Y-58523238D01*
X82620476Y-58618476D01*
X82668095Y-58713714D01*
X82662380Y-54109904D02*
X81662380Y-54109904D01*
X82662380Y-53538476D02*
X82090952Y-53967047D01*
X81662380Y-53538476D02*
X82233809Y-54109904D01*
X89756380Y-61444095D02*
X88756380Y-61444095D01*
X88756380Y-61206000D01*
X88804000Y-61063142D01*
X88899238Y-60967904D01*
X88994476Y-60920285D01*
X89184952Y-60872666D01*
X89327809Y-60872666D01*
X89518285Y-60920285D01*
X89613523Y-60967904D01*
X89708761Y-61063142D01*
X89756380Y-61206000D01*
X89756380Y-61444095D01*
X88851619Y-60491714D02*
X88804000Y-60444095D01*
X88756380Y-60348857D01*
X88756380Y-60110761D01*
X88804000Y-60015523D01*
X88851619Y-59967904D01*
X88946857Y-59920285D01*
X89042095Y-59920285D01*
X89184952Y-59967904D01*
X89756380Y-60539333D01*
X89756380Y-59920285D01*
X85621904Y-85138380D02*
X85621904Y-84138380D01*
X85860000Y-84138380D01*
X86002857Y-84186000D01*
X86098095Y-84281238D01*
X86145714Y-84376476D01*
X86193333Y-84566952D01*
X86193333Y-84709809D01*
X86145714Y-84900285D01*
X86098095Y-84995523D01*
X86002857Y-85090761D01*
X85860000Y-85138380D01*
X85621904Y-85138380D01*
X86526666Y-84138380D02*
X87145714Y-84138380D01*
X86812380Y-84519333D01*
X86955238Y-84519333D01*
X87050476Y-84566952D01*
X87098095Y-84614571D01*
X87145714Y-84709809D01*
X87145714Y-84947904D01*
X87098095Y-85043142D01*
X87050476Y-85090761D01*
X86955238Y-85138380D01*
X86669523Y-85138380D01*
X86574285Y-85090761D01*
X86526666Y-85043142D01*
X91971904Y-85138380D02*
X91971904Y-84138380D01*
X92210000Y-84138380D01*
X92352857Y-84186000D01*
X92448095Y-84281238D01*
X92495714Y-84376476D01*
X92543333Y-84566952D01*
X92543333Y-84709809D01*
X92495714Y-84900285D01*
X92448095Y-84995523D01*
X92352857Y-85090761D01*
X92210000Y-85138380D01*
X91971904Y-85138380D01*
X93400476Y-84471714D02*
X93400476Y-85138380D01*
X93162380Y-84090761D02*
X92924285Y-84805047D01*
X93543333Y-84805047D01*
X78302380Y-80748095D02*
X77302380Y-80748095D01*
X77302380Y-80510000D01*
X77350000Y-80367142D01*
X77445238Y-80271904D01*
X77540476Y-80224285D01*
X77730952Y-80176666D01*
X77873809Y-80176666D01*
X78064285Y-80224285D01*
X78159523Y-80271904D01*
X78254761Y-80367142D01*
X78302380Y-80510000D01*
X78302380Y-80748095D01*
X77302380Y-79271904D02*
X77302380Y-79748095D01*
X77778571Y-79795714D01*
X77730952Y-79748095D01*
X77683333Y-79652857D01*
X77683333Y-79414761D01*
X77730952Y-79319523D01*
X77778571Y-79271904D01*
X77873809Y-79224285D01*
X78111904Y-79224285D01*
X78207142Y-79271904D01*
X78254761Y-79319523D01*
X78302380Y-79414761D01*
X78302380Y-79652857D01*
X78254761Y-79748095D01*
X78207142Y-79795714D01*
X77582380Y-75191904D02*
X76582380Y-75191904D01*
X77582380Y-74620476D02*
X77010952Y-75049047D01*
X76582380Y-74620476D02*
X77153809Y-75191904D01*
X79017904Y-85138380D02*
X79017904Y-84138380D01*
X79256000Y-84138380D01*
X79398857Y-84186000D01*
X79494095Y-84281238D01*
X79541714Y-84376476D01*
X79589333Y-84566952D01*
X79589333Y-84709809D01*
X79541714Y-84900285D01*
X79494095Y-84995523D01*
X79398857Y-85090761D01*
X79256000Y-85138380D01*
X79017904Y-85138380D01*
X80446476Y-84138380D02*
X80256000Y-84138380D01*
X80160761Y-84186000D01*
X80113142Y-84233619D01*
X80017904Y-84376476D01*
X79970285Y-84566952D01*
X79970285Y-84947904D01*
X80017904Y-85043142D01*
X80065523Y-85090761D01*
X80160761Y-85138380D01*
X80351238Y-85138380D01*
X80446476Y-85090761D01*
X80494095Y-85043142D01*
X80541714Y-84947904D01*
X80541714Y-84709809D01*
X80494095Y-84614571D01*
X80446476Y-84566952D01*
X80351238Y-84519333D01*
X80160761Y-84519333D01*
X80065523Y-84566952D01*
X80017904Y-84614571D01*
X79970285Y-84709809D01*
X68886380Y-41667333D02*
X69600666Y-41667333D01*
X69743523Y-41714952D01*
X69838761Y-41810190D01*
X69886380Y-41953047D01*
X69886380Y-42048285D01*
X69886380Y-40667333D02*
X69886380Y-41238761D01*
X69886380Y-40953047D02*
X68886380Y-40953047D01*
X69029238Y-41048285D01*
X69124476Y-41143523D01*
X69172095Y-41238761D01*
X96948666Y-46720380D02*
X96948666Y-47434666D01*
X96901047Y-47577523D01*
X96805809Y-47672761D01*
X96662952Y-47720380D01*
X96567714Y-47720380D01*
X97901047Y-46720380D02*
X97424857Y-46720380D01*
X97377238Y-47196571D01*
X97424857Y-47148952D01*
X97520095Y-47101333D01*
X97758190Y-47101333D01*
X97853428Y-47148952D01*
X97901047Y-47196571D01*
X97948666Y-47291809D01*
X97948666Y-47529904D01*
X97901047Y-47625142D01*
X97853428Y-47672761D01*
X97758190Y-47720380D01*
X97520095Y-47720380D01*
X97424857Y-47672761D01*
X97377238Y-47625142D01*
X86280666Y-40092380D02*
X86280666Y-40806666D01*
X86233047Y-40949523D01*
X86137809Y-41044761D01*
X85994952Y-41092380D01*
X85899714Y-41092380D01*
X87185428Y-40092380D02*
X86994952Y-40092380D01*
X86899714Y-40140000D01*
X86852095Y-40187619D01*
X86756857Y-40330476D01*
X86709238Y-40520952D01*
X86709238Y-40901904D01*
X86756857Y-40997142D01*
X86804476Y-41044761D01*
X86899714Y-41092380D01*
X87090190Y-41092380D01*
X87185428Y-41044761D01*
X87233047Y-40997142D01*
X87280666Y-40901904D01*
X87280666Y-40663809D01*
X87233047Y-40568571D01*
X87185428Y-40520952D01*
X87090190Y-40473333D01*
X86899714Y-40473333D01*
X86804476Y-40520952D01*
X86756857Y-40568571D01*
X86709238Y-40663809D01*
X102028666Y-47736380D02*
X102028666Y-48450666D01*
X101981047Y-48593523D01*
X101885809Y-48688761D01*
X101742952Y-48736380D01*
X101647714Y-48736380D01*
X102409619Y-47736380D02*
X103076285Y-47736380D01*
X102647714Y-48736380D01*
X96948666Y-82740380D02*
X96948666Y-83454666D01*
X96901047Y-83597523D01*
X96805809Y-83692761D01*
X96662952Y-83740380D01*
X96567714Y-83740380D01*
X97567714Y-83168952D02*
X97472476Y-83121333D01*
X97424857Y-83073714D01*
X97377238Y-82978476D01*
X97377238Y-82930857D01*
X97424857Y-82835619D01*
X97472476Y-82788000D01*
X97567714Y-82740380D01*
X97758190Y-82740380D01*
X97853428Y-82788000D01*
X97901047Y-82835619D01*
X97948666Y-82930857D01*
X97948666Y-82978476D01*
X97901047Y-83073714D01*
X97853428Y-83121333D01*
X97758190Y-83168952D01*
X97567714Y-83168952D01*
X97472476Y-83216571D01*
X97424857Y-83264190D01*
X97377238Y-83359428D01*
X97377238Y-83549904D01*
X97424857Y-83645142D01*
X97472476Y-83692761D01*
X97567714Y-83740380D01*
X97758190Y-83740380D01*
X97853428Y-83692761D01*
X97901047Y-83645142D01*
X97948666Y-83549904D01*
X97948666Y-83359428D01*
X97901047Y-83264190D01*
X97853428Y-83216571D01*
X97758190Y-83168952D01*
X86193333Y-75660380D02*
X85717142Y-75660380D01*
X85717142Y-74660380D01*
X87050476Y-75660380D02*
X86479047Y-75660380D01*
X86764761Y-75660380D02*
X86764761Y-74660380D01*
X86669523Y-74803238D01*
X86574285Y-74898476D01*
X86479047Y-74946095D01*
X78748380Y-59348666D02*
X78272190Y-59682000D01*
X78748380Y-59920095D02*
X77748380Y-59920095D01*
X77748380Y-59539142D01*
X77796000Y-59443904D01*
X77843619Y-59396285D01*
X77938857Y-59348666D01*
X78081714Y-59348666D01*
X78176952Y-59396285D01*
X78224571Y-59443904D01*
X78272190Y-59539142D01*
X78272190Y-59920095D01*
X78748380Y-58396285D02*
X78748380Y-58967714D01*
X78748380Y-58682000D02*
X77748380Y-58682000D01*
X77891238Y-58777238D01*
X77986476Y-58872476D01*
X78034095Y-58967714D01*
X83653333Y-92336380D02*
X83320000Y-91860190D01*
X83081904Y-92336380D02*
X83081904Y-91336380D01*
X83462857Y-91336380D01*
X83558095Y-91384000D01*
X83605714Y-91431619D01*
X83653333Y-91526857D01*
X83653333Y-91669714D01*
X83605714Y-91764952D01*
X83558095Y-91812571D01*
X83462857Y-91860190D01*
X83081904Y-91860190D01*
X84034285Y-91431619D02*
X84081904Y-91384000D01*
X84177142Y-91336380D01*
X84415238Y-91336380D01*
X84510476Y-91384000D01*
X84558095Y-91431619D01*
X84605714Y-91526857D01*
X84605714Y-91622095D01*
X84558095Y-91764952D01*
X83986666Y-92336380D01*
X84605714Y-92336380D01*
X112784380Y-89066666D02*
X112308190Y-89400000D01*
X112784380Y-89638095D02*
X111784380Y-89638095D01*
X111784380Y-89257142D01*
X111832000Y-89161904D01*
X111879619Y-89114285D01*
X111974857Y-89066666D01*
X112117714Y-89066666D01*
X112212952Y-89114285D01*
X112260571Y-89161904D01*
X112308190Y-89257142D01*
X112308190Y-89638095D01*
X111784380Y-88733333D02*
X111784380Y-88114285D01*
X112165333Y-88447619D01*
X112165333Y-88304761D01*
X112212952Y-88209523D01*
X112260571Y-88161904D01*
X112355809Y-88114285D01*
X112593904Y-88114285D01*
X112689142Y-88161904D01*
X112736761Y-88209523D01*
X112784380Y-88304761D01*
X112784380Y-88590476D01*
X112736761Y-88685714D01*
X112689142Y-88733333D01*
X96528380Y-70778666D02*
X96052190Y-71112000D01*
X96528380Y-71350095D02*
X95528380Y-71350095D01*
X95528380Y-70969142D01*
X95576000Y-70873904D01*
X95623619Y-70826285D01*
X95718857Y-70778666D01*
X95861714Y-70778666D01*
X95956952Y-70826285D01*
X96004571Y-70873904D01*
X96052190Y-70969142D01*
X96052190Y-71350095D01*
X95861714Y-69921523D02*
X96528380Y-69921523D01*
X95480761Y-70159619D02*
X96195047Y-70397714D01*
X96195047Y-69778666D01*
X83828380Y-80176666D02*
X83352190Y-80510000D01*
X83828380Y-80748095D02*
X82828380Y-80748095D01*
X82828380Y-80367142D01*
X82876000Y-80271904D01*
X82923619Y-80224285D01*
X83018857Y-80176666D01*
X83161714Y-80176666D01*
X83256952Y-80224285D01*
X83304571Y-80271904D01*
X83352190Y-80367142D01*
X83352190Y-80748095D01*
X82828380Y-79271904D02*
X82828380Y-79748095D01*
X83304571Y-79795714D01*
X83256952Y-79748095D01*
X83209333Y-79652857D01*
X83209333Y-79414761D01*
X83256952Y-79319523D01*
X83304571Y-79271904D01*
X83399809Y-79224285D01*
X83637904Y-79224285D01*
X83733142Y-79271904D01*
X83780761Y-79319523D01*
X83828380Y-79414761D01*
X83828380Y-79652857D01*
X83780761Y-79748095D01*
X83733142Y-79795714D01*
X89288380Y-60110666D02*
X88812190Y-60444000D01*
X89288380Y-60682095D02*
X88288380Y-60682095D01*
X88288380Y-60301142D01*
X88336000Y-60205904D01*
X88383619Y-60158285D01*
X88478857Y-60110666D01*
X88621714Y-60110666D01*
X88716952Y-60158285D01*
X88764571Y-60205904D01*
X88812190Y-60301142D01*
X88812190Y-60682095D01*
X88288380Y-59253523D02*
X88288380Y-59444000D01*
X88336000Y-59539238D01*
X88383619Y-59586857D01*
X88526476Y-59682095D01*
X88716952Y-59729714D01*
X89097904Y-59729714D01*
X89193142Y-59682095D01*
X89240761Y-59634476D01*
X89288380Y-59539238D01*
X89288380Y-59348761D01*
X89240761Y-59253523D01*
X89193142Y-59205904D01*
X89097904Y-59158285D01*
X88859809Y-59158285D01*
X88764571Y-59205904D01*
X88716952Y-59253523D01*
X88669333Y-59348761D01*
X88669333Y-59539238D01*
X88716952Y-59634476D01*
X88764571Y-59682095D01*
X88859809Y-59729714D01*
X90988380Y-70445238D02*
X90512190Y-70778571D01*
X90988380Y-71016666D02*
X89988380Y-71016666D01*
X89988380Y-70635714D01*
X90036000Y-70540476D01*
X90083619Y-70492857D01*
X90178857Y-70445238D01*
X90321714Y-70445238D01*
X90416952Y-70492857D01*
X90464571Y-70540476D01*
X90512190Y-70635714D01*
X90512190Y-71016666D01*
X89988380Y-70159523D02*
X90988380Y-69826190D01*
X89988380Y-69492857D01*
X90988380Y-68635714D02*
X90988380Y-69207142D01*
X90988380Y-68921428D02*
X89988380Y-68921428D01*
X90131238Y-69016666D01*
X90226476Y-69111904D01*
X90274095Y-69207142D01*
X95896666Y-41076761D02*
X96039523Y-41124380D01*
X96277619Y-41124380D01*
X96372857Y-41076761D01*
X96420476Y-41029142D01*
X96468095Y-40933904D01*
X96468095Y-40838666D01*
X96420476Y-40743428D01*
X96372857Y-40695809D01*
X96277619Y-40648190D01*
X96087142Y-40600571D01*
X95991904Y-40552952D01*
X95944285Y-40505333D01*
X95896666Y-40410095D01*
X95896666Y-40314857D01*
X95944285Y-40219619D01*
X95991904Y-40172000D01*
X96087142Y-40124380D01*
X96325238Y-40124380D01*
X96468095Y-40172000D01*
X96801428Y-40124380D02*
X97039523Y-41124380D01*
X97230000Y-40410095D01*
X97420476Y-41124380D01*
X97658571Y-40124380D01*
X98563333Y-41124380D02*
X97991904Y-41124380D01*
X98277619Y-41124380D02*
X98277619Y-40124380D01*
X98182380Y-40267238D01*
X98087142Y-40362476D01*
X97991904Y-40410095D01*
X76552095Y-65278380D02*
X76552095Y-66087904D01*
X76599714Y-66183142D01*
X76647333Y-66230761D01*
X76742571Y-66278380D01*
X76933047Y-66278380D01*
X77028285Y-66230761D01*
X77075904Y-66183142D01*
X77123523Y-66087904D01*
X77123523Y-65278380D01*
X78123523Y-66278380D02*
X77552095Y-66278380D01*
X77837809Y-66278380D02*
X77837809Y-65278380D01*
X77742571Y-65421238D01*
X77647333Y-65516476D01*
X77552095Y-65564095D01*
X109220095Y-41826380D02*
X109220095Y-42635904D01*
X109267714Y-42731142D01*
X109315333Y-42778761D01*
X109410571Y-42826380D01*
X109601047Y-42826380D01*
X109696285Y-42778761D01*
X109743904Y-42731142D01*
X109791523Y-42635904D01*
X109791523Y-41826380D01*
X110220095Y-41921619D02*
X110267714Y-41874000D01*
X110362952Y-41826380D01*
X110601047Y-41826380D01*
X110696285Y-41874000D01*
X110743904Y-41921619D01*
X110791523Y-42016857D01*
X110791523Y-42112095D01*
X110743904Y-42254952D01*
X110172476Y-42826380D01*
X110791523Y-42826380D01*
X105550190Y-66984190D02*
X106026380Y-66984190D01*
X105026380Y-67317523D02*
X105550190Y-66984190D01*
X105026380Y-66650857D01*
X106026380Y-65793714D02*
X106026380Y-66365142D01*
X106026380Y-66079428D02*
X105026380Y-66079428D01*
X105169238Y-66174666D01*
X105264476Y-66269904D01*
X105312095Y-66365142D01*
X98637142Y-65464666D02*
X98684761Y-65512285D01*
X98732380Y-65655142D01*
X98732380Y-65750380D01*
X98684761Y-65893238D01*
X98589523Y-65988476D01*
X98494285Y-66036095D01*
X98303809Y-66083714D01*
X98160952Y-66083714D01*
X97970476Y-66036095D01*
X97875238Y-65988476D01*
X97780000Y-65893238D01*
X97732380Y-65750380D01*
X97732380Y-65655142D01*
X97780000Y-65512285D01*
X97827619Y-65464666D01*
X97732380Y-64559904D02*
X97732380Y-65036095D01*
X98208571Y-65083714D01*
X98160952Y-65036095D01*
X98113333Y-64940857D01*
X98113333Y-64702761D01*
X98160952Y-64607523D01*
X98208571Y-64559904D01*
X98303809Y-64512285D01*
X98541904Y-64512285D01*
X98637142Y-64559904D01*
X98684761Y-64607523D01*
X98732380Y-64702761D01*
X98732380Y-64940857D01*
X98684761Y-65036095D01*
X98637142Y-65083714D01*
X102737142Y-70504666D02*
X102784761Y-70552285D01*
X102832380Y-70695142D01*
X102832380Y-70790380D01*
X102784761Y-70933238D01*
X102689523Y-71028476D01*
X102594285Y-71076095D01*
X102403809Y-71123714D01*
X102260952Y-71123714D01*
X102070476Y-71076095D01*
X101975238Y-71028476D01*
X101880000Y-70933238D01*
X101832380Y-70790380D01*
X101832380Y-70695142D01*
X101880000Y-70552285D01*
X101927619Y-70504666D01*
X101832380Y-69647523D02*
X101832380Y-69838000D01*
X101880000Y-69933238D01*
X101927619Y-69980857D01*
X102070476Y-70076095D01*
X102260952Y-70123714D01*
X102641904Y-70123714D01*
X102737142Y-70076095D01*
X102784761Y-70028476D01*
X102832380Y-69933238D01*
X102832380Y-69742761D01*
X102784761Y-69647523D01*
X102737142Y-69599904D01*
X102641904Y-69552285D01*
X102403809Y-69552285D01*
X102308571Y-69599904D01*
X102260952Y-69647523D01*
X102213333Y-69742761D01*
X102213333Y-69933238D01*
X102260952Y-70028476D01*
X102308571Y-70076095D01*
X102403809Y-70123714D01*
M02*
