M48
; DRILL file {KiCad (5.1.2)-2} date 4/13/2020 1:08:04 PM
; FORMAT={2:4/ absolute / inch / suppress leading zeros}
; #@! TF.CreationDate,2020-04-13T13:08:04+07:00
; #@! TF.GenerationSoftware,Kicad,Pcbnew,(5.1.2)-2
FMAT,2
INCH,TZ
T1C0.0236
T2C0.0276
T3C0.0315
T4C0.0354
T5C0.0394
T6C0.0400
T7C0.0472
T8C0.0598
T9C0.1181
%
G90
G05
T1
X42709Y-20900
X43300Y-20900
X45409Y-20900
X46000Y-20900
T2
X48400Y-27700
X48400Y-28700
T3
X42300Y-45800
X42300Y-46800
X46900Y-45800
X46900Y-46800
X45600Y-45800
X45600Y-46800
X40800Y-45800
X40800Y-46800
X44000Y-45800
X44000Y-46800
T4
X48200Y-20800
X49200Y-20800
X48200Y-24100
X49200Y-24100
T5
X48400Y-26700
X41700Y-37100
X41700Y-38100
X41700Y-39100
X41700Y-40100
X41700Y-41100
X42700Y-37100
X42700Y-38100
X42700Y-39100
X42700Y-40100
X42700Y-41100
X55100Y-46000
T6
X55200Y-40900
X55200Y-41900
X55200Y-42900
X55200Y-43900
X45000Y-39900
X45000Y-40900
X38900Y-27100
X38900Y-28100
X38900Y-29100
X38900Y-30100
X38900Y-31100
X38900Y-32100
X38900Y-33100
X38900Y-34100
X38900Y-36100
X38900Y-37100
X38900Y-38100
X38900Y-39100
X38900Y-40100
X38900Y-41100
X38900Y-42100
X38900Y-43100
X38900Y-45100
X38900Y-46100
X38900Y-47100
X38900Y-48100
X38900Y-49100
X38900Y-50100
X38900Y-51100
X38900Y-52100
X40900Y-53100
X40900Y-54100
X41900Y-53100
X41900Y-54100
X42900Y-53100
X42900Y-54100
X43900Y-53100
X43900Y-54100
X44900Y-53100
X44900Y-54100
X45900Y-53100
X45900Y-54100
X46900Y-53100
X46900Y-54100
X47900Y-53100
X47900Y-54100
X48900Y-53100
X48900Y-54100
X49900Y-53100
X49900Y-54100
X50900Y-53100
X50900Y-54100
X51900Y-53100
X51900Y-54100
X52900Y-53100
X52900Y-54100
X53900Y-53100
X53900Y-54100
X54900Y-53100
X54900Y-54100
X55900Y-53100
X55900Y-54100
X56900Y-53100
X56900Y-54100
X57900Y-23500
X57900Y-24500
X57900Y-25500
X57900Y-26500
X57900Y-27500
X57900Y-28500
X57900Y-29500
X57900Y-30500
X57900Y-31500
X57900Y-32500
X57900Y-34100
X57900Y-35100
X57900Y-36100
X57900Y-37100
X57900Y-38100
X57900Y-39100
X57900Y-40100
X57900Y-41100
X57900Y-43100
X57900Y-44100
X57900Y-45100
X57900Y-46100
X57900Y-47100
X57900Y-48100
X57900Y-49100
X57900Y-50100
X57900Y-53100
X57900Y-54100
X48400Y-29700
X48400Y-30700
X48400Y-31700
X48400Y-32700
X48400Y-33700
X44900Y-57200
X45900Y-57200
X46900Y-57200
X47900Y-57200
X40300Y-57200
X41300Y-57200
X42300Y-57200
X43300Y-57200
X52300Y-45900
X52300Y-46900
X52300Y-47900
X52300Y-48900
X52300Y-49900
X52300Y-50900
X46000Y-41900
X47000Y-41900
X48000Y-41900
X49000Y-41900
X50000Y-41900
X51000Y-41900
X56100Y-30500
X56100Y-31500
X56100Y-32500
X56100Y-33500
X56100Y-24800
X56100Y-25800
X56100Y-26800
X56100Y-27800
X56100Y-28800
X55100Y-47000
X55100Y-48000
X55100Y-49000
X55100Y-50000
X55100Y-51000
X55000Y-17800
X55000Y-18800
X55000Y-19800
X55000Y-20800
X55000Y-21800
X56000Y-17800
X56000Y-18800
X56000Y-19800
X56000Y-20800
X56000Y-21800
X56100Y-35200
X56100Y-36200
X56100Y-37200
X56100Y-38200
X51800Y-17800
X51800Y-18800
X51800Y-19800
X51800Y-20800
X51800Y-21800
X52800Y-17800
X52800Y-18800
X52800Y-19800
X52800Y-20800
X52800Y-21800
T7
X43000Y-22900
X43000Y-24900
X45700Y-22900
X45700Y-24900
X40600Y-49100
X40600Y-51100
X48000Y-49100
X48000Y-51100
X42400Y-49100
X42400Y-51100
X40200Y-20700
X40200Y-21700
X40200Y-22700
X44200Y-49100
X44200Y-51100
X46100Y-49100
X46100Y-51100
T8
X40200Y-18000
X42200Y-18000
X44200Y-18000
X46200Y-18000
T9
X36300Y-15000
X36700Y-57600
X58700Y-57900
X59600Y-15000
T0
M30
