  0
SECTION
  2
HEADER
  9
$ANGBASE
  50
0.0
  9
$ANGDIR
  70
  1
  9
$MEASUREMENT
  70
0
  0
ENDSEC
  0
SECTION
  2
TABLES
  0
TABLE
  2
LTYPE
  70
4
  0
LTYPE
  5
40F
  2
CONTINUOUS
  70
0
  3
Solid line
  72
65
  73
0
  40
0.0
  0
LTYPE
  5
410
  2
DASHDOT
 70
0
  3
Dash Dot ____ _ ____ _
 72
65
 73
4
 40
2.0
 49
1.25
 49
-0.25
 49
0.25
 49
-0.25
  0
LTYPE
  5
411
  2
DASHED
 70
0
  3
Dashed __ __ __ __ __
 72
65
 73
2
 40
0.75
 49
0.5
 49
-0.25
  0
LTYPE
  5
43B
  2
DOTTED
 70
0
  3
Dotted .  .  .  .
 72
65
 73
2
 40
0.2
 49
0.0
 49
-0.2
  0
ENDTAB
  0
TABLE
  2
STYLE
  70
4
  0
STYLE
  2
KICAD
  70
0
  40
0
  41
1
  42
1
  50
0
  71
0
  3
isocp.shx
  0
STYLE
  2
KICADB
  70
0
  40
0
  41
1
  42
1
  50
0
  71
0
  3
isocp.shx
  0
STYLE
  2
KICADI
  70
0
  40
0
  41
1
  42
1
  50
15
  71
0
  3
isocp.shx
  0
STYLE
  2
KICADBI
  70
0
  40
0
  41
1
  42
1
  50
15
  71
0
  3
isocp.shx
  0
ENDTAB
  0
TABLE
  2
LAYER
  70
30
  0
LAYER
  2
BLACK
  70
0
  62
7
  6
CONTINUOUS
  0
LAYER
  2
GRAY1
  70
0
  62
251
  6
CONTINUOUS
  0
LAYER
  2
GRAY2
  70
0
  62
8
  6
CONTINUOUS
  0
LAYER
  2
GRAY3
  70
0
  62
9
  6
CONTINUOUS
  0
LAYER
  2
WHITE
  70
0
  62
7
  6
CONTINUOUS
  0
LAYER
  2
LYELLOW
  70
0
  62
51
  6
CONTINUOUS
  0
LAYER
  2
BLUE1
  70
0
  62
178
  6
CONTINUOUS
  0
LAYER
  2
GREEN1
  70
0
  62
98
  6
CONTINUOUS
  0
LAYER
  2
CYAN1
  70
0
  62
138
  6
CONTINUOUS
  0
LAYER
  2
RED1
  70
0
  62
18
  6
CONTINUOUS
  0
LAYER
  2
MAGENTA1
  70
0
  62
228
  6
CONTINUOUS
  0
LAYER
  2
BROWN1
  70
0
  62
58
  6
CONTINUOUS
  0
LAYER
  2
BLUE2
  70
0
  62
5
  6
CONTINUOUS
  0
LAYER
  2
GREEN2
  70
0
  62
3
  6
CONTINUOUS
  0
LAYER
  2
CYAN2
  70
0
  62
4
  6
CONTINUOUS
  0
LAYER
  2
RED2
  70
0
  62
1
  6
CONTINUOUS
  0
LAYER
  2
MAGENTA2
  70
0
  62
6
  6
CONTINUOUS
  0
LAYER
  2
BROWN2
  70
0
  62
54
  6
CONTINUOUS
  0
LAYER
  2
BLUE3
  70
0
  62
171
  6
CONTINUOUS
  0
LAYER
  2
GREEN3
  70
0
  62
91
  6
CONTINUOUS
  0
LAYER
  2
CYAN3
  70
0
  62
131
  6
CONTINUOUS
  0
LAYER
  2
RED3
  70
0
  62
11
  6
CONTINUOUS
  0
LAYER
  2
MAGENTA3
  70
0
  62
221
  6
CONTINUOUS
  0
LAYER
  2
YELLOW3
  70
0
  62
2
  6
CONTINUOUS
  0
LAYER
  2
BLUE4
  70
0
  62
5
  6
CONTINUOUS
  0
LAYER
  2
GREEN4
  70
0
  62
3
  6
CONTINUOUS
  0
LAYER
  2
CYAN4
  70
0
  62
4
  6
CONTINUOUS
  0
LAYER
  2
RED4
  70
0
  62
1
  6
CONTINUOUS
  0
LAYER
  2
MAGENTA4
  70
0
  62
6
  6
CONTINUOUS
  0
LAYER
  2
YELLOW4
  70
0
  62
2
  6
CONTINUOUS
  0
ENDTAB
  0
ENDSEC
  0
SECTION
  2
ENTITIES
0
LINE
8
BLACK
6
CONTINUOUS
10
154.965
20
-151.384
11
154.965
21
-151.385
0
LINE
8
BLACK
6
CONTINUOUS
10
154.965
20
-151.385
11
154.965
21
-151.385
0
LINE
8
BLACK
6
CONTINUOUS
10
154.965
20
-151.385
11
154.965
21
-151.389
0
LINE
8
BLACK
6
CONTINUOUS
10
154.965
20
-151.389
11
154.963
21
-151.394
0
LINE
8
BLACK
6
CONTINUOUS
10
154.963
20
-151.394
11
154.961
21
-151.398
0
LINE
8
BLACK
6
CONTINUOUS
10
154.961
20
-151.398
11
154.958
21
-151.402
0
LINE
8
BLACK
6
CONTINUOUS
10
154.958
20
-151.402
11
154.954
21
-151.405
0
LINE
8
BLACK
6
CONTINUOUS
10
154.954
20
-151.405
11
154.95
21
-151.407
0
LINE
8
BLACK
6
CONTINUOUS
10
154.95
20
-151.407
11
154.945
21
-151.409
0
LINE
8
BLACK
6
CONTINUOUS
10
154.945
20
-151.409
11
154.94
21
-151.409
0
LINE
8
BLACK
6
CONTINUOUS
10
154.94
20
-151.409
11
154.939
21
-151.409
0
LINE
8
BLACK
6
CONTINUOUS
10
154.939
20
-151.409
11
88.1392
21
-151.409
0
LINE
8
BLACK
6
CONTINUOUS
10
88.1392
20
-151.409
11
88.138
21
-151.409
0
LINE
8
BLACK
6
CONTINUOUS
10
88.138
20
-151.409
11
88.1331
21
-151.409
0
LINE
8
BLACK
6
CONTINUOUS
10
88.1331
20
-151.409
11
88.1284
21
-151.407
0
LINE
8
BLACK
6
CONTINUOUS
10
88.1284
20
-151.407
11
88.124
21
-151.405
0
LINE
8
BLACK
6
CONTINUOUS
10
88.124
20
-151.405
11
88.1202
21
-151.402
0
LINE
8
BLACK
6
CONTINUOUS
10
88.1202
20
-151.402
11
88.1171
21
-151.398
0
LINE
8
BLACK
6
CONTINUOUS
10
88.1171
20
-151.398
11
88.1148
21
-151.394
0
LINE
8
BLACK
6
CONTINUOUS
10
88.1148
20
-151.394
11
88.1134
21
-151.389
0
LINE
8
BLACK
6
CONTINUOUS
10
88.1134
20
-151.389
11
88.1129
21
-151.384
0
LINE
8
BLACK
6
CONTINUOUS
10
88.1129
20
-151.384
11
88.113
21
-151.383
0
LINE
8
BLACK
6
CONTINUOUS
10
88.113
20
-151.383
11
88.113
21
-34.0372
0
LINE
8
BLACK
6
CONTINUOUS
10
88.113
20
-34.0372
11
88.1129
21
-34.036
0
LINE
8
BLACK
6
CONTINUOUS
10
88.1129
20
-34.036
11
88.1134
21
-34.0311
0
LINE
8
BLACK
6
CONTINUOUS
10
88.1134
20
-34.0311
11
88.1148
21
-34.0264
0
LINE
8
BLACK
6
CONTINUOUS
10
88.1148
20
-34.0264
11
88.1171
21
-34.022
0
LINE
8
BLACK
6
CONTINUOUS
10
88.1171
20
-34.022
11
88.1202
21
-34.0182
0
LINE
8
BLACK
6
CONTINUOUS
10
88.1202
20
-34.0182
11
88.124
21
-34.0151
0
LINE
8
BLACK
6
CONTINUOUS
10
88.124
20
-34.0151
11
88.1284
21
-34.0128
0
LINE
8
BLACK
6
CONTINUOUS
10
88.1284
20
-34.0128
11
88.1331
21
-34.0114
0
LINE
8
BLACK
6
CONTINUOUS
10
88.1331
20
-34.0114
11
88.1368
21
-34.011
0
LINE
8
BLACK
6
CONTINUOUS
10
88.1368
20
-34.011
11
88.1368
21
-34.011
0
LINE
8
BLACK
6
CONTINUOUS
10
88.1368
20
-34.011
11
88.138
21
-34.0109
0
LINE
8
BLACK
6
CONTINUOUS
10
88.138
20
-34.0109
11
88.1392
21
-34.011
0
LINE
8
BLACK
6
CONTINUOUS
10
88.1392
20
-34.011
11
154.939
21
-34.011
0
LINE
8
BLACK
6
CONTINUOUS
10
154.939
20
-34.011
11
154.94
21
-34.0109
0
LINE
8
BLACK
6
CONTINUOUS
10
154.94
20
-34.0109
11
154.941
21
-34.011
0
LINE
8
BLACK
6
CONTINUOUS
10
154.941
20
-34.011
11
154.941
21
-34.011
0
LINE
8
BLACK
6
CONTINUOUS
10
154.941
20
-34.011
11
154.945
21
-34.0114
0
LINE
8
BLACK
6
CONTINUOUS
10
154.945
20
-34.0114
11
154.95
21
-34.0128
0
LINE
8
BLACK
6
CONTINUOUS
10
154.95
20
-34.0128
11
154.954
21
-34.0151
0
LINE
8
BLACK
6
CONTINUOUS
10
154.954
20
-34.0151
11
154.958
21
-34.0182
0
LINE
8
BLACK
6
CONTINUOUS
10
154.958
20
-34.0182
11
154.961
21
-34.022
0
LINE
8
BLACK
6
CONTINUOUS
10
154.961
20
-34.022
11
154.963
21
-34.0264
0
LINE
8
BLACK
6
CONTINUOUS
10
154.963
20
-34.0264
11
154.965
21
-34.0311
0
LINE
8
BLACK
6
CONTINUOUS
10
154.965
20
-34.0311
11
154.965
21
-34.036
0
LINE
8
BLACK
6
CONTINUOUS
10
154.965
20
-34.036
11
154.965
21
-34.0372
0
LINE
8
BLACK
6
CONTINUOUS
10
154.965
20
-34.0372
11
154.965
21
-151.383
0
LINE
8
BLACK
6
CONTINUOUS
10
154.965
20
-151.383
11
154.965
21
-151.384
0
LINE
8
BLACK
6
CONTINUOUS
10
88.163
20
-34.061
11
88.163
21
-151.359
0
LINE
8
BLACK
6
CONTINUOUS
10
88.163
20
-151.359
11
154.915
21
-151.359
0
LINE
8
BLACK
6
CONTINUOUS
10
154.915
20
-151.359
11
154.915
21
-36.8288
0
LINE
8
BLACK
6
CONTINUOUS
10
154.915
20
-36.8288
11
154.915
21
-36.8288
0
LINE
8
BLACK
6
CONTINUOUS
10
154.915
20
-36.8288
11
154.915
21
-34.061
0
LINE
8
BLACK
6
CONTINUOUS
10
154.915
20
-34.061
11
88.163
21
-34.061
  0
ENDSEC
  0
EOF
