G04 #@! TF.GenerationSoftware,KiCad,Pcbnew,(5.1.2)-2*
G04 #@! TF.CreationDate,2020-04-13T13:08:01+07:00*
G04 #@! TF.ProjectId,arduino_due_shield,61726475-696e-46f5-9f64-75655f736869,rev?*
G04 #@! TF.SameCoordinates,Original*
G04 #@! TF.FileFunction,Legend,Top*
G04 #@! TF.FilePolarity,Positive*
%FSLAX46Y46*%
G04 Gerber Fmt 4.6, Leading zero omitted, Abs format (unit mm)*
G04 Created by KiCad (PCBNEW (5.1.2)-2) date 2020-04-13 13:08:01*
%MOMM*%
%LPD*%
G04 APERTURE LIST*
%ADD10C,0.150000*%
%ADD11C,0.425000*%
%ADD12C,0.500000*%
%ADD13C,0.120000*%
%ADD14C,0.300000*%
G04 APERTURE END LIST*
D10*
X102123904Y-142708380D02*
X101647714Y-142708380D01*
X101600095Y-143184571D01*
X101647714Y-143136952D01*
X101742952Y-143089333D01*
X101981047Y-143089333D01*
X102076285Y-143136952D01*
X102123904Y-143184571D01*
X102171523Y-143279809D01*
X102171523Y-143517904D01*
X102123904Y-143613142D01*
X102076285Y-143660761D01*
X101981047Y-143708380D01*
X101742952Y-143708380D01*
X101647714Y-143660761D01*
X101600095Y-143613142D01*
X102504857Y-142708380D02*
X103123904Y-142708380D01*
X102790571Y-143089333D01*
X102933428Y-143089333D01*
X103028666Y-143136952D01*
X103076285Y-143184571D01*
X103123904Y-143279809D01*
X103123904Y-143517904D01*
X103076285Y-143613142D01*
X103028666Y-143660761D01*
X102933428Y-143708380D01*
X102647714Y-143708380D01*
X102552476Y-143660761D01*
X102504857Y-143613142D01*
X104663904Y-142708380D02*
X104187714Y-142708380D01*
X104140095Y-143184571D01*
X104187714Y-143136952D01*
X104282952Y-143089333D01*
X104521047Y-143089333D01*
X104616285Y-143136952D01*
X104663904Y-143184571D01*
X104711523Y-143279809D01*
X104711523Y-143517904D01*
X104663904Y-143613142D01*
X104616285Y-143660761D01*
X104521047Y-143708380D01*
X104282952Y-143708380D01*
X104187714Y-143660761D01*
X104140095Y-143613142D01*
X105092476Y-142803619D02*
X105140095Y-142756000D01*
X105235333Y-142708380D01*
X105473428Y-142708380D01*
X105568666Y-142756000D01*
X105616285Y-142803619D01*
X105663904Y-142898857D01*
X105663904Y-142994095D01*
X105616285Y-143136952D01*
X105044857Y-143708380D01*
X105663904Y-143708380D01*
X107203904Y-142708380D02*
X106727714Y-142708380D01*
X106680095Y-143184571D01*
X106727714Y-143136952D01*
X106822952Y-143089333D01*
X107061047Y-143089333D01*
X107156285Y-143136952D01*
X107203904Y-143184571D01*
X107251523Y-143279809D01*
X107251523Y-143517904D01*
X107203904Y-143613142D01*
X107156285Y-143660761D01*
X107061047Y-143708380D01*
X106822952Y-143708380D01*
X106727714Y-143660761D01*
X106680095Y-143613142D01*
X108203904Y-143708380D02*
X107632476Y-143708380D01*
X107918190Y-143708380D02*
X107918190Y-142708380D01*
X107822952Y-142851238D01*
X107727714Y-142946476D01*
X107632476Y-142994095D01*
X109696285Y-143041714D02*
X109696285Y-143708380D01*
X109458190Y-142660761D02*
X109220095Y-143375047D01*
X109839142Y-143375047D01*
X110267714Y-143708380D02*
X110458190Y-143708380D01*
X110553428Y-143660761D01*
X110601047Y-143613142D01*
X110696285Y-143470285D01*
X110743904Y-143279809D01*
X110743904Y-142898857D01*
X110696285Y-142803619D01*
X110648666Y-142756000D01*
X110553428Y-142708380D01*
X110362952Y-142708380D01*
X110267714Y-142756000D01*
X110220095Y-142803619D01*
X110172476Y-142898857D01*
X110172476Y-143136952D01*
X110220095Y-143232190D01*
X110267714Y-143279809D01*
X110362952Y-143327428D01*
X110553428Y-143327428D01*
X110648666Y-143279809D01*
X110696285Y-143232190D01*
X110743904Y-143136952D01*
X113760285Y-143041714D02*
X113760285Y-143708380D01*
X113522190Y-142660761D02*
X113284095Y-143375047D01*
X113903142Y-143375047D01*
X114188857Y-142708380D02*
X114855523Y-142708380D01*
X114426952Y-143708380D01*
X116300285Y-143041714D02*
X116300285Y-143708380D01*
X116062190Y-142660761D02*
X115824095Y-143375047D01*
X116443142Y-143375047D01*
X117300285Y-142708380D02*
X116824095Y-142708380D01*
X116776476Y-143184571D01*
X116824095Y-143136952D01*
X116919333Y-143089333D01*
X117157428Y-143089333D01*
X117252666Y-143136952D01*
X117300285Y-143184571D01*
X117347904Y-143279809D01*
X117347904Y-143517904D01*
X117300285Y-143613142D01*
X117252666Y-143660761D01*
X117157428Y-143708380D01*
X116919333Y-143708380D01*
X116824095Y-143660761D01*
X116776476Y-143613142D01*
X118586285Y-143041714D02*
X118586285Y-143708380D01*
X118348190Y-142660761D02*
X118110095Y-143375047D01*
X118729142Y-143375047D01*
X119014857Y-142708380D02*
X119633904Y-142708380D01*
X119300571Y-143089333D01*
X119443428Y-143089333D01*
X119538666Y-143136952D01*
X119586285Y-143184571D01*
X119633904Y-143279809D01*
X119633904Y-143517904D01*
X119586285Y-143613142D01*
X119538666Y-143660761D01*
X119443428Y-143708380D01*
X119157714Y-143708380D01*
X119062476Y-143660761D01*
X119014857Y-143613142D01*
X121380285Y-143041714D02*
X121380285Y-143708380D01*
X121142190Y-142660761D02*
X120904095Y-143375047D01*
X121523142Y-143375047D01*
X122427904Y-143708380D02*
X121856476Y-143708380D01*
X122142190Y-143708380D02*
X122142190Y-142708380D01*
X122046952Y-142851238D01*
X121951714Y-142946476D01*
X121856476Y-142994095D01*
X102155714Y-94654666D02*
X102631904Y-94654666D01*
X102060476Y-94940380D02*
X102393809Y-93940380D01*
X102727142Y-94940380D01*
X103489047Y-94273714D02*
X103489047Y-94940380D01*
X103250952Y-93892761D02*
X103012857Y-94607047D01*
X103631904Y-94607047D01*
X102155714Y-102274666D02*
X102631904Y-102274666D01*
X102060476Y-102560380D02*
X102393809Y-101560380D01*
X102727142Y-102560380D01*
X102965238Y-101560380D02*
X103631904Y-101560380D01*
X103203333Y-102560380D01*
X102155714Y-96940666D02*
X102631904Y-96940666D01*
X102060476Y-97226380D02*
X102393809Y-96226380D01*
X102727142Y-97226380D01*
X103536666Y-96226380D02*
X103060476Y-96226380D01*
X103012857Y-96702571D01*
X103060476Y-96654952D01*
X103155714Y-96607333D01*
X103393809Y-96607333D01*
X103489047Y-96654952D01*
X103536666Y-96702571D01*
X103584285Y-96797809D01*
X103584285Y-97035904D01*
X103536666Y-97131142D01*
X103489047Y-97178761D01*
X103393809Y-97226380D01*
X103155714Y-97226380D01*
X103060476Y-97178761D01*
X103012857Y-97131142D01*
X102155714Y-99480666D02*
X102631904Y-99480666D01*
X102060476Y-99766380D02*
X102393809Y-98766380D01*
X102727142Y-99766380D01*
X103489047Y-98766380D02*
X103298571Y-98766380D01*
X103203333Y-98814000D01*
X103155714Y-98861619D01*
X103060476Y-99004476D01*
X103012857Y-99194952D01*
X103012857Y-99575904D01*
X103060476Y-99671142D01*
X103108095Y-99718761D01*
X103203333Y-99766380D01*
X103393809Y-99766380D01*
X103489047Y-99718761D01*
X103536666Y-99671142D01*
X103584285Y-99575904D01*
X103584285Y-99337809D01*
X103536666Y-99242571D01*
X103489047Y-99194952D01*
X103393809Y-99147333D01*
X103203333Y-99147333D01*
X103108095Y-99194952D01*
X103060476Y-99242571D01*
X103012857Y-99337809D01*
X102679523Y-104354380D02*
X102203333Y-104354380D01*
X102155714Y-104830571D01*
X102203333Y-104782952D01*
X102298571Y-104735333D01*
X102536666Y-104735333D01*
X102631904Y-104782952D01*
X102679523Y-104830571D01*
X102727142Y-104925809D01*
X102727142Y-105163904D01*
X102679523Y-105259142D01*
X102631904Y-105306761D01*
X102536666Y-105354380D01*
X102298571Y-105354380D01*
X102203333Y-105306761D01*
X102155714Y-105259142D01*
X103012857Y-104354380D02*
X103346190Y-105354380D01*
X103679523Y-104354380D01*
X110998095Y-103640000D02*
X110902857Y-103592380D01*
X110760000Y-103592380D01*
X110617142Y-103640000D01*
X110521904Y-103735238D01*
X110474285Y-103830476D01*
X110426666Y-104020952D01*
X110426666Y-104163809D01*
X110474285Y-104354285D01*
X110521904Y-104449523D01*
X110617142Y-104544761D01*
X110760000Y-104592380D01*
X110855238Y-104592380D01*
X110998095Y-104544761D01*
X111045714Y-104497142D01*
X111045714Y-104163809D01*
X110855238Y-104163809D01*
X111474285Y-104592380D02*
X111474285Y-103592380D01*
X112045714Y-104592380D01*
X112045714Y-103592380D01*
X112521904Y-104592380D02*
X112521904Y-103592380D01*
X112760000Y-103592380D01*
X112902857Y-103640000D01*
X112998095Y-103735238D01*
X113045714Y-103830476D01*
X113093333Y-104020952D01*
X113093333Y-104163809D01*
X113045714Y-104354285D01*
X112998095Y-104449523D01*
X112902857Y-104544761D01*
X112760000Y-104592380D01*
X112521904Y-104592380D01*
X110537714Y-102020666D02*
X111013904Y-102020666D01*
X110442476Y-102306380D02*
X110775809Y-101306380D01*
X111109142Y-102306380D01*
X111347238Y-101306380D02*
X111966285Y-101306380D01*
X111632952Y-101687333D01*
X111775809Y-101687333D01*
X111871047Y-101734952D01*
X111918666Y-101782571D01*
X111966285Y-101877809D01*
X111966285Y-102115904D01*
X111918666Y-102211142D01*
X111871047Y-102258761D01*
X111775809Y-102306380D01*
X111490095Y-102306380D01*
X111394857Y-102258761D01*
X111347238Y-102211142D01*
X110537714Y-99480666D02*
X111013904Y-99480666D01*
X110442476Y-99766380D02*
X110775809Y-98766380D01*
X111109142Y-99766380D01*
X111394857Y-98861619D02*
X111442476Y-98814000D01*
X111537714Y-98766380D01*
X111775809Y-98766380D01*
X111871047Y-98814000D01*
X111918666Y-98861619D01*
X111966285Y-98956857D01*
X111966285Y-99052095D01*
X111918666Y-99194952D01*
X111347238Y-99766380D01*
X111966285Y-99766380D01*
X110537714Y-96686666D02*
X111013904Y-96686666D01*
X110442476Y-96972380D02*
X110775809Y-95972380D01*
X111109142Y-96972380D01*
X111966285Y-96972380D02*
X111394857Y-96972380D01*
X111680571Y-96972380D02*
X111680571Y-95972380D01*
X111585333Y-96115238D01*
X111490095Y-96210476D01*
X111394857Y-96258095D01*
X110537714Y-94400666D02*
X111013904Y-94400666D01*
X110442476Y-94686380D02*
X110775809Y-93686380D01*
X111109142Y-94686380D01*
X111632952Y-93686380D02*
X111728190Y-93686380D01*
X111823428Y-93734000D01*
X111871047Y-93781619D01*
X111918666Y-93876857D01*
X111966285Y-94067333D01*
X111966285Y-94305428D01*
X111918666Y-94495904D01*
X111871047Y-94591142D01*
X111823428Y-94638761D01*
X111728190Y-94686380D01*
X111632952Y-94686380D01*
X111537714Y-94638761D01*
X111490095Y-94591142D01*
X111442476Y-94495904D01*
X111394857Y-94305428D01*
X111394857Y-94067333D01*
X111442476Y-93876857D01*
X111490095Y-93781619D01*
X111537714Y-93734000D01*
X111632952Y-93686380D01*
X117546380Y-110688285D02*
X116546380Y-110688285D01*
X116546380Y-110450190D01*
X116594000Y-110307333D01*
X116689238Y-110212095D01*
X116784476Y-110164476D01*
X116974952Y-110116857D01*
X117117809Y-110116857D01*
X117308285Y-110164476D01*
X117403523Y-110212095D01*
X117498761Y-110307333D01*
X117546380Y-110450190D01*
X117546380Y-110688285D01*
X116879714Y-109259714D02*
X117546380Y-109259714D01*
X116498761Y-109497809D02*
X117213047Y-109735904D01*
X117213047Y-109116857D01*
X116546380Y-108545428D02*
X116546380Y-108450190D01*
X116594000Y-108354952D01*
X116641619Y-108307333D01*
X116736857Y-108259714D01*
X116927333Y-108212095D01*
X117165428Y-108212095D01*
X117355904Y-108259714D01*
X117451142Y-108307333D01*
X117498761Y-108354952D01*
X117546380Y-108450190D01*
X117546380Y-108545428D01*
X117498761Y-108640666D01*
X117451142Y-108688285D01*
X117355904Y-108735904D01*
X117165428Y-108783523D01*
X116927333Y-108783523D01*
X116736857Y-108735904D01*
X116641619Y-108688285D01*
X116594000Y-108640666D01*
X116546380Y-108545428D01*
X119832380Y-110688285D02*
X118832380Y-110688285D01*
X118832380Y-110450190D01*
X118880000Y-110307333D01*
X118975238Y-110212095D01*
X119070476Y-110164476D01*
X119260952Y-110116857D01*
X119403809Y-110116857D01*
X119594285Y-110164476D01*
X119689523Y-110212095D01*
X119784761Y-110307333D01*
X119832380Y-110450190D01*
X119832380Y-110688285D01*
X118832380Y-109783523D02*
X118832380Y-109164476D01*
X119213333Y-109497809D01*
X119213333Y-109354952D01*
X119260952Y-109259714D01*
X119308571Y-109212095D01*
X119403809Y-109164476D01*
X119641904Y-109164476D01*
X119737142Y-109212095D01*
X119784761Y-109259714D01*
X119832380Y-109354952D01*
X119832380Y-109640666D01*
X119784761Y-109735904D01*
X119737142Y-109783523D01*
X119260952Y-108593047D02*
X119213333Y-108688285D01*
X119165714Y-108735904D01*
X119070476Y-108783523D01*
X119022857Y-108783523D01*
X118927619Y-108735904D01*
X118880000Y-108688285D01*
X118832380Y-108593047D01*
X118832380Y-108402571D01*
X118880000Y-108307333D01*
X118927619Y-108259714D01*
X119022857Y-108212095D01*
X119070476Y-108212095D01*
X119165714Y-108259714D01*
X119213333Y-108307333D01*
X119260952Y-108402571D01*
X119260952Y-108593047D01*
X119308571Y-108688285D01*
X119356190Y-108735904D01*
X119451428Y-108783523D01*
X119641904Y-108783523D01*
X119737142Y-108735904D01*
X119784761Y-108688285D01*
X119832380Y-108593047D01*
X119832380Y-108402571D01*
X119784761Y-108307333D01*
X119737142Y-108259714D01*
X119641904Y-108212095D01*
X119451428Y-108212095D01*
X119356190Y-108259714D01*
X119308571Y-108307333D01*
X119260952Y-108402571D01*
X122372380Y-110688285D02*
X121372380Y-110688285D01*
X121372380Y-110450190D01*
X121420000Y-110307333D01*
X121515238Y-110212095D01*
X121610476Y-110164476D01*
X121800952Y-110116857D01*
X121943809Y-110116857D01*
X122134285Y-110164476D01*
X122229523Y-110212095D01*
X122324761Y-110307333D01*
X122372380Y-110450190D01*
X122372380Y-110688285D01*
X121372380Y-109783523D02*
X121372380Y-109164476D01*
X121753333Y-109497809D01*
X121753333Y-109354952D01*
X121800952Y-109259714D01*
X121848571Y-109212095D01*
X121943809Y-109164476D01*
X122181904Y-109164476D01*
X122277142Y-109212095D01*
X122324761Y-109259714D01*
X122372380Y-109354952D01*
X122372380Y-109640666D01*
X122324761Y-109735904D01*
X122277142Y-109783523D01*
X121372380Y-108307333D02*
X121372380Y-108497809D01*
X121420000Y-108593047D01*
X121467619Y-108640666D01*
X121610476Y-108735904D01*
X121800952Y-108783523D01*
X122181904Y-108783523D01*
X122277142Y-108735904D01*
X122324761Y-108688285D01*
X122372380Y-108593047D01*
X122372380Y-108402571D01*
X122324761Y-108307333D01*
X122277142Y-108259714D01*
X122181904Y-108212095D01*
X121943809Y-108212095D01*
X121848571Y-108259714D01*
X121800952Y-108307333D01*
X121753333Y-108402571D01*
X121753333Y-108593047D01*
X121800952Y-108688285D01*
X121848571Y-108735904D01*
X121943809Y-108783523D01*
X124912380Y-110942285D02*
X123912380Y-110942285D01*
X123912380Y-110704190D01*
X123960000Y-110561333D01*
X124055238Y-110466095D01*
X124150476Y-110418476D01*
X124340952Y-110370857D01*
X124483809Y-110370857D01*
X124674285Y-110418476D01*
X124769523Y-110466095D01*
X124864761Y-110561333D01*
X124912380Y-110704190D01*
X124912380Y-110942285D01*
X123912380Y-110037523D02*
X123912380Y-109418476D01*
X124293333Y-109751809D01*
X124293333Y-109608952D01*
X124340952Y-109513714D01*
X124388571Y-109466095D01*
X124483809Y-109418476D01*
X124721904Y-109418476D01*
X124817142Y-109466095D01*
X124864761Y-109513714D01*
X124912380Y-109608952D01*
X124912380Y-109894666D01*
X124864761Y-109989904D01*
X124817142Y-110037523D01*
X124245714Y-108561333D02*
X124912380Y-108561333D01*
X123864761Y-108799428D02*
X124579047Y-109037523D01*
X124579047Y-108418476D01*
X127452380Y-110942285D02*
X126452380Y-110942285D01*
X126452380Y-110704190D01*
X126500000Y-110561333D01*
X126595238Y-110466095D01*
X126690476Y-110418476D01*
X126880952Y-110370857D01*
X127023809Y-110370857D01*
X127214285Y-110418476D01*
X127309523Y-110466095D01*
X127404761Y-110561333D01*
X127452380Y-110704190D01*
X127452380Y-110942285D01*
X126452380Y-110037523D02*
X126452380Y-109418476D01*
X126833333Y-109751809D01*
X126833333Y-109608952D01*
X126880952Y-109513714D01*
X126928571Y-109466095D01*
X127023809Y-109418476D01*
X127261904Y-109418476D01*
X127357142Y-109466095D01*
X127404761Y-109513714D01*
X127452380Y-109608952D01*
X127452380Y-109894666D01*
X127404761Y-109989904D01*
X127357142Y-110037523D01*
X126547619Y-109037523D02*
X126500000Y-108989904D01*
X126452380Y-108894666D01*
X126452380Y-108656571D01*
X126500000Y-108561333D01*
X126547619Y-108513714D01*
X126642857Y-108466095D01*
X126738095Y-108466095D01*
X126880952Y-108513714D01*
X127452380Y-109085142D01*
X127452380Y-108466095D01*
X129992380Y-110942285D02*
X128992380Y-110942285D01*
X128992380Y-110704190D01*
X129040000Y-110561333D01*
X129135238Y-110466095D01*
X129230476Y-110418476D01*
X129420952Y-110370857D01*
X129563809Y-110370857D01*
X129754285Y-110418476D01*
X129849523Y-110466095D01*
X129944761Y-110561333D01*
X129992380Y-110704190D01*
X129992380Y-110942285D01*
X128992380Y-110037523D02*
X128992380Y-109418476D01*
X129373333Y-109751809D01*
X129373333Y-109608952D01*
X129420952Y-109513714D01*
X129468571Y-109466095D01*
X129563809Y-109418476D01*
X129801904Y-109418476D01*
X129897142Y-109466095D01*
X129944761Y-109513714D01*
X129992380Y-109608952D01*
X129992380Y-109894666D01*
X129944761Y-109989904D01*
X129897142Y-110037523D01*
X128992380Y-108799428D02*
X128992380Y-108704190D01*
X129040000Y-108608952D01*
X129087619Y-108561333D01*
X129182857Y-108513714D01*
X129373333Y-108466095D01*
X129611428Y-108466095D01*
X129801904Y-108513714D01*
X129897142Y-108561333D01*
X129944761Y-108608952D01*
X129992380Y-108704190D01*
X129992380Y-108799428D01*
X129944761Y-108894666D01*
X129897142Y-108942285D01*
X129801904Y-108989904D01*
X129611428Y-109037523D01*
X129373333Y-109037523D01*
X129182857Y-108989904D01*
X129087619Y-108942285D01*
X129040000Y-108894666D01*
X128992380Y-108799428D01*
X129032095Y-116387619D02*
X129079714Y-116340000D01*
X129174952Y-116292380D01*
X129413047Y-116292380D01*
X129508285Y-116340000D01*
X129555904Y-116387619D01*
X129603523Y-116482857D01*
X129603523Y-116578095D01*
X129555904Y-116720952D01*
X128984476Y-117292380D01*
X129603523Y-117292380D01*
X129984476Y-116387619D02*
X130032095Y-116340000D01*
X130127333Y-116292380D01*
X130365428Y-116292380D01*
X130460666Y-116340000D01*
X130508285Y-116387619D01*
X130555904Y-116482857D01*
X130555904Y-116578095D01*
X130508285Y-116720952D01*
X129936857Y-117292380D01*
X130555904Y-117292380D01*
X129032095Y-118673619D02*
X129079714Y-118626000D01*
X129174952Y-118578380D01*
X129413047Y-118578380D01*
X129508285Y-118626000D01*
X129555904Y-118673619D01*
X129603523Y-118768857D01*
X129603523Y-118864095D01*
X129555904Y-119006952D01*
X128984476Y-119578380D01*
X129603523Y-119578380D01*
X130460666Y-118911714D02*
X130460666Y-119578380D01*
X130222571Y-118530761D02*
X129984476Y-119245047D01*
X130603523Y-119245047D01*
X129032095Y-121467619D02*
X129079714Y-121420000D01*
X129174952Y-121372380D01*
X129413047Y-121372380D01*
X129508285Y-121420000D01*
X129555904Y-121467619D01*
X129603523Y-121562857D01*
X129603523Y-121658095D01*
X129555904Y-121800952D01*
X128984476Y-122372380D01*
X129603523Y-122372380D01*
X130460666Y-121372380D02*
X130270190Y-121372380D01*
X130174952Y-121420000D01*
X130127333Y-121467619D01*
X130032095Y-121610476D01*
X129984476Y-121800952D01*
X129984476Y-122181904D01*
X130032095Y-122277142D01*
X130079714Y-122324761D01*
X130174952Y-122372380D01*
X130365428Y-122372380D01*
X130460666Y-122324761D01*
X130508285Y-122277142D01*
X130555904Y-122181904D01*
X130555904Y-121943809D01*
X130508285Y-121848571D01*
X130460666Y-121800952D01*
X130365428Y-121753333D01*
X130174952Y-121753333D01*
X130079714Y-121800952D01*
X130032095Y-121848571D01*
X129984476Y-121943809D01*
X129286095Y-124007619D02*
X129333714Y-123960000D01*
X129428952Y-123912380D01*
X129667047Y-123912380D01*
X129762285Y-123960000D01*
X129809904Y-124007619D01*
X129857523Y-124102857D01*
X129857523Y-124198095D01*
X129809904Y-124340952D01*
X129238476Y-124912380D01*
X129857523Y-124912380D01*
X130428952Y-124340952D02*
X130333714Y-124293333D01*
X130286095Y-124245714D01*
X130238476Y-124150476D01*
X130238476Y-124102857D01*
X130286095Y-124007619D01*
X130333714Y-123960000D01*
X130428952Y-123912380D01*
X130619428Y-123912380D01*
X130714666Y-123960000D01*
X130762285Y-124007619D01*
X130809904Y-124102857D01*
X130809904Y-124150476D01*
X130762285Y-124245714D01*
X130714666Y-124293333D01*
X130619428Y-124340952D01*
X130428952Y-124340952D01*
X130333714Y-124388571D01*
X130286095Y-124436190D01*
X130238476Y-124531428D01*
X130238476Y-124721904D01*
X130286095Y-124817142D01*
X130333714Y-124864761D01*
X130428952Y-124912380D01*
X130619428Y-124912380D01*
X130714666Y-124864761D01*
X130762285Y-124817142D01*
X130809904Y-124721904D01*
X130809904Y-124531428D01*
X130762285Y-124436190D01*
X130714666Y-124388571D01*
X130619428Y-124340952D01*
X129603523Y-126452380D02*
X129127333Y-126452380D01*
X129079714Y-126928571D01*
X129127333Y-126880952D01*
X129222571Y-126833333D01*
X129460666Y-126833333D01*
X129555904Y-126880952D01*
X129603523Y-126928571D01*
X129651142Y-127023809D01*
X129651142Y-127261904D01*
X129603523Y-127357142D01*
X129555904Y-127404761D01*
X129460666Y-127452380D01*
X129222571Y-127452380D01*
X129127333Y-127404761D01*
X129079714Y-127357142D01*
X129936857Y-126452380D02*
X130270190Y-127452380D01*
X130603523Y-126452380D01*
X128778095Y-129040000D02*
X128682857Y-128992380D01*
X128540000Y-128992380D01*
X128397142Y-129040000D01*
X128301904Y-129135238D01*
X128254285Y-129230476D01*
X128206666Y-129420952D01*
X128206666Y-129563809D01*
X128254285Y-129754285D01*
X128301904Y-129849523D01*
X128397142Y-129944761D01*
X128540000Y-129992380D01*
X128635238Y-129992380D01*
X128778095Y-129944761D01*
X128825714Y-129897142D01*
X128825714Y-129563809D01*
X128635238Y-129563809D01*
X129254285Y-129992380D02*
X129254285Y-128992380D01*
X129825714Y-129992380D01*
X129825714Y-128992380D01*
X130301904Y-129992380D02*
X130301904Y-128992380D01*
X130540000Y-128992380D01*
X130682857Y-129040000D01*
X130778095Y-129135238D01*
X130825714Y-129230476D01*
X130873333Y-129420952D01*
X130873333Y-129563809D01*
X130825714Y-129754285D01*
X130778095Y-129849523D01*
X130682857Y-129944761D01*
X130540000Y-129992380D01*
X130301904Y-129992380D01*
X136398095Y-121721619D02*
X136445714Y-121674000D01*
X136540952Y-121626380D01*
X136779047Y-121626380D01*
X136874285Y-121674000D01*
X136921904Y-121721619D01*
X136969523Y-121816857D01*
X136969523Y-121912095D01*
X136921904Y-122054952D01*
X136350476Y-122626380D01*
X136969523Y-122626380D01*
X137445714Y-122626380D02*
X137636190Y-122626380D01*
X137731428Y-122578761D01*
X137779047Y-122531142D01*
X137874285Y-122388285D01*
X137921904Y-122197809D01*
X137921904Y-121816857D01*
X137874285Y-121721619D01*
X137826666Y-121674000D01*
X137731428Y-121626380D01*
X137540952Y-121626380D01*
X137445714Y-121674000D01*
X137398095Y-121721619D01*
X137350476Y-121816857D01*
X137350476Y-122054952D01*
X137398095Y-122150190D01*
X137445714Y-122197809D01*
X137540952Y-122245428D01*
X137731428Y-122245428D01*
X137826666Y-122197809D01*
X137874285Y-122150190D01*
X137921904Y-122054952D01*
X136398095Y-124261619D02*
X136445714Y-124214000D01*
X136540952Y-124166380D01*
X136779047Y-124166380D01*
X136874285Y-124214000D01*
X136921904Y-124261619D01*
X136969523Y-124356857D01*
X136969523Y-124452095D01*
X136921904Y-124594952D01*
X136350476Y-125166380D01*
X136969523Y-125166380D01*
X137302857Y-124166380D02*
X137969523Y-124166380D01*
X137540952Y-125166380D01*
X136144095Y-126801619D02*
X136191714Y-126754000D01*
X136286952Y-126706380D01*
X136525047Y-126706380D01*
X136620285Y-126754000D01*
X136667904Y-126801619D01*
X136715523Y-126896857D01*
X136715523Y-126992095D01*
X136667904Y-127134952D01*
X136096476Y-127706380D01*
X136715523Y-127706380D01*
X137620285Y-126706380D02*
X137144095Y-126706380D01*
X137096476Y-127182571D01*
X137144095Y-127134952D01*
X137239333Y-127087333D01*
X137477428Y-127087333D01*
X137572666Y-127134952D01*
X137620285Y-127182571D01*
X137667904Y-127277809D01*
X137667904Y-127515904D01*
X137620285Y-127611142D01*
X137572666Y-127658761D01*
X137477428Y-127706380D01*
X137239333Y-127706380D01*
X137144095Y-127658761D01*
X137096476Y-127611142D01*
X136144095Y-129341619D02*
X136191714Y-129294000D01*
X136286952Y-129246380D01*
X136525047Y-129246380D01*
X136620285Y-129294000D01*
X136667904Y-129341619D01*
X136715523Y-129436857D01*
X136715523Y-129532095D01*
X136667904Y-129674952D01*
X136096476Y-130246380D01*
X136715523Y-130246380D01*
X137048857Y-129246380D02*
X137667904Y-129246380D01*
X137334571Y-129627333D01*
X137477428Y-129627333D01*
X137572666Y-129674952D01*
X137620285Y-129722571D01*
X137667904Y-129817809D01*
X137667904Y-130055904D01*
X137620285Y-130151142D01*
X137572666Y-130198761D01*
X137477428Y-130246380D01*
X137191714Y-130246380D01*
X137096476Y-130198761D01*
X137048857Y-130151142D01*
X136969523Y-119086380D02*
X136493333Y-119086380D01*
X136445714Y-119562571D01*
X136493333Y-119514952D01*
X136588571Y-119467333D01*
X136826666Y-119467333D01*
X136921904Y-119514952D01*
X136969523Y-119562571D01*
X137017142Y-119657809D01*
X137017142Y-119895904D01*
X136969523Y-119991142D01*
X136921904Y-120038761D01*
X136826666Y-120086380D01*
X136588571Y-120086380D01*
X136493333Y-120038761D01*
X136445714Y-119991142D01*
X137302857Y-119086380D02*
X137636190Y-120086380D01*
X137969523Y-119086380D01*
X136144095Y-116594000D02*
X136048857Y-116546380D01*
X135906000Y-116546380D01*
X135763142Y-116594000D01*
X135667904Y-116689238D01*
X135620285Y-116784476D01*
X135572666Y-116974952D01*
X135572666Y-117117809D01*
X135620285Y-117308285D01*
X135667904Y-117403523D01*
X135763142Y-117498761D01*
X135906000Y-117546380D01*
X136001238Y-117546380D01*
X136144095Y-117498761D01*
X136191714Y-117451142D01*
X136191714Y-117117809D01*
X136001238Y-117117809D01*
X136620285Y-117546380D02*
X136620285Y-116546380D01*
X137191714Y-117546380D01*
X137191714Y-116546380D01*
X137667904Y-117546380D02*
X137667904Y-116546380D01*
X137906000Y-116546380D01*
X138048857Y-116594000D01*
X138144095Y-116689238D01*
X138191714Y-116784476D01*
X138239333Y-116974952D01*
X138239333Y-117117809D01*
X138191714Y-117308285D01*
X138144095Y-117403523D01*
X138048857Y-117498761D01*
X137906000Y-117546380D01*
X137667904Y-117546380D01*
X135636095Y-111006000D02*
X135540857Y-110958380D01*
X135398000Y-110958380D01*
X135255142Y-111006000D01*
X135159904Y-111101238D01*
X135112285Y-111196476D01*
X135064666Y-111386952D01*
X135064666Y-111529809D01*
X135112285Y-111720285D01*
X135159904Y-111815523D01*
X135255142Y-111910761D01*
X135398000Y-111958380D01*
X135493238Y-111958380D01*
X135636095Y-111910761D01*
X135683714Y-111863142D01*
X135683714Y-111529809D01*
X135493238Y-111529809D01*
X136112285Y-111958380D02*
X136112285Y-110958380D01*
X136683714Y-111958380D01*
X136683714Y-110958380D01*
X137159904Y-111958380D02*
X137159904Y-110958380D01*
X137398000Y-110958380D01*
X137540857Y-111006000D01*
X137636095Y-111101238D01*
X137683714Y-111196476D01*
X137731333Y-111386952D01*
X137731333Y-111529809D01*
X137683714Y-111720285D01*
X137636095Y-111815523D01*
X137540857Y-111910761D01*
X137398000Y-111958380D01*
X137159904Y-111958380D01*
X136461523Y-108418380D02*
X135985333Y-108418380D01*
X135937714Y-108894571D01*
X135985333Y-108846952D01*
X136080571Y-108799333D01*
X136318666Y-108799333D01*
X136413904Y-108846952D01*
X136461523Y-108894571D01*
X136509142Y-108989809D01*
X136509142Y-109227904D01*
X136461523Y-109323142D01*
X136413904Y-109370761D01*
X136318666Y-109418380D01*
X136080571Y-109418380D01*
X135985333Y-109370761D01*
X135937714Y-109323142D01*
X136794857Y-108418380D02*
X137128190Y-109418380D01*
X137461523Y-108418380D01*
X135413904Y-105878380D02*
X135985333Y-105878380D01*
X135699619Y-106878380D02*
X135699619Y-105878380D01*
X136223428Y-105878380D02*
X136890095Y-106878380D01*
X136890095Y-105878380D02*
X136223428Y-106878380D01*
X137794857Y-106878380D02*
X137223428Y-106878380D01*
X137509142Y-106878380D02*
X137509142Y-105878380D01*
X137413904Y-106021238D01*
X137318666Y-106116476D01*
X137223428Y-106164095D01*
X136009142Y-104338380D02*
X135675809Y-103862190D01*
X135437714Y-104338380D02*
X135437714Y-103338380D01*
X135818666Y-103338380D01*
X135913904Y-103386000D01*
X135961523Y-103433619D01*
X136009142Y-103528857D01*
X136009142Y-103671714D01*
X135961523Y-103766952D01*
X135913904Y-103814571D01*
X135818666Y-103862190D01*
X135437714Y-103862190D01*
X136342476Y-103338380D02*
X137009142Y-104338380D01*
X137009142Y-103338380D02*
X136342476Y-104338380D01*
X137913904Y-104338380D02*
X137342476Y-104338380D01*
X137628190Y-104338380D02*
X137628190Y-103338380D01*
X137532952Y-103481238D01*
X137437714Y-103576476D01*
X137342476Y-103624095D01*
X139001523Y-62698380D02*
X138525333Y-62698380D01*
X138477714Y-63174571D01*
X138525333Y-63126952D01*
X138620571Y-63079333D01*
X138858666Y-63079333D01*
X138953904Y-63126952D01*
X139001523Y-63174571D01*
X139049142Y-63269809D01*
X139049142Y-63507904D01*
X139001523Y-63603142D01*
X138953904Y-63650761D01*
X138858666Y-63698380D01*
X138620571Y-63698380D01*
X138525333Y-63650761D01*
X138477714Y-63603142D01*
X139334857Y-62698380D02*
X139668190Y-63698380D01*
X140001523Y-62698380D01*
X138430095Y-65286000D02*
X138334857Y-65238380D01*
X138192000Y-65238380D01*
X138049142Y-65286000D01*
X137953904Y-65381238D01*
X137906285Y-65476476D01*
X137858666Y-65666952D01*
X137858666Y-65809809D01*
X137906285Y-66000285D01*
X137953904Y-66095523D01*
X138049142Y-66190761D01*
X138192000Y-66238380D01*
X138287238Y-66238380D01*
X138430095Y-66190761D01*
X138477714Y-66143142D01*
X138477714Y-65809809D01*
X138287238Y-65809809D01*
X138906285Y-66238380D02*
X138906285Y-65238380D01*
X139477714Y-66238380D01*
X139477714Y-65238380D01*
X139953904Y-66238380D02*
X139953904Y-65238380D01*
X140192000Y-65238380D01*
X140334857Y-65286000D01*
X140430095Y-65381238D01*
X140477714Y-65476476D01*
X140525333Y-65666952D01*
X140525333Y-65809809D01*
X140477714Y-66000285D01*
X140430095Y-66095523D01*
X140334857Y-66190761D01*
X140192000Y-66238380D01*
X139953904Y-66238380D01*
X139446000Y-72858380D02*
X139446000Y-73096476D01*
X139207904Y-73001238D02*
X139446000Y-73096476D01*
X139684095Y-73001238D01*
X139303142Y-73286952D02*
X139446000Y-73096476D01*
X139588857Y-73286952D01*
X138231714Y-68778380D02*
X138231714Y-67778380D01*
X138469809Y-67778380D01*
X138612666Y-67826000D01*
X138707904Y-67921238D01*
X138755523Y-68016476D01*
X138803142Y-68206952D01*
X138803142Y-68349809D01*
X138755523Y-68540285D01*
X138707904Y-68635523D01*
X138612666Y-68730761D01*
X138469809Y-68778380D01*
X138231714Y-68778380D01*
X139755523Y-68778380D02*
X139184095Y-68778380D01*
X139469809Y-68778380D02*
X139469809Y-67778380D01*
X139374571Y-67921238D01*
X139279333Y-68016476D01*
X139184095Y-68064095D01*
X140136476Y-67873619D02*
X140184095Y-67826000D01*
X140279333Y-67778380D01*
X140517428Y-67778380D01*
X140612666Y-67826000D01*
X140660285Y-67873619D01*
X140707904Y-67968857D01*
X140707904Y-68064095D01*
X140660285Y-68206952D01*
X140088857Y-68778380D01*
X140707904Y-68778380D01*
X138231714Y-71318380D02*
X138231714Y-70318380D01*
X138469809Y-70318380D01*
X138612666Y-70366000D01*
X138707904Y-70461238D01*
X138755523Y-70556476D01*
X138803142Y-70746952D01*
X138803142Y-70889809D01*
X138755523Y-71080285D01*
X138707904Y-71175523D01*
X138612666Y-71270761D01*
X138469809Y-71318380D01*
X138231714Y-71318380D01*
X139755523Y-71318380D02*
X139184095Y-71318380D01*
X139469809Y-71318380D02*
X139469809Y-70318380D01*
X139374571Y-70461238D01*
X139279333Y-70556476D01*
X139184095Y-70604095D01*
X140707904Y-71318380D02*
X140136476Y-71318380D01*
X140422190Y-71318380D02*
X140422190Y-70318380D01*
X140326952Y-70461238D01*
X140231714Y-70556476D01*
X140136476Y-70604095D01*
X138485714Y-78430380D02*
X138485714Y-77430380D01*
X138723809Y-77430380D01*
X138866666Y-77478000D01*
X138961904Y-77573238D01*
X139009523Y-77668476D01*
X139057142Y-77858952D01*
X139057142Y-78001809D01*
X139009523Y-78192285D01*
X138961904Y-78287523D01*
X138866666Y-78382761D01*
X138723809Y-78430380D01*
X138485714Y-78430380D01*
X140009523Y-78430380D02*
X139438095Y-78430380D01*
X139723809Y-78430380D02*
X139723809Y-77430380D01*
X139628571Y-77573238D01*
X139533333Y-77668476D01*
X139438095Y-77716095D01*
X140628571Y-77430380D02*
X140723809Y-77430380D01*
X140819047Y-77478000D01*
X140866666Y-77525619D01*
X140914285Y-77620857D01*
X140961904Y-77811333D01*
X140961904Y-78049428D01*
X140914285Y-78239904D01*
X140866666Y-78335142D01*
X140819047Y-78382761D01*
X140723809Y-78430380D01*
X140628571Y-78430380D01*
X140533333Y-78382761D01*
X140485714Y-78335142D01*
X140438095Y-78239904D01*
X140390476Y-78049428D01*
X140390476Y-77811333D01*
X140438095Y-77620857D01*
X140485714Y-77525619D01*
X140533333Y-77478000D01*
X140628571Y-77430380D01*
X139215904Y-80716380D02*
X139215904Y-79716380D01*
X139454000Y-79716380D01*
X139596857Y-79764000D01*
X139692095Y-79859238D01*
X139739714Y-79954476D01*
X139787333Y-80144952D01*
X139787333Y-80287809D01*
X139739714Y-80478285D01*
X139692095Y-80573523D01*
X139596857Y-80668761D01*
X139454000Y-80716380D01*
X139215904Y-80716380D01*
X140263523Y-80716380D02*
X140454000Y-80716380D01*
X140549238Y-80668761D01*
X140596857Y-80621142D01*
X140692095Y-80478285D01*
X140739714Y-80287809D01*
X140739714Y-79906857D01*
X140692095Y-79811619D01*
X140644476Y-79764000D01*
X140549238Y-79716380D01*
X140358761Y-79716380D01*
X140263523Y-79764000D01*
X140215904Y-79811619D01*
X140168285Y-79906857D01*
X140168285Y-80144952D01*
X140215904Y-80240190D01*
X140263523Y-80287809D01*
X140358761Y-80335428D01*
X140549238Y-80335428D01*
X140644476Y-80287809D01*
X140692095Y-80240190D01*
X140739714Y-80144952D01*
X139215904Y-83256380D02*
X139215904Y-82256380D01*
X139454000Y-82256380D01*
X139596857Y-82304000D01*
X139692095Y-82399238D01*
X139739714Y-82494476D01*
X139787333Y-82684952D01*
X139787333Y-82827809D01*
X139739714Y-83018285D01*
X139692095Y-83113523D01*
X139596857Y-83208761D01*
X139454000Y-83256380D01*
X139215904Y-83256380D01*
X140358761Y-82684952D02*
X140263523Y-82637333D01*
X140215904Y-82589714D01*
X140168285Y-82494476D01*
X140168285Y-82446857D01*
X140215904Y-82351619D01*
X140263523Y-82304000D01*
X140358761Y-82256380D01*
X140549238Y-82256380D01*
X140644476Y-82304000D01*
X140692095Y-82351619D01*
X140739714Y-82446857D01*
X140739714Y-82494476D01*
X140692095Y-82589714D01*
X140644476Y-82637333D01*
X140549238Y-82684952D01*
X140358761Y-82684952D01*
X140263523Y-82732571D01*
X140215904Y-82780190D01*
X140168285Y-82875428D01*
X140168285Y-83065904D01*
X140215904Y-83161142D01*
X140263523Y-83208761D01*
X140358761Y-83256380D01*
X140549238Y-83256380D01*
X140644476Y-83208761D01*
X140692095Y-83161142D01*
X140739714Y-83065904D01*
X140739714Y-82875428D01*
X140692095Y-82780190D01*
X140644476Y-82732571D01*
X140549238Y-82684952D01*
X139215904Y-85796380D02*
X139215904Y-84796380D01*
X139454000Y-84796380D01*
X139596857Y-84844000D01*
X139692095Y-84939238D01*
X139739714Y-85034476D01*
X139787333Y-85224952D01*
X139787333Y-85367809D01*
X139739714Y-85558285D01*
X139692095Y-85653523D01*
X139596857Y-85748761D01*
X139454000Y-85796380D01*
X139215904Y-85796380D01*
X140120666Y-84796380D02*
X140787333Y-84796380D01*
X140358761Y-85796380D01*
X139215904Y-90114380D02*
X139215904Y-89114380D01*
X139454000Y-89114380D01*
X139596857Y-89162000D01*
X139692095Y-89257238D01*
X139739714Y-89352476D01*
X139787333Y-89542952D01*
X139787333Y-89685809D01*
X139739714Y-89876285D01*
X139692095Y-89971523D01*
X139596857Y-90066761D01*
X139454000Y-90114380D01*
X139215904Y-90114380D01*
X140644476Y-89114380D02*
X140454000Y-89114380D01*
X140358761Y-89162000D01*
X140311142Y-89209619D01*
X140215904Y-89352476D01*
X140168285Y-89542952D01*
X140168285Y-89923904D01*
X140215904Y-90019142D01*
X140263523Y-90066761D01*
X140358761Y-90114380D01*
X140549238Y-90114380D01*
X140644476Y-90066761D01*
X140692095Y-90019142D01*
X140739714Y-89923904D01*
X140739714Y-89685809D01*
X140692095Y-89590571D01*
X140644476Y-89542952D01*
X140549238Y-89495333D01*
X140358761Y-89495333D01*
X140263523Y-89542952D01*
X140215904Y-89590571D01*
X140168285Y-89685809D01*
X139215904Y-92654380D02*
X139215904Y-91654380D01*
X139454000Y-91654380D01*
X139596857Y-91702000D01*
X139692095Y-91797238D01*
X139739714Y-91892476D01*
X139787333Y-92082952D01*
X139787333Y-92225809D01*
X139739714Y-92416285D01*
X139692095Y-92511523D01*
X139596857Y-92606761D01*
X139454000Y-92654380D01*
X139215904Y-92654380D01*
X140692095Y-91654380D02*
X140215904Y-91654380D01*
X140168285Y-92130571D01*
X140215904Y-92082952D01*
X140311142Y-92035333D01*
X140549238Y-92035333D01*
X140644476Y-92082952D01*
X140692095Y-92130571D01*
X140739714Y-92225809D01*
X140739714Y-92463904D01*
X140692095Y-92559142D01*
X140644476Y-92606761D01*
X140549238Y-92654380D01*
X140311142Y-92654380D01*
X140215904Y-92606761D01*
X140168285Y-92559142D01*
X139215904Y-95194380D02*
X139215904Y-94194380D01*
X139454000Y-94194380D01*
X139596857Y-94242000D01*
X139692095Y-94337238D01*
X139739714Y-94432476D01*
X139787333Y-94622952D01*
X139787333Y-94765809D01*
X139739714Y-94956285D01*
X139692095Y-95051523D01*
X139596857Y-95146761D01*
X139454000Y-95194380D01*
X139215904Y-95194380D01*
X140644476Y-94527714D02*
X140644476Y-95194380D01*
X140406380Y-94146761D02*
X140168285Y-94861047D01*
X140787333Y-94861047D01*
X139215904Y-97734380D02*
X139215904Y-96734380D01*
X139454000Y-96734380D01*
X139596857Y-96782000D01*
X139692095Y-96877238D01*
X139739714Y-96972476D01*
X139787333Y-97162952D01*
X139787333Y-97305809D01*
X139739714Y-97496285D01*
X139692095Y-97591523D01*
X139596857Y-97686761D01*
X139454000Y-97734380D01*
X139215904Y-97734380D01*
X140120666Y-96734380D02*
X140739714Y-96734380D01*
X140406380Y-97115333D01*
X140549238Y-97115333D01*
X140644476Y-97162952D01*
X140692095Y-97210571D01*
X140739714Y-97305809D01*
X140739714Y-97543904D01*
X140692095Y-97639142D01*
X140644476Y-97686761D01*
X140549238Y-97734380D01*
X140263523Y-97734380D01*
X140168285Y-97686761D01*
X140120666Y-97639142D01*
D11*
X101018571Y-83651047D02*
X101990000Y-83651047D01*
X101504285Y-85351047D02*
X101504285Y-83651047D01*
X103285238Y-85351047D02*
X103285238Y-84460571D01*
X103204285Y-84298666D01*
X103042380Y-84217714D01*
X102718571Y-84217714D01*
X102556666Y-84298666D01*
X103285238Y-85270095D02*
X103123333Y-85351047D01*
X102718571Y-85351047D01*
X102556666Y-85270095D01*
X102475714Y-85108190D01*
X102475714Y-84946285D01*
X102556666Y-84784380D01*
X102718571Y-84703428D01*
X103123333Y-84703428D01*
X103285238Y-84622476D01*
X104823333Y-85351047D02*
X104823333Y-83651047D01*
X104823333Y-85270095D02*
X104661428Y-85351047D01*
X104337619Y-85351047D01*
X104175714Y-85270095D01*
X104094761Y-85189142D01*
X104013809Y-85027238D01*
X104013809Y-84541523D01*
X104094761Y-84379619D01*
X104175714Y-84298666D01*
X104337619Y-84217714D01*
X104661428Y-84217714D01*
X104823333Y-84298666D01*
X106361428Y-85351047D02*
X106361428Y-84460571D01*
X106280476Y-84298666D01*
X106118571Y-84217714D01*
X105794761Y-84217714D01*
X105632857Y-84298666D01*
X106361428Y-85270095D02*
X106199523Y-85351047D01*
X105794761Y-85351047D01*
X105632857Y-85270095D01*
X105551904Y-85108190D01*
X105551904Y-84946285D01*
X105632857Y-84784380D01*
X105794761Y-84703428D01*
X106199523Y-84703428D01*
X106361428Y-84622476D01*
X107090000Y-85270095D02*
X107251904Y-85351047D01*
X107575714Y-85351047D01*
X107737619Y-85270095D01*
X107818571Y-85108190D01*
X107818571Y-85027238D01*
X107737619Y-84865333D01*
X107575714Y-84784380D01*
X107332857Y-84784380D01*
X107170952Y-84703428D01*
X107090000Y-84541523D01*
X107090000Y-84460571D01*
X107170952Y-84298666D01*
X107332857Y-84217714D01*
X107575714Y-84217714D01*
X107737619Y-84298666D01*
X108547142Y-85351047D02*
X108547142Y-83651047D01*
X109275714Y-85351047D02*
X109275714Y-84460571D01*
X109194761Y-84298666D01*
X109032857Y-84217714D01*
X108790000Y-84217714D01*
X108628095Y-84298666D01*
X108547142Y-84379619D01*
X110085238Y-85351047D02*
X110085238Y-84217714D01*
X110085238Y-83651047D02*
X110004285Y-83732000D01*
X110085238Y-83812952D01*
X110166190Y-83732000D01*
X110085238Y-83651047D01*
X110085238Y-83812952D01*
X112109047Y-84865333D02*
X112918571Y-84865333D01*
X111947142Y-85351047D02*
X112513809Y-83651047D01*
X113080476Y-85351047D01*
X113647142Y-85351047D02*
X113647142Y-84217714D01*
X113647142Y-84379619D02*
X113728095Y-84298666D01*
X113890000Y-84217714D01*
X114132857Y-84217714D01*
X114294761Y-84298666D01*
X114375714Y-84460571D01*
X114375714Y-85351047D01*
X114375714Y-84460571D02*
X114456666Y-84298666D01*
X114618571Y-84217714D01*
X114861428Y-84217714D01*
X115023333Y-84298666D01*
X115104285Y-84460571D01*
X115104285Y-85351047D01*
X116642380Y-85351047D02*
X116642380Y-84460571D01*
X116561428Y-84298666D01*
X116399523Y-84217714D01*
X116075714Y-84217714D01*
X115913809Y-84298666D01*
X116642380Y-85270095D02*
X116480476Y-85351047D01*
X116075714Y-85351047D01*
X115913809Y-85270095D01*
X115832857Y-85108190D01*
X115832857Y-84946285D01*
X115913809Y-84784380D01*
X116075714Y-84703428D01*
X116480476Y-84703428D01*
X116642380Y-84622476D01*
X118180476Y-85351047D02*
X118180476Y-83651047D01*
X118180476Y-85270095D02*
X118018571Y-85351047D01*
X117694761Y-85351047D01*
X117532857Y-85270095D01*
X117451904Y-85189142D01*
X117370952Y-85027238D01*
X117370952Y-84541523D01*
X117451904Y-84379619D01*
X117532857Y-84298666D01*
X117694761Y-84217714D01*
X118018571Y-84217714D01*
X118180476Y-84298666D01*
X119718571Y-85351047D02*
X119718571Y-84460571D01*
X119637619Y-84298666D01*
X119475714Y-84217714D01*
X119151904Y-84217714D01*
X118990000Y-84298666D01*
X119718571Y-85270095D02*
X119556666Y-85351047D01*
X119151904Y-85351047D01*
X118990000Y-85270095D01*
X118909047Y-85108190D01*
X118909047Y-84946285D01*
X118990000Y-84784380D01*
X119151904Y-84703428D01*
X119556666Y-84703428D01*
X119718571Y-84622476D01*
D12*
X141732095Y-57800857D02*
X143255904Y-57800857D01*
X138938095Y-57800857D02*
X140461904Y-57800857D01*
X139700000Y-58562761D02*
X139700000Y-57038952D01*
X133350095Y-57800857D02*
X134873904Y-57800857D01*
X130556095Y-57800857D02*
X132079904Y-57800857D01*
X131318000Y-58562761D02*
X131318000Y-57038952D01*
X116586095Y-39512857D02*
X118109904Y-39512857D01*
X110045714Y-39512857D02*
X111569523Y-39512857D01*
X110807619Y-40274761D02*
X110807619Y-38750952D01*
X113474285Y-38274761D02*
X112521904Y-38274761D01*
X112426666Y-39227142D01*
X112521904Y-39131904D01*
X112712380Y-39036666D01*
X113188571Y-39036666D01*
X113379047Y-39131904D01*
X113474285Y-39227142D01*
X113569523Y-39417619D01*
X113569523Y-39893809D01*
X113474285Y-40084285D01*
X113379047Y-40179523D01*
X113188571Y-40274761D01*
X112712380Y-40274761D01*
X112521904Y-40179523D01*
X112426666Y-40084285D01*
X106934095Y-39512857D02*
X108457904Y-39512857D01*
X99695333Y-39512857D02*
X101219142Y-39512857D01*
X100457238Y-40274761D02*
X100457238Y-38750952D01*
X103219142Y-40274761D02*
X102076285Y-40274761D01*
X102647714Y-40274761D02*
X102647714Y-38274761D01*
X102457238Y-38560476D01*
X102266761Y-38750952D01*
X102076285Y-38846190D01*
X103981047Y-38465238D02*
X104076285Y-38370000D01*
X104266761Y-38274761D01*
X104742952Y-38274761D01*
X104933428Y-38370000D01*
X105028666Y-38465238D01*
X105123904Y-38655714D01*
X105123904Y-38846190D01*
X105028666Y-39131904D01*
X103885809Y-40274761D01*
X105123904Y-40274761D01*
D10*
X149606000Y-40894000D02*
X96266000Y-40894000D01*
X136906000Y-139954000D02*
X148082000Y-139954000D01*
X134366000Y-142494000D02*
X136906000Y-139954000D01*
X100076000Y-142494000D02*
X134366000Y-142494000D01*
X97536000Y-139954000D02*
X100076000Y-142494000D01*
X96266000Y-139954000D02*
X97536000Y-139954000D01*
X149606000Y-138430000D02*
X148082000Y-139954000D01*
X96266000Y-40894000D02*
X96266000Y-139954000D01*
X149606000Y-40894000D02*
X149606000Y-138430000D01*
D13*
X115630000Y-102616000D02*
X112970000Y-102616000D01*
X115630000Y-102616000D02*
X115630000Y-100016000D01*
X115630000Y-100016000D02*
X112970000Y-100016000D01*
X112970000Y-102616000D02*
X112970000Y-100016000D01*
X112970000Y-105216000D02*
X112970000Y-103886000D01*
X114300000Y-105216000D02*
X112970000Y-105216000D01*
X141164000Y-74482000D02*
X143824000Y-74482000D01*
X141164000Y-64262000D02*
X141164000Y-74482000D01*
X143824000Y-64262000D02*
X143824000Y-74482000D01*
X141164000Y-64262000D02*
X143824000Y-64262000D01*
X141164000Y-62992000D02*
X141164000Y-61662000D01*
X141164000Y-61662000D02*
X142494000Y-61662000D01*
X134172000Y-115256000D02*
X131512000Y-115256000D01*
X134172000Y-128016000D02*
X134172000Y-115256000D01*
X131512000Y-128016000D02*
X131512000Y-115256000D01*
X134172000Y-128016000D02*
X131512000Y-128016000D01*
X134172000Y-129286000D02*
X134172000Y-130616000D01*
X134172000Y-130616000D02*
X132842000Y-130616000D01*
X111352000Y-53086000D02*
G75*
G03X111352000Y-53086000I-2120000J0D01*
G01*
X109232000Y-52246000D02*
X109232000Y-51006000D01*
X109232000Y-55166000D02*
X109232000Y-53926000D01*
X109192000Y-52246000D02*
X109192000Y-51006000D01*
X109192000Y-55166000D02*
X109192000Y-53926000D01*
X109152000Y-52246000D02*
X109152000Y-51007000D01*
X109152000Y-55165000D02*
X109152000Y-53926000D01*
X109112000Y-55163000D02*
X109112000Y-53926000D01*
X109112000Y-52246000D02*
X109112000Y-51009000D01*
X109072000Y-55160000D02*
X109072000Y-53926000D01*
X109072000Y-52246000D02*
X109072000Y-51012000D01*
X109032000Y-55157000D02*
X109032000Y-53926000D01*
X109032000Y-52246000D02*
X109032000Y-51015000D01*
X108992000Y-55153000D02*
X108992000Y-53926000D01*
X108992000Y-52246000D02*
X108992000Y-51019000D01*
X108952000Y-55148000D02*
X108952000Y-53926000D01*
X108952000Y-52246000D02*
X108952000Y-51024000D01*
X108912000Y-55142000D02*
X108912000Y-53926000D01*
X108912000Y-52246000D02*
X108912000Y-51030000D01*
X108872000Y-55136000D02*
X108872000Y-53926000D01*
X108872000Y-52246000D02*
X108872000Y-51036000D01*
X108832000Y-55128000D02*
X108832000Y-53926000D01*
X108832000Y-52246000D02*
X108832000Y-51044000D01*
X108792000Y-55120000D02*
X108792000Y-53926000D01*
X108792000Y-52246000D02*
X108792000Y-51052000D01*
X108752000Y-55111000D02*
X108752000Y-53926000D01*
X108752000Y-52246000D02*
X108752000Y-51061000D01*
X108712000Y-55102000D02*
X108712000Y-53926000D01*
X108712000Y-52246000D02*
X108712000Y-51070000D01*
X108672000Y-55091000D02*
X108672000Y-53926000D01*
X108672000Y-52246000D02*
X108672000Y-51081000D01*
X108632000Y-55080000D02*
X108632000Y-53926000D01*
X108632000Y-52246000D02*
X108632000Y-51092000D01*
X108592000Y-55068000D02*
X108592000Y-53926000D01*
X108592000Y-52246000D02*
X108592000Y-51104000D01*
X108552000Y-55054000D02*
X108552000Y-53926000D01*
X108552000Y-52246000D02*
X108552000Y-51118000D01*
X108511000Y-55040000D02*
X108511000Y-53926000D01*
X108511000Y-52246000D02*
X108511000Y-51132000D01*
X108471000Y-55026000D02*
X108471000Y-53926000D01*
X108471000Y-52246000D02*
X108471000Y-51146000D01*
X108431000Y-55010000D02*
X108431000Y-53926000D01*
X108431000Y-52246000D02*
X108431000Y-51162000D01*
X108391000Y-54993000D02*
X108391000Y-53926000D01*
X108391000Y-52246000D02*
X108391000Y-51179000D01*
X108351000Y-54975000D02*
X108351000Y-53926000D01*
X108351000Y-52246000D02*
X108351000Y-51197000D01*
X108311000Y-54956000D02*
X108311000Y-53926000D01*
X108311000Y-52246000D02*
X108311000Y-51216000D01*
X108271000Y-54937000D02*
X108271000Y-53926000D01*
X108271000Y-52246000D02*
X108271000Y-51235000D01*
X108231000Y-54916000D02*
X108231000Y-53926000D01*
X108231000Y-52246000D02*
X108231000Y-51256000D01*
X108191000Y-54894000D02*
X108191000Y-53926000D01*
X108191000Y-52246000D02*
X108191000Y-51278000D01*
X108151000Y-54871000D02*
X108151000Y-53926000D01*
X108151000Y-52246000D02*
X108151000Y-51301000D01*
X108111000Y-54846000D02*
X108111000Y-53926000D01*
X108111000Y-52246000D02*
X108111000Y-51326000D01*
X108071000Y-54821000D02*
X108071000Y-53926000D01*
X108071000Y-52246000D02*
X108071000Y-51351000D01*
X108031000Y-54794000D02*
X108031000Y-53926000D01*
X108031000Y-52246000D02*
X108031000Y-51378000D01*
X107991000Y-54766000D02*
X107991000Y-53926000D01*
X107991000Y-52246000D02*
X107991000Y-51406000D01*
X107951000Y-54736000D02*
X107951000Y-53926000D01*
X107951000Y-52246000D02*
X107951000Y-51436000D01*
X107911000Y-54705000D02*
X107911000Y-53926000D01*
X107911000Y-52246000D02*
X107911000Y-51467000D01*
X107871000Y-54673000D02*
X107871000Y-53926000D01*
X107871000Y-52246000D02*
X107871000Y-51499000D01*
X107831000Y-54638000D02*
X107831000Y-53926000D01*
X107831000Y-52246000D02*
X107831000Y-51534000D01*
X107791000Y-54602000D02*
X107791000Y-53926000D01*
X107791000Y-52246000D02*
X107791000Y-51570000D01*
X107751000Y-54564000D02*
X107751000Y-53926000D01*
X107751000Y-52246000D02*
X107751000Y-51608000D01*
X107711000Y-54524000D02*
X107711000Y-53926000D01*
X107711000Y-52246000D02*
X107711000Y-51648000D01*
X107671000Y-54482000D02*
X107671000Y-53926000D01*
X107671000Y-52246000D02*
X107671000Y-51690000D01*
X107631000Y-54437000D02*
X107631000Y-51735000D01*
X107591000Y-54390000D02*
X107591000Y-51782000D01*
X107551000Y-54340000D02*
X107551000Y-51832000D01*
X107511000Y-54286000D02*
X107511000Y-51886000D01*
X107471000Y-54228000D02*
X107471000Y-51944000D01*
X107431000Y-54166000D02*
X107431000Y-52006000D01*
X107391000Y-54099000D02*
X107391000Y-52073000D01*
X107351000Y-54026000D02*
X107351000Y-52146000D01*
X107311000Y-53945000D02*
X107311000Y-52227000D01*
X107271000Y-53854000D02*
X107271000Y-52318000D01*
X107231000Y-53750000D02*
X107231000Y-52422000D01*
X107191000Y-53623000D02*
X107191000Y-52549000D01*
X107151000Y-53456000D02*
X107151000Y-52716000D01*
X111501801Y-54281000D02*
X111101801Y-54281000D01*
X111301801Y-54481000D02*
X111301801Y-54081000D01*
X118159801Y-54481000D02*
X118159801Y-54081000D01*
X118359801Y-54281000D02*
X117959801Y-54281000D01*
X114009000Y-53456000D02*
X114009000Y-52716000D01*
X114049000Y-53623000D02*
X114049000Y-52549000D01*
X114089000Y-53750000D02*
X114089000Y-52422000D01*
X114129000Y-53854000D02*
X114129000Y-52318000D01*
X114169000Y-53945000D02*
X114169000Y-52227000D01*
X114209000Y-54026000D02*
X114209000Y-52146000D01*
X114249000Y-54099000D02*
X114249000Y-52073000D01*
X114289000Y-54166000D02*
X114289000Y-52006000D01*
X114329000Y-54228000D02*
X114329000Y-51944000D01*
X114369000Y-54286000D02*
X114369000Y-51886000D01*
X114409000Y-54340000D02*
X114409000Y-51832000D01*
X114449000Y-54390000D02*
X114449000Y-51782000D01*
X114489000Y-54437000D02*
X114489000Y-51735000D01*
X114529000Y-52246000D02*
X114529000Y-51690000D01*
X114529000Y-54482000D02*
X114529000Y-53926000D01*
X114569000Y-52246000D02*
X114569000Y-51648000D01*
X114569000Y-54524000D02*
X114569000Y-53926000D01*
X114609000Y-52246000D02*
X114609000Y-51608000D01*
X114609000Y-54564000D02*
X114609000Y-53926000D01*
X114649000Y-52246000D02*
X114649000Y-51570000D01*
X114649000Y-54602000D02*
X114649000Y-53926000D01*
X114689000Y-52246000D02*
X114689000Y-51534000D01*
X114689000Y-54638000D02*
X114689000Y-53926000D01*
X114729000Y-52246000D02*
X114729000Y-51499000D01*
X114729000Y-54673000D02*
X114729000Y-53926000D01*
X114769000Y-52246000D02*
X114769000Y-51467000D01*
X114769000Y-54705000D02*
X114769000Y-53926000D01*
X114809000Y-52246000D02*
X114809000Y-51436000D01*
X114809000Y-54736000D02*
X114809000Y-53926000D01*
X114849000Y-52246000D02*
X114849000Y-51406000D01*
X114849000Y-54766000D02*
X114849000Y-53926000D01*
X114889000Y-52246000D02*
X114889000Y-51378000D01*
X114889000Y-54794000D02*
X114889000Y-53926000D01*
X114929000Y-52246000D02*
X114929000Y-51351000D01*
X114929000Y-54821000D02*
X114929000Y-53926000D01*
X114969000Y-52246000D02*
X114969000Y-51326000D01*
X114969000Y-54846000D02*
X114969000Y-53926000D01*
X115009000Y-52246000D02*
X115009000Y-51301000D01*
X115009000Y-54871000D02*
X115009000Y-53926000D01*
X115049000Y-52246000D02*
X115049000Y-51278000D01*
X115049000Y-54894000D02*
X115049000Y-53926000D01*
X115089000Y-52246000D02*
X115089000Y-51256000D01*
X115089000Y-54916000D02*
X115089000Y-53926000D01*
X115129000Y-52246000D02*
X115129000Y-51235000D01*
X115129000Y-54937000D02*
X115129000Y-53926000D01*
X115169000Y-52246000D02*
X115169000Y-51216000D01*
X115169000Y-54956000D02*
X115169000Y-53926000D01*
X115209000Y-52246000D02*
X115209000Y-51197000D01*
X115209000Y-54975000D02*
X115209000Y-53926000D01*
X115249000Y-52246000D02*
X115249000Y-51179000D01*
X115249000Y-54993000D02*
X115249000Y-53926000D01*
X115289000Y-52246000D02*
X115289000Y-51162000D01*
X115289000Y-55010000D02*
X115289000Y-53926000D01*
X115329000Y-52246000D02*
X115329000Y-51146000D01*
X115329000Y-55026000D02*
X115329000Y-53926000D01*
X115369000Y-52246000D02*
X115369000Y-51132000D01*
X115369000Y-55040000D02*
X115369000Y-53926000D01*
X115410000Y-52246000D02*
X115410000Y-51118000D01*
X115410000Y-55054000D02*
X115410000Y-53926000D01*
X115450000Y-52246000D02*
X115450000Y-51104000D01*
X115450000Y-55068000D02*
X115450000Y-53926000D01*
X115490000Y-52246000D02*
X115490000Y-51092000D01*
X115490000Y-55080000D02*
X115490000Y-53926000D01*
X115530000Y-52246000D02*
X115530000Y-51081000D01*
X115530000Y-55091000D02*
X115530000Y-53926000D01*
X115570000Y-52246000D02*
X115570000Y-51070000D01*
X115570000Y-55102000D02*
X115570000Y-53926000D01*
X115610000Y-52246000D02*
X115610000Y-51061000D01*
X115610000Y-55111000D02*
X115610000Y-53926000D01*
X115650000Y-52246000D02*
X115650000Y-51052000D01*
X115650000Y-55120000D02*
X115650000Y-53926000D01*
X115690000Y-52246000D02*
X115690000Y-51044000D01*
X115690000Y-55128000D02*
X115690000Y-53926000D01*
X115730000Y-52246000D02*
X115730000Y-51036000D01*
X115730000Y-55136000D02*
X115730000Y-53926000D01*
X115770000Y-52246000D02*
X115770000Y-51030000D01*
X115770000Y-55142000D02*
X115770000Y-53926000D01*
X115810000Y-52246000D02*
X115810000Y-51024000D01*
X115810000Y-55148000D02*
X115810000Y-53926000D01*
X115850000Y-52246000D02*
X115850000Y-51019000D01*
X115850000Y-55153000D02*
X115850000Y-53926000D01*
X115890000Y-52246000D02*
X115890000Y-51015000D01*
X115890000Y-55157000D02*
X115890000Y-53926000D01*
X115930000Y-52246000D02*
X115930000Y-51012000D01*
X115930000Y-55160000D02*
X115930000Y-53926000D01*
X115970000Y-52246000D02*
X115970000Y-51009000D01*
X115970000Y-55163000D02*
X115970000Y-53926000D01*
X116010000Y-55165000D02*
X116010000Y-53926000D01*
X116010000Y-52246000D02*
X116010000Y-51007000D01*
X116050000Y-55166000D02*
X116050000Y-53926000D01*
X116050000Y-52246000D02*
X116050000Y-51006000D01*
X116090000Y-55166000D02*
X116090000Y-53926000D01*
X116090000Y-52246000D02*
X116090000Y-51006000D01*
X118210000Y-53086000D02*
G75*
G03X118210000Y-53086000I-2120000J0D01*
G01*
X126688000Y-61213538D02*
G75*
G02X121138000Y-62758830I-2990000J-462D01*
G01*
X126688000Y-61214462D02*
G75*
G03X121138000Y-59669170I-2990000J462D01*
G01*
X126198000Y-61214000D02*
G75*
G03X126198000Y-61214000I-2500000J0D01*
G01*
X121138000Y-59669000D02*
X121138000Y-62759000D01*
X121138000Y-51287000D02*
X121138000Y-54377000D01*
X126198000Y-52832000D02*
G75*
G03X126198000Y-52832000I-2500000J0D01*
G01*
X126688000Y-52832462D02*
G75*
G03X121138000Y-51287170I-2990000J462D01*
G01*
X126688000Y-52831538D02*
G75*
G02X121138000Y-54376830I-2990000J-462D01*
G01*
X138878000Y-112836000D02*
X141538000Y-112836000D01*
X138878000Y-105156000D02*
X138878000Y-112836000D01*
X141538000Y-105156000D02*
X141538000Y-112836000D01*
X138878000Y-105156000D02*
X141538000Y-105156000D01*
X138878000Y-103886000D02*
X138878000Y-102556000D01*
X138878000Y-102556000D02*
X140208000Y-102556000D01*
X119888000Y-49530000D02*
X119888000Y-41910000D01*
X99568000Y-41910000D02*
X99568000Y-49530000D01*
X99568000Y-43180000D02*
X119888000Y-43180000D01*
X119888000Y-49530000D02*
X99568000Y-49530000D01*
X119888000Y-41910000D02*
X99568000Y-41910000D01*
X111312000Y-146618000D02*
X111312000Y-143958000D01*
X103632000Y-146618000D02*
X111312000Y-146618000D01*
X103632000Y-143958000D02*
X111312000Y-143958000D01*
X103632000Y-146618000D02*
X103632000Y-143958000D01*
X102362000Y-146618000D02*
X101032000Y-146618000D01*
X101032000Y-146618000D02*
X101032000Y-145288000D01*
X112716000Y-146618000D02*
X112716000Y-145288000D01*
X114046000Y-146618000D02*
X112716000Y-146618000D01*
X115316000Y-146618000D02*
X115316000Y-143958000D01*
X115316000Y-143958000D02*
X122996000Y-143958000D01*
X115316000Y-146618000D02*
X122996000Y-146618000D01*
X122996000Y-146618000D02*
X122996000Y-143958000D01*
X141164000Y-88078000D02*
X142494000Y-88078000D01*
X141164000Y-89408000D02*
X141164000Y-88078000D01*
X141164000Y-90678000D02*
X143824000Y-90678000D01*
X143824000Y-90678000D02*
X143824000Y-98358000D01*
X141164000Y-90678000D02*
X141164000Y-98358000D01*
X141164000Y-98358000D02*
X143824000Y-98358000D01*
X117796000Y-120202000D02*
X120456000Y-120202000D01*
X117796000Y-117602000D02*
X117796000Y-120202000D01*
X120456000Y-117602000D02*
X120456000Y-120202000D01*
X117796000Y-117602000D02*
X120456000Y-117602000D01*
X117796000Y-116332000D02*
X117796000Y-115002000D01*
X117796000Y-115002000D02*
X119126000Y-115002000D01*
X141164000Y-86420000D02*
X143824000Y-86420000D01*
X141164000Y-78740000D02*
X141164000Y-86420000D01*
X143824000Y-78740000D02*
X143824000Y-86420000D01*
X141164000Y-78740000D02*
X143824000Y-78740000D01*
X141164000Y-77470000D02*
X141164000Y-76140000D01*
X141164000Y-76140000D02*
X142494000Y-76140000D01*
X114494000Y-115002000D02*
X115824000Y-115002000D01*
X114494000Y-116332000D02*
X114494000Y-115002000D01*
X114494000Y-117602000D02*
X117154000Y-117602000D01*
X117154000Y-117602000D02*
X117154000Y-120202000D01*
X114494000Y-117602000D02*
X114494000Y-120202000D01*
X114494000Y-120202000D02*
X117154000Y-120202000D01*
X110430000Y-120202000D02*
X113090000Y-120202000D01*
X110430000Y-117602000D02*
X110430000Y-120202000D01*
X113090000Y-117602000D02*
X113090000Y-120202000D01*
X110430000Y-117602000D02*
X113090000Y-117602000D01*
X110430000Y-116332000D02*
X110430000Y-115002000D01*
X110430000Y-115002000D02*
X111760000Y-115002000D01*
X138624000Y-115510000D02*
X139954000Y-115510000D01*
X138624000Y-116840000D02*
X138624000Y-115510000D01*
X138624000Y-118110000D02*
X141284000Y-118110000D01*
X141284000Y-118110000D02*
X141284000Y-130870000D01*
X138624000Y-118110000D02*
X138624000Y-130870000D01*
X138624000Y-130870000D02*
X141284000Y-130870000D01*
X106112000Y-115002000D02*
X107442000Y-115002000D01*
X106112000Y-116332000D02*
X106112000Y-115002000D01*
X106112000Y-117602000D02*
X108772000Y-117602000D01*
X108772000Y-117602000D02*
X108772000Y-120202000D01*
X106112000Y-117602000D02*
X106112000Y-120202000D01*
X106112000Y-120202000D02*
X108772000Y-120202000D01*
X102302000Y-120202000D02*
X104962000Y-120202000D01*
X102302000Y-117602000D02*
X102302000Y-120202000D01*
X104962000Y-117602000D02*
X104962000Y-120202000D01*
X102302000Y-117602000D02*
X104962000Y-117602000D01*
X102302000Y-116332000D02*
X102302000Y-115002000D01*
X102302000Y-115002000D02*
X103632000Y-115002000D01*
X124266000Y-84328000D02*
X121606000Y-84328000D01*
X124266000Y-84328000D02*
X124266000Y-66488000D01*
X124266000Y-66488000D02*
X121606000Y-66488000D01*
X121606000Y-84328000D02*
X121606000Y-66488000D01*
X121606000Y-86928000D02*
X121606000Y-85598000D01*
X122936000Y-86928000D02*
X121606000Y-86928000D01*
X118110000Y-107756000D02*
X118110000Y-105096000D01*
X118110000Y-107756000D02*
X130870000Y-107756000D01*
X130870000Y-107756000D02*
X130870000Y-105096000D01*
X118110000Y-105096000D02*
X130870000Y-105096000D01*
X115510000Y-105096000D02*
X116840000Y-105096000D01*
X115510000Y-106426000D02*
X115510000Y-105096000D01*
X123840000Y-124714000D02*
G75*
G03X123840000Y-124714000I-1920000J0D01*
G01*
X121920000Y-126634000D02*
X121920000Y-128294000D01*
X117094000Y-126634000D02*
X117094000Y-128294000D01*
X119014000Y-124714000D02*
G75*
G03X119014000Y-124714000I-1920000J0D01*
G01*
X114188000Y-124714000D02*
G75*
G03X114188000Y-124714000I-1920000J0D01*
G01*
X112268000Y-126634000D02*
X112268000Y-128294000D01*
X107696000Y-126634000D02*
X107696000Y-128294000D01*
X109616000Y-124714000D02*
G75*
G03X109616000Y-124714000I-1920000J0D01*
G01*
X105044000Y-124714000D02*
G75*
G03X105044000Y-124714000I-1920000J0D01*
G01*
X103124000Y-126634000D02*
X103124000Y-128294000D01*
X130242000Y-56702000D02*
X135442000Y-56702000D01*
X130242000Y-46482000D02*
X130242000Y-56702000D01*
X135442000Y-43882000D02*
X135442000Y-56702000D01*
X130242000Y-46482000D02*
X132842000Y-46482000D01*
X132842000Y-46482000D02*
X132842000Y-43882000D01*
X132842000Y-43882000D02*
X135442000Y-43882000D01*
X130242000Y-45212000D02*
X130242000Y-43882000D01*
X130242000Y-43882000D02*
X131572000Y-43882000D01*
X138370000Y-56702000D02*
X143570000Y-56702000D01*
X138370000Y-46482000D02*
X138370000Y-56702000D01*
X143570000Y-43882000D02*
X143570000Y-56702000D01*
X138370000Y-46482000D02*
X140970000Y-46482000D01*
X140970000Y-46482000D02*
X140970000Y-43882000D01*
X140970000Y-43882000D02*
X143570000Y-43882000D01*
X138370000Y-45212000D02*
X138370000Y-43882000D01*
X138370000Y-43882000D02*
X139700000Y-43882000D01*
X109220000Y-60086000D02*
X109220000Y-61746000D01*
X111140000Y-58166000D02*
G75*
G03X111140000Y-58166000I-1920000J0D01*
G01*
X117998000Y-58166000D02*
G75*
G03X117998000Y-58166000I-1920000J0D01*
G01*
X116078000Y-60086000D02*
X116078000Y-61746000D01*
X104588000Y-105724000D02*
X109788000Y-105724000D01*
X104588000Y-95504000D02*
X104588000Y-105724000D01*
X109788000Y-92904000D02*
X109788000Y-105724000D01*
X104588000Y-95504000D02*
X107188000Y-95504000D01*
X107188000Y-95504000D02*
X107188000Y-92904000D01*
X107188000Y-92904000D02*
X109788000Y-92904000D01*
X104588000Y-94234000D02*
X104588000Y-92904000D01*
X104588000Y-92904000D02*
X105918000Y-92904000D01*
X100778000Y-58988000D02*
X103438000Y-58988000D01*
X100778000Y-53848000D02*
X100778000Y-58988000D01*
X103438000Y-53848000D02*
X103438000Y-58988000D01*
X100778000Y-53848000D02*
X103438000Y-53848000D01*
X100778000Y-52578000D02*
X100778000Y-51248000D01*
X100778000Y-51248000D02*
X102108000Y-51248000D01*
D12*
X106743809Y-67738761D02*
X108077142Y-69738761D01*
X108077142Y-67738761D02*
X106743809Y-69738761D01*
X108743809Y-69167333D02*
X109696190Y-69167333D01*
X108553333Y-69738761D02*
X109220000Y-67738761D01*
X109886666Y-69738761D01*
X111600952Y-69738761D02*
X110458095Y-69738761D01*
X111029523Y-69738761D02*
X111029523Y-67738761D01*
X110839047Y-68024476D01*
X110648571Y-68214952D01*
X110458095Y-68310190D01*
D10*
X113490476Y-106108380D02*
X113490476Y-106822666D01*
X113442857Y-106965523D01*
X113347619Y-107060761D01*
X113204761Y-107108380D01*
X113109523Y-107108380D01*
X113919047Y-106203619D02*
X113966666Y-106156000D01*
X114061904Y-106108380D01*
X114300000Y-106108380D01*
X114395238Y-106156000D01*
X114442857Y-106203619D01*
X114490476Y-106298857D01*
X114490476Y-106394095D01*
X114442857Y-106536952D01*
X113871428Y-107108380D01*
X114490476Y-107108380D01*
X115442857Y-107108380D02*
X114871428Y-107108380D01*
X115157142Y-107108380D02*
X115157142Y-106108380D01*
X115061904Y-106251238D01*
X114966666Y-106346476D01*
X114871428Y-106394095D01*
D14*
X141025714Y-58868571D02*
X141025714Y-59940000D01*
X140954285Y-60154285D01*
X140811428Y-60297142D01*
X140597142Y-60368571D01*
X140454285Y-60368571D01*
X142525714Y-60368571D02*
X141668571Y-60368571D01*
X142097142Y-60368571D02*
X142097142Y-58868571D01*
X141954285Y-59082857D01*
X141811428Y-59225714D01*
X141668571Y-59297142D01*
X143097142Y-59011428D02*
X143168571Y-58940000D01*
X143311428Y-58868571D01*
X143668571Y-58868571D01*
X143811428Y-58940000D01*
X143882857Y-59011428D01*
X143954285Y-59154285D01*
X143954285Y-59297142D01*
X143882857Y-59511428D01*
X143025714Y-60368571D01*
X143954285Y-60368571D01*
D10*
X132032476Y-113752380D02*
X132032476Y-114466666D01*
X131984857Y-114609523D01*
X131889619Y-114704761D01*
X131746761Y-114752380D01*
X131651523Y-114752380D01*
X133032476Y-114752380D02*
X132461047Y-114752380D01*
X132746761Y-114752380D02*
X132746761Y-113752380D01*
X132651523Y-113895238D01*
X132556285Y-113990476D01*
X132461047Y-114038095D01*
X133365809Y-113752380D02*
X134032476Y-113752380D01*
X133603904Y-114752380D01*
X106275142Y-54014666D02*
X106322761Y-54062285D01*
X106370380Y-54205142D01*
X106370380Y-54300380D01*
X106322761Y-54443238D01*
X106227523Y-54538476D01*
X106132285Y-54586095D01*
X105941809Y-54633714D01*
X105798952Y-54633714D01*
X105608476Y-54586095D01*
X105513238Y-54538476D01*
X105418000Y-54443238D01*
X105370380Y-54300380D01*
X105370380Y-54205142D01*
X105418000Y-54062285D01*
X105465619Y-54014666D01*
X106370380Y-53062285D02*
X106370380Y-53633714D01*
X106370380Y-53348000D02*
X105370380Y-53348000D01*
X105513238Y-53443238D01*
X105608476Y-53538476D01*
X105656095Y-53633714D01*
X113133142Y-53760666D02*
X113180761Y-53808285D01*
X113228380Y-53951142D01*
X113228380Y-54046380D01*
X113180761Y-54189238D01*
X113085523Y-54284476D01*
X112990285Y-54332095D01*
X112799809Y-54379714D01*
X112656952Y-54379714D01*
X112466476Y-54332095D01*
X112371238Y-54284476D01*
X112276000Y-54189238D01*
X112228380Y-54046380D01*
X112228380Y-53951142D01*
X112276000Y-53808285D01*
X112323619Y-53760666D01*
X112323619Y-53379714D02*
X112276000Y-53332095D01*
X112228380Y-53236857D01*
X112228380Y-52998761D01*
X112276000Y-52903523D01*
X112323619Y-52855904D01*
X112418857Y-52808285D01*
X112514095Y-52808285D01*
X112656952Y-52855904D01*
X113228380Y-53427333D01*
X113228380Y-52808285D01*
X122959904Y-57602380D02*
X122959904Y-56602380D01*
X123198000Y-56602380D01*
X123340857Y-56650000D01*
X123436095Y-56745238D01*
X123483714Y-56840476D01*
X123531333Y-57030952D01*
X123531333Y-57173809D01*
X123483714Y-57364285D01*
X123436095Y-57459523D01*
X123340857Y-57554761D01*
X123198000Y-57602380D01*
X122959904Y-57602380D01*
X124483714Y-57602380D02*
X123912285Y-57602380D01*
X124198000Y-57602380D02*
X124198000Y-56602380D01*
X124102761Y-56745238D01*
X124007523Y-56840476D01*
X123912285Y-56888095D01*
X122705904Y-49220380D02*
X122705904Y-48220380D01*
X122944000Y-48220380D01*
X123086857Y-48268000D01*
X123182095Y-48363238D01*
X123229714Y-48458476D01*
X123277333Y-48648952D01*
X123277333Y-48791809D01*
X123229714Y-48982285D01*
X123182095Y-49077523D01*
X123086857Y-49172761D01*
X122944000Y-49220380D01*
X122705904Y-49220380D01*
X123658285Y-48315619D02*
X123705904Y-48268000D01*
X123801142Y-48220380D01*
X124039238Y-48220380D01*
X124134476Y-48268000D01*
X124182095Y-48315619D01*
X124229714Y-48410857D01*
X124229714Y-48506095D01*
X124182095Y-48648952D01*
X123610666Y-49220380D01*
X124229714Y-49220380D01*
X139874666Y-101008380D02*
X139874666Y-101722666D01*
X139827047Y-101865523D01*
X139731809Y-101960761D01*
X139588952Y-102008380D01*
X139493714Y-102008380D01*
X140874666Y-102008380D02*
X140303238Y-102008380D01*
X140588952Y-102008380D02*
X140588952Y-101008380D01*
X140493714Y-101151238D01*
X140398476Y-101246476D01*
X140303238Y-101294095D01*
X102028666Y-50506380D02*
X102028666Y-51220666D01*
X101981047Y-51363523D01*
X101885809Y-51458761D01*
X101742952Y-51506380D01*
X101647714Y-51506380D01*
X102457238Y-50601619D02*
X102504857Y-50554000D01*
X102600095Y-50506380D01*
X102838190Y-50506380D01*
X102933428Y-50554000D01*
X102981047Y-50601619D01*
X103028666Y-50696857D01*
X103028666Y-50792095D01*
X102981047Y-50934952D01*
X102409619Y-51506380D01*
X103028666Y-51506380D01*
X106346666Y-146772380D02*
X106346666Y-147486666D01*
X106299047Y-147629523D01*
X106203809Y-147724761D01*
X106060952Y-147772380D01*
X105965714Y-147772380D01*
X107251428Y-147105714D02*
X107251428Y-147772380D01*
X107013333Y-146724761D02*
X106775238Y-147439047D01*
X107394285Y-147439047D01*
X117776666Y-146772380D02*
X117776666Y-147486666D01*
X117729047Y-147629523D01*
X117633809Y-147724761D01*
X117490952Y-147772380D01*
X117395714Y-147772380D01*
X118729047Y-146772380D02*
X118252857Y-146772380D01*
X118205238Y-147248571D01*
X118252857Y-147200952D01*
X118348095Y-147153333D01*
X118586190Y-147153333D01*
X118681428Y-147200952D01*
X118729047Y-147248571D01*
X118776666Y-147343809D01*
X118776666Y-147581904D01*
X118729047Y-147677142D01*
X118681428Y-147724761D01*
X118586190Y-147772380D01*
X118348095Y-147772380D01*
X118252857Y-147724761D01*
X118205238Y-147677142D01*
X142160666Y-86574380D02*
X142160666Y-87288666D01*
X142113047Y-87431523D01*
X142017809Y-87526761D01*
X141874952Y-87574380D01*
X141779714Y-87574380D01*
X143065428Y-86574380D02*
X142874952Y-86574380D01*
X142779714Y-86622000D01*
X142732095Y-86669619D01*
X142636857Y-86812476D01*
X142589238Y-87002952D01*
X142589238Y-87383904D01*
X142636857Y-87479142D01*
X142684476Y-87526761D01*
X142779714Y-87574380D01*
X142970190Y-87574380D01*
X143065428Y-87526761D01*
X143113047Y-87479142D01*
X143160666Y-87383904D01*
X143160666Y-87145809D01*
X143113047Y-87050571D01*
X143065428Y-87002952D01*
X142970190Y-86955333D01*
X142779714Y-86955333D01*
X142684476Y-87002952D01*
X142636857Y-87050571D01*
X142589238Y-87145809D01*
X118792666Y-113454380D02*
X118792666Y-114168666D01*
X118745047Y-114311523D01*
X118649809Y-114406761D01*
X118506952Y-114454380D01*
X118411714Y-114454380D01*
X119173619Y-113454380D02*
X119840285Y-113454380D01*
X119411714Y-114454380D01*
X142160666Y-74890380D02*
X142160666Y-75604666D01*
X142113047Y-75747523D01*
X142017809Y-75842761D01*
X141874952Y-75890380D01*
X141779714Y-75890380D01*
X142779714Y-75318952D02*
X142684476Y-75271333D01*
X142636857Y-75223714D01*
X142589238Y-75128476D01*
X142589238Y-75080857D01*
X142636857Y-74985619D01*
X142684476Y-74938000D01*
X142779714Y-74890380D01*
X142970190Y-74890380D01*
X143065428Y-74938000D01*
X143113047Y-74985619D01*
X143160666Y-75080857D01*
X143160666Y-75128476D01*
X143113047Y-75223714D01*
X143065428Y-75271333D01*
X142970190Y-75318952D01*
X142779714Y-75318952D01*
X142684476Y-75366571D01*
X142636857Y-75414190D01*
X142589238Y-75509428D01*
X142589238Y-75699904D01*
X142636857Y-75795142D01*
X142684476Y-75842761D01*
X142779714Y-75890380D01*
X142970190Y-75890380D01*
X143065428Y-75842761D01*
X143113047Y-75795142D01*
X143160666Y-75699904D01*
X143160666Y-75509428D01*
X143113047Y-75414190D01*
X143065428Y-75366571D01*
X142970190Y-75318952D01*
X115014476Y-113454380D02*
X115014476Y-114168666D01*
X114966857Y-114311523D01*
X114871619Y-114406761D01*
X114728761Y-114454380D01*
X114633523Y-114454380D01*
X116014476Y-114454380D02*
X115443047Y-114454380D01*
X115728761Y-114454380D02*
X115728761Y-113454380D01*
X115633523Y-113597238D01*
X115538285Y-113692476D01*
X115443047Y-113740095D01*
X116633523Y-113454380D02*
X116728761Y-113454380D01*
X116824000Y-113502000D01*
X116871619Y-113549619D01*
X116919238Y-113644857D01*
X116966857Y-113835333D01*
X116966857Y-114073428D01*
X116919238Y-114263904D01*
X116871619Y-114359142D01*
X116824000Y-114406761D01*
X116728761Y-114454380D01*
X116633523Y-114454380D01*
X116538285Y-114406761D01*
X116490666Y-114359142D01*
X116443047Y-114263904D01*
X116395428Y-114073428D01*
X116395428Y-113835333D01*
X116443047Y-113644857D01*
X116490666Y-113549619D01*
X116538285Y-113502000D01*
X116633523Y-113454380D01*
X110950476Y-113454380D02*
X110950476Y-114168666D01*
X110902857Y-114311523D01*
X110807619Y-114406761D01*
X110664761Y-114454380D01*
X110569523Y-114454380D01*
X111950476Y-114454380D02*
X111379047Y-114454380D01*
X111664761Y-114454380D02*
X111664761Y-113454380D01*
X111569523Y-113597238D01*
X111474285Y-113692476D01*
X111379047Y-113740095D01*
X112283809Y-113454380D02*
X112902857Y-113454380D01*
X112569523Y-113835333D01*
X112712380Y-113835333D01*
X112807619Y-113882952D01*
X112855238Y-113930571D01*
X112902857Y-114025809D01*
X112902857Y-114263904D01*
X112855238Y-114359142D01*
X112807619Y-114406761D01*
X112712380Y-114454380D01*
X112426666Y-114454380D01*
X112331428Y-114406761D01*
X112283809Y-114359142D01*
X139144476Y-113962380D02*
X139144476Y-114676666D01*
X139096857Y-114819523D01*
X139001619Y-114914761D01*
X138858761Y-114962380D01*
X138763523Y-114962380D01*
X140144476Y-114962380D02*
X139573047Y-114962380D01*
X139858761Y-114962380D02*
X139858761Y-113962380D01*
X139763523Y-114105238D01*
X139668285Y-114200476D01*
X139573047Y-114248095D01*
X141049238Y-113962380D02*
X140573047Y-113962380D01*
X140525428Y-114438571D01*
X140573047Y-114390952D01*
X140668285Y-114343333D01*
X140906380Y-114343333D01*
X141001619Y-114390952D01*
X141049238Y-114438571D01*
X141096857Y-114533809D01*
X141096857Y-114771904D01*
X141049238Y-114867142D01*
X141001619Y-114914761D01*
X140906380Y-114962380D01*
X140668285Y-114962380D01*
X140573047Y-114914761D01*
X140525428Y-114867142D01*
X106632476Y-113454380D02*
X106632476Y-114168666D01*
X106584857Y-114311523D01*
X106489619Y-114406761D01*
X106346761Y-114454380D01*
X106251523Y-114454380D01*
X107632476Y-114454380D02*
X107061047Y-114454380D01*
X107346761Y-114454380D02*
X107346761Y-113454380D01*
X107251523Y-113597238D01*
X107156285Y-113692476D01*
X107061047Y-113740095D01*
X108489619Y-113454380D02*
X108299142Y-113454380D01*
X108203904Y-113502000D01*
X108156285Y-113549619D01*
X108061047Y-113692476D01*
X108013428Y-113882952D01*
X108013428Y-114263904D01*
X108061047Y-114359142D01*
X108108666Y-114406761D01*
X108203904Y-114454380D01*
X108394380Y-114454380D01*
X108489619Y-114406761D01*
X108537238Y-114359142D01*
X108584857Y-114263904D01*
X108584857Y-114025809D01*
X108537238Y-113930571D01*
X108489619Y-113882952D01*
X108394380Y-113835333D01*
X108203904Y-113835333D01*
X108108666Y-113882952D01*
X108061047Y-113930571D01*
X108013428Y-114025809D01*
X102822476Y-113454380D02*
X102822476Y-114168666D01*
X102774857Y-114311523D01*
X102679619Y-114406761D01*
X102536761Y-114454380D01*
X102441523Y-114454380D01*
X103822476Y-114454380D02*
X103251047Y-114454380D01*
X103536761Y-114454380D02*
X103536761Y-113454380D01*
X103441523Y-113597238D01*
X103346285Y-113692476D01*
X103251047Y-113740095D01*
X104393904Y-113882952D02*
X104298666Y-113835333D01*
X104251047Y-113787714D01*
X104203428Y-113692476D01*
X104203428Y-113644857D01*
X104251047Y-113549619D01*
X104298666Y-113502000D01*
X104393904Y-113454380D01*
X104584380Y-113454380D01*
X104679619Y-113502000D01*
X104727238Y-113549619D01*
X104774857Y-113644857D01*
X104774857Y-113692476D01*
X104727238Y-113787714D01*
X104679619Y-113835333D01*
X104584380Y-113882952D01*
X104393904Y-113882952D01*
X104298666Y-113930571D01*
X104251047Y-113978190D01*
X104203428Y-114073428D01*
X104203428Y-114263904D01*
X104251047Y-114359142D01*
X104298666Y-114406761D01*
X104393904Y-114454380D01*
X104584380Y-114454380D01*
X104679619Y-114406761D01*
X104727238Y-114359142D01*
X104774857Y-114263904D01*
X104774857Y-114073428D01*
X104727238Y-113978190D01*
X104679619Y-113930571D01*
X104584380Y-113882952D01*
X121618476Y-88860380D02*
X121618476Y-89574666D01*
X121570857Y-89717523D01*
X121475619Y-89812761D01*
X121332761Y-89860380D01*
X121237523Y-89860380D01*
X122618476Y-89860380D02*
X122047047Y-89860380D01*
X122332761Y-89860380D02*
X122332761Y-88860380D01*
X122237523Y-89003238D01*
X122142285Y-89098476D01*
X122047047Y-89146095D01*
X123094666Y-89860380D02*
X123285142Y-89860380D01*
X123380380Y-89812761D01*
X123428000Y-89765142D01*
X123523238Y-89622285D01*
X123570857Y-89431809D01*
X123570857Y-89050857D01*
X123523238Y-88955619D01*
X123475619Y-88908000D01*
X123380380Y-88860380D01*
X123189904Y-88860380D01*
X123094666Y-88908000D01*
X123047047Y-88955619D01*
X122999428Y-89050857D01*
X122999428Y-89288952D01*
X123047047Y-89384190D01*
X123094666Y-89431809D01*
X123189904Y-89479428D01*
X123380380Y-89479428D01*
X123475619Y-89431809D01*
X123523238Y-89384190D01*
X123570857Y-89288952D01*
X123142476Y-111974380D02*
X123142476Y-112688666D01*
X123094857Y-112831523D01*
X122999619Y-112926761D01*
X122856761Y-112974380D01*
X122761523Y-112974380D01*
X123571047Y-112069619D02*
X123618666Y-112022000D01*
X123713904Y-111974380D01*
X123952000Y-111974380D01*
X124047238Y-112022000D01*
X124094857Y-112069619D01*
X124142476Y-112164857D01*
X124142476Y-112260095D01*
X124094857Y-112402952D01*
X123523428Y-112974380D01*
X124142476Y-112974380D01*
X124761523Y-111974380D02*
X124856761Y-111974380D01*
X124952000Y-112022000D01*
X124999619Y-112069619D01*
X125047238Y-112164857D01*
X125094857Y-112355333D01*
X125094857Y-112593428D01*
X125047238Y-112783904D01*
X124999619Y-112879142D01*
X124952000Y-112926761D01*
X124856761Y-112974380D01*
X124761523Y-112974380D01*
X124666285Y-112926761D01*
X124618666Y-112879142D01*
X124571047Y-112783904D01*
X124523428Y-112593428D01*
X124523428Y-112355333D01*
X124571047Y-112164857D01*
X124618666Y-112069619D01*
X124666285Y-112022000D01*
X124761523Y-111974380D01*
X123896380Y-127674666D02*
X123420190Y-128008000D01*
X123896380Y-128246095D02*
X122896380Y-128246095D01*
X122896380Y-127865142D01*
X122944000Y-127769904D01*
X122991619Y-127722285D01*
X123086857Y-127674666D01*
X123229714Y-127674666D01*
X123324952Y-127722285D01*
X123372571Y-127769904D01*
X123420190Y-127865142D01*
X123420190Y-128246095D01*
X123896380Y-126722285D02*
X123896380Y-127293714D01*
X123896380Y-127008000D02*
X122896380Y-127008000D01*
X123039238Y-127103238D01*
X123134476Y-127198476D01*
X123182095Y-127293714D01*
X119070380Y-127420666D02*
X118594190Y-127754000D01*
X119070380Y-127992095D02*
X118070380Y-127992095D01*
X118070380Y-127611142D01*
X118118000Y-127515904D01*
X118165619Y-127468285D01*
X118260857Y-127420666D01*
X118403714Y-127420666D01*
X118498952Y-127468285D01*
X118546571Y-127515904D01*
X118594190Y-127611142D01*
X118594190Y-127992095D01*
X118165619Y-127039714D02*
X118118000Y-126992095D01*
X118070380Y-126896857D01*
X118070380Y-126658761D01*
X118118000Y-126563523D01*
X118165619Y-126515904D01*
X118260857Y-126468285D01*
X118356095Y-126468285D01*
X118498952Y-126515904D01*
X119070380Y-127087333D01*
X119070380Y-126468285D01*
X114244380Y-127420666D02*
X113768190Y-127754000D01*
X114244380Y-127992095D02*
X113244380Y-127992095D01*
X113244380Y-127611142D01*
X113292000Y-127515904D01*
X113339619Y-127468285D01*
X113434857Y-127420666D01*
X113577714Y-127420666D01*
X113672952Y-127468285D01*
X113720571Y-127515904D01*
X113768190Y-127611142D01*
X113768190Y-127992095D01*
X113244380Y-127087333D02*
X113244380Y-126468285D01*
X113625333Y-126801619D01*
X113625333Y-126658761D01*
X113672952Y-126563523D01*
X113720571Y-126515904D01*
X113815809Y-126468285D01*
X114053904Y-126468285D01*
X114149142Y-126515904D01*
X114196761Y-126563523D01*
X114244380Y-126658761D01*
X114244380Y-126944476D01*
X114196761Y-127039714D01*
X114149142Y-127087333D01*
X109672380Y-127420666D02*
X109196190Y-127754000D01*
X109672380Y-127992095D02*
X108672380Y-127992095D01*
X108672380Y-127611142D01*
X108720000Y-127515904D01*
X108767619Y-127468285D01*
X108862857Y-127420666D01*
X109005714Y-127420666D01*
X109100952Y-127468285D01*
X109148571Y-127515904D01*
X109196190Y-127611142D01*
X109196190Y-127992095D01*
X109005714Y-126563523D02*
X109672380Y-126563523D01*
X108624761Y-126801619D02*
X109339047Y-127039714D01*
X109339047Y-126420666D01*
X105100380Y-127420666D02*
X104624190Y-127754000D01*
X105100380Y-127992095D02*
X104100380Y-127992095D01*
X104100380Y-127611142D01*
X104148000Y-127515904D01*
X104195619Y-127468285D01*
X104290857Y-127420666D01*
X104433714Y-127420666D01*
X104528952Y-127468285D01*
X104576571Y-127515904D01*
X104624190Y-127611142D01*
X104624190Y-127992095D01*
X104100380Y-126515904D02*
X104100380Y-126992095D01*
X104576571Y-127039714D01*
X104528952Y-126992095D01*
X104481333Y-126896857D01*
X104481333Y-126658761D01*
X104528952Y-126563523D01*
X104576571Y-126515904D01*
X104671809Y-126468285D01*
X104909904Y-126468285D01*
X105005142Y-126515904D01*
X105052761Y-126563523D01*
X105100380Y-126658761D01*
X105100380Y-126896857D01*
X105052761Y-126992095D01*
X105005142Y-127039714D01*
X132508666Y-42334380D02*
X132508666Y-43048666D01*
X132461047Y-43191523D01*
X132365809Y-43286761D01*
X132222952Y-43334380D01*
X132127714Y-43334380D01*
X133032476Y-43334380D02*
X133222952Y-43334380D01*
X133318190Y-43286761D01*
X133365809Y-43239142D01*
X133461047Y-43096285D01*
X133508666Y-42905809D01*
X133508666Y-42524857D01*
X133461047Y-42429619D01*
X133413428Y-42382000D01*
X133318190Y-42334380D01*
X133127714Y-42334380D01*
X133032476Y-42382000D01*
X132984857Y-42429619D01*
X132937238Y-42524857D01*
X132937238Y-42762952D01*
X132984857Y-42858190D01*
X133032476Y-42905809D01*
X133127714Y-42953428D01*
X133318190Y-42953428D01*
X133413428Y-42905809D01*
X133461047Y-42858190D01*
X133508666Y-42762952D01*
X140922476Y-42334380D02*
X140922476Y-43048666D01*
X140874857Y-43191523D01*
X140779619Y-43286761D01*
X140636761Y-43334380D01*
X140541523Y-43334380D01*
X141922476Y-43334380D02*
X141351047Y-43334380D01*
X141636761Y-43334380D02*
X141636761Y-42334380D01*
X141541523Y-42477238D01*
X141446285Y-42572476D01*
X141351047Y-42620095D01*
X142779619Y-42667714D02*
X142779619Y-43334380D01*
X142541523Y-42286761D02*
X142303428Y-43001047D01*
X142922476Y-43001047D01*
X106878380Y-60872666D02*
X106402190Y-61206000D01*
X106878380Y-61444095D02*
X105878380Y-61444095D01*
X105878380Y-61063142D01*
X105926000Y-60967904D01*
X105973619Y-60920285D01*
X106068857Y-60872666D01*
X106211714Y-60872666D01*
X106306952Y-60920285D01*
X106354571Y-60967904D01*
X106402190Y-61063142D01*
X106402190Y-61444095D01*
X105878380Y-60015523D02*
X105878380Y-60206000D01*
X105926000Y-60301238D01*
X105973619Y-60348857D01*
X106116476Y-60444095D01*
X106306952Y-60491714D01*
X106687904Y-60491714D01*
X106783142Y-60444095D01*
X106830761Y-60396476D01*
X106878380Y-60301238D01*
X106878380Y-60110761D01*
X106830761Y-60015523D01*
X106783142Y-59967904D01*
X106687904Y-59920285D01*
X106449809Y-59920285D01*
X106354571Y-59967904D01*
X106306952Y-60015523D01*
X106259333Y-60110761D01*
X106259333Y-60301238D01*
X106306952Y-60396476D01*
X106354571Y-60444095D01*
X106449809Y-60491714D01*
X113736380Y-60618666D02*
X113260190Y-60952000D01*
X113736380Y-61190095D02*
X112736380Y-61190095D01*
X112736380Y-60809142D01*
X112784000Y-60713904D01*
X112831619Y-60666285D01*
X112926857Y-60618666D01*
X113069714Y-60618666D01*
X113164952Y-60666285D01*
X113212571Y-60713904D01*
X113260190Y-60809142D01*
X113260190Y-61190095D01*
X112736380Y-60285333D02*
X112736380Y-59618666D01*
X113736380Y-60047238D01*
X106854666Y-91146380D02*
X106854666Y-91860666D01*
X106807047Y-92003523D01*
X106711809Y-92098761D01*
X106568952Y-92146380D01*
X106473714Y-92146380D01*
X107235619Y-91146380D02*
X107854666Y-91146380D01*
X107521333Y-91527333D01*
X107664190Y-91527333D01*
X107759428Y-91574952D01*
X107807047Y-91622571D01*
X107854666Y-91717809D01*
X107854666Y-91955904D01*
X107807047Y-92051142D01*
X107759428Y-92098761D01*
X107664190Y-92146380D01*
X107378476Y-92146380D01*
X107283238Y-92098761D01*
X107235619Y-92051142D01*
X101298476Y-49700380D02*
X101298476Y-50414666D01*
X101250857Y-50557523D01*
X101155619Y-50652761D01*
X101012761Y-50700380D01*
X100917523Y-50700380D01*
X102298476Y-50700380D02*
X101727047Y-50700380D01*
X102012761Y-50700380D02*
X102012761Y-49700380D01*
X101917523Y-49843238D01*
X101822285Y-49938476D01*
X101727047Y-49986095D01*
X103250857Y-50700380D02*
X102679428Y-50700380D01*
X102965142Y-50700380D02*
X102965142Y-49700380D01*
X102869904Y-49843238D01*
X102774666Y-49938476D01*
X102679428Y-49986095D01*
M02*
