G04 #@! TF.GenerationSoftware,KiCad,Pcbnew,(5.1.2)-2*
G04 #@! TF.CreationDate,2020-04-13T13:08:01+07:00*
G04 #@! TF.ProjectId,arduino_due_shield,61726475-696e-46f5-9f64-75655f736869,rev?*
G04 #@! TF.SameCoordinates,Original*
G04 #@! TF.FileFunction,Soldermask,Top*
G04 #@! TF.FilePolarity,Negative*
%FSLAX46Y46*%
G04 Gerber Fmt 4.6, Leading zero omitted, Abs format (unit mm)*
G04 Created by KiCad (PCBNEW (5.1.2)-2) date 2020-04-13 13:08:01*
%MOMM*%
%LPD*%
G04 APERTURE LIST*
%ADD10C,0.100000*%
G04 APERTURE END LIST*
D10*
G36*
X114947000Y-146289000D02*
G01*
X113145000Y-146289000D01*
X113145000Y-144287000D01*
X114947000Y-144287000D01*
X114947000Y-146289000D01*
X114947000Y-146289000D01*
G37*
G36*
X120027000Y-146289000D02*
G01*
X118225000Y-146289000D01*
X118225000Y-144287000D01*
X120027000Y-144287000D01*
X120027000Y-146289000D01*
X120027000Y-146289000D01*
G37*
G36*
X103263000Y-146289000D02*
G01*
X101461000Y-146289000D01*
X101461000Y-144287000D01*
X103263000Y-144287000D01*
X103263000Y-146289000D01*
X103263000Y-146289000D01*
G37*
G36*
X105803000Y-146289000D02*
G01*
X104001000Y-146289000D01*
X104001000Y-144287000D01*
X105803000Y-144287000D01*
X105803000Y-146289000D01*
X105803000Y-146289000D01*
G37*
G36*
X108343000Y-146289000D02*
G01*
X106541000Y-146289000D01*
X106541000Y-144287000D01*
X108343000Y-144287000D01*
X108343000Y-146289000D01*
X108343000Y-146289000D01*
G37*
G36*
X122567000Y-146289000D02*
G01*
X120765000Y-146289000D01*
X120765000Y-144287000D01*
X122567000Y-144287000D01*
X122567000Y-146289000D01*
X122567000Y-146289000D01*
G37*
G36*
X110883000Y-146289000D02*
G01*
X109081000Y-146289000D01*
X109081000Y-144287000D01*
X110883000Y-144287000D01*
X110883000Y-146289000D01*
X110883000Y-146289000D01*
G37*
G36*
X117487000Y-146289000D02*
G01*
X115685000Y-146289000D01*
X115685000Y-144287000D01*
X117487000Y-144287000D01*
X117487000Y-146289000D01*
X117487000Y-146289000D01*
G37*
G36*
X114947000Y-138365000D02*
G01*
X113145000Y-138365000D01*
X113145000Y-136463000D01*
X114947000Y-136463000D01*
X114947000Y-138365000D01*
X114947000Y-138365000D01*
G37*
G36*
X137807000Y-138365000D02*
G01*
X136005000Y-138365000D01*
X136005000Y-136463000D01*
X137807000Y-136463000D01*
X137807000Y-138365000D01*
X137807000Y-138365000D01*
G37*
G36*
X135267000Y-138365000D02*
G01*
X133465000Y-138365000D01*
X133465000Y-136463000D01*
X135267000Y-136463000D01*
X135267000Y-138365000D01*
X135267000Y-138365000D01*
G37*
G36*
X132727000Y-138365000D02*
G01*
X130925000Y-138365000D01*
X130925000Y-136463000D01*
X132727000Y-136463000D01*
X132727000Y-138365000D01*
X132727000Y-138365000D01*
G37*
G36*
X130187000Y-138365000D02*
G01*
X128385000Y-138365000D01*
X128385000Y-136463000D01*
X130187000Y-136463000D01*
X130187000Y-138365000D01*
X130187000Y-138365000D01*
G37*
G36*
X127647000Y-138365000D02*
G01*
X125845000Y-138365000D01*
X125845000Y-136463000D01*
X127647000Y-136463000D01*
X127647000Y-138365000D01*
X127647000Y-138365000D01*
G37*
G36*
X125107000Y-138365000D02*
G01*
X123305000Y-138365000D01*
X123305000Y-136463000D01*
X125107000Y-136463000D01*
X125107000Y-138365000D01*
X125107000Y-138365000D01*
G37*
G36*
X122567000Y-138365000D02*
G01*
X120765000Y-138365000D01*
X120765000Y-136463000D01*
X122567000Y-136463000D01*
X122567000Y-138365000D01*
X122567000Y-138365000D01*
G37*
G36*
X120027000Y-138365000D02*
G01*
X118225000Y-138365000D01*
X118225000Y-136463000D01*
X120027000Y-136463000D01*
X120027000Y-138365000D01*
X120027000Y-138365000D01*
G37*
G36*
X142887000Y-138365000D02*
G01*
X141085000Y-138365000D01*
X141085000Y-136463000D01*
X142887000Y-136463000D01*
X142887000Y-138365000D01*
X142887000Y-138365000D01*
G37*
G36*
X112407000Y-138365000D02*
G01*
X110605000Y-138365000D01*
X110605000Y-136463000D01*
X112407000Y-136463000D01*
X112407000Y-138365000D01*
X112407000Y-138365000D01*
G37*
G36*
X109867000Y-138365000D02*
G01*
X108065000Y-138365000D01*
X108065000Y-136463000D01*
X109867000Y-136463000D01*
X109867000Y-138365000D01*
X109867000Y-138365000D01*
G37*
G36*
X107327000Y-138365000D02*
G01*
X105525000Y-138365000D01*
X105525000Y-136463000D01*
X107327000Y-136463000D01*
X107327000Y-138365000D01*
X107327000Y-138365000D01*
G37*
G36*
X104787000Y-138365000D02*
G01*
X102985000Y-138365000D01*
X102985000Y-136463000D01*
X104787000Y-136463000D01*
X104787000Y-138365000D01*
X104787000Y-138365000D01*
G37*
G36*
X145427000Y-138365000D02*
G01*
X143625000Y-138365000D01*
X143625000Y-136463000D01*
X145427000Y-136463000D01*
X145427000Y-138365000D01*
X145427000Y-138365000D01*
G37*
G36*
X140347000Y-138365000D02*
G01*
X138545000Y-138365000D01*
X138545000Y-136463000D01*
X140347000Y-136463000D01*
X140347000Y-138365000D01*
X140347000Y-138365000D01*
G37*
G36*
X117487000Y-138365000D02*
G01*
X115685000Y-138365000D01*
X115685000Y-136463000D01*
X117487000Y-136463000D01*
X117487000Y-138365000D01*
X117487000Y-138365000D01*
G37*
G36*
X147817000Y-138328600D02*
G01*
X146315000Y-138328600D01*
X146315000Y-136499400D01*
X147817000Y-136499400D01*
X147817000Y-138328600D01*
X147817000Y-138328600D01*
G37*
G36*
X112407000Y-135825000D02*
G01*
X110605000Y-135825000D01*
X110605000Y-133923000D01*
X112407000Y-133923000D01*
X112407000Y-135825000D01*
X112407000Y-135825000D01*
G37*
G36*
X127647000Y-135825000D02*
G01*
X125845000Y-135825000D01*
X125845000Y-133923000D01*
X127647000Y-133923000D01*
X127647000Y-135825000D01*
X127647000Y-135825000D01*
G37*
G36*
X114947000Y-135825000D02*
G01*
X113145000Y-135825000D01*
X113145000Y-133923000D01*
X114947000Y-133923000D01*
X114947000Y-135825000D01*
X114947000Y-135825000D01*
G37*
G36*
X145427000Y-135825000D02*
G01*
X143625000Y-135825000D01*
X143625000Y-133923000D01*
X145427000Y-133923000D01*
X145427000Y-135825000D01*
X145427000Y-135825000D01*
G37*
G36*
X120027000Y-135825000D02*
G01*
X118225000Y-135825000D01*
X118225000Y-133923000D01*
X120027000Y-133923000D01*
X120027000Y-135825000D01*
X120027000Y-135825000D01*
G37*
G36*
X122567000Y-135825000D02*
G01*
X120765000Y-135825000D01*
X120765000Y-133923000D01*
X122567000Y-133923000D01*
X122567000Y-135825000D01*
X122567000Y-135825000D01*
G37*
G36*
X132727000Y-135825000D02*
G01*
X130925000Y-135825000D01*
X130925000Y-133923000D01*
X132727000Y-133923000D01*
X132727000Y-135825000D01*
X132727000Y-135825000D01*
G37*
G36*
X125107000Y-135825000D02*
G01*
X123305000Y-135825000D01*
X123305000Y-133923000D01*
X125107000Y-133923000D01*
X125107000Y-135825000D01*
X125107000Y-135825000D01*
G37*
G36*
X130187000Y-135825000D02*
G01*
X128385000Y-135825000D01*
X128385000Y-133923000D01*
X130187000Y-133923000D01*
X130187000Y-135825000D01*
X130187000Y-135825000D01*
G37*
G36*
X117487000Y-135825000D02*
G01*
X115685000Y-135825000D01*
X115685000Y-133923000D01*
X117487000Y-133923000D01*
X117487000Y-135825000D01*
X117487000Y-135825000D01*
G37*
G36*
X107327000Y-135825000D02*
G01*
X105525000Y-135825000D01*
X105525000Y-133923000D01*
X107327000Y-133923000D01*
X107327000Y-135825000D01*
X107327000Y-135825000D01*
G37*
G36*
X104787000Y-135825000D02*
G01*
X102985000Y-135825000D01*
X102985000Y-133923000D01*
X104787000Y-133923000D01*
X104787000Y-135825000D01*
X104787000Y-135825000D01*
G37*
G36*
X140347000Y-135825000D02*
G01*
X138545000Y-135825000D01*
X138545000Y-133923000D01*
X140347000Y-133923000D01*
X140347000Y-135825000D01*
X140347000Y-135825000D01*
G37*
G36*
X137807000Y-135825000D02*
G01*
X136005000Y-135825000D01*
X136005000Y-133923000D01*
X137807000Y-133923000D01*
X137807000Y-135825000D01*
X137807000Y-135825000D01*
G37*
G36*
X135267000Y-135825000D02*
G01*
X133465000Y-135825000D01*
X133465000Y-133923000D01*
X135267000Y-133923000D01*
X135267000Y-135825000D01*
X135267000Y-135825000D01*
G37*
G36*
X142887000Y-135825000D02*
G01*
X141085000Y-135825000D01*
X141085000Y-133923000D01*
X142887000Y-133923000D01*
X142887000Y-135825000D01*
X142887000Y-135825000D01*
G37*
G36*
X109867000Y-135825000D02*
G01*
X108065000Y-135825000D01*
X108065000Y-133923000D01*
X109867000Y-133923000D01*
X109867000Y-135825000D01*
X109867000Y-135825000D01*
G37*
G36*
X147817000Y-135788600D02*
G01*
X146315000Y-135788600D01*
X146315000Y-133959400D01*
X147817000Y-133959400D01*
X147817000Y-135788600D01*
X147817000Y-135788600D01*
G37*
G36*
X99720600Y-133085000D02*
G01*
X97891400Y-133085000D01*
X97891400Y-131583000D01*
X99720600Y-131583000D01*
X99720600Y-133085000D01*
X99720600Y-133085000D01*
G37*
G36*
X122165239Y-128561101D02*
G01*
X122401053Y-128632634D01*
X122618381Y-128748799D01*
X122808871Y-128905129D01*
X122965201Y-129095619D01*
X123081366Y-129312947D01*
X123152899Y-129548761D01*
X123177053Y-129794000D01*
X123152899Y-130039239D01*
X123081366Y-130275053D01*
X122965201Y-130492381D01*
X122808871Y-130682871D01*
X122618381Y-130839201D01*
X122401053Y-130955366D01*
X122165239Y-131026899D01*
X121981457Y-131045000D01*
X121858543Y-131045000D01*
X121674761Y-131026899D01*
X121438947Y-130955366D01*
X121221619Y-130839201D01*
X121031129Y-130682871D01*
X120874799Y-130492381D01*
X120758634Y-130275053D01*
X120687101Y-130039239D01*
X120662947Y-129794000D01*
X120687101Y-129548761D01*
X120758634Y-129312947D01*
X120874799Y-129095619D01*
X121031129Y-128905129D01*
X121221619Y-128748799D01*
X121438947Y-128632634D01*
X121674761Y-128561101D01*
X121858543Y-128543000D01*
X121981457Y-128543000D01*
X122165239Y-128561101D01*
X122165239Y-128561101D01*
G37*
G36*
X103369239Y-128561101D02*
G01*
X103605053Y-128632634D01*
X103822381Y-128748799D01*
X104012871Y-128905129D01*
X104169201Y-129095619D01*
X104285366Y-129312947D01*
X104356899Y-129548761D01*
X104381053Y-129794000D01*
X104356899Y-130039239D01*
X104285366Y-130275053D01*
X104169201Y-130492381D01*
X104012871Y-130682871D01*
X103822381Y-130839201D01*
X103605053Y-130955366D01*
X103369239Y-131026899D01*
X103185457Y-131045000D01*
X103062543Y-131045000D01*
X102878761Y-131026899D01*
X102642947Y-130955366D01*
X102425619Y-130839201D01*
X102235129Y-130682871D01*
X102078799Y-130492381D01*
X101962634Y-130275053D01*
X101891101Y-130039239D01*
X101866947Y-129794000D01*
X101891101Y-129548761D01*
X101962634Y-129312947D01*
X102078799Y-129095619D01*
X102235129Y-128905129D01*
X102425619Y-128748799D01*
X102642947Y-128632634D01*
X102878761Y-128561101D01*
X103062543Y-128543000D01*
X103185457Y-128543000D01*
X103369239Y-128561101D01*
X103369239Y-128561101D01*
G37*
G36*
X107941239Y-128561101D02*
G01*
X108177053Y-128632634D01*
X108394381Y-128748799D01*
X108584871Y-128905129D01*
X108741201Y-129095619D01*
X108857366Y-129312947D01*
X108928899Y-129548761D01*
X108953053Y-129794000D01*
X108928899Y-130039239D01*
X108857366Y-130275053D01*
X108741201Y-130492381D01*
X108584871Y-130682871D01*
X108394381Y-130839201D01*
X108177053Y-130955366D01*
X107941239Y-131026899D01*
X107757457Y-131045000D01*
X107634543Y-131045000D01*
X107450761Y-131026899D01*
X107214947Y-130955366D01*
X106997619Y-130839201D01*
X106807129Y-130682871D01*
X106650799Y-130492381D01*
X106534634Y-130275053D01*
X106463101Y-130039239D01*
X106438947Y-129794000D01*
X106463101Y-129548761D01*
X106534634Y-129312947D01*
X106650799Y-129095619D01*
X106807129Y-128905129D01*
X106997619Y-128748799D01*
X107214947Y-128632634D01*
X107450761Y-128561101D01*
X107634543Y-128543000D01*
X107757457Y-128543000D01*
X107941239Y-128561101D01*
X107941239Y-128561101D01*
G37*
G36*
X112513239Y-128561101D02*
G01*
X112749053Y-128632634D01*
X112966381Y-128748799D01*
X113156871Y-128905129D01*
X113313201Y-129095619D01*
X113429366Y-129312947D01*
X113500899Y-129548761D01*
X113525053Y-129794000D01*
X113500899Y-130039239D01*
X113429366Y-130275053D01*
X113313201Y-130492381D01*
X113156871Y-130682871D01*
X112966381Y-130839201D01*
X112749053Y-130955366D01*
X112513239Y-131026899D01*
X112329457Y-131045000D01*
X112206543Y-131045000D01*
X112022761Y-131026899D01*
X111786947Y-130955366D01*
X111569619Y-130839201D01*
X111379129Y-130682871D01*
X111222799Y-130492381D01*
X111106634Y-130275053D01*
X111035101Y-130039239D01*
X111010947Y-129794000D01*
X111035101Y-129548761D01*
X111106634Y-129312947D01*
X111222799Y-129095619D01*
X111379129Y-128905129D01*
X111569619Y-128748799D01*
X111786947Y-128632634D01*
X112022761Y-128561101D01*
X112206543Y-128543000D01*
X112329457Y-128543000D01*
X112513239Y-128561101D01*
X112513239Y-128561101D01*
G37*
G36*
X117339239Y-128561101D02*
G01*
X117575053Y-128632634D01*
X117792381Y-128748799D01*
X117982871Y-128905129D01*
X118139201Y-129095619D01*
X118255366Y-129312947D01*
X118326899Y-129548761D01*
X118351053Y-129794000D01*
X118326899Y-130039239D01*
X118255366Y-130275053D01*
X118139201Y-130492381D01*
X117982871Y-130682871D01*
X117792381Y-130839201D01*
X117575053Y-130955366D01*
X117339239Y-131026899D01*
X117155457Y-131045000D01*
X117032543Y-131045000D01*
X116848761Y-131026899D01*
X116612947Y-130955366D01*
X116395619Y-130839201D01*
X116205129Y-130682871D01*
X116048799Y-130492381D01*
X115932634Y-130275053D01*
X115861101Y-130039239D01*
X115836947Y-129794000D01*
X115861101Y-129548761D01*
X115932634Y-129312947D01*
X116048799Y-129095619D01*
X116205129Y-128905129D01*
X116395619Y-128748799D01*
X116612947Y-128632634D01*
X116848761Y-128561101D01*
X117032543Y-128543000D01*
X117155457Y-128543000D01*
X117339239Y-128561101D01*
X117339239Y-128561101D01*
G37*
G36*
X99720600Y-130545000D02*
G01*
X97891400Y-130545000D01*
X97891400Y-129043000D01*
X99720600Y-129043000D01*
X99720600Y-130545000D01*
X99720600Y-130545000D01*
G37*
G36*
X140905000Y-130441000D02*
G01*
X139003000Y-130441000D01*
X139003000Y-128639000D01*
X140905000Y-128639000D01*
X140905000Y-130441000D01*
X140905000Y-130441000D01*
G37*
G36*
X133793000Y-130187000D02*
G01*
X131891000Y-130187000D01*
X131891000Y-128385000D01*
X133793000Y-128385000D01*
X133793000Y-130187000D01*
X133793000Y-130187000D01*
G37*
G36*
X147980600Y-128005000D02*
G01*
X146151400Y-128005000D01*
X146151400Y-126503000D01*
X147980600Y-126503000D01*
X147980600Y-128005000D01*
X147980600Y-128005000D01*
G37*
G36*
X99720600Y-128005000D02*
G01*
X97891400Y-128005000D01*
X97891400Y-126503000D01*
X99720600Y-126503000D01*
X99720600Y-128005000D01*
X99720600Y-128005000D01*
G37*
G36*
X140905000Y-127901000D02*
G01*
X139003000Y-127901000D01*
X139003000Y-126099000D01*
X140905000Y-126099000D01*
X140905000Y-127901000D01*
X140905000Y-127901000D01*
G37*
G36*
X133793000Y-127647000D02*
G01*
X131891000Y-127647000D01*
X131891000Y-125845000D01*
X133793000Y-125845000D01*
X133793000Y-127647000D01*
X133793000Y-127647000D01*
G37*
G36*
X122284903Y-123511075D02*
G01*
X122400605Y-123559000D01*
X122512571Y-123605378D01*
X122717466Y-123742285D01*
X122891715Y-123916534D01*
X123028622Y-124121429D01*
X123122925Y-124349097D01*
X123171000Y-124590787D01*
X123171000Y-124837213D01*
X123122925Y-125078903D01*
X123028622Y-125306571D01*
X122891715Y-125511466D01*
X122717466Y-125685715D01*
X122512571Y-125822622D01*
X122512570Y-125822623D01*
X122512569Y-125822623D01*
X122284903Y-125916925D01*
X122043214Y-125965000D01*
X121796786Y-125965000D01*
X121555097Y-125916925D01*
X121327431Y-125822623D01*
X121327430Y-125822623D01*
X121327429Y-125822622D01*
X121122534Y-125685715D01*
X120948285Y-125511466D01*
X120811378Y-125306571D01*
X120717075Y-125078903D01*
X120669000Y-124837213D01*
X120669000Y-124590787D01*
X120717075Y-124349097D01*
X120811378Y-124121429D01*
X120948285Y-123916534D01*
X121122534Y-123742285D01*
X121327429Y-123605378D01*
X121439396Y-123559000D01*
X121555097Y-123511075D01*
X121796786Y-123463000D01*
X122043214Y-123463000D01*
X122284903Y-123511075D01*
X122284903Y-123511075D01*
G37*
G36*
X103488903Y-123511075D02*
G01*
X103604605Y-123559000D01*
X103716571Y-123605378D01*
X103921466Y-123742285D01*
X104095715Y-123916534D01*
X104232622Y-124121429D01*
X104326925Y-124349097D01*
X104375000Y-124590787D01*
X104375000Y-124837213D01*
X104326925Y-125078903D01*
X104232622Y-125306571D01*
X104095715Y-125511466D01*
X103921466Y-125685715D01*
X103716571Y-125822622D01*
X103716570Y-125822623D01*
X103716569Y-125822623D01*
X103488903Y-125916925D01*
X103247214Y-125965000D01*
X103000786Y-125965000D01*
X102759097Y-125916925D01*
X102531431Y-125822623D01*
X102531430Y-125822623D01*
X102531429Y-125822622D01*
X102326534Y-125685715D01*
X102152285Y-125511466D01*
X102015378Y-125306571D01*
X101921075Y-125078903D01*
X101873000Y-124837213D01*
X101873000Y-124590787D01*
X101921075Y-124349097D01*
X102015378Y-124121429D01*
X102152285Y-123916534D01*
X102326534Y-123742285D01*
X102531429Y-123605378D01*
X102643396Y-123559000D01*
X102759097Y-123511075D01*
X103000786Y-123463000D01*
X103247214Y-123463000D01*
X103488903Y-123511075D01*
X103488903Y-123511075D01*
G37*
G36*
X108060903Y-123511075D02*
G01*
X108176605Y-123559000D01*
X108288571Y-123605378D01*
X108493466Y-123742285D01*
X108667715Y-123916534D01*
X108804622Y-124121429D01*
X108898925Y-124349097D01*
X108947000Y-124590787D01*
X108947000Y-124837213D01*
X108898925Y-125078903D01*
X108804622Y-125306571D01*
X108667715Y-125511466D01*
X108493466Y-125685715D01*
X108288571Y-125822622D01*
X108288570Y-125822623D01*
X108288569Y-125822623D01*
X108060903Y-125916925D01*
X107819214Y-125965000D01*
X107572786Y-125965000D01*
X107331097Y-125916925D01*
X107103431Y-125822623D01*
X107103430Y-125822623D01*
X107103429Y-125822622D01*
X106898534Y-125685715D01*
X106724285Y-125511466D01*
X106587378Y-125306571D01*
X106493075Y-125078903D01*
X106445000Y-124837213D01*
X106445000Y-124590787D01*
X106493075Y-124349097D01*
X106587378Y-124121429D01*
X106724285Y-123916534D01*
X106898534Y-123742285D01*
X107103429Y-123605378D01*
X107215396Y-123559000D01*
X107331097Y-123511075D01*
X107572786Y-123463000D01*
X107819214Y-123463000D01*
X108060903Y-123511075D01*
X108060903Y-123511075D01*
G37*
G36*
X117458903Y-123511075D02*
G01*
X117574605Y-123559000D01*
X117686571Y-123605378D01*
X117891466Y-123742285D01*
X118065715Y-123916534D01*
X118202622Y-124121429D01*
X118296925Y-124349097D01*
X118345000Y-124590787D01*
X118345000Y-124837213D01*
X118296925Y-125078903D01*
X118202622Y-125306571D01*
X118065715Y-125511466D01*
X117891466Y-125685715D01*
X117686571Y-125822622D01*
X117686570Y-125822623D01*
X117686569Y-125822623D01*
X117458903Y-125916925D01*
X117217214Y-125965000D01*
X116970786Y-125965000D01*
X116729097Y-125916925D01*
X116501431Y-125822623D01*
X116501430Y-125822623D01*
X116501429Y-125822622D01*
X116296534Y-125685715D01*
X116122285Y-125511466D01*
X115985378Y-125306571D01*
X115891075Y-125078903D01*
X115843000Y-124837213D01*
X115843000Y-124590787D01*
X115891075Y-124349097D01*
X115985378Y-124121429D01*
X116122285Y-123916534D01*
X116296534Y-123742285D01*
X116501429Y-123605378D01*
X116613396Y-123559000D01*
X116729097Y-123511075D01*
X116970786Y-123463000D01*
X117217214Y-123463000D01*
X117458903Y-123511075D01*
X117458903Y-123511075D01*
G37*
G36*
X112632903Y-123511075D02*
G01*
X112748605Y-123559000D01*
X112860571Y-123605378D01*
X113065466Y-123742285D01*
X113239715Y-123916534D01*
X113376622Y-124121429D01*
X113470925Y-124349097D01*
X113519000Y-124590787D01*
X113519000Y-124837213D01*
X113470925Y-125078903D01*
X113376622Y-125306571D01*
X113239715Y-125511466D01*
X113065466Y-125685715D01*
X112860571Y-125822622D01*
X112860570Y-125822623D01*
X112860569Y-125822623D01*
X112632903Y-125916925D01*
X112391214Y-125965000D01*
X112144786Y-125965000D01*
X111903097Y-125916925D01*
X111675431Y-125822623D01*
X111675430Y-125822623D01*
X111675429Y-125822622D01*
X111470534Y-125685715D01*
X111296285Y-125511466D01*
X111159378Y-125306571D01*
X111065075Y-125078903D01*
X111017000Y-124837213D01*
X111017000Y-124590787D01*
X111065075Y-124349097D01*
X111159378Y-124121429D01*
X111296285Y-123916534D01*
X111470534Y-123742285D01*
X111675429Y-123605378D01*
X111787396Y-123559000D01*
X111903097Y-123511075D01*
X112144786Y-123463000D01*
X112391214Y-123463000D01*
X112632903Y-123511075D01*
X112632903Y-123511075D01*
G37*
G36*
X99720600Y-125465000D02*
G01*
X97891400Y-125465000D01*
X97891400Y-123963000D01*
X99720600Y-123963000D01*
X99720600Y-125465000D01*
X99720600Y-125465000D01*
G37*
G36*
X147980600Y-125465000D02*
G01*
X146151400Y-125465000D01*
X146151400Y-123963000D01*
X147980600Y-123963000D01*
X147980600Y-125465000D01*
X147980600Y-125465000D01*
G37*
G36*
X140905000Y-125361000D02*
G01*
X139003000Y-125361000D01*
X139003000Y-123559000D01*
X140905000Y-123559000D01*
X140905000Y-125361000D01*
X140905000Y-125361000D01*
G37*
G36*
X133793000Y-125107000D02*
G01*
X131891000Y-125107000D01*
X131891000Y-123305000D01*
X133793000Y-123305000D01*
X133793000Y-125107000D01*
X133793000Y-125107000D01*
G37*
G36*
X147980600Y-122925000D02*
G01*
X146151400Y-122925000D01*
X146151400Y-121423000D01*
X147980600Y-121423000D01*
X147980600Y-122925000D01*
X147980600Y-122925000D01*
G37*
G36*
X99720600Y-122925000D02*
G01*
X97891400Y-122925000D01*
X97891400Y-121423000D01*
X99720600Y-121423000D01*
X99720600Y-122925000D01*
X99720600Y-122925000D01*
G37*
G36*
X140905000Y-122821000D02*
G01*
X139003000Y-122821000D01*
X139003000Y-121019000D01*
X140905000Y-121019000D01*
X140905000Y-122821000D01*
X140905000Y-122821000D01*
G37*
G36*
X133793000Y-122567000D02*
G01*
X131891000Y-122567000D01*
X131891000Y-120765000D01*
X133793000Y-120765000D01*
X133793000Y-122567000D01*
X133793000Y-122567000D01*
G37*
G36*
X99720600Y-120385000D02*
G01*
X97891400Y-120385000D01*
X97891400Y-118883000D01*
X99720600Y-118883000D01*
X99720600Y-120385000D01*
X99720600Y-120385000D01*
G37*
G36*
X147980600Y-120385000D02*
G01*
X146151400Y-120385000D01*
X146151400Y-118883000D01*
X147980600Y-118883000D01*
X147980600Y-120385000D01*
X147980600Y-120385000D01*
G37*
G36*
X140905000Y-120281000D02*
G01*
X139003000Y-120281000D01*
X139003000Y-118479000D01*
X140905000Y-118479000D01*
X140905000Y-120281000D01*
X140905000Y-120281000D01*
G37*
G36*
X133793000Y-120027000D02*
G01*
X131891000Y-120027000D01*
X131891000Y-118225000D01*
X133793000Y-118225000D01*
X133793000Y-120027000D01*
X133793000Y-120027000D01*
G37*
G36*
X115961421Y-118181143D02*
G01*
X116093557Y-118221227D01*
X116093559Y-118221228D01*
X116215339Y-118286320D01*
X116215341Y-118286321D01*
X116215340Y-118286321D01*
X116322080Y-118373920D01*
X116409679Y-118480660D01*
X116474773Y-118602443D01*
X116514857Y-118734579D01*
X116528391Y-118872000D01*
X116514857Y-119009421D01*
X116474773Y-119141557D01*
X116474772Y-119141559D01*
X116409680Y-119263339D01*
X116322080Y-119370080D01*
X116215339Y-119457680D01*
X116093559Y-119522772D01*
X116093557Y-119522773D01*
X115961421Y-119562857D01*
X115858432Y-119573000D01*
X115789568Y-119573000D01*
X115686579Y-119562857D01*
X115554443Y-119522773D01*
X115554441Y-119522772D01*
X115432661Y-119457680D01*
X115325920Y-119370080D01*
X115238320Y-119263339D01*
X115173228Y-119141559D01*
X115173227Y-119141557D01*
X115133143Y-119009421D01*
X115119609Y-118872000D01*
X115133143Y-118734579D01*
X115173227Y-118602443D01*
X115238321Y-118480660D01*
X115325920Y-118373920D01*
X115432660Y-118286321D01*
X115432659Y-118286321D01*
X115432661Y-118286320D01*
X115554441Y-118221228D01*
X115554443Y-118221227D01*
X115686579Y-118181143D01*
X115789568Y-118171000D01*
X115858432Y-118171000D01*
X115961421Y-118181143D01*
X115961421Y-118181143D01*
G37*
G36*
X111897421Y-118181143D02*
G01*
X112029557Y-118221227D01*
X112029559Y-118221228D01*
X112151339Y-118286320D01*
X112151341Y-118286321D01*
X112151340Y-118286321D01*
X112258080Y-118373920D01*
X112345679Y-118480660D01*
X112410773Y-118602443D01*
X112450857Y-118734579D01*
X112464391Y-118872000D01*
X112450857Y-119009421D01*
X112410773Y-119141557D01*
X112410772Y-119141559D01*
X112345680Y-119263339D01*
X112258080Y-119370080D01*
X112151339Y-119457680D01*
X112029559Y-119522772D01*
X112029557Y-119522773D01*
X111897421Y-119562857D01*
X111794432Y-119573000D01*
X111725568Y-119573000D01*
X111622579Y-119562857D01*
X111490443Y-119522773D01*
X111490441Y-119522772D01*
X111368661Y-119457680D01*
X111261920Y-119370080D01*
X111174320Y-119263339D01*
X111109228Y-119141559D01*
X111109227Y-119141557D01*
X111069143Y-119009421D01*
X111055609Y-118872000D01*
X111069143Y-118734579D01*
X111109227Y-118602443D01*
X111174321Y-118480660D01*
X111261920Y-118373920D01*
X111368660Y-118286321D01*
X111368659Y-118286321D01*
X111368661Y-118286320D01*
X111490441Y-118221228D01*
X111490443Y-118221227D01*
X111622579Y-118181143D01*
X111725568Y-118171000D01*
X111794432Y-118171000D01*
X111897421Y-118181143D01*
X111897421Y-118181143D01*
G37*
G36*
X119263421Y-118181143D02*
G01*
X119395557Y-118221227D01*
X119395559Y-118221228D01*
X119517339Y-118286320D01*
X119517341Y-118286321D01*
X119517340Y-118286321D01*
X119624080Y-118373920D01*
X119711679Y-118480660D01*
X119776773Y-118602443D01*
X119816857Y-118734579D01*
X119830391Y-118872000D01*
X119816857Y-119009421D01*
X119776773Y-119141557D01*
X119776772Y-119141559D01*
X119711680Y-119263339D01*
X119624080Y-119370080D01*
X119517339Y-119457680D01*
X119395559Y-119522772D01*
X119395557Y-119522773D01*
X119263421Y-119562857D01*
X119160432Y-119573000D01*
X119091568Y-119573000D01*
X118988579Y-119562857D01*
X118856443Y-119522773D01*
X118856441Y-119522772D01*
X118734661Y-119457680D01*
X118627920Y-119370080D01*
X118540320Y-119263339D01*
X118475228Y-119141559D01*
X118475227Y-119141557D01*
X118435143Y-119009421D01*
X118421609Y-118872000D01*
X118435143Y-118734579D01*
X118475227Y-118602443D01*
X118540321Y-118480660D01*
X118627920Y-118373920D01*
X118734660Y-118286321D01*
X118734659Y-118286321D01*
X118734661Y-118286320D01*
X118856441Y-118221228D01*
X118856443Y-118221227D01*
X118988579Y-118181143D01*
X119091568Y-118171000D01*
X119160432Y-118171000D01*
X119263421Y-118181143D01*
X119263421Y-118181143D01*
G37*
G36*
X107579421Y-118181143D02*
G01*
X107711557Y-118221227D01*
X107711559Y-118221228D01*
X107833339Y-118286320D01*
X107833341Y-118286321D01*
X107833340Y-118286321D01*
X107940080Y-118373920D01*
X108027679Y-118480660D01*
X108092773Y-118602443D01*
X108132857Y-118734579D01*
X108146391Y-118872000D01*
X108132857Y-119009421D01*
X108092773Y-119141557D01*
X108092772Y-119141559D01*
X108027680Y-119263339D01*
X107940080Y-119370080D01*
X107833339Y-119457680D01*
X107711559Y-119522772D01*
X107711557Y-119522773D01*
X107579421Y-119562857D01*
X107476432Y-119573000D01*
X107407568Y-119573000D01*
X107304579Y-119562857D01*
X107172443Y-119522773D01*
X107172441Y-119522772D01*
X107050661Y-119457680D01*
X106943920Y-119370080D01*
X106856320Y-119263339D01*
X106791228Y-119141559D01*
X106791227Y-119141557D01*
X106751143Y-119009421D01*
X106737609Y-118872000D01*
X106751143Y-118734579D01*
X106791227Y-118602443D01*
X106856321Y-118480660D01*
X106943920Y-118373920D01*
X107050660Y-118286321D01*
X107050659Y-118286321D01*
X107050661Y-118286320D01*
X107172441Y-118221228D01*
X107172443Y-118221227D01*
X107304579Y-118181143D01*
X107407568Y-118171000D01*
X107476432Y-118171000D01*
X107579421Y-118181143D01*
X107579421Y-118181143D01*
G37*
G36*
X103769421Y-118181143D02*
G01*
X103901557Y-118221227D01*
X103901559Y-118221228D01*
X104023339Y-118286320D01*
X104023341Y-118286321D01*
X104023340Y-118286321D01*
X104130080Y-118373920D01*
X104217679Y-118480660D01*
X104282773Y-118602443D01*
X104322857Y-118734579D01*
X104336391Y-118872000D01*
X104322857Y-119009421D01*
X104282773Y-119141557D01*
X104282772Y-119141559D01*
X104217680Y-119263339D01*
X104130080Y-119370080D01*
X104023339Y-119457680D01*
X103901559Y-119522772D01*
X103901557Y-119522773D01*
X103769421Y-119562857D01*
X103666432Y-119573000D01*
X103597568Y-119573000D01*
X103494579Y-119562857D01*
X103362443Y-119522773D01*
X103362441Y-119522772D01*
X103240661Y-119457680D01*
X103133920Y-119370080D01*
X103046320Y-119263339D01*
X102981228Y-119141559D01*
X102981227Y-119141557D01*
X102941143Y-119009421D01*
X102927609Y-118872000D01*
X102941143Y-118734579D01*
X102981227Y-118602443D01*
X103046321Y-118480660D01*
X103133920Y-118373920D01*
X103240660Y-118286321D01*
X103240659Y-118286321D01*
X103240661Y-118286320D01*
X103362441Y-118221228D01*
X103362443Y-118221227D01*
X103494579Y-118181143D01*
X103597568Y-118171000D01*
X103666432Y-118171000D01*
X103769421Y-118181143D01*
X103769421Y-118181143D01*
G37*
G36*
X99720600Y-117845000D02*
G01*
X97891400Y-117845000D01*
X97891400Y-116343000D01*
X99720600Y-116343000D01*
X99720600Y-117845000D01*
X99720600Y-117845000D01*
G37*
G36*
X147980600Y-117845000D02*
G01*
X146151400Y-117845000D01*
X146151400Y-116343000D01*
X147980600Y-116343000D01*
X147980600Y-117845000D01*
X147980600Y-117845000D01*
G37*
G36*
X140855000Y-117741000D02*
G01*
X139053000Y-117741000D01*
X139053000Y-115939000D01*
X140855000Y-115939000D01*
X140855000Y-117741000D01*
X140855000Y-117741000D01*
G37*
G36*
X133793000Y-117487000D02*
G01*
X131891000Y-117487000D01*
X131891000Y-115685000D01*
X133793000Y-115685000D01*
X133793000Y-117487000D01*
X133793000Y-117487000D01*
G37*
G36*
X104333000Y-117033000D02*
G01*
X102931000Y-117033000D01*
X102931000Y-115631000D01*
X104333000Y-115631000D01*
X104333000Y-117033000D01*
X104333000Y-117033000D01*
G37*
G36*
X119827000Y-117033000D02*
G01*
X118425000Y-117033000D01*
X118425000Y-115631000D01*
X119827000Y-115631000D01*
X119827000Y-117033000D01*
X119827000Y-117033000D01*
G37*
G36*
X112461000Y-117033000D02*
G01*
X111059000Y-117033000D01*
X111059000Y-115631000D01*
X112461000Y-115631000D01*
X112461000Y-117033000D01*
X112461000Y-117033000D01*
G37*
G36*
X108143000Y-117033000D02*
G01*
X106741000Y-117033000D01*
X106741000Y-115631000D01*
X108143000Y-115631000D01*
X108143000Y-117033000D01*
X108143000Y-117033000D01*
G37*
G36*
X116525000Y-117033000D02*
G01*
X115123000Y-117033000D01*
X115123000Y-115631000D01*
X116525000Y-115631000D01*
X116525000Y-117033000D01*
X116525000Y-117033000D01*
G37*
G36*
X99720600Y-115305000D02*
G01*
X97891400Y-115305000D01*
X97891400Y-113803000D01*
X99720600Y-113803000D01*
X99720600Y-115305000D01*
X99720600Y-115305000D01*
G37*
G36*
X147980600Y-115305000D02*
G01*
X146151400Y-115305000D01*
X146151400Y-113803000D01*
X147980600Y-113803000D01*
X147980600Y-115305000D01*
X147980600Y-115305000D01*
G37*
G36*
X147980600Y-112765000D02*
G01*
X146151400Y-112765000D01*
X146151400Y-111263000D01*
X147980600Y-111263000D01*
X147980600Y-112765000D01*
X147980600Y-112765000D01*
G37*
G36*
X141159000Y-112407000D02*
G01*
X139257000Y-112407000D01*
X139257000Y-110605000D01*
X141159000Y-110605000D01*
X141159000Y-112407000D01*
X141159000Y-112407000D01*
G37*
G36*
X99707000Y-110475000D02*
G01*
X97905000Y-110475000D01*
X97905000Y-108473000D01*
X99707000Y-108473000D01*
X99707000Y-110475000D01*
X99707000Y-110475000D01*
G37*
G36*
X147980600Y-110225000D02*
G01*
X146151400Y-110225000D01*
X146151400Y-108723000D01*
X147980600Y-108723000D01*
X147980600Y-110225000D01*
X147980600Y-110225000D01*
G37*
G36*
X141159000Y-109867000D02*
G01*
X139257000Y-109867000D01*
X139257000Y-108065000D01*
X141159000Y-108065000D01*
X141159000Y-109867000D01*
X141159000Y-109867000D01*
G37*
G36*
X99707000Y-107935000D02*
G01*
X97905000Y-107935000D01*
X97905000Y-105933000D01*
X99707000Y-105933000D01*
X99707000Y-107935000D01*
X99707000Y-107935000D01*
G37*
G36*
X130441000Y-107427000D02*
G01*
X128639000Y-107427000D01*
X128639000Y-105425000D01*
X130441000Y-105425000D01*
X130441000Y-107427000D01*
X130441000Y-107427000D01*
G37*
G36*
X120281000Y-107427000D02*
G01*
X118479000Y-107427000D01*
X118479000Y-105425000D01*
X120281000Y-105425000D01*
X120281000Y-107427000D01*
X120281000Y-107427000D01*
G37*
G36*
X127901000Y-107427000D02*
G01*
X126099000Y-107427000D01*
X126099000Y-105425000D01*
X127901000Y-105425000D01*
X127901000Y-107427000D01*
X127901000Y-107427000D01*
G37*
G36*
X125361000Y-107427000D02*
G01*
X123559000Y-107427000D01*
X123559000Y-105425000D01*
X125361000Y-105425000D01*
X125361000Y-107427000D01*
X125361000Y-107427000D01*
G37*
G36*
X122821000Y-107427000D02*
G01*
X121019000Y-107427000D01*
X121019000Y-105425000D01*
X122821000Y-105425000D01*
X122821000Y-107427000D01*
X122821000Y-107427000D01*
G37*
G36*
X117741000Y-107427000D02*
G01*
X115939000Y-107427000D01*
X115939000Y-105425000D01*
X117741000Y-105425000D01*
X117741000Y-107427000D01*
X117741000Y-107427000D01*
G37*
G36*
X141159000Y-107327000D02*
G01*
X139257000Y-107327000D01*
X139257000Y-105525000D01*
X141159000Y-105525000D01*
X141159000Y-107327000D01*
X141159000Y-107327000D01*
G37*
G36*
X99707000Y-105395000D02*
G01*
X97905000Y-105395000D01*
X97905000Y-103393000D01*
X99707000Y-103393000D01*
X99707000Y-105395000D01*
X99707000Y-105395000D01*
G37*
G36*
X147967000Y-105395000D02*
G01*
X146165000Y-105395000D01*
X146165000Y-103393000D01*
X147967000Y-103393000D01*
X147967000Y-105395000D01*
X147967000Y-105395000D01*
G37*
G36*
X106028442Y-103499518D02*
G01*
X106094627Y-103506037D01*
X106264466Y-103557557D01*
X106420991Y-103641222D01*
X106456729Y-103670552D01*
X106558186Y-103753814D01*
X106641448Y-103855271D01*
X106670778Y-103891009D01*
X106754443Y-104047534D01*
X106805963Y-104217373D01*
X106823359Y-104394000D01*
X106805963Y-104570627D01*
X106754443Y-104740466D01*
X106670778Y-104896991D01*
X106641448Y-104932729D01*
X106558186Y-105034186D01*
X106456729Y-105117448D01*
X106420991Y-105146778D01*
X106264466Y-105230443D01*
X106094627Y-105281963D01*
X106028443Y-105288481D01*
X105962260Y-105295000D01*
X105873740Y-105295000D01*
X105807558Y-105288482D01*
X105741373Y-105281963D01*
X105571534Y-105230443D01*
X105415009Y-105146778D01*
X105379271Y-105117448D01*
X105277814Y-105034186D01*
X105194552Y-104932729D01*
X105165222Y-104896991D01*
X105081557Y-104740466D01*
X105030037Y-104570627D01*
X105012641Y-104394000D01*
X105030037Y-104217373D01*
X105081557Y-104047534D01*
X105165222Y-103891009D01*
X105194552Y-103855271D01*
X105277814Y-103753814D01*
X105379271Y-103670552D01*
X105415009Y-103641222D01*
X105571534Y-103557557D01*
X105741373Y-103506037D01*
X105807557Y-103499519D01*
X105873740Y-103493000D01*
X105962260Y-103493000D01*
X106028442Y-103499518D01*
X106028442Y-103499518D01*
G37*
G36*
X108568442Y-103499518D02*
G01*
X108634627Y-103506037D01*
X108804466Y-103557557D01*
X108960991Y-103641222D01*
X108996729Y-103670552D01*
X109098186Y-103753814D01*
X109181448Y-103855271D01*
X109210778Y-103891009D01*
X109294443Y-104047534D01*
X109345963Y-104217373D01*
X109363359Y-104394000D01*
X109345963Y-104570627D01*
X109294443Y-104740466D01*
X109210778Y-104896991D01*
X109181448Y-104932729D01*
X109098186Y-105034186D01*
X108996729Y-105117448D01*
X108960991Y-105146778D01*
X108804466Y-105230443D01*
X108634627Y-105281963D01*
X108568443Y-105288481D01*
X108502260Y-105295000D01*
X108413740Y-105295000D01*
X108347558Y-105288482D01*
X108281373Y-105281963D01*
X108111534Y-105230443D01*
X107955009Y-105146778D01*
X107919271Y-105117448D01*
X107817814Y-105034186D01*
X107734552Y-104932729D01*
X107705222Y-104896991D01*
X107621557Y-104740466D01*
X107570037Y-104570627D01*
X107552641Y-104394000D01*
X107570037Y-104217373D01*
X107621557Y-104047534D01*
X107705222Y-103891009D01*
X107734552Y-103855271D01*
X107817814Y-103753814D01*
X107919271Y-103670552D01*
X107955009Y-103641222D01*
X108111534Y-103557557D01*
X108281373Y-103506037D01*
X108347557Y-103499519D01*
X108413740Y-103493000D01*
X108502260Y-103493000D01*
X108568442Y-103499518D01*
X108568442Y-103499518D01*
G37*
G36*
X115301000Y-104787000D02*
G01*
X113299000Y-104787000D01*
X113299000Y-102985000D01*
X115301000Y-102985000D01*
X115301000Y-104787000D01*
X115301000Y-104787000D01*
G37*
G36*
X141159000Y-104787000D02*
G01*
X139257000Y-104787000D01*
X139257000Y-102985000D01*
X141159000Y-102985000D01*
X141159000Y-104787000D01*
X141159000Y-104787000D01*
G37*
G36*
X99707000Y-102855000D02*
G01*
X97905000Y-102855000D01*
X97905000Y-100853000D01*
X99707000Y-100853000D01*
X99707000Y-102855000D01*
X99707000Y-102855000D01*
G37*
G36*
X147967000Y-102855000D02*
G01*
X146165000Y-102855000D01*
X146165000Y-100853000D01*
X147967000Y-100853000D01*
X147967000Y-102855000D01*
X147967000Y-102855000D01*
G37*
G36*
X108568443Y-100959519D02*
G01*
X108634627Y-100966037D01*
X108804466Y-101017557D01*
X108960991Y-101101222D01*
X108996729Y-101130552D01*
X109098186Y-101213814D01*
X109181448Y-101315271D01*
X109210778Y-101351009D01*
X109294443Y-101507534D01*
X109345963Y-101677373D01*
X109363359Y-101854000D01*
X109345963Y-102030627D01*
X109294443Y-102200466D01*
X109210778Y-102356991D01*
X109181448Y-102392729D01*
X109098186Y-102494186D01*
X108996729Y-102577448D01*
X108960991Y-102606778D01*
X108804466Y-102690443D01*
X108634627Y-102741963D01*
X108568442Y-102748482D01*
X108502260Y-102755000D01*
X108413740Y-102755000D01*
X108347557Y-102748481D01*
X108281373Y-102741963D01*
X108111534Y-102690443D01*
X107955009Y-102606778D01*
X107919271Y-102577448D01*
X107817814Y-102494186D01*
X107734552Y-102392729D01*
X107705222Y-102356991D01*
X107621557Y-102200466D01*
X107570037Y-102030627D01*
X107552641Y-101854000D01*
X107570037Y-101677373D01*
X107621557Y-101507534D01*
X107705222Y-101351009D01*
X107734552Y-101315271D01*
X107817814Y-101213814D01*
X107919271Y-101130552D01*
X107955009Y-101101222D01*
X108111534Y-101017557D01*
X108281373Y-100966037D01*
X108347558Y-100959518D01*
X108413740Y-100953000D01*
X108502260Y-100953000D01*
X108568443Y-100959519D01*
X108568443Y-100959519D01*
G37*
G36*
X106028443Y-100959519D02*
G01*
X106094627Y-100966037D01*
X106264466Y-101017557D01*
X106420991Y-101101222D01*
X106456729Y-101130552D01*
X106558186Y-101213814D01*
X106641448Y-101315271D01*
X106670778Y-101351009D01*
X106754443Y-101507534D01*
X106805963Y-101677373D01*
X106823359Y-101854000D01*
X106805963Y-102030627D01*
X106754443Y-102200466D01*
X106670778Y-102356991D01*
X106641448Y-102392729D01*
X106558186Y-102494186D01*
X106456729Y-102577448D01*
X106420991Y-102606778D01*
X106264466Y-102690443D01*
X106094627Y-102741963D01*
X106028442Y-102748482D01*
X105962260Y-102755000D01*
X105873740Y-102755000D01*
X105807557Y-102748481D01*
X105741373Y-102741963D01*
X105571534Y-102690443D01*
X105415009Y-102606778D01*
X105379271Y-102577448D01*
X105277814Y-102494186D01*
X105194552Y-102392729D01*
X105165222Y-102356991D01*
X105081557Y-102200466D01*
X105030037Y-102030627D01*
X105012641Y-101854000D01*
X105030037Y-101677373D01*
X105081557Y-101507534D01*
X105165222Y-101351009D01*
X105194552Y-101315271D01*
X105277814Y-101213814D01*
X105379271Y-101130552D01*
X105415009Y-101101222D01*
X105571534Y-101017557D01*
X105741373Y-100966037D01*
X105807558Y-100959518D01*
X105873740Y-100953000D01*
X105962260Y-100953000D01*
X106028443Y-100959519D01*
X106028443Y-100959519D01*
G37*
G36*
X115301000Y-102247000D02*
G01*
X113299000Y-102247000D01*
X113299000Y-100445000D01*
X115301000Y-100445000D01*
X115301000Y-102247000D01*
X115301000Y-102247000D01*
G37*
G36*
X147967000Y-100315000D02*
G01*
X146165000Y-100315000D01*
X146165000Y-98313000D01*
X147967000Y-98313000D01*
X147967000Y-100315000D01*
X147967000Y-100315000D01*
G37*
G36*
X99707000Y-100315000D02*
G01*
X97905000Y-100315000D01*
X97905000Y-98313000D01*
X99707000Y-98313000D01*
X99707000Y-100315000D01*
X99707000Y-100315000D01*
G37*
G36*
X106028443Y-98419519D02*
G01*
X106094627Y-98426037D01*
X106264466Y-98477557D01*
X106420991Y-98561222D01*
X106456729Y-98590552D01*
X106558186Y-98673814D01*
X106641448Y-98775271D01*
X106670778Y-98811009D01*
X106754443Y-98967534D01*
X106805963Y-99137373D01*
X106823359Y-99314000D01*
X106805963Y-99490627D01*
X106754443Y-99660466D01*
X106670778Y-99816991D01*
X106641448Y-99852729D01*
X106558186Y-99954186D01*
X106456729Y-100037448D01*
X106420991Y-100066778D01*
X106264466Y-100150443D01*
X106094627Y-100201963D01*
X106028442Y-100208482D01*
X105962260Y-100215000D01*
X105873740Y-100215000D01*
X105807558Y-100208482D01*
X105741373Y-100201963D01*
X105571534Y-100150443D01*
X105415009Y-100066778D01*
X105379271Y-100037448D01*
X105277814Y-99954186D01*
X105194552Y-99852729D01*
X105165222Y-99816991D01*
X105081557Y-99660466D01*
X105030037Y-99490627D01*
X105012641Y-99314000D01*
X105030037Y-99137373D01*
X105081557Y-98967534D01*
X105165222Y-98811009D01*
X105194552Y-98775271D01*
X105277814Y-98673814D01*
X105379271Y-98590552D01*
X105415009Y-98561222D01*
X105571534Y-98477557D01*
X105741373Y-98426037D01*
X105807557Y-98419519D01*
X105873740Y-98413000D01*
X105962260Y-98413000D01*
X106028443Y-98419519D01*
X106028443Y-98419519D01*
G37*
G36*
X108568443Y-98419519D02*
G01*
X108634627Y-98426037D01*
X108804466Y-98477557D01*
X108960991Y-98561222D01*
X108996729Y-98590552D01*
X109098186Y-98673814D01*
X109181448Y-98775271D01*
X109210778Y-98811009D01*
X109294443Y-98967534D01*
X109345963Y-99137373D01*
X109363359Y-99314000D01*
X109345963Y-99490627D01*
X109294443Y-99660466D01*
X109210778Y-99816991D01*
X109181448Y-99852729D01*
X109098186Y-99954186D01*
X108996729Y-100037448D01*
X108960991Y-100066778D01*
X108804466Y-100150443D01*
X108634627Y-100201963D01*
X108568442Y-100208482D01*
X108502260Y-100215000D01*
X108413740Y-100215000D01*
X108347558Y-100208482D01*
X108281373Y-100201963D01*
X108111534Y-100150443D01*
X107955009Y-100066778D01*
X107919271Y-100037448D01*
X107817814Y-99954186D01*
X107734552Y-99852729D01*
X107705222Y-99816991D01*
X107621557Y-99660466D01*
X107570037Y-99490627D01*
X107552641Y-99314000D01*
X107570037Y-99137373D01*
X107621557Y-98967534D01*
X107705222Y-98811009D01*
X107734552Y-98775271D01*
X107817814Y-98673814D01*
X107919271Y-98590552D01*
X107955009Y-98561222D01*
X108111534Y-98477557D01*
X108281373Y-98426037D01*
X108347557Y-98419519D01*
X108413740Y-98413000D01*
X108502260Y-98413000D01*
X108568443Y-98419519D01*
X108568443Y-98419519D01*
G37*
G36*
X143495000Y-97929000D02*
G01*
X141493000Y-97929000D01*
X141493000Y-96127000D01*
X143495000Y-96127000D01*
X143495000Y-97929000D01*
X143495000Y-97929000D01*
G37*
G36*
X147967000Y-97775000D02*
G01*
X146165000Y-97775000D01*
X146165000Y-95773000D01*
X147967000Y-95773000D01*
X147967000Y-97775000D01*
X147967000Y-97775000D01*
G37*
G36*
X99707000Y-97775000D02*
G01*
X97905000Y-97775000D01*
X97905000Y-95773000D01*
X99707000Y-95773000D01*
X99707000Y-97775000D01*
X99707000Y-97775000D01*
G37*
G36*
X106028442Y-95879518D02*
G01*
X106094627Y-95886037D01*
X106264466Y-95937557D01*
X106420991Y-96021222D01*
X106456729Y-96050552D01*
X106558186Y-96133814D01*
X106641448Y-96235271D01*
X106670778Y-96271009D01*
X106754443Y-96427534D01*
X106805963Y-96597373D01*
X106823359Y-96774000D01*
X106805963Y-96950627D01*
X106754443Y-97120466D01*
X106670778Y-97276991D01*
X106641448Y-97312729D01*
X106558186Y-97414186D01*
X106456729Y-97497448D01*
X106420991Y-97526778D01*
X106264466Y-97610443D01*
X106094627Y-97661963D01*
X106028443Y-97668481D01*
X105962260Y-97675000D01*
X105873740Y-97675000D01*
X105807557Y-97668481D01*
X105741373Y-97661963D01*
X105571534Y-97610443D01*
X105415009Y-97526778D01*
X105379271Y-97497448D01*
X105277814Y-97414186D01*
X105194552Y-97312729D01*
X105165222Y-97276991D01*
X105081557Y-97120466D01*
X105030037Y-96950627D01*
X105012641Y-96774000D01*
X105030037Y-96597373D01*
X105081557Y-96427534D01*
X105165222Y-96271009D01*
X105194552Y-96235271D01*
X105277814Y-96133814D01*
X105379271Y-96050552D01*
X105415009Y-96021222D01*
X105571534Y-95937557D01*
X105741373Y-95886037D01*
X105807557Y-95879519D01*
X105873740Y-95873000D01*
X105962260Y-95873000D01*
X106028442Y-95879518D01*
X106028442Y-95879518D01*
G37*
G36*
X108568442Y-95879518D02*
G01*
X108634627Y-95886037D01*
X108804466Y-95937557D01*
X108960991Y-96021222D01*
X108996729Y-96050552D01*
X109098186Y-96133814D01*
X109181448Y-96235271D01*
X109210778Y-96271009D01*
X109294443Y-96427534D01*
X109345963Y-96597373D01*
X109363359Y-96774000D01*
X109345963Y-96950627D01*
X109294443Y-97120466D01*
X109210778Y-97276991D01*
X109181448Y-97312729D01*
X109098186Y-97414186D01*
X108996729Y-97497448D01*
X108960991Y-97526778D01*
X108804466Y-97610443D01*
X108634627Y-97661963D01*
X108568443Y-97668481D01*
X108502260Y-97675000D01*
X108413740Y-97675000D01*
X108347557Y-97668481D01*
X108281373Y-97661963D01*
X108111534Y-97610443D01*
X107955009Y-97526778D01*
X107919271Y-97497448D01*
X107817814Y-97414186D01*
X107734552Y-97312729D01*
X107705222Y-97276991D01*
X107621557Y-97120466D01*
X107570037Y-96950627D01*
X107552641Y-96774000D01*
X107570037Y-96597373D01*
X107621557Y-96427534D01*
X107705222Y-96271009D01*
X107734552Y-96235271D01*
X107817814Y-96133814D01*
X107919271Y-96050552D01*
X107955009Y-96021222D01*
X108111534Y-95937557D01*
X108281373Y-95886037D01*
X108347557Y-95879519D01*
X108413740Y-95873000D01*
X108502260Y-95873000D01*
X108568442Y-95879518D01*
X108568442Y-95879518D01*
G37*
G36*
X143495000Y-95389000D02*
G01*
X141493000Y-95389000D01*
X141493000Y-93587000D01*
X143495000Y-93587000D01*
X143495000Y-95389000D01*
X143495000Y-95389000D01*
G37*
G36*
X99707000Y-95235000D02*
G01*
X97905000Y-95235000D01*
X97905000Y-93233000D01*
X99707000Y-93233000D01*
X99707000Y-95235000D01*
X99707000Y-95235000D01*
G37*
G36*
X147967000Y-95235000D02*
G01*
X146165000Y-95235000D01*
X146165000Y-93233000D01*
X147967000Y-93233000D01*
X147967000Y-95235000D01*
X147967000Y-95235000D01*
G37*
G36*
X108568442Y-93339518D02*
G01*
X108634627Y-93346037D01*
X108804466Y-93397557D01*
X108960991Y-93481222D01*
X108996729Y-93510552D01*
X109098186Y-93593814D01*
X109181448Y-93695271D01*
X109210778Y-93731009D01*
X109294443Y-93887534D01*
X109345963Y-94057373D01*
X109363359Y-94234000D01*
X109345963Y-94410627D01*
X109294443Y-94580466D01*
X109210778Y-94736991D01*
X109181448Y-94772729D01*
X109098186Y-94874186D01*
X108996729Y-94957448D01*
X108960991Y-94986778D01*
X108804466Y-95070443D01*
X108634627Y-95121963D01*
X108568442Y-95128482D01*
X108502260Y-95135000D01*
X108413740Y-95135000D01*
X108347558Y-95128482D01*
X108281373Y-95121963D01*
X108111534Y-95070443D01*
X107955009Y-94986778D01*
X107919271Y-94957448D01*
X107817814Y-94874186D01*
X107734552Y-94772729D01*
X107705222Y-94736991D01*
X107621557Y-94580466D01*
X107570037Y-94410627D01*
X107552641Y-94234000D01*
X107570037Y-94057373D01*
X107621557Y-93887534D01*
X107705222Y-93731009D01*
X107734552Y-93695271D01*
X107817814Y-93593814D01*
X107919271Y-93510552D01*
X107955009Y-93481222D01*
X108111534Y-93397557D01*
X108281373Y-93346037D01*
X108347558Y-93339518D01*
X108413740Y-93333000D01*
X108502260Y-93333000D01*
X108568442Y-93339518D01*
X108568442Y-93339518D01*
G37*
G36*
X106819000Y-95135000D02*
G01*
X105017000Y-95135000D01*
X105017000Y-93333000D01*
X106819000Y-93333000D01*
X106819000Y-95135000D01*
X106819000Y-95135000D01*
G37*
G36*
X143495000Y-92849000D02*
G01*
X141493000Y-92849000D01*
X141493000Y-91047000D01*
X143495000Y-91047000D01*
X143495000Y-92849000D01*
X143495000Y-92849000D01*
G37*
G36*
X147967000Y-92695000D02*
G01*
X146165000Y-92695000D01*
X146165000Y-90693000D01*
X147967000Y-90693000D01*
X147967000Y-92695000D01*
X147967000Y-92695000D01*
G37*
G36*
X99707000Y-92695000D02*
G01*
X97905000Y-92695000D01*
X97905000Y-90693000D01*
X99707000Y-90693000D01*
X99707000Y-92695000D01*
X99707000Y-92695000D01*
G37*
G36*
X143495000Y-90309000D02*
G01*
X141493000Y-90309000D01*
X141493000Y-88507000D01*
X143495000Y-88507000D01*
X143495000Y-90309000D01*
X143495000Y-90309000D01*
G37*
G36*
X147967000Y-90155000D02*
G01*
X146165000Y-90155000D01*
X146165000Y-88153000D01*
X147967000Y-88153000D01*
X147967000Y-90155000D01*
X147967000Y-90155000D01*
G37*
G36*
X147967000Y-87615000D02*
G01*
X146165000Y-87615000D01*
X146165000Y-85613000D01*
X147967000Y-85613000D01*
X147967000Y-87615000D01*
X147967000Y-87615000D01*
G37*
G36*
X98985294Y-85712633D02*
G01*
X99157695Y-85764931D01*
X99316583Y-85849858D01*
X99455849Y-85964151D01*
X99570142Y-86103417D01*
X99655069Y-86262305D01*
X99707367Y-86434706D01*
X99725025Y-86614000D01*
X99707367Y-86793294D01*
X99655069Y-86965695D01*
X99570142Y-87124583D01*
X99455849Y-87263849D01*
X99316583Y-87378142D01*
X99157695Y-87463069D01*
X98985294Y-87515367D01*
X98850931Y-87528600D01*
X98761069Y-87528600D01*
X98626706Y-87515367D01*
X98454305Y-87463069D01*
X98295417Y-87378142D01*
X98156151Y-87263849D01*
X98041858Y-87124583D01*
X97956931Y-86965695D01*
X97904633Y-86793294D01*
X97886975Y-86614000D01*
X97904633Y-86434706D01*
X97956931Y-86262305D01*
X98041858Y-86103417D01*
X98156151Y-85964151D01*
X98295417Y-85849858D01*
X98454305Y-85764931D01*
X98626706Y-85712633D01*
X98761069Y-85699400D01*
X98850931Y-85699400D01*
X98985294Y-85712633D01*
X98985294Y-85712633D01*
G37*
G36*
X123937000Y-86499000D02*
G01*
X121935000Y-86499000D01*
X121935000Y-84697000D01*
X123937000Y-84697000D01*
X123937000Y-86499000D01*
X123937000Y-86499000D01*
G37*
G36*
X143495000Y-85991000D02*
G01*
X141493000Y-85991000D01*
X141493000Y-84189000D01*
X143495000Y-84189000D01*
X143495000Y-85991000D01*
X143495000Y-85991000D01*
G37*
G36*
X98985294Y-83172633D02*
G01*
X99157695Y-83224931D01*
X99316583Y-83309858D01*
X99455849Y-83424151D01*
X99570142Y-83563417D01*
X99655069Y-83722305D01*
X99707367Y-83894706D01*
X99725025Y-84074000D01*
X99707367Y-84253294D01*
X99655069Y-84425695D01*
X99570142Y-84584583D01*
X99455849Y-84723849D01*
X99316583Y-84838142D01*
X99157695Y-84923069D01*
X98985294Y-84975367D01*
X98850931Y-84988600D01*
X98761069Y-84988600D01*
X98626706Y-84975367D01*
X98454305Y-84923069D01*
X98295417Y-84838142D01*
X98156151Y-84723849D01*
X98041858Y-84584583D01*
X97956931Y-84425695D01*
X97904633Y-84253294D01*
X97886975Y-84074000D01*
X97904633Y-83894706D01*
X97956931Y-83722305D01*
X98041858Y-83563417D01*
X98156151Y-83424151D01*
X98295417Y-83309858D01*
X98454305Y-83224931D01*
X98626706Y-83172633D01*
X98761069Y-83159400D01*
X98850931Y-83159400D01*
X98985294Y-83172633D01*
X98985294Y-83172633D01*
G37*
G36*
X123937000Y-83959000D02*
G01*
X121935000Y-83959000D01*
X121935000Y-82157000D01*
X123937000Y-82157000D01*
X123937000Y-83959000D01*
X123937000Y-83959000D01*
G37*
G36*
X147967000Y-83551000D02*
G01*
X146165000Y-83551000D01*
X146165000Y-81549000D01*
X147967000Y-81549000D01*
X147967000Y-83551000D01*
X147967000Y-83551000D01*
G37*
G36*
X143495000Y-83451000D02*
G01*
X141493000Y-83451000D01*
X141493000Y-81649000D01*
X143495000Y-81649000D01*
X143495000Y-83451000D01*
X143495000Y-83451000D01*
G37*
G36*
X98985294Y-80632633D02*
G01*
X99157695Y-80684931D01*
X99316583Y-80769858D01*
X99455849Y-80884151D01*
X99570142Y-81023417D01*
X99655069Y-81182305D01*
X99707367Y-81354706D01*
X99725025Y-81534000D01*
X99707367Y-81713294D01*
X99655069Y-81885695D01*
X99570142Y-82044583D01*
X99455849Y-82183849D01*
X99316583Y-82298142D01*
X99157695Y-82383069D01*
X98985294Y-82435367D01*
X98850931Y-82448600D01*
X98761069Y-82448600D01*
X98626706Y-82435367D01*
X98454305Y-82383069D01*
X98295417Y-82298142D01*
X98156151Y-82183849D01*
X98041858Y-82044583D01*
X97956931Y-81885695D01*
X97904633Y-81713294D01*
X97886975Y-81534000D01*
X97904633Y-81354706D01*
X97956931Y-81182305D01*
X98041858Y-81023417D01*
X98156151Y-80884151D01*
X98295417Y-80769858D01*
X98454305Y-80684931D01*
X98626706Y-80632633D01*
X98761069Y-80619400D01*
X98850931Y-80619400D01*
X98985294Y-80632633D01*
X98985294Y-80632633D01*
G37*
G36*
X123937000Y-81419000D02*
G01*
X121935000Y-81419000D01*
X121935000Y-79617000D01*
X123937000Y-79617000D01*
X123937000Y-81419000D01*
X123937000Y-81419000D01*
G37*
G36*
X147967000Y-81011000D02*
G01*
X146165000Y-81011000D01*
X146165000Y-79009000D01*
X147967000Y-79009000D01*
X147967000Y-81011000D01*
X147967000Y-81011000D01*
G37*
G36*
X143495000Y-80911000D02*
G01*
X141493000Y-80911000D01*
X141493000Y-79109000D01*
X143495000Y-79109000D01*
X143495000Y-80911000D01*
X143495000Y-80911000D01*
G37*
G36*
X98985294Y-78092633D02*
G01*
X99157695Y-78144931D01*
X99316583Y-78229858D01*
X99455849Y-78344151D01*
X99570142Y-78483417D01*
X99655069Y-78642305D01*
X99707367Y-78814706D01*
X99725025Y-78994000D01*
X99707367Y-79173294D01*
X99655069Y-79345695D01*
X99570142Y-79504583D01*
X99455849Y-79643849D01*
X99316583Y-79758142D01*
X99157695Y-79843069D01*
X98985294Y-79895367D01*
X98850931Y-79908600D01*
X98761069Y-79908600D01*
X98626706Y-79895367D01*
X98454305Y-79843069D01*
X98295417Y-79758142D01*
X98156151Y-79643849D01*
X98041858Y-79504583D01*
X97956931Y-79345695D01*
X97904633Y-79173294D01*
X97886975Y-78994000D01*
X97904633Y-78814706D01*
X97956931Y-78642305D01*
X98041858Y-78483417D01*
X98156151Y-78344151D01*
X98295417Y-78229858D01*
X98454305Y-78144931D01*
X98626706Y-78092633D01*
X98761069Y-78079400D01*
X98850931Y-78079400D01*
X98985294Y-78092633D01*
X98985294Y-78092633D01*
G37*
G36*
X123937000Y-78879000D02*
G01*
X121935000Y-78879000D01*
X121935000Y-77077000D01*
X123937000Y-77077000D01*
X123937000Y-78879000D01*
X123937000Y-78879000D01*
G37*
G36*
X147967000Y-78471000D02*
G01*
X146165000Y-78471000D01*
X146165000Y-76469000D01*
X147967000Y-76469000D01*
X147967000Y-78471000D01*
X147967000Y-78471000D01*
G37*
G36*
X143495000Y-78371000D02*
G01*
X141493000Y-78371000D01*
X141493000Y-76569000D01*
X143495000Y-76569000D01*
X143495000Y-78371000D01*
X143495000Y-78371000D01*
G37*
G36*
X98985294Y-75552633D02*
G01*
X99157695Y-75604931D01*
X99316583Y-75689858D01*
X99455849Y-75804151D01*
X99570142Y-75943417D01*
X99655069Y-76102305D01*
X99707367Y-76274706D01*
X99725025Y-76454000D01*
X99707367Y-76633294D01*
X99655069Y-76805695D01*
X99570142Y-76964583D01*
X99455849Y-77103849D01*
X99316583Y-77218142D01*
X99157695Y-77303069D01*
X98985294Y-77355367D01*
X98850931Y-77368600D01*
X98761069Y-77368600D01*
X98626706Y-77355367D01*
X98454305Y-77303069D01*
X98295417Y-77218142D01*
X98156151Y-77103849D01*
X98041858Y-76964583D01*
X97956931Y-76805695D01*
X97904633Y-76633294D01*
X97886975Y-76454000D01*
X97904633Y-76274706D01*
X97956931Y-76102305D01*
X98041858Y-75943417D01*
X98156151Y-75804151D01*
X98295417Y-75689858D01*
X98454305Y-75604931D01*
X98626706Y-75552633D01*
X98761069Y-75539400D01*
X98850931Y-75539400D01*
X98985294Y-75552633D01*
X98985294Y-75552633D01*
G37*
G36*
X123937000Y-76339000D02*
G01*
X121935000Y-76339000D01*
X121935000Y-74537000D01*
X123937000Y-74537000D01*
X123937000Y-76339000D01*
X123937000Y-76339000D01*
G37*
G36*
X147967000Y-75931000D02*
G01*
X146165000Y-75931000D01*
X146165000Y-73929000D01*
X147967000Y-73929000D01*
X147967000Y-75931000D01*
X147967000Y-75931000D01*
G37*
G36*
X98985294Y-73012633D02*
G01*
X99157695Y-73064931D01*
X99316583Y-73149858D01*
X99455849Y-73264151D01*
X99570142Y-73403417D01*
X99655069Y-73562305D01*
X99707367Y-73734706D01*
X99725025Y-73914000D01*
X99707367Y-74093294D01*
X99655069Y-74265695D01*
X99570142Y-74424583D01*
X99455849Y-74563849D01*
X99316583Y-74678142D01*
X99157695Y-74763069D01*
X98985294Y-74815367D01*
X98850931Y-74828600D01*
X98761069Y-74828600D01*
X98626706Y-74815367D01*
X98454305Y-74763069D01*
X98295417Y-74678142D01*
X98156151Y-74563849D01*
X98041858Y-74424583D01*
X97956931Y-74265695D01*
X97904633Y-74093294D01*
X97886975Y-73914000D01*
X97904633Y-73734706D01*
X97956931Y-73562305D01*
X98041858Y-73403417D01*
X98156151Y-73264151D01*
X98295417Y-73149858D01*
X98454305Y-73064931D01*
X98626706Y-73012633D01*
X98761069Y-72999400D01*
X98850931Y-72999400D01*
X98985294Y-73012633D01*
X98985294Y-73012633D01*
G37*
G36*
X143495000Y-74053000D02*
G01*
X141493000Y-74053000D01*
X141493000Y-72251000D01*
X143495000Y-72251000D01*
X143495000Y-74053000D01*
X143495000Y-74053000D01*
G37*
G36*
X123053818Y-72305696D02*
G01*
X123167105Y-72340062D01*
X123271512Y-72395869D01*
X123363027Y-72470973D01*
X123438131Y-72562488D01*
X123493938Y-72666895D01*
X123528304Y-72780182D01*
X123539907Y-72898000D01*
X123528304Y-73015818D01*
X123493938Y-73129105D01*
X123438131Y-73233512D01*
X123363027Y-73325027D01*
X123271512Y-73400131D01*
X123167105Y-73455938D01*
X123053818Y-73490304D01*
X122965519Y-73499000D01*
X122906481Y-73499000D01*
X122818182Y-73490304D01*
X122704895Y-73455938D01*
X122600488Y-73400131D01*
X122508973Y-73325027D01*
X122433869Y-73233512D01*
X122378062Y-73129105D01*
X122343696Y-73015818D01*
X122332093Y-72898000D01*
X122343696Y-72780182D01*
X122378062Y-72666895D01*
X122433869Y-72562488D01*
X122508973Y-72470973D01*
X122600488Y-72395869D01*
X122704895Y-72340062D01*
X122818182Y-72305696D01*
X122906481Y-72297000D01*
X122965519Y-72297000D01*
X123053818Y-72305696D01*
X123053818Y-72305696D01*
G37*
G36*
X147967000Y-73391000D02*
G01*
X146165000Y-73391000D01*
X146165000Y-71389000D01*
X147967000Y-71389000D01*
X147967000Y-73391000D01*
X147967000Y-73391000D01*
G37*
G36*
X98985294Y-70472633D02*
G01*
X99157695Y-70524931D01*
X99316583Y-70609858D01*
X99455849Y-70724151D01*
X99570142Y-70863417D01*
X99655069Y-71022305D01*
X99707367Y-71194706D01*
X99725025Y-71374000D01*
X99707367Y-71553294D01*
X99655069Y-71725695D01*
X99570142Y-71884583D01*
X99455849Y-72023849D01*
X99316583Y-72138142D01*
X99157695Y-72223069D01*
X98985294Y-72275367D01*
X98850931Y-72288600D01*
X98761069Y-72288600D01*
X98626706Y-72275367D01*
X98454305Y-72223069D01*
X98295417Y-72138142D01*
X98156151Y-72023849D01*
X98041858Y-71884583D01*
X97956931Y-71725695D01*
X97904633Y-71553294D01*
X97886975Y-71374000D01*
X97904633Y-71194706D01*
X97956931Y-71022305D01*
X98041858Y-70863417D01*
X98156151Y-70724151D01*
X98295417Y-70609858D01*
X98454305Y-70524931D01*
X98626706Y-70472633D01*
X98761069Y-70459400D01*
X98850931Y-70459400D01*
X98985294Y-70472633D01*
X98985294Y-70472633D01*
G37*
G36*
X143495000Y-71513000D02*
G01*
X141493000Y-71513000D01*
X141493000Y-69711000D01*
X143495000Y-69711000D01*
X143495000Y-71513000D01*
X143495000Y-71513000D01*
G37*
G36*
X122999855Y-69710140D02*
G01*
X123063618Y-69716420D01*
X123154404Y-69743960D01*
X123186336Y-69753646D01*
X123299425Y-69814094D01*
X123398554Y-69895446D01*
X123479906Y-69994575D01*
X123540354Y-70107664D01*
X123540355Y-70107668D01*
X123577580Y-70230382D01*
X123590149Y-70358000D01*
X123577580Y-70485618D01*
X123565654Y-70524931D01*
X123540354Y-70608336D01*
X123479906Y-70721425D01*
X123398554Y-70820554D01*
X123299425Y-70901906D01*
X123186336Y-70962354D01*
X123154404Y-70972040D01*
X123063618Y-70999580D01*
X122999855Y-71005860D01*
X122967974Y-71009000D01*
X122904026Y-71009000D01*
X122872145Y-71005860D01*
X122808382Y-70999580D01*
X122717596Y-70972040D01*
X122685664Y-70962354D01*
X122572575Y-70901906D01*
X122473446Y-70820554D01*
X122392094Y-70721425D01*
X122331646Y-70608336D01*
X122306346Y-70524931D01*
X122294420Y-70485618D01*
X122281851Y-70358000D01*
X122294420Y-70230382D01*
X122331645Y-70107668D01*
X122331646Y-70107664D01*
X122392094Y-69994575D01*
X122473446Y-69895446D01*
X122572575Y-69814094D01*
X122685664Y-69753646D01*
X122717596Y-69743960D01*
X122808382Y-69716420D01*
X122872145Y-69710140D01*
X122904026Y-69707000D01*
X122967974Y-69707000D01*
X122999855Y-69710140D01*
X122999855Y-69710140D01*
G37*
G36*
X147967000Y-70851000D02*
G01*
X146165000Y-70851000D01*
X146165000Y-68849000D01*
X147967000Y-68849000D01*
X147967000Y-70851000D01*
X147967000Y-70851000D01*
G37*
G36*
X98985294Y-67932633D02*
G01*
X99157695Y-67984931D01*
X99316583Y-68069858D01*
X99455849Y-68184151D01*
X99570142Y-68323417D01*
X99655069Y-68482305D01*
X99707367Y-68654706D01*
X99725025Y-68834000D01*
X99707367Y-69013294D01*
X99655069Y-69185695D01*
X99570142Y-69344583D01*
X99455849Y-69483849D01*
X99316583Y-69598142D01*
X99157695Y-69683069D01*
X98985294Y-69735367D01*
X98850931Y-69748600D01*
X98761069Y-69748600D01*
X98626706Y-69735367D01*
X98454305Y-69683069D01*
X98295417Y-69598142D01*
X98156151Y-69483849D01*
X98041858Y-69344583D01*
X97956931Y-69185695D01*
X97904633Y-69013294D01*
X97886975Y-68834000D01*
X97904633Y-68654706D01*
X97956931Y-68482305D01*
X98041858Y-68323417D01*
X98156151Y-68184151D01*
X98295417Y-68069858D01*
X98454305Y-67984931D01*
X98626706Y-67932633D01*
X98761069Y-67919400D01*
X98850931Y-67919400D01*
X98985294Y-67932633D01*
X98985294Y-67932633D01*
G37*
G36*
X143495000Y-68973000D02*
G01*
X141493000Y-68973000D01*
X141493000Y-67171000D01*
X143495000Y-67171000D01*
X143495000Y-68973000D01*
X143495000Y-68973000D01*
G37*
G36*
X123837000Y-68569000D02*
G01*
X122035000Y-68569000D01*
X122035000Y-67067000D01*
X123837000Y-67067000D01*
X123837000Y-68569000D01*
X123837000Y-68569000D01*
G37*
G36*
X147967000Y-68311000D02*
G01*
X146165000Y-68311000D01*
X146165000Y-66309000D01*
X147967000Y-66309000D01*
X147967000Y-68311000D01*
X147967000Y-68311000D01*
G37*
G36*
X143495000Y-66433000D02*
G01*
X141493000Y-66433000D01*
X141493000Y-64631000D01*
X143495000Y-64631000D01*
X143495000Y-66433000D01*
X143495000Y-66433000D01*
G37*
G36*
X147967000Y-65771000D02*
G01*
X146165000Y-65771000D01*
X146165000Y-63769000D01*
X147967000Y-63769000D01*
X147967000Y-65771000D01*
X147967000Y-65771000D01*
G37*
G36*
X116323239Y-62013101D02*
G01*
X116559053Y-62084634D01*
X116776381Y-62200799D01*
X116966871Y-62357129D01*
X117123201Y-62547619D01*
X117239366Y-62764947D01*
X117310899Y-63000761D01*
X117335053Y-63246000D01*
X117310899Y-63491239D01*
X117239366Y-63727053D01*
X117123201Y-63944381D01*
X116966871Y-64134871D01*
X116776381Y-64291201D01*
X116559053Y-64407366D01*
X116323239Y-64478899D01*
X116139457Y-64497000D01*
X116016543Y-64497000D01*
X115832761Y-64478899D01*
X115596947Y-64407366D01*
X115379619Y-64291201D01*
X115189129Y-64134871D01*
X115032799Y-63944381D01*
X114916634Y-63727053D01*
X114845101Y-63491239D01*
X114820947Y-63246000D01*
X114845101Y-63000761D01*
X114916634Y-62764947D01*
X115032799Y-62547619D01*
X115189129Y-62357129D01*
X115379619Y-62200799D01*
X115596947Y-62084634D01*
X115832761Y-62013101D01*
X116016543Y-61995000D01*
X116139457Y-61995000D01*
X116323239Y-62013101D01*
X116323239Y-62013101D01*
G37*
G36*
X109465239Y-62013101D02*
G01*
X109701053Y-62084634D01*
X109918381Y-62200799D01*
X110108871Y-62357129D01*
X110265201Y-62547619D01*
X110381366Y-62764947D01*
X110452899Y-63000761D01*
X110477053Y-63246000D01*
X110452899Y-63491239D01*
X110381366Y-63727053D01*
X110265201Y-63944381D01*
X110108871Y-64134871D01*
X109918381Y-64291201D01*
X109701053Y-64407366D01*
X109465239Y-64478899D01*
X109281457Y-64497000D01*
X109158543Y-64497000D01*
X108974761Y-64478899D01*
X108738947Y-64407366D01*
X108521619Y-64291201D01*
X108331129Y-64134871D01*
X108174799Y-63944381D01*
X108058634Y-63727053D01*
X107987101Y-63491239D01*
X107962947Y-63246000D01*
X107987101Y-63000761D01*
X108058634Y-62764947D01*
X108174799Y-62547619D01*
X108331129Y-62357129D01*
X108521619Y-62200799D01*
X108738947Y-62084634D01*
X108974761Y-62013101D01*
X109158543Y-61995000D01*
X109281457Y-61995000D01*
X109465239Y-62013101D01*
X109465239Y-62013101D01*
G37*
G36*
X143495000Y-63893000D02*
G01*
X141493000Y-63893000D01*
X141493000Y-62091000D01*
X143495000Y-62091000D01*
X143495000Y-63893000D01*
X143495000Y-63893000D01*
G37*
G36*
X147967000Y-63231000D02*
G01*
X146165000Y-63231000D01*
X146165000Y-61229000D01*
X147967000Y-61229000D01*
X147967000Y-63231000D01*
X147967000Y-63231000D01*
G37*
G36*
X123379000Y-62165000D02*
G01*
X121477000Y-62165000D01*
X121477000Y-60263000D01*
X123379000Y-60263000D01*
X123379000Y-62165000D01*
X123379000Y-62165000D01*
G37*
G36*
X125245395Y-60299546D02*
G01*
X125418466Y-60371234D01*
X125418467Y-60371235D01*
X125574227Y-60475310D01*
X125706690Y-60607773D01*
X125706691Y-60607775D01*
X125810766Y-60763534D01*
X125882454Y-60936605D01*
X125919000Y-61120333D01*
X125919000Y-61307667D01*
X125882454Y-61491395D01*
X125810766Y-61664466D01*
X125810765Y-61664467D01*
X125706690Y-61820227D01*
X125574227Y-61952690D01*
X125510905Y-61995000D01*
X125418466Y-62056766D01*
X125245395Y-62128454D01*
X125061667Y-62165000D01*
X124874333Y-62165000D01*
X124690605Y-62128454D01*
X124517534Y-62056766D01*
X124425095Y-61995000D01*
X124361773Y-61952690D01*
X124229310Y-61820227D01*
X124125235Y-61664467D01*
X124125234Y-61664466D01*
X124053546Y-61491395D01*
X124017000Y-61307667D01*
X124017000Y-61120333D01*
X124053546Y-60936605D01*
X124125234Y-60763534D01*
X124229309Y-60607775D01*
X124229310Y-60607773D01*
X124361773Y-60475310D01*
X124517533Y-60371235D01*
X124517534Y-60371234D01*
X124690605Y-60299546D01*
X124874333Y-60263000D01*
X125061667Y-60263000D01*
X125245395Y-60299546D01*
X125245395Y-60299546D01*
G37*
G36*
X147967000Y-60691000D02*
G01*
X146165000Y-60691000D01*
X146165000Y-58689000D01*
X147967000Y-58689000D01*
X147967000Y-60691000D01*
X147967000Y-60691000D01*
G37*
G36*
X116442903Y-56963075D02*
G01*
X116670571Y-57057378D01*
X116875466Y-57194285D01*
X117049715Y-57368534D01*
X117186622Y-57573429D01*
X117280925Y-57801097D01*
X117329000Y-58042787D01*
X117329000Y-58289213D01*
X117280925Y-58530903D01*
X117186622Y-58758571D01*
X117049715Y-58963466D01*
X116875466Y-59137715D01*
X116670571Y-59274622D01*
X116670570Y-59274623D01*
X116670569Y-59274623D01*
X116442903Y-59368925D01*
X116201214Y-59417000D01*
X115954786Y-59417000D01*
X115713097Y-59368925D01*
X115485431Y-59274623D01*
X115485430Y-59274623D01*
X115485429Y-59274622D01*
X115280534Y-59137715D01*
X115106285Y-58963466D01*
X114969378Y-58758571D01*
X114875075Y-58530903D01*
X114827000Y-58289213D01*
X114827000Y-58042787D01*
X114875075Y-57801097D01*
X114969378Y-57573429D01*
X115106285Y-57368534D01*
X115280534Y-57194285D01*
X115485429Y-57057378D01*
X115713097Y-56963075D01*
X115954786Y-56915000D01*
X116201214Y-56915000D01*
X116442903Y-56963075D01*
X116442903Y-56963075D01*
G37*
G36*
X109584903Y-56963075D02*
G01*
X109812571Y-57057378D01*
X110017466Y-57194285D01*
X110191715Y-57368534D01*
X110328622Y-57573429D01*
X110422925Y-57801097D01*
X110471000Y-58042787D01*
X110471000Y-58289213D01*
X110422925Y-58530903D01*
X110328622Y-58758571D01*
X110191715Y-58963466D01*
X110017466Y-59137715D01*
X109812571Y-59274622D01*
X109812570Y-59274623D01*
X109812569Y-59274623D01*
X109584903Y-59368925D01*
X109343214Y-59417000D01*
X109096786Y-59417000D01*
X108855097Y-59368925D01*
X108627431Y-59274623D01*
X108627430Y-59274623D01*
X108627429Y-59274622D01*
X108422534Y-59137715D01*
X108248285Y-58963466D01*
X108111378Y-58758571D01*
X108017075Y-58530903D01*
X107969000Y-58289213D01*
X107969000Y-58042787D01*
X108017075Y-57801097D01*
X108111378Y-57573429D01*
X108248285Y-57368534D01*
X108422534Y-57194285D01*
X108627429Y-57057378D01*
X108855097Y-56963075D01*
X109096786Y-56915000D01*
X109343214Y-56915000D01*
X109584903Y-56963075D01*
X109584903Y-56963075D01*
G37*
G36*
X103159000Y-58709000D02*
G01*
X101057000Y-58709000D01*
X101057000Y-56607000D01*
X103159000Y-56607000D01*
X103159000Y-58709000D01*
X103159000Y-58709000D01*
G37*
G36*
X135113000Y-56273000D02*
G01*
X133111000Y-56273000D01*
X133111000Y-54471000D01*
X135113000Y-54471000D01*
X135113000Y-56273000D01*
X135113000Y-56273000D01*
G37*
G36*
X132573000Y-56273000D02*
G01*
X130571000Y-56273000D01*
X130571000Y-54471000D01*
X132573000Y-54471000D01*
X132573000Y-56273000D01*
X132573000Y-56273000D01*
G37*
G36*
X140701000Y-56273000D02*
G01*
X138699000Y-56273000D01*
X138699000Y-54471000D01*
X140701000Y-54471000D01*
X140701000Y-56273000D01*
X140701000Y-56273000D01*
G37*
G36*
X143241000Y-56273000D02*
G01*
X141239000Y-56273000D01*
X141239000Y-54471000D01*
X143241000Y-54471000D01*
X143241000Y-56273000D01*
X143241000Y-56273000D01*
G37*
G36*
X103159000Y-56169000D02*
G01*
X101057000Y-56169000D01*
X101057000Y-54067000D01*
X103159000Y-54067000D01*
X103159000Y-56169000D01*
X103159000Y-56169000D01*
G37*
G36*
X123379000Y-53783000D02*
G01*
X121477000Y-53783000D01*
X121477000Y-51881000D01*
X123379000Y-51881000D01*
X123379000Y-53783000D01*
X123379000Y-53783000D01*
G37*
G36*
X125245395Y-51917546D02*
G01*
X125418466Y-51989234D01*
X125418467Y-51989235D01*
X125574227Y-52093310D01*
X125706690Y-52225773D01*
X125706691Y-52225775D01*
X125810766Y-52381534D01*
X125882454Y-52554605D01*
X125919000Y-52738333D01*
X125919000Y-52925667D01*
X125882454Y-53109395D01*
X125810766Y-53282466D01*
X125786985Y-53318056D01*
X125706690Y-53438227D01*
X125574227Y-53570690D01*
X125495818Y-53623081D01*
X125418466Y-53674766D01*
X125245395Y-53746454D01*
X125061667Y-53783000D01*
X124874333Y-53783000D01*
X124690605Y-53746454D01*
X124517534Y-53674766D01*
X124440182Y-53623081D01*
X124361773Y-53570690D01*
X124229310Y-53438227D01*
X124149015Y-53318056D01*
X124125234Y-53282466D01*
X124053546Y-53109395D01*
X124017000Y-52925667D01*
X124017000Y-52738333D01*
X124053546Y-52554605D01*
X124125234Y-52381534D01*
X124229309Y-52225775D01*
X124229310Y-52225773D01*
X124361773Y-52093310D01*
X124517533Y-51989235D01*
X124517534Y-51989234D01*
X124690605Y-51917546D01*
X124874333Y-51881000D01*
X125061667Y-51881000D01*
X125245395Y-51917546D01*
X125245395Y-51917546D01*
G37*
G36*
X115529890Y-52460017D02*
G01*
X115648364Y-52509091D01*
X115754988Y-52580335D01*
X115845665Y-52671012D01*
X115890648Y-52738333D01*
X115916910Y-52777638D01*
X115948517Y-52853944D01*
X115960068Y-52875555D01*
X115975613Y-52894497D01*
X115994555Y-52910042D01*
X116016166Y-52921593D01*
X116039615Y-52928706D01*
X116064001Y-52931108D01*
X116088387Y-52928706D01*
X116111836Y-52921593D01*
X116133447Y-52910042D01*
X116152389Y-52894497D01*
X116167934Y-52875555D01*
X116179485Y-52853944D01*
X116186598Y-52830495D01*
X116189000Y-52806109D01*
X116189000Y-52435000D01*
X117491000Y-52435000D01*
X117491000Y-53737000D01*
X116189000Y-53737000D01*
X116189000Y-53365891D01*
X116186598Y-53341505D01*
X116179485Y-53318056D01*
X116167934Y-53296445D01*
X116152389Y-53277503D01*
X116133447Y-53261958D01*
X116111836Y-53250407D01*
X116088387Y-53243294D01*
X116064001Y-53240892D01*
X116039615Y-53243294D01*
X116016166Y-53250407D01*
X115994555Y-53261958D01*
X115975613Y-53277503D01*
X115960068Y-53296445D01*
X115948517Y-53318055D01*
X115916909Y-53394364D01*
X115845665Y-53500988D01*
X115754988Y-53591665D01*
X115648364Y-53662909D01*
X115648363Y-53662910D01*
X115648362Y-53662910D01*
X115529890Y-53711983D01*
X115404119Y-53737000D01*
X115275881Y-53737000D01*
X115150110Y-53711983D01*
X115031638Y-53662910D01*
X115031637Y-53662910D01*
X115031636Y-53662909D01*
X114925012Y-53591665D01*
X114834335Y-53500988D01*
X114763091Y-53394364D01*
X114714017Y-53275890D01*
X114689000Y-53150118D01*
X114689000Y-53021882D01*
X114714017Y-52896110D01*
X114763091Y-52777636D01*
X114834335Y-52671012D01*
X114925012Y-52580335D01*
X115031636Y-52509091D01*
X115150110Y-52460017D01*
X115275881Y-52435000D01*
X115404119Y-52435000D01*
X115529890Y-52460017D01*
X115529890Y-52460017D01*
G37*
G36*
X108671890Y-52460017D02*
G01*
X108790364Y-52509091D01*
X108896988Y-52580335D01*
X108987665Y-52671012D01*
X109032648Y-52738333D01*
X109058910Y-52777638D01*
X109090517Y-52853944D01*
X109102068Y-52875555D01*
X109117613Y-52894497D01*
X109136555Y-52910042D01*
X109158166Y-52921593D01*
X109181615Y-52928706D01*
X109206001Y-52931108D01*
X109230387Y-52928706D01*
X109253836Y-52921593D01*
X109275447Y-52910042D01*
X109294389Y-52894497D01*
X109309934Y-52875555D01*
X109321485Y-52853944D01*
X109328598Y-52830495D01*
X109331000Y-52806109D01*
X109331000Y-52435000D01*
X110633000Y-52435000D01*
X110633000Y-53737000D01*
X109331000Y-53737000D01*
X109331000Y-53365891D01*
X109328598Y-53341505D01*
X109321485Y-53318056D01*
X109309934Y-53296445D01*
X109294389Y-53277503D01*
X109275447Y-53261958D01*
X109253836Y-53250407D01*
X109230387Y-53243294D01*
X109206001Y-53240892D01*
X109181615Y-53243294D01*
X109158166Y-53250407D01*
X109136555Y-53261958D01*
X109117613Y-53277503D01*
X109102068Y-53296445D01*
X109090517Y-53318055D01*
X109058909Y-53394364D01*
X108987665Y-53500988D01*
X108896988Y-53591665D01*
X108790364Y-53662909D01*
X108790363Y-53662910D01*
X108790362Y-53662910D01*
X108671890Y-53711983D01*
X108546119Y-53737000D01*
X108417881Y-53737000D01*
X108292110Y-53711983D01*
X108173638Y-53662910D01*
X108173637Y-53662910D01*
X108173636Y-53662909D01*
X108067012Y-53591665D01*
X107976335Y-53500988D01*
X107905091Y-53394364D01*
X107856017Y-53275890D01*
X107831000Y-53150118D01*
X107831000Y-53021882D01*
X107856017Y-52896110D01*
X107905091Y-52777636D01*
X107976335Y-52671012D01*
X108067012Y-52580335D01*
X108173636Y-52509091D01*
X108292110Y-52460017D01*
X108417881Y-52435000D01*
X108546119Y-52435000D01*
X108671890Y-52460017D01*
X108671890Y-52460017D01*
G37*
G36*
X132573000Y-53733000D02*
G01*
X130571000Y-53733000D01*
X130571000Y-51931000D01*
X132573000Y-51931000D01*
X132573000Y-53733000D01*
X132573000Y-53733000D01*
G37*
G36*
X135113000Y-53733000D02*
G01*
X133111000Y-53733000D01*
X133111000Y-51931000D01*
X135113000Y-51931000D01*
X135113000Y-53733000D01*
X135113000Y-53733000D01*
G37*
G36*
X143241000Y-53733000D02*
G01*
X141239000Y-53733000D01*
X141239000Y-51931000D01*
X143241000Y-51931000D01*
X143241000Y-53733000D01*
X143241000Y-53733000D01*
G37*
G36*
X140701000Y-53733000D02*
G01*
X138699000Y-53733000D01*
X138699000Y-51931000D01*
X140701000Y-51931000D01*
X140701000Y-53733000D01*
X140701000Y-53733000D01*
G37*
G36*
X103159000Y-53629000D02*
G01*
X101057000Y-53629000D01*
X101057000Y-51527000D01*
X103159000Y-51527000D01*
X103159000Y-53629000D01*
X103159000Y-53629000D01*
G37*
G36*
X140701000Y-51193000D02*
G01*
X138699000Y-51193000D01*
X138699000Y-49391000D01*
X140701000Y-49391000D01*
X140701000Y-51193000D01*
X140701000Y-51193000D01*
G37*
G36*
X143241000Y-51193000D02*
G01*
X141239000Y-51193000D01*
X141239000Y-49391000D01*
X143241000Y-49391000D01*
X143241000Y-51193000D01*
X143241000Y-51193000D01*
G37*
G36*
X135113000Y-51193000D02*
G01*
X133111000Y-51193000D01*
X133111000Y-49391000D01*
X135113000Y-49391000D01*
X135113000Y-51193000D01*
X135113000Y-51193000D01*
G37*
G36*
X132573000Y-51193000D02*
G01*
X130571000Y-51193000D01*
X130571000Y-49391000D01*
X132573000Y-49391000D01*
X132573000Y-51193000D01*
X132573000Y-51193000D01*
G37*
G36*
X135113000Y-48653000D02*
G01*
X133111000Y-48653000D01*
X133111000Y-46851000D01*
X135113000Y-46851000D01*
X135113000Y-48653000D01*
X135113000Y-48653000D01*
G37*
G36*
X143241000Y-48653000D02*
G01*
X141239000Y-48653000D01*
X141239000Y-46851000D01*
X143241000Y-46851000D01*
X143241000Y-48653000D01*
X143241000Y-48653000D01*
G37*
G36*
X132573000Y-48653000D02*
G01*
X130571000Y-48653000D01*
X130571000Y-46851000D01*
X132573000Y-46851000D01*
X132573000Y-48653000D01*
X132573000Y-48653000D01*
G37*
G36*
X140701000Y-48653000D02*
G01*
X138699000Y-48653000D01*
X138699000Y-46851000D01*
X140701000Y-46851000D01*
X140701000Y-48653000D01*
X140701000Y-48653000D01*
G37*
G36*
X107490585Y-44198802D02*
G01*
X107640410Y-44228604D01*
X107922674Y-44345521D01*
X108176705Y-44515259D01*
X108392741Y-44731295D01*
X108562479Y-44985326D01*
X108679396Y-45267590D01*
X108739000Y-45567240D01*
X108739000Y-45872760D01*
X108679396Y-46172410D01*
X108562479Y-46454674D01*
X108392741Y-46708705D01*
X108176705Y-46924741D01*
X107922674Y-47094479D01*
X107640410Y-47211396D01*
X107490585Y-47241198D01*
X107340761Y-47271000D01*
X107035239Y-47271000D01*
X106885415Y-47241198D01*
X106735590Y-47211396D01*
X106453326Y-47094479D01*
X106199295Y-46924741D01*
X105983259Y-46708705D01*
X105813521Y-46454674D01*
X105696604Y-46172410D01*
X105637000Y-45872760D01*
X105637000Y-45567240D01*
X105696604Y-45267590D01*
X105813521Y-44985326D01*
X105983259Y-44731295D01*
X106199295Y-44515259D01*
X106453326Y-44345521D01*
X106735590Y-44228604D01*
X106885415Y-44198802D01*
X107035239Y-44169000D01*
X107340761Y-44169000D01*
X107490585Y-44198802D01*
X107490585Y-44198802D01*
G37*
G36*
X118899000Y-47271000D02*
G01*
X115797000Y-47271000D01*
X115797000Y-44169000D01*
X118899000Y-44169000D01*
X118899000Y-47271000D01*
X118899000Y-47271000D01*
G37*
G36*
X112570585Y-44198802D02*
G01*
X112720410Y-44228604D01*
X113002674Y-44345521D01*
X113256705Y-44515259D01*
X113472741Y-44731295D01*
X113642479Y-44985326D01*
X113759396Y-45267590D01*
X113819000Y-45567240D01*
X113819000Y-45872760D01*
X113759396Y-46172410D01*
X113642479Y-46454674D01*
X113472741Y-46708705D01*
X113256705Y-46924741D01*
X113002674Y-47094479D01*
X112720410Y-47211396D01*
X112570585Y-47241198D01*
X112420761Y-47271000D01*
X112115239Y-47271000D01*
X111965415Y-47241198D01*
X111815590Y-47211396D01*
X111533326Y-47094479D01*
X111279295Y-46924741D01*
X111063259Y-46708705D01*
X110893521Y-46454674D01*
X110776604Y-46172410D01*
X110717000Y-45872760D01*
X110717000Y-45567240D01*
X110776604Y-45267590D01*
X110893521Y-44985326D01*
X111063259Y-44731295D01*
X111279295Y-44515259D01*
X111533326Y-44345521D01*
X111815590Y-44228604D01*
X111965415Y-44198802D01*
X112115239Y-44169000D01*
X112420761Y-44169000D01*
X112570585Y-44198802D01*
X112570585Y-44198802D01*
G37*
G36*
X102410585Y-44198802D02*
G01*
X102560410Y-44228604D01*
X102842674Y-44345521D01*
X103096705Y-44515259D01*
X103312741Y-44731295D01*
X103482479Y-44985326D01*
X103599396Y-45267590D01*
X103659000Y-45567240D01*
X103659000Y-45872760D01*
X103599396Y-46172410D01*
X103482479Y-46454674D01*
X103312741Y-46708705D01*
X103096705Y-46924741D01*
X102842674Y-47094479D01*
X102560410Y-47211396D01*
X102410585Y-47241198D01*
X102260761Y-47271000D01*
X101955239Y-47271000D01*
X101805415Y-47241198D01*
X101655590Y-47211396D01*
X101373326Y-47094479D01*
X101119295Y-46924741D01*
X100903259Y-46708705D01*
X100733521Y-46454674D01*
X100616604Y-46172410D01*
X100557000Y-45872760D01*
X100557000Y-45567240D01*
X100616604Y-45267590D01*
X100733521Y-44985326D01*
X100903259Y-44731295D01*
X101119295Y-44515259D01*
X101373326Y-44345521D01*
X101655590Y-44228604D01*
X101805415Y-44198802D01*
X101955239Y-44169000D01*
X102260761Y-44169000D01*
X102410585Y-44198802D01*
X102410585Y-44198802D01*
G37*
G36*
X143241000Y-46113000D02*
G01*
X141239000Y-46113000D01*
X141239000Y-44311000D01*
X143241000Y-44311000D01*
X143241000Y-46113000D01*
X143241000Y-46113000D01*
G37*
G36*
X140701000Y-46113000D02*
G01*
X138699000Y-46113000D01*
X138699000Y-44311000D01*
X140701000Y-44311000D01*
X140701000Y-46113000D01*
X140701000Y-46113000D01*
G37*
G36*
X135113000Y-46113000D02*
G01*
X133111000Y-46113000D01*
X133111000Y-44311000D01*
X135113000Y-44311000D01*
X135113000Y-46113000D01*
X135113000Y-46113000D01*
G37*
G36*
X132573000Y-46113000D02*
G01*
X130571000Y-46113000D01*
X130571000Y-44311000D01*
X132573000Y-44311000D01*
X132573000Y-46113000D01*
X132573000Y-46113000D01*
G37*
M02*
