  0
SECTION
  2
HEADER
  9
$ANGBASE
  50
0.0
  9
$ANGDIR
  70
  1
  9
$MEASUREMENT
  70
0
  0
ENDSEC
  0
SECTION
  2
TABLES
  0
TABLE
  2
LTYPE
  70
4
  0
LTYPE
  5
40F
  2
CONTINUOUS
  70
0
  3
Solid line
  72
65
  73
0
  40
0.0
  0
LTYPE
  5
410
  2
DASHDOT
 70
0
  3
Dash Dot ____ _ ____ _
 72
65
 73
4
 40
2.0
 49
1.25
 49
-0.25
 49
0.25
 49
-0.25
  0
LTYPE
  5
411
  2
DASHED
 70
0
  3
Dashed __ __ __ __ __
 72
65
 73
2
 40
0.75
 49
0.5
 49
-0.25
  0
LTYPE
  5
43B
  2
DOTTED
 70
0
  3
Dotted .  .  .  .
 72
65
 73
2
 40
0.2
 49
0.0
 49
-0.2
  0
ENDTAB
  0
TABLE
  2
STYLE
  70
4
  0
STYLE
  2
KICAD
  70
0
  40
0
  41
1
  42
1
  50
0
  71
0
  3
isocp.shx
  0
STYLE
  2
KICADB
  70
0
  40
0
  41
1
  42
1
  50
0
  71
0
  3
isocp.shx
  0
STYLE
  2
KICADI
  70
0
  40
0
  41
1
  42
1
  50
15
  71
0
  3
isocp.shx
  0
STYLE
  2
KICADBI
  70
0
  40
0
  41
1
  42
1
  50
15
  71
0
  3
isocp.shx
  0
ENDTAB
  0
TABLE
  2
LAYER
  70
30
  0
LAYER
  2
BLACK
  70
0
  62
7
  6
CONTINUOUS
  0
LAYER
  2
GRAY1
  70
0
  62
251
  6
CONTINUOUS
  0
LAYER
  2
GRAY2
  70
0
  62
8
  6
CONTINUOUS
  0
LAYER
  2
GRAY3
  70
0
  62
9
  6
CONTINUOUS
  0
LAYER
  2
WHITE
  70
0
  62
7
  6
CONTINUOUS
  0
LAYER
  2
LYELLOW
  70
0
  62
51
  6
CONTINUOUS
  0
LAYER
  2
BLUE1
  70
0
  62
178
  6
CONTINUOUS
  0
LAYER
  2
GREEN1
  70
0
  62
98
  6
CONTINUOUS
  0
LAYER
  2
CYAN1
  70
0
  62
138
  6
CONTINUOUS
  0
LAYER
  2
RED1
  70
0
  62
18
  6
CONTINUOUS
  0
LAYER
  2
MAGENTA1
  70
0
  62
228
  6
CONTINUOUS
  0
LAYER
  2
BROWN1
  70
0
  62
58
  6
CONTINUOUS
  0
LAYER
  2
BLUE2
  70
0
  62
5
  6
CONTINUOUS
  0
LAYER
  2
GREEN2
  70
0
  62
3
  6
CONTINUOUS
  0
LAYER
  2
CYAN2
  70
0
  62
4
  6
CONTINUOUS
  0
LAYER
  2
RED2
  70
0
  62
1
  6
CONTINUOUS
  0
LAYER
  2
MAGENTA2
  70
0
  62
6
  6
CONTINUOUS
  0
LAYER
  2
BROWN2
  70
0
  62
54
  6
CONTINUOUS
  0
LAYER
  2
BLUE3
  70
0
  62
171
  6
CONTINUOUS
  0
LAYER
  2
GREEN3
  70
0
  62
91
  6
CONTINUOUS
  0
LAYER
  2
CYAN3
  70
0
  62
131
  6
CONTINUOUS
  0
LAYER
  2
RED3
  70
0
  62
11
  6
CONTINUOUS
  0
LAYER
  2
MAGENTA3
  70
0
  62
221
  6
CONTINUOUS
  0
LAYER
  2
YELLOW3
  70
0
  62
2
  6
CONTINUOUS
  0
LAYER
  2
BLUE4
  70
0
  62
5
  6
CONTINUOUS
  0
LAYER
  2
GREEN4
  70
0
  62
3
  6
CONTINUOUS
  0
LAYER
  2
CYAN4
  70
0
  62
4
  6
CONTINUOUS
  0
LAYER
  2
RED4
  70
0
  62
1
  6
CONTINUOUS
  0
LAYER
  2
MAGENTA4
  70
0
  62
6
  6
CONTINUOUS
  0
LAYER
  2
YELLOW4
  70
0
  62
2
  6
CONTINUOUS
  0
ENDTAB
  0
ENDSEC
  0
SECTION
  2
ENTITIES
0
LINE
8
BLACK
6
CONTINUOUS
10
149.681
20
-145.143
11
150.045
21
-145.294
0
LINE
8
BLACK
6
CONTINUOUS
10
150.045
20
-145.294
11
150.373
21
-145.512
0
LINE
8
BLACK
6
CONTINUOUS
10
150.373
20
-145.512
11
150.652
21
-145.791
0
LINE
8
BLACK
6
CONTINUOUS
10
150.652
20
-145.791
11
150.87
21
-146.119
0
LINE
8
BLACK
6
CONTINUOUS
10
150.87
20
-146.119
11
151.021
21
-146.483
0
LINE
8
BLACK
6
CONTINUOUS
10
151.021
20
-146.483
11
151.098
21
-146.869
0
LINE
8
BLACK
6
CONTINUOUS
10
151.098
20
-146.869
11
151.098
21
-147.263
0
LINE
8
BLACK
6
CONTINUOUS
10
151.098
20
-147.263
11
151.021
21
-147.649
0
LINE
8
BLACK
6
CONTINUOUS
10
151.021
20
-147.649
11
150.87
21
-148.013
0
LINE
8
BLACK
6
CONTINUOUS
10
150.87
20
-148.013
11
150.652
21
-148.341
0
LINE
8
BLACK
6
CONTINUOUS
10
150.652
20
-148.341
11
150.373
21
-148.62
0
LINE
8
BLACK
6
CONTINUOUS
10
150.373
20
-148.62
11
150.045
21
-148.838
0
LINE
8
BLACK
6
CONTINUOUS
10
150.045
20
-148.838
11
149.681
21
-148.989
0
LINE
8
BLACK
6
CONTINUOUS
10
149.681
20
-148.989
11
149.295
21
-149.066
0
LINE
8
BLACK
6
CONTINUOUS
10
149.295
20
-149.066
11
148.901
21
-149.066
0
LINE
8
BLACK
6
CONTINUOUS
10
148.901
20
-149.066
11
148.515
21
-148.989
0
LINE
8
BLACK
6
CONTINUOUS
10
148.515
20
-148.989
11
148.151
21
-148.838
0
LINE
8
BLACK
6
CONTINUOUS
10
148.151
20
-148.838
11
147.823
21
-148.62
0
LINE
8
BLACK
6
CONTINUOUS
10
147.823
20
-148.62
11
147.544
21
-148.341
0
LINE
8
BLACK
6
CONTINUOUS
10
147.544
20
-148.341
11
147.326
21
-148.013
0
LINE
8
BLACK
6
CONTINUOUS
10
147.326
20
-148.013
11
147.175
21
-147.649
0
LINE
8
BLACK
6
CONTINUOUS
10
147.175
20
-147.649
11
147.098
21
-147.263
0
LINE
8
BLACK
6
CONTINUOUS
10
147.098
20
-147.263
11
147.098
21
-146.869
0
LINE
8
BLACK
6
CONTINUOUS
10
147.098
20
-146.869
11
147.175
21
-146.483
0
LINE
8
BLACK
6
CONTINUOUS
10
147.175
20
-146.483
11
147.326
21
-146.119
0
LINE
8
BLACK
6
CONTINUOUS
10
147.326
20
-146.119
11
147.544
21
-145.791
0
LINE
8
BLACK
6
CONTINUOUS
10
147.544
20
-145.791
11
147.823
21
-145.512
0
LINE
8
BLACK
6
CONTINUOUS
10
147.823
20
-145.512
11
148.151
21
-145.294
0
LINE
8
BLACK
6
CONTINUOUS
10
148.151
20
-145.294
11
148.515
21
-145.143
0
LINE
8
BLACK
6
CONTINUOUS
10
148.515
20
-145.143
11
148.901
21
-145.066
0
LINE
8
BLACK
6
CONTINUOUS
10
148.901
20
-145.066
11
149.295
21
-145.066
0
LINE
8
BLACK
6
CONTINUOUS
10
149.295
20
-145.066
11
149.681
21
-145.143
0
LINE
8
BLACK
6
CONTINUOUS
10
93.8014
20
-144.381
11
94.1654
21
-144.532
0
LINE
8
BLACK
6
CONTINUOUS
10
94.1654
20
-144.532
11
94.4929
21
-144.75
0
LINE
8
BLACK
6
CONTINUOUS
10
94.4929
20
-144.75
11
94.7715
21
-145.029
0
LINE
8
BLACK
6
CONTINUOUS
10
94.7715
20
-145.029
11
94.9904
21
-145.357
0
LINE
8
BLACK
6
CONTINUOUS
10
94.9904
20
-145.357
11
95.1411
21
-145.721
0
LINE
8
BLACK
6
CONTINUOUS
10
95.1411
20
-145.721
11
95.218
21
-146.107
0
LINE
8
BLACK
6
CONTINUOUS
10
95.218
20
-146.107
11
95.218
21
-146.501
0
LINE
8
BLACK
6
CONTINUOUS
10
95.218
20
-146.501
11
95.1411
21
-146.887
0
LINE
8
BLACK
6
CONTINUOUS
10
95.1411
20
-146.887
11
94.9904
21
-147.251
0
LINE
8
BLACK
6
CONTINUOUS
10
94.9904
20
-147.251
11
94.7715
21
-147.579
0
LINE
8
BLACK
6
CONTINUOUS
10
94.7715
20
-147.579
11
94.4929
21
-147.858
0
LINE
8
BLACK
6
CONTINUOUS
10
94.4929
20
-147.858
11
94.1654
21
-148.076
0
LINE
8
BLACK
6
CONTINUOUS
10
94.1654
20
-148.076
11
93.8014
21
-148.227
0
LINE
8
BLACK
6
CONTINUOUS
10
93.8014
20
-148.227
11
93.415
21
-148.304
0
LINE
8
BLACK
6
CONTINUOUS
10
93.415
20
-148.304
11
93.021
21
-148.304
0
LINE
8
BLACK
6
CONTINUOUS
10
93.021
20
-148.304
11
92.6346
21
-148.227
0
LINE
8
BLACK
6
CONTINUOUS
10
92.6346
20
-148.227
11
92.2706
21
-148.076
0
LINE
8
BLACK
6
CONTINUOUS
10
92.2706
20
-148.076
11
91.9431
21
-147.858
0
LINE
8
BLACK
6
CONTINUOUS
10
91.9431
20
-147.858
11
91.6645
21
-147.579
0
LINE
8
BLACK
6
CONTINUOUS
10
91.6645
20
-147.579
11
91.4456
21
-147.251
0
LINE
8
BLACK
6
CONTINUOUS
10
91.4456
20
-147.251
11
91.2949
21
-146.887
0
LINE
8
BLACK
6
CONTINUOUS
10
91.2949
20
-146.887
11
91.218
21
-146.501
0
LINE
8
BLACK
6
CONTINUOUS
10
91.218
20
-146.501
11
91.218
21
-146.107
0
LINE
8
BLACK
6
CONTINUOUS
10
91.218
20
-146.107
11
91.2949
21
-145.721
0
LINE
8
BLACK
6
CONTINUOUS
10
91.2949
20
-145.721
11
91.4456
21
-145.357
0
LINE
8
BLACK
6
CONTINUOUS
10
91.4456
20
-145.357
11
91.6645
21
-145.029
0
LINE
8
BLACK
6
CONTINUOUS
10
91.6645
20
-145.029
11
91.9431
21
-144.75
0
LINE
8
BLACK
6
CONTINUOUS
10
91.9431
20
-144.75
11
92.2706
21
-144.532
0
LINE
8
BLACK
6
CONTINUOUS
10
92.2706
20
-144.532
11
92.6346
21
-144.381
0
LINE
8
BLACK
6
CONTINUOUS
10
92.6346
20
-144.381
11
93.021
21
-144.304
0
LINE
8
BLACK
6
CONTINUOUS
10
93.021
20
-144.304
11
93.415
21
-144.304
0
LINE
8
BLACK
6
CONTINUOUS
10
93.415
20
-144.304
11
93.8014
21
-144.381
0
LINE
8
BLACK
6
CONTINUOUS
10
114.896
20
-146.238
11
113.196
21
-146.238
0
LINE
8
BLACK
6
CONTINUOUS
10
113.196
20
-146.238
11
113.196
21
-144.338
0
LINE
8
BLACK
6
CONTINUOUS
10
113.196
20
-144.338
11
114.896
21
-144.338
0
LINE
8
BLACK
6
CONTINUOUS
10
114.896
20
-144.338
11
114.896
21
-146.238
0
LINE
8
BLACK
6
CONTINUOUS
10
117.436
20
-146.238
11
115.736
21
-146.238
0
LINE
8
BLACK
6
CONTINUOUS
10
115.736
20
-146.238
11
115.736
21
-144.338
0
LINE
8
BLACK
6
CONTINUOUS
10
115.736
20
-144.338
11
117.436
21
-144.338
0
LINE
8
BLACK
6
CONTINUOUS
10
117.436
20
-144.338
11
117.436
21
-146.238
0
LINE
8
BLACK
6
CONTINUOUS
10
103.212
20
-146.238
11
101.512
21
-146.238
0
LINE
8
BLACK
6
CONTINUOUS
10
101.512
20
-146.238
11
101.512
21
-144.338
0
LINE
8
BLACK
6
CONTINUOUS
10
101.512
20
-144.338
11
103.212
21
-144.338
0
LINE
8
BLACK
6
CONTINUOUS
10
103.212
20
-144.338
11
103.212
21
-146.238
0
LINE
8
BLACK
6
CONTINUOUS
10
105.752
20
-146.238
11
104.052
21
-146.238
0
LINE
8
BLACK
6
CONTINUOUS
10
104.052
20
-146.238
11
104.052
21
-144.338
0
LINE
8
BLACK
6
CONTINUOUS
10
104.052
20
-144.338
11
105.752
21
-144.338
0
LINE
8
BLACK
6
CONTINUOUS
10
105.752
20
-144.338
11
105.752
21
-146.238
0
LINE
8
BLACK
6
CONTINUOUS
10
108.292
20
-146.238
11
106.592
21
-146.238
0
LINE
8
BLACK
6
CONTINUOUS
10
106.592
20
-146.238
11
106.592
21
-144.338
0
LINE
8
BLACK
6
CONTINUOUS
10
106.592
20
-144.338
11
108.292
21
-144.338
0
LINE
8
BLACK
6
CONTINUOUS
10
108.292
20
-144.338
11
108.292
21
-146.238
0
LINE
8
BLACK
6
CONTINUOUS
10
110.832
20
-146.238
11
109.132
21
-146.238
0
LINE
8
BLACK
6
CONTINUOUS
10
109.132
20
-146.238
11
109.132
21
-144.338
0
LINE
8
BLACK
6
CONTINUOUS
10
109.132
20
-144.338
11
110.832
21
-144.338
0
LINE
8
BLACK
6
CONTINUOUS
10
110.832
20
-144.338
11
110.832
21
-146.238
0
LINE
8
BLACK
6
CONTINUOUS
10
122.516
20
-146.238
11
120.816
21
-146.238
0
LINE
8
BLACK
6
CONTINUOUS
10
120.816
20
-146.238
11
120.816
21
-144.338
0
LINE
8
BLACK
6
CONTINUOUS
10
120.816
20
-144.338
11
122.516
21
-144.338
0
LINE
8
BLACK
6
CONTINUOUS
10
122.516
20
-144.338
11
122.516
21
-146.238
0
LINE
8
BLACK
6
CONTINUOUS
10
119.976
20
-146.238
11
118.276
21
-146.238
0
LINE
8
BLACK
6
CONTINUOUS
10
118.276
20
-146.238
11
118.276
21
-144.338
0
LINE
8
BLACK
6
CONTINUOUS
10
118.276
20
-144.338
11
119.976
21
-144.338
0
LINE
8
BLACK
6
CONTINUOUS
10
119.976
20
-144.338
11
119.976
21
-146.238
0
LINE
8
BLACK
6
CONTINUOUS
10
104.736
20
-138.314
11
103.036
21
-138.314
0
LINE
8
BLACK
6
CONTINUOUS
10
103.036
20
-138.314
11
103.036
21
-136.514
0
LINE
8
BLACK
6
CONTINUOUS
10
103.036
20
-136.514
11
104.736
21
-136.514
0
LINE
8
BLACK
6
CONTINUOUS
10
104.736
20
-136.514
11
104.736
21
-138.314
0
LINE
8
BLACK
6
CONTINUOUS
10
107.276
20
-138.314
11
105.576
21
-138.314
0
LINE
8
BLACK
6
CONTINUOUS
10
105.576
20
-138.314
11
105.576
21
-136.514
0
LINE
8
BLACK
6
CONTINUOUS
10
105.576
20
-136.514
11
107.276
21
-136.514
0
LINE
8
BLACK
6
CONTINUOUS
10
107.276
20
-136.514
11
107.276
21
-138.314
0
LINE
8
BLACK
6
CONTINUOUS
10
145.376
20
-138.314
11
143.676
21
-138.314
0
LINE
8
BLACK
6
CONTINUOUS
10
143.676
20
-138.314
11
143.676
21
-136.514
0
LINE
8
BLACK
6
CONTINUOUS
10
143.676
20
-136.514
11
145.376
21
-136.514
0
LINE
8
BLACK
6
CONTINUOUS
10
145.376
20
-136.514
11
145.376
21
-138.314
0
LINE
8
BLACK
6
CONTINUOUS
10
142.836
20
-138.314
11
141.136
21
-138.314
0
LINE
8
BLACK
6
CONTINUOUS
10
141.136
20
-138.314
11
141.136
21
-136.514
0
LINE
8
BLACK
6
CONTINUOUS
10
141.136
20
-136.514
11
142.836
21
-136.514
0
LINE
8
BLACK
6
CONTINUOUS
10
142.836
20
-136.514
11
142.836
21
-138.314
0
LINE
8
BLACK
6
CONTINUOUS
10
140.296
20
-138.314
11
138.596
21
-138.314
0
LINE
8
BLACK
6
CONTINUOUS
10
138.596
20
-138.314
11
138.596
21
-136.514
0
LINE
8
BLACK
6
CONTINUOUS
10
138.596
20
-136.514
11
140.296
21
-136.514
0
LINE
8
BLACK
6
CONTINUOUS
10
140.296
20
-136.514
11
140.296
21
-138.314
0
LINE
8
BLACK
6
CONTINUOUS
10
137.756
20
-138.314
11
136.056
21
-138.314
0
LINE
8
BLACK
6
CONTINUOUS
10
136.056
20
-138.314
11
136.056
21
-136.514
0
LINE
8
BLACK
6
CONTINUOUS
10
136.056
20
-136.514
11
137.756
21
-136.514
0
LINE
8
BLACK
6
CONTINUOUS
10
137.756
20
-136.514
11
137.756
21
-138.314
0
LINE
8
BLACK
6
CONTINUOUS
10
135.216
20
-138.314
11
133.516
21
-138.314
0
LINE
8
BLACK
6
CONTINUOUS
10
133.516
20
-138.314
11
133.516
21
-136.514
0
LINE
8
BLACK
6
CONTINUOUS
10
133.516
20
-136.514
11
135.216
21
-136.514
0
LINE
8
BLACK
6
CONTINUOUS
10
135.216
20
-136.514
11
135.216
21
-138.314
0
LINE
8
BLACK
6
CONTINUOUS
10
132.676
20
-138.314
11
130.976
21
-138.314
0
LINE
8
BLACK
6
CONTINUOUS
10
130.976
20
-138.314
11
130.976
21
-136.514
0
LINE
8
BLACK
6
CONTINUOUS
10
130.976
20
-136.514
11
132.676
21
-136.514
0
LINE
8
BLACK
6
CONTINUOUS
10
132.676
20
-136.514
11
132.676
21
-138.314
0
LINE
8
BLACK
6
CONTINUOUS
10
130.136
20
-138.314
11
128.436
21
-138.314
0
LINE
8
BLACK
6
CONTINUOUS
10
128.436
20
-138.314
11
128.436
21
-136.514
0
LINE
8
BLACK
6
CONTINUOUS
10
128.436
20
-136.514
11
130.136
21
-136.514
0
LINE
8
BLACK
6
CONTINUOUS
10
130.136
20
-136.514
11
130.136
21
-138.314
0
LINE
8
BLACK
6
CONTINUOUS
10
127.596
20
-138.314
11
125.896
21
-138.314
0
LINE
8
BLACK
6
CONTINUOUS
10
125.896
20
-138.314
11
125.896
21
-136.514
0
LINE
8
BLACK
6
CONTINUOUS
10
125.896
20
-136.514
11
127.596
21
-136.514
0
LINE
8
BLACK
6
CONTINUOUS
10
127.596
20
-136.514
11
127.596
21
-138.314
0
LINE
8
BLACK
6
CONTINUOUS
10
125.056
20
-138.314
11
123.356
21
-138.314
0
LINE
8
BLACK
6
CONTINUOUS
10
123.356
20
-138.314
11
123.356
21
-136.514
0
LINE
8
BLACK
6
CONTINUOUS
10
123.356
20
-136.514
11
125.056
21
-136.514
0
LINE
8
BLACK
6
CONTINUOUS
10
125.056
20
-136.514
11
125.056
21
-138.314
0
LINE
8
BLACK
6
CONTINUOUS
10
122.516
20
-138.314
11
120.816
21
-138.314
0
LINE
8
BLACK
6
CONTINUOUS
10
120.816
20
-138.314
11
120.816
21
-136.514
0
LINE
8
BLACK
6
CONTINUOUS
10
120.816
20
-136.514
11
122.516
21
-136.514
0
LINE
8
BLACK
6
CONTINUOUS
10
122.516
20
-136.514
11
122.516
21
-138.314
0
LINE
8
BLACK
6
CONTINUOUS
10
119.976
20
-138.314
11
118.276
21
-138.314
0
LINE
8
BLACK
6
CONTINUOUS
10
118.276
20
-138.314
11
118.276
21
-136.514
0
LINE
8
BLACK
6
CONTINUOUS
10
118.276
20
-136.514
11
119.976
21
-136.514
0
LINE
8
BLACK
6
CONTINUOUS
10
119.976
20
-136.514
11
119.976
21
-138.314
0
LINE
8
BLACK
6
CONTINUOUS
10
117.436
20
-138.314
11
115.736
21
-138.314
0
LINE
8
BLACK
6
CONTINUOUS
10
115.736
20
-138.314
11
115.736
21
-136.514
0
LINE
8
BLACK
6
CONTINUOUS
10
115.736
20
-136.514
11
117.436
21
-136.514
0
LINE
8
BLACK
6
CONTINUOUS
10
117.436
20
-136.514
11
117.436
21
-138.314
0
LINE
8
BLACK
6
CONTINUOUS
10
114.896
20
-138.314
11
113.196
21
-138.314
0
LINE
8
BLACK
6
CONTINUOUS
10
113.196
20
-138.314
11
113.196
21
-136.514
0
LINE
8
BLACK
6
CONTINUOUS
10
113.196
20
-136.514
11
114.896
21
-136.514
0
LINE
8
BLACK
6
CONTINUOUS
10
114.896
20
-136.514
11
114.896
21
-138.314
0
LINE
8
BLACK
6
CONTINUOUS
10
112.356
20
-138.314
11
110.656
21
-138.314
0
LINE
8
BLACK
6
CONTINUOUS
10
110.656
20
-138.314
11
110.656
21
-136.514
0
LINE
8
BLACK
6
CONTINUOUS
10
110.656
20
-136.514
11
112.356
21
-136.514
0
LINE
8
BLACK
6
CONTINUOUS
10
112.356
20
-136.514
11
112.356
21
-138.314
0
LINE
8
BLACK
6
CONTINUOUS
10
109.816
20
-138.314
11
108.116
21
-138.314
0
LINE
8
BLACK
6
CONTINUOUS
10
108.116
20
-138.314
11
108.116
21
-136.514
0
LINE
8
BLACK
6
CONTINUOUS
10
108.116
20
-136.514
11
109.816
21
-136.514
0
LINE
8
BLACK
6
CONTINUOUS
10
109.816
20
-136.514
11
109.816
21
-138.314
0
LINE
8
BLACK
6
CONTINUOUS
10
147.766
20
-138.278
11
146.366
21
-138.278
0
LINE
8
BLACK
6
CONTINUOUS
10
146.366
20
-138.278
11
146.366
21
-136.55
0
LINE
8
BLACK
6
CONTINUOUS
10
146.366
20
-136.55
11
147.766
21
-136.55
0
LINE
8
BLACK
6
CONTINUOUS
10
147.766
20
-136.55
11
147.766
21
-138.278
0
LINE
8
BLACK
6
CONTINUOUS
10
109.816
20
-135.774
11
108.116
21
-135.774
0
LINE
8
BLACK
6
CONTINUOUS
10
108.116
20
-135.774
11
108.116
21
-133.974
0
LINE
8
BLACK
6
CONTINUOUS
10
108.116
20
-133.974
11
109.816
21
-133.974
0
LINE
8
BLACK
6
CONTINUOUS
10
109.816
20
-133.974
11
109.816
21
-135.774
0
LINE
8
BLACK
6
CONTINUOUS
10
145.376
20
-135.774
11
143.676
21
-135.774
0
LINE
8
BLACK
6
CONTINUOUS
10
143.676
20
-135.774
11
143.676
21
-133.974
0
LINE
8
BLACK
6
CONTINUOUS
10
143.676
20
-133.974
11
145.376
21
-133.974
0
LINE
8
BLACK
6
CONTINUOUS
10
145.376
20
-133.974
11
145.376
21
-135.774
0
LINE
8
BLACK
6
CONTINUOUS
10
104.736
20
-135.774
11
103.036
21
-135.774
0
LINE
8
BLACK
6
CONTINUOUS
10
103.036
20
-135.774
11
103.036
21
-133.974
0
LINE
8
BLACK
6
CONTINUOUS
10
103.036
20
-133.974
11
104.736
21
-133.974
0
LINE
8
BLACK
6
CONTINUOUS
10
104.736
20
-133.974
11
104.736
21
-135.774
0
LINE
8
BLACK
6
CONTINUOUS
10
142.836
20
-135.774
11
141.136
21
-135.774
0
LINE
8
BLACK
6
CONTINUOUS
10
141.136
20
-135.774
11
141.136
21
-133.974
0
LINE
8
BLACK
6
CONTINUOUS
10
141.136
20
-133.974
11
142.836
21
-133.974
0
LINE
8
BLACK
6
CONTINUOUS
10
142.836
20
-133.974
11
142.836
21
-135.774
0
LINE
8
BLACK
6
CONTINUOUS
10
140.296
20
-135.774
11
138.596
21
-135.774
0
LINE
8
BLACK
6
CONTINUOUS
10
138.596
20
-135.774
11
138.596
21
-133.974
0
LINE
8
BLACK
6
CONTINUOUS
10
138.596
20
-133.974
11
140.296
21
-133.974
0
LINE
8
BLACK
6
CONTINUOUS
10
140.296
20
-133.974
11
140.296
21
-135.774
0
LINE
8
BLACK
6
CONTINUOUS
10
137.756
20
-135.774
11
136.056
21
-135.774
0
LINE
8
BLACK
6
CONTINUOUS
10
136.056
20
-135.774
11
136.056
21
-133.974
0
LINE
8
BLACK
6
CONTINUOUS
10
136.056
20
-133.974
11
137.756
21
-133.974
0
LINE
8
BLACK
6
CONTINUOUS
10
137.756
20
-133.974
11
137.756
21
-135.774
0
LINE
8
BLACK
6
CONTINUOUS
10
135.216
20
-135.774
11
133.516
21
-135.774
0
LINE
8
BLACK
6
CONTINUOUS
10
133.516
20
-135.774
11
133.516
21
-133.974
0
LINE
8
BLACK
6
CONTINUOUS
10
133.516
20
-133.974
11
135.216
21
-133.974
0
LINE
8
BLACK
6
CONTINUOUS
10
135.216
20
-133.974
11
135.216
21
-135.774
0
LINE
8
BLACK
6
CONTINUOUS
10
132.676
20
-135.774
11
130.976
21
-135.774
0
LINE
8
BLACK
6
CONTINUOUS
10
130.976
20
-135.774
11
130.976
21
-133.974
0
LINE
8
BLACK
6
CONTINUOUS
10
130.976
20
-133.974
11
132.676
21
-133.974
0
LINE
8
BLACK
6
CONTINUOUS
10
132.676
20
-133.974
11
132.676
21
-135.774
0
LINE
8
BLACK
6
CONTINUOUS
10
130.136
20
-135.774
11
128.436
21
-135.774
0
LINE
8
BLACK
6
CONTINUOUS
10
128.436
20
-135.774
11
128.436
21
-133.974
0
LINE
8
BLACK
6
CONTINUOUS
10
128.436
20
-133.974
11
130.136
21
-133.974
0
LINE
8
BLACK
6
CONTINUOUS
10
130.136
20
-133.974
11
130.136
21
-135.774
0
LINE
8
BLACK
6
CONTINUOUS
10
127.596
20
-135.774
11
125.896
21
-135.774
0
LINE
8
BLACK
6
CONTINUOUS
10
125.896
20
-135.774
11
125.896
21
-133.974
0
LINE
8
BLACK
6
CONTINUOUS
10
125.896
20
-133.974
11
127.596
21
-133.974
0
LINE
8
BLACK
6
CONTINUOUS
10
127.596
20
-133.974
11
127.596
21
-135.774
0
LINE
8
BLACK
6
CONTINUOUS
10
125.056
20
-135.774
11
123.356
21
-135.774
0
LINE
8
BLACK
6
CONTINUOUS
10
123.356
20
-135.774
11
123.356
21
-133.974
0
LINE
8
BLACK
6
CONTINUOUS
10
123.356
20
-133.974
11
125.056
21
-133.974
0
LINE
8
BLACK
6
CONTINUOUS
10
125.056
20
-133.974
11
125.056
21
-135.774
0
LINE
8
BLACK
6
CONTINUOUS
10
122.516
20
-135.774
11
120.816
21
-135.774
0
LINE
8
BLACK
6
CONTINUOUS
10
120.816
20
-135.774
11
120.816
21
-133.974
0
LINE
8
BLACK
6
CONTINUOUS
10
120.816
20
-133.974
11
122.516
21
-133.974
0
LINE
8
BLACK
6
CONTINUOUS
10
122.516
20
-133.974
11
122.516
21
-135.774
0
LINE
8
BLACK
6
CONTINUOUS
10
119.976
20
-135.774
11
118.276
21
-135.774
0
LINE
8
BLACK
6
CONTINUOUS
10
118.276
20
-135.774
11
118.276
21
-133.974
0
LINE
8
BLACK
6
CONTINUOUS
10
118.276
20
-133.974
11
119.976
21
-133.974
0
LINE
8
BLACK
6
CONTINUOUS
10
119.976
20
-133.974
11
119.976
21
-135.774
0
LINE
8
BLACK
6
CONTINUOUS
10
117.436
20
-135.774
11
115.736
21
-135.774
0
LINE
8
BLACK
6
CONTINUOUS
10
115.736
20
-135.774
11
115.736
21
-133.974
0
LINE
8
BLACK
6
CONTINUOUS
10
115.736
20
-133.974
11
117.436
21
-133.974
0
LINE
8
BLACK
6
CONTINUOUS
10
117.436
20
-133.974
11
117.436
21
-135.774
0
LINE
8
BLACK
6
CONTINUOUS
10
114.896
20
-135.774
11
113.196
21
-135.774
0
LINE
8
BLACK
6
CONTINUOUS
10
113.196
20
-135.774
11
113.196
21
-133.974
0
LINE
8
BLACK
6
CONTINUOUS
10
113.196
20
-133.974
11
114.896
21
-133.974
0
LINE
8
BLACK
6
CONTINUOUS
10
114.896
20
-133.974
11
114.896
21
-135.774
0
LINE
8
BLACK
6
CONTINUOUS
10
112.356
20
-135.774
11
110.656
21
-135.774
0
LINE
8
BLACK
6
CONTINUOUS
10
110.656
20
-135.774
11
110.656
21
-133.974
0
LINE
8
BLACK
6
CONTINUOUS
10
110.656
20
-133.974
11
112.356
21
-133.974
0
LINE
8
BLACK
6
CONTINUOUS
10
112.356
20
-133.974
11
112.356
21
-135.774
0
LINE
8
BLACK
6
CONTINUOUS
10
107.276
20
-135.774
11
105.576
21
-135.774
0
LINE
8
BLACK
6
CONTINUOUS
10
105.576
20
-135.774
11
105.576
21
-133.974
0
LINE
8
BLACK
6
CONTINUOUS
10
105.576
20
-133.974
11
107.276
21
-133.974
0
LINE
8
BLACK
6
CONTINUOUS
10
107.276
20
-133.974
11
107.276
21
-135.774
0
LINE
8
BLACK
6
CONTINUOUS
10
147.766
20
-135.738
11
146.366
21
-135.738
0
LINE
8
BLACK
6
CONTINUOUS
10
146.366
20
-135.738
11
146.366
21
-134.01
0
LINE
8
BLACK
6
CONTINUOUS
10
146.366
20
-134.01
11
147.766
21
-134.01
0
LINE
8
BLACK
6
CONTINUOUS
10
147.766
20
-134.01
11
147.766
21
-135.738
0
LINE
8
BLACK
6
CONTINUOUS
10
99.6696
20
-133.034
11
97.9424
21
-133.034
0
LINE
8
BLACK
6
CONTINUOUS
10
97.9424
20
-133.034
11
97.9424
21
-131.634
0
LINE
8
BLACK
6
CONTINUOUS
10
97.9424
20
-131.634
11
99.6696
21
-131.634
0
LINE
8
BLACK
6
CONTINUOUS
10
99.6696
20
-131.634
11
99.6696
21
-133.034
0
LINE
8
BLACK
6
CONTINUOUS
10
112.503
20
-128.611
11
112.729
21
-128.68
0
LINE
8
BLACK
6
CONTINUOUS
10
112.729
20
-128.68
11
112.938
21
-128.791
0
LINE
8
BLACK
6
CONTINUOUS
10
112.938
20
-128.791
11
113.121
21
-128.941
0
LINE
8
BLACK
6
CONTINUOUS
10
113.121
20
-128.941
11
113.271
21
-129.124
0
LINE
8
BLACK
6
CONTINUOUS
10
113.271
20
-129.124
11
113.382
21
-129.333
0
LINE
8
BLACK
6
CONTINUOUS
10
113.382
20
-129.333
11
113.451
21
-129.559
0
LINE
8
BLACK
6
CONTINUOUS
10
113.451
20
-129.559
11
113.474
21
-129.794
0
LINE
8
BLACK
6
CONTINUOUS
10
113.474
20
-129.794
11
113.451
21
-130.029
0
LINE
8
BLACK
6
CONTINUOUS
10
113.451
20
-130.029
11
113.382
21
-130.255
0
LINE
8
BLACK
6
CONTINUOUS
10
113.382
20
-130.255
11
113.271
21
-130.464
0
LINE
8
BLACK
6
CONTINUOUS
10
113.271
20
-130.464
11
113.121
21
-130.647
0
LINE
8
BLACK
6
CONTINUOUS
10
113.121
20
-130.647
11
112.938
21
-130.797
0
LINE
8
BLACK
6
CONTINUOUS
10
112.938
20
-130.797
11
112.729
21
-130.908
0
LINE
8
BLACK
6
CONTINUOUS
10
112.729
20
-130.908
11
112.503
21
-130.977
0
LINE
8
BLACK
6
CONTINUOUS
10
112.503
20
-130.977
11
112.327
21
-130.994
0
LINE
8
BLACK
6
CONTINUOUS
10
112.327
20
-130.994
11
112.209
21
-130.994
0
LINE
8
BLACK
6
CONTINUOUS
10
112.209
20
-130.994
11
112.033
21
-130.977
0
LINE
8
BLACK
6
CONTINUOUS
10
112.033
20
-130.977
11
111.807
21
-130.908
0
LINE
8
BLACK
6
CONTINUOUS
10
111.807
20
-130.908
11
111.598
21
-130.797
0
LINE
8
BLACK
6
CONTINUOUS
10
111.598
20
-130.797
11
111.415
21
-130.647
0
LINE
8
BLACK
6
CONTINUOUS
10
111.415
20
-130.647
11
111.265
21
-130.464
0
LINE
8
BLACK
6
CONTINUOUS
10
111.265
20
-130.464
11
111.154
21
-130.255
0
LINE
8
BLACK
6
CONTINUOUS
10
111.154
20
-130.255
11
111.085
21
-130.029
0
LINE
8
BLACK
6
CONTINUOUS
10
111.085
20
-130.029
11
111.062
21
-129.794
0
LINE
8
BLACK
6
CONTINUOUS
10
111.062
20
-129.794
11
111.085
21
-129.559
0
LINE
8
BLACK
6
CONTINUOUS
10
111.085
20
-129.559
11
111.154
21
-129.333
0
LINE
8
BLACK
6
CONTINUOUS
10
111.154
20
-129.333
11
111.265
21
-129.124
0
LINE
8
BLACK
6
CONTINUOUS
10
111.265
20
-129.124
11
111.415
21
-128.941
0
LINE
8
BLACK
6
CONTINUOUS
10
111.415
20
-128.941
11
111.598
21
-128.791
0
LINE
8
BLACK
6
CONTINUOUS
10
111.598
20
-128.791
11
111.807
21
-128.68
0
LINE
8
BLACK
6
CONTINUOUS
10
111.807
20
-128.68
11
112.033
21
-128.611
0
LINE
8
BLACK
6
CONTINUOUS
10
112.033
20
-128.611
11
112.209
21
-128.594
0
LINE
8
BLACK
6
CONTINUOUS
10
112.209
20
-128.594
11
112.327
21
-128.594
0
LINE
8
BLACK
6
CONTINUOUS
10
112.327
20
-128.594
11
112.503
21
-128.611
0
LINE
8
BLACK
6
CONTINUOUS
10
107.931
20
-128.611
11
108.157
21
-128.68
0
LINE
8
BLACK
6
CONTINUOUS
10
108.157
20
-128.68
11
108.366
21
-128.791
0
LINE
8
BLACK
6
CONTINUOUS
10
108.366
20
-128.791
11
108.549
21
-128.941
0
LINE
8
BLACK
6
CONTINUOUS
10
108.549
20
-128.941
11
108.699
21
-129.124
0
LINE
8
BLACK
6
CONTINUOUS
10
108.699
20
-129.124
11
108.81
21
-129.333
0
LINE
8
BLACK
6
CONTINUOUS
10
108.81
20
-129.333
11
108.879
21
-129.559
0
LINE
8
BLACK
6
CONTINUOUS
10
108.879
20
-129.559
11
108.902
21
-129.794
0
LINE
8
BLACK
6
CONTINUOUS
10
108.902
20
-129.794
11
108.879
21
-130.029
0
LINE
8
BLACK
6
CONTINUOUS
10
108.879
20
-130.029
11
108.81
21
-130.255
0
LINE
8
BLACK
6
CONTINUOUS
10
108.81
20
-130.255
11
108.699
21
-130.464
0
LINE
8
BLACK
6
CONTINUOUS
10
108.699
20
-130.464
11
108.549
21
-130.647
0
LINE
8
BLACK
6
CONTINUOUS
10
108.549
20
-130.647
11
108.366
21
-130.797
0
LINE
8
BLACK
6
CONTINUOUS
10
108.366
20
-130.797
11
108.157
21
-130.908
0
LINE
8
BLACK
6
CONTINUOUS
10
108.157
20
-130.908
11
107.931
21
-130.977
0
LINE
8
BLACK
6
CONTINUOUS
10
107.931
20
-130.977
11
107.755
21
-130.994
0
LINE
8
BLACK
6
CONTINUOUS
10
107.755
20
-130.994
11
107.637
21
-130.994
0
LINE
8
BLACK
6
CONTINUOUS
10
107.637
20
-130.994
11
107.461
21
-130.977
0
LINE
8
BLACK
6
CONTINUOUS
10
107.461
20
-130.977
11
107.235
21
-130.908
0
LINE
8
BLACK
6
CONTINUOUS
10
107.235
20
-130.908
11
107.026
21
-130.797
0
LINE
8
BLACK
6
CONTINUOUS
10
107.026
20
-130.797
11
106.843
21
-130.647
0
LINE
8
BLACK
6
CONTINUOUS
10
106.843
20
-130.647
11
106.693
21
-130.464
0
LINE
8
BLACK
6
CONTINUOUS
10
106.693
20
-130.464
11
106.582
21
-130.255
0
LINE
8
BLACK
6
CONTINUOUS
10
106.582
20
-130.255
11
106.513
21
-130.029
0
LINE
8
BLACK
6
CONTINUOUS
10
106.513
20
-130.029
11
106.49
21
-129.794
0
LINE
8
BLACK
6
CONTINUOUS
10
106.49
20
-129.794
11
106.513
21
-129.559
0
LINE
8
BLACK
6
CONTINUOUS
10
106.513
20
-129.559
11
106.582
21
-129.333
0
LINE
8
BLACK
6
CONTINUOUS
10
106.582
20
-129.333
11
106.693
21
-129.124
0
LINE
8
BLACK
6
CONTINUOUS
10
106.693
20
-129.124
11
106.843
21
-128.941
0
LINE
8
BLACK
6
CONTINUOUS
10
106.843
20
-128.941
11
107.026
21
-128.791
0
LINE
8
BLACK
6
CONTINUOUS
10
107.026
20
-128.791
11
107.235
21
-128.68
0
LINE
8
BLACK
6
CONTINUOUS
10
107.235
20
-128.68
11
107.461
21
-128.611
0
LINE
8
BLACK
6
CONTINUOUS
10
107.461
20
-128.611
11
107.637
21
-128.594
0
LINE
8
BLACK
6
CONTINUOUS
10
107.637
20
-128.594
11
107.755
21
-128.594
0
LINE
8
BLACK
6
CONTINUOUS
10
107.755
20
-128.594
11
107.931
21
-128.611
0
LINE
8
BLACK
6
CONTINUOUS
10
117.329
20
-128.611
11
117.555
21
-128.68
0
LINE
8
BLACK
6
CONTINUOUS
10
117.555
20
-128.68
11
117.764
21
-128.791
0
LINE
8
BLACK
6
CONTINUOUS
10
117.764
20
-128.791
11
117.947
21
-128.941
0
LINE
8
BLACK
6
CONTINUOUS
10
117.947
20
-128.941
11
118.097
21
-129.124
0
LINE
8
BLACK
6
CONTINUOUS
10
118.097
20
-129.124
11
118.208
21
-129.333
0
LINE
8
BLACK
6
CONTINUOUS
10
118.208
20
-129.333
11
118.277
21
-129.559
0
LINE
8
BLACK
6
CONTINUOUS
10
118.277
20
-129.559
11
118.3
21
-129.794
0
LINE
8
BLACK
6
CONTINUOUS
10
118.3
20
-129.794
11
118.277
21
-130.029
0
LINE
8
BLACK
6
CONTINUOUS
10
118.277
20
-130.029
11
118.208
21
-130.255
0
LINE
8
BLACK
6
CONTINUOUS
10
118.208
20
-130.255
11
118.097
21
-130.464
0
LINE
8
BLACK
6
CONTINUOUS
10
118.097
20
-130.464
11
117.947
21
-130.647
0
LINE
8
BLACK
6
CONTINUOUS
10
117.947
20
-130.647
11
117.764
21
-130.797
0
LINE
8
BLACK
6
CONTINUOUS
10
117.764
20
-130.797
11
117.555
21
-130.908
0
LINE
8
BLACK
6
CONTINUOUS
10
117.555
20
-130.908
11
117.329
21
-130.977
0
LINE
8
BLACK
6
CONTINUOUS
10
117.329
20
-130.977
11
117.153
21
-130.994
0
LINE
8
BLACK
6
CONTINUOUS
10
117.153
20
-130.994
11
117.035
21
-130.994
0
LINE
8
BLACK
6
CONTINUOUS
10
117.035
20
-130.994
11
116.859
21
-130.977
0
LINE
8
BLACK
6
CONTINUOUS
10
116.859
20
-130.977
11
116.633
21
-130.908
0
LINE
8
BLACK
6
CONTINUOUS
10
116.633
20
-130.908
11
116.424
21
-130.797
0
LINE
8
BLACK
6
CONTINUOUS
10
116.424
20
-130.797
11
116.241
21
-130.647
0
LINE
8
BLACK
6
CONTINUOUS
10
116.241
20
-130.647
11
116.091
21
-130.464
0
LINE
8
BLACK
6
CONTINUOUS
10
116.091
20
-130.464
11
115.98
21
-130.255
0
LINE
8
BLACK
6
CONTINUOUS
10
115.98
20
-130.255
11
115.911
21
-130.029
0
LINE
8
BLACK
6
CONTINUOUS
10
115.911
20
-130.029
11
115.888
21
-129.794
0
LINE
8
BLACK
6
CONTINUOUS
10
115.888
20
-129.794
11
115.911
21
-129.559
0
LINE
8
BLACK
6
CONTINUOUS
10
115.911
20
-129.559
11
115.98
21
-129.333
0
LINE
8
BLACK
6
CONTINUOUS
10
115.98
20
-129.333
11
116.091
21
-129.124
0
LINE
8
BLACK
6
CONTINUOUS
10
116.091
20
-129.124
11
116.241
21
-128.941
0
LINE
8
BLACK
6
CONTINUOUS
10
116.241
20
-128.941
11
116.424
21
-128.791
0
LINE
8
BLACK
6
CONTINUOUS
10
116.424
20
-128.791
11
116.633
21
-128.68
0
LINE
8
BLACK
6
CONTINUOUS
10
116.633
20
-128.68
11
116.859
21
-128.611
0
LINE
8
BLACK
6
CONTINUOUS
10
116.859
20
-128.611
11
117.035
21
-128.594
0
LINE
8
BLACK
6
CONTINUOUS
10
117.035
20
-128.594
11
117.153
21
-128.594
0
LINE
8
BLACK
6
CONTINUOUS
10
117.153
20
-128.594
11
117.329
21
-128.611
0
LINE
8
BLACK
6
CONTINUOUS
10
103.359
20
-128.611
11
103.585
21
-128.68
0
LINE
8
BLACK
6
CONTINUOUS
10
103.585
20
-128.68
11
103.794
21
-128.791
0
LINE
8
BLACK
6
CONTINUOUS
10
103.794
20
-128.791
11
103.977
21
-128.941
0
LINE
8
BLACK
6
CONTINUOUS
10
103.977
20
-128.941
11
104.127
21
-129.124
0
LINE
8
BLACK
6
CONTINUOUS
10
104.127
20
-129.124
11
104.238
21
-129.333
0
LINE
8
BLACK
6
CONTINUOUS
10
104.238
20
-129.333
11
104.307
21
-129.559
0
LINE
8
BLACK
6
CONTINUOUS
10
104.307
20
-129.559
11
104.33
21
-129.794
0
LINE
8
BLACK
6
CONTINUOUS
10
104.33
20
-129.794
11
104.307
21
-130.029
0
LINE
8
BLACK
6
CONTINUOUS
10
104.307
20
-130.029
11
104.238
21
-130.255
0
LINE
8
BLACK
6
CONTINUOUS
10
104.238
20
-130.255
11
104.127
21
-130.464
0
LINE
8
BLACK
6
CONTINUOUS
10
104.127
20
-130.464
11
103.977
21
-130.647
0
LINE
8
BLACK
6
CONTINUOUS
10
103.977
20
-130.647
11
103.794
21
-130.797
0
LINE
8
BLACK
6
CONTINUOUS
10
103.794
20
-130.797
11
103.585
21
-130.908
0
LINE
8
BLACK
6
CONTINUOUS
10
103.585
20
-130.908
11
103.359
21
-130.977
0
LINE
8
BLACK
6
CONTINUOUS
10
103.359
20
-130.977
11
103.183
21
-130.994
0
LINE
8
BLACK
6
CONTINUOUS
10
103.183
20
-130.994
11
103.065
21
-130.994
0
LINE
8
BLACK
6
CONTINUOUS
10
103.065
20
-130.994
11
102.889
21
-130.977
0
LINE
8
BLACK
6
CONTINUOUS
10
102.889
20
-130.977
11
102.663
21
-130.908
0
LINE
8
BLACK
6
CONTINUOUS
10
102.663
20
-130.908
11
102.454
21
-130.797
0
LINE
8
BLACK
6
CONTINUOUS
10
102.454
20
-130.797
11
102.271
21
-130.647
0
LINE
8
BLACK
6
CONTINUOUS
10
102.271
20
-130.647
11
102.121
21
-130.464
0
LINE
8
BLACK
6
CONTINUOUS
10
102.121
20
-130.464
11
102.01
21
-130.255
0
LINE
8
BLACK
6
CONTINUOUS
10
102.01
20
-130.255
11
101.941
21
-130.029
0
LINE
8
BLACK
6
CONTINUOUS
10
101.941
20
-130.029
11
101.918
21
-129.794
0
LINE
8
BLACK
6
CONTINUOUS
10
101.918
20
-129.794
11
101.941
21
-129.559
0
LINE
8
BLACK
6
CONTINUOUS
10
101.941
20
-129.559
11
102.01
21
-129.333
0
LINE
8
BLACK
6
CONTINUOUS
10
102.01
20
-129.333
11
102.121
21
-129.124
0
LINE
8
BLACK
6
CONTINUOUS
10
102.121
20
-129.124
11
102.271
21
-128.941
0
LINE
8
BLACK
6
CONTINUOUS
10
102.271
20
-128.941
11
102.454
21
-128.791
0
LINE
8
BLACK
6
CONTINUOUS
10
102.454
20
-128.791
11
102.663
21
-128.68
0
LINE
8
BLACK
6
CONTINUOUS
10
102.663
20
-128.68
11
102.889
21
-128.611
0
LINE
8
BLACK
6
CONTINUOUS
10
102.889
20
-128.611
11
103.065
21
-128.594
0
LINE
8
BLACK
6
CONTINUOUS
10
103.065
20
-128.594
11
103.183
21
-128.594
0
LINE
8
BLACK
6
CONTINUOUS
10
103.183
20
-128.594
11
103.359
21
-128.611
0
LINE
8
BLACK
6
CONTINUOUS
10
122.155
20
-128.611
11
122.381
21
-128.68
0
LINE
8
BLACK
6
CONTINUOUS
10
122.381
20
-128.68
11
122.59
21
-128.791
0
LINE
8
BLACK
6
CONTINUOUS
10
122.59
20
-128.791
11
122.773
21
-128.941
0
LINE
8
BLACK
6
CONTINUOUS
10
122.773
20
-128.941
11
122.923
21
-129.124
0
LINE
8
BLACK
6
CONTINUOUS
10
122.923
20
-129.124
11
123.034
21
-129.333
0
LINE
8
BLACK
6
CONTINUOUS
10
123.034
20
-129.333
11
123.103
21
-129.559
0
LINE
8
BLACK
6
CONTINUOUS
10
123.103
20
-129.559
11
123.126
21
-129.794
0
LINE
8
BLACK
6
CONTINUOUS
10
123.126
20
-129.794
11
123.103
21
-130.029
0
LINE
8
BLACK
6
CONTINUOUS
10
123.103
20
-130.029
11
123.034
21
-130.255
0
LINE
8
BLACK
6
CONTINUOUS
10
123.034
20
-130.255
11
122.923
21
-130.464
0
LINE
8
BLACK
6
CONTINUOUS
10
122.923
20
-130.464
11
122.773
21
-130.647
0
LINE
8
BLACK
6
CONTINUOUS
10
122.773
20
-130.647
11
122.59
21
-130.797
0
LINE
8
BLACK
6
CONTINUOUS
10
122.59
20
-130.797
11
122.381
21
-130.908
0
LINE
8
BLACK
6
CONTINUOUS
10
122.381
20
-130.908
11
122.155
21
-130.977
0
LINE
8
BLACK
6
CONTINUOUS
10
122.155
20
-130.977
11
121.979
21
-130.994
0
LINE
8
BLACK
6
CONTINUOUS
10
121.979
20
-130.994
11
121.861
21
-130.994
0
LINE
8
BLACK
6
CONTINUOUS
10
121.861
20
-130.994
11
121.685
21
-130.977
0
LINE
8
BLACK
6
CONTINUOUS
10
121.685
20
-130.977
11
121.459
21
-130.908
0
LINE
8
BLACK
6
CONTINUOUS
10
121.459
20
-130.908
11
121.25
21
-130.797
0
LINE
8
BLACK
6
CONTINUOUS
10
121.25
20
-130.797
11
121.067
21
-130.647
0
LINE
8
BLACK
6
CONTINUOUS
10
121.067
20
-130.647
11
120.917
21
-130.464
0
LINE
8
BLACK
6
CONTINUOUS
10
120.917
20
-130.464
11
120.806
21
-130.255
0
LINE
8
BLACK
6
CONTINUOUS
10
120.806
20
-130.255
11
120.737
21
-130.029
0
LINE
8
BLACK
6
CONTINUOUS
10
120.737
20
-130.029
11
120.714
21
-129.794
0
LINE
8
BLACK
6
CONTINUOUS
10
120.714
20
-129.794
11
120.737
21
-129.559
0
LINE
8
BLACK
6
CONTINUOUS
10
120.737
20
-129.559
11
120.806
21
-129.333
0
LINE
8
BLACK
6
CONTINUOUS
10
120.806
20
-129.333
11
120.917
21
-129.124
0
LINE
8
BLACK
6
CONTINUOUS
10
120.917
20
-129.124
11
121.067
21
-128.941
0
LINE
8
BLACK
6
CONTINUOUS
10
121.067
20
-128.941
11
121.25
21
-128.791
0
LINE
8
BLACK
6
CONTINUOUS
10
121.25
20
-128.791
11
121.459
21
-128.68
0
LINE
8
BLACK
6
CONTINUOUS
10
121.459
20
-128.68
11
121.685
21
-128.611
0
LINE
8
BLACK
6
CONTINUOUS
10
121.685
20
-128.611
11
121.861
21
-128.594
0
LINE
8
BLACK
6
CONTINUOUS
10
121.861
20
-128.594
11
121.979
21
-128.594
0
LINE
8
BLACK
6
CONTINUOUS
10
121.979
20
-128.594
11
122.155
21
-128.611
0
LINE
8
BLACK
6
CONTINUOUS
10
99.6696
20
-130.494
11
97.9424
21
-130.494
0
LINE
8
BLACK
6
CONTINUOUS
10
97.9424
20
-130.494
11
97.9424
21
-129.094
0
LINE
8
BLACK
6
CONTINUOUS
10
97.9424
20
-129.094
11
99.6696
21
-129.094
0
LINE
8
BLACK
6
CONTINUOUS
10
99.6696
20
-129.094
11
99.6696
21
-130.494
0
LINE
8
BLACK
6
CONTINUOUS
10
140.854
20
-130.39
11
139.054
21
-130.39
0
LINE
8
BLACK
6
CONTINUOUS
10
139.054
20
-130.39
11
139.054
21
-128.69
0
LINE
8
BLACK
6
CONTINUOUS
10
139.054
20
-128.69
11
140.854
21
-128.69
0
LINE
8
BLACK
6
CONTINUOUS
10
140.854
20
-128.69
11
140.854
21
-130.39
0
LINE
8
BLACK
6
CONTINUOUS
10
133.742
20
-130.136
11
131.942
21
-130.136
0
LINE
8
BLACK
6
CONTINUOUS
10
131.942
20
-130.136
11
131.942
21
-128.436
0
LINE
8
BLACK
6
CONTINUOUS
10
131.942
20
-128.436
11
133.742
21
-128.436
0
LINE
8
BLACK
6
CONTINUOUS
10
133.742
20
-128.436
11
133.742
21
-130.136
0
LINE
8
BLACK
6
CONTINUOUS
10
147.93
20
-127.954
11
146.202
21
-127.954
0
LINE
8
BLACK
6
CONTINUOUS
10
146.202
20
-127.954
11
146.202
21
-126.554
0
LINE
8
BLACK
6
CONTINUOUS
10
146.202
20
-126.554
11
147.93
21
-126.554
0
LINE
8
BLACK
6
CONTINUOUS
10
147.93
20
-126.554
11
147.93
21
-127.954
0
LINE
8
BLACK
6
CONTINUOUS
10
99.6696
20
-127.954
11
97.9424
21
-127.954
0
LINE
8
BLACK
6
CONTINUOUS
10
97.9424
20
-127.954
11
97.9424
21
-126.554
0
LINE
8
BLACK
6
CONTINUOUS
10
97.9424
20
-126.554
11
99.6696
21
-126.554
0
LINE
8
BLACK
6
CONTINUOUS
10
99.6696
20
-126.554
11
99.6696
21
-127.954
0
LINE
8
BLACK
6
CONTINUOUS
10
140.854
20
-127.85
11
139.054
21
-127.85
0
LINE
8
BLACK
6
CONTINUOUS
10
139.054
20
-127.85
11
139.054
21
-126.15
0
LINE
8
BLACK
6
CONTINUOUS
10
139.054
20
-126.15
11
140.854
21
-126.15
0
LINE
8
BLACK
6
CONTINUOUS
10
140.854
20
-126.15
11
140.854
21
-127.85
0
LINE
8
BLACK
6
CONTINUOUS
10
133.742
20
-127.596
11
131.942
21
-127.596
0
LINE
8
BLACK
6
CONTINUOUS
10
131.942
20
-127.596
11
131.942
21
-125.896
0
LINE
8
BLACK
6
CONTINUOUS
10
131.942
20
-125.896
11
133.742
21
-125.896
0
LINE
8
BLACK
6
CONTINUOUS
10
133.742
20
-125.896
11
133.742
21
-127.596
0
LINE
8
BLACK
6
CONTINUOUS
10
103.474
20
-123.56
11
103.692
21
-123.651
0
LINE
8
BLACK
6
CONTINUOUS
10
103.692
20
-123.651
11
103.889
21
-123.782
0
LINE
8
BLACK
6
CONTINUOUS
10
103.889
20
-123.782
11
104.056
21
-123.949
0
LINE
8
BLACK
6
CONTINUOUS
10
104.056
20
-123.949
11
104.187
21
-124.146
0
LINE
8
BLACK
6
CONTINUOUS
10
104.187
20
-124.146
11
104.278
21
-124.364
0
LINE
8
BLACK
6
CONTINUOUS
10
104.278
20
-124.364
11
104.324
21
-124.596
0
LINE
8
BLACK
6
CONTINUOUS
10
104.324
20
-124.596
11
104.324
21
-124.832
0
LINE
8
BLACK
6
CONTINUOUS
10
104.324
20
-124.832
11
104.278
21
-125.064
0
LINE
8
BLACK
6
CONTINUOUS
10
104.278
20
-125.064
11
104.187
21
-125.282
0
LINE
8
BLACK
6
CONTINUOUS
10
104.187
20
-125.282
11
104.056
21
-125.479
0
LINE
8
BLACK
6
CONTINUOUS
10
104.056
20
-125.479
11
103.889
21
-125.646
0
LINE
8
BLACK
6
CONTINUOUS
10
103.889
20
-125.646
11
103.692
21
-125.777
0
LINE
8
BLACK
6
CONTINUOUS
10
103.692
20
-125.777
11
103.474
21
-125.868
0
LINE
8
BLACK
6
CONTINUOUS
10
103.474
20
-125.868
11
103.242
21
-125.914
0
LINE
8
BLACK
6
CONTINUOUS
10
103.242
20
-125.914
11
103.006
21
-125.914
0
LINE
8
BLACK
6
CONTINUOUS
10
103.006
20
-125.914
11
102.774
21
-125.868
0
LINE
8
BLACK
6
CONTINUOUS
10
102.774
20
-125.868
11
102.556
21
-125.777
0
LINE
8
BLACK
6
CONTINUOUS
10
102.556
20
-125.777
11
102.359
21
-125.646
0
LINE
8
BLACK
6
CONTINUOUS
10
102.359
20
-125.646
11
102.192
21
-125.479
0
LINE
8
BLACK
6
CONTINUOUS
10
102.192
20
-125.479
11
102.061
21
-125.282
0
LINE
8
BLACK
6
CONTINUOUS
10
102.061
20
-125.282
11
101.97
21
-125.064
0
LINE
8
BLACK
6
CONTINUOUS
10
101.97
20
-125.064
11
101.924
21
-124.832
0
LINE
8
BLACK
6
CONTINUOUS
10
101.924
20
-124.832
11
101.924
21
-124.596
0
LINE
8
BLACK
6
CONTINUOUS
10
101.924
20
-124.596
11
101.97
21
-124.364
0
LINE
8
BLACK
6
CONTINUOUS
10
101.97
20
-124.364
11
102.061
21
-124.146
0
LINE
8
BLACK
6
CONTINUOUS
10
102.061
20
-124.146
11
102.192
21
-123.949
0
LINE
8
BLACK
6
CONTINUOUS
10
102.192
20
-123.949
11
102.359
21
-123.782
0
LINE
8
BLACK
6
CONTINUOUS
10
102.359
20
-123.782
11
102.556
21
-123.651
0
LINE
8
BLACK
6
CONTINUOUS
10
102.556
20
-123.651
11
102.774
21
-123.56
0
LINE
8
BLACK
6
CONTINUOUS
10
102.774
20
-123.56
11
103.006
21
-123.514
0
LINE
8
BLACK
6
CONTINUOUS
10
103.006
20
-123.514
11
103.242
21
-123.514
0
LINE
8
BLACK
6
CONTINUOUS
10
103.242
20
-123.514
11
103.474
21
-123.56
0
LINE
8
BLACK
6
CONTINUOUS
10
108.046
20
-123.56
11
108.264
21
-123.651
0
LINE
8
BLACK
6
CONTINUOUS
10
108.264
20
-123.651
11
108.461
21
-123.782
0
LINE
8
BLACK
6
CONTINUOUS
10
108.461
20
-123.782
11
108.628
21
-123.949
0
LINE
8
BLACK
6
CONTINUOUS
10
108.628
20
-123.949
11
108.759
21
-124.146
0
LINE
8
BLACK
6
CONTINUOUS
10
108.759
20
-124.146
11
108.85
21
-124.364
0
LINE
8
BLACK
6
CONTINUOUS
10
108.85
20
-124.364
11
108.896
21
-124.596
0
LINE
8
BLACK
6
CONTINUOUS
10
108.896
20
-124.596
11
108.896
21
-124.832
0
LINE
8
BLACK
6
CONTINUOUS
10
108.896
20
-124.832
11
108.85
21
-125.064
0
LINE
8
BLACK
6
CONTINUOUS
10
108.85
20
-125.064
11
108.759
21
-125.282
0
LINE
8
BLACK
6
CONTINUOUS
10
108.759
20
-125.282
11
108.628
21
-125.479
0
LINE
8
BLACK
6
CONTINUOUS
10
108.628
20
-125.479
11
108.461
21
-125.646
0
LINE
8
BLACK
6
CONTINUOUS
10
108.461
20
-125.646
11
108.264
21
-125.777
0
LINE
8
BLACK
6
CONTINUOUS
10
108.264
20
-125.777
11
108.046
21
-125.868
0
LINE
8
BLACK
6
CONTINUOUS
10
108.046
20
-125.868
11
107.814
21
-125.914
0
LINE
8
BLACK
6
CONTINUOUS
10
107.814
20
-125.914
11
107.578
21
-125.914
0
LINE
8
BLACK
6
CONTINUOUS
10
107.578
20
-125.914
11
107.346
21
-125.868
0
LINE
8
BLACK
6
CONTINUOUS
10
107.346
20
-125.868
11
107.128
21
-125.777
0
LINE
8
BLACK
6
CONTINUOUS
10
107.128
20
-125.777
11
106.931
21
-125.646
0
LINE
8
BLACK
6
CONTINUOUS
10
106.931
20
-125.646
11
106.764
21
-125.479
0
LINE
8
BLACK
6
CONTINUOUS
10
106.764
20
-125.479
11
106.633
21
-125.282
0
LINE
8
BLACK
6
CONTINUOUS
10
106.633
20
-125.282
11
106.542
21
-125.064
0
LINE
8
BLACK
6
CONTINUOUS
10
106.542
20
-125.064
11
106.496
21
-124.832
0
LINE
8
BLACK
6
CONTINUOUS
10
106.496
20
-124.832
11
106.496
21
-124.596
0
LINE
8
BLACK
6
CONTINUOUS
10
106.496
20
-124.596
11
106.542
21
-124.364
0
LINE
8
BLACK
6
CONTINUOUS
10
106.542
20
-124.364
11
106.633
21
-124.146
0
LINE
8
BLACK
6
CONTINUOUS
10
106.633
20
-124.146
11
106.764
21
-123.949
0
LINE
8
BLACK
6
CONTINUOUS
10
106.764
20
-123.949
11
106.931
21
-123.782
0
LINE
8
BLACK
6
CONTINUOUS
10
106.931
20
-123.782
11
107.128
21
-123.651
0
LINE
8
BLACK
6
CONTINUOUS
10
107.128
20
-123.651
11
107.346
21
-123.56
0
LINE
8
BLACK
6
CONTINUOUS
10
107.346
20
-123.56
11
107.578
21
-123.514
0
LINE
8
BLACK
6
CONTINUOUS
10
107.578
20
-123.514
11
107.814
21
-123.514
0
LINE
8
BLACK
6
CONTINUOUS
10
107.814
20
-123.514
11
108.046
21
-123.56
0
LINE
8
BLACK
6
CONTINUOUS
10
122.27
20
-123.56
11
122.488
21
-123.651
0
LINE
8
BLACK
6
CONTINUOUS
10
122.488
20
-123.651
11
122.685
21
-123.782
0
LINE
8
BLACK
6
CONTINUOUS
10
122.685
20
-123.782
11
122.852
21
-123.949
0
LINE
8
BLACK
6
CONTINUOUS
10
122.852
20
-123.949
11
122.983
21
-124.146
0
LINE
8
BLACK
6
CONTINUOUS
10
122.983
20
-124.146
11
123.074
21
-124.364
0
LINE
8
BLACK
6
CONTINUOUS
10
123.074
20
-124.364
11
123.12
21
-124.596
0
LINE
8
BLACK
6
CONTINUOUS
10
123.12
20
-124.596
11
123.12
21
-124.832
0
LINE
8
BLACK
6
CONTINUOUS
10
123.12
20
-124.832
11
123.074
21
-125.064
0
LINE
8
BLACK
6
CONTINUOUS
10
123.074
20
-125.064
11
122.983
21
-125.282
0
LINE
8
BLACK
6
CONTINUOUS
10
122.983
20
-125.282
11
122.852
21
-125.479
0
LINE
8
BLACK
6
CONTINUOUS
10
122.852
20
-125.479
11
122.685
21
-125.646
0
LINE
8
BLACK
6
CONTINUOUS
10
122.685
20
-125.646
11
122.488
21
-125.777
0
LINE
8
BLACK
6
CONTINUOUS
10
122.488
20
-125.777
11
122.27
21
-125.868
0
LINE
8
BLACK
6
CONTINUOUS
10
122.27
20
-125.868
11
122.038
21
-125.914
0
LINE
8
BLACK
6
CONTINUOUS
10
122.038
20
-125.914
11
121.802
21
-125.914
0
LINE
8
BLACK
6
CONTINUOUS
10
121.802
20
-125.914
11
121.57
21
-125.868
0
LINE
8
BLACK
6
CONTINUOUS
10
121.57
20
-125.868
11
121.352
21
-125.777
0
LINE
8
BLACK
6
CONTINUOUS
10
121.352
20
-125.777
11
121.155
21
-125.646
0
LINE
8
BLACK
6
CONTINUOUS
10
121.155
20
-125.646
11
120.988
21
-125.479
0
LINE
8
BLACK
6
CONTINUOUS
10
120.988
20
-125.479
11
120.857
21
-125.282
0
LINE
8
BLACK
6
CONTINUOUS
10
120.857
20
-125.282
11
120.766
21
-125.064
0
LINE
8
BLACK
6
CONTINUOUS
10
120.766
20
-125.064
11
120.72
21
-124.832
0
LINE
8
BLACK
6
CONTINUOUS
10
120.72
20
-124.832
11
120.72
21
-124.596
0
LINE
8
BLACK
6
CONTINUOUS
10
120.72
20
-124.596
11
120.766
21
-124.364
0
LINE
8
BLACK
6
CONTINUOUS
10
120.766
20
-124.364
11
120.857
21
-124.146
0
LINE
8
BLACK
6
CONTINUOUS
10
120.857
20
-124.146
11
120.988
21
-123.949
0
LINE
8
BLACK
6
CONTINUOUS
10
120.988
20
-123.949
11
121.155
21
-123.782
0
LINE
8
BLACK
6
CONTINUOUS
10
121.155
20
-123.782
11
121.352
21
-123.651
0
LINE
8
BLACK
6
CONTINUOUS
10
121.352
20
-123.651
11
121.57
21
-123.56
0
LINE
8
BLACK
6
CONTINUOUS
10
121.57
20
-123.56
11
121.802
21
-123.514
0
LINE
8
BLACK
6
CONTINUOUS
10
121.802
20
-123.514
11
122.038
21
-123.514
0
LINE
8
BLACK
6
CONTINUOUS
10
122.038
20
-123.514
11
122.27
21
-123.56
0
LINE
8
BLACK
6
CONTINUOUS
10
112.618
20
-123.56
11
112.836
21
-123.651
0
LINE
8
BLACK
6
CONTINUOUS
10
112.836
20
-123.651
11
113.033
21
-123.782
0
LINE
8
BLACK
6
CONTINUOUS
10
113.033
20
-123.782
11
113.2
21
-123.949
0
LINE
8
BLACK
6
CONTINUOUS
10
113.2
20
-123.949
11
113.331
21
-124.146
0
LINE
8
BLACK
6
CONTINUOUS
10
113.331
20
-124.146
11
113.422
21
-124.364
0
LINE
8
BLACK
6
CONTINUOUS
10
113.422
20
-124.364
11
113.468
21
-124.596
0
LINE
8
BLACK
6
CONTINUOUS
10
113.468
20
-124.596
11
113.468
21
-124.832
0
LINE
8
BLACK
6
CONTINUOUS
10
113.468
20
-124.832
11
113.422
21
-125.064
0
LINE
8
BLACK
6
CONTINUOUS
10
113.422
20
-125.064
11
113.331
21
-125.282
0
LINE
8
BLACK
6
CONTINUOUS
10
113.331
20
-125.282
11
113.2
21
-125.479
0
LINE
8
BLACK
6
CONTINUOUS
10
113.2
20
-125.479
11
113.033
21
-125.646
0
LINE
8
BLACK
6
CONTINUOUS
10
113.033
20
-125.646
11
112.836
21
-125.777
0
LINE
8
BLACK
6
CONTINUOUS
10
112.836
20
-125.777
11
112.618
21
-125.868
0
LINE
8
BLACK
6
CONTINUOUS
10
112.618
20
-125.868
11
112.386
21
-125.914
0
LINE
8
BLACK
6
CONTINUOUS
10
112.386
20
-125.914
11
112.15
21
-125.914
0
LINE
8
BLACK
6
CONTINUOUS
10
112.15
20
-125.914
11
111.918
21
-125.868
0
LINE
8
BLACK
6
CONTINUOUS
10
111.918
20
-125.868
11
111.7
21
-125.777
0
LINE
8
BLACK
6
CONTINUOUS
10
111.7
20
-125.777
11
111.503
21
-125.646
0
LINE
8
BLACK
6
CONTINUOUS
10
111.503
20
-125.646
11
111.336
21
-125.479
0
LINE
8
BLACK
6
CONTINUOUS
10
111.336
20
-125.479
11
111.205
21
-125.282
0
LINE
8
BLACK
6
CONTINUOUS
10
111.205
20
-125.282
11
111.114
21
-125.064
0
LINE
8
BLACK
6
CONTINUOUS
10
111.114
20
-125.064
11
111.068
21
-124.832
0
LINE
8
BLACK
6
CONTINUOUS
10
111.068
20
-124.832
11
111.068
21
-124.596
0
LINE
8
BLACK
6
CONTINUOUS
10
111.068
20
-124.596
11
111.114
21
-124.364
0
LINE
8
BLACK
6
CONTINUOUS
10
111.114
20
-124.364
11
111.205
21
-124.146
0
LINE
8
BLACK
6
CONTINUOUS
10
111.205
20
-124.146
11
111.336
21
-123.949
0
LINE
8
BLACK
6
CONTINUOUS
10
111.336
20
-123.949
11
111.503
21
-123.782
0
LINE
8
BLACK
6
CONTINUOUS
10
111.503
20
-123.782
11
111.7
21
-123.651
0
LINE
8
BLACK
6
CONTINUOUS
10
111.7
20
-123.651
11
111.918
21
-123.56
0
LINE
8
BLACK
6
CONTINUOUS
10
111.918
20
-123.56
11
112.15
21
-123.514
0
LINE
8
BLACK
6
CONTINUOUS
10
112.15
20
-123.514
11
112.386
21
-123.514
0
LINE
8
BLACK
6
CONTINUOUS
10
112.386
20
-123.514
11
112.618
21
-123.56
0
LINE
8
BLACK
6
CONTINUOUS
10
117.444
20
-123.56
11
117.662
21
-123.651
0
LINE
8
BLACK
6
CONTINUOUS
10
117.662
20
-123.651
11
117.859
21
-123.782
0
LINE
8
BLACK
6
CONTINUOUS
10
117.859
20
-123.782
11
118.026
21
-123.949
0
LINE
8
BLACK
6
CONTINUOUS
10
118.026
20
-123.949
11
118.157
21
-124.146
0
LINE
8
BLACK
6
CONTINUOUS
10
118.157
20
-124.146
11
118.248
21
-124.364
0
LINE
8
BLACK
6
CONTINUOUS
10
118.248
20
-124.364
11
118.294
21
-124.596
0
LINE
8
BLACK
6
CONTINUOUS
10
118.294
20
-124.596
11
118.294
21
-124.832
0
LINE
8
BLACK
6
CONTINUOUS
10
118.294
20
-124.832
11
118.248
21
-125.064
0
LINE
8
BLACK
6
CONTINUOUS
10
118.248
20
-125.064
11
118.157
21
-125.282
0
LINE
8
BLACK
6
CONTINUOUS
10
118.157
20
-125.282
11
118.026
21
-125.479
0
LINE
8
BLACK
6
CONTINUOUS
10
118.026
20
-125.479
11
117.859
21
-125.646
0
LINE
8
BLACK
6
CONTINUOUS
10
117.859
20
-125.646
11
117.662
21
-125.777
0
LINE
8
BLACK
6
CONTINUOUS
10
117.662
20
-125.777
11
117.444
21
-125.868
0
LINE
8
BLACK
6
CONTINUOUS
10
117.444
20
-125.868
11
117.212
21
-125.914
0
LINE
8
BLACK
6
CONTINUOUS
10
117.212
20
-125.914
11
116.976
21
-125.914
0
LINE
8
BLACK
6
CONTINUOUS
10
116.976
20
-125.914
11
116.744
21
-125.868
0
LINE
8
BLACK
6
CONTINUOUS
10
116.744
20
-125.868
11
116.526
21
-125.777
0
LINE
8
BLACK
6
CONTINUOUS
10
116.526
20
-125.777
11
116.329
21
-125.646
0
LINE
8
BLACK
6
CONTINUOUS
10
116.329
20
-125.646
11
116.162
21
-125.479
0
LINE
8
BLACK
6
CONTINUOUS
10
116.162
20
-125.479
11
116.031
21
-125.282
0
LINE
8
BLACK
6
CONTINUOUS
10
116.031
20
-125.282
11
115.94
21
-125.064
0
LINE
8
BLACK
6
CONTINUOUS
10
115.94
20
-125.064
11
115.894
21
-124.832
0
LINE
8
BLACK
6
CONTINUOUS
10
115.894
20
-124.832
11
115.894
21
-124.596
0
LINE
8
BLACK
6
CONTINUOUS
10
115.894
20
-124.596
11
115.94
21
-124.364
0
LINE
8
BLACK
6
CONTINUOUS
10
115.94
20
-124.364
11
116.031
21
-124.146
0
LINE
8
BLACK
6
CONTINUOUS
10
116.031
20
-124.146
11
116.162
21
-123.949
0
LINE
8
BLACK
6
CONTINUOUS
10
116.162
20
-123.949
11
116.329
21
-123.782
0
LINE
8
BLACK
6
CONTINUOUS
10
116.329
20
-123.782
11
116.526
21
-123.651
0
LINE
8
BLACK
6
CONTINUOUS
10
116.526
20
-123.651
11
116.744
21
-123.56
0
LINE
8
BLACK
6
CONTINUOUS
10
116.744
20
-123.56
11
116.976
21
-123.514
0
LINE
8
BLACK
6
CONTINUOUS
10
116.976
20
-123.514
11
117.212
21
-123.514
0
LINE
8
BLACK
6
CONTINUOUS
10
117.212
20
-123.514
11
117.444
21
-123.56
0
LINE
8
BLACK
6
CONTINUOUS
10
147.93
20
-125.414
11
146.202
21
-125.414
0
LINE
8
BLACK
6
CONTINUOUS
10
146.202
20
-125.414
11
146.202
21
-124.014
0
LINE
8
BLACK
6
CONTINUOUS
10
146.202
20
-124.014
11
147.93
21
-124.014
0
LINE
8
BLACK
6
CONTINUOUS
10
147.93
20
-124.014
11
147.93
21
-125.414
0
LINE
8
BLACK
6
CONTINUOUS
10
99.6696
20
-125.414
11
97.9424
21
-125.414
0
LINE
8
BLACK
6
CONTINUOUS
10
97.9424
20
-125.414
11
97.9424
21
-124.014
0
LINE
8
BLACK
6
CONTINUOUS
10
97.9424
20
-124.014
11
99.6696
21
-124.014
0
LINE
8
BLACK
6
CONTINUOUS
10
99.6696
20
-124.014
11
99.6696
21
-125.414
0
LINE
8
BLACK
6
CONTINUOUS
10
140.854
20
-125.31
11
139.054
21
-125.31
0
LINE
8
BLACK
6
CONTINUOUS
10
139.054
20
-125.31
11
139.054
21
-123.61
0
LINE
8
BLACK
6
CONTINUOUS
10
139.054
20
-123.61
11
140.854
21
-123.61
0
LINE
8
BLACK
6
CONTINUOUS
10
140.854
20
-123.61
11
140.854
21
-125.31
0
LINE
8
BLACK
6
CONTINUOUS
10
133.742
20
-125.056
11
131.942
21
-125.056
0
LINE
8
BLACK
6
CONTINUOUS
10
131.942
20
-125.056
11
131.942
21
-123.356
0
LINE
8
BLACK
6
CONTINUOUS
10
131.942
20
-123.356
11
133.742
21
-123.356
0
LINE
8
BLACK
6
CONTINUOUS
10
133.742
20
-123.356
11
133.742
21
-125.056
0
LINE
8
BLACK
6
CONTINUOUS
10
147.93
20
-122.874
11
146.202
21
-122.874
0
LINE
8
BLACK
6
CONTINUOUS
10
146.202
20
-122.874
11
146.202
21
-121.474
0
LINE
8
BLACK
6
CONTINUOUS
10
146.202
20
-121.474
11
147.93
21
-121.474
0
LINE
8
BLACK
6
CONTINUOUS
10
147.93
20
-121.474
11
147.93
21
-122.874
0
LINE
8
BLACK
6
CONTINUOUS
10
99.6696
20
-122.874
11
97.9424
21
-122.874
0
LINE
8
BLACK
6
CONTINUOUS
10
97.9424
20
-122.874
11
97.9424
21
-121.474
0
LINE
8
BLACK
6
CONTINUOUS
10
97.9424
20
-121.474
11
99.6696
21
-121.474
0
LINE
8
BLACK
6
CONTINUOUS
10
99.6696
20
-121.474
11
99.6696
21
-122.874
0
LINE
8
BLACK
6
CONTINUOUS
10
140.854
20
-122.77
11
139.054
21
-122.77
0
LINE
8
BLACK
6
CONTINUOUS
10
139.054
20
-122.77
11
139.054
21
-121.07
0
LINE
8
BLACK
6
CONTINUOUS
10
139.054
20
-121.07
11
140.854
21
-121.07
0
LINE
8
BLACK
6
CONTINUOUS
10
140.854
20
-121.07
11
140.854
21
-122.77
0
LINE
8
BLACK
6
CONTINUOUS
10
133.742
20
-122.516
11
131.942
21
-122.516
0
LINE
8
BLACK
6
CONTINUOUS
10
131.942
20
-122.516
11
131.942
21
-120.816
0
LINE
8
BLACK
6
CONTINUOUS
10
131.942
20
-120.816
11
133.742
21
-120.816
0
LINE
8
BLACK
6
CONTINUOUS
10
133.742
20
-120.816
11
133.742
21
-122.516
0
LINE
8
BLACK
6
CONTINUOUS
10
99.6696
20
-120.334
11
97.9424
21
-120.334
0
LINE
8
BLACK
6
CONTINUOUS
10
97.9424
20
-120.334
11
97.9424
21
-118.934
0
LINE
8
BLACK
6
CONTINUOUS
10
97.9424
20
-118.934
11
99.6696
21
-118.934
0
LINE
8
BLACK
6
CONTINUOUS
10
99.6696
20
-118.934
11
99.6696
21
-120.334
0
LINE
8
BLACK
6
CONTINUOUS
10
147.93
20
-120.334
11
146.202
21
-120.334
0
LINE
8
BLACK
6
CONTINUOUS
10
146.202
20
-120.334
11
146.202
21
-118.934
0
LINE
8
BLACK
6
CONTINUOUS
10
146.202
20
-118.934
11
147.93
21
-118.934
0
LINE
8
BLACK
6
CONTINUOUS
10
147.93
20
-118.934
11
147.93
21
-120.334
0
LINE
8
BLACK
6
CONTINUOUS
10
140.854
20
-120.23
11
139.054
21
-120.23
0
LINE
8
BLACK
6
CONTINUOUS
10
139.054
20
-120.23
11
139.054
21
-118.53
0
LINE
8
BLACK
6
CONTINUOUS
10
139.054
20
-118.53
11
140.854
21
-118.53
0
LINE
8
BLACK
6
CONTINUOUS
10
140.854
20
-118.53
11
140.854
21
-120.23
0
LINE
8
BLACK
6
CONTINUOUS
10
133.742
20
-119.976
11
131.942
21
-119.976
0
LINE
8
BLACK
6
CONTINUOUS
10
131.942
20
-119.976
11
131.942
21
-118.276
0
LINE
8
BLACK
6
CONTINUOUS
10
131.942
20
-118.276
11
133.742
21
-118.276
0
LINE
8
BLACK
6
CONTINUOUS
10
133.742
20
-118.276
11
133.742
21
-119.976
0
LINE
8
BLACK
6
CONTINUOUS
10
115.951
20
-118.231
11
116.074
21
-118.269
0
LINE
8
BLACK
6
CONTINUOUS
10
116.074
20
-118.269
11
116.187
21
-118.329
0
LINE
8
BLACK
6
CONTINUOUS
10
116.187
20
-118.329
11
116.286
21
-118.41
0
LINE
8
BLACK
6
CONTINUOUS
10
116.286
20
-118.41
11
116.367
21
-118.509
0
LINE
8
BLACK
6
CONTINUOUS
10
116.367
20
-118.509
11
116.427
21
-118.622
0
LINE
8
BLACK
6
CONTINUOUS
10
116.427
20
-118.622
11
116.465
21
-118.745
0
LINE
8
BLACK
6
CONTINUOUS
10
116.465
20
-118.745
11
116.477
21
-118.872
0
LINE
8
BLACK
6
CONTINUOUS
10
116.477
20
-118.872
11
116.465
21
-118.999
0
LINE
8
BLACK
6
CONTINUOUS
10
116.465
20
-118.999
11
116.427
21
-119.122
0
LINE
8
BLACK
6
CONTINUOUS
10
116.427
20
-119.122
11
116.367
21
-119.235
0
LINE
8
BLACK
6
CONTINUOUS
10
116.367
20
-119.235
11
116.286
21
-119.334
0
LINE
8
BLACK
6
CONTINUOUS
10
116.286
20
-119.334
11
116.187
21
-119.415
0
LINE
8
BLACK
6
CONTINUOUS
10
116.187
20
-119.415
11
116.074
21
-119.475
0
LINE
8
BLACK
6
CONTINUOUS
10
116.074
20
-119.475
11
115.951
21
-119.513
0
LINE
8
BLACK
6
CONTINUOUS
10
115.951
20
-119.513
11
115.856
21
-119.522
0
LINE
8
BLACK
6
CONTINUOUS
10
115.856
20
-119.522
11
115.792
21
-119.522
0
LINE
8
BLACK
6
CONTINUOUS
10
115.792
20
-119.522
11
115.697
21
-119.513
0
LINE
8
BLACK
6
CONTINUOUS
10
115.697
20
-119.513
11
115.574
21
-119.475
0
LINE
8
BLACK
6
CONTINUOUS
10
115.574
20
-119.475
11
115.461
21
-119.415
0
LINE
8
BLACK
6
CONTINUOUS
10
115.461
20
-119.415
11
115.362
21
-119.334
0
LINE
8
BLACK
6
CONTINUOUS
10
115.362
20
-119.334
11
115.281
21
-119.235
0
LINE
8
BLACK
6
CONTINUOUS
10
115.281
20
-119.235
11
115.221
21
-119.122
0
LINE
8
BLACK
6
CONTINUOUS
10
115.221
20
-119.122
11
115.183
21
-118.999
0
LINE
8
BLACK
6
CONTINUOUS
10
115.183
20
-118.999
11
115.171
21
-118.872
0
LINE
8
BLACK
6
CONTINUOUS
10
115.171
20
-118.872
11
115.183
21
-118.745
0
LINE
8
BLACK
6
CONTINUOUS
10
115.183
20
-118.745
11
115.221
21
-118.622
0
LINE
8
BLACK
6
CONTINUOUS
10
115.221
20
-118.622
11
115.281
21
-118.509
0
LINE
8
BLACK
6
CONTINUOUS
10
115.281
20
-118.509
11
115.362
21
-118.41
0
LINE
8
BLACK
6
CONTINUOUS
10
115.362
20
-118.41
11
115.461
21
-118.329
0
LINE
8
BLACK
6
CONTINUOUS
10
115.461
20
-118.329
11
115.574
21
-118.269
0
LINE
8
BLACK
6
CONTINUOUS
10
115.574
20
-118.269
11
115.697
21
-118.231
0
LINE
8
BLACK
6
CONTINUOUS
10
115.697
20
-118.231
11
115.792
21
-118.222
0
LINE
8
BLACK
6
CONTINUOUS
10
115.792
20
-118.222
11
115.856
21
-118.222
0
LINE
8
BLACK
6
CONTINUOUS
10
115.856
20
-118.222
11
115.951
21
-118.231
0
LINE
8
BLACK
6
CONTINUOUS
10
111.887
20
-118.231
11
112.01
21
-118.269
0
LINE
8
BLACK
6
CONTINUOUS
10
112.01
20
-118.269
11
112.123
21
-118.329
0
LINE
8
BLACK
6
CONTINUOUS
10
112.123
20
-118.329
11
112.222
21
-118.41
0
LINE
8
BLACK
6
CONTINUOUS
10
112.222
20
-118.41
11
112.303
21
-118.509
0
LINE
8
BLACK
6
CONTINUOUS
10
112.303
20
-118.509
11
112.363
21
-118.622
0
LINE
8
BLACK
6
CONTINUOUS
10
112.363
20
-118.622
11
112.401
21
-118.745
0
LINE
8
BLACK
6
CONTINUOUS
10
112.401
20
-118.745
11
112.413
21
-118.872
0
LINE
8
BLACK
6
CONTINUOUS
10
112.413
20
-118.872
11
112.401
21
-118.999
0
LINE
8
BLACK
6
CONTINUOUS
10
112.401
20
-118.999
11
112.363
21
-119.122
0
LINE
8
BLACK
6
CONTINUOUS
10
112.363
20
-119.122
11
112.303
21
-119.235
0
LINE
8
BLACK
6
CONTINUOUS
10
112.303
20
-119.235
11
112.222
21
-119.334
0
LINE
8
BLACK
6
CONTINUOUS
10
112.222
20
-119.334
11
112.123
21
-119.415
0
LINE
8
BLACK
6
CONTINUOUS
10
112.123
20
-119.415
11
112.01
21
-119.475
0
LINE
8
BLACK
6
CONTINUOUS
10
112.01
20
-119.475
11
111.887
21
-119.513
0
LINE
8
BLACK
6
CONTINUOUS
10
111.887
20
-119.513
11
111.792
21
-119.522
0
LINE
8
BLACK
6
CONTINUOUS
10
111.792
20
-119.522
11
111.728
21
-119.522
0
LINE
8
BLACK
6
CONTINUOUS
10
111.728
20
-119.522
11
111.633
21
-119.513
0
LINE
8
BLACK
6
CONTINUOUS
10
111.633
20
-119.513
11
111.51
21
-119.475
0
LINE
8
BLACK
6
CONTINUOUS
10
111.51
20
-119.475
11
111.397
21
-119.415
0
LINE
8
BLACK
6
CONTINUOUS
10
111.397
20
-119.415
11
111.298
21
-119.334
0
LINE
8
BLACK
6
CONTINUOUS
10
111.298
20
-119.334
11
111.217
21
-119.235
0
LINE
8
BLACK
6
CONTINUOUS
10
111.217
20
-119.235
11
111.157
21
-119.122
0
LINE
8
BLACK
6
CONTINUOUS
10
111.157
20
-119.122
11
111.119
21
-118.999
0
LINE
8
BLACK
6
CONTINUOUS
10
111.119
20
-118.999
11
111.107
21
-118.872
0
LINE
8
BLACK
6
CONTINUOUS
10
111.107
20
-118.872
11
111.119
21
-118.745
0
LINE
8
BLACK
6
CONTINUOUS
10
111.119
20
-118.745
11
111.157
21
-118.622
0
LINE
8
BLACK
6
CONTINUOUS
10
111.157
20
-118.622
11
111.217
21
-118.509
0
LINE
8
BLACK
6
CONTINUOUS
10
111.217
20
-118.509
11
111.298
21
-118.41
0
LINE
8
BLACK
6
CONTINUOUS
10
111.298
20
-118.41
11
111.397
21
-118.329
0
LINE
8
BLACK
6
CONTINUOUS
10
111.397
20
-118.329
11
111.51
21
-118.269
0
LINE
8
BLACK
6
CONTINUOUS
10
111.51
20
-118.269
11
111.633
21
-118.231
0
LINE
8
BLACK
6
CONTINUOUS
10
111.633
20
-118.231
11
111.728
21
-118.222
0
LINE
8
BLACK
6
CONTINUOUS
10
111.728
20
-118.222
11
111.792
21
-118.222
0
LINE
8
BLACK
6
CONTINUOUS
10
111.792
20
-118.222
11
111.887
21
-118.231
0
LINE
8
BLACK
6
CONTINUOUS
10
103.759
20
-118.231
11
103.882
21
-118.269
0
LINE
8
BLACK
6
CONTINUOUS
10
103.882
20
-118.269
11
103.995
21
-118.329
0
LINE
8
BLACK
6
CONTINUOUS
10
103.995
20
-118.329
11
104.094
21
-118.41
0
LINE
8
BLACK
6
CONTINUOUS
10
104.094
20
-118.41
11
104.175
21
-118.509
0
LINE
8
BLACK
6
CONTINUOUS
10
104.175
20
-118.509
11
104.235
21
-118.622
0
LINE
8
BLACK
6
CONTINUOUS
10
104.235
20
-118.622
11
104.273
21
-118.745
0
LINE
8
BLACK
6
CONTINUOUS
10
104.273
20
-118.745
11
104.285
21
-118.872
0
LINE
8
BLACK
6
CONTINUOUS
10
104.285
20
-118.872
11
104.273
21
-118.999
0
LINE
8
BLACK
6
CONTINUOUS
10
104.273
20
-118.999
11
104.235
21
-119.122
0
LINE
8
BLACK
6
CONTINUOUS
10
104.235
20
-119.122
11
104.175
21
-119.235
0
LINE
8
BLACK
6
CONTINUOUS
10
104.175
20
-119.235
11
104.094
21
-119.334
0
LINE
8
BLACK
6
CONTINUOUS
10
104.094
20
-119.334
11
103.995
21
-119.415
0
LINE
8
BLACK
6
CONTINUOUS
10
103.995
20
-119.415
11
103.882
21
-119.475
0
LINE
8
BLACK
6
CONTINUOUS
10
103.882
20
-119.475
11
103.759
21
-119.513
0
LINE
8
BLACK
6
CONTINUOUS
10
103.759
20
-119.513
11
103.664
21
-119.522
0
LINE
8
BLACK
6
CONTINUOUS
10
103.664
20
-119.522
11
103.6
21
-119.522
0
LINE
8
BLACK
6
CONTINUOUS
10
103.6
20
-119.522
11
103.505
21
-119.513
0
LINE
8
BLACK
6
CONTINUOUS
10
103.505
20
-119.513
11
103.382
21
-119.475
0
LINE
8
BLACK
6
CONTINUOUS
10
103.382
20
-119.475
11
103.269
21
-119.415
0
LINE
8
BLACK
6
CONTINUOUS
10
103.269
20
-119.415
11
103.17
21
-119.334
0
LINE
8
BLACK
6
CONTINUOUS
10
103.17
20
-119.334
11
103.089
21
-119.235
0
LINE
8
BLACK
6
CONTINUOUS
10
103.089
20
-119.235
11
103.029
21
-119.122
0
LINE
8
BLACK
6
CONTINUOUS
10
103.029
20
-119.122
11
102.991
21
-118.999
0
LINE
8
BLACK
6
CONTINUOUS
10
102.991
20
-118.999
11
102.979
21
-118.872
0
LINE
8
BLACK
6
CONTINUOUS
10
102.979
20
-118.872
11
102.991
21
-118.745
0
LINE
8
BLACK
6
CONTINUOUS
10
102.991
20
-118.745
11
103.029
21
-118.622
0
LINE
8
BLACK
6
CONTINUOUS
10
103.029
20
-118.622
11
103.089
21
-118.509
0
LINE
8
BLACK
6
CONTINUOUS
10
103.089
20
-118.509
11
103.17
21
-118.41
0
LINE
8
BLACK
6
CONTINUOUS
10
103.17
20
-118.41
11
103.269
21
-118.329
0
LINE
8
BLACK
6
CONTINUOUS
10
103.269
20
-118.329
11
103.382
21
-118.269
0
LINE
8
BLACK
6
CONTINUOUS
10
103.382
20
-118.269
11
103.505
21
-118.231
0
LINE
8
BLACK
6
CONTINUOUS
10
103.505
20
-118.231
11
103.6
21
-118.222
0
LINE
8
BLACK
6
CONTINUOUS
10
103.6
20
-118.222
11
103.664
21
-118.222
0
LINE
8
BLACK
6
CONTINUOUS
10
103.664
20
-118.222
11
103.759
21
-118.231
0
LINE
8
BLACK
6
CONTINUOUS
10
119.253
20
-118.231
11
119.376
21
-118.269
0
LINE
8
BLACK
6
CONTINUOUS
10
119.376
20
-118.269
11
119.489
21
-118.329
0
LINE
8
BLACK
6
CONTINUOUS
10
119.489
20
-118.329
11
119.588
21
-118.41
0
LINE
8
BLACK
6
CONTINUOUS
10
119.588
20
-118.41
11
119.669
21
-118.509
0
LINE
8
BLACK
6
CONTINUOUS
10
119.669
20
-118.509
11
119.729
21
-118.622
0
LINE
8
BLACK
6
CONTINUOUS
10
119.729
20
-118.622
11
119.767
21
-118.745
0
LINE
8
BLACK
6
CONTINUOUS
10
119.767
20
-118.745
11
119.779
21
-118.872
0
LINE
8
BLACK
6
CONTINUOUS
10
119.779
20
-118.872
11
119.767
21
-118.999
0
LINE
8
BLACK
6
CONTINUOUS
10
119.767
20
-118.999
11
119.729
21
-119.122
0
LINE
8
BLACK
6
CONTINUOUS
10
119.729
20
-119.122
11
119.669
21
-119.235
0
LINE
8
BLACK
6
CONTINUOUS
10
119.669
20
-119.235
11
119.588
21
-119.334
0
LINE
8
BLACK
6
CONTINUOUS
10
119.588
20
-119.334
11
119.489
21
-119.415
0
LINE
8
BLACK
6
CONTINUOUS
10
119.489
20
-119.415
11
119.376
21
-119.475
0
LINE
8
BLACK
6
CONTINUOUS
10
119.376
20
-119.475
11
119.253
21
-119.513
0
LINE
8
BLACK
6
CONTINUOUS
10
119.253
20
-119.513
11
119.158
21
-119.522
0
LINE
8
BLACK
6
CONTINUOUS
10
119.158
20
-119.522
11
119.094
21
-119.522
0
LINE
8
BLACK
6
CONTINUOUS
10
119.094
20
-119.522
11
118.999
21
-119.513
0
LINE
8
BLACK
6
CONTINUOUS
10
118.999
20
-119.513
11
118.876
21
-119.475
0
LINE
8
BLACK
6
CONTINUOUS
10
118.876
20
-119.475
11
118.763
21
-119.415
0
LINE
8
BLACK
6
CONTINUOUS
10
118.763
20
-119.415
11
118.664
21
-119.334
0
LINE
8
BLACK
6
CONTINUOUS
10
118.664
20
-119.334
11
118.583
21
-119.235
0
LINE
8
BLACK
6
CONTINUOUS
10
118.583
20
-119.235
11
118.523
21
-119.122
0
LINE
8
BLACK
6
CONTINUOUS
10
118.523
20
-119.122
11
118.485
21
-118.999
0
LINE
8
BLACK
6
CONTINUOUS
10
118.485
20
-118.999
11
118.473
21
-118.872
0
LINE
8
BLACK
6
CONTINUOUS
10
118.473
20
-118.872
11
118.485
21
-118.745
0
LINE
8
BLACK
6
CONTINUOUS
10
118.485
20
-118.745
11
118.523
21
-118.622
0
LINE
8
BLACK
6
CONTINUOUS
10
118.523
20
-118.622
11
118.583
21
-118.509
0
LINE
8
BLACK
6
CONTINUOUS
10
118.583
20
-118.509
11
118.664
21
-118.41
0
LINE
8
BLACK
6
CONTINUOUS
10
118.664
20
-118.41
11
118.763
21
-118.329
0
LINE
8
BLACK
6
CONTINUOUS
10
118.763
20
-118.329
11
118.876
21
-118.269
0
LINE
8
BLACK
6
CONTINUOUS
10
118.876
20
-118.269
11
118.999
21
-118.231
0
LINE
8
BLACK
6
CONTINUOUS
10
118.999
20
-118.231
11
119.094
21
-118.222
0
LINE
8
BLACK
6
CONTINUOUS
10
119.094
20
-118.222
11
119.158
21
-118.222
0
LINE
8
BLACK
6
CONTINUOUS
10
119.158
20
-118.222
11
119.253
21
-118.231
0
LINE
8
BLACK
6
CONTINUOUS
10
107.569
20
-118.231
11
107.692
21
-118.269
0
LINE
8
BLACK
6
CONTINUOUS
10
107.692
20
-118.269
11
107.805
21
-118.329
0
LINE
8
BLACK
6
CONTINUOUS
10
107.805
20
-118.329
11
107.904
21
-118.41
0
LINE
8
BLACK
6
CONTINUOUS
10
107.904
20
-118.41
11
107.985
21
-118.509
0
LINE
8
BLACK
6
CONTINUOUS
10
107.985
20
-118.509
11
108.045
21
-118.622
0
LINE
8
BLACK
6
CONTINUOUS
10
108.045
20
-118.622
11
108.083
21
-118.745
0
LINE
8
BLACK
6
CONTINUOUS
10
108.083
20
-118.745
11
108.095
21
-118.872
0
LINE
8
BLACK
6
CONTINUOUS
10
108.095
20
-118.872
11
108.083
21
-118.999
0
LINE
8
BLACK
6
CONTINUOUS
10
108.083
20
-118.999
11
108.045
21
-119.122
0
LINE
8
BLACK
6
CONTINUOUS
10
108.045
20
-119.122
11
107.985
21
-119.235
0
LINE
8
BLACK
6
CONTINUOUS
10
107.985
20
-119.235
11
107.904
21
-119.334
0
LINE
8
BLACK
6
CONTINUOUS
10
107.904
20
-119.334
11
107.805
21
-119.415
0
LINE
8
BLACK
6
CONTINUOUS
10
107.805
20
-119.415
11
107.692
21
-119.475
0
LINE
8
BLACK
6
CONTINUOUS
10
107.692
20
-119.475
11
107.569
21
-119.513
0
LINE
8
BLACK
6
CONTINUOUS
10
107.569
20
-119.513
11
107.474
21
-119.522
0
LINE
8
BLACK
6
CONTINUOUS
10
107.474
20
-119.522
11
107.41
21
-119.522
0
LINE
8
BLACK
6
CONTINUOUS
10
107.41
20
-119.522
11
107.315
21
-119.513
0
LINE
8
BLACK
6
CONTINUOUS
10
107.315
20
-119.513
11
107.192
21
-119.475
0
LINE
8
BLACK
6
CONTINUOUS
10
107.192
20
-119.475
11
107.079
21
-119.415
0
LINE
8
BLACK
6
CONTINUOUS
10
107.079
20
-119.415
11
106.98
21
-119.334
0
LINE
8
BLACK
6
CONTINUOUS
10
106.98
20
-119.334
11
106.899
21
-119.235
0
LINE
8
BLACK
6
CONTINUOUS
10
106.899
20
-119.235
11
106.839
21
-119.122
0
LINE
8
BLACK
6
CONTINUOUS
10
106.839
20
-119.122
11
106.801
21
-118.999
0
LINE
8
BLACK
6
CONTINUOUS
10
106.801
20
-118.999
11
106.789
21
-118.872
0
LINE
8
BLACK
6
CONTINUOUS
10
106.789
20
-118.872
11
106.801
21
-118.745
0
LINE
8
BLACK
6
CONTINUOUS
10
106.801
20
-118.745
11
106.839
21
-118.622
0
LINE
8
BLACK
6
CONTINUOUS
10
106.839
20
-118.622
11
106.899
21
-118.509
0
LINE
8
BLACK
6
CONTINUOUS
10
106.899
20
-118.509
11
106.98
21
-118.41
0
LINE
8
BLACK
6
CONTINUOUS
10
106.98
20
-118.41
11
107.079
21
-118.329
0
LINE
8
BLACK
6
CONTINUOUS
10
107.079
20
-118.329
11
107.192
21
-118.269
0
LINE
8
BLACK
6
CONTINUOUS
10
107.192
20
-118.269
11
107.315
21
-118.231
0
LINE
8
BLACK
6
CONTINUOUS
10
107.315
20
-118.231
11
107.41
21
-118.222
0
LINE
8
BLACK
6
CONTINUOUS
10
107.41
20
-118.222
11
107.474
21
-118.222
0
LINE
8
BLACK
6
CONTINUOUS
10
107.474
20
-118.222
11
107.569
21
-118.231
0
LINE
8
BLACK
6
CONTINUOUS
10
147.93
20
-117.794
11
146.202
21
-117.794
0
LINE
8
BLACK
6
CONTINUOUS
10
146.202
20
-117.794
11
146.202
21
-116.394
0
LINE
8
BLACK
6
CONTINUOUS
10
146.202
20
-116.394
11
147.93
21
-116.394
0
LINE
8
BLACK
6
CONTINUOUS
10
147.93
20
-116.394
11
147.93
21
-117.794
0
LINE
8
BLACK
6
CONTINUOUS
10
99.6696
20
-117.794
11
97.9424
21
-117.794
0
LINE
8
BLACK
6
CONTINUOUS
10
97.9424
20
-117.794
11
97.9424
21
-116.394
0
LINE
8
BLACK
6
CONTINUOUS
10
97.9424
20
-116.394
11
99.6696
21
-116.394
0
LINE
8
BLACK
6
CONTINUOUS
10
99.6696
20
-116.394
11
99.6696
21
-117.794
0
LINE
8
BLACK
6
CONTINUOUS
10
140.804
20
-117.69
11
139.104
21
-117.69
0
LINE
8
BLACK
6
CONTINUOUS
10
139.104
20
-117.69
11
139.104
21
-115.99
0
LINE
8
BLACK
6
CONTINUOUS
10
139.104
20
-115.99
11
140.804
21
-115.99
0
LINE
8
BLACK
6
CONTINUOUS
10
140.804
20
-115.99
11
140.804
21
-117.69
0
LINE
8
BLACK
6
CONTINUOUS
10
133.742
20
-117.436
11
131.942
21
-117.436
0
LINE
8
BLACK
6
CONTINUOUS
10
131.942
20
-117.436
11
131.942
21
-115.736
0
LINE
8
BLACK
6
CONTINUOUS
10
131.942
20
-115.736
11
133.742
21
-115.736
0
LINE
8
BLACK
6
CONTINUOUS
10
133.742
20
-115.736
11
133.742
21
-117.436
0
LINE
8
BLACK
6
CONTINUOUS
10
119.776
20
-116.982
11
118.476
21
-116.982
0
LINE
8
BLACK
6
CONTINUOUS
10
118.476
20
-116.982
11
118.476
21
-115.682
0
LINE
8
BLACK
6
CONTINUOUS
10
118.476
20
-115.682
11
119.776
21
-115.682
0
LINE
8
BLACK
6
CONTINUOUS
10
119.776
20
-115.682
11
119.776
21
-116.982
0
LINE
8
BLACK
6
CONTINUOUS
10
112.41
20
-116.982
11
111.11
21
-116.982
0
LINE
8
BLACK
6
CONTINUOUS
10
111.11
20
-116.982
11
111.11
21
-115.682
0
LINE
8
BLACK
6
CONTINUOUS
10
111.11
20
-115.682
11
112.41
21
-115.682
0
LINE
8
BLACK
6
CONTINUOUS
10
112.41
20
-115.682
11
112.41
21
-116.982
0
LINE
8
BLACK
6
CONTINUOUS
10
116.474
20
-116.982
11
115.174
21
-116.982
0
LINE
8
BLACK
6
CONTINUOUS
10
115.174
20
-116.982
11
115.174
21
-115.682
0
LINE
8
BLACK
6
CONTINUOUS
10
115.174
20
-115.682
11
116.474
21
-115.682
0
LINE
8
BLACK
6
CONTINUOUS
10
116.474
20
-115.682
11
116.474
21
-116.982
0
LINE
8
BLACK
6
CONTINUOUS
10
108.092
20
-116.982
11
106.792
21
-116.982
0
LINE
8
BLACK
6
CONTINUOUS
10
106.792
20
-116.982
11
106.792
21
-115.682
0
LINE
8
BLACK
6
CONTINUOUS
10
106.792
20
-115.682
11
108.092
21
-115.682
0
LINE
8
BLACK
6
CONTINUOUS
10
108.092
20
-115.682
11
108.092
21
-116.982
0
LINE
8
BLACK
6
CONTINUOUS
10
104.282
20
-116.982
11
102.982
21
-116.982
0
LINE
8
BLACK
6
CONTINUOUS
10
102.982
20
-116.982
11
102.982
21
-115.682
0
LINE
8
BLACK
6
CONTINUOUS
10
102.982
20
-115.682
11
104.282
21
-115.682
0
LINE
8
BLACK
6
CONTINUOUS
10
104.282
20
-115.682
11
104.282
21
-116.982
0
LINE
8
BLACK
6
CONTINUOUS
10
147.93
20
-115.254
11
146.202
21
-115.254
0
LINE
8
BLACK
6
CONTINUOUS
10
146.202
20
-115.254
11
146.202
21
-113.854
0
LINE
8
BLACK
6
CONTINUOUS
10
146.202
20
-113.854
11
147.93
21
-113.854
0
LINE
8
BLACK
6
CONTINUOUS
10
147.93
20
-113.854
11
147.93
21
-115.254
0
LINE
8
BLACK
6
CONTINUOUS
10
99.6696
20
-115.254
11
97.9424
21
-115.254
0
LINE
8
BLACK
6
CONTINUOUS
10
97.9424
20
-115.254
11
97.9424
21
-113.854
0
LINE
8
BLACK
6
CONTINUOUS
10
97.9424
20
-113.854
11
99.6696
21
-113.854
0
LINE
8
BLACK
6
CONTINUOUS
10
99.6696
20
-113.854
11
99.6696
21
-115.254
0
LINE
8
BLACK
6
CONTINUOUS
10
147.93
20
-112.714
11
146.202
21
-112.714
0
LINE
8
BLACK
6
CONTINUOUS
10
146.202
20
-112.714
11
146.202
21
-111.314
0
LINE
8
BLACK
6
CONTINUOUS
10
146.202
20
-111.314
11
147.93
21
-111.314
0
LINE
8
BLACK
6
CONTINUOUS
10
147.93
20
-111.314
11
147.93
21
-112.714
0
LINE
8
BLACK
6
CONTINUOUS
10
141.108
20
-112.356
11
139.308
21
-112.356
0
LINE
8
BLACK
6
CONTINUOUS
10
139.308
20
-112.356
11
139.308
21
-110.656
0
LINE
8
BLACK
6
CONTINUOUS
10
139.308
20
-110.656
11
141.108
21
-110.656
0
LINE
8
BLACK
6
CONTINUOUS
10
141.108
20
-110.656
11
141.108
21
-112.356
0
LINE
8
BLACK
6
CONTINUOUS
10
99.656
20
-110.424
11
97.956
21
-110.424
0
LINE
8
BLACK
6
CONTINUOUS
10
97.956
20
-110.424
11
97.956
21
-108.524
0
LINE
8
BLACK
6
CONTINUOUS
10
97.956
20
-108.524
11
99.656
21
-108.524
0
LINE
8
BLACK
6
CONTINUOUS
10
99.656
20
-108.524
11
99.656
21
-110.424
0
LINE
8
BLACK
6
CONTINUOUS
10
147.93
20
-110.174
11
146.202
21
-110.174
0
LINE
8
BLACK
6
CONTINUOUS
10
146.202
20
-110.174
11
146.202
21
-108.774
0
LINE
8
BLACK
6
CONTINUOUS
10
146.202
20
-108.774
11
147.93
21
-108.774
0
LINE
8
BLACK
6
CONTINUOUS
10
147.93
20
-108.774
11
147.93
21
-110.174
0
LINE
8
BLACK
6
CONTINUOUS
10
141.108
20
-109.816
11
139.308
21
-109.816
0
LINE
8
BLACK
6
CONTINUOUS
10
139.308
20
-109.816
11
139.308
21
-108.116
0
LINE
8
BLACK
6
CONTINUOUS
10
139.308
20
-108.116
11
141.108
21
-108.116
0
LINE
8
BLACK
6
CONTINUOUS
10
141.108
20
-108.116
11
141.108
21
-109.816
0
LINE
8
BLACK
6
CONTINUOUS
10
99.656
20
-107.884
11
97.956
21
-107.884
0
LINE
8
BLACK
6
CONTINUOUS
10
97.956
20
-107.884
11
97.956
21
-105.984
0
LINE
8
BLACK
6
CONTINUOUS
10
97.956
20
-105.984
11
99.656
21
-105.984
0
LINE
8
BLACK
6
CONTINUOUS
10
99.656
20
-105.984
11
99.656
21
-107.884
0
LINE
8
BLACK
6
CONTINUOUS
10
127.85
20
-107.376
11
126.15
21
-107.376
0
LINE
8
BLACK
6
CONTINUOUS
10
126.15
20
-107.376
11
126.15
21
-105.476
0
LINE
8
BLACK
6
CONTINUOUS
10
126.15
20
-105.476
11
127.85
21
-105.476
0
LINE
8
BLACK
6
CONTINUOUS
10
127.85
20
-105.476
11
127.85
21
-107.376
0
LINE
8
BLACK
6
CONTINUOUS
10
130.39
20
-107.376
11
128.69
21
-107.376
0
LINE
8
BLACK
6
CONTINUOUS
10
128.69
20
-107.376
11
128.69
21
-105.476
0
LINE
8
BLACK
6
CONTINUOUS
10
128.69
20
-105.476
11
130.39
21
-105.476
0
LINE
8
BLACK
6
CONTINUOUS
10
130.39
20
-105.476
11
130.39
21
-107.376
0
LINE
8
BLACK
6
CONTINUOUS
10
125.31
20
-107.376
11
123.61
21
-107.376
0
LINE
8
BLACK
6
CONTINUOUS
10
123.61
20
-107.376
11
123.61
21
-105.476
0
LINE
8
BLACK
6
CONTINUOUS
10
123.61
20
-105.476
11
125.31
21
-105.476
0
LINE
8
BLACK
6
CONTINUOUS
10
125.31
20
-105.476
11
125.31
21
-107.376
0
LINE
8
BLACK
6
CONTINUOUS
10
122.77
20
-107.376
11
121.07
21
-107.376
0
LINE
8
BLACK
6
CONTINUOUS
10
121.07
20
-107.376
11
121.07
21
-105.476
0
LINE
8
BLACK
6
CONTINUOUS
10
121.07
20
-105.476
11
122.77
21
-105.476
0
LINE
8
BLACK
6
CONTINUOUS
10
122.77
20
-105.476
11
122.77
21
-107.376
0
LINE
8
BLACK
6
CONTINUOUS
10
117.69
20
-107.376
11
115.99
21
-107.376
0
LINE
8
BLACK
6
CONTINUOUS
10
115.99
20
-107.376
11
115.99
21
-105.476
0
LINE
8
BLACK
6
CONTINUOUS
10
115.99
20
-105.476
11
117.69
21
-105.476
0
LINE
8
BLACK
6
CONTINUOUS
10
117.69
20
-105.476
11
117.69
21
-107.376
0
LINE
8
BLACK
6
CONTINUOUS
10
120.23
20
-107.376
11
118.53
21
-107.376
0
LINE
8
BLACK
6
CONTINUOUS
10
118.53
20
-107.376
11
118.53
21
-105.476
0
LINE
8
BLACK
6
CONTINUOUS
10
118.53
20
-105.476
11
120.23
21
-105.476
0
LINE
8
BLACK
6
CONTINUOUS
10
120.23
20
-105.476
11
120.23
21
-107.376
0
LINE
8
BLACK
6
CONTINUOUS
10
141.108
20
-107.276
11
139.308
21
-107.276
0
LINE
8
BLACK
6
CONTINUOUS
10
139.308
20
-107.276
11
139.308
21
-105.576
0
LINE
8
BLACK
6
CONTINUOUS
10
139.308
20
-105.576
11
141.108
21
-105.576
0
LINE
8
BLACK
6
CONTINUOUS
10
141.108
20
-105.576
11
141.108
21
-107.276
0
LINE
8
BLACK
6
CONTINUOUS
10
99.656
20
-105.344
11
97.956
21
-105.344
0
LINE
8
BLACK
6
CONTINUOUS
10
97.956
20
-105.344
11
97.956
21
-103.444
0
LINE
8
BLACK
6
CONTINUOUS
10
97.956
20
-103.444
11
99.656
21
-103.444
0
LINE
8
BLACK
6
CONTINUOUS
10
99.656
20
-103.444
11
99.656
21
-105.344
0
LINE
8
BLACK
6
CONTINUOUS
10
147.916
20
-105.344
11
146.216
21
-105.344
0
LINE
8
BLACK
6
CONTINUOUS
10
146.216
20
-105.344
11
146.216
21
-103.444
0
LINE
8
BLACK
6
CONTINUOUS
10
146.216
20
-103.444
11
147.916
21
-103.444
0
LINE
8
BLACK
6
CONTINUOUS
10
147.916
20
-103.444
11
147.916
21
-105.344
0
LINE
8
BLACK
6
CONTINUOUS
10
108.625
20
-103.556
11
108.785
21
-103.605
0
LINE
8
BLACK
6
CONTINUOUS
10
108.785
20
-103.605
11
108.933
21
-103.684
0
LINE
8
BLACK
6
CONTINUOUS
10
108.933
20
-103.684
11
109.062
21
-103.79
0
LINE
8
BLACK
6
CONTINUOUS
10
109.062
20
-103.79
11
109.168
21
-103.919
0
LINE
8
BLACK
6
CONTINUOUS
10
109.168
20
-103.919
11
109.247
21
-104.067
0
LINE
8
BLACK
6
CONTINUOUS
10
109.247
20
-104.067
11
109.296
21
-104.227
0
LINE
8
BLACK
6
CONTINUOUS
10
109.296
20
-104.227
11
109.312
21
-104.394
0
LINE
8
BLACK
6
CONTINUOUS
10
109.312
20
-104.394
11
109.296
21
-104.561
0
LINE
8
BLACK
6
CONTINUOUS
10
109.296
20
-104.561
11
109.247
21
-104.721
0
LINE
8
BLACK
6
CONTINUOUS
10
109.247
20
-104.721
11
109.168
21
-104.869
0
LINE
8
BLACK
6
CONTINUOUS
10
109.168
20
-104.869
11
109.062
21
-104.998
0
LINE
8
BLACK
6
CONTINUOUS
10
109.062
20
-104.998
11
108.933
21
-105.104
0
LINE
8
BLACK
6
CONTINUOUS
10
108.933
20
-105.104
11
108.785
21
-105.183
0
LINE
8
BLACK
6
CONTINUOUS
10
108.785
20
-105.183
11
108.625
21
-105.232
0
LINE
8
BLACK
6
CONTINUOUS
10
108.625
20
-105.232
11
108.5
21
-105.244
0
LINE
8
BLACK
6
CONTINUOUS
10
108.5
20
-105.244
11
108.416
21
-105.244
0
LINE
8
BLACK
6
CONTINUOUS
10
108.416
20
-105.244
11
108.291
21
-105.232
0
LINE
8
BLACK
6
CONTINUOUS
10
108.291
20
-105.232
11
108.131
21
-105.183
0
LINE
8
BLACK
6
CONTINUOUS
10
108.131
20
-105.183
11
107.983
21
-105.104
0
LINE
8
BLACK
6
CONTINUOUS
10
107.983
20
-105.104
11
107.854
21
-104.998
0
LINE
8
BLACK
6
CONTINUOUS
10
107.854
20
-104.998
11
107.748
21
-104.869
0
LINE
8
BLACK
6
CONTINUOUS
10
107.748
20
-104.869
11
107.669
21
-104.721
0
LINE
8
BLACK
6
CONTINUOUS
10
107.669
20
-104.721
11
107.62
21
-104.561
0
LINE
8
BLACK
6
CONTINUOUS
10
107.62
20
-104.561
11
107.604
21
-104.394
0
LINE
8
BLACK
6
CONTINUOUS
10
107.604
20
-104.394
11
107.62
21
-104.227
0
LINE
8
BLACK
6
CONTINUOUS
10
107.62
20
-104.227
11
107.669
21
-104.067
0
LINE
8
BLACK
6
CONTINUOUS
10
107.669
20
-104.067
11
107.748
21
-103.919
0
LINE
8
BLACK
6
CONTINUOUS
10
107.748
20
-103.919
11
107.854
21
-103.79
0
LINE
8
BLACK
6
CONTINUOUS
10
107.854
20
-103.79
11
107.983
21
-103.684
0
LINE
8
BLACK
6
CONTINUOUS
10
107.983
20
-103.684
11
108.131
21
-103.605
0
LINE
8
BLACK
6
CONTINUOUS
10
108.131
20
-103.605
11
108.291
21
-103.556
0
LINE
8
BLACK
6
CONTINUOUS
10
108.291
20
-103.556
11
108.416
21
-103.544
0
LINE
8
BLACK
6
CONTINUOUS
10
108.416
20
-103.544
11
108.5
21
-103.544
0
LINE
8
BLACK
6
CONTINUOUS
10
108.5
20
-103.544
11
108.625
21
-103.556
0
LINE
8
BLACK
6
CONTINUOUS
10
106.085
20
-103.556
11
106.245
21
-103.605
0
LINE
8
BLACK
6
CONTINUOUS
10
106.245
20
-103.605
11
106.393
21
-103.684
0
LINE
8
BLACK
6
CONTINUOUS
10
106.393
20
-103.684
11
106.522
21
-103.79
0
LINE
8
BLACK
6
CONTINUOUS
10
106.522
20
-103.79
11
106.628
21
-103.919
0
LINE
8
BLACK
6
CONTINUOUS
10
106.628
20
-103.919
11
106.707
21
-104.067
0
LINE
8
BLACK
6
CONTINUOUS
10
106.707
20
-104.067
11
106.756
21
-104.227
0
LINE
8
BLACK
6
CONTINUOUS
10
106.756
20
-104.227
11
106.772
21
-104.394
0
LINE
8
BLACK
6
CONTINUOUS
10
106.772
20
-104.394
11
106.756
21
-104.561
0
LINE
8
BLACK
6
CONTINUOUS
10
106.756
20
-104.561
11
106.707
21
-104.721
0
LINE
8
BLACK
6
CONTINUOUS
10
106.707
20
-104.721
11
106.628
21
-104.869
0
LINE
8
BLACK
6
CONTINUOUS
10
106.628
20
-104.869
11
106.522
21
-104.998
0
LINE
8
BLACK
6
CONTINUOUS
10
106.522
20
-104.998
11
106.393
21
-105.104
0
LINE
8
BLACK
6
CONTINUOUS
10
106.393
20
-105.104
11
106.245
21
-105.183
0
LINE
8
BLACK
6
CONTINUOUS
10
106.245
20
-105.183
11
106.085
21
-105.232
0
LINE
8
BLACK
6
CONTINUOUS
10
106.085
20
-105.232
11
105.96
21
-105.244
0
LINE
8
BLACK
6
CONTINUOUS
10
105.96
20
-105.244
11
105.876
21
-105.244
0
LINE
8
BLACK
6
CONTINUOUS
10
105.876
20
-105.244
11
105.751
21
-105.232
0
LINE
8
BLACK
6
CONTINUOUS
10
105.751
20
-105.232
11
105.591
21
-105.183
0
LINE
8
BLACK
6
CONTINUOUS
10
105.591
20
-105.183
11
105.443
21
-105.104
0
LINE
8
BLACK
6
CONTINUOUS
10
105.443
20
-105.104
11
105.314
21
-104.998
0
LINE
8
BLACK
6
CONTINUOUS
10
105.314
20
-104.998
11
105.208
21
-104.869
0
LINE
8
BLACK
6
CONTINUOUS
10
105.208
20
-104.869
11
105.129
21
-104.721
0
LINE
8
BLACK
6
CONTINUOUS
10
105.129
20
-104.721
11
105.08
21
-104.561
0
LINE
8
BLACK
6
CONTINUOUS
10
105.08
20
-104.561
11
105.064
21
-104.394
0
LINE
8
BLACK
6
CONTINUOUS
10
105.064
20
-104.394
11
105.08
21
-104.227
0
LINE
8
BLACK
6
CONTINUOUS
10
105.08
20
-104.227
11
105.129
21
-104.067
0
LINE
8
BLACK
6
CONTINUOUS
10
105.129
20
-104.067
11
105.208
21
-103.919
0
LINE
8
BLACK
6
CONTINUOUS
10
105.208
20
-103.919
11
105.314
21
-103.79
0
LINE
8
BLACK
6
CONTINUOUS
10
105.314
20
-103.79
11
105.443
21
-103.684
0
LINE
8
BLACK
6
CONTINUOUS
10
105.443
20
-103.684
11
105.591
21
-103.605
0
LINE
8
BLACK
6
CONTINUOUS
10
105.591
20
-103.605
11
105.751
21
-103.556
0
LINE
8
BLACK
6
CONTINUOUS
10
105.751
20
-103.556
11
105.876
21
-103.544
0
LINE
8
BLACK
6
CONTINUOUS
10
105.876
20
-103.544
11
105.96
21
-103.544
0
LINE
8
BLACK
6
CONTINUOUS
10
105.96
20
-103.544
11
106.085
21
-103.556
0
LINE
8
BLACK
6
CONTINUOUS
10
115.25
20
-104.736
11
113.35
21
-104.736
0
LINE
8
BLACK
6
CONTINUOUS
10
113.35
20
-104.736
11
113.35
21
-103.036
0
LINE
8
BLACK
6
CONTINUOUS
10
113.35
20
-103.036
11
115.25
21
-103.036
0
LINE
8
BLACK
6
CONTINUOUS
10
115.25
20
-103.036
11
115.25
21
-104.736
0
LINE
8
BLACK
6
CONTINUOUS
10
141.108
20
-104.736
11
139.308
21
-104.736
0
LINE
8
BLACK
6
CONTINUOUS
10
139.308
20
-104.736
11
139.308
21
-103.036
0
LINE
8
BLACK
6
CONTINUOUS
10
139.308
20
-103.036
11
141.108
21
-103.036
0
LINE
8
BLACK
6
CONTINUOUS
10
141.108
20
-103.036
11
141.108
21
-104.736
0
LINE
8
BLACK
6
CONTINUOUS
10
99.656
20
-102.804
11
97.956
21
-102.804
0
LINE
8
BLACK
6
CONTINUOUS
10
97.956
20
-102.804
11
97.956
21
-100.904
0
LINE
8
BLACK
6
CONTINUOUS
10
97.956
20
-100.904
11
99.656
21
-100.904
0
LINE
8
BLACK
6
CONTINUOUS
10
99.656
20
-100.904
11
99.656
21
-102.804
0
LINE
8
BLACK
6
CONTINUOUS
10
147.916
20
-102.804
11
146.216
21
-102.804
0
LINE
8
BLACK
6
CONTINUOUS
10
146.216
20
-102.804
11
146.216
21
-100.904
0
LINE
8
BLACK
6
CONTINUOUS
10
146.216
20
-100.904
11
147.916
21
-100.904
0
LINE
8
BLACK
6
CONTINUOUS
10
147.916
20
-100.904
11
147.916
21
-102.804
0
LINE
8
BLACK
6
CONTINUOUS
10
106.085
20
-101.016
11
106.245
21
-101.065
0
LINE
8
BLACK
6
CONTINUOUS
10
106.245
20
-101.065
11
106.393
21
-101.144
0
LINE
8
BLACK
6
CONTINUOUS
10
106.393
20
-101.144
11
106.522
21
-101.25
0
LINE
8
BLACK
6
CONTINUOUS
10
106.522
20
-101.25
11
106.628
21
-101.379
0
LINE
8
BLACK
6
CONTINUOUS
10
106.628
20
-101.379
11
106.707
21
-101.527
0
LINE
8
BLACK
6
CONTINUOUS
10
106.707
20
-101.527
11
106.756
21
-101.687
0
LINE
8
BLACK
6
CONTINUOUS
10
106.756
20
-101.687
11
106.772
21
-101.854
0
LINE
8
BLACK
6
CONTINUOUS
10
106.772
20
-101.854
11
106.756
21
-102.021
0
LINE
8
BLACK
6
CONTINUOUS
10
106.756
20
-102.021
11
106.707
21
-102.181
0
LINE
8
BLACK
6
CONTINUOUS
10
106.707
20
-102.181
11
106.628
21
-102.329
0
LINE
8
BLACK
6
CONTINUOUS
10
106.628
20
-102.329
11
106.522
21
-102.458
0
LINE
8
BLACK
6
CONTINUOUS
10
106.522
20
-102.458
11
106.393
21
-102.564
0
LINE
8
BLACK
6
CONTINUOUS
10
106.393
20
-102.564
11
106.245
21
-102.643
0
LINE
8
BLACK
6
CONTINUOUS
10
106.245
20
-102.643
11
106.085
21
-102.692
0
LINE
8
BLACK
6
CONTINUOUS
10
106.085
20
-102.692
11
105.96
21
-102.704
0
LINE
8
BLACK
6
CONTINUOUS
10
105.96
20
-102.704
11
105.876
21
-102.704
0
LINE
8
BLACK
6
CONTINUOUS
10
105.876
20
-102.704
11
105.751
21
-102.692
0
LINE
8
BLACK
6
CONTINUOUS
10
105.751
20
-102.692
11
105.591
21
-102.643
0
LINE
8
BLACK
6
CONTINUOUS
10
105.591
20
-102.643
11
105.443
21
-102.564
0
LINE
8
BLACK
6
CONTINUOUS
10
105.443
20
-102.564
11
105.314
21
-102.458
0
LINE
8
BLACK
6
CONTINUOUS
10
105.314
20
-102.458
11
105.208
21
-102.329
0
LINE
8
BLACK
6
CONTINUOUS
10
105.208
20
-102.329
11
105.129
21
-102.181
0
LINE
8
BLACK
6
CONTINUOUS
10
105.129
20
-102.181
11
105.08
21
-102.021
0
LINE
8
BLACK
6
CONTINUOUS
10
105.08
20
-102.021
11
105.064
21
-101.854
0
LINE
8
BLACK
6
CONTINUOUS
10
105.064
20
-101.854
11
105.08
21
-101.687
0
LINE
8
BLACK
6
CONTINUOUS
10
105.08
20
-101.687
11
105.129
21
-101.527
0
LINE
8
BLACK
6
CONTINUOUS
10
105.129
20
-101.527
11
105.208
21
-101.379
0
LINE
8
BLACK
6
CONTINUOUS
10
105.208
20
-101.379
11
105.314
21
-101.25
0
LINE
8
BLACK
6
CONTINUOUS
10
105.314
20
-101.25
11
105.443
21
-101.144
0
LINE
8
BLACK
6
CONTINUOUS
10
105.443
20
-101.144
11
105.591
21
-101.065
0
LINE
8
BLACK
6
CONTINUOUS
10
105.591
20
-101.065
11
105.751
21
-101.016
0
LINE
8
BLACK
6
CONTINUOUS
10
105.751
20
-101.016
11
105.876
21
-101.004
0
LINE
8
BLACK
6
CONTINUOUS
10
105.876
20
-101.004
11
105.96
21
-101.004
0
LINE
8
BLACK
6
CONTINUOUS
10
105.96
20
-101.004
11
106.085
21
-101.016
0
LINE
8
BLACK
6
CONTINUOUS
10
108.625
20
-101.016
11
108.785
21
-101.065
0
LINE
8
BLACK
6
CONTINUOUS
10
108.785
20
-101.065
11
108.933
21
-101.144
0
LINE
8
BLACK
6
CONTINUOUS
10
108.933
20
-101.144
11
109.062
21
-101.25
0
LINE
8
BLACK
6
CONTINUOUS
10
109.062
20
-101.25
11
109.168
21
-101.379
0
LINE
8
BLACK
6
CONTINUOUS
10
109.168
20
-101.379
11
109.247
21
-101.527
0
LINE
8
BLACK
6
CONTINUOUS
10
109.247
20
-101.527
11
109.296
21
-101.687
0
LINE
8
BLACK
6
CONTINUOUS
10
109.296
20
-101.687
11
109.312
21
-101.854
0
LINE
8
BLACK
6
CONTINUOUS
10
109.312
20
-101.854
11
109.296
21
-102.021
0
LINE
8
BLACK
6
CONTINUOUS
10
109.296
20
-102.021
11
109.247
21
-102.181
0
LINE
8
BLACK
6
CONTINUOUS
10
109.247
20
-102.181
11
109.168
21
-102.329
0
LINE
8
BLACK
6
CONTINUOUS
10
109.168
20
-102.329
11
109.062
21
-102.458
0
LINE
8
BLACK
6
CONTINUOUS
10
109.062
20
-102.458
11
108.933
21
-102.564
0
LINE
8
BLACK
6
CONTINUOUS
10
108.933
20
-102.564
11
108.785
21
-102.643
0
LINE
8
BLACK
6
CONTINUOUS
10
108.785
20
-102.643
11
108.625
21
-102.692
0
LINE
8
BLACK
6
CONTINUOUS
10
108.625
20
-102.692
11
108.5
21
-102.704
0
LINE
8
BLACK
6
CONTINUOUS
10
108.5
20
-102.704
11
108.416
21
-102.704
0
LINE
8
BLACK
6
CONTINUOUS
10
108.416
20
-102.704
11
108.291
21
-102.692
0
LINE
8
BLACK
6
CONTINUOUS
10
108.291
20
-102.692
11
108.131
21
-102.643
0
LINE
8
BLACK
6
CONTINUOUS
10
108.131
20
-102.643
11
107.983
21
-102.564
0
LINE
8
BLACK
6
CONTINUOUS
10
107.983
20
-102.564
11
107.854
21
-102.458
0
LINE
8
BLACK
6
CONTINUOUS
10
107.854
20
-102.458
11
107.748
21
-102.329
0
LINE
8
BLACK
6
CONTINUOUS
10
107.748
20
-102.329
11
107.669
21
-102.181
0
LINE
8
BLACK
6
CONTINUOUS
10
107.669
20
-102.181
11
107.62
21
-102.021
0
LINE
8
BLACK
6
CONTINUOUS
10
107.62
20
-102.021
11
107.604
21
-101.854
0
LINE
8
BLACK
6
CONTINUOUS
10
107.604
20
-101.854
11
107.62
21
-101.687
0
LINE
8
BLACK
6
CONTINUOUS
10
107.62
20
-101.687
11
107.669
21
-101.527
0
LINE
8
BLACK
6
CONTINUOUS
10
107.669
20
-101.527
11
107.748
21
-101.379
0
LINE
8
BLACK
6
CONTINUOUS
10
107.748
20
-101.379
11
107.854
21
-101.25
0
LINE
8
BLACK
6
CONTINUOUS
10
107.854
20
-101.25
11
107.983
21
-101.144
0
LINE
8
BLACK
6
CONTINUOUS
10
107.983
20
-101.144
11
108.131
21
-101.065
0
LINE
8
BLACK
6
CONTINUOUS
10
108.131
20
-101.065
11
108.291
21
-101.016
0
LINE
8
BLACK
6
CONTINUOUS
10
108.291
20
-101.016
11
108.416
21
-101.004
0
LINE
8
BLACK
6
CONTINUOUS
10
108.416
20
-101.004
11
108.5
21
-101.004
0
LINE
8
BLACK
6
CONTINUOUS
10
108.5
20
-101.004
11
108.625
21
-101.016
0
LINE
8
BLACK
6
CONTINUOUS
10
115.25
20
-102.196
11
113.35
21
-102.196
0
LINE
8
BLACK
6
CONTINUOUS
10
113.35
20
-102.196
11
113.35
21
-100.496
0
LINE
8
BLACK
6
CONTINUOUS
10
113.35
20
-100.496
11
115.25
21
-100.496
0
LINE
8
BLACK
6
CONTINUOUS
10
115.25
20
-100.496
11
115.25
21
-102.196
0
LINE
8
BLACK
6
CONTINUOUS
10
99.656
20
-100.264
11
97.956
21
-100.264
0
LINE
8
BLACK
6
CONTINUOUS
10
97.956
20
-100.264
11
97.956
21
-98.364
0
LINE
8
BLACK
6
CONTINUOUS
10
97.956
20
-98.364
11
99.656
21
-98.364
0
LINE
8
BLACK
6
CONTINUOUS
10
99.656
20
-98.364
11
99.656
21
-100.264
0
LINE
8
BLACK
6
CONTINUOUS
10
147.916
20
-100.264
11
146.216
21
-100.264
0
LINE
8
BLACK
6
CONTINUOUS
10
146.216
20
-100.264
11
146.216
21
-98.364
0
LINE
8
BLACK
6
CONTINUOUS
10
146.216
20
-98.364
11
147.916
21
-98.364
0
LINE
8
BLACK
6
CONTINUOUS
10
147.916
20
-98.364
11
147.916
21
-100.264
0
LINE
8
BLACK
6
CONTINUOUS
10
108.625
20
-98.4763
11
108.785
21
-98.5249
0
LINE
8
BLACK
6
CONTINUOUS
10
108.785
20
-98.5249
11
108.933
21
-98.6038
0
LINE
8
BLACK
6
CONTINUOUS
10
108.933
20
-98.6038
11
109.062
21
-98.7101
0
LINE
8
BLACK
6
CONTINUOUS
10
109.062
20
-98.7101
11
109.168
21
-98.8395
0
LINE
8
BLACK
6
CONTINUOUS
10
109.168
20
-98.8395
11
109.247
21
-98.9871
0
LINE
8
BLACK
6
CONTINUOUS
10
109.247
20
-98.9871
11
109.296
21
-99.1474
0
LINE
8
BLACK
6
CONTINUOUS
10
109.296
20
-99.1474
11
109.312
21
-99.314
0
LINE
8
BLACK
6
CONTINUOUS
10
109.312
20
-99.314
11
109.296
21
-99.4806
0
LINE
8
BLACK
6
CONTINUOUS
10
109.296
20
-99.4806
11
109.247
21
-99.6409
0
LINE
8
BLACK
6
CONTINUOUS
10
109.247
20
-99.6409
11
109.168
21
-99.7885
0
LINE
8
BLACK
6
CONTINUOUS
10
109.168
20
-99.7885
11
109.062
21
-99.9179
0
LINE
8
BLACK
6
CONTINUOUS
10
109.062
20
-99.9179
11
108.933
21
-100.024
0
LINE
8
BLACK
6
CONTINUOUS
10
108.933
20
-100.024
11
108.785
21
-100.103
0
LINE
8
BLACK
6
CONTINUOUS
10
108.785
20
-100.103
11
108.625
21
-100.152
0
LINE
8
BLACK
6
CONTINUOUS
10
108.625
20
-100.152
11
108.5
21
-100.164
0
LINE
8
BLACK
6
CONTINUOUS
10
108.5
20
-100.164
11
108.416
21
-100.164
0
LINE
8
BLACK
6
CONTINUOUS
10
108.416
20
-100.164
11
108.291
21
-100.152
0
LINE
8
BLACK
6
CONTINUOUS
10
108.291
20
-100.152
11
108.131
21
-100.103
0
LINE
8
BLACK
6
CONTINUOUS
10
108.131
20
-100.103
11
107.983
21
-100.024
0
LINE
8
BLACK
6
CONTINUOUS
10
107.983
20
-100.024
11
107.854
21
-99.9179
0
LINE
8
BLACK
6
CONTINUOUS
10
107.854
20
-99.9179
11
107.748
21
-99.7885
0
LINE
8
BLACK
6
CONTINUOUS
10
107.748
20
-99.7885
11
107.669
21
-99.6409
0
LINE
8
BLACK
6
CONTINUOUS
10
107.669
20
-99.6409
11
107.62
21
-99.4806
0
LINE
8
BLACK
6
CONTINUOUS
10
107.62
20
-99.4806
11
107.604
21
-99.314
0
LINE
8
BLACK
6
CONTINUOUS
10
107.604
20
-99.314
11
107.62
21
-99.1474
0
LINE
8
BLACK
6
CONTINUOUS
10
107.62
20
-99.1474
11
107.669
21
-98.9871
0
LINE
8
BLACK
6
CONTINUOUS
10
107.669
20
-98.9871
11
107.748
21
-98.8395
0
LINE
8
BLACK
6
CONTINUOUS
10
107.748
20
-98.8395
11
107.854
21
-98.7101
0
LINE
8
BLACK
6
CONTINUOUS
10
107.854
20
-98.7101
11
107.983
21
-98.6038
0
LINE
8
BLACK
6
CONTINUOUS
10
107.983
20
-98.6038
11
108.131
21
-98.5249
0
LINE
8
BLACK
6
CONTINUOUS
10
108.131
20
-98.5249
11
108.291
21
-98.4763
0
LINE
8
BLACK
6
CONTINUOUS
10
108.291
20
-98.4763
11
108.416
21
-98.464
0
LINE
8
BLACK
6
CONTINUOUS
10
108.416
20
-98.464
11
108.5
21
-98.464
0
LINE
8
BLACK
6
CONTINUOUS
10
108.5
20
-98.464
11
108.625
21
-98.4763
0
LINE
8
BLACK
6
CONTINUOUS
10
106.085
20
-98.4763
11
106.245
21
-98.5249
0
LINE
8
BLACK
6
CONTINUOUS
10
106.245
20
-98.5249
11
106.393
21
-98.6038
0
LINE
8
BLACK
6
CONTINUOUS
10
106.393
20
-98.6038
11
106.522
21
-98.7101
0
LINE
8
BLACK
6
CONTINUOUS
10
106.522
20
-98.7101
11
106.628
21
-98.8395
0
LINE
8
BLACK
6
CONTINUOUS
10
106.628
20
-98.8395
11
106.707
21
-98.9871
0
LINE
8
BLACK
6
CONTINUOUS
10
106.707
20
-98.9871
11
106.756
21
-99.1474
0
LINE
8
BLACK
6
CONTINUOUS
10
106.756
20
-99.1474
11
106.772
21
-99.314
0
LINE
8
BLACK
6
CONTINUOUS
10
106.772
20
-99.314
11
106.756
21
-99.4806
0
LINE
8
BLACK
6
CONTINUOUS
10
106.756
20
-99.4806
11
106.707
21
-99.6409
0
LINE
8
BLACK
6
CONTINUOUS
10
106.707
20
-99.6409
11
106.628
21
-99.7885
0
LINE
8
BLACK
6
CONTINUOUS
10
106.628
20
-99.7885
11
106.522
21
-99.9179
0
LINE
8
BLACK
6
CONTINUOUS
10
106.522
20
-99.9179
11
106.393
21
-100.024
0
LINE
8
BLACK
6
CONTINUOUS
10
106.393
20
-100.024
11
106.245
21
-100.103
0
LINE
8
BLACK
6
CONTINUOUS
10
106.245
20
-100.103
11
106.085
21
-100.152
0
LINE
8
BLACK
6
CONTINUOUS
10
106.085
20
-100.152
11
105.96
21
-100.164
0
LINE
8
BLACK
6
CONTINUOUS
10
105.96
20
-100.164
11
105.876
21
-100.164
0
LINE
8
BLACK
6
CONTINUOUS
10
105.876
20
-100.164
11
105.751
21
-100.152
0
LINE
8
BLACK
6
CONTINUOUS
10
105.751
20
-100.152
11
105.591
21
-100.103
0
LINE
8
BLACK
6
CONTINUOUS
10
105.591
20
-100.103
11
105.443
21
-100.024
0
LINE
8
BLACK
6
CONTINUOUS
10
105.443
20
-100.024
11
105.314
21
-99.9179
0
LINE
8
BLACK
6
CONTINUOUS
10
105.314
20
-99.9179
11
105.208
21
-99.7885
0
LINE
8
BLACK
6
CONTINUOUS
10
105.208
20
-99.7885
11
105.129
21
-99.6409
0
LINE
8
BLACK
6
CONTINUOUS
10
105.129
20
-99.6409
11
105.08
21
-99.4806
0
LINE
8
BLACK
6
CONTINUOUS
10
105.08
20
-99.4806
11
105.064
21
-99.314
0
LINE
8
BLACK
6
CONTINUOUS
10
105.064
20
-99.314
11
105.08
21
-99.1474
0
LINE
8
BLACK
6
CONTINUOUS
10
105.08
20
-99.1474
11
105.129
21
-98.9871
0
LINE
8
BLACK
6
CONTINUOUS
10
105.129
20
-98.9871
11
105.208
21
-98.8395
0
LINE
8
BLACK
6
CONTINUOUS
10
105.208
20
-98.8395
11
105.314
21
-98.7101
0
LINE
8
BLACK
6
CONTINUOUS
10
105.314
20
-98.7101
11
105.443
21
-98.6038
0
LINE
8
BLACK
6
CONTINUOUS
10
105.443
20
-98.6038
11
105.591
21
-98.5249
0
LINE
8
BLACK
6
CONTINUOUS
10
105.591
20
-98.5249
11
105.751
21
-98.4763
0
LINE
8
BLACK
6
CONTINUOUS
10
105.751
20
-98.4763
11
105.876
21
-98.464
0
LINE
8
BLACK
6
CONTINUOUS
10
105.876
20
-98.464
11
105.96
21
-98.464
0
LINE
8
BLACK
6
CONTINUOUS
10
105.96
20
-98.464
11
106.085
21
-98.4763
0
LINE
8
BLACK
6
CONTINUOUS
10
143.444
20
-97.878
11
141.544
21
-97.878
0
LINE
8
BLACK
6
CONTINUOUS
10
141.544
20
-97.878
11
141.544
21
-96.178
0
LINE
8
BLACK
6
CONTINUOUS
10
141.544
20
-96.178
11
143.444
21
-96.178
0
LINE
8
BLACK
6
CONTINUOUS
10
143.444
20
-96.178
11
143.444
21
-97.878
0
LINE
8
BLACK
6
CONTINUOUS
10
147.916
20
-97.724
11
146.216
21
-97.724
0
LINE
8
BLACK
6
CONTINUOUS
10
146.216
20
-97.724
11
146.216
21
-95.824
0
LINE
8
BLACK
6
CONTINUOUS
10
146.216
20
-95.824
11
147.916
21
-95.824
0
LINE
8
BLACK
6
CONTINUOUS
10
147.916
20
-95.824
11
147.916
21
-97.724
0
LINE
8
BLACK
6
CONTINUOUS
10
99.656
20
-97.724
11
97.956
21
-97.724
0
LINE
8
BLACK
6
CONTINUOUS
10
97.956
20
-97.724
11
97.956
21
-95.824
0
LINE
8
BLACK
6
CONTINUOUS
10
97.956
20
-95.824
11
99.656
21
-95.824
0
LINE
8
BLACK
6
CONTINUOUS
10
99.656
20
-95.824
11
99.656
21
-97.724
0
LINE
8
BLACK
6
CONTINUOUS
10
108.625
20
-95.9363
11
108.785
21
-95.9849
0
LINE
8
BLACK
6
CONTINUOUS
10
108.785
20
-95.9849
11
108.933
21
-96.0638
0
LINE
8
BLACK
6
CONTINUOUS
10
108.933
20
-96.0638
11
109.062
21
-96.1701
0
LINE
8
BLACK
6
CONTINUOUS
10
109.062
20
-96.1701
11
109.168
21
-96.2995
0
LINE
8
BLACK
6
CONTINUOUS
10
109.168
20
-96.2995
11
109.247
21
-96.4471
0
LINE
8
BLACK
6
CONTINUOUS
10
109.247
20
-96.4471
11
109.296
21
-96.6074
0
LINE
8
BLACK
6
CONTINUOUS
10
109.296
20
-96.6074
11
109.312
21
-96.774
0
LINE
8
BLACK
6
CONTINUOUS
10
109.312
20
-96.774
11
109.296
21
-96.9406
0
LINE
8
BLACK
6
CONTINUOUS
10
109.296
20
-96.9406
11
109.247
21
-97.1009
0
LINE
8
BLACK
6
CONTINUOUS
10
109.247
20
-97.1009
11
109.168
21
-97.2485
0
LINE
8
BLACK
6
CONTINUOUS
10
109.168
20
-97.2485
11
109.062
21
-97.3779
0
LINE
8
BLACK
6
CONTINUOUS
10
109.062
20
-97.3779
11
108.933
21
-97.4842
0
LINE
8
BLACK
6
CONTINUOUS
10
108.933
20
-97.4842
11
108.785
21
-97.5631
0
LINE
8
BLACK
6
CONTINUOUS
10
108.785
20
-97.5631
11
108.625
21
-97.6117
0
LINE
8
BLACK
6
CONTINUOUS
10
108.625
20
-97.6117
11
108.5
21
-97.624
0
LINE
8
BLACK
6
CONTINUOUS
10
108.5
20
-97.624
11
108.416
21
-97.624
0
LINE
8
BLACK
6
CONTINUOUS
10
108.416
20
-97.624
11
108.291
21
-97.6117
0
LINE
8
BLACK
6
CONTINUOUS
10
108.291
20
-97.6117
11
108.131
21
-97.5631
0
LINE
8
BLACK
6
CONTINUOUS
10
108.131
20
-97.5631
11
107.983
21
-97.4842
0
LINE
8
BLACK
6
CONTINUOUS
10
107.983
20
-97.4842
11
107.854
21
-97.3779
0
LINE
8
BLACK
6
CONTINUOUS
10
107.854
20
-97.3779
11
107.748
21
-97.2485
0
LINE
8
BLACK
6
CONTINUOUS
10
107.748
20
-97.2485
11
107.669
21
-97.1009
0
LINE
8
BLACK
6
CONTINUOUS
10
107.669
20
-97.1009
11
107.62
21
-96.9406
0
LINE
8
BLACK
6
CONTINUOUS
10
107.62
20
-96.9406
11
107.604
21
-96.774
0
LINE
8
BLACK
6
CONTINUOUS
10
107.604
20
-96.774
11
107.62
21
-96.6074
0
LINE
8
BLACK
6
CONTINUOUS
10
107.62
20
-96.6074
11
107.669
21
-96.4471
0
LINE
8
BLACK
6
CONTINUOUS
10
107.669
20
-96.4471
11
107.748
21
-96.2995
0
LINE
8
BLACK
6
CONTINUOUS
10
107.748
20
-96.2995
11
107.854
21
-96.1701
0
LINE
8
BLACK
6
CONTINUOUS
10
107.854
20
-96.1701
11
107.983
21
-96.0638
0
LINE
8
BLACK
6
CONTINUOUS
10
107.983
20
-96.0638
11
108.131
21
-95.9849
0
LINE
8
BLACK
6
CONTINUOUS
10
108.131
20
-95.9849
11
108.291
21
-95.9363
0
LINE
8
BLACK
6
CONTINUOUS
10
108.291
20
-95.9363
11
108.416
21
-95.924
0
LINE
8
BLACK
6
CONTINUOUS
10
108.416
20
-95.924
11
108.5
21
-95.924
0
LINE
8
BLACK
6
CONTINUOUS
10
108.5
20
-95.924
11
108.625
21
-95.9363
0
LINE
8
BLACK
6
CONTINUOUS
10
106.085
20
-95.9363
11
106.245
21
-95.9849
0
LINE
8
BLACK
6
CONTINUOUS
10
106.245
20
-95.9849
11
106.393
21
-96.0638
0
LINE
8
BLACK
6
CONTINUOUS
10
106.393
20
-96.0638
11
106.522
21
-96.1701
0
LINE
8
BLACK
6
CONTINUOUS
10
106.522
20
-96.1701
11
106.628
21
-96.2995
0
LINE
8
BLACK
6
CONTINUOUS
10
106.628
20
-96.2995
11
106.707
21
-96.4471
0
LINE
8
BLACK
6
CONTINUOUS
10
106.707
20
-96.4471
11
106.756
21
-96.6074
0
LINE
8
BLACK
6
CONTINUOUS
10
106.756
20
-96.6074
11
106.772
21
-96.774
0
LINE
8
BLACK
6
CONTINUOUS
10
106.772
20
-96.774
11
106.756
21
-96.9406
0
LINE
8
BLACK
6
CONTINUOUS
10
106.756
20
-96.9406
11
106.707
21
-97.1009
0
LINE
8
BLACK
6
CONTINUOUS
10
106.707
20
-97.1009
11
106.628
21
-97.2485
0
LINE
8
BLACK
6
CONTINUOUS
10
106.628
20
-97.2485
11
106.522
21
-97.3779
0
LINE
8
BLACK
6
CONTINUOUS
10
106.522
20
-97.3779
11
106.393
21
-97.4842
0
LINE
8
BLACK
6
CONTINUOUS
10
106.393
20
-97.4842
11
106.245
21
-97.5631
0
LINE
8
BLACK
6
CONTINUOUS
10
106.245
20
-97.5631
11
106.085
21
-97.6117
0
LINE
8
BLACK
6
CONTINUOUS
10
106.085
20
-97.6117
11
105.96
21
-97.624
0
LINE
8
BLACK
6
CONTINUOUS
10
105.96
20
-97.624
11
105.876
21
-97.624
0
LINE
8
BLACK
6
CONTINUOUS
10
105.876
20
-97.624
11
105.751
21
-97.6117
0
LINE
8
BLACK
6
CONTINUOUS
10
105.751
20
-97.6117
11
105.591
21
-97.5631
0
LINE
8
BLACK
6
CONTINUOUS
10
105.591
20
-97.5631
11
105.443
21
-97.4842
0
LINE
8
BLACK
6
CONTINUOUS
10
105.443
20
-97.4842
11
105.314
21
-97.3779
0
LINE
8
BLACK
6
CONTINUOUS
10
105.314
20
-97.3779
11
105.208
21
-97.2485
0
LINE
8
BLACK
6
CONTINUOUS
10
105.208
20
-97.2485
11
105.129
21
-97.1009
0
LINE
8
BLACK
6
CONTINUOUS
10
105.129
20
-97.1009
11
105.08
21
-96.9406
0
LINE
8
BLACK
6
CONTINUOUS
10
105.08
20
-96.9406
11
105.064
21
-96.774
0
LINE
8
BLACK
6
CONTINUOUS
10
105.064
20
-96.774
11
105.08
21
-96.6074
0
LINE
8
BLACK
6
CONTINUOUS
10
105.08
20
-96.6074
11
105.129
21
-96.4471
0
LINE
8
BLACK
6
CONTINUOUS
10
105.129
20
-96.4471
11
105.208
21
-96.2995
0
LINE
8
BLACK
6
CONTINUOUS
10
105.208
20
-96.2995
11
105.314
21
-96.1701
0
LINE
8
BLACK
6
CONTINUOUS
10
105.314
20
-96.1701
11
105.443
21
-96.0638
0
LINE
8
BLACK
6
CONTINUOUS
10
105.443
20
-96.0638
11
105.591
21
-95.9849
0
LINE
8
BLACK
6
CONTINUOUS
10
105.591
20
-95.9849
11
105.751
21
-95.9363
0
LINE
8
BLACK
6
CONTINUOUS
10
105.751
20
-95.9363
11
105.876
21
-95.924
0
LINE
8
BLACK
6
CONTINUOUS
10
105.876
20
-95.924
11
105.96
21
-95.924
0
LINE
8
BLACK
6
CONTINUOUS
10
105.96
20
-95.924
11
106.085
21
-95.9363
0
LINE
8
BLACK
6
CONTINUOUS
10
143.444
20
-95.338
11
141.544
21
-95.338
0
LINE
8
BLACK
6
CONTINUOUS
10
141.544
20
-95.338
11
141.544
21
-93.638
0
LINE
8
BLACK
6
CONTINUOUS
10
141.544
20
-93.638
11
143.444
21
-93.638
0
LINE
8
BLACK
6
CONTINUOUS
10
143.444
20
-93.638
11
143.444
21
-95.338
0
LINE
8
BLACK
6
CONTINUOUS
10
147.916
20
-95.184
11
146.216
21
-95.184
0
LINE
8
BLACK
6
CONTINUOUS
10
146.216
20
-95.184
11
146.216
21
-93.284
0
LINE
8
BLACK
6
CONTINUOUS
10
146.216
20
-93.284
11
147.916
21
-93.284
0
LINE
8
BLACK
6
CONTINUOUS
10
147.916
20
-93.284
11
147.916
21
-95.184
0
LINE
8
BLACK
6
CONTINUOUS
10
99.656
20
-95.184
11
97.956
21
-95.184
0
LINE
8
BLACK
6
CONTINUOUS
10
97.956
20
-95.184
11
97.956
21
-93.284
0
LINE
8
BLACK
6
CONTINUOUS
10
97.956
20
-93.284
11
99.656
21
-93.284
0
LINE
8
BLACK
6
CONTINUOUS
10
99.656
20
-93.284
11
99.656
21
-95.184
0
LINE
8
BLACK
6
CONTINUOUS
10
108.625
20
-93.3963
11
108.785
21
-93.4449
0
LINE
8
BLACK
6
CONTINUOUS
10
108.785
20
-93.4449
11
108.933
21
-93.5238
0
LINE
8
BLACK
6
CONTINUOUS
10
108.933
20
-93.5238
11
109.062
21
-93.6301
0
LINE
8
BLACK
6
CONTINUOUS
10
109.062
20
-93.6301
11
109.168
21
-93.7595
0
LINE
8
BLACK
6
CONTINUOUS
10
109.168
20
-93.7595
11
109.247
21
-93.9071
0
LINE
8
BLACK
6
CONTINUOUS
10
109.247
20
-93.9071
11
109.296
21
-94.0674
0
LINE
8
BLACK
6
CONTINUOUS
10
109.296
20
-94.0674
11
109.312
21
-94.234
0
LINE
8
BLACK
6
CONTINUOUS
10
109.312
20
-94.234
11
109.296
21
-94.4006
0
LINE
8
BLACK
6
CONTINUOUS
10
109.296
20
-94.4006
11
109.247
21
-94.5609
0
LINE
8
BLACK
6
CONTINUOUS
10
109.247
20
-94.5609
11
109.168
21
-94.7085
0
LINE
8
BLACK
6
CONTINUOUS
10
109.168
20
-94.7085
11
109.062
21
-94.8379
0
LINE
8
BLACK
6
CONTINUOUS
10
109.062
20
-94.8379
11
108.933
21
-94.9442
0
LINE
8
BLACK
6
CONTINUOUS
10
108.933
20
-94.9442
11
108.785
21
-95.0231
0
LINE
8
BLACK
6
CONTINUOUS
10
108.785
20
-95.0231
11
108.625
21
-95.0717
0
LINE
8
BLACK
6
CONTINUOUS
10
108.625
20
-95.0717
11
108.5
21
-95.084
0
LINE
8
BLACK
6
CONTINUOUS
10
108.5
20
-95.084
11
108.416
21
-95.084
0
LINE
8
BLACK
6
CONTINUOUS
10
108.416
20
-95.084
11
108.291
21
-95.0717
0
LINE
8
BLACK
6
CONTINUOUS
10
108.291
20
-95.0717
11
108.131
21
-95.0231
0
LINE
8
BLACK
6
CONTINUOUS
10
108.131
20
-95.0231
11
107.983
21
-94.9442
0
LINE
8
BLACK
6
CONTINUOUS
10
107.983
20
-94.9442
11
107.854
21
-94.8379
0
LINE
8
BLACK
6
CONTINUOUS
10
107.854
20
-94.8379
11
107.748
21
-94.7085
0
LINE
8
BLACK
6
CONTINUOUS
10
107.748
20
-94.7085
11
107.669
21
-94.5609
0
LINE
8
BLACK
6
CONTINUOUS
10
107.669
20
-94.5609
11
107.62
21
-94.4006
0
LINE
8
BLACK
6
CONTINUOUS
10
107.62
20
-94.4006
11
107.604
21
-94.234
0
LINE
8
BLACK
6
CONTINUOUS
10
107.604
20
-94.234
11
107.62
21
-94.0674
0
LINE
8
BLACK
6
CONTINUOUS
10
107.62
20
-94.0674
11
107.669
21
-93.9071
0
LINE
8
BLACK
6
CONTINUOUS
10
107.669
20
-93.9071
11
107.748
21
-93.7595
0
LINE
8
BLACK
6
CONTINUOUS
10
107.748
20
-93.7595
11
107.854
21
-93.6301
0
LINE
8
BLACK
6
CONTINUOUS
10
107.854
20
-93.6301
11
107.983
21
-93.5238
0
LINE
8
BLACK
6
CONTINUOUS
10
107.983
20
-93.5238
11
108.131
21
-93.4449
0
LINE
8
BLACK
6
CONTINUOUS
10
108.131
20
-93.4449
11
108.291
21
-93.3963
0
LINE
8
BLACK
6
CONTINUOUS
10
108.291
20
-93.3963
11
108.416
21
-93.384
0
LINE
8
BLACK
6
CONTINUOUS
10
108.416
20
-93.384
11
108.5
21
-93.384
0
LINE
8
BLACK
6
CONTINUOUS
10
108.5
20
-93.384
11
108.625
21
-93.3963
0
LINE
8
BLACK
6
CONTINUOUS
10
106.768
20
-95.084
11
105.068
21
-95.084
0
LINE
8
BLACK
6
CONTINUOUS
10
105.068
20
-95.084
11
105.068
21
-93.384
0
LINE
8
BLACK
6
CONTINUOUS
10
105.068
20
-93.384
11
106.768
21
-93.384
0
LINE
8
BLACK
6
CONTINUOUS
10
106.768
20
-93.384
11
106.768
21
-95.084
0
LINE
8
BLACK
6
CONTINUOUS
10
143.444
20
-92.798
11
141.544
21
-92.798
0
LINE
8
BLACK
6
CONTINUOUS
10
141.544
20
-92.798
11
141.544
21
-91.098
0
LINE
8
BLACK
6
CONTINUOUS
10
141.544
20
-91.098
11
143.444
21
-91.098
0
LINE
8
BLACK
6
CONTINUOUS
10
143.444
20
-91.098
11
143.444
21
-92.798
0
LINE
8
BLACK
6
CONTINUOUS
10
99.656
20
-92.644
11
97.956
21
-92.644
0
LINE
8
BLACK
6
CONTINUOUS
10
97.956
20
-92.644
11
97.956
21
-90.744
0
LINE
8
BLACK
6
CONTINUOUS
10
97.956
20
-90.744
11
99.656
21
-90.744
0
LINE
8
BLACK
6
CONTINUOUS
10
99.656
20
-90.744
11
99.656
21
-92.644
0
LINE
8
BLACK
6
CONTINUOUS
10
147.916
20
-92.644
11
146.216
21
-92.644
0
LINE
8
BLACK
6
CONTINUOUS
10
146.216
20
-92.644
11
146.216
21
-90.744
0
LINE
8
BLACK
6
CONTINUOUS
10
146.216
20
-90.744
11
147.916
21
-90.744
0
LINE
8
BLACK
6
CONTINUOUS
10
147.916
20
-90.744
11
147.916
21
-92.644
0
LINE
8
BLACK
6
CONTINUOUS
10
143.444
20
-90.258
11
141.544
21
-90.258
0
LINE
8
BLACK
6
CONTINUOUS
10
141.544
20
-90.258
11
141.544
21
-88.558
0
LINE
8
BLACK
6
CONTINUOUS
10
141.544
20
-88.558
11
143.444
21
-88.558
0
LINE
8
BLACK
6
CONTINUOUS
10
143.444
20
-88.558
11
143.444
21
-90.258
0
LINE
8
BLACK
6
CONTINUOUS
10
147.916
20
-90.104
11
146.216
21
-90.104
0
LINE
8
BLACK
6
CONTINUOUS
10
146.216
20
-90.104
11
146.216
21
-88.204
0
LINE
8
BLACK
6
CONTINUOUS
10
146.216
20
-88.204
11
147.916
21
-88.204
0
LINE
8
BLACK
6
CONTINUOUS
10
147.916
20
-88.204
11
147.916
21
-90.104
0
LINE
8
BLACK
6
CONTINUOUS
10
147.916
20
-87.564
11
146.216
21
-87.564
0
LINE
8
BLACK
6
CONTINUOUS
10
146.216
20
-87.564
11
146.216
21
-85.664
0
LINE
8
BLACK
6
CONTINUOUS
10
146.216
20
-85.664
11
147.916
21
-85.664
0
LINE
8
BLACK
6
CONTINUOUS
10
147.916
20
-85.664
11
147.916
21
-87.564
0
LINE
8
BLACK
6
CONTINUOUS
10
98.9753
20
-85.7629
11
99.1381
21
-85.8123
0
LINE
8
BLACK
6
CONTINUOUS
10
99.1381
20
-85.8123
11
99.2881
21
-85.8925
0
LINE
8
BLACK
6
CONTINUOUS
10
99.2881
20
-85.8925
11
99.4196
21
-86.0004
0
LINE
8
BLACK
6
CONTINUOUS
10
99.4196
20
-86.0004
11
99.5275
21
-86.1319
0
LINE
8
BLACK
6
CONTINUOUS
10
99.5275
20
-86.1319
11
99.6077
21
-86.2819
0
LINE
8
BLACK
6
CONTINUOUS
10
99.6077
20
-86.2819
11
99.6571
21
-86.4447
0
LINE
8
BLACK
6
CONTINUOUS
10
99.6571
20
-86.4447
11
99.6738
21
-86.614
0
LINE
8
BLACK
6
CONTINUOUS
10
99.6738
20
-86.614
11
99.6571
21
-86.7833
0
LINE
8
BLACK
6
CONTINUOUS
10
99.6571
20
-86.7833
11
99.6077
21
-86.9461
0
LINE
8
BLACK
6
CONTINUOUS
10
99.6077
20
-86.9461
11
99.5275
21
-87.0961
0
LINE
8
BLACK
6
CONTINUOUS
10
99.5275
20
-87.0961
11
99.4196
21
-87.2276
0
LINE
8
BLACK
6
CONTINUOUS
10
99.4196
20
-87.2276
11
99.2881
21
-87.3355
0
LINE
8
BLACK
6
CONTINUOUS
10
99.2881
20
-87.3355
11
99.1381
21
-87.4157
0
LINE
8
BLACK
6
CONTINUOUS
10
99.1381
20
-87.4157
11
98.9753
21
-87.4651
0
LINE
8
BLACK
6
CONTINUOUS
10
98.9753
20
-87.4651
11
98.8484
21
-87.4776
0
LINE
8
BLACK
6
CONTINUOUS
10
98.8484
20
-87.4776
11
98.7636
21
-87.4776
0
LINE
8
BLACK
6
CONTINUOUS
10
98.7636
20
-87.4776
11
98.6367
21
-87.4651
0
LINE
8
BLACK
6
CONTINUOUS
10
98.6367
20
-87.4651
11
98.4739
21
-87.4157
0
LINE
8
BLACK
6
CONTINUOUS
10
98.4739
20
-87.4157
11
98.3239
21
-87.3355
0
LINE
8
BLACK
6
CONTINUOUS
10
98.3239
20
-87.3355
11
98.1924
21
-87.2276
0
LINE
8
BLACK
6
CONTINUOUS
10
98.1924
20
-87.2276
11
98.0845
21
-87.0961
0
LINE
8
BLACK
6
CONTINUOUS
10
98.0845
20
-87.0961
11
98.0043
21
-86.9461
0
LINE
8
BLACK
6
CONTINUOUS
10
98.0043
20
-86.9461
11
97.9549
21
-86.7833
0
LINE
8
BLACK
6
CONTINUOUS
10
97.9549
20
-86.7833
11
97.9382
21
-86.614
0
LINE
8
BLACK
6
CONTINUOUS
10
97.9382
20
-86.614
11
97.9549
21
-86.4447
0
LINE
8
BLACK
6
CONTINUOUS
10
97.9549
20
-86.4447
11
98.0043
21
-86.2819
0
LINE
8
BLACK
6
CONTINUOUS
10
98.0043
20
-86.2819
11
98.0845
21
-86.1319
0
LINE
8
BLACK
6
CONTINUOUS
10
98.0845
20
-86.1319
11
98.1924
21
-86.0004
0
LINE
8
BLACK
6
CONTINUOUS
10
98.1924
20
-86.0004
11
98.3239
21
-85.8925
0
LINE
8
BLACK
6
CONTINUOUS
10
98.3239
20
-85.8925
11
98.4739
21
-85.8123
0
LINE
8
BLACK
6
CONTINUOUS
10
98.4739
20
-85.8123
11
98.6367
21
-85.7629
0
LINE
8
BLACK
6
CONTINUOUS
10
98.6367
20
-85.7629
11
98.7636
21
-85.7504
0
LINE
8
BLACK
6
CONTINUOUS
10
98.7636
20
-85.7504
11
98.8484
21
-85.7504
0
LINE
8
BLACK
6
CONTINUOUS
10
98.8484
20
-85.7504
11
98.9753
21
-85.7629
0
LINE
8
BLACK
6
CONTINUOUS
10
123.886
20
-86.448
11
121.986
21
-86.448
0
LINE
8
BLACK
6
CONTINUOUS
10
121.986
20
-86.448
11
121.986
21
-84.748
0
LINE
8
BLACK
6
CONTINUOUS
10
121.986
20
-84.748
11
123.886
21
-84.748
0
LINE
8
BLACK
6
CONTINUOUS
10
123.886
20
-84.748
11
123.886
21
-86.448
0
LINE
8
BLACK
6
CONTINUOUS
10
143.444
20
-85.94
11
141.544
21
-85.94
0
LINE
8
BLACK
6
CONTINUOUS
10
141.544
20
-85.94
11
141.544
21
-84.24
0
LINE
8
BLACK
6
CONTINUOUS
10
141.544
20
-84.24
11
143.444
21
-84.24
0
LINE
8
BLACK
6
CONTINUOUS
10
143.444
20
-84.24
11
143.444
21
-85.94
0
LINE
8
BLACK
6
CONTINUOUS
10
98.9753
20
-83.2229
11
99.1381
21
-83.2723
0
LINE
8
BLACK
6
CONTINUOUS
10
99.1381
20
-83.2723
11
99.2881
21
-83.3525
0
LINE
8
BLACK
6
CONTINUOUS
10
99.2881
20
-83.3525
11
99.4196
21
-83.4604
0
LINE
8
BLACK
6
CONTINUOUS
10
99.4196
20
-83.4604
11
99.5275
21
-83.5919
0
LINE
8
BLACK
6
CONTINUOUS
10
99.5275
20
-83.5919
11
99.6077
21
-83.7419
0
LINE
8
BLACK
6
CONTINUOUS
10
99.6077
20
-83.7419
11
99.6571
21
-83.9047
0
LINE
8
BLACK
6
CONTINUOUS
10
99.6571
20
-83.9047
11
99.6738
21
-84.074
0
LINE
8
BLACK
6
CONTINUOUS
10
99.6738
20
-84.074
11
99.6571
21
-84.2433
0
LINE
8
BLACK
6
CONTINUOUS
10
99.6571
20
-84.2433
11
99.6077
21
-84.4061
0
LINE
8
BLACK
6
CONTINUOUS
10
99.6077
20
-84.4061
11
99.5275
21
-84.5561
0
LINE
8
BLACK
6
CONTINUOUS
10
99.5275
20
-84.5561
11
99.4196
21
-84.6876
0
LINE
8
BLACK
6
CONTINUOUS
10
99.4196
20
-84.6876
11
99.2881
21
-84.7955
0
LINE
8
BLACK
6
CONTINUOUS
10
99.2881
20
-84.7955
11
99.1381
21
-84.8757
0
LINE
8
BLACK
6
CONTINUOUS
10
99.1381
20
-84.8757
11
98.9753
21
-84.9251
0
LINE
8
BLACK
6
CONTINUOUS
10
98.9753
20
-84.9251
11
98.8484
21
-84.9376
0
LINE
8
BLACK
6
CONTINUOUS
10
98.8484
20
-84.9376
11
98.7636
21
-84.9376
0
LINE
8
BLACK
6
CONTINUOUS
10
98.7636
20
-84.9376
11
98.6367
21
-84.9251
0
LINE
8
BLACK
6
CONTINUOUS
10
98.6367
20
-84.9251
11
98.4739
21
-84.8757
0
LINE
8
BLACK
6
CONTINUOUS
10
98.4739
20
-84.8757
11
98.3239
21
-84.7955
0
LINE
8
BLACK
6
CONTINUOUS
10
98.3239
20
-84.7955
11
98.1924
21
-84.6876
0
LINE
8
BLACK
6
CONTINUOUS
10
98.1924
20
-84.6876
11
98.0845
21
-84.5561
0
LINE
8
BLACK
6
CONTINUOUS
10
98.0845
20
-84.5561
11
98.0043
21
-84.4061
0
LINE
8
BLACK
6
CONTINUOUS
10
98.0043
20
-84.4061
11
97.9549
21
-84.2433
0
LINE
8
BLACK
6
CONTINUOUS
10
97.9549
20
-84.2433
11
97.9382
21
-84.074
0
LINE
8
BLACK
6
CONTINUOUS
10
97.9382
20
-84.074
11
97.9549
21
-83.9047
0
LINE
8
BLACK
6
CONTINUOUS
10
97.9549
20
-83.9047
11
98.0043
21
-83.7419
0
LINE
8
BLACK
6
CONTINUOUS
10
98.0043
20
-83.7419
11
98.0845
21
-83.5919
0
LINE
8
BLACK
6
CONTINUOUS
10
98.0845
20
-83.5919
11
98.1924
21
-83.4604
0
LINE
8
BLACK
6
CONTINUOUS
10
98.1924
20
-83.4604
11
98.3239
21
-83.3525
0
LINE
8
BLACK
6
CONTINUOUS
10
98.3239
20
-83.3525
11
98.4739
21
-83.2723
0
LINE
8
BLACK
6
CONTINUOUS
10
98.4739
20
-83.2723
11
98.6367
21
-83.2229
0
LINE
8
BLACK
6
CONTINUOUS
10
98.6367
20
-83.2229
11
98.7636
21
-83.2104
0
LINE
8
BLACK
6
CONTINUOUS
10
98.7636
20
-83.2104
11
98.8484
21
-83.2104
0
LINE
8
BLACK
6
CONTINUOUS
10
98.8484
20
-83.2104
11
98.9753
21
-83.2229
0
LINE
8
BLACK
6
CONTINUOUS
10
123.886
20
-83.908
11
121.986
21
-83.908
0
LINE
8
BLACK
6
CONTINUOUS
10
121.986
20
-83.908
11
121.986
21
-82.208
0
LINE
8
BLACK
6
CONTINUOUS
10
121.986
20
-82.208
11
123.886
21
-82.208
0
LINE
8
BLACK
6
CONTINUOUS
10
123.886
20
-82.208
11
123.886
21
-83.908
0
LINE
8
BLACK
6
CONTINUOUS
10
147.916
20
-83.5
11
146.216
21
-83.5
0
LINE
8
BLACK
6
CONTINUOUS
10
146.216
20
-83.5
11
146.216
21
-81.6
0
LINE
8
BLACK
6
CONTINUOUS
10
146.216
20
-81.6
11
147.916
21
-81.6
0
LINE
8
BLACK
6
CONTINUOUS
10
147.916
20
-81.6
11
147.916
21
-83.5
0
LINE
8
BLACK
6
CONTINUOUS
10
143.444
20
-83.4
11
141.544
21
-83.4
0
LINE
8
BLACK
6
CONTINUOUS
10
141.544
20
-83.4
11
141.544
21
-81.7
0
LINE
8
BLACK
6
CONTINUOUS
10
141.544
20
-81.7
11
143.444
21
-81.7
0
LINE
8
BLACK
6
CONTINUOUS
10
143.444
20
-81.7
11
143.444
21
-83.4
0
LINE
8
BLACK
6
CONTINUOUS
10
98.9753
20
-80.6829
11
99.1381
21
-80.7323
0
LINE
8
BLACK
6
CONTINUOUS
10
99.1381
20
-80.7323
11
99.2881
21
-80.8125
0
LINE
8
BLACK
6
CONTINUOUS
10
99.2881
20
-80.8125
11
99.4196
21
-80.9204
0
LINE
8
BLACK
6
CONTINUOUS
10
99.4196
20
-80.9204
11
99.5275
21
-81.0519
0
LINE
8
BLACK
6
CONTINUOUS
10
99.5275
20
-81.0519
11
99.6077
21
-81.2019
0
LINE
8
BLACK
6
CONTINUOUS
10
99.6077
20
-81.2019
11
99.6571
21
-81.3647
0
LINE
8
BLACK
6
CONTINUOUS
10
99.6571
20
-81.3647
11
99.6738
21
-81.534
0
LINE
8
BLACK
6
CONTINUOUS
10
99.6738
20
-81.534
11
99.6571
21
-81.7033
0
LINE
8
BLACK
6
CONTINUOUS
10
99.6571
20
-81.7033
11
99.6077
21
-81.8661
0
LINE
8
BLACK
6
CONTINUOUS
10
99.6077
20
-81.8661
11
99.5275
21
-82.0161
0
LINE
8
BLACK
6
CONTINUOUS
10
99.5275
20
-82.0161
11
99.4196
21
-82.1476
0
LINE
8
BLACK
6
CONTINUOUS
10
99.4196
20
-82.1476
11
99.2881
21
-82.2555
0
LINE
8
BLACK
6
CONTINUOUS
10
99.2881
20
-82.2555
11
99.1381
21
-82.3357
0
LINE
8
BLACK
6
CONTINUOUS
10
99.1381
20
-82.3357
11
98.9753
21
-82.3851
0
LINE
8
BLACK
6
CONTINUOUS
10
98.9753
20
-82.3851
11
98.8484
21
-82.3976
0
LINE
8
BLACK
6
CONTINUOUS
10
98.8484
20
-82.3976
11
98.7636
21
-82.3976
0
LINE
8
BLACK
6
CONTINUOUS
10
98.7636
20
-82.3976
11
98.6367
21
-82.3851
0
LINE
8
BLACK
6
CONTINUOUS
10
98.6367
20
-82.3851
11
98.4739
21
-82.3357
0
LINE
8
BLACK
6
CONTINUOUS
10
98.4739
20
-82.3357
11
98.3239
21
-82.2555
0
LINE
8
BLACK
6
CONTINUOUS
10
98.3239
20
-82.2555
11
98.1924
21
-82.1476
0
LINE
8
BLACK
6
CONTINUOUS
10
98.1924
20
-82.1476
11
98.0845
21
-82.0161
0
LINE
8
BLACK
6
CONTINUOUS
10
98.0845
20
-82.0161
11
98.0043
21
-81.8661
0
LINE
8
BLACK
6
CONTINUOUS
10
98.0043
20
-81.8661
11
97.9549
21
-81.7033
0
LINE
8
BLACK
6
CONTINUOUS
10
97.9549
20
-81.7033
11
97.9382
21
-81.534
0
LINE
8
BLACK
6
CONTINUOUS
10
97.9382
20
-81.534
11
97.9549
21
-81.3647
0
LINE
8
BLACK
6
CONTINUOUS
10
97.9549
20
-81.3647
11
98.0043
21
-81.2019
0
LINE
8
BLACK
6
CONTINUOUS
10
98.0043
20
-81.2019
11
98.0845
21
-81.0519
0
LINE
8
BLACK
6
CONTINUOUS
10
98.0845
20
-81.0519
11
98.1924
21
-80.9204
0
LINE
8
BLACK
6
CONTINUOUS
10
98.1924
20
-80.9204
11
98.3239
21
-80.8125
0
LINE
8
BLACK
6
CONTINUOUS
10
98.3239
20
-80.8125
11
98.4739
21
-80.7323
0
LINE
8
BLACK
6
CONTINUOUS
10
98.4739
20
-80.7323
11
98.6367
21
-80.6829
0
LINE
8
BLACK
6
CONTINUOUS
10
98.6367
20
-80.6829
11
98.7636
21
-80.6704
0
LINE
8
BLACK
6
CONTINUOUS
10
98.7636
20
-80.6704
11
98.8484
21
-80.6704
0
LINE
8
BLACK
6
CONTINUOUS
10
98.8484
20
-80.6704
11
98.9753
21
-80.6829
0
LINE
8
BLACK
6
CONTINUOUS
10
123.886
20
-81.368
11
121.986
21
-81.368
0
LINE
8
BLACK
6
CONTINUOUS
10
121.986
20
-81.368
11
121.986
21
-79.668
0
LINE
8
BLACK
6
CONTINUOUS
10
121.986
20
-79.668
11
123.886
21
-79.668
0
LINE
8
BLACK
6
CONTINUOUS
10
123.886
20
-79.668
11
123.886
21
-81.368
0
LINE
8
BLACK
6
CONTINUOUS
10
147.916
20
-80.96
11
146.216
21
-80.96
0
LINE
8
BLACK
6
CONTINUOUS
10
146.216
20
-80.96
11
146.216
21
-79.06
0
LINE
8
BLACK
6
CONTINUOUS
10
146.216
20
-79.06
11
147.916
21
-79.06
0
LINE
8
BLACK
6
CONTINUOUS
10
147.916
20
-79.06
11
147.916
21
-80.96
0
LINE
8
BLACK
6
CONTINUOUS
10
143.444
20
-80.86
11
141.544
21
-80.86
0
LINE
8
BLACK
6
CONTINUOUS
10
141.544
20
-80.86
11
141.544
21
-79.16
0
LINE
8
BLACK
6
CONTINUOUS
10
141.544
20
-79.16
11
143.444
21
-79.16
0
LINE
8
BLACK
6
CONTINUOUS
10
143.444
20
-79.16
11
143.444
21
-80.86
0
LINE
8
BLACK
6
CONTINUOUS
10
98.9753
20
-78.1429
11
99.1381
21
-78.1923
0
LINE
8
BLACK
6
CONTINUOUS
10
99.1381
20
-78.1923
11
99.2881
21
-78.2725
0
LINE
8
BLACK
6
CONTINUOUS
10
99.2881
20
-78.2725
11
99.4196
21
-78.3804
0
LINE
8
BLACK
6
CONTINUOUS
10
99.4196
20
-78.3804
11
99.5275
21
-78.5119
0
LINE
8
BLACK
6
CONTINUOUS
10
99.5275
20
-78.5119
11
99.6077
21
-78.6619
0
LINE
8
BLACK
6
CONTINUOUS
10
99.6077
20
-78.6619
11
99.6571
21
-78.8247
0
LINE
8
BLACK
6
CONTINUOUS
10
99.6571
20
-78.8247
11
99.6738
21
-78.994
0
LINE
8
BLACK
6
CONTINUOUS
10
99.6738
20
-78.994
11
99.6571
21
-79.1633
0
LINE
8
BLACK
6
CONTINUOUS
10
99.6571
20
-79.1633
11
99.6077
21
-79.3261
0
LINE
8
BLACK
6
CONTINUOUS
10
99.6077
20
-79.3261
11
99.5275
21
-79.4761
0
LINE
8
BLACK
6
CONTINUOUS
10
99.5275
20
-79.4761
11
99.4196
21
-79.6076
0
LINE
8
BLACK
6
CONTINUOUS
10
99.4196
20
-79.6076
11
99.2881
21
-79.7155
0
LINE
8
BLACK
6
CONTINUOUS
10
99.2881
20
-79.7155
11
99.1381
21
-79.7957
0
LINE
8
BLACK
6
CONTINUOUS
10
99.1381
20
-79.7957
11
98.9753
21
-79.8451
0
LINE
8
BLACK
6
CONTINUOUS
10
98.9753
20
-79.8451
11
98.8484
21
-79.8576
0
LINE
8
BLACK
6
CONTINUOUS
10
98.8484
20
-79.8576
11
98.7636
21
-79.8576
0
LINE
8
BLACK
6
CONTINUOUS
10
98.7636
20
-79.8576
11
98.6367
21
-79.8451
0
LINE
8
BLACK
6
CONTINUOUS
10
98.6367
20
-79.8451
11
98.4739
21
-79.7957
0
LINE
8
BLACK
6
CONTINUOUS
10
98.4739
20
-79.7957
11
98.3239
21
-79.7155
0
LINE
8
BLACK
6
CONTINUOUS
10
98.3239
20
-79.7155
11
98.1924
21
-79.6076
0
LINE
8
BLACK
6
CONTINUOUS
10
98.1924
20
-79.6076
11
98.0845
21
-79.4761
0
LINE
8
BLACK
6
CONTINUOUS
10
98.0845
20
-79.4761
11
98.0043
21
-79.3261
0
LINE
8
BLACK
6
CONTINUOUS
10
98.0043
20
-79.3261
11
97.9549
21
-79.1633
0
LINE
8
BLACK
6
CONTINUOUS
10
97.9549
20
-79.1633
11
97.9382
21
-78.994
0
LINE
8
BLACK
6
CONTINUOUS
10
97.9382
20
-78.994
11
97.9549
21
-78.8247
0
LINE
8
BLACK
6
CONTINUOUS
10
97.9549
20
-78.8247
11
98.0043
21
-78.6619
0
LINE
8
BLACK
6
CONTINUOUS
10
98.0043
20
-78.6619
11
98.0845
21
-78.5119
0
LINE
8
BLACK
6
CONTINUOUS
10
98.0845
20
-78.5119
11
98.1924
21
-78.3804
0
LINE
8
BLACK
6
CONTINUOUS
10
98.1924
20
-78.3804
11
98.3239
21
-78.2725
0
LINE
8
BLACK
6
CONTINUOUS
10
98.3239
20
-78.2725
11
98.4739
21
-78.1923
0
LINE
8
BLACK
6
CONTINUOUS
10
98.4739
20
-78.1923
11
98.6367
21
-78.1429
0
LINE
8
BLACK
6
CONTINUOUS
10
98.6367
20
-78.1429
11
98.7636
21
-78.1304
0
LINE
8
BLACK
6
CONTINUOUS
10
98.7636
20
-78.1304
11
98.8484
21
-78.1304
0
LINE
8
BLACK
6
CONTINUOUS
10
98.8484
20
-78.1304
11
98.9753
21
-78.1429
0
LINE
8
BLACK
6
CONTINUOUS
10
123.886
20
-78.828
11
121.986
21
-78.828
0
LINE
8
BLACK
6
CONTINUOUS
10
121.986
20
-78.828
11
121.986
21
-77.128
0
LINE
8
BLACK
6
CONTINUOUS
10
121.986
20
-77.128
11
123.886
21
-77.128
0
LINE
8
BLACK
6
CONTINUOUS
10
123.886
20
-77.128
11
123.886
21
-78.828
0
LINE
8
BLACK
6
CONTINUOUS
10
147.916
20
-78.42
11
146.216
21
-78.42
0
LINE
8
BLACK
6
CONTINUOUS
10
146.216
20
-78.42
11
146.216
21
-76.52
0
LINE
8
BLACK
6
CONTINUOUS
10
146.216
20
-76.52
11
147.916
21
-76.52
0
LINE
8
BLACK
6
CONTINUOUS
10
147.916
20
-76.52
11
147.916
21
-78.42
0
LINE
8
BLACK
6
CONTINUOUS
10
143.444
20
-78.32
11
141.544
21
-78.32
0
LINE
8
BLACK
6
CONTINUOUS
10
141.544
20
-78.32
11
141.544
21
-76.62
0
LINE
8
BLACK
6
CONTINUOUS
10
141.544
20
-76.62
11
143.444
21
-76.62
0
LINE
8
BLACK
6
CONTINUOUS
10
143.444
20
-76.62
11
143.444
21
-78.32
0
LINE
8
BLACK
6
CONTINUOUS
10
98.9753
20
-75.6029
11
99.1381
21
-75.6523
0
LINE
8
BLACK
6
CONTINUOUS
10
99.1381
20
-75.6523
11
99.2881
21
-75.7325
0
LINE
8
BLACK
6
CONTINUOUS
10
99.2881
20
-75.7325
11
99.4196
21
-75.8404
0
LINE
8
BLACK
6
CONTINUOUS
10
99.4196
20
-75.8404
11
99.5275
21
-75.9719
0
LINE
8
BLACK
6
CONTINUOUS
10
99.5275
20
-75.9719
11
99.6077
21
-76.1219
0
LINE
8
BLACK
6
CONTINUOUS
10
99.6077
20
-76.1219
11
99.6571
21
-76.2847
0
LINE
8
BLACK
6
CONTINUOUS
10
99.6571
20
-76.2847
11
99.6738
21
-76.454
0
LINE
8
BLACK
6
CONTINUOUS
10
99.6738
20
-76.454
11
99.6571
21
-76.6233
0
LINE
8
BLACK
6
CONTINUOUS
10
99.6571
20
-76.6233
11
99.6077
21
-76.7861
0
LINE
8
BLACK
6
CONTINUOUS
10
99.6077
20
-76.7861
11
99.5275
21
-76.9361
0
LINE
8
BLACK
6
CONTINUOUS
10
99.5275
20
-76.9361
11
99.4196
21
-77.0676
0
LINE
8
BLACK
6
CONTINUOUS
10
99.4196
20
-77.0676
11
99.2881
21
-77.1755
0
LINE
8
BLACK
6
CONTINUOUS
10
99.2881
20
-77.1755
11
99.1381
21
-77.2557
0
LINE
8
BLACK
6
CONTINUOUS
10
99.1381
20
-77.2557
11
98.9753
21
-77.3051
0
LINE
8
BLACK
6
CONTINUOUS
10
98.9753
20
-77.3051
11
98.8484
21
-77.3176
0
LINE
8
BLACK
6
CONTINUOUS
10
98.8484
20
-77.3176
11
98.7636
21
-77.3176
0
LINE
8
BLACK
6
CONTINUOUS
10
98.7636
20
-77.3176
11
98.6367
21
-77.3051
0
LINE
8
BLACK
6
CONTINUOUS
10
98.6367
20
-77.3051
11
98.4739
21
-77.2557
0
LINE
8
BLACK
6
CONTINUOUS
10
98.4739
20
-77.2557
11
98.3239
21
-77.1755
0
LINE
8
BLACK
6
CONTINUOUS
10
98.3239
20
-77.1755
11
98.1924
21
-77.0676
0
LINE
8
BLACK
6
CONTINUOUS
10
98.1924
20
-77.0676
11
98.0845
21
-76.9361
0
LINE
8
BLACK
6
CONTINUOUS
10
98.0845
20
-76.9361
11
98.0043
21
-76.7861
0
LINE
8
BLACK
6
CONTINUOUS
10
98.0043
20
-76.7861
11
97.9549
21
-76.6233
0
LINE
8
BLACK
6
CONTINUOUS
10
97.9549
20
-76.6233
11
97.9382
21
-76.454
0
LINE
8
BLACK
6
CONTINUOUS
10
97.9382
20
-76.454
11
97.9549
21
-76.2847
0
LINE
8
BLACK
6
CONTINUOUS
10
97.9549
20
-76.2847
11
98.0043
21
-76.1219
0
LINE
8
BLACK
6
CONTINUOUS
10
98.0043
20
-76.1219
11
98.0845
21
-75.9719
0
LINE
8
BLACK
6
CONTINUOUS
10
98.0845
20
-75.9719
11
98.1924
21
-75.8404
0
LINE
8
BLACK
6
CONTINUOUS
10
98.1924
20
-75.8404
11
98.3239
21
-75.7325
0
LINE
8
BLACK
6
CONTINUOUS
10
98.3239
20
-75.7325
11
98.4739
21
-75.6523
0
LINE
8
BLACK
6
CONTINUOUS
10
98.4739
20
-75.6523
11
98.6367
21
-75.6029
0
LINE
8
BLACK
6
CONTINUOUS
10
98.6367
20
-75.6029
11
98.7636
21
-75.5904
0
LINE
8
BLACK
6
CONTINUOUS
10
98.7636
20
-75.5904
11
98.8484
21
-75.5904
0
LINE
8
BLACK
6
CONTINUOUS
10
98.8484
20
-75.5904
11
98.9753
21
-75.6029
0
LINE
8
BLACK
6
CONTINUOUS
10
123.886
20
-76.288
11
121.986
21
-76.288
0
LINE
8
BLACK
6
CONTINUOUS
10
121.986
20
-76.288
11
121.986
21
-74.588
0
LINE
8
BLACK
6
CONTINUOUS
10
121.986
20
-74.588
11
123.886
21
-74.588
0
LINE
8
BLACK
6
CONTINUOUS
10
123.886
20
-74.588
11
123.886
21
-76.288
0
LINE
8
BLACK
6
CONTINUOUS
10
147.916
20
-75.88
11
146.216
21
-75.88
0
LINE
8
BLACK
6
CONTINUOUS
10
146.216
20
-75.88
11
146.216
21
-73.98
0
LINE
8
BLACK
6
CONTINUOUS
10
146.216
20
-73.98
11
147.916
21
-73.98
0
LINE
8
BLACK
6
CONTINUOUS
10
147.916
20
-73.98
11
147.916
21
-75.88
0
LINE
8
BLACK
6
CONTINUOUS
10
98.9753
20
-73.0629
11
99.1381
21
-73.1123
0
LINE
8
BLACK
6
CONTINUOUS
10
99.1381
20
-73.1123
11
99.2881
21
-73.1925
0
LINE
8
BLACK
6
CONTINUOUS
10
99.2881
20
-73.1925
11
99.4196
21
-73.3004
0
LINE
8
BLACK
6
CONTINUOUS
10
99.4196
20
-73.3004
11
99.5275
21
-73.4319
0
LINE
8
BLACK
6
CONTINUOUS
10
99.5275
20
-73.4319
11
99.6077
21
-73.5819
0
LINE
8
BLACK
6
CONTINUOUS
10
99.6077
20
-73.5819
11
99.6571
21
-73.7447
0
LINE
8
BLACK
6
CONTINUOUS
10
99.6571
20
-73.7447
11
99.6738
21
-73.914
0
LINE
8
BLACK
6
CONTINUOUS
10
99.6738
20
-73.914
11
99.6571
21
-74.0833
0
LINE
8
BLACK
6
CONTINUOUS
10
99.6571
20
-74.0833
11
99.6077
21
-74.2461
0
LINE
8
BLACK
6
CONTINUOUS
10
99.6077
20
-74.2461
11
99.5275
21
-74.3961
0
LINE
8
BLACK
6
CONTINUOUS
10
99.5275
20
-74.3961
11
99.4196
21
-74.5276
0
LINE
8
BLACK
6
CONTINUOUS
10
99.4196
20
-74.5276
11
99.2881
21
-74.6355
0
LINE
8
BLACK
6
CONTINUOUS
10
99.2881
20
-74.6355
11
99.1381
21
-74.7157
0
LINE
8
BLACK
6
CONTINUOUS
10
99.1381
20
-74.7157
11
98.9753
21
-74.7651
0
LINE
8
BLACK
6
CONTINUOUS
10
98.9753
20
-74.7651
11
98.8484
21
-74.7776
0
LINE
8
BLACK
6
CONTINUOUS
10
98.8484
20
-74.7776
11
98.7636
21
-74.7776
0
LINE
8
BLACK
6
CONTINUOUS
10
98.7636
20
-74.7776
11
98.6367
21
-74.7651
0
LINE
8
BLACK
6
CONTINUOUS
10
98.6367
20
-74.7651
11
98.4739
21
-74.7157
0
LINE
8
BLACK
6
CONTINUOUS
10
98.4739
20
-74.7157
11
98.3239
21
-74.6355
0
LINE
8
BLACK
6
CONTINUOUS
10
98.3239
20
-74.6355
11
98.1924
21
-74.5276
0
LINE
8
BLACK
6
CONTINUOUS
10
98.1924
20
-74.5276
11
98.0845
21
-74.3961
0
LINE
8
BLACK
6
CONTINUOUS
10
98.0845
20
-74.3961
11
98.0043
21
-74.2461
0
LINE
8
BLACK
6
CONTINUOUS
10
98.0043
20
-74.2461
11
97.9549
21
-74.0833
0
LINE
8
BLACK
6
CONTINUOUS
10
97.9549
20
-74.0833
11
97.9382
21
-73.914
0
LINE
8
BLACK
6
CONTINUOUS
10
97.9382
20
-73.914
11
97.9549
21
-73.7447
0
LINE
8
BLACK
6
CONTINUOUS
10
97.9549
20
-73.7447
11
98.0043
21
-73.5819
0
LINE
8
BLACK
6
CONTINUOUS
10
98.0043
20
-73.5819
11
98.0845
21
-73.4319
0
LINE
8
BLACK
6
CONTINUOUS
10
98.0845
20
-73.4319
11
98.1924
21
-73.3004
0
LINE
8
BLACK
6
CONTINUOUS
10
98.1924
20
-73.3004
11
98.3239
21
-73.1925
0
LINE
8
BLACK
6
CONTINUOUS
10
98.3239
20
-73.1925
11
98.4739
21
-73.1123
0
LINE
8
BLACK
6
CONTINUOUS
10
98.4739
20
-73.1123
11
98.6367
21
-73.0629
0
LINE
8
BLACK
6
CONTINUOUS
10
98.6367
20
-73.0629
11
98.7636
21
-73.0504
0
LINE
8
BLACK
6
CONTINUOUS
10
98.7636
20
-73.0504
11
98.8484
21
-73.0504
0
LINE
8
BLACK
6
CONTINUOUS
10
98.8484
20
-73.0504
11
98.9753
21
-73.0629
0
LINE
8
BLACK
6
CONTINUOUS
10
143.444
20
-74.002
11
141.544
21
-74.002
0
LINE
8
BLACK
6
CONTINUOUS
10
141.544
20
-74.002
11
141.544
21
-72.302
0
LINE
8
BLACK
6
CONTINUOUS
10
141.544
20
-72.302
11
143.444
21
-72.302
0
LINE
8
BLACK
6
CONTINUOUS
10
143.444
20
-72.302
11
143.444
21
-74.002
0
LINE
8
BLACK
6
CONTINUOUS
10
123.044
20
-72.356
11
123.147
21
-72.3874
0
LINE
8
BLACK
6
CONTINUOUS
10
123.147
20
-72.3874
11
123.243
21
-72.4385
0
LINE
8
BLACK
6
CONTINUOUS
10
123.243
20
-72.4385
11
123.327
21
-72.5072
0
LINE
8
BLACK
6
CONTINUOUS
10
123.327
20
-72.5072
11
123.396
21
-72.591
0
LINE
8
BLACK
6
CONTINUOUS
10
123.396
20
-72.591
11
123.447
21
-72.6865
0
LINE
8
BLACK
6
CONTINUOUS
10
123.447
20
-72.6865
11
123.478
21
-72.7902
0
LINE
8
BLACK
6
CONTINUOUS
10
123.478
20
-72.7902
11
123.489
21
-72.898
0
LINE
8
BLACK
6
CONTINUOUS
10
123.489
20
-72.898
11
123.478
21
-73.0058
0
LINE
8
BLACK
6
CONTINUOUS
10
123.478
20
-73.0058
11
123.447
21
-73.1095
0
LINE
8
BLACK
6
CONTINUOUS
10
123.447
20
-73.1095
11
123.396
21
-73.205
0
LINE
8
BLACK
6
CONTINUOUS
10
123.396
20
-73.205
11
123.327
21
-73.2888
0
LINE
8
BLACK
6
CONTINUOUS
10
123.327
20
-73.2888
11
123.243
21
-73.3575
0
LINE
8
BLACK
6
CONTINUOUS
10
123.243
20
-73.3575
11
123.147
21
-73.4086
0
LINE
8
BLACK
6
CONTINUOUS
10
123.147
20
-73.4086
11
123.044
21
-73.44
0
LINE
8
BLACK
6
CONTINUOUS
10
123.044
20
-73.44
11
122.963
21
-73.448
0
LINE
8
BLACK
6
CONTINUOUS
10
122.963
20
-73.448
11
122.909
21
-73.448
0
LINE
8
BLACK
6
CONTINUOUS
10
122.909
20
-73.448
11
122.828
21
-73.44
0
LINE
8
BLACK
6
CONTINUOUS
10
122.828
20
-73.44
11
122.725
21
-73.4086
0
LINE
8
BLACK
6
CONTINUOUS
10
122.725
20
-73.4086
11
122.629
21
-73.3575
0
LINE
8
BLACK
6
CONTINUOUS
10
122.629
20
-73.3575
11
122.545
21
-73.2888
0
LINE
8
BLACK
6
CONTINUOUS
10
122.545
20
-73.2888
11
122.476
21
-73.205
0
LINE
8
BLACK
6
CONTINUOUS
10
122.476
20
-73.205
11
122.425
21
-73.1095
0
LINE
8
BLACK
6
CONTINUOUS
10
122.425
20
-73.1095
11
122.394
21
-73.0058
0
LINE
8
BLACK
6
CONTINUOUS
10
122.394
20
-73.0058
11
122.383
21
-72.898
0
LINE
8
BLACK
6
CONTINUOUS
10
122.383
20
-72.898
11
122.394
21
-72.7902
0
LINE
8
BLACK
6
CONTINUOUS
10
122.394
20
-72.7902
11
122.425
21
-72.6865
0
LINE
8
BLACK
6
CONTINUOUS
10
122.425
20
-72.6865
11
122.476
21
-72.591
0
LINE
8
BLACK
6
CONTINUOUS
10
122.476
20
-72.591
11
122.545
21
-72.5072
0
LINE
8
BLACK
6
CONTINUOUS
10
122.545
20
-72.5072
11
122.629
21
-72.4385
0
LINE
8
BLACK
6
CONTINUOUS
10
122.629
20
-72.4385
11
122.725
21
-72.3874
0
LINE
8
BLACK
6
CONTINUOUS
10
122.725
20
-72.3874
11
122.828
21
-72.356
0
LINE
8
BLACK
6
CONTINUOUS
10
122.828
20
-72.356
11
122.909
21
-72.348
0
LINE
8
BLACK
6
CONTINUOUS
10
122.909
20
-72.348
11
122.963
21
-72.348
0
LINE
8
BLACK
6
CONTINUOUS
10
122.963
20
-72.348
11
123.044
21
-72.356
0
LINE
8
BLACK
6
CONTINUOUS
10
147.916
20
-73.34
11
146.216
21
-73.34
0
LINE
8
BLACK
6
CONTINUOUS
10
146.216
20
-73.34
11
146.216
21
-71.44
0
LINE
8
BLACK
6
CONTINUOUS
10
146.216
20
-71.44
11
147.916
21
-71.44
0
LINE
8
BLACK
6
CONTINUOUS
10
147.916
20
-71.44
11
147.916
21
-73.34
0
LINE
8
BLACK
6
CONTINUOUS
10
98.9753
20
-70.5229
11
99.1381
21
-70.5723
0
LINE
8
BLACK
6
CONTINUOUS
10
99.1381
20
-70.5723
11
99.2881
21
-70.6525
0
LINE
8
BLACK
6
CONTINUOUS
10
99.2881
20
-70.6525
11
99.4196
21
-70.7604
0
LINE
8
BLACK
6
CONTINUOUS
10
99.4196
20
-70.7604
11
99.5275
21
-70.8919
0
LINE
8
BLACK
6
CONTINUOUS
10
99.5275
20
-70.8919
11
99.6077
21
-71.0419
0
LINE
8
BLACK
6
CONTINUOUS
10
99.6077
20
-71.0419
11
99.6571
21
-71.2047
0
LINE
8
BLACK
6
CONTINUOUS
10
99.6571
20
-71.2047
11
99.6738
21
-71.374
0
LINE
8
BLACK
6
CONTINUOUS
10
99.6738
20
-71.374
11
99.6571
21
-71.5433
0
LINE
8
BLACK
6
CONTINUOUS
10
99.6571
20
-71.5433
11
99.6077
21
-71.7061
0
LINE
8
BLACK
6
CONTINUOUS
10
99.6077
20
-71.7061
11
99.5275
21
-71.8561
0
LINE
8
BLACK
6
CONTINUOUS
10
99.5275
20
-71.8561
11
99.4196
21
-71.9876
0
LINE
8
BLACK
6
CONTINUOUS
10
99.4196
20
-71.9876
11
99.2881
21
-72.0955
0
LINE
8
BLACK
6
CONTINUOUS
10
99.2881
20
-72.0955
11
99.1381
21
-72.1757
0
LINE
8
BLACK
6
CONTINUOUS
10
99.1381
20
-72.1757
11
98.9753
21
-72.2251
0
LINE
8
BLACK
6
CONTINUOUS
10
98.9753
20
-72.2251
11
98.8484
21
-72.2376
0
LINE
8
BLACK
6
CONTINUOUS
10
98.8484
20
-72.2376
11
98.7636
21
-72.2376
0
LINE
8
BLACK
6
CONTINUOUS
10
98.7636
20
-72.2376
11
98.6367
21
-72.2251
0
LINE
8
BLACK
6
CONTINUOUS
10
98.6367
20
-72.2251
11
98.4739
21
-72.1757
0
LINE
8
BLACK
6
CONTINUOUS
10
98.4739
20
-72.1757
11
98.3239
21
-72.0955
0
LINE
8
BLACK
6
CONTINUOUS
10
98.3239
20
-72.0955
11
98.1924
21
-71.9876
0
LINE
8
BLACK
6
CONTINUOUS
10
98.1924
20
-71.9876
11
98.0845
21
-71.8561
0
LINE
8
BLACK
6
CONTINUOUS
10
98.0845
20
-71.8561
11
98.0043
21
-71.7061
0
LINE
8
BLACK
6
CONTINUOUS
10
98.0043
20
-71.7061
11
97.9549
21
-71.5433
0
LINE
8
BLACK
6
CONTINUOUS
10
97.9549
20
-71.5433
11
97.9382
21
-71.374
0
LINE
8
BLACK
6
CONTINUOUS
10
97.9382
20
-71.374
11
97.9549
21
-71.2047
0
LINE
8
BLACK
6
CONTINUOUS
10
97.9549
20
-71.2047
11
98.0043
21
-71.0419
0
LINE
8
BLACK
6
CONTINUOUS
10
98.0043
20
-71.0419
11
98.0845
21
-70.8919
0
LINE
8
BLACK
6
CONTINUOUS
10
98.0845
20
-70.8919
11
98.1924
21
-70.7604
0
LINE
8
BLACK
6
CONTINUOUS
10
98.1924
20
-70.7604
11
98.3239
21
-70.6525
0
LINE
8
BLACK
6
CONTINUOUS
10
98.3239
20
-70.6525
11
98.4739
21
-70.5723
0
LINE
8
BLACK
6
CONTINUOUS
10
98.4739
20
-70.5723
11
98.6367
21
-70.5229
0
LINE
8
BLACK
6
CONTINUOUS
10
98.6367
20
-70.5229
11
98.7636
21
-70.5104
0
LINE
8
BLACK
6
CONTINUOUS
10
98.7636
20
-70.5104
11
98.8484
21
-70.5104
0
LINE
8
BLACK
6
CONTINUOUS
10
98.8484
20
-70.5104
11
98.9753
21
-70.5229
0
LINE
8
BLACK
6
CONTINUOUS
10
143.444
20
-71.462
11
141.544
21
-71.462
0
LINE
8
BLACK
6
CONTINUOUS
10
141.544
20
-71.462
11
141.544
21
-69.762
0
LINE
8
BLACK
6
CONTINUOUS
10
141.544
20
-69.762
11
143.444
21
-69.762
0
LINE
8
BLACK
6
CONTINUOUS
10
143.444
20
-69.762
11
143.444
21
-71.462
0
LINE
8
BLACK
6
CONTINUOUS
10
123.054
20
-69.7667
11
123.167
21
-69.801
0
LINE
8
BLACK
6
CONTINUOUS
10
123.167
20
-69.801
11
123.271
21
-69.8567
0
LINE
8
BLACK
6
CONTINUOUS
10
123.271
20
-69.8567
11
123.362
21
-69.9317
0
LINE
8
BLACK
6
CONTINUOUS
10
123.362
20
-69.9317
11
123.437
21
-70.023
0
LINE
8
BLACK
6
CONTINUOUS
10
123.437
20
-70.023
11
123.493
21
-70.1273
0
LINE
8
BLACK
6
CONTINUOUS
10
123.493
20
-70.1273
11
123.527
21
-70.2404
0
LINE
8
BLACK
6
CONTINUOUS
10
123.527
20
-70.2404
11
123.539
21
-70.358
0
LINE
8
BLACK
6
CONTINUOUS
10
123.539
20
-70.358
11
123.527
21
-70.4756
0
LINE
8
BLACK
6
CONTINUOUS
10
123.527
20
-70.4756
11
123.493
21
-70.5887
0
LINE
8
BLACK
6
CONTINUOUS
10
123.493
20
-70.5887
11
123.437
21
-70.693
0
LINE
8
BLACK
6
CONTINUOUS
10
123.437
20
-70.693
11
123.362
21
-70.7843
0
LINE
8
BLACK
6
CONTINUOUS
10
123.362
20
-70.7843
11
123.271
21
-70.8593
0
LINE
8
BLACK
6
CONTINUOUS
10
123.271
20
-70.8593
11
123.167
21
-70.915
0
LINE
8
BLACK
6
CONTINUOUS
10
123.167
20
-70.915
11
123.054
21
-70.9493
0
LINE
8
BLACK
6
CONTINUOUS
10
123.054
20
-70.9493
11
122.965
21
-70.958
0
LINE
8
BLACK
6
CONTINUOUS
10
122.965
20
-70.958
11
122.907
21
-70.958
0
LINE
8
BLACK
6
CONTINUOUS
10
122.907
20
-70.958
11
122.818
21
-70.9493
0
LINE
8
BLACK
6
CONTINUOUS
10
122.818
20
-70.9493
11
122.705
21
-70.915
0
LINE
8
BLACK
6
CONTINUOUS
10
122.705
20
-70.915
11
122.601
21
-70.8593
0
LINE
8
BLACK
6
CONTINUOUS
10
122.601
20
-70.8593
11
122.51
21
-70.7843
0
LINE
8
BLACK
6
CONTINUOUS
10
122.51
20
-70.7843
11
122.435
21
-70.693
0
LINE
8
BLACK
6
CONTINUOUS
10
122.435
20
-70.693
11
122.379
21
-70.5887
0
LINE
8
BLACK
6
CONTINUOUS
10
122.379
20
-70.5887
11
122.345
21
-70.4756
0
LINE
8
BLACK
6
CONTINUOUS
10
122.345
20
-70.4756
11
122.333
21
-70.358
0
LINE
8
BLACK
6
CONTINUOUS
10
122.333
20
-70.358
11
122.345
21
-70.2404
0
LINE
8
BLACK
6
CONTINUOUS
10
122.345
20
-70.2404
11
122.379
21
-70.1273
0
LINE
8
BLACK
6
CONTINUOUS
10
122.379
20
-70.1273
11
122.435
21
-70.023
0
LINE
8
BLACK
6
CONTINUOUS
10
122.435
20
-70.023
11
122.51
21
-69.9317
0
LINE
8
BLACK
6
CONTINUOUS
10
122.51
20
-69.9317
11
122.601
21
-69.8567
0
LINE
8
BLACK
6
CONTINUOUS
10
122.601
20
-69.8567
11
122.705
21
-69.801
0
LINE
8
BLACK
6
CONTINUOUS
10
122.705
20
-69.801
11
122.818
21
-69.7667
0
LINE
8
BLACK
6
CONTINUOUS
10
122.818
20
-69.7667
11
122.907
21
-69.758
0
LINE
8
BLACK
6
CONTINUOUS
10
122.907
20
-69.758
11
122.965
21
-69.758
0
LINE
8
BLACK
6
CONTINUOUS
10
122.965
20
-69.758
11
123.054
21
-69.7667
0
LINE
8
BLACK
6
CONTINUOUS
10
147.916
20
-70.8
11
146.216
21
-70.8
0
LINE
8
BLACK
6
CONTINUOUS
10
146.216
20
-70.8
11
146.216
21
-68.9
0
LINE
8
BLACK
6
CONTINUOUS
10
146.216
20
-68.9
11
147.916
21
-68.9
0
LINE
8
BLACK
6
CONTINUOUS
10
147.916
20
-68.9
11
147.916
21
-70.8
0
LINE
8
BLACK
6
CONTINUOUS
10
98.9753
20
-67.9829
11
99.1381
21
-68.0323
0
LINE
8
BLACK
6
CONTINUOUS
10
99.1381
20
-68.0323
11
99.2881
21
-68.1125
0
LINE
8
BLACK
6
CONTINUOUS
10
99.2881
20
-68.1125
11
99.4196
21
-68.2204
0
LINE
8
BLACK
6
CONTINUOUS
10
99.4196
20
-68.2204
11
99.5275
21
-68.3519
0
LINE
8
BLACK
6
CONTINUOUS
10
99.5275
20
-68.3519
11
99.6077
21
-68.5019
0
LINE
8
BLACK
6
CONTINUOUS
10
99.6077
20
-68.5019
11
99.6571
21
-68.6647
0
LINE
8
BLACK
6
CONTINUOUS
10
99.6571
20
-68.6647
11
99.6738
21
-68.834
0
LINE
8
BLACK
6
CONTINUOUS
10
99.6738
20
-68.834
11
99.6571
21
-69.0033
0
LINE
8
BLACK
6
CONTINUOUS
10
99.6571
20
-69.0033
11
99.6077
21
-69.1661
0
LINE
8
BLACK
6
CONTINUOUS
10
99.6077
20
-69.1661
11
99.5275
21
-69.3161
0
LINE
8
BLACK
6
CONTINUOUS
10
99.5275
20
-69.3161
11
99.4196
21
-69.4476
0
LINE
8
BLACK
6
CONTINUOUS
10
99.4196
20
-69.4476
11
99.2881
21
-69.5555
0
LINE
8
BLACK
6
CONTINUOUS
10
99.2881
20
-69.5555
11
99.1381
21
-69.6357
0
LINE
8
BLACK
6
CONTINUOUS
10
99.1381
20
-69.6357
11
98.9753
21
-69.6851
0
LINE
8
BLACK
6
CONTINUOUS
10
98.9753
20
-69.6851
11
98.8484
21
-69.6976
0
LINE
8
BLACK
6
CONTINUOUS
10
98.8484
20
-69.6976
11
98.7636
21
-69.6976
0
LINE
8
BLACK
6
CONTINUOUS
10
98.7636
20
-69.6976
11
98.6367
21
-69.6851
0
LINE
8
BLACK
6
CONTINUOUS
10
98.6367
20
-69.6851
11
98.4739
21
-69.6357
0
LINE
8
BLACK
6
CONTINUOUS
10
98.4739
20
-69.6357
11
98.3239
21
-69.5555
0
LINE
8
BLACK
6
CONTINUOUS
10
98.3239
20
-69.5555
11
98.1924
21
-69.4476
0
LINE
8
BLACK
6
CONTINUOUS
10
98.1924
20
-69.4476
11
98.0845
21
-69.3161
0
LINE
8
BLACK
6
CONTINUOUS
10
98.0845
20
-69.3161
11
98.0043
21
-69.1661
0
LINE
8
BLACK
6
CONTINUOUS
10
98.0043
20
-69.1661
11
97.9549
21
-69.0033
0
LINE
8
BLACK
6
CONTINUOUS
10
97.9549
20
-69.0033
11
97.9382
21
-68.834
0
LINE
8
BLACK
6
CONTINUOUS
10
97.9382
20
-68.834
11
97.9549
21
-68.6647
0
LINE
8
BLACK
6
CONTINUOUS
10
97.9549
20
-68.6647
11
98.0043
21
-68.5019
0
LINE
8
BLACK
6
CONTINUOUS
10
98.0043
20
-68.5019
11
98.0845
21
-68.3519
0
LINE
8
BLACK
6
CONTINUOUS
10
98.0845
20
-68.3519
11
98.1924
21
-68.2204
0
LINE
8
BLACK
6
CONTINUOUS
10
98.1924
20
-68.2204
11
98.3239
21
-68.1125
0
LINE
8
BLACK
6
CONTINUOUS
10
98.3239
20
-68.1125
11
98.4739
21
-68.0323
0
LINE
8
BLACK
6
CONTINUOUS
10
98.4739
20
-68.0323
11
98.6367
21
-67.9829
0
LINE
8
BLACK
6
CONTINUOUS
10
98.6367
20
-67.9829
11
98.7636
21
-67.9704
0
LINE
8
BLACK
6
CONTINUOUS
10
98.7636
20
-67.9704
11
98.8484
21
-67.9704
0
LINE
8
BLACK
6
CONTINUOUS
10
98.8484
20
-67.9704
11
98.9753
21
-67.9829
0
LINE
8
BLACK
6
CONTINUOUS
10
143.444
20
-68.922
11
141.544
21
-68.922
0
LINE
8
BLACK
6
CONTINUOUS
10
141.544
20
-68.922
11
141.544
21
-67.222
0
LINE
8
BLACK
6
CONTINUOUS
10
141.544
20
-67.222
11
143.444
21
-67.222
0
LINE
8
BLACK
6
CONTINUOUS
10
143.444
20
-67.222
11
143.444
21
-68.922
0
LINE
8
BLACK
6
CONTINUOUS
10
123.786
20
-68.518
11
122.086
21
-68.518
0
LINE
8
BLACK
6
CONTINUOUS
10
122.086
20
-68.518
11
122.086
21
-67.118
0
LINE
8
BLACK
6
CONTINUOUS
10
122.086
20
-67.118
11
123.786
21
-67.118
0
LINE
8
BLACK
6
CONTINUOUS
10
123.786
20
-67.118
11
123.786
21
-68.518
0
LINE
8
BLACK
6
CONTINUOUS
10
147.916
20
-68.26
11
146.216
21
-68.26
0
LINE
8
BLACK
6
CONTINUOUS
10
146.216
20
-68.26
11
146.216
21
-66.36
0
LINE
8
BLACK
6
CONTINUOUS
10
146.216
20
-66.36
11
147.916
21
-66.36
0
LINE
8
BLACK
6
CONTINUOUS
10
147.916
20
-66.36
11
147.916
21
-68.26
0
LINE
8
BLACK
6
CONTINUOUS
10
143.444
20
-66.382
11
141.544
21
-66.382
0
LINE
8
BLACK
6
CONTINUOUS
10
141.544
20
-66.382
11
141.544
21
-64.682
0
LINE
8
BLACK
6
CONTINUOUS
10
141.544
20
-64.682
11
143.444
21
-64.682
0
LINE
8
BLACK
6
CONTINUOUS
10
143.444
20
-64.682
11
143.444
21
-66.382
0
LINE
8
BLACK
6
CONTINUOUS
10
147.916
20
-65.72
11
146.216
21
-65.72
0
LINE
8
BLACK
6
CONTINUOUS
10
146.216
20
-65.72
11
146.216
21
-63.82
0
LINE
8
BLACK
6
CONTINUOUS
10
146.216
20
-63.82
11
147.916
21
-63.82
0
LINE
8
BLACK
6
CONTINUOUS
10
147.916
20
-63.82
11
147.916
21
-65.72
0
LINE
8
BLACK
6
CONTINUOUS
10
116.313
20
-62.0634
11
116.539
21
-62.132
0
LINE
8
BLACK
6
CONTINUOUS
10
116.539
20
-62.132
11
116.748
21
-62.2434
0
LINE
8
BLACK
6
CONTINUOUS
10
116.748
20
-62.2434
11
116.931
21
-62.3934
0
LINE
8
BLACK
6
CONTINUOUS
10
116.931
20
-62.3934
11
117.081
21
-62.5761
0
LINE
8
BLACK
6
CONTINUOUS
10
117.081
20
-62.5761
11
117.192
21
-62.7846
0
LINE
8
BLACK
6
CONTINUOUS
10
117.192
20
-62.7846
11
117.261
21
-63.0108
0
LINE
8
BLACK
6
CONTINUOUS
10
117.261
20
-63.0108
11
117.284
21
-63.246
0
LINE
8
BLACK
6
CONTINUOUS
10
117.284
20
-63.246
11
117.261
21
-63.4812
0
LINE
8
BLACK
6
CONTINUOUS
10
117.261
20
-63.4812
11
117.192
21
-63.7074
0
LINE
8
BLACK
6
CONTINUOUS
10
117.192
20
-63.7074
11
117.081
21
-63.9159
0
LINE
8
BLACK
6
CONTINUOUS
10
117.081
20
-63.9159
11
116.931
21
-64.0986
0
LINE
8
BLACK
6
CONTINUOUS
10
116.931
20
-64.0986
11
116.748
21
-64.2486
0
LINE
8
BLACK
6
CONTINUOUS
10
116.748
20
-64.2486
11
116.539
21
-64.36
0
LINE
8
BLACK
6
CONTINUOUS
10
116.539
20
-64.36
11
116.313
21
-64.4286
0
LINE
8
BLACK
6
CONTINUOUS
10
116.313
20
-64.4286
11
116.137
21
-64.446
0
LINE
8
BLACK
6
CONTINUOUS
10
116.137
20
-64.446
11
116.019
21
-64.446
0
LINE
8
BLACK
6
CONTINUOUS
10
116.019
20
-64.446
11
115.843
21
-64.4286
0
LINE
8
BLACK
6
CONTINUOUS
10
115.843
20
-64.4286
11
115.617
21
-64.36
0
LINE
8
BLACK
6
CONTINUOUS
10
115.617
20
-64.36
11
115.408
21
-64.2486
0
LINE
8
BLACK
6
CONTINUOUS
10
115.408
20
-64.2486
11
115.225
21
-64.0986
0
LINE
8
BLACK
6
CONTINUOUS
10
115.225
20
-64.0986
11
115.075
21
-63.9159
0
LINE
8
BLACK
6
CONTINUOUS
10
115.075
20
-63.9159
11
114.964
21
-63.7074
0
LINE
8
BLACK
6
CONTINUOUS
10
114.964
20
-63.7074
11
114.895
21
-63.4812
0
LINE
8
BLACK
6
CONTINUOUS
10
114.895
20
-63.4812
11
114.872
21
-63.246
0
LINE
8
BLACK
6
CONTINUOUS
10
114.872
20
-63.246
11
114.895
21
-63.0108
0
LINE
8
BLACK
6
CONTINUOUS
10
114.895
20
-63.0108
11
114.964
21
-62.7846
0
LINE
8
BLACK
6
CONTINUOUS
10
114.964
20
-62.7846
11
115.075
21
-62.5761
0
LINE
8
BLACK
6
CONTINUOUS
10
115.075
20
-62.5761
11
115.225
21
-62.3934
0
LINE
8
BLACK
6
CONTINUOUS
10
115.225
20
-62.3934
11
115.408
21
-62.2434
0
LINE
8
BLACK
6
CONTINUOUS
10
115.408
20
-62.2434
11
115.617
21
-62.132
0
LINE
8
BLACK
6
CONTINUOUS
10
115.617
20
-62.132
11
115.843
21
-62.0634
0
LINE
8
BLACK
6
CONTINUOUS
10
115.843
20
-62.0634
11
116.019
21
-62.046
0
LINE
8
BLACK
6
CONTINUOUS
10
116.019
20
-62.046
11
116.137
21
-62.046
0
LINE
8
BLACK
6
CONTINUOUS
10
116.137
20
-62.046
11
116.313
21
-62.0634
0
LINE
8
BLACK
6
CONTINUOUS
10
109.455
20
-62.0634
11
109.681
21
-62.132
0
LINE
8
BLACK
6
CONTINUOUS
10
109.681
20
-62.132
11
109.89
21
-62.2434
0
LINE
8
BLACK
6
CONTINUOUS
10
109.89
20
-62.2434
11
110.073
21
-62.3934
0
LINE
8
BLACK
6
CONTINUOUS
10
110.073
20
-62.3934
11
110.223
21
-62.5761
0
LINE
8
BLACK
6
CONTINUOUS
10
110.223
20
-62.5761
11
110.334
21
-62.7846
0
LINE
8
BLACK
6
CONTINUOUS
10
110.334
20
-62.7846
11
110.403
21
-63.0108
0
LINE
8
BLACK
6
CONTINUOUS
10
110.403
20
-63.0108
11
110.426
21
-63.246
0
LINE
8
BLACK
6
CONTINUOUS
10
110.426
20
-63.246
11
110.403
21
-63.4812
0
LINE
8
BLACK
6
CONTINUOUS
10
110.403
20
-63.4812
11
110.334
21
-63.7074
0
LINE
8
BLACK
6
CONTINUOUS
10
110.334
20
-63.7074
11
110.223
21
-63.9159
0
LINE
8
BLACK
6
CONTINUOUS
10
110.223
20
-63.9159
11
110.073
21
-64.0986
0
LINE
8
BLACK
6
CONTINUOUS
10
110.073
20
-64.0986
11
109.89
21
-64.2486
0
LINE
8
BLACK
6
CONTINUOUS
10
109.89
20
-64.2486
11
109.681
21
-64.36
0
LINE
8
BLACK
6
CONTINUOUS
10
109.681
20
-64.36
11
109.455
21
-64.4286
0
LINE
8
BLACK
6
CONTINUOUS
10
109.455
20
-64.4286
11
109.279
21
-64.446
0
LINE
8
BLACK
6
CONTINUOUS
10
109.279
20
-64.446
11
109.161
21
-64.446
0
LINE
8
BLACK
6
CONTINUOUS
10
109.161
20
-64.446
11
108.985
21
-64.4286
0
LINE
8
BLACK
6
CONTINUOUS
10
108.985
20
-64.4286
11
108.759
21
-64.36
0
LINE
8
BLACK
6
CONTINUOUS
10
108.759
20
-64.36
11
108.55
21
-64.2486
0
LINE
8
BLACK
6
CONTINUOUS
10
108.55
20
-64.2486
11
108.367
21
-64.0986
0
LINE
8
BLACK
6
CONTINUOUS
10
108.367
20
-64.0986
11
108.217
21
-63.9159
0
LINE
8
BLACK
6
CONTINUOUS
10
108.217
20
-63.9159
11
108.106
21
-63.7074
0
LINE
8
BLACK
6
CONTINUOUS
10
108.106
20
-63.7074
11
108.037
21
-63.4812
0
LINE
8
BLACK
6
CONTINUOUS
10
108.037
20
-63.4812
11
108.014
21
-63.246
0
LINE
8
BLACK
6
CONTINUOUS
10
108.014
20
-63.246
11
108.037
21
-63.0108
0
LINE
8
BLACK
6
CONTINUOUS
10
108.037
20
-63.0108
11
108.106
21
-62.7846
0
LINE
8
BLACK
6
CONTINUOUS
10
108.106
20
-62.7846
11
108.217
21
-62.5761
0
LINE
8
BLACK
6
CONTINUOUS
10
108.217
20
-62.5761
11
108.367
21
-62.3934
0
LINE
8
BLACK
6
CONTINUOUS
10
108.367
20
-62.3934
11
108.55
21
-62.2434
0
LINE
8
BLACK
6
CONTINUOUS
10
108.55
20
-62.2434
11
108.759
21
-62.132
0
LINE
8
BLACK
6
CONTINUOUS
10
108.759
20
-62.132
11
108.985
21
-62.0634
0
LINE
8
BLACK
6
CONTINUOUS
10
108.985
20
-62.0634
11
109.161
21
-62.046
0
LINE
8
BLACK
6
CONTINUOUS
10
109.161
20
-62.046
11
109.279
21
-62.046
0
LINE
8
BLACK
6
CONTINUOUS
10
109.279
20
-62.046
11
109.455
21
-62.0634
0
LINE
8
BLACK
6
CONTINUOUS
10
143.444
20
-63.842
11
141.544
21
-63.842
0
LINE
8
BLACK
6
CONTINUOUS
10
141.544
20
-63.842
11
141.544
21
-62.142
0
LINE
8
BLACK
6
CONTINUOUS
10
141.544
20
-62.142
11
143.444
21
-62.142
0
LINE
8
BLACK
6
CONTINUOUS
10
143.444
20
-62.142
11
143.444
21
-63.842
0
LINE
8
BLACK
6
CONTINUOUS
10
147.916
20
-63.18
11
146.216
21
-63.18
0
LINE
8
BLACK
6
CONTINUOUS
10
146.216
20
-63.18
11
146.216
21
-61.28
0
LINE
8
BLACK
6
CONTINUOUS
10
146.216
20
-61.28
11
147.916
21
-61.28
0
LINE
8
BLACK
6
CONTINUOUS
10
147.916
20
-61.28
11
147.916
21
-63.18
0
LINE
8
BLACK
6
CONTINUOUS
10
125.231
20
-60.3486
11
125.394
21
-60.4164
0
LINE
8
BLACK
6
CONTINUOUS
10
125.394
20
-60.4164
11
125.542
21
-60.5149
0
LINE
8
BLACK
6
CONTINUOUS
10
125.542
20
-60.5149
11
125.667
21
-60.6403
0
LINE
8
BLACK
6
CONTINUOUS
10
125.667
20
-60.6403
11
125.766
21
-60.7877
0
LINE
8
BLACK
6
CONTINUOUS
10
125.766
20
-60.7877
11
125.833
21
-60.9515
0
LINE
8
BLACK
6
CONTINUOUS
10
125.833
20
-60.9515
11
125.868
21
-61.1254
0
LINE
8
BLACK
6
CONTINUOUS
10
125.868
20
-61.1254
11
125.868
21
-61.3026
0
LINE
8
BLACK
6
CONTINUOUS
10
125.868
20
-61.3026
11
125.833
21
-61.4765
0
LINE
8
BLACK
6
CONTINUOUS
10
125.833
20
-61.4765
11
125.766
21
-61.6403
0
LINE
8
BLACK
6
CONTINUOUS
10
125.766
20
-61.6403
11
125.667
21
-61.7877
0
LINE
8
BLACK
6
CONTINUOUS
10
125.667
20
-61.7877
11
125.542
21
-61.9131
0
LINE
8
BLACK
6
CONTINUOUS
10
125.542
20
-61.9131
11
125.394
21
-62.0116
0
LINE
8
BLACK
6
CONTINUOUS
10
125.394
20
-62.0116
11
125.231
21
-62.0794
0
LINE
8
BLACK
6
CONTINUOUS
10
125.231
20
-62.0794
11
125.057
21
-62.114
0
LINE
8
BLACK
6
CONTINUOUS
10
125.057
20
-62.114
11
124.879
21
-62.114
0
LINE
8
BLACK
6
CONTINUOUS
10
124.879
20
-62.114
11
124.705
21
-62.0794
0
LINE
8
BLACK
6
CONTINUOUS
10
124.705
20
-62.0794
11
124.542
21
-62.0116
0
LINE
8
BLACK
6
CONTINUOUS
10
124.542
20
-62.0116
11
124.394
21
-61.9131
0
LINE
8
BLACK
6
CONTINUOUS
10
124.394
20
-61.9131
11
124.269
21
-61.7877
0
LINE
8
BLACK
6
CONTINUOUS
10
124.269
20
-61.7877
11
124.17
21
-61.6403
0
LINE
8
BLACK
6
CONTINUOUS
10
124.17
20
-61.6403
11
124.103
21
-61.4765
0
LINE
8
BLACK
6
CONTINUOUS
10
124.103
20
-61.4765
11
124.068
21
-61.3026
0
LINE
8
BLACK
6
CONTINUOUS
10
124.068
20
-61.3026
11
124.068
21
-61.1254
0
LINE
8
BLACK
6
CONTINUOUS
10
124.068
20
-61.1254
11
124.103
21
-60.9515
0
LINE
8
BLACK
6
CONTINUOUS
10
124.103
20
-60.9515
11
124.17
21
-60.7877
0
LINE
8
BLACK
6
CONTINUOUS
10
124.17
20
-60.7877
11
124.269
21
-60.6403
0
LINE
8
BLACK
6
CONTINUOUS
10
124.269
20
-60.6403
11
124.394
21
-60.5149
0
LINE
8
BLACK
6
CONTINUOUS
10
124.394
20
-60.5149
11
124.542
21
-60.4164
0
LINE
8
BLACK
6
CONTINUOUS
10
124.542
20
-60.4164
11
124.705
21
-60.3486
0
LINE
8
BLACK
6
CONTINUOUS
10
124.705
20
-60.3486
11
124.879
21
-60.314
0
LINE
8
BLACK
6
CONTINUOUS
10
124.879
20
-60.314
11
125.057
21
-60.314
0
LINE
8
BLACK
6
CONTINUOUS
10
125.057
20
-60.314
11
125.231
21
-60.3486
0
LINE
8
BLACK
6
CONTINUOUS
10
123.328
20
-62.114
11
121.528
21
-62.114
0
LINE
8
BLACK
6
CONTINUOUS
10
121.528
20
-62.114
11
121.528
21
-60.314
0
LINE
8
BLACK
6
CONTINUOUS
10
121.528
20
-60.314
11
123.328
21
-60.314
0
LINE
8
BLACK
6
CONTINUOUS
10
123.328
20
-60.314
11
123.328
21
-62.114
0
LINE
8
BLACK
6
CONTINUOUS
10
147.916
20
-60.64
11
146.216
21
-60.64
0
LINE
8
BLACK
6
CONTINUOUS
10
146.216
20
-60.64
11
146.216
21
-58.74
0
LINE
8
BLACK
6
CONTINUOUS
10
146.216
20
-58.74
11
147.916
21
-58.74
0
LINE
8
BLACK
6
CONTINUOUS
10
147.916
20
-58.74
11
147.916
21
-60.64
0
LINE
8
BLACK
6
CONTINUOUS
10
109.57
20
-57.0121
11
109.788
21
-57.1026
0
LINE
8
BLACK
6
CONTINUOUS
10
109.788
20
-57.1026
11
109.985
21
-57.2339
0
LINE
8
BLACK
6
CONTINUOUS
10
109.985
20
-57.2339
11
110.152
21
-57.401
0
LINE
8
BLACK
6
CONTINUOUS
10
110.152
20
-57.401
11
110.283
21
-57.5976
0
LINE
8
BLACK
6
CONTINUOUS
10
110.283
20
-57.5976
11
110.374
21
-57.816
0
LINE
8
BLACK
6
CONTINUOUS
10
110.374
20
-57.816
11
110.42
21
-58.0478
0
LINE
8
BLACK
6
CONTINUOUS
10
110.42
20
-58.0478
11
110.42
21
-58.2842
0
LINE
8
BLACK
6
CONTINUOUS
10
110.42
20
-58.2842
11
110.374
21
-58.516
0
LINE
8
BLACK
6
CONTINUOUS
10
110.374
20
-58.516
11
110.283
21
-58.7344
0
LINE
8
BLACK
6
CONTINUOUS
10
110.283
20
-58.7344
11
110.152
21
-58.931
0
LINE
8
BLACK
6
CONTINUOUS
10
110.152
20
-58.931
11
109.985
21
-59.0981
0
LINE
8
BLACK
6
CONTINUOUS
10
109.985
20
-59.0981
11
109.788
21
-59.2294
0
LINE
8
BLACK
6
CONTINUOUS
10
109.788
20
-59.2294
11
109.57
21
-59.3199
0
LINE
8
BLACK
6
CONTINUOUS
10
109.57
20
-59.3199
11
109.338
21
-59.366
0
LINE
8
BLACK
6
CONTINUOUS
10
109.338
20
-59.366
11
109.102
21
-59.366
0
LINE
8
BLACK
6
CONTINUOUS
10
109.102
20
-59.366
11
108.87
21
-59.3199
0
LINE
8
BLACK
6
CONTINUOUS
10
108.87
20
-59.3199
11
108.652
21
-59.2294
0
LINE
8
BLACK
6
CONTINUOUS
10
108.652
20
-59.2294
11
108.455
21
-59.0981
0
LINE
8
BLACK
6
CONTINUOUS
10
108.455
20
-59.0981
11
108.288
21
-58.931
0
LINE
8
BLACK
6
CONTINUOUS
10
108.288
20
-58.931
11
108.157
21
-58.7344
0
LINE
8
BLACK
6
CONTINUOUS
10
108.157
20
-58.7344
11
108.066
21
-58.516
0
LINE
8
BLACK
6
CONTINUOUS
10
108.066
20
-58.516
11
108.02
21
-58.2842
0
LINE
8
BLACK
6
CONTINUOUS
10
108.02
20
-58.2842
11
108.02
21
-58.0478
0
LINE
8
BLACK
6
CONTINUOUS
10
108.02
20
-58.0478
11
108.066
21
-57.816
0
LINE
8
BLACK
6
CONTINUOUS
10
108.066
20
-57.816
11
108.157
21
-57.5976
0
LINE
8
BLACK
6
CONTINUOUS
10
108.157
20
-57.5976
11
108.288
21
-57.401
0
LINE
8
BLACK
6
CONTINUOUS
10
108.288
20
-57.401
11
108.455
21
-57.2339
0
LINE
8
BLACK
6
CONTINUOUS
10
108.455
20
-57.2339
11
108.652
21
-57.1026
0
LINE
8
BLACK
6
CONTINUOUS
10
108.652
20
-57.1026
11
108.87
21
-57.0121
0
LINE
8
BLACK
6
CONTINUOUS
10
108.87
20
-57.0121
11
109.102
21
-56.966
0
LINE
8
BLACK
6
CONTINUOUS
10
109.102
20
-56.966
11
109.338
21
-56.966
0
LINE
8
BLACK
6
CONTINUOUS
10
109.338
20
-56.966
11
109.57
21
-57.0121
0
LINE
8
BLACK
6
CONTINUOUS
10
116.428
20
-57.0121
11
116.646
21
-57.1026
0
LINE
8
BLACK
6
CONTINUOUS
10
116.646
20
-57.1026
11
116.843
21
-57.2339
0
LINE
8
BLACK
6
CONTINUOUS
10
116.843
20
-57.2339
11
117.01
21
-57.401
0
LINE
8
BLACK
6
CONTINUOUS
10
117.01
20
-57.401
11
117.141
21
-57.5976
0
LINE
8
BLACK
6
CONTINUOUS
10
117.141
20
-57.5976
11
117.232
21
-57.816
0
LINE
8
BLACK
6
CONTINUOUS
10
117.232
20
-57.816
11
117.278
21
-58.0478
0
LINE
8
BLACK
6
CONTINUOUS
10
117.278
20
-58.0478
11
117.278
21
-58.2842
0
LINE
8
BLACK
6
CONTINUOUS
10
117.278
20
-58.2842
11
117.232
21
-58.516
0
LINE
8
BLACK
6
CONTINUOUS
10
117.232
20
-58.516
11
117.141
21
-58.7344
0
LINE
8
BLACK
6
CONTINUOUS
10
117.141
20
-58.7344
11
117.01
21
-58.931
0
LINE
8
BLACK
6
CONTINUOUS
10
117.01
20
-58.931
11
116.843
21
-59.0981
0
LINE
8
BLACK
6
CONTINUOUS
10
116.843
20
-59.0981
11
116.646
21
-59.2294
0
LINE
8
BLACK
6
CONTINUOUS
10
116.646
20
-59.2294
11
116.428
21
-59.3199
0
LINE
8
BLACK
6
CONTINUOUS
10
116.428
20
-59.3199
11
116.196
21
-59.366
0
LINE
8
BLACK
6
CONTINUOUS
10
116.196
20
-59.366
11
115.96
21
-59.366
0
LINE
8
BLACK
6
CONTINUOUS
10
115.96
20
-59.366
11
115.728
21
-59.3199
0
LINE
8
BLACK
6
CONTINUOUS
10
115.728
20
-59.3199
11
115.51
21
-59.2294
0
LINE
8
BLACK
6
CONTINUOUS
10
115.51
20
-59.2294
11
115.313
21
-59.0981
0
LINE
8
BLACK
6
CONTINUOUS
10
115.313
20
-59.0981
11
115.146
21
-58.931
0
LINE
8
BLACK
6
CONTINUOUS
10
115.146
20
-58.931
11
115.015
21
-58.7344
0
LINE
8
BLACK
6
CONTINUOUS
10
115.015
20
-58.7344
11
114.924
21
-58.516
0
LINE
8
BLACK
6
CONTINUOUS
10
114.924
20
-58.516
11
114.878
21
-58.2842
0
LINE
8
BLACK
6
CONTINUOUS
10
114.878
20
-58.2842
11
114.878
21
-58.0478
0
LINE
8
BLACK
6
CONTINUOUS
10
114.878
20
-58.0478
11
114.924
21
-57.816
0
LINE
8
BLACK
6
CONTINUOUS
10
114.924
20
-57.816
11
115.015
21
-57.5976
0
LINE
8
BLACK
6
CONTINUOUS
10
115.015
20
-57.5976
11
115.146
21
-57.401
0
LINE
8
BLACK
6
CONTINUOUS
10
115.146
20
-57.401
11
115.313
21
-57.2339
0
LINE
8
BLACK
6
CONTINUOUS
10
115.313
20
-57.2339
11
115.51
21
-57.1026
0
LINE
8
BLACK
6
CONTINUOUS
10
115.51
20
-57.1026
11
115.728
21
-57.0121
0
LINE
8
BLACK
6
CONTINUOUS
10
115.728
20
-57.0121
11
115.96
21
-56.966
0
LINE
8
BLACK
6
CONTINUOUS
10
115.96
20
-56.966
11
116.196
21
-56.966
0
LINE
8
BLACK
6
CONTINUOUS
10
116.196
20
-56.966
11
116.428
21
-57.0121
0
LINE
8
BLACK
6
CONTINUOUS
10
103.108
20
-58.658
11
101.108
21
-58.658
0
LINE
8
BLACK
6
CONTINUOUS
10
101.108
20
-58.658
11
101.108
21
-56.658
0
LINE
8
BLACK
6
CONTINUOUS
10
101.108
20
-56.658
11
103.108
21
-56.658
0
LINE
8
BLACK
6
CONTINUOUS
10
103.108
20
-56.658
11
103.108
21
-58.658
0
LINE
8
BLACK
6
CONTINUOUS
10
143.19
20
-56.222
11
141.29
21
-56.222
0
LINE
8
BLACK
6
CONTINUOUS
10
141.29
20
-56.222
11
141.29
21
-54.522
0
LINE
8
BLACK
6
CONTINUOUS
10
141.29
20
-54.522
11
143.19
21
-54.522
0
LINE
8
BLACK
6
CONTINUOUS
10
143.19
20
-54.522
11
143.19
21
-56.222
0
LINE
8
BLACK
6
CONTINUOUS
10
132.522
20
-56.222
11
130.622
21
-56.222
0
LINE
8
BLACK
6
CONTINUOUS
10
130.622
20
-56.222
11
130.622
21
-54.522
0
LINE
8
BLACK
6
CONTINUOUS
10
130.622
20
-54.522
11
132.522
21
-54.522
0
LINE
8
BLACK
6
CONTINUOUS
10
132.522
20
-54.522
11
132.522
21
-56.222
0
LINE
8
BLACK
6
CONTINUOUS
10
135.062
20
-56.222
11
133.162
21
-56.222
0
LINE
8
BLACK
6
CONTINUOUS
10
133.162
20
-56.222
11
133.162
21
-54.522
0
LINE
8
BLACK
6
CONTINUOUS
10
133.162
20
-54.522
11
135.062
21
-54.522
0
LINE
8
BLACK
6
CONTINUOUS
10
135.062
20
-54.522
11
135.062
21
-56.222
0
LINE
8
BLACK
6
CONTINUOUS
10
140.65
20
-56.222
11
138.75
21
-56.222
0
LINE
8
BLACK
6
CONTINUOUS
10
138.75
20
-56.222
11
138.75
21
-54.522
0
LINE
8
BLACK
6
CONTINUOUS
10
138.75
20
-54.522
11
140.65
21
-54.522
0
LINE
8
BLACK
6
CONTINUOUS
10
140.65
20
-54.522
11
140.65
21
-56.222
0
LINE
8
BLACK
6
CONTINUOUS
10
103.108
20
-56.118
11
101.108
21
-56.118
0
LINE
8
BLACK
6
CONTINUOUS
10
101.108
20
-56.118
11
101.108
21
-54.118
0
LINE
8
BLACK
6
CONTINUOUS
10
101.108
20
-54.118
11
103.108
21
-54.118
0
LINE
8
BLACK
6
CONTINUOUS
10
103.108
20
-54.118
11
103.108
21
-56.118
0
LINE
8
BLACK
6
CONTINUOUS
10
125.231
20
-51.9666
11
125.394
21
-52.0344
0
LINE
8
BLACK
6
CONTINUOUS
10
125.394
20
-52.0344
11
125.542
21
-52.1329
0
LINE
8
BLACK
6
CONTINUOUS
10
125.542
20
-52.1329
11
125.667
21
-52.2583
0
LINE
8
BLACK
6
CONTINUOUS
10
125.667
20
-52.2583
11
125.766
21
-52.4057
0
LINE
8
BLACK
6
CONTINUOUS
10
125.766
20
-52.4057
11
125.833
21
-52.5695
0
LINE
8
BLACK
6
CONTINUOUS
10
125.833
20
-52.5695
11
125.868
21
-52.7434
0
LINE
8
BLACK
6
CONTINUOUS
10
125.868
20
-52.7434
11
125.868
21
-52.9206
0
LINE
8
BLACK
6
CONTINUOUS
10
125.868
20
-52.9206
11
125.833
21
-53.0945
0
LINE
8
BLACK
6
CONTINUOUS
10
125.833
20
-53.0945
11
125.766
21
-53.2583
0
LINE
8
BLACK
6
CONTINUOUS
10
125.766
20
-53.2583
11
125.667
21
-53.4057
0
LINE
8
BLACK
6
CONTINUOUS
10
125.667
20
-53.4057
11
125.542
21
-53.5311
0
LINE
8
BLACK
6
CONTINUOUS
10
125.542
20
-53.5311
11
125.394
21
-53.6296
0
LINE
8
BLACK
6
CONTINUOUS
10
125.394
20
-53.6296
11
125.231
21
-53.6974
0
LINE
8
BLACK
6
CONTINUOUS
10
125.231
20
-53.6974
11
125.057
21
-53.732
0
LINE
8
BLACK
6
CONTINUOUS
10
125.057
20
-53.732
11
124.879
21
-53.732
0
LINE
8
BLACK
6
CONTINUOUS
10
124.879
20
-53.732
11
124.705
21
-53.6974
0
LINE
8
BLACK
6
CONTINUOUS
10
124.705
20
-53.6974
11
124.542
21
-53.6296
0
LINE
8
BLACK
6
CONTINUOUS
10
124.542
20
-53.6296
11
124.394
21
-53.5311
0
LINE
8
BLACK
6
CONTINUOUS
10
124.394
20
-53.5311
11
124.269
21
-53.4057
0
LINE
8
BLACK
6
CONTINUOUS
10
124.269
20
-53.4057
11
124.17
21
-53.2583
0
LINE
8
BLACK
6
CONTINUOUS
10
124.17
20
-53.2583
11
124.103
21
-53.0945
0
LINE
8
BLACK
6
CONTINUOUS
10
124.103
20
-53.0945
11
124.068
21
-52.9206
0
LINE
8
BLACK
6
CONTINUOUS
10
124.068
20
-52.9206
11
124.068
21
-52.7434
0
LINE
8
BLACK
6
CONTINUOUS
10
124.068
20
-52.7434
11
124.103
21
-52.5695
0
LINE
8
BLACK
6
CONTINUOUS
10
124.103
20
-52.5695
11
124.17
21
-52.4057
0
LINE
8
BLACK
6
CONTINUOUS
10
124.17
20
-52.4057
11
124.269
21
-52.2583
0
LINE
8
BLACK
6
CONTINUOUS
10
124.269
20
-52.2583
11
124.394
21
-52.1329
0
LINE
8
BLACK
6
CONTINUOUS
10
124.394
20
-52.1329
11
124.542
21
-52.0344
0
LINE
8
BLACK
6
CONTINUOUS
10
124.542
20
-52.0344
11
124.705
21
-51.9666
0
LINE
8
BLACK
6
CONTINUOUS
10
124.705
20
-51.9666
11
124.879
21
-51.932
0
LINE
8
BLACK
6
CONTINUOUS
10
124.879
20
-51.932
11
125.057
21
-51.932
0
LINE
8
BLACK
6
CONTINUOUS
10
125.057
20
-51.932
11
125.231
21
-51.9666
0
LINE
8
BLACK
6
CONTINUOUS
10
123.328
20
-53.732
11
121.528
21
-53.732
0
LINE
8
BLACK
6
CONTINUOUS
10
121.528
20
-53.732
11
121.528
21
-51.932
0
LINE
8
BLACK
6
CONTINUOUS
10
121.528
20
-51.932
11
123.328
21
-51.932
0
LINE
8
BLACK
6
CONTINUOUS
10
123.328
20
-51.932
11
123.328
21
-53.732
0
LINE
8
BLACK
6
CONTINUOUS
10
117.44
20
-53.686
11
116.24
21
-53.686
0
LINE
8
BLACK
6
CONTINUOUS
10
116.24
20
-53.686
11
116.24
21
-52.486
0
LINE
8
BLACK
6
CONTINUOUS
10
116.24
20
-52.486
11
117.44
21
-52.486
0
LINE
8
BLACK
6
CONTINUOUS
10
117.44
20
-52.486
11
117.44
21
-53.686
0
LINE
8
BLACK
6
CONTINUOUS
10
110.582
20
-53.686
11
109.382
21
-53.686
0
LINE
8
BLACK
6
CONTINUOUS
10
109.382
20
-53.686
11
109.382
21
-52.486
0
LINE
8
BLACK
6
CONTINUOUS
10
109.382
20
-52.486
11
110.582
21
-52.486
0
LINE
8
BLACK
6
CONTINUOUS
10
110.582
20
-52.486
11
110.582
21
-53.686
0
LINE
8
BLACK
6
CONTINUOUS
10
108.657
20
-52.5091
11
108.766
21
-52.5543
0
LINE
8
BLACK
6
CONTINUOUS
10
108.766
20
-52.5543
11
108.864
21
-52.6199
0
LINE
8
BLACK
6
CONTINUOUS
10
108.864
20
-52.6199
11
108.948
21
-52.7035
0
LINE
8
BLACK
6
CONTINUOUS
10
108.948
20
-52.7035
11
109.014
21
-52.8018
0
LINE
8
BLACK
6
CONTINUOUS
10
109.014
20
-52.8018
11
109.059
21
-52.911
0
LINE
8
BLACK
6
CONTINUOUS
10
109.059
20
-52.911
11
109.082
21
-53.0269
0
LINE
8
BLACK
6
CONTINUOUS
10
109.082
20
-53.0269
11
109.082
21
-53.1451
0
LINE
8
BLACK
6
CONTINUOUS
10
109.082
20
-53.1451
11
109.059
21
-53.261
0
LINE
8
BLACK
6
CONTINUOUS
10
109.059
20
-53.261
11
109.014
21
-53.3702
0
LINE
8
BLACK
6
CONTINUOUS
10
109.014
20
-53.3702
11
108.948
21
-53.4685
0
LINE
8
BLACK
6
CONTINUOUS
10
108.948
20
-53.4685
11
108.864
21
-53.552
0
LINE
8
BLACK
6
CONTINUOUS
10
108.864
20
-53.552
11
108.766
21
-53.6177
0
LINE
8
BLACK
6
CONTINUOUS
10
108.766
20
-53.6177
11
108.657
21
-53.6629
0
LINE
8
BLACK
6
CONTINUOUS
10
108.657
20
-53.6629
11
108.541
21
-53.686
0
LINE
8
BLACK
6
CONTINUOUS
10
108.541
20
-53.686
11
108.423
21
-53.686
0
LINE
8
BLACK
6
CONTINUOUS
10
108.423
20
-53.686
11
108.307
21
-53.6629
0
LINE
8
BLACK
6
CONTINUOUS
10
108.307
20
-53.6629
11
108.198
21
-53.6177
0
LINE
8
BLACK
6
CONTINUOUS
10
108.198
20
-53.6177
11
108.1
21
-53.552
0
LINE
8
BLACK
6
CONTINUOUS
10
108.1
20
-53.552
11
108.016
21
-53.4685
0
LINE
8
BLACK
6
CONTINUOUS
10
108.016
20
-53.4685
11
107.95
21
-53.3702
0
LINE
8
BLACK
6
CONTINUOUS
10
107.95
20
-53.3702
11
107.905
21
-53.261
0
LINE
8
BLACK
6
CONTINUOUS
10
107.905
20
-53.261
11
107.882
21
-53.1451
0
LINE
8
BLACK
6
CONTINUOUS
10
107.882
20
-53.1451
11
107.882
21
-53.0269
0
LINE
8
BLACK
6
CONTINUOUS
10
107.882
20
-53.0269
11
107.905
21
-52.911
0
LINE
8
BLACK
6
CONTINUOUS
10
107.905
20
-52.911
11
107.95
21
-52.8018
0
LINE
8
BLACK
6
CONTINUOUS
10
107.95
20
-52.8018
11
108.016
21
-52.7035
0
LINE
8
BLACK
6
CONTINUOUS
10
108.016
20
-52.7035
11
108.1
21
-52.6199
0
LINE
8
BLACK
6
CONTINUOUS
10
108.1
20
-52.6199
11
108.198
21
-52.5543
0
LINE
8
BLACK
6
CONTINUOUS
10
108.198
20
-52.5543
11
108.307
21
-52.5091
0
LINE
8
BLACK
6
CONTINUOUS
10
108.307
20
-52.5091
11
108.423
21
-52.486
0
LINE
8
BLACK
6
CONTINUOUS
10
108.423
20
-52.486
11
108.541
21
-52.486
0
LINE
8
BLACK
6
CONTINUOUS
10
108.541
20
-52.486
11
108.657
21
-52.5091
0
LINE
8
BLACK
6
CONTINUOUS
10
115.515
20
-52.5091
11
115.624
21
-52.5543
0
LINE
8
BLACK
6
CONTINUOUS
10
115.624
20
-52.5543
11
115.722
21
-52.6199
0
LINE
8
BLACK
6
CONTINUOUS
10
115.722
20
-52.6199
11
115.806
21
-52.7035
0
LINE
8
BLACK
6
CONTINUOUS
10
115.806
20
-52.7035
11
115.872
21
-52.8018
0
LINE
8
BLACK
6
CONTINUOUS
10
115.872
20
-52.8018
11
115.917
21
-52.911
0
LINE
8
BLACK
6
CONTINUOUS
10
115.917
20
-52.911
11
115.94
21
-53.0269
0
LINE
8
BLACK
6
CONTINUOUS
10
115.94
20
-53.0269
11
115.94
21
-53.1451
0
LINE
8
BLACK
6
CONTINUOUS
10
115.94
20
-53.1451
11
115.917
21
-53.261
0
LINE
8
BLACK
6
CONTINUOUS
10
115.917
20
-53.261
11
115.872
21
-53.3702
0
LINE
8
BLACK
6
CONTINUOUS
10
115.872
20
-53.3702
11
115.806
21
-53.4685
0
LINE
8
BLACK
6
CONTINUOUS
10
115.806
20
-53.4685
11
115.722
21
-53.552
0
LINE
8
BLACK
6
CONTINUOUS
10
115.722
20
-53.552
11
115.624
21
-53.6177
0
LINE
8
BLACK
6
CONTINUOUS
10
115.624
20
-53.6177
11
115.515
21
-53.6629
0
LINE
8
BLACK
6
CONTINUOUS
10
115.515
20
-53.6629
11
115.399
21
-53.686
0
LINE
8
BLACK
6
CONTINUOUS
10
115.399
20
-53.686
11
115.281
21
-53.686
0
LINE
8
BLACK
6
CONTINUOUS
10
115.281
20
-53.686
11
115.165
21
-53.6629
0
LINE
8
BLACK
6
CONTINUOUS
10
115.165
20
-53.6629
11
115.056
21
-53.6177
0
LINE
8
BLACK
6
CONTINUOUS
10
115.056
20
-53.6177
11
114.958
21
-53.552
0
LINE
8
BLACK
6
CONTINUOUS
10
114.958
20
-53.552
11
114.874
21
-53.4685
0
LINE
8
BLACK
6
CONTINUOUS
10
114.874
20
-53.4685
11
114.808
21
-53.3702
0
LINE
8
BLACK
6
CONTINUOUS
10
114.808
20
-53.3702
11
114.763
21
-53.261
0
LINE
8
BLACK
6
CONTINUOUS
10
114.763
20
-53.261
11
114.74
21
-53.1451
0
LINE
8
BLACK
6
CONTINUOUS
10
114.74
20
-53.1451
11
114.74
21
-53.0269
0
LINE
8
BLACK
6
CONTINUOUS
10
114.74
20
-53.0269
11
114.763
21
-52.911
0
LINE
8
BLACK
6
CONTINUOUS
10
114.763
20
-52.911
11
114.808
21
-52.8018
0
LINE
8
BLACK
6
CONTINUOUS
10
114.808
20
-52.8018
11
114.874
21
-52.7035
0
LINE
8
BLACK
6
CONTINUOUS
10
114.874
20
-52.7035
11
114.958
21
-52.6199
0
LINE
8
BLACK
6
CONTINUOUS
10
114.958
20
-52.6199
11
115.056
21
-52.5543
0
LINE
8
BLACK
6
CONTINUOUS
10
115.056
20
-52.5543
11
115.165
21
-52.5091
0
LINE
8
BLACK
6
CONTINUOUS
10
115.165
20
-52.5091
11
115.281
21
-52.486
0
LINE
8
BLACK
6
CONTINUOUS
10
115.281
20
-52.486
11
115.399
21
-52.486
0
LINE
8
BLACK
6
CONTINUOUS
10
115.399
20
-52.486
11
115.515
21
-52.5091
0
LINE
8
BLACK
6
CONTINUOUS
10
140.65
20
-53.682
11
138.75
21
-53.682
0
LINE
8
BLACK
6
CONTINUOUS
10
138.75
20
-53.682
11
138.75
21
-51.982
0
LINE
8
BLACK
6
CONTINUOUS
10
138.75
20
-51.982
11
140.65
21
-51.982
0
LINE
8
BLACK
6
CONTINUOUS
10
140.65
20
-51.982
11
140.65
21
-53.682
0
LINE
8
BLACK
6
CONTINUOUS
10
143.19
20
-53.682
11
141.29
21
-53.682
0
LINE
8
BLACK
6
CONTINUOUS
10
141.29
20
-53.682
11
141.29
21
-51.982
0
LINE
8
BLACK
6
CONTINUOUS
10
141.29
20
-51.982
11
143.19
21
-51.982
0
LINE
8
BLACK
6
CONTINUOUS
10
143.19
20
-51.982
11
143.19
21
-53.682
0
LINE
8
BLACK
6
CONTINUOUS
10
135.062
20
-53.682
11
133.162
21
-53.682
0
LINE
8
BLACK
6
CONTINUOUS
10
133.162
20
-53.682
11
133.162
21
-51.982
0
LINE
8
BLACK
6
CONTINUOUS
10
133.162
20
-51.982
11
135.062
21
-51.982
0
LINE
8
BLACK
6
CONTINUOUS
10
135.062
20
-51.982
11
135.062
21
-53.682
0
LINE
8
BLACK
6
CONTINUOUS
10
132.522
20
-53.682
11
130.622
21
-53.682
0
LINE
8
BLACK
6
CONTINUOUS
10
130.622
20
-53.682
11
130.622
21
-51.982
0
LINE
8
BLACK
6
CONTINUOUS
10
130.622
20
-51.982
11
132.522
21
-51.982
0
LINE
8
BLACK
6
CONTINUOUS
10
132.522
20
-51.982
11
132.522
21
-53.682
0
LINE
8
BLACK
6
CONTINUOUS
10
103.108
20
-53.578
11
101.108
21
-53.578
0
LINE
8
BLACK
6
CONTINUOUS
10
101.108
20
-53.578
11
101.108
21
-51.578
0
LINE
8
BLACK
6
CONTINUOUS
10
101.108
20
-51.578
11
103.108
21
-51.578
0
LINE
8
BLACK
6
CONTINUOUS
10
103.108
20
-51.578
11
103.108
21
-53.578
0
LINE
8
BLACK
6
CONTINUOUS
10
140.65
20
-51.142
11
138.75
21
-51.142
0
LINE
8
BLACK
6
CONTINUOUS
10
138.75
20
-51.142
11
138.75
21
-49.442
0
LINE
8
BLACK
6
CONTINUOUS
10
138.75
20
-49.442
11
140.65
21
-49.442
0
LINE
8
BLACK
6
CONTINUOUS
10
140.65
20
-49.442
11
140.65
21
-51.142
0
LINE
8
BLACK
6
CONTINUOUS
10
143.19
20
-51.142
11
141.29
21
-51.142
0
LINE
8
BLACK
6
CONTINUOUS
10
141.29
20
-51.142
11
141.29
21
-49.442
0
LINE
8
BLACK
6
CONTINUOUS
10
141.29
20
-49.442
11
143.19
21
-49.442
0
LINE
8
BLACK
6
CONTINUOUS
10
143.19
20
-49.442
11
143.19
21
-51.142
0
LINE
8
BLACK
6
CONTINUOUS
10
135.062
20
-51.142
11
133.162
21
-51.142
0
LINE
8
BLACK
6
CONTINUOUS
10
133.162
20
-51.142
11
133.162
21
-49.442
0
LINE
8
BLACK
6
CONTINUOUS
10
133.162
20
-49.442
11
135.062
21
-49.442
0
LINE
8
BLACK
6
CONTINUOUS
10
135.062
20
-49.442
11
135.062
21
-51.142
0
LINE
8
BLACK
6
CONTINUOUS
10
132.522
20
-51.142
11
130.622
21
-51.142
0
LINE
8
BLACK
6
CONTINUOUS
10
130.622
20
-51.142
11
130.622
21
-49.442
0
LINE
8
BLACK
6
CONTINUOUS
10
130.622
20
-49.442
11
132.522
21
-49.442
0
LINE
8
BLACK
6
CONTINUOUS
10
132.522
20
-49.442
11
132.522
21
-51.142
0
LINE
8
BLACK
6
CONTINUOUS
10
140.65
20
-48.602
11
138.75
21
-48.602
0
LINE
8
BLACK
6
CONTINUOUS
10
138.75
20
-48.602
11
138.75
21
-46.902
0
LINE
8
BLACK
6
CONTINUOUS
10
138.75
20
-46.902
11
140.65
21
-46.902
0
LINE
8
BLACK
6
CONTINUOUS
10
140.65
20
-46.902
11
140.65
21
-48.602
0
LINE
8
BLACK
6
CONTINUOUS
10
132.522
20
-48.602
11
130.622
21
-48.602
0
LINE
8
BLACK
6
CONTINUOUS
10
130.622
20
-48.602
11
130.622
21
-46.902
0
LINE
8
BLACK
6
CONTINUOUS
10
130.622
20
-46.902
11
132.522
21
-46.902
0
LINE
8
BLACK
6
CONTINUOUS
10
132.522
20
-46.902
11
132.522
21
-48.602
0
LINE
8
BLACK
6
CONTINUOUS
10
135.062
20
-48.602
11
133.162
21
-48.602
0
LINE
8
BLACK
6
CONTINUOUS
10
133.162
20
-48.602
11
133.162
21
-46.902
0
LINE
8
BLACK
6
CONTINUOUS
10
133.162
20
-46.902
11
135.062
21
-46.902
0
LINE
8
BLACK
6
CONTINUOUS
10
135.062
20
-46.902
11
135.062
21
-48.602
0
LINE
8
BLACK
6
CONTINUOUS
10
143.19
20
-48.602
11
141.29
21
-48.602
0
LINE
8
BLACK
6
CONTINUOUS
10
141.29
20
-48.602
11
141.29
21
-46.902
0
LINE
8
BLACK
6
CONTINUOUS
10
141.29
20
-46.902
11
143.19
21
-46.902
0
LINE
8
BLACK
6
CONTINUOUS
10
143.19
20
-46.902
11
143.19
21
-48.602
0
LINE
8
BLACK
6
CONTINUOUS
10
102.546
20
-44.2776
11
102.819
21
-44.3907
0
LINE
8
BLACK
6
CONTINUOUS
10
102.819
20
-44.3907
11
103.064
21
-44.5549
0
LINE
8
BLACK
6
CONTINUOUS
10
103.064
20
-44.5549
11
103.273
21
-44.7638
0
LINE
8
BLACK
6
CONTINUOUS
10
103.273
20
-44.7638
11
103.437
21
-45.0095
0
LINE
8
BLACK
6
CONTINUOUS
10
103.437
20
-45.0095
11
103.55
21
-45.2825
0
LINE
8
BLACK
6
CONTINUOUS
10
103.55
20
-45.2825
11
103.608
21
-45.5723
0
LINE
8
BLACK
6
CONTINUOUS
10
103.608
20
-45.5723
11
103.608
21
-45.8677
0
LINE
8
BLACK
6
CONTINUOUS
10
103.608
20
-45.8677
11
103.55
21
-46.1575
0
LINE
8
BLACK
6
CONTINUOUS
10
103.55
20
-46.1575
11
103.437
21
-46.4305
0
LINE
8
BLACK
6
CONTINUOUS
10
103.437
20
-46.4305
11
103.273
21
-46.6762
0
LINE
8
BLACK
6
CONTINUOUS
10
103.273
20
-46.6762
11
103.064
21
-46.8851
0
LINE
8
BLACK
6
CONTINUOUS
10
103.064
20
-46.8851
11
102.819
21
-47.0493
0
LINE
8
BLACK
6
CONTINUOUS
10
102.819
20
-47.0493
11
102.546
21
-47.1624
0
LINE
8
BLACK
6
CONTINUOUS
10
102.546
20
-47.1624
11
102.256
21
-47.22
0
LINE
8
BLACK
6
CONTINUOUS
10
102.256
20
-47.22
11
101.96
21
-47.22
0
LINE
8
BLACK
6
CONTINUOUS
10
101.96
20
-47.22
11
101.67
21
-47.1624
0
LINE
8
BLACK
6
CONTINUOUS
10
101.67
20
-47.1624
11
101.397
21
-47.0493
0
LINE
8
BLACK
6
CONTINUOUS
10
101.397
20
-47.0493
11
101.152
21
-46.8851
0
LINE
8
BLACK
6
CONTINUOUS
10
101.152
20
-46.8851
11
100.943
21
-46.6762
0
LINE
8
BLACK
6
CONTINUOUS
10
100.943
20
-46.6762
11
100.779
21
-46.4305
0
LINE
8
BLACK
6
CONTINUOUS
10
100.779
20
-46.4305
11
100.666
21
-46.1575
0
LINE
8
BLACK
6
CONTINUOUS
10
100.666
20
-46.1575
11
100.608
21
-45.8677
0
LINE
8
BLACK
6
CONTINUOUS
10
100.608
20
-45.8677
11
100.608
21
-45.5723
0
LINE
8
BLACK
6
CONTINUOUS
10
100.608
20
-45.5723
11
100.666
21
-45.2825
0
LINE
8
BLACK
6
CONTINUOUS
10
100.666
20
-45.2825
11
100.779
21
-45.0095
0
LINE
8
BLACK
6
CONTINUOUS
10
100.779
20
-45.0095
11
100.943
21
-44.7638
0
LINE
8
BLACK
6
CONTINUOUS
10
100.943
20
-44.7638
11
101.152
21
-44.5549
0
LINE
8
BLACK
6
CONTINUOUS
10
101.152
20
-44.5549
11
101.397
21
-44.3907
0
LINE
8
BLACK
6
CONTINUOUS
10
101.397
20
-44.3907
11
101.67
21
-44.2776
0
LINE
8
BLACK
6
CONTINUOUS
10
101.67
20
-44.2776
11
101.96
21
-44.22
0
LINE
8
BLACK
6
CONTINUOUS
10
101.96
20
-44.22
11
102.256
21
-44.22
0
LINE
8
BLACK
6
CONTINUOUS
10
102.256
20
-44.22
11
102.546
21
-44.2776
0
LINE
8
BLACK
6
CONTINUOUS
10
118.848
20
-47.22
11
115.848
21
-47.22
0
LINE
8
BLACK
6
CONTINUOUS
10
115.848
20
-47.22
11
115.848
21
-44.22
0
LINE
8
BLACK
6
CONTINUOUS
10
115.848
20
-44.22
11
118.848
21
-44.22
0
LINE
8
BLACK
6
CONTINUOUS
10
118.848
20
-44.22
11
118.848
21
-47.22
0
LINE
8
BLACK
6
CONTINUOUS
10
107.626
20
-44.2776
11
107.899
21
-44.3907
0
LINE
8
BLACK
6
CONTINUOUS
10
107.899
20
-44.3907
11
108.144
21
-44.5549
0
LINE
8
BLACK
6
CONTINUOUS
10
108.144
20
-44.5549
11
108.353
21
-44.7638
0
LINE
8
BLACK
6
CONTINUOUS
10
108.353
20
-44.7638
11
108.517
21
-45.0095
0
LINE
8
BLACK
6
CONTINUOUS
10
108.517
20
-45.0095
11
108.63
21
-45.2825
0
LINE
8
BLACK
6
CONTINUOUS
10
108.63
20
-45.2825
11
108.688
21
-45.5723
0
LINE
8
BLACK
6
CONTINUOUS
10
108.688
20
-45.5723
11
108.688
21
-45.8677
0
LINE
8
BLACK
6
CONTINUOUS
10
108.688
20
-45.8677
11
108.63
21
-46.1575
0
LINE
8
BLACK
6
CONTINUOUS
10
108.63
20
-46.1575
11
108.517
21
-46.4305
0
LINE
8
BLACK
6
CONTINUOUS
10
108.517
20
-46.4305
11
108.353
21
-46.6762
0
LINE
8
BLACK
6
CONTINUOUS
10
108.353
20
-46.6762
11
108.144
21
-46.8851
0
LINE
8
BLACK
6
CONTINUOUS
10
108.144
20
-46.8851
11
107.899
21
-47.0493
0
LINE
8
BLACK
6
CONTINUOUS
10
107.899
20
-47.0493
11
107.626
21
-47.1624
0
LINE
8
BLACK
6
CONTINUOUS
10
107.626
20
-47.1624
11
107.336
21
-47.22
0
LINE
8
BLACK
6
CONTINUOUS
10
107.336
20
-47.22
11
107.04
21
-47.22
0
LINE
8
BLACK
6
CONTINUOUS
10
107.04
20
-47.22
11
106.75
21
-47.1624
0
LINE
8
BLACK
6
CONTINUOUS
10
106.75
20
-47.1624
11
106.477
21
-47.0493
0
LINE
8
BLACK
6
CONTINUOUS
10
106.477
20
-47.0493
11
106.232
21
-46.8851
0
LINE
8
BLACK
6
CONTINUOUS
10
106.232
20
-46.8851
11
106.023
21
-46.6762
0
LINE
8
BLACK
6
CONTINUOUS
10
106.023
20
-46.6762
11
105.859
21
-46.4305
0
LINE
8
BLACK
6
CONTINUOUS
10
105.859
20
-46.4305
11
105.746
21
-46.1575
0
LINE
8
BLACK
6
CONTINUOUS
10
105.746
20
-46.1575
11
105.688
21
-45.8677
0
LINE
8
BLACK
6
CONTINUOUS
10
105.688
20
-45.8677
11
105.688
21
-45.5723
0
LINE
8
BLACK
6
CONTINUOUS
10
105.688
20
-45.5723
11
105.746
21
-45.2825
0
LINE
8
BLACK
6
CONTINUOUS
10
105.746
20
-45.2825
11
105.859
21
-45.0095
0
LINE
8
BLACK
6
CONTINUOUS
10
105.859
20
-45.0095
11
106.023
21
-44.7638
0
LINE
8
BLACK
6
CONTINUOUS
10
106.023
20
-44.7638
11
106.232
21
-44.5549
0
LINE
8
BLACK
6
CONTINUOUS
10
106.232
20
-44.5549
11
106.477
21
-44.3907
0
LINE
8
BLACK
6
CONTINUOUS
10
106.477
20
-44.3907
11
106.75
21
-44.2776
0
LINE
8
BLACK
6
CONTINUOUS
10
106.75
20
-44.2776
11
107.04
21
-44.22
0
LINE
8
BLACK
6
CONTINUOUS
10
107.04
20
-44.22
11
107.336
21
-44.22
0
LINE
8
BLACK
6
CONTINUOUS
10
107.336
20
-44.22
11
107.626
21
-44.2776
0
LINE
8
BLACK
6
CONTINUOUS
10
112.706
20
-44.2776
11
112.979
21
-44.3907
0
LINE
8
BLACK
6
CONTINUOUS
10
112.979
20
-44.3907
11
113.224
21
-44.5549
0
LINE
8
BLACK
6
CONTINUOUS
10
113.224
20
-44.5549
11
113.433
21
-44.7638
0
LINE
8
BLACK
6
CONTINUOUS
10
113.433
20
-44.7638
11
113.597
21
-45.0095
0
LINE
8
BLACK
6
CONTINUOUS
10
113.597
20
-45.0095
11
113.71
21
-45.2825
0
LINE
8
BLACK
6
CONTINUOUS
10
113.71
20
-45.2825
11
113.768
21
-45.5723
0
LINE
8
BLACK
6
CONTINUOUS
10
113.768
20
-45.5723
11
113.768
21
-45.8677
0
LINE
8
BLACK
6
CONTINUOUS
10
113.768
20
-45.8677
11
113.71
21
-46.1575
0
LINE
8
BLACK
6
CONTINUOUS
10
113.71
20
-46.1575
11
113.597
21
-46.4305
0
LINE
8
BLACK
6
CONTINUOUS
10
113.597
20
-46.4305
11
113.433
21
-46.6762
0
LINE
8
BLACK
6
CONTINUOUS
10
113.433
20
-46.6762
11
113.224
21
-46.8851
0
LINE
8
BLACK
6
CONTINUOUS
10
113.224
20
-46.8851
11
112.979
21
-47.0493
0
LINE
8
BLACK
6
CONTINUOUS
10
112.979
20
-47.0493
11
112.706
21
-47.1624
0
LINE
8
BLACK
6
CONTINUOUS
10
112.706
20
-47.1624
11
112.416
21
-47.22
0
LINE
8
BLACK
6
CONTINUOUS
10
112.416
20
-47.22
11
112.12
21
-47.22
0
LINE
8
BLACK
6
CONTINUOUS
10
112.12
20
-47.22
11
111.83
21
-47.1624
0
LINE
8
BLACK
6
CONTINUOUS
10
111.83
20
-47.1624
11
111.557
21
-47.0493
0
LINE
8
BLACK
6
CONTINUOUS
10
111.557
20
-47.0493
11
111.312
21
-46.8851
0
LINE
8
BLACK
6
CONTINUOUS
10
111.312
20
-46.8851
11
111.103
21
-46.6762
0
LINE
8
BLACK
6
CONTINUOUS
10
111.103
20
-46.6762
11
110.939
21
-46.4305
0
LINE
8
BLACK
6
CONTINUOUS
10
110.939
20
-46.4305
11
110.826
21
-46.1575
0
LINE
8
BLACK
6
CONTINUOUS
10
110.826
20
-46.1575
11
110.768
21
-45.8677
0
LINE
8
BLACK
6
CONTINUOUS
10
110.768
20
-45.8677
11
110.768
21
-45.5723
0
LINE
8
BLACK
6
CONTINUOUS
10
110.768
20
-45.5723
11
110.826
21
-45.2825
0
LINE
8
BLACK
6
CONTINUOUS
10
110.826
20
-45.2825
11
110.939
21
-45.0095
0
LINE
8
BLACK
6
CONTINUOUS
10
110.939
20
-45.0095
11
111.103
21
-44.7638
0
LINE
8
BLACK
6
CONTINUOUS
10
111.103
20
-44.7638
11
111.312
21
-44.5549
0
LINE
8
BLACK
6
CONTINUOUS
10
111.312
20
-44.5549
11
111.557
21
-44.3907
0
LINE
8
BLACK
6
CONTINUOUS
10
111.557
20
-44.3907
11
111.83
21
-44.2776
0
LINE
8
BLACK
6
CONTINUOUS
10
111.83
20
-44.2776
11
112.12
21
-44.22
0
LINE
8
BLACK
6
CONTINUOUS
10
112.12
20
-44.22
11
112.416
21
-44.22
0
LINE
8
BLACK
6
CONTINUOUS
10
112.416
20
-44.22
11
112.706
21
-44.2776
0
LINE
8
BLACK
6
CONTINUOUS
10
135.062
20
-46.062
11
133.162
21
-46.062
0
LINE
8
BLACK
6
CONTINUOUS
10
133.162
20
-46.062
11
133.162
21
-44.362
0
LINE
8
BLACK
6
CONTINUOUS
10
133.162
20
-44.362
11
135.062
21
-44.362
0
LINE
8
BLACK
6
CONTINUOUS
10
135.062
20
-44.362
11
135.062
21
-46.062
0
LINE
8
BLACK
6
CONTINUOUS
10
132.522
20
-46.062
11
130.622
21
-46.062
0
LINE
8
BLACK
6
CONTINUOUS
10
130.622
20
-46.062
11
130.622
21
-44.362
0
LINE
8
BLACK
6
CONTINUOUS
10
130.622
20
-44.362
11
132.522
21
-44.362
0
LINE
8
BLACK
6
CONTINUOUS
10
132.522
20
-44.362
11
132.522
21
-46.062
0
LINE
8
BLACK
6
CONTINUOUS
10
140.65
20
-46.062
11
138.75
21
-46.062
0
LINE
8
BLACK
6
CONTINUOUS
10
138.75
20
-46.062
11
138.75
21
-44.362
0
LINE
8
BLACK
6
CONTINUOUS
10
138.75
20
-44.362
11
140.65
21
-44.362
0
LINE
8
BLACK
6
CONTINUOUS
10
140.65
20
-44.362
11
140.65
21
-46.062
0
LINE
8
BLACK
6
CONTINUOUS
10
143.19
20
-46.062
11
141.29
21
-46.062
0
LINE
8
BLACK
6
CONTINUOUS
10
141.29
20
-46.062
11
141.29
21
-44.362
0
LINE
8
BLACK
6
CONTINUOUS
10
141.29
20
-44.362
11
143.19
21
-44.362
0
LINE
8
BLACK
6
CONTINUOUS
10
143.19
20
-44.362
11
143.19
21
-46.062
0
LINE
8
BLACK
6
CONTINUOUS
10
151.967
20
-36.1769
11
152.331
21
-36.3276
0
LINE
8
BLACK
6
CONTINUOUS
10
152.331
20
-36.3276
11
152.659
21
-36.5465
0
LINE
8
BLACK
6
CONTINUOUS
10
152.659
20
-36.5465
11
152.938
21
-36.8251
0
LINE
8
BLACK
6
CONTINUOUS
10
152.938
20
-36.8251
11
153.156
21
-37.1526
0
LINE
8
BLACK
6
CONTINUOUS
10
153.156
20
-37.1526
11
153.307
21
-37.5166
0
LINE
8
BLACK
6
CONTINUOUS
10
153.307
20
-37.5166
11
153.384
21
-37.903
0
LINE
8
BLACK
6
CONTINUOUS
10
153.384
20
-37.903
11
153.384
21
-38.297
0
LINE
8
BLACK
6
CONTINUOUS
10
153.384
20
-38.297
11
153.307
21
-38.6834
0
LINE
8
BLACK
6
CONTINUOUS
10
153.307
20
-38.6834
11
153.156
21
-39.0474
0
LINE
8
BLACK
6
CONTINUOUS
10
153.156
20
-39.0474
11
152.938
21
-39.3749
0
LINE
8
BLACK
6
CONTINUOUS
10
152.938
20
-39.3749
11
152.659
21
-39.6535
0
LINE
8
BLACK
6
CONTINUOUS
10
152.659
20
-39.6535
11
152.331
21
-39.8724
0
LINE
8
BLACK
6
CONTINUOUS
10
152.331
20
-39.8724
11
151.967
21
-40.0231
0
LINE
8
BLACK
6
CONTINUOUS
10
151.967
20
-40.0231
11
151.581
21
-40.1
0
LINE
8
BLACK
6
CONTINUOUS
10
151.581
20
-40.1
11
151.187
21
-40.1
0
LINE
8
BLACK
6
CONTINUOUS
10
151.187
20
-40.1
11
150.801
21
-40.0231
0
LINE
8
BLACK
6
CONTINUOUS
10
150.801
20
-40.0231
11
150.437
21
-39.8724
0
LINE
8
BLACK
6
CONTINUOUS
10
150.437
20
-39.8724
11
150.109
21
-39.6535
0
LINE
8
BLACK
6
CONTINUOUS
10
150.109
20
-39.6535
11
149.83
21
-39.3749
0
LINE
8
BLACK
6
CONTINUOUS
10
149.83
20
-39.3749
11
149.612
21
-39.0474
0
LINE
8
BLACK
6
CONTINUOUS
10
149.612
20
-39.0474
11
149.461
21
-38.6834
0
LINE
8
BLACK
6
CONTINUOUS
10
149.461
20
-38.6834
11
149.384
21
-38.297
0
LINE
8
BLACK
6
CONTINUOUS
10
149.384
20
-38.297
11
149.384
21
-37.903
0
LINE
8
BLACK
6
CONTINUOUS
10
149.384
20
-37.903
11
149.461
21
-37.5166
0
LINE
8
BLACK
6
CONTINUOUS
10
149.461
20
-37.5166
11
149.612
21
-37.1526
0
LINE
8
BLACK
6
CONTINUOUS
10
149.612
20
-37.1526
11
149.83
21
-36.8251
0
LINE
8
BLACK
6
CONTINUOUS
10
149.83
20
-36.8251
11
150.109
21
-36.5465
0
LINE
8
BLACK
6
CONTINUOUS
10
150.109
20
-36.5465
11
150.437
21
-36.3276
0
LINE
8
BLACK
6
CONTINUOUS
10
150.437
20
-36.3276
11
150.801
21
-36.1769
0
LINE
8
BLACK
6
CONTINUOUS
10
150.801
20
-36.1769
11
151.187
21
-36.1
0
LINE
8
BLACK
6
CONTINUOUS
10
151.187
20
-36.1
11
151.581
21
-36.1
0
LINE
8
BLACK
6
CONTINUOUS
10
151.581
20
-36.1
11
151.967
21
-36.1769
0
LINE
8
BLACK
6
CONTINUOUS
10
92.7854
20
-36.1769
11
93.1494
21
-36.3276
0
LINE
8
BLACK
6
CONTINUOUS
10
93.1494
20
-36.3276
11
93.4769
21
-36.5465
0
LINE
8
BLACK
6
CONTINUOUS
10
93.4769
20
-36.5465
11
93.7555
21
-36.8251
0
LINE
8
BLACK
6
CONTINUOUS
10
93.7555
20
-36.8251
11
93.9744
21
-37.1526
0
LINE
8
BLACK
6
CONTINUOUS
10
93.9744
20
-37.1526
11
94.1251
21
-37.5166
0
LINE
8
BLACK
6
CONTINUOUS
10
94.1251
20
-37.5166
11
94.202
21
-37.903
0
LINE
8
BLACK
6
CONTINUOUS
10
94.202
20
-37.903
11
94.202
21
-38.297
0
LINE
8
BLACK
6
CONTINUOUS
10
94.202
20
-38.297
11
94.1251
21
-38.6834
0
LINE
8
BLACK
6
CONTINUOUS
10
94.1251
20
-38.6834
11
93.9744
21
-39.0474
0
LINE
8
BLACK
6
CONTINUOUS
10
93.9744
20
-39.0474
11
93.7555
21
-39.3749
0
LINE
8
BLACK
6
CONTINUOUS
10
93.7555
20
-39.3749
11
93.4769
21
-39.6535
0
LINE
8
BLACK
6
CONTINUOUS
10
93.4769
20
-39.6535
11
93.1494
21
-39.8724
0
LINE
8
BLACK
6
CONTINUOUS
10
93.1494
20
-39.8724
11
92.7854
21
-40.0231
0
LINE
8
BLACK
6
CONTINUOUS
10
92.7854
20
-40.0231
11
92.399
21
-40.1
0
LINE
8
BLACK
6
CONTINUOUS
10
92.399
20
-40.1
11
92.005
21
-40.1
0
LINE
8
BLACK
6
CONTINUOUS
10
92.005
20
-40.1
11
91.6186
21
-40.0231
0
LINE
8
BLACK
6
CONTINUOUS
10
91.6186
20
-40.0231
11
91.2546
21
-39.8724
0
LINE
8
BLACK
6
CONTINUOUS
10
91.2546
20
-39.8724
11
90.9271
21
-39.6535
0
LINE
8
BLACK
6
CONTINUOUS
10
90.9271
20
-39.6535
11
90.6485
21
-39.3749
0
LINE
8
BLACK
6
CONTINUOUS
10
90.6485
20
-39.3749
11
90.4296
21
-39.0474
0
LINE
8
BLACK
6
CONTINUOUS
10
90.4296
20
-39.0474
11
90.2789
21
-38.6834
0
LINE
8
BLACK
6
CONTINUOUS
10
90.2789
20
-38.6834
11
90.202
21
-38.297
0
LINE
8
BLACK
6
CONTINUOUS
10
90.202
20
-38.297
11
90.202
21
-37.903
0
LINE
8
BLACK
6
CONTINUOUS
10
90.202
20
-37.903
11
90.2789
21
-37.5166
0
LINE
8
BLACK
6
CONTINUOUS
10
90.2789
20
-37.5166
11
90.4296
21
-37.1526
0
LINE
8
BLACK
6
CONTINUOUS
10
90.4296
20
-37.1526
11
90.6485
21
-36.8251
0
LINE
8
BLACK
6
CONTINUOUS
10
90.6485
20
-36.8251
11
90.9271
21
-36.5465
0
LINE
8
BLACK
6
CONTINUOUS
10
90.9271
20
-36.5465
11
91.2546
21
-36.3276
0
LINE
8
BLACK
6
CONTINUOUS
10
91.2546
20
-36.3276
11
91.6186
21
-36.1769
0
LINE
8
BLACK
6
CONTINUOUS
10
91.6186
20
-36.1769
11
92.005
21
-36.1
0
LINE
8
BLACK
6
CONTINUOUS
10
92.005
20
-36.1
11
92.399
21
-36.1
0
LINE
8
BLACK
6
CONTINUOUS
10
92.399
20
-36.1
11
92.7854
21
-36.1769
0
CIRCLE
8
BLACK
10
151.384
20
-38.1
40
1.5
0
CIRCLE
8
BLACK
10
92.202
20
-38.1
40
1.5
0
CIRCLE
8
BLACK
10
93.218
20
-146.304
40
1.5
0
CIRCLE
8
BLACK
10
149.098
20
-147.066
40
1.5
  0
ENDSEC
  0
EOF
