  0
SECTION
  2
HEADER
  9
$ANGBASE
  50
0.0
  9
$ANGDIR
  70
  1
  9
$MEASUREMENT
  70
0
  0
ENDSEC
  0
SECTION
  2
TABLES
  0
TABLE
  2
LTYPE
  70
4
  0
LTYPE
  5
40F
  2
CONTINUOUS
  70
0
  3
Solid line
  72
65
  73
0
  40
0.0
  0
LTYPE
  5
410
  2
DASHDOT
 70
0
  3
Dash Dot ____ _ ____ _
 72
65
 73
4
 40
2.0
 49
1.25
 49
-0.25
 49
0.25
 49
-0.25
  0
LTYPE
  5
411
  2
DASHED
 70
0
  3
Dashed __ __ __ __ __
 72
65
 73
2
 40
0.75
 49
0.5
 49
-0.25
  0
LTYPE
  5
43B
  2
DOTTED
 70
0
  3
Dotted .  .  .  .
 72
65
 73
2
 40
0.2
 49
0.0
 49
-0.2
  0
ENDTAB
  0
TABLE
  2
STYLE
  70
4
  0
STYLE
  2
KICAD
  70
0
  40
0
  41
1
  42
1
  50
0
  71
0
  3
isocp.shx
  0
STYLE
  2
KICADB
  70
0
  40
0
  41
1
  42
1
  50
0
  71
0
  3
isocp.shx
  0
STYLE
  2
KICADI
  70
0
  40
0
  41
1
  42
1
  50
15
  71
0
  3
isocp.shx
  0
STYLE
  2
KICADBI
  70
0
  40
0
  41
1
  42
1
  50
15
  71
0
  3
isocp.shx
  0
ENDTAB
  0
TABLE
  2
LAYER
  70
30
  0
LAYER
  2
BLACK
  70
0
  62
7
  6
CONTINUOUS
  0
LAYER
  2
GRAY1
  70
0
  62
251
  6
CONTINUOUS
  0
LAYER
  2
GRAY2
  70
0
  62
8
  6
CONTINUOUS
  0
LAYER
  2
GRAY3
  70
0
  62
9
  6
CONTINUOUS
  0
LAYER
  2
WHITE
  70
0
  62
7
  6
CONTINUOUS
  0
LAYER
  2
LYELLOW
  70
0
  62
51
  6
CONTINUOUS
  0
LAYER
  2
BLUE1
  70
0
  62
178
  6
CONTINUOUS
  0
LAYER
  2
GREEN1
  70
0
  62
98
  6
CONTINUOUS
  0
LAYER
  2
CYAN1
  70
0
  62
138
  6
CONTINUOUS
  0
LAYER
  2
RED1
  70
0
  62
18
  6
CONTINUOUS
  0
LAYER
  2
MAGENTA1
  70
0
  62
228
  6
CONTINUOUS
  0
LAYER
  2
BROWN1
  70
0
  62
58
  6
CONTINUOUS
  0
LAYER
  2
BLUE2
  70
0
  62
5
  6
CONTINUOUS
  0
LAYER
  2
GREEN2
  70
0
  62
3
  6
CONTINUOUS
  0
LAYER
  2
CYAN2
  70
0
  62
4
  6
CONTINUOUS
  0
LAYER
  2
RED2
  70
0
  62
1
  6
CONTINUOUS
  0
LAYER
  2
MAGENTA2
  70
0
  62
6
  6
CONTINUOUS
  0
LAYER
  2
BROWN2
  70
0
  62
54
  6
CONTINUOUS
  0
LAYER
  2
BLUE3
  70
0
  62
171
  6
CONTINUOUS
  0
LAYER
  2
GREEN3
  70
0
  62
91
  6
CONTINUOUS
  0
LAYER
  2
CYAN3
  70
0
  62
131
  6
CONTINUOUS
  0
LAYER
  2
RED3
  70
0
  62
11
  6
CONTINUOUS
  0
LAYER
  2
MAGENTA3
  70
0
  62
221
  6
CONTINUOUS
  0
LAYER
  2
YELLOW3
  70
0
  62
2
  6
CONTINUOUS
  0
LAYER
  2
BLUE4
  70
0
  62
5
  6
CONTINUOUS
  0
LAYER
  2
GREEN4
  70
0
  62
3
  6
CONTINUOUS
  0
LAYER
  2
CYAN4
  70
0
  62
4
  6
CONTINUOUS
  0
LAYER
  2
RED4
  70
0
  62
1
  6
CONTINUOUS
  0
LAYER
  2
MAGENTA4
  70
0
  62
6
  6
CONTINUOUS
  0
LAYER
  2
YELLOW4
  70
0
  62
2
  6
CONTINUOUS
  0
ENDTAB
  0
ENDSEC
  0
SECTION
  2
ENTITIES
0
LINE
8
BLACK
6
CONTINUOUS
10
114.947
20
-146.289
11
113.145
21
-146.289
0
LINE
8
BLACK
6
CONTINUOUS
10
113.145
20
-146.289
11
113.145
21
-144.287
0
LINE
8
BLACK
6
CONTINUOUS
10
113.145
20
-144.287
11
114.947
21
-144.287
0
LINE
8
BLACK
6
CONTINUOUS
10
114.947
20
-144.287
11
114.947
21
-146.289
0
LINE
8
BLACK
6
CONTINUOUS
10
120.027
20
-146.289
11
118.225
21
-146.289
0
LINE
8
BLACK
6
CONTINUOUS
10
118.225
20
-146.289
11
118.225
21
-144.287
0
LINE
8
BLACK
6
CONTINUOUS
10
118.225
20
-144.287
11
120.027
21
-144.287
0
LINE
8
BLACK
6
CONTINUOUS
10
120.027
20
-144.287
11
120.027
21
-146.289
0
LINE
8
BLACK
6
CONTINUOUS
10
103.263
20
-146.289
11
101.461
21
-146.289
0
LINE
8
BLACK
6
CONTINUOUS
10
101.461
20
-146.289
11
101.461
21
-144.287
0
LINE
8
BLACK
6
CONTINUOUS
10
101.461
20
-144.287
11
103.263
21
-144.287
0
LINE
8
BLACK
6
CONTINUOUS
10
103.263
20
-144.287
11
103.263
21
-146.289
0
LINE
8
BLACK
6
CONTINUOUS
10
105.803
20
-146.289
11
104.001
21
-146.289
0
LINE
8
BLACK
6
CONTINUOUS
10
104.001
20
-146.289
11
104.001
21
-144.287
0
LINE
8
BLACK
6
CONTINUOUS
10
104.001
20
-144.287
11
105.803
21
-144.287
0
LINE
8
BLACK
6
CONTINUOUS
10
105.803
20
-144.287
11
105.803
21
-146.289
0
LINE
8
BLACK
6
CONTINUOUS
10
108.343
20
-146.289
11
106.541
21
-146.289
0
LINE
8
BLACK
6
CONTINUOUS
10
106.541
20
-146.289
11
106.541
21
-144.287
0
LINE
8
BLACK
6
CONTINUOUS
10
106.541
20
-144.287
11
108.343
21
-144.287
0
LINE
8
BLACK
6
CONTINUOUS
10
108.343
20
-144.287
11
108.343
21
-146.289
0
LINE
8
BLACK
6
CONTINUOUS
10
122.567
20
-146.289
11
120.765
21
-146.289
0
LINE
8
BLACK
6
CONTINUOUS
10
120.765
20
-146.289
11
120.765
21
-144.287
0
LINE
8
BLACK
6
CONTINUOUS
10
120.765
20
-144.287
11
122.567
21
-144.287
0
LINE
8
BLACK
6
CONTINUOUS
10
122.567
20
-144.287
11
122.567
21
-146.289
0
LINE
8
BLACK
6
CONTINUOUS
10
110.883
20
-146.289
11
109.081
21
-146.289
0
LINE
8
BLACK
6
CONTINUOUS
10
109.081
20
-146.289
11
109.081
21
-144.287
0
LINE
8
BLACK
6
CONTINUOUS
10
109.081
20
-144.287
11
110.883
21
-144.287
0
LINE
8
BLACK
6
CONTINUOUS
10
110.883
20
-144.287
11
110.883
21
-146.289
0
LINE
8
BLACK
6
CONTINUOUS
10
117.487
20
-146.289
11
115.685
21
-146.289
0
LINE
8
BLACK
6
CONTINUOUS
10
115.685
20
-146.289
11
115.685
21
-144.287
0
LINE
8
BLACK
6
CONTINUOUS
10
115.685
20
-144.287
11
117.487
21
-144.287
0
LINE
8
BLACK
6
CONTINUOUS
10
117.487
20
-144.287
11
117.487
21
-146.289
0
LINE
8
BLACK
6
CONTINUOUS
10
114.947
20
-138.365
11
113.145
21
-138.365
0
LINE
8
BLACK
6
CONTINUOUS
10
113.145
20
-138.365
11
113.145
21
-136.463
0
LINE
8
BLACK
6
CONTINUOUS
10
113.145
20
-136.463
11
114.947
21
-136.463
0
LINE
8
BLACK
6
CONTINUOUS
10
114.947
20
-136.463
11
114.947
21
-138.365
0
LINE
8
BLACK
6
CONTINUOUS
10
137.807
20
-138.365
11
136.005
21
-138.365
0
LINE
8
BLACK
6
CONTINUOUS
10
136.005
20
-138.365
11
136.005
21
-136.463
0
LINE
8
BLACK
6
CONTINUOUS
10
136.005
20
-136.463
11
137.807
21
-136.463
0
LINE
8
BLACK
6
CONTINUOUS
10
137.807
20
-136.463
11
137.807
21
-138.365
0
LINE
8
BLACK
6
CONTINUOUS
10
135.267
20
-138.365
11
133.465
21
-138.365
0
LINE
8
BLACK
6
CONTINUOUS
10
133.465
20
-138.365
11
133.465
21
-136.463
0
LINE
8
BLACK
6
CONTINUOUS
10
133.465
20
-136.463
11
135.267
21
-136.463
0
LINE
8
BLACK
6
CONTINUOUS
10
135.267
20
-136.463
11
135.267
21
-138.365
0
LINE
8
BLACK
6
CONTINUOUS
10
132.727
20
-138.365
11
130.925
21
-138.365
0
LINE
8
BLACK
6
CONTINUOUS
10
130.925
20
-138.365
11
130.925
21
-136.463
0
LINE
8
BLACK
6
CONTINUOUS
10
130.925
20
-136.463
11
132.727
21
-136.463
0
LINE
8
BLACK
6
CONTINUOUS
10
132.727
20
-136.463
11
132.727
21
-138.365
0
LINE
8
BLACK
6
CONTINUOUS
10
130.187
20
-138.365
11
128.385
21
-138.365
0
LINE
8
BLACK
6
CONTINUOUS
10
128.385
20
-138.365
11
128.385
21
-136.463
0
LINE
8
BLACK
6
CONTINUOUS
10
128.385
20
-136.463
11
130.187
21
-136.463
0
LINE
8
BLACK
6
CONTINUOUS
10
130.187
20
-136.463
11
130.187
21
-138.365
0
LINE
8
BLACK
6
CONTINUOUS
10
127.647
20
-138.365
11
125.845
21
-138.365
0
LINE
8
BLACK
6
CONTINUOUS
10
125.845
20
-138.365
11
125.845
21
-136.463
0
LINE
8
BLACK
6
CONTINUOUS
10
125.845
20
-136.463
11
127.647
21
-136.463
0
LINE
8
BLACK
6
CONTINUOUS
10
127.647
20
-136.463
11
127.647
21
-138.365
0
LINE
8
BLACK
6
CONTINUOUS
10
125.107
20
-138.365
11
123.305
21
-138.365
0
LINE
8
BLACK
6
CONTINUOUS
10
123.305
20
-138.365
11
123.305
21
-136.463
0
LINE
8
BLACK
6
CONTINUOUS
10
123.305
20
-136.463
11
125.107
21
-136.463
0
LINE
8
BLACK
6
CONTINUOUS
10
125.107
20
-136.463
11
125.107
21
-138.365
0
LINE
8
BLACK
6
CONTINUOUS
10
122.567
20
-138.365
11
120.765
21
-138.365
0
LINE
8
BLACK
6
CONTINUOUS
10
120.765
20
-138.365
11
120.765
21
-136.463
0
LINE
8
BLACK
6
CONTINUOUS
10
120.765
20
-136.463
11
122.567
21
-136.463
0
LINE
8
BLACK
6
CONTINUOUS
10
122.567
20
-136.463
11
122.567
21
-138.365
0
LINE
8
BLACK
6
CONTINUOUS
10
120.027
20
-138.365
11
118.225
21
-138.365
0
LINE
8
BLACK
6
CONTINUOUS
10
118.225
20
-138.365
11
118.225
21
-136.463
0
LINE
8
BLACK
6
CONTINUOUS
10
118.225
20
-136.463
11
120.027
21
-136.463
0
LINE
8
BLACK
6
CONTINUOUS
10
120.027
20
-136.463
11
120.027
21
-138.365
0
LINE
8
BLACK
6
CONTINUOUS
10
142.887
20
-138.365
11
141.085
21
-138.365
0
LINE
8
BLACK
6
CONTINUOUS
10
141.085
20
-138.365
11
141.085
21
-136.463
0
LINE
8
BLACK
6
CONTINUOUS
10
141.085
20
-136.463
11
142.887
21
-136.463
0
LINE
8
BLACK
6
CONTINUOUS
10
142.887
20
-136.463
11
142.887
21
-138.365
0
LINE
8
BLACK
6
CONTINUOUS
10
112.407
20
-138.365
11
110.605
21
-138.365
0
LINE
8
BLACK
6
CONTINUOUS
10
110.605
20
-138.365
11
110.605
21
-136.463
0
LINE
8
BLACK
6
CONTINUOUS
10
110.605
20
-136.463
11
112.407
21
-136.463
0
LINE
8
BLACK
6
CONTINUOUS
10
112.407
20
-136.463
11
112.407
21
-138.365
0
LINE
8
BLACK
6
CONTINUOUS
10
109.867
20
-138.365
11
108.065
21
-138.365
0
LINE
8
BLACK
6
CONTINUOUS
10
108.065
20
-138.365
11
108.065
21
-136.463
0
LINE
8
BLACK
6
CONTINUOUS
10
108.065
20
-136.463
11
109.867
21
-136.463
0
LINE
8
BLACK
6
CONTINUOUS
10
109.867
20
-136.463
11
109.867
21
-138.365
0
LINE
8
BLACK
6
CONTINUOUS
10
107.327
20
-138.365
11
105.525
21
-138.365
0
LINE
8
BLACK
6
CONTINUOUS
10
105.525
20
-138.365
11
105.525
21
-136.463
0
LINE
8
BLACK
6
CONTINUOUS
10
105.525
20
-136.463
11
107.327
21
-136.463
0
LINE
8
BLACK
6
CONTINUOUS
10
107.327
20
-136.463
11
107.327
21
-138.365
0
LINE
8
BLACK
6
CONTINUOUS
10
104.787
20
-138.365
11
102.985
21
-138.365
0
LINE
8
BLACK
6
CONTINUOUS
10
102.985
20
-138.365
11
102.985
21
-136.463
0
LINE
8
BLACK
6
CONTINUOUS
10
102.985
20
-136.463
11
104.787
21
-136.463
0
LINE
8
BLACK
6
CONTINUOUS
10
104.787
20
-136.463
11
104.787
21
-138.365
0
LINE
8
BLACK
6
CONTINUOUS
10
145.427
20
-138.365
11
143.625
21
-138.365
0
LINE
8
BLACK
6
CONTINUOUS
10
143.625
20
-138.365
11
143.625
21
-136.463
0
LINE
8
BLACK
6
CONTINUOUS
10
143.625
20
-136.463
11
145.427
21
-136.463
0
LINE
8
BLACK
6
CONTINUOUS
10
145.427
20
-136.463
11
145.427
21
-138.365
0
LINE
8
BLACK
6
CONTINUOUS
10
140.347
20
-138.365
11
138.545
21
-138.365
0
LINE
8
BLACK
6
CONTINUOUS
10
138.545
20
-138.365
11
138.545
21
-136.463
0
LINE
8
BLACK
6
CONTINUOUS
10
138.545
20
-136.463
11
140.347
21
-136.463
0
LINE
8
BLACK
6
CONTINUOUS
10
140.347
20
-136.463
11
140.347
21
-138.365
0
LINE
8
BLACK
6
CONTINUOUS
10
117.487
20
-138.365
11
115.685
21
-138.365
0
LINE
8
BLACK
6
CONTINUOUS
10
115.685
20
-138.365
11
115.685
21
-136.463
0
LINE
8
BLACK
6
CONTINUOUS
10
115.685
20
-136.463
11
117.487
21
-136.463
0
LINE
8
BLACK
6
CONTINUOUS
10
117.487
20
-136.463
11
117.487
21
-138.365
0
LINE
8
BLACK
6
CONTINUOUS
10
147.817
20
-138.329
11
146.315
21
-138.329
0
LINE
8
BLACK
6
CONTINUOUS
10
146.315
20
-138.329
11
146.315
21
-136.499
0
LINE
8
BLACK
6
CONTINUOUS
10
146.315
20
-136.499
11
147.817
21
-136.499
0
LINE
8
BLACK
6
CONTINUOUS
10
147.817
20
-136.499
11
147.817
21
-138.329
0
LINE
8
BLACK
6
CONTINUOUS
10
112.407
20
-135.825
11
110.605
21
-135.825
0
LINE
8
BLACK
6
CONTINUOUS
10
110.605
20
-135.825
11
110.605
21
-133.923
0
LINE
8
BLACK
6
CONTINUOUS
10
110.605
20
-133.923
11
112.407
21
-133.923
0
LINE
8
BLACK
6
CONTINUOUS
10
112.407
20
-133.923
11
112.407
21
-135.825
0
LINE
8
BLACK
6
CONTINUOUS
10
127.647
20
-135.825
11
125.845
21
-135.825
0
LINE
8
BLACK
6
CONTINUOUS
10
125.845
20
-135.825
11
125.845
21
-133.923
0
LINE
8
BLACK
6
CONTINUOUS
10
125.845
20
-133.923
11
127.647
21
-133.923
0
LINE
8
BLACK
6
CONTINUOUS
10
127.647
20
-133.923
11
127.647
21
-135.825
0
LINE
8
BLACK
6
CONTINUOUS
10
114.947
20
-135.825
11
113.145
21
-135.825
0
LINE
8
BLACK
6
CONTINUOUS
10
113.145
20
-135.825
11
113.145
21
-133.923
0
LINE
8
BLACK
6
CONTINUOUS
10
113.145
20
-133.923
11
114.947
21
-133.923
0
LINE
8
BLACK
6
CONTINUOUS
10
114.947
20
-133.923
11
114.947
21
-135.825
0
LINE
8
BLACK
6
CONTINUOUS
10
145.427
20
-135.825
11
143.625
21
-135.825
0
LINE
8
BLACK
6
CONTINUOUS
10
143.625
20
-135.825
11
143.625
21
-133.923
0
LINE
8
BLACK
6
CONTINUOUS
10
143.625
20
-133.923
11
145.427
21
-133.923
0
LINE
8
BLACK
6
CONTINUOUS
10
145.427
20
-133.923
11
145.427
21
-135.825
0
LINE
8
BLACK
6
CONTINUOUS
10
120.027
20
-135.825
11
118.225
21
-135.825
0
LINE
8
BLACK
6
CONTINUOUS
10
118.225
20
-135.825
11
118.225
21
-133.923
0
LINE
8
BLACK
6
CONTINUOUS
10
118.225
20
-133.923
11
120.027
21
-133.923
0
LINE
8
BLACK
6
CONTINUOUS
10
120.027
20
-133.923
11
120.027
21
-135.825
0
LINE
8
BLACK
6
CONTINUOUS
10
122.567
20
-135.825
11
120.765
21
-135.825
0
LINE
8
BLACK
6
CONTINUOUS
10
120.765
20
-135.825
11
120.765
21
-133.923
0
LINE
8
BLACK
6
CONTINUOUS
10
120.765
20
-133.923
11
122.567
21
-133.923
0
LINE
8
BLACK
6
CONTINUOUS
10
122.567
20
-133.923
11
122.567
21
-135.825
0
LINE
8
BLACK
6
CONTINUOUS
10
132.727
20
-135.825
11
130.925
21
-135.825
0
LINE
8
BLACK
6
CONTINUOUS
10
130.925
20
-135.825
11
130.925
21
-133.923
0
LINE
8
BLACK
6
CONTINUOUS
10
130.925
20
-133.923
11
132.727
21
-133.923
0
LINE
8
BLACK
6
CONTINUOUS
10
132.727
20
-133.923
11
132.727
21
-135.825
0
LINE
8
BLACK
6
CONTINUOUS
10
125.107
20
-135.825
11
123.305
21
-135.825
0
LINE
8
BLACK
6
CONTINUOUS
10
123.305
20
-135.825
11
123.305
21
-133.923
0
LINE
8
BLACK
6
CONTINUOUS
10
123.305
20
-133.923
11
125.107
21
-133.923
0
LINE
8
BLACK
6
CONTINUOUS
10
125.107
20
-133.923
11
125.107
21
-135.825
0
LINE
8
BLACK
6
CONTINUOUS
10
130.187
20
-135.825
11
128.385
21
-135.825
0
LINE
8
BLACK
6
CONTINUOUS
10
128.385
20
-135.825
11
128.385
21
-133.923
0
LINE
8
BLACK
6
CONTINUOUS
10
128.385
20
-133.923
11
130.187
21
-133.923
0
LINE
8
BLACK
6
CONTINUOUS
10
130.187
20
-133.923
11
130.187
21
-135.825
0
LINE
8
BLACK
6
CONTINUOUS
10
117.487
20
-135.825
11
115.685
21
-135.825
0
LINE
8
BLACK
6
CONTINUOUS
10
115.685
20
-135.825
11
115.685
21
-133.923
0
LINE
8
BLACK
6
CONTINUOUS
10
115.685
20
-133.923
11
117.487
21
-133.923
0
LINE
8
BLACK
6
CONTINUOUS
10
117.487
20
-133.923
11
117.487
21
-135.825
0
LINE
8
BLACK
6
CONTINUOUS
10
107.327
20
-135.825
11
105.525
21
-135.825
0
LINE
8
BLACK
6
CONTINUOUS
10
105.525
20
-135.825
11
105.525
21
-133.923
0
LINE
8
BLACK
6
CONTINUOUS
10
105.525
20
-133.923
11
107.327
21
-133.923
0
LINE
8
BLACK
6
CONTINUOUS
10
107.327
20
-133.923
11
107.327
21
-135.825
0
LINE
8
BLACK
6
CONTINUOUS
10
104.787
20
-135.825
11
102.985
21
-135.825
0
LINE
8
BLACK
6
CONTINUOUS
10
102.985
20
-135.825
11
102.985
21
-133.923
0
LINE
8
BLACK
6
CONTINUOUS
10
102.985
20
-133.923
11
104.787
21
-133.923
0
LINE
8
BLACK
6
CONTINUOUS
10
104.787
20
-133.923
11
104.787
21
-135.825
0
LINE
8
BLACK
6
CONTINUOUS
10
140.347
20
-135.825
11
138.545
21
-135.825
0
LINE
8
BLACK
6
CONTINUOUS
10
138.545
20
-135.825
11
138.545
21
-133.923
0
LINE
8
BLACK
6
CONTINUOUS
10
138.545
20
-133.923
11
140.347
21
-133.923
0
LINE
8
BLACK
6
CONTINUOUS
10
140.347
20
-133.923
11
140.347
21
-135.825
0
LINE
8
BLACK
6
CONTINUOUS
10
137.807
20
-135.825
11
136.005
21
-135.825
0
LINE
8
BLACK
6
CONTINUOUS
10
136.005
20
-135.825
11
136.005
21
-133.923
0
LINE
8
BLACK
6
CONTINUOUS
10
136.005
20
-133.923
11
137.807
21
-133.923
0
LINE
8
BLACK
6
CONTINUOUS
10
137.807
20
-133.923
11
137.807
21
-135.825
0
LINE
8
BLACK
6
CONTINUOUS
10
135.267
20
-135.825
11
133.465
21
-135.825
0
LINE
8
BLACK
6
CONTINUOUS
10
133.465
20
-135.825
11
133.465
21
-133.923
0
LINE
8
BLACK
6
CONTINUOUS
10
133.465
20
-133.923
11
135.267
21
-133.923
0
LINE
8
BLACK
6
CONTINUOUS
10
135.267
20
-133.923
11
135.267
21
-135.825
0
LINE
8
BLACK
6
CONTINUOUS
10
142.887
20
-135.825
11
141.085
21
-135.825
0
LINE
8
BLACK
6
CONTINUOUS
10
141.085
20
-135.825
11
141.085
21
-133.923
0
LINE
8
BLACK
6
CONTINUOUS
10
141.085
20
-133.923
11
142.887
21
-133.923
0
LINE
8
BLACK
6
CONTINUOUS
10
142.887
20
-133.923
11
142.887
21
-135.825
0
LINE
8
BLACK
6
CONTINUOUS
10
109.867
20
-135.825
11
108.065
21
-135.825
0
LINE
8
BLACK
6
CONTINUOUS
10
108.065
20
-135.825
11
108.065
21
-133.923
0
LINE
8
BLACK
6
CONTINUOUS
10
108.065
20
-133.923
11
109.867
21
-133.923
0
LINE
8
BLACK
6
CONTINUOUS
10
109.867
20
-133.923
11
109.867
21
-135.825
0
LINE
8
BLACK
6
CONTINUOUS
10
147.817
20
-135.789
11
146.315
21
-135.789
0
LINE
8
BLACK
6
CONTINUOUS
10
146.315
20
-135.789
11
146.315
21
-133.959
0
LINE
8
BLACK
6
CONTINUOUS
10
146.315
20
-133.959
11
147.817
21
-133.959
0
LINE
8
BLACK
6
CONTINUOUS
10
147.817
20
-133.959
11
147.817
21
-135.789
0
LINE
8
BLACK
6
CONTINUOUS
10
99.7206
20
-133.085
11
97.8914
21
-133.085
0
LINE
8
BLACK
6
CONTINUOUS
10
97.8914
20
-133.085
11
97.8914
21
-131.583
0
LINE
8
BLACK
6
CONTINUOUS
10
97.8914
20
-131.583
11
99.7206
21
-131.583
0
LINE
8
BLACK
6
CONTINUOUS
10
99.7206
20
-131.583
11
99.7206
21
-133.085
0
LINE
8
BLACK
6
CONTINUOUS
10
122.165
20
-128.561
11
122.401
21
-128.633
0
LINE
8
BLACK
6
CONTINUOUS
10
122.401
20
-128.633
11
122.618
21
-128.749
0
LINE
8
BLACK
6
CONTINUOUS
10
122.618
20
-128.749
11
122.809
21
-128.905
0
LINE
8
BLACK
6
CONTINUOUS
10
122.809
20
-128.905
11
122.965
21
-129.096
0
LINE
8
BLACK
6
CONTINUOUS
10
122.965
20
-129.096
11
123.081
21
-129.313
0
LINE
8
BLACK
6
CONTINUOUS
10
123.081
20
-129.313
11
123.153
21
-129.549
0
LINE
8
BLACK
6
CONTINUOUS
10
123.153
20
-129.549
11
123.177
21
-129.794
0
LINE
8
BLACK
6
CONTINUOUS
10
123.177
20
-129.794
11
123.153
21
-130.039
0
LINE
8
BLACK
6
CONTINUOUS
10
123.153
20
-130.039
11
123.081
21
-130.275
0
LINE
8
BLACK
6
CONTINUOUS
10
123.081
20
-130.275
11
122.965
21
-130.492
0
LINE
8
BLACK
6
CONTINUOUS
10
122.965
20
-130.492
11
122.809
21
-130.683
0
LINE
8
BLACK
6
CONTINUOUS
10
122.809
20
-130.683
11
122.618
21
-130.839
0
LINE
8
BLACK
6
CONTINUOUS
10
122.618
20
-130.839
11
122.401
21
-130.955
0
LINE
8
BLACK
6
CONTINUOUS
10
122.401
20
-130.955
11
122.165
21
-131.027
0
LINE
8
BLACK
6
CONTINUOUS
10
122.165
20
-131.027
11
121.981
21
-131.045
0
LINE
8
BLACK
6
CONTINUOUS
10
121.981
20
-131.045
11
121.859
21
-131.045
0
LINE
8
BLACK
6
CONTINUOUS
10
121.859
20
-131.045
11
121.675
21
-131.027
0
LINE
8
BLACK
6
CONTINUOUS
10
121.675
20
-131.027
11
121.439
21
-130.955
0
LINE
8
BLACK
6
CONTINUOUS
10
121.439
20
-130.955
11
121.222
21
-130.839
0
LINE
8
BLACK
6
CONTINUOUS
10
121.222
20
-130.839
11
121.031
21
-130.683
0
LINE
8
BLACK
6
CONTINUOUS
10
121.031
20
-130.683
11
120.875
21
-130.492
0
LINE
8
BLACK
6
CONTINUOUS
10
120.875
20
-130.492
11
120.759
21
-130.275
0
LINE
8
BLACK
6
CONTINUOUS
10
120.759
20
-130.275
11
120.687
21
-130.039
0
LINE
8
BLACK
6
CONTINUOUS
10
120.687
20
-130.039
11
120.663
21
-129.794
0
LINE
8
BLACK
6
CONTINUOUS
10
120.663
20
-129.794
11
120.687
21
-129.549
0
LINE
8
BLACK
6
CONTINUOUS
10
120.687
20
-129.549
11
120.759
21
-129.313
0
LINE
8
BLACK
6
CONTINUOUS
10
120.759
20
-129.313
11
120.875
21
-129.096
0
LINE
8
BLACK
6
CONTINUOUS
10
120.875
20
-129.096
11
121.031
21
-128.905
0
LINE
8
BLACK
6
CONTINUOUS
10
121.031
20
-128.905
11
121.222
21
-128.749
0
LINE
8
BLACK
6
CONTINUOUS
10
121.222
20
-128.749
11
121.439
21
-128.633
0
LINE
8
BLACK
6
CONTINUOUS
10
121.439
20
-128.633
11
121.675
21
-128.561
0
LINE
8
BLACK
6
CONTINUOUS
10
121.675
20
-128.561
11
121.859
21
-128.543
0
LINE
8
BLACK
6
CONTINUOUS
10
121.859
20
-128.543
11
121.981
21
-128.543
0
LINE
8
BLACK
6
CONTINUOUS
10
121.981
20
-128.543
11
122.165
21
-128.561
0
LINE
8
BLACK
6
CONTINUOUS
10
103.369
20
-128.561
11
103.605
21
-128.633
0
LINE
8
BLACK
6
CONTINUOUS
10
103.605
20
-128.633
11
103.822
21
-128.749
0
LINE
8
BLACK
6
CONTINUOUS
10
103.822
20
-128.749
11
104.013
21
-128.905
0
LINE
8
BLACK
6
CONTINUOUS
10
104.013
20
-128.905
11
104.169
21
-129.096
0
LINE
8
BLACK
6
CONTINUOUS
10
104.169
20
-129.096
11
104.285
21
-129.313
0
LINE
8
BLACK
6
CONTINUOUS
10
104.285
20
-129.313
11
104.357
21
-129.549
0
LINE
8
BLACK
6
CONTINUOUS
10
104.357
20
-129.549
11
104.381
21
-129.794
0
LINE
8
BLACK
6
CONTINUOUS
10
104.381
20
-129.794
11
104.357
21
-130.039
0
LINE
8
BLACK
6
CONTINUOUS
10
104.357
20
-130.039
11
104.285
21
-130.275
0
LINE
8
BLACK
6
CONTINUOUS
10
104.285
20
-130.275
11
104.169
21
-130.492
0
LINE
8
BLACK
6
CONTINUOUS
10
104.169
20
-130.492
11
104.013
21
-130.683
0
LINE
8
BLACK
6
CONTINUOUS
10
104.013
20
-130.683
11
103.822
21
-130.839
0
LINE
8
BLACK
6
CONTINUOUS
10
103.822
20
-130.839
11
103.605
21
-130.955
0
LINE
8
BLACK
6
CONTINUOUS
10
103.605
20
-130.955
11
103.369
21
-131.027
0
LINE
8
BLACK
6
CONTINUOUS
10
103.369
20
-131.027
11
103.185
21
-131.045
0
LINE
8
BLACK
6
CONTINUOUS
10
103.185
20
-131.045
11
103.063
21
-131.045
0
LINE
8
BLACK
6
CONTINUOUS
10
103.063
20
-131.045
11
102.879
21
-131.027
0
LINE
8
BLACK
6
CONTINUOUS
10
102.879
20
-131.027
11
102.643
21
-130.955
0
LINE
8
BLACK
6
CONTINUOUS
10
102.643
20
-130.955
11
102.426
21
-130.839
0
LINE
8
BLACK
6
CONTINUOUS
10
102.426
20
-130.839
11
102.235
21
-130.683
0
LINE
8
BLACK
6
CONTINUOUS
10
102.235
20
-130.683
11
102.079
21
-130.492
0
LINE
8
BLACK
6
CONTINUOUS
10
102.079
20
-130.492
11
101.963
21
-130.275
0
LINE
8
BLACK
6
CONTINUOUS
10
101.963
20
-130.275
11
101.891
21
-130.039
0
LINE
8
BLACK
6
CONTINUOUS
10
101.891
20
-130.039
11
101.867
21
-129.794
0
LINE
8
BLACK
6
CONTINUOUS
10
101.867
20
-129.794
11
101.891
21
-129.549
0
LINE
8
BLACK
6
CONTINUOUS
10
101.891
20
-129.549
11
101.963
21
-129.313
0
LINE
8
BLACK
6
CONTINUOUS
10
101.963
20
-129.313
11
102.079
21
-129.096
0
LINE
8
BLACK
6
CONTINUOUS
10
102.079
20
-129.096
11
102.235
21
-128.905
0
LINE
8
BLACK
6
CONTINUOUS
10
102.235
20
-128.905
11
102.426
21
-128.749
0
LINE
8
BLACK
6
CONTINUOUS
10
102.426
20
-128.749
11
102.643
21
-128.633
0
LINE
8
BLACK
6
CONTINUOUS
10
102.643
20
-128.633
11
102.879
21
-128.561
0
LINE
8
BLACK
6
CONTINUOUS
10
102.879
20
-128.561
11
103.063
21
-128.543
0
LINE
8
BLACK
6
CONTINUOUS
10
103.063
20
-128.543
11
103.185
21
-128.543
0
LINE
8
BLACK
6
CONTINUOUS
10
103.185
20
-128.543
11
103.369
21
-128.561
0
LINE
8
BLACK
6
CONTINUOUS
10
107.941
20
-128.561
11
108.177
21
-128.633
0
LINE
8
BLACK
6
CONTINUOUS
10
108.177
20
-128.633
11
108.394
21
-128.749
0
LINE
8
BLACK
6
CONTINUOUS
10
108.394
20
-128.749
11
108.585
21
-128.905
0
LINE
8
BLACK
6
CONTINUOUS
10
108.585
20
-128.905
11
108.741
21
-129.096
0
LINE
8
BLACK
6
CONTINUOUS
10
108.741
20
-129.096
11
108.857
21
-129.313
0
LINE
8
BLACK
6
CONTINUOUS
10
108.857
20
-129.313
11
108.929
21
-129.549
0
LINE
8
BLACK
6
CONTINUOUS
10
108.929
20
-129.549
11
108.953
21
-129.794
0
LINE
8
BLACK
6
CONTINUOUS
10
108.953
20
-129.794
11
108.929
21
-130.039
0
LINE
8
BLACK
6
CONTINUOUS
10
108.929
20
-130.039
11
108.857
21
-130.275
0
LINE
8
BLACK
6
CONTINUOUS
10
108.857
20
-130.275
11
108.741
21
-130.492
0
LINE
8
BLACK
6
CONTINUOUS
10
108.741
20
-130.492
11
108.585
21
-130.683
0
LINE
8
BLACK
6
CONTINUOUS
10
108.585
20
-130.683
11
108.394
21
-130.839
0
LINE
8
BLACK
6
CONTINUOUS
10
108.394
20
-130.839
11
108.177
21
-130.955
0
LINE
8
BLACK
6
CONTINUOUS
10
108.177
20
-130.955
11
107.941
21
-131.027
0
LINE
8
BLACK
6
CONTINUOUS
10
107.941
20
-131.027
11
107.757
21
-131.045
0
LINE
8
BLACK
6
CONTINUOUS
10
107.757
20
-131.045
11
107.635
21
-131.045
0
LINE
8
BLACK
6
CONTINUOUS
10
107.635
20
-131.045
11
107.451
21
-131.027
0
LINE
8
BLACK
6
CONTINUOUS
10
107.451
20
-131.027
11
107.215
21
-130.955
0
LINE
8
BLACK
6
CONTINUOUS
10
107.215
20
-130.955
11
106.998
21
-130.839
0
LINE
8
BLACK
6
CONTINUOUS
10
106.998
20
-130.839
11
106.807
21
-130.683
0
LINE
8
BLACK
6
CONTINUOUS
10
106.807
20
-130.683
11
106.651
21
-130.492
0
LINE
8
BLACK
6
CONTINUOUS
10
106.651
20
-130.492
11
106.535
21
-130.275
0
LINE
8
BLACK
6
CONTINUOUS
10
106.535
20
-130.275
11
106.463
21
-130.039
0
LINE
8
BLACK
6
CONTINUOUS
10
106.463
20
-130.039
11
106.439
21
-129.794
0
LINE
8
BLACK
6
CONTINUOUS
10
106.439
20
-129.794
11
106.463
21
-129.549
0
LINE
8
BLACK
6
CONTINUOUS
10
106.463
20
-129.549
11
106.535
21
-129.313
0
LINE
8
BLACK
6
CONTINUOUS
10
106.535
20
-129.313
11
106.651
21
-129.096
0
LINE
8
BLACK
6
CONTINUOUS
10
106.651
20
-129.096
11
106.807
21
-128.905
0
LINE
8
BLACK
6
CONTINUOUS
10
106.807
20
-128.905
11
106.998
21
-128.749
0
LINE
8
BLACK
6
CONTINUOUS
10
106.998
20
-128.749
11
107.215
21
-128.633
0
LINE
8
BLACK
6
CONTINUOUS
10
107.215
20
-128.633
11
107.451
21
-128.561
0
LINE
8
BLACK
6
CONTINUOUS
10
107.451
20
-128.561
11
107.635
21
-128.543
0
LINE
8
BLACK
6
CONTINUOUS
10
107.635
20
-128.543
11
107.757
21
-128.543
0
LINE
8
BLACK
6
CONTINUOUS
10
107.757
20
-128.543
11
107.941
21
-128.561
0
LINE
8
BLACK
6
CONTINUOUS
10
112.513
20
-128.561
11
112.749
21
-128.633
0
LINE
8
BLACK
6
CONTINUOUS
10
112.749
20
-128.633
11
112.966
21
-128.749
0
LINE
8
BLACK
6
CONTINUOUS
10
112.966
20
-128.749
11
113.157
21
-128.905
0
LINE
8
BLACK
6
CONTINUOUS
10
113.157
20
-128.905
11
113.313
21
-129.096
0
LINE
8
BLACK
6
CONTINUOUS
10
113.313
20
-129.096
11
113.429
21
-129.313
0
LINE
8
BLACK
6
CONTINUOUS
10
113.429
20
-129.313
11
113.501
21
-129.549
0
LINE
8
BLACK
6
CONTINUOUS
10
113.501
20
-129.549
11
113.525
21
-129.794
0
LINE
8
BLACK
6
CONTINUOUS
10
113.525
20
-129.794
11
113.501
21
-130.039
0
LINE
8
BLACK
6
CONTINUOUS
10
113.501
20
-130.039
11
113.429
21
-130.275
0
LINE
8
BLACK
6
CONTINUOUS
10
113.429
20
-130.275
11
113.313
21
-130.492
0
LINE
8
BLACK
6
CONTINUOUS
10
113.313
20
-130.492
11
113.157
21
-130.683
0
LINE
8
BLACK
6
CONTINUOUS
10
113.157
20
-130.683
11
112.966
21
-130.839
0
LINE
8
BLACK
6
CONTINUOUS
10
112.966
20
-130.839
11
112.749
21
-130.955
0
LINE
8
BLACK
6
CONTINUOUS
10
112.749
20
-130.955
11
112.513
21
-131.027
0
LINE
8
BLACK
6
CONTINUOUS
10
112.513
20
-131.027
11
112.329
21
-131.045
0
LINE
8
BLACK
6
CONTINUOUS
10
112.329
20
-131.045
11
112.207
21
-131.045
0
LINE
8
BLACK
6
CONTINUOUS
10
112.207
20
-131.045
11
112.023
21
-131.027
0
LINE
8
BLACK
6
CONTINUOUS
10
112.023
20
-131.027
11
111.787
21
-130.955
0
LINE
8
BLACK
6
CONTINUOUS
10
111.787
20
-130.955
11
111.57
21
-130.839
0
LINE
8
BLACK
6
CONTINUOUS
10
111.57
20
-130.839
11
111.379
21
-130.683
0
LINE
8
BLACK
6
CONTINUOUS
10
111.379
20
-130.683
11
111.223
21
-130.492
0
LINE
8
BLACK
6
CONTINUOUS
10
111.223
20
-130.492
11
111.107
21
-130.275
0
LINE
8
BLACK
6
CONTINUOUS
10
111.107
20
-130.275
11
111.035
21
-130.039
0
LINE
8
BLACK
6
CONTINUOUS
10
111.035
20
-130.039
11
111.011
21
-129.794
0
LINE
8
BLACK
6
CONTINUOUS
10
111.011
20
-129.794
11
111.035
21
-129.549
0
LINE
8
BLACK
6
CONTINUOUS
10
111.035
20
-129.549
11
111.107
21
-129.313
0
LINE
8
BLACK
6
CONTINUOUS
10
111.107
20
-129.313
11
111.223
21
-129.096
0
LINE
8
BLACK
6
CONTINUOUS
10
111.223
20
-129.096
11
111.379
21
-128.905
0
LINE
8
BLACK
6
CONTINUOUS
10
111.379
20
-128.905
11
111.57
21
-128.749
0
LINE
8
BLACK
6
CONTINUOUS
10
111.57
20
-128.749
11
111.787
21
-128.633
0
LINE
8
BLACK
6
CONTINUOUS
10
111.787
20
-128.633
11
112.023
21
-128.561
0
LINE
8
BLACK
6
CONTINUOUS
10
112.023
20
-128.561
11
112.207
21
-128.543
0
LINE
8
BLACK
6
CONTINUOUS
10
112.207
20
-128.543
11
112.329
21
-128.543
0
LINE
8
BLACK
6
CONTINUOUS
10
112.329
20
-128.543
11
112.513
21
-128.561
0
LINE
8
BLACK
6
CONTINUOUS
10
117.339
20
-128.561
11
117.575
21
-128.633
0
LINE
8
BLACK
6
CONTINUOUS
10
117.575
20
-128.633
11
117.792
21
-128.749
0
LINE
8
BLACK
6
CONTINUOUS
10
117.792
20
-128.749
11
117.983
21
-128.905
0
LINE
8
BLACK
6
CONTINUOUS
10
117.983
20
-128.905
11
118.139
21
-129.096
0
LINE
8
BLACK
6
CONTINUOUS
10
118.139
20
-129.096
11
118.255
21
-129.313
0
LINE
8
BLACK
6
CONTINUOUS
10
118.255
20
-129.313
11
118.327
21
-129.549
0
LINE
8
BLACK
6
CONTINUOUS
10
118.327
20
-129.549
11
118.351
21
-129.794
0
LINE
8
BLACK
6
CONTINUOUS
10
118.351
20
-129.794
11
118.327
21
-130.039
0
LINE
8
BLACK
6
CONTINUOUS
10
118.327
20
-130.039
11
118.255
21
-130.275
0
LINE
8
BLACK
6
CONTINUOUS
10
118.255
20
-130.275
11
118.139
21
-130.492
0
LINE
8
BLACK
6
CONTINUOUS
10
118.139
20
-130.492
11
117.983
21
-130.683
0
LINE
8
BLACK
6
CONTINUOUS
10
117.983
20
-130.683
11
117.792
21
-130.839
0
LINE
8
BLACK
6
CONTINUOUS
10
117.792
20
-130.839
11
117.575
21
-130.955
0
LINE
8
BLACK
6
CONTINUOUS
10
117.575
20
-130.955
11
117.339
21
-131.027
0
LINE
8
BLACK
6
CONTINUOUS
10
117.339
20
-131.027
11
117.155
21
-131.045
0
LINE
8
BLACK
6
CONTINUOUS
10
117.155
20
-131.045
11
117.033
21
-131.045
0
LINE
8
BLACK
6
CONTINUOUS
10
117.033
20
-131.045
11
116.849
21
-131.027
0
LINE
8
BLACK
6
CONTINUOUS
10
116.849
20
-131.027
11
116.613
21
-130.955
0
LINE
8
BLACK
6
CONTINUOUS
10
116.613
20
-130.955
11
116.396
21
-130.839
0
LINE
8
BLACK
6
CONTINUOUS
10
116.396
20
-130.839
11
116.205
21
-130.683
0
LINE
8
BLACK
6
CONTINUOUS
10
116.205
20
-130.683
11
116.049
21
-130.492
0
LINE
8
BLACK
6
CONTINUOUS
10
116.049
20
-130.492
11
115.933
21
-130.275
0
LINE
8
BLACK
6
CONTINUOUS
10
115.933
20
-130.275
11
115.861
21
-130.039
0
LINE
8
BLACK
6
CONTINUOUS
10
115.861
20
-130.039
11
115.837
21
-129.794
0
LINE
8
BLACK
6
CONTINUOUS
10
115.837
20
-129.794
11
115.861
21
-129.549
0
LINE
8
BLACK
6
CONTINUOUS
10
115.861
20
-129.549
11
115.933
21
-129.313
0
LINE
8
BLACK
6
CONTINUOUS
10
115.933
20
-129.313
11
116.049
21
-129.096
0
LINE
8
BLACK
6
CONTINUOUS
10
116.049
20
-129.096
11
116.205
21
-128.905
0
LINE
8
BLACK
6
CONTINUOUS
10
116.205
20
-128.905
11
116.396
21
-128.749
0
LINE
8
BLACK
6
CONTINUOUS
10
116.396
20
-128.749
11
116.613
21
-128.633
0
LINE
8
BLACK
6
CONTINUOUS
10
116.613
20
-128.633
11
116.849
21
-128.561
0
LINE
8
BLACK
6
CONTINUOUS
10
116.849
20
-128.561
11
117.033
21
-128.543
0
LINE
8
BLACK
6
CONTINUOUS
10
117.033
20
-128.543
11
117.155
21
-128.543
0
LINE
8
BLACK
6
CONTINUOUS
10
117.155
20
-128.543
11
117.339
21
-128.561
0
LINE
8
BLACK
6
CONTINUOUS
10
99.7206
20
-130.545
11
97.8914
21
-130.545
0
LINE
8
BLACK
6
CONTINUOUS
10
97.8914
20
-130.545
11
97.8914
21
-129.043
0
LINE
8
BLACK
6
CONTINUOUS
10
97.8914
20
-129.043
11
99.7206
21
-129.043
0
LINE
8
BLACK
6
CONTINUOUS
10
99.7206
20
-129.043
11
99.7206
21
-130.545
0
LINE
8
BLACK
6
CONTINUOUS
10
140.905
20
-130.441
11
139.003
21
-130.441
0
LINE
8
BLACK
6
CONTINUOUS
10
139.003
20
-130.441
11
139.003
21
-128.639
0
LINE
8
BLACK
6
CONTINUOUS
10
139.003
20
-128.639
11
140.905
21
-128.639
0
LINE
8
BLACK
6
CONTINUOUS
10
140.905
20
-128.639
11
140.905
21
-130.441
0
LINE
8
BLACK
6
CONTINUOUS
10
133.793
20
-130.187
11
131.891
21
-130.187
0
LINE
8
BLACK
6
CONTINUOUS
10
131.891
20
-130.187
11
131.891
21
-128.385
0
LINE
8
BLACK
6
CONTINUOUS
10
131.891
20
-128.385
11
133.793
21
-128.385
0
LINE
8
BLACK
6
CONTINUOUS
10
133.793
20
-128.385
11
133.793
21
-130.187
0
LINE
8
BLACK
6
CONTINUOUS
10
147.981
20
-128.005
11
146.151
21
-128.005
0
LINE
8
BLACK
6
CONTINUOUS
10
146.151
20
-128.005
11
146.151
21
-126.503
0
LINE
8
BLACK
6
CONTINUOUS
10
146.151
20
-126.503
11
147.981
21
-126.503
0
LINE
8
BLACK
6
CONTINUOUS
10
147.981
20
-126.503
11
147.981
21
-128.005
0
LINE
8
BLACK
6
CONTINUOUS
10
99.7206
20
-128.005
11
97.8914
21
-128.005
0
LINE
8
BLACK
6
CONTINUOUS
10
97.8914
20
-128.005
11
97.8914
21
-126.503
0
LINE
8
BLACK
6
CONTINUOUS
10
97.8914
20
-126.503
11
99.7206
21
-126.503
0
LINE
8
BLACK
6
CONTINUOUS
10
99.7206
20
-126.503
11
99.7206
21
-128.005
0
LINE
8
BLACK
6
CONTINUOUS
10
140.905
20
-127.901
11
139.003
21
-127.901
0
LINE
8
BLACK
6
CONTINUOUS
10
139.003
20
-127.901
11
139.003
21
-126.099
0
LINE
8
BLACK
6
CONTINUOUS
10
139.003
20
-126.099
11
140.905
21
-126.099
0
LINE
8
BLACK
6
CONTINUOUS
10
140.905
20
-126.099
11
140.905
21
-127.901
0
LINE
8
BLACK
6
CONTINUOUS
10
133.793
20
-127.647
11
131.891
21
-127.647
0
LINE
8
BLACK
6
CONTINUOUS
10
131.891
20
-127.647
11
131.891
21
-125.845
0
LINE
8
BLACK
6
CONTINUOUS
10
131.891
20
-125.845
11
133.793
21
-125.845
0
LINE
8
BLACK
6
CONTINUOUS
10
133.793
20
-125.845
11
133.793
21
-127.647
0
LINE
8
BLACK
6
CONTINUOUS
10
122.285
20
-123.511
11
122.401
21
-123.559
0
LINE
8
BLACK
6
CONTINUOUS
10
122.401
20
-123.559
11
122.513
21
-123.605
0
LINE
8
BLACK
6
CONTINUOUS
10
122.513
20
-123.605
11
122.717
21
-123.742
0
LINE
8
BLACK
6
CONTINUOUS
10
122.717
20
-123.742
11
122.892
21
-123.917
0
LINE
8
BLACK
6
CONTINUOUS
10
122.892
20
-123.917
11
123.029
21
-124.121
0
LINE
8
BLACK
6
CONTINUOUS
10
123.029
20
-124.121
11
123.123
21
-124.349
0
LINE
8
BLACK
6
CONTINUOUS
10
123.123
20
-124.349
11
123.171
21
-124.591
0
LINE
8
BLACK
6
CONTINUOUS
10
123.171
20
-124.591
11
123.171
21
-124.837
0
LINE
8
BLACK
6
CONTINUOUS
10
123.171
20
-124.837
11
123.123
21
-125.079
0
LINE
8
BLACK
6
CONTINUOUS
10
123.123
20
-125.079
11
123.029
21
-125.307
0
LINE
8
BLACK
6
CONTINUOUS
10
123.029
20
-125.307
11
122.892
21
-125.511
0
LINE
8
BLACK
6
CONTINUOUS
10
122.892
20
-125.511
11
122.717
21
-125.686
0
LINE
8
BLACK
6
CONTINUOUS
10
122.717
20
-125.686
11
122.513
21
-125.823
0
LINE
8
BLACK
6
CONTINUOUS
10
122.513
20
-125.823
11
122.513
21
-125.823
0
LINE
8
BLACK
6
CONTINUOUS
10
122.513
20
-125.823
11
122.513
21
-125.823
0
LINE
8
BLACK
6
CONTINUOUS
10
122.513
20
-125.823
11
122.285
21
-125.917
0
LINE
8
BLACK
6
CONTINUOUS
10
122.285
20
-125.917
11
122.043
21
-125.965
0
LINE
8
BLACK
6
CONTINUOUS
10
122.043
20
-125.965
11
121.797
21
-125.965
0
LINE
8
BLACK
6
CONTINUOUS
10
121.797
20
-125.965
11
121.555
21
-125.917
0
LINE
8
BLACK
6
CONTINUOUS
10
121.555
20
-125.917
11
121.327
21
-125.823
0
LINE
8
BLACK
6
CONTINUOUS
10
121.327
20
-125.823
11
121.327
21
-125.823
0
LINE
8
BLACK
6
CONTINUOUS
10
121.327
20
-125.823
11
121.327
21
-125.823
0
LINE
8
BLACK
6
CONTINUOUS
10
121.327
20
-125.823
11
121.123
21
-125.686
0
LINE
8
BLACK
6
CONTINUOUS
10
121.123
20
-125.686
11
120.948
21
-125.511
0
LINE
8
BLACK
6
CONTINUOUS
10
120.948
20
-125.511
11
120.811
21
-125.307
0
LINE
8
BLACK
6
CONTINUOUS
10
120.811
20
-125.307
11
120.717
21
-125.079
0
LINE
8
BLACK
6
CONTINUOUS
10
120.717
20
-125.079
11
120.669
21
-124.837
0
LINE
8
BLACK
6
CONTINUOUS
10
120.669
20
-124.837
11
120.669
21
-124.591
0
LINE
8
BLACK
6
CONTINUOUS
10
120.669
20
-124.591
11
120.717
21
-124.349
0
LINE
8
BLACK
6
CONTINUOUS
10
120.717
20
-124.349
11
120.811
21
-124.121
0
LINE
8
BLACK
6
CONTINUOUS
10
120.811
20
-124.121
11
120.948
21
-123.917
0
LINE
8
BLACK
6
CONTINUOUS
10
120.948
20
-123.917
11
121.123
21
-123.742
0
LINE
8
BLACK
6
CONTINUOUS
10
121.123
20
-123.742
11
121.327
21
-123.605
0
LINE
8
BLACK
6
CONTINUOUS
10
121.327
20
-123.605
11
121.439
21
-123.559
0
LINE
8
BLACK
6
CONTINUOUS
10
121.439
20
-123.559
11
121.555
21
-123.511
0
LINE
8
BLACK
6
CONTINUOUS
10
121.555
20
-123.511
11
121.797
21
-123.463
0
LINE
8
BLACK
6
CONTINUOUS
10
121.797
20
-123.463
11
122.043
21
-123.463
0
LINE
8
BLACK
6
CONTINUOUS
10
122.043
20
-123.463
11
122.285
21
-123.511
0
LINE
8
BLACK
6
CONTINUOUS
10
103.489
20
-123.511
11
103.605
21
-123.559
0
LINE
8
BLACK
6
CONTINUOUS
10
103.605
20
-123.559
11
103.717
21
-123.605
0
LINE
8
BLACK
6
CONTINUOUS
10
103.717
20
-123.605
11
103.921
21
-123.742
0
LINE
8
BLACK
6
CONTINUOUS
10
103.921
20
-123.742
11
104.096
21
-123.917
0
LINE
8
BLACK
6
CONTINUOUS
10
104.096
20
-123.917
11
104.233
21
-124.121
0
LINE
8
BLACK
6
CONTINUOUS
10
104.233
20
-124.121
11
104.327
21
-124.349
0
LINE
8
BLACK
6
CONTINUOUS
10
104.327
20
-124.349
11
104.375
21
-124.591
0
LINE
8
BLACK
6
CONTINUOUS
10
104.375
20
-124.591
11
104.375
21
-124.837
0
LINE
8
BLACK
6
CONTINUOUS
10
104.375
20
-124.837
11
104.327
21
-125.079
0
LINE
8
BLACK
6
CONTINUOUS
10
104.327
20
-125.079
11
104.233
21
-125.307
0
LINE
8
BLACK
6
CONTINUOUS
10
104.233
20
-125.307
11
104.096
21
-125.511
0
LINE
8
BLACK
6
CONTINUOUS
10
104.096
20
-125.511
11
103.921
21
-125.686
0
LINE
8
BLACK
6
CONTINUOUS
10
103.921
20
-125.686
11
103.717
21
-125.823
0
LINE
8
BLACK
6
CONTINUOUS
10
103.717
20
-125.823
11
103.717
21
-125.823
0
LINE
8
BLACK
6
CONTINUOUS
10
103.717
20
-125.823
11
103.717
21
-125.823
0
LINE
8
BLACK
6
CONTINUOUS
10
103.717
20
-125.823
11
103.489
21
-125.917
0
LINE
8
BLACK
6
CONTINUOUS
10
103.489
20
-125.917
11
103.247
21
-125.965
0
LINE
8
BLACK
6
CONTINUOUS
10
103.247
20
-125.965
11
103.001
21
-125.965
0
LINE
8
BLACK
6
CONTINUOUS
10
103.001
20
-125.965
11
102.759
21
-125.917
0
LINE
8
BLACK
6
CONTINUOUS
10
102.759
20
-125.917
11
102.531
21
-125.823
0
LINE
8
BLACK
6
CONTINUOUS
10
102.531
20
-125.823
11
102.531
21
-125.823
0
LINE
8
BLACK
6
CONTINUOUS
10
102.531
20
-125.823
11
102.531
21
-125.823
0
LINE
8
BLACK
6
CONTINUOUS
10
102.531
20
-125.823
11
102.327
21
-125.686
0
LINE
8
BLACK
6
CONTINUOUS
10
102.327
20
-125.686
11
102.152
21
-125.511
0
LINE
8
BLACK
6
CONTINUOUS
10
102.152
20
-125.511
11
102.015
21
-125.307
0
LINE
8
BLACK
6
CONTINUOUS
10
102.015
20
-125.307
11
101.921
21
-125.079
0
LINE
8
BLACK
6
CONTINUOUS
10
101.921
20
-125.079
11
101.873
21
-124.837
0
LINE
8
BLACK
6
CONTINUOUS
10
101.873
20
-124.837
11
101.873
21
-124.591
0
LINE
8
BLACK
6
CONTINUOUS
10
101.873
20
-124.591
11
101.921
21
-124.349
0
LINE
8
BLACK
6
CONTINUOUS
10
101.921
20
-124.349
11
102.015
21
-124.121
0
LINE
8
BLACK
6
CONTINUOUS
10
102.015
20
-124.121
11
102.152
21
-123.917
0
LINE
8
BLACK
6
CONTINUOUS
10
102.152
20
-123.917
11
102.327
21
-123.742
0
LINE
8
BLACK
6
CONTINUOUS
10
102.327
20
-123.742
11
102.531
21
-123.605
0
LINE
8
BLACK
6
CONTINUOUS
10
102.531
20
-123.605
11
102.643
21
-123.559
0
LINE
8
BLACK
6
CONTINUOUS
10
102.643
20
-123.559
11
102.759
21
-123.511
0
LINE
8
BLACK
6
CONTINUOUS
10
102.759
20
-123.511
11
103.001
21
-123.463
0
LINE
8
BLACK
6
CONTINUOUS
10
103.001
20
-123.463
11
103.247
21
-123.463
0
LINE
8
BLACK
6
CONTINUOUS
10
103.247
20
-123.463
11
103.489
21
-123.511
0
LINE
8
BLACK
6
CONTINUOUS
10
108.061
20
-123.511
11
108.177
21
-123.559
0
LINE
8
BLACK
6
CONTINUOUS
10
108.177
20
-123.559
11
108.289
21
-123.605
0
LINE
8
BLACK
6
CONTINUOUS
10
108.289
20
-123.605
11
108.493
21
-123.742
0
LINE
8
BLACK
6
CONTINUOUS
10
108.493
20
-123.742
11
108.668
21
-123.917
0
LINE
8
BLACK
6
CONTINUOUS
10
108.668
20
-123.917
11
108.805
21
-124.121
0
LINE
8
BLACK
6
CONTINUOUS
10
108.805
20
-124.121
11
108.899
21
-124.349
0
LINE
8
BLACK
6
CONTINUOUS
10
108.899
20
-124.349
11
108.947
21
-124.591
0
LINE
8
BLACK
6
CONTINUOUS
10
108.947
20
-124.591
11
108.947
21
-124.837
0
LINE
8
BLACK
6
CONTINUOUS
10
108.947
20
-124.837
11
108.899
21
-125.079
0
LINE
8
BLACK
6
CONTINUOUS
10
108.899
20
-125.079
11
108.805
21
-125.307
0
LINE
8
BLACK
6
CONTINUOUS
10
108.805
20
-125.307
11
108.668
21
-125.511
0
LINE
8
BLACK
6
CONTINUOUS
10
108.668
20
-125.511
11
108.493
21
-125.686
0
LINE
8
BLACK
6
CONTINUOUS
10
108.493
20
-125.686
11
108.289
21
-125.823
0
LINE
8
BLACK
6
CONTINUOUS
10
108.289
20
-125.823
11
108.289
21
-125.823
0
LINE
8
BLACK
6
CONTINUOUS
10
108.289
20
-125.823
11
108.289
21
-125.823
0
LINE
8
BLACK
6
CONTINUOUS
10
108.289
20
-125.823
11
108.061
21
-125.917
0
LINE
8
BLACK
6
CONTINUOUS
10
108.061
20
-125.917
11
107.819
21
-125.965
0
LINE
8
BLACK
6
CONTINUOUS
10
107.819
20
-125.965
11
107.573
21
-125.965
0
LINE
8
BLACK
6
CONTINUOUS
10
107.573
20
-125.965
11
107.331
21
-125.917
0
LINE
8
BLACK
6
CONTINUOUS
10
107.331
20
-125.917
11
107.103
21
-125.823
0
LINE
8
BLACK
6
CONTINUOUS
10
107.103
20
-125.823
11
107.103
21
-125.823
0
LINE
8
BLACK
6
CONTINUOUS
10
107.103
20
-125.823
11
107.103
21
-125.823
0
LINE
8
BLACK
6
CONTINUOUS
10
107.103
20
-125.823
11
106.899
21
-125.686
0
LINE
8
BLACK
6
CONTINUOUS
10
106.899
20
-125.686
11
106.724
21
-125.511
0
LINE
8
BLACK
6
CONTINUOUS
10
106.724
20
-125.511
11
106.587
21
-125.307
0
LINE
8
BLACK
6
CONTINUOUS
10
106.587
20
-125.307
11
106.493
21
-125.079
0
LINE
8
BLACK
6
CONTINUOUS
10
106.493
20
-125.079
11
106.445
21
-124.837
0
LINE
8
BLACK
6
CONTINUOUS
10
106.445
20
-124.837
11
106.445
21
-124.591
0
LINE
8
BLACK
6
CONTINUOUS
10
106.445
20
-124.591
11
106.493
21
-124.349
0
LINE
8
BLACK
6
CONTINUOUS
10
106.493
20
-124.349
11
106.587
21
-124.121
0
LINE
8
BLACK
6
CONTINUOUS
10
106.587
20
-124.121
11
106.724
21
-123.917
0
LINE
8
BLACK
6
CONTINUOUS
10
106.724
20
-123.917
11
106.899
21
-123.742
0
LINE
8
BLACK
6
CONTINUOUS
10
106.899
20
-123.742
11
107.103
21
-123.605
0
LINE
8
BLACK
6
CONTINUOUS
10
107.103
20
-123.605
11
107.215
21
-123.559
0
LINE
8
BLACK
6
CONTINUOUS
10
107.215
20
-123.559
11
107.331
21
-123.511
0
LINE
8
BLACK
6
CONTINUOUS
10
107.331
20
-123.511
11
107.573
21
-123.463
0
LINE
8
BLACK
6
CONTINUOUS
10
107.573
20
-123.463
11
107.819
21
-123.463
0
LINE
8
BLACK
6
CONTINUOUS
10
107.819
20
-123.463
11
108.061
21
-123.511
0
LINE
8
BLACK
6
CONTINUOUS
10
117.459
20
-123.511
11
117.575
21
-123.559
0
LINE
8
BLACK
6
CONTINUOUS
10
117.575
20
-123.559
11
117.687
21
-123.605
0
LINE
8
BLACK
6
CONTINUOUS
10
117.687
20
-123.605
11
117.891
21
-123.742
0
LINE
8
BLACK
6
CONTINUOUS
10
117.891
20
-123.742
11
118.066
21
-123.917
0
LINE
8
BLACK
6
CONTINUOUS
10
118.066
20
-123.917
11
118.203
21
-124.121
0
LINE
8
BLACK
6
CONTINUOUS
10
118.203
20
-124.121
11
118.297
21
-124.349
0
LINE
8
BLACK
6
CONTINUOUS
10
118.297
20
-124.349
11
118.345
21
-124.591
0
LINE
8
BLACK
6
CONTINUOUS
10
118.345
20
-124.591
11
118.345
21
-124.837
0
LINE
8
BLACK
6
CONTINUOUS
10
118.345
20
-124.837
11
118.297
21
-125.079
0
LINE
8
BLACK
6
CONTINUOUS
10
118.297
20
-125.079
11
118.203
21
-125.307
0
LINE
8
BLACK
6
CONTINUOUS
10
118.203
20
-125.307
11
118.066
21
-125.511
0
LINE
8
BLACK
6
CONTINUOUS
10
118.066
20
-125.511
11
117.891
21
-125.686
0
LINE
8
BLACK
6
CONTINUOUS
10
117.891
20
-125.686
11
117.687
21
-125.823
0
LINE
8
BLACK
6
CONTINUOUS
10
117.687
20
-125.823
11
117.687
21
-125.823
0
LINE
8
BLACK
6
CONTINUOUS
10
117.687
20
-125.823
11
117.687
21
-125.823
0
LINE
8
BLACK
6
CONTINUOUS
10
117.687
20
-125.823
11
117.459
21
-125.917
0
LINE
8
BLACK
6
CONTINUOUS
10
117.459
20
-125.917
11
117.217
21
-125.965
0
LINE
8
BLACK
6
CONTINUOUS
10
117.217
20
-125.965
11
116.971
21
-125.965
0
LINE
8
BLACK
6
CONTINUOUS
10
116.971
20
-125.965
11
116.729
21
-125.917
0
LINE
8
BLACK
6
CONTINUOUS
10
116.729
20
-125.917
11
116.501
21
-125.823
0
LINE
8
BLACK
6
CONTINUOUS
10
116.501
20
-125.823
11
116.501
21
-125.823
0
LINE
8
BLACK
6
CONTINUOUS
10
116.501
20
-125.823
11
116.501
21
-125.823
0
LINE
8
BLACK
6
CONTINUOUS
10
116.501
20
-125.823
11
116.297
21
-125.686
0
LINE
8
BLACK
6
CONTINUOUS
10
116.297
20
-125.686
11
116.122
21
-125.511
0
LINE
8
BLACK
6
CONTINUOUS
10
116.122
20
-125.511
11
115.985
21
-125.307
0
LINE
8
BLACK
6
CONTINUOUS
10
115.985
20
-125.307
11
115.891
21
-125.079
0
LINE
8
BLACK
6
CONTINUOUS
10
115.891
20
-125.079
11
115.843
21
-124.837
0
LINE
8
BLACK
6
CONTINUOUS
10
115.843
20
-124.837
11
115.843
21
-124.591
0
LINE
8
BLACK
6
CONTINUOUS
10
115.843
20
-124.591
11
115.891
21
-124.349
0
LINE
8
BLACK
6
CONTINUOUS
10
115.891
20
-124.349
11
115.985
21
-124.121
0
LINE
8
BLACK
6
CONTINUOUS
10
115.985
20
-124.121
11
116.122
21
-123.917
0
LINE
8
BLACK
6
CONTINUOUS
10
116.122
20
-123.917
11
116.297
21
-123.742
0
LINE
8
BLACK
6
CONTINUOUS
10
116.297
20
-123.742
11
116.501
21
-123.605
0
LINE
8
BLACK
6
CONTINUOUS
10
116.501
20
-123.605
11
116.613
21
-123.559
0
LINE
8
BLACK
6
CONTINUOUS
10
116.613
20
-123.559
11
116.729
21
-123.511
0
LINE
8
BLACK
6
CONTINUOUS
10
116.729
20
-123.511
11
116.971
21
-123.463
0
LINE
8
BLACK
6
CONTINUOUS
10
116.971
20
-123.463
11
117.217
21
-123.463
0
LINE
8
BLACK
6
CONTINUOUS
10
117.217
20
-123.463
11
117.459
21
-123.511
0
LINE
8
BLACK
6
CONTINUOUS
10
112.633
20
-123.511
11
112.749
21
-123.559
0
LINE
8
BLACK
6
CONTINUOUS
10
112.749
20
-123.559
11
112.861
21
-123.605
0
LINE
8
BLACK
6
CONTINUOUS
10
112.861
20
-123.605
11
113.065
21
-123.742
0
LINE
8
BLACK
6
CONTINUOUS
10
113.065
20
-123.742
11
113.24
21
-123.917
0
LINE
8
BLACK
6
CONTINUOUS
10
113.24
20
-123.917
11
113.377
21
-124.121
0
LINE
8
BLACK
6
CONTINUOUS
10
113.377
20
-124.121
11
113.471
21
-124.349
0
LINE
8
BLACK
6
CONTINUOUS
10
113.471
20
-124.349
11
113.519
21
-124.591
0
LINE
8
BLACK
6
CONTINUOUS
10
113.519
20
-124.591
11
113.519
21
-124.837
0
LINE
8
BLACK
6
CONTINUOUS
10
113.519
20
-124.837
11
113.471
21
-125.079
0
LINE
8
BLACK
6
CONTINUOUS
10
113.471
20
-125.079
11
113.377
21
-125.307
0
LINE
8
BLACK
6
CONTINUOUS
10
113.377
20
-125.307
11
113.24
21
-125.511
0
LINE
8
BLACK
6
CONTINUOUS
10
113.24
20
-125.511
11
113.065
21
-125.686
0
LINE
8
BLACK
6
CONTINUOUS
10
113.065
20
-125.686
11
112.861
21
-125.823
0
LINE
8
BLACK
6
CONTINUOUS
10
112.861
20
-125.823
11
112.861
21
-125.823
0
LINE
8
BLACK
6
CONTINUOUS
10
112.861
20
-125.823
11
112.861
21
-125.823
0
LINE
8
BLACK
6
CONTINUOUS
10
112.861
20
-125.823
11
112.633
21
-125.917
0
LINE
8
BLACK
6
CONTINUOUS
10
112.633
20
-125.917
11
112.391
21
-125.965
0
LINE
8
BLACK
6
CONTINUOUS
10
112.391
20
-125.965
11
112.145
21
-125.965
0
LINE
8
BLACK
6
CONTINUOUS
10
112.145
20
-125.965
11
111.903
21
-125.917
0
LINE
8
BLACK
6
CONTINUOUS
10
111.903
20
-125.917
11
111.675
21
-125.823
0
LINE
8
BLACK
6
CONTINUOUS
10
111.675
20
-125.823
11
111.675
21
-125.823
0
LINE
8
BLACK
6
CONTINUOUS
10
111.675
20
-125.823
11
111.675
21
-125.823
0
LINE
8
BLACK
6
CONTINUOUS
10
111.675
20
-125.823
11
111.471
21
-125.686
0
LINE
8
BLACK
6
CONTINUOUS
10
111.471
20
-125.686
11
111.296
21
-125.511
0
LINE
8
BLACK
6
CONTINUOUS
10
111.296
20
-125.511
11
111.159
21
-125.307
0
LINE
8
BLACK
6
CONTINUOUS
10
111.159
20
-125.307
11
111.065
21
-125.079
0
LINE
8
BLACK
6
CONTINUOUS
10
111.065
20
-125.079
11
111.017
21
-124.837
0
LINE
8
BLACK
6
CONTINUOUS
10
111.017
20
-124.837
11
111.017
21
-124.591
0
LINE
8
BLACK
6
CONTINUOUS
10
111.017
20
-124.591
11
111.065
21
-124.349
0
LINE
8
BLACK
6
CONTINUOUS
10
111.065
20
-124.349
11
111.159
21
-124.121
0
LINE
8
BLACK
6
CONTINUOUS
10
111.159
20
-124.121
11
111.296
21
-123.917
0
LINE
8
BLACK
6
CONTINUOUS
10
111.296
20
-123.917
11
111.471
21
-123.742
0
LINE
8
BLACK
6
CONTINUOUS
10
111.471
20
-123.742
11
111.675
21
-123.605
0
LINE
8
BLACK
6
CONTINUOUS
10
111.675
20
-123.605
11
111.787
21
-123.559
0
LINE
8
BLACK
6
CONTINUOUS
10
111.787
20
-123.559
11
111.903
21
-123.511
0
LINE
8
BLACK
6
CONTINUOUS
10
111.903
20
-123.511
11
112.145
21
-123.463
0
LINE
8
BLACK
6
CONTINUOUS
10
112.145
20
-123.463
11
112.391
21
-123.463
0
LINE
8
BLACK
6
CONTINUOUS
10
112.391
20
-123.463
11
112.633
21
-123.511
0
LINE
8
BLACK
6
CONTINUOUS
10
99.7206
20
-125.465
11
97.8914
21
-125.465
0
LINE
8
BLACK
6
CONTINUOUS
10
97.8914
20
-125.465
11
97.8914
21
-123.963
0
LINE
8
BLACK
6
CONTINUOUS
10
97.8914
20
-123.963
11
99.7206
21
-123.963
0
LINE
8
BLACK
6
CONTINUOUS
10
99.7206
20
-123.963
11
99.7206
21
-125.465
0
LINE
8
BLACK
6
CONTINUOUS
10
147.981
20
-125.465
11
146.151
21
-125.465
0
LINE
8
BLACK
6
CONTINUOUS
10
146.151
20
-125.465
11
146.151
21
-123.963
0
LINE
8
BLACK
6
CONTINUOUS
10
146.151
20
-123.963
11
147.981
21
-123.963
0
LINE
8
BLACK
6
CONTINUOUS
10
147.981
20
-123.963
11
147.981
21
-125.465
0
LINE
8
BLACK
6
CONTINUOUS
10
140.905
20
-125.361
11
139.003
21
-125.361
0
LINE
8
BLACK
6
CONTINUOUS
10
139.003
20
-125.361
11
139.003
21
-123.559
0
LINE
8
BLACK
6
CONTINUOUS
10
139.003
20
-123.559
11
140.905
21
-123.559
0
LINE
8
BLACK
6
CONTINUOUS
10
140.905
20
-123.559
11
140.905
21
-125.361
0
LINE
8
BLACK
6
CONTINUOUS
10
133.793
20
-125.107
11
131.891
21
-125.107
0
LINE
8
BLACK
6
CONTINUOUS
10
131.891
20
-125.107
11
131.891
21
-123.305
0
LINE
8
BLACK
6
CONTINUOUS
10
131.891
20
-123.305
11
133.793
21
-123.305
0
LINE
8
BLACK
6
CONTINUOUS
10
133.793
20
-123.305
11
133.793
21
-125.107
0
LINE
8
BLACK
6
CONTINUOUS
10
147.981
20
-122.925
11
146.151
21
-122.925
0
LINE
8
BLACK
6
CONTINUOUS
10
146.151
20
-122.925
11
146.151
21
-121.423
0
LINE
8
BLACK
6
CONTINUOUS
10
146.151
20
-121.423
11
147.981
21
-121.423
0
LINE
8
BLACK
6
CONTINUOUS
10
147.981
20
-121.423
11
147.981
21
-122.925
0
LINE
8
BLACK
6
CONTINUOUS
10
99.7206
20
-122.925
11
97.8914
21
-122.925
0
LINE
8
BLACK
6
CONTINUOUS
10
97.8914
20
-122.925
11
97.8914
21
-121.423
0
LINE
8
BLACK
6
CONTINUOUS
10
97.8914
20
-121.423
11
99.7206
21
-121.423
0
LINE
8
BLACK
6
CONTINUOUS
10
99.7206
20
-121.423
11
99.7206
21
-122.925
0
LINE
8
BLACK
6
CONTINUOUS
10
140.905
20
-122.821
11
139.003
21
-122.821
0
LINE
8
BLACK
6
CONTINUOUS
10
139.003
20
-122.821
11
139.003
21
-121.019
0
LINE
8
BLACK
6
CONTINUOUS
10
139.003
20
-121.019
11
140.905
21
-121.019
0
LINE
8
BLACK
6
CONTINUOUS
10
140.905
20
-121.019
11
140.905
21
-122.821
0
LINE
8
BLACK
6
CONTINUOUS
10
133.793
20
-122.567
11
131.891
21
-122.567
0
LINE
8
BLACK
6
CONTINUOUS
10
131.891
20
-122.567
11
131.891
21
-120.765
0
LINE
8
BLACK
6
CONTINUOUS
10
131.891
20
-120.765
11
133.793
21
-120.765
0
LINE
8
BLACK
6
CONTINUOUS
10
133.793
20
-120.765
11
133.793
21
-122.567
0
LINE
8
BLACK
6
CONTINUOUS
10
99.7206
20
-120.385
11
97.8914
21
-120.385
0
LINE
8
BLACK
6
CONTINUOUS
10
97.8914
20
-120.385
11
97.8914
21
-118.883
0
LINE
8
BLACK
6
CONTINUOUS
10
97.8914
20
-118.883
11
99.7206
21
-118.883
0
LINE
8
BLACK
6
CONTINUOUS
10
99.7206
20
-118.883
11
99.7206
21
-120.385
0
LINE
8
BLACK
6
CONTINUOUS
10
147.981
20
-120.385
11
146.151
21
-120.385
0
LINE
8
BLACK
6
CONTINUOUS
10
146.151
20
-120.385
11
146.151
21
-118.883
0
LINE
8
BLACK
6
CONTINUOUS
10
146.151
20
-118.883
11
147.981
21
-118.883
0
LINE
8
BLACK
6
CONTINUOUS
10
147.981
20
-118.883
11
147.981
21
-120.385
0
LINE
8
BLACK
6
CONTINUOUS
10
140.905
20
-120.281
11
139.003
21
-120.281
0
LINE
8
BLACK
6
CONTINUOUS
10
139.003
20
-120.281
11
139.003
21
-118.479
0
LINE
8
BLACK
6
CONTINUOUS
10
139.003
20
-118.479
11
140.905
21
-118.479
0
LINE
8
BLACK
6
CONTINUOUS
10
140.905
20
-118.479
11
140.905
21
-120.281
0
LINE
8
BLACK
6
CONTINUOUS
10
133.793
20
-120.027
11
131.891
21
-120.027
0
LINE
8
BLACK
6
CONTINUOUS
10
131.891
20
-120.027
11
131.891
21
-118.225
0
LINE
8
BLACK
6
CONTINUOUS
10
131.891
20
-118.225
11
133.793
21
-118.225
0
LINE
8
BLACK
6
CONTINUOUS
10
133.793
20
-118.225
11
133.793
21
-120.027
0
LINE
8
BLACK
6
CONTINUOUS
10
115.961
20
-118.181
11
116.094
21
-118.221
0
LINE
8
BLACK
6
CONTINUOUS
10
116.094
20
-118.221
11
116.094
21
-118.221
0
LINE
8
BLACK
6
CONTINUOUS
10
116.094
20
-118.221
11
116.215
21
-118.286
0
LINE
8
BLACK
6
CONTINUOUS
10
116.215
20
-118.286
11
116.215
21
-118.286
0
LINE
8
BLACK
6
CONTINUOUS
10
116.215
20
-118.286
11
116.215
21
-118.286
0
LINE
8
BLACK
6
CONTINUOUS
10
116.215
20
-118.286
11
116.322
21
-118.374
0
LINE
8
BLACK
6
CONTINUOUS
10
116.322
20
-118.374
11
116.41
21
-118.481
0
LINE
8
BLACK
6
CONTINUOUS
10
116.41
20
-118.481
11
116.475
21
-118.602
0
LINE
8
BLACK
6
CONTINUOUS
10
116.475
20
-118.602
11
116.515
21
-118.735
0
LINE
8
BLACK
6
CONTINUOUS
10
116.515
20
-118.735
11
116.528
21
-118.872
0
LINE
8
BLACK
6
CONTINUOUS
10
116.528
20
-118.872
11
116.515
21
-119.009
0
LINE
8
BLACK
6
CONTINUOUS
10
116.515
20
-119.009
11
116.475
21
-119.142
0
LINE
8
BLACK
6
CONTINUOUS
10
116.475
20
-119.142
11
116.475
21
-119.142
0
LINE
8
BLACK
6
CONTINUOUS
10
116.475
20
-119.142
11
116.41
21
-119.263
0
LINE
8
BLACK
6
CONTINUOUS
10
116.41
20
-119.263
11
116.322
21
-119.37
0
LINE
8
BLACK
6
CONTINUOUS
10
116.322
20
-119.37
11
116.215
21
-119.458
0
LINE
8
BLACK
6
CONTINUOUS
10
116.215
20
-119.458
11
116.094
21
-119.523
0
LINE
8
BLACK
6
CONTINUOUS
10
116.094
20
-119.523
11
116.094
21
-119.523
0
LINE
8
BLACK
6
CONTINUOUS
10
116.094
20
-119.523
11
115.961
21
-119.563
0
LINE
8
BLACK
6
CONTINUOUS
10
115.961
20
-119.563
11
115.858
21
-119.573
0
LINE
8
BLACK
6
CONTINUOUS
10
115.858
20
-119.573
11
115.79
21
-119.573
0
LINE
8
BLACK
6
CONTINUOUS
10
115.79
20
-119.573
11
115.687
21
-119.563
0
LINE
8
BLACK
6
CONTINUOUS
10
115.687
20
-119.563
11
115.554
21
-119.523
0
LINE
8
BLACK
6
CONTINUOUS
10
115.554
20
-119.523
11
115.554
21
-119.523
0
LINE
8
BLACK
6
CONTINUOUS
10
115.554
20
-119.523
11
115.433
21
-119.458
0
LINE
8
BLACK
6
CONTINUOUS
10
115.433
20
-119.458
11
115.326
21
-119.37
0
LINE
8
BLACK
6
CONTINUOUS
10
115.326
20
-119.37
11
115.238
21
-119.263
0
LINE
8
BLACK
6
CONTINUOUS
10
115.238
20
-119.263
11
115.173
21
-119.142
0
LINE
8
BLACK
6
CONTINUOUS
10
115.173
20
-119.142
11
115.173
21
-119.142
0
LINE
8
BLACK
6
CONTINUOUS
10
115.173
20
-119.142
11
115.133
21
-119.009
0
LINE
8
BLACK
6
CONTINUOUS
10
115.133
20
-119.009
11
115.12
21
-118.872
0
LINE
8
BLACK
6
CONTINUOUS
10
115.12
20
-118.872
11
115.133
21
-118.735
0
LINE
8
BLACK
6
CONTINUOUS
10
115.133
20
-118.735
11
115.173
21
-118.602
0
LINE
8
BLACK
6
CONTINUOUS
10
115.173
20
-118.602
11
115.238
21
-118.481
0
LINE
8
BLACK
6
CONTINUOUS
10
115.238
20
-118.481
11
115.326
21
-118.374
0
LINE
8
BLACK
6
CONTINUOUS
10
115.326
20
-118.374
11
115.433
21
-118.286
0
LINE
8
BLACK
6
CONTINUOUS
10
115.433
20
-118.286
11
115.433
21
-118.286
0
LINE
8
BLACK
6
CONTINUOUS
10
115.433
20
-118.286
11
115.433
21
-118.286
0
LINE
8
BLACK
6
CONTINUOUS
10
115.433
20
-118.286
11
115.554
21
-118.221
0
LINE
8
BLACK
6
CONTINUOUS
10
115.554
20
-118.221
11
115.554
21
-118.221
0
LINE
8
BLACK
6
CONTINUOUS
10
115.554
20
-118.221
11
115.687
21
-118.181
0
LINE
8
BLACK
6
CONTINUOUS
10
115.687
20
-118.181
11
115.79
21
-118.171
0
LINE
8
BLACK
6
CONTINUOUS
10
115.79
20
-118.171
11
115.858
21
-118.171
0
LINE
8
BLACK
6
CONTINUOUS
10
115.858
20
-118.171
11
115.961
21
-118.181
0
LINE
8
BLACK
6
CONTINUOUS
10
111.897
20
-118.181
11
112.03
21
-118.221
0
LINE
8
BLACK
6
CONTINUOUS
10
112.03
20
-118.221
11
112.03
21
-118.221
0
LINE
8
BLACK
6
CONTINUOUS
10
112.03
20
-118.221
11
112.151
21
-118.286
0
LINE
8
BLACK
6
CONTINUOUS
10
112.151
20
-118.286
11
112.151
21
-118.286
0
LINE
8
BLACK
6
CONTINUOUS
10
112.151
20
-118.286
11
112.151
21
-118.286
0
LINE
8
BLACK
6
CONTINUOUS
10
112.151
20
-118.286
11
112.258
21
-118.374
0
LINE
8
BLACK
6
CONTINUOUS
10
112.258
20
-118.374
11
112.346
21
-118.481
0
LINE
8
BLACK
6
CONTINUOUS
10
112.346
20
-118.481
11
112.411
21
-118.602
0
LINE
8
BLACK
6
CONTINUOUS
10
112.411
20
-118.602
11
112.451
21
-118.735
0
LINE
8
BLACK
6
CONTINUOUS
10
112.451
20
-118.735
11
112.464
21
-118.872
0
LINE
8
BLACK
6
CONTINUOUS
10
112.464
20
-118.872
11
112.451
21
-119.009
0
LINE
8
BLACK
6
CONTINUOUS
10
112.451
20
-119.009
11
112.411
21
-119.142
0
LINE
8
BLACK
6
CONTINUOUS
10
112.411
20
-119.142
11
112.411
21
-119.142
0
LINE
8
BLACK
6
CONTINUOUS
10
112.411
20
-119.142
11
112.346
21
-119.263
0
LINE
8
BLACK
6
CONTINUOUS
10
112.346
20
-119.263
11
112.258
21
-119.37
0
LINE
8
BLACK
6
CONTINUOUS
10
112.258
20
-119.37
11
112.151
21
-119.458
0
LINE
8
BLACK
6
CONTINUOUS
10
112.151
20
-119.458
11
112.03
21
-119.523
0
LINE
8
BLACK
6
CONTINUOUS
10
112.03
20
-119.523
11
112.03
21
-119.523
0
LINE
8
BLACK
6
CONTINUOUS
10
112.03
20
-119.523
11
111.897
21
-119.563
0
LINE
8
BLACK
6
CONTINUOUS
10
111.897
20
-119.563
11
111.794
21
-119.573
0
LINE
8
BLACK
6
CONTINUOUS
10
111.794
20
-119.573
11
111.726
21
-119.573
0
LINE
8
BLACK
6
CONTINUOUS
10
111.726
20
-119.573
11
111.623
21
-119.563
0
LINE
8
BLACK
6
CONTINUOUS
10
111.623
20
-119.563
11
111.49
21
-119.523
0
LINE
8
BLACK
6
CONTINUOUS
10
111.49
20
-119.523
11
111.49
21
-119.523
0
LINE
8
BLACK
6
CONTINUOUS
10
111.49
20
-119.523
11
111.369
21
-119.458
0
LINE
8
BLACK
6
CONTINUOUS
10
111.369
20
-119.458
11
111.262
21
-119.37
0
LINE
8
BLACK
6
CONTINUOUS
10
111.262
20
-119.37
11
111.174
21
-119.263
0
LINE
8
BLACK
6
CONTINUOUS
10
111.174
20
-119.263
11
111.109
21
-119.142
0
LINE
8
BLACK
6
CONTINUOUS
10
111.109
20
-119.142
11
111.109
21
-119.142
0
LINE
8
BLACK
6
CONTINUOUS
10
111.109
20
-119.142
11
111.069
21
-119.009
0
LINE
8
BLACK
6
CONTINUOUS
10
111.069
20
-119.009
11
111.056
21
-118.872
0
LINE
8
BLACK
6
CONTINUOUS
10
111.056
20
-118.872
11
111.069
21
-118.735
0
LINE
8
BLACK
6
CONTINUOUS
10
111.069
20
-118.735
11
111.109
21
-118.602
0
LINE
8
BLACK
6
CONTINUOUS
10
111.109
20
-118.602
11
111.174
21
-118.481
0
LINE
8
BLACK
6
CONTINUOUS
10
111.174
20
-118.481
11
111.262
21
-118.374
0
LINE
8
BLACK
6
CONTINUOUS
10
111.262
20
-118.374
11
111.369
21
-118.286
0
LINE
8
BLACK
6
CONTINUOUS
10
111.369
20
-118.286
11
111.369
21
-118.286
0
LINE
8
BLACK
6
CONTINUOUS
10
111.369
20
-118.286
11
111.369
21
-118.286
0
LINE
8
BLACK
6
CONTINUOUS
10
111.369
20
-118.286
11
111.49
21
-118.221
0
LINE
8
BLACK
6
CONTINUOUS
10
111.49
20
-118.221
11
111.49
21
-118.221
0
LINE
8
BLACK
6
CONTINUOUS
10
111.49
20
-118.221
11
111.623
21
-118.181
0
LINE
8
BLACK
6
CONTINUOUS
10
111.623
20
-118.181
11
111.726
21
-118.171
0
LINE
8
BLACK
6
CONTINUOUS
10
111.726
20
-118.171
11
111.794
21
-118.171
0
LINE
8
BLACK
6
CONTINUOUS
10
111.794
20
-118.171
11
111.897
21
-118.181
0
LINE
8
BLACK
6
CONTINUOUS
10
119.263
20
-118.181
11
119.396
21
-118.221
0
LINE
8
BLACK
6
CONTINUOUS
10
119.396
20
-118.221
11
119.396
21
-118.221
0
LINE
8
BLACK
6
CONTINUOUS
10
119.396
20
-118.221
11
119.517
21
-118.286
0
LINE
8
BLACK
6
CONTINUOUS
10
119.517
20
-118.286
11
119.517
21
-118.286
0
LINE
8
BLACK
6
CONTINUOUS
10
119.517
20
-118.286
11
119.517
21
-118.286
0
LINE
8
BLACK
6
CONTINUOUS
10
119.517
20
-118.286
11
119.624
21
-118.374
0
LINE
8
BLACK
6
CONTINUOUS
10
119.624
20
-118.374
11
119.712
21
-118.481
0
LINE
8
BLACK
6
CONTINUOUS
10
119.712
20
-118.481
11
119.777
21
-118.602
0
LINE
8
BLACK
6
CONTINUOUS
10
119.777
20
-118.602
11
119.817
21
-118.735
0
LINE
8
BLACK
6
CONTINUOUS
10
119.817
20
-118.735
11
119.83
21
-118.872
0
LINE
8
BLACK
6
CONTINUOUS
10
119.83
20
-118.872
11
119.817
21
-119.009
0
LINE
8
BLACK
6
CONTINUOUS
10
119.817
20
-119.009
11
119.777
21
-119.142
0
LINE
8
BLACK
6
CONTINUOUS
10
119.777
20
-119.142
11
119.777
21
-119.142
0
LINE
8
BLACK
6
CONTINUOUS
10
119.777
20
-119.142
11
119.712
21
-119.263
0
LINE
8
BLACK
6
CONTINUOUS
10
119.712
20
-119.263
11
119.624
21
-119.37
0
LINE
8
BLACK
6
CONTINUOUS
10
119.624
20
-119.37
11
119.517
21
-119.458
0
LINE
8
BLACK
6
CONTINUOUS
10
119.517
20
-119.458
11
119.396
21
-119.523
0
LINE
8
BLACK
6
CONTINUOUS
10
119.396
20
-119.523
11
119.396
21
-119.523
0
LINE
8
BLACK
6
CONTINUOUS
10
119.396
20
-119.523
11
119.263
21
-119.563
0
LINE
8
BLACK
6
CONTINUOUS
10
119.263
20
-119.563
11
119.16
21
-119.573
0
LINE
8
BLACK
6
CONTINUOUS
10
119.16
20
-119.573
11
119.092
21
-119.573
0
LINE
8
BLACK
6
CONTINUOUS
10
119.092
20
-119.573
11
118.989
21
-119.563
0
LINE
8
BLACK
6
CONTINUOUS
10
118.989
20
-119.563
11
118.856
21
-119.523
0
LINE
8
BLACK
6
CONTINUOUS
10
118.856
20
-119.523
11
118.856
21
-119.523
0
LINE
8
BLACK
6
CONTINUOUS
10
118.856
20
-119.523
11
118.735
21
-119.458
0
LINE
8
BLACK
6
CONTINUOUS
10
118.735
20
-119.458
11
118.628
21
-119.37
0
LINE
8
BLACK
6
CONTINUOUS
10
118.628
20
-119.37
11
118.54
21
-119.263
0
LINE
8
BLACK
6
CONTINUOUS
10
118.54
20
-119.263
11
118.475
21
-119.142
0
LINE
8
BLACK
6
CONTINUOUS
10
118.475
20
-119.142
11
118.475
21
-119.142
0
LINE
8
BLACK
6
CONTINUOUS
10
118.475
20
-119.142
11
118.435
21
-119.009
0
LINE
8
BLACK
6
CONTINUOUS
10
118.435
20
-119.009
11
118.422
21
-118.872
0
LINE
8
BLACK
6
CONTINUOUS
10
118.422
20
-118.872
11
118.435
21
-118.735
0
LINE
8
BLACK
6
CONTINUOUS
10
118.435
20
-118.735
11
118.475
21
-118.602
0
LINE
8
BLACK
6
CONTINUOUS
10
118.475
20
-118.602
11
118.54
21
-118.481
0
LINE
8
BLACK
6
CONTINUOUS
10
118.54
20
-118.481
11
118.628
21
-118.374
0
LINE
8
BLACK
6
CONTINUOUS
10
118.628
20
-118.374
11
118.735
21
-118.286
0
LINE
8
BLACK
6
CONTINUOUS
10
118.735
20
-118.286
11
118.735
21
-118.286
0
LINE
8
BLACK
6
CONTINUOUS
10
118.735
20
-118.286
11
118.735
21
-118.286
0
LINE
8
BLACK
6
CONTINUOUS
10
118.735
20
-118.286
11
118.856
21
-118.221
0
LINE
8
BLACK
6
CONTINUOUS
10
118.856
20
-118.221
11
118.856
21
-118.221
0
LINE
8
BLACK
6
CONTINUOUS
10
118.856
20
-118.221
11
118.989
21
-118.181
0
LINE
8
BLACK
6
CONTINUOUS
10
118.989
20
-118.181
11
119.092
21
-118.171
0
LINE
8
BLACK
6
CONTINUOUS
10
119.092
20
-118.171
11
119.16
21
-118.171
0
LINE
8
BLACK
6
CONTINUOUS
10
119.16
20
-118.171
11
119.263
21
-118.181
0
LINE
8
BLACK
6
CONTINUOUS
10
107.579
20
-118.181
11
107.712
21
-118.221
0
LINE
8
BLACK
6
CONTINUOUS
10
107.712
20
-118.221
11
107.712
21
-118.221
0
LINE
8
BLACK
6
CONTINUOUS
10
107.712
20
-118.221
11
107.833
21
-118.286
0
LINE
8
BLACK
6
CONTINUOUS
10
107.833
20
-118.286
11
107.833
21
-118.286
0
LINE
8
BLACK
6
CONTINUOUS
10
107.833
20
-118.286
11
107.833
21
-118.286
0
LINE
8
BLACK
6
CONTINUOUS
10
107.833
20
-118.286
11
107.94
21
-118.374
0
LINE
8
BLACK
6
CONTINUOUS
10
107.94
20
-118.374
11
108.028
21
-118.481
0
LINE
8
BLACK
6
CONTINUOUS
10
108.028
20
-118.481
11
108.093
21
-118.602
0
LINE
8
BLACK
6
CONTINUOUS
10
108.093
20
-118.602
11
108.133
21
-118.735
0
LINE
8
BLACK
6
CONTINUOUS
10
108.133
20
-118.735
11
108.146
21
-118.872
0
LINE
8
BLACK
6
CONTINUOUS
10
108.146
20
-118.872
11
108.133
21
-119.009
0
LINE
8
BLACK
6
CONTINUOUS
10
108.133
20
-119.009
11
108.093
21
-119.142
0
LINE
8
BLACK
6
CONTINUOUS
10
108.093
20
-119.142
11
108.093
21
-119.142
0
LINE
8
BLACK
6
CONTINUOUS
10
108.093
20
-119.142
11
108.028
21
-119.263
0
LINE
8
BLACK
6
CONTINUOUS
10
108.028
20
-119.263
11
107.94
21
-119.37
0
LINE
8
BLACK
6
CONTINUOUS
10
107.94
20
-119.37
11
107.833
21
-119.458
0
LINE
8
BLACK
6
CONTINUOUS
10
107.833
20
-119.458
11
107.712
21
-119.523
0
LINE
8
BLACK
6
CONTINUOUS
10
107.712
20
-119.523
11
107.712
21
-119.523
0
LINE
8
BLACK
6
CONTINUOUS
10
107.712
20
-119.523
11
107.579
21
-119.563
0
LINE
8
BLACK
6
CONTINUOUS
10
107.579
20
-119.563
11
107.476
21
-119.573
0
LINE
8
BLACK
6
CONTINUOUS
10
107.476
20
-119.573
11
107.408
21
-119.573
0
LINE
8
BLACK
6
CONTINUOUS
10
107.408
20
-119.573
11
107.305
21
-119.563
0
LINE
8
BLACK
6
CONTINUOUS
10
107.305
20
-119.563
11
107.172
21
-119.523
0
LINE
8
BLACK
6
CONTINUOUS
10
107.172
20
-119.523
11
107.172
21
-119.523
0
LINE
8
BLACK
6
CONTINUOUS
10
107.172
20
-119.523
11
107.051
21
-119.458
0
LINE
8
BLACK
6
CONTINUOUS
10
107.051
20
-119.458
11
106.944
21
-119.37
0
LINE
8
BLACK
6
CONTINUOUS
10
106.944
20
-119.37
11
106.856
21
-119.263
0
LINE
8
BLACK
6
CONTINUOUS
10
106.856
20
-119.263
11
106.791
21
-119.142
0
LINE
8
BLACK
6
CONTINUOUS
10
106.791
20
-119.142
11
106.791
21
-119.142
0
LINE
8
BLACK
6
CONTINUOUS
10
106.791
20
-119.142
11
106.751
21
-119.009
0
LINE
8
BLACK
6
CONTINUOUS
10
106.751
20
-119.009
11
106.738
21
-118.872
0
LINE
8
BLACK
6
CONTINUOUS
10
106.738
20
-118.872
11
106.751
21
-118.735
0
LINE
8
BLACK
6
CONTINUOUS
10
106.751
20
-118.735
11
106.791
21
-118.602
0
LINE
8
BLACK
6
CONTINUOUS
10
106.791
20
-118.602
11
106.856
21
-118.481
0
LINE
8
BLACK
6
CONTINUOUS
10
106.856
20
-118.481
11
106.944
21
-118.374
0
LINE
8
BLACK
6
CONTINUOUS
10
106.944
20
-118.374
11
107.051
21
-118.286
0
LINE
8
BLACK
6
CONTINUOUS
10
107.051
20
-118.286
11
107.051
21
-118.286
0
LINE
8
BLACK
6
CONTINUOUS
10
107.051
20
-118.286
11
107.051
21
-118.286
0
LINE
8
BLACK
6
CONTINUOUS
10
107.051
20
-118.286
11
107.172
21
-118.221
0
LINE
8
BLACK
6
CONTINUOUS
10
107.172
20
-118.221
11
107.172
21
-118.221
0
LINE
8
BLACK
6
CONTINUOUS
10
107.172
20
-118.221
11
107.305
21
-118.181
0
LINE
8
BLACK
6
CONTINUOUS
10
107.305
20
-118.181
11
107.408
21
-118.171
0
LINE
8
BLACK
6
CONTINUOUS
10
107.408
20
-118.171
11
107.476
21
-118.171
0
LINE
8
BLACK
6
CONTINUOUS
10
107.476
20
-118.171
11
107.579
21
-118.181
0
LINE
8
BLACK
6
CONTINUOUS
10
103.769
20
-118.181
11
103.902
21
-118.221
0
LINE
8
BLACK
6
CONTINUOUS
10
103.902
20
-118.221
11
103.902
21
-118.221
0
LINE
8
BLACK
6
CONTINUOUS
10
103.902
20
-118.221
11
104.023
21
-118.286
0
LINE
8
BLACK
6
CONTINUOUS
10
104.023
20
-118.286
11
104.023
21
-118.286
0
LINE
8
BLACK
6
CONTINUOUS
10
104.023
20
-118.286
11
104.023
21
-118.286
0
LINE
8
BLACK
6
CONTINUOUS
10
104.023
20
-118.286
11
104.13
21
-118.374
0
LINE
8
BLACK
6
CONTINUOUS
10
104.13
20
-118.374
11
104.218
21
-118.481
0
LINE
8
BLACK
6
CONTINUOUS
10
104.218
20
-118.481
11
104.283
21
-118.602
0
LINE
8
BLACK
6
CONTINUOUS
10
104.283
20
-118.602
11
104.323
21
-118.735
0
LINE
8
BLACK
6
CONTINUOUS
10
104.323
20
-118.735
11
104.336
21
-118.872
0
LINE
8
BLACK
6
CONTINUOUS
10
104.336
20
-118.872
11
104.323
21
-119.009
0
LINE
8
BLACK
6
CONTINUOUS
10
104.323
20
-119.009
11
104.283
21
-119.142
0
LINE
8
BLACK
6
CONTINUOUS
10
104.283
20
-119.142
11
104.283
21
-119.142
0
LINE
8
BLACK
6
CONTINUOUS
10
104.283
20
-119.142
11
104.218
21
-119.263
0
LINE
8
BLACK
6
CONTINUOUS
10
104.218
20
-119.263
11
104.13
21
-119.37
0
LINE
8
BLACK
6
CONTINUOUS
10
104.13
20
-119.37
11
104.023
21
-119.458
0
LINE
8
BLACK
6
CONTINUOUS
10
104.023
20
-119.458
11
103.902
21
-119.523
0
LINE
8
BLACK
6
CONTINUOUS
10
103.902
20
-119.523
11
103.902
21
-119.523
0
LINE
8
BLACK
6
CONTINUOUS
10
103.902
20
-119.523
11
103.769
21
-119.563
0
LINE
8
BLACK
6
CONTINUOUS
10
103.769
20
-119.563
11
103.666
21
-119.573
0
LINE
8
BLACK
6
CONTINUOUS
10
103.666
20
-119.573
11
103.598
21
-119.573
0
LINE
8
BLACK
6
CONTINUOUS
10
103.598
20
-119.573
11
103.495
21
-119.563
0
LINE
8
BLACK
6
CONTINUOUS
10
103.495
20
-119.563
11
103.362
21
-119.523
0
LINE
8
BLACK
6
CONTINUOUS
10
103.362
20
-119.523
11
103.362
21
-119.523
0
LINE
8
BLACK
6
CONTINUOUS
10
103.362
20
-119.523
11
103.241
21
-119.458
0
LINE
8
BLACK
6
CONTINUOUS
10
103.241
20
-119.458
11
103.134
21
-119.37
0
LINE
8
BLACK
6
CONTINUOUS
10
103.134
20
-119.37
11
103.046
21
-119.263
0
LINE
8
BLACK
6
CONTINUOUS
10
103.046
20
-119.263
11
102.981
21
-119.142
0
LINE
8
BLACK
6
CONTINUOUS
10
102.981
20
-119.142
11
102.981
21
-119.142
0
LINE
8
BLACK
6
CONTINUOUS
10
102.981
20
-119.142
11
102.941
21
-119.009
0
LINE
8
BLACK
6
CONTINUOUS
10
102.941
20
-119.009
11
102.928
21
-118.872
0
LINE
8
BLACK
6
CONTINUOUS
10
102.928
20
-118.872
11
102.941
21
-118.735
0
LINE
8
BLACK
6
CONTINUOUS
10
102.941
20
-118.735
11
102.981
21
-118.602
0
LINE
8
BLACK
6
CONTINUOUS
10
102.981
20
-118.602
11
103.046
21
-118.481
0
LINE
8
BLACK
6
CONTINUOUS
10
103.046
20
-118.481
11
103.134
21
-118.374
0
LINE
8
BLACK
6
CONTINUOUS
10
103.134
20
-118.374
11
103.241
21
-118.286
0
LINE
8
BLACK
6
CONTINUOUS
10
103.241
20
-118.286
11
103.241
21
-118.286
0
LINE
8
BLACK
6
CONTINUOUS
10
103.241
20
-118.286
11
103.241
21
-118.286
0
LINE
8
BLACK
6
CONTINUOUS
10
103.241
20
-118.286
11
103.362
21
-118.221
0
LINE
8
BLACK
6
CONTINUOUS
10
103.362
20
-118.221
11
103.362
21
-118.221
0
LINE
8
BLACK
6
CONTINUOUS
10
103.362
20
-118.221
11
103.495
21
-118.181
0
LINE
8
BLACK
6
CONTINUOUS
10
103.495
20
-118.181
11
103.598
21
-118.171
0
LINE
8
BLACK
6
CONTINUOUS
10
103.598
20
-118.171
11
103.666
21
-118.171
0
LINE
8
BLACK
6
CONTINUOUS
10
103.666
20
-118.171
11
103.769
21
-118.181
0
LINE
8
BLACK
6
CONTINUOUS
10
99.7206
20
-117.845
11
97.8914
21
-117.845
0
LINE
8
BLACK
6
CONTINUOUS
10
97.8914
20
-117.845
11
97.8914
21
-116.343
0
LINE
8
BLACK
6
CONTINUOUS
10
97.8914
20
-116.343
11
99.7206
21
-116.343
0
LINE
8
BLACK
6
CONTINUOUS
10
99.7206
20
-116.343
11
99.7206
21
-117.845
0
LINE
8
BLACK
6
CONTINUOUS
10
147.981
20
-117.845
11
146.151
21
-117.845
0
LINE
8
BLACK
6
CONTINUOUS
10
146.151
20
-117.845
11
146.151
21
-116.343
0
LINE
8
BLACK
6
CONTINUOUS
10
146.151
20
-116.343
11
147.981
21
-116.343
0
LINE
8
BLACK
6
CONTINUOUS
10
147.981
20
-116.343
11
147.981
21
-117.845
0
LINE
8
BLACK
6
CONTINUOUS
10
140.855
20
-117.741
11
139.053
21
-117.741
0
LINE
8
BLACK
6
CONTINUOUS
10
139.053
20
-117.741
11
139.053
21
-115.939
0
LINE
8
BLACK
6
CONTINUOUS
10
139.053
20
-115.939
11
140.855
21
-115.939
0
LINE
8
BLACK
6
CONTINUOUS
10
140.855
20
-115.939
11
140.855
21
-117.741
0
LINE
8
BLACK
6
CONTINUOUS
10
133.793
20
-117.487
11
131.891
21
-117.487
0
LINE
8
BLACK
6
CONTINUOUS
10
131.891
20
-117.487
11
131.891
21
-115.685
0
LINE
8
BLACK
6
CONTINUOUS
10
131.891
20
-115.685
11
133.793
21
-115.685
0
LINE
8
BLACK
6
CONTINUOUS
10
133.793
20
-115.685
11
133.793
21
-117.487
0
LINE
8
BLACK
6
CONTINUOUS
10
104.333
20
-117.033
11
102.931
21
-117.033
0
LINE
8
BLACK
6
CONTINUOUS
10
102.931
20
-117.033
11
102.931
21
-115.631
0
LINE
8
BLACK
6
CONTINUOUS
10
102.931
20
-115.631
11
104.333
21
-115.631
0
LINE
8
BLACK
6
CONTINUOUS
10
104.333
20
-115.631
11
104.333
21
-117.033
0
LINE
8
BLACK
6
CONTINUOUS
10
119.827
20
-117.033
11
118.425
21
-117.033
0
LINE
8
BLACK
6
CONTINUOUS
10
118.425
20
-117.033
11
118.425
21
-115.631
0
LINE
8
BLACK
6
CONTINUOUS
10
118.425
20
-115.631
11
119.827
21
-115.631
0
LINE
8
BLACK
6
CONTINUOUS
10
119.827
20
-115.631
11
119.827
21
-117.033
0
LINE
8
BLACK
6
CONTINUOUS
10
112.461
20
-117.033
11
111.059
21
-117.033
0
LINE
8
BLACK
6
CONTINUOUS
10
111.059
20
-117.033
11
111.059
21
-115.631
0
LINE
8
BLACK
6
CONTINUOUS
10
111.059
20
-115.631
11
112.461
21
-115.631
0
LINE
8
BLACK
6
CONTINUOUS
10
112.461
20
-115.631
11
112.461
21
-117.033
0
LINE
8
BLACK
6
CONTINUOUS
10
108.143
20
-117.033
11
106.741
21
-117.033
0
LINE
8
BLACK
6
CONTINUOUS
10
106.741
20
-117.033
11
106.741
21
-115.631
0
LINE
8
BLACK
6
CONTINUOUS
10
106.741
20
-115.631
11
108.143
21
-115.631
0
LINE
8
BLACK
6
CONTINUOUS
10
108.143
20
-115.631
11
108.143
21
-117.033
0
LINE
8
BLACK
6
CONTINUOUS
10
116.525
20
-117.033
11
115.123
21
-117.033
0
LINE
8
BLACK
6
CONTINUOUS
10
115.123
20
-117.033
11
115.123
21
-115.631
0
LINE
8
BLACK
6
CONTINUOUS
10
115.123
20
-115.631
11
116.525
21
-115.631
0
LINE
8
BLACK
6
CONTINUOUS
10
116.525
20
-115.631
11
116.525
21
-117.033
0
LINE
8
BLACK
6
CONTINUOUS
10
99.7206
20
-115.305
11
97.8914
21
-115.305
0
LINE
8
BLACK
6
CONTINUOUS
10
97.8914
20
-115.305
11
97.8914
21
-113.803
0
LINE
8
BLACK
6
CONTINUOUS
10
97.8914
20
-113.803
11
99.7206
21
-113.803
0
LINE
8
BLACK
6
CONTINUOUS
10
99.7206
20
-113.803
11
99.7206
21
-115.305
0
LINE
8
BLACK
6
CONTINUOUS
10
147.981
20
-115.305
11
146.151
21
-115.305
0
LINE
8
BLACK
6
CONTINUOUS
10
146.151
20
-115.305
11
146.151
21
-113.803
0
LINE
8
BLACK
6
CONTINUOUS
10
146.151
20
-113.803
11
147.981
21
-113.803
0
LINE
8
BLACK
6
CONTINUOUS
10
147.981
20
-113.803
11
147.981
21
-115.305
0
LINE
8
BLACK
6
CONTINUOUS
10
147.981
20
-112.765
11
146.151
21
-112.765
0
LINE
8
BLACK
6
CONTINUOUS
10
146.151
20
-112.765
11
146.151
21
-111.263
0
LINE
8
BLACK
6
CONTINUOUS
10
146.151
20
-111.263
11
147.981
21
-111.263
0
LINE
8
BLACK
6
CONTINUOUS
10
147.981
20
-111.263
11
147.981
21
-112.765
0
LINE
8
BLACK
6
CONTINUOUS
10
141.159
20
-112.407
11
139.257
21
-112.407
0
LINE
8
BLACK
6
CONTINUOUS
10
139.257
20
-112.407
11
139.257
21
-110.605
0
LINE
8
BLACK
6
CONTINUOUS
10
139.257
20
-110.605
11
141.159
21
-110.605
0
LINE
8
BLACK
6
CONTINUOUS
10
141.159
20
-110.605
11
141.159
21
-112.407
0
LINE
8
BLACK
6
CONTINUOUS
10
99.707
20
-110.475
11
97.905
21
-110.475
0
LINE
8
BLACK
6
CONTINUOUS
10
97.905
20
-110.475
11
97.905
21
-108.473
0
LINE
8
BLACK
6
CONTINUOUS
10
97.905
20
-108.473
11
99.707
21
-108.473
0
LINE
8
BLACK
6
CONTINUOUS
10
99.707
20
-108.473
11
99.707
21
-110.475
0
LINE
8
BLACK
6
CONTINUOUS
10
147.981
20
-110.225
11
146.151
21
-110.225
0
LINE
8
BLACK
6
CONTINUOUS
10
146.151
20
-110.225
11
146.151
21
-108.723
0
LINE
8
BLACK
6
CONTINUOUS
10
146.151
20
-108.723
11
147.981
21
-108.723
0
LINE
8
BLACK
6
CONTINUOUS
10
147.981
20
-108.723
11
147.981
21
-110.225
0
LINE
8
BLACK
6
CONTINUOUS
10
141.159
20
-109.867
11
139.257
21
-109.867
0
LINE
8
BLACK
6
CONTINUOUS
10
139.257
20
-109.867
11
139.257
21
-108.065
0
LINE
8
BLACK
6
CONTINUOUS
10
139.257
20
-108.065
11
141.159
21
-108.065
0
LINE
8
BLACK
6
CONTINUOUS
10
141.159
20
-108.065
11
141.159
21
-109.867
0
LINE
8
BLACK
6
CONTINUOUS
10
99.707
20
-107.935
11
97.905
21
-107.935
0
LINE
8
BLACK
6
CONTINUOUS
10
97.905
20
-107.935
11
97.905
21
-105.933
0
LINE
8
BLACK
6
CONTINUOUS
10
97.905
20
-105.933
11
99.707
21
-105.933
0
LINE
8
BLACK
6
CONTINUOUS
10
99.707
20
-105.933
11
99.707
21
-107.935
0
LINE
8
BLACK
6
CONTINUOUS
10
130.441
20
-107.427
11
128.639
21
-107.427
0
LINE
8
BLACK
6
CONTINUOUS
10
128.639
20
-107.427
11
128.639
21
-105.425
0
LINE
8
BLACK
6
CONTINUOUS
10
128.639
20
-105.425
11
130.441
21
-105.425
0
LINE
8
BLACK
6
CONTINUOUS
10
130.441
20
-105.425
11
130.441
21
-107.427
0
LINE
8
BLACK
6
CONTINUOUS
10
120.281
20
-107.427
11
118.479
21
-107.427
0
LINE
8
BLACK
6
CONTINUOUS
10
118.479
20
-107.427
11
118.479
21
-105.425
0
LINE
8
BLACK
6
CONTINUOUS
10
118.479
20
-105.425
11
120.281
21
-105.425
0
LINE
8
BLACK
6
CONTINUOUS
10
120.281
20
-105.425
11
120.281
21
-107.427
0
LINE
8
BLACK
6
CONTINUOUS
10
127.901
20
-107.427
11
126.099
21
-107.427
0
LINE
8
BLACK
6
CONTINUOUS
10
126.099
20
-107.427
11
126.099
21
-105.425
0
LINE
8
BLACK
6
CONTINUOUS
10
126.099
20
-105.425
11
127.901
21
-105.425
0
LINE
8
BLACK
6
CONTINUOUS
10
127.901
20
-105.425
11
127.901
21
-107.427
0
LINE
8
BLACK
6
CONTINUOUS
10
125.361
20
-107.427
11
123.559
21
-107.427
0
LINE
8
BLACK
6
CONTINUOUS
10
123.559
20
-107.427
11
123.559
21
-105.425
0
LINE
8
BLACK
6
CONTINUOUS
10
123.559
20
-105.425
11
125.361
21
-105.425
0
LINE
8
BLACK
6
CONTINUOUS
10
125.361
20
-105.425
11
125.361
21
-107.427
0
LINE
8
BLACK
6
CONTINUOUS
10
122.821
20
-107.427
11
121.019
21
-107.427
0
LINE
8
BLACK
6
CONTINUOUS
10
121.019
20
-107.427
11
121.019
21
-105.425
0
LINE
8
BLACK
6
CONTINUOUS
10
121.019
20
-105.425
11
122.821
21
-105.425
0
LINE
8
BLACK
6
CONTINUOUS
10
122.821
20
-105.425
11
122.821
21
-107.427
0
LINE
8
BLACK
6
CONTINUOUS
10
117.741
20
-107.427
11
115.939
21
-107.427
0
LINE
8
BLACK
6
CONTINUOUS
10
115.939
20
-107.427
11
115.939
21
-105.425
0
LINE
8
BLACK
6
CONTINUOUS
10
115.939
20
-105.425
11
117.741
21
-105.425
0
LINE
8
BLACK
6
CONTINUOUS
10
117.741
20
-105.425
11
117.741
21
-107.427
0
LINE
8
BLACK
6
CONTINUOUS
10
141.159
20
-107.327
11
139.257
21
-107.327
0
LINE
8
BLACK
6
CONTINUOUS
10
139.257
20
-107.327
11
139.257
21
-105.525
0
LINE
8
BLACK
6
CONTINUOUS
10
139.257
20
-105.525
11
141.159
21
-105.525
0
LINE
8
BLACK
6
CONTINUOUS
10
141.159
20
-105.525
11
141.159
21
-107.327
0
LINE
8
BLACK
6
CONTINUOUS
10
99.707
20
-105.395
11
97.905
21
-105.395
0
LINE
8
BLACK
6
CONTINUOUS
10
97.905
20
-105.395
11
97.905
21
-103.393
0
LINE
8
BLACK
6
CONTINUOUS
10
97.905
20
-103.393
11
99.707
21
-103.393
0
LINE
8
BLACK
6
CONTINUOUS
10
99.707
20
-103.393
11
99.707
21
-105.395
0
LINE
8
BLACK
6
CONTINUOUS
10
147.967
20
-105.395
11
146.165
21
-105.395
0
LINE
8
BLACK
6
CONTINUOUS
10
146.165
20
-105.395
11
146.165
21
-103.393
0
LINE
8
BLACK
6
CONTINUOUS
10
146.165
20
-103.393
11
147.967
21
-103.393
0
LINE
8
BLACK
6
CONTINUOUS
10
147.967
20
-103.393
11
147.967
21
-105.395
0
LINE
8
BLACK
6
CONTINUOUS
10
106.028
20
-103.5
11
106.095
21
-103.506
0
LINE
8
BLACK
6
CONTINUOUS
10
106.095
20
-103.506
11
106.264
21
-103.558
0
LINE
8
BLACK
6
CONTINUOUS
10
106.264
20
-103.558
11
106.421
21
-103.641
0
LINE
8
BLACK
6
CONTINUOUS
10
106.421
20
-103.641
11
106.457
21
-103.671
0
LINE
8
BLACK
6
CONTINUOUS
10
106.457
20
-103.671
11
106.558
21
-103.754
0
LINE
8
BLACK
6
CONTINUOUS
10
106.558
20
-103.754
11
106.641
21
-103.855
0
LINE
8
BLACK
6
CONTINUOUS
10
106.641
20
-103.855
11
106.671
21
-103.891
0
LINE
8
BLACK
6
CONTINUOUS
10
106.671
20
-103.891
11
106.754
21
-104.048
0
LINE
8
BLACK
6
CONTINUOUS
10
106.754
20
-104.048
11
106.806
21
-104.217
0
LINE
8
BLACK
6
CONTINUOUS
10
106.806
20
-104.217
11
106.823
21
-104.394
0
LINE
8
BLACK
6
CONTINUOUS
10
106.823
20
-104.394
11
106.806
21
-104.571
0
LINE
8
BLACK
6
CONTINUOUS
10
106.806
20
-104.571
11
106.754
21
-104.74
0
LINE
8
BLACK
6
CONTINUOUS
10
106.754
20
-104.74
11
106.671
21
-104.897
0
LINE
8
BLACK
6
CONTINUOUS
10
106.671
20
-104.897
11
106.641
21
-104.933
0
LINE
8
BLACK
6
CONTINUOUS
10
106.641
20
-104.933
11
106.558
21
-105.034
0
LINE
8
BLACK
6
CONTINUOUS
10
106.558
20
-105.034
11
106.457
21
-105.117
0
LINE
8
BLACK
6
CONTINUOUS
10
106.457
20
-105.117
11
106.421
21
-105.147
0
LINE
8
BLACK
6
CONTINUOUS
10
106.421
20
-105.147
11
106.264
21
-105.23
0
LINE
8
BLACK
6
CONTINUOUS
10
106.264
20
-105.23
11
106.095
21
-105.282
0
LINE
8
BLACK
6
CONTINUOUS
10
106.095
20
-105.282
11
106.028
21
-105.288
0
LINE
8
BLACK
6
CONTINUOUS
10
106.028
20
-105.288
11
105.962
21
-105.295
0
LINE
8
BLACK
6
CONTINUOUS
10
105.962
20
-105.295
11
105.874
21
-105.295
0
LINE
8
BLACK
6
CONTINUOUS
10
105.874
20
-105.295
11
105.808
21
-105.288
0
LINE
8
BLACK
6
CONTINUOUS
10
105.808
20
-105.288
11
105.741
21
-105.282
0
LINE
8
BLACK
6
CONTINUOUS
10
105.741
20
-105.282
11
105.572
21
-105.23
0
LINE
8
BLACK
6
CONTINUOUS
10
105.572
20
-105.23
11
105.415
21
-105.147
0
LINE
8
BLACK
6
CONTINUOUS
10
105.415
20
-105.147
11
105.379
21
-105.117
0
LINE
8
BLACK
6
CONTINUOUS
10
105.379
20
-105.117
11
105.278
21
-105.034
0
LINE
8
BLACK
6
CONTINUOUS
10
105.278
20
-105.034
11
105.195
21
-104.933
0
LINE
8
BLACK
6
CONTINUOUS
10
105.195
20
-104.933
11
105.165
21
-104.897
0
LINE
8
BLACK
6
CONTINUOUS
10
105.165
20
-104.897
11
105.082
21
-104.74
0
LINE
8
BLACK
6
CONTINUOUS
10
105.082
20
-104.74
11
105.03
21
-104.571
0
LINE
8
BLACK
6
CONTINUOUS
10
105.03
20
-104.571
11
105.013
21
-104.394
0
LINE
8
BLACK
6
CONTINUOUS
10
105.013
20
-104.394
11
105.03
21
-104.217
0
LINE
8
BLACK
6
CONTINUOUS
10
105.03
20
-104.217
11
105.082
21
-104.048
0
LINE
8
BLACK
6
CONTINUOUS
10
105.082
20
-104.048
11
105.165
21
-103.891
0
LINE
8
BLACK
6
CONTINUOUS
10
105.165
20
-103.891
11
105.195
21
-103.855
0
LINE
8
BLACK
6
CONTINUOUS
10
105.195
20
-103.855
11
105.278
21
-103.754
0
LINE
8
BLACK
6
CONTINUOUS
10
105.278
20
-103.754
11
105.379
21
-103.671
0
LINE
8
BLACK
6
CONTINUOUS
10
105.379
20
-103.671
11
105.415
21
-103.641
0
LINE
8
BLACK
6
CONTINUOUS
10
105.415
20
-103.641
11
105.572
21
-103.558
0
LINE
8
BLACK
6
CONTINUOUS
10
105.572
20
-103.558
11
105.741
21
-103.506
0
LINE
8
BLACK
6
CONTINUOUS
10
105.741
20
-103.506
11
105.808
21
-103.5
0
LINE
8
BLACK
6
CONTINUOUS
10
105.808
20
-103.5
11
105.874
21
-103.493
0
LINE
8
BLACK
6
CONTINUOUS
10
105.874
20
-103.493
11
105.962
21
-103.493
0
LINE
8
BLACK
6
CONTINUOUS
10
105.962
20
-103.493
11
106.028
21
-103.5
0
LINE
8
BLACK
6
CONTINUOUS
10
108.568
20
-103.5
11
108.635
21
-103.506
0
LINE
8
BLACK
6
CONTINUOUS
10
108.635
20
-103.506
11
108.804
21
-103.558
0
LINE
8
BLACK
6
CONTINUOUS
10
108.804
20
-103.558
11
108.961
21
-103.641
0
LINE
8
BLACK
6
CONTINUOUS
10
108.961
20
-103.641
11
108.997
21
-103.671
0
LINE
8
BLACK
6
CONTINUOUS
10
108.997
20
-103.671
11
109.098
21
-103.754
0
LINE
8
BLACK
6
CONTINUOUS
10
109.098
20
-103.754
11
109.181
21
-103.855
0
LINE
8
BLACK
6
CONTINUOUS
10
109.181
20
-103.855
11
109.211
21
-103.891
0
LINE
8
BLACK
6
CONTINUOUS
10
109.211
20
-103.891
11
109.294
21
-104.048
0
LINE
8
BLACK
6
CONTINUOUS
10
109.294
20
-104.048
11
109.346
21
-104.217
0
LINE
8
BLACK
6
CONTINUOUS
10
109.346
20
-104.217
11
109.363
21
-104.394
0
LINE
8
BLACK
6
CONTINUOUS
10
109.363
20
-104.394
11
109.346
21
-104.571
0
LINE
8
BLACK
6
CONTINUOUS
10
109.346
20
-104.571
11
109.294
21
-104.74
0
LINE
8
BLACK
6
CONTINUOUS
10
109.294
20
-104.74
11
109.211
21
-104.897
0
LINE
8
BLACK
6
CONTINUOUS
10
109.211
20
-104.897
11
109.181
21
-104.933
0
LINE
8
BLACK
6
CONTINUOUS
10
109.181
20
-104.933
11
109.098
21
-105.034
0
LINE
8
BLACK
6
CONTINUOUS
10
109.098
20
-105.034
11
108.997
21
-105.117
0
LINE
8
BLACK
6
CONTINUOUS
10
108.997
20
-105.117
11
108.961
21
-105.147
0
LINE
8
BLACK
6
CONTINUOUS
10
108.961
20
-105.147
11
108.804
21
-105.23
0
LINE
8
BLACK
6
CONTINUOUS
10
108.804
20
-105.23
11
108.635
21
-105.282
0
LINE
8
BLACK
6
CONTINUOUS
10
108.635
20
-105.282
11
108.568
21
-105.288
0
LINE
8
BLACK
6
CONTINUOUS
10
108.568
20
-105.288
11
108.502
21
-105.295
0
LINE
8
BLACK
6
CONTINUOUS
10
108.502
20
-105.295
11
108.414
21
-105.295
0
LINE
8
BLACK
6
CONTINUOUS
10
108.414
20
-105.295
11
108.348
21
-105.288
0
LINE
8
BLACK
6
CONTINUOUS
10
108.348
20
-105.288
11
108.281
21
-105.282
0
LINE
8
BLACK
6
CONTINUOUS
10
108.281
20
-105.282
11
108.112
21
-105.23
0
LINE
8
BLACK
6
CONTINUOUS
10
108.112
20
-105.23
11
107.955
21
-105.147
0
LINE
8
BLACK
6
CONTINUOUS
10
107.955
20
-105.147
11
107.919
21
-105.117
0
LINE
8
BLACK
6
CONTINUOUS
10
107.919
20
-105.117
11
107.818
21
-105.034
0
LINE
8
BLACK
6
CONTINUOUS
10
107.818
20
-105.034
11
107.735
21
-104.933
0
LINE
8
BLACK
6
CONTINUOUS
10
107.735
20
-104.933
11
107.705
21
-104.897
0
LINE
8
BLACK
6
CONTINUOUS
10
107.705
20
-104.897
11
107.622
21
-104.74
0
LINE
8
BLACK
6
CONTINUOUS
10
107.622
20
-104.74
11
107.57
21
-104.571
0
LINE
8
BLACK
6
CONTINUOUS
10
107.57
20
-104.571
11
107.553
21
-104.394
0
LINE
8
BLACK
6
CONTINUOUS
10
107.553
20
-104.394
11
107.57
21
-104.217
0
LINE
8
BLACK
6
CONTINUOUS
10
107.57
20
-104.217
11
107.622
21
-104.048
0
LINE
8
BLACK
6
CONTINUOUS
10
107.622
20
-104.048
11
107.705
21
-103.891
0
LINE
8
BLACK
6
CONTINUOUS
10
107.705
20
-103.891
11
107.735
21
-103.855
0
LINE
8
BLACK
6
CONTINUOUS
10
107.735
20
-103.855
11
107.818
21
-103.754
0
LINE
8
BLACK
6
CONTINUOUS
10
107.818
20
-103.754
11
107.919
21
-103.671
0
LINE
8
BLACK
6
CONTINUOUS
10
107.919
20
-103.671
11
107.955
21
-103.641
0
LINE
8
BLACK
6
CONTINUOUS
10
107.955
20
-103.641
11
108.112
21
-103.558
0
LINE
8
BLACK
6
CONTINUOUS
10
108.112
20
-103.558
11
108.281
21
-103.506
0
LINE
8
BLACK
6
CONTINUOUS
10
108.281
20
-103.506
11
108.348
21
-103.5
0
LINE
8
BLACK
6
CONTINUOUS
10
108.348
20
-103.5
11
108.414
21
-103.493
0
LINE
8
BLACK
6
CONTINUOUS
10
108.414
20
-103.493
11
108.502
21
-103.493
0
LINE
8
BLACK
6
CONTINUOUS
10
108.502
20
-103.493
11
108.568
21
-103.5
0
LINE
8
BLACK
6
CONTINUOUS
10
115.301
20
-104.787
11
113.299
21
-104.787
0
LINE
8
BLACK
6
CONTINUOUS
10
113.299
20
-104.787
11
113.299
21
-102.985
0
LINE
8
BLACK
6
CONTINUOUS
10
113.299
20
-102.985
11
115.301
21
-102.985
0
LINE
8
BLACK
6
CONTINUOUS
10
115.301
20
-102.985
11
115.301
21
-104.787
0
LINE
8
BLACK
6
CONTINUOUS
10
141.159
20
-104.787
11
139.257
21
-104.787
0
LINE
8
BLACK
6
CONTINUOUS
10
139.257
20
-104.787
11
139.257
21
-102.985
0
LINE
8
BLACK
6
CONTINUOUS
10
139.257
20
-102.985
11
141.159
21
-102.985
0
LINE
8
BLACK
6
CONTINUOUS
10
141.159
20
-102.985
11
141.159
21
-104.787
0
LINE
8
BLACK
6
CONTINUOUS
10
99.707
20
-102.855
11
97.905
21
-102.855
0
LINE
8
BLACK
6
CONTINUOUS
10
97.905
20
-102.855
11
97.905
21
-100.853
0
LINE
8
BLACK
6
CONTINUOUS
10
97.905
20
-100.853
11
99.707
21
-100.853
0
LINE
8
BLACK
6
CONTINUOUS
10
99.707
20
-100.853
11
99.707
21
-102.855
0
LINE
8
BLACK
6
CONTINUOUS
10
147.967
20
-102.855
11
146.165
21
-102.855
0
LINE
8
BLACK
6
CONTINUOUS
10
146.165
20
-102.855
11
146.165
21
-100.853
0
LINE
8
BLACK
6
CONTINUOUS
10
146.165
20
-100.853
11
147.967
21
-100.853
0
LINE
8
BLACK
6
CONTINUOUS
10
147.967
20
-100.853
11
147.967
21
-102.855
0
LINE
8
BLACK
6
CONTINUOUS
10
108.568
20
-100.96
11
108.635
21
-100.966
0
LINE
8
BLACK
6
CONTINUOUS
10
108.635
20
-100.966
11
108.804
21
-101.018
0
LINE
8
BLACK
6
CONTINUOUS
10
108.804
20
-101.018
11
108.961
21
-101.101
0
LINE
8
BLACK
6
CONTINUOUS
10
108.961
20
-101.101
11
108.997
21
-101.131
0
LINE
8
BLACK
6
CONTINUOUS
10
108.997
20
-101.131
11
109.098
21
-101.214
0
LINE
8
BLACK
6
CONTINUOUS
10
109.098
20
-101.214
11
109.181
21
-101.315
0
LINE
8
BLACK
6
CONTINUOUS
10
109.181
20
-101.315
11
109.211
21
-101.351
0
LINE
8
BLACK
6
CONTINUOUS
10
109.211
20
-101.351
11
109.294
21
-101.508
0
LINE
8
BLACK
6
CONTINUOUS
10
109.294
20
-101.508
11
109.346
21
-101.677
0
LINE
8
BLACK
6
CONTINUOUS
10
109.346
20
-101.677
11
109.363
21
-101.854
0
LINE
8
BLACK
6
CONTINUOUS
10
109.363
20
-101.854
11
109.346
21
-102.031
0
LINE
8
BLACK
6
CONTINUOUS
10
109.346
20
-102.031
11
109.294
21
-102.2
0
LINE
8
BLACK
6
CONTINUOUS
10
109.294
20
-102.2
11
109.211
21
-102.357
0
LINE
8
BLACK
6
CONTINUOUS
10
109.211
20
-102.357
11
109.181
21
-102.393
0
LINE
8
BLACK
6
CONTINUOUS
10
109.181
20
-102.393
11
109.098
21
-102.494
0
LINE
8
BLACK
6
CONTINUOUS
10
109.098
20
-102.494
11
108.997
21
-102.577
0
LINE
8
BLACK
6
CONTINUOUS
10
108.997
20
-102.577
11
108.961
21
-102.607
0
LINE
8
BLACK
6
CONTINUOUS
10
108.961
20
-102.607
11
108.804
21
-102.69
0
LINE
8
BLACK
6
CONTINUOUS
10
108.804
20
-102.69
11
108.635
21
-102.742
0
LINE
8
BLACK
6
CONTINUOUS
10
108.635
20
-102.742
11
108.568
21
-102.748
0
LINE
8
BLACK
6
CONTINUOUS
10
108.568
20
-102.748
11
108.502
21
-102.755
0
LINE
8
BLACK
6
CONTINUOUS
10
108.502
20
-102.755
11
108.414
21
-102.755
0
LINE
8
BLACK
6
CONTINUOUS
10
108.414
20
-102.755
11
108.348
21
-102.748
0
LINE
8
BLACK
6
CONTINUOUS
10
108.348
20
-102.748
11
108.281
21
-102.742
0
LINE
8
BLACK
6
CONTINUOUS
10
108.281
20
-102.742
11
108.112
21
-102.69
0
LINE
8
BLACK
6
CONTINUOUS
10
108.112
20
-102.69
11
107.955
21
-102.607
0
LINE
8
BLACK
6
CONTINUOUS
10
107.955
20
-102.607
11
107.919
21
-102.577
0
LINE
8
BLACK
6
CONTINUOUS
10
107.919
20
-102.577
11
107.818
21
-102.494
0
LINE
8
BLACK
6
CONTINUOUS
10
107.818
20
-102.494
11
107.735
21
-102.393
0
LINE
8
BLACK
6
CONTINUOUS
10
107.735
20
-102.393
11
107.705
21
-102.357
0
LINE
8
BLACK
6
CONTINUOUS
10
107.705
20
-102.357
11
107.622
21
-102.2
0
LINE
8
BLACK
6
CONTINUOUS
10
107.622
20
-102.2
11
107.57
21
-102.031
0
LINE
8
BLACK
6
CONTINUOUS
10
107.57
20
-102.031
11
107.553
21
-101.854
0
LINE
8
BLACK
6
CONTINUOUS
10
107.553
20
-101.854
11
107.57
21
-101.677
0
LINE
8
BLACK
6
CONTINUOUS
10
107.57
20
-101.677
11
107.622
21
-101.508
0
LINE
8
BLACK
6
CONTINUOUS
10
107.622
20
-101.508
11
107.705
21
-101.351
0
LINE
8
BLACK
6
CONTINUOUS
10
107.705
20
-101.351
11
107.735
21
-101.315
0
LINE
8
BLACK
6
CONTINUOUS
10
107.735
20
-101.315
11
107.818
21
-101.214
0
LINE
8
BLACK
6
CONTINUOUS
10
107.818
20
-101.214
11
107.919
21
-101.131
0
LINE
8
BLACK
6
CONTINUOUS
10
107.919
20
-101.131
11
107.955
21
-101.101
0
LINE
8
BLACK
6
CONTINUOUS
10
107.955
20
-101.101
11
108.112
21
-101.018
0
LINE
8
BLACK
6
CONTINUOUS
10
108.112
20
-101.018
11
108.281
21
-100.966
0
LINE
8
BLACK
6
CONTINUOUS
10
108.281
20
-100.966
11
108.348
21
-100.96
0
LINE
8
BLACK
6
CONTINUOUS
10
108.348
20
-100.96
11
108.414
21
-100.953
0
LINE
8
BLACK
6
CONTINUOUS
10
108.414
20
-100.953
11
108.502
21
-100.953
0
LINE
8
BLACK
6
CONTINUOUS
10
108.502
20
-100.953
11
108.568
21
-100.96
0
LINE
8
BLACK
6
CONTINUOUS
10
106.028
20
-100.96
11
106.095
21
-100.966
0
LINE
8
BLACK
6
CONTINUOUS
10
106.095
20
-100.966
11
106.264
21
-101.018
0
LINE
8
BLACK
6
CONTINUOUS
10
106.264
20
-101.018
11
106.421
21
-101.101
0
LINE
8
BLACK
6
CONTINUOUS
10
106.421
20
-101.101
11
106.457
21
-101.131
0
LINE
8
BLACK
6
CONTINUOUS
10
106.457
20
-101.131
11
106.558
21
-101.214
0
LINE
8
BLACK
6
CONTINUOUS
10
106.558
20
-101.214
11
106.641
21
-101.315
0
LINE
8
BLACK
6
CONTINUOUS
10
106.641
20
-101.315
11
106.671
21
-101.351
0
LINE
8
BLACK
6
CONTINUOUS
10
106.671
20
-101.351
11
106.754
21
-101.508
0
LINE
8
BLACK
6
CONTINUOUS
10
106.754
20
-101.508
11
106.806
21
-101.677
0
LINE
8
BLACK
6
CONTINUOUS
10
106.806
20
-101.677
11
106.823
21
-101.854
0
LINE
8
BLACK
6
CONTINUOUS
10
106.823
20
-101.854
11
106.806
21
-102.031
0
LINE
8
BLACK
6
CONTINUOUS
10
106.806
20
-102.031
11
106.754
21
-102.2
0
LINE
8
BLACK
6
CONTINUOUS
10
106.754
20
-102.2
11
106.671
21
-102.357
0
LINE
8
BLACK
6
CONTINUOUS
10
106.671
20
-102.357
11
106.641
21
-102.393
0
LINE
8
BLACK
6
CONTINUOUS
10
106.641
20
-102.393
11
106.558
21
-102.494
0
LINE
8
BLACK
6
CONTINUOUS
10
106.558
20
-102.494
11
106.457
21
-102.577
0
LINE
8
BLACK
6
CONTINUOUS
10
106.457
20
-102.577
11
106.421
21
-102.607
0
LINE
8
BLACK
6
CONTINUOUS
10
106.421
20
-102.607
11
106.264
21
-102.69
0
LINE
8
BLACK
6
CONTINUOUS
10
106.264
20
-102.69
11
106.095
21
-102.742
0
LINE
8
BLACK
6
CONTINUOUS
10
106.095
20
-102.742
11
106.028
21
-102.748
0
LINE
8
BLACK
6
CONTINUOUS
10
106.028
20
-102.748
11
105.962
21
-102.755
0
LINE
8
BLACK
6
CONTINUOUS
10
105.962
20
-102.755
11
105.874
21
-102.755
0
LINE
8
BLACK
6
CONTINUOUS
10
105.874
20
-102.755
11
105.808
21
-102.748
0
LINE
8
BLACK
6
CONTINUOUS
10
105.808
20
-102.748
11
105.741
21
-102.742
0
LINE
8
BLACK
6
CONTINUOUS
10
105.741
20
-102.742
11
105.572
21
-102.69
0
LINE
8
BLACK
6
CONTINUOUS
10
105.572
20
-102.69
11
105.415
21
-102.607
0
LINE
8
BLACK
6
CONTINUOUS
10
105.415
20
-102.607
11
105.379
21
-102.577
0
LINE
8
BLACK
6
CONTINUOUS
10
105.379
20
-102.577
11
105.278
21
-102.494
0
LINE
8
BLACK
6
CONTINUOUS
10
105.278
20
-102.494
11
105.195
21
-102.393
0
LINE
8
BLACK
6
CONTINUOUS
10
105.195
20
-102.393
11
105.165
21
-102.357
0
LINE
8
BLACK
6
CONTINUOUS
10
105.165
20
-102.357
11
105.082
21
-102.2
0
LINE
8
BLACK
6
CONTINUOUS
10
105.082
20
-102.2
11
105.03
21
-102.031
0
LINE
8
BLACK
6
CONTINUOUS
10
105.03
20
-102.031
11
105.013
21
-101.854
0
LINE
8
BLACK
6
CONTINUOUS
10
105.013
20
-101.854
11
105.03
21
-101.677
0
LINE
8
BLACK
6
CONTINUOUS
10
105.03
20
-101.677
11
105.082
21
-101.508
0
LINE
8
BLACK
6
CONTINUOUS
10
105.082
20
-101.508
11
105.165
21
-101.351
0
LINE
8
BLACK
6
CONTINUOUS
10
105.165
20
-101.351
11
105.195
21
-101.315
0
LINE
8
BLACK
6
CONTINUOUS
10
105.195
20
-101.315
11
105.278
21
-101.214
0
LINE
8
BLACK
6
CONTINUOUS
10
105.278
20
-101.214
11
105.379
21
-101.131
0
LINE
8
BLACK
6
CONTINUOUS
10
105.379
20
-101.131
11
105.415
21
-101.101
0
LINE
8
BLACK
6
CONTINUOUS
10
105.415
20
-101.101
11
105.572
21
-101.018
0
LINE
8
BLACK
6
CONTINUOUS
10
105.572
20
-101.018
11
105.741
21
-100.966
0
LINE
8
BLACK
6
CONTINUOUS
10
105.741
20
-100.966
11
105.808
21
-100.96
0
LINE
8
BLACK
6
CONTINUOUS
10
105.808
20
-100.96
11
105.874
21
-100.953
0
LINE
8
BLACK
6
CONTINUOUS
10
105.874
20
-100.953
11
105.962
21
-100.953
0
LINE
8
BLACK
6
CONTINUOUS
10
105.962
20
-100.953
11
106.028
21
-100.96
0
LINE
8
BLACK
6
CONTINUOUS
10
115.301
20
-102.247
11
113.299
21
-102.247
0
LINE
8
BLACK
6
CONTINUOUS
10
113.299
20
-102.247
11
113.299
21
-100.445
0
LINE
8
BLACK
6
CONTINUOUS
10
113.299
20
-100.445
11
115.301
21
-100.445
0
LINE
8
BLACK
6
CONTINUOUS
10
115.301
20
-100.445
11
115.301
21
-102.247
0
LINE
8
BLACK
6
CONTINUOUS
10
147.967
20
-100.315
11
146.165
21
-100.315
0
LINE
8
BLACK
6
CONTINUOUS
10
146.165
20
-100.315
11
146.165
21
-98.313
0
LINE
8
BLACK
6
CONTINUOUS
10
146.165
20
-98.313
11
147.967
21
-98.313
0
LINE
8
BLACK
6
CONTINUOUS
10
147.967
20
-98.313
11
147.967
21
-100.315
0
LINE
8
BLACK
6
CONTINUOUS
10
99.707
20
-100.315
11
97.905
21
-100.315
0
LINE
8
BLACK
6
CONTINUOUS
10
97.905
20
-100.315
11
97.905
21
-98.313
0
LINE
8
BLACK
6
CONTINUOUS
10
97.905
20
-98.313
11
99.707
21
-98.313
0
LINE
8
BLACK
6
CONTINUOUS
10
99.707
20
-98.313
11
99.707
21
-100.315
0
LINE
8
BLACK
6
CONTINUOUS
10
106.028
20
-98.4195
11
106.095
21
-98.426
0
LINE
8
BLACK
6
CONTINUOUS
10
106.095
20
-98.426
11
106.264
21
-98.4776
0
LINE
8
BLACK
6
CONTINUOUS
10
106.264
20
-98.4776
11
106.421
21
-98.5612
0
LINE
8
BLACK
6
CONTINUOUS
10
106.421
20
-98.5612
11
106.457
21
-98.5906
0
LINE
8
BLACK
6
CONTINUOUS
10
106.457
20
-98.5906
11
106.558
21
-98.6738
0
LINE
8
BLACK
6
CONTINUOUS
10
106.558
20
-98.6738
11
106.641
21
-98.7753
0
LINE
8
BLACK
6
CONTINUOUS
10
106.641
20
-98.7753
11
106.671
21
-98.811
0
LINE
8
BLACK
6
CONTINUOUS
10
106.671
20
-98.811
11
106.754
21
-98.9675
0
LINE
8
BLACK
6
CONTINUOUS
10
106.754
20
-98.9675
11
106.806
21
-99.1374
0
LINE
8
BLACK
6
CONTINUOUS
10
106.806
20
-99.1374
11
106.823
21
-99.314
0
LINE
8
BLACK
6
CONTINUOUS
10
106.823
20
-99.314
11
106.806
21
-99.4906
0
LINE
8
BLACK
6
CONTINUOUS
10
106.806
20
-99.4906
11
106.754
21
-99.6605
0
LINE
8
BLACK
6
CONTINUOUS
10
106.754
20
-99.6605
11
106.671
21
-99.817
0
LINE
8
BLACK
6
CONTINUOUS
10
106.671
20
-99.817
11
106.641
21
-99.8527
0
LINE
8
BLACK
6
CONTINUOUS
10
106.641
20
-99.8527
11
106.558
21
-99.9542
0
LINE
8
BLACK
6
CONTINUOUS
10
106.558
20
-99.9542
11
106.457
21
-100.037
0
LINE
8
BLACK
6
CONTINUOUS
10
106.457
20
-100.037
11
106.421
21
-100.067
0
LINE
8
BLACK
6
CONTINUOUS
10
106.421
20
-100.067
11
106.264
21
-100.15
0
LINE
8
BLACK
6
CONTINUOUS
10
106.264
20
-100.15
11
106.095
21
-100.202
0
LINE
8
BLACK
6
CONTINUOUS
10
106.095
20
-100.202
11
106.028
21
-100.208
0
LINE
8
BLACK
6
CONTINUOUS
10
106.028
20
-100.208
11
105.962
21
-100.215
0
LINE
8
BLACK
6
CONTINUOUS
10
105.962
20
-100.215
11
105.874
21
-100.215
0
LINE
8
BLACK
6
CONTINUOUS
10
105.874
20
-100.215
11
105.808
21
-100.208
0
LINE
8
BLACK
6
CONTINUOUS
10
105.808
20
-100.208
11
105.741
21
-100.202
0
LINE
8
BLACK
6
CONTINUOUS
10
105.741
20
-100.202
11
105.572
21
-100.15
0
LINE
8
BLACK
6
CONTINUOUS
10
105.572
20
-100.15
11
105.415
21
-100.067
0
LINE
8
BLACK
6
CONTINUOUS
10
105.415
20
-100.067
11
105.379
21
-100.037
0
LINE
8
BLACK
6
CONTINUOUS
10
105.379
20
-100.037
11
105.278
21
-99.9542
0
LINE
8
BLACK
6
CONTINUOUS
10
105.278
20
-99.9542
11
105.195
21
-99.8527
0
LINE
8
BLACK
6
CONTINUOUS
10
105.195
20
-99.8527
11
105.165
21
-99.817
0
LINE
8
BLACK
6
CONTINUOUS
10
105.165
20
-99.817
11
105.082
21
-99.6605
0
LINE
8
BLACK
6
CONTINUOUS
10
105.082
20
-99.6605
11
105.03
21
-99.4906
0
LINE
8
BLACK
6
CONTINUOUS
10
105.03
20
-99.4906
11
105.013
21
-99.314
0
LINE
8
BLACK
6
CONTINUOUS
10
105.013
20
-99.314
11
105.03
21
-99.1374
0
LINE
8
BLACK
6
CONTINUOUS
10
105.03
20
-99.1374
11
105.082
21
-98.9675
0
LINE
8
BLACK
6
CONTINUOUS
10
105.082
20
-98.9675
11
105.165
21
-98.811
0
LINE
8
BLACK
6
CONTINUOUS
10
105.165
20
-98.811
11
105.195
21
-98.7753
0
LINE
8
BLACK
6
CONTINUOUS
10
105.195
20
-98.7753
11
105.278
21
-98.6738
0
LINE
8
BLACK
6
CONTINUOUS
10
105.278
20
-98.6738
11
105.379
21
-98.5906
0
LINE
8
BLACK
6
CONTINUOUS
10
105.379
20
-98.5906
11
105.415
21
-98.5612
0
LINE
8
BLACK
6
CONTINUOUS
10
105.415
20
-98.5612
11
105.572
21
-98.4776
0
LINE
8
BLACK
6
CONTINUOUS
10
105.572
20
-98.4776
11
105.741
21
-98.426
0
LINE
8
BLACK
6
CONTINUOUS
10
105.741
20
-98.426
11
105.808
21
-98.4195
0
LINE
8
BLACK
6
CONTINUOUS
10
105.808
20
-98.4195
11
105.874
21
-98.413
0
LINE
8
BLACK
6
CONTINUOUS
10
105.874
20
-98.413
11
105.962
21
-98.413
0
LINE
8
BLACK
6
CONTINUOUS
10
105.962
20
-98.413
11
106.028
21
-98.4195
0
LINE
8
BLACK
6
CONTINUOUS
10
108.568
20
-98.4195
11
108.635
21
-98.426
0
LINE
8
BLACK
6
CONTINUOUS
10
108.635
20
-98.426
11
108.804
21
-98.4776
0
LINE
8
BLACK
6
CONTINUOUS
10
108.804
20
-98.4776
11
108.961
21
-98.5612
0
LINE
8
BLACK
6
CONTINUOUS
10
108.961
20
-98.5612
11
108.997
21
-98.5906
0
LINE
8
BLACK
6
CONTINUOUS
10
108.997
20
-98.5906
11
109.098
21
-98.6738
0
LINE
8
BLACK
6
CONTINUOUS
10
109.098
20
-98.6738
11
109.181
21
-98.7753
0
LINE
8
BLACK
6
CONTINUOUS
10
109.181
20
-98.7753
11
109.211
21
-98.811
0
LINE
8
BLACK
6
CONTINUOUS
10
109.211
20
-98.811
11
109.294
21
-98.9675
0
LINE
8
BLACK
6
CONTINUOUS
10
109.294
20
-98.9675
11
109.346
21
-99.1374
0
LINE
8
BLACK
6
CONTINUOUS
10
109.346
20
-99.1374
11
109.363
21
-99.314
0
LINE
8
BLACK
6
CONTINUOUS
10
109.363
20
-99.314
11
109.346
21
-99.4906
0
LINE
8
BLACK
6
CONTINUOUS
10
109.346
20
-99.4906
11
109.294
21
-99.6605
0
LINE
8
BLACK
6
CONTINUOUS
10
109.294
20
-99.6605
11
109.211
21
-99.817
0
LINE
8
BLACK
6
CONTINUOUS
10
109.211
20
-99.817
11
109.181
21
-99.8527
0
LINE
8
BLACK
6
CONTINUOUS
10
109.181
20
-99.8527
11
109.098
21
-99.9542
0
LINE
8
BLACK
6
CONTINUOUS
10
109.098
20
-99.9542
11
108.997
21
-100.037
0
LINE
8
BLACK
6
CONTINUOUS
10
108.997
20
-100.037
11
108.961
21
-100.067
0
LINE
8
BLACK
6
CONTINUOUS
10
108.961
20
-100.067
11
108.804
21
-100.15
0
LINE
8
BLACK
6
CONTINUOUS
10
108.804
20
-100.15
11
108.635
21
-100.202
0
LINE
8
BLACK
6
CONTINUOUS
10
108.635
20
-100.202
11
108.568
21
-100.208
0
LINE
8
BLACK
6
CONTINUOUS
10
108.568
20
-100.208
11
108.502
21
-100.215
0
LINE
8
BLACK
6
CONTINUOUS
10
108.502
20
-100.215
11
108.414
21
-100.215
0
LINE
8
BLACK
6
CONTINUOUS
10
108.414
20
-100.215
11
108.348
21
-100.208
0
LINE
8
BLACK
6
CONTINUOUS
10
108.348
20
-100.208
11
108.281
21
-100.202
0
LINE
8
BLACK
6
CONTINUOUS
10
108.281
20
-100.202
11
108.112
21
-100.15
0
LINE
8
BLACK
6
CONTINUOUS
10
108.112
20
-100.15
11
107.955
21
-100.067
0
LINE
8
BLACK
6
CONTINUOUS
10
107.955
20
-100.067
11
107.919
21
-100.037
0
LINE
8
BLACK
6
CONTINUOUS
10
107.919
20
-100.037
11
107.818
21
-99.9542
0
LINE
8
BLACK
6
CONTINUOUS
10
107.818
20
-99.9542
11
107.735
21
-99.8527
0
LINE
8
BLACK
6
CONTINUOUS
10
107.735
20
-99.8527
11
107.705
21
-99.817
0
LINE
8
BLACK
6
CONTINUOUS
10
107.705
20
-99.817
11
107.622
21
-99.6605
0
LINE
8
BLACK
6
CONTINUOUS
10
107.622
20
-99.6605
11
107.57
21
-99.4906
0
LINE
8
BLACK
6
CONTINUOUS
10
107.57
20
-99.4906
11
107.553
21
-99.314
0
LINE
8
BLACK
6
CONTINUOUS
10
107.553
20
-99.314
11
107.57
21
-99.1374
0
LINE
8
BLACK
6
CONTINUOUS
10
107.57
20
-99.1374
11
107.622
21
-98.9675
0
LINE
8
BLACK
6
CONTINUOUS
10
107.622
20
-98.9675
11
107.705
21
-98.811
0
LINE
8
BLACK
6
CONTINUOUS
10
107.705
20
-98.811
11
107.735
21
-98.7753
0
LINE
8
BLACK
6
CONTINUOUS
10
107.735
20
-98.7753
11
107.818
21
-98.6738
0
LINE
8
BLACK
6
CONTINUOUS
10
107.818
20
-98.6738
11
107.919
21
-98.5906
0
LINE
8
BLACK
6
CONTINUOUS
10
107.919
20
-98.5906
11
107.955
21
-98.5612
0
LINE
8
BLACK
6
CONTINUOUS
10
107.955
20
-98.5612
11
108.112
21
-98.4776
0
LINE
8
BLACK
6
CONTINUOUS
10
108.112
20
-98.4776
11
108.281
21
-98.426
0
LINE
8
BLACK
6
CONTINUOUS
10
108.281
20
-98.426
11
108.348
21
-98.4195
0
LINE
8
BLACK
6
CONTINUOUS
10
108.348
20
-98.4195
11
108.414
21
-98.413
0
LINE
8
BLACK
6
CONTINUOUS
10
108.414
20
-98.413
11
108.502
21
-98.413
0
LINE
8
BLACK
6
CONTINUOUS
10
108.502
20
-98.413
11
108.568
21
-98.4195
0
LINE
8
BLACK
6
CONTINUOUS
10
143.495
20
-97.929
11
141.493
21
-97.929
0
LINE
8
BLACK
6
CONTINUOUS
10
141.493
20
-97.929
11
141.493
21
-96.127
0
LINE
8
BLACK
6
CONTINUOUS
10
141.493
20
-96.127
11
143.495
21
-96.127
0
LINE
8
BLACK
6
CONTINUOUS
10
143.495
20
-96.127
11
143.495
21
-97.929
0
LINE
8
BLACK
6
CONTINUOUS
10
147.967
20
-97.775
11
146.165
21
-97.775
0
LINE
8
BLACK
6
CONTINUOUS
10
146.165
20
-97.775
11
146.165
21
-95.773
0
LINE
8
BLACK
6
CONTINUOUS
10
146.165
20
-95.773
11
147.967
21
-95.773
0
LINE
8
BLACK
6
CONTINUOUS
10
147.967
20
-95.773
11
147.967
21
-97.775
0
LINE
8
BLACK
6
CONTINUOUS
10
99.707
20
-97.775
11
97.905
21
-97.775
0
LINE
8
BLACK
6
CONTINUOUS
10
97.905
20
-97.775
11
97.905
21
-95.773
0
LINE
8
BLACK
6
CONTINUOUS
10
97.905
20
-95.773
11
99.707
21
-95.773
0
LINE
8
BLACK
6
CONTINUOUS
10
99.707
20
-95.773
11
99.707
21
-97.775
0
LINE
8
BLACK
6
CONTINUOUS
10
106.028
20
-95.8795
11
106.095
21
-95.886
0
LINE
8
BLACK
6
CONTINUOUS
10
106.095
20
-95.886
11
106.264
21
-95.9376
0
LINE
8
BLACK
6
CONTINUOUS
10
106.264
20
-95.9376
11
106.421
21
-96.0212
0
LINE
8
BLACK
6
CONTINUOUS
10
106.421
20
-96.0212
11
106.457
21
-96.0506
0
LINE
8
BLACK
6
CONTINUOUS
10
106.457
20
-96.0506
11
106.558
21
-96.1338
0
LINE
8
BLACK
6
CONTINUOUS
10
106.558
20
-96.1338
11
106.641
21
-96.2353
0
LINE
8
BLACK
6
CONTINUOUS
10
106.641
20
-96.2353
11
106.671
21
-96.271
0
LINE
8
BLACK
6
CONTINUOUS
10
106.671
20
-96.271
11
106.754
21
-96.4275
0
LINE
8
BLACK
6
CONTINUOUS
10
106.754
20
-96.4275
11
106.806
21
-96.5974
0
LINE
8
BLACK
6
CONTINUOUS
10
106.806
20
-96.5974
11
106.823
21
-96.774
0
LINE
8
BLACK
6
CONTINUOUS
10
106.823
20
-96.774
11
106.806
21
-96.9506
0
LINE
8
BLACK
6
CONTINUOUS
10
106.806
20
-96.9506
11
106.754
21
-97.1205
0
LINE
8
BLACK
6
CONTINUOUS
10
106.754
20
-97.1205
11
106.671
21
-97.277
0
LINE
8
BLACK
6
CONTINUOUS
10
106.671
20
-97.277
11
106.641
21
-97.3127
0
LINE
8
BLACK
6
CONTINUOUS
10
106.641
20
-97.3127
11
106.558
21
-97.4142
0
LINE
8
BLACK
6
CONTINUOUS
10
106.558
20
-97.4142
11
106.457
21
-97.4974
0
LINE
8
BLACK
6
CONTINUOUS
10
106.457
20
-97.4974
11
106.421
21
-97.5268
0
LINE
8
BLACK
6
CONTINUOUS
10
106.421
20
-97.5268
11
106.264
21
-97.6104
0
LINE
8
BLACK
6
CONTINUOUS
10
106.264
20
-97.6104
11
106.095
21
-97.662
0
LINE
8
BLACK
6
CONTINUOUS
10
106.095
20
-97.662
11
106.028
21
-97.6685
0
LINE
8
BLACK
6
CONTINUOUS
10
106.028
20
-97.6685
11
105.962
21
-97.675
0
LINE
8
BLACK
6
CONTINUOUS
10
105.962
20
-97.675
11
105.874
21
-97.675
0
LINE
8
BLACK
6
CONTINUOUS
10
105.874
20
-97.675
11
105.808
21
-97.6685
0
LINE
8
BLACK
6
CONTINUOUS
10
105.808
20
-97.6685
11
105.741
21
-97.662
0
LINE
8
BLACK
6
CONTINUOUS
10
105.741
20
-97.662
11
105.572
21
-97.6104
0
LINE
8
BLACK
6
CONTINUOUS
10
105.572
20
-97.6104
11
105.415
21
-97.5268
0
LINE
8
BLACK
6
CONTINUOUS
10
105.415
20
-97.5268
11
105.379
21
-97.4974
0
LINE
8
BLACK
6
CONTINUOUS
10
105.379
20
-97.4974
11
105.278
21
-97.4142
0
LINE
8
BLACK
6
CONTINUOUS
10
105.278
20
-97.4142
11
105.195
21
-97.3127
0
LINE
8
BLACK
6
CONTINUOUS
10
105.195
20
-97.3127
11
105.165
21
-97.277
0
LINE
8
BLACK
6
CONTINUOUS
10
105.165
20
-97.277
11
105.082
21
-97.1205
0
LINE
8
BLACK
6
CONTINUOUS
10
105.082
20
-97.1205
11
105.03
21
-96.9506
0
LINE
8
BLACK
6
CONTINUOUS
10
105.03
20
-96.9506
11
105.013
21
-96.774
0
LINE
8
BLACK
6
CONTINUOUS
10
105.013
20
-96.774
11
105.03
21
-96.5974
0
LINE
8
BLACK
6
CONTINUOUS
10
105.03
20
-96.5974
11
105.082
21
-96.4275
0
LINE
8
BLACK
6
CONTINUOUS
10
105.082
20
-96.4275
11
105.165
21
-96.271
0
LINE
8
BLACK
6
CONTINUOUS
10
105.165
20
-96.271
11
105.195
21
-96.2353
0
LINE
8
BLACK
6
CONTINUOUS
10
105.195
20
-96.2353
11
105.278
21
-96.1338
0
LINE
8
BLACK
6
CONTINUOUS
10
105.278
20
-96.1338
11
105.379
21
-96.0506
0
LINE
8
BLACK
6
CONTINUOUS
10
105.379
20
-96.0506
11
105.415
21
-96.0212
0
LINE
8
BLACK
6
CONTINUOUS
10
105.415
20
-96.0212
11
105.572
21
-95.9376
0
LINE
8
BLACK
6
CONTINUOUS
10
105.572
20
-95.9376
11
105.741
21
-95.886
0
LINE
8
BLACK
6
CONTINUOUS
10
105.741
20
-95.886
11
105.808
21
-95.8795
0
LINE
8
BLACK
6
CONTINUOUS
10
105.808
20
-95.8795
11
105.874
21
-95.873
0
LINE
8
BLACK
6
CONTINUOUS
10
105.874
20
-95.873
11
105.962
21
-95.873
0
LINE
8
BLACK
6
CONTINUOUS
10
105.962
20
-95.873
11
106.028
21
-95.8795
0
LINE
8
BLACK
6
CONTINUOUS
10
108.568
20
-95.8795
11
108.635
21
-95.886
0
LINE
8
BLACK
6
CONTINUOUS
10
108.635
20
-95.886
11
108.804
21
-95.9376
0
LINE
8
BLACK
6
CONTINUOUS
10
108.804
20
-95.9376
11
108.961
21
-96.0212
0
LINE
8
BLACK
6
CONTINUOUS
10
108.961
20
-96.0212
11
108.997
21
-96.0506
0
LINE
8
BLACK
6
CONTINUOUS
10
108.997
20
-96.0506
11
109.098
21
-96.1338
0
LINE
8
BLACK
6
CONTINUOUS
10
109.098
20
-96.1338
11
109.181
21
-96.2353
0
LINE
8
BLACK
6
CONTINUOUS
10
109.181
20
-96.2353
11
109.211
21
-96.271
0
LINE
8
BLACK
6
CONTINUOUS
10
109.211
20
-96.271
11
109.294
21
-96.4275
0
LINE
8
BLACK
6
CONTINUOUS
10
109.294
20
-96.4275
11
109.346
21
-96.5974
0
LINE
8
BLACK
6
CONTINUOUS
10
109.346
20
-96.5974
11
109.363
21
-96.774
0
LINE
8
BLACK
6
CONTINUOUS
10
109.363
20
-96.774
11
109.346
21
-96.9506
0
LINE
8
BLACK
6
CONTINUOUS
10
109.346
20
-96.9506
11
109.294
21
-97.1205
0
LINE
8
BLACK
6
CONTINUOUS
10
109.294
20
-97.1205
11
109.211
21
-97.277
0
LINE
8
BLACK
6
CONTINUOUS
10
109.211
20
-97.277
11
109.181
21
-97.3127
0
LINE
8
BLACK
6
CONTINUOUS
10
109.181
20
-97.3127
11
109.098
21
-97.4142
0
LINE
8
BLACK
6
CONTINUOUS
10
109.098
20
-97.4142
11
108.997
21
-97.4974
0
LINE
8
BLACK
6
CONTINUOUS
10
108.997
20
-97.4974
11
108.961
21
-97.5268
0
LINE
8
BLACK
6
CONTINUOUS
10
108.961
20
-97.5268
11
108.804
21
-97.6104
0
LINE
8
BLACK
6
CONTINUOUS
10
108.804
20
-97.6104
11
108.635
21
-97.662
0
LINE
8
BLACK
6
CONTINUOUS
10
108.635
20
-97.662
11
108.568
21
-97.6685
0
LINE
8
BLACK
6
CONTINUOUS
10
108.568
20
-97.6685
11
108.502
21
-97.675
0
LINE
8
BLACK
6
CONTINUOUS
10
108.502
20
-97.675
11
108.414
21
-97.675
0
LINE
8
BLACK
6
CONTINUOUS
10
108.414
20
-97.675
11
108.348
21
-97.6685
0
LINE
8
BLACK
6
CONTINUOUS
10
108.348
20
-97.6685
11
108.281
21
-97.662
0
LINE
8
BLACK
6
CONTINUOUS
10
108.281
20
-97.662
11
108.112
21
-97.6104
0
LINE
8
BLACK
6
CONTINUOUS
10
108.112
20
-97.6104
11
107.955
21
-97.5268
0
LINE
8
BLACK
6
CONTINUOUS
10
107.955
20
-97.5268
11
107.919
21
-97.4974
0
LINE
8
BLACK
6
CONTINUOUS
10
107.919
20
-97.4974
11
107.818
21
-97.4142
0
LINE
8
BLACK
6
CONTINUOUS
10
107.818
20
-97.4142
11
107.735
21
-97.3127
0
LINE
8
BLACK
6
CONTINUOUS
10
107.735
20
-97.3127
11
107.705
21
-97.277
0
LINE
8
BLACK
6
CONTINUOUS
10
107.705
20
-97.277
11
107.622
21
-97.1205
0
LINE
8
BLACK
6
CONTINUOUS
10
107.622
20
-97.1205
11
107.57
21
-96.9506
0
LINE
8
BLACK
6
CONTINUOUS
10
107.57
20
-96.9506
11
107.553
21
-96.774
0
LINE
8
BLACK
6
CONTINUOUS
10
107.553
20
-96.774
11
107.57
21
-96.5974
0
LINE
8
BLACK
6
CONTINUOUS
10
107.57
20
-96.5974
11
107.622
21
-96.4275
0
LINE
8
BLACK
6
CONTINUOUS
10
107.622
20
-96.4275
11
107.705
21
-96.271
0
LINE
8
BLACK
6
CONTINUOUS
10
107.705
20
-96.271
11
107.735
21
-96.2353
0
LINE
8
BLACK
6
CONTINUOUS
10
107.735
20
-96.2353
11
107.818
21
-96.1338
0
LINE
8
BLACK
6
CONTINUOUS
10
107.818
20
-96.1338
11
107.919
21
-96.0506
0
LINE
8
BLACK
6
CONTINUOUS
10
107.919
20
-96.0506
11
107.955
21
-96.0212
0
LINE
8
BLACK
6
CONTINUOUS
10
107.955
20
-96.0212
11
108.112
21
-95.9376
0
LINE
8
BLACK
6
CONTINUOUS
10
108.112
20
-95.9376
11
108.281
21
-95.886
0
LINE
8
BLACK
6
CONTINUOUS
10
108.281
20
-95.886
11
108.348
21
-95.8795
0
LINE
8
BLACK
6
CONTINUOUS
10
108.348
20
-95.8795
11
108.414
21
-95.873
0
LINE
8
BLACK
6
CONTINUOUS
10
108.414
20
-95.873
11
108.502
21
-95.873
0
LINE
8
BLACK
6
CONTINUOUS
10
108.502
20
-95.873
11
108.568
21
-95.8795
0
LINE
8
BLACK
6
CONTINUOUS
10
143.495
20
-95.389
11
141.493
21
-95.389
0
LINE
8
BLACK
6
CONTINUOUS
10
141.493
20
-95.389
11
141.493
21
-93.587
0
LINE
8
BLACK
6
CONTINUOUS
10
141.493
20
-93.587
11
143.495
21
-93.587
0
LINE
8
BLACK
6
CONTINUOUS
10
143.495
20
-93.587
11
143.495
21
-95.389
0
LINE
8
BLACK
6
CONTINUOUS
10
99.707
20
-95.235
11
97.905
21
-95.235
0
LINE
8
BLACK
6
CONTINUOUS
10
97.905
20
-95.235
11
97.905
21
-93.233
0
LINE
8
BLACK
6
CONTINUOUS
10
97.905
20
-93.233
11
99.707
21
-93.233
0
LINE
8
BLACK
6
CONTINUOUS
10
99.707
20
-93.233
11
99.707
21
-95.235
0
LINE
8
BLACK
6
CONTINUOUS
10
147.967
20
-95.235
11
146.165
21
-95.235
0
LINE
8
BLACK
6
CONTINUOUS
10
146.165
20
-95.235
11
146.165
21
-93.233
0
LINE
8
BLACK
6
CONTINUOUS
10
146.165
20
-93.233
11
147.967
21
-93.233
0
LINE
8
BLACK
6
CONTINUOUS
10
147.967
20
-93.233
11
147.967
21
-95.235
0
LINE
8
BLACK
6
CONTINUOUS
10
108.568
20
-93.3395
11
108.635
21
-93.346
0
LINE
8
BLACK
6
CONTINUOUS
10
108.635
20
-93.346
11
108.804
21
-93.3976
0
LINE
8
BLACK
6
CONTINUOUS
10
108.804
20
-93.3976
11
108.961
21
-93.4812
0
LINE
8
BLACK
6
CONTINUOUS
10
108.961
20
-93.4812
11
108.997
21
-93.5106
0
LINE
8
BLACK
6
CONTINUOUS
10
108.997
20
-93.5106
11
109.098
21
-93.5938
0
LINE
8
BLACK
6
CONTINUOUS
10
109.098
20
-93.5938
11
109.181
21
-93.6953
0
LINE
8
BLACK
6
CONTINUOUS
10
109.181
20
-93.6953
11
109.211
21
-93.731
0
LINE
8
BLACK
6
CONTINUOUS
10
109.211
20
-93.731
11
109.294
21
-93.8875
0
LINE
8
BLACK
6
CONTINUOUS
10
109.294
20
-93.8875
11
109.346
21
-94.0574
0
LINE
8
BLACK
6
CONTINUOUS
10
109.346
20
-94.0574
11
109.363
21
-94.234
0
LINE
8
BLACK
6
CONTINUOUS
10
109.363
20
-94.234
11
109.346
21
-94.4106
0
LINE
8
BLACK
6
CONTINUOUS
10
109.346
20
-94.4106
11
109.294
21
-94.5805
0
LINE
8
BLACK
6
CONTINUOUS
10
109.294
20
-94.5805
11
109.211
21
-94.737
0
LINE
8
BLACK
6
CONTINUOUS
10
109.211
20
-94.737
11
109.181
21
-94.7727
0
LINE
8
BLACK
6
CONTINUOUS
10
109.181
20
-94.7727
11
109.098
21
-94.8742
0
LINE
8
BLACK
6
CONTINUOUS
10
109.098
20
-94.8742
11
108.997
21
-94.9574
0
LINE
8
BLACK
6
CONTINUOUS
10
108.997
20
-94.9574
11
108.961
21
-94.9868
0
LINE
8
BLACK
6
CONTINUOUS
10
108.961
20
-94.9868
11
108.804
21
-95.0704
0
LINE
8
BLACK
6
CONTINUOUS
10
108.804
20
-95.0704
11
108.635
21
-95.122
0
LINE
8
BLACK
6
CONTINUOUS
10
108.635
20
-95.122
11
108.568
21
-95.1285
0
LINE
8
BLACK
6
CONTINUOUS
10
108.568
20
-95.1285
11
108.502
21
-95.135
0
LINE
8
BLACK
6
CONTINUOUS
10
108.502
20
-95.135
11
108.414
21
-95.135
0
LINE
8
BLACK
6
CONTINUOUS
10
108.414
20
-95.135
11
108.348
21
-95.1285
0
LINE
8
BLACK
6
CONTINUOUS
10
108.348
20
-95.1285
11
108.281
21
-95.122
0
LINE
8
BLACK
6
CONTINUOUS
10
108.281
20
-95.122
11
108.112
21
-95.0704
0
LINE
8
BLACK
6
CONTINUOUS
10
108.112
20
-95.0704
11
107.955
21
-94.9868
0
LINE
8
BLACK
6
CONTINUOUS
10
107.955
20
-94.9868
11
107.919
21
-94.9574
0
LINE
8
BLACK
6
CONTINUOUS
10
107.919
20
-94.9574
11
107.818
21
-94.8742
0
LINE
8
BLACK
6
CONTINUOUS
10
107.818
20
-94.8742
11
107.735
21
-94.7727
0
LINE
8
BLACK
6
CONTINUOUS
10
107.735
20
-94.7727
11
107.705
21
-94.737
0
LINE
8
BLACK
6
CONTINUOUS
10
107.705
20
-94.737
11
107.622
21
-94.5805
0
LINE
8
BLACK
6
CONTINUOUS
10
107.622
20
-94.5805
11
107.57
21
-94.4106
0
LINE
8
BLACK
6
CONTINUOUS
10
107.57
20
-94.4106
11
107.553
21
-94.234
0
LINE
8
BLACK
6
CONTINUOUS
10
107.553
20
-94.234
11
107.57
21
-94.0574
0
LINE
8
BLACK
6
CONTINUOUS
10
107.57
20
-94.0574
11
107.622
21
-93.8875
0
LINE
8
BLACK
6
CONTINUOUS
10
107.622
20
-93.8875
11
107.705
21
-93.731
0
LINE
8
BLACK
6
CONTINUOUS
10
107.705
20
-93.731
11
107.735
21
-93.6953
0
LINE
8
BLACK
6
CONTINUOUS
10
107.735
20
-93.6953
11
107.818
21
-93.5938
0
LINE
8
BLACK
6
CONTINUOUS
10
107.818
20
-93.5938
11
107.919
21
-93.5106
0
LINE
8
BLACK
6
CONTINUOUS
10
107.919
20
-93.5106
11
107.955
21
-93.4812
0
LINE
8
BLACK
6
CONTINUOUS
10
107.955
20
-93.4812
11
108.112
21
-93.3976
0
LINE
8
BLACK
6
CONTINUOUS
10
108.112
20
-93.3976
11
108.281
21
-93.346
0
LINE
8
BLACK
6
CONTINUOUS
10
108.281
20
-93.346
11
108.348
21
-93.3395
0
LINE
8
BLACK
6
CONTINUOUS
10
108.348
20
-93.3395
11
108.414
21
-93.333
0
LINE
8
BLACK
6
CONTINUOUS
10
108.414
20
-93.333
11
108.502
21
-93.333
0
LINE
8
BLACK
6
CONTINUOUS
10
108.502
20
-93.333
11
108.568
21
-93.3395
0
LINE
8
BLACK
6
CONTINUOUS
10
106.819
20
-95.135
11
105.017
21
-95.135
0
LINE
8
BLACK
6
CONTINUOUS
10
105.017
20
-95.135
11
105.017
21
-93.333
0
LINE
8
BLACK
6
CONTINUOUS
10
105.017
20
-93.333
11
106.819
21
-93.333
0
LINE
8
BLACK
6
CONTINUOUS
10
106.819
20
-93.333
11
106.819
21
-95.135
0
LINE
8
BLACK
6
CONTINUOUS
10
143.495
20
-92.849
11
141.493
21
-92.849
0
LINE
8
BLACK
6
CONTINUOUS
10
141.493
20
-92.849
11
141.493
21
-91.047
0
LINE
8
BLACK
6
CONTINUOUS
10
141.493
20
-91.047
11
143.495
21
-91.047
0
LINE
8
BLACK
6
CONTINUOUS
10
143.495
20
-91.047
11
143.495
21
-92.849
0
LINE
8
BLACK
6
CONTINUOUS
10
147.967
20
-92.695
11
146.165
21
-92.695
0
LINE
8
BLACK
6
CONTINUOUS
10
146.165
20
-92.695
11
146.165
21
-90.693
0
LINE
8
BLACK
6
CONTINUOUS
10
146.165
20
-90.693
11
147.967
21
-90.693
0
LINE
8
BLACK
6
CONTINUOUS
10
147.967
20
-90.693
11
147.967
21
-92.695
0
LINE
8
BLACK
6
CONTINUOUS
10
99.707
20
-92.695
11
97.905
21
-92.695
0
LINE
8
BLACK
6
CONTINUOUS
10
97.905
20
-92.695
11
97.905
21
-90.693
0
LINE
8
BLACK
6
CONTINUOUS
10
97.905
20
-90.693
11
99.707
21
-90.693
0
LINE
8
BLACK
6
CONTINUOUS
10
99.707
20
-90.693
11
99.707
21
-92.695
0
LINE
8
BLACK
6
CONTINUOUS
10
143.495
20
-90.309
11
141.493
21
-90.309
0
LINE
8
BLACK
6
CONTINUOUS
10
141.493
20
-90.309
11
141.493
21
-88.507
0
LINE
8
BLACK
6
CONTINUOUS
10
141.493
20
-88.507
11
143.495
21
-88.507
0
LINE
8
BLACK
6
CONTINUOUS
10
143.495
20
-88.507
11
143.495
21
-90.309
0
LINE
8
BLACK
6
CONTINUOUS
10
147.967
20
-90.155
11
146.165
21
-90.155
0
LINE
8
BLACK
6
CONTINUOUS
10
146.165
20
-90.155
11
146.165
21
-88.153
0
LINE
8
BLACK
6
CONTINUOUS
10
146.165
20
-88.153
11
147.967
21
-88.153
0
LINE
8
BLACK
6
CONTINUOUS
10
147.967
20
-88.153
11
147.967
21
-90.155
0
LINE
8
BLACK
6
CONTINUOUS
10
147.967
20
-87.615
11
146.165
21
-87.615
0
LINE
8
BLACK
6
CONTINUOUS
10
146.165
20
-87.615
11
146.165
21
-85.613
0
LINE
8
BLACK
6
CONTINUOUS
10
146.165
20
-85.613
11
147.967
21
-85.613
0
LINE
8
BLACK
6
CONTINUOUS
10
147.967
20
-85.613
11
147.967
21
-87.615
0
LINE
8
BLACK
6
CONTINUOUS
10
98.9853
20
-85.7126
11
99.1577
21
-85.7649
0
LINE
8
BLACK
6
CONTINUOUS
10
99.1577
20
-85.7649
11
99.3166
21
-85.8499
0
LINE
8
BLACK
6
CONTINUOUS
10
99.3166
20
-85.8499
11
99.4558
21
-85.9642
0
LINE
8
BLACK
6
CONTINUOUS
10
99.4558
20
-85.9642
11
99.5701
21
-86.1034
0
LINE
8
BLACK
6
CONTINUOUS
10
99.5701
20
-86.1034
11
99.6551
21
-86.2623
0
LINE
8
BLACK
6
CONTINUOUS
10
99.6551
20
-86.2623
11
99.7074
21
-86.4347
0
LINE
8
BLACK
6
CONTINUOUS
10
99.7074
20
-86.4347
11
99.725
21
-86.614
0
LINE
8
BLACK
6
CONTINUOUS
10
99.725
20
-86.614
11
99.7074
21
-86.7933
0
LINE
8
BLACK
6
CONTINUOUS
10
99.7074
20
-86.7933
11
99.6551
21
-86.9657
0
LINE
8
BLACK
6
CONTINUOUS
10
99.6551
20
-86.9657
11
99.5701
21
-87.1246
0
LINE
8
BLACK
6
CONTINUOUS
10
99.5701
20
-87.1246
11
99.4558
21
-87.2638
0
LINE
8
BLACK
6
CONTINUOUS
10
99.4558
20
-87.2638
11
99.3166
21
-87.3781
0
LINE
8
BLACK
6
CONTINUOUS
10
99.3166
20
-87.3781
11
99.1577
21
-87.4631
0
LINE
8
BLACK
6
CONTINUOUS
10
99.1577
20
-87.4631
11
98.9853
21
-87.5154
0
LINE
8
BLACK
6
CONTINUOUS
10
98.9853
20
-87.5154
11
98.8509
21
-87.5286
0
LINE
8
BLACK
6
CONTINUOUS
10
98.8509
20
-87.5286
11
98.7611
21
-87.5286
0
LINE
8
BLACK
6
CONTINUOUS
10
98.7611
20
-87.5286
11
98.6267
21
-87.5154
0
LINE
8
BLACK
6
CONTINUOUS
10
98.6267
20
-87.5154
11
98.4543
21
-87.4631
0
LINE
8
BLACK
6
CONTINUOUS
10
98.4543
20
-87.4631
11
98.2954
21
-87.3781
0
LINE
8
BLACK
6
CONTINUOUS
10
98.2954
20
-87.3781
11
98.1562
21
-87.2638
0
LINE
8
BLACK
6
CONTINUOUS
10
98.1562
20
-87.2638
11
98.0419
21
-87.1246
0
LINE
8
BLACK
6
CONTINUOUS
10
98.0419
20
-87.1246
11
97.9569
21
-86.9657
0
LINE
8
BLACK
6
CONTINUOUS
10
97.9569
20
-86.9657
11
97.9046
21
-86.7933
0
LINE
8
BLACK
6
CONTINUOUS
10
97.9046
20
-86.7933
11
97.887
21
-86.614
0
LINE
8
BLACK
6
CONTINUOUS
10
97.887
20
-86.614
11
97.9046
21
-86.4347
0
LINE
8
BLACK
6
CONTINUOUS
10
97.9046
20
-86.4347
11
97.9569
21
-86.2623
0
LINE
8
BLACK
6
CONTINUOUS
10
97.9569
20
-86.2623
11
98.0419
21
-86.1034
0
LINE
8
BLACK
6
CONTINUOUS
10
98.0419
20
-86.1034
11
98.1562
21
-85.9642
0
LINE
8
BLACK
6
CONTINUOUS
10
98.1562
20
-85.9642
11
98.2954
21
-85.8499
0
LINE
8
BLACK
6
CONTINUOUS
10
98.2954
20
-85.8499
11
98.4543
21
-85.7649
0
LINE
8
BLACK
6
CONTINUOUS
10
98.4543
20
-85.7649
11
98.6267
21
-85.7126
0
LINE
8
BLACK
6
CONTINUOUS
10
98.6267
20
-85.7126
11
98.7611
21
-85.6994
0
LINE
8
BLACK
6
CONTINUOUS
10
98.7611
20
-85.6994
11
98.8509
21
-85.6994
0
LINE
8
BLACK
6
CONTINUOUS
10
98.8509
20
-85.6994
11
98.9853
21
-85.7126
0
LINE
8
BLACK
6
CONTINUOUS
10
123.937
20
-86.499
11
121.935
21
-86.499
0
LINE
8
BLACK
6
CONTINUOUS
10
121.935
20
-86.499
11
121.935
21
-84.697
0
LINE
8
BLACK
6
CONTINUOUS
10
121.935
20
-84.697
11
123.937
21
-84.697
0
LINE
8
BLACK
6
CONTINUOUS
10
123.937
20
-84.697
11
123.937
21
-86.499
0
LINE
8
BLACK
6
CONTINUOUS
10
143.495
20
-85.991
11
141.493
21
-85.991
0
LINE
8
BLACK
6
CONTINUOUS
10
141.493
20
-85.991
11
141.493
21
-84.189
0
LINE
8
BLACK
6
CONTINUOUS
10
141.493
20
-84.189
11
143.495
21
-84.189
0
LINE
8
BLACK
6
CONTINUOUS
10
143.495
20
-84.189
11
143.495
21
-85.991
0
LINE
8
BLACK
6
CONTINUOUS
10
98.9853
20
-83.1726
11
99.1577
21
-83.2249
0
LINE
8
BLACK
6
CONTINUOUS
10
99.1577
20
-83.2249
11
99.3166
21
-83.3099
0
LINE
8
BLACK
6
CONTINUOUS
10
99.3166
20
-83.3099
11
99.4558
21
-83.4242
0
LINE
8
BLACK
6
CONTINUOUS
10
99.4558
20
-83.4242
11
99.5701
21
-83.5634
0
LINE
8
BLACK
6
CONTINUOUS
10
99.5701
20
-83.5634
11
99.6551
21
-83.7223
0
LINE
8
BLACK
6
CONTINUOUS
10
99.6551
20
-83.7223
11
99.7074
21
-83.8947
0
LINE
8
BLACK
6
CONTINUOUS
10
99.7074
20
-83.8947
11
99.725
21
-84.074
0
LINE
8
BLACK
6
CONTINUOUS
10
99.725
20
-84.074
11
99.7074
21
-84.2533
0
LINE
8
BLACK
6
CONTINUOUS
10
99.7074
20
-84.2533
11
99.6551
21
-84.4257
0
LINE
8
BLACK
6
CONTINUOUS
10
99.6551
20
-84.4257
11
99.5701
21
-84.5846
0
LINE
8
BLACK
6
CONTINUOUS
10
99.5701
20
-84.5846
11
99.4558
21
-84.7238
0
LINE
8
BLACK
6
CONTINUOUS
10
99.4558
20
-84.7238
11
99.3166
21
-84.8381
0
LINE
8
BLACK
6
CONTINUOUS
10
99.3166
20
-84.8381
11
99.1577
21
-84.9231
0
LINE
8
BLACK
6
CONTINUOUS
10
99.1577
20
-84.9231
11
98.9853
21
-84.9754
0
LINE
8
BLACK
6
CONTINUOUS
10
98.9853
20
-84.9754
11
98.8509
21
-84.9886
0
LINE
8
BLACK
6
CONTINUOUS
10
98.8509
20
-84.9886
11
98.7611
21
-84.9886
0
LINE
8
BLACK
6
CONTINUOUS
10
98.7611
20
-84.9886
11
98.6267
21
-84.9754
0
LINE
8
BLACK
6
CONTINUOUS
10
98.6267
20
-84.9754
11
98.4543
21
-84.9231
0
LINE
8
BLACK
6
CONTINUOUS
10
98.4543
20
-84.9231
11
98.2954
21
-84.8381
0
LINE
8
BLACK
6
CONTINUOUS
10
98.2954
20
-84.8381
11
98.1562
21
-84.7238
0
LINE
8
BLACK
6
CONTINUOUS
10
98.1562
20
-84.7238
11
98.0419
21
-84.5846
0
LINE
8
BLACK
6
CONTINUOUS
10
98.0419
20
-84.5846
11
97.9569
21
-84.4257
0
LINE
8
BLACK
6
CONTINUOUS
10
97.9569
20
-84.4257
11
97.9046
21
-84.2533
0
LINE
8
BLACK
6
CONTINUOUS
10
97.9046
20
-84.2533
11
97.887
21
-84.074
0
LINE
8
BLACK
6
CONTINUOUS
10
97.887
20
-84.074
11
97.9046
21
-83.8947
0
LINE
8
BLACK
6
CONTINUOUS
10
97.9046
20
-83.8947
11
97.9569
21
-83.7223
0
LINE
8
BLACK
6
CONTINUOUS
10
97.9569
20
-83.7223
11
98.0419
21
-83.5634
0
LINE
8
BLACK
6
CONTINUOUS
10
98.0419
20
-83.5634
11
98.1562
21
-83.4242
0
LINE
8
BLACK
6
CONTINUOUS
10
98.1562
20
-83.4242
11
98.2954
21
-83.3099
0
LINE
8
BLACK
6
CONTINUOUS
10
98.2954
20
-83.3099
11
98.4543
21
-83.2249
0
LINE
8
BLACK
6
CONTINUOUS
10
98.4543
20
-83.2249
11
98.6267
21
-83.1726
0
LINE
8
BLACK
6
CONTINUOUS
10
98.6267
20
-83.1726
11
98.7611
21
-83.1594
0
LINE
8
BLACK
6
CONTINUOUS
10
98.7611
20
-83.1594
11
98.8509
21
-83.1594
0
LINE
8
BLACK
6
CONTINUOUS
10
98.8509
20
-83.1594
11
98.9853
21
-83.1726
0
LINE
8
BLACK
6
CONTINUOUS
10
123.937
20
-83.959
11
121.935
21
-83.959
0
LINE
8
BLACK
6
CONTINUOUS
10
121.935
20
-83.959
11
121.935
21
-82.157
0
LINE
8
BLACK
6
CONTINUOUS
10
121.935
20
-82.157
11
123.937
21
-82.157
0
LINE
8
BLACK
6
CONTINUOUS
10
123.937
20
-82.157
11
123.937
21
-83.959
0
LINE
8
BLACK
6
CONTINUOUS
10
147.967
20
-83.551
11
146.165
21
-83.551
0
LINE
8
BLACK
6
CONTINUOUS
10
146.165
20
-83.551
11
146.165
21
-81.549
0
LINE
8
BLACK
6
CONTINUOUS
10
146.165
20
-81.549
11
147.967
21
-81.549
0
LINE
8
BLACK
6
CONTINUOUS
10
147.967
20
-81.549
11
147.967
21
-83.551
0
LINE
8
BLACK
6
CONTINUOUS
10
143.495
20
-83.451
11
141.493
21
-83.451
0
LINE
8
BLACK
6
CONTINUOUS
10
141.493
20
-83.451
11
141.493
21
-81.649
0
LINE
8
BLACK
6
CONTINUOUS
10
141.493
20
-81.649
11
143.495
21
-81.649
0
LINE
8
BLACK
6
CONTINUOUS
10
143.495
20
-81.649
11
143.495
21
-83.451
0
LINE
8
BLACK
6
CONTINUOUS
10
98.9853
20
-80.6326
11
99.1577
21
-80.6849
0
LINE
8
BLACK
6
CONTINUOUS
10
99.1577
20
-80.6849
11
99.3166
21
-80.7699
0
LINE
8
BLACK
6
CONTINUOUS
10
99.3166
20
-80.7699
11
99.4558
21
-80.8842
0
LINE
8
BLACK
6
CONTINUOUS
10
99.4558
20
-80.8842
11
99.5701
21
-81.0234
0
LINE
8
BLACK
6
CONTINUOUS
10
99.5701
20
-81.0234
11
99.6551
21
-81.1823
0
LINE
8
BLACK
6
CONTINUOUS
10
99.6551
20
-81.1823
11
99.7074
21
-81.3547
0
LINE
8
BLACK
6
CONTINUOUS
10
99.7074
20
-81.3547
11
99.725
21
-81.534
0
LINE
8
BLACK
6
CONTINUOUS
10
99.725
20
-81.534
11
99.7074
21
-81.7133
0
LINE
8
BLACK
6
CONTINUOUS
10
99.7074
20
-81.7133
11
99.6551
21
-81.8857
0
LINE
8
BLACK
6
CONTINUOUS
10
99.6551
20
-81.8857
11
99.5701
21
-82.0446
0
LINE
8
BLACK
6
CONTINUOUS
10
99.5701
20
-82.0446
11
99.4558
21
-82.1838
0
LINE
8
BLACK
6
CONTINUOUS
10
99.4558
20
-82.1838
11
99.3166
21
-82.2981
0
LINE
8
BLACK
6
CONTINUOUS
10
99.3166
20
-82.2981
11
99.1577
21
-82.3831
0
LINE
8
BLACK
6
CONTINUOUS
10
99.1577
20
-82.3831
11
98.9853
21
-82.4354
0
LINE
8
BLACK
6
CONTINUOUS
10
98.9853
20
-82.4354
11
98.8509
21
-82.4486
0
LINE
8
BLACK
6
CONTINUOUS
10
98.8509
20
-82.4486
11
98.7611
21
-82.4486
0
LINE
8
BLACK
6
CONTINUOUS
10
98.7611
20
-82.4486
11
98.6267
21
-82.4354
0
LINE
8
BLACK
6
CONTINUOUS
10
98.6267
20
-82.4354
11
98.4543
21
-82.3831
0
LINE
8
BLACK
6
CONTINUOUS
10
98.4543
20
-82.3831
11
98.2954
21
-82.2981
0
LINE
8
BLACK
6
CONTINUOUS
10
98.2954
20
-82.2981
11
98.1562
21
-82.1838
0
LINE
8
BLACK
6
CONTINUOUS
10
98.1562
20
-82.1838
11
98.0419
21
-82.0446
0
LINE
8
BLACK
6
CONTINUOUS
10
98.0419
20
-82.0446
11
97.9569
21
-81.8857
0
LINE
8
BLACK
6
CONTINUOUS
10
97.9569
20
-81.8857
11
97.9046
21
-81.7133
0
LINE
8
BLACK
6
CONTINUOUS
10
97.9046
20
-81.7133
11
97.887
21
-81.534
0
LINE
8
BLACK
6
CONTINUOUS
10
97.887
20
-81.534
11
97.9046
21
-81.3547
0
LINE
8
BLACK
6
CONTINUOUS
10
97.9046
20
-81.3547
11
97.9569
21
-81.1823
0
LINE
8
BLACK
6
CONTINUOUS
10
97.9569
20
-81.1823
11
98.0419
21
-81.0234
0
LINE
8
BLACK
6
CONTINUOUS
10
98.0419
20
-81.0234
11
98.1562
21
-80.8842
0
LINE
8
BLACK
6
CONTINUOUS
10
98.1562
20
-80.8842
11
98.2954
21
-80.7699
0
LINE
8
BLACK
6
CONTINUOUS
10
98.2954
20
-80.7699
11
98.4543
21
-80.6849
0
LINE
8
BLACK
6
CONTINUOUS
10
98.4543
20
-80.6849
11
98.6267
21
-80.6326
0
LINE
8
BLACK
6
CONTINUOUS
10
98.6267
20
-80.6326
11
98.7611
21
-80.6194
0
LINE
8
BLACK
6
CONTINUOUS
10
98.7611
20
-80.6194
11
98.8509
21
-80.6194
0
LINE
8
BLACK
6
CONTINUOUS
10
98.8509
20
-80.6194
11
98.9853
21
-80.6326
0
LINE
8
BLACK
6
CONTINUOUS
10
123.937
20
-81.419
11
121.935
21
-81.419
0
LINE
8
BLACK
6
CONTINUOUS
10
121.935
20
-81.419
11
121.935
21
-79.617
0
LINE
8
BLACK
6
CONTINUOUS
10
121.935
20
-79.617
11
123.937
21
-79.617
0
LINE
8
BLACK
6
CONTINUOUS
10
123.937
20
-79.617
11
123.937
21
-81.419
0
LINE
8
BLACK
6
CONTINUOUS
10
147.967
20
-81.011
11
146.165
21
-81.011
0
LINE
8
BLACK
6
CONTINUOUS
10
146.165
20
-81.011
11
146.165
21
-79.009
0
LINE
8
BLACK
6
CONTINUOUS
10
146.165
20
-79.009
11
147.967
21
-79.009
0
LINE
8
BLACK
6
CONTINUOUS
10
147.967
20
-79.009
11
147.967
21
-81.011
0
LINE
8
BLACK
6
CONTINUOUS
10
143.495
20
-80.911
11
141.493
21
-80.911
0
LINE
8
BLACK
6
CONTINUOUS
10
141.493
20
-80.911
11
141.493
21
-79.109
0
LINE
8
BLACK
6
CONTINUOUS
10
141.493
20
-79.109
11
143.495
21
-79.109
0
LINE
8
BLACK
6
CONTINUOUS
10
143.495
20
-79.109
11
143.495
21
-80.911
0
LINE
8
BLACK
6
CONTINUOUS
10
98.9853
20
-78.0926
11
99.1577
21
-78.1449
0
LINE
8
BLACK
6
CONTINUOUS
10
99.1577
20
-78.1449
11
99.3166
21
-78.2299
0
LINE
8
BLACK
6
CONTINUOUS
10
99.3166
20
-78.2299
11
99.4558
21
-78.3442
0
LINE
8
BLACK
6
CONTINUOUS
10
99.4558
20
-78.3442
11
99.5701
21
-78.4834
0
LINE
8
BLACK
6
CONTINUOUS
10
99.5701
20
-78.4834
11
99.6551
21
-78.6423
0
LINE
8
BLACK
6
CONTINUOUS
10
99.6551
20
-78.6423
11
99.7074
21
-78.8147
0
LINE
8
BLACK
6
CONTINUOUS
10
99.7074
20
-78.8147
11
99.725
21
-78.994
0
LINE
8
BLACK
6
CONTINUOUS
10
99.725
20
-78.994
11
99.7074
21
-79.1733
0
LINE
8
BLACK
6
CONTINUOUS
10
99.7074
20
-79.1733
11
99.6551
21
-79.3457
0
LINE
8
BLACK
6
CONTINUOUS
10
99.6551
20
-79.3457
11
99.5701
21
-79.5046
0
LINE
8
BLACK
6
CONTINUOUS
10
99.5701
20
-79.5046
11
99.4558
21
-79.6438
0
LINE
8
BLACK
6
CONTINUOUS
10
99.4558
20
-79.6438
11
99.3166
21
-79.7581
0
LINE
8
BLACK
6
CONTINUOUS
10
99.3166
20
-79.7581
11
99.1577
21
-79.8431
0
LINE
8
BLACK
6
CONTINUOUS
10
99.1577
20
-79.8431
11
98.9853
21
-79.8954
0
LINE
8
BLACK
6
CONTINUOUS
10
98.9853
20
-79.8954
11
98.8509
21
-79.9086
0
LINE
8
BLACK
6
CONTINUOUS
10
98.8509
20
-79.9086
11
98.7611
21
-79.9086
0
LINE
8
BLACK
6
CONTINUOUS
10
98.7611
20
-79.9086
11
98.6267
21
-79.8954
0
LINE
8
BLACK
6
CONTINUOUS
10
98.6267
20
-79.8954
11
98.4543
21
-79.8431
0
LINE
8
BLACK
6
CONTINUOUS
10
98.4543
20
-79.8431
11
98.2954
21
-79.7581
0
LINE
8
BLACK
6
CONTINUOUS
10
98.2954
20
-79.7581
11
98.1562
21
-79.6438
0
LINE
8
BLACK
6
CONTINUOUS
10
98.1562
20
-79.6438
11
98.0419
21
-79.5046
0
LINE
8
BLACK
6
CONTINUOUS
10
98.0419
20
-79.5046
11
97.9569
21
-79.3457
0
LINE
8
BLACK
6
CONTINUOUS
10
97.9569
20
-79.3457
11
97.9046
21
-79.1733
0
LINE
8
BLACK
6
CONTINUOUS
10
97.9046
20
-79.1733
11
97.887
21
-78.994
0
LINE
8
BLACK
6
CONTINUOUS
10
97.887
20
-78.994
11
97.9046
21
-78.8147
0
LINE
8
BLACK
6
CONTINUOUS
10
97.9046
20
-78.8147
11
97.9569
21
-78.6423
0
LINE
8
BLACK
6
CONTINUOUS
10
97.9569
20
-78.6423
11
98.0419
21
-78.4834
0
LINE
8
BLACK
6
CONTINUOUS
10
98.0419
20
-78.4834
11
98.1562
21
-78.3442
0
LINE
8
BLACK
6
CONTINUOUS
10
98.1562
20
-78.3442
11
98.2954
21
-78.2299
0
LINE
8
BLACK
6
CONTINUOUS
10
98.2954
20
-78.2299
11
98.4543
21
-78.1449
0
LINE
8
BLACK
6
CONTINUOUS
10
98.4543
20
-78.1449
11
98.6267
21
-78.0926
0
LINE
8
BLACK
6
CONTINUOUS
10
98.6267
20
-78.0926
11
98.7611
21
-78.0794
0
LINE
8
BLACK
6
CONTINUOUS
10
98.7611
20
-78.0794
11
98.8509
21
-78.0794
0
LINE
8
BLACK
6
CONTINUOUS
10
98.8509
20
-78.0794
11
98.9853
21
-78.0926
0
LINE
8
BLACK
6
CONTINUOUS
10
123.937
20
-78.879
11
121.935
21
-78.879
0
LINE
8
BLACK
6
CONTINUOUS
10
121.935
20
-78.879
11
121.935
21
-77.077
0
LINE
8
BLACK
6
CONTINUOUS
10
121.935
20
-77.077
11
123.937
21
-77.077
0
LINE
8
BLACK
6
CONTINUOUS
10
123.937
20
-77.077
11
123.937
21
-78.879
0
LINE
8
BLACK
6
CONTINUOUS
10
147.967
20
-78.471
11
146.165
21
-78.471
0
LINE
8
BLACK
6
CONTINUOUS
10
146.165
20
-78.471
11
146.165
21
-76.469
0
LINE
8
BLACK
6
CONTINUOUS
10
146.165
20
-76.469
11
147.967
21
-76.469
0
LINE
8
BLACK
6
CONTINUOUS
10
147.967
20
-76.469
11
147.967
21
-78.471
0
LINE
8
BLACK
6
CONTINUOUS
10
143.495
20
-78.371
11
141.493
21
-78.371
0
LINE
8
BLACK
6
CONTINUOUS
10
141.493
20
-78.371
11
141.493
21
-76.569
0
LINE
8
BLACK
6
CONTINUOUS
10
141.493
20
-76.569
11
143.495
21
-76.569
0
LINE
8
BLACK
6
CONTINUOUS
10
143.495
20
-76.569
11
143.495
21
-78.371
0
LINE
8
BLACK
6
CONTINUOUS
10
98.9853
20
-75.5526
11
99.1577
21
-75.6049
0
LINE
8
BLACK
6
CONTINUOUS
10
99.1577
20
-75.6049
11
99.3166
21
-75.6899
0
LINE
8
BLACK
6
CONTINUOUS
10
99.3166
20
-75.6899
11
99.4558
21
-75.8042
0
LINE
8
BLACK
6
CONTINUOUS
10
99.4558
20
-75.8042
11
99.5701
21
-75.9434
0
LINE
8
BLACK
6
CONTINUOUS
10
99.5701
20
-75.9434
11
99.6551
21
-76.1023
0
LINE
8
BLACK
6
CONTINUOUS
10
99.6551
20
-76.1023
11
99.7074
21
-76.2747
0
LINE
8
BLACK
6
CONTINUOUS
10
99.7074
20
-76.2747
11
99.725
21
-76.454
0
LINE
8
BLACK
6
CONTINUOUS
10
99.725
20
-76.454
11
99.7074
21
-76.6333
0
LINE
8
BLACK
6
CONTINUOUS
10
99.7074
20
-76.6333
11
99.6551
21
-76.8057
0
LINE
8
BLACK
6
CONTINUOUS
10
99.6551
20
-76.8057
11
99.5701
21
-76.9646
0
LINE
8
BLACK
6
CONTINUOUS
10
99.5701
20
-76.9646
11
99.4558
21
-77.1038
0
LINE
8
BLACK
6
CONTINUOUS
10
99.4558
20
-77.1038
11
99.3166
21
-77.2181
0
LINE
8
BLACK
6
CONTINUOUS
10
99.3166
20
-77.2181
11
99.1577
21
-77.3031
0
LINE
8
BLACK
6
CONTINUOUS
10
99.1577
20
-77.3031
11
98.9853
21
-77.3554
0
LINE
8
BLACK
6
CONTINUOUS
10
98.9853
20
-77.3554
11
98.8509
21
-77.3686
0
LINE
8
BLACK
6
CONTINUOUS
10
98.8509
20
-77.3686
11
98.7611
21
-77.3686
0
LINE
8
BLACK
6
CONTINUOUS
10
98.7611
20
-77.3686
11
98.6267
21
-77.3554
0
LINE
8
BLACK
6
CONTINUOUS
10
98.6267
20
-77.3554
11
98.4543
21
-77.3031
0
LINE
8
BLACK
6
CONTINUOUS
10
98.4543
20
-77.3031
11
98.2954
21
-77.2181
0
LINE
8
BLACK
6
CONTINUOUS
10
98.2954
20
-77.2181
11
98.1562
21
-77.1038
0
LINE
8
BLACK
6
CONTINUOUS
10
98.1562
20
-77.1038
11
98.0419
21
-76.9646
0
LINE
8
BLACK
6
CONTINUOUS
10
98.0419
20
-76.9646
11
97.9569
21
-76.8057
0
LINE
8
BLACK
6
CONTINUOUS
10
97.9569
20
-76.8057
11
97.9046
21
-76.6333
0
LINE
8
BLACK
6
CONTINUOUS
10
97.9046
20
-76.6333
11
97.887
21
-76.454
0
LINE
8
BLACK
6
CONTINUOUS
10
97.887
20
-76.454
11
97.9046
21
-76.2747
0
LINE
8
BLACK
6
CONTINUOUS
10
97.9046
20
-76.2747
11
97.9569
21
-76.1023
0
LINE
8
BLACK
6
CONTINUOUS
10
97.9569
20
-76.1023
11
98.0419
21
-75.9434
0
LINE
8
BLACK
6
CONTINUOUS
10
98.0419
20
-75.9434
11
98.1562
21
-75.8042
0
LINE
8
BLACK
6
CONTINUOUS
10
98.1562
20
-75.8042
11
98.2954
21
-75.6899
0
LINE
8
BLACK
6
CONTINUOUS
10
98.2954
20
-75.6899
11
98.4543
21
-75.6049
0
LINE
8
BLACK
6
CONTINUOUS
10
98.4543
20
-75.6049
11
98.6267
21
-75.5526
0
LINE
8
BLACK
6
CONTINUOUS
10
98.6267
20
-75.5526
11
98.7611
21
-75.5394
0
LINE
8
BLACK
6
CONTINUOUS
10
98.7611
20
-75.5394
11
98.8509
21
-75.5394
0
LINE
8
BLACK
6
CONTINUOUS
10
98.8509
20
-75.5394
11
98.9853
21
-75.5526
0
LINE
8
BLACK
6
CONTINUOUS
10
123.937
20
-76.339
11
121.935
21
-76.339
0
LINE
8
BLACK
6
CONTINUOUS
10
121.935
20
-76.339
11
121.935
21
-74.537
0
LINE
8
BLACK
6
CONTINUOUS
10
121.935
20
-74.537
11
123.937
21
-74.537
0
LINE
8
BLACK
6
CONTINUOUS
10
123.937
20
-74.537
11
123.937
21
-76.339
0
LINE
8
BLACK
6
CONTINUOUS
10
147.967
20
-75.931
11
146.165
21
-75.931
0
LINE
8
BLACK
6
CONTINUOUS
10
146.165
20
-75.931
11
146.165
21
-73.929
0
LINE
8
BLACK
6
CONTINUOUS
10
146.165
20
-73.929
11
147.967
21
-73.929
0
LINE
8
BLACK
6
CONTINUOUS
10
147.967
20
-73.929
11
147.967
21
-75.931
0
LINE
8
BLACK
6
CONTINUOUS
10
98.9853
20
-73.0126
11
99.1577
21
-73.0649
0
LINE
8
BLACK
6
CONTINUOUS
10
99.1577
20
-73.0649
11
99.3166
21
-73.1499
0
LINE
8
BLACK
6
CONTINUOUS
10
99.3166
20
-73.1499
11
99.4558
21
-73.2642
0
LINE
8
BLACK
6
CONTINUOUS
10
99.4558
20
-73.2642
11
99.5701
21
-73.4034
0
LINE
8
BLACK
6
CONTINUOUS
10
99.5701
20
-73.4034
11
99.6551
21
-73.5623
0
LINE
8
BLACK
6
CONTINUOUS
10
99.6551
20
-73.5623
11
99.7074
21
-73.7347
0
LINE
8
BLACK
6
CONTINUOUS
10
99.7074
20
-73.7347
11
99.725
21
-73.914
0
LINE
8
BLACK
6
CONTINUOUS
10
99.725
20
-73.914
11
99.7074
21
-74.0933
0
LINE
8
BLACK
6
CONTINUOUS
10
99.7074
20
-74.0933
11
99.6551
21
-74.2657
0
LINE
8
BLACK
6
CONTINUOUS
10
99.6551
20
-74.2657
11
99.5701
21
-74.4246
0
LINE
8
BLACK
6
CONTINUOUS
10
99.5701
20
-74.4246
11
99.4558
21
-74.5638
0
LINE
8
BLACK
6
CONTINUOUS
10
99.4558
20
-74.5638
11
99.3166
21
-74.6781
0
LINE
8
BLACK
6
CONTINUOUS
10
99.3166
20
-74.6781
11
99.1577
21
-74.7631
0
LINE
8
BLACK
6
CONTINUOUS
10
99.1577
20
-74.7631
11
98.9853
21
-74.8154
0
LINE
8
BLACK
6
CONTINUOUS
10
98.9853
20
-74.8154
11
98.8509
21
-74.8286
0
LINE
8
BLACK
6
CONTINUOUS
10
98.8509
20
-74.8286
11
98.7611
21
-74.8286
0
LINE
8
BLACK
6
CONTINUOUS
10
98.7611
20
-74.8286
11
98.6267
21
-74.8154
0
LINE
8
BLACK
6
CONTINUOUS
10
98.6267
20
-74.8154
11
98.4543
21
-74.7631
0
LINE
8
BLACK
6
CONTINUOUS
10
98.4543
20
-74.7631
11
98.2954
21
-74.6781
0
LINE
8
BLACK
6
CONTINUOUS
10
98.2954
20
-74.6781
11
98.1562
21
-74.5638
0
LINE
8
BLACK
6
CONTINUOUS
10
98.1562
20
-74.5638
11
98.0419
21
-74.4246
0
LINE
8
BLACK
6
CONTINUOUS
10
98.0419
20
-74.4246
11
97.9569
21
-74.2657
0
LINE
8
BLACK
6
CONTINUOUS
10
97.9569
20
-74.2657
11
97.9046
21
-74.0933
0
LINE
8
BLACK
6
CONTINUOUS
10
97.9046
20
-74.0933
11
97.887
21
-73.914
0
LINE
8
BLACK
6
CONTINUOUS
10
97.887
20
-73.914
11
97.9046
21
-73.7347
0
LINE
8
BLACK
6
CONTINUOUS
10
97.9046
20
-73.7347
11
97.9569
21
-73.5623
0
LINE
8
BLACK
6
CONTINUOUS
10
97.9569
20
-73.5623
11
98.0419
21
-73.4034
0
LINE
8
BLACK
6
CONTINUOUS
10
98.0419
20
-73.4034
11
98.1562
21
-73.2642
0
LINE
8
BLACK
6
CONTINUOUS
10
98.1562
20
-73.2642
11
98.2954
21
-73.1499
0
LINE
8
BLACK
6
CONTINUOUS
10
98.2954
20
-73.1499
11
98.4543
21
-73.0649
0
LINE
8
BLACK
6
CONTINUOUS
10
98.4543
20
-73.0649
11
98.6267
21
-73.0126
0
LINE
8
BLACK
6
CONTINUOUS
10
98.6267
20
-73.0126
11
98.7611
21
-72.9994
0
LINE
8
BLACK
6
CONTINUOUS
10
98.7611
20
-72.9994
11
98.8509
21
-72.9994
0
LINE
8
BLACK
6
CONTINUOUS
10
98.8509
20
-72.9994
11
98.9853
21
-73.0126
0
LINE
8
BLACK
6
CONTINUOUS
10
143.495
20
-74.053
11
141.493
21
-74.053
0
LINE
8
BLACK
6
CONTINUOUS
10
141.493
20
-74.053
11
141.493
21
-72.251
0
LINE
8
BLACK
6
CONTINUOUS
10
141.493
20
-72.251
11
143.495
21
-72.251
0
LINE
8
BLACK
6
CONTINUOUS
10
143.495
20
-72.251
11
143.495
21
-74.053
0
LINE
8
BLACK
6
CONTINUOUS
10
123.054
20
-72.3057
11
123.167
21
-72.3401
0
LINE
8
BLACK
6
CONTINUOUS
10
123.167
20
-72.3401
11
123.272
21
-72.3959
0
LINE
8
BLACK
6
CONTINUOUS
10
123.272
20
-72.3959
11
123.363
21
-72.471
0
LINE
8
BLACK
6
CONTINUOUS
10
123.363
20
-72.471
11
123.438
21
-72.5625
0
LINE
8
BLACK
6
CONTINUOUS
10
123.438
20
-72.5625
11
123.494
21
-72.6669
0
LINE
8
BLACK
6
CONTINUOUS
10
123.494
20
-72.6669
11
123.528
21
-72.7802
0
LINE
8
BLACK
6
CONTINUOUS
10
123.528
20
-72.7802
11
123.54
21
-72.898
0
LINE
8
BLACK
6
CONTINUOUS
10
123.54
20
-72.898
11
123.528
21
-73.0158
0
LINE
8
BLACK
6
CONTINUOUS
10
123.528
20
-73.0158
11
123.494
21
-73.1291
0
LINE
8
BLACK
6
CONTINUOUS
10
123.494
20
-73.1291
11
123.438
21
-73.2335
0
LINE
8
BLACK
6
CONTINUOUS
10
123.438
20
-73.2335
11
123.363
21
-73.325
0
LINE
8
BLACK
6
CONTINUOUS
10
123.363
20
-73.325
11
123.272
21
-73.4001
0
LINE
8
BLACK
6
CONTINUOUS
10
123.272
20
-73.4001
11
123.167
21
-73.4559
0
LINE
8
BLACK
6
CONTINUOUS
10
123.167
20
-73.4559
11
123.054
21
-73.4903
0
LINE
8
BLACK
6
CONTINUOUS
10
123.054
20
-73.4903
11
122.966
21
-73.499
0
LINE
8
BLACK
6
CONTINUOUS
10
122.966
20
-73.499
11
122.906
21
-73.499
0
LINE
8
BLACK
6
CONTINUOUS
10
122.906
20
-73.499
11
122.818
21
-73.4903
0
LINE
8
BLACK
6
CONTINUOUS
10
122.818
20
-73.4903
11
122.705
21
-73.4559
0
LINE
8
BLACK
6
CONTINUOUS
10
122.705
20
-73.4559
11
122.6
21
-73.4001
0
LINE
8
BLACK
6
CONTINUOUS
10
122.6
20
-73.4001
11
122.509
21
-73.325
0
LINE
8
BLACK
6
CONTINUOUS
10
122.509
20
-73.325
11
122.434
21
-73.2335
0
LINE
8
BLACK
6
CONTINUOUS
10
122.434
20
-73.2335
11
122.378
21
-73.1291
0
LINE
8
BLACK
6
CONTINUOUS
10
122.378
20
-73.1291
11
122.344
21
-73.0158
0
LINE
8
BLACK
6
CONTINUOUS
10
122.344
20
-73.0158
11
122.332
21
-72.898
0
LINE
8
BLACK
6
CONTINUOUS
10
122.332
20
-72.898
11
122.344
21
-72.7802
0
LINE
8
BLACK
6
CONTINUOUS
10
122.344
20
-72.7802
11
122.378
21
-72.6669
0
LINE
8
BLACK
6
CONTINUOUS
10
122.378
20
-72.6669
11
122.434
21
-72.5625
0
LINE
8
BLACK
6
CONTINUOUS
10
122.434
20
-72.5625
11
122.509
21
-72.471
0
LINE
8
BLACK
6
CONTINUOUS
10
122.509
20
-72.471
11
122.6
21
-72.3959
0
LINE
8
BLACK
6
CONTINUOUS
10
122.6
20
-72.3959
11
122.705
21
-72.3401
0
LINE
8
BLACK
6
CONTINUOUS
10
122.705
20
-72.3401
11
122.818
21
-72.3057
0
LINE
8
BLACK
6
CONTINUOUS
10
122.818
20
-72.3057
11
122.906
21
-72.297
0
LINE
8
BLACK
6
CONTINUOUS
10
122.906
20
-72.297
11
122.966
21
-72.297
0
LINE
8
BLACK
6
CONTINUOUS
10
122.966
20
-72.297
11
123.054
21
-72.3057
0
LINE
8
BLACK
6
CONTINUOUS
10
147.967
20
-73.391
11
146.165
21
-73.391
0
LINE
8
BLACK
6
CONTINUOUS
10
146.165
20
-73.391
11
146.165
21
-71.389
0
LINE
8
BLACK
6
CONTINUOUS
10
146.165
20
-71.389
11
147.967
21
-71.389
0
LINE
8
BLACK
6
CONTINUOUS
10
147.967
20
-71.389
11
147.967
21
-73.391
0
LINE
8
BLACK
6
CONTINUOUS
10
98.9853
20
-70.4726
11
99.1577
21
-70.5249
0
LINE
8
BLACK
6
CONTINUOUS
10
99.1577
20
-70.5249
11
99.3166
21
-70.6099
0
LINE
8
BLACK
6
CONTINUOUS
10
99.3166
20
-70.6099
11
99.4558
21
-70.7242
0
LINE
8
BLACK
6
CONTINUOUS
10
99.4558
20
-70.7242
11
99.5701
21
-70.8634
0
LINE
8
BLACK
6
CONTINUOUS
10
99.5701
20
-70.8634
11
99.6551
21
-71.0223
0
LINE
8
BLACK
6
CONTINUOUS
10
99.6551
20
-71.0223
11
99.7074
21
-71.1947
0
LINE
8
BLACK
6
CONTINUOUS
10
99.7074
20
-71.1947
11
99.725
21
-71.374
0
LINE
8
BLACK
6
CONTINUOUS
10
99.725
20
-71.374
11
99.7074
21
-71.5533
0
LINE
8
BLACK
6
CONTINUOUS
10
99.7074
20
-71.5533
11
99.6551
21
-71.7257
0
LINE
8
BLACK
6
CONTINUOUS
10
99.6551
20
-71.7257
11
99.5701
21
-71.8846
0
LINE
8
BLACK
6
CONTINUOUS
10
99.5701
20
-71.8846
11
99.4558
21
-72.0238
0
LINE
8
BLACK
6
CONTINUOUS
10
99.4558
20
-72.0238
11
99.3166
21
-72.1381
0
LINE
8
BLACK
6
CONTINUOUS
10
99.3166
20
-72.1381
11
99.1577
21
-72.2231
0
LINE
8
BLACK
6
CONTINUOUS
10
99.1577
20
-72.2231
11
98.9853
21
-72.2754
0
LINE
8
BLACK
6
CONTINUOUS
10
98.9853
20
-72.2754
11
98.8509
21
-72.2886
0
LINE
8
BLACK
6
CONTINUOUS
10
98.8509
20
-72.2886
11
98.7611
21
-72.2886
0
LINE
8
BLACK
6
CONTINUOUS
10
98.7611
20
-72.2886
11
98.6267
21
-72.2754
0
LINE
8
BLACK
6
CONTINUOUS
10
98.6267
20
-72.2754
11
98.4543
21
-72.2231
0
LINE
8
BLACK
6
CONTINUOUS
10
98.4543
20
-72.2231
11
98.2954
21
-72.1381
0
LINE
8
BLACK
6
CONTINUOUS
10
98.2954
20
-72.1381
11
98.1562
21
-72.0238
0
LINE
8
BLACK
6
CONTINUOUS
10
98.1562
20
-72.0238
11
98.0419
21
-71.8846
0
LINE
8
BLACK
6
CONTINUOUS
10
98.0419
20
-71.8846
11
97.9569
21
-71.7257
0
LINE
8
BLACK
6
CONTINUOUS
10
97.9569
20
-71.7257
11
97.9046
21
-71.5533
0
LINE
8
BLACK
6
CONTINUOUS
10
97.9046
20
-71.5533
11
97.887
21
-71.374
0
LINE
8
BLACK
6
CONTINUOUS
10
97.887
20
-71.374
11
97.9046
21
-71.1947
0
LINE
8
BLACK
6
CONTINUOUS
10
97.9046
20
-71.1947
11
97.9569
21
-71.0223
0
LINE
8
BLACK
6
CONTINUOUS
10
97.9569
20
-71.0223
11
98.0419
21
-70.8634
0
LINE
8
BLACK
6
CONTINUOUS
10
98.0419
20
-70.8634
11
98.1562
21
-70.7242
0
LINE
8
BLACK
6
CONTINUOUS
10
98.1562
20
-70.7242
11
98.2954
21
-70.6099
0
LINE
8
BLACK
6
CONTINUOUS
10
98.2954
20
-70.6099
11
98.4543
21
-70.5249
0
LINE
8
BLACK
6
CONTINUOUS
10
98.4543
20
-70.5249
11
98.6267
21
-70.4726
0
LINE
8
BLACK
6
CONTINUOUS
10
98.6267
20
-70.4726
11
98.7611
21
-70.4594
0
LINE
8
BLACK
6
CONTINUOUS
10
98.7611
20
-70.4594
11
98.8509
21
-70.4594
0
LINE
8
BLACK
6
CONTINUOUS
10
98.8509
20
-70.4594
11
98.9853
21
-70.4726
0
LINE
8
BLACK
6
CONTINUOUS
10
143.495
20
-71.513
11
141.493
21
-71.513
0
LINE
8
BLACK
6
CONTINUOUS
10
141.493
20
-71.513
11
141.493
21
-69.711
0
LINE
8
BLACK
6
CONTINUOUS
10
141.493
20
-69.711
11
143.495
21
-69.711
0
LINE
8
BLACK
6
CONTINUOUS
10
143.495
20
-69.711
11
143.495
21
-71.513
0
LINE
8
BLACK
6
CONTINUOUS
10
123
20
-69.7101
11
123.064
21
-69.7164
0
LINE
8
BLACK
6
CONTINUOUS
10
123.064
20
-69.7164
11
123.154
21
-69.744
0
LINE
8
BLACK
6
CONTINUOUS
10
123.154
20
-69.744
11
123.186
21
-69.7536
0
LINE
8
BLACK
6
CONTINUOUS
10
123.186
20
-69.7536
11
123.299
21
-69.8141
0
LINE
8
BLACK
6
CONTINUOUS
10
123.299
20
-69.8141
11
123.399
21
-69.8954
0
LINE
8
BLACK
6
CONTINUOUS
10
123.399
20
-69.8954
11
123.48
21
-69.9946
0
LINE
8
BLACK
6
CONTINUOUS
10
123.48
20
-69.9946
11
123.54
21
-70.1077
0
LINE
8
BLACK
6
CONTINUOUS
10
123.54
20
-70.1077
11
123.54
21
-70.1077
0
LINE
8
BLACK
6
CONTINUOUS
10
123.54
20
-70.1077
11
123.578
21
-70.2304
0
LINE
8
BLACK
6
CONTINUOUS
10
123.578
20
-70.2304
11
123.59
21
-70.358
0
LINE
8
BLACK
6
CONTINUOUS
10
123.59
20
-70.358
11
123.578
21
-70.4856
0
LINE
8
BLACK
6
CONTINUOUS
10
123.578
20
-70.4856
11
123.566
21
-70.5249
0
LINE
8
BLACK
6
CONTINUOUS
10
123.566
20
-70.5249
11
123.54
21
-70.6083
0
LINE
8
BLACK
6
CONTINUOUS
10
123.54
20
-70.6083
11
123.48
21
-70.7214
0
LINE
8
BLACK
6
CONTINUOUS
10
123.48
20
-70.7214
11
123.399
21
-70.8206
0
LINE
8
BLACK
6
CONTINUOUS
10
123.399
20
-70.8206
11
123.299
21
-70.9019
0
LINE
8
BLACK
6
CONTINUOUS
10
123.299
20
-70.9019
11
123.186
21
-70.9624
0
LINE
8
BLACK
6
CONTINUOUS
10
123.186
20
-70.9624
11
123.154
21
-70.972
0
LINE
8
BLACK
6
CONTINUOUS
10
123.154
20
-70.972
11
123.064
21
-70.9996
0
LINE
8
BLACK
6
CONTINUOUS
10
123.064
20
-70.9996
11
123
21
-71.0059
0
LINE
8
BLACK
6
CONTINUOUS
10
123
20
-71.0059
11
122.968
21
-71.009
0
LINE
8
BLACK
6
CONTINUOUS
10
122.968
20
-71.009
11
122.904
21
-71.009
0
LINE
8
BLACK
6
CONTINUOUS
10
122.904
20
-71.009
11
122.872
21
-71.0059
0
LINE
8
BLACK
6
CONTINUOUS
10
122.872
20
-71.0059
11
122.808
21
-70.9996
0
LINE
8
BLACK
6
CONTINUOUS
10
122.808
20
-70.9996
11
122.718
21
-70.972
0
LINE
8
BLACK
6
CONTINUOUS
10
122.718
20
-70.972
11
122.686
21
-70.9624
0
LINE
8
BLACK
6
CONTINUOUS
10
122.686
20
-70.9624
11
122.573
21
-70.9019
0
LINE
8
BLACK
6
CONTINUOUS
10
122.573
20
-70.9019
11
122.473
21
-70.8206
0
LINE
8
BLACK
6
CONTINUOUS
10
122.473
20
-70.8206
11
122.392
21
-70.7214
0
LINE
8
BLACK
6
CONTINUOUS
10
122.392
20
-70.7214
11
122.332
21
-70.6083
0
LINE
8
BLACK
6
CONTINUOUS
10
122.332
20
-70.6083
11
122.306
21
-70.5249
0
LINE
8
BLACK
6
CONTINUOUS
10
122.306
20
-70.5249
11
122.294
21
-70.4856
0
LINE
8
BLACK
6
CONTINUOUS
10
122.294
20
-70.4856
11
122.282
21
-70.358
0
LINE
8
BLACK
6
CONTINUOUS
10
122.282
20
-70.358
11
122.294
21
-70.2304
0
LINE
8
BLACK
6
CONTINUOUS
10
122.294
20
-70.2304
11
122.332
21
-70.1077
0
LINE
8
BLACK
6
CONTINUOUS
10
122.332
20
-70.1077
11
122.332
21
-70.1077
0
LINE
8
BLACK
6
CONTINUOUS
10
122.332
20
-70.1077
11
122.392
21
-69.9946
0
LINE
8
BLACK
6
CONTINUOUS
10
122.392
20
-69.9946
11
122.473
21
-69.8954
0
LINE
8
BLACK
6
CONTINUOUS
10
122.473
20
-69.8954
11
122.573
21
-69.8141
0
LINE
8
BLACK
6
CONTINUOUS
10
122.573
20
-69.8141
11
122.686
21
-69.7536
0
LINE
8
BLACK
6
CONTINUOUS
10
122.686
20
-69.7536
11
122.718
21
-69.744
0
LINE
8
BLACK
6
CONTINUOUS
10
122.718
20
-69.744
11
122.808
21
-69.7164
0
LINE
8
BLACK
6
CONTINUOUS
10
122.808
20
-69.7164
11
122.872
21
-69.7101
0
LINE
8
BLACK
6
CONTINUOUS
10
122.872
20
-69.7101
11
122.904
21
-69.707
0
LINE
8
BLACK
6
CONTINUOUS
10
122.904
20
-69.707
11
122.968
21
-69.707
0
LINE
8
BLACK
6
CONTINUOUS
10
122.968
20
-69.707
11
123
21
-69.7101
0
LINE
8
BLACK
6
CONTINUOUS
10
147.967
20
-70.851
11
146.165
21
-70.851
0
LINE
8
BLACK
6
CONTINUOUS
10
146.165
20
-70.851
11
146.165
21
-68.849
0
LINE
8
BLACK
6
CONTINUOUS
10
146.165
20
-68.849
11
147.967
21
-68.849
0
LINE
8
BLACK
6
CONTINUOUS
10
147.967
20
-68.849
11
147.967
21
-70.851
0
LINE
8
BLACK
6
CONTINUOUS
10
98.9853
20
-67.9326
11
99.1577
21
-67.9849
0
LINE
8
BLACK
6
CONTINUOUS
10
99.1577
20
-67.9849
11
99.3166
21
-68.0699
0
LINE
8
BLACK
6
CONTINUOUS
10
99.3166
20
-68.0699
11
99.4558
21
-68.1842
0
LINE
8
BLACK
6
CONTINUOUS
10
99.4558
20
-68.1842
11
99.5701
21
-68.3234
0
LINE
8
BLACK
6
CONTINUOUS
10
99.5701
20
-68.3234
11
99.6551
21
-68.4823
0
LINE
8
BLACK
6
CONTINUOUS
10
99.6551
20
-68.4823
11
99.7074
21
-68.6547
0
LINE
8
BLACK
6
CONTINUOUS
10
99.7074
20
-68.6547
11
99.725
21
-68.834
0
LINE
8
BLACK
6
CONTINUOUS
10
99.725
20
-68.834
11
99.7074
21
-69.0133
0
LINE
8
BLACK
6
CONTINUOUS
10
99.7074
20
-69.0133
11
99.6551
21
-69.1857
0
LINE
8
BLACK
6
CONTINUOUS
10
99.6551
20
-69.1857
11
99.5701
21
-69.3446
0
LINE
8
BLACK
6
CONTINUOUS
10
99.5701
20
-69.3446
11
99.4558
21
-69.4838
0
LINE
8
BLACK
6
CONTINUOUS
10
99.4558
20
-69.4838
11
99.3166
21
-69.5981
0
LINE
8
BLACK
6
CONTINUOUS
10
99.3166
20
-69.5981
11
99.1577
21
-69.6831
0
LINE
8
BLACK
6
CONTINUOUS
10
99.1577
20
-69.6831
11
98.9853
21
-69.7354
0
LINE
8
BLACK
6
CONTINUOUS
10
98.9853
20
-69.7354
11
98.8509
21
-69.7486
0
LINE
8
BLACK
6
CONTINUOUS
10
98.8509
20
-69.7486
11
98.7611
21
-69.7486
0
LINE
8
BLACK
6
CONTINUOUS
10
98.7611
20
-69.7486
11
98.6267
21
-69.7354
0
LINE
8
BLACK
6
CONTINUOUS
10
98.6267
20
-69.7354
11
98.4543
21
-69.6831
0
LINE
8
BLACK
6
CONTINUOUS
10
98.4543
20
-69.6831
11
98.2954
21
-69.5981
0
LINE
8
BLACK
6
CONTINUOUS
10
98.2954
20
-69.5981
11
98.1562
21
-69.4838
0
LINE
8
BLACK
6
CONTINUOUS
10
98.1562
20
-69.4838
11
98.0419
21
-69.3446
0
LINE
8
BLACK
6
CONTINUOUS
10
98.0419
20
-69.3446
11
97.9569
21
-69.1857
0
LINE
8
BLACK
6
CONTINUOUS
10
97.9569
20
-69.1857
11
97.9046
21
-69.0133
0
LINE
8
BLACK
6
CONTINUOUS
10
97.9046
20
-69.0133
11
97.887
21
-68.834
0
LINE
8
BLACK
6
CONTINUOUS
10
97.887
20
-68.834
11
97.9046
21
-68.6547
0
LINE
8
BLACK
6
CONTINUOUS
10
97.9046
20
-68.6547
11
97.9569
21
-68.4823
0
LINE
8
BLACK
6
CONTINUOUS
10
97.9569
20
-68.4823
11
98.0419
21
-68.3234
0
LINE
8
BLACK
6
CONTINUOUS
10
98.0419
20
-68.3234
11
98.1562
21
-68.1842
0
LINE
8
BLACK
6
CONTINUOUS
10
98.1562
20
-68.1842
11
98.2954
21
-68.0699
0
LINE
8
BLACK
6
CONTINUOUS
10
98.2954
20
-68.0699
11
98.4543
21
-67.9849
0
LINE
8
BLACK
6
CONTINUOUS
10
98.4543
20
-67.9849
11
98.6267
21
-67.9326
0
LINE
8
BLACK
6
CONTINUOUS
10
98.6267
20
-67.9326
11
98.7611
21
-67.9194
0
LINE
8
BLACK
6
CONTINUOUS
10
98.7611
20
-67.9194
11
98.8509
21
-67.9194
0
LINE
8
BLACK
6
CONTINUOUS
10
98.8509
20
-67.9194
11
98.9853
21
-67.9326
0
LINE
8
BLACK
6
CONTINUOUS
10
143.495
20
-68.973
11
141.493
21
-68.973
0
LINE
8
BLACK
6
CONTINUOUS
10
141.493
20
-68.973
11
141.493
21
-67.171
0
LINE
8
BLACK
6
CONTINUOUS
10
141.493
20
-67.171
11
143.495
21
-67.171
0
LINE
8
BLACK
6
CONTINUOUS
10
143.495
20
-67.171
11
143.495
21
-68.973
0
LINE
8
BLACK
6
CONTINUOUS
10
123.837
20
-68.569
11
122.035
21
-68.569
0
LINE
8
BLACK
6
CONTINUOUS
10
122.035
20
-68.569
11
122.035
21
-67.067
0
LINE
8
BLACK
6
CONTINUOUS
10
122.035
20
-67.067
11
123.837
21
-67.067
0
LINE
8
BLACK
6
CONTINUOUS
10
123.837
20
-67.067
11
123.837
21
-68.569
0
LINE
8
BLACK
6
CONTINUOUS
10
147.967
20
-68.311
11
146.165
21
-68.311
0
LINE
8
BLACK
6
CONTINUOUS
10
146.165
20
-68.311
11
146.165
21
-66.309
0
LINE
8
BLACK
6
CONTINUOUS
10
146.165
20
-66.309
11
147.967
21
-66.309
0
LINE
8
BLACK
6
CONTINUOUS
10
147.967
20
-66.309
11
147.967
21
-68.311
0
LINE
8
BLACK
6
CONTINUOUS
10
143.495
20
-66.433
11
141.493
21
-66.433
0
LINE
8
BLACK
6
CONTINUOUS
10
141.493
20
-66.433
11
141.493
21
-64.631
0
LINE
8
BLACK
6
CONTINUOUS
10
141.493
20
-64.631
11
143.495
21
-64.631
0
LINE
8
BLACK
6
CONTINUOUS
10
143.495
20
-64.631
11
143.495
21
-66.433
0
LINE
8
BLACK
6
CONTINUOUS
10
147.967
20
-65.771
11
146.165
21
-65.771
0
LINE
8
BLACK
6
CONTINUOUS
10
146.165
20
-65.771
11
146.165
21
-63.769
0
LINE
8
BLACK
6
CONTINUOUS
10
146.165
20
-63.769
11
147.967
21
-63.769
0
LINE
8
BLACK
6
CONTINUOUS
10
147.967
20
-63.769
11
147.967
21
-65.771
0
LINE
8
BLACK
6
CONTINUOUS
10
116.323
20
-62.0131
11
116.559
21
-62.0846
0
LINE
8
BLACK
6
CONTINUOUS
10
116.559
20
-62.0846
11
116.776
21
-62.2008
0
LINE
8
BLACK
6
CONTINUOUS
10
116.776
20
-62.2008
11
116.967
21
-62.3571
0
LINE
8
BLACK
6
CONTINUOUS
10
116.967
20
-62.3571
11
117.123
21
-62.5476
0
LINE
8
BLACK
6
CONTINUOUS
10
117.123
20
-62.5476
11
117.239
21
-62.7649
0
LINE
8
BLACK
6
CONTINUOUS
10
117.239
20
-62.7649
11
117.311
21
-63.0008
0
LINE
8
BLACK
6
CONTINUOUS
10
117.311
20
-63.0008
11
117.335
21
-63.246
0
LINE
8
BLACK
6
CONTINUOUS
10
117.335
20
-63.246
11
117.311
21
-63.4912
0
LINE
8
BLACK
6
CONTINUOUS
10
117.311
20
-63.4912
11
117.239
21
-63.7271
0
LINE
8
BLACK
6
CONTINUOUS
10
117.239
20
-63.7271
11
117.123
21
-63.9444
0
LINE
8
BLACK
6
CONTINUOUS
10
117.123
20
-63.9444
11
116.967
21
-64.1349
0
LINE
8
BLACK
6
CONTINUOUS
10
116.967
20
-64.1349
11
116.776
21
-64.2912
0
LINE
8
BLACK
6
CONTINUOUS
10
116.776
20
-64.2912
11
116.559
21
-64.4074
0
LINE
8
BLACK
6
CONTINUOUS
10
116.559
20
-64.4074
11
116.323
21
-64.4789
0
LINE
8
BLACK
6
CONTINUOUS
10
116.323
20
-64.4789
11
116.139
21
-64.497
0
LINE
8
BLACK
6
CONTINUOUS
10
116.139
20
-64.497
11
116.017
21
-64.497
0
LINE
8
BLACK
6
CONTINUOUS
10
116.017
20
-64.497
11
115.833
21
-64.4789
0
LINE
8
BLACK
6
CONTINUOUS
10
115.833
20
-64.4789
11
115.597
21
-64.4074
0
LINE
8
BLACK
6
CONTINUOUS
10
115.597
20
-64.4074
11
115.38
21
-64.2912
0
LINE
8
BLACK
6
CONTINUOUS
10
115.38
20
-64.2912
11
115.189
21
-64.1349
0
LINE
8
BLACK
6
CONTINUOUS
10
115.189
20
-64.1349
11
115.033
21
-63.9444
0
LINE
8
BLACK
6
CONTINUOUS
10
115.033
20
-63.9444
11
114.917
21
-63.7271
0
LINE
8
BLACK
6
CONTINUOUS
10
114.917
20
-63.7271
11
114.845
21
-63.4912
0
LINE
8
BLACK
6
CONTINUOUS
10
114.845
20
-63.4912
11
114.821
21
-63.246
0
LINE
8
BLACK
6
CONTINUOUS
10
114.821
20
-63.246
11
114.845
21
-63.0008
0
LINE
8
BLACK
6
CONTINUOUS
10
114.845
20
-63.0008
11
114.917
21
-62.7649
0
LINE
8
BLACK
6
CONTINUOUS
10
114.917
20
-62.7649
11
115.033
21
-62.5476
0
LINE
8
BLACK
6
CONTINUOUS
10
115.033
20
-62.5476
11
115.189
21
-62.3571
0
LINE
8
BLACK
6
CONTINUOUS
10
115.189
20
-62.3571
11
115.38
21
-62.2008
0
LINE
8
BLACK
6
CONTINUOUS
10
115.38
20
-62.2008
11
115.597
21
-62.0846
0
LINE
8
BLACK
6
CONTINUOUS
10
115.597
20
-62.0846
11
115.833
21
-62.0131
0
LINE
8
BLACK
6
CONTINUOUS
10
115.833
20
-62.0131
11
116.017
21
-61.995
0
LINE
8
BLACK
6
CONTINUOUS
10
116.017
20
-61.995
11
116.139
21
-61.995
0
LINE
8
BLACK
6
CONTINUOUS
10
116.139
20
-61.995
11
116.323
21
-62.0131
0
LINE
8
BLACK
6
CONTINUOUS
10
109.465
20
-62.0131
11
109.701
21
-62.0846
0
LINE
8
BLACK
6
CONTINUOUS
10
109.701
20
-62.0846
11
109.918
21
-62.2008
0
LINE
8
BLACK
6
CONTINUOUS
10
109.918
20
-62.2008
11
110.109
21
-62.3571
0
LINE
8
BLACK
6
CONTINUOUS
10
110.109
20
-62.3571
11
110.265
21
-62.5476
0
LINE
8
BLACK
6
CONTINUOUS
10
110.265
20
-62.5476
11
110.381
21
-62.7649
0
LINE
8
BLACK
6
CONTINUOUS
10
110.381
20
-62.7649
11
110.453
21
-63.0008
0
LINE
8
BLACK
6
CONTINUOUS
10
110.453
20
-63.0008
11
110.477
21
-63.246
0
LINE
8
BLACK
6
CONTINUOUS
10
110.477
20
-63.246
11
110.453
21
-63.4912
0
LINE
8
BLACK
6
CONTINUOUS
10
110.453
20
-63.4912
11
110.381
21
-63.7271
0
LINE
8
BLACK
6
CONTINUOUS
10
110.381
20
-63.7271
11
110.265
21
-63.9444
0
LINE
8
BLACK
6
CONTINUOUS
10
110.265
20
-63.9444
11
110.109
21
-64.1349
0
LINE
8
BLACK
6
CONTINUOUS
10
110.109
20
-64.1349
11
109.918
21
-64.2912
0
LINE
8
BLACK
6
CONTINUOUS
10
109.918
20
-64.2912
11
109.701
21
-64.4074
0
LINE
8
BLACK
6
CONTINUOUS
10
109.701
20
-64.4074
11
109.465
21
-64.4789
0
LINE
8
BLACK
6
CONTINUOUS
10
109.465
20
-64.4789
11
109.281
21
-64.497
0
LINE
8
BLACK
6
CONTINUOUS
10
109.281
20
-64.497
11
109.159
21
-64.497
0
LINE
8
BLACK
6
CONTINUOUS
10
109.159
20
-64.497
11
108.975
21
-64.4789
0
LINE
8
BLACK
6
CONTINUOUS
10
108.975
20
-64.4789
11
108.739
21
-64.4074
0
LINE
8
BLACK
6
CONTINUOUS
10
108.739
20
-64.4074
11
108.522
21
-64.2912
0
LINE
8
BLACK
6
CONTINUOUS
10
108.522
20
-64.2912
11
108.331
21
-64.1349
0
LINE
8
BLACK
6
CONTINUOUS
10
108.331
20
-64.1349
11
108.175
21
-63.9444
0
LINE
8
BLACK
6
CONTINUOUS
10
108.175
20
-63.9444
11
108.059
21
-63.7271
0
LINE
8
BLACK
6
CONTINUOUS
10
108.059
20
-63.7271
11
107.987
21
-63.4912
0
LINE
8
BLACK
6
CONTINUOUS
10
107.987
20
-63.4912
11
107.963
21
-63.246
0
LINE
8
BLACK
6
CONTINUOUS
10
107.963
20
-63.246
11
107.987
21
-63.0008
0
LINE
8
BLACK
6
CONTINUOUS
10
107.987
20
-63.0008
11
108.059
21
-62.7649
0
LINE
8
BLACK
6
CONTINUOUS
10
108.059
20
-62.7649
11
108.175
21
-62.5476
0
LINE
8
BLACK
6
CONTINUOUS
10
108.175
20
-62.5476
11
108.331
21
-62.3571
0
LINE
8
BLACK
6
CONTINUOUS
10
108.331
20
-62.3571
11
108.522
21
-62.2008
0
LINE
8
BLACK
6
CONTINUOUS
10
108.522
20
-62.2008
11
108.739
21
-62.0846
0
LINE
8
BLACK
6
CONTINUOUS
10
108.739
20
-62.0846
11
108.975
21
-62.0131
0
LINE
8
BLACK
6
CONTINUOUS
10
108.975
20
-62.0131
11
109.159
21
-61.995
0
LINE
8
BLACK
6
CONTINUOUS
10
109.159
20
-61.995
11
109.281
21
-61.995
0
LINE
8
BLACK
6
CONTINUOUS
10
109.281
20
-61.995
11
109.465
21
-62.0131
0
LINE
8
BLACK
6
CONTINUOUS
10
143.495
20
-63.893
11
141.493
21
-63.893
0
LINE
8
BLACK
6
CONTINUOUS
10
141.493
20
-63.893
11
141.493
21
-62.091
0
LINE
8
BLACK
6
CONTINUOUS
10
141.493
20
-62.091
11
143.495
21
-62.091
0
LINE
8
BLACK
6
CONTINUOUS
10
143.495
20
-62.091
11
143.495
21
-63.893
0
LINE
8
BLACK
6
CONTINUOUS
10
147.967
20
-63.231
11
146.165
21
-63.231
0
LINE
8
BLACK
6
CONTINUOUS
10
146.165
20
-63.231
11
146.165
21
-61.229
0
LINE
8
BLACK
6
CONTINUOUS
10
146.165
20
-61.229
11
147.967
21
-61.229
0
LINE
8
BLACK
6
CONTINUOUS
10
147.967
20
-61.229
11
147.967
21
-63.231
0
LINE
8
BLACK
6
CONTINUOUS
10
123.379
20
-62.165
11
121.477
21
-62.165
0
LINE
8
BLACK
6
CONTINUOUS
10
121.477
20
-62.165
11
121.477
21
-60.263
0
LINE
8
BLACK
6
CONTINUOUS
10
121.477
20
-60.263
11
123.379
21
-60.263
0
LINE
8
BLACK
6
CONTINUOUS
10
123.379
20
-60.263
11
123.379
21
-62.165
0
LINE
8
BLACK
6
CONTINUOUS
10
125.245
20
-60.2995
11
125.418
21
-60.3712
0
LINE
8
BLACK
6
CONTINUOUS
10
125.418
20
-60.3712
11
125.418
21
-60.3712
0
LINE
8
BLACK
6
CONTINUOUS
10
125.418
20
-60.3712
11
125.574
21
-60.4753
0
LINE
8
BLACK
6
CONTINUOUS
10
125.574
20
-60.4753
11
125.707
21
-60.6078
0
LINE
8
BLACK
6
CONTINUOUS
10
125.707
20
-60.6078
11
125.707
21
-60.6078
0
LINE
8
BLACK
6
CONTINUOUS
10
125.707
20
-60.6078
11
125.811
21
-60.7635
0
LINE
8
BLACK
6
CONTINUOUS
10
125.811
20
-60.7635
11
125.882
21
-60.9366
0
LINE
8
BLACK
6
CONTINUOUS
10
125.882
20
-60.9366
11
125.919
21
-61.1203
0
LINE
8
BLACK
6
CONTINUOUS
10
125.919
20
-61.1203
11
125.919
21
-61.3077
0
LINE
8
BLACK
6
CONTINUOUS
10
125.919
20
-61.3077
11
125.882
21
-61.4914
0
LINE
8
BLACK
6
CONTINUOUS
10
125.882
20
-61.4914
11
125.811
21
-61.6645
0
LINE
8
BLACK
6
CONTINUOUS
10
125.811
20
-61.6645
11
125.811
21
-61.6645
0
LINE
8
BLACK
6
CONTINUOUS
10
125.811
20
-61.6645
11
125.707
21
-61.8202
0
LINE
8
BLACK
6
CONTINUOUS
10
125.707
20
-61.8202
11
125.574
21
-61.9527
0
LINE
8
BLACK
6
CONTINUOUS
10
125.574
20
-61.9527
11
125.511
21
-61.995
0
LINE
8
BLACK
6
CONTINUOUS
10
125.511
20
-61.995
11
125.418
21
-62.0568
0
LINE
8
BLACK
6
CONTINUOUS
10
125.418
20
-62.0568
11
125.245
21
-62.1285
0
LINE
8
BLACK
6
CONTINUOUS
10
125.245
20
-62.1285
11
125.062
21
-62.165
0
LINE
8
BLACK
6
CONTINUOUS
10
125.062
20
-62.165
11
124.874
21
-62.165
0
LINE
8
BLACK
6
CONTINUOUS
10
124.874
20
-62.165
11
124.691
21
-62.1285
0
LINE
8
BLACK
6
CONTINUOUS
10
124.691
20
-62.1285
11
124.518
21
-62.0568
0
LINE
8
BLACK
6
CONTINUOUS
10
124.518
20
-62.0568
11
124.425
21
-61.995
0
LINE
8
BLACK
6
CONTINUOUS
10
124.425
20
-61.995
11
124.362
21
-61.9527
0
LINE
8
BLACK
6
CONTINUOUS
10
124.362
20
-61.9527
11
124.229
21
-61.8202
0
LINE
8
BLACK
6
CONTINUOUS
10
124.229
20
-61.8202
11
124.125
21
-61.6645
0
LINE
8
BLACK
6
CONTINUOUS
10
124.125
20
-61.6645
11
124.125
21
-61.6645
0
LINE
8
BLACK
6
CONTINUOUS
10
124.125
20
-61.6645
11
124.054
21
-61.4914
0
LINE
8
BLACK
6
CONTINUOUS
10
124.054
20
-61.4914
11
124.017
21
-61.3077
0
LINE
8
BLACK
6
CONTINUOUS
10
124.017
20
-61.3077
11
124.017
21
-61.1203
0
LINE
8
BLACK
6
CONTINUOUS
10
124.017
20
-61.1203
11
124.054
21
-60.9366
0
LINE
8
BLACK
6
CONTINUOUS
10
124.054
20
-60.9366
11
124.125
21
-60.7635
0
LINE
8
BLACK
6
CONTINUOUS
10
124.125
20
-60.7635
11
124.229
21
-60.6078
0
LINE
8
BLACK
6
CONTINUOUS
10
124.229
20
-60.6078
11
124.229
21
-60.6078
0
LINE
8
BLACK
6
CONTINUOUS
10
124.229
20
-60.6078
11
124.362
21
-60.4753
0
LINE
8
BLACK
6
CONTINUOUS
10
124.362
20
-60.4753
11
124.518
21
-60.3712
0
LINE
8
BLACK
6
CONTINUOUS
10
124.518
20
-60.3712
11
124.518
21
-60.3712
0
LINE
8
BLACK
6
CONTINUOUS
10
124.518
20
-60.3712
11
124.691
21
-60.2995
0
LINE
8
BLACK
6
CONTINUOUS
10
124.691
20
-60.2995
11
124.874
21
-60.263
0
LINE
8
BLACK
6
CONTINUOUS
10
124.874
20
-60.263
11
125.062
21
-60.263
0
LINE
8
BLACK
6
CONTINUOUS
10
125.062
20
-60.263
11
125.245
21
-60.2995
0
LINE
8
BLACK
6
CONTINUOUS
10
147.967
20
-60.691
11
146.165
21
-60.691
0
LINE
8
BLACK
6
CONTINUOUS
10
146.165
20
-60.691
11
146.165
21
-58.689
0
LINE
8
BLACK
6
CONTINUOUS
10
146.165
20
-58.689
11
147.967
21
-58.689
0
LINE
8
BLACK
6
CONTINUOUS
10
147.967
20
-58.689
11
147.967
21
-60.691
0
LINE
8
BLACK
6
CONTINUOUS
10
116.443
20
-56.9631
11
116.671
21
-57.0574
0
LINE
8
BLACK
6
CONTINUOUS
10
116.671
20
-57.0574
11
116.875
21
-57.1943
0
LINE
8
BLACK
6
CONTINUOUS
10
116.875
20
-57.1943
11
117.05
21
-57.3685
0
LINE
8
BLACK
6
CONTINUOUS
10
117.05
20
-57.3685
11
117.187
21
-57.5734
0
LINE
8
BLACK
6
CONTINUOUS
10
117.187
20
-57.5734
11
117.281
21
-57.8011
0
LINE
8
BLACK
6
CONTINUOUS
10
117.281
20
-57.8011
11
117.329
21
-58.0428
0
LINE
8
BLACK
6
CONTINUOUS
10
117.329
20
-58.0428
11
117.329
21
-58.2892
0
LINE
8
BLACK
6
CONTINUOUS
10
117.329
20
-58.2892
11
117.281
21
-58.5309
0
LINE
8
BLACK
6
CONTINUOUS
10
117.281
20
-58.5309
11
117.187
21
-58.7586
0
LINE
8
BLACK
6
CONTINUOUS
10
117.187
20
-58.7586
11
117.05
21
-58.9635
0
LINE
8
BLACK
6
CONTINUOUS
10
117.05
20
-58.9635
11
116.875
21
-59.1377
0
LINE
8
BLACK
6
CONTINUOUS
10
116.875
20
-59.1377
11
116.671
21
-59.2746
0
LINE
8
BLACK
6
CONTINUOUS
10
116.671
20
-59.2746
11
116.671
21
-59.2746
0
LINE
8
BLACK
6
CONTINUOUS
10
116.671
20
-59.2746
11
116.671
21
-59.2746
0
LINE
8
BLACK
6
CONTINUOUS
10
116.671
20
-59.2746
11
116.443
21
-59.3689
0
LINE
8
BLACK
6
CONTINUOUS
10
116.443
20
-59.3689
11
116.201
21
-59.417
0
LINE
8
BLACK
6
CONTINUOUS
10
116.201
20
-59.417
11
115.955
21
-59.417
0
LINE
8
BLACK
6
CONTINUOUS
10
115.955
20
-59.417
11
115.713
21
-59.3689
0
LINE
8
BLACK
6
CONTINUOUS
10
115.713
20
-59.3689
11
115.485
21
-59.2746
0
LINE
8
BLACK
6
CONTINUOUS
10
115.485
20
-59.2746
11
115.485
21
-59.2746
0
LINE
8
BLACK
6
CONTINUOUS
10
115.485
20
-59.2746
11
115.485
21
-59.2746
0
LINE
8
BLACK
6
CONTINUOUS
10
115.485
20
-59.2746
11
115.281
21
-59.1377
0
LINE
8
BLACK
6
CONTINUOUS
10
115.281
20
-59.1377
11
115.106
21
-58.9635
0
LINE
8
BLACK
6
CONTINUOUS
10
115.106
20
-58.9635
11
114.969
21
-58.7586
0
LINE
8
BLACK
6
CONTINUOUS
10
114.969
20
-58.7586
11
114.875
21
-58.5309
0
LINE
8
BLACK
6
CONTINUOUS
10
114.875
20
-58.5309
11
114.827
21
-58.2892
0
LINE
8
BLACK
6
CONTINUOUS
10
114.827
20
-58.2892
11
114.827
21
-58.0428
0
LINE
8
BLACK
6
CONTINUOUS
10
114.827
20
-58.0428
11
114.875
21
-57.8011
0
LINE
8
BLACK
6
CONTINUOUS
10
114.875
20
-57.8011
11
114.969
21
-57.5734
0
LINE
8
BLACK
6
CONTINUOUS
10
114.969
20
-57.5734
11
115.106
21
-57.3685
0
LINE
8
BLACK
6
CONTINUOUS
10
115.106
20
-57.3685
11
115.281
21
-57.1943
0
LINE
8
BLACK
6
CONTINUOUS
10
115.281
20
-57.1943
11
115.485
21
-57.0574
0
LINE
8
BLACK
6
CONTINUOUS
10
115.485
20
-57.0574
11
115.713
21
-56.9631
0
LINE
8
BLACK
6
CONTINUOUS
10
115.713
20
-56.9631
11
115.955
21
-56.915
0
LINE
8
BLACK
6
CONTINUOUS
10
115.955
20
-56.915
11
116.201
21
-56.915
0
LINE
8
BLACK
6
CONTINUOUS
10
116.201
20
-56.915
11
116.443
21
-56.9631
0
LINE
8
BLACK
6
CONTINUOUS
10
109.585
20
-56.9631
11
109.813
21
-57.0574
0
LINE
8
BLACK
6
CONTINUOUS
10
109.813
20
-57.0574
11
110.017
21
-57.1943
0
LINE
8
BLACK
6
CONTINUOUS
10
110.017
20
-57.1943
11
110.192
21
-57.3685
0
LINE
8
BLACK
6
CONTINUOUS
10
110.192
20
-57.3685
11
110.329
21
-57.5734
0
LINE
8
BLACK
6
CONTINUOUS
10
110.329
20
-57.5734
11
110.423
21
-57.8011
0
LINE
8
BLACK
6
CONTINUOUS
10
110.423
20
-57.8011
11
110.471
21
-58.0428
0
LINE
8
BLACK
6
CONTINUOUS
10
110.471
20
-58.0428
11
110.471
21
-58.2892
0
LINE
8
BLACK
6
CONTINUOUS
10
110.471
20
-58.2892
11
110.423
21
-58.5309
0
LINE
8
BLACK
6
CONTINUOUS
10
110.423
20
-58.5309
11
110.329
21
-58.7586
0
LINE
8
BLACK
6
CONTINUOUS
10
110.329
20
-58.7586
11
110.192
21
-58.9635
0
LINE
8
BLACK
6
CONTINUOUS
10
110.192
20
-58.9635
11
110.017
21
-59.1377
0
LINE
8
BLACK
6
CONTINUOUS
10
110.017
20
-59.1377
11
109.813
21
-59.2746
0
LINE
8
BLACK
6
CONTINUOUS
10
109.813
20
-59.2746
11
109.813
21
-59.2746
0
LINE
8
BLACK
6
CONTINUOUS
10
109.813
20
-59.2746
11
109.813
21
-59.2746
0
LINE
8
BLACK
6
CONTINUOUS
10
109.813
20
-59.2746
11
109.585
21
-59.3689
0
LINE
8
BLACK
6
CONTINUOUS
10
109.585
20
-59.3689
11
109.343
21
-59.417
0
LINE
8
BLACK
6
CONTINUOUS
10
109.343
20
-59.417
11
109.097
21
-59.417
0
LINE
8
BLACK
6
CONTINUOUS
10
109.097
20
-59.417
11
108.855
21
-59.3689
0
LINE
8
BLACK
6
CONTINUOUS
10
108.855
20
-59.3689
11
108.627
21
-59.2746
0
LINE
8
BLACK
6
CONTINUOUS
10
108.627
20
-59.2746
11
108.627
21
-59.2746
0
LINE
8
BLACK
6
CONTINUOUS
10
108.627
20
-59.2746
11
108.627
21
-59.2746
0
LINE
8
BLACK
6
CONTINUOUS
10
108.627
20
-59.2746
11
108.423
21
-59.1377
0
LINE
8
BLACK
6
CONTINUOUS
10
108.423
20
-59.1377
11
108.248
21
-58.9635
0
LINE
8
BLACK
6
CONTINUOUS
10
108.248
20
-58.9635
11
108.111
21
-58.7586
0
LINE
8
BLACK
6
CONTINUOUS
10
108.111
20
-58.7586
11
108.017
21
-58.5309
0
LINE
8
BLACK
6
CONTINUOUS
10
108.017
20
-58.5309
11
107.969
21
-58.2892
0
LINE
8
BLACK
6
CONTINUOUS
10
107.969
20
-58.2892
11
107.969
21
-58.0428
0
LINE
8
BLACK
6
CONTINUOUS
10
107.969
20
-58.0428
11
108.017
21
-57.8011
0
LINE
8
BLACK
6
CONTINUOUS
10
108.017
20
-57.8011
11
108.111
21
-57.5734
0
LINE
8
BLACK
6
CONTINUOUS
10
108.111
20
-57.5734
11
108.248
21
-57.3685
0
LINE
8
BLACK
6
CONTINUOUS
10
108.248
20
-57.3685
11
108.423
21
-57.1943
0
LINE
8
BLACK
6
CONTINUOUS
10
108.423
20
-57.1943
11
108.627
21
-57.0574
0
LINE
8
BLACK
6
CONTINUOUS
10
108.627
20
-57.0574
11
108.855
21
-56.9631
0
LINE
8
BLACK
6
CONTINUOUS
10
108.855
20
-56.9631
11
109.097
21
-56.915
0
LINE
8
BLACK
6
CONTINUOUS
10
109.097
20
-56.915
11
109.343
21
-56.915
0
LINE
8
BLACK
6
CONTINUOUS
10
109.343
20
-56.915
11
109.585
21
-56.9631
0
LINE
8
BLACK
6
CONTINUOUS
10
103.159
20
-58.709
11
101.057
21
-58.709
0
LINE
8
BLACK
6
CONTINUOUS
10
101.057
20
-58.709
11
101.057
21
-56.607
0
LINE
8
BLACK
6
CONTINUOUS
10
101.057
20
-56.607
11
103.159
21
-56.607
0
LINE
8
BLACK
6
CONTINUOUS
10
103.159
20
-56.607
11
103.159
21
-58.709
0
LINE
8
BLACK
6
CONTINUOUS
10
135.113
20
-56.273
11
133.111
21
-56.273
0
LINE
8
BLACK
6
CONTINUOUS
10
133.111
20
-56.273
11
133.111
21
-54.471
0
LINE
8
BLACK
6
CONTINUOUS
10
133.111
20
-54.471
11
135.113
21
-54.471
0
LINE
8
BLACK
6
CONTINUOUS
10
135.113
20
-54.471
11
135.113
21
-56.273
0
LINE
8
BLACK
6
CONTINUOUS
10
132.573
20
-56.273
11
130.571
21
-56.273
0
LINE
8
BLACK
6
CONTINUOUS
10
130.571
20
-56.273
11
130.571
21
-54.471
0
LINE
8
BLACK
6
CONTINUOUS
10
130.571
20
-54.471
11
132.573
21
-54.471
0
LINE
8
BLACK
6
CONTINUOUS
10
132.573
20
-54.471
11
132.573
21
-56.273
0
LINE
8
BLACK
6
CONTINUOUS
10
140.701
20
-56.273
11
138.699
21
-56.273
0
LINE
8
BLACK
6
CONTINUOUS
10
138.699
20
-56.273
11
138.699
21
-54.471
0
LINE
8
BLACK
6
CONTINUOUS
10
138.699
20
-54.471
11
140.701
21
-54.471
0
LINE
8
BLACK
6
CONTINUOUS
10
140.701
20
-54.471
11
140.701
21
-56.273
0
LINE
8
BLACK
6
CONTINUOUS
10
143.241
20
-56.273
11
141.239
21
-56.273
0
LINE
8
BLACK
6
CONTINUOUS
10
141.239
20
-56.273
11
141.239
21
-54.471
0
LINE
8
BLACK
6
CONTINUOUS
10
141.239
20
-54.471
11
143.241
21
-54.471
0
LINE
8
BLACK
6
CONTINUOUS
10
143.241
20
-54.471
11
143.241
21
-56.273
0
LINE
8
BLACK
6
CONTINUOUS
10
103.159
20
-56.169
11
101.057
21
-56.169
0
LINE
8
BLACK
6
CONTINUOUS
10
101.057
20
-56.169
11
101.057
21
-54.067
0
LINE
8
BLACK
6
CONTINUOUS
10
101.057
20
-54.067
11
103.159
21
-54.067
0
LINE
8
BLACK
6
CONTINUOUS
10
103.159
20
-54.067
11
103.159
21
-56.169
0
LINE
8
BLACK
6
CONTINUOUS
10
123.379
20
-53.783
11
121.477
21
-53.783
0
LINE
8
BLACK
6
CONTINUOUS
10
121.477
20
-53.783
11
121.477
21
-51.881
0
LINE
8
BLACK
6
CONTINUOUS
10
121.477
20
-51.881
11
123.379
21
-51.881
0
LINE
8
BLACK
6
CONTINUOUS
10
123.379
20
-51.881
11
123.379
21
-53.783
0
LINE
8
BLACK
6
CONTINUOUS
10
125.245
20
-51.9175
11
125.418
21
-51.9892
0
LINE
8
BLACK
6
CONTINUOUS
10
125.418
20
-51.9892
11
125.418
21
-51.9892
0
LINE
8
BLACK
6
CONTINUOUS
10
125.418
20
-51.9892
11
125.574
21
-52.0933
0
LINE
8
BLACK
6
CONTINUOUS
10
125.574
20
-52.0933
11
125.707
21
-52.2258
0
LINE
8
BLACK
6
CONTINUOUS
10
125.707
20
-52.2258
11
125.707
21
-52.2258
0
LINE
8
BLACK
6
CONTINUOUS
10
125.707
20
-52.2258
11
125.811
21
-52.3815
0
LINE
8
BLACK
6
CONTINUOUS
10
125.811
20
-52.3815
11
125.882
21
-52.5546
0
LINE
8
BLACK
6
CONTINUOUS
10
125.882
20
-52.5546
11
125.919
21
-52.7383
0
LINE
8
BLACK
6
CONTINUOUS
10
125.919
20
-52.7383
11
125.919
21
-52.9257
0
LINE
8
BLACK
6
CONTINUOUS
10
125.919
20
-52.9257
11
125.882
21
-53.1094
0
LINE
8
BLACK
6
CONTINUOUS
10
125.882
20
-53.1094
11
125.811
21
-53.2825
0
LINE
8
BLACK
6
CONTINUOUS
10
125.811
20
-53.2825
11
125.787
21
-53.3181
0
LINE
8
BLACK
6
CONTINUOUS
10
125.787
20
-53.3181
11
125.707
21
-53.4382
0
LINE
8
BLACK
6
CONTINUOUS
10
125.707
20
-53.4382
11
125.574
21
-53.5707
0
LINE
8
BLACK
6
CONTINUOUS
10
125.574
20
-53.5707
11
125.496
21
-53.6231
0
LINE
8
BLACK
6
CONTINUOUS
10
125.496
20
-53.6231
11
125.418
21
-53.6748
0
LINE
8
BLACK
6
CONTINUOUS
10
125.418
20
-53.6748
11
125.245
21
-53.7465
0
LINE
8
BLACK
6
CONTINUOUS
10
125.245
20
-53.7465
11
125.062
21
-53.783
0
LINE
8
BLACK
6
CONTINUOUS
10
125.062
20
-53.783
11
124.874
21
-53.783
0
LINE
8
BLACK
6
CONTINUOUS
10
124.874
20
-53.783
11
124.691
21
-53.7465
0
LINE
8
BLACK
6
CONTINUOUS
10
124.691
20
-53.7465
11
124.518
21
-53.6748
0
LINE
8
BLACK
6
CONTINUOUS
10
124.518
20
-53.6748
11
124.44
21
-53.6231
0
LINE
8
BLACK
6
CONTINUOUS
10
124.44
20
-53.6231
11
124.362
21
-53.5707
0
LINE
8
BLACK
6
CONTINUOUS
10
124.362
20
-53.5707
11
124.229
21
-53.4382
0
LINE
8
BLACK
6
CONTINUOUS
10
124.229
20
-53.4382
11
124.149
21
-53.3181
0
LINE
8
BLACK
6
CONTINUOUS
10
124.149
20
-53.3181
11
124.125
21
-53.2825
0
LINE
8
BLACK
6
CONTINUOUS
10
124.125
20
-53.2825
11
124.054
21
-53.1094
0
LINE
8
BLACK
6
CONTINUOUS
10
124.054
20
-53.1094
11
124.017
21
-52.9257
0
LINE
8
BLACK
6
CONTINUOUS
10
124.017
20
-52.9257
11
124.017
21
-52.7383
0
LINE
8
BLACK
6
CONTINUOUS
10
124.017
20
-52.7383
11
124.054
21
-52.5546
0
LINE
8
BLACK
6
CONTINUOUS
10
124.054
20
-52.5546
11
124.125
21
-52.3815
0
LINE
8
BLACK
6
CONTINUOUS
10
124.125
20
-52.3815
11
124.229
21
-52.2258
0
LINE
8
BLACK
6
CONTINUOUS
10
124.229
20
-52.2258
11
124.229
21
-52.2258
0
LINE
8
BLACK
6
CONTINUOUS
10
124.229
20
-52.2258
11
124.362
21
-52.0933
0
LINE
8
BLACK
6
CONTINUOUS
10
124.362
20
-52.0933
11
124.518
21
-51.9892
0
LINE
8
BLACK
6
CONTINUOUS
10
124.518
20
-51.9892
11
124.518
21
-51.9892
0
LINE
8
BLACK
6
CONTINUOUS
10
124.518
20
-51.9892
11
124.691
21
-51.9175
0
LINE
8
BLACK
6
CONTINUOUS
10
124.691
20
-51.9175
11
124.874
21
-51.881
0
LINE
8
BLACK
6
CONTINUOUS
10
124.874
20
-51.881
11
125.062
21
-51.881
0
LINE
8
BLACK
6
CONTINUOUS
10
125.062
20
-51.881
11
125.245
21
-51.9175
0
LINE
8
BLACK
6
CONTINUOUS
10
115.53
20
-52.46
11
115.648
21
-52.5091
0
LINE
8
BLACK
6
CONTINUOUS
10
115.648
20
-52.5091
11
115.755
21
-52.5803
0
LINE
8
BLACK
6
CONTINUOUS
10
115.755
20
-52.5803
11
115.846
21
-52.671
0
LINE
8
BLACK
6
CONTINUOUS
10
115.846
20
-52.671
11
115.891
21
-52.7383
0
LINE
8
BLACK
6
CONTINUOUS
10
115.891
20
-52.7383
11
115.917
21
-52.7776
0
LINE
8
BLACK
6
CONTINUOUS
10
115.917
20
-52.7776
11
115.949
21
-52.8539
0
LINE
8
BLACK
6
CONTINUOUS
10
115.949
20
-52.8539
11
115.96
21
-52.8756
0
LINE
8
BLACK
6
CONTINUOUS
10
115.96
20
-52.8756
11
115.976
21
-52.8945
0
LINE
8
BLACK
6
CONTINUOUS
10
115.976
20
-52.8945
11
115.995
21
-52.91
0
LINE
8
BLACK
6
CONTINUOUS
10
115.995
20
-52.91
11
116.016
21
-52.9216
0
LINE
8
BLACK
6
CONTINUOUS
10
116.016
20
-52.9216
11
116.04
21
-52.9287
0
LINE
8
BLACK
6
CONTINUOUS
10
116.04
20
-52.9287
11
116.064
21
-52.9311
0
LINE
8
BLACK
6
CONTINUOUS
10
116.064
20
-52.9311
11
116.088
21
-52.9287
0
LINE
8
BLACK
6
CONTINUOUS
10
116.088
20
-52.9287
11
116.112
21
-52.9216
0
LINE
8
BLACK
6
CONTINUOUS
10
116.112
20
-52.9216
11
116.133
21
-52.91
0
LINE
8
BLACK
6
CONTINUOUS
10
116.133
20
-52.91
11
116.152
21
-52.8945
0
LINE
8
BLACK
6
CONTINUOUS
10
116.152
20
-52.8945
11
116.168
21
-52.8756
0
LINE
8
BLACK
6
CONTINUOUS
10
116.168
20
-52.8756
11
116.179
21
-52.8539
0
LINE
8
BLACK
6
CONTINUOUS
10
116.179
20
-52.8539
11
116.187
21
-52.8305
0
LINE
8
BLACK
6
CONTINUOUS
10
116.187
20
-52.8305
11
116.189
21
-52.8061
0
LINE
8
BLACK
6
CONTINUOUS
10
116.189
20
-52.8061
11
116.189
21
-52.435
0
LINE
8
BLACK
6
CONTINUOUS
10
116.189
20
-52.435
11
117.491
21
-52.435
0
LINE
8
BLACK
6
CONTINUOUS
10
117.491
20
-52.435
11
117.491
21
-53.737
0
LINE
8
BLACK
6
CONTINUOUS
10
117.491
20
-53.737
11
116.189
21
-53.737
0
LINE
8
BLACK
6
CONTINUOUS
10
116.189
20
-53.737
11
116.189
21
-53.3659
0
LINE
8
BLACK
6
CONTINUOUS
10
116.189
20
-53.3659
11
116.187
21
-53.3415
0
LINE
8
BLACK
6
CONTINUOUS
10
116.187
20
-53.3415
11
116.179
21
-53.3181
0
LINE
8
BLACK
6
CONTINUOUS
10
116.179
20
-53.3181
11
116.168
21
-53.2964
0
LINE
8
BLACK
6
CONTINUOUS
10
116.168
20
-53.2964
11
116.152
21
-53.2775
0
LINE
8
BLACK
6
CONTINUOUS
10
116.152
20
-53.2775
11
116.133
21
-53.262
0
LINE
8
BLACK
6
CONTINUOUS
10
116.133
20
-53.262
11
116.112
21
-53.2504
0
LINE
8
BLACK
6
CONTINUOUS
10
116.112
20
-53.2504
11
116.088
21
-53.2433
0
LINE
8
BLACK
6
CONTINUOUS
10
116.088
20
-53.2433
11
116.064
21
-53.2409
0
LINE
8
BLACK
6
CONTINUOUS
10
116.064
20
-53.2409
11
116.04
21
-53.2433
0
LINE
8
BLACK
6
CONTINUOUS
10
116.04
20
-53.2433
11
116.016
21
-53.2504
0
LINE
8
BLACK
6
CONTINUOUS
10
116.016
20
-53.2504
11
115.995
21
-53.262
0
LINE
8
BLACK
6
CONTINUOUS
10
115.995
20
-53.262
11
115.976
21
-53.2775
0
LINE
8
BLACK
6
CONTINUOUS
10
115.976
20
-53.2775
11
115.96
21
-53.2964
0
LINE
8
BLACK
6
CONTINUOUS
10
115.96
20
-53.2964
11
115.949
21
-53.3181
0
LINE
8
BLACK
6
CONTINUOUS
10
115.949
20
-53.3181
11
115.917
21
-53.3944
0
LINE
8
BLACK
6
CONTINUOUS
10
115.917
20
-53.3944
11
115.846
21
-53.501
0
LINE
8
BLACK
6
CONTINUOUS
10
115.846
20
-53.501
11
115.755
21
-53.5917
0
LINE
8
BLACK
6
CONTINUOUS
10
115.755
20
-53.5917
11
115.648
21
-53.6629
0
LINE
8
BLACK
6
CONTINUOUS
10
115.648
20
-53.6629
11
115.648
21
-53.6629
0
LINE
8
BLACK
6
CONTINUOUS
10
115.648
20
-53.6629
11
115.648
21
-53.6629
0
LINE
8
BLACK
6
CONTINUOUS
10
115.648
20
-53.6629
11
115.53
21
-53.712
0
LINE
8
BLACK
6
CONTINUOUS
10
115.53
20
-53.712
11
115.404
21
-53.737
0
LINE
8
BLACK
6
CONTINUOUS
10
115.404
20
-53.737
11
115.276
21
-53.737
0
LINE
8
BLACK
6
CONTINUOUS
10
115.276
20
-53.737
11
115.15
21
-53.712
0
LINE
8
BLACK
6
CONTINUOUS
10
115.15
20
-53.712
11
115.032
21
-53.6629
0
LINE
8
BLACK
6
CONTINUOUS
10
115.032
20
-53.6629
11
115.032
21
-53.6629
0
LINE
8
BLACK
6
CONTINUOUS
10
115.032
20
-53.6629
11
115.032
21
-53.6629
0
LINE
8
BLACK
6
CONTINUOUS
10
115.032
20
-53.6629
11
114.925
21
-53.5917
0
LINE
8
BLACK
6
CONTINUOUS
10
114.925
20
-53.5917
11
114.834
21
-53.501
0
LINE
8
BLACK
6
CONTINUOUS
10
114.834
20
-53.501
11
114.763
21
-53.3944
0
LINE
8
BLACK
6
CONTINUOUS
10
114.763
20
-53.3944
11
114.714
21
-53.2759
0
LINE
8
BLACK
6
CONTINUOUS
10
114.714
20
-53.2759
11
114.689
21
-53.1501
0
LINE
8
BLACK
6
CONTINUOUS
10
114.689
20
-53.1501
11
114.689
21
-53.0219
0
LINE
8
BLACK
6
CONTINUOUS
10
114.689
20
-53.0219
11
114.714
21
-52.8961
0
LINE
8
BLACK
6
CONTINUOUS
10
114.714
20
-52.8961
11
114.763
21
-52.7776
0
LINE
8
BLACK
6
CONTINUOUS
10
114.763
20
-52.7776
11
114.834
21
-52.671
0
LINE
8
BLACK
6
CONTINUOUS
10
114.834
20
-52.671
11
114.925
21
-52.5803
0
LINE
8
BLACK
6
CONTINUOUS
10
114.925
20
-52.5803
11
115.032
21
-52.5091
0
LINE
8
BLACK
6
CONTINUOUS
10
115.032
20
-52.5091
11
115.15
21
-52.46
0
LINE
8
BLACK
6
CONTINUOUS
10
115.15
20
-52.46
11
115.276
21
-52.435
0
LINE
8
BLACK
6
CONTINUOUS
10
115.276
20
-52.435
11
115.404
21
-52.435
0
LINE
8
BLACK
6
CONTINUOUS
10
115.404
20
-52.435
11
115.53
21
-52.46
0
LINE
8
BLACK
6
CONTINUOUS
10
108.672
20
-52.46
11
108.79
21
-52.5091
0
LINE
8
BLACK
6
CONTINUOUS
10
108.79
20
-52.5091
11
108.897
21
-52.5803
0
LINE
8
BLACK
6
CONTINUOUS
10
108.897
20
-52.5803
11
108.988
21
-52.671
0
LINE
8
BLACK
6
CONTINUOUS
10
108.988
20
-52.671
11
109.033
21
-52.7383
0
LINE
8
BLACK
6
CONTINUOUS
10
109.033
20
-52.7383
11
109.059
21
-52.7776
0
LINE
8
BLACK
6
CONTINUOUS
10
109.059
20
-52.7776
11
109.091
21
-52.8539
0
LINE
8
BLACK
6
CONTINUOUS
10
109.091
20
-52.8539
11
109.102
21
-52.8756
0
LINE
8
BLACK
6
CONTINUOUS
10
109.102
20
-52.8756
11
109.118
21
-52.8945
0
LINE
8
BLACK
6
CONTINUOUS
10
109.118
20
-52.8945
11
109.137
21
-52.91
0
LINE
8
BLACK
6
CONTINUOUS
10
109.137
20
-52.91
11
109.158
21
-52.9216
0
LINE
8
BLACK
6
CONTINUOUS
10
109.158
20
-52.9216
11
109.182
21
-52.9287
0
LINE
8
BLACK
6
CONTINUOUS
10
109.182
20
-52.9287
11
109.206
21
-52.9311
0
LINE
8
BLACK
6
CONTINUOUS
10
109.206
20
-52.9311
11
109.23
21
-52.9287
0
LINE
8
BLACK
6
CONTINUOUS
10
109.23
20
-52.9287
11
109.254
21
-52.9216
0
LINE
8
BLACK
6
CONTINUOUS
10
109.254
20
-52.9216
11
109.275
21
-52.91
0
LINE
8
BLACK
6
CONTINUOUS
10
109.275
20
-52.91
11
109.294
21
-52.8945
0
LINE
8
BLACK
6
CONTINUOUS
10
109.294
20
-52.8945
11
109.31
21
-52.8756
0
LINE
8
BLACK
6
CONTINUOUS
10
109.31
20
-52.8756
11
109.321
21
-52.8539
0
LINE
8
BLACK
6
CONTINUOUS
10
109.321
20
-52.8539
11
109.329
21
-52.8305
0
LINE
8
BLACK
6
CONTINUOUS
10
109.329
20
-52.8305
11
109.331
21
-52.8061
0
LINE
8
BLACK
6
CONTINUOUS
10
109.331
20
-52.8061
11
109.331
21
-52.435
0
LINE
8
BLACK
6
CONTINUOUS
10
109.331
20
-52.435
11
110.633
21
-52.435
0
LINE
8
BLACK
6
CONTINUOUS
10
110.633
20
-52.435
11
110.633
21
-53.737
0
LINE
8
BLACK
6
CONTINUOUS
10
110.633
20
-53.737
11
109.331
21
-53.737
0
LINE
8
BLACK
6
CONTINUOUS
10
109.331
20
-53.737
11
109.331
21
-53.3659
0
LINE
8
BLACK
6
CONTINUOUS
10
109.331
20
-53.3659
11
109.329
21
-53.3415
0
LINE
8
BLACK
6
CONTINUOUS
10
109.329
20
-53.3415
11
109.321
21
-53.3181
0
LINE
8
BLACK
6
CONTINUOUS
10
109.321
20
-53.3181
11
109.31
21
-53.2964
0
LINE
8
BLACK
6
CONTINUOUS
10
109.31
20
-53.2964
11
109.294
21
-53.2775
0
LINE
8
BLACK
6
CONTINUOUS
10
109.294
20
-53.2775
11
109.275
21
-53.262
0
LINE
8
BLACK
6
CONTINUOUS
10
109.275
20
-53.262
11
109.254
21
-53.2504
0
LINE
8
BLACK
6
CONTINUOUS
10
109.254
20
-53.2504
11
109.23
21
-53.2433
0
LINE
8
BLACK
6
CONTINUOUS
10
109.23
20
-53.2433
11
109.206
21
-53.2409
0
LINE
8
BLACK
6
CONTINUOUS
10
109.206
20
-53.2409
11
109.182
21
-53.2433
0
LINE
8
BLACK
6
CONTINUOUS
10
109.182
20
-53.2433
11
109.158
21
-53.2504
0
LINE
8
BLACK
6
CONTINUOUS
10
109.158
20
-53.2504
11
109.137
21
-53.262
0
LINE
8
BLACK
6
CONTINUOUS
10
109.137
20
-53.262
11
109.118
21
-53.2775
0
LINE
8
BLACK
6
CONTINUOUS
10
109.118
20
-53.2775
11
109.102
21
-53.2964
0
LINE
8
BLACK
6
CONTINUOUS
10
109.102
20
-53.2964
11
109.091
21
-53.3181
0
LINE
8
BLACK
6
CONTINUOUS
10
109.091
20
-53.3181
11
109.059
21
-53.3944
0
LINE
8
BLACK
6
CONTINUOUS
10
109.059
20
-53.3944
11
108.988
21
-53.501
0
LINE
8
BLACK
6
CONTINUOUS
10
108.988
20
-53.501
11
108.897
21
-53.5917
0
LINE
8
BLACK
6
CONTINUOUS
10
108.897
20
-53.5917
11
108.79
21
-53.6629
0
LINE
8
BLACK
6
CONTINUOUS
10
108.79
20
-53.6629
11
108.79
21
-53.6629
0
LINE
8
BLACK
6
CONTINUOUS
10
108.79
20
-53.6629
11
108.79
21
-53.6629
0
LINE
8
BLACK
6
CONTINUOUS
10
108.79
20
-53.6629
11
108.672
21
-53.712
0
LINE
8
BLACK
6
CONTINUOUS
10
108.672
20
-53.712
11
108.546
21
-53.737
0
LINE
8
BLACK
6
CONTINUOUS
10
108.546
20
-53.737
11
108.418
21
-53.737
0
LINE
8
BLACK
6
CONTINUOUS
10
108.418
20
-53.737
11
108.292
21
-53.712
0
LINE
8
BLACK
6
CONTINUOUS
10
108.292
20
-53.712
11
108.174
21
-53.6629
0
LINE
8
BLACK
6
CONTINUOUS
10
108.174
20
-53.6629
11
108.174
21
-53.6629
0
LINE
8
BLACK
6
CONTINUOUS
10
108.174
20
-53.6629
11
108.174
21
-53.6629
0
LINE
8
BLACK
6
CONTINUOUS
10
108.174
20
-53.6629
11
108.067
21
-53.5917
0
LINE
8
BLACK
6
CONTINUOUS
10
108.067
20
-53.5917
11
107.976
21
-53.501
0
LINE
8
BLACK
6
CONTINUOUS
10
107.976
20
-53.501
11
107.905
21
-53.3944
0
LINE
8
BLACK
6
CONTINUOUS
10
107.905
20
-53.3944
11
107.856
21
-53.2759
0
LINE
8
BLACK
6
CONTINUOUS
10
107.856
20
-53.2759
11
107.831
21
-53.1501
0
LINE
8
BLACK
6
CONTINUOUS
10
107.831
20
-53.1501
11
107.831
21
-53.0219
0
LINE
8
BLACK
6
CONTINUOUS
10
107.831
20
-53.0219
11
107.856
21
-52.8961
0
LINE
8
BLACK
6
CONTINUOUS
10
107.856
20
-52.8961
11
107.905
21
-52.7776
0
LINE
8
BLACK
6
CONTINUOUS
10
107.905
20
-52.7776
11
107.976
21
-52.671
0
LINE
8
BLACK
6
CONTINUOUS
10
107.976
20
-52.671
11
108.067
21
-52.5803
0
LINE
8
BLACK
6
CONTINUOUS
10
108.067
20
-52.5803
11
108.174
21
-52.5091
0
LINE
8
BLACK
6
CONTINUOUS
10
108.174
20
-52.5091
11
108.292
21
-52.46
0
LINE
8
BLACK
6
CONTINUOUS
10
108.292
20
-52.46
11
108.418
21
-52.435
0
LINE
8
BLACK
6
CONTINUOUS
10
108.418
20
-52.435
11
108.546
21
-52.435
0
LINE
8
BLACK
6
CONTINUOUS
10
108.546
20
-52.435
11
108.672
21
-52.46
0
LINE
8
BLACK
6
CONTINUOUS
10
132.573
20
-53.733
11
130.571
21
-53.733
0
LINE
8
BLACK
6
CONTINUOUS
10
130.571
20
-53.733
11
130.571
21
-51.931
0
LINE
8
BLACK
6
CONTINUOUS
10
130.571
20
-51.931
11
132.573
21
-51.931
0
LINE
8
BLACK
6
CONTINUOUS
10
132.573
20
-51.931
11
132.573
21
-53.733
0
LINE
8
BLACK
6
CONTINUOUS
10
135.113
20
-53.733
11
133.111
21
-53.733
0
LINE
8
BLACK
6
CONTINUOUS
10
133.111
20
-53.733
11
133.111
21
-51.931
0
LINE
8
BLACK
6
CONTINUOUS
10
133.111
20
-51.931
11
135.113
21
-51.931
0
LINE
8
BLACK
6
CONTINUOUS
10
135.113
20
-51.931
11
135.113
21
-53.733
0
LINE
8
BLACK
6
CONTINUOUS
10
143.241
20
-53.733
11
141.239
21
-53.733
0
LINE
8
BLACK
6
CONTINUOUS
10
141.239
20
-53.733
11
141.239
21
-51.931
0
LINE
8
BLACK
6
CONTINUOUS
10
141.239
20
-51.931
11
143.241
21
-51.931
0
LINE
8
BLACK
6
CONTINUOUS
10
143.241
20
-51.931
11
143.241
21
-53.733
0
LINE
8
BLACK
6
CONTINUOUS
10
140.701
20
-53.733
11
138.699
21
-53.733
0
LINE
8
BLACK
6
CONTINUOUS
10
138.699
20
-53.733
11
138.699
21
-51.931
0
LINE
8
BLACK
6
CONTINUOUS
10
138.699
20
-51.931
11
140.701
21
-51.931
0
LINE
8
BLACK
6
CONTINUOUS
10
140.701
20
-51.931
11
140.701
21
-53.733
0
LINE
8
BLACK
6
CONTINUOUS
10
103.159
20
-53.629
11
101.057
21
-53.629
0
LINE
8
BLACK
6
CONTINUOUS
10
101.057
20
-53.629
11
101.057
21
-51.527
0
LINE
8
BLACK
6
CONTINUOUS
10
101.057
20
-51.527
11
103.159
21
-51.527
0
LINE
8
BLACK
6
CONTINUOUS
10
103.159
20
-51.527
11
103.159
21
-53.629
0
LINE
8
BLACK
6
CONTINUOUS
10
140.701
20
-51.193
11
138.699
21
-51.193
0
LINE
8
BLACK
6
CONTINUOUS
10
138.699
20
-51.193
11
138.699
21
-49.391
0
LINE
8
BLACK
6
CONTINUOUS
10
138.699
20
-49.391
11
140.701
21
-49.391
0
LINE
8
BLACK
6
CONTINUOUS
10
140.701
20
-49.391
11
140.701
21
-51.193
0
LINE
8
BLACK
6
CONTINUOUS
10
143.241
20
-51.193
11
141.239
21
-51.193
0
LINE
8
BLACK
6
CONTINUOUS
10
141.239
20
-51.193
11
141.239
21
-49.391
0
LINE
8
BLACK
6
CONTINUOUS
10
141.239
20
-49.391
11
143.241
21
-49.391
0
LINE
8
BLACK
6
CONTINUOUS
10
143.241
20
-49.391
11
143.241
21
-51.193
0
LINE
8
BLACK
6
CONTINUOUS
10
135.113
20
-51.193
11
133.111
21
-51.193
0
LINE
8
BLACK
6
CONTINUOUS
10
133.111
20
-51.193
11
133.111
21
-49.391
0
LINE
8
BLACK
6
CONTINUOUS
10
133.111
20
-49.391
11
135.113
21
-49.391
0
LINE
8
BLACK
6
CONTINUOUS
10
135.113
20
-49.391
11
135.113
21
-51.193
0
LINE
8
BLACK
6
CONTINUOUS
10
132.573
20
-51.193
11
130.571
21
-51.193
0
LINE
8
BLACK
6
CONTINUOUS
10
130.571
20
-51.193
11
130.571
21
-49.391
0
LINE
8
BLACK
6
CONTINUOUS
10
130.571
20
-49.391
11
132.573
21
-49.391
0
LINE
8
BLACK
6
CONTINUOUS
10
132.573
20
-49.391
11
132.573
21
-51.193
0
LINE
8
BLACK
6
CONTINUOUS
10
135.113
20
-48.653
11
133.111
21
-48.653
0
LINE
8
BLACK
6
CONTINUOUS
10
133.111
20
-48.653
11
133.111
21
-46.851
0
LINE
8
BLACK
6
CONTINUOUS
10
133.111
20
-46.851
11
135.113
21
-46.851
0
LINE
8
BLACK
6
CONTINUOUS
10
135.113
20
-46.851
11
135.113
21
-48.653
0
LINE
8
BLACK
6
CONTINUOUS
10
143.241
20
-48.653
11
141.239
21
-48.653
0
LINE
8
BLACK
6
CONTINUOUS
10
141.239
20
-48.653
11
141.239
21
-46.851
0
LINE
8
BLACK
6
CONTINUOUS
10
141.239
20
-46.851
11
143.241
21
-46.851
0
LINE
8
BLACK
6
CONTINUOUS
10
143.241
20
-46.851
11
143.241
21
-48.653
0
LINE
8
BLACK
6
CONTINUOUS
10
132.573
20
-48.653
11
130.571
21
-48.653
0
LINE
8
BLACK
6
CONTINUOUS
10
130.571
20
-48.653
11
130.571
21
-46.851
0
LINE
8
BLACK
6
CONTINUOUS
10
130.571
20
-46.851
11
132.573
21
-46.851
0
LINE
8
BLACK
6
CONTINUOUS
10
132.573
20
-46.851
11
132.573
21
-48.653
0
LINE
8
BLACK
6
CONTINUOUS
10
140.701
20
-48.653
11
138.699
21
-48.653
0
LINE
8
BLACK
6
CONTINUOUS
10
138.699
20
-48.653
11
138.699
21
-46.851
0
LINE
8
BLACK
6
CONTINUOUS
10
138.699
20
-46.851
11
140.701
21
-46.851
0
LINE
8
BLACK
6
CONTINUOUS
10
140.701
20
-46.851
11
140.701
21
-48.653
0
LINE
8
BLACK
6
CONTINUOUS
10
107.491
20
-44.1988
11
107.64
21
-44.2286
0
LINE
8
BLACK
6
CONTINUOUS
10
107.64
20
-44.2286
11
107.923
21
-44.3455
0
LINE
8
BLACK
6
CONTINUOUS
10
107.923
20
-44.3455
11
108.177
21
-44.5153
0
LINE
8
BLACK
6
CONTINUOUS
10
108.177
20
-44.5153
11
108.393
21
-44.7313
0
LINE
8
BLACK
6
CONTINUOUS
10
108.393
20
-44.7313
11
108.562
21
-44.9853
0
LINE
8
BLACK
6
CONTINUOUS
10
108.562
20
-44.9853
11
108.679
21
-45.2676
0
LINE
8
BLACK
6
CONTINUOUS
10
108.679
20
-45.2676
11
108.739
21
-45.5672
0
LINE
8
BLACK
6
CONTINUOUS
10
108.739
20
-45.5672
11
108.739
21
-45.8728
0
LINE
8
BLACK
6
CONTINUOUS
10
108.739
20
-45.8728
11
108.679
21
-46.1724
0
LINE
8
BLACK
6
CONTINUOUS
10
108.679
20
-46.1724
11
108.562
21
-46.4547
0
LINE
8
BLACK
6
CONTINUOUS
10
108.562
20
-46.4547
11
108.393
21
-46.7087
0
LINE
8
BLACK
6
CONTINUOUS
10
108.393
20
-46.7087
11
108.177
21
-46.9247
0
LINE
8
BLACK
6
CONTINUOUS
10
108.177
20
-46.9247
11
107.923
21
-47.0945
0
LINE
8
BLACK
6
CONTINUOUS
10
107.923
20
-47.0945
11
107.64
21
-47.2114
0
LINE
8
BLACK
6
CONTINUOUS
10
107.64
20
-47.2114
11
107.491
21
-47.2412
0
LINE
8
BLACK
6
CONTINUOUS
10
107.491
20
-47.2412
11
107.341
21
-47.271
0
LINE
8
BLACK
6
CONTINUOUS
10
107.341
20
-47.271
11
107.035
21
-47.271
0
LINE
8
BLACK
6
CONTINUOUS
10
107.035
20
-47.271
11
106.885
21
-47.2412
0
LINE
8
BLACK
6
CONTINUOUS
10
106.885
20
-47.2412
11
106.736
21
-47.2114
0
LINE
8
BLACK
6
CONTINUOUS
10
106.736
20
-47.2114
11
106.453
21
-47.0945
0
LINE
8
BLACK
6
CONTINUOUS
10
106.453
20
-47.0945
11
106.199
21
-46.9247
0
LINE
8
BLACK
6
CONTINUOUS
10
106.199
20
-46.9247
11
105.983
21
-46.7087
0
LINE
8
BLACK
6
CONTINUOUS
10
105.983
20
-46.7087
11
105.814
21
-46.4547
0
LINE
8
BLACK
6
CONTINUOUS
10
105.814
20
-46.4547
11
105.697
21
-46.1724
0
LINE
8
BLACK
6
CONTINUOUS
10
105.697
20
-46.1724
11
105.637
21
-45.8728
0
LINE
8
BLACK
6
CONTINUOUS
10
105.637
20
-45.8728
11
105.637
21
-45.5672
0
LINE
8
BLACK
6
CONTINUOUS
10
105.637
20
-45.5672
11
105.697
21
-45.2676
0
LINE
8
BLACK
6
CONTINUOUS
10
105.697
20
-45.2676
11
105.814
21
-44.9853
0
LINE
8
BLACK
6
CONTINUOUS
10
105.814
20
-44.9853
11
105.983
21
-44.7313
0
LINE
8
BLACK
6
CONTINUOUS
10
105.983
20
-44.7313
11
106.199
21
-44.5153
0
LINE
8
BLACK
6
CONTINUOUS
10
106.199
20
-44.5153
11
106.453
21
-44.3455
0
LINE
8
BLACK
6
CONTINUOUS
10
106.453
20
-44.3455
11
106.736
21
-44.2286
0
LINE
8
BLACK
6
CONTINUOUS
10
106.736
20
-44.2286
11
106.885
21
-44.1988
0
LINE
8
BLACK
6
CONTINUOUS
10
106.885
20
-44.1988
11
107.035
21
-44.169
0
LINE
8
BLACK
6
CONTINUOUS
10
107.035
20
-44.169
11
107.341
21
-44.169
0
LINE
8
BLACK
6
CONTINUOUS
10
107.341
20
-44.169
11
107.491
21
-44.1988
0
LINE
8
BLACK
6
CONTINUOUS
10
118.899
20
-47.271
11
115.797
21
-47.271
0
LINE
8
BLACK
6
CONTINUOUS
10
115.797
20
-47.271
11
115.797
21
-44.169
0
LINE
8
BLACK
6
CONTINUOUS
10
115.797
20
-44.169
11
118.899
21
-44.169
0
LINE
8
BLACK
6
CONTINUOUS
10
118.899
20
-44.169
11
118.899
21
-47.271
0
LINE
8
BLACK
6
CONTINUOUS
10
112.571
20
-44.1988
11
112.72
21
-44.2286
0
LINE
8
BLACK
6
CONTINUOUS
10
112.72
20
-44.2286
11
113.003
21
-44.3455
0
LINE
8
BLACK
6
CONTINUOUS
10
113.003
20
-44.3455
11
113.257
21
-44.5153
0
LINE
8
BLACK
6
CONTINUOUS
10
113.257
20
-44.5153
11
113.473
21
-44.7313
0
LINE
8
BLACK
6
CONTINUOUS
10
113.473
20
-44.7313
11
113.642
21
-44.9853
0
LINE
8
BLACK
6
CONTINUOUS
10
113.642
20
-44.9853
11
113.759
21
-45.2676
0
LINE
8
BLACK
6
CONTINUOUS
10
113.759
20
-45.2676
11
113.819
21
-45.5672
0
LINE
8
BLACK
6
CONTINUOUS
10
113.819
20
-45.5672
11
113.819
21
-45.8728
0
LINE
8
BLACK
6
CONTINUOUS
10
113.819
20
-45.8728
11
113.759
21
-46.1724
0
LINE
8
BLACK
6
CONTINUOUS
10
113.759
20
-46.1724
11
113.642
21
-46.4547
0
LINE
8
BLACK
6
CONTINUOUS
10
113.642
20
-46.4547
11
113.473
21
-46.7087
0
LINE
8
BLACK
6
CONTINUOUS
10
113.473
20
-46.7087
11
113.257
21
-46.9247
0
LINE
8
BLACK
6
CONTINUOUS
10
113.257
20
-46.9247
11
113.003
21
-47.0945
0
LINE
8
BLACK
6
CONTINUOUS
10
113.003
20
-47.0945
11
112.72
21
-47.2114
0
LINE
8
BLACK
6
CONTINUOUS
10
112.72
20
-47.2114
11
112.571
21
-47.2412
0
LINE
8
BLACK
6
CONTINUOUS
10
112.571
20
-47.2412
11
112.421
21
-47.271
0
LINE
8
BLACK
6
CONTINUOUS
10
112.421
20
-47.271
11
112.115
21
-47.271
0
LINE
8
BLACK
6
CONTINUOUS
10
112.115
20
-47.271
11
111.965
21
-47.2412
0
LINE
8
BLACK
6
CONTINUOUS
10
111.965
20
-47.2412
11
111.816
21
-47.2114
0
LINE
8
BLACK
6
CONTINUOUS
10
111.816
20
-47.2114
11
111.533
21
-47.0945
0
LINE
8
BLACK
6
CONTINUOUS
10
111.533
20
-47.0945
11
111.279
21
-46.9247
0
LINE
8
BLACK
6
CONTINUOUS
10
111.279
20
-46.9247
11
111.063
21
-46.7087
0
LINE
8
BLACK
6
CONTINUOUS
10
111.063
20
-46.7087
11
110.894
21
-46.4547
0
LINE
8
BLACK
6
CONTINUOUS
10
110.894
20
-46.4547
11
110.777
21
-46.1724
0
LINE
8
BLACK
6
CONTINUOUS
10
110.777
20
-46.1724
11
110.717
21
-45.8728
0
LINE
8
BLACK
6
CONTINUOUS
10
110.717
20
-45.8728
11
110.717
21
-45.5672
0
LINE
8
BLACK
6
CONTINUOUS
10
110.717
20
-45.5672
11
110.777
21
-45.2676
0
LINE
8
BLACK
6
CONTINUOUS
10
110.777
20
-45.2676
11
110.894
21
-44.9853
0
LINE
8
BLACK
6
CONTINUOUS
10
110.894
20
-44.9853
11
111.063
21
-44.7313
0
LINE
8
BLACK
6
CONTINUOUS
10
111.063
20
-44.7313
11
111.279
21
-44.5153
0
LINE
8
BLACK
6
CONTINUOUS
10
111.279
20
-44.5153
11
111.533
21
-44.3455
0
LINE
8
BLACK
6
CONTINUOUS
10
111.533
20
-44.3455
11
111.816
21
-44.2286
0
LINE
8
BLACK
6
CONTINUOUS
10
111.816
20
-44.2286
11
111.965
21
-44.1988
0
LINE
8
BLACK
6
CONTINUOUS
10
111.965
20
-44.1988
11
112.115
21
-44.169
0
LINE
8
BLACK
6
CONTINUOUS
10
112.115
20
-44.169
11
112.421
21
-44.169
0
LINE
8
BLACK
6
CONTINUOUS
10
112.421
20
-44.169
11
112.571
21
-44.1988
0
LINE
8
BLACK
6
CONTINUOUS
10
102.411
20
-44.1988
11
102.56
21
-44.2286
0
LINE
8
BLACK
6
CONTINUOUS
10
102.56
20
-44.2286
11
102.843
21
-44.3455
0
LINE
8
BLACK
6
CONTINUOUS
10
102.843
20
-44.3455
11
103.097
21
-44.5153
0
LINE
8
BLACK
6
CONTINUOUS
10
103.097
20
-44.5153
11
103.313
21
-44.7313
0
LINE
8
BLACK
6
CONTINUOUS
10
103.313
20
-44.7313
11
103.482
21
-44.9853
0
LINE
8
BLACK
6
CONTINUOUS
10
103.482
20
-44.9853
11
103.599
21
-45.2676
0
LINE
8
BLACK
6
CONTINUOUS
10
103.599
20
-45.2676
11
103.659
21
-45.5672
0
LINE
8
BLACK
6
CONTINUOUS
10
103.659
20
-45.5672
11
103.659
21
-45.8728
0
LINE
8
BLACK
6
CONTINUOUS
10
103.659
20
-45.8728
11
103.599
21
-46.1724
0
LINE
8
BLACK
6
CONTINUOUS
10
103.599
20
-46.1724
11
103.482
21
-46.4547
0
LINE
8
BLACK
6
CONTINUOUS
10
103.482
20
-46.4547
11
103.313
21
-46.7087
0
LINE
8
BLACK
6
CONTINUOUS
10
103.313
20
-46.7087
11
103.097
21
-46.9247
0
LINE
8
BLACK
6
CONTINUOUS
10
103.097
20
-46.9247
11
102.843
21
-47.0945
0
LINE
8
BLACK
6
CONTINUOUS
10
102.843
20
-47.0945
11
102.56
21
-47.2114
0
LINE
8
BLACK
6
CONTINUOUS
10
102.56
20
-47.2114
11
102.411
21
-47.2412
0
LINE
8
BLACK
6
CONTINUOUS
10
102.411
20
-47.2412
11
102.261
21
-47.271
0
LINE
8
BLACK
6
CONTINUOUS
10
102.261
20
-47.271
11
101.955
21
-47.271
0
LINE
8
BLACK
6
CONTINUOUS
10
101.955
20
-47.271
11
101.805
21
-47.2412
0
LINE
8
BLACK
6
CONTINUOUS
10
101.805
20
-47.2412
11
101.656
21
-47.2114
0
LINE
8
BLACK
6
CONTINUOUS
10
101.656
20
-47.2114
11
101.373
21
-47.0945
0
LINE
8
BLACK
6
CONTINUOUS
10
101.373
20
-47.0945
11
101.119
21
-46.9247
0
LINE
8
BLACK
6
CONTINUOUS
10
101.119
20
-46.9247
11
100.903
21
-46.7087
0
LINE
8
BLACK
6
CONTINUOUS
10
100.903
20
-46.7087
11
100.734
21
-46.4547
0
LINE
8
BLACK
6
CONTINUOUS
10
100.734
20
-46.4547
11
100.617
21
-46.1724
0
LINE
8
BLACK
6
CONTINUOUS
10
100.617
20
-46.1724
11
100.557
21
-45.8728
0
LINE
8
BLACK
6
CONTINUOUS
10
100.557
20
-45.8728
11
100.557
21
-45.5672
0
LINE
8
BLACK
6
CONTINUOUS
10
100.557
20
-45.5672
11
100.617
21
-45.2676
0
LINE
8
BLACK
6
CONTINUOUS
10
100.617
20
-45.2676
11
100.734
21
-44.9853
0
LINE
8
BLACK
6
CONTINUOUS
10
100.734
20
-44.9853
11
100.903
21
-44.7313
0
LINE
8
BLACK
6
CONTINUOUS
10
100.903
20
-44.7313
11
101.119
21
-44.5153
0
LINE
8
BLACK
6
CONTINUOUS
10
101.119
20
-44.5153
11
101.373
21
-44.3455
0
LINE
8
BLACK
6
CONTINUOUS
10
101.373
20
-44.3455
11
101.656
21
-44.2286
0
LINE
8
BLACK
6
CONTINUOUS
10
101.656
20
-44.2286
11
101.805
21
-44.1988
0
LINE
8
BLACK
6
CONTINUOUS
10
101.805
20
-44.1988
11
101.955
21
-44.169
0
LINE
8
BLACK
6
CONTINUOUS
10
101.955
20
-44.169
11
102.261
21
-44.169
0
LINE
8
BLACK
6
CONTINUOUS
10
102.261
20
-44.169
11
102.411
21
-44.1988
0
LINE
8
BLACK
6
CONTINUOUS
10
143.241
20
-46.113
11
141.239
21
-46.113
0
LINE
8
BLACK
6
CONTINUOUS
10
141.239
20
-46.113
11
141.239
21
-44.311
0
LINE
8
BLACK
6
CONTINUOUS
10
141.239
20
-44.311
11
143.241
21
-44.311
0
LINE
8
BLACK
6
CONTINUOUS
10
143.241
20
-44.311
11
143.241
21
-46.113
0
LINE
8
BLACK
6
CONTINUOUS
10
140.701
20
-46.113
11
138.699
21
-46.113
0
LINE
8
BLACK
6
CONTINUOUS
10
138.699
20
-46.113
11
138.699
21
-44.311
0
LINE
8
BLACK
6
CONTINUOUS
10
138.699
20
-44.311
11
140.701
21
-44.311
0
LINE
8
BLACK
6
CONTINUOUS
10
140.701
20
-44.311
11
140.701
21
-46.113
0
LINE
8
BLACK
6
CONTINUOUS
10
135.113
20
-46.113
11
133.111
21
-46.113
0
LINE
8
BLACK
6
CONTINUOUS
10
133.111
20
-46.113
11
133.111
21
-44.311
0
LINE
8
BLACK
6
CONTINUOUS
10
133.111
20
-44.311
11
135.113
21
-44.311
0
LINE
8
BLACK
6
CONTINUOUS
10
135.113
20
-44.311
11
135.113
21
-46.113
0
LINE
8
BLACK
6
CONTINUOUS
10
132.573
20
-46.113
11
130.571
21
-46.113
0
LINE
8
BLACK
6
CONTINUOUS
10
130.571
20
-46.113
11
130.571
21
-44.311
0
LINE
8
BLACK
6
CONTINUOUS
10
130.571
20
-44.311
11
132.573
21
-44.311
0
LINE
8
BLACK
6
CONTINUOUS
10
132.573
20
-44.311
11
132.573
21
-46.113
  0
ENDSEC
  0
EOF
