G04 #@! TF.GenerationSoftware,KiCad,Pcbnew,(5.1.2)-2*
G04 #@! TF.CreationDate,2020-04-13T13:08:01+07:00*
G04 #@! TF.ProjectId,arduino_due_shield,61726475-696e-46f5-9f64-75655f736869,rev?*
G04 #@! TF.SameCoordinates,Original*
G04 #@! TF.FileFunction,Copper,L1,Top*
G04 #@! TF.FilePolarity,Positive*
%FSLAX46Y46*%
G04 Gerber Fmt 4.6, Leading zero omitted, Abs format (unit mm)*
G04 Created by KiCad (PCBNEW (5.1.2)-2) date 2020-04-13 13:08:01*
%MOMM*%
%LPD*%
G04 APERTURE LIST*
%ADD10R,1.700000X1.900000*%
%ADD11O,1.727200X1.727200*%
%ADD12R,1.727200X1.400000*%
%ADD13R,1.400000X1.727200*%
%ADD14R,1.700000X1.800000*%
%ADD15R,1.900000X1.700000*%
%ADD16R,1.800000X1.700000*%
%ADD17R,1.200000X1.200000*%
%ADD18C,1.200000*%
%ADD19C,1.800000*%
%ADD20R,1.800000X1.800000*%
%ADD21C,3.000000*%
%ADD22R,3.000000X3.000000*%
%ADD23R,1.300000X1.300000*%
%ADD24O,1.300000X1.300000*%
%ADD25R,1.700000X1.700000*%
%ADD26O,1.100000X1.100000*%
%ADD27O,1.200000X1.200000*%
%ADD28R,1.700000X1.400000*%
%ADD29C,2.400000*%
%ADD30O,2.400000X2.400000*%
%ADD31O,1.700000X1.700000*%
%ADD32R,2.000000X2.000000*%
%ADD33C,4.000000*%
G04 APERTURE END LIST*
D10*
X98806000Y-91694000D03*
D11*
X98806000Y-86614000D03*
X98806000Y-84074000D03*
X98806000Y-81534000D03*
X98806000Y-78994000D03*
X98806000Y-76454000D03*
X98806000Y-73914000D03*
X98806000Y-71374000D03*
D12*
X147066000Y-127254000D03*
X147066000Y-124714000D03*
X147066000Y-122174000D03*
X147066000Y-119634000D03*
X147066000Y-117094000D03*
X147066000Y-114554000D03*
X147066000Y-112014000D03*
X147066000Y-109474000D03*
D10*
X147066000Y-104394000D03*
X147066000Y-101854000D03*
X147066000Y-99314000D03*
X147066000Y-96774000D03*
X147066000Y-94234000D03*
X147066000Y-91694000D03*
X147066000Y-89154000D03*
X147066000Y-86614000D03*
X147066000Y-67310000D03*
X147066000Y-82550000D03*
X147066000Y-80010000D03*
X147066000Y-77470000D03*
X147066000Y-59690000D03*
X147066000Y-62230000D03*
X147066000Y-64770000D03*
X147066000Y-69850000D03*
X147066000Y-72390000D03*
X147066000Y-74930000D03*
D11*
X98806000Y-68834000D03*
D10*
X98806000Y-94234000D03*
X98806000Y-96774000D03*
X98806000Y-99314000D03*
X98806000Y-101854000D03*
X98806000Y-104394000D03*
X98806000Y-106934000D03*
X98806000Y-109474000D03*
D12*
X98806000Y-114554000D03*
X98806000Y-117094000D03*
X98806000Y-119634000D03*
X98806000Y-122174000D03*
X98806000Y-124714000D03*
X98806000Y-127254000D03*
X98806000Y-129794000D03*
X98806000Y-132334000D03*
D13*
X147066000Y-134874000D03*
X147066000Y-137414000D03*
D14*
X144526000Y-134874000D03*
X144526000Y-137414000D03*
X141986000Y-134874000D03*
X141986000Y-137414000D03*
X139446000Y-134874000D03*
X139446000Y-137414000D03*
X136906000Y-134874000D03*
X136906000Y-137414000D03*
X134366000Y-134874000D03*
X134366000Y-137414000D03*
X131826000Y-134874000D03*
X131826000Y-137414000D03*
X129286000Y-134874000D03*
X129286000Y-137414000D03*
X126746000Y-134874000D03*
X126746000Y-137414000D03*
X124206000Y-134874000D03*
X124206000Y-137414000D03*
X121666000Y-134874000D03*
X121666000Y-137414000D03*
X119126000Y-134874000D03*
X119126000Y-137414000D03*
X116586000Y-134874000D03*
X116586000Y-137414000D03*
X114046000Y-134874000D03*
X114046000Y-137414000D03*
X111506000Y-134874000D03*
X111506000Y-137414000D03*
X108966000Y-134874000D03*
X108966000Y-137414000D03*
X106426000Y-134874000D03*
X106426000Y-137414000D03*
X103886000Y-134874000D03*
X103886000Y-137414000D03*
D15*
X114300000Y-103886000D03*
X114300000Y-101346000D03*
X142494000Y-62992000D03*
X142494000Y-65532000D03*
X142494000Y-68072000D03*
X142494000Y-70612000D03*
X142494000Y-73152000D03*
D16*
X132842000Y-129286000D03*
X132842000Y-126746000D03*
X132842000Y-124206000D03*
X132842000Y-121666000D03*
X132842000Y-119126000D03*
X132842000Y-116586000D03*
D17*
X109982000Y-53086000D03*
D18*
X108482000Y-53086000D03*
X115340000Y-53086000D03*
D17*
X116840000Y-53086000D03*
D19*
X124968000Y-61214000D03*
D20*
X122428000Y-61214000D03*
X122428000Y-52832000D03*
D19*
X124968000Y-52832000D03*
D16*
X140208000Y-103886000D03*
X140208000Y-106426000D03*
X140208000Y-108966000D03*
X140208000Y-111506000D03*
D21*
X112268000Y-45720000D03*
X107188000Y-45720000D03*
D22*
X117348000Y-45720000D03*
D21*
X102108000Y-45720000D03*
D10*
X102362000Y-145288000D03*
X104902000Y-145288000D03*
X107442000Y-145288000D03*
X109982000Y-145288000D03*
X121666000Y-145288000D03*
X119126000Y-145288000D03*
X116586000Y-145288000D03*
X114046000Y-145288000D03*
D15*
X142494000Y-97028000D03*
X142494000Y-94488000D03*
X142494000Y-91948000D03*
X142494000Y-89408000D03*
D23*
X119126000Y-116332000D03*
D24*
X119126000Y-118872000D03*
D15*
X142494000Y-77470000D03*
X142494000Y-80010000D03*
X142494000Y-82550000D03*
X142494000Y-85090000D03*
D24*
X115824000Y-118872000D03*
D23*
X115824000Y-116332000D03*
X111760000Y-116332000D03*
D24*
X111760000Y-118872000D03*
D16*
X139954000Y-129540000D03*
X139954000Y-127000000D03*
X139954000Y-124460000D03*
X139954000Y-121920000D03*
X139954000Y-119380000D03*
D25*
X139954000Y-116840000D03*
D24*
X107442000Y-118872000D03*
D23*
X107442000Y-116332000D03*
X103632000Y-116332000D03*
D24*
X103632000Y-118872000D03*
D15*
X122936000Y-85598000D03*
X122936000Y-83058000D03*
X122936000Y-80518000D03*
X122936000Y-77978000D03*
X122936000Y-75438000D03*
D26*
X122936000Y-72898000D03*
D27*
X122936000Y-70358000D03*
D28*
X122936000Y-67818000D03*
D10*
X116840000Y-106426000D03*
X119380000Y-106426000D03*
X121920000Y-106426000D03*
X124460000Y-106426000D03*
X127000000Y-106426000D03*
X129540000Y-106426000D03*
D29*
X121920000Y-124714000D03*
D30*
X121920000Y-129794000D03*
X117094000Y-129794000D03*
D29*
X117094000Y-124714000D03*
X112268000Y-124714000D03*
D30*
X112268000Y-129794000D03*
X107696000Y-129794000D03*
D29*
X107696000Y-124714000D03*
X103124000Y-124714000D03*
D30*
X103124000Y-129794000D03*
D15*
X131572000Y-45212000D03*
X134112000Y-45212000D03*
X131572000Y-47752000D03*
X134112000Y-47752000D03*
X131572000Y-50292000D03*
X134112000Y-50292000D03*
X131572000Y-52832000D03*
X134112000Y-52832000D03*
X131572000Y-55372000D03*
X134112000Y-55372000D03*
X139700000Y-45212000D03*
X142240000Y-45212000D03*
X139700000Y-47752000D03*
X142240000Y-47752000D03*
X139700000Y-50292000D03*
X142240000Y-50292000D03*
X139700000Y-52832000D03*
X142240000Y-52832000D03*
X139700000Y-55372000D03*
X142240000Y-55372000D03*
D30*
X109220000Y-63246000D03*
D29*
X109220000Y-58166000D03*
X116078000Y-58166000D03*
D30*
X116078000Y-63246000D03*
D25*
X105918000Y-94234000D03*
D31*
X108458000Y-94234000D03*
X105918000Y-96774000D03*
X108458000Y-96774000D03*
X105918000Y-99314000D03*
X108458000Y-99314000D03*
X105918000Y-101854000D03*
X108458000Y-101854000D03*
X105918000Y-104394000D03*
X108458000Y-104394000D03*
D32*
X102108000Y-52578000D03*
X102108000Y-55118000D03*
X102108000Y-57658000D03*
D33*
X151384000Y-38100000D03*
X92202000Y-38100000D03*
X93218000Y-146304000D03*
X149098000Y-147066000D03*
M02*
