M48
; DRILL file {KiCad (5.1.2)-2} date 9/23/2019 7:30:41 AM
; FORMAT={2:4/ absolute / inch / suppress leading zeros}
; #@! TF.CreationDate,2019-09-23T07:30:41-10:00
; #@! TF.GenerationSoftware,Kicad,Pcbnew,(5.1.2)-2
FMAT,2
INCH,TZ
T1C0.0315
T2C0.0320
T3C0.0374
T4C0.0472
%
G90
G05
T1
X56000Y-32000
X56000Y-38000
X57000Y-32000
X57000Y-38000
X58000Y-32000
X58000Y-38000
X59000Y-32000
X59000Y-38000
X60000Y-32000
X60000Y-38000
T2
X41500Y-30500
X41500Y-31500
X41500Y-32500
X41500Y-33500
X41500Y-34500
X41500Y-35500
X41500Y-36500
X41500Y-37500
X44500Y-30500
X44500Y-31500
X44500Y-32500
X44500Y-33500
X44500Y-34500
X44500Y-35500
X44500Y-36500
X44500Y-37500
T3
X38500Y-32016
X38500Y-33000
X38500Y-33984
X38500Y-34969
X38500Y-35953
T4
X48500Y-41500
X51500Y-41500
X48500Y-29500
X51500Y-29500
X48500Y-39500
X51500Y-39500
X48500Y-37500
X51500Y-37500
X48500Y-33500
X51500Y-33500
X48500Y-27500
X51500Y-27500
X48500Y-35500
X51500Y-35500
X48500Y-31500
X51500Y-31500
T0
M30
