G04 #@! TF.GenerationSoftware,KiCad,Pcbnew,(5.1.2)-2*
G04 #@! TF.CreationDate,2019-09-23T07:30:52-10:00*
G04 #@! TF.ProjectId,595N_7SEG,3539354e-5f37-4534-9547-2e6b69636164,rev?*
G04 #@! TF.SameCoordinates,Original*
G04 #@! TF.FileFunction,Copper,L1,Top*
G04 #@! TF.FilePolarity,Positive*
%FSLAX46Y46*%
G04 Gerber Fmt 4.6, Leading zero omitted, Abs format (unit mm)*
G04 Created by KiCad (PCBNEW (5.1.2)-2) date 2019-09-23 07:30:52*
%MOMM*%
%LPD*%
G04 APERTURE LIST*
%ADD10C,2.400000*%
%ADD11O,2.400000X2.400000*%
%ADD12O,1.524000X2.524000*%
%ADD13R,1.524000X2.524000*%
%ADD14C,0.100000*%
%ADD15C,1.700000*%
%ADD16O,1.950000X1.700000*%
%ADD17O,2.641600X1.320800*%
%ADD18C,0.800000*%
%ADD19C,0.254000*%
G04 APERTURE END LIST*
D10*
X130810000Y-85090000D03*
D11*
X123190000Y-85090000D03*
D12*
X152400000Y-96520000D03*
X149860000Y-96520000D03*
X147320000Y-96520000D03*
X144780000Y-96520000D03*
X142240000Y-96520000D03*
X142240000Y-81280000D03*
X144780000Y-81280000D03*
X147320000Y-81280000D03*
X149860000Y-81280000D03*
D13*
X152400000Y-81280000D03*
D14*
G36*
X98539504Y-80471204D02*
G01*
X98563773Y-80474804D01*
X98587571Y-80480765D01*
X98610671Y-80489030D01*
X98632849Y-80499520D01*
X98653893Y-80512133D01*
X98673598Y-80526747D01*
X98691777Y-80543223D01*
X98708253Y-80561402D01*
X98722867Y-80581107D01*
X98735480Y-80602151D01*
X98745970Y-80624329D01*
X98754235Y-80647429D01*
X98760196Y-80671227D01*
X98763796Y-80695496D01*
X98765000Y-80720000D01*
X98765000Y-81920000D01*
X98763796Y-81944504D01*
X98760196Y-81968773D01*
X98754235Y-81992571D01*
X98745970Y-82015671D01*
X98735480Y-82037849D01*
X98722867Y-82058893D01*
X98708253Y-82078598D01*
X98691777Y-82096777D01*
X98673598Y-82113253D01*
X98653893Y-82127867D01*
X98632849Y-82140480D01*
X98610671Y-82150970D01*
X98587571Y-82159235D01*
X98563773Y-82165196D01*
X98539504Y-82168796D01*
X98515000Y-82170000D01*
X97065000Y-82170000D01*
X97040496Y-82168796D01*
X97016227Y-82165196D01*
X96992429Y-82159235D01*
X96969329Y-82150970D01*
X96947151Y-82140480D01*
X96926107Y-82127867D01*
X96906402Y-82113253D01*
X96888223Y-82096777D01*
X96871747Y-82078598D01*
X96857133Y-82058893D01*
X96844520Y-82037849D01*
X96834030Y-82015671D01*
X96825765Y-81992571D01*
X96819804Y-81968773D01*
X96816204Y-81944504D01*
X96815000Y-81920000D01*
X96815000Y-80720000D01*
X96816204Y-80695496D01*
X96819804Y-80671227D01*
X96825765Y-80647429D01*
X96834030Y-80624329D01*
X96844520Y-80602151D01*
X96857133Y-80581107D01*
X96871747Y-80561402D01*
X96888223Y-80543223D01*
X96906402Y-80526747D01*
X96926107Y-80512133D01*
X96947151Y-80499520D01*
X96969329Y-80489030D01*
X96992429Y-80480765D01*
X97016227Y-80474804D01*
X97040496Y-80471204D01*
X97065000Y-80470000D01*
X98515000Y-80470000D01*
X98539504Y-80471204D01*
X98539504Y-80471204D01*
G37*
D15*
X97790000Y-81320000D03*
D16*
X97790000Y-83820000D03*
X97790000Y-86320000D03*
X97790000Y-88820000D03*
X97790000Y-91320000D03*
D10*
X130810000Y-105410000D03*
D11*
X123190000Y-105410000D03*
X123190000Y-100330000D03*
D10*
X130810000Y-100330000D03*
X130810000Y-95250000D03*
D11*
X123190000Y-95250000D03*
X123190000Y-90170000D03*
D10*
X130810000Y-90170000D03*
D11*
X123190000Y-80010000D03*
D10*
X130810000Y-80010000D03*
X130810000Y-74930000D03*
D11*
X123190000Y-74930000D03*
X123190000Y-69850000D03*
D10*
X130810000Y-69850000D03*
D17*
X113030000Y-95250000D03*
X113030000Y-92710000D03*
X113030000Y-80010000D03*
X113030000Y-77470000D03*
X113030000Y-90170000D03*
X113030000Y-87630000D03*
X113030000Y-82550000D03*
X113030000Y-85090000D03*
X105410000Y-77470000D03*
X105410000Y-80010000D03*
X105410000Y-82550000D03*
X105410000Y-85090000D03*
X105410000Y-87630000D03*
X105410000Y-90170000D03*
X105410000Y-92710000D03*
X105410000Y-95250000D03*
D18*
X132507056Y-74930000D02*
X130810000Y-74930000D01*
X153396682Y-74930000D02*
X132507056Y-74930000D01*
X156762031Y-78295349D02*
X153396682Y-74930000D01*
X156762031Y-91657969D02*
X156762031Y-78295349D01*
X152400000Y-96020000D02*
X156762031Y-91657969D01*
X152400000Y-96520000D02*
X152400000Y-96020000D01*
X133402021Y-77417979D02*
X132009999Y-78810001D01*
X154470435Y-77417979D02*
X133402021Y-77417979D01*
X155762021Y-78709565D02*
X154470435Y-77417979D01*
X155762021Y-90117979D02*
X155762021Y-78709565D01*
X132009999Y-78810001D02*
X130810000Y-80010000D01*
X149860000Y-96020000D02*
X155762021Y-90117979D01*
X149860000Y-96520000D02*
X149860000Y-96020000D01*
X106070400Y-80010000D02*
X105410000Y-80010000D01*
X106592478Y-86350410D02*
X107530800Y-85412088D01*
X100384590Y-86350410D02*
X106592478Y-86350410D01*
X97915000Y-88820000D02*
X100384590Y-86350410D01*
X107530800Y-81470400D02*
X106070400Y-80010000D01*
X97790000Y-88820000D02*
X97915000Y-88820000D01*
X107530800Y-85412088D02*
X107530800Y-84239200D01*
X107530800Y-84239200D02*
X107530800Y-81470400D01*
X107530800Y-95250000D02*
X105410000Y-95250000D01*
X122574003Y-102130001D02*
X114410801Y-102130001D01*
X127654003Y-107210001D02*
X122574003Y-102130001D01*
X147320000Y-97020000D02*
X137129999Y-107210001D01*
X137129999Y-107210001D02*
X127654003Y-107210001D01*
X147320000Y-96520000D02*
X147320000Y-97020000D01*
X110280400Y-87420400D02*
X110280400Y-97999600D01*
X109210410Y-86350410D02*
X110280400Y-87420400D01*
X114410801Y-102130001D02*
X110280400Y-97999600D01*
X110280400Y-97999600D02*
X107530800Y-95250000D01*
X109210410Y-83829590D02*
X106689590Y-86350410D01*
X116706408Y-83829590D02*
X109210410Y-83829590D01*
X122325999Y-78209999D02*
X116706408Y-83829590D01*
X129134001Y-83289999D02*
X124054001Y-78209999D01*
X124054001Y-78209999D02*
X122325999Y-78209999D01*
X132204002Y-83820000D02*
X131674001Y-83289999D01*
X146842000Y-83820000D02*
X132204002Y-83820000D01*
X131674001Y-83289999D02*
X129134001Y-83289999D01*
X147320000Y-83342000D02*
X146842000Y-83820000D01*
X147320000Y-81280000D02*
X147320000Y-83342000D01*
X106689590Y-86350410D02*
X109210410Y-86350410D01*
X106592478Y-86350410D02*
X106689590Y-86350410D01*
X144780000Y-97020000D02*
X144780000Y-96520000D01*
X136390000Y-105410000D02*
X144780000Y-97020000D01*
X130810000Y-105410000D02*
X136390000Y-105410000D01*
X142240000Y-97020000D02*
X142240000Y-96520000D01*
X138930000Y-100330000D02*
X142240000Y-97020000D01*
X130810000Y-100330000D02*
X138930000Y-100330000D01*
X130425987Y-82289989D02*
X127000000Y-78864002D01*
X139668011Y-82289989D02*
X130425987Y-82289989D01*
X142240000Y-81280000D02*
X140678000Y-81280000D01*
X140678000Y-81280000D02*
X139668011Y-82289989D01*
X127000000Y-73660000D02*
X130810000Y-69850000D01*
X127000000Y-78864002D02*
X127000000Y-73660000D01*
X132009999Y-94050001D02*
X130810000Y-95250000D01*
X144854225Y-94050001D02*
X132009999Y-94050001D01*
X154762011Y-84142215D02*
X144854225Y-94050001D01*
X154762011Y-79123782D02*
X154762011Y-84142215D01*
X154056218Y-78417989D02*
X154762011Y-79123782D01*
X147142011Y-78417989D02*
X154056218Y-78417989D01*
X144780000Y-80780000D02*
X147142011Y-78417989D01*
X144780000Y-81280000D02*
X144780000Y-80780000D01*
X153762001Y-79537999D02*
X153762001Y-83727999D01*
X153642001Y-79417999D02*
X153762001Y-79537999D01*
X151222001Y-79417999D02*
X153642001Y-79417999D01*
X149860000Y-81280000D02*
X149860000Y-80780000D01*
X149860000Y-80780000D02*
X151222001Y-79417999D01*
X147320000Y-90170000D02*
X130810000Y-90170000D01*
X153762001Y-83727999D02*
X147320000Y-90170000D01*
X132507056Y-85090000D02*
X130810000Y-85090000D01*
X149090000Y-85090000D02*
X132507056Y-85090000D01*
X152400000Y-81780000D02*
X149090000Y-85090000D01*
X152400000Y-81280000D02*
X152400000Y-81780000D01*
X99020000Y-82550000D02*
X105410000Y-82550000D01*
X97790000Y-81320000D02*
X99020000Y-82550000D01*
X99565000Y-83820000D02*
X100835000Y-85090000D01*
X97790000Y-83820000D02*
X99565000Y-83820000D01*
X100835000Y-85090000D02*
X105410000Y-85090000D01*
X97665000Y-86320000D02*
X95250000Y-88735000D01*
X97790000Y-86320000D02*
X97665000Y-86320000D01*
X95250000Y-88735000D02*
X95250000Y-92710000D01*
X95310010Y-92770010D02*
X95310010Y-94040010D01*
X95250000Y-92710000D02*
X95310010Y-92770010D01*
X95310010Y-94040010D02*
X98999990Y-94040010D01*
X102870000Y-90170000D02*
X105410000Y-90170000D01*
X98999990Y-94040010D02*
X102870000Y-90170000D01*
X97915000Y-91320000D02*
X101605000Y-87630000D01*
X97790000Y-91320000D02*
X97915000Y-91320000D01*
X101605000Y-87630000D02*
X105410000Y-87630000D01*
X106582888Y-91440000D02*
X104140000Y-91440000D01*
X107330810Y-90692078D02*
X106582888Y-91440000D01*
X107330810Y-88890410D02*
X107330810Y-90692078D01*
X105410000Y-87630000D02*
X106070400Y-87630000D01*
X106070400Y-87630000D02*
X107330810Y-88890410D01*
X104140000Y-91440000D02*
X102870000Y-92710000D01*
X102870000Y-92710000D02*
X104149590Y-91430410D01*
X110490000Y-105410000D02*
X123190000Y-105410000D01*
X102870000Y-97790000D02*
X110490000Y-105410000D01*
X102870000Y-94589600D02*
X102870000Y-97790000D01*
X105410000Y-92710000D02*
X104749600Y-92710000D01*
X104749600Y-92710000D02*
X102870000Y-94589600D01*
X113030000Y-96710400D02*
X116649600Y-100330000D01*
X113030000Y-95250000D02*
X113030000Y-96710400D01*
X116649600Y-100330000D02*
X123190000Y-100330000D01*
X120650000Y-92710000D02*
X123190000Y-95250000D01*
X113030000Y-92710000D02*
X120650000Y-92710000D01*
X113030000Y-90170000D02*
X123190000Y-90170000D01*
X120650000Y-87630000D02*
X123190000Y-85090000D01*
X113030000Y-87630000D02*
X120650000Y-87630000D01*
X118110000Y-85090000D02*
X123190000Y-80010000D01*
X113030000Y-85090000D02*
X118110000Y-85090000D01*
X115570000Y-82550000D02*
X123190000Y-74930000D01*
X113030000Y-82550000D02*
X115570000Y-82550000D01*
X115445998Y-80010000D02*
X123190000Y-72265998D01*
X113030000Y-80010000D02*
X115445998Y-80010000D01*
X123190000Y-72265998D02*
X123190000Y-69850000D01*
D19*
G36*
X158090000Y-109830000D02*
G01*
X92100000Y-109830000D01*
X92100000Y-88735000D01*
X94209994Y-88735000D01*
X94215000Y-88785828D01*
X94215001Y-92659162D01*
X94209994Y-92710000D01*
X94229977Y-92912895D01*
X94275010Y-93061348D01*
X94275011Y-93989163D01*
X94270003Y-94040010D01*
X94289986Y-94242905D01*
X94349169Y-94438003D01*
X94445276Y-94617807D01*
X94574614Y-94775406D01*
X94732213Y-94904744D01*
X94912017Y-95000851D01*
X95107115Y-95060034D01*
X95259172Y-95075010D01*
X95310010Y-95080017D01*
X95360848Y-95075010D01*
X98949162Y-95075010D01*
X98999990Y-95080016D01*
X99050818Y-95075010D01*
X99050828Y-95075010D01*
X99202885Y-95060034D01*
X99397983Y-95000851D01*
X99577787Y-94904744D01*
X99735386Y-94775406D01*
X99767797Y-94735913D01*
X103298711Y-91205000D01*
X103968801Y-91205000D01*
X104026433Y-91252297D01*
X104251474Y-91372583D01*
X104473715Y-91440000D01*
X104251474Y-91507417D01*
X104026433Y-91627703D01*
X103829182Y-91789582D01*
X103667303Y-91986833D01*
X103547017Y-92211874D01*
X103472944Y-92456057D01*
X103465636Y-92530253D01*
X102174097Y-93821793D01*
X102134604Y-93854204D01*
X102005266Y-94011803D01*
X101909159Y-94191608D01*
X101849976Y-94386706D01*
X101835000Y-94538763D01*
X101835000Y-94538772D01*
X101829994Y-94589600D01*
X101835000Y-94640428D01*
X101835001Y-97739162D01*
X101829994Y-97790000D01*
X101849977Y-97992895D01*
X101909160Y-98187993D01*
X102005266Y-98367797D01*
X102102197Y-98485907D01*
X102134605Y-98525396D01*
X102174093Y-98557803D01*
X109722197Y-106105908D01*
X109754604Y-106145396D01*
X109794092Y-106177803D01*
X109912202Y-106274734D01*
X109920556Y-106279199D01*
X110092007Y-106370841D01*
X110287105Y-106430024D01*
X110439162Y-106445000D01*
X110439171Y-106445000D01*
X110489999Y-106450006D01*
X110540827Y-106445000D01*
X121665567Y-106445000D01*
X121886181Y-106713819D01*
X122165596Y-106943129D01*
X122484378Y-107113521D01*
X122830277Y-107218448D01*
X123099861Y-107245000D01*
X123280139Y-107245000D01*
X123549723Y-107218448D01*
X123895622Y-107113521D01*
X124214404Y-106943129D01*
X124493819Y-106713819D01*
X124723129Y-106434404D01*
X124893521Y-106115622D01*
X124940627Y-105960335D01*
X126886200Y-107905909D01*
X126918607Y-107945397D01*
X126958095Y-107977804D01*
X127076205Y-108074735D01*
X127172312Y-108126105D01*
X127256010Y-108170842D01*
X127451108Y-108230025D01*
X127603165Y-108245001D01*
X127603167Y-108245001D01*
X127654003Y-108250008D01*
X127704838Y-108245001D01*
X137079171Y-108245001D01*
X137129999Y-108250007D01*
X137180827Y-108245001D01*
X137180837Y-108245001D01*
X137332894Y-108230025D01*
X137527992Y-108170842D01*
X137707796Y-108074735D01*
X137865395Y-107945397D01*
X137897806Y-107905904D01*
X147386502Y-98417209D01*
X147593859Y-98396786D01*
X147857194Y-98316904D01*
X148099886Y-98187183D01*
X148312607Y-98012608D01*
X148487183Y-97799887D01*
X148590000Y-97607529D01*
X148692817Y-97799886D01*
X148867392Y-98012607D01*
X149080113Y-98187183D01*
X149322805Y-98316904D01*
X149586140Y-98396786D01*
X149860000Y-98423759D01*
X150133859Y-98396786D01*
X150397194Y-98316904D01*
X150639886Y-98187183D01*
X150852607Y-98012608D01*
X151027183Y-97799887D01*
X151130000Y-97607529D01*
X151232817Y-97799886D01*
X151407392Y-98012607D01*
X151620113Y-98187183D01*
X151862805Y-98316904D01*
X152126140Y-98396786D01*
X152400000Y-98423759D01*
X152673859Y-98396786D01*
X152937194Y-98316904D01*
X153179886Y-98187183D01*
X153392607Y-98012608D01*
X153567183Y-97799887D01*
X153696904Y-97557195D01*
X153776786Y-97293860D01*
X153797000Y-97088625D01*
X153797000Y-96086710D01*
X157457939Y-92425772D01*
X157497427Y-92393365D01*
X157564196Y-92312007D01*
X157626765Y-92235767D01*
X157722871Y-92055963D01*
X157722872Y-92055962D01*
X157782055Y-91860864D01*
X157797031Y-91708807D01*
X157797031Y-91708798D01*
X157802037Y-91657970D01*
X157797031Y-91607142D01*
X157797031Y-78346176D01*
X157802037Y-78295348D01*
X157797031Y-78244520D01*
X157797031Y-78244511D01*
X157782055Y-78092454D01*
X157722872Y-77897356D01*
X157669287Y-77797105D01*
X157626765Y-77717551D01*
X157529834Y-77599441D01*
X157497427Y-77559953D01*
X157457939Y-77527546D01*
X154164489Y-74234097D01*
X154132078Y-74194604D01*
X153974479Y-74065266D01*
X153794675Y-73969159D01*
X153599577Y-73909976D01*
X153447520Y-73895000D01*
X153447510Y-73895000D01*
X153396682Y-73889994D01*
X153345854Y-73895000D01*
X132325371Y-73895000D01*
X132235338Y-73760256D01*
X131979744Y-73504662D01*
X131679199Y-73303844D01*
X131345250Y-73165518D01*
X130990732Y-73095000D01*
X130629268Y-73095000D01*
X130274750Y-73165518D01*
X129940801Y-73303844D01*
X129640256Y-73504662D01*
X129384662Y-73760256D01*
X129183844Y-74060801D01*
X129045518Y-74394750D01*
X128975000Y-74749268D01*
X128975000Y-75110732D01*
X129045518Y-75465250D01*
X129183844Y-75799199D01*
X129384662Y-76099744D01*
X129640256Y-76355338D01*
X129940801Y-76556156D01*
X130274750Y-76694482D01*
X130629268Y-76765000D01*
X130990732Y-76765000D01*
X131345250Y-76694482D01*
X131679199Y-76556156D01*
X131979744Y-76355338D01*
X132235338Y-76099744D01*
X132325371Y-75965000D01*
X152967972Y-75965000D01*
X153385951Y-76382979D01*
X133452848Y-76382979D01*
X133402020Y-76377973D01*
X133351192Y-76382979D01*
X133351183Y-76382979D01*
X133199126Y-76397955D01*
X133004028Y-76457138D01*
X132920330Y-76501875D01*
X132824223Y-76553245D01*
X132726407Y-76633521D01*
X132666625Y-76682583D01*
X132634218Y-76722071D01*
X131314096Y-78042194D01*
X131314091Y-78042198D01*
X131149674Y-78206615D01*
X130990732Y-78175000D01*
X130629268Y-78175000D01*
X130274750Y-78245518D01*
X129940801Y-78383844D01*
X129640256Y-78584662D01*
X129384662Y-78840256D01*
X129183844Y-79140801D01*
X129053994Y-79454286D01*
X128035000Y-78435292D01*
X128035000Y-74088710D01*
X130470326Y-71653385D01*
X130629268Y-71685000D01*
X130990732Y-71685000D01*
X131345250Y-71614482D01*
X131679199Y-71476156D01*
X131979744Y-71275338D01*
X132235338Y-71019744D01*
X132436156Y-70719199D01*
X132574482Y-70385250D01*
X132645000Y-70030732D01*
X132645000Y-69669268D01*
X132574482Y-69314750D01*
X132436156Y-68980801D01*
X132235338Y-68680256D01*
X131979744Y-68424662D01*
X131679199Y-68223844D01*
X131345250Y-68085518D01*
X130990732Y-68015000D01*
X130629268Y-68015000D01*
X130274750Y-68085518D01*
X129940801Y-68223844D01*
X129640256Y-68424662D01*
X129384662Y-68680256D01*
X129183844Y-68980801D01*
X129045518Y-69314750D01*
X128975000Y-69669268D01*
X128975000Y-70030732D01*
X129006615Y-70189674D01*
X126304092Y-72892198D01*
X126264605Y-72924604D01*
X126232198Y-72964092D01*
X126232197Y-72964093D01*
X126135266Y-73082203D01*
X126039160Y-73262007D01*
X125979977Y-73457105D01*
X125959994Y-73660000D01*
X125965001Y-73710838D01*
X125965000Y-78657288D01*
X124821808Y-77514096D01*
X124789397Y-77474603D01*
X124631798Y-77345265D01*
X124451994Y-77249158D01*
X124256896Y-77189975D01*
X124104839Y-77174999D01*
X124104829Y-77174999D01*
X124054001Y-77169993D01*
X124003173Y-77174999D01*
X122408712Y-77174999D01*
X122843919Y-76739792D01*
X123099861Y-76765000D01*
X123280139Y-76765000D01*
X123549723Y-76738448D01*
X123895622Y-76633521D01*
X124214404Y-76463129D01*
X124493819Y-76233819D01*
X124723129Y-75954404D01*
X124893521Y-75635622D01*
X124998448Y-75289723D01*
X125033878Y-74930000D01*
X124998448Y-74570277D01*
X124893521Y-74224378D01*
X124723129Y-73905596D01*
X124493819Y-73626181D01*
X124214404Y-73396871D01*
X123895622Y-73226479D01*
X123740335Y-73179373D01*
X123885908Y-73033801D01*
X123925396Y-73001394D01*
X123988416Y-72924604D01*
X124054734Y-72843796D01*
X124150840Y-72663992D01*
X124150841Y-72663991D01*
X124210024Y-72468893D01*
X124225000Y-72316836D01*
X124225000Y-72316833D01*
X124230007Y-72265998D01*
X124225000Y-72215163D01*
X124225000Y-71374433D01*
X124493819Y-71153819D01*
X124723129Y-70874404D01*
X124893521Y-70555622D01*
X124998448Y-70209723D01*
X125033878Y-69850000D01*
X124998448Y-69490277D01*
X124893521Y-69144378D01*
X124723129Y-68825596D01*
X124493819Y-68546181D01*
X124214404Y-68316871D01*
X123895622Y-68146479D01*
X123549723Y-68041552D01*
X123280139Y-68015000D01*
X123099861Y-68015000D01*
X122830277Y-68041552D01*
X122484378Y-68146479D01*
X122165596Y-68316871D01*
X121886181Y-68546181D01*
X121656871Y-68825596D01*
X121486479Y-69144378D01*
X121381552Y-69490277D01*
X121346122Y-69850000D01*
X121381552Y-70209723D01*
X121486479Y-70555622D01*
X121656871Y-70874404D01*
X121886181Y-71153819D01*
X122155000Y-71374433D01*
X122155000Y-71837287D01*
X115017288Y-78975000D01*
X114471199Y-78975000D01*
X114413567Y-78927703D01*
X114188526Y-78807417D01*
X113958023Y-78737494D01*
X114067680Y-78715733D01*
X114303461Y-78618193D01*
X114515683Y-78476529D01*
X114696189Y-78296184D01*
X114838044Y-78084089D01*
X114935795Y-77848395D01*
X114943820Y-77797105D01*
X114819933Y-77597000D01*
X113157000Y-77597000D01*
X113157000Y-77617000D01*
X112903000Y-77617000D01*
X112903000Y-77597000D01*
X111240067Y-77597000D01*
X111116180Y-77797105D01*
X111124205Y-77848395D01*
X111221956Y-78084089D01*
X111363811Y-78296184D01*
X111544317Y-78476529D01*
X111756539Y-78618193D01*
X111992320Y-78715733D01*
X112101977Y-78737494D01*
X111871474Y-78807417D01*
X111646433Y-78927703D01*
X111449182Y-79089582D01*
X111287303Y-79286833D01*
X111167017Y-79511874D01*
X111092944Y-79756057D01*
X111067933Y-80010000D01*
X111092944Y-80263943D01*
X111167017Y-80508126D01*
X111287303Y-80733167D01*
X111449182Y-80930418D01*
X111646433Y-81092297D01*
X111871474Y-81212583D01*
X112093715Y-81280000D01*
X111871474Y-81347417D01*
X111646433Y-81467703D01*
X111449182Y-81629582D01*
X111287303Y-81826833D01*
X111167017Y-82051874D01*
X111092944Y-82296057D01*
X111067933Y-82550000D01*
X111092023Y-82794590D01*
X109261245Y-82794590D01*
X109210410Y-82789583D01*
X109159575Y-82794590D01*
X109159572Y-82794590D01*
X109007515Y-82809566D01*
X108812417Y-82868749D01*
X108760510Y-82896494D01*
X108632612Y-82964856D01*
X108565800Y-83019688D01*
X108565800Y-81521227D01*
X108570806Y-81470399D01*
X108565800Y-81419571D01*
X108565800Y-81419562D01*
X108550824Y-81267505D01*
X108491641Y-81072407D01*
X108395534Y-80892603D01*
X108266196Y-80735004D01*
X108226708Y-80702597D01*
X107354364Y-79830253D01*
X107347056Y-79756057D01*
X107272983Y-79511874D01*
X107152697Y-79286833D01*
X106990818Y-79089582D01*
X106793567Y-78927703D01*
X106568526Y-78807417D01*
X106346285Y-78740000D01*
X106568526Y-78672583D01*
X106793567Y-78552297D01*
X106990818Y-78390418D01*
X107152697Y-78193167D01*
X107272983Y-77968126D01*
X107347056Y-77723943D01*
X107372067Y-77470000D01*
X107347056Y-77216057D01*
X107324863Y-77142895D01*
X111116180Y-77142895D01*
X111240067Y-77343000D01*
X112903000Y-77343000D01*
X112903000Y-76174600D01*
X113157000Y-76174600D01*
X113157000Y-77343000D01*
X114819933Y-77343000D01*
X114943820Y-77142895D01*
X114935795Y-77091605D01*
X114838044Y-76855911D01*
X114696189Y-76643816D01*
X114515683Y-76463471D01*
X114303461Y-76321807D01*
X114067680Y-76224267D01*
X113817400Y-76174600D01*
X113157000Y-76174600D01*
X112903000Y-76174600D01*
X112242600Y-76174600D01*
X111992320Y-76224267D01*
X111756539Y-76321807D01*
X111544317Y-76463471D01*
X111363811Y-76643816D01*
X111221956Y-76855911D01*
X111124205Y-77091605D01*
X111116180Y-77142895D01*
X107324863Y-77142895D01*
X107272983Y-76971874D01*
X107152697Y-76746833D01*
X106990818Y-76549582D01*
X106793567Y-76387703D01*
X106568526Y-76267417D01*
X106324343Y-76193344D01*
X106134030Y-76174600D01*
X104685970Y-76174600D01*
X104495657Y-76193344D01*
X104251474Y-76267417D01*
X104026433Y-76387703D01*
X103829182Y-76549582D01*
X103667303Y-76746833D01*
X103547017Y-76971874D01*
X103472944Y-77216057D01*
X103447933Y-77470000D01*
X103472944Y-77723943D01*
X103547017Y-77968126D01*
X103667303Y-78193167D01*
X103829182Y-78390418D01*
X104026433Y-78552297D01*
X104251474Y-78672583D01*
X104473715Y-78740000D01*
X104251474Y-78807417D01*
X104026433Y-78927703D01*
X103829182Y-79089582D01*
X103667303Y-79286833D01*
X103547017Y-79511874D01*
X103472944Y-79756057D01*
X103447933Y-80010000D01*
X103472944Y-80263943D01*
X103547017Y-80508126D01*
X103667303Y-80733167D01*
X103829182Y-80930418D01*
X104026433Y-81092297D01*
X104251474Y-81212583D01*
X104473715Y-81280000D01*
X104251474Y-81347417D01*
X104026433Y-81467703D01*
X103968801Y-81515000D01*
X99448711Y-81515000D01*
X99403072Y-81469361D01*
X99403072Y-80720000D01*
X99386008Y-80546746D01*
X99335472Y-80380150D01*
X99253405Y-80226614D01*
X99142962Y-80092038D01*
X99008386Y-79981595D01*
X98854850Y-79899528D01*
X98688254Y-79848992D01*
X98515000Y-79831928D01*
X97065000Y-79831928D01*
X96891746Y-79848992D01*
X96725150Y-79899528D01*
X96571614Y-79981595D01*
X96437038Y-80092038D01*
X96326595Y-80226614D01*
X96244528Y-80380150D01*
X96193992Y-80546746D01*
X96176928Y-80720000D01*
X96176928Y-81920000D01*
X96193992Y-82093254D01*
X96244528Y-82259850D01*
X96326595Y-82413386D01*
X96437038Y-82547962D01*
X96571614Y-82658405D01*
X96673337Y-82712777D01*
X96609866Y-82764866D01*
X96424294Y-82990986D01*
X96286401Y-83248966D01*
X96201487Y-83528889D01*
X96172815Y-83820000D01*
X96201487Y-84111111D01*
X96286401Y-84391034D01*
X96424294Y-84649014D01*
X96609866Y-84875134D01*
X96835986Y-85060706D01*
X96853374Y-85070000D01*
X96835986Y-85079294D01*
X96609866Y-85264866D01*
X96424294Y-85490986D01*
X96286401Y-85748966D01*
X96201487Y-86028889D01*
X96172815Y-86320000D01*
X96175368Y-86345921D01*
X94554097Y-87967193D01*
X94514604Y-87999604D01*
X94385266Y-88157203D01*
X94289159Y-88337008D01*
X94229976Y-88532106D01*
X94215000Y-88684163D01*
X94215000Y-88684172D01*
X94209994Y-88735000D01*
X92100000Y-88735000D01*
X92100000Y-65430000D01*
X158090001Y-65430000D01*
X158090000Y-109830000D01*
X158090000Y-109830000D01*
G37*
X158090000Y-109830000D02*
X92100000Y-109830000D01*
X92100000Y-88735000D01*
X94209994Y-88735000D01*
X94215000Y-88785828D01*
X94215001Y-92659162D01*
X94209994Y-92710000D01*
X94229977Y-92912895D01*
X94275010Y-93061348D01*
X94275011Y-93989163D01*
X94270003Y-94040010D01*
X94289986Y-94242905D01*
X94349169Y-94438003D01*
X94445276Y-94617807D01*
X94574614Y-94775406D01*
X94732213Y-94904744D01*
X94912017Y-95000851D01*
X95107115Y-95060034D01*
X95259172Y-95075010D01*
X95310010Y-95080017D01*
X95360848Y-95075010D01*
X98949162Y-95075010D01*
X98999990Y-95080016D01*
X99050818Y-95075010D01*
X99050828Y-95075010D01*
X99202885Y-95060034D01*
X99397983Y-95000851D01*
X99577787Y-94904744D01*
X99735386Y-94775406D01*
X99767797Y-94735913D01*
X103298711Y-91205000D01*
X103968801Y-91205000D01*
X104026433Y-91252297D01*
X104251474Y-91372583D01*
X104473715Y-91440000D01*
X104251474Y-91507417D01*
X104026433Y-91627703D01*
X103829182Y-91789582D01*
X103667303Y-91986833D01*
X103547017Y-92211874D01*
X103472944Y-92456057D01*
X103465636Y-92530253D01*
X102174097Y-93821793D01*
X102134604Y-93854204D01*
X102005266Y-94011803D01*
X101909159Y-94191608D01*
X101849976Y-94386706D01*
X101835000Y-94538763D01*
X101835000Y-94538772D01*
X101829994Y-94589600D01*
X101835000Y-94640428D01*
X101835001Y-97739162D01*
X101829994Y-97790000D01*
X101849977Y-97992895D01*
X101909160Y-98187993D01*
X102005266Y-98367797D01*
X102102197Y-98485907D01*
X102134605Y-98525396D01*
X102174093Y-98557803D01*
X109722197Y-106105908D01*
X109754604Y-106145396D01*
X109794092Y-106177803D01*
X109912202Y-106274734D01*
X109920556Y-106279199D01*
X110092007Y-106370841D01*
X110287105Y-106430024D01*
X110439162Y-106445000D01*
X110439171Y-106445000D01*
X110489999Y-106450006D01*
X110540827Y-106445000D01*
X121665567Y-106445000D01*
X121886181Y-106713819D01*
X122165596Y-106943129D01*
X122484378Y-107113521D01*
X122830277Y-107218448D01*
X123099861Y-107245000D01*
X123280139Y-107245000D01*
X123549723Y-107218448D01*
X123895622Y-107113521D01*
X124214404Y-106943129D01*
X124493819Y-106713819D01*
X124723129Y-106434404D01*
X124893521Y-106115622D01*
X124940627Y-105960335D01*
X126886200Y-107905909D01*
X126918607Y-107945397D01*
X126958095Y-107977804D01*
X127076205Y-108074735D01*
X127172312Y-108126105D01*
X127256010Y-108170842D01*
X127451108Y-108230025D01*
X127603165Y-108245001D01*
X127603167Y-108245001D01*
X127654003Y-108250008D01*
X127704838Y-108245001D01*
X137079171Y-108245001D01*
X137129999Y-108250007D01*
X137180827Y-108245001D01*
X137180837Y-108245001D01*
X137332894Y-108230025D01*
X137527992Y-108170842D01*
X137707796Y-108074735D01*
X137865395Y-107945397D01*
X137897806Y-107905904D01*
X147386502Y-98417209D01*
X147593859Y-98396786D01*
X147857194Y-98316904D01*
X148099886Y-98187183D01*
X148312607Y-98012608D01*
X148487183Y-97799887D01*
X148590000Y-97607529D01*
X148692817Y-97799886D01*
X148867392Y-98012607D01*
X149080113Y-98187183D01*
X149322805Y-98316904D01*
X149586140Y-98396786D01*
X149860000Y-98423759D01*
X150133859Y-98396786D01*
X150397194Y-98316904D01*
X150639886Y-98187183D01*
X150852607Y-98012608D01*
X151027183Y-97799887D01*
X151130000Y-97607529D01*
X151232817Y-97799886D01*
X151407392Y-98012607D01*
X151620113Y-98187183D01*
X151862805Y-98316904D01*
X152126140Y-98396786D01*
X152400000Y-98423759D01*
X152673859Y-98396786D01*
X152937194Y-98316904D01*
X153179886Y-98187183D01*
X153392607Y-98012608D01*
X153567183Y-97799887D01*
X153696904Y-97557195D01*
X153776786Y-97293860D01*
X153797000Y-97088625D01*
X153797000Y-96086710D01*
X157457939Y-92425772D01*
X157497427Y-92393365D01*
X157564196Y-92312007D01*
X157626765Y-92235767D01*
X157722871Y-92055963D01*
X157722872Y-92055962D01*
X157782055Y-91860864D01*
X157797031Y-91708807D01*
X157797031Y-91708798D01*
X157802037Y-91657970D01*
X157797031Y-91607142D01*
X157797031Y-78346176D01*
X157802037Y-78295348D01*
X157797031Y-78244520D01*
X157797031Y-78244511D01*
X157782055Y-78092454D01*
X157722872Y-77897356D01*
X157669287Y-77797105D01*
X157626765Y-77717551D01*
X157529834Y-77599441D01*
X157497427Y-77559953D01*
X157457939Y-77527546D01*
X154164489Y-74234097D01*
X154132078Y-74194604D01*
X153974479Y-74065266D01*
X153794675Y-73969159D01*
X153599577Y-73909976D01*
X153447520Y-73895000D01*
X153447510Y-73895000D01*
X153396682Y-73889994D01*
X153345854Y-73895000D01*
X132325371Y-73895000D01*
X132235338Y-73760256D01*
X131979744Y-73504662D01*
X131679199Y-73303844D01*
X131345250Y-73165518D01*
X130990732Y-73095000D01*
X130629268Y-73095000D01*
X130274750Y-73165518D01*
X129940801Y-73303844D01*
X129640256Y-73504662D01*
X129384662Y-73760256D01*
X129183844Y-74060801D01*
X129045518Y-74394750D01*
X128975000Y-74749268D01*
X128975000Y-75110732D01*
X129045518Y-75465250D01*
X129183844Y-75799199D01*
X129384662Y-76099744D01*
X129640256Y-76355338D01*
X129940801Y-76556156D01*
X130274750Y-76694482D01*
X130629268Y-76765000D01*
X130990732Y-76765000D01*
X131345250Y-76694482D01*
X131679199Y-76556156D01*
X131979744Y-76355338D01*
X132235338Y-76099744D01*
X132325371Y-75965000D01*
X152967972Y-75965000D01*
X153385951Y-76382979D01*
X133452848Y-76382979D01*
X133402020Y-76377973D01*
X133351192Y-76382979D01*
X133351183Y-76382979D01*
X133199126Y-76397955D01*
X133004028Y-76457138D01*
X132920330Y-76501875D01*
X132824223Y-76553245D01*
X132726407Y-76633521D01*
X132666625Y-76682583D01*
X132634218Y-76722071D01*
X131314096Y-78042194D01*
X131314091Y-78042198D01*
X131149674Y-78206615D01*
X130990732Y-78175000D01*
X130629268Y-78175000D01*
X130274750Y-78245518D01*
X129940801Y-78383844D01*
X129640256Y-78584662D01*
X129384662Y-78840256D01*
X129183844Y-79140801D01*
X129053994Y-79454286D01*
X128035000Y-78435292D01*
X128035000Y-74088710D01*
X130470326Y-71653385D01*
X130629268Y-71685000D01*
X130990732Y-71685000D01*
X131345250Y-71614482D01*
X131679199Y-71476156D01*
X131979744Y-71275338D01*
X132235338Y-71019744D01*
X132436156Y-70719199D01*
X132574482Y-70385250D01*
X132645000Y-70030732D01*
X132645000Y-69669268D01*
X132574482Y-69314750D01*
X132436156Y-68980801D01*
X132235338Y-68680256D01*
X131979744Y-68424662D01*
X131679199Y-68223844D01*
X131345250Y-68085518D01*
X130990732Y-68015000D01*
X130629268Y-68015000D01*
X130274750Y-68085518D01*
X129940801Y-68223844D01*
X129640256Y-68424662D01*
X129384662Y-68680256D01*
X129183844Y-68980801D01*
X129045518Y-69314750D01*
X128975000Y-69669268D01*
X128975000Y-70030732D01*
X129006615Y-70189674D01*
X126304092Y-72892198D01*
X126264605Y-72924604D01*
X126232198Y-72964092D01*
X126232197Y-72964093D01*
X126135266Y-73082203D01*
X126039160Y-73262007D01*
X125979977Y-73457105D01*
X125959994Y-73660000D01*
X125965001Y-73710838D01*
X125965000Y-78657288D01*
X124821808Y-77514096D01*
X124789397Y-77474603D01*
X124631798Y-77345265D01*
X124451994Y-77249158D01*
X124256896Y-77189975D01*
X124104839Y-77174999D01*
X124104829Y-77174999D01*
X124054001Y-77169993D01*
X124003173Y-77174999D01*
X122408712Y-77174999D01*
X122843919Y-76739792D01*
X123099861Y-76765000D01*
X123280139Y-76765000D01*
X123549723Y-76738448D01*
X123895622Y-76633521D01*
X124214404Y-76463129D01*
X124493819Y-76233819D01*
X124723129Y-75954404D01*
X124893521Y-75635622D01*
X124998448Y-75289723D01*
X125033878Y-74930000D01*
X124998448Y-74570277D01*
X124893521Y-74224378D01*
X124723129Y-73905596D01*
X124493819Y-73626181D01*
X124214404Y-73396871D01*
X123895622Y-73226479D01*
X123740335Y-73179373D01*
X123885908Y-73033801D01*
X123925396Y-73001394D01*
X123988416Y-72924604D01*
X124054734Y-72843796D01*
X124150840Y-72663992D01*
X124150841Y-72663991D01*
X124210024Y-72468893D01*
X124225000Y-72316836D01*
X124225000Y-72316833D01*
X124230007Y-72265998D01*
X124225000Y-72215163D01*
X124225000Y-71374433D01*
X124493819Y-71153819D01*
X124723129Y-70874404D01*
X124893521Y-70555622D01*
X124998448Y-70209723D01*
X125033878Y-69850000D01*
X124998448Y-69490277D01*
X124893521Y-69144378D01*
X124723129Y-68825596D01*
X124493819Y-68546181D01*
X124214404Y-68316871D01*
X123895622Y-68146479D01*
X123549723Y-68041552D01*
X123280139Y-68015000D01*
X123099861Y-68015000D01*
X122830277Y-68041552D01*
X122484378Y-68146479D01*
X122165596Y-68316871D01*
X121886181Y-68546181D01*
X121656871Y-68825596D01*
X121486479Y-69144378D01*
X121381552Y-69490277D01*
X121346122Y-69850000D01*
X121381552Y-70209723D01*
X121486479Y-70555622D01*
X121656871Y-70874404D01*
X121886181Y-71153819D01*
X122155000Y-71374433D01*
X122155000Y-71837287D01*
X115017288Y-78975000D01*
X114471199Y-78975000D01*
X114413567Y-78927703D01*
X114188526Y-78807417D01*
X113958023Y-78737494D01*
X114067680Y-78715733D01*
X114303461Y-78618193D01*
X114515683Y-78476529D01*
X114696189Y-78296184D01*
X114838044Y-78084089D01*
X114935795Y-77848395D01*
X114943820Y-77797105D01*
X114819933Y-77597000D01*
X113157000Y-77597000D01*
X113157000Y-77617000D01*
X112903000Y-77617000D01*
X112903000Y-77597000D01*
X111240067Y-77597000D01*
X111116180Y-77797105D01*
X111124205Y-77848395D01*
X111221956Y-78084089D01*
X111363811Y-78296184D01*
X111544317Y-78476529D01*
X111756539Y-78618193D01*
X111992320Y-78715733D01*
X112101977Y-78737494D01*
X111871474Y-78807417D01*
X111646433Y-78927703D01*
X111449182Y-79089582D01*
X111287303Y-79286833D01*
X111167017Y-79511874D01*
X111092944Y-79756057D01*
X111067933Y-80010000D01*
X111092944Y-80263943D01*
X111167017Y-80508126D01*
X111287303Y-80733167D01*
X111449182Y-80930418D01*
X111646433Y-81092297D01*
X111871474Y-81212583D01*
X112093715Y-81280000D01*
X111871474Y-81347417D01*
X111646433Y-81467703D01*
X111449182Y-81629582D01*
X111287303Y-81826833D01*
X111167017Y-82051874D01*
X111092944Y-82296057D01*
X111067933Y-82550000D01*
X111092023Y-82794590D01*
X109261245Y-82794590D01*
X109210410Y-82789583D01*
X109159575Y-82794590D01*
X109159572Y-82794590D01*
X109007515Y-82809566D01*
X108812417Y-82868749D01*
X108760510Y-82896494D01*
X108632612Y-82964856D01*
X108565800Y-83019688D01*
X108565800Y-81521227D01*
X108570806Y-81470399D01*
X108565800Y-81419571D01*
X108565800Y-81419562D01*
X108550824Y-81267505D01*
X108491641Y-81072407D01*
X108395534Y-80892603D01*
X108266196Y-80735004D01*
X108226708Y-80702597D01*
X107354364Y-79830253D01*
X107347056Y-79756057D01*
X107272983Y-79511874D01*
X107152697Y-79286833D01*
X106990818Y-79089582D01*
X106793567Y-78927703D01*
X106568526Y-78807417D01*
X106346285Y-78740000D01*
X106568526Y-78672583D01*
X106793567Y-78552297D01*
X106990818Y-78390418D01*
X107152697Y-78193167D01*
X107272983Y-77968126D01*
X107347056Y-77723943D01*
X107372067Y-77470000D01*
X107347056Y-77216057D01*
X107324863Y-77142895D01*
X111116180Y-77142895D01*
X111240067Y-77343000D01*
X112903000Y-77343000D01*
X112903000Y-76174600D01*
X113157000Y-76174600D01*
X113157000Y-77343000D01*
X114819933Y-77343000D01*
X114943820Y-77142895D01*
X114935795Y-77091605D01*
X114838044Y-76855911D01*
X114696189Y-76643816D01*
X114515683Y-76463471D01*
X114303461Y-76321807D01*
X114067680Y-76224267D01*
X113817400Y-76174600D01*
X113157000Y-76174600D01*
X112903000Y-76174600D01*
X112242600Y-76174600D01*
X111992320Y-76224267D01*
X111756539Y-76321807D01*
X111544317Y-76463471D01*
X111363811Y-76643816D01*
X111221956Y-76855911D01*
X111124205Y-77091605D01*
X111116180Y-77142895D01*
X107324863Y-77142895D01*
X107272983Y-76971874D01*
X107152697Y-76746833D01*
X106990818Y-76549582D01*
X106793567Y-76387703D01*
X106568526Y-76267417D01*
X106324343Y-76193344D01*
X106134030Y-76174600D01*
X104685970Y-76174600D01*
X104495657Y-76193344D01*
X104251474Y-76267417D01*
X104026433Y-76387703D01*
X103829182Y-76549582D01*
X103667303Y-76746833D01*
X103547017Y-76971874D01*
X103472944Y-77216057D01*
X103447933Y-77470000D01*
X103472944Y-77723943D01*
X103547017Y-77968126D01*
X103667303Y-78193167D01*
X103829182Y-78390418D01*
X104026433Y-78552297D01*
X104251474Y-78672583D01*
X104473715Y-78740000D01*
X104251474Y-78807417D01*
X104026433Y-78927703D01*
X103829182Y-79089582D01*
X103667303Y-79286833D01*
X103547017Y-79511874D01*
X103472944Y-79756057D01*
X103447933Y-80010000D01*
X103472944Y-80263943D01*
X103547017Y-80508126D01*
X103667303Y-80733167D01*
X103829182Y-80930418D01*
X104026433Y-81092297D01*
X104251474Y-81212583D01*
X104473715Y-81280000D01*
X104251474Y-81347417D01*
X104026433Y-81467703D01*
X103968801Y-81515000D01*
X99448711Y-81515000D01*
X99403072Y-81469361D01*
X99403072Y-80720000D01*
X99386008Y-80546746D01*
X99335472Y-80380150D01*
X99253405Y-80226614D01*
X99142962Y-80092038D01*
X99008386Y-79981595D01*
X98854850Y-79899528D01*
X98688254Y-79848992D01*
X98515000Y-79831928D01*
X97065000Y-79831928D01*
X96891746Y-79848992D01*
X96725150Y-79899528D01*
X96571614Y-79981595D01*
X96437038Y-80092038D01*
X96326595Y-80226614D01*
X96244528Y-80380150D01*
X96193992Y-80546746D01*
X96176928Y-80720000D01*
X96176928Y-81920000D01*
X96193992Y-82093254D01*
X96244528Y-82259850D01*
X96326595Y-82413386D01*
X96437038Y-82547962D01*
X96571614Y-82658405D01*
X96673337Y-82712777D01*
X96609866Y-82764866D01*
X96424294Y-82990986D01*
X96286401Y-83248966D01*
X96201487Y-83528889D01*
X96172815Y-83820000D01*
X96201487Y-84111111D01*
X96286401Y-84391034D01*
X96424294Y-84649014D01*
X96609866Y-84875134D01*
X96835986Y-85060706D01*
X96853374Y-85070000D01*
X96835986Y-85079294D01*
X96609866Y-85264866D01*
X96424294Y-85490986D01*
X96286401Y-85748966D01*
X96201487Y-86028889D01*
X96172815Y-86320000D01*
X96175368Y-86345921D01*
X94554097Y-87967193D01*
X94514604Y-87999604D01*
X94385266Y-88157203D01*
X94289159Y-88337008D01*
X94229976Y-88532106D01*
X94215000Y-88684163D01*
X94215000Y-88684172D01*
X94209994Y-88735000D01*
X92100000Y-88735000D01*
X92100000Y-65430000D01*
X158090001Y-65430000D01*
X158090000Y-109830000D01*
G36*
X103620067Y-87503000D02*
G01*
X105283000Y-87503000D01*
X105283000Y-87483000D01*
X105537000Y-87483000D01*
X105537000Y-87503000D01*
X107199933Y-87503000D01*
X107272734Y-87385410D01*
X108781700Y-87385410D01*
X109245400Y-87849111D01*
X109245401Y-95500890D01*
X108298607Y-94554097D01*
X108266196Y-94514604D01*
X108108597Y-94385266D01*
X107928793Y-94289159D01*
X107733695Y-94229976D01*
X107581638Y-94215000D01*
X107581628Y-94215000D01*
X107530800Y-94209994D01*
X107479972Y-94215000D01*
X106851199Y-94215000D01*
X106793567Y-94167703D01*
X106568526Y-94047417D01*
X106346285Y-93980000D01*
X106568526Y-93912583D01*
X106793567Y-93792297D01*
X106990818Y-93630418D01*
X107152697Y-93433167D01*
X107272983Y-93208126D01*
X107347056Y-92963943D01*
X107372067Y-92710000D01*
X107347056Y-92456057D01*
X107272983Y-92211874D01*
X107152697Y-91986833D01*
X106990818Y-91789582D01*
X106793567Y-91627703D01*
X106568526Y-91507417D01*
X106346285Y-91440000D01*
X106568526Y-91372583D01*
X106793567Y-91252297D01*
X106990818Y-91090418D01*
X107152697Y-90893167D01*
X107272983Y-90668126D01*
X107347056Y-90423943D01*
X107372067Y-90170000D01*
X107347056Y-89916057D01*
X107272983Y-89671874D01*
X107152697Y-89446833D01*
X106990818Y-89249582D01*
X106793567Y-89087703D01*
X106568526Y-88967417D01*
X106338023Y-88897494D01*
X106447680Y-88875733D01*
X106683461Y-88778193D01*
X106895683Y-88636529D01*
X107076189Y-88456184D01*
X107218044Y-88244089D01*
X107315795Y-88008395D01*
X107323820Y-87957105D01*
X107199933Y-87757000D01*
X105537000Y-87757000D01*
X105537000Y-87777000D01*
X105283000Y-87777000D01*
X105283000Y-87757000D01*
X103620067Y-87757000D01*
X103496180Y-87957105D01*
X103504205Y-88008395D01*
X103601956Y-88244089D01*
X103743811Y-88456184D01*
X103924317Y-88636529D01*
X104136539Y-88778193D01*
X104372320Y-88875733D01*
X104481977Y-88897494D01*
X104251474Y-88967417D01*
X104026433Y-89087703D01*
X103968801Y-89135000D01*
X102920835Y-89135000D01*
X102870000Y-89129993D01*
X102819165Y-89135000D01*
X102819162Y-89135000D01*
X102667105Y-89149976D01*
X102472007Y-89209159D01*
X102455480Y-89217993D01*
X102292202Y-89305266D01*
X102174092Y-89402197D01*
X102134604Y-89434604D01*
X102102197Y-89474092D01*
X98571280Y-93005010D01*
X96345010Y-93005010D01*
X96345010Y-92820845D01*
X96350017Y-92770010D01*
X96344347Y-92712442D01*
X96330034Y-92567115D01*
X96285000Y-92418659D01*
X96285000Y-91852373D01*
X96315648Y-91939858D01*
X96462504Y-92191193D01*
X96655571Y-92409049D01*
X96887430Y-92585053D01*
X97149170Y-92712442D01*
X97430733Y-92786320D01*
X97663000Y-92646165D01*
X97663000Y-91447000D01*
X97917000Y-91447000D01*
X97917000Y-92646165D01*
X98149267Y-92786320D01*
X98430830Y-92712442D01*
X98692570Y-92585053D01*
X98924429Y-92409049D01*
X99117496Y-92191193D01*
X99264352Y-91939858D01*
X99356476Y-91676890D01*
X99235155Y-91447000D01*
X97917000Y-91447000D01*
X97663000Y-91447000D01*
X97643000Y-91447000D01*
X97643000Y-91193000D01*
X97663000Y-91193000D01*
X97663000Y-91173000D01*
X97917000Y-91173000D01*
X97917000Y-91193000D01*
X99235155Y-91193000D01*
X99356476Y-90963110D01*
X99264352Y-90700142D01*
X99117496Y-90448807D01*
X98924429Y-90230951D01*
X98718278Y-90074462D01*
X98744014Y-90060706D01*
X98970134Y-89875134D01*
X99155706Y-89649014D01*
X99293599Y-89391034D01*
X99378513Y-89111111D01*
X99407185Y-88820000D01*
X99404632Y-88794078D01*
X100813301Y-87385410D01*
X103547266Y-87385410D01*
X103620067Y-87503000D01*
X103620067Y-87503000D01*
G37*
X103620067Y-87503000D02*
X105283000Y-87503000D01*
X105283000Y-87483000D01*
X105537000Y-87483000D01*
X105537000Y-87503000D01*
X107199933Y-87503000D01*
X107272734Y-87385410D01*
X108781700Y-87385410D01*
X109245400Y-87849111D01*
X109245401Y-95500890D01*
X108298607Y-94554097D01*
X108266196Y-94514604D01*
X108108597Y-94385266D01*
X107928793Y-94289159D01*
X107733695Y-94229976D01*
X107581638Y-94215000D01*
X107581628Y-94215000D01*
X107530800Y-94209994D01*
X107479972Y-94215000D01*
X106851199Y-94215000D01*
X106793567Y-94167703D01*
X106568526Y-94047417D01*
X106346285Y-93980000D01*
X106568526Y-93912583D01*
X106793567Y-93792297D01*
X106990818Y-93630418D01*
X107152697Y-93433167D01*
X107272983Y-93208126D01*
X107347056Y-92963943D01*
X107372067Y-92710000D01*
X107347056Y-92456057D01*
X107272983Y-92211874D01*
X107152697Y-91986833D01*
X106990818Y-91789582D01*
X106793567Y-91627703D01*
X106568526Y-91507417D01*
X106346285Y-91440000D01*
X106568526Y-91372583D01*
X106793567Y-91252297D01*
X106990818Y-91090418D01*
X107152697Y-90893167D01*
X107272983Y-90668126D01*
X107347056Y-90423943D01*
X107372067Y-90170000D01*
X107347056Y-89916057D01*
X107272983Y-89671874D01*
X107152697Y-89446833D01*
X106990818Y-89249582D01*
X106793567Y-89087703D01*
X106568526Y-88967417D01*
X106338023Y-88897494D01*
X106447680Y-88875733D01*
X106683461Y-88778193D01*
X106895683Y-88636529D01*
X107076189Y-88456184D01*
X107218044Y-88244089D01*
X107315795Y-88008395D01*
X107323820Y-87957105D01*
X107199933Y-87757000D01*
X105537000Y-87757000D01*
X105537000Y-87777000D01*
X105283000Y-87777000D01*
X105283000Y-87757000D01*
X103620067Y-87757000D01*
X103496180Y-87957105D01*
X103504205Y-88008395D01*
X103601956Y-88244089D01*
X103743811Y-88456184D01*
X103924317Y-88636529D01*
X104136539Y-88778193D01*
X104372320Y-88875733D01*
X104481977Y-88897494D01*
X104251474Y-88967417D01*
X104026433Y-89087703D01*
X103968801Y-89135000D01*
X102920835Y-89135000D01*
X102870000Y-89129993D01*
X102819165Y-89135000D01*
X102819162Y-89135000D01*
X102667105Y-89149976D01*
X102472007Y-89209159D01*
X102455480Y-89217993D01*
X102292202Y-89305266D01*
X102174092Y-89402197D01*
X102134604Y-89434604D01*
X102102197Y-89474092D01*
X98571280Y-93005010D01*
X96345010Y-93005010D01*
X96345010Y-92820845D01*
X96350017Y-92770010D01*
X96344347Y-92712442D01*
X96330034Y-92567115D01*
X96285000Y-92418659D01*
X96285000Y-91852373D01*
X96315648Y-91939858D01*
X96462504Y-92191193D01*
X96655571Y-92409049D01*
X96887430Y-92585053D01*
X97149170Y-92712442D01*
X97430733Y-92786320D01*
X97663000Y-92646165D01*
X97663000Y-91447000D01*
X97917000Y-91447000D01*
X97917000Y-92646165D01*
X98149267Y-92786320D01*
X98430830Y-92712442D01*
X98692570Y-92585053D01*
X98924429Y-92409049D01*
X99117496Y-92191193D01*
X99264352Y-91939858D01*
X99356476Y-91676890D01*
X99235155Y-91447000D01*
X97917000Y-91447000D01*
X97663000Y-91447000D01*
X97643000Y-91447000D01*
X97643000Y-91193000D01*
X97663000Y-91193000D01*
X97663000Y-91173000D01*
X97917000Y-91173000D01*
X97917000Y-91193000D01*
X99235155Y-91193000D01*
X99356476Y-90963110D01*
X99264352Y-90700142D01*
X99117496Y-90448807D01*
X98924429Y-90230951D01*
X98718278Y-90074462D01*
X98744014Y-90060706D01*
X98970134Y-89875134D01*
X99155706Y-89649014D01*
X99293599Y-89391034D01*
X99378513Y-89111111D01*
X99407185Y-88820000D01*
X99404632Y-88794078D01*
X100813301Y-87385410D01*
X103547266Y-87385410D01*
X103620067Y-87503000D01*
M02*
