  0
SECTION
  2
HEADER
  9
$ANGBASE
  50
0.0
  9
$ANGDIR
  70
1
  9
$MEASUREMENT
  70
0
  0
ENDSEC
  0
SECTION
  2
TABLES
  0
TABLE
  2
LTYPE
  70
4
  0
LTYPE
  5
40F
  2
CONTINUOUS
  70
0
  3
Solid line
  72
65
  73
0
  40
0.0
  0
LTYPE
  5
410
  2
DASHDOT
 70
0
  3
Dash Dot ____ _ ____ _
 72
65
 73
4
 40
2.0
 49
1.25
 49
-0.25
 49
0.25
 49
-0.25
  0
LTYPE
  5
411
  2
DASHED
 70
0
  3
Dashed __ __ __ __ __
 72
65
 73
2
 40
0.75
 49
0.5
 49
-0.25
  0
LTYPE
  5
43B
  2
DOTTED
 70
0
  3
Dotted .  .  .  .
 72
65
 73
2
 40
0.2
 49
0.0
 49
-0.2
  0
ENDTAB
  0
TABLE
  2
STYLE
  70
4
  0
STYLE
  2
KICAD
  70
0
  40
0
  41
1
  42
1
  50
0
  71
0
  3
isocp.shx
  0
STYLE
  2
KICADB
  70
0
  40
0
  41
1
  42
1
  50
0
  71
0
  3
isocp.shx
  0
STYLE
  2
KICADI
  70
0
  40
0
  41
1
  42
1
  50
15
  71
0
  3
isocp.shx
  0
STYLE
  2
KICADBI
  70
0
  40
0
  41
1
  42
1
  50
15
  71
0
  3
isocp.shx
  0
ENDTAB
  0
TABLE
  2
LAYER
  70
1
  0
LAYER
  2
BLACK
  70
0
  62
7
  6
CONTINUOUS
  0
ENDTAB
  0
ENDSEC
  0
SECTION
  2
ENTITIES
0
LINE
8
BLACK
6
CONTINUOUS
10
3.1
20
-1.64901
11
3.10005
21
-1.64902
0
LINE
8
BLACK
6
CONTINUOUS
10
3.10005
20
-1.64902
11
3.10005
21
-1.64902
0
LINE
8
BLACK
6
CONTINUOUS
10
3.10005
20
-1.64902
11
3.10019
21
-1.64903
0
LINE
8
BLACK
6
CONTINUOUS
10
3.10019
20
-1.64903
11
3.10038
21
-1.64909
0
LINE
8
BLACK
6
CONTINUOUS
10
3.10038
20
-1.64909
11
3.10055
21
-1.64918
0
LINE
8
BLACK
6
CONTINUOUS
10
3.10055
20
-1.64918
11
3.1007
21
-1.6493
0
LINE
8
BLACK
6
CONTINUOUS
10
3.1007
20
-1.6493
11
3.10082
21
-1.64945
0
LINE
8
BLACK
6
CONTINUOUS
10
3.10082
20
-1.64945
11
3.10091
21
-1.64962
0
LINE
8
BLACK
6
CONTINUOUS
10
3.10091
20
-1.64962
11
3.10097
21
-1.64981
0
LINE
8
BLACK
6
CONTINUOUS
10
3.10097
20
-1.64981
11
3.10099
21
-1.65
0
LINE
8
BLACK
6
CONTINUOUS
10
3.10099
20
-1.65
11
3.10098
21
-1.65005
0
LINE
8
BLACK
6
CONTINUOUS
10
3.10098
20
-1.65005
11
3.10098
21
-2.74995
0
LINE
8
BLACK
6
CONTINUOUS
10
3.10098
20
-2.74995
11
3.10099
21
-2.75
0
LINE
8
BLACK
6
CONTINUOUS
10
3.10099
20
-2.75
11
3.10098
21
-2.75005
0
LINE
8
BLACK
6
CONTINUOUS
10
3.10098
20
-2.75005
11
3.10098
21
-2.75005
0
LINE
8
BLACK
6
CONTINUOUS
10
3.10098
20
-2.75005
11
3.10097
21
-2.75019
0
LINE
8
BLACK
6
CONTINUOUS
10
3.10097
20
-2.75019
11
3.10091
21
-2.75038
0
LINE
8
BLACK
6
CONTINUOUS
10
3.10091
20
-2.75038
11
3.10082
21
-2.75055
0
LINE
8
BLACK
6
CONTINUOUS
10
3.10082
20
-2.75055
11
3.1007
21
-2.7507
0
LINE
8
BLACK
6
CONTINUOUS
10
3.1007
20
-2.7507
11
3.10055
21
-2.75082
0
LINE
8
BLACK
6
CONTINUOUS
10
3.10055
20
-2.75082
11
3.10038
21
-2.75091
0
LINE
8
BLACK
6
CONTINUOUS
10
3.10038
20
-2.75091
11
3.10019
21
-2.75097
0
LINE
8
BLACK
6
CONTINUOUS
10
3.10019
20
-2.75097
11
3.1
21
-2.75099
0
LINE
8
BLACK
6
CONTINUOUS
10
3.1
20
-2.75099
11
3.09995
21
-2.75098
0
LINE
8
BLACK
6
CONTINUOUS
10
3.09995
20
-2.75098
11
1.65005
21
-2.75098
0
LINE
8
BLACK
6
CONTINUOUS
10
1.65005
20
-2.75098
11
1.65
21
-2.75099
0
LINE
8
BLACK
6
CONTINUOUS
10
1.65
20
-2.75099
11
1.64981
21
-2.75097
0
LINE
8
BLACK
6
CONTINUOUS
10
1.64981
20
-2.75097
11
1.64962
21
-2.75091
0
LINE
8
BLACK
6
CONTINUOUS
10
1.64962
20
-2.75091
11
1.64945
21
-2.75082
0
LINE
8
BLACK
6
CONTINUOUS
10
1.64945
20
-2.75082
11
1.6493
21
-2.7507
0
LINE
8
BLACK
6
CONTINUOUS
10
1.6493
20
-2.7507
11
1.64918
21
-2.75055
0
LINE
8
BLACK
6
CONTINUOUS
10
1.64918
20
-2.75055
11
1.64909
21
-2.75038
0
LINE
8
BLACK
6
CONTINUOUS
10
1.64909
20
-2.75038
11
1.64903
21
-2.75019
0
LINE
8
BLACK
6
CONTINUOUS
10
1.64903
20
-2.75019
11
1.64901
21
-2.75
0
LINE
8
BLACK
6
CONTINUOUS
10
1.64901
20
-2.75
11
1.64902
21
-2.74995
0
LINE
8
BLACK
6
CONTINUOUS
10
1.64902
20
-2.74995
11
1.64902
21
-1.65005
0
LINE
8
BLACK
6
CONTINUOUS
10
1.64902
20
-1.65005
11
1.64901
21
-1.65
0
LINE
8
BLACK
6
CONTINUOUS
10
1.64901
20
-1.65
11
1.64903
21
-1.64981
0
LINE
8
BLACK
6
CONTINUOUS
10
1.64903
20
-1.64981
11
1.64909
21
-1.64962
0
LINE
8
BLACK
6
CONTINUOUS
10
1.64909
20
-1.64962
11
1.64918
21
-1.64945
0
LINE
8
BLACK
6
CONTINUOUS
10
1.64918
20
-1.64945
11
1.6493
21
-1.6493
0
LINE
8
BLACK
6
CONTINUOUS
10
1.6493
20
-1.6493
11
1.64945
21
-1.64918
0
LINE
8
BLACK
6
CONTINUOUS
10
1.64945
20
-1.64918
11
1.64962
21
-1.64909
0
LINE
8
BLACK
6
CONTINUOUS
10
1.64962
20
-1.64909
11
1.64981
21
-1.64903
0
LINE
8
BLACK
6
CONTINUOUS
10
1.64981
20
-1.64903
11
1.64995
21
-1.64902
0
LINE
8
BLACK
6
CONTINUOUS
10
1.64995
20
-1.64902
11
1.64995
21
-1.64902
0
LINE
8
BLACK
6
CONTINUOUS
10
1.64995
20
-1.64902
11
1.65
21
-1.64901
0
LINE
8
BLACK
6
CONTINUOUS
10
1.65
20
-1.64901
11
1.65005
21
-1.64902
0
LINE
8
BLACK
6
CONTINUOUS
10
1.65005
20
-1.64902
11
3.09995
21
-1.64902
0
LINE
8
BLACK
6
CONTINUOUS
10
3.09995
20
-1.64902
11
3.1
21
-1.64901
0
LINE
8
BLACK
6
CONTINUOUS
10
1.65098
20
-2.74902
11
3.09902
21
-2.74902
0
LINE
8
BLACK
6
CONTINUOUS
10
3.09902
20
-2.74902
11
3.09902
21
-1.65098
0
LINE
8
BLACK
6
CONTINUOUS
10
3.09902
20
-1.65098
11
1.65098
21
-1.65098
0
LINE
8
BLACK
6
CONTINUOUS
10
1.65098
20
-1.65098
11
1.65098
21
-2.74902
0
LINE
8
BLACK
6
CONTINUOUS
10
2.38628
20
-1.77746
11
2.38634
21
-1.77746
0
LINE
8
BLACK
6
CONTINUOUS
10
2.38634
20
-1.77746
11
2.3864
21
-1.77747
0
LINE
8
BLACK
6
CONTINUOUS
10
2.3864
20
-1.77747
11
2.38644
21
-1.77747
0
LINE
8
BLACK
6
CONTINUOUS
10
2.38644
20
-1.77747
11
2.38647
21
-1.77748
0
LINE
8
BLACK
6
CONTINUOUS
10
2.38647
20
-1.77748
11
2.38653
21
-1.7775
0
LINE
8
BLACK
6
CONTINUOUS
10
2.38653
20
-1.7775
11
2.38659
21
-1.77751
0
LINE
8
BLACK
6
CONTINUOUS
10
2.38659
20
-1.77751
11
2.38662
21
-1.77753
0
LINE
8
BLACK
6
CONTINUOUS
10
2.38662
20
-1.77753
11
2.38665
21
-1.77754
0
LINE
8
BLACK
6
CONTINUOUS
10
2.38665
20
-1.77754
11
2.38671
21
-1.77757
0
LINE
8
BLACK
6
CONTINUOUS
10
2.38671
20
-1.77757
11
2.38676
21
-1.77759
0
LINE
8
BLACK
6
CONTINUOUS
10
2.38676
20
-1.77759
11
2.38679
21
-1.77761
0
LINE
8
BLACK
6
CONTINUOUS
10
2.38679
20
-1.77761
11
2.38682
21
-1.77763
0
LINE
8
BLACK
6
CONTINUOUS
10
2.38682
20
-1.77763
11
2.38687
21
-1.77767
0
LINE
8
BLACK
6
CONTINUOUS
10
2.38687
20
-1.77767
11
2.38692
21
-1.7777
0
LINE
8
BLACK
6
CONTINUOUS
10
2.38692
20
-1.7777
11
2.38694
21
-1.77773
0
LINE
8
BLACK
6
CONTINUOUS
10
2.38694
20
-1.77773
11
2.38697
21
-1.77775
0
LINE
8
BLACK
6
CONTINUOUS
10
2.38697
20
-1.77775
11
2.38701
21
-1.7778
0
LINE
8
BLACK
6
CONTINUOUS
10
2.38701
20
-1.7778
11
2.38705
21
-1.77784
0
LINE
8
BLACK
6
CONTINUOUS
10
2.38705
20
-1.77784
11
2.38707
21
-1.77787
0
LINE
8
BLACK
6
CONTINUOUS
10
2.38707
20
-1.77787
11
2.38709
21
-1.7779
0
LINE
8
BLACK
6
CONTINUOUS
10
2.38709
20
-1.7779
11
2.38712
21
-1.77796
0
LINE
8
BLACK
6
CONTINUOUS
10
2.38712
20
-1.77796
11
2.38715
21
-1.77801
0
LINE
8
BLACK
6
CONTINUOUS
10
2.38715
20
-1.77801
11
2.38716
21
-1.77804
0
LINE
8
BLACK
6
CONTINUOUS
10
2.38716
20
-1.77804
11
2.38718
21
-1.77807
0
LINE
8
BLACK
6
CONTINUOUS
10
2.38718
20
-1.77807
11
2.3872
21
-1.77813
0
LINE
8
BLACK
6
CONTINUOUS
10
2.3872
20
-1.77813
11
2.38722
21
-1.77819
0
LINE
8
BLACK
6
CONTINUOUS
10
2.38722
20
-1.77819
11
2.38722
21
-1.77822
0
LINE
8
BLACK
6
CONTINUOUS
10
2.38722
20
-1.77822
11
2.38723
21
-1.77826
0
LINE
8
BLACK
6
CONTINUOUS
10
2.38723
20
-1.77826
11
2.38724
21
-1.77832
0
LINE
8
BLACK
6
CONTINUOUS
10
2.38724
20
-1.77832
11
2.38725
21
-1.77838
0
LINE
8
BLACK
6
CONTINUOUS
10
2.38725
20
-1.77838
11
2.38725
21
-1.77841
0
LINE
8
BLACK
6
CONTINUOUS
10
2.38725
20
-1.77841
11
2.38725
21
-1.77845
0
LINE
8
BLACK
6
CONTINUOUS
10
2.38725
20
-1.77845
11
2.38724
21
-1.77851
0
LINE
8
BLACK
6
CONTINUOUS
10
2.38724
20
-1.77851
11
2.38724
21
-1.77857
0
LINE
8
BLACK
6
CONTINUOUS
10
2.38724
20
-1.77857
11
2.38723
21
-1.7786
0
LINE
8
BLACK
6
CONTINUOUS
10
2.38723
20
-1.7786
11
2.38723
21
-1.77864
0
LINE
8
BLACK
6
CONTINUOUS
10
2.38723
20
-1.77864
11
2.38721
21
-1.7787
0
LINE
8
BLACK
6
CONTINUOUS
10
2.38721
20
-1.7787
11
2.3872
21
-1.77876
0
LINE
8
BLACK
6
CONTINUOUS
10
2.3872
20
-1.77876
11
2.38718
21
-1.77879
0
LINE
8
BLACK
6
CONTINUOUS
10
2.38718
20
-1.77879
11
2.38717
21
-1.77882
0
LINE
8
BLACK
6
CONTINUOUS
10
2.38717
20
-1.77882
11
2.38714
21
-1.77888
0
LINE
8
BLACK
6
CONTINUOUS
10
2.38714
20
-1.77888
11
2.38712
21
-1.77893
0
LINE
8
BLACK
6
CONTINUOUS
10
2.38712
20
-1.77893
11
2.3871
21
-1.77896
0
LINE
8
BLACK
6
CONTINUOUS
10
2.3871
20
-1.77896
11
2.38708
21
-1.77899
0
LINE
8
BLACK
6
CONTINUOUS
10
2.38708
20
-1.77899
11
2.38704
21
-1.77904
0
LINE
8
BLACK
6
CONTINUOUS
10
2.38704
20
-1.77904
11
2.38701
21
-1.77909
0
LINE
8
BLACK
6
CONTINUOUS
10
2.38701
20
-1.77909
11
2.37531
21
-1.79245
0
LINE
8
BLACK
6
CONTINUOUS
10
2.37531
20
-1.79245
11
2.37877
21
-1.79245
0
LINE
8
BLACK
6
CONTINUOUS
10
2.37877
20
-1.79245
11
2.37878
21
-1.79245
0
LINE
8
BLACK
6
CONTINUOUS
10
2.37878
20
-1.79245
11
2.37881
21
-1.79246
0
LINE
8
BLACK
6
CONTINUOUS
10
2.37881
20
-1.79246
11
2.37884
21
-1.79246
0
LINE
8
BLACK
6
CONTINUOUS
10
2.37884
20
-1.79246
11
2.3789
21
-1.79247
0
LINE
8
BLACK
6
CONTINUOUS
10
2.3789
20
-1.79247
11
2.37897
21
-1.79248
0
LINE
8
BLACK
6
CONTINUOUS
10
2.37897
20
-1.79248
11
2.379
21
-1.79248
0
LINE
8
BLACK
6
CONTINUOUS
10
2.379
20
-1.79248
11
2.37903
21
-1.79249
0
LINE
8
BLACK
6
CONTINUOUS
10
2.37903
20
-1.79249
11
2.37909
21
-1.79251
0
LINE
8
BLACK
6
CONTINUOUS
10
2.37909
20
-1.79251
11
2.37915
21
-1.79253
0
LINE
8
BLACK
6
CONTINUOUS
10
2.37915
20
-1.79253
11
2.37918
21
-1.79255
0
LINE
8
BLACK
6
CONTINUOUS
10
2.37918
20
-1.79255
11
2.37921
21
-1.79256
0
LINE
8
BLACK
6
CONTINUOUS
10
2.37921
20
-1.79256
11
2.38296
21
-1.79443
0
LINE
8
BLACK
6
CONTINUOUS
10
2.38296
20
-1.79443
11
2.38297
21
-1.79444
0
LINE
8
BLACK
6
CONTINUOUS
10
2.38297
20
-1.79444
11
2.38301
21
-1.79447
0
LINE
8
BLACK
6
CONTINUOUS
10
2.38301
20
-1.79447
11
2.38306
21
-1.7945
0
LINE
8
BLACK
6
CONTINUOUS
10
2.38306
20
-1.7945
11
2.38309
21
-1.79452
0
LINE
8
BLACK
6
CONTINUOUS
10
2.38309
20
-1.79452
11
2.38313
21
-1.79454
0
LINE
8
BLACK
6
CONTINUOUS
10
2.38313
20
-1.79454
11
2.38317
21
-1.79458
0
LINE
8
BLACK
6
CONTINUOUS
10
2.38317
20
-1.79458
11
2.38321
21
-1.79462
0
LINE
8
BLACK
6
CONTINUOUS
10
2.38321
20
-1.79462
11
2.38509
21
-1.79649
0
LINE
8
BLACK
6
CONTINUOUS
10
2.38509
20
-1.79649
11
2.3851
21
-1.7965
0
LINE
8
BLACK
6
CONTINUOUS
10
2.3851
20
-1.7965
11
2.38513
21
-1.79655
0
LINE
8
BLACK
6
CONTINUOUS
10
2.38513
20
-1.79655
11
2.38517
21
-1.79659
0
LINE
8
BLACK
6
CONTINUOUS
10
2.38517
20
-1.79659
11
2.38519
21
-1.79662
0
LINE
8
BLACK
6
CONTINUOUS
10
2.38519
20
-1.79662
11
2.38522
21
-1.79665
0
LINE
8
BLACK
6
CONTINUOUS
10
2.38522
20
-1.79665
11
2.38524
21
-1.7967
0
LINE
8
BLACK
6
CONTINUOUS
10
2.38524
20
-1.7967
11
2.38527
21
-1.79675
0
LINE
8
BLACK
6
CONTINUOUS
10
2.38527
20
-1.79675
11
2.38715
21
-1.8005
0
LINE
8
BLACK
6
CONTINUOUS
10
2.38715
20
-1.8005
11
2.38715
21
-1.80051
0
LINE
8
BLACK
6
CONTINUOUS
10
2.38715
20
-1.80051
11
2.38716
21
-1.80054
0
LINE
8
BLACK
6
CONTINUOUS
10
2.38716
20
-1.80054
11
2.38718
21
-1.80056
0
LINE
8
BLACK
6
CONTINUOUS
10
2.38718
20
-1.80056
11
2.38719
21
-1.80063
0
LINE
8
BLACK
6
CONTINUOUS
10
2.38719
20
-1.80063
11
2.38722
21
-1.80069
0
LINE
8
BLACK
6
CONTINUOUS
10
2.38722
20
-1.80069
11
2.38722
21
-1.80072
0
LINE
8
BLACK
6
CONTINUOUS
10
2.38722
20
-1.80072
11
2.38723
21
-1.80075
0
LINE
8
BLACK
6
CONTINUOUS
10
2.38723
20
-1.80075
11
2.38724
21
-1.80081
0
LINE
8
BLACK
6
CONTINUOUS
10
2.38724
20
-1.80081
11
2.38725
21
-1.80088
0
LINE
8
BLACK
6
CONTINUOUS
10
2.38725
20
-1.80088
11
2.38725
21
-1.80091
0
LINE
8
BLACK
6
CONTINUOUS
10
2.38725
20
-1.80091
11
2.38725
21
-1.80094
0
LINE
8
BLACK
6
CONTINUOUS
10
2.38725
20
-1.80094
11
2.38725
21
-1.81031
0
LINE
8
BLACK
6
CONTINUOUS
10
2.38725
20
-1.81031
11
2.38725
21
-1.81032
0
LINE
8
BLACK
6
CONTINUOUS
10
2.38725
20
-1.81032
11
2.38725
21
-1.81035
0
LINE
8
BLACK
6
CONTINUOUS
10
2.38725
20
-1.81035
11
2.38725
21
-1.81038
0
LINE
8
BLACK
6
CONTINUOUS
10
2.38725
20
-1.81038
11
2.38724
21
-1.81045
0
LINE
8
BLACK
6
CONTINUOUS
10
2.38724
20
-1.81045
11
2.38723
21
-1.81052
0
LINE
8
BLACK
6
CONTINUOUS
10
2.38723
20
-1.81052
11
2.38722
21
-1.81054
0
LINE
8
BLACK
6
CONTINUOUS
10
2.38722
20
-1.81054
11
2.38721
21
-1.81057
0
LINE
8
BLACK
6
CONTINUOUS
10
2.38721
20
-1.81057
11
2.38719
21
-1.81063
0
LINE
8
BLACK
6
CONTINUOUS
10
2.38719
20
-1.81063
11
2.38717
21
-1.8107
0
LINE
8
BLACK
6
CONTINUOUS
10
2.38717
20
-1.8107
11
2.38716
21
-1.81072
0
LINE
8
BLACK
6
CONTINUOUS
10
2.38716
20
-1.81072
11
2.38715
21
-1.81075
0
LINE
8
BLACK
6
CONTINUOUS
10
2.38715
20
-1.81075
11
2.38527
21
-1.8145
0
LINE
8
BLACK
6
CONTINUOUS
10
2.38527
20
-1.8145
11
2.38526
21
-1.81451
0
LINE
8
BLACK
6
CONTINUOUS
10
2.38526
20
-1.81451
11
2.38523
21
-1.81456
0
LINE
8
BLACK
6
CONTINUOUS
10
2.38523
20
-1.81456
11
2.38521
21
-1.81461
0
LINE
8
BLACK
6
CONTINUOUS
10
2.38521
20
-1.81461
11
2.38518
21
-1.81464
0
LINE
8
BLACK
6
CONTINUOUS
10
2.38518
20
-1.81464
11
2.38516
21
-1.81467
0
LINE
8
BLACK
6
CONTINUOUS
10
2.38516
20
-1.81467
11
2.38512
21
-1.81471
0
LINE
8
BLACK
6
CONTINUOUS
10
2.38512
20
-1.81471
11
2.38509
21
-1.81476
0
LINE
8
BLACK
6
CONTINUOUS
10
2.38509
20
-1.81476
11
2.38321
21
-1.81663
0
LINE
8
BLACK
6
CONTINUOUS
10
2.38321
20
-1.81663
11
2.3832
21
-1.81664
0
LINE
8
BLACK
6
CONTINUOUS
10
2.3832
20
-1.81664
11
2.38316
21
-1.81668
0
LINE
8
BLACK
6
CONTINUOUS
10
2.38316
20
-1.81668
11
2.38312
21
-1.81671
0
LINE
8
BLACK
6
CONTINUOUS
10
2.38312
20
-1.81671
11
2.38308
21
-1.81674
0
LINE
8
BLACK
6
CONTINUOUS
10
2.38308
20
-1.81674
11
2.38305
21
-1.81676
0
LINE
8
BLACK
6
CONTINUOUS
10
2.38305
20
-1.81676
11
2.383
21
-1.81679
0
LINE
8
BLACK
6
CONTINUOUS
10
2.383
20
-1.81679
11
2.38296
21
-1.81682
0
LINE
8
BLACK
6
CONTINUOUS
10
2.38296
20
-1.81682
11
2.37921
21
-1.81869
0
LINE
8
BLACK
6
CONTINUOUS
10
2.37921
20
-1.81869
11
2.37919
21
-1.8187
0
LINE
8
BLACK
6
CONTINUOUS
10
2.37919
20
-1.8187
11
2.37917
21
-1.81871
0
LINE
8
BLACK
6
CONTINUOUS
10
2.37917
20
-1.81871
11
2.37914
21
-1.81872
0
LINE
8
BLACK
6
CONTINUOUS
10
2.37914
20
-1.81872
11
2.37908
21
-1.81874
0
LINE
8
BLACK
6
CONTINUOUS
10
2.37908
20
-1.81874
11
2.37901
21
-1.81876
0
LINE
8
BLACK
6
CONTINUOUS
10
2.37901
20
-1.81876
11
2.37898
21
-1.81877
0
LINE
8
BLACK
6
CONTINUOUS
10
2.37898
20
-1.81877
11
2.37896
21
-1.81878
0
LINE
8
BLACK
6
CONTINUOUS
10
2.37896
20
-1.81878
11
2.37889
21
-1.81878
0
LINE
8
BLACK
6
CONTINUOUS
10
2.37889
20
-1.81878
11
2.37882
21
-1.81879
0
LINE
8
BLACK
6
CONTINUOUS
10
2.37882
20
-1.81879
11
2.37879
21
-1.81879
0
LINE
8
BLACK
6
CONTINUOUS
10
2.37879
20
-1.81879
11
2.37877
21
-1.81879
0
LINE
8
BLACK
6
CONTINUOUS
10
2.37877
20
-1.81879
11
2.36752
21
-1.81879
0
LINE
8
BLACK
6
CONTINUOUS
10
2.36752
20
-1.81879
11
2.3675
21
-1.81879
0
LINE
8
BLACK
6
CONTINUOUS
10
2.3675
20
-1.81879
11
2.36747
21
-1.81879
0
LINE
8
BLACK
6
CONTINUOUS
10
2.36747
20
-1.81879
11
2.36745
21
-1.81879
0
LINE
8
BLACK
6
CONTINUOUS
10
2.36745
20
-1.81879
11
2.36738
21
-1.81878
0
LINE
8
BLACK
6
CONTINUOUS
10
2.36738
20
-1.81878
11
2.36731
21
-1.81877
0
LINE
8
BLACK
6
CONTINUOUS
10
2.36731
20
-1.81877
11
2.36728
21
-1.81876
0
LINE
8
BLACK
6
CONTINUOUS
10
2.36728
20
-1.81876
11
2.36726
21
-1.81876
0
LINE
8
BLACK
6
CONTINUOUS
10
2.36726
20
-1.81876
11
2.36719
21
-1.81874
0
LINE
8
BLACK
6
CONTINUOUS
10
2.36719
20
-1.81874
11
2.36713
21
-1.81871
0
LINE
8
BLACK
6
CONTINUOUS
10
2.36713
20
-1.81871
11
2.3671
21
-1.8187
0
LINE
8
BLACK
6
CONTINUOUS
10
2.3671
20
-1.8187
11
2.36708
21
-1.81869
0
LINE
8
BLACK
6
CONTINUOUS
10
2.36708
20
-1.81869
11
2.36333
21
-1.81682
0
LINE
8
BLACK
6
CONTINUOUS
10
2.36333
20
-1.81682
11
2.36332
21
-1.81681
0
LINE
8
BLACK
6
CONTINUOUS
10
2.36332
20
-1.81681
11
2.36327
21
-1.81678
0
LINE
8
BLACK
6
CONTINUOUS
10
2.36327
20
-1.81678
11
2.36322
21
-1.81675
0
LINE
8
BLACK
6
CONTINUOUS
10
2.36322
20
-1.81675
11
2.36319
21
-1.81673
0
LINE
8
BLACK
6
CONTINUOUS
10
2.36319
20
-1.81673
11
2.36315
21
-1.81671
0
LINE
8
BLACK
6
CONTINUOUS
10
2.36315
20
-1.81671
11
2.36311
21
-1.81667
0
LINE
8
BLACK
6
CONTINUOUS
10
2.36311
20
-1.81667
11
2.36307
21
-1.81663
0
LINE
8
BLACK
6
CONTINUOUS
10
2.36307
20
-1.81663
11
2.3612
21
-1.81476
0
LINE
8
BLACK
6
CONTINUOUS
10
2.3612
20
-1.81476
11
2.36119
21
-1.81475
0
LINE
8
BLACK
6
CONTINUOUS
10
2.36119
20
-1.81475
11
2.36107
21
-1.8146
0
LINE
8
BLACK
6
CONTINUOUS
10
2.36107
20
-1.8146
11
2.36098
21
-1.81443
0
LINE
8
BLACK
6
CONTINUOUS
10
2.36098
20
-1.81443
11
2.36093
21
-1.81424
0
LINE
8
BLACK
6
CONTINUOUS
10
2.36093
20
-1.81424
11
2.36091
21
-1.81405
0
LINE
8
BLACK
6
CONTINUOUS
10
2.36091
20
-1.81405
11
2.36093
21
-1.81386
0
LINE
8
BLACK
6
CONTINUOUS
10
2.36093
20
-1.81386
11
2.36099
21
-1.81368
0
LINE
8
BLACK
6
CONTINUOUS
10
2.36099
20
-1.81368
11
2.36108
21
-1.81351
0
LINE
8
BLACK
6
CONTINUOUS
10
2.36108
20
-1.81351
11
2.3612
21
-1.81336
0
LINE
8
BLACK
6
CONTINUOUS
10
2.3612
20
-1.81336
11
2.36135
21
-1.81324
0
LINE
8
BLACK
6
CONTINUOUS
10
2.36135
20
-1.81324
11
2.36152
21
-1.81315
0
LINE
8
BLACK
6
CONTINUOUS
10
2.36152
20
-1.81315
11
2.36171
21
-1.81309
0
LINE
8
BLACK
6
CONTINUOUS
10
2.36171
20
-1.81309
11
2.3619
21
-1.81308
0
LINE
8
BLACK
6
CONTINUOUS
10
2.3619
20
-1.81308
11
2.36209
21
-1.8131
0
LINE
8
BLACK
6
CONTINUOUS
10
2.36209
20
-1.8131
11
2.36227
21
-1.81315
0
LINE
8
BLACK
6
CONTINUOUS
10
2.36227
20
-1.81315
11
2.36244
21
-1.81324
0
LINE
8
BLACK
6
CONTINUOUS
10
2.36244
20
-1.81324
11
2.36259
21
-1.81336
0
LINE
8
BLACK
6
CONTINUOUS
10
2.36259
20
-1.81336
11
2.36435
21
-1.81513
0
LINE
8
BLACK
6
CONTINUOUS
10
2.36435
20
-1.81513
11
2.36775
21
-1.81683
0
LINE
8
BLACK
6
CONTINUOUS
10
2.36775
20
-1.81683
11
2.37853
21
-1.81683
0
LINE
8
BLACK
6
CONTINUOUS
10
2.37853
20
-1.81683
11
2.38193
21
-1.81513
0
LINE
8
BLACK
6
CONTINUOUS
10
2.38193
20
-1.81513
11
2.38358
21
-1.81348
0
LINE
8
BLACK
6
CONTINUOUS
10
2.38358
20
-1.81348
11
2.38528
21
-1.81008
0
LINE
8
BLACK
6
CONTINUOUS
10
2.38528
20
-1.81008
11
2.38528
21
-1.80117
0
LINE
8
BLACK
6
CONTINUOUS
10
2.38528
20
-1.80117
11
2.38358
21
-1.79777
0
LINE
8
BLACK
6
CONTINUOUS
10
2.38358
20
-1.79777
11
2.38193
21
-1.79612
0
LINE
8
BLACK
6
CONTINUOUS
10
2.38193
20
-1.79612
11
2.37853
21
-1.79442
0
LINE
8
BLACK
6
CONTINUOUS
10
2.37853
20
-1.79442
11
2.37314
21
-1.79442
0
LINE
8
BLACK
6
CONTINUOUS
10
2.37314
20
-1.79442
11
2.37313
21
-1.79442
0
LINE
8
BLACK
6
CONTINUOUS
10
2.37313
20
-1.79442
11
2.37307
21
-1.79442
0
LINE
8
BLACK
6
CONTINUOUS
10
2.37307
20
-1.79442
11
2.37301
21
-1.79441
0
LINE
8
BLACK
6
CONTINUOUS
10
2.37301
20
-1.79441
11
2.37297
21
-1.7944
0
LINE
8
BLACK
6
CONTINUOUS
10
2.37297
20
-1.7944
11
2.37294
21
-1.7944
0
LINE
8
BLACK
6
CONTINUOUS
10
2.37294
20
-1.7944
11
2.37288
21
-1.79438
0
LINE
8
BLACK
6
CONTINUOUS
10
2.37288
20
-1.79438
11
2.37282
21
-1.79437
0
LINE
8
BLACK
6
CONTINUOUS
10
2.37282
20
-1.79437
11
2.37279
21
-1.79435
0
LINE
8
BLACK
6
CONTINUOUS
10
2.37279
20
-1.79435
11
2.37275
21
-1.79434
0
LINE
8
BLACK
6
CONTINUOUS
10
2.37275
20
-1.79434
11
2.3727
21
-1.79431
0
LINE
8
BLACK
6
CONTINUOUS
10
2.3727
20
-1.79431
11
2.37264
21
-1.79429
0
LINE
8
BLACK
6
CONTINUOUS
10
2.37264
20
-1.79429
11
2.37262
21
-1.79427
0
LINE
8
BLACK
6
CONTINUOUS
10
2.37262
20
-1.79427
11
2.37259
21
-1.79425
0
LINE
8
BLACK
6
CONTINUOUS
10
2.37259
20
-1.79425
11
2.37254
21
-1.79421
0
LINE
8
BLACK
6
CONTINUOUS
10
2.37254
20
-1.79421
11
2.37249
21
-1.79417
0
LINE
8
BLACK
6
CONTINUOUS
10
2.37249
20
-1.79417
11
2.37247
21
-1.79415
0
LINE
8
BLACK
6
CONTINUOUS
10
2.37247
20
-1.79415
11
2.37244
21
-1.79413
0
LINE
8
BLACK
6
CONTINUOUS
10
2.37244
20
-1.79413
11
2.3724
21
-1.79408
0
LINE
8
BLACK
6
CONTINUOUS
10
2.3724
20
-1.79408
11
2.37236
21
-1.79403
0
LINE
8
BLACK
6
CONTINUOUS
10
2.37236
20
-1.79403
11
2.37234
21
-1.794
0
LINE
8
BLACK
6
CONTINUOUS
10
2.37234
20
-1.794
11
2.37232
21
-1.79398
0
LINE
8
BLACK
6
CONTINUOUS
10
2.37232
20
-1.79398
11
2.37229
21
-1.79392
0
LINE
8
BLACK
6
CONTINUOUS
10
2.37229
20
-1.79392
11
2.37226
21
-1.79387
0
LINE
8
BLACK
6
CONTINUOUS
10
2.37226
20
-1.79387
11
2.37225
21
-1.79384
0
LINE
8
BLACK
6
CONTINUOUS
10
2.37225
20
-1.79384
11
2.37223
21
-1.79381
0
LINE
8
BLACK
6
CONTINUOUS
10
2.37223
20
-1.79381
11
2.37221
21
-1.79375
0
LINE
8
BLACK
6
CONTINUOUS
10
2.37221
20
-1.79375
11
2.37219
21
-1.79369
0
LINE
8
BLACK
6
CONTINUOUS
10
2.37219
20
-1.79369
11
2.37218
21
-1.79366
0
LINE
8
BLACK
6
CONTINUOUS
10
2.37218
20
-1.79366
11
2.37217
21
-1.79362
0
LINE
8
BLACK
6
CONTINUOUS
10
2.37217
20
-1.79362
11
2.37217
21
-1.79356
0
LINE
8
BLACK
6
CONTINUOUS
10
2.37217
20
-1.79356
11
2.37216
21
-1.7935
0
LINE
8
BLACK
6
CONTINUOUS
10
2.37216
20
-1.7935
11
2.37216
21
-1.79347
0
LINE
8
BLACK
6
CONTINUOUS
10
2.37216
20
-1.79347
11
2.37216
21
-1.79343
0
LINE
8
BLACK
6
CONTINUOUS
10
2.37216
20
-1.79343
11
2.37216
21
-1.79337
0
LINE
8
BLACK
6
CONTINUOUS
10
2.37216
20
-1.79337
11
2.37217
21
-1.79331
0
LINE
8
BLACK
6
CONTINUOUS
10
2.37217
20
-1.79331
11
2.37217
21
-1.79327
0
LINE
8
BLACK
6
CONTINUOUS
10
2.37217
20
-1.79327
11
2.37218
21
-1.79324
0
LINE
8
BLACK
6
CONTINUOUS
10
2.37218
20
-1.79324
11
2.3722
21
-1.79318
0
LINE
8
BLACK
6
CONTINUOUS
10
2.3722
20
-1.79318
11
2.37221
21
-1.79312
0
LINE
8
BLACK
6
CONTINUOUS
10
2.37221
20
-1.79312
11
2.37222
21
-1.79309
0
LINE
8
BLACK
6
CONTINUOUS
10
2.37222
20
-1.79309
11
2.37223
21
-1.79306
0
LINE
8
BLACK
6
CONTINUOUS
10
2.37223
20
-1.79306
11
2.37226
21
-1.793
0
LINE
8
BLACK
6
CONTINUOUS
10
2.37226
20
-1.793
11
2.37229
21
-1.79295
0
LINE
8
BLACK
6
CONTINUOUS
10
2.37229
20
-1.79295
11
2.37231
21
-1.79292
0
LINE
8
BLACK
6
CONTINUOUS
10
2.37231
20
-1.79292
11
2.37233
21
-1.79289
0
LINE
8
BLACK
6
CONTINUOUS
10
2.37233
20
-1.79289
11
2.37237
21
-1.79284
0
LINE
8
BLACK
6
CONTINUOUS
10
2.37237
20
-1.79284
11
2.3724
21
-1.79279
0
LINE
8
BLACK
6
CONTINUOUS
10
2.3724
20
-1.79279
11
2.3841
21
-1.77942
0
LINE
8
BLACK
6
CONTINUOUS
10
2.3841
20
-1.77942
11
2.36189
21
-1.77942
0
LINE
8
BLACK
6
CONTINUOUS
10
2.36189
20
-1.77942
11
2.36188
21
-1.77942
0
LINE
8
BLACK
6
CONTINUOUS
10
2.36188
20
-1.77942
11
2.36169
21
-1.7794
0
LINE
8
BLACK
6
CONTINUOUS
10
2.36169
20
-1.7794
11
2.36151
21
-1.77934
0
LINE
8
BLACK
6
CONTINUOUS
10
2.36151
20
-1.77934
11
2.36134
21
-1.77925
0
LINE
8
BLACK
6
CONTINUOUS
10
2.36134
20
-1.77925
11
2.36119
21
-1.77913
0
LINE
8
BLACK
6
CONTINUOUS
10
2.36119
20
-1.77913
11
2.36107
21
-1.77898
0
LINE
8
BLACK
6
CONTINUOUS
10
2.36107
20
-1.77898
11
2.36098
21
-1.77881
0
LINE
8
BLACK
6
CONTINUOUS
10
2.36098
20
-1.77881
11
2.36093
21
-1.77862
0
LINE
8
BLACK
6
CONTINUOUS
10
2.36093
20
-1.77862
11
2.36091
21
-1.77843
0
LINE
8
BLACK
6
CONTINUOUS
10
2.36091
20
-1.77843
11
2.36093
21
-1.77824
0
LINE
8
BLACK
6
CONTINUOUS
10
2.36093
20
-1.77824
11
2.36099
21
-1.77806
0
LINE
8
BLACK
6
CONTINUOUS
10
2.36099
20
-1.77806
11
2.36108
21
-1.77789
0
LINE
8
BLACK
6
CONTINUOUS
10
2.36108
20
-1.77789
11
2.3612
21
-1.77774
0
LINE
8
BLACK
6
CONTINUOUS
10
2.3612
20
-1.77774
11
2.36135
21
-1.77762
0
LINE
8
BLACK
6
CONTINUOUS
10
2.36135
20
-1.77762
11
2.36152
21
-1.77753
0
LINE
8
BLACK
6
CONTINUOUS
10
2.36152
20
-1.77753
11
2.3617
21
-1.77747
0
LINE
8
BLACK
6
CONTINUOUS
10
2.3617
20
-1.77747
11
2.36189
21
-1.77746
0
LINE
8
BLACK
6
CONTINUOUS
10
2.36189
20
-1.77746
11
2.38627
21
-1.77746
0
LINE
8
BLACK
6
CONTINUOUS
10
2.38627
20
-1.77746
11
2.38628
21
-1.77746
0
LINE
8
BLACK
6
CONTINUOUS
10
2.17488
20
-1.77747
11
2.17496
21
-1.77748
0
LINE
8
BLACK
6
CONTINUOUS
10
2.17496
20
-1.77748
11
2.17496
21
-1.77748
0
LINE
8
BLACK
6
CONTINUOUS
10
2.17496
20
-1.77748
11
2.17496
21
-1.77748
0
LINE
8
BLACK
6
CONTINUOUS
10
2.17496
20
-1.77748
11
2.17505
21
-1.77751
0
LINE
8
BLACK
6
CONTINUOUS
10
2.17505
20
-1.77751
11
2.17514
21
-1.77753
0
LINE
8
BLACK
6
CONTINUOUS
10
2.17514
20
-1.77753
11
2.17514
21
-1.77753
0
LINE
8
BLACK
6
CONTINUOUS
10
2.17514
20
-1.77753
11
2.17514
21
-1.77753
0
LINE
8
BLACK
6
CONTINUOUS
10
2.17514
20
-1.77753
11
2.17521
21
-1.77757
0
LINE
8
BLACK
6
CONTINUOUS
10
2.17521
20
-1.77757
11
2.17531
21
-1.77762
0
LINE
8
BLACK
6
CONTINUOUS
10
2.17531
20
-1.77762
11
2.17531
21
-1.77762
0
LINE
8
BLACK
6
CONTINUOUS
10
2.17531
20
-1.77762
11
2.17531
21
-1.77763
0
LINE
8
BLACK
6
CONTINUOUS
10
2.17531
20
-1.77763
11
2.17538
21
-1.77768
0
LINE
8
BLACK
6
CONTINUOUS
10
2.17538
20
-1.77768
11
2.17546
21
-1.77775
0
LINE
8
BLACK
6
CONTINUOUS
10
2.17546
20
-1.77775
11
2.17546
21
-1.77775
0
LINE
8
BLACK
6
CONTINUOUS
10
2.17546
20
-1.77775
11
2.17546
21
-1.77775
0
LINE
8
BLACK
6
CONTINUOUS
10
2.17546
20
-1.77775
11
2.17552
21
-1.77782
0
LINE
8
BLACK
6
CONTINUOUS
10
2.17552
20
-1.77782
11
2.17558
21
-1.7779
0
LINE
8
BLACK
6
CONTINUOUS
10
2.17558
20
-1.7779
11
2.17558
21
-1.7779
0
LINE
8
BLACK
6
CONTINUOUS
10
2.17558
20
-1.7779
11
2.17558
21
-1.7779
0
LINE
8
BLACK
6
CONTINUOUS
10
2.17558
20
-1.7779
11
2.17563
21
-1.77798
0
LINE
8
BLACK
6
CONTINUOUS
10
2.17563
20
-1.77798
11
2.17567
21
-1.77807
0
LINE
8
BLACK
6
CONTINUOUS
10
2.17567
20
-1.77807
11
2.17567
21
-1.77807
0
LINE
8
BLACK
6
CONTINUOUS
10
2.17567
20
-1.77807
11
2.17567
21
-1.77807
0
LINE
8
BLACK
6
CONTINUOUS
10
2.17567
20
-1.77807
11
2.1757
21
-1.77815
0
LINE
8
BLACK
6
CONTINUOUS
10
2.1757
20
-1.77815
11
2.17573
21
-1.77825
0
LINE
8
BLACK
6
CONTINUOUS
10
2.17573
20
-1.77825
11
2.17573
21
-1.77825
0
LINE
8
BLACK
6
CONTINUOUS
10
2.17573
20
-1.77825
11
2.17573
21
-1.77825
0
LINE
8
BLACK
6
CONTINUOUS
10
2.17573
20
-1.77825
11
2.17574
21
-1.77834
0
LINE
8
BLACK
6
CONTINUOUS
10
2.17574
20
-1.77834
11
2.17575
21
-1.77844
0
LINE
8
BLACK
6
CONTINUOUS
10
2.17575
20
-1.77844
11
2.17575
21
-1.81683
0
LINE
8
BLACK
6
CONTINUOUS
10
2.17575
20
-1.81683
11
2.18601
21
-1.81683
0
LINE
8
BLACK
6
CONTINUOUS
10
2.18601
20
-1.81683
11
2.18602
21
-1.81683
0
LINE
8
BLACK
6
CONTINUOUS
10
2.18602
20
-1.81683
11
2.18621
21
-1.81685
0
LINE
8
BLACK
6
CONTINUOUS
10
2.18621
20
-1.81685
11
2.1864
21
-1.81691
0
LINE
8
BLACK
6
CONTINUOUS
10
2.1864
20
-1.81691
11
2.18657
21
-1.817
0
LINE
8
BLACK
6
CONTINUOUS
10
2.18657
20
-1.817
11
2.18671
21
-1.81712
0
LINE
8
BLACK
6
CONTINUOUS
10
2.18671
20
-1.81712
11
2.18683
21
-1.81727
0
LINE
8
BLACK
6
CONTINUOUS
10
2.18683
20
-1.81727
11
2.18692
21
-1.81744
0
LINE
8
BLACK
6
CONTINUOUS
10
2.18692
20
-1.81744
11
2.18698
21
-1.81763
0
LINE
8
BLACK
6
CONTINUOUS
10
2.18698
20
-1.81763
11
2.18699
21
-1.81782
0
LINE
8
BLACK
6
CONTINUOUS
10
2.18699
20
-1.81782
11
2.18697
21
-1.81801
0
LINE
8
BLACK
6
CONTINUOUS
10
2.18697
20
-1.81801
11
2.18692
21
-1.81819
0
LINE
8
BLACK
6
CONTINUOUS
10
2.18692
20
-1.81819
11
2.18683
21
-1.81836
0
LINE
8
BLACK
6
CONTINUOUS
10
2.18683
20
-1.81836
11
2.1867
21
-1.81851
0
LINE
8
BLACK
6
CONTINUOUS
10
2.1867
20
-1.81851
11
2.18655
21
-1.81863
0
LINE
8
BLACK
6
CONTINUOUS
10
2.18655
20
-1.81863
11
2.18638
21
-1.81872
0
LINE
8
BLACK
6
CONTINUOUS
10
2.18638
20
-1.81872
11
2.1862
21
-1.81878
0
LINE
8
BLACK
6
CONTINUOUS
10
2.1862
20
-1.81878
11
2.18601
21
-1.81879
0
LINE
8
BLACK
6
CONTINUOUS
10
2.18601
20
-1.81879
11
2.16351
21
-1.81879
0
LINE
8
BLACK
6
CONTINUOUS
10
2.16351
20
-1.81879
11
2.1635
21
-1.81879
0
LINE
8
BLACK
6
CONTINUOUS
10
2.1635
20
-1.81879
11
2.16331
21
-1.81877
0
LINE
8
BLACK
6
CONTINUOUS
10
2.16331
20
-1.81877
11
2.16312
21
-1.81871
0
LINE
8
BLACK
6
CONTINUOUS
10
2.16312
20
-1.81871
11
2.16296
21
-1.81862
0
LINE
8
BLACK
6
CONTINUOUS
10
2.16296
20
-1.81862
11
2.16281
21
-1.8185
0
LINE
8
BLACK
6
CONTINUOUS
10
2.16281
20
-1.8185
11
2.16269
21
-1.81835
0
LINE
8
BLACK
6
CONTINUOUS
10
2.16269
20
-1.81835
11
2.1626
21
-1.81818
0
LINE
8
BLACK
6
CONTINUOUS
10
2.1626
20
-1.81818
11
2.16255
21
-1.81799
0
LINE
8
BLACK
6
CONTINUOUS
10
2.16255
20
-1.81799
11
2.16253
21
-1.8178
0
LINE
8
BLACK
6
CONTINUOUS
10
2.16253
20
-1.8178
11
2.16255
21
-1.81761
0
LINE
8
BLACK
6
CONTINUOUS
10
2.16255
20
-1.81761
11
2.16261
21
-1.81743
0
LINE
8
BLACK
6
CONTINUOUS
10
2.16261
20
-1.81743
11
2.1627
21
-1.81726
0
LINE
8
BLACK
6
CONTINUOUS
10
2.1627
20
-1.81726
11
2.16282
21
-1.81711
0
LINE
8
BLACK
6
CONTINUOUS
10
2.16282
20
-1.81711
11
2.16297
21
-1.81699
0
LINE
8
BLACK
6
CONTINUOUS
10
2.16297
20
-1.81699
11
2.16314
21
-1.8169
0
LINE
8
BLACK
6
CONTINUOUS
10
2.16314
20
-1.8169
11
2.16332
21
-1.81684
0
LINE
8
BLACK
6
CONTINUOUS
10
2.16332
20
-1.81684
11
2.16351
21
-1.81683
0
LINE
8
BLACK
6
CONTINUOUS
10
2.16351
20
-1.81683
11
2.17378
21
-1.81683
0
LINE
8
BLACK
6
CONTINUOUS
10
2.17378
20
-1.81683
11
2.17378
21
-1.78169
0
LINE
8
BLACK
6
CONTINUOUS
10
2.17378
20
-1.78169
11
2.17183
21
-1.78461
0
LINE
8
BLACK
6
CONTINUOUS
10
2.17183
20
-1.78461
11
2.17182
21
-1.78462
0
LINE
8
BLACK
6
CONTINUOUS
10
2.17182
20
-1.78462
11
2.17176
21
-1.78469
0
LINE
8
BLACK
6
CONTINUOUS
10
2.17176
20
-1.78469
11
2.17171
21
-1.78476
0
LINE
8
BLACK
6
CONTINUOUS
10
2.17171
20
-1.78476
11
2.16796
21
-1.78851
0
LINE
8
BLACK
6
CONTINUOUS
10
2.16796
20
-1.78851
11
2.16795
21
-1.78852
0
LINE
8
BLACK
6
CONTINUOUS
10
2.16795
20
-1.78852
11
2.1679
21
-1.78855
0
LINE
8
BLACK
6
CONTINUOUS
10
2.1679
20
-1.78855
11
2.16786
21
-1.78859
0
LINE
8
BLACK
6
CONTINUOUS
10
2.16786
20
-1.78859
11
2.16783
21
-1.78861
0
LINE
8
BLACK
6
CONTINUOUS
10
2.16783
20
-1.78861
11
2.1678
21
-1.78864
0
LINE
8
BLACK
6
CONTINUOUS
10
2.1678
20
-1.78864
11
2.16775
21
-1.78866
0
LINE
8
BLACK
6
CONTINUOUS
10
2.16775
20
-1.78866
11
2.1677
21
-1.78869
0
LINE
8
BLACK
6
CONTINUOUS
10
2.1677
20
-1.78869
11
2.16395
21
-1.79057
0
LINE
8
BLACK
6
CONTINUOUS
10
2.16395
20
-1.79057
11
2.16394
21
-1.79058
0
LINE
8
BLACK
6
CONTINUOUS
10
2.16394
20
-1.79058
11
2.16376
21
-1.79064
0
LINE
8
BLACK
6
CONTINUOUS
10
2.16376
20
-1.79064
11
2.16357
21
-1.79067
0
LINE
8
BLACK
6
CONTINUOUS
10
2.16357
20
-1.79067
11
2.16338
21
-1.79066
0
LINE
8
BLACK
6
CONTINUOUS
10
2.16338
20
-1.79066
11
2.16319
21
-1.79062
0
LINE
8
BLACK
6
CONTINUOUS
10
2.16319
20
-1.79062
11
2.16302
21
-1.79054
0
LINE
8
BLACK
6
CONTINUOUS
10
2.16302
20
-1.79054
11
2.16286
21
-1.79043
0
LINE
8
BLACK
6
CONTINUOUS
10
2.16286
20
-1.79043
11
2.16273
21
-1.79029
0
LINE
8
BLACK
6
CONTINUOUS
10
2.16273
20
-1.79029
11
2.16263
21
-1.79012
0
LINE
8
BLACK
6
CONTINUOUS
10
2.16263
20
-1.79012
11
2.16256
21
-1.78994
0
LINE
8
BLACK
6
CONTINUOUS
10
2.16256
20
-1.78994
11
2.16253
21
-1.78975
0
LINE
8
BLACK
6
CONTINUOUS
10
2.16253
20
-1.78975
11
2.16254
21
-1.78956
0
LINE
8
BLACK
6
CONTINUOUS
10
2.16254
20
-1.78956
11
2.16258
21
-1.78937
0
LINE
8
BLACK
6
CONTINUOUS
10
2.16258
20
-1.78937
11
2.16266
21
-1.7892
0
LINE
8
BLACK
6
CONTINUOUS
10
2.16266
20
-1.7892
11
2.16277
21
-1.78904
0
LINE
8
BLACK
6
CONTINUOUS
10
2.16277
20
-1.78904
11
2.16291
21
-1.78891
0
LINE
8
BLACK
6
CONTINUOUS
10
2.16291
20
-1.78891
11
2.16307
21
-1.78881
0
LINE
8
BLACK
6
CONTINUOUS
10
2.16307
20
-1.78881
11
2.16668
21
-1.78701
0
LINE
8
BLACK
6
CONTINUOUS
10
2.16668
20
-1.78701
11
2.17025
21
-1.78344
0
LINE
8
BLACK
6
CONTINUOUS
10
2.17025
20
-1.78344
11
2.17394
21
-1.77789
0
LINE
8
BLACK
6
CONTINUOUS
10
2.17394
20
-1.77789
11
2.17395
21
-1.77788
0
LINE
8
BLACK
6
CONTINUOUS
10
2.17395
20
-1.77788
11
2.17402
21
-1.7778
0
LINE
8
BLACK
6
CONTINUOUS
10
2.17402
20
-1.7778
11
2.17407
21
-1.77774
0
LINE
8
BLACK
6
CONTINUOUS
10
2.17407
20
-1.77774
11
2.17407
21
-1.77774
0
LINE
8
BLACK
6
CONTINUOUS
10
2.17407
20
-1.77774
11
2.17407
21
-1.77774
0
LINE
8
BLACK
6
CONTINUOUS
10
2.17407
20
-1.77774
11
2.17416
21
-1.77767
0
LINE
8
BLACK
6
CONTINUOUS
10
2.17416
20
-1.77767
11
2.17422
21
-1.77762
0
LINE
8
BLACK
6
CONTINUOUS
10
2.17422
20
-1.77762
11
2.17422
21
-1.77762
0
LINE
8
BLACK
6
CONTINUOUS
10
2.17422
20
-1.77762
11
2.17422
21
-1.77762
0
LINE
8
BLACK
6
CONTINUOUS
10
2.17422
20
-1.77762
11
2.17431
21
-1.77757
0
LINE
8
BLACK
6
CONTINUOUS
10
2.17431
20
-1.77757
11
2.17439
21
-1.77753
0
LINE
8
BLACK
6
CONTINUOUS
10
2.17439
20
-1.77753
11
2.17439
21
-1.77753
0
LINE
8
BLACK
6
CONTINUOUS
10
2.17439
20
-1.77753
11
2.17439
21
-1.77753
0
LINE
8
BLACK
6
CONTINUOUS
10
2.17439
20
-1.77753
11
2.17449
21
-1.7775
0
LINE
8
BLACK
6
CONTINUOUS
10
2.17449
20
-1.7775
11
2.17458
21
-1.77747
0
LINE
8
BLACK
6
CONTINUOUS
10
2.17458
20
-1.77747
11
2.17458
21
-1.77747
0
LINE
8
BLACK
6
CONTINUOUS
10
2.17458
20
-1.77747
11
2.17458
21
-1.77747
0
LINE
8
BLACK
6
CONTINUOUS
10
2.17458
20
-1.77747
11
2.17468
21
-1.77746
0
LINE
8
BLACK
6
CONTINUOUS
10
2.17468
20
-1.77746
11
2.17477
21
-1.77746
0
LINE
8
BLACK
6
CONTINUOUS
10
2.17477
20
-1.77746
11
2.17477
21
-1.77746
0
LINE
8
BLACK
6
CONTINUOUS
10
2.17477
20
-1.77746
11
2.17477
21
-1.77746
0
LINE
8
BLACK
6
CONTINUOUS
10
2.17477
20
-1.77746
11
2.17488
21
-1.77747
0
LINE
8
BLACK
6
CONTINUOUS
10
2.27872
20
-1.77746
11
2.27875
21
-1.77746
0
LINE
8
BLACK
6
CONTINUOUS
10
2.27875
20
-1.77746
11
2.27878
21
-1.77746
0
LINE
8
BLACK
6
CONTINUOUS
10
2.27878
20
-1.77746
11
2.27885
21
-1.77747
0
LINE
8
BLACK
6
CONTINUOUS
10
2.27885
20
-1.77747
11
2.27892
21
-1.77748
0
LINE
8
BLACK
6
CONTINUOUS
10
2.27892
20
-1.77748
11
2.27894
21
-1.77749
0
LINE
8
BLACK
6
CONTINUOUS
10
2.27894
20
-1.77749
11
2.27897
21
-1.77749
0
LINE
8
BLACK
6
CONTINUOUS
10
2.27897
20
-1.77749
11
2.27903
21
-1.77752
0
LINE
8
BLACK
6
CONTINUOUS
10
2.27903
20
-1.77752
11
2.2791
21
-1.77754
0
LINE
8
BLACK
6
CONTINUOUS
10
2.2791
20
-1.77754
11
2.27912
21
-1.77755
0
LINE
8
BLACK
6
CONTINUOUS
10
2.27912
20
-1.77755
11
2.27915
21
-1.77756
0
LINE
8
BLACK
6
CONTINUOUS
10
2.27915
20
-1.77756
11
2.2829
21
-1.77943
0
LINE
8
BLACK
6
CONTINUOUS
10
2.2829
20
-1.77943
11
2.28291
21
-1.77944
0
LINE
8
BLACK
6
CONTINUOUS
10
2.28291
20
-1.77944
11
2.28296
21
-1.77947
0
LINE
8
BLACK
6
CONTINUOUS
10
2.28296
20
-1.77947
11
2.28301
21
-1.7795
0
LINE
8
BLACK
6
CONTINUOUS
10
2.28301
20
-1.7795
11
2.28304
21
-1.77952
0
LINE
8
BLACK
6
CONTINUOUS
10
2.28304
20
-1.77952
11
2.28307
21
-1.77955
0
LINE
8
BLACK
6
CONTINUOUS
10
2.28307
20
-1.77955
11
2.28311
21
-1.77958
0
LINE
8
BLACK
6
CONTINUOUS
10
2.28311
20
-1.77958
11
2.28316
21
-1.77962
0
LINE
8
BLACK
6
CONTINUOUS
10
2.28316
20
-1.77962
11
2.28503
21
-1.78149
0
LINE
8
BLACK
6
CONTINUOUS
10
2.28503
20
-1.78149
11
2.28504
21
-1.7815
0
LINE
8
BLACK
6
CONTINUOUS
10
2.28504
20
-1.7815
11
2.28507
21
-1.78155
0
LINE
8
BLACK
6
CONTINUOUS
10
2.28507
20
-1.78155
11
2.28511
21
-1.78159
0
LINE
8
BLACK
6
CONTINUOUS
10
2.28511
20
-1.78159
11
2.28513
21
-1.78162
0
LINE
8
BLACK
6
CONTINUOUS
10
2.28513
20
-1.78162
11
2.28516
21
-1.78165
0
LINE
8
BLACK
6
CONTINUOUS
10
2.28516
20
-1.78165
11
2.28519
21
-1.7817
0
LINE
8
BLACK
6
CONTINUOUS
10
2.28519
20
-1.7817
11
2.28522
21
-1.78175
0
LINE
8
BLACK
6
CONTINUOUS
10
2.28522
20
-1.78175
11
2.28709
21
-1.7855
0
LINE
8
BLACK
6
CONTINUOUS
10
2.28709
20
-1.7855
11
2.2871
21
-1.78551
0
LINE
8
BLACK
6
CONTINUOUS
10
2.2871
20
-1.78551
11
2.28711
21
-1.78554
0
LINE
8
BLACK
6
CONTINUOUS
10
2.28711
20
-1.78554
11
2.28712
21
-1.78556
0
LINE
8
BLACK
6
CONTINUOUS
10
2.28712
20
-1.78556
11
2.28714
21
-1.78563
0
LINE
8
BLACK
6
CONTINUOUS
10
2.28714
20
-1.78563
11
2.28716
21
-1.78569
0
LINE
8
BLACK
6
CONTINUOUS
10
2.28716
20
-1.78569
11
2.28717
21
-1.78572
0
LINE
8
BLACK
6
CONTINUOUS
10
2.28717
20
-1.78572
11
2.28717
21
-1.78575
0
LINE
8
BLACK
6
CONTINUOUS
10
2.28717
20
-1.78575
11
2.28718
21
-1.78581
0
LINE
8
BLACK
6
CONTINUOUS
10
2.28718
20
-1.78581
11
2.28719
21
-1.78588
0
LINE
8
BLACK
6
CONTINUOUS
10
2.28719
20
-1.78588
11
2.28719
21
-1.78591
0
LINE
8
BLACK
6
CONTINUOUS
10
2.28719
20
-1.78591
11
2.28719
21
-1.78594
0
LINE
8
BLACK
6
CONTINUOUS
10
2.28719
20
-1.78594
11
2.28719
21
-1.78969
0
LINE
8
BLACK
6
CONTINUOUS
10
2.28719
20
-1.78969
11
2.28719
21
-1.7897
0
LINE
8
BLACK
6
CONTINUOUS
10
2.28719
20
-1.7897
11
2.28719
21
-1.78976
0
LINE
8
BLACK
6
CONTINUOUS
10
2.28719
20
-1.78976
11
2.28719
21
-1.78981
0
LINE
8
BLACK
6
CONTINUOUS
10
2.28719
20
-1.78981
11
2.28718
21
-1.78985
0
LINE
8
BLACK
6
CONTINUOUS
10
2.28718
20
-1.78985
11
2.28717
21
-1.78989
0
LINE
8
BLACK
6
CONTINUOUS
10
2.28717
20
-1.78989
11
2.28716
21
-1.78995
0
LINE
8
BLACK
6
CONTINUOUS
10
2.28716
20
-1.78995
11
2.28714
21
-1.79
0
LINE
8
BLACK
6
CONTINUOUS
10
2.28714
20
-1.79
11
2.28527
21
-1.79562
0
LINE
8
BLACK
6
CONTINUOUS
10
2.28527
20
-1.79562
11
2.28526
21
-1.79564
0
LINE
8
BLACK
6
CONTINUOUS
10
2.28526
20
-1.79564
11
2.28525
21
-1.79566
0
LINE
8
BLACK
6
CONTINUOUS
10
2.28525
20
-1.79566
11
2.28524
21
-1.79569
0
LINE
8
BLACK
6
CONTINUOUS
10
2.28524
20
-1.79569
11
2.28521
21
-1.79575
0
LINE
8
BLACK
6
CONTINUOUS
10
2.28521
20
-1.79575
11
2.28518
21
-1.79581
0
LINE
8
BLACK
6
CONTINUOUS
10
2.28518
20
-1.79581
11
2.28517
21
-1.79584
0
LINE
8
BLACK
6
CONTINUOUS
10
2.28517
20
-1.79584
11
2.28515
21
-1.79586
0
LINE
8
BLACK
6
CONTINUOUS
10
2.28515
20
-1.79586
11
2.28511
21
-1.79591
0
LINE
8
BLACK
6
CONTINUOUS
10
2.28511
20
-1.79591
11
2.28507
21
-1.79597
0
LINE
8
BLACK
6
CONTINUOUS
10
2.28507
20
-1.79597
11
2.28505
21
-1.79599
0
LINE
8
BLACK
6
CONTINUOUS
10
2.28505
20
-1.79599
11
2.28503
21
-1.79601
0
LINE
8
BLACK
6
CONTINUOUS
10
2.28503
20
-1.79601
11
2.26421
21
-1.81683
0
LINE
8
BLACK
6
CONTINUOUS
10
2.26421
20
-1.81683
11
2.28621
21
-1.81683
0
LINE
8
BLACK
6
CONTINUOUS
10
2.28621
20
-1.81683
11
2.28622
21
-1.81683
0
LINE
8
BLACK
6
CONTINUOUS
10
2.28622
20
-1.81683
11
2.28641
21
-1.81685
0
LINE
8
BLACK
6
CONTINUOUS
10
2.28641
20
-1.81685
11
2.2866
21
-1.81691
0
LINE
8
BLACK
6
CONTINUOUS
10
2.2866
20
-1.81691
11
2.28677
21
-1.817
0
LINE
8
BLACK
6
CONTINUOUS
10
2.28677
20
-1.817
11
2.28691
21
-1.81712
0
LINE
8
BLACK
6
CONTINUOUS
10
2.28691
20
-1.81712
11
2.28703
21
-1.81727
0
LINE
8
BLACK
6
CONTINUOUS
10
2.28703
20
-1.81727
11
2.28712
21
-1.81744
0
LINE
8
BLACK
6
CONTINUOUS
10
2.28712
20
-1.81744
11
2.28718
21
-1.81763
0
LINE
8
BLACK
6
CONTINUOUS
10
2.28718
20
-1.81763
11
2.28719
21
-1.81782
0
LINE
8
BLACK
6
CONTINUOUS
10
2.28719
20
-1.81782
11
2.28717
21
-1.81801
0
LINE
8
BLACK
6
CONTINUOUS
10
2.28717
20
-1.81801
11
2.28712
21
-1.81819
0
LINE
8
BLACK
6
CONTINUOUS
10
2.28712
20
-1.81819
11
2.28703
21
-1.81836
0
LINE
8
BLACK
6
CONTINUOUS
10
2.28703
20
-1.81836
11
2.2869
21
-1.81851
0
LINE
8
BLACK
6
CONTINUOUS
10
2.2869
20
-1.81851
11
2.28675
21
-1.81863
0
LINE
8
BLACK
6
CONTINUOUS
10
2.28675
20
-1.81863
11
2.28658
21
-1.81872
0
LINE
8
BLACK
6
CONTINUOUS
10
2.28658
20
-1.81872
11
2.2864
21
-1.81878
0
LINE
8
BLACK
6
CONTINUOUS
10
2.2864
20
-1.81878
11
2.28621
21
-1.81879
0
LINE
8
BLACK
6
CONTINUOUS
10
2.28621
20
-1.81879
11
2.26184
21
-1.81879
0
LINE
8
BLACK
6
CONTINUOUS
10
2.26184
20
-1.81879
11
2.26183
21
-1.81879
0
LINE
8
BLACK
6
CONTINUOUS
10
2.26183
20
-1.81879
11
2.26183
21
-1.81879
0
LINE
8
BLACK
6
CONTINUOUS
10
2.26183
20
-1.81879
11
2.26183
21
-1.81879
0
LINE
8
BLACK
6
CONTINUOUS
10
2.26183
20
-1.81879
11
2.26182
21
-1.81879
0
LINE
8
BLACK
6
CONTINUOUS
10
2.26182
20
-1.81879
11
2.26173
21
-1.81878
0
LINE
8
BLACK
6
CONTINUOUS
10
2.26173
20
-1.81878
11
2.26164
21
-1.81877
0
LINE
8
BLACK
6
CONTINUOUS
10
2.26164
20
-1.81877
11
2.26163
21
-1.81877
0
LINE
8
BLACK
6
CONTINUOUS
10
2.26163
20
-1.81877
11
2.26163
21
-1.81877
0
LINE
8
BLACK
6
CONTINUOUS
10
2.26163
20
-1.81877
11
2.26155
21
-1.81875
0
LINE
8
BLACK
6
CONTINUOUS
10
2.26155
20
-1.81875
11
2.26145
21
-1.81872
0
LINE
8
BLACK
6
CONTINUOUS
10
2.26145
20
-1.81872
11
2.26145
21
-1.81872
0
LINE
8
BLACK
6
CONTINUOUS
10
2.26145
20
-1.81872
11
2.26145
21
-1.81871
0
LINE
8
BLACK
6
CONTINUOUS
10
2.26145
20
-1.81871
11
2.26137
21
-1.81867
0
LINE
8
BLACK
6
CONTINUOUS
10
2.26137
20
-1.81867
11
2.26128
21
-1.81862
0
LINE
8
BLACK
6
CONTINUOUS
10
2.26128
20
-1.81862
11
2.26128
21
-1.81862
0
LINE
8
BLACK
6
CONTINUOUS
10
2.26128
20
-1.81862
11
2.26128
21
-1.81862
0
LINE
8
BLACK
6
CONTINUOUS
10
2.26128
20
-1.81862
11
2.2612
21
-1.81856
0
LINE
8
BLACK
6
CONTINUOUS
10
2.2612
20
-1.81856
11
2.26114
21
-1.8185
0
LINE
8
BLACK
6
CONTINUOUS
10
2.26114
20
-1.8185
11
2.26114
21
-1.8185
0
LINE
8
BLACK
6
CONTINUOUS
10
2.26114
20
-1.8185
11
2.26113
21
-1.8185
0
LINE
8
BLACK
6
CONTINUOUS
10
2.26113
20
-1.8185
11
2.26107
21
-1.81842
0
LINE
8
BLACK
6
CONTINUOUS
10
2.26107
20
-1.81842
11
2.26102
21
-1.81835
0
LINE
8
BLACK
6
CONTINUOUS
10
2.26102
20
-1.81835
11
2.26102
21
-1.81835
0
LINE
8
BLACK
6
CONTINUOUS
10
2.26102
20
-1.81835
11
2.26101
21
-1.81835
0
LINE
8
BLACK
6
CONTINUOUS
10
2.26101
20
-1.81835
11
2.26097
21
-1.81827
0
LINE
8
BLACK
6
CONTINUOUS
10
2.26097
20
-1.81827
11
2.26093
21
-1.81818
0
LINE
8
BLACK
6
CONTINUOUS
10
2.26093
20
-1.81818
11
2.26093
21
-1.81818
0
LINE
8
BLACK
6
CONTINUOUS
10
2.26093
20
-1.81818
11
2.26092
21
-1.81818
0
LINE
8
BLACK
6
CONTINUOUS
10
2.26092
20
-1.81818
11
2.2609
21
-1.81809
0
LINE
8
BLACK
6
CONTINUOUS
10
2.2609
20
-1.81809
11
2.26087
21
-1.818
0
LINE
8
BLACK
6
CONTINUOUS
10
2.26087
20
-1.818
11
2.26087
21
-1.818
0
LINE
8
BLACK
6
CONTINUOUS
10
2.26087
20
-1.818
11
2.26087
21
-1.81799
0
LINE
8
BLACK
6
CONTINUOUS
10
2.26087
20
-1.81799
11
2.26086
21
-1.81791
0
LINE
8
BLACK
6
CONTINUOUS
10
2.26086
20
-1.81791
11
2.26085
21
-1.81781
0
LINE
8
BLACK
6
CONTINUOUS
10
2.26085
20
-1.81781
11
2.26085
21
-1.8178
0
LINE
8
BLACK
6
CONTINUOUS
10
2.26085
20
-1.8178
11
2.26085
21
-1.8178
0
LINE
8
BLACK
6
CONTINUOUS
10
2.26085
20
-1.8178
11
2.26086
21
-1.81772
0
LINE
8
BLACK
6
CONTINUOUS
10
2.26086
20
-1.81772
11
2.26087
21
-1.81762
0
LINE
8
BLACK
6
CONTINUOUS
10
2.26087
20
-1.81762
11
2.26087
21
-1.81761
0
LINE
8
BLACK
6
CONTINUOUS
10
2.26087
20
-1.81761
11
2.26087
21
-1.81761
0
LINE
8
BLACK
6
CONTINUOUS
10
2.26087
20
-1.81761
11
2.2609
21
-1.81753
0
LINE
8
BLACK
6
CONTINUOUS
10
2.2609
20
-1.81753
11
2.26093
21
-1.81743
0
LINE
8
BLACK
6
CONTINUOUS
10
2.26093
20
-1.81743
11
2.26093
21
-1.81743
0
LINE
8
BLACK
6
CONTINUOUS
10
2.26093
20
-1.81743
11
2.26093
21
-1.81743
0
LINE
8
BLACK
6
CONTINUOUS
10
2.26093
20
-1.81743
11
2.26097
21
-1.81735
0
LINE
8
BLACK
6
CONTINUOUS
10
2.26097
20
-1.81735
11
2.26102
21
-1.81726
0
LINE
8
BLACK
6
CONTINUOUS
10
2.26102
20
-1.81726
11
2.26102
21
-1.81726
0
LINE
8
BLACK
6
CONTINUOUS
10
2.26102
20
-1.81726
11
2.26102
21
-1.81726
0
LINE
8
BLACK
6
CONTINUOUS
10
2.26102
20
-1.81726
11
2.26108
21
-1.81719
0
LINE
8
BLACK
6
CONTINUOUS
10
2.26108
20
-1.81719
11
2.26114
21
-1.81711
0
LINE
8
BLACK
6
CONTINUOUS
10
2.26114
20
-1.81711
11
2.28347
21
-1.79478
0
LINE
8
BLACK
6
CONTINUOUS
10
2.28347
20
-1.79478
11
2.28523
21
-1.78953
0
LINE
8
BLACK
6
CONTINUOUS
10
2.28523
20
-1.78953
11
2.28523
21
-1.78617
0
LINE
8
BLACK
6
CONTINUOUS
10
2.28523
20
-1.78617
11
2.28353
21
-1.78277
0
LINE
8
BLACK
6
CONTINUOUS
10
2.28353
20
-1.78277
11
2.28188
21
-1.78112
0
LINE
8
BLACK
6
CONTINUOUS
10
2.28188
20
-1.78112
11
2.27848
21
-1.77942
0
LINE
8
BLACK
6
CONTINUOUS
10
2.27848
20
-1.77942
11
2.26957
21
-1.77942
0
LINE
8
BLACK
6
CONTINUOUS
10
2.26957
20
-1.77942
11
2.26617
21
-1.78112
0
LINE
8
BLACK
6
CONTINUOUS
10
2.26617
20
-1.78112
11
2.26441
21
-1.78289
0
LINE
8
BLACK
6
CONTINUOUS
10
2.26441
20
-1.78289
11
2.2644
21
-1.7829
0
LINE
8
BLACK
6
CONTINUOUS
10
2.2644
20
-1.7829
11
2.26425
21
-1.78302
0
LINE
8
BLACK
6
CONTINUOUS
10
2.26425
20
-1.78302
11
2.26408
21
-1.7831
0
LINE
8
BLACK
6
CONTINUOUS
10
2.26408
20
-1.7831
11
2.26389
21
-1.78316
0
LINE
8
BLACK
6
CONTINUOUS
10
2.26389
20
-1.78316
11
2.2637
21
-1.78317
0
LINE
8
BLACK
6
CONTINUOUS
10
2.2637
20
-1.78317
11
2.26351
21
-1.78315
0
LINE
8
BLACK
6
CONTINUOUS
10
2.26351
20
-1.78315
11
2.26333
21
-1.7831
0
LINE
8
BLACK
6
CONTINUOUS
10
2.26333
20
-1.7831
11
2.26316
21
-1.783
0
LINE
8
BLACK
6
CONTINUOUS
10
2.26316
20
-1.783
11
2.26301
21
-1.78288
0
LINE
8
BLACK
6
CONTINUOUS
10
2.26301
20
-1.78288
11
2.26289
21
-1.78273
0
LINE
8
BLACK
6
CONTINUOUS
10
2.26289
20
-1.78273
11
2.2628
21
-1.78256
0
LINE
8
BLACK
6
CONTINUOUS
10
2.2628
20
-1.78256
11
2.26275
21
-1.78238
0
LINE
8
BLACK
6
CONTINUOUS
10
2.26275
20
-1.78238
11
2.26273
21
-1.78219
0
LINE
8
BLACK
6
CONTINUOUS
10
2.26273
20
-1.78219
11
2.26275
21
-1.782
0
LINE
8
BLACK
6
CONTINUOUS
10
2.26275
20
-1.782
11
2.2628
21
-1.78181
0
LINE
8
BLACK
6
CONTINUOUS
10
2.2628
20
-1.78181
11
2.26289
21
-1.78164
0
LINE
8
BLACK
6
CONTINUOUS
10
2.26289
20
-1.78164
11
2.26302
21
-1.78149
0
LINE
8
BLACK
6
CONTINUOUS
10
2.26302
20
-1.78149
11
2.26489
21
-1.77962
0
LINE
8
BLACK
6
CONTINUOUS
10
2.26489
20
-1.77962
11
2.2649
21
-1.77961
0
LINE
8
BLACK
6
CONTINUOUS
10
2.2649
20
-1.77961
11
2.26494
21
-1.77957
0
LINE
8
BLACK
6
CONTINUOUS
10
2.26494
20
-1.77957
11
2.26498
21
-1.77954
0
LINE
8
BLACK
6
CONTINUOUS
10
2.26498
20
-1.77954
11
2.26502
21
-1.77952
0
LINE
8
BLACK
6
CONTINUOUS
10
2.26502
20
-1.77952
11
2.26505
21
-1.77949
0
LINE
8
BLACK
6
CONTINUOUS
10
2.26505
20
-1.77949
11
2.2651
21
-1.77946
0
LINE
8
BLACK
6
CONTINUOUS
10
2.2651
20
-1.77946
11
2.26515
21
-1.77943
0
LINE
8
BLACK
6
CONTINUOUS
10
2.26515
20
-1.77943
11
2.2689
21
-1.77756
0
LINE
8
BLACK
6
CONTINUOUS
10
2.2689
20
-1.77756
11
2.26891
21
-1.77755
0
LINE
8
BLACK
6
CONTINUOUS
10
2.26891
20
-1.77755
11
2.26894
21
-1.77754
0
LINE
8
BLACK
6
CONTINUOUS
10
2.26894
20
-1.77754
11
2.26896
21
-1.77753
0
LINE
8
BLACK
6
CONTINUOUS
10
2.26896
20
-1.77753
11
2.26903
21
-1.77751
0
LINE
8
BLACK
6
CONTINUOUS
10
2.26903
20
-1.77751
11
2.26909
21
-1.77749
0
LINE
8
BLACK
6
CONTINUOUS
10
2.26909
20
-1.77749
11
2.26912
21
-1.77748
0
LINE
8
BLACK
6
CONTINUOUS
10
2.26912
20
-1.77748
11
2.26915
21
-1.77747
0
LINE
8
BLACK
6
CONTINUOUS
10
2.26915
20
-1.77747
11
2.26921
21
-1.77747
0
LINE
8
BLACK
6
CONTINUOUS
10
2.26921
20
-1.77747
11
2.26928
21
-1.77746
0
LINE
8
BLACK
6
CONTINUOUS
10
2.26928
20
-1.77746
11
2.26931
21
-1.77746
0
LINE
8
BLACK
6
CONTINUOUS
10
2.26931
20
-1.77746
11
2.26934
21
-1.77746
0
LINE
8
BLACK
6
CONTINUOUS
10
2.26934
20
-1.77746
11
2.27871
21
-1.77746
0
LINE
8
BLACK
6
CONTINUOUS
10
2.27871
20
-1.77746
11
2.27872
21
-1.77746
  0
ENDSEC
  0
EOF
