  0
SECTION
  2
HEADER
  9
$ANGBASE
  50
0.0
  9
$ANGDIR
  70
1
  9
$MEASUREMENT
  70
0
  0
ENDSEC
  0
SECTION
  2
TABLES
  0
TABLE
  2
LTYPE
  70
4
  0
LTYPE
  5
40F
  2
CONTINUOUS
  70
0
  3
Solid line
  72
65
  73
0
  40
0.0
  0
LTYPE
  5
410
  2
DASHDOT
 70
0
  3
Dash Dot ____ _ ____ _
 72
65
 73
4
 40
2.0
 49
1.25
 49
-0.25
 49
0.25
 49
-0.25
  0
LTYPE
  5
411
  2
DASHED
 70
0
  3
Dashed __ __ __ __ __
 72
65
 73
2
 40
0.75
 49
0.5
 49
-0.25
  0
LTYPE
  5
43B
  2
DOTTED
 70
0
  3
Dotted .  .  .  .
 72
65
 73
2
 40
0.2
 49
0.0
 49
-0.2
  0
ENDTAB
  0
TABLE
  2
STYLE
  70
4
  0
STYLE
  2
KICAD
  70
0
  40
0
  41
1
  42
1
  50
0
  71
0
  3
isocp.shx
  0
STYLE
  2
KICADB
  70
0
  40
0
  41
1
  42
1
  50
0
  71
0
  3
isocp.shx
  0
STYLE
  2
KICADI
  70
0
  40
0
  41
1
  42
1
  50
15
  71
0
  3
isocp.shx
  0
STYLE
  2
KICADBI
  70
0
  40
0
  41
1
  42
1
  50
15
  71
0
  3
isocp.shx
  0
ENDTAB
  0
TABLE
  2
LAYER
  70
1
  0
LAYER
  2
BLACK
  70
0
  62
7
  6
CONTINUOUS
  0
ENDTAB
  0
ENDSEC
  0
SECTION
  2
ENTITIES
0
LINE
8
BLACK
6
CONTINUOUS
10
2.76191
20
-2.44011
11
2.76781
21
-2.44128
0
LINE
8
BLACK
6
CONTINUOUS
10
2.76781
20
-2.44128
11
2.77892
21
-2.44589
0
LINE
8
BLACK
6
CONTINUOUS
10
2.77892
20
-2.44589
11
2.78893
21
-2.45257
0
LINE
8
BLACK
6
CONTINUOUS
10
2.78893
20
-2.45257
11
2.79743
21
-2.46107
0
LINE
8
BLACK
6
CONTINUOUS
10
2.79743
20
-2.46107
11
2.80411
21
-2.47108
0
LINE
8
BLACK
6
CONTINUOUS
10
2.80411
20
-2.47108
11
2.80872
21
-2.48219
0
LINE
8
BLACK
6
CONTINUOUS
10
2.80872
20
-2.48219
11
2.81106
21
-2.49399
0
LINE
8
BLACK
6
CONTINUOUS
10
2.81106
20
-2.49399
11
2.81106
21
-2.50601
0
LINE
8
BLACK
6
CONTINUOUS
10
2.81106
20
-2.50601
11
2.80872
21
-2.51781
0
LINE
8
BLACK
6
CONTINUOUS
10
2.80872
20
-2.51781
11
2.80411
21
-2.52892
0
LINE
8
BLACK
6
CONTINUOUS
10
2.80411
20
-2.52892
11
2.79743
21
-2.53893
0
LINE
8
BLACK
6
CONTINUOUS
10
2.79743
20
-2.53893
11
2.78893
21
-2.54743
0
LINE
8
BLACK
6
CONTINUOUS
10
2.78893
20
-2.54743
11
2.77892
21
-2.55411
0
LINE
8
BLACK
6
CONTINUOUS
10
2.77892
20
-2.55411
11
2.76781
21
-2.55872
0
LINE
8
BLACK
6
CONTINUOUS
10
2.76781
20
-2.55872
11
2.76191
21
-2.55989
0
LINE
8
BLACK
6
CONTINUOUS
10
2.76191
20
-2.55989
11
2.75601
21
-2.56106
0
LINE
8
BLACK
6
CONTINUOUS
10
2.75601
20
-2.56106
11
2.74399
21
-2.56106
0
LINE
8
BLACK
6
CONTINUOUS
10
2.74399
20
-2.56106
11
2.73809
21
-2.55989
0
LINE
8
BLACK
6
CONTINUOUS
10
2.73809
20
-2.55989
11
2.73219
21
-2.55872
0
LINE
8
BLACK
6
CONTINUOUS
10
2.73219
20
-2.55872
11
2.72108
21
-2.55411
0
LINE
8
BLACK
6
CONTINUOUS
10
2.72108
20
-2.55411
11
2.71107
21
-2.54743
0
LINE
8
BLACK
6
CONTINUOUS
10
2.71107
20
-2.54743
11
2.70257
21
-2.53893
0
LINE
8
BLACK
6
CONTINUOUS
10
2.70257
20
-2.53893
11
2.69589
21
-2.52892
0
LINE
8
BLACK
6
CONTINUOUS
10
2.69589
20
-2.52892
11
2.69128
21
-2.51781
0
LINE
8
BLACK
6
CONTINUOUS
10
2.69128
20
-2.51781
11
2.68894
21
-2.50601
0
LINE
8
BLACK
6
CONTINUOUS
10
2.68894
20
-2.50601
11
2.68894
21
-2.49399
0
LINE
8
BLACK
6
CONTINUOUS
10
2.68894
20
-2.49399
11
2.69128
21
-2.48219
0
LINE
8
BLACK
6
CONTINUOUS
10
2.69128
20
-2.48219
11
2.69589
21
-2.47108
0
LINE
8
BLACK
6
CONTINUOUS
10
2.69589
20
-2.47108
11
2.70257
21
-2.46107
0
LINE
8
BLACK
6
CONTINUOUS
10
2.70257
20
-2.46107
11
2.71107
21
-2.45257
0
LINE
8
BLACK
6
CONTINUOUS
10
2.71107
20
-2.45257
11
2.72108
21
-2.44589
0
LINE
8
BLACK
6
CONTINUOUS
10
2.72108
20
-2.44589
11
2.73219
21
-2.44128
0
LINE
8
BLACK
6
CONTINUOUS
10
2.73219
20
-2.44128
11
2.73809
21
-2.44011
0
LINE
8
BLACK
6
CONTINUOUS
10
2.73809
20
-2.44011
11
2.74399
21
-2.43894
0
LINE
8
BLACK
6
CONTINUOUS
10
2.74399
20
-2.43894
11
2.75601
21
-2.43894
0
LINE
8
BLACK
6
CONTINUOUS
10
2.75601
20
-2.43894
11
2.76191
21
-2.44011
0
LINE
8
BLACK
6
CONTINUOUS
10
2.41092
20
-2.31242
11
2.41773
21
-2.31525
0
LINE
8
BLACK
6
CONTINUOUS
10
2.41773
20
-2.31525
11
2.41773
21
-2.31525
0
LINE
8
BLACK
6
CONTINUOUS
10
2.41773
20
-2.31525
11
2.42387
21
-2.31934
0
LINE
8
BLACK
6
CONTINUOUS
10
2.42387
20
-2.31934
11
2.42908
21
-2.32456
0
LINE
8
BLACK
6
CONTINUOUS
10
2.42908
20
-2.32456
11
2.42908
21
-2.32456
0
LINE
8
BLACK
6
CONTINUOUS
10
2.42908
20
-2.32456
11
2.43318
21
-2.33069
0
LINE
8
BLACK
6
CONTINUOUS
10
2.43318
20
-2.33069
11
2.436
21
-2.3375
0
LINE
8
BLACK
6
CONTINUOUS
10
2.436
20
-2.3375
11
2.43744
21
-2.34474
0
LINE
8
BLACK
6
CONTINUOUS
10
2.43744
20
-2.34474
11
2.43744
21
-2.35211
0
LINE
8
BLACK
6
CONTINUOUS
10
2.43744
20
-2.35211
11
2.436
21
-2.35935
0
LINE
8
BLACK
6
CONTINUOUS
10
2.436
20
-2.35935
11
2.43318
21
-2.36616
0
LINE
8
BLACK
6
CONTINUOUS
10
2.43318
20
-2.36616
11
2.43318
21
-2.36616
0
LINE
8
BLACK
6
CONTINUOUS
10
2.43318
20
-2.36616
11
2.42908
21
-2.37229
0
LINE
8
BLACK
6
CONTINUOUS
10
2.42908
20
-2.37229
11
2.42387
21
-2.37751
0
LINE
8
BLACK
6
CONTINUOUS
10
2.42387
20
-2.37751
11
2.42078
21
-2.37957
0
LINE
8
BLACK
6
CONTINUOUS
10
2.42078
20
-2.37957
11
2.41773
21
-2.3816
0
LINE
8
BLACK
6
CONTINUOUS
10
2.41773
20
-2.3816
11
2.41092
21
-2.38443
0
LINE
8
BLACK
6
CONTINUOUS
10
2.41092
20
-2.38443
11
2.40369
21
-2.38587
0
LINE
8
BLACK
6
CONTINUOUS
10
2.40369
20
-2.38587
11
2.39631
21
-2.38587
0
LINE
8
BLACK
6
CONTINUOUS
10
2.39631
20
-2.38587
11
2.38908
21
-2.38443
0
LINE
8
BLACK
6
CONTINUOUS
10
2.38908
20
-2.38443
11
2.38227
21
-2.3816
0
LINE
8
BLACK
6
CONTINUOUS
10
2.38227
20
-2.3816
11
2.37922
21
-2.37957
0
LINE
8
BLACK
6
CONTINUOUS
10
2.37922
20
-2.37957
11
2.37613
21
-2.37751
0
LINE
8
BLACK
6
CONTINUOUS
10
2.37613
20
-2.37751
11
2.37092
21
-2.37229
0
LINE
8
BLACK
6
CONTINUOUS
10
2.37092
20
-2.37229
11
2.36682
21
-2.36616
0
LINE
8
BLACK
6
CONTINUOUS
10
2.36682
20
-2.36616
11
2.36682
21
-2.36616
0
LINE
8
BLACK
6
CONTINUOUS
10
2.36682
20
-2.36616
11
2.364
21
-2.35935
0
LINE
8
BLACK
6
CONTINUOUS
10
2.364
20
-2.35935
11
2.36256
21
-2.35211
0
LINE
8
BLACK
6
CONTINUOUS
10
2.36256
20
-2.35211
11
2.36256
21
-2.34474
0
LINE
8
BLACK
6
CONTINUOUS
10
2.36256
20
-2.34474
11
2.364
21
-2.3375
0
LINE
8
BLACK
6
CONTINUOUS
10
2.364
20
-2.3375
11
2.36682
21
-2.33069
0
LINE
8
BLACK
6
CONTINUOUS
10
2.36682
20
-2.33069
11
2.37092
21
-2.32456
0
LINE
8
BLACK
6
CONTINUOUS
10
2.37092
20
-2.32456
11
2.37092
21
-2.32456
0
LINE
8
BLACK
6
CONTINUOUS
10
2.37092
20
-2.32456
11
2.37613
21
-2.31934
0
LINE
8
BLACK
6
CONTINUOUS
10
2.37613
20
-2.31934
11
2.38227
21
-2.31525
0
LINE
8
BLACK
6
CONTINUOUS
10
2.38227
20
-2.31525
11
2.38227
21
-2.31525
0
LINE
8
BLACK
6
CONTINUOUS
10
2.38227
20
-2.31525
11
2.38908
21
-2.31242
0
LINE
8
BLACK
6
CONTINUOUS
10
2.38908
20
-2.31242
11
2.39631
21
-2.31098
0
LINE
8
BLACK
6
CONTINUOUS
10
2.39631
20
-2.31098
11
2.40369
21
-2.31098
0
LINE
8
BLACK
6
CONTINUOUS
10
2.40369
20
-2.31098
11
2.41092
21
-2.31242
0
LINE
8
BLACK
6
CONTINUOUS
10
2.21092
20
-2.31242
11
2.21773
21
-2.31525
0
LINE
8
BLACK
6
CONTINUOUS
10
2.21773
20
-2.31525
11
2.21773
21
-2.31525
0
LINE
8
BLACK
6
CONTINUOUS
10
2.21773
20
-2.31525
11
2.22387
21
-2.31934
0
LINE
8
BLACK
6
CONTINUOUS
10
2.22387
20
-2.31934
11
2.22908
21
-2.32456
0
LINE
8
BLACK
6
CONTINUOUS
10
2.22908
20
-2.32456
11
2.22908
21
-2.32456
0
LINE
8
BLACK
6
CONTINUOUS
10
2.22908
20
-2.32456
11
2.23318
21
-2.33069
0
LINE
8
BLACK
6
CONTINUOUS
10
2.23318
20
-2.33069
11
2.236
21
-2.3375
0
LINE
8
BLACK
6
CONTINUOUS
10
2.236
20
-2.3375
11
2.23744
21
-2.34474
0
LINE
8
BLACK
6
CONTINUOUS
10
2.23744
20
-2.34474
11
2.23744
21
-2.35211
0
LINE
8
BLACK
6
CONTINUOUS
10
2.23744
20
-2.35211
11
2.236
21
-2.35935
0
LINE
8
BLACK
6
CONTINUOUS
10
2.236
20
-2.35935
11
2.23318
21
-2.36616
0
LINE
8
BLACK
6
CONTINUOUS
10
2.23318
20
-2.36616
11
2.23318
21
-2.36616
0
LINE
8
BLACK
6
CONTINUOUS
10
2.23318
20
-2.36616
11
2.22908
21
-2.37229
0
LINE
8
BLACK
6
CONTINUOUS
10
2.22908
20
-2.37229
11
2.22387
21
-2.37751
0
LINE
8
BLACK
6
CONTINUOUS
10
2.22387
20
-2.37751
11
2.22078
21
-2.37957
0
LINE
8
BLACK
6
CONTINUOUS
10
2.22078
20
-2.37957
11
2.21773
21
-2.3816
0
LINE
8
BLACK
6
CONTINUOUS
10
2.21773
20
-2.3816
11
2.21092
21
-2.38443
0
LINE
8
BLACK
6
CONTINUOUS
10
2.21092
20
-2.38443
11
2.20369
21
-2.38587
0
LINE
8
BLACK
6
CONTINUOUS
10
2.20369
20
-2.38587
11
2.19631
21
-2.38587
0
LINE
8
BLACK
6
CONTINUOUS
10
2.19631
20
-2.38587
11
2.18908
21
-2.38443
0
LINE
8
BLACK
6
CONTINUOUS
10
2.18908
20
-2.38443
11
2.18227
21
-2.3816
0
LINE
8
BLACK
6
CONTINUOUS
10
2.18227
20
-2.3816
11
2.17922
21
-2.37957
0
LINE
8
BLACK
6
CONTINUOUS
10
2.17922
20
-2.37957
11
2.17613
21
-2.37751
0
LINE
8
BLACK
6
CONTINUOUS
10
2.17613
20
-2.37751
11
2.17092
21
-2.37229
0
LINE
8
BLACK
6
CONTINUOUS
10
2.17092
20
-2.37229
11
2.16682
21
-2.36616
0
LINE
8
BLACK
6
CONTINUOUS
10
2.16682
20
-2.36616
11
2.16682
21
-2.36616
0
LINE
8
BLACK
6
CONTINUOUS
10
2.16682
20
-2.36616
11
2.164
21
-2.35935
0
LINE
8
BLACK
6
CONTINUOUS
10
2.164
20
-2.35935
11
2.16256
21
-2.35211
0
LINE
8
BLACK
6
CONTINUOUS
10
2.16256
20
-2.35211
11
2.16256
21
-2.34474
0
LINE
8
BLACK
6
CONTINUOUS
10
2.16256
20
-2.34474
11
2.164
21
-2.3375
0
LINE
8
BLACK
6
CONTINUOUS
10
2.164
20
-2.3375
11
2.16682
21
-2.33069
0
LINE
8
BLACK
6
CONTINUOUS
10
2.16682
20
-2.33069
11
2.17092
21
-2.32456
0
LINE
8
BLACK
6
CONTINUOUS
10
2.17092
20
-2.32456
11
2.17092
21
-2.32456
0
LINE
8
BLACK
6
CONTINUOUS
10
2.17092
20
-2.32456
11
2.17613
21
-2.31934
0
LINE
8
BLACK
6
CONTINUOUS
10
2.17613
20
-2.31934
11
2.18227
21
-2.31525
0
LINE
8
BLACK
6
CONTINUOUS
10
2.18227
20
-2.31525
11
2.18227
21
-2.31525
0
LINE
8
BLACK
6
CONTINUOUS
10
2.18227
20
-2.31525
11
2.18908
21
-2.31242
0
LINE
8
BLACK
6
CONTINUOUS
10
2.18908
20
-2.31242
11
2.19631
21
-2.31098
0
LINE
8
BLACK
6
CONTINUOUS
10
2.19631
20
-2.31098
11
2.20369
21
-2.31098
0
LINE
8
BLACK
6
CONTINUOUS
10
2.20369
20
-2.31098
11
2.21092
21
-2.31242
0
LINE
8
BLACK
6
CONTINUOUS
10
2.75673
20
-2.23908
11
2.76781
21
-2.24128
0
LINE
8
BLACK
6
CONTINUOUS
10
2.76781
20
-2.24128
11
2.77892
21
-2.24589
0
LINE
8
BLACK
6
CONTINUOUS
10
2.77892
20
-2.24589
11
2.78893
21
-2.25257
0
LINE
8
BLACK
6
CONTINUOUS
10
2.78893
20
-2.25257
11
2.79743
21
-2.26107
0
LINE
8
BLACK
6
CONTINUOUS
10
2.79743
20
-2.26107
11
2.80411
21
-2.27108
0
LINE
8
BLACK
6
CONTINUOUS
10
2.80411
20
-2.27108
11
2.80872
21
-2.28219
0
LINE
8
BLACK
6
CONTINUOUS
10
2.80872
20
-2.28219
11
2.81106
21
-2.29399
0
LINE
8
BLACK
6
CONTINUOUS
10
2.81106
20
-2.29399
11
2.81106
21
-2.30601
0
LINE
8
BLACK
6
CONTINUOUS
10
2.81106
20
-2.30601
11
2.80872
21
-2.31781
0
LINE
8
BLACK
6
CONTINUOUS
10
2.80872
20
-2.31781
11
2.80411
21
-2.32892
0
LINE
8
BLACK
6
CONTINUOUS
10
2.80411
20
-2.32892
11
2.79743
21
-2.33893
0
LINE
8
BLACK
6
CONTINUOUS
10
2.79743
20
-2.33893
11
2.78893
21
-2.34743
0
LINE
8
BLACK
6
CONTINUOUS
10
2.78893
20
-2.34743
11
2.77892
21
-2.35411
0
LINE
8
BLACK
6
CONTINUOUS
10
2.77892
20
-2.35411
11
2.76781
21
-2.35872
0
LINE
8
BLACK
6
CONTINUOUS
10
2.76781
20
-2.35872
11
2.76464
21
-2.35935
0
LINE
8
BLACK
6
CONTINUOUS
10
2.76464
20
-2.35935
11
2.75601
21
-2.36106
0
LINE
8
BLACK
6
CONTINUOUS
10
2.75601
20
-2.36106
11
2.74399
21
-2.36106
0
LINE
8
BLACK
6
CONTINUOUS
10
2.74399
20
-2.36106
11
2.73536
21
-2.35935
0
LINE
8
BLACK
6
CONTINUOUS
10
2.73536
20
-2.35935
11
2.73219
21
-2.35872
0
LINE
8
BLACK
6
CONTINUOUS
10
2.73219
20
-2.35872
11
2.72108
21
-2.35411
0
LINE
8
BLACK
6
CONTINUOUS
10
2.72108
20
-2.35411
11
2.71107
21
-2.34743
0
LINE
8
BLACK
6
CONTINUOUS
10
2.71107
20
-2.34743
11
2.70257
21
-2.33893
0
LINE
8
BLACK
6
CONTINUOUS
10
2.70257
20
-2.33893
11
2.69589
21
-2.32892
0
LINE
8
BLACK
6
CONTINUOUS
10
2.69589
20
-2.32892
11
2.69128
21
-2.31781
0
LINE
8
BLACK
6
CONTINUOUS
10
2.69128
20
-2.31781
11
2.68894
21
-2.30601
0
LINE
8
BLACK
6
CONTINUOUS
10
2.68894
20
-2.30601
11
2.68894
21
-2.29399
0
LINE
8
BLACK
6
CONTINUOUS
10
2.68894
20
-2.29399
11
2.69128
21
-2.28219
0
LINE
8
BLACK
6
CONTINUOUS
10
2.69128
20
-2.28219
11
2.69589
21
-2.27108
0
LINE
8
BLACK
6
CONTINUOUS
10
2.69589
20
-2.27108
11
2.70257
21
-2.26107
0
LINE
8
BLACK
6
CONTINUOUS
10
2.70257
20
-2.26107
11
2.71107
21
-2.25257
0
LINE
8
BLACK
6
CONTINUOUS
10
2.71107
20
-2.25257
11
2.72108
21
-2.24589
0
LINE
8
BLACK
6
CONTINUOUS
10
2.72108
20
-2.24589
11
2.73219
21
-2.24128
0
LINE
8
BLACK
6
CONTINUOUS
10
2.73219
20
-2.24128
11
2.74327
21
-2.23908
0
LINE
8
BLACK
6
CONTINUOUS
10
2.74327
20
-2.23908
11
2.74399
21
-2.23894
0
LINE
8
BLACK
6
CONTINUOUS
10
2.74399
20
-2.23894
11
2.75601
21
-2.23894
0
LINE
8
BLACK
6
CONTINUOUS
10
2.75601
20
-2.23894
11
2.75673
21
-2.23908
0
LINE
8
BLACK
6
CONTINUOUS
10
2.01106
20
-2.36106
11
1.88894
21
-2.36106
0
LINE
8
BLACK
6
CONTINUOUS
10
1.88894
20
-2.36106
11
1.88894
21
-2.23894
0
LINE
8
BLACK
6
CONTINUOUS
10
1.88894
20
-2.23894
11
2.01106
21
-2.23894
0
LINE
8
BLACK
6
CONTINUOUS
10
2.01106
20
-2.23894
11
2.01106
21
-2.36106
0
LINE
8
BLACK
6
CONTINUOUS
10
2.21092
20
-2.214
11
2.21773
21
-2.21682
0
LINE
8
BLACK
6
CONTINUOUS
10
2.21773
20
-2.21682
11
2.21773
21
-2.21682
0
LINE
8
BLACK
6
CONTINUOUS
10
2.21773
20
-2.21682
11
2.22387
21
-2.22092
0
LINE
8
BLACK
6
CONTINUOUS
10
2.22387
20
-2.22092
11
2.22908
21
-2.22613
0
LINE
8
BLACK
6
CONTINUOUS
10
2.22908
20
-2.22613
11
2.22908
21
-2.22613
0
LINE
8
BLACK
6
CONTINUOUS
10
2.22908
20
-2.22613
11
2.23318
21
-2.23227
0
LINE
8
BLACK
6
CONTINUOUS
10
2.23318
20
-2.23227
11
2.236
21
-2.23908
0
LINE
8
BLACK
6
CONTINUOUS
10
2.236
20
-2.23908
11
2.23744
21
-2.24631
0
LINE
8
BLACK
6
CONTINUOUS
10
2.23744
20
-2.24631
11
2.23744
21
-2.25369
0
LINE
8
BLACK
6
CONTINUOUS
10
2.23744
20
-2.25369
11
2.236
21
-2.26092
0
LINE
8
BLACK
6
CONTINUOUS
10
2.236
20
-2.26092
11
2.23318
21
-2.26773
0
LINE
8
BLACK
6
CONTINUOUS
10
2.23318
20
-2.26773
11
2.23318
21
-2.26773
0
LINE
8
BLACK
6
CONTINUOUS
10
2.23318
20
-2.26773
11
2.22908
21
-2.27387
0
LINE
8
BLACK
6
CONTINUOUS
10
2.22908
20
-2.27387
11
2.22387
21
-2.27908
0
LINE
8
BLACK
6
CONTINUOUS
10
2.22387
20
-2.27908
11
2.22078
21
-2.28114
0
LINE
8
BLACK
6
CONTINUOUS
10
2.22078
20
-2.28114
11
2.21773
21
-2.28318
0
LINE
8
BLACK
6
CONTINUOUS
10
2.21773
20
-2.28318
11
2.21092
21
-2.286
0
LINE
8
BLACK
6
CONTINUOUS
10
2.21092
20
-2.286
11
2.20369
21
-2.28744
0
LINE
8
BLACK
6
CONTINUOUS
10
2.20369
20
-2.28744
11
2.19631
21
-2.28744
0
LINE
8
BLACK
6
CONTINUOUS
10
2.19631
20
-2.28744
11
2.18908
21
-2.286
0
LINE
8
BLACK
6
CONTINUOUS
10
2.18908
20
-2.286
11
2.18227
21
-2.28318
0
LINE
8
BLACK
6
CONTINUOUS
10
2.18227
20
-2.28318
11
2.17922
21
-2.28114
0
LINE
8
BLACK
6
CONTINUOUS
10
2.17922
20
-2.28114
11
2.17613
21
-2.27908
0
LINE
8
BLACK
6
CONTINUOUS
10
2.17613
20
-2.27908
11
2.17092
21
-2.27387
0
LINE
8
BLACK
6
CONTINUOUS
10
2.17092
20
-2.27387
11
2.16682
21
-2.26773
0
LINE
8
BLACK
6
CONTINUOUS
10
2.16682
20
-2.26773
11
2.16682
21
-2.26773
0
LINE
8
BLACK
6
CONTINUOUS
10
2.16682
20
-2.26773
11
2.164
21
-2.26092
0
LINE
8
BLACK
6
CONTINUOUS
10
2.164
20
-2.26092
11
2.16256
21
-2.25369
0
LINE
8
BLACK
6
CONTINUOUS
10
2.16256
20
-2.25369
11
2.16256
21
-2.24631
0
LINE
8
BLACK
6
CONTINUOUS
10
2.16256
20
-2.24631
11
2.164
21
-2.23908
0
LINE
8
BLACK
6
CONTINUOUS
10
2.164
20
-2.23908
11
2.16682
21
-2.23227
0
LINE
8
BLACK
6
CONTINUOUS
10
2.16682
20
-2.23227
11
2.17092
21
-2.22613
0
LINE
8
BLACK
6
CONTINUOUS
10
2.17092
20
-2.22613
11
2.17092
21
-2.22613
0
LINE
8
BLACK
6
CONTINUOUS
10
2.17092
20
-2.22613
11
2.17613
21
-2.22092
0
LINE
8
BLACK
6
CONTINUOUS
10
2.17613
20
-2.22092
11
2.18227
21
-2.21682
0
LINE
8
BLACK
6
CONTINUOUS
10
2.18227
20
-2.21682
11
2.18227
21
-2.21682
0
LINE
8
BLACK
6
CONTINUOUS
10
2.18227
20
-2.21682
11
2.18908
21
-2.214
0
LINE
8
BLACK
6
CONTINUOUS
10
2.18908
20
-2.214
11
2.19631
21
-2.21256
0
LINE
8
BLACK
6
CONTINUOUS
10
2.19631
20
-2.21256
11
2.20369
21
-2.21256
0
LINE
8
BLACK
6
CONTINUOUS
10
2.20369
20
-2.21256
11
2.21092
21
-2.214
0
LINE
8
BLACK
6
CONTINUOUS
10
2.41092
20
-2.214
11
2.41773
21
-2.21682
0
LINE
8
BLACK
6
CONTINUOUS
10
2.41773
20
-2.21682
11
2.41773
21
-2.21682
0
LINE
8
BLACK
6
CONTINUOUS
10
2.41773
20
-2.21682
11
2.42387
21
-2.22092
0
LINE
8
BLACK
6
CONTINUOUS
10
2.42387
20
-2.22092
11
2.42908
21
-2.22613
0
LINE
8
BLACK
6
CONTINUOUS
10
2.42908
20
-2.22613
11
2.42908
21
-2.22613
0
LINE
8
BLACK
6
CONTINUOUS
10
2.42908
20
-2.22613
11
2.43318
21
-2.23227
0
LINE
8
BLACK
6
CONTINUOUS
10
2.43318
20
-2.23227
11
2.436
21
-2.23908
0
LINE
8
BLACK
6
CONTINUOUS
10
2.436
20
-2.23908
11
2.43744
21
-2.24631
0
LINE
8
BLACK
6
CONTINUOUS
10
2.43744
20
-2.24631
11
2.43744
21
-2.25369
0
LINE
8
BLACK
6
CONTINUOUS
10
2.43744
20
-2.25369
11
2.436
21
-2.26092
0
LINE
8
BLACK
6
CONTINUOUS
10
2.436
20
-2.26092
11
2.43318
21
-2.26773
0
LINE
8
BLACK
6
CONTINUOUS
10
2.43318
20
-2.26773
11
2.43318
21
-2.26773
0
LINE
8
BLACK
6
CONTINUOUS
10
2.43318
20
-2.26773
11
2.42908
21
-2.27387
0
LINE
8
BLACK
6
CONTINUOUS
10
2.42908
20
-2.27387
11
2.42387
21
-2.27908
0
LINE
8
BLACK
6
CONTINUOUS
10
2.42387
20
-2.27908
11
2.42078
21
-2.28114
0
LINE
8
BLACK
6
CONTINUOUS
10
2.42078
20
-2.28114
11
2.41773
21
-2.28318
0
LINE
8
BLACK
6
CONTINUOUS
10
2.41773
20
-2.28318
11
2.41092
21
-2.286
0
LINE
8
BLACK
6
CONTINUOUS
10
2.41092
20
-2.286
11
2.40369
21
-2.28744
0
LINE
8
BLACK
6
CONTINUOUS
10
2.40369
20
-2.28744
11
2.39631
21
-2.28744
0
LINE
8
BLACK
6
CONTINUOUS
10
2.39631
20
-2.28744
11
2.38908
21
-2.286
0
LINE
8
BLACK
6
CONTINUOUS
10
2.38908
20
-2.286
11
2.38227
21
-2.28318
0
LINE
8
BLACK
6
CONTINUOUS
10
2.38227
20
-2.28318
11
2.37922
21
-2.28114
0
LINE
8
BLACK
6
CONTINUOUS
10
2.37922
20
-2.28114
11
2.37613
21
-2.27908
0
LINE
8
BLACK
6
CONTINUOUS
10
2.37613
20
-2.27908
11
2.37092
21
-2.27387
0
LINE
8
BLACK
6
CONTINUOUS
10
2.37092
20
-2.27387
11
2.36682
21
-2.26773
0
LINE
8
BLACK
6
CONTINUOUS
10
2.36682
20
-2.26773
11
2.36682
21
-2.26773
0
LINE
8
BLACK
6
CONTINUOUS
10
2.36682
20
-2.26773
11
2.364
21
-2.26092
0
LINE
8
BLACK
6
CONTINUOUS
10
2.364
20
-2.26092
11
2.36256
21
-2.25369
0
LINE
8
BLACK
6
CONTINUOUS
10
2.36256
20
-2.25369
11
2.36256
21
-2.24631
0
LINE
8
BLACK
6
CONTINUOUS
10
2.36256
20
-2.24631
11
2.364
21
-2.23908
0
LINE
8
BLACK
6
CONTINUOUS
10
2.364
20
-2.23908
11
2.36682
21
-2.23227
0
LINE
8
BLACK
6
CONTINUOUS
10
2.36682
20
-2.23227
11
2.37092
21
-2.22613
0
LINE
8
BLACK
6
CONTINUOUS
10
2.37092
20
-2.22613
11
2.37092
21
-2.22613
0
LINE
8
BLACK
6
CONTINUOUS
10
2.37092
20
-2.22613
11
2.37613
21
-2.22092
0
LINE
8
BLACK
6
CONTINUOUS
10
2.37613
20
-2.22092
11
2.38227
21
-2.21682
0
LINE
8
BLACK
6
CONTINUOUS
10
2.38227
20
-2.21682
11
2.38227
21
-2.21682
0
LINE
8
BLACK
6
CONTINUOUS
10
2.38227
20
-2.21682
11
2.38908
21
-2.214
0
LINE
8
BLACK
6
CONTINUOUS
10
2.38908
20
-2.214
11
2.39631
21
-2.21256
0
LINE
8
BLACK
6
CONTINUOUS
10
2.39631
20
-2.21256
11
2.40369
21
-2.21256
0
LINE
8
BLACK
6
CONTINUOUS
10
2.40369
20
-2.21256
11
2.41092
21
-2.214
0
LINE
8
BLACK
6
CONTINUOUS
10
1.96191
20
-2.04011
11
1.96781
21
-2.04128
0
LINE
8
BLACK
6
CONTINUOUS
10
1.96781
20
-2.04128
11
1.97892
21
-2.04589
0
LINE
8
BLACK
6
CONTINUOUS
10
1.97892
20
-2.04589
11
1.98893
21
-2.05257
0
LINE
8
BLACK
6
CONTINUOUS
10
1.98893
20
-2.05257
11
1.99743
21
-2.06107
0
LINE
8
BLACK
6
CONTINUOUS
10
1.99743
20
-2.06107
11
2.00411
21
-2.07108
0
LINE
8
BLACK
6
CONTINUOUS
10
2.00411
20
-2.07108
11
2.00872
21
-2.08219
0
LINE
8
BLACK
6
CONTINUOUS
10
2.00872
20
-2.08219
11
2.01106
21
-2.09399
0
LINE
8
BLACK
6
CONTINUOUS
10
2.01106
20
-2.09399
11
2.01106
21
-2.10601
0
LINE
8
BLACK
6
CONTINUOUS
10
2.01106
20
-2.10601
11
2.00872
21
-2.11781
0
LINE
8
BLACK
6
CONTINUOUS
10
2.00872
20
-2.11781
11
2.00411
21
-2.12892
0
LINE
8
BLACK
6
CONTINUOUS
10
2.00411
20
-2.12892
11
1.99743
21
-2.13893
0
LINE
8
BLACK
6
CONTINUOUS
10
1.99743
20
-2.13893
11
1.98893
21
-2.14743
0
LINE
8
BLACK
6
CONTINUOUS
10
1.98893
20
-2.14743
11
1.97892
21
-2.15411
0
LINE
8
BLACK
6
CONTINUOUS
10
1.97892
20
-2.15411
11
1.96781
21
-2.15872
0
LINE
8
BLACK
6
CONTINUOUS
10
1.96781
20
-2.15872
11
1.96191
21
-2.15989
0
LINE
8
BLACK
6
CONTINUOUS
10
1.96191
20
-2.15989
11
1.95601
21
-2.16106
0
LINE
8
BLACK
6
CONTINUOUS
10
1.95601
20
-2.16106
11
1.94399
21
-2.16106
0
LINE
8
BLACK
6
CONTINUOUS
10
1.94399
20
-2.16106
11
1.93809
21
-2.15989
0
LINE
8
BLACK
6
CONTINUOUS
10
1.93809
20
-2.15989
11
1.93219
21
-2.15872
0
LINE
8
BLACK
6
CONTINUOUS
10
1.93219
20
-2.15872
11
1.92108
21
-2.15411
0
LINE
8
BLACK
6
CONTINUOUS
10
1.92108
20
-2.15411
11
1.91107
21
-2.14743
0
LINE
8
BLACK
6
CONTINUOUS
10
1.91107
20
-2.14743
11
1.90257
21
-2.13893
0
LINE
8
BLACK
6
CONTINUOUS
10
1.90257
20
-2.13893
11
1.89589
21
-2.12892
0
LINE
8
BLACK
6
CONTINUOUS
10
1.89589
20
-2.12892
11
1.89128
21
-2.11781
0
LINE
8
BLACK
6
CONTINUOUS
10
1.89128
20
-2.11781
11
1.88894
21
-2.10601
0
LINE
8
BLACK
6
CONTINUOUS
10
1.88894
20
-2.10601
11
1.88894
21
-2.09399
0
LINE
8
BLACK
6
CONTINUOUS
10
1.88894
20
-2.09399
11
1.89128
21
-2.08219
0
LINE
8
BLACK
6
CONTINUOUS
10
1.89128
20
-2.08219
11
1.89589
21
-2.07108
0
LINE
8
BLACK
6
CONTINUOUS
10
1.89589
20
-2.07108
11
1.90257
21
-2.06107
0
LINE
8
BLACK
6
CONTINUOUS
10
1.90257
20
-2.06107
11
1.91107
21
-2.05257
0
LINE
8
BLACK
6
CONTINUOUS
10
1.91107
20
-2.05257
11
1.92108
21
-2.04589
0
LINE
8
BLACK
6
CONTINUOUS
10
1.92108
20
-2.04589
11
1.93219
21
-2.04128
0
LINE
8
BLACK
6
CONTINUOUS
10
1.93219
20
-2.04128
11
1.93809
21
-2.04011
0
LINE
8
BLACK
6
CONTINUOUS
10
1.93809
20
-2.04011
11
1.94399
21
-2.03894
0
LINE
8
BLACK
6
CONTINUOUS
10
1.94399
20
-2.03894
11
1.95601
21
-2.03894
0
LINE
8
BLACK
6
CONTINUOUS
10
1.95601
20
-2.03894
11
1.96191
21
-2.04011
0
LINE
8
BLACK
6
CONTINUOUS
10
2.76191
20
-2.04011
11
2.76781
21
-2.04128
0
LINE
8
BLACK
6
CONTINUOUS
10
2.76781
20
-2.04128
11
2.77892
21
-2.04589
0
LINE
8
BLACK
6
CONTINUOUS
10
2.77892
20
-2.04589
11
2.78893
21
-2.05257
0
LINE
8
BLACK
6
CONTINUOUS
10
2.78893
20
-2.05257
11
2.79743
21
-2.06107
0
LINE
8
BLACK
6
CONTINUOUS
10
2.79743
20
-2.06107
11
2.80411
21
-2.07108
0
LINE
8
BLACK
6
CONTINUOUS
10
2.80411
20
-2.07108
11
2.80872
21
-2.08219
0
LINE
8
BLACK
6
CONTINUOUS
10
2.80872
20
-2.08219
11
2.81106
21
-2.09399
0
LINE
8
BLACK
6
CONTINUOUS
10
2.81106
20
-2.09399
11
2.81106
21
-2.10601
0
LINE
8
BLACK
6
CONTINUOUS
10
2.81106
20
-2.10601
11
2.80872
21
-2.11781
0
LINE
8
BLACK
6
CONTINUOUS
10
2.80872
20
-2.11781
11
2.80411
21
-2.12892
0
LINE
8
BLACK
6
CONTINUOUS
10
2.80411
20
-2.12892
11
2.79743
21
-2.13893
0
LINE
8
BLACK
6
CONTINUOUS
10
2.79743
20
-2.13893
11
2.78893
21
-2.14743
0
LINE
8
BLACK
6
CONTINUOUS
10
2.78893
20
-2.14743
11
2.77892
21
-2.15411
0
LINE
8
BLACK
6
CONTINUOUS
10
2.77892
20
-2.15411
11
2.76781
21
-2.15872
0
LINE
8
BLACK
6
CONTINUOUS
10
2.76781
20
-2.15872
11
2.76191
21
-2.15989
0
LINE
8
BLACK
6
CONTINUOUS
10
2.76191
20
-2.15989
11
2.75601
21
-2.16106
0
LINE
8
BLACK
6
CONTINUOUS
10
2.75601
20
-2.16106
11
2.74399
21
-2.16106
0
LINE
8
BLACK
6
CONTINUOUS
10
2.74399
20
-2.16106
11
2.73809
21
-2.15989
0
LINE
8
BLACK
6
CONTINUOUS
10
2.73809
20
-2.15989
11
2.73219
21
-2.15872
0
LINE
8
BLACK
6
CONTINUOUS
10
2.73219
20
-2.15872
11
2.72108
21
-2.15411
0
LINE
8
BLACK
6
CONTINUOUS
10
2.72108
20
-2.15411
11
2.71107
21
-2.14743
0
LINE
8
BLACK
6
CONTINUOUS
10
2.71107
20
-2.14743
11
2.70257
21
-2.13893
0
LINE
8
BLACK
6
CONTINUOUS
10
2.70257
20
-2.13893
11
2.69589
21
-2.12892
0
LINE
8
BLACK
6
CONTINUOUS
10
2.69589
20
-2.12892
11
2.69128
21
-2.11781
0
LINE
8
BLACK
6
CONTINUOUS
10
2.69128
20
-2.11781
11
2.68894
21
-2.10601
0
LINE
8
BLACK
6
CONTINUOUS
10
2.68894
20
-2.10601
11
2.68894
21
-2.09399
0
LINE
8
BLACK
6
CONTINUOUS
10
2.68894
20
-2.09399
11
2.69128
21
-2.08219
0
LINE
8
BLACK
6
CONTINUOUS
10
2.69128
20
-2.08219
11
2.69589
21
-2.07108
0
LINE
8
BLACK
6
CONTINUOUS
10
2.69589
20
-2.07108
11
2.70257
21
-2.06107
0
LINE
8
BLACK
6
CONTINUOUS
10
2.70257
20
-2.06107
11
2.71107
21
-2.05257
0
LINE
8
BLACK
6
CONTINUOUS
10
2.71107
20
-2.05257
11
2.72108
21
-2.04589
0
LINE
8
BLACK
6
CONTINUOUS
10
2.72108
20
-2.04589
11
2.73219
21
-2.04128
0
LINE
8
BLACK
6
CONTINUOUS
10
2.73219
20
-2.04128
11
2.73809
21
-2.04011
0
LINE
8
BLACK
6
CONTINUOUS
10
2.73809
20
-2.04011
11
2.74399
21
-2.03894
0
LINE
8
BLACK
6
CONTINUOUS
10
2.74399
20
-2.03894
11
2.75601
21
-2.03894
0
LINE
8
BLACK
6
CONTINUOUS
10
2.75601
20
-2.03894
11
2.76191
21
-2.04011
0
LINE
8
BLACK
6
CONTINUOUS
10
2.40686
20
-1.9825
11
2.41346
21
-1.9845
0
LINE
8
BLACK
6
CONTINUOUS
10
2.41346
20
-1.9845
11
2.41954
21
-1.98775
0
LINE
8
BLACK
6
CONTINUOUS
10
2.41954
20
-1.98775
11
2.42487
21
-1.99213
0
LINE
8
BLACK
6
CONTINUOUS
10
2.42487
20
-1.99213
11
2.42925
21
-1.99746
0
LINE
8
BLACK
6
CONTINUOUS
10
2.42925
20
-1.99746
11
2.4325
21
-2.00354
0
LINE
8
BLACK
6
CONTINUOUS
10
2.4325
20
-2.00354
11
2.4325
21
-2.00354
0
LINE
8
BLACK
6
CONTINUOUS
10
2.4325
20
-2.00354
11
2.4345
21
-2.01014
0
LINE
8
BLACK
6
CONTINUOUS
10
2.4345
20
-2.01014
11
2.43501
21
-2.01528
0
LINE
8
BLACK
6
CONTINUOUS
10
2.43501
20
-2.01528
11
2.43501
21
-2.08472
0
LINE
8
BLACK
6
CONTINUOUS
10
2.43501
20
-2.08472
11
2.4345
21
-2.08986
0
LINE
8
BLACK
6
CONTINUOUS
10
2.4345
20
-2.08986
11
2.43325
21
-2.09399
0
LINE
8
BLACK
6
CONTINUOUS
10
2.43325
20
-2.09399
11
2.4325
21
-2.09646
0
LINE
8
BLACK
6
CONTINUOUS
10
2.4325
20
-2.09646
11
2.42925
21
-2.10254
0
LINE
8
BLACK
6
CONTINUOUS
10
2.42925
20
-2.10254
11
2.42487
21
-2.10787
0
LINE
8
BLACK
6
CONTINUOUS
10
2.42487
20
-2.10787
11
2.41954
21
-2.11225
0
LINE
8
BLACK
6
CONTINUOUS
10
2.41954
20
-2.11225
11
2.41346
21
-2.1155
0
LINE
8
BLACK
6
CONTINUOUS
10
2.41346
20
-2.1155
11
2.41346
21
-2.1155
0
LINE
8
BLACK
6
CONTINUOUS
10
2.41346
20
-2.1155
11
2.40686
21
-2.1175
0
LINE
8
BLACK
6
CONTINUOUS
10
2.40686
20
-2.1175
11
2.4
21
-2.11818
0
LINE
8
BLACK
6
CONTINUOUS
10
2.4
20
-2.11818
11
2.39314
21
-2.1175
0
LINE
8
BLACK
6
CONTINUOUS
10
2.39314
20
-2.1175
11
2.38654
21
-2.1155
0
LINE
8
BLACK
6
CONTINUOUS
10
2.38654
20
-2.1155
11
2.38654
21
-2.1155
0
LINE
8
BLACK
6
CONTINUOUS
10
2.38654
20
-2.1155
11
2.38046
21
-2.11225
0
LINE
8
BLACK
6
CONTINUOUS
10
2.38046
20
-2.11225
11
2.37513
21
-2.10787
0
LINE
8
BLACK
6
CONTINUOUS
10
2.37513
20
-2.10787
11
2.37075
21
-2.10254
0
LINE
8
BLACK
6
CONTINUOUS
10
2.37075
20
-2.10254
11
2.3675
21
-2.09646
0
LINE
8
BLACK
6
CONTINUOUS
10
2.3675
20
-2.09646
11
2.36675
21
-2.09399
0
LINE
8
BLACK
6
CONTINUOUS
10
2.36675
20
-2.09399
11
2.3655
21
-2.08986
0
LINE
8
BLACK
6
CONTINUOUS
10
2.3655
20
-2.08986
11
2.36499
21
-2.08472
0
LINE
8
BLACK
6
CONTINUOUS
10
2.36499
20
-2.08472
11
2.36499
21
-2.01528
0
LINE
8
BLACK
6
CONTINUOUS
10
2.36499
20
-2.01528
11
2.3655
21
-2.01014
0
LINE
8
BLACK
6
CONTINUOUS
10
2.3655
20
-2.01014
11
2.3675
21
-2.00354
0
LINE
8
BLACK
6
CONTINUOUS
10
2.3675
20
-2.00354
11
2.37075
21
-1.99746
0
LINE
8
BLACK
6
CONTINUOUS
10
2.37075
20
-1.99746
11
2.37075
21
-1.99746
0
LINE
8
BLACK
6
CONTINUOUS
10
2.37075
20
-1.99746
11
2.37513
21
-1.99213
0
LINE
8
BLACK
6
CONTINUOUS
10
2.37513
20
-1.99213
11
2.38046
21
-1.98775
0
LINE
8
BLACK
6
CONTINUOUS
10
2.38046
20
-1.98775
11
2.38654
21
-1.9845
0
LINE
8
BLACK
6
CONTINUOUS
10
2.38654
20
-1.9845
11
2.38654
21
-1.9845
0
LINE
8
BLACK
6
CONTINUOUS
10
2.38654
20
-1.9845
11
2.39314
21
-1.9825
0
LINE
8
BLACK
6
CONTINUOUS
10
2.39314
20
-1.9825
11
2.4
21
-1.98182
0
LINE
8
BLACK
6
CONTINUOUS
10
2.4
20
-1.98182
11
2.40686
21
-1.9825
0
LINE
8
BLACK
6
CONTINUOUS
10
2.30686
20
-1.9825
11
2.31346
21
-1.9845
0
LINE
8
BLACK
6
CONTINUOUS
10
2.31346
20
-1.9845
11
2.31954
21
-1.98775
0
LINE
8
BLACK
6
CONTINUOUS
10
2.31954
20
-1.98775
11
2.32487
21
-1.99213
0
LINE
8
BLACK
6
CONTINUOUS
10
2.32487
20
-1.99213
11
2.32925
21
-1.99746
0
LINE
8
BLACK
6
CONTINUOUS
10
2.32925
20
-1.99746
11
2.3325
21
-2.00354
0
LINE
8
BLACK
6
CONTINUOUS
10
2.3325
20
-2.00354
11
2.3325
21
-2.00354
0
LINE
8
BLACK
6
CONTINUOUS
10
2.3325
20
-2.00354
11
2.3345
21
-2.01014
0
LINE
8
BLACK
6
CONTINUOUS
10
2.3345
20
-2.01014
11
2.33501
21
-2.01528
0
LINE
8
BLACK
6
CONTINUOUS
10
2.33501
20
-2.01528
11
2.33501
21
-2.08472
0
LINE
8
BLACK
6
CONTINUOUS
10
2.33501
20
-2.08472
11
2.3345
21
-2.08986
0
LINE
8
BLACK
6
CONTINUOUS
10
2.3345
20
-2.08986
11
2.33325
21
-2.09399
0
LINE
8
BLACK
6
CONTINUOUS
10
2.33325
20
-2.09399
11
2.3325
21
-2.09646
0
LINE
8
BLACK
6
CONTINUOUS
10
2.3325
20
-2.09646
11
2.32925
21
-2.10254
0
LINE
8
BLACK
6
CONTINUOUS
10
2.32925
20
-2.10254
11
2.32487
21
-2.10787
0
LINE
8
BLACK
6
CONTINUOUS
10
2.32487
20
-2.10787
11
2.31954
21
-2.11225
0
LINE
8
BLACK
6
CONTINUOUS
10
2.31954
20
-2.11225
11
2.31346
21
-2.1155
0
LINE
8
BLACK
6
CONTINUOUS
10
2.31346
20
-2.1155
11
2.31346
21
-2.1155
0
LINE
8
BLACK
6
CONTINUOUS
10
2.31346
20
-2.1155
11
2.30686
21
-2.1175
0
LINE
8
BLACK
6
CONTINUOUS
10
2.30686
20
-2.1175
11
2.3
21
-2.11818
0
LINE
8
BLACK
6
CONTINUOUS
10
2.3
20
-2.11818
11
2.29314
21
-2.1175
0
LINE
8
BLACK
6
CONTINUOUS
10
2.29314
20
-2.1175
11
2.28654
21
-2.1155
0
LINE
8
BLACK
6
CONTINUOUS
10
2.28654
20
-2.1155
11
2.28654
21
-2.1155
0
LINE
8
BLACK
6
CONTINUOUS
10
2.28654
20
-2.1155
11
2.28046
21
-2.11225
0
LINE
8
BLACK
6
CONTINUOUS
10
2.28046
20
-2.11225
11
2.27513
21
-2.10787
0
LINE
8
BLACK
6
CONTINUOUS
10
2.27513
20
-2.10787
11
2.27075
21
-2.10254
0
LINE
8
BLACK
6
CONTINUOUS
10
2.27075
20
-2.10254
11
2.2675
21
-2.09646
0
LINE
8
BLACK
6
CONTINUOUS
10
2.2675
20
-2.09646
11
2.26675
21
-2.09399
0
LINE
8
BLACK
6
CONTINUOUS
10
2.26675
20
-2.09399
11
2.2655
21
-2.08986
0
LINE
8
BLACK
6
CONTINUOUS
10
2.2655
20
-2.08986
11
2.26499
21
-2.08472
0
LINE
8
BLACK
6
CONTINUOUS
10
2.26499
20
-2.08472
11
2.26499
21
-2.01528
0
LINE
8
BLACK
6
CONTINUOUS
10
2.26499
20
-2.01528
11
2.2655
21
-2.01014
0
LINE
8
BLACK
6
CONTINUOUS
10
2.2655
20
-2.01014
11
2.2675
21
-2.00354
0
LINE
8
BLACK
6
CONTINUOUS
10
2.2675
20
-2.00354
11
2.27075
21
-1.99746
0
LINE
8
BLACK
6
CONTINUOUS
10
2.27075
20
-1.99746
11
2.27075
21
-1.99746
0
LINE
8
BLACK
6
CONTINUOUS
10
2.27075
20
-1.99746
11
2.27513
21
-1.99213
0
LINE
8
BLACK
6
CONTINUOUS
10
2.27513
20
-1.99213
11
2.28046
21
-1.98775
0
LINE
8
BLACK
6
CONTINUOUS
10
2.28046
20
-1.98775
11
2.28654
21
-1.9845
0
LINE
8
BLACK
6
CONTINUOUS
10
2.28654
20
-1.9845
11
2.28654
21
-1.9845
0
LINE
8
BLACK
6
CONTINUOUS
10
2.28654
20
-1.9845
11
2.29314
21
-1.9825
0
LINE
8
BLACK
6
CONTINUOUS
10
2.29314
20
-1.9825
11
2.3
21
-1.98182
0
LINE
8
BLACK
6
CONTINUOUS
10
2.3
20
-1.98182
11
2.30686
21
-1.9825
0
LINE
8
BLACK
6
CONTINUOUS
10
2.20686
20
-1.9825
11
2.21346
21
-1.9845
0
LINE
8
BLACK
6
CONTINUOUS
10
2.21346
20
-1.9845
11
2.21954
21
-1.98775
0
LINE
8
BLACK
6
CONTINUOUS
10
2.21954
20
-1.98775
11
2.22487
21
-1.99213
0
LINE
8
BLACK
6
CONTINUOUS
10
2.22487
20
-1.99213
11
2.22925
21
-1.99746
0
LINE
8
BLACK
6
CONTINUOUS
10
2.22925
20
-1.99746
11
2.2325
21
-2.00354
0
LINE
8
BLACK
6
CONTINUOUS
10
2.2325
20
-2.00354
11
2.2325
21
-2.00354
0
LINE
8
BLACK
6
CONTINUOUS
10
2.2325
20
-2.00354
11
2.2345
21
-2.01014
0
LINE
8
BLACK
6
CONTINUOUS
10
2.2345
20
-2.01014
11
2.23501
21
-2.01528
0
LINE
8
BLACK
6
CONTINUOUS
10
2.23501
20
-2.01528
11
2.23501
21
-2.08472
0
LINE
8
BLACK
6
CONTINUOUS
10
2.23501
20
-2.08472
11
2.2345
21
-2.08986
0
LINE
8
BLACK
6
CONTINUOUS
10
2.2345
20
-2.08986
11
2.23325
21
-2.09399
0
LINE
8
BLACK
6
CONTINUOUS
10
2.23325
20
-2.09399
11
2.2325
21
-2.09646
0
LINE
8
BLACK
6
CONTINUOUS
10
2.2325
20
-2.09646
11
2.22925
21
-2.10254
0
LINE
8
BLACK
6
CONTINUOUS
10
2.22925
20
-2.10254
11
2.22487
21
-2.10787
0
LINE
8
BLACK
6
CONTINUOUS
10
2.22487
20
-2.10787
11
2.21954
21
-2.11225
0
LINE
8
BLACK
6
CONTINUOUS
10
2.21954
20
-2.11225
11
2.21346
21
-2.1155
0
LINE
8
BLACK
6
CONTINUOUS
10
2.21346
20
-2.1155
11
2.21346
21
-2.1155
0
LINE
8
BLACK
6
CONTINUOUS
10
2.21346
20
-2.1155
11
2.20686
21
-2.1175
0
LINE
8
BLACK
6
CONTINUOUS
10
2.20686
20
-2.1175
11
2.2
21
-2.11818
0
LINE
8
BLACK
6
CONTINUOUS
10
2.2
20
-2.11818
11
2.19314
21
-2.1175
0
LINE
8
BLACK
6
CONTINUOUS
10
2.19314
20
-2.1175
11
2.18654
21
-2.1155
0
LINE
8
BLACK
6
CONTINUOUS
10
2.18654
20
-2.1155
11
2.18654
21
-2.1155
0
LINE
8
BLACK
6
CONTINUOUS
10
2.18654
20
-2.1155
11
2.18046
21
-2.11225
0
LINE
8
BLACK
6
CONTINUOUS
10
2.18046
20
-2.11225
11
2.17513
21
-2.10787
0
LINE
8
BLACK
6
CONTINUOUS
10
2.17513
20
-2.10787
11
2.17075
21
-2.10254
0
LINE
8
BLACK
6
CONTINUOUS
10
2.17075
20
-2.10254
11
2.1675
21
-2.09646
0
LINE
8
BLACK
6
CONTINUOUS
10
2.1675
20
-2.09646
11
2.16675
21
-2.09399
0
LINE
8
BLACK
6
CONTINUOUS
10
2.16675
20
-2.09399
11
2.1655
21
-2.08986
0
LINE
8
BLACK
6
CONTINUOUS
10
2.1655
20
-2.08986
11
2.16499
21
-2.08472
0
LINE
8
BLACK
6
CONTINUOUS
10
2.16499
20
-2.08472
11
2.16499
21
-2.01528
0
LINE
8
BLACK
6
CONTINUOUS
10
2.16499
20
-2.01528
11
2.1655
21
-2.01014
0
LINE
8
BLACK
6
CONTINUOUS
10
2.1655
20
-2.01014
11
2.1675
21
-2.00354
0
LINE
8
BLACK
6
CONTINUOUS
10
2.1675
20
-2.00354
11
2.17075
21
-1.99746
0
LINE
8
BLACK
6
CONTINUOUS
10
2.17075
20
-1.99746
11
2.17075
21
-1.99746
0
LINE
8
BLACK
6
CONTINUOUS
10
2.17075
20
-1.99746
11
2.17513
21
-1.99213
0
LINE
8
BLACK
6
CONTINUOUS
10
2.17513
20
-1.99213
11
2.18046
21
-1.98775
0
LINE
8
BLACK
6
CONTINUOUS
10
2.18046
20
-1.98775
11
2.18654
21
-1.9845
0
LINE
8
BLACK
6
CONTINUOUS
10
2.18654
20
-1.9845
11
2.18654
21
-1.9845
0
LINE
8
BLACK
6
CONTINUOUS
10
2.18654
20
-1.9845
11
2.19314
21
-1.9825
0
LINE
8
BLACK
6
CONTINUOUS
10
2.19314
20
-1.9825
11
2.2
21
-1.98182
0
LINE
8
BLACK
6
CONTINUOUS
10
2.2
20
-1.98182
11
2.20686
21
-1.9825
0
LINE
8
BLACK
6
CONTINUOUS
10
2.81106
20
-1.96106
11
2.68894
21
-1.96106
0
LINE
8
BLACK
6
CONTINUOUS
10
2.68894
20
-1.96106
11
2.68894
21
-1.83894
0
LINE
8
BLACK
6
CONTINUOUS
10
2.68894
20
-1.83894
11
2.81106
21
-1.83894
0
LINE
8
BLACK
6
CONTINUOUS
10
2.81106
20
-1.83894
11
2.81106
21
-1.96106
0
LINE
8
BLACK
6
CONTINUOUS
10
2.31523
20
-1.29471
11
2.31955
21
-1.29557
0
LINE
8
BLACK
6
CONTINUOUS
10
2.31955
20
-1.29557
11
2.33174
21
-1.30062
0
LINE
8
BLACK
6
CONTINUOUS
10
2.33174
20
-1.30062
11
2.34272
21
-1.30795
0
LINE
8
BLACK
6
CONTINUOUS
10
2.34272
20
-1.30795
11
2.35205
21
-1.31728
0
LINE
8
BLACK
6
CONTINUOUS
10
2.35205
20
-1.31728
11
2.35938
21
-1.32826
0
LINE
8
BLACK
6
CONTINUOUS
10
2.35938
20
-1.32826
11
2.36443
21
-1.34045
0
LINE
8
BLACK
6
CONTINUOUS
10
2.36443
20
-1.34045
11
2.36701
21
-1.3534
0
LINE
8
BLACK
6
CONTINUOUS
10
2.36701
20
-1.3534
11
2.36701
21
-1.3666
0
LINE
8
BLACK
6
CONTINUOUS
10
2.36701
20
-1.3666
11
2.36443
21
-1.37955
0
LINE
8
BLACK
6
CONTINUOUS
10
2.36443
20
-1.37955
11
2.35938
21
-1.39174
0
LINE
8
BLACK
6
CONTINUOUS
10
2.35938
20
-1.39174
11
2.35205
21
-1.40272
0
LINE
8
BLACK
6
CONTINUOUS
10
2.35205
20
-1.40272
11
2.34272
21
-1.41205
0
LINE
8
BLACK
6
CONTINUOUS
10
2.34272
20
-1.41205
11
2.33174
21
-1.41938
0
LINE
8
BLACK
6
CONTINUOUS
10
2.33174
20
-1.41938
11
2.31955
21
-1.42443
0
LINE
8
BLACK
6
CONTINUOUS
10
2.31955
20
-1.42443
11
2.31523
21
-1.42529
0
LINE
8
BLACK
6
CONTINUOUS
10
2.31523
20
-1.42529
11
2.3066
21
-1.42701
0
LINE
8
BLACK
6
CONTINUOUS
10
2.3066
20
-1.42701
11
2.2934
21
-1.42701
0
LINE
8
BLACK
6
CONTINUOUS
10
2.2934
20
-1.42701
11
2.28477
21
-1.42529
0
LINE
8
BLACK
6
CONTINUOUS
10
2.28477
20
-1.42529
11
2.28045
21
-1.42443
0
LINE
8
BLACK
6
CONTINUOUS
10
2.28045
20
-1.42443
11
2.26826
21
-1.41938
0
LINE
8
BLACK
6
CONTINUOUS
10
2.26826
20
-1.41938
11
2.25728
21
-1.41205
0
LINE
8
BLACK
6
CONTINUOUS
10
2.25728
20
-1.41205
11
2.24795
21
-1.40272
0
LINE
8
BLACK
6
CONTINUOUS
10
2.24795
20
-1.40272
11
2.24062
21
-1.39174
0
LINE
8
BLACK
6
CONTINUOUS
10
2.24062
20
-1.39174
11
2.23557
21
-1.37955
0
LINE
8
BLACK
6
CONTINUOUS
10
2.23557
20
-1.37955
11
2.23299
21
-1.3666
0
LINE
8
BLACK
6
CONTINUOUS
10
2.23299
20
-1.3666
11
2.23299
21
-1.3534
0
LINE
8
BLACK
6
CONTINUOUS
10
2.23299
20
-1.3534
11
2.23557
21
-1.34045
0
LINE
8
BLACK
6
CONTINUOUS
10
2.23557
20
-1.34045
11
2.24062
21
-1.32826
0
LINE
8
BLACK
6
CONTINUOUS
10
2.24062
20
-1.32826
11
2.24795
21
-1.31728
0
LINE
8
BLACK
6
CONTINUOUS
10
2.24795
20
-1.31728
11
2.25728
21
-1.30795
0
LINE
8
BLACK
6
CONTINUOUS
10
2.25728
20
-1.30795
11
2.26826
21
-1.30062
0
LINE
8
BLACK
6
CONTINUOUS
10
2.26826
20
-1.30062
11
2.28045
21
-1.29557
0
LINE
8
BLACK
6
CONTINUOUS
10
2.28045
20
-1.29557
11
2.28477
21
-1.29471
0
LINE
8
BLACK
6
CONTINUOUS
10
2.28477
20
-1.29471
11
2.2934
21
-1.29299
0
LINE
8
BLACK
6
CONTINUOUS
10
2.2934
20
-1.29299
11
2.3066
21
-1.29299
0
LINE
8
BLACK
6
CONTINUOUS
10
2.3066
20
-1.29299
11
2.31523
21
-1.29471
  0
ENDSEC
  0
EOF
