  0
SECTION
  2
HEADER
  9
$ANGBASE
  50
0.0
  9
$ANGDIR
  70
1
  9
$MEASUREMENT
  70
0
  0
ENDSEC
  0
SECTION
  2
TABLES
  0
TABLE
  2
LTYPE
  70
4
  0
LTYPE
  5
40F
  2
CONTINUOUS
  70
0
  3
Solid line
  72
65
  73
0
  40
0.0
  0
LTYPE
  5
410
  2
DASHDOT
 70
0
  3
Dash Dot ____ _ ____ _
 72
65
 73
4
 40
2.0
 49
1.25
 49
-0.25
 49
0.25
 49
-0.25
  0
LTYPE
  5
411
  2
DASHED
 70
0
  3
Dashed __ __ __ __ __
 72
65
 73
2
 40
0.75
 49
0.5
 49
-0.25
  0
LTYPE
  5
43B
  2
DOTTED
 70
0
  3
Dotted .  .  .  .
 72
65
 73
2
 40
0.2
 49
0.0
 49
-0.2
  0
ENDTAB
  0
TABLE
  2
STYLE
  70
4
  0
STYLE
  2
KICAD
  70
0
  40
0
  41
1
  42
1
  50
0
  71
0
  3
isocp.shx
  0
STYLE
  2
KICADB
  70
0
  40
0
  41
1
  42
1
  50
0
  71
0
  3
isocp.shx
  0
STYLE
  2
KICADI
  70
0
  40
0
  41
1
  42
1
  50
15
  71
0
  3
isocp.shx
  0
STYLE
  2
KICADBI
  70
0
  40
0
  41
1
  42
1
  50
15
  71
0
  3
isocp.shx
  0
ENDTAB
  0
TABLE
  2
LAYER
  70
1
  0
LAYER
  2
BLACK
  70
0
  62
7
  6
CONTINUOUS
  0
ENDTAB
  0
ENDSEC
  0
SECTION
  2
ENTITIES
0
LINE
8
BLACK
6
CONTINUOUS
10
2.76723
20
-2.44321
11
2.77797
21
-2.44767
0
LINE
8
BLACK
6
CONTINUOUS
10
2.77797
20
-2.44767
11
2.78765
21
-2.45413
0
LINE
8
BLACK
6
CONTINUOUS
10
2.78765
20
-2.45413
11
2.79587
21
-2.46235
0
LINE
8
BLACK
6
CONTINUOUS
10
2.79587
20
-2.46235
11
2.80233
21
-2.47203
0
LINE
8
BLACK
6
CONTINUOUS
10
2.80233
20
-2.47203
11
2.80679
21
-2.48277
0
LINE
8
BLACK
6
CONTINUOUS
10
2.80679
20
-2.48277
11
2.80906
21
-2.49418
0
LINE
8
BLACK
6
CONTINUOUS
10
2.80906
20
-2.49418
11
2.80906
21
-2.50582
0
LINE
8
BLACK
6
CONTINUOUS
10
2.80906
20
-2.50582
11
2.80679
21
-2.51723
0
LINE
8
BLACK
6
CONTINUOUS
10
2.80679
20
-2.51723
11
2.80233
21
-2.52797
0
LINE
8
BLACK
6
CONTINUOUS
10
2.80233
20
-2.52797
11
2.79587
21
-2.53765
0
LINE
8
BLACK
6
CONTINUOUS
10
2.79587
20
-2.53765
11
2.78765
21
-2.54587
0
LINE
8
BLACK
6
CONTINUOUS
10
2.78765
20
-2.54587
11
2.77797
21
-2.55233
0
LINE
8
BLACK
6
CONTINUOUS
10
2.77797
20
-2.55233
11
2.76723
21
-2.55679
0
LINE
8
BLACK
6
CONTINUOUS
10
2.76723
20
-2.55679
11
2.75582
21
-2.55906
0
LINE
8
BLACK
6
CONTINUOUS
10
2.75582
20
-2.55906
11
2.74418
21
-2.55906
0
LINE
8
BLACK
6
CONTINUOUS
10
2.74418
20
-2.55906
11
2.73277
21
-2.55679
0
LINE
8
BLACK
6
CONTINUOUS
10
2.73277
20
-2.55679
11
2.72203
21
-2.55233
0
LINE
8
BLACK
6
CONTINUOUS
10
2.72203
20
-2.55233
11
2.71235
21
-2.54587
0
LINE
8
BLACK
6
CONTINUOUS
10
2.71235
20
-2.54587
11
2.70413
21
-2.53765
0
LINE
8
BLACK
6
CONTINUOUS
10
2.70413
20
-2.53765
11
2.69767
21
-2.52797
0
LINE
8
BLACK
6
CONTINUOUS
10
2.69767
20
-2.52797
11
2.69321
21
-2.51723
0
LINE
8
BLACK
6
CONTINUOUS
10
2.69321
20
-2.51723
11
2.69094
21
-2.50582
0
LINE
8
BLACK
6
CONTINUOUS
10
2.69094
20
-2.50582
11
2.69094
21
-2.49418
0
LINE
8
BLACK
6
CONTINUOUS
10
2.69094
20
-2.49418
11
2.69321
21
-2.48277
0
LINE
8
BLACK
6
CONTINUOUS
10
2.69321
20
-2.48277
11
2.69767
21
-2.47203
0
LINE
8
BLACK
6
CONTINUOUS
10
2.69767
20
-2.47203
11
2.70413
21
-2.46235
0
LINE
8
BLACK
6
CONTINUOUS
10
2.70413
20
-2.46235
11
2.71235
21
-2.45413
0
LINE
8
BLACK
6
CONTINUOUS
10
2.71235
20
-2.45413
11
2.72203
21
-2.44767
0
LINE
8
BLACK
6
CONTINUOUS
10
2.72203
20
-2.44767
11
2.73277
21
-2.44321
0
LINE
8
BLACK
6
CONTINUOUS
10
2.73277
20
-2.44321
11
2.74418
21
-2.44094
0
LINE
8
BLACK
6
CONTINUOUS
10
2.74418
20
-2.44094
11
2.75582
21
-2.44094
0
LINE
8
BLACK
6
CONTINUOUS
10
2.75582
20
-2.44094
11
2.76723
21
-2.44321
0
LINE
8
BLACK
6
CONTINUOUS
10
2.21034
20
-2.31435
11
2.21678
21
-2.31702
0
LINE
8
BLACK
6
CONTINUOUS
10
2.21678
20
-2.31702
11
2.22259
21
-2.3209
0
LINE
8
BLACK
6
CONTINUOUS
10
2.22259
20
-2.3209
11
2.22752
21
-2.32584
0
LINE
8
BLACK
6
CONTINUOUS
10
2.22752
20
-2.32584
11
2.2314
21
-2.33164
0
LINE
8
BLACK
6
CONTINUOUS
10
2.2314
20
-2.33164
11
2.23407
21
-2.33809
0
LINE
8
BLACK
6
CONTINUOUS
10
2.23407
20
-2.33809
11
2.23543
21
-2.34494
0
LINE
8
BLACK
6
CONTINUOUS
10
2.23543
20
-2.34494
11
2.23543
21
-2.35192
0
LINE
8
BLACK
6
CONTINUOUS
10
2.23543
20
-2.35192
11
2.23407
21
-2.35876
0
LINE
8
BLACK
6
CONTINUOUS
10
2.23407
20
-2.35876
11
2.2314
21
-2.36521
0
LINE
8
BLACK
6
CONTINUOUS
10
2.2314
20
-2.36521
11
2.22752
21
-2.37101
0
LINE
8
BLACK
6
CONTINUOUS
10
2.22752
20
-2.37101
11
2.22259
21
-2.37595
0
LINE
8
BLACK
6
CONTINUOUS
10
2.22259
20
-2.37595
11
2.21678
21
-2.37983
0
LINE
8
BLACK
6
CONTINUOUS
10
2.21678
20
-2.37983
11
2.21034
21
-2.3825
0
LINE
8
BLACK
6
CONTINUOUS
10
2.21034
20
-2.3825
11
2.20349
21
-2.38386
0
LINE
8
BLACK
6
CONTINUOUS
10
2.20349
20
-2.38386
11
2.19651
21
-2.38386
0
LINE
8
BLACK
6
CONTINUOUS
10
2.19651
20
-2.38386
11
2.18966
21
-2.3825
0
LINE
8
BLACK
6
CONTINUOUS
10
2.18966
20
-2.3825
11
2.18322
21
-2.37983
0
LINE
8
BLACK
6
CONTINUOUS
10
2.18322
20
-2.37983
11
2.17741
21
-2.37595
0
LINE
8
BLACK
6
CONTINUOUS
10
2.17741
20
-2.37595
11
2.17248
21
-2.37101
0
LINE
8
BLACK
6
CONTINUOUS
10
2.17248
20
-2.37101
11
2.1686
21
-2.36521
0
LINE
8
BLACK
6
CONTINUOUS
10
2.1686
20
-2.36521
11
2.16593
21
-2.35876
0
LINE
8
BLACK
6
CONTINUOUS
10
2.16593
20
-2.35876
11
2.16457
21
-2.35192
0
LINE
8
BLACK
6
CONTINUOUS
10
2.16457
20
-2.35192
11
2.16457
21
-2.34494
0
LINE
8
BLACK
6
CONTINUOUS
10
2.16457
20
-2.34494
11
2.16593
21
-2.33809
0
LINE
8
BLACK
6
CONTINUOUS
10
2.16593
20
-2.33809
11
2.1686
21
-2.33164
0
LINE
8
BLACK
6
CONTINUOUS
10
2.1686
20
-2.33164
11
2.17248
21
-2.32584
0
LINE
8
BLACK
6
CONTINUOUS
10
2.17248
20
-2.32584
11
2.17741
21
-2.3209
0
LINE
8
BLACK
6
CONTINUOUS
10
2.17741
20
-2.3209
11
2.18322
21
-2.31702
0
LINE
8
BLACK
6
CONTINUOUS
10
2.18322
20
-2.31702
11
2.18966
21
-2.31435
0
LINE
8
BLACK
6
CONTINUOUS
10
2.18966
20
-2.31435
11
2.19651
21
-2.31299
0
LINE
8
BLACK
6
CONTINUOUS
10
2.19651
20
-2.31299
11
2.20349
21
-2.31299
0
LINE
8
BLACK
6
CONTINUOUS
10
2.20349
20
-2.31299
11
2.21034
21
-2.31435
0
LINE
8
BLACK
6
CONTINUOUS
10
2.41034
20
-2.31435
11
2.41678
21
-2.31702
0
LINE
8
BLACK
6
CONTINUOUS
10
2.41678
20
-2.31702
11
2.42259
21
-2.3209
0
LINE
8
BLACK
6
CONTINUOUS
10
2.42259
20
-2.3209
11
2.42752
21
-2.32584
0
LINE
8
BLACK
6
CONTINUOUS
10
2.42752
20
-2.32584
11
2.4314
21
-2.33164
0
LINE
8
BLACK
6
CONTINUOUS
10
2.4314
20
-2.33164
11
2.43407
21
-2.33809
0
LINE
8
BLACK
6
CONTINUOUS
10
2.43407
20
-2.33809
11
2.43543
21
-2.34494
0
LINE
8
BLACK
6
CONTINUOUS
10
2.43543
20
-2.34494
11
2.43543
21
-2.35192
0
LINE
8
BLACK
6
CONTINUOUS
10
2.43543
20
-2.35192
11
2.43407
21
-2.35876
0
LINE
8
BLACK
6
CONTINUOUS
10
2.43407
20
-2.35876
11
2.4314
21
-2.36521
0
LINE
8
BLACK
6
CONTINUOUS
10
2.4314
20
-2.36521
11
2.42752
21
-2.37101
0
LINE
8
BLACK
6
CONTINUOUS
10
2.42752
20
-2.37101
11
2.42259
21
-2.37595
0
LINE
8
BLACK
6
CONTINUOUS
10
2.42259
20
-2.37595
11
2.41678
21
-2.37983
0
LINE
8
BLACK
6
CONTINUOUS
10
2.41678
20
-2.37983
11
2.41034
21
-2.3825
0
LINE
8
BLACK
6
CONTINUOUS
10
2.41034
20
-2.3825
11
2.40349
21
-2.38386
0
LINE
8
BLACK
6
CONTINUOUS
10
2.40349
20
-2.38386
11
2.39651
21
-2.38386
0
LINE
8
BLACK
6
CONTINUOUS
10
2.39651
20
-2.38386
11
2.38966
21
-2.3825
0
LINE
8
BLACK
6
CONTINUOUS
10
2.38966
20
-2.3825
11
2.38322
21
-2.37983
0
LINE
8
BLACK
6
CONTINUOUS
10
2.38322
20
-2.37983
11
2.37741
21
-2.37595
0
LINE
8
BLACK
6
CONTINUOUS
10
2.37741
20
-2.37595
11
2.37248
21
-2.37101
0
LINE
8
BLACK
6
CONTINUOUS
10
2.37248
20
-2.37101
11
2.3686
21
-2.36521
0
LINE
8
BLACK
6
CONTINUOUS
10
2.3686
20
-2.36521
11
2.36593
21
-2.35876
0
LINE
8
BLACK
6
CONTINUOUS
10
2.36593
20
-2.35876
11
2.36457
21
-2.35192
0
LINE
8
BLACK
6
CONTINUOUS
10
2.36457
20
-2.35192
11
2.36457
21
-2.34494
0
LINE
8
BLACK
6
CONTINUOUS
10
2.36457
20
-2.34494
11
2.36593
21
-2.33809
0
LINE
8
BLACK
6
CONTINUOUS
10
2.36593
20
-2.33809
11
2.3686
21
-2.33164
0
LINE
8
BLACK
6
CONTINUOUS
10
2.3686
20
-2.33164
11
2.37248
21
-2.32584
0
LINE
8
BLACK
6
CONTINUOUS
10
2.37248
20
-2.32584
11
2.37741
21
-2.3209
0
LINE
8
BLACK
6
CONTINUOUS
10
2.37741
20
-2.3209
11
2.38322
21
-2.31702
0
LINE
8
BLACK
6
CONTINUOUS
10
2.38322
20
-2.31702
11
2.38966
21
-2.31435
0
LINE
8
BLACK
6
CONTINUOUS
10
2.38966
20
-2.31435
11
2.39651
21
-2.31299
0
LINE
8
BLACK
6
CONTINUOUS
10
2.39651
20
-2.31299
11
2.40349
21
-2.31299
0
LINE
8
BLACK
6
CONTINUOUS
10
2.40349
20
-2.31299
11
2.41034
21
-2.31435
0
LINE
8
BLACK
6
CONTINUOUS
10
2.00906
20
-2.35906
11
1.89094
21
-2.35906
0
LINE
8
BLACK
6
CONTINUOUS
10
1.89094
20
-2.35906
11
1.89094
21
-2.24094
0
LINE
8
BLACK
6
CONTINUOUS
10
1.89094
20
-2.24094
11
2.00906
21
-2.24094
0
LINE
8
BLACK
6
CONTINUOUS
10
2.00906
20
-2.24094
11
2.00906
21
-2.35906
0
LINE
8
BLACK
6
CONTINUOUS
10
2.76723
20
-2.24321
11
2.77797
21
-2.24767
0
LINE
8
BLACK
6
CONTINUOUS
10
2.77797
20
-2.24767
11
2.78765
21
-2.25413
0
LINE
8
BLACK
6
CONTINUOUS
10
2.78765
20
-2.25413
11
2.79587
21
-2.26235
0
LINE
8
BLACK
6
CONTINUOUS
10
2.79587
20
-2.26235
11
2.80233
21
-2.27203
0
LINE
8
BLACK
6
CONTINUOUS
10
2.80233
20
-2.27203
11
2.80679
21
-2.28277
0
LINE
8
BLACK
6
CONTINUOUS
10
2.80679
20
-2.28277
11
2.80906
21
-2.29418
0
LINE
8
BLACK
6
CONTINUOUS
10
2.80906
20
-2.29418
11
2.80906
21
-2.30582
0
LINE
8
BLACK
6
CONTINUOUS
10
2.80906
20
-2.30582
11
2.80679
21
-2.31723
0
LINE
8
BLACK
6
CONTINUOUS
10
2.80679
20
-2.31723
11
2.80233
21
-2.32797
0
LINE
8
BLACK
6
CONTINUOUS
10
2.80233
20
-2.32797
11
2.79587
21
-2.33765
0
LINE
8
BLACK
6
CONTINUOUS
10
2.79587
20
-2.33765
11
2.78765
21
-2.34587
0
LINE
8
BLACK
6
CONTINUOUS
10
2.78765
20
-2.34587
11
2.77797
21
-2.35233
0
LINE
8
BLACK
6
CONTINUOUS
10
2.77797
20
-2.35233
11
2.76723
21
-2.35679
0
LINE
8
BLACK
6
CONTINUOUS
10
2.76723
20
-2.35679
11
2.75582
21
-2.35906
0
LINE
8
BLACK
6
CONTINUOUS
10
2.75582
20
-2.35906
11
2.74418
21
-2.35906
0
LINE
8
BLACK
6
CONTINUOUS
10
2.74418
20
-2.35906
11
2.73277
21
-2.35679
0
LINE
8
BLACK
6
CONTINUOUS
10
2.73277
20
-2.35679
11
2.72203
21
-2.35233
0
LINE
8
BLACK
6
CONTINUOUS
10
2.72203
20
-2.35233
11
2.71235
21
-2.34587
0
LINE
8
BLACK
6
CONTINUOUS
10
2.71235
20
-2.34587
11
2.70413
21
-2.33765
0
LINE
8
BLACK
6
CONTINUOUS
10
2.70413
20
-2.33765
11
2.69767
21
-2.32797
0
LINE
8
BLACK
6
CONTINUOUS
10
2.69767
20
-2.32797
11
2.69321
21
-2.31723
0
LINE
8
BLACK
6
CONTINUOUS
10
2.69321
20
-2.31723
11
2.69094
21
-2.30582
0
LINE
8
BLACK
6
CONTINUOUS
10
2.69094
20
-2.30582
11
2.69094
21
-2.29418
0
LINE
8
BLACK
6
CONTINUOUS
10
2.69094
20
-2.29418
11
2.69321
21
-2.28277
0
LINE
8
BLACK
6
CONTINUOUS
10
2.69321
20
-2.28277
11
2.69767
21
-2.27203
0
LINE
8
BLACK
6
CONTINUOUS
10
2.69767
20
-2.27203
11
2.70413
21
-2.26235
0
LINE
8
BLACK
6
CONTINUOUS
10
2.70413
20
-2.26235
11
2.71235
21
-2.25413
0
LINE
8
BLACK
6
CONTINUOUS
10
2.71235
20
-2.25413
11
2.72203
21
-2.24767
0
LINE
8
BLACK
6
CONTINUOUS
10
2.72203
20
-2.24767
11
2.73277
21
-2.24321
0
LINE
8
BLACK
6
CONTINUOUS
10
2.73277
20
-2.24321
11
2.74418
21
-2.24094
0
LINE
8
BLACK
6
CONTINUOUS
10
2.74418
20
-2.24094
11
2.75582
21
-2.24094
0
LINE
8
BLACK
6
CONTINUOUS
10
2.75582
20
-2.24094
11
2.76723
21
-2.24321
0
LINE
8
BLACK
6
CONTINUOUS
10
2.21034
20
-2.21593
11
2.21678
21
-2.2186
0
LINE
8
BLACK
6
CONTINUOUS
10
2.21678
20
-2.2186
11
2.22259
21
-2.22248
0
LINE
8
BLACK
6
CONTINUOUS
10
2.22259
20
-2.22248
11
2.22752
21
-2.22741
0
LINE
8
BLACK
6
CONTINUOUS
10
2.22752
20
-2.22741
11
2.2314
21
-2.23322
0
LINE
8
BLACK
6
CONTINUOUS
10
2.2314
20
-2.23322
11
2.23407
21
-2.23966
0
LINE
8
BLACK
6
CONTINUOUS
10
2.23407
20
-2.23966
11
2.23543
21
-2.24651
0
LINE
8
BLACK
6
CONTINUOUS
10
2.23543
20
-2.24651
11
2.23543
21
-2.25349
0
LINE
8
BLACK
6
CONTINUOUS
10
2.23543
20
-2.25349
11
2.23407
21
-2.26034
0
LINE
8
BLACK
6
CONTINUOUS
10
2.23407
20
-2.26034
11
2.2314
21
-2.26678
0
LINE
8
BLACK
6
CONTINUOUS
10
2.2314
20
-2.26678
11
2.22752
21
-2.27259
0
LINE
8
BLACK
6
CONTINUOUS
10
2.22752
20
-2.27259
11
2.22259
21
-2.27752
0
LINE
8
BLACK
6
CONTINUOUS
10
2.22259
20
-2.27752
11
2.21678
21
-2.2814
0
LINE
8
BLACK
6
CONTINUOUS
10
2.21678
20
-2.2814
11
2.21034
21
-2.28407
0
LINE
8
BLACK
6
CONTINUOUS
10
2.21034
20
-2.28407
11
2.20349
21
-2.28543
0
LINE
8
BLACK
6
CONTINUOUS
10
2.20349
20
-2.28543
11
2.19651
21
-2.28543
0
LINE
8
BLACK
6
CONTINUOUS
10
2.19651
20
-2.28543
11
2.18966
21
-2.28407
0
LINE
8
BLACK
6
CONTINUOUS
10
2.18966
20
-2.28407
11
2.18322
21
-2.2814
0
LINE
8
BLACK
6
CONTINUOUS
10
2.18322
20
-2.2814
11
2.17741
21
-2.27752
0
LINE
8
BLACK
6
CONTINUOUS
10
2.17741
20
-2.27752
11
2.17248
21
-2.27259
0
LINE
8
BLACK
6
CONTINUOUS
10
2.17248
20
-2.27259
11
2.1686
21
-2.26678
0
LINE
8
BLACK
6
CONTINUOUS
10
2.1686
20
-2.26678
11
2.16593
21
-2.26034
0
LINE
8
BLACK
6
CONTINUOUS
10
2.16593
20
-2.26034
11
2.16457
21
-2.25349
0
LINE
8
BLACK
6
CONTINUOUS
10
2.16457
20
-2.25349
11
2.16457
21
-2.24651
0
LINE
8
BLACK
6
CONTINUOUS
10
2.16457
20
-2.24651
11
2.16593
21
-2.23966
0
LINE
8
BLACK
6
CONTINUOUS
10
2.16593
20
-2.23966
11
2.1686
21
-2.23322
0
LINE
8
BLACK
6
CONTINUOUS
10
2.1686
20
-2.23322
11
2.17248
21
-2.22741
0
LINE
8
BLACK
6
CONTINUOUS
10
2.17248
20
-2.22741
11
2.17741
21
-2.22248
0
LINE
8
BLACK
6
CONTINUOUS
10
2.17741
20
-2.22248
11
2.18322
21
-2.2186
0
LINE
8
BLACK
6
CONTINUOUS
10
2.18322
20
-2.2186
11
2.18966
21
-2.21593
0
LINE
8
BLACK
6
CONTINUOUS
10
2.18966
20
-2.21593
11
2.19651
21
-2.21457
0
LINE
8
BLACK
6
CONTINUOUS
10
2.19651
20
-2.21457
11
2.20349
21
-2.21457
0
LINE
8
BLACK
6
CONTINUOUS
10
2.20349
20
-2.21457
11
2.21034
21
-2.21593
0
LINE
8
BLACK
6
CONTINUOUS
10
2.41034
20
-2.21593
11
2.41678
21
-2.2186
0
LINE
8
BLACK
6
CONTINUOUS
10
2.41678
20
-2.2186
11
2.42259
21
-2.22248
0
LINE
8
BLACK
6
CONTINUOUS
10
2.42259
20
-2.22248
11
2.42752
21
-2.22741
0
LINE
8
BLACK
6
CONTINUOUS
10
2.42752
20
-2.22741
11
2.4314
21
-2.23322
0
LINE
8
BLACK
6
CONTINUOUS
10
2.4314
20
-2.23322
11
2.43407
21
-2.23966
0
LINE
8
BLACK
6
CONTINUOUS
10
2.43407
20
-2.23966
11
2.43543
21
-2.24651
0
LINE
8
BLACK
6
CONTINUOUS
10
2.43543
20
-2.24651
11
2.43543
21
-2.25349
0
LINE
8
BLACK
6
CONTINUOUS
10
2.43543
20
-2.25349
11
2.43407
21
-2.26034
0
LINE
8
BLACK
6
CONTINUOUS
10
2.43407
20
-2.26034
11
2.4314
21
-2.26678
0
LINE
8
BLACK
6
CONTINUOUS
10
2.4314
20
-2.26678
11
2.42752
21
-2.27259
0
LINE
8
BLACK
6
CONTINUOUS
10
2.42752
20
-2.27259
11
2.42259
21
-2.27752
0
LINE
8
BLACK
6
CONTINUOUS
10
2.42259
20
-2.27752
11
2.41678
21
-2.2814
0
LINE
8
BLACK
6
CONTINUOUS
10
2.41678
20
-2.2814
11
2.41034
21
-2.28407
0
LINE
8
BLACK
6
CONTINUOUS
10
2.41034
20
-2.28407
11
2.40349
21
-2.28543
0
LINE
8
BLACK
6
CONTINUOUS
10
2.40349
20
-2.28543
11
2.39651
21
-2.28543
0
LINE
8
BLACK
6
CONTINUOUS
10
2.39651
20
-2.28543
11
2.38966
21
-2.28407
0
LINE
8
BLACK
6
CONTINUOUS
10
2.38966
20
-2.28407
11
2.38322
21
-2.2814
0
LINE
8
BLACK
6
CONTINUOUS
10
2.38322
20
-2.2814
11
2.37741
21
-2.27752
0
LINE
8
BLACK
6
CONTINUOUS
10
2.37741
20
-2.27752
11
2.37248
21
-2.27259
0
LINE
8
BLACK
6
CONTINUOUS
10
2.37248
20
-2.27259
11
2.3686
21
-2.26678
0
LINE
8
BLACK
6
CONTINUOUS
10
2.3686
20
-2.26678
11
2.36593
21
-2.26034
0
LINE
8
BLACK
6
CONTINUOUS
10
2.36593
20
-2.26034
11
2.36457
21
-2.25349
0
LINE
8
BLACK
6
CONTINUOUS
10
2.36457
20
-2.25349
11
2.36457
21
-2.24651
0
LINE
8
BLACK
6
CONTINUOUS
10
2.36457
20
-2.24651
11
2.36593
21
-2.23966
0
LINE
8
BLACK
6
CONTINUOUS
10
2.36593
20
-2.23966
11
2.3686
21
-2.23322
0
LINE
8
BLACK
6
CONTINUOUS
10
2.3686
20
-2.23322
11
2.37248
21
-2.22741
0
LINE
8
BLACK
6
CONTINUOUS
10
2.37248
20
-2.22741
11
2.37741
21
-2.22248
0
LINE
8
BLACK
6
CONTINUOUS
10
2.37741
20
-2.22248
11
2.38322
21
-2.2186
0
LINE
8
BLACK
6
CONTINUOUS
10
2.38322
20
-2.2186
11
2.38966
21
-2.21593
0
LINE
8
BLACK
6
CONTINUOUS
10
2.38966
20
-2.21593
11
2.39651
21
-2.21457
0
LINE
8
BLACK
6
CONTINUOUS
10
2.39651
20
-2.21457
11
2.40349
21
-2.21457
0
LINE
8
BLACK
6
CONTINUOUS
10
2.40349
20
-2.21457
11
2.41034
21
-2.21593
0
LINE
8
BLACK
6
CONTINUOUS
10
1.96723
20
-2.04321
11
1.97797
21
-2.04767
0
LINE
8
BLACK
6
CONTINUOUS
10
1.97797
20
-2.04767
11
1.98765
21
-2.05413
0
LINE
8
BLACK
6
CONTINUOUS
10
1.98765
20
-2.05413
11
1.99587
21
-2.06235
0
LINE
8
BLACK
6
CONTINUOUS
10
1.99587
20
-2.06235
11
2.00233
21
-2.07203
0
LINE
8
BLACK
6
CONTINUOUS
10
2.00233
20
-2.07203
11
2.00679
21
-2.08277
0
LINE
8
BLACK
6
CONTINUOUS
10
2.00679
20
-2.08277
11
2.00906
21
-2.09418
0
LINE
8
BLACK
6
CONTINUOUS
10
2.00906
20
-2.09418
11
2.00906
21
-2.10582
0
LINE
8
BLACK
6
CONTINUOUS
10
2.00906
20
-2.10582
11
2.00679
21
-2.11723
0
LINE
8
BLACK
6
CONTINUOUS
10
2.00679
20
-2.11723
11
2.00233
21
-2.12797
0
LINE
8
BLACK
6
CONTINUOUS
10
2.00233
20
-2.12797
11
1.99587
21
-2.13765
0
LINE
8
BLACK
6
CONTINUOUS
10
1.99587
20
-2.13765
11
1.98765
21
-2.14587
0
LINE
8
BLACK
6
CONTINUOUS
10
1.98765
20
-2.14587
11
1.97797
21
-2.15233
0
LINE
8
BLACK
6
CONTINUOUS
10
1.97797
20
-2.15233
11
1.96723
21
-2.15679
0
LINE
8
BLACK
6
CONTINUOUS
10
1.96723
20
-2.15679
11
1.95582
21
-2.15906
0
LINE
8
BLACK
6
CONTINUOUS
10
1.95582
20
-2.15906
11
1.94418
21
-2.15906
0
LINE
8
BLACK
6
CONTINUOUS
10
1.94418
20
-2.15906
11
1.93277
21
-2.15679
0
LINE
8
BLACK
6
CONTINUOUS
10
1.93277
20
-2.15679
11
1.92203
21
-2.15233
0
LINE
8
BLACK
6
CONTINUOUS
10
1.92203
20
-2.15233
11
1.91235
21
-2.14587
0
LINE
8
BLACK
6
CONTINUOUS
10
1.91235
20
-2.14587
11
1.90413
21
-2.13765
0
LINE
8
BLACK
6
CONTINUOUS
10
1.90413
20
-2.13765
11
1.89767
21
-2.12797
0
LINE
8
BLACK
6
CONTINUOUS
10
1.89767
20
-2.12797
11
1.89321
21
-2.11723
0
LINE
8
BLACK
6
CONTINUOUS
10
1.89321
20
-2.11723
11
1.89094
21
-2.10582
0
LINE
8
BLACK
6
CONTINUOUS
10
1.89094
20
-2.10582
11
1.89094
21
-2.09418
0
LINE
8
BLACK
6
CONTINUOUS
10
1.89094
20
-2.09418
11
1.89321
21
-2.08277
0
LINE
8
BLACK
6
CONTINUOUS
10
1.89321
20
-2.08277
11
1.89767
21
-2.07203
0
LINE
8
BLACK
6
CONTINUOUS
10
1.89767
20
-2.07203
11
1.90413
21
-2.06235
0
LINE
8
BLACK
6
CONTINUOUS
10
1.90413
20
-2.06235
11
1.91235
21
-2.05413
0
LINE
8
BLACK
6
CONTINUOUS
10
1.91235
20
-2.05413
11
1.92203
21
-2.04767
0
LINE
8
BLACK
6
CONTINUOUS
10
1.92203
20
-2.04767
11
1.93277
21
-2.04321
0
LINE
8
BLACK
6
CONTINUOUS
10
1.93277
20
-2.04321
11
1.94418
21
-2.04094
0
LINE
8
BLACK
6
CONTINUOUS
10
1.94418
20
-2.04094
11
1.95582
21
-2.04094
0
LINE
8
BLACK
6
CONTINUOUS
10
1.95582
20
-2.04094
11
1.96723
21
-2.04321
0
LINE
8
BLACK
6
CONTINUOUS
10
2.76723
20
-2.04321
11
2.77797
21
-2.04767
0
LINE
8
BLACK
6
CONTINUOUS
10
2.77797
20
-2.04767
11
2.78765
21
-2.05413
0
LINE
8
BLACK
6
CONTINUOUS
10
2.78765
20
-2.05413
11
2.79587
21
-2.06235
0
LINE
8
BLACK
6
CONTINUOUS
10
2.79587
20
-2.06235
11
2.80233
21
-2.07203
0
LINE
8
BLACK
6
CONTINUOUS
10
2.80233
20
-2.07203
11
2.80679
21
-2.08277
0
LINE
8
BLACK
6
CONTINUOUS
10
2.80679
20
-2.08277
11
2.80906
21
-2.09418
0
LINE
8
BLACK
6
CONTINUOUS
10
2.80906
20
-2.09418
11
2.80906
21
-2.10582
0
LINE
8
BLACK
6
CONTINUOUS
10
2.80906
20
-2.10582
11
2.80679
21
-2.11723
0
LINE
8
BLACK
6
CONTINUOUS
10
2.80679
20
-2.11723
11
2.80233
21
-2.12797
0
LINE
8
BLACK
6
CONTINUOUS
10
2.80233
20
-2.12797
11
2.79587
21
-2.13765
0
LINE
8
BLACK
6
CONTINUOUS
10
2.79587
20
-2.13765
11
2.78765
21
-2.14587
0
LINE
8
BLACK
6
CONTINUOUS
10
2.78765
20
-2.14587
11
2.77797
21
-2.15233
0
LINE
8
BLACK
6
CONTINUOUS
10
2.77797
20
-2.15233
11
2.76723
21
-2.15679
0
LINE
8
BLACK
6
CONTINUOUS
10
2.76723
20
-2.15679
11
2.75582
21
-2.15906
0
LINE
8
BLACK
6
CONTINUOUS
10
2.75582
20
-2.15906
11
2.74418
21
-2.15906
0
LINE
8
BLACK
6
CONTINUOUS
10
2.74418
20
-2.15906
11
2.73277
21
-2.15679
0
LINE
8
BLACK
6
CONTINUOUS
10
2.73277
20
-2.15679
11
2.72203
21
-2.15233
0
LINE
8
BLACK
6
CONTINUOUS
10
2.72203
20
-2.15233
11
2.71235
21
-2.14587
0
LINE
8
BLACK
6
CONTINUOUS
10
2.71235
20
-2.14587
11
2.70413
21
-2.13765
0
LINE
8
BLACK
6
CONTINUOUS
10
2.70413
20
-2.13765
11
2.69767
21
-2.12797
0
LINE
8
BLACK
6
CONTINUOUS
10
2.69767
20
-2.12797
11
2.69321
21
-2.11723
0
LINE
8
BLACK
6
CONTINUOUS
10
2.69321
20
-2.11723
11
2.69094
21
-2.10582
0
LINE
8
BLACK
6
CONTINUOUS
10
2.69094
20
-2.10582
11
2.69094
21
-2.09418
0
LINE
8
BLACK
6
CONTINUOUS
10
2.69094
20
-2.09418
11
2.69321
21
-2.08277
0
LINE
8
BLACK
6
CONTINUOUS
10
2.69321
20
-2.08277
11
2.69767
21
-2.07203
0
LINE
8
BLACK
6
CONTINUOUS
10
2.69767
20
-2.07203
11
2.70413
21
-2.06235
0
LINE
8
BLACK
6
CONTINUOUS
10
2.70413
20
-2.06235
11
2.71235
21
-2.05413
0
LINE
8
BLACK
6
CONTINUOUS
10
2.71235
20
-2.05413
11
2.72203
21
-2.04767
0
LINE
8
BLACK
6
CONTINUOUS
10
2.72203
20
-2.04767
11
2.73277
21
-2.04321
0
LINE
8
BLACK
6
CONTINUOUS
10
2.73277
20
-2.04321
11
2.74418
21
-2.04094
0
LINE
8
BLACK
6
CONTINUOUS
10
2.74418
20
-2.04094
11
2.75582
21
-2.04094
0
LINE
8
BLACK
6
CONTINUOUS
10
2.75582
20
-2.04094
11
2.76723
21
-2.04321
0
LINE
8
BLACK
6
CONTINUOUS
10
2.20647
20
-1.98448
11
2.21269
21
-1.98636
0
LINE
8
BLACK
6
CONTINUOUS
10
2.21269
20
-1.98636
11
2.21842
21
-1.98943
0
LINE
8
BLACK
6
CONTINUOUS
10
2.21842
20
-1.98943
11
2.22345
21
-1.99355
0
LINE
8
BLACK
6
CONTINUOUS
10
2.22345
20
-1.99355
11
2.22757
21
-1.99858
0
LINE
8
BLACK
6
CONTINUOUS
10
2.22757
20
-1.99858
11
2.23064
21
-2.00431
0
LINE
8
BLACK
6
CONTINUOUS
10
2.23064
20
-2.00431
11
2.23252
21
-2.01053
0
LINE
8
BLACK
6
CONTINUOUS
10
2.23252
20
-2.01053
11
2.233
21
-2.01538
0
LINE
8
BLACK
6
CONTINUOUS
10
2.233
20
-2.01538
11
2.233
21
-2.08462
0
LINE
8
BLACK
6
CONTINUOUS
10
2.233
20
-2.08462
11
2.23252
21
-2.08947
0
LINE
8
BLACK
6
CONTINUOUS
10
2.23252
20
-2.08947
11
2.23064
21
-2.09569
0
LINE
8
BLACK
6
CONTINUOUS
10
2.23064
20
-2.09569
11
2.22757
21
-2.10142
0
LINE
8
BLACK
6
CONTINUOUS
10
2.22757
20
-2.10142
11
2.22345
21
-2.10645
0
LINE
8
BLACK
6
CONTINUOUS
10
2.22345
20
-2.10645
11
2.21842
21
-2.11057
0
LINE
8
BLACK
6
CONTINUOUS
10
2.21842
20
-2.11057
11
2.21269
21
-2.11364
0
LINE
8
BLACK
6
CONTINUOUS
10
2.21269
20
-2.11364
11
2.20647
21
-2.11552
0
LINE
8
BLACK
6
CONTINUOUS
10
2.20647
20
-2.11552
11
2.2
21
-2.11616
0
LINE
8
BLACK
6
CONTINUOUS
10
2.2
20
-2.11616
11
2.19353
21
-2.11552
0
LINE
8
BLACK
6
CONTINUOUS
10
2.19353
20
-2.11552
11
2.18731
21
-2.11364
0
LINE
8
BLACK
6
CONTINUOUS
10
2.18731
20
-2.11364
11
2.18158
21
-2.11057
0
LINE
8
BLACK
6
CONTINUOUS
10
2.18158
20
-2.11057
11
2.17655
21
-2.10645
0
LINE
8
BLACK
6
CONTINUOUS
10
2.17655
20
-2.10645
11
2.17243
21
-2.10142
0
LINE
8
BLACK
6
CONTINUOUS
10
2.17243
20
-2.10142
11
2.16936
21
-2.09569
0
LINE
8
BLACK
6
CONTINUOUS
10
2.16936
20
-2.09569
11
2.16748
21
-2.08947
0
LINE
8
BLACK
6
CONTINUOUS
10
2.16748
20
-2.08947
11
2.167
21
-2.08462
0
LINE
8
BLACK
6
CONTINUOUS
10
2.167
20
-2.08462
11
2.167
21
-2.01538
0
LINE
8
BLACK
6
CONTINUOUS
10
2.167
20
-2.01538
11
2.16748
21
-2.01053
0
LINE
8
BLACK
6
CONTINUOUS
10
2.16748
20
-2.01053
11
2.16936
21
-2.00431
0
LINE
8
BLACK
6
CONTINUOUS
10
2.16936
20
-2.00431
11
2.17243
21
-1.99858
0
LINE
8
BLACK
6
CONTINUOUS
10
2.17243
20
-1.99858
11
2.17655
21
-1.99355
0
LINE
8
BLACK
6
CONTINUOUS
10
2.17655
20
-1.99355
11
2.18158
21
-1.98943
0
LINE
8
BLACK
6
CONTINUOUS
10
2.18158
20
-1.98943
11
2.18731
21
-1.98636
0
LINE
8
BLACK
6
CONTINUOUS
10
2.18731
20
-1.98636
11
2.19353
21
-1.98448
0
LINE
8
BLACK
6
CONTINUOUS
10
2.19353
20
-1.98448
11
2.2
21
-1.98384
0
LINE
8
BLACK
6
CONTINUOUS
10
2.2
20
-1.98384
11
2.20647
21
-1.98448
0
LINE
8
BLACK
6
CONTINUOUS
10
2.30647
20
-1.98448
11
2.31269
21
-1.98636
0
LINE
8
BLACK
6
CONTINUOUS
10
2.31269
20
-1.98636
11
2.31842
21
-1.98943
0
LINE
8
BLACK
6
CONTINUOUS
10
2.31842
20
-1.98943
11
2.32345
21
-1.99355
0
LINE
8
BLACK
6
CONTINUOUS
10
2.32345
20
-1.99355
11
2.32757
21
-1.99858
0
LINE
8
BLACK
6
CONTINUOUS
10
2.32757
20
-1.99858
11
2.33064
21
-2.00431
0
LINE
8
BLACK
6
CONTINUOUS
10
2.33064
20
-2.00431
11
2.33252
21
-2.01053
0
LINE
8
BLACK
6
CONTINUOUS
10
2.33252
20
-2.01053
11
2.333
21
-2.01538
0
LINE
8
BLACK
6
CONTINUOUS
10
2.333
20
-2.01538
11
2.333
21
-2.08462
0
LINE
8
BLACK
6
CONTINUOUS
10
2.333
20
-2.08462
11
2.33252
21
-2.08947
0
LINE
8
BLACK
6
CONTINUOUS
10
2.33252
20
-2.08947
11
2.33064
21
-2.09569
0
LINE
8
BLACK
6
CONTINUOUS
10
2.33064
20
-2.09569
11
2.32757
21
-2.10142
0
LINE
8
BLACK
6
CONTINUOUS
10
2.32757
20
-2.10142
11
2.32345
21
-2.10645
0
LINE
8
BLACK
6
CONTINUOUS
10
2.32345
20
-2.10645
11
2.31842
21
-2.11057
0
LINE
8
BLACK
6
CONTINUOUS
10
2.31842
20
-2.11057
11
2.31269
21
-2.11364
0
LINE
8
BLACK
6
CONTINUOUS
10
2.31269
20
-2.11364
11
2.30647
21
-2.11552
0
LINE
8
BLACK
6
CONTINUOUS
10
2.30647
20
-2.11552
11
2.3
21
-2.11616
0
LINE
8
BLACK
6
CONTINUOUS
10
2.3
20
-2.11616
11
2.29353
21
-2.11552
0
LINE
8
BLACK
6
CONTINUOUS
10
2.29353
20
-2.11552
11
2.28731
21
-2.11364
0
LINE
8
BLACK
6
CONTINUOUS
10
2.28731
20
-2.11364
11
2.28158
21
-2.11057
0
LINE
8
BLACK
6
CONTINUOUS
10
2.28158
20
-2.11057
11
2.27655
21
-2.10645
0
LINE
8
BLACK
6
CONTINUOUS
10
2.27655
20
-2.10645
11
2.27243
21
-2.10142
0
LINE
8
BLACK
6
CONTINUOUS
10
2.27243
20
-2.10142
11
2.26936
21
-2.09569
0
LINE
8
BLACK
6
CONTINUOUS
10
2.26936
20
-2.09569
11
2.26748
21
-2.08947
0
LINE
8
BLACK
6
CONTINUOUS
10
2.26748
20
-2.08947
11
2.267
21
-2.08462
0
LINE
8
BLACK
6
CONTINUOUS
10
2.267
20
-2.08462
11
2.267
21
-2.01538
0
LINE
8
BLACK
6
CONTINUOUS
10
2.267
20
-2.01538
11
2.26748
21
-2.01053
0
LINE
8
BLACK
6
CONTINUOUS
10
2.26748
20
-2.01053
11
2.26936
21
-2.00431
0
LINE
8
BLACK
6
CONTINUOUS
10
2.26936
20
-2.00431
11
2.27243
21
-1.99858
0
LINE
8
BLACK
6
CONTINUOUS
10
2.27243
20
-1.99858
11
2.27655
21
-1.99355
0
LINE
8
BLACK
6
CONTINUOUS
10
2.27655
20
-1.99355
11
2.28158
21
-1.98943
0
LINE
8
BLACK
6
CONTINUOUS
10
2.28158
20
-1.98943
11
2.28731
21
-1.98636
0
LINE
8
BLACK
6
CONTINUOUS
10
2.28731
20
-1.98636
11
2.29353
21
-1.98448
0
LINE
8
BLACK
6
CONTINUOUS
10
2.29353
20
-1.98448
11
2.3
21
-1.98384
0
LINE
8
BLACK
6
CONTINUOUS
10
2.3
20
-1.98384
11
2.30647
21
-1.98448
0
LINE
8
BLACK
6
CONTINUOUS
10
2.40647
20
-1.98448
11
2.41269
21
-1.98636
0
LINE
8
BLACK
6
CONTINUOUS
10
2.41269
20
-1.98636
11
2.41842
21
-1.98943
0
LINE
8
BLACK
6
CONTINUOUS
10
2.41842
20
-1.98943
11
2.42345
21
-1.99355
0
LINE
8
BLACK
6
CONTINUOUS
10
2.42345
20
-1.99355
11
2.42757
21
-1.99858
0
LINE
8
BLACK
6
CONTINUOUS
10
2.42757
20
-1.99858
11
2.43064
21
-2.00431
0
LINE
8
BLACK
6
CONTINUOUS
10
2.43064
20
-2.00431
11
2.43252
21
-2.01053
0
LINE
8
BLACK
6
CONTINUOUS
10
2.43252
20
-2.01053
11
2.433
21
-2.01538
0
LINE
8
BLACK
6
CONTINUOUS
10
2.433
20
-2.01538
11
2.433
21
-2.08462
0
LINE
8
BLACK
6
CONTINUOUS
10
2.433
20
-2.08462
11
2.43252
21
-2.08947
0
LINE
8
BLACK
6
CONTINUOUS
10
2.43252
20
-2.08947
11
2.43064
21
-2.09569
0
LINE
8
BLACK
6
CONTINUOUS
10
2.43064
20
-2.09569
11
2.42757
21
-2.10142
0
LINE
8
BLACK
6
CONTINUOUS
10
2.42757
20
-2.10142
11
2.42345
21
-2.10645
0
LINE
8
BLACK
6
CONTINUOUS
10
2.42345
20
-2.10645
11
2.41842
21
-2.11057
0
LINE
8
BLACK
6
CONTINUOUS
10
2.41842
20
-2.11057
11
2.41269
21
-2.11364
0
LINE
8
BLACK
6
CONTINUOUS
10
2.41269
20
-2.11364
11
2.40647
21
-2.11552
0
LINE
8
BLACK
6
CONTINUOUS
10
2.40647
20
-2.11552
11
2.4
21
-2.11616
0
LINE
8
BLACK
6
CONTINUOUS
10
2.4
20
-2.11616
11
2.39353
21
-2.11552
0
LINE
8
BLACK
6
CONTINUOUS
10
2.39353
20
-2.11552
11
2.38731
21
-2.11364
0
LINE
8
BLACK
6
CONTINUOUS
10
2.38731
20
-2.11364
11
2.38158
21
-2.11057
0
LINE
8
BLACK
6
CONTINUOUS
10
2.38158
20
-2.11057
11
2.37655
21
-2.10645
0
LINE
8
BLACK
6
CONTINUOUS
10
2.37655
20
-2.10645
11
2.37243
21
-2.10142
0
LINE
8
BLACK
6
CONTINUOUS
10
2.37243
20
-2.10142
11
2.36936
21
-2.09569
0
LINE
8
BLACK
6
CONTINUOUS
10
2.36936
20
-2.09569
11
2.36748
21
-2.08947
0
LINE
8
BLACK
6
CONTINUOUS
10
2.36748
20
-2.08947
11
2.367
21
-2.08462
0
LINE
8
BLACK
6
CONTINUOUS
10
2.367
20
-2.08462
11
2.367
21
-2.01538
0
LINE
8
BLACK
6
CONTINUOUS
10
2.367
20
-2.01538
11
2.36748
21
-2.01053
0
LINE
8
BLACK
6
CONTINUOUS
10
2.36748
20
-2.01053
11
2.36936
21
-2.00431
0
LINE
8
BLACK
6
CONTINUOUS
10
2.36936
20
-2.00431
11
2.37243
21
-1.99858
0
LINE
8
BLACK
6
CONTINUOUS
10
2.37243
20
-1.99858
11
2.37655
21
-1.99355
0
LINE
8
BLACK
6
CONTINUOUS
10
2.37655
20
-1.99355
11
2.38158
21
-1.98943
0
LINE
8
BLACK
6
CONTINUOUS
10
2.38158
20
-1.98943
11
2.38731
21
-1.98636
0
LINE
8
BLACK
6
CONTINUOUS
10
2.38731
20
-1.98636
11
2.39353
21
-1.98448
0
LINE
8
BLACK
6
CONTINUOUS
10
2.39353
20
-1.98448
11
2.4
21
-1.98384
0
LINE
8
BLACK
6
CONTINUOUS
10
2.4
20
-1.98384
11
2.40647
21
-1.98448
0
LINE
8
BLACK
6
CONTINUOUS
10
2.80906
20
-1.95906
11
2.69094
21
-1.95906
0
LINE
8
BLACK
6
CONTINUOUS
10
2.69094
20
-1.95906
11
2.69094
21
-1.84094
0
LINE
8
BLACK
6
CONTINUOUS
10
2.69094
20
-1.84094
11
2.80906
21
-1.84094
0
LINE
8
BLACK
6
CONTINUOUS
10
2.80906
20
-1.84094
11
2.80906
21
-1.95906
0
LINE
8
BLACK
6
CONTINUOUS
10
2.31896
20
-1.2975
11
2.33079
21
-1.3024
0
LINE
8
BLACK
6
CONTINUOUS
10
2.33079
20
-1.3024
11
2.34144
21
-1.30951
0
LINE
8
BLACK
6
CONTINUOUS
10
2.34144
20
-1.30951
11
2.35049
21
-1.31856
0
LINE
8
BLACK
6
CONTINUOUS
10
2.35049
20
-1.31856
11
2.3576
21
-1.32921
0
LINE
8
BLACK
6
CONTINUOUS
10
2.3576
20
-1.32921
11
2.3625
21
-1.34104
0
LINE
8
BLACK
6
CONTINUOUS
10
2.3625
20
-1.34104
11
2.365
21
-1.3536
0
LINE
8
BLACK
6
CONTINUOUS
10
2.365
20
-1.3536
11
2.365
21
-1.3664
0
LINE
8
BLACK
6
CONTINUOUS
10
2.365
20
-1.3664
11
2.3625
21
-1.37896
0
LINE
8
BLACK
6
CONTINUOUS
10
2.3625
20
-1.37896
11
2.3576
21
-1.39079
0
LINE
8
BLACK
6
CONTINUOUS
10
2.3576
20
-1.39079
11
2.35049
21
-1.40144
0
LINE
8
BLACK
6
CONTINUOUS
10
2.35049
20
-1.40144
11
2.34144
21
-1.41049
0
LINE
8
BLACK
6
CONTINUOUS
10
2.34144
20
-1.41049
11
2.33079
21
-1.4176
0
LINE
8
BLACK
6
CONTINUOUS
10
2.33079
20
-1.4176
11
2.31896
21
-1.4225
0
LINE
8
BLACK
6
CONTINUOUS
10
2.31896
20
-1.4225
11
2.3064
21
-1.425
0
LINE
8
BLACK
6
CONTINUOUS
10
2.3064
20
-1.425
11
2.2936
21
-1.425
0
LINE
8
BLACK
6
CONTINUOUS
10
2.2936
20
-1.425
11
2.28104
21
-1.4225
0
LINE
8
BLACK
6
CONTINUOUS
10
2.28104
20
-1.4225
11
2.26921
21
-1.4176
0
LINE
8
BLACK
6
CONTINUOUS
10
2.26921
20
-1.4176
11
2.25856
21
-1.41049
0
LINE
8
BLACK
6
CONTINUOUS
10
2.25856
20
-1.41049
11
2.24951
21
-1.40144
0
LINE
8
BLACK
6
CONTINUOUS
10
2.24951
20
-1.40144
11
2.2424
21
-1.39079
0
LINE
8
BLACK
6
CONTINUOUS
10
2.2424
20
-1.39079
11
2.2375
21
-1.37896
0
LINE
8
BLACK
6
CONTINUOUS
10
2.2375
20
-1.37896
11
2.235
21
-1.3664
0
LINE
8
BLACK
6
CONTINUOUS
10
2.235
20
-1.3664
11
2.235
21
-1.3536
0
LINE
8
BLACK
6
CONTINUOUS
10
2.235
20
-1.3536
11
2.2375
21
-1.34104
0
LINE
8
BLACK
6
CONTINUOUS
10
2.2375
20
-1.34104
11
2.2424
21
-1.32921
0
LINE
8
BLACK
6
CONTINUOUS
10
2.2424
20
-1.32921
11
2.24951
21
-1.31856
0
LINE
8
BLACK
6
CONTINUOUS
10
2.24951
20
-1.31856
11
2.25856
21
-1.30951
0
LINE
8
BLACK
6
CONTINUOUS
10
2.25856
20
-1.30951
11
2.26921
21
-1.3024
0
LINE
8
BLACK
6
CONTINUOUS
10
2.26921
20
-1.3024
11
2.28104
21
-1.2975
0
LINE
8
BLACK
6
CONTINUOUS
10
2.28104
20
-1.2975
11
2.2936
21
-1.295
0
LINE
8
BLACK
6
CONTINUOUS
10
2.2936
20
-1.295
11
2.3064
21
-1.295
0
LINE
8
BLACK
6
CONTINUOUS
10
2.3064
20
-1.295
11
2.31896
21
-1.2975
  0
ENDSEC
  0
EOF
