G04 #@! TF.GenerationSoftware,KiCad,Pcbnew,(5.1.4)-1*
G04 #@! TF.CreationDate,2019-09-01T07:16:18-07:00*
G04 #@! TF.ProjectId,lm7805,6c6d3738-3035-42e6-9b69-6361645f7063,rev?*
G04 #@! TF.SameCoordinates,Original*
G04 #@! TF.FileFunction,Copper,L2,Bot*
G04 #@! TF.FilePolarity,Positive*
%FSLAX46Y46*%
G04 Gerber Fmt 4.6, Leading zero omitted, Abs format (unit mm)*
G04 Created by KiCad (PCBNEW (5.1.4)-1) date 2019-09-01 07:16:18*
%MOMM*%
%LPD*%
G04 APERTURE LIST*
%ADD10C,1.800000*%
%ADD11R,3.000000X3.000000*%
%ADD12C,3.000000*%
%ADD13O,1.676400X3.352800*%
%ADD14C,1.200000*%
G04 APERTURE END LIST*
D10*
X55880000Y-57150000D03*
X55880000Y-59650000D03*
X60960000Y-59650000D03*
X60960000Y-57150000D03*
D11*
X49530000Y-58420000D03*
D12*
X49530000Y-53340000D03*
X69850000Y-53340000D03*
X69850000Y-58420000D03*
D11*
X69850000Y-48260000D03*
D12*
X69850000Y-63500000D03*
D13*
X55880000Y-52070000D03*
X58420000Y-52070000D03*
X60960000Y-52070000D03*
D14*
X54610000Y-53340000D02*
X55880000Y-52070000D01*
X49530000Y-53340000D02*
X54610000Y-53340000D01*
X55880000Y-49193600D02*
X56813600Y-48260000D01*
X55880000Y-52070000D02*
X55880000Y-49193600D01*
X56813600Y-48260000D02*
X69850000Y-48260000D01*
X55880000Y-57150000D02*
X55880000Y-52070000D01*
X49530000Y-58420000D02*
X49530000Y-60960000D01*
X54570000Y-60960000D02*
X55880000Y-59650000D01*
X49530000Y-60960000D02*
X54570000Y-60960000D01*
X60960000Y-59650000D02*
X55880000Y-59650000D01*
X60960000Y-59650000D02*
X60960000Y-62230000D01*
X62230000Y-63500000D02*
X69850000Y-63500000D01*
X60960000Y-62230000D02*
X62230000Y-63500000D01*
X58420000Y-57110000D02*
X55880000Y-59650000D01*
X58420000Y-52070000D02*
X58420000Y-57110000D01*
X69850000Y-53340000D02*
X72390000Y-53340000D01*
X72390000Y-53340000D02*
X73660000Y-54610000D01*
X73660000Y-59690000D02*
X69850000Y-63500000D01*
X73660000Y-54610000D02*
X73660000Y-59690000D01*
X68580000Y-57150000D02*
X69850000Y-58420000D01*
X60960000Y-57150000D02*
X68580000Y-57150000D01*
X60960000Y-52070000D02*
X60960000Y-57150000D01*
M02*
