  0
SECTION
  2
HEADER
  9
$ANGBASE
  50
0.0
  9
$ANGDIR
  70
  1
  9
$MEASUREMENT
  70
0
  0
ENDSEC
  0
SECTION
  2
TABLES
  0
TABLE
  2
LTYPE
  70
4
  0
LTYPE
  5
40F
  2
CONTINUOUS
  70
0
  3
Solid line
  72
65
  73
0
  40
0.0
  0
LTYPE
  5
410
  2
DASHDOT
 70
0
  3
Dash Dot ____ _ ____ _
 72
65
 73
4
 40
2.0
 49
1.25
 49
-0.25
 49
0.25
 49
-0.25
  0
LTYPE
  5
411
  2
DASHED
 70
0
  3
Dashed __ __ __ __ __
 72
65
 73
2
 40
0.75
 49
0.5
 49
-0.25
  0
LTYPE
  5
43B
  2
DOTTED
 70
0
  3
Dotted .  .  .  .
 72
65
 73
2
 40
0.2
 49
0.0
 49
-0.2
  0
ENDTAB
  0
TABLE
  2
STYLE
  70
4
  0
STYLE
  2
KICAD
  70
0
  40
0
  41
1
  42
1
  50
0
  71
0
  3
isocp.shx
  0
STYLE
  2
KICADB
  70
0
  40
0
  41
1
  42
1
  50
0
  71
0
  3
isocp.shx
  0
STYLE
  2
KICADI
  70
0
  40
0
  41
1
  42
1
  50
15
  71
0
  3
isocp.shx
  0
STYLE
  2
KICADBI
  70
0
  40
0
  41
1
  42
1
  50
15
  71
0
  3
isocp.shx
  0
ENDTAB
  0
TABLE
  2
LAYER
  70
30
  0
LAYER
  2
BLACK
  70
0
  62
7
  6
CONTINUOUS
  0
LAYER
  2
GRAY1
  70
0
  62
251
  6
CONTINUOUS
  0
LAYER
  2
GRAY2
  70
0
  62
8
  6
CONTINUOUS
  0
LAYER
  2
GRAY3
  70
0
  62
9
  6
CONTINUOUS
  0
LAYER
  2
WHITE
  70
0
  62
7
  6
CONTINUOUS
  0
LAYER
  2
LYELLOW
  70
0
  62
51
  6
CONTINUOUS
  0
LAYER
  2
BLUE1
  70
0
  62
178
  6
CONTINUOUS
  0
LAYER
  2
GREEN1
  70
0
  62
98
  6
CONTINUOUS
  0
LAYER
  2
CYAN1
  70
0
  62
138
  6
CONTINUOUS
  0
LAYER
  2
RED1
  70
0
  62
18
  6
CONTINUOUS
  0
LAYER
  2
MAGENTA1
  70
0
  62
228
  6
CONTINUOUS
  0
LAYER
  2
BROWN1
  70
0
  62
58
  6
CONTINUOUS
  0
LAYER
  2
BLUE2
  70
0
  62
5
  6
CONTINUOUS
  0
LAYER
  2
GREEN2
  70
0
  62
3
  6
CONTINUOUS
  0
LAYER
  2
CYAN2
  70
0
  62
4
  6
CONTINUOUS
  0
LAYER
  2
RED2
  70
0
  62
1
  6
CONTINUOUS
  0
LAYER
  2
MAGENTA2
  70
0
  62
6
  6
CONTINUOUS
  0
LAYER
  2
BROWN2
  70
0
  62
54
  6
CONTINUOUS
  0
LAYER
  2
BLUE3
  70
0
  62
171
  6
CONTINUOUS
  0
LAYER
  2
GREEN3
  70
0
  62
91
  6
CONTINUOUS
  0
LAYER
  2
CYAN3
  70
0
  62
131
  6
CONTINUOUS
  0
LAYER
  2
RED3
  70
0
  62
11
  6
CONTINUOUS
  0
LAYER
  2
MAGENTA3
  70
0
  62
221
  6
CONTINUOUS
  0
LAYER
  2
YELLOW3
  70
0
  62
2
  6
CONTINUOUS
  0
LAYER
  2
BLUE4
  70
0
  62
5
  6
CONTINUOUS
  0
LAYER
  2
GREEN4
  70
0
  62
3
  6
CONTINUOUS
  0
LAYER
  2
CYAN4
  70
0
  62
4
  6
CONTINUOUS
  0
LAYER
  2
RED4
  70
0
  62
1
  6
CONTINUOUS
  0
LAYER
  2
MAGENTA4
  70
0
  62
6
  6
CONTINUOUS
  0
LAYER
  2
YELLOW4
  70
0
  62
2
  6
CONTINUOUS
  0
ENDTAB
  0
ENDSEC
  0
SECTION
  2
ENTITIES
0
LINE
8
BLACK
6
CONTINUOUS
10
138.605
20
-95.4914
11
138.796
21
-95.5706
0
LINE
8
BLACK
6
CONTINUOUS
10
138.796
20
-95.5706
11
138.796
21
-95.5706
0
LINE
8
BLACK
6
CONTINUOUS
10
138.796
20
-95.5706
11
138.968
21
-95.6856
0
LINE
8
BLACK
6
CONTINUOUS
10
138.968
20
-95.6856
11
139.114
21
-95.832
0
LINE
8
BLACK
6
CONTINUOUS
10
139.114
20
-95.832
11
139.229
21
-96.0042
0
LINE
8
BLACK
6
CONTINUOUS
10
139.229
20
-96.0042
11
139.309
21
-96.1954
0
LINE
8
BLACK
6
CONTINUOUS
10
139.309
20
-96.1954
11
139.349
21
-96.3985
0
LINE
8
BLACK
6
CONTINUOUS
10
139.349
20
-96.3985
11
139.349
21
-96.6055
0
LINE
8
BLACK
6
CONTINUOUS
10
139.349
20
-96.6055
11
139.309
21
-96.8086
0
LINE
8
BLACK
6
CONTINUOUS
10
139.309
20
-96.8086
11
139.229
21
-96.9998
0
LINE
8
BLACK
6
CONTINUOUS
10
139.229
20
-96.9998
11
139.229
21
-96.9998
0
LINE
8
BLACK
6
CONTINUOUS
10
139.229
20
-96.9998
11
139.114
21
-97.172
0
LINE
8
BLACK
6
CONTINUOUS
10
139.114
20
-97.172
11
138.968
21
-97.3184
0
LINE
8
BLACK
6
CONTINUOUS
10
138.968
20
-97.3184
11
138.796
21
-97.4334
0
LINE
8
BLACK
6
CONTINUOUS
10
138.796
20
-97.4334
11
138.796
21
-97.4334
0
LINE
8
BLACK
6
CONTINUOUS
10
138.796
20
-97.4334
11
138.796
21
-97.4334
0
LINE
8
BLACK
6
CONTINUOUS
10
138.796
20
-97.4334
11
138.605
21
-97.5126
0
LINE
8
BLACK
6
CONTINUOUS
10
138.605
20
-97.5126
11
138.402
21
-97.553
0
LINE
8
BLACK
6
CONTINUOUS
10
138.402
20
-97.553
11
138.194
21
-97.553
0
LINE
8
BLACK
6
CONTINUOUS
10
138.194
20
-97.553
11
137.991
21
-97.5126
0
LINE
8
BLACK
6
CONTINUOUS
10
137.991
20
-97.5126
11
137.8
21
-97.4334
0
LINE
8
BLACK
6
CONTINUOUS
10
137.8
20
-97.4334
11
137.8
21
-97.4334
0
LINE
8
BLACK
6
CONTINUOUS
10
137.8
20
-97.4334
11
137.8
21
-97.4334
0
LINE
8
BLACK
6
CONTINUOUS
10
137.8
20
-97.4334
11
137.628
21
-97.3184
0
LINE
8
BLACK
6
CONTINUOUS
10
137.628
20
-97.3184
11
137.482
21
-97.172
0
LINE
8
BLACK
6
CONTINUOUS
10
137.482
20
-97.172
11
137.367
21
-96.9998
0
LINE
8
BLACK
6
CONTINUOUS
10
137.367
20
-96.9998
11
137.367
21
-96.9998
0
LINE
8
BLACK
6
CONTINUOUS
10
137.367
20
-96.9998
11
137.287
21
-96.8086
0
LINE
8
BLACK
6
CONTINUOUS
10
137.287
20
-96.8086
11
137.247
21
-96.6055
0
LINE
8
BLACK
6
CONTINUOUS
10
137.247
20
-96.6055
11
137.247
21
-96.3985
0
LINE
8
BLACK
6
CONTINUOUS
10
137.247
20
-96.3985
11
137.287
21
-96.1954
0
LINE
8
BLACK
6
CONTINUOUS
10
137.287
20
-96.1954
11
137.367
21
-96.0042
0
LINE
8
BLACK
6
CONTINUOUS
10
137.367
20
-96.0042
11
137.482
21
-95.832
0
LINE
8
BLACK
6
CONTINUOUS
10
137.482
20
-95.832
11
137.628
21
-95.6856
0
LINE
8
BLACK
6
CONTINUOUS
10
137.628
20
-95.6856
11
137.8
21
-95.5706
0
LINE
8
BLACK
6
CONTINUOUS
10
137.8
20
-95.5706
11
137.8
21
-95.5706
0
LINE
8
BLACK
6
CONTINUOUS
10
137.8
20
-95.5706
11
137.991
21
-95.4914
0
LINE
8
BLACK
6
CONTINUOUS
10
137.991
20
-95.4914
11
138.194
21
-95.451
0
LINE
8
BLACK
6
CONTINUOUS
10
138.194
20
-95.451
11
138.402
21
-95.451
0
LINE
8
BLACK
6
CONTINUOUS
10
138.402
20
-95.451
11
138.605
21
-95.4914
0
LINE
8
BLACK
6
CONTINUOUS
10
93.9006
20
-95.4914
11
94.0918
21
-95.5706
0
LINE
8
BLACK
6
CONTINUOUS
10
94.0918
20
-95.5706
11
94.0918
21
-95.5706
0
LINE
8
BLACK
6
CONTINUOUS
10
94.0918
20
-95.5706
11
94.264
21
-95.6856
0
LINE
8
BLACK
6
CONTINUOUS
10
94.264
20
-95.6856
11
94.4104
21
-95.832
0
LINE
8
BLACK
6
CONTINUOUS
10
94.4104
20
-95.832
11
94.5254
21
-96.0042
0
LINE
8
BLACK
6
CONTINUOUS
10
94.5254
20
-96.0042
11
94.6046
21
-96.1954
0
LINE
8
BLACK
6
CONTINUOUS
10
94.6046
20
-96.1954
11
94.645
21
-96.3985
0
LINE
8
BLACK
6
CONTINUOUS
10
94.645
20
-96.3985
11
94.645
21
-96.6055
0
LINE
8
BLACK
6
CONTINUOUS
10
94.645
20
-96.6055
11
94.6046
21
-96.8086
0
LINE
8
BLACK
6
CONTINUOUS
10
94.6046
20
-96.8086
11
94.5254
21
-96.9998
0
LINE
8
BLACK
6
CONTINUOUS
10
94.5254
20
-96.9998
11
94.5254
21
-96.9998
0
LINE
8
BLACK
6
CONTINUOUS
10
94.5254
20
-96.9998
11
94.4104
21
-97.172
0
LINE
8
BLACK
6
CONTINUOUS
10
94.4104
20
-97.172
11
94.264
21
-97.3184
0
LINE
8
BLACK
6
CONTINUOUS
10
94.264
20
-97.3184
11
94.0918
21
-97.4334
0
LINE
8
BLACK
6
CONTINUOUS
10
94.0918
20
-97.4334
11
94.0918
21
-97.4334
0
LINE
8
BLACK
6
CONTINUOUS
10
94.0918
20
-97.4334
11
94.0918
21
-97.4334
0
LINE
8
BLACK
6
CONTINUOUS
10
94.0918
20
-97.4334
11
93.9006
21
-97.5126
0
LINE
8
BLACK
6
CONTINUOUS
10
93.9006
20
-97.5126
11
93.6975
21
-97.553
0
LINE
8
BLACK
6
CONTINUOUS
10
93.6975
20
-97.553
11
93.4905
21
-97.553
0
LINE
8
BLACK
6
CONTINUOUS
10
93.4905
20
-97.553
11
93.2874
21
-97.5126
0
LINE
8
BLACK
6
CONTINUOUS
10
93.2874
20
-97.5126
11
93.0962
21
-97.4334
0
LINE
8
BLACK
6
CONTINUOUS
10
93.0962
20
-97.4334
11
93.0962
21
-97.4334
0
LINE
8
BLACK
6
CONTINUOUS
10
93.0962
20
-97.4334
11
93.0962
21
-97.4334
0
LINE
8
BLACK
6
CONTINUOUS
10
93.0962
20
-97.4334
11
92.924
21
-97.3184
0
LINE
8
BLACK
6
CONTINUOUS
10
92.924
20
-97.3184
11
92.7776
21
-97.172
0
LINE
8
BLACK
6
CONTINUOUS
10
92.7776
20
-97.172
11
92.6626
21
-96.9998
0
LINE
8
BLACK
6
CONTINUOUS
10
92.6626
20
-96.9998
11
92.6626
21
-96.9998
0
LINE
8
BLACK
6
CONTINUOUS
10
92.6626
20
-96.9998
11
92.5834
21
-96.8086
0
LINE
8
BLACK
6
CONTINUOUS
10
92.5834
20
-96.8086
11
92.543
21
-96.6055
0
LINE
8
BLACK
6
CONTINUOUS
10
92.543
20
-96.6055
11
92.543
21
-96.3985
0
LINE
8
BLACK
6
CONTINUOUS
10
92.543
20
-96.3985
11
92.5834
21
-96.1954
0
LINE
8
BLACK
6
CONTINUOUS
10
92.5834
20
-96.1954
11
92.6626
21
-96.0042
0
LINE
8
BLACK
6
CONTINUOUS
10
92.6626
20
-96.0042
11
92.7776
21
-95.832
0
LINE
8
BLACK
6
CONTINUOUS
10
92.7776
20
-95.832
11
92.924
21
-95.6856
0
LINE
8
BLACK
6
CONTINUOUS
10
92.924
20
-95.6856
11
93.0962
21
-95.5706
0
LINE
8
BLACK
6
CONTINUOUS
10
93.0962
20
-95.5706
11
93.0962
21
-95.5706
0
LINE
8
BLACK
6
CONTINUOUS
10
93.0962
20
-95.5706
11
93.2874
21
-95.4914
0
LINE
8
BLACK
6
CONTINUOUS
10
93.2874
20
-95.4914
11
93.4905
21
-95.451
0
LINE
8
BLACK
6
CONTINUOUS
10
93.4905
20
-95.451
11
93.6975
21
-95.451
0
LINE
8
BLACK
6
CONTINUOUS
10
93.6975
20
-95.451
11
93.9006
21
-95.4914
0
LINE
8
BLACK
6
CONTINUOUS
10
53.9006
20
-95.4914
11
54.0918
21
-95.5706
0
LINE
8
BLACK
6
CONTINUOUS
10
54.0918
20
-95.5706
11
54.0918
21
-95.5706
0
LINE
8
BLACK
6
CONTINUOUS
10
54.0918
20
-95.5706
11
54.264
21
-95.6856
0
LINE
8
BLACK
6
CONTINUOUS
10
54.264
20
-95.6856
11
54.4104
21
-95.832
0
LINE
8
BLACK
6
CONTINUOUS
10
54.4104
20
-95.832
11
54.5254
21
-96.0042
0
LINE
8
BLACK
6
CONTINUOUS
10
54.5254
20
-96.0042
11
54.6046
21
-96.1954
0
LINE
8
BLACK
6
CONTINUOUS
10
54.6046
20
-96.1954
11
54.645
21
-96.3985
0
LINE
8
BLACK
6
CONTINUOUS
10
54.645
20
-96.3985
11
54.645
21
-96.6055
0
LINE
8
BLACK
6
CONTINUOUS
10
54.645
20
-96.6055
11
54.6046
21
-96.8086
0
LINE
8
BLACK
6
CONTINUOUS
10
54.6046
20
-96.8086
11
54.5254
21
-96.9998
0
LINE
8
BLACK
6
CONTINUOUS
10
54.5254
20
-96.9998
11
54.5254
21
-96.9998
0
LINE
8
BLACK
6
CONTINUOUS
10
54.5254
20
-96.9998
11
54.4104
21
-97.172
0
LINE
8
BLACK
6
CONTINUOUS
10
54.4104
20
-97.172
11
54.264
21
-97.3184
0
LINE
8
BLACK
6
CONTINUOUS
10
54.264
20
-97.3184
11
54.0918
21
-97.4334
0
LINE
8
BLACK
6
CONTINUOUS
10
54.0918
20
-97.4334
11
54.0918
21
-97.4334
0
LINE
8
BLACK
6
CONTINUOUS
10
54.0918
20
-97.4334
11
54.0918
21
-97.4334
0
LINE
8
BLACK
6
CONTINUOUS
10
54.0918
20
-97.4334
11
53.9006
21
-97.5126
0
LINE
8
BLACK
6
CONTINUOUS
10
53.9006
20
-97.5126
11
53.6975
21
-97.553
0
LINE
8
BLACK
6
CONTINUOUS
10
53.6975
20
-97.553
11
53.4905
21
-97.553
0
LINE
8
BLACK
6
CONTINUOUS
10
53.4905
20
-97.553
11
53.2874
21
-97.5126
0
LINE
8
BLACK
6
CONTINUOUS
10
53.2874
20
-97.5126
11
53.0962
21
-97.4334
0
LINE
8
BLACK
6
CONTINUOUS
10
53.0962
20
-97.4334
11
53.0962
21
-97.4334
0
LINE
8
BLACK
6
CONTINUOUS
10
53.0962
20
-97.4334
11
53.0962
21
-97.4334
0
LINE
8
BLACK
6
CONTINUOUS
10
53.0962
20
-97.4334
11
52.924
21
-97.3184
0
LINE
8
BLACK
6
CONTINUOUS
10
52.924
20
-97.3184
11
52.7776
21
-97.172
0
LINE
8
BLACK
6
CONTINUOUS
10
52.7776
20
-97.172
11
52.6626
21
-96.9998
0
LINE
8
BLACK
6
CONTINUOUS
10
52.6626
20
-96.9998
11
52.6626
21
-96.9998
0
LINE
8
BLACK
6
CONTINUOUS
10
52.6626
20
-96.9998
11
52.5834
21
-96.8086
0
LINE
8
BLACK
6
CONTINUOUS
10
52.5834
20
-96.8086
11
52.543
21
-96.6055
0
LINE
8
BLACK
6
CONTINUOUS
10
52.543
20
-96.6055
11
52.543
21
-96.3985
0
LINE
8
BLACK
6
CONTINUOUS
10
52.543
20
-96.3985
11
52.5834
21
-96.1954
0
LINE
8
BLACK
6
CONTINUOUS
10
52.5834
20
-96.1954
11
52.6626
21
-96.0042
0
LINE
8
BLACK
6
CONTINUOUS
10
52.6626
20
-96.0042
11
52.7776
21
-95.832
0
LINE
8
BLACK
6
CONTINUOUS
10
52.7776
20
-95.832
11
52.924
21
-95.6856
0
LINE
8
BLACK
6
CONTINUOUS
10
52.924
20
-95.6856
11
53.0962
21
-95.5706
0
LINE
8
BLACK
6
CONTINUOUS
10
53.0962
20
-95.5706
11
53.0962
21
-95.5706
0
LINE
8
BLACK
6
CONTINUOUS
10
53.0962
20
-95.5706
11
53.2874
21
-95.4914
0
LINE
8
BLACK
6
CONTINUOUS
10
53.2874
20
-95.4914
11
53.4905
21
-95.451
0
LINE
8
BLACK
6
CONTINUOUS
10
53.4905
20
-95.451
11
53.6975
21
-95.451
0
LINE
8
BLACK
6
CONTINUOUS
10
53.6975
20
-95.451
11
53.9006
21
-95.4914
0
LINE
8
BLACK
6
CONTINUOUS
10
98.6046
20
-95.4914
11
98.7958
21
-95.5706
0
LINE
8
BLACK
6
CONTINUOUS
10
98.7958
20
-95.5706
11
98.7958
21
-95.5706
0
LINE
8
BLACK
6
CONTINUOUS
10
98.7958
20
-95.5706
11
98.968
21
-95.6856
0
LINE
8
BLACK
6
CONTINUOUS
10
98.968
20
-95.6856
11
99.1144
21
-95.832
0
LINE
8
BLACK
6
CONTINUOUS
10
99.1144
20
-95.832
11
99.2294
21
-96.0042
0
LINE
8
BLACK
6
CONTINUOUS
10
99.2294
20
-96.0042
11
99.3086
21
-96.1954
0
LINE
8
BLACK
6
CONTINUOUS
10
99.3086
20
-96.1954
11
99.349
21
-96.3985
0
LINE
8
BLACK
6
CONTINUOUS
10
99.349
20
-96.3985
11
99.349
21
-96.6055
0
LINE
8
BLACK
6
CONTINUOUS
10
99.349
20
-96.6055
11
99.3086
21
-96.8086
0
LINE
8
BLACK
6
CONTINUOUS
10
99.3086
20
-96.8086
11
99.2294
21
-96.9998
0
LINE
8
BLACK
6
CONTINUOUS
10
99.2294
20
-96.9998
11
99.2294
21
-96.9998
0
LINE
8
BLACK
6
CONTINUOUS
10
99.2294
20
-96.9998
11
99.1144
21
-97.172
0
LINE
8
BLACK
6
CONTINUOUS
10
99.1144
20
-97.172
11
98.968
21
-97.3184
0
LINE
8
BLACK
6
CONTINUOUS
10
98.968
20
-97.3184
11
98.7958
21
-97.4334
0
LINE
8
BLACK
6
CONTINUOUS
10
98.7958
20
-97.4334
11
98.7958
21
-97.4334
0
LINE
8
BLACK
6
CONTINUOUS
10
98.7958
20
-97.4334
11
98.7958
21
-97.4334
0
LINE
8
BLACK
6
CONTINUOUS
10
98.7958
20
-97.4334
11
98.6046
21
-97.5126
0
LINE
8
BLACK
6
CONTINUOUS
10
98.6046
20
-97.5126
11
98.4015
21
-97.553
0
LINE
8
BLACK
6
CONTINUOUS
10
98.4015
20
-97.553
11
98.1945
21
-97.553
0
LINE
8
BLACK
6
CONTINUOUS
10
98.1945
20
-97.553
11
97.9914
21
-97.5126
0
LINE
8
BLACK
6
CONTINUOUS
10
97.9914
20
-97.5126
11
97.8002
21
-97.4334
0
LINE
8
BLACK
6
CONTINUOUS
10
97.8002
20
-97.4334
11
97.8002
21
-97.4334
0
LINE
8
BLACK
6
CONTINUOUS
10
97.8002
20
-97.4334
11
97.8002
21
-97.4334
0
LINE
8
BLACK
6
CONTINUOUS
10
97.8002
20
-97.4334
11
97.628
21
-97.3184
0
LINE
8
BLACK
6
CONTINUOUS
10
97.628
20
-97.3184
11
97.4816
21
-97.172
0
LINE
8
BLACK
6
CONTINUOUS
10
97.4816
20
-97.172
11
97.3666
21
-96.9998
0
LINE
8
BLACK
6
CONTINUOUS
10
97.3666
20
-96.9998
11
97.3666
21
-96.9998
0
LINE
8
BLACK
6
CONTINUOUS
10
97.3666
20
-96.9998
11
97.2874
21
-96.8086
0
LINE
8
BLACK
6
CONTINUOUS
10
97.2874
20
-96.8086
11
97.247
21
-96.6055
0
LINE
8
BLACK
6
CONTINUOUS
10
97.247
20
-96.6055
11
97.247
21
-96.3985
0
LINE
8
BLACK
6
CONTINUOUS
10
97.247
20
-96.3985
11
97.2874
21
-96.1954
0
LINE
8
BLACK
6
CONTINUOUS
10
97.2874
20
-96.1954
11
97.3666
21
-96.0042
0
LINE
8
BLACK
6
CONTINUOUS
10
97.3666
20
-96.0042
11
97.4816
21
-95.832
0
LINE
8
BLACK
6
CONTINUOUS
10
97.4816
20
-95.832
11
97.628
21
-95.6856
0
LINE
8
BLACK
6
CONTINUOUS
10
97.628
20
-95.6856
11
97.8002
21
-95.5706
0
LINE
8
BLACK
6
CONTINUOUS
10
97.8002
20
-95.5706
11
97.8002
21
-95.5706
0
LINE
8
BLACK
6
CONTINUOUS
10
97.8002
20
-95.5706
11
97.9914
21
-95.4914
0
LINE
8
BLACK
6
CONTINUOUS
10
97.9914
20
-95.4914
11
98.1945
21
-95.451
0
LINE
8
BLACK
6
CONTINUOUS
10
98.1945
20
-95.451
11
98.4015
21
-95.451
0
LINE
8
BLACK
6
CONTINUOUS
10
98.4015
20
-95.451
11
98.6046
21
-95.4914
0
LINE
8
BLACK
6
CONTINUOUS
10
146.077
20
-88.165
11
142.975
21
-88.165
0
LINE
8
BLACK
6
CONTINUOUS
10
142.975
20
-88.165
11
142.975
21
-85.063
0
LINE
8
BLACK
6
CONTINUOUS
10
142.975
20
-85.063
11
146.077
21
-85.063
0
LINE
8
BLACK
6
CONTINUOUS
10
146.077
20
-85.063
11
146.077
21
-88.165
0
LINE
8
BLACK
6
CONTINUOUS
10
144.829
20
-80.0128
11
144.978
21
-80.0426
0
LINE
8
BLACK
6
CONTINUOUS
10
144.978
20
-80.0426
11
145.261
21
-80.1595
0
LINE
8
BLACK
6
CONTINUOUS
10
145.261
20
-80.1595
11
145.515
21
-80.3293
0
LINE
8
BLACK
6
CONTINUOUS
10
145.515
20
-80.3293
11
145.731
21
-80.5453
0
LINE
8
BLACK
6
CONTINUOUS
10
145.731
20
-80.5453
11
145.9
21
-80.7993
0
LINE
8
BLACK
6
CONTINUOUS
10
145.9
20
-80.7993
11
146.017
21
-81.0816
0
LINE
8
BLACK
6
CONTINUOUS
10
146.017
20
-81.0816
11
146.077
21
-81.3812
0
LINE
8
BLACK
6
CONTINUOUS
10
146.077
20
-81.3812
11
146.077
21
-81.6868
0
LINE
8
BLACK
6
CONTINUOUS
10
146.077
20
-81.6868
11
146.017
21
-81.9864
0
LINE
8
BLACK
6
CONTINUOUS
10
146.017
20
-81.9864
11
145.9
21
-82.2687
0
LINE
8
BLACK
6
CONTINUOUS
10
145.9
20
-82.2687
11
145.731
21
-82.5227
0
LINE
8
BLACK
6
CONTINUOUS
10
145.731
20
-82.5227
11
145.515
21
-82.7387
0
LINE
8
BLACK
6
CONTINUOUS
10
145.515
20
-82.7387
11
145.261
21
-82.9085
0
LINE
8
BLACK
6
CONTINUOUS
10
145.261
20
-82.9085
11
144.978
21
-83.0254
0
LINE
8
BLACK
6
CONTINUOUS
10
144.978
20
-83.0254
11
144.829
21
-83.0552
0
LINE
8
BLACK
6
CONTINUOUS
10
144.829
20
-83.0552
11
144.679
21
-83.085
0
LINE
8
BLACK
6
CONTINUOUS
10
144.679
20
-83.085
11
144.373
21
-83.085
0
LINE
8
BLACK
6
CONTINUOUS
10
144.373
20
-83.085
11
144.223
21
-83.0552
0
LINE
8
BLACK
6
CONTINUOUS
10
144.223
20
-83.0552
11
144.074
21
-83.0254
0
LINE
8
BLACK
6
CONTINUOUS
10
144.074
20
-83.0254
11
143.791
21
-82.9085
0
LINE
8
BLACK
6
CONTINUOUS
10
143.791
20
-82.9085
11
143.537
21
-82.7387
0
LINE
8
BLACK
6
CONTINUOUS
10
143.537
20
-82.7387
11
143.321
21
-82.5227
0
LINE
8
BLACK
6
CONTINUOUS
10
143.321
20
-82.5227
11
143.152
21
-82.2687
0
LINE
8
BLACK
6
CONTINUOUS
10
143.152
20
-82.2687
11
143.035
21
-81.9864
0
LINE
8
BLACK
6
CONTINUOUS
10
143.035
20
-81.9864
11
142.975
21
-81.6868
0
LINE
8
BLACK
6
CONTINUOUS
10
142.975
20
-81.6868
11
142.975
21
-81.3812
0
LINE
8
BLACK
6
CONTINUOUS
10
142.975
20
-81.3812
11
143.035
21
-81.0816
0
LINE
8
BLACK
6
CONTINUOUS
10
143.035
20
-81.0816
11
143.152
21
-80.7993
0
LINE
8
BLACK
6
CONTINUOUS
10
143.152
20
-80.7993
11
143.321
21
-80.5453
0
LINE
8
BLACK
6
CONTINUOUS
10
143.321
20
-80.5453
11
143.537
21
-80.3293
0
LINE
8
BLACK
6
CONTINUOUS
10
143.537
20
-80.3293
11
143.791
21
-80.1595
0
LINE
8
BLACK
6
CONTINUOUS
10
143.791
20
-80.1595
11
144.074
21
-80.0426
0
LINE
8
BLACK
6
CONTINUOUS
10
144.074
20
-80.0426
11
144.223
21
-80.0128
0
LINE
8
BLACK
6
CONTINUOUS
10
144.223
20
-80.0128
11
144.373
21
-79.983
0
LINE
8
BLACK
6
CONTINUOUS
10
144.373
20
-79.983
11
144.679
21
-79.983
0
LINE
8
BLACK
6
CONTINUOUS
10
144.679
20
-79.983
11
144.829
21
-80.0128
0
LINE
8
BLACK
6
CONTINUOUS
10
98.6046
20
-78.4914
11
98.7958
21
-78.5706
0
LINE
8
BLACK
6
CONTINUOUS
10
98.7958
20
-78.5706
11
98.7958
21
-78.5706
0
LINE
8
BLACK
6
CONTINUOUS
10
98.7958
20
-78.5706
11
98.968
21
-78.6856
0
LINE
8
BLACK
6
CONTINUOUS
10
98.968
20
-78.6856
11
99.1144
21
-78.832
0
LINE
8
BLACK
6
CONTINUOUS
10
99.1144
20
-78.832
11
99.2294
21
-79.0042
0
LINE
8
BLACK
6
CONTINUOUS
10
99.2294
20
-79.0042
11
99.3086
21
-79.1954
0
LINE
8
BLACK
6
CONTINUOUS
10
99.3086
20
-79.1954
11
99.349
21
-79.3985
0
LINE
8
BLACK
6
CONTINUOUS
10
99.349
20
-79.3985
11
99.349
21
-79.6055
0
LINE
8
BLACK
6
CONTINUOUS
10
99.349
20
-79.6055
11
99.3086
21
-79.8086
0
LINE
8
BLACK
6
CONTINUOUS
10
99.3086
20
-79.8086
11
99.2364
21
-79.983
0
LINE
8
BLACK
6
CONTINUOUS
10
99.2364
20
-79.983
11
99.2294
21
-79.9998
0
LINE
8
BLACK
6
CONTINUOUS
10
99.2294
20
-79.9998
11
99.1144
21
-80.172
0
LINE
8
BLACK
6
CONTINUOUS
10
99.1144
20
-80.172
11
98.968
21
-80.3184
0
LINE
8
BLACK
6
CONTINUOUS
10
98.968
20
-80.3184
11
98.7958
21
-80.4334
0
LINE
8
BLACK
6
CONTINUOUS
10
98.7958
20
-80.4334
11
98.7958
21
-80.4334
0
LINE
8
BLACK
6
CONTINUOUS
10
98.7958
20
-80.4334
11
98.7958
21
-80.4334
0
LINE
8
BLACK
6
CONTINUOUS
10
98.7958
20
-80.4334
11
98.6046
21
-80.5126
0
LINE
8
BLACK
6
CONTINUOUS
10
98.6046
20
-80.5126
11
98.4015
21
-80.553
0
LINE
8
BLACK
6
CONTINUOUS
10
98.4015
20
-80.553
11
98.1945
21
-80.553
0
LINE
8
BLACK
6
CONTINUOUS
10
98.1945
20
-80.553
11
97.9914
21
-80.5126
0
LINE
8
BLACK
6
CONTINUOUS
10
97.9914
20
-80.5126
11
97.8002
21
-80.4334
0
LINE
8
BLACK
6
CONTINUOUS
10
97.8002
20
-80.4334
11
97.8002
21
-80.4334
0
LINE
8
BLACK
6
CONTINUOUS
10
97.8002
20
-80.4334
11
97.8002
21
-80.4334
0
LINE
8
BLACK
6
CONTINUOUS
10
97.8002
20
-80.4334
11
97.628
21
-80.3184
0
LINE
8
BLACK
6
CONTINUOUS
10
97.628
20
-80.3184
11
97.4816
21
-80.172
0
LINE
8
BLACK
6
CONTINUOUS
10
97.4816
20
-80.172
11
97.3666
21
-79.9998
0
LINE
8
BLACK
6
CONTINUOUS
10
97.3666
20
-79.9998
11
97.3596
21
-79.983
0
LINE
8
BLACK
6
CONTINUOUS
10
97.3596
20
-79.983
11
97.2874
21
-79.8086
0
LINE
8
BLACK
6
CONTINUOUS
10
97.2874
20
-79.8086
11
97.247
21
-79.6055
0
LINE
8
BLACK
6
CONTINUOUS
10
97.247
20
-79.6055
11
97.247
21
-79.3985
0
LINE
8
BLACK
6
CONTINUOUS
10
97.247
20
-79.3985
11
97.2874
21
-79.1954
0
LINE
8
BLACK
6
CONTINUOUS
10
97.2874
20
-79.1954
11
97.3666
21
-79.0042
0
LINE
8
BLACK
6
CONTINUOUS
10
97.3666
20
-79.0042
11
97.4816
21
-78.832
0
LINE
8
BLACK
6
CONTINUOUS
10
97.4816
20
-78.832
11
97.628
21
-78.6856
0
LINE
8
BLACK
6
CONTINUOUS
10
97.628
20
-78.6856
11
97.8002
21
-78.5706
0
LINE
8
BLACK
6
CONTINUOUS
10
97.8002
20
-78.5706
11
97.8002
21
-78.5706
0
LINE
8
BLACK
6
CONTINUOUS
10
97.8002
20
-78.5706
11
97.9914
21
-78.4914
0
LINE
8
BLACK
6
CONTINUOUS
10
97.9914
20
-78.4914
11
98.1945
21
-78.451
0
LINE
8
BLACK
6
CONTINUOUS
10
98.1945
20
-78.451
11
98.4015
21
-78.451
0
LINE
8
BLACK
6
CONTINUOUS
10
98.4015
20
-78.451
11
98.6046
21
-78.4914
0
LINE
8
BLACK
6
CONTINUOUS
10
138.605
20
-78.4914
11
138.796
21
-78.5706
0
LINE
8
BLACK
6
CONTINUOUS
10
138.796
20
-78.5706
11
138.796
21
-78.5706
0
LINE
8
BLACK
6
CONTINUOUS
10
138.796
20
-78.5706
11
138.968
21
-78.6856
0
LINE
8
BLACK
6
CONTINUOUS
10
138.968
20
-78.6856
11
139.114
21
-78.832
0
LINE
8
BLACK
6
CONTINUOUS
10
139.114
20
-78.832
11
139.229
21
-79.0042
0
LINE
8
BLACK
6
CONTINUOUS
10
139.229
20
-79.0042
11
139.309
21
-79.1954
0
LINE
8
BLACK
6
CONTINUOUS
10
139.309
20
-79.1954
11
139.349
21
-79.3985
0
LINE
8
BLACK
6
CONTINUOUS
10
139.349
20
-79.3985
11
139.349
21
-79.6055
0
LINE
8
BLACK
6
CONTINUOUS
10
139.349
20
-79.6055
11
139.309
21
-79.8086
0
LINE
8
BLACK
6
CONTINUOUS
10
139.309
20
-79.8086
11
139.236
21
-79.983
0
LINE
8
BLACK
6
CONTINUOUS
10
139.236
20
-79.983
11
139.229
21
-79.9998
0
LINE
8
BLACK
6
CONTINUOUS
10
139.229
20
-79.9998
11
139.114
21
-80.172
0
LINE
8
BLACK
6
CONTINUOUS
10
139.114
20
-80.172
11
138.968
21
-80.3184
0
LINE
8
BLACK
6
CONTINUOUS
10
138.968
20
-80.3184
11
138.796
21
-80.4334
0
LINE
8
BLACK
6
CONTINUOUS
10
138.796
20
-80.4334
11
138.796
21
-80.4334
0
LINE
8
BLACK
6
CONTINUOUS
10
138.796
20
-80.4334
11
138.796
21
-80.4334
0
LINE
8
BLACK
6
CONTINUOUS
10
138.796
20
-80.4334
11
138.605
21
-80.5126
0
LINE
8
BLACK
6
CONTINUOUS
10
138.605
20
-80.5126
11
138.402
21
-80.553
0
LINE
8
BLACK
6
CONTINUOUS
10
138.402
20
-80.553
11
138.194
21
-80.553
0
LINE
8
BLACK
6
CONTINUOUS
10
138.194
20
-80.553
11
137.991
21
-80.5126
0
LINE
8
BLACK
6
CONTINUOUS
10
137.991
20
-80.5126
11
137.8
21
-80.4334
0
LINE
8
BLACK
6
CONTINUOUS
10
137.8
20
-80.4334
11
137.8
21
-80.4334
0
LINE
8
BLACK
6
CONTINUOUS
10
137.8
20
-80.4334
11
137.8
21
-80.4334
0
LINE
8
BLACK
6
CONTINUOUS
10
137.8
20
-80.4334
11
137.628
21
-80.3184
0
LINE
8
BLACK
6
CONTINUOUS
10
137.628
20
-80.3184
11
137.482
21
-80.172
0
LINE
8
BLACK
6
CONTINUOUS
10
137.482
20
-80.172
11
137.367
21
-79.9998
0
LINE
8
BLACK
6
CONTINUOUS
10
137.367
20
-79.9998
11
137.36
21
-79.983
0
LINE
8
BLACK
6
CONTINUOUS
10
137.36
20
-79.983
11
137.287
21
-79.8086
0
LINE
8
BLACK
6
CONTINUOUS
10
137.287
20
-79.8086
11
137.247
21
-79.6055
0
LINE
8
BLACK
6
CONTINUOUS
10
137.247
20
-79.6055
11
137.247
21
-79.3985
0
LINE
8
BLACK
6
CONTINUOUS
10
137.247
20
-79.3985
11
137.287
21
-79.1954
0
LINE
8
BLACK
6
CONTINUOUS
10
137.287
20
-79.1954
11
137.367
21
-79.0042
0
LINE
8
BLACK
6
CONTINUOUS
10
137.367
20
-79.0042
11
137.482
21
-78.832
0
LINE
8
BLACK
6
CONTINUOUS
10
137.482
20
-78.832
11
137.628
21
-78.6856
0
LINE
8
BLACK
6
CONTINUOUS
10
137.628
20
-78.6856
11
137.8
21
-78.5706
0
LINE
8
BLACK
6
CONTINUOUS
10
137.8
20
-78.5706
11
137.8
21
-78.5706
0
LINE
8
BLACK
6
CONTINUOUS
10
137.8
20
-78.5706
11
137.991
21
-78.4914
0
LINE
8
BLACK
6
CONTINUOUS
10
137.991
20
-78.4914
11
138.194
21
-78.451
0
LINE
8
BLACK
6
CONTINUOUS
10
138.194
20
-78.451
11
138.402
21
-78.451
0
LINE
8
BLACK
6
CONTINUOUS
10
138.402
20
-78.451
11
138.605
21
-78.4914
0
LINE
8
BLACK
6
CONTINUOUS
10
93.9006
20
-78.4914
11
94.0918
21
-78.5706
0
LINE
8
BLACK
6
CONTINUOUS
10
94.0918
20
-78.5706
11
94.0918
21
-78.5706
0
LINE
8
BLACK
6
CONTINUOUS
10
94.0918
20
-78.5706
11
94.264
21
-78.6856
0
LINE
8
BLACK
6
CONTINUOUS
10
94.264
20
-78.6856
11
94.4104
21
-78.832
0
LINE
8
BLACK
6
CONTINUOUS
10
94.4104
20
-78.832
11
94.5254
21
-79.0042
0
LINE
8
BLACK
6
CONTINUOUS
10
94.5254
20
-79.0042
11
94.6046
21
-79.1954
0
LINE
8
BLACK
6
CONTINUOUS
10
94.6046
20
-79.1954
11
94.645
21
-79.3985
0
LINE
8
BLACK
6
CONTINUOUS
10
94.645
20
-79.3985
11
94.645
21
-79.6055
0
LINE
8
BLACK
6
CONTINUOUS
10
94.645
20
-79.6055
11
94.6046
21
-79.8086
0
LINE
8
BLACK
6
CONTINUOUS
10
94.6046
20
-79.8086
11
94.5324
21
-79.983
0
LINE
8
BLACK
6
CONTINUOUS
10
94.5324
20
-79.983
11
94.5254
21
-79.9998
0
LINE
8
BLACK
6
CONTINUOUS
10
94.5254
20
-79.9998
11
94.4104
21
-80.172
0
LINE
8
BLACK
6
CONTINUOUS
10
94.4104
20
-80.172
11
94.264
21
-80.3184
0
LINE
8
BLACK
6
CONTINUOUS
10
94.264
20
-80.3184
11
94.0918
21
-80.4334
0
LINE
8
BLACK
6
CONTINUOUS
10
94.0918
20
-80.4334
11
94.0918
21
-80.4334
0
LINE
8
BLACK
6
CONTINUOUS
10
94.0918
20
-80.4334
11
94.0918
21
-80.4334
0
LINE
8
BLACK
6
CONTINUOUS
10
94.0918
20
-80.4334
11
93.9006
21
-80.5126
0
LINE
8
BLACK
6
CONTINUOUS
10
93.9006
20
-80.5126
11
93.6975
21
-80.553
0
LINE
8
BLACK
6
CONTINUOUS
10
93.6975
20
-80.553
11
93.4905
21
-80.553
0
LINE
8
BLACK
6
CONTINUOUS
10
93.4905
20
-80.553
11
93.2874
21
-80.5126
0
LINE
8
BLACK
6
CONTINUOUS
10
93.2874
20
-80.5126
11
93.0962
21
-80.4334
0
LINE
8
BLACK
6
CONTINUOUS
10
93.0962
20
-80.4334
11
93.0962
21
-80.4334
0
LINE
8
BLACK
6
CONTINUOUS
10
93.0962
20
-80.4334
11
93.0962
21
-80.4334
0
LINE
8
BLACK
6
CONTINUOUS
10
93.0962
20
-80.4334
11
92.924
21
-80.3184
0
LINE
8
BLACK
6
CONTINUOUS
10
92.924
20
-80.3184
11
92.7776
21
-80.172
0
LINE
8
BLACK
6
CONTINUOUS
10
92.7776
20
-80.172
11
92.6626
21
-79.9998
0
LINE
8
BLACK
6
CONTINUOUS
10
92.6626
20
-79.9998
11
92.6556
21
-79.983
0
LINE
8
BLACK
6
CONTINUOUS
10
92.6556
20
-79.983
11
92.5834
21
-79.8086
0
LINE
8
BLACK
6
CONTINUOUS
10
92.5834
20
-79.8086
11
92.543
21
-79.6055
0
LINE
8
BLACK
6
CONTINUOUS
10
92.543
20
-79.6055
11
92.543
21
-79.3985
0
LINE
8
BLACK
6
CONTINUOUS
10
92.543
20
-79.3985
11
92.5834
21
-79.1954
0
LINE
8
BLACK
6
CONTINUOUS
10
92.5834
20
-79.1954
11
92.6626
21
-79.0042
0
LINE
8
BLACK
6
CONTINUOUS
10
92.6626
20
-79.0042
11
92.7776
21
-78.832
0
LINE
8
BLACK
6
CONTINUOUS
10
92.7776
20
-78.832
11
92.924
21
-78.6856
0
LINE
8
BLACK
6
CONTINUOUS
10
92.924
20
-78.6856
11
93.0962
21
-78.5706
0
LINE
8
BLACK
6
CONTINUOUS
10
93.0962
20
-78.5706
11
93.0962
21
-78.5706
0
LINE
8
BLACK
6
CONTINUOUS
10
93.0962
20
-78.5706
11
93.2874
21
-78.4914
0
LINE
8
BLACK
6
CONTINUOUS
10
93.2874
20
-78.4914
11
93.4905
21
-78.451
0
LINE
8
BLACK
6
CONTINUOUS
10
93.4905
20
-78.451
11
93.6975
21
-78.451
0
LINE
8
BLACK
6
CONTINUOUS
10
93.6975
20
-78.451
11
93.9006
21
-78.4914
0
LINE
8
BLACK
6
CONTINUOUS
10
53.9006
20
-78.4914
11
54.0918
21
-78.5706
0
LINE
8
BLACK
6
CONTINUOUS
10
54.0918
20
-78.5706
11
54.0918
21
-78.5706
0
LINE
8
BLACK
6
CONTINUOUS
10
54.0918
20
-78.5706
11
54.264
21
-78.6856
0
LINE
8
BLACK
6
CONTINUOUS
10
54.264
20
-78.6856
11
54.4104
21
-78.832
0
LINE
8
BLACK
6
CONTINUOUS
10
54.4104
20
-78.832
11
54.5254
21
-79.0042
0
LINE
8
BLACK
6
CONTINUOUS
10
54.5254
20
-79.0042
11
54.6046
21
-79.1954
0
LINE
8
BLACK
6
CONTINUOUS
10
54.6046
20
-79.1954
11
54.645
21
-79.3985
0
LINE
8
BLACK
6
CONTINUOUS
10
54.645
20
-79.3985
11
54.645
21
-79.6055
0
LINE
8
BLACK
6
CONTINUOUS
10
54.645
20
-79.6055
11
54.6046
21
-79.8086
0
LINE
8
BLACK
6
CONTINUOUS
10
54.6046
20
-79.8086
11
54.5324
21
-79.983
0
LINE
8
BLACK
6
CONTINUOUS
10
54.5324
20
-79.983
11
54.5254
21
-79.9998
0
LINE
8
BLACK
6
CONTINUOUS
10
54.5254
20
-79.9998
11
54.4104
21
-80.172
0
LINE
8
BLACK
6
CONTINUOUS
10
54.4104
20
-80.172
11
54.264
21
-80.3184
0
LINE
8
BLACK
6
CONTINUOUS
10
54.264
20
-80.3184
11
54.0918
21
-80.4334
0
LINE
8
BLACK
6
CONTINUOUS
10
54.0918
20
-80.4334
11
54.0918
21
-80.4334
0
LINE
8
BLACK
6
CONTINUOUS
10
54.0918
20
-80.4334
11
54.0918
21
-80.4334
0
LINE
8
BLACK
6
CONTINUOUS
10
54.0918
20
-80.4334
11
53.9006
21
-80.5126
0
LINE
8
BLACK
6
CONTINUOUS
10
53.9006
20
-80.5126
11
53.6975
21
-80.553
0
LINE
8
BLACK
6
CONTINUOUS
10
53.6975
20
-80.553
11
53.4905
21
-80.553
0
LINE
8
BLACK
6
CONTINUOUS
10
53.4905
20
-80.553
11
53.2874
21
-80.5126
0
LINE
8
BLACK
6
CONTINUOUS
10
53.2874
20
-80.5126
11
53.0962
21
-80.4334
0
LINE
8
BLACK
6
CONTINUOUS
10
53.0962
20
-80.4334
11
53.0962
21
-80.4334
0
LINE
8
BLACK
6
CONTINUOUS
10
53.0962
20
-80.4334
11
53.0962
21
-80.4334
0
LINE
8
BLACK
6
CONTINUOUS
10
53.0962
20
-80.4334
11
52.924
21
-80.3184
0
LINE
8
BLACK
6
CONTINUOUS
10
52.924
20
-80.3184
11
52.7776
21
-80.172
0
LINE
8
BLACK
6
CONTINUOUS
10
52.7776
20
-80.172
11
52.6626
21
-79.9998
0
LINE
8
BLACK
6
CONTINUOUS
10
52.6626
20
-79.9998
11
52.6556
21
-79.983
0
LINE
8
BLACK
6
CONTINUOUS
10
52.6556
20
-79.983
11
52.5834
21
-79.8086
0
LINE
8
BLACK
6
CONTINUOUS
10
52.5834
20
-79.8086
11
52.543
21
-79.6055
0
LINE
8
BLACK
6
CONTINUOUS
10
52.543
20
-79.6055
11
52.543
21
-79.3985
0
LINE
8
BLACK
6
CONTINUOUS
10
52.543
20
-79.3985
11
52.5834
21
-79.1954
0
LINE
8
BLACK
6
CONTINUOUS
10
52.5834
20
-79.1954
11
52.6626
21
-79.0042
0
LINE
8
BLACK
6
CONTINUOUS
10
52.6626
20
-79.0042
11
52.7776
21
-78.832
0
LINE
8
BLACK
6
CONTINUOUS
10
52.7776
20
-78.832
11
52.924
21
-78.6856
0
LINE
8
BLACK
6
CONTINUOUS
10
52.924
20
-78.6856
11
53.0962
21
-78.5706
0
LINE
8
BLACK
6
CONTINUOUS
10
53.0962
20
-78.5706
11
53.0962
21
-78.5706
0
LINE
8
BLACK
6
CONTINUOUS
10
53.0962
20
-78.5706
11
53.2874
21
-78.4914
0
LINE
8
BLACK
6
CONTINUOUS
10
53.2874
20
-78.4914
11
53.4905
21
-78.451
0
LINE
8
BLACK
6
CONTINUOUS
10
53.4905
20
-78.451
11
53.6975
21
-78.451
0
LINE
8
BLACK
6
CONTINUOUS
10
53.6975
20
-78.451
11
53.9006
21
-78.4914
0
LINE
8
BLACK
6
CONTINUOUS
10
144.829
20
-74.9328
11
144.978
21
-74.9626
0
LINE
8
BLACK
6
CONTINUOUS
10
144.978
20
-74.9626
11
145.261
21
-75.0795
0
LINE
8
BLACK
6
CONTINUOUS
10
145.261
20
-75.0795
11
145.515
21
-75.2493
0
LINE
8
BLACK
6
CONTINUOUS
10
145.515
20
-75.2493
11
145.731
21
-75.4653
0
LINE
8
BLACK
6
CONTINUOUS
10
145.731
20
-75.4653
11
145.9
21
-75.7193
0
LINE
8
BLACK
6
CONTINUOUS
10
145.9
20
-75.7193
11
146.017
21
-76.0016
0
LINE
8
BLACK
6
CONTINUOUS
10
146.017
20
-76.0016
11
146.077
21
-76.3012
0
LINE
8
BLACK
6
CONTINUOUS
10
146.077
20
-76.3012
11
146.077
21
-76.6068
0
LINE
8
BLACK
6
CONTINUOUS
10
146.077
20
-76.6068
11
146.017
21
-76.9064
0
LINE
8
BLACK
6
CONTINUOUS
10
146.017
20
-76.9064
11
145.9
21
-77.1887
0
LINE
8
BLACK
6
CONTINUOUS
10
145.9
20
-77.1887
11
145.731
21
-77.4427
0
LINE
8
BLACK
6
CONTINUOUS
10
145.731
20
-77.4427
11
145.515
21
-77.6587
0
LINE
8
BLACK
6
CONTINUOUS
10
145.515
20
-77.6587
11
145.261
21
-77.8285
0
LINE
8
BLACK
6
CONTINUOUS
10
145.261
20
-77.8285
11
144.978
21
-77.9454
0
LINE
8
BLACK
6
CONTINUOUS
10
144.978
20
-77.9454
11
144.829
21
-77.9752
0
LINE
8
BLACK
6
CONTINUOUS
10
144.829
20
-77.9752
11
144.679
21
-78.005
0
LINE
8
BLACK
6
CONTINUOUS
10
144.679
20
-78.005
11
144.373
21
-78.005
0
LINE
8
BLACK
6
CONTINUOUS
10
144.373
20
-78.005
11
144.223
21
-77.9752
0
LINE
8
BLACK
6
CONTINUOUS
10
144.223
20
-77.9752
11
144.074
21
-77.9454
0
LINE
8
BLACK
6
CONTINUOUS
10
144.074
20
-77.9454
11
143.791
21
-77.8285
0
LINE
8
BLACK
6
CONTINUOUS
10
143.791
20
-77.8285
11
143.537
21
-77.6587
0
LINE
8
BLACK
6
CONTINUOUS
10
143.537
20
-77.6587
11
143.321
21
-77.4427
0
LINE
8
BLACK
6
CONTINUOUS
10
143.321
20
-77.4427
11
143.152
21
-77.1887
0
LINE
8
BLACK
6
CONTINUOUS
10
143.152
20
-77.1887
11
143.035
21
-76.9064
0
LINE
8
BLACK
6
CONTINUOUS
10
143.035
20
-76.9064
11
142.975
21
-76.6068
0
LINE
8
BLACK
6
CONTINUOUS
10
142.975
20
-76.6068
11
142.975
21
-76.3012
0
LINE
8
BLACK
6
CONTINUOUS
10
142.975
20
-76.3012
11
143.035
21
-76.0016
0
LINE
8
BLACK
6
CONTINUOUS
10
143.035
20
-76.0016
11
143.152
21
-75.7193
0
LINE
8
BLACK
6
CONTINUOUS
10
143.152
20
-75.7193
11
143.321
21
-75.4653
0
LINE
8
BLACK
6
CONTINUOUS
10
143.321
20
-75.4653
11
143.537
21
-75.2493
0
LINE
8
BLACK
6
CONTINUOUS
10
143.537
20
-75.2493
11
143.791
21
-75.0795
0
LINE
8
BLACK
6
CONTINUOUS
10
143.791
20
-75.0795
11
144.074
21
-74.9626
0
LINE
8
BLACK
6
CONTINUOUS
10
144.074
20
-74.9626
11
144.223
21
-74.9328
0
LINE
8
BLACK
6
CONTINUOUS
10
144.223
20
-74.9328
11
144.373
21
-74.903
0
LINE
8
BLACK
6
CONTINUOUS
10
144.373
20
-74.903
11
144.679
21
-74.903
0
LINE
8
BLACK
6
CONTINUOUS
10
144.679
20
-74.903
11
144.829
21
-74.9328
0
LINE
8
BLACK
6
CONTINUOUS
10
70.039
20
-76.135
11
68.137
21
-76.135
0
LINE
8
BLACK
6
CONTINUOUS
10
68.137
20
-76.135
11
68.137
21
-74.233
0
LINE
8
BLACK
6
CONTINUOUS
10
68.137
20
-74.233
11
70.039
21
-74.233
0
LINE
8
BLACK
6
CONTINUOUS
10
70.039
20
-74.233
11
70.039
21
-76.135
0
LINE
8
BLACK
6
CONTINUOUS
10
69.3654
20
-71.7295
11
69.5385
21
-71.8012
0
LINE
8
BLACK
6
CONTINUOUS
10
69.5385
20
-71.8012
11
69.5385
21
-71.8012
0
LINE
8
BLACK
6
CONTINUOUS
10
69.5385
20
-71.8012
11
69.6942
21
-71.9053
0
LINE
8
BLACK
6
CONTINUOUS
10
69.6942
20
-71.9053
11
69.8267
21
-72.0378
0
LINE
8
BLACK
6
CONTINUOUS
10
69.8267
20
-72.0378
11
69.8267
21
-72.0378
0
LINE
8
BLACK
6
CONTINUOUS
10
69.8267
20
-72.0378
11
69.9308
21
-72.1935
0
LINE
8
BLACK
6
CONTINUOUS
10
69.9308
20
-72.1935
11
70.0025
21
-72.3666
0
LINE
8
BLACK
6
CONTINUOUS
10
70.0025
20
-72.3666
11
70.039
21
-72.5503
0
LINE
8
BLACK
6
CONTINUOUS
10
70.039
20
-72.5503
11
70.039
21
-72.7377
0
LINE
8
BLACK
6
CONTINUOUS
10
70.039
20
-72.7377
11
70.0025
21
-72.9214
0
LINE
8
BLACK
6
CONTINUOUS
10
70.0025
20
-72.9214
11
69.9308
21
-73.0945
0
LINE
8
BLACK
6
CONTINUOUS
10
69.9308
20
-73.0945
11
69.9308
21
-73.0945
0
LINE
8
BLACK
6
CONTINUOUS
10
69.9308
20
-73.0945
11
69.8267
21
-73.2502
0
LINE
8
BLACK
6
CONTINUOUS
10
69.8267
20
-73.2502
11
69.6942
21
-73.3827
0
LINE
8
BLACK
6
CONTINUOUS
10
69.6942
20
-73.3827
11
69.6158
21
-73.4351
0
LINE
8
BLACK
6
CONTINUOUS
10
69.6158
20
-73.4351
11
69.5385
21
-73.4868
0
LINE
8
BLACK
6
CONTINUOUS
10
69.5385
20
-73.4868
11
69.3654
21
-73.5585
0
LINE
8
BLACK
6
CONTINUOUS
10
69.3654
20
-73.5585
11
69.1817
21
-73.595
0
LINE
8
BLACK
6
CONTINUOUS
10
69.1817
20
-73.595
11
68.9943
21
-73.595
0
LINE
8
BLACK
6
CONTINUOUS
10
68.9943
20
-73.595
11
68.8106
21
-73.5585
0
LINE
8
BLACK
6
CONTINUOUS
10
68.8106
20
-73.5585
11
68.6375
21
-73.4868
0
LINE
8
BLACK
6
CONTINUOUS
10
68.6375
20
-73.4868
11
68.5602
21
-73.4351
0
LINE
8
BLACK
6
CONTINUOUS
10
68.5602
20
-73.4351
11
68.4818
21
-73.3827
0
LINE
8
BLACK
6
CONTINUOUS
10
68.4818
20
-73.3827
11
68.3493
21
-73.2502
0
LINE
8
BLACK
6
CONTINUOUS
10
68.3493
20
-73.2502
11
68.2452
21
-73.0945
0
LINE
8
BLACK
6
CONTINUOUS
10
68.2452
20
-73.0945
11
68.2452
21
-73.0945
0
LINE
8
BLACK
6
CONTINUOUS
10
68.2452
20
-73.0945
11
68.1735
21
-72.9214
0
LINE
8
BLACK
6
CONTINUOUS
10
68.1735
20
-72.9214
11
68.137
21
-72.7377
0
LINE
8
BLACK
6
CONTINUOUS
10
68.137
20
-72.7377
11
68.137
21
-72.5503
0
LINE
8
BLACK
6
CONTINUOUS
10
68.137
20
-72.5503
11
68.1735
21
-72.3666
0
LINE
8
BLACK
6
CONTINUOUS
10
68.1735
20
-72.3666
11
68.2452
21
-72.1935
0
LINE
8
BLACK
6
CONTINUOUS
10
68.2452
20
-72.1935
11
68.3493
21
-72.0378
0
LINE
8
BLACK
6
CONTINUOUS
10
68.3493
20
-72.0378
11
68.3493
21
-72.0378
0
LINE
8
BLACK
6
CONTINUOUS
10
68.3493
20
-72.0378
11
68.4818
21
-71.9053
0
LINE
8
BLACK
6
CONTINUOUS
10
68.4818
20
-71.9053
11
68.6375
21
-71.8012
0
LINE
8
BLACK
6
CONTINUOUS
10
68.6375
20
-71.8012
11
68.6375
21
-71.8012
0
LINE
8
BLACK
6
CONTINUOUS
10
68.6375
20
-71.8012
11
68.8106
21
-71.7295
0
LINE
8
BLACK
6
CONTINUOUS
10
68.8106
20
-71.7295
11
68.9943
21
-71.693
0
LINE
8
BLACK
6
CONTINUOUS
10
68.9943
20
-71.693
11
69.1817
21
-71.693
0
LINE
8
BLACK
6
CONTINUOUS
10
69.1817
20
-71.693
11
69.3654
21
-71.7295
0
LINE
8
BLACK
6
CONTINUOUS
10
144.829
20
-69.8528
11
144.978
21
-69.8826
0
LINE
8
BLACK
6
CONTINUOUS
10
144.978
20
-69.8826
11
145.261
21
-69.9995
0
LINE
8
BLACK
6
CONTINUOUS
10
145.261
20
-69.9995
11
145.515
21
-70.1693
0
LINE
8
BLACK
6
CONTINUOUS
10
145.515
20
-70.1693
11
145.731
21
-70.3853
0
LINE
8
BLACK
6
CONTINUOUS
10
145.731
20
-70.3853
11
145.9
21
-70.6393
0
LINE
8
BLACK
6
CONTINUOUS
10
145.9
20
-70.6393
11
146.017
21
-70.9216
0
LINE
8
BLACK
6
CONTINUOUS
10
146.017
20
-70.9216
11
146.077
21
-71.2212
0
LINE
8
BLACK
6
CONTINUOUS
10
146.077
20
-71.2212
11
146.077
21
-71.5268
0
LINE
8
BLACK
6
CONTINUOUS
10
146.077
20
-71.5268
11
146.017
21
-71.8264
0
LINE
8
BLACK
6
CONTINUOUS
10
146.017
20
-71.8264
11
145.9
21
-72.1087
0
LINE
8
BLACK
6
CONTINUOUS
10
145.9
20
-72.1087
11
145.731
21
-72.3627
0
LINE
8
BLACK
6
CONTINUOUS
10
145.731
20
-72.3627
11
145.515
21
-72.5787
0
LINE
8
BLACK
6
CONTINUOUS
10
145.515
20
-72.5787
11
145.261
21
-72.7485
0
LINE
8
BLACK
6
CONTINUOUS
10
145.261
20
-72.7485
11
144.978
21
-72.8654
0
LINE
8
BLACK
6
CONTINUOUS
10
144.978
20
-72.8654
11
144.829
21
-72.8952
0
LINE
8
BLACK
6
CONTINUOUS
10
144.829
20
-72.8952
11
144.679
21
-72.925
0
LINE
8
BLACK
6
CONTINUOUS
10
144.679
20
-72.925
11
144.373
21
-72.925
0
LINE
8
BLACK
6
CONTINUOUS
10
144.373
20
-72.925
11
144.223
21
-72.8952
0
LINE
8
BLACK
6
CONTINUOUS
10
144.223
20
-72.8952
11
144.074
21
-72.8654
0
LINE
8
BLACK
6
CONTINUOUS
10
144.074
20
-72.8654
11
143.791
21
-72.7485
0
LINE
8
BLACK
6
CONTINUOUS
10
143.791
20
-72.7485
11
143.537
21
-72.5787
0
LINE
8
BLACK
6
CONTINUOUS
10
143.537
20
-72.5787
11
143.321
21
-72.3627
0
LINE
8
BLACK
6
CONTINUOUS
10
143.321
20
-72.3627
11
143.152
21
-72.1087
0
LINE
8
BLACK
6
CONTINUOUS
10
143.152
20
-72.1087
11
143.035
21
-71.8264
0
LINE
8
BLACK
6
CONTINUOUS
10
143.035
20
-71.8264
11
142.975
21
-71.5268
0
LINE
8
BLACK
6
CONTINUOUS
10
142.975
20
-71.5268
11
142.975
21
-71.2212
0
LINE
8
BLACK
6
CONTINUOUS
10
142.975
20
-71.2212
11
143.035
21
-70.9216
0
LINE
8
BLACK
6
CONTINUOUS
10
143.035
20
-70.9216
11
143.152
21
-70.6393
0
LINE
8
BLACK
6
CONTINUOUS
10
143.152
20
-70.6393
11
143.321
21
-70.3853
0
LINE
8
BLACK
6
CONTINUOUS
10
143.321
20
-70.3853
11
143.537
21
-70.1693
0
LINE
8
BLACK
6
CONTINUOUS
10
143.537
20
-70.1693
11
143.791
21
-69.9995
0
LINE
8
BLACK
6
CONTINUOUS
10
143.791
20
-69.9995
11
144.074
21
-69.8826
0
LINE
8
BLACK
6
CONTINUOUS
10
144.074
20
-69.8826
11
144.223
21
-69.8528
0
LINE
8
BLACK
6
CONTINUOUS
10
144.223
20
-69.8528
11
144.373
21
-69.823
0
LINE
8
BLACK
6
CONTINUOUS
10
144.373
20
-69.823
11
144.679
21
-69.823
0
LINE
8
BLACK
6
CONTINUOUS
10
144.679
20
-69.823
11
144.829
21
-69.8528
0
LINE
8
BLACK
6
CONTINUOUS
10
138.997
20
-68.899
11
137.371
21
-68.899
0
LINE
8
BLACK
6
CONTINUOUS
10
137.371
20
-68.899
11
137.371
21
-67.273
0
LINE
8
BLACK
6
CONTINUOUS
10
137.371
20
-67.273
11
138.997
21
-67.273
0
LINE
8
BLACK
6
CONTINUOUS
10
138.997
20
-67.273
11
138.997
21
-68.899
0
LINE
8
BLACK
6
CONTINUOUS
10
75.997
20
-68.899
11
74.371
21
-68.899
0
LINE
8
BLACK
6
CONTINUOUS
10
74.371
20
-68.899
11
74.371
21
-67.273
0
LINE
8
BLACK
6
CONTINUOUS
10
74.371
20
-67.273
11
75.997
21
-67.273
0
LINE
8
BLACK
6
CONTINUOUS
10
75.997
20
-67.273
11
75.997
21
-68.899
0
LINE
8
BLACK
6
CONTINUOUS
10
52.4349
20
-65.3451
11
52.5352
21
-65.3866
0
LINE
8
BLACK
6
CONTINUOUS
10
52.5352
20
-65.3866
11
52.6626
21
-65.4394
0
LINE
8
BLACK
6
CONTINUOUS
10
52.6626
20
-65.4394
11
52.8675
21
-65.5763
0
LINE
8
BLACK
6
CONTINUOUS
10
52.8675
20
-65.5763
11
53.0417
21
-65.7505
0
LINE
8
BLACK
6
CONTINUOUS
10
53.0417
20
-65.7505
11
53.1786
21
-65.9554
0
LINE
8
BLACK
6
CONTINUOUS
10
53.1786
20
-65.9554
11
53.2729
21
-66.1831
0
LINE
8
BLACK
6
CONTINUOUS
10
53.2729
20
-66.1831
11
53.321
21
-66.4248
0
LINE
8
BLACK
6
CONTINUOUS
10
53.321
20
-66.4248
11
53.321
21
-66.6712
0
LINE
8
BLACK
6
CONTINUOUS
10
53.321
20
-66.6712
11
53.2729
21
-66.9129
0
LINE
8
BLACK
6
CONTINUOUS
10
53.2729
20
-66.9129
11
53.1786
21
-67.1406
0
LINE
8
BLACK
6
CONTINUOUS
10
53.1786
20
-67.1406
11
53.0417
21
-67.3455
0
LINE
8
BLACK
6
CONTINUOUS
10
53.0417
20
-67.3455
11
52.8675
21
-67.5197
0
LINE
8
BLACK
6
CONTINUOUS
10
52.8675
20
-67.5197
11
52.6626
21
-67.6566
0
LINE
8
BLACK
6
CONTINUOUS
10
52.6626
20
-67.6566
11
52.6626
21
-67.6566
0
LINE
8
BLACK
6
CONTINUOUS
10
52.6626
20
-67.6566
11
52.6626
21
-67.6566
0
LINE
8
BLACK
6
CONTINUOUS
10
52.6626
20
-67.6566
11
52.4349
21
-67.7509
0
LINE
8
BLACK
6
CONTINUOUS
10
52.4349
20
-67.7509
11
52.1932
21
-67.799
0
LINE
8
BLACK
6
CONTINUOUS
10
52.1932
20
-67.799
11
51.9468
21
-67.799
0
LINE
8
BLACK
6
CONTINUOUS
10
51.9468
20
-67.799
11
51.7051
21
-67.7509
0
LINE
8
BLACK
6
CONTINUOUS
10
51.7051
20
-67.7509
11
51.4774
21
-67.6566
0
LINE
8
BLACK
6
CONTINUOUS
10
51.4774
20
-67.6566
11
51.4774
21
-67.6566
0
LINE
8
BLACK
6
CONTINUOUS
10
51.4774
20
-67.6566
11
51.4774
21
-67.6566
0
LINE
8
BLACK
6
CONTINUOUS
10
51.4774
20
-67.6566
11
51.2725
21
-67.5197
0
LINE
8
BLACK
6
CONTINUOUS
10
51.2725
20
-67.5197
11
51.0983
21
-67.3455
0
LINE
8
BLACK
6
CONTINUOUS
10
51.0983
20
-67.3455
11
50.9614
21
-67.1406
0
LINE
8
BLACK
6
CONTINUOUS
10
50.9614
20
-67.1406
11
50.8671
21
-66.9129
0
LINE
8
BLACK
6
CONTINUOUS
10
50.8671
20
-66.9129
11
50.819
21
-66.6712
0
LINE
8
BLACK
6
CONTINUOUS
10
50.819
20
-66.6712
11
50.819
21
-66.4248
0
LINE
8
BLACK
6
CONTINUOUS
10
50.819
20
-66.4248
11
50.8671
21
-66.1831
0
LINE
8
BLACK
6
CONTINUOUS
10
50.8671
20
-66.1831
11
50.9614
21
-65.9554
0
LINE
8
BLACK
6
CONTINUOUS
10
50.9614
20
-65.9554
11
51.0983
21
-65.7505
0
LINE
8
BLACK
6
CONTINUOUS
10
51.0983
20
-65.7505
11
51.2725
21
-65.5763
0
LINE
8
BLACK
6
CONTINUOUS
10
51.2725
20
-65.5763
11
51.4774
21
-65.4394
0
LINE
8
BLACK
6
CONTINUOUS
10
51.4774
20
-65.4394
11
51.6048
21
-65.3866
0
LINE
8
BLACK
6
CONTINUOUS
10
51.6048
20
-65.3866
11
51.7051
21
-65.3451
0
LINE
8
BLACK
6
CONTINUOUS
10
51.7051
20
-65.3451
11
51.9468
21
-65.297
0
LINE
8
BLACK
6
CONTINUOUS
10
51.9468
20
-65.297
11
52.1932
21
-65.297
0
LINE
8
BLACK
6
CONTINUOUS
10
52.1932
20
-65.297
11
52.4349
21
-65.3451
0
LINE
8
BLACK
6
CONTINUOUS
10
72.6352
20
-65.3151
11
72.8711
21
-65.3866
0
LINE
8
BLACK
6
CONTINUOUS
10
72.8711
20
-65.3866
11
73.0884
21
-65.5028
0
LINE
8
BLACK
6
CONTINUOUS
10
73.0884
20
-65.5028
11
73.2789
21
-65.6591
0
LINE
8
BLACK
6
CONTINUOUS
10
73.2789
20
-65.6591
11
73.4352
21
-65.8496
0
LINE
8
BLACK
6
CONTINUOUS
10
73.4352
20
-65.8496
11
73.5514
21
-66.0669
0
LINE
8
BLACK
6
CONTINUOUS
10
73.5514
20
-66.0669
11
73.6229
21
-66.3028
0
LINE
8
BLACK
6
CONTINUOUS
10
73.6229
20
-66.3028
11
73.6471
21
-66.548
0
LINE
8
BLACK
6
CONTINUOUS
10
73.6471
20
-66.548
11
73.6229
21
-66.7932
0
LINE
8
BLACK
6
CONTINUOUS
10
73.6229
20
-66.7932
11
73.5514
21
-67.0291
0
LINE
8
BLACK
6
CONTINUOUS
10
73.5514
20
-67.0291
11
73.4352
21
-67.2464
0
LINE
8
BLACK
6
CONTINUOUS
10
73.4352
20
-67.2464
11
73.2789
21
-67.4369
0
LINE
8
BLACK
6
CONTINUOUS
10
73.2789
20
-67.4369
11
73.0884
21
-67.5932
0
LINE
8
BLACK
6
CONTINUOUS
10
73.0884
20
-67.5932
11
72.8711
21
-67.7094
0
LINE
8
BLACK
6
CONTINUOUS
10
72.8711
20
-67.7094
11
72.6352
21
-67.7809
0
LINE
8
BLACK
6
CONTINUOUS
10
72.6352
20
-67.7809
11
72.4515
21
-67.799
0
LINE
8
BLACK
6
CONTINUOUS
10
72.4515
20
-67.799
11
72.3285
21
-67.799
0
LINE
8
BLACK
6
CONTINUOUS
10
72.3285
20
-67.799
11
72.1448
21
-67.7809
0
LINE
8
BLACK
6
CONTINUOUS
10
72.1448
20
-67.7809
11
71.9089
21
-67.7094
0
LINE
8
BLACK
6
CONTINUOUS
10
71.9089
20
-67.7094
11
71.6916
21
-67.5932
0
LINE
8
BLACK
6
CONTINUOUS
10
71.6916
20
-67.5932
11
71.5011
21
-67.4369
0
LINE
8
BLACK
6
CONTINUOUS
10
71.5011
20
-67.4369
11
71.3448
21
-67.2464
0
LINE
8
BLACK
6
CONTINUOUS
10
71.3448
20
-67.2464
11
71.2286
21
-67.0291
0
LINE
8
BLACK
6
CONTINUOUS
10
71.2286
20
-67.0291
11
71.1571
21
-66.7932
0
LINE
8
BLACK
6
CONTINUOUS
10
71.1571
20
-66.7932
11
71.1329
21
-66.548
0
LINE
8
BLACK
6
CONTINUOUS
10
71.1329
20
-66.548
11
71.1571
21
-66.3028
0
LINE
8
BLACK
6
CONTINUOUS
10
71.1571
20
-66.3028
11
71.2286
21
-66.0669
0
LINE
8
BLACK
6
CONTINUOUS
10
71.2286
20
-66.0669
11
71.3448
21
-65.8496
0
LINE
8
BLACK
6
CONTINUOUS
10
71.3448
20
-65.8496
11
71.5011
21
-65.6591
0
LINE
8
BLACK
6
CONTINUOUS
10
71.5011
20
-65.6591
11
71.6916
21
-65.5028
0
LINE
8
BLACK
6
CONTINUOUS
10
71.6916
20
-65.5028
11
71.9089
21
-65.3866
0
LINE
8
BLACK
6
CONTINUOUS
10
71.9089
20
-65.3866
11
72.1448
21
-65.3151
0
LINE
8
BLACK
6
CONTINUOUS
10
72.1448
20
-65.3151
11
72.3285
21
-65.297
0
LINE
8
BLACK
6
CONTINUOUS
10
72.3285
20
-65.297
11
72.4515
21
-65.297
0
LINE
8
BLACK
6
CONTINUOUS
10
72.4515
20
-65.297
11
72.6352
21
-65.3151
0
LINE
8
BLACK
6
CONTINUOUS
10
146.077
20
-66.829
11
142.975
21
-66.829
0
LINE
8
BLACK
6
CONTINUOUS
10
142.975
20
-66.829
11
142.975
21
-63.727
0
LINE
8
BLACK
6
CONTINUOUS
10
142.975
20
-63.727
11
146.077
21
-63.727
0
LINE
8
BLACK
6
CONTINUOUS
10
146.077
20
-63.727
11
146.077
21
-66.829
0
LINE
8
BLACK
6
CONTINUOUS
10
144.829
20
-58.6768
11
144.978
21
-58.7066
0
LINE
8
BLACK
6
CONTINUOUS
10
144.978
20
-58.7066
11
145.261
21
-58.8235
0
LINE
8
BLACK
6
CONTINUOUS
10
145.261
20
-58.8235
11
145.515
21
-58.9933
0
LINE
8
BLACK
6
CONTINUOUS
10
145.515
20
-58.9933
11
145.731
21
-59.2093
0
LINE
8
BLACK
6
CONTINUOUS
10
145.731
20
-59.2093
11
145.9
21
-59.4633
0
LINE
8
BLACK
6
CONTINUOUS
10
145.9
20
-59.4633
11
146.017
21
-59.7456
0
LINE
8
BLACK
6
CONTINUOUS
10
146.017
20
-59.7456
11
146.077
21
-60.0452
0
LINE
8
BLACK
6
CONTINUOUS
10
146.077
20
-60.0452
11
146.077
21
-60.3508
0
LINE
8
BLACK
6
CONTINUOUS
10
146.077
20
-60.3508
11
146.017
21
-60.6504
0
LINE
8
BLACK
6
CONTINUOUS
10
146.017
20
-60.6504
11
145.9
21
-60.9327
0
LINE
8
BLACK
6
CONTINUOUS
10
145.9
20
-60.9327
11
145.731
21
-61.1867
0
LINE
8
BLACK
6
CONTINUOUS
10
145.731
20
-61.1867
11
145.515
21
-61.4027
0
LINE
8
BLACK
6
CONTINUOUS
10
145.515
20
-61.4027
11
145.261
21
-61.5725
0
LINE
8
BLACK
6
CONTINUOUS
10
145.261
20
-61.5725
11
144.978
21
-61.6894
0
LINE
8
BLACK
6
CONTINUOUS
10
144.978
20
-61.6894
11
144.829
21
-61.7192
0
LINE
8
BLACK
6
CONTINUOUS
10
144.829
20
-61.7192
11
144.679
21
-61.749
0
LINE
8
BLACK
6
CONTINUOUS
10
144.679
20
-61.749
11
144.373
21
-61.749
0
LINE
8
BLACK
6
CONTINUOUS
10
144.373
20
-61.749
11
144.223
21
-61.7192
0
LINE
8
BLACK
6
CONTINUOUS
10
144.223
20
-61.7192
11
144.074
21
-61.6894
0
LINE
8
BLACK
6
CONTINUOUS
10
144.074
20
-61.6894
11
143.791
21
-61.5725
0
LINE
8
BLACK
6
CONTINUOUS
10
143.791
20
-61.5725
11
143.537
21
-61.4027
0
LINE
8
BLACK
6
CONTINUOUS
10
143.537
20
-61.4027
11
143.321
21
-61.1867
0
LINE
8
BLACK
6
CONTINUOUS
10
143.321
20
-61.1867
11
143.152
21
-60.9327
0
LINE
8
BLACK
6
CONTINUOUS
10
143.152
20
-60.9327
11
143.035
21
-60.6504
0
LINE
8
BLACK
6
CONTINUOUS
10
143.035
20
-60.6504
11
142.975
21
-60.3508
0
LINE
8
BLACK
6
CONTINUOUS
10
142.975
20
-60.3508
11
142.975
21
-60.0452
0
LINE
8
BLACK
6
CONTINUOUS
10
142.975
20
-60.0452
11
143.035
21
-59.7456
0
LINE
8
BLACK
6
CONTINUOUS
10
143.035
20
-59.7456
11
143.152
21
-59.4633
0
LINE
8
BLACK
6
CONTINUOUS
10
143.152
20
-59.4633
11
143.321
21
-59.2093
0
LINE
8
BLACK
6
CONTINUOUS
10
143.321
20
-59.2093
11
143.537
21
-58.9933
0
LINE
8
BLACK
6
CONTINUOUS
10
143.537
20
-58.9933
11
143.791
21
-58.8235
0
LINE
8
BLACK
6
CONTINUOUS
10
143.791
20
-58.8235
11
144.074
21
-58.7066
0
LINE
8
BLACK
6
CONTINUOUS
10
144.074
20
-58.7066
11
144.223
21
-58.6768
0
LINE
8
BLACK
6
CONTINUOUS
10
144.223
20
-58.6768
11
144.373
21
-58.647
0
LINE
8
BLACK
6
CONTINUOUS
10
144.373
20
-58.647
11
144.679
21
-58.647
0
LINE
8
BLACK
6
CONTINUOUS
10
144.679
20
-58.647
11
144.829
21
-58.6768
0
LINE
8
BLACK
6
CONTINUOUS
10
68.6466
20
-58.4254
11
68.8378
21
-58.5046
0
LINE
8
BLACK
6
CONTINUOUS
10
68.8378
20
-58.5046
11
68.8378
21
-58.5046
0
LINE
8
BLACK
6
CONTINUOUS
10
68.8378
20
-58.5046
11
69.01
21
-58.6196
0
LINE
8
BLACK
6
CONTINUOUS
10
69.01
20
-58.6196
11
69.1564
21
-58.766
0
LINE
8
BLACK
6
CONTINUOUS
10
69.1564
20
-58.766
11
69.2714
21
-58.9382
0
LINE
8
BLACK
6
CONTINUOUS
10
69.2714
20
-58.9382
11
69.3506
21
-59.1294
0
LINE
8
BLACK
6
CONTINUOUS
10
69.3506
20
-59.1294
11
69.391
21
-59.3325
0
LINE
8
BLACK
6
CONTINUOUS
10
69.391
20
-59.3325
11
69.391
21
-59.5395
0
LINE
8
BLACK
6
CONTINUOUS
10
69.391
20
-59.5395
11
69.3506
21
-59.7426
0
LINE
8
BLACK
6
CONTINUOUS
10
69.3506
20
-59.7426
11
69.3494
21
-59.7456
0
LINE
8
BLACK
6
CONTINUOUS
10
69.3494
20
-59.7456
11
69.2714
21
-59.9338
0
LINE
8
BLACK
6
CONTINUOUS
10
69.2714
20
-59.9338
11
69.1564
21
-60.106
0
LINE
8
BLACK
6
CONTINUOUS
10
69.1564
20
-60.106
11
69.01
21
-60.2524
0
LINE
8
BLACK
6
CONTINUOUS
10
69.01
20
-60.2524
11
68.8378
21
-60.3674
0
LINE
8
BLACK
6
CONTINUOUS
10
68.8378
20
-60.3674
11
68.8378
21
-60.3674
0
LINE
8
BLACK
6
CONTINUOUS
10
68.8378
20
-60.3674
11
68.8378
21
-60.3674
0
LINE
8
BLACK
6
CONTINUOUS
10
68.8378
20
-60.3674
11
68.6466
21
-60.4466
0
LINE
8
BLACK
6
CONTINUOUS
10
68.6466
20
-60.4466
11
68.4435
21
-60.487
0
LINE
8
BLACK
6
CONTINUOUS
10
68.4435
20
-60.487
11
68.2365
21
-60.487
0
LINE
8
BLACK
6
CONTINUOUS
10
68.2365
20
-60.487
11
68.0334
21
-60.4466
0
LINE
8
BLACK
6
CONTINUOUS
10
68.0334
20
-60.4466
11
67.8422
21
-60.3674
0
LINE
8
BLACK
6
CONTINUOUS
10
67.8422
20
-60.3674
11
67.8422
21
-60.3674
0
LINE
8
BLACK
6
CONTINUOUS
10
67.8422
20
-60.3674
11
67.8422
21
-60.3674
0
LINE
8
BLACK
6
CONTINUOUS
10
67.8422
20
-60.3674
11
67.67
21
-60.2524
0
LINE
8
BLACK
6
CONTINUOUS
10
67.67
20
-60.2524
11
67.5236
21
-60.106
0
LINE
8
BLACK
6
CONTINUOUS
10
67.5236
20
-60.106
11
67.4086
21
-59.9338
0
LINE
8
BLACK
6
CONTINUOUS
10
67.4086
20
-59.9338
11
67.3306
21
-59.7456
0
LINE
8
BLACK
6
CONTINUOUS
10
67.3306
20
-59.7456
11
67.3294
21
-59.7426
0
LINE
8
BLACK
6
CONTINUOUS
10
67.3294
20
-59.7426
11
67.289
21
-59.5395
0
LINE
8
BLACK
6
CONTINUOUS
10
67.289
20
-59.5395
11
67.289
21
-59.3325
0
LINE
8
BLACK
6
CONTINUOUS
10
67.289
20
-59.3325
11
67.3294
21
-59.1294
0
LINE
8
BLACK
6
CONTINUOUS
10
67.3294
20
-59.1294
11
67.4086
21
-58.9382
0
LINE
8
BLACK
6
CONTINUOUS
10
67.4086
20
-58.9382
11
67.5236
21
-58.766
0
LINE
8
BLACK
6
CONTINUOUS
10
67.5236
20
-58.766
11
67.67
21
-58.6196
0
LINE
8
BLACK
6
CONTINUOUS
10
67.67
20
-58.6196
11
67.8422
21
-58.5046
0
LINE
8
BLACK
6
CONTINUOUS
10
67.8422
20
-58.5046
11
67.8422
21
-58.5046
0
LINE
8
BLACK
6
CONTINUOUS
10
67.8422
20
-58.5046
11
68.0334
21
-58.4254
0
LINE
8
BLACK
6
CONTINUOUS
10
68.0334
20
-58.4254
11
68.2365
21
-58.385
0
LINE
8
BLACK
6
CONTINUOUS
10
68.2365
20
-58.385
11
68.4435
21
-58.385
0
LINE
8
BLACK
6
CONTINUOUS
10
68.4435
20
-58.385
11
68.6466
21
-58.4254
0
LINE
8
BLACK
6
CONTINUOUS
10
53.6466
20
-58.4254
11
53.8378
21
-58.5046
0
LINE
8
BLACK
6
CONTINUOUS
10
53.8378
20
-58.5046
11
53.8378
21
-58.5046
0
LINE
8
BLACK
6
CONTINUOUS
10
53.8378
20
-58.5046
11
54.01
21
-58.6196
0
LINE
8
BLACK
6
CONTINUOUS
10
54.01
20
-58.6196
11
54.1564
21
-58.766
0
LINE
8
BLACK
6
CONTINUOUS
10
54.1564
20
-58.766
11
54.2714
21
-58.9382
0
LINE
8
BLACK
6
CONTINUOUS
10
54.2714
20
-58.9382
11
54.3506
21
-59.1294
0
LINE
8
BLACK
6
CONTINUOUS
10
54.3506
20
-59.1294
11
54.391
21
-59.3325
0
LINE
8
BLACK
6
CONTINUOUS
10
54.391
20
-59.3325
11
54.391
21
-59.5395
0
LINE
8
BLACK
6
CONTINUOUS
10
54.391
20
-59.5395
11
54.3506
21
-59.7426
0
LINE
8
BLACK
6
CONTINUOUS
10
54.3506
20
-59.7426
11
54.3494
21
-59.7456
0
LINE
8
BLACK
6
CONTINUOUS
10
54.3494
20
-59.7456
11
54.2714
21
-59.9338
0
LINE
8
BLACK
6
CONTINUOUS
10
54.2714
20
-59.9338
11
54.1564
21
-60.106
0
LINE
8
BLACK
6
CONTINUOUS
10
54.1564
20
-60.106
11
54.01
21
-60.2524
0
LINE
8
BLACK
6
CONTINUOUS
10
54.01
20
-60.2524
11
53.8378
21
-60.3674
0
LINE
8
BLACK
6
CONTINUOUS
10
53.8378
20
-60.3674
11
53.8378
21
-60.3674
0
LINE
8
BLACK
6
CONTINUOUS
10
53.8378
20
-60.3674
11
53.8378
21
-60.3674
0
LINE
8
BLACK
6
CONTINUOUS
10
53.8378
20
-60.3674
11
53.6466
21
-60.4466
0
LINE
8
BLACK
6
CONTINUOUS
10
53.6466
20
-60.4466
11
53.4435
21
-60.487
0
LINE
8
BLACK
6
CONTINUOUS
10
53.4435
20
-60.487
11
53.2365
21
-60.487
0
LINE
8
BLACK
6
CONTINUOUS
10
53.2365
20
-60.487
11
53.0334
21
-60.4466
0
LINE
8
BLACK
6
CONTINUOUS
10
53.0334
20
-60.4466
11
52.8422
21
-60.3674
0
LINE
8
BLACK
6
CONTINUOUS
10
52.8422
20
-60.3674
11
52.8422
21
-60.3674
0
LINE
8
BLACK
6
CONTINUOUS
10
52.8422
20
-60.3674
11
52.8422
21
-60.3674
0
LINE
8
BLACK
6
CONTINUOUS
10
52.8422
20
-60.3674
11
52.67
21
-60.2524
0
LINE
8
BLACK
6
CONTINUOUS
10
52.67
20
-60.2524
11
52.5236
21
-60.106
0
LINE
8
BLACK
6
CONTINUOUS
10
52.5236
20
-60.106
11
52.4086
21
-59.9338
0
LINE
8
BLACK
6
CONTINUOUS
10
52.4086
20
-59.9338
11
52.3306
21
-59.7456
0
LINE
8
BLACK
6
CONTINUOUS
10
52.3306
20
-59.7456
11
52.3294
21
-59.7426
0
LINE
8
BLACK
6
CONTINUOUS
10
52.3294
20
-59.7426
11
52.289
21
-59.5395
0
LINE
8
BLACK
6
CONTINUOUS
10
52.289
20
-59.5395
11
52.289
21
-59.3325
0
LINE
8
BLACK
6
CONTINUOUS
10
52.289
20
-59.3325
11
52.3294
21
-59.1294
0
LINE
8
BLACK
6
CONTINUOUS
10
52.3294
20
-59.1294
11
52.4086
21
-58.9382
0
LINE
8
BLACK
6
CONTINUOUS
10
52.4086
20
-58.9382
11
52.5236
21
-58.766
0
LINE
8
BLACK
6
CONTINUOUS
10
52.5236
20
-58.766
11
52.67
21
-58.6196
0
LINE
8
BLACK
6
CONTINUOUS
10
52.67
20
-58.6196
11
52.8422
21
-58.5046
0
LINE
8
BLACK
6
CONTINUOUS
10
52.8422
20
-58.5046
11
52.8422
21
-58.5046
0
LINE
8
BLACK
6
CONTINUOUS
10
52.8422
20
-58.5046
11
53.0334
21
-58.4254
0
LINE
8
BLACK
6
CONTINUOUS
10
53.0334
20
-58.4254
11
53.2365
21
-58.385
0
LINE
8
BLACK
6
CONTINUOUS
10
53.2365
20
-58.385
11
53.4435
21
-58.385
0
LINE
8
BLACK
6
CONTINUOUS
10
53.4435
20
-58.385
11
53.6466
21
-58.4254
0
LINE
8
BLACK
6
CONTINUOUS
10
146.077
20
-55.907
11
142.975
21
-55.907
0
LINE
8
BLACK
6
CONTINUOUS
10
142.975
20
-55.907
11
142.975
21
-52.805
0
LINE
8
BLACK
6
CONTINUOUS
10
142.975
20
-52.805
11
146.077
21
-52.805
0
LINE
8
BLACK
6
CONTINUOUS
10
146.077
20
-52.805
11
146.077
21
-55.907
0
LINE
8
BLACK
6
CONTINUOUS
10
138.997
20
-53.899
11
137.371
21
-53.899
0
LINE
8
BLACK
6
CONTINUOUS
10
137.371
20
-53.899
11
137.371
21
-52.273
0
LINE
8
BLACK
6
CONTINUOUS
10
137.371
20
-52.273
11
138.997
21
-52.273
0
LINE
8
BLACK
6
CONTINUOUS
10
138.997
20
-52.273
11
138.997
21
-53.899
0
LINE
8
BLACK
6
CONTINUOUS
10
75.997
20
-53.899
11
74.371
21
-53.899
0
LINE
8
BLACK
6
CONTINUOUS
10
74.371
20
-53.899
11
74.371
21
-52.273
0
LINE
8
BLACK
6
CONTINUOUS
10
74.371
20
-52.273
11
75.997
21
-52.273
0
LINE
8
BLACK
6
CONTINUOUS
10
75.997
20
-52.273
11
75.997
21
-53.899
0
LINE
8
BLACK
6
CONTINUOUS
10
71.401
20
-51.081
11
68.299
21
-51.081
0
LINE
8
BLACK
6
CONTINUOUS
10
68.299
20
-51.081
11
68.299
21
-47.979
0
LINE
8
BLACK
6
CONTINUOUS
10
68.299
20
-47.979
11
71.401
21
-47.979
0
LINE
8
BLACK
6
CONTINUOUS
10
71.401
20
-47.979
11
71.401
21
-51.081
0
LINE
8
BLACK
6
CONTINUOUS
10
53.3886
20
-48.0088
11
53.5384
21
-48.0386
0
LINE
8
BLACK
6
CONTINUOUS
10
53.5384
20
-48.0386
11
53.8207
21
-48.1555
0
LINE
8
BLACK
6
CONTINUOUS
10
53.8207
20
-48.1555
11
54.0747
21
-48.3253
0
LINE
8
BLACK
6
CONTINUOUS
10
54.0747
20
-48.3253
11
54.2907
21
-48.5413
0
LINE
8
BLACK
6
CONTINUOUS
10
54.2907
20
-48.5413
11
54.4605
21
-48.7953
0
LINE
8
BLACK
6
CONTINUOUS
10
54.4605
20
-48.7953
11
54.5774
21
-49.0776
0
LINE
8
BLACK
6
CONTINUOUS
10
54.5774
20
-49.0776
11
54.637
21
-49.3772
0
LINE
8
BLACK
6
CONTINUOUS
10
54.637
20
-49.3772
11
54.637
21
-49.6828
0
LINE
8
BLACK
6
CONTINUOUS
10
54.637
20
-49.6828
11
54.5774
21
-49.9824
0
LINE
8
BLACK
6
CONTINUOUS
10
54.5774
20
-49.9824
11
54.4605
21
-50.2647
0
LINE
8
BLACK
6
CONTINUOUS
10
54.4605
20
-50.2647
11
54.2907
21
-50.5187
0
LINE
8
BLACK
6
CONTINUOUS
10
54.2907
20
-50.5187
11
54.0747
21
-50.7347
0
LINE
8
BLACK
6
CONTINUOUS
10
54.0747
20
-50.7347
11
53.8207
21
-50.9045
0
LINE
8
BLACK
6
CONTINUOUS
10
53.8207
20
-50.9045
11
53.5384
21
-51.0214
0
LINE
8
BLACK
6
CONTINUOUS
10
53.5384
20
-51.0214
11
53.3886
21
-51.0512
0
LINE
8
BLACK
6
CONTINUOUS
10
53.3886
20
-51.0512
11
53.2388
21
-51.081
0
LINE
8
BLACK
6
CONTINUOUS
10
53.2388
20
-51.081
11
52.9332
21
-51.081
0
LINE
8
BLACK
6
CONTINUOUS
10
52.9332
20
-51.081
11
52.7834
21
-51.0512
0
LINE
8
BLACK
6
CONTINUOUS
10
52.7834
20
-51.0512
11
52.6336
21
-51.0214
0
LINE
8
BLACK
6
CONTINUOUS
10
52.6336
20
-51.0214
11
52.3513
21
-50.9045
0
LINE
8
BLACK
6
CONTINUOUS
10
52.3513
20
-50.9045
11
52.0973
21
-50.7347
0
LINE
8
BLACK
6
CONTINUOUS
10
52.0973
20
-50.7347
11
51.8813
21
-50.5187
0
LINE
8
BLACK
6
CONTINUOUS
10
51.8813
20
-50.5187
11
51.7115
21
-50.2647
0
LINE
8
BLACK
6
CONTINUOUS
10
51.7115
20
-50.2647
11
51.5946
21
-49.9824
0
LINE
8
BLACK
6
CONTINUOUS
10
51.5946
20
-49.9824
11
51.535
21
-49.6828
0
LINE
8
BLACK
6
CONTINUOUS
10
51.535
20
-49.6828
11
51.535
21
-49.3772
0
LINE
8
BLACK
6
CONTINUOUS
10
51.535
20
-49.3772
11
51.5946
21
-49.0776
0
LINE
8
BLACK
6
CONTINUOUS
10
51.5946
20
-49.0776
11
51.7115
21
-48.7953
0
LINE
8
BLACK
6
CONTINUOUS
10
51.7115
20
-48.7953
11
51.8813
21
-48.5413
0
LINE
8
BLACK
6
CONTINUOUS
10
51.8813
20
-48.5413
11
52.0973
21
-48.3253
0
LINE
8
BLACK
6
CONTINUOUS
10
52.0973
20
-48.3253
11
52.3513
21
-48.1555
0
LINE
8
BLACK
6
CONTINUOUS
10
52.3513
20
-48.1555
11
52.6336
21
-48.0386
0
LINE
8
BLACK
6
CONTINUOUS
10
52.6336
20
-48.0386
11
52.7834
21
-48.0088
0
LINE
8
BLACK
6
CONTINUOUS
10
52.7834
20
-48.0088
11
52.9332
21
-47.979
0
LINE
8
BLACK
6
CONTINUOUS
10
52.9332
20
-47.979
11
53.2388
21
-47.979
0
LINE
8
BLACK
6
CONTINUOUS
10
53.2388
20
-47.979
11
53.3886
21
-48.0088
0
LINE
8
BLACK
6
CONTINUOUS
10
65.0726
20
-48.0088
11
65.2224
21
-48.0386
0
LINE
8
BLACK
6
CONTINUOUS
10
65.2224
20
-48.0386
11
65.5047
21
-48.1555
0
LINE
8
BLACK
6
CONTINUOUS
10
65.5047
20
-48.1555
11
65.7587
21
-48.3253
0
LINE
8
BLACK
6
CONTINUOUS
10
65.7587
20
-48.3253
11
65.9747
21
-48.5413
0
LINE
8
BLACK
6
CONTINUOUS
10
65.9747
20
-48.5413
11
66.1445
21
-48.7953
0
LINE
8
BLACK
6
CONTINUOUS
10
66.1445
20
-48.7953
11
66.2614
21
-49.0776
0
LINE
8
BLACK
6
CONTINUOUS
10
66.2614
20
-49.0776
11
66.321
21
-49.3772
0
LINE
8
BLACK
6
CONTINUOUS
10
66.321
20
-49.3772
11
66.321
21
-49.6828
0
LINE
8
BLACK
6
CONTINUOUS
10
66.321
20
-49.6828
11
66.2614
21
-49.9824
0
LINE
8
BLACK
6
CONTINUOUS
10
66.2614
20
-49.9824
11
66.1445
21
-50.2647
0
LINE
8
BLACK
6
CONTINUOUS
10
66.1445
20
-50.2647
11
65.9747
21
-50.5187
0
LINE
8
BLACK
6
CONTINUOUS
10
65.9747
20
-50.5187
11
65.7587
21
-50.7347
0
LINE
8
BLACK
6
CONTINUOUS
10
65.7587
20
-50.7347
11
65.5047
21
-50.9045
0
LINE
8
BLACK
6
CONTINUOUS
10
65.5047
20
-50.9045
11
65.2224
21
-51.0214
0
LINE
8
BLACK
6
CONTINUOUS
10
65.2224
20
-51.0214
11
65.0726
21
-51.0512
0
LINE
8
BLACK
6
CONTINUOUS
10
65.0726
20
-51.0512
11
64.9228
21
-51.081
0
LINE
8
BLACK
6
CONTINUOUS
10
64.9228
20
-51.081
11
64.6172
21
-51.081
0
LINE
8
BLACK
6
CONTINUOUS
10
64.6172
20
-51.081
11
64.4674
21
-51.0512
0
LINE
8
BLACK
6
CONTINUOUS
10
64.4674
20
-51.0512
11
64.3176
21
-51.0214
0
LINE
8
BLACK
6
CONTINUOUS
10
64.3176
20
-51.0214
11
64.0353
21
-50.9045
0
LINE
8
BLACK
6
CONTINUOUS
10
64.0353
20
-50.9045
11
63.7813
21
-50.7347
0
LINE
8
BLACK
6
CONTINUOUS
10
63.7813
20
-50.7347
11
63.5653
21
-50.5187
0
LINE
8
BLACK
6
CONTINUOUS
10
63.5653
20
-50.5187
11
63.3955
21
-50.2647
0
LINE
8
BLACK
6
CONTINUOUS
10
63.3955
20
-50.2647
11
63.2786
21
-49.9824
0
LINE
8
BLACK
6
CONTINUOUS
10
63.2786
20
-49.9824
11
63.219
21
-49.6828
0
LINE
8
BLACK
6
CONTINUOUS
10
63.219
20
-49.6828
11
63.219
21
-49.3772
0
LINE
8
BLACK
6
CONTINUOUS
10
63.219
20
-49.3772
11
63.2786
21
-49.0776
0
LINE
8
BLACK
6
CONTINUOUS
10
63.2786
20
-49.0776
11
63.3955
21
-48.7953
0
LINE
8
BLACK
6
CONTINUOUS
10
63.3955
20
-48.7953
11
63.5653
21
-48.5413
0
LINE
8
BLACK
6
CONTINUOUS
10
63.5653
20
-48.5413
11
63.7813
21
-48.3253
0
LINE
8
BLACK
6
CONTINUOUS
10
63.7813
20
-48.3253
11
64.0353
21
-48.1555
0
LINE
8
BLACK
6
CONTINUOUS
10
64.0353
20
-48.1555
11
64.3176
21
-48.0386
0
LINE
8
BLACK
6
CONTINUOUS
10
64.3176
20
-48.0386
11
64.4674
21
-48.0088
0
LINE
8
BLACK
6
CONTINUOUS
10
64.4674
20
-48.0088
11
64.6172
21
-47.979
0
LINE
8
BLACK
6
CONTINUOUS
10
64.6172
20
-47.979
11
64.9228
21
-47.979
0
LINE
8
BLACK
6
CONTINUOUS
10
64.9228
20
-47.979
11
65.0726
21
-48.0088
0
LINE
8
BLACK
6
CONTINUOUS
10
59.717
20
-51.081
11
56.615
21
-51.081
0
LINE
8
BLACK
6
CONTINUOUS
10
56.615
20
-51.081
11
56.615
21
-47.979
0
LINE
8
BLACK
6
CONTINUOUS
10
56.615
20
-47.979
11
59.717
21
-47.979
0
LINE
8
BLACK
6
CONTINUOUS
10
59.717
20
-47.979
11
59.717
21
-51.081
0
LINE
8
BLACK
6
CONTINUOUS
10
144.829
20
-47.7548
11
144.978
21
-47.7846
0
LINE
8
BLACK
6
CONTINUOUS
10
144.978
20
-47.7846
11
145.261
21
-47.9015
0
LINE
8
BLACK
6
CONTINUOUS
10
145.261
20
-47.9015
11
145.515
21
-48.0713
0
LINE
8
BLACK
6
CONTINUOUS
10
145.515
20
-48.0713
11
145.731
21
-48.2873
0
LINE
8
BLACK
6
CONTINUOUS
10
145.731
20
-48.2873
11
145.9
21
-48.5413
0
LINE
8
BLACK
6
CONTINUOUS
10
145.9
20
-48.5413
11
146.017
21
-48.8236
0
LINE
8
BLACK
6
CONTINUOUS
10
146.017
20
-48.8236
11
146.077
21
-49.1232
0
LINE
8
BLACK
6
CONTINUOUS
10
146.077
20
-49.1232
11
146.077
21
-49.4288
0
LINE
8
BLACK
6
CONTINUOUS
10
146.077
20
-49.4288
11
146.017
21
-49.7284
0
LINE
8
BLACK
6
CONTINUOUS
10
146.017
20
-49.7284
11
145.9
21
-50.0107
0
LINE
8
BLACK
6
CONTINUOUS
10
145.9
20
-50.0107
11
145.731
21
-50.2647
0
LINE
8
BLACK
6
CONTINUOUS
10
145.731
20
-50.2647
11
145.515
21
-50.4807
0
LINE
8
BLACK
6
CONTINUOUS
10
145.515
20
-50.4807
11
145.261
21
-50.6505
0
LINE
8
BLACK
6
CONTINUOUS
10
145.261
20
-50.6505
11
144.978
21
-50.7674
0
LINE
8
BLACK
6
CONTINUOUS
10
144.978
20
-50.7674
11
144.829
21
-50.7972
0
LINE
8
BLACK
6
CONTINUOUS
10
144.829
20
-50.7972
11
144.679
21
-50.827
0
LINE
8
BLACK
6
CONTINUOUS
10
144.679
20
-50.827
11
144.373
21
-50.827
0
LINE
8
BLACK
6
CONTINUOUS
10
144.373
20
-50.827
11
144.223
21
-50.7972
0
LINE
8
BLACK
6
CONTINUOUS
10
144.223
20
-50.7972
11
144.074
21
-50.7674
0
LINE
8
BLACK
6
CONTINUOUS
10
144.074
20
-50.7674
11
143.791
21
-50.6505
0
LINE
8
BLACK
6
CONTINUOUS
10
143.791
20
-50.6505
11
143.537
21
-50.4807
0
LINE
8
BLACK
6
CONTINUOUS
10
143.537
20
-50.4807
11
143.321
21
-50.2647
0
LINE
8
BLACK
6
CONTINUOUS
10
143.321
20
-50.2647
11
143.152
21
-50.0107
0
LINE
8
BLACK
6
CONTINUOUS
10
143.152
20
-50.0107
11
143.035
21
-49.7284
0
LINE
8
BLACK
6
CONTINUOUS
10
143.035
20
-49.7284
11
142.975
21
-49.4288
0
LINE
8
BLACK
6
CONTINUOUS
10
142.975
20
-49.4288
11
142.975
21
-49.1232
0
LINE
8
BLACK
6
CONTINUOUS
10
142.975
20
-49.1232
11
143.035
21
-48.8236
0
LINE
8
BLACK
6
CONTINUOUS
10
143.035
20
-48.8236
11
143.152
21
-48.5413
0
LINE
8
BLACK
6
CONTINUOUS
10
143.152
20
-48.5413
11
143.321
21
-48.2873
0
LINE
8
BLACK
6
CONTINUOUS
10
143.321
20
-48.2873
11
143.537
21
-48.0713
0
LINE
8
BLACK
6
CONTINUOUS
10
143.537
20
-48.0713
11
143.791
21
-47.9015
0
LINE
8
BLACK
6
CONTINUOUS
10
143.791
20
-47.9015
11
144.074
21
-47.7846
0
LINE
8
BLACK
6
CONTINUOUS
10
144.074
20
-47.7846
11
144.223
21
-47.7548
0
LINE
8
BLACK
6
CONTINUOUS
10
144.223
20
-47.7548
11
144.373
21
-47.725
0
LINE
8
BLACK
6
CONTINUOUS
10
144.373
20
-47.725
11
144.679
21
-47.725
0
LINE
8
BLACK
6
CONTINUOUS
10
144.679
20
-47.725
11
144.829
21
-47.7548
  0
ENDSEC
  0
EOF
