  0
SECTION
  2
HEADER
  9
$ANGBASE
  50
0.0
  9
$ANGDIR
  70
  1
  9
$MEASUREMENT
  70
0
  0
ENDSEC
  0
SECTION
  2
TABLES
  0
TABLE
  2
LTYPE
  70
4
  0
LTYPE
  5
40F
  2
CONTINUOUS
  70
0
  3
Solid line
  72
65
  73
0
  40
0.0
  0
LTYPE
  5
410
  2
DASHDOT
 70
0
  3
Dash Dot ____ _ ____ _
 72
65
 73
4
 40
2.0
 49
1.25
 49
-0.25
 49
0.25
 49
-0.25
  0
LTYPE
  5
411
  2
DASHED
 70
0
  3
Dashed __ __ __ __ __
 72
65
 73
2
 40
0.75
 49
0.5
 49
-0.25
  0
LTYPE
  5
43B
  2
DOTTED
 70
0
  3
Dotted .  .  .  .
 72
65
 73
2
 40
0.2
 49
0.0
 49
-0.2
  0
ENDTAB
  0
TABLE
  2
STYLE
  70
4
  0
STYLE
  2
KICAD
  70
0
  40
0
  41
1
  42
1
  50
0
  71
0
  3
isocp.shx
  0
STYLE
  2
KICADB
  70
0
  40
0
  41
1
  42
1
  50
0
  71
0
  3
isocp.shx
  0
STYLE
  2
KICADI
  70
0
  40
0
  41
1
  42
1
  50
15
  71
0
  3
isocp.shx
  0
STYLE
  2
KICADBI
  70
0
  40
0
  41
1
  42
1
  50
15
  71
0
  3
isocp.shx
  0
ENDTAB
  0
TABLE
  2
LAYER
  70
30
  0
LAYER
  2
BLACK
  70
0
  62
7
  6
CONTINUOUS
  0
LAYER
  2
GRAY1
  70
0
  62
251
  6
CONTINUOUS
  0
LAYER
  2
GRAY2
  70
0
  62
8
  6
CONTINUOUS
  0
LAYER
  2
GRAY3
  70
0
  62
9
  6
CONTINUOUS
  0
LAYER
  2
WHITE
  70
0
  62
7
  6
CONTINUOUS
  0
LAYER
  2
LYELLOW
  70
0
  62
51
  6
CONTINUOUS
  0
LAYER
  2
BLUE1
  70
0
  62
178
  6
CONTINUOUS
  0
LAYER
  2
GREEN1
  70
0
  62
98
  6
CONTINUOUS
  0
LAYER
  2
CYAN1
  70
0
  62
138
  6
CONTINUOUS
  0
LAYER
  2
RED1
  70
0
  62
18
  6
CONTINUOUS
  0
LAYER
  2
MAGENTA1
  70
0
  62
228
  6
CONTINUOUS
  0
LAYER
  2
BROWN1
  70
0
  62
58
  6
CONTINUOUS
  0
LAYER
  2
BLUE2
  70
0
  62
5
  6
CONTINUOUS
  0
LAYER
  2
GREEN2
  70
0
  62
3
  6
CONTINUOUS
  0
LAYER
  2
CYAN2
  70
0
  62
4
  6
CONTINUOUS
  0
LAYER
  2
RED2
  70
0
  62
1
  6
CONTINUOUS
  0
LAYER
  2
MAGENTA2
  70
0
  62
6
  6
CONTINUOUS
  0
LAYER
  2
BROWN2
  70
0
  62
54
  6
CONTINUOUS
  0
LAYER
  2
BLUE3
  70
0
  62
171
  6
CONTINUOUS
  0
LAYER
  2
GREEN3
  70
0
  62
91
  6
CONTINUOUS
  0
LAYER
  2
CYAN3
  70
0
  62
131
  6
CONTINUOUS
  0
LAYER
  2
RED3
  70
0
  62
11
  6
CONTINUOUS
  0
LAYER
  2
MAGENTA3
  70
0
  62
221
  6
CONTINUOUS
  0
LAYER
  2
YELLOW3
  70
0
  62
2
  6
CONTINUOUS
  0
LAYER
  2
BLUE4
  70
0
  62
5
  6
CONTINUOUS
  0
LAYER
  2
GREEN4
  70
0
  62
3
  6
CONTINUOUS
  0
LAYER
  2
CYAN4
  70
0
  62
4
  6
CONTINUOUS
  0
LAYER
  2
RED4
  70
0
  62
1
  6
CONTINUOUS
  0
LAYER
  2
MAGENTA4
  70
0
  62
6
  6
CONTINUOUS
  0
LAYER
  2
YELLOW4
  70
0
  62
2
  6
CONTINUOUS
  0
ENDTAB
  0
ENDSEC
  0
SECTION
  2
ENTITIES
0
LINE
8
BLACK
6
CONTINUOUS
10
158.243
20
-39.091
11
158.247
21
-39.0914
0
LINE
8
BLACK
6
CONTINUOUS
10
158.247
20
-39.0914
11
158.252
21
-39.0928
0
LINE
8
BLACK
6
CONTINUOUS
10
158.252
20
-39.0928
11
158.256
21
-39.0951
0
LINE
8
BLACK
6
CONTINUOUS
10
158.256
20
-39.0951
11
158.26
21
-39.0982
0
LINE
8
BLACK
6
CONTINUOUS
10
158.26
20
-39.0982
11
158.263
21
-39.102
0
LINE
8
BLACK
6
CONTINUOUS
10
158.263
20
-39.102
11
158.265
21
-39.1064
0
LINE
8
BLACK
6
CONTINUOUS
10
158.265
20
-39.1064
11
158.267
21
-39.1111
0
LINE
8
BLACK
6
CONTINUOUS
10
158.267
20
-39.1111
11
158.267
21
-39.116
0
LINE
8
BLACK
6
CONTINUOUS
10
158.267
20
-39.116
11
158.267
21
-39.1172
0
LINE
8
BLACK
6
CONTINUOUS
10
158.267
20
-39.1172
11
158.267
21
-101.599
0
LINE
8
BLACK
6
CONTINUOUS
10
158.267
20
-101.599
11
158.267
21
-101.6
0
LINE
8
BLACK
6
CONTINUOUS
10
158.267
20
-101.6
11
158.267
21
-101.605
0
LINE
8
BLACK
6
CONTINUOUS
10
158.267
20
-101.605
11
158.265
21
-101.61
0
LINE
8
BLACK
6
CONTINUOUS
10
158.265
20
-101.61
11
158.263
21
-101.614
0
LINE
8
BLACK
6
CONTINUOUS
10
158.263
20
-101.614
11
158.26
21
-101.618
0
LINE
8
BLACK
6
CONTINUOUS
10
158.26
20
-101.618
11
158.256
21
-101.621
0
LINE
8
BLACK
6
CONTINUOUS
10
158.256
20
-101.621
11
158.252
21
-101.623
0
LINE
8
BLACK
6
CONTINUOUS
10
158.252
20
-101.623
11
158.247
21
-101.625
0
LINE
8
BLACK
6
CONTINUOUS
10
158.247
20
-101.625
11
158.243
21
-101.625
0
LINE
8
BLACK
6
CONTINUOUS
10
158.243
20
-101.625
11
158.243
21
-101.625
0
LINE
8
BLACK
6
CONTINUOUS
10
158.243
20
-101.625
11
158.242
21
-101.625
0
LINE
8
BLACK
6
CONTINUOUS
10
158.242
20
-101.625
11
158.241
21
-101.625
0
LINE
8
BLACK
6
CONTINUOUS
10
158.241
20
-101.625
11
41.6572
21
-101.625
0
LINE
8
BLACK
6
CONTINUOUS
10
41.6572
20
-101.625
11
41.656
21
-101.625
0
LINE
8
BLACK
6
CONTINUOUS
10
41.656
20
-101.625
11
41.6548
21
-101.625
0
LINE
8
BLACK
6
CONTINUOUS
10
41.6548
20
-101.625
11
41.6548
21
-101.625
0
LINE
8
BLACK
6
CONTINUOUS
10
41.6548
20
-101.625
11
41.6511
21
-101.625
0
LINE
8
BLACK
6
CONTINUOUS
10
41.6511
20
-101.625
11
41.6464
21
-101.623
0
LINE
8
BLACK
6
CONTINUOUS
10
41.6464
20
-101.623
11
41.642
21
-101.621
0
LINE
8
BLACK
6
CONTINUOUS
10
41.642
20
-101.621
11
41.6382
21
-101.618
0
LINE
8
BLACK
6
CONTINUOUS
10
41.6382
20
-101.618
11
41.6351
21
-101.614
0
LINE
8
BLACK
6
CONTINUOUS
10
41.6351
20
-101.614
11
41.6328
21
-101.61
0
LINE
8
BLACK
6
CONTINUOUS
10
41.6328
20
-101.61
11
41.6314
21
-101.605
0
LINE
8
BLACK
6
CONTINUOUS
10
41.6314
20
-101.605
11
41.6309
21
-101.6
0
LINE
8
BLACK
6
CONTINUOUS
10
41.6309
20
-101.6
11
41.631
21
-101.599
0
LINE
8
BLACK
6
CONTINUOUS
10
41.631
20
-101.599
11
41.631
21
-101.091
0
LINE
8
BLACK
6
CONTINUOUS
10
41.631
20
-101.091
11
41.631
21
-101.091
0
LINE
8
BLACK
6
CONTINUOUS
10
41.631
20
-101.091
11
41.631
21
-39.1172
0
LINE
8
BLACK
6
CONTINUOUS
10
41.631
20
-39.1172
11
41.6309
21
-39.116
0
LINE
8
BLACK
6
CONTINUOUS
10
41.6309
20
-39.116
11
41.6314
21
-39.1111
0
LINE
8
BLACK
6
CONTINUOUS
10
41.6314
20
-39.1111
11
41.6328
21
-39.1064
0
LINE
8
BLACK
6
CONTINUOUS
10
41.6328
20
-39.1064
11
41.6351
21
-39.102
0
LINE
8
BLACK
6
CONTINUOUS
10
41.6351
20
-39.102
11
41.6382
21
-39.0982
0
LINE
8
BLACK
6
CONTINUOUS
10
41.6382
20
-39.0982
11
41.642
21
-39.0951
0
LINE
8
BLACK
6
CONTINUOUS
10
41.642
20
-39.0951
11
41.6464
21
-39.0928
0
LINE
8
BLACK
6
CONTINUOUS
10
41.6464
20
-39.0928
11
41.6511
21
-39.0914
0
LINE
8
BLACK
6
CONTINUOUS
10
41.6511
20
-39.0914
11
41.6548
21
-39.091
0
LINE
8
BLACK
6
CONTINUOUS
10
41.6548
20
-39.091
11
41.656
21
-39.0909
0
LINE
8
BLACK
6
CONTINUOUS
10
41.656
20
-39.0909
11
41.6572
21
-39.091
0
LINE
8
BLACK
6
CONTINUOUS
10
41.6572
20
-39.091
11
158.241
21
-39.091
0
LINE
8
BLACK
6
CONTINUOUS
10
158.241
20
-39.091
11
158.242
21
-39.0909
0
LINE
8
BLACK
6
CONTINUOUS
10
158.242
20
-39.0909
11
158.243
21
-39.091
0
LINE
8
BLACK
6
CONTINUOUS
10
158.217
20
-101.575
11
158.217
21
-39.141
0
LINE
8
BLACK
6
CONTINUOUS
10
158.217
20
-39.141
11
41.681
21
-39.141
0
LINE
8
BLACK
6
CONTINUOUS
10
41.681
20
-39.141
11
41.681
21
-101.575
0
LINE
8
BLACK
6
CONTINUOUS
10
41.681
20
-101.575
11
158.217
21
-101.575
  0
ENDSEC
  0
EOF
