  0
SECTION
  2
HEADER
  9
$ANGBASE
  50
0.0
  9
$ANGDIR
  70
  1
  9
$MEASUREMENT
  70
0
  0
ENDSEC
  0
SECTION
  2
TABLES
  0
TABLE
  2
LTYPE
  70
4
  0
LTYPE
  5
40F
  2
CONTINUOUS
  70
0
  3
Solid line
  72
65
  73
0
  40
0.0
  0
LTYPE
  5
410
  2
DASHDOT
 70
0
  3
Dash Dot ____ _ ____ _
 72
65
 73
4
 40
2.0
 49
1.25
 49
-0.25
 49
0.25
 49
-0.25
  0
LTYPE
  5
411
  2
DASHED
 70
0
  3
Dashed __ __ __ __ __
 72
65
 73
2
 40
0.75
 49
0.5
 49
-0.25
  0
LTYPE
  5
43B
  2
DOTTED
 70
0
  3
Dotted .  .  .  .
 72
65
 73
2
 40
0.2
 49
0.0
 49
-0.2
  0
ENDTAB
  0
TABLE
  2
STYLE
  70
4
  0
STYLE
  2
KICAD
  70
0
  40
0
  41
1
  42
1
  50
0
  71
0
  3
isocp.shx
  0
STYLE
  2
KICADB
  70
0
  40
0
  41
1
  42
1
  50
0
  71
0
  3
isocp.shx
  0
STYLE
  2
KICADI
  70
0
  40
0
  41
1
  42
1
  50
15
  71
0
  3
isocp.shx
  0
STYLE
  2
KICADBI
  70
0
  40
0
  41
1
  42
1
  50
15
  71
0
  3
isocp.shx
  0
ENDTAB
  0
TABLE
  2
LAYER
  70
30
  0
LAYER
  2
BLACK
  70
0
  62
7
  6
CONTINUOUS
  0
LAYER
  2
GRAY1
  70
0
  62
251
  6
CONTINUOUS
  0
LAYER
  2
GRAY2
  70
0
  62
8
  6
CONTINUOUS
  0
LAYER
  2
GRAY3
  70
0
  62
9
  6
CONTINUOUS
  0
LAYER
  2
WHITE
  70
0
  62
7
  6
CONTINUOUS
  0
LAYER
  2
LYELLOW
  70
0
  62
51
  6
CONTINUOUS
  0
LAYER
  2
BLUE1
  70
0
  62
178
  6
CONTINUOUS
  0
LAYER
  2
GREEN1
  70
0
  62
98
  6
CONTINUOUS
  0
LAYER
  2
CYAN1
  70
0
  62
138
  6
CONTINUOUS
  0
LAYER
  2
RED1
  70
0
  62
18
  6
CONTINUOUS
  0
LAYER
  2
MAGENTA1
  70
0
  62
228
  6
CONTINUOUS
  0
LAYER
  2
BROWN1
  70
0
  62
58
  6
CONTINUOUS
  0
LAYER
  2
BLUE2
  70
0
  62
5
  6
CONTINUOUS
  0
LAYER
  2
GREEN2
  70
0
  62
3
  6
CONTINUOUS
  0
LAYER
  2
CYAN2
  70
0
  62
4
  6
CONTINUOUS
  0
LAYER
  2
RED2
  70
0
  62
1
  6
CONTINUOUS
  0
LAYER
  2
MAGENTA2
  70
0
  62
6
  6
CONTINUOUS
  0
LAYER
  2
BROWN2
  70
0
  62
54
  6
CONTINUOUS
  0
LAYER
  2
BLUE3
  70
0
  62
171
  6
CONTINUOUS
  0
LAYER
  2
GREEN3
  70
0
  62
91
  6
CONTINUOUS
  0
LAYER
  2
CYAN3
  70
0
  62
131
  6
CONTINUOUS
  0
LAYER
  2
RED3
  70
0
  62
11
  6
CONTINUOUS
  0
LAYER
  2
MAGENTA3
  70
0
  62
221
  6
CONTINUOUS
  0
LAYER
  2
YELLOW3
  70
0
  62
2
  6
CONTINUOUS
  0
LAYER
  2
BLUE4
  70
0
  62
5
  6
CONTINUOUS
  0
LAYER
  2
GREEN4
  70
0
  62
3
  6
CONTINUOUS
  0
LAYER
  2
CYAN4
  70
0
  62
4
  6
CONTINUOUS
  0
LAYER
  2
RED4
  70
0
  62
1
  6
CONTINUOUS
  0
LAYER
  2
MAGENTA4
  70
0
  62
6
  6
CONTINUOUS
  0
LAYER
  2
YELLOW4
  70
0
  62
2
  6
CONTINUOUS
  0
ENDTAB
  0
ENDSEC
  0
SECTION
  2
ENTITIES
0
LINE
8
BLACK
6
CONTINUOUS
10
144.964
20
-75.0116
11
145.237
21
-75.1247
0
LINE
8
BLACK
6
CONTINUOUS
10
145.237
20
-75.1247
11
145.482
21
-75.2889
0
LINE
8
BLACK
6
CONTINUOUS
10
145.482
20
-75.2889
11
145.691
21
-75.4978
0
LINE
8
BLACK
6
CONTINUOUS
10
145.691
20
-75.4978
11
145.855
21
-75.7435
0
LINE
8
BLACK
6
CONTINUOUS
10
145.855
20
-75.7435
11
145.968
21
-76.0165
0
LINE
8
BLACK
6
CONTINUOUS
10
145.968
20
-76.0165
11
146.026
21
-76.3063
0
LINE
8
BLACK
6
CONTINUOUS
10
146.026
20
-76.3063
11
146.026
21
-76.6017
0
LINE
8
BLACK
6
CONTINUOUS
10
146.026
20
-76.6017
11
145.968
21
-76.8915
0
LINE
8
BLACK
6
CONTINUOUS
10
145.968
20
-76.8915
11
145.855
21
-77.1645
0
LINE
8
BLACK
6
CONTINUOUS
10
145.855
20
-77.1645
11
145.691
21
-77.4102
0
LINE
8
BLACK
6
CONTINUOUS
10
145.691
20
-77.4102
11
145.482
21
-77.6191
0
LINE
8
BLACK
6
CONTINUOUS
10
145.482
20
-77.6191
11
145.237
21
-77.7833
0
LINE
8
BLACK
6
CONTINUOUS
10
145.237
20
-77.7833
11
144.964
21
-77.8964
0
LINE
8
BLACK
6
CONTINUOUS
10
144.964
20
-77.8964
11
144.674
21
-77.954
0
LINE
8
BLACK
6
CONTINUOUS
10
144.674
20
-77.954
11
144.378
21
-77.954
0
LINE
8
BLACK
6
CONTINUOUS
10
144.378
20
-77.954
11
144.088
21
-77.8964
0
LINE
8
BLACK
6
CONTINUOUS
10
144.088
20
-77.8964
11
143.815
21
-77.7833
0
LINE
8
BLACK
6
CONTINUOUS
10
143.815
20
-77.7833
11
143.57
21
-77.6191
0
LINE
8
BLACK
6
CONTINUOUS
10
143.57
20
-77.6191
11
143.361
21
-77.4102
0
LINE
8
BLACK
6
CONTINUOUS
10
143.361
20
-77.4102
11
143.197
21
-77.1645
0
LINE
8
BLACK
6
CONTINUOUS
10
143.197
20
-77.1645
11
143.108
21
-76.95
0
LINE
8
BLACK
6
CONTINUOUS
10
143.108
20
-76.95
11
126.803
21
-76.95
0
LINE
8
BLACK
6
CONTINUOUS
10
126.803
20
-76.95
11
108.506
21
-95.2463
0
LINE
8
BLACK
6
CONTINUOUS
10
108.506
20
-95.2463
11
108.506
21
-95.2463
0
LINE
8
BLACK
6
CONTINUOUS
10
108.506
20
-95.2463
11
104.796
21
-98.9563
0
LINE
8
BLACK
6
CONTINUOUS
10
104.796
20
-98.9563
11
104.773
21
-98.9849
0
LINE
8
BLACK
6
CONTINUOUS
10
104.773
20
-98.9849
11
104.659
21
-99.0786
0
LINE
8
BLACK
6
CONTINUOUS
10
104.659
20
-99.0786
11
104.528
21
-99.1483
0
LINE
8
BLACK
6
CONTINUOUS
10
104.528
20
-99.1483
11
104.387
21
-99.1911
0
LINE
8
BLACK
6
CONTINUOUS
10
104.387
20
-99.1911
11
104.277
21
-99.202
0
LINE
8
BLACK
6
CONTINUOUS
10
104.277
20
-99.202
11
104.277
21
-99.202
0
LINE
8
BLACK
6
CONTINUOUS
10
104.277
20
-99.202
11
104.24
21
-99.2056
0
LINE
8
BLACK
6
CONTINUOUS
10
104.24
20
-99.2056
11
104.203
21
-99.202
0
LINE
8
BLACK
6
CONTINUOUS
10
104.203
20
-99.202
11
94.1666
21
-99.202
0
LINE
8
BLACK
6
CONTINUOUS
10
94.1666
20
-99.202
11
94.1298
21
-99.2056
0
LINE
8
BLACK
6
CONTINUOUS
10
94.1298
20
-99.2056
11
94.093
21
-99.202
0
LINE
8
BLACK
6
CONTINUOUS
10
94.093
20
-99.202
11
94.093
21
-99.202
0
LINE
8
BLACK
6
CONTINUOUS
10
94.093
20
-99.202
11
93.9828
21
-99.1911
0
LINE
8
BLACK
6
CONTINUOUS
10
93.9828
20
-99.1911
11
93.8414
21
-99.1483
0
LINE
8
BLACK
6
CONTINUOUS
10
93.8414
20
-99.1483
11
93.7111
21
-99.0786
0
LINE
8
BLACK
6
CONTINUOUS
10
93.7111
20
-99.0786
11
93.5969
21
-98.9849
0
LINE
8
BLACK
6
CONTINUOUS
10
93.5969
20
-98.9849
11
93.5734
21
-98.9563
0
LINE
8
BLACK
6
CONTINUOUS
10
93.5734
20
-98.9563
11
93.0897
21
-98.4726
0
LINE
8
BLACK
6
CONTINUOUS
10
93.0897
20
-98.4726
11
93.0611
21
-98.4491
0
LINE
8
BLACK
6
CONTINUOUS
10
93.0611
20
-98.4491
11
93.0376
21
-98.4205
0
LINE
8
BLACK
6
CONTINUOUS
10
93.0376
20
-98.4205
11
93.0376
21
-98.4205
0
LINE
8
BLACK
6
CONTINUOUS
10
93.0376
20
-98.4205
11
93.0101
21
-98.387
0
LINE
8
BLACK
6
CONTINUOUS
10
93.0101
20
-98.387
11
92.9674
21
-98.3349
0
LINE
8
BLACK
6
CONTINUOUS
10
92.9674
20
-98.3349
11
92.8977
21
-98.2046
0
LINE
8
BLACK
6
CONTINUOUS
10
92.8977
20
-98.2046
11
92.8977
21
-98.2046
0
LINE
8
BLACK
6
CONTINUOUS
10
92.8977
20
-98.2046
11
92.8549
21
-98.0632
0
LINE
8
BLACK
6
CONTINUOUS
10
92.8549
20
-98.0632
11
92.8404
21
-97.9162
0
LINE
8
BLACK
6
CONTINUOUS
10
92.8404
20
-97.9162
11
92.844
21
-97.8794
0
LINE
8
BLACK
6
CONTINUOUS
10
92.844
20
-97.8794
11
92.844
21
-97.1662
0
LINE
8
BLACK
6
CONTINUOUS
10
92.844
20
-97.1662
11
92.8172
21
-97.1395
0
LINE
8
BLACK
6
CONTINUOUS
10
92.8172
20
-97.1395
11
92.7078
21
-96.9757
0
LINE
8
BLACK
6
CONTINUOUS
10
92.7078
20
-96.9757
11
92.6324
21
-96.7937
0
LINE
8
BLACK
6
CONTINUOUS
10
92.6324
20
-96.7937
11
92.594
21
-96.6005
0
LINE
8
BLACK
6
CONTINUOUS
10
92.594
20
-96.6005
11
92.594
21
-96.4035
0
LINE
8
BLACK
6
CONTINUOUS
10
92.594
20
-96.4035
11
92.6324
21
-96.2103
0
LINE
8
BLACK
6
CONTINUOUS
10
92.6324
20
-96.2103
11
92.7078
21
-96.0283
0
LINE
8
BLACK
6
CONTINUOUS
10
92.7078
20
-96.0283
11
92.8172
21
-95.8645
0
LINE
8
BLACK
6
CONTINUOUS
10
92.8172
20
-95.8645
11
92.9565
21
-95.7252
0
LINE
8
BLACK
6
CONTINUOUS
10
92.9565
20
-95.7252
11
93.1203
21
-95.6158
0
LINE
8
BLACK
6
CONTINUOUS
10
93.1203
20
-95.6158
11
93.3023
21
-95.5404
0
LINE
8
BLACK
6
CONTINUOUS
10
93.3023
20
-95.5404
11
93.4955
21
-95.502
0
LINE
8
BLACK
6
CONTINUOUS
10
93.4955
20
-95.502
11
93.6925
21
-95.502
0
LINE
8
BLACK
6
CONTINUOUS
10
93.6925
20
-95.502
11
93.8857
21
-95.5404
0
LINE
8
BLACK
6
CONTINUOUS
10
93.8857
20
-95.5404
11
94.0677
21
-95.6158
0
LINE
8
BLACK
6
CONTINUOUS
10
94.0677
20
-95.6158
11
94.2315
21
-95.7252
0
LINE
8
BLACK
6
CONTINUOUS
10
94.2315
20
-95.7252
11
94.3708
21
-95.8645
0
LINE
8
BLACK
6
CONTINUOUS
10
94.3708
20
-95.8645
11
94.4802
21
-96.0283
0
LINE
8
BLACK
6
CONTINUOUS
10
94.4802
20
-96.0283
11
94.5556
21
-96.2103
0
LINE
8
BLACK
6
CONTINUOUS
10
94.5556
20
-96.2103
11
94.594
21
-96.4035
0
LINE
8
BLACK
6
CONTINUOUS
10
94.594
20
-96.4035
11
94.594
21
-96.6005
0
LINE
8
BLACK
6
CONTINUOUS
10
94.594
20
-96.6005
11
94.5556
21
-96.7937
0
LINE
8
BLACK
6
CONTINUOUS
10
94.5556
20
-96.7937
11
94.4802
21
-96.9757
0
LINE
8
BLACK
6
CONTINUOUS
10
94.4802
20
-96.9757
11
94.3708
21
-97.1395
0
LINE
8
BLACK
6
CONTINUOUS
10
94.3708
20
-97.1395
11
94.344
21
-97.1662
0
LINE
8
BLACK
6
CONTINUOUS
10
94.344
20
-97.1662
11
94.344
21
-97.6056
0
LINE
8
BLACK
6
CONTINUOUS
10
94.344
20
-97.6056
11
94.4404
21
-97.702
0
LINE
8
BLACK
6
CONTINUOUS
10
94.4404
20
-97.702
11
103.929
21
-97.702
0
LINE
8
BLACK
6
CONTINUOUS
10
103.929
20
-97.702
11
107.446
21
-94.1856
0
LINE
8
BLACK
6
CONTINUOUS
10
107.446
20
-94.1856
11
107.446
21
-94.1856
0
LINE
8
BLACK
6
CONTINUOUS
10
107.446
20
-94.1856
11
125.936
21
-75.6957
0
LINE
8
BLACK
6
CONTINUOUS
10
125.936
20
-75.6957
11
125.959
21
-75.6671
0
LINE
8
BLACK
6
CONTINUOUS
10
125.959
20
-75.6671
11
126.038
21
-75.6027
0
LINE
8
BLACK
6
CONTINUOUS
10
126.038
20
-75.6027
11
126.073
21
-75.5734
0
LINE
8
BLACK
6
CONTINUOUS
10
126.073
20
-75.5734
11
126.204
21
-75.5037
0
LINE
8
BLACK
6
CONTINUOUS
10
126.204
20
-75.5037
11
126.345
21
-75.4609
0
LINE
8
BLACK
6
CONTINUOUS
10
126.345
20
-75.4609
11
126.455
21
-75.45
0
LINE
8
BLACK
6
CONTINUOUS
10
126.455
20
-75.45
11
126.455
21
-75.45
0
LINE
8
BLACK
6
CONTINUOUS
10
126.455
20
-75.45
11
126.492
21
-75.4464
0
LINE
8
BLACK
6
CONTINUOUS
10
126.492
20
-75.4464
11
126.529
21
-75.45
0
LINE
8
BLACK
6
CONTINUOUS
10
126.529
20
-75.45
11
143.409
21
-75.45
0
LINE
8
BLACK
6
CONTINUOUS
10
143.409
20
-75.45
11
143.57
21
-75.2889
0
LINE
8
BLACK
6
CONTINUOUS
10
143.57
20
-75.2889
11
143.815
21
-75.1247
0
LINE
8
BLACK
6
CONTINUOUS
10
143.815
20
-75.1247
11
144.088
21
-75.0116
0
LINE
8
BLACK
6
CONTINUOUS
10
144.088
20
-75.0116
11
144.378
21
-74.954
0
LINE
8
BLACK
6
CONTINUOUS
10
144.378
20
-74.954
11
144.674
21
-74.954
0
LINE
8
BLACK
6
CONTINUOUS
10
144.674
20
-74.954
11
144.964
21
-75.0116
0
LINE
8
BLACK
6
CONTINUOUS
10
48.3731
20
-92.1113
11
48.919
21
-92.3374
0
LINE
8
BLACK
6
CONTINUOUS
10
48.919
20
-92.3374
11
49.4104
21
-92.6657
0
LINE
8
BLACK
6
CONTINUOUS
10
49.4104
20
-92.6657
11
49.8283
21
-93.0836
0
LINE
8
BLACK
6
CONTINUOUS
10
49.8283
20
-93.0836
11
50.1566
21
-93.575
0
LINE
8
BLACK
6
CONTINUOUS
10
50.1566
20
-93.575
11
50.3827
21
-94.1209
0
LINE
8
BLACK
6
CONTINUOUS
10
50.3827
20
-94.1209
11
50.498
21
-94.7005
0
LINE
8
BLACK
6
CONTINUOUS
10
50.498
20
-94.7005
11
50.498
21
-95.2915
0
LINE
8
BLACK
6
CONTINUOUS
10
50.498
20
-95.2915
11
50.3827
21
-95.8711
0
LINE
8
BLACK
6
CONTINUOUS
10
50.3827
20
-95.8711
11
50.1566
21
-96.417
0
LINE
8
BLACK
6
CONTINUOUS
10
50.1566
20
-96.417
11
49.8283
21
-96.9084
0
LINE
8
BLACK
6
CONTINUOUS
10
49.8283
20
-96.9084
11
49.4104
21
-97.3263
0
LINE
8
BLACK
6
CONTINUOUS
10
49.4104
20
-97.3263
11
48.919
21
-97.6546
0
LINE
8
BLACK
6
CONTINUOUS
10
48.919
20
-97.6546
11
48.3731
21
-97.8807
0
LINE
8
BLACK
6
CONTINUOUS
10
48.3731
20
-97.8807
11
47.7935
21
-97.996
0
LINE
8
BLACK
6
CONTINUOUS
10
47.7935
20
-97.996
11
47.2025
21
-97.996
0
LINE
8
BLACK
6
CONTINUOUS
10
47.2025
20
-97.996
11
46.6229
21
-97.8807
0
LINE
8
BLACK
6
CONTINUOUS
10
46.6229
20
-97.8807
11
46.077
21
-97.6546
0
LINE
8
BLACK
6
CONTINUOUS
10
46.077
20
-97.6546
11
45.5856
21
-97.3263
0
LINE
8
BLACK
6
CONTINUOUS
10
45.5856
20
-97.3263
11
45.1677
21
-96.9084
0
LINE
8
BLACK
6
CONTINUOUS
10
45.1677
20
-96.9084
11
44.8394
21
-96.417
0
LINE
8
BLACK
6
CONTINUOUS
10
44.8394
20
-96.417
11
44.6133
21
-95.8711
0
LINE
8
BLACK
6
CONTINUOUS
10
44.6133
20
-95.8711
11
44.498
21
-95.2915
0
LINE
8
BLACK
6
CONTINUOUS
10
44.498
20
-95.2915
11
44.498
21
-94.7005
0
LINE
8
BLACK
6
CONTINUOUS
10
44.498
20
-94.7005
11
44.6133
21
-94.1209
0
LINE
8
BLACK
6
CONTINUOUS
10
44.6133
20
-94.1209
11
44.8394
21
-93.575
0
LINE
8
BLACK
6
CONTINUOUS
10
44.8394
20
-93.575
11
45.1677
21
-93.0836
0
LINE
8
BLACK
6
CONTINUOUS
10
45.1677
20
-93.0836
11
45.5856
21
-92.6657
0
LINE
8
BLACK
6
CONTINUOUS
10
45.5856
20
-92.6657
11
46.077
21
-92.3374
0
LINE
8
BLACK
6
CONTINUOUS
10
46.077
20
-92.3374
11
46.6229
21
-92.1113
0
LINE
8
BLACK
6
CONTINUOUS
10
46.6229
20
-92.1113
11
47.2025
21
-91.996
0
LINE
8
BLACK
6
CONTINUOUS
10
47.2025
20
-91.996
11
47.7935
21
-91.996
0
LINE
8
BLACK
6
CONTINUOUS
10
47.7935
20
-91.996
11
48.3731
21
-92.1113
0
LINE
8
BLACK
6
CONTINUOUS
10
53.5235
20
-48.0876
11
53.7965
21
-48.2007
0
LINE
8
BLACK
6
CONTINUOUS
10
53.7965
20
-48.2007
11
54.0422
21
-48.3649
0
LINE
8
BLACK
6
CONTINUOUS
10
54.0422
20
-48.3649
11
54.2511
21
-48.5738
0
LINE
8
BLACK
6
CONTINUOUS
10
54.2511
20
-48.5738
11
54.4153
21
-48.8195
0
LINE
8
BLACK
6
CONTINUOUS
10
54.4153
20
-48.8195
11
54.5284
21
-49.0925
0
LINE
8
BLACK
6
CONTINUOUS
10
54.5284
20
-49.0925
11
54.586
21
-49.3823
0
LINE
8
BLACK
6
CONTINUOUS
10
54.586
20
-49.3823
11
54.586
21
-49.6777
0
LINE
8
BLACK
6
CONTINUOUS
10
54.586
20
-49.6777
11
54.5284
21
-49.9675
0
LINE
8
BLACK
6
CONTINUOUS
10
54.5284
20
-49.9675
11
54.4153
21
-50.2405
0
LINE
8
BLACK
6
CONTINUOUS
10
54.4153
20
-50.2405
11
54.2511
21
-50.4862
0
LINE
8
BLACK
6
CONTINUOUS
10
54.2511
20
-50.4862
11
54.0422
21
-50.6951
0
LINE
8
BLACK
6
CONTINUOUS
10
54.0422
20
-50.6951
11
53.7965
21
-50.8593
0
LINE
8
BLACK
6
CONTINUOUS
10
53.7965
20
-50.8593
11
53.5235
21
-50.9724
0
LINE
8
BLACK
6
CONTINUOUS
10
53.5235
20
-50.9724
11
53.2337
21
-51.03
0
LINE
8
BLACK
6
CONTINUOUS
10
53.2337
20
-51.03
11
52.9383
21
-51.03
0
LINE
8
BLACK
6
CONTINUOUS
10
52.9383
20
-51.03
11
52.695
21
-50.9816
0
LINE
8
BLACK
6
CONTINUOUS
10
52.695
20
-50.9816
11
50.67
21
-53.0067
0
LINE
8
BLACK
6
CONTINUOUS
10
50.67
20
-53.0067
11
50.67
21
-78.4033
0
LINE
8
BLACK
6
CONTINUOUS
10
50.67
20
-78.4033
11
57.1147
21
-84.848
0
LINE
8
BLACK
6
CONTINUOUS
10
57.1147
20
-84.848
11
68.846
21
-84.848
0
LINE
8
BLACK
6
CONTINUOUS
10
68.846
20
-84.848
11
68.846
21
-83.3488
0
LINE
8
BLACK
6
CONTINUOUS
10
68.846
20
-83.3488
11
68.846
21
-83.3488
0
LINE
8
BLACK
6
CONTINUOUS
10
68.846
20
-83.3488
11
68.846
21
-83.3488
0
LINE
8
BLACK
6
CONTINUOUS
10
68.846
20
-83.3488
11
68.8424
21
-83.312
0
LINE
8
BLACK
6
CONTINUOUS
10
68.8424
20
-83.312
11
68.846
21
-83.2752
0
LINE
8
BLACK
6
CONTINUOUS
10
68.846
20
-83.2752
11
68.846
21
-76.084
0
LINE
8
BLACK
6
CONTINUOUS
10
68.846
20
-76.084
11
68.188
21
-76.084
0
LINE
8
BLACK
6
CONTINUOUS
10
68.188
20
-76.084
11
68.188
21
-74.284
0
LINE
8
BLACK
6
CONTINUOUS
10
68.188
20
-74.284
11
69.988
21
-74.284
0
LINE
8
BLACK
6
CONTINUOUS
10
69.988
20
-74.284
11
69.988
21
-74.434
0
LINE
8
BLACK
6
CONTINUOUS
10
69.988
20
-74.434
11
71.1773
21
-74.434
0
LINE
8
BLACK
6
CONTINUOUS
10
71.1773
20
-74.434
11
74.434
21
-71.1773
0
LINE
8
BLACK
6
CONTINUOUS
10
74.434
20
-71.1773
11
74.434
21
-68.848
0
LINE
8
BLACK
6
CONTINUOUS
10
74.434
20
-68.848
11
74.422
21
-68.848
0
LINE
8
BLACK
6
CONTINUOUS
10
74.422
20
-68.848
11
74.422
21
-67.324
0
LINE
8
BLACK
6
CONTINUOUS
10
74.422
20
-67.324
11
75.946
21
-67.324
0
LINE
8
BLACK
6
CONTINUOUS
10
75.946
20
-67.324
11
75.946
21
-68.848
0
LINE
8
BLACK
6
CONTINUOUS
10
75.946
20
-68.848
11
75.934
21
-68.848
0
LINE
8
BLACK
6
CONTINUOUS
10
75.934
20
-68.848
11
75.934
21
-71.4512
0
LINE
8
BLACK
6
CONTINUOUS
10
75.934
20
-71.4512
11
75.9376
21
-71.488
0
LINE
8
BLACK
6
CONTINUOUS
10
75.9376
20
-71.488
11
75.934
21
-71.5248
0
LINE
8
BLACK
6
CONTINUOUS
10
75.934
20
-71.5248
11
75.934
21
-71.5248
0
LINE
8
BLACK
6
CONTINUOUS
10
75.934
20
-71.5248
11
75.9231
21
-71.635
0
LINE
8
BLACK
6
CONTINUOUS
10
75.9231
20
-71.635
11
75.8803
21
-71.7764
0
LINE
8
BLACK
6
CONTINUOUS
10
75.8803
20
-71.7764
11
75.8106
21
-71.9067
0
LINE
8
BLACK
6
CONTINUOUS
10
75.8106
20
-71.9067
11
75.8106
21
-71.9067
0
LINE
8
BLACK
6
CONTINUOUS
10
75.8106
20
-71.9067
11
75.7404
21
-71.9923
0
LINE
8
BLACK
6
CONTINUOUS
10
75.7404
20
-71.9923
11
75.7404
21
-71.9923
0
LINE
8
BLACK
6
CONTINUOUS
10
75.7404
20
-71.9923
11
75.7169
21
-72.0209
0
LINE
8
BLACK
6
CONTINUOUS
10
75.7169
20
-72.0209
11
75.6883
21
-72.0444
0
LINE
8
BLACK
6
CONTINUOUS
10
75.6883
20
-72.0444
11
72.0444
21
-75.6883
0
LINE
8
BLACK
6
CONTINUOUS
10
72.0444
20
-75.6883
11
72.0209
21
-75.7169
0
LINE
8
BLACK
6
CONTINUOUS
10
72.0209
20
-75.7169
11
71.9067
21
-75.8106
0
LINE
8
BLACK
6
CONTINUOUS
10
71.9067
20
-75.8106
11
71.7764
21
-75.8803
0
LINE
8
BLACK
6
CONTINUOUS
10
71.7764
20
-75.8803
11
71.635
21
-75.9231
0
LINE
8
BLACK
6
CONTINUOUS
10
71.635
20
-75.9231
11
71.5248
21
-75.934
0
LINE
8
BLACK
6
CONTINUOUS
10
71.5248
20
-75.934
11
71.5248
21
-75.934
0
LINE
8
BLACK
6
CONTINUOUS
10
71.5248
20
-75.934
11
71.488
21
-75.9376
0
LINE
8
BLACK
6
CONTINUOUS
10
71.488
20
-75.9376
11
71.4512
21
-75.934
0
LINE
8
BLACK
6
CONTINUOUS
10
71.4512
20
-75.934
11
70.346
21
-75.934
0
LINE
8
BLACK
6
CONTINUOUS
10
70.346
20
-75.934
11
70.346
21
-82.308
0
LINE
8
BLACK
6
CONTINUOUS
10
70.346
20
-82.308
11
84.8172
21
-82.308
0
LINE
8
BLACK
6
CONTINUOUS
10
84.8172
20
-82.308
11
84.854
21
-82.3044
0
LINE
8
BLACK
6
CONTINUOUS
10
84.854
20
-82.3044
11
84.8908
21
-82.308
0
LINE
8
BLACK
6
CONTINUOUS
10
84.8908
20
-82.308
11
84.8908
21
-82.308
0
LINE
8
BLACK
6
CONTINUOUS
10
84.8908
20
-82.308
11
85.001
21
-82.3189
0
LINE
8
BLACK
6
CONTINUOUS
10
85.001
20
-82.3189
11
85.1424
21
-82.3617
0
LINE
8
BLACK
6
CONTINUOUS
10
85.1424
20
-82.3617
11
85.2727
21
-82.4314
0
LINE
8
BLACK
6
CONTINUOUS
10
85.2727
20
-82.4314
11
85.3869
21
-82.5251
0
LINE
8
BLACK
6
CONTINUOUS
10
85.3869
20
-82.5251
11
85.4104
21
-82.5537
0
LINE
8
BLACK
6
CONTINUOUS
10
85.4104
20
-82.5537
11
98.3587
21
-95.502
0
LINE
8
BLACK
6
CONTINUOUS
10
98.3587
20
-95.502
11
98.3965
21
-95.502
0
LINE
8
BLACK
6
CONTINUOUS
10
98.3965
20
-95.502
11
98.5897
21
-95.5404
0
LINE
8
BLACK
6
CONTINUOUS
10
98.5897
20
-95.5404
11
98.7717
21
-95.6158
0
LINE
8
BLACK
6
CONTINUOUS
10
98.7717
20
-95.6158
11
98.9355
21
-95.7252
0
LINE
8
BLACK
6
CONTINUOUS
10
98.9355
20
-95.7252
11
99.0748
21
-95.8645
0
LINE
8
BLACK
6
CONTINUOUS
10
99.0748
20
-95.8645
11
99.1842
21
-96.0283
0
LINE
8
BLACK
6
CONTINUOUS
10
99.1842
20
-96.0283
11
99.2596
21
-96.2103
0
LINE
8
BLACK
6
CONTINUOUS
10
99.2596
20
-96.2103
11
99.298
21
-96.4035
0
LINE
8
BLACK
6
CONTINUOUS
10
99.298
20
-96.4035
11
99.298
21
-96.6005
0
LINE
8
BLACK
6
CONTINUOUS
10
99.298
20
-96.6005
11
99.2596
21
-96.7937
0
LINE
8
BLACK
6
CONTINUOUS
10
99.2596
20
-96.7937
11
99.1842
21
-96.9757
0
LINE
8
BLACK
6
CONTINUOUS
10
99.1842
20
-96.9757
11
99.0748
21
-97.1395
0
LINE
8
BLACK
6
CONTINUOUS
10
99.0748
20
-97.1395
11
98.9355
21
-97.2788
0
LINE
8
BLACK
6
CONTINUOUS
10
98.9355
20
-97.2788
11
98.7717
21
-97.3882
0
LINE
8
BLACK
6
CONTINUOUS
10
98.7717
20
-97.3882
11
98.5897
21
-97.4636
0
LINE
8
BLACK
6
CONTINUOUS
10
98.5897
20
-97.4636
11
98.3965
21
-97.502
0
LINE
8
BLACK
6
CONTINUOUS
10
98.3965
20
-97.502
11
98.1995
21
-97.502
0
LINE
8
BLACK
6
CONTINUOUS
10
98.1995
20
-97.502
11
98.0063
21
-97.4636
0
LINE
8
BLACK
6
CONTINUOUS
10
98.0063
20
-97.4636
11
97.8243
21
-97.3882
0
LINE
8
BLACK
6
CONTINUOUS
10
97.8243
20
-97.3882
11
97.6605
21
-97.2788
0
LINE
8
BLACK
6
CONTINUOUS
10
97.6605
20
-97.2788
11
97.5212
21
-97.1395
0
LINE
8
BLACK
6
CONTINUOUS
10
97.5212
20
-97.1395
11
97.4118
21
-96.9757
0
LINE
8
BLACK
6
CONTINUOUS
10
97.4118
20
-96.9757
11
97.3364
21
-96.7937
0
LINE
8
BLACK
6
CONTINUOUS
10
97.3364
20
-96.7937
11
97.298
21
-96.6005
0
LINE
8
BLACK
6
CONTINUOUS
10
97.298
20
-96.6005
11
97.298
21
-96.5627
0
LINE
8
BLACK
6
CONTINUOUS
10
97.298
20
-96.5627
11
84.5433
21
-83.808
0
LINE
8
BLACK
6
CONTINUOUS
10
84.5433
20
-83.808
11
70.346
21
-83.808
0
LINE
8
BLACK
6
CONTINUOUS
10
70.346
20
-83.808
11
70.346
21
-85.5612
0
LINE
8
BLACK
6
CONTINUOUS
10
70.346
20
-85.5612
11
70.3496
21
-85.598
0
LINE
8
BLACK
6
CONTINUOUS
10
70.3496
20
-85.598
11
70.346
21
-85.6348
0
LINE
8
BLACK
6
CONTINUOUS
10
70.346
20
-85.6348
11
70.346
21
-86.8312
0
LINE
8
BLACK
6
CONTINUOUS
10
70.346
20
-86.8312
11
70.3496
21
-86.868
0
LINE
8
BLACK
6
CONTINUOUS
10
70.3496
20
-86.868
11
70.346
21
-86.9048
0
LINE
8
BLACK
6
CONTINUOUS
10
70.346
20
-86.9048
11
70.346
21
-86.9048
0
LINE
8
BLACK
6
CONTINUOUS
10
70.346
20
-86.9048
11
70.3351
21
-87.015
0
LINE
8
BLACK
6
CONTINUOUS
10
70.3351
20
-87.015
11
70.2923
21
-87.1564
0
LINE
8
BLACK
6
CONTINUOUS
10
70.2923
20
-87.1564
11
70.2226
21
-87.2867
0
LINE
8
BLACK
6
CONTINUOUS
10
70.2226
20
-87.2867
11
70.2033
21
-87.3103
0
LINE
8
BLACK
6
CONTINUOUS
10
70.2033
20
-87.3103
11
70.1524
21
-87.3723
0
LINE
8
BLACK
6
CONTINUOUS
10
70.1524
20
-87.3723
11
70.1524
21
-87.3723
0
LINE
8
BLACK
6
CONTINUOUS
10
70.1524
20
-87.3723
11
70.1289
21
-87.4009
0
LINE
8
BLACK
6
CONTINUOUS
10
70.1289
20
-87.4009
11
70.1003
21
-87.4244
0
LINE
8
BLACK
6
CONTINUOUS
10
70.1003
20
-87.4244
11
61.5184
21
-96.0063
0
LINE
8
BLACK
6
CONTINUOUS
10
61.5184
20
-96.0063
11
61.4949
21
-96.0349
0
LINE
8
BLACK
6
CONTINUOUS
10
61.4949
20
-96.0349
11
61.3807
21
-96.1286
0
LINE
8
BLACK
6
CONTINUOUS
10
61.3807
20
-96.1286
11
61.2504
21
-96.1983
0
LINE
8
BLACK
6
CONTINUOUS
10
61.2504
20
-96.1983
11
61.109
21
-96.2411
0
LINE
8
BLACK
6
CONTINUOUS
10
61.109
20
-96.2411
11
60.9988
21
-96.252
0
LINE
8
BLACK
6
CONTINUOUS
10
60.9988
20
-96.252
11
60.9988
21
-96.252
0
LINE
8
BLACK
6
CONTINUOUS
10
60.9988
20
-96.252
11
60.962
21
-96.2556
0
LINE
8
BLACK
6
CONTINUOUS
10
60.962
20
-96.2556
11
60.9252
21
-96.252
0
LINE
8
BLACK
6
CONTINUOUS
10
60.9252
20
-96.252
11
54.9047
21
-96.252
0
LINE
8
BLACK
6
CONTINUOUS
10
54.9047
20
-96.252
11
54.594
21
-96.5627
0
LINE
8
BLACK
6
CONTINUOUS
10
54.594
20
-96.5627
11
54.594
21
-96.6005
0
LINE
8
BLACK
6
CONTINUOUS
10
54.594
20
-96.6005
11
54.5556
21
-96.7937
0
LINE
8
BLACK
6
CONTINUOUS
10
54.5556
20
-96.7937
11
54.4802
21
-96.9757
0
LINE
8
BLACK
6
CONTINUOUS
10
54.4802
20
-96.9757
11
54.3708
21
-97.1395
0
LINE
8
BLACK
6
CONTINUOUS
10
54.3708
20
-97.1395
11
54.2315
21
-97.2788
0
LINE
8
BLACK
6
CONTINUOUS
10
54.2315
20
-97.2788
11
54.0677
21
-97.3882
0
LINE
8
BLACK
6
CONTINUOUS
10
54.0677
20
-97.3882
11
53.8857
21
-97.4636
0
LINE
8
BLACK
6
CONTINUOUS
10
53.8857
20
-97.4636
11
53.6925
21
-97.502
0
LINE
8
BLACK
6
CONTINUOUS
10
53.6925
20
-97.502
11
53.4955
21
-97.502
0
LINE
8
BLACK
6
CONTINUOUS
10
53.4955
20
-97.502
11
53.3023
21
-97.4636
0
LINE
8
BLACK
6
CONTINUOUS
10
53.3023
20
-97.4636
11
53.1203
21
-97.3882
0
LINE
8
BLACK
6
CONTINUOUS
10
53.1203
20
-97.3882
11
52.9565
21
-97.2788
0
LINE
8
BLACK
6
CONTINUOUS
10
52.9565
20
-97.2788
11
52.8172
21
-97.1395
0
LINE
8
BLACK
6
CONTINUOUS
10
52.8172
20
-97.1395
11
52.7078
21
-96.9757
0
LINE
8
BLACK
6
CONTINUOUS
10
52.7078
20
-96.9757
11
52.6324
21
-96.7937
0
LINE
8
BLACK
6
CONTINUOUS
10
52.6324
20
-96.7937
11
52.594
21
-96.6005
0
LINE
8
BLACK
6
CONTINUOUS
10
52.594
20
-96.6005
11
52.594
21
-96.4035
0
LINE
8
BLACK
6
CONTINUOUS
10
52.594
20
-96.4035
11
52.6324
21
-96.2103
0
LINE
8
BLACK
6
CONTINUOUS
10
52.6324
20
-96.2103
11
52.7078
21
-96.0283
0
LINE
8
BLACK
6
CONTINUOUS
10
52.7078
20
-96.0283
11
52.8172
21
-95.8645
0
LINE
8
BLACK
6
CONTINUOUS
10
52.8172
20
-95.8645
11
52.9565
21
-95.7252
0
LINE
8
BLACK
6
CONTINUOUS
10
52.9565
20
-95.7252
11
53.1203
21
-95.6158
0
LINE
8
BLACK
6
CONTINUOUS
10
53.1203
20
-95.6158
11
53.3023
21
-95.5404
0
LINE
8
BLACK
6
CONTINUOUS
10
53.3023
20
-95.5404
11
53.4955
21
-95.502
0
LINE
8
BLACK
6
CONTINUOUS
10
53.4955
20
-95.502
11
53.5333
21
-95.502
0
LINE
8
BLACK
6
CONTINUOUS
10
53.5333
20
-95.502
11
54.0376
21
-94.9977
0
LINE
8
BLACK
6
CONTINUOUS
10
54.0376
20
-94.9977
11
54.0611
21
-94.9691
0
LINE
8
BLACK
6
CONTINUOUS
10
54.0611
20
-94.9691
11
54.1753
21
-94.8754
0
LINE
8
BLACK
6
CONTINUOUS
10
54.1753
20
-94.8754
11
54.3056
21
-94.8057
0
LINE
8
BLACK
6
CONTINUOUS
10
54.3056
20
-94.8057
11
54.447
21
-94.7629
0
LINE
8
BLACK
6
CONTINUOUS
10
54.447
20
-94.7629
11
54.5572
21
-94.752
0
LINE
8
BLACK
6
CONTINUOUS
10
54.5572
20
-94.752
11
54.5572
21
-94.752
0
LINE
8
BLACK
6
CONTINUOUS
10
54.5572
20
-94.752
11
54.594
21
-94.7484
0
LINE
8
BLACK
6
CONTINUOUS
10
54.594
20
-94.7484
11
54.6308
21
-94.752
0
LINE
8
BLACK
6
CONTINUOUS
10
54.6308
20
-94.752
11
60.6513
21
-94.752
0
LINE
8
BLACK
6
CONTINUOUS
10
60.6513
20
-94.752
11
68.846
21
-86.5573
0
LINE
8
BLACK
6
CONTINUOUS
10
68.846
20
-86.5573
11
68.846
21
-86.348
0
LINE
8
BLACK
6
CONTINUOUS
10
68.846
20
-86.348
11
56.8408
21
-86.348
0
LINE
8
BLACK
6
CONTINUOUS
10
56.8408
20
-86.348
11
56.804
21
-86.3516
0
LINE
8
BLACK
6
CONTINUOUS
10
56.804
20
-86.3516
11
56.7672
21
-86.348
0
LINE
8
BLACK
6
CONTINUOUS
10
56.7672
20
-86.348
11
56.7672
21
-86.348
0
LINE
8
BLACK
6
CONTINUOUS
10
56.7672
20
-86.348
11
56.657
21
-86.3371
0
LINE
8
BLACK
6
CONTINUOUS
10
56.657
20
-86.3371
11
56.5156
21
-86.2943
0
LINE
8
BLACK
6
CONTINUOUS
10
56.5156
20
-86.2943
11
56.3853
21
-86.2246
0
LINE
8
BLACK
6
CONTINUOUS
10
56.3853
20
-86.2246
11
56.3496
21
-86.1953
0
LINE
8
BLACK
6
CONTINUOUS
10
56.3496
20
-86.1953
11
56.2997
21
-86.1544
0
LINE
8
BLACK
6
CONTINUOUS
10
56.2997
20
-86.1544
11
56.2997
21
-86.1544
0
LINE
8
BLACK
6
CONTINUOUS
10
56.2997
20
-86.1544
11
56.2711
21
-86.1309
0
LINE
8
BLACK
6
CONTINUOUS
10
56.2711
20
-86.1309
11
56.2476
21
-86.1023
0
LINE
8
BLACK
6
CONTINUOUS
10
56.2476
20
-86.1023
11
49.4157
21
-79.2704
0
LINE
8
BLACK
6
CONTINUOUS
10
49.4157
20
-79.2704
11
49.3871
21
-79.2469
0
LINE
8
BLACK
6
CONTINUOUS
10
49.3871
20
-79.2469
11
49.3636
21
-79.2183
0
LINE
8
BLACK
6
CONTINUOUS
10
49.3636
20
-79.2183
11
49.3636
21
-79.2183
0
LINE
8
BLACK
6
CONTINUOUS
10
49.3636
20
-79.2183
11
49.3361
21
-79.1848
0
LINE
8
BLACK
6
CONTINUOUS
10
49.3361
20
-79.1848
11
49.2934
21
-79.1327
0
LINE
8
BLACK
6
CONTINUOUS
10
49.2934
20
-79.1327
11
49.2237
21
-79.0024
0
LINE
8
BLACK
6
CONTINUOUS
10
49.2237
20
-79.0024
11
49.2237
21
-79.0024
0
LINE
8
BLACK
6
CONTINUOUS
10
49.2237
20
-79.0024
11
49.1809
21
-78.861
0
LINE
8
BLACK
6
CONTINUOUS
10
49.1809
20
-78.861
11
49.1664
21
-78.714
0
LINE
8
BLACK
6
CONTINUOUS
10
49.1664
20
-78.714
11
49.17
21
-78.6772
0
LINE
8
BLACK
6
CONTINUOUS
10
49.17
20
-78.6772
11
49.17
21
-52.7328
0
LINE
8
BLACK
6
CONTINUOUS
10
49.17
20
-52.7328
11
49.1664
21
-52.696
0
LINE
8
BLACK
6
CONTINUOUS
10
49.1664
20
-52.696
11
49.17
21
-52.6592
0
LINE
8
BLACK
6
CONTINUOUS
10
49.17
20
-52.6592
11
49.17
21
-52.6592
0
LINE
8
BLACK
6
CONTINUOUS
10
49.17
20
-52.6592
11
49.1809
21
-52.549
0
LINE
8
BLACK
6
CONTINUOUS
10
49.1809
20
-52.549
11
49.2237
21
-52.4076
0
LINE
8
BLACK
6
CONTINUOUS
10
49.2237
20
-52.4076
11
49.2934
21
-52.2773
0
LINE
8
BLACK
6
CONTINUOUS
10
49.2934
20
-52.2773
11
49.3871
21
-52.1631
0
LINE
8
BLACK
6
CONTINUOUS
10
49.3871
20
-52.1631
11
49.4157
21
-52.1396
0
LINE
8
BLACK
6
CONTINUOUS
10
49.4157
20
-52.1396
11
51.6344
21
-49.921
0
LINE
8
BLACK
6
CONTINUOUS
10
51.6344
20
-49.921
11
51.586
21
-49.6777
0
LINE
8
BLACK
6
CONTINUOUS
10
51.586
20
-49.6777
11
51.586
21
-49.3823
0
LINE
8
BLACK
6
CONTINUOUS
10
51.586
20
-49.3823
11
51.6436
21
-49.0925
0
LINE
8
BLACK
6
CONTINUOUS
10
51.6436
20
-49.0925
11
51.7567
21
-48.8195
0
LINE
8
BLACK
6
CONTINUOUS
10
51.7567
20
-48.8195
11
51.9209
21
-48.5738
0
LINE
8
BLACK
6
CONTINUOUS
10
51.9209
20
-48.5738
11
52.1298
21
-48.3649
0
LINE
8
BLACK
6
CONTINUOUS
10
52.1298
20
-48.3649
11
52.3755
21
-48.2007
0
LINE
8
BLACK
6
CONTINUOUS
10
52.3755
20
-48.2007
11
52.6485
21
-48.0876
0
LINE
8
BLACK
6
CONTINUOUS
10
52.6485
20
-48.0876
11
52.9383
21
-48.03
0
LINE
8
BLACK
6
CONTINUOUS
10
52.9383
20
-48.03
11
53.2337
21
-48.03
0
LINE
8
BLACK
6
CONTINUOUS
10
53.2337
20
-48.03
11
53.5235
21
-48.0876
0
LINE
8
BLACK
6
CONTINUOUS
10
146.026
20
-64.528
11
147.489
21
-64.528
0
LINE
8
BLACK
6
CONTINUOUS
10
147.489
20
-64.528
11
147.526
21
-64.5244
0
LINE
8
BLACK
6
CONTINUOUS
10
147.526
20
-64.5244
11
147.563
21
-64.528
0
LINE
8
BLACK
6
CONTINUOUS
10
147.563
20
-64.528
11
147.563
21
-64.528
0
LINE
8
BLACK
6
CONTINUOUS
10
147.563
20
-64.528
11
147.673
21
-64.5389
0
LINE
8
BLACK
6
CONTINUOUS
10
147.673
20
-64.5389
11
147.814
21
-64.5817
0
LINE
8
BLACK
6
CONTINUOUS
10
147.814
20
-64.5817
11
147.945
21
-64.6514
0
LINE
8
BLACK
6
CONTINUOUS
10
147.945
20
-64.6514
11
148.059
21
-64.7451
0
LINE
8
BLACK
6
CONTINUOUS
10
148.059
20
-64.7451
11
148.082
21
-64.7737
0
LINE
8
BLACK
6
CONTINUOUS
10
148.082
20
-64.7737
11
149.602
21
-66.2936
0
LINE
8
BLACK
6
CONTINUOUS
10
149.602
20
-66.2936
11
149.631
21
-66.3171
0
LINE
8
BLACK
6
CONTINUOUS
10
149.631
20
-66.3171
11
149.725
21
-66.4313
0
LINE
8
BLACK
6
CONTINUOUS
10
149.725
20
-66.4313
11
149.794
21
-66.5616
0
LINE
8
BLACK
6
CONTINUOUS
10
149.794
20
-66.5616
11
149.837
21
-66.703
0
LINE
8
BLACK
6
CONTINUOUS
10
149.837
20
-66.703
11
149.848
21
-66.8132
0
LINE
8
BLACK
6
CONTINUOUS
10
149.848
20
-66.8132
11
149.848
21
-66.8132
0
LINE
8
BLACK
6
CONTINUOUS
10
149.848
20
-66.8132
11
149.852
21
-66.85
0
LINE
8
BLACK
6
CONTINUOUS
10
149.852
20
-66.85
11
149.848
21
-66.8868
0
LINE
8
BLACK
6
CONTINUOUS
10
149.848
20
-66.8868
11
149.848
21
-85.0052
0
LINE
8
BLACK
6
CONTINUOUS
10
149.848
20
-85.0052
11
149.852
21
-85.042
0
LINE
8
BLACK
6
CONTINUOUS
10
149.852
20
-85.042
11
149.848
21
-85.0788
0
LINE
8
BLACK
6
CONTINUOUS
10
149.848
20
-85.0788
11
149.848
21
-85.0788
0
LINE
8
BLACK
6
CONTINUOUS
10
149.848
20
-85.0788
11
149.837
21
-85.189
0
LINE
8
BLACK
6
CONTINUOUS
10
149.837
20
-85.189
11
149.794
21
-85.3304
0
LINE
8
BLACK
6
CONTINUOUS
10
149.794
20
-85.3304
11
149.725
21
-85.4607
0
LINE
8
BLACK
6
CONTINUOUS
10
149.725
20
-85.4607
11
149.631
21
-85.5749
0
LINE
8
BLACK
6
CONTINUOUS
10
149.631
20
-85.5749
11
149.602
21
-85.5984
0
LINE
8
BLACK
6
CONTINUOUS
10
149.602
20
-85.5984
11
148.082
21
-87.1183
0
LINE
8
BLACK
6
CONTINUOUS
10
148.082
20
-87.1183
11
148.059
21
-87.1469
0
LINE
8
BLACK
6
CONTINUOUS
10
148.059
20
-87.1469
11
147.945
21
-87.2406
0
LINE
8
BLACK
6
CONTINUOUS
10
147.945
20
-87.2406
11
147.814
21
-87.3103
0
LINE
8
BLACK
6
CONTINUOUS
10
147.814
20
-87.3103
11
147.673
21
-87.3531
0
LINE
8
BLACK
6
CONTINUOUS
10
147.673
20
-87.3531
11
147.563
21
-87.364
0
LINE
8
BLACK
6
CONTINUOUS
10
147.563
20
-87.364
11
147.563
21
-87.364
0
LINE
8
BLACK
6
CONTINUOUS
10
147.563
20
-87.364
11
147.526
21
-87.3676
0
LINE
8
BLACK
6
CONTINUOUS
10
147.526
20
-87.3676
11
147.489
21
-87.364
0
LINE
8
BLACK
6
CONTINUOUS
10
147.489
20
-87.364
11
146.026
21
-87.364
0
LINE
8
BLACK
6
CONTINUOUS
10
146.026
20
-87.364
11
146.026
21
-88.114
0
LINE
8
BLACK
6
CONTINUOUS
10
146.026
20
-88.114
11
144.087
21
-88.114
0
LINE
8
BLACK
6
CONTINUOUS
10
144.087
20
-88.114
11
139.048
21
-93.1527
0
LINE
8
BLACK
6
CONTINUOUS
10
139.048
20
-93.1527
11
139.048
21
-95.8378
0
LINE
8
BLACK
6
CONTINUOUS
10
139.048
20
-95.8378
11
139.075
21
-95.8645
0
LINE
8
BLACK
6
CONTINUOUS
10
139.075
20
-95.8645
11
139.184
21
-96.0283
0
LINE
8
BLACK
6
CONTINUOUS
10
139.184
20
-96.0283
11
139.26
21
-96.2103
0
LINE
8
BLACK
6
CONTINUOUS
10
139.26
20
-96.2103
11
139.298
21
-96.4035
0
LINE
8
BLACK
6
CONTINUOUS
10
139.298
20
-96.4035
11
139.298
21
-96.6005
0
LINE
8
BLACK
6
CONTINUOUS
10
139.298
20
-96.6005
11
139.26
21
-96.7937
0
LINE
8
BLACK
6
CONTINUOUS
10
139.26
20
-96.7937
11
139.184
21
-96.9757
0
LINE
8
BLACK
6
CONTINUOUS
10
139.184
20
-96.9757
11
139.075
21
-97.1395
0
LINE
8
BLACK
6
CONTINUOUS
10
139.075
20
-97.1395
11
138.935
21
-97.2788
0
LINE
8
BLACK
6
CONTINUOUS
10
138.935
20
-97.2788
11
138.772
21
-97.3882
0
LINE
8
BLACK
6
CONTINUOUS
10
138.772
20
-97.3882
11
138.59
21
-97.4636
0
LINE
8
BLACK
6
CONTINUOUS
10
138.59
20
-97.4636
11
138.396
21
-97.502
0
LINE
8
BLACK
6
CONTINUOUS
10
138.396
20
-97.502
11
138.2
21
-97.502
0
LINE
8
BLACK
6
CONTINUOUS
10
138.2
20
-97.502
11
138.006
21
-97.4636
0
LINE
8
BLACK
6
CONTINUOUS
10
138.006
20
-97.4636
11
137.824
21
-97.3882
0
LINE
8
BLACK
6
CONTINUOUS
10
137.824
20
-97.3882
11
137.661
21
-97.2788
0
LINE
8
BLACK
6
CONTINUOUS
10
137.661
20
-97.2788
11
137.521
21
-97.1395
0
LINE
8
BLACK
6
CONTINUOUS
10
137.521
20
-97.1395
11
137.412
21
-96.9757
0
LINE
8
BLACK
6
CONTINUOUS
10
137.412
20
-96.9757
11
137.336
21
-96.7937
0
LINE
8
BLACK
6
CONTINUOUS
10
137.336
20
-96.7937
11
137.298
21
-96.6005
0
LINE
8
BLACK
6
CONTINUOUS
10
137.298
20
-96.6005
11
137.298
21
-96.4035
0
LINE
8
BLACK
6
CONTINUOUS
10
137.298
20
-96.4035
11
137.336
21
-96.2103
0
LINE
8
BLACK
6
CONTINUOUS
10
137.336
20
-96.2103
11
137.412
21
-96.0283
0
LINE
8
BLACK
6
CONTINUOUS
10
137.412
20
-96.0283
11
137.521
21
-95.8645
0
LINE
8
BLACK
6
CONTINUOUS
10
137.521
20
-95.8645
11
137.548
21
-95.8378
0
LINE
8
BLACK
6
CONTINUOUS
10
137.548
20
-95.8378
11
137.548
21
-92.8788
0
LINE
8
BLACK
6
CONTINUOUS
10
137.548
20
-92.8788
11
137.544
21
-92.842
0
LINE
8
BLACK
6
CONTINUOUS
10
137.544
20
-92.842
11
137.559
21
-92.695
0
LINE
8
BLACK
6
CONTINUOUS
10
137.559
20
-92.695
11
137.602
21
-92.5536
0
LINE
8
BLACK
6
CONTINUOUS
10
137.602
20
-92.5536
11
137.634
21
-92.4929
0
LINE
8
BLACK
6
CONTINUOUS
10
137.634
20
-92.4929
11
137.671
21
-92.4233
0
LINE
8
BLACK
6
CONTINUOUS
10
137.671
20
-92.4233
11
137.714
21
-92.3712
0
LINE
8
BLACK
6
CONTINUOUS
10
137.714
20
-92.3712
11
137.742
21
-92.3377
0
LINE
8
BLACK
6
CONTINUOUS
10
137.742
20
-92.3377
11
137.742
21
-92.3377
0
LINE
8
BLACK
6
CONTINUOUS
10
137.742
20
-92.3377
11
137.765
21
-92.3091
0
LINE
8
BLACK
6
CONTINUOUS
10
137.765
20
-92.3091
11
137.794
21
-92.2856
0
LINE
8
BLACK
6
CONTINUOUS
10
137.794
20
-92.2856
11
143.026
21
-87.0533
0
LINE
8
BLACK
6
CONTINUOUS
10
143.026
20
-87.0533
11
143.026
21
-85.114
0
LINE
8
BLACK
6
CONTINUOUS
10
143.026
20
-85.114
11
146.026
21
-85.114
0
LINE
8
BLACK
6
CONTINUOUS
10
146.026
20
-85.114
11
146.026
21
-85.864
0
LINE
8
BLACK
6
CONTINUOUS
10
146.026
20
-85.864
11
147.215
21
-85.864
0
LINE
8
BLACK
6
CONTINUOUS
10
147.215
20
-85.864
11
148.348
21
-84.7313
0
LINE
8
BLACK
6
CONTINUOUS
10
148.348
20
-84.7313
11
148.348
21
-67.1607
0
LINE
8
BLACK
6
CONTINUOUS
10
148.348
20
-67.1607
11
147.215
21
-66.028
0
LINE
8
BLACK
6
CONTINUOUS
10
147.215
20
-66.028
11
146.026
21
-66.028
0
LINE
8
BLACK
6
CONTINUOUS
10
146.026
20
-66.028
11
146.026
21
-66.778
0
LINE
8
BLACK
6
CONTINUOUS
10
146.026
20
-66.778
11
143.026
21
-66.778
0
LINE
8
BLACK
6
CONTINUOUS
10
143.026
20
-66.778
11
143.026
21
-63.778
0
LINE
8
BLACK
6
CONTINUOUS
10
143.026
20
-63.778
11
146.026
21
-63.778
0
LINE
8
BLACK
6
CONTINUOUS
10
146.026
20
-63.778
11
146.026
21
-64.528
0
LINE
8
BLACK
6
CONTINUOUS
10
145.909
20
-90.8413
11
146.455
21
-91.0674
0
LINE
8
BLACK
6
CONTINUOUS
10
146.455
20
-91.0674
11
146.946
21
-91.3957
0
LINE
8
BLACK
6
CONTINUOUS
10
146.946
20
-91.3957
11
147.364
21
-91.8136
0
LINE
8
BLACK
6
CONTINUOUS
10
147.364
20
-91.8136
11
147.693
21
-92.305
0
LINE
8
BLACK
6
CONTINUOUS
10
147.693
20
-92.305
11
147.919
21
-92.8509
0
LINE
8
BLACK
6
CONTINUOUS
10
147.919
20
-92.8509
11
148.034
21
-93.4305
0
LINE
8
BLACK
6
CONTINUOUS
10
148.034
20
-93.4305
11
148.034
21
-94.0215
0
LINE
8
BLACK
6
CONTINUOUS
10
148.034
20
-94.0215
11
147.919
21
-94.6011
0
LINE
8
BLACK
6
CONTINUOUS
10
147.919
20
-94.6011
11
147.693
21
-95.147
0
LINE
8
BLACK
6
CONTINUOUS
10
147.693
20
-95.147
11
147.364
21
-95.6384
0
LINE
8
BLACK
6
CONTINUOUS
10
147.364
20
-95.6384
11
146.946
21
-96.0563
0
LINE
8
BLACK
6
CONTINUOUS
10
146.946
20
-96.0563
11
146.455
21
-96.3846
0
LINE
8
BLACK
6
CONTINUOUS
10
146.455
20
-96.3846
11
145.909
21
-96.6107
0
LINE
8
BLACK
6
CONTINUOUS
10
145.909
20
-96.6107
11
145.329
21
-96.726
0
LINE
8
BLACK
6
CONTINUOUS
10
145.329
20
-96.726
11
144.739
21
-96.726
0
LINE
8
BLACK
6
CONTINUOUS
10
144.739
20
-96.726
11
144.159
21
-96.6107
0
LINE
8
BLACK
6
CONTINUOUS
10
144.159
20
-96.6107
11
143.613
21
-96.3846
0
LINE
8
BLACK
6
CONTINUOUS
10
143.613
20
-96.3846
11
143.122
21
-96.0563
0
LINE
8
BLACK
6
CONTINUOUS
10
143.122
20
-96.0563
11
142.704
21
-95.6384
0
LINE
8
BLACK
6
CONTINUOUS
10
142.704
20
-95.6384
11
142.375
21
-95.147
0
LINE
8
BLACK
6
CONTINUOUS
10
142.375
20
-95.147
11
142.149
21
-94.6011
0
LINE
8
BLACK
6
CONTINUOUS
10
142.149
20
-94.6011
11
142.034
21
-94.0215
0
LINE
8
BLACK
6
CONTINUOUS
10
142.034
20
-94.0215
11
142.034
21
-93.4305
0
LINE
8
BLACK
6
CONTINUOUS
10
142.034
20
-93.4305
11
142.149
21
-92.8509
0
LINE
8
BLACK
6
CONTINUOUS
10
142.149
20
-92.8509
11
142.375
21
-92.305
0
LINE
8
BLACK
6
CONTINUOUS
10
142.375
20
-92.305
11
142.704
21
-91.8136
0
LINE
8
BLACK
6
CONTINUOUS
10
142.704
20
-91.8136
11
143.122
21
-91.3957
0
LINE
8
BLACK
6
CONTINUOUS
10
143.122
20
-91.3957
11
143.613
21
-91.0674
0
LINE
8
BLACK
6
CONTINUOUS
10
143.613
20
-91.0674
11
144.159
21
-90.8413
0
LINE
8
BLACK
6
CONTINUOUS
10
144.159
20
-90.8413
11
144.739
21
-90.726
0
LINE
8
BLACK
6
CONTINUOUS
10
144.739
20
-90.726
11
145.329
21
-90.726
0
LINE
8
BLACK
6
CONTINUOUS
10
145.329
20
-90.726
11
145.909
21
-90.8413
0
LINE
8
BLACK
6
CONTINUOUS
10
144.964
20
-69.9316
11
145.237
21
-70.0447
0
LINE
8
BLACK
6
CONTINUOUS
10
145.237
20
-70.0447
11
145.482
21
-70.2089
0
LINE
8
BLACK
6
CONTINUOUS
10
145.482
20
-70.2089
11
145.691
21
-70.4178
0
LINE
8
BLACK
6
CONTINUOUS
10
145.691
20
-70.4178
11
145.855
21
-70.6635
0
LINE
8
BLACK
6
CONTINUOUS
10
145.855
20
-70.6635
11
145.968
21
-70.9365
0
LINE
8
BLACK
6
CONTINUOUS
10
145.968
20
-70.9365
11
146.026
21
-71.2263
0
LINE
8
BLACK
6
CONTINUOUS
10
146.026
20
-71.2263
11
146.026
21
-71.5217
0
LINE
8
BLACK
6
CONTINUOUS
10
146.026
20
-71.5217
11
145.968
21
-71.8115
0
LINE
8
BLACK
6
CONTINUOUS
10
145.968
20
-71.8115
11
145.855
21
-72.0845
0
LINE
8
BLACK
6
CONTINUOUS
10
145.855
20
-72.0845
11
145.691
21
-72.3302
0
LINE
8
BLACK
6
CONTINUOUS
10
145.691
20
-72.3302
11
145.482
21
-72.5391
0
LINE
8
BLACK
6
CONTINUOUS
10
145.482
20
-72.5391
11
145.237
21
-72.7033
0
LINE
8
BLACK
6
CONTINUOUS
10
145.237
20
-72.7033
11
144.964
21
-72.8164
0
LINE
8
BLACK
6
CONTINUOUS
10
144.964
20
-72.8164
11
144.674
21
-72.874
0
LINE
8
BLACK
6
CONTINUOUS
10
144.674
20
-72.874
11
144.378
21
-72.874
0
LINE
8
BLACK
6
CONTINUOUS
10
144.378
20
-72.874
11
144.088
21
-72.8164
0
LINE
8
BLACK
6
CONTINUOUS
10
144.088
20
-72.8164
11
143.815
21
-72.7033
0
LINE
8
BLACK
6
CONTINUOUS
10
143.815
20
-72.7033
11
143.57
21
-72.5391
0
LINE
8
BLACK
6
CONTINUOUS
10
143.57
20
-72.5391
11
143.361
21
-72.3302
0
LINE
8
BLACK
6
CONTINUOUS
10
143.361
20
-72.3302
11
143.223
21
-72.124
0
LINE
8
BLACK
6
CONTINUOUS
10
143.223
20
-72.124
11
115.627
21
-72.124
0
LINE
8
BLACK
6
CONTINUOUS
10
115.627
20
-72.124
11
103.172
21
-84.5783
0
LINE
8
BLACK
6
CONTINUOUS
10
103.172
20
-84.5783
11
103.149
21
-84.6069
0
LINE
8
BLACK
6
CONTINUOUS
10
103.149
20
-84.6069
11
103.035
21
-84.7006
0
LINE
8
BLACK
6
CONTINUOUS
10
103.035
20
-84.7006
11
102.904
21
-84.7703
0
LINE
8
BLACK
6
CONTINUOUS
10
102.904
20
-84.7703
11
102.763
21
-84.8131
0
LINE
8
BLACK
6
CONTINUOUS
10
102.763
20
-84.8131
11
102.653
21
-84.824
0
LINE
8
BLACK
6
CONTINUOUS
10
102.653
20
-84.824
11
102.653
21
-84.824
0
LINE
8
BLACK
6
CONTINUOUS
10
102.653
20
-84.824
11
102.616
21
-84.8276
0
LINE
8
BLACK
6
CONTINUOUS
10
102.616
20
-84.8276
11
102.579
21
-84.824
0
LINE
8
BLACK
6
CONTINUOUS
10
102.579
20
-84.824
11
96.0488
21
-84.824
0
LINE
8
BLACK
6
CONTINUOUS
10
96.0488
20
-84.824
11
96.012
21
-84.8276
0
LINE
8
BLACK
6
CONTINUOUS
10
96.012
20
-84.8276
11
95.9752
21
-84.824
0
LINE
8
BLACK
6
CONTINUOUS
10
95.9752
20
-84.824
11
95.9752
21
-84.824
0
LINE
8
BLACK
6
CONTINUOUS
10
95.9752
20
-84.824
11
95.865
21
-84.8131
0
LINE
8
BLACK
6
CONTINUOUS
10
95.865
20
-84.8131
11
95.7236
21
-84.7703
0
LINE
8
BLACK
6
CONTINUOUS
10
95.7236
20
-84.7703
11
95.5933
21
-84.7006
0
LINE
8
BLACK
6
CONTINUOUS
10
95.5933
20
-84.7006
11
95.5819
21
-84.6913
0
LINE
8
BLACK
6
CONTINUOUS
10
95.5819
20
-84.6913
11
95.5077
21
-84.6304
0
LINE
8
BLACK
6
CONTINUOUS
10
95.5077
20
-84.6304
11
95.5077
21
-84.6304
0
LINE
8
BLACK
6
CONTINUOUS
10
95.5077
20
-84.6304
11
95.4791
21
-84.6069
0
LINE
8
BLACK
6
CONTINUOUS
10
95.4791
20
-84.6069
11
95.4556
21
-84.5783
0
LINE
8
BLACK
6
CONTINUOUS
10
95.4556
20
-84.5783
11
93.0897
21
-82.2124
0
LINE
8
BLACK
6
CONTINUOUS
10
93.0897
20
-82.2124
11
93.0611
21
-82.1889
0
LINE
8
BLACK
6
CONTINUOUS
10
93.0611
20
-82.1889
11
93.0376
21
-82.1603
0
LINE
8
BLACK
6
CONTINUOUS
10
93.0376
20
-82.1603
11
93.0376
21
-82.1603
0
LINE
8
BLACK
6
CONTINUOUS
10
93.0376
20
-82.1603
11
92.9803
21
-82.0904
0
LINE
8
BLACK
6
CONTINUOUS
10
92.9803
20
-82.0904
11
92.9674
21
-82.0747
0
LINE
8
BLACK
6
CONTINUOUS
10
92.9674
20
-82.0747
11
92.9122
21
-81.9715
0
LINE
8
BLACK
6
CONTINUOUS
10
92.9122
20
-81.9715
11
92.8977
21
-81.9444
0
LINE
8
BLACK
6
CONTINUOUS
10
92.8977
20
-81.9444
11
92.8549
21
-81.803
0
LINE
8
BLACK
6
CONTINUOUS
10
92.8549
20
-81.803
11
92.8404
21
-81.656
0
LINE
8
BLACK
6
CONTINUOUS
10
92.8404
20
-81.656
11
92.844
21
-81.6192
0
LINE
8
BLACK
6
CONTINUOUS
10
92.844
20
-81.6192
11
92.844
21
-80.1662
0
LINE
8
BLACK
6
CONTINUOUS
10
92.844
20
-80.1662
11
92.8172
21
-80.1395
0
LINE
8
BLACK
6
CONTINUOUS
10
92.8172
20
-80.1395
11
92.7078
21
-79.9757
0
LINE
8
BLACK
6
CONTINUOUS
10
92.7078
20
-79.9757
11
92.6324
21
-79.7937
0
LINE
8
BLACK
6
CONTINUOUS
10
92.6324
20
-79.7937
11
92.594
21
-79.6005
0
LINE
8
BLACK
6
CONTINUOUS
10
92.594
20
-79.6005
11
92.594
21
-79.4035
0
LINE
8
BLACK
6
CONTINUOUS
10
92.594
20
-79.4035
11
92.6324
21
-79.2103
0
LINE
8
BLACK
6
CONTINUOUS
10
92.6324
20
-79.2103
11
92.7078
21
-79.0283
0
LINE
8
BLACK
6
CONTINUOUS
10
92.7078
20
-79.0283
11
92.8172
21
-78.8645
0
LINE
8
BLACK
6
CONTINUOUS
10
92.8172
20
-78.8645
11
92.9565
21
-78.7252
0
LINE
8
BLACK
6
CONTINUOUS
10
92.9565
20
-78.7252
11
93.1203
21
-78.6158
0
LINE
8
BLACK
6
CONTINUOUS
10
93.1203
20
-78.6158
11
93.3023
21
-78.5404
0
LINE
8
BLACK
6
CONTINUOUS
10
93.3023
20
-78.5404
11
93.4955
21
-78.502
0
LINE
8
BLACK
6
CONTINUOUS
10
93.4955
20
-78.502
11
93.6925
21
-78.502
0
LINE
8
BLACK
6
CONTINUOUS
10
93.6925
20
-78.502
11
93.8857
21
-78.5404
0
LINE
8
BLACK
6
CONTINUOUS
10
93.8857
20
-78.5404
11
94.0677
21
-78.6158
0
LINE
8
BLACK
6
CONTINUOUS
10
94.0677
20
-78.6158
11
94.2315
21
-78.7252
0
LINE
8
BLACK
6
CONTINUOUS
10
94.2315
20
-78.7252
11
94.3708
21
-78.8645
0
LINE
8
BLACK
6
CONTINUOUS
10
94.3708
20
-78.8645
11
94.4802
21
-79.0283
0
LINE
8
BLACK
6
CONTINUOUS
10
94.4802
20
-79.0283
11
94.5556
21
-79.2103
0
LINE
8
BLACK
6
CONTINUOUS
10
94.5556
20
-79.2103
11
94.594
21
-79.4035
0
LINE
8
BLACK
6
CONTINUOUS
10
94.594
20
-79.4035
11
94.594
21
-79.6005
0
LINE
8
BLACK
6
CONTINUOUS
10
94.594
20
-79.6005
11
94.5556
21
-79.7937
0
LINE
8
BLACK
6
CONTINUOUS
10
94.5556
20
-79.7937
11
94.4802
21
-79.9757
0
LINE
8
BLACK
6
CONTINUOUS
10
94.4802
20
-79.9757
11
94.3708
21
-80.1395
0
LINE
8
BLACK
6
CONTINUOUS
10
94.3708
20
-80.1395
11
94.344
21
-80.1662
0
LINE
8
BLACK
6
CONTINUOUS
10
94.344
20
-80.1662
11
94.344
21
-81.3453
0
LINE
8
BLACK
6
CONTINUOUS
10
94.344
20
-81.3453
11
96.3227
21
-83.324
0
LINE
8
BLACK
6
CONTINUOUS
10
96.3227
20
-83.324
11
102.305
21
-83.324
0
LINE
8
BLACK
6
CONTINUOUS
10
102.305
20
-83.324
11
114.76
21
-70.8697
0
LINE
8
BLACK
6
CONTINUOUS
10
114.76
20
-70.8697
11
114.783
21
-70.8411
0
LINE
8
BLACK
6
CONTINUOUS
10
114.783
20
-70.8411
11
114.897
21
-70.7474
0
LINE
8
BLACK
6
CONTINUOUS
10
114.897
20
-70.7474
11
115.028
21
-70.6777
0
LINE
8
BLACK
6
CONTINUOUS
10
115.028
20
-70.6777
11
115.075
21
-70.6635
0
LINE
8
BLACK
6
CONTINUOUS
10
115.075
20
-70.6635
11
115.169
21
-70.6349
0
LINE
8
BLACK
6
CONTINUOUS
10
115.169
20
-70.6349
11
115.184
21
-70.6334
0
LINE
8
BLACK
6
CONTINUOUS
10
115.184
20
-70.6334
11
115.279
21
-70.624
0
LINE
8
BLACK
6
CONTINUOUS
10
115.279
20
-70.624
11
115.279
21
-70.624
0
LINE
8
BLACK
6
CONTINUOUS
10
115.279
20
-70.624
11
115.316
21
-70.6204
0
LINE
8
BLACK
6
CONTINUOUS
10
115.316
20
-70.6204
11
115.353
21
-70.624
0
LINE
8
BLACK
6
CONTINUOUS
10
115.353
20
-70.624
11
143.223
21
-70.624
0
LINE
8
BLACK
6
CONTINUOUS
10
143.223
20
-70.624
11
143.361
21
-70.4178
0
LINE
8
BLACK
6
CONTINUOUS
10
143.361
20
-70.4178
11
143.57
21
-70.2089
0
LINE
8
BLACK
6
CONTINUOUS
10
143.57
20
-70.2089
11
143.815
21
-70.0447
0
LINE
8
BLACK
6
CONTINUOUS
10
143.815
20
-70.0447
11
144.088
21
-69.9316
0
LINE
8
BLACK
6
CONTINUOUS
10
144.088
20
-69.9316
11
144.378
21
-69.874
0
LINE
8
BLACK
6
CONTINUOUS
10
144.378
20
-69.874
11
144.674
21
-69.874
0
LINE
8
BLACK
6
CONTINUOUS
10
144.674
20
-69.874
11
144.964
21
-69.9316
0
LINE
8
BLACK
6
CONTINUOUS
10
144.964
20
-58.7556
11
145.237
21
-58.8687
0
LINE
8
BLACK
6
CONTINUOUS
10
145.237
20
-58.8687
11
145.482
21
-59.0329
0
LINE
8
BLACK
6
CONTINUOUS
10
145.482
20
-59.0329
11
145.691
21
-59.2418
0
LINE
8
BLACK
6
CONTINUOUS
10
145.691
20
-59.2418
11
145.855
21
-59.4875
0
LINE
8
BLACK
6
CONTINUOUS
10
145.855
20
-59.4875
11
145.968
21
-59.7605
0
LINE
8
BLACK
6
CONTINUOUS
10
145.968
20
-59.7605
11
146.026
21
-60.0503
0
LINE
8
BLACK
6
CONTINUOUS
10
146.026
20
-60.0503
11
146.026
21
-60.3457
0
LINE
8
BLACK
6
CONTINUOUS
10
146.026
20
-60.3457
11
145.968
21
-60.6355
0
LINE
8
BLACK
6
CONTINUOUS
10
145.968
20
-60.6355
11
145.855
21
-60.9085
0
LINE
8
BLACK
6
CONTINUOUS
10
145.855
20
-60.9085
11
145.691
21
-61.1542
0
LINE
8
BLACK
6
CONTINUOUS
10
145.691
20
-61.1542
11
145.482
21
-61.3631
0
LINE
8
BLACK
6
CONTINUOUS
10
145.482
20
-61.3631
11
145.237
21
-61.5273
0
LINE
8
BLACK
6
CONTINUOUS
10
145.237
20
-61.5273
11
144.964
21
-61.6404
0
LINE
8
BLACK
6
CONTINUOUS
10
144.964
20
-61.6404
11
144.674
21
-61.698
0
LINE
8
BLACK
6
CONTINUOUS
10
144.674
20
-61.698
11
144.378
21
-61.698
0
LINE
8
BLACK
6
CONTINUOUS
10
144.378
20
-61.698
11
144.088
21
-61.6404
0
LINE
8
BLACK
6
CONTINUOUS
10
144.088
20
-61.6404
11
143.815
21
-61.5273
0
LINE
8
BLACK
6
CONTINUOUS
10
143.815
20
-61.5273
11
143.57
21
-61.3631
0
LINE
8
BLACK
6
CONTINUOUS
10
143.57
20
-61.3631
11
143.361
21
-61.1542
0
LINE
8
BLACK
6
CONTINUOUS
10
143.361
20
-61.1542
11
143.223
21
-60.948
0
LINE
8
BLACK
6
CONTINUOUS
10
143.223
20
-60.948
11
142.297
21
-60.948
0
LINE
8
BLACK
6
CONTINUOUS
10
142.297
20
-60.948
11
141.72
21
-61.5247
0
LINE
8
BLACK
6
CONTINUOUS
10
141.72
20
-61.5247
11
141.72
21
-66.2373
0
LINE
8
BLACK
6
CONTINUOUS
10
141.72
20
-66.2373
11
143.059
21
-67.576
0
LINE
8
BLACK
6
CONTINUOUS
10
143.059
20
-67.576
11
145.067
21
-67.576
0
LINE
8
BLACK
6
CONTINUOUS
10
145.067
20
-67.576
11
145.104
21
-67.5724
0
LINE
8
BLACK
6
CONTINUOUS
10
145.104
20
-67.5724
11
145.141
21
-67.576
0
LINE
8
BLACK
6
CONTINUOUS
10
145.141
20
-67.576
11
145.141
21
-67.576
0
LINE
8
BLACK
6
CONTINUOUS
10
145.141
20
-67.576
11
145.251
21
-67.5869
0
LINE
8
BLACK
6
CONTINUOUS
10
145.251
20
-67.5869
11
145.392
21
-67.6297
0
LINE
8
BLACK
6
CONTINUOUS
10
145.392
20
-67.6297
11
145.523
21
-67.6994
0
LINE
8
BLACK
6
CONTINUOUS
10
145.523
20
-67.6994
11
145.637
21
-67.7931
0
LINE
8
BLACK
6
CONTINUOUS
10
145.637
20
-67.7931
11
145.66
21
-67.8217
0
LINE
8
BLACK
6
CONTINUOUS
10
145.66
20
-67.8217
11
147.48
21
-69.6416
0
LINE
8
BLACK
6
CONTINUOUS
10
147.48
20
-69.6416
11
147.509
21
-69.6651
0
LINE
8
BLACK
6
CONTINUOUS
10
147.509
20
-69.6651
11
147.532
21
-69.6937
0
LINE
8
BLACK
6
CONTINUOUS
10
147.532
20
-69.6937
11
147.532
21
-69.6937
0
LINE
8
BLACK
6
CONTINUOUS
10
147.532
20
-69.6937
11
147.587
21
-69.7607
0
LINE
8
BLACK
6
CONTINUOUS
10
147.587
20
-69.7607
11
147.603
21
-69.7793
0
LINE
8
BLACK
6
CONTINUOUS
10
147.603
20
-69.7793
11
147.672
21
-69.9096
0
LINE
8
BLACK
6
CONTINUOUS
10
147.672
20
-69.9096
11
147.715
21
-70.051
0
LINE
8
BLACK
6
CONTINUOUS
10
147.715
20
-70.051
11
147.726
21
-70.1612
0
LINE
8
BLACK
6
CONTINUOUS
10
147.726
20
-70.1612
11
147.726
21
-70.1612
0
LINE
8
BLACK
6
CONTINUOUS
10
147.726
20
-70.1612
11
147.73
21
-70.198
0
LINE
8
BLACK
6
CONTINUOUS
10
147.73
20
-70.198
11
147.726
21
-70.2348
0
LINE
8
BLACK
6
CONTINUOUS
10
147.726
20
-70.2348
11
147.726
21
-79.0472
0
LINE
8
BLACK
6
CONTINUOUS
10
147.726
20
-79.0472
11
147.73
21
-79.084
0
LINE
8
BLACK
6
CONTINUOUS
10
147.73
20
-79.084
11
147.726
21
-79.1208
0
LINE
8
BLACK
6
CONTINUOUS
10
147.726
20
-79.1208
11
147.726
21
-79.1208
0
LINE
8
BLACK
6
CONTINUOUS
10
147.726
20
-79.1208
11
147.715
21
-79.231
0
LINE
8
BLACK
6
CONTINUOUS
10
147.715
20
-79.231
11
147.672
21
-79.3724
0
LINE
8
BLACK
6
CONTINUOUS
10
147.672
20
-79.3724
11
147.603
21
-79.5027
0
LINE
8
BLACK
6
CONTINUOUS
10
147.603
20
-79.5027
11
147.509
21
-79.6169
0
LINE
8
BLACK
6
CONTINUOUS
10
147.509
20
-79.6169
11
147.48
21
-79.6404
0
LINE
8
BLACK
6
CONTINUOUS
10
147.48
20
-79.6404
11
145.978
21
-81.143
0
LINE
8
BLACK
6
CONTINUOUS
10
145.978
20
-81.143
11
146.026
21
-81.3863
0
LINE
8
BLACK
6
CONTINUOUS
10
146.026
20
-81.3863
11
146.026
21
-81.6817
0
LINE
8
BLACK
6
CONTINUOUS
10
146.026
20
-81.6817
11
145.968
21
-81.9715
0
LINE
8
BLACK
6
CONTINUOUS
10
145.968
20
-81.9715
11
145.855
21
-82.2445
0
LINE
8
BLACK
6
CONTINUOUS
10
145.855
20
-82.2445
11
145.691
21
-82.4902
0
LINE
8
BLACK
6
CONTINUOUS
10
145.691
20
-82.4902
11
145.482
21
-82.6991
0
LINE
8
BLACK
6
CONTINUOUS
10
145.482
20
-82.6991
11
145.237
21
-82.8633
0
LINE
8
BLACK
6
CONTINUOUS
10
145.237
20
-82.8633
11
144.964
21
-82.9764
0
LINE
8
BLACK
6
CONTINUOUS
10
144.964
20
-82.9764
11
144.674
21
-83.034
0
LINE
8
BLACK
6
CONTINUOUS
10
144.674
20
-83.034
11
144.378
21
-83.034
0
LINE
8
BLACK
6
CONTINUOUS
10
144.378
20
-83.034
11
144.088
21
-82.9764
0
LINE
8
BLACK
6
CONTINUOUS
10
144.088
20
-82.9764
11
143.815
21
-82.8633
0
LINE
8
BLACK
6
CONTINUOUS
10
143.815
20
-82.8633
11
143.57
21
-82.6991
0
LINE
8
BLACK
6
CONTINUOUS
10
143.57
20
-82.6991
11
143.361
21
-82.4902
0
LINE
8
BLACK
6
CONTINUOUS
10
143.361
20
-82.4902
11
143.197
21
-82.2445
0
LINE
8
BLACK
6
CONTINUOUS
10
143.197
20
-82.2445
11
143.084
21
-81.9715
0
LINE
8
BLACK
6
CONTINUOUS
10
143.084
20
-81.9715
11
143.026
21
-81.6817
0
LINE
8
BLACK
6
CONTINUOUS
10
143.026
20
-81.6817
11
143.026
21
-81.3863
0
LINE
8
BLACK
6
CONTINUOUS
10
143.026
20
-81.3863
11
143.074
21
-81.143
0
LINE
8
BLACK
6
CONTINUOUS
10
143.074
20
-81.143
11
142.183
21
-80.252
0
LINE
8
BLACK
6
CONTINUOUS
10
142.183
20
-80.252
11
138.962
21
-80.252
0
LINE
8
BLACK
6
CONTINUOUS
10
138.962
20
-80.252
11
138.935
21
-80.2788
0
LINE
8
BLACK
6
CONTINUOUS
10
138.935
20
-80.2788
11
138.772
21
-80.3882
0
LINE
8
BLACK
6
CONTINUOUS
10
138.772
20
-80.3882
11
138.59
21
-80.4636
0
LINE
8
BLACK
6
CONTINUOUS
10
138.59
20
-80.4636
11
138.396
21
-80.502
0
LINE
8
BLACK
6
CONTINUOUS
10
138.396
20
-80.502
11
138.2
21
-80.502
0
LINE
8
BLACK
6
CONTINUOUS
10
138.2
20
-80.502
11
138.006
21
-80.4636
0
LINE
8
BLACK
6
CONTINUOUS
10
138.006
20
-80.4636
11
137.824
21
-80.3882
0
LINE
8
BLACK
6
CONTINUOUS
10
137.824
20
-80.3882
11
137.661
21
-80.2788
0
LINE
8
BLACK
6
CONTINUOUS
10
137.661
20
-80.2788
11
137.521
21
-80.1395
0
LINE
8
BLACK
6
CONTINUOUS
10
137.521
20
-80.1395
11
137.412
21
-79.9757
0
LINE
8
BLACK
6
CONTINUOUS
10
137.412
20
-79.9757
11
137.336
21
-79.7937
0
LINE
8
BLACK
6
CONTINUOUS
10
137.336
20
-79.7937
11
137.298
21
-79.6005
0
LINE
8
BLACK
6
CONTINUOUS
10
137.298
20
-79.6005
11
137.298
21
-79.4035
0
LINE
8
BLACK
6
CONTINUOUS
10
137.298
20
-79.4035
11
137.336
21
-79.2103
0
LINE
8
BLACK
6
CONTINUOUS
10
137.336
20
-79.2103
11
137.412
21
-79.0283
0
LINE
8
BLACK
6
CONTINUOUS
10
137.412
20
-79.0283
11
137.521
21
-78.8645
0
LINE
8
BLACK
6
CONTINUOUS
10
137.521
20
-78.8645
11
137.661
21
-78.7252
0
LINE
8
BLACK
6
CONTINUOUS
10
137.661
20
-78.7252
11
137.824
21
-78.6158
0
LINE
8
BLACK
6
CONTINUOUS
10
137.824
20
-78.6158
11
138.006
21
-78.5404
0
LINE
8
BLACK
6
CONTINUOUS
10
138.006
20
-78.5404
11
138.2
21
-78.502
0
LINE
8
BLACK
6
CONTINUOUS
10
138.2
20
-78.502
11
138.396
21
-78.502
0
LINE
8
BLACK
6
CONTINUOUS
10
138.396
20
-78.502
11
138.59
21
-78.5404
0
LINE
8
BLACK
6
CONTINUOUS
10
138.59
20
-78.5404
11
138.772
21
-78.6158
0
LINE
8
BLACK
6
CONTINUOUS
10
138.772
20
-78.6158
11
138.935
21
-78.7252
0
LINE
8
BLACK
6
CONTINUOUS
10
138.935
20
-78.7252
11
138.962
21
-78.752
0
LINE
8
BLACK
6
CONTINUOUS
10
138.962
20
-78.752
11
142.457
21
-78.752
0
LINE
8
BLACK
6
CONTINUOUS
10
142.457
20
-78.752
11
142.494
21
-78.7484
0
LINE
8
BLACK
6
CONTINUOUS
10
142.494
20
-78.7484
11
142.531
21
-78.752
0
LINE
8
BLACK
6
CONTINUOUS
10
142.531
20
-78.752
11
142.531
21
-78.752
0
LINE
8
BLACK
6
CONTINUOUS
10
142.531
20
-78.752
11
142.641
21
-78.7629
0
LINE
8
BLACK
6
CONTINUOUS
10
142.641
20
-78.7629
11
142.782
21
-78.8057
0
LINE
8
BLACK
6
CONTINUOUS
10
142.782
20
-78.8057
11
142.913
21
-78.8754
0
LINE
8
BLACK
6
CONTINUOUS
10
142.913
20
-78.8754
11
143.027
21
-78.9691
0
LINE
8
BLACK
6
CONTINUOUS
10
143.027
20
-78.9691
11
143.05
21
-78.9977
0
LINE
8
BLACK
6
CONTINUOUS
10
143.05
20
-78.9977
11
144.135
21
-80.0824
0
LINE
8
BLACK
6
CONTINUOUS
10
144.135
20
-80.0824
11
144.378
21
-80.034
0
LINE
8
BLACK
6
CONTINUOUS
10
144.378
20
-80.034
11
144.674
21
-80.034
0
LINE
8
BLACK
6
CONTINUOUS
10
144.674
20
-80.034
11
144.917
21
-80.0824
0
LINE
8
BLACK
6
CONTINUOUS
10
144.917
20
-80.0824
11
146.226
21
-78.7733
0
LINE
8
BLACK
6
CONTINUOUS
10
146.226
20
-78.7733
11
146.226
21
-70.5087
0
LINE
8
BLACK
6
CONTINUOUS
10
146.226
20
-70.5087
11
144.793
21
-69.076
0
LINE
8
BLACK
6
CONTINUOUS
10
144.793
20
-69.076
11
142.785
21
-69.076
0
LINE
8
BLACK
6
CONTINUOUS
10
142.785
20
-69.076
11
142.748
21
-69.0796
0
LINE
8
BLACK
6
CONTINUOUS
10
142.748
20
-69.0796
11
142.711
21
-69.076
0
LINE
8
BLACK
6
CONTINUOUS
10
142.711
20
-69.076
11
142.711
21
-69.076
0
LINE
8
BLACK
6
CONTINUOUS
10
142.711
20
-69.076
11
142.601
21
-69.0651
0
LINE
8
BLACK
6
CONTINUOUS
10
142.601
20
-69.0651
11
142.46
21
-69.0223
0
LINE
8
BLACK
6
CONTINUOUS
10
142.46
20
-69.0223
11
142.329
21
-68.9526
0
LINE
8
BLACK
6
CONTINUOUS
10
142.329
20
-68.9526
11
142.215
21
-68.8589
0
LINE
8
BLACK
6
CONTINUOUS
10
142.215
20
-68.8589
11
142.192
21
-68.8303
0
LINE
8
BLACK
6
CONTINUOUS
10
142.192
20
-68.8303
11
140.466
21
-67.1044
0
LINE
8
BLACK
6
CONTINUOUS
10
140.466
20
-67.1044
11
140.437
21
-67.0809
0
LINE
8
BLACK
6
CONTINUOUS
10
140.437
20
-67.0809
11
140.343
21
-66.9667
0
LINE
8
BLACK
6
CONTINUOUS
10
140.343
20
-66.9667
11
140.274
21
-66.8364
0
LINE
8
BLACK
6
CONTINUOUS
10
140.274
20
-66.8364
11
140.231
21
-66.695
0
LINE
8
BLACK
6
CONTINUOUS
10
140.231
20
-66.695
11
140.22
21
-66.5848
0
LINE
8
BLACK
6
CONTINUOUS
10
140.22
20
-66.5848
11
140.22
21
-66.5848
0
LINE
8
BLACK
6
CONTINUOUS
10
140.22
20
-66.5848
11
140.216
21
-66.548
0
LINE
8
BLACK
6
CONTINUOUS
10
140.216
20
-66.548
11
140.22
21
-66.5112
0
LINE
8
BLACK
6
CONTINUOUS
10
140.22
20
-66.5112
11
140.22
21
-61.2508
0
LINE
8
BLACK
6
CONTINUOUS
10
140.22
20
-61.2508
11
140.216
21
-61.214
0
LINE
8
BLACK
6
CONTINUOUS
10
140.216
20
-61.214
11
140.231
21
-61.067
0
LINE
8
BLACK
6
CONTINUOUS
10
140.231
20
-61.067
11
140.274
21
-60.9256
0
LINE
8
BLACK
6
CONTINUOUS
10
140.274
20
-60.9256
11
140.328
21
-60.8246
0
LINE
8
BLACK
6
CONTINUOUS
10
140.328
20
-60.8246
11
140.343
21
-60.7953
0
LINE
8
BLACK
6
CONTINUOUS
10
140.343
20
-60.7953
11
140.396
21
-60.7309
0
LINE
8
BLACK
6
CONTINUOUS
10
140.396
20
-60.7309
11
140.414
21
-60.7097
0
LINE
8
BLACK
6
CONTINUOUS
10
140.414
20
-60.7097
11
140.414
21
-60.7097
0
LINE
8
BLACK
6
CONTINUOUS
10
140.414
20
-60.7097
11
140.437
21
-60.6811
0
LINE
8
BLACK
6
CONTINUOUS
10
140.437
20
-60.6811
11
140.466
21
-60.6576
0
LINE
8
BLACK
6
CONTINUOUS
10
140.466
20
-60.6576
11
141.43
21
-59.6937
0
LINE
8
BLACK
6
CONTINUOUS
10
141.43
20
-59.6937
11
141.453
21
-59.6651
0
LINE
8
BLACK
6
CONTINUOUS
10
141.453
20
-59.6651
11
141.567
21
-59.5714
0
LINE
8
BLACK
6
CONTINUOUS
10
141.567
20
-59.5714
11
141.698
21
-59.5017
0
LINE
8
BLACK
6
CONTINUOUS
10
141.698
20
-59.5017
11
141.839
21
-59.4589
0
LINE
8
BLACK
6
CONTINUOUS
10
141.839
20
-59.4589
11
141.949
21
-59.448
0
LINE
8
BLACK
6
CONTINUOUS
10
141.949
20
-59.448
11
141.949
21
-59.448
0
LINE
8
BLACK
6
CONTINUOUS
10
141.949
20
-59.448
11
141.986
21
-59.4444
0
LINE
8
BLACK
6
CONTINUOUS
10
141.986
20
-59.4444
11
142.023
21
-59.448
0
LINE
8
BLACK
6
CONTINUOUS
10
142.023
20
-59.448
11
143.223
21
-59.448
0
LINE
8
BLACK
6
CONTINUOUS
10
143.223
20
-59.448
11
143.361
21
-59.2418
0
LINE
8
BLACK
6
CONTINUOUS
10
143.361
20
-59.2418
11
143.57
21
-59.0329
0
LINE
8
BLACK
6
CONTINUOUS
10
143.57
20
-59.0329
11
143.815
21
-58.8687
0
LINE
8
BLACK
6
CONTINUOUS
10
143.815
20
-58.8687
11
144.088
21
-58.7556
0
LINE
8
BLACK
6
CONTINUOUS
10
144.088
20
-58.7556
11
144.378
21
-58.698
0
LINE
8
BLACK
6
CONTINUOUS
10
144.378
20
-58.698
11
144.674
21
-58.698
0
LINE
8
BLACK
6
CONTINUOUS
10
144.674
20
-58.698
11
144.964
21
-58.7556
0
LINE
8
BLACK
6
CONTINUOUS
10
75.946
20
-53.848
11
75.934
21
-53.848
0
LINE
8
BLACK
6
CONTINUOUS
10
75.934
20
-53.848
11
75.934
21
-56.0773
0
LINE
8
BLACK
6
CONTINUOUS
10
75.934
20
-56.0773
11
98.3587
21
-78.502
0
LINE
8
BLACK
6
CONTINUOUS
10
98.3587
20
-78.502
11
98.3965
21
-78.502
0
LINE
8
BLACK
6
CONTINUOUS
10
98.3965
20
-78.502
11
98.5897
21
-78.5404
0
LINE
8
BLACK
6
CONTINUOUS
10
98.5897
20
-78.5404
11
98.7717
21
-78.6158
0
LINE
8
BLACK
6
CONTINUOUS
10
98.7717
20
-78.6158
11
98.9355
21
-78.7252
0
LINE
8
BLACK
6
CONTINUOUS
10
98.9355
20
-78.7252
11
99.0748
21
-78.8645
0
LINE
8
BLACK
6
CONTINUOUS
10
99.0748
20
-78.8645
11
99.1842
21
-79.0283
0
LINE
8
BLACK
6
CONTINUOUS
10
99.1842
20
-79.0283
11
99.2596
21
-79.2103
0
LINE
8
BLACK
6
CONTINUOUS
10
99.2596
20
-79.2103
11
99.298
21
-79.4035
0
LINE
8
BLACK
6
CONTINUOUS
10
99.298
20
-79.4035
11
99.298
21
-79.6005
0
LINE
8
BLACK
6
CONTINUOUS
10
99.298
20
-79.6005
11
99.2596
21
-79.7937
0
LINE
8
BLACK
6
CONTINUOUS
10
99.2596
20
-79.7937
11
99.1842
21
-79.9757
0
LINE
8
BLACK
6
CONTINUOUS
10
99.1842
20
-79.9757
11
99.0748
21
-80.1395
0
LINE
8
BLACK
6
CONTINUOUS
10
99.0748
20
-80.1395
11
98.9355
21
-80.2788
0
LINE
8
BLACK
6
CONTINUOUS
10
98.9355
20
-80.2788
11
98.7717
21
-80.3882
0
LINE
8
BLACK
6
CONTINUOUS
10
98.7717
20
-80.3882
11
98.5897
21
-80.4636
0
LINE
8
BLACK
6
CONTINUOUS
10
98.5897
20
-80.4636
11
98.3965
21
-80.502
0
LINE
8
BLACK
6
CONTINUOUS
10
98.3965
20
-80.502
11
98.1995
21
-80.502
0
LINE
8
BLACK
6
CONTINUOUS
10
98.1995
20
-80.502
11
98.0063
21
-80.4636
0
LINE
8
BLACK
6
CONTINUOUS
10
98.0063
20
-80.4636
11
97.8243
21
-80.3882
0
LINE
8
BLACK
6
CONTINUOUS
10
97.8243
20
-80.3882
11
97.6605
21
-80.2788
0
LINE
8
BLACK
6
CONTINUOUS
10
97.6605
20
-80.2788
11
97.5212
21
-80.1395
0
LINE
8
BLACK
6
CONTINUOUS
10
97.5212
20
-80.1395
11
97.4118
21
-79.9757
0
LINE
8
BLACK
6
CONTINUOUS
10
97.4118
20
-79.9757
11
97.3364
21
-79.7937
0
LINE
8
BLACK
6
CONTINUOUS
10
97.3364
20
-79.7937
11
97.298
21
-79.6005
0
LINE
8
BLACK
6
CONTINUOUS
10
97.298
20
-79.6005
11
97.298
21
-79.5627
0
LINE
8
BLACK
6
CONTINUOUS
10
97.298
20
-79.5627
11
75.9344
21
-58.199
0
LINE
8
BLACK
6
CONTINUOUS
10
75.9344
20
-58.199
11
75.934
21
-58.2028
0
LINE
8
BLACK
6
CONTINUOUS
10
75.934
20
-58.2028
11
75.934
21
-58.2028
0
LINE
8
BLACK
6
CONTINUOUS
10
75.934
20
-58.2028
11
75.9231
21
-58.313
0
LINE
8
BLACK
6
CONTINUOUS
10
75.9231
20
-58.313
11
75.8803
21
-58.4544
0
LINE
8
BLACK
6
CONTINUOUS
10
75.8803
20
-58.4544
11
75.8106
21
-58.5847
0
LINE
8
BLACK
6
CONTINUOUS
10
75.8106
20
-58.5847
11
75.7169
21
-58.6989
0
LINE
8
BLACK
6
CONTINUOUS
10
75.7169
20
-58.6989
11
75.6883
21
-58.7224
0
LINE
8
BLACK
6
CONTINUOUS
10
75.6883
20
-58.7224
11
68.6284
21
-65.7823
0
LINE
8
BLACK
6
CONTINUOUS
10
68.6284
20
-65.7823
11
68.6049
21
-65.8109
0
LINE
8
BLACK
6
CONTINUOUS
10
68.6049
20
-65.8109
11
68.4907
21
-65.9046
0
LINE
8
BLACK
6
CONTINUOUS
10
68.4907
20
-65.9046
11
68.3604
21
-65.9743
0
LINE
8
BLACK
6
CONTINUOUS
10
68.3604
20
-65.9743
11
68.219
21
-66.0171
0
LINE
8
BLACK
6
CONTINUOUS
10
68.219
20
-66.0171
11
68.1088
21
-66.028
0
LINE
8
BLACK
6
CONTINUOUS
10
68.1088
20
-66.028
11
68.1088
21
-66.028
0
LINE
8
BLACK
6
CONTINUOUS
10
68.1088
20
-66.028
11
68.072
21
-66.0316
0
LINE
8
BLACK
6
CONTINUOUS
10
68.072
20
-66.0316
11
68.0352
21
-66.028
0
LINE
8
BLACK
6
CONTINUOUS
10
68.0352
20
-66.028
11
53.6507
21
-66.028
0
LINE
8
BLACK
6
CONTINUOUS
10
53.6507
20
-66.028
11
53.2665
21
-66.4122
0
LINE
8
BLACK
6
CONTINUOUS
10
53.2665
20
-66.4122
11
53.27
21
-66.4298
0
LINE
8
BLACK
6
CONTINUOUS
10
53.27
20
-66.4298
11
53.27
21
-66.6662
0
LINE
8
BLACK
6
CONTINUOUS
10
53.27
20
-66.6662
11
53.2239
21
-66.898
0
LINE
8
BLACK
6
CONTINUOUS
10
53.2239
20
-66.898
11
53.1334
21
-67.1164
0
LINE
8
BLACK
6
CONTINUOUS
10
53.1334
20
-67.1164
11
53.0021
21
-67.313
0
LINE
8
BLACK
6
CONTINUOUS
10
53.0021
20
-67.313
11
52.835
21
-67.4801
0
LINE
8
BLACK
6
CONTINUOUS
10
52.835
20
-67.4801
11
52.82
21
-67.4901
0
LINE
8
BLACK
6
CONTINUOUS
10
52.82
20
-67.4901
11
52.82
21
-77.6673
0
LINE
8
BLACK
6
CONTINUOUS
10
52.82
20
-77.6673
11
53.6547
21
-78.502
0
LINE
8
BLACK
6
CONTINUOUS
10
53.6547
20
-78.502
11
53.6925
21
-78.502
0
LINE
8
BLACK
6
CONTINUOUS
10
53.6925
20
-78.502
11
53.8857
21
-78.5404
0
LINE
8
BLACK
6
CONTINUOUS
10
53.8857
20
-78.5404
11
54.0677
21
-78.6158
0
LINE
8
BLACK
6
CONTINUOUS
10
54.0677
20
-78.6158
11
54.2315
21
-78.7252
0
LINE
8
BLACK
6
CONTINUOUS
10
54.2315
20
-78.7252
11
54.3708
21
-78.8645
0
LINE
8
BLACK
6
CONTINUOUS
10
54.3708
20
-78.8645
11
54.4802
21
-79.0283
0
LINE
8
BLACK
6
CONTINUOUS
10
54.4802
20
-79.0283
11
54.5556
21
-79.2103
0
LINE
8
BLACK
6
CONTINUOUS
10
54.5556
20
-79.2103
11
54.594
21
-79.4035
0
LINE
8
BLACK
6
CONTINUOUS
10
54.594
20
-79.4035
11
54.594
21
-79.6005
0
LINE
8
BLACK
6
CONTINUOUS
10
54.594
20
-79.6005
11
54.5556
21
-79.7937
0
LINE
8
BLACK
6
CONTINUOUS
10
54.5556
20
-79.7937
11
54.4802
21
-79.9757
0
LINE
8
BLACK
6
CONTINUOUS
10
54.4802
20
-79.9757
11
54.3708
21
-80.1395
0
LINE
8
BLACK
6
CONTINUOUS
10
54.3708
20
-80.1395
11
54.2315
21
-80.2788
0
LINE
8
BLACK
6
CONTINUOUS
10
54.2315
20
-80.2788
11
54.0677
21
-80.3882
0
LINE
8
BLACK
6
CONTINUOUS
10
54.0677
20
-80.3882
11
53.8857
21
-80.4636
0
LINE
8
BLACK
6
CONTINUOUS
10
53.8857
20
-80.4636
11
53.6925
21
-80.502
0
LINE
8
BLACK
6
CONTINUOUS
10
53.6925
20
-80.502
11
53.4955
21
-80.502
0
LINE
8
BLACK
6
CONTINUOUS
10
53.4955
20
-80.502
11
53.3023
21
-80.4636
0
LINE
8
BLACK
6
CONTINUOUS
10
53.3023
20
-80.4636
11
53.1203
21
-80.3882
0
LINE
8
BLACK
6
CONTINUOUS
10
53.1203
20
-80.3882
11
52.9565
21
-80.2788
0
LINE
8
BLACK
6
CONTINUOUS
10
52.9565
20
-80.2788
11
52.8172
21
-80.1395
0
LINE
8
BLACK
6
CONTINUOUS
10
52.8172
20
-80.1395
11
52.7078
21
-79.9757
0
LINE
8
BLACK
6
CONTINUOUS
10
52.7078
20
-79.9757
11
52.6324
21
-79.7937
0
LINE
8
BLACK
6
CONTINUOUS
10
52.6324
20
-79.7937
11
52.594
21
-79.6005
0
LINE
8
BLACK
6
CONTINUOUS
10
52.594
20
-79.6005
11
52.594
21
-79.5627
0
LINE
8
BLACK
6
CONTINUOUS
10
52.594
20
-79.5627
11
51.5657
21
-78.5344
0
LINE
8
BLACK
6
CONTINUOUS
10
51.5657
20
-78.5344
11
51.5371
21
-78.5109
0
LINE
8
BLACK
6
CONTINUOUS
10
51.5371
20
-78.5109
11
51.5136
21
-78.4823
0
LINE
8
BLACK
6
CONTINUOUS
10
51.5136
20
-78.4823
11
51.5136
21
-78.4823
0
LINE
8
BLACK
6
CONTINUOUS
10
51.5136
20
-78.4823
11
51.4861
21
-78.4488
0
LINE
8
BLACK
6
CONTINUOUS
10
51.4861
20
-78.4488
11
51.4434
21
-78.3967
0
LINE
8
BLACK
6
CONTINUOUS
10
51.4434
20
-78.3967
11
51.4062
21
-78.327
0
LINE
8
BLACK
6
CONTINUOUS
10
51.4062
20
-78.327
11
51.3737
21
-78.2664
0
LINE
8
BLACK
6
CONTINUOUS
10
51.3737
20
-78.2664
11
51.3309
21
-78.125
0
LINE
8
BLACK
6
CONTINUOUS
10
51.3309
20
-78.125
11
51.3164
21
-77.978
0
LINE
8
BLACK
6
CONTINUOUS
10
51.3164
20
-77.978
11
51.32
21
-77.9412
0
LINE
8
BLACK
6
CONTINUOUS
10
51.32
20
-77.9412
11
51.32
21
-67.4901
0
LINE
8
BLACK
6
CONTINUOUS
10
51.32
20
-67.4901
11
51.305
21
-67.4801
0
LINE
8
BLACK
6
CONTINUOUS
10
51.305
20
-67.4801
11
51.1379
21
-67.313
0
LINE
8
BLACK
6
CONTINUOUS
10
51.1379
20
-67.313
11
51.0066
21
-67.1164
0
LINE
8
BLACK
6
CONTINUOUS
10
51.0066
20
-67.1164
11
50.9161
21
-66.898
0
LINE
8
BLACK
6
CONTINUOUS
10
50.9161
20
-66.898
11
50.87
21
-66.6662
0
LINE
8
BLACK
6
CONTINUOUS
10
50.87
20
-66.6662
11
50.87
21
-66.4298
0
LINE
8
BLACK
6
CONTINUOUS
10
50.87
20
-66.4298
11
50.9161
21
-66.198
0
LINE
8
BLACK
6
CONTINUOUS
10
50.9161
20
-66.198
11
51.0066
21
-65.9796
0
LINE
8
BLACK
6
CONTINUOUS
10
51.0066
20
-65.9796
11
51.1379
21
-65.783
0
LINE
8
BLACK
6
CONTINUOUS
10
51.1379
20
-65.783
11
51.305
21
-65.6159
0
LINE
8
BLACK
6
CONTINUOUS
10
51.305
20
-65.6159
11
51.5016
21
-65.4846
0
LINE
8
BLACK
6
CONTINUOUS
10
51.5016
20
-65.4846
11
51.72
21
-65.3941
0
LINE
8
BLACK
6
CONTINUOUS
10
51.72
20
-65.3941
11
51.9518
21
-65.348
0
LINE
8
BLACK
6
CONTINUOUS
10
51.9518
20
-65.348
11
52.1882
21
-65.348
0
LINE
8
BLACK
6
CONTINUOUS
10
52.1882
20
-65.348
11
52.2058
21
-65.3515
0
LINE
8
BLACK
6
CONTINUOUS
10
52.2058
20
-65.3515
11
52.59
21
-64.9673
0
LINE
8
BLACK
6
CONTINUOUS
10
52.59
20
-64.9673
11
52.59
21
-60.1002
0
LINE
8
BLACK
6
CONTINUOUS
10
52.59
20
-60.1002
11
52.5632
21
-60.0735
0
LINE
8
BLACK
6
CONTINUOUS
10
52.5632
20
-60.0735
11
52.4538
21
-59.9097
0
LINE
8
BLACK
6
CONTINUOUS
10
52.4538
20
-59.9097
11
52.3784
21
-59.7277
0
LINE
8
BLACK
6
CONTINUOUS
10
52.3784
20
-59.7277
11
52.34
21
-59.5345
0
LINE
8
BLACK
6
CONTINUOUS
10
52.34
20
-59.5345
11
52.34
21
-59.3375
0
LINE
8
BLACK
6
CONTINUOUS
10
52.34
20
-59.3375
11
52.3784
21
-59.1443
0
LINE
8
BLACK
6
CONTINUOUS
10
52.3784
20
-59.1443
11
52.4538
21
-58.9623
0
LINE
8
BLACK
6
CONTINUOUS
10
52.4538
20
-58.9623
11
52.5632
21
-58.7985
0
LINE
8
BLACK
6
CONTINUOUS
10
52.5632
20
-58.7985
11
52.7025
21
-58.6592
0
LINE
8
BLACK
6
CONTINUOUS
10
52.7025
20
-58.6592
11
52.8663
21
-58.5498
0
LINE
8
BLACK
6
CONTINUOUS
10
52.8663
20
-58.5498
11
53.0483
21
-58.4744
0
LINE
8
BLACK
6
CONTINUOUS
10
53.0483
20
-58.4744
11
53.2415
21
-58.436
0
LINE
8
BLACK
6
CONTINUOUS
10
53.2415
20
-58.436
11
53.4385
21
-58.436
0
LINE
8
BLACK
6
CONTINUOUS
10
53.4385
20
-58.436
11
53.6317
21
-58.4744
0
LINE
8
BLACK
6
CONTINUOUS
10
53.6317
20
-58.4744
11
53.8137
21
-58.5498
0
LINE
8
BLACK
6
CONTINUOUS
10
53.8137
20
-58.5498
11
53.9775
21
-58.6592
0
LINE
8
BLACK
6
CONTINUOUS
10
53.9775
20
-58.6592
11
54.1168
21
-58.7985
0
LINE
8
BLACK
6
CONTINUOUS
10
54.1168
20
-58.7985
11
54.2262
21
-58.9623
0
LINE
8
BLACK
6
CONTINUOUS
10
54.2262
20
-58.9623
11
54.3016
21
-59.1443
0
LINE
8
BLACK
6
CONTINUOUS
10
54.3016
20
-59.1443
11
54.34
21
-59.3375
0
LINE
8
BLACK
6
CONTINUOUS
10
54.34
20
-59.3375
11
54.34
21
-59.5345
0
LINE
8
BLACK
6
CONTINUOUS
10
54.34
20
-59.5345
11
54.3016
21
-59.7277
0
LINE
8
BLACK
6
CONTINUOUS
10
54.3016
20
-59.7277
11
54.2262
21
-59.9097
0
LINE
8
BLACK
6
CONTINUOUS
10
54.2262
20
-59.9097
11
54.1168
21
-60.0735
0
LINE
8
BLACK
6
CONTINUOUS
10
54.1168
20
-60.0735
11
54.09
21
-60.1002
0
LINE
8
BLACK
6
CONTINUOUS
10
54.09
20
-60.1002
11
54.09
21
-64.528
0
LINE
8
BLACK
6
CONTINUOUS
10
54.09
20
-64.528
11
67.7613
21
-64.528
0
LINE
8
BLACK
6
CONTINUOUS
10
67.7613
20
-64.528
11
74.434
21
-57.8553
0
LINE
8
BLACK
6
CONTINUOUS
10
74.434
20
-57.8553
11
74.434
21
-56.4248
0
LINE
8
BLACK
6
CONTINUOUS
10
74.434
20
-56.4248
11
74.4304
21
-56.388
0
LINE
8
BLACK
6
CONTINUOUS
10
74.4304
20
-56.388
11
74.434
21
-56.3512
0
LINE
8
BLACK
6
CONTINUOUS
10
74.434
20
-56.3512
11
74.434
21
-53.848
0
LINE
8
BLACK
6
CONTINUOUS
10
74.434
20
-53.848
11
74.422
21
-53.848
0
LINE
8
BLACK
6
CONTINUOUS
10
74.422
20
-53.848
11
74.422
21
-52.324
0
LINE
8
BLACK
6
CONTINUOUS
10
74.422
20
-52.324
11
75.946
21
-52.324
0
LINE
8
BLACK
6
CONTINUOUS
10
75.946
20
-52.324
11
75.946
21
-53.848
0
LINE
8
BLACK
6
CONTINUOUS
10
72.6252
20
-65.3654
11
72.8514
21
-65.434
0
LINE
8
BLACK
6
CONTINUOUS
10
72.8514
20
-65.434
11
73.0599
21
-65.5454
0
LINE
8
BLACK
6
CONTINUOUS
10
73.0599
20
-65.5454
11
73.2426
21
-65.6954
0
LINE
8
BLACK
6
CONTINUOUS
10
73.2426
20
-65.6954
11
73.3926
21
-65.8781
0
LINE
8
BLACK
6
CONTINUOUS
10
73.3926
20
-65.8781
11
73.504
21
-66.0866
0
LINE
8
BLACK
6
CONTINUOUS
10
73.504
20
-66.0866
11
73.5726
21
-66.3128
0
LINE
8
BLACK
6
CONTINUOUS
10
73.5726
20
-66.3128
11
73.5958
21
-66.548
0
LINE
8
BLACK
6
CONTINUOUS
10
73.5958
20
-66.548
11
73.5726
21
-66.7832
0
LINE
8
BLACK
6
CONTINUOUS
10
73.5726
20
-66.7832
11
73.504
21
-67.0094
0
LINE
8
BLACK
6
CONTINUOUS
10
73.504
20
-67.0094
11
73.3926
21
-67.2179
0
LINE
8
BLACK
6
CONTINUOUS
10
73.3926
20
-67.2179
11
73.2426
21
-67.4006
0
LINE
8
BLACK
6
CONTINUOUS
10
73.2426
20
-67.4006
11
73.14
21
-67.4849
0
LINE
8
BLACK
6
CONTINUOUS
10
73.14
20
-67.4849
11
73.14
21
-69.3052
0
LINE
8
BLACK
6
CONTINUOUS
10
73.14
20
-69.3052
11
73.1436
21
-69.342
0
LINE
8
BLACK
6
CONTINUOUS
10
73.1436
20
-69.342
11
73.14
21
-69.3788
0
LINE
8
BLACK
6
CONTINUOUS
10
73.14
20
-69.3788
11
73.14
21
-69.3788
0
LINE
8
BLACK
6
CONTINUOUS
10
73.14
20
-69.3788
11
73.1291
21
-69.489
0
LINE
8
BLACK
6
CONTINUOUS
10
73.1291
20
-69.489
11
73.0863
21
-69.6304
0
LINE
8
BLACK
6
CONTINUOUS
10
73.0863
20
-69.6304
11
73.0166
21
-69.7607
0
LINE
8
BLACK
6
CONTINUOUS
10
73.0166
20
-69.7607
11
72.9229
21
-69.8749
0
LINE
8
BLACK
6
CONTINUOUS
10
72.9229
20
-69.8749
11
72.8943
21
-69.8984
0
LINE
8
BLACK
6
CONTINUOUS
10
72.8943
20
-69.8984
11
69.9701
21
-72.8225
0
LINE
8
BLACK
6
CONTINUOUS
10
69.9701
20
-72.8225
11
69.9534
21
-72.9065
0
LINE
8
BLACK
6
CONTINUOUS
10
69.9534
20
-72.9065
11
69.8856
21
-73.0703
0
LINE
8
BLACK
6
CONTINUOUS
10
69.8856
20
-73.0703
11
69.7871
21
-73.2177
0
LINE
8
BLACK
6
CONTINUOUS
10
69.7871
20
-73.2177
11
69.6617
21
-73.3431
0
LINE
8
BLACK
6
CONTINUOUS
10
69.6617
20
-73.3431
11
69.5143
21
-73.4416
0
LINE
8
BLACK
6
CONTINUOUS
10
69.5143
20
-73.4416
11
69.3505
21
-73.5094
0
LINE
8
BLACK
6
CONTINUOUS
10
69.3505
20
-73.5094
11
69.1766
21
-73.544
0
LINE
8
BLACK
6
CONTINUOUS
10
69.1766
20
-73.544
11
68.9994
21
-73.544
0
LINE
8
BLACK
6
CONTINUOUS
10
68.9994
20
-73.544
11
68.8255
21
-73.5094
0
LINE
8
BLACK
6
CONTINUOUS
10
68.8255
20
-73.5094
11
68.6617
21
-73.4416
0
LINE
8
BLACK
6
CONTINUOUS
10
68.6617
20
-73.4416
11
68.5143
21
-73.3431
0
LINE
8
BLACK
6
CONTINUOUS
10
68.5143
20
-73.3431
11
68.3889
21
-73.2177
0
LINE
8
BLACK
6
CONTINUOUS
10
68.3889
20
-73.2177
11
68.2904
21
-73.0703
0
LINE
8
BLACK
6
CONTINUOUS
10
68.2904
20
-73.0703
11
68.2226
21
-72.9065
0
LINE
8
BLACK
6
CONTINUOUS
10
68.2226
20
-72.9065
11
68.188
21
-72.7326
0
LINE
8
BLACK
6
CONTINUOUS
10
68.188
20
-72.7326
11
68.188
21
-72.5554
0
LINE
8
BLACK
6
CONTINUOUS
10
68.188
20
-72.5554
11
68.2226
21
-72.3815
0
LINE
8
BLACK
6
CONTINUOUS
10
68.2226
20
-72.3815
11
68.2904
21
-72.2177
0
LINE
8
BLACK
6
CONTINUOUS
10
68.2904
20
-72.2177
11
68.3889
21
-72.0703
0
LINE
8
BLACK
6
CONTINUOUS
10
68.3889
20
-72.0703
11
68.5143
21
-71.9449
0
LINE
8
BLACK
6
CONTINUOUS
10
68.5143
20
-71.9449
11
68.6617
21
-71.8464
0
LINE
8
BLACK
6
CONTINUOUS
10
68.6617
20
-71.8464
11
68.8255
21
-71.7786
0
LINE
8
BLACK
6
CONTINUOUS
10
68.8255
20
-71.7786
11
68.9095
21
-71.7619
0
LINE
8
BLACK
6
CONTINUOUS
10
68.9095
20
-71.7619
11
71.64
21
-69.0313
0
LINE
8
BLACK
6
CONTINUOUS
10
71.64
20
-69.0313
11
71.64
21
-67.4849
0
LINE
8
BLACK
6
CONTINUOUS
10
71.64
20
-67.4849
11
71.5374
21
-67.4006
0
LINE
8
BLACK
6
CONTINUOUS
10
71.5374
20
-67.4006
11
71.3874
21
-67.2179
0
LINE
8
BLACK
6
CONTINUOUS
10
71.3874
20
-67.2179
11
71.276
21
-67.0094
0
LINE
8
BLACK
6
CONTINUOUS
10
71.276
20
-67.0094
11
71.2074
21
-66.7832
0
LINE
8
BLACK
6
CONTINUOUS
10
71.2074
20
-66.7832
11
71.1842
21
-66.548
0
LINE
8
BLACK
6
CONTINUOUS
10
71.1842
20
-66.548
11
71.2074
21
-66.3128
0
LINE
8
BLACK
6
CONTINUOUS
10
71.2074
20
-66.3128
11
71.276
21
-66.0866
0
LINE
8
BLACK
6
CONTINUOUS
10
71.276
20
-66.0866
11
71.3874
21
-65.8781
0
LINE
8
BLACK
6
CONTINUOUS
10
71.3874
20
-65.8781
11
71.5374
21
-65.6954
0
LINE
8
BLACK
6
CONTINUOUS
10
71.5374
20
-65.6954
11
71.7201
21
-65.5454
0
LINE
8
BLACK
6
CONTINUOUS
10
71.7201
20
-65.5454
11
71.9286
21
-65.434
0
LINE
8
BLACK
6
CONTINUOUS
10
71.9286
20
-65.434
11
72.1548
21
-65.3654
0
LINE
8
BLACK
6
CONTINUOUS
10
72.1548
20
-65.3654
11
72.331
21
-65.348
0
LINE
8
BLACK
6
CONTINUOUS
10
72.331
20
-65.348
11
72.4489
21
-65.348
0
LINE
8
BLACK
6
CONTINUOUS
10
72.4489
20
-65.348
11
72.6252
21
-65.3654
0
LINE
8
BLACK
6
CONTINUOUS
10
71.35
20
-48.78
11
121.853
21
-48.78
0
LINE
8
BLACK
6
CONTINUOUS
10
121.853
20
-48.78
11
121.89
21
-48.7764
0
LINE
8
BLACK
6
CONTINUOUS
10
121.89
20
-48.7764
11
121.927
21
-48.78
0
LINE
8
BLACK
6
CONTINUOUS
10
121.927
20
-48.78
11
121.927
21
-48.78
0
LINE
8
BLACK
6
CONTINUOUS
10
121.927
20
-48.78
11
122.037
21
-48.7909
0
LINE
8
BLACK
6
CONTINUOUS
10
122.037
20
-48.7909
11
122.178
21
-48.8337
0
LINE
8
BLACK
6
CONTINUOUS
10
122.178
20
-48.8337
11
122.309
21
-48.9034
0
LINE
8
BLACK
6
CONTINUOUS
10
122.309
20
-48.9034
11
122.423
21
-48.9971
0
LINE
8
BLACK
6
CONTINUOUS
10
122.423
20
-48.9971
11
122.446
21
-49.0257
0
LINE
8
BLACK
6
CONTINUOUS
10
122.446
20
-49.0257
11
137.172
21
-63.7513
0
LINE
8
BLACK
6
CONTINUOUS
10
137.172
20
-63.7513
11
137.172
21
-57.9968
0
LINE
8
BLACK
6
CONTINUOUS
10
137.172
20
-57.9968
11
137.168
21
-57.96
0
LINE
8
BLACK
6
CONTINUOUS
10
137.168
20
-57.96
11
137.172
21
-57.9232
0
LINE
8
BLACK
6
CONTINUOUS
10
137.172
20
-57.9232
11
137.172
21
-57.9232
0
LINE
8
BLACK
6
CONTINUOUS
10
137.172
20
-57.9232
11
137.183
21
-57.813
0
LINE
8
BLACK
6
CONTINUOUS
10
137.183
20
-57.813
11
137.226
21
-57.6716
0
LINE
8
BLACK
6
CONTINUOUS
10
137.226
20
-57.6716
11
137.295
21
-57.5413
0
LINE
8
BLACK
6
CONTINUOUS
10
137.295
20
-57.5413
11
137.389
21
-57.4271
0
LINE
8
BLACK
6
CONTINUOUS
10
137.389
20
-57.4271
11
137.418
21
-57.4036
0
LINE
8
BLACK
6
CONTINUOUS
10
137.418
20
-57.4036
11
140.97
21
-53.8517
0
LINE
8
BLACK
6
CONTINUOUS
10
140.97
20
-53.8517
11
140.993
21
-53.8231
0
LINE
8
BLACK
6
CONTINUOUS
10
140.993
20
-53.8231
11
141.107
21
-53.7294
0
LINE
8
BLACK
6
CONTINUOUS
10
141.107
20
-53.7294
11
141.238
21
-53.6597
0
LINE
8
BLACK
6
CONTINUOUS
10
141.238
20
-53.6597
11
141.379
21
-53.6169
0
LINE
8
BLACK
6
CONTINUOUS
10
141.379
20
-53.6169
11
141.489
21
-53.606
0
LINE
8
BLACK
6
CONTINUOUS
10
141.489
20
-53.606
11
141.489
21
-53.606
0
LINE
8
BLACK
6
CONTINUOUS
10
141.489
20
-53.606
11
141.526
21
-53.6024
0
LINE
8
BLACK
6
CONTINUOUS
10
141.526
20
-53.6024
11
141.563
21
-53.606
0
LINE
8
BLACK
6
CONTINUOUS
10
141.563
20
-53.606
11
143.026
21
-53.606
0
LINE
8
BLACK
6
CONTINUOUS
10
143.026
20
-53.606
11
143.026
21
-52.856
0
LINE
8
BLACK
6
CONTINUOUS
10
143.026
20
-52.856
11
146.026
21
-52.856
0
LINE
8
BLACK
6
CONTINUOUS
10
146.026
20
-52.856
11
146.026
21
-55.856
0
LINE
8
BLACK
6
CONTINUOUS
10
146.026
20
-55.856
11
143.026
21
-55.856
0
LINE
8
BLACK
6
CONTINUOUS
10
143.026
20
-55.856
11
143.026
21
-55.106
0
LINE
8
BLACK
6
CONTINUOUS
10
143.026
20
-55.106
11
141.837
21
-55.106
0
LINE
8
BLACK
6
CONTINUOUS
10
141.837
20
-55.106
11
138.672
21
-58.2707
0
LINE
8
BLACK
6
CONTINUOUS
10
138.672
20
-58.2707
11
138.672
21
-65.2513
0
LINE
8
BLACK
6
CONTINUOUS
10
138.672
20
-65.2513
11
138.688
21
-65.2676
0
LINE
8
BLACK
6
CONTINUOUS
10
138.688
20
-65.2676
11
138.717
21
-65.2911
0
LINE
8
BLACK
6
CONTINUOUS
10
138.717
20
-65.2911
11
138.74
21
-65.3197
0
LINE
8
BLACK
6
CONTINUOUS
10
138.74
20
-65.3197
11
138.74
21
-65.3197
0
LINE
8
BLACK
6
CONTINUOUS
10
138.74
20
-65.3197
11
138.764
21
-65.348
0
LINE
8
BLACK
6
CONTINUOUS
10
138.764
20
-65.348
11
138.811
21
-65.4053
0
LINE
8
BLACK
6
CONTINUOUS
10
138.811
20
-65.4053
11
138.88
21
-65.5356
0
LINE
8
BLACK
6
CONTINUOUS
10
138.88
20
-65.5356
11
138.923
21
-65.677
0
LINE
8
BLACK
6
CONTINUOUS
10
138.923
20
-65.677
11
138.934
21
-65.7872
0
LINE
8
BLACK
6
CONTINUOUS
10
138.934
20
-65.7872
11
138.934
21
-65.7872
0
LINE
8
BLACK
6
CONTINUOUS
10
138.934
20
-65.7872
11
138.938
21
-65.824
0
LINE
8
BLACK
6
CONTINUOUS
10
138.938
20
-65.824
11
138.934
21
-65.8608
0
LINE
8
BLACK
6
CONTINUOUS
10
138.934
20
-65.8608
11
138.934
21
-67.324
0
LINE
8
BLACK
6
CONTINUOUS
10
138.934
20
-67.324
11
138.946
21
-67.324
0
LINE
8
BLACK
6
CONTINUOUS
10
138.946
20
-67.324
11
138.946
21
-68.848
0
LINE
8
BLACK
6
CONTINUOUS
10
138.946
20
-68.848
11
137.422
21
-68.848
0
LINE
8
BLACK
6
CONTINUOUS
10
137.422
20
-68.848
11
137.422
21
-67.324
0
LINE
8
BLACK
6
CONTINUOUS
10
137.422
20
-67.324
11
137.434
21
-67.324
0
LINE
8
BLACK
6
CONTINUOUS
10
137.434
20
-67.324
11
137.434
21
-66.1347
0
LINE
8
BLACK
6
CONTINUOUS
10
137.434
20
-66.1347
11
137.418
21
-66.1184
0
LINE
8
BLACK
6
CONTINUOUS
10
137.418
20
-66.1184
11
137.389
21
-66.0949
0
LINE
8
BLACK
6
CONTINUOUS
10
137.389
20
-66.0949
11
137.366
21
-66.0663
0
LINE
8
BLACK
6
CONTINUOUS
10
137.366
20
-66.0663
11
121.579
21
-50.28
0
LINE
8
BLACK
6
CONTINUOUS
10
121.579
20
-50.28
11
71.35
21
-50.28
0
LINE
8
BLACK
6
CONTINUOUS
10
71.35
20
-50.28
11
71.35
21
-51.03
0
LINE
8
BLACK
6
CONTINUOUS
10
71.35
20
-51.03
11
68.35
21
-51.03
0
LINE
8
BLACK
6
CONTINUOUS
10
68.35
20
-51.03
11
68.35
21
-48.03
0
LINE
8
BLACK
6
CONTINUOUS
10
68.35
20
-48.03
11
71.35
21
-48.03
0
LINE
8
BLACK
6
CONTINUOUS
10
71.35
20
-48.03
11
71.35
21
-48.78
0
LINE
8
BLACK
6
CONTINUOUS
10
67.7025
20
-58.6592
11
67.8663
21
-58.5498
0
LINE
8
BLACK
6
CONTINUOUS
10
67.8663
20
-58.5498
11
68.0483
21
-58.4744
0
LINE
8
BLACK
6
CONTINUOUS
10
68.0483
20
-58.4744
11
68.2415
21
-58.436
0
LINE
8
BLACK
6
CONTINUOUS
10
68.2415
20
-58.436
11
68.4385
21
-58.436
0
LINE
8
BLACK
6
CONTINUOUS
10
68.4385
20
-58.436
11
68.6317
21
-58.4744
0
LINE
8
BLACK
6
CONTINUOUS
10
68.6317
20
-58.4744
11
68.8137
21
-58.5498
0
LINE
8
BLACK
6
CONTINUOUS
10
68.8137
20
-58.5498
11
68.9775
21
-58.6592
0
LINE
8
BLACK
6
CONTINUOUS
10
68.9775
20
-58.6592
11
69.1168
21
-58.7985
0
LINE
8
BLACK
6
CONTINUOUS
10
69.1168
20
-58.7985
11
69.2262
21
-58.9623
0
LINE
8
BLACK
6
CONTINUOUS
10
69.2262
20
-58.9623
11
69.3016
21
-59.1443
0
LINE
8
BLACK
6
CONTINUOUS
10
69.3016
20
-59.1443
11
69.34
21
-59.3375
0
LINE
8
BLACK
6
CONTINUOUS
10
69.34
20
-59.3375
11
69.34
21
-59.5345
0
LINE
8
BLACK
6
CONTINUOUS
10
69.34
20
-59.5345
11
69.3016
21
-59.7277
0
LINE
8
BLACK
6
CONTINUOUS
10
69.3016
20
-59.7277
11
69.2262
21
-59.9097
0
LINE
8
BLACK
6
CONTINUOUS
10
69.2262
20
-59.9097
11
69.1168
21
-60.0735
0
LINE
8
BLACK
6
CONTINUOUS
10
69.1168
20
-60.0735
11
68.9775
21
-60.2128
0
LINE
8
BLACK
6
CONTINUOUS
10
68.9775
20
-60.2128
11
68.8137
21
-60.3222
0
LINE
8
BLACK
6
CONTINUOUS
10
68.8137
20
-60.3222
11
68.6317
21
-60.3976
0
LINE
8
BLACK
6
CONTINUOUS
10
68.6317
20
-60.3976
11
68.4385
21
-60.436
0
LINE
8
BLACK
6
CONTINUOUS
10
68.4385
20
-60.436
11
68.2415
21
-60.436
0
LINE
8
BLACK
6
CONTINUOUS
10
68.2415
20
-60.436
11
68.0483
21
-60.3976
0
LINE
8
BLACK
6
CONTINUOUS
10
68.0483
20
-60.3976
11
67.8663
21
-60.3222
0
LINE
8
BLACK
6
CONTINUOUS
10
67.8663
20
-60.3222
11
67.7025
21
-60.2128
0
LINE
8
BLACK
6
CONTINUOUS
10
67.7025
20
-60.2128
11
67.6758
21
-60.186
0
LINE
8
BLACK
6
CONTINUOUS
10
67.6758
20
-60.186
11
65.1088
21
-60.186
0
LINE
8
BLACK
6
CONTINUOUS
10
65.1088
20
-60.186
11
65.072
21
-60.1896
0
LINE
8
BLACK
6
CONTINUOUS
10
65.072
20
-60.1896
11
65.0352
21
-60.186
0
LINE
8
BLACK
6
CONTINUOUS
10
65.0352
20
-60.186
11
65.0352
21
-60.186
0
LINE
8
BLACK
6
CONTINUOUS
10
65.0352
20
-60.186
11
64.925
21
-60.1751
0
LINE
8
BLACK
6
CONTINUOUS
10
64.925
20
-60.1751
11
64.7836
21
-60.1323
0
LINE
8
BLACK
6
CONTINUOUS
10
64.7836
20
-60.1323
11
64.6533
21
-60.0626
0
LINE
8
BLACK
6
CONTINUOUS
10
64.6533
20
-60.0626
11
64.5391
21
-59.9689
0
LINE
8
BLACK
6
CONTINUOUS
10
64.5391
20
-59.9689
11
64.5156
21
-59.9403
0
LINE
8
BLACK
6
CONTINUOUS
10
64.5156
20
-59.9403
11
57.6617
21
-53.0864
0
LINE
8
BLACK
6
CONTINUOUS
10
57.6617
20
-53.0864
11
57.6331
21
-53.0629
0
LINE
8
BLACK
6
CONTINUOUS
10
57.6331
20
-53.0629
11
57.6096
21
-53.0343
0
LINE
8
BLACK
6
CONTINUOUS
10
57.6096
20
-53.0343
11
57.6096
21
-53.0343
0
LINE
8
BLACK
6
CONTINUOUS
10
57.6096
20
-53.0343
11
57.5687
21
-52.9844
0
LINE
8
BLACK
6
CONTINUOUS
10
57.5687
20
-52.9844
11
57.5394
21
-52.9487
0
LINE
8
BLACK
6
CONTINUOUS
10
57.5394
20
-52.9487
11
57.4697
21
-52.8184
0
LINE
8
BLACK
6
CONTINUOUS
10
57.4697
20
-52.8184
11
57.4697
21
-52.8184
0
LINE
8
BLACK
6
CONTINUOUS
10
57.4697
20
-52.8184
11
57.4269
21
-52.677
0
LINE
8
BLACK
6
CONTINUOUS
10
57.4269
20
-52.677
11
57.4124
21
-52.53
0
LINE
8
BLACK
6
CONTINUOUS
10
57.4124
20
-52.53
11
57.416
21
-52.4932
0
LINE
8
BLACK
6
CONTINUOUS
10
57.416
20
-52.4932
11
57.416
21
-51.03
0
LINE
8
BLACK
6
CONTINUOUS
10
57.416
20
-51.03
11
56.666
21
-51.03
0
LINE
8
BLACK
6
CONTINUOUS
10
56.666
20
-51.03
11
56.666
21
-48.03
0
LINE
8
BLACK
6
CONTINUOUS
10
56.666
20
-48.03
11
59.666
21
-48.03
0
LINE
8
BLACK
6
CONTINUOUS
10
59.666
20
-48.03
11
59.666
21
-51.03
0
LINE
8
BLACK
6
CONTINUOUS
10
59.666
20
-51.03
11
58.916
21
-51.03
0
LINE
8
BLACK
6
CONTINUOUS
10
58.916
20
-51.03
11
58.916
21
-52.2193
0
LINE
8
BLACK
6
CONTINUOUS
10
58.916
20
-52.2193
11
65.3827
21
-58.686
0
LINE
8
BLACK
6
CONTINUOUS
10
65.3827
20
-58.686
11
67.6758
21
-58.686
0
LINE
8
BLACK
6
CONTINUOUS
10
67.6758
20
-58.686
11
67.7025
21
-58.6592
0
LINE
8
BLACK
6
CONTINUOUS
10
128.847
20
-45.224
11
128.847
21
-45.224
0
LINE
8
BLACK
6
CONTINUOUS
10
128.847
20
-45.224
11
128.957
21
-45.2349
0
LINE
8
BLACK
6
CONTINUOUS
10
128.957
20
-45.2349
11
129.098
21
-45.2777
0
LINE
8
BLACK
6
CONTINUOUS
10
129.098
20
-45.2777
11
129.229
21
-45.3474
0
LINE
8
BLACK
6
CONTINUOUS
10
129.229
20
-45.3474
11
129.343
21
-45.4411
0
LINE
8
BLACK
6
CONTINUOUS
10
129.343
20
-45.4411
11
129.366
21
-45.4697
0
LINE
8
BLACK
6
CONTINUOUS
10
129.366
20
-45.4697
11
136.233
21
-52.336
0
LINE
8
BLACK
6
CONTINUOUS
10
136.233
20
-52.336
11
137.422
21
-52.336
0
LINE
8
BLACK
6
CONTINUOUS
10
137.422
20
-52.336
11
137.422
21
-52.324
0
LINE
8
BLACK
6
CONTINUOUS
10
137.422
20
-52.324
11
137.885
21
-52.324
0
LINE
8
BLACK
6
CONTINUOUS
10
137.885
20
-52.324
11
141.438
21
-48.7717
0
LINE
8
BLACK
6
CONTINUOUS
10
141.438
20
-48.7717
11
141.461
21
-48.7431
0
LINE
8
BLACK
6
CONTINUOUS
10
141.461
20
-48.7431
11
141.575
21
-48.6494
0
LINE
8
BLACK
6
CONTINUOUS
10
141.575
20
-48.6494
11
141.706
21
-48.5797
0
LINE
8
BLACK
6
CONTINUOUS
10
141.706
20
-48.5797
11
141.847
21
-48.5369
0
LINE
8
BLACK
6
CONTINUOUS
10
141.847
20
-48.5369
11
141.957
21
-48.526
0
LINE
8
BLACK
6
CONTINUOUS
10
141.957
20
-48.526
11
141.957
21
-48.526
0
LINE
8
BLACK
6
CONTINUOUS
10
141.957
20
-48.526
11
141.994
21
-48.5224
0
LINE
8
BLACK
6
CONTINUOUS
10
141.994
20
-48.5224
11
142.031
21
-48.526
0
LINE
8
BLACK
6
CONTINUOUS
10
142.031
20
-48.526
11
143.223
21
-48.526
0
LINE
8
BLACK
6
CONTINUOUS
10
143.223
20
-48.526
11
143.361
21
-48.3198
0
LINE
8
BLACK
6
CONTINUOUS
10
143.361
20
-48.3198
11
143.57
21
-48.1109
0
LINE
8
BLACK
6
CONTINUOUS
10
143.57
20
-48.1109
11
143.815
21
-47.9467
0
LINE
8
BLACK
6
CONTINUOUS
10
143.815
20
-47.9467
11
144.088
21
-47.8336
0
LINE
8
BLACK
6
CONTINUOUS
10
144.088
20
-47.8336
11
144.378
21
-47.776
0
LINE
8
BLACK
6
CONTINUOUS
10
144.378
20
-47.776
11
144.674
21
-47.776
0
LINE
8
BLACK
6
CONTINUOUS
10
144.674
20
-47.776
11
144.964
21
-47.8336
0
LINE
8
BLACK
6
CONTINUOUS
10
144.964
20
-47.8336
11
145.237
21
-47.9467
0
LINE
8
BLACK
6
CONTINUOUS
10
145.237
20
-47.9467
11
145.482
21
-48.1109
0
LINE
8
BLACK
6
CONTINUOUS
10
145.482
20
-48.1109
11
145.691
21
-48.3198
0
LINE
8
BLACK
6
CONTINUOUS
10
145.691
20
-48.3198
11
145.855
21
-48.5655
0
LINE
8
BLACK
6
CONTINUOUS
10
145.855
20
-48.5655
11
145.968
21
-48.8385
0
LINE
8
BLACK
6
CONTINUOUS
10
145.968
20
-48.8385
11
146.026
21
-49.1283
0
LINE
8
BLACK
6
CONTINUOUS
10
146.026
20
-49.1283
11
146.026
21
-49.4237
0
LINE
8
BLACK
6
CONTINUOUS
10
146.026
20
-49.4237
11
145.968
21
-49.7135
0
LINE
8
BLACK
6
CONTINUOUS
10
145.968
20
-49.7135
11
145.855
21
-49.9865
0
LINE
8
BLACK
6
CONTINUOUS
10
145.855
20
-49.9865
11
145.691
21
-50.2322
0
LINE
8
BLACK
6
CONTINUOUS
10
145.691
20
-50.2322
11
145.482
21
-50.4411
0
LINE
8
BLACK
6
CONTINUOUS
10
145.482
20
-50.4411
11
145.237
21
-50.6053
0
LINE
8
BLACK
6
CONTINUOUS
10
145.237
20
-50.6053
11
144.964
21
-50.7184
0
LINE
8
BLACK
6
CONTINUOUS
10
144.964
20
-50.7184
11
144.674
21
-50.776
0
LINE
8
BLACK
6
CONTINUOUS
10
144.674
20
-50.776
11
144.378
21
-50.776
0
LINE
8
BLACK
6
CONTINUOUS
10
144.378
20
-50.776
11
144.088
21
-50.7184
0
LINE
8
BLACK
6
CONTINUOUS
10
144.088
20
-50.7184
11
143.815
21
-50.6053
0
LINE
8
BLACK
6
CONTINUOUS
10
143.815
20
-50.6053
11
143.57
21
-50.4411
0
LINE
8
BLACK
6
CONTINUOUS
10
143.57
20
-50.4411
11
143.361
21
-50.2322
0
LINE
8
BLACK
6
CONTINUOUS
10
143.361
20
-50.2322
11
143.223
21
-50.026
0
LINE
8
BLACK
6
CONTINUOUS
10
143.223
20
-50.026
11
142.305
21
-50.026
0
LINE
8
BLACK
6
CONTINUOUS
10
142.305
20
-50.026
11
138.946
21
-53.3847
0
LINE
8
BLACK
6
CONTINUOUS
10
138.946
20
-53.3847
11
138.946
21
-53.848
0
LINE
8
BLACK
6
CONTINUOUS
10
138.946
20
-53.848
11
137.422
21
-53.848
0
LINE
8
BLACK
6
CONTINUOUS
10
137.422
20
-53.848
11
137.422
21
-53.836
0
LINE
8
BLACK
6
CONTINUOUS
10
137.422
20
-53.836
11
135.959
21
-53.836
0
LINE
8
BLACK
6
CONTINUOUS
10
135.959
20
-53.836
11
135.922
21
-53.8396
0
LINE
8
BLACK
6
CONTINUOUS
10
135.922
20
-53.8396
11
135.885
21
-53.836
0
LINE
8
BLACK
6
CONTINUOUS
10
135.885
20
-53.836
11
135.885
21
-53.836
0
LINE
8
BLACK
6
CONTINUOUS
10
135.885
20
-53.836
11
135.775
21
-53.8251
0
LINE
8
BLACK
6
CONTINUOUS
10
135.775
20
-53.8251
11
135.634
21
-53.7823
0
LINE
8
BLACK
6
CONTINUOUS
10
135.634
20
-53.7823
11
135.503
21
-53.7126
0
LINE
8
BLACK
6
CONTINUOUS
10
135.503
20
-53.7126
11
135.389
21
-53.6189
0
LINE
8
BLACK
6
CONTINUOUS
10
135.389
20
-53.6189
11
135.366
21
-53.5903
0
LINE
8
BLACK
6
CONTINUOUS
10
135.366
20
-53.5903
11
128.499
21
-46.724
0
LINE
8
BLACK
6
CONTINUOUS
10
128.499
20
-46.724
11
66.5153
21
-46.724
0
LINE
8
BLACK
6
CONTINUOUS
10
66.5153
20
-46.724
11
65.52
21
-47.7193
0
LINE
8
BLACK
6
CONTINUOUS
10
65.52
20
-47.7193
11
65.52
21
-48.2271
0
LINE
8
BLACK
6
CONTINUOUS
10
65.52
20
-48.2271
11
65.7262
21
-48.3649
0
LINE
8
BLACK
6
CONTINUOUS
10
65.7262
20
-48.3649
11
65.9351
21
-48.5738
0
LINE
8
BLACK
6
CONTINUOUS
10
65.9351
20
-48.5738
11
66.0993
21
-48.8195
0
LINE
8
BLACK
6
CONTINUOUS
10
66.0993
20
-48.8195
11
66.2124
21
-49.0925
0
LINE
8
BLACK
6
CONTINUOUS
10
66.2124
20
-49.0925
11
66.27
21
-49.3823
0
LINE
8
BLACK
6
CONTINUOUS
10
66.27
20
-49.3823
11
66.27
21
-49.6777
0
LINE
8
BLACK
6
CONTINUOUS
10
66.27
20
-49.6777
11
66.2124
21
-49.9675
0
LINE
8
BLACK
6
CONTINUOUS
10
66.2124
20
-49.9675
11
66.0993
21
-50.2405
0
LINE
8
BLACK
6
CONTINUOUS
10
66.0993
20
-50.2405
11
65.9351
21
-50.4862
0
LINE
8
BLACK
6
CONTINUOUS
10
65.9351
20
-50.4862
11
65.7262
21
-50.6951
0
LINE
8
BLACK
6
CONTINUOUS
10
65.7262
20
-50.6951
11
65.4805
21
-50.8593
0
LINE
8
BLACK
6
CONTINUOUS
10
65.4805
20
-50.8593
11
65.2075
21
-50.9724
0
LINE
8
BLACK
6
CONTINUOUS
10
65.2075
20
-50.9724
11
64.9177
21
-51.03
0
LINE
8
BLACK
6
CONTINUOUS
10
64.9177
20
-51.03
11
64.6223
21
-51.03
0
LINE
8
BLACK
6
CONTINUOUS
10
64.6223
20
-51.03
11
64.3325
21
-50.9724
0
LINE
8
BLACK
6
CONTINUOUS
10
64.3325
20
-50.9724
11
64.0595
21
-50.8593
0
LINE
8
BLACK
6
CONTINUOUS
10
64.0595
20
-50.8593
11
63.8138
21
-50.6951
0
LINE
8
BLACK
6
CONTINUOUS
10
63.8138
20
-50.6951
11
63.6049
21
-50.4862
0
LINE
8
BLACK
6
CONTINUOUS
10
63.6049
20
-50.4862
11
63.4407
21
-50.2405
0
LINE
8
BLACK
6
CONTINUOUS
10
63.4407
20
-50.2405
11
63.3276
21
-49.9675
0
LINE
8
BLACK
6
CONTINUOUS
10
63.3276
20
-49.9675
11
63.27
21
-49.6777
0
LINE
8
BLACK
6
CONTINUOUS
10
63.27
20
-49.6777
11
63.27
21
-49.3823
0
LINE
8
BLACK
6
CONTINUOUS
10
63.27
20
-49.3823
11
63.3276
21
-49.0925
0
LINE
8
BLACK
6
CONTINUOUS
10
63.3276
20
-49.0925
11
63.4407
21
-48.8195
0
LINE
8
BLACK
6
CONTINUOUS
10
63.4407
20
-48.8195
11
63.6049
21
-48.5738
0
LINE
8
BLACK
6
CONTINUOUS
10
63.6049
20
-48.5738
11
63.8138
21
-48.3649
0
LINE
8
BLACK
6
CONTINUOUS
10
63.8138
20
-48.3649
11
64.02
21
-48.2271
0
LINE
8
BLACK
6
CONTINUOUS
10
64.02
20
-48.2271
11
64.02
21
-47.4455
0
LINE
8
BLACK
6
CONTINUOUS
10
64.02
20
-47.4455
11
64.0164
21
-47.4087
0
LINE
8
BLACK
6
CONTINUOUS
10
64.0164
20
-47.4087
11
64.0309
21
-47.2617
0
LINE
8
BLACK
6
CONTINUOUS
10
64.0309
20
-47.2617
11
64.0737
21
-47.1203
0
LINE
8
BLACK
6
CONTINUOUS
10
64.0737
20
-47.1203
11
64.1062
21
-47.0596
0
LINE
8
BLACK
6
CONTINUOUS
10
64.1062
20
-47.0596
11
64.1434
21
-46.99
0
LINE
8
BLACK
6
CONTINUOUS
10
64.1434
20
-46.99
11
64.1861
21
-46.9379
0
LINE
8
BLACK
6
CONTINUOUS
10
64.1861
20
-46.9379
11
64.2136
21
-46.9044
0
LINE
8
BLACK
6
CONTINUOUS
10
64.2136
20
-46.9044
11
64.2136
21
-46.9044
0
LINE
8
BLACK
6
CONTINUOUS
10
64.2136
20
-46.9044
11
64.2371
21
-46.8758
0
LINE
8
BLACK
6
CONTINUOUS
10
64.2371
20
-46.8758
11
64.2657
21
-46.8523
0
LINE
8
BLACK
6
CONTINUOUS
10
64.2657
20
-46.8523
11
65.6483
21
-45.4697
0
LINE
8
BLACK
6
CONTINUOUS
10
65.6483
20
-45.4697
11
65.6718
21
-45.4411
0
LINE
8
BLACK
6
CONTINUOUS
10
65.6718
20
-45.4411
11
65.786
21
-45.3474
0
LINE
8
BLACK
6
CONTINUOUS
10
65.786
20
-45.3474
11
65.9163
21
-45.2777
0
LINE
8
BLACK
6
CONTINUOUS
10
65.9163
20
-45.2777
11
66.0577
21
-45.2349
0
LINE
8
BLACK
6
CONTINUOUS
10
66.0577
20
-45.2349
11
66.1678
21
-45.224
0
LINE
8
BLACK
6
CONTINUOUS
10
66.1678
20
-45.224
11
66.1679
21
-45.224
0
LINE
8
BLACK
6
CONTINUOUS
10
66.1679
20
-45.224
11
66.2047
21
-45.2204
0
LINE
8
BLACK
6
CONTINUOUS
10
66.2047
20
-45.2204
11
66.2415
21
-45.224
0
LINE
8
BLACK
6
CONTINUOUS
10
66.2415
20
-45.224
11
128.773
21
-45.224
0
LINE
8
BLACK
6
CONTINUOUS
10
128.773
20
-45.224
11
128.81
21
-45.2204
0
LINE
8
BLACK
6
CONTINUOUS
10
128.81
20
-45.2204
11
128.847
21
-45.224
0
LINE
8
BLACK
6
CONTINUOUS
10
47.8651
20
-41.0573
11
48.411
21
-41.2834
0
LINE
8
BLACK
6
CONTINUOUS
10
48.411
20
-41.2834
11
48.9024
21
-41.6117
0
LINE
8
BLACK
6
CONTINUOUS
10
48.9024
20
-41.6117
11
49.3203
21
-42.0296
0
LINE
8
BLACK
6
CONTINUOUS
10
49.3203
20
-42.0296
11
49.6486
21
-42.521
0
LINE
8
BLACK
6
CONTINUOUS
10
49.6486
20
-42.521
11
49.8747
21
-43.0669
0
LINE
8
BLACK
6
CONTINUOUS
10
49.8747
20
-43.0669
11
49.99
21
-43.6465
0
LINE
8
BLACK
6
CONTINUOUS
10
49.99
20
-43.6465
11
49.99
21
-44.2375
0
LINE
8
BLACK
6
CONTINUOUS
10
49.99
20
-44.2375
11
49.8747
21
-44.8171
0
LINE
8
BLACK
6
CONTINUOUS
10
49.8747
20
-44.8171
11
49.6486
21
-45.363
0
LINE
8
BLACK
6
CONTINUOUS
10
49.6486
20
-45.363
11
49.3203
21
-45.8544
0
LINE
8
BLACK
6
CONTINUOUS
10
49.3203
20
-45.8544
11
48.9024
21
-46.2723
0
LINE
8
BLACK
6
CONTINUOUS
10
48.9024
20
-46.2723
11
48.411
21
-46.6006
0
LINE
8
BLACK
6
CONTINUOUS
10
48.411
20
-46.6006
11
47.8651
21
-46.8267
0
LINE
8
BLACK
6
CONTINUOUS
10
47.8651
20
-46.8267
11
47.2855
21
-46.942
0
LINE
8
BLACK
6
CONTINUOUS
10
47.2855
20
-46.942
11
46.6945
21
-46.942
0
LINE
8
BLACK
6
CONTINUOUS
10
46.6945
20
-46.942
11
46.1149
21
-46.8267
0
LINE
8
BLACK
6
CONTINUOUS
10
46.1149
20
-46.8267
11
45.569
21
-46.6006
0
LINE
8
BLACK
6
CONTINUOUS
10
45.569
20
-46.6006
11
45.0776
21
-46.2723
0
LINE
8
BLACK
6
CONTINUOUS
10
45.0776
20
-46.2723
11
44.6597
21
-45.8544
0
LINE
8
BLACK
6
CONTINUOUS
10
44.6597
20
-45.8544
11
44.3314
21
-45.363
0
LINE
8
BLACK
6
CONTINUOUS
10
44.3314
20
-45.363
11
44.1053
21
-44.8171
0
LINE
8
BLACK
6
CONTINUOUS
10
44.1053
20
-44.8171
11
43.99
21
-44.2375
0
LINE
8
BLACK
6
CONTINUOUS
10
43.99
20
-44.2375
11
43.99
21
-43.6465
0
LINE
8
BLACK
6
CONTINUOUS
10
43.99
20
-43.6465
11
44.1053
21
-43.0669
0
LINE
8
BLACK
6
CONTINUOUS
10
44.1053
20
-43.0669
11
44.3314
21
-42.521
0
LINE
8
BLACK
6
CONTINUOUS
10
44.3314
20
-42.521
11
44.6597
21
-42.0296
0
LINE
8
BLACK
6
CONTINUOUS
10
44.6597
20
-42.0296
11
45.0776
21
-41.6117
0
LINE
8
BLACK
6
CONTINUOUS
10
45.0776
20
-41.6117
11
45.569
21
-41.2834
0
LINE
8
BLACK
6
CONTINUOUS
10
45.569
20
-41.2834
11
46.1149
21
-41.0573
0
LINE
8
BLACK
6
CONTINUOUS
10
46.1149
20
-41.0573
11
46.6945
21
-40.942
0
LINE
8
BLACK
6
CONTINUOUS
10
46.6945
20
-40.942
11
47.2855
21
-40.942
0
LINE
8
BLACK
6
CONTINUOUS
10
47.2855
20
-40.942
11
47.8651
21
-41.0573
0
LINE
8
BLACK
6
CONTINUOUS
10
145.909
20
-40.0413
11
146.455
21
-40.2674
0
LINE
8
BLACK
6
CONTINUOUS
10
146.455
20
-40.2674
11
146.946
21
-40.5957
0
LINE
8
BLACK
6
CONTINUOUS
10
146.946
20
-40.5957
11
147.364
21
-41.0136
0
LINE
8
BLACK
6
CONTINUOUS
10
147.364
20
-41.0136
11
147.693
21
-41.505
0
LINE
8
BLACK
6
CONTINUOUS
10
147.693
20
-41.505
11
147.919
21
-42.0509
0
LINE
8
BLACK
6
CONTINUOUS
10
147.919
20
-42.0509
11
148.034
21
-42.6305
0
LINE
8
BLACK
6
CONTINUOUS
10
148.034
20
-42.6305
11
148.034
21
-43.2215
0
LINE
8
BLACK
6
CONTINUOUS
10
148.034
20
-43.2215
11
147.919
21
-43.8011
0
LINE
8
BLACK
6
CONTINUOUS
10
147.919
20
-43.8011
11
147.693
21
-44.347
0
LINE
8
BLACK
6
CONTINUOUS
10
147.693
20
-44.347
11
147.364
21
-44.8384
0
LINE
8
BLACK
6
CONTINUOUS
10
147.364
20
-44.8384
11
146.946
21
-45.2563
0
LINE
8
BLACK
6
CONTINUOUS
10
146.946
20
-45.2563
11
146.455
21
-45.5846
0
LINE
8
BLACK
6
CONTINUOUS
10
146.455
20
-45.5846
11
145.909
21
-45.8107
0
LINE
8
BLACK
6
CONTINUOUS
10
145.909
20
-45.8107
11
145.329
21
-45.926
0
LINE
8
BLACK
6
CONTINUOUS
10
145.329
20
-45.926
11
144.739
21
-45.926
0
LINE
8
BLACK
6
CONTINUOUS
10
144.739
20
-45.926
11
144.159
21
-45.8107
0
LINE
8
BLACK
6
CONTINUOUS
10
144.159
20
-45.8107
11
143.613
21
-45.5846
0
LINE
8
BLACK
6
CONTINUOUS
10
143.613
20
-45.5846
11
143.122
21
-45.2563
0
LINE
8
BLACK
6
CONTINUOUS
10
143.122
20
-45.2563
11
142.704
21
-44.8384
0
LINE
8
BLACK
6
CONTINUOUS
10
142.704
20
-44.8384
11
142.375
21
-44.347
0
LINE
8
BLACK
6
CONTINUOUS
10
142.375
20
-44.347
11
142.149
21
-43.8011
0
LINE
8
BLACK
6
CONTINUOUS
10
142.149
20
-43.8011
11
142.034
21
-43.2215
0
LINE
8
BLACK
6
CONTINUOUS
10
142.034
20
-43.2215
11
142.034
21
-42.6305
0
LINE
8
BLACK
6
CONTINUOUS
10
142.034
20
-42.6305
11
142.149
21
-42.0509
0
LINE
8
BLACK
6
CONTINUOUS
10
142.149
20
-42.0509
11
142.375
21
-41.505
0
LINE
8
BLACK
6
CONTINUOUS
10
142.375
20
-41.505
11
142.704
21
-41.0136
0
LINE
8
BLACK
6
CONTINUOUS
10
142.704
20
-41.0136
11
143.122
21
-40.5957
0
LINE
8
BLACK
6
CONTINUOUS
10
143.122
20
-40.5957
11
143.613
21
-40.2674
0
LINE
8
BLACK
6
CONTINUOUS
10
143.613
20
-40.2674
11
144.159
21
-40.0413
0
LINE
8
BLACK
6
CONTINUOUS
10
144.159
20
-40.0413
11
144.739
21
-39.926
0
LINE
8
BLACK
6
CONTINUOUS
10
144.739
20
-39.926
11
145.329
21
-39.926
0
LINE
8
BLACK
6
CONTINUOUS
10
145.329
20
-39.926
11
145.909
21
-40.0413
0
CIRCLE
8
BLACK
10
145.034
20
-42.926
40
1
0
CIRCLE
8
BLACK
10
145.034
20
-93.726
40
1
0
CIRCLE
8
BLACK
10
47.498
20
-94.996
40
1
0
CIRCLE
8
BLACK
10
46.99
20
-43.942
40
1
  0
ENDSEC
  0
EOF
