G04 #@! TF.GenerationSoftware,KiCad,Pcbnew,(5.1.2)-2*
G04 #@! TF.CreationDate,2020-05-15T02:34:09+07:00*
G04 #@! TF.ProjectId,power_arduino,706f7765-725f-4617-9264-75696e6f2e6b,rev?*
G04 #@! TF.SameCoordinates,Original*
G04 #@! TF.FileFunction,Copper,L2,Bot*
G04 #@! TF.FilePolarity,Positive*
%FSLAX46Y46*%
G04 Gerber Fmt 4.6, Leading zero omitted, Abs format (unit mm)*
G04 Created by KiCad (PCBNEW (5.1.2)-2) date 2020-05-15 02:34:09*
%MOMM*%
%LPD*%
G04 APERTURE LIST*
%ADD10C,3.000000*%
%ADD11R,3.000000X3.000000*%
%ADD12R,1.524000X1.524000*%
%ADD13R,1.800000X1.800000*%
%ADD14C,1.800000*%
%ADD15C,2.400000*%
%ADD16O,2.400000X2.400000*%
%ADD17C,2.000000*%
%ADD18C,6.000000*%
%ADD19C,1.500000*%
G04 APERTURE END LIST*
D10*
X144526000Y-60198000D03*
D11*
X144526000Y-65278000D03*
D12*
X75184000Y-53086000D03*
X75184000Y-68086000D03*
X138184000Y-53086000D03*
X138184000Y-68086000D03*
D13*
X69088000Y-75184000D03*
D14*
X69088000Y-72644000D03*
D11*
X58166000Y-49530000D03*
D10*
X53086000Y-49530000D03*
D15*
X52070000Y-66548000D03*
D16*
X72390000Y-66548000D03*
D17*
X53594000Y-79502000D03*
X93594000Y-79502000D03*
X53594000Y-96502000D03*
X93594000Y-96502000D03*
X138298000Y-96502000D03*
X98298000Y-96502000D03*
X138298000Y-79502000D03*
X98298000Y-79502000D03*
D11*
X144526000Y-54356000D03*
D10*
X144526000Y-49276000D03*
X144526000Y-81534000D03*
X144526000Y-76454000D03*
D11*
X144526000Y-86614000D03*
D10*
X144526000Y-71374000D03*
X64770000Y-49530000D03*
D11*
X69850000Y-49530000D03*
D17*
X53340000Y-59436000D03*
X68340000Y-59436000D03*
D18*
X145034000Y-42926000D03*
X145034000Y-93726000D03*
X47498000Y-94996000D03*
X46990000Y-43942000D03*
D19*
X75184000Y-71488000D02*
X71488000Y-75184000D01*
X75184000Y-68086000D02*
X75184000Y-71488000D01*
X54593999Y-95502001D02*
X60961999Y-95502001D01*
X53594000Y-96502000D02*
X54593999Y-95502001D01*
X60961999Y-95502001D02*
X69596000Y-86868000D01*
X71488000Y-75184000D02*
X69596000Y-75184000D01*
X69596000Y-75184000D02*
X69088000Y-75184000D01*
X69850000Y-83058000D02*
X69596000Y-83312000D01*
X84854000Y-83058000D02*
X69850000Y-83058000D01*
X98298000Y-96502000D02*
X84854000Y-83058000D01*
X69596000Y-83312000D02*
X69596000Y-75184000D01*
X56803998Y-85598000D02*
X69596000Y-85598000D01*
X49919999Y-78714001D02*
X56803998Y-85598000D01*
X49919999Y-52696001D02*
X49919999Y-78714001D01*
X53086000Y-49530000D02*
X49919999Y-52696001D01*
X69596000Y-86868000D02*
X69596000Y-85598000D01*
X69596000Y-85598000D02*
X69596000Y-83312000D01*
X72390000Y-69342000D02*
X69088000Y-72644000D01*
X72390000Y-66548000D02*
X72390000Y-69342000D01*
X53340000Y-65278000D02*
X52070000Y-66548000D01*
X53340000Y-59436000D02*
X53340000Y-65278000D01*
X68072000Y-65278000D02*
X53340000Y-65278000D01*
X75184000Y-53086000D02*
X75184000Y-58166000D01*
X75184000Y-58166000D02*
X68072000Y-65278000D01*
X52070000Y-77978000D02*
X53594000Y-79502000D01*
X52070000Y-66548000D02*
X52070000Y-77978000D01*
X75184000Y-56388000D02*
X98298000Y-79502000D01*
X75184000Y-53086000D02*
X75184000Y-56388000D01*
X66925787Y-59436000D02*
X68340000Y-59436000D01*
X65072000Y-59436000D02*
X66925787Y-59436000D01*
X58166000Y-52530000D02*
X65072000Y-59436000D01*
X58166000Y-49530000D02*
X58166000Y-52530000D01*
X64770000Y-47408680D02*
X66204680Y-45974000D01*
X64770000Y-49530000D02*
X64770000Y-47408680D01*
X135922000Y-53086000D02*
X138184000Y-53086000D01*
X128810000Y-45974000D02*
X135922000Y-53086000D01*
X66204680Y-45974000D02*
X128810000Y-45974000D01*
X141994000Y-49276000D02*
X138184000Y-53086000D01*
X144526000Y-49276000D02*
X141994000Y-49276000D01*
X138184000Y-65824000D02*
X138184000Y-68086000D01*
X121890000Y-49530000D02*
X138184000Y-65824000D01*
X69850000Y-49530000D02*
X121890000Y-49530000D01*
X141526000Y-54356000D02*
X137922000Y-57960000D01*
X144526000Y-54356000D02*
X141526000Y-54356000D01*
X137922000Y-65562000D02*
X138184000Y-65824000D01*
X137922000Y-57960000D02*
X137922000Y-65562000D01*
X93594000Y-79502000D02*
X93594000Y-81656000D01*
X93594000Y-81656000D02*
X96012000Y-84074000D01*
X96012000Y-84074000D02*
X102616000Y-84074000D01*
X115316000Y-71374000D02*
X144526000Y-71374000D01*
X102616000Y-84074000D02*
X115316000Y-71374000D01*
X94129788Y-98452001D02*
X104239999Y-98452001D01*
X93594000Y-96502000D02*
X93594000Y-97916213D01*
X93594000Y-97916213D02*
X94129788Y-98452001D01*
X104239999Y-98452001D02*
X107950000Y-94742000D01*
X107950000Y-94742000D02*
X126492000Y-76200000D01*
X126492000Y-76200000D02*
X144526000Y-76200000D01*
X138298000Y-92842000D02*
X144526000Y-86614000D01*
X138298000Y-96502000D02*
X138298000Y-92842000D01*
X147526000Y-86614000D02*
X144526000Y-86614000D01*
X149098000Y-85042000D02*
X147526000Y-86614000D01*
X149098000Y-66850000D02*
X149098000Y-85042000D01*
X147526000Y-65278000D02*
X149098000Y-66850000D01*
X144526000Y-65278000D02*
X147526000Y-65278000D01*
X142494000Y-79502000D02*
X144526000Y-81534000D01*
X138298000Y-79502000D02*
X142494000Y-79502000D01*
X141986000Y-60198000D02*
X144526000Y-60198000D01*
X140970000Y-61214000D02*
X141986000Y-60198000D01*
X146976001Y-79083999D02*
X146976001Y-70197999D01*
X146976001Y-70197999D02*
X145104002Y-68326000D01*
X144526000Y-81534000D02*
X146976001Y-79083999D01*
X145104002Y-68326000D02*
X142748000Y-68326000D01*
X142748000Y-68326000D02*
X140970000Y-66548000D01*
X140970000Y-66548000D02*
X140970000Y-61214000D01*
M02*
