M48
; DRILL file {KiCad (5.1.2)-2} date 5/15/2020 2:34:16 AM
; FORMAT={2:4/ absolute / inch / suppress leading zeros}
; #@! TF.CreationDate,2020-05-15T02:34:16+07:00
; #@! TF.GenerationSoftware,Kicad,Pcbnew,(5.1.2)-2
FMAT,2
INCH,TZ
T1C0.0300
T2C0.0354
T3C0.0394
T4C0.0472
T5C0.0598
T6C0.0787
%
G90
G05
T1
X21100Y-31300
X21100Y-37993
X36848Y-31300
X36848Y-37993
X21000Y-23400
X26906Y-23400
X38700Y-31300
X38700Y-37993
X54448Y-31300
X54448Y-37993
T2
X27200Y-28600
X27200Y-29600
T3
X29600Y-20900
X29600Y-26806
X54403Y-20900
X54403Y-26806
T4
X20500Y-26200
X28500Y-26200
T5
X56900Y-23700
X56900Y-25700
X20900Y-19500
X22900Y-19500
X56900Y-19400
X56900Y-21400
X25500Y-19500
X27500Y-19500
X56900Y-28100
X56900Y-30100
X56900Y-32100
X56900Y-34100
T6
X18500Y-17300
X18700Y-37400
X57100Y-16900
X57100Y-36900
T0
M30
