G04 #@! TF.GenerationSoftware,KiCad,Pcbnew,(5.1.2)-2*
G04 #@! TF.CreationDate,2020-05-15T02:34:10+07:00*
G04 #@! TF.ProjectId,power_arduino,706f7765-725f-4617-9264-75696e6f2e6b,rev?*
G04 #@! TF.SameCoordinates,Original*
G04 #@! TF.FileFunction,Soldermask,Top*
G04 #@! TF.FilePolarity,Negative*
%FSLAX46Y46*%
G04 Gerber Fmt 4.6, Leading zero omitted, Abs format (unit mm)*
G04 Created by KiCad (PCBNEW (5.1.2)-2) date 2020-05-15 02:34:10*
%MOMM*%
%LPD*%
G04 APERTURE LIST*
%ADD10C,0.100000*%
G04 APERTURE END LIST*
D10*
G36*
X138604564Y-95491389D02*
G01*
X138795833Y-95570615D01*
X138795835Y-95570616D01*
X138967973Y-95685635D01*
X139114365Y-95832027D01*
X139229385Y-96004167D01*
X139308611Y-96195436D01*
X139349000Y-96398484D01*
X139349000Y-96605516D01*
X139308611Y-96808564D01*
X139229385Y-96999833D01*
X139229384Y-96999835D01*
X139114365Y-97171973D01*
X138967973Y-97318365D01*
X138795835Y-97433384D01*
X138795834Y-97433385D01*
X138795833Y-97433385D01*
X138604564Y-97512611D01*
X138401516Y-97553000D01*
X138194484Y-97553000D01*
X137991436Y-97512611D01*
X137800167Y-97433385D01*
X137800166Y-97433385D01*
X137800165Y-97433384D01*
X137628027Y-97318365D01*
X137481635Y-97171973D01*
X137366616Y-96999835D01*
X137366615Y-96999833D01*
X137287389Y-96808564D01*
X137247000Y-96605516D01*
X137247000Y-96398484D01*
X137287389Y-96195436D01*
X137366615Y-96004167D01*
X137481635Y-95832027D01*
X137628027Y-95685635D01*
X137800165Y-95570616D01*
X137800167Y-95570615D01*
X137991436Y-95491389D01*
X138194484Y-95451000D01*
X138401516Y-95451000D01*
X138604564Y-95491389D01*
X138604564Y-95491389D01*
G37*
G36*
X93900564Y-95491389D02*
G01*
X94091833Y-95570615D01*
X94091835Y-95570616D01*
X94263973Y-95685635D01*
X94410365Y-95832027D01*
X94525385Y-96004167D01*
X94604611Y-96195436D01*
X94645000Y-96398484D01*
X94645000Y-96605516D01*
X94604611Y-96808564D01*
X94525385Y-96999833D01*
X94525384Y-96999835D01*
X94410365Y-97171973D01*
X94263973Y-97318365D01*
X94091835Y-97433384D01*
X94091834Y-97433385D01*
X94091833Y-97433385D01*
X93900564Y-97512611D01*
X93697516Y-97553000D01*
X93490484Y-97553000D01*
X93287436Y-97512611D01*
X93096167Y-97433385D01*
X93096166Y-97433385D01*
X93096165Y-97433384D01*
X92924027Y-97318365D01*
X92777635Y-97171973D01*
X92662616Y-96999835D01*
X92662615Y-96999833D01*
X92583389Y-96808564D01*
X92543000Y-96605516D01*
X92543000Y-96398484D01*
X92583389Y-96195436D01*
X92662615Y-96004167D01*
X92777635Y-95832027D01*
X92924027Y-95685635D01*
X93096165Y-95570616D01*
X93096167Y-95570615D01*
X93287436Y-95491389D01*
X93490484Y-95451000D01*
X93697516Y-95451000D01*
X93900564Y-95491389D01*
X93900564Y-95491389D01*
G37*
G36*
X53900564Y-95491389D02*
G01*
X54091833Y-95570615D01*
X54091835Y-95570616D01*
X54263973Y-95685635D01*
X54410365Y-95832027D01*
X54525385Y-96004167D01*
X54604611Y-96195436D01*
X54645000Y-96398484D01*
X54645000Y-96605516D01*
X54604611Y-96808564D01*
X54525385Y-96999833D01*
X54525384Y-96999835D01*
X54410365Y-97171973D01*
X54263973Y-97318365D01*
X54091835Y-97433384D01*
X54091834Y-97433385D01*
X54091833Y-97433385D01*
X53900564Y-97512611D01*
X53697516Y-97553000D01*
X53490484Y-97553000D01*
X53287436Y-97512611D01*
X53096167Y-97433385D01*
X53096166Y-97433385D01*
X53096165Y-97433384D01*
X52924027Y-97318365D01*
X52777635Y-97171973D01*
X52662616Y-96999835D01*
X52662615Y-96999833D01*
X52583389Y-96808564D01*
X52543000Y-96605516D01*
X52543000Y-96398484D01*
X52583389Y-96195436D01*
X52662615Y-96004167D01*
X52777635Y-95832027D01*
X52924027Y-95685635D01*
X53096165Y-95570616D01*
X53096167Y-95570615D01*
X53287436Y-95491389D01*
X53490484Y-95451000D01*
X53697516Y-95451000D01*
X53900564Y-95491389D01*
X53900564Y-95491389D01*
G37*
G36*
X98604564Y-95491389D02*
G01*
X98795833Y-95570615D01*
X98795835Y-95570616D01*
X98967973Y-95685635D01*
X99114365Y-95832027D01*
X99229385Y-96004167D01*
X99308611Y-96195436D01*
X99349000Y-96398484D01*
X99349000Y-96605516D01*
X99308611Y-96808564D01*
X99229385Y-96999833D01*
X99229384Y-96999835D01*
X99114365Y-97171973D01*
X98967973Y-97318365D01*
X98795835Y-97433384D01*
X98795834Y-97433385D01*
X98795833Y-97433385D01*
X98604564Y-97512611D01*
X98401516Y-97553000D01*
X98194484Y-97553000D01*
X97991436Y-97512611D01*
X97800167Y-97433385D01*
X97800166Y-97433385D01*
X97800165Y-97433384D01*
X97628027Y-97318365D01*
X97481635Y-97171973D01*
X97366616Y-96999835D01*
X97366615Y-96999833D01*
X97287389Y-96808564D01*
X97247000Y-96605516D01*
X97247000Y-96398484D01*
X97287389Y-96195436D01*
X97366615Y-96004167D01*
X97481635Y-95832027D01*
X97628027Y-95685635D01*
X97800165Y-95570616D01*
X97800167Y-95570615D01*
X97991436Y-95491389D01*
X98194484Y-95451000D01*
X98401516Y-95451000D01*
X98604564Y-95491389D01*
X98604564Y-95491389D01*
G37*
G36*
X146077000Y-88165000D02*
G01*
X142975000Y-88165000D01*
X142975000Y-85063000D01*
X146077000Y-85063000D01*
X146077000Y-88165000D01*
X146077000Y-88165000D01*
G37*
G36*
X144828585Y-80012802D02*
G01*
X144978410Y-80042604D01*
X145260674Y-80159521D01*
X145514705Y-80329259D01*
X145730741Y-80545295D01*
X145900479Y-80799326D01*
X146017396Y-81081590D01*
X146077000Y-81381240D01*
X146077000Y-81686760D01*
X146017396Y-81986410D01*
X145900479Y-82268674D01*
X145730741Y-82522705D01*
X145514705Y-82738741D01*
X145260674Y-82908479D01*
X144978410Y-83025396D01*
X144828585Y-83055198D01*
X144678761Y-83085000D01*
X144373239Y-83085000D01*
X144223415Y-83055198D01*
X144073590Y-83025396D01*
X143791326Y-82908479D01*
X143537295Y-82738741D01*
X143321259Y-82522705D01*
X143151521Y-82268674D01*
X143034604Y-81986410D01*
X142975000Y-81686760D01*
X142975000Y-81381240D01*
X143034604Y-81081590D01*
X143151521Y-80799326D01*
X143321259Y-80545295D01*
X143537295Y-80329259D01*
X143791326Y-80159521D01*
X144073590Y-80042604D01*
X144223415Y-80012802D01*
X144373239Y-79983000D01*
X144678761Y-79983000D01*
X144828585Y-80012802D01*
X144828585Y-80012802D01*
G37*
G36*
X98604564Y-78491389D02*
G01*
X98795833Y-78570615D01*
X98795835Y-78570616D01*
X98967973Y-78685635D01*
X99114365Y-78832027D01*
X99229385Y-79004167D01*
X99308611Y-79195436D01*
X99349000Y-79398484D01*
X99349000Y-79605516D01*
X99308611Y-79808564D01*
X99236357Y-79983000D01*
X99229384Y-79999835D01*
X99114365Y-80171973D01*
X98967973Y-80318365D01*
X98795835Y-80433384D01*
X98795834Y-80433385D01*
X98795833Y-80433385D01*
X98604564Y-80512611D01*
X98401516Y-80553000D01*
X98194484Y-80553000D01*
X97991436Y-80512611D01*
X97800167Y-80433385D01*
X97800166Y-80433385D01*
X97800165Y-80433384D01*
X97628027Y-80318365D01*
X97481635Y-80171973D01*
X97366616Y-79999835D01*
X97359643Y-79983000D01*
X97287389Y-79808564D01*
X97247000Y-79605516D01*
X97247000Y-79398484D01*
X97287389Y-79195436D01*
X97366615Y-79004167D01*
X97481635Y-78832027D01*
X97628027Y-78685635D01*
X97800165Y-78570616D01*
X97800167Y-78570615D01*
X97991436Y-78491389D01*
X98194484Y-78451000D01*
X98401516Y-78451000D01*
X98604564Y-78491389D01*
X98604564Y-78491389D01*
G37*
G36*
X138604564Y-78491389D02*
G01*
X138795833Y-78570615D01*
X138795835Y-78570616D01*
X138967973Y-78685635D01*
X139114365Y-78832027D01*
X139229385Y-79004167D01*
X139308611Y-79195436D01*
X139349000Y-79398484D01*
X139349000Y-79605516D01*
X139308611Y-79808564D01*
X139236357Y-79983000D01*
X139229384Y-79999835D01*
X139114365Y-80171973D01*
X138967973Y-80318365D01*
X138795835Y-80433384D01*
X138795834Y-80433385D01*
X138795833Y-80433385D01*
X138604564Y-80512611D01*
X138401516Y-80553000D01*
X138194484Y-80553000D01*
X137991436Y-80512611D01*
X137800167Y-80433385D01*
X137800166Y-80433385D01*
X137800165Y-80433384D01*
X137628027Y-80318365D01*
X137481635Y-80171973D01*
X137366616Y-79999835D01*
X137359643Y-79983000D01*
X137287389Y-79808564D01*
X137247000Y-79605516D01*
X137247000Y-79398484D01*
X137287389Y-79195436D01*
X137366615Y-79004167D01*
X137481635Y-78832027D01*
X137628027Y-78685635D01*
X137800165Y-78570616D01*
X137800167Y-78570615D01*
X137991436Y-78491389D01*
X138194484Y-78451000D01*
X138401516Y-78451000D01*
X138604564Y-78491389D01*
X138604564Y-78491389D01*
G37*
G36*
X93900564Y-78491389D02*
G01*
X94091833Y-78570615D01*
X94091835Y-78570616D01*
X94263973Y-78685635D01*
X94410365Y-78832027D01*
X94525385Y-79004167D01*
X94604611Y-79195436D01*
X94645000Y-79398484D01*
X94645000Y-79605516D01*
X94604611Y-79808564D01*
X94532357Y-79983000D01*
X94525384Y-79999835D01*
X94410365Y-80171973D01*
X94263973Y-80318365D01*
X94091835Y-80433384D01*
X94091834Y-80433385D01*
X94091833Y-80433385D01*
X93900564Y-80512611D01*
X93697516Y-80553000D01*
X93490484Y-80553000D01*
X93287436Y-80512611D01*
X93096167Y-80433385D01*
X93096166Y-80433385D01*
X93096165Y-80433384D01*
X92924027Y-80318365D01*
X92777635Y-80171973D01*
X92662616Y-79999835D01*
X92655643Y-79983000D01*
X92583389Y-79808564D01*
X92543000Y-79605516D01*
X92543000Y-79398484D01*
X92583389Y-79195436D01*
X92662615Y-79004167D01*
X92777635Y-78832027D01*
X92924027Y-78685635D01*
X93096165Y-78570616D01*
X93096167Y-78570615D01*
X93287436Y-78491389D01*
X93490484Y-78451000D01*
X93697516Y-78451000D01*
X93900564Y-78491389D01*
X93900564Y-78491389D01*
G37*
G36*
X53900564Y-78491389D02*
G01*
X54091833Y-78570615D01*
X54091835Y-78570616D01*
X54263973Y-78685635D01*
X54410365Y-78832027D01*
X54525385Y-79004167D01*
X54604611Y-79195436D01*
X54645000Y-79398484D01*
X54645000Y-79605516D01*
X54604611Y-79808564D01*
X54532357Y-79983000D01*
X54525384Y-79999835D01*
X54410365Y-80171973D01*
X54263973Y-80318365D01*
X54091835Y-80433384D01*
X54091834Y-80433385D01*
X54091833Y-80433385D01*
X53900564Y-80512611D01*
X53697516Y-80553000D01*
X53490484Y-80553000D01*
X53287436Y-80512611D01*
X53096167Y-80433385D01*
X53096166Y-80433385D01*
X53096165Y-80433384D01*
X52924027Y-80318365D01*
X52777635Y-80171973D01*
X52662616Y-79999835D01*
X52655643Y-79983000D01*
X52583389Y-79808564D01*
X52543000Y-79605516D01*
X52543000Y-79398484D01*
X52583389Y-79195436D01*
X52662615Y-79004167D01*
X52777635Y-78832027D01*
X52924027Y-78685635D01*
X53096165Y-78570616D01*
X53096167Y-78570615D01*
X53287436Y-78491389D01*
X53490484Y-78451000D01*
X53697516Y-78451000D01*
X53900564Y-78491389D01*
X53900564Y-78491389D01*
G37*
G36*
X144828585Y-74932802D02*
G01*
X144978410Y-74962604D01*
X145260674Y-75079521D01*
X145514705Y-75249259D01*
X145730741Y-75465295D01*
X145900479Y-75719326D01*
X146017396Y-76001590D01*
X146077000Y-76301240D01*
X146077000Y-76606760D01*
X146017396Y-76906410D01*
X145900479Y-77188674D01*
X145730741Y-77442705D01*
X145514705Y-77658741D01*
X145260674Y-77828479D01*
X144978410Y-77945396D01*
X144828585Y-77975198D01*
X144678761Y-78005000D01*
X144373239Y-78005000D01*
X144223415Y-77975198D01*
X144073590Y-77945396D01*
X143791326Y-77828479D01*
X143537295Y-77658741D01*
X143321259Y-77442705D01*
X143151521Y-77188674D01*
X143034604Y-76906410D01*
X142975000Y-76606760D01*
X142975000Y-76301240D01*
X143034604Y-76001590D01*
X143151521Y-75719326D01*
X143321259Y-75465295D01*
X143537295Y-75249259D01*
X143791326Y-75079521D01*
X144073590Y-74962604D01*
X144223415Y-74932802D01*
X144373239Y-74903000D01*
X144678761Y-74903000D01*
X144828585Y-74932802D01*
X144828585Y-74932802D01*
G37*
G36*
X70039000Y-76135000D02*
G01*
X68137000Y-76135000D01*
X68137000Y-74233000D01*
X70039000Y-74233000D01*
X70039000Y-76135000D01*
X70039000Y-76135000D01*
G37*
G36*
X69365395Y-71729546D02*
G01*
X69538466Y-71801234D01*
X69538467Y-71801235D01*
X69694227Y-71905310D01*
X69826690Y-72037773D01*
X69826691Y-72037775D01*
X69930766Y-72193534D01*
X70002454Y-72366605D01*
X70039000Y-72550333D01*
X70039000Y-72737667D01*
X70002454Y-72921395D01*
X69930766Y-73094466D01*
X69930765Y-73094467D01*
X69826690Y-73250227D01*
X69694227Y-73382690D01*
X69615818Y-73435081D01*
X69538466Y-73486766D01*
X69365395Y-73558454D01*
X69181667Y-73595000D01*
X68994333Y-73595000D01*
X68810605Y-73558454D01*
X68637534Y-73486766D01*
X68560182Y-73435081D01*
X68481773Y-73382690D01*
X68349310Y-73250227D01*
X68245235Y-73094467D01*
X68245234Y-73094466D01*
X68173546Y-72921395D01*
X68137000Y-72737667D01*
X68137000Y-72550333D01*
X68173546Y-72366605D01*
X68245234Y-72193534D01*
X68349309Y-72037775D01*
X68349310Y-72037773D01*
X68481773Y-71905310D01*
X68637533Y-71801235D01*
X68637534Y-71801234D01*
X68810605Y-71729546D01*
X68994333Y-71693000D01*
X69181667Y-71693000D01*
X69365395Y-71729546D01*
X69365395Y-71729546D01*
G37*
G36*
X144828585Y-69852802D02*
G01*
X144978410Y-69882604D01*
X145260674Y-69999521D01*
X145514705Y-70169259D01*
X145730741Y-70385295D01*
X145900479Y-70639326D01*
X146017396Y-70921590D01*
X146077000Y-71221240D01*
X146077000Y-71526760D01*
X146017396Y-71826410D01*
X145900479Y-72108674D01*
X145730741Y-72362705D01*
X145514705Y-72578741D01*
X145260674Y-72748479D01*
X144978410Y-72865396D01*
X144828585Y-72895198D01*
X144678761Y-72925000D01*
X144373239Y-72925000D01*
X144223415Y-72895198D01*
X144073590Y-72865396D01*
X143791326Y-72748479D01*
X143537295Y-72578741D01*
X143321259Y-72362705D01*
X143151521Y-72108674D01*
X143034604Y-71826410D01*
X142975000Y-71526760D01*
X142975000Y-71221240D01*
X143034604Y-70921590D01*
X143151521Y-70639326D01*
X143321259Y-70385295D01*
X143537295Y-70169259D01*
X143791326Y-69999521D01*
X144073590Y-69882604D01*
X144223415Y-69852802D01*
X144373239Y-69823000D01*
X144678761Y-69823000D01*
X144828585Y-69852802D01*
X144828585Y-69852802D01*
G37*
G36*
X138997000Y-68899000D02*
G01*
X137371000Y-68899000D01*
X137371000Y-67273000D01*
X138997000Y-67273000D01*
X138997000Y-68899000D01*
X138997000Y-68899000D01*
G37*
G36*
X75997000Y-68899000D02*
G01*
X74371000Y-68899000D01*
X74371000Y-67273000D01*
X75997000Y-67273000D01*
X75997000Y-68899000D01*
X75997000Y-68899000D01*
G37*
G36*
X52434903Y-65345075D02*
G01*
X52535236Y-65386634D01*
X52662571Y-65439378D01*
X52867466Y-65576285D01*
X53041715Y-65750534D01*
X53178622Y-65955429D01*
X53272925Y-66183097D01*
X53321000Y-66424787D01*
X53321000Y-66671213D01*
X53272925Y-66912903D01*
X53178622Y-67140571D01*
X53041715Y-67345466D01*
X52867466Y-67519715D01*
X52662571Y-67656622D01*
X52662570Y-67656623D01*
X52662569Y-67656623D01*
X52434903Y-67750925D01*
X52193214Y-67799000D01*
X51946786Y-67799000D01*
X51705097Y-67750925D01*
X51477431Y-67656623D01*
X51477430Y-67656623D01*
X51477429Y-67656622D01*
X51272534Y-67519715D01*
X51098285Y-67345466D01*
X50961378Y-67140571D01*
X50867075Y-66912903D01*
X50819000Y-66671213D01*
X50819000Y-66424787D01*
X50867075Y-66183097D01*
X50961378Y-65955429D01*
X51098285Y-65750534D01*
X51272534Y-65576285D01*
X51477429Y-65439378D01*
X51604765Y-65386634D01*
X51705097Y-65345075D01*
X51946786Y-65297000D01*
X52193214Y-65297000D01*
X52434903Y-65345075D01*
X52434903Y-65345075D01*
G37*
G36*
X72635239Y-65315101D02*
G01*
X72871053Y-65386634D01*
X73088381Y-65502799D01*
X73278871Y-65659129D01*
X73435201Y-65849619D01*
X73551366Y-66066947D01*
X73622899Y-66302761D01*
X73647053Y-66548000D01*
X73622899Y-66793239D01*
X73551366Y-67029053D01*
X73435201Y-67246381D01*
X73278871Y-67436871D01*
X73088381Y-67593201D01*
X72871053Y-67709366D01*
X72635239Y-67780899D01*
X72451457Y-67799000D01*
X72328543Y-67799000D01*
X72144761Y-67780899D01*
X71908947Y-67709366D01*
X71691619Y-67593201D01*
X71501129Y-67436871D01*
X71344799Y-67246381D01*
X71228634Y-67029053D01*
X71157101Y-66793239D01*
X71132947Y-66548000D01*
X71157101Y-66302761D01*
X71228634Y-66066947D01*
X71344799Y-65849619D01*
X71501129Y-65659129D01*
X71691619Y-65502799D01*
X71908947Y-65386634D01*
X72144761Y-65315101D01*
X72328543Y-65297000D01*
X72451457Y-65297000D01*
X72635239Y-65315101D01*
X72635239Y-65315101D01*
G37*
G36*
X146077000Y-66829000D02*
G01*
X142975000Y-66829000D01*
X142975000Y-63727000D01*
X146077000Y-63727000D01*
X146077000Y-66829000D01*
X146077000Y-66829000D01*
G37*
G36*
X144828585Y-58676802D02*
G01*
X144978410Y-58706604D01*
X145260674Y-58823521D01*
X145514705Y-58993259D01*
X145730741Y-59209295D01*
X145900479Y-59463326D01*
X146017396Y-59745590D01*
X146077000Y-60045240D01*
X146077000Y-60350760D01*
X146017396Y-60650410D01*
X145900479Y-60932674D01*
X145730741Y-61186705D01*
X145514705Y-61402741D01*
X145260674Y-61572479D01*
X144978410Y-61689396D01*
X144828585Y-61719198D01*
X144678761Y-61749000D01*
X144373239Y-61749000D01*
X144223415Y-61719198D01*
X144073590Y-61689396D01*
X143791326Y-61572479D01*
X143537295Y-61402741D01*
X143321259Y-61186705D01*
X143151521Y-60932674D01*
X143034604Y-60650410D01*
X142975000Y-60350760D01*
X142975000Y-60045240D01*
X143034604Y-59745590D01*
X143151521Y-59463326D01*
X143321259Y-59209295D01*
X143537295Y-58993259D01*
X143791326Y-58823521D01*
X144073590Y-58706604D01*
X144223415Y-58676802D01*
X144373239Y-58647000D01*
X144678761Y-58647000D01*
X144828585Y-58676802D01*
X144828585Y-58676802D01*
G37*
G36*
X68646564Y-58425389D02*
G01*
X68837833Y-58504615D01*
X68837835Y-58504616D01*
X69009973Y-58619635D01*
X69156365Y-58766027D01*
X69271385Y-58938167D01*
X69350611Y-59129436D01*
X69391000Y-59332484D01*
X69391000Y-59539516D01*
X69350611Y-59742564D01*
X69349357Y-59745591D01*
X69271384Y-59933835D01*
X69156365Y-60105973D01*
X69009973Y-60252365D01*
X68837835Y-60367384D01*
X68837834Y-60367385D01*
X68837833Y-60367385D01*
X68646564Y-60446611D01*
X68443516Y-60487000D01*
X68236484Y-60487000D01*
X68033436Y-60446611D01*
X67842167Y-60367385D01*
X67842166Y-60367385D01*
X67842165Y-60367384D01*
X67670027Y-60252365D01*
X67523635Y-60105973D01*
X67408616Y-59933835D01*
X67330643Y-59745591D01*
X67329389Y-59742564D01*
X67289000Y-59539516D01*
X67289000Y-59332484D01*
X67329389Y-59129436D01*
X67408615Y-58938167D01*
X67523635Y-58766027D01*
X67670027Y-58619635D01*
X67842165Y-58504616D01*
X67842167Y-58504615D01*
X68033436Y-58425389D01*
X68236484Y-58385000D01*
X68443516Y-58385000D01*
X68646564Y-58425389D01*
X68646564Y-58425389D01*
G37*
G36*
X53646564Y-58425389D02*
G01*
X53837833Y-58504615D01*
X53837835Y-58504616D01*
X54009973Y-58619635D01*
X54156365Y-58766027D01*
X54271385Y-58938167D01*
X54350611Y-59129436D01*
X54391000Y-59332484D01*
X54391000Y-59539516D01*
X54350611Y-59742564D01*
X54349357Y-59745591D01*
X54271384Y-59933835D01*
X54156365Y-60105973D01*
X54009973Y-60252365D01*
X53837835Y-60367384D01*
X53837834Y-60367385D01*
X53837833Y-60367385D01*
X53646564Y-60446611D01*
X53443516Y-60487000D01*
X53236484Y-60487000D01*
X53033436Y-60446611D01*
X52842167Y-60367385D01*
X52842166Y-60367385D01*
X52842165Y-60367384D01*
X52670027Y-60252365D01*
X52523635Y-60105973D01*
X52408616Y-59933835D01*
X52330643Y-59745591D01*
X52329389Y-59742564D01*
X52289000Y-59539516D01*
X52289000Y-59332484D01*
X52329389Y-59129436D01*
X52408615Y-58938167D01*
X52523635Y-58766027D01*
X52670027Y-58619635D01*
X52842165Y-58504616D01*
X52842167Y-58504615D01*
X53033436Y-58425389D01*
X53236484Y-58385000D01*
X53443516Y-58385000D01*
X53646564Y-58425389D01*
X53646564Y-58425389D01*
G37*
G36*
X146077000Y-55907000D02*
G01*
X142975000Y-55907000D01*
X142975000Y-52805000D01*
X146077000Y-52805000D01*
X146077000Y-55907000D01*
X146077000Y-55907000D01*
G37*
G36*
X138997000Y-53899000D02*
G01*
X137371000Y-53899000D01*
X137371000Y-52273000D01*
X138997000Y-52273000D01*
X138997000Y-53899000D01*
X138997000Y-53899000D01*
G37*
G36*
X75997000Y-53899000D02*
G01*
X74371000Y-53899000D01*
X74371000Y-52273000D01*
X75997000Y-52273000D01*
X75997000Y-53899000D01*
X75997000Y-53899000D01*
G37*
G36*
X71401000Y-51081000D02*
G01*
X68299000Y-51081000D01*
X68299000Y-47979000D01*
X71401000Y-47979000D01*
X71401000Y-51081000D01*
X71401000Y-51081000D01*
G37*
G36*
X53388585Y-48008802D02*
G01*
X53538410Y-48038604D01*
X53820674Y-48155521D01*
X54074705Y-48325259D01*
X54290741Y-48541295D01*
X54460479Y-48795326D01*
X54577396Y-49077590D01*
X54637000Y-49377240D01*
X54637000Y-49682760D01*
X54577396Y-49982410D01*
X54460479Y-50264674D01*
X54290741Y-50518705D01*
X54074705Y-50734741D01*
X53820674Y-50904479D01*
X53538410Y-51021396D01*
X53388585Y-51051198D01*
X53238761Y-51081000D01*
X52933239Y-51081000D01*
X52783415Y-51051198D01*
X52633590Y-51021396D01*
X52351326Y-50904479D01*
X52097295Y-50734741D01*
X51881259Y-50518705D01*
X51711521Y-50264674D01*
X51594604Y-49982410D01*
X51535000Y-49682760D01*
X51535000Y-49377240D01*
X51594604Y-49077590D01*
X51711521Y-48795326D01*
X51881259Y-48541295D01*
X52097295Y-48325259D01*
X52351326Y-48155521D01*
X52633590Y-48038604D01*
X52783415Y-48008802D01*
X52933239Y-47979000D01*
X53238761Y-47979000D01*
X53388585Y-48008802D01*
X53388585Y-48008802D01*
G37*
G36*
X65072585Y-48008802D02*
G01*
X65222410Y-48038604D01*
X65504674Y-48155521D01*
X65758705Y-48325259D01*
X65974741Y-48541295D01*
X66144479Y-48795326D01*
X66261396Y-49077590D01*
X66321000Y-49377240D01*
X66321000Y-49682760D01*
X66261396Y-49982410D01*
X66144479Y-50264674D01*
X65974741Y-50518705D01*
X65758705Y-50734741D01*
X65504674Y-50904479D01*
X65222410Y-51021396D01*
X65072585Y-51051198D01*
X64922761Y-51081000D01*
X64617239Y-51081000D01*
X64467415Y-51051198D01*
X64317590Y-51021396D01*
X64035326Y-50904479D01*
X63781295Y-50734741D01*
X63565259Y-50518705D01*
X63395521Y-50264674D01*
X63278604Y-49982410D01*
X63219000Y-49682760D01*
X63219000Y-49377240D01*
X63278604Y-49077590D01*
X63395521Y-48795326D01*
X63565259Y-48541295D01*
X63781295Y-48325259D01*
X64035326Y-48155521D01*
X64317590Y-48038604D01*
X64467415Y-48008802D01*
X64617239Y-47979000D01*
X64922761Y-47979000D01*
X65072585Y-48008802D01*
X65072585Y-48008802D01*
G37*
G36*
X59717000Y-51081000D02*
G01*
X56615000Y-51081000D01*
X56615000Y-47979000D01*
X59717000Y-47979000D01*
X59717000Y-51081000D01*
X59717000Y-51081000D01*
G37*
G36*
X144828585Y-47754802D02*
G01*
X144978410Y-47784604D01*
X145260674Y-47901521D01*
X145514705Y-48071259D01*
X145730741Y-48287295D01*
X145900479Y-48541326D01*
X146017396Y-48823590D01*
X146077000Y-49123240D01*
X146077000Y-49428760D01*
X146017396Y-49728410D01*
X145900479Y-50010674D01*
X145730741Y-50264705D01*
X145514705Y-50480741D01*
X145260674Y-50650479D01*
X144978410Y-50767396D01*
X144828585Y-50797198D01*
X144678761Y-50827000D01*
X144373239Y-50827000D01*
X144223415Y-50797198D01*
X144073590Y-50767396D01*
X143791326Y-50650479D01*
X143537295Y-50480741D01*
X143321259Y-50264705D01*
X143151521Y-50010674D01*
X143034604Y-49728410D01*
X142975000Y-49428760D01*
X142975000Y-49123240D01*
X143034604Y-48823590D01*
X143151521Y-48541326D01*
X143321259Y-48287295D01*
X143537295Y-48071259D01*
X143791326Y-47901521D01*
X144073590Y-47784604D01*
X144223415Y-47754802D01*
X144373239Y-47725000D01*
X144678761Y-47725000D01*
X144828585Y-47754802D01*
X144828585Y-47754802D01*
G37*
M02*
