  0
SECTION
  2
HEADER
  9
$ANGBASE
  50
0.0
  9
$ANGDIR
  70
  1
  9
$MEASUREMENT
  70
0
  0
ENDSEC
  0
SECTION
  2
TABLES
  0
TABLE
  2
LTYPE
  70
4
  0
LTYPE
  5
40F
  2
CONTINUOUS
  70
0
  3
Solid line
  72
65
  73
0
  40
0.0
  0
LTYPE
  5
410
  2
DASHDOT
 70
0
  3
Dash Dot ____ _ ____ _
 72
65
 73
4
 40
2.0
 49
1.25
 49
-0.25
 49
0.25
 49
-0.25
  0
LTYPE
  5
411
  2
DASHED
 70
0
  3
Dashed __ __ __ __ __
 72
65
 73
2
 40
0.75
 49
0.5
 49
-0.25
  0
LTYPE
  5
43B
  2
DOTTED
 70
0
  3
Dotted .  .  .  .
 72
65
 73
2
 40
0.2
 49
0.0
 49
-0.2
  0
ENDTAB
  0
TABLE
  2
STYLE
  70
4
  0
STYLE
  2
KICAD
  70
0
  40
0
  41
1
  42
1
  50
0
  71
0
  3
isocp.shx
  0
STYLE
  2
KICADB
  70
0
  40
0
  41
1
  42
1
  50
0
  71
0
  3
isocp.shx
  0
STYLE
  2
KICADI
  70
0
  40
0
  41
1
  42
1
  50
15
  71
0
  3
isocp.shx
  0
STYLE
  2
KICADBI
  70
0
  40
0
  41
1
  42
1
  50
15
  71
0
  3
isocp.shx
  0
ENDTAB
  0
TABLE
  2
LAYER
  70
30
  0
LAYER
  2
BLACK
  70
0
  62
7
  6
CONTINUOUS
  0
LAYER
  2
GRAY1
  70
0
  62
251
  6
CONTINUOUS
  0
LAYER
  2
GRAY2
  70
0
  62
8
  6
CONTINUOUS
  0
LAYER
  2
GRAY3
  70
0
  62
9
  6
CONTINUOUS
  0
LAYER
  2
WHITE
  70
0
  62
7
  6
CONTINUOUS
  0
LAYER
  2
LYELLOW
  70
0
  62
51
  6
CONTINUOUS
  0
LAYER
  2
BLUE1
  70
0
  62
178
  6
CONTINUOUS
  0
LAYER
  2
GREEN1
  70
0
  62
98
  6
CONTINUOUS
  0
LAYER
  2
CYAN1
  70
0
  62
138
  6
CONTINUOUS
  0
LAYER
  2
RED1
  70
0
  62
18
  6
CONTINUOUS
  0
LAYER
  2
MAGENTA1
  70
0
  62
228
  6
CONTINUOUS
  0
LAYER
  2
BROWN1
  70
0
  62
58
  6
CONTINUOUS
  0
LAYER
  2
BLUE2
  70
0
  62
5
  6
CONTINUOUS
  0
LAYER
  2
GREEN2
  70
0
  62
3
  6
CONTINUOUS
  0
LAYER
  2
CYAN2
  70
0
  62
4
  6
CONTINUOUS
  0
LAYER
  2
RED2
  70
0
  62
1
  6
CONTINUOUS
  0
LAYER
  2
MAGENTA2
  70
0
  62
6
  6
CONTINUOUS
  0
LAYER
  2
BROWN2
  70
0
  62
54
  6
CONTINUOUS
  0
LAYER
  2
BLUE3
  70
0
  62
171
  6
CONTINUOUS
  0
LAYER
  2
GREEN3
  70
0
  62
91
  6
CONTINUOUS
  0
LAYER
  2
CYAN3
  70
0
  62
131
  6
CONTINUOUS
  0
LAYER
  2
RED3
  70
0
  62
11
  6
CONTINUOUS
  0
LAYER
  2
MAGENTA3
  70
0
  62
221
  6
CONTINUOUS
  0
LAYER
  2
YELLOW3
  70
0
  62
2
  6
CONTINUOUS
  0
LAYER
  2
BLUE4
  70
0
  62
5
  6
CONTINUOUS
  0
LAYER
  2
GREEN4
  70
0
  62
3
  6
CONTINUOUS
  0
LAYER
  2
CYAN4
  70
0
  62
4
  6
CONTINUOUS
  0
LAYER
  2
RED4
  70
0
  62
1
  6
CONTINUOUS
  0
LAYER
  2
MAGENTA4
  70
0
  62
6
  6
CONTINUOUS
  0
LAYER
  2
YELLOW4
  70
0
  62
2
  6
CONTINUOUS
  0
ENDTAB
  0
ENDSEC
  0
SECTION
  2
ENTITIES
0
LINE
8
BLACK
6
CONTINUOUS
10
48.3731
20
-92.1113
11
48.919
21
-92.3374
0
LINE
8
BLACK
6
CONTINUOUS
10
48.919
20
-92.3374
11
49.4104
21
-92.6657
0
LINE
8
BLACK
6
CONTINUOUS
10
49.4104
20
-92.6657
11
49.8283
21
-93.0836
0
LINE
8
BLACK
6
CONTINUOUS
10
49.8283
20
-93.0836
11
50.1566
21
-93.575
0
LINE
8
BLACK
6
CONTINUOUS
10
50.1566
20
-93.575
11
50.3827
21
-94.1209
0
LINE
8
BLACK
6
CONTINUOUS
10
50.3827
20
-94.1209
11
50.498
21
-94.7005
0
LINE
8
BLACK
6
CONTINUOUS
10
50.498
20
-94.7005
11
50.498
21
-95.2915
0
LINE
8
BLACK
6
CONTINUOUS
10
50.498
20
-95.2915
11
50.3827
21
-95.8711
0
LINE
8
BLACK
6
CONTINUOUS
10
50.3827
20
-95.8711
11
50.1566
21
-96.417
0
LINE
8
BLACK
6
CONTINUOUS
10
50.1566
20
-96.417
11
49.8283
21
-96.9084
0
LINE
8
BLACK
6
CONTINUOUS
10
49.8283
20
-96.9084
11
49.4104
21
-97.3263
0
LINE
8
BLACK
6
CONTINUOUS
10
49.4104
20
-97.3263
11
48.919
21
-97.6546
0
LINE
8
BLACK
6
CONTINUOUS
10
48.919
20
-97.6546
11
48.3731
21
-97.8807
0
LINE
8
BLACK
6
CONTINUOUS
10
48.3731
20
-97.8807
11
47.7935
21
-97.996
0
LINE
8
BLACK
6
CONTINUOUS
10
47.7935
20
-97.996
11
47.2025
21
-97.996
0
LINE
8
BLACK
6
CONTINUOUS
10
47.2025
20
-97.996
11
46.6229
21
-97.8807
0
LINE
8
BLACK
6
CONTINUOUS
10
46.6229
20
-97.8807
11
46.077
21
-97.6546
0
LINE
8
BLACK
6
CONTINUOUS
10
46.077
20
-97.6546
11
45.5856
21
-97.3263
0
LINE
8
BLACK
6
CONTINUOUS
10
45.5856
20
-97.3263
11
45.1677
21
-96.9084
0
LINE
8
BLACK
6
CONTINUOUS
10
45.1677
20
-96.9084
11
44.8394
21
-96.417
0
LINE
8
BLACK
6
CONTINUOUS
10
44.8394
20
-96.417
11
44.6133
21
-95.8711
0
LINE
8
BLACK
6
CONTINUOUS
10
44.6133
20
-95.8711
11
44.498
21
-95.2915
0
LINE
8
BLACK
6
CONTINUOUS
10
44.498
20
-95.2915
11
44.498
21
-94.7005
0
LINE
8
BLACK
6
CONTINUOUS
10
44.498
20
-94.7005
11
44.6133
21
-94.1209
0
LINE
8
BLACK
6
CONTINUOUS
10
44.6133
20
-94.1209
11
44.8394
21
-93.575
0
LINE
8
BLACK
6
CONTINUOUS
10
44.8394
20
-93.575
11
45.1677
21
-93.0836
0
LINE
8
BLACK
6
CONTINUOUS
10
45.1677
20
-93.0836
11
45.5856
21
-92.6657
0
LINE
8
BLACK
6
CONTINUOUS
10
45.5856
20
-92.6657
11
46.077
21
-92.3374
0
LINE
8
BLACK
6
CONTINUOUS
10
46.077
20
-92.3374
11
46.6229
21
-92.1113
0
LINE
8
BLACK
6
CONTINUOUS
10
46.6229
20
-92.1113
11
47.2025
21
-91.996
0
LINE
8
BLACK
6
CONTINUOUS
10
47.2025
20
-91.996
11
47.7935
21
-91.996
0
LINE
8
BLACK
6
CONTINUOUS
10
47.7935
20
-91.996
11
48.3731
21
-92.1113
0
LINE
8
BLACK
6
CONTINUOUS
10
98.5897
20
-95.5404
11
98.7717
21
-95.6158
0
LINE
8
BLACK
6
CONTINUOUS
10
98.7717
20
-95.6158
11
98.9355
21
-95.7252
0
LINE
8
BLACK
6
CONTINUOUS
10
98.9355
20
-95.7252
11
99.0748
21
-95.8645
0
LINE
8
BLACK
6
CONTINUOUS
10
99.0748
20
-95.8645
11
99.1842
21
-96.0283
0
LINE
8
BLACK
6
CONTINUOUS
10
99.1842
20
-96.0283
11
99.2596
21
-96.2103
0
LINE
8
BLACK
6
CONTINUOUS
10
99.2596
20
-96.2103
11
99.298
21
-96.4035
0
LINE
8
BLACK
6
CONTINUOUS
10
99.298
20
-96.4035
11
99.298
21
-96.6005
0
LINE
8
BLACK
6
CONTINUOUS
10
99.298
20
-96.6005
11
99.2596
21
-96.7937
0
LINE
8
BLACK
6
CONTINUOUS
10
99.2596
20
-96.7937
11
99.1842
21
-96.9757
0
LINE
8
BLACK
6
CONTINUOUS
10
99.1842
20
-96.9757
11
99.0748
21
-97.1395
0
LINE
8
BLACK
6
CONTINUOUS
10
99.0748
20
-97.1395
11
98.9355
21
-97.2788
0
LINE
8
BLACK
6
CONTINUOUS
10
98.9355
20
-97.2788
11
98.7717
21
-97.3882
0
LINE
8
BLACK
6
CONTINUOUS
10
98.7717
20
-97.3882
11
98.5897
21
-97.4636
0
LINE
8
BLACK
6
CONTINUOUS
10
98.5897
20
-97.4636
11
98.3965
21
-97.502
0
LINE
8
BLACK
6
CONTINUOUS
10
98.3965
20
-97.502
11
98.1995
21
-97.502
0
LINE
8
BLACK
6
CONTINUOUS
10
98.1995
20
-97.502
11
98.0063
21
-97.4636
0
LINE
8
BLACK
6
CONTINUOUS
10
98.0063
20
-97.4636
11
97.8243
21
-97.3882
0
LINE
8
BLACK
6
CONTINUOUS
10
97.8243
20
-97.3882
11
97.6605
21
-97.2788
0
LINE
8
BLACK
6
CONTINUOUS
10
97.6605
20
-97.2788
11
97.5212
21
-97.1395
0
LINE
8
BLACK
6
CONTINUOUS
10
97.5212
20
-97.1395
11
97.4118
21
-96.9757
0
LINE
8
BLACK
6
CONTINUOUS
10
97.4118
20
-96.9757
11
97.3364
21
-96.7937
0
LINE
8
BLACK
6
CONTINUOUS
10
97.3364
20
-96.7937
11
97.298
21
-96.6005
0
LINE
8
BLACK
6
CONTINUOUS
10
97.298
20
-96.6005
11
97.298
21
-96.4035
0
LINE
8
BLACK
6
CONTINUOUS
10
97.298
20
-96.4035
11
97.3364
21
-96.2103
0
LINE
8
BLACK
6
CONTINUOUS
10
97.3364
20
-96.2103
11
97.4118
21
-96.0283
0
LINE
8
BLACK
6
CONTINUOUS
10
97.4118
20
-96.0283
11
97.5212
21
-95.8645
0
LINE
8
BLACK
6
CONTINUOUS
10
97.5212
20
-95.8645
11
97.6605
21
-95.7252
0
LINE
8
BLACK
6
CONTINUOUS
10
97.6605
20
-95.7252
11
97.8243
21
-95.6158
0
LINE
8
BLACK
6
CONTINUOUS
10
97.8243
20
-95.6158
11
98.0063
21
-95.5404
0
LINE
8
BLACK
6
CONTINUOUS
10
98.0063
20
-95.5404
11
98.1995
21
-95.502
0
LINE
8
BLACK
6
CONTINUOUS
10
98.1995
20
-95.502
11
98.3965
21
-95.502
0
LINE
8
BLACK
6
CONTINUOUS
10
98.3965
20
-95.502
11
98.5897
21
-95.5404
0
LINE
8
BLACK
6
CONTINUOUS
10
138.59
20
-95.5404
11
138.772
21
-95.6158
0
LINE
8
BLACK
6
CONTINUOUS
10
138.772
20
-95.6158
11
138.935
21
-95.7252
0
LINE
8
BLACK
6
CONTINUOUS
10
138.935
20
-95.7252
11
139.075
21
-95.8645
0
LINE
8
BLACK
6
CONTINUOUS
10
139.075
20
-95.8645
11
139.184
21
-96.0283
0
LINE
8
BLACK
6
CONTINUOUS
10
139.184
20
-96.0283
11
139.26
21
-96.2103
0
LINE
8
BLACK
6
CONTINUOUS
10
139.26
20
-96.2103
11
139.298
21
-96.4035
0
LINE
8
BLACK
6
CONTINUOUS
10
139.298
20
-96.4035
11
139.298
21
-96.6005
0
LINE
8
BLACK
6
CONTINUOUS
10
139.298
20
-96.6005
11
139.26
21
-96.7937
0
LINE
8
BLACK
6
CONTINUOUS
10
139.26
20
-96.7937
11
139.184
21
-96.9757
0
LINE
8
BLACK
6
CONTINUOUS
10
139.184
20
-96.9757
11
139.075
21
-97.1395
0
LINE
8
BLACK
6
CONTINUOUS
10
139.075
20
-97.1395
11
138.935
21
-97.2788
0
LINE
8
BLACK
6
CONTINUOUS
10
138.935
20
-97.2788
11
138.772
21
-97.3882
0
LINE
8
BLACK
6
CONTINUOUS
10
138.772
20
-97.3882
11
138.59
21
-97.4636
0
LINE
8
BLACK
6
CONTINUOUS
10
138.59
20
-97.4636
11
138.396
21
-97.502
0
LINE
8
BLACK
6
CONTINUOUS
10
138.396
20
-97.502
11
138.2
21
-97.502
0
LINE
8
BLACK
6
CONTINUOUS
10
138.2
20
-97.502
11
138.006
21
-97.4636
0
LINE
8
BLACK
6
CONTINUOUS
10
138.006
20
-97.4636
11
137.824
21
-97.3882
0
LINE
8
BLACK
6
CONTINUOUS
10
137.824
20
-97.3882
11
137.661
21
-97.2788
0
LINE
8
BLACK
6
CONTINUOUS
10
137.661
20
-97.2788
11
137.521
21
-97.1395
0
LINE
8
BLACK
6
CONTINUOUS
10
137.521
20
-97.1395
11
137.412
21
-96.9757
0
LINE
8
BLACK
6
CONTINUOUS
10
137.412
20
-96.9757
11
137.336
21
-96.7937
0
LINE
8
BLACK
6
CONTINUOUS
10
137.336
20
-96.7937
11
137.298
21
-96.6005
0
LINE
8
BLACK
6
CONTINUOUS
10
137.298
20
-96.6005
11
137.298
21
-96.4035
0
LINE
8
BLACK
6
CONTINUOUS
10
137.298
20
-96.4035
11
137.336
21
-96.2103
0
LINE
8
BLACK
6
CONTINUOUS
10
137.336
20
-96.2103
11
137.412
21
-96.0283
0
LINE
8
BLACK
6
CONTINUOUS
10
137.412
20
-96.0283
11
137.521
21
-95.8645
0
LINE
8
BLACK
6
CONTINUOUS
10
137.521
20
-95.8645
11
137.661
21
-95.7252
0
LINE
8
BLACK
6
CONTINUOUS
10
137.661
20
-95.7252
11
137.824
21
-95.6158
0
LINE
8
BLACK
6
CONTINUOUS
10
137.824
20
-95.6158
11
138.006
21
-95.5404
0
LINE
8
BLACK
6
CONTINUOUS
10
138.006
20
-95.5404
11
138.2
21
-95.502
0
LINE
8
BLACK
6
CONTINUOUS
10
138.2
20
-95.502
11
138.396
21
-95.502
0
LINE
8
BLACK
6
CONTINUOUS
10
138.396
20
-95.502
11
138.59
21
-95.5404
0
LINE
8
BLACK
6
CONTINUOUS
10
93.8857
20
-95.5404
11
94.0677
21
-95.6158
0
LINE
8
BLACK
6
CONTINUOUS
10
94.0677
20
-95.6158
11
94.2315
21
-95.7252
0
LINE
8
BLACK
6
CONTINUOUS
10
94.2315
20
-95.7252
11
94.3708
21
-95.8645
0
LINE
8
BLACK
6
CONTINUOUS
10
94.3708
20
-95.8645
11
94.4802
21
-96.0283
0
LINE
8
BLACK
6
CONTINUOUS
10
94.4802
20
-96.0283
11
94.5556
21
-96.2103
0
LINE
8
BLACK
6
CONTINUOUS
10
94.5556
20
-96.2103
11
94.594
21
-96.4035
0
LINE
8
BLACK
6
CONTINUOUS
10
94.594
20
-96.4035
11
94.594
21
-96.6005
0
LINE
8
BLACK
6
CONTINUOUS
10
94.594
20
-96.6005
11
94.5556
21
-96.7937
0
LINE
8
BLACK
6
CONTINUOUS
10
94.5556
20
-96.7937
11
94.4802
21
-96.9757
0
LINE
8
BLACK
6
CONTINUOUS
10
94.4802
20
-96.9757
11
94.3708
21
-97.1395
0
LINE
8
BLACK
6
CONTINUOUS
10
94.3708
20
-97.1395
11
94.2315
21
-97.2788
0
LINE
8
BLACK
6
CONTINUOUS
10
94.2315
20
-97.2788
11
94.0677
21
-97.3882
0
LINE
8
BLACK
6
CONTINUOUS
10
94.0677
20
-97.3882
11
93.8857
21
-97.4636
0
LINE
8
BLACK
6
CONTINUOUS
10
93.8857
20
-97.4636
11
93.6925
21
-97.502
0
LINE
8
BLACK
6
CONTINUOUS
10
93.6925
20
-97.502
11
93.4955
21
-97.502
0
LINE
8
BLACK
6
CONTINUOUS
10
93.4955
20
-97.502
11
93.3023
21
-97.4636
0
LINE
8
BLACK
6
CONTINUOUS
10
93.3023
20
-97.4636
11
93.1203
21
-97.3882
0
LINE
8
BLACK
6
CONTINUOUS
10
93.1203
20
-97.3882
11
92.9565
21
-97.2788
0
LINE
8
BLACK
6
CONTINUOUS
10
92.9565
20
-97.2788
11
92.8172
21
-97.1395
0
LINE
8
BLACK
6
CONTINUOUS
10
92.8172
20
-97.1395
11
92.7078
21
-96.9757
0
LINE
8
BLACK
6
CONTINUOUS
10
92.7078
20
-96.9757
11
92.6324
21
-96.7937
0
LINE
8
BLACK
6
CONTINUOUS
10
92.6324
20
-96.7937
11
92.594
21
-96.6005
0
LINE
8
BLACK
6
CONTINUOUS
10
92.594
20
-96.6005
11
92.594
21
-96.4035
0
LINE
8
BLACK
6
CONTINUOUS
10
92.594
20
-96.4035
11
92.6324
21
-96.2103
0
LINE
8
BLACK
6
CONTINUOUS
10
92.6324
20
-96.2103
11
92.7078
21
-96.0283
0
LINE
8
BLACK
6
CONTINUOUS
10
92.7078
20
-96.0283
11
92.8172
21
-95.8645
0
LINE
8
BLACK
6
CONTINUOUS
10
92.8172
20
-95.8645
11
92.9565
21
-95.7252
0
LINE
8
BLACK
6
CONTINUOUS
10
92.9565
20
-95.7252
11
93.1203
21
-95.6158
0
LINE
8
BLACK
6
CONTINUOUS
10
93.1203
20
-95.6158
11
93.3023
21
-95.5404
0
LINE
8
BLACK
6
CONTINUOUS
10
93.3023
20
-95.5404
11
93.4955
21
-95.502
0
LINE
8
BLACK
6
CONTINUOUS
10
93.4955
20
-95.502
11
93.6925
21
-95.502
0
LINE
8
BLACK
6
CONTINUOUS
10
93.6925
20
-95.502
11
93.8857
21
-95.5404
0
LINE
8
BLACK
6
CONTINUOUS
10
53.8857
20
-95.5404
11
54.0677
21
-95.6158
0
LINE
8
BLACK
6
CONTINUOUS
10
54.0677
20
-95.6158
11
54.2315
21
-95.7252
0
LINE
8
BLACK
6
CONTINUOUS
10
54.2315
20
-95.7252
11
54.3708
21
-95.8645
0
LINE
8
BLACK
6
CONTINUOUS
10
54.3708
20
-95.8645
11
54.4802
21
-96.0283
0
LINE
8
BLACK
6
CONTINUOUS
10
54.4802
20
-96.0283
11
54.5556
21
-96.2103
0
LINE
8
BLACK
6
CONTINUOUS
10
54.5556
20
-96.2103
11
54.594
21
-96.4035
0
LINE
8
BLACK
6
CONTINUOUS
10
54.594
20
-96.4035
11
54.594
21
-96.6005
0
LINE
8
BLACK
6
CONTINUOUS
10
54.594
20
-96.6005
11
54.5556
21
-96.7937
0
LINE
8
BLACK
6
CONTINUOUS
10
54.5556
20
-96.7937
11
54.4802
21
-96.9757
0
LINE
8
BLACK
6
CONTINUOUS
10
54.4802
20
-96.9757
11
54.3708
21
-97.1395
0
LINE
8
BLACK
6
CONTINUOUS
10
54.3708
20
-97.1395
11
54.2315
21
-97.2788
0
LINE
8
BLACK
6
CONTINUOUS
10
54.2315
20
-97.2788
11
54.0677
21
-97.3882
0
LINE
8
BLACK
6
CONTINUOUS
10
54.0677
20
-97.3882
11
53.8857
21
-97.4636
0
LINE
8
BLACK
6
CONTINUOUS
10
53.8857
20
-97.4636
11
53.6925
21
-97.502
0
LINE
8
BLACK
6
CONTINUOUS
10
53.6925
20
-97.502
11
53.4955
21
-97.502
0
LINE
8
BLACK
6
CONTINUOUS
10
53.4955
20
-97.502
11
53.3023
21
-97.4636
0
LINE
8
BLACK
6
CONTINUOUS
10
53.3023
20
-97.4636
11
53.1203
21
-97.3882
0
LINE
8
BLACK
6
CONTINUOUS
10
53.1203
20
-97.3882
11
52.9565
21
-97.2788
0
LINE
8
BLACK
6
CONTINUOUS
10
52.9565
20
-97.2788
11
52.8172
21
-97.1395
0
LINE
8
BLACK
6
CONTINUOUS
10
52.8172
20
-97.1395
11
52.7078
21
-96.9757
0
LINE
8
BLACK
6
CONTINUOUS
10
52.7078
20
-96.9757
11
52.6324
21
-96.7937
0
LINE
8
BLACK
6
CONTINUOUS
10
52.6324
20
-96.7937
11
52.594
21
-96.6005
0
LINE
8
BLACK
6
CONTINUOUS
10
52.594
20
-96.6005
11
52.594
21
-96.4035
0
LINE
8
BLACK
6
CONTINUOUS
10
52.594
20
-96.4035
11
52.6324
21
-96.2103
0
LINE
8
BLACK
6
CONTINUOUS
10
52.6324
20
-96.2103
11
52.7078
21
-96.0283
0
LINE
8
BLACK
6
CONTINUOUS
10
52.7078
20
-96.0283
11
52.8172
21
-95.8645
0
LINE
8
BLACK
6
CONTINUOUS
10
52.8172
20
-95.8645
11
52.9565
21
-95.7252
0
LINE
8
BLACK
6
CONTINUOUS
10
52.9565
20
-95.7252
11
53.1203
21
-95.6158
0
LINE
8
BLACK
6
CONTINUOUS
10
53.1203
20
-95.6158
11
53.3023
21
-95.5404
0
LINE
8
BLACK
6
CONTINUOUS
10
53.3023
20
-95.5404
11
53.4955
21
-95.502
0
LINE
8
BLACK
6
CONTINUOUS
10
53.4955
20
-95.502
11
53.6925
21
-95.502
0
LINE
8
BLACK
6
CONTINUOUS
10
53.6925
20
-95.502
11
53.8857
21
-95.5404
0
LINE
8
BLACK
6
CONTINUOUS
10
145.909
20
-90.8413
11
146.455
21
-91.0674
0
LINE
8
BLACK
6
CONTINUOUS
10
146.455
20
-91.0674
11
146.946
21
-91.3957
0
LINE
8
BLACK
6
CONTINUOUS
10
146.946
20
-91.3957
11
147.364
21
-91.8136
0
LINE
8
BLACK
6
CONTINUOUS
10
147.364
20
-91.8136
11
147.693
21
-92.305
0
LINE
8
BLACK
6
CONTINUOUS
10
147.693
20
-92.305
11
147.919
21
-92.8509
0
LINE
8
BLACK
6
CONTINUOUS
10
147.919
20
-92.8509
11
148.034
21
-93.4305
0
LINE
8
BLACK
6
CONTINUOUS
10
148.034
20
-93.4305
11
148.034
21
-94.0215
0
LINE
8
BLACK
6
CONTINUOUS
10
148.034
20
-94.0215
11
147.919
21
-94.6011
0
LINE
8
BLACK
6
CONTINUOUS
10
147.919
20
-94.6011
11
147.693
21
-95.147
0
LINE
8
BLACK
6
CONTINUOUS
10
147.693
20
-95.147
11
147.364
21
-95.6384
0
LINE
8
BLACK
6
CONTINUOUS
10
147.364
20
-95.6384
11
146.946
21
-96.0563
0
LINE
8
BLACK
6
CONTINUOUS
10
146.946
20
-96.0563
11
146.455
21
-96.3846
0
LINE
8
BLACK
6
CONTINUOUS
10
146.455
20
-96.3846
11
145.909
21
-96.6107
0
LINE
8
BLACK
6
CONTINUOUS
10
145.909
20
-96.6107
11
145.329
21
-96.726
0
LINE
8
BLACK
6
CONTINUOUS
10
145.329
20
-96.726
11
144.739
21
-96.726
0
LINE
8
BLACK
6
CONTINUOUS
10
144.739
20
-96.726
11
144.159
21
-96.6107
0
LINE
8
BLACK
6
CONTINUOUS
10
144.159
20
-96.6107
11
143.613
21
-96.3846
0
LINE
8
BLACK
6
CONTINUOUS
10
143.613
20
-96.3846
11
143.122
21
-96.0563
0
LINE
8
BLACK
6
CONTINUOUS
10
143.122
20
-96.0563
11
142.704
21
-95.6384
0
LINE
8
BLACK
6
CONTINUOUS
10
142.704
20
-95.6384
11
142.375
21
-95.147
0
LINE
8
BLACK
6
CONTINUOUS
10
142.375
20
-95.147
11
142.149
21
-94.6011
0
LINE
8
BLACK
6
CONTINUOUS
10
142.149
20
-94.6011
11
142.034
21
-94.0215
0
LINE
8
BLACK
6
CONTINUOUS
10
142.034
20
-94.0215
11
142.034
21
-93.4305
0
LINE
8
BLACK
6
CONTINUOUS
10
142.034
20
-93.4305
11
142.149
21
-92.8509
0
LINE
8
BLACK
6
CONTINUOUS
10
142.149
20
-92.8509
11
142.375
21
-92.305
0
LINE
8
BLACK
6
CONTINUOUS
10
142.375
20
-92.305
11
142.704
21
-91.8136
0
LINE
8
BLACK
6
CONTINUOUS
10
142.704
20
-91.8136
11
143.122
21
-91.3957
0
LINE
8
BLACK
6
CONTINUOUS
10
143.122
20
-91.3957
11
143.613
21
-91.0674
0
LINE
8
BLACK
6
CONTINUOUS
10
143.613
20
-91.0674
11
144.159
21
-90.8413
0
LINE
8
BLACK
6
CONTINUOUS
10
144.159
20
-90.8413
11
144.739
21
-90.726
0
LINE
8
BLACK
6
CONTINUOUS
10
144.739
20
-90.726
11
145.329
21
-90.726
0
LINE
8
BLACK
6
CONTINUOUS
10
145.329
20
-90.726
11
145.909
21
-90.8413
0
LINE
8
BLACK
6
CONTINUOUS
10
146.026
20
-88.114
11
143.026
21
-88.114
0
LINE
8
BLACK
6
CONTINUOUS
10
143.026
20
-88.114
11
143.026
21
-85.114
0
LINE
8
BLACK
6
CONTINUOUS
10
143.026
20
-85.114
11
146.026
21
-85.114
0
LINE
8
BLACK
6
CONTINUOUS
10
146.026
20
-85.114
11
146.026
21
-88.114
0
LINE
8
BLACK
6
CONTINUOUS
10
144.964
20
-80.0916
11
145.237
21
-80.2047
0
LINE
8
BLACK
6
CONTINUOUS
10
145.237
20
-80.2047
11
145.482
21
-80.3689
0
LINE
8
BLACK
6
CONTINUOUS
10
145.482
20
-80.3689
11
145.691
21
-80.5778
0
LINE
8
BLACK
6
CONTINUOUS
10
145.691
20
-80.5778
11
145.855
21
-80.8235
0
LINE
8
BLACK
6
CONTINUOUS
10
145.855
20
-80.8235
11
145.968
21
-81.0965
0
LINE
8
BLACK
6
CONTINUOUS
10
145.968
20
-81.0965
11
146.026
21
-81.3863
0
LINE
8
BLACK
6
CONTINUOUS
10
146.026
20
-81.3863
11
146.026
21
-81.6817
0
LINE
8
BLACK
6
CONTINUOUS
10
146.026
20
-81.6817
11
145.968
21
-81.9715
0
LINE
8
BLACK
6
CONTINUOUS
10
145.968
20
-81.9715
11
145.855
21
-82.2445
0
LINE
8
BLACK
6
CONTINUOUS
10
145.855
20
-82.2445
11
145.691
21
-82.4902
0
LINE
8
BLACK
6
CONTINUOUS
10
145.691
20
-82.4902
11
145.482
21
-82.6991
0
LINE
8
BLACK
6
CONTINUOUS
10
145.482
20
-82.6991
11
145.237
21
-82.8633
0
LINE
8
BLACK
6
CONTINUOUS
10
145.237
20
-82.8633
11
144.964
21
-82.9764
0
LINE
8
BLACK
6
CONTINUOUS
10
144.964
20
-82.9764
11
144.674
21
-83.034
0
LINE
8
BLACK
6
CONTINUOUS
10
144.674
20
-83.034
11
144.378
21
-83.034
0
LINE
8
BLACK
6
CONTINUOUS
10
144.378
20
-83.034
11
144.088
21
-82.9764
0
LINE
8
BLACK
6
CONTINUOUS
10
144.088
20
-82.9764
11
143.815
21
-82.8633
0
LINE
8
BLACK
6
CONTINUOUS
10
143.815
20
-82.8633
11
143.57
21
-82.6991
0
LINE
8
BLACK
6
CONTINUOUS
10
143.57
20
-82.6991
11
143.361
21
-82.4902
0
LINE
8
BLACK
6
CONTINUOUS
10
143.361
20
-82.4902
11
143.197
21
-82.2445
0
LINE
8
BLACK
6
CONTINUOUS
10
143.197
20
-82.2445
11
143.084
21
-81.9715
0
LINE
8
BLACK
6
CONTINUOUS
10
143.084
20
-81.9715
11
143.026
21
-81.6817
0
LINE
8
BLACK
6
CONTINUOUS
10
143.026
20
-81.6817
11
143.026
21
-81.3863
0
LINE
8
BLACK
6
CONTINUOUS
10
143.026
20
-81.3863
11
143.084
21
-81.0965
0
LINE
8
BLACK
6
CONTINUOUS
10
143.084
20
-81.0965
11
143.197
21
-80.8235
0
LINE
8
BLACK
6
CONTINUOUS
10
143.197
20
-80.8235
11
143.361
21
-80.5778
0
LINE
8
BLACK
6
CONTINUOUS
10
143.361
20
-80.5778
11
143.57
21
-80.3689
0
LINE
8
BLACK
6
CONTINUOUS
10
143.57
20
-80.3689
11
143.815
21
-80.2047
0
LINE
8
BLACK
6
CONTINUOUS
10
143.815
20
-80.2047
11
144.088
21
-80.0916
0
LINE
8
BLACK
6
CONTINUOUS
10
144.088
20
-80.0916
11
144.378
21
-80.034
0
LINE
8
BLACK
6
CONTINUOUS
10
144.378
20
-80.034
11
144.674
21
-80.034
0
LINE
8
BLACK
6
CONTINUOUS
10
144.674
20
-80.034
11
144.964
21
-80.0916
0
LINE
8
BLACK
6
CONTINUOUS
10
93.8857
20
-78.5404
11
94.0677
21
-78.6158
0
LINE
8
BLACK
6
CONTINUOUS
10
94.0677
20
-78.6158
11
94.2315
21
-78.7252
0
LINE
8
BLACK
6
CONTINUOUS
10
94.2315
20
-78.7252
11
94.3708
21
-78.8645
0
LINE
8
BLACK
6
CONTINUOUS
10
94.3708
20
-78.8645
11
94.4802
21
-79.0283
0
LINE
8
BLACK
6
CONTINUOUS
10
94.4802
20
-79.0283
11
94.5556
21
-79.2103
0
LINE
8
BLACK
6
CONTINUOUS
10
94.5556
20
-79.2103
11
94.594
21
-79.4035
0
LINE
8
BLACK
6
CONTINUOUS
10
94.594
20
-79.4035
11
94.594
21
-79.6005
0
LINE
8
BLACK
6
CONTINUOUS
10
94.594
20
-79.6005
11
94.5556
21
-79.7937
0
LINE
8
BLACK
6
CONTINUOUS
10
94.5556
20
-79.7937
11
94.4802
21
-79.9757
0
LINE
8
BLACK
6
CONTINUOUS
10
94.4802
20
-79.9757
11
94.3708
21
-80.1395
0
LINE
8
BLACK
6
CONTINUOUS
10
94.3708
20
-80.1395
11
94.2315
21
-80.2788
0
LINE
8
BLACK
6
CONTINUOUS
10
94.2315
20
-80.2788
11
94.0677
21
-80.3882
0
LINE
8
BLACK
6
CONTINUOUS
10
94.0677
20
-80.3882
11
93.8857
21
-80.4636
0
LINE
8
BLACK
6
CONTINUOUS
10
93.8857
20
-80.4636
11
93.6925
21
-80.502
0
LINE
8
BLACK
6
CONTINUOUS
10
93.6925
20
-80.502
11
93.4955
21
-80.502
0
LINE
8
BLACK
6
CONTINUOUS
10
93.4955
20
-80.502
11
93.3023
21
-80.4636
0
LINE
8
BLACK
6
CONTINUOUS
10
93.3023
20
-80.4636
11
93.1203
21
-80.3882
0
LINE
8
BLACK
6
CONTINUOUS
10
93.1203
20
-80.3882
11
92.9565
21
-80.2788
0
LINE
8
BLACK
6
CONTINUOUS
10
92.9565
20
-80.2788
11
92.8172
21
-80.1395
0
LINE
8
BLACK
6
CONTINUOUS
10
92.8172
20
-80.1395
11
92.7078
21
-79.9757
0
LINE
8
BLACK
6
CONTINUOUS
10
92.7078
20
-79.9757
11
92.6324
21
-79.7937
0
LINE
8
BLACK
6
CONTINUOUS
10
92.6324
20
-79.7937
11
92.594
21
-79.6005
0
LINE
8
BLACK
6
CONTINUOUS
10
92.594
20
-79.6005
11
92.594
21
-79.4035
0
LINE
8
BLACK
6
CONTINUOUS
10
92.594
20
-79.4035
11
92.6324
21
-79.2103
0
LINE
8
BLACK
6
CONTINUOUS
10
92.6324
20
-79.2103
11
92.7078
21
-79.0283
0
LINE
8
BLACK
6
CONTINUOUS
10
92.7078
20
-79.0283
11
92.8172
21
-78.8645
0
LINE
8
BLACK
6
CONTINUOUS
10
92.8172
20
-78.8645
11
92.9565
21
-78.7252
0
LINE
8
BLACK
6
CONTINUOUS
10
92.9565
20
-78.7252
11
93.1203
21
-78.6158
0
LINE
8
BLACK
6
CONTINUOUS
10
93.1203
20
-78.6158
11
93.3023
21
-78.5404
0
LINE
8
BLACK
6
CONTINUOUS
10
93.3023
20
-78.5404
11
93.4955
21
-78.502
0
LINE
8
BLACK
6
CONTINUOUS
10
93.4955
20
-78.502
11
93.6925
21
-78.502
0
LINE
8
BLACK
6
CONTINUOUS
10
93.6925
20
-78.502
11
93.8857
21
-78.5404
0
LINE
8
BLACK
6
CONTINUOUS
10
98.5897
20
-78.5404
11
98.7717
21
-78.6158
0
LINE
8
BLACK
6
CONTINUOUS
10
98.7717
20
-78.6158
11
98.9355
21
-78.7252
0
LINE
8
BLACK
6
CONTINUOUS
10
98.9355
20
-78.7252
11
99.0748
21
-78.8645
0
LINE
8
BLACK
6
CONTINUOUS
10
99.0748
20
-78.8645
11
99.1842
21
-79.0283
0
LINE
8
BLACK
6
CONTINUOUS
10
99.1842
20
-79.0283
11
99.2596
21
-79.2103
0
LINE
8
BLACK
6
CONTINUOUS
10
99.2596
20
-79.2103
11
99.298
21
-79.4035
0
LINE
8
BLACK
6
CONTINUOUS
10
99.298
20
-79.4035
11
99.298
21
-79.6005
0
LINE
8
BLACK
6
CONTINUOUS
10
99.298
20
-79.6005
11
99.2596
21
-79.7937
0
LINE
8
BLACK
6
CONTINUOUS
10
99.2596
20
-79.7937
11
99.1842
21
-79.9757
0
LINE
8
BLACK
6
CONTINUOUS
10
99.1842
20
-79.9757
11
99.0748
21
-80.1395
0
LINE
8
BLACK
6
CONTINUOUS
10
99.0748
20
-80.1395
11
98.9355
21
-80.2788
0
LINE
8
BLACK
6
CONTINUOUS
10
98.9355
20
-80.2788
11
98.7717
21
-80.3882
0
LINE
8
BLACK
6
CONTINUOUS
10
98.7717
20
-80.3882
11
98.5897
21
-80.4636
0
LINE
8
BLACK
6
CONTINUOUS
10
98.5897
20
-80.4636
11
98.3965
21
-80.502
0
LINE
8
BLACK
6
CONTINUOUS
10
98.3965
20
-80.502
11
98.1995
21
-80.502
0
LINE
8
BLACK
6
CONTINUOUS
10
98.1995
20
-80.502
11
98.0063
21
-80.4636
0
LINE
8
BLACK
6
CONTINUOUS
10
98.0063
20
-80.4636
11
97.8243
21
-80.3882
0
LINE
8
BLACK
6
CONTINUOUS
10
97.8243
20
-80.3882
11
97.6605
21
-80.2788
0
LINE
8
BLACK
6
CONTINUOUS
10
97.6605
20
-80.2788
11
97.5212
21
-80.1395
0
LINE
8
BLACK
6
CONTINUOUS
10
97.5212
20
-80.1395
11
97.4118
21
-79.9757
0
LINE
8
BLACK
6
CONTINUOUS
10
97.4118
20
-79.9757
11
97.3364
21
-79.7937
0
LINE
8
BLACK
6
CONTINUOUS
10
97.3364
20
-79.7937
11
97.298
21
-79.6005
0
LINE
8
BLACK
6
CONTINUOUS
10
97.298
20
-79.6005
11
97.298
21
-79.4035
0
LINE
8
BLACK
6
CONTINUOUS
10
97.298
20
-79.4035
11
97.3364
21
-79.2103
0
LINE
8
BLACK
6
CONTINUOUS
10
97.3364
20
-79.2103
11
97.4118
21
-79.0283
0
LINE
8
BLACK
6
CONTINUOUS
10
97.4118
20
-79.0283
11
97.5212
21
-78.8645
0
LINE
8
BLACK
6
CONTINUOUS
10
97.5212
20
-78.8645
11
97.6605
21
-78.7252
0
LINE
8
BLACK
6
CONTINUOUS
10
97.6605
20
-78.7252
11
97.8243
21
-78.6158
0
LINE
8
BLACK
6
CONTINUOUS
10
97.8243
20
-78.6158
11
98.0063
21
-78.5404
0
LINE
8
BLACK
6
CONTINUOUS
10
98.0063
20
-78.5404
11
98.1995
21
-78.502
0
LINE
8
BLACK
6
CONTINUOUS
10
98.1995
20
-78.502
11
98.3965
21
-78.502
0
LINE
8
BLACK
6
CONTINUOUS
10
98.3965
20
-78.502
11
98.5897
21
-78.5404
0
LINE
8
BLACK
6
CONTINUOUS
10
138.59
20
-78.5404
11
138.772
21
-78.6158
0
LINE
8
BLACK
6
CONTINUOUS
10
138.772
20
-78.6158
11
138.935
21
-78.7252
0
LINE
8
BLACK
6
CONTINUOUS
10
138.935
20
-78.7252
11
139.075
21
-78.8645
0
LINE
8
BLACK
6
CONTINUOUS
10
139.075
20
-78.8645
11
139.184
21
-79.0283
0
LINE
8
BLACK
6
CONTINUOUS
10
139.184
20
-79.0283
11
139.26
21
-79.2103
0
LINE
8
BLACK
6
CONTINUOUS
10
139.26
20
-79.2103
11
139.298
21
-79.4035
0
LINE
8
BLACK
6
CONTINUOUS
10
139.298
20
-79.4035
11
139.298
21
-79.6005
0
LINE
8
BLACK
6
CONTINUOUS
10
139.298
20
-79.6005
11
139.26
21
-79.7937
0
LINE
8
BLACK
6
CONTINUOUS
10
139.26
20
-79.7937
11
139.184
21
-79.9757
0
LINE
8
BLACK
6
CONTINUOUS
10
139.184
20
-79.9757
11
139.075
21
-80.1395
0
LINE
8
BLACK
6
CONTINUOUS
10
139.075
20
-80.1395
11
138.935
21
-80.2788
0
LINE
8
BLACK
6
CONTINUOUS
10
138.935
20
-80.2788
11
138.772
21
-80.3882
0
LINE
8
BLACK
6
CONTINUOUS
10
138.772
20
-80.3882
11
138.59
21
-80.4636
0
LINE
8
BLACK
6
CONTINUOUS
10
138.59
20
-80.4636
11
138.396
21
-80.502
0
LINE
8
BLACK
6
CONTINUOUS
10
138.396
20
-80.502
11
138.2
21
-80.502
0
LINE
8
BLACK
6
CONTINUOUS
10
138.2
20
-80.502
11
138.006
21
-80.4636
0
LINE
8
BLACK
6
CONTINUOUS
10
138.006
20
-80.4636
11
137.824
21
-80.3882
0
LINE
8
BLACK
6
CONTINUOUS
10
137.824
20
-80.3882
11
137.661
21
-80.2788
0
LINE
8
BLACK
6
CONTINUOUS
10
137.661
20
-80.2788
11
137.521
21
-80.1395
0
LINE
8
BLACK
6
CONTINUOUS
10
137.521
20
-80.1395
11
137.412
21
-79.9757
0
LINE
8
BLACK
6
CONTINUOUS
10
137.412
20
-79.9757
11
137.336
21
-79.7937
0
LINE
8
BLACK
6
CONTINUOUS
10
137.336
20
-79.7937
11
137.298
21
-79.6005
0
LINE
8
BLACK
6
CONTINUOUS
10
137.298
20
-79.6005
11
137.298
21
-79.4035
0
LINE
8
BLACK
6
CONTINUOUS
10
137.298
20
-79.4035
11
137.336
21
-79.2103
0
LINE
8
BLACK
6
CONTINUOUS
10
137.336
20
-79.2103
11
137.412
21
-79.0283
0
LINE
8
BLACK
6
CONTINUOUS
10
137.412
20
-79.0283
11
137.521
21
-78.8645
0
LINE
8
BLACK
6
CONTINUOUS
10
137.521
20
-78.8645
11
137.661
21
-78.7252
0
LINE
8
BLACK
6
CONTINUOUS
10
137.661
20
-78.7252
11
137.824
21
-78.6158
0
LINE
8
BLACK
6
CONTINUOUS
10
137.824
20
-78.6158
11
138.006
21
-78.5404
0
LINE
8
BLACK
6
CONTINUOUS
10
138.006
20
-78.5404
11
138.2
21
-78.502
0
LINE
8
BLACK
6
CONTINUOUS
10
138.2
20
-78.502
11
138.396
21
-78.502
0
LINE
8
BLACK
6
CONTINUOUS
10
138.396
20
-78.502
11
138.59
21
-78.5404
0
LINE
8
BLACK
6
CONTINUOUS
10
53.8857
20
-78.5404
11
54.0677
21
-78.6158
0
LINE
8
BLACK
6
CONTINUOUS
10
54.0677
20
-78.6158
11
54.2315
21
-78.7252
0
LINE
8
BLACK
6
CONTINUOUS
10
54.2315
20
-78.7252
11
54.3708
21
-78.8645
0
LINE
8
BLACK
6
CONTINUOUS
10
54.3708
20
-78.8645
11
54.4802
21
-79.0283
0
LINE
8
BLACK
6
CONTINUOUS
10
54.4802
20
-79.0283
11
54.5556
21
-79.2103
0
LINE
8
BLACK
6
CONTINUOUS
10
54.5556
20
-79.2103
11
54.594
21
-79.4035
0
LINE
8
BLACK
6
CONTINUOUS
10
54.594
20
-79.4035
11
54.594
21
-79.6005
0
LINE
8
BLACK
6
CONTINUOUS
10
54.594
20
-79.6005
11
54.5556
21
-79.7937
0
LINE
8
BLACK
6
CONTINUOUS
10
54.5556
20
-79.7937
11
54.4802
21
-79.9757
0
LINE
8
BLACK
6
CONTINUOUS
10
54.4802
20
-79.9757
11
54.3708
21
-80.1395
0
LINE
8
BLACK
6
CONTINUOUS
10
54.3708
20
-80.1395
11
54.2315
21
-80.2788
0
LINE
8
BLACK
6
CONTINUOUS
10
54.2315
20
-80.2788
11
54.0677
21
-80.3882
0
LINE
8
BLACK
6
CONTINUOUS
10
54.0677
20
-80.3882
11
53.8857
21
-80.4636
0
LINE
8
BLACK
6
CONTINUOUS
10
53.8857
20
-80.4636
11
53.6925
21
-80.502
0
LINE
8
BLACK
6
CONTINUOUS
10
53.6925
20
-80.502
11
53.4955
21
-80.502
0
LINE
8
BLACK
6
CONTINUOUS
10
53.4955
20
-80.502
11
53.3023
21
-80.4636
0
LINE
8
BLACK
6
CONTINUOUS
10
53.3023
20
-80.4636
11
53.1203
21
-80.3882
0
LINE
8
BLACK
6
CONTINUOUS
10
53.1203
20
-80.3882
11
52.9565
21
-80.2788
0
LINE
8
BLACK
6
CONTINUOUS
10
52.9565
20
-80.2788
11
52.8172
21
-80.1395
0
LINE
8
BLACK
6
CONTINUOUS
10
52.8172
20
-80.1395
11
52.7078
21
-79.9757
0
LINE
8
BLACK
6
CONTINUOUS
10
52.7078
20
-79.9757
11
52.6324
21
-79.7937
0
LINE
8
BLACK
6
CONTINUOUS
10
52.6324
20
-79.7937
11
52.594
21
-79.6005
0
LINE
8
BLACK
6
CONTINUOUS
10
52.594
20
-79.6005
11
52.594
21
-79.4035
0
LINE
8
BLACK
6
CONTINUOUS
10
52.594
20
-79.4035
11
52.6324
21
-79.2103
0
LINE
8
BLACK
6
CONTINUOUS
10
52.6324
20
-79.2103
11
52.7078
21
-79.0283
0
LINE
8
BLACK
6
CONTINUOUS
10
52.7078
20
-79.0283
11
52.8172
21
-78.8645
0
LINE
8
BLACK
6
CONTINUOUS
10
52.8172
20
-78.8645
11
52.9565
21
-78.7252
0
LINE
8
BLACK
6
CONTINUOUS
10
52.9565
20
-78.7252
11
53.1203
21
-78.6158
0
LINE
8
BLACK
6
CONTINUOUS
10
53.1203
20
-78.6158
11
53.3023
21
-78.5404
0
LINE
8
BLACK
6
CONTINUOUS
10
53.3023
20
-78.5404
11
53.4955
21
-78.502
0
LINE
8
BLACK
6
CONTINUOUS
10
53.4955
20
-78.502
11
53.6925
21
-78.502
0
LINE
8
BLACK
6
CONTINUOUS
10
53.6925
20
-78.502
11
53.8857
21
-78.5404
0
LINE
8
BLACK
6
CONTINUOUS
10
144.964
20
-75.0116
11
145.237
21
-75.1247
0
LINE
8
BLACK
6
CONTINUOUS
10
145.237
20
-75.1247
11
145.482
21
-75.2889
0
LINE
8
BLACK
6
CONTINUOUS
10
145.482
20
-75.2889
11
145.691
21
-75.4978
0
LINE
8
BLACK
6
CONTINUOUS
10
145.691
20
-75.4978
11
145.855
21
-75.7435
0
LINE
8
BLACK
6
CONTINUOUS
10
145.855
20
-75.7435
11
145.968
21
-76.0165
0
LINE
8
BLACK
6
CONTINUOUS
10
145.968
20
-76.0165
11
146.026
21
-76.3063
0
LINE
8
BLACK
6
CONTINUOUS
10
146.026
20
-76.3063
11
146.026
21
-76.6017
0
LINE
8
BLACK
6
CONTINUOUS
10
146.026
20
-76.6017
11
145.968
21
-76.8915
0
LINE
8
BLACK
6
CONTINUOUS
10
145.968
20
-76.8915
11
145.855
21
-77.1645
0
LINE
8
BLACK
6
CONTINUOUS
10
145.855
20
-77.1645
11
145.691
21
-77.4102
0
LINE
8
BLACK
6
CONTINUOUS
10
145.691
20
-77.4102
11
145.482
21
-77.6191
0
LINE
8
BLACK
6
CONTINUOUS
10
145.482
20
-77.6191
11
145.237
21
-77.7833
0
LINE
8
BLACK
6
CONTINUOUS
10
145.237
20
-77.7833
11
144.964
21
-77.8964
0
LINE
8
BLACK
6
CONTINUOUS
10
144.964
20
-77.8964
11
144.674
21
-77.954
0
LINE
8
BLACK
6
CONTINUOUS
10
144.674
20
-77.954
11
144.378
21
-77.954
0
LINE
8
BLACK
6
CONTINUOUS
10
144.378
20
-77.954
11
144.088
21
-77.8964
0
LINE
8
BLACK
6
CONTINUOUS
10
144.088
20
-77.8964
11
143.815
21
-77.7833
0
LINE
8
BLACK
6
CONTINUOUS
10
143.815
20
-77.7833
11
143.57
21
-77.6191
0
LINE
8
BLACK
6
CONTINUOUS
10
143.57
20
-77.6191
11
143.361
21
-77.4102
0
LINE
8
BLACK
6
CONTINUOUS
10
143.361
20
-77.4102
11
143.197
21
-77.1645
0
LINE
8
BLACK
6
CONTINUOUS
10
143.197
20
-77.1645
11
143.084
21
-76.8915
0
LINE
8
BLACK
6
CONTINUOUS
10
143.084
20
-76.8915
11
143.026
21
-76.6017
0
LINE
8
BLACK
6
CONTINUOUS
10
143.026
20
-76.6017
11
143.026
21
-76.3063
0
LINE
8
BLACK
6
CONTINUOUS
10
143.026
20
-76.3063
11
143.084
21
-76.0165
0
LINE
8
BLACK
6
CONTINUOUS
10
143.084
20
-76.0165
11
143.197
21
-75.7435
0
LINE
8
BLACK
6
CONTINUOUS
10
143.197
20
-75.7435
11
143.361
21
-75.4978
0
LINE
8
BLACK
6
CONTINUOUS
10
143.361
20
-75.4978
11
143.57
21
-75.2889
0
LINE
8
BLACK
6
CONTINUOUS
10
143.57
20
-75.2889
11
143.815
21
-75.1247
0
LINE
8
BLACK
6
CONTINUOUS
10
143.815
20
-75.1247
11
144.088
21
-75.0116
0
LINE
8
BLACK
6
CONTINUOUS
10
144.088
20
-75.0116
11
144.378
21
-74.954
0
LINE
8
BLACK
6
CONTINUOUS
10
144.378
20
-74.954
11
144.674
21
-74.954
0
LINE
8
BLACK
6
CONTINUOUS
10
144.674
20
-74.954
11
144.964
21
-75.0116
0
LINE
8
BLACK
6
CONTINUOUS
10
69.988
20
-76.084
11
68.188
21
-76.084
0
LINE
8
BLACK
6
CONTINUOUS
10
68.188
20
-76.084
11
68.188
21
-74.284
0
LINE
8
BLACK
6
CONTINUOUS
10
68.188
20
-74.284
11
69.988
21
-74.284
0
LINE
8
BLACK
6
CONTINUOUS
10
69.988
20
-74.284
11
69.988
21
-76.084
0
LINE
8
BLACK
6
CONTINUOUS
10
69.3505
20
-71.7786
11
69.5143
21
-71.8464
0
LINE
8
BLACK
6
CONTINUOUS
10
69.5143
20
-71.8464
11
69.6617
21
-71.9449
0
LINE
8
BLACK
6
CONTINUOUS
10
69.6617
20
-71.9449
11
69.7871
21
-72.0703
0
LINE
8
BLACK
6
CONTINUOUS
10
69.7871
20
-72.0703
11
69.8856
21
-72.2177
0
LINE
8
BLACK
6
CONTINUOUS
10
69.8856
20
-72.2177
11
69.9534
21
-72.3815
0
LINE
8
BLACK
6
CONTINUOUS
10
69.9534
20
-72.3815
11
69.988
21
-72.5554
0
LINE
8
BLACK
6
CONTINUOUS
10
69.988
20
-72.5554
11
69.988
21
-72.7326
0
LINE
8
BLACK
6
CONTINUOUS
10
69.988
20
-72.7326
11
69.9534
21
-72.9065
0
LINE
8
BLACK
6
CONTINUOUS
10
69.9534
20
-72.9065
11
69.8856
21
-73.0703
0
LINE
8
BLACK
6
CONTINUOUS
10
69.8856
20
-73.0703
11
69.7871
21
-73.2177
0
LINE
8
BLACK
6
CONTINUOUS
10
69.7871
20
-73.2177
11
69.6617
21
-73.3431
0
LINE
8
BLACK
6
CONTINUOUS
10
69.6617
20
-73.3431
11
69.5143
21
-73.4416
0
LINE
8
BLACK
6
CONTINUOUS
10
69.5143
20
-73.4416
11
69.3505
21
-73.5094
0
LINE
8
BLACK
6
CONTINUOUS
10
69.3505
20
-73.5094
11
69.1766
21
-73.544
0
LINE
8
BLACK
6
CONTINUOUS
10
69.1766
20
-73.544
11
68.9994
21
-73.544
0
LINE
8
BLACK
6
CONTINUOUS
10
68.9994
20
-73.544
11
68.8255
21
-73.5094
0
LINE
8
BLACK
6
CONTINUOUS
10
68.8255
20
-73.5094
11
68.6617
21
-73.4416
0
LINE
8
BLACK
6
CONTINUOUS
10
68.6617
20
-73.4416
11
68.5143
21
-73.3431
0
LINE
8
BLACK
6
CONTINUOUS
10
68.5143
20
-73.3431
11
68.3889
21
-73.2177
0
LINE
8
BLACK
6
CONTINUOUS
10
68.3889
20
-73.2177
11
68.2904
21
-73.0703
0
LINE
8
BLACK
6
CONTINUOUS
10
68.2904
20
-73.0703
11
68.2226
21
-72.9065
0
LINE
8
BLACK
6
CONTINUOUS
10
68.2226
20
-72.9065
11
68.188
21
-72.7326
0
LINE
8
BLACK
6
CONTINUOUS
10
68.188
20
-72.7326
11
68.188
21
-72.5554
0
LINE
8
BLACK
6
CONTINUOUS
10
68.188
20
-72.5554
11
68.2226
21
-72.3815
0
LINE
8
BLACK
6
CONTINUOUS
10
68.2226
20
-72.3815
11
68.2904
21
-72.2177
0
LINE
8
BLACK
6
CONTINUOUS
10
68.2904
20
-72.2177
11
68.3889
21
-72.0703
0
LINE
8
BLACK
6
CONTINUOUS
10
68.3889
20
-72.0703
11
68.5143
21
-71.9449
0
LINE
8
BLACK
6
CONTINUOUS
10
68.5143
20
-71.9449
11
68.6617
21
-71.8464
0
LINE
8
BLACK
6
CONTINUOUS
10
68.6617
20
-71.8464
11
68.8255
21
-71.7786
0
LINE
8
BLACK
6
CONTINUOUS
10
68.8255
20
-71.7786
11
68.9994
21
-71.744
0
LINE
8
BLACK
6
CONTINUOUS
10
68.9994
20
-71.744
11
69.1766
21
-71.744
0
LINE
8
BLACK
6
CONTINUOUS
10
69.1766
20
-71.744
11
69.3505
21
-71.7786
0
LINE
8
BLACK
6
CONTINUOUS
10
144.964
20
-69.9316
11
145.237
21
-70.0447
0
LINE
8
BLACK
6
CONTINUOUS
10
145.237
20
-70.0447
11
145.482
21
-70.2089
0
LINE
8
BLACK
6
CONTINUOUS
10
145.482
20
-70.2089
11
145.691
21
-70.4178
0
LINE
8
BLACK
6
CONTINUOUS
10
145.691
20
-70.4178
11
145.855
21
-70.6635
0
LINE
8
BLACK
6
CONTINUOUS
10
145.855
20
-70.6635
11
145.968
21
-70.9365
0
LINE
8
BLACK
6
CONTINUOUS
10
145.968
20
-70.9365
11
146.026
21
-71.2263
0
LINE
8
BLACK
6
CONTINUOUS
10
146.026
20
-71.2263
11
146.026
21
-71.5217
0
LINE
8
BLACK
6
CONTINUOUS
10
146.026
20
-71.5217
11
145.968
21
-71.8115
0
LINE
8
BLACK
6
CONTINUOUS
10
145.968
20
-71.8115
11
145.855
21
-72.0845
0
LINE
8
BLACK
6
CONTINUOUS
10
145.855
20
-72.0845
11
145.691
21
-72.3302
0
LINE
8
BLACK
6
CONTINUOUS
10
145.691
20
-72.3302
11
145.482
21
-72.5391
0
LINE
8
BLACK
6
CONTINUOUS
10
145.482
20
-72.5391
11
145.237
21
-72.7033
0
LINE
8
BLACK
6
CONTINUOUS
10
145.237
20
-72.7033
11
144.964
21
-72.8164
0
LINE
8
BLACK
6
CONTINUOUS
10
144.964
20
-72.8164
11
144.674
21
-72.874
0
LINE
8
BLACK
6
CONTINUOUS
10
144.674
20
-72.874
11
144.378
21
-72.874
0
LINE
8
BLACK
6
CONTINUOUS
10
144.378
20
-72.874
11
144.088
21
-72.8164
0
LINE
8
BLACK
6
CONTINUOUS
10
144.088
20
-72.8164
11
143.815
21
-72.7033
0
LINE
8
BLACK
6
CONTINUOUS
10
143.815
20
-72.7033
11
143.57
21
-72.5391
0
LINE
8
BLACK
6
CONTINUOUS
10
143.57
20
-72.5391
11
143.361
21
-72.3302
0
LINE
8
BLACK
6
CONTINUOUS
10
143.361
20
-72.3302
11
143.197
21
-72.0845
0
LINE
8
BLACK
6
CONTINUOUS
10
143.197
20
-72.0845
11
143.084
21
-71.8115
0
LINE
8
BLACK
6
CONTINUOUS
10
143.084
20
-71.8115
11
143.026
21
-71.5217
0
LINE
8
BLACK
6
CONTINUOUS
10
143.026
20
-71.5217
11
143.026
21
-71.2263
0
LINE
8
BLACK
6
CONTINUOUS
10
143.026
20
-71.2263
11
143.084
21
-70.9365
0
LINE
8
BLACK
6
CONTINUOUS
10
143.084
20
-70.9365
11
143.197
21
-70.6635
0
LINE
8
BLACK
6
CONTINUOUS
10
143.197
20
-70.6635
11
143.361
21
-70.4178
0
LINE
8
BLACK
6
CONTINUOUS
10
143.361
20
-70.4178
11
143.57
21
-70.2089
0
LINE
8
BLACK
6
CONTINUOUS
10
143.57
20
-70.2089
11
143.815
21
-70.0447
0
LINE
8
BLACK
6
CONTINUOUS
10
143.815
20
-70.0447
11
144.088
21
-69.9316
0
LINE
8
BLACK
6
CONTINUOUS
10
144.088
20
-69.9316
11
144.378
21
-69.874
0
LINE
8
BLACK
6
CONTINUOUS
10
144.378
20
-69.874
11
144.674
21
-69.874
0
LINE
8
BLACK
6
CONTINUOUS
10
144.674
20
-69.874
11
144.964
21
-69.9316
0
LINE
8
BLACK
6
CONTINUOUS
10
138.946
20
-68.848
11
137.422
21
-68.848
0
LINE
8
BLACK
6
CONTINUOUS
10
137.422
20
-68.848
11
137.422
21
-67.324
0
LINE
8
BLACK
6
CONTINUOUS
10
137.422
20
-67.324
11
138.946
21
-67.324
0
LINE
8
BLACK
6
CONTINUOUS
10
138.946
20
-67.324
11
138.946
21
-68.848
0
LINE
8
BLACK
6
CONTINUOUS
10
75.946
20
-68.848
11
74.422
21
-68.848
0
LINE
8
BLACK
6
CONTINUOUS
10
74.422
20
-68.848
11
74.422
21
-67.324
0
LINE
8
BLACK
6
CONTINUOUS
10
74.422
20
-67.324
11
75.946
21
-67.324
0
LINE
8
BLACK
6
CONTINUOUS
10
75.946
20
-67.324
11
75.946
21
-68.848
0
LINE
8
BLACK
6
CONTINUOUS
10
52.42
20
-65.3941
11
52.6384
21
-65.4846
0
LINE
8
BLACK
6
CONTINUOUS
10
52.6384
20
-65.4846
11
52.835
21
-65.6159
0
LINE
8
BLACK
6
CONTINUOUS
10
52.835
20
-65.6159
11
53.0021
21
-65.783
0
LINE
8
BLACK
6
CONTINUOUS
10
53.0021
20
-65.783
11
53.1334
21
-65.9796
0
LINE
8
BLACK
6
CONTINUOUS
10
53.1334
20
-65.9796
11
53.2239
21
-66.198
0
LINE
8
BLACK
6
CONTINUOUS
10
53.2239
20
-66.198
11
53.27
21
-66.4298
0
LINE
8
BLACK
6
CONTINUOUS
10
53.27
20
-66.4298
11
53.27
21
-66.6662
0
LINE
8
BLACK
6
CONTINUOUS
10
53.27
20
-66.6662
11
53.2239
21
-66.898
0
LINE
8
BLACK
6
CONTINUOUS
10
53.2239
20
-66.898
11
53.1334
21
-67.1164
0
LINE
8
BLACK
6
CONTINUOUS
10
53.1334
20
-67.1164
11
53.0021
21
-67.313
0
LINE
8
BLACK
6
CONTINUOUS
10
53.0021
20
-67.313
11
52.835
21
-67.4801
0
LINE
8
BLACK
6
CONTINUOUS
10
52.835
20
-67.4801
11
52.6384
21
-67.6114
0
LINE
8
BLACK
6
CONTINUOUS
10
52.6384
20
-67.6114
11
52.42
21
-67.7019
0
LINE
8
BLACK
6
CONTINUOUS
10
52.42
20
-67.7019
11
52.1882
21
-67.748
0
LINE
8
BLACK
6
CONTINUOUS
10
52.1882
20
-67.748
11
51.9518
21
-67.748
0
LINE
8
BLACK
6
CONTINUOUS
10
51.9518
20
-67.748
11
51.72
21
-67.7019
0
LINE
8
BLACK
6
CONTINUOUS
10
51.72
20
-67.7019
11
51.5016
21
-67.6114
0
LINE
8
BLACK
6
CONTINUOUS
10
51.5016
20
-67.6114
11
51.305
21
-67.4801
0
LINE
8
BLACK
6
CONTINUOUS
10
51.305
20
-67.4801
11
51.1379
21
-67.313
0
LINE
8
BLACK
6
CONTINUOUS
10
51.1379
20
-67.313
11
51.0066
21
-67.1164
0
LINE
8
BLACK
6
CONTINUOUS
10
51.0066
20
-67.1164
11
50.9161
21
-66.898
0
LINE
8
BLACK
6
CONTINUOUS
10
50.9161
20
-66.898
11
50.87
21
-66.6662
0
LINE
8
BLACK
6
CONTINUOUS
10
50.87
20
-66.6662
11
50.87
21
-66.4298
0
LINE
8
BLACK
6
CONTINUOUS
10
50.87
20
-66.4298
11
50.9161
21
-66.198
0
LINE
8
BLACK
6
CONTINUOUS
10
50.9161
20
-66.198
11
51.0066
21
-65.9796
0
LINE
8
BLACK
6
CONTINUOUS
10
51.0066
20
-65.9796
11
51.1379
21
-65.783
0
LINE
8
BLACK
6
CONTINUOUS
10
51.1379
20
-65.783
11
51.305
21
-65.6159
0
LINE
8
BLACK
6
CONTINUOUS
10
51.305
20
-65.6159
11
51.5016
21
-65.4846
0
LINE
8
BLACK
6
CONTINUOUS
10
51.5016
20
-65.4846
11
51.72
21
-65.3941
0
LINE
8
BLACK
6
CONTINUOUS
10
51.72
20
-65.3941
11
51.9518
21
-65.348
0
LINE
8
BLACK
6
CONTINUOUS
10
51.9518
20
-65.348
11
52.1882
21
-65.348
0
LINE
8
BLACK
6
CONTINUOUS
10
52.1882
20
-65.348
11
52.42
21
-65.3941
0
LINE
8
BLACK
6
CONTINUOUS
10
72.6252
20
-65.3654
11
72.8514
21
-65.434
0
LINE
8
BLACK
6
CONTINUOUS
10
72.8514
20
-65.434
11
73.0599
21
-65.5454
0
LINE
8
BLACK
6
CONTINUOUS
10
73.0599
20
-65.5454
11
73.2426
21
-65.6954
0
LINE
8
BLACK
6
CONTINUOUS
10
73.2426
20
-65.6954
11
73.3926
21
-65.8781
0
LINE
8
BLACK
6
CONTINUOUS
10
73.3926
20
-65.8781
11
73.504
21
-66.0866
0
LINE
8
BLACK
6
CONTINUOUS
10
73.504
20
-66.0866
11
73.5726
21
-66.3128
0
LINE
8
BLACK
6
CONTINUOUS
10
73.5726
20
-66.3128
11
73.5958
21
-66.548
0
LINE
8
BLACK
6
CONTINUOUS
10
73.5958
20
-66.548
11
73.5726
21
-66.7832
0
LINE
8
BLACK
6
CONTINUOUS
10
73.5726
20
-66.7832
11
73.504
21
-67.0094
0
LINE
8
BLACK
6
CONTINUOUS
10
73.504
20
-67.0094
11
73.3926
21
-67.2179
0
LINE
8
BLACK
6
CONTINUOUS
10
73.3926
20
-67.2179
11
73.2426
21
-67.4006
0
LINE
8
BLACK
6
CONTINUOUS
10
73.2426
20
-67.4006
11
73.0599
21
-67.5506
0
LINE
8
BLACK
6
CONTINUOUS
10
73.0599
20
-67.5506
11
72.8514
21
-67.662
0
LINE
8
BLACK
6
CONTINUOUS
10
72.8514
20
-67.662
11
72.6252
21
-67.7306
0
LINE
8
BLACK
6
CONTINUOUS
10
72.6252
20
-67.7306
11
72.4489
21
-67.748
0
LINE
8
BLACK
6
CONTINUOUS
10
72.4489
20
-67.748
11
72.331
21
-67.748
0
LINE
8
BLACK
6
CONTINUOUS
10
72.331
20
-67.748
11
72.1548
21
-67.7306
0
LINE
8
BLACK
6
CONTINUOUS
10
72.1548
20
-67.7306
11
71.9286
21
-67.662
0
LINE
8
BLACK
6
CONTINUOUS
10
71.9286
20
-67.662
11
71.7201
21
-67.5506
0
LINE
8
BLACK
6
CONTINUOUS
10
71.7201
20
-67.5506
11
71.5374
21
-67.4006
0
LINE
8
BLACK
6
CONTINUOUS
10
71.5374
20
-67.4006
11
71.3874
21
-67.2179
0
LINE
8
BLACK
6
CONTINUOUS
10
71.3874
20
-67.2179
11
71.276
21
-67.0094
0
LINE
8
BLACK
6
CONTINUOUS
10
71.276
20
-67.0094
11
71.2074
21
-66.7832
0
LINE
8
BLACK
6
CONTINUOUS
10
71.2074
20
-66.7832
11
71.1842
21
-66.548
0
LINE
8
BLACK
6
CONTINUOUS
10
71.1842
20
-66.548
11
71.2074
21
-66.3128
0
LINE
8
BLACK
6
CONTINUOUS
10
71.2074
20
-66.3128
11
71.276
21
-66.0866
0
LINE
8
BLACK
6
CONTINUOUS
10
71.276
20
-66.0866
11
71.3874
21
-65.8781
0
LINE
8
BLACK
6
CONTINUOUS
10
71.3874
20
-65.8781
11
71.5374
21
-65.6954
0
LINE
8
BLACK
6
CONTINUOUS
10
71.5374
20
-65.6954
11
71.7201
21
-65.5454
0
LINE
8
BLACK
6
CONTINUOUS
10
71.7201
20
-65.5454
11
71.9286
21
-65.434
0
LINE
8
BLACK
6
CONTINUOUS
10
71.9286
20
-65.434
11
72.1548
21
-65.3654
0
LINE
8
BLACK
6
CONTINUOUS
10
72.1548
20
-65.3654
11
72.331
21
-65.348
0
LINE
8
BLACK
6
CONTINUOUS
10
72.331
20
-65.348
11
72.4489
21
-65.348
0
LINE
8
BLACK
6
CONTINUOUS
10
72.4489
20
-65.348
11
72.6252
21
-65.3654
0
LINE
8
BLACK
6
CONTINUOUS
10
146.026
20
-66.778
11
143.026
21
-66.778
0
LINE
8
BLACK
6
CONTINUOUS
10
143.026
20
-66.778
11
143.026
21
-63.778
0
LINE
8
BLACK
6
CONTINUOUS
10
143.026
20
-63.778
11
146.026
21
-63.778
0
LINE
8
BLACK
6
CONTINUOUS
10
146.026
20
-63.778
11
146.026
21
-66.778
0
LINE
8
BLACK
6
CONTINUOUS
10
144.964
20
-58.7556
11
145.237
21
-58.8687
0
LINE
8
BLACK
6
CONTINUOUS
10
145.237
20
-58.8687
11
145.482
21
-59.0329
0
LINE
8
BLACK
6
CONTINUOUS
10
145.482
20
-59.0329
11
145.691
21
-59.2418
0
LINE
8
BLACK
6
CONTINUOUS
10
145.691
20
-59.2418
11
145.855
21
-59.4875
0
LINE
8
BLACK
6
CONTINUOUS
10
145.855
20
-59.4875
11
145.968
21
-59.7605
0
LINE
8
BLACK
6
CONTINUOUS
10
145.968
20
-59.7605
11
146.026
21
-60.0503
0
LINE
8
BLACK
6
CONTINUOUS
10
146.026
20
-60.0503
11
146.026
21
-60.3457
0
LINE
8
BLACK
6
CONTINUOUS
10
146.026
20
-60.3457
11
145.968
21
-60.6355
0
LINE
8
BLACK
6
CONTINUOUS
10
145.968
20
-60.6355
11
145.855
21
-60.9085
0
LINE
8
BLACK
6
CONTINUOUS
10
145.855
20
-60.9085
11
145.691
21
-61.1542
0
LINE
8
BLACK
6
CONTINUOUS
10
145.691
20
-61.1542
11
145.482
21
-61.3631
0
LINE
8
BLACK
6
CONTINUOUS
10
145.482
20
-61.3631
11
145.237
21
-61.5273
0
LINE
8
BLACK
6
CONTINUOUS
10
145.237
20
-61.5273
11
144.964
21
-61.6404
0
LINE
8
BLACK
6
CONTINUOUS
10
144.964
20
-61.6404
11
144.674
21
-61.698
0
LINE
8
BLACK
6
CONTINUOUS
10
144.674
20
-61.698
11
144.378
21
-61.698
0
LINE
8
BLACK
6
CONTINUOUS
10
144.378
20
-61.698
11
144.088
21
-61.6404
0
LINE
8
BLACK
6
CONTINUOUS
10
144.088
20
-61.6404
11
143.815
21
-61.5273
0
LINE
8
BLACK
6
CONTINUOUS
10
143.815
20
-61.5273
11
143.57
21
-61.3631
0
LINE
8
BLACK
6
CONTINUOUS
10
143.57
20
-61.3631
11
143.361
21
-61.1542
0
LINE
8
BLACK
6
CONTINUOUS
10
143.361
20
-61.1542
11
143.197
21
-60.9085
0
LINE
8
BLACK
6
CONTINUOUS
10
143.197
20
-60.9085
11
143.084
21
-60.6355
0
LINE
8
BLACK
6
CONTINUOUS
10
143.084
20
-60.6355
11
143.026
21
-60.3457
0
LINE
8
BLACK
6
CONTINUOUS
10
143.026
20
-60.3457
11
143.026
21
-60.0503
0
LINE
8
BLACK
6
CONTINUOUS
10
143.026
20
-60.0503
11
143.084
21
-59.7605
0
LINE
8
BLACK
6
CONTINUOUS
10
143.084
20
-59.7605
11
143.197
21
-59.4875
0
LINE
8
BLACK
6
CONTINUOUS
10
143.197
20
-59.4875
11
143.361
21
-59.2418
0
LINE
8
BLACK
6
CONTINUOUS
10
143.361
20
-59.2418
11
143.57
21
-59.0329
0
LINE
8
BLACK
6
CONTINUOUS
10
143.57
20
-59.0329
11
143.815
21
-58.8687
0
LINE
8
BLACK
6
CONTINUOUS
10
143.815
20
-58.8687
11
144.088
21
-58.7556
0
LINE
8
BLACK
6
CONTINUOUS
10
144.088
20
-58.7556
11
144.378
21
-58.698
0
LINE
8
BLACK
6
CONTINUOUS
10
144.378
20
-58.698
11
144.674
21
-58.698
0
LINE
8
BLACK
6
CONTINUOUS
10
144.674
20
-58.698
11
144.964
21
-58.7556
0
LINE
8
BLACK
6
CONTINUOUS
10
68.6317
20
-58.4744
11
68.8137
21
-58.5498
0
LINE
8
BLACK
6
CONTINUOUS
10
68.8137
20
-58.5498
11
68.9775
21
-58.6592
0
LINE
8
BLACK
6
CONTINUOUS
10
68.9775
20
-58.6592
11
69.1168
21
-58.7985
0
LINE
8
BLACK
6
CONTINUOUS
10
69.1168
20
-58.7985
11
69.2262
21
-58.9623
0
LINE
8
BLACK
6
CONTINUOUS
10
69.2262
20
-58.9623
11
69.3016
21
-59.1443
0
LINE
8
BLACK
6
CONTINUOUS
10
69.3016
20
-59.1443
11
69.34
21
-59.3375
0
LINE
8
BLACK
6
CONTINUOUS
10
69.34
20
-59.3375
11
69.34
21
-59.5345
0
LINE
8
BLACK
6
CONTINUOUS
10
69.34
20
-59.5345
11
69.3016
21
-59.7277
0
LINE
8
BLACK
6
CONTINUOUS
10
69.3016
20
-59.7277
11
69.2262
21
-59.9097
0
LINE
8
BLACK
6
CONTINUOUS
10
69.2262
20
-59.9097
11
69.1168
21
-60.0735
0
LINE
8
BLACK
6
CONTINUOUS
10
69.1168
20
-60.0735
11
68.9775
21
-60.2128
0
LINE
8
BLACK
6
CONTINUOUS
10
68.9775
20
-60.2128
11
68.8137
21
-60.3222
0
LINE
8
BLACK
6
CONTINUOUS
10
68.8137
20
-60.3222
11
68.6317
21
-60.3976
0
LINE
8
BLACK
6
CONTINUOUS
10
68.6317
20
-60.3976
11
68.4385
21
-60.436
0
LINE
8
BLACK
6
CONTINUOUS
10
68.4385
20
-60.436
11
68.2415
21
-60.436
0
LINE
8
BLACK
6
CONTINUOUS
10
68.2415
20
-60.436
11
68.0483
21
-60.3976
0
LINE
8
BLACK
6
CONTINUOUS
10
68.0483
20
-60.3976
11
67.8663
21
-60.3222
0
LINE
8
BLACK
6
CONTINUOUS
10
67.8663
20
-60.3222
11
67.7025
21
-60.2128
0
LINE
8
BLACK
6
CONTINUOUS
10
67.7025
20
-60.2128
11
67.5632
21
-60.0735
0
LINE
8
BLACK
6
CONTINUOUS
10
67.5632
20
-60.0735
11
67.4538
21
-59.9097
0
LINE
8
BLACK
6
CONTINUOUS
10
67.4538
20
-59.9097
11
67.3784
21
-59.7277
0
LINE
8
BLACK
6
CONTINUOUS
10
67.3784
20
-59.7277
11
67.34
21
-59.5345
0
LINE
8
BLACK
6
CONTINUOUS
10
67.34
20
-59.5345
11
67.34
21
-59.3375
0
LINE
8
BLACK
6
CONTINUOUS
10
67.34
20
-59.3375
11
67.3784
21
-59.1443
0
LINE
8
BLACK
6
CONTINUOUS
10
67.3784
20
-59.1443
11
67.4538
21
-58.9623
0
LINE
8
BLACK
6
CONTINUOUS
10
67.4538
20
-58.9623
11
67.5632
21
-58.7985
0
LINE
8
BLACK
6
CONTINUOUS
10
67.5632
20
-58.7985
11
67.7025
21
-58.6592
0
LINE
8
BLACK
6
CONTINUOUS
10
67.7025
20
-58.6592
11
67.8663
21
-58.5498
0
LINE
8
BLACK
6
CONTINUOUS
10
67.8663
20
-58.5498
11
68.0483
21
-58.4744
0
LINE
8
BLACK
6
CONTINUOUS
10
68.0483
20
-58.4744
11
68.2415
21
-58.436
0
LINE
8
BLACK
6
CONTINUOUS
10
68.2415
20
-58.436
11
68.4385
21
-58.436
0
LINE
8
BLACK
6
CONTINUOUS
10
68.4385
20
-58.436
11
68.6317
21
-58.4744
0
LINE
8
BLACK
6
CONTINUOUS
10
53.6317
20
-58.4744
11
53.8137
21
-58.5498
0
LINE
8
BLACK
6
CONTINUOUS
10
53.8137
20
-58.5498
11
53.9775
21
-58.6592
0
LINE
8
BLACK
6
CONTINUOUS
10
53.9775
20
-58.6592
11
54.1168
21
-58.7985
0
LINE
8
BLACK
6
CONTINUOUS
10
54.1168
20
-58.7985
11
54.2262
21
-58.9623
0
LINE
8
BLACK
6
CONTINUOUS
10
54.2262
20
-58.9623
11
54.3016
21
-59.1443
0
LINE
8
BLACK
6
CONTINUOUS
10
54.3016
20
-59.1443
11
54.34
21
-59.3375
0
LINE
8
BLACK
6
CONTINUOUS
10
54.34
20
-59.3375
11
54.34
21
-59.5345
0
LINE
8
BLACK
6
CONTINUOUS
10
54.34
20
-59.5345
11
54.3016
21
-59.7277
0
LINE
8
BLACK
6
CONTINUOUS
10
54.3016
20
-59.7277
11
54.2262
21
-59.9097
0
LINE
8
BLACK
6
CONTINUOUS
10
54.2262
20
-59.9097
11
54.1168
21
-60.0735
0
LINE
8
BLACK
6
CONTINUOUS
10
54.1168
20
-60.0735
11
53.9775
21
-60.2128
0
LINE
8
BLACK
6
CONTINUOUS
10
53.9775
20
-60.2128
11
53.8137
21
-60.3222
0
LINE
8
BLACK
6
CONTINUOUS
10
53.8137
20
-60.3222
11
53.6317
21
-60.3976
0
LINE
8
BLACK
6
CONTINUOUS
10
53.6317
20
-60.3976
11
53.4385
21
-60.436
0
LINE
8
BLACK
6
CONTINUOUS
10
53.4385
20
-60.436
11
53.2415
21
-60.436
0
LINE
8
BLACK
6
CONTINUOUS
10
53.2415
20
-60.436
11
53.0483
21
-60.3976
0
LINE
8
BLACK
6
CONTINUOUS
10
53.0483
20
-60.3976
11
52.8663
21
-60.3222
0
LINE
8
BLACK
6
CONTINUOUS
10
52.8663
20
-60.3222
11
52.7025
21
-60.2128
0
LINE
8
BLACK
6
CONTINUOUS
10
52.7025
20
-60.2128
11
52.5632
21
-60.0735
0
LINE
8
BLACK
6
CONTINUOUS
10
52.5632
20
-60.0735
11
52.4538
21
-59.9097
0
LINE
8
BLACK
6
CONTINUOUS
10
52.4538
20
-59.9097
11
52.3784
21
-59.7277
0
LINE
8
BLACK
6
CONTINUOUS
10
52.3784
20
-59.7277
11
52.34
21
-59.5345
0
LINE
8
BLACK
6
CONTINUOUS
10
52.34
20
-59.5345
11
52.34
21
-59.3375
0
LINE
8
BLACK
6
CONTINUOUS
10
52.34
20
-59.3375
11
52.3784
21
-59.1443
0
LINE
8
BLACK
6
CONTINUOUS
10
52.3784
20
-59.1443
11
52.4538
21
-58.9623
0
LINE
8
BLACK
6
CONTINUOUS
10
52.4538
20
-58.9623
11
52.5632
21
-58.7985
0
LINE
8
BLACK
6
CONTINUOUS
10
52.5632
20
-58.7985
11
52.7025
21
-58.6592
0
LINE
8
BLACK
6
CONTINUOUS
10
52.7025
20
-58.6592
11
52.8663
21
-58.5498
0
LINE
8
BLACK
6
CONTINUOUS
10
52.8663
20
-58.5498
11
53.0483
21
-58.4744
0
LINE
8
BLACK
6
CONTINUOUS
10
53.0483
20
-58.4744
11
53.2415
21
-58.436
0
LINE
8
BLACK
6
CONTINUOUS
10
53.2415
20
-58.436
11
53.4385
21
-58.436
0
LINE
8
BLACK
6
CONTINUOUS
10
53.4385
20
-58.436
11
53.6317
21
-58.4744
0
LINE
8
BLACK
6
CONTINUOUS
10
146.026
20
-55.856
11
143.026
21
-55.856
0
LINE
8
BLACK
6
CONTINUOUS
10
143.026
20
-55.856
11
143.026
21
-52.856
0
LINE
8
BLACK
6
CONTINUOUS
10
143.026
20
-52.856
11
146.026
21
-52.856
0
LINE
8
BLACK
6
CONTINUOUS
10
146.026
20
-52.856
11
146.026
21
-55.856
0
LINE
8
BLACK
6
CONTINUOUS
10
75.946
20
-53.848
11
74.422
21
-53.848
0
LINE
8
BLACK
6
CONTINUOUS
10
74.422
20
-53.848
11
74.422
21
-52.324
0
LINE
8
BLACK
6
CONTINUOUS
10
74.422
20
-52.324
11
75.946
21
-52.324
0
LINE
8
BLACK
6
CONTINUOUS
10
75.946
20
-52.324
11
75.946
21
-53.848
0
LINE
8
BLACK
6
CONTINUOUS
10
138.946
20
-53.848
11
137.422
21
-53.848
0
LINE
8
BLACK
6
CONTINUOUS
10
137.422
20
-53.848
11
137.422
21
-52.324
0
LINE
8
BLACK
6
CONTINUOUS
10
137.422
20
-52.324
11
138.946
21
-52.324
0
LINE
8
BLACK
6
CONTINUOUS
10
138.946
20
-52.324
11
138.946
21
-53.848
0
LINE
8
BLACK
6
CONTINUOUS
10
65.2075
20
-48.0876
11
65.4805
21
-48.2007
0
LINE
8
BLACK
6
CONTINUOUS
10
65.4805
20
-48.2007
11
65.7262
21
-48.3649
0
LINE
8
BLACK
6
CONTINUOUS
10
65.7262
20
-48.3649
11
65.9351
21
-48.5738
0
LINE
8
BLACK
6
CONTINUOUS
10
65.9351
20
-48.5738
11
66.0993
21
-48.8195
0
LINE
8
BLACK
6
CONTINUOUS
10
66.0993
20
-48.8195
11
66.2124
21
-49.0925
0
LINE
8
BLACK
6
CONTINUOUS
10
66.2124
20
-49.0925
11
66.27
21
-49.3823
0
LINE
8
BLACK
6
CONTINUOUS
10
66.27
20
-49.3823
11
66.27
21
-49.6777
0
LINE
8
BLACK
6
CONTINUOUS
10
66.27
20
-49.6777
11
66.2124
21
-49.9675
0
LINE
8
BLACK
6
CONTINUOUS
10
66.2124
20
-49.9675
11
66.0993
21
-50.2405
0
LINE
8
BLACK
6
CONTINUOUS
10
66.0993
20
-50.2405
11
65.9351
21
-50.4862
0
LINE
8
BLACK
6
CONTINUOUS
10
65.9351
20
-50.4862
11
65.7262
21
-50.6951
0
LINE
8
BLACK
6
CONTINUOUS
10
65.7262
20
-50.6951
11
65.4805
21
-50.8593
0
LINE
8
BLACK
6
CONTINUOUS
10
65.4805
20
-50.8593
11
65.2075
21
-50.9724
0
LINE
8
BLACK
6
CONTINUOUS
10
65.2075
20
-50.9724
11
64.9177
21
-51.03
0
LINE
8
BLACK
6
CONTINUOUS
10
64.9177
20
-51.03
11
64.6223
21
-51.03
0
LINE
8
BLACK
6
CONTINUOUS
10
64.6223
20
-51.03
11
64.3325
21
-50.9724
0
LINE
8
BLACK
6
CONTINUOUS
10
64.3325
20
-50.9724
11
64.0595
21
-50.8593
0
LINE
8
BLACK
6
CONTINUOUS
10
64.0595
20
-50.8593
11
63.8138
21
-50.6951
0
LINE
8
BLACK
6
CONTINUOUS
10
63.8138
20
-50.6951
11
63.6049
21
-50.4862
0
LINE
8
BLACK
6
CONTINUOUS
10
63.6049
20
-50.4862
11
63.4407
21
-50.2405
0
LINE
8
BLACK
6
CONTINUOUS
10
63.4407
20
-50.2405
11
63.3276
21
-49.9675
0
LINE
8
BLACK
6
CONTINUOUS
10
63.3276
20
-49.9675
11
63.27
21
-49.6777
0
LINE
8
BLACK
6
CONTINUOUS
10
63.27
20
-49.6777
11
63.27
21
-49.3823
0
LINE
8
BLACK
6
CONTINUOUS
10
63.27
20
-49.3823
11
63.3276
21
-49.0925
0
LINE
8
BLACK
6
CONTINUOUS
10
63.3276
20
-49.0925
11
63.4407
21
-48.8195
0
LINE
8
BLACK
6
CONTINUOUS
10
63.4407
20
-48.8195
11
63.6049
21
-48.5738
0
LINE
8
BLACK
6
CONTINUOUS
10
63.6049
20
-48.5738
11
63.8138
21
-48.3649
0
LINE
8
BLACK
6
CONTINUOUS
10
63.8138
20
-48.3649
11
64.0595
21
-48.2007
0
LINE
8
BLACK
6
CONTINUOUS
10
64.0595
20
-48.2007
11
64.3325
21
-48.0876
0
LINE
8
BLACK
6
CONTINUOUS
10
64.3325
20
-48.0876
11
64.6223
21
-48.03
0
LINE
8
BLACK
6
CONTINUOUS
10
64.6223
20
-48.03
11
64.9177
21
-48.03
0
LINE
8
BLACK
6
CONTINUOUS
10
64.9177
20
-48.03
11
65.2075
21
-48.0876
0
LINE
8
BLACK
6
CONTINUOUS
10
71.35
20
-51.03
11
68.35
21
-51.03
0
LINE
8
BLACK
6
CONTINUOUS
10
68.35
20
-51.03
11
68.35
21
-48.03
0
LINE
8
BLACK
6
CONTINUOUS
10
68.35
20
-48.03
11
71.35
21
-48.03
0
LINE
8
BLACK
6
CONTINUOUS
10
71.35
20
-48.03
11
71.35
21
-51.03
0
LINE
8
BLACK
6
CONTINUOUS
10
53.5235
20
-48.0876
11
53.7965
21
-48.2007
0
LINE
8
BLACK
6
CONTINUOUS
10
53.7965
20
-48.2007
11
54.0422
21
-48.3649
0
LINE
8
BLACK
6
CONTINUOUS
10
54.0422
20
-48.3649
11
54.2511
21
-48.5738
0
LINE
8
BLACK
6
CONTINUOUS
10
54.2511
20
-48.5738
11
54.4153
21
-48.8195
0
LINE
8
BLACK
6
CONTINUOUS
10
54.4153
20
-48.8195
11
54.5284
21
-49.0925
0
LINE
8
BLACK
6
CONTINUOUS
10
54.5284
20
-49.0925
11
54.586
21
-49.3823
0
LINE
8
BLACK
6
CONTINUOUS
10
54.586
20
-49.3823
11
54.586
21
-49.6777
0
LINE
8
BLACK
6
CONTINUOUS
10
54.586
20
-49.6777
11
54.5284
21
-49.9675
0
LINE
8
BLACK
6
CONTINUOUS
10
54.5284
20
-49.9675
11
54.4153
21
-50.2405
0
LINE
8
BLACK
6
CONTINUOUS
10
54.4153
20
-50.2405
11
54.2511
21
-50.4862
0
LINE
8
BLACK
6
CONTINUOUS
10
54.2511
20
-50.4862
11
54.0422
21
-50.6951
0
LINE
8
BLACK
6
CONTINUOUS
10
54.0422
20
-50.6951
11
53.7965
21
-50.8593
0
LINE
8
BLACK
6
CONTINUOUS
10
53.7965
20
-50.8593
11
53.5235
21
-50.9724
0
LINE
8
BLACK
6
CONTINUOUS
10
53.5235
20
-50.9724
11
53.2337
21
-51.03
0
LINE
8
BLACK
6
CONTINUOUS
10
53.2337
20
-51.03
11
52.9383
21
-51.03
0
LINE
8
BLACK
6
CONTINUOUS
10
52.9383
20
-51.03
11
52.6485
21
-50.9724
0
LINE
8
BLACK
6
CONTINUOUS
10
52.6485
20
-50.9724
11
52.3755
21
-50.8593
0
LINE
8
BLACK
6
CONTINUOUS
10
52.3755
20
-50.8593
11
52.1298
21
-50.6951
0
LINE
8
BLACK
6
CONTINUOUS
10
52.1298
20
-50.6951
11
51.9209
21
-50.4862
0
LINE
8
BLACK
6
CONTINUOUS
10
51.9209
20
-50.4862
11
51.7567
21
-50.2405
0
LINE
8
BLACK
6
CONTINUOUS
10
51.7567
20
-50.2405
11
51.6436
21
-49.9675
0
LINE
8
BLACK
6
CONTINUOUS
10
51.6436
20
-49.9675
11
51.586
21
-49.6777
0
LINE
8
BLACK
6
CONTINUOUS
10
51.586
20
-49.6777
11
51.586
21
-49.3823
0
LINE
8
BLACK
6
CONTINUOUS
10
51.586
20
-49.3823
11
51.6436
21
-49.0925
0
LINE
8
BLACK
6
CONTINUOUS
10
51.6436
20
-49.0925
11
51.7567
21
-48.8195
0
LINE
8
BLACK
6
CONTINUOUS
10
51.7567
20
-48.8195
11
51.9209
21
-48.5738
0
LINE
8
BLACK
6
CONTINUOUS
10
51.9209
20
-48.5738
11
52.1298
21
-48.3649
0
LINE
8
BLACK
6
CONTINUOUS
10
52.1298
20
-48.3649
11
52.3755
21
-48.2007
0
LINE
8
BLACK
6
CONTINUOUS
10
52.3755
20
-48.2007
11
52.6485
21
-48.0876
0
LINE
8
BLACK
6
CONTINUOUS
10
52.6485
20
-48.0876
11
52.9383
21
-48.03
0
LINE
8
BLACK
6
CONTINUOUS
10
52.9383
20
-48.03
11
53.2337
21
-48.03
0
LINE
8
BLACK
6
CONTINUOUS
10
53.2337
20
-48.03
11
53.5235
21
-48.0876
0
LINE
8
BLACK
6
CONTINUOUS
10
59.666
20
-51.03
11
56.666
21
-51.03
0
LINE
8
BLACK
6
CONTINUOUS
10
56.666
20
-51.03
11
56.666
21
-48.03
0
LINE
8
BLACK
6
CONTINUOUS
10
56.666
20
-48.03
11
59.666
21
-48.03
0
LINE
8
BLACK
6
CONTINUOUS
10
59.666
20
-48.03
11
59.666
21
-51.03
0
LINE
8
BLACK
6
CONTINUOUS
10
144.964
20
-47.8336
11
145.237
21
-47.9467
0
LINE
8
BLACK
6
CONTINUOUS
10
145.237
20
-47.9467
11
145.482
21
-48.1109
0
LINE
8
BLACK
6
CONTINUOUS
10
145.482
20
-48.1109
11
145.691
21
-48.3198
0
LINE
8
BLACK
6
CONTINUOUS
10
145.691
20
-48.3198
11
145.855
21
-48.5655
0
LINE
8
BLACK
6
CONTINUOUS
10
145.855
20
-48.5655
11
145.968
21
-48.8385
0
LINE
8
BLACK
6
CONTINUOUS
10
145.968
20
-48.8385
11
146.026
21
-49.1283
0
LINE
8
BLACK
6
CONTINUOUS
10
146.026
20
-49.1283
11
146.026
21
-49.4237
0
LINE
8
BLACK
6
CONTINUOUS
10
146.026
20
-49.4237
11
145.968
21
-49.7135
0
LINE
8
BLACK
6
CONTINUOUS
10
145.968
20
-49.7135
11
145.855
21
-49.9865
0
LINE
8
BLACK
6
CONTINUOUS
10
145.855
20
-49.9865
11
145.691
21
-50.2322
0
LINE
8
BLACK
6
CONTINUOUS
10
145.691
20
-50.2322
11
145.482
21
-50.4411
0
LINE
8
BLACK
6
CONTINUOUS
10
145.482
20
-50.4411
11
145.237
21
-50.6053
0
LINE
8
BLACK
6
CONTINUOUS
10
145.237
20
-50.6053
11
144.964
21
-50.7184
0
LINE
8
BLACK
6
CONTINUOUS
10
144.964
20
-50.7184
11
144.674
21
-50.776
0
LINE
8
BLACK
6
CONTINUOUS
10
144.674
20
-50.776
11
144.378
21
-50.776
0
LINE
8
BLACK
6
CONTINUOUS
10
144.378
20
-50.776
11
144.088
21
-50.7184
0
LINE
8
BLACK
6
CONTINUOUS
10
144.088
20
-50.7184
11
143.815
21
-50.6053
0
LINE
8
BLACK
6
CONTINUOUS
10
143.815
20
-50.6053
11
143.57
21
-50.4411
0
LINE
8
BLACK
6
CONTINUOUS
10
143.57
20
-50.4411
11
143.361
21
-50.2322
0
LINE
8
BLACK
6
CONTINUOUS
10
143.361
20
-50.2322
11
143.197
21
-49.9865
0
LINE
8
BLACK
6
CONTINUOUS
10
143.197
20
-49.9865
11
143.084
21
-49.7135
0
LINE
8
BLACK
6
CONTINUOUS
10
143.084
20
-49.7135
11
143.026
21
-49.4237
0
LINE
8
BLACK
6
CONTINUOUS
10
143.026
20
-49.4237
11
143.026
21
-49.1283
0
LINE
8
BLACK
6
CONTINUOUS
10
143.026
20
-49.1283
11
143.084
21
-48.8385
0
LINE
8
BLACK
6
CONTINUOUS
10
143.084
20
-48.8385
11
143.197
21
-48.5655
0
LINE
8
BLACK
6
CONTINUOUS
10
143.197
20
-48.5655
11
143.361
21
-48.3198
0
LINE
8
BLACK
6
CONTINUOUS
10
143.361
20
-48.3198
11
143.57
21
-48.1109
0
LINE
8
BLACK
6
CONTINUOUS
10
143.57
20
-48.1109
11
143.815
21
-47.9467
0
LINE
8
BLACK
6
CONTINUOUS
10
143.815
20
-47.9467
11
144.088
21
-47.8336
0
LINE
8
BLACK
6
CONTINUOUS
10
144.088
20
-47.8336
11
144.378
21
-47.776
0
LINE
8
BLACK
6
CONTINUOUS
10
144.378
20
-47.776
11
144.674
21
-47.776
0
LINE
8
BLACK
6
CONTINUOUS
10
144.674
20
-47.776
11
144.964
21
-47.8336
0
LINE
8
BLACK
6
CONTINUOUS
10
47.8651
20
-41.0573
11
48.411
21
-41.2834
0
LINE
8
BLACK
6
CONTINUOUS
10
48.411
20
-41.2834
11
48.9024
21
-41.6117
0
LINE
8
BLACK
6
CONTINUOUS
10
48.9024
20
-41.6117
11
49.3203
21
-42.0296
0
LINE
8
BLACK
6
CONTINUOUS
10
49.3203
20
-42.0296
11
49.6486
21
-42.521
0
LINE
8
BLACK
6
CONTINUOUS
10
49.6486
20
-42.521
11
49.8747
21
-43.0669
0
LINE
8
BLACK
6
CONTINUOUS
10
49.8747
20
-43.0669
11
49.99
21
-43.6465
0
LINE
8
BLACK
6
CONTINUOUS
10
49.99
20
-43.6465
11
49.99
21
-44.2375
0
LINE
8
BLACK
6
CONTINUOUS
10
49.99
20
-44.2375
11
49.8747
21
-44.8171
0
LINE
8
BLACK
6
CONTINUOUS
10
49.8747
20
-44.8171
11
49.6486
21
-45.363
0
LINE
8
BLACK
6
CONTINUOUS
10
49.6486
20
-45.363
11
49.3203
21
-45.8544
0
LINE
8
BLACK
6
CONTINUOUS
10
49.3203
20
-45.8544
11
48.9024
21
-46.2723
0
LINE
8
BLACK
6
CONTINUOUS
10
48.9024
20
-46.2723
11
48.411
21
-46.6006
0
LINE
8
BLACK
6
CONTINUOUS
10
48.411
20
-46.6006
11
47.8651
21
-46.8267
0
LINE
8
BLACK
6
CONTINUOUS
10
47.8651
20
-46.8267
11
47.2855
21
-46.942
0
LINE
8
BLACK
6
CONTINUOUS
10
47.2855
20
-46.942
11
46.6945
21
-46.942
0
LINE
8
BLACK
6
CONTINUOUS
10
46.6945
20
-46.942
11
46.1149
21
-46.8267
0
LINE
8
BLACK
6
CONTINUOUS
10
46.1149
20
-46.8267
11
45.569
21
-46.6006
0
LINE
8
BLACK
6
CONTINUOUS
10
45.569
20
-46.6006
11
45.0776
21
-46.2723
0
LINE
8
BLACK
6
CONTINUOUS
10
45.0776
20
-46.2723
11
44.6597
21
-45.8544
0
LINE
8
BLACK
6
CONTINUOUS
10
44.6597
20
-45.8544
11
44.3314
21
-45.363
0
LINE
8
BLACK
6
CONTINUOUS
10
44.3314
20
-45.363
11
44.1053
21
-44.8171
0
LINE
8
BLACK
6
CONTINUOUS
10
44.1053
20
-44.8171
11
43.99
21
-44.2375
0
LINE
8
BLACK
6
CONTINUOUS
10
43.99
20
-44.2375
11
43.99
21
-43.6465
0
LINE
8
BLACK
6
CONTINUOUS
10
43.99
20
-43.6465
11
44.1053
21
-43.0669
0
LINE
8
BLACK
6
CONTINUOUS
10
44.1053
20
-43.0669
11
44.3314
21
-42.521
0
LINE
8
BLACK
6
CONTINUOUS
10
44.3314
20
-42.521
11
44.6597
21
-42.0296
0
LINE
8
BLACK
6
CONTINUOUS
10
44.6597
20
-42.0296
11
45.0776
21
-41.6117
0
LINE
8
BLACK
6
CONTINUOUS
10
45.0776
20
-41.6117
11
45.569
21
-41.2834
0
LINE
8
BLACK
6
CONTINUOUS
10
45.569
20
-41.2834
11
46.1149
21
-41.0573
0
LINE
8
BLACK
6
CONTINUOUS
10
46.1149
20
-41.0573
11
46.6945
21
-40.942
0
LINE
8
BLACK
6
CONTINUOUS
10
46.6945
20
-40.942
11
47.2855
21
-40.942
0
LINE
8
BLACK
6
CONTINUOUS
10
47.2855
20
-40.942
11
47.8651
21
-41.0573
0
LINE
8
BLACK
6
CONTINUOUS
10
145.909
20
-40.0413
11
146.455
21
-40.2674
0
LINE
8
BLACK
6
CONTINUOUS
10
146.455
20
-40.2674
11
146.946
21
-40.5957
0
LINE
8
BLACK
6
CONTINUOUS
10
146.946
20
-40.5957
11
147.364
21
-41.0136
0
LINE
8
BLACK
6
CONTINUOUS
10
147.364
20
-41.0136
11
147.693
21
-41.505
0
LINE
8
BLACK
6
CONTINUOUS
10
147.693
20
-41.505
11
147.919
21
-42.0509
0
LINE
8
BLACK
6
CONTINUOUS
10
147.919
20
-42.0509
11
148.034
21
-42.6305
0
LINE
8
BLACK
6
CONTINUOUS
10
148.034
20
-42.6305
11
148.034
21
-43.2215
0
LINE
8
BLACK
6
CONTINUOUS
10
148.034
20
-43.2215
11
147.919
21
-43.8011
0
LINE
8
BLACK
6
CONTINUOUS
10
147.919
20
-43.8011
11
147.693
21
-44.347
0
LINE
8
BLACK
6
CONTINUOUS
10
147.693
20
-44.347
11
147.364
21
-44.8384
0
LINE
8
BLACK
6
CONTINUOUS
10
147.364
20
-44.8384
11
146.946
21
-45.2563
0
LINE
8
BLACK
6
CONTINUOUS
10
146.946
20
-45.2563
11
146.455
21
-45.5846
0
LINE
8
BLACK
6
CONTINUOUS
10
146.455
20
-45.5846
11
145.909
21
-45.8107
0
LINE
8
BLACK
6
CONTINUOUS
10
145.909
20
-45.8107
11
145.329
21
-45.926
0
LINE
8
BLACK
6
CONTINUOUS
10
145.329
20
-45.926
11
144.739
21
-45.926
0
LINE
8
BLACK
6
CONTINUOUS
10
144.739
20
-45.926
11
144.159
21
-45.8107
0
LINE
8
BLACK
6
CONTINUOUS
10
144.159
20
-45.8107
11
143.613
21
-45.5846
0
LINE
8
BLACK
6
CONTINUOUS
10
143.613
20
-45.5846
11
143.122
21
-45.2563
0
LINE
8
BLACK
6
CONTINUOUS
10
143.122
20
-45.2563
11
142.704
21
-44.8384
0
LINE
8
BLACK
6
CONTINUOUS
10
142.704
20
-44.8384
11
142.375
21
-44.347
0
LINE
8
BLACK
6
CONTINUOUS
10
142.375
20
-44.347
11
142.149
21
-43.8011
0
LINE
8
BLACK
6
CONTINUOUS
10
142.149
20
-43.8011
11
142.034
21
-43.2215
0
LINE
8
BLACK
6
CONTINUOUS
10
142.034
20
-43.2215
11
142.034
21
-42.6305
0
LINE
8
BLACK
6
CONTINUOUS
10
142.034
20
-42.6305
11
142.149
21
-42.0509
0
LINE
8
BLACK
6
CONTINUOUS
10
142.149
20
-42.0509
11
142.375
21
-41.505
0
LINE
8
BLACK
6
CONTINUOUS
10
142.375
20
-41.505
11
142.704
21
-41.0136
0
LINE
8
BLACK
6
CONTINUOUS
10
142.704
20
-41.0136
11
143.122
21
-40.5957
0
LINE
8
BLACK
6
CONTINUOUS
10
143.122
20
-40.5957
11
143.613
21
-40.2674
0
LINE
8
BLACK
6
CONTINUOUS
10
143.613
20
-40.2674
11
144.159
21
-40.0413
0
LINE
8
BLACK
6
CONTINUOUS
10
144.159
20
-40.0413
11
144.739
21
-39.926
0
LINE
8
BLACK
6
CONTINUOUS
10
144.739
20
-39.926
11
145.329
21
-39.926
0
LINE
8
BLACK
6
CONTINUOUS
10
145.329
20
-39.926
11
145.909
21
-40.0413
0
CIRCLE
8
BLACK
10
145.034
20
-42.926
40
1
0
CIRCLE
8
BLACK
10
145.034
20
-93.726
40
1
0
CIRCLE
8
BLACK
10
47.498
20
-94.996
40
1
0
CIRCLE
8
BLACK
10
46.99
20
-43.942
40
1
  0
ENDSEC
  0
EOF
