G04 #@! TF.GenerationSoftware,KiCad,Pcbnew,(5.1.2)-2*
G04 #@! TF.CreationDate,2020-05-15T02:34:10+07:00*
G04 #@! TF.ProjectId,power_arduino,706f7765-725f-4617-9264-75696e6f2e6b,rev?*
G04 #@! TF.SameCoordinates,Original*
G04 #@! TF.FileFunction,Legend,Top*
G04 #@! TF.FilePolarity,Positive*
%FSLAX46Y46*%
G04 Gerber Fmt 4.6, Leading zero omitted, Abs format (unit mm)*
G04 Created by KiCad (PCBNEW (5.1.2)-2) date 2020-05-15 02:34:10*
%MOMM*%
%LPD*%
G04 APERTURE LIST*
%ADD10C,0.300000*%
%ADD11C,0.500000*%
%ADD12C,0.120000*%
%ADD13C,0.750000*%
%ADD14C,0.200000*%
%ADD15C,0.010000*%
%ADD16C,0.150000*%
G04 APERTURE END LIST*
D10*
X150749047Y-61642761D02*
X149796666Y-61642761D01*
X149701428Y-62595142D01*
X149796666Y-62499904D01*
X149987142Y-62404666D01*
X150463333Y-62404666D01*
X150653809Y-62499904D01*
X150749047Y-62595142D01*
X150844285Y-62785619D01*
X150844285Y-63261809D01*
X150749047Y-63452285D01*
X150653809Y-63547523D01*
X150463333Y-63642761D01*
X149987142Y-63642761D01*
X149796666Y-63547523D01*
X149701428Y-63452285D01*
X151415714Y-61642761D02*
X152082380Y-63642761D01*
X152749047Y-61642761D01*
D11*
X148717142Y-65746285D02*
X151002857Y-65746285D01*
X148717142Y-59396285D02*
X151002857Y-59396285D01*
X149860000Y-60539142D02*
X149860000Y-58253428D01*
D12*
X41656000Y-101600000D02*
X41656000Y-39116000D01*
X158242000Y-101600000D02*
X41656000Y-101600000D01*
X158242000Y-39116000D02*
X158242000Y-101600000D01*
X41656000Y-39116000D02*
X158242000Y-39116000D01*
D11*
X68961142Y-43394285D02*
X71246857Y-43394285D01*
X62865142Y-43394285D02*
X65150857Y-43394285D01*
X64008000Y-44537142D02*
X64008000Y-42251428D01*
D13*
X108022857Y-89749142D02*
X108022857Y-86749142D01*
X109022857Y-88892000D01*
X110022857Y-86749142D01*
X110022857Y-89749142D01*
X111880000Y-89749142D02*
X111594285Y-89606285D01*
X111451428Y-89463428D01*
X111308571Y-89177714D01*
X111308571Y-88320571D01*
X111451428Y-88034857D01*
X111594285Y-87892000D01*
X111880000Y-87749142D01*
X112308571Y-87749142D01*
X112594285Y-87892000D01*
X112737142Y-88034857D01*
X112880000Y-88320571D01*
X112880000Y-89177714D01*
X112737142Y-89463428D01*
X112594285Y-89606285D01*
X112308571Y-89749142D01*
X111880000Y-89749142D01*
X114165714Y-87749142D02*
X114165714Y-89749142D01*
X114165714Y-88034857D02*
X114308571Y-87892000D01*
X114594285Y-87749142D01*
X115022857Y-87749142D01*
X115308571Y-87892000D01*
X115451428Y-88177714D01*
X115451428Y-89749142D01*
X116737142Y-89606285D02*
X117022857Y-89749142D01*
X117594285Y-89749142D01*
X117880000Y-89606285D01*
X118022857Y-89320571D01*
X118022857Y-89177714D01*
X117880000Y-88892000D01*
X117594285Y-88749142D01*
X117165714Y-88749142D01*
X116880000Y-88606285D01*
X116737142Y-88320571D01*
X116737142Y-88177714D01*
X116880000Y-87892000D01*
X117165714Y-87749142D01*
X117594285Y-87749142D01*
X117880000Y-87892000D01*
X118880000Y-87749142D02*
X120022857Y-87749142D01*
X119308571Y-86749142D02*
X119308571Y-89320571D01*
X119451428Y-89606285D01*
X119737142Y-89749142D01*
X120022857Y-89749142D01*
X122165714Y-89606285D02*
X121880000Y-89749142D01*
X121308571Y-89749142D01*
X121022857Y-89606285D01*
X120880000Y-89320571D01*
X120880000Y-88177714D01*
X121022857Y-87892000D01*
X121308571Y-87749142D01*
X121880000Y-87749142D01*
X122165714Y-87892000D01*
X122308571Y-88177714D01*
X122308571Y-88463428D01*
X120880000Y-88749142D01*
X123594285Y-89749142D02*
X123594285Y-87749142D01*
X123594285Y-88320571D02*
X123737142Y-88034857D01*
X123880000Y-87892000D01*
X124165714Y-87749142D01*
X124451428Y-87749142D01*
X125451428Y-89749142D02*
X125451428Y-86749142D01*
X126451428Y-86749142D02*
X128165714Y-86749142D01*
X127308571Y-89749142D02*
X127308571Y-86749142D01*
X130880000Y-89463428D02*
X130737142Y-89606285D01*
X130308571Y-89749142D01*
X130022857Y-89749142D01*
X129594285Y-89606285D01*
X129308571Y-89320571D01*
X129165714Y-89034857D01*
X129022857Y-88463428D01*
X129022857Y-88034857D01*
X129165714Y-87463428D01*
X129308571Y-87177714D01*
X129594285Y-86892000D01*
X130022857Y-86749142D01*
X130308571Y-86749142D01*
X130737142Y-86892000D01*
X130880000Y-87034857D01*
D11*
X51943142Y-43648285D02*
X54228857Y-43648285D01*
X58205714Y-42291142D02*
X58205714Y-44576857D01*
X57062857Y-43434000D02*
X59348571Y-43434000D01*
D14*
X150495047Y-83994761D02*
X149542666Y-83994761D01*
X149447428Y-84947142D01*
X149542666Y-84851904D01*
X149733142Y-84756666D01*
X150209333Y-84756666D01*
X150399809Y-84851904D01*
X150495047Y-84947142D01*
X150590285Y-85137619D01*
X150590285Y-85613809D01*
X150495047Y-85804285D01*
X150399809Y-85899523D01*
X150209333Y-85994761D01*
X149733142Y-85994761D01*
X149542666Y-85899523D01*
X149447428Y-85804285D01*
X151161714Y-83994761D02*
X151828380Y-85994761D01*
X152495047Y-83994761D01*
D11*
X148971142Y-88098285D02*
X151256857Y-88098285D01*
X148717142Y-80986285D02*
X151002857Y-80986285D01*
X149860000Y-82129142D02*
X149860000Y-79843428D01*
D14*
X150907904Y-74996761D02*
X149765047Y-74996761D01*
X150336476Y-74996761D02*
X150336476Y-72996761D01*
X150146000Y-73282476D01*
X149955523Y-73472952D01*
X149765047Y-73568190D01*
X151669809Y-73187238D02*
X151765047Y-73092000D01*
X151955523Y-72996761D01*
X152431714Y-72996761D01*
X152622190Y-73092000D01*
X152717428Y-73187238D01*
X152812666Y-73377714D01*
X152812666Y-73568190D01*
X152717428Y-73853904D01*
X151574571Y-74996761D01*
X152812666Y-74996761D01*
X153384095Y-72996761D02*
X154050761Y-74996761D01*
X154717428Y-72996761D01*
D11*
X148971142Y-77176285D02*
X151256857Y-77176285D01*
X148717142Y-70318285D02*
X151002857Y-70318285D01*
X149860000Y-71461142D02*
X149860000Y-69175428D01*
D14*
X150907904Y-53228761D02*
X149765047Y-53228761D01*
X150336476Y-53228761D02*
X150336476Y-51228761D01*
X150146000Y-51514476D01*
X149955523Y-51704952D01*
X149765047Y-51800190D01*
X151669809Y-51419238D02*
X151765047Y-51324000D01*
X151955523Y-51228761D01*
X152431714Y-51228761D01*
X152622190Y-51324000D01*
X152717428Y-51419238D01*
X152812666Y-51609714D01*
X152812666Y-51800190D01*
X152717428Y-52085904D01*
X151574571Y-53228761D01*
X152812666Y-53228761D01*
X153384095Y-51228761D02*
X154050761Y-53228761D01*
X154717428Y-51228761D01*
D11*
X148971142Y-55332285D02*
X151256857Y-55332285D01*
X148971142Y-48220285D02*
X151256857Y-48220285D01*
X150114000Y-49363142D02*
X150114000Y-47077428D01*
D12*
X148336000Y-67818000D02*
X148336000Y-57658000D01*
X140716000Y-67818000D02*
X148336000Y-67818000D01*
X140716000Y-57658000D02*
X140716000Y-67818000D01*
X148336000Y-57658000D02*
X140716000Y-57658000D01*
X147066000Y-57658000D02*
X147066000Y-67818000D01*
D15*
G36*
X121385910Y-54733849D02*
G01*
X122003337Y-54921009D01*
X122524652Y-55216119D01*
X122929893Y-55608990D01*
X123116799Y-55902474D01*
X123174439Y-56046334D01*
X123276948Y-56336089D01*
X123419141Y-56755865D01*
X123595835Y-57289791D01*
X123801846Y-57921993D01*
X124031990Y-58636599D01*
X124281083Y-59417736D01*
X124543942Y-60249533D01*
X124724815Y-60826118D01*
X124989975Y-61673628D01*
X125240563Y-62474040D01*
X125471925Y-63212522D01*
X125679408Y-63874247D01*
X125858358Y-64444386D01*
X126004122Y-64908109D01*
X126112045Y-65250588D01*
X126177474Y-65456993D01*
X126195681Y-65513086D01*
X126177036Y-65555990D01*
X126071363Y-65584534D01*
X125858409Y-65600149D01*
X125517924Y-65604269D01*
X125029655Y-65598326D01*
X124998988Y-65597753D01*
X123763561Y-65574333D01*
X120933115Y-57192333D01*
X120448857Y-57192333D01*
X119050417Y-61404500D01*
X117651977Y-65616666D01*
X116351992Y-65616666D01*
X115908097Y-65612790D01*
X115534231Y-65602095D01*
X115258227Y-65585980D01*
X115107921Y-65565845D01*
X115089123Y-65553166D01*
X115120300Y-65462839D01*
X115196955Y-65225199D01*
X115314552Y-64854712D01*
X115468552Y-64365844D01*
X115654420Y-63773060D01*
X115867616Y-63090827D01*
X116103606Y-62333609D01*
X116357850Y-61515874D01*
X116582863Y-60790666D01*
X116882584Y-59829808D01*
X117163567Y-58940882D01*
X117421738Y-58136179D01*
X117653026Y-57427990D01*
X117853355Y-56828604D01*
X118018653Y-56350311D01*
X118144847Y-56005401D01*
X118227863Y-55806166D01*
X118245709Y-55773515D01*
X118631259Y-55331027D01*
X119137407Y-54994283D01*
X119746467Y-54771298D01*
X120440753Y-54670085D01*
X120692333Y-54664830D01*
X121385910Y-54733849D01*
X121385910Y-54733849D01*
G37*
X121385910Y-54733849D02*
X122003337Y-54921009D01*
X122524652Y-55216119D01*
X122929893Y-55608990D01*
X123116799Y-55902474D01*
X123174439Y-56046334D01*
X123276948Y-56336089D01*
X123419141Y-56755865D01*
X123595835Y-57289791D01*
X123801846Y-57921993D01*
X124031990Y-58636599D01*
X124281083Y-59417736D01*
X124543942Y-60249533D01*
X124724815Y-60826118D01*
X124989975Y-61673628D01*
X125240563Y-62474040D01*
X125471925Y-63212522D01*
X125679408Y-63874247D01*
X125858358Y-64444386D01*
X126004122Y-64908109D01*
X126112045Y-65250588D01*
X126177474Y-65456993D01*
X126195681Y-65513086D01*
X126177036Y-65555990D01*
X126071363Y-65584534D01*
X125858409Y-65600149D01*
X125517924Y-65604269D01*
X125029655Y-65598326D01*
X124998988Y-65597753D01*
X123763561Y-65574333D01*
X120933115Y-57192333D01*
X120448857Y-57192333D01*
X119050417Y-61404500D01*
X117651977Y-65616666D01*
X116351992Y-65616666D01*
X115908097Y-65612790D01*
X115534231Y-65602095D01*
X115258227Y-65585980D01*
X115107921Y-65565845D01*
X115089123Y-65553166D01*
X115120300Y-65462839D01*
X115196955Y-65225199D01*
X115314552Y-64854712D01*
X115468552Y-64365844D01*
X115654420Y-63773060D01*
X115867616Y-63090827D01*
X116103606Y-62333609D01*
X116357850Y-61515874D01*
X116582863Y-60790666D01*
X116882584Y-59829808D01*
X117163567Y-58940882D01*
X117421738Y-58136179D01*
X117653026Y-57427990D01*
X117853355Y-56828604D01*
X118018653Y-56350311D01*
X118144847Y-56005401D01*
X118227863Y-55806166D01*
X118245709Y-55773515D01*
X118631259Y-55331027D01*
X119137407Y-54994283D01*
X119746467Y-54771298D01*
X120440753Y-54670085D01*
X120692333Y-54664830D01*
X121385910Y-54733849D01*
G36*
X102323043Y-54688125D02*
G01*
X102998390Y-54885662D01*
X103560918Y-55208854D01*
X104013789Y-55659978D01*
X104296458Y-56109018D01*
X104357201Y-56258911D01*
X104461579Y-56551369D01*
X104603235Y-56967172D01*
X104775811Y-57487098D01*
X104972950Y-58091928D01*
X105188294Y-58762441D01*
X105415487Y-59479417D01*
X105494920Y-59732333D01*
X105721264Y-60452256D01*
X105934308Y-61125252D01*
X106128259Y-61733357D01*
X106297322Y-62258610D01*
X106435705Y-62683045D01*
X106537612Y-62988702D01*
X106597249Y-63157615D01*
X106607775Y-63182500D01*
X106639438Y-63222489D01*
X106699153Y-63254601D01*
X106803996Y-63279689D01*
X106971041Y-63298609D01*
X107217365Y-63312218D01*
X107560044Y-63321369D01*
X108016153Y-63326918D01*
X108602770Y-63329721D01*
X109336969Y-63330633D01*
X109565850Y-63330666D01*
X110391758Y-63330025D01*
X111065408Y-63326349D01*
X111603874Y-63317009D01*
X112024231Y-63299376D01*
X112343553Y-63270819D01*
X112578914Y-63228710D01*
X112747390Y-63170418D01*
X112866055Y-63093315D01*
X112951984Y-62994771D01*
X113022250Y-62872157D01*
X113060916Y-62792434D01*
X113186790Y-62384132D01*
X113151831Y-62022733D01*
X112984499Y-61733675D01*
X112769664Y-61478359D01*
X110592665Y-61452013D01*
X109924445Y-61443207D01*
X109402244Y-61433596D01*
X109002750Y-61421197D01*
X108702652Y-61404028D01*
X108478641Y-61380105D01*
X108307405Y-61347447D01*
X108165634Y-61304069D01*
X108030016Y-61247990D01*
X107992333Y-61230829D01*
X107423445Y-60877411D01*
X106938648Y-60385968D01*
X106551171Y-59772268D01*
X106338553Y-59259645D01*
X106223910Y-58763332D01*
X106175378Y-58191413D01*
X106191364Y-57602381D01*
X106270276Y-57054727D01*
X106410524Y-56606944D01*
X106410764Y-56606411D01*
X106750574Y-56014487D01*
X107185427Y-55552307D01*
X107737072Y-55196963D01*
X107759706Y-55185715D01*
X108326983Y-54906333D01*
X115146667Y-54856783D01*
X115146667Y-57150000D01*
X112202172Y-57150000D01*
X111384888Y-57150262D01*
X110719709Y-57152743D01*
X110189410Y-57159986D01*
X109776761Y-57174533D01*
X109464538Y-57198927D01*
X109235511Y-57235710D01*
X109072454Y-57287425D01*
X108958141Y-57356615D01*
X108875342Y-57445821D01*
X108806833Y-57557587D01*
X108753850Y-57658935D01*
X108650829Y-57987472D01*
X108642827Y-58344772D01*
X108720079Y-58680530D01*
X108872820Y-58944441D01*
X109026368Y-59062818D01*
X109150195Y-59084046D01*
X109418460Y-59106416D01*
X109806286Y-59128655D01*
X110288794Y-59149488D01*
X110841109Y-59167643D01*
X111294333Y-59178911D01*
X113411000Y-59224333D01*
X113919000Y-59473563D01*
X114268495Y-59680991D01*
X114625715Y-59948728D01*
X114822718Y-60128752D01*
X115215600Y-60647789D01*
X115478732Y-61246460D01*
X115613863Y-61897715D01*
X115622742Y-62574505D01*
X115507119Y-63249778D01*
X115268744Y-63896485D01*
X114909365Y-64487574D01*
X114512631Y-64923720D01*
X114350361Y-65071664D01*
X114203494Y-65196903D01*
X114056990Y-65301328D01*
X113895809Y-65386828D01*
X113704910Y-65455295D01*
X113469252Y-65508620D01*
X113173797Y-65548691D01*
X112803502Y-65577401D01*
X112343328Y-65596638D01*
X111778234Y-65608294D01*
X111093181Y-65614260D01*
X110273127Y-65616425D01*
X109303033Y-65616680D01*
X108999529Y-65616666D01*
X104745223Y-65616666D01*
X104139582Y-63732833D01*
X103763910Y-62564301D01*
X103436493Y-61546401D01*
X103153666Y-60668586D01*
X102911764Y-59920309D01*
X102707124Y-59291023D01*
X102536082Y-58770183D01*
X102394972Y-58347241D01*
X102280131Y-58011652D01*
X102187896Y-57752868D01*
X102114601Y-57560344D01*
X102056582Y-57423532D01*
X102010176Y-57331887D01*
X101971717Y-57274861D01*
X101937543Y-57241908D01*
X101903988Y-57222482D01*
X101872845Y-57208559D01*
X101689423Y-57166442D01*
X101546885Y-57251496D01*
X101508510Y-57314118D01*
X101449232Y-57449789D01*
X101366346Y-57666683D01*
X101257148Y-57972974D01*
X101118936Y-58376836D01*
X100949004Y-58886444D01*
X100744651Y-59509973D01*
X100503171Y-60255596D01*
X100221861Y-61131488D01*
X99898017Y-62145824D01*
X99528936Y-63306778D01*
X99179153Y-64410166D01*
X98797079Y-65616666D01*
X97480148Y-65616666D01*
X96980648Y-65615160D01*
X96627346Y-65608940D01*
X96397118Y-65595448D01*
X96266843Y-65572131D01*
X96213399Y-65536434D01*
X96213662Y-65485800D01*
X96216792Y-65477051D01*
X96251389Y-65371649D01*
X96331206Y-65119839D01*
X96451447Y-64736990D01*
X96607318Y-64238472D01*
X96794022Y-63639655D01*
X97006766Y-62955911D01*
X97240753Y-62202607D01*
X97491190Y-61395115D01*
X97623339Y-60968551D01*
X97883144Y-60130896D01*
X98131426Y-59332851D01*
X98363038Y-58590795D01*
X98572833Y-57921106D01*
X98755663Y-57340162D01*
X98906381Y-56864341D01*
X99019840Y-56510021D01*
X99090891Y-56293581D01*
X99107939Y-56244769D01*
X99365809Y-55780818D01*
X99756462Y-55376529D01*
X100249410Y-55046663D01*
X100814163Y-54805983D01*
X101420233Y-54669249D01*
X102037131Y-54651224D01*
X102323043Y-54688125D01*
X102323043Y-54688125D01*
G37*
X102323043Y-54688125D02*
X102998390Y-54885662D01*
X103560918Y-55208854D01*
X104013789Y-55659978D01*
X104296458Y-56109018D01*
X104357201Y-56258911D01*
X104461579Y-56551369D01*
X104603235Y-56967172D01*
X104775811Y-57487098D01*
X104972950Y-58091928D01*
X105188294Y-58762441D01*
X105415487Y-59479417D01*
X105494920Y-59732333D01*
X105721264Y-60452256D01*
X105934308Y-61125252D01*
X106128259Y-61733357D01*
X106297322Y-62258610D01*
X106435705Y-62683045D01*
X106537612Y-62988702D01*
X106597249Y-63157615D01*
X106607775Y-63182500D01*
X106639438Y-63222489D01*
X106699153Y-63254601D01*
X106803996Y-63279689D01*
X106971041Y-63298609D01*
X107217365Y-63312218D01*
X107560044Y-63321369D01*
X108016153Y-63326918D01*
X108602770Y-63329721D01*
X109336969Y-63330633D01*
X109565850Y-63330666D01*
X110391758Y-63330025D01*
X111065408Y-63326349D01*
X111603874Y-63317009D01*
X112024231Y-63299376D01*
X112343553Y-63270819D01*
X112578914Y-63228710D01*
X112747390Y-63170418D01*
X112866055Y-63093315D01*
X112951984Y-62994771D01*
X113022250Y-62872157D01*
X113060916Y-62792434D01*
X113186790Y-62384132D01*
X113151831Y-62022733D01*
X112984499Y-61733675D01*
X112769664Y-61478359D01*
X110592665Y-61452013D01*
X109924445Y-61443207D01*
X109402244Y-61433596D01*
X109002750Y-61421197D01*
X108702652Y-61404028D01*
X108478641Y-61380105D01*
X108307405Y-61347447D01*
X108165634Y-61304069D01*
X108030016Y-61247990D01*
X107992333Y-61230829D01*
X107423445Y-60877411D01*
X106938648Y-60385968D01*
X106551171Y-59772268D01*
X106338553Y-59259645D01*
X106223910Y-58763332D01*
X106175378Y-58191413D01*
X106191364Y-57602381D01*
X106270276Y-57054727D01*
X106410524Y-56606944D01*
X106410764Y-56606411D01*
X106750574Y-56014487D01*
X107185427Y-55552307D01*
X107737072Y-55196963D01*
X107759706Y-55185715D01*
X108326983Y-54906333D01*
X115146667Y-54856783D01*
X115146667Y-57150000D01*
X112202172Y-57150000D01*
X111384888Y-57150262D01*
X110719709Y-57152743D01*
X110189410Y-57159986D01*
X109776761Y-57174533D01*
X109464538Y-57198927D01*
X109235511Y-57235710D01*
X109072454Y-57287425D01*
X108958141Y-57356615D01*
X108875342Y-57445821D01*
X108806833Y-57557587D01*
X108753850Y-57658935D01*
X108650829Y-57987472D01*
X108642827Y-58344772D01*
X108720079Y-58680530D01*
X108872820Y-58944441D01*
X109026368Y-59062818D01*
X109150195Y-59084046D01*
X109418460Y-59106416D01*
X109806286Y-59128655D01*
X110288794Y-59149488D01*
X110841109Y-59167643D01*
X111294333Y-59178911D01*
X113411000Y-59224333D01*
X113919000Y-59473563D01*
X114268495Y-59680991D01*
X114625715Y-59948728D01*
X114822718Y-60128752D01*
X115215600Y-60647789D01*
X115478732Y-61246460D01*
X115613863Y-61897715D01*
X115622742Y-62574505D01*
X115507119Y-63249778D01*
X115268744Y-63896485D01*
X114909365Y-64487574D01*
X114512631Y-64923720D01*
X114350361Y-65071664D01*
X114203494Y-65196903D01*
X114056990Y-65301328D01*
X113895809Y-65386828D01*
X113704910Y-65455295D01*
X113469252Y-65508620D01*
X113173797Y-65548691D01*
X112803502Y-65577401D01*
X112343328Y-65596638D01*
X111778234Y-65608294D01*
X111093181Y-65614260D01*
X110273127Y-65616425D01*
X109303033Y-65616680D01*
X108999529Y-65616666D01*
X104745223Y-65616666D01*
X104139582Y-63732833D01*
X103763910Y-62564301D01*
X103436493Y-61546401D01*
X103153666Y-60668586D01*
X102911764Y-59920309D01*
X102707124Y-59291023D01*
X102536082Y-58770183D01*
X102394972Y-58347241D01*
X102280131Y-58011652D01*
X102187896Y-57752868D01*
X102114601Y-57560344D01*
X102056582Y-57423532D01*
X102010176Y-57331887D01*
X101971717Y-57274861D01*
X101937543Y-57241908D01*
X101903988Y-57222482D01*
X101872845Y-57208559D01*
X101689423Y-57166442D01*
X101546885Y-57251496D01*
X101508510Y-57314118D01*
X101449232Y-57449789D01*
X101366346Y-57666683D01*
X101257148Y-57972974D01*
X101118936Y-58376836D01*
X100949004Y-58886444D01*
X100744651Y-59509973D01*
X100503171Y-60255596D01*
X100221861Y-61131488D01*
X99898017Y-62145824D01*
X99528936Y-63306778D01*
X99179153Y-64410166D01*
X98797079Y-65616666D01*
X97480148Y-65616666D01*
X96980648Y-65615160D01*
X96627346Y-65608940D01*
X96397118Y-65595448D01*
X96266843Y-65572131D01*
X96213399Y-65536434D01*
X96213662Y-65485800D01*
X96216792Y-65477051D01*
X96251389Y-65371649D01*
X96331206Y-65119839D01*
X96451447Y-64736990D01*
X96607318Y-64238472D01*
X96794022Y-63639655D01*
X97006766Y-62955911D01*
X97240753Y-62202607D01*
X97491190Y-61395115D01*
X97623339Y-60968551D01*
X97883144Y-60130896D01*
X98131426Y-59332851D01*
X98363038Y-58590795D01*
X98572833Y-57921106D01*
X98755663Y-57340162D01*
X98906381Y-56864341D01*
X99019840Y-56510021D01*
X99090891Y-56293581D01*
X99107939Y-56244769D01*
X99365809Y-55780818D01*
X99756462Y-55376529D01*
X100249410Y-55046663D01*
X100814163Y-54805983D01*
X101420233Y-54669249D01*
X102037131Y-54651224D01*
X102323043Y-54688125D01*
G36*
X89273939Y-54747380D02*
G01*
X89928368Y-54989040D01*
X90499268Y-55363102D01*
X90969075Y-55862600D01*
X91055148Y-55985649D01*
X91138673Y-56126060D01*
X91225250Y-56305051D01*
X91320217Y-56538822D01*
X91428916Y-56843575D01*
X91556686Y-57235512D01*
X91708868Y-57730834D01*
X91890800Y-58345743D01*
X92107824Y-59096440D01*
X92285600Y-59718847D01*
X92493755Y-60445183D01*
X92692260Y-61128361D01*
X92875400Y-61749402D01*
X93037460Y-62289330D01*
X93172725Y-62729167D01*
X93275481Y-63049934D01*
X93340012Y-63232655D01*
X93351562Y-63258690D01*
X93472996Y-63434230D01*
X93629633Y-63488928D01*
X93751931Y-63483842D01*
X94022333Y-63457666D01*
X94064667Y-59182000D01*
X94107000Y-54906333D01*
X96562333Y-54906333D01*
X96562333Y-59351333D01*
X96561936Y-60343356D01*
X96560432Y-61181070D01*
X96557358Y-61879494D01*
X96552246Y-62453653D01*
X96544633Y-62918566D01*
X96534051Y-63289257D01*
X96520036Y-63580747D01*
X96502122Y-63808057D01*
X96479843Y-63986211D01*
X96452734Y-64130229D01*
X96420329Y-64255133D01*
X96409205Y-64292098D01*
X96192421Y-64772741D01*
X95870717Y-65203487D01*
X95481277Y-65543219D01*
X95101839Y-65737779D01*
X94731711Y-65819755D01*
X94255143Y-65863345D01*
X93730493Y-65869097D01*
X93216117Y-65837559D01*
X92770371Y-65769282D01*
X92568814Y-65713943D01*
X91971356Y-65423823D01*
X91471593Y-65007423D01*
X91312061Y-64818628D01*
X91240353Y-64694872D01*
X91150043Y-64482829D01*
X91037470Y-64171073D01*
X90898971Y-63748178D01*
X90730885Y-63202721D01*
X90529551Y-62523275D01*
X90291307Y-61698415D01*
X90125706Y-61116905D01*
X89914356Y-60375625D01*
X89712896Y-59676673D01*
X89526874Y-59038752D01*
X89361841Y-58480564D01*
X89223346Y-58020812D01*
X89116940Y-57678198D01*
X89048172Y-57471424D01*
X89030852Y-57427389D01*
X88856012Y-57191515D01*
X88632507Y-57087594D01*
X88399646Y-57128170D01*
X88303922Y-57195420D01*
X88266059Y-57234998D01*
X88234438Y-57288880D01*
X88208497Y-57371563D01*
X88187674Y-57497546D01*
X88171409Y-57681327D01*
X88159139Y-57937403D01*
X88150305Y-58280273D01*
X88144344Y-58724433D01*
X88140695Y-59284383D01*
X88138797Y-59974620D01*
X88138088Y-60809641D01*
X88138000Y-61481122D01*
X88138000Y-65616666D01*
X85682667Y-65616666D01*
X85683671Y-61192833D01*
X85684420Y-60144514D01*
X85686978Y-59250976D01*
X85692584Y-58497668D01*
X85702475Y-57870037D01*
X85717891Y-57353533D01*
X85740069Y-56933603D01*
X85770248Y-56595697D01*
X85809667Y-56325263D01*
X85859563Y-56107749D01*
X85921175Y-55928604D01*
X85995741Y-55773277D01*
X86084500Y-55627215D01*
X86167645Y-55505711D01*
X86515338Y-55152429D01*
X86999777Y-54889904D01*
X87625008Y-54716095D01*
X87784758Y-54689118D01*
X88553547Y-54645085D01*
X89273939Y-54747380D01*
X89273939Y-54747380D01*
G37*
X89273939Y-54747380D02*
X89928368Y-54989040D01*
X90499268Y-55363102D01*
X90969075Y-55862600D01*
X91055148Y-55985649D01*
X91138673Y-56126060D01*
X91225250Y-56305051D01*
X91320217Y-56538822D01*
X91428916Y-56843575D01*
X91556686Y-57235512D01*
X91708868Y-57730834D01*
X91890800Y-58345743D01*
X92107824Y-59096440D01*
X92285600Y-59718847D01*
X92493755Y-60445183D01*
X92692260Y-61128361D01*
X92875400Y-61749402D01*
X93037460Y-62289330D01*
X93172725Y-62729167D01*
X93275481Y-63049934D01*
X93340012Y-63232655D01*
X93351562Y-63258690D01*
X93472996Y-63434230D01*
X93629633Y-63488928D01*
X93751931Y-63483842D01*
X94022333Y-63457666D01*
X94064667Y-59182000D01*
X94107000Y-54906333D01*
X96562333Y-54906333D01*
X96562333Y-59351333D01*
X96561936Y-60343356D01*
X96560432Y-61181070D01*
X96557358Y-61879494D01*
X96552246Y-62453653D01*
X96544633Y-62918566D01*
X96534051Y-63289257D01*
X96520036Y-63580747D01*
X96502122Y-63808057D01*
X96479843Y-63986211D01*
X96452734Y-64130229D01*
X96420329Y-64255133D01*
X96409205Y-64292098D01*
X96192421Y-64772741D01*
X95870717Y-65203487D01*
X95481277Y-65543219D01*
X95101839Y-65737779D01*
X94731711Y-65819755D01*
X94255143Y-65863345D01*
X93730493Y-65869097D01*
X93216117Y-65837559D01*
X92770371Y-65769282D01*
X92568814Y-65713943D01*
X91971356Y-65423823D01*
X91471593Y-65007423D01*
X91312061Y-64818628D01*
X91240353Y-64694872D01*
X91150043Y-64482829D01*
X91037470Y-64171073D01*
X90898971Y-63748178D01*
X90730885Y-63202721D01*
X90529551Y-62523275D01*
X90291307Y-61698415D01*
X90125706Y-61116905D01*
X89914356Y-60375625D01*
X89712896Y-59676673D01*
X89526874Y-59038752D01*
X89361841Y-58480564D01*
X89223346Y-58020812D01*
X89116940Y-57678198D01*
X89048172Y-57471424D01*
X89030852Y-57427389D01*
X88856012Y-57191515D01*
X88632507Y-57087594D01*
X88399646Y-57128170D01*
X88303922Y-57195420D01*
X88266059Y-57234998D01*
X88234438Y-57288880D01*
X88208497Y-57371563D01*
X88187674Y-57497546D01*
X88171409Y-57681327D01*
X88159139Y-57937403D01*
X88150305Y-58280273D01*
X88144344Y-58724433D01*
X88140695Y-59284383D01*
X88138797Y-59974620D01*
X88138088Y-60809641D01*
X88138000Y-61481122D01*
X88138000Y-65616666D01*
X85682667Y-65616666D01*
X85683671Y-61192833D01*
X85684420Y-60144514D01*
X85686978Y-59250976D01*
X85692584Y-58497668D01*
X85702475Y-57870037D01*
X85717891Y-57353533D01*
X85740069Y-56933603D01*
X85770248Y-56595697D01*
X85809667Y-56325263D01*
X85859563Y-56107749D01*
X85921175Y-55928604D01*
X85995741Y-55773277D01*
X86084500Y-55627215D01*
X86167645Y-55505711D01*
X86515338Y-55152429D01*
X86999777Y-54889904D01*
X87625008Y-54716095D01*
X87784758Y-54689118D01*
X88553547Y-54645085D01*
X89273939Y-54747380D01*
D12*
X139192000Y-42926000D02*
X139192000Y-77978000D01*
X74168000Y-42926000D02*
X74168000Y-77978000D01*
X74168000Y-42926000D02*
X139192000Y-42926000D01*
X74168000Y-77978000D02*
X139192000Y-77978000D01*
X69088462Y-70924000D02*
G75*
G03X67543170Y-76474000I-462J-2990000D01*
G01*
X69087538Y-70924000D02*
G75*
G02X70632830Y-76474000I462J-2990000D01*
G01*
X71588000Y-73914000D02*
G75*
G03X71588000Y-73914000I-2500000J0D01*
G01*
X67543000Y-76474000D02*
X70633000Y-76474000D01*
X50546000Y-46990000D02*
X60706000Y-46990000D01*
X50546000Y-45720000D02*
X50546000Y-53340000D01*
X50546000Y-53340000D02*
X60706000Y-53340000D01*
X60706000Y-53340000D02*
X60706000Y-45720000D01*
X60706000Y-45720000D02*
X50546000Y-45720000D01*
X54360000Y-63928000D02*
X54360000Y-69168000D01*
X54360000Y-69168000D02*
X70100000Y-69168000D01*
X70100000Y-69168000D02*
X70100000Y-63928000D01*
X70100000Y-63928000D02*
X54360000Y-63928000D01*
X53510000Y-66548000D02*
X54360000Y-66548000D01*
X70950000Y-66548000D02*
X70100000Y-66548000D01*
X52324000Y-78486000D02*
X52578000Y-97790000D01*
X52578000Y-97790000D02*
X94742000Y-97790000D01*
X94742000Y-97790000D02*
X94742000Y-78232000D01*
X94742000Y-78232000D02*
X52324000Y-78232000D01*
X52324000Y-78232000D02*
X52324000Y-78486000D01*
X97028000Y-78232000D02*
X97028000Y-78486000D01*
X139446000Y-78232000D02*
X97028000Y-78232000D01*
X139446000Y-97790000D02*
X139446000Y-78232000D01*
X97282000Y-97790000D02*
X139446000Y-97790000D01*
X97028000Y-78486000D02*
X97282000Y-97790000D01*
X147066000Y-46736000D02*
X147066000Y-56896000D01*
X148336000Y-46736000D02*
X140716000Y-46736000D01*
X140716000Y-46736000D02*
X140716000Y-56896000D01*
X140716000Y-56896000D02*
X148336000Y-56896000D01*
X148336000Y-56896000D02*
X148336000Y-46736000D01*
X140716000Y-89154000D02*
X148336000Y-89154000D01*
X148336000Y-68834000D02*
X140716000Y-68834000D01*
X147066000Y-68834000D02*
X147066000Y-89154000D01*
X140716000Y-89154000D02*
X140716000Y-68834000D01*
X148336000Y-89154000D02*
X148336000Y-68834000D01*
X72390000Y-45720000D02*
X62230000Y-45720000D01*
X72390000Y-53340000D02*
X72390000Y-45720000D01*
X62230000Y-53340000D02*
X72390000Y-53340000D01*
X62230000Y-45720000D02*
X62230000Y-53340000D01*
X62230000Y-46990000D02*
X72390000Y-46990000D01*
X52324000Y-57658000D02*
X52324000Y-60960000D01*
X52324000Y-60960000D02*
X69342000Y-60960000D01*
X69342000Y-60960000D02*
X69342000Y-57912000D01*
X69342000Y-57912000D02*
X69342000Y-57658000D01*
X69342000Y-57658000D02*
X52324000Y-57658000D01*
D16*
X139898380Y-64071333D02*
X139422190Y-64404666D01*
X139898380Y-64642761D02*
X138898380Y-64642761D01*
X138898380Y-64261809D01*
X138946000Y-64166571D01*
X138993619Y-64118952D01*
X139088857Y-64071333D01*
X139231714Y-64071333D01*
X139326952Y-64118952D01*
X139374571Y-64166571D01*
X139422190Y-64261809D01*
X139422190Y-64642761D01*
X139374571Y-63642761D02*
X139374571Y-63309428D01*
X139898380Y-63166571D02*
X139898380Y-63642761D01*
X138898380Y-63642761D01*
X138898380Y-63166571D01*
X139374571Y-62404666D02*
X139374571Y-62738000D01*
X139898380Y-62738000D02*
X138898380Y-62738000D01*
X138898380Y-62261809D01*
X138898380Y-61738000D02*
X139136476Y-61738000D01*
X139041238Y-61976095D02*
X139136476Y-61738000D01*
X139041238Y-61499904D01*
X139326952Y-61880857D02*
X139136476Y-61738000D01*
X139326952Y-61595142D01*
X138898380Y-60976095D02*
X139136476Y-60976095D01*
X139041238Y-61214190D02*
X139136476Y-60976095D01*
X139041238Y-60738000D01*
X139326952Y-61118952D02*
X139136476Y-60976095D01*
X139326952Y-60833238D01*
D14*
X102164000Y-52014380D02*
X101592571Y-52014380D01*
X101878285Y-52014380D02*
X101878285Y-51014380D01*
X101783047Y-51157238D01*
X101687809Y-51252476D01*
X101592571Y-51300095D01*
X102544952Y-51109619D02*
X102592571Y-51062000D01*
X102687809Y-51014380D01*
X102925904Y-51014380D01*
X103021142Y-51062000D01*
X103068761Y-51109619D01*
X103116380Y-51204857D01*
X103116380Y-51300095D01*
X103068761Y-51442952D01*
X102497333Y-52014380D01*
X103116380Y-52014380D01*
X103402095Y-51014380D02*
X103735428Y-52014380D01*
X104068761Y-51014380D01*
X105164000Y-52014380D02*
X105164000Y-51014380D01*
X105497333Y-51728666D01*
X105830666Y-51014380D01*
X105830666Y-52014380D01*
X106497333Y-51014380D02*
X106687809Y-51014380D01*
X106783047Y-51062000D01*
X106878285Y-51157238D01*
X106925904Y-51347714D01*
X106925904Y-51681047D01*
X106878285Y-51871523D01*
X106783047Y-51966761D01*
X106687809Y-52014380D01*
X106497333Y-52014380D01*
X106402095Y-51966761D01*
X106306857Y-51871523D01*
X106259238Y-51681047D01*
X106259238Y-51347714D01*
X106306857Y-51157238D01*
X106402095Y-51062000D01*
X106497333Y-51014380D01*
X107211619Y-51014380D02*
X107783047Y-51014380D01*
X107497333Y-52014380D02*
X107497333Y-51014380D01*
X108306857Y-51014380D02*
X108497333Y-51014380D01*
X108592571Y-51062000D01*
X108687809Y-51157238D01*
X108735428Y-51347714D01*
X108735428Y-51681047D01*
X108687809Y-51871523D01*
X108592571Y-51966761D01*
X108497333Y-52014380D01*
X108306857Y-52014380D01*
X108211619Y-51966761D01*
X108116380Y-51871523D01*
X108068761Y-51681047D01*
X108068761Y-51347714D01*
X108116380Y-51157238D01*
X108211619Y-51062000D01*
X108306857Y-51014380D01*
X109735428Y-52014380D02*
X109402095Y-51538190D01*
X109164000Y-52014380D02*
X109164000Y-51014380D01*
X109544952Y-51014380D01*
X109640190Y-51062000D01*
X109687809Y-51109619D01*
X109735428Y-51204857D01*
X109735428Y-51347714D01*
X109687809Y-51442952D01*
X109640190Y-51490571D01*
X109544952Y-51538190D01*
X109164000Y-51538190D01*
D16*
X65580380Y-74652095D02*
X64580380Y-74652095D01*
X64580380Y-74414000D01*
X64628000Y-74271142D01*
X64723238Y-74175904D01*
X64818476Y-74128285D01*
X65008952Y-74080666D01*
X65151809Y-74080666D01*
X65342285Y-74128285D01*
X65437523Y-74175904D01*
X65532761Y-74271142D01*
X65580380Y-74414000D01*
X65580380Y-74652095D01*
X65580380Y-73128285D02*
X65580380Y-73699714D01*
X65580380Y-73414000D02*
X64580380Y-73414000D01*
X64723238Y-73509238D01*
X64818476Y-73604476D01*
X64866095Y-73699714D01*
X51387904Y-55062380D02*
X51387904Y-54062380D01*
X51864095Y-54395714D02*
X51864095Y-55062380D01*
X51864095Y-54490952D02*
X51911714Y-54443333D01*
X52006952Y-54395714D01*
X52149809Y-54395714D01*
X52245047Y-54443333D01*
X52292666Y-54538571D01*
X52292666Y-55062380D01*
X52768857Y-54395714D02*
X52768857Y-55395714D01*
X52768857Y-54443333D02*
X52864095Y-54395714D01*
X53054571Y-54395714D01*
X53149809Y-54443333D01*
X53197428Y-54490952D01*
X53245047Y-54586190D01*
X53245047Y-54871904D01*
X53197428Y-54967142D01*
X53149809Y-55014761D01*
X53054571Y-55062380D01*
X52864095Y-55062380D01*
X52768857Y-55014761D01*
X54102190Y-54395714D02*
X54102190Y-55062380D01*
X53673619Y-54395714D02*
X53673619Y-54919523D01*
X53721238Y-55014761D01*
X53816476Y-55062380D01*
X53959333Y-55062380D01*
X54054571Y-55014761D01*
X54102190Y-54967142D01*
X54435523Y-54395714D02*
X54816476Y-54395714D01*
X54578380Y-54062380D02*
X54578380Y-54919523D01*
X54626000Y-55014761D01*
X54721238Y-55062380D01*
X54816476Y-55062380D01*
X55911714Y-55062380D02*
X55911714Y-54062380D01*
X56292666Y-54062380D01*
X56387904Y-54110000D01*
X56435523Y-54157619D01*
X56483142Y-54252857D01*
X56483142Y-54395714D01*
X56435523Y-54490952D01*
X56387904Y-54538571D01*
X56292666Y-54586190D01*
X55911714Y-54586190D01*
X57054571Y-55062380D02*
X56959333Y-55014761D01*
X56911714Y-54967142D01*
X56864095Y-54871904D01*
X56864095Y-54586190D01*
X56911714Y-54490952D01*
X56959333Y-54443333D01*
X57054571Y-54395714D01*
X57197428Y-54395714D01*
X57292666Y-54443333D01*
X57340285Y-54490952D01*
X57387904Y-54586190D01*
X57387904Y-54871904D01*
X57340285Y-54967142D01*
X57292666Y-55014761D01*
X57197428Y-55062380D01*
X57054571Y-55062380D01*
X57721238Y-54395714D02*
X57911714Y-55062380D01*
X58102190Y-54586190D01*
X58292666Y-55062380D01*
X58483142Y-54395714D01*
X59245047Y-55014761D02*
X59149809Y-55062380D01*
X58959333Y-55062380D01*
X58864095Y-55014761D01*
X58816476Y-54919523D01*
X58816476Y-54538571D01*
X58864095Y-54443333D01*
X58959333Y-54395714D01*
X59149809Y-54395714D01*
X59245047Y-54443333D01*
X59292666Y-54538571D01*
X59292666Y-54633809D01*
X58816476Y-54729047D01*
X59721238Y-55062380D02*
X59721238Y-54395714D01*
X59721238Y-54586190D02*
X59768857Y-54490952D01*
X59816476Y-54443333D01*
X59911714Y-54395714D01*
X60006952Y-54395714D01*
X62317333Y-63190380D02*
X61984000Y-62714190D01*
X61745904Y-63190380D02*
X61745904Y-62190380D01*
X62126857Y-62190380D01*
X62222095Y-62238000D01*
X62269714Y-62285619D01*
X62317333Y-62380857D01*
X62317333Y-62523714D01*
X62269714Y-62618952D01*
X62222095Y-62666571D01*
X62126857Y-62714190D01*
X61745904Y-62714190D01*
X63269714Y-63190380D02*
X62698285Y-63190380D01*
X62984000Y-63190380D02*
X62984000Y-62190380D01*
X62888761Y-62333238D01*
X62793523Y-62428476D01*
X62698285Y-62476095D01*
X68072476Y-80716380D02*
X67501047Y-80716380D01*
X67786761Y-80716380D02*
X67786761Y-79716380D01*
X67691523Y-79859238D01*
X67596285Y-79954476D01*
X67501047Y-80002095D01*
X68453428Y-79811619D02*
X68501047Y-79764000D01*
X68596285Y-79716380D01*
X68834380Y-79716380D01*
X68929619Y-79764000D01*
X68977238Y-79811619D01*
X69024857Y-79906857D01*
X69024857Y-80002095D01*
X68977238Y-80144952D01*
X68405809Y-80716380D01*
X69024857Y-80716380D01*
X69310571Y-79716380D02*
X69643904Y-80716380D01*
X69977238Y-79716380D01*
X71501047Y-80716380D02*
X71501047Y-80192571D01*
X71453428Y-80097333D01*
X71358190Y-80049714D01*
X71167714Y-80049714D01*
X71072476Y-80097333D01*
X71501047Y-80668761D02*
X71405809Y-80716380D01*
X71167714Y-80716380D01*
X71072476Y-80668761D01*
X71024857Y-80573523D01*
X71024857Y-80478285D01*
X71072476Y-80383047D01*
X71167714Y-80335428D01*
X71405809Y-80335428D01*
X71501047Y-80287809D01*
X71977238Y-80716380D02*
X71977238Y-80049714D01*
X71977238Y-80240190D02*
X72024857Y-80144952D01*
X72072476Y-80097333D01*
X72167714Y-80049714D01*
X72262952Y-80049714D01*
X73024857Y-80716380D02*
X73024857Y-79716380D01*
X73024857Y-80668761D02*
X72929619Y-80716380D01*
X72739142Y-80716380D01*
X72643904Y-80668761D01*
X72596285Y-80621142D01*
X72548666Y-80525904D01*
X72548666Y-80240190D01*
X72596285Y-80144952D01*
X72643904Y-80097333D01*
X72739142Y-80049714D01*
X72929619Y-80049714D01*
X73024857Y-80097333D01*
X73929619Y-80049714D02*
X73929619Y-80716380D01*
X73501047Y-80049714D02*
X73501047Y-80573523D01*
X73548666Y-80668761D01*
X73643904Y-80716380D01*
X73786761Y-80716380D01*
X73882000Y-80668761D01*
X73929619Y-80621142D01*
X74405809Y-80716380D02*
X74405809Y-80049714D01*
X74405809Y-79716380D02*
X74358190Y-79764000D01*
X74405809Y-79811619D01*
X74453428Y-79764000D01*
X74405809Y-79716380D01*
X74405809Y-79811619D01*
X74882000Y-80049714D02*
X74882000Y-80716380D01*
X74882000Y-80144952D02*
X74929619Y-80097333D01*
X75024857Y-80049714D01*
X75167714Y-80049714D01*
X75262952Y-80097333D01*
X75310571Y-80192571D01*
X75310571Y-80716380D01*
X75929619Y-80716380D02*
X75834380Y-80668761D01*
X75786761Y-80621142D01*
X75739142Y-80525904D01*
X75739142Y-80240190D01*
X75786761Y-80144952D01*
X75834380Y-80097333D01*
X75929619Y-80049714D01*
X76072476Y-80049714D01*
X76167714Y-80097333D01*
X76215333Y-80144952D01*
X76262952Y-80240190D01*
X76262952Y-80525904D01*
X76215333Y-80621142D01*
X76167714Y-80668761D01*
X76072476Y-80716380D01*
X75929619Y-80716380D01*
X114546476Y-79462380D02*
X114070285Y-79462380D01*
X114022666Y-79938571D01*
X114070285Y-79890952D01*
X114165523Y-79843333D01*
X114403619Y-79843333D01*
X114498857Y-79890952D01*
X114546476Y-79938571D01*
X114594095Y-80033809D01*
X114594095Y-80271904D01*
X114546476Y-80367142D01*
X114498857Y-80414761D01*
X114403619Y-80462380D01*
X114165523Y-80462380D01*
X114070285Y-80414761D01*
X114022666Y-80367142D01*
X114927428Y-79795714D02*
X115165523Y-80462380D01*
X115403619Y-79795714D01*
X116498857Y-80176666D02*
X116975047Y-80176666D01*
X116403619Y-80462380D02*
X116736952Y-79462380D01*
X117070285Y-80462380D01*
X117403619Y-80462380D02*
X117403619Y-79795714D01*
X117403619Y-79986190D02*
X117451238Y-79890952D01*
X117498857Y-79843333D01*
X117594095Y-79795714D01*
X117689333Y-79795714D01*
X118451238Y-80462380D02*
X118451238Y-79462380D01*
X118451238Y-80414761D02*
X118356000Y-80462380D01*
X118165523Y-80462380D01*
X118070285Y-80414761D01*
X118022666Y-80367142D01*
X117975047Y-80271904D01*
X117975047Y-79986190D01*
X118022666Y-79890952D01*
X118070285Y-79843333D01*
X118165523Y-79795714D01*
X118356000Y-79795714D01*
X118451238Y-79843333D01*
X119356000Y-79795714D02*
X119356000Y-80462380D01*
X118927428Y-79795714D02*
X118927428Y-80319523D01*
X118975047Y-80414761D01*
X119070285Y-80462380D01*
X119213142Y-80462380D01*
X119308380Y-80414761D01*
X119356000Y-80367142D01*
X119832190Y-80462380D02*
X119832190Y-79795714D01*
X119832190Y-79462380D02*
X119784571Y-79510000D01*
X119832190Y-79557619D01*
X119879809Y-79510000D01*
X119832190Y-79462380D01*
X119832190Y-79557619D01*
X120308380Y-79795714D02*
X120308380Y-80462380D01*
X120308380Y-79890952D02*
X120356000Y-79843333D01*
X120451238Y-79795714D01*
X120594095Y-79795714D01*
X120689333Y-79843333D01*
X120736952Y-79938571D01*
X120736952Y-80462380D01*
X121356000Y-80462380D02*
X121260761Y-80414761D01*
X121213142Y-80367142D01*
X121165523Y-80271904D01*
X121165523Y-79986190D01*
X121213142Y-79890952D01*
X121260761Y-79843333D01*
X121356000Y-79795714D01*
X121498857Y-79795714D01*
X121594095Y-79843333D01*
X121641714Y-79890952D01*
X121689333Y-79986190D01*
X121689333Y-80271904D01*
X121641714Y-80367142D01*
X121594095Y-80414761D01*
X121498857Y-80462380D01*
X121356000Y-80462380D01*
X139898380Y-53649333D02*
X138898380Y-53649333D01*
X139612666Y-53316000D01*
X138898380Y-52982666D01*
X139898380Y-52982666D01*
X139898380Y-52363619D02*
X139850761Y-52458857D01*
X139803142Y-52506476D01*
X139707904Y-52554095D01*
X139422190Y-52554095D01*
X139326952Y-52506476D01*
X139279333Y-52458857D01*
X139231714Y-52363619D01*
X139231714Y-52220761D01*
X139279333Y-52125523D01*
X139326952Y-52077904D01*
X139422190Y-52030285D01*
X139707904Y-52030285D01*
X139803142Y-52077904D01*
X139850761Y-52125523D01*
X139898380Y-52220761D01*
X139898380Y-52363619D01*
X139231714Y-51744571D02*
X139231714Y-51363619D01*
X138898380Y-51601714D02*
X139755523Y-51601714D01*
X139850761Y-51554095D01*
X139898380Y-51458857D01*
X139898380Y-51363619D01*
X139898380Y-50887428D02*
X139850761Y-50982666D01*
X139803142Y-51030285D01*
X139707904Y-51077904D01*
X139422190Y-51077904D01*
X139326952Y-51030285D01*
X139279333Y-50982666D01*
X139231714Y-50887428D01*
X139231714Y-50744571D01*
X139279333Y-50649333D01*
X139326952Y-50601714D01*
X139422190Y-50554095D01*
X139707904Y-50554095D01*
X139803142Y-50601714D01*
X139850761Y-50649333D01*
X139898380Y-50744571D01*
X139898380Y-50887428D01*
X139898380Y-50125523D02*
X139231714Y-50125523D01*
X139422190Y-50125523D02*
X139326952Y-50077904D01*
X139279333Y-50030285D01*
X139231714Y-49935047D01*
X139231714Y-49839809D01*
X139612666Y-76509238D02*
X139612666Y-76033047D01*
X139898380Y-76604476D02*
X138898380Y-76271142D01*
X139898380Y-75937809D01*
X139898380Y-75604476D02*
X139231714Y-75604476D01*
X139422190Y-75604476D02*
X139326952Y-75556857D01*
X139279333Y-75509238D01*
X139231714Y-75414000D01*
X139231714Y-75318761D01*
X139898380Y-74556857D02*
X138898380Y-74556857D01*
X139850761Y-74556857D02*
X139898380Y-74652095D01*
X139898380Y-74842571D01*
X139850761Y-74937809D01*
X139803142Y-74985428D01*
X139707904Y-75033047D01*
X139422190Y-75033047D01*
X139326952Y-74985428D01*
X139279333Y-74937809D01*
X139231714Y-74842571D01*
X139231714Y-74652095D01*
X139279333Y-74556857D01*
X139231714Y-73652095D02*
X139898380Y-73652095D01*
X139231714Y-74080666D02*
X139755523Y-74080666D01*
X139850761Y-74033047D01*
X139898380Y-73937809D01*
X139898380Y-73794952D01*
X139850761Y-73699714D01*
X139803142Y-73652095D01*
X139898380Y-73175904D02*
X139231714Y-73175904D01*
X138898380Y-73175904D02*
X138946000Y-73223523D01*
X138993619Y-73175904D01*
X138946000Y-73128285D01*
X138898380Y-73175904D01*
X138993619Y-73175904D01*
X139231714Y-72699714D02*
X139898380Y-72699714D01*
X139326952Y-72699714D02*
X139279333Y-72652095D01*
X139231714Y-72556857D01*
X139231714Y-72414000D01*
X139279333Y-72318761D01*
X139374571Y-72271142D01*
X139898380Y-72271142D01*
X139898380Y-71652095D02*
X139850761Y-71747333D01*
X139803142Y-71794952D01*
X139707904Y-71842571D01*
X139422190Y-71842571D01*
X139326952Y-71794952D01*
X139279333Y-71747333D01*
X139231714Y-71652095D01*
X139231714Y-71509238D01*
X139279333Y-71414000D01*
X139326952Y-71366380D01*
X139422190Y-71318761D01*
X139707904Y-71318761D01*
X139803142Y-71366380D01*
X139850761Y-71414000D01*
X139898380Y-71509238D01*
X139898380Y-71652095D01*
X65476666Y-55062380D02*
X65476666Y-54062380D01*
X65810000Y-54776666D01*
X66143333Y-54062380D01*
X66143333Y-55062380D01*
X66762380Y-55062380D02*
X66667142Y-55014761D01*
X66619523Y-54967142D01*
X66571904Y-54871904D01*
X66571904Y-54586190D01*
X66619523Y-54490952D01*
X66667142Y-54443333D01*
X66762380Y-54395714D01*
X66905238Y-54395714D01*
X67000476Y-54443333D01*
X67048095Y-54490952D01*
X67095714Y-54586190D01*
X67095714Y-54871904D01*
X67048095Y-54967142D01*
X67000476Y-55014761D01*
X66905238Y-55062380D01*
X66762380Y-55062380D01*
X67381428Y-54395714D02*
X67762380Y-54395714D01*
X67524285Y-54062380D02*
X67524285Y-54919523D01*
X67571904Y-55014761D01*
X67667142Y-55062380D01*
X67762380Y-55062380D01*
X68238571Y-55062380D02*
X68143333Y-55014761D01*
X68095714Y-54967142D01*
X68048095Y-54871904D01*
X68048095Y-54586190D01*
X68095714Y-54490952D01*
X68143333Y-54443333D01*
X68238571Y-54395714D01*
X68381428Y-54395714D01*
X68476666Y-54443333D01*
X68524285Y-54490952D01*
X68571904Y-54586190D01*
X68571904Y-54871904D01*
X68524285Y-54967142D01*
X68476666Y-55014761D01*
X68381428Y-55062380D01*
X68238571Y-55062380D01*
X69000476Y-55062380D02*
X69000476Y-54395714D01*
X69000476Y-54586190D02*
X69048095Y-54490952D01*
X69095714Y-54443333D01*
X69190952Y-54395714D01*
X69286190Y-54395714D01*
X59309142Y-59618571D02*
X58975809Y-59618571D01*
X58975809Y-60142380D02*
X58975809Y-59142380D01*
X59452000Y-59142380D01*
X60261523Y-59475714D02*
X60261523Y-60142380D01*
X59832952Y-59475714D02*
X59832952Y-59999523D01*
X59880571Y-60094761D01*
X59975809Y-60142380D01*
X60118666Y-60142380D01*
X60213904Y-60094761D01*
X60261523Y-60047142D01*
X60690095Y-60094761D02*
X60785333Y-60142380D01*
X60975809Y-60142380D01*
X61071047Y-60094761D01*
X61118666Y-59999523D01*
X61118666Y-59951904D01*
X61071047Y-59856666D01*
X60975809Y-59809047D01*
X60832952Y-59809047D01*
X60737714Y-59761428D01*
X60690095Y-59666190D01*
X60690095Y-59618571D01*
X60737714Y-59523333D01*
X60832952Y-59475714D01*
X60975809Y-59475714D01*
X61071047Y-59523333D01*
X61928190Y-60094761D02*
X61832952Y-60142380D01*
X61642476Y-60142380D01*
X61547238Y-60094761D01*
X61499619Y-59999523D01*
X61499619Y-59618571D01*
X61547238Y-59523333D01*
X61642476Y-59475714D01*
X61832952Y-59475714D01*
X61928190Y-59523333D01*
X61975809Y-59618571D01*
X61975809Y-59713809D01*
X61499619Y-59809047D01*
M02*
