%FSLAX45Y45*%
G04 Gerber Fmt 4.5, Leading zero omitted, Abs format (unit mm)*
G04 Created by KiCad (PCBNEW (5.1.4)-1) date 2019-09-01 07:34:50*
%MOMM*%
%LPD*%
G04 APERTURE LIST*
%ADD10C,0.050000*%
%ADD11C,0.200000*%
%ADD12C,0.300000*%
G04 APERTURE END LIST*
D10*
X4191000Y-6985000D02*
X4191000Y-4191000D01*
X7874000Y-6985000D02*
X4191000Y-6985000D01*
X7874000Y-4191000D02*
X7874000Y-6985000D01*
X7747000Y-4191000D02*
X7874000Y-4191000D01*
X4191000Y-4191000D02*
X7747000Y-4191000D01*
D11*
X5676900Y-3289300D02*
X6007100Y-3619500D01*
X6007100Y-3289300D02*
X5676900Y-3619500D01*
D12*
X4474928Y-7453214D02*
X4474928Y-7153214D01*
X4546357Y-7153214D01*
X4589214Y-7167500D01*
X4617786Y-7196071D01*
X4632071Y-7224643D01*
X4646357Y-7281786D01*
X4646357Y-7324643D01*
X4632071Y-7381786D01*
X4617786Y-7410357D01*
X4589214Y-7438929D01*
X4546357Y-7453214D01*
X4474928Y-7453214D01*
X4774928Y-7453214D02*
X4774928Y-7253214D01*
X4774928Y-7310357D02*
X4789214Y-7281786D01*
X4803500Y-7267500D01*
X4832071Y-7253214D01*
X4860643Y-7253214D01*
X4960643Y-7453214D02*
X4960643Y-7253214D01*
X4960643Y-7153214D02*
X4946357Y-7167500D01*
X4960643Y-7181786D01*
X4974928Y-7167500D01*
X4960643Y-7153214D01*
X4960643Y-7181786D01*
X5146357Y-7453214D02*
X5117786Y-7438929D01*
X5103500Y-7410357D01*
X5103500Y-7153214D01*
X5303500Y-7453214D02*
X5274928Y-7438929D01*
X5260643Y-7410357D01*
X5260643Y-7153214D01*
X5646357Y-7453214D02*
X5646357Y-7153214D01*
X5746357Y-7367500D01*
X5846357Y-7153214D01*
X5846357Y-7453214D01*
X6117786Y-7453214D02*
X6117786Y-7296071D01*
X6103500Y-7267500D01*
X6074928Y-7253214D01*
X6017786Y-7253214D01*
X5989214Y-7267500D01*
X6117786Y-7438929D02*
X6089214Y-7453214D01*
X6017786Y-7453214D01*
X5989214Y-7438929D01*
X5974928Y-7410357D01*
X5974928Y-7381786D01*
X5989214Y-7353214D01*
X6017786Y-7338929D01*
X6089214Y-7338929D01*
X6117786Y-7324643D01*
X6260643Y-7253214D02*
X6260643Y-7553214D01*
X6260643Y-7267500D02*
X6289214Y-7253214D01*
X6346357Y-7253214D01*
X6374928Y-7267500D01*
X6389214Y-7281786D01*
X6403500Y-7310357D01*
X6403500Y-7396071D01*
X6389214Y-7424643D01*
X6374928Y-7438929D01*
X6346357Y-7453214D01*
X6289214Y-7453214D01*
X6260643Y-7438929D01*
X6532071Y-7424643D02*
X6546357Y-7438929D01*
X6532071Y-7453214D01*
X6517786Y-7438929D01*
X6532071Y-7424643D01*
X6532071Y-7453214D01*
X6532071Y-7267500D02*
X6546357Y-7281786D01*
X6532071Y-7296071D01*
X6517786Y-7281786D01*
X6532071Y-7267500D01*
X6532071Y-7296071D01*
X3858300Y-7782400D02*
X4188500Y-8112600D01*
X4188500Y-7782400D02*
X3858300Y-8112600D01*
X4446357Y-7783214D02*
X4632071Y-7783214D01*
X4532071Y-7897500D01*
X4574928Y-7897500D01*
X4603500Y-7911786D01*
X4617786Y-7926071D01*
X4632071Y-7954643D01*
X4632071Y-8026071D01*
X4617786Y-8054643D01*
X4603500Y-8068929D01*
X4574928Y-8083214D01*
X4489214Y-8083214D01*
X4460643Y-8068929D01*
X4446357Y-8054643D01*
X4760643Y-8054643D02*
X4774928Y-8068929D01*
X4760643Y-8083214D01*
X4746357Y-8068929D01*
X4760643Y-8054643D01*
X4760643Y-8083214D01*
X4874928Y-7783214D02*
X5060643Y-7783214D01*
X4960643Y-7897500D01*
X5003500Y-7897500D01*
X5032071Y-7911786D01*
X5046357Y-7926071D01*
X5060643Y-7954643D01*
X5060643Y-8026071D01*
X5046357Y-8054643D01*
X5032071Y-8068929D01*
X5003500Y-8083214D01*
X4917786Y-8083214D01*
X4889214Y-8068929D01*
X4874928Y-8054643D01*
X5246357Y-7783214D02*
X5274928Y-7783214D01*
X5303500Y-7797500D01*
X5317786Y-7811786D01*
X5332071Y-7840357D01*
X5346357Y-7897500D01*
X5346357Y-7968929D01*
X5332071Y-8026071D01*
X5317786Y-8054643D01*
X5303500Y-8068929D01*
X5274928Y-8083214D01*
X5246357Y-8083214D01*
X5217786Y-8068929D01*
X5203500Y-8054643D01*
X5189214Y-8026071D01*
X5174928Y-7968929D01*
X5174928Y-7897500D01*
X5189214Y-7840357D01*
X5203500Y-7811786D01*
X5217786Y-7797500D01*
X5246357Y-7783214D01*
X5474928Y-8083214D02*
X5474928Y-7883214D01*
X5474928Y-7911786D02*
X5489214Y-7897500D01*
X5517786Y-7883214D01*
X5560643Y-7883214D01*
X5589214Y-7897500D01*
X5603500Y-7926071D01*
X5603500Y-8083214D01*
X5603500Y-7926071D02*
X5617786Y-7897500D01*
X5646357Y-7883214D01*
X5689214Y-7883214D01*
X5717786Y-7897500D01*
X5732071Y-7926071D01*
X5732071Y-8083214D01*
X5874928Y-8083214D02*
X5874928Y-7883214D01*
X5874928Y-7911786D02*
X5889214Y-7897500D01*
X5917786Y-7883214D01*
X5960643Y-7883214D01*
X5989214Y-7897500D01*
X6003500Y-7926071D01*
X6003500Y-8083214D01*
X6003500Y-7926071D02*
X6017786Y-7897500D01*
X6046357Y-7883214D01*
X6089214Y-7883214D01*
X6117786Y-7897500D01*
X6132071Y-7926071D01*
X6132071Y-8083214D01*
X6717786Y-7768929D02*
X6460643Y-8154643D01*
X7103500Y-7783214D02*
X7132071Y-7783214D01*
X7160643Y-7797500D01*
X7174928Y-7811786D01*
X7189214Y-7840357D01*
X7203500Y-7897500D01*
X7203500Y-7968929D01*
X7189214Y-8026071D01*
X7174928Y-8054643D01*
X7160643Y-8068929D01*
X7132071Y-8083214D01*
X7103500Y-8083214D01*
X7074928Y-8068929D01*
X7060643Y-8054643D01*
X7046357Y-8026071D01*
X7032071Y-7968929D01*
X7032071Y-7897500D01*
X7046357Y-7840357D01*
X7060643Y-7811786D01*
X7074928Y-7797500D01*
X7103500Y-7783214D01*
X7332071Y-8054643D02*
X7346357Y-8068929D01*
X7332071Y-8083214D01*
X7317786Y-8068929D01*
X7332071Y-8054643D01*
X7332071Y-8083214D01*
X7632071Y-8083214D02*
X7460643Y-8083214D01*
X7546357Y-8083214D02*
X7546357Y-7783214D01*
X7517786Y-7826071D01*
X7489214Y-7854643D01*
X7460643Y-7868929D01*
X7732071Y-7783214D02*
X7917786Y-7783214D01*
X7817786Y-7897500D01*
X7860643Y-7897500D01*
X7889214Y-7911786D01*
X7903500Y-7926071D01*
X7917786Y-7954643D01*
X7917786Y-8026071D01*
X7903500Y-8054643D01*
X7889214Y-8068929D01*
X7860643Y-8083214D01*
X7774928Y-8083214D01*
X7746357Y-8068929D01*
X7732071Y-8054643D01*
X8103500Y-7783214D02*
X8132071Y-7783214D01*
X8160643Y-7797500D01*
X8174928Y-7811786D01*
X8189214Y-7840357D01*
X8203500Y-7897500D01*
X8203500Y-7968929D01*
X8189214Y-8026071D01*
X8174928Y-8054643D01*
X8160643Y-8068929D01*
X8132071Y-8083214D01*
X8103500Y-8083214D01*
X8074928Y-8068929D01*
X8060643Y-8054643D01*
X8046357Y-8026071D01*
X8032071Y-7968929D01*
X8032071Y-7897500D01*
X8046357Y-7840357D01*
X8060643Y-7811786D01*
X8074928Y-7797500D01*
X8103500Y-7783214D01*
X8317786Y-7783214D02*
X8317786Y-7840357D01*
X8432071Y-7783214D02*
X8432071Y-7840357D01*
X8874928Y-8197500D02*
X8860643Y-8183214D01*
X8832071Y-8140357D01*
X8817786Y-8111786D01*
X8803500Y-8068929D01*
X8789214Y-7997500D01*
X8789214Y-7940357D01*
X8803500Y-7868929D01*
X8817786Y-7826071D01*
X8832071Y-7797500D01*
X8860643Y-7754643D01*
X8874928Y-7740357D01*
X9146357Y-8083214D02*
X8974928Y-8083214D01*
X9060643Y-8083214D02*
X9060643Y-7783214D01*
X9032071Y-7826071D01*
X9003500Y-7854643D01*
X8974928Y-7868929D01*
X9503500Y-8083214D02*
X9503500Y-7783214D01*
X9632071Y-8083214D02*
X9632071Y-7926071D01*
X9617786Y-7897500D01*
X9589214Y-7883214D01*
X9546357Y-7883214D01*
X9517786Y-7897500D01*
X9503500Y-7911786D01*
X9817786Y-8083214D02*
X9789214Y-8068929D01*
X9774928Y-8054643D01*
X9760643Y-8026071D01*
X9760643Y-7940357D01*
X9774928Y-7911786D01*
X9789214Y-7897500D01*
X9817786Y-7883214D01*
X9860643Y-7883214D01*
X9889214Y-7897500D01*
X9903500Y-7911786D01*
X9917786Y-7940357D01*
X9917786Y-8026071D01*
X9903500Y-8054643D01*
X9889214Y-8068929D01*
X9860643Y-8083214D01*
X9817786Y-8083214D01*
X10089214Y-8083214D02*
X10060643Y-8068929D01*
X10046357Y-8040357D01*
X10046357Y-7783214D01*
X10317786Y-8068929D02*
X10289214Y-8083214D01*
X10232071Y-8083214D01*
X10203500Y-8068929D01*
X10189214Y-8040357D01*
X10189214Y-7926071D01*
X10203500Y-7897500D01*
X10232071Y-7883214D01*
X10289214Y-7883214D01*
X10317786Y-7897500D01*
X10332071Y-7926071D01*
X10332071Y-7954643D01*
X10189214Y-7983214D01*
X10432071Y-8197500D02*
X10446357Y-8183214D01*
X10474928Y-8140357D01*
X10489214Y-8111786D01*
X10503500Y-8068929D01*
X10517786Y-7997500D01*
X10517786Y-7940357D01*
X10503500Y-7868929D01*
X10489214Y-7826071D01*
X10474928Y-7797500D01*
X10446357Y-7754643D01*
X10432071Y-7740357D01*
X10974928Y-8197500D02*
X10960643Y-8183214D01*
X10932071Y-8140357D01*
X10917786Y-8111786D01*
X10903500Y-8068929D01*
X10889214Y-7997500D01*
X10889214Y-7940357D01*
X10903500Y-7868929D01*
X10917786Y-7826071D01*
X10932071Y-7797500D01*
X10960643Y-7754643D01*
X10974928Y-7740357D01*
X11089214Y-7883214D02*
X11089214Y-8083214D01*
X11089214Y-7911786D02*
X11103500Y-7897500D01*
X11132071Y-7883214D01*
X11174928Y-7883214D01*
X11203500Y-7897500D01*
X11217786Y-7926071D01*
X11217786Y-8083214D01*
X11403500Y-8083214D02*
X11374928Y-8068929D01*
X11360643Y-8054643D01*
X11346357Y-8026071D01*
X11346357Y-7940357D01*
X11360643Y-7911786D01*
X11374928Y-7897500D01*
X11403500Y-7883214D01*
X11446357Y-7883214D01*
X11474928Y-7897500D01*
X11489214Y-7911786D01*
X11503500Y-7940357D01*
X11503500Y-8026071D01*
X11489214Y-8054643D01*
X11474928Y-8068929D01*
X11446357Y-8083214D01*
X11403500Y-8083214D01*
X11589214Y-7883214D02*
X11703500Y-7883214D01*
X11632071Y-7783214D02*
X11632071Y-8040357D01*
X11646357Y-8068929D01*
X11674928Y-8083214D01*
X11703500Y-8083214D01*
X12032071Y-7883214D02*
X12032071Y-8183214D01*
X12032071Y-7897500D02*
X12060643Y-7883214D01*
X12117786Y-7883214D01*
X12146357Y-7897500D01*
X12160643Y-7911786D01*
X12174928Y-7940357D01*
X12174928Y-8026071D01*
X12160643Y-8054643D01*
X12146357Y-8068929D01*
X12117786Y-8083214D01*
X12060643Y-8083214D01*
X12032071Y-8068929D01*
X12346357Y-8083214D02*
X12317786Y-8068929D01*
X12303500Y-8040357D01*
X12303500Y-7783214D01*
X12589214Y-8083214D02*
X12589214Y-7926071D01*
X12574928Y-7897500D01*
X12546357Y-7883214D01*
X12489214Y-7883214D01*
X12460643Y-7897500D01*
X12589214Y-8068929D02*
X12560643Y-8083214D01*
X12489214Y-8083214D01*
X12460643Y-8068929D01*
X12446357Y-8040357D01*
X12446357Y-8011786D01*
X12460643Y-7983214D01*
X12489214Y-7968929D01*
X12560643Y-7968929D01*
X12589214Y-7954643D01*
X12689214Y-7883214D02*
X12803500Y-7883214D01*
X12732071Y-7783214D02*
X12732071Y-8040357D01*
X12746357Y-8068929D01*
X12774928Y-8083214D01*
X12803500Y-8083214D01*
X13017786Y-8068929D02*
X12989214Y-8083214D01*
X12932071Y-8083214D01*
X12903500Y-8068929D01*
X12889214Y-8040357D01*
X12889214Y-7926071D01*
X12903500Y-7897500D01*
X12932071Y-7883214D01*
X12989214Y-7883214D01*
X13017786Y-7897500D01*
X13032071Y-7926071D01*
X13032071Y-7954643D01*
X12889214Y-7983214D01*
X13289214Y-8083214D02*
X13289214Y-7783214D01*
X13289214Y-8068929D02*
X13260643Y-8083214D01*
X13203500Y-8083214D01*
X13174928Y-8068929D01*
X13160643Y-8054643D01*
X13146357Y-8026071D01*
X13146357Y-7940357D01*
X13160643Y-7911786D01*
X13174928Y-7897500D01*
X13203500Y-7883214D01*
X13260643Y-7883214D01*
X13289214Y-7897500D01*
X13403500Y-8197500D02*
X13417786Y-8183214D01*
X13446357Y-8140357D01*
X13460643Y-8111786D01*
X13474928Y-8068929D01*
X13489214Y-7997500D01*
X13489214Y-7940357D01*
X13474928Y-7868929D01*
X13460643Y-7826071D01*
X13446357Y-7797500D01*
X13417786Y-7754643D01*
X13403500Y-7740357D01*
M02*
