%FSLAX45Y45*%
G04 Gerber Fmt 4.5, Leading zero omitted, Abs format (unit mm)*
G04 Created by KiCad (PCBNEW (5.1.4)-1) date 2019-09-01 07:34:50*
%MOMM*%
%LPD*%
G04 APERTURE LIST*
%ADD10C,0.050000*%
%ADD11C,0.200000*%
%ADD12C,0.300000*%
G04 APERTURE END LIST*
D10*
X4191000Y-6985000D02*
X4191000Y-4191000D01*
X7874000Y-6985000D02*
X4191000Y-6985000D01*
X7874000Y-4191000D02*
X7874000Y-6985000D01*
X7747000Y-4191000D02*
X7874000Y-4191000D01*
X4191000Y-4191000D02*
X7747000Y-4191000D01*
D11*
X6056000Y-5675000D02*
X6136000Y-5755000D01*
X6136000Y-5675000D02*
X6056000Y-5755000D01*
X6056000Y-5925000D02*
X6136000Y-6005000D01*
X6136000Y-5925000D02*
X6056000Y-6005000D01*
X5548000Y-5675000D02*
X5628000Y-5755000D01*
X5628000Y-5675000D02*
X5548000Y-5755000D01*
X5548000Y-5925000D02*
X5628000Y-6005000D01*
X5628000Y-5925000D02*
X5548000Y-6005000D01*
X5643880Y-5207000D02*
G75*
G03X5643880Y-5207000I-55880J0D01*
G01*
X5897880Y-5207000D02*
G75*
G03X5897880Y-5207000I-55880J0D01*
G01*
X6151880Y-5207000D02*
G75*
G03X6151880Y-5207000I-55880J0D01*
G01*
X6985000Y-4750000D02*
X6985000Y-4902000D01*
X6909000Y-4826000D02*
X7061000Y-4826000D01*
X6985000Y-5258000D02*
X6985000Y-5410000D01*
X6909000Y-5334000D02*
X7061000Y-5334000D01*
X6985000Y-5766000D02*
X6985000Y-5918000D01*
X6909000Y-5842000D02*
X7061000Y-5842000D01*
X6985000Y-6274000D02*
X6985000Y-6426000D01*
X6909000Y-6350000D02*
X7061000Y-6350000D01*
X4953000Y-5258000D02*
X4953000Y-5410000D01*
X4877000Y-5334000D02*
X5029000Y-5334000D01*
X4953000Y-5766000D02*
X4953000Y-5918000D01*
X4877000Y-5842000D02*
X5029000Y-5842000D01*
D12*
X4474928Y-7453214D02*
X4474928Y-7153214D01*
X4546357Y-7153214D01*
X4589214Y-7167500D01*
X4617786Y-7196071D01*
X4632071Y-7224643D01*
X4646357Y-7281786D01*
X4646357Y-7324643D01*
X4632071Y-7381786D01*
X4617786Y-7410357D01*
X4589214Y-7438929D01*
X4546357Y-7453214D01*
X4474928Y-7453214D01*
X4774928Y-7453214D02*
X4774928Y-7253214D01*
X4774928Y-7310357D02*
X4789214Y-7281786D01*
X4803500Y-7267500D01*
X4832071Y-7253214D01*
X4860643Y-7253214D01*
X4960643Y-7453214D02*
X4960643Y-7253214D01*
X4960643Y-7153214D02*
X4946357Y-7167500D01*
X4960643Y-7181786D01*
X4974928Y-7167500D01*
X4960643Y-7153214D01*
X4960643Y-7181786D01*
X5146357Y-7453214D02*
X5117786Y-7438929D01*
X5103500Y-7410357D01*
X5103500Y-7153214D01*
X5303500Y-7453214D02*
X5274928Y-7438929D01*
X5260643Y-7410357D01*
X5260643Y-7153214D01*
X5646357Y-7453214D02*
X5646357Y-7153214D01*
X5746357Y-7367500D01*
X5846357Y-7153214D01*
X5846357Y-7453214D01*
X6117786Y-7453214D02*
X6117786Y-7296071D01*
X6103500Y-7267500D01*
X6074928Y-7253214D01*
X6017786Y-7253214D01*
X5989214Y-7267500D01*
X6117786Y-7438929D02*
X6089214Y-7453214D01*
X6017786Y-7453214D01*
X5989214Y-7438929D01*
X5974928Y-7410357D01*
X5974928Y-7381786D01*
X5989214Y-7353214D01*
X6017786Y-7338929D01*
X6089214Y-7338929D01*
X6117786Y-7324643D01*
X6260643Y-7253214D02*
X6260643Y-7553214D01*
X6260643Y-7267500D02*
X6289214Y-7253214D01*
X6346357Y-7253214D01*
X6374928Y-7267500D01*
X6389214Y-7281786D01*
X6403500Y-7310357D01*
X6403500Y-7396071D01*
X6389214Y-7424643D01*
X6374928Y-7438929D01*
X6346357Y-7453214D01*
X6289214Y-7453214D01*
X6260643Y-7438929D01*
X6532071Y-7424643D02*
X6546357Y-7438929D01*
X6532071Y-7453214D01*
X6517786Y-7438929D01*
X6532071Y-7424643D01*
X6532071Y-7453214D01*
X6532071Y-7267500D02*
X6546357Y-7281786D01*
X6532071Y-7296071D01*
X6517786Y-7281786D01*
X6532071Y-7267500D01*
X6532071Y-7296071D01*
X4108500Y-7907500D02*
X4188500Y-7987500D01*
X4188500Y-7907500D02*
X4108500Y-7987500D01*
X4532071Y-7783214D02*
X4560643Y-7783214D01*
X4589214Y-7797500D01*
X4603500Y-7811786D01*
X4617786Y-7840357D01*
X4632071Y-7897500D01*
X4632071Y-7968929D01*
X4617786Y-8026071D01*
X4603500Y-8054643D01*
X4589214Y-8068929D01*
X4560643Y-8083214D01*
X4532071Y-8083214D01*
X4503500Y-8068929D01*
X4489214Y-8054643D01*
X4474928Y-8026071D01*
X4460643Y-7968929D01*
X4460643Y-7897500D01*
X4474928Y-7840357D01*
X4489214Y-7811786D01*
X4503500Y-7797500D01*
X4532071Y-7783214D01*
X4760643Y-8054643D02*
X4774928Y-8068929D01*
X4760643Y-8083214D01*
X4746357Y-8068929D01*
X4760643Y-8054643D01*
X4760643Y-8083214D01*
X4946357Y-7911786D02*
X4917786Y-7897500D01*
X4903500Y-7883214D01*
X4889214Y-7854643D01*
X4889214Y-7840357D01*
X4903500Y-7811786D01*
X4917786Y-7797500D01*
X4946357Y-7783214D01*
X5003500Y-7783214D01*
X5032071Y-7797500D01*
X5046357Y-7811786D01*
X5060643Y-7840357D01*
X5060643Y-7854643D01*
X5046357Y-7883214D01*
X5032071Y-7897500D01*
X5003500Y-7911786D01*
X4946357Y-7911786D01*
X4917786Y-7926071D01*
X4903500Y-7940357D01*
X4889214Y-7968929D01*
X4889214Y-8026071D01*
X4903500Y-8054643D01*
X4917786Y-8068929D01*
X4946357Y-8083214D01*
X5003500Y-8083214D01*
X5032071Y-8068929D01*
X5046357Y-8054643D01*
X5060643Y-8026071D01*
X5060643Y-7968929D01*
X5046357Y-7940357D01*
X5032071Y-7926071D01*
X5003500Y-7911786D01*
X5246357Y-7783214D02*
X5274928Y-7783214D01*
X5303500Y-7797500D01*
X5317786Y-7811786D01*
X5332071Y-7840357D01*
X5346357Y-7897500D01*
X5346357Y-7968929D01*
X5332071Y-8026071D01*
X5317786Y-8054643D01*
X5303500Y-8068929D01*
X5274928Y-8083214D01*
X5246357Y-8083214D01*
X5217786Y-8068929D01*
X5203500Y-8054643D01*
X5189214Y-8026071D01*
X5174928Y-7968929D01*
X5174928Y-7897500D01*
X5189214Y-7840357D01*
X5203500Y-7811786D01*
X5217786Y-7797500D01*
X5246357Y-7783214D01*
X5474928Y-8083214D02*
X5474928Y-7883214D01*
X5474928Y-7911786D02*
X5489214Y-7897500D01*
X5517786Y-7883214D01*
X5560643Y-7883214D01*
X5589214Y-7897500D01*
X5603500Y-7926071D01*
X5603500Y-8083214D01*
X5603500Y-7926071D02*
X5617786Y-7897500D01*
X5646357Y-7883214D01*
X5689214Y-7883214D01*
X5717786Y-7897500D01*
X5732071Y-7926071D01*
X5732071Y-8083214D01*
X5874928Y-8083214D02*
X5874928Y-7883214D01*
X5874928Y-7911786D02*
X5889214Y-7897500D01*
X5917786Y-7883214D01*
X5960643Y-7883214D01*
X5989214Y-7897500D01*
X6003500Y-7926071D01*
X6003500Y-8083214D01*
X6003500Y-7926071D02*
X6017786Y-7897500D01*
X6046357Y-7883214D01*
X6089214Y-7883214D01*
X6117786Y-7897500D01*
X6132071Y-7926071D01*
X6132071Y-8083214D01*
X6717786Y-7768929D02*
X6460643Y-8154643D01*
X7103500Y-7783214D02*
X7132071Y-7783214D01*
X7160643Y-7797500D01*
X7174928Y-7811786D01*
X7189214Y-7840357D01*
X7203500Y-7897500D01*
X7203500Y-7968929D01*
X7189214Y-8026071D01*
X7174928Y-8054643D01*
X7160643Y-8068929D01*
X7132071Y-8083214D01*
X7103500Y-8083214D01*
X7074928Y-8068929D01*
X7060643Y-8054643D01*
X7046357Y-8026071D01*
X7032071Y-7968929D01*
X7032071Y-7897500D01*
X7046357Y-7840357D01*
X7060643Y-7811786D01*
X7074928Y-7797500D01*
X7103500Y-7783214D01*
X7332071Y-8054643D02*
X7346357Y-8068929D01*
X7332071Y-8083214D01*
X7317786Y-8068929D01*
X7332071Y-8054643D01*
X7332071Y-8083214D01*
X7532071Y-7783214D02*
X7560643Y-7783214D01*
X7589214Y-7797500D01*
X7603500Y-7811786D01*
X7617786Y-7840357D01*
X7632071Y-7897500D01*
X7632071Y-7968929D01*
X7617786Y-8026071D01*
X7603500Y-8054643D01*
X7589214Y-8068929D01*
X7560643Y-8083214D01*
X7532071Y-8083214D01*
X7503500Y-8068929D01*
X7489214Y-8054643D01*
X7474928Y-8026071D01*
X7460643Y-7968929D01*
X7460643Y-7897500D01*
X7474928Y-7840357D01*
X7489214Y-7811786D01*
X7503500Y-7797500D01*
X7532071Y-7783214D01*
X7732071Y-7783214D02*
X7917786Y-7783214D01*
X7817786Y-7897500D01*
X7860643Y-7897500D01*
X7889214Y-7911786D01*
X7903500Y-7926071D01*
X7917786Y-7954643D01*
X7917786Y-8026071D01*
X7903500Y-8054643D01*
X7889214Y-8068929D01*
X7860643Y-8083214D01*
X7774928Y-8083214D01*
X7746357Y-8068929D01*
X7732071Y-8054643D01*
X8203500Y-8083214D02*
X8032071Y-8083214D01*
X8117786Y-8083214D02*
X8117786Y-7783214D01*
X8089214Y-7826071D01*
X8060643Y-7854643D01*
X8032071Y-7868929D01*
X8317786Y-7783214D02*
X8317786Y-7840357D01*
X8432071Y-7783214D02*
X8432071Y-7840357D01*
X8874928Y-8197500D02*
X8860643Y-8183214D01*
X8832071Y-8140357D01*
X8817786Y-8111786D01*
X8803500Y-8068929D01*
X8789214Y-7997500D01*
X8789214Y-7940357D01*
X8803500Y-7868929D01*
X8817786Y-7826071D01*
X8832071Y-7797500D01*
X8860643Y-7754643D01*
X8874928Y-7740357D01*
X9117786Y-7883214D02*
X9117786Y-8083214D01*
X9046357Y-7768929D02*
X8974928Y-7983214D01*
X9160643Y-7983214D01*
X9503500Y-8083214D02*
X9503500Y-7783214D01*
X9632071Y-8083214D02*
X9632071Y-7926071D01*
X9617786Y-7897500D01*
X9589214Y-7883214D01*
X9546357Y-7883214D01*
X9517786Y-7897500D01*
X9503500Y-7911786D01*
X9817786Y-8083214D02*
X9789214Y-8068929D01*
X9774928Y-8054643D01*
X9760643Y-8026071D01*
X9760643Y-7940357D01*
X9774928Y-7911786D01*
X9789214Y-7897500D01*
X9817786Y-7883214D01*
X9860643Y-7883214D01*
X9889214Y-7897500D01*
X9903500Y-7911786D01*
X9917786Y-7940357D01*
X9917786Y-8026071D01*
X9903500Y-8054643D01*
X9889214Y-8068929D01*
X9860643Y-8083214D01*
X9817786Y-8083214D01*
X10089214Y-8083214D02*
X10060643Y-8068929D01*
X10046357Y-8040357D01*
X10046357Y-7783214D01*
X10317786Y-8068929D02*
X10289214Y-8083214D01*
X10232071Y-8083214D01*
X10203500Y-8068929D01*
X10189214Y-8040357D01*
X10189214Y-7926071D01*
X10203500Y-7897500D01*
X10232071Y-7883214D01*
X10289214Y-7883214D01*
X10317786Y-7897500D01*
X10332071Y-7926071D01*
X10332071Y-7954643D01*
X10189214Y-7983214D01*
X10446357Y-8068929D02*
X10474928Y-8083214D01*
X10532071Y-8083214D01*
X10560643Y-8068929D01*
X10574928Y-8040357D01*
X10574928Y-8026071D01*
X10560643Y-7997500D01*
X10532071Y-7983214D01*
X10489214Y-7983214D01*
X10460643Y-7968929D01*
X10446357Y-7940357D01*
X10446357Y-7926071D01*
X10460643Y-7897500D01*
X10489214Y-7883214D01*
X10532071Y-7883214D01*
X10560643Y-7897500D01*
X10674928Y-8197500D02*
X10689214Y-8183214D01*
X10717786Y-8140357D01*
X10732071Y-8111786D01*
X10746357Y-8068929D01*
X10760643Y-7997500D01*
X10760643Y-7940357D01*
X10746357Y-7868929D01*
X10732071Y-7826071D01*
X10717786Y-7797500D01*
X10689214Y-7754643D01*
X10674928Y-7740357D01*
X4188500Y-8343500D02*
G75*
G03X4188500Y-8343500I-55880J0D01*
G01*
X4632071Y-8479214D02*
X4460643Y-8479214D01*
X4546357Y-8479214D02*
X4546357Y-8179214D01*
X4517786Y-8222071D01*
X4489214Y-8250643D01*
X4460643Y-8264929D01*
X4760643Y-8450643D02*
X4774928Y-8464929D01*
X4760643Y-8479214D01*
X4746357Y-8464929D01*
X4760643Y-8450643D01*
X4760643Y-8479214D01*
X5060643Y-8479214D02*
X4889214Y-8479214D01*
X4974928Y-8479214D02*
X4974928Y-8179214D01*
X4946357Y-8222071D01*
X4917786Y-8250643D01*
X4889214Y-8264929D01*
X5174928Y-8207786D02*
X5189214Y-8193500D01*
X5217786Y-8179214D01*
X5289214Y-8179214D01*
X5317786Y-8193500D01*
X5332071Y-8207786D01*
X5346357Y-8236357D01*
X5346357Y-8264929D01*
X5332071Y-8307786D01*
X5160643Y-8479214D01*
X5346357Y-8479214D01*
X5474928Y-8479214D02*
X5474928Y-8279214D01*
X5474928Y-8307786D02*
X5489214Y-8293500D01*
X5517786Y-8279214D01*
X5560643Y-8279214D01*
X5589214Y-8293500D01*
X5603500Y-8322071D01*
X5603500Y-8479214D01*
X5603500Y-8322071D02*
X5617786Y-8293500D01*
X5646357Y-8279214D01*
X5689214Y-8279214D01*
X5717786Y-8293500D01*
X5732071Y-8322071D01*
X5732071Y-8479214D01*
X5874928Y-8479214D02*
X5874928Y-8279214D01*
X5874928Y-8307786D02*
X5889214Y-8293500D01*
X5917786Y-8279214D01*
X5960643Y-8279214D01*
X5989214Y-8293500D01*
X6003500Y-8322071D01*
X6003500Y-8479214D01*
X6003500Y-8322071D02*
X6017786Y-8293500D01*
X6046357Y-8279214D01*
X6089214Y-8279214D01*
X6117786Y-8293500D01*
X6132071Y-8322071D01*
X6132071Y-8479214D01*
X6717786Y-8164929D02*
X6460643Y-8550643D01*
X7103500Y-8179214D02*
X7132071Y-8179214D01*
X7160643Y-8193500D01*
X7174928Y-8207786D01*
X7189214Y-8236357D01*
X7203500Y-8293500D01*
X7203500Y-8364929D01*
X7189214Y-8422072D01*
X7174928Y-8450643D01*
X7160643Y-8464929D01*
X7132071Y-8479214D01*
X7103500Y-8479214D01*
X7074928Y-8464929D01*
X7060643Y-8450643D01*
X7046357Y-8422072D01*
X7032071Y-8364929D01*
X7032071Y-8293500D01*
X7046357Y-8236357D01*
X7060643Y-8207786D01*
X7074928Y-8193500D01*
X7103500Y-8179214D01*
X7332071Y-8450643D02*
X7346357Y-8464929D01*
X7332071Y-8479214D01*
X7317786Y-8464929D01*
X7332071Y-8450643D01*
X7332071Y-8479214D01*
X7532071Y-8179214D02*
X7560643Y-8179214D01*
X7589214Y-8193500D01*
X7603500Y-8207786D01*
X7617786Y-8236357D01*
X7632071Y-8293500D01*
X7632071Y-8364929D01*
X7617786Y-8422072D01*
X7603500Y-8450643D01*
X7589214Y-8464929D01*
X7560643Y-8479214D01*
X7532071Y-8479214D01*
X7503500Y-8464929D01*
X7489214Y-8450643D01*
X7474928Y-8422072D01*
X7460643Y-8364929D01*
X7460643Y-8293500D01*
X7474928Y-8236357D01*
X7489214Y-8207786D01*
X7503500Y-8193500D01*
X7532071Y-8179214D01*
X7889214Y-8279214D02*
X7889214Y-8479214D01*
X7817786Y-8164929D02*
X7746357Y-8379214D01*
X7932071Y-8379214D01*
X8174928Y-8279214D02*
X8174928Y-8479214D01*
X8103500Y-8164929D02*
X8032071Y-8379214D01*
X8217786Y-8379214D01*
X8317786Y-8179214D02*
X8317786Y-8236357D01*
X8432071Y-8179214D02*
X8432071Y-8236357D01*
X8874928Y-8593500D02*
X8860643Y-8579214D01*
X8832071Y-8536357D01*
X8817786Y-8507786D01*
X8803500Y-8464929D01*
X8789214Y-8393500D01*
X8789214Y-8336357D01*
X8803500Y-8264929D01*
X8817786Y-8222071D01*
X8832071Y-8193500D01*
X8860643Y-8150643D01*
X8874928Y-8136357D01*
X8960643Y-8179214D02*
X9146357Y-8179214D01*
X9046357Y-8293500D01*
X9089214Y-8293500D01*
X9117786Y-8307786D01*
X9132071Y-8322071D01*
X9146357Y-8350643D01*
X9146357Y-8422072D01*
X9132071Y-8450643D01*
X9117786Y-8464929D01*
X9089214Y-8479214D01*
X9003500Y-8479214D01*
X8974928Y-8464929D01*
X8960643Y-8450643D01*
X9503500Y-8479214D02*
X9503500Y-8179214D01*
X9632071Y-8479214D02*
X9632071Y-8322071D01*
X9617786Y-8293500D01*
X9589214Y-8279214D01*
X9546357Y-8279214D01*
X9517786Y-8293500D01*
X9503500Y-8307786D01*
X9817786Y-8479214D02*
X9789214Y-8464929D01*
X9774928Y-8450643D01*
X9760643Y-8422072D01*
X9760643Y-8336357D01*
X9774928Y-8307786D01*
X9789214Y-8293500D01*
X9817786Y-8279214D01*
X9860643Y-8279214D01*
X9889214Y-8293500D01*
X9903500Y-8307786D01*
X9917786Y-8336357D01*
X9917786Y-8422072D01*
X9903500Y-8450643D01*
X9889214Y-8464929D01*
X9860643Y-8479214D01*
X9817786Y-8479214D01*
X10089214Y-8479214D02*
X10060643Y-8464929D01*
X10046357Y-8436357D01*
X10046357Y-8179214D01*
X10317786Y-8464929D02*
X10289214Y-8479214D01*
X10232071Y-8479214D01*
X10203500Y-8464929D01*
X10189214Y-8436357D01*
X10189214Y-8322071D01*
X10203500Y-8293500D01*
X10232071Y-8279214D01*
X10289214Y-8279214D01*
X10317786Y-8293500D01*
X10332071Y-8322071D01*
X10332071Y-8350643D01*
X10189214Y-8379214D01*
X10446357Y-8464929D02*
X10474928Y-8479214D01*
X10532071Y-8479214D01*
X10560643Y-8464929D01*
X10574928Y-8436357D01*
X10574928Y-8422072D01*
X10560643Y-8393500D01*
X10532071Y-8379214D01*
X10489214Y-8379214D01*
X10460643Y-8364929D01*
X10446357Y-8336357D01*
X10446357Y-8322071D01*
X10460643Y-8293500D01*
X10489214Y-8279214D01*
X10532071Y-8279214D01*
X10560643Y-8293500D01*
X10674928Y-8593500D02*
X10689214Y-8579214D01*
X10717786Y-8536357D01*
X10732071Y-8507786D01*
X10746357Y-8464929D01*
X10760643Y-8393500D01*
X10760643Y-8336357D01*
X10746357Y-8264929D01*
X10732071Y-8222071D01*
X10717786Y-8193500D01*
X10689214Y-8150643D01*
X10674928Y-8136357D01*
X4112500Y-8663500D02*
X4112500Y-8815500D01*
X4036500Y-8739500D02*
X4188500Y-8739500D01*
X4632071Y-8875214D02*
X4460643Y-8875214D01*
X4546357Y-8875214D02*
X4546357Y-8575214D01*
X4517786Y-8618072D01*
X4489214Y-8646643D01*
X4460643Y-8660929D01*
X4760643Y-8846643D02*
X4774928Y-8860929D01*
X4760643Y-8875214D01*
X4746357Y-8860929D01*
X4760643Y-8846643D01*
X4760643Y-8875214D01*
X5046357Y-8575214D02*
X4903500Y-8575214D01*
X4889214Y-8718072D01*
X4903500Y-8703786D01*
X4932071Y-8689500D01*
X5003500Y-8689500D01*
X5032071Y-8703786D01*
X5046357Y-8718072D01*
X5060643Y-8746643D01*
X5060643Y-8818072D01*
X5046357Y-8846643D01*
X5032071Y-8860929D01*
X5003500Y-8875214D01*
X4932071Y-8875214D01*
X4903500Y-8860929D01*
X4889214Y-8846643D01*
X5174928Y-8603786D02*
X5189214Y-8589500D01*
X5217786Y-8575214D01*
X5289214Y-8575214D01*
X5317786Y-8589500D01*
X5332071Y-8603786D01*
X5346357Y-8632357D01*
X5346357Y-8660929D01*
X5332071Y-8703786D01*
X5160643Y-8875214D01*
X5346357Y-8875214D01*
X5474928Y-8875214D02*
X5474928Y-8675214D01*
X5474928Y-8703786D02*
X5489214Y-8689500D01*
X5517786Y-8675214D01*
X5560643Y-8675214D01*
X5589214Y-8689500D01*
X5603500Y-8718072D01*
X5603500Y-8875214D01*
X5603500Y-8718072D02*
X5617786Y-8689500D01*
X5646357Y-8675214D01*
X5689214Y-8675214D01*
X5717786Y-8689500D01*
X5732071Y-8718072D01*
X5732071Y-8875214D01*
X5874928Y-8875214D02*
X5874928Y-8675214D01*
X5874928Y-8703786D02*
X5889214Y-8689500D01*
X5917786Y-8675214D01*
X5960643Y-8675214D01*
X5989214Y-8689500D01*
X6003500Y-8718072D01*
X6003500Y-8875214D01*
X6003500Y-8718072D02*
X6017786Y-8689500D01*
X6046357Y-8675214D01*
X6089214Y-8675214D01*
X6117786Y-8689500D01*
X6132071Y-8718072D01*
X6132071Y-8875214D01*
X6717786Y-8560929D02*
X6460643Y-8946643D01*
X7103500Y-8575214D02*
X7132071Y-8575214D01*
X7160643Y-8589500D01*
X7174928Y-8603786D01*
X7189214Y-8632357D01*
X7203500Y-8689500D01*
X7203500Y-8760929D01*
X7189214Y-8818072D01*
X7174928Y-8846643D01*
X7160643Y-8860929D01*
X7132071Y-8875214D01*
X7103500Y-8875214D01*
X7074928Y-8860929D01*
X7060643Y-8846643D01*
X7046357Y-8818072D01*
X7032071Y-8760929D01*
X7032071Y-8689500D01*
X7046357Y-8632357D01*
X7060643Y-8603786D01*
X7074928Y-8589500D01*
X7103500Y-8575214D01*
X7332071Y-8846643D02*
X7346357Y-8860929D01*
X7332071Y-8875214D01*
X7317786Y-8860929D01*
X7332071Y-8846643D01*
X7332071Y-8875214D01*
X7532071Y-8575214D02*
X7560643Y-8575214D01*
X7589214Y-8589500D01*
X7603500Y-8603786D01*
X7617786Y-8632357D01*
X7632071Y-8689500D01*
X7632071Y-8760929D01*
X7617786Y-8818072D01*
X7603500Y-8846643D01*
X7589214Y-8860929D01*
X7560643Y-8875214D01*
X7532071Y-8875214D01*
X7503500Y-8860929D01*
X7489214Y-8846643D01*
X7474928Y-8818072D01*
X7460643Y-8760929D01*
X7460643Y-8689500D01*
X7474928Y-8632357D01*
X7489214Y-8603786D01*
X7503500Y-8589500D01*
X7532071Y-8575214D01*
X7889214Y-8575214D02*
X7832071Y-8575214D01*
X7803500Y-8589500D01*
X7789214Y-8603786D01*
X7760643Y-8646643D01*
X7746357Y-8703786D01*
X7746357Y-8818072D01*
X7760643Y-8846643D01*
X7774928Y-8860929D01*
X7803500Y-8875214D01*
X7860643Y-8875214D01*
X7889214Y-8860929D01*
X7903500Y-8846643D01*
X7917786Y-8818072D01*
X7917786Y-8746643D01*
X7903500Y-8718072D01*
X7889214Y-8703786D01*
X7860643Y-8689500D01*
X7803500Y-8689500D01*
X7774928Y-8703786D01*
X7760643Y-8718072D01*
X7746357Y-8746643D01*
X8103500Y-8575214D02*
X8132071Y-8575214D01*
X8160643Y-8589500D01*
X8174928Y-8603786D01*
X8189214Y-8632357D01*
X8203500Y-8689500D01*
X8203500Y-8760929D01*
X8189214Y-8818072D01*
X8174928Y-8846643D01*
X8160643Y-8860929D01*
X8132071Y-8875214D01*
X8103500Y-8875214D01*
X8074928Y-8860929D01*
X8060643Y-8846643D01*
X8046357Y-8818072D01*
X8032071Y-8760929D01*
X8032071Y-8689500D01*
X8046357Y-8632357D01*
X8060643Y-8603786D01*
X8074928Y-8589500D01*
X8103500Y-8575214D01*
X8317786Y-8575214D02*
X8317786Y-8632357D01*
X8432071Y-8575214D02*
X8432071Y-8632357D01*
X8874928Y-8989500D02*
X8860643Y-8975214D01*
X8832071Y-8932357D01*
X8817786Y-8903786D01*
X8803500Y-8860929D01*
X8789214Y-8789500D01*
X8789214Y-8732357D01*
X8803500Y-8660929D01*
X8817786Y-8618072D01*
X8832071Y-8589500D01*
X8860643Y-8546643D01*
X8874928Y-8532357D01*
X9117786Y-8575214D02*
X9060643Y-8575214D01*
X9032071Y-8589500D01*
X9017786Y-8603786D01*
X8989214Y-8646643D01*
X8974928Y-8703786D01*
X8974928Y-8818072D01*
X8989214Y-8846643D01*
X9003500Y-8860929D01*
X9032071Y-8875214D01*
X9089214Y-8875214D01*
X9117786Y-8860929D01*
X9132071Y-8846643D01*
X9146357Y-8818072D01*
X9146357Y-8746643D01*
X9132071Y-8718072D01*
X9117786Y-8703786D01*
X9089214Y-8689500D01*
X9032071Y-8689500D01*
X9003500Y-8703786D01*
X8989214Y-8718072D01*
X8974928Y-8746643D01*
X9503500Y-8875214D02*
X9503500Y-8575214D01*
X9632071Y-8875214D02*
X9632071Y-8718072D01*
X9617786Y-8689500D01*
X9589214Y-8675214D01*
X9546357Y-8675214D01*
X9517786Y-8689500D01*
X9503500Y-8703786D01*
X9817786Y-8875214D02*
X9789214Y-8860929D01*
X9774928Y-8846643D01*
X9760643Y-8818072D01*
X9760643Y-8732357D01*
X9774928Y-8703786D01*
X9789214Y-8689500D01*
X9817786Y-8675214D01*
X9860643Y-8675214D01*
X9889214Y-8689500D01*
X9903500Y-8703786D01*
X9917786Y-8732357D01*
X9917786Y-8818072D01*
X9903500Y-8846643D01*
X9889214Y-8860929D01*
X9860643Y-8875214D01*
X9817786Y-8875214D01*
X10089214Y-8875214D02*
X10060643Y-8860929D01*
X10046357Y-8832357D01*
X10046357Y-8575214D01*
X10317786Y-8860929D02*
X10289214Y-8875214D01*
X10232071Y-8875214D01*
X10203500Y-8860929D01*
X10189214Y-8832357D01*
X10189214Y-8718072D01*
X10203500Y-8689500D01*
X10232071Y-8675214D01*
X10289214Y-8675214D01*
X10317786Y-8689500D01*
X10332071Y-8718072D01*
X10332071Y-8746643D01*
X10189214Y-8775214D01*
X10446357Y-8860929D02*
X10474928Y-8875214D01*
X10532071Y-8875214D01*
X10560643Y-8860929D01*
X10574928Y-8832357D01*
X10574928Y-8818072D01*
X10560643Y-8789500D01*
X10532071Y-8775214D01*
X10489214Y-8775214D01*
X10460643Y-8760929D01*
X10446357Y-8732357D01*
X10446357Y-8718072D01*
X10460643Y-8689500D01*
X10489214Y-8675214D01*
X10532071Y-8675214D01*
X10560643Y-8689500D01*
X10674928Y-8989500D02*
X10689214Y-8975214D01*
X10717786Y-8932357D01*
X10732071Y-8903786D01*
X10746357Y-8860929D01*
X10760643Y-8789500D01*
X10760643Y-8732357D01*
X10746357Y-8660929D01*
X10732071Y-8618072D01*
X10717786Y-8589500D01*
X10689214Y-8546643D01*
X10674928Y-8532357D01*
M02*
