M48
; DRILL file {KiCad (5.1.2)-2} date 1/26/2020 6:09:39 PM
; FORMAT={2:4/ absolute / inch / suppress leading zeros}
; #@! TF.CreationDate,2020-01-26T18:09:39+07:00
; #@! TF.GenerationSoftware,Kicad,Pcbnew,(5.1.2)-2
FMAT,2
INCH,TZ
T1C0.0315
T2C0.0354
T3C0.0394
T4C0.0433
T5C0.0472
T6C0.0598
T7C0.0787
%
G90
G05
T1
X56200Y-30013
X56200Y-30800
X58500Y-20700
X58500Y-21700
X59800Y-49413
X59800Y-50200
X43916Y-42900
X44900Y-42900
X46000Y-32816
X46000Y-33800
X55700Y-41600
X56487Y-41600
X62500Y-27600
X62500Y-28387
X49000Y-41800
X50921Y-41800
X59800Y-47300
X59800Y-48300
X61400Y-43100
X61400Y-44100
X61400Y-45100
X45916Y-42900
X46900Y-42900
X61400Y-30300
X61400Y-31300
X61400Y-32300
X42016Y-42900
X43000Y-42900
T2
X56000Y-50800
X56000Y-51800
X60400Y-26300
X60400Y-27300
X56300Y-27500
X56300Y-28500
X60000Y-51500
X60000Y-52500
T3
X35800Y-40200
X36800Y-40200
X37800Y-40200
X38800Y-40200
X39800Y-40200
X40800Y-40200
X39300Y-35200
X39300Y-38200
X40300Y-35200
X40300Y-38200
X41300Y-35200
X41300Y-38200
X42300Y-35200
X42300Y-38200
X43300Y-35200
X43300Y-38200
X44300Y-35200
X44300Y-38200
X45300Y-35200
X45300Y-38200
X46300Y-35200
X46300Y-38200
X47300Y-35200
X47300Y-38200
X48300Y-35200
X48300Y-38200
X49300Y-35200
X49300Y-38200
X50300Y-35200
X50300Y-38200
X51300Y-35200
X51300Y-38200
X52300Y-35200
X52300Y-38200
X40400Y-26300
X40400Y-27300
X40400Y-28300
X40400Y-29300
X40300Y-44600
X40300Y-45600
X40300Y-46600
X40300Y-47600
T4
X58700Y-29823
X58700Y-30492
X58700Y-31161
X58700Y-31831
X58700Y-32500
X42300Y-39500
X42300Y-41272
X44859Y-39500
X44859Y-41272
X58700Y-42823
X58700Y-43492
X58700Y-44161
X58700Y-44831
X58700Y-45500
T5
X56400Y-20100
X56400Y-26100
X61900Y-47100
X61900Y-52100
X53900Y-31000
X53900Y-36000
X56500Y-33800
X56500Y-39800
X58600Y-33900
X58600Y-38900
X58600Y-23200
X58600Y-28200
X46900Y-39700
X51900Y-39700
X58100Y-47100
X58100Y-52100
X60100Y-34700
X66100Y-34700
X39200Y-33600
X44200Y-33600
X56000Y-43300
X56000Y-49300
X47300Y-31500
X52300Y-31500
X53900Y-37200
X53900Y-42200
X47500Y-33500
X52500Y-33500
X39200Y-31500
X44200Y-31500
T6
X36500Y-43700
X36500Y-45700
X36500Y-47700
X36500Y-49700
X36700Y-25000
X36700Y-27000
X36700Y-29000
X36700Y-31000
X65100Y-43400
X65100Y-45400
X65100Y-47400
X65100Y-49400
X40500Y-21300
X42500Y-21300
X65600Y-26000
X65600Y-28000
X65600Y-30000
X65600Y-32000
T7
X36500Y-34100
X36500Y-36069
X48200Y-21500
X50169Y-21500
X61500Y-36700
X61500Y-38669
X61600Y-20300
X61600Y-22269
T0
M30
