  0
SECTION
  2
HEADER
  9
$ANGBASE
  50
0.0
  9
$ANGDIR
  70
  1
  9
$MEASUREMENT
  70
0
  0
ENDSEC
  0
SECTION
  2
TABLES
  0
TABLE
  2
LTYPE
  70
4
  0
LTYPE
  5
40F
  2
CONTINUOUS
  70
0
  3
Solid line
  72
65
  73
0
  40
0.0
  0
LTYPE
  5
410
  2
DASHDOT
 70
0
  3
Dash Dot ____ _ ____ _
 72
65
 73
4
 40
2.0
 49
1.25
 49
-0.25
 49
0.25
 49
-0.25
  0
LTYPE
  5
411
  2
DASHED
 70
0
  3
Dashed __ __ __ __ __
 72
65
 73
2
 40
0.75
 49
0.5
 49
-0.25
  0
LTYPE
  5
43B
  2
DOTTED
 70
0
  3
Dotted .  .  .  .
 72
65
 73
2
 40
0.2
 49
0.0
 49
-0.2
  0
ENDTAB
  0
TABLE
  2
STYLE
  70
4
  0
STYLE
  2
KICAD
  70
0
  40
0
  41
1
  42
1
  50
0
  71
0
  3
isocp.shx
  0
STYLE
  2
KICADB
  70
0
  40
0
  41
1
  42
1
  50
0
  71
0
  3
isocp.shx
  0
STYLE
  2
KICADI
  70
0
  40
0
  41
1
  42
1
  50
15
  71
0
  3
isocp.shx
  0
STYLE
  2
KICADBI
  70
0
  40
0
  41
1
  42
1
  50
15
  71
0
  3
isocp.shx
  0
ENDTAB
  0
TABLE
  2
LAYER
  70
30
  0
LAYER
  2
BLACK
  70
0
  62
7
  6
CONTINUOUS
  0
LAYER
  2
GRAY1
  70
0
  62
251
  6
CONTINUOUS
  0
LAYER
  2
GRAY2
  70
0
  62
8
  6
CONTINUOUS
  0
LAYER
  2
GRAY3
  70
0
  62
9
  6
CONTINUOUS
  0
LAYER
  2
WHITE
  70
0
  62
7
  6
CONTINUOUS
  0
LAYER
  2
LYELLOW
  70
0
  62
51
  6
CONTINUOUS
  0
LAYER
  2
BLUE1
  70
0
  62
178
  6
CONTINUOUS
  0
LAYER
  2
GREEN1
  70
0
  62
98
  6
CONTINUOUS
  0
LAYER
  2
CYAN1
  70
0
  62
138
  6
CONTINUOUS
  0
LAYER
  2
RED1
  70
0
  62
18
  6
CONTINUOUS
  0
LAYER
  2
MAGENTA1
  70
0
  62
228
  6
CONTINUOUS
  0
LAYER
  2
BROWN1
  70
0
  62
58
  6
CONTINUOUS
  0
LAYER
  2
BLUE2
  70
0
  62
5
  6
CONTINUOUS
  0
LAYER
  2
GREEN2
  70
0
  62
3
  6
CONTINUOUS
  0
LAYER
  2
CYAN2
  70
0
  62
4
  6
CONTINUOUS
  0
LAYER
  2
RED2
  70
0
  62
1
  6
CONTINUOUS
  0
LAYER
  2
MAGENTA2
  70
0
  62
6
  6
CONTINUOUS
  0
LAYER
  2
BROWN2
  70
0
  62
54
  6
CONTINUOUS
  0
LAYER
  2
BLUE3
  70
0
  62
171
  6
CONTINUOUS
  0
LAYER
  2
GREEN3
  70
0
  62
91
  6
CONTINUOUS
  0
LAYER
  2
CYAN3
  70
0
  62
131
  6
CONTINUOUS
  0
LAYER
  2
RED3
  70
0
  62
11
  6
CONTINUOUS
  0
LAYER
  2
MAGENTA3
  70
0
  62
221
  6
CONTINUOUS
  0
LAYER
  2
YELLOW3
  70
0
  62
2
  6
CONTINUOUS
  0
LAYER
  2
BLUE4
  70
0
  62
5
  6
CONTINUOUS
  0
LAYER
  2
GREEN4
  70
0
  62
3
  6
CONTINUOUS
  0
LAYER
  2
CYAN4
  70
0
  62
4
  6
CONTINUOUS
  0
LAYER
  2
RED4
  70
0
  62
1
  6
CONTINUOUS
  0
LAYER
  2
MAGENTA4
  70
0
  62
6
  6
CONTINUOUS
  0
LAYER
  2
YELLOW4
  70
0
  62
2
  6
CONTINUOUS
  0
ENDTAB
  0
ENDSEC
  0
SECTION
  2
ENTITIES
0
LINE
8
BLACK
6
CONTINUOUS
10
152.663
20
-132.485
11
152.826
21
-132.552
0
LINE
8
BLACK
6
CONTINUOUS
10
152.826
20
-132.552
11
152.974
21
-132.651
0
LINE
8
BLACK
6
CONTINUOUS
10
152.974
20
-132.651
11
153.099
21
-132.776
0
LINE
8
BLACK
6
CONTINUOUS
10
153.099
20
-132.776
11
153.198
21
-132.924
0
LINE
8
BLACK
6
CONTINUOUS
10
153.198
20
-132.924
11
153.265
21
-133.087
0
LINE
8
BLACK
6
CONTINUOUS
10
153.265
20
-133.087
11
153.3
21
-133.261
0
LINE
8
BLACK
6
CONTINUOUS
10
153.3
20
-133.261
11
153.3
21
-133.439
0
LINE
8
BLACK
6
CONTINUOUS
10
153.3
20
-133.439
11
153.265
21
-133.613
0
LINE
8
BLACK
6
CONTINUOUS
10
153.265
20
-133.613
11
153.198
21
-133.776
0
LINE
8
BLACK
6
CONTINUOUS
10
153.198
20
-133.776
11
153.099
21
-133.924
0
LINE
8
BLACK
6
CONTINUOUS
10
153.099
20
-133.924
11
152.974
21
-134.049
0
LINE
8
BLACK
6
CONTINUOUS
10
152.974
20
-134.049
11
152.826
21
-134.148
0
LINE
8
BLACK
6
CONTINUOUS
10
152.826
20
-134.148
11
152.663
21
-134.215
0
LINE
8
BLACK
6
CONTINUOUS
10
152.663
20
-134.215
11
152.489
21
-134.25
0
LINE
8
BLACK
6
CONTINUOUS
10
152.489
20
-134.25
11
152.311
21
-134.25
0
LINE
8
BLACK
6
CONTINUOUS
10
152.311
20
-134.25
11
152.137
21
-134.215
0
LINE
8
BLACK
6
CONTINUOUS
10
152.137
20
-134.215
11
151.974
21
-134.148
0
LINE
8
BLACK
6
CONTINUOUS
10
151.974
20
-134.148
11
151.826
21
-134.049
0
LINE
8
BLACK
6
CONTINUOUS
10
151.826
20
-134.049
11
151.701
21
-133.924
0
LINE
8
BLACK
6
CONTINUOUS
10
151.701
20
-133.924
11
151.602
21
-133.776
0
LINE
8
BLACK
6
CONTINUOUS
10
151.602
20
-133.776
11
151.535
21
-133.613
0
LINE
8
BLACK
6
CONTINUOUS
10
151.535
20
-133.613
11
151.5
21
-133.439
0
LINE
8
BLACK
6
CONTINUOUS
10
151.5
20
-133.439
11
151.5
21
-133.261
0
LINE
8
BLACK
6
CONTINUOUS
10
151.5
20
-133.261
11
151.535
21
-133.087
0
LINE
8
BLACK
6
CONTINUOUS
10
151.535
20
-133.087
11
151.602
21
-132.924
0
LINE
8
BLACK
6
CONTINUOUS
10
151.602
20
-132.924
11
151.701
21
-132.776
0
LINE
8
BLACK
6
CONTINUOUS
10
151.701
20
-132.776
11
151.826
21
-132.651
0
LINE
8
BLACK
6
CONTINUOUS
10
151.826
20
-132.651
11
151.974
21
-132.552
0
LINE
8
BLACK
6
CONTINUOUS
10
151.974
20
-132.552
11
152.137
21
-132.485
0
LINE
8
BLACK
6
CONTINUOUS
10
152.137
20
-132.485
11
152.311
21
-132.45
0
LINE
8
BLACK
6
CONTINUOUS
10
152.311
20
-132.45
11
152.489
21
-132.45
0
LINE
8
BLACK
6
CONTINUOUS
10
152.489
20
-132.45
11
152.663
21
-132.485
0
LINE
8
BLACK
6
CONTINUOUS
10
147.809
20
-131.151
11
148.035
21
-131.22
0
LINE
8
BLACK
6
CONTINUOUS
10
148.035
20
-131.22
11
148.244
21
-131.331
0
LINE
8
BLACK
6
CONTINUOUS
10
148.244
20
-131.331
11
148.427
21
-131.481
0
LINE
8
BLACK
6
CONTINUOUS
10
148.427
20
-131.481
11
148.577
21
-131.664
0
LINE
8
BLACK
6
CONTINUOUS
10
148.577
20
-131.664
11
148.688
21
-131.873
0
LINE
8
BLACK
6
CONTINUOUS
10
148.688
20
-131.873
11
148.757
21
-132.099
0
LINE
8
BLACK
6
CONTINUOUS
10
148.757
20
-132.099
11
148.78
21
-132.334
0
LINE
8
BLACK
6
CONTINUOUS
10
148.78
20
-132.334
11
148.757
21
-132.569
0
LINE
8
BLACK
6
CONTINUOUS
10
148.757
20
-132.569
11
148.688
21
-132.795
0
LINE
8
BLACK
6
CONTINUOUS
10
148.688
20
-132.795
11
148.577
21
-133.004
0
LINE
8
BLACK
6
CONTINUOUS
10
148.577
20
-133.004
11
148.427
21
-133.187
0
LINE
8
BLACK
6
CONTINUOUS
10
148.427
20
-133.187
11
148.244
21
-133.337
0
LINE
8
BLACK
6
CONTINUOUS
10
148.244
20
-133.337
11
148.035
21
-133.448
0
LINE
8
BLACK
6
CONTINUOUS
10
148.035
20
-133.448
11
147.809
21
-133.517
0
LINE
8
BLACK
6
CONTINUOUS
10
147.809
20
-133.517
11
147.633
21
-133.534
0
LINE
8
BLACK
6
CONTINUOUS
10
147.633
20
-133.534
11
147.515
21
-133.534
0
LINE
8
BLACK
6
CONTINUOUS
10
147.515
20
-133.534
11
147.339
21
-133.517
0
LINE
8
BLACK
6
CONTINUOUS
10
147.339
20
-133.517
11
147.113
21
-133.448
0
LINE
8
BLACK
6
CONTINUOUS
10
147.113
20
-133.448
11
146.904
21
-133.337
0
LINE
8
BLACK
6
CONTINUOUS
10
146.904
20
-133.337
11
146.721
21
-133.187
0
LINE
8
BLACK
6
CONTINUOUS
10
146.721
20
-133.187
11
146.571
21
-133.004
0
LINE
8
BLACK
6
CONTINUOUS
10
146.571
20
-133.004
11
146.46
21
-132.795
0
LINE
8
BLACK
6
CONTINUOUS
10
146.46
20
-132.795
11
146.391
21
-132.569
0
LINE
8
BLACK
6
CONTINUOUS
10
146.391
20
-132.569
11
146.368
21
-132.334
0
LINE
8
BLACK
6
CONTINUOUS
10
146.368
20
-132.334
11
146.391
21
-132.099
0
LINE
8
BLACK
6
CONTINUOUS
10
146.391
20
-132.099
11
146.46
21
-131.873
0
LINE
8
BLACK
6
CONTINUOUS
10
146.46
20
-131.873
11
146.571
21
-131.664
0
LINE
8
BLACK
6
CONTINUOUS
10
146.571
20
-131.664
11
146.721
21
-131.481
0
LINE
8
BLACK
6
CONTINUOUS
10
146.721
20
-131.481
11
146.904
21
-131.331
0
LINE
8
BLACK
6
CONTINUOUS
10
146.904
20
-131.331
11
147.113
21
-131.22
0
LINE
8
BLACK
6
CONTINUOUS
10
147.113
20
-131.22
11
147.339
21
-131.151
0
LINE
8
BLACK
6
CONTINUOUS
10
147.339
20
-131.151
11
147.515
21
-131.134
0
LINE
8
BLACK
6
CONTINUOUS
10
147.515
20
-131.134
11
147.633
21
-131.134
0
LINE
8
BLACK
6
CONTINUOUS
10
147.633
20
-131.134
11
147.809
21
-131.151
0
LINE
8
BLACK
6
CONTINUOUS
10
157.461
20
-131.151
11
157.687
21
-131.22
0
LINE
8
BLACK
6
CONTINUOUS
10
157.687
20
-131.22
11
157.896
21
-131.331
0
LINE
8
BLACK
6
CONTINUOUS
10
157.896
20
-131.331
11
158.079
21
-131.481
0
LINE
8
BLACK
6
CONTINUOUS
10
158.079
20
-131.481
11
158.229
21
-131.664
0
LINE
8
BLACK
6
CONTINUOUS
10
158.229
20
-131.664
11
158.34
21
-131.873
0
LINE
8
BLACK
6
CONTINUOUS
10
158.34
20
-131.873
11
158.409
21
-132.099
0
LINE
8
BLACK
6
CONTINUOUS
10
158.409
20
-132.099
11
158.432
21
-132.334
0
LINE
8
BLACK
6
CONTINUOUS
10
158.432
20
-132.334
11
158.409
21
-132.569
0
LINE
8
BLACK
6
CONTINUOUS
10
158.409
20
-132.569
11
158.34
21
-132.795
0
LINE
8
BLACK
6
CONTINUOUS
10
158.34
20
-132.795
11
158.229
21
-133.004
0
LINE
8
BLACK
6
CONTINUOUS
10
158.229
20
-133.004
11
158.079
21
-133.187
0
LINE
8
BLACK
6
CONTINUOUS
10
158.079
20
-133.187
11
157.896
21
-133.337
0
LINE
8
BLACK
6
CONTINUOUS
10
157.896
20
-133.337
11
157.687
21
-133.448
0
LINE
8
BLACK
6
CONTINUOUS
10
157.687
20
-133.448
11
157.461
21
-133.517
0
LINE
8
BLACK
6
CONTINUOUS
10
157.461
20
-133.517
11
157.285
21
-133.534
0
LINE
8
BLACK
6
CONTINUOUS
10
157.285
20
-133.534
11
157.167
21
-133.534
0
LINE
8
BLACK
6
CONTINUOUS
10
157.167
20
-133.534
11
156.991
21
-133.517
0
LINE
8
BLACK
6
CONTINUOUS
10
156.991
20
-133.517
11
156.765
21
-133.448
0
LINE
8
BLACK
6
CONTINUOUS
10
156.765
20
-133.448
11
156.556
21
-133.337
0
LINE
8
BLACK
6
CONTINUOUS
10
156.556
20
-133.337
11
156.373
21
-133.187
0
LINE
8
BLACK
6
CONTINUOUS
10
156.373
20
-133.187
11
156.223
21
-133.004
0
LINE
8
BLACK
6
CONTINUOUS
10
156.223
20
-133.004
11
156.112
21
-132.795
0
LINE
8
BLACK
6
CONTINUOUS
10
156.112
20
-132.795
11
156.043
21
-132.569
0
LINE
8
BLACK
6
CONTINUOUS
10
156.043
20
-132.569
11
156.02
21
-132.334
0
LINE
8
BLACK
6
CONTINUOUS
10
156.02
20
-132.334
11
156.043
21
-132.099
0
LINE
8
BLACK
6
CONTINUOUS
10
156.043
20
-132.099
11
156.112
21
-131.873
0
LINE
8
BLACK
6
CONTINUOUS
10
156.112
20
-131.873
11
156.223
21
-131.664
0
LINE
8
BLACK
6
CONTINUOUS
10
156.223
20
-131.664
11
156.373
21
-131.481
0
LINE
8
BLACK
6
CONTINUOUS
10
156.373
20
-131.481
11
156.556
21
-131.331
0
LINE
8
BLACK
6
CONTINUOUS
10
156.556
20
-131.331
11
156.765
21
-131.22
0
LINE
8
BLACK
6
CONTINUOUS
10
156.765
20
-131.22
11
156.991
21
-131.151
0
LINE
8
BLACK
6
CONTINUOUS
10
156.991
20
-131.151
11
157.167
21
-131.134
0
LINE
8
BLACK
6
CONTINUOUS
10
157.167
20
-131.134
11
157.285
21
-131.134
0
LINE
8
BLACK
6
CONTINUOUS
10
157.285
20
-131.134
11
157.461
21
-131.151
0
LINE
8
BLACK
6
CONTINUOUS
10
142.503
20
-130.707
11
142.666
21
-130.774
0
LINE
8
BLACK
6
CONTINUOUS
10
142.666
20
-130.774
11
142.814
21
-130.873
0
LINE
8
BLACK
6
CONTINUOUS
10
142.814
20
-130.873
11
142.939
21
-130.998
0
LINE
8
BLACK
6
CONTINUOUS
10
142.939
20
-130.998
11
143.038
21
-131.146
0
LINE
8
BLACK
6
CONTINUOUS
10
143.038
20
-131.146
11
143.105
21
-131.309
0
LINE
8
BLACK
6
CONTINUOUS
10
143.105
20
-131.309
11
143.14
21
-131.483
0
LINE
8
BLACK
6
CONTINUOUS
10
143.14
20
-131.483
11
143.14
21
-131.661
0
LINE
8
BLACK
6
CONTINUOUS
10
143.14
20
-131.661
11
143.105
21
-131.835
0
LINE
8
BLACK
6
CONTINUOUS
10
143.105
20
-131.835
11
143.038
21
-131.998
0
LINE
8
BLACK
6
CONTINUOUS
10
143.038
20
-131.998
11
142.939
21
-132.146
0
LINE
8
BLACK
6
CONTINUOUS
10
142.939
20
-132.146
11
142.814
21
-132.271
0
LINE
8
BLACK
6
CONTINUOUS
10
142.814
20
-132.271
11
142.666
21
-132.37
0
LINE
8
BLACK
6
CONTINUOUS
10
142.666
20
-132.37
11
142.503
21
-132.437
0
LINE
8
BLACK
6
CONTINUOUS
10
142.503
20
-132.437
11
142.329
21
-132.472
0
LINE
8
BLACK
6
CONTINUOUS
10
142.329
20
-132.472
11
142.151
21
-132.472
0
LINE
8
BLACK
6
CONTINUOUS
10
142.151
20
-132.472
11
141.977
21
-132.437
0
LINE
8
BLACK
6
CONTINUOUS
10
141.977
20
-132.437
11
141.814
21
-132.37
0
LINE
8
BLACK
6
CONTINUOUS
10
141.814
20
-132.37
11
141.666
21
-132.271
0
LINE
8
BLACK
6
CONTINUOUS
10
141.666
20
-132.271
11
141.541
21
-132.146
0
LINE
8
BLACK
6
CONTINUOUS
10
141.541
20
-132.146
11
141.442
21
-131.998
0
LINE
8
BLACK
6
CONTINUOUS
10
141.442
20
-131.998
11
141.375
21
-131.835
0
LINE
8
BLACK
6
CONTINUOUS
10
141.375
20
-131.835
11
141.34
21
-131.661
0
LINE
8
BLACK
6
CONTINUOUS
10
141.34
20
-131.661
11
141.34
21
-131.483
0
LINE
8
BLACK
6
CONTINUOUS
10
141.34
20
-131.483
11
141.375
21
-131.309
0
LINE
8
BLACK
6
CONTINUOUS
10
141.375
20
-131.309
11
141.442
21
-131.146
0
LINE
8
BLACK
6
CONTINUOUS
10
141.442
20
-131.146
11
141.541
21
-130.998
0
LINE
8
BLACK
6
CONTINUOUS
10
141.541
20
-130.998
11
141.666
21
-130.873
0
LINE
8
BLACK
6
CONTINUOUS
10
141.666
20
-130.873
11
141.814
21
-130.774
0
LINE
8
BLACK
6
CONTINUOUS
10
141.814
20
-130.774
11
141.977
21
-130.707
0
LINE
8
BLACK
6
CONTINUOUS
10
141.977
20
-130.707
11
142.151
21
-130.672
0
LINE
8
BLACK
6
CONTINUOUS
10
142.151
20
-130.672
11
142.329
21
-130.672
0
LINE
8
BLACK
6
CONTINUOUS
10
142.329
20
-130.672
11
142.503
21
-130.707
0
LINE
8
BLACK
6
CONTINUOUS
10
153.3
20
-131.71
11
151.5
21
-131.71
0
LINE
8
BLACK
6
CONTINUOUS
10
151.5
20
-131.71
11
151.5
21
-129.91
0
LINE
8
BLACK
6
CONTINUOUS
10
151.5
20
-129.91
11
153.3
21
-129.91
0
LINE
8
BLACK
6
CONTINUOUS
10
153.3
20
-129.91
11
153.3
21
-131.71
0
LINE
8
BLACK
6
CONTINUOUS
10
143.14
20
-129.932
11
141.34
21
-129.932
0
LINE
8
BLACK
6
CONTINUOUS
10
141.34
20
-129.932
11
141.34
21
-128.132
0
LINE
8
BLACK
6
CONTINUOUS
10
141.34
20
-128.132
11
143.14
21
-128.132
0
LINE
8
BLACK
6
CONTINUOUS
10
143.14
20
-128.132
11
143.14
21
-129.932
0
LINE
8
BLACK
6
CONTINUOUS
10
152.125
20
-126.739
11
152.271
21
-126.799
0
LINE
8
BLACK
6
CONTINUOUS
10
152.271
20
-126.799
11
152.402
21
-126.887
0
LINE
8
BLACK
6
CONTINUOUS
10
152.402
20
-126.887
11
152.513
21
-126.998
0
LINE
8
BLACK
6
CONTINUOUS
10
152.513
20
-126.998
11
152.601
21
-127.129
0
LINE
8
BLACK
6
CONTINUOUS
10
152.601
20
-127.129
11
152.661
21
-127.275
0
LINE
8
BLACK
6
CONTINUOUS
10
152.661
20
-127.275
11
152.692
21
-127.429
0
LINE
8
BLACK
6
CONTINUOUS
10
152.692
20
-127.429
11
152.692
21
-127.587
0
LINE
8
BLACK
6
CONTINUOUS
10
152.692
20
-127.587
11
152.661
21
-127.741
0
LINE
8
BLACK
6
CONTINUOUS
10
152.661
20
-127.741
11
152.601
21
-127.887
0
LINE
8
BLACK
6
CONTINUOUS
10
152.601
20
-127.887
11
152.513
21
-128.018
0
LINE
8
BLACK
6
CONTINUOUS
10
152.513
20
-128.018
11
152.402
21
-128.129
0
LINE
8
BLACK
6
CONTINUOUS
10
152.402
20
-128.129
11
152.271
21
-128.217
0
LINE
8
BLACK
6
CONTINUOUS
10
152.271
20
-128.217
11
152.125
21
-128.277
0
LINE
8
BLACK
6
CONTINUOUS
10
152.125
20
-128.277
11
151.971
21
-128.308
0
LINE
8
BLACK
6
CONTINUOUS
10
151.971
20
-128.308
11
151.813
21
-128.308
0
LINE
8
BLACK
6
CONTINUOUS
10
151.813
20
-128.308
11
151.659
21
-128.277
0
LINE
8
BLACK
6
CONTINUOUS
10
151.659
20
-128.277
11
151.513
21
-128.217
0
LINE
8
BLACK
6
CONTINUOUS
10
151.513
20
-128.217
11
151.382
21
-128.129
0
LINE
8
BLACK
6
CONTINUOUS
10
151.382
20
-128.129
11
151.271
21
-128.018
0
LINE
8
BLACK
6
CONTINUOUS
10
151.271
20
-128.018
11
151.183
21
-127.887
0
LINE
8
BLACK
6
CONTINUOUS
10
151.183
20
-127.887
11
151.123
21
-127.741
0
LINE
8
BLACK
6
CONTINUOUS
10
151.123
20
-127.741
11
151.092
21
-127.587
0
LINE
8
BLACK
6
CONTINUOUS
10
151.092
20
-127.587
11
151.092
21
-127.429
0
LINE
8
BLACK
6
CONTINUOUS
10
151.092
20
-127.429
11
151.123
21
-127.275
0
LINE
8
BLACK
6
CONTINUOUS
10
151.123
20
-127.275
11
151.183
21
-127.129
0
LINE
8
BLACK
6
CONTINUOUS
10
151.183
20
-127.129
11
151.271
21
-126.998
0
LINE
8
BLACK
6
CONTINUOUS
10
151.271
20
-126.998
11
151.382
21
-126.887
0
LINE
8
BLACK
6
CONTINUOUS
10
151.382
20
-126.887
11
151.513
21
-126.799
0
LINE
8
BLACK
6
CONTINUOUS
10
151.513
20
-126.799
11
151.659
21
-126.739
0
LINE
8
BLACK
6
CONTINUOUS
10
151.659
20
-126.739
11
151.813
21
-126.708
0
LINE
8
BLACK
6
CONTINUOUS
10
151.813
20
-126.708
11
151.971
21
-126.708
0
LINE
8
BLACK
6
CONTINUOUS
10
151.971
20
-126.708
11
152.125
21
-126.739
0
LINE
8
BLACK
6
CONTINUOUS
10
93.1475
20
-124.796
11
93.4205
21
-124.909
0
LINE
8
BLACK
6
CONTINUOUS
10
93.4205
20
-124.909
11
93.6662
21
-125.073
0
LINE
8
BLACK
6
CONTINUOUS
10
93.6662
20
-125.073
11
93.8751
21
-125.282
0
LINE
8
BLACK
6
CONTINUOUS
10
93.8751
20
-125.282
11
94.0393
21
-125.527
0
LINE
8
BLACK
6
CONTINUOUS
10
94.0393
20
-125.527
11
94.1524
21
-125.8
0
LINE
8
BLACK
6
CONTINUOUS
10
94.1524
20
-125.8
11
94.21
21
-126.09
0
LINE
8
BLACK
6
CONTINUOUS
10
94.21
20
-126.09
11
94.21
21
-126.386
0
LINE
8
BLACK
6
CONTINUOUS
10
94.21
20
-126.386
11
94.1524
21
-126.676
0
LINE
8
BLACK
6
CONTINUOUS
10
94.1524
20
-126.676
11
94.0393
21
-126.949
0
LINE
8
BLACK
6
CONTINUOUS
10
94.0393
20
-126.949
11
93.8751
21
-127.194
0
LINE
8
BLACK
6
CONTINUOUS
10
93.8751
20
-127.194
11
93.6662
21
-127.403
0
LINE
8
BLACK
6
CONTINUOUS
10
93.6662
20
-127.403
11
93.4205
21
-127.567
0
LINE
8
BLACK
6
CONTINUOUS
10
93.4205
20
-127.567
11
93.1475
21
-127.68
0
LINE
8
BLACK
6
CONTINUOUS
10
93.1475
20
-127.68
11
92.8577
21
-127.738
0
LINE
8
BLACK
6
CONTINUOUS
10
92.8577
20
-127.738
11
92.5623
21
-127.738
0
LINE
8
BLACK
6
CONTINUOUS
10
92.5623
20
-127.738
11
92.2725
21
-127.68
0
LINE
8
BLACK
6
CONTINUOUS
10
92.2725
20
-127.68
11
91.9995
21
-127.567
0
LINE
8
BLACK
6
CONTINUOUS
10
91.9995
20
-127.567
11
91.7538
21
-127.403
0
LINE
8
BLACK
6
CONTINUOUS
10
91.7538
20
-127.403
11
91.5449
21
-127.194
0
LINE
8
BLACK
6
CONTINUOUS
10
91.5449
20
-127.194
11
91.3807
21
-126.949
0
LINE
8
BLACK
6
CONTINUOUS
10
91.3807
20
-126.949
11
91.2676
21
-126.676
0
LINE
8
BLACK
6
CONTINUOUS
10
91.2676
20
-126.676
11
91.21
21
-126.386
0
LINE
8
BLACK
6
CONTINUOUS
10
91.21
20
-126.386
11
91.21
21
-126.09
0
LINE
8
BLACK
6
CONTINUOUS
10
91.21
20
-126.09
11
91.2676
21
-125.8
0
LINE
8
BLACK
6
CONTINUOUS
10
91.2676
20
-125.8
11
91.3807
21
-125.527
0
LINE
8
BLACK
6
CONTINUOUS
10
91.3807
20
-125.527
11
91.5449
21
-125.282
0
LINE
8
BLACK
6
CONTINUOUS
10
91.5449
20
-125.282
11
91.7538
21
-125.073
0
LINE
8
BLACK
6
CONTINUOUS
10
91.7538
20
-125.073
11
91.9995
21
-124.909
0
LINE
8
BLACK
6
CONTINUOUS
10
91.9995
20
-124.909
11
92.2725
21
-124.796
0
LINE
8
BLACK
6
CONTINUOUS
10
92.2725
20
-124.796
11
92.5623
21
-124.738
0
LINE
8
BLACK
6
CONTINUOUS
10
92.5623
20
-124.738
11
92.8577
21
-124.738
0
LINE
8
BLACK
6
CONTINUOUS
10
92.8577
20
-124.738
11
93.1475
21
-124.796
0
LINE
8
BLACK
6
CONTINUOUS
10
166.854
20
-126.976
11
163.854
21
-126.976
0
LINE
8
BLACK
6
CONTINUOUS
10
163.854
20
-126.976
11
163.854
21
-123.976
0
LINE
8
BLACK
6
CONTINUOUS
10
163.854
20
-123.976
11
166.854
21
-123.976
0
LINE
8
BLACK
6
CONTINUOUS
10
166.854
20
-123.976
11
166.854
21
-126.976
0
LINE
8
BLACK
6
CONTINUOUS
10
143.44
20
-126.422
11
141.04
21
-126.422
0
LINE
8
BLACK
6
CONTINUOUS
10
141.04
20
-126.422
11
141.04
21
-124.022
0
LINE
8
BLACK
6
CONTINUOUS
10
141.04
20
-124.022
11
143.44
21
-124.022
0
LINE
8
BLACK
6
CONTINUOUS
10
143.44
20
-124.022
11
143.44
21
-126.422
0
LINE
8
BLACK
6
CONTINUOUS
10
152.692
20
-126.308
11
151.092
21
-126.308
0
LINE
8
BLACK
6
CONTINUOUS
10
151.092
20
-126.308
11
151.092
21
-124.708
0
LINE
8
BLACK
6
CONTINUOUS
10
151.092
20
-124.708
11
152.692
21
-124.708
0
LINE
8
BLACK
6
CONTINUOUS
10
152.692
20
-124.708
11
152.692
21
-126.308
0
LINE
8
BLACK
6
CONTINUOUS
10
152.892
20
-123.332
11
150.892
21
-123.332
0
LINE
8
BLACK
6
CONTINUOUS
10
150.892
20
-123.332
11
150.892
21
-122.032
0
LINE
8
BLACK
6
CONTINUOUS
10
150.892
20
-122.032
11
152.892
21
-122.032
0
LINE
8
BLACK
6
CONTINUOUS
10
152.892
20
-122.032
11
152.892
21
-123.332
0
LINE
8
BLACK
6
CONTINUOUS
10
93.1475
20
-119.716
11
93.4205
21
-119.829
0
LINE
8
BLACK
6
CONTINUOUS
10
93.4205
20
-119.829
11
93.6662
21
-119.993
0
LINE
8
BLACK
6
CONTINUOUS
10
93.6662
20
-119.993
11
93.8751
21
-120.202
0
LINE
8
BLACK
6
CONTINUOUS
10
93.8751
20
-120.202
11
94.0393
21
-120.447
0
LINE
8
BLACK
6
CONTINUOUS
10
94.0393
20
-120.447
11
94.1524
21
-120.72
0
LINE
8
BLACK
6
CONTINUOUS
10
94.1524
20
-120.72
11
94.21
21
-121.01
0
LINE
8
BLACK
6
CONTINUOUS
10
94.21
20
-121.01
11
94.21
21
-121.306
0
LINE
8
BLACK
6
CONTINUOUS
10
94.21
20
-121.306
11
94.1524
21
-121.596
0
LINE
8
BLACK
6
CONTINUOUS
10
94.1524
20
-121.596
11
94.0393
21
-121.869
0
LINE
8
BLACK
6
CONTINUOUS
10
94.0393
20
-121.869
11
93.8751
21
-122.114
0
LINE
8
BLACK
6
CONTINUOUS
10
93.8751
20
-122.114
11
93.6662
21
-122.323
0
LINE
8
BLACK
6
CONTINUOUS
10
93.6662
20
-122.323
11
93.4205
21
-122.487
0
LINE
8
BLACK
6
CONTINUOUS
10
93.4205
20
-122.487
11
93.1475
21
-122.6
0
LINE
8
BLACK
6
CONTINUOUS
10
93.1475
20
-122.6
11
92.8577
21
-122.658
0
LINE
8
BLACK
6
CONTINUOUS
10
92.8577
20
-122.658
11
92.5623
21
-122.658
0
LINE
8
BLACK
6
CONTINUOUS
10
92.5623
20
-122.658
11
92.2725
21
-122.6
0
LINE
8
BLACK
6
CONTINUOUS
10
92.2725
20
-122.6
11
91.9995
21
-122.487
0
LINE
8
BLACK
6
CONTINUOUS
10
91.9995
20
-122.487
11
91.7538
21
-122.323
0
LINE
8
BLACK
6
CONTINUOUS
10
91.7538
20
-122.323
11
91.5449
21
-122.114
0
LINE
8
BLACK
6
CONTINUOUS
10
91.5449
20
-122.114
11
91.3807
21
-121.869
0
LINE
8
BLACK
6
CONTINUOUS
10
91.3807
20
-121.869
11
91.2676
21
-121.596
0
LINE
8
BLACK
6
CONTINUOUS
10
91.2676
20
-121.596
11
91.21
21
-121.306
0
LINE
8
BLACK
6
CONTINUOUS
10
91.21
20
-121.306
11
91.21
21
-121.01
0
LINE
8
BLACK
6
CONTINUOUS
10
91.21
20
-121.01
11
91.2676
21
-120.72
0
LINE
8
BLACK
6
CONTINUOUS
10
91.2676
20
-120.72
11
91.3807
21
-120.447
0
LINE
8
BLACK
6
CONTINUOUS
10
91.3807
20
-120.447
11
91.5449
21
-120.202
0
LINE
8
BLACK
6
CONTINUOUS
10
91.5449
20
-120.202
11
91.7538
21
-119.993
0
LINE
8
BLACK
6
CONTINUOUS
10
91.7538
20
-119.993
11
91.9995
21
-119.829
0
LINE
8
BLACK
6
CONTINUOUS
10
91.9995
20
-119.829
11
92.2725
21
-119.716
0
LINE
8
BLACK
6
CONTINUOUS
10
92.2725
20
-119.716
11
92.5623
21
-119.658
0
LINE
8
BLACK
6
CONTINUOUS
10
92.5623
20
-119.658
11
92.8577
21
-119.658
0
LINE
8
BLACK
6
CONTINUOUS
10
92.8577
20
-119.658
11
93.1475
21
-119.716
0
LINE
8
BLACK
6
CONTINUOUS
10
165.792
20
-118.954
11
166.065
21
-119.067
0
LINE
8
BLACK
6
CONTINUOUS
10
166.065
20
-119.067
11
166.31
21
-119.231
0
LINE
8
BLACK
6
CONTINUOUS
10
166.31
20
-119.231
11
166.519
21
-119.44
0
LINE
8
BLACK
6
CONTINUOUS
10
166.519
20
-119.44
11
166.683
21
-119.685
0
LINE
8
BLACK
6
CONTINUOUS
10
166.683
20
-119.685
11
166.796
21
-119.958
0
LINE
8
BLACK
6
CONTINUOUS
10
166.796
20
-119.958
11
166.854
21
-120.248
0
LINE
8
BLACK
6
CONTINUOUS
10
166.854
20
-120.248
11
166.854
21
-120.544
0
LINE
8
BLACK
6
CONTINUOUS
10
166.854
20
-120.544
11
166.796
21
-120.834
0
LINE
8
BLACK
6
CONTINUOUS
10
166.796
20
-120.834
11
166.683
21
-121.107
0
LINE
8
BLACK
6
CONTINUOUS
10
166.683
20
-121.107
11
166.519
21
-121.352
0
LINE
8
BLACK
6
CONTINUOUS
10
166.519
20
-121.352
11
166.31
21
-121.561
0
LINE
8
BLACK
6
CONTINUOUS
10
166.31
20
-121.561
11
166.065
21
-121.725
0
LINE
8
BLACK
6
CONTINUOUS
10
166.065
20
-121.725
11
165.792
21
-121.838
0
LINE
8
BLACK
6
CONTINUOUS
10
165.792
20
-121.838
11
165.502
21
-121.896
0
LINE
8
BLACK
6
CONTINUOUS
10
165.502
20
-121.896
11
165.206
21
-121.896
0
LINE
8
BLACK
6
CONTINUOUS
10
165.206
20
-121.896
11
164.916
21
-121.838
0
LINE
8
BLACK
6
CONTINUOUS
10
164.916
20
-121.838
11
164.643
21
-121.725
0
LINE
8
BLACK
6
CONTINUOUS
10
164.643
20
-121.725
11
164.398
21
-121.561
0
LINE
8
BLACK
6
CONTINUOUS
10
164.398
20
-121.561
11
164.189
21
-121.352
0
LINE
8
BLACK
6
CONTINUOUS
10
164.189
20
-121.352
11
164.025
21
-121.107
0
LINE
8
BLACK
6
CONTINUOUS
10
164.025
20
-121.107
11
163.912
21
-120.834
0
LINE
8
BLACK
6
CONTINUOUS
10
163.912
20
-120.834
11
163.854
21
-120.544
0
LINE
8
BLACK
6
CONTINUOUS
10
163.854
20
-120.544
11
163.854
21
-120.248
0
LINE
8
BLACK
6
CONTINUOUS
10
163.854
20
-120.248
11
163.912
21
-119.958
0
LINE
8
BLACK
6
CONTINUOUS
10
163.912
20
-119.958
11
164.025
21
-119.685
0
LINE
8
BLACK
6
CONTINUOUS
10
164.025
20
-119.685
11
164.189
21
-119.44
0
LINE
8
BLACK
6
CONTINUOUS
10
164.189
20
-119.44
11
164.398
21
-119.231
0
LINE
8
BLACK
6
CONTINUOUS
10
164.398
20
-119.231
11
164.643
21
-119.067
0
LINE
8
BLACK
6
CONTINUOUS
10
164.643
20
-119.067
11
164.916
21
-118.954
0
LINE
8
BLACK
6
CONTINUOUS
10
164.916
20
-118.954
11
165.206
21
-118.896
0
LINE
8
BLACK
6
CONTINUOUS
10
165.206
20
-118.896
11
165.502
21
-118.896
0
LINE
8
BLACK
6
CONTINUOUS
10
165.502
20
-118.896
11
165.792
21
-118.954
0
LINE
8
BLACK
6
CONTINUOUS
10
103.362
20
-121.504
11
101.362
21
-121.504
0
LINE
8
BLACK
6
CONTINUOUS
10
101.362
20
-121.504
11
101.362
21
-120.304
0
LINE
8
BLACK
6
CONTINUOUS
10
101.362
20
-120.304
11
103.362
21
-120.304
0
LINE
8
BLACK
6
CONTINUOUS
10
103.362
20
-120.304
11
103.362
21
-121.504
0
LINE
8
BLACK
6
CONTINUOUS
10
157.576
20
-118.48
11
157.794
21
-118.571
0
LINE
8
BLACK
6
CONTINUOUS
10
157.794
20
-118.571
11
157.991
21
-118.702
0
LINE
8
BLACK
6
CONTINUOUS
10
157.991
20
-118.702
11
158.158
21
-118.869
0
LINE
8
BLACK
6
CONTINUOUS
10
158.158
20
-118.869
11
158.289
21
-119.066
0
LINE
8
BLACK
6
CONTINUOUS
10
158.289
20
-119.066
11
158.38
21
-119.284
0
LINE
8
BLACK
6
CONTINUOUS
10
158.38
20
-119.284
11
158.426
21
-119.516
0
LINE
8
BLACK
6
CONTINUOUS
10
158.426
20
-119.516
11
158.426
21
-119.752
0
LINE
8
BLACK
6
CONTINUOUS
10
158.426
20
-119.752
11
158.38
21
-119.984
0
LINE
8
BLACK
6
CONTINUOUS
10
158.38
20
-119.984
11
158.289
21
-120.202
0
LINE
8
BLACK
6
CONTINUOUS
10
158.289
20
-120.202
11
158.158
21
-120.399
0
LINE
8
BLACK
6
CONTINUOUS
10
158.158
20
-120.399
11
157.991
21
-120.566
0
LINE
8
BLACK
6
CONTINUOUS
10
157.991
20
-120.566
11
157.794
21
-120.697
0
LINE
8
BLACK
6
CONTINUOUS
10
157.794
20
-120.697
11
157.576
21
-120.788
0
LINE
8
BLACK
6
CONTINUOUS
10
157.576
20
-120.788
11
157.344
21
-120.834
0
LINE
8
BLACK
6
CONTINUOUS
10
157.344
20
-120.834
11
157.108
21
-120.834
0
LINE
8
BLACK
6
CONTINUOUS
10
157.108
20
-120.834
11
156.876
21
-120.788
0
LINE
8
BLACK
6
CONTINUOUS
10
156.876
20
-120.788
11
156.658
21
-120.697
0
LINE
8
BLACK
6
CONTINUOUS
10
156.658
20
-120.697
11
156.461
21
-120.566
0
LINE
8
BLACK
6
CONTINUOUS
10
156.461
20
-120.566
11
156.294
21
-120.399
0
LINE
8
BLACK
6
CONTINUOUS
10
156.294
20
-120.399
11
156.163
21
-120.202
0
LINE
8
BLACK
6
CONTINUOUS
10
156.163
20
-120.202
11
156.072
21
-119.984
0
LINE
8
BLACK
6
CONTINUOUS
10
156.072
20
-119.984
11
156.026
21
-119.752
0
LINE
8
BLACK
6
CONTINUOUS
10
156.026
20
-119.752
11
156.026
21
-119.516
0
LINE
8
BLACK
6
CONTINUOUS
10
156.026
20
-119.516
11
156.072
21
-119.284
0
LINE
8
BLACK
6
CONTINUOUS
10
156.072
20
-119.284
11
156.163
21
-119.066
0
LINE
8
BLACK
6
CONTINUOUS
10
156.163
20
-119.066
11
156.294
21
-118.869
0
LINE
8
BLACK
6
CONTINUOUS
10
156.294
20
-118.869
11
156.461
21
-118.702
0
LINE
8
BLACK
6
CONTINUOUS
10
156.461
20
-118.702
11
156.658
21
-118.571
0
LINE
8
BLACK
6
CONTINUOUS
10
156.658
20
-118.571
11
156.876
21
-118.48
0
LINE
8
BLACK
6
CONTINUOUS
10
156.876
20
-118.48
11
157.108
21
-118.434
0
LINE
8
BLACK
6
CONTINUOUS
10
157.108
20
-118.434
11
157.344
21
-118.434
0
LINE
8
BLACK
6
CONTINUOUS
10
157.344
20
-118.434
11
157.576
21
-118.48
0
LINE
8
BLACK
6
CONTINUOUS
10
147.924
20
-118.48
11
148.142
21
-118.571
0
LINE
8
BLACK
6
CONTINUOUS
10
148.142
20
-118.571
11
148.339
21
-118.702
0
LINE
8
BLACK
6
CONTINUOUS
10
148.339
20
-118.702
11
148.506
21
-118.869
0
LINE
8
BLACK
6
CONTINUOUS
10
148.506
20
-118.869
11
148.637
21
-119.066
0
LINE
8
BLACK
6
CONTINUOUS
10
148.637
20
-119.066
11
148.728
21
-119.284
0
LINE
8
BLACK
6
CONTINUOUS
10
148.728
20
-119.284
11
148.774
21
-119.516
0
LINE
8
BLACK
6
CONTINUOUS
10
148.774
20
-119.516
11
148.774
21
-119.752
0
LINE
8
BLACK
6
CONTINUOUS
10
148.774
20
-119.752
11
148.728
21
-119.984
0
LINE
8
BLACK
6
CONTINUOUS
10
148.728
20
-119.984
11
148.637
21
-120.202
0
LINE
8
BLACK
6
CONTINUOUS
10
148.637
20
-120.202
11
148.506
21
-120.399
0
LINE
8
BLACK
6
CONTINUOUS
10
148.506
20
-120.399
11
148.339
21
-120.566
0
LINE
8
BLACK
6
CONTINUOUS
10
148.339
20
-120.566
11
148.142
21
-120.697
0
LINE
8
BLACK
6
CONTINUOUS
10
148.142
20
-120.697
11
147.924
21
-120.788
0
LINE
8
BLACK
6
CONTINUOUS
10
147.924
20
-120.788
11
147.692
21
-120.834
0
LINE
8
BLACK
6
CONTINUOUS
10
147.692
20
-120.834
11
147.456
21
-120.834
0
LINE
8
BLACK
6
CONTINUOUS
10
147.456
20
-120.834
11
147.224
21
-120.788
0
LINE
8
BLACK
6
CONTINUOUS
10
147.224
20
-120.788
11
147.006
21
-120.697
0
LINE
8
BLACK
6
CONTINUOUS
10
147.006
20
-120.697
11
146.809
21
-120.566
0
LINE
8
BLACK
6
CONTINUOUS
10
146.809
20
-120.566
11
146.642
21
-120.399
0
LINE
8
BLACK
6
CONTINUOUS
10
146.642
20
-120.399
11
146.511
21
-120.202
0
LINE
8
BLACK
6
CONTINUOUS
10
146.511
20
-120.202
11
146.42
21
-119.984
0
LINE
8
BLACK
6
CONTINUOUS
10
146.42
20
-119.984
11
146.374
21
-119.752
0
LINE
8
BLACK
6
CONTINUOUS
10
146.374
20
-119.752
11
146.374
21
-119.516
0
LINE
8
BLACK
6
CONTINUOUS
10
146.374
20
-119.516
11
146.42
21
-119.284
0
LINE
8
BLACK
6
CONTINUOUS
10
146.42
20
-119.284
11
146.511
21
-119.066
0
LINE
8
BLACK
6
CONTINUOUS
10
146.511
20
-119.066
11
146.642
21
-118.869
0
LINE
8
BLACK
6
CONTINUOUS
10
146.642
20
-118.869
11
146.809
21
-118.702
0
LINE
8
BLACK
6
CONTINUOUS
10
146.809
20
-118.702
11
147.006
21
-118.571
0
LINE
8
BLACK
6
CONTINUOUS
10
147.006
20
-118.571
11
147.224
21
-118.48
0
LINE
8
BLACK
6
CONTINUOUS
10
147.224
20
-118.48
11
147.456
21
-118.434
0
LINE
8
BLACK
6
CONTINUOUS
10
147.456
20
-118.434
11
147.692
21
-118.434
0
LINE
8
BLACK
6
CONTINUOUS
10
147.692
20
-118.434
11
147.924
21
-118.48
0
LINE
8
BLACK
6
CONTINUOUS
10
152.892
20
-120.792
11
150.892
21
-120.792
0
LINE
8
BLACK
6
CONTINUOUS
10
150.892
20
-120.792
11
150.892
21
-119.492
0
LINE
8
BLACK
6
CONTINUOUS
10
150.892
20
-119.492
11
152.892
21
-119.492
0
LINE
8
BLACK
6
CONTINUOUS
10
152.892
20
-119.492
11
152.892
21
-120.792
0
LINE
8
BLACK
6
CONTINUOUS
10
103.362
20
-118.964
11
101.362
21
-118.964
0
LINE
8
BLACK
6
CONTINUOUS
10
101.362
20
-118.964
11
101.362
21
-117.764
0
LINE
8
BLACK
6
CONTINUOUS
10
101.362
20
-117.764
11
103.362
21
-117.764
0
LINE
8
BLACK
6
CONTINUOUS
10
103.362
20
-117.764
11
103.362
21
-118.964
0
LINE
8
BLACK
6
CONTINUOUS
10
93.1475
20
-114.636
11
93.4205
21
-114.749
0
LINE
8
BLACK
6
CONTINUOUS
10
93.4205
20
-114.749
11
93.6662
21
-114.913
0
LINE
8
BLACK
6
CONTINUOUS
10
93.6662
20
-114.913
11
93.8751
21
-115.122
0
LINE
8
BLACK
6
CONTINUOUS
10
93.8751
20
-115.122
11
94.0393
21
-115.367
0
LINE
8
BLACK
6
CONTINUOUS
10
94.0393
20
-115.367
11
94.1524
21
-115.64
0
LINE
8
BLACK
6
CONTINUOUS
10
94.1524
20
-115.64
11
94.21
21
-115.93
0
LINE
8
BLACK
6
CONTINUOUS
10
94.21
20
-115.93
11
94.21
21
-116.226
0
LINE
8
BLACK
6
CONTINUOUS
10
94.21
20
-116.226
11
94.1524
21
-116.516
0
LINE
8
BLACK
6
CONTINUOUS
10
94.1524
20
-116.516
11
94.0393
21
-116.789
0
LINE
8
BLACK
6
CONTINUOUS
10
94.0393
20
-116.789
11
93.8751
21
-117.034
0
LINE
8
BLACK
6
CONTINUOUS
10
93.8751
20
-117.034
11
93.6662
21
-117.243
0
LINE
8
BLACK
6
CONTINUOUS
10
93.6662
20
-117.243
11
93.4205
21
-117.407
0
LINE
8
BLACK
6
CONTINUOUS
10
93.4205
20
-117.407
11
93.1475
21
-117.52
0
LINE
8
BLACK
6
CONTINUOUS
10
93.1475
20
-117.52
11
92.8577
21
-117.578
0
LINE
8
BLACK
6
CONTINUOUS
10
92.8577
20
-117.578
11
92.5623
21
-117.578
0
LINE
8
BLACK
6
CONTINUOUS
10
92.5623
20
-117.578
11
92.2725
21
-117.52
0
LINE
8
BLACK
6
CONTINUOUS
10
92.2725
20
-117.52
11
91.9995
21
-117.407
0
LINE
8
BLACK
6
CONTINUOUS
10
91.9995
20
-117.407
11
91.7538
21
-117.243
0
LINE
8
BLACK
6
CONTINUOUS
10
91.7538
20
-117.243
11
91.5449
21
-117.034
0
LINE
8
BLACK
6
CONTINUOUS
10
91.5449
20
-117.034
11
91.3807
21
-116.789
0
LINE
8
BLACK
6
CONTINUOUS
10
91.3807
20
-116.789
11
91.2676
21
-116.516
0
LINE
8
BLACK
6
CONTINUOUS
10
91.2676
20
-116.516
11
91.21
21
-116.226
0
LINE
8
BLACK
6
CONTINUOUS
10
91.21
20
-116.226
11
91.21
21
-115.93
0
LINE
8
BLACK
6
CONTINUOUS
10
91.21
20
-115.93
11
91.2676
21
-115.64
0
LINE
8
BLACK
6
CONTINUOUS
10
91.2676
20
-115.64
11
91.3807
21
-115.367
0
LINE
8
BLACK
6
CONTINUOUS
10
91.3807
20
-115.367
11
91.5449
21
-115.122
0
LINE
8
BLACK
6
CONTINUOUS
10
91.5449
20
-115.122
11
91.7538
21
-114.913
0
LINE
8
BLACK
6
CONTINUOUS
10
91.7538
20
-114.913
11
91.9995
21
-114.749
0
LINE
8
BLACK
6
CONTINUOUS
10
91.9995
20
-114.749
11
92.2725
21
-114.636
0
LINE
8
BLACK
6
CONTINUOUS
10
92.2725
20
-114.636
11
92.5623
21
-114.578
0
LINE
8
BLACK
6
CONTINUOUS
10
92.5623
20
-114.578
11
92.8577
21
-114.578
0
LINE
8
BLACK
6
CONTINUOUS
10
92.8577
20
-114.578
11
93.1475
21
-114.636
0
LINE
8
BLACK
6
CONTINUOUS
10
165.792
20
-113.874
11
166.065
21
-113.987
0
LINE
8
BLACK
6
CONTINUOUS
10
166.065
20
-113.987
11
166.31
21
-114.151
0
LINE
8
BLACK
6
CONTINUOUS
10
166.31
20
-114.151
11
166.519
21
-114.36
0
LINE
8
BLACK
6
CONTINUOUS
10
166.519
20
-114.36
11
166.683
21
-114.605
0
LINE
8
BLACK
6
CONTINUOUS
10
166.683
20
-114.605
11
166.796
21
-114.878
0
LINE
8
BLACK
6
CONTINUOUS
10
166.796
20
-114.878
11
166.854
21
-115.168
0
LINE
8
BLACK
6
CONTINUOUS
10
166.854
20
-115.168
11
166.854
21
-115.464
0
LINE
8
BLACK
6
CONTINUOUS
10
166.854
20
-115.464
11
166.796
21
-115.754
0
LINE
8
BLACK
6
CONTINUOUS
10
166.796
20
-115.754
11
166.683
21
-116.027
0
LINE
8
BLACK
6
CONTINUOUS
10
166.683
20
-116.027
11
166.519
21
-116.272
0
LINE
8
BLACK
6
CONTINUOUS
10
166.519
20
-116.272
11
166.31
21
-116.481
0
LINE
8
BLACK
6
CONTINUOUS
10
166.31
20
-116.481
11
166.065
21
-116.645
0
LINE
8
BLACK
6
CONTINUOUS
10
166.065
20
-116.645
11
165.792
21
-116.758
0
LINE
8
BLACK
6
CONTINUOUS
10
165.792
20
-116.758
11
165.502
21
-116.816
0
LINE
8
BLACK
6
CONTINUOUS
10
165.502
20
-116.816
11
165.206
21
-116.816
0
LINE
8
BLACK
6
CONTINUOUS
10
165.206
20
-116.816
11
164.916
21
-116.758
0
LINE
8
BLACK
6
CONTINUOUS
10
164.916
20
-116.758
11
164.643
21
-116.645
0
LINE
8
BLACK
6
CONTINUOUS
10
164.643
20
-116.645
11
164.398
21
-116.481
0
LINE
8
BLACK
6
CONTINUOUS
10
164.398
20
-116.481
11
164.189
21
-116.272
0
LINE
8
BLACK
6
CONTINUOUS
10
164.189
20
-116.272
11
164.025
21
-116.027
0
LINE
8
BLACK
6
CONTINUOUS
10
164.025
20
-116.027
11
163.912
21
-115.754
0
LINE
8
BLACK
6
CONTINUOUS
10
163.912
20
-115.754
11
163.854
21
-115.464
0
LINE
8
BLACK
6
CONTINUOUS
10
163.854
20
-115.464
11
163.854
21
-115.168
0
LINE
8
BLACK
6
CONTINUOUS
10
163.854
20
-115.168
11
163.912
21
-114.878
0
LINE
8
BLACK
6
CONTINUOUS
10
163.912
20
-114.878
11
164.025
21
-114.605
0
LINE
8
BLACK
6
CONTINUOUS
10
164.025
20
-114.605
11
164.189
21
-114.36
0
LINE
8
BLACK
6
CONTINUOUS
10
164.189
20
-114.36
11
164.398
21
-114.151
0
LINE
8
BLACK
6
CONTINUOUS
10
164.398
20
-114.151
11
164.643
21
-113.987
0
LINE
8
BLACK
6
CONTINUOUS
10
164.643
20
-113.987
11
164.916
21
-113.874
0
LINE
8
BLACK
6
CONTINUOUS
10
164.916
20
-113.874
11
165.206
21
-113.816
0
LINE
8
BLACK
6
CONTINUOUS
10
165.206
20
-113.816
11
165.502
21
-113.816
0
LINE
8
BLACK
6
CONTINUOUS
10
165.502
20
-113.816
11
165.792
21
-113.874
0
LINE
8
BLACK
6
CONTINUOUS
10
103.362
20
-116.424
11
101.362
21
-116.424
0
LINE
8
BLACK
6
CONTINUOUS
10
101.362
20
-116.424
11
101.362
21
-115.224
0
LINE
8
BLACK
6
CONTINUOUS
10
101.362
20
-115.224
11
103.362
21
-115.224
0
LINE
8
BLACK
6
CONTINUOUS
10
103.362
20
-115.224
11
103.362
21
-116.424
0
LINE
8
BLACK
6
CONTINUOUS
10
150.098
20
-116.207
11
148.098
21
-116.207
0
LINE
8
BLACK
6
CONTINUOUS
10
148.098
20
-116.207
11
148.098
21
-114.932
0
LINE
8
BLACK
6
CONTINUOUS
10
148.098
20
-114.932
11
150.098
21
-114.932
0
LINE
8
BLACK
6
CONTINUOUS
10
150.098
20
-114.932
11
150.098
21
-116.207
0
LINE
8
BLACK
6
CONTINUOUS
10
156.956
20
-115.354
11
154.956
21
-115.354
0
LINE
8
BLACK
6
CONTINUOUS
10
154.956
20
-115.354
11
154.956
21
-113.754
0
LINE
8
BLACK
6
CONTINUOUS
10
154.956
20
-113.754
11
156.956
21
-113.754
0
LINE
8
BLACK
6
CONTINUOUS
10
156.956
20
-113.754
11
156.956
21
-115.354
0
LINE
8
BLACK
6
CONTINUOUS
10
149.585
20
-113.242
11
149.706
21
-113.278
0
LINE
8
BLACK
6
CONTINUOUS
10
149.706
20
-113.278
11
149.816
21
-113.337
0
LINE
8
BLACK
6
CONTINUOUS
10
149.816
20
-113.337
11
149.913
21
-113.417
0
LINE
8
BLACK
6
CONTINUOUS
10
149.913
20
-113.417
11
149.993
21
-113.514
0
LINE
8
BLACK
6
CONTINUOUS
10
149.993
20
-113.514
11
150.052
21
-113.625
0
LINE
8
BLACK
6
CONTINUOUS
10
150.052
20
-113.625
11
150.089
21
-113.745
0
LINE
8
BLACK
6
CONTINUOUS
10
150.089
20
-113.745
11
150.101
21
-113.87
0
LINE
8
BLACK
6
CONTINUOUS
10
150.101
20
-113.87
11
150.089
21
-113.995
0
LINE
8
BLACK
6
CONTINUOUS
10
150.089
20
-113.995
11
150.052
21
-114.115
0
LINE
8
BLACK
6
CONTINUOUS
10
150.052
20
-114.115
11
149.993
21
-114.226
0
LINE
8
BLACK
6
CONTINUOUS
10
149.993
20
-114.226
11
149.913
21
-114.323
0
LINE
8
BLACK
6
CONTINUOUS
10
149.913
20
-114.323
11
149.816
21
-114.403
0
LINE
8
BLACK
6
CONTINUOUS
10
149.816
20
-114.403
11
149.706
21
-114.462
0
LINE
8
BLACK
6
CONTINUOUS
10
149.706
20
-114.462
11
149.585
21
-114.498
0
LINE
8
BLACK
6
CONTINUOUS
10
149.585
20
-114.498
11
149.492
21
-114.507
0
LINE
8
BLACK
6
CONTINUOUS
10
149.492
20
-114.507
11
148.704
21
-114.507
0
LINE
8
BLACK
6
CONTINUOUS
10
148.704
20
-114.507
11
148.611
21
-114.498
0
LINE
8
BLACK
6
CONTINUOUS
10
148.611
20
-114.498
11
148.49
21
-114.462
0
LINE
8
BLACK
6
CONTINUOUS
10
148.49
20
-114.462
11
148.38
21
-114.403
0
LINE
8
BLACK
6
CONTINUOUS
10
148.38
20
-114.403
11
148.283
21
-114.323
0
LINE
8
BLACK
6
CONTINUOUS
10
148.283
20
-114.323
11
148.203
21
-114.226
0
LINE
8
BLACK
6
CONTINUOUS
10
148.203
20
-114.226
11
148.144
21
-114.115
0
LINE
8
BLACK
6
CONTINUOUS
10
148.144
20
-114.115
11
148.107
21
-113.995
0
LINE
8
BLACK
6
CONTINUOUS
10
148.107
20
-113.995
11
148.095
21
-113.87
0
LINE
8
BLACK
6
CONTINUOUS
10
148.095
20
-113.87
11
148.107
21
-113.745
0
LINE
8
BLACK
6
CONTINUOUS
10
148.107
20
-113.745
11
148.144
21
-113.625
0
LINE
8
BLACK
6
CONTINUOUS
10
148.144
20
-113.625
11
148.203
21
-113.514
0
LINE
8
BLACK
6
CONTINUOUS
10
148.203
20
-113.514
11
148.283
21
-113.417
0
LINE
8
BLACK
6
CONTINUOUS
10
148.283
20
-113.417
11
148.38
21
-113.337
0
LINE
8
BLACK
6
CONTINUOUS
10
148.38
20
-113.337
11
148.49
21
-113.278
0
LINE
8
BLACK
6
CONTINUOUS
10
148.49
20
-113.278
11
148.611
21
-113.242
0
LINE
8
BLACK
6
CONTINUOUS
10
148.611
20
-113.242
11
148.704
21
-113.233
0
LINE
8
BLACK
6
CONTINUOUS
10
148.704
20
-113.233
11
149.492
21
-113.233
0
LINE
8
BLACK
6
CONTINUOUS
10
149.492
20
-113.233
11
149.585
21
-113.242
0
LINE
8
BLACK
6
CONTINUOUS
10
103.362
20
-113.884
11
101.362
21
-113.884
0
LINE
8
BLACK
6
CONTINUOUS
10
101.362
20
-113.884
11
101.362
21
-112.684
0
LINE
8
BLACK
6
CONTINUOUS
10
101.362
20
-112.684
11
103.362
21
-112.684
0
LINE
8
BLACK
6
CONTINUOUS
10
103.362
20
-112.684
11
103.362
21
-113.884
0
LINE
8
BLACK
6
CONTINUOUS
10
156.956
20
-112.814
11
154.956
21
-112.814
0
LINE
8
BLACK
6
CONTINUOUS
10
154.956
20
-112.814
11
154.956
21
-111.214
0
LINE
8
BLACK
6
CONTINUOUS
10
154.956
20
-111.214
11
156.956
21
-111.214
0
LINE
8
BLACK
6
CONTINUOUS
10
156.956
20
-111.214
11
156.956
21
-112.814
0
LINE
8
BLACK
6
CONTINUOUS
10
149.585
20
-111.542
11
149.706
21
-111.578
0
LINE
8
BLACK
6
CONTINUOUS
10
149.706
20
-111.578
11
149.816
21
-111.637
0
LINE
8
BLACK
6
CONTINUOUS
10
149.816
20
-111.637
11
149.913
21
-111.717
0
LINE
8
BLACK
6
CONTINUOUS
10
149.913
20
-111.717
11
149.993
21
-111.814
0
LINE
8
BLACK
6
CONTINUOUS
10
149.993
20
-111.814
11
150.052
21
-111.925
0
LINE
8
BLACK
6
CONTINUOUS
10
150.052
20
-111.925
11
150.089
21
-112.045
0
LINE
8
BLACK
6
CONTINUOUS
10
150.089
20
-112.045
11
150.101
21
-112.17
0
LINE
8
BLACK
6
CONTINUOUS
10
150.101
20
-112.17
11
150.089
21
-112.295
0
LINE
8
BLACK
6
CONTINUOUS
10
150.089
20
-112.295
11
150.052
21
-112.415
0
LINE
8
BLACK
6
CONTINUOUS
10
150.052
20
-112.415
11
149.993
21
-112.526
0
LINE
8
BLACK
6
CONTINUOUS
10
149.993
20
-112.526
11
149.913
21
-112.623
0
LINE
8
BLACK
6
CONTINUOUS
10
149.913
20
-112.623
11
149.816
21
-112.703
0
LINE
8
BLACK
6
CONTINUOUS
10
149.816
20
-112.703
11
149.706
21
-112.762
0
LINE
8
BLACK
6
CONTINUOUS
10
149.706
20
-112.762
11
149.585
21
-112.798
0
LINE
8
BLACK
6
CONTINUOUS
10
149.585
20
-112.798
11
149.492
21
-112.807
0
LINE
8
BLACK
6
CONTINUOUS
10
149.492
20
-112.807
11
148.704
21
-112.807
0
LINE
8
BLACK
6
CONTINUOUS
10
148.704
20
-112.807
11
148.611
21
-112.798
0
LINE
8
BLACK
6
CONTINUOUS
10
148.611
20
-112.798
11
148.49
21
-112.762
0
LINE
8
BLACK
6
CONTINUOUS
10
148.49
20
-112.762
11
148.38
21
-112.703
0
LINE
8
BLACK
6
CONTINUOUS
10
148.38
20
-112.703
11
148.283
21
-112.623
0
LINE
8
BLACK
6
CONTINUOUS
10
148.283
20
-112.623
11
148.203
21
-112.526
0
LINE
8
BLACK
6
CONTINUOUS
10
148.203
20
-112.526
11
148.144
21
-112.415
0
LINE
8
BLACK
6
CONTINUOUS
10
148.144
20
-112.415
11
148.107
21
-112.295
0
LINE
8
BLACK
6
CONTINUOUS
10
148.107
20
-112.295
11
148.095
21
-112.17
0
LINE
8
BLACK
6
CONTINUOUS
10
148.095
20
-112.17
11
148.107
21
-112.045
0
LINE
8
BLACK
6
CONTINUOUS
10
148.107
20
-112.045
11
148.144
21
-111.925
0
LINE
8
BLACK
6
CONTINUOUS
10
148.144
20
-111.925
11
148.203
21
-111.814
0
LINE
8
BLACK
6
CONTINUOUS
10
148.203
20
-111.814
11
148.283
21
-111.717
0
LINE
8
BLACK
6
CONTINUOUS
10
148.283
20
-111.717
11
148.38
21
-111.637
0
LINE
8
BLACK
6
CONTINUOUS
10
148.38
20
-111.637
11
148.49
21
-111.578
0
LINE
8
BLACK
6
CONTINUOUS
10
148.49
20
-111.578
11
148.611
21
-111.542
0
LINE
8
BLACK
6
CONTINUOUS
10
148.611
20
-111.542
11
148.704
21
-111.532
0
LINE
8
BLACK
6
CONTINUOUS
10
148.704
20
-111.532
11
149.492
21
-111.532
0
LINE
8
BLACK
6
CONTINUOUS
10
149.492
20
-111.532
11
149.585
21
-111.542
0
LINE
8
BLACK
6
CONTINUOUS
10
94.21
20
-112.498
11
91.21
21
-112.498
0
LINE
8
BLACK
6
CONTINUOUS
10
91.21
20
-112.498
11
91.21
21
-109.498
0
LINE
8
BLACK
6
CONTINUOUS
10
91.21
20
-109.498
11
94.21
21
-109.498
0
LINE
8
BLACK
6
CONTINUOUS
10
94.21
20
-109.498
11
94.21
21
-112.498
0
LINE
8
BLACK
6
CONTINUOUS
10
165.792
20
-108.794
11
166.065
21
-108.907
0
LINE
8
BLACK
6
CONTINUOUS
10
166.065
20
-108.907
11
166.31
21
-109.071
0
LINE
8
BLACK
6
CONTINUOUS
10
166.31
20
-109.071
11
166.519
21
-109.28
0
LINE
8
BLACK
6
CONTINUOUS
10
166.519
20
-109.28
11
166.683
21
-109.525
0
LINE
8
BLACK
6
CONTINUOUS
10
166.683
20
-109.525
11
166.796
21
-109.798
0
LINE
8
BLACK
6
CONTINUOUS
10
166.796
20
-109.798
11
166.854
21
-110.088
0
LINE
8
BLACK
6
CONTINUOUS
10
166.854
20
-110.088
11
166.854
21
-110.384
0
LINE
8
BLACK
6
CONTINUOUS
10
166.854
20
-110.384
11
166.796
21
-110.674
0
LINE
8
BLACK
6
CONTINUOUS
10
166.796
20
-110.674
11
166.683
21
-110.947
0
LINE
8
BLACK
6
CONTINUOUS
10
166.683
20
-110.947
11
166.519
21
-111.192
0
LINE
8
BLACK
6
CONTINUOUS
10
166.519
20
-111.192
11
166.31
21
-111.401
0
LINE
8
BLACK
6
CONTINUOUS
10
166.31
20
-111.401
11
166.065
21
-111.565
0
LINE
8
BLACK
6
CONTINUOUS
10
166.065
20
-111.565
11
165.792
21
-111.678
0
LINE
8
BLACK
6
CONTINUOUS
10
165.792
20
-111.678
11
165.502
21
-111.736
0
LINE
8
BLACK
6
CONTINUOUS
10
165.502
20
-111.736
11
165.206
21
-111.736
0
LINE
8
BLACK
6
CONTINUOUS
10
165.206
20
-111.736
11
164.916
21
-111.678
0
LINE
8
BLACK
6
CONTINUOUS
10
164.916
20
-111.678
11
164.643
21
-111.565
0
LINE
8
BLACK
6
CONTINUOUS
10
164.643
20
-111.565
11
164.398
21
-111.401
0
LINE
8
BLACK
6
CONTINUOUS
10
164.398
20
-111.401
11
164.189
21
-111.192
0
LINE
8
BLACK
6
CONTINUOUS
10
164.189
20
-111.192
11
164.025
21
-110.947
0
LINE
8
BLACK
6
CONTINUOUS
10
164.025
20
-110.947
11
163.912
21
-110.674
0
LINE
8
BLACK
6
CONTINUOUS
10
163.912
20
-110.674
11
163.854
21
-110.384
0
LINE
8
BLACK
6
CONTINUOUS
10
163.854
20
-110.384
11
163.854
21
-110.088
0
LINE
8
BLACK
6
CONTINUOUS
10
163.854
20
-110.088
11
163.912
21
-109.798
0
LINE
8
BLACK
6
CONTINUOUS
10
163.912
20
-109.798
11
164.025
21
-109.525
0
LINE
8
BLACK
6
CONTINUOUS
10
164.025
20
-109.525
11
164.189
21
-109.28
0
LINE
8
BLACK
6
CONTINUOUS
10
164.189
20
-109.28
11
164.398
21
-109.071
0
LINE
8
BLACK
6
CONTINUOUS
10
164.398
20
-109.071
11
164.643
21
-108.907
0
LINE
8
BLACK
6
CONTINUOUS
10
164.643
20
-108.907
11
164.916
21
-108.794
0
LINE
8
BLACK
6
CONTINUOUS
10
164.916
20
-108.794
11
165.206
21
-108.736
0
LINE
8
BLACK
6
CONTINUOUS
10
165.206
20
-108.736
11
165.502
21
-108.736
0
LINE
8
BLACK
6
CONTINUOUS
10
165.502
20
-108.736
11
165.792
21
-108.794
0
LINE
8
BLACK
6
CONTINUOUS
10
142.475
20
-108.799
11
142.701
21
-108.868
0
LINE
8
BLACK
6
CONTINUOUS
10
142.701
20
-108.868
11
142.91
21
-108.979
0
LINE
8
BLACK
6
CONTINUOUS
10
142.91
20
-108.979
11
143.093
21
-109.129
0
LINE
8
BLACK
6
CONTINUOUS
10
143.093
20
-109.129
11
143.243
21
-109.312
0
LINE
8
BLACK
6
CONTINUOUS
10
143.243
20
-109.312
11
143.354
21
-109.521
0
LINE
8
BLACK
6
CONTINUOUS
10
143.354
20
-109.521
11
143.423
21
-109.747
0
LINE
8
BLACK
6
CONTINUOUS
10
143.423
20
-109.747
11
143.446
21
-109.982
0
LINE
8
BLACK
6
CONTINUOUS
10
143.446
20
-109.982
11
143.423
21
-110.217
0
LINE
8
BLACK
6
CONTINUOUS
10
143.423
20
-110.217
11
143.354
21
-110.443
0
LINE
8
BLACK
6
CONTINUOUS
10
143.354
20
-110.443
11
143.243
21
-110.652
0
LINE
8
BLACK
6
CONTINUOUS
10
143.243
20
-110.652
11
143.093
21
-110.835
0
LINE
8
BLACK
6
CONTINUOUS
10
143.093
20
-110.835
11
142.91
21
-110.985
0
LINE
8
BLACK
6
CONTINUOUS
10
142.91
20
-110.985
11
142.701
21
-111.096
0
LINE
8
BLACK
6
CONTINUOUS
10
142.701
20
-111.096
11
142.475
21
-111.165
0
LINE
8
BLACK
6
CONTINUOUS
10
142.475
20
-111.165
11
142.299
21
-111.182
0
LINE
8
BLACK
6
CONTINUOUS
10
142.299
20
-111.182
11
142.181
21
-111.182
0
LINE
8
BLACK
6
CONTINUOUS
10
142.181
20
-111.182
11
142.005
21
-111.165
0
LINE
8
BLACK
6
CONTINUOUS
10
142.005
20
-111.165
11
141.779
21
-111.096
0
LINE
8
BLACK
6
CONTINUOUS
10
141.779
20
-111.096
11
141.57
21
-110.985
0
LINE
8
BLACK
6
CONTINUOUS
10
141.57
20
-110.985
11
141.387
21
-110.835
0
LINE
8
BLACK
6
CONTINUOUS
10
141.387
20
-110.835
11
141.237
21
-110.652
0
LINE
8
BLACK
6
CONTINUOUS
10
141.237
20
-110.652
11
141.126
21
-110.443
0
LINE
8
BLACK
6
CONTINUOUS
10
141.126
20
-110.443
11
141.057
21
-110.217
0
LINE
8
BLACK
6
CONTINUOUS
10
141.057
20
-110.217
11
141.034
21
-109.982
0
LINE
8
BLACK
6
CONTINUOUS
10
141.034
20
-109.982
11
141.057
21
-109.747
0
LINE
8
BLACK
6
CONTINUOUS
10
141.057
20
-109.747
11
141.126
21
-109.521
0
LINE
8
BLACK
6
CONTINUOUS
10
141.126
20
-109.521
11
141.237
21
-109.312
0
LINE
8
BLACK
6
CONTINUOUS
10
141.237
20
-109.312
11
141.387
21
-109.129
0
LINE
8
BLACK
6
CONTINUOUS
10
141.387
20
-109.129
11
141.57
21
-108.979
0
LINE
8
BLACK
6
CONTINUOUS
10
141.57
20
-108.979
11
141.779
21
-108.868
0
LINE
8
BLACK
6
CONTINUOUS
10
141.779
20
-108.868
11
142.005
21
-108.799
0
LINE
8
BLACK
6
CONTINUOUS
10
142.005
20
-108.799
11
142.181
21
-108.782
0
LINE
8
BLACK
6
CONTINUOUS
10
142.181
20
-108.782
11
142.299
21
-108.782
0
LINE
8
BLACK
6
CONTINUOUS
10
142.299
20
-108.782
11
142.475
21
-108.799
0
LINE
8
BLACK
6
CONTINUOUS
10
149.585
20
-109.842
11
149.706
21
-109.878
0
LINE
8
BLACK
6
CONTINUOUS
10
149.706
20
-109.878
11
149.816
21
-109.937
0
LINE
8
BLACK
6
CONTINUOUS
10
149.816
20
-109.937
11
149.913
21
-110.017
0
LINE
8
BLACK
6
CONTINUOUS
10
149.913
20
-110.017
11
149.993
21
-110.114
0
LINE
8
BLACK
6
CONTINUOUS
10
149.993
20
-110.114
11
150.052
21
-110.225
0
LINE
8
BLACK
6
CONTINUOUS
10
150.052
20
-110.225
11
150.089
21
-110.345
0
LINE
8
BLACK
6
CONTINUOUS
10
150.089
20
-110.345
11
150.101
21
-110.47
0
LINE
8
BLACK
6
CONTINUOUS
10
150.101
20
-110.47
11
150.089
21
-110.595
0
LINE
8
BLACK
6
CONTINUOUS
10
150.089
20
-110.595
11
150.052
21
-110.715
0
LINE
8
BLACK
6
CONTINUOUS
10
150.052
20
-110.715
11
149.993
21
-110.826
0
LINE
8
BLACK
6
CONTINUOUS
10
149.993
20
-110.826
11
149.913
21
-110.923
0
LINE
8
BLACK
6
CONTINUOUS
10
149.913
20
-110.923
11
149.816
21
-111.003
0
LINE
8
BLACK
6
CONTINUOUS
10
149.816
20
-111.003
11
149.706
21
-111.062
0
LINE
8
BLACK
6
CONTINUOUS
10
149.706
20
-111.062
11
149.585
21
-111.098
0
LINE
8
BLACK
6
CONTINUOUS
10
149.585
20
-111.098
11
149.492
21
-111.108
0
LINE
8
BLACK
6
CONTINUOUS
10
149.492
20
-111.108
11
148.704
21
-111.108
0
LINE
8
BLACK
6
CONTINUOUS
10
148.704
20
-111.108
11
148.611
21
-111.098
0
LINE
8
BLACK
6
CONTINUOUS
10
148.611
20
-111.098
11
148.49
21
-111.062
0
LINE
8
BLACK
6
CONTINUOUS
10
148.49
20
-111.062
11
148.38
21
-111.003
0
LINE
8
BLACK
6
CONTINUOUS
10
148.38
20
-111.003
11
148.283
21
-110.923
0
LINE
8
BLACK
6
CONTINUOUS
10
148.283
20
-110.923
11
148.203
21
-110.826
0
LINE
8
BLACK
6
CONTINUOUS
10
148.203
20
-110.826
11
148.144
21
-110.715
0
LINE
8
BLACK
6
CONTINUOUS
10
148.144
20
-110.715
11
148.107
21
-110.595
0
LINE
8
BLACK
6
CONTINUOUS
10
148.107
20
-110.595
11
148.095
21
-110.47
0
LINE
8
BLACK
6
CONTINUOUS
10
148.095
20
-110.47
11
148.107
21
-110.345
0
LINE
8
BLACK
6
CONTINUOUS
10
148.107
20
-110.345
11
148.144
21
-110.225
0
LINE
8
BLACK
6
CONTINUOUS
10
148.144
20
-110.225
11
148.203
21
-110.114
0
LINE
8
BLACK
6
CONTINUOUS
10
148.203
20
-110.114
11
148.283
21
-110.017
0
LINE
8
BLACK
6
CONTINUOUS
10
148.283
20
-110.017
11
148.38
21
-109.937
0
LINE
8
BLACK
6
CONTINUOUS
10
148.38
20
-109.937
11
148.49
21
-109.878
0
LINE
8
BLACK
6
CONTINUOUS
10
148.49
20
-109.878
11
148.611
21
-109.842
0
LINE
8
BLACK
6
CONTINUOUS
10
148.611
20
-109.842
11
148.704
21
-109.832
0
LINE
8
BLACK
6
CONTINUOUS
10
148.704
20
-109.832
11
149.492
21
-109.832
0
LINE
8
BLACK
6
CONTINUOUS
10
149.492
20
-109.832
11
149.585
21
-109.842
0
LINE
8
BLACK
6
CONTINUOUS
10
156.956
20
-110.274
11
154.956
21
-110.274
0
LINE
8
BLACK
6
CONTINUOUS
10
154.956
20
-110.274
11
154.956
21
-108.674
0
LINE
8
BLACK
6
CONTINUOUS
10
154.956
20
-108.674
11
156.956
21
-108.674
0
LINE
8
BLACK
6
CONTINUOUS
10
156.956
20
-108.674
11
156.956
21
-110.274
0
LINE
8
BLACK
6
CONTINUOUS
10
107.52
20
-109.966
11
105.92
21
-109.966
0
LINE
8
BLACK
6
CONTINUOUS
10
105.92
20
-109.966
11
105.92
21
-107.966
0
LINE
8
BLACK
6
CONTINUOUS
10
105.92
20
-107.966
11
107.52
21
-107.966
0
LINE
8
BLACK
6
CONTINUOUS
10
107.52
20
-107.966
11
107.52
21
-109.966
0
LINE
8
BLACK
6
CONTINUOUS
10
112.346
20
-109.966
11
110.746
21
-109.966
0
LINE
8
BLACK
6
CONTINUOUS
10
110.746
20
-109.966
11
110.746
21
-107.966
0
LINE
8
BLACK
6
CONTINUOUS
10
110.746
20
-107.966
11
112.346
21
-107.966
0
LINE
8
BLACK
6
CONTINUOUS
10
112.346
20
-107.966
11
112.346
21
-109.966
0
LINE
8
BLACK
6
CONTINUOUS
10
110.02
20
-109.966
11
108.42
21
-109.966
0
LINE
8
BLACK
6
CONTINUOUS
10
108.42
20
-109.966
11
108.42
21
-107.966
0
LINE
8
BLACK
6
CONTINUOUS
10
108.42
20
-107.966
11
110.02
21
-107.966
0
LINE
8
BLACK
6
CONTINUOUS
10
110.02
20
-107.966
11
110.02
21
-109.966
0
LINE
8
BLACK
6
CONTINUOUS
10
114.846
20
-109.966
11
113.246
21
-109.966
0
LINE
8
BLACK
6
CONTINUOUS
10
113.246
20
-109.966
11
113.246
21
-107.966
0
LINE
8
BLACK
6
CONTINUOUS
10
113.246
20
-107.966
11
114.846
21
-107.966
0
LINE
8
BLACK
6
CONTINUOUS
10
114.846
20
-107.966
11
114.846
21
-109.966
0
LINE
8
BLACK
6
CONTINUOUS
10
119.926
20
-109.966
11
118.326
21
-109.966
0
LINE
8
BLACK
6
CONTINUOUS
10
118.326
20
-109.966
11
118.326
21
-107.966
0
LINE
8
BLACK
6
CONTINUOUS
10
118.326
20
-107.966
11
119.926
21
-107.966
0
LINE
8
BLACK
6
CONTINUOUS
10
119.926
20
-107.966
11
119.926
21
-109.966
0
LINE
8
BLACK
6
CONTINUOUS
10
117.426
20
-109.966
11
115.826
21
-109.966
0
LINE
8
BLACK
6
CONTINUOUS
10
115.826
20
-109.966
11
115.826
21
-107.966
0
LINE
8
BLACK
6
CONTINUOUS
10
115.826
20
-107.966
11
117.426
21
-107.966
0
LINE
8
BLACK
6
CONTINUOUS
10
117.426
20
-107.966
11
117.426
21
-109.966
0
LINE
8
BLACK
6
CONTINUOUS
10
149.585
20
-108.142
11
149.706
21
-108.178
0
LINE
8
BLACK
6
CONTINUOUS
10
149.706
20
-108.178
11
149.816
21
-108.237
0
LINE
8
BLACK
6
CONTINUOUS
10
149.816
20
-108.237
11
149.913
21
-108.317
0
LINE
8
BLACK
6
CONTINUOUS
10
149.913
20
-108.317
11
149.993
21
-108.414
0
LINE
8
BLACK
6
CONTINUOUS
10
149.993
20
-108.414
11
150.052
21
-108.525
0
LINE
8
BLACK
6
CONTINUOUS
10
150.052
20
-108.525
11
150.089
21
-108.645
0
LINE
8
BLACK
6
CONTINUOUS
10
150.089
20
-108.645
11
150.101
21
-108.77
0
LINE
8
BLACK
6
CONTINUOUS
10
150.101
20
-108.77
11
150.089
21
-108.895
0
LINE
8
BLACK
6
CONTINUOUS
10
150.089
20
-108.895
11
150.052
21
-109.015
0
LINE
8
BLACK
6
CONTINUOUS
10
150.052
20
-109.015
11
149.993
21
-109.126
0
LINE
8
BLACK
6
CONTINUOUS
10
149.993
20
-109.126
11
149.913
21
-109.223
0
LINE
8
BLACK
6
CONTINUOUS
10
149.913
20
-109.223
11
149.816
21
-109.303
0
LINE
8
BLACK
6
CONTINUOUS
10
149.816
20
-109.303
11
149.706
21
-109.362
0
LINE
8
BLACK
6
CONTINUOUS
10
149.706
20
-109.362
11
149.585
21
-109.398
0
LINE
8
BLACK
6
CONTINUOUS
10
149.585
20
-109.398
11
149.492
21
-109.407
0
LINE
8
BLACK
6
CONTINUOUS
10
149.492
20
-109.407
11
148.704
21
-109.407
0
LINE
8
BLACK
6
CONTINUOUS
10
148.704
20
-109.407
11
148.611
21
-109.398
0
LINE
8
BLACK
6
CONTINUOUS
10
148.611
20
-109.398
11
148.49
21
-109.362
0
LINE
8
BLACK
6
CONTINUOUS
10
148.49
20
-109.362
11
148.38
21
-109.303
0
LINE
8
BLACK
6
CONTINUOUS
10
148.38
20
-109.303
11
148.283
21
-109.223
0
LINE
8
BLACK
6
CONTINUOUS
10
148.283
20
-109.223
11
148.203
21
-109.126
0
LINE
8
BLACK
6
CONTINUOUS
10
148.203
20
-109.126
11
148.144
21
-109.015
0
LINE
8
BLACK
6
CONTINUOUS
10
148.144
20
-109.015
11
148.107
21
-108.895
0
LINE
8
BLACK
6
CONTINUOUS
10
148.107
20
-108.895
11
148.095
21
-108.77
0
LINE
8
BLACK
6
CONTINUOUS
10
148.095
20
-108.77
11
148.107
21
-108.645
0
LINE
8
BLACK
6
CONTINUOUS
10
148.107
20
-108.645
11
148.144
21
-108.525
0
LINE
8
BLACK
6
CONTINUOUS
10
148.144
20
-108.525
11
148.203
21
-108.414
0
LINE
8
BLACK
6
CONTINUOUS
10
148.203
20
-108.414
11
148.283
21
-108.317
0
LINE
8
BLACK
6
CONTINUOUS
10
148.283
20
-108.317
11
148.38
21
-108.237
0
LINE
8
BLACK
6
CONTINUOUS
10
148.38
20
-108.237
11
148.49
21
-108.178
0
LINE
8
BLACK
6
CONTINUOUS
10
148.49
20
-108.178
11
148.611
21
-108.142
0
LINE
8
BLACK
6
CONTINUOUS
10
148.611
20
-108.142
11
148.704
21
-108.132
0
LINE
8
BLACK
6
CONTINUOUS
10
148.704
20
-108.132
11
149.492
21
-108.132
0
LINE
8
BLACK
6
CONTINUOUS
10
149.492
20
-108.132
11
149.585
21
-108.142
0
LINE
8
BLACK
6
CONTINUOUS
10
137.141
20
-106.005
11
137.367
21
-106.074
0
LINE
8
BLACK
6
CONTINUOUS
10
137.367
20
-106.074
11
137.576
21
-106.185
0
LINE
8
BLACK
6
CONTINUOUS
10
137.576
20
-106.185
11
137.759
21
-106.335
0
LINE
8
BLACK
6
CONTINUOUS
10
137.759
20
-106.335
11
137.909
21
-106.518
0
LINE
8
BLACK
6
CONTINUOUS
10
137.909
20
-106.518
11
138.02
21
-106.727
0
LINE
8
BLACK
6
CONTINUOUS
10
138.02
20
-106.727
11
138.089
21
-106.953
0
LINE
8
BLACK
6
CONTINUOUS
10
138.089
20
-106.953
11
138.112
21
-107.188
0
LINE
8
BLACK
6
CONTINUOUS
10
138.112
20
-107.188
11
138.089
21
-107.423
0
LINE
8
BLACK
6
CONTINUOUS
10
138.089
20
-107.423
11
138.02
21
-107.649
0
LINE
8
BLACK
6
CONTINUOUS
10
138.02
20
-107.649
11
137.909
21
-107.858
0
LINE
8
BLACK
6
CONTINUOUS
10
137.909
20
-107.858
11
137.759
21
-108.041
0
LINE
8
BLACK
6
CONTINUOUS
10
137.759
20
-108.041
11
137.576
21
-108.191
0
LINE
8
BLACK
6
CONTINUOUS
10
137.576
20
-108.191
11
137.367
21
-108.302
0
LINE
8
BLACK
6
CONTINUOUS
10
137.367
20
-108.302
11
137.141
21
-108.371
0
LINE
8
BLACK
6
CONTINUOUS
10
137.141
20
-108.371
11
136.965
21
-108.388
0
LINE
8
BLACK
6
CONTINUOUS
10
136.965
20
-108.388
11
136.847
21
-108.388
0
LINE
8
BLACK
6
CONTINUOUS
10
136.847
20
-108.388
11
136.671
21
-108.371
0
LINE
8
BLACK
6
CONTINUOUS
10
136.671
20
-108.371
11
136.445
21
-108.302
0
LINE
8
BLACK
6
CONTINUOUS
10
136.445
20
-108.302
11
136.236
21
-108.191
0
LINE
8
BLACK
6
CONTINUOUS
10
136.236
20
-108.191
11
136.053
21
-108.041
0
LINE
8
BLACK
6
CONTINUOUS
10
136.053
20
-108.041
11
135.903
21
-107.858
0
LINE
8
BLACK
6
CONTINUOUS
10
135.903
20
-107.858
11
135.792
21
-107.649
0
LINE
8
BLACK
6
CONTINUOUS
10
135.792
20
-107.649
11
135.723
21
-107.423
0
LINE
8
BLACK
6
CONTINUOUS
10
135.723
20
-107.423
11
135.7
21
-107.188
0
LINE
8
BLACK
6
CONTINUOUS
10
135.7
20
-107.188
11
135.723
21
-106.953
0
LINE
8
BLACK
6
CONTINUOUS
10
135.723
20
-106.953
11
135.792
21
-106.727
0
LINE
8
BLACK
6
CONTINUOUS
10
135.792
20
-106.727
11
135.903
21
-106.518
0
LINE
8
BLACK
6
CONTINUOUS
10
135.903
20
-106.518
11
136.053
21
-106.335
0
LINE
8
BLACK
6
CONTINUOUS
10
136.053
20
-106.335
11
136.236
21
-106.185
0
LINE
8
BLACK
6
CONTINUOUS
10
136.236
20
-106.185
11
136.445
21
-106.074
0
LINE
8
BLACK
6
CONTINUOUS
10
136.445
20
-106.074
11
136.671
21
-106.005
0
LINE
8
BLACK
6
CONTINUOUS
10
136.671
20
-106.005
11
136.847
21
-105.988
0
LINE
8
BLACK
6
CONTINUOUS
10
136.847
20
-105.988
11
136.965
21
-105.988
0
LINE
8
BLACK
6
CONTINUOUS
10
136.965
20
-105.988
11
137.141
21
-106.005
0
LINE
8
BLACK
6
CONTINUOUS
10
125.26
20
-107.172
11
123.66
21
-107.172
0
LINE
8
BLACK
6
CONTINUOUS
10
123.66
20
-107.172
11
123.66
21
-105.172
0
LINE
8
BLACK
6
CONTINUOUS
10
123.66
20
-105.172
11
125.26
21
-105.172
0
LINE
8
BLACK
6
CONTINUOUS
10
125.26
20
-105.172
11
125.26
21
-107.172
0
LINE
8
BLACK
6
CONTINUOUS
10
130.14
20
-107.172
11
128.54
21
-107.172
0
LINE
8
BLACK
6
CONTINUOUS
10
128.54
20
-107.172
11
128.54
21
-105.172
0
LINE
8
BLACK
6
CONTINUOUS
10
128.54
20
-105.172
11
130.14
21
-105.172
0
LINE
8
BLACK
6
CONTINUOUS
10
130.14
20
-105.172
11
130.14
21
-107.172
0
LINE
8
BLACK
6
CONTINUOUS
10
142.278
20
-106.464
11
140.678
21
-106.464
0
LINE
8
BLACK
6
CONTINUOUS
10
140.678
20
-106.464
11
140.678
21
-104.864
0
LINE
8
BLACK
6
CONTINUOUS
10
140.678
20
-104.864
11
142.278
21
-104.864
0
LINE
8
BLACK
6
CONTINUOUS
10
142.278
20
-104.864
11
142.278
21
-106.464
0
LINE
8
BLACK
6
CONTINUOUS
10
143.711
20
-104.895
11
143.857
21
-104.955
0
LINE
8
BLACK
6
CONTINUOUS
10
143.857
20
-104.955
11
143.988
21
-105.043
0
LINE
8
BLACK
6
CONTINUOUS
10
143.988
20
-105.043
11
144.099
21
-105.154
0
LINE
8
BLACK
6
CONTINUOUS
10
144.099
20
-105.154
11
144.187
21
-105.285
0
LINE
8
BLACK
6
CONTINUOUS
10
144.187
20
-105.285
11
144.247
21
-105.431
0
LINE
8
BLACK
6
CONTINUOUS
10
144.247
20
-105.431
11
144.278
21
-105.585
0
LINE
8
BLACK
6
CONTINUOUS
10
144.278
20
-105.585
11
144.278
21
-105.743
0
LINE
8
BLACK
6
CONTINUOUS
10
144.278
20
-105.743
11
144.247
21
-105.897
0
LINE
8
BLACK
6
CONTINUOUS
10
144.247
20
-105.897
11
144.187
21
-106.043
0
LINE
8
BLACK
6
CONTINUOUS
10
144.187
20
-106.043
11
144.099
21
-106.174
0
LINE
8
BLACK
6
CONTINUOUS
10
144.099
20
-106.174
11
143.988
21
-106.285
0
LINE
8
BLACK
6
CONTINUOUS
10
143.988
20
-106.285
11
143.857
21
-106.373
0
LINE
8
BLACK
6
CONTINUOUS
10
143.857
20
-106.373
11
143.711
21
-106.433
0
LINE
8
BLACK
6
CONTINUOUS
10
143.711
20
-106.433
11
143.557
21
-106.464
0
LINE
8
BLACK
6
CONTINUOUS
10
143.557
20
-106.464
11
143.399
21
-106.464
0
LINE
8
BLACK
6
CONTINUOUS
10
143.399
20
-106.464
11
143.245
21
-106.433
0
LINE
8
BLACK
6
CONTINUOUS
10
143.245
20
-106.433
11
143.099
21
-106.373
0
LINE
8
BLACK
6
CONTINUOUS
10
143.099
20
-106.373
11
142.968
21
-106.285
0
LINE
8
BLACK
6
CONTINUOUS
10
142.968
20
-106.285
11
142.857
21
-106.174
0
LINE
8
BLACK
6
CONTINUOUS
10
142.857
20
-106.174
11
142.769
21
-106.043
0
LINE
8
BLACK
6
CONTINUOUS
10
142.769
20
-106.043
11
142.709
21
-105.897
0
LINE
8
BLACK
6
CONTINUOUS
10
142.709
20
-105.897
11
142.678
21
-105.743
0
LINE
8
BLACK
6
CONTINUOUS
10
142.678
20
-105.743
11
142.678
21
-105.585
0
LINE
8
BLACK
6
CONTINUOUS
10
142.678
20
-105.585
11
142.709
21
-105.431
0
LINE
8
BLACK
6
CONTINUOUS
10
142.709
20
-105.431
11
142.769
21
-105.285
0
LINE
8
BLACK
6
CONTINUOUS
10
142.769
20
-105.285
11
142.857
21
-105.154
0
LINE
8
BLACK
6
CONTINUOUS
10
142.857
20
-105.154
11
142.968
21
-105.043
0
LINE
8
BLACK
6
CONTINUOUS
10
142.968
20
-105.043
11
143.099
21
-104.955
0
LINE
8
BLACK
6
CONTINUOUS
10
143.099
20
-104.955
11
143.245
21
-104.895
0
LINE
8
BLACK
6
CONTINUOUS
10
143.245
20
-104.895
11
143.399
21
-104.864
0
LINE
8
BLACK
6
CONTINUOUS
10
143.399
20
-104.864
11
143.557
21
-104.864
0
LINE
8
BLACK
6
CONTINUOUS
10
143.557
20
-104.864
11
143.711
21
-104.895
0
LINE
8
BLACK
6
CONTINUOUS
10
114.234
20
-103.868
11
114.416
21
-103.944
0
LINE
8
BLACK
6
CONTINUOUS
10
114.416
20
-103.944
11
114.579
21
-104.053
0
LINE
8
BLACK
6
CONTINUOUS
10
114.579
20
-104.053
11
114.719
21
-104.193
0
LINE
8
BLACK
6
CONTINUOUS
10
114.719
20
-104.193
11
114.828
21
-104.356
0
LINE
8
BLACK
6
CONTINUOUS
10
114.828
20
-104.356
11
114.904
21
-104.538
0
LINE
8
BLACK
6
CONTINUOUS
10
114.904
20
-104.538
11
114.942
21
-104.732
0
LINE
8
BLACK
6
CONTINUOUS
10
114.942
20
-104.732
11
114.942
21
-104.928
0
LINE
8
BLACK
6
CONTINUOUS
10
114.942
20
-104.928
11
114.904
21
-105.122
0
LINE
8
BLACK
6
CONTINUOUS
10
114.904
20
-105.122
11
114.828
21
-105.304
0
LINE
8
BLACK
6
CONTINUOUS
10
114.828
20
-105.304
11
114.719
21
-105.467
0
LINE
8
BLACK
6
CONTINUOUS
10
114.719
20
-105.467
11
114.579
21
-105.607
0
LINE
8
BLACK
6
CONTINUOUS
10
114.579
20
-105.607
11
114.416
21
-105.716
0
LINE
8
BLACK
6
CONTINUOUS
10
114.416
20
-105.716
11
114.234
21
-105.792
0
LINE
8
BLACK
6
CONTINUOUS
10
114.234
20
-105.792
11
114.04
21
-105.83
0
LINE
8
BLACK
6
CONTINUOUS
10
114.04
20
-105.83
11
113.844
21
-105.83
0
LINE
8
BLACK
6
CONTINUOUS
10
113.844
20
-105.83
11
113.65
21
-105.792
0
LINE
8
BLACK
6
CONTINUOUS
10
113.65
20
-105.792
11
113.468
21
-105.716
0
LINE
8
BLACK
6
CONTINUOUS
10
113.468
20
-105.716
11
113.305
21
-105.607
0
LINE
8
BLACK
6
CONTINUOUS
10
113.305
20
-105.607
11
113.165
21
-105.467
0
LINE
8
BLACK
6
CONTINUOUS
10
113.165
20
-105.467
11
113.056
21
-105.304
0
LINE
8
BLACK
6
CONTINUOUS
10
113.056
20
-105.304
11
112.98
21
-105.122
0
LINE
8
BLACK
6
CONTINUOUS
10
112.98
20
-105.122
11
112.942
21
-104.928
0
LINE
8
BLACK
6
CONTINUOUS
10
112.942
20
-104.928
11
112.942
21
-104.732
0
LINE
8
BLACK
6
CONTINUOUS
10
112.942
20
-104.732
11
112.98
21
-104.538
0
LINE
8
BLACK
6
CONTINUOUS
10
112.98
20
-104.538
11
113.056
21
-104.356
0
LINE
8
BLACK
6
CONTINUOUS
10
113.056
20
-104.356
11
113.165
21
-104.193
0
LINE
8
BLACK
6
CONTINUOUS
10
113.165
20
-104.193
11
113.305
21
-104.053
0
LINE
8
BLACK
6
CONTINUOUS
10
113.305
20
-104.053
11
113.468
21
-103.944
0
LINE
8
BLACK
6
CONTINUOUS
10
113.468
20
-103.944
11
113.65
21
-103.868
0
LINE
8
BLACK
6
CONTINUOUS
10
113.65
20
-103.868
11
113.844
21
-103.83
0
LINE
8
BLACK
6
CONTINUOUS
10
113.844
20
-103.83
11
114.04
21
-103.83
0
LINE
8
BLACK
6
CONTINUOUS
10
114.04
20
-103.83
11
114.234
21
-103.868
0
LINE
8
BLACK
6
CONTINUOUS
10
107.734
20
-103.868
11
107.916
21
-103.944
0
LINE
8
BLACK
6
CONTINUOUS
10
107.916
20
-103.944
11
108.079
21
-104.053
0
LINE
8
BLACK
6
CONTINUOUS
10
108.079
20
-104.053
11
108.219
21
-104.193
0
LINE
8
BLACK
6
CONTINUOUS
10
108.219
20
-104.193
11
108.328
21
-104.356
0
LINE
8
BLACK
6
CONTINUOUS
10
108.328
20
-104.356
11
108.404
21
-104.538
0
LINE
8
BLACK
6
CONTINUOUS
10
108.404
20
-104.538
11
108.442
21
-104.732
0
LINE
8
BLACK
6
CONTINUOUS
10
108.442
20
-104.732
11
108.442
21
-104.928
0
LINE
8
BLACK
6
CONTINUOUS
10
108.442
20
-104.928
11
108.404
21
-105.122
0
LINE
8
BLACK
6
CONTINUOUS
10
108.404
20
-105.122
11
108.328
21
-105.304
0
LINE
8
BLACK
6
CONTINUOUS
10
108.328
20
-105.304
11
108.219
21
-105.467
0
LINE
8
BLACK
6
CONTINUOUS
10
108.219
20
-105.467
11
108.079
21
-105.607
0
LINE
8
BLACK
6
CONTINUOUS
10
108.079
20
-105.607
11
107.916
21
-105.716
0
LINE
8
BLACK
6
CONTINUOUS
10
107.916
20
-105.716
11
107.734
21
-105.792
0
LINE
8
BLACK
6
CONTINUOUS
10
107.734
20
-105.792
11
107.54
21
-105.83
0
LINE
8
BLACK
6
CONTINUOUS
10
107.54
20
-105.83
11
107.344
21
-105.83
0
LINE
8
BLACK
6
CONTINUOUS
10
107.344
20
-105.83
11
107.15
21
-105.792
0
LINE
8
BLACK
6
CONTINUOUS
10
107.15
20
-105.792
11
106.968
21
-105.716
0
LINE
8
BLACK
6
CONTINUOUS
10
106.968
20
-105.716
11
106.805
21
-105.607
0
LINE
8
BLACK
6
CONTINUOUS
10
106.805
20
-105.607
11
106.665
21
-105.467
0
LINE
8
BLACK
6
CONTINUOUS
10
106.665
20
-105.467
11
106.556
21
-105.304
0
LINE
8
BLACK
6
CONTINUOUS
10
106.556
20
-105.304
11
106.48
21
-105.122
0
LINE
8
BLACK
6
CONTINUOUS
10
106.48
20
-105.122
11
106.442
21
-104.928
0
LINE
8
BLACK
6
CONTINUOUS
10
106.442
20
-104.928
11
106.442
21
-104.732
0
LINE
8
BLACK
6
CONTINUOUS
10
106.442
20
-104.732
11
106.48
21
-104.538
0
LINE
8
BLACK
6
CONTINUOUS
10
106.48
20
-104.538
11
106.556
21
-104.356
0
LINE
8
BLACK
6
CONTINUOUS
10
106.556
20
-104.356
11
106.665
21
-104.193
0
LINE
8
BLACK
6
CONTINUOUS
10
106.665
20
-104.193
11
106.805
21
-104.053
0
LINE
8
BLACK
6
CONTINUOUS
10
106.805
20
-104.053
11
106.968
21
-103.944
0
LINE
8
BLACK
6
CONTINUOUS
10
106.968
20
-103.944
11
107.15
21
-103.868
0
LINE
8
BLACK
6
CONTINUOUS
10
107.15
20
-103.868
11
107.344
21
-103.83
0
LINE
8
BLACK
6
CONTINUOUS
10
107.344
20
-103.83
11
107.54
21
-103.83
0
LINE
8
BLACK
6
CONTINUOUS
10
107.54
20
-103.83
11
107.734
21
-103.868
0
LINE
8
BLACK
6
CONTINUOUS
10
104.232
20
-103.108
11
103.032
21
-103.108
0
LINE
8
BLACK
6
CONTINUOUS
10
103.032
20
-103.108
11
103.032
21
-101.108
0
LINE
8
BLACK
6
CONTINUOUS
10
103.032
20
-101.108
11
104.232
21
-101.108
0
LINE
8
BLACK
6
CONTINUOUS
10
104.232
20
-101.108
11
104.232
21
-103.108
0
LINE
8
BLACK
6
CONTINUOUS
10
101.692
20
-103.108
11
100.492
21
-103.108
0
LINE
8
BLACK
6
CONTINUOUS
10
100.492
20
-103.108
11
100.492
21
-101.108
0
LINE
8
BLACK
6
CONTINUOUS
10
100.492
20
-101.108
11
101.692
21
-101.108
0
LINE
8
BLACK
6
CONTINUOUS
10
101.692
20
-101.108
11
101.692
21
-103.108
0
LINE
8
BLACK
6
CONTINUOUS
10
99.152
20
-103.108
11
97.952
21
-103.108
0
LINE
8
BLACK
6
CONTINUOUS
10
97.952
20
-103.108
11
97.952
21
-101.108
0
LINE
8
BLACK
6
CONTINUOUS
10
97.952
20
-101.108
11
99.152
21
-101.108
0
LINE
8
BLACK
6
CONTINUOUS
10
99.152
20
-101.108
11
99.152
21
-103.108
0
LINE
8
BLACK
6
CONTINUOUS
10
91.532
20
-103.108
11
90.332
21
-103.108
0
LINE
8
BLACK
6
CONTINUOUS
10
90.332
20
-103.108
11
90.332
21
-101.108
0
LINE
8
BLACK
6
CONTINUOUS
10
90.332
20
-101.108
11
91.532
21
-101.108
0
LINE
8
BLACK
6
CONTINUOUS
10
91.532
20
-101.108
11
91.532
21
-103.108
0
LINE
8
BLACK
6
CONTINUOUS
10
94.072
20
-103.108
11
92.872
21
-103.108
0
LINE
8
BLACK
6
CONTINUOUS
10
92.872
20
-103.108
11
92.872
21
-101.108
0
LINE
8
BLACK
6
CONTINUOUS
10
92.872
20
-101.108
11
94.072
21
-101.108
0
LINE
8
BLACK
6
CONTINUOUS
10
94.072
20
-101.108
11
94.072
21
-103.108
0
LINE
8
BLACK
6
CONTINUOUS
10
96.612
20
-103.108
11
95.412
21
-103.108
0
LINE
8
BLACK
6
CONTINUOUS
10
95.412
20
-103.108
11
95.412
21
-101.108
0
LINE
8
BLACK
6
CONTINUOUS
10
95.412
20
-101.108
11
96.612
21
-101.108
0
LINE
8
BLACK
6
CONTINUOUS
10
96.612
20
-101.108
11
96.612
21
-103.108
0
LINE
8
BLACK
6
CONTINUOUS
10
143.745
20
-99.9094
11
143.971
21
-99.978
0
LINE
8
BLACK
6
CONTINUOUS
10
143.971
20
-99.978
11
144.18
21
-100.089
0
LINE
8
BLACK
6
CONTINUOUS
10
144.18
20
-100.089
11
144.363
21
-100.239
0
LINE
8
BLACK
6
CONTINUOUS
10
144.363
20
-100.239
11
144.513
21
-100.422
0
LINE
8
BLACK
6
CONTINUOUS
10
144.513
20
-100.422
11
144.624
21
-100.631
0
LINE
8
BLACK
6
CONTINUOUS
10
144.624
20
-100.631
11
144.693
21
-100.857
0
LINE
8
BLACK
6
CONTINUOUS
10
144.693
20
-100.857
11
144.716
21
-101.092
0
LINE
8
BLACK
6
CONTINUOUS
10
144.716
20
-101.092
11
144.693
21
-101.327
0
LINE
8
BLACK
6
CONTINUOUS
10
144.693
20
-101.327
11
144.624
21
-101.553
0
LINE
8
BLACK
6
CONTINUOUS
10
144.624
20
-101.553
11
144.513
21
-101.762
0
LINE
8
BLACK
6
CONTINUOUS
10
144.513
20
-101.762
11
144.363
21
-101.945
0
LINE
8
BLACK
6
CONTINUOUS
10
144.363
20
-101.945
11
144.18
21
-102.095
0
LINE
8
BLACK
6
CONTINUOUS
10
144.18
20
-102.095
11
143.971
21
-102.206
0
LINE
8
BLACK
6
CONTINUOUS
10
143.971
20
-102.206
11
143.745
21
-102.275
0
LINE
8
BLACK
6
CONTINUOUS
10
143.745
20
-102.275
11
143.569
21
-102.292
0
LINE
8
BLACK
6
CONTINUOUS
10
143.569
20
-102.292
11
143.451
21
-102.292
0
LINE
8
BLACK
6
CONTINUOUS
10
143.451
20
-102.292
11
143.275
21
-102.275
0
LINE
8
BLACK
6
CONTINUOUS
10
143.275
20
-102.275
11
143.049
21
-102.206
0
LINE
8
BLACK
6
CONTINUOUS
10
143.049
20
-102.206
11
142.84
21
-102.095
0
LINE
8
BLACK
6
CONTINUOUS
10
142.84
20
-102.095
11
142.657
21
-101.945
0
LINE
8
BLACK
6
CONTINUOUS
10
142.657
20
-101.945
11
142.507
21
-101.762
0
LINE
8
BLACK
6
CONTINUOUS
10
142.507
20
-101.762
11
142.396
21
-101.553
0
LINE
8
BLACK
6
CONTINUOUS
10
142.396
20
-101.553
11
142.327
21
-101.327
0
LINE
8
BLACK
6
CONTINUOUS
10
142.327
20
-101.327
11
142.304
21
-101.092
0
LINE
8
BLACK
6
CONTINUOUS
10
142.304
20
-101.092
11
142.327
21
-100.857
0
LINE
8
BLACK
6
CONTINUOUS
10
142.327
20
-100.857
11
142.396
21
-100.631
0
LINE
8
BLACK
6
CONTINUOUS
10
142.396
20
-100.631
11
142.507
21
-100.422
0
LINE
8
BLACK
6
CONTINUOUS
10
142.507
20
-100.422
11
142.657
21
-100.239
0
LINE
8
BLACK
6
CONTINUOUS
10
142.657
20
-100.239
11
142.84
21
-100.089
0
LINE
8
BLACK
6
CONTINUOUS
10
142.84
20
-100.089
11
143.049
21
-99.978
0
LINE
8
BLACK
6
CONTINUOUS
10
143.049
20
-99.978
11
143.275
21
-99.9094
0
LINE
8
BLACK
6
CONTINUOUS
10
143.275
20
-99.9094
11
143.451
21
-99.892
0
LINE
8
BLACK
6
CONTINUOUS
10
143.451
20
-99.892
11
143.569
21
-99.892
0
LINE
8
BLACK
6
CONTINUOUS
10
143.569
20
-99.892
11
143.745
21
-99.9094
0
LINE
8
BLACK
6
CONTINUOUS
10
119.361
20
-99.6554
11
119.587
21
-99.724
0
LINE
8
BLACK
6
CONTINUOUS
10
119.587
20
-99.724
11
119.796
21
-99.8354
0
LINE
8
BLACK
6
CONTINUOUS
10
119.796
20
-99.8354
11
119.979
21
-99.9854
0
LINE
8
BLACK
6
CONTINUOUS
10
119.979
20
-99.9854
11
120.129
21
-100.168
0
LINE
8
BLACK
6
CONTINUOUS
10
120.129
20
-100.168
11
120.24
21
-100.377
0
LINE
8
BLACK
6
CONTINUOUS
10
120.24
20
-100.377
11
120.309
21
-100.603
0
LINE
8
BLACK
6
CONTINUOUS
10
120.309
20
-100.603
11
120.332
21
-100.838
0
LINE
8
BLACK
6
CONTINUOUS
10
120.332
20
-100.838
11
120.309
21
-101.073
0
LINE
8
BLACK
6
CONTINUOUS
10
120.309
20
-101.073
11
120.24
21
-101.299
0
LINE
8
BLACK
6
CONTINUOUS
10
120.24
20
-101.299
11
120.129
21
-101.508
0
LINE
8
BLACK
6
CONTINUOUS
10
120.129
20
-101.508
11
119.979
21
-101.691
0
LINE
8
BLACK
6
CONTINUOUS
10
119.979
20
-101.691
11
119.796
21
-101.841
0
LINE
8
BLACK
6
CONTINUOUS
10
119.796
20
-101.841
11
119.587
21
-101.952
0
LINE
8
BLACK
6
CONTINUOUS
10
119.587
20
-101.952
11
119.361
21
-102.021
0
LINE
8
BLACK
6
CONTINUOUS
10
119.361
20
-102.021
11
119.185
21
-102.038
0
LINE
8
BLACK
6
CONTINUOUS
10
119.185
20
-102.038
11
119.067
21
-102.038
0
LINE
8
BLACK
6
CONTINUOUS
10
119.067
20
-102.038
11
118.891
21
-102.021
0
LINE
8
BLACK
6
CONTINUOUS
10
118.891
20
-102.021
11
118.665
21
-101.952
0
LINE
8
BLACK
6
CONTINUOUS
10
118.665
20
-101.952
11
118.456
21
-101.841
0
LINE
8
BLACK
6
CONTINUOUS
10
118.456
20
-101.841
11
118.273
21
-101.691
0
LINE
8
BLACK
6
CONTINUOUS
10
118.273
20
-101.691
11
118.123
21
-101.508
0
LINE
8
BLACK
6
CONTINUOUS
10
118.123
20
-101.508
11
118.012
21
-101.299
0
LINE
8
BLACK
6
CONTINUOUS
10
118.012
20
-101.299
11
117.943
21
-101.073
0
LINE
8
BLACK
6
CONTINUOUS
10
117.943
20
-101.073
11
117.92
21
-100.838
0
LINE
8
BLACK
6
CONTINUOUS
10
117.92
20
-100.838
11
117.943
21
-100.603
0
LINE
8
BLACK
6
CONTINUOUS
10
117.943
20
-100.603
11
118.012
21
-100.377
0
LINE
8
BLACK
6
CONTINUOUS
10
118.012
20
-100.377
11
118.123
21
-100.168
0
LINE
8
BLACK
6
CONTINUOUS
10
118.123
20
-100.168
11
118.273
21
-99.9854
0
LINE
8
BLACK
6
CONTINUOUS
10
118.273
20
-99.9854
11
118.456
21
-99.8354
0
LINE
8
BLACK
6
CONTINUOUS
10
118.456
20
-99.8354
11
118.665
21
-99.724
0
LINE
8
BLACK
6
CONTINUOUS
10
118.665
20
-99.724
11
118.891
21
-99.6554
0
LINE
8
BLACK
6
CONTINUOUS
10
118.891
20
-99.6554
11
119.067
21
-99.638
0
LINE
8
BLACK
6
CONTINUOUS
10
119.067
20
-99.638
11
119.185
21
-99.638
0
LINE
8
BLACK
6
CONTINUOUS
10
119.185
20
-99.638
11
119.361
21
-99.6554
0
LINE
8
BLACK
6
CONTINUOUS
10
132.176
20
-99.6841
11
132.394
21
-99.7746
0
LINE
8
BLACK
6
CONTINUOUS
10
132.394
20
-99.7746
11
132.591
21
-99.9059
0
LINE
8
BLACK
6
CONTINUOUS
10
132.591
20
-99.9059
11
132.758
21
-100.073
0
LINE
8
BLACK
6
CONTINUOUS
10
132.758
20
-100.073
11
132.889
21
-100.27
0
LINE
8
BLACK
6
CONTINUOUS
10
132.889
20
-100.27
11
132.98
21
-100.488
0
LINE
8
BLACK
6
CONTINUOUS
10
132.98
20
-100.488
11
133.026
21
-100.72
0
LINE
8
BLACK
6
CONTINUOUS
10
133.026
20
-100.72
11
133.026
21
-100.956
0
LINE
8
BLACK
6
CONTINUOUS
10
133.026
20
-100.956
11
132.98
21
-101.188
0
LINE
8
BLACK
6
CONTINUOUS
10
132.98
20
-101.188
11
132.889
21
-101.406
0
LINE
8
BLACK
6
CONTINUOUS
10
132.889
20
-101.406
11
132.758
21
-101.603
0
LINE
8
BLACK
6
CONTINUOUS
10
132.758
20
-101.603
11
132.591
21
-101.77
0
LINE
8
BLACK
6
CONTINUOUS
10
132.591
20
-101.77
11
132.394
21
-101.901
0
LINE
8
BLACK
6
CONTINUOUS
10
132.394
20
-101.901
11
132.176
21
-101.992
0
LINE
8
BLACK
6
CONTINUOUS
10
132.176
20
-101.992
11
131.944
21
-102.038
0
LINE
8
BLACK
6
CONTINUOUS
10
131.944
20
-102.038
11
131.708
21
-102.038
0
LINE
8
BLACK
6
CONTINUOUS
10
131.708
20
-102.038
11
131.476
21
-101.992
0
LINE
8
BLACK
6
CONTINUOUS
10
131.476
20
-101.992
11
131.258
21
-101.901
0
LINE
8
BLACK
6
CONTINUOUS
10
131.258
20
-101.901
11
131.061
21
-101.77
0
LINE
8
BLACK
6
CONTINUOUS
10
131.061
20
-101.77
11
130.894
21
-101.603
0
LINE
8
BLACK
6
CONTINUOUS
10
130.894
20
-101.603
11
130.763
21
-101.406
0
LINE
8
BLACK
6
CONTINUOUS
10
130.763
20
-101.406
11
130.672
21
-101.188
0
LINE
8
BLACK
6
CONTINUOUS
10
130.672
20
-101.188
11
130.626
21
-100.956
0
LINE
8
BLACK
6
CONTINUOUS
10
130.626
20
-100.956
11
130.626
21
-100.72
0
LINE
8
BLACK
6
CONTINUOUS
10
130.626
20
-100.72
11
130.672
21
-100.488
0
LINE
8
BLACK
6
CONTINUOUS
10
130.672
20
-100.488
11
130.763
21
-100.27
0
LINE
8
BLACK
6
CONTINUOUS
10
130.763
20
-100.27
11
130.894
21
-100.073
0
LINE
8
BLACK
6
CONTINUOUS
10
130.894
20
-100.073
11
131.061
21
-99.9059
0
LINE
8
BLACK
6
CONTINUOUS
10
131.061
20
-99.9059
11
131.258
21
-99.7746
0
LINE
8
BLACK
6
CONTINUOUS
10
131.258
20
-99.7746
11
131.476
21
-99.6841
0
LINE
8
BLACK
6
CONTINUOUS
10
131.476
20
-99.6841
11
131.708
21
-99.638
0
LINE
8
BLACK
6
CONTINUOUS
10
131.708
20
-99.638
11
131.944
21
-99.638
0
LINE
8
BLACK
6
CONTINUOUS
10
131.944
20
-99.638
11
132.176
21
-99.6841
0
LINE
8
BLACK
6
CONTINUOUS
10
107.734
20
-99.3684
11
107.916
21
-99.4438
0
LINE
8
BLACK
6
CONTINUOUS
10
107.916
20
-99.4438
11
108.079
21
-99.5532
0
LINE
8
BLACK
6
CONTINUOUS
10
108.079
20
-99.5532
11
108.219
21
-99.6925
0
LINE
8
BLACK
6
CONTINUOUS
10
108.219
20
-99.6925
11
108.328
21
-99.8563
0
LINE
8
BLACK
6
CONTINUOUS
10
108.328
20
-99.8563
11
108.404
21
-100.038
0
LINE
8
BLACK
6
CONTINUOUS
10
108.404
20
-100.038
11
108.442
21
-100.232
0
LINE
8
BLACK
6
CONTINUOUS
10
108.442
20
-100.232
11
108.442
21
-100.428
0
LINE
8
BLACK
6
CONTINUOUS
10
108.442
20
-100.428
11
108.404
21
-100.622
0
LINE
8
BLACK
6
CONTINUOUS
10
108.404
20
-100.622
11
108.328
21
-100.804
0
LINE
8
BLACK
6
CONTINUOUS
10
108.328
20
-100.804
11
108.219
21
-100.967
0
LINE
8
BLACK
6
CONTINUOUS
10
108.219
20
-100.967
11
108.079
21
-101.107
0
LINE
8
BLACK
6
CONTINUOUS
10
108.079
20
-101.107
11
107.916
21
-101.216
0
LINE
8
BLACK
6
CONTINUOUS
10
107.916
20
-101.216
11
107.734
21
-101.292
0
LINE
8
BLACK
6
CONTINUOUS
10
107.734
20
-101.292
11
107.54
21
-101.33
0
LINE
8
BLACK
6
CONTINUOUS
10
107.54
20
-101.33
11
107.344
21
-101.33
0
LINE
8
BLACK
6
CONTINUOUS
10
107.344
20
-101.33
11
107.15
21
-101.292
0
LINE
8
BLACK
6
CONTINUOUS
10
107.15
20
-101.292
11
106.968
21
-101.216
0
LINE
8
BLACK
6
CONTINUOUS
10
106.968
20
-101.216
11
106.805
21
-101.107
0
LINE
8
BLACK
6
CONTINUOUS
10
106.805
20
-101.107
11
106.665
21
-100.967
0
LINE
8
BLACK
6
CONTINUOUS
10
106.665
20
-100.967
11
106.556
21
-100.804
0
LINE
8
BLACK
6
CONTINUOUS
10
106.556
20
-100.804
11
106.48
21
-100.622
0
LINE
8
BLACK
6
CONTINUOUS
10
106.48
20
-100.622
11
106.442
21
-100.428
0
LINE
8
BLACK
6
CONTINUOUS
10
106.442
20
-100.428
11
106.442
21
-100.232
0
LINE
8
BLACK
6
CONTINUOUS
10
106.442
20
-100.232
11
106.48
21
-100.038
0
LINE
8
BLACK
6
CONTINUOUS
10
106.48
20
-100.038
11
106.556
21
-99.8563
0
LINE
8
BLACK
6
CONTINUOUS
10
106.556
20
-99.8563
11
106.665
21
-99.6925
0
LINE
8
BLACK
6
CONTINUOUS
10
106.665
20
-99.6925
11
106.805
21
-99.5532
0
LINE
8
BLACK
6
CONTINUOUS
10
106.805
20
-99.5532
11
106.968
21
-99.4438
0
LINE
8
BLACK
6
CONTINUOUS
10
106.968
20
-99.4438
11
107.15
21
-99.3684
0
LINE
8
BLACK
6
CONTINUOUS
10
107.15
20
-99.3684
11
107.344
21
-99.33
0
LINE
8
BLACK
6
CONTINUOUS
10
107.344
20
-99.33
11
107.54
21
-99.33
0
LINE
8
BLACK
6
CONTINUOUS
10
107.54
20
-99.33
11
107.734
21
-99.3684
0
LINE
8
BLACK
6
CONTINUOUS
10
114.234
20
-99.3684
11
114.416
21
-99.4438
0
LINE
8
BLACK
6
CONTINUOUS
10
114.416
20
-99.4438
11
114.579
21
-99.5532
0
LINE
8
BLACK
6
CONTINUOUS
10
114.579
20
-99.5532
11
114.719
21
-99.6925
0
LINE
8
BLACK
6
CONTINUOUS
10
114.719
20
-99.6925
11
114.828
21
-99.8563
0
LINE
8
BLACK
6
CONTINUOUS
10
114.828
20
-99.8563
11
114.904
21
-100.038
0
LINE
8
BLACK
6
CONTINUOUS
10
114.904
20
-100.038
11
114.942
21
-100.232
0
LINE
8
BLACK
6
CONTINUOUS
10
114.942
20
-100.232
11
114.942
21
-100.428
0
LINE
8
BLACK
6
CONTINUOUS
10
114.942
20
-100.428
11
114.904
21
-100.622
0
LINE
8
BLACK
6
CONTINUOUS
10
114.904
20
-100.622
11
114.828
21
-100.804
0
LINE
8
BLACK
6
CONTINUOUS
10
114.828
20
-100.804
11
114.719
21
-100.967
0
LINE
8
BLACK
6
CONTINUOUS
10
114.719
20
-100.967
11
114.579
21
-101.107
0
LINE
8
BLACK
6
CONTINUOUS
10
114.579
20
-101.107
11
114.416
21
-101.216
0
LINE
8
BLACK
6
CONTINUOUS
10
114.416
20
-101.216
11
114.234
21
-101.292
0
LINE
8
BLACK
6
CONTINUOUS
10
114.234
20
-101.292
11
114.04
21
-101.33
0
LINE
8
BLACK
6
CONTINUOUS
10
114.04
20
-101.33
11
113.844
21
-101.33
0
LINE
8
BLACK
6
CONTINUOUS
10
113.844
20
-101.33
11
113.65
21
-101.292
0
LINE
8
BLACK
6
CONTINUOUS
10
113.65
20
-101.292
11
113.468
21
-101.216
0
LINE
8
BLACK
6
CONTINUOUS
10
113.468
20
-101.216
11
113.305
21
-101.107
0
LINE
8
BLACK
6
CONTINUOUS
10
113.305
20
-101.107
11
113.165
21
-100.967
0
LINE
8
BLACK
6
CONTINUOUS
10
113.165
20
-100.967
11
113.056
21
-100.804
0
LINE
8
BLACK
6
CONTINUOUS
10
113.056
20
-100.804
11
112.98
21
-100.622
0
LINE
8
BLACK
6
CONTINUOUS
10
112.98
20
-100.622
11
112.942
21
-100.428
0
LINE
8
BLACK
6
CONTINUOUS
10
112.942
20
-100.428
11
112.942
21
-100.232
0
LINE
8
BLACK
6
CONTINUOUS
10
112.942
20
-100.232
11
112.98
21
-100.038
0
LINE
8
BLACK
6
CONTINUOUS
10
112.98
20
-100.038
11
113.056
21
-99.8563
0
LINE
8
BLACK
6
CONTINUOUS
10
113.056
20
-99.8563
11
113.165
21
-99.6925
0
LINE
8
BLACK
6
CONTINUOUS
10
113.165
20
-99.6925
11
113.305
21
-99.5532
0
LINE
8
BLACK
6
CONTINUOUS
10
113.305
20
-99.5532
11
113.468
21
-99.4438
0
LINE
8
BLACK
6
CONTINUOUS
10
113.468
20
-99.4438
11
113.65
21
-99.3684
0
LINE
8
BLACK
6
CONTINUOUS
10
113.65
20
-99.3684
11
113.844
21
-99.33
0
LINE
8
BLACK
6
CONTINUOUS
10
113.844
20
-99.33
11
114.04
21
-99.33
0
LINE
8
BLACK
6
CONTINUOUS
10
114.04
20
-99.33
11
114.234
21
-99.3684
0
LINE
8
BLACK
6
CONTINUOUS
10
149.079
20
-97.6234
11
149.305
21
-97.692
0
LINE
8
BLACK
6
CONTINUOUS
10
149.305
20
-97.692
11
149.514
21
-97.8034
0
LINE
8
BLACK
6
CONTINUOUS
10
149.514
20
-97.8034
11
149.697
21
-97.9534
0
LINE
8
BLACK
6
CONTINUOUS
10
149.697
20
-97.9534
11
149.847
21
-98.1361
0
LINE
8
BLACK
6
CONTINUOUS
10
149.847
20
-98.1361
11
149.958
21
-98.3446
0
LINE
8
BLACK
6
CONTINUOUS
10
149.958
20
-98.3446
11
150.027
21
-98.5708
0
LINE
8
BLACK
6
CONTINUOUS
10
150.027
20
-98.5708
11
150.05
21
-98.806
0
LINE
8
BLACK
6
CONTINUOUS
10
150.05
20
-98.806
11
150.027
21
-99.0412
0
LINE
8
BLACK
6
CONTINUOUS
10
150.027
20
-99.0412
11
149.958
21
-99.2674
0
LINE
8
BLACK
6
CONTINUOUS
10
149.958
20
-99.2674
11
149.847
21
-99.4759
0
LINE
8
BLACK
6
CONTINUOUS
10
149.847
20
-99.4759
11
149.697
21
-99.6586
0
LINE
8
BLACK
6
CONTINUOUS
10
149.697
20
-99.6586
11
149.514
21
-99.8086
0
LINE
8
BLACK
6
CONTINUOUS
10
149.514
20
-99.8086
11
149.305
21
-99.92
0
LINE
8
BLACK
6
CONTINUOUS
10
149.305
20
-99.92
11
149.079
21
-99.9886
0
LINE
8
BLACK
6
CONTINUOUS
10
149.079
20
-99.9886
11
148.903
21
-100.006
0
LINE
8
BLACK
6
CONTINUOUS
10
148.903
20
-100.006
11
148.785
21
-100.006
0
LINE
8
BLACK
6
CONTINUOUS
10
148.785
20
-100.006
11
148.609
21
-99.9886
0
LINE
8
BLACK
6
CONTINUOUS
10
148.609
20
-99.9886
11
148.383
21
-99.92
0
LINE
8
BLACK
6
CONTINUOUS
10
148.383
20
-99.92
11
148.174
21
-99.8086
0
LINE
8
BLACK
6
CONTINUOUS
10
148.174
20
-99.8086
11
147.991
21
-99.6586
0
LINE
8
BLACK
6
CONTINUOUS
10
147.991
20
-99.6586
11
147.841
21
-99.4759
0
LINE
8
BLACK
6
CONTINUOUS
10
147.841
20
-99.4759
11
147.73
21
-99.2674
0
LINE
8
BLACK
6
CONTINUOUS
10
147.73
20
-99.2674
11
147.661
21
-99.0412
0
LINE
8
BLACK
6
CONTINUOUS
10
147.661
20
-99.0412
11
147.638
21
-98.806
0
LINE
8
BLACK
6
CONTINUOUS
10
147.638
20
-98.806
11
147.661
21
-98.5708
0
LINE
8
BLACK
6
CONTINUOUS
10
147.661
20
-98.5708
11
147.73
21
-98.3446
0
LINE
8
BLACK
6
CONTINUOUS
10
147.73
20
-98.3446
11
147.841
21
-98.1361
0
LINE
8
BLACK
6
CONTINUOUS
10
147.841
20
-98.1361
11
147.991
21
-97.9534
0
LINE
8
BLACK
6
CONTINUOUS
10
147.991
20
-97.9534
11
148.174
21
-97.8034
0
LINE
8
BLACK
6
CONTINUOUS
10
148.174
20
-97.8034
11
148.383
21
-97.692
0
LINE
8
BLACK
6
CONTINUOUS
10
148.383
20
-97.692
11
148.609
21
-97.6234
0
LINE
8
BLACK
6
CONTINUOUS
10
148.609
20
-97.6234
11
148.785
21
-97.606
0
LINE
8
BLACK
6
CONTINUOUS
10
148.785
20
-97.606
11
148.903
21
-97.606
0
LINE
8
BLACK
6
CONTINUOUS
10
148.903
20
-97.606
11
149.079
21
-97.6234
0
LINE
8
BLACK
6
CONTINUOUS
10
158.71
20
-99.968
11
153.71
21
-99.968
0
LINE
8
BLACK
6
CONTINUOUS
10
153.71
20
-99.968
11
153.71
21
-96.468
0
LINE
8
BLACK
6
CONTINUOUS
10
153.71
20
-96.468
11
158.71
21
-96.468
0
LINE
8
BLACK
6
CONTINUOUS
10
158.71
20
-96.468
11
158.71
21
-99.968
0
LINE
8
BLACK
6
CONTINUOUS
10
128.462
20
-98.028
11
127.062
21
-98.028
0
LINE
8
BLACK
6
CONTINUOUS
10
127.062
20
-98.028
11
127.062
21
-96.028
0
LINE
8
BLACK
6
CONTINUOUS
10
127.062
20
-96.028
11
128.462
21
-96.028
0
LINE
8
BLACK
6
CONTINUOUS
10
128.462
20
-96.028
11
128.462
21
-98.028
0
LINE
8
BLACK
6
CONTINUOUS
10
133.542
20
-98.028
11
132.142
21
-98.028
0
LINE
8
BLACK
6
CONTINUOUS
10
132.142
20
-98.028
11
132.142
21
-96.028
0
LINE
8
BLACK
6
CONTINUOUS
10
132.142
20
-96.028
11
133.542
21
-96.028
0
LINE
8
BLACK
6
CONTINUOUS
10
133.542
20
-96.028
11
133.542
21
-98.028
0
LINE
8
BLACK
6
CONTINUOUS
10
131.002
20
-98.028
11
129.602
21
-98.028
0
LINE
8
BLACK
6
CONTINUOUS
10
129.602
20
-98.028
11
129.602
21
-96.028
0
LINE
8
BLACK
6
CONTINUOUS
10
129.602
20
-96.028
11
131.002
21
-96.028
0
LINE
8
BLACK
6
CONTINUOUS
10
131.002
20
-96.028
11
131.002
21
-98.028
0
LINE
8
BLACK
6
CONTINUOUS
10
125.922
20
-98.028
11
124.522
21
-98.028
0
LINE
8
BLACK
6
CONTINUOUS
10
124.522
20
-98.028
11
124.522
21
-96.028
0
LINE
8
BLACK
6
CONTINUOUS
10
124.522
20
-96.028
11
125.922
21
-96.028
0
LINE
8
BLACK
6
CONTINUOUS
10
125.922
20
-96.028
11
125.922
21
-98.028
0
LINE
8
BLACK
6
CONTINUOUS
10
123.382
20
-98.028
11
121.982
21
-98.028
0
LINE
8
BLACK
6
CONTINUOUS
10
121.982
20
-98.028
11
121.982
21
-96.028
0
LINE
8
BLACK
6
CONTINUOUS
10
121.982
20
-96.028
11
123.382
21
-96.028
0
LINE
8
BLACK
6
CONTINUOUS
10
123.382
20
-96.028
11
123.382
21
-98.028
0
LINE
8
BLACK
6
CONTINUOUS
10
120.842
20
-98.028
11
119.442
21
-98.028
0
LINE
8
BLACK
6
CONTINUOUS
10
119.442
20
-98.028
11
119.442
21
-96.028
0
LINE
8
BLACK
6
CONTINUOUS
10
119.442
20
-96.028
11
120.842
21
-96.028
0
LINE
8
BLACK
6
CONTINUOUS
10
120.842
20
-96.028
11
120.842
21
-98.028
0
LINE
8
BLACK
6
CONTINUOUS
10
118.302
20
-98.028
11
116.902
21
-98.028
0
LINE
8
BLACK
6
CONTINUOUS
10
116.902
20
-98.028
11
116.902
21
-96.028
0
LINE
8
BLACK
6
CONTINUOUS
10
116.902
20
-96.028
11
118.302
21
-96.028
0
LINE
8
BLACK
6
CONTINUOUS
10
118.302
20
-96.028
11
118.302
21
-98.028
0
LINE
8
BLACK
6
CONTINUOUS
10
115.762
20
-98.028
11
114.362
21
-98.028
0
LINE
8
BLACK
6
CONTINUOUS
10
114.362
20
-98.028
11
114.362
21
-96.028
0
LINE
8
BLACK
6
CONTINUOUS
10
114.362
20
-96.028
11
115.762
21
-96.028
0
LINE
8
BLACK
6
CONTINUOUS
10
115.762
20
-96.028
11
115.762
21
-98.028
0
LINE
8
BLACK
6
CONTINUOUS
10
113.222
20
-98.028
11
111.822
21
-98.028
0
LINE
8
BLACK
6
CONTINUOUS
10
111.822
20
-98.028
11
111.822
21
-96.028
0
LINE
8
BLACK
6
CONTINUOUS
10
111.822
20
-96.028
11
113.222
21
-96.028
0
LINE
8
BLACK
6
CONTINUOUS
10
113.222
20
-96.028
11
113.222
21
-98.028
0
LINE
8
BLACK
6
CONTINUOUS
10
110.582
20
-98.028
11
109.382
21
-98.028
0
LINE
8
BLACK
6
CONTINUOUS
10
109.382
20
-98.028
11
109.382
21
-96.028
0
LINE
8
BLACK
6
CONTINUOUS
10
109.382
20
-96.028
11
110.582
21
-96.028
0
LINE
8
BLACK
6
CONTINUOUS
10
110.582
20
-96.028
11
110.582
21
-98.028
0
LINE
8
BLACK
6
CONTINUOUS
10
107.942
20
-98.028
11
106.942
21
-98.028
0
LINE
8
BLACK
6
CONTINUOUS
10
106.942
20
-98.028
11
106.942
21
-96.028
0
LINE
8
BLACK
6
CONTINUOUS
10
106.942
20
-96.028
11
107.942
21
-96.028
0
LINE
8
BLACK
6
CONTINUOUS
10
107.942
20
-96.028
11
107.942
21
-98.028
0
LINE
8
BLACK
6
CONTINUOUS
10
105.502
20
-98.028
11
104.302
21
-98.028
0
LINE
8
BLACK
6
CONTINUOUS
10
104.302
20
-98.028
11
104.302
21
-96.028
0
LINE
8
BLACK
6
CONTINUOUS
10
104.302
20
-96.028
11
105.502
21
-96.028
0
LINE
8
BLACK
6
CONTINUOUS
10
105.502
20
-96.028
11
105.502
21
-98.028
0
LINE
8
BLACK
6
CONTINUOUS
10
102.962
20
-98.028
11
101.762
21
-98.028
0
LINE
8
BLACK
6
CONTINUOUS
10
101.762
20
-98.028
11
101.762
21
-96.028
0
LINE
8
BLACK
6
CONTINUOUS
10
101.762
20
-96.028
11
102.962
21
-96.028
0
LINE
8
BLACK
6
CONTINUOUS
10
102.962
20
-96.028
11
102.962
21
-98.028
0
LINE
8
BLACK
6
CONTINUOUS
10
100.422
20
-98.028
11
99.222
21
-98.028
0
LINE
8
BLACK
6
CONTINUOUS
10
99.222
20
-98.028
11
99.222
21
-96.028
0
LINE
8
BLACK
6
CONTINUOUS
10
99.222
20
-96.028
11
100.422
21
-96.028
0
LINE
8
BLACK
6
CONTINUOUS
10
100.422
20
-96.028
11
100.422
21
-98.028
0
LINE
8
BLACK
6
CONTINUOUS
10
137.256
20
-93.3341
11
137.474
21
-93.4246
0
LINE
8
BLACK
6
CONTINUOUS
10
137.474
20
-93.4246
11
137.671
21
-93.5559
0
LINE
8
BLACK
6
CONTINUOUS
10
137.671
20
-93.5559
11
137.838
21
-93.723
0
LINE
8
BLACK
6
CONTINUOUS
10
137.838
20
-93.723
11
137.969
21
-93.9196
0
LINE
8
BLACK
6
CONTINUOUS
10
137.969
20
-93.9196
11
138.06
21
-94.138
0
LINE
8
BLACK
6
CONTINUOUS
10
138.06
20
-94.138
11
138.106
21
-94.3698
0
LINE
8
BLACK
6
CONTINUOUS
10
138.106
20
-94.3698
11
138.106
21
-94.6062
0
LINE
8
BLACK
6
CONTINUOUS
10
138.106
20
-94.6062
11
138.06
21
-94.838
0
LINE
8
BLACK
6
CONTINUOUS
10
138.06
20
-94.838
11
137.969
21
-95.0564
0
LINE
8
BLACK
6
CONTINUOUS
10
137.969
20
-95.0564
11
137.838
21
-95.253
0
LINE
8
BLACK
6
CONTINUOUS
10
137.838
20
-95.253
11
137.671
21
-95.4201
0
LINE
8
BLACK
6
CONTINUOUS
10
137.671
20
-95.4201
11
137.474
21
-95.5514
0
LINE
8
BLACK
6
CONTINUOUS
10
137.474
20
-95.5514
11
137.256
21
-95.6419
0
LINE
8
BLACK
6
CONTINUOUS
10
137.256
20
-95.6419
11
137.024
21
-95.688
0
LINE
8
BLACK
6
CONTINUOUS
10
137.024
20
-95.688
11
136.788
21
-95.688
0
LINE
8
BLACK
6
CONTINUOUS
10
136.788
20
-95.688
11
136.556
21
-95.6419
0
LINE
8
BLACK
6
CONTINUOUS
10
136.556
20
-95.6419
11
136.338
21
-95.5514
0
LINE
8
BLACK
6
CONTINUOUS
10
136.338
20
-95.5514
11
136.141
21
-95.4201
0
LINE
8
BLACK
6
CONTINUOUS
10
136.141
20
-95.4201
11
135.974
21
-95.253
0
LINE
8
BLACK
6
CONTINUOUS
10
135.974
20
-95.253
11
135.843
21
-95.0564
0
LINE
8
BLACK
6
CONTINUOUS
10
135.843
20
-95.0564
11
135.752
21
-94.838
0
LINE
8
BLACK
6
CONTINUOUS
10
135.752
20
-94.838
11
135.706
21
-94.6062
0
LINE
8
BLACK
6
CONTINUOUS
10
135.706
20
-94.6062
11
135.706
21
-94.3698
0
LINE
8
BLACK
6
CONTINUOUS
10
135.706
20
-94.3698
11
135.752
21
-94.138
0
LINE
8
BLACK
6
CONTINUOUS
10
135.752
20
-94.138
11
135.843
21
-93.9196
0
LINE
8
BLACK
6
CONTINUOUS
10
135.843
20
-93.9196
11
135.974
21
-93.723
0
LINE
8
BLACK
6
CONTINUOUS
10
135.974
20
-93.723
11
136.141
21
-93.5559
0
LINE
8
BLACK
6
CONTINUOUS
10
136.141
20
-93.5559
11
136.338
21
-93.4246
0
LINE
8
BLACK
6
CONTINUOUS
10
136.338
20
-93.4246
11
136.556
21
-93.3341
0
LINE
8
BLACK
6
CONTINUOUS
10
136.556
20
-93.3341
11
136.788
21
-93.288
0
LINE
8
BLACK
6
CONTINUOUS
10
136.788
20
-93.288
11
137.024
21
-93.288
0
LINE
8
BLACK
6
CONTINUOUS
10
137.024
20
-93.288
11
137.256
21
-93.3341
0
LINE
8
BLACK
6
CONTINUOUS
10
158.71
20
-94.968
11
153.71
21
-94.968
0
LINE
8
BLACK
6
CONTINUOUS
10
153.71
20
-94.968
11
153.71
21
-91.468
0
LINE
8
BLACK
6
CONTINUOUS
10
153.71
20
-91.468
11
158.71
21
-91.468
0
LINE
8
BLACK
6
CONTINUOUS
10
158.71
20
-91.468
11
158.71
21
-94.968
0
LINE
8
BLACK
6
CONTINUOUS
10
95.21
20
-93.364
11
90.21
21
-93.364
0
LINE
8
BLACK
6
CONTINUOUS
10
90.21
20
-93.364
11
90.21
21
-89.864
0
LINE
8
BLACK
6
CONTINUOUS
10
90.21
20
-89.864
11
95.21
21
-89.864
0
LINE
8
BLACK
6
CONTINUOUS
10
95.21
20
-89.864
11
95.21
21
-93.364
0
LINE
8
BLACK
6
CONTINUOUS
10
137.141
20
-90.2574
11
137.367
21
-90.326
0
LINE
8
BLACK
6
CONTINUOUS
10
137.367
20
-90.326
11
137.576
21
-90.4374
0
LINE
8
BLACK
6
CONTINUOUS
10
137.576
20
-90.4374
11
137.759
21
-90.5874
0
LINE
8
BLACK
6
CONTINUOUS
10
137.759
20
-90.5874
11
137.909
21
-90.7701
0
LINE
8
BLACK
6
CONTINUOUS
10
137.909
20
-90.7701
11
138.02
21
-90.9786
0
LINE
8
BLACK
6
CONTINUOUS
10
138.02
20
-90.9786
11
138.089
21
-91.2048
0
LINE
8
BLACK
6
CONTINUOUS
10
138.089
20
-91.2048
11
138.112
21
-91.44
0
LINE
8
BLACK
6
CONTINUOUS
10
138.112
20
-91.44
11
138.089
21
-91.6752
0
LINE
8
BLACK
6
CONTINUOUS
10
138.089
20
-91.6752
11
138.02
21
-91.9014
0
LINE
8
BLACK
6
CONTINUOUS
10
138.02
20
-91.9014
11
137.909
21
-92.1099
0
LINE
8
BLACK
6
CONTINUOUS
10
137.909
20
-92.1099
11
137.759
21
-92.2926
0
LINE
8
BLACK
6
CONTINUOUS
10
137.759
20
-92.2926
11
137.576
21
-92.4426
0
LINE
8
BLACK
6
CONTINUOUS
10
137.576
20
-92.4426
11
137.367
21
-92.554
0
LINE
8
BLACK
6
CONTINUOUS
10
137.367
20
-92.554
11
137.141
21
-92.6226
0
LINE
8
BLACK
6
CONTINUOUS
10
137.141
20
-92.6226
11
136.965
21
-92.64
0
LINE
8
BLACK
6
CONTINUOUS
10
136.965
20
-92.64
11
136.847
21
-92.64
0
LINE
8
BLACK
6
CONTINUOUS
10
136.847
20
-92.64
11
136.671
21
-92.6226
0
LINE
8
BLACK
6
CONTINUOUS
10
136.671
20
-92.6226
11
136.445
21
-92.554
0
LINE
8
BLACK
6
CONTINUOUS
10
136.445
20
-92.554
11
136.236
21
-92.4426
0
LINE
8
BLACK
6
CONTINUOUS
10
136.236
20
-92.4426
11
136.053
21
-92.2926
0
LINE
8
BLACK
6
CONTINUOUS
10
136.053
20
-92.2926
11
135.903
21
-92.1099
0
LINE
8
BLACK
6
CONTINUOUS
10
135.903
20
-92.1099
11
135.792
21
-91.9014
0
LINE
8
BLACK
6
CONTINUOUS
10
135.792
20
-91.9014
11
135.723
21
-91.6752
0
LINE
8
BLACK
6
CONTINUOUS
10
135.723
20
-91.6752
11
135.7
21
-91.44
0
LINE
8
BLACK
6
CONTINUOUS
10
135.7
20
-91.44
11
135.723
21
-91.2048
0
LINE
8
BLACK
6
CONTINUOUS
10
135.723
20
-91.2048
11
135.792
21
-90.9786
0
LINE
8
BLACK
6
CONTINUOUS
10
135.792
20
-90.9786
11
135.903
21
-90.7701
0
LINE
8
BLACK
6
CONTINUOUS
10
135.903
20
-90.7701
11
136.053
21
-90.5874
0
LINE
8
BLACK
6
CONTINUOUS
10
136.053
20
-90.5874
11
136.236
21
-90.4374
0
LINE
8
BLACK
6
CONTINUOUS
10
136.236
20
-90.4374
11
136.445
21
-90.326
0
LINE
8
BLACK
6
CONTINUOUS
10
136.445
20
-90.326
11
136.671
21
-90.2574
0
LINE
8
BLACK
6
CONTINUOUS
10
136.671
20
-90.2574
11
136.847
21
-90.24
0
LINE
8
BLACK
6
CONTINUOUS
10
136.847
20
-90.24
11
136.965
21
-90.24
0
LINE
8
BLACK
6
CONTINUOUS
10
136.965
20
-90.24
11
137.141
21
-90.2574
0
LINE
8
BLACK
6
CONTINUOUS
10
131.002
20
-90.408
11
129.602
21
-90.408
0
LINE
8
BLACK
6
CONTINUOUS
10
129.602
20
-90.408
11
129.602
21
-88.408
0
LINE
8
BLACK
6
CONTINUOUS
10
129.602
20
-88.408
11
131.002
21
-88.408
0
LINE
8
BLACK
6
CONTINUOUS
10
131.002
20
-88.408
11
131.002
21
-90.408
0
LINE
8
BLACK
6
CONTINUOUS
10
133.542
20
-90.408
11
132.142
21
-90.408
0
LINE
8
BLACK
6
CONTINUOUS
10
132.142
20
-90.408
11
132.142
21
-88.408
0
LINE
8
BLACK
6
CONTINUOUS
10
132.142
20
-88.408
11
133.542
21
-88.408
0
LINE
8
BLACK
6
CONTINUOUS
10
133.542
20
-88.408
11
133.542
21
-90.408
0
LINE
8
BLACK
6
CONTINUOUS
10
128.462
20
-90.408
11
127.062
21
-90.408
0
LINE
8
BLACK
6
CONTINUOUS
10
127.062
20
-90.408
11
127.062
21
-88.408
0
LINE
8
BLACK
6
CONTINUOUS
10
127.062
20
-88.408
11
128.462
21
-88.408
0
LINE
8
BLACK
6
CONTINUOUS
10
128.462
20
-88.408
11
128.462
21
-90.408
0
LINE
8
BLACK
6
CONTINUOUS
10
125.922
20
-90.408
11
124.522
21
-90.408
0
LINE
8
BLACK
6
CONTINUOUS
10
124.522
20
-90.408
11
124.522
21
-88.408
0
LINE
8
BLACK
6
CONTINUOUS
10
124.522
20
-88.408
11
125.922
21
-88.408
0
LINE
8
BLACK
6
CONTINUOUS
10
125.922
20
-88.408
11
125.922
21
-90.408
0
LINE
8
BLACK
6
CONTINUOUS
10
123.382
20
-90.408
11
121.982
21
-90.408
0
LINE
8
BLACK
6
CONTINUOUS
10
121.982
20
-90.408
11
121.982
21
-88.408
0
LINE
8
BLACK
6
CONTINUOUS
10
121.982
20
-88.408
11
123.382
21
-88.408
0
LINE
8
BLACK
6
CONTINUOUS
10
123.382
20
-88.408
11
123.382
21
-90.408
0
LINE
8
BLACK
6
CONTINUOUS
10
120.842
20
-90.408
11
119.442
21
-90.408
0
LINE
8
BLACK
6
CONTINUOUS
10
119.442
20
-90.408
11
119.442
21
-88.408
0
LINE
8
BLACK
6
CONTINUOUS
10
119.442
20
-88.408
11
120.842
21
-88.408
0
LINE
8
BLACK
6
CONTINUOUS
10
120.842
20
-88.408
11
120.842
21
-90.408
0
LINE
8
BLACK
6
CONTINUOUS
10
118.302
20
-90.408
11
116.902
21
-90.408
0
LINE
8
BLACK
6
CONTINUOUS
10
116.902
20
-90.408
11
116.902
21
-88.408
0
LINE
8
BLACK
6
CONTINUOUS
10
116.902
20
-88.408
11
118.302
21
-88.408
0
LINE
8
BLACK
6
CONTINUOUS
10
118.302
20
-88.408
11
118.302
21
-90.408
0
LINE
8
BLACK
6
CONTINUOUS
10
115.762
20
-90.408
11
114.362
21
-90.408
0
LINE
8
BLACK
6
CONTINUOUS
10
114.362
20
-90.408
11
114.362
21
-88.408
0
LINE
8
BLACK
6
CONTINUOUS
10
114.362
20
-88.408
11
115.762
21
-88.408
0
LINE
8
BLACK
6
CONTINUOUS
10
115.762
20
-88.408
11
115.762
21
-90.408
0
LINE
8
BLACK
6
CONTINUOUS
10
113.222
20
-90.408
11
111.822
21
-90.408
0
LINE
8
BLACK
6
CONTINUOUS
10
111.822
20
-90.408
11
111.822
21
-88.408
0
LINE
8
BLACK
6
CONTINUOUS
10
111.822
20
-88.408
11
113.222
21
-88.408
0
LINE
8
BLACK
6
CONTINUOUS
10
113.222
20
-88.408
11
113.222
21
-90.408
0
LINE
8
BLACK
6
CONTINUOUS
10
110.682
20
-90.408
11
109.282
21
-90.408
0
LINE
8
BLACK
6
CONTINUOUS
10
109.282
20
-90.408
11
109.282
21
-88.408
0
LINE
8
BLACK
6
CONTINUOUS
10
109.282
20
-88.408
11
110.682
21
-88.408
0
LINE
8
BLACK
6
CONTINUOUS
10
110.682
20
-88.408
11
110.682
21
-90.408
0
LINE
8
BLACK
6
CONTINUOUS
10
108.142
20
-90.408
11
106.742
21
-90.408
0
LINE
8
BLACK
6
CONTINUOUS
10
106.742
20
-90.408
11
106.742
21
-88.408
0
LINE
8
BLACK
6
CONTINUOUS
10
106.742
20
-88.408
11
108.142
21
-88.408
0
LINE
8
BLACK
6
CONTINUOUS
10
108.142
20
-88.408
11
108.142
21
-90.408
0
LINE
8
BLACK
6
CONTINUOUS
10
105.602
20
-90.408
11
104.202
21
-90.408
0
LINE
8
BLACK
6
CONTINUOUS
10
104.202
20
-90.408
11
104.202
21
-88.408
0
LINE
8
BLACK
6
CONTINUOUS
10
104.202
20
-88.408
11
105.602
21
-88.408
0
LINE
8
BLACK
6
CONTINUOUS
10
105.602
20
-88.408
11
105.602
21
-90.408
0
LINE
8
BLACK
6
CONTINUOUS
10
103.062
20
-90.408
11
101.662
21
-90.408
0
LINE
8
BLACK
6
CONTINUOUS
10
101.662
20
-90.408
11
101.662
21
-88.408
0
LINE
8
BLACK
6
CONTINUOUS
10
101.662
20
-88.408
11
103.062
21
-88.408
0
LINE
8
BLACK
6
CONTINUOUS
10
103.062
20
-88.408
11
103.062
21
-90.408
0
LINE
8
BLACK
6
CONTINUOUS
10
100.522
20
-90.408
11
99.122
21
-90.408
0
LINE
8
BLACK
6
CONTINUOUS
10
99.122
20
-90.408
11
99.122
21
-88.408
0
LINE
8
BLACK
6
CONTINUOUS
10
99.122
20
-88.408
11
100.522
21
-88.408
0
LINE
8
BLACK
6
CONTINUOUS
10
100.522
20
-88.408
11
100.522
21
-90.408
0
LINE
8
BLACK
6
CONTINUOUS
10
168.129
20
-86.9554
11
168.355
21
-87.024
0
LINE
8
BLACK
6
CONTINUOUS
10
168.355
20
-87.024
11
168.564
21
-87.1354
0
LINE
8
BLACK
6
CONTINUOUS
10
168.564
20
-87.1354
11
168.747
21
-87.2854
0
LINE
8
BLACK
6
CONTINUOUS
10
168.747
20
-87.2854
11
168.897
21
-87.4681
0
LINE
8
BLACK
6
CONTINUOUS
10
168.897
20
-87.4681
11
169.008
21
-87.6766
0
LINE
8
BLACK
6
CONTINUOUS
10
169.008
20
-87.6766
11
169.077
21
-87.9028
0
LINE
8
BLACK
6
CONTINUOUS
10
169.077
20
-87.9028
11
169.1
21
-88.138
0
LINE
8
BLACK
6
CONTINUOUS
10
169.1
20
-88.138
11
169.077
21
-88.3732
0
LINE
8
BLACK
6
CONTINUOUS
10
169.077
20
-88.3732
11
169.008
21
-88.5994
0
LINE
8
BLACK
6
CONTINUOUS
10
169.008
20
-88.5994
11
168.897
21
-88.8079
0
LINE
8
BLACK
6
CONTINUOUS
10
168.897
20
-88.8079
11
168.747
21
-88.9906
0
LINE
8
BLACK
6
CONTINUOUS
10
168.747
20
-88.9906
11
168.564
21
-89.1406
0
LINE
8
BLACK
6
CONTINUOUS
10
168.564
20
-89.1406
11
168.355
21
-89.252
0
LINE
8
BLACK
6
CONTINUOUS
10
168.355
20
-89.252
11
168.129
21
-89.3206
0
LINE
8
BLACK
6
CONTINUOUS
10
168.129
20
-89.3206
11
167.953
21
-89.338
0
LINE
8
BLACK
6
CONTINUOUS
10
167.953
20
-89.338
11
167.835
21
-89.338
0
LINE
8
BLACK
6
CONTINUOUS
10
167.835
20
-89.338
11
167.659
21
-89.3206
0
LINE
8
BLACK
6
CONTINUOUS
10
167.659
20
-89.3206
11
167.433
21
-89.252
0
LINE
8
BLACK
6
CONTINUOUS
10
167.433
20
-89.252
11
167.224
21
-89.1406
0
LINE
8
BLACK
6
CONTINUOUS
10
167.224
20
-89.1406
11
167.041
21
-88.9906
0
LINE
8
BLACK
6
CONTINUOUS
10
167.041
20
-88.9906
11
166.891
21
-88.8079
0
LINE
8
BLACK
6
CONTINUOUS
10
166.891
20
-88.8079
11
166.78
21
-88.5994
0
LINE
8
BLACK
6
CONTINUOUS
10
166.78
20
-88.5994
11
166.711
21
-88.3732
0
LINE
8
BLACK
6
CONTINUOUS
10
166.711
20
-88.3732
11
166.688
21
-88.138
0
LINE
8
BLACK
6
CONTINUOUS
10
166.688
20
-88.138
11
166.711
21
-87.9028
0
LINE
8
BLACK
6
CONTINUOUS
10
166.711
20
-87.9028
11
166.78
21
-87.6766
0
LINE
8
BLACK
6
CONTINUOUS
10
166.78
20
-87.6766
11
166.891
21
-87.4681
0
LINE
8
BLACK
6
CONTINUOUS
10
166.891
20
-87.4681
11
167.041
21
-87.2854
0
LINE
8
BLACK
6
CONTINUOUS
10
167.041
20
-87.2854
11
167.224
21
-87.1354
0
LINE
8
BLACK
6
CONTINUOUS
10
167.224
20
-87.1354
11
167.433
21
-87.024
0
LINE
8
BLACK
6
CONTINUOUS
10
167.433
20
-87.024
11
167.659
21
-86.9554
0
LINE
8
BLACK
6
CONTINUOUS
10
167.659
20
-86.9554
11
167.835
21
-86.938
0
LINE
8
BLACK
6
CONTINUOUS
10
167.835
20
-86.938
11
167.953
21
-86.938
0
LINE
8
BLACK
6
CONTINUOUS
10
167.953
20
-86.938
11
168.129
21
-86.9554
0
LINE
8
BLACK
6
CONTINUOUS
10
153.854
20
-89.338
11
151.454
21
-89.338
0
LINE
8
BLACK
6
CONTINUOUS
10
151.454
20
-89.338
11
151.454
21
-86.938
0
LINE
8
BLACK
6
CONTINUOUS
10
151.454
20
-86.938
11
153.854
21
-86.938
0
LINE
8
BLACK
6
CONTINUOUS
10
153.854
20
-86.938
11
153.854
21
-89.338
0
LINE
8
BLACK
6
CONTINUOUS
10
95.21
20
-88.364
11
90.21
21
-88.364
0
LINE
8
BLACK
6
CONTINUOUS
10
90.21
20
-88.364
11
90.21
21
-84.864
0
LINE
8
BLACK
6
CONTINUOUS
10
90.21
20
-84.864
11
95.21
21
-84.864
0
LINE
8
BLACK
6
CONTINUOUS
10
95.21
20
-84.864
11
95.21
21
-88.364
0
LINE
8
BLACK
6
CONTINUOUS
10
149.194
20
-84.9521
11
149.412
21
-85.0426
0
LINE
8
BLACK
6
CONTINUOUS
10
149.412
20
-85.0426
11
149.609
21
-85.1739
0
LINE
8
BLACK
6
CONTINUOUS
10
149.609
20
-85.1739
11
149.776
21
-85.341
0
LINE
8
BLACK
6
CONTINUOUS
10
149.776
20
-85.341
11
149.907
21
-85.5376
0
LINE
8
BLACK
6
CONTINUOUS
10
149.907
20
-85.5376
11
149.998
21
-85.756
0
LINE
8
BLACK
6
CONTINUOUS
10
149.998
20
-85.756
11
150.044
21
-85.9878
0
LINE
8
BLACK
6
CONTINUOUS
10
150.044
20
-85.9878
11
150.044
21
-86.2242
0
LINE
8
BLACK
6
CONTINUOUS
10
150.044
20
-86.2242
11
149.998
21
-86.456
0
LINE
8
BLACK
6
CONTINUOUS
10
149.998
20
-86.456
11
149.907
21
-86.6744
0
LINE
8
BLACK
6
CONTINUOUS
10
149.907
20
-86.6744
11
149.776
21
-86.871
0
LINE
8
BLACK
6
CONTINUOUS
10
149.776
20
-86.871
11
149.609
21
-87.0381
0
LINE
8
BLACK
6
CONTINUOUS
10
149.609
20
-87.0381
11
149.412
21
-87.1694
0
LINE
8
BLACK
6
CONTINUOUS
10
149.412
20
-87.1694
11
149.194
21
-87.2599
0
LINE
8
BLACK
6
CONTINUOUS
10
149.194
20
-87.2599
11
148.962
21
-87.306
0
LINE
8
BLACK
6
CONTINUOUS
10
148.962
20
-87.306
11
148.726
21
-87.306
0
LINE
8
BLACK
6
CONTINUOUS
10
148.726
20
-87.306
11
148.494
21
-87.2599
0
LINE
8
BLACK
6
CONTINUOUS
10
148.494
20
-87.2599
11
148.276
21
-87.1694
0
LINE
8
BLACK
6
CONTINUOUS
10
148.276
20
-87.1694
11
148.079
21
-87.0381
0
LINE
8
BLACK
6
CONTINUOUS
10
148.079
20
-87.0381
11
147.912
21
-86.871
0
LINE
8
BLACK
6
CONTINUOUS
10
147.912
20
-86.871
11
147.781
21
-86.6744
0
LINE
8
BLACK
6
CONTINUOUS
10
147.781
20
-86.6744
11
147.69
21
-86.456
0
LINE
8
BLACK
6
CONTINUOUS
10
147.69
20
-86.456
11
147.644
21
-86.2242
0
LINE
8
BLACK
6
CONTINUOUS
10
147.644
20
-86.2242
11
147.644
21
-85.9878
0
LINE
8
BLACK
6
CONTINUOUS
10
147.644
20
-85.9878
11
147.69
21
-85.756
0
LINE
8
BLACK
6
CONTINUOUS
10
147.69
20
-85.756
11
147.781
21
-85.5376
0
LINE
8
BLACK
6
CONTINUOUS
10
147.781
20
-85.5376
11
147.912
21
-85.341
0
LINE
8
BLACK
6
CONTINUOUS
10
147.912
20
-85.341
11
148.079
21
-85.1739
0
LINE
8
BLACK
6
CONTINUOUS
10
148.079
20
-85.1739
11
148.276
21
-85.0426
0
LINE
8
BLACK
6
CONTINUOUS
10
148.276
20
-85.0426
11
148.494
21
-84.9521
0
LINE
8
BLACK
6
CONTINUOUS
10
148.494
20
-84.9521
11
148.726
21
-84.906
0
LINE
8
BLACK
6
CONTINUOUS
10
148.726
20
-84.906
11
148.962
21
-84.906
0
LINE
8
BLACK
6
CONTINUOUS
10
148.962
20
-84.906
11
149.194
21
-84.9521
0
LINE
8
BLACK
6
CONTINUOUS
10
144.71
20
-87.052
11
142.31
21
-87.052
0
LINE
8
BLACK
6
CONTINUOUS
10
142.31
20
-87.052
11
142.31
21
-84.652
0
LINE
8
BLACK
6
CONTINUOUS
10
142.31
20
-84.652
11
144.71
21
-84.652
0
LINE
8
BLACK
6
CONTINUOUS
10
144.71
20
-84.652
11
144.71
21
-87.052
0
LINE
8
BLACK
6
CONTINUOUS
10
117.073
20
-85.0827
11
117.219
21
-85.143
0
LINE
8
BLACK
6
CONTINUOUS
10
117.219
20
-85.143
11
117.35
21
-85.2306
0
LINE
8
BLACK
6
CONTINUOUS
10
117.35
20
-85.2306
11
117.461
21
-85.342
0
LINE
8
BLACK
6
CONTINUOUS
10
117.461
20
-85.342
11
117.549
21
-85.4731
0
LINE
8
BLACK
6
CONTINUOUS
10
117.549
20
-85.4731
11
117.609
21
-85.6186
0
LINE
8
BLACK
6
CONTINUOUS
10
117.609
20
-85.6186
11
117.64
21
-85.7732
0
LINE
8
BLACK
6
CONTINUOUS
10
117.64
20
-85.7732
11
117.64
21
-85.9308
0
LINE
8
BLACK
6
CONTINUOUS
10
117.64
20
-85.9308
11
117.609
21
-86.0854
0
LINE
8
BLACK
6
CONTINUOUS
10
117.609
20
-86.0854
11
117.549
21
-86.2309
0
LINE
8
BLACK
6
CONTINUOUS
10
117.549
20
-86.2309
11
117.461
21
-86.362
0
LINE
8
BLACK
6
CONTINUOUS
10
117.461
20
-86.362
11
117.35
21
-86.4734
0
LINE
8
BLACK
6
CONTINUOUS
10
117.35
20
-86.4734
11
117.219
21
-86.561
0
LINE
8
BLACK
6
CONTINUOUS
10
117.219
20
-86.561
11
117.073
21
-86.6213
0
LINE
8
BLACK
6
CONTINUOUS
10
117.073
20
-86.6213
11
116.919
21
-86.652
0
LINE
8
BLACK
6
CONTINUOUS
10
116.919
20
-86.652
11
116.761
21
-86.652
0
LINE
8
BLACK
6
CONTINUOUS
10
116.761
20
-86.652
11
116.607
21
-86.6213
0
LINE
8
BLACK
6
CONTINUOUS
10
116.607
20
-86.6213
11
116.461
21
-86.561
0
LINE
8
BLACK
6
CONTINUOUS
10
116.461
20
-86.561
11
116.33
21
-86.4734
0
LINE
8
BLACK
6
CONTINUOUS
10
116.33
20
-86.4734
11
116.219
21
-86.362
0
LINE
8
BLACK
6
CONTINUOUS
10
116.219
20
-86.362
11
116.131
21
-86.2309
0
LINE
8
BLACK
6
CONTINUOUS
10
116.131
20
-86.2309
11
116.071
21
-86.0854
0
LINE
8
BLACK
6
CONTINUOUS
10
116.071
20
-86.0854
11
116.04
21
-85.9308
0
LINE
8
BLACK
6
CONTINUOUS
10
116.04
20
-85.9308
11
116.04
21
-85.7732
0
LINE
8
BLACK
6
CONTINUOUS
10
116.04
20
-85.7732
11
116.071
21
-85.6186
0
LINE
8
BLACK
6
CONTINUOUS
10
116.071
20
-85.6186
11
116.131
21
-85.4731
0
LINE
8
BLACK
6
CONTINUOUS
10
116.131
20
-85.4731
11
116.219
21
-85.342
0
LINE
8
BLACK
6
CONTINUOUS
10
116.219
20
-85.342
11
116.33
21
-85.2306
0
LINE
8
BLACK
6
CONTINUOUS
10
116.33
20
-85.2306
11
116.461
21
-85.143
0
LINE
8
BLACK
6
CONTINUOUS
10
116.461
20
-85.143
11
116.607
21
-85.0827
0
LINE
8
BLACK
6
CONTINUOUS
10
116.607
20
-85.0827
11
116.761
21
-85.052
0
LINE
8
BLACK
6
CONTINUOUS
10
116.761
20
-85.052
11
116.919
21
-85.052
0
LINE
8
BLACK
6
CONTINUOUS
10
116.919
20
-85.052
11
117.073
21
-85.0827
0
LINE
8
BLACK
6
CONTINUOUS
10
99.918
20
-84.1901
11
100.136
21
-84.2806
0
LINE
8
BLACK
6
CONTINUOUS
10
100.136
20
-84.2806
11
100.333
21
-84.4119
0
LINE
8
BLACK
6
CONTINUOUS
10
100.333
20
-84.4119
11
100.5
21
-84.579
0
LINE
8
BLACK
6
CONTINUOUS
10
100.5
20
-84.579
11
100.631
21
-84.7756
0
LINE
8
BLACK
6
CONTINUOUS
10
100.631
20
-84.7756
11
100.722
21
-84.994
0
LINE
8
BLACK
6
CONTINUOUS
10
100.722
20
-84.994
11
100.768
21
-85.2258
0
LINE
8
BLACK
6
CONTINUOUS
10
100.768
20
-85.2258
11
100.768
21
-85.4622
0
LINE
8
BLACK
6
CONTINUOUS
10
100.768
20
-85.4622
11
100.722
21
-85.694
0
LINE
8
BLACK
6
CONTINUOUS
10
100.722
20
-85.694
11
100.631
21
-85.9124
0
LINE
8
BLACK
6
CONTINUOUS
10
100.631
20
-85.9124
11
100.5
21
-86.109
0
LINE
8
BLACK
6
CONTINUOUS
10
100.5
20
-86.109
11
100.333
21
-86.2761
0
LINE
8
BLACK
6
CONTINUOUS
10
100.333
20
-86.2761
11
100.136
21
-86.4074
0
LINE
8
BLACK
6
CONTINUOUS
10
100.136
20
-86.4074
11
99.918
21
-86.4979
0
LINE
8
BLACK
6
CONTINUOUS
10
99.918
20
-86.4979
11
99.6862
21
-86.544
0
LINE
8
BLACK
6
CONTINUOUS
10
99.6862
20
-86.544
11
99.4498
21
-86.544
0
LINE
8
BLACK
6
CONTINUOUS
10
99.4498
20
-86.544
11
99.218
21
-86.4979
0
LINE
8
BLACK
6
CONTINUOUS
10
99.218
20
-86.4979
11
98.9996
21
-86.4074
0
LINE
8
BLACK
6
CONTINUOUS
10
98.9996
20
-86.4074
11
98.803
21
-86.2761
0
LINE
8
BLACK
6
CONTINUOUS
10
98.803
20
-86.2761
11
98.6359
21
-86.109
0
LINE
8
BLACK
6
CONTINUOUS
10
98.6359
20
-86.109
11
98.5046
21
-85.9124
0
LINE
8
BLACK
6
CONTINUOUS
10
98.5046
20
-85.9124
11
98.4141
21
-85.694
0
LINE
8
BLACK
6
CONTINUOUS
10
98.4141
20
-85.694
11
98.368
21
-85.4622
0
LINE
8
BLACK
6
CONTINUOUS
10
98.368
20
-85.4622
11
98.368
21
-85.2258
0
LINE
8
BLACK
6
CONTINUOUS
10
98.368
20
-85.2258
11
98.4141
21
-84.994
0
LINE
8
BLACK
6
CONTINUOUS
10
98.4141
20
-84.994
11
98.5046
21
-84.7756
0
LINE
8
BLACK
6
CONTINUOUS
10
98.5046
20
-84.7756
11
98.6359
21
-84.579
0
LINE
8
BLACK
6
CONTINUOUS
10
98.6359
20
-84.579
11
98.803
21
-84.4119
0
LINE
8
BLACK
6
CONTINUOUS
10
98.803
20
-84.4119
11
98.9996
21
-84.2806
0
LINE
8
BLACK
6
CONTINUOUS
10
98.9996
20
-84.2806
11
99.218
21
-84.1901
0
LINE
8
BLACK
6
CONTINUOUS
10
99.218
20
-84.1901
11
99.4498
21
-84.144
0
LINE
8
BLACK
6
CONTINUOUS
10
99.4498
20
-84.144
11
99.6862
21
-84.144
0
LINE
8
BLACK
6
CONTINUOUS
10
99.6862
20
-84.144
11
99.918
21
-84.1901
0
LINE
8
BLACK
6
CONTINUOUS
10
112.503
20
-84.1614
11
112.729
21
-84.23
0
LINE
8
BLACK
6
CONTINUOUS
10
112.729
20
-84.23
11
112.938
21
-84.3414
0
LINE
8
BLACK
6
CONTINUOUS
10
112.938
20
-84.3414
11
113.121
21
-84.4914
0
LINE
8
BLACK
6
CONTINUOUS
10
113.121
20
-84.4914
11
113.271
21
-84.6741
0
LINE
8
BLACK
6
CONTINUOUS
10
113.271
20
-84.6741
11
113.382
21
-84.8826
0
LINE
8
BLACK
6
CONTINUOUS
10
113.382
20
-84.8826
11
113.451
21
-85.1088
0
LINE
8
BLACK
6
CONTINUOUS
10
113.451
20
-85.1088
11
113.474
21
-85.344
0
LINE
8
BLACK
6
CONTINUOUS
10
113.474
20
-85.344
11
113.451
21
-85.5792
0
LINE
8
BLACK
6
CONTINUOUS
10
113.451
20
-85.5792
11
113.382
21
-85.8054
0
LINE
8
BLACK
6
CONTINUOUS
10
113.382
20
-85.8054
11
113.271
21
-86.0139
0
LINE
8
BLACK
6
CONTINUOUS
10
113.271
20
-86.0139
11
113.121
21
-86.1966
0
LINE
8
BLACK
6
CONTINUOUS
10
113.121
20
-86.1966
11
112.938
21
-86.3466
0
LINE
8
BLACK
6
CONTINUOUS
10
112.938
20
-86.3466
11
112.729
21
-86.458
0
LINE
8
BLACK
6
CONTINUOUS
10
112.729
20
-86.458
11
112.503
21
-86.5266
0
LINE
8
BLACK
6
CONTINUOUS
10
112.503
20
-86.5266
11
112.327
21
-86.544
0
LINE
8
BLACK
6
CONTINUOUS
10
112.327
20
-86.544
11
112.209
21
-86.544
0
LINE
8
BLACK
6
CONTINUOUS
10
112.209
20
-86.544
11
112.033
21
-86.5266
0
LINE
8
BLACK
6
CONTINUOUS
10
112.033
20
-86.5266
11
111.807
21
-86.458
0
LINE
8
BLACK
6
CONTINUOUS
10
111.807
20
-86.458
11
111.598
21
-86.3466
0
LINE
8
BLACK
6
CONTINUOUS
10
111.598
20
-86.3466
11
111.415
21
-86.1966
0
LINE
8
BLACK
6
CONTINUOUS
10
111.415
20
-86.1966
11
111.265
21
-86.0139
0
LINE
8
BLACK
6
CONTINUOUS
10
111.265
20
-86.0139
11
111.154
21
-85.8054
0
LINE
8
BLACK
6
CONTINUOUS
10
111.154
20
-85.8054
11
111.085
21
-85.5792
0
LINE
8
BLACK
6
CONTINUOUS
10
111.085
20
-85.5792
11
111.062
21
-85.344
0
LINE
8
BLACK
6
CONTINUOUS
10
111.062
20
-85.344
11
111.085
21
-85.1088
0
LINE
8
BLACK
6
CONTINUOUS
10
111.085
20
-85.1088
11
111.154
21
-84.8826
0
LINE
8
BLACK
6
CONTINUOUS
10
111.154
20
-84.8826
11
111.265
21
-84.6741
0
LINE
8
BLACK
6
CONTINUOUS
10
111.265
20
-84.6741
11
111.415
21
-84.4914
0
LINE
8
BLACK
6
CONTINUOUS
10
111.415
20
-84.4914
11
111.598
21
-84.3414
0
LINE
8
BLACK
6
CONTINUOUS
10
111.598
20
-84.3414
11
111.807
21
-84.23
0
LINE
8
BLACK
6
CONTINUOUS
10
111.807
20
-84.23
11
112.033
21
-84.1614
0
LINE
8
BLACK
6
CONTINUOUS
10
112.033
20
-84.1614
11
112.209
21
-84.144
0
LINE
8
BLACK
6
CONTINUOUS
10
112.209
20
-84.144
11
112.327
21
-84.144
0
LINE
8
BLACK
6
CONTINUOUS
10
112.327
20
-84.144
11
112.503
21
-84.1614
0
LINE
8
BLACK
6
CONTINUOUS
10
121
20
-83.9361
11
121.218
21
-84.0266
0
LINE
8
BLACK
6
CONTINUOUS
10
121.218
20
-84.0266
11
121.415
21
-84.1579
0
LINE
8
BLACK
6
CONTINUOUS
10
121.415
20
-84.1579
11
121.582
21
-84.325
0
LINE
8
BLACK
6
CONTINUOUS
10
121.582
20
-84.325
11
121.713
21
-84.5216
0
LINE
8
BLACK
6
CONTINUOUS
10
121.713
20
-84.5216
11
121.804
21
-84.74
0
LINE
8
BLACK
6
CONTINUOUS
10
121.804
20
-84.74
11
121.85
21
-84.9718
0
LINE
8
BLACK
6
CONTINUOUS
10
121.85
20
-84.9718
11
121.85
21
-85.2082
0
LINE
8
BLACK
6
CONTINUOUS
10
121.85
20
-85.2082
11
121.804
21
-85.44
0
LINE
8
BLACK
6
CONTINUOUS
10
121.804
20
-85.44
11
121.713
21
-85.6584
0
LINE
8
BLACK
6
CONTINUOUS
10
121.713
20
-85.6584
11
121.582
21
-85.855
0
LINE
8
BLACK
6
CONTINUOUS
10
121.582
20
-85.855
11
121.415
21
-86.0221
0
LINE
8
BLACK
6
CONTINUOUS
10
121.415
20
-86.0221
11
121.218
21
-86.1534
0
LINE
8
BLACK
6
CONTINUOUS
10
121.218
20
-86.1534
11
121
21
-86.2439
0
LINE
8
BLACK
6
CONTINUOUS
10
121
20
-86.2439
11
120.768
21
-86.29
0
LINE
8
BLACK
6
CONTINUOUS
10
120.768
20
-86.29
11
120.532
21
-86.29
0
LINE
8
BLACK
6
CONTINUOUS
10
120.532
20
-86.29
11
120.3
21
-86.2439
0
LINE
8
BLACK
6
CONTINUOUS
10
120.3
20
-86.2439
11
120.082
21
-86.1534
0
LINE
8
BLACK
6
CONTINUOUS
10
120.082
20
-86.1534
11
119.885
21
-86.0221
0
LINE
8
BLACK
6
CONTINUOUS
10
119.885
20
-86.0221
11
119.718
21
-85.855
0
LINE
8
BLACK
6
CONTINUOUS
10
119.718
20
-85.855
11
119.587
21
-85.6584
0
LINE
8
BLACK
6
CONTINUOUS
10
119.587
20
-85.6584
11
119.496
21
-85.44
0
LINE
8
BLACK
6
CONTINUOUS
10
119.496
20
-85.44
11
119.45
21
-85.2082
0
LINE
8
BLACK
6
CONTINUOUS
10
119.45
20
-85.2082
11
119.45
21
-84.9718
0
LINE
8
BLACK
6
CONTINUOUS
10
119.45
20
-84.9718
11
119.496
21
-84.74
0
LINE
8
BLACK
6
CONTINUOUS
10
119.496
20
-84.74
11
119.587
21
-84.5216
0
LINE
8
BLACK
6
CONTINUOUS
10
119.587
20
-84.5216
11
119.718
21
-84.325
0
LINE
8
BLACK
6
CONTINUOUS
10
119.718
20
-84.325
11
119.885
21
-84.1579
0
LINE
8
BLACK
6
CONTINUOUS
10
119.885
20
-84.1579
11
120.082
21
-84.0266
0
LINE
8
BLACK
6
CONTINUOUS
10
120.082
20
-84.0266
11
120.3
21
-83.9361
0
LINE
8
BLACK
6
CONTINUOUS
10
120.3
20
-83.9361
11
120.532
21
-83.89
0
LINE
8
BLACK
6
CONTINUOUS
10
120.532
20
-83.89
11
120.768
21
-83.89
0
LINE
8
BLACK
6
CONTINUOUS
10
120.768
20
-83.89
11
121
21
-83.9361
0
LINE
8
BLACK
6
CONTINUOUS
10
133.585
20
-83.9074
11
133.811
21
-83.976
0
LINE
8
BLACK
6
CONTINUOUS
10
133.811
20
-83.976
11
134.02
21
-84.0874
0
LINE
8
BLACK
6
CONTINUOUS
10
134.02
20
-84.0874
11
134.203
21
-84.2374
0
LINE
8
BLACK
6
CONTINUOUS
10
134.203
20
-84.2374
11
134.353
21
-84.4201
0
LINE
8
BLACK
6
CONTINUOUS
10
134.353
20
-84.4201
11
134.464
21
-84.6286
0
LINE
8
BLACK
6
CONTINUOUS
10
134.464
20
-84.6286
11
134.533
21
-84.8548
0
LINE
8
BLACK
6
CONTINUOUS
10
134.533
20
-84.8548
11
134.556
21
-85.09
0
LINE
8
BLACK
6
CONTINUOUS
10
134.556
20
-85.09
11
134.533
21
-85.3252
0
LINE
8
BLACK
6
CONTINUOUS
10
134.533
20
-85.3252
11
134.464
21
-85.5514
0
LINE
8
BLACK
6
CONTINUOUS
10
134.464
20
-85.5514
11
134.353
21
-85.7599
0
LINE
8
BLACK
6
CONTINUOUS
10
134.353
20
-85.7599
11
134.203
21
-85.9426
0
LINE
8
BLACK
6
CONTINUOUS
10
134.203
20
-85.9426
11
134.02
21
-86.0926
0
LINE
8
BLACK
6
CONTINUOUS
10
134.02
20
-86.0926
11
133.811
21
-86.204
0
LINE
8
BLACK
6
CONTINUOUS
10
133.811
20
-86.204
11
133.585
21
-86.2726
0
LINE
8
BLACK
6
CONTINUOUS
10
133.585
20
-86.2726
11
133.409
21
-86.29
0
LINE
8
BLACK
6
CONTINUOUS
10
133.409
20
-86.29
11
133.291
21
-86.29
0
LINE
8
BLACK
6
CONTINUOUS
10
133.291
20
-86.29
11
133.115
21
-86.2726
0
LINE
8
BLACK
6
CONTINUOUS
10
133.115
20
-86.2726
11
132.889
21
-86.204
0
LINE
8
BLACK
6
CONTINUOUS
10
132.889
20
-86.204
11
132.68
21
-86.0926
0
LINE
8
BLACK
6
CONTINUOUS
10
132.68
20
-86.0926
11
132.497
21
-85.9426
0
LINE
8
BLACK
6
CONTINUOUS
10
132.497
20
-85.9426
11
132.347
21
-85.7599
0
LINE
8
BLACK
6
CONTINUOUS
10
132.347
20
-85.7599
11
132.236
21
-85.5514
0
LINE
8
BLACK
6
CONTINUOUS
10
132.236
20
-85.5514
11
132.167
21
-85.3252
0
LINE
8
BLACK
6
CONTINUOUS
10
132.167
20
-85.3252
11
132.144
21
-85.09
0
LINE
8
BLACK
6
CONTINUOUS
10
132.144
20
-85.09
11
132.167
21
-84.8548
0
LINE
8
BLACK
6
CONTINUOUS
10
132.167
20
-84.8548
11
132.236
21
-84.6286
0
LINE
8
BLACK
6
CONTINUOUS
10
132.236
20
-84.6286
11
132.347
21
-84.4201
0
LINE
8
BLACK
6
CONTINUOUS
10
132.347
20
-84.4201
11
132.497
21
-84.2374
0
LINE
8
BLACK
6
CONTINUOUS
10
132.497
20
-84.2374
11
132.68
21
-84.0874
0
LINE
8
BLACK
6
CONTINUOUS
10
132.68
20
-84.0874
11
132.889
21
-83.976
0
LINE
8
BLACK
6
CONTINUOUS
10
132.889
20
-83.976
11
133.115
21
-83.9074
0
LINE
8
BLACK
6
CONTINUOUS
10
133.115
20
-83.9074
11
133.291
21
-83.89
0
LINE
8
BLACK
6
CONTINUOUS
10
133.291
20
-83.89
11
133.409
21
-83.89
0
LINE
8
BLACK
6
CONTINUOUS
10
133.409
20
-83.89
11
133.585
21
-83.9074
0
LINE
8
BLACK
6
CONTINUOUS
10
117.073
20
-82.5827
11
117.219
21
-82.643
0
LINE
8
BLACK
6
CONTINUOUS
10
117.219
20
-82.643
11
117.35
21
-82.7306
0
LINE
8
BLACK
6
CONTINUOUS
10
117.35
20
-82.7306
11
117.461
21
-82.842
0
LINE
8
BLACK
6
CONTINUOUS
10
117.461
20
-82.842
11
117.549
21
-82.9731
0
LINE
8
BLACK
6
CONTINUOUS
10
117.549
20
-82.9731
11
117.609
21
-83.1186
0
LINE
8
BLACK
6
CONTINUOUS
10
117.609
20
-83.1186
11
117.64
21
-83.2732
0
LINE
8
BLACK
6
CONTINUOUS
10
117.64
20
-83.2732
11
117.64
21
-83.4308
0
LINE
8
BLACK
6
CONTINUOUS
10
117.64
20
-83.4308
11
117.609
21
-83.5854
0
LINE
8
BLACK
6
CONTINUOUS
10
117.609
20
-83.5854
11
117.549
21
-83.7309
0
LINE
8
BLACK
6
CONTINUOUS
10
117.549
20
-83.7309
11
117.461
21
-83.862
0
LINE
8
BLACK
6
CONTINUOUS
10
117.461
20
-83.862
11
117.35
21
-83.9734
0
LINE
8
BLACK
6
CONTINUOUS
10
117.35
20
-83.9734
11
117.219
21
-84.061
0
LINE
8
BLACK
6
CONTINUOUS
10
117.219
20
-84.061
11
117.073
21
-84.1213
0
LINE
8
BLACK
6
CONTINUOUS
10
117.073
20
-84.1213
11
116.919
21
-84.152
0
LINE
8
BLACK
6
CONTINUOUS
10
116.919
20
-84.152
11
116.761
21
-84.152
0
LINE
8
BLACK
6
CONTINUOUS
10
116.761
20
-84.152
11
116.607
21
-84.1213
0
LINE
8
BLACK
6
CONTINUOUS
10
116.607
20
-84.1213
11
116.461
21
-84.061
0
LINE
8
BLACK
6
CONTINUOUS
10
116.461
20
-84.061
11
116.33
21
-83.9734
0
LINE
8
BLACK
6
CONTINUOUS
10
116.33
20
-83.9734
11
116.219
21
-83.862
0
LINE
8
BLACK
6
CONTINUOUS
10
116.219
20
-83.862
11
116.131
21
-83.7309
0
LINE
8
BLACK
6
CONTINUOUS
10
116.131
20
-83.7309
11
116.071
21
-83.5854
0
LINE
8
BLACK
6
CONTINUOUS
10
116.071
20
-83.5854
11
116.04
21
-83.4308
0
LINE
8
BLACK
6
CONTINUOUS
10
116.04
20
-83.4308
11
116.04
21
-83.2732
0
LINE
8
BLACK
6
CONTINUOUS
10
116.04
20
-83.2732
11
116.071
21
-83.1186
0
LINE
8
BLACK
6
CONTINUOUS
10
116.071
20
-83.1186
11
116.131
21
-82.9731
0
LINE
8
BLACK
6
CONTINUOUS
10
116.131
20
-82.9731
11
116.219
21
-82.842
0
LINE
8
BLACK
6
CONTINUOUS
10
116.219
20
-82.842
11
116.33
21
-82.7306
0
LINE
8
BLACK
6
CONTINUOUS
10
116.33
20
-82.7306
11
116.461
21
-82.643
0
LINE
8
BLACK
6
CONTINUOUS
10
116.461
20
-82.643
11
116.607
21
-82.5827
0
LINE
8
BLACK
6
CONTINUOUS
10
116.607
20
-82.5827
11
116.761
21
-82.552
0
LINE
8
BLACK
6
CONTINUOUS
10
116.761
20
-82.552
11
116.919
21
-82.552
0
LINE
8
BLACK
6
CONTINUOUS
10
116.919
20
-82.552
11
117.073
21
-82.5827
0
LINE
8
BLACK
6
CONTINUOUS
10
150.098
20
-83.1875
11
148.098
21
-83.1875
0
LINE
8
BLACK
6
CONTINUOUS
10
148.098
20
-83.1875
11
148.098
21
-81.9125
0
LINE
8
BLACK
6
CONTINUOUS
10
148.098
20
-81.9125
11
150.098
21
-81.9125
0
LINE
8
BLACK
6
CONTINUOUS
10
150.098
20
-81.9125
11
150.098
21
-83.1875
0
LINE
8
BLACK
6
CONTINUOUS
10
156.956
20
-82.842
11
154.956
21
-82.842
0
LINE
8
BLACK
6
CONTINUOUS
10
154.956
20
-82.842
11
154.956
21
-81.242
0
LINE
8
BLACK
6
CONTINUOUS
10
154.956
20
-81.242
11
156.956
21
-81.242
0
LINE
8
BLACK
6
CONTINUOUS
10
156.956
20
-81.242
11
156.956
21
-82.842
0
LINE
8
BLACK
6
CONTINUOUS
10
168.124
20
-82.78
11
165.124
21
-82.78
0
LINE
8
BLACK
6
CONTINUOUS
10
165.124
20
-82.78
11
165.124
21
-79.78
0
LINE
8
BLACK
6
CONTINUOUS
10
165.124
20
-79.78
11
168.124
21
-79.78
0
LINE
8
BLACK
6
CONTINUOUS
10
168.124
20
-79.78
11
168.124
21
-82.78
0
LINE
8
BLACK
6
CONTINUOUS
10
149.585
20
-80.2217
11
149.706
21
-80.2582
0
LINE
8
BLACK
6
CONTINUOUS
10
149.706
20
-80.2582
11
149.816
21
-80.3174
0
LINE
8
BLACK
6
CONTINUOUS
10
149.816
20
-80.3174
11
149.913
21
-80.397
0
LINE
8
BLACK
6
CONTINUOUS
10
149.913
20
-80.397
11
149.993
21
-80.4941
0
LINE
8
BLACK
6
CONTINUOUS
10
149.993
20
-80.4941
11
150.052
21
-80.6049
0
LINE
8
BLACK
6
CONTINUOUS
10
150.052
20
-80.6049
11
150.089
21
-80.725
0
LINE
8
BLACK
6
CONTINUOUS
10
150.089
20
-80.725
11
150.101
21
-80.85
0
LINE
8
BLACK
6
CONTINUOUS
10
150.101
20
-80.85
11
150.089
21
-80.975
0
LINE
8
BLACK
6
CONTINUOUS
10
150.089
20
-80.975
11
150.052
21
-81.0951
0
LINE
8
BLACK
6
CONTINUOUS
10
150.052
20
-81.0951
11
149.993
21
-81.2059
0
LINE
8
BLACK
6
CONTINUOUS
10
149.993
20
-81.2059
11
149.913
21
-81.303
0
LINE
8
BLACK
6
CONTINUOUS
10
149.913
20
-81.303
11
149.816
21
-81.3826
0
LINE
8
BLACK
6
CONTINUOUS
10
149.816
20
-81.3826
11
149.706
21
-81.4418
0
LINE
8
BLACK
6
CONTINUOUS
10
149.706
20
-81.4418
11
149.585
21
-81.4783
0
LINE
8
BLACK
6
CONTINUOUS
10
149.585
20
-81.4783
11
149.492
21
-81.4875
0
LINE
8
BLACK
6
CONTINUOUS
10
149.492
20
-81.4875
11
148.704
21
-81.4875
0
LINE
8
BLACK
6
CONTINUOUS
10
148.704
20
-81.4875
11
148.611
21
-81.4783
0
LINE
8
BLACK
6
CONTINUOUS
10
148.611
20
-81.4783
11
148.49
21
-81.4418
0
LINE
8
BLACK
6
CONTINUOUS
10
148.49
20
-81.4418
11
148.38
21
-81.3826
0
LINE
8
BLACK
6
CONTINUOUS
10
148.38
20
-81.3826
11
148.283
21
-81.303
0
LINE
8
BLACK
6
CONTINUOUS
10
148.283
20
-81.303
11
148.203
21
-81.2059
0
LINE
8
BLACK
6
CONTINUOUS
10
148.203
20
-81.2059
11
148.144
21
-81.0951
0
LINE
8
BLACK
6
CONTINUOUS
10
148.144
20
-81.0951
11
148.107
21
-80.975
0
LINE
8
BLACK
6
CONTINUOUS
10
148.107
20
-80.975
11
148.095
21
-80.85
0
LINE
8
BLACK
6
CONTINUOUS
10
148.095
20
-80.85
11
148.107
21
-80.725
0
LINE
8
BLACK
6
CONTINUOUS
10
148.107
20
-80.725
11
148.144
21
-80.6049
0
LINE
8
BLACK
6
CONTINUOUS
10
148.144
20
-80.6049
11
148.203
21
-80.4941
0
LINE
8
BLACK
6
CONTINUOUS
10
148.203
20
-80.4941
11
148.283
21
-80.397
0
LINE
8
BLACK
6
CONTINUOUS
10
148.283
20
-80.397
11
148.38
21
-80.3174
0
LINE
8
BLACK
6
CONTINUOUS
10
148.38
20
-80.3174
11
148.49
21
-80.2582
0
LINE
8
BLACK
6
CONTINUOUS
10
148.49
20
-80.2582
11
148.611
21
-80.2217
0
LINE
8
BLACK
6
CONTINUOUS
10
148.611
20
-80.2217
11
148.704
21
-80.2125
0
LINE
8
BLACK
6
CONTINUOUS
10
148.704
20
-80.2125
11
149.492
21
-80.2125
0
LINE
8
BLACK
6
CONTINUOUS
10
149.492
20
-80.2125
11
149.585
21
-80.2217
0
LINE
8
BLACK
6
CONTINUOUS
10
99.8032
20
-78.8274
11
100.029
21
-78.896
0
LINE
8
BLACK
6
CONTINUOUS
10
100.029
20
-78.896
11
100.238
21
-79.0074
0
LINE
8
BLACK
6
CONTINUOUS
10
100.238
20
-79.0074
11
100.421
21
-79.1574
0
LINE
8
BLACK
6
CONTINUOUS
10
100.421
20
-79.1574
11
100.571
21
-79.3401
0
LINE
8
BLACK
6
CONTINUOUS
10
100.571
20
-79.3401
11
100.682
21
-79.5486
0
LINE
8
BLACK
6
CONTINUOUS
10
100.682
20
-79.5486
11
100.751
21
-79.7748
0
LINE
8
BLACK
6
CONTINUOUS
10
100.751
20
-79.7748
11
100.774
21
-80.01
0
LINE
8
BLACK
6
CONTINUOUS
10
100.774
20
-80.01
11
100.751
21
-80.2452
0
LINE
8
BLACK
6
CONTINUOUS
10
100.751
20
-80.2452
11
100.682
21
-80.4714
0
LINE
8
BLACK
6
CONTINUOUS
10
100.682
20
-80.4714
11
100.571
21
-80.6799
0
LINE
8
BLACK
6
CONTINUOUS
10
100.571
20
-80.6799
11
100.421
21
-80.8626
0
LINE
8
BLACK
6
CONTINUOUS
10
100.421
20
-80.8626
11
100.238
21
-81.0126
0
LINE
8
BLACK
6
CONTINUOUS
10
100.238
20
-81.0126
11
100.029
21
-81.124
0
LINE
8
BLACK
6
CONTINUOUS
10
100.029
20
-81.124
11
99.8032
21
-81.1926
0
LINE
8
BLACK
6
CONTINUOUS
10
99.8032
20
-81.1926
11
99.6269
21
-81.21
0
LINE
8
BLACK
6
CONTINUOUS
10
99.6269
20
-81.21
11
99.5091
21
-81.21
0
LINE
8
BLACK
6
CONTINUOUS
10
99.5091
20
-81.21
11
99.3328
21
-81.1926
0
LINE
8
BLACK
6
CONTINUOUS
10
99.3328
20
-81.1926
11
99.1066
21
-81.124
0
LINE
8
BLACK
6
CONTINUOUS
10
99.1066
20
-81.124
11
98.8981
21
-81.0126
0
LINE
8
BLACK
6
CONTINUOUS
10
98.8981
20
-81.0126
11
98.7154
21
-80.8626
0
LINE
8
BLACK
6
CONTINUOUS
10
98.7154
20
-80.8626
11
98.5654
21
-80.6799
0
LINE
8
BLACK
6
CONTINUOUS
10
98.5654
20
-80.6799
11
98.454
21
-80.4714
0
LINE
8
BLACK
6
CONTINUOUS
10
98.454
20
-80.4714
11
98.3854
21
-80.2452
0
LINE
8
BLACK
6
CONTINUOUS
10
98.3854
20
-80.2452
11
98.3622
21
-80.01
0
LINE
8
BLACK
6
CONTINUOUS
10
98.3622
20
-80.01
11
98.3854
21
-79.7748
0
LINE
8
BLACK
6
CONTINUOUS
10
98.3854
20
-79.7748
11
98.454
21
-79.5486
0
LINE
8
BLACK
6
CONTINUOUS
10
98.454
20
-79.5486
11
98.5654
21
-79.3401
0
LINE
8
BLACK
6
CONTINUOUS
10
98.5654
20
-79.3401
11
98.7154
21
-79.1574
0
LINE
8
BLACK
6
CONTINUOUS
10
98.7154
20
-79.1574
11
98.8981
21
-79.0074
0
LINE
8
BLACK
6
CONTINUOUS
10
98.8981
20
-79.0074
11
99.1066
21
-78.896
0
LINE
8
BLACK
6
CONTINUOUS
10
99.1066
20
-78.896
11
99.3328
21
-78.8274
0
LINE
8
BLACK
6
CONTINUOUS
10
99.3328
20
-78.8274
11
99.5091
21
-78.81
0
LINE
8
BLACK
6
CONTINUOUS
10
99.5091
20
-78.81
11
99.6269
21
-78.81
0
LINE
8
BLACK
6
CONTINUOUS
10
99.6269
20
-78.81
11
99.8032
21
-78.8274
0
LINE
8
BLACK
6
CONTINUOUS
10
112.618
20
-78.8561
11
112.836
21
-78.9466
0
LINE
8
BLACK
6
CONTINUOUS
10
112.836
20
-78.9466
11
113.033
21
-79.0779
0
LINE
8
BLACK
6
CONTINUOUS
10
113.033
20
-79.0779
11
113.2
21
-79.245
0
LINE
8
BLACK
6
CONTINUOUS
10
113.2
20
-79.245
11
113.331
21
-79.4416
0
LINE
8
BLACK
6
CONTINUOUS
10
113.331
20
-79.4416
11
113.422
21
-79.66
0
LINE
8
BLACK
6
CONTINUOUS
10
113.422
20
-79.66
11
113.468
21
-79.8918
0
LINE
8
BLACK
6
CONTINUOUS
10
113.468
20
-79.8918
11
113.468
21
-80.1282
0
LINE
8
BLACK
6
CONTINUOUS
10
113.468
20
-80.1282
11
113.422
21
-80.36
0
LINE
8
BLACK
6
CONTINUOUS
10
113.422
20
-80.36
11
113.331
21
-80.5784
0
LINE
8
BLACK
6
CONTINUOUS
10
113.331
20
-80.5784
11
113.2
21
-80.775
0
LINE
8
BLACK
6
CONTINUOUS
10
113.2
20
-80.775
11
113.033
21
-80.9421
0
LINE
8
BLACK
6
CONTINUOUS
10
113.033
20
-80.9421
11
112.836
21
-81.0734
0
LINE
8
BLACK
6
CONTINUOUS
10
112.836
20
-81.0734
11
112.618
21
-81.1639
0
LINE
8
BLACK
6
CONTINUOUS
10
112.618
20
-81.1639
11
112.386
21
-81.21
0
LINE
8
BLACK
6
CONTINUOUS
10
112.386
20
-81.21
11
112.15
21
-81.21
0
LINE
8
BLACK
6
CONTINUOUS
10
112.15
20
-81.21
11
111.918
21
-81.1639
0
LINE
8
BLACK
6
CONTINUOUS
10
111.918
20
-81.1639
11
111.7
21
-81.0734
0
LINE
8
BLACK
6
CONTINUOUS
10
111.7
20
-81.0734
11
111.503
21
-80.9421
0
LINE
8
BLACK
6
CONTINUOUS
10
111.503
20
-80.9421
11
111.336
21
-80.775
0
LINE
8
BLACK
6
CONTINUOUS
10
111.336
20
-80.775
11
111.205
21
-80.5784
0
LINE
8
BLACK
6
CONTINUOUS
10
111.205
20
-80.5784
11
111.114
21
-80.36
0
LINE
8
BLACK
6
CONTINUOUS
10
111.114
20
-80.36
11
111.068
21
-80.1282
0
LINE
8
BLACK
6
CONTINUOUS
10
111.068
20
-80.1282
11
111.068
21
-79.8918
0
LINE
8
BLACK
6
CONTINUOUS
10
111.068
20
-79.8918
11
111.114
21
-79.66
0
LINE
8
BLACK
6
CONTINUOUS
10
111.114
20
-79.66
11
111.205
21
-79.4416
0
LINE
8
BLACK
6
CONTINUOUS
10
111.205
20
-79.4416
11
111.336
21
-79.245
0
LINE
8
BLACK
6
CONTINUOUS
10
111.336
20
-79.245
11
111.503
21
-79.0779
0
LINE
8
BLACK
6
CONTINUOUS
10
111.503
20
-79.0779
11
111.7
21
-78.9466
0
LINE
8
BLACK
6
CONTINUOUS
10
111.7
20
-78.9466
11
111.918
21
-78.8561
0
LINE
8
BLACK
6
CONTINUOUS
10
111.918
20
-78.8561
11
112.15
21
-78.81
0
LINE
8
BLACK
6
CONTINUOUS
10
112.15
20
-78.81
11
112.386
21
-78.81
0
LINE
8
BLACK
6
CONTINUOUS
10
112.386
20
-78.81
11
112.618
21
-78.8561
0
LINE
8
BLACK
6
CONTINUOUS
10
120.377
20
-78.8274
11
120.603
21
-78.896
0
LINE
8
BLACK
6
CONTINUOUS
10
120.603
20
-78.896
11
120.812
21
-79.0074
0
LINE
8
BLACK
6
CONTINUOUS
10
120.812
20
-79.0074
11
120.995
21
-79.1574
0
LINE
8
BLACK
6
CONTINUOUS
10
120.995
20
-79.1574
11
121.145
21
-79.3401
0
LINE
8
BLACK
6
CONTINUOUS
10
121.145
20
-79.3401
11
121.256
21
-79.5486
0
LINE
8
BLACK
6
CONTINUOUS
10
121.256
20
-79.5486
11
121.325
21
-79.7748
0
LINE
8
BLACK
6
CONTINUOUS
10
121.325
20
-79.7748
11
121.348
21
-80.01
0
LINE
8
BLACK
6
CONTINUOUS
10
121.348
20
-80.01
11
121.325
21
-80.2452
0
LINE
8
BLACK
6
CONTINUOUS
10
121.325
20
-80.2452
11
121.256
21
-80.4714
0
LINE
8
BLACK
6
CONTINUOUS
10
121.256
20
-80.4714
11
121.145
21
-80.6799
0
LINE
8
BLACK
6
CONTINUOUS
10
121.145
20
-80.6799
11
120.995
21
-80.8626
0
LINE
8
BLACK
6
CONTINUOUS
10
120.995
20
-80.8626
11
120.812
21
-81.0126
0
LINE
8
BLACK
6
CONTINUOUS
10
120.812
20
-81.0126
11
120.603
21
-81.124
0
LINE
8
BLACK
6
CONTINUOUS
10
120.603
20
-81.124
11
120.377
21
-81.1926
0
LINE
8
BLACK
6
CONTINUOUS
10
120.377
20
-81.1926
11
120.201
21
-81.21
0
LINE
8
BLACK
6
CONTINUOUS
10
120.201
20
-81.21
11
120.083
21
-81.21
0
LINE
8
BLACK
6
CONTINUOUS
10
120.083
20
-81.21
11
119.907
21
-81.1926
0
LINE
8
BLACK
6
CONTINUOUS
10
119.907
20
-81.1926
11
119.681
21
-81.124
0
LINE
8
BLACK
6
CONTINUOUS
10
119.681
20
-81.124
11
119.472
21
-81.0126
0
LINE
8
BLACK
6
CONTINUOUS
10
119.472
20
-81.0126
11
119.289
21
-80.8626
0
LINE
8
BLACK
6
CONTINUOUS
10
119.289
20
-80.8626
11
119.139
21
-80.6799
0
LINE
8
BLACK
6
CONTINUOUS
10
119.139
20
-80.6799
11
119.028
21
-80.4714
0
LINE
8
BLACK
6
CONTINUOUS
10
119.028
20
-80.4714
11
118.959
21
-80.2452
0
LINE
8
BLACK
6
CONTINUOUS
10
118.959
20
-80.2452
11
118.936
21
-80.01
0
LINE
8
BLACK
6
CONTINUOUS
10
118.936
20
-80.01
11
118.959
21
-79.7748
0
LINE
8
BLACK
6
CONTINUOUS
10
118.959
20
-79.7748
11
119.028
21
-79.5486
0
LINE
8
BLACK
6
CONTINUOUS
10
119.028
20
-79.5486
11
119.139
21
-79.3401
0
LINE
8
BLACK
6
CONTINUOUS
10
119.139
20
-79.3401
11
119.289
21
-79.1574
0
LINE
8
BLACK
6
CONTINUOUS
10
119.289
20
-79.1574
11
119.472
21
-79.0074
0
LINE
8
BLACK
6
CONTINUOUS
10
119.472
20
-79.0074
11
119.681
21
-78.896
0
LINE
8
BLACK
6
CONTINUOUS
10
119.681
20
-78.896
11
119.907
21
-78.8274
0
LINE
8
BLACK
6
CONTINUOUS
10
119.907
20
-78.8274
11
120.083
21
-78.81
0
LINE
8
BLACK
6
CONTINUOUS
10
120.083
20
-78.81
11
120.201
21
-78.81
0
LINE
8
BLACK
6
CONTINUOUS
10
120.201
20
-78.81
11
120.377
21
-78.8274
0
LINE
8
BLACK
6
CONTINUOUS
10
133.192
20
-78.8561
11
133.41
21
-78.9466
0
LINE
8
BLACK
6
CONTINUOUS
10
133.41
20
-78.9466
11
133.607
21
-79.0779
0
LINE
8
BLACK
6
CONTINUOUS
10
133.607
20
-79.0779
11
133.774
21
-79.245
0
LINE
8
BLACK
6
CONTINUOUS
10
133.774
20
-79.245
11
133.905
21
-79.4416
0
LINE
8
BLACK
6
CONTINUOUS
10
133.905
20
-79.4416
11
133.996
21
-79.66
0
LINE
8
BLACK
6
CONTINUOUS
10
133.996
20
-79.66
11
134.042
21
-79.8918
0
LINE
8
BLACK
6
CONTINUOUS
10
134.042
20
-79.8918
11
134.042
21
-80.1282
0
LINE
8
BLACK
6
CONTINUOUS
10
134.042
20
-80.1282
11
133.996
21
-80.36
0
LINE
8
BLACK
6
CONTINUOUS
10
133.996
20
-80.36
11
133.905
21
-80.5784
0
LINE
8
BLACK
6
CONTINUOUS
10
133.905
20
-80.5784
11
133.774
21
-80.775
0
LINE
8
BLACK
6
CONTINUOUS
10
133.774
20
-80.775
11
133.607
21
-80.9421
0
LINE
8
BLACK
6
CONTINUOUS
10
133.607
20
-80.9421
11
133.41
21
-81.0734
0
LINE
8
BLACK
6
CONTINUOUS
10
133.41
20
-81.0734
11
133.192
21
-81.1639
0
LINE
8
BLACK
6
CONTINUOUS
10
133.192
20
-81.1639
11
132.96
21
-81.21
0
LINE
8
BLACK
6
CONTINUOUS
10
132.96
20
-81.21
11
132.724
21
-81.21
0
LINE
8
BLACK
6
CONTINUOUS
10
132.724
20
-81.21
11
132.492
21
-81.1639
0
LINE
8
BLACK
6
CONTINUOUS
10
132.492
20
-81.1639
11
132.274
21
-81.0734
0
LINE
8
BLACK
6
CONTINUOUS
10
132.274
20
-81.0734
11
132.077
21
-80.9421
0
LINE
8
BLACK
6
CONTINUOUS
10
132.077
20
-80.9421
11
131.91
21
-80.775
0
LINE
8
BLACK
6
CONTINUOUS
10
131.91
20
-80.775
11
131.779
21
-80.5784
0
LINE
8
BLACK
6
CONTINUOUS
10
131.779
20
-80.5784
11
131.688
21
-80.36
0
LINE
8
BLACK
6
CONTINUOUS
10
131.688
20
-80.36
11
131.642
21
-80.1282
0
LINE
8
BLACK
6
CONTINUOUS
10
131.642
20
-80.1282
11
131.642
21
-79.8918
0
LINE
8
BLACK
6
CONTINUOUS
10
131.642
20
-79.8918
11
131.688
21
-79.66
0
LINE
8
BLACK
6
CONTINUOUS
10
131.688
20
-79.66
11
131.779
21
-79.4416
0
LINE
8
BLACK
6
CONTINUOUS
10
131.779
20
-79.4416
11
131.91
21
-79.245
0
LINE
8
BLACK
6
CONTINUOUS
10
131.91
20
-79.245
11
132.077
21
-79.0779
0
LINE
8
BLACK
6
CONTINUOUS
10
132.077
20
-79.0779
11
132.274
21
-78.9466
0
LINE
8
BLACK
6
CONTINUOUS
10
132.274
20
-78.9466
11
132.492
21
-78.8561
0
LINE
8
BLACK
6
CONTINUOUS
10
132.492
20
-78.8561
11
132.724
21
-78.81
0
LINE
8
BLACK
6
CONTINUOUS
10
132.724
20
-78.81
11
132.96
21
-78.81
0
LINE
8
BLACK
6
CONTINUOUS
10
132.96
20
-78.81
11
133.192
21
-78.8561
0
LINE
8
BLACK
6
CONTINUOUS
10
156.956
20
-80.302
11
154.956
21
-80.302
0
LINE
8
BLACK
6
CONTINUOUS
10
154.956
20
-80.302
11
154.956
21
-78.702
0
LINE
8
BLACK
6
CONTINUOUS
10
154.956
20
-78.702
11
156.956
21
-78.702
0
LINE
8
BLACK
6
CONTINUOUS
10
156.956
20
-78.702
11
156.956
21
-80.302
0
LINE
8
BLACK
6
CONTINUOUS
10
93.6555
20
-77.2976
11
93.9285
21
-77.4107
0
LINE
8
BLACK
6
CONTINUOUS
10
93.9285
20
-77.4107
11
94.1742
21
-77.5749
0
LINE
8
BLACK
6
CONTINUOUS
10
94.1742
20
-77.5749
11
94.3831
21
-77.7838
0
LINE
8
BLACK
6
CONTINUOUS
10
94.3831
20
-77.7838
11
94.5473
21
-78.0295
0
LINE
8
BLACK
6
CONTINUOUS
10
94.5473
20
-78.0295
11
94.6604
21
-78.3025
0
LINE
8
BLACK
6
CONTINUOUS
10
94.6604
20
-78.3025
11
94.718
21
-78.5923
0
LINE
8
BLACK
6
CONTINUOUS
10
94.718
20
-78.5923
11
94.718
21
-78.8877
0
LINE
8
BLACK
6
CONTINUOUS
10
94.718
20
-78.8877
11
94.6604
21
-79.1775
0
LINE
8
BLACK
6
CONTINUOUS
10
94.6604
20
-79.1775
11
94.5473
21
-79.4505
0
LINE
8
BLACK
6
CONTINUOUS
10
94.5473
20
-79.4505
11
94.3831
21
-79.6962
0
LINE
8
BLACK
6
CONTINUOUS
10
94.3831
20
-79.6962
11
94.1742
21
-79.9051
0
LINE
8
BLACK
6
CONTINUOUS
10
94.1742
20
-79.9051
11
93.9285
21
-80.0693
0
LINE
8
BLACK
6
CONTINUOUS
10
93.9285
20
-80.0693
11
93.6555
21
-80.1824
0
LINE
8
BLACK
6
CONTINUOUS
10
93.6555
20
-80.1824
11
93.3657
21
-80.24
0
LINE
8
BLACK
6
CONTINUOUS
10
93.3657
20
-80.24
11
93.0703
21
-80.24
0
LINE
8
BLACK
6
CONTINUOUS
10
93.0703
20
-80.24
11
92.7805
21
-80.1824
0
LINE
8
BLACK
6
CONTINUOUS
10
92.7805
20
-80.1824
11
92.5075
21
-80.0693
0
LINE
8
BLACK
6
CONTINUOUS
10
92.5075
20
-80.0693
11
92.2618
21
-79.9051
0
LINE
8
BLACK
6
CONTINUOUS
10
92.2618
20
-79.9051
11
92.0529
21
-79.6962
0
LINE
8
BLACK
6
CONTINUOUS
10
92.0529
20
-79.6962
11
91.8887
21
-79.4505
0
LINE
8
BLACK
6
CONTINUOUS
10
91.8887
20
-79.4505
11
91.7756
21
-79.1775
0
LINE
8
BLACK
6
CONTINUOUS
10
91.7756
20
-79.1775
11
91.718
21
-78.8877
0
LINE
8
BLACK
6
CONTINUOUS
10
91.718
20
-78.8877
11
91.718
21
-78.5923
0
LINE
8
BLACK
6
CONTINUOUS
10
91.718
20
-78.5923
11
91.7756
21
-78.3025
0
LINE
8
BLACK
6
CONTINUOUS
10
91.7756
20
-78.3025
11
91.8887
21
-78.0295
0
LINE
8
BLACK
6
CONTINUOUS
10
91.8887
20
-78.0295
11
92.0529
21
-77.7838
0
LINE
8
BLACK
6
CONTINUOUS
10
92.0529
20
-77.7838
11
92.2618
21
-77.5749
0
LINE
8
BLACK
6
CONTINUOUS
10
92.2618
20
-77.5749
11
92.5075
21
-77.4107
0
LINE
8
BLACK
6
CONTINUOUS
10
92.5075
20
-77.4107
11
92.7805
21
-77.2976
0
LINE
8
BLACK
6
CONTINUOUS
10
92.7805
20
-77.2976
11
93.0703
21
-77.24
0
LINE
8
BLACK
6
CONTINUOUS
10
93.0703
20
-77.24
11
93.3657
21
-77.24
0
LINE
8
BLACK
6
CONTINUOUS
10
93.3657
20
-77.24
11
93.6555
21
-77.2976
0
LINE
8
BLACK
6
CONTINUOUS
10
137.256
20
-77.5861
11
137.474
21
-77.6766
0
LINE
8
BLACK
6
CONTINUOUS
10
137.474
20
-77.6766
11
137.671
21
-77.8079
0
LINE
8
BLACK
6
CONTINUOUS
10
137.671
20
-77.8079
11
137.838
21
-77.975
0
LINE
8
BLACK
6
CONTINUOUS
10
137.838
20
-77.975
11
137.969
21
-78.1716
0
LINE
8
BLACK
6
CONTINUOUS
10
137.969
20
-78.1716
11
138.06
21
-78.39
0
LINE
8
BLACK
6
CONTINUOUS
10
138.06
20
-78.39
11
138.106
21
-78.6218
0
LINE
8
BLACK
6
CONTINUOUS
10
138.106
20
-78.6218
11
138.106
21
-78.8582
0
LINE
8
BLACK
6
CONTINUOUS
10
138.106
20
-78.8582
11
138.06
21
-79.09
0
LINE
8
BLACK
6
CONTINUOUS
10
138.06
20
-79.09
11
137.969
21
-79.3084
0
LINE
8
BLACK
6
CONTINUOUS
10
137.969
20
-79.3084
11
137.838
21
-79.505
0
LINE
8
BLACK
6
CONTINUOUS
10
137.838
20
-79.505
11
137.671
21
-79.6721
0
LINE
8
BLACK
6
CONTINUOUS
10
137.671
20
-79.6721
11
137.474
21
-79.8034
0
LINE
8
BLACK
6
CONTINUOUS
10
137.474
20
-79.8034
11
137.256
21
-79.8939
0
LINE
8
BLACK
6
CONTINUOUS
10
137.256
20
-79.8939
11
137.024
21
-79.94
0
LINE
8
BLACK
6
CONTINUOUS
10
137.024
20
-79.94
11
136.788
21
-79.94
0
LINE
8
BLACK
6
CONTINUOUS
10
136.788
20
-79.94
11
136.556
21
-79.8939
0
LINE
8
BLACK
6
CONTINUOUS
10
136.556
20
-79.8939
11
136.338
21
-79.8034
0
LINE
8
BLACK
6
CONTINUOUS
10
136.338
20
-79.8034
11
136.141
21
-79.6721
0
LINE
8
BLACK
6
CONTINUOUS
10
136.141
20
-79.6721
11
135.974
21
-79.505
0
LINE
8
BLACK
6
CONTINUOUS
10
135.974
20
-79.505
11
135.843
21
-79.3084
0
LINE
8
BLACK
6
CONTINUOUS
10
135.843
20
-79.3084
11
135.752
21
-79.09
0
LINE
8
BLACK
6
CONTINUOUS
10
135.752
20
-79.09
11
135.706
21
-78.8582
0
LINE
8
BLACK
6
CONTINUOUS
10
135.706
20
-78.8582
11
135.706
21
-78.6218
0
LINE
8
BLACK
6
CONTINUOUS
10
135.706
20
-78.6218
11
135.752
21
-78.39
0
LINE
8
BLACK
6
CONTINUOUS
10
135.752
20
-78.39
11
135.843
21
-78.1716
0
LINE
8
BLACK
6
CONTINUOUS
10
135.843
20
-78.1716
11
135.974
21
-77.975
0
LINE
8
BLACK
6
CONTINUOUS
10
135.974
20
-77.975
11
136.141
21
-77.8079
0
LINE
8
BLACK
6
CONTINUOUS
10
136.141
20
-77.8079
11
136.338
21
-77.6766
0
LINE
8
BLACK
6
CONTINUOUS
10
136.338
20
-77.6766
11
136.556
21
-77.5861
0
LINE
8
BLACK
6
CONTINUOUS
10
136.556
20
-77.5861
11
136.788
21
-77.54
0
LINE
8
BLACK
6
CONTINUOUS
10
136.788
20
-77.54
11
137.024
21
-77.54
0
LINE
8
BLACK
6
CONTINUOUS
10
137.024
20
-77.54
11
137.256
21
-77.5861
0
LINE
8
BLACK
6
CONTINUOUS
10
149.585
20
-78.5217
11
149.706
21
-78.5582
0
LINE
8
BLACK
6
CONTINUOUS
10
149.706
20
-78.5582
11
149.816
21
-78.6174
0
LINE
8
BLACK
6
CONTINUOUS
10
149.816
20
-78.6174
11
149.913
21
-78.697
0
LINE
8
BLACK
6
CONTINUOUS
10
149.913
20
-78.697
11
149.993
21
-78.7941
0
LINE
8
BLACK
6
CONTINUOUS
10
149.993
20
-78.7941
11
150.052
21
-78.9049
0
LINE
8
BLACK
6
CONTINUOUS
10
150.052
20
-78.9049
11
150.089
21
-79.025
0
LINE
8
BLACK
6
CONTINUOUS
10
150.089
20
-79.025
11
150.101
21
-79.15
0
LINE
8
BLACK
6
CONTINUOUS
10
150.101
20
-79.15
11
150.089
21
-79.275
0
LINE
8
BLACK
6
CONTINUOUS
10
150.089
20
-79.275
11
150.052
21
-79.3951
0
LINE
8
BLACK
6
CONTINUOUS
10
150.052
20
-79.3951
11
149.993
21
-79.5059
0
LINE
8
BLACK
6
CONTINUOUS
10
149.993
20
-79.5059
11
149.913
21
-79.603
0
LINE
8
BLACK
6
CONTINUOUS
10
149.913
20
-79.603
11
149.816
21
-79.6826
0
LINE
8
BLACK
6
CONTINUOUS
10
149.816
20
-79.6826
11
149.706
21
-79.7418
0
LINE
8
BLACK
6
CONTINUOUS
10
149.706
20
-79.7418
11
149.585
21
-79.7783
0
LINE
8
BLACK
6
CONTINUOUS
10
149.585
20
-79.7783
11
149.492
21
-79.7875
0
LINE
8
BLACK
6
CONTINUOUS
10
149.492
20
-79.7875
11
148.704
21
-79.7875
0
LINE
8
BLACK
6
CONTINUOUS
10
148.704
20
-79.7875
11
148.611
21
-79.7783
0
LINE
8
BLACK
6
CONTINUOUS
10
148.611
20
-79.7783
11
148.49
21
-79.7418
0
LINE
8
BLACK
6
CONTINUOUS
10
148.49
20
-79.7418
11
148.38
21
-79.6826
0
LINE
8
BLACK
6
CONTINUOUS
10
148.38
20
-79.6826
11
148.283
21
-79.603
0
LINE
8
BLACK
6
CONTINUOUS
10
148.283
20
-79.603
11
148.203
21
-79.5059
0
LINE
8
BLACK
6
CONTINUOUS
10
148.203
20
-79.5059
11
148.144
21
-79.3951
0
LINE
8
BLACK
6
CONTINUOUS
10
148.144
20
-79.3951
11
148.107
21
-79.275
0
LINE
8
BLACK
6
CONTINUOUS
10
148.107
20
-79.275
11
148.095
21
-79.15
0
LINE
8
BLACK
6
CONTINUOUS
10
148.095
20
-79.15
11
148.107
21
-79.025
0
LINE
8
BLACK
6
CONTINUOUS
10
148.107
20
-79.025
11
148.144
21
-78.9049
0
LINE
8
BLACK
6
CONTINUOUS
10
148.144
20
-78.9049
11
148.203
21
-78.7941
0
LINE
8
BLACK
6
CONTINUOUS
10
148.203
20
-78.7941
11
148.283
21
-78.697
0
LINE
8
BLACK
6
CONTINUOUS
10
148.283
20
-78.697
11
148.38
21
-78.6174
0
LINE
8
BLACK
6
CONTINUOUS
10
148.38
20
-78.6174
11
148.49
21
-78.5582
0
LINE
8
BLACK
6
CONTINUOUS
10
148.49
20
-78.5582
11
148.611
21
-78.5217
0
LINE
8
BLACK
6
CONTINUOUS
10
148.611
20
-78.5217
11
148.704
21
-78.5125
0
LINE
8
BLACK
6
CONTINUOUS
10
148.704
20
-78.5125
11
149.492
21
-78.5125
0
LINE
8
BLACK
6
CONTINUOUS
10
149.492
20
-78.5125
11
149.585
21
-78.5217
0
LINE
8
BLACK
6
CONTINUOUS
10
143.548
20
-79.032
11
141.948
21
-79.032
0
LINE
8
BLACK
6
CONTINUOUS
10
141.948
20
-79.032
11
141.948
21
-77.432
0
LINE
8
BLACK
6
CONTINUOUS
10
141.948
20
-77.432
11
143.548
21
-77.432
0
LINE
8
BLACK
6
CONTINUOUS
10
143.548
20
-77.432
11
143.548
21
-79.032
0
LINE
8
BLACK
6
CONTINUOUS
10
149.585
20
-76.8217
11
149.706
21
-76.8582
0
LINE
8
BLACK
6
CONTINUOUS
10
149.706
20
-76.8582
11
149.816
21
-76.9174
0
LINE
8
BLACK
6
CONTINUOUS
10
149.816
20
-76.9174
11
149.913
21
-76.997
0
LINE
8
BLACK
6
CONTINUOUS
10
149.913
20
-76.997
11
149.993
21
-77.0941
0
LINE
8
BLACK
6
CONTINUOUS
10
149.993
20
-77.0941
11
150.052
21
-77.2049
0
LINE
8
BLACK
6
CONTINUOUS
10
150.052
20
-77.2049
11
150.089
21
-77.325
0
LINE
8
BLACK
6
CONTINUOUS
10
150.089
20
-77.325
11
150.101
21
-77.45
0
LINE
8
BLACK
6
CONTINUOUS
10
150.101
20
-77.45
11
150.089
21
-77.575
0
LINE
8
BLACK
6
CONTINUOUS
10
150.089
20
-77.575
11
150.052
21
-77.6951
0
LINE
8
BLACK
6
CONTINUOUS
10
150.052
20
-77.6951
11
149.993
21
-77.8059
0
LINE
8
BLACK
6
CONTINUOUS
10
149.993
20
-77.8059
11
149.913
21
-77.903
0
LINE
8
BLACK
6
CONTINUOUS
10
149.913
20
-77.903
11
149.816
21
-77.9826
0
LINE
8
BLACK
6
CONTINUOUS
10
149.816
20
-77.9826
11
149.706
21
-78.0418
0
LINE
8
BLACK
6
CONTINUOUS
10
149.706
20
-78.0418
11
149.585
21
-78.0783
0
LINE
8
BLACK
6
CONTINUOUS
10
149.585
20
-78.0783
11
149.492
21
-78.0875
0
LINE
8
BLACK
6
CONTINUOUS
10
149.492
20
-78.0875
11
148.704
21
-78.0875
0
LINE
8
BLACK
6
CONTINUOUS
10
148.704
20
-78.0875
11
148.611
21
-78.0783
0
LINE
8
BLACK
6
CONTINUOUS
10
148.611
20
-78.0783
11
148.49
21
-78.0418
0
LINE
8
BLACK
6
CONTINUOUS
10
148.49
20
-78.0418
11
148.38
21
-77.9826
0
LINE
8
BLACK
6
CONTINUOUS
10
148.38
20
-77.9826
11
148.283
21
-77.903
0
LINE
8
BLACK
6
CONTINUOUS
10
148.283
20
-77.903
11
148.203
21
-77.8059
0
LINE
8
BLACK
6
CONTINUOUS
10
148.203
20
-77.8059
11
148.144
21
-77.6951
0
LINE
8
BLACK
6
CONTINUOUS
10
148.144
20
-77.6951
11
148.107
21
-77.575
0
LINE
8
BLACK
6
CONTINUOUS
10
148.107
20
-77.575
11
148.095
21
-77.45
0
LINE
8
BLACK
6
CONTINUOUS
10
148.095
20
-77.45
11
148.107
21
-77.325
0
LINE
8
BLACK
6
CONTINUOUS
10
148.107
20
-77.325
11
148.144
21
-77.2049
0
LINE
8
BLACK
6
CONTINUOUS
10
148.144
20
-77.2049
11
148.203
21
-77.0941
0
LINE
8
BLACK
6
CONTINUOUS
10
148.203
20
-77.0941
11
148.283
21
-76.997
0
LINE
8
BLACK
6
CONTINUOUS
10
148.283
20
-76.997
11
148.38
21
-76.9174
0
LINE
8
BLACK
6
CONTINUOUS
10
148.38
20
-76.9174
11
148.49
21
-76.8582
0
LINE
8
BLACK
6
CONTINUOUS
10
148.49
20
-76.8582
11
148.611
21
-76.8217
0
LINE
8
BLACK
6
CONTINUOUS
10
148.611
20
-76.8217
11
148.704
21
-76.8125
0
LINE
8
BLACK
6
CONTINUOUS
10
148.704
20
-76.8125
11
149.492
21
-76.8125
0
LINE
8
BLACK
6
CONTINUOUS
10
149.492
20
-76.8125
11
149.585
21
-76.8217
0
LINE
8
BLACK
6
CONTINUOUS
10
167.062
20
-74.7576
11
167.335
21
-74.8707
0
LINE
8
BLACK
6
CONTINUOUS
10
167.335
20
-74.8707
11
167.58
21
-75.0349
0
LINE
8
BLACK
6
CONTINUOUS
10
167.58
20
-75.0349
11
167.789
21
-75.2438
0
LINE
8
BLACK
6
CONTINUOUS
10
167.789
20
-75.2438
11
167.953
21
-75.4895
0
LINE
8
BLACK
6
CONTINUOUS
10
167.953
20
-75.4895
11
168.066
21
-75.7625
0
LINE
8
BLACK
6
CONTINUOUS
10
168.066
20
-75.7625
11
168.124
21
-76.0523
0
LINE
8
BLACK
6
CONTINUOUS
10
168.124
20
-76.0523
11
168.124
21
-76.3477
0
LINE
8
BLACK
6
CONTINUOUS
10
168.124
20
-76.3477
11
168.066
21
-76.6375
0
LINE
8
BLACK
6
CONTINUOUS
10
168.066
20
-76.6375
11
167.953
21
-76.9105
0
LINE
8
BLACK
6
CONTINUOUS
10
167.953
20
-76.9105
11
167.789
21
-77.1562
0
LINE
8
BLACK
6
CONTINUOUS
10
167.789
20
-77.1562
11
167.58
21
-77.3651
0
LINE
8
BLACK
6
CONTINUOUS
10
167.58
20
-77.3651
11
167.335
21
-77.5293
0
LINE
8
BLACK
6
CONTINUOUS
10
167.335
20
-77.5293
11
167.062
21
-77.6424
0
LINE
8
BLACK
6
CONTINUOUS
10
167.062
20
-77.6424
11
166.772
21
-77.7
0
LINE
8
BLACK
6
CONTINUOUS
10
166.772
20
-77.7
11
166.476
21
-77.7
0
LINE
8
BLACK
6
CONTINUOUS
10
166.476
20
-77.7
11
166.186
21
-77.6424
0
LINE
8
BLACK
6
CONTINUOUS
10
166.186
20
-77.6424
11
165.913
21
-77.5293
0
LINE
8
BLACK
6
CONTINUOUS
10
165.913
20
-77.5293
11
165.668
21
-77.3651
0
LINE
8
BLACK
6
CONTINUOUS
10
165.668
20
-77.3651
11
165.459
21
-77.1562
0
LINE
8
BLACK
6
CONTINUOUS
10
165.459
20
-77.1562
11
165.295
21
-76.9105
0
LINE
8
BLACK
6
CONTINUOUS
10
165.295
20
-76.9105
11
165.182
21
-76.6375
0
LINE
8
BLACK
6
CONTINUOUS
10
165.182
20
-76.6375
11
165.124
21
-76.3477
0
LINE
8
BLACK
6
CONTINUOUS
10
165.124
20
-76.3477
11
165.124
21
-76.0523
0
LINE
8
BLACK
6
CONTINUOUS
10
165.124
20
-76.0523
11
165.182
21
-75.7625
0
LINE
8
BLACK
6
CONTINUOUS
10
165.182
20
-75.7625
11
165.295
21
-75.4895
0
LINE
8
BLACK
6
CONTINUOUS
10
165.295
20
-75.4895
11
165.459
21
-75.2438
0
LINE
8
BLACK
6
CONTINUOUS
10
165.459
20
-75.2438
11
165.668
21
-75.0349
0
LINE
8
BLACK
6
CONTINUOUS
10
165.668
20
-75.0349
11
165.913
21
-74.8707
0
LINE
8
BLACK
6
CONTINUOUS
10
165.913
20
-74.8707
11
166.186
21
-74.7576
0
LINE
8
BLACK
6
CONTINUOUS
10
166.186
20
-74.7576
11
166.476
21
-74.7
0
LINE
8
BLACK
6
CONTINUOUS
10
166.476
20
-74.7
11
166.772
21
-74.7
0
LINE
8
BLACK
6
CONTINUOUS
10
166.772
20
-74.7
11
167.062
21
-74.7576
0
LINE
8
BLACK
6
CONTINUOUS
10
156.956
20
-77.612
11
154.956
21
-77.612
0
LINE
8
BLACK
6
CONTINUOUS
10
154.956
20
-77.612
11
154.956
21
-76.312
0
LINE
8
BLACK
6
CONTINUOUS
10
154.956
20
-76.312
11
156.956
21
-76.312
0
LINE
8
BLACK
6
CONTINUOUS
10
156.956
20
-76.312
11
156.956
21
-77.612
0
LINE
8
BLACK
6
CONTINUOUS
10
142.981
20
-75.4627
11
143.127
21
-75.523
0
LINE
8
BLACK
6
CONTINUOUS
10
143.127
20
-75.523
11
143.258
21
-75.6106
0
LINE
8
BLACK
6
CONTINUOUS
10
143.258
20
-75.6106
11
143.369
21
-75.722
0
LINE
8
BLACK
6
CONTINUOUS
10
143.369
20
-75.722
11
143.457
21
-75.8531
0
LINE
8
BLACK
6
CONTINUOUS
10
143.457
20
-75.8531
11
143.517
21
-75.9986
0
LINE
8
BLACK
6
CONTINUOUS
10
143.517
20
-75.9986
11
143.548
21
-76.1532
0
LINE
8
BLACK
6
CONTINUOUS
10
143.548
20
-76.1532
11
143.548
21
-76.3108
0
LINE
8
BLACK
6
CONTINUOUS
10
143.548
20
-76.3108
11
143.517
21
-76.4654
0
LINE
8
BLACK
6
CONTINUOUS
10
143.517
20
-76.4654
11
143.457
21
-76.6109
0
LINE
8
BLACK
6
CONTINUOUS
10
143.457
20
-76.6109
11
143.369
21
-76.742
0
LINE
8
BLACK
6
CONTINUOUS
10
143.369
20
-76.742
11
143.258
21
-76.8534
0
LINE
8
BLACK
6
CONTINUOUS
10
143.258
20
-76.8534
11
143.127
21
-76.941
0
LINE
8
BLACK
6
CONTINUOUS
10
143.127
20
-76.941
11
142.981
21
-77.0013
0
LINE
8
BLACK
6
CONTINUOUS
10
142.981
20
-77.0013
11
142.827
21
-77.032
0
LINE
8
BLACK
6
CONTINUOUS
10
142.827
20
-77.032
11
142.669
21
-77.032
0
LINE
8
BLACK
6
CONTINUOUS
10
142.669
20
-77.032
11
142.515
21
-77.0013
0
LINE
8
BLACK
6
CONTINUOUS
10
142.515
20
-77.0013
11
142.369
21
-76.941
0
LINE
8
BLACK
6
CONTINUOUS
10
142.369
20
-76.941
11
142.238
21
-76.8534
0
LINE
8
BLACK
6
CONTINUOUS
10
142.238
20
-76.8534
11
142.127
21
-76.742
0
LINE
8
BLACK
6
CONTINUOUS
10
142.127
20
-76.742
11
142.039
21
-76.6109
0
LINE
8
BLACK
6
CONTINUOUS
10
142.039
20
-76.6109
11
141.979
21
-76.4654
0
LINE
8
BLACK
6
CONTINUOUS
10
141.979
20
-76.4654
11
141.948
21
-76.3108
0
LINE
8
BLACK
6
CONTINUOUS
10
141.948
20
-76.3108
11
141.948
21
-76.1532
0
LINE
8
BLACK
6
CONTINUOUS
10
141.948
20
-76.1532
11
141.979
21
-75.9986
0
LINE
8
BLACK
6
CONTINUOUS
10
141.979
20
-75.9986
11
142.039
21
-75.8531
0
LINE
8
BLACK
6
CONTINUOUS
10
142.039
20
-75.8531
11
142.127
21
-75.722
0
LINE
8
BLACK
6
CONTINUOUS
10
142.127
20
-75.722
11
142.238
21
-75.6106
0
LINE
8
BLACK
6
CONTINUOUS
10
142.238
20
-75.6106
11
142.369
21
-75.523
0
LINE
8
BLACK
6
CONTINUOUS
10
142.369
20
-75.523
11
142.515
21
-75.4627
0
LINE
8
BLACK
6
CONTINUOUS
10
142.515
20
-75.4627
11
142.669
21
-75.432
0
LINE
8
BLACK
6
CONTINUOUS
10
142.669
20
-75.432
11
142.827
21
-75.432
0
LINE
8
BLACK
6
CONTINUOUS
10
142.827
20
-75.432
11
142.981
21
-75.4627
0
LINE
8
BLACK
6
CONTINUOUS
10
149.585
20
-75.1217
11
149.706
21
-75.1582
0
LINE
8
BLACK
6
CONTINUOUS
10
149.706
20
-75.1582
11
149.816
21
-75.2174
0
LINE
8
BLACK
6
CONTINUOUS
10
149.816
20
-75.2174
11
149.913
21
-75.297
0
LINE
8
BLACK
6
CONTINUOUS
10
149.913
20
-75.297
11
149.993
21
-75.3941
0
LINE
8
BLACK
6
CONTINUOUS
10
149.993
20
-75.3941
11
150.052
21
-75.5049
0
LINE
8
BLACK
6
CONTINUOUS
10
150.052
20
-75.5049
11
150.089
21
-75.625
0
LINE
8
BLACK
6
CONTINUOUS
10
150.089
20
-75.625
11
150.101
21
-75.75
0
LINE
8
BLACK
6
CONTINUOUS
10
150.101
20
-75.75
11
150.089
21
-75.875
0
LINE
8
BLACK
6
CONTINUOUS
10
150.089
20
-75.875
11
150.052
21
-75.9951
0
LINE
8
BLACK
6
CONTINUOUS
10
150.052
20
-75.9951
11
149.993
21
-76.1059
0
LINE
8
BLACK
6
CONTINUOUS
10
149.993
20
-76.1059
11
149.913
21
-76.203
0
LINE
8
BLACK
6
CONTINUOUS
10
149.913
20
-76.203
11
149.816
21
-76.2826
0
LINE
8
BLACK
6
CONTINUOUS
10
149.816
20
-76.2826
11
149.706
21
-76.3418
0
LINE
8
BLACK
6
CONTINUOUS
10
149.706
20
-76.3418
11
149.585
21
-76.3783
0
LINE
8
BLACK
6
CONTINUOUS
10
149.585
20
-76.3783
11
149.492
21
-76.3875
0
LINE
8
BLACK
6
CONTINUOUS
10
149.492
20
-76.3875
11
148.704
21
-76.3875
0
LINE
8
BLACK
6
CONTINUOUS
10
148.704
20
-76.3875
11
148.611
21
-76.3783
0
LINE
8
BLACK
6
CONTINUOUS
10
148.611
20
-76.3783
11
148.49
21
-76.3418
0
LINE
8
BLACK
6
CONTINUOUS
10
148.49
20
-76.3418
11
148.38
21
-76.2826
0
LINE
8
BLACK
6
CONTINUOUS
10
148.38
20
-76.2826
11
148.283
21
-76.203
0
LINE
8
BLACK
6
CONTINUOUS
10
148.283
20
-76.203
11
148.203
21
-76.1059
0
LINE
8
BLACK
6
CONTINUOUS
10
148.203
20
-76.1059
11
148.144
21
-75.9951
0
LINE
8
BLACK
6
CONTINUOUS
10
148.144
20
-75.9951
11
148.107
21
-75.875
0
LINE
8
BLACK
6
CONTINUOUS
10
148.107
20
-75.875
11
148.095
21
-75.75
0
LINE
8
BLACK
6
CONTINUOUS
10
148.095
20
-75.75
11
148.107
21
-75.625
0
LINE
8
BLACK
6
CONTINUOUS
10
148.107
20
-75.625
11
148.144
21
-75.5049
0
LINE
8
BLACK
6
CONTINUOUS
10
148.144
20
-75.5049
11
148.203
21
-75.3941
0
LINE
8
BLACK
6
CONTINUOUS
10
148.203
20
-75.3941
11
148.283
21
-75.297
0
LINE
8
BLACK
6
CONTINUOUS
10
148.283
20
-75.297
11
148.38
21
-75.2174
0
LINE
8
BLACK
6
CONTINUOUS
10
148.38
20
-75.2174
11
148.49
21
-75.1582
0
LINE
8
BLACK
6
CONTINUOUS
10
148.49
20
-75.1582
11
148.611
21
-75.1217
0
LINE
8
BLACK
6
CONTINUOUS
10
148.611
20
-75.1217
11
148.704
21
-75.1125
0
LINE
8
BLACK
6
CONTINUOUS
10
148.704
20
-75.1125
11
149.492
21
-75.1125
0
LINE
8
BLACK
6
CONTINUOUS
10
149.492
20
-75.1125
11
149.585
21
-75.1217
0
LINE
8
BLACK
6
CONTINUOUS
10
93.6555
20
-72.2176
11
93.9285
21
-72.3307
0
LINE
8
BLACK
6
CONTINUOUS
10
93.9285
20
-72.3307
11
94.1742
21
-72.4949
0
LINE
8
BLACK
6
CONTINUOUS
10
94.1742
20
-72.4949
11
94.3831
21
-72.7038
0
LINE
8
BLACK
6
CONTINUOUS
10
94.3831
20
-72.7038
11
94.5473
21
-72.9495
0
LINE
8
BLACK
6
CONTINUOUS
10
94.5473
20
-72.9495
11
94.6604
21
-73.2225
0
LINE
8
BLACK
6
CONTINUOUS
10
94.6604
20
-73.2225
11
94.718
21
-73.5123
0
LINE
8
BLACK
6
CONTINUOUS
10
94.718
20
-73.5123
11
94.718
21
-73.8077
0
LINE
8
BLACK
6
CONTINUOUS
10
94.718
20
-73.8077
11
94.6604
21
-74.0975
0
LINE
8
BLACK
6
CONTINUOUS
10
94.6604
20
-74.0975
11
94.5473
21
-74.3705
0
LINE
8
BLACK
6
CONTINUOUS
10
94.5473
20
-74.3705
11
94.3831
21
-74.6162
0
LINE
8
BLACK
6
CONTINUOUS
10
94.3831
20
-74.6162
11
94.1742
21
-74.8251
0
LINE
8
BLACK
6
CONTINUOUS
10
94.1742
20
-74.8251
11
93.9285
21
-74.9893
0
LINE
8
BLACK
6
CONTINUOUS
10
93.9285
20
-74.9893
11
93.6555
21
-75.1024
0
LINE
8
BLACK
6
CONTINUOUS
10
93.6555
20
-75.1024
11
93.3657
21
-75.16
0
LINE
8
BLACK
6
CONTINUOUS
10
93.3657
20
-75.16
11
93.0703
21
-75.16
0
LINE
8
BLACK
6
CONTINUOUS
10
93.0703
20
-75.16
11
92.7805
21
-75.1024
0
LINE
8
BLACK
6
CONTINUOUS
10
92.7805
20
-75.1024
11
92.5075
21
-74.9893
0
LINE
8
BLACK
6
CONTINUOUS
10
92.5075
20
-74.9893
11
92.2618
21
-74.8251
0
LINE
8
BLACK
6
CONTINUOUS
10
92.2618
20
-74.8251
11
92.0529
21
-74.6162
0
LINE
8
BLACK
6
CONTINUOUS
10
92.0529
20
-74.6162
11
91.8887
21
-74.3705
0
LINE
8
BLACK
6
CONTINUOUS
10
91.8887
20
-74.3705
11
91.7756
21
-74.0975
0
LINE
8
BLACK
6
CONTINUOUS
10
91.7756
20
-74.0975
11
91.718
21
-73.8077
0
LINE
8
BLACK
6
CONTINUOUS
10
91.718
20
-73.8077
11
91.718
21
-73.5123
0
LINE
8
BLACK
6
CONTINUOUS
10
91.718
20
-73.5123
11
91.7756
21
-73.2225
0
LINE
8
BLACK
6
CONTINUOUS
10
91.7756
20
-73.2225
11
91.8887
21
-72.9495
0
LINE
8
BLACK
6
CONTINUOUS
10
91.8887
20
-72.9495
11
92.0529
21
-72.7038
0
LINE
8
BLACK
6
CONTINUOUS
10
92.0529
20
-72.7038
11
92.2618
21
-72.4949
0
LINE
8
BLACK
6
CONTINUOUS
10
92.2618
20
-72.4949
11
92.5075
21
-72.3307
0
LINE
8
BLACK
6
CONTINUOUS
10
92.5075
20
-72.3307
11
92.7805
21
-72.2176
0
LINE
8
BLACK
6
CONTINUOUS
10
92.7805
20
-72.2176
11
93.0703
21
-72.16
0
LINE
8
BLACK
6
CONTINUOUS
10
93.0703
20
-72.16
11
93.3657
21
-72.16
0
LINE
8
BLACK
6
CONTINUOUS
10
93.3657
20
-72.16
11
93.6555
21
-72.2176
0
LINE
8
BLACK
6
CONTINUOUS
10
103.616
20
-75.022
11
101.616
21
-75.022
0
LINE
8
BLACK
6
CONTINUOUS
10
101.616
20
-75.022
11
101.616
21
-73.822
0
LINE
8
BLACK
6
CONTINUOUS
10
101.616
20
-73.822
11
103.616
21
-73.822
0
LINE
8
BLACK
6
CONTINUOUS
10
103.616
20
-73.822
11
103.616
21
-75.022
0
LINE
8
BLACK
6
CONTINUOUS
10
143.265
20
-71.5246
11
143.428
21
-71.5924
0
LINE
8
BLACK
6
CONTINUOUS
10
143.428
20
-71.5924
11
143.576
21
-71.6909
0
LINE
8
BLACK
6
CONTINUOUS
10
143.576
20
-71.6909
11
143.701
21
-71.8163
0
LINE
8
BLACK
6
CONTINUOUS
10
143.701
20
-71.8163
11
143.8
21
-71.9637
0
LINE
8
BLACK
6
CONTINUOUS
10
143.8
20
-71.9637
11
143.867
21
-72.1275
0
LINE
8
BLACK
6
CONTINUOUS
10
143.867
20
-72.1275
11
143.902
21
-72.3014
0
LINE
8
BLACK
6
CONTINUOUS
10
143.902
20
-72.3014
11
143.902
21
-72.4786
0
LINE
8
BLACK
6
CONTINUOUS
10
143.902
20
-72.4786
11
143.867
21
-72.6525
0
LINE
8
BLACK
6
CONTINUOUS
10
143.867
20
-72.6525
11
143.8
21
-72.8163
0
LINE
8
BLACK
6
CONTINUOUS
10
143.8
20
-72.8163
11
143.701
21
-72.9637
0
LINE
8
BLACK
6
CONTINUOUS
10
143.701
20
-72.9637
11
143.576
21
-73.0891
0
LINE
8
BLACK
6
CONTINUOUS
10
143.576
20
-73.0891
11
143.428
21
-73.1876
0
LINE
8
BLACK
6
CONTINUOUS
10
143.428
20
-73.1876
11
143.265
21
-73.2554
0
LINE
8
BLACK
6
CONTINUOUS
10
143.265
20
-73.2554
11
143.091
21
-73.29
0
LINE
8
BLACK
6
CONTINUOUS
10
143.091
20
-73.29
11
142.913
21
-73.29
0
LINE
8
BLACK
6
CONTINUOUS
10
142.913
20
-73.29
11
142.739
21
-73.2554
0
LINE
8
BLACK
6
CONTINUOUS
10
142.739
20
-73.2554
11
142.576
21
-73.1876
0
LINE
8
BLACK
6
CONTINUOUS
10
142.576
20
-73.1876
11
142.428
21
-73.0891
0
LINE
8
BLACK
6
CONTINUOUS
10
142.428
20
-73.0891
11
142.303
21
-72.9637
0
LINE
8
BLACK
6
CONTINUOUS
10
142.303
20
-72.9637
11
142.204
21
-72.8163
0
LINE
8
BLACK
6
CONTINUOUS
10
142.204
20
-72.8163
11
142.137
21
-72.6525
0
LINE
8
BLACK
6
CONTINUOUS
10
142.137
20
-72.6525
11
142.102
21
-72.4786
0
LINE
8
BLACK
6
CONTINUOUS
10
142.102
20
-72.4786
11
142.102
21
-72.3014
0
LINE
8
BLACK
6
CONTINUOUS
10
142.102
20
-72.3014
11
142.137
21
-72.1275
0
LINE
8
BLACK
6
CONTINUOUS
10
142.137
20
-72.1275
11
142.204
21
-71.9637
0
LINE
8
BLACK
6
CONTINUOUS
10
142.204
20
-71.9637
11
142.303
21
-71.8163
0
LINE
8
BLACK
6
CONTINUOUS
10
142.303
20
-71.8163
11
142.428
21
-71.6909
0
LINE
8
BLACK
6
CONTINUOUS
10
142.428
20
-71.6909
11
142.576
21
-71.5924
0
LINE
8
BLACK
6
CONTINUOUS
10
142.576
20
-71.5924
11
142.739
21
-71.5246
0
LINE
8
BLACK
6
CONTINUOUS
10
142.739
20
-71.5246
11
142.913
21
-71.49
0
LINE
8
BLACK
6
CONTINUOUS
10
142.913
20
-71.49
11
143.091
21
-71.49
0
LINE
8
BLACK
6
CONTINUOUS
10
143.091
20
-71.49
11
143.265
21
-71.5246
0
LINE
8
BLACK
6
CONTINUOUS
10
158.983
20
-71.3347
11
159.129
21
-71.395
0
LINE
8
BLACK
6
CONTINUOUS
10
159.129
20
-71.395
11
159.26
21
-71.4826
0
LINE
8
BLACK
6
CONTINUOUS
10
159.26
20
-71.4826
11
159.371
21
-71.594
0
LINE
8
BLACK
6
CONTINUOUS
10
159.371
20
-71.594
11
159.459
21
-71.7251
0
LINE
8
BLACK
6
CONTINUOUS
10
159.459
20
-71.7251
11
159.519
21
-71.8706
0
LINE
8
BLACK
6
CONTINUOUS
10
159.519
20
-71.8706
11
159.55
21
-72.0252
0
LINE
8
BLACK
6
CONTINUOUS
10
159.55
20
-72.0252
11
159.55
21
-72.1828
0
LINE
8
BLACK
6
CONTINUOUS
10
159.55
20
-72.1828
11
159.519
21
-72.3374
0
LINE
8
BLACK
6
CONTINUOUS
10
159.519
20
-72.3374
11
159.459
21
-72.4829
0
LINE
8
BLACK
6
CONTINUOUS
10
159.459
20
-72.4829
11
159.371
21
-72.614
0
LINE
8
BLACK
6
CONTINUOUS
10
159.371
20
-72.614
11
159.26
21
-72.7254
0
LINE
8
BLACK
6
CONTINUOUS
10
159.26
20
-72.7254
11
159.129
21
-72.813
0
LINE
8
BLACK
6
CONTINUOUS
10
159.129
20
-72.813
11
158.983
21
-72.8733
0
LINE
8
BLACK
6
CONTINUOUS
10
158.983
20
-72.8733
11
158.829
21
-72.904
0
LINE
8
BLACK
6
CONTINUOUS
10
158.829
20
-72.904
11
158.671
21
-72.904
0
LINE
8
BLACK
6
CONTINUOUS
10
158.671
20
-72.904
11
158.517
21
-72.8733
0
LINE
8
BLACK
6
CONTINUOUS
10
158.517
20
-72.8733
11
158.371
21
-72.813
0
LINE
8
BLACK
6
CONTINUOUS
10
158.371
20
-72.813
11
158.24
21
-72.7254
0
LINE
8
BLACK
6
CONTINUOUS
10
158.24
20
-72.7254
11
158.129
21
-72.614
0
LINE
8
BLACK
6
CONTINUOUS
10
158.129
20
-72.614
11
158.041
21
-72.4829
0
LINE
8
BLACK
6
CONTINUOUS
10
158.041
20
-72.4829
11
157.981
21
-72.3374
0
LINE
8
BLACK
6
CONTINUOUS
10
157.981
20
-72.3374
11
157.95
21
-72.1828
0
LINE
8
BLACK
6
CONTINUOUS
10
157.95
20
-72.1828
11
157.95
21
-72.0252
0
LINE
8
BLACK
6
CONTINUOUS
10
157.95
20
-72.0252
11
157.981
21
-71.8706
0
LINE
8
BLACK
6
CONTINUOUS
10
157.981
20
-71.8706
11
158.041
21
-71.7251
0
LINE
8
BLACK
6
CONTINUOUS
10
158.041
20
-71.7251
11
158.129
21
-71.594
0
LINE
8
BLACK
6
CONTINUOUS
10
158.129
20
-71.594
11
158.24
21
-71.4826
0
LINE
8
BLACK
6
CONTINUOUS
10
158.24
20
-71.4826
11
158.371
21
-71.395
0
LINE
8
BLACK
6
CONTINUOUS
10
158.371
20
-71.395
11
158.517
21
-71.3347
0
LINE
8
BLACK
6
CONTINUOUS
10
158.517
20
-71.3347
11
158.671
21
-71.304
0
LINE
8
BLACK
6
CONTINUOUS
10
158.671
20
-71.304
11
158.829
21
-71.304
0
LINE
8
BLACK
6
CONTINUOUS
10
158.829
20
-71.304
11
158.983
21
-71.3347
0
LINE
8
BLACK
6
CONTINUOUS
10
149.194
20
-70.4741
11
149.412
21
-70.5646
0
LINE
8
BLACK
6
CONTINUOUS
10
149.412
20
-70.5646
11
149.609
21
-70.6959
0
LINE
8
BLACK
6
CONTINUOUS
10
149.609
20
-70.6959
11
149.776
21
-70.863
0
LINE
8
BLACK
6
CONTINUOUS
10
149.776
20
-70.863
11
149.907
21
-71.0596
0
LINE
8
BLACK
6
CONTINUOUS
10
149.907
20
-71.0596
11
149.998
21
-71.278
0
LINE
8
BLACK
6
CONTINUOUS
10
149.998
20
-71.278
11
150.044
21
-71.5098
0
LINE
8
BLACK
6
CONTINUOUS
10
150.044
20
-71.5098
11
150.044
21
-71.7462
0
LINE
8
BLACK
6
CONTINUOUS
10
150.044
20
-71.7462
11
149.998
21
-71.978
0
LINE
8
BLACK
6
CONTINUOUS
10
149.998
20
-71.978
11
149.907
21
-72.1964
0
LINE
8
BLACK
6
CONTINUOUS
10
149.907
20
-72.1964
11
149.776
21
-72.393
0
LINE
8
BLACK
6
CONTINUOUS
10
149.776
20
-72.393
11
149.609
21
-72.5601
0
LINE
8
BLACK
6
CONTINUOUS
10
149.609
20
-72.5601
11
149.412
21
-72.6914
0
LINE
8
BLACK
6
CONTINUOUS
10
149.412
20
-72.6914
11
149.194
21
-72.7819
0
LINE
8
BLACK
6
CONTINUOUS
10
149.194
20
-72.7819
11
148.962
21
-72.828
0
LINE
8
BLACK
6
CONTINUOUS
10
148.962
20
-72.828
11
148.726
21
-72.828
0
LINE
8
BLACK
6
CONTINUOUS
10
148.726
20
-72.828
11
148.494
21
-72.7819
0
LINE
8
BLACK
6
CONTINUOUS
10
148.494
20
-72.7819
11
148.276
21
-72.6914
0
LINE
8
BLACK
6
CONTINUOUS
10
148.276
20
-72.6914
11
148.079
21
-72.5601
0
LINE
8
BLACK
6
CONTINUOUS
10
148.079
20
-72.5601
11
147.912
21
-72.393
0
LINE
8
BLACK
6
CONTINUOUS
10
147.912
20
-72.393
11
147.781
21
-72.1964
0
LINE
8
BLACK
6
CONTINUOUS
10
147.781
20
-72.1964
11
147.69
21
-71.978
0
LINE
8
BLACK
6
CONTINUOUS
10
147.69
20
-71.978
11
147.644
21
-71.7462
0
LINE
8
BLACK
6
CONTINUOUS
10
147.644
20
-71.7462
11
147.644
21
-71.5098
0
LINE
8
BLACK
6
CONTINUOUS
10
147.644
20
-71.5098
11
147.69
21
-71.278
0
LINE
8
BLACK
6
CONTINUOUS
10
147.69
20
-71.278
11
147.781
21
-71.0596
0
LINE
8
BLACK
6
CONTINUOUS
10
147.781
20
-71.0596
11
147.912
21
-70.863
0
LINE
8
BLACK
6
CONTINUOUS
10
147.912
20
-70.863
11
148.079
21
-70.6959
0
LINE
8
BLACK
6
CONTINUOUS
10
148.079
20
-70.6959
11
148.276
21
-70.5646
0
LINE
8
BLACK
6
CONTINUOUS
10
148.276
20
-70.5646
11
148.494
21
-70.4741
0
LINE
8
BLACK
6
CONTINUOUS
10
148.494
20
-70.4741
11
148.726
21
-70.428
0
LINE
8
BLACK
6
CONTINUOUS
10
148.726
20
-70.428
11
148.962
21
-70.428
0
LINE
8
BLACK
6
CONTINUOUS
10
148.962
20
-70.428
11
149.194
21
-70.4741
0
LINE
8
BLACK
6
CONTINUOUS
10
167.062
20
-69.6776
11
167.335
21
-69.7907
0
LINE
8
BLACK
6
CONTINUOUS
10
167.335
20
-69.7907
11
167.58
21
-69.9549
0
LINE
8
BLACK
6
CONTINUOUS
10
167.58
20
-69.9549
11
167.789
21
-70.1638
0
LINE
8
BLACK
6
CONTINUOUS
10
167.789
20
-70.1638
11
167.953
21
-70.4095
0
LINE
8
BLACK
6
CONTINUOUS
10
167.953
20
-70.4095
11
168.066
21
-70.6825
0
LINE
8
BLACK
6
CONTINUOUS
10
168.066
20
-70.6825
11
168.124
21
-70.9723
0
LINE
8
BLACK
6
CONTINUOUS
10
168.124
20
-70.9723
11
168.124
21
-71.2677
0
LINE
8
BLACK
6
CONTINUOUS
10
168.124
20
-71.2677
11
168.066
21
-71.5575
0
LINE
8
BLACK
6
CONTINUOUS
10
168.066
20
-71.5575
11
167.953
21
-71.8305
0
LINE
8
BLACK
6
CONTINUOUS
10
167.953
20
-71.8305
11
167.789
21
-72.0762
0
LINE
8
BLACK
6
CONTINUOUS
10
167.789
20
-72.0762
11
167.58
21
-72.2851
0
LINE
8
BLACK
6
CONTINUOUS
10
167.58
20
-72.2851
11
167.335
21
-72.4493
0
LINE
8
BLACK
6
CONTINUOUS
10
167.335
20
-72.4493
11
167.062
21
-72.5624
0
LINE
8
BLACK
6
CONTINUOUS
10
167.062
20
-72.5624
11
166.772
21
-72.62
0
LINE
8
BLACK
6
CONTINUOUS
10
166.772
20
-72.62
11
166.476
21
-72.62
0
LINE
8
BLACK
6
CONTINUOUS
10
166.476
20
-72.62
11
166.186
21
-72.5624
0
LINE
8
BLACK
6
CONTINUOUS
10
166.186
20
-72.5624
11
165.913
21
-72.4493
0
LINE
8
BLACK
6
CONTINUOUS
10
165.913
20
-72.4493
11
165.668
21
-72.2851
0
LINE
8
BLACK
6
CONTINUOUS
10
165.668
20
-72.2851
11
165.459
21
-72.0762
0
LINE
8
BLACK
6
CONTINUOUS
10
165.459
20
-72.0762
11
165.295
21
-71.8305
0
LINE
8
BLACK
6
CONTINUOUS
10
165.295
20
-71.8305
11
165.182
21
-71.5575
0
LINE
8
BLACK
6
CONTINUOUS
10
165.182
20
-71.5575
11
165.124
21
-71.2677
0
LINE
8
BLACK
6
CONTINUOUS
10
165.124
20
-71.2677
11
165.124
21
-70.9723
0
LINE
8
BLACK
6
CONTINUOUS
10
165.124
20
-70.9723
11
165.182
21
-70.6825
0
LINE
8
BLACK
6
CONTINUOUS
10
165.182
20
-70.6825
11
165.295
21
-70.4095
0
LINE
8
BLACK
6
CONTINUOUS
10
165.295
20
-70.4095
11
165.459
21
-70.1638
0
LINE
8
BLACK
6
CONTINUOUS
10
165.459
20
-70.1638
11
165.668
21
-69.9549
0
LINE
8
BLACK
6
CONTINUOUS
10
165.668
20
-69.9549
11
165.913
21
-69.7907
0
LINE
8
BLACK
6
CONTINUOUS
10
165.913
20
-69.7907
11
166.186
21
-69.6776
0
LINE
8
BLACK
6
CONTINUOUS
10
166.186
20
-69.6776
11
166.476
21
-69.62
0
LINE
8
BLACK
6
CONTINUOUS
10
166.476
20
-69.62
11
166.772
21
-69.62
0
LINE
8
BLACK
6
CONTINUOUS
10
166.772
20
-69.62
11
167.062
21
-69.6776
0
LINE
8
BLACK
6
CONTINUOUS
10
103.616
20
-72.482
11
101.616
21
-72.482
0
LINE
8
BLACK
6
CONTINUOUS
10
101.616
20
-72.482
11
101.616
21
-71.282
0
LINE
8
BLACK
6
CONTINUOUS
10
101.616
20
-71.282
11
103.616
21
-71.282
0
LINE
8
BLACK
6
CONTINUOUS
10
103.616
20
-71.282
11
103.616
21
-72.482
0
LINE
8
BLACK
6
CONTINUOUS
10
159.55
20
-70.904
11
157.95
21
-70.904
0
LINE
8
BLACK
6
CONTINUOUS
10
157.95
20
-70.904
11
157.95
21
-69.304
0
LINE
8
BLACK
6
CONTINUOUS
10
157.95
20
-69.304
11
159.55
21
-69.304
0
LINE
8
BLACK
6
CONTINUOUS
10
159.55
20
-69.304
11
159.55
21
-70.904
0
LINE
8
BLACK
6
CONTINUOUS
10
143.902
20
-70.75
11
142.102
21
-70.75
0
LINE
8
BLACK
6
CONTINUOUS
10
142.102
20
-70.75
11
142.102
21
-68.95
0
LINE
8
BLACK
6
CONTINUOUS
10
142.102
20
-68.95
11
143.902
21
-68.95
0
LINE
8
BLACK
6
CONTINUOUS
10
143.902
20
-68.95
11
143.902
21
-70.75
0
LINE
8
BLACK
6
CONTINUOUS
10
154.316
20
-70.242
11
152.516
21
-70.242
0
LINE
8
BLACK
6
CONTINUOUS
10
152.516
20
-70.242
11
152.516
21
-68.442
0
LINE
8
BLACK
6
CONTINUOUS
10
152.516
20
-68.442
11
154.316
21
-68.442
0
LINE
8
BLACK
6
CONTINUOUS
10
154.316
20
-68.442
11
154.316
21
-70.242
0
LINE
8
BLACK
6
CONTINUOUS
10
93.6555
20
-67.1376
11
93.9285
21
-67.2507
0
LINE
8
BLACK
6
CONTINUOUS
10
93.9285
20
-67.2507
11
94.1742
21
-67.4149
0
LINE
8
BLACK
6
CONTINUOUS
10
94.1742
20
-67.4149
11
94.3831
21
-67.6238
0
LINE
8
BLACK
6
CONTINUOUS
10
94.3831
20
-67.6238
11
94.5473
21
-67.8695
0
LINE
8
BLACK
6
CONTINUOUS
10
94.5473
20
-67.8695
11
94.6604
21
-68.1425
0
LINE
8
BLACK
6
CONTINUOUS
10
94.6604
20
-68.1425
11
94.718
21
-68.4323
0
LINE
8
BLACK
6
CONTINUOUS
10
94.718
20
-68.4323
11
94.718
21
-68.7277
0
LINE
8
BLACK
6
CONTINUOUS
10
94.718
20
-68.7277
11
94.6604
21
-69.0175
0
LINE
8
BLACK
6
CONTINUOUS
10
94.6604
20
-69.0175
11
94.5473
21
-69.2905
0
LINE
8
BLACK
6
CONTINUOUS
10
94.5473
20
-69.2905
11
94.3831
21
-69.5362
0
LINE
8
BLACK
6
CONTINUOUS
10
94.3831
20
-69.5362
11
94.1742
21
-69.7451
0
LINE
8
BLACK
6
CONTINUOUS
10
94.1742
20
-69.7451
11
93.9285
21
-69.9093
0
LINE
8
BLACK
6
CONTINUOUS
10
93.9285
20
-69.9093
11
93.6555
21
-70.0224
0
LINE
8
BLACK
6
CONTINUOUS
10
93.6555
20
-70.0224
11
93.3657
21
-70.08
0
LINE
8
BLACK
6
CONTINUOUS
10
93.3657
20
-70.08
11
93.0703
21
-70.08
0
LINE
8
BLACK
6
CONTINUOUS
10
93.0703
20
-70.08
11
92.7805
21
-70.0224
0
LINE
8
BLACK
6
CONTINUOUS
10
92.7805
20
-70.0224
11
92.5075
21
-69.9093
0
LINE
8
BLACK
6
CONTINUOUS
10
92.5075
20
-69.9093
11
92.2618
21
-69.7451
0
LINE
8
BLACK
6
CONTINUOUS
10
92.2618
20
-69.7451
11
92.0529
21
-69.5362
0
LINE
8
BLACK
6
CONTINUOUS
10
92.0529
20
-69.5362
11
91.8887
21
-69.2905
0
LINE
8
BLACK
6
CONTINUOUS
10
91.8887
20
-69.2905
11
91.7756
21
-69.0175
0
LINE
8
BLACK
6
CONTINUOUS
10
91.7756
20
-69.0175
11
91.718
21
-68.7277
0
LINE
8
BLACK
6
CONTINUOUS
10
91.718
20
-68.7277
11
91.718
21
-68.4323
0
LINE
8
BLACK
6
CONTINUOUS
10
91.718
20
-68.4323
11
91.7756
21
-68.1425
0
LINE
8
BLACK
6
CONTINUOUS
10
91.7756
20
-68.1425
11
91.8887
21
-67.8695
0
LINE
8
BLACK
6
CONTINUOUS
10
91.8887
20
-67.8695
11
92.0529
21
-67.6238
0
LINE
8
BLACK
6
CONTINUOUS
10
92.0529
20
-67.6238
11
92.2618
21
-67.4149
0
LINE
8
BLACK
6
CONTINUOUS
10
92.2618
20
-67.4149
11
92.5075
21
-67.2507
0
LINE
8
BLACK
6
CONTINUOUS
10
92.5075
20
-67.2507
11
92.7805
21
-67.1376
0
LINE
8
BLACK
6
CONTINUOUS
10
92.7805
20
-67.1376
11
93.0703
21
-67.08
0
LINE
8
BLACK
6
CONTINUOUS
10
93.0703
20
-67.08
11
93.3657
21
-67.08
0
LINE
8
BLACK
6
CONTINUOUS
10
93.3657
20
-67.08
11
93.6555
21
-67.1376
0
LINE
8
BLACK
6
CONTINUOUS
10
103.616
20
-69.942
11
101.616
21
-69.942
0
LINE
8
BLACK
6
CONTINUOUS
10
101.616
20
-69.942
11
101.616
21
-68.742
0
LINE
8
BLACK
6
CONTINUOUS
10
101.616
20
-68.742
11
103.616
21
-68.742
0
LINE
8
BLACK
6
CONTINUOUS
10
103.616
20
-68.742
11
103.616
21
-69.942
0
LINE
8
BLACK
6
CONTINUOUS
10
153.679
20
-65.9366
11
153.842
21
-66.0044
0
LINE
8
BLACK
6
CONTINUOUS
10
153.842
20
-66.0044
11
153.99
21
-66.1029
0
LINE
8
BLACK
6
CONTINUOUS
10
153.99
20
-66.1029
11
154.115
21
-66.2283
0
LINE
8
BLACK
6
CONTINUOUS
10
154.115
20
-66.2283
11
154.214
21
-66.3757
0
LINE
8
BLACK
6
CONTINUOUS
10
154.214
20
-66.3757
11
154.281
21
-66.5395
0
LINE
8
BLACK
6
CONTINUOUS
10
154.281
20
-66.5395
11
154.316
21
-66.7134
0
LINE
8
BLACK
6
CONTINUOUS
10
154.316
20
-66.7134
11
154.316
21
-66.8906
0
LINE
8
BLACK
6
CONTINUOUS
10
154.316
20
-66.8906
11
154.281
21
-67.0645
0
LINE
8
BLACK
6
CONTINUOUS
10
154.281
20
-67.0645
11
154.214
21
-67.2283
0
LINE
8
BLACK
6
CONTINUOUS
10
154.214
20
-67.2283
11
154.115
21
-67.3757
0
LINE
8
BLACK
6
CONTINUOUS
10
154.115
20
-67.3757
11
153.99
21
-67.5011
0
LINE
8
BLACK
6
CONTINUOUS
10
153.99
20
-67.5011
11
153.842
21
-67.5996
0
LINE
8
BLACK
6
CONTINUOUS
10
153.842
20
-67.5996
11
153.679
21
-67.6674
0
LINE
8
BLACK
6
CONTINUOUS
10
153.679
20
-67.6674
11
153.505
21
-67.702
0
LINE
8
BLACK
6
CONTINUOUS
10
153.505
20
-67.702
11
153.327
21
-67.702
0
LINE
8
BLACK
6
CONTINUOUS
10
153.327
20
-67.702
11
153.153
21
-67.6674
0
LINE
8
BLACK
6
CONTINUOUS
10
153.153
20
-67.6674
11
152.99
21
-67.5996
0
LINE
8
BLACK
6
CONTINUOUS
10
152.99
20
-67.5996
11
152.842
21
-67.5011
0
LINE
8
BLACK
6
CONTINUOUS
10
152.842
20
-67.5011
11
152.717
21
-67.3757
0
LINE
8
BLACK
6
CONTINUOUS
10
152.717
20
-67.3757
11
152.618
21
-67.2283
0
LINE
8
BLACK
6
CONTINUOUS
10
152.618
20
-67.2283
11
152.551
21
-67.0645
0
LINE
8
BLACK
6
CONTINUOUS
10
152.551
20
-67.0645
11
152.516
21
-66.8906
0
LINE
8
BLACK
6
CONTINUOUS
10
152.516
20
-66.8906
11
152.516
21
-66.7134
0
LINE
8
BLACK
6
CONTINUOUS
10
152.516
20
-66.7134
11
152.551
21
-66.5395
0
LINE
8
BLACK
6
CONTINUOUS
10
152.551
20
-66.5395
11
152.618
21
-66.3757
0
LINE
8
BLACK
6
CONTINUOUS
10
152.618
20
-66.3757
11
152.717
21
-66.2283
0
LINE
8
BLACK
6
CONTINUOUS
10
152.717
20
-66.2283
11
152.842
21
-66.1029
0
LINE
8
BLACK
6
CONTINUOUS
10
152.842
20
-66.1029
11
152.99
21
-66.0044
0
LINE
8
BLACK
6
CONTINUOUS
10
152.99
20
-66.0044
11
153.153
21
-65.9366
0
LINE
8
BLACK
6
CONTINUOUS
10
153.153
20
-65.9366
11
153.327
21
-65.902
0
LINE
8
BLACK
6
CONTINUOUS
10
153.327
20
-65.902
11
153.505
21
-65.902
0
LINE
8
BLACK
6
CONTINUOUS
10
153.505
20
-65.902
11
153.679
21
-65.9366
0
LINE
8
BLACK
6
CONTINUOUS
10
167.062
20
-64.5976
11
167.335
21
-64.7107
0
LINE
8
BLACK
6
CONTINUOUS
10
167.335
20
-64.7107
11
167.58
21
-64.8749
0
LINE
8
BLACK
6
CONTINUOUS
10
167.58
20
-64.8749
11
167.789
21
-65.0838
0
LINE
8
BLACK
6
CONTINUOUS
10
167.789
20
-65.0838
11
167.953
21
-65.3295
0
LINE
8
BLACK
6
CONTINUOUS
10
167.953
20
-65.3295
11
168.066
21
-65.6025
0
LINE
8
BLACK
6
CONTINUOUS
10
168.066
20
-65.6025
11
168.124
21
-65.8923
0
LINE
8
BLACK
6
CONTINUOUS
10
168.124
20
-65.8923
11
168.124
21
-66.1877
0
LINE
8
BLACK
6
CONTINUOUS
10
168.124
20
-66.1877
11
168.066
21
-66.4775
0
LINE
8
BLACK
6
CONTINUOUS
10
168.066
20
-66.4775
11
167.953
21
-66.7505
0
LINE
8
BLACK
6
CONTINUOUS
10
167.953
20
-66.7505
11
167.789
21
-66.9962
0
LINE
8
BLACK
6
CONTINUOUS
10
167.789
20
-66.9962
11
167.58
21
-67.2051
0
LINE
8
BLACK
6
CONTINUOUS
10
167.58
20
-67.2051
11
167.335
21
-67.3693
0
LINE
8
BLACK
6
CONTINUOUS
10
167.335
20
-67.3693
11
167.062
21
-67.4824
0
LINE
8
BLACK
6
CONTINUOUS
10
167.062
20
-67.4824
11
166.772
21
-67.54
0
LINE
8
BLACK
6
CONTINUOUS
10
166.772
20
-67.54
11
166.476
21
-67.54
0
LINE
8
BLACK
6
CONTINUOUS
10
166.476
20
-67.54
11
166.186
21
-67.4824
0
LINE
8
BLACK
6
CONTINUOUS
10
166.186
20
-67.4824
11
165.913
21
-67.3693
0
LINE
8
BLACK
6
CONTINUOUS
10
165.913
20
-67.3693
11
165.668
21
-67.2051
0
LINE
8
BLACK
6
CONTINUOUS
10
165.668
20
-67.2051
11
165.459
21
-66.9962
0
LINE
8
BLACK
6
CONTINUOUS
10
165.459
20
-66.9962
11
165.295
21
-66.7505
0
LINE
8
BLACK
6
CONTINUOUS
10
165.295
20
-66.7505
11
165.182
21
-66.4775
0
LINE
8
BLACK
6
CONTINUOUS
10
165.182
20
-66.4775
11
165.124
21
-66.1877
0
LINE
8
BLACK
6
CONTINUOUS
10
165.124
20
-66.1877
11
165.124
21
-65.8923
0
LINE
8
BLACK
6
CONTINUOUS
10
165.124
20
-65.8923
11
165.182
21
-65.6025
0
LINE
8
BLACK
6
CONTINUOUS
10
165.182
20
-65.6025
11
165.295
21
-65.3295
0
LINE
8
BLACK
6
CONTINUOUS
10
165.295
20
-65.3295
11
165.459
21
-65.0838
0
LINE
8
BLACK
6
CONTINUOUS
10
165.459
20
-65.0838
11
165.668
21
-64.8749
0
LINE
8
BLACK
6
CONTINUOUS
10
165.668
20
-64.8749
11
165.913
21
-64.7107
0
LINE
8
BLACK
6
CONTINUOUS
10
165.913
20
-64.7107
11
166.186
21
-64.5976
0
LINE
8
BLACK
6
CONTINUOUS
10
166.186
20
-64.5976
11
166.476
21
-64.54
0
LINE
8
BLACK
6
CONTINUOUS
10
166.476
20
-64.54
11
166.772
21
-64.54
0
LINE
8
BLACK
6
CONTINUOUS
10
166.772
20
-64.54
11
167.062
21
-64.5976
0
LINE
8
BLACK
6
CONTINUOUS
10
144.456
20
-67.494
11
142.056
21
-67.494
0
LINE
8
BLACK
6
CONTINUOUS
10
142.056
20
-67.494
11
142.056
21
-65.094
0
LINE
8
BLACK
6
CONTINUOUS
10
142.056
20
-65.094
11
144.456
21
-65.094
0
LINE
8
BLACK
6
CONTINUOUS
10
144.456
20
-65.094
11
144.456
21
-67.494
0
LINE
8
BLACK
6
CONTINUOUS
10
103.616
20
-67.402
11
101.616
21
-67.402
0
LINE
8
BLACK
6
CONTINUOUS
10
101.616
20
-67.402
11
101.616
21
-66.202
0
LINE
8
BLACK
6
CONTINUOUS
10
101.616
20
-66.202
11
103.616
21
-66.202
0
LINE
8
BLACK
6
CONTINUOUS
10
103.616
20
-66.202
11
103.616
21
-67.402
0
LINE
8
BLACK
6
CONTINUOUS
10
94.718
20
-65
11
91.718
21
-65
0
LINE
8
BLACK
6
CONTINUOUS
10
91.718
20
-65
11
91.718
21
-62
0
LINE
8
BLACK
6
CONTINUOUS
10
91.718
20
-62
11
94.718
21
-62
0
LINE
8
BLACK
6
CONTINUOUS
10
94.718
20
-62
11
94.718
21
-65
0
LINE
8
BLACK
6
CONTINUOUS
10
149.079
20
-57.7454
11
149.305
21
-57.814
0
LINE
8
BLACK
6
CONTINUOUS
10
149.305
20
-57.814
11
149.514
21
-57.9254
0
LINE
8
BLACK
6
CONTINUOUS
10
149.514
20
-57.9254
11
149.697
21
-58.0754
0
LINE
8
BLACK
6
CONTINUOUS
10
149.697
20
-58.0754
11
149.847
21
-58.2581
0
LINE
8
BLACK
6
CONTINUOUS
10
149.847
20
-58.2581
11
149.958
21
-58.4666
0
LINE
8
BLACK
6
CONTINUOUS
10
149.958
20
-58.4666
11
150.027
21
-58.6928
0
LINE
8
BLACK
6
CONTINUOUS
10
150.027
20
-58.6928
11
150.05
21
-58.928
0
LINE
8
BLACK
6
CONTINUOUS
10
150.05
20
-58.928
11
150.027
21
-59.1632
0
LINE
8
BLACK
6
CONTINUOUS
10
150.027
20
-59.1632
11
149.958
21
-59.3894
0
LINE
8
BLACK
6
CONTINUOUS
10
149.958
20
-59.3894
11
149.847
21
-59.5979
0
LINE
8
BLACK
6
CONTINUOUS
10
149.847
20
-59.5979
11
149.697
21
-59.7806
0
LINE
8
BLACK
6
CONTINUOUS
10
149.697
20
-59.7806
11
149.514
21
-59.9306
0
LINE
8
BLACK
6
CONTINUOUS
10
149.514
20
-59.9306
11
149.305
21
-60.042
0
LINE
8
BLACK
6
CONTINUOUS
10
149.305
20
-60.042
11
149.079
21
-60.1106
0
LINE
8
BLACK
6
CONTINUOUS
10
149.079
20
-60.1106
11
148.903
21
-60.128
0
LINE
8
BLACK
6
CONTINUOUS
10
148.903
20
-60.128
11
148.785
21
-60.128
0
LINE
8
BLACK
6
CONTINUOUS
10
148.785
20
-60.128
11
148.609
21
-60.1106
0
LINE
8
BLACK
6
CONTINUOUS
10
148.609
20
-60.1106
11
148.383
21
-60.042
0
LINE
8
BLACK
6
CONTINUOUS
10
148.383
20
-60.042
11
148.174
21
-59.9306
0
LINE
8
BLACK
6
CONTINUOUS
10
148.174
20
-59.9306
11
147.991
21
-59.7806
0
LINE
8
BLACK
6
CONTINUOUS
10
147.991
20
-59.7806
11
147.841
21
-59.5979
0
LINE
8
BLACK
6
CONTINUOUS
10
147.841
20
-59.5979
11
147.73
21
-59.3894
0
LINE
8
BLACK
6
CONTINUOUS
10
147.73
20
-59.3894
11
147.661
21
-59.1632
0
LINE
8
BLACK
6
CONTINUOUS
10
147.661
20
-59.1632
11
147.638
21
-58.928
0
LINE
8
BLACK
6
CONTINUOUS
10
147.638
20
-58.928
11
147.661
21
-58.6928
0
LINE
8
BLACK
6
CONTINUOUS
10
147.661
20
-58.6928
11
147.73
21
-58.4666
0
LINE
8
BLACK
6
CONTINUOUS
10
147.73
20
-58.4666
11
147.841
21
-58.2581
0
LINE
8
BLACK
6
CONTINUOUS
10
147.841
20
-58.2581
11
147.991
21
-58.0754
0
LINE
8
BLACK
6
CONTINUOUS
10
147.991
20
-58.0754
11
148.174
21
-57.9254
0
LINE
8
BLACK
6
CONTINUOUS
10
148.174
20
-57.9254
11
148.383
21
-57.814
0
LINE
8
BLACK
6
CONTINUOUS
10
148.383
20
-57.814
11
148.609
21
-57.7454
0
LINE
8
BLACK
6
CONTINUOUS
10
148.609
20
-57.7454
11
148.785
21
-57.728
0
LINE
8
BLACK
6
CONTINUOUS
10
148.785
20
-57.728
11
148.903
21
-57.728
0
LINE
8
BLACK
6
CONTINUOUS
10
148.903
20
-57.728
11
149.079
21
-57.7454
0
LINE
8
BLACK
6
CONTINUOUS
10
158.964
20
-58.312
11
153.964
21
-58.312
0
LINE
8
BLACK
6
CONTINUOUS
10
153.964
20
-58.312
11
153.964
21
-54.812
0
LINE
8
BLACK
6
CONTINUOUS
10
153.964
20
-54.812
11
158.964
21
-54.812
0
LINE
8
BLACK
6
CONTINUOUS
10
158.964
20
-54.812
11
158.964
21
-58.312
0
LINE
8
BLACK
6
CONTINUOUS
10
124.178
20
-57.11
11
120.678
21
-57.11
0
LINE
8
BLACK
6
CONTINUOUS
10
120.678
20
-57.11
11
120.678
21
-52.11
0
LINE
8
BLACK
6
CONTINUOUS
10
120.678
20
-52.11
11
124.178
21
-52.11
0
LINE
8
BLACK
6
CONTINUOUS
10
124.178
20
-52.11
11
124.178
21
-57.11
0
LINE
8
BLACK
6
CONTINUOUS
10
129.178
20
-57.11
11
125.678
21
-57.11
0
LINE
8
BLACK
6
CONTINUOUS
10
125.678
20
-57.11
11
125.678
21
-52.11
0
LINE
8
BLACK
6
CONTINUOUS
10
125.678
20
-52.11
11
129.178
21
-52.11
0
LINE
8
BLACK
6
CONTINUOUS
10
129.178
20
-52.11
11
129.178
21
-57.11
0
LINE
8
BLACK
6
CONTINUOUS
10
149.59
20
-55.918
11
147.59
21
-55.918
0
LINE
8
BLACK
6
CONTINUOUS
10
147.59
20
-55.918
11
147.59
21
-54.318
0
LINE
8
BLACK
6
CONTINUOUS
10
147.59
20
-54.318
11
149.59
21
-54.318
0
LINE
8
BLACK
6
CONTINUOUS
10
149.59
20
-54.318
11
149.59
21
-55.918
0
LINE
8
BLACK
6
CONTINUOUS
10
109.45
20
-55.602
11
106.45
21
-55.602
0
LINE
8
BLACK
6
CONTINUOUS
10
106.45
20
-55.602
11
106.45
21
-52.602
0
LINE
8
BLACK
6
CONTINUOUS
10
106.45
20
-52.602
11
109.45
21
-52.602
0
LINE
8
BLACK
6
CONTINUOUS
10
109.45
20
-52.602
11
109.45
21
-55.602
0
LINE
8
BLACK
6
CONTINUOUS
10
103.308
20
-52.6596
11
103.581
21
-52.7727
0
LINE
8
BLACK
6
CONTINUOUS
10
103.581
20
-52.7727
11
103.826
21
-52.9369
0
LINE
8
BLACK
6
CONTINUOUS
10
103.826
20
-52.9369
11
104.035
21
-53.1458
0
LINE
8
BLACK
6
CONTINUOUS
10
104.035
20
-53.1458
11
104.199
21
-53.3915
0
LINE
8
BLACK
6
CONTINUOUS
10
104.199
20
-53.3915
11
104.312
21
-53.6645
0
LINE
8
BLACK
6
CONTINUOUS
10
104.312
20
-53.6645
11
104.37
21
-53.9543
0
LINE
8
BLACK
6
CONTINUOUS
10
104.37
20
-53.9543
11
104.37
21
-54.2497
0
LINE
8
BLACK
6
CONTINUOUS
10
104.37
20
-54.2497
11
104.312
21
-54.5395
0
LINE
8
BLACK
6
CONTINUOUS
10
104.312
20
-54.5395
11
104.199
21
-54.8125
0
LINE
8
BLACK
6
CONTINUOUS
10
104.199
20
-54.8125
11
104.035
21
-55.0582
0
LINE
8
BLACK
6
CONTINUOUS
10
104.035
20
-55.0582
11
103.826
21
-55.2671
0
LINE
8
BLACK
6
CONTINUOUS
10
103.826
20
-55.2671
11
103.581
21
-55.4313
0
LINE
8
BLACK
6
CONTINUOUS
10
103.581
20
-55.4313
11
103.308
21
-55.5444
0
LINE
8
BLACK
6
CONTINUOUS
10
103.308
20
-55.5444
11
103.018
21
-55.602
0
LINE
8
BLACK
6
CONTINUOUS
10
103.018
20
-55.602
11
102.722
21
-55.602
0
LINE
8
BLACK
6
CONTINUOUS
10
102.722
20
-55.602
11
102.432
21
-55.5444
0
LINE
8
BLACK
6
CONTINUOUS
10
102.432
20
-55.5444
11
102.159
21
-55.4313
0
LINE
8
BLACK
6
CONTINUOUS
10
102.159
20
-55.4313
11
101.914
21
-55.2671
0
LINE
8
BLACK
6
CONTINUOUS
10
101.914
20
-55.2671
11
101.705
21
-55.0582
0
LINE
8
BLACK
6
CONTINUOUS
10
101.705
20
-55.0582
11
101.541
21
-54.8125
0
LINE
8
BLACK
6
CONTINUOUS
10
101.541
20
-54.8125
11
101.428
21
-54.5395
0
LINE
8
BLACK
6
CONTINUOUS
10
101.428
20
-54.5395
11
101.37
21
-54.2497
0
LINE
8
BLACK
6
CONTINUOUS
10
101.37
20
-54.2497
11
101.37
21
-53.9543
0
LINE
8
BLACK
6
CONTINUOUS
10
101.37
20
-53.9543
11
101.428
21
-53.6645
0
LINE
8
BLACK
6
CONTINUOUS
10
101.428
20
-53.6645
11
101.541
21
-53.3915
0
LINE
8
BLACK
6
CONTINUOUS
10
101.541
20
-53.3915
11
101.705
21
-53.1458
0
LINE
8
BLACK
6
CONTINUOUS
10
101.705
20
-53.1458
11
101.914
21
-52.9369
0
LINE
8
BLACK
6
CONTINUOUS
10
101.914
20
-52.9369
11
102.159
21
-52.7727
0
LINE
8
BLACK
6
CONTINUOUS
10
102.159
20
-52.7727
11
102.432
21
-52.6596
0
LINE
8
BLACK
6
CONTINUOUS
10
102.432
20
-52.6596
11
102.722
21
-52.602
0
LINE
8
BLACK
6
CONTINUOUS
10
102.722
20
-52.602
11
103.018
21
-52.602
0
LINE
8
BLACK
6
CONTINUOUS
10
103.018
20
-52.602
11
103.308
21
-52.6596
0
LINE
8
BLACK
6
CONTINUOUS
10
149.59
20
-53.378
11
147.59
21
-53.378
0
LINE
8
BLACK
6
CONTINUOUS
10
147.59
20
-53.378
11
147.59
21
-51.778
0
LINE
8
BLACK
6
CONTINUOUS
10
147.59
20
-51.778
11
149.59
21
-51.778
0
LINE
8
BLACK
6
CONTINUOUS
10
149.59
20
-51.778
11
149.59
21
-53.378
0
LINE
8
BLACK
6
CONTINUOUS
10
158.964
20
-53.312
11
153.964
21
-53.312
0
LINE
8
BLACK
6
CONTINUOUS
10
153.964
20
-53.312
11
153.964
21
-49.812
0
LINE
8
BLACK
6
CONTINUOUS
10
153.964
20
-49.812
11
158.964
21
-49.812
0
LINE
8
BLACK
6
CONTINUOUS
10
158.964
20
-49.812
11
158.964
21
-53.312
0
LINE
8
BLACK
6
CONTINUOUS
10
143.491
20
-49.8714
11
143.717
21
-49.94
0
LINE
8
BLACK
6
CONTINUOUS
10
143.717
20
-49.94
11
143.926
21
-50.0514
0
LINE
8
BLACK
6
CONTINUOUS
10
143.926
20
-50.0514
11
144.109
21
-50.2014
0
LINE
8
BLACK
6
CONTINUOUS
10
144.109
20
-50.2014
11
144.259
21
-50.3841
0
LINE
8
BLACK
6
CONTINUOUS
10
144.259
20
-50.3841
11
144.37
21
-50.5926
0
LINE
8
BLACK
6
CONTINUOUS
10
144.37
20
-50.5926
11
144.439
21
-50.8188
0
LINE
8
BLACK
6
CONTINUOUS
10
144.439
20
-50.8188
11
144.462
21
-51.054
0
LINE
8
BLACK
6
CONTINUOUS
10
144.462
20
-51.054
11
144.439
21
-51.2892
0
LINE
8
BLACK
6
CONTINUOUS
10
144.439
20
-51.2892
11
144.37
21
-51.5154
0
LINE
8
BLACK
6
CONTINUOUS
10
144.37
20
-51.5154
11
144.259
21
-51.7239
0
LINE
8
BLACK
6
CONTINUOUS
10
144.259
20
-51.7239
11
144.109
21
-51.9066
0
LINE
8
BLACK
6
CONTINUOUS
10
144.109
20
-51.9066
11
143.926
21
-52.0566
0
LINE
8
BLACK
6
CONTINUOUS
10
143.926
20
-52.0566
11
143.717
21
-52.168
0
LINE
8
BLACK
6
CONTINUOUS
10
143.717
20
-52.168
11
143.491
21
-52.2366
0
LINE
8
BLACK
6
CONTINUOUS
10
143.491
20
-52.2366
11
143.315
21
-52.254
0
LINE
8
BLACK
6
CONTINUOUS
10
143.315
20
-52.254
11
143.197
21
-52.254
0
LINE
8
BLACK
6
CONTINUOUS
10
143.197
20
-52.254
11
143.021
21
-52.2366
0
LINE
8
BLACK
6
CONTINUOUS
10
143.021
20
-52.2366
11
142.795
21
-52.168
0
LINE
8
BLACK
6
CONTINUOUS
10
142.795
20
-52.168
11
142.586
21
-52.0566
0
LINE
8
BLACK
6
CONTINUOUS
10
142.586
20
-52.0566
11
142.403
21
-51.9066
0
LINE
8
BLACK
6
CONTINUOUS
10
142.403
20
-51.9066
11
142.253
21
-51.7239
0
LINE
8
BLACK
6
CONTINUOUS
10
142.253
20
-51.7239
11
142.142
21
-51.5154
0
LINE
8
BLACK
6
CONTINUOUS
10
142.142
20
-51.5154
11
142.073
21
-51.2892
0
LINE
8
BLACK
6
CONTINUOUS
10
142.073
20
-51.2892
11
142.05
21
-51.054
0
LINE
8
BLACK
6
CONTINUOUS
10
142.05
20
-51.054
11
142.073
21
-50.8188
0
LINE
8
BLACK
6
CONTINUOUS
10
142.073
20
-50.8188
11
142.142
21
-50.5926
0
LINE
8
BLACK
6
CONTINUOUS
10
142.142
20
-50.5926
11
142.253
21
-50.3841
0
LINE
8
BLACK
6
CONTINUOUS
10
142.253
20
-50.3841
11
142.403
21
-50.2014
0
LINE
8
BLACK
6
CONTINUOUS
10
142.403
20
-50.2014
11
142.586
21
-50.0514
0
LINE
8
BLACK
6
CONTINUOUS
10
142.586
20
-50.0514
11
142.795
21
-49.94
0
LINE
8
BLACK
6
CONTINUOUS
10
142.795
20
-49.94
11
143.021
21
-49.8714
0
LINE
8
BLACK
6
CONTINUOUS
10
143.021
20
-49.8714
11
143.197
21
-49.854
0
LINE
8
BLACK
6
CONTINUOUS
10
143.197
20
-49.854
11
143.315
21
-49.854
0
LINE
8
BLACK
6
CONTINUOUS
10
143.315
20
-49.854
11
143.491
21
-49.8714
  0
ENDSEC
  0
EOF
