  0
SECTION
  2
HEADER
  9
$ANGBASE
  50
0.0
  9
$ANGDIR
  70
  1
  9
$MEASUREMENT
  70
0
  0
ENDSEC
  0
SECTION
  2
TABLES
  0
TABLE
  2
LTYPE
  70
4
  0
LTYPE
  5
40F
  2
CONTINUOUS
  70
0
  3
Solid line
  72
65
  73
0
  40
0.0
  0
LTYPE
  5
410
  2
DASHDOT
 70
0
  3
Dash Dot ____ _ ____ _
 72
65
 73
4
 40
2.0
 49
1.25
 49
-0.25
 49
0.25
 49
-0.25
  0
LTYPE
  5
411
  2
DASHED
 70
0
  3
Dashed __ __ __ __ __
 72
65
 73
2
 40
0.75
 49
0.5
 49
-0.25
  0
LTYPE
  5
43B
  2
DOTTED
 70
0
  3
Dotted .  .  .  .
 72
65
 73
2
 40
0.2
 49
0.0
 49
-0.2
  0
ENDTAB
  0
TABLE
  2
STYLE
  70
4
  0
STYLE
  2
KICAD
  70
0
  40
0
  41
1
  42
1
  50
0
  71
0
  3
isocp.shx
  0
STYLE
  2
KICADB
  70
0
  40
0
  41
1
  42
1
  50
0
  71
0
  3
isocp.shx
  0
STYLE
  2
KICADI
  70
0
  40
0
  41
1
  42
1
  50
15
  71
0
  3
isocp.shx
  0
STYLE
  2
KICADBI
  70
0
  40
0
  41
1
  42
1
  50
15
  71
0
  3
isocp.shx
  0
ENDTAB
  0
TABLE
  2
LAYER
  70
30
  0
LAYER
  2
BLACK
  70
0
  62
7
  6
CONTINUOUS
  0
LAYER
  2
GRAY1
  70
0
  62
251
  6
CONTINUOUS
  0
LAYER
  2
GRAY2
  70
0
  62
8
  6
CONTINUOUS
  0
LAYER
  2
GRAY3
  70
0
  62
9
  6
CONTINUOUS
  0
LAYER
  2
WHITE
  70
0
  62
7
  6
CONTINUOUS
  0
LAYER
  2
LYELLOW
  70
0
  62
51
  6
CONTINUOUS
  0
LAYER
  2
BLUE1
  70
0
  62
178
  6
CONTINUOUS
  0
LAYER
  2
GREEN1
  70
0
  62
98
  6
CONTINUOUS
  0
LAYER
  2
CYAN1
  70
0
  62
138
  6
CONTINUOUS
  0
LAYER
  2
RED1
  70
0
  62
18
  6
CONTINUOUS
  0
LAYER
  2
MAGENTA1
  70
0
  62
228
  6
CONTINUOUS
  0
LAYER
  2
BROWN1
  70
0
  62
58
  6
CONTINUOUS
  0
LAYER
  2
BLUE2
  70
0
  62
5
  6
CONTINUOUS
  0
LAYER
  2
GREEN2
  70
0
  62
3
  6
CONTINUOUS
  0
LAYER
  2
CYAN2
  70
0
  62
4
  6
CONTINUOUS
  0
LAYER
  2
RED2
  70
0
  62
1
  6
CONTINUOUS
  0
LAYER
  2
MAGENTA2
  70
0
  62
6
  6
CONTINUOUS
  0
LAYER
  2
BROWN2
  70
0
  62
54
  6
CONTINUOUS
  0
LAYER
  2
BLUE3
  70
0
  62
171
  6
CONTINUOUS
  0
LAYER
  2
GREEN3
  70
0
  62
91
  6
CONTINUOUS
  0
LAYER
  2
CYAN3
  70
0
  62
131
  6
CONTINUOUS
  0
LAYER
  2
RED3
  70
0
  62
11
  6
CONTINUOUS
  0
LAYER
  2
MAGENTA3
  70
0
  62
221
  6
CONTINUOUS
  0
LAYER
  2
YELLOW3
  70
0
  62
2
  6
CONTINUOUS
  0
LAYER
  2
BLUE4
  70
0
  62
5
  6
CONTINUOUS
  0
LAYER
  2
GREEN4
  70
0
  62
3
  6
CONTINUOUS
  0
LAYER
  2
CYAN4
  70
0
  62
4
  6
CONTINUOUS
  0
LAYER
  2
RED4
  70
0
  62
1
  6
CONTINUOUS
  0
LAYER
  2
MAGENTA4
  70
0
  62
6
  6
CONTINUOUS
  0
LAYER
  2
YELLOW4
  70
0
  62
2
  6
CONTINUOUS
  0
ENDTAB
  0
ENDSEC
  0
SECTION
  2
ENTITIES
0
LINE
8
BLACK
6
CONTINUOUS
10
174.523
20
-141.732
11
174.523
21
-141.733
0
LINE
8
BLACK
6
CONTINUOUS
10
174.523
20
-141.733
11
174.523
21
-141.737
0
LINE
8
BLACK
6
CONTINUOUS
10
174.523
20
-141.737
11
174.521
21
-141.742
0
LINE
8
BLACK
6
CONTINUOUS
10
174.521
20
-141.742
11
174.519
21
-141.746
0
LINE
8
BLACK
6
CONTINUOUS
10
174.519
20
-141.746
11
174.516
21
-141.75
0
LINE
8
BLACK
6
CONTINUOUS
10
174.516
20
-141.75
11
174.512
21
-141.753
0
LINE
8
BLACK
6
CONTINUOUS
10
174.512
20
-141.753
11
174.508
21
-141.755
0
LINE
8
BLACK
6
CONTINUOUS
10
174.508
20
-141.755
11
174.503
21
-141.757
0
LINE
8
BLACK
6
CONTINUOUS
10
174.503
20
-141.757
11
174.498
21
-141.757
0
LINE
8
BLACK
6
CONTINUOUS
10
174.498
20
-141.757
11
174.497
21
-141.757
0
LINE
8
BLACK
6
CONTINUOUS
10
174.497
20
-141.757
11
82.0432
21
-141.757
0
LINE
8
BLACK
6
CONTINUOUS
10
82.0432
20
-141.757
11
82.042
21
-141.757
0
LINE
8
BLACK
6
CONTINUOUS
10
82.042
20
-141.757
11
82.0408
21
-141.757
0
LINE
8
BLACK
6
CONTINUOUS
10
82.0408
20
-141.757
11
82.0408
21
-141.757
0
LINE
8
BLACK
6
CONTINUOUS
10
82.0408
20
-141.757
11
82.0371
21
-141.757
0
LINE
8
BLACK
6
CONTINUOUS
10
82.0371
20
-141.757
11
82.0324
21
-141.755
0
LINE
8
BLACK
6
CONTINUOUS
10
82.0324
20
-141.755
11
82.028
21
-141.753
0
LINE
8
BLACK
6
CONTINUOUS
10
82.028
20
-141.753
11
82.0242
21
-141.75
0
LINE
8
BLACK
6
CONTINUOUS
10
82.0242
20
-141.75
11
82.0211
21
-141.746
0
LINE
8
BLACK
6
CONTINUOUS
10
82.0211
20
-141.746
11
82.0188
21
-141.742
0
LINE
8
BLACK
6
CONTINUOUS
10
82.0188
20
-141.742
11
82.0174
21
-141.737
0
LINE
8
BLACK
6
CONTINUOUS
10
82.0174
20
-141.737
11
82.0169
21
-141.732
0
LINE
8
BLACK
6
CONTINUOUS
10
82.0169
20
-141.732
11
82.017
21
-141.731
0
LINE
8
BLACK
6
CONTINUOUS
10
82.017
20
-141.731
11
82.017
21
-46.4832
0
LINE
8
BLACK
6
CONTINUOUS
10
82.017
20
-46.4832
11
82.0169
21
-46.482
0
LINE
8
BLACK
6
CONTINUOUS
10
82.0169
20
-46.482
11
82.0174
21
-46.4771
0
LINE
8
BLACK
6
CONTINUOUS
10
82.0174
20
-46.4771
11
82.0188
21
-46.4724
0
LINE
8
BLACK
6
CONTINUOUS
10
82.0188
20
-46.4724
11
82.0211
21
-46.468
0
LINE
8
BLACK
6
CONTINUOUS
10
82.0211
20
-46.468
11
82.0242
21
-46.4642
0
LINE
8
BLACK
6
CONTINUOUS
10
82.0242
20
-46.4642
11
82.028
21
-46.4611
0
LINE
8
BLACK
6
CONTINUOUS
10
82.028
20
-46.4611
11
82.0324
21
-46.4588
0
LINE
8
BLACK
6
CONTINUOUS
10
82.0324
20
-46.4588
11
82.0371
21
-46.4574
0
LINE
8
BLACK
6
CONTINUOUS
10
82.0371
20
-46.4574
11
82.0408
21
-46.457
0
LINE
8
BLACK
6
CONTINUOUS
10
82.0408
20
-46.457
11
82.042
21
-46.4569
0
LINE
8
BLACK
6
CONTINUOUS
10
82.042
20
-46.4569
11
82.0432
21
-46.457
0
LINE
8
BLACK
6
CONTINUOUS
10
82.0432
20
-46.457
11
174.497
21
-46.457
0
LINE
8
BLACK
6
CONTINUOUS
10
174.497
20
-46.457
11
174.498
21
-46.4569
0
LINE
8
BLACK
6
CONTINUOUS
10
174.498
20
-46.4569
11
174.499
21
-46.457
0
LINE
8
BLACK
6
CONTINUOUS
10
174.499
20
-46.457
11
174.503
21
-46.4574
0
LINE
8
BLACK
6
CONTINUOUS
10
174.503
20
-46.4574
11
174.508
21
-46.4588
0
LINE
8
BLACK
6
CONTINUOUS
10
174.508
20
-46.4588
11
174.512
21
-46.4611
0
LINE
8
BLACK
6
CONTINUOUS
10
174.512
20
-46.4611
11
174.516
21
-46.4642
0
LINE
8
BLACK
6
CONTINUOUS
10
174.516
20
-46.4642
11
174.519
21
-46.468
0
LINE
8
BLACK
6
CONTINUOUS
10
174.519
20
-46.468
11
174.521
21
-46.4724
0
LINE
8
BLACK
6
CONTINUOUS
10
174.521
20
-46.4724
11
174.523
21
-46.4771
0
LINE
8
BLACK
6
CONTINUOUS
10
174.523
20
-46.4771
11
174.523
21
-46.482
0
LINE
8
BLACK
6
CONTINUOUS
10
174.523
20
-46.482
11
174.523
21
-46.4832
0
LINE
8
BLACK
6
CONTINUOUS
10
174.523
20
-46.4832
11
174.523
21
-141.731
0
LINE
8
BLACK
6
CONTINUOUS
10
174.523
20
-141.731
11
174.523
21
-141.732
0
LINE
8
BLACK
6
CONTINUOUS
10
174.473
20
-140.461
11
174.473
21
-140.461
0
LINE
8
BLACK
6
CONTINUOUS
10
174.473
20
-140.461
11
174.473
21
-138.175
0
LINE
8
BLACK
6
CONTINUOUS
10
174.473
20
-138.175
11
174.473
21
-138.175
0
LINE
8
BLACK
6
CONTINUOUS
10
174.473
20
-138.175
11
174.473
21
-46.507
0
LINE
8
BLACK
6
CONTINUOUS
10
174.473
20
-46.507
11
82.067
21
-46.507
0
LINE
8
BLACK
6
CONTINUOUS
10
82.067
20
-46.507
11
82.067
21
-141.707
0
LINE
8
BLACK
6
CONTINUOUS
10
82.067
20
-141.707
11
174.473
21
-141.707
0
LINE
8
BLACK
6
CONTINUOUS
10
174.473
20
-141.707
11
174.473
21
-140.461
  0
ENDSEC
  0
EOF
