M48
; DRILL file {KiCad (5.1.2)-2} date 1/26/2020 3:51:25 PM
; FORMAT={2:4/ absolute / inch / suppress leading zeros}
; #@! TF.CreationDate,2020-01-26T15:51:25+07:00
; #@! TF.GenerationSoftware,Kicad,Pcbnew,(5.1.2)-2
FMAT,2
INCH,TZ
T1C0.0315
T2C0.0354
T3C0.0394
T4C0.0433
T5C0.0472
T6C0.0598
%
G90
G05
T1
X29916Y-17800
X30900Y-17800
X32300Y-17800
X33284Y-17800
X25416Y-20900
X26400Y-20900
X15300Y-31016
X15300Y-32000
X25300Y-17800
X26284Y-17800
X25300Y-19300
X26284Y-19300
X27616Y-17800
X28600Y-17800
T2
X36000Y-19100
X37000Y-19100
T3
X28300Y-35800
X29300Y-35800
X30300Y-35800
X31300Y-35800
X32300Y-35800
X33300Y-35800
X20800Y-35700
X21800Y-35700
X22800Y-35700
X23800Y-35700
X24800Y-35700
X25800Y-35700
X40500Y-27700
X40500Y-28700
X40500Y-29700
X40500Y-30700
X40500Y-31700
X25800Y-24300
X25800Y-25300
X25800Y-26300
X25800Y-27300
X25800Y-28300
X25800Y-29300
X25800Y-30300
X25800Y-31300
X28800Y-24300
X28800Y-25300
X28800Y-26300
X28800Y-27300
X28800Y-28300
X28800Y-29300
X28800Y-30300
X28800Y-31300
X30800Y-21900
X30800Y-22900
X30800Y-23900
X30800Y-24900
X30800Y-25900
X30800Y-26900
X30800Y-27900
X30800Y-28900
X30800Y-29900
X30800Y-30900
X30800Y-31900
X30800Y-32900
X37217Y-22900
X37217Y-23900
X37217Y-24900
X37217Y-25900
X37217Y-26900
X37217Y-27900
X37217Y-28900
X37217Y-29900
X37217Y-30900
X37217Y-31900
X17283Y-22800
X17283Y-23800
X17283Y-24800
X17283Y-25800
X17283Y-26800
X17283Y-27800
X17283Y-28800
X17283Y-29800
X17283Y-30800
X17283Y-31800
X23700Y-21800
X23700Y-22800
X23700Y-23800
X23700Y-24800
X23700Y-25800
X23700Y-26800
X23700Y-27800
X23700Y-28800
X23700Y-29800
X23700Y-30800
X23700Y-31800
X23700Y-32800
X15000Y-23000
X15000Y-24000
X15000Y-25000
X15000Y-26000
X15000Y-27000
X15000Y-28000
X15000Y-29000
T4
X21100Y-18700
X22100Y-18700
X23100Y-18700
T5
X28200Y-19900
X34200Y-19900
T6
X15600Y-18500
X17600Y-18500
T0
M30
