  0
SECTION
  2
HEADER
  9
$ANGBASE
  50
0.0
  9
$ANGDIR
  70
  1
  9
$MEASUREMENT
  70
0
  0
ENDSEC
  0
SECTION
  2
TABLES
  0
TABLE
  2
LTYPE
  70
4
  0
LTYPE
  5
40F
  2
CONTINUOUS
  70
0
  3
Solid line
  72
65
  73
0
  40
0.0
  0
LTYPE
  5
410
  2
DASHDOT
 70
0
  3
Dash Dot ____ _ ____ _
 72
65
 73
4
 40
2.0
 49
1.25
 49
-0.25
 49
0.25
 49
-0.25
  0
LTYPE
  5
411
  2
DASHED
 70
0
  3
Dashed __ __ __ __ __
 72
65
 73
2
 40
0.75
 49
0.5
 49
-0.25
  0
LTYPE
  5
43B
  2
DOTTED
 70
0
  3
Dotted .  .  .  .
 72
65
 73
2
 40
0.2
 49
0.0
 49
-0.2
  0
ENDTAB
  0
TABLE
  2
STYLE
  70
4
  0
STYLE
  2
KICAD
  70
0
  40
0
  41
1
  42
1
  50
0
  71
0
  3
isocp.shx
  0
STYLE
  2
KICADB
  70
0
  40
0
  41
1
  42
1
  50
0
  71
0
  3
isocp.shx
  0
STYLE
  2
KICADI
  70
0
  40
0
  41
1
  42
1
  50
15
  71
0
  3
isocp.shx
  0
STYLE
  2
KICADBI
  70
0
  40
0
  41
1
  42
1
  50
15
  71
0
  3
isocp.shx
  0
ENDTAB
  0
TABLE
  2
LAYER
  70
30
  0
LAYER
  2
BLACK
  70
0
  62
7
  6
CONTINUOUS
  0
LAYER
  2
GRAY1
  70
0
  62
251
  6
CONTINUOUS
  0
LAYER
  2
GRAY2
  70
0
  62
8
  6
CONTINUOUS
  0
LAYER
  2
GRAY3
  70
0
  62
9
  6
CONTINUOUS
  0
LAYER
  2
WHITE
  70
0
  62
7
  6
CONTINUOUS
  0
LAYER
  2
LYELLOW
  70
0
  62
51
  6
CONTINUOUS
  0
LAYER
  2
BLUE1
  70
0
  62
178
  6
CONTINUOUS
  0
LAYER
  2
GREEN1
  70
0
  62
98
  6
CONTINUOUS
  0
LAYER
  2
CYAN1
  70
0
  62
138
  6
CONTINUOUS
  0
LAYER
  2
RED1
  70
0
  62
18
  6
CONTINUOUS
  0
LAYER
  2
MAGENTA1
  70
0
  62
228
  6
CONTINUOUS
  0
LAYER
  2
BROWN1
  70
0
  62
58
  6
CONTINUOUS
  0
LAYER
  2
BLUE2
  70
0
  62
5
  6
CONTINUOUS
  0
LAYER
  2
GREEN2
  70
0
  62
3
  6
CONTINUOUS
  0
LAYER
  2
CYAN2
  70
0
  62
4
  6
CONTINUOUS
  0
LAYER
  2
RED2
  70
0
  62
1
  6
CONTINUOUS
  0
LAYER
  2
MAGENTA2
  70
0
  62
6
  6
CONTINUOUS
  0
LAYER
  2
BROWN2
  70
0
  62
54
  6
CONTINUOUS
  0
LAYER
  2
BLUE3
  70
0
  62
171
  6
CONTINUOUS
  0
LAYER
  2
GREEN3
  70
0
  62
91
  6
CONTINUOUS
  0
LAYER
  2
CYAN3
  70
0
  62
131
  6
CONTINUOUS
  0
LAYER
  2
RED3
  70
0
  62
11
  6
CONTINUOUS
  0
LAYER
  2
MAGENTA3
  70
0
  62
221
  6
CONTINUOUS
  0
LAYER
  2
YELLOW3
  70
0
  62
2
  6
CONTINUOUS
  0
LAYER
  2
BLUE4
  70
0
  62
5
  6
CONTINUOUS
  0
LAYER
  2
GREEN4
  70
0
  62
3
  6
CONTINUOUS
  0
LAYER
  2
CYAN4
  70
0
  62
4
  6
CONTINUOUS
  0
LAYER
  2
RED4
  70
0
  62
1
  6
CONTINUOUS
  0
LAYER
  2
MAGENTA4
  70
0
  62
6
  6
CONTINUOUS
  0
LAYER
  2
YELLOW4
  70
0
  62
2
  6
CONTINUOUS
  0
ENDTAB
  0
ENDSEC
  0
SECTION
  2
ENTITIES
0
LINE
8
BLACK
6
CONTINUOUS
10
85.282
20
-91.932
11
83.882
21
-91.932
0
LINE
8
BLACK
6
CONTINUOUS
10
83.882
20
-91.932
11
83.882
21
-89.932
0
LINE
8
BLACK
6
CONTINUOUS
10
83.882
20
-89.932
11
85.282
21
-89.932
0
LINE
8
BLACK
6
CONTINUOUS
10
85.282
20
-89.932
11
85.282
21
-91.932
0
LINE
8
BLACK
6
CONTINUOUS
10
82.742
20
-91.932
11
81.342
21
-91.932
0
LINE
8
BLACK
6
CONTINUOUS
10
81.342
20
-91.932
11
81.342
21
-89.932
0
LINE
8
BLACK
6
CONTINUOUS
10
81.342
20
-89.932
11
82.742
21
-89.932
0
LINE
8
BLACK
6
CONTINUOUS
10
82.742
20
-89.932
11
82.742
21
-91.932
0
LINE
8
BLACK
6
CONTINUOUS
10
72.582
20
-91.932
11
71.182
21
-91.932
0
LINE
8
BLACK
6
CONTINUOUS
10
71.182
20
-91.932
11
71.182
21
-89.932
0
LINE
8
BLACK
6
CONTINUOUS
10
71.182
20
-89.932
11
72.582
21
-89.932
0
LINE
8
BLACK
6
CONTINUOUS
10
72.582
20
-89.932
11
72.582
21
-91.932
0
LINE
8
BLACK
6
CONTINUOUS
10
75.122
20
-91.932
11
73.722
21
-91.932
0
LINE
8
BLACK
6
CONTINUOUS
10
73.722
20
-91.932
11
73.722
21
-89.932
0
LINE
8
BLACK
6
CONTINUOUS
10
73.722
20
-89.932
11
75.122
21
-89.932
0
LINE
8
BLACK
6
CONTINUOUS
10
75.122
20
-89.932
11
75.122
21
-91.932
0
LINE
8
BLACK
6
CONTINUOUS
10
77.662
20
-91.932
11
76.262
21
-91.932
0
LINE
8
BLACK
6
CONTINUOUS
10
76.262
20
-91.932
11
76.262
21
-89.932
0
LINE
8
BLACK
6
CONTINUOUS
10
76.262
20
-89.932
11
77.662
21
-89.932
0
LINE
8
BLACK
6
CONTINUOUS
10
77.662
20
-89.932
11
77.662
21
-91.932
0
LINE
8
BLACK
6
CONTINUOUS
10
80.202
20
-91.932
11
78.802
21
-91.932
0
LINE
8
BLACK
6
CONTINUOUS
10
78.802
20
-91.932
11
78.802
21
-89.932
0
LINE
8
BLACK
6
CONTINUOUS
10
78.802
20
-89.932
11
80.202
21
-89.932
0
LINE
8
BLACK
6
CONTINUOUS
10
80.202
20
-89.932
11
80.202
21
-91.932
0
LINE
8
BLACK
6
CONTINUOUS
10
61.152
20
-91.678
11
59.752
21
-91.678
0
LINE
8
BLACK
6
CONTINUOUS
10
59.752
20
-91.678
11
59.752
21
-89.678
0
LINE
8
BLACK
6
CONTINUOUS
10
59.752
20
-89.678
11
61.152
21
-89.678
0
LINE
8
BLACK
6
CONTINUOUS
10
61.152
20
-89.678
11
61.152
21
-91.678
0
LINE
8
BLACK
6
CONTINUOUS
10
63.692
20
-91.678
11
62.292
21
-91.678
0
LINE
8
BLACK
6
CONTINUOUS
10
62.292
20
-91.678
11
62.292
21
-89.678
0
LINE
8
BLACK
6
CONTINUOUS
10
62.292
20
-89.678
11
63.692
21
-89.678
0
LINE
8
BLACK
6
CONTINUOUS
10
63.692
20
-89.678
11
63.692
21
-91.678
0
LINE
8
BLACK
6
CONTINUOUS
10
66.232
20
-91.678
11
64.832
21
-91.678
0
LINE
8
BLACK
6
CONTINUOUS
10
64.832
20
-91.678
11
64.832
21
-89.678
0
LINE
8
BLACK
6
CONTINUOUS
10
64.832
20
-89.678
11
66.232
21
-89.678
0
LINE
8
BLACK
6
CONTINUOUS
10
66.232
20
-89.678
11
66.232
21
-91.678
0
LINE
8
BLACK
6
CONTINUOUS
10
58.612
20
-91.678
11
57.212
21
-91.678
0
LINE
8
BLACK
6
CONTINUOUS
10
57.212
20
-91.678
11
57.212
21
-89.678
0
LINE
8
BLACK
6
CONTINUOUS
10
57.212
20
-89.678
11
58.612
21
-89.678
0
LINE
8
BLACK
6
CONTINUOUS
10
58.612
20
-89.678
11
58.612
21
-91.678
0
LINE
8
BLACK
6
CONTINUOUS
10
56.072
20
-91.678
11
54.672
21
-91.678
0
LINE
8
BLACK
6
CONTINUOUS
10
54.672
20
-91.678
11
54.672
21
-89.678
0
LINE
8
BLACK
6
CONTINUOUS
10
54.672
20
-89.678
11
56.072
21
-89.678
0
LINE
8
BLACK
6
CONTINUOUS
10
56.072
20
-89.678
11
56.072
21
-91.678
0
LINE
8
BLACK
6
CONTINUOUS
10
53.532
20
-91.678
11
52.132
21
-91.678
0
LINE
8
BLACK
6
CONTINUOUS
10
52.132
20
-91.678
11
52.132
21
-89.678
0
LINE
8
BLACK
6
CONTINUOUS
10
52.132
20
-89.678
11
53.532
21
-89.678
0
LINE
8
BLACK
6
CONTINUOUS
10
53.532
20
-89.678
11
53.532
21
-91.678
0
LINE
8
BLACK
6
CONTINUOUS
10
79.232
20
-84.366
11
77.232
21
-84.366
0
LINE
8
BLACK
6
CONTINUOUS
10
77.232
20
-84.366
11
77.232
21
-82.766
0
LINE
8
BLACK
6
CONTINUOUS
10
77.232
20
-82.766
11
79.232
21
-82.766
0
LINE
8
BLACK
6
CONTINUOUS
10
79.232
20
-82.766
11
79.232
21
-84.366
0
LINE
8
BLACK
6
CONTINUOUS
10
61.198
20
-84.012
11
59.198
21
-84.012
0
LINE
8
BLACK
6
CONTINUOUS
10
59.198
20
-84.012
11
59.198
21
-82.612
0
LINE
8
BLACK
6
CONTINUOUS
10
59.198
20
-82.612
11
61.198
21
-82.612
0
LINE
8
BLACK
6
CONTINUOUS
10
61.198
20
-82.612
11
61.198
21
-84.012
0
LINE
8
BLACK
6
CONTINUOUS
10
39.0954
20
-80.5107
11
39.2409
21
-80.571
0
LINE
8
BLACK
6
CONTINUOUS
10
39.2409
20
-80.571
11
39.372
21
-80.6586
0
LINE
8
BLACK
6
CONTINUOUS
10
39.372
20
-80.6586
11
39.4834
21
-80.77
0
LINE
8
BLACK
6
CONTINUOUS
10
39.4834
20
-80.77
11
39.571
21
-80.9011
0
LINE
8
BLACK
6
CONTINUOUS
10
39.571
20
-80.9011
11
39.6313
21
-81.0466
0
LINE
8
BLACK
6
CONTINUOUS
10
39.6313
20
-81.0466
11
39.662
21
-81.2012
0
LINE
8
BLACK
6
CONTINUOUS
10
39.662
20
-81.2012
11
39.662
21
-81.3588
0
LINE
8
BLACK
6
CONTINUOUS
10
39.662
20
-81.3588
11
39.6313
21
-81.5134
0
LINE
8
BLACK
6
CONTINUOUS
10
39.6313
20
-81.5134
11
39.571
21
-81.6589
0
LINE
8
BLACK
6
CONTINUOUS
10
39.571
20
-81.6589
11
39.4834
21
-81.79
0
LINE
8
BLACK
6
CONTINUOUS
10
39.4834
20
-81.79
11
39.372
21
-81.9014
0
LINE
8
BLACK
6
CONTINUOUS
10
39.372
20
-81.9014
11
39.2409
21
-81.989
0
LINE
8
BLACK
6
CONTINUOUS
10
39.2409
20
-81.989
11
39.0954
21
-82.0493
0
LINE
8
BLACK
6
CONTINUOUS
10
39.0954
20
-82.0493
11
38.9408
21
-82.08
0
LINE
8
BLACK
6
CONTINUOUS
10
38.9408
20
-82.08
11
38.7832
21
-82.08
0
LINE
8
BLACK
6
CONTINUOUS
10
38.7832
20
-82.08
11
38.6286
21
-82.0493
0
LINE
8
BLACK
6
CONTINUOUS
10
38.6286
20
-82.0493
11
38.4831
21
-81.989
0
LINE
8
BLACK
6
CONTINUOUS
10
38.4831
20
-81.989
11
38.352
21
-81.9014
0
LINE
8
BLACK
6
CONTINUOUS
10
38.352
20
-81.9014
11
38.2406
21
-81.79
0
LINE
8
BLACK
6
CONTINUOUS
10
38.2406
20
-81.79
11
38.153
21
-81.6589
0
LINE
8
BLACK
6
CONTINUOUS
10
38.153
20
-81.6589
11
38.0927
21
-81.5134
0
LINE
8
BLACK
6
CONTINUOUS
10
38.0927
20
-81.5134
11
38.062
21
-81.3588
0
LINE
8
BLACK
6
CONTINUOUS
10
38.062
20
-81.3588
11
38.062
21
-81.2012
0
LINE
8
BLACK
6
CONTINUOUS
10
38.062
20
-81.2012
11
38.0927
21
-81.0466
0
LINE
8
BLACK
6
CONTINUOUS
10
38.0927
20
-81.0466
11
38.153
21
-80.9011
0
LINE
8
BLACK
6
CONTINUOUS
10
38.153
20
-80.9011
11
38.2406
21
-80.77
0
LINE
8
BLACK
6
CONTINUOUS
10
38.2406
20
-80.77
11
38.352
21
-80.6586
0
LINE
8
BLACK
6
CONTINUOUS
10
38.352
20
-80.6586
11
38.4831
21
-80.571
0
LINE
8
BLACK
6
CONTINUOUS
10
38.4831
20
-80.571
11
38.6286
21
-80.5107
0
LINE
8
BLACK
6
CONTINUOUS
10
38.6286
20
-80.5107
11
38.7832
21
-80.48
0
LINE
8
BLACK
6
CONTINUOUS
10
38.7832
20
-80.48
11
38.9408
21
-80.48
0
LINE
8
BLACK
6
CONTINUOUS
10
38.9408
20
-80.48
11
39.0954
21
-80.5107
0
LINE
8
BLACK
6
CONTINUOUS
10
95.532
20
-81.826
11
93.532
21
-81.826
0
LINE
8
BLACK
6
CONTINUOUS
10
93.532
20
-81.826
11
93.532
21
-80.226
0
LINE
8
BLACK
6
CONTINUOUS
10
93.532
20
-80.226
11
95.532
21
-80.226
0
LINE
8
BLACK
6
CONTINUOUS
10
95.532
20
-80.226
11
95.532
21
-81.826
0
LINE
8
BLACK
6
CONTINUOUS
10
79.232
20
-81.826
11
77.232
21
-81.826
0
LINE
8
BLACK
6
CONTINUOUS
10
77.232
20
-81.826
11
77.232
21
-80.226
0
LINE
8
BLACK
6
CONTINUOUS
10
77.232
20
-80.226
11
79.232
21
-80.226
0
LINE
8
BLACK
6
CONTINUOUS
10
79.232
20
-80.226
11
79.232
21
-81.826
0
LINE
8
BLACK
6
CONTINUOUS
10
44.898
20
-81.572
11
42.898
21
-81.572
0
LINE
8
BLACK
6
CONTINUOUS
10
42.898
20
-81.572
11
42.898
21
-79.972
0
LINE
8
BLACK
6
CONTINUOUS
10
42.898
20
-79.972
11
44.898
21
-79.972
0
LINE
8
BLACK
6
CONTINUOUS
10
44.898
20
-79.972
11
44.898
21
-81.572
0
LINE
8
BLACK
6
CONTINUOUS
10
61.198
20
-81.472
11
59.198
21
-81.472
0
LINE
8
BLACK
6
CONTINUOUS
10
59.198
20
-81.472
11
59.198
21
-80.072
0
LINE
8
BLACK
6
CONTINUOUS
10
59.198
20
-80.072
11
61.198
21
-80.072
0
LINE
8
BLACK
6
CONTINUOUS
10
61.198
20
-80.072
11
61.198
21
-81.472
0
LINE
8
BLACK
6
CONTINUOUS
10
103.037
20
-79.6803
11
103.197
21
-79.7289
0
LINE
8
BLACK
6
CONTINUOUS
10
103.197
20
-79.7289
11
103.345
21
-79.8078
0
LINE
8
BLACK
6
CONTINUOUS
10
103.345
20
-79.8078
11
103.474
21
-79.9141
0
LINE
8
BLACK
6
CONTINUOUS
10
103.474
20
-79.9141
11
103.58
21
-80.0435
0
LINE
8
BLACK
6
CONTINUOUS
10
103.58
20
-80.0435
11
103.659
21
-80.1911
0
LINE
8
BLACK
6
CONTINUOUS
10
103.659
20
-80.1911
11
103.708
21
-80.3514
0
LINE
8
BLACK
6
CONTINUOUS
10
103.708
20
-80.3514
11
103.724
21
-80.518
0
LINE
8
BLACK
6
CONTINUOUS
10
103.724
20
-80.518
11
103.708
21
-80.6846
0
LINE
8
BLACK
6
CONTINUOUS
10
103.708
20
-80.6846
11
103.659
21
-80.8449
0
LINE
8
BLACK
6
CONTINUOUS
10
103.659
20
-80.8449
11
103.58
21
-80.9925
0
LINE
8
BLACK
6
CONTINUOUS
10
103.58
20
-80.9925
11
103.474
21
-81.1219
0
LINE
8
BLACK
6
CONTINUOUS
10
103.474
20
-81.1219
11
103.345
21
-81.2282
0
LINE
8
BLACK
6
CONTINUOUS
10
103.345
20
-81.2282
11
103.197
21
-81.3071
0
LINE
8
BLACK
6
CONTINUOUS
10
103.197
20
-81.3071
11
103.037
21
-81.3557
0
LINE
8
BLACK
6
CONTINUOUS
10
103.037
20
-81.3557
11
102.912
21
-81.368
0
LINE
8
BLACK
6
CONTINUOUS
10
102.912
20
-81.368
11
102.828
21
-81.368
0
LINE
8
BLACK
6
CONTINUOUS
10
102.828
20
-81.368
11
102.703
21
-81.3557
0
LINE
8
BLACK
6
CONTINUOUS
10
102.703
20
-81.3557
11
102.543
21
-81.3071
0
LINE
8
BLACK
6
CONTINUOUS
10
102.543
20
-81.3071
11
102.395
21
-81.2282
0
LINE
8
BLACK
6
CONTINUOUS
10
102.395
20
-81.2282
11
102.266
21
-81.1219
0
LINE
8
BLACK
6
CONTINUOUS
10
102.266
20
-81.1219
11
102.16
21
-80.9925
0
LINE
8
BLACK
6
CONTINUOUS
10
102.16
20
-80.9925
11
102.081
21
-80.8449
0
LINE
8
BLACK
6
CONTINUOUS
10
102.081
20
-80.8449
11
102.032
21
-80.6846
0
LINE
8
BLACK
6
CONTINUOUS
10
102.032
20
-80.6846
11
102.016
21
-80.518
0
LINE
8
BLACK
6
CONTINUOUS
10
102.016
20
-80.518
11
102.032
21
-80.3514
0
LINE
8
BLACK
6
CONTINUOUS
10
102.032
20
-80.3514
11
102.081
21
-80.1911
0
LINE
8
BLACK
6
CONTINUOUS
10
102.081
20
-80.1911
11
102.16
21
-80.0435
0
LINE
8
BLACK
6
CONTINUOUS
10
102.16
20
-80.0435
11
102.266
21
-79.9141
0
LINE
8
BLACK
6
CONTINUOUS
10
102.266
20
-79.9141
11
102.395
21
-79.8078
0
LINE
8
BLACK
6
CONTINUOUS
10
102.395
20
-79.8078
11
102.543
21
-79.7289
0
LINE
8
BLACK
6
CONTINUOUS
10
102.543
20
-79.7289
11
102.703
21
-79.6803
0
LINE
8
BLACK
6
CONTINUOUS
10
102.703
20
-79.6803
11
102.828
21
-79.668
0
LINE
8
BLACK
6
CONTINUOUS
10
102.828
20
-79.668
11
102.912
21
-79.668
0
LINE
8
BLACK
6
CONTINUOUS
10
102.912
20
-79.668
11
103.037
21
-79.6803
0
LINE
8
BLACK
6
CONTINUOUS
10
66.532
20
-80.202
11
64.532
21
-80.202
0
LINE
8
BLACK
6
CONTINUOUS
10
64.532
20
-80.202
11
64.532
21
-78.802
0
LINE
8
BLACK
6
CONTINUOUS
10
64.532
20
-78.802
11
66.532
21
-78.802
0
LINE
8
BLACK
6
CONTINUOUS
10
66.532
20
-78.802
11
66.532
21
-80.202
0
LINE
8
BLACK
6
CONTINUOUS
10
74.152
20
-80.202
11
72.152
21
-80.202
0
LINE
8
BLACK
6
CONTINUOUS
10
72.152
20
-80.202
11
72.152
21
-78.802
0
LINE
8
BLACK
6
CONTINUOUS
10
72.152
20
-78.802
11
74.152
21
-78.802
0
LINE
8
BLACK
6
CONTINUOUS
10
74.152
20
-78.802
11
74.152
21
-80.202
0
LINE
8
BLACK
6
CONTINUOUS
10
39.0954
20
-78.0107
11
39.2409
21
-78.071
0
LINE
8
BLACK
6
CONTINUOUS
10
39.2409
20
-78.071
11
39.372
21
-78.1586
0
LINE
8
BLACK
6
CONTINUOUS
10
39.372
20
-78.1586
11
39.4834
21
-78.27
0
LINE
8
BLACK
6
CONTINUOUS
10
39.4834
20
-78.27
11
39.571
21
-78.4011
0
LINE
8
BLACK
6
CONTINUOUS
10
39.571
20
-78.4011
11
39.6313
21
-78.5466
0
LINE
8
BLACK
6
CONTINUOUS
10
39.6313
20
-78.5466
11
39.662
21
-78.7012
0
LINE
8
BLACK
6
CONTINUOUS
10
39.662
20
-78.7012
11
39.662
21
-78.8588
0
LINE
8
BLACK
6
CONTINUOUS
10
39.662
20
-78.8588
11
39.6313
21
-79.0134
0
LINE
8
BLACK
6
CONTINUOUS
10
39.6313
20
-79.0134
11
39.571
21
-79.1589
0
LINE
8
BLACK
6
CONTINUOUS
10
39.571
20
-79.1589
11
39.4834
21
-79.29
0
LINE
8
BLACK
6
CONTINUOUS
10
39.4834
20
-79.29
11
39.372
21
-79.4014
0
LINE
8
BLACK
6
CONTINUOUS
10
39.372
20
-79.4014
11
39.2409
21
-79.489
0
LINE
8
BLACK
6
CONTINUOUS
10
39.2409
20
-79.489
11
39.0954
21
-79.5493
0
LINE
8
BLACK
6
CONTINUOUS
10
39.0954
20
-79.5493
11
38.9408
21
-79.58
0
LINE
8
BLACK
6
CONTINUOUS
10
38.9408
20
-79.58
11
38.7832
21
-79.58
0
LINE
8
BLACK
6
CONTINUOUS
10
38.7832
20
-79.58
11
38.6286
21
-79.5493
0
LINE
8
BLACK
6
CONTINUOUS
10
38.6286
20
-79.5493
11
38.4831
21
-79.489
0
LINE
8
BLACK
6
CONTINUOUS
10
38.4831
20
-79.489
11
38.352
21
-79.4014
0
LINE
8
BLACK
6
CONTINUOUS
10
38.352
20
-79.4014
11
38.2406
21
-79.29
0
LINE
8
BLACK
6
CONTINUOUS
10
38.2406
20
-79.29
11
38.153
21
-79.1589
0
LINE
8
BLACK
6
CONTINUOUS
10
38.153
20
-79.1589
11
38.0927
21
-79.0134
0
LINE
8
BLACK
6
CONTINUOUS
10
38.0927
20
-79.0134
11
38.062
21
-78.8588
0
LINE
8
BLACK
6
CONTINUOUS
10
38.062
20
-78.8588
11
38.062
21
-78.7012
0
LINE
8
BLACK
6
CONTINUOUS
10
38.062
20
-78.7012
11
38.0927
21
-78.5466
0
LINE
8
BLACK
6
CONTINUOUS
10
38.0927
20
-78.5466
11
38.153
21
-78.4011
0
LINE
8
BLACK
6
CONTINUOUS
10
38.153
20
-78.4011
11
38.2406
21
-78.27
0
LINE
8
BLACK
6
CONTINUOUS
10
38.2406
20
-78.27
11
38.352
21
-78.1586
0
LINE
8
BLACK
6
CONTINUOUS
10
38.352
20
-78.1586
11
38.4831
21
-78.071
0
LINE
8
BLACK
6
CONTINUOUS
10
38.4831
20
-78.071
11
38.6286
21
-78.0107
0
LINE
8
BLACK
6
CONTINUOUS
10
38.6286
20
-78.0107
11
38.7832
21
-77.98
0
LINE
8
BLACK
6
CONTINUOUS
10
38.7832
20
-77.98
11
38.9408
21
-77.98
0
LINE
8
BLACK
6
CONTINUOUS
10
38.9408
20
-77.98
11
39.0954
21
-78.0107
0
LINE
8
BLACK
6
CONTINUOUS
10
95.532
20
-79.286
11
93.532
21
-79.286
0
LINE
8
BLACK
6
CONTINUOUS
10
93.532
20
-79.286
11
93.532
21
-77.686
0
LINE
8
BLACK
6
CONTINUOUS
10
93.532
20
-77.686
11
95.532
21
-77.686
0
LINE
8
BLACK
6
CONTINUOUS
10
95.532
20
-77.686
11
95.532
21
-79.286
0
LINE
8
BLACK
6
CONTINUOUS
10
79.232
20
-79.286
11
77.232
21
-79.286
0
LINE
8
BLACK
6
CONTINUOUS
10
77.232
20
-79.286
11
77.232
21
-77.686
0
LINE
8
BLACK
6
CONTINUOUS
10
77.232
20
-77.686
11
79.232
21
-77.686
0
LINE
8
BLACK
6
CONTINUOUS
10
79.232
20
-77.686
11
79.232
21
-79.286
0
LINE
8
BLACK
6
CONTINUOUS
10
44.898
20
-79.032
11
42.898
21
-79.032
0
LINE
8
BLACK
6
CONTINUOUS
10
42.898
20
-79.032
11
42.898
21
-77.432
0
LINE
8
BLACK
6
CONTINUOUS
10
42.898
20
-77.432
11
44.898
21
-77.432
0
LINE
8
BLACK
6
CONTINUOUS
10
44.898
20
-77.432
11
44.898
21
-79.032
0
LINE
8
BLACK
6
CONTINUOUS
10
61.198
20
-78.932
11
59.198
21
-78.932
0
LINE
8
BLACK
6
CONTINUOUS
10
59.198
20
-78.932
11
59.198
21
-77.532
0
LINE
8
BLACK
6
CONTINUOUS
10
59.198
20
-77.532
11
61.198
21
-77.532
0
LINE
8
BLACK
6
CONTINUOUS
10
61.198
20
-77.532
11
61.198
21
-78.932
0
LINE
8
BLACK
6
CONTINUOUS
10
103.037
20
-77.1403
11
103.197
21
-77.1889
0
LINE
8
BLACK
6
CONTINUOUS
10
103.197
20
-77.1889
11
103.345
21
-77.2678
0
LINE
8
BLACK
6
CONTINUOUS
10
103.345
20
-77.2678
11
103.474
21
-77.3741
0
LINE
8
BLACK
6
CONTINUOUS
10
103.474
20
-77.3741
11
103.58
21
-77.5035
0
LINE
8
BLACK
6
CONTINUOUS
10
103.58
20
-77.5035
11
103.659
21
-77.6511
0
LINE
8
BLACK
6
CONTINUOUS
10
103.659
20
-77.6511
11
103.708
21
-77.8114
0
LINE
8
BLACK
6
CONTINUOUS
10
103.708
20
-77.8114
11
103.724
21
-77.978
0
LINE
8
BLACK
6
CONTINUOUS
10
103.724
20
-77.978
11
103.708
21
-78.1446
0
LINE
8
BLACK
6
CONTINUOUS
10
103.708
20
-78.1446
11
103.659
21
-78.3049
0
LINE
8
BLACK
6
CONTINUOUS
10
103.659
20
-78.3049
11
103.58
21
-78.4525
0
LINE
8
BLACK
6
CONTINUOUS
10
103.58
20
-78.4525
11
103.474
21
-78.5819
0
LINE
8
BLACK
6
CONTINUOUS
10
103.474
20
-78.5819
11
103.345
21
-78.6882
0
LINE
8
BLACK
6
CONTINUOUS
10
103.345
20
-78.6882
11
103.197
21
-78.7671
0
LINE
8
BLACK
6
CONTINUOUS
10
103.197
20
-78.7671
11
103.037
21
-78.8157
0
LINE
8
BLACK
6
CONTINUOUS
10
103.037
20
-78.8157
11
102.912
21
-78.828
0
LINE
8
BLACK
6
CONTINUOUS
10
102.912
20
-78.828
11
102.828
21
-78.828
0
LINE
8
BLACK
6
CONTINUOUS
10
102.828
20
-78.828
11
102.703
21
-78.8157
0
LINE
8
BLACK
6
CONTINUOUS
10
102.703
20
-78.8157
11
102.543
21
-78.7671
0
LINE
8
BLACK
6
CONTINUOUS
10
102.543
20
-78.7671
11
102.395
21
-78.6882
0
LINE
8
BLACK
6
CONTINUOUS
10
102.395
20
-78.6882
11
102.266
21
-78.5819
0
LINE
8
BLACK
6
CONTINUOUS
10
102.266
20
-78.5819
11
102.16
21
-78.4525
0
LINE
8
BLACK
6
CONTINUOUS
10
102.16
20
-78.4525
11
102.081
21
-78.3049
0
LINE
8
BLACK
6
CONTINUOUS
10
102.081
20
-78.3049
11
102.032
21
-78.1446
0
LINE
8
BLACK
6
CONTINUOUS
10
102.032
20
-78.1446
11
102.016
21
-77.978
0
LINE
8
BLACK
6
CONTINUOUS
10
102.016
20
-77.978
11
102.032
21
-77.8114
0
LINE
8
BLACK
6
CONTINUOUS
10
102.032
20
-77.8114
11
102.081
21
-77.6511
0
LINE
8
BLACK
6
CONTINUOUS
10
102.081
20
-77.6511
11
102.16
21
-77.5035
0
LINE
8
BLACK
6
CONTINUOUS
10
102.16
20
-77.5035
11
102.266
21
-77.3741
0
LINE
8
BLACK
6
CONTINUOUS
10
102.266
20
-77.3741
11
102.395
21
-77.2678
0
LINE
8
BLACK
6
CONTINUOUS
10
102.395
20
-77.2678
11
102.543
21
-77.1889
0
LINE
8
BLACK
6
CONTINUOUS
10
102.543
20
-77.1889
11
102.703
21
-77.1403
0
LINE
8
BLACK
6
CONTINUOUS
10
102.703
20
-77.1403
11
102.828
21
-77.128
0
LINE
8
BLACK
6
CONTINUOUS
10
102.828
20
-77.128
11
102.912
21
-77.128
0
LINE
8
BLACK
6
CONTINUOUS
10
102.912
20
-77.128
11
103.037
21
-77.1403
0
LINE
8
BLACK
6
CONTINUOUS
10
74.152
20
-77.662
11
72.152
21
-77.662
0
LINE
8
BLACK
6
CONTINUOUS
10
72.152
20
-77.662
11
72.152
21
-76.262
0
LINE
8
BLACK
6
CONTINUOUS
10
72.152
20
-76.262
11
74.152
21
-76.262
0
LINE
8
BLACK
6
CONTINUOUS
10
74.152
20
-76.262
11
74.152
21
-77.662
0
LINE
8
BLACK
6
CONTINUOUS
10
66.532
20
-77.662
11
64.532
21
-77.662
0
LINE
8
BLACK
6
CONTINUOUS
10
64.532
20
-77.662
11
64.532
21
-76.262
0
LINE
8
BLACK
6
CONTINUOUS
10
64.532
20
-76.262
11
66.532
21
-76.262
0
LINE
8
BLACK
6
CONTINUOUS
10
66.532
20
-76.262
11
66.532
21
-77.662
0
LINE
8
BLACK
6
CONTINUOUS
10
79.232
20
-76.746
11
77.232
21
-76.746
0
LINE
8
BLACK
6
CONTINUOUS
10
77.232
20
-76.746
11
77.232
21
-75.146
0
LINE
8
BLACK
6
CONTINUOUS
10
77.232
20
-75.146
11
79.232
21
-75.146
0
LINE
8
BLACK
6
CONTINUOUS
10
79.232
20
-75.146
11
79.232
21
-76.746
0
LINE
8
BLACK
6
CONTINUOUS
10
95.532
20
-76.746
11
93.532
21
-76.746
0
LINE
8
BLACK
6
CONTINUOUS
10
93.532
20
-76.746
11
93.532
21
-75.146
0
LINE
8
BLACK
6
CONTINUOUS
10
93.532
20
-75.146
11
95.532
21
-75.146
0
LINE
8
BLACK
6
CONTINUOUS
10
95.532
20
-75.146
11
95.532
21
-76.746
0
LINE
8
BLACK
6
CONTINUOUS
10
44.898
20
-76.492
11
42.898
21
-76.492
0
LINE
8
BLACK
6
CONTINUOUS
10
42.898
20
-76.492
11
42.898
21
-74.892
0
LINE
8
BLACK
6
CONTINUOUS
10
42.898
20
-74.892
11
44.898
21
-74.892
0
LINE
8
BLACK
6
CONTINUOUS
10
44.898
20
-74.892
11
44.898
21
-76.492
0
LINE
8
BLACK
6
CONTINUOUS
10
61.198
20
-76.392
11
59.198
21
-76.392
0
LINE
8
BLACK
6
CONTINUOUS
10
59.198
20
-76.392
11
59.198
21
-74.992
0
LINE
8
BLACK
6
CONTINUOUS
10
59.198
20
-74.992
11
61.198
21
-74.992
0
LINE
8
BLACK
6
CONTINUOUS
10
61.198
20
-74.992
11
61.198
21
-76.392
0
LINE
8
BLACK
6
CONTINUOUS
10
103.037
20
-74.6003
11
103.197
21
-74.6489
0
LINE
8
BLACK
6
CONTINUOUS
10
103.197
20
-74.6489
11
103.345
21
-74.7278
0
LINE
8
BLACK
6
CONTINUOUS
10
103.345
20
-74.7278
11
103.474
21
-74.8341
0
LINE
8
BLACK
6
CONTINUOUS
10
103.474
20
-74.8341
11
103.58
21
-74.9635
0
LINE
8
BLACK
6
CONTINUOUS
10
103.58
20
-74.9635
11
103.659
21
-75.1111
0
LINE
8
BLACK
6
CONTINUOUS
10
103.659
20
-75.1111
11
103.708
21
-75.2714
0
LINE
8
BLACK
6
CONTINUOUS
10
103.708
20
-75.2714
11
103.724
21
-75.438
0
LINE
8
BLACK
6
CONTINUOUS
10
103.724
20
-75.438
11
103.708
21
-75.6046
0
LINE
8
BLACK
6
CONTINUOUS
10
103.708
20
-75.6046
11
103.659
21
-75.7649
0
LINE
8
BLACK
6
CONTINUOUS
10
103.659
20
-75.7649
11
103.58
21
-75.9125
0
LINE
8
BLACK
6
CONTINUOUS
10
103.58
20
-75.9125
11
103.474
21
-76.0419
0
LINE
8
BLACK
6
CONTINUOUS
10
103.474
20
-76.0419
11
103.345
21
-76.1482
0
LINE
8
BLACK
6
CONTINUOUS
10
103.345
20
-76.1482
11
103.197
21
-76.2271
0
LINE
8
BLACK
6
CONTINUOUS
10
103.197
20
-76.2271
11
103.037
21
-76.2757
0
LINE
8
BLACK
6
CONTINUOUS
10
103.037
20
-76.2757
11
102.912
21
-76.288
0
LINE
8
BLACK
6
CONTINUOUS
10
102.912
20
-76.288
11
102.828
21
-76.288
0
LINE
8
BLACK
6
CONTINUOUS
10
102.828
20
-76.288
11
102.703
21
-76.2757
0
LINE
8
BLACK
6
CONTINUOUS
10
102.703
20
-76.2757
11
102.543
21
-76.2271
0
LINE
8
BLACK
6
CONTINUOUS
10
102.543
20
-76.2271
11
102.395
21
-76.1482
0
LINE
8
BLACK
6
CONTINUOUS
10
102.395
20
-76.1482
11
102.266
21
-76.0419
0
LINE
8
BLACK
6
CONTINUOUS
10
102.266
20
-76.0419
11
102.16
21
-75.9125
0
LINE
8
BLACK
6
CONTINUOUS
10
102.16
20
-75.9125
11
102.081
21
-75.7649
0
LINE
8
BLACK
6
CONTINUOUS
10
102.081
20
-75.7649
11
102.032
21
-75.6046
0
LINE
8
BLACK
6
CONTINUOUS
10
102.032
20
-75.6046
11
102.016
21
-75.438
0
LINE
8
BLACK
6
CONTINUOUS
10
102.016
20
-75.438
11
102.032
21
-75.2714
0
LINE
8
BLACK
6
CONTINUOUS
10
102.032
20
-75.2714
11
102.081
21
-75.1111
0
LINE
8
BLACK
6
CONTINUOUS
10
102.081
20
-75.1111
11
102.16
21
-74.9635
0
LINE
8
BLACK
6
CONTINUOUS
10
102.16
20
-74.9635
11
102.266
21
-74.8341
0
LINE
8
BLACK
6
CONTINUOUS
10
102.266
20
-74.8341
11
102.395
21
-74.7278
0
LINE
8
BLACK
6
CONTINUOUS
10
102.395
20
-74.7278
11
102.543
21
-74.6489
0
LINE
8
BLACK
6
CONTINUOUS
10
102.543
20
-74.6489
11
102.703
21
-74.6003
0
LINE
8
BLACK
6
CONTINUOUS
10
102.703
20
-74.6003
11
102.828
21
-74.588
0
LINE
8
BLACK
6
CONTINUOUS
10
102.828
20
-74.588
11
102.912
21
-74.588
0
LINE
8
BLACK
6
CONTINUOUS
10
102.912
20
-74.588
11
103.037
21
-74.6003
0
LINE
8
BLACK
6
CONTINUOUS
10
66.532
20
-75.122
11
64.532
21
-75.122
0
LINE
8
BLACK
6
CONTINUOUS
10
64.532
20
-75.122
11
64.532
21
-73.722
0
LINE
8
BLACK
6
CONTINUOUS
10
64.532
20
-73.722
11
66.532
21
-73.722
0
LINE
8
BLACK
6
CONTINUOUS
10
66.532
20
-73.722
11
66.532
21
-75.122
0
LINE
8
BLACK
6
CONTINUOUS
10
74.152
20
-75.122
11
72.152
21
-75.122
0
LINE
8
BLACK
6
CONTINUOUS
10
72.152
20
-75.122
11
72.152
21
-73.722
0
LINE
8
BLACK
6
CONTINUOUS
10
72.152
20
-73.722
11
74.152
21
-73.722
0
LINE
8
BLACK
6
CONTINUOUS
10
74.152
20
-73.722
11
74.152
21
-75.122
0
LINE
8
BLACK
6
CONTINUOUS
10
38.95
20
-74.51
11
37.25
21
-74.51
0
LINE
8
BLACK
6
CONTINUOUS
10
37.25
20
-74.51
11
37.25
21
-72.81
0
LINE
8
BLACK
6
CONTINUOUS
10
37.25
20
-72.81
11
38.95
21
-72.81
0
LINE
8
BLACK
6
CONTINUOUS
10
38.95
20
-72.81
11
38.95
21
-74.51
0
LINE
8
BLACK
6
CONTINUOUS
10
79.232
20
-74.206
11
77.232
21
-74.206
0
LINE
8
BLACK
6
CONTINUOUS
10
77.232
20
-74.206
11
77.232
21
-72.606
0
LINE
8
BLACK
6
CONTINUOUS
10
77.232
20
-72.606
11
79.232
21
-72.606
0
LINE
8
BLACK
6
CONTINUOUS
10
79.232
20
-72.606
11
79.232
21
-74.206
0
LINE
8
BLACK
6
CONTINUOUS
10
95.532
20
-74.206
11
93.532
21
-74.206
0
LINE
8
BLACK
6
CONTINUOUS
10
93.532
20
-74.206
11
93.532
21
-72.606
0
LINE
8
BLACK
6
CONTINUOUS
10
93.532
20
-72.606
11
95.532
21
-72.606
0
LINE
8
BLACK
6
CONTINUOUS
10
95.532
20
-72.606
11
95.532
21
-74.206
0
LINE
8
BLACK
6
CONTINUOUS
10
44.898
20
-73.952
11
42.898
21
-73.952
0
LINE
8
BLACK
6
CONTINUOUS
10
42.898
20
-73.952
11
42.898
21
-72.352
0
LINE
8
BLACK
6
CONTINUOUS
10
42.898
20
-72.352
11
44.898
21
-72.352
0
LINE
8
BLACK
6
CONTINUOUS
10
44.898
20
-72.352
11
44.898
21
-73.952
0
LINE
8
BLACK
6
CONTINUOUS
10
61.198
20
-73.852
11
59.198
21
-73.852
0
LINE
8
BLACK
6
CONTINUOUS
10
59.198
20
-73.852
11
59.198
21
-72.452
0
LINE
8
BLACK
6
CONTINUOUS
10
59.198
20
-72.452
11
61.198
21
-72.452
0
LINE
8
BLACK
6
CONTINUOUS
10
61.198
20
-72.452
11
61.198
21
-73.852
0
LINE
8
BLACK
6
CONTINUOUS
10
103.037
20
-72.0603
11
103.197
21
-72.1089
0
LINE
8
BLACK
6
CONTINUOUS
10
103.197
20
-72.1089
11
103.345
21
-72.1878
0
LINE
8
BLACK
6
CONTINUOUS
10
103.345
20
-72.1878
11
103.474
21
-72.2941
0
LINE
8
BLACK
6
CONTINUOUS
10
103.474
20
-72.2941
11
103.58
21
-72.4235
0
LINE
8
BLACK
6
CONTINUOUS
10
103.58
20
-72.4235
11
103.659
21
-72.5711
0
LINE
8
BLACK
6
CONTINUOUS
10
103.659
20
-72.5711
11
103.708
21
-72.7314
0
LINE
8
BLACK
6
CONTINUOUS
10
103.708
20
-72.7314
11
103.724
21
-72.898
0
LINE
8
BLACK
6
CONTINUOUS
10
103.724
20
-72.898
11
103.708
21
-73.0646
0
LINE
8
BLACK
6
CONTINUOUS
10
103.708
20
-73.0646
11
103.659
21
-73.2249
0
LINE
8
BLACK
6
CONTINUOUS
10
103.659
20
-73.2249
11
103.58
21
-73.3725
0
LINE
8
BLACK
6
CONTINUOUS
10
103.58
20
-73.3725
11
103.474
21
-73.5019
0
LINE
8
BLACK
6
CONTINUOUS
10
103.474
20
-73.5019
11
103.345
21
-73.6082
0
LINE
8
BLACK
6
CONTINUOUS
10
103.345
20
-73.6082
11
103.197
21
-73.6871
0
LINE
8
BLACK
6
CONTINUOUS
10
103.197
20
-73.6871
11
103.037
21
-73.7357
0
LINE
8
BLACK
6
CONTINUOUS
10
103.037
20
-73.7357
11
102.912
21
-73.748
0
LINE
8
BLACK
6
CONTINUOUS
10
102.912
20
-73.748
11
102.828
21
-73.748
0
LINE
8
BLACK
6
CONTINUOUS
10
102.828
20
-73.748
11
102.703
21
-73.7357
0
LINE
8
BLACK
6
CONTINUOUS
10
102.703
20
-73.7357
11
102.543
21
-73.6871
0
LINE
8
BLACK
6
CONTINUOUS
10
102.543
20
-73.6871
11
102.395
21
-73.6082
0
LINE
8
BLACK
6
CONTINUOUS
10
102.395
20
-73.6082
11
102.266
21
-73.5019
0
LINE
8
BLACK
6
CONTINUOUS
10
102.266
20
-73.5019
11
102.16
21
-73.3725
0
LINE
8
BLACK
6
CONTINUOUS
10
102.16
20
-73.3725
11
102.081
21
-73.2249
0
LINE
8
BLACK
6
CONTINUOUS
10
102.081
20
-73.2249
11
102.032
21
-73.0646
0
LINE
8
BLACK
6
CONTINUOUS
10
102.032
20
-73.0646
11
102.016
21
-72.898
0
LINE
8
BLACK
6
CONTINUOUS
10
102.016
20
-72.898
11
102.032
21
-72.7314
0
LINE
8
BLACK
6
CONTINUOUS
10
102.032
20
-72.7314
11
102.081
21
-72.5711
0
LINE
8
BLACK
6
CONTINUOUS
10
102.081
20
-72.5711
11
102.16
21
-72.4235
0
LINE
8
BLACK
6
CONTINUOUS
10
102.16
20
-72.4235
11
102.266
21
-72.2941
0
LINE
8
BLACK
6
CONTINUOUS
10
102.266
20
-72.2941
11
102.395
21
-72.1878
0
LINE
8
BLACK
6
CONTINUOUS
10
102.395
20
-72.1878
11
102.543
21
-72.1089
0
LINE
8
BLACK
6
CONTINUOUS
10
102.543
20
-72.1089
11
102.703
21
-72.0603
0
LINE
8
BLACK
6
CONTINUOUS
10
102.703
20
-72.0603
11
102.828
21
-72.048
0
LINE
8
BLACK
6
CONTINUOUS
10
102.828
20
-72.048
11
102.912
21
-72.048
0
LINE
8
BLACK
6
CONTINUOUS
10
102.912
20
-72.048
11
103.037
21
-72.0603
0
LINE
8
BLACK
6
CONTINUOUS
10
66.532
20
-72.582
11
64.532
21
-72.582
0
LINE
8
BLACK
6
CONTINUOUS
10
64.532
20
-72.582
11
64.532
21
-71.182
0
LINE
8
BLACK
6
CONTINUOUS
10
64.532
20
-71.182
11
66.532
21
-71.182
0
LINE
8
BLACK
6
CONTINUOUS
10
66.532
20
-71.182
11
66.532
21
-72.582
0
LINE
8
BLACK
6
CONTINUOUS
10
74.152
20
-72.582
11
72.152
21
-72.582
0
LINE
8
BLACK
6
CONTINUOUS
10
72.152
20
-72.582
11
72.152
21
-71.182
0
LINE
8
BLACK
6
CONTINUOUS
10
72.152
20
-71.182
11
74.152
21
-71.182
0
LINE
8
BLACK
6
CONTINUOUS
10
74.152
20
-71.182
11
74.152
21
-72.582
0
LINE
8
BLACK
6
CONTINUOUS
10
38.2666
20
-70.2823
11
38.4269
21
-70.3309
0
LINE
8
BLACK
6
CONTINUOUS
10
38.4269
20
-70.3309
11
38.5745
21
-70.4098
0
LINE
8
BLACK
6
CONTINUOUS
10
38.5745
20
-70.4098
11
38.7039
21
-70.5161
0
LINE
8
BLACK
6
CONTINUOUS
10
38.7039
20
-70.5161
11
38.8102
21
-70.6455
0
LINE
8
BLACK
6
CONTINUOUS
10
38.8102
20
-70.6455
11
38.8891
21
-70.7931
0
LINE
8
BLACK
6
CONTINUOUS
10
38.8891
20
-70.7931
11
38.9377
21
-70.9534
0
LINE
8
BLACK
6
CONTINUOUS
10
38.9377
20
-70.9534
11
38.9541
21
-71.12
0
LINE
8
BLACK
6
CONTINUOUS
10
38.9541
20
-71.12
11
38.9377
21
-71.2866
0
LINE
8
BLACK
6
CONTINUOUS
10
38.9377
20
-71.2866
11
38.8891
21
-71.4469
0
LINE
8
BLACK
6
CONTINUOUS
10
38.8891
20
-71.4469
11
38.8102
21
-71.5945
0
LINE
8
BLACK
6
CONTINUOUS
10
38.8102
20
-71.5945
11
38.7039
21
-71.7239
0
LINE
8
BLACK
6
CONTINUOUS
10
38.7039
20
-71.7239
11
38.5745
21
-71.8302
0
LINE
8
BLACK
6
CONTINUOUS
10
38.5745
20
-71.8302
11
38.4269
21
-71.9091
0
LINE
8
BLACK
6
CONTINUOUS
10
38.4269
20
-71.9091
11
38.2666
21
-71.9577
0
LINE
8
BLACK
6
CONTINUOUS
10
38.2666
20
-71.9577
11
38.1417
21
-71.97
0
LINE
8
BLACK
6
CONTINUOUS
10
38.1417
20
-71.97
11
38.0583
21
-71.97
0
LINE
8
BLACK
6
CONTINUOUS
10
38.0583
20
-71.97
11
37.9334
21
-71.9577
0
LINE
8
BLACK
6
CONTINUOUS
10
37.9334
20
-71.9577
11
37.7731
21
-71.9091
0
LINE
8
BLACK
6
CONTINUOUS
10
37.7731
20
-71.9091
11
37.6255
21
-71.8302
0
LINE
8
BLACK
6
CONTINUOUS
10
37.6255
20
-71.8302
11
37.4961
21
-71.7239
0
LINE
8
BLACK
6
CONTINUOUS
10
37.4961
20
-71.7239
11
37.3898
21
-71.5945
0
LINE
8
BLACK
6
CONTINUOUS
10
37.3898
20
-71.5945
11
37.3109
21
-71.4469
0
LINE
8
BLACK
6
CONTINUOUS
10
37.3109
20
-71.4469
11
37.2623
21
-71.2866
0
LINE
8
BLACK
6
CONTINUOUS
10
37.2623
20
-71.2866
11
37.2459
21
-71.12
0
LINE
8
BLACK
6
CONTINUOUS
10
37.2459
20
-71.12
11
37.2623
21
-70.9534
0
LINE
8
BLACK
6
CONTINUOUS
10
37.2623
20
-70.9534
11
37.3109
21
-70.7931
0
LINE
8
BLACK
6
CONTINUOUS
10
37.3109
20
-70.7931
11
37.3898
21
-70.6455
0
LINE
8
BLACK
6
CONTINUOUS
10
37.3898
20
-70.6455
11
37.4961
21
-70.5161
0
LINE
8
BLACK
6
CONTINUOUS
10
37.4961
20
-70.5161
11
37.6255
21
-70.4098
0
LINE
8
BLACK
6
CONTINUOUS
10
37.6255
20
-70.4098
11
37.7731
21
-70.3309
0
LINE
8
BLACK
6
CONTINUOUS
10
37.7731
20
-70.3309
11
37.9334
21
-70.2823
0
LINE
8
BLACK
6
CONTINUOUS
10
37.9334
20
-70.2823
11
38.0583
21
-70.27
0
LINE
8
BLACK
6
CONTINUOUS
10
38.0583
20
-70.27
11
38.1417
21
-70.27
0
LINE
8
BLACK
6
CONTINUOUS
10
38.1417
20
-70.27
11
38.2666
21
-70.2823
0
LINE
8
BLACK
6
CONTINUOUS
10
95.532
20
-71.666
11
93.532
21
-71.666
0
LINE
8
BLACK
6
CONTINUOUS
10
93.532
20
-71.666
11
93.532
21
-70.066
0
LINE
8
BLACK
6
CONTINUOUS
10
93.532
20
-70.066
11
95.532
21
-70.066
0
LINE
8
BLACK
6
CONTINUOUS
10
95.532
20
-70.066
11
95.532
21
-71.666
0
LINE
8
BLACK
6
CONTINUOUS
10
79.232
20
-71.666
11
77.232
21
-71.666
0
LINE
8
BLACK
6
CONTINUOUS
10
77.232
20
-71.666
11
77.232
21
-70.066
0
LINE
8
BLACK
6
CONTINUOUS
10
77.232
20
-70.066
11
79.232
21
-70.066
0
LINE
8
BLACK
6
CONTINUOUS
10
79.232
20
-70.066
11
79.232
21
-71.666
0
LINE
8
BLACK
6
CONTINUOUS
10
44.898
20
-71.412
11
42.898
21
-71.412
0
LINE
8
BLACK
6
CONTINUOUS
10
42.898
20
-71.412
11
42.898
21
-69.812
0
LINE
8
BLACK
6
CONTINUOUS
10
42.898
20
-69.812
11
44.898
21
-69.812
0
LINE
8
BLACK
6
CONTINUOUS
10
44.898
20
-69.812
11
44.898
21
-71.412
0
LINE
8
BLACK
6
CONTINUOUS
10
61.198
20
-71.312
11
59.198
21
-71.312
0
LINE
8
BLACK
6
CONTINUOUS
10
59.198
20
-71.312
11
59.198
21
-69.912
0
LINE
8
BLACK
6
CONTINUOUS
10
59.198
20
-69.912
11
61.198
21
-69.912
0
LINE
8
BLACK
6
CONTINUOUS
10
61.198
20
-69.912
11
61.198
21
-71.312
0
LINE
8
BLACK
6
CONTINUOUS
10
103.72
20
-71.208
11
102.02
21
-71.208
0
LINE
8
BLACK
6
CONTINUOUS
10
102.02
20
-71.208
11
102.02
21
-69.508
0
LINE
8
BLACK
6
CONTINUOUS
10
102.02
20
-69.508
11
103.72
21
-69.508
0
LINE
8
BLACK
6
CONTINUOUS
10
103.72
20
-69.508
11
103.72
21
-71.208
0
LINE
8
BLACK
6
CONTINUOUS
10
74.152
20
-70.042
11
72.152
21
-70.042
0
LINE
8
BLACK
6
CONTINUOUS
10
72.152
20
-70.042
11
72.152
21
-68.642
0
LINE
8
BLACK
6
CONTINUOUS
10
72.152
20
-68.642
11
74.152
21
-68.642
0
LINE
8
BLACK
6
CONTINUOUS
10
74.152
20
-68.642
11
74.152
21
-70.042
0
LINE
8
BLACK
6
CONTINUOUS
10
66.532
20
-70.042
11
64.532
21
-70.042
0
LINE
8
BLACK
6
CONTINUOUS
10
64.532
20
-70.042
11
64.532
21
-68.642
0
LINE
8
BLACK
6
CONTINUOUS
10
64.532
20
-68.642
11
66.532
21
-68.642
0
LINE
8
BLACK
6
CONTINUOUS
10
66.532
20
-68.642
11
66.532
21
-70.042
0
LINE
8
BLACK
6
CONTINUOUS
10
38.2666
20
-67.7423
11
38.4269
21
-67.7909
0
LINE
8
BLACK
6
CONTINUOUS
10
38.4269
20
-67.7909
11
38.5745
21
-67.8698
0
LINE
8
BLACK
6
CONTINUOUS
10
38.5745
20
-67.8698
11
38.7039
21
-67.9761
0
LINE
8
BLACK
6
CONTINUOUS
10
38.7039
20
-67.9761
11
38.8102
21
-68.1055
0
LINE
8
BLACK
6
CONTINUOUS
10
38.8102
20
-68.1055
11
38.8891
21
-68.2531
0
LINE
8
BLACK
6
CONTINUOUS
10
38.8891
20
-68.2531
11
38.9377
21
-68.4134
0
LINE
8
BLACK
6
CONTINUOUS
10
38.9377
20
-68.4134
11
38.9541
21
-68.58
0
LINE
8
BLACK
6
CONTINUOUS
10
38.9541
20
-68.58
11
38.9377
21
-68.7466
0
LINE
8
BLACK
6
CONTINUOUS
10
38.9377
20
-68.7466
11
38.8891
21
-68.9069
0
LINE
8
BLACK
6
CONTINUOUS
10
38.8891
20
-68.9069
11
38.8102
21
-69.0545
0
LINE
8
BLACK
6
CONTINUOUS
10
38.8102
20
-69.0545
11
38.7039
21
-69.1839
0
LINE
8
BLACK
6
CONTINUOUS
10
38.7039
20
-69.1839
11
38.5745
21
-69.2902
0
LINE
8
BLACK
6
CONTINUOUS
10
38.5745
20
-69.2902
11
38.4269
21
-69.3691
0
LINE
8
BLACK
6
CONTINUOUS
10
38.4269
20
-69.3691
11
38.2666
21
-69.4177
0
LINE
8
BLACK
6
CONTINUOUS
10
38.2666
20
-69.4177
11
38.1417
21
-69.43
0
LINE
8
BLACK
6
CONTINUOUS
10
38.1417
20
-69.43
11
38.0583
21
-69.43
0
LINE
8
BLACK
6
CONTINUOUS
10
38.0583
20
-69.43
11
37.9334
21
-69.4177
0
LINE
8
BLACK
6
CONTINUOUS
10
37.9334
20
-69.4177
11
37.7731
21
-69.3691
0
LINE
8
BLACK
6
CONTINUOUS
10
37.7731
20
-69.3691
11
37.6255
21
-69.2902
0
LINE
8
BLACK
6
CONTINUOUS
10
37.6255
20
-69.2902
11
37.4961
21
-69.1839
0
LINE
8
BLACK
6
CONTINUOUS
10
37.4961
20
-69.1839
11
37.3898
21
-69.0545
0
LINE
8
BLACK
6
CONTINUOUS
10
37.3898
20
-69.0545
11
37.3109
21
-68.9069
0
LINE
8
BLACK
6
CONTINUOUS
10
37.3109
20
-68.9069
11
37.2623
21
-68.7466
0
LINE
8
BLACK
6
CONTINUOUS
10
37.2623
20
-68.7466
11
37.2459
21
-68.58
0
LINE
8
BLACK
6
CONTINUOUS
10
37.2459
20
-68.58
11
37.2623
21
-68.4134
0
LINE
8
BLACK
6
CONTINUOUS
10
37.2623
20
-68.4134
11
37.3109
21
-68.2531
0
LINE
8
BLACK
6
CONTINUOUS
10
37.3109
20
-68.2531
11
37.3898
21
-68.1055
0
LINE
8
BLACK
6
CONTINUOUS
10
37.3898
20
-68.1055
11
37.4961
21
-67.9761
0
LINE
8
BLACK
6
CONTINUOUS
10
37.4961
20
-67.9761
11
37.6255
21
-67.8698
0
LINE
8
BLACK
6
CONTINUOUS
10
37.6255
20
-67.8698
11
37.7731
21
-67.7909
0
LINE
8
BLACK
6
CONTINUOUS
10
37.7731
20
-67.7909
11
37.9334
21
-67.7423
0
LINE
8
BLACK
6
CONTINUOUS
10
37.9334
20
-67.7423
11
38.0583
21
-67.73
0
LINE
8
BLACK
6
CONTINUOUS
10
38.0583
20
-67.73
11
38.1417
21
-67.73
0
LINE
8
BLACK
6
CONTINUOUS
10
38.1417
20
-67.73
11
38.2666
21
-67.7423
0
LINE
8
BLACK
6
CONTINUOUS
10
95.532
20
-69.126
11
93.532
21
-69.126
0
LINE
8
BLACK
6
CONTINUOUS
10
93.532
20
-69.126
11
93.532
21
-67.526
0
LINE
8
BLACK
6
CONTINUOUS
10
93.532
20
-67.526
11
95.532
21
-67.526
0
LINE
8
BLACK
6
CONTINUOUS
10
95.532
20
-67.526
11
95.532
21
-69.126
0
LINE
8
BLACK
6
CONTINUOUS
10
79.232
20
-69.126
11
77.232
21
-69.126
0
LINE
8
BLACK
6
CONTINUOUS
10
77.232
20
-69.126
11
77.232
21
-67.526
0
LINE
8
BLACK
6
CONTINUOUS
10
77.232
20
-67.526
11
79.232
21
-67.526
0
LINE
8
BLACK
6
CONTINUOUS
10
79.232
20
-67.526
11
79.232
21
-69.126
0
LINE
8
BLACK
6
CONTINUOUS
10
44.898
20
-68.872
11
42.898
21
-68.872
0
LINE
8
BLACK
6
CONTINUOUS
10
42.898
20
-68.872
11
42.898
21
-67.272
0
LINE
8
BLACK
6
CONTINUOUS
10
42.898
20
-67.272
11
44.898
21
-67.272
0
LINE
8
BLACK
6
CONTINUOUS
10
44.898
20
-67.272
11
44.898
21
-68.872
0
LINE
8
BLACK
6
CONTINUOUS
10
61.198
20
-68.772
11
59.198
21
-68.772
0
LINE
8
BLACK
6
CONTINUOUS
10
59.198
20
-68.772
11
59.198
21
-67.372
0
LINE
8
BLACK
6
CONTINUOUS
10
59.198
20
-67.372
11
61.198
21
-67.372
0
LINE
8
BLACK
6
CONTINUOUS
10
61.198
20
-67.372
11
61.198
21
-68.772
0
LINE
8
BLACK
6
CONTINUOUS
10
74.152
20
-67.502
11
72.152
21
-67.502
0
LINE
8
BLACK
6
CONTINUOUS
10
72.152
20
-67.502
11
72.152
21
-66.102
0
LINE
8
BLACK
6
CONTINUOUS
10
72.152
20
-66.102
11
74.152
21
-66.102
0
LINE
8
BLACK
6
CONTINUOUS
10
74.152
20
-66.102
11
74.152
21
-67.502
0
LINE
8
BLACK
6
CONTINUOUS
10
66.532
20
-67.502
11
64.532
21
-67.502
0
LINE
8
BLACK
6
CONTINUOUS
10
64.532
20
-67.502
11
64.532
21
-66.102
0
LINE
8
BLACK
6
CONTINUOUS
10
64.532
20
-66.102
11
66.532
21
-66.102
0
LINE
8
BLACK
6
CONTINUOUS
10
66.532
20
-66.102
11
66.532
21
-67.502
0
LINE
8
BLACK
6
CONTINUOUS
10
38.2666
20
-65.2023
11
38.4269
21
-65.2509
0
LINE
8
BLACK
6
CONTINUOUS
10
38.4269
20
-65.2509
11
38.5745
21
-65.3298
0
LINE
8
BLACK
6
CONTINUOUS
10
38.5745
20
-65.3298
11
38.7039
21
-65.4361
0
LINE
8
BLACK
6
CONTINUOUS
10
38.7039
20
-65.4361
11
38.8102
21
-65.5655
0
LINE
8
BLACK
6
CONTINUOUS
10
38.8102
20
-65.5655
11
38.8891
21
-65.7131
0
LINE
8
BLACK
6
CONTINUOUS
10
38.8891
20
-65.7131
11
38.9377
21
-65.8734
0
LINE
8
BLACK
6
CONTINUOUS
10
38.9377
20
-65.8734
11
38.9541
21
-66.04
0
LINE
8
BLACK
6
CONTINUOUS
10
38.9541
20
-66.04
11
38.9377
21
-66.2066
0
LINE
8
BLACK
6
CONTINUOUS
10
38.9377
20
-66.2066
11
38.8891
21
-66.3669
0
LINE
8
BLACK
6
CONTINUOUS
10
38.8891
20
-66.3669
11
38.8102
21
-66.5145
0
LINE
8
BLACK
6
CONTINUOUS
10
38.8102
20
-66.5145
11
38.7039
21
-66.6439
0
LINE
8
BLACK
6
CONTINUOUS
10
38.7039
20
-66.6439
11
38.5745
21
-66.7502
0
LINE
8
BLACK
6
CONTINUOUS
10
38.5745
20
-66.7502
11
38.4269
21
-66.8291
0
LINE
8
BLACK
6
CONTINUOUS
10
38.4269
20
-66.8291
11
38.2666
21
-66.8777
0
LINE
8
BLACK
6
CONTINUOUS
10
38.2666
20
-66.8777
11
38.1417
21
-66.89
0
LINE
8
BLACK
6
CONTINUOUS
10
38.1417
20
-66.89
11
38.0583
21
-66.89
0
LINE
8
BLACK
6
CONTINUOUS
10
38.0583
20
-66.89
11
37.9334
21
-66.8777
0
LINE
8
BLACK
6
CONTINUOUS
10
37.9334
20
-66.8777
11
37.7731
21
-66.8291
0
LINE
8
BLACK
6
CONTINUOUS
10
37.7731
20
-66.8291
11
37.6255
21
-66.7502
0
LINE
8
BLACK
6
CONTINUOUS
10
37.6255
20
-66.7502
11
37.4961
21
-66.6439
0
LINE
8
BLACK
6
CONTINUOUS
10
37.4961
20
-66.6439
11
37.3898
21
-66.5145
0
LINE
8
BLACK
6
CONTINUOUS
10
37.3898
20
-66.5145
11
37.3109
21
-66.3669
0
LINE
8
BLACK
6
CONTINUOUS
10
37.3109
20
-66.3669
11
37.2623
21
-66.2066
0
LINE
8
BLACK
6
CONTINUOUS
10
37.2623
20
-66.2066
11
37.2459
21
-66.04
0
LINE
8
BLACK
6
CONTINUOUS
10
37.2459
20
-66.04
11
37.2623
21
-65.8734
0
LINE
8
BLACK
6
CONTINUOUS
10
37.2623
20
-65.8734
11
37.3109
21
-65.7131
0
LINE
8
BLACK
6
CONTINUOUS
10
37.3109
20
-65.7131
11
37.3898
21
-65.5655
0
LINE
8
BLACK
6
CONTINUOUS
10
37.3898
20
-65.5655
11
37.4961
21
-65.4361
0
LINE
8
BLACK
6
CONTINUOUS
10
37.4961
20
-65.4361
11
37.6255
21
-65.3298
0
LINE
8
BLACK
6
CONTINUOUS
10
37.6255
20
-65.3298
11
37.7731
21
-65.2509
0
LINE
8
BLACK
6
CONTINUOUS
10
37.7731
20
-65.2509
11
37.9334
21
-65.2023
0
LINE
8
BLACK
6
CONTINUOUS
10
37.9334
20
-65.2023
11
38.0583
21
-65.19
0
LINE
8
BLACK
6
CONTINUOUS
10
38.0583
20
-65.19
11
38.1417
21
-65.19
0
LINE
8
BLACK
6
CONTINUOUS
10
38.1417
20
-65.19
11
38.2666
21
-65.2023
0
LINE
8
BLACK
6
CONTINUOUS
10
95.532
20
-66.586
11
93.532
21
-66.586
0
LINE
8
BLACK
6
CONTINUOUS
10
93.532
20
-66.586
11
93.532
21
-64.986
0
LINE
8
BLACK
6
CONTINUOUS
10
93.532
20
-64.986
11
95.532
21
-64.986
0
LINE
8
BLACK
6
CONTINUOUS
10
95.532
20
-64.986
11
95.532
21
-66.586
0
LINE
8
BLACK
6
CONTINUOUS
10
79.232
20
-66.586
11
77.232
21
-66.586
0
LINE
8
BLACK
6
CONTINUOUS
10
77.232
20
-66.586
11
77.232
21
-64.986
0
LINE
8
BLACK
6
CONTINUOUS
10
77.232
20
-64.986
11
79.232
21
-64.986
0
LINE
8
BLACK
6
CONTINUOUS
10
79.232
20
-64.986
11
79.232
21
-66.586
0
LINE
8
BLACK
6
CONTINUOUS
10
44.898
20
-66.332
11
42.898
21
-66.332
0
LINE
8
BLACK
6
CONTINUOUS
10
42.898
20
-66.332
11
42.898
21
-64.732
0
LINE
8
BLACK
6
CONTINUOUS
10
42.898
20
-64.732
11
44.898
21
-64.732
0
LINE
8
BLACK
6
CONTINUOUS
10
44.898
20
-64.732
11
44.898
21
-66.332
0
LINE
8
BLACK
6
CONTINUOUS
10
61.198
20
-66.232
11
59.198
21
-66.232
0
LINE
8
BLACK
6
CONTINUOUS
10
59.198
20
-66.232
11
59.198
21
-64.832
0
LINE
8
BLACK
6
CONTINUOUS
10
59.198
20
-64.832
11
61.198
21
-64.832
0
LINE
8
BLACK
6
CONTINUOUS
10
61.198
20
-64.832
11
61.198
21
-66.232
0
LINE
8
BLACK
6
CONTINUOUS
10
74.152
20
-64.962
11
72.152
21
-64.962
0
LINE
8
BLACK
6
CONTINUOUS
10
72.152
20
-64.962
11
72.152
21
-63.562
0
LINE
8
BLACK
6
CONTINUOUS
10
72.152
20
-63.562
11
74.152
21
-63.562
0
LINE
8
BLACK
6
CONTINUOUS
10
74.152
20
-63.562
11
74.152
21
-64.962
0
LINE
8
BLACK
6
CONTINUOUS
10
66.532
20
-64.962
11
64.532
21
-64.962
0
LINE
8
BLACK
6
CONTINUOUS
10
64.532
20
-64.962
11
64.532
21
-63.562
0
LINE
8
BLACK
6
CONTINUOUS
10
64.532
20
-63.562
11
66.532
21
-63.562
0
LINE
8
BLACK
6
CONTINUOUS
10
66.532
20
-63.562
11
66.532
21
-64.962
0
LINE
8
BLACK
6
CONTINUOUS
10
38.2666
20
-62.6623
11
38.4269
21
-62.7109
0
LINE
8
BLACK
6
CONTINUOUS
10
38.4269
20
-62.7109
11
38.5745
21
-62.7898
0
LINE
8
BLACK
6
CONTINUOUS
10
38.5745
20
-62.7898
11
38.7039
21
-62.8961
0
LINE
8
BLACK
6
CONTINUOUS
10
38.7039
20
-62.8961
11
38.8102
21
-63.0255
0
LINE
8
BLACK
6
CONTINUOUS
10
38.8102
20
-63.0255
11
38.8891
21
-63.1731
0
LINE
8
BLACK
6
CONTINUOUS
10
38.8891
20
-63.1731
11
38.9377
21
-63.3334
0
LINE
8
BLACK
6
CONTINUOUS
10
38.9377
20
-63.3334
11
38.9541
21
-63.5
0
LINE
8
BLACK
6
CONTINUOUS
10
38.9541
20
-63.5
11
38.9377
21
-63.6666
0
LINE
8
BLACK
6
CONTINUOUS
10
38.9377
20
-63.6666
11
38.8891
21
-63.8269
0
LINE
8
BLACK
6
CONTINUOUS
10
38.8891
20
-63.8269
11
38.8102
21
-63.9745
0
LINE
8
BLACK
6
CONTINUOUS
10
38.8102
20
-63.9745
11
38.7039
21
-64.1039
0
LINE
8
BLACK
6
CONTINUOUS
10
38.7039
20
-64.1039
11
38.5745
21
-64.2102
0
LINE
8
BLACK
6
CONTINUOUS
10
38.5745
20
-64.2102
11
38.4269
21
-64.2891
0
LINE
8
BLACK
6
CONTINUOUS
10
38.4269
20
-64.2891
11
38.2666
21
-64.3377
0
LINE
8
BLACK
6
CONTINUOUS
10
38.2666
20
-64.3377
11
38.1417
21
-64.35
0
LINE
8
BLACK
6
CONTINUOUS
10
38.1417
20
-64.35
11
38.0583
21
-64.35
0
LINE
8
BLACK
6
CONTINUOUS
10
38.0583
20
-64.35
11
37.9334
21
-64.3377
0
LINE
8
BLACK
6
CONTINUOUS
10
37.9334
20
-64.3377
11
37.7731
21
-64.2891
0
LINE
8
BLACK
6
CONTINUOUS
10
37.7731
20
-64.2891
11
37.6255
21
-64.2102
0
LINE
8
BLACK
6
CONTINUOUS
10
37.6255
20
-64.2102
11
37.4961
21
-64.1039
0
LINE
8
BLACK
6
CONTINUOUS
10
37.4961
20
-64.1039
11
37.3898
21
-63.9745
0
LINE
8
BLACK
6
CONTINUOUS
10
37.3898
20
-63.9745
11
37.3109
21
-63.8269
0
LINE
8
BLACK
6
CONTINUOUS
10
37.3109
20
-63.8269
11
37.2623
21
-63.6666
0
LINE
8
BLACK
6
CONTINUOUS
10
37.2623
20
-63.6666
11
37.2459
21
-63.5
0
LINE
8
BLACK
6
CONTINUOUS
10
37.2459
20
-63.5
11
37.2623
21
-63.3334
0
LINE
8
BLACK
6
CONTINUOUS
10
37.2623
20
-63.3334
11
37.3109
21
-63.1731
0
LINE
8
BLACK
6
CONTINUOUS
10
37.3109
20
-63.1731
11
37.3898
21
-63.0255
0
LINE
8
BLACK
6
CONTINUOUS
10
37.3898
20
-63.0255
11
37.4961
21
-62.8961
0
LINE
8
BLACK
6
CONTINUOUS
10
37.4961
20
-62.8961
11
37.6255
21
-62.7898
0
LINE
8
BLACK
6
CONTINUOUS
10
37.6255
20
-62.7898
11
37.7731
21
-62.7109
0
LINE
8
BLACK
6
CONTINUOUS
10
37.7731
20
-62.7109
11
37.9334
21
-62.6623
0
LINE
8
BLACK
6
CONTINUOUS
10
37.9334
20
-62.6623
11
38.0583
21
-62.65
0
LINE
8
BLACK
6
CONTINUOUS
10
38.0583
20
-62.65
11
38.1417
21
-62.65
0
LINE
8
BLACK
6
CONTINUOUS
10
38.1417
20
-62.65
11
38.2666
21
-62.6623
0
LINE
8
BLACK
6
CONTINUOUS
10
79.232
20
-64.046
11
77.232
21
-64.046
0
LINE
8
BLACK
6
CONTINUOUS
10
77.232
20
-64.046
11
77.232
21
-62.446
0
LINE
8
BLACK
6
CONTINUOUS
10
77.232
20
-62.446
11
79.232
21
-62.446
0
LINE
8
BLACK
6
CONTINUOUS
10
79.232
20
-62.446
11
79.232
21
-64.046
0
LINE
8
BLACK
6
CONTINUOUS
10
95.532
20
-64.046
11
93.532
21
-64.046
0
LINE
8
BLACK
6
CONTINUOUS
10
93.532
20
-64.046
11
93.532
21
-62.446
0
LINE
8
BLACK
6
CONTINUOUS
10
93.532
20
-62.446
11
95.532
21
-62.446
0
LINE
8
BLACK
6
CONTINUOUS
10
95.532
20
-62.446
11
95.532
21
-64.046
0
LINE
8
BLACK
6
CONTINUOUS
10
44.898
20
-63.792
11
42.898
21
-63.792
0
LINE
8
BLACK
6
CONTINUOUS
10
42.898
20
-63.792
11
42.898
21
-62.192
0
LINE
8
BLACK
6
CONTINUOUS
10
42.898
20
-62.192
11
44.898
21
-62.192
0
LINE
8
BLACK
6
CONTINUOUS
10
44.898
20
-62.192
11
44.898
21
-63.792
0
LINE
8
BLACK
6
CONTINUOUS
10
61.198
20
-63.692
11
59.198
21
-63.692
0
LINE
8
BLACK
6
CONTINUOUS
10
59.198
20
-63.692
11
59.198
21
-62.292
0
LINE
8
BLACK
6
CONTINUOUS
10
59.198
20
-62.292
11
61.198
21
-62.292
0
LINE
8
BLACK
6
CONTINUOUS
10
61.198
20
-62.292
11
61.198
21
-63.692
0
LINE
8
BLACK
6
CONTINUOUS
10
74.152
20
-62.422
11
72.152
21
-62.422
0
LINE
8
BLACK
6
CONTINUOUS
10
72.152
20
-62.422
11
72.152
21
-61.022
0
LINE
8
BLACK
6
CONTINUOUS
10
72.152
20
-61.022
11
74.152
21
-61.022
0
LINE
8
BLACK
6
CONTINUOUS
10
74.152
20
-61.022
11
74.152
21
-62.422
0
LINE
8
BLACK
6
CONTINUOUS
10
66.532
20
-62.422
11
64.532
21
-62.422
0
LINE
8
BLACK
6
CONTINUOUS
10
64.532
20
-62.422
11
64.532
21
-61.022
0
LINE
8
BLACK
6
CONTINUOUS
10
64.532
20
-61.022
11
66.532
21
-61.022
0
LINE
8
BLACK
6
CONTINUOUS
10
66.532
20
-61.022
11
66.532
21
-62.422
0
LINE
8
BLACK
6
CONTINUOUS
10
38.2666
20
-60.1223
11
38.4269
21
-60.1709
0
LINE
8
BLACK
6
CONTINUOUS
10
38.4269
20
-60.1709
11
38.5745
21
-60.2498
0
LINE
8
BLACK
6
CONTINUOUS
10
38.5745
20
-60.2498
11
38.7039
21
-60.3561
0
LINE
8
BLACK
6
CONTINUOUS
10
38.7039
20
-60.3561
11
38.8102
21
-60.4855
0
LINE
8
BLACK
6
CONTINUOUS
10
38.8102
20
-60.4855
11
38.8891
21
-60.6331
0
LINE
8
BLACK
6
CONTINUOUS
10
38.8891
20
-60.6331
11
38.9377
21
-60.7934
0
LINE
8
BLACK
6
CONTINUOUS
10
38.9377
20
-60.7934
11
38.9541
21
-60.96
0
LINE
8
BLACK
6
CONTINUOUS
10
38.9541
20
-60.96
11
38.9377
21
-61.1266
0
LINE
8
BLACK
6
CONTINUOUS
10
38.9377
20
-61.1266
11
38.8891
21
-61.2869
0
LINE
8
BLACK
6
CONTINUOUS
10
38.8891
20
-61.2869
11
38.8102
21
-61.4345
0
LINE
8
BLACK
6
CONTINUOUS
10
38.8102
20
-61.4345
11
38.7039
21
-61.5639
0
LINE
8
BLACK
6
CONTINUOUS
10
38.7039
20
-61.5639
11
38.5745
21
-61.6702
0
LINE
8
BLACK
6
CONTINUOUS
10
38.5745
20
-61.6702
11
38.4269
21
-61.7491
0
LINE
8
BLACK
6
CONTINUOUS
10
38.4269
20
-61.7491
11
38.2666
21
-61.7977
0
LINE
8
BLACK
6
CONTINUOUS
10
38.2666
20
-61.7977
11
38.1417
21
-61.81
0
LINE
8
BLACK
6
CONTINUOUS
10
38.1417
20
-61.81
11
38.0583
21
-61.81
0
LINE
8
BLACK
6
CONTINUOUS
10
38.0583
20
-61.81
11
37.9334
21
-61.7977
0
LINE
8
BLACK
6
CONTINUOUS
10
37.9334
20
-61.7977
11
37.7731
21
-61.7491
0
LINE
8
BLACK
6
CONTINUOUS
10
37.7731
20
-61.7491
11
37.6255
21
-61.6702
0
LINE
8
BLACK
6
CONTINUOUS
10
37.6255
20
-61.6702
11
37.4961
21
-61.5639
0
LINE
8
BLACK
6
CONTINUOUS
10
37.4961
20
-61.5639
11
37.3898
21
-61.4345
0
LINE
8
BLACK
6
CONTINUOUS
10
37.3898
20
-61.4345
11
37.3109
21
-61.2869
0
LINE
8
BLACK
6
CONTINUOUS
10
37.3109
20
-61.2869
11
37.2623
21
-61.1266
0
LINE
8
BLACK
6
CONTINUOUS
10
37.2623
20
-61.1266
11
37.2459
21
-60.96
0
LINE
8
BLACK
6
CONTINUOUS
10
37.2459
20
-60.96
11
37.2623
21
-60.7934
0
LINE
8
BLACK
6
CONTINUOUS
10
37.2623
20
-60.7934
11
37.3109
21
-60.6331
0
LINE
8
BLACK
6
CONTINUOUS
10
37.3109
20
-60.6331
11
37.3898
21
-60.4855
0
LINE
8
BLACK
6
CONTINUOUS
10
37.3898
20
-60.4855
11
37.4961
21
-60.3561
0
LINE
8
BLACK
6
CONTINUOUS
10
37.4961
20
-60.3561
11
37.6255
21
-60.2498
0
LINE
8
BLACK
6
CONTINUOUS
10
37.6255
20
-60.2498
11
37.7731
21
-60.1709
0
LINE
8
BLACK
6
CONTINUOUS
10
37.7731
20
-60.1709
11
37.9334
21
-60.1223
0
LINE
8
BLACK
6
CONTINUOUS
10
37.9334
20
-60.1223
11
38.0583
21
-60.11
0
LINE
8
BLACK
6
CONTINUOUS
10
38.0583
20
-60.11
11
38.1417
21
-60.11
0
LINE
8
BLACK
6
CONTINUOUS
10
38.1417
20
-60.11
11
38.2666
21
-60.1223
0
LINE
8
BLACK
6
CONTINUOUS
10
95.532
20
-61.506
11
93.532
21
-61.506
0
LINE
8
BLACK
6
CONTINUOUS
10
93.532
20
-61.506
11
93.532
21
-59.906
0
LINE
8
BLACK
6
CONTINUOUS
10
93.532
20
-59.906
11
95.532
21
-59.906
0
LINE
8
BLACK
6
CONTINUOUS
10
95.532
20
-59.906
11
95.532
21
-61.506
0
LINE
8
BLACK
6
CONTINUOUS
10
79.232
20
-61.506
11
77.232
21
-61.506
0
LINE
8
BLACK
6
CONTINUOUS
10
77.232
20
-61.506
11
77.232
21
-59.906
0
LINE
8
BLACK
6
CONTINUOUS
10
77.232
20
-59.906
11
79.232
21
-59.906
0
LINE
8
BLACK
6
CONTINUOUS
10
79.232
20
-59.906
11
79.232
21
-61.506
0
LINE
8
BLACK
6
CONTINUOUS
10
44.898
20
-61.252
11
42.898
21
-61.252
0
LINE
8
BLACK
6
CONTINUOUS
10
42.898
20
-61.252
11
42.898
21
-59.652
0
LINE
8
BLACK
6
CONTINUOUS
10
42.898
20
-59.652
11
44.898
21
-59.652
0
LINE
8
BLACK
6
CONTINUOUS
10
44.898
20
-59.652
11
44.898
21
-61.252
0
LINE
8
BLACK
6
CONTINUOUS
10
61.198
20
-61.152
11
59.198
21
-61.152
0
LINE
8
BLACK
6
CONTINUOUS
10
59.198
20
-61.152
11
59.198
21
-59.752
0
LINE
8
BLACK
6
CONTINUOUS
10
59.198
20
-59.752
11
61.198
21
-59.752
0
LINE
8
BLACK
6
CONTINUOUS
10
61.198
20
-59.752
11
61.198
21
-61.152
0
LINE
8
BLACK
6
CONTINUOUS
10
38.2666
20
-57.5823
11
38.4269
21
-57.6309
0
LINE
8
BLACK
6
CONTINUOUS
10
38.4269
20
-57.6309
11
38.5745
21
-57.7098
0
LINE
8
BLACK
6
CONTINUOUS
10
38.5745
20
-57.7098
11
38.7039
21
-57.8161
0
LINE
8
BLACK
6
CONTINUOUS
10
38.7039
20
-57.8161
11
38.8102
21
-57.9455
0
LINE
8
BLACK
6
CONTINUOUS
10
38.8102
20
-57.9455
11
38.8891
21
-58.0931
0
LINE
8
BLACK
6
CONTINUOUS
10
38.8891
20
-58.0931
11
38.9377
21
-58.2534
0
LINE
8
BLACK
6
CONTINUOUS
10
38.9377
20
-58.2534
11
38.9541
21
-58.42
0
LINE
8
BLACK
6
CONTINUOUS
10
38.9541
20
-58.42
11
38.9377
21
-58.5866
0
LINE
8
BLACK
6
CONTINUOUS
10
38.9377
20
-58.5866
11
38.8891
21
-58.7469
0
LINE
8
BLACK
6
CONTINUOUS
10
38.8891
20
-58.7469
11
38.8102
21
-58.8945
0
LINE
8
BLACK
6
CONTINUOUS
10
38.8102
20
-58.8945
11
38.7039
21
-59.0239
0
LINE
8
BLACK
6
CONTINUOUS
10
38.7039
20
-59.0239
11
38.5745
21
-59.1302
0
LINE
8
BLACK
6
CONTINUOUS
10
38.5745
20
-59.1302
11
38.4269
21
-59.2091
0
LINE
8
BLACK
6
CONTINUOUS
10
38.4269
20
-59.2091
11
38.2666
21
-59.2577
0
LINE
8
BLACK
6
CONTINUOUS
10
38.2666
20
-59.2577
11
38.1417
21
-59.27
0
LINE
8
BLACK
6
CONTINUOUS
10
38.1417
20
-59.27
11
38.0583
21
-59.27
0
LINE
8
BLACK
6
CONTINUOUS
10
38.0583
20
-59.27
11
37.9334
21
-59.2577
0
LINE
8
BLACK
6
CONTINUOUS
10
37.9334
20
-59.2577
11
37.7731
21
-59.2091
0
LINE
8
BLACK
6
CONTINUOUS
10
37.7731
20
-59.2091
11
37.6255
21
-59.1302
0
LINE
8
BLACK
6
CONTINUOUS
10
37.6255
20
-59.1302
11
37.4961
21
-59.0239
0
LINE
8
BLACK
6
CONTINUOUS
10
37.4961
20
-59.0239
11
37.3898
21
-58.8945
0
LINE
8
BLACK
6
CONTINUOUS
10
37.3898
20
-58.8945
11
37.3109
21
-58.7469
0
LINE
8
BLACK
6
CONTINUOUS
10
37.3109
20
-58.7469
11
37.2623
21
-58.5866
0
LINE
8
BLACK
6
CONTINUOUS
10
37.2623
20
-58.5866
11
37.2459
21
-58.42
0
LINE
8
BLACK
6
CONTINUOUS
10
37.2459
20
-58.42
11
37.2623
21
-58.2534
0
LINE
8
BLACK
6
CONTINUOUS
10
37.2623
20
-58.2534
11
37.3109
21
-58.0931
0
LINE
8
BLACK
6
CONTINUOUS
10
37.3109
20
-58.0931
11
37.3898
21
-57.9455
0
LINE
8
BLACK
6
CONTINUOUS
10
37.3898
20
-57.9455
11
37.4961
21
-57.8161
0
LINE
8
BLACK
6
CONTINUOUS
10
37.4961
20
-57.8161
11
37.6255
21
-57.7098
0
LINE
8
BLACK
6
CONTINUOUS
10
37.6255
20
-57.7098
11
37.7731
21
-57.6309
0
LINE
8
BLACK
6
CONTINUOUS
10
37.7731
20
-57.6309
11
37.9334
21
-57.5823
0
LINE
8
BLACK
6
CONTINUOUS
10
37.9334
20
-57.5823
11
38.0583
21
-57.57
0
LINE
8
BLACK
6
CONTINUOUS
10
38.0583
20
-57.57
11
38.1417
21
-57.57
0
LINE
8
BLACK
6
CONTINUOUS
10
38.1417
20
-57.57
11
38.2666
21
-57.5823
0
LINE
8
BLACK
6
CONTINUOUS
10
95.532
20
-58.966
11
93.532
21
-58.966
0
LINE
8
BLACK
6
CONTINUOUS
10
93.532
20
-58.966
11
93.532
21
-57.366
0
LINE
8
BLACK
6
CONTINUOUS
10
93.532
20
-57.366
11
95.532
21
-57.366
0
LINE
8
BLACK
6
CONTINUOUS
10
95.532
20
-57.366
11
95.532
21
-58.966
0
LINE
8
BLACK
6
CONTINUOUS
10
79.232
20
-58.966
11
77.232
21
-58.966
0
LINE
8
BLACK
6
CONTINUOUS
10
77.232
20
-58.966
11
77.232
21
-57.366
0
LINE
8
BLACK
6
CONTINUOUS
10
77.232
20
-57.366
11
79.232
21
-57.366
0
LINE
8
BLACK
6
CONTINUOUS
10
79.232
20
-57.366
11
79.232
21
-58.966
0
LINE
8
BLACK
6
CONTINUOUS
10
44.898
20
-58.712
11
42.898
21
-58.712
0
LINE
8
BLACK
6
CONTINUOUS
10
42.898
20
-58.712
11
42.898
21
-57.112
0
LINE
8
BLACK
6
CONTINUOUS
10
42.898
20
-57.112
11
44.898
21
-57.112
0
LINE
8
BLACK
6
CONTINUOUS
10
44.898
20
-57.112
11
44.898
21
-58.712
0
LINE
8
BLACK
6
CONTINUOUS
10
61.198
20
-58.612
11
59.198
21
-58.612
0
LINE
8
BLACK
6
CONTINUOUS
10
59.198
20
-58.612
11
59.198
21
-57.212
0
LINE
8
BLACK
6
CONTINUOUS
10
59.198
20
-57.212
11
61.198
21
-57.212
0
LINE
8
BLACK
6
CONTINUOUS
10
61.198
20
-57.212
11
61.198
21
-58.612
0
LINE
8
BLACK
6
CONTINUOUS
10
79.232
20
-56.426
11
77.232
21
-56.426
0
LINE
8
BLACK
6
CONTINUOUS
10
77.232
20
-56.426
11
77.232
21
-54.826
0
LINE
8
BLACK
6
CONTINUOUS
10
77.232
20
-54.826
11
79.232
21
-54.826
0
LINE
8
BLACK
6
CONTINUOUS
10
79.232
20
-54.826
11
79.232
21
-56.426
0
LINE
8
BLACK
6
CONTINUOUS
10
61.198
20
-56.072
11
59.198
21
-56.072
0
LINE
8
BLACK
6
CONTINUOUS
10
59.198
20
-56.072
11
59.198
21
-54.672
0
LINE
8
BLACK
6
CONTINUOUS
10
59.198
20
-54.672
11
61.198
21
-54.672
0
LINE
8
BLACK
6
CONTINUOUS
10
61.198
20
-54.672
11
61.198
21
-56.072
0
LINE
8
BLACK
6
CONTINUOUS
10
67.2894
20
-52.3167
11
67.4349
21
-52.377
0
LINE
8
BLACK
6
CONTINUOUS
10
67.4349
20
-52.377
11
67.566
21
-52.4646
0
LINE
8
BLACK
6
CONTINUOUS
10
67.566
20
-52.4646
11
67.6774
21
-52.576
0
LINE
8
BLACK
6
CONTINUOUS
10
67.6774
20
-52.576
11
67.765
21
-52.7071
0
LINE
8
BLACK
6
CONTINUOUS
10
67.765
20
-52.7071
11
67.8253
21
-52.8526
0
LINE
8
BLACK
6
CONTINUOUS
10
67.8253
20
-52.8526
11
67.856
21
-53.0072
0
LINE
8
BLACK
6
CONTINUOUS
10
67.856
20
-53.0072
11
67.856
21
-53.1648
0
LINE
8
BLACK
6
CONTINUOUS
10
67.856
20
-53.1648
11
67.8253
21
-53.3194
0
LINE
8
BLACK
6
CONTINUOUS
10
67.8253
20
-53.3194
11
67.765
21
-53.4649
0
LINE
8
BLACK
6
CONTINUOUS
10
67.765
20
-53.4649
11
67.6774
21
-53.596
0
LINE
8
BLACK
6
CONTINUOUS
10
67.6774
20
-53.596
11
67.566
21
-53.7074
0
LINE
8
BLACK
6
CONTINUOUS
10
67.566
20
-53.7074
11
67.4349
21
-53.795
0
LINE
8
BLACK
6
CONTINUOUS
10
67.4349
20
-53.795
11
67.2894
21
-53.8553
0
LINE
8
BLACK
6
CONTINUOUS
10
67.2894
20
-53.8553
11
67.1348
21
-53.886
0
LINE
8
BLACK
6
CONTINUOUS
10
67.1348
20
-53.886
11
66.9772
21
-53.886
0
LINE
8
BLACK
6
CONTINUOUS
10
66.9772
20
-53.886
11
66.8226
21
-53.8553
0
LINE
8
BLACK
6
CONTINUOUS
10
66.8226
20
-53.8553
11
66.6771
21
-53.795
0
LINE
8
BLACK
6
CONTINUOUS
10
66.6771
20
-53.795
11
66.546
21
-53.7074
0
LINE
8
BLACK
6
CONTINUOUS
10
66.546
20
-53.7074
11
66.4346
21
-53.596
0
LINE
8
BLACK
6
CONTINUOUS
10
66.4346
20
-53.596
11
66.347
21
-53.4649
0
LINE
8
BLACK
6
CONTINUOUS
10
66.347
20
-53.4649
11
66.2867
21
-53.3194
0
LINE
8
BLACK
6
CONTINUOUS
10
66.2867
20
-53.3194
11
66.256
21
-53.1648
0
LINE
8
BLACK
6
CONTINUOUS
10
66.256
20
-53.1648
11
66.256
21
-53.0072
0
LINE
8
BLACK
6
CONTINUOUS
10
66.256
20
-53.0072
11
66.2867
21
-52.8526
0
LINE
8
BLACK
6
CONTINUOUS
10
66.2867
20
-52.8526
11
66.347
21
-52.7071
0
LINE
8
BLACK
6
CONTINUOUS
10
66.347
20
-52.7071
11
66.4346
21
-52.576
0
LINE
8
BLACK
6
CONTINUOUS
10
66.4346
20
-52.576
11
66.546
21
-52.4646
0
LINE
8
BLACK
6
CONTINUOUS
10
66.546
20
-52.4646
11
66.6771
21
-52.377
0
LINE
8
BLACK
6
CONTINUOUS
10
66.6771
20
-52.377
11
66.8226
21
-52.3167
0
LINE
8
BLACK
6
CONTINUOUS
10
66.8226
20
-52.3167
11
66.9772
21
-52.286
0
LINE
8
BLACK
6
CONTINUOUS
10
66.9772
20
-52.286
11
67.1348
21
-52.286
0
LINE
8
BLACK
6
CONTINUOUS
10
67.1348
20
-52.286
11
67.2894
21
-52.3167
0
LINE
8
BLACK
6
CONTINUOUS
10
64.7894
20
-52.3167
11
64.9349
21
-52.377
0
LINE
8
BLACK
6
CONTINUOUS
10
64.9349
20
-52.377
11
65.066
21
-52.4646
0
LINE
8
BLACK
6
CONTINUOUS
10
65.066
20
-52.4646
11
65.1774
21
-52.576
0
LINE
8
BLACK
6
CONTINUOUS
10
65.1774
20
-52.576
11
65.265
21
-52.7071
0
LINE
8
BLACK
6
CONTINUOUS
10
65.265
20
-52.7071
11
65.3253
21
-52.8526
0
LINE
8
BLACK
6
CONTINUOUS
10
65.3253
20
-52.8526
11
65.356
21
-53.0072
0
LINE
8
BLACK
6
CONTINUOUS
10
65.356
20
-53.0072
11
65.356
21
-53.1648
0
LINE
8
BLACK
6
CONTINUOUS
10
65.356
20
-53.1648
11
65.3253
21
-53.3194
0
LINE
8
BLACK
6
CONTINUOUS
10
65.3253
20
-53.3194
11
65.265
21
-53.4649
0
LINE
8
BLACK
6
CONTINUOUS
10
65.265
20
-53.4649
11
65.1774
21
-53.596
0
LINE
8
BLACK
6
CONTINUOUS
10
65.1774
20
-53.596
11
65.066
21
-53.7074
0
LINE
8
BLACK
6
CONTINUOUS
10
65.066
20
-53.7074
11
64.9349
21
-53.795
0
LINE
8
BLACK
6
CONTINUOUS
10
64.9349
20
-53.795
11
64.7894
21
-53.8553
0
LINE
8
BLACK
6
CONTINUOUS
10
64.7894
20
-53.8553
11
64.6348
21
-53.886
0
LINE
8
BLACK
6
CONTINUOUS
10
64.6348
20
-53.886
11
64.4772
21
-53.886
0
LINE
8
BLACK
6
CONTINUOUS
10
64.4772
20
-53.886
11
64.3226
21
-53.8553
0
LINE
8
BLACK
6
CONTINUOUS
10
64.3226
20
-53.8553
11
64.1771
21
-53.795
0
LINE
8
BLACK
6
CONTINUOUS
10
64.1771
20
-53.795
11
64.046
21
-53.7074
0
LINE
8
BLACK
6
CONTINUOUS
10
64.046
20
-53.7074
11
63.9346
21
-53.596
0
LINE
8
BLACK
6
CONTINUOUS
10
63.9346
20
-53.596
11
63.847
21
-53.4649
0
LINE
8
BLACK
6
CONTINUOUS
10
63.847
20
-53.4649
11
63.7867
21
-53.3194
0
LINE
8
BLACK
6
CONTINUOUS
10
63.7867
20
-53.3194
11
63.756
21
-53.1648
0
LINE
8
BLACK
6
CONTINUOUS
10
63.756
20
-53.1648
11
63.756
21
-53.0072
0
LINE
8
BLACK
6
CONTINUOUS
10
63.756
20
-53.0072
11
63.7867
21
-52.8526
0
LINE
8
BLACK
6
CONTINUOUS
10
63.7867
20
-52.8526
11
63.847
21
-52.7071
0
LINE
8
BLACK
6
CONTINUOUS
10
63.847
20
-52.7071
11
63.9346
21
-52.576
0
LINE
8
BLACK
6
CONTINUOUS
10
63.9346
20
-52.576
11
64.046
21
-52.4646
0
LINE
8
BLACK
6
CONTINUOUS
10
64.046
20
-52.4646
11
64.1771
21
-52.377
0
LINE
8
BLACK
6
CONTINUOUS
10
64.1771
20
-52.377
11
64.3226
21
-52.3167
0
LINE
8
BLACK
6
CONTINUOUS
10
64.3226
20
-52.3167
11
64.4772
21
-52.286
0
LINE
8
BLACK
6
CONTINUOUS
10
64.4772
20
-52.286
11
64.6348
21
-52.286
0
LINE
8
BLACK
6
CONTINUOUS
10
64.6348
20
-52.286
11
64.7894
21
-52.3167
0
LINE
8
BLACK
6
CONTINUOUS
10
87.218
20
-49.3921
11
87.4364
21
-49.4826
0
LINE
8
BLACK
6
CONTINUOUS
10
87.4364
20
-49.4826
11
87.633
21
-49.6139
0
LINE
8
BLACK
6
CONTINUOUS
10
87.633
20
-49.6139
11
87.8001
21
-49.781
0
LINE
8
BLACK
6
CONTINUOUS
10
87.8001
20
-49.781
11
87.9314
21
-49.9776
0
LINE
8
BLACK
6
CONTINUOUS
10
87.9314
20
-49.9776
11
88.0219
21
-50.196
0
LINE
8
BLACK
6
CONTINUOUS
10
88.0219
20
-50.196
11
88.068
21
-50.4278
0
LINE
8
BLACK
6
CONTINUOUS
10
88.068
20
-50.4278
11
88.068
21
-50.6642
0
LINE
8
BLACK
6
CONTINUOUS
10
88.068
20
-50.6642
11
88.0219
21
-50.896
0
LINE
8
BLACK
6
CONTINUOUS
10
88.0219
20
-50.896
11
87.9314
21
-51.1144
0
LINE
8
BLACK
6
CONTINUOUS
10
87.9314
20
-51.1144
11
87.8001
21
-51.311
0
LINE
8
BLACK
6
CONTINUOUS
10
87.8001
20
-51.311
11
87.633
21
-51.4781
0
LINE
8
BLACK
6
CONTINUOUS
10
87.633
20
-51.4781
11
87.4364
21
-51.6094
0
LINE
8
BLACK
6
CONTINUOUS
10
87.4364
20
-51.6094
11
87.218
21
-51.6999
0
LINE
8
BLACK
6
CONTINUOUS
10
87.218
20
-51.6999
11
86.9862
21
-51.746
0
LINE
8
BLACK
6
CONTINUOUS
10
86.9862
20
-51.746
11
86.7498
21
-51.746
0
LINE
8
BLACK
6
CONTINUOUS
10
86.7498
20
-51.746
11
86.518
21
-51.6999
0
LINE
8
BLACK
6
CONTINUOUS
10
86.518
20
-51.6999
11
86.2996
21
-51.6094
0
LINE
8
BLACK
6
CONTINUOUS
10
86.2996
20
-51.6094
11
86.103
21
-51.4781
0
LINE
8
BLACK
6
CONTINUOUS
10
86.103
20
-51.4781
11
85.9359
21
-51.311
0
LINE
8
BLACK
6
CONTINUOUS
10
85.9359
20
-51.311
11
85.8046
21
-51.1144
0
LINE
8
BLACK
6
CONTINUOUS
10
85.8046
20
-51.1144
11
85.7141
21
-50.896
0
LINE
8
BLACK
6
CONTINUOUS
10
85.7141
20
-50.896
11
85.668
21
-50.6642
0
LINE
8
BLACK
6
CONTINUOUS
10
85.668
20
-50.6642
11
85.668
21
-50.4278
0
LINE
8
BLACK
6
CONTINUOUS
10
85.668
20
-50.4278
11
85.7141
21
-50.196
0
LINE
8
BLACK
6
CONTINUOUS
10
85.7141
20
-50.196
11
85.8046
21
-49.9776
0
LINE
8
BLACK
6
CONTINUOUS
10
85.8046
20
-49.9776
11
85.9359
21
-49.781
0
LINE
8
BLACK
6
CONTINUOUS
10
85.9359
20
-49.781
11
86.103
21
-49.6139
0
LINE
8
BLACK
6
CONTINUOUS
10
86.103
20
-49.6139
11
86.2996
21
-49.4826
0
LINE
8
BLACK
6
CONTINUOUS
10
86.2996
20
-49.4826
11
86.518
21
-49.3921
0
LINE
8
BLACK
6
CONTINUOUS
10
86.518
20
-49.3921
11
86.7498
21
-49.346
0
LINE
8
BLACK
6
CONTINUOUS
10
86.7498
20
-49.346
11
86.9862
21
-49.346
0
LINE
8
BLACK
6
CONTINUOUS
10
86.9862
20
-49.346
11
87.218
21
-49.3921
0
LINE
8
BLACK
6
CONTINUOUS
10
71.8632
20
-49.3634
11
72.0894
21
-49.432
0
LINE
8
BLACK
6
CONTINUOUS
10
72.0894
20
-49.432
11
72.2979
21
-49.5434
0
LINE
8
BLACK
6
CONTINUOUS
10
72.2979
20
-49.5434
11
72.4806
21
-49.6934
0
LINE
8
BLACK
6
CONTINUOUS
10
72.4806
20
-49.6934
11
72.6306
21
-49.8761
0
LINE
8
BLACK
6
CONTINUOUS
10
72.6306
20
-49.8761
11
72.742
21
-50.0846
0
LINE
8
BLACK
6
CONTINUOUS
10
72.742
20
-50.0846
11
72.8106
21
-50.3108
0
LINE
8
BLACK
6
CONTINUOUS
10
72.8106
20
-50.3108
11
72.8338
21
-50.546
0
LINE
8
BLACK
6
CONTINUOUS
10
72.8338
20
-50.546
11
72.8106
21
-50.7812
0
LINE
8
BLACK
6
CONTINUOUS
10
72.8106
20
-50.7812
11
72.742
21
-51.0074
0
LINE
8
BLACK
6
CONTINUOUS
10
72.742
20
-51.0074
11
72.6306
21
-51.2159
0
LINE
8
BLACK
6
CONTINUOUS
10
72.6306
20
-51.2159
11
72.4806
21
-51.3986
0
LINE
8
BLACK
6
CONTINUOUS
10
72.4806
20
-51.3986
11
72.2979
21
-51.5486
0
LINE
8
BLACK
6
CONTINUOUS
10
72.2979
20
-51.5486
11
72.0894
21
-51.66
0
LINE
8
BLACK
6
CONTINUOUS
10
72.0894
20
-51.66
11
71.8632
21
-51.7286
0
LINE
8
BLACK
6
CONTINUOUS
10
71.8632
20
-51.7286
11
71.6869
21
-51.746
0
LINE
8
BLACK
6
CONTINUOUS
10
71.6869
20
-51.746
11
71.569
21
-51.746
0
LINE
8
BLACK
6
CONTINUOUS
10
71.569
20
-51.746
11
71.3928
21
-51.7286
0
LINE
8
BLACK
6
CONTINUOUS
10
71.3928
20
-51.7286
11
71.1666
21
-51.66
0
LINE
8
BLACK
6
CONTINUOUS
10
71.1666
20
-51.66
11
70.9581
21
-51.5486
0
LINE
8
BLACK
6
CONTINUOUS
10
70.9581
20
-51.5486
11
70.7754
21
-51.3986
0
LINE
8
BLACK
6
CONTINUOUS
10
70.7754
20
-51.3986
11
70.6254
21
-51.2159
0
LINE
8
BLACK
6
CONTINUOUS
10
70.6254
20
-51.2159
11
70.514
21
-51.0074
0
LINE
8
BLACK
6
CONTINUOUS
10
70.514
20
-51.0074
11
70.4454
21
-50.7812
0
LINE
8
BLACK
6
CONTINUOUS
10
70.4454
20
-50.7812
11
70.4222
21
-50.546
0
LINE
8
BLACK
6
CONTINUOUS
10
70.4222
20
-50.546
11
70.4454
21
-50.3108
0
LINE
8
BLACK
6
CONTINUOUS
10
70.4454
20
-50.3108
11
70.514
21
-50.0846
0
LINE
8
BLACK
6
CONTINUOUS
10
70.514
20
-50.0846
11
70.6254
21
-49.8761
0
LINE
8
BLACK
6
CONTINUOUS
10
70.6254
20
-49.8761
11
70.7754
21
-49.6934
0
LINE
8
BLACK
6
CONTINUOUS
10
70.7754
20
-49.6934
11
70.9581
21
-49.5434
0
LINE
8
BLACK
6
CONTINUOUS
10
70.9581
20
-49.5434
11
71.1666
21
-49.432
0
LINE
8
BLACK
6
CONTINUOUS
10
71.1666
20
-49.432
11
71.3928
21
-49.3634
0
LINE
8
BLACK
6
CONTINUOUS
10
71.3928
20
-49.3634
11
71.569
21
-49.346
0
LINE
8
BLACK
6
CONTINUOUS
10
71.569
20
-49.346
11
71.6869
21
-49.346
0
LINE
8
BLACK
6
CONTINUOUS
10
71.6869
20
-49.346
11
71.8632
21
-49.3634
0
LINE
8
BLACK
6
CONTINUOUS
10
66.9954
20
-48.2527
11
67.1409
21
-48.313
0
LINE
8
BLACK
6
CONTINUOUS
10
67.1409
20
-48.313
11
67.272
21
-48.4006
0
LINE
8
BLACK
6
CONTINUOUS
10
67.272
20
-48.4006
11
67.3834
21
-48.512
0
LINE
8
BLACK
6
CONTINUOUS
10
67.3834
20
-48.512
11
67.471
21
-48.6431
0
LINE
8
BLACK
6
CONTINUOUS
10
67.471
20
-48.6431
11
67.5313
21
-48.7886
0
LINE
8
BLACK
6
CONTINUOUS
10
67.5313
20
-48.7886
11
67.562
21
-48.9432
0
LINE
8
BLACK
6
CONTINUOUS
10
67.562
20
-48.9432
11
67.562
21
-49.1008
0
LINE
8
BLACK
6
CONTINUOUS
10
67.562
20
-49.1008
11
67.5313
21
-49.2554
0
LINE
8
BLACK
6
CONTINUOUS
10
67.5313
20
-49.2554
11
67.471
21
-49.4009
0
LINE
8
BLACK
6
CONTINUOUS
10
67.471
20
-49.4009
11
67.3834
21
-49.532
0
LINE
8
BLACK
6
CONTINUOUS
10
67.3834
20
-49.532
11
67.272
21
-49.6434
0
LINE
8
BLACK
6
CONTINUOUS
10
67.272
20
-49.6434
11
67.1409
21
-49.731
0
LINE
8
BLACK
6
CONTINUOUS
10
67.1409
20
-49.731
11
66.9954
21
-49.7913
0
LINE
8
BLACK
6
CONTINUOUS
10
66.9954
20
-49.7913
11
66.8408
21
-49.822
0
LINE
8
BLACK
6
CONTINUOUS
10
66.8408
20
-49.822
11
66.6832
21
-49.822
0
LINE
8
BLACK
6
CONTINUOUS
10
66.6832
20
-49.822
11
66.5286
21
-49.7913
0
LINE
8
BLACK
6
CONTINUOUS
10
66.5286
20
-49.7913
11
66.3831
21
-49.731
0
LINE
8
BLACK
6
CONTINUOUS
10
66.3831
20
-49.731
11
66.252
21
-49.6434
0
LINE
8
BLACK
6
CONTINUOUS
10
66.252
20
-49.6434
11
66.1406
21
-49.532
0
LINE
8
BLACK
6
CONTINUOUS
10
66.1406
20
-49.532
11
66.053
21
-49.4009
0
LINE
8
BLACK
6
CONTINUOUS
10
66.053
20
-49.4009
11
65.9927
21
-49.2554
0
LINE
8
BLACK
6
CONTINUOUS
10
65.9927
20
-49.2554
11
65.962
21
-49.1008
0
LINE
8
BLACK
6
CONTINUOUS
10
65.962
20
-49.1008
11
65.962
21
-48.9432
0
LINE
8
BLACK
6
CONTINUOUS
10
65.962
20
-48.9432
11
65.9927
21
-48.7886
0
LINE
8
BLACK
6
CONTINUOUS
10
65.9927
20
-48.7886
11
66.053
21
-48.6431
0
LINE
8
BLACK
6
CONTINUOUS
10
66.053
20
-48.6431
11
66.1406
21
-48.512
0
LINE
8
BLACK
6
CONTINUOUS
10
66.1406
20
-48.512
11
66.252
21
-48.4006
0
LINE
8
BLACK
6
CONTINUOUS
10
66.252
20
-48.4006
11
66.3831
21
-48.313
0
LINE
8
BLACK
6
CONTINUOUS
10
66.3831
20
-48.313
11
66.5286
21
-48.2527
0
LINE
8
BLACK
6
CONTINUOUS
10
66.5286
20
-48.2527
11
66.6832
21
-48.222
0
LINE
8
BLACK
6
CONTINUOUS
10
66.6832
20
-48.222
11
66.8408
21
-48.222
0
LINE
8
BLACK
6
CONTINUOUS
10
66.8408
20
-48.222
11
66.9954
21
-48.2527
0
LINE
8
BLACK
6
CONTINUOUS
10
65.062
20
-49.722
11
63.462
21
-49.722
0
LINE
8
BLACK
6
CONTINUOUS
10
63.462
20
-49.722
11
63.462
21
-48.322
0
LINE
8
BLACK
6
CONTINUOUS
10
63.462
20
-48.322
11
65.062
21
-48.322
0
LINE
8
BLACK
6
CONTINUOUS
10
65.062
20
-48.322
11
65.062
21
-49.722
0
LINE
8
BLACK
6
CONTINUOUS
10
91.7025
20
-47.6486
11
91.8663
21
-47.7164
0
LINE
8
BLACK
6
CONTINUOUS
10
91.8663
20
-47.7164
11
92.0137
21
-47.8149
0
LINE
8
BLACK
6
CONTINUOUS
10
92.0137
20
-47.8149
11
92.1391
21
-47.9403
0
LINE
8
BLACK
6
CONTINUOUS
10
92.1391
20
-47.9403
11
92.2376
21
-48.0877
0
LINE
8
BLACK
6
CONTINUOUS
10
92.2376
20
-48.0877
11
92.3054
21
-48.2515
0
LINE
8
BLACK
6
CONTINUOUS
10
92.3054
20
-48.2515
11
92.34
21
-48.4254
0
LINE
8
BLACK
6
CONTINUOUS
10
92.34
20
-48.4254
11
92.34
21
-48.6026
0
LINE
8
BLACK
6
CONTINUOUS
10
92.34
20
-48.6026
11
92.3054
21
-48.7765
0
LINE
8
BLACK
6
CONTINUOUS
10
92.3054
20
-48.7765
11
92.2376
21
-48.9403
0
LINE
8
BLACK
6
CONTINUOUS
10
92.2376
20
-48.9403
11
92.1391
21
-49.0877
0
LINE
8
BLACK
6
CONTINUOUS
10
92.1391
20
-49.0877
11
92.0137
21
-49.2131
0
LINE
8
BLACK
6
CONTINUOUS
10
92.0137
20
-49.2131
11
91.8663
21
-49.3116
0
LINE
8
BLACK
6
CONTINUOUS
10
91.8663
20
-49.3116
11
91.7025
21
-49.3794
0
LINE
8
BLACK
6
CONTINUOUS
10
91.7025
20
-49.3794
11
91.5286
21
-49.414
0
LINE
8
BLACK
6
CONTINUOUS
10
91.5286
20
-49.414
11
91.3514
21
-49.414
0
LINE
8
BLACK
6
CONTINUOUS
10
91.3514
20
-49.414
11
91.1775
21
-49.3794
0
LINE
8
BLACK
6
CONTINUOUS
10
91.1775
20
-49.3794
11
91.0137
21
-49.3116
0
LINE
8
BLACK
6
CONTINUOUS
10
91.0137
20
-49.3116
11
90.8663
21
-49.2131
0
LINE
8
BLACK
6
CONTINUOUS
10
90.8663
20
-49.2131
11
90.7409
21
-49.0877
0
LINE
8
BLACK
6
CONTINUOUS
10
90.7409
20
-49.0877
11
90.6424
21
-48.9403
0
LINE
8
BLACK
6
CONTINUOUS
10
90.6424
20
-48.9403
11
90.5746
21
-48.7765
0
LINE
8
BLACK
6
CONTINUOUS
10
90.5746
20
-48.7765
11
90.54
21
-48.6026
0
LINE
8
BLACK
6
CONTINUOUS
10
90.54
20
-48.6026
11
90.54
21
-48.4254
0
LINE
8
BLACK
6
CONTINUOUS
10
90.54
20
-48.4254
11
90.5746
21
-48.2515
0
LINE
8
BLACK
6
CONTINUOUS
10
90.5746
20
-48.2515
11
90.6424
21
-48.0877
0
LINE
8
BLACK
6
CONTINUOUS
10
90.6424
20
-48.0877
11
90.7409
21
-47.9403
0
LINE
8
BLACK
6
CONTINUOUS
10
90.7409
20
-47.9403
11
90.8663
21
-47.8149
0
LINE
8
BLACK
6
CONTINUOUS
10
90.8663
20
-47.8149
11
91.0137
21
-47.7164
0
LINE
8
BLACK
6
CONTINUOUS
10
91.0137
20
-47.7164
11
91.1775
21
-47.6486
0
LINE
8
BLACK
6
CONTINUOUS
10
91.1775
20
-47.6486
11
91.3514
21
-47.614
0
LINE
8
BLACK
6
CONTINUOUS
10
91.3514
20
-47.614
11
91.5286
21
-47.614
0
LINE
8
BLACK
6
CONTINUOUS
10
91.5286
20
-47.614
11
91.7025
21
-47.6486
0
LINE
8
BLACK
6
CONTINUOUS
10
94.88
20
-49.414
11
93.08
21
-49.414
0
LINE
8
BLACK
6
CONTINUOUS
10
93.08
20
-49.414
11
93.08
21
-47.614
0
LINE
8
BLACK
6
CONTINUOUS
10
93.08
20
-47.614
11
94.88
21
-47.614
0
LINE
8
BLACK
6
CONTINUOUS
10
94.88
20
-47.614
11
94.88
21
-49.414
0
LINE
8
BLACK
6
CONTINUOUS
10
56.3207
20
-46.5118
11
56.5003
21
-46.5662
0
LINE
8
BLACK
6
CONTINUOUS
10
56.5003
20
-46.5662
11
56.6657
21
-46.6547
0
LINE
8
BLACK
6
CONTINUOUS
10
56.6657
20
-46.6547
11
56.8108
21
-46.7737
0
LINE
8
BLACK
6
CONTINUOUS
10
56.8108
20
-46.7737
11
56.9298
21
-46.9188
0
LINE
8
BLACK
6
CONTINUOUS
10
56.9298
20
-46.9188
11
57.0183
21
-47.0842
0
LINE
8
BLACK
6
CONTINUOUS
10
57.0183
20
-47.0842
11
57.0727
21
-47.2638
0
LINE
8
BLACK
6
CONTINUOUS
10
57.0727
20
-47.2638
11
57.0865
21
-47.4037
0
LINE
8
BLACK
6
CONTINUOUS
10
57.0865
20
-47.4037
11
57.0865
21
-47.5923
0
LINE
8
BLACK
6
CONTINUOUS
10
57.0865
20
-47.5923
11
57.0727
21
-47.7322
0
LINE
8
BLACK
6
CONTINUOUS
10
57.0727
20
-47.7322
11
57.0183
21
-47.9118
0
LINE
8
BLACK
6
CONTINUOUS
10
57.0183
20
-47.9118
11
56.9298
21
-48.0772
0
LINE
8
BLACK
6
CONTINUOUS
10
56.9298
20
-48.0772
11
56.8108
21
-48.2223
0
LINE
8
BLACK
6
CONTINUOUS
10
56.8108
20
-48.2223
11
56.6657
21
-48.3413
0
LINE
8
BLACK
6
CONTINUOUS
10
56.6657
20
-48.3413
11
56.5003
21
-48.4298
0
LINE
8
BLACK
6
CONTINUOUS
10
56.5003
20
-48.4298
11
56.3207
21
-48.4842
0
LINE
8
BLACK
6
CONTINUOUS
10
56.3207
20
-48.4842
11
56.134
21
-48.5026
0
LINE
8
BLACK
6
CONTINUOUS
10
56.134
20
-48.5026
11
55.9473
21
-48.4842
0
LINE
8
BLACK
6
CONTINUOUS
10
55.9473
20
-48.4842
11
55.7677
21
-48.4298
0
LINE
8
BLACK
6
CONTINUOUS
10
55.7677
20
-48.4298
11
55.6023
21
-48.3413
0
LINE
8
BLACK
6
CONTINUOUS
10
55.6023
20
-48.3413
11
55.4572
21
-48.2223
0
LINE
8
BLACK
6
CONTINUOUS
10
55.4572
20
-48.2223
11
55.3382
21
-48.0772
0
LINE
8
BLACK
6
CONTINUOUS
10
55.3382
20
-48.0772
11
55.2497
21
-47.9118
0
LINE
8
BLACK
6
CONTINUOUS
10
55.2497
20
-47.9118
11
55.1953
21
-47.7322
0
LINE
8
BLACK
6
CONTINUOUS
10
55.1953
20
-47.7322
11
55.1815
21
-47.5923
0
LINE
8
BLACK
6
CONTINUOUS
10
55.1815
20
-47.5923
11
55.1815
21
-47.4037
0
LINE
8
BLACK
6
CONTINUOUS
10
55.1815
20
-47.4037
11
55.1953
21
-47.2638
0
LINE
8
BLACK
6
CONTINUOUS
10
55.1953
20
-47.2638
11
55.2497
21
-47.0842
0
LINE
8
BLACK
6
CONTINUOUS
10
55.2497
20
-47.0842
11
55.3382
21
-46.9188
0
LINE
8
BLACK
6
CONTINUOUS
10
55.3382
20
-46.9188
11
55.4572
21
-46.7737
0
LINE
8
BLACK
6
CONTINUOUS
10
55.4572
20
-46.7737
11
55.6023
21
-46.6547
0
LINE
8
BLACK
6
CONTINUOUS
10
55.6023
20
-46.6547
11
55.7677
21
-46.5662
0
LINE
8
BLACK
6
CONTINUOUS
10
55.7677
20
-46.5662
11
55.9473
21
-46.5118
0
LINE
8
BLACK
6
CONTINUOUS
10
55.9473
20
-46.5118
11
56.134
21
-46.4934
0
LINE
8
BLACK
6
CONTINUOUS
10
56.134
20
-46.4934
11
56.3207
21
-46.5118
0
LINE
8
BLACK
6
CONTINUOUS
10
58.8607
20
-46.5118
11
59.0403
21
-46.5662
0
LINE
8
BLACK
6
CONTINUOUS
10
59.0403
20
-46.5662
11
59.2057
21
-46.6547
0
LINE
8
BLACK
6
CONTINUOUS
10
59.2057
20
-46.6547
11
59.3508
21
-46.7737
0
LINE
8
BLACK
6
CONTINUOUS
10
59.3508
20
-46.7737
11
59.4698
21
-46.9188
0
LINE
8
BLACK
6
CONTINUOUS
10
59.4698
20
-46.9188
11
59.5583
21
-47.0842
0
LINE
8
BLACK
6
CONTINUOUS
10
59.5583
20
-47.0842
11
59.6127
21
-47.2638
0
LINE
8
BLACK
6
CONTINUOUS
10
59.6127
20
-47.2638
11
59.6265
21
-47.4037
0
LINE
8
BLACK
6
CONTINUOUS
10
59.6265
20
-47.4037
11
59.6265
21
-47.5923
0
LINE
8
BLACK
6
CONTINUOUS
10
59.6265
20
-47.5923
11
59.6127
21
-47.7322
0
LINE
8
BLACK
6
CONTINUOUS
10
59.6127
20
-47.7322
11
59.5583
21
-47.9118
0
LINE
8
BLACK
6
CONTINUOUS
10
59.5583
20
-47.9118
11
59.4698
21
-48.0772
0
LINE
8
BLACK
6
CONTINUOUS
10
59.4698
20
-48.0772
11
59.3508
21
-48.2223
0
LINE
8
BLACK
6
CONTINUOUS
10
59.3508
20
-48.2223
11
59.2057
21
-48.3413
0
LINE
8
BLACK
6
CONTINUOUS
10
59.2057
20
-48.3413
11
59.0403
21
-48.4298
0
LINE
8
BLACK
6
CONTINUOUS
10
59.0403
20
-48.4298
11
58.8607
21
-48.4842
0
LINE
8
BLACK
6
CONTINUOUS
10
58.8607
20
-48.4842
11
58.674
21
-48.5026
0
LINE
8
BLACK
6
CONTINUOUS
10
58.674
20
-48.5026
11
58.4873
21
-48.4842
0
LINE
8
BLACK
6
CONTINUOUS
10
58.4873
20
-48.4842
11
58.3077
21
-48.4298
0
LINE
8
BLACK
6
CONTINUOUS
10
58.3077
20
-48.4298
11
58.1423
21
-48.3413
0
LINE
8
BLACK
6
CONTINUOUS
10
58.1423
20
-48.3413
11
57.9972
21
-48.2223
0
LINE
8
BLACK
6
CONTINUOUS
10
57.9972
20
-48.2223
11
57.8782
21
-48.0772
0
LINE
8
BLACK
6
CONTINUOUS
10
57.8782
20
-48.0772
11
57.7897
21
-47.9118
0
LINE
8
BLACK
6
CONTINUOUS
10
57.7897
20
-47.9118
11
57.7353
21
-47.7322
0
LINE
8
BLACK
6
CONTINUOUS
10
57.7353
20
-47.7322
11
57.7215
21
-47.5923
0
LINE
8
BLACK
6
CONTINUOUS
10
57.7215
20
-47.5923
11
57.7215
21
-47.4037
0
LINE
8
BLACK
6
CONTINUOUS
10
57.7215
20
-47.4037
11
57.7353
21
-47.2638
0
LINE
8
BLACK
6
CONTINUOUS
10
57.7353
20
-47.2638
11
57.7897
21
-47.0842
0
LINE
8
BLACK
6
CONTINUOUS
10
57.7897
20
-47.0842
11
57.8782
21
-46.9188
0
LINE
8
BLACK
6
CONTINUOUS
10
57.8782
20
-46.9188
11
57.9972
21
-46.7737
0
LINE
8
BLACK
6
CONTINUOUS
10
57.9972
20
-46.7737
11
58.1423
21
-46.6547
0
LINE
8
BLACK
6
CONTINUOUS
10
58.1423
20
-46.6547
11
58.3077
21
-46.5662
0
LINE
8
BLACK
6
CONTINUOUS
10
58.3077
20
-46.5662
11
58.4873
21
-46.5118
0
LINE
8
BLACK
6
CONTINUOUS
10
58.4873
20
-46.5118
11
58.674
21
-46.4934
0
LINE
8
BLACK
6
CONTINUOUS
10
58.674
20
-46.4934
11
58.8607
21
-46.5118
0
LINE
8
BLACK
6
CONTINUOUS
10
54.5465
20
-48.498
11
52.6415
21
-48.498
0
LINE
8
BLACK
6
CONTINUOUS
10
52.6415
20
-48.498
11
52.6415
21
-46.498
0
LINE
8
BLACK
6
CONTINUOUS
10
52.6415
20
-46.498
11
54.5465
21
-46.498
0
LINE
8
BLACK
6
CONTINUOUS
10
54.5465
20
-46.498
11
54.5465
21
-48.498
0
LINE
8
BLACK
6
CONTINUOUS
10
45.1415
20
-45.5476
11
45.4145
21
-45.6607
0
LINE
8
BLACK
6
CONTINUOUS
10
45.4145
20
-45.6607
11
45.6602
21
-45.8249
0
LINE
8
BLACK
6
CONTINUOUS
10
45.6602
20
-45.8249
11
45.8691
21
-46.0338
0
LINE
8
BLACK
6
CONTINUOUS
10
45.8691
20
-46.0338
11
46.0333
21
-46.2795
0
LINE
8
BLACK
6
CONTINUOUS
10
46.0333
20
-46.2795
11
46.1464
21
-46.5525
0
LINE
8
BLACK
6
CONTINUOUS
10
46.1464
20
-46.5525
11
46.204
21
-46.8423
0
LINE
8
BLACK
6
CONTINUOUS
10
46.204
20
-46.8423
11
46.204
21
-47.1377
0
LINE
8
BLACK
6
CONTINUOUS
10
46.204
20
-47.1377
11
46.1464
21
-47.4275
0
LINE
8
BLACK
6
CONTINUOUS
10
46.1464
20
-47.4275
11
46.0333
21
-47.7005
0
LINE
8
BLACK
6
CONTINUOUS
10
46.0333
20
-47.7005
11
45.8691
21
-47.9462
0
LINE
8
BLACK
6
CONTINUOUS
10
45.8691
20
-47.9462
11
45.6602
21
-48.1551
0
LINE
8
BLACK
6
CONTINUOUS
10
45.6602
20
-48.1551
11
45.4145
21
-48.3193
0
LINE
8
BLACK
6
CONTINUOUS
10
45.4145
20
-48.3193
11
45.1415
21
-48.4324
0
LINE
8
BLACK
6
CONTINUOUS
10
45.1415
20
-48.4324
11
44.8517
21
-48.49
0
LINE
8
BLACK
6
CONTINUOUS
10
44.8517
20
-48.49
11
44.5563
21
-48.49
0
LINE
8
BLACK
6
CONTINUOUS
10
44.5563
20
-48.49
11
44.2665
21
-48.4324
0
LINE
8
BLACK
6
CONTINUOUS
10
44.2665
20
-48.4324
11
43.9935
21
-48.3193
0
LINE
8
BLACK
6
CONTINUOUS
10
43.9935
20
-48.3193
11
43.7478
21
-48.1551
0
LINE
8
BLACK
6
CONTINUOUS
10
43.7478
20
-48.1551
11
43.5389
21
-47.9462
0
LINE
8
BLACK
6
CONTINUOUS
10
43.5389
20
-47.9462
11
43.3747
21
-47.7005
0
LINE
8
BLACK
6
CONTINUOUS
10
43.3747
20
-47.7005
11
43.2616
21
-47.4275
0
LINE
8
BLACK
6
CONTINUOUS
10
43.2616
20
-47.4275
11
43.204
21
-47.1377
0
LINE
8
BLACK
6
CONTINUOUS
10
43.204
20
-47.1377
11
43.204
21
-46.8423
0
LINE
8
BLACK
6
CONTINUOUS
10
43.204
20
-46.8423
11
43.2616
21
-46.5525
0
LINE
8
BLACK
6
CONTINUOUS
10
43.2616
20
-46.5525
11
43.3747
21
-46.2795
0
LINE
8
BLACK
6
CONTINUOUS
10
43.3747
20
-46.2795
11
43.5389
21
-46.0338
0
LINE
8
BLACK
6
CONTINUOUS
10
43.5389
20
-46.0338
11
43.7478
21
-45.8249
0
LINE
8
BLACK
6
CONTINUOUS
10
43.7478
20
-45.8249
11
43.9935
21
-45.6607
0
LINE
8
BLACK
6
CONTINUOUS
10
43.9935
20
-45.6607
11
44.2665
21
-45.5476
0
LINE
8
BLACK
6
CONTINUOUS
10
44.2665
20
-45.5476
11
44.5563
21
-45.49
0
LINE
8
BLACK
6
CONTINUOUS
10
44.5563
20
-45.49
11
44.8517
21
-45.49
0
LINE
8
BLACK
6
CONTINUOUS
10
44.8517
20
-45.49
11
45.1415
21
-45.5476
0
LINE
8
BLACK
6
CONTINUOUS
10
41.124
20
-48.49
11
38.124
21
-48.49
0
LINE
8
BLACK
6
CONTINUOUS
10
38.124
20
-48.49
11
38.124
21
-45.49
0
LINE
8
BLACK
6
CONTINUOUS
10
38.124
20
-45.49
11
41.124
21
-45.49
0
LINE
8
BLACK
6
CONTINUOUS
10
41.124
20
-45.49
11
41.124
21
-48.49
0
LINE
8
BLACK
6
CONTINUOUS
10
66.9954
20
-44.4427
11
67.1409
21
-44.503
0
LINE
8
BLACK
6
CONTINUOUS
10
67.1409
20
-44.503
11
67.272
21
-44.5906
0
LINE
8
BLACK
6
CONTINUOUS
10
67.272
20
-44.5906
11
67.3834
21
-44.702
0
LINE
8
BLACK
6
CONTINUOUS
10
67.3834
20
-44.702
11
67.471
21
-44.8331
0
LINE
8
BLACK
6
CONTINUOUS
10
67.471
20
-44.8331
11
67.5313
21
-44.9786
0
LINE
8
BLACK
6
CONTINUOUS
10
67.5313
20
-44.9786
11
67.562
21
-45.1332
0
LINE
8
BLACK
6
CONTINUOUS
10
67.562
20
-45.1332
11
67.562
21
-45.2908
0
LINE
8
BLACK
6
CONTINUOUS
10
67.562
20
-45.2908
11
67.5313
21
-45.4454
0
LINE
8
BLACK
6
CONTINUOUS
10
67.5313
20
-45.4454
11
67.471
21
-45.5909
0
LINE
8
BLACK
6
CONTINUOUS
10
67.471
20
-45.5909
11
67.3834
21
-45.722
0
LINE
8
BLACK
6
CONTINUOUS
10
67.3834
20
-45.722
11
67.272
21
-45.8334
0
LINE
8
BLACK
6
CONTINUOUS
10
67.272
20
-45.8334
11
67.1409
21
-45.921
0
LINE
8
BLACK
6
CONTINUOUS
10
67.1409
20
-45.921
11
66.9954
21
-45.9813
0
LINE
8
BLACK
6
CONTINUOUS
10
66.9954
20
-45.9813
11
66.8408
21
-46.012
0
LINE
8
BLACK
6
CONTINUOUS
10
66.8408
20
-46.012
11
66.6832
21
-46.012
0
LINE
8
BLACK
6
CONTINUOUS
10
66.6832
20
-46.012
11
66.5286
21
-45.9813
0
LINE
8
BLACK
6
CONTINUOUS
10
66.5286
20
-45.9813
11
66.3831
21
-45.921
0
LINE
8
BLACK
6
CONTINUOUS
10
66.3831
20
-45.921
11
66.252
21
-45.8334
0
LINE
8
BLACK
6
CONTINUOUS
10
66.252
20
-45.8334
11
66.1406
21
-45.722
0
LINE
8
BLACK
6
CONTINUOUS
10
66.1406
20
-45.722
11
66.053
21
-45.5909
0
LINE
8
BLACK
6
CONTINUOUS
10
66.053
20
-45.5909
11
65.9927
21
-45.4454
0
LINE
8
BLACK
6
CONTINUOUS
10
65.9927
20
-45.4454
11
65.962
21
-45.2908
0
LINE
8
BLACK
6
CONTINUOUS
10
65.962
20
-45.2908
11
65.962
21
-45.1332
0
LINE
8
BLACK
6
CONTINUOUS
10
65.962
20
-45.1332
11
65.9927
21
-44.9786
0
LINE
8
BLACK
6
CONTINUOUS
10
65.9927
20
-44.9786
11
66.053
21
-44.8331
0
LINE
8
BLACK
6
CONTINUOUS
10
66.053
20
-44.8331
11
66.1406
21
-44.702
0
LINE
8
BLACK
6
CONTINUOUS
10
66.1406
20
-44.702
11
66.252
21
-44.5906
0
LINE
8
BLACK
6
CONTINUOUS
10
66.252
20
-44.5906
11
66.3831
21
-44.503
0
LINE
8
BLACK
6
CONTINUOUS
10
66.3831
20
-44.503
11
66.5286
21
-44.4427
0
LINE
8
BLACK
6
CONTINUOUS
10
66.5286
20
-44.4427
11
66.6832
21
-44.412
0
LINE
8
BLACK
6
CONTINUOUS
10
66.6832
20
-44.412
11
66.8408
21
-44.412
0
LINE
8
BLACK
6
CONTINUOUS
10
66.8408
20
-44.412
11
66.9954
21
-44.4427
0
LINE
8
BLACK
6
CONTINUOUS
10
78.7194
20
-44.4427
11
78.8649
21
-44.503
0
LINE
8
BLACK
6
CONTINUOUS
10
78.8649
20
-44.503
11
78.996
21
-44.5906
0
LINE
8
BLACK
6
CONTINUOUS
10
78.996
20
-44.5906
11
79.1074
21
-44.702
0
LINE
8
BLACK
6
CONTINUOUS
10
79.1074
20
-44.702
11
79.195
21
-44.8331
0
LINE
8
BLACK
6
CONTINUOUS
10
79.195
20
-44.8331
11
79.2553
21
-44.9786
0
LINE
8
BLACK
6
CONTINUOUS
10
79.2553
20
-44.9786
11
79.286
21
-45.1332
0
LINE
8
BLACK
6
CONTINUOUS
10
79.286
20
-45.1332
11
79.286
21
-45.2908
0
LINE
8
BLACK
6
CONTINUOUS
10
79.286
20
-45.2908
11
79.2553
21
-45.4454
0
LINE
8
BLACK
6
CONTINUOUS
10
79.2553
20
-45.4454
11
79.195
21
-45.5909
0
LINE
8
BLACK
6
CONTINUOUS
10
79.195
20
-45.5909
11
79.1074
21
-45.722
0
LINE
8
BLACK
6
CONTINUOUS
10
79.1074
20
-45.722
11
78.996
21
-45.8334
0
LINE
8
BLACK
6
CONTINUOUS
10
78.996
20
-45.8334
11
78.8649
21
-45.921
0
LINE
8
BLACK
6
CONTINUOUS
10
78.8649
20
-45.921
11
78.7194
21
-45.9813
0
LINE
8
BLACK
6
CONTINUOUS
10
78.7194
20
-45.9813
11
78.5648
21
-46.012
0
LINE
8
BLACK
6
CONTINUOUS
10
78.5648
20
-46.012
11
78.4072
21
-46.012
0
LINE
8
BLACK
6
CONTINUOUS
10
78.4072
20
-46.012
11
78.2526
21
-45.9813
0
LINE
8
BLACK
6
CONTINUOUS
10
78.2526
20
-45.9813
11
78.1071
21
-45.921
0
LINE
8
BLACK
6
CONTINUOUS
10
78.1071
20
-45.921
11
77.976
21
-45.8334
0
LINE
8
BLACK
6
CONTINUOUS
10
77.976
20
-45.8334
11
77.8646
21
-45.722
0
LINE
8
BLACK
6
CONTINUOUS
10
77.8646
20
-45.722
11
77.777
21
-45.5909
0
LINE
8
BLACK
6
CONTINUOUS
10
77.777
20
-45.5909
11
77.7167
21
-45.4454
0
LINE
8
BLACK
6
CONTINUOUS
10
77.7167
20
-45.4454
11
77.686
21
-45.2908
0
LINE
8
BLACK
6
CONTINUOUS
10
77.686
20
-45.2908
11
77.686
21
-45.1332
0
LINE
8
BLACK
6
CONTINUOUS
10
77.686
20
-45.1332
11
77.7167
21
-44.9786
0
LINE
8
BLACK
6
CONTINUOUS
10
77.7167
20
-44.9786
11
77.777
21
-44.8331
0
LINE
8
BLACK
6
CONTINUOUS
10
77.777
20
-44.8331
11
77.8646
21
-44.702
0
LINE
8
BLACK
6
CONTINUOUS
10
77.8646
20
-44.702
11
77.976
21
-44.5906
0
LINE
8
BLACK
6
CONTINUOUS
10
77.976
20
-44.5906
11
78.1071
21
-44.503
0
LINE
8
BLACK
6
CONTINUOUS
10
78.1071
20
-44.503
11
78.2526
21
-44.4427
0
LINE
8
BLACK
6
CONTINUOUS
10
78.2526
20
-44.4427
11
78.4072
21
-44.412
0
LINE
8
BLACK
6
CONTINUOUS
10
78.4072
20
-44.412
11
78.5648
21
-44.412
0
LINE
8
BLACK
6
CONTINUOUS
10
78.5648
20
-44.412
11
78.7194
21
-44.4427
0
LINE
8
BLACK
6
CONTINUOUS
10
64.4954
20
-44.4427
11
64.6409
21
-44.503
0
LINE
8
BLACK
6
CONTINUOUS
10
64.6409
20
-44.503
11
64.772
21
-44.5906
0
LINE
8
BLACK
6
CONTINUOUS
10
64.772
20
-44.5906
11
64.8834
21
-44.702
0
LINE
8
BLACK
6
CONTINUOUS
10
64.8834
20
-44.702
11
64.971
21
-44.8331
0
LINE
8
BLACK
6
CONTINUOUS
10
64.971
20
-44.8331
11
65.0313
21
-44.9786
0
LINE
8
BLACK
6
CONTINUOUS
10
65.0313
20
-44.9786
11
65.062
21
-45.1332
0
LINE
8
BLACK
6
CONTINUOUS
10
65.062
20
-45.1332
11
65.062
21
-45.2908
0
LINE
8
BLACK
6
CONTINUOUS
10
65.062
20
-45.2908
11
65.0313
21
-45.4454
0
LINE
8
BLACK
6
CONTINUOUS
10
65.0313
20
-45.4454
11
64.971
21
-45.5909
0
LINE
8
BLACK
6
CONTINUOUS
10
64.971
20
-45.5909
11
64.8834
21
-45.722
0
LINE
8
BLACK
6
CONTINUOUS
10
64.8834
20
-45.722
11
64.772
21
-45.8334
0
LINE
8
BLACK
6
CONTINUOUS
10
64.772
20
-45.8334
11
64.6409
21
-45.921
0
LINE
8
BLACK
6
CONTINUOUS
10
64.6409
20
-45.921
11
64.4954
21
-45.9813
0
LINE
8
BLACK
6
CONTINUOUS
10
64.4954
20
-45.9813
11
64.3408
21
-46.012
0
LINE
8
BLACK
6
CONTINUOUS
10
64.3408
20
-46.012
11
64.1832
21
-46.012
0
LINE
8
BLACK
6
CONTINUOUS
10
64.1832
20
-46.012
11
64.0286
21
-45.9813
0
LINE
8
BLACK
6
CONTINUOUS
10
64.0286
20
-45.9813
11
63.8831
21
-45.921
0
LINE
8
BLACK
6
CONTINUOUS
10
63.8831
20
-45.921
11
63.752
21
-45.8334
0
LINE
8
BLACK
6
CONTINUOUS
10
63.752
20
-45.8334
11
63.6406
21
-45.722
0
LINE
8
BLACK
6
CONTINUOUS
10
63.6406
20
-45.722
11
63.553
21
-45.5909
0
LINE
8
BLACK
6
CONTINUOUS
10
63.553
20
-45.5909
11
63.4927
21
-45.4454
0
LINE
8
BLACK
6
CONTINUOUS
10
63.4927
20
-45.4454
11
63.462
21
-45.2908
0
LINE
8
BLACK
6
CONTINUOUS
10
63.462
20
-45.2908
11
63.462
21
-45.1332
0
LINE
8
BLACK
6
CONTINUOUS
10
63.462
20
-45.1332
11
63.4927
21
-44.9786
0
LINE
8
BLACK
6
CONTINUOUS
10
63.4927
20
-44.9786
11
63.553
21
-44.8331
0
LINE
8
BLACK
6
CONTINUOUS
10
63.553
20
-44.8331
11
63.6406
21
-44.702
0
LINE
8
BLACK
6
CONTINUOUS
10
63.6406
20
-44.702
11
63.752
21
-44.5906
0
LINE
8
BLACK
6
CONTINUOUS
10
63.752
20
-44.5906
11
63.8831
21
-44.503
0
LINE
8
BLACK
6
CONTINUOUS
10
63.8831
20
-44.503
11
64.0286
21
-44.4427
0
LINE
8
BLACK
6
CONTINUOUS
10
64.0286
20
-44.4427
11
64.1832
21
-44.412
0
LINE
8
BLACK
6
CONTINUOUS
10
64.1832
20
-44.412
11
64.3408
21
-44.412
0
LINE
8
BLACK
6
CONTINUOUS
10
64.3408
20
-44.412
11
64.4954
21
-44.4427
0
LINE
8
BLACK
6
CONTINUOUS
10
82.2754
20
-44.4427
11
82.4209
21
-44.503
0
LINE
8
BLACK
6
CONTINUOUS
10
82.4209
20
-44.503
11
82.552
21
-44.5906
0
LINE
8
BLACK
6
CONTINUOUS
10
82.552
20
-44.5906
11
82.6634
21
-44.702
0
LINE
8
BLACK
6
CONTINUOUS
10
82.6634
20
-44.702
11
82.751
21
-44.8331
0
LINE
8
BLACK
6
CONTINUOUS
10
82.751
20
-44.8331
11
82.8113
21
-44.9786
0
LINE
8
BLACK
6
CONTINUOUS
10
82.8113
20
-44.9786
11
82.842
21
-45.1332
0
LINE
8
BLACK
6
CONTINUOUS
10
82.842
20
-45.1332
11
82.842
21
-45.2908
0
LINE
8
BLACK
6
CONTINUOUS
10
82.842
20
-45.2908
11
82.8113
21
-45.4454
0
LINE
8
BLACK
6
CONTINUOUS
10
82.8113
20
-45.4454
11
82.751
21
-45.5909
0
LINE
8
BLACK
6
CONTINUOUS
10
82.751
20
-45.5909
11
82.6634
21
-45.722
0
LINE
8
BLACK
6
CONTINUOUS
10
82.6634
20
-45.722
11
82.552
21
-45.8334
0
LINE
8
BLACK
6
CONTINUOUS
10
82.552
20
-45.8334
11
82.4209
21
-45.921
0
LINE
8
BLACK
6
CONTINUOUS
10
82.4209
20
-45.921
11
82.2754
21
-45.9813
0
LINE
8
BLACK
6
CONTINUOUS
10
82.2754
20
-45.9813
11
82.1208
21
-46.012
0
LINE
8
BLACK
6
CONTINUOUS
10
82.1208
20
-46.012
11
81.9632
21
-46.012
0
LINE
8
BLACK
6
CONTINUOUS
10
81.9632
20
-46.012
11
81.8086
21
-45.9813
0
LINE
8
BLACK
6
CONTINUOUS
10
81.8086
20
-45.9813
11
81.6631
21
-45.921
0
LINE
8
BLACK
6
CONTINUOUS
10
81.6631
20
-45.921
11
81.532
21
-45.8334
0
LINE
8
BLACK
6
CONTINUOUS
10
81.532
20
-45.8334
11
81.4206
21
-45.722
0
LINE
8
BLACK
6
CONTINUOUS
10
81.4206
20
-45.722
11
81.333
21
-45.5909
0
LINE
8
BLACK
6
CONTINUOUS
10
81.333
20
-45.5909
11
81.2727
21
-45.4454
0
LINE
8
BLACK
6
CONTINUOUS
10
81.2727
20
-45.4454
11
81.242
21
-45.2908
0
LINE
8
BLACK
6
CONTINUOUS
10
81.242
20
-45.2908
11
81.242
21
-45.1332
0
LINE
8
BLACK
6
CONTINUOUS
10
81.242
20
-45.1332
11
81.2727
21
-44.9786
0
LINE
8
BLACK
6
CONTINUOUS
10
81.2727
20
-44.9786
11
81.333
21
-44.8331
0
LINE
8
BLACK
6
CONTINUOUS
10
81.333
20
-44.8331
11
81.4206
21
-44.702
0
LINE
8
BLACK
6
CONTINUOUS
10
81.4206
20
-44.702
11
81.532
21
-44.5906
0
LINE
8
BLACK
6
CONTINUOUS
10
81.532
20
-44.5906
11
81.6631
21
-44.503
0
LINE
8
BLACK
6
CONTINUOUS
10
81.6631
20
-44.503
11
81.8086
21
-44.4427
0
LINE
8
BLACK
6
CONTINUOUS
10
81.8086
20
-44.4427
11
81.9632
21
-44.412
0
LINE
8
BLACK
6
CONTINUOUS
10
81.9632
20
-44.412
11
82.1208
21
-44.412
0
LINE
8
BLACK
6
CONTINUOUS
10
82.1208
20
-44.412
11
82.2754
21
-44.4427
0
LINE
8
BLACK
6
CONTINUOUS
10
84.7754
20
-44.4427
11
84.9209
21
-44.503
0
LINE
8
BLACK
6
CONTINUOUS
10
84.9209
20
-44.503
11
85.052
21
-44.5906
0
LINE
8
BLACK
6
CONTINUOUS
10
85.052
20
-44.5906
11
85.1634
21
-44.702
0
LINE
8
BLACK
6
CONTINUOUS
10
85.1634
20
-44.702
11
85.251
21
-44.8331
0
LINE
8
BLACK
6
CONTINUOUS
10
85.251
20
-44.8331
11
85.3113
21
-44.9786
0
LINE
8
BLACK
6
CONTINUOUS
10
85.3113
20
-44.9786
11
85.342
21
-45.1332
0
LINE
8
BLACK
6
CONTINUOUS
10
85.342
20
-45.1332
11
85.342
21
-45.2908
0
LINE
8
BLACK
6
CONTINUOUS
10
85.342
20
-45.2908
11
85.3113
21
-45.4454
0
LINE
8
BLACK
6
CONTINUOUS
10
85.3113
20
-45.4454
11
85.251
21
-45.5909
0
LINE
8
BLACK
6
CONTINUOUS
10
85.251
20
-45.5909
11
85.1634
21
-45.722
0
LINE
8
BLACK
6
CONTINUOUS
10
85.1634
20
-45.722
11
85.052
21
-45.8334
0
LINE
8
BLACK
6
CONTINUOUS
10
85.052
20
-45.8334
11
84.9209
21
-45.921
0
LINE
8
BLACK
6
CONTINUOUS
10
84.9209
20
-45.921
11
84.7754
21
-45.9813
0
LINE
8
BLACK
6
CONTINUOUS
10
84.7754
20
-45.9813
11
84.6208
21
-46.012
0
LINE
8
BLACK
6
CONTINUOUS
10
84.6208
20
-46.012
11
84.4632
21
-46.012
0
LINE
8
BLACK
6
CONTINUOUS
10
84.4632
20
-46.012
11
84.3086
21
-45.9813
0
LINE
8
BLACK
6
CONTINUOUS
10
84.3086
20
-45.9813
11
84.1631
21
-45.921
0
LINE
8
BLACK
6
CONTINUOUS
10
84.1631
20
-45.921
11
84.032
21
-45.8334
0
LINE
8
BLACK
6
CONTINUOUS
10
84.032
20
-45.8334
11
83.9206
21
-45.722
0
LINE
8
BLACK
6
CONTINUOUS
10
83.9206
20
-45.722
11
83.833
21
-45.5909
0
LINE
8
BLACK
6
CONTINUOUS
10
83.833
20
-45.5909
11
83.7727
21
-45.4454
0
LINE
8
BLACK
6
CONTINUOUS
10
83.7727
20
-45.4454
11
83.742
21
-45.2908
0
LINE
8
BLACK
6
CONTINUOUS
10
83.742
20
-45.2908
11
83.742
21
-45.1332
0
LINE
8
BLACK
6
CONTINUOUS
10
83.742
20
-45.1332
11
83.7727
21
-44.9786
0
LINE
8
BLACK
6
CONTINUOUS
10
83.7727
20
-44.9786
11
83.833
21
-44.8331
0
LINE
8
BLACK
6
CONTINUOUS
10
83.833
20
-44.8331
11
83.9206
21
-44.702
0
LINE
8
BLACK
6
CONTINUOUS
10
83.9206
20
-44.702
11
84.032
21
-44.5906
0
LINE
8
BLACK
6
CONTINUOUS
10
84.032
20
-44.5906
11
84.1631
21
-44.503
0
LINE
8
BLACK
6
CONTINUOUS
10
84.1631
20
-44.503
11
84.3086
21
-44.4427
0
LINE
8
BLACK
6
CONTINUOUS
10
84.3086
20
-44.4427
11
84.4632
21
-44.412
0
LINE
8
BLACK
6
CONTINUOUS
10
84.4632
20
-44.412
11
84.6208
21
-44.412
0
LINE
8
BLACK
6
CONTINUOUS
10
84.6208
20
-44.412
11
84.7754
21
-44.4427
0
LINE
8
BLACK
6
CONTINUOUS
10
72.8774
20
-44.4427
11
73.0229
21
-44.503
0
LINE
8
BLACK
6
CONTINUOUS
10
73.0229
20
-44.503
11
73.154
21
-44.5906
0
LINE
8
BLACK
6
CONTINUOUS
10
73.154
20
-44.5906
11
73.2654
21
-44.702
0
LINE
8
BLACK
6
CONTINUOUS
10
73.2654
20
-44.702
11
73.353
21
-44.8331
0
LINE
8
BLACK
6
CONTINUOUS
10
73.353
20
-44.8331
11
73.4133
21
-44.9786
0
LINE
8
BLACK
6
CONTINUOUS
10
73.4133
20
-44.9786
11
73.444
21
-45.1332
0
LINE
8
BLACK
6
CONTINUOUS
10
73.444
20
-45.1332
11
73.444
21
-45.2908
0
LINE
8
BLACK
6
CONTINUOUS
10
73.444
20
-45.2908
11
73.4133
21
-45.4454
0
LINE
8
BLACK
6
CONTINUOUS
10
73.4133
20
-45.4454
11
73.353
21
-45.5909
0
LINE
8
BLACK
6
CONTINUOUS
10
73.353
20
-45.5909
11
73.2654
21
-45.722
0
LINE
8
BLACK
6
CONTINUOUS
10
73.2654
20
-45.722
11
73.154
21
-45.8334
0
LINE
8
BLACK
6
CONTINUOUS
10
73.154
20
-45.8334
11
73.0229
21
-45.921
0
LINE
8
BLACK
6
CONTINUOUS
10
73.0229
20
-45.921
11
72.8774
21
-45.9813
0
LINE
8
BLACK
6
CONTINUOUS
10
72.8774
20
-45.9813
11
72.7228
21
-46.012
0
LINE
8
BLACK
6
CONTINUOUS
10
72.7228
20
-46.012
11
72.5652
21
-46.012
0
LINE
8
BLACK
6
CONTINUOUS
10
72.5652
20
-46.012
11
72.4106
21
-45.9813
0
LINE
8
BLACK
6
CONTINUOUS
10
72.4106
20
-45.9813
11
72.2651
21
-45.921
0
LINE
8
BLACK
6
CONTINUOUS
10
72.2651
20
-45.921
11
72.134
21
-45.8334
0
LINE
8
BLACK
6
CONTINUOUS
10
72.134
20
-45.8334
11
72.0226
21
-45.722
0
LINE
8
BLACK
6
CONTINUOUS
10
72.0226
20
-45.722
11
71.935
21
-45.5909
0
LINE
8
BLACK
6
CONTINUOUS
10
71.935
20
-45.5909
11
71.8747
21
-45.4454
0
LINE
8
BLACK
6
CONTINUOUS
10
71.8747
20
-45.4454
11
71.844
21
-45.2908
0
LINE
8
BLACK
6
CONTINUOUS
10
71.844
20
-45.2908
11
71.844
21
-45.1332
0
LINE
8
BLACK
6
CONTINUOUS
10
71.844
20
-45.1332
11
71.8747
21
-44.9786
0
LINE
8
BLACK
6
CONTINUOUS
10
71.8747
20
-44.9786
11
71.935
21
-44.8331
0
LINE
8
BLACK
6
CONTINUOUS
10
71.935
20
-44.8331
11
72.0226
21
-44.702
0
LINE
8
BLACK
6
CONTINUOUS
10
72.0226
20
-44.702
11
72.134
21
-44.5906
0
LINE
8
BLACK
6
CONTINUOUS
10
72.134
20
-44.5906
11
72.2651
21
-44.503
0
LINE
8
BLACK
6
CONTINUOUS
10
72.2651
20
-44.503
11
72.4106
21
-44.4427
0
LINE
8
BLACK
6
CONTINUOUS
10
72.4106
20
-44.4427
11
72.5652
21
-44.412
0
LINE
8
BLACK
6
CONTINUOUS
10
72.5652
20
-44.412
11
72.7228
21
-44.412
0
LINE
8
BLACK
6
CONTINUOUS
10
72.7228
20
-44.412
11
72.8774
21
-44.4427
0
LINE
8
BLACK
6
CONTINUOUS
10
70.3774
20
-44.4427
11
70.5229
21
-44.503
0
LINE
8
BLACK
6
CONTINUOUS
10
70.5229
20
-44.503
11
70.654
21
-44.5906
0
LINE
8
BLACK
6
CONTINUOUS
10
70.654
20
-44.5906
11
70.7654
21
-44.702
0
LINE
8
BLACK
6
CONTINUOUS
10
70.7654
20
-44.702
11
70.853
21
-44.8331
0
LINE
8
BLACK
6
CONTINUOUS
10
70.853
20
-44.8331
11
70.9133
21
-44.9786
0
LINE
8
BLACK
6
CONTINUOUS
10
70.9133
20
-44.9786
11
70.944
21
-45.1332
0
LINE
8
BLACK
6
CONTINUOUS
10
70.944
20
-45.1332
11
70.944
21
-45.2908
0
LINE
8
BLACK
6
CONTINUOUS
10
70.944
20
-45.2908
11
70.9133
21
-45.4454
0
LINE
8
BLACK
6
CONTINUOUS
10
70.9133
20
-45.4454
11
70.853
21
-45.5909
0
LINE
8
BLACK
6
CONTINUOUS
10
70.853
20
-45.5909
11
70.7654
21
-45.722
0
LINE
8
BLACK
6
CONTINUOUS
10
70.7654
20
-45.722
11
70.654
21
-45.8334
0
LINE
8
BLACK
6
CONTINUOUS
10
70.654
20
-45.8334
11
70.5229
21
-45.921
0
LINE
8
BLACK
6
CONTINUOUS
10
70.5229
20
-45.921
11
70.3774
21
-45.9813
0
LINE
8
BLACK
6
CONTINUOUS
10
70.3774
20
-45.9813
11
70.2228
21
-46.012
0
LINE
8
BLACK
6
CONTINUOUS
10
70.2228
20
-46.012
11
70.0652
21
-46.012
0
LINE
8
BLACK
6
CONTINUOUS
10
70.0652
20
-46.012
11
69.9106
21
-45.9813
0
LINE
8
BLACK
6
CONTINUOUS
10
69.9106
20
-45.9813
11
69.7651
21
-45.921
0
LINE
8
BLACK
6
CONTINUOUS
10
69.7651
20
-45.921
11
69.634
21
-45.8334
0
LINE
8
BLACK
6
CONTINUOUS
10
69.634
20
-45.8334
11
69.5226
21
-45.722
0
LINE
8
BLACK
6
CONTINUOUS
10
69.5226
20
-45.722
11
69.435
21
-45.5909
0
LINE
8
BLACK
6
CONTINUOUS
10
69.435
20
-45.5909
11
69.3747
21
-45.4454
0
LINE
8
BLACK
6
CONTINUOUS
10
69.3747
20
-45.4454
11
69.344
21
-45.2908
0
LINE
8
BLACK
6
CONTINUOUS
10
69.344
20
-45.2908
11
69.344
21
-45.1332
0
LINE
8
BLACK
6
CONTINUOUS
10
69.344
20
-45.1332
11
69.3747
21
-44.9786
0
LINE
8
BLACK
6
CONTINUOUS
10
69.3747
20
-44.9786
11
69.435
21
-44.8331
0
LINE
8
BLACK
6
CONTINUOUS
10
69.435
20
-44.8331
11
69.5226
21
-44.702
0
LINE
8
BLACK
6
CONTINUOUS
10
69.5226
20
-44.702
11
69.634
21
-44.5906
0
LINE
8
BLACK
6
CONTINUOUS
10
69.634
20
-44.5906
11
69.7651
21
-44.503
0
LINE
8
BLACK
6
CONTINUOUS
10
69.7651
20
-44.503
11
69.9106
21
-44.4427
0
LINE
8
BLACK
6
CONTINUOUS
10
69.9106
20
-44.4427
11
70.0652
21
-44.412
0
LINE
8
BLACK
6
CONTINUOUS
10
70.0652
20
-44.412
11
70.2228
21
-44.412
0
LINE
8
BLACK
6
CONTINUOUS
10
70.2228
20
-44.412
11
70.3774
21
-44.4427
0
LINE
8
BLACK
6
CONTINUOUS
10
76.2194
20
-44.4427
11
76.3649
21
-44.503
0
LINE
8
BLACK
6
CONTINUOUS
10
76.3649
20
-44.503
11
76.496
21
-44.5906
0
LINE
8
BLACK
6
CONTINUOUS
10
76.496
20
-44.5906
11
76.6074
21
-44.702
0
LINE
8
BLACK
6
CONTINUOUS
10
76.6074
20
-44.702
11
76.695
21
-44.8331
0
LINE
8
BLACK
6
CONTINUOUS
10
76.695
20
-44.8331
11
76.7553
21
-44.9786
0
LINE
8
BLACK
6
CONTINUOUS
10
76.7553
20
-44.9786
11
76.786
21
-45.1332
0
LINE
8
BLACK
6
CONTINUOUS
10
76.786
20
-45.1332
11
76.786
21
-45.2908
0
LINE
8
BLACK
6
CONTINUOUS
10
76.786
20
-45.2908
11
76.7553
21
-45.4454
0
LINE
8
BLACK
6
CONTINUOUS
10
76.7553
20
-45.4454
11
76.695
21
-45.5909
0
LINE
8
BLACK
6
CONTINUOUS
10
76.695
20
-45.5909
11
76.6074
21
-45.722
0
LINE
8
BLACK
6
CONTINUOUS
10
76.6074
20
-45.722
11
76.496
21
-45.8334
0
LINE
8
BLACK
6
CONTINUOUS
10
76.496
20
-45.8334
11
76.3649
21
-45.921
0
LINE
8
BLACK
6
CONTINUOUS
10
76.3649
20
-45.921
11
76.2194
21
-45.9813
0
LINE
8
BLACK
6
CONTINUOUS
10
76.2194
20
-45.9813
11
76.0648
21
-46.012
0
LINE
8
BLACK
6
CONTINUOUS
10
76.0648
20
-46.012
11
75.9072
21
-46.012
0
LINE
8
BLACK
6
CONTINUOUS
10
75.9072
20
-46.012
11
75.7526
21
-45.9813
0
LINE
8
BLACK
6
CONTINUOUS
10
75.7526
20
-45.9813
11
75.6071
21
-45.921
0
LINE
8
BLACK
6
CONTINUOUS
10
75.6071
20
-45.921
11
75.476
21
-45.8334
0
LINE
8
BLACK
6
CONTINUOUS
10
75.476
20
-45.8334
11
75.3646
21
-45.722
0
LINE
8
BLACK
6
CONTINUOUS
10
75.3646
20
-45.722
11
75.277
21
-45.5909
0
LINE
8
BLACK
6
CONTINUOUS
10
75.277
20
-45.5909
11
75.2167
21
-45.4454
0
LINE
8
BLACK
6
CONTINUOUS
10
75.2167
20
-45.4454
11
75.186
21
-45.2908
0
LINE
8
BLACK
6
CONTINUOUS
10
75.186
20
-45.2908
11
75.186
21
-45.1332
0
LINE
8
BLACK
6
CONTINUOUS
10
75.186
20
-45.1332
11
75.2167
21
-44.9786
0
LINE
8
BLACK
6
CONTINUOUS
10
75.2167
20
-44.9786
11
75.277
21
-44.8331
0
LINE
8
BLACK
6
CONTINUOUS
10
75.277
20
-44.8331
11
75.3646
21
-44.702
0
LINE
8
BLACK
6
CONTINUOUS
10
75.3646
20
-44.702
11
75.476
21
-44.5906
0
LINE
8
BLACK
6
CONTINUOUS
10
75.476
20
-44.5906
11
75.6071
21
-44.503
0
LINE
8
BLACK
6
CONTINUOUS
10
75.6071
20
-44.503
11
75.7526
21
-44.4427
0
LINE
8
BLACK
6
CONTINUOUS
10
75.7526
20
-44.4427
11
75.9072
21
-44.412
0
LINE
8
BLACK
6
CONTINUOUS
10
75.9072
20
-44.412
11
76.0648
21
-44.412
0
LINE
8
BLACK
6
CONTINUOUS
10
76.0648
20
-44.412
11
76.2194
21
-44.4427
  0
ENDSEC
  0
EOF
