  0
SECTION
  2
HEADER
  9
$ANGBASE
  50
0.0
  9
$ANGDIR
  70
  1
  9
$MEASUREMENT
  70
0
  0
ENDSEC
  0
SECTION
  2
TABLES
  0
TABLE
  2
LTYPE
  70
4
  0
LTYPE
  5
40F
  2
CONTINUOUS
  70
0
  3
Solid line
  72
65
  73
0
  40
0.0
  0
LTYPE
  5
410
  2
DASHDOT
 70
0
  3
Dash Dot ____ _ ____ _
 72
65
 73
4
 40
2.0
 49
1.25
 49
-0.25
 49
0.25
 49
-0.25
  0
LTYPE
  5
411
  2
DASHED
 70
0
  3
Dashed __ __ __ __ __
 72
65
 73
2
 40
0.75
 49
0.5
 49
-0.25
  0
LTYPE
  5
43B
  2
DOTTED
 70
0
  3
Dotted .  .  .  .
 72
65
 73
2
 40
0.2
 49
0.0
 49
-0.2
  0
ENDTAB
  0
TABLE
  2
STYLE
  70
4
  0
STYLE
  2
KICAD
  70
0
  40
0
  41
1
  42
1
  50
0
  71
0
  3
isocp.shx
  0
STYLE
  2
KICADB
  70
0
  40
0
  41
1
  42
1
  50
0
  71
0
  3
isocp.shx
  0
STYLE
  2
KICADI
  70
0
  40
0
  41
1
  42
1
  50
15
  71
0
  3
isocp.shx
  0
STYLE
  2
KICADBI
  70
0
  40
0
  41
1
  42
1
  50
15
  71
0
  3
isocp.shx
  0
ENDTAB
  0
TABLE
  2
LAYER
  70
30
  0
LAYER
  2
BLACK
  70
0
  62
7
  6
CONTINUOUS
  0
LAYER
  2
GRAY1
  70
0
  62
251
  6
CONTINUOUS
  0
LAYER
  2
GRAY2
  70
0
  62
8
  6
CONTINUOUS
  0
LAYER
  2
GRAY3
  70
0
  62
9
  6
CONTINUOUS
  0
LAYER
  2
WHITE
  70
0
  62
7
  6
CONTINUOUS
  0
LAYER
  2
LYELLOW
  70
0
  62
51
  6
CONTINUOUS
  0
LAYER
  2
BLUE1
  70
0
  62
178
  6
CONTINUOUS
  0
LAYER
  2
GREEN1
  70
0
  62
98
  6
CONTINUOUS
  0
LAYER
  2
CYAN1
  70
0
  62
138
  6
CONTINUOUS
  0
LAYER
  2
RED1
  70
0
  62
18
  6
CONTINUOUS
  0
LAYER
  2
MAGENTA1
  70
0
  62
228
  6
CONTINUOUS
  0
LAYER
  2
BROWN1
  70
0
  62
58
  6
CONTINUOUS
  0
LAYER
  2
BLUE2
  70
0
  62
5
  6
CONTINUOUS
  0
LAYER
  2
GREEN2
  70
0
  62
3
  6
CONTINUOUS
  0
LAYER
  2
CYAN2
  70
0
  62
4
  6
CONTINUOUS
  0
LAYER
  2
RED2
  70
0
  62
1
  6
CONTINUOUS
  0
LAYER
  2
MAGENTA2
  70
0
  62
6
  6
CONTINUOUS
  0
LAYER
  2
BROWN2
  70
0
  62
54
  6
CONTINUOUS
  0
LAYER
  2
BLUE3
  70
0
  62
171
  6
CONTINUOUS
  0
LAYER
  2
GREEN3
  70
0
  62
91
  6
CONTINUOUS
  0
LAYER
  2
CYAN3
  70
0
  62
131
  6
CONTINUOUS
  0
LAYER
  2
RED3
  70
0
  62
11
  6
CONTINUOUS
  0
LAYER
  2
MAGENTA3
  70
0
  62
221
  6
CONTINUOUS
  0
LAYER
  2
YELLOW3
  70
0
  62
2
  6
CONTINUOUS
  0
LAYER
  2
BLUE4
  70
0
  62
5
  6
CONTINUOUS
  0
LAYER
  2
GREEN4
  70
0
  62
3
  6
CONTINUOUS
  0
LAYER
  2
CYAN4
  70
0
  62
4
  6
CONTINUOUS
  0
LAYER
  2
RED4
  70
0
  62
1
  6
CONTINUOUS
  0
LAYER
  2
MAGENTA4
  70
0
  62
6
  6
CONTINUOUS
  0
LAYER
  2
YELLOW4
  70
0
  62
2
  6
CONTINUOUS
  0
ENDTAB
  0
ENDSEC
  0
SECTION
  2
ENTITIES
0
LINE
8
BLACK
6
CONTINUOUS
10
85.333
20
-91.983
11
83.831
21
-91.983
0
LINE
8
BLACK
6
CONTINUOUS
10
83.831
20
-91.983
11
83.831
21
-89.881
0
LINE
8
BLACK
6
CONTINUOUS
10
83.831
20
-89.881
11
85.333
21
-89.881
0
LINE
8
BLACK
6
CONTINUOUS
10
85.333
20
-89.881
11
85.333
21
-91.983
0
LINE
8
BLACK
6
CONTINUOUS
10
82.793
20
-91.983
11
81.291
21
-91.983
0
LINE
8
BLACK
6
CONTINUOUS
10
81.291
20
-91.983
11
81.291
21
-89.881
0
LINE
8
BLACK
6
CONTINUOUS
10
81.291
20
-89.881
11
82.793
21
-89.881
0
LINE
8
BLACK
6
CONTINUOUS
10
82.793
20
-89.881
11
82.793
21
-91.983
0
LINE
8
BLACK
6
CONTINUOUS
10
80.253
20
-91.983
11
78.751
21
-91.983
0
LINE
8
BLACK
6
CONTINUOUS
10
78.751
20
-91.983
11
78.751
21
-89.881
0
LINE
8
BLACK
6
CONTINUOUS
10
78.751
20
-89.881
11
80.253
21
-89.881
0
LINE
8
BLACK
6
CONTINUOUS
10
80.253
20
-89.881
11
80.253
21
-91.983
0
LINE
8
BLACK
6
CONTINUOUS
10
77.713
20
-91.983
11
76.211
21
-91.983
0
LINE
8
BLACK
6
CONTINUOUS
10
76.211
20
-91.983
11
76.211
21
-89.881
0
LINE
8
BLACK
6
CONTINUOUS
10
76.211
20
-89.881
11
77.713
21
-89.881
0
LINE
8
BLACK
6
CONTINUOUS
10
77.713
20
-89.881
11
77.713
21
-91.983
0
LINE
8
BLACK
6
CONTINUOUS
10
72.633
20
-91.983
11
71.131
21
-91.983
0
LINE
8
BLACK
6
CONTINUOUS
10
71.131
20
-91.983
11
71.131
21
-89.881
0
LINE
8
BLACK
6
CONTINUOUS
10
71.131
20
-89.881
11
72.633
21
-89.881
0
LINE
8
BLACK
6
CONTINUOUS
10
72.633
20
-89.881
11
72.633
21
-91.983
0
LINE
8
BLACK
6
CONTINUOUS
10
75.173
20
-91.983
11
73.671
21
-91.983
0
LINE
8
BLACK
6
CONTINUOUS
10
73.671
20
-91.983
11
73.671
21
-89.881
0
LINE
8
BLACK
6
CONTINUOUS
10
73.671
20
-89.881
11
75.173
21
-89.881
0
LINE
8
BLACK
6
CONTINUOUS
10
75.173
20
-89.881
11
75.173
21
-91.983
0
LINE
8
BLACK
6
CONTINUOUS
10
66.283
20
-91.729
11
64.781
21
-91.729
0
LINE
8
BLACK
6
CONTINUOUS
10
64.781
20
-91.729
11
64.781
21
-89.627
0
LINE
8
BLACK
6
CONTINUOUS
10
64.781
20
-89.627
11
66.283
21
-89.627
0
LINE
8
BLACK
6
CONTINUOUS
10
66.283
20
-89.627
11
66.283
21
-91.729
0
LINE
8
BLACK
6
CONTINUOUS
10
61.203
20
-91.729
11
59.701
21
-91.729
0
LINE
8
BLACK
6
CONTINUOUS
10
59.701
20
-91.729
11
59.701
21
-89.627
0
LINE
8
BLACK
6
CONTINUOUS
10
59.701
20
-89.627
11
61.203
21
-89.627
0
LINE
8
BLACK
6
CONTINUOUS
10
61.203
20
-89.627
11
61.203
21
-91.729
0
LINE
8
BLACK
6
CONTINUOUS
10
58.663
20
-91.729
11
57.161
21
-91.729
0
LINE
8
BLACK
6
CONTINUOUS
10
57.161
20
-91.729
11
57.161
21
-89.627
0
LINE
8
BLACK
6
CONTINUOUS
10
57.161
20
-89.627
11
58.663
21
-89.627
0
LINE
8
BLACK
6
CONTINUOUS
10
58.663
20
-89.627
11
58.663
21
-91.729
0
LINE
8
BLACK
6
CONTINUOUS
10
56.123
20
-91.729
11
54.621
21
-91.729
0
LINE
8
BLACK
6
CONTINUOUS
10
54.621
20
-91.729
11
54.621
21
-89.627
0
LINE
8
BLACK
6
CONTINUOUS
10
54.621
20
-89.627
11
56.123
21
-89.627
0
LINE
8
BLACK
6
CONTINUOUS
10
56.123
20
-89.627
11
56.123
21
-91.729
0
LINE
8
BLACK
6
CONTINUOUS
10
53.583
20
-91.729
11
52.081
21
-91.729
0
LINE
8
BLACK
6
CONTINUOUS
10
52.081
20
-91.729
11
52.081
21
-89.627
0
LINE
8
BLACK
6
CONTINUOUS
10
52.081
20
-89.627
11
53.583
21
-89.627
0
LINE
8
BLACK
6
CONTINUOUS
10
53.583
20
-89.627
11
53.583
21
-91.729
0
LINE
8
BLACK
6
CONTINUOUS
10
63.743
20
-91.729
11
62.241
21
-91.729
0
LINE
8
BLACK
6
CONTINUOUS
10
62.241
20
-91.729
11
62.241
21
-89.627
0
LINE
8
BLACK
6
CONTINUOUS
10
62.241
20
-89.627
11
63.743
21
-89.627
0
LINE
8
BLACK
6
CONTINUOUS
10
63.743
20
-89.627
11
63.743
21
-91.729
0
LINE
8
BLACK
6
CONTINUOUS
10
79.283
20
-84.417
11
77.181
21
-84.417
0
LINE
8
BLACK
6
CONTINUOUS
10
77.181
20
-84.417
11
77.181
21
-82.715
0
LINE
8
BLACK
6
CONTINUOUS
10
77.181
20
-82.715
11
79.283
21
-82.715
0
LINE
8
BLACK
6
CONTINUOUS
10
79.283
20
-82.715
11
79.283
21
-84.417
0
LINE
8
BLACK
6
CONTINUOUS
10
61.249
20
-84.063
11
59.147
21
-84.063
0
LINE
8
BLACK
6
CONTINUOUS
10
59.147
20
-84.063
11
59.147
21
-82.561
0
LINE
8
BLACK
6
CONTINUOUS
10
59.147
20
-82.561
11
61.249
21
-82.561
0
LINE
8
BLACK
6
CONTINUOUS
10
61.249
20
-82.561
11
61.249
21
-84.063
0
LINE
8
BLACK
6
CONTINUOUS
10
39.1102
20
-80.4617
11
39.2651
21
-80.5259
0
LINE
8
BLACK
6
CONTINUOUS
10
39.2651
20
-80.5259
11
39.4045
21
-80.619
0
LINE
8
BLACK
6
CONTINUOUS
10
39.4045
20
-80.619
11
39.523
21
-80.7375
0
LINE
8
BLACK
6
CONTINUOUS
10
39.523
20
-80.7375
11
39.6161
21
-80.8769
0
LINE
8
BLACK
6
CONTINUOUS
10
39.6161
20
-80.8769
11
39.6803
21
-81.0318
0
LINE
8
BLACK
6
CONTINUOUS
10
39.6803
20
-81.0318
11
39.713
21
-81.1962
0
LINE
8
BLACK
6
CONTINUOUS
10
39.713
20
-81.1962
11
39.713
21
-81.3638
0
LINE
8
BLACK
6
CONTINUOUS
10
39.713
20
-81.3638
11
39.6803
21
-81.5282
0
LINE
8
BLACK
6
CONTINUOUS
10
39.6803
20
-81.5282
11
39.6161
21
-81.6831
0
LINE
8
BLACK
6
CONTINUOUS
10
39.6161
20
-81.6831
11
39.523
21
-81.8225
0
LINE
8
BLACK
6
CONTINUOUS
10
39.523
20
-81.8225
11
39.4045
21
-81.941
0
LINE
8
BLACK
6
CONTINUOUS
10
39.4045
20
-81.941
11
39.2651
21
-82.0341
0
LINE
8
BLACK
6
CONTINUOUS
10
39.2651
20
-82.0341
11
39.1102
21
-82.0983
0
LINE
8
BLACK
6
CONTINUOUS
10
39.1102
20
-82.0983
11
38.9458
21
-82.131
0
LINE
8
BLACK
6
CONTINUOUS
10
38.9458
20
-82.131
11
38.7782
21
-82.131
0
LINE
8
BLACK
6
CONTINUOUS
10
38.7782
20
-82.131
11
38.6138
21
-82.0983
0
LINE
8
BLACK
6
CONTINUOUS
10
38.6138
20
-82.0983
11
38.4589
21
-82.0341
0
LINE
8
BLACK
6
CONTINUOUS
10
38.4589
20
-82.0341
11
38.3195
21
-81.941
0
LINE
8
BLACK
6
CONTINUOUS
10
38.3195
20
-81.941
11
38.201
21
-81.8225
0
LINE
8
BLACK
6
CONTINUOUS
10
38.201
20
-81.8225
11
38.1079
21
-81.6831
0
LINE
8
BLACK
6
CONTINUOUS
10
38.1079
20
-81.6831
11
38.0437
21
-81.5282
0
LINE
8
BLACK
6
CONTINUOUS
10
38.0437
20
-81.5282
11
38.011
21
-81.3638
0
LINE
8
BLACK
6
CONTINUOUS
10
38.011
20
-81.3638
11
38.011
21
-81.1962
0
LINE
8
BLACK
6
CONTINUOUS
10
38.011
20
-81.1962
11
38.0437
21
-81.0318
0
LINE
8
BLACK
6
CONTINUOUS
10
38.0437
20
-81.0318
11
38.1079
21
-80.8769
0
LINE
8
BLACK
6
CONTINUOUS
10
38.1079
20
-80.8769
11
38.201
21
-80.7375
0
LINE
8
BLACK
6
CONTINUOUS
10
38.201
20
-80.7375
11
38.3195
21
-80.619
0
LINE
8
BLACK
6
CONTINUOUS
10
38.3195
20
-80.619
11
38.4589
21
-80.5259
0
LINE
8
BLACK
6
CONTINUOUS
10
38.4589
20
-80.5259
11
38.6138
21
-80.4617
0
LINE
8
BLACK
6
CONTINUOUS
10
38.6138
20
-80.4617
11
38.7782
21
-80.429
0
LINE
8
BLACK
6
CONTINUOUS
10
38.7782
20
-80.429
11
38.9458
21
-80.429
0
LINE
8
BLACK
6
CONTINUOUS
10
38.9458
20
-80.429
11
39.1102
21
-80.4617
0
LINE
8
BLACK
6
CONTINUOUS
10
79.283
20
-81.877
11
77.181
21
-81.877
0
LINE
8
BLACK
6
CONTINUOUS
10
77.181
20
-81.877
11
77.181
21
-80.175
0
LINE
8
BLACK
6
CONTINUOUS
10
77.181
20
-80.175
11
79.283
21
-80.175
0
LINE
8
BLACK
6
CONTINUOUS
10
79.283
20
-80.175
11
79.283
21
-81.877
0
LINE
8
BLACK
6
CONTINUOUS
10
95.583
20
-81.877
11
93.481
21
-81.877
0
LINE
8
BLACK
6
CONTINUOUS
10
93.481
20
-81.877
11
93.481
21
-80.175
0
LINE
8
BLACK
6
CONTINUOUS
10
93.481
20
-80.175
11
95.583
21
-80.175
0
LINE
8
BLACK
6
CONTINUOUS
10
95.583
20
-80.175
11
95.583
21
-81.877
0
LINE
8
BLACK
6
CONTINUOUS
10
44.949
20
-81.623
11
42.847
21
-81.623
0
LINE
8
BLACK
6
CONTINUOUS
10
42.847
20
-81.623
11
42.847
21
-79.921
0
LINE
8
BLACK
6
CONTINUOUS
10
42.847
20
-79.921
11
44.949
21
-79.921
0
LINE
8
BLACK
6
CONTINUOUS
10
44.949
20
-79.921
11
44.949
21
-81.623
0
LINE
8
BLACK
6
CONTINUOUS
10
61.249
20
-81.523
11
59.147
21
-81.523
0
LINE
8
BLACK
6
CONTINUOUS
10
59.147
20
-81.523
11
59.147
21
-80.021
0
LINE
8
BLACK
6
CONTINUOUS
10
59.147
20
-80.021
11
61.249
21
-80.021
0
LINE
8
BLACK
6
CONTINUOUS
10
61.249
20
-80.021
11
61.249
21
-81.523
0
LINE
8
BLACK
6
CONTINUOUS
10
102.98
20
-79.6235
11
103.047
21
-79.63
0
LINE
8
BLACK
6
CONTINUOUS
10
103.047
20
-79.63
11
103.216
21
-79.6816
0
LINE
8
BLACK
6
CONTINUOUS
10
103.216
20
-79.6816
11
103.373
21
-79.7652
0
LINE
8
BLACK
6
CONTINUOUS
10
103.373
20
-79.7652
11
103.409
21
-79.7946
0
LINE
8
BLACK
6
CONTINUOUS
10
103.409
20
-79.7946
11
103.51
21
-79.8778
0
LINE
8
BLACK
6
CONTINUOUS
10
103.51
20
-79.8778
11
103.593
21
-79.9793
0
LINE
8
BLACK
6
CONTINUOUS
10
103.593
20
-79.9793
11
103.623
21
-80.015
0
LINE
8
BLACK
6
CONTINUOUS
10
103.623
20
-80.015
11
103.706
21
-80.1715
0
LINE
8
BLACK
6
CONTINUOUS
10
103.706
20
-80.1715
11
103.758
21
-80.3414
0
LINE
8
BLACK
6
CONTINUOUS
10
103.758
20
-80.3414
11
103.775
21
-80.518
0
LINE
8
BLACK
6
CONTINUOUS
10
103.775
20
-80.518
11
103.758
21
-80.6946
0
LINE
8
BLACK
6
CONTINUOUS
10
103.758
20
-80.6946
11
103.706
21
-80.8645
0
LINE
8
BLACK
6
CONTINUOUS
10
103.706
20
-80.8645
11
103.623
21
-81.021
0
LINE
8
BLACK
6
CONTINUOUS
10
103.623
20
-81.021
11
103.614
21
-81.0318
0
LINE
8
BLACK
6
CONTINUOUS
10
103.614
20
-81.0318
11
103.51
21
-81.1582
0
LINE
8
BLACK
6
CONTINUOUS
10
103.51
20
-81.1582
11
103.409
21
-81.2414
0
LINE
8
BLACK
6
CONTINUOUS
10
103.409
20
-81.2414
11
103.373
21
-81.2708
0
LINE
8
BLACK
6
CONTINUOUS
10
103.373
20
-81.2708
11
103.216
21
-81.3544
0
LINE
8
BLACK
6
CONTINUOUS
10
103.216
20
-81.3544
11
103.047
21
-81.406
0
LINE
8
BLACK
6
CONTINUOUS
10
103.047
20
-81.406
11
102.98
21
-81.4125
0
LINE
8
BLACK
6
CONTINUOUS
10
102.98
20
-81.4125
11
102.914
21
-81.419
0
LINE
8
BLACK
6
CONTINUOUS
10
102.914
20
-81.419
11
102.826
21
-81.419
0
LINE
8
BLACK
6
CONTINUOUS
10
102.826
20
-81.419
11
102.76
21
-81.4125
0
LINE
8
BLACK
6
CONTINUOUS
10
102.76
20
-81.4125
11
102.693
21
-81.406
0
LINE
8
BLACK
6
CONTINUOUS
10
102.693
20
-81.406
11
102.524
21
-81.3544
0
LINE
8
BLACK
6
CONTINUOUS
10
102.524
20
-81.3544
11
102.367
21
-81.2708
0
LINE
8
BLACK
6
CONTINUOUS
10
102.367
20
-81.2708
11
102.331
21
-81.2414
0
LINE
8
BLACK
6
CONTINUOUS
10
102.331
20
-81.2414
11
102.23
21
-81.1582
0
LINE
8
BLACK
6
CONTINUOUS
10
102.23
20
-81.1582
11
102.126
21
-81.0318
0
LINE
8
BLACK
6
CONTINUOUS
10
102.126
20
-81.0318
11
102.117
21
-81.021
0
LINE
8
BLACK
6
CONTINUOUS
10
102.117
20
-81.021
11
102.034
21
-80.8645
0
LINE
8
BLACK
6
CONTINUOUS
10
102.034
20
-80.8645
11
101.982
21
-80.6946
0
LINE
8
BLACK
6
CONTINUOUS
10
101.982
20
-80.6946
11
101.965
21
-80.518
0
LINE
8
BLACK
6
CONTINUOUS
10
101.965
20
-80.518
11
101.982
21
-80.3414
0
LINE
8
BLACK
6
CONTINUOUS
10
101.982
20
-80.3414
11
102.034
21
-80.1715
0
LINE
8
BLACK
6
CONTINUOUS
10
102.034
20
-80.1715
11
102.117
21
-80.015
0
LINE
8
BLACK
6
CONTINUOUS
10
102.117
20
-80.015
11
102.147
21
-79.9793
0
LINE
8
BLACK
6
CONTINUOUS
10
102.147
20
-79.9793
11
102.23
21
-79.8778
0
LINE
8
BLACK
6
CONTINUOUS
10
102.23
20
-79.8778
11
102.331
21
-79.7946
0
LINE
8
BLACK
6
CONTINUOUS
10
102.331
20
-79.7946
11
102.367
21
-79.7652
0
LINE
8
BLACK
6
CONTINUOUS
10
102.367
20
-79.7652
11
102.524
21
-79.6816
0
LINE
8
BLACK
6
CONTINUOUS
10
102.524
20
-79.6816
11
102.693
21
-79.63
0
LINE
8
BLACK
6
CONTINUOUS
10
102.693
20
-79.63
11
102.76
21
-79.6235
0
LINE
8
BLACK
6
CONTINUOUS
10
102.76
20
-79.6235
11
102.826
21
-79.617
0
LINE
8
BLACK
6
CONTINUOUS
10
102.826
20
-79.617
11
102.914
21
-79.617
0
LINE
8
BLACK
6
CONTINUOUS
10
102.914
20
-79.617
11
102.98
21
-79.6235
0
LINE
8
BLACK
6
CONTINUOUS
10
74.203
20
-80.253
11
72.101
21
-80.253
0
LINE
8
BLACK
6
CONTINUOUS
10
72.101
20
-80.253
11
72.101
21
-78.751
0
LINE
8
BLACK
6
CONTINUOUS
10
72.101
20
-78.751
11
74.203
21
-78.751
0
LINE
8
BLACK
6
CONTINUOUS
10
74.203
20
-78.751
11
74.203
21
-80.253
0
LINE
8
BLACK
6
CONTINUOUS
10
66.583
20
-80.253
11
64.481
21
-80.253
0
LINE
8
BLACK
6
CONTINUOUS
10
64.481
20
-80.253
11
64.481
21
-78.751
0
LINE
8
BLACK
6
CONTINUOUS
10
64.481
20
-78.751
11
66.583
21
-78.751
0
LINE
8
BLACK
6
CONTINUOUS
10
66.583
20
-78.751
11
66.583
21
-80.253
0
LINE
8
BLACK
6
CONTINUOUS
10
39.1102
20
-77.9617
11
39.2651
21
-78.0259
0
LINE
8
BLACK
6
CONTINUOUS
10
39.2651
20
-78.0259
11
39.4045
21
-78.119
0
LINE
8
BLACK
6
CONTINUOUS
10
39.4045
20
-78.119
11
39.523
21
-78.2375
0
LINE
8
BLACK
6
CONTINUOUS
10
39.523
20
-78.2375
11
39.6161
21
-78.3769
0
LINE
8
BLACK
6
CONTINUOUS
10
39.6161
20
-78.3769
11
39.6803
21
-78.5318
0
LINE
8
BLACK
6
CONTINUOUS
10
39.6803
20
-78.5318
11
39.713
21
-78.6962
0
LINE
8
BLACK
6
CONTINUOUS
10
39.713
20
-78.6962
11
39.713
21
-78.8638
0
LINE
8
BLACK
6
CONTINUOUS
10
39.713
20
-78.8638
11
39.6803
21
-79.0282
0
LINE
8
BLACK
6
CONTINUOUS
10
39.6803
20
-79.0282
11
39.6161
21
-79.1831
0
LINE
8
BLACK
6
CONTINUOUS
10
39.6161
20
-79.1831
11
39.523
21
-79.3225
0
LINE
8
BLACK
6
CONTINUOUS
10
39.523
20
-79.3225
11
39.4045
21
-79.441
0
LINE
8
BLACK
6
CONTINUOUS
10
39.4045
20
-79.441
11
39.2651
21
-79.5341
0
LINE
8
BLACK
6
CONTINUOUS
10
39.2651
20
-79.5341
11
39.1102
21
-79.5983
0
LINE
8
BLACK
6
CONTINUOUS
10
39.1102
20
-79.5983
11
38.9458
21
-79.631
0
LINE
8
BLACK
6
CONTINUOUS
10
38.9458
20
-79.631
11
38.7782
21
-79.631
0
LINE
8
BLACK
6
CONTINUOUS
10
38.7782
20
-79.631
11
38.6138
21
-79.5983
0
LINE
8
BLACK
6
CONTINUOUS
10
38.6138
20
-79.5983
11
38.4589
21
-79.5341
0
LINE
8
BLACK
6
CONTINUOUS
10
38.4589
20
-79.5341
11
38.3195
21
-79.441
0
LINE
8
BLACK
6
CONTINUOUS
10
38.3195
20
-79.441
11
38.201
21
-79.3225
0
LINE
8
BLACK
6
CONTINUOUS
10
38.201
20
-79.3225
11
38.1079
21
-79.1831
0
LINE
8
BLACK
6
CONTINUOUS
10
38.1079
20
-79.1831
11
38.0437
21
-79.0282
0
LINE
8
BLACK
6
CONTINUOUS
10
38.0437
20
-79.0282
11
38.011
21
-78.8638
0
LINE
8
BLACK
6
CONTINUOUS
10
38.011
20
-78.8638
11
38.011
21
-78.6962
0
LINE
8
BLACK
6
CONTINUOUS
10
38.011
20
-78.6962
11
38.0437
21
-78.5318
0
LINE
8
BLACK
6
CONTINUOUS
10
38.0437
20
-78.5318
11
38.1079
21
-78.3769
0
LINE
8
BLACK
6
CONTINUOUS
10
38.1079
20
-78.3769
11
38.201
21
-78.2375
0
LINE
8
BLACK
6
CONTINUOUS
10
38.201
20
-78.2375
11
38.3195
21
-78.119
0
LINE
8
BLACK
6
CONTINUOUS
10
38.3195
20
-78.119
11
38.4589
21
-78.0259
0
LINE
8
BLACK
6
CONTINUOUS
10
38.4589
20
-78.0259
11
38.6138
21
-77.9617
0
LINE
8
BLACK
6
CONTINUOUS
10
38.6138
20
-77.9617
11
38.7782
21
-77.929
0
LINE
8
BLACK
6
CONTINUOUS
10
38.7782
20
-77.929
11
38.9458
21
-77.929
0
LINE
8
BLACK
6
CONTINUOUS
10
38.9458
20
-77.929
11
39.1102
21
-77.9617
0
LINE
8
BLACK
6
CONTINUOUS
10
79.283
20
-79.337
11
77.181
21
-79.337
0
LINE
8
BLACK
6
CONTINUOUS
10
77.181
20
-79.337
11
77.181
21
-77.635
0
LINE
8
BLACK
6
CONTINUOUS
10
77.181
20
-77.635
11
79.283
21
-77.635
0
LINE
8
BLACK
6
CONTINUOUS
10
79.283
20
-77.635
11
79.283
21
-79.337
0
LINE
8
BLACK
6
CONTINUOUS
10
95.583
20
-79.337
11
93.481
21
-79.337
0
LINE
8
BLACK
6
CONTINUOUS
10
93.481
20
-79.337
11
93.481
21
-77.635
0
LINE
8
BLACK
6
CONTINUOUS
10
93.481
20
-77.635
11
95.583
21
-77.635
0
LINE
8
BLACK
6
CONTINUOUS
10
95.583
20
-77.635
11
95.583
21
-79.337
0
LINE
8
BLACK
6
CONTINUOUS
10
44.949
20
-79.083
11
42.847
21
-79.083
0
LINE
8
BLACK
6
CONTINUOUS
10
42.847
20
-79.083
11
42.847
21
-77.381
0
LINE
8
BLACK
6
CONTINUOUS
10
42.847
20
-77.381
11
44.949
21
-77.381
0
LINE
8
BLACK
6
CONTINUOUS
10
44.949
20
-77.381
11
44.949
21
-79.083
0
LINE
8
BLACK
6
CONTINUOUS
10
61.249
20
-78.983
11
59.147
21
-78.983
0
LINE
8
BLACK
6
CONTINUOUS
10
59.147
20
-78.983
11
59.147
21
-77.481
0
LINE
8
BLACK
6
CONTINUOUS
10
59.147
20
-77.481
11
61.249
21
-77.481
0
LINE
8
BLACK
6
CONTINUOUS
10
61.249
20
-77.481
11
61.249
21
-78.983
0
LINE
8
BLACK
6
CONTINUOUS
10
102.98
20
-77.0835
11
103.047
21
-77.09
0
LINE
8
BLACK
6
CONTINUOUS
10
103.047
20
-77.09
11
103.216
21
-77.1416
0
LINE
8
BLACK
6
CONTINUOUS
10
103.216
20
-77.1416
11
103.373
21
-77.2252
0
LINE
8
BLACK
6
CONTINUOUS
10
103.373
20
-77.2252
11
103.409
21
-77.2546
0
LINE
8
BLACK
6
CONTINUOUS
10
103.409
20
-77.2546
11
103.51
21
-77.3378
0
LINE
8
BLACK
6
CONTINUOUS
10
103.51
20
-77.3378
11
103.593
21
-77.4393
0
LINE
8
BLACK
6
CONTINUOUS
10
103.593
20
-77.4393
11
103.623
21
-77.475
0
LINE
8
BLACK
6
CONTINUOUS
10
103.623
20
-77.475
11
103.706
21
-77.6315
0
LINE
8
BLACK
6
CONTINUOUS
10
103.706
20
-77.6315
11
103.758
21
-77.8014
0
LINE
8
BLACK
6
CONTINUOUS
10
103.758
20
-77.8014
11
103.775
21
-77.978
0
LINE
8
BLACK
6
CONTINUOUS
10
103.775
20
-77.978
11
103.758
21
-78.1546
0
LINE
8
BLACK
6
CONTINUOUS
10
103.758
20
-78.1546
11
103.706
21
-78.3245
0
LINE
8
BLACK
6
CONTINUOUS
10
103.706
20
-78.3245
11
103.623
21
-78.481
0
LINE
8
BLACK
6
CONTINUOUS
10
103.623
20
-78.481
11
103.593
21
-78.5167
0
LINE
8
BLACK
6
CONTINUOUS
10
103.593
20
-78.5167
11
103.51
21
-78.6182
0
LINE
8
BLACK
6
CONTINUOUS
10
103.51
20
-78.6182
11
103.409
21
-78.7014
0
LINE
8
BLACK
6
CONTINUOUS
10
103.409
20
-78.7014
11
103.373
21
-78.7308
0
LINE
8
BLACK
6
CONTINUOUS
10
103.373
20
-78.7308
11
103.216
21
-78.8144
0
LINE
8
BLACK
6
CONTINUOUS
10
103.216
20
-78.8144
11
103.047
21
-78.866
0
LINE
8
BLACK
6
CONTINUOUS
10
103.047
20
-78.866
11
102.98
21
-78.8725
0
LINE
8
BLACK
6
CONTINUOUS
10
102.98
20
-78.8725
11
102.914
21
-78.879
0
LINE
8
BLACK
6
CONTINUOUS
10
102.914
20
-78.879
11
102.826
21
-78.879
0
LINE
8
BLACK
6
CONTINUOUS
10
102.826
20
-78.879
11
102.76
21
-78.8725
0
LINE
8
BLACK
6
CONTINUOUS
10
102.76
20
-78.8725
11
102.693
21
-78.866
0
LINE
8
BLACK
6
CONTINUOUS
10
102.693
20
-78.866
11
102.524
21
-78.8144
0
LINE
8
BLACK
6
CONTINUOUS
10
102.524
20
-78.8144
11
102.367
21
-78.7308
0
LINE
8
BLACK
6
CONTINUOUS
10
102.367
20
-78.7308
11
102.331
21
-78.7014
0
LINE
8
BLACK
6
CONTINUOUS
10
102.331
20
-78.7014
11
102.23
21
-78.6182
0
LINE
8
BLACK
6
CONTINUOUS
10
102.23
20
-78.6182
11
102.147
21
-78.5167
0
LINE
8
BLACK
6
CONTINUOUS
10
102.147
20
-78.5167
11
102.117
21
-78.481
0
LINE
8
BLACK
6
CONTINUOUS
10
102.117
20
-78.481
11
102.034
21
-78.3245
0
LINE
8
BLACK
6
CONTINUOUS
10
102.034
20
-78.3245
11
101.982
21
-78.1546
0
LINE
8
BLACK
6
CONTINUOUS
10
101.982
20
-78.1546
11
101.965
21
-77.978
0
LINE
8
BLACK
6
CONTINUOUS
10
101.965
20
-77.978
11
101.982
21
-77.8014
0
LINE
8
BLACK
6
CONTINUOUS
10
101.982
20
-77.8014
11
102.034
21
-77.6315
0
LINE
8
BLACK
6
CONTINUOUS
10
102.034
20
-77.6315
11
102.117
21
-77.475
0
LINE
8
BLACK
6
CONTINUOUS
10
102.117
20
-77.475
11
102.147
21
-77.4393
0
LINE
8
BLACK
6
CONTINUOUS
10
102.147
20
-77.4393
11
102.23
21
-77.3378
0
LINE
8
BLACK
6
CONTINUOUS
10
102.23
20
-77.3378
11
102.331
21
-77.2546
0
LINE
8
BLACK
6
CONTINUOUS
10
102.331
20
-77.2546
11
102.367
21
-77.2252
0
LINE
8
BLACK
6
CONTINUOUS
10
102.367
20
-77.2252
11
102.524
21
-77.1416
0
LINE
8
BLACK
6
CONTINUOUS
10
102.524
20
-77.1416
11
102.693
21
-77.09
0
LINE
8
BLACK
6
CONTINUOUS
10
102.693
20
-77.09
11
102.76
21
-77.0835
0
LINE
8
BLACK
6
CONTINUOUS
10
102.76
20
-77.0835
11
102.826
21
-77.077
0
LINE
8
BLACK
6
CONTINUOUS
10
102.826
20
-77.077
11
102.914
21
-77.077
0
LINE
8
BLACK
6
CONTINUOUS
10
102.914
20
-77.077
11
102.98
21
-77.0835
0
LINE
8
BLACK
6
CONTINUOUS
10
66.583
20
-77.713
11
64.481
21
-77.713
0
LINE
8
BLACK
6
CONTINUOUS
10
64.481
20
-77.713
11
64.481
21
-76.211
0
LINE
8
BLACK
6
CONTINUOUS
10
64.481
20
-76.211
11
66.583
21
-76.211
0
LINE
8
BLACK
6
CONTINUOUS
10
66.583
20
-76.211
11
66.583
21
-77.713
0
LINE
8
BLACK
6
CONTINUOUS
10
74.203
20
-77.713
11
72.101
21
-77.713
0
LINE
8
BLACK
6
CONTINUOUS
10
72.101
20
-77.713
11
72.101
21
-76.211
0
LINE
8
BLACK
6
CONTINUOUS
10
72.101
20
-76.211
11
74.203
21
-76.211
0
LINE
8
BLACK
6
CONTINUOUS
10
74.203
20
-76.211
11
74.203
21
-77.713
0
LINE
8
BLACK
6
CONTINUOUS
10
79.283
20
-76.797
11
77.181
21
-76.797
0
LINE
8
BLACK
6
CONTINUOUS
10
77.181
20
-76.797
11
77.181
21
-75.095
0
LINE
8
BLACK
6
CONTINUOUS
10
77.181
20
-75.095
11
79.283
21
-75.095
0
LINE
8
BLACK
6
CONTINUOUS
10
79.283
20
-75.095
11
79.283
21
-76.797
0
LINE
8
BLACK
6
CONTINUOUS
10
95.583
20
-76.797
11
93.481
21
-76.797
0
LINE
8
BLACK
6
CONTINUOUS
10
93.481
20
-76.797
11
93.481
21
-75.095
0
LINE
8
BLACK
6
CONTINUOUS
10
93.481
20
-75.095
11
95.583
21
-75.095
0
LINE
8
BLACK
6
CONTINUOUS
10
95.583
20
-75.095
11
95.583
21
-76.797
0
LINE
8
BLACK
6
CONTINUOUS
10
44.949
20
-76.543
11
42.847
21
-76.543
0
LINE
8
BLACK
6
CONTINUOUS
10
42.847
20
-76.543
11
42.847
21
-74.841
0
LINE
8
BLACK
6
CONTINUOUS
10
42.847
20
-74.841
11
44.949
21
-74.841
0
LINE
8
BLACK
6
CONTINUOUS
10
44.949
20
-74.841
11
44.949
21
-76.543
0
LINE
8
BLACK
6
CONTINUOUS
10
61.249
20
-76.443
11
59.147
21
-76.443
0
LINE
8
BLACK
6
CONTINUOUS
10
59.147
20
-76.443
11
59.147
21
-74.941
0
LINE
8
BLACK
6
CONTINUOUS
10
59.147
20
-74.941
11
61.249
21
-74.941
0
LINE
8
BLACK
6
CONTINUOUS
10
61.249
20
-74.941
11
61.249
21
-76.443
0
LINE
8
BLACK
6
CONTINUOUS
10
102.98
20
-74.5435
11
103.047
21
-74.55
0
LINE
8
BLACK
6
CONTINUOUS
10
103.047
20
-74.55
11
103.216
21
-74.6016
0
LINE
8
BLACK
6
CONTINUOUS
10
103.216
20
-74.6016
11
103.373
21
-74.6852
0
LINE
8
BLACK
6
CONTINUOUS
10
103.373
20
-74.6852
11
103.409
21
-74.7146
0
LINE
8
BLACK
6
CONTINUOUS
10
103.409
20
-74.7146
11
103.51
21
-74.7978
0
LINE
8
BLACK
6
CONTINUOUS
10
103.51
20
-74.7978
11
103.593
21
-74.8993
0
LINE
8
BLACK
6
CONTINUOUS
10
103.593
20
-74.8993
11
103.623
21
-74.935
0
LINE
8
BLACK
6
CONTINUOUS
10
103.623
20
-74.935
11
103.706
21
-75.0915
0
LINE
8
BLACK
6
CONTINUOUS
10
103.706
20
-75.0915
11
103.758
21
-75.2614
0
LINE
8
BLACK
6
CONTINUOUS
10
103.758
20
-75.2614
11
103.775
21
-75.438
0
LINE
8
BLACK
6
CONTINUOUS
10
103.775
20
-75.438
11
103.758
21
-75.6146
0
LINE
8
BLACK
6
CONTINUOUS
10
103.758
20
-75.6146
11
103.706
21
-75.7845
0
LINE
8
BLACK
6
CONTINUOUS
10
103.706
20
-75.7845
11
103.623
21
-75.941
0
LINE
8
BLACK
6
CONTINUOUS
10
103.623
20
-75.941
11
103.593
21
-75.9767
0
LINE
8
BLACK
6
CONTINUOUS
10
103.593
20
-75.9767
11
103.51
21
-76.0782
0
LINE
8
BLACK
6
CONTINUOUS
10
103.51
20
-76.0782
11
103.409
21
-76.1614
0
LINE
8
BLACK
6
CONTINUOUS
10
103.409
20
-76.1614
11
103.373
21
-76.1908
0
LINE
8
BLACK
6
CONTINUOUS
10
103.373
20
-76.1908
11
103.216
21
-76.2744
0
LINE
8
BLACK
6
CONTINUOUS
10
103.216
20
-76.2744
11
103.047
21
-76.326
0
LINE
8
BLACK
6
CONTINUOUS
10
103.047
20
-76.326
11
102.98
21
-76.3325
0
LINE
8
BLACK
6
CONTINUOUS
10
102.98
20
-76.3325
11
102.914
21
-76.339
0
LINE
8
BLACK
6
CONTINUOUS
10
102.914
20
-76.339
11
102.826
21
-76.339
0
LINE
8
BLACK
6
CONTINUOUS
10
102.826
20
-76.339
11
102.76
21
-76.3325
0
LINE
8
BLACK
6
CONTINUOUS
10
102.76
20
-76.3325
11
102.693
21
-76.326
0
LINE
8
BLACK
6
CONTINUOUS
10
102.693
20
-76.326
11
102.524
21
-76.2744
0
LINE
8
BLACK
6
CONTINUOUS
10
102.524
20
-76.2744
11
102.367
21
-76.1908
0
LINE
8
BLACK
6
CONTINUOUS
10
102.367
20
-76.1908
11
102.331
21
-76.1614
0
LINE
8
BLACK
6
CONTINUOUS
10
102.331
20
-76.1614
11
102.23
21
-76.0782
0
LINE
8
BLACK
6
CONTINUOUS
10
102.23
20
-76.0782
11
102.147
21
-75.9767
0
LINE
8
BLACK
6
CONTINUOUS
10
102.147
20
-75.9767
11
102.117
21
-75.941
0
LINE
8
BLACK
6
CONTINUOUS
10
102.117
20
-75.941
11
102.034
21
-75.7845
0
LINE
8
BLACK
6
CONTINUOUS
10
102.034
20
-75.7845
11
101.982
21
-75.6146
0
LINE
8
BLACK
6
CONTINUOUS
10
101.982
20
-75.6146
11
101.965
21
-75.438
0
LINE
8
BLACK
6
CONTINUOUS
10
101.965
20
-75.438
11
101.982
21
-75.2614
0
LINE
8
BLACK
6
CONTINUOUS
10
101.982
20
-75.2614
11
102.034
21
-75.0915
0
LINE
8
BLACK
6
CONTINUOUS
10
102.034
20
-75.0915
11
102.117
21
-74.935
0
LINE
8
BLACK
6
CONTINUOUS
10
102.117
20
-74.935
11
102.147
21
-74.8993
0
LINE
8
BLACK
6
CONTINUOUS
10
102.147
20
-74.8993
11
102.23
21
-74.7978
0
LINE
8
BLACK
6
CONTINUOUS
10
102.23
20
-74.7978
11
102.331
21
-74.7146
0
LINE
8
BLACK
6
CONTINUOUS
10
102.331
20
-74.7146
11
102.367
21
-74.6852
0
LINE
8
BLACK
6
CONTINUOUS
10
102.367
20
-74.6852
11
102.524
21
-74.6016
0
LINE
8
BLACK
6
CONTINUOUS
10
102.524
20
-74.6016
11
102.693
21
-74.55
0
LINE
8
BLACK
6
CONTINUOUS
10
102.693
20
-74.55
11
102.76
21
-74.5435
0
LINE
8
BLACK
6
CONTINUOUS
10
102.76
20
-74.5435
11
102.826
21
-74.537
0
LINE
8
BLACK
6
CONTINUOUS
10
102.826
20
-74.537
11
102.914
21
-74.537
0
LINE
8
BLACK
6
CONTINUOUS
10
102.914
20
-74.537
11
102.98
21
-74.5435
0
LINE
8
BLACK
6
CONTINUOUS
10
74.203
20
-75.173
11
72.101
21
-75.173
0
LINE
8
BLACK
6
CONTINUOUS
10
72.101
20
-75.173
11
72.101
21
-73.671
0
LINE
8
BLACK
6
CONTINUOUS
10
72.101
20
-73.671
11
74.203
21
-73.671
0
LINE
8
BLACK
6
CONTINUOUS
10
74.203
20
-73.671
11
74.203
21
-75.173
0
LINE
8
BLACK
6
CONTINUOUS
10
66.583
20
-75.173
11
64.481
21
-75.173
0
LINE
8
BLACK
6
CONTINUOUS
10
64.481
20
-75.173
11
64.481
21
-73.671
0
LINE
8
BLACK
6
CONTINUOUS
10
64.481
20
-73.671
11
66.583
21
-73.671
0
LINE
8
BLACK
6
CONTINUOUS
10
66.583
20
-73.671
11
66.583
21
-75.173
0
LINE
8
BLACK
6
CONTINUOUS
10
39.001
20
-74.561
11
37.199
21
-74.561
0
LINE
8
BLACK
6
CONTINUOUS
10
37.199
20
-74.561
11
37.199
21
-72.759
0
LINE
8
BLACK
6
CONTINUOUS
10
37.199
20
-72.759
11
39.001
21
-72.759
0
LINE
8
BLACK
6
CONTINUOUS
10
39.001
20
-72.759
11
39.001
21
-74.561
0
LINE
8
BLACK
6
CONTINUOUS
10
79.283
20
-74.257
11
77.181
21
-74.257
0
LINE
8
BLACK
6
CONTINUOUS
10
77.181
20
-74.257
11
77.181
21
-72.555
0
LINE
8
BLACK
6
CONTINUOUS
10
77.181
20
-72.555
11
79.283
21
-72.555
0
LINE
8
BLACK
6
CONTINUOUS
10
79.283
20
-72.555
11
79.283
21
-74.257
0
LINE
8
BLACK
6
CONTINUOUS
10
95.583
20
-74.257
11
93.481
21
-74.257
0
LINE
8
BLACK
6
CONTINUOUS
10
93.481
20
-74.257
11
93.481
21
-72.555
0
LINE
8
BLACK
6
CONTINUOUS
10
93.481
20
-72.555
11
95.583
21
-72.555
0
LINE
8
BLACK
6
CONTINUOUS
10
95.583
20
-72.555
11
95.583
21
-74.257
0
LINE
8
BLACK
6
CONTINUOUS
10
44.949
20
-74.003
11
42.847
21
-74.003
0
LINE
8
BLACK
6
CONTINUOUS
10
42.847
20
-74.003
11
42.847
21
-72.301
0
LINE
8
BLACK
6
CONTINUOUS
10
42.847
20
-72.301
11
44.949
21
-72.301
0
LINE
8
BLACK
6
CONTINUOUS
10
44.949
20
-72.301
11
44.949
21
-74.003
0
LINE
8
BLACK
6
CONTINUOUS
10
61.249
20
-73.903
11
59.147
21
-73.903
0
LINE
8
BLACK
6
CONTINUOUS
10
59.147
20
-73.903
11
59.147
21
-72.401
0
LINE
8
BLACK
6
CONTINUOUS
10
59.147
20
-72.401
11
61.249
21
-72.401
0
LINE
8
BLACK
6
CONTINUOUS
10
61.249
20
-72.401
11
61.249
21
-73.903
0
LINE
8
BLACK
6
CONTINUOUS
10
102.98
20
-72.0035
11
103.047
21
-72.01
0
LINE
8
BLACK
6
CONTINUOUS
10
103.047
20
-72.01
11
103.216
21
-72.0616
0
LINE
8
BLACK
6
CONTINUOUS
10
103.216
20
-72.0616
11
103.373
21
-72.1452
0
LINE
8
BLACK
6
CONTINUOUS
10
103.373
20
-72.1452
11
103.409
21
-72.1746
0
LINE
8
BLACK
6
CONTINUOUS
10
103.409
20
-72.1746
11
103.51
21
-72.2578
0
LINE
8
BLACK
6
CONTINUOUS
10
103.51
20
-72.2578
11
103.593
21
-72.3593
0
LINE
8
BLACK
6
CONTINUOUS
10
103.593
20
-72.3593
11
103.623
21
-72.395
0
LINE
8
BLACK
6
CONTINUOUS
10
103.623
20
-72.395
11
103.706
21
-72.5515
0
LINE
8
BLACK
6
CONTINUOUS
10
103.706
20
-72.5515
11
103.758
21
-72.7214
0
LINE
8
BLACK
6
CONTINUOUS
10
103.758
20
-72.7214
11
103.775
21
-72.898
0
LINE
8
BLACK
6
CONTINUOUS
10
103.775
20
-72.898
11
103.758
21
-73.0746
0
LINE
8
BLACK
6
CONTINUOUS
10
103.758
20
-73.0746
11
103.706
21
-73.2445
0
LINE
8
BLACK
6
CONTINUOUS
10
103.706
20
-73.2445
11
103.623
21
-73.401
0
LINE
8
BLACK
6
CONTINUOUS
10
103.623
20
-73.401
11
103.593
21
-73.4367
0
LINE
8
BLACK
6
CONTINUOUS
10
103.593
20
-73.4367
11
103.51
21
-73.5382
0
LINE
8
BLACK
6
CONTINUOUS
10
103.51
20
-73.5382
11
103.409
21
-73.6214
0
LINE
8
BLACK
6
CONTINUOUS
10
103.409
20
-73.6214
11
103.373
21
-73.6508
0
LINE
8
BLACK
6
CONTINUOUS
10
103.373
20
-73.6508
11
103.216
21
-73.7344
0
LINE
8
BLACK
6
CONTINUOUS
10
103.216
20
-73.7344
11
103.047
21
-73.786
0
LINE
8
BLACK
6
CONTINUOUS
10
103.047
20
-73.786
11
102.98
21
-73.7925
0
LINE
8
BLACK
6
CONTINUOUS
10
102.98
20
-73.7925
11
102.914
21
-73.799
0
LINE
8
BLACK
6
CONTINUOUS
10
102.914
20
-73.799
11
102.826
21
-73.799
0
LINE
8
BLACK
6
CONTINUOUS
10
102.826
20
-73.799
11
102.76
21
-73.7925
0
LINE
8
BLACK
6
CONTINUOUS
10
102.76
20
-73.7925
11
102.693
21
-73.786
0
LINE
8
BLACK
6
CONTINUOUS
10
102.693
20
-73.786
11
102.524
21
-73.7344
0
LINE
8
BLACK
6
CONTINUOUS
10
102.524
20
-73.7344
11
102.367
21
-73.6508
0
LINE
8
BLACK
6
CONTINUOUS
10
102.367
20
-73.6508
11
102.331
21
-73.6214
0
LINE
8
BLACK
6
CONTINUOUS
10
102.331
20
-73.6214
11
102.23
21
-73.5382
0
LINE
8
BLACK
6
CONTINUOUS
10
102.23
20
-73.5382
11
102.147
21
-73.4367
0
LINE
8
BLACK
6
CONTINUOUS
10
102.147
20
-73.4367
11
102.117
21
-73.401
0
LINE
8
BLACK
6
CONTINUOUS
10
102.117
20
-73.401
11
102.034
21
-73.2445
0
LINE
8
BLACK
6
CONTINUOUS
10
102.034
20
-73.2445
11
101.982
21
-73.0746
0
LINE
8
BLACK
6
CONTINUOUS
10
101.982
20
-73.0746
11
101.965
21
-72.898
0
LINE
8
BLACK
6
CONTINUOUS
10
101.965
20
-72.898
11
101.982
21
-72.7214
0
LINE
8
BLACK
6
CONTINUOUS
10
101.982
20
-72.7214
11
102.034
21
-72.5515
0
LINE
8
BLACK
6
CONTINUOUS
10
102.034
20
-72.5515
11
102.117
21
-72.395
0
LINE
8
BLACK
6
CONTINUOUS
10
102.117
20
-72.395
11
102.147
21
-72.3593
0
LINE
8
BLACK
6
CONTINUOUS
10
102.147
20
-72.3593
11
102.23
21
-72.2578
0
LINE
8
BLACK
6
CONTINUOUS
10
102.23
20
-72.2578
11
102.331
21
-72.1746
0
LINE
8
BLACK
6
CONTINUOUS
10
102.331
20
-72.1746
11
102.367
21
-72.1452
0
LINE
8
BLACK
6
CONTINUOUS
10
102.367
20
-72.1452
11
102.524
21
-72.0616
0
LINE
8
BLACK
6
CONTINUOUS
10
102.524
20
-72.0616
11
102.693
21
-72.01
0
LINE
8
BLACK
6
CONTINUOUS
10
102.693
20
-72.01
11
102.76
21
-72.0035
0
LINE
8
BLACK
6
CONTINUOUS
10
102.76
20
-72.0035
11
102.826
21
-71.997
0
LINE
8
BLACK
6
CONTINUOUS
10
102.826
20
-71.997
11
102.914
21
-71.997
0
LINE
8
BLACK
6
CONTINUOUS
10
102.914
20
-71.997
11
102.98
21
-72.0035
0
LINE
8
BLACK
6
CONTINUOUS
10
66.583
20
-72.633
11
64.481
21
-72.633
0
LINE
8
BLACK
6
CONTINUOUS
10
64.481
20
-72.633
11
64.481
21
-71.131
0
LINE
8
BLACK
6
CONTINUOUS
10
64.481
20
-71.131
11
66.583
21
-71.131
0
LINE
8
BLACK
6
CONTINUOUS
10
66.583
20
-71.131
11
66.583
21
-72.633
0
LINE
8
BLACK
6
CONTINUOUS
10
74.203
20
-72.633
11
72.101
21
-72.633
0
LINE
8
BLACK
6
CONTINUOUS
10
72.101
20
-72.633
11
72.101
21
-71.131
0
LINE
8
BLACK
6
CONTINUOUS
10
72.101
20
-71.131
11
74.203
21
-71.131
0
LINE
8
BLACK
6
CONTINUOUS
10
74.203
20
-71.131
11
74.203
21
-72.633
0
LINE
8
BLACK
6
CONTINUOUS
10
38.2104
20
-70.2255
11
38.2766
21
-70.232
0
LINE
8
BLACK
6
CONTINUOUS
10
38.2766
20
-70.232
11
38.4465
21
-70.2836
0
LINE
8
BLACK
6
CONTINUOUS
10
38.4465
20
-70.2836
11
38.603
21
-70.3672
0
LINE
8
BLACK
6
CONTINUOUS
10
38.603
20
-70.3672
11
38.6387
21
-70.3966
0
LINE
8
BLACK
6
CONTINUOUS
10
38.6387
20
-70.3966
11
38.7402
21
-70.4798
0
LINE
8
BLACK
6
CONTINUOUS
10
38.7402
20
-70.4798
11
38.8234
21
-70.5813
0
LINE
8
BLACK
6
CONTINUOUS
10
38.8234
20
-70.5813
11
38.8528
21
-70.617
0
LINE
8
BLACK
6
CONTINUOUS
10
38.8528
20
-70.617
11
38.9364
21
-70.7735
0
LINE
8
BLACK
6
CONTINUOUS
10
38.9364
20
-70.7735
11
38.988
21
-70.9434
0
LINE
8
BLACK
6
CONTINUOUS
10
38.988
20
-70.9434
11
39.0054
21
-71.12
0
LINE
8
BLACK
6
CONTINUOUS
10
39.0054
20
-71.12
11
38.988
21
-71.2966
0
LINE
8
BLACK
6
CONTINUOUS
10
38.988
20
-71.2966
11
38.9364
21
-71.4665
0
LINE
8
BLACK
6
CONTINUOUS
10
38.9364
20
-71.4665
11
38.8528
21
-71.623
0
LINE
8
BLACK
6
CONTINUOUS
10
38.8528
20
-71.623
11
38.8234
21
-71.6587
0
LINE
8
BLACK
6
CONTINUOUS
10
38.8234
20
-71.6587
11
38.7402
21
-71.7602
0
LINE
8
BLACK
6
CONTINUOUS
10
38.7402
20
-71.7602
11
38.6387
21
-71.8434
0
LINE
8
BLACK
6
CONTINUOUS
10
38.6387
20
-71.8434
11
38.603
21
-71.8728
0
LINE
8
BLACK
6
CONTINUOUS
10
38.603
20
-71.8728
11
38.4465
21
-71.9564
0
LINE
8
BLACK
6
CONTINUOUS
10
38.4465
20
-71.9564
11
38.2766
21
-72.008
0
LINE
8
BLACK
6
CONTINUOUS
10
38.2766
20
-72.008
11
38.2104
21
-72.0145
0
LINE
8
BLACK
6
CONTINUOUS
10
38.2104
20
-72.0145
11
38.1443
21
-72.021
0
LINE
8
BLACK
6
CONTINUOUS
10
38.1443
20
-72.021
11
38.0557
21
-72.021
0
LINE
8
BLACK
6
CONTINUOUS
10
38.0557
20
-72.021
11
37.9896
21
-72.0145
0
LINE
8
BLACK
6
CONTINUOUS
10
37.9896
20
-72.0145
11
37.9234
21
-72.008
0
LINE
8
BLACK
6
CONTINUOUS
10
37.9234
20
-72.008
11
37.7535
21
-71.9564
0
LINE
8
BLACK
6
CONTINUOUS
10
37.7535
20
-71.9564
11
37.597
21
-71.8728
0
LINE
8
BLACK
6
CONTINUOUS
10
37.597
20
-71.8728
11
37.5613
21
-71.8434
0
LINE
8
BLACK
6
CONTINUOUS
10
37.5613
20
-71.8434
11
37.4598
21
-71.7602
0
LINE
8
BLACK
6
CONTINUOUS
10
37.4598
20
-71.7602
11
37.3766
21
-71.6587
0
LINE
8
BLACK
6
CONTINUOUS
10
37.3766
20
-71.6587
11
37.3472
21
-71.623
0
LINE
8
BLACK
6
CONTINUOUS
10
37.3472
20
-71.623
11
37.2636
21
-71.4665
0
LINE
8
BLACK
6
CONTINUOUS
10
37.2636
20
-71.4665
11
37.212
21
-71.2966
0
LINE
8
BLACK
6
CONTINUOUS
10
37.212
20
-71.2966
11
37.1946
21
-71.12
0
LINE
8
BLACK
6
CONTINUOUS
10
37.1946
20
-71.12
11
37.212
21
-70.9434
0
LINE
8
BLACK
6
CONTINUOUS
10
37.212
20
-70.9434
11
37.2636
21
-70.7735
0
LINE
8
BLACK
6
CONTINUOUS
10
37.2636
20
-70.7735
11
37.3472
21
-70.617
0
LINE
8
BLACK
6
CONTINUOUS
10
37.3472
20
-70.617
11
37.3766
21
-70.5813
0
LINE
8
BLACK
6
CONTINUOUS
10
37.3766
20
-70.5813
11
37.4598
21
-70.4798
0
LINE
8
BLACK
6
CONTINUOUS
10
37.4598
20
-70.4798
11
37.5613
21
-70.3966
0
LINE
8
BLACK
6
CONTINUOUS
10
37.5613
20
-70.3966
11
37.597
21
-70.3672
0
LINE
8
BLACK
6
CONTINUOUS
10
37.597
20
-70.3672
11
37.7535
21
-70.2836
0
LINE
8
BLACK
6
CONTINUOUS
10
37.7535
20
-70.2836
11
37.9234
21
-70.232
0
LINE
8
BLACK
6
CONTINUOUS
10
37.9234
20
-70.232
11
37.9896
21
-70.2255
0
LINE
8
BLACK
6
CONTINUOUS
10
37.9896
20
-70.2255
11
38.0557
21
-70.219
0
LINE
8
BLACK
6
CONTINUOUS
10
38.0557
20
-70.219
11
38.1443
21
-70.219
0
LINE
8
BLACK
6
CONTINUOUS
10
38.1443
20
-70.219
11
38.2104
21
-70.2255
0
LINE
8
BLACK
6
CONTINUOUS
10
79.283
20
-71.717
11
77.181
21
-71.717
0
LINE
8
BLACK
6
CONTINUOUS
10
77.181
20
-71.717
11
77.181
21
-70.015
0
LINE
8
BLACK
6
CONTINUOUS
10
77.181
20
-70.015
11
79.283
21
-70.015
0
LINE
8
BLACK
6
CONTINUOUS
10
79.283
20
-70.015
11
79.283
21
-71.717
0
LINE
8
BLACK
6
CONTINUOUS
10
95.583
20
-71.717
11
93.481
21
-71.717
0
LINE
8
BLACK
6
CONTINUOUS
10
93.481
20
-71.717
11
93.481
21
-70.015
0
LINE
8
BLACK
6
CONTINUOUS
10
93.481
20
-70.015
11
95.583
21
-70.015
0
LINE
8
BLACK
6
CONTINUOUS
10
95.583
20
-70.015
11
95.583
21
-71.717
0
LINE
8
BLACK
6
CONTINUOUS
10
44.949
20
-71.463
11
42.847
21
-71.463
0
LINE
8
BLACK
6
CONTINUOUS
10
42.847
20
-71.463
11
42.847
21
-69.761
0
LINE
8
BLACK
6
CONTINUOUS
10
42.847
20
-69.761
11
44.949
21
-69.761
0
LINE
8
BLACK
6
CONTINUOUS
10
44.949
20
-69.761
11
44.949
21
-71.463
0
LINE
8
BLACK
6
CONTINUOUS
10
61.249
20
-71.363
11
59.147
21
-71.363
0
LINE
8
BLACK
6
CONTINUOUS
10
59.147
20
-71.363
11
59.147
21
-69.861
0
LINE
8
BLACK
6
CONTINUOUS
10
59.147
20
-69.861
11
61.249
21
-69.861
0
LINE
8
BLACK
6
CONTINUOUS
10
61.249
20
-69.861
11
61.249
21
-71.363
0
LINE
8
BLACK
6
CONTINUOUS
10
103.771
20
-71.259
11
101.969
21
-71.259
0
LINE
8
BLACK
6
CONTINUOUS
10
101.969
20
-71.259
11
101.969
21
-69.457
0
LINE
8
BLACK
6
CONTINUOUS
10
101.969
20
-69.457
11
103.771
21
-69.457
0
LINE
8
BLACK
6
CONTINUOUS
10
103.771
20
-69.457
11
103.771
21
-71.259
0
LINE
8
BLACK
6
CONTINUOUS
10
66.583
20
-70.093
11
64.481
21
-70.093
0
LINE
8
BLACK
6
CONTINUOUS
10
64.481
20
-70.093
11
64.481
21
-68.591
0
LINE
8
BLACK
6
CONTINUOUS
10
64.481
20
-68.591
11
66.583
21
-68.591
0
LINE
8
BLACK
6
CONTINUOUS
10
66.583
20
-68.591
11
66.583
21
-70.093
0
LINE
8
BLACK
6
CONTINUOUS
10
74.203
20
-70.093
11
72.101
21
-70.093
0
LINE
8
BLACK
6
CONTINUOUS
10
72.101
20
-70.093
11
72.101
21
-68.591
0
LINE
8
BLACK
6
CONTINUOUS
10
72.101
20
-68.591
11
74.203
21
-68.591
0
LINE
8
BLACK
6
CONTINUOUS
10
74.203
20
-68.591
11
74.203
21
-70.093
0
LINE
8
BLACK
6
CONTINUOUS
10
38.2104
20
-67.6855
11
38.2766
21
-67.692
0
LINE
8
BLACK
6
CONTINUOUS
10
38.2766
20
-67.692
11
38.4465
21
-67.7436
0
LINE
8
BLACK
6
CONTINUOUS
10
38.4465
20
-67.7436
11
38.603
21
-67.8272
0
LINE
8
BLACK
6
CONTINUOUS
10
38.603
20
-67.8272
11
38.6387
21
-67.8566
0
LINE
8
BLACK
6
CONTINUOUS
10
38.6387
20
-67.8566
11
38.7402
21
-67.9398
0
LINE
8
BLACK
6
CONTINUOUS
10
38.7402
20
-67.9398
11
38.8234
21
-68.0413
0
LINE
8
BLACK
6
CONTINUOUS
10
38.8234
20
-68.0413
11
38.8528
21
-68.077
0
LINE
8
BLACK
6
CONTINUOUS
10
38.8528
20
-68.077
11
38.9364
21
-68.2335
0
LINE
8
BLACK
6
CONTINUOUS
10
38.9364
20
-68.2335
11
38.988
21
-68.4034
0
LINE
8
BLACK
6
CONTINUOUS
10
38.988
20
-68.4034
11
39.0054
21
-68.58
0
LINE
8
BLACK
6
CONTINUOUS
10
39.0054
20
-68.58
11
38.988
21
-68.7566
0
LINE
8
BLACK
6
CONTINUOUS
10
38.988
20
-68.7566
11
38.9364
21
-68.9265
0
LINE
8
BLACK
6
CONTINUOUS
10
38.9364
20
-68.9265
11
38.8528
21
-69.083
0
LINE
8
BLACK
6
CONTINUOUS
10
38.8528
20
-69.083
11
38.8234
21
-69.1187
0
LINE
8
BLACK
6
CONTINUOUS
10
38.8234
20
-69.1187
11
38.7402
21
-69.2202
0
LINE
8
BLACK
6
CONTINUOUS
10
38.7402
20
-69.2202
11
38.6387
21
-69.3034
0
LINE
8
BLACK
6
CONTINUOUS
10
38.6387
20
-69.3034
11
38.603
21
-69.3328
0
LINE
8
BLACK
6
CONTINUOUS
10
38.603
20
-69.3328
11
38.4465
21
-69.4164
0
LINE
8
BLACK
6
CONTINUOUS
10
38.4465
20
-69.4164
11
38.2766
21
-69.468
0
LINE
8
BLACK
6
CONTINUOUS
10
38.2766
20
-69.468
11
38.2104
21
-69.4745
0
LINE
8
BLACK
6
CONTINUOUS
10
38.2104
20
-69.4745
11
38.1443
21
-69.481
0
LINE
8
BLACK
6
CONTINUOUS
10
38.1443
20
-69.481
11
38.0557
21
-69.481
0
LINE
8
BLACK
6
CONTINUOUS
10
38.0557
20
-69.481
11
37.9896
21
-69.4745
0
LINE
8
BLACK
6
CONTINUOUS
10
37.9896
20
-69.4745
11
37.9234
21
-69.468
0
LINE
8
BLACK
6
CONTINUOUS
10
37.9234
20
-69.468
11
37.7535
21
-69.4164
0
LINE
8
BLACK
6
CONTINUOUS
10
37.7535
20
-69.4164
11
37.597
21
-69.3328
0
LINE
8
BLACK
6
CONTINUOUS
10
37.597
20
-69.3328
11
37.5613
21
-69.3034
0
LINE
8
BLACK
6
CONTINUOUS
10
37.5613
20
-69.3034
11
37.4598
21
-69.2202
0
LINE
8
BLACK
6
CONTINUOUS
10
37.4598
20
-69.2202
11
37.3766
21
-69.1187
0
LINE
8
BLACK
6
CONTINUOUS
10
37.3766
20
-69.1187
11
37.3472
21
-69.083
0
LINE
8
BLACK
6
CONTINUOUS
10
37.3472
20
-69.083
11
37.2636
21
-68.9265
0
LINE
8
BLACK
6
CONTINUOUS
10
37.2636
20
-68.9265
11
37.212
21
-68.7566
0
LINE
8
BLACK
6
CONTINUOUS
10
37.212
20
-68.7566
11
37.1946
21
-68.58
0
LINE
8
BLACK
6
CONTINUOUS
10
37.1946
20
-68.58
11
37.212
21
-68.4034
0
LINE
8
BLACK
6
CONTINUOUS
10
37.212
20
-68.4034
11
37.2636
21
-68.2335
0
LINE
8
BLACK
6
CONTINUOUS
10
37.2636
20
-68.2335
11
37.3472
21
-68.077
0
LINE
8
BLACK
6
CONTINUOUS
10
37.3472
20
-68.077
11
37.3766
21
-68.0413
0
LINE
8
BLACK
6
CONTINUOUS
10
37.3766
20
-68.0413
11
37.4598
21
-67.9398
0
LINE
8
BLACK
6
CONTINUOUS
10
37.4598
20
-67.9398
11
37.5613
21
-67.8566
0
LINE
8
BLACK
6
CONTINUOUS
10
37.5613
20
-67.8566
11
37.597
21
-67.8272
0
LINE
8
BLACK
6
CONTINUOUS
10
37.597
20
-67.8272
11
37.7535
21
-67.7436
0
LINE
8
BLACK
6
CONTINUOUS
10
37.7535
20
-67.7436
11
37.9234
21
-67.692
0
LINE
8
BLACK
6
CONTINUOUS
10
37.9234
20
-67.692
11
37.9896
21
-67.6855
0
LINE
8
BLACK
6
CONTINUOUS
10
37.9896
20
-67.6855
11
38.0557
21
-67.679
0
LINE
8
BLACK
6
CONTINUOUS
10
38.0557
20
-67.679
11
38.1443
21
-67.679
0
LINE
8
BLACK
6
CONTINUOUS
10
38.1443
20
-67.679
11
38.2104
21
-67.6855
0
LINE
8
BLACK
6
CONTINUOUS
10
79.283
20
-69.177
11
77.181
21
-69.177
0
LINE
8
BLACK
6
CONTINUOUS
10
77.181
20
-69.177
11
77.181
21
-67.475
0
LINE
8
BLACK
6
CONTINUOUS
10
77.181
20
-67.475
11
79.283
21
-67.475
0
LINE
8
BLACK
6
CONTINUOUS
10
79.283
20
-67.475
11
79.283
21
-69.177
0
LINE
8
BLACK
6
CONTINUOUS
10
95.583
20
-69.177
11
93.481
21
-69.177
0
LINE
8
BLACK
6
CONTINUOUS
10
93.481
20
-69.177
11
93.481
21
-67.475
0
LINE
8
BLACK
6
CONTINUOUS
10
93.481
20
-67.475
11
95.583
21
-67.475
0
LINE
8
BLACK
6
CONTINUOUS
10
95.583
20
-67.475
11
95.583
21
-69.177
0
LINE
8
BLACK
6
CONTINUOUS
10
44.949
20
-68.923
11
42.847
21
-68.923
0
LINE
8
BLACK
6
CONTINUOUS
10
42.847
20
-68.923
11
42.847
21
-67.221
0
LINE
8
BLACK
6
CONTINUOUS
10
42.847
20
-67.221
11
44.949
21
-67.221
0
LINE
8
BLACK
6
CONTINUOUS
10
44.949
20
-67.221
11
44.949
21
-68.923
0
LINE
8
BLACK
6
CONTINUOUS
10
61.249
20
-68.823
11
59.147
21
-68.823
0
LINE
8
BLACK
6
CONTINUOUS
10
59.147
20
-68.823
11
59.147
21
-67.321
0
LINE
8
BLACK
6
CONTINUOUS
10
59.147
20
-67.321
11
61.249
21
-67.321
0
LINE
8
BLACK
6
CONTINUOUS
10
61.249
20
-67.321
11
61.249
21
-68.823
0
LINE
8
BLACK
6
CONTINUOUS
10
74.203
20
-67.553
11
72.101
21
-67.553
0
LINE
8
BLACK
6
CONTINUOUS
10
72.101
20
-67.553
11
72.101
21
-66.051
0
LINE
8
BLACK
6
CONTINUOUS
10
72.101
20
-66.051
11
74.203
21
-66.051
0
LINE
8
BLACK
6
CONTINUOUS
10
74.203
20
-66.051
11
74.203
21
-67.553
0
LINE
8
BLACK
6
CONTINUOUS
10
66.583
20
-67.553
11
64.481
21
-67.553
0
LINE
8
BLACK
6
CONTINUOUS
10
64.481
20
-67.553
11
64.481
21
-66.051
0
LINE
8
BLACK
6
CONTINUOUS
10
64.481
20
-66.051
11
66.583
21
-66.051
0
LINE
8
BLACK
6
CONTINUOUS
10
66.583
20
-66.051
11
66.583
21
-67.553
0
LINE
8
BLACK
6
CONTINUOUS
10
38.2104
20
-65.1455
11
38.2766
21
-65.152
0
LINE
8
BLACK
6
CONTINUOUS
10
38.2766
20
-65.152
11
38.4465
21
-65.2036
0
LINE
8
BLACK
6
CONTINUOUS
10
38.4465
20
-65.2036
11
38.603
21
-65.2872
0
LINE
8
BLACK
6
CONTINUOUS
10
38.603
20
-65.2872
11
38.6387
21
-65.3166
0
LINE
8
BLACK
6
CONTINUOUS
10
38.6387
20
-65.3166
11
38.7402
21
-65.3998
0
LINE
8
BLACK
6
CONTINUOUS
10
38.7402
20
-65.3998
11
38.8234
21
-65.5013
0
LINE
8
BLACK
6
CONTINUOUS
10
38.8234
20
-65.5013
11
38.8528
21
-65.537
0
LINE
8
BLACK
6
CONTINUOUS
10
38.8528
20
-65.537
11
38.9364
21
-65.6935
0
LINE
8
BLACK
6
CONTINUOUS
10
38.9364
20
-65.6935
11
38.988
21
-65.8634
0
LINE
8
BLACK
6
CONTINUOUS
10
38.988
20
-65.8634
11
39.0054
21
-66.04
0
LINE
8
BLACK
6
CONTINUOUS
10
39.0054
20
-66.04
11
38.988
21
-66.2166
0
LINE
8
BLACK
6
CONTINUOUS
10
38.988
20
-66.2166
11
38.9364
21
-66.3865
0
LINE
8
BLACK
6
CONTINUOUS
10
38.9364
20
-66.3865
11
38.8528
21
-66.543
0
LINE
8
BLACK
6
CONTINUOUS
10
38.8528
20
-66.543
11
38.8234
21
-66.5787
0
LINE
8
BLACK
6
CONTINUOUS
10
38.8234
20
-66.5787
11
38.7402
21
-66.6802
0
LINE
8
BLACK
6
CONTINUOUS
10
38.7402
20
-66.6802
11
38.6387
21
-66.7634
0
LINE
8
BLACK
6
CONTINUOUS
10
38.6387
20
-66.7634
11
38.603
21
-66.7928
0
LINE
8
BLACK
6
CONTINUOUS
10
38.603
20
-66.7928
11
38.4465
21
-66.8764
0
LINE
8
BLACK
6
CONTINUOUS
10
38.4465
20
-66.8764
11
38.2766
21
-66.928
0
LINE
8
BLACK
6
CONTINUOUS
10
38.2766
20
-66.928
11
38.2104
21
-66.9345
0
LINE
8
BLACK
6
CONTINUOUS
10
38.2104
20
-66.9345
11
38.1443
21
-66.941
0
LINE
8
BLACK
6
CONTINUOUS
10
38.1443
20
-66.941
11
38.0557
21
-66.941
0
LINE
8
BLACK
6
CONTINUOUS
10
38.0557
20
-66.941
11
37.9896
21
-66.9345
0
LINE
8
BLACK
6
CONTINUOUS
10
37.9896
20
-66.9345
11
37.9234
21
-66.928
0
LINE
8
BLACK
6
CONTINUOUS
10
37.9234
20
-66.928
11
37.7535
21
-66.8764
0
LINE
8
BLACK
6
CONTINUOUS
10
37.7535
20
-66.8764
11
37.597
21
-66.7928
0
LINE
8
BLACK
6
CONTINUOUS
10
37.597
20
-66.7928
11
37.5613
21
-66.7634
0
LINE
8
BLACK
6
CONTINUOUS
10
37.5613
20
-66.7634
11
37.4598
21
-66.6802
0
LINE
8
BLACK
6
CONTINUOUS
10
37.4598
20
-66.6802
11
37.3766
21
-66.5787
0
LINE
8
BLACK
6
CONTINUOUS
10
37.3766
20
-66.5787
11
37.3472
21
-66.543
0
LINE
8
BLACK
6
CONTINUOUS
10
37.3472
20
-66.543
11
37.2636
21
-66.3865
0
LINE
8
BLACK
6
CONTINUOUS
10
37.2636
20
-66.3865
11
37.212
21
-66.2166
0
LINE
8
BLACK
6
CONTINUOUS
10
37.212
20
-66.2166
11
37.1946
21
-66.04
0
LINE
8
BLACK
6
CONTINUOUS
10
37.1946
20
-66.04
11
37.212
21
-65.8634
0
LINE
8
BLACK
6
CONTINUOUS
10
37.212
20
-65.8634
11
37.2636
21
-65.6935
0
LINE
8
BLACK
6
CONTINUOUS
10
37.2636
20
-65.6935
11
37.3472
21
-65.537
0
LINE
8
BLACK
6
CONTINUOUS
10
37.3472
20
-65.537
11
37.3766
21
-65.5013
0
LINE
8
BLACK
6
CONTINUOUS
10
37.3766
20
-65.5013
11
37.4598
21
-65.3998
0
LINE
8
BLACK
6
CONTINUOUS
10
37.4598
20
-65.3998
11
37.5613
21
-65.3166
0
LINE
8
BLACK
6
CONTINUOUS
10
37.5613
20
-65.3166
11
37.597
21
-65.2872
0
LINE
8
BLACK
6
CONTINUOUS
10
37.597
20
-65.2872
11
37.7535
21
-65.2036
0
LINE
8
BLACK
6
CONTINUOUS
10
37.7535
20
-65.2036
11
37.9234
21
-65.152
0
LINE
8
BLACK
6
CONTINUOUS
10
37.9234
20
-65.152
11
37.9896
21
-65.1455
0
LINE
8
BLACK
6
CONTINUOUS
10
37.9896
20
-65.1455
11
38.0557
21
-65.139
0
LINE
8
BLACK
6
CONTINUOUS
10
38.0557
20
-65.139
11
38.1443
21
-65.139
0
LINE
8
BLACK
6
CONTINUOUS
10
38.1443
20
-65.139
11
38.2104
21
-65.1455
0
LINE
8
BLACK
6
CONTINUOUS
10
79.283
20
-66.637
11
77.181
21
-66.637
0
LINE
8
BLACK
6
CONTINUOUS
10
77.181
20
-66.637
11
77.181
21
-64.935
0
LINE
8
BLACK
6
CONTINUOUS
10
77.181
20
-64.935
11
79.283
21
-64.935
0
LINE
8
BLACK
6
CONTINUOUS
10
79.283
20
-64.935
11
79.283
21
-66.637
0
LINE
8
BLACK
6
CONTINUOUS
10
95.583
20
-66.637
11
93.481
21
-66.637
0
LINE
8
BLACK
6
CONTINUOUS
10
93.481
20
-66.637
11
93.481
21
-64.935
0
LINE
8
BLACK
6
CONTINUOUS
10
93.481
20
-64.935
11
95.583
21
-64.935
0
LINE
8
BLACK
6
CONTINUOUS
10
95.583
20
-64.935
11
95.583
21
-66.637
0
LINE
8
BLACK
6
CONTINUOUS
10
44.949
20
-66.383
11
42.847
21
-66.383
0
LINE
8
BLACK
6
CONTINUOUS
10
42.847
20
-66.383
11
42.847
21
-64.681
0
LINE
8
BLACK
6
CONTINUOUS
10
42.847
20
-64.681
11
44.949
21
-64.681
0
LINE
8
BLACK
6
CONTINUOUS
10
44.949
20
-64.681
11
44.949
21
-66.383
0
LINE
8
BLACK
6
CONTINUOUS
10
61.249
20
-66.283
11
59.147
21
-66.283
0
LINE
8
BLACK
6
CONTINUOUS
10
59.147
20
-66.283
11
59.147
21
-64.781
0
LINE
8
BLACK
6
CONTINUOUS
10
59.147
20
-64.781
11
61.249
21
-64.781
0
LINE
8
BLACK
6
CONTINUOUS
10
61.249
20
-64.781
11
61.249
21
-66.283
0
LINE
8
BLACK
6
CONTINUOUS
10
74.203
20
-65.013
11
72.101
21
-65.013
0
LINE
8
BLACK
6
CONTINUOUS
10
72.101
20
-65.013
11
72.101
21
-63.511
0
LINE
8
BLACK
6
CONTINUOUS
10
72.101
20
-63.511
11
74.203
21
-63.511
0
LINE
8
BLACK
6
CONTINUOUS
10
74.203
20
-63.511
11
74.203
21
-65.013
0
LINE
8
BLACK
6
CONTINUOUS
10
66.583
20
-65.013
11
64.481
21
-65.013
0
LINE
8
BLACK
6
CONTINUOUS
10
64.481
20
-65.013
11
64.481
21
-63.511
0
LINE
8
BLACK
6
CONTINUOUS
10
64.481
20
-63.511
11
66.583
21
-63.511
0
LINE
8
BLACK
6
CONTINUOUS
10
66.583
20
-63.511
11
66.583
21
-65.013
0
LINE
8
BLACK
6
CONTINUOUS
10
38.2104
20
-62.6055
11
38.2766
21
-62.612
0
LINE
8
BLACK
6
CONTINUOUS
10
38.2766
20
-62.612
11
38.4465
21
-62.6636
0
LINE
8
BLACK
6
CONTINUOUS
10
38.4465
20
-62.6636
11
38.603
21
-62.7472
0
LINE
8
BLACK
6
CONTINUOUS
10
38.603
20
-62.7472
11
38.6387
21
-62.7766
0
LINE
8
BLACK
6
CONTINUOUS
10
38.6387
20
-62.7766
11
38.7402
21
-62.8598
0
LINE
8
BLACK
6
CONTINUOUS
10
38.7402
20
-62.8598
11
38.8234
21
-62.9613
0
LINE
8
BLACK
6
CONTINUOUS
10
38.8234
20
-62.9613
11
38.8528
21
-62.997
0
LINE
8
BLACK
6
CONTINUOUS
10
38.8528
20
-62.997
11
38.9364
21
-63.1535
0
LINE
8
BLACK
6
CONTINUOUS
10
38.9364
20
-63.1535
11
38.988
21
-63.3234
0
LINE
8
BLACK
6
CONTINUOUS
10
38.988
20
-63.3234
11
39.0054
21
-63.5
0
LINE
8
BLACK
6
CONTINUOUS
10
39.0054
20
-63.5
11
38.988
21
-63.6766
0
LINE
8
BLACK
6
CONTINUOUS
10
38.988
20
-63.6766
11
38.9364
21
-63.8465
0
LINE
8
BLACK
6
CONTINUOUS
10
38.9364
20
-63.8465
11
38.8528
21
-64.003
0
LINE
8
BLACK
6
CONTINUOUS
10
38.8528
20
-64.003
11
38.8234
21
-64.0387
0
LINE
8
BLACK
6
CONTINUOUS
10
38.8234
20
-64.0387
11
38.7402
21
-64.1402
0
LINE
8
BLACK
6
CONTINUOUS
10
38.7402
20
-64.1402
11
38.6387
21
-64.2234
0
LINE
8
BLACK
6
CONTINUOUS
10
38.6387
20
-64.2234
11
38.603
21
-64.2528
0
LINE
8
BLACK
6
CONTINUOUS
10
38.603
20
-64.2528
11
38.4465
21
-64.3364
0
LINE
8
BLACK
6
CONTINUOUS
10
38.4465
20
-64.3364
11
38.2766
21
-64.388
0
LINE
8
BLACK
6
CONTINUOUS
10
38.2766
20
-64.388
11
38.2104
21
-64.3945
0
LINE
8
BLACK
6
CONTINUOUS
10
38.2104
20
-64.3945
11
38.1443
21
-64.401
0
LINE
8
BLACK
6
CONTINUOUS
10
38.1443
20
-64.401
11
38.0557
21
-64.401
0
LINE
8
BLACK
6
CONTINUOUS
10
38.0557
20
-64.401
11
37.9896
21
-64.3945
0
LINE
8
BLACK
6
CONTINUOUS
10
37.9896
20
-64.3945
11
37.9234
21
-64.388
0
LINE
8
BLACK
6
CONTINUOUS
10
37.9234
20
-64.388
11
37.7535
21
-64.3364
0
LINE
8
BLACK
6
CONTINUOUS
10
37.7535
20
-64.3364
11
37.597
21
-64.2528
0
LINE
8
BLACK
6
CONTINUOUS
10
37.597
20
-64.2528
11
37.5613
21
-64.2234
0
LINE
8
BLACK
6
CONTINUOUS
10
37.5613
20
-64.2234
11
37.4598
21
-64.1402
0
LINE
8
BLACK
6
CONTINUOUS
10
37.4598
20
-64.1402
11
37.3766
21
-64.0387
0
LINE
8
BLACK
6
CONTINUOUS
10
37.3766
20
-64.0387
11
37.3472
21
-64.003
0
LINE
8
BLACK
6
CONTINUOUS
10
37.3472
20
-64.003
11
37.2636
21
-63.8465
0
LINE
8
BLACK
6
CONTINUOUS
10
37.2636
20
-63.8465
11
37.212
21
-63.6766
0
LINE
8
BLACK
6
CONTINUOUS
10
37.212
20
-63.6766
11
37.1946
21
-63.5
0
LINE
8
BLACK
6
CONTINUOUS
10
37.1946
20
-63.5
11
37.212
21
-63.3234
0
LINE
8
BLACK
6
CONTINUOUS
10
37.212
20
-63.3234
11
37.2636
21
-63.1535
0
LINE
8
BLACK
6
CONTINUOUS
10
37.2636
20
-63.1535
11
37.3472
21
-62.997
0
LINE
8
BLACK
6
CONTINUOUS
10
37.3472
20
-62.997
11
37.3766
21
-62.9613
0
LINE
8
BLACK
6
CONTINUOUS
10
37.3766
20
-62.9613
11
37.4598
21
-62.8598
0
LINE
8
BLACK
6
CONTINUOUS
10
37.4598
20
-62.8598
11
37.5613
21
-62.7766
0
LINE
8
BLACK
6
CONTINUOUS
10
37.5613
20
-62.7766
11
37.597
21
-62.7472
0
LINE
8
BLACK
6
CONTINUOUS
10
37.597
20
-62.7472
11
37.7535
21
-62.6636
0
LINE
8
BLACK
6
CONTINUOUS
10
37.7535
20
-62.6636
11
37.9234
21
-62.612
0
LINE
8
BLACK
6
CONTINUOUS
10
37.9234
20
-62.612
11
37.9896
21
-62.6055
0
LINE
8
BLACK
6
CONTINUOUS
10
37.9896
20
-62.6055
11
38.0557
21
-62.599
0
LINE
8
BLACK
6
CONTINUOUS
10
38.0557
20
-62.599
11
38.1443
21
-62.599
0
LINE
8
BLACK
6
CONTINUOUS
10
38.1443
20
-62.599
11
38.2104
21
-62.6055
0
LINE
8
BLACK
6
CONTINUOUS
10
95.583
20
-64.097
11
93.481
21
-64.097
0
LINE
8
BLACK
6
CONTINUOUS
10
93.481
20
-64.097
11
93.481
21
-62.395
0
LINE
8
BLACK
6
CONTINUOUS
10
93.481
20
-62.395
11
95.583
21
-62.395
0
LINE
8
BLACK
6
CONTINUOUS
10
95.583
20
-62.395
11
95.583
21
-64.097
0
LINE
8
BLACK
6
CONTINUOUS
10
79.283
20
-64.097
11
77.181
21
-64.097
0
LINE
8
BLACK
6
CONTINUOUS
10
77.181
20
-64.097
11
77.181
21
-62.395
0
LINE
8
BLACK
6
CONTINUOUS
10
77.181
20
-62.395
11
79.283
21
-62.395
0
LINE
8
BLACK
6
CONTINUOUS
10
79.283
20
-62.395
11
79.283
21
-64.097
0
LINE
8
BLACK
6
CONTINUOUS
10
44.949
20
-63.843
11
42.847
21
-63.843
0
LINE
8
BLACK
6
CONTINUOUS
10
42.847
20
-63.843
11
42.847
21
-62.141
0
LINE
8
BLACK
6
CONTINUOUS
10
42.847
20
-62.141
11
44.949
21
-62.141
0
LINE
8
BLACK
6
CONTINUOUS
10
44.949
20
-62.141
11
44.949
21
-63.843
0
LINE
8
BLACK
6
CONTINUOUS
10
61.249
20
-63.743
11
59.147
21
-63.743
0
LINE
8
BLACK
6
CONTINUOUS
10
59.147
20
-63.743
11
59.147
21
-62.241
0
LINE
8
BLACK
6
CONTINUOUS
10
59.147
20
-62.241
11
61.249
21
-62.241
0
LINE
8
BLACK
6
CONTINUOUS
10
61.249
20
-62.241
11
61.249
21
-63.743
0
LINE
8
BLACK
6
CONTINUOUS
10
74.203
20
-62.473
11
72.101
21
-62.473
0
LINE
8
BLACK
6
CONTINUOUS
10
72.101
20
-62.473
11
72.101
21
-60.971
0
LINE
8
BLACK
6
CONTINUOUS
10
72.101
20
-60.971
11
74.203
21
-60.971
0
LINE
8
BLACK
6
CONTINUOUS
10
74.203
20
-60.971
11
74.203
21
-62.473
0
LINE
8
BLACK
6
CONTINUOUS
10
66.583
20
-62.473
11
64.481
21
-62.473
0
LINE
8
BLACK
6
CONTINUOUS
10
64.481
20
-62.473
11
64.481
21
-60.971
0
LINE
8
BLACK
6
CONTINUOUS
10
64.481
20
-60.971
11
66.583
21
-60.971
0
LINE
8
BLACK
6
CONTINUOUS
10
66.583
20
-60.971
11
66.583
21
-62.473
0
LINE
8
BLACK
6
CONTINUOUS
10
38.2104
20
-60.0655
11
38.2766
21
-60.072
0
LINE
8
BLACK
6
CONTINUOUS
10
38.2766
20
-60.072
11
38.4465
21
-60.1236
0
LINE
8
BLACK
6
CONTINUOUS
10
38.4465
20
-60.1236
11
38.603
21
-60.2072
0
LINE
8
BLACK
6
CONTINUOUS
10
38.603
20
-60.2072
11
38.6387
21
-60.2366
0
LINE
8
BLACK
6
CONTINUOUS
10
38.6387
20
-60.2366
11
38.7402
21
-60.3198
0
LINE
8
BLACK
6
CONTINUOUS
10
38.7402
20
-60.3198
11
38.8234
21
-60.4213
0
LINE
8
BLACK
6
CONTINUOUS
10
38.8234
20
-60.4213
11
38.8528
21
-60.457
0
LINE
8
BLACK
6
CONTINUOUS
10
38.8528
20
-60.457
11
38.9364
21
-60.6135
0
LINE
8
BLACK
6
CONTINUOUS
10
38.9364
20
-60.6135
11
38.988
21
-60.7834
0
LINE
8
BLACK
6
CONTINUOUS
10
38.988
20
-60.7834
11
39.0054
21
-60.96
0
LINE
8
BLACK
6
CONTINUOUS
10
39.0054
20
-60.96
11
38.988
21
-61.1366
0
LINE
8
BLACK
6
CONTINUOUS
10
38.988
20
-61.1366
11
38.9364
21
-61.3065
0
LINE
8
BLACK
6
CONTINUOUS
10
38.9364
20
-61.3065
11
38.8528
21
-61.463
0
LINE
8
BLACK
6
CONTINUOUS
10
38.8528
20
-61.463
11
38.8234
21
-61.4987
0
LINE
8
BLACK
6
CONTINUOUS
10
38.8234
20
-61.4987
11
38.7402
21
-61.6002
0
LINE
8
BLACK
6
CONTINUOUS
10
38.7402
20
-61.6002
11
38.6387
21
-61.6834
0
LINE
8
BLACK
6
CONTINUOUS
10
38.6387
20
-61.6834
11
38.603
21
-61.7128
0
LINE
8
BLACK
6
CONTINUOUS
10
38.603
20
-61.7128
11
38.4465
21
-61.7964
0
LINE
8
BLACK
6
CONTINUOUS
10
38.4465
20
-61.7964
11
38.2766
21
-61.848
0
LINE
8
BLACK
6
CONTINUOUS
10
38.2766
20
-61.848
11
38.2104
21
-61.8545
0
LINE
8
BLACK
6
CONTINUOUS
10
38.2104
20
-61.8545
11
38.1443
21
-61.861
0
LINE
8
BLACK
6
CONTINUOUS
10
38.1443
20
-61.861
11
38.0557
21
-61.861
0
LINE
8
BLACK
6
CONTINUOUS
10
38.0557
20
-61.861
11
37.9896
21
-61.8545
0
LINE
8
BLACK
6
CONTINUOUS
10
37.9896
20
-61.8545
11
37.9234
21
-61.848
0
LINE
8
BLACK
6
CONTINUOUS
10
37.9234
20
-61.848
11
37.7535
21
-61.7964
0
LINE
8
BLACK
6
CONTINUOUS
10
37.7535
20
-61.7964
11
37.597
21
-61.7128
0
LINE
8
BLACK
6
CONTINUOUS
10
37.597
20
-61.7128
11
37.5613
21
-61.6834
0
LINE
8
BLACK
6
CONTINUOUS
10
37.5613
20
-61.6834
11
37.4598
21
-61.6002
0
LINE
8
BLACK
6
CONTINUOUS
10
37.4598
20
-61.6002
11
37.3766
21
-61.4987
0
LINE
8
BLACK
6
CONTINUOUS
10
37.3766
20
-61.4987
11
37.3472
21
-61.463
0
LINE
8
BLACK
6
CONTINUOUS
10
37.3472
20
-61.463
11
37.2636
21
-61.3065
0
LINE
8
BLACK
6
CONTINUOUS
10
37.2636
20
-61.3065
11
37.212
21
-61.1366
0
LINE
8
BLACK
6
CONTINUOUS
10
37.212
20
-61.1366
11
37.1946
21
-60.96
0
LINE
8
BLACK
6
CONTINUOUS
10
37.1946
20
-60.96
11
37.212
21
-60.7834
0
LINE
8
BLACK
6
CONTINUOUS
10
37.212
20
-60.7834
11
37.2636
21
-60.6135
0
LINE
8
BLACK
6
CONTINUOUS
10
37.2636
20
-60.6135
11
37.3472
21
-60.457
0
LINE
8
BLACK
6
CONTINUOUS
10
37.3472
20
-60.457
11
37.3766
21
-60.4213
0
LINE
8
BLACK
6
CONTINUOUS
10
37.3766
20
-60.4213
11
37.4598
21
-60.3198
0
LINE
8
BLACK
6
CONTINUOUS
10
37.4598
20
-60.3198
11
37.5613
21
-60.2366
0
LINE
8
BLACK
6
CONTINUOUS
10
37.5613
20
-60.2366
11
37.597
21
-60.2072
0
LINE
8
BLACK
6
CONTINUOUS
10
37.597
20
-60.2072
11
37.7535
21
-60.1236
0
LINE
8
BLACK
6
CONTINUOUS
10
37.7535
20
-60.1236
11
37.9234
21
-60.072
0
LINE
8
BLACK
6
CONTINUOUS
10
37.9234
20
-60.072
11
37.9896
21
-60.0655
0
LINE
8
BLACK
6
CONTINUOUS
10
37.9896
20
-60.0655
11
38.0557
21
-60.059
0
LINE
8
BLACK
6
CONTINUOUS
10
38.0557
20
-60.059
11
38.1443
21
-60.059
0
LINE
8
BLACK
6
CONTINUOUS
10
38.1443
20
-60.059
11
38.2104
21
-60.0655
0
LINE
8
BLACK
6
CONTINUOUS
10
79.283
20
-61.557
11
77.181
21
-61.557
0
LINE
8
BLACK
6
CONTINUOUS
10
77.181
20
-61.557
11
77.181
21
-59.855
0
LINE
8
BLACK
6
CONTINUOUS
10
77.181
20
-59.855
11
79.283
21
-59.855
0
LINE
8
BLACK
6
CONTINUOUS
10
79.283
20
-59.855
11
79.283
21
-61.557
0
LINE
8
BLACK
6
CONTINUOUS
10
95.583
20
-61.557
11
93.481
21
-61.557
0
LINE
8
BLACK
6
CONTINUOUS
10
93.481
20
-61.557
11
93.481
21
-59.855
0
LINE
8
BLACK
6
CONTINUOUS
10
93.481
20
-59.855
11
95.583
21
-59.855
0
LINE
8
BLACK
6
CONTINUOUS
10
95.583
20
-59.855
11
95.583
21
-61.557
0
LINE
8
BLACK
6
CONTINUOUS
10
44.949
20
-61.303
11
42.847
21
-61.303
0
LINE
8
BLACK
6
CONTINUOUS
10
42.847
20
-61.303
11
42.847
21
-59.601
0
LINE
8
BLACK
6
CONTINUOUS
10
42.847
20
-59.601
11
44.949
21
-59.601
0
LINE
8
BLACK
6
CONTINUOUS
10
44.949
20
-59.601
11
44.949
21
-61.303
0
LINE
8
BLACK
6
CONTINUOUS
10
61.249
20
-61.203
11
59.147
21
-61.203
0
LINE
8
BLACK
6
CONTINUOUS
10
59.147
20
-61.203
11
59.147
21
-59.701
0
LINE
8
BLACK
6
CONTINUOUS
10
59.147
20
-59.701
11
61.249
21
-59.701
0
LINE
8
BLACK
6
CONTINUOUS
10
61.249
20
-59.701
11
61.249
21
-61.203
0
LINE
8
BLACK
6
CONTINUOUS
10
38.2104
20
-57.5255
11
38.2766
21
-57.532
0
LINE
8
BLACK
6
CONTINUOUS
10
38.2766
20
-57.532
11
38.4465
21
-57.5836
0
LINE
8
BLACK
6
CONTINUOUS
10
38.4465
20
-57.5836
11
38.603
21
-57.6672
0
LINE
8
BLACK
6
CONTINUOUS
10
38.603
20
-57.6672
11
38.6387
21
-57.6966
0
LINE
8
BLACK
6
CONTINUOUS
10
38.6387
20
-57.6966
11
38.7402
21
-57.7798
0
LINE
8
BLACK
6
CONTINUOUS
10
38.7402
20
-57.7798
11
38.8234
21
-57.8813
0
LINE
8
BLACK
6
CONTINUOUS
10
38.8234
20
-57.8813
11
38.8528
21
-57.917
0
LINE
8
BLACK
6
CONTINUOUS
10
38.8528
20
-57.917
11
38.9364
21
-58.0735
0
LINE
8
BLACK
6
CONTINUOUS
10
38.9364
20
-58.0735
11
38.988
21
-58.2434
0
LINE
8
BLACK
6
CONTINUOUS
10
38.988
20
-58.2434
11
39.0054
21
-58.42
0
LINE
8
BLACK
6
CONTINUOUS
10
39.0054
20
-58.42
11
38.988
21
-58.5966
0
LINE
8
BLACK
6
CONTINUOUS
10
38.988
20
-58.5966
11
38.9364
21
-58.7665
0
LINE
8
BLACK
6
CONTINUOUS
10
38.9364
20
-58.7665
11
38.8528
21
-58.923
0
LINE
8
BLACK
6
CONTINUOUS
10
38.8528
20
-58.923
11
38.8234
21
-58.9587
0
LINE
8
BLACK
6
CONTINUOUS
10
38.8234
20
-58.9587
11
38.7402
21
-59.0602
0
LINE
8
BLACK
6
CONTINUOUS
10
38.7402
20
-59.0602
11
38.6387
21
-59.1434
0
LINE
8
BLACK
6
CONTINUOUS
10
38.6387
20
-59.1434
11
38.603
21
-59.1728
0
LINE
8
BLACK
6
CONTINUOUS
10
38.603
20
-59.1728
11
38.4465
21
-59.2564
0
LINE
8
BLACK
6
CONTINUOUS
10
38.4465
20
-59.2564
11
38.2766
21
-59.308
0
LINE
8
BLACK
6
CONTINUOUS
10
38.2766
20
-59.308
11
38.2104
21
-59.3145
0
LINE
8
BLACK
6
CONTINUOUS
10
38.2104
20
-59.3145
11
38.1443
21
-59.321
0
LINE
8
BLACK
6
CONTINUOUS
10
38.1443
20
-59.321
11
38.0557
21
-59.321
0
LINE
8
BLACK
6
CONTINUOUS
10
38.0557
20
-59.321
11
37.9896
21
-59.3145
0
LINE
8
BLACK
6
CONTINUOUS
10
37.9896
20
-59.3145
11
37.9234
21
-59.308
0
LINE
8
BLACK
6
CONTINUOUS
10
37.9234
20
-59.308
11
37.7535
21
-59.2564
0
LINE
8
BLACK
6
CONTINUOUS
10
37.7535
20
-59.2564
11
37.597
21
-59.1728
0
LINE
8
BLACK
6
CONTINUOUS
10
37.597
20
-59.1728
11
37.5613
21
-59.1434
0
LINE
8
BLACK
6
CONTINUOUS
10
37.5613
20
-59.1434
11
37.4598
21
-59.0602
0
LINE
8
BLACK
6
CONTINUOUS
10
37.4598
20
-59.0602
11
37.3766
21
-58.9587
0
LINE
8
BLACK
6
CONTINUOUS
10
37.3766
20
-58.9587
11
37.3472
21
-58.923
0
LINE
8
BLACK
6
CONTINUOUS
10
37.3472
20
-58.923
11
37.2636
21
-58.7665
0
LINE
8
BLACK
6
CONTINUOUS
10
37.2636
20
-58.7665
11
37.212
21
-58.5966
0
LINE
8
BLACK
6
CONTINUOUS
10
37.212
20
-58.5966
11
37.1946
21
-58.42
0
LINE
8
BLACK
6
CONTINUOUS
10
37.1946
20
-58.42
11
37.212
21
-58.2434
0
LINE
8
BLACK
6
CONTINUOUS
10
37.212
20
-58.2434
11
37.2636
21
-58.0735
0
LINE
8
BLACK
6
CONTINUOUS
10
37.2636
20
-58.0735
11
37.3472
21
-57.917
0
LINE
8
BLACK
6
CONTINUOUS
10
37.3472
20
-57.917
11
37.3766
21
-57.8813
0
LINE
8
BLACK
6
CONTINUOUS
10
37.3766
20
-57.8813
11
37.4598
21
-57.7798
0
LINE
8
BLACK
6
CONTINUOUS
10
37.4598
20
-57.7798
11
37.5613
21
-57.6966
0
LINE
8
BLACK
6
CONTINUOUS
10
37.5613
20
-57.6966
11
37.597
21
-57.6672
0
LINE
8
BLACK
6
CONTINUOUS
10
37.597
20
-57.6672
11
37.7535
21
-57.5836
0
LINE
8
BLACK
6
CONTINUOUS
10
37.7535
20
-57.5836
11
37.9234
21
-57.532
0
LINE
8
BLACK
6
CONTINUOUS
10
37.9234
20
-57.532
11
37.9896
21
-57.5255
0
LINE
8
BLACK
6
CONTINUOUS
10
37.9896
20
-57.5255
11
38.0557
21
-57.519
0
LINE
8
BLACK
6
CONTINUOUS
10
38.0557
20
-57.519
11
38.1443
21
-57.519
0
LINE
8
BLACK
6
CONTINUOUS
10
38.1443
20
-57.519
11
38.2104
21
-57.5255
0
LINE
8
BLACK
6
CONTINUOUS
10
79.283
20
-59.017
11
77.181
21
-59.017
0
LINE
8
BLACK
6
CONTINUOUS
10
77.181
20
-59.017
11
77.181
21
-57.315
0
LINE
8
BLACK
6
CONTINUOUS
10
77.181
20
-57.315
11
79.283
21
-57.315
0
LINE
8
BLACK
6
CONTINUOUS
10
79.283
20
-57.315
11
79.283
21
-59.017
0
LINE
8
BLACK
6
CONTINUOUS
10
95.583
20
-59.017
11
93.481
21
-59.017
0
LINE
8
BLACK
6
CONTINUOUS
10
93.481
20
-59.017
11
93.481
21
-57.315
0
LINE
8
BLACK
6
CONTINUOUS
10
93.481
20
-57.315
11
95.583
21
-57.315
0
LINE
8
BLACK
6
CONTINUOUS
10
95.583
20
-57.315
11
95.583
21
-59.017
0
LINE
8
BLACK
6
CONTINUOUS
10
44.949
20
-58.763
11
42.847
21
-58.763
0
LINE
8
BLACK
6
CONTINUOUS
10
42.847
20
-58.763
11
42.847
21
-57.061
0
LINE
8
BLACK
6
CONTINUOUS
10
42.847
20
-57.061
11
44.949
21
-57.061
0
LINE
8
BLACK
6
CONTINUOUS
10
44.949
20
-57.061
11
44.949
21
-58.763
0
LINE
8
BLACK
6
CONTINUOUS
10
61.249
20
-58.663
11
59.147
21
-58.663
0
LINE
8
BLACK
6
CONTINUOUS
10
59.147
20
-58.663
11
59.147
21
-57.161
0
LINE
8
BLACK
6
CONTINUOUS
10
59.147
20
-57.161
11
61.249
21
-57.161
0
LINE
8
BLACK
6
CONTINUOUS
10
61.249
20
-57.161
11
61.249
21
-58.663
0
LINE
8
BLACK
6
CONTINUOUS
10
79.283
20
-56.477
11
77.181
21
-56.477
0
LINE
8
BLACK
6
CONTINUOUS
10
77.181
20
-56.477
11
77.181
21
-54.775
0
LINE
8
BLACK
6
CONTINUOUS
10
77.181
20
-54.775
11
79.283
21
-54.775
0
LINE
8
BLACK
6
CONTINUOUS
10
79.283
20
-54.775
11
79.283
21
-56.477
0
LINE
8
BLACK
6
CONTINUOUS
10
61.249
20
-56.123
11
59.147
21
-56.123
0
LINE
8
BLACK
6
CONTINUOUS
10
59.147
20
-56.123
11
59.147
21
-54.621
0
LINE
8
BLACK
6
CONTINUOUS
10
59.147
20
-54.621
11
61.249
21
-54.621
0
LINE
8
BLACK
6
CONTINUOUS
10
61.249
20
-54.621
11
61.249
21
-56.123
0
LINE
8
BLACK
6
CONTINUOUS
10
64.8042
20
-52.2677
11
64.9591
21
-52.3319
0
LINE
8
BLACK
6
CONTINUOUS
10
64.9591
20
-52.3319
11
65.0985
21
-52.425
0
LINE
8
BLACK
6
CONTINUOUS
10
65.0985
20
-52.425
11
65.217
21
-52.5435
0
LINE
8
BLACK
6
CONTINUOUS
10
65.217
20
-52.5435
11
65.3101
21
-52.6829
0
LINE
8
BLACK
6
CONTINUOUS
10
65.3101
20
-52.6829
11
65.3743
21
-52.8378
0
LINE
8
BLACK
6
CONTINUOUS
10
65.3743
20
-52.8378
11
65.407
21
-53.0022
0
LINE
8
BLACK
6
CONTINUOUS
10
65.407
20
-53.0022
11
65.407
21
-53.1698
0
LINE
8
BLACK
6
CONTINUOUS
10
65.407
20
-53.1698
11
65.3743
21
-53.3342
0
LINE
8
BLACK
6
CONTINUOUS
10
65.3743
20
-53.3342
11
65.3101
21
-53.4891
0
LINE
8
BLACK
6
CONTINUOUS
10
65.3101
20
-53.4891
11
65.217
21
-53.6285
0
LINE
8
BLACK
6
CONTINUOUS
10
65.217
20
-53.6285
11
65.0985
21
-53.747
0
LINE
8
BLACK
6
CONTINUOUS
10
65.0985
20
-53.747
11
64.9591
21
-53.8401
0
LINE
8
BLACK
6
CONTINUOUS
10
64.9591
20
-53.8401
11
64.8042
21
-53.9043
0
LINE
8
BLACK
6
CONTINUOUS
10
64.8042
20
-53.9043
11
64.6398
21
-53.937
0
LINE
8
BLACK
6
CONTINUOUS
10
64.6398
20
-53.937
11
64.4722
21
-53.937
0
LINE
8
BLACK
6
CONTINUOUS
10
64.4722
20
-53.937
11
64.3078
21
-53.9043
0
LINE
8
BLACK
6
CONTINUOUS
10
64.3078
20
-53.9043
11
64.1529
21
-53.8401
0
LINE
8
BLACK
6
CONTINUOUS
10
64.1529
20
-53.8401
11
64.0135
21
-53.747
0
LINE
8
BLACK
6
CONTINUOUS
10
64.0135
20
-53.747
11
63.895
21
-53.6285
0
LINE
8
BLACK
6
CONTINUOUS
10
63.895
20
-53.6285
11
63.8019
21
-53.4891
0
LINE
8
BLACK
6
CONTINUOUS
10
63.8019
20
-53.4891
11
63.7377
21
-53.3342
0
LINE
8
BLACK
6
CONTINUOUS
10
63.7377
20
-53.3342
11
63.705
21
-53.1698
0
LINE
8
BLACK
6
CONTINUOUS
10
63.705
20
-53.1698
11
63.705
21
-53.0022
0
LINE
8
BLACK
6
CONTINUOUS
10
63.705
20
-53.0022
11
63.7377
21
-52.8378
0
LINE
8
BLACK
6
CONTINUOUS
10
63.7377
20
-52.8378
11
63.8019
21
-52.6829
0
LINE
8
BLACK
6
CONTINUOUS
10
63.8019
20
-52.6829
11
63.895
21
-52.5435
0
LINE
8
BLACK
6
CONTINUOUS
10
63.895
20
-52.5435
11
64.0135
21
-52.425
0
LINE
8
BLACK
6
CONTINUOUS
10
64.0135
20
-52.425
11
64.1529
21
-52.3319
0
LINE
8
BLACK
6
CONTINUOUS
10
64.1529
20
-52.3319
11
64.3078
21
-52.2677
0
LINE
8
BLACK
6
CONTINUOUS
10
64.3078
20
-52.2677
11
64.4722
21
-52.235
0
LINE
8
BLACK
6
CONTINUOUS
10
64.4722
20
-52.235
11
64.6398
21
-52.235
0
LINE
8
BLACK
6
CONTINUOUS
10
64.6398
20
-52.235
11
64.8042
21
-52.2677
0
LINE
8
BLACK
6
CONTINUOUS
10
67.3042
20
-52.2677
11
67.4591
21
-52.3319
0
LINE
8
BLACK
6
CONTINUOUS
10
67.4591
20
-52.3319
11
67.5985
21
-52.425
0
LINE
8
BLACK
6
CONTINUOUS
10
67.5985
20
-52.425
11
67.717
21
-52.5435
0
LINE
8
BLACK
6
CONTINUOUS
10
67.717
20
-52.5435
11
67.8101
21
-52.6829
0
LINE
8
BLACK
6
CONTINUOUS
10
67.8101
20
-52.6829
11
67.8743
21
-52.8378
0
LINE
8
BLACK
6
CONTINUOUS
10
67.8743
20
-52.8378
11
67.907
21
-53.0022
0
LINE
8
BLACK
6
CONTINUOUS
10
67.907
20
-53.0022
11
67.907
21
-53.1698
0
LINE
8
BLACK
6
CONTINUOUS
10
67.907
20
-53.1698
11
67.8743
21
-53.3342
0
LINE
8
BLACK
6
CONTINUOUS
10
67.8743
20
-53.3342
11
67.8101
21
-53.4891
0
LINE
8
BLACK
6
CONTINUOUS
10
67.8101
20
-53.4891
11
67.717
21
-53.6285
0
LINE
8
BLACK
6
CONTINUOUS
10
67.717
20
-53.6285
11
67.5985
21
-53.747
0
LINE
8
BLACK
6
CONTINUOUS
10
67.5985
20
-53.747
11
67.4591
21
-53.8401
0
LINE
8
BLACK
6
CONTINUOUS
10
67.4591
20
-53.8401
11
67.3042
21
-53.9043
0
LINE
8
BLACK
6
CONTINUOUS
10
67.3042
20
-53.9043
11
67.1398
21
-53.937
0
LINE
8
BLACK
6
CONTINUOUS
10
67.1398
20
-53.937
11
66.9722
21
-53.937
0
LINE
8
BLACK
6
CONTINUOUS
10
66.9722
20
-53.937
11
66.8078
21
-53.9043
0
LINE
8
BLACK
6
CONTINUOUS
10
66.8078
20
-53.9043
11
66.6529
21
-53.8401
0
LINE
8
BLACK
6
CONTINUOUS
10
66.6529
20
-53.8401
11
66.5135
21
-53.747
0
LINE
8
BLACK
6
CONTINUOUS
10
66.5135
20
-53.747
11
66.395
21
-53.6285
0
LINE
8
BLACK
6
CONTINUOUS
10
66.395
20
-53.6285
11
66.3019
21
-53.4891
0
LINE
8
BLACK
6
CONTINUOUS
10
66.3019
20
-53.4891
11
66.2377
21
-53.3342
0
LINE
8
BLACK
6
CONTINUOUS
10
66.2377
20
-53.3342
11
66.205
21
-53.1698
0
LINE
8
BLACK
6
CONTINUOUS
10
66.205
20
-53.1698
11
66.205
21
-53.0022
0
LINE
8
BLACK
6
CONTINUOUS
10
66.205
20
-53.0022
11
66.2377
21
-52.8378
0
LINE
8
BLACK
6
CONTINUOUS
10
66.2377
20
-52.8378
11
66.3019
21
-52.6829
0
LINE
8
BLACK
6
CONTINUOUS
10
66.3019
20
-52.6829
11
66.395
21
-52.5435
0
LINE
8
BLACK
6
CONTINUOUS
10
66.395
20
-52.5435
11
66.5135
21
-52.425
0
LINE
8
BLACK
6
CONTINUOUS
10
66.5135
20
-52.425
11
66.6529
21
-52.3319
0
LINE
8
BLACK
6
CONTINUOUS
10
66.6529
20
-52.3319
11
66.8078
21
-52.2677
0
LINE
8
BLACK
6
CONTINUOUS
10
66.8078
20
-52.2677
11
66.9722
21
-52.235
0
LINE
8
BLACK
6
CONTINUOUS
10
66.9722
20
-52.235
11
67.1398
21
-52.235
0
LINE
8
BLACK
6
CONTINUOUS
10
67.1398
20
-52.235
11
67.3042
21
-52.2677
0
LINE
8
BLACK
6
CONTINUOUS
10
71.8732
20
-49.3131
11
72.1091
21
-49.3846
0
LINE
8
BLACK
6
CONTINUOUS
10
72.1091
20
-49.3846
11
72.3264
21
-49.5008
0
LINE
8
BLACK
6
CONTINUOUS
10
72.3264
20
-49.5008
11
72.5169
21
-49.6571
0
LINE
8
BLACK
6
CONTINUOUS
10
72.5169
20
-49.6571
11
72.6732
21
-49.8476
0
LINE
8
BLACK
6
CONTINUOUS
10
72.6732
20
-49.8476
11
72.7894
21
-50.0649
0
LINE
8
BLACK
6
CONTINUOUS
10
72.7894
20
-50.0649
11
72.8609
21
-50.3008
0
LINE
8
BLACK
6
CONTINUOUS
10
72.8609
20
-50.3008
11
72.8851
21
-50.546
0
LINE
8
BLACK
6
CONTINUOUS
10
72.8851
20
-50.546
11
72.8609
21
-50.7912
0
LINE
8
BLACK
6
CONTINUOUS
10
72.8609
20
-50.7912
11
72.7894
21
-51.0271
0
LINE
8
BLACK
6
CONTINUOUS
10
72.7894
20
-51.0271
11
72.6732
21
-51.2444
0
LINE
8
BLACK
6
CONTINUOUS
10
72.6732
20
-51.2444
11
72.5169
21
-51.4349
0
LINE
8
BLACK
6
CONTINUOUS
10
72.5169
20
-51.4349
11
72.3264
21
-51.5912
0
LINE
8
BLACK
6
CONTINUOUS
10
72.3264
20
-51.5912
11
72.1091
21
-51.7074
0
LINE
8
BLACK
6
CONTINUOUS
10
72.1091
20
-51.7074
11
71.8732
21
-51.7789
0
LINE
8
BLACK
6
CONTINUOUS
10
71.8732
20
-51.7789
11
71.6895
21
-51.797
0
LINE
8
BLACK
6
CONTINUOUS
10
71.6895
20
-51.797
11
71.5665
21
-51.797
0
LINE
8
BLACK
6
CONTINUOUS
10
71.5665
20
-51.797
11
71.3828
21
-51.7789
0
LINE
8
BLACK
6
CONTINUOUS
10
71.3828
20
-51.7789
11
71.1469
21
-51.7074
0
LINE
8
BLACK
6
CONTINUOUS
10
71.1469
20
-51.7074
11
70.9296
21
-51.5912
0
LINE
8
BLACK
6
CONTINUOUS
10
70.9296
20
-51.5912
11
70.7391
21
-51.4349
0
LINE
8
BLACK
6
CONTINUOUS
10
70.7391
20
-51.4349
11
70.5828
21
-51.2444
0
LINE
8
BLACK
6
CONTINUOUS
10
70.5828
20
-51.2444
11
70.4666
21
-51.0271
0
LINE
8
BLACK
6
CONTINUOUS
10
70.4666
20
-51.0271
11
70.3951
21
-50.7912
0
LINE
8
BLACK
6
CONTINUOUS
10
70.3951
20
-50.7912
11
70.3709
21
-50.546
0
LINE
8
BLACK
6
CONTINUOUS
10
70.3709
20
-50.546
11
70.3951
21
-50.3008
0
LINE
8
BLACK
6
CONTINUOUS
10
70.3951
20
-50.3008
11
70.4666
21
-50.0649
0
LINE
8
BLACK
6
CONTINUOUS
10
70.4666
20
-50.0649
11
70.5828
21
-49.8476
0
LINE
8
BLACK
6
CONTINUOUS
10
70.5828
20
-49.8476
11
70.7391
21
-49.6571
0
LINE
8
BLACK
6
CONTINUOUS
10
70.7391
20
-49.6571
11
70.9296
21
-49.5008
0
LINE
8
BLACK
6
CONTINUOUS
10
70.9296
20
-49.5008
11
71.1469
21
-49.3846
0
LINE
8
BLACK
6
CONTINUOUS
10
71.1469
20
-49.3846
11
71.3828
21
-49.3131
0
LINE
8
BLACK
6
CONTINUOUS
10
71.3828
20
-49.3131
11
71.5665
21
-49.295
0
LINE
8
BLACK
6
CONTINUOUS
10
71.5665
20
-49.295
11
71.6895
21
-49.295
0
LINE
8
BLACK
6
CONTINUOUS
10
71.6895
20
-49.295
11
71.8732
21
-49.3131
0
LINE
8
BLACK
6
CONTINUOUS
10
87.2329
20
-49.3431
11
87.4309
21
-49.4251
0
LINE
8
BLACK
6
CONTINUOUS
10
87.4309
20
-49.4251
11
87.4606
21
-49.4374
0
LINE
8
BLACK
6
CONTINUOUS
10
87.4606
20
-49.4374
11
87.6655
21
-49.5743
0
LINE
8
BLACK
6
CONTINUOUS
10
87.6655
20
-49.5743
11
87.8397
21
-49.7485
0
LINE
8
BLACK
6
CONTINUOUS
10
87.8397
20
-49.7485
11
87.9766
21
-49.9534
0
LINE
8
BLACK
6
CONTINUOUS
10
87.9766
20
-49.9534
11
88.0709
21
-50.1811
0
LINE
8
BLACK
6
CONTINUOUS
10
88.0709
20
-50.1811
11
88.119
21
-50.4228
0
LINE
8
BLACK
6
CONTINUOUS
10
88.119
20
-50.4228
11
88.119
21
-50.6692
0
LINE
8
BLACK
6
CONTINUOUS
10
88.119
20
-50.6692
11
88.0709
21
-50.9109
0
LINE
8
BLACK
6
CONTINUOUS
10
88.0709
20
-50.9109
11
87.9766
21
-51.1386
0
LINE
8
BLACK
6
CONTINUOUS
10
87.9766
20
-51.1386
11
87.8397
21
-51.3435
0
LINE
8
BLACK
6
CONTINUOUS
10
87.8397
20
-51.3435
11
87.6655
21
-51.5177
0
LINE
8
BLACK
6
CONTINUOUS
10
87.6655
20
-51.5177
11
87.4606
21
-51.6546
0
LINE
8
BLACK
6
CONTINUOUS
10
87.4606
20
-51.6546
11
87.4606
21
-51.6546
0
LINE
8
BLACK
6
CONTINUOUS
10
87.4606
20
-51.6546
11
87.4606
21
-51.6546
0
LINE
8
BLACK
6
CONTINUOUS
10
87.4606
20
-51.6546
11
87.2329
21
-51.7489
0
LINE
8
BLACK
6
CONTINUOUS
10
87.2329
20
-51.7489
11
86.9912
21
-51.797
0
LINE
8
BLACK
6
CONTINUOUS
10
86.9912
20
-51.797
11
86.7448
21
-51.797
0
LINE
8
BLACK
6
CONTINUOUS
10
86.7448
20
-51.797
11
86.5031
21
-51.7489
0
LINE
8
BLACK
6
CONTINUOUS
10
86.5031
20
-51.7489
11
86.2754
21
-51.6546
0
LINE
8
BLACK
6
CONTINUOUS
10
86.2754
20
-51.6546
11
86.2754
21
-51.6546
0
LINE
8
BLACK
6
CONTINUOUS
10
86.2754
20
-51.6546
11
86.2754
21
-51.6546
0
LINE
8
BLACK
6
CONTINUOUS
10
86.2754
20
-51.6546
11
86.0705
21
-51.5177
0
LINE
8
BLACK
6
CONTINUOUS
10
86.0705
20
-51.5177
11
85.8963
21
-51.3435
0
LINE
8
BLACK
6
CONTINUOUS
10
85.8963
20
-51.3435
11
85.7594
21
-51.1386
0
LINE
8
BLACK
6
CONTINUOUS
10
85.7594
20
-51.1386
11
85.6651
21
-50.9109
0
LINE
8
BLACK
6
CONTINUOUS
10
85.6651
20
-50.9109
11
85.617
21
-50.6692
0
LINE
8
BLACK
6
CONTINUOUS
10
85.617
20
-50.6692
11
85.617
21
-50.4228
0
LINE
8
BLACK
6
CONTINUOUS
10
85.617
20
-50.4228
11
85.6651
21
-50.1811
0
LINE
8
BLACK
6
CONTINUOUS
10
85.6651
20
-50.1811
11
85.7594
21
-49.9534
0
LINE
8
BLACK
6
CONTINUOUS
10
85.7594
20
-49.9534
11
85.8963
21
-49.7485
0
LINE
8
BLACK
6
CONTINUOUS
10
85.8963
20
-49.7485
11
86.0705
21
-49.5743
0
LINE
8
BLACK
6
CONTINUOUS
10
86.0705
20
-49.5743
11
86.2754
21
-49.4374
0
LINE
8
BLACK
6
CONTINUOUS
10
86.2754
20
-49.4374
11
86.3051
21
-49.4251
0
LINE
8
BLACK
6
CONTINUOUS
10
86.3051
20
-49.4251
11
86.5031
21
-49.3431
0
LINE
8
BLACK
6
CONTINUOUS
10
86.5031
20
-49.3431
11
86.7448
21
-49.295
0
LINE
8
BLACK
6
CONTINUOUS
10
86.7448
20
-49.295
11
86.9912
21
-49.295
0
LINE
8
BLACK
6
CONTINUOUS
10
86.9912
20
-49.295
11
87.2329
21
-49.3431
0
LINE
8
BLACK
6
CONTINUOUS
10
67.0102
20
-48.2037
11
67.1651
21
-48.2679
0
LINE
8
BLACK
6
CONTINUOUS
10
67.1651
20
-48.2679
11
67.3045
21
-48.361
0
LINE
8
BLACK
6
CONTINUOUS
10
67.3045
20
-48.361
11
67.423
21
-48.4795
0
LINE
8
BLACK
6
CONTINUOUS
10
67.423
20
-48.4795
11
67.5161
21
-48.6189
0
LINE
8
BLACK
6
CONTINUOUS
10
67.5161
20
-48.6189
11
67.5803
21
-48.7738
0
LINE
8
BLACK
6
CONTINUOUS
10
67.5803
20
-48.7738
11
67.613
21
-48.9382
0
LINE
8
BLACK
6
CONTINUOUS
10
67.613
20
-48.9382
11
67.613
21
-49.1058
0
LINE
8
BLACK
6
CONTINUOUS
10
67.613
20
-49.1058
11
67.5803
21
-49.2702
0
LINE
8
BLACK
6
CONTINUOUS
10
67.5803
20
-49.2702
11
67.5161
21
-49.4251
0
LINE
8
BLACK
6
CONTINUOUS
10
67.5161
20
-49.4251
11
67.423
21
-49.5645
0
LINE
8
BLACK
6
CONTINUOUS
10
67.423
20
-49.5645
11
67.3045
21
-49.683
0
LINE
8
BLACK
6
CONTINUOUS
10
67.3045
20
-49.683
11
67.1651
21
-49.7761
0
LINE
8
BLACK
6
CONTINUOUS
10
67.1651
20
-49.7761
11
67.0102
21
-49.8403
0
LINE
8
BLACK
6
CONTINUOUS
10
67.0102
20
-49.8403
11
66.8458
21
-49.873
0
LINE
8
BLACK
6
CONTINUOUS
10
66.8458
20
-49.873
11
66.6782
21
-49.873
0
LINE
8
BLACK
6
CONTINUOUS
10
66.6782
20
-49.873
11
66.5138
21
-49.8403
0
LINE
8
BLACK
6
CONTINUOUS
10
66.5138
20
-49.8403
11
66.3589
21
-49.7761
0
LINE
8
BLACK
6
CONTINUOUS
10
66.3589
20
-49.7761
11
66.2195
21
-49.683
0
LINE
8
BLACK
6
CONTINUOUS
10
66.2195
20
-49.683
11
66.101
21
-49.5645
0
LINE
8
BLACK
6
CONTINUOUS
10
66.101
20
-49.5645
11
66.0079
21
-49.4251
0
LINE
8
BLACK
6
CONTINUOUS
10
66.0079
20
-49.4251
11
65.9437
21
-49.2702
0
LINE
8
BLACK
6
CONTINUOUS
10
65.9437
20
-49.2702
11
65.911
21
-49.1058
0
LINE
8
BLACK
6
CONTINUOUS
10
65.911
20
-49.1058
11
65.911
21
-48.9382
0
LINE
8
BLACK
6
CONTINUOUS
10
65.911
20
-48.9382
11
65.9437
21
-48.7738
0
LINE
8
BLACK
6
CONTINUOUS
10
65.9437
20
-48.7738
11
66.0079
21
-48.6189
0
LINE
8
BLACK
6
CONTINUOUS
10
66.0079
20
-48.6189
11
66.101
21
-48.4795
0
LINE
8
BLACK
6
CONTINUOUS
10
66.101
20
-48.4795
11
66.2195
21
-48.361
0
LINE
8
BLACK
6
CONTINUOUS
10
66.2195
20
-48.361
11
66.3589
21
-48.2679
0
LINE
8
BLACK
6
CONTINUOUS
10
66.3589
20
-48.2679
11
66.5138
21
-48.2037
0
LINE
8
BLACK
6
CONTINUOUS
10
66.5138
20
-48.2037
11
66.6782
21
-48.171
0
LINE
8
BLACK
6
CONTINUOUS
10
66.6782
20
-48.171
11
66.8458
21
-48.171
0
LINE
8
BLACK
6
CONTINUOUS
10
66.8458
20
-48.171
11
67.0102
21
-48.2037
0
LINE
8
BLACK
6
CONTINUOUS
10
65.113
20
-49.773
11
63.411
21
-49.773
0
LINE
8
BLACK
6
CONTINUOUS
10
63.411
20
-49.773
11
63.411
21
-48.271
0
LINE
8
BLACK
6
CONTINUOUS
10
63.411
20
-48.271
11
65.113
21
-48.271
0
LINE
8
BLACK
6
CONTINUOUS
10
65.113
20
-48.271
11
65.113
21
-49.773
0
LINE
8
BLACK
6
CONTINUOUS
10
91.7174
20
-47.5995
11
91.8905
21
-47.6712
0
LINE
8
BLACK
6
CONTINUOUS
10
91.8905
20
-47.6712
11
91.8905
21
-47.6712
0
LINE
8
BLACK
6
CONTINUOUS
10
91.8905
20
-47.6712
11
92.0462
21
-47.7753
0
LINE
8
BLACK
6
CONTINUOUS
10
92.0462
20
-47.7753
11
92.1787
21
-47.9078
0
LINE
8
BLACK
6
CONTINUOUS
10
92.1787
20
-47.9078
11
92.2261
21
-47.9787
0
LINE
8
BLACK
6
CONTINUOUS
10
92.2261
20
-47.9787
11
92.2828
21
-48.0635
0
LINE
8
BLACK
6
CONTINUOUS
10
92.2828
20
-48.0635
11
92.3545
21
-48.2366
0
LINE
8
BLACK
6
CONTINUOUS
10
92.3545
20
-48.2366
11
92.391
21
-48.4203
0
LINE
8
BLACK
6
CONTINUOUS
10
92.391
20
-48.4203
11
92.391
21
-48.6077
0
LINE
8
BLACK
6
CONTINUOUS
10
92.391
20
-48.6077
11
92.3545
21
-48.7914
0
LINE
8
BLACK
6
CONTINUOUS
10
92.3545
20
-48.7914
11
92.2828
21
-48.9645
0
LINE
8
BLACK
6
CONTINUOUS
10
92.2828
20
-48.9645
11
92.2828
21
-48.9645
0
LINE
8
BLACK
6
CONTINUOUS
10
92.2828
20
-48.9645
11
92.1787
21
-49.1202
0
LINE
8
BLACK
6
CONTINUOUS
10
92.1787
20
-49.1202
11
92.0462
21
-49.2527
0
LINE
8
BLACK
6
CONTINUOUS
10
92.0462
20
-49.2527
11
92.02
21
-49.2702
0
LINE
8
BLACK
6
CONTINUOUS
10
92.02
20
-49.2702
11
91.8905
21
-49.3568
0
LINE
8
BLACK
6
CONTINUOUS
10
91.8905
20
-49.3568
11
91.7174
21
-49.4285
0
LINE
8
BLACK
6
CONTINUOUS
10
91.7174
20
-49.4285
11
91.5337
21
-49.465
0
LINE
8
BLACK
6
CONTINUOUS
10
91.5337
20
-49.465
11
91.3463
21
-49.465
0
LINE
8
BLACK
6
CONTINUOUS
10
91.3463
20
-49.465
11
91.1626
21
-49.4285
0
LINE
8
BLACK
6
CONTINUOUS
10
91.1626
20
-49.4285
11
90.9895
21
-49.3568
0
LINE
8
BLACK
6
CONTINUOUS
10
90.9895
20
-49.3568
11
90.86
21
-49.2702
0
LINE
8
BLACK
6
CONTINUOUS
10
90.86
20
-49.2702
11
90.8338
21
-49.2527
0
LINE
8
BLACK
6
CONTINUOUS
10
90.8338
20
-49.2527
11
90.7013
21
-49.1202
0
LINE
8
BLACK
6
CONTINUOUS
10
90.7013
20
-49.1202
11
90.5972
21
-48.9645
0
LINE
8
BLACK
6
CONTINUOUS
10
90.5972
20
-48.9645
11
90.5972
21
-48.9645
0
LINE
8
BLACK
6
CONTINUOUS
10
90.5972
20
-48.9645
11
90.5255
21
-48.7914
0
LINE
8
BLACK
6
CONTINUOUS
10
90.5255
20
-48.7914
11
90.489
21
-48.6077
0
LINE
8
BLACK
6
CONTINUOUS
10
90.489
20
-48.6077
11
90.489
21
-48.4203
0
LINE
8
BLACK
6
CONTINUOUS
10
90.489
20
-48.4203
11
90.5255
21
-48.2366
0
LINE
8
BLACK
6
CONTINUOUS
10
90.5255
20
-48.2366
11
90.5972
21
-48.0635
0
LINE
8
BLACK
6
CONTINUOUS
10
90.5972
20
-48.0635
11
90.6539
21
-47.9787
0
LINE
8
BLACK
6
CONTINUOUS
10
90.6539
20
-47.9787
11
90.7013
21
-47.9078
0
LINE
8
BLACK
6
CONTINUOUS
10
90.7013
20
-47.9078
11
90.8338
21
-47.7753
0
LINE
8
BLACK
6
CONTINUOUS
10
90.8338
20
-47.7753
11
90.9895
21
-47.6712
0
LINE
8
BLACK
6
CONTINUOUS
10
90.9895
20
-47.6712
11
90.9895
21
-47.6712
0
LINE
8
BLACK
6
CONTINUOUS
10
90.9895
20
-47.6712
11
91.1626
21
-47.5995
0
LINE
8
BLACK
6
CONTINUOUS
10
91.1626
20
-47.5995
11
91.3463
21
-47.563
0
LINE
8
BLACK
6
CONTINUOUS
10
91.3463
20
-47.563
11
91.5337
21
-47.563
0
LINE
8
BLACK
6
CONTINUOUS
10
91.5337
20
-47.563
11
91.7174
21
-47.5995
0
LINE
8
BLACK
6
CONTINUOUS
10
94.931
20
-49.465
11
93.029
21
-49.465
0
LINE
8
BLACK
6
CONTINUOUS
10
93.029
20
-49.465
11
93.029
21
-47.563
0
LINE
8
BLACK
6
CONTINUOUS
10
93.029
20
-47.563
11
94.931
21
-47.563
0
LINE
8
BLACK
6
CONTINUOUS
10
94.931
20
-47.563
11
94.931
21
-49.465
0
LINE
8
BLACK
6
CONTINUOUS
10
58.8707
20
-46.4615
11
59.0599
21
-46.5189
0
LINE
8
BLACK
6
CONTINUOUS
10
59.0599
20
-46.5189
11
59.0599
21
-46.5189
0
LINE
8
BLACK
6
CONTINUOUS
10
59.0599
20
-46.5189
11
59.0948
21
-46.5376
0
LINE
8
BLACK
6
CONTINUOUS
10
59.0948
20
-46.5376
11
59.2342
21
-46.6121
0
LINE
8
BLACK
6
CONTINUOUS
10
59.2342
20
-46.6121
11
59.387
21
-46.7375
0
LINE
8
BLACK
6
CONTINUOUS
10
59.387
20
-46.7375
11
59.5124
21
-46.8903
0
LINE
8
BLACK
6
CONTINUOUS
10
59.5124
20
-46.8903
11
59.6056
21
-47.0646
0
LINE
8
BLACK
6
CONTINUOUS
10
59.6056
20
-47.0646
11
59.663
21
-47.2538
0
LINE
8
BLACK
6
CONTINUOUS
10
59.663
20
-47.2538
11
59.6775
21
-47.4012
0
LINE
8
BLACK
6
CONTINUOUS
10
59.6775
20
-47.4012
11
59.6775
21
-47.5948
0
LINE
8
BLACK
6
CONTINUOUS
10
59.6775
20
-47.5948
11
59.663
21
-47.7422
0
LINE
8
BLACK
6
CONTINUOUS
10
59.663
20
-47.7422
11
59.6529
21
-47.7753
0
LINE
8
BLACK
6
CONTINUOUS
10
59.6529
20
-47.7753
11
59.6056
21
-47.9314
0
LINE
8
BLACK
6
CONTINUOUS
10
59.6056
20
-47.9314
11
59.5562
21
-48.0238
0
LINE
8
BLACK
6
CONTINUOUS
10
59.5562
20
-48.0238
11
59.5124
21
-48.1057
0
LINE
8
BLACK
6
CONTINUOUS
10
59.5124
20
-48.1057
11
59.387
21
-48.2585
0
LINE
8
BLACK
6
CONTINUOUS
10
59.387
20
-48.2585
11
59.2342
21
-48.3839
0
LINE
8
BLACK
6
CONTINUOUS
10
59.2342
20
-48.3839
11
59.0599
21
-48.4771
0
LINE
8
BLACK
6
CONTINUOUS
10
59.0599
20
-48.4771
11
58.8707
21
-48.5345
0
LINE
8
BLACK
6
CONTINUOUS
10
58.8707
20
-48.5345
11
58.674
21
-48.5539
0
LINE
8
BLACK
6
CONTINUOUS
10
58.674
20
-48.5539
11
58.4773
21
-48.5345
0
LINE
8
BLACK
6
CONTINUOUS
10
58.4773
20
-48.5345
11
58.2881
21
-48.4771
0
LINE
8
BLACK
6
CONTINUOUS
10
58.2881
20
-48.4771
11
58.1138
21
-48.3839
0
LINE
8
BLACK
6
CONTINUOUS
10
58.1138
20
-48.3839
11
57.961
21
-48.2585
0
LINE
8
BLACK
6
CONTINUOUS
10
57.961
20
-48.2585
11
57.8356
21
-48.1057
0
LINE
8
BLACK
6
CONTINUOUS
10
57.8356
20
-48.1057
11
57.7424
21
-47.9314
0
LINE
8
BLACK
6
CONTINUOUS
10
57.7424
20
-47.9314
11
57.685
21
-47.7422
0
LINE
8
BLACK
6
CONTINUOUS
10
57.685
20
-47.7422
11
57.6705
21
-47.5948
0
LINE
8
BLACK
6
CONTINUOUS
10
57.6705
20
-47.5948
11
57.6705
21
-47.4012
0
LINE
8
BLACK
6
CONTINUOUS
10
57.6705
20
-47.4012
11
57.685
21
-47.2538
0
LINE
8
BLACK
6
CONTINUOUS
10
57.685
20
-47.2538
11
57.7424
21
-47.0646
0
LINE
8
BLACK
6
CONTINUOUS
10
57.7424
20
-47.0646
11
57.7424
21
-47.0646
0
LINE
8
BLACK
6
CONTINUOUS
10
57.7424
20
-47.0646
11
57.7918
21
-46.9722
0
LINE
8
BLACK
6
CONTINUOUS
10
57.7918
20
-46.9722
11
57.8356
21
-46.8903
0
LINE
8
BLACK
6
CONTINUOUS
10
57.8356
20
-46.8903
11
57.961
21
-46.7375
0
LINE
8
BLACK
6
CONTINUOUS
10
57.961
20
-46.7375
11
58.1138
21
-46.6121
0
LINE
8
BLACK
6
CONTINUOUS
10
58.1138
20
-46.6121
11
58.2881
21
-46.5189
0
LINE
8
BLACK
6
CONTINUOUS
10
58.2881
20
-46.5189
11
58.4773
21
-46.4615
0
LINE
8
BLACK
6
CONTINUOUS
10
58.4773
20
-46.4615
11
58.674
21
-46.4421
0
LINE
8
BLACK
6
CONTINUOUS
10
58.674
20
-46.4421
11
58.8707
21
-46.4615
0
LINE
8
BLACK
6
CONTINUOUS
10
56.3307
20
-46.4615
11
56.5199
21
-46.5189
0
LINE
8
BLACK
6
CONTINUOUS
10
56.5199
20
-46.5189
11
56.5199
21
-46.5189
0
LINE
8
BLACK
6
CONTINUOUS
10
56.5199
20
-46.5189
11
56.5548
21
-46.5376
0
LINE
8
BLACK
6
CONTINUOUS
10
56.5548
20
-46.5376
11
56.6942
21
-46.6121
0
LINE
8
BLACK
6
CONTINUOUS
10
56.6942
20
-46.6121
11
56.847
21
-46.7375
0
LINE
8
BLACK
6
CONTINUOUS
10
56.847
20
-46.7375
11
56.9724
21
-46.8903
0
LINE
8
BLACK
6
CONTINUOUS
10
56.9724
20
-46.8903
11
57.0656
21
-47.0646
0
LINE
8
BLACK
6
CONTINUOUS
10
57.0656
20
-47.0646
11
57.123
21
-47.2538
0
LINE
8
BLACK
6
CONTINUOUS
10
57.123
20
-47.2538
11
57.1375
21
-47.4012
0
LINE
8
BLACK
6
CONTINUOUS
10
57.1375
20
-47.4012
11
57.1375
21
-47.5948
0
LINE
8
BLACK
6
CONTINUOUS
10
57.1375
20
-47.5948
11
57.123
21
-47.7422
0
LINE
8
BLACK
6
CONTINUOUS
10
57.123
20
-47.7422
11
57.1129
21
-47.7753
0
LINE
8
BLACK
6
CONTINUOUS
10
57.1129
20
-47.7753
11
57.0656
21
-47.9314
0
LINE
8
BLACK
6
CONTINUOUS
10
57.0656
20
-47.9314
11
57.0162
21
-48.0238
0
LINE
8
BLACK
6
CONTINUOUS
10
57.0162
20
-48.0238
11
56.9724
21
-48.1057
0
LINE
8
BLACK
6
CONTINUOUS
10
56.9724
20
-48.1057
11
56.847
21
-48.2585
0
LINE
8
BLACK
6
CONTINUOUS
10
56.847
20
-48.2585
11
56.6942
21
-48.3839
0
LINE
8
BLACK
6
CONTINUOUS
10
56.6942
20
-48.3839
11
56.5199
21
-48.4771
0
LINE
8
BLACK
6
CONTINUOUS
10
56.5199
20
-48.4771
11
56.3307
21
-48.5345
0
LINE
8
BLACK
6
CONTINUOUS
10
56.3307
20
-48.5345
11
56.134
21
-48.5539
0
LINE
8
BLACK
6
CONTINUOUS
10
56.134
20
-48.5539
11
55.9373
21
-48.5345
0
LINE
8
BLACK
6
CONTINUOUS
10
55.9373
20
-48.5345
11
55.7481
21
-48.4771
0
LINE
8
BLACK
6
CONTINUOUS
10
55.7481
20
-48.4771
11
55.5738
21
-48.3839
0
LINE
8
BLACK
6
CONTINUOUS
10
55.5738
20
-48.3839
11
55.421
21
-48.2585
0
LINE
8
BLACK
6
CONTINUOUS
10
55.421
20
-48.2585
11
55.2956
21
-48.1057
0
LINE
8
BLACK
6
CONTINUOUS
10
55.2956
20
-48.1057
11
55.2024
21
-47.9314
0
LINE
8
BLACK
6
CONTINUOUS
10
55.2024
20
-47.9314
11
55.145
21
-47.7422
0
LINE
8
BLACK
6
CONTINUOUS
10
55.145
20
-47.7422
11
55.1305
21
-47.5948
0
LINE
8
BLACK
6
CONTINUOUS
10
55.1305
20
-47.5948
11
55.1305
21
-47.4012
0
LINE
8
BLACK
6
CONTINUOUS
10
55.1305
20
-47.4012
11
55.145
21
-47.2538
0
LINE
8
BLACK
6
CONTINUOUS
10
55.145
20
-47.2538
11
55.2024
21
-47.0646
0
LINE
8
BLACK
6
CONTINUOUS
10
55.2024
20
-47.0646
11
55.2024
21
-47.0646
0
LINE
8
BLACK
6
CONTINUOUS
10
55.2024
20
-47.0646
11
55.2518
21
-46.9722
0
LINE
8
BLACK
6
CONTINUOUS
10
55.2518
20
-46.9722
11
55.2956
21
-46.8903
0
LINE
8
BLACK
6
CONTINUOUS
10
55.2956
20
-46.8903
11
55.421
21
-46.7375
0
LINE
8
BLACK
6
CONTINUOUS
10
55.421
20
-46.7375
11
55.5738
21
-46.6121
0
LINE
8
BLACK
6
CONTINUOUS
10
55.5738
20
-46.6121
11
55.7481
21
-46.5189
0
LINE
8
BLACK
6
CONTINUOUS
10
55.7481
20
-46.5189
11
55.9373
21
-46.4615
0
LINE
8
BLACK
6
CONTINUOUS
10
55.9373
20
-46.4615
11
56.134
21
-46.4421
0
LINE
8
BLACK
6
CONTINUOUS
10
56.134
20
-46.4421
11
56.3307
21
-46.4615
0
LINE
8
BLACK
6
CONTINUOUS
10
54.5975
20
-48.549
11
52.5905
21
-48.549
0
LINE
8
BLACK
6
CONTINUOUS
10
52.5905
20
-48.549
11
52.5905
21
-46.447
0
LINE
8
BLACK
6
CONTINUOUS
10
52.5905
20
-46.447
11
54.5975
21
-46.447
0
LINE
8
BLACK
6
CONTINUOUS
10
54.5975
20
-46.447
11
54.5975
21
-48.549
0
LINE
8
BLACK
6
CONTINUOUS
10
44.9635
20
-45.4602
11
45.1564
21
-45.4986
0
LINE
8
BLACK
6
CONTINUOUS
10
45.1564
20
-45.4986
11
45.4387
21
-45.6155
0
LINE
8
BLACK
6
CONTINUOUS
10
45.4387
20
-45.6155
11
45.6927
21
-45.7853
0
LINE
8
BLACK
6
CONTINUOUS
10
45.6927
20
-45.7853
11
45.9087
21
-46.0013
0
LINE
8
BLACK
6
CONTINUOUS
10
45.9087
20
-46.0013
11
46.0785
21
-46.2553
0
LINE
8
BLACK
6
CONTINUOUS
10
46.0785
20
-46.2553
11
46.1954
21
-46.5376
0
LINE
8
BLACK
6
CONTINUOUS
10
46.1954
20
-46.5376
11
46.255
21
-46.8372
0
LINE
8
BLACK
6
CONTINUOUS
10
46.255
20
-46.8372
11
46.255
21
-47.1428
0
LINE
8
BLACK
6
CONTINUOUS
10
46.255
20
-47.1428
11
46.1954
21
-47.4424
0
LINE
8
BLACK
6
CONTINUOUS
10
46.1954
20
-47.4424
11
46.0785
21
-47.7247
0
LINE
8
BLACK
6
CONTINUOUS
10
46.0785
20
-47.7247
11
45.9087
21
-47.9787
0
LINE
8
BLACK
6
CONTINUOUS
10
45.9087
20
-47.9787
11
45.6927
21
-48.1947
0
LINE
8
BLACK
6
CONTINUOUS
10
45.6927
20
-48.1947
11
45.4387
21
-48.3645
0
LINE
8
BLACK
6
CONTINUOUS
10
45.4387
20
-48.3645
11
45.1564
21
-48.4814
0
LINE
8
BLACK
6
CONTINUOUS
10
45.1564
20
-48.4814
11
45.0066
21
-48.5112
0
LINE
8
BLACK
6
CONTINUOUS
10
45.0066
20
-48.5112
11
44.8568
21
-48.541
0
LINE
8
BLACK
6
CONTINUOUS
10
44.8568
20
-48.541
11
44.5512
21
-48.541
0
LINE
8
BLACK
6
CONTINUOUS
10
44.5512
20
-48.541
11
44.4014
21
-48.5112
0
LINE
8
BLACK
6
CONTINUOUS
10
44.4014
20
-48.5112
11
44.2516
21
-48.4814
0
LINE
8
BLACK
6
CONTINUOUS
10
44.2516
20
-48.4814
11
43.9693
21
-48.3645
0
LINE
8
BLACK
6
CONTINUOUS
10
43.9693
20
-48.3645
11
43.7153
21
-48.1947
0
LINE
8
BLACK
6
CONTINUOUS
10
43.7153
20
-48.1947
11
43.4993
21
-47.9787
0
LINE
8
BLACK
6
CONTINUOUS
10
43.4993
20
-47.9787
11
43.3295
21
-47.7247
0
LINE
8
BLACK
6
CONTINUOUS
10
43.3295
20
-47.7247
11
43.2126
21
-47.4424
0
LINE
8
BLACK
6
CONTINUOUS
10
43.2126
20
-47.4424
11
43.153
21
-47.1428
0
LINE
8
BLACK
6
CONTINUOUS
10
43.153
20
-47.1428
11
43.153
21
-46.8372
0
LINE
8
BLACK
6
CONTINUOUS
10
43.153
20
-46.8372
11
43.2126
21
-46.5376
0
LINE
8
BLACK
6
CONTINUOUS
10
43.2126
20
-46.5376
11
43.3295
21
-46.2553
0
LINE
8
BLACK
6
CONTINUOUS
10
43.3295
20
-46.2553
11
43.4993
21
-46.0013
0
LINE
8
BLACK
6
CONTINUOUS
10
43.4993
20
-46.0013
11
43.7153
21
-45.7853
0
LINE
8
BLACK
6
CONTINUOUS
10
43.7153
20
-45.7853
11
43.9693
21
-45.6155
0
LINE
8
BLACK
6
CONTINUOUS
10
43.9693
20
-45.6155
11
44.2516
21
-45.4986
0
LINE
8
BLACK
6
CONTINUOUS
10
44.2516
20
-45.4986
11
44.4445
21
-45.4602
0
LINE
8
BLACK
6
CONTINUOUS
10
44.4445
20
-45.4602
11
44.5512
21
-45.439
0
LINE
8
BLACK
6
CONTINUOUS
10
44.5512
20
-45.439
11
44.8568
21
-45.439
0
LINE
8
BLACK
6
CONTINUOUS
10
44.8568
20
-45.439
11
44.9635
21
-45.4602
0
LINE
8
BLACK
6
CONTINUOUS
10
41.175
20
-48.541
11
38.073
21
-48.541
0
LINE
8
BLACK
6
CONTINUOUS
10
38.073
20
-48.541
11
38.073
21
-45.439
0
LINE
8
BLACK
6
CONTINUOUS
10
38.073
20
-45.439
11
41.175
21
-45.439
0
LINE
8
BLACK
6
CONTINUOUS
10
41.175
20
-45.439
11
41.175
21
-48.541
0
LINE
8
BLACK
6
CONTINUOUS
10
64.5102
20
-44.3937
11
64.6651
21
-44.4579
0
LINE
8
BLACK
6
CONTINUOUS
10
64.6651
20
-44.4579
11
64.8045
21
-44.551
0
LINE
8
BLACK
6
CONTINUOUS
10
64.8045
20
-44.551
11
64.923
21
-44.6695
0
LINE
8
BLACK
6
CONTINUOUS
10
64.923
20
-44.6695
11
65.0161
21
-44.8089
0
LINE
8
BLACK
6
CONTINUOUS
10
65.0161
20
-44.8089
11
65.0803
21
-44.9638
0
LINE
8
BLACK
6
CONTINUOUS
10
65.0803
20
-44.9638
11
65.113
21
-45.1282
0
LINE
8
BLACK
6
CONTINUOUS
10
65.113
20
-45.1282
11
65.113
21
-45.2958
0
LINE
8
BLACK
6
CONTINUOUS
10
65.113
20
-45.2958
11
65.0803
21
-45.4602
0
LINE
8
BLACK
6
CONTINUOUS
10
65.0803
20
-45.4602
11
65.0161
21
-45.6151
0
LINE
8
BLACK
6
CONTINUOUS
10
65.0161
20
-45.6151
11
64.923
21
-45.7545
0
LINE
8
BLACK
6
CONTINUOUS
10
64.923
20
-45.7545
11
64.8045
21
-45.873
0
LINE
8
BLACK
6
CONTINUOUS
10
64.8045
20
-45.873
11
64.6651
21
-45.9661
0
LINE
8
BLACK
6
CONTINUOUS
10
64.6651
20
-45.9661
11
64.5102
21
-46.0303
0
LINE
8
BLACK
6
CONTINUOUS
10
64.5102
20
-46.0303
11
64.3458
21
-46.063
0
LINE
8
BLACK
6
CONTINUOUS
10
64.3458
20
-46.063
11
64.1782
21
-46.063
0
LINE
8
BLACK
6
CONTINUOUS
10
64.1782
20
-46.063
11
64.0138
21
-46.0303
0
LINE
8
BLACK
6
CONTINUOUS
10
64.0138
20
-46.0303
11
63.8589
21
-45.9661
0
LINE
8
BLACK
6
CONTINUOUS
10
63.8589
20
-45.9661
11
63.7195
21
-45.873
0
LINE
8
BLACK
6
CONTINUOUS
10
63.7195
20
-45.873
11
63.601
21
-45.7545
0
LINE
8
BLACK
6
CONTINUOUS
10
63.601
20
-45.7545
11
63.5079
21
-45.6151
0
LINE
8
BLACK
6
CONTINUOUS
10
63.5079
20
-45.6151
11
63.4437
21
-45.4602
0
LINE
8
BLACK
6
CONTINUOUS
10
63.4437
20
-45.4602
11
63.411
21
-45.2958
0
LINE
8
BLACK
6
CONTINUOUS
10
63.411
20
-45.2958
11
63.411
21
-45.1282
0
LINE
8
BLACK
6
CONTINUOUS
10
63.411
20
-45.1282
11
63.4437
21
-44.9638
0
LINE
8
BLACK
6
CONTINUOUS
10
63.4437
20
-44.9638
11
63.5079
21
-44.8089
0
LINE
8
BLACK
6
CONTINUOUS
10
63.5079
20
-44.8089
11
63.601
21
-44.6695
0
LINE
8
BLACK
6
CONTINUOUS
10
63.601
20
-44.6695
11
63.7195
21
-44.551
0
LINE
8
BLACK
6
CONTINUOUS
10
63.7195
20
-44.551
11
63.8589
21
-44.4579
0
LINE
8
BLACK
6
CONTINUOUS
10
63.8589
20
-44.4579
11
64.0138
21
-44.3937
0
LINE
8
BLACK
6
CONTINUOUS
10
64.0138
20
-44.3937
11
64.1782
21
-44.361
0
LINE
8
BLACK
6
CONTINUOUS
10
64.1782
20
-44.361
11
64.3458
21
-44.361
0
LINE
8
BLACK
6
CONTINUOUS
10
64.3458
20
-44.361
11
64.5102
21
-44.3937
0
LINE
8
BLACK
6
CONTINUOUS
10
84.7902
20
-44.3937
11
84.9451
21
-44.4579
0
LINE
8
BLACK
6
CONTINUOUS
10
84.9451
20
-44.4579
11
85.0845
21
-44.551
0
LINE
8
BLACK
6
CONTINUOUS
10
85.0845
20
-44.551
11
85.203
21
-44.6695
0
LINE
8
BLACK
6
CONTINUOUS
10
85.203
20
-44.6695
11
85.2961
21
-44.8089
0
LINE
8
BLACK
6
CONTINUOUS
10
85.2961
20
-44.8089
11
85.3603
21
-44.9638
0
LINE
8
BLACK
6
CONTINUOUS
10
85.3603
20
-44.9638
11
85.393
21
-45.1282
0
LINE
8
BLACK
6
CONTINUOUS
10
85.393
20
-45.1282
11
85.393
21
-45.2958
0
LINE
8
BLACK
6
CONTINUOUS
10
85.393
20
-45.2958
11
85.3603
21
-45.4602
0
LINE
8
BLACK
6
CONTINUOUS
10
85.3603
20
-45.4602
11
85.2961
21
-45.6151
0
LINE
8
BLACK
6
CONTINUOUS
10
85.2961
20
-45.6151
11
85.203
21
-45.7545
0
LINE
8
BLACK
6
CONTINUOUS
10
85.203
20
-45.7545
11
85.0845
21
-45.873
0
LINE
8
BLACK
6
CONTINUOUS
10
85.0845
20
-45.873
11
84.9451
21
-45.9661
0
LINE
8
BLACK
6
CONTINUOUS
10
84.9451
20
-45.9661
11
84.7902
21
-46.0303
0
LINE
8
BLACK
6
CONTINUOUS
10
84.7902
20
-46.0303
11
84.6258
21
-46.063
0
LINE
8
BLACK
6
CONTINUOUS
10
84.6258
20
-46.063
11
84.4582
21
-46.063
0
LINE
8
BLACK
6
CONTINUOUS
10
84.4582
20
-46.063
11
84.2938
21
-46.0303
0
LINE
8
BLACK
6
CONTINUOUS
10
84.2938
20
-46.0303
11
84.1389
21
-45.9661
0
LINE
8
BLACK
6
CONTINUOUS
10
84.1389
20
-45.9661
11
83.9995
21
-45.873
0
LINE
8
BLACK
6
CONTINUOUS
10
83.9995
20
-45.873
11
83.881
21
-45.7545
0
LINE
8
BLACK
6
CONTINUOUS
10
83.881
20
-45.7545
11
83.7879
21
-45.6151
0
LINE
8
BLACK
6
CONTINUOUS
10
83.7879
20
-45.6151
11
83.7237
21
-45.4602
0
LINE
8
BLACK
6
CONTINUOUS
10
83.7237
20
-45.4602
11
83.691
21
-45.2958
0
LINE
8
BLACK
6
CONTINUOUS
10
83.691
20
-45.2958
11
83.691
21
-45.1282
0
LINE
8
BLACK
6
CONTINUOUS
10
83.691
20
-45.1282
11
83.7237
21
-44.9638
0
LINE
8
BLACK
6
CONTINUOUS
10
83.7237
20
-44.9638
11
83.7879
21
-44.8089
0
LINE
8
BLACK
6
CONTINUOUS
10
83.7879
20
-44.8089
11
83.881
21
-44.6695
0
LINE
8
BLACK
6
CONTINUOUS
10
83.881
20
-44.6695
11
83.9995
21
-44.551
0
LINE
8
BLACK
6
CONTINUOUS
10
83.9995
20
-44.551
11
84.1389
21
-44.4579
0
LINE
8
BLACK
6
CONTINUOUS
10
84.1389
20
-44.4579
11
84.2938
21
-44.3937
0
LINE
8
BLACK
6
CONTINUOUS
10
84.2938
20
-44.3937
11
84.4582
21
-44.361
0
LINE
8
BLACK
6
CONTINUOUS
10
84.4582
20
-44.361
11
84.6258
21
-44.361
0
LINE
8
BLACK
6
CONTINUOUS
10
84.6258
20
-44.361
11
84.7902
21
-44.3937
0
LINE
8
BLACK
6
CONTINUOUS
10
82.2902
20
-44.3937
11
82.4451
21
-44.4579
0
LINE
8
BLACK
6
CONTINUOUS
10
82.4451
20
-44.4579
11
82.5845
21
-44.551
0
LINE
8
BLACK
6
CONTINUOUS
10
82.5845
20
-44.551
11
82.703
21
-44.6695
0
LINE
8
BLACK
6
CONTINUOUS
10
82.703
20
-44.6695
11
82.7961
21
-44.8089
0
LINE
8
BLACK
6
CONTINUOUS
10
82.7961
20
-44.8089
11
82.8603
21
-44.9638
0
LINE
8
BLACK
6
CONTINUOUS
10
82.8603
20
-44.9638
11
82.893
21
-45.1282
0
LINE
8
BLACK
6
CONTINUOUS
10
82.893
20
-45.1282
11
82.893
21
-45.2958
0
LINE
8
BLACK
6
CONTINUOUS
10
82.893
20
-45.2958
11
82.8603
21
-45.4602
0
LINE
8
BLACK
6
CONTINUOUS
10
82.8603
20
-45.4602
11
82.7961
21
-45.6151
0
LINE
8
BLACK
6
CONTINUOUS
10
82.7961
20
-45.6151
11
82.703
21
-45.7545
0
LINE
8
BLACK
6
CONTINUOUS
10
82.703
20
-45.7545
11
82.5845
21
-45.873
0
LINE
8
BLACK
6
CONTINUOUS
10
82.5845
20
-45.873
11
82.4451
21
-45.9661
0
LINE
8
BLACK
6
CONTINUOUS
10
82.4451
20
-45.9661
11
82.2902
21
-46.0303
0
LINE
8
BLACK
6
CONTINUOUS
10
82.2902
20
-46.0303
11
82.1258
21
-46.063
0
LINE
8
BLACK
6
CONTINUOUS
10
82.1258
20
-46.063
11
81.9582
21
-46.063
0
LINE
8
BLACK
6
CONTINUOUS
10
81.9582
20
-46.063
11
81.7938
21
-46.0303
0
LINE
8
BLACK
6
CONTINUOUS
10
81.7938
20
-46.0303
11
81.6389
21
-45.9661
0
LINE
8
BLACK
6
CONTINUOUS
10
81.6389
20
-45.9661
11
81.4995
21
-45.873
0
LINE
8
BLACK
6
CONTINUOUS
10
81.4995
20
-45.873
11
81.381
21
-45.7545
0
LINE
8
BLACK
6
CONTINUOUS
10
81.381
20
-45.7545
11
81.2879
21
-45.6151
0
LINE
8
BLACK
6
CONTINUOUS
10
81.2879
20
-45.6151
11
81.2237
21
-45.4602
0
LINE
8
BLACK
6
CONTINUOUS
10
81.2237
20
-45.4602
11
81.191
21
-45.2958
0
LINE
8
BLACK
6
CONTINUOUS
10
81.191
20
-45.2958
11
81.191
21
-45.1282
0
LINE
8
BLACK
6
CONTINUOUS
10
81.191
20
-45.1282
11
81.2237
21
-44.9638
0
LINE
8
BLACK
6
CONTINUOUS
10
81.2237
20
-44.9638
11
81.2879
21
-44.8089
0
LINE
8
BLACK
6
CONTINUOUS
10
81.2879
20
-44.8089
11
81.381
21
-44.6695
0
LINE
8
BLACK
6
CONTINUOUS
10
81.381
20
-44.6695
11
81.4995
21
-44.551
0
LINE
8
BLACK
6
CONTINUOUS
10
81.4995
20
-44.551
11
81.6389
21
-44.4579
0
LINE
8
BLACK
6
CONTINUOUS
10
81.6389
20
-44.4579
11
81.7938
21
-44.3937
0
LINE
8
BLACK
6
CONTINUOUS
10
81.7938
20
-44.3937
11
81.9582
21
-44.361
0
LINE
8
BLACK
6
CONTINUOUS
10
81.9582
20
-44.361
11
82.1258
21
-44.361
0
LINE
8
BLACK
6
CONTINUOUS
10
82.1258
20
-44.361
11
82.2902
21
-44.3937
0
LINE
8
BLACK
6
CONTINUOUS
10
78.7342
20
-44.3937
11
78.8891
21
-44.4579
0
LINE
8
BLACK
6
CONTINUOUS
10
78.8891
20
-44.4579
11
79.0285
21
-44.551
0
LINE
8
BLACK
6
CONTINUOUS
10
79.0285
20
-44.551
11
79.147
21
-44.6695
0
LINE
8
BLACK
6
CONTINUOUS
10
79.147
20
-44.6695
11
79.2401
21
-44.8089
0
LINE
8
BLACK
6
CONTINUOUS
10
79.2401
20
-44.8089
11
79.3043
21
-44.9638
0
LINE
8
BLACK
6
CONTINUOUS
10
79.3043
20
-44.9638
11
79.337
21
-45.1282
0
LINE
8
BLACK
6
CONTINUOUS
10
79.337
20
-45.1282
11
79.337
21
-45.2958
0
LINE
8
BLACK
6
CONTINUOUS
10
79.337
20
-45.2958
11
79.3043
21
-45.4602
0
LINE
8
BLACK
6
CONTINUOUS
10
79.3043
20
-45.4602
11
79.2401
21
-45.6151
0
LINE
8
BLACK
6
CONTINUOUS
10
79.2401
20
-45.6151
11
79.147
21
-45.7545
0
LINE
8
BLACK
6
CONTINUOUS
10
79.147
20
-45.7545
11
79.0285
21
-45.873
0
LINE
8
BLACK
6
CONTINUOUS
10
79.0285
20
-45.873
11
78.8891
21
-45.9661
0
LINE
8
BLACK
6
CONTINUOUS
10
78.8891
20
-45.9661
11
78.7342
21
-46.0303
0
LINE
8
BLACK
6
CONTINUOUS
10
78.7342
20
-46.0303
11
78.5698
21
-46.063
0
LINE
8
BLACK
6
CONTINUOUS
10
78.5698
20
-46.063
11
78.4022
21
-46.063
0
LINE
8
BLACK
6
CONTINUOUS
10
78.4022
20
-46.063
11
78.2378
21
-46.0303
0
LINE
8
BLACK
6
CONTINUOUS
10
78.2378
20
-46.0303
11
78.0829
21
-45.9661
0
LINE
8
BLACK
6
CONTINUOUS
10
78.0829
20
-45.9661
11
77.9435
21
-45.873
0
LINE
8
BLACK
6
CONTINUOUS
10
77.9435
20
-45.873
11
77.825
21
-45.7545
0
LINE
8
BLACK
6
CONTINUOUS
10
77.825
20
-45.7545
11
77.7319
21
-45.6151
0
LINE
8
BLACK
6
CONTINUOUS
10
77.7319
20
-45.6151
11
77.6677
21
-45.4602
0
LINE
8
BLACK
6
CONTINUOUS
10
77.6677
20
-45.4602
11
77.635
21
-45.2958
0
LINE
8
BLACK
6
CONTINUOUS
10
77.635
20
-45.2958
11
77.635
21
-45.1282
0
LINE
8
BLACK
6
CONTINUOUS
10
77.635
20
-45.1282
11
77.6677
21
-44.9638
0
LINE
8
BLACK
6
CONTINUOUS
10
77.6677
20
-44.9638
11
77.7319
21
-44.8089
0
LINE
8
BLACK
6
CONTINUOUS
10
77.7319
20
-44.8089
11
77.825
21
-44.6695
0
LINE
8
BLACK
6
CONTINUOUS
10
77.825
20
-44.6695
11
77.9435
21
-44.551
0
LINE
8
BLACK
6
CONTINUOUS
10
77.9435
20
-44.551
11
78.0829
21
-44.4579
0
LINE
8
BLACK
6
CONTINUOUS
10
78.0829
20
-44.4579
11
78.2378
21
-44.3937
0
LINE
8
BLACK
6
CONTINUOUS
10
78.2378
20
-44.3937
11
78.4022
21
-44.361
0
LINE
8
BLACK
6
CONTINUOUS
10
78.4022
20
-44.361
11
78.5698
21
-44.361
0
LINE
8
BLACK
6
CONTINUOUS
10
78.5698
20
-44.361
11
78.7342
21
-44.3937
0
LINE
8
BLACK
6
CONTINUOUS
10
76.2342
20
-44.3937
11
76.3891
21
-44.4579
0
LINE
8
BLACK
6
CONTINUOUS
10
76.3891
20
-44.4579
11
76.5285
21
-44.551
0
LINE
8
BLACK
6
CONTINUOUS
10
76.5285
20
-44.551
11
76.647
21
-44.6695
0
LINE
8
BLACK
6
CONTINUOUS
10
76.647
20
-44.6695
11
76.7401
21
-44.8089
0
LINE
8
BLACK
6
CONTINUOUS
10
76.7401
20
-44.8089
11
76.8043
21
-44.9638
0
LINE
8
BLACK
6
CONTINUOUS
10
76.8043
20
-44.9638
11
76.837
21
-45.1282
0
LINE
8
BLACK
6
CONTINUOUS
10
76.837
20
-45.1282
11
76.837
21
-45.2958
0
LINE
8
BLACK
6
CONTINUOUS
10
76.837
20
-45.2958
11
76.8043
21
-45.4602
0
LINE
8
BLACK
6
CONTINUOUS
10
76.8043
20
-45.4602
11
76.7401
21
-45.6151
0
LINE
8
BLACK
6
CONTINUOUS
10
76.7401
20
-45.6151
11
76.647
21
-45.7545
0
LINE
8
BLACK
6
CONTINUOUS
10
76.647
20
-45.7545
11
76.5285
21
-45.873
0
LINE
8
BLACK
6
CONTINUOUS
10
76.5285
20
-45.873
11
76.3891
21
-45.9661
0
LINE
8
BLACK
6
CONTINUOUS
10
76.3891
20
-45.9661
11
76.2342
21
-46.0303
0
LINE
8
BLACK
6
CONTINUOUS
10
76.2342
20
-46.0303
11
76.0698
21
-46.063
0
LINE
8
BLACK
6
CONTINUOUS
10
76.0698
20
-46.063
11
75.9022
21
-46.063
0
LINE
8
BLACK
6
CONTINUOUS
10
75.9022
20
-46.063
11
75.7378
21
-46.0303
0
LINE
8
BLACK
6
CONTINUOUS
10
75.7378
20
-46.0303
11
75.5829
21
-45.9661
0
LINE
8
BLACK
6
CONTINUOUS
10
75.5829
20
-45.9661
11
75.4435
21
-45.873
0
LINE
8
BLACK
6
CONTINUOUS
10
75.4435
20
-45.873
11
75.325
21
-45.7545
0
LINE
8
BLACK
6
CONTINUOUS
10
75.325
20
-45.7545
11
75.2319
21
-45.6151
0
LINE
8
BLACK
6
CONTINUOUS
10
75.2319
20
-45.6151
11
75.1677
21
-45.4602
0
LINE
8
BLACK
6
CONTINUOUS
10
75.1677
20
-45.4602
11
75.135
21
-45.2958
0
LINE
8
BLACK
6
CONTINUOUS
10
75.135
20
-45.2958
11
75.135
21
-45.1282
0
LINE
8
BLACK
6
CONTINUOUS
10
75.135
20
-45.1282
11
75.1677
21
-44.9638
0
LINE
8
BLACK
6
CONTINUOUS
10
75.1677
20
-44.9638
11
75.2319
21
-44.8089
0
LINE
8
BLACK
6
CONTINUOUS
10
75.2319
20
-44.8089
11
75.325
21
-44.6695
0
LINE
8
BLACK
6
CONTINUOUS
10
75.325
20
-44.6695
11
75.4435
21
-44.551
0
LINE
8
BLACK
6
CONTINUOUS
10
75.4435
20
-44.551
11
75.5829
21
-44.4579
0
LINE
8
BLACK
6
CONTINUOUS
10
75.5829
20
-44.4579
11
75.7378
21
-44.3937
0
LINE
8
BLACK
6
CONTINUOUS
10
75.7378
20
-44.3937
11
75.9022
21
-44.361
0
LINE
8
BLACK
6
CONTINUOUS
10
75.9022
20
-44.361
11
76.0698
21
-44.361
0
LINE
8
BLACK
6
CONTINUOUS
10
76.0698
20
-44.361
11
76.2342
21
-44.3937
0
LINE
8
BLACK
6
CONTINUOUS
10
72.8922
20
-44.3937
11
73.0471
21
-44.4579
0
LINE
8
BLACK
6
CONTINUOUS
10
73.0471
20
-44.4579
11
73.1865
21
-44.551
0
LINE
8
BLACK
6
CONTINUOUS
10
73.1865
20
-44.551
11
73.305
21
-44.6695
0
LINE
8
BLACK
6
CONTINUOUS
10
73.305
20
-44.6695
11
73.3981
21
-44.8089
0
LINE
8
BLACK
6
CONTINUOUS
10
73.3981
20
-44.8089
11
73.4623
21
-44.9638
0
LINE
8
BLACK
6
CONTINUOUS
10
73.4623
20
-44.9638
11
73.495
21
-45.1282
0
LINE
8
BLACK
6
CONTINUOUS
10
73.495
20
-45.1282
11
73.495
21
-45.2958
0
LINE
8
BLACK
6
CONTINUOUS
10
73.495
20
-45.2958
11
73.4623
21
-45.4602
0
LINE
8
BLACK
6
CONTINUOUS
10
73.4623
20
-45.4602
11
73.3981
21
-45.6151
0
LINE
8
BLACK
6
CONTINUOUS
10
73.3981
20
-45.6151
11
73.305
21
-45.7545
0
LINE
8
BLACK
6
CONTINUOUS
10
73.305
20
-45.7545
11
73.1865
21
-45.873
0
LINE
8
BLACK
6
CONTINUOUS
10
73.1865
20
-45.873
11
73.0471
21
-45.9661
0
LINE
8
BLACK
6
CONTINUOUS
10
73.0471
20
-45.9661
11
72.8922
21
-46.0303
0
LINE
8
BLACK
6
CONTINUOUS
10
72.8922
20
-46.0303
11
72.7278
21
-46.063
0
LINE
8
BLACK
6
CONTINUOUS
10
72.7278
20
-46.063
11
72.5602
21
-46.063
0
LINE
8
BLACK
6
CONTINUOUS
10
72.5602
20
-46.063
11
72.3958
21
-46.0303
0
LINE
8
BLACK
6
CONTINUOUS
10
72.3958
20
-46.0303
11
72.2409
21
-45.9661
0
LINE
8
BLACK
6
CONTINUOUS
10
72.2409
20
-45.9661
11
72.1015
21
-45.873
0
LINE
8
BLACK
6
CONTINUOUS
10
72.1015
20
-45.873
11
71.983
21
-45.7545
0
LINE
8
BLACK
6
CONTINUOUS
10
71.983
20
-45.7545
11
71.8899
21
-45.6151
0
LINE
8
BLACK
6
CONTINUOUS
10
71.8899
20
-45.6151
11
71.8257
21
-45.4602
0
LINE
8
BLACK
6
CONTINUOUS
10
71.8257
20
-45.4602
11
71.793
21
-45.2958
0
LINE
8
BLACK
6
CONTINUOUS
10
71.793
20
-45.2958
11
71.793
21
-45.1282
0
LINE
8
BLACK
6
CONTINUOUS
10
71.793
20
-45.1282
11
71.8257
21
-44.9638
0
LINE
8
BLACK
6
CONTINUOUS
10
71.8257
20
-44.9638
11
71.8899
21
-44.8089
0
LINE
8
BLACK
6
CONTINUOUS
10
71.8899
20
-44.8089
11
71.983
21
-44.6695
0
LINE
8
BLACK
6
CONTINUOUS
10
71.983
20
-44.6695
11
72.1015
21
-44.551
0
LINE
8
BLACK
6
CONTINUOUS
10
72.1015
20
-44.551
11
72.2409
21
-44.4579
0
LINE
8
BLACK
6
CONTINUOUS
10
72.2409
20
-44.4579
11
72.3958
21
-44.3937
0
LINE
8
BLACK
6
CONTINUOUS
10
72.3958
20
-44.3937
11
72.5602
21
-44.361
0
LINE
8
BLACK
6
CONTINUOUS
10
72.5602
20
-44.361
11
72.7278
21
-44.361
0
LINE
8
BLACK
6
CONTINUOUS
10
72.7278
20
-44.361
11
72.8922
21
-44.3937
0
LINE
8
BLACK
6
CONTINUOUS
10
70.3922
20
-44.3937
11
70.5471
21
-44.4579
0
LINE
8
BLACK
6
CONTINUOUS
10
70.5471
20
-44.4579
11
70.6865
21
-44.551
0
LINE
8
BLACK
6
CONTINUOUS
10
70.6865
20
-44.551
11
70.805
21
-44.6695
0
LINE
8
BLACK
6
CONTINUOUS
10
70.805
20
-44.6695
11
70.8981
21
-44.8089
0
LINE
8
BLACK
6
CONTINUOUS
10
70.8981
20
-44.8089
11
70.9623
21
-44.9638
0
LINE
8
BLACK
6
CONTINUOUS
10
70.9623
20
-44.9638
11
70.995
21
-45.1282
0
LINE
8
BLACK
6
CONTINUOUS
10
70.995
20
-45.1282
11
70.995
21
-45.2958
0
LINE
8
BLACK
6
CONTINUOUS
10
70.995
20
-45.2958
11
70.9623
21
-45.4602
0
LINE
8
BLACK
6
CONTINUOUS
10
70.9623
20
-45.4602
11
70.8981
21
-45.6151
0
LINE
8
BLACK
6
CONTINUOUS
10
70.8981
20
-45.6151
11
70.805
21
-45.7545
0
LINE
8
BLACK
6
CONTINUOUS
10
70.805
20
-45.7545
11
70.6865
21
-45.873
0
LINE
8
BLACK
6
CONTINUOUS
10
70.6865
20
-45.873
11
70.5471
21
-45.9661
0
LINE
8
BLACK
6
CONTINUOUS
10
70.5471
20
-45.9661
11
70.3922
21
-46.0303
0
LINE
8
BLACK
6
CONTINUOUS
10
70.3922
20
-46.0303
11
70.2278
21
-46.063
0
LINE
8
BLACK
6
CONTINUOUS
10
70.2278
20
-46.063
11
70.0602
21
-46.063
0
LINE
8
BLACK
6
CONTINUOUS
10
70.0602
20
-46.063
11
69.8958
21
-46.0303
0
LINE
8
BLACK
6
CONTINUOUS
10
69.8958
20
-46.0303
11
69.7409
21
-45.9661
0
LINE
8
BLACK
6
CONTINUOUS
10
69.7409
20
-45.9661
11
69.6015
21
-45.873
0
LINE
8
BLACK
6
CONTINUOUS
10
69.6015
20
-45.873
11
69.483
21
-45.7545
0
LINE
8
BLACK
6
CONTINUOUS
10
69.483
20
-45.7545
11
69.3899
21
-45.6151
0
LINE
8
BLACK
6
CONTINUOUS
10
69.3899
20
-45.6151
11
69.3257
21
-45.4602
0
LINE
8
BLACK
6
CONTINUOUS
10
69.3257
20
-45.4602
11
69.293
21
-45.2958
0
LINE
8
BLACK
6
CONTINUOUS
10
69.293
20
-45.2958
11
69.293
21
-45.1282
0
LINE
8
BLACK
6
CONTINUOUS
10
69.293
20
-45.1282
11
69.3257
21
-44.9638
0
LINE
8
BLACK
6
CONTINUOUS
10
69.3257
20
-44.9638
11
69.3899
21
-44.8089
0
LINE
8
BLACK
6
CONTINUOUS
10
69.3899
20
-44.8089
11
69.483
21
-44.6695
0
LINE
8
BLACK
6
CONTINUOUS
10
69.483
20
-44.6695
11
69.6015
21
-44.551
0
LINE
8
BLACK
6
CONTINUOUS
10
69.6015
20
-44.551
11
69.7409
21
-44.4579
0
LINE
8
BLACK
6
CONTINUOUS
10
69.7409
20
-44.4579
11
69.8958
21
-44.3937
0
LINE
8
BLACK
6
CONTINUOUS
10
69.8958
20
-44.3937
11
70.0602
21
-44.361
0
LINE
8
BLACK
6
CONTINUOUS
10
70.0602
20
-44.361
11
70.2278
21
-44.361
0
LINE
8
BLACK
6
CONTINUOUS
10
70.2278
20
-44.361
11
70.3922
21
-44.3937
0
LINE
8
BLACK
6
CONTINUOUS
10
67.0102
20
-44.3937
11
67.1651
21
-44.4579
0
LINE
8
BLACK
6
CONTINUOUS
10
67.1651
20
-44.4579
11
67.3045
21
-44.551
0
LINE
8
BLACK
6
CONTINUOUS
10
67.3045
20
-44.551
11
67.423
21
-44.6695
0
LINE
8
BLACK
6
CONTINUOUS
10
67.423
20
-44.6695
11
67.5161
21
-44.8089
0
LINE
8
BLACK
6
CONTINUOUS
10
67.5161
20
-44.8089
11
67.5803
21
-44.9638
0
LINE
8
BLACK
6
CONTINUOUS
10
67.5803
20
-44.9638
11
67.613
21
-45.1282
0
LINE
8
BLACK
6
CONTINUOUS
10
67.613
20
-45.1282
11
67.613
21
-45.2958
0
LINE
8
BLACK
6
CONTINUOUS
10
67.613
20
-45.2958
11
67.5803
21
-45.4602
0
LINE
8
BLACK
6
CONTINUOUS
10
67.5803
20
-45.4602
11
67.5161
21
-45.6151
0
LINE
8
BLACK
6
CONTINUOUS
10
67.5161
20
-45.6151
11
67.423
21
-45.7545
0
LINE
8
BLACK
6
CONTINUOUS
10
67.423
20
-45.7545
11
67.3045
21
-45.873
0
LINE
8
BLACK
6
CONTINUOUS
10
67.3045
20
-45.873
11
67.1651
21
-45.9661
0
LINE
8
BLACK
6
CONTINUOUS
10
67.1651
20
-45.9661
11
67.0102
21
-46.0303
0
LINE
8
BLACK
6
CONTINUOUS
10
67.0102
20
-46.0303
11
66.8458
21
-46.063
0
LINE
8
BLACK
6
CONTINUOUS
10
66.8458
20
-46.063
11
66.6782
21
-46.063
0
LINE
8
BLACK
6
CONTINUOUS
10
66.6782
20
-46.063
11
66.5138
21
-46.0303
0
LINE
8
BLACK
6
CONTINUOUS
10
66.5138
20
-46.0303
11
66.3589
21
-45.9661
0
LINE
8
BLACK
6
CONTINUOUS
10
66.3589
20
-45.9661
11
66.2195
21
-45.873
0
LINE
8
BLACK
6
CONTINUOUS
10
66.2195
20
-45.873
11
66.101
21
-45.7545
0
LINE
8
BLACK
6
CONTINUOUS
10
66.101
20
-45.7545
11
66.0079
21
-45.6151
0
LINE
8
BLACK
6
CONTINUOUS
10
66.0079
20
-45.6151
11
65.9437
21
-45.4602
0
LINE
8
BLACK
6
CONTINUOUS
10
65.9437
20
-45.4602
11
65.911
21
-45.2958
0
LINE
8
BLACK
6
CONTINUOUS
10
65.911
20
-45.2958
11
65.911
21
-45.1282
0
LINE
8
BLACK
6
CONTINUOUS
10
65.911
20
-45.1282
11
65.9437
21
-44.9638
0
LINE
8
BLACK
6
CONTINUOUS
10
65.9437
20
-44.9638
11
66.0079
21
-44.8089
0
LINE
8
BLACK
6
CONTINUOUS
10
66.0079
20
-44.8089
11
66.101
21
-44.6695
0
LINE
8
BLACK
6
CONTINUOUS
10
66.101
20
-44.6695
11
66.2195
21
-44.551
0
LINE
8
BLACK
6
CONTINUOUS
10
66.2195
20
-44.551
11
66.3589
21
-44.4579
0
LINE
8
BLACK
6
CONTINUOUS
10
66.3589
20
-44.4579
11
66.5138
21
-44.3937
0
LINE
8
BLACK
6
CONTINUOUS
10
66.5138
20
-44.3937
11
66.6782
21
-44.361
0
LINE
8
BLACK
6
CONTINUOUS
10
66.6782
20
-44.361
11
66.8458
21
-44.361
0
LINE
8
BLACK
6
CONTINUOUS
10
66.8458
20
-44.361
11
67.0102
21
-44.3937
  0
ENDSEC
  0
EOF
