G04 #@! TF.GenerationSoftware,KiCad,Pcbnew,(5.1.2)-2*
G04 #@! TF.CreationDate,2020-01-26T16:04:11+07:00*
G04 #@! TF.ProjectId,driver_motor,64726976-6572-45f6-9d6f-746f722e6b69,rev?*
G04 #@! TF.SameCoordinates,Original*
G04 #@! TF.FileFunction,Copper,L1,Top*
G04 #@! TF.FilePolarity,Positive*
%FSLAX46Y46*%
G04 Gerber Fmt 4.6, Leading zero omitted, Abs format (unit mm)*
G04 Created by KiCad (PCBNEW (5.1.2)-2) date 2020-01-26 16:04:11*
%MOMM*%
%LPD*%
G04 APERTURE LIST*
%ADD10C,1.600000*%
%ADD11R,2.000000X1.600000*%
%ADD12R,2.000000X1.400000*%
%ADD13R,1.600000X1.400000*%
%ADD14R,1.800000X1.800000*%
%ADD15C,1.800000*%
%ADD16R,3.000000X3.000000*%
%ADD17C,3.000000*%
%ADD18R,1.700000X1.700000*%
%ADD19O,1.700000X1.700000*%
%ADD20R,1.400000X2.000000*%
%ADD21C,2.400000*%
%ADD22O,2.400000X2.400000*%
%ADD23R,1.905000X2.000000*%
%ADD24O,1.905000X2.000000*%
G04 APERTURE END LIST*
D10*
X64262000Y-45212000D03*
X66762000Y-45212000D03*
X38862000Y-78780000D03*
X38862000Y-81280000D03*
D11*
X43898000Y-57912000D03*
X43898000Y-60452000D03*
X43898000Y-62992000D03*
X43898000Y-65532000D03*
X43898000Y-68072000D03*
X43898000Y-70612000D03*
X43898000Y-73152000D03*
X43898000Y-75692000D03*
X43898000Y-78232000D03*
X43898000Y-80772000D03*
D12*
X60198000Y-83312000D03*
X60198000Y-80772000D03*
X60198000Y-78232000D03*
X60198000Y-75692000D03*
X60198000Y-73152000D03*
X60198000Y-70612000D03*
X60198000Y-68072000D03*
X60198000Y-65532000D03*
X60198000Y-62992000D03*
X60198000Y-60452000D03*
X60198000Y-57912000D03*
X60198000Y-55372000D03*
D10*
X66762000Y-49022000D03*
D13*
X64262000Y-49022000D03*
D10*
X82042000Y-45212000D03*
X84542000Y-45212000D03*
X72644000Y-45212000D03*
X70144000Y-45212000D03*
X78486000Y-45212000D03*
X75986000Y-45212000D03*
D11*
X78232000Y-83566000D03*
X78232000Y-81026000D03*
X78232000Y-78486000D03*
X78232000Y-75946000D03*
X78232000Y-73406000D03*
X78232000Y-70866000D03*
X78232000Y-68326000D03*
X78232000Y-65786000D03*
X78232000Y-63246000D03*
X78232000Y-60706000D03*
X78232000Y-58166000D03*
X78232000Y-55626000D03*
X94532000Y-58166000D03*
X94532000Y-60706000D03*
X94532000Y-63246000D03*
X94532000Y-65786000D03*
X94532000Y-68326000D03*
X94532000Y-70866000D03*
X94532000Y-73406000D03*
X94532000Y-75946000D03*
X94532000Y-78486000D03*
X94532000Y-81026000D03*
D10*
X64556000Y-53086000D03*
X67056000Y-53086000D03*
D14*
X93980000Y-48514000D03*
D15*
X91440000Y-48514000D03*
D16*
X39624000Y-46990000D03*
D17*
X44704000Y-46990000D03*
D18*
X38100000Y-73660000D03*
D19*
X38100000Y-71120000D03*
X38100000Y-68580000D03*
X38100000Y-66040000D03*
X38100000Y-63500000D03*
X38100000Y-60960000D03*
X38100000Y-58420000D03*
D18*
X102870000Y-70358000D03*
D19*
X102870000Y-72898000D03*
X102870000Y-75438000D03*
X102870000Y-77978000D03*
X102870000Y-80518000D03*
D20*
X52832000Y-90678000D03*
X55372000Y-90678000D03*
X57912000Y-90678000D03*
X60452000Y-90678000D03*
X62992000Y-90678000D03*
X65532000Y-90678000D03*
X84582000Y-90932000D03*
X82042000Y-90932000D03*
X79502000Y-90932000D03*
X76962000Y-90932000D03*
X74422000Y-90932000D03*
X71882000Y-90932000D03*
D21*
X86868000Y-50546000D03*
D22*
X71628000Y-50546000D03*
D23*
X53594000Y-47498000D03*
D24*
X56134000Y-47498000D03*
X58674000Y-47498000D03*
D12*
X73152000Y-79502000D03*
X65532000Y-61722000D03*
X73152000Y-76962000D03*
X65532000Y-64262000D03*
X73152000Y-74422000D03*
X65532000Y-66802000D03*
X73152000Y-71882000D03*
X65532000Y-69342000D03*
X73152000Y-69342000D03*
X65532000Y-71882000D03*
X73152000Y-66802000D03*
X65532000Y-74422000D03*
X73152000Y-64262000D03*
X65532000Y-76962000D03*
X73152000Y-61722000D03*
X65532000Y-79502000D03*
M02*
