  0
SECTION
  2
HEADER
  9
$ANGBASE
  50
0.0
  9
$ANGDIR
  70
  1
  9
$MEASUREMENT
  70
0
  0
ENDSEC
  0
SECTION
  2
TABLES
  0
TABLE
  2
LTYPE
  70
4
  0
LTYPE
  5
40F
  2
CONTINUOUS
  70
0
  3
Solid line
  72
65
  73
0
  40
0.0
  0
LTYPE
  5
410
  2
DASHDOT
 70
0
  3
Dash Dot ____ _ ____ _
 72
65
 73
4
 40
2.0
 49
1.25
 49
-0.25
 49
0.25
 49
-0.25
  0
LTYPE
  5
411
  2
DASHED
 70
0
  3
Dashed __ __ __ __ __
 72
65
 73
2
 40
0.75
 49
0.5
 49
-0.25
  0
LTYPE
  5
43B
  2
DOTTED
 70
0
  3
Dotted .  .  .  .
 72
65
 73
2
 40
0.2
 49
0.0
 49
-0.2
  0
ENDTAB
  0
TABLE
  2
STYLE
  70
4
  0
STYLE
  2
KICAD
  70
0
  40
0
  41
1
  42
1
  50
0
  71
0
  3
isocp.shx
  0
STYLE
  2
KICADB
  70
0
  40
0
  41
1
  42
1
  50
0
  71
0
  3
isocp.shx
  0
STYLE
  2
KICADI
  70
0
  40
0
  41
1
  42
1
  50
15
  71
0
  3
isocp.shx
  0
STYLE
  2
KICADBI
  70
0
  40
0
  41
1
  42
1
  50
15
  71
0
  3
isocp.shx
  0
ENDTAB
  0
TABLE
  2
LAYER
  70
30
  0
LAYER
  2
BLACK
  70
0
  62
7
  6
CONTINUOUS
  0
LAYER
  2
GRAY1
  70
0
  62
251
  6
CONTINUOUS
  0
LAYER
  2
GRAY2
  70
0
  62
8
  6
CONTINUOUS
  0
LAYER
  2
GRAY3
  70
0
  62
9
  6
CONTINUOUS
  0
LAYER
  2
WHITE
  70
0
  62
7
  6
CONTINUOUS
  0
LAYER
  2
LYELLOW
  70
0
  62
51
  6
CONTINUOUS
  0
LAYER
  2
BLUE1
  70
0
  62
178
  6
CONTINUOUS
  0
LAYER
  2
GREEN1
  70
0
  62
98
  6
CONTINUOUS
  0
LAYER
  2
CYAN1
  70
0
  62
138
  6
CONTINUOUS
  0
LAYER
  2
RED1
  70
0
  62
18
  6
CONTINUOUS
  0
LAYER
  2
MAGENTA1
  70
0
  62
228
  6
CONTINUOUS
  0
LAYER
  2
BROWN1
  70
0
  62
58
  6
CONTINUOUS
  0
LAYER
  2
BLUE2
  70
0
  62
5
  6
CONTINUOUS
  0
LAYER
  2
GREEN2
  70
0
  62
3
  6
CONTINUOUS
  0
LAYER
  2
CYAN2
  70
0
  62
4
  6
CONTINUOUS
  0
LAYER
  2
RED2
  70
0
  62
1
  6
CONTINUOUS
  0
LAYER
  2
MAGENTA2
  70
0
  62
6
  6
CONTINUOUS
  0
LAYER
  2
BROWN2
  70
0
  62
54
  6
CONTINUOUS
  0
LAYER
  2
BLUE3
  70
0
  62
171
  6
CONTINUOUS
  0
LAYER
  2
GREEN3
  70
0
  62
91
  6
CONTINUOUS
  0
LAYER
  2
CYAN3
  70
0
  62
131
  6
CONTINUOUS
  0
LAYER
  2
RED3
  70
0
  62
11
  6
CONTINUOUS
  0
LAYER
  2
MAGENTA3
  70
0
  62
221
  6
CONTINUOUS
  0
LAYER
  2
YELLOW3
  70
0
  62
2
  6
CONTINUOUS
  0
LAYER
  2
BLUE4
  70
0
  62
5
  6
CONTINUOUS
  0
LAYER
  2
GREEN4
  70
0
  62
3
  6
CONTINUOUS
  0
LAYER
  2
CYAN4
  70
0
  62
4
  6
CONTINUOUS
  0
LAYER
  2
RED4
  70
0
  62
1
  6
CONTINUOUS
  0
LAYER
  2
MAGENTA4
  70
0
  62
6
  6
CONTINUOUS
  0
LAYER
  2
YELLOW4
  70
0
  62
2
  6
CONTINUOUS
  0
ENDTAB
  0
ENDSEC
  0
SECTION
  2
ENTITIES
0
LINE
8
BLACK
6
CONTINUOUS
10
109.475
20
-37.821
11
109.479
21
-37.8214
0
LINE
8
BLACK
6
CONTINUOUS
10
109.479
20
-37.8214
11
109.484
21
-37.8228
0
LINE
8
BLACK
6
CONTINUOUS
10
109.484
20
-37.8228
11
109.488
21
-37.8251
0
LINE
8
BLACK
6
CONTINUOUS
10
109.488
20
-37.8251
11
109.492
21
-37.8282
0
LINE
8
BLACK
6
CONTINUOUS
10
109.492
20
-37.8282
11
109.495
21
-37.832
0
LINE
8
BLACK
6
CONTINUOUS
10
109.495
20
-37.832
11
109.497
21
-37.8364
0
LINE
8
BLACK
6
CONTINUOUS
10
109.497
20
-37.8364
11
109.499
21
-37.8411
0
LINE
8
BLACK
6
CONTINUOUS
10
109.499
20
-37.8411
11
109.499
21
-37.846
0
LINE
8
BLACK
6
CONTINUOUS
10
109.499
20
-37.846
11
109.499
21
-37.8472
0
LINE
8
BLACK
6
CONTINUOUS
10
109.499
20
-37.8472
11
109.499
21
-99.8208
0
LINE
8
BLACK
6
CONTINUOUS
10
109.499
20
-99.8208
11
109.499
21
-99.822
0
LINE
8
BLACK
6
CONTINUOUS
10
109.499
20
-99.822
11
109.499
21
-99.8269
0
LINE
8
BLACK
6
CONTINUOUS
10
109.499
20
-99.8269
11
109.497
21
-99.8316
0
LINE
8
BLACK
6
CONTINUOUS
10
109.497
20
-99.8316
11
109.495
21
-99.836
0
LINE
8
BLACK
6
CONTINUOUS
10
109.495
20
-99.836
11
109.492
21
-99.8398
0
LINE
8
BLACK
6
CONTINUOUS
10
109.492
20
-99.8398
11
109.488
21
-99.8429
0
LINE
8
BLACK
6
CONTINUOUS
10
109.488
20
-99.8429
11
109.484
21
-99.8452
0
LINE
8
BLACK
6
CONTINUOUS
10
109.484
20
-99.8452
11
109.479
21
-99.8466
0
LINE
8
BLACK
6
CONTINUOUS
10
109.479
20
-99.8466
11
109.475
21
-99.847
0
LINE
8
BLACK
6
CONTINUOUS
10
109.475
20
-99.847
11
109.475
21
-99.847
0
LINE
8
BLACK
6
CONTINUOUS
10
109.475
20
-99.847
11
109.474
21
-99.8471
0
LINE
8
BLACK
6
CONTINUOUS
10
109.474
20
-99.8471
11
109.473
21
-99.847
0
LINE
8
BLACK
6
CONTINUOUS
10
109.473
20
-99.847
11
34.0372
21
-99.847
0
LINE
8
BLACK
6
CONTINUOUS
10
34.0372
20
-99.847
11
34.0359
21
-99.8471
0
LINE
8
BLACK
6
CONTINUOUS
10
34.0359
20
-99.8471
11
34.0337
21
-99.8469
0
LINE
8
BLACK
6
CONTINUOUS
10
34.0337
20
-99.8469
11
34.0311
21
-99.8466
0
LINE
8
BLACK
6
CONTINUOUS
10
34.0311
20
-99.8466
11
34.031
21
-99.8466
0
LINE
8
BLACK
6
CONTINUOUS
10
34.031
20
-99.8466
11
34.031
21
-99.8466
0
LINE
8
BLACK
6
CONTINUOUS
10
34.031
20
-99.8466
11
34.0288
21
-99.8459
0
LINE
8
BLACK
6
CONTINUOUS
10
34.0288
20
-99.8459
11
34.0264
21
-99.8452
0
LINE
8
BLACK
6
CONTINUOUS
10
34.0264
20
-99.8452
11
34.0263
21
-99.8452
0
LINE
8
BLACK
6
CONTINUOUS
10
34.0263
20
-99.8452
11
34.0263
21
-99.8452
0
LINE
8
BLACK
6
CONTINUOUS
10
34.0263
20
-99.8452
11
34.0243
21
-99.8441
0
LINE
8
BLACK
6
CONTINUOUS
10
34.0243
20
-99.8441
11
34.022
21
-99.8429
0
LINE
8
BLACK
6
CONTINUOUS
10
34.022
20
-99.8429
11
34.022
21
-99.8429
0
LINE
8
BLACK
6
CONTINUOUS
10
34.022
20
-99.8429
11
34.022
21
-99.8428
0
LINE
8
BLACK
6
CONTINUOUS
10
34.022
20
-99.8428
11
34.0203
21
-99.8414
0
LINE
8
BLACK
6
CONTINUOUS
10
34.0203
20
-99.8414
11
34.0182
21
-99.8398
0
LINE
8
BLACK
6
CONTINUOUS
10
34.0182
20
-99.8398
11
34.0182
21
-99.8397
0
LINE
8
BLACK
6
CONTINUOUS
10
34.0182
20
-99.8397
11
34.0182
21
-99.8397
0
LINE
8
BLACK
6
CONTINUOUS
10
34.0182
20
-99.8397
11
34.0168
21
-99.838
0
LINE
8
BLACK
6
CONTINUOUS
10
34.0168
20
-99.838
11
34.0151
21
-99.836
0
LINE
8
BLACK
6
CONTINUOUS
10
34.0151
20
-99.836
11
34.0151
21
-99.8359
0
LINE
8
BLACK
6
CONTINUOUS
10
34.0151
20
-99.8359
11
34.0151
21
-99.8359
0
LINE
8
BLACK
6
CONTINUOUS
10
34.0151
20
-99.8359
11
34.014
21
-99.8339
0
LINE
8
BLACK
6
CONTINUOUS
10
34.014
20
-99.8339
11
34.0128
21
-99.8316
0
LINE
8
BLACK
6
CONTINUOUS
10
34.0128
20
-99.8316
11
34.0128
21
-99.8316
0
LINE
8
BLACK
6
CONTINUOUS
10
34.0128
20
-99.8316
11
34.0128
21
-99.8315
0
LINE
8
BLACK
6
CONTINUOUS
10
34.0128
20
-99.8315
11
34.0121
21
-99.8294
0
LINE
8
BLACK
6
CONTINUOUS
10
34.0121
20
-99.8294
11
34.0114
21
-99.8269
0
LINE
8
BLACK
6
CONTINUOUS
10
34.0114
20
-99.8269
11
34.0114
21
-99.8268
0
LINE
8
BLACK
6
CONTINUOUS
10
34.0114
20
-99.8268
11
34.0113
21
-99.8268
0
LINE
8
BLACK
6
CONTINUOUS
10
34.0113
20
-99.8268
11
34.0111
21
-99.8246
0
LINE
8
BLACK
6
CONTINUOUS
10
34.0111
20
-99.8246
11
34.0109
21
-99.822
0
LINE
8
BLACK
6
CONTINUOUS
10
34.0109
20
-99.822
11
34.011
21
-99.8207
0
LINE
8
BLACK
6
CONTINUOUS
10
34.011
20
-99.8207
11
34.265
21
-38.0997
0
LINE
8
BLACK
6
CONTINUOUS
10
34.265
20
-38.0997
11
34.265
21
-37.8472
0
LINE
8
BLACK
6
CONTINUOUS
10
34.265
20
-37.8472
11
34.2649
21
-37.846
0
LINE
8
BLACK
6
CONTINUOUS
10
34.2649
20
-37.846
11
34.2654
21
-37.8411
0
LINE
8
BLACK
6
CONTINUOUS
10
34.2654
20
-37.8411
11
34.2668
21
-37.8364
0
LINE
8
BLACK
6
CONTINUOUS
10
34.2668
20
-37.8364
11
34.2691
21
-37.832
0
LINE
8
BLACK
6
CONTINUOUS
10
34.2691
20
-37.832
11
34.2722
21
-37.8282
0
LINE
8
BLACK
6
CONTINUOUS
10
34.2722
20
-37.8282
11
34.276
21
-37.8251
0
LINE
8
BLACK
6
CONTINUOUS
10
34.276
20
-37.8251
11
34.2804
21
-37.8228
0
LINE
8
BLACK
6
CONTINUOUS
10
34.2804
20
-37.8228
11
34.2851
21
-37.8214
0
LINE
8
BLACK
6
CONTINUOUS
10
34.2851
20
-37.8214
11
34.2888
21
-37.821
0
LINE
8
BLACK
6
CONTINUOUS
10
34.2888
20
-37.821
11
34.29
21
-37.8209
0
LINE
8
BLACK
6
CONTINUOUS
10
34.29
20
-37.8209
11
34.2912
21
-37.821
0
LINE
8
BLACK
6
CONTINUOUS
10
34.2912
20
-37.821
11
109.473
21
-37.821
0
LINE
8
BLACK
6
CONTINUOUS
10
109.473
20
-37.821
11
109.474
21
-37.8209
0
LINE
8
BLACK
6
CONTINUOUS
10
109.474
20
-37.8209
11
109.475
21
-37.821
0
LINE
8
BLACK
6
CONTINUOUS
10
34.315
20
-37.871
11
34.315
21
-38.0988
0
LINE
8
BLACK
6
CONTINUOUS
10
34.315
20
-38.0988
11
34.315
21
-38.0989
0
LINE
8
BLACK
6
CONTINUOUS
10
34.315
20
-38.0989
11
34.315
21
-38.0999
0
LINE
8
BLACK
6
CONTINUOUS
10
34.315
20
-38.0999
11
34.315
21
-38.1012
0
LINE
8
BLACK
6
CONTINUOUS
10
34.315
20
-38.1012
11
34.315
21
-38.1013
0
LINE
8
BLACK
6
CONTINUOUS
10
34.315
20
-38.1013
11
34.0611
21
-99.797
0
LINE
8
BLACK
6
CONTINUOUS
10
34.0611
20
-99.797
11
109.449
21
-99.797
0
LINE
8
BLACK
6
CONTINUOUS
10
109.449
20
-99.797
11
109.449
21
-37.871
0
LINE
8
BLACK
6
CONTINUOUS
10
109.449
20
-37.871
11
34.315
21
-37.871
  0
ENDSEC
  0
EOF
