G04 #@! TF.GenerationSoftware,KiCad,Pcbnew,(5.1.2)-2*
G04 #@! TF.CreationDate,2020-01-26T16:04:12+07:00*
G04 #@! TF.ProjectId,driver_motor,64726976-6572-45f6-9d6f-746f722e6b69,rev?*
G04 #@! TF.SameCoordinates,Original*
G04 #@! TF.FileFunction,Legend,Top*
G04 #@! TF.FilePolarity,Positive*
%FSLAX46Y46*%
G04 Gerber Fmt 4.6, Leading zero omitted, Abs format (unit mm)*
G04 Created by KiCad (PCBNEW (5.1.2)-2) date 2020-01-26 16:04:12*
%MOMM*%
%LPD*%
G04 APERTURE LIST*
%ADD10C,0.150000*%
%ADD11C,0.500000*%
%ADD12C,0.120000*%
G04 APERTURE END LIST*
D10*
X40600380Y-75390190D02*
X40600380Y-74771142D01*
X40981333Y-75104476D01*
X40981333Y-74961619D01*
X41028952Y-74866380D01*
X41076571Y-74818761D01*
X41171809Y-74771142D01*
X41409904Y-74771142D01*
X41505142Y-74818761D01*
X41552761Y-74866380D01*
X41600380Y-74961619D01*
X41600380Y-75247333D01*
X41552761Y-75342571D01*
X41505142Y-75390190D01*
X41505142Y-74342571D02*
X41552761Y-74294952D01*
X41600380Y-74342571D01*
X41552761Y-74390190D01*
X41505142Y-74342571D01*
X41600380Y-74342571D01*
X40600380Y-73961619D02*
X40600380Y-73342571D01*
X40981333Y-73675904D01*
X40981333Y-73533047D01*
X41028952Y-73437809D01*
X41076571Y-73390190D01*
X41171809Y-73342571D01*
X41409904Y-73342571D01*
X41505142Y-73390190D01*
X41552761Y-73437809D01*
X41600380Y-73533047D01*
X41600380Y-73818761D01*
X41552761Y-73914000D01*
X41505142Y-73961619D01*
X40600380Y-73056857D02*
X41600380Y-72723523D01*
X40600380Y-72390190D01*
X105513238Y-72826571D02*
X105656095Y-72874190D01*
X105703714Y-72921809D01*
X105751333Y-73017047D01*
X105751333Y-73159904D01*
X105703714Y-73255142D01*
X105656095Y-73302761D01*
X105560857Y-73350380D01*
X105179904Y-73350380D01*
X105179904Y-72350380D01*
X105513238Y-72350380D01*
X105608476Y-72398000D01*
X105656095Y-72445619D01*
X105703714Y-72540857D01*
X105703714Y-72636095D01*
X105656095Y-72731333D01*
X105608476Y-72778952D01*
X105513238Y-72826571D01*
X105179904Y-72826571D01*
X106608476Y-72683714D02*
X106608476Y-73350380D01*
X106370380Y-72302761D02*
X106132285Y-73017047D01*
X106751333Y-73017047D01*
X105513238Y-75620571D02*
X105656095Y-75668190D01*
X105703714Y-75715809D01*
X105751333Y-75811047D01*
X105751333Y-75953904D01*
X105703714Y-76049142D01*
X105656095Y-76096761D01*
X105560857Y-76144380D01*
X105179904Y-76144380D01*
X105179904Y-75144380D01*
X105513238Y-75144380D01*
X105608476Y-75192000D01*
X105656095Y-75239619D01*
X105703714Y-75334857D01*
X105703714Y-75430095D01*
X105656095Y-75525333D01*
X105608476Y-75572952D01*
X105513238Y-75620571D01*
X105179904Y-75620571D01*
X106084666Y-75144380D02*
X106703714Y-75144380D01*
X106370380Y-75525333D01*
X106513238Y-75525333D01*
X106608476Y-75572952D01*
X106656095Y-75620571D01*
X106703714Y-75715809D01*
X106703714Y-75953904D01*
X106656095Y-76049142D01*
X106608476Y-76096761D01*
X106513238Y-76144380D01*
X106227523Y-76144380D01*
X106132285Y-76096761D01*
X106084666Y-76049142D01*
X105513238Y-78160571D02*
X105656095Y-78208190D01*
X105703714Y-78255809D01*
X105751333Y-78351047D01*
X105751333Y-78493904D01*
X105703714Y-78589142D01*
X105656095Y-78636761D01*
X105560857Y-78684380D01*
X105179904Y-78684380D01*
X105179904Y-77684380D01*
X105513238Y-77684380D01*
X105608476Y-77732000D01*
X105656095Y-77779619D01*
X105703714Y-77874857D01*
X105703714Y-77970095D01*
X105656095Y-78065333D01*
X105608476Y-78112952D01*
X105513238Y-78160571D01*
X105179904Y-78160571D01*
X106132285Y-77779619D02*
X106179904Y-77732000D01*
X106275142Y-77684380D01*
X106513238Y-77684380D01*
X106608476Y-77732000D01*
X106656095Y-77779619D01*
X106703714Y-77874857D01*
X106703714Y-77970095D01*
X106656095Y-78112952D01*
X106084666Y-78684380D01*
X106703714Y-78684380D01*
X105513238Y-80700571D02*
X105656095Y-80748190D01*
X105703714Y-80795809D01*
X105751333Y-80891047D01*
X105751333Y-81033904D01*
X105703714Y-81129142D01*
X105656095Y-81176761D01*
X105560857Y-81224380D01*
X105179904Y-81224380D01*
X105179904Y-80224380D01*
X105513238Y-80224380D01*
X105608476Y-80272000D01*
X105656095Y-80319619D01*
X105703714Y-80414857D01*
X105703714Y-80510095D01*
X105656095Y-80605333D01*
X105608476Y-80652952D01*
X105513238Y-80700571D01*
X105179904Y-80700571D01*
X106703714Y-81224380D02*
X106132285Y-81224380D01*
X106418000Y-81224380D02*
X106418000Y-80224380D01*
X106322761Y-80367238D01*
X106227523Y-80462476D01*
X106132285Y-80510095D01*
X104441809Y-69810380D02*
X105060857Y-69810380D01*
X104727523Y-70191333D01*
X104870380Y-70191333D01*
X104965619Y-70238952D01*
X105013238Y-70286571D01*
X105060857Y-70381809D01*
X105060857Y-70619904D01*
X105013238Y-70715142D01*
X104965619Y-70762761D01*
X104870380Y-70810380D01*
X104584666Y-70810380D01*
X104489428Y-70762761D01*
X104441809Y-70715142D01*
X105489428Y-70715142D02*
X105537047Y-70762761D01*
X105489428Y-70810380D01*
X105441809Y-70762761D01*
X105489428Y-70715142D01*
X105489428Y-70810380D01*
X105870380Y-69810380D02*
X106489428Y-69810380D01*
X106156095Y-70191333D01*
X106298952Y-70191333D01*
X106394190Y-70238952D01*
X106441809Y-70286571D01*
X106489428Y-70381809D01*
X106489428Y-70619904D01*
X106441809Y-70715142D01*
X106394190Y-70762761D01*
X106298952Y-70810380D01*
X106013238Y-70810380D01*
X105918000Y-70762761D01*
X105870380Y-70715142D01*
X106775142Y-69810380D02*
X107108476Y-70810380D01*
X107441809Y-69810380D01*
X74874380Y-88875904D02*
X73874380Y-88875904D01*
X74588666Y-88542571D01*
X73874380Y-88209238D01*
X74874380Y-88209238D01*
X74874380Y-87590190D02*
X74826761Y-87685428D01*
X74779142Y-87733047D01*
X74683904Y-87780666D01*
X74398190Y-87780666D01*
X74302952Y-87733047D01*
X74255333Y-87685428D01*
X74207714Y-87590190D01*
X74207714Y-87447333D01*
X74255333Y-87352095D01*
X74302952Y-87304476D01*
X74398190Y-87256857D01*
X74683904Y-87256857D01*
X74779142Y-87304476D01*
X74826761Y-87352095D01*
X74874380Y-87447333D01*
X74874380Y-87590190D01*
X74207714Y-86971142D02*
X74207714Y-86590190D01*
X73874380Y-86828285D02*
X74731523Y-86828285D01*
X74826761Y-86780666D01*
X74874380Y-86685428D01*
X74874380Y-86590190D01*
X74874380Y-86114000D02*
X74826761Y-86209238D01*
X74779142Y-86256857D01*
X74683904Y-86304476D01*
X74398190Y-86304476D01*
X74302952Y-86256857D01*
X74255333Y-86209238D01*
X74207714Y-86114000D01*
X74207714Y-85971142D01*
X74255333Y-85875904D01*
X74302952Y-85828285D01*
X74398190Y-85780666D01*
X74683904Y-85780666D01*
X74779142Y-85828285D01*
X74826761Y-85875904D01*
X74874380Y-85971142D01*
X74874380Y-86114000D01*
X74874380Y-85352095D02*
X74207714Y-85352095D01*
X74398190Y-85352095D02*
X74302952Y-85304476D01*
X74255333Y-85256857D01*
X74207714Y-85161619D01*
X74207714Y-85066380D01*
X74588666Y-84780666D02*
X74588666Y-84304476D01*
X74874380Y-84875904D02*
X73874380Y-84542571D01*
X74874380Y-84209238D01*
X72334380Y-88947333D02*
X71334380Y-88947333D01*
X72048666Y-88614000D01*
X71334380Y-88280666D01*
X72334380Y-88280666D01*
X72334380Y-87661619D02*
X72286761Y-87756857D01*
X72239142Y-87804476D01*
X72143904Y-87852095D01*
X71858190Y-87852095D01*
X71762952Y-87804476D01*
X71715333Y-87756857D01*
X71667714Y-87661619D01*
X71667714Y-87518761D01*
X71715333Y-87423523D01*
X71762952Y-87375904D01*
X71858190Y-87328285D01*
X72143904Y-87328285D01*
X72239142Y-87375904D01*
X72286761Y-87423523D01*
X72334380Y-87518761D01*
X72334380Y-87661619D01*
X71667714Y-87042571D02*
X71667714Y-86661619D01*
X71334380Y-86899714D02*
X72191523Y-86899714D01*
X72286761Y-86852095D01*
X72334380Y-86756857D01*
X72334380Y-86661619D01*
X72334380Y-86185428D02*
X72286761Y-86280666D01*
X72239142Y-86328285D01*
X72143904Y-86375904D01*
X71858190Y-86375904D01*
X71762952Y-86328285D01*
X71715333Y-86280666D01*
X71667714Y-86185428D01*
X71667714Y-86042571D01*
X71715333Y-85947333D01*
X71762952Y-85899714D01*
X71858190Y-85852095D01*
X72143904Y-85852095D01*
X72239142Y-85899714D01*
X72286761Y-85947333D01*
X72334380Y-86042571D01*
X72334380Y-86185428D01*
X72334380Y-85423523D02*
X71667714Y-85423523D01*
X71858190Y-85423523D02*
X71762952Y-85375904D01*
X71715333Y-85328285D01*
X71667714Y-85233047D01*
X71667714Y-85137809D01*
X71810571Y-84471142D02*
X71858190Y-84328285D01*
X71905809Y-84280666D01*
X72001047Y-84233047D01*
X72143904Y-84233047D01*
X72239142Y-84280666D01*
X72286761Y-84328285D01*
X72334380Y-84423523D01*
X72334380Y-84804476D01*
X71334380Y-84804476D01*
X71334380Y-84471142D01*
X71382000Y-84375904D01*
X71429619Y-84328285D01*
X71524857Y-84280666D01*
X71620095Y-84280666D01*
X71715333Y-84328285D01*
X71762952Y-84375904D01*
X71810571Y-84471142D01*
X71810571Y-84804476D01*
D11*
X102282761Y-64054095D02*
X102282761Y-62911238D01*
X104282761Y-63482666D02*
X102282761Y-63482666D01*
X104282761Y-61387428D02*
X103235142Y-61387428D01*
X103044666Y-61482666D01*
X102949428Y-61673142D01*
X102949428Y-62054095D01*
X103044666Y-62244571D01*
X104187523Y-61387428D02*
X104282761Y-61577904D01*
X104282761Y-62054095D01*
X104187523Y-62244571D01*
X103997047Y-62339809D01*
X103806571Y-62339809D01*
X103616095Y-62244571D01*
X103520857Y-62054095D01*
X103520857Y-61577904D01*
X103425619Y-61387428D01*
X104282761Y-59577904D02*
X102282761Y-59577904D01*
X104187523Y-59577904D02*
X104282761Y-59768380D01*
X104282761Y-60149333D01*
X104187523Y-60339809D01*
X104092285Y-60435047D01*
X103901809Y-60530285D01*
X103330380Y-60530285D01*
X103139904Y-60435047D01*
X103044666Y-60339809D01*
X102949428Y-60149333D01*
X102949428Y-59768380D01*
X103044666Y-59577904D01*
X104282761Y-57768380D02*
X103235142Y-57768380D01*
X103044666Y-57863619D01*
X102949428Y-58054095D01*
X102949428Y-58435047D01*
X103044666Y-58625523D01*
X104187523Y-57768380D02*
X104282761Y-57958857D01*
X104282761Y-58435047D01*
X104187523Y-58625523D01*
X103997047Y-58720761D01*
X103806571Y-58720761D01*
X103616095Y-58625523D01*
X103520857Y-58435047D01*
X103520857Y-57958857D01*
X103425619Y-57768380D01*
X104187523Y-56911238D02*
X104282761Y-56720761D01*
X104282761Y-56339809D01*
X104187523Y-56149333D01*
X103997047Y-56054095D01*
X103901809Y-56054095D01*
X103711333Y-56149333D01*
X103616095Y-56339809D01*
X103616095Y-56625523D01*
X103520857Y-56816000D01*
X103330380Y-56911238D01*
X103235142Y-56911238D01*
X103044666Y-56816000D01*
X102949428Y-56625523D01*
X102949428Y-56339809D01*
X103044666Y-56149333D01*
X104282761Y-55196952D02*
X102282761Y-55196952D01*
X104282761Y-54339809D02*
X103235142Y-54339809D01*
X103044666Y-54435047D01*
X102949428Y-54625523D01*
X102949428Y-54911238D01*
X103044666Y-55101714D01*
X103139904Y-55196952D01*
X104282761Y-53387428D02*
X102949428Y-53387428D01*
X102282761Y-53387428D02*
X102378000Y-53482666D01*
X102473238Y-53387428D01*
X102378000Y-53292190D01*
X102282761Y-53387428D01*
X102473238Y-53387428D01*
X104282761Y-50911238D02*
X102282761Y-50911238D01*
X103235142Y-50911238D02*
X103235142Y-49768380D01*
X104282761Y-49768380D02*
X102282761Y-49768380D01*
X104282761Y-47958857D02*
X103235142Y-47958857D01*
X103044666Y-48054095D01*
X102949428Y-48244571D01*
X102949428Y-48625523D01*
X103044666Y-48816000D01*
X104187523Y-47958857D02*
X104282761Y-48149333D01*
X104282761Y-48625523D01*
X104187523Y-48816000D01*
X103997047Y-48911238D01*
X103806571Y-48911238D01*
X103616095Y-48816000D01*
X103520857Y-48625523D01*
X103520857Y-48149333D01*
X103425619Y-47958857D01*
X104282761Y-47006476D02*
X102949428Y-47006476D01*
X103139904Y-47006476D02*
X103044666Y-46911238D01*
X102949428Y-46720761D01*
X102949428Y-46435047D01*
X103044666Y-46244571D01*
X103235142Y-46149333D01*
X104282761Y-46149333D01*
X103235142Y-46149333D02*
X103044666Y-46054095D01*
X102949428Y-45863619D01*
X102949428Y-45577904D01*
X103044666Y-45387428D01*
X103235142Y-45292190D01*
X104282761Y-45292190D01*
X104282761Y-43482666D02*
X103235142Y-43482666D01*
X103044666Y-43577904D01*
X102949428Y-43768380D01*
X102949428Y-44149333D01*
X103044666Y-44339809D01*
X104187523Y-43482666D02*
X104282761Y-43673142D01*
X104282761Y-44149333D01*
X104187523Y-44339809D01*
X103997047Y-44435047D01*
X103806571Y-44435047D01*
X103616095Y-44339809D01*
X103520857Y-44149333D01*
X103520857Y-43673142D01*
X103425619Y-43482666D01*
X104282761Y-41673142D02*
X102282761Y-41673142D01*
X104187523Y-41673142D02*
X104282761Y-41863619D01*
X104282761Y-42244571D01*
X104187523Y-42435047D01*
X104092285Y-42530285D01*
X103901809Y-42625523D01*
X103330380Y-42625523D01*
X103139904Y-42530285D01*
X103044666Y-42435047D01*
X102949428Y-42244571D01*
X102949428Y-41863619D01*
X103044666Y-41673142D01*
X104282761Y-39863619D02*
X103235142Y-39863619D01*
X103044666Y-39958857D01*
X102949428Y-40149333D01*
X102949428Y-40530285D01*
X103044666Y-40720761D01*
X104187523Y-39863619D02*
X104282761Y-40054095D01*
X104282761Y-40530285D01*
X104187523Y-40720761D01*
X103997047Y-40816000D01*
X103806571Y-40816000D01*
X103616095Y-40720761D01*
X103520857Y-40530285D01*
X103520857Y-40054095D01*
X103425619Y-39863619D01*
X99456761Y-63594095D02*
X97456761Y-63594095D01*
X97456761Y-63117904D01*
X97552000Y-62832190D01*
X97742476Y-62641714D01*
X97932952Y-62546476D01*
X98313904Y-62451238D01*
X98599619Y-62451238D01*
X98980571Y-62546476D01*
X99171047Y-62641714D01*
X99361523Y-62832190D01*
X99456761Y-63117904D01*
X99456761Y-63594095D01*
X99361523Y-60832190D02*
X99456761Y-61022666D01*
X99456761Y-61403619D01*
X99361523Y-61594095D01*
X99171047Y-61689333D01*
X98409142Y-61689333D01*
X98218666Y-61594095D01*
X98123428Y-61403619D01*
X98123428Y-61022666D01*
X98218666Y-60832190D01*
X98409142Y-60736952D01*
X98599619Y-60736952D01*
X98790095Y-61689333D01*
X99361523Y-59975047D02*
X99456761Y-59784571D01*
X99456761Y-59403619D01*
X99361523Y-59213142D01*
X99171047Y-59117904D01*
X99075809Y-59117904D01*
X98885333Y-59213142D01*
X98790095Y-59403619D01*
X98790095Y-59689333D01*
X98694857Y-59879809D01*
X98504380Y-59975047D01*
X98409142Y-59975047D01*
X98218666Y-59879809D01*
X98123428Y-59689333D01*
X98123428Y-59403619D01*
X98218666Y-59213142D01*
X99456761Y-58260761D02*
X98123428Y-58260761D01*
X97456761Y-58260761D02*
X97552000Y-58356000D01*
X97647238Y-58260761D01*
X97552000Y-58165523D01*
X97456761Y-58260761D01*
X97647238Y-58260761D01*
X98123428Y-56451238D02*
X99742476Y-56451238D01*
X99932952Y-56546476D01*
X100028190Y-56641714D01*
X100123428Y-56832190D01*
X100123428Y-57117904D01*
X100028190Y-57308380D01*
X99361523Y-56451238D02*
X99456761Y-56641714D01*
X99456761Y-57022666D01*
X99361523Y-57213142D01*
X99266285Y-57308380D01*
X99075809Y-57403619D01*
X98504380Y-57403619D01*
X98313904Y-57308380D01*
X98218666Y-57213142D01*
X98123428Y-57022666D01*
X98123428Y-56641714D01*
X98218666Y-56451238D01*
X98123428Y-55498857D02*
X99456761Y-55498857D01*
X98313904Y-55498857D02*
X98218666Y-55403619D01*
X98123428Y-55213142D01*
X98123428Y-54927428D01*
X98218666Y-54736952D01*
X98409142Y-54641714D01*
X99456761Y-54641714D01*
X99361523Y-52927428D02*
X99456761Y-53117904D01*
X99456761Y-53498857D01*
X99361523Y-53689333D01*
X99171047Y-53784571D01*
X98409142Y-53784571D01*
X98218666Y-53689333D01*
X98123428Y-53498857D01*
X98123428Y-53117904D01*
X98218666Y-52927428D01*
X98409142Y-52832190D01*
X98599619Y-52832190D01*
X98790095Y-53784571D01*
X99456761Y-51117904D02*
X97456761Y-51117904D01*
X99361523Y-51117904D02*
X99456761Y-51308380D01*
X99456761Y-51689333D01*
X99361523Y-51879809D01*
X99266285Y-51975047D01*
X99075809Y-52070285D01*
X98504380Y-52070285D01*
X98313904Y-51975047D01*
X98218666Y-51879809D01*
X98123428Y-51689333D01*
X98123428Y-51308380D01*
X98218666Y-51117904D01*
X98409142Y-47975047D02*
X98504380Y-47689333D01*
X98599619Y-47594095D01*
X98790095Y-47498857D01*
X99075809Y-47498857D01*
X99266285Y-47594095D01*
X99361523Y-47689333D01*
X99456761Y-47879809D01*
X99456761Y-48641714D01*
X97456761Y-48641714D01*
X97456761Y-47975047D01*
X97552000Y-47784571D01*
X97647238Y-47689333D01*
X97837714Y-47594095D01*
X98028190Y-47594095D01*
X98218666Y-47689333D01*
X98313904Y-47784571D01*
X98409142Y-47975047D01*
X98409142Y-48641714D01*
X98123428Y-46832190D02*
X99456761Y-46356000D01*
X98123428Y-45879809D02*
X99456761Y-46356000D01*
X99932952Y-46546476D01*
X100028190Y-46641714D01*
X100123428Y-46832190D01*
X99266285Y-45117904D02*
X99361523Y-45022666D01*
X99456761Y-45117904D01*
X99361523Y-45213142D01*
X99266285Y-45117904D01*
X99456761Y-45117904D01*
X98218666Y-45117904D02*
X98313904Y-45022666D01*
X98409142Y-45117904D01*
X98313904Y-45213142D01*
X98218666Y-45117904D01*
X98409142Y-45117904D01*
X36624571Y-97424761D02*
X36624571Y-95424761D01*
X37291238Y-96853333D01*
X37957904Y-95424761D01*
X37957904Y-97424761D01*
X39196000Y-97424761D02*
X39005523Y-97329523D01*
X38910285Y-97234285D01*
X38815047Y-97043809D01*
X38815047Y-96472380D01*
X38910285Y-96281904D01*
X39005523Y-96186666D01*
X39196000Y-96091428D01*
X39481714Y-96091428D01*
X39672190Y-96186666D01*
X39767428Y-96281904D01*
X39862666Y-96472380D01*
X39862666Y-97043809D01*
X39767428Y-97234285D01*
X39672190Y-97329523D01*
X39481714Y-97424761D01*
X39196000Y-97424761D01*
X40719809Y-96091428D02*
X40719809Y-97424761D01*
X40719809Y-96281904D02*
X40815047Y-96186666D01*
X41005523Y-96091428D01*
X41291238Y-96091428D01*
X41481714Y-96186666D01*
X41576952Y-96377142D01*
X41576952Y-97424761D01*
X42434095Y-97329523D02*
X42624571Y-97424761D01*
X43005523Y-97424761D01*
X43196000Y-97329523D01*
X43291238Y-97139047D01*
X43291238Y-97043809D01*
X43196000Y-96853333D01*
X43005523Y-96758095D01*
X42719809Y-96758095D01*
X42529333Y-96662857D01*
X42434095Y-96472380D01*
X42434095Y-96377142D01*
X42529333Y-96186666D01*
X42719809Y-96091428D01*
X43005523Y-96091428D01*
X43196000Y-96186666D01*
X43862666Y-96091428D02*
X44624571Y-96091428D01*
X44148380Y-95424761D02*
X44148380Y-97139047D01*
X44243619Y-97329523D01*
X44434095Y-97424761D01*
X44624571Y-97424761D01*
X46053142Y-97329523D02*
X45862666Y-97424761D01*
X45481714Y-97424761D01*
X45291238Y-97329523D01*
X45196000Y-97139047D01*
X45196000Y-96377142D01*
X45291238Y-96186666D01*
X45481714Y-96091428D01*
X45862666Y-96091428D01*
X46053142Y-96186666D01*
X46148380Y-96377142D01*
X46148380Y-96567619D01*
X45196000Y-96758095D01*
X47005523Y-97424761D02*
X47005523Y-96091428D01*
X47005523Y-96472380D02*
X47100761Y-96281904D01*
X47196000Y-96186666D01*
X47386476Y-96091428D01*
X47576952Y-96091428D01*
X48243619Y-97424761D02*
X48243619Y-95424761D01*
X48910285Y-95424761D02*
X50053142Y-95424761D01*
X49481714Y-97424761D02*
X49481714Y-95424761D01*
X51862666Y-97234285D02*
X51767428Y-97329523D01*
X51481714Y-97424761D01*
X51291238Y-97424761D01*
X51005523Y-97329523D01*
X50815047Y-97139047D01*
X50719809Y-96948571D01*
X50624571Y-96567619D01*
X50624571Y-96281904D01*
X50719809Y-95900952D01*
X50815047Y-95710476D01*
X51005523Y-95520000D01*
X51291238Y-95424761D01*
X51481714Y-95424761D01*
X51767428Y-95520000D01*
X51862666Y-95615238D01*
X99933428Y-94623142D02*
X100933428Y-97623142D01*
X101933428Y-94623142D01*
X104504857Y-97623142D02*
X102790571Y-97623142D01*
X103647714Y-97623142D02*
X103647714Y-94623142D01*
X103362000Y-95051714D01*
X103076285Y-95337428D01*
X102790571Y-95480285D01*
X38608095Y-41798857D02*
X40131904Y-41798857D01*
X43942095Y-41798857D02*
X45465904Y-41798857D01*
X44704000Y-42560761D02*
X44704000Y-41036952D01*
D12*
X62892000Y-43842000D02*
X68132000Y-43842000D01*
X62892000Y-46582000D02*
X68132000Y-46582000D01*
X62892000Y-43842000D02*
X62892000Y-46582000D01*
X68132000Y-43842000D02*
X68132000Y-46582000D01*
X37492000Y-77410000D02*
X40232000Y-77410000D01*
X37492000Y-82650000D02*
X40232000Y-82650000D01*
X40232000Y-82650000D02*
X40232000Y-77410000D01*
X37492000Y-82650000D02*
X37492000Y-77410000D01*
X62738000Y-53086000D02*
X42418000Y-53086000D01*
X62738000Y-53340000D02*
X62738000Y-53086000D01*
X62738000Y-85852000D02*
X62738000Y-53340000D01*
X42418000Y-85852000D02*
X62738000Y-85852000D01*
X42418000Y-53086000D02*
X42418000Y-85852000D01*
X68132000Y-47652000D02*
X68132000Y-50392000D01*
X62892000Y-47652000D02*
X62892000Y-50392000D01*
X62892000Y-50392000D02*
X68132000Y-50392000D01*
X62892000Y-47652000D02*
X68132000Y-47652000D01*
X80672000Y-43842000D02*
X85912000Y-43842000D01*
X80672000Y-46582000D02*
X85912000Y-46582000D01*
X80672000Y-43842000D02*
X80672000Y-46582000D01*
X85912000Y-43842000D02*
X85912000Y-46582000D01*
X74014000Y-46582000D02*
X68774000Y-46582000D01*
X74014000Y-43842000D02*
X68774000Y-43842000D01*
X74014000Y-46582000D02*
X74014000Y-43842000D01*
X68774000Y-46582000D02*
X68774000Y-43842000D01*
X79856000Y-46582000D02*
X74616000Y-46582000D01*
X79856000Y-43842000D02*
X74616000Y-43842000D01*
X79856000Y-46582000D02*
X79856000Y-43842000D01*
X74616000Y-46582000D02*
X74616000Y-43842000D01*
X96012000Y-85852000D02*
X96012000Y-53086000D01*
X96012000Y-53086000D02*
X75692000Y-53086000D01*
X75692000Y-53086000D02*
X75692000Y-85598000D01*
X75692000Y-85598000D02*
X75692000Y-85852000D01*
X75692000Y-85852000D02*
X96012000Y-85852000D01*
X63186000Y-54456000D02*
X63186000Y-51716000D01*
X68426000Y-54456000D02*
X68426000Y-51716000D01*
X68426000Y-51716000D02*
X63186000Y-51716000D01*
X68426000Y-54456000D02*
X63186000Y-54456000D01*
X89720000Y-48513538D02*
G75*
G03X95270000Y-50058830I2990000J-462D01*
G01*
X89720000Y-48514462D02*
G75*
G02X95270000Y-46969170I2990000J462D01*
G01*
X95210000Y-48514000D02*
G75*
G03X95210000Y-48514000I-2500000J0D01*
G01*
X95270000Y-50059000D02*
X95270000Y-46969000D01*
X47244000Y-49530000D02*
X37084000Y-49530000D01*
X47244000Y-50800000D02*
X47244000Y-43180000D01*
X47244000Y-43180000D02*
X37084000Y-43180000D01*
X37084000Y-43180000D02*
X37084000Y-50800000D01*
X37084000Y-50800000D02*
X47244000Y-50800000D01*
X39430000Y-57090000D02*
X36770000Y-57090000D01*
X39430000Y-72390000D02*
X39430000Y-57090000D01*
X36770000Y-72390000D02*
X36770000Y-57090000D01*
X39430000Y-72390000D02*
X36770000Y-72390000D01*
X39430000Y-73660000D02*
X39430000Y-74990000D01*
X39430000Y-74990000D02*
X38100000Y-74990000D01*
X101540000Y-81848000D02*
X104200000Y-81848000D01*
X101540000Y-71628000D02*
X101540000Y-81848000D01*
X104200000Y-71628000D02*
X104200000Y-81848000D01*
X101540000Y-71628000D02*
X104200000Y-71628000D01*
X101540000Y-70358000D02*
X101540000Y-69028000D01*
X101540000Y-69028000D02*
X102870000Y-69028000D01*
X66862000Y-92008000D02*
X66862000Y-89348000D01*
X54102000Y-92008000D02*
X66862000Y-92008000D01*
X54102000Y-89348000D02*
X66862000Y-89348000D01*
X54102000Y-92008000D02*
X54102000Y-89348000D01*
X52832000Y-92008000D02*
X51502000Y-92008000D01*
X51502000Y-92008000D02*
X51502000Y-90678000D01*
X70552000Y-92262000D02*
X70552000Y-90932000D01*
X71882000Y-92262000D02*
X70552000Y-92262000D01*
X73152000Y-92262000D02*
X73152000Y-89602000D01*
X73152000Y-89602000D02*
X85912000Y-89602000D01*
X73152000Y-92262000D02*
X85912000Y-92262000D01*
X85912000Y-92262000D02*
X85912000Y-89602000D01*
X84318000Y-52466000D02*
X84318000Y-48626000D01*
X84318000Y-48626000D02*
X74178000Y-48626000D01*
X74178000Y-48626000D02*
X74178000Y-52466000D01*
X74178000Y-52466000D02*
X84318000Y-52466000D01*
X85428000Y-50546000D02*
X84318000Y-50546000D01*
X73068000Y-50546000D02*
X74178000Y-50546000D01*
X51014000Y-44228000D02*
X61254000Y-44228000D01*
X51014000Y-48869000D02*
X61254000Y-48869000D01*
X51014000Y-44228000D02*
X51014000Y-48869000D01*
X61254000Y-44228000D02*
X61254000Y-48869000D01*
X51014000Y-45738000D02*
X61254000Y-45738000D01*
X54284000Y-44228000D02*
X54284000Y-45738000D01*
X57985000Y-44228000D02*
X57985000Y-45738000D01*
X68342000Y-80832000D02*
G75*
G02X70342000Y-80832000I1000000J0D01*
G01*
X70342000Y-80832000D02*
X71992000Y-80832000D01*
X71992000Y-80832000D02*
X71992000Y-60392000D01*
X71992000Y-60392000D02*
X66692000Y-60392000D01*
X66692000Y-60392000D02*
X66692000Y-80832000D01*
X66692000Y-80832000D02*
X68342000Y-80832000D01*
D10*
X63559619Y-42259619D02*
X63607238Y-42212000D01*
X63702476Y-42164380D01*
X63940571Y-42164380D01*
X64035809Y-42212000D01*
X64083428Y-42259619D01*
X64131047Y-42354857D01*
X64131047Y-42450095D01*
X64083428Y-42592952D01*
X63512000Y-43164380D01*
X64131047Y-43164380D01*
X64559619Y-43069142D02*
X64607238Y-43116761D01*
X64559619Y-43164380D01*
X64512000Y-43116761D01*
X64559619Y-43069142D01*
X64559619Y-43164380D01*
X64988190Y-42259619D02*
X65035809Y-42212000D01*
X65131047Y-42164380D01*
X65369142Y-42164380D01*
X65464380Y-42212000D01*
X65512000Y-42259619D01*
X65559619Y-42354857D01*
X65559619Y-42450095D01*
X65512000Y-42592952D01*
X64940571Y-43164380D01*
X65559619Y-43164380D01*
X65988190Y-42164380D02*
X65988190Y-42973904D01*
X66035809Y-43069142D01*
X66083428Y-43116761D01*
X66178666Y-43164380D01*
X66369142Y-43164380D01*
X66464380Y-43116761D01*
X66512000Y-43069142D01*
X66559619Y-42973904D01*
X66559619Y-42164380D01*
X67369142Y-42640571D02*
X67035809Y-42640571D01*
X67035809Y-43164380D02*
X67035809Y-42164380D01*
X67512000Y-42164380D01*
X35814380Y-81744285D02*
X35814380Y-81649047D01*
X35862000Y-81553809D01*
X35909619Y-81506190D01*
X36004857Y-81458571D01*
X36195333Y-81410952D01*
X36433428Y-81410952D01*
X36623904Y-81458571D01*
X36719142Y-81506190D01*
X36766761Y-81553809D01*
X36814380Y-81649047D01*
X36814380Y-81744285D01*
X36766761Y-81839523D01*
X36719142Y-81887142D01*
X36623904Y-81934761D01*
X36433428Y-81982380D01*
X36195333Y-81982380D01*
X36004857Y-81934761D01*
X35909619Y-81887142D01*
X35862000Y-81839523D01*
X35814380Y-81744285D01*
X36719142Y-80982380D02*
X36766761Y-80934761D01*
X36814380Y-80982380D01*
X36766761Y-81030000D01*
X36719142Y-80982380D01*
X36814380Y-80982380D01*
X36814380Y-79982380D02*
X36814380Y-80553809D01*
X36814380Y-80268095D02*
X35814380Y-80268095D01*
X35957238Y-80363333D01*
X36052476Y-80458571D01*
X36100095Y-80553809D01*
X35814380Y-79553809D02*
X36623904Y-79553809D01*
X36719142Y-79506190D01*
X36766761Y-79458571D01*
X36814380Y-79363333D01*
X36814380Y-79172857D01*
X36766761Y-79077619D01*
X36719142Y-79030000D01*
X36623904Y-78982380D01*
X35814380Y-78982380D01*
X36290571Y-78172857D02*
X36290571Y-78506190D01*
X36814380Y-78506190D02*
X35814380Y-78506190D01*
X35814380Y-78030000D01*
X47006476Y-87828380D02*
X46530285Y-87828380D01*
X46530285Y-86828380D01*
X47339809Y-87304571D02*
X47673142Y-87304571D01*
X47816000Y-87828380D02*
X47339809Y-87828380D01*
X47339809Y-86828380D01*
X47816000Y-86828380D01*
X48101714Y-86828380D02*
X48435047Y-87828380D01*
X48768380Y-86828380D01*
X49101714Y-87304571D02*
X49435047Y-87304571D01*
X49577904Y-87828380D02*
X49101714Y-87828380D01*
X49101714Y-86828380D01*
X49577904Y-86828380D01*
X50482666Y-87828380D02*
X50006476Y-87828380D01*
X50006476Y-86828380D01*
X51530285Y-87780761D02*
X51673142Y-87828380D01*
X51911238Y-87828380D01*
X52006476Y-87780761D01*
X52054095Y-87733142D01*
X52101714Y-87637904D01*
X52101714Y-87542666D01*
X52054095Y-87447428D01*
X52006476Y-87399809D01*
X51911238Y-87352190D01*
X51720761Y-87304571D01*
X51625523Y-87256952D01*
X51577904Y-87209333D01*
X51530285Y-87114095D01*
X51530285Y-87018857D01*
X51577904Y-86923619D01*
X51625523Y-86876000D01*
X51720761Y-86828380D01*
X51958857Y-86828380D01*
X52101714Y-86876000D01*
X52530285Y-87828380D02*
X52530285Y-86828380D01*
X52530285Y-87304571D02*
X53101714Y-87304571D01*
X53101714Y-87828380D02*
X53101714Y-86828380D01*
X53577904Y-87828380D02*
X53577904Y-86828380D01*
X54387428Y-87304571D02*
X54054095Y-87304571D01*
X54054095Y-87828380D02*
X54054095Y-86828380D01*
X54530285Y-86828380D01*
X54768380Y-86828380D02*
X55339809Y-86828380D01*
X55054095Y-87828380D02*
X55054095Y-86828380D01*
X55673142Y-87304571D02*
X56006476Y-87304571D01*
X56149333Y-87828380D02*
X55673142Y-87828380D01*
X55673142Y-86828380D01*
X56149333Y-86828380D01*
X57149333Y-87828380D02*
X56816000Y-87352190D01*
X56577904Y-87828380D02*
X56577904Y-86828380D01*
X56958857Y-86828380D01*
X57054095Y-86876000D01*
X57101714Y-86923619D01*
X57149333Y-87018857D01*
X57149333Y-87161714D01*
X57101714Y-87256952D01*
X57054095Y-87304571D01*
X56958857Y-87352190D01*
X56577904Y-87352190D01*
X64071714Y-50252380D02*
X64166952Y-50252380D01*
X64262190Y-50300000D01*
X64309809Y-50347619D01*
X64357428Y-50442857D01*
X64405047Y-50633333D01*
X64405047Y-50871428D01*
X64357428Y-51061904D01*
X64309809Y-51157142D01*
X64262190Y-51204761D01*
X64166952Y-51252380D01*
X64071714Y-51252380D01*
X63976476Y-51204761D01*
X63928857Y-51157142D01*
X63881238Y-51061904D01*
X63833619Y-50871428D01*
X63833619Y-50633333D01*
X63881238Y-50442857D01*
X63928857Y-50347619D01*
X63976476Y-50300000D01*
X64071714Y-50252380D01*
X64833619Y-51157142D02*
X64881238Y-51204761D01*
X64833619Y-51252380D01*
X64786000Y-51204761D01*
X64833619Y-51157142D01*
X64833619Y-51252380D01*
X65214571Y-50252380D02*
X65833619Y-50252380D01*
X65500285Y-50633333D01*
X65643142Y-50633333D01*
X65738380Y-50680952D01*
X65786000Y-50728571D01*
X65833619Y-50823809D01*
X65833619Y-51061904D01*
X65786000Y-51157142D01*
X65738380Y-51204761D01*
X65643142Y-51252380D01*
X65357428Y-51252380D01*
X65262190Y-51204761D01*
X65214571Y-51157142D01*
X66262190Y-50252380D02*
X66262190Y-51061904D01*
X66309809Y-51157142D01*
X66357428Y-51204761D01*
X66452666Y-51252380D01*
X66643142Y-51252380D01*
X66738380Y-51204761D01*
X66786000Y-51157142D01*
X66833619Y-51061904D01*
X66833619Y-50252380D01*
X67643142Y-50728571D02*
X67309809Y-50728571D01*
X67309809Y-51252380D02*
X67309809Y-50252380D01*
X67786000Y-50252380D01*
X81577714Y-42164380D02*
X81672952Y-42164380D01*
X81768190Y-42212000D01*
X81815809Y-42259619D01*
X81863428Y-42354857D01*
X81911047Y-42545333D01*
X81911047Y-42783428D01*
X81863428Y-42973904D01*
X81815809Y-43069142D01*
X81768190Y-43116761D01*
X81672952Y-43164380D01*
X81577714Y-43164380D01*
X81482476Y-43116761D01*
X81434857Y-43069142D01*
X81387238Y-42973904D01*
X81339619Y-42783428D01*
X81339619Y-42545333D01*
X81387238Y-42354857D01*
X81434857Y-42259619D01*
X81482476Y-42212000D01*
X81577714Y-42164380D01*
X82339619Y-43069142D02*
X82387238Y-43116761D01*
X82339619Y-43164380D01*
X82292000Y-43116761D01*
X82339619Y-43069142D01*
X82339619Y-43164380D01*
X83339619Y-43164380D02*
X82768190Y-43164380D01*
X83053904Y-43164380D02*
X83053904Y-42164380D01*
X82958666Y-42307238D01*
X82863428Y-42402476D01*
X82768190Y-42450095D01*
X83768190Y-42164380D02*
X83768190Y-42973904D01*
X83815809Y-43069142D01*
X83863428Y-43116761D01*
X83958666Y-43164380D01*
X84149142Y-43164380D01*
X84244380Y-43116761D01*
X84292000Y-43069142D01*
X84339619Y-42973904D01*
X84339619Y-42164380D01*
X85149142Y-42640571D02*
X84815809Y-42640571D01*
X84815809Y-43164380D02*
X84815809Y-42164380D01*
X85292000Y-42164380D01*
X69679714Y-42378380D02*
X69774952Y-42378380D01*
X69870190Y-42426000D01*
X69917809Y-42473619D01*
X69965428Y-42568857D01*
X70013047Y-42759333D01*
X70013047Y-42997428D01*
X69965428Y-43187904D01*
X69917809Y-43283142D01*
X69870190Y-43330761D01*
X69774952Y-43378380D01*
X69679714Y-43378380D01*
X69584476Y-43330761D01*
X69536857Y-43283142D01*
X69489238Y-43187904D01*
X69441619Y-42997428D01*
X69441619Y-42759333D01*
X69489238Y-42568857D01*
X69536857Y-42473619D01*
X69584476Y-42426000D01*
X69679714Y-42378380D01*
X70441619Y-43283142D02*
X70489238Y-43330761D01*
X70441619Y-43378380D01*
X70394000Y-43330761D01*
X70441619Y-43283142D01*
X70441619Y-43378380D01*
X71441619Y-43378380D02*
X70870190Y-43378380D01*
X71155904Y-43378380D02*
X71155904Y-42378380D01*
X71060666Y-42521238D01*
X70965428Y-42616476D01*
X70870190Y-42664095D01*
X71870190Y-42378380D02*
X71870190Y-43187904D01*
X71917809Y-43283142D01*
X71965428Y-43330761D01*
X72060666Y-43378380D01*
X72251142Y-43378380D01*
X72346380Y-43330761D01*
X72394000Y-43283142D01*
X72441619Y-43187904D01*
X72441619Y-42378380D01*
X73251142Y-42854571D02*
X72917809Y-42854571D01*
X72917809Y-43378380D02*
X72917809Y-42378380D01*
X73394000Y-42378380D01*
X74993714Y-42124380D02*
X75088952Y-42124380D01*
X75184190Y-42172000D01*
X75231809Y-42219619D01*
X75279428Y-42314857D01*
X75327047Y-42505333D01*
X75327047Y-42743428D01*
X75279428Y-42933904D01*
X75231809Y-43029142D01*
X75184190Y-43076761D01*
X75088952Y-43124380D01*
X74993714Y-43124380D01*
X74898476Y-43076761D01*
X74850857Y-43029142D01*
X74803238Y-42933904D01*
X74755619Y-42743428D01*
X74755619Y-42505333D01*
X74803238Y-42314857D01*
X74850857Y-42219619D01*
X74898476Y-42172000D01*
X74993714Y-42124380D01*
X75755619Y-43029142D02*
X75803238Y-43076761D01*
X75755619Y-43124380D01*
X75708000Y-43076761D01*
X75755619Y-43029142D01*
X75755619Y-43124380D01*
X76755619Y-43124380D02*
X76184190Y-43124380D01*
X76469904Y-43124380D02*
X76469904Y-42124380D01*
X76374666Y-42267238D01*
X76279428Y-42362476D01*
X76184190Y-42410095D01*
X77184190Y-42124380D02*
X77184190Y-42933904D01*
X77231809Y-43029142D01*
X77279428Y-43076761D01*
X77374666Y-43124380D01*
X77565142Y-43124380D01*
X77660380Y-43076761D01*
X77708000Y-43029142D01*
X77755619Y-42933904D01*
X77755619Y-42124380D01*
X78565142Y-42600571D02*
X78231809Y-42600571D01*
X78231809Y-43124380D02*
X78231809Y-42124380D01*
X78708000Y-42124380D01*
X86955333Y-50903142D02*
X86907714Y-50950761D01*
X86764857Y-50998380D01*
X86669619Y-50998380D01*
X86526761Y-50950761D01*
X86431523Y-50855523D01*
X86383904Y-50760285D01*
X86336285Y-50569809D01*
X86336285Y-50426952D01*
X86383904Y-50236476D01*
X86431523Y-50141238D01*
X86526761Y-50046000D01*
X86669619Y-49998380D01*
X86764857Y-49998380D01*
X86907714Y-50046000D01*
X86955333Y-50093619D01*
X87526761Y-50426952D02*
X87431523Y-50379333D01*
X87383904Y-50331714D01*
X87336285Y-50236476D01*
X87336285Y-50188857D01*
X87383904Y-50093619D01*
X87431523Y-50046000D01*
X87526761Y-49998380D01*
X87717238Y-49998380D01*
X87812476Y-50046000D01*
X87860095Y-50093619D01*
X87907714Y-50188857D01*
X87907714Y-50236476D01*
X87860095Y-50331714D01*
X87812476Y-50379333D01*
X87717238Y-50426952D01*
X87526761Y-50426952D01*
X87431523Y-50474571D01*
X87383904Y-50522190D01*
X87336285Y-50617428D01*
X87336285Y-50807904D01*
X87383904Y-50903142D01*
X87431523Y-50950761D01*
X87526761Y-50998380D01*
X87717238Y-50998380D01*
X87812476Y-50950761D01*
X87860095Y-50903142D01*
X87907714Y-50807904D01*
X87907714Y-50617428D01*
X87860095Y-50522190D01*
X87812476Y-50474571D01*
X87717238Y-50426952D01*
X64091714Y-55038380D02*
X64186952Y-55038380D01*
X64282190Y-55086000D01*
X64329809Y-55133619D01*
X64377428Y-55228857D01*
X64425047Y-55419333D01*
X64425047Y-55657428D01*
X64377428Y-55847904D01*
X64329809Y-55943142D01*
X64282190Y-55990761D01*
X64186952Y-56038380D01*
X64091714Y-56038380D01*
X63996476Y-55990761D01*
X63948857Y-55943142D01*
X63901238Y-55847904D01*
X63853619Y-55657428D01*
X63853619Y-55419333D01*
X63901238Y-55228857D01*
X63948857Y-55133619D01*
X63996476Y-55086000D01*
X64091714Y-55038380D01*
X64853619Y-55943142D02*
X64901238Y-55990761D01*
X64853619Y-56038380D01*
X64806000Y-55990761D01*
X64853619Y-55943142D01*
X64853619Y-56038380D01*
X65853619Y-56038380D02*
X65282190Y-56038380D01*
X65567904Y-56038380D02*
X65567904Y-55038380D01*
X65472666Y-55181238D01*
X65377428Y-55276476D01*
X65282190Y-55324095D01*
X66282190Y-55038380D02*
X66282190Y-55847904D01*
X66329809Y-55943142D01*
X66377428Y-55990761D01*
X66472666Y-56038380D01*
X66663142Y-56038380D01*
X66758380Y-55990761D01*
X66806000Y-55943142D01*
X66853619Y-55847904D01*
X66853619Y-55038380D01*
X67663142Y-55514571D02*
X67329809Y-55514571D01*
X67329809Y-56038380D02*
X67329809Y-55038380D01*
X67806000Y-55038380D01*
X92067142Y-44902380D02*
X91590952Y-44902380D01*
X91590952Y-43902380D01*
X92400476Y-44378571D02*
X92733809Y-44378571D01*
X92876666Y-44902380D02*
X92400476Y-44902380D01*
X92400476Y-43902380D01*
X92876666Y-43902380D01*
X93305238Y-44902380D02*
X93305238Y-43902380D01*
X93543333Y-43902380D01*
X93686190Y-43950000D01*
X93781428Y-44045238D01*
X93829047Y-44140476D01*
X93876666Y-44330952D01*
X93876666Y-44473809D01*
X93829047Y-44664285D01*
X93781428Y-44759523D01*
X93686190Y-44854761D01*
X93543333Y-44902380D01*
X93305238Y-44902380D01*
D11*
X35767238Y-53990761D02*
X35767238Y-51990761D01*
X36529142Y-51990761D01*
X36719619Y-52086000D01*
X36814857Y-52181238D01*
X36910095Y-52371714D01*
X36910095Y-52657428D01*
X36814857Y-52847904D01*
X36719619Y-52943142D01*
X36529142Y-53038380D01*
X35767238Y-53038380D01*
X38148190Y-51990761D02*
X38529142Y-51990761D01*
X38719619Y-52086000D01*
X38910095Y-52276476D01*
X39005333Y-52657428D01*
X39005333Y-53324095D01*
X38910095Y-53705047D01*
X38719619Y-53895523D01*
X38529142Y-53990761D01*
X38148190Y-53990761D01*
X37957714Y-53895523D01*
X37767238Y-53705047D01*
X37672000Y-53324095D01*
X37672000Y-52657428D01*
X37767238Y-52276476D01*
X37957714Y-52086000D01*
X38148190Y-51990761D01*
X39672000Y-51990761D02*
X40148190Y-53990761D01*
X40529142Y-52562190D01*
X40910095Y-53990761D01*
X41386285Y-51990761D01*
X42148190Y-52943142D02*
X42814857Y-52943142D01*
X43100571Y-53990761D02*
X42148190Y-53990761D01*
X42148190Y-51990761D01*
X43100571Y-51990761D01*
X45100571Y-53990761D02*
X44433904Y-53038380D01*
X43957714Y-53990761D02*
X43957714Y-51990761D01*
X44719619Y-51990761D01*
X44910095Y-52086000D01*
X45005333Y-52181238D01*
X45100571Y-52371714D01*
X45100571Y-52657428D01*
X45005333Y-52847904D01*
X44910095Y-52943142D01*
X44719619Y-53038380D01*
X43957714Y-53038380D01*
X47481523Y-53990761D02*
X47481523Y-51990761D01*
X48433904Y-53990761D02*
X48433904Y-51990761D01*
X49576761Y-53990761D01*
X49576761Y-51990761D01*
D10*
X36012380Y-70857428D02*
X35012380Y-70857428D01*
X35726666Y-70524095D01*
X35012380Y-70190761D01*
X36012380Y-70190761D01*
X35012380Y-69524095D02*
X35012380Y-69333619D01*
X35060000Y-69238380D01*
X35155238Y-69143142D01*
X35345714Y-69095523D01*
X35679047Y-69095523D01*
X35869523Y-69143142D01*
X35964761Y-69238380D01*
X36012380Y-69333619D01*
X36012380Y-69524095D01*
X35964761Y-69619333D01*
X35869523Y-69714571D01*
X35679047Y-69762190D01*
X35345714Y-69762190D01*
X35155238Y-69714571D01*
X35060000Y-69619333D01*
X35012380Y-69524095D01*
X35012380Y-68809809D02*
X35012380Y-68238380D01*
X36012380Y-68524095D02*
X35012380Y-68524095D01*
X35012380Y-67714571D02*
X35012380Y-67524095D01*
X35060000Y-67428857D01*
X35155238Y-67333619D01*
X35345714Y-67286000D01*
X35679047Y-67286000D01*
X35869523Y-67333619D01*
X35964761Y-67428857D01*
X36012380Y-67524095D01*
X36012380Y-67714571D01*
X35964761Y-67809809D01*
X35869523Y-67905047D01*
X35679047Y-67952666D01*
X35345714Y-67952666D01*
X35155238Y-67905047D01*
X35060000Y-67809809D01*
X35012380Y-67714571D01*
X36012380Y-66286000D02*
X35536190Y-66619333D01*
X36012380Y-66857428D02*
X35012380Y-66857428D01*
X35012380Y-66476476D01*
X35060000Y-66381238D01*
X35107619Y-66333619D01*
X35202857Y-66286000D01*
X35345714Y-66286000D01*
X35440952Y-66333619D01*
X35488571Y-66381238D01*
X35536190Y-66476476D01*
X35536190Y-66857428D01*
X35488571Y-64762190D02*
X35536190Y-64619333D01*
X35583809Y-64571714D01*
X35679047Y-64524095D01*
X35821904Y-64524095D01*
X35917142Y-64571714D01*
X35964761Y-64619333D01*
X36012380Y-64714571D01*
X36012380Y-65095523D01*
X35012380Y-65095523D01*
X35012380Y-64762190D01*
X35060000Y-64666952D01*
X35107619Y-64619333D01*
X35202857Y-64571714D01*
X35298095Y-64571714D01*
X35393333Y-64619333D01*
X35440952Y-64666952D01*
X35488571Y-64762190D01*
X35488571Y-65095523D01*
X36012380Y-63619333D02*
X36012380Y-64095523D01*
X35012380Y-64095523D01*
X35012380Y-63095523D02*
X35012380Y-62905047D01*
X35060000Y-62809809D01*
X35155238Y-62714571D01*
X35345714Y-62666952D01*
X35679047Y-62666952D01*
X35869523Y-62714571D01*
X35964761Y-62809809D01*
X36012380Y-62905047D01*
X36012380Y-63095523D01*
X35964761Y-63190761D01*
X35869523Y-63286000D01*
X35679047Y-63333619D01*
X35345714Y-63333619D01*
X35155238Y-63286000D01*
X35060000Y-63190761D01*
X35012380Y-63095523D01*
X35917142Y-61666952D02*
X35964761Y-61714571D01*
X36012380Y-61857428D01*
X36012380Y-61952666D01*
X35964761Y-62095523D01*
X35869523Y-62190761D01*
X35774285Y-62238380D01*
X35583809Y-62286000D01*
X35440952Y-62286000D01*
X35250476Y-62238380D01*
X35155238Y-62190761D01*
X35060000Y-62095523D01*
X35012380Y-61952666D01*
X35012380Y-61857428D01*
X35060000Y-61714571D01*
X35107619Y-61666952D01*
X36012380Y-61238380D02*
X35012380Y-61238380D01*
X36012380Y-60666952D02*
X35440952Y-61095523D01*
X35012380Y-60666952D02*
X35583809Y-61238380D01*
X99528761Y-82986571D02*
X99862095Y-82986571D01*
X100004952Y-83510380D02*
X99528761Y-83510380D01*
X99528761Y-82510380D01*
X100004952Y-82510380D01*
X100433523Y-83510380D02*
X100433523Y-82510380D01*
X101004952Y-83510380D01*
X101004952Y-82510380D01*
X102052571Y-83415142D02*
X102004952Y-83462761D01*
X101862095Y-83510380D01*
X101766857Y-83510380D01*
X101624000Y-83462761D01*
X101528761Y-83367523D01*
X101481142Y-83272285D01*
X101433523Y-83081809D01*
X101433523Y-82938952D01*
X101481142Y-82748476D01*
X101528761Y-82653238D01*
X101624000Y-82558000D01*
X101766857Y-82510380D01*
X101862095Y-82510380D01*
X102004952Y-82558000D01*
X102052571Y-82605619D01*
X102671619Y-82510380D02*
X102862095Y-82510380D01*
X102957333Y-82558000D01*
X103052571Y-82653238D01*
X103100190Y-82843714D01*
X103100190Y-83177047D01*
X103052571Y-83367523D01*
X102957333Y-83462761D01*
X102862095Y-83510380D01*
X102671619Y-83510380D01*
X102576380Y-83462761D01*
X102481142Y-83367523D01*
X102433523Y-83177047D01*
X102433523Y-82843714D01*
X102481142Y-82653238D01*
X102576380Y-82558000D01*
X102671619Y-82510380D01*
X103528761Y-83510380D02*
X103528761Y-82510380D01*
X103766857Y-82510380D01*
X103909714Y-82558000D01*
X104004952Y-82653238D01*
X104052571Y-82748476D01*
X104100190Y-82938952D01*
X104100190Y-83081809D01*
X104052571Y-83272285D01*
X104004952Y-83367523D01*
X103909714Y-83462761D01*
X103766857Y-83510380D01*
X103528761Y-83510380D01*
X104528761Y-82986571D02*
X104862095Y-82986571D01*
X105004952Y-83510380D02*
X104528761Y-83510380D01*
X104528761Y-82510380D01*
X105004952Y-82510380D01*
X106004952Y-83510380D02*
X105671619Y-83034190D01*
X105433523Y-83510380D02*
X105433523Y-82510380D01*
X105814476Y-82510380D01*
X105909714Y-82558000D01*
X105957333Y-82605619D01*
X106004952Y-82700857D01*
X106004952Y-82843714D01*
X105957333Y-82938952D01*
X105909714Y-82986571D01*
X105814476Y-83034190D01*
X105433523Y-83034190D01*
D11*
X53451809Y-94884761D02*
X53451809Y-92884761D01*
X54118476Y-94313333D01*
X54785142Y-92884761D01*
X54785142Y-94884761D01*
X56118476Y-92884761D02*
X56499428Y-92884761D01*
X56689904Y-92980000D01*
X56880380Y-93170476D01*
X56975619Y-93551428D01*
X56975619Y-94218095D01*
X56880380Y-94599047D01*
X56689904Y-94789523D01*
X56499428Y-94884761D01*
X56118476Y-94884761D01*
X55928000Y-94789523D01*
X55737523Y-94599047D01*
X55642285Y-94218095D01*
X55642285Y-93551428D01*
X55737523Y-93170476D01*
X55928000Y-92980000D01*
X56118476Y-92884761D01*
X57547047Y-92884761D02*
X58689904Y-92884761D01*
X58118476Y-94884761D02*
X58118476Y-92884761D01*
X59737523Y-92884761D02*
X60118476Y-92884761D01*
X60308952Y-92980000D01*
X60499428Y-93170476D01*
X60594666Y-93551428D01*
X60594666Y-94218095D01*
X60499428Y-94599047D01*
X60308952Y-94789523D01*
X60118476Y-94884761D01*
X59737523Y-94884761D01*
X59547047Y-94789523D01*
X59356571Y-94599047D01*
X59261333Y-94218095D01*
X59261333Y-93551428D01*
X59356571Y-93170476D01*
X59547047Y-92980000D01*
X59737523Y-92884761D01*
X62594666Y-94884761D02*
X61928000Y-93932380D01*
X61451809Y-94884761D02*
X61451809Y-92884761D01*
X62213714Y-92884761D01*
X62404190Y-92980000D01*
X62499428Y-93075238D01*
X62594666Y-93265714D01*
X62594666Y-93551428D01*
X62499428Y-93741904D01*
X62404190Y-93837142D01*
X62213714Y-93932380D01*
X61451809Y-93932380D01*
X63356571Y-93075238D02*
X63451809Y-92980000D01*
X63642285Y-92884761D01*
X64118476Y-92884761D01*
X64308952Y-92980000D01*
X64404190Y-93075238D01*
X64499428Y-93265714D01*
X64499428Y-93456190D01*
X64404190Y-93741904D01*
X63261333Y-94884761D01*
X64499428Y-94884761D01*
X72755809Y-95138761D02*
X72755809Y-93138761D01*
X73422476Y-94567333D01*
X74089142Y-93138761D01*
X74089142Y-95138761D01*
X75422476Y-93138761D02*
X75803428Y-93138761D01*
X75993904Y-93234000D01*
X76184380Y-93424476D01*
X76279619Y-93805428D01*
X76279619Y-94472095D01*
X76184380Y-94853047D01*
X75993904Y-95043523D01*
X75803428Y-95138761D01*
X75422476Y-95138761D01*
X75232000Y-95043523D01*
X75041523Y-94853047D01*
X74946285Y-94472095D01*
X74946285Y-93805428D01*
X75041523Y-93424476D01*
X75232000Y-93234000D01*
X75422476Y-93138761D01*
X76851047Y-93138761D02*
X77993904Y-93138761D01*
X77422476Y-95138761D02*
X77422476Y-93138761D01*
X79041523Y-93138761D02*
X79422476Y-93138761D01*
X79612952Y-93234000D01*
X79803428Y-93424476D01*
X79898666Y-93805428D01*
X79898666Y-94472095D01*
X79803428Y-94853047D01*
X79612952Y-95043523D01*
X79422476Y-95138761D01*
X79041523Y-95138761D01*
X78851047Y-95043523D01*
X78660571Y-94853047D01*
X78565333Y-94472095D01*
X78565333Y-93805428D01*
X78660571Y-93424476D01*
X78851047Y-93234000D01*
X79041523Y-93138761D01*
X81898666Y-95138761D02*
X81232000Y-94186380D01*
X80755809Y-95138761D02*
X80755809Y-93138761D01*
X81517714Y-93138761D01*
X81708190Y-93234000D01*
X81803428Y-93329238D01*
X81898666Y-93519714D01*
X81898666Y-93805428D01*
X81803428Y-93995904D01*
X81708190Y-94091142D01*
X81517714Y-94186380D01*
X80755809Y-94186380D01*
X83803428Y-95138761D02*
X82660571Y-95138761D01*
X83232000Y-95138761D02*
X83232000Y-93138761D01*
X83041523Y-93424476D01*
X82851047Y-93614952D01*
X82660571Y-93710190D01*
D10*
X79033714Y-53918380D02*
X78462285Y-53918380D01*
X78748000Y-53918380D02*
X78748000Y-52918380D01*
X78652761Y-53061238D01*
X78557523Y-53156476D01*
X78462285Y-53204095D01*
X79462285Y-53918380D02*
X79462285Y-52918380D01*
X80033714Y-53918380D02*
X79605142Y-53346952D01*
X80033714Y-52918380D02*
X79462285Y-53489809D01*
X53967333Y-43680380D02*
X53491142Y-43680380D01*
X53491142Y-42680380D01*
X54300666Y-43680380D02*
X54300666Y-42680380D01*
X54634000Y-43394666D01*
X54967333Y-42680380D01*
X54967333Y-43680380D01*
X55348285Y-42680380D02*
X56014952Y-42680380D01*
X55586380Y-43680380D01*
X56538761Y-43108952D02*
X56443523Y-43061333D01*
X56395904Y-43013714D01*
X56348285Y-42918476D01*
X56348285Y-42870857D01*
X56395904Y-42775619D01*
X56443523Y-42728000D01*
X56538761Y-42680380D01*
X56729238Y-42680380D01*
X56824476Y-42728000D01*
X56872095Y-42775619D01*
X56919714Y-42870857D01*
X56919714Y-42918476D01*
X56872095Y-43013714D01*
X56824476Y-43061333D01*
X56729238Y-43108952D01*
X56538761Y-43108952D01*
X56443523Y-43156571D01*
X56395904Y-43204190D01*
X56348285Y-43299428D01*
X56348285Y-43489904D01*
X56395904Y-43585142D01*
X56443523Y-43632761D01*
X56538761Y-43680380D01*
X56729238Y-43680380D01*
X56824476Y-43632761D01*
X56872095Y-43585142D01*
X56919714Y-43489904D01*
X56919714Y-43299428D01*
X56872095Y-43204190D01*
X56824476Y-43156571D01*
X56729238Y-43108952D01*
X57538761Y-42680380D02*
X57634000Y-42680380D01*
X57729238Y-42728000D01*
X57776857Y-42775619D01*
X57824476Y-42870857D01*
X57872095Y-43061333D01*
X57872095Y-43299428D01*
X57824476Y-43489904D01*
X57776857Y-43585142D01*
X57729238Y-43632761D01*
X57634000Y-43680380D01*
X57538761Y-43680380D01*
X57443523Y-43632761D01*
X57395904Y-43585142D01*
X57348285Y-43489904D01*
X57300666Y-43299428D01*
X57300666Y-43061333D01*
X57348285Y-42870857D01*
X57395904Y-42775619D01*
X57443523Y-42728000D01*
X57538761Y-42680380D01*
X58776857Y-42680380D02*
X58300666Y-42680380D01*
X58253047Y-43156571D01*
X58300666Y-43108952D01*
X58395904Y-43061333D01*
X58634000Y-43061333D01*
X58729238Y-43108952D01*
X58776857Y-43156571D01*
X58824476Y-43251809D01*
X58824476Y-43489904D01*
X58776857Y-43585142D01*
X58729238Y-43632761D01*
X58634000Y-43680380D01*
X58395904Y-43680380D01*
X58300666Y-43632761D01*
X58253047Y-43585142D01*
X67722952Y-82284380D02*
X67246761Y-82284380D01*
X67246761Y-81284380D01*
X68008666Y-81379619D02*
X68056285Y-81332000D01*
X68151523Y-81284380D01*
X68389619Y-81284380D01*
X68484857Y-81332000D01*
X68532476Y-81379619D01*
X68580095Y-81474857D01*
X68580095Y-81570095D01*
X68532476Y-81712952D01*
X67961047Y-82284380D01*
X68580095Y-82284380D01*
X69056285Y-82284380D02*
X69246761Y-82284380D01*
X69342000Y-82236761D01*
X69389619Y-82189142D01*
X69484857Y-82046285D01*
X69532476Y-81855809D01*
X69532476Y-81474857D01*
X69484857Y-81379619D01*
X69437238Y-81332000D01*
X69342000Y-81284380D01*
X69151523Y-81284380D01*
X69056285Y-81332000D01*
X69008666Y-81379619D01*
X68961047Y-81474857D01*
X68961047Y-81712952D01*
X69008666Y-81808190D01*
X69056285Y-81855809D01*
X69151523Y-81903428D01*
X69342000Y-81903428D01*
X69437238Y-81855809D01*
X69484857Y-81808190D01*
X69532476Y-81712952D01*
X69865809Y-81284380D02*
X70484857Y-81284380D01*
X70151523Y-81665333D01*
X70294380Y-81665333D01*
X70389619Y-81712952D01*
X70437238Y-81760571D01*
X70484857Y-81855809D01*
X70484857Y-82093904D01*
X70437238Y-82189142D01*
X70389619Y-82236761D01*
X70294380Y-82284380D01*
X70008666Y-82284380D01*
X69913428Y-82236761D01*
X69865809Y-82189142D01*
X70913428Y-82284380D02*
X70913428Y-81284380D01*
X71151523Y-81284380D01*
X71294380Y-81332000D01*
X71389619Y-81427238D01*
X71437238Y-81522476D01*
X71484857Y-81712952D01*
X71484857Y-81855809D01*
X71437238Y-82046285D01*
X71389619Y-82141523D01*
X71294380Y-82236761D01*
X71151523Y-82284380D01*
X70913428Y-82284380D01*
M02*
