G04 #@! TF.GenerationSoftware,KiCad,Pcbnew,(5.1.4)-1*
G04 #@! TF.CreationDate,2020-12-14T11:09:43+07:00*
G04 #@! TF.ProjectId,back_controller,6261636b-5f63-46f6-9e74-726f6c6c6572,rev?*
G04 #@! TF.SameCoordinates,Original*
G04 #@! TF.FileFunction,Legend,Top*
G04 #@! TF.FilePolarity,Positive*
%FSLAX46Y46*%
G04 Gerber Fmt 4.6, Leading zero omitted, Abs format (unit mm)*
G04 Created by KiCad (PCBNEW (5.1.4)-1) date 2020-12-14 11:09:43*
%MOMM*%
%LPD*%
G04 APERTURE LIST*
%ADD10C,0.120000*%
%ADD11C,0.150000*%
G04 APERTURE END LIST*
D10*
X107950000Y-81975000D02*
X106620000Y-81975000D01*
X106620000Y-81975000D02*
X106620000Y-80645000D01*
X106620000Y-79375000D02*
X106620000Y-66615000D01*
X109280000Y-66615000D02*
X106620000Y-66615000D01*
X109280000Y-79375000D02*
X109280000Y-66615000D01*
X109280000Y-79375000D02*
X106620000Y-79375000D01*
D11*
X43890001Y-53415001D02*
X43890001Y-106755001D01*
X142950001Y-66115001D02*
X142950001Y-54939001D01*
X145490001Y-68655001D02*
X142950001Y-66115001D01*
X145490001Y-102945001D02*
X145490001Y-68655001D01*
X142950001Y-105485001D02*
X145490001Y-102945001D01*
X142950001Y-106755001D02*
X142950001Y-105485001D01*
X141426001Y-53415001D02*
X142950001Y-54939001D01*
X43890001Y-106755001D02*
X142950001Y-106755001D01*
X43890001Y-53415001D02*
X141426001Y-53415001D01*
D10*
X67490000Y-64169775D02*
X67990000Y-64169775D01*
X67740000Y-64419775D02*
X67740000Y-63919775D01*
X68931000Y-59014000D02*
X69499000Y-59014000D01*
X68697000Y-59054000D02*
X69733000Y-59054000D01*
X68538000Y-59094000D02*
X69892000Y-59094000D01*
X68410000Y-59134000D02*
X70020000Y-59134000D01*
X68300000Y-59174000D02*
X70130000Y-59174000D01*
X68204000Y-59214000D02*
X70226000Y-59214000D01*
X68117000Y-59254000D02*
X70313000Y-59254000D01*
X68037000Y-59294000D02*
X70393000Y-59294000D01*
X70255000Y-59334000D02*
X70466000Y-59334000D01*
X67964000Y-59334000D02*
X68175000Y-59334000D01*
X70255000Y-59374000D02*
X70534000Y-59374000D01*
X67896000Y-59374000D02*
X68175000Y-59374000D01*
X70255000Y-59414000D02*
X70598000Y-59414000D01*
X67832000Y-59414000D02*
X68175000Y-59414000D01*
X70255000Y-59454000D02*
X70658000Y-59454000D01*
X67772000Y-59454000D02*
X68175000Y-59454000D01*
X70255000Y-59494000D02*
X70715000Y-59494000D01*
X67715000Y-59494000D02*
X68175000Y-59494000D01*
X70255000Y-59534000D02*
X70769000Y-59534000D01*
X67661000Y-59534000D02*
X68175000Y-59534000D01*
X70255000Y-59574000D02*
X70820000Y-59574000D01*
X67610000Y-59574000D02*
X68175000Y-59574000D01*
X70255000Y-59614000D02*
X70868000Y-59614000D01*
X67562000Y-59614000D02*
X68175000Y-59614000D01*
X70255000Y-59654000D02*
X70914000Y-59654000D01*
X67516000Y-59654000D02*
X68175000Y-59654000D01*
X70255000Y-59694000D02*
X70958000Y-59694000D01*
X67472000Y-59694000D02*
X68175000Y-59694000D01*
X70255000Y-59734000D02*
X71000000Y-59734000D01*
X67430000Y-59734000D02*
X68175000Y-59734000D01*
X70255000Y-59774000D02*
X71041000Y-59774000D01*
X67389000Y-59774000D02*
X68175000Y-59774000D01*
X70255000Y-59814000D02*
X71079000Y-59814000D01*
X67351000Y-59814000D02*
X68175000Y-59814000D01*
X70255000Y-59854000D02*
X71116000Y-59854000D01*
X67314000Y-59854000D02*
X68175000Y-59854000D01*
X70255000Y-59894000D02*
X71152000Y-59894000D01*
X67278000Y-59894000D02*
X68175000Y-59894000D01*
X70255000Y-59934000D02*
X71186000Y-59934000D01*
X67244000Y-59934000D02*
X68175000Y-59934000D01*
X70255000Y-59974000D02*
X71219000Y-59974000D01*
X67211000Y-59974000D02*
X68175000Y-59974000D01*
X70255000Y-60014000D02*
X71250000Y-60014000D01*
X67180000Y-60014000D02*
X68175000Y-60014000D01*
X70255000Y-60054000D02*
X71280000Y-60054000D01*
X67150000Y-60054000D02*
X68175000Y-60054000D01*
X70255000Y-60094000D02*
X71310000Y-60094000D01*
X67120000Y-60094000D02*
X68175000Y-60094000D01*
X70255000Y-60134000D02*
X71337000Y-60134000D01*
X67093000Y-60134000D02*
X68175000Y-60134000D01*
X70255000Y-60174000D02*
X71364000Y-60174000D01*
X67066000Y-60174000D02*
X68175000Y-60174000D01*
X70255000Y-60214000D02*
X71390000Y-60214000D01*
X67040000Y-60214000D02*
X68175000Y-60214000D01*
X70255000Y-60254000D02*
X71415000Y-60254000D01*
X67015000Y-60254000D02*
X68175000Y-60254000D01*
X70255000Y-60294000D02*
X71439000Y-60294000D01*
X66991000Y-60294000D02*
X68175000Y-60294000D01*
X70255000Y-60334000D02*
X71462000Y-60334000D01*
X66968000Y-60334000D02*
X68175000Y-60334000D01*
X70255000Y-60374000D02*
X71483000Y-60374000D01*
X66947000Y-60374000D02*
X68175000Y-60374000D01*
X70255000Y-60414000D02*
X71505000Y-60414000D01*
X66925000Y-60414000D02*
X68175000Y-60414000D01*
X70255000Y-60454000D02*
X71525000Y-60454000D01*
X66905000Y-60454000D02*
X68175000Y-60454000D01*
X70255000Y-60494000D02*
X71544000Y-60494000D01*
X66886000Y-60494000D02*
X68175000Y-60494000D01*
X70255000Y-60534000D02*
X71563000Y-60534000D01*
X66867000Y-60534000D02*
X68175000Y-60534000D01*
X70255000Y-60574000D02*
X71580000Y-60574000D01*
X66850000Y-60574000D02*
X68175000Y-60574000D01*
X70255000Y-60614000D02*
X71597000Y-60614000D01*
X66833000Y-60614000D02*
X68175000Y-60614000D01*
X70255000Y-60654000D02*
X71613000Y-60654000D01*
X66817000Y-60654000D02*
X68175000Y-60654000D01*
X70255000Y-60694000D02*
X71629000Y-60694000D01*
X66801000Y-60694000D02*
X68175000Y-60694000D01*
X70255000Y-60734000D02*
X71643000Y-60734000D01*
X66787000Y-60734000D02*
X68175000Y-60734000D01*
X70255000Y-60774000D02*
X71657000Y-60774000D01*
X66773000Y-60774000D02*
X68175000Y-60774000D01*
X70255000Y-60814000D02*
X71670000Y-60814000D01*
X66760000Y-60814000D02*
X68175000Y-60814000D01*
X70255000Y-60854000D02*
X71683000Y-60854000D01*
X66747000Y-60854000D02*
X68175000Y-60854000D01*
X70255000Y-60894000D02*
X71695000Y-60894000D01*
X66735000Y-60894000D02*
X68175000Y-60894000D01*
X70255000Y-60935000D02*
X71706000Y-60935000D01*
X66724000Y-60935000D02*
X68175000Y-60935000D01*
X70255000Y-60975000D02*
X71716000Y-60975000D01*
X66714000Y-60975000D02*
X68175000Y-60975000D01*
X70255000Y-61015000D02*
X71726000Y-61015000D01*
X66704000Y-61015000D02*
X68175000Y-61015000D01*
X70255000Y-61055000D02*
X71735000Y-61055000D01*
X66695000Y-61055000D02*
X68175000Y-61055000D01*
X70255000Y-61095000D02*
X71743000Y-61095000D01*
X66687000Y-61095000D02*
X68175000Y-61095000D01*
X70255000Y-61135000D02*
X71751000Y-61135000D01*
X66679000Y-61135000D02*
X68175000Y-61135000D01*
X70255000Y-61175000D02*
X71758000Y-61175000D01*
X66672000Y-61175000D02*
X68175000Y-61175000D01*
X70255000Y-61215000D02*
X71765000Y-61215000D01*
X66665000Y-61215000D02*
X68175000Y-61215000D01*
X70255000Y-61255000D02*
X71771000Y-61255000D01*
X66659000Y-61255000D02*
X68175000Y-61255000D01*
X70255000Y-61295000D02*
X71776000Y-61295000D01*
X66654000Y-61295000D02*
X68175000Y-61295000D01*
X70255000Y-61335000D02*
X71780000Y-61335000D01*
X66650000Y-61335000D02*
X68175000Y-61335000D01*
X70255000Y-61375000D02*
X71784000Y-61375000D01*
X66646000Y-61375000D02*
X68175000Y-61375000D01*
X66642000Y-61415000D02*
X71788000Y-61415000D01*
X66639000Y-61455000D02*
X71791000Y-61455000D01*
X66637000Y-61495000D02*
X71793000Y-61495000D01*
X66636000Y-61535000D02*
X71794000Y-61535000D01*
X66635000Y-61575000D02*
X71795000Y-61575000D01*
X66635000Y-61615000D02*
X71795000Y-61615000D01*
X71835000Y-61615000D02*
G75*
G03X71835000Y-61615000I-2620000J0D01*
G01*
X65485000Y-61615000D02*
G75*
G03X65485000Y-61615000I-2620000J0D01*
G01*
X60285000Y-61615000D02*
X65445000Y-61615000D01*
X60285000Y-61575000D02*
X65445000Y-61575000D01*
X60286000Y-61535000D02*
X65444000Y-61535000D01*
X60287000Y-61495000D02*
X65443000Y-61495000D01*
X60289000Y-61455000D02*
X65441000Y-61455000D01*
X60292000Y-61415000D02*
X65438000Y-61415000D01*
X60296000Y-61375000D02*
X61825000Y-61375000D01*
X63905000Y-61375000D02*
X65434000Y-61375000D01*
X60300000Y-61335000D02*
X61825000Y-61335000D01*
X63905000Y-61335000D02*
X65430000Y-61335000D01*
X60304000Y-61295000D02*
X61825000Y-61295000D01*
X63905000Y-61295000D02*
X65426000Y-61295000D01*
X60309000Y-61255000D02*
X61825000Y-61255000D01*
X63905000Y-61255000D02*
X65421000Y-61255000D01*
X60315000Y-61215000D02*
X61825000Y-61215000D01*
X63905000Y-61215000D02*
X65415000Y-61215000D01*
X60322000Y-61175000D02*
X61825000Y-61175000D01*
X63905000Y-61175000D02*
X65408000Y-61175000D01*
X60329000Y-61135000D02*
X61825000Y-61135000D01*
X63905000Y-61135000D02*
X65401000Y-61135000D01*
X60337000Y-61095000D02*
X61825000Y-61095000D01*
X63905000Y-61095000D02*
X65393000Y-61095000D01*
X60345000Y-61055000D02*
X61825000Y-61055000D01*
X63905000Y-61055000D02*
X65385000Y-61055000D01*
X60354000Y-61015000D02*
X61825000Y-61015000D01*
X63905000Y-61015000D02*
X65376000Y-61015000D01*
X60364000Y-60975000D02*
X61825000Y-60975000D01*
X63905000Y-60975000D02*
X65366000Y-60975000D01*
X60374000Y-60935000D02*
X61825000Y-60935000D01*
X63905000Y-60935000D02*
X65356000Y-60935000D01*
X60385000Y-60894000D02*
X61825000Y-60894000D01*
X63905000Y-60894000D02*
X65345000Y-60894000D01*
X60397000Y-60854000D02*
X61825000Y-60854000D01*
X63905000Y-60854000D02*
X65333000Y-60854000D01*
X60410000Y-60814000D02*
X61825000Y-60814000D01*
X63905000Y-60814000D02*
X65320000Y-60814000D01*
X60423000Y-60774000D02*
X61825000Y-60774000D01*
X63905000Y-60774000D02*
X65307000Y-60774000D01*
X60437000Y-60734000D02*
X61825000Y-60734000D01*
X63905000Y-60734000D02*
X65293000Y-60734000D01*
X60451000Y-60694000D02*
X61825000Y-60694000D01*
X63905000Y-60694000D02*
X65279000Y-60694000D01*
X60467000Y-60654000D02*
X61825000Y-60654000D01*
X63905000Y-60654000D02*
X65263000Y-60654000D01*
X60483000Y-60614000D02*
X61825000Y-60614000D01*
X63905000Y-60614000D02*
X65247000Y-60614000D01*
X60500000Y-60574000D02*
X61825000Y-60574000D01*
X63905000Y-60574000D02*
X65230000Y-60574000D01*
X60517000Y-60534000D02*
X61825000Y-60534000D01*
X63905000Y-60534000D02*
X65213000Y-60534000D01*
X60536000Y-60494000D02*
X61825000Y-60494000D01*
X63905000Y-60494000D02*
X65194000Y-60494000D01*
X60555000Y-60454000D02*
X61825000Y-60454000D01*
X63905000Y-60454000D02*
X65175000Y-60454000D01*
X60575000Y-60414000D02*
X61825000Y-60414000D01*
X63905000Y-60414000D02*
X65155000Y-60414000D01*
X60597000Y-60374000D02*
X61825000Y-60374000D01*
X63905000Y-60374000D02*
X65133000Y-60374000D01*
X60618000Y-60334000D02*
X61825000Y-60334000D01*
X63905000Y-60334000D02*
X65112000Y-60334000D01*
X60641000Y-60294000D02*
X61825000Y-60294000D01*
X63905000Y-60294000D02*
X65089000Y-60294000D01*
X60665000Y-60254000D02*
X61825000Y-60254000D01*
X63905000Y-60254000D02*
X65065000Y-60254000D01*
X60690000Y-60214000D02*
X61825000Y-60214000D01*
X63905000Y-60214000D02*
X65040000Y-60214000D01*
X60716000Y-60174000D02*
X61825000Y-60174000D01*
X63905000Y-60174000D02*
X65014000Y-60174000D01*
X60743000Y-60134000D02*
X61825000Y-60134000D01*
X63905000Y-60134000D02*
X64987000Y-60134000D01*
X60770000Y-60094000D02*
X61825000Y-60094000D01*
X63905000Y-60094000D02*
X64960000Y-60094000D01*
X60800000Y-60054000D02*
X61825000Y-60054000D01*
X63905000Y-60054000D02*
X64930000Y-60054000D01*
X60830000Y-60014000D02*
X61825000Y-60014000D01*
X63905000Y-60014000D02*
X64900000Y-60014000D01*
X60861000Y-59974000D02*
X61825000Y-59974000D01*
X63905000Y-59974000D02*
X64869000Y-59974000D01*
X60894000Y-59934000D02*
X61825000Y-59934000D01*
X63905000Y-59934000D02*
X64836000Y-59934000D01*
X60928000Y-59894000D02*
X61825000Y-59894000D01*
X63905000Y-59894000D02*
X64802000Y-59894000D01*
X60964000Y-59854000D02*
X61825000Y-59854000D01*
X63905000Y-59854000D02*
X64766000Y-59854000D01*
X61001000Y-59814000D02*
X61825000Y-59814000D01*
X63905000Y-59814000D02*
X64729000Y-59814000D01*
X61039000Y-59774000D02*
X61825000Y-59774000D01*
X63905000Y-59774000D02*
X64691000Y-59774000D01*
X61080000Y-59734000D02*
X61825000Y-59734000D01*
X63905000Y-59734000D02*
X64650000Y-59734000D01*
X61122000Y-59694000D02*
X61825000Y-59694000D01*
X63905000Y-59694000D02*
X64608000Y-59694000D01*
X61166000Y-59654000D02*
X61825000Y-59654000D01*
X63905000Y-59654000D02*
X64564000Y-59654000D01*
X61212000Y-59614000D02*
X61825000Y-59614000D01*
X63905000Y-59614000D02*
X64518000Y-59614000D01*
X61260000Y-59574000D02*
X61825000Y-59574000D01*
X63905000Y-59574000D02*
X64470000Y-59574000D01*
X61311000Y-59534000D02*
X61825000Y-59534000D01*
X63905000Y-59534000D02*
X64419000Y-59534000D01*
X61365000Y-59494000D02*
X61825000Y-59494000D01*
X63905000Y-59494000D02*
X64365000Y-59494000D01*
X61422000Y-59454000D02*
X61825000Y-59454000D01*
X63905000Y-59454000D02*
X64308000Y-59454000D01*
X61482000Y-59414000D02*
X61825000Y-59414000D01*
X63905000Y-59414000D02*
X64248000Y-59414000D01*
X61546000Y-59374000D02*
X61825000Y-59374000D01*
X63905000Y-59374000D02*
X64184000Y-59374000D01*
X61614000Y-59334000D02*
X61825000Y-59334000D01*
X63905000Y-59334000D02*
X64116000Y-59334000D01*
X61687000Y-59294000D02*
X64043000Y-59294000D01*
X61767000Y-59254000D02*
X63963000Y-59254000D01*
X61854000Y-59214000D02*
X63876000Y-59214000D01*
X61950000Y-59174000D02*
X63780000Y-59174000D01*
X62060000Y-59134000D02*
X63670000Y-59134000D01*
X62188000Y-59094000D02*
X63542000Y-59094000D01*
X62347000Y-59054000D02*
X63383000Y-59054000D01*
X62581000Y-59014000D02*
X63149000Y-59014000D01*
X61390000Y-64419775D02*
X61390000Y-63919775D01*
X61140000Y-64169775D02*
X61640000Y-64169775D01*
X91165000Y-95270000D02*
X94255000Y-95270000D01*
X95210000Y-92710000D02*
G75*
G03X95210000Y-92710000I-2500000J0D01*
G01*
X92710462Y-89720000D02*
G75*
G03X91165170Y-95270000I-462J-2990000D01*
G01*
X92709538Y-89720000D02*
G75*
G02X94254830Y-95270000I462J-2990000D01*
G01*
X84815000Y-95270000D02*
X87905000Y-95270000D01*
X88860000Y-92710000D02*
G75*
G03X88860000Y-92710000I-2500000J0D01*
G01*
X86360462Y-89720000D02*
G75*
G03X84815170Y-95270000I-462J-2990000D01*
G01*
X86359538Y-89720000D02*
G75*
G02X87904830Y-95270000I462J-2990000D01*
G01*
X78465000Y-95270000D02*
X81555000Y-95270000D01*
X82510000Y-92710000D02*
G75*
G03X82510000Y-92710000I-2500000J0D01*
G01*
X80010462Y-89720000D02*
G75*
G03X78465170Y-95270000I-462J-2990000D01*
G01*
X80009538Y-89720000D02*
G75*
G02X81554830Y-95270000I462J-2990000D01*
G01*
X73659538Y-89720000D02*
G75*
G02X75204830Y-95270000I462J-2990000D01*
G01*
X73660462Y-89720000D02*
G75*
G03X72115170Y-95270000I-462J-2990000D01*
G01*
X76160000Y-92710000D02*
G75*
G03X76160000Y-92710000I-2500000J0D01*
G01*
X72115000Y-95270000D02*
X75205000Y-95270000D01*
X62680000Y-88264538D02*
G75*
G02X57130000Y-89809830I-2990000J-462D01*
G01*
X62680000Y-88265462D02*
G75*
G03X57130000Y-86720170I-2990000J462D01*
G01*
X62190000Y-88265000D02*
G75*
G03X62190000Y-88265000I-2500000J0D01*
G01*
X57130000Y-86720000D02*
X57130000Y-89810000D01*
X55695000Y-88264538D02*
G75*
G02X50145000Y-89809830I-2990000J-462D01*
G01*
X55695000Y-88265462D02*
G75*
G03X50145000Y-86720170I-2990000J462D01*
G01*
X55205000Y-88265000D02*
G75*
G03X55205000Y-88265000I-2500000J0D01*
G01*
X50145000Y-86720000D02*
X50145000Y-89810000D01*
X130175000Y-70545000D02*
X128845000Y-70545000D01*
X128845000Y-70545000D02*
X128845000Y-69215000D01*
X128845000Y-67945000D02*
X128845000Y-60265000D01*
X131505000Y-60265000D02*
X128845000Y-60265000D01*
X131505000Y-67945000D02*
X131505000Y-60265000D01*
X131505000Y-67945000D02*
X128845000Y-67945000D01*
X128330000Y-80645000D02*
X125670000Y-80645000D01*
X128330000Y-80645000D02*
X128330000Y-72965000D01*
X128330000Y-72965000D02*
X125670000Y-72965000D01*
X125670000Y-80645000D02*
X125670000Y-72965000D01*
X125670000Y-83245000D02*
X125670000Y-81915000D01*
X127000000Y-83245000D02*
X125670000Y-83245000D01*
X124520000Y-99060000D02*
X121860000Y-99060000D01*
X124520000Y-99060000D02*
X124520000Y-86300000D01*
X124520000Y-86300000D02*
X121860000Y-86300000D01*
X121860000Y-99060000D02*
X121860000Y-86300000D01*
X121860000Y-101660000D02*
X121860000Y-100330000D01*
X123190000Y-101660000D02*
X121860000Y-101660000D01*
X101025000Y-79375000D02*
X98365000Y-79375000D01*
X101025000Y-79375000D02*
X101025000Y-66615000D01*
X101025000Y-66615000D02*
X98365000Y-66615000D01*
X98365000Y-79375000D02*
X98365000Y-66615000D01*
X98365000Y-81975000D02*
X98365000Y-80645000D01*
X99695000Y-81975000D02*
X98365000Y-81975000D01*
X48260000Y-80010000D02*
X55880000Y-80010000D01*
X55880000Y-59690000D02*
X48260000Y-59690000D01*
X54610000Y-59690000D02*
X54610000Y-80010000D01*
X48260000Y-80010000D02*
X48260000Y-59690000D01*
X55880000Y-80010000D02*
X55880000Y-59690000D01*
X87460000Y-81270000D02*
X86980000Y-81270000D01*
X86980000Y-81270000D02*
X86980000Y-71130000D01*
X86980000Y-71130000D02*
X87460000Y-71130000D01*
X90340000Y-81270000D02*
X90820000Y-81270000D01*
X90820000Y-81270000D02*
X90820000Y-71130000D01*
X90820000Y-71130000D02*
X90340000Y-71130000D01*
X83650000Y-81270000D02*
X83170000Y-81270000D01*
X83170000Y-81270000D02*
X83170000Y-71130000D01*
X83170000Y-71130000D02*
X83650000Y-71130000D01*
X86530000Y-81270000D02*
X87010000Y-81270000D01*
X87010000Y-81270000D02*
X87010000Y-71130000D01*
X87010000Y-71130000D02*
X86530000Y-71130000D01*
X83200000Y-71130000D02*
X82720000Y-71130000D01*
X83200000Y-81270000D02*
X83200000Y-71130000D01*
X82720000Y-81270000D02*
X83200000Y-81270000D01*
X79360000Y-71130000D02*
X79840000Y-71130000D01*
X79360000Y-81270000D02*
X79360000Y-71130000D01*
X79840000Y-81270000D02*
X79360000Y-81270000D01*
X79390000Y-71130000D02*
X78910000Y-71130000D01*
X79390000Y-81270000D02*
X79390000Y-71130000D01*
X78910000Y-81270000D02*
X79390000Y-81270000D01*
X75550000Y-71130000D02*
X76030000Y-71130000D01*
X75550000Y-81270000D02*
X75550000Y-71130000D01*
X76030000Y-81270000D02*
X75550000Y-81270000D01*
X74945000Y-71130000D02*
X74465000Y-71130000D01*
X74945000Y-81270000D02*
X74945000Y-71130000D01*
X74465000Y-81270000D02*
X74945000Y-81270000D01*
X71105000Y-71130000D02*
X71585000Y-71130000D01*
X71105000Y-81270000D02*
X71105000Y-71130000D01*
X71585000Y-81270000D02*
X71105000Y-81270000D01*
X65235000Y-81270000D02*
X64755000Y-81270000D01*
X64755000Y-81270000D02*
X64755000Y-71130000D01*
X64755000Y-71130000D02*
X65235000Y-71130000D01*
X68115000Y-81270000D02*
X68595000Y-81270000D01*
X68595000Y-81270000D02*
X68595000Y-71130000D01*
X68595000Y-71130000D02*
X68115000Y-71130000D01*
X58360000Y-68580000D02*
X61020000Y-68580000D01*
X58360000Y-68580000D02*
X58360000Y-73720000D01*
X58360000Y-73720000D02*
X61020000Y-73720000D01*
X61020000Y-68580000D02*
X61020000Y-73720000D01*
X61020000Y-65980000D02*
X61020000Y-67310000D01*
X59690000Y-65980000D02*
X61020000Y-65980000D01*
X118110000Y-62170000D02*
X119440000Y-62170000D01*
X119440000Y-62170000D02*
X119440000Y-63500000D01*
X119440000Y-64770000D02*
X119440000Y-72450000D01*
X116780000Y-72450000D02*
X119440000Y-72450000D01*
X116780000Y-64770000D02*
X116780000Y-72450000D01*
X116780000Y-64770000D02*
X119440000Y-64770000D01*
X120075000Y-90865000D02*
X120075000Y-88205000D01*
X102235000Y-90865000D02*
X120075000Y-90865000D01*
X102235000Y-88205000D02*
X120075000Y-88205000D01*
X102235000Y-90865000D02*
X102235000Y-88205000D01*
X100965000Y-90865000D02*
X99635000Y-90865000D01*
X99635000Y-90865000D02*
X99635000Y-89535000D01*
D11*
X105640476Y-83867380D02*
X105640476Y-82867380D01*
X105973809Y-83581666D01*
X106307142Y-82867380D01*
X106307142Y-83867380D01*
X106926190Y-83867380D02*
X106830952Y-83819761D01*
X106783333Y-83772142D01*
X106735714Y-83676904D01*
X106735714Y-83391190D01*
X106783333Y-83295952D01*
X106830952Y-83248333D01*
X106926190Y-83200714D01*
X107069047Y-83200714D01*
X107164285Y-83248333D01*
X107211904Y-83295952D01*
X107259523Y-83391190D01*
X107259523Y-83676904D01*
X107211904Y-83772142D01*
X107164285Y-83819761D01*
X107069047Y-83867380D01*
X106926190Y-83867380D01*
X107545238Y-83200714D02*
X107926190Y-83200714D01*
X107688095Y-82867380D02*
X107688095Y-83724523D01*
X107735714Y-83819761D01*
X107830952Y-83867380D01*
X107926190Y-83867380D01*
X108402380Y-83867380D02*
X108307142Y-83819761D01*
X108259523Y-83772142D01*
X108211904Y-83676904D01*
X108211904Y-83391190D01*
X108259523Y-83295952D01*
X108307142Y-83248333D01*
X108402380Y-83200714D01*
X108545238Y-83200714D01*
X108640476Y-83248333D01*
X108688095Y-83295952D01*
X108735714Y-83391190D01*
X108735714Y-83676904D01*
X108688095Y-83772142D01*
X108640476Y-83819761D01*
X108545238Y-83867380D01*
X108402380Y-83867380D01*
X109164285Y-83867380D02*
X109164285Y-83200714D01*
X109164285Y-83391190D02*
X109211904Y-83295952D01*
X109259523Y-83248333D01*
X109354761Y-83200714D01*
X109450000Y-83200714D01*
X109735714Y-82962619D02*
X109783333Y-82915000D01*
X109878571Y-82867380D01*
X110116666Y-82867380D01*
X110211904Y-82915000D01*
X110259523Y-82962619D01*
X110307142Y-83057857D01*
X110307142Y-83153095D01*
X110259523Y-83295952D01*
X109688095Y-83867380D01*
X110307142Y-83867380D01*
X45191905Y-51851381D02*
X45858572Y-52851381D01*
X45858572Y-51851381D02*
X45191905Y-52851381D01*
X46191905Y-52565667D02*
X46668096Y-52565667D01*
X46096667Y-52851381D02*
X46430001Y-51851381D01*
X46763334Y-52851381D01*
X47620477Y-52851381D02*
X47049048Y-52851381D01*
X47334762Y-52851381D02*
X47334762Y-51851381D01*
X47239524Y-51994239D01*
X47144286Y-52089477D01*
X47049048Y-52137096D01*
X106374001Y-75108143D02*
X106421620Y-75155762D01*
X106374001Y-75203381D01*
X106326381Y-75155762D01*
X106374001Y-75108143D01*
X106374001Y-75203381D01*
X64917380Y-63734047D02*
X64917380Y-63638809D01*
X64965000Y-63543571D01*
X65012619Y-63495952D01*
X65107857Y-63448333D01*
X65298333Y-63400714D01*
X65536428Y-63400714D01*
X65726904Y-63448333D01*
X65822142Y-63495952D01*
X65869761Y-63543571D01*
X65917380Y-63638809D01*
X65917380Y-63734047D01*
X65869761Y-63829285D01*
X65822142Y-63876904D01*
X65726904Y-63924523D01*
X65536428Y-63972142D01*
X65298333Y-63972142D01*
X65107857Y-63924523D01*
X65012619Y-63876904D01*
X64965000Y-63829285D01*
X64917380Y-63734047D01*
X65822142Y-62972142D02*
X65869761Y-62924523D01*
X65917380Y-62972142D01*
X65869761Y-63019761D01*
X65822142Y-62972142D01*
X65917380Y-62972142D01*
X65917380Y-61972142D02*
X65917380Y-62543571D01*
X65917380Y-62257857D02*
X64917380Y-62257857D01*
X65060238Y-62353095D01*
X65155476Y-62448333D01*
X65203095Y-62543571D01*
X65250714Y-61115000D02*
X65917380Y-61115000D01*
X65250714Y-61543571D02*
X65774523Y-61543571D01*
X65869761Y-61495952D01*
X65917380Y-61400714D01*
X65917380Y-61257857D01*
X65869761Y-61162619D01*
X65822142Y-61115000D01*
X65393571Y-60305476D02*
X65393571Y-60638809D01*
X65917380Y-60638809D02*
X64917380Y-60638809D01*
X64917380Y-60162619D01*
X65917380Y-59257857D02*
X65917380Y-59829285D01*
X65917380Y-59543571D02*
X64917380Y-59543571D01*
X65060238Y-59638809D01*
X65155476Y-59734047D01*
X65203095Y-59829285D01*
X58567380Y-63734047D02*
X58567380Y-63638809D01*
X58615000Y-63543571D01*
X58662619Y-63495952D01*
X58757857Y-63448333D01*
X58948333Y-63400714D01*
X59186428Y-63400714D01*
X59376904Y-63448333D01*
X59472142Y-63495952D01*
X59519761Y-63543571D01*
X59567380Y-63638809D01*
X59567380Y-63734047D01*
X59519761Y-63829285D01*
X59472142Y-63876904D01*
X59376904Y-63924523D01*
X59186428Y-63972142D01*
X58948333Y-63972142D01*
X58757857Y-63924523D01*
X58662619Y-63876904D01*
X58615000Y-63829285D01*
X58567380Y-63734047D01*
X59472142Y-62972142D02*
X59519761Y-62924523D01*
X59567380Y-62972142D01*
X59519761Y-63019761D01*
X59472142Y-62972142D01*
X59567380Y-62972142D01*
X59567380Y-61972142D02*
X59567380Y-62543571D01*
X59567380Y-62257857D02*
X58567380Y-62257857D01*
X58710238Y-62353095D01*
X58805476Y-62448333D01*
X58853095Y-62543571D01*
X58900714Y-61115000D02*
X59567380Y-61115000D01*
X58900714Y-61543571D02*
X59424523Y-61543571D01*
X59519761Y-61495952D01*
X59567380Y-61400714D01*
X59567380Y-61257857D01*
X59519761Y-61162619D01*
X59472142Y-61115000D01*
X59043571Y-60305476D02*
X59043571Y-60638809D01*
X59567380Y-60638809D02*
X58567380Y-60638809D01*
X58567380Y-60162619D01*
X58662619Y-59829285D02*
X58615000Y-59781666D01*
X58567380Y-59686428D01*
X58567380Y-59448333D01*
X58615000Y-59353095D01*
X58662619Y-59305476D01*
X58757857Y-59257857D01*
X58853095Y-59257857D01*
X58995952Y-59305476D01*
X59567380Y-59876904D01*
X59567380Y-59257857D01*
X89202380Y-93448095D02*
X88202380Y-93448095D01*
X88202380Y-93210000D01*
X88250000Y-93067142D01*
X88345238Y-92971904D01*
X88440476Y-92924285D01*
X88630952Y-92876666D01*
X88773809Y-92876666D01*
X88964285Y-92924285D01*
X89059523Y-92971904D01*
X89154761Y-93067142D01*
X89202380Y-93210000D01*
X89202380Y-93448095D01*
X89202380Y-91924285D02*
X89202380Y-92495714D01*
X89202380Y-92210000D02*
X88202380Y-92210000D01*
X88345238Y-92305238D01*
X88440476Y-92400476D01*
X88488095Y-92495714D01*
X82852380Y-93448095D02*
X81852380Y-93448095D01*
X81852380Y-93210000D01*
X81900000Y-93067142D01*
X81995238Y-92971904D01*
X82090476Y-92924285D01*
X82280952Y-92876666D01*
X82423809Y-92876666D01*
X82614285Y-92924285D01*
X82709523Y-92971904D01*
X82804761Y-93067142D01*
X82852380Y-93210000D01*
X82852380Y-93448095D01*
X81947619Y-92495714D02*
X81900000Y-92448095D01*
X81852380Y-92352857D01*
X81852380Y-92114761D01*
X81900000Y-92019523D01*
X81947619Y-91971904D01*
X82042857Y-91924285D01*
X82138095Y-91924285D01*
X82280952Y-91971904D01*
X82852380Y-92543333D01*
X82852380Y-91924285D01*
X76502380Y-93448095D02*
X75502380Y-93448095D01*
X75502380Y-93210000D01*
X75550000Y-93067142D01*
X75645238Y-92971904D01*
X75740476Y-92924285D01*
X75930952Y-92876666D01*
X76073809Y-92876666D01*
X76264285Y-92924285D01*
X76359523Y-92971904D01*
X76454761Y-93067142D01*
X76502380Y-93210000D01*
X76502380Y-93448095D01*
X75502380Y-92543333D02*
X75502380Y-91924285D01*
X75883333Y-92257619D01*
X75883333Y-92114761D01*
X75930952Y-92019523D01*
X75978571Y-91971904D01*
X76073809Y-91924285D01*
X76311904Y-91924285D01*
X76407142Y-91971904D01*
X76454761Y-92019523D01*
X76502380Y-92114761D01*
X76502380Y-92400476D01*
X76454761Y-92495714D01*
X76407142Y-92543333D01*
X70152380Y-93448095D02*
X69152380Y-93448095D01*
X69152380Y-93210000D01*
X69200000Y-93067142D01*
X69295238Y-92971904D01*
X69390476Y-92924285D01*
X69580952Y-92876666D01*
X69723809Y-92876666D01*
X69914285Y-92924285D01*
X70009523Y-92971904D01*
X70104761Y-93067142D01*
X70152380Y-93210000D01*
X70152380Y-93448095D01*
X69485714Y-92019523D02*
X70152380Y-92019523D01*
X69104761Y-92257619D02*
X69819047Y-92495714D01*
X69819047Y-91876666D01*
X58951904Y-84757380D02*
X58951904Y-83757380D01*
X59190000Y-83757380D01*
X59332857Y-83805000D01*
X59428095Y-83900238D01*
X59475714Y-83995476D01*
X59523333Y-84185952D01*
X59523333Y-84328809D01*
X59475714Y-84519285D01*
X59428095Y-84614523D01*
X59332857Y-84709761D01*
X59190000Y-84757380D01*
X58951904Y-84757380D01*
X60428095Y-83757380D02*
X59951904Y-83757380D01*
X59904285Y-84233571D01*
X59951904Y-84185952D01*
X60047142Y-84138333D01*
X60285238Y-84138333D01*
X60380476Y-84185952D01*
X60428095Y-84233571D01*
X60475714Y-84328809D01*
X60475714Y-84566904D01*
X60428095Y-84662142D01*
X60380476Y-84709761D01*
X60285238Y-84757380D01*
X60047142Y-84757380D01*
X59951904Y-84709761D01*
X59904285Y-84662142D01*
X51966904Y-84757380D02*
X51966904Y-83757380D01*
X52205000Y-83757380D01*
X52347857Y-83805000D01*
X52443095Y-83900238D01*
X52490714Y-83995476D01*
X52538333Y-84185952D01*
X52538333Y-84328809D01*
X52490714Y-84519285D01*
X52443095Y-84614523D01*
X52347857Y-84709761D01*
X52205000Y-84757380D01*
X51966904Y-84757380D01*
X53395476Y-83757380D02*
X53205000Y-83757380D01*
X53109761Y-83805000D01*
X53062142Y-83852619D01*
X52966904Y-83995476D01*
X52919285Y-84185952D01*
X52919285Y-84566904D01*
X52966904Y-84662142D01*
X53014523Y-84709761D01*
X53109761Y-84757380D01*
X53300238Y-84757380D01*
X53395476Y-84709761D01*
X53443095Y-84662142D01*
X53490714Y-84566904D01*
X53490714Y-84328809D01*
X53443095Y-84233571D01*
X53395476Y-84185952D01*
X53300238Y-84138333D01*
X53109761Y-84138333D01*
X53014523Y-84185952D01*
X52966904Y-84233571D01*
X52919285Y-84328809D01*
X126960714Y-71913571D02*
X127294047Y-71913571D01*
X127436904Y-72437380D02*
X126960714Y-72437380D01*
X126960714Y-71437380D01*
X127436904Y-71437380D01*
X127865476Y-71770714D02*
X127865476Y-72437380D01*
X127865476Y-71865952D02*
X127913095Y-71818333D01*
X128008333Y-71770714D01*
X128151190Y-71770714D01*
X128246428Y-71818333D01*
X128294047Y-71913571D01*
X128294047Y-72437380D01*
X129198809Y-72389761D02*
X129103571Y-72437380D01*
X128913095Y-72437380D01*
X128817857Y-72389761D01*
X128770238Y-72342142D01*
X128722619Y-72246904D01*
X128722619Y-71961190D01*
X128770238Y-71865952D01*
X128817857Y-71818333D01*
X128913095Y-71770714D01*
X129103571Y-71770714D01*
X129198809Y-71818333D01*
X129770238Y-72437380D02*
X129675000Y-72389761D01*
X129627380Y-72342142D01*
X129579761Y-72246904D01*
X129579761Y-71961190D01*
X129627380Y-71865952D01*
X129675000Y-71818333D01*
X129770238Y-71770714D01*
X129913095Y-71770714D01*
X130008333Y-71818333D01*
X130055952Y-71865952D01*
X130103571Y-71961190D01*
X130103571Y-72246904D01*
X130055952Y-72342142D01*
X130008333Y-72389761D01*
X129913095Y-72437380D01*
X129770238Y-72437380D01*
X130960714Y-72437380D02*
X130960714Y-71437380D01*
X130960714Y-72389761D02*
X130865476Y-72437380D01*
X130675000Y-72437380D01*
X130579761Y-72389761D01*
X130532142Y-72342142D01*
X130484523Y-72246904D01*
X130484523Y-71961190D01*
X130532142Y-71865952D01*
X130579761Y-71818333D01*
X130675000Y-71770714D01*
X130865476Y-71770714D01*
X130960714Y-71818333D01*
X131817857Y-72389761D02*
X131722619Y-72437380D01*
X131532142Y-72437380D01*
X131436904Y-72389761D01*
X131389285Y-72294523D01*
X131389285Y-71913571D01*
X131436904Y-71818333D01*
X131532142Y-71770714D01*
X131722619Y-71770714D01*
X131817857Y-71818333D01*
X131865476Y-71913571D01*
X131865476Y-72008809D01*
X131389285Y-72104047D01*
X132294047Y-72437380D02*
X132294047Y-71770714D01*
X132294047Y-71961190D02*
X132341666Y-71865952D01*
X132389285Y-71818333D01*
X132484523Y-71770714D01*
X132579761Y-71770714D01*
X133436904Y-72437380D02*
X132865476Y-72437380D01*
X133151190Y-72437380D02*
X133151190Y-71437380D01*
X133055952Y-71580238D01*
X132960714Y-71675476D01*
X132865476Y-71723095D01*
X123785714Y-84613571D02*
X124119047Y-84613571D01*
X124261904Y-85137380D02*
X123785714Y-85137380D01*
X123785714Y-84137380D01*
X124261904Y-84137380D01*
X124690476Y-84470714D02*
X124690476Y-85137380D01*
X124690476Y-84565952D02*
X124738095Y-84518333D01*
X124833333Y-84470714D01*
X124976190Y-84470714D01*
X125071428Y-84518333D01*
X125119047Y-84613571D01*
X125119047Y-85137380D01*
X126023809Y-85089761D02*
X125928571Y-85137380D01*
X125738095Y-85137380D01*
X125642857Y-85089761D01*
X125595238Y-85042142D01*
X125547619Y-84946904D01*
X125547619Y-84661190D01*
X125595238Y-84565952D01*
X125642857Y-84518333D01*
X125738095Y-84470714D01*
X125928571Y-84470714D01*
X126023809Y-84518333D01*
X126595238Y-85137380D02*
X126500000Y-85089761D01*
X126452380Y-85042142D01*
X126404761Y-84946904D01*
X126404761Y-84661190D01*
X126452380Y-84565952D01*
X126500000Y-84518333D01*
X126595238Y-84470714D01*
X126738095Y-84470714D01*
X126833333Y-84518333D01*
X126880952Y-84565952D01*
X126928571Y-84661190D01*
X126928571Y-84946904D01*
X126880952Y-85042142D01*
X126833333Y-85089761D01*
X126738095Y-85137380D01*
X126595238Y-85137380D01*
X127785714Y-85137380D02*
X127785714Y-84137380D01*
X127785714Y-85089761D02*
X127690476Y-85137380D01*
X127500000Y-85137380D01*
X127404761Y-85089761D01*
X127357142Y-85042142D01*
X127309523Y-84946904D01*
X127309523Y-84661190D01*
X127357142Y-84565952D01*
X127404761Y-84518333D01*
X127500000Y-84470714D01*
X127690476Y-84470714D01*
X127785714Y-84518333D01*
X128642857Y-85089761D02*
X128547619Y-85137380D01*
X128357142Y-85137380D01*
X128261904Y-85089761D01*
X128214285Y-84994523D01*
X128214285Y-84613571D01*
X128261904Y-84518333D01*
X128357142Y-84470714D01*
X128547619Y-84470714D01*
X128642857Y-84518333D01*
X128690476Y-84613571D01*
X128690476Y-84708809D01*
X128214285Y-84804047D01*
X129119047Y-85137380D02*
X129119047Y-84470714D01*
X129119047Y-84661190D02*
X129166666Y-84565952D01*
X129214285Y-84518333D01*
X129309523Y-84470714D01*
X129404761Y-84470714D01*
X129690476Y-84232619D02*
X129738095Y-84185000D01*
X129833333Y-84137380D01*
X130071428Y-84137380D01*
X130166666Y-84185000D01*
X130214285Y-84232619D01*
X130261904Y-84327857D01*
X130261904Y-84423095D01*
X130214285Y-84565952D01*
X129642857Y-85137380D01*
X130261904Y-85137380D01*
X122856666Y-102552380D02*
X122856666Y-103266666D01*
X122809047Y-103409523D01*
X122713809Y-103504761D01*
X122570952Y-103552380D01*
X122475714Y-103552380D01*
X123285238Y-102647619D02*
X123332857Y-102600000D01*
X123428095Y-102552380D01*
X123666190Y-102552380D01*
X123761428Y-102600000D01*
X123809047Y-102647619D01*
X123856666Y-102742857D01*
X123856666Y-102838095D01*
X123809047Y-102980952D01*
X123237619Y-103552380D01*
X123856666Y-103552380D01*
X97385476Y-83867380D02*
X97385476Y-82867380D01*
X97718809Y-83581666D01*
X98052142Y-82867380D01*
X98052142Y-83867380D01*
X98671190Y-83867380D02*
X98575952Y-83819761D01*
X98528333Y-83772142D01*
X98480714Y-83676904D01*
X98480714Y-83391190D01*
X98528333Y-83295952D01*
X98575952Y-83248333D01*
X98671190Y-83200714D01*
X98814047Y-83200714D01*
X98909285Y-83248333D01*
X98956904Y-83295952D01*
X99004523Y-83391190D01*
X99004523Y-83676904D01*
X98956904Y-83772142D01*
X98909285Y-83819761D01*
X98814047Y-83867380D01*
X98671190Y-83867380D01*
X99290238Y-83200714D02*
X99671190Y-83200714D01*
X99433095Y-82867380D02*
X99433095Y-83724523D01*
X99480714Y-83819761D01*
X99575952Y-83867380D01*
X99671190Y-83867380D01*
X100147380Y-83867380D02*
X100052142Y-83819761D01*
X100004523Y-83772142D01*
X99956904Y-83676904D01*
X99956904Y-83391190D01*
X100004523Y-83295952D01*
X100052142Y-83248333D01*
X100147380Y-83200714D01*
X100290238Y-83200714D01*
X100385476Y-83248333D01*
X100433095Y-83295952D01*
X100480714Y-83391190D01*
X100480714Y-83676904D01*
X100433095Y-83772142D01*
X100385476Y-83819761D01*
X100290238Y-83867380D01*
X100147380Y-83867380D01*
X100909285Y-83867380D02*
X100909285Y-83200714D01*
X100909285Y-83391190D02*
X100956904Y-83295952D01*
X101004523Y-83248333D01*
X101099761Y-83200714D01*
X101195000Y-83200714D01*
X102052142Y-83867380D02*
X101480714Y-83867380D01*
X101766428Y-83867380D02*
X101766428Y-82867380D01*
X101671190Y-83010238D01*
X101575952Y-83105476D01*
X101480714Y-83153095D01*
X47722380Y-72322380D02*
X46722380Y-72322380D01*
X46722380Y-71941428D01*
X46770000Y-71846190D01*
X46817619Y-71798571D01*
X46912857Y-71750952D01*
X47055714Y-71750952D01*
X47150952Y-71798571D01*
X47198571Y-71846190D01*
X47246190Y-71941428D01*
X47246190Y-72322380D01*
X47722380Y-71179523D02*
X47674761Y-71274761D01*
X47627142Y-71322380D01*
X47531904Y-71370000D01*
X47246190Y-71370000D01*
X47150952Y-71322380D01*
X47103333Y-71274761D01*
X47055714Y-71179523D01*
X47055714Y-71036666D01*
X47103333Y-70941428D01*
X47150952Y-70893809D01*
X47246190Y-70846190D01*
X47531904Y-70846190D01*
X47627142Y-70893809D01*
X47674761Y-70941428D01*
X47722380Y-71036666D01*
X47722380Y-71179523D01*
X47055714Y-70512857D02*
X47722380Y-70322380D01*
X47246190Y-70131904D01*
X47722380Y-69941428D01*
X47055714Y-69750952D01*
X47674761Y-68989047D02*
X47722380Y-69084285D01*
X47722380Y-69274761D01*
X47674761Y-69370000D01*
X47579523Y-69417619D01*
X47198571Y-69417619D01*
X47103333Y-69370000D01*
X47055714Y-69274761D01*
X47055714Y-69084285D01*
X47103333Y-68989047D01*
X47198571Y-68941428D01*
X47293809Y-68941428D01*
X47389047Y-69417619D01*
X47722380Y-68512857D02*
X47055714Y-68512857D01*
X47246190Y-68512857D02*
X47150952Y-68465238D01*
X47103333Y-68417619D01*
X47055714Y-68322380D01*
X47055714Y-68227142D01*
X47722380Y-67370000D02*
X47722380Y-67941428D01*
X47722380Y-67655714D02*
X46722380Y-67655714D01*
X46865238Y-67750952D01*
X46960476Y-67846190D01*
X47008095Y-67941428D01*
X86432380Y-76366666D02*
X85956190Y-76700000D01*
X86432380Y-76938095D02*
X85432380Y-76938095D01*
X85432380Y-76557142D01*
X85480000Y-76461904D01*
X85527619Y-76414285D01*
X85622857Y-76366666D01*
X85765714Y-76366666D01*
X85860952Y-76414285D01*
X85908571Y-76461904D01*
X85956190Y-76557142D01*
X85956190Y-76938095D01*
X86432380Y-75414285D02*
X86432380Y-75985714D01*
X86432380Y-75700000D02*
X85432380Y-75700000D01*
X85575238Y-75795238D01*
X85670476Y-75890476D01*
X85718095Y-75985714D01*
X82622380Y-76366666D02*
X82146190Y-76700000D01*
X82622380Y-76938095D02*
X81622380Y-76938095D01*
X81622380Y-76557142D01*
X81670000Y-76461904D01*
X81717619Y-76414285D01*
X81812857Y-76366666D01*
X81955714Y-76366666D01*
X82050952Y-76414285D01*
X82098571Y-76461904D01*
X82146190Y-76557142D01*
X82146190Y-76938095D01*
X81717619Y-75985714D02*
X81670000Y-75938095D01*
X81622380Y-75842857D01*
X81622380Y-75604761D01*
X81670000Y-75509523D01*
X81717619Y-75461904D01*
X81812857Y-75414285D01*
X81908095Y-75414285D01*
X82050952Y-75461904D01*
X82622380Y-76033333D01*
X82622380Y-75414285D01*
X78812380Y-76366666D02*
X78336190Y-76700000D01*
X78812380Y-76938095D02*
X77812380Y-76938095D01*
X77812380Y-76557142D01*
X77860000Y-76461904D01*
X77907619Y-76414285D01*
X78002857Y-76366666D01*
X78145714Y-76366666D01*
X78240952Y-76414285D01*
X78288571Y-76461904D01*
X78336190Y-76557142D01*
X78336190Y-76938095D01*
X77812380Y-76033333D02*
X77812380Y-75414285D01*
X78193333Y-75747619D01*
X78193333Y-75604761D01*
X78240952Y-75509523D01*
X78288571Y-75461904D01*
X78383809Y-75414285D01*
X78621904Y-75414285D01*
X78717142Y-75461904D01*
X78764761Y-75509523D01*
X78812380Y-75604761D01*
X78812380Y-75890476D01*
X78764761Y-75985714D01*
X78717142Y-76033333D01*
X75002380Y-76366666D02*
X74526190Y-76700000D01*
X75002380Y-76938095D02*
X74002380Y-76938095D01*
X74002380Y-76557142D01*
X74050000Y-76461904D01*
X74097619Y-76414285D01*
X74192857Y-76366666D01*
X74335714Y-76366666D01*
X74430952Y-76414285D01*
X74478571Y-76461904D01*
X74526190Y-76557142D01*
X74526190Y-76938095D01*
X74335714Y-75509523D02*
X75002380Y-75509523D01*
X73954761Y-75747619D02*
X74669047Y-75985714D01*
X74669047Y-75366666D01*
X70557380Y-76366666D02*
X70081190Y-76700000D01*
X70557380Y-76938095D02*
X69557380Y-76938095D01*
X69557380Y-76557142D01*
X69605000Y-76461904D01*
X69652619Y-76414285D01*
X69747857Y-76366666D01*
X69890714Y-76366666D01*
X69985952Y-76414285D01*
X70033571Y-76461904D01*
X70081190Y-76557142D01*
X70081190Y-76938095D01*
X69557380Y-75461904D02*
X69557380Y-75938095D01*
X70033571Y-75985714D01*
X69985952Y-75938095D01*
X69938333Y-75842857D01*
X69938333Y-75604761D01*
X69985952Y-75509523D01*
X70033571Y-75461904D01*
X70128809Y-75414285D01*
X70366904Y-75414285D01*
X70462142Y-75461904D01*
X70509761Y-75509523D01*
X70557380Y-75604761D01*
X70557380Y-75842857D01*
X70509761Y-75938095D01*
X70462142Y-75985714D01*
X64207380Y-76366666D02*
X63731190Y-76700000D01*
X64207380Y-76938095D02*
X63207380Y-76938095D01*
X63207380Y-76557142D01*
X63255000Y-76461904D01*
X63302619Y-76414285D01*
X63397857Y-76366666D01*
X63540714Y-76366666D01*
X63635952Y-76414285D01*
X63683571Y-76461904D01*
X63731190Y-76557142D01*
X63731190Y-76938095D01*
X63207380Y-75509523D02*
X63207380Y-75700000D01*
X63255000Y-75795238D01*
X63302619Y-75842857D01*
X63445476Y-75938095D01*
X63635952Y-75985714D01*
X64016904Y-75985714D01*
X64112142Y-75938095D01*
X64159761Y-75890476D01*
X64207380Y-75795238D01*
X64207380Y-75604761D01*
X64159761Y-75509523D01*
X64112142Y-75461904D01*
X64016904Y-75414285D01*
X63778809Y-75414285D01*
X63683571Y-75461904D01*
X63635952Y-75509523D01*
X63588333Y-75604761D01*
X63588333Y-75795238D01*
X63635952Y-75890476D01*
X63683571Y-75938095D01*
X63778809Y-75985714D01*
X56999523Y-64944761D02*
X57142380Y-64992380D01*
X57380476Y-64992380D01*
X57475714Y-64944761D01*
X57523333Y-64897142D01*
X57570952Y-64801904D01*
X57570952Y-64706666D01*
X57523333Y-64611428D01*
X57475714Y-64563809D01*
X57380476Y-64516190D01*
X57190000Y-64468571D01*
X57094761Y-64420952D01*
X57047142Y-64373333D01*
X56999523Y-64278095D01*
X56999523Y-64182857D01*
X57047142Y-64087619D01*
X57094761Y-64040000D01*
X57190000Y-63992380D01*
X57428095Y-63992380D01*
X57570952Y-64040000D01*
X57904285Y-64325714D02*
X58094761Y-64992380D01*
X58285238Y-64516190D01*
X58475714Y-64992380D01*
X58666190Y-64325714D01*
X59047142Y-64992380D02*
X59047142Y-64325714D01*
X59047142Y-63992380D02*
X58999523Y-64040000D01*
X59047142Y-64087619D01*
X59094761Y-64040000D01*
X59047142Y-63992380D01*
X59047142Y-64087619D01*
X59380476Y-64325714D02*
X59761428Y-64325714D01*
X59523333Y-63992380D02*
X59523333Y-64849523D01*
X59570952Y-64944761D01*
X59666190Y-64992380D01*
X59761428Y-64992380D01*
X60523333Y-64944761D02*
X60428095Y-64992380D01*
X60237619Y-64992380D01*
X60142380Y-64944761D01*
X60094761Y-64897142D01*
X60047142Y-64801904D01*
X60047142Y-64516190D01*
X60094761Y-64420952D01*
X60142380Y-64373333D01*
X60237619Y-64325714D01*
X60428095Y-64325714D01*
X60523333Y-64373333D01*
X60951904Y-64992380D02*
X60951904Y-63992380D01*
X61380476Y-64992380D02*
X61380476Y-64468571D01*
X61332857Y-64373333D01*
X61237619Y-64325714D01*
X61094761Y-64325714D01*
X60999523Y-64373333D01*
X60951904Y-64420952D01*
X62380476Y-64992380D02*
X61809047Y-64992380D01*
X62094761Y-64992380D02*
X62094761Y-63992380D01*
X61999523Y-64135238D01*
X61904285Y-64230476D01*
X61809047Y-64278095D01*
X115657619Y-61134761D02*
X115800476Y-61182380D01*
X116038571Y-61182380D01*
X116133809Y-61134761D01*
X116181428Y-61087142D01*
X116229047Y-60991904D01*
X116229047Y-60896666D01*
X116181428Y-60801428D01*
X116133809Y-60753809D01*
X116038571Y-60706190D01*
X115848095Y-60658571D01*
X115752857Y-60610952D01*
X115705238Y-60563333D01*
X115657619Y-60468095D01*
X115657619Y-60372857D01*
X115705238Y-60277619D01*
X115752857Y-60230000D01*
X115848095Y-60182380D01*
X116086190Y-60182380D01*
X116229047Y-60230000D01*
X117038571Y-61134761D02*
X116943333Y-61182380D01*
X116752857Y-61182380D01*
X116657619Y-61134761D01*
X116610000Y-61039523D01*
X116610000Y-60658571D01*
X116657619Y-60563333D01*
X116752857Y-60515714D01*
X116943333Y-60515714D01*
X117038571Y-60563333D01*
X117086190Y-60658571D01*
X117086190Y-60753809D01*
X116610000Y-60849047D01*
X117514761Y-61182380D02*
X117514761Y-60515714D01*
X117514761Y-60706190D02*
X117562380Y-60610952D01*
X117610000Y-60563333D01*
X117705238Y-60515714D01*
X117800476Y-60515714D01*
X118133809Y-61182380D02*
X118133809Y-60515714D01*
X118133809Y-60182380D02*
X118086190Y-60230000D01*
X118133809Y-60277619D01*
X118181428Y-60230000D01*
X118133809Y-60182380D01*
X118133809Y-60277619D01*
X119038571Y-61182380D02*
X119038571Y-60658571D01*
X118990952Y-60563333D01*
X118895714Y-60515714D01*
X118705238Y-60515714D01*
X118610000Y-60563333D01*
X119038571Y-61134761D02*
X118943333Y-61182380D01*
X118705238Y-61182380D01*
X118610000Y-61134761D01*
X118562380Y-61039523D01*
X118562380Y-60944285D01*
X118610000Y-60849047D01*
X118705238Y-60801428D01*
X118943333Y-60801428D01*
X119038571Y-60753809D01*
X119657619Y-61182380D02*
X119562380Y-61134761D01*
X119514761Y-61039523D01*
X119514761Y-60182380D01*
X120562380Y-61182380D02*
X119990952Y-61182380D01*
X120276666Y-61182380D02*
X120276666Y-60182380D01*
X120181428Y-60325238D01*
X120086190Y-60420476D01*
X119990952Y-60468095D01*
X98087380Y-89868333D02*
X98801666Y-89868333D01*
X98944523Y-89915952D01*
X99039761Y-90011190D01*
X99087380Y-90154047D01*
X99087380Y-90249285D01*
X99087380Y-88868333D02*
X99087380Y-89439761D01*
X99087380Y-89154047D02*
X98087380Y-89154047D01*
X98230238Y-89249285D01*
X98325476Y-89344523D01*
X98373095Y-89439761D01*
M02*
