M48
; DRILL file {KiCad (5.1.4)-1} date 12/14/2020 11:09:47 AM
; FORMAT={-:-/ absolute / inch / decimal}
; #@! TF.CreationDate,2020-12-14T11:09:47+07:00
; #@! TF.GenerationSoftware,Kicad,Pcbnew,(5.1.4)-1
; #@! TF.FileFunction,Plated,1,2,PTH
FMAT,2
INCH
T1C0.0315
T2C0.0354
T3C0.0400
T4C0.0472
T5C0.0598
%
G90
G05
T1
X4.375Y-2.475
X4.4Y-2.975
T2
X2.025Y-3.475
X2.125Y-3.475
X3.15Y-3.6
X3.15Y-3.7
X3.65Y-3.6
X3.65Y-3.7
X2.3Y-3.475
X2.4Y-3.475
X2.9Y-3.6
X2.9Y-3.7
X3.4Y-3.6
X3.4Y-3.7
T3
X5.0Y-2.925
X5.0Y-3.025
X5.0Y-3.125
X5.0Y-3.225
X2.35Y-2.65
X2.35Y-2.75
X2.35Y-2.85
X4.65Y-2.5
X4.65Y-2.6
X4.65Y-2.7
X4.65Y-2.8
X4.85Y-3.45
X4.85Y-3.55
X4.85Y-3.65
X4.85Y-3.75
X4.85Y-3.85
X4.85Y-3.95
X2.475Y-2.3766
X2.475Y-2.475
X2.468Y-2.203
X2.568Y-2.203
X2.668Y-2.203
X2.768Y-2.203
X2.828Y-4.103
X2.868Y-2.203
X2.928Y-4.103
X2.968Y-2.203
X3.028Y-4.103
X3.068Y-2.203
X3.128Y-4.103
X3.168Y-2.203
X3.228Y-4.103
X3.268Y-2.203
X3.328Y-4.103
X3.368Y-2.203
X3.428Y-4.103
X3.528Y-2.203
X3.528Y-4.103
X3.628Y-2.203
X3.728Y-2.203
X3.728Y-4.103
X3.828Y-2.203
X3.828Y-4.103
X3.928Y-2.203
X3.928Y-4.103
X4.028Y-2.203
X4.028Y-4.103
X4.128Y-2.203
X4.128Y-4.103
X4.228Y-2.203
X4.228Y-4.103
X4.328Y-4.103
X4.428Y-2.203
X4.428Y-4.103
X4.528Y-2.203
X4.628Y-2.203
X4.628Y-4.103
X4.728Y-2.203
X4.728Y-4.103
X4.828Y-2.203
X4.828Y-4.103
X4.928Y-2.203
X4.928Y-4.103
X5.028Y-2.203
X5.028Y-4.103
X5.128Y-2.203
X5.128Y-4.103
X5.228Y-4.103
X5.328Y-4.103
X5.428Y-2.203
X5.428Y-2.303
X5.428Y-2.403
X5.428Y-2.503
X5.428Y-2.603
X5.428Y-2.703
X5.428Y-2.803
X5.428Y-2.903
X5.428Y-3.003
X5.428Y-3.103
X5.428Y-3.203
X5.428Y-3.303
X5.428Y-3.403
X5.428Y-3.503
X5.428Y-3.603
X5.428Y-3.703
X5.428Y-3.803
X5.428Y-3.903
X5.528Y-2.203
X5.528Y-2.303
X5.528Y-2.403
X5.528Y-2.503
X5.528Y-2.603
X5.528Y-2.703
X5.528Y-2.803
X5.528Y-2.903
X5.528Y-3.003
X5.528Y-3.103
X5.528Y-3.203
X5.528Y-3.303
X5.528Y-3.403
X5.528Y-3.503
X5.528Y-3.603
X5.528Y-3.703
X5.528Y-3.803
X5.528Y-3.903
X3.925Y-2.675
X3.925Y-2.775
X3.925Y-2.875
X3.925Y-2.975
X3.925Y-3.075
X3.925Y-3.175
X3.975Y-3.525
X4.075Y-3.525
X4.175Y-3.525
X4.275Y-3.525
X4.375Y-3.525
X4.475Y-3.525
X4.575Y-3.525
X4.675Y-3.525
X4.25Y-2.675
X4.25Y-2.775
X4.25Y-2.875
X4.25Y-2.975
X4.25Y-3.075
X4.25Y-3.175
X2.725Y-2.3766
X2.725Y-2.475
X5.125Y-2.425
X5.125Y-2.525
X5.125Y-2.625
X5.125Y-2.725
T4
X2.875Y-2.75
X2.875Y-3.25
X3.5Y-2.75
X3.5Y-3.25
X3.2Y-2.75
X3.2Y-3.25
X3.35Y-2.75
X3.35Y-3.25
X2.625Y-2.75
X2.625Y-3.25
X3.05Y-2.75
X3.05Y-3.25
T5
X2.05Y-2.45
X2.05Y-2.65
X2.05Y-2.85
X2.05Y-3.05
T0
M30
