G04 #@! TF.GenerationSoftware,KiCad,Pcbnew,(5.1.2)-2*
G04 #@! TF.CreationDate,2019-10-19T08:53:18-10:00*
G04 #@! TF.ProjectId,differtial_robot(v2),64696666-6572-4746-9961-6c5f726f626f,rev?*
G04 #@! TF.SameCoordinates,Original*
G04 #@! TF.FileFunction,Copper,L1,Top*
G04 #@! TF.FilePolarity,Positive*
%FSLAX46Y46*%
G04 Gerber Fmt 4.6, Leading zero omitted, Abs format (unit mm)*
G04 Created by KiCad (PCBNEW (5.1.2)-2) date 2019-10-19 08:53:18*
%MOMM*%
%LPD*%
G04 APERTURE LIST*
%ADD10C,5.999480*%
%ADD11R,2.700000X1.500000*%
%ADD12R,2.000000X1.400000*%
%ADD13C,1.600000*%
%ADD14R,1.600000X1.600000*%
%ADD15R,1.800000X1.800000*%
%ADD16C,1.800000*%
%ADD17O,1.700000X1.700000*%
%ADD18R,1.700000X1.700000*%
%ADD19R,3.000000X3.000000*%
%ADD20C,3.000000*%
%ADD21O,1.600000X1.600000*%
%ADD22R,1.905000X2.000000*%
%ADD23O,1.905000X2.000000*%
%ADD24C,1.500000*%
%ADD25C,0.400000*%
%ADD26C,0.800000*%
G04 APERTURE END LIST*
D10*
X82804000Y-175768000D03*
X84074000Y-66802000D03*
X157988000Y-65786000D03*
X158242000Y-175260000D03*
D11*
X96220001Y-101875001D03*
X96220001Y-104415001D03*
X96220001Y-106955001D03*
X96220001Y-109495001D03*
X96220001Y-112035001D03*
X96220001Y-114575001D03*
X96220001Y-117115001D03*
X96220001Y-119655001D03*
X96220001Y-124735001D03*
X96220001Y-127275001D03*
X96220001Y-129815001D03*
X96220001Y-132355001D03*
X96220001Y-134895001D03*
X96220001Y-137435001D03*
X96220001Y-139975001D03*
X96220001Y-142515001D03*
X96220001Y-147595001D03*
X96220001Y-150135001D03*
X96220001Y-152675001D03*
X96220001Y-155215001D03*
X96220001Y-157755001D03*
X96220001Y-160295001D03*
X96220001Y-162581001D03*
X96220001Y-165121001D03*
D12*
X101300001Y-170455001D03*
X101300001Y-167915001D03*
X103840001Y-170455001D03*
X103840001Y-167915001D03*
X106380001Y-170455001D03*
X106380001Y-167915001D03*
X108920001Y-170455001D03*
X108920001Y-167915001D03*
X111460001Y-167915001D03*
X111460001Y-170455001D03*
X114000001Y-167915001D03*
X114000001Y-170455001D03*
X116540001Y-167915001D03*
X116540001Y-170455001D03*
X119080001Y-167915001D03*
X119080001Y-170455001D03*
X121620001Y-167915001D03*
X121620001Y-170455001D03*
X124160001Y-167915001D03*
X124160001Y-170455001D03*
X126700001Y-167915001D03*
X126700001Y-170455001D03*
X129240001Y-167915001D03*
X129240001Y-170455001D03*
X131780001Y-167915001D03*
X131780001Y-170455001D03*
X134320001Y-167915001D03*
X134320001Y-170455001D03*
X136860001Y-167915001D03*
X136860001Y-170455001D03*
X139400001Y-167915001D03*
X139400001Y-170455001D03*
X141940001Y-167915001D03*
X141940001Y-170455001D03*
X144480001Y-167915001D03*
X144480001Y-170455001D03*
D11*
X144480001Y-160295001D03*
X144480001Y-157755001D03*
X144480001Y-155215001D03*
X144480001Y-152675001D03*
X144480001Y-150135001D03*
X144480001Y-147595001D03*
X144480001Y-145055001D03*
X144480001Y-142515001D03*
X144480001Y-137435001D03*
X144480001Y-134895001D03*
X144480001Y-132355001D03*
X144480001Y-129815001D03*
X144480001Y-127275001D03*
X144480001Y-124735001D03*
X144480001Y-122195001D03*
X144480001Y-119655001D03*
X144480001Y-115591001D03*
X144480001Y-113051001D03*
X144480001Y-110511001D03*
X144480001Y-107971001D03*
X144480001Y-105431001D03*
X144480001Y-102891001D03*
X144480001Y-100351001D03*
X144480001Y-97811001D03*
X144480001Y-95271001D03*
X144480001Y-92731001D03*
D13*
X106426000Y-112236000D03*
D14*
X106426000Y-110236000D03*
X114046000Y-93218000D03*
D13*
X114046000Y-95218000D03*
X113538000Y-103600000D03*
D14*
X113538000Y-101600000D03*
X106426000Y-93980000D03*
D13*
X106426000Y-95980000D03*
D14*
X113284000Y-110522000D03*
D13*
X113284000Y-112522000D03*
X106172000Y-103600000D03*
D14*
X106172000Y-101600000D03*
D15*
X124460000Y-120650000D03*
D16*
X127000000Y-120650000D03*
X127000000Y-124460000D03*
D15*
X124460000Y-124460000D03*
D16*
X127000000Y-129540000D03*
D15*
X124460000Y-129540000D03*
X124460000Y-133350000D03*
D16*
X127000000Y-133350000D03*
D15*
X116840000Y-129032000D03*
D16*
X114300000Y-129032000D03*
X114554000Y-123952000D03*
D15*
X117094000Y-123952000D03*
D17*
X125730000Y-158750000D03*
X128270000Y-158750000D03*
X130810000Y-158750000D03*
X133350000Y-158750000D03*
X135890000Y-158750000D03*
D18*
X138430000Y-158750000D03*
X105410000Y-158750000D03*
D17*
X107950000Y-158750000D03*
X110490000Y-158750000D03*
X113030000Y-158750000D03*
X115570000Y-158750000D03*
X118110000Y-158750000D03*
D19*
X106426000Y-81534000D03*
D20*
X111506000Y-81534000D03*
D18*
X123190000Y-93980000D03*
D17*
X123190000Y-96520000D03*
X123190000Y-99060000D03*
X123190000Y-101600000D03*
X123190000Y-104140000D03*
X123190000Y-106680000D03*
X123190000Y-109220000D03*
X123190000Y-111760000D03*
D18*
X138938000Y-152400000D03*
D17*
X138938000Y-149860000D03*
X138938000Y-147320000D03*
X138938000Y-144780000D03*
D18*
X132842000Y-97536000D03*
D17*
X132842000Y-100076000D03*
X132842000Y-102616000D03*
X132842000Y-105156000D03*
X132842000Y-107696000D03*
X132842000Y-110236000D03*
X101600000Y-144780000D03*
X101600000Y-147320000D03*
X101600000Y-149860000D03*
D18*
X101600000Y-152400000D03*
D21*
X132080000Y-119380000D03*
D13*
X139700000Y-119380000D03*
X139700000Y-123190000D03*
D21*
X132080000Y-123190000D03*
X132080000Y-129540000D03*
D13*
X139700000Y-129540000D03*
X139700000Y-133350000D03*
D21*
X132080000Y-133350000D03*
D13*
X103124000Y-129032000D03*
D21*
X110744000Y-129032000D03*
X110744000Y-123952000D03*
D13*
X103124000Y-123952000D03*
D14*
X111760000Y-152400000D03*
D21*
X129540000Y-144780000D03*
X114300000Y-152400000D03*
X127000000Y-144780000D03*
X116840000Y-152400000D03*
X124460000Y-144780000D03*
X119380000Y-152400000D03*
X121920000Y-144780000D03*
X121920000Y-152400000D03*
X119380000Y-144780000D03*
X124460000Y-152400000D03*
X116840000Y-144780000D03*
X127000000Y-152400000D03*
X114300000Y-144780000D03*
X129540000Y-152400000D03*
X111760000Y-144780000D03*
D22*
X136398000Y-82296000D03*
D23*
X138938000Y-82296000D03*
X141478000Y-82296000D03*
X126746000Y-82550000D03*
X124206000Y-82550000D03*
D22*
X121666000Y-82550000D03*
D24*
X129794000Y-87884000D03*
D16*
X129540000Y-80772000D03*
D24*
X121412000Y-138684000D03*
X121412000Y-133350000D03*
X103886000Y-98552000D03*
X120142000Y-98806000D03*
X108495999Y-143980001D03*
X109009001Y-136695001D03*
D25*
X121412000Y-138684000D02*
X121412000Y-133350000D01*
X121412000Y-133350000D02*
X121412000Y-133350000D01*
D26*
X129540000Y-87630000D02*
X129794000Y-87884000D01*
X129540000Y-80772000D02*
X129540000Y-87630000D01*
X104140000Y-98806000D02*
X103886000Y-98552000D01*
X120142000Y-98806000D02*
X104140000Y-98806000D01*
X109009001Y-143466999D02*
X108495999Y-143980001D01*
X109009001Y-136695001D02*
X109009001Y-143466999D01*
M02*
