  0
SECTION
  2
HEADER
  9
$ANGBASE
  50
0.0
  9
$ANGDIR
  70
  1
  9
$MEASUREMENT
  70
0
  0
ENDSEC
  0
SECTION
  2
TABLES
  0
TABLE
  2
LTYPE
  70
4
  0
LTYPE
  5
40F
  2
CONTINUOUS
  70
0
  3
Solid line
  72
65
  73
0
  40
0.0
  0
LTYPE
  5
410
  2
DASHDOT
 70
0
  3
Dash Dot ____ _ ____ _
 72
65
 73
4
 40
2.0
 49
1.25
 49
-0.25
 49
0.25
 49
-0.25
  0
LTYPE
  5
411
  2
DASHED
 70
0
  3
Dashed __ __ __ __ __
 72
65
 73
2
 40
0.75
 49
0.5
 49
-0.25
  0
LTYPE
  5
43B
  2
DOTTED
 70
0
  3
Dotted .  .  .  .
 72
65
 73
2
 40
0.2
 49
0.0
 49
-0.2
  0
ENDTAB
  0
TABLE
  2
STYLE
  70
4
  0
STYLE
  2
KICAD
  70
0
  40
0
  41
1
  42
1
  50
0
  71
0
  3
isocp.shx
  0
STYLE
  2
KICADB
  70
0
  40
0
  41
1
  42
1
  50
0
  71
0
  3
isocp.shx
  0
STYLE
  2
KICADI
  70
0
  40
0
  41
1
  42
1
  50
15
  71
0
  3
isocp.shx
  0
STYLE
  2
KICADBI
  70
0
  40
0
  41
1
  42
1
  50
15
  71
0
  3
isocp.shx
  0
ENDTAB
  0
TABLE
  2
LAYER
  70
30
  0
LAYER
  2
BLACK
  70
0
  62
7
  6
CONTINUOUS
  0
LAYER
  2
GRAY1
  70
0
  62
251
  6
CONTINUOUS
  0
LAYER
  2
GRAY2
  70
0
  62
8
  6
CONTINUOUS
  0
LAYER
  2
GRAY3
  70
0
  62
9
  6
CONTINUOUS
  0
LAYER
  2
WHITE
  70
0
  62
7
  6
CONTINUOUS
  0
LAYER
  2
LYELLOW
  70
0
  62
51
  6
CONTINUOUS
  0
LAYER
  2
BLUE1
  70
0
  62
178
  6
CONTINUOUS
  0
LAYER
  2
GREEN1
  70
0
  62
98
  6
CONTINUOUS
  0
LAYER
  2
CYAN1
  70
0
  62
138
  6
CONTINUOUS
  0
LAYER
  2
RED1
  70
0
  62
18
  6
CONTINUOUS
  0
LAYER
  2
MAGENTA1
  70
0
  62
228
  6
CONTINUOUS
  0
LAYER
  2
BROWN1
  70
0
  62
58
  6
CONTINUOUS
  0
LAYER
  2
BLUE2
  70
0
  62
5
  6
CONTINUOUS
  0
LAYER
  2
GREEN2
  70
0
  62
3
  6
CONTINUOUS
  0
LAYER
  2
CYAN2
  70
0
  62
4
  6
CONTINUOUS
  0
LAYER
  2
RED2
  70
0
  62
1
  6
CONTINUOUS
  0
LAYER
  2
MAGENTA2
  70
0
  62
6
  6
CONTINUOUS
  0
LAYER
  2
BROWN2
  70
0
  62
54
  6
CONTINUOUS
  0
LAYER
  2
BLUE3
  70
0
  62
171
  6
CONTINUOUS
  0
LAYER
  2
GREEN3
  70
0
  62
91
  6
CONTINUOUS
  0
LAYER
  2
CYAN3
  70
0
  62
131
  6
CONTINUOUS
  0
LAYER
  2
RED3
  70
0
  62
11
  6
CONTINUOUS
  0
LAYER
  2
MAGENTA3
  70
0
  62
221
  6
CONTINUOUS
  0
LAYER
  2
YELLOW3
  70
0
  62
2
  6
CONTINUOUS
  0
LAYER
  2
BLUE4
  70
0
  62
5
  6
CONTINUOUS
  0
LAYER
  2
GREEN4
  70
0
  62
3
  6
CONTINUOUS
  0
LAYER
  2
CYAN4
  70
0
  62
4
  6
CONTINUOUS
  0
LAYER
  2
RED4
  70
0
  62
1
  6
CONTINUOUS
  0
LAYER
  2
MAGENTA4
  70
0
  62
6
  6
CONTINUOUS
  0
LAYER
  2
YELLOW4
  70
0
  62
2
  6
CONTINUOUS
  0
ENDTAB
  0
ENDSEC
  0
SECTION
  2
ENTITIES
0
LINE
8
BLACK
6
CONTINUOUS
10
76.2012
20
-58.395
11
164.591
21
-58.395
0
LINE
8
BLACK
6
CONTINUOUS
10
164.591
20
-58.395
11
164.592
21
-58.3949
0
LINE
8
BLACK
6
CONTINUOUS
10
164.592
20
-58.3949
11
164.593
21
-58.395
0
LINE
8
BLACK
6
CONTINUOUS
10
164.593
20
-58.395
11
164.593
21
-58.395
0
LINE
8
BLACK
6
CONTINUOUS
10
164.593
20
-58.395
11
164.595
21
-58.3952
0
LINE
8
BLACK
6
CONTINUOUS
10
164.595
20
-58.3952
11
164.597
21
-58.3954
0
LINE
8
BLACK
6
CONTINUOUS
10
164.597
20
-58.3954
11
164.597
21
-58.3954
0
LINE
8
BLACK
6
CONTINUOUS
10
164.597
20
-58.3954
11
164.597
21
-58.3954
0
LINE
8
BLACK
6
CONTINUOUS
10
164.597
20
-58.3954
11
164.6
21
-58.3962
0
LINE
8
BLACK
6
CONTINUOUS
10
164.6
20
-58.3962
11
164.602
21
-58.3968
0
LINE
8
BLACK
6
CONTINUOUS
10
164.602
20
-58.3968
11
164.602
21
-58.3968
0
LINE
8
BLACK
6
CONTINUOUS
10
164.602
20
-58.3968
11
164.602
21
-58.3968
0
LINE
8
BLACK
6
CONTINUOUS
10
164.602
20
-58.3968
11
164.604
21
-58.3981
0
LINE
8
BLACK
6
CONTINUOUS
10
164.604
20
-58.3981
11
164.606
21
-58.3991
0
LINE
8
BLACK
6
CONTINUOUS
10
164.606
20
-58.3991
11
164.606
21
-58.3991
0
LINE
8
BLACK
6
CONTINUOUS
10
164.606
20
-58.3991
11
164.606
21
-58.3991
0
LINE
8
BLACK
6
CONTINUOUS
10
164.606
20
-58.3991
11
164.608
21
-58.4008
0
LINE
8
BLACK
6
CONTINUOUS
10
164.608
20
-58.4008
11
164.61
21
-58.4022
0
LINE
8
BLACK
6
CONTINUOUS
10
164.61
20
-58.4022
11
164.61
21
-58.4022
0
LINE
8
BLACK
6
CONTINUOUS
10
164.61
20
-58.4022
11
164.61
21
-58.4022
0
LINE
8
BLACK
6
CONTINUOUS
10
164.61
20
-58.4022
11
164.612
21
-58.4044
0
LINE
8
BLACK
6
CONTINUOUS
10
164.612
20
-58.4044
11
164.613
21
-58.406
0
LINE
8
BLACK
6
CONTINUOUS
10
164.613
20
-58.406
11
164.613
21
-58.406
0
LINE
8
BLACK
6
CONTINUOUS
10
164.613
20
-58.406
11
164.613
21
-58.406
0
LINE
8
BLACK
6
CONTINUOUS
10
164.613
20
-58.406
11
164.614
21
-58.4084
0
LINE
8
BLACK
6
CONTINUOUS
10
164.614
20
-58.4084
11
164.615
21
-58.4103
0
LINE
8
BLACK
6
CONTINUOUS
10
164.615
20
-58.4103
11
164.615
21
-58.4104
0
LINE
8
BLACK
6
CONTINUOUS
10
164.615
20
-58.4104
11
164.615
21
-58.4104
0
LINE
8
BLACK
6
CONTINUOUS
10
164.615
20
-58.4104
11
164.616
21
-58.4131
0
LINE
8
BLACK
6
CONTINUOUS
10
164.616
20
-58.4131
11
164.617
21
-58.415
0
LINE
8
BLACK
6
CONTINUOUS
10
164.617
20
-58.415
11
164.617
21
-58.4151
0
LINE
8
BLACK
6
CONTINUOUS
10
164.617
20
-58.4151
11
164.617
21
-58.4151
0
LINE
8
BLACK
6
CONTINUOUS
10
164.617
20
-58.4151
11
164.617
21
-58.4178
0
LINE
8
BLACK
6
CONTINUOUS
10
164.617
20
-58.4178
11
164.617
21
-58.4187
0
LINE
8
BLACK
6
CONTINUOUS
10
164.617
20
-58.4187
11
164.617
21
-58.4188
0
LINE
8
BLACK
6
CONTINUOUS
10
164.617
20
-58.4188
11
164.617
21
-58.42
0
LINE
8
BLACK
6
CONTINUOUS
10
164.617
20
-58.42
11
164.617
21
-58.4212
0
LINE
8
BLACK
6
CONTINUOUS
10
164.617
20
-58.4212
11
164.871
21
-183.133
0
LINE
8
BLACK
6
CONTINUOUS
10
164.871
20
-183.133
11
164.871
21
-183.134
0
LINE
8
BLACK
6
CONTINUOUS
10
164.871
20
-183.134
11
164.871
21
-183.137
0
LINE
8
BLACK
6
CONTINUOUS
10
164.871
20
-183.137
11
164.871
21
-183.139
0
LINE
8
BLACK
6
CONTINUOUS
10
164.871
20
-183.139
11
164.871
21
-183.139
0
LINE
8
BLACK
6
CONTINUOUS
10
164.871
20
-183.139
11
164.871
21
-183.139
0
LINE
8
BLACK
6
CONTINUOUS
10
164.871
20
-183.139
11
164.87
21
-183.142
0
LINE
8
BLACK
6
CONTINUOUS
10
164.87
20
-183.142
11
164.869
21
-183.144
0
LINE
8
BLACK
6
CONTINUOUS
10
164.869
20
-183.144
11
164.869
21
-183.144
0
LINE
8
BLACK
6
CONTINUOUS
10
164.869
20
-183.144
11
164.869
21
-183.144
0
LINE
8
BLACK
6
CONTINUOUS
10
164.869
20
-183.144
11
164.868
21
-183.146
0
LINE
8
BLACK
6
CONTINUOUS
10
164.868
20
-183.146
11
164.867
21
-183.148
0
LINE
8
BLACK
6
CONTINUOUS
10
164.867
20
-183.148
11
164.867
21
-183.148
0
LINE
8
BLACK
6
CONTINUOUS
10
164.867
20
-183.148
11
164.867
21
-183.148
0
LINE
8
BLACK
6
CONTINUOUS
10
164.867
20
-183.148
11
164.865
21
-183.15
0
LINE
8
BLACK
6
CONTINUOUS
10
164.865
20
-183.15
11
164.864
21
-183.152
0
LINE
8
BLACK
6
CONTINUOUS
10
164.864
20
-183.152
11
164.864
21
-183.152
0
LINE
8
BLACK
6
CONTINUOUS
10
164.864
20
-183.152
11
164.864
21
-183.152
0
LINE
8
BLACK
6
CONTINUOUS
10
164.864
20
-183.152
11
164.862
21
-183.153
0
LINE
8
BLACK
6
CONTINUOUS
10
164.862
20
-183.153
11
164.86
21
-183.155
0
LINE
8
BLACK
6
CONTINUOUS
10
164.86
20
-183.155
11
164.86
21
-183.155
0
LINE
8
BLACK
6
CONTINUOUS
10
164.86
20
-183.155
11
164.86
21
-183.155
0
LINE
8
BLACK
6
CONTINUOUS
10
164.86
20
-183.155
11
164.858
21
-183.156
0
LINE
8
BLACK
6
CONTINUOUS
10
164.858
20
-183.156
11
164.856
21
-183.157
0
LINE
8
BLACK
6
CONTINUOUS
10
164.856
20
-183.157
11
164.856
21
-183.157
0
LINE
8
BLACK
6
CONTINUOUS
10
164.856
20
-183.157
11
164.856
21
-183.157
0
LINE
8
BLACK
6
CONTINUOUS
10
164.856
20
-183.157
11
164.853
21
-183.158
0
LINE
8
BLACK
6
CONTINUOUS
10
164.853
20
-183.158
11
164.851
21
-183.159
0
LINE
8
BLACK
6
CONTINUOUS
10
164.851
20
-183.159
11
164.851
21
-183.159
0
LINE
8
BLACK
6
CONTINUOUS
10
164.851
20
-183.159
11
164.851
21
-183.159
0
LINE
8
BLACK
6
CONTINUOUS
10
164.851
20
-183.159
11
164.848
21
-183.159
0
LINE
8
BLACK
6
CONTINUOUS
10
164.848
20
-183.159
11
164.846
21
-183.159
0
LINE
8
BLACK
6
CONTINUOUS
10
164.846
20
-183.159
11
164.845
21
-183.159
0
LINE
8
BLACK
6
CONTINUOUS
10
164.845
20
-183.159
11
76.2012
21
-183.159
0
LINE
8
BLACK
6
CONTINUOUS
10
76.2012
20
-183.159
11
76.2
21
-183.159
0
LINE
8
BLACK
6
CONTINUOUS
10
76.2
20
-183.159
11
76.1988
21
-183.159
0
LINE
8
BLACK
6
CONTINUOUS
10
76.1988
20
-183.159
11
76.1988
21
-183.159
0
LINE
8
BLACK
6
CONTINUOUS
10
76.1988
20
-183.159
11
76.1951
21
-183.159
0
LINE
8
BLACK
6
CONTINUOUS
10
76.1951
20
-183.159
11
76.1904
21
-183.157
0
LINE
8
BLACK
6
CONTINUOUS
10
76.1904
20
-183.157
11
76.186
21
-183.155
0
LINE
8
BLACK
6
CONTINUOUS
10
76.186
20
-183.155
11
76.1822
21
-183.152
0
LINE
8
BLACK
6
CONTINUOUS
10
76.1822
20
-183.152
11
76.1791
21
-183.148
0
LINE
8
BLACK
6
CONTINUOUS
10
76.1791
20
-183.148
11
76.1768
21
-183.144
0
LINE
8
BLACK
6
CONTINUOUS
10
76.1768
20
-183.144
11
76.1754
21
-183.139
0
LINE
8
BLACK
6
CONTINUOUS
10
76.1754
20
-183.139
11
76.1749
21
-183.134
0
LINE
8
BLACK
6
CONTINUOUS
10
76.1749
20
-183.134
11
76.175
21
-183.133
0
LINE
8
BLACK
6
CONTINUOUS
10
76.175
20
-183.133
11
76.175
21
-58.4212
0
LINE
8
BLACK
6
CONTINUOUS
10
76.175
20
-58.4212
11
76.1749
21
-58.42
0
LINE
8
BLACK
6
CONTINUOUS
10
76.1749
20
-58.42
11
76.1754
21
-58.4151
0
LINE
8
BLACK
6
CONTINUOUS
10
76.1754
20
-58.4151
11
76.1768
21
-58.4104
0
LINE
8
BLACK
6
CONTINUOUS
10
76.1768
20
-58.4104
11
76.1791
21
-58.406
0
LINE
8
BLACK
6
CONTINUOUS
10
76.1791
20
-58.406
11
76.1822
21
-58.4022
0
LINE
8
BLACK
6
CONTINUOUS
10
76.1822
20
-58.4022
11
76.186
21
-58.3991
0
LINE
8
BLACK
6
CONTINUOUS
10
76.186
20
-58.3991
11
76.1904
21
-58.3968
0
LINE
8
BLACK
6
CONTINUOUS
10
76.1904
20
-58.3968
11
76.1951
21
-58.3954
0
LINE
8
BLACK
6
CONTINUOUS
10
76.1951
20
-58.3954
11
76.1988
21
-58.395
0
LINE
8
BLACK
6
CONTINUOUS
10
76.1988
20
-58.395
11
76.2
21
-58.3949
0
LINE
8
BLACK
6
CONTINUOUS
10
76.2
20
-58.3949
11
76.2012
21
-58.395
0
LINE
8
BLACK
6
CONTINUOUS
10
76.225
20
-58.445
11
76.225
21
-183.109
0
LINE
8
BLACK
6
CONTINUOUS
10
76.225
20
-183.109
11
164.821
21
-183.109
0
LINE
8
BLACK
6
CONTINUOUS
10
164.821
20
-183.109
11
164.567
21
-58.445
0
LINE
8
BLACK
6
CONTINUOUS
10
164.567
20
-58.445
11
76.225
21
-58.445
  0
ENDSEC
  0
EOF
