M48
; DRILL file {KiCad (5.1.2)-2} date 10/19/2019 8:53:37 AM
; FORMAT={2:4/ absolute / inch / suppress leading zeros}
; #@! TF.CreationDate,2019-10-19T08:53:37-10:00
; #@! TF.GenerationSoftware,Kicad,Pcbnew,(5.1.2)-2
FMAT,2
INCH,TZ
T1C0.0276
T2C0.0315
T3C0.0335
T4C0.0354
T5C0.0394
T6C0.0433
T7C0.0598
T8C0.0984
T9C0.1260
%
G90
G05
T1
X42715Y-56685
X42917Y-53817
X51000Y-31800
X51100Y-34600
T2
X40900Y-38800
X47300Y-38900
X47800Y-52500
X47800Y-54600
X52000Y-52500
X55000Y-52500
X52000Y-47000
X55000Y-47000
X41900Y-37000
X41900Y-37787
X40600Y-50800
X43600Y-50800
X40600Y-48800
X43600Y-48800
X44700Y-40000
X44700Y-40787
X41800Y-40000
X41800Y-40787
X52000Y-48500
X55000Y-48500
X44600Y-43513
X44600Y-44300
X44900Y-36700
X44900Y-37487
X52000Y-51000
X55000Y-51000
X44000Y-57000
X44000Y-60000
X45000Y-57000
X45000Y-60000
X46000Y-57000
X46000Y-60000
X47000Y-57000
X47000Y-60000
X48000Y-57000
X48000Y-60000
X49000Y-57000
X49000Y-60000
X50000Y-57000
X50000Y-60000
X51000Y-57000
X51000Y-60000
X41900Y-43400
X41900Y-44187
T3
X37882Y-40108
X37882Y-41108
X37882Y-42108
X37882Y-43108
X37882Y-44108
X37882Y-45108
X37882Y-46108
X37882Y-47108
X37882Y-49108
X37882Y-50108
X37882Y-51108
X37882Y-52108
X37882Y-53108
X37882Y-54108
X37882Y-55108
X37882Y-56108
X37882Y-58108
X37882Y-59108
X37882Y-60108
X37882Y-61108
X37882Y-62108
X37882Y-63108
X37882Y-64008
X37882Y-65008
X39882Y-66108
X39882Y-67108
X40882Y-66108
X40882Y-67108
X41882Y-66108
X41882Y-67108
X42882Y-66108
X42882Y-67108
X43882Y-66108
X43882Y-67108
X44882Y-66108
X44882Y-67108
X45882Y-66108
X45882Y-67108
X46882Y-66108
X46882Y-67108
X47882Y-66108
X47882Y-67108
X48882Y-66108
X48882Y-67108
X49882Y-66108
X49882Y-67108
X50882Y-66108
X50882Y-67108
X51882Y-66108
X51882Y-67108
X52882Y-66108
X52882Y-67108
X53882Y-66108
X53882Y-67108
X54882Y-66108
X54882Y-67108
X55882Y-66108
X55882Y-67108
X56882Y-36508
X56882Y-37508
X56882Y-38508
X56882Y-39508
X56882Y-40508
X56882Y-41508
X56882Y-42508
X56882Y-43508
X56882Y-44508
X56882Y-45508
X56882Y-47108
X56882Y-48108
X56882Y-49108
X56882Y-50108
X56882Y-51108
X56882Y-52108
X56882Y-53108
X56882Y-54108
X56882Y-56108
X56882Y-57108
X56882Y-58108
X56882Y-59108
X56882Y-60108
X56882Y-61108
X56882Y-62108
X56882Y-63108
X56882Y-66108
X56882Y-67108
T4
X45100Y-48800
X46100Y-48800
X49000Y-47500
X50000Y-47500
X45000Y-50800
X46000Y-50800
X49000Y-51000
X50000Y-51000
X49000Y-49000
X50000Y-49000
X49000Y-52500
X50000Y-52500
T5
X49500Y-62500
X50500Y-62500
X51500Y-62500
X52500Y-62500
X53500Y-62500
X54500Y-62500
X41500Y-62500
X42500Y-62500
X43500Y-62500
X44500Y-62500
X45500Y-62500
X46500Y-62500
X40000Y-57000
X40000Y-58000
X40000Y-59000
X40000Y-60000
X52300Y-38400
X52300Y-39400
X52300Y-40400
X52300Y-41400
X52300Y-42400
X52300Y-43400
X54700Y-57000
X54700Y-58000
X54700Y-59000
X54700Y-60000
X48500Y-37000
X48500Y-38000
X48500Y-39000
X48500Y-40000
X48500Y-41000
X48500Y-42000
X48500Y-43000
X48500Y-44000
T6
X53700Y-32400
X54700Y-32400
X55700Y-32400
X47900Y-32500
X48900Y-32500
X49900Y-32500
T7
X41900Y-32100
X43900Y-32100
T8
X32600Y-69200
X33100Y-26300
X62200Y-25900
X62300Y-69000
T9
X37882Y-34608
X37882Y-67108
X39882Y-55108
X50882Y-55108
X56882Y-35108
X56882Y-64608
T0
M30
