G04 #@! TF.GenerationSoftware,KiCad,Pcbnew,(5.1.2)-2*
G04 #@! TF.CreationDate,2019-10-19T08:53:18-10:00*
G04 #@! TF.ProjectId,differtial_robot(v2),64696666-6572-4746-9961-6c5f726f626f,rev?*
G04 #@! TF.SameCoordinates,Original*
G04 #@! TF.FileFunction,Soldermask,Bot*
G04 #@! TF.FilePolarity,Negative*
%FSLAX46Y46*%
G04 Gerber Fmt 4.6, Leading zero omitted, Abs format (unit mm)*
G04 Created by KiCad (PCBNEW (5.1.2)-2) date 2019-10-19 08:53:18*
%MOMM*%
%LPD*%
G04 APERTURE LIST*
%ADD10C,0.100000*%
G04 APERTURE END LIST*
D10*
G36*
X83399170Y-172775879D02*
G01*
X83693868Y-172834498D01*
X84249067Y-173064469D01*
X84534867Y-173255435D01*
X84748733Y-173398335D01*
X85173665Y-173823267D01*
X85316565Y-174037133D01*
X85507531Y-174322933D01*
X85737502Y-174878132D01*
X85854740Y-175467528D01*
X85854740Y-176068472D01*
X85737502Y-176657868D01*
X85507531Y-177213067D01*
X85316565Y-177498867D01*
X85173665Y-177712733D01*
X84748733Y-178137665D01*
X84534867Y-178280565D01*
X84249067Y-178471531D01*
X83693868Y-178701502D01*
X83399170Y-178760121D01*
X83104473Y-178818740D01*
X82503527Y-178818740D01*
X82208830Y-178760121D01*
X81914132Y-178701502D01*
X81358933Y-178471531D01*
X81073133Y-178280565D01*
X80859267Y-178137665D01*
X80434335Y-177712733D01*
X80291435Y-177498867D01*
X80100469Y-177213067D01*
X79870498Y-176657868D01*
X79753260Y-176068472D01*
X79753260Y-175467528D01*
X79870498Y-174878132D01*
X80100469Y-174322933D01*
X80291435Y-174037133D01*
X80434335Y-173823267D01*
X80859267Y-173398335D01*
X81073133Y-173255435D01*
X81358933Y-173064469D01*
X81914132Y-172834498D01*
X82208830Y-172775879D01*
X82503527Y-172717260D01*
X83104473Y-172717260D01*
X83399170Y-172775879D01*
X83399170Y-172775879D01*
G37*
G36*
X158837170Y-172267879D02*
G01*
X159131868Y-172326498D01*
X159687067Y-172556469D01*
X159927707Y-172717260D01*
X160186733Y-172890335D01*
X160611665Y-173315267D01*
X160754565Y-173529133D01*
X160945531Y-173814933D01*
X161175502Y-174370132D01*
X161292740Y-174959528D01*
X161292740Y-175560472D01*
X161175502Y-176149868D01*
X160945531Y-176705067D01*
X160754565Y-176990867D01*
X160611665Y-177204733D01*
X160186733Y-177629665D01*
X160062412Y-177712733D01*
X159687067Y-177963531D01*
X159131868Y-178193502D01*
X158837170Y-178252121D01*
X158542473Y-178310740D01*
X157941527Y-178310740D01*
X157646830Y-178252121D01*
X157352132Y-178193502D01*
X156796933Y-177963531D01*
X156421588Y-177712733D01*
X156297267Y-177629665D01*
X155872335Y-177204733D01*
X155729435Y-176990867D01*
X155538469Y-176705067D01*
X155308498Y-176149868D01*
X155191260Y-175560472D01*
X155191260Y-174959528D01*
X155308498Y-174370132D01*
X155538469Y-173814933D01*
X155729435Y-173529133D01*
X155872335Y-173315267D01*
X156297267Y-172890335D01*
X156556293Y-172717260D01*
X156796933Y-172556469D01*
X157352132Y-172326498D01*
X157646830Y-172267879D01*
X157941527Y-172209260D01*
X158542473Y-172209260D01*
X158837170Y-172267879D01*
X158837170Y-172267879D01*
G37*
G36*
X96595257Y-168846299D02*
G01*
X96701580Y-168867448D01*
X97002043Y-168991904D01*
X97272452Y-169172586D01*
X97502416Y-169402550D01*
X97683098Y-169672959D01*
X97807554Y-169973422D01*
X97871001Y-170292392D01*
X97871001Y-170617610D01*
X97807554Y-170936580D01*
X97683098Y-171237043D01*
X97502416Y-171507452D01*
X97272452Y-171737416D01*
X97002043Y-171918098D01*
X96701580Y-172042554D01*
X96595257Y-172063703D01*
X96382612Y-172106001D01*
X96057390Y-172106001D01*
X95844745Y-172063703D01*
X95738422Y-172042554D01*
X95437959Y-171918098D01*
X95167550Y-171737416D01*
X94937586Y-171507452D01*
X94756904Y-171237043D01*
X94632448Y-170936580D01*
X94569001Y-170617610D01*
X94569001Y-170292392D01*
X94632448Y-169973422D01*
X94756904Y-169672959D01*
X94937586Y-169402550D01*
X95167550Y-169172586D01*
X95437959Y-168991904D01*
X95738422Y-168867448D01*
X95844745Y-168846299D01*
X96057390Y-168804001D01*
X96382612Y-168804001D01*
X96595257Y-168846299D01*
X96595257Y-168846299D01*
G37*
G36*
X117591001Y-171206001D02*
G01*
X115489001Y-171206001D01*
X115489001Y-169704001D01*
X117591001Y-169704001D01*
X117591001Y-171206001D01*
X117591001Y-171206001D01*
G37*
G36*
X102351001Y-171206001D02*
G01*
X100249001Y-171206001D01*
X100249001Y-169704001D01*
X102351001Y-169704001D01*
X102351001Y-171206001D01*
X102351001Y-171206001D01*
G37*
G36*
X104891001Y-171206001D02*
G01*
X102789001Y-171206001D01*
X102789001Y-169704001D01*
X104891001Y-169704001D01*
X104891001Y-171206001D01*
X104891001Y-171206001D01*
G37*
G36*
X107431001Y-171206001D02*
G01*
X105329001Y-171206001D01*
X105329001Y-169704001D01*
X107431001Y-169704001D01*
X107431001Y-171206001D01*
X107431001Y-171206001D01*
G37*
G36*
X109971001Y-171206001D02*
G01*
X107869001Y-171206001D01*
X107869001Y-169704001D01*
X109971001Y-169704001D01*
X109971001Y-171206001D01*
X109971001Y-171206001D01*
G37*
G36*
X112511001Y-171206001D02*
G01*
X110409001Y-171206001D01*
X110409001Y-169704001D01*
X112511001Y-169704001D01*
X112511001Y-171206001D01*
X112511001Y-171206001D01*
G37*
G36*
X115051001Y-171206001D02*
G01*
X112949001Y-171206001D01*
X112949001Y-169704001D01*
X115051001Y-169704001D01*
X115051001Y-171206001D01*
X115051001Y-171206001D01*
G37*
G36*
X120131001Y-171206001D02*
G01*
X118029001Y-171206001D01*
X118029001Y-169704001D01*
X120131001Y-169704001D01*
X120131001Y-171206001D01*
X120131001Y-171206001D01*
G37*
G36*
X122671001Y-171206001D02*
G01*
X120569001Y-171206001D01*
X120569001Y-169704001D01*
X122671001Y-169704001D01*
X122671001Y-171206001D01*
X122671001Y-171206001D01*
G37*
G36*
X127751001Y-171206001D02*
G01*
X125649001Y-171206001D01*
X125649001Y-169704001D01*
X127751001Y-169704001D01*
X127751001Y-171206001D01*
X127751001Y-171206001D01*
G37*
G36*
X130291001Y-171206001D02*
G01*
X128189001Y-171206001D01*
X128189001Y-169704001D01*
X130291001Y-169704001D01*
X130291001Y-171206001D01*
X130291001Y-171206001D01*
G37*
G36*
X132831001Y-171206001D02*
G01*
X130729001Y-171206001D01*
X130729001Y-169704001D01*
X132831001Y-169704001D01*
X132831001Y-171206001D01*
X132831001Y-171206001D01*
G37*
G36*
X135371001Y-171206001D02*
G01*
X133269001Y-171206001D01*
X133269001Y-169704001D01*
X135371001Y-169704001D01*
X135371001Y-171206001D01*
X135371001Y-171206001D01*
G37*
G36*
X137911001Y-171206001D02*
G01*
X135809001Y-171206001D01*
X135809001Y-169704001D01*
X137911001Y-169704001D01*
X137911001Y-171206001D01*
X137911001Y-171206001D01*
G37*
G36*
X140451001Y-171206001D02*
G01*
X138349001Y-171206001D01*
X138349001Y-169704001D01*
X140451001Y-169704001D01*
X140451001Y-171206001D01*
X140451001Y-171206001D01*
G37*
G36*
X142991001Y-171206001D02*
G01*
X140889001Y-171206001D01*
X140889001Y-169704001D01*
X142991001Y-169704001D01*
X142991001Y-171206001D01*
X142991001Y-171206001D01*
G37*
G36*
X145531001Y-171206001D02*
G01*
X143429001Y-171206001D01*
X143429001Y-169704001D01*
X145531001Y-169704001D01*
X145531001Y-171206001D01*
X145531001Y-171206001D01*
G37*
G36*
X125211001Y-171206001D02*
G01*
X123109001Y-171206001D01*
X123109001Y-169704001D01*
X125211001Y-169704001D01*
X125211001Y-171206001D01*
X125211001Y-171206001D01*
G37*
G36*
X122671001Y-168666001D02*
G01*
X120569001Y-168666001D01*
X120569001Y-167164001D01*
X122671001Y-167164001D01*
X122671001Y-168666001D01*
X122671001Y-168666001D01*
G37*
G36*
X125211001Y-168666001D02*
G01*
X123109001Y-168666001D01*
X123109001Y-167164001D01*
X125211001Y-167164001D01*
X125211001Y-168666001D01*
X125211001Y-168666001D01*
G37*
G36*
X127751001Y-168666001D02*
G01*
X125649001Y-168666001D01*
X125649001Y-167164001D01*
X127751001Y-167164001D01*
X127751001Y-168666001D01*
X127751001Y-168666001D01*
G37*
G36*
X112511001Y-168666001D02*
G01*
X110409001Y-168666001D01*
X110409001Y-167164001D01*
X112511001Y-167164001D01*
X112511001Y-168666001D01*
X112511001Y-168666001D01*
G37*
G36*
X107431001Y-168666001D02*
G01*
X105329001Y-168666001D01*
X105329001Y-167164001D01*
X107431001Y-167164001D01*
X107431001Y-168666001D01*
X107431001Y-168666001D01*
G37*
G36*
X104891001Y-168666001D02*
G01*
X102789001Y-168666001D01*
X102789001Y-167164001D01*
X104891001Y-167164001D01*
X104891001Y-168666001D01*
X104891001Y-168666001D01*
G37*
G36*
X102351001Y-168666001D02*
G01*
X100249001Y-168666001D01*
X100249001Y-167164001D01*
X102351001Y-167164001D01*
X102351001Y-168666001D01*
X102351001Y-168666001D01*
G37*
G36*
X115051001Y-168666001D02*
G01*
X112949001Y-168666001D01*
X112949001Y-167164001D01*
X115051001Y-167164001D01*
X115051001Y-168666001D01*
X115051001Y-168666001D01*
G37*
G36*
X109971001Y-168666001D02*
G01*
X107869001Y-168666001D01*
X107869001Y-167164001D01*
X109971001Y-167164001D01*
X109971001Y-168666001D01*
X109971001Y-168666001D01*
G37*
G36*
X137911001Y-168666001D02*
G01*
X135809001Y-168666001D01*
X135809001Y-167164001D01*
X137911001Y-167164001D01*
X137911001Y-168666001D01*
X137911001Y-168666001D01*
G37*
G36*
X120131001Y-168666001D02*
G01*
X118029001Y-168666001D01*
X118029001Y-167164001D01*
X120131001Y-167164001D01*
X120131001Y-168666001D01*
X120131001Y-168666001D01*
G37*
G36*
X142991001Y-168666001D02*
G01*
X140889001Y-168666001D01*
X140889001Y-167164001D01*
X142991001Y-167164001D01*
X142991001Y-168666001D01*
X142991001Y-168666001D01*
G37*
G36*
X135371001Y-168666001D02*
G01*
X133269001Y-168666001D01*
X133269001Y-167164001D01*
X135371001Y-167164001D01*
X135371001Y-168666001D01*
X135371001Y-168666001D01*
G37*
G36*
X132831001Y-168666001D02*
G01*
X130729001Y-168666001D01*
X130729001Y-167164001D01*
X132831001Y-167164001D01*
X132831001Y-168666001D01*
X132831001Y-168666001D01*
G37*
G36*
X117591001Y-168666001D02*
G01*
X115489001Y-168666001D01*
X115489001Y-167164001D01*
X117591001Y-167164001D01*
X117591001Y-168666001D01*
X117591001Y-168666001D01*
G37*
G36*
X145531001Y-168666001D02*
G01*
X143429001Y-168666001D01*
X143429001Y-167164001D01*
X145531001Y-167164001D01*
X145531001Y-168666001D01*
X145531001Y-168666001D01*
G37*
G36*
X140451001Y-168666001D02*
G01*
X138349001Y-168666001D01*
X138349001Y-167164001D01*
X140451001Y-167164001D01*
X140451001Y-168666001D01*
X140451001Y-168666001D01*
G37*
G36*
X130291001Y-168666001D02*
G01*
X128189001Y-168666001D01*
X128189001Y-167164001D01*
X130291001Y-167164001D01*
X130291001Y-168666001D01*
X130291001Y-168666001D01*
G37*
G36*
X97621001Y-165922001D02*
G01*
X94819001Y-165922001D01*
X94819001Y-164320001D01*
X97621001Y-164320001D01*
X97621001Y-165922001D01*
X97621001Y-165922001D01*
G37*
G36*
X144855257Y-162496299D02*
G01*
X144961580Y-162517448D01*
X145262043Y-162641904D01*
X145532452Y-162822586D01*
X145762416Y-163052550D01*
X145943098Y-163322959D01*
X146067554Y-163623422D01*
X146131001Y-163942392D01*
X146131001Y-164267610D01*
X146067554Y-164586580D01*
X145943098Y-164887043D01*
X145762416Y-165157452D01*
X145532452Y-165387416D01*
X145262043Y-165568098D01*
X144961580Y-165692554D01*
X144855257Y-165713703D01*
X144642612Y-165756001D01*
X144317390Y-165756001D01*
X144104745Y-165713703D01*
X143998422Y-165692554D01*
X143697959Y-165568098D01*
X143427550Y-165387416D01*
X143197586Y-165157452D01*
X143016904Y-164887043D01*
X142892448Y-164586580D01*
X142829001Y-164267610D01*
X142829001Y-163942392D01*
X142892448Y-163623422D01*
X143016904Y-163322959D01*
X143197586Y-163052550D01*
X143427550Y-162822586D01*
X143697959Y-162641904D01*
X143998422Y-162517448D01*
X144104745Y-162496299D01*
X144317390Y-162454001D01*
X144642612Y-162454001D01*
X144855257Y-162496299D01*
X144855257Y-162496299D01*
G37*
G36*
X97621001Y-163382001D02*
G01*
X94819001Y-163382001D01*
X94819001Y-161780001D01*
X97621001Y-161780001D01*
X97621001Y-163382001D01*
X97621001Y-163382001D01*
G37*
G36*
X145881001Y-161096001D02*
G01*
X143079001Y-161096001D01*
X143079001Y-159494001D01*
X145881001Y-159494001D01*
X145881001Y-161096001D01*
X145881001Y-161096001D01*
G37*
G36*
X97621001Y-161096001D02*
G01*
X94819001Y-161096001D01*
X94819001Y-159494001D01*
X97621001Y-159494001D01*
X97621001Y-161096001D01*
X97621001Y-161096001D01*
G37*
G36*
X139331000Y-159651000D02*
G01*
X137529000Y-159651000D01*
X137529000Y-157849000D01*
X139331000Y-157849000D01*
X139331000Y-159651000D01*
X139331000Y-159651000D01*
G37*
G36*
X136000443Y-157855519D02*
G01*
X136066627Y-157862037D01*
X136236466Y-157913557D01*
X136392991Y-157997222D01*
X136428729Y-158026552D01*
X136530186Y-158109814D01*
X136613448Y-158211271D01*
X136642778Y-158247009D01*
X136726443Y-158403534D01*
X136777963Y-158573373D01*
X136795359Y-158750000D01*
X136777963Y-158926627D01*
X136726443Y-159096466D01*
X136642778Y-159252991D01*
X136613448Y-159288729D01*
X136530186Y-159390186D01*
X136428729Y-159473448D01*
X136392991Y-159502778D01*
X136236466Y-159586443D01*
X136066627Y-159637963D01*
X136000442Y-159644482D01*
X135934260Y-159651000D01*
X135845740Y-159651000D01*
X135779558Y-159644482D01*
X135713373Y-159637963D01*
X135543534Y-159586443D01*
X135387009Y-159502778D01*
X135351271Y-159473448D01*
X135249814Y-159390186D01*
X135166552Y-159288729D01*
X135137222Y-159252991D01*
X135053557Y-159096466D01*
X135002037Y-158926627D01*
X134984641Y-158750000D01*
X135002037Y-158573373D01*
X135053557Y-158403534D01*
X135137222Y-158247009D01*
X135166552Y-158211271D01*
X135249814Y-158109814D01*
X135351271Y-158026552D01*
X135387009Y-157997222D01*
X135543534Y-157913557D01*
X135713373Y-157862037D01*
X135779557Y-157855519D01*
X135845740Y-157849000D01*
X135934260Y-157849000D01*
X136000443Y-157855519D01*
X136000443Y-157855519D01*
G37*
G36*
X113140443Y-157855519D02*
G01*
X113206627Y-157862037D01*
X113376466Y-157913557D01*
X113532991Y-157997222D01*
X113568729Y-158026552D01*
X113670186Y-158109814D01*
X113753448Y-158211271D01*
X113782778Y-158247009D01*
X113866443Y-158403534D01*
X113917963Y-158573373D01*
X113935359Y-158750000D01*
X113917963Y-158926627D01*
X113866443Y-159096466D01*
X113782778Y-159252991D01*
X113753448Y-159288729D01*
X113670186Y-159390186D01*
X113568729Y-159473448D01*
X113532991Y-159502778D01*
X113376466Y-159586443D01*
X113206627Y-159637963D01*
X113140442Y-159644482D01*
X113074260Y-159651000D01*
X112985740Y-159651000D01*
X112919558Y-159644482D01*
X112853373Y-159637963D01*
X112683534Y-159586443D01*
X112527009Y-159502778D01*
X112491271Y-159473448D01*
X112389814Y-159390186D01*
X112306552Y-159288729D01*
X112277222Y-159252991D01*
X112193557Y-159096466D01*
X112142037Y-158926627D01*
X112124641Y-158750000D01*
X112142037Y-158573373D01*
X112193557Y-158403534D01*
X112277222Y-158247009D01*
X112306552Y-158211271D01*
X112389814Y-158109814D01*
X112491271Y-158026552D01*
X112527009Y-157997222D01*
X112683534Y-157913557D01*
X112853373Y-157862037D01*
X112919557Y-157855519D01*
X112985740Y-157849000D01*
X113074260Y-157849000D01*
X113140443Y-157855519D01*
X113140443Y-157855519D01*
G37*
G36*
X110600443Y-157855519D02*
G01*
X110666627Y-157862037D01*
X110836466Y-157913557D01*
X110992991Y-157997222D01*
X111028729Y-158026552D01*
X111130186Y-158109814D01*
X111213448Y-158211271D01*
X111242778Y-158247009D01*
X111326443Y-158403534D01*
X111377963Y-158573373D01*
X111395359Y-158750000D01*
X111377963Y-158926627D01*
X111326443Y-159096466D01*
X111242778Y-159252991D01*
X111213448Y-159288729D01*
X111130186Y-159390186D01*
X111028729Y-159473448D01*
X110992991Y-159502778D01*
X110836466Y-159586443D01*
X110666627Y-159637963D01*
X110600442Y-159644482D01*
X110534260Y-159651000D01*
X110445740Y-159651000D01*
X110379558Y-159644482D01*
X110313373Y-159637963D01*
X110143534Y-159586443D01*
X109987009Y-159502778D01*
X109951271Y-159473448D01*
X109849814Y-159390186D01*
X109766552Y-159288729D01*
X109737222Y-159252991D01*
X109653557Y-159096466D01*
X109602037Y-158926627D01*
X109584641Y-158750000D01*
X109602037Y-158573373D01*
X109653557Y-158403534D01*
X109737222Y-158247009D01*
X109766552Y-158211271D01*
X109849814Y-158109814D01*
X109951271Y-158026552D01*
X109987009Y-157997222D01*
X110143534Y-157913557D01*
X110313373Y-157862037D01*
X110379557Y-157855519D01*
X110445740Y-157849000D01*
X110534260Y-157849000D01*
X110600443Y-157855519D01*
X110600443Y-157855519D01*
G37*
G36*
X133460443Y-157855519D02*
G01*
X133526627Y-157862037D01*
X133696466Y-157913557D01*
X133852991Y-157997222D01*
X133888729Y-158026552D01*
X133990186Y-158109814D01*
X134073448Y-158211271D01*
X134102778Y-158247009D01*
X134186443Y-158403534D01*
X134237963Y-158573373D01*
X134255359Y-158750000D01*
X134237963Y-158926627D01*
X134186443Y-159096466D01*
X134102778Y-159252991D01*
X134073448Y-159288729D01*
X133990186Y-159390186D01*
X133888729Y-159473448D01*
X133852991Y-159502778D01*
X133696466Y-159586443D01*
X133526627Y-159637963D01*
X133460442Y-159644482D01*
X133394260Y-159651000D01*
X133305740Y-159651000D01*
X133239558Y-159644482D01*
X133173373Y-159637963D01*
X133003534Y-159586443D01*
X132847009Y-159502778D01*
X132811271Y-159473448D01*
X132709814Y-159390186D01*
X132626552Y-159288729D01*
X132597222Y-159252991D01*
X132513557Y-159096466D01*
X132462037Y-158926627D01*
X132444641Y-158750000D01*
X132462037Y-158573373D01*
X132513557Y-158403534D01*
X132597222Y-158247009D01*
X132626552Y-158211271D01*
X132709814Y-158109814D01*
X132811271Y-158026552D01*
X132847009Y-157997222D01*
X133003534Y-157913557D01*
X133173373Y-157862037D01*
X133239557Y-157855519D01*
X133305740Y-157849000D01*
X133394260Y-157849000D01*
X133460443Y-157855519D01*
X133460443Y-157855519D01*
G37*
G36*
X128380443Y-157855519D02*
G01*
X128446627Y-157862037D01*
X128616466Y-157913557D01*
X128772991Y-157997222D01*
X128808729Y-158026552D01*
X128910186Y-158109814D01*
X128993448Y-158211271D01*
X129022778Y-158247009D01*
X129106443Y-158403534D01*
X129157963Y-158573373D01*
X129175359Y-158750000D01*
X129157963Y-158926627D01*
X129106443Y-159096466D01*
X129022778Y-159252991D01*
X128993448Y-159288729D01*
X128910186Y-159390186D01*
X128808729Y-159473448D01*
X128772991Y-159502778D01*
X128616466Y-159586443D01*
X128446627Y-159637963D01*
X128380442Y-159644482D01*
X128314260Y-159651000D01*
X128225740Y-159651000D01*
X128159558Y-159644482D01*
X128093373Y-159637963D01*
X127923534Y-159586443D01*
X127767009Y-159502778D01*
X127731271Y-159473448D01*
X127629814Y-159390186D01*
X127546552Y-159288729D01*
X127517222Y-159252991D01*
X127433557Y-159096466D01*
X127382037Y-158926627D01*
X127364641Y-158750000D01*
X127382037Y-158573373D01*
X127433557Y-158403534D01*
X127517222Y-158247009D01*
X127546552Y-158211271D01*
X127629814Y-158109814D01*
X127731271Y-158026552D01*
X127767009Y-157997222D01*
X127923534Y-157913557D01*
X128093373Y-157862037D01*
X128159557Y-157855519D01*
X128225740Y-157849000D01*
X128314260Y-157849000D01*
X128380443Y-157855519D01*
X128380443Y-157855519D01*
G37*
G36*
X118220443Y-157855519D02*
G01*
X118286627Y-157862037D01*
X118456466Y-157913557D01*
X118612991Y-157997222D01*
X118648729Y-158026552D01*
X118750186Y-158109814D01*
X118833448Y-158211271D01*
X118862778Y-158247009D01*
X118946443Y-158403534D01*
X118997963Y-158573373D01*
X119015359Y-158750000D01*
X118997963Y-158926627D01*
X118946443Y-159096466D01*
X118862778Y-159252991D01*
X118833448Y-159288729D01*
X118750186Y-159390186D01*
X118648729Y-159473448D01*
X118612991Y-159502778D01*
X118456466Y-159586443D01*
X118286627Y-159637963D01*
X118220442Y-159644482D01*
X118154260Y-159651000D01*
X118065740Y-159651000D01*
X117999558Y-159644482D01*
X117933373Y-159637963D01*
X117763534Y-159586443D01*
X117607009Y-159502778D01*
X117571271Y-159473448D01*
X117469814Y-159390186D01*
X117386552Y-159288729D01*
X117357222Y-159252991D01*
X117273557Y-159096466D01*
X117222037Y-158926627D01*
X117204641Y-158750000D01*
X117222037Y-158573373D01*
X117273557Y-158403534D01*
X117357222Y-158247009D01*
X117386552Y-158211271D01*
X117469814Y-158109814D01*
X117571271Y-158026552D01*
X117607009Y-157997222D01*
X117763534Y-157913557D01*
X117933373Y-157862037D01*
X117999557Y-157855519D01*
X118065740Y-157849000D01*
X118154260Y-157849000D01*
X118220443Y-157855519D01*
X118220443Y-157855519D01*
G37*
G36*
X130920443Y-157855519D02*
G01*
X130986627Y-157862037D01*
X131156466Y-157913557D01*
X131312991Y-157997222D01*
X131348729Y-158026552D01*
X131450186Y-158109814D01*
X131533448Y-158211271D01*
X131562778Y-158247009D01*
X131646443Y-158403534D01*
X131697963Y-158573373D01*
X131715359Y-158750000D01*
X131697963Y-158926627D01*
X131646443Y-159096466D01*
X131562778Y-159252991D01*
X131533448Y-159288729D01*
X131450186Y-159390186D01*
X131348729Y-159473448D01*
X131312991Y-159502778D01*
X131156466Y-159586443D01*
X130986627Y-159637963D01*
X130920442Y-159644482D01*
X130854260Y-159651000D01*
X130765740Y-159651000D01*
X130699558Y-159644482D01*
X130633373Y-159637963D01*
X130463534Y-159586443D01*
X130307009Y-159502778D01*
X130271271Y-159473448D01*
X130169814Y-159390186D01*
X130086552Y-159288729D01*
X130057222Y-159252991D01*
X129973557Y-159096466D01*
X129922037Y-158926627D01*
X129904641Y-158750000D01*
X129922037Y-158573373D01*
X129973557Y-158403534D01*
X130057222Y-158247009D01*
X130086552Y-158211271D01*
X130169814Y-158109814D01*
X130271271Y-158026552D01*
X130307009Y-157997222D01*
X130463534Y-157913557D01*
X130633373Y-157862037D01*
X130699557Y-157855519D01*
X130765740Y-157849000D01*
X130854260Y-157849000D01*
X130920443Y-157855519D01*
X130920443Y-157855519D01*
G37*
G36*
X125840443Y-157855519D02*
G01*
X125906627Y-157862037D01*
X126076466Y-157913557D01*
X126232991Y-157997222D01*
X126268729Y-158026552D01*
X126370186Y-158109814D01*
X126453448Y-158211271D01*
X126482778Y-158247009D01*
X126566443Y-158403534D01*
X126617963Y-158573373D01*
X126635359Y-158750000D01*
X126617963Y-158926627D01*
X126566443Y-159096466D01*
X126482778Y-159252991D01*
X126453448Y-159288729D01*
X126370186Y-159390186D01*
X126268729Y-159473448D01*
X126232991Y-159502778D01*
X126076466Y-159586443D01*
X125906627Y-159637963D01*
X125840442Y-159644482D01*
X125774260Y-159651000D01*
X125685740Y-159651000D01*
X125619558Y-159644482D01*
X125553373Y-159637963D01*
X125383534Y-159586443D01*
X125227009Y-159502778D01*
X125191271Y-159473448D01*
X125089814Y-159390186D01*
X125006552Y-159288729D01*
X124977222Y-159252991D01*
X124893557Y-159096466D01*
X124842037Y-158926627D01*
X124824641Y-158750000D01*
X124842037Y-158573373D01*
X124893557Y-158403534D01*
X124977222Y-158247009D01*
X125006552Y-158211271D01*
X125089814Y-158109814D01*
X125191271Y-158026552D01*
X125227009Y-157997222D01*
X125383534Y-157913557D01*
X125553373Y-157862037D01*
X125619557Y-157855519D01*
X125685740Y-157849000D01*
X125774260Y-157849000D01*
X125840443Y-157855519D01*
X125840443Y-157855519D01*
G37*
G36*
X115680443Y-157855519D02*
G01*
X115746627Y-157862037D01*
X115916466Y-157913557D01*
X116072991Y-157997222D01*
X116108729Y-158026552D01*
X116210186Y-158109814D01*
X116293448Y-158211271D01*
X116322778Y-158247009D01*
X116406443Y-158403534D01*
X116457963Y-158573373D01*
X116475359Y-158750000D01*
X116457963Y-158926627D01*
X116406443Y-159096466D01*
X116322778Y-159252991D01*
X116293448Y-159288729D01*
X116210186Y-159390186D01*
X116108729Y-159473448D01*
X116072991Y-159502778D01*
X115916466Y-159586443D01*
X115746627Y-159637963D01*
X115680442Y-159644482D01*
X115614260Y-159651000D01*
X115525740Y-159651000D01*
X115459558Y-159644482D01*
X115393373Y-159637963D01*
X115223534Y-159586443D01*
X115067009Y-159502778D01*
X115031271Y-159473448D01*
X114929814Y-159390186D01*
X114846552Y-159288729D01*
X114817222Y-159252991D01*
X114733557Y-159096466D01*
X114682037Y-158926627D01*
X114664641Y-158750000D01*
X114682037Y-158573373D01*
X114733557Y-158403534D01*
X114817222Y-158247009D01*
X114846552Y-158211271D01*
X114929814Y-158109814D01*
X115031271Y-158026552D01*
X115067009Y-157997222D01*
X115223534Y-157913557D01*
X115393373Y-157862037D01*
X115459557Y-157855519D01*
X115525740Y-157849000D01*
X115614260Y-157849000D01*
X115680443Y-157855519D01*
X115680443Y-157855519D01*
G37*
G36*
X108060443Y-157855519D02*
G01*
X108126627Y-157862037D01*
X108296466Y-157913557D01*
X108452991Y-157997222D01*
X108488729Y-158026552D01*
X108590186Y-158109814D01*
X108673448Y-158211271D01*
X108702778Y-158247009D01*
X108786443Y-158403534D01*
X108837963Y-158573373D01*
X108855359Y-158750000D01*
X108837963Y-158926627D01*
X108786443Y-159096466D01*
X108702778Y-159252991D01*
X108673448Y-159288729D01*
X108590186Y-159390186D01*
X108488729Y-159473448D01*
X108452991Y-159502778D01*
X108296466Y-159586443D01*
X108126627Y-159637963D01*
X108060442Y-159644482D01*
X107994260Y-159651000D01*
X107905740Y-159651000D01*
X107839558Y-159644482D01*
X107773373Y-159637963D01*
X107603534Y-159586443D01*
X107447009Y-159502778D01*
X107411271Y-159473448D01*
X107309814Y-159390186D01*
X107226552Y-159288729D01*
X107197222Y-159252991D01*
X107113557Y-159096466D01*
X107062037Y-158926627D01*
X107044641Y-158750000D01*
X107062037Y-158573373D01*
X107113557Y-158403534D01*
X107197222Y-158247009D01*
X107226552Y-158211271D01*
X107309814Y-158109814D01*
X107411271Y-158026552D01*
X107447009Y-157997222D01*
X107603534Y-157913557D01*
X107773373Y-157862037D01*
X107839557Y-157855519D01*
X107905740Y-157849000D01*
X107994260Y-157849000D01*
X108060443Y-157855519D01*
X108060443Y-157855519D01*
G37*
G36*
X106311000Y-159651000D02*
G01*
X104509000Y-159651000D01*
X104509000Y-157849000D01*
X106311000Y-157849000D01*
X106311000Y-159651000D01*
X106311000Y-159651000D01*
G37*
G36*
X97621001Y-158556001D02*
G01*
X94819001Y-158556001D01*
X94819001Y-156954001D01*
X97621001Y-156954001D01*
X97621001Y-158556001D01*
X97621001Y-158556001D01*
G37*
G36*
X145881001Y-158556001D02*
G01*
X143079001Y-158556001D01*
X143079001Y-156954001D01*
X145881001Y-156954001D01*
X145881001Y-158556001D01*
X145881001Y-158556001D01*
G37*
G36*
X97621001Y-156016001D02*
G01*
X94819001Y-156016001D01*
X94819001Y-154414001D01*
X97621001Y-154414001D01*
X97621001Y-156016001D01*
X97621001Y-156016001D01*
G37*
G36*
X145881001Y-156016001D02*
G01*
X143079001Y-156016001D01*
X143079001Y-154414001D01*
X145881001Y-154414001D01*
X145881001Y-156016001D01*
X145881001Y-156016001D01*
G37*
G36*
X145881001Y-153476001D02*
G01*
X143079001Y-153476001D01*
X143079001Y-151874001D01*
X145881001Y-151874001D01*
X145881001Y-153476001D01*
X145881001Y-153476001D01*
G37*
G36*
X97621001Y-153476001D02*
G01*
X94819001Y-153476001D01*
X94819001Y-151874001D01*
X97621001Y-151874001D01*
X97621001Y-153476001D01*
X97621001Y-153476001D01*
G37*
G36*
X102501000Y-153301000D02*
G01*
X100699000Y-153301000D01*
X100699000Y-151499000D01*
X102501000Y-151499000D01*
X102501000Y-153301000D01*
X102501000Y-153301000D01*
G37*
G36*
X139839000Y-153301000D02*
G01*
X138037000Y-153301000D01*
X138037000Y-151499000D01*
X139839000Y-151499000D01*
X139839000Y-153301000D01*
X139839000Y-153301000D01*
G37*
G36*
X117006823Y-151561313D02*
G01*
X117167242Y-151609976D01*
X117299906Y-151680886D01*
X117315078Y-151688996D01*
X117444659Y-151795341D01*
X117551004Y-151924922D01*
X117551005Y-151924924D01*
X117630024Y-152072758D01*
X117678687Y-152233177D01*
X117695117Y-152400000D01*
X117678687Y-152566823D01*
X117630024Y-152727242D01*
X117559114Y-152859906D01*
X117551004Y-152875078D01*
X117444659Y-153004659D01*
X117315078Y-153111004D01*
X117315076Y-153111005D01*
X117167242Y-153190024D01*
X117006823Y-153238687D01*
X116881804Y-153251000D01*
X116798196Y-153251000D01*
X116673177Y-153238687D01*
X116512758Y-153190024D01*
X116364924Y-153111005D01*
X116364922Y-153111004D01*
X116235341Y-153004659D01*
X116128996Y-152875078D01*
X116120886Y-152859906D01*
X116049976Y-152727242D01*
X116001313Y-152566823D01*
X115984883Y-152400000D01*
X116001313Y-152233177D01*
X116049976Y-152072758D01*
X116128995Y-151924924D01*
X116128996Y-151924922D01*
X116235341Y-151795341D01*
X116364922Y-151688996D01*
X116380094Y-151680886D01*
X116512758Y-151609976D01*
X116673177Y-151561313D01*
X116798196Y-151549000D01*
X116881804Y-151549000D01*
X117006823Y-151561313D01*
X117006823Y-151561313D01*
G37*
G36*
X114466823Y-151561313D02*
G01*
X114627242Y-151609976D01*
X114759906Y-151680886D01*
X114775078Y-151688996D01*
X114904659Y-151795341D01*
X115011004Y-151924922D01*
X115011005Y-151924924D01*
X115090024Y-152072758D01*
X115138687Y-152233177D01*
X115155117Y-152400000D01*
X115138687Y-152566823D01*
X115090024Y-152727242D01*
X115019114Y-152859906D01*
X115011004Y-152875078D01*
X114904659Y-153004659D01*
X114775078Y-153111004D01*
X114775076Y-153111005D01*
X114627242Y-153190024D01*
X114466823Y-153238687D01*
X114341804Y-153251000D01*
X114258196Y-153251000D01*
X114133177Y-153238687D01*
X113972758Y-153190024D01*
X113824924Y-153111005D01*
X113824922Y-153111004D01*
X113695341Y-153004659D01*
X113588996Y-152875078D01*
X113580886Y-152859906D01*
X113509976Y-152727242D01*
X113461313Y-152566823D01*
X113444883Y-152400000D01*
X113461313Y-152233177D01*
X113509976Y-152072758D01*
X113588995Y-151924924D01*
X113588996Y-151924922D01*
X113695341Y-151795341D01*
X113824922Y-151688996D01*
X113840094Y-151680886D01*
X113972758Y-151609976D01*
X114133177Y-151561313D01*
X114258196Y-151549000D01*
X114341804Y-151549000D01*
X114466823Y-151561313D01*
X114466823Y-151561313D01*
G37*
G36*
X112611000Y-153251000D02*
G01*
X110909000Y-153251000D01*
X110909000Y-151549000D01*
X112611000Y-151549000D01*
X112611000Y-153251000D01*
X112611000Y-153251000D01*
G37*
G36*
X122086823Y-151561313D02*
G01*
X122247242Y-151609976D01*
X122379906Y-151680886D01*
X122395078Y-151688996D01*
X122524659Y-151795341D01*
X122631004Y-151924922D01*
X122631005Y-151924924D01*
X122710024Y-152072758D01*
X122758687Y-152233177D01*
X122775117Y-152400000D01*
X122758687Y-152566823D01*
X122710024Y-152727242D01*
X122639114Y-152859906D01*
X122631004Y-152875078D01*
X122524659Y-153004659D01*
X122395078Y-153111004D01*
X122395076Y-153111005D01*
X122247242Y-153190024D01*
X122086823Y-153238687D01*
X121961804Y-153251000D01*
X121878196Y-153251000D01*
X121753177Y-153238687D01*
X121592758Y-153190024D01*
X121444924Y-153111005D01*
X121444922Y-153111004D01*
X121315341Y-153004659D01*
X121208996Y-152875078D01*
X121200886Y-152859906D01*
X121129976Y-152727242D01*
X121081313Y-152566823D01*
X121064883Y-152400000D01*
X121081313Y-152233177D01*
X121129976Y-152072758D01*
X121208995Y-151924924D01*
X121208996Y-151924922D01*
X121315341Y-151795341D01*
X121444922Y-151688996D01*
X121460094Y-151680886D01*
X121592758Y-151609976D01*
X121753177Y-151561313D01*
X121878196Y-151549000D01*
X121961804Y-151549000D01*
X122086823Y-151561313D01*
X122086823Y-151561313D01*
G37*
G36*
X124626823Y-151561313D02*
G01*
X124787242Y-151609976D01*
X124919906Y-151680886D01*
X124935078Y-151688996D01*
X125064659Y-151795341D01*
X125171004Y-151924922D01*
X125171005Y-151924924D01*
X125250024Y-152072758D01*
X125298687Y-152233177D01*
X125315117Y-152400000D01*
X125298687Y-152566823D01*
X125250024Y-152727242D01*
X125179114Y-152859906D01*
X125171004Y-152875078D01*
X125064659Y-153004659D01*
X124935078Y-153111004D01*
X124935076Y-153111005D01*
X124787242Y-153190024D01*
X124626823Y-153238687D01*
X124501804Y-153251000D01*
X124418196Y-153251000D01*
X124293177Y-153238687D01*
X124132758Y-153190024D01*
X123984924Y-153111005D01*
X123984922Y-153111004D01*
X123855341Y-153004659D01*
X123748996Y-152875078D01*
X123740886Y-152859906D01*
X123669976Y-152727242D01*
X123621313Y-152566823D01*
X123604883Y-152400000D01*
X123621313Y-152233177D01*
X123669976Y-152072758D01*
X123748995Y-151924924D01*
X123748996Y-151924922D01*
X123855341Y-151795341D01*
X123984922Y-151688996D01*
X124000094Y-151680886D01*
X124132758Y-151609976D01*
X124293177Y-151561313D01*
X124418196Y-151549000D01*
X124501804Y-151549000D01*
X124626823Y-151561313D01*
X124626823Y-151561313D01*
G37*
G36*
X127166823Y-151561313D02*
G01*
X127327242Y-151609976D01*
X127459906Y-151680886D01*
X127475078Y-151688996D01*
X127604659Y-151795341D01*
X127711004Y-151924922D01*
X127711005Y-151924924D01*
X127790024Y-152072758D01*
X127838687Y-152233177D01*
X127855117Y-152400000D01*
X127838687Y-152566823D01*
X127790024Y-152727242D01*
X127719114Y-152859906D01*
X127711004Y-152875078D01*
X127604659Y-153004659D01*
X127475078Y-153111004D01*
X127475076Y-153111005D01*
X127327242Y-153190024D01*
X127166823Y-153238687D01*
X127041804Y-153251000D01*
X126958196Y-153251000D01*
X126833177Y-153238687D01*
X126672758Y-153190024D01*
X126524924Y-153111005D01*
X126524922Y-153111004D01*
X126395341Y-153004659D01*
X126288996Y-152875078D01*
X126280886Y-152859906D01*
X126209976Y-152727242D01*
X126161313Y-152566823D01*
X126144883Y-152400000D01*
X126161313Y-152233177D01*
X126209976Y-152072758D01*
X126288995Y-151924924D01*
X126288996Y-151924922D01*
X126395341Y-151795341D01*
X126524922Y-151688996D01*
X126540094Y-151680886D01*
X126672758Y-151609976D01*
X126833177Y-151561313D01*
X126958196Y-151549000D01*
X127041804Y-151549000D01*
X127166823Y-151561313D01*
X127166823Y-151561313D01*
G37*
G36*
X129706823Y-151561313D02*
G01*
X129867242Y-151609976D01*
X129999906Y-151680886D01*
X130015078Y-151688996D01*
X130144659Y-151795341D01*
X130251004Y-151924922D01*
X130251005Y-151924924D01*
X130330024Y-152072758D01*
X130378687Y-152233177D01*
X130395117Y-152400000D01*
X130378687Y-152566823D01*
X130330024Y-152727242D01*
X130259114Y-152859906D01*
X130251004Y-152875078D01*
X130144659Y-153004659D01*
X130015078Y-153111004D01*
X130015076Y-153111005D01*
X129867242Y-153190024D01*
X129706823Y-153238687D01*
X129581804Y-153251000D01*
X129498196Y-153251000D01*
X129373177Y-153238687D01*
X129212758Y-153190024D01*
X129064924Y-153111005D01*
X129064922Y-153111004D01*
X128935341Y-153004659D01*
X128828996Y-152875078D01*
X128820886Y-152859906D01*
X128749976Y-152727242D01*
X128701313Y-152566823D01*
X128684883Y-152400000D01*
X128701313Y-152233177D01*
X128749976Y-152072758D01*
X128828995Y-151924924D01*
X128828996Y-151924922D01*
X128935341Y-151795341D01*
X129064922Y-151688996D01*
X129080094Y-151680886D01*
X129212758Y-151609976D01*
X129373177Y-151561313D01*
X129498196Y-151549000D01*
X129581804Y-151549000D01*
X129706823Y-151561313D01*
X129706823Y-151561313D01*
G37*
G36*
X119546823Y-151561313D02*
G01*
X119707242Y-151609976D01*
X119839906Y-151680886D01*
X119855078Y-151688996D01*
X119984659Y-151795341D01*
X120091004Y-151924922D01*
X120091005Y-151924924D01*
X120170024Y-152072758D01*
X120218687Y-152233177D01*
X120235117Y-152400000D01*
X120218687Y-152566823D01*
X120170024Y-152727242D01*
X120099114Y-152859906D01*
X120091004Y-152875078D01*
X119984659Y-153004659D01*
X119855078Y-153111004D01*
X119855076Y-153111005D01*
X119707242Y-153190024D01*
X119546823Y-153238687D01*
X119421804Y-153251000D01*
X119338196Y-153251000D01*
X119213177Y-153238687D01*
X119052758Y-153190024D01*
X118904924Y-153111005D01*
X118904922Y-153111004D01*
X118775341Y-153004659D01*
X118668996Y-152875078D01*
X118660886Y-152859906D01*
X118589976Y-152727242D01*
X118541313Y-152566823D01*
X118524883Y-152400000D01*
X118541313Y-152233177D01*
X118589976Y-152072758D01*
X118668995Y-151924924D01*
X118668996Y-151924922D01*
X118775341Y-151795341D01*
X118904922Y-151688996D01*
X118920094Y-151680886D01*
X119052758Y-151609976D01*
X119213177Y-151561313D01*
X119338196Y-151549000D01*
X119421804Y-151549000D01*
X119546823Y-151561313D01*
X119546823Y-151561313D01*
G37*
G36*
X97621001Y-150936001D02*
G01*
X94819001Y-150936001D01*
X94819001Y-149334001D01*
X97621001Y-149334001D01*
X97621001Y-150936001D01*
X97621001Y-150936001D01*
G37*
G36*
X145881001Y-150936001D02*
G01*
X143079001Y-150936001D01*
X143079001Y-149334001D01*
X145881001Y-149334001D01*
X145881001Y-150936001D01*
X145881001Y-150936001D01*
G37*
G36*
X139048443Y-148965519D02*
G01*
X139114627Y-148972037D01*
X139284466Y-149023557D01*
X139440991Y-149107222D01*
X139476729Y-149136552D01*
X139578186Y-149219814D01*
X139661448Y-149321271D01*
X139690778Y-149357009D01*
X139774443Y-149513534D01*
X139825963Y-149683373D01*
X139843359Y-149860000D01*
X139825963Y-150036627D01*
X139774443Y-150206466D01*
X139690778Y-150362991D01*
X139661448Y-150398729D01*
X139578186Y-150500186D01*
X139476729Y-150583448D01*
X139440991Y-150612778D01*
X139284466Y-150696443D01*
X139114627Y-150747963D01*
X139048443Y-150754481D01*
X138982260Y-150761000D01*
X138893740Y-150761000D01*
X138827557Y-150754481D01*
X138761373Y-150747963D01*
X138591534Y-150696443D01*
X138435009Y-150612778D01*
X138399271Y-150583448D01*
X138297814Y-150500186D01*
X138214552Y-150398729D01*
X138185222Y-150362991D01*
X138101557Y-150206466D01*
X138050037Y-150036627D01*
X138032641Y-149860000D01*
X138050037Y-149683373D01*
X138101557Y-149513534D01*
X138185222Y-149357009D01*
X138214552Y-149321271D01*
X138297814Y-149219814D01*
X138399271Y-149136552D01*
X138435009Y-149107222D01*
X138591534Y-149023557D01*
X138761373Y-148972037D01*
X138827557Y-148965519D01*
X138893740Y-148959000D01*
X138982260Y-148959000D01*
X139048443Y-148965519D01*
X139048443Y-148965519D01*
G37*
G36*
X101710443Y-148965519D02*
G01*
X101776627Y-148972037D01*
X101946466Y-149023557D01*
X102102991Y-149107222D01*
X102138729Y-149136552D01*
X102240186Y-149219814D01*
X102323448Y-149321271D01*
X102352778Y-149357009D01*
X102436443Y-149513534D01*
X102487963Y-149683373D01*
X102505359Y-149860000D01*
X102487963Y-150036627D01*
X102436443Y-150206466D01*
X102352778Y-150362991D01*
X102323448Y-150398729D01*
X102240186Y-150500186D01*
X102138729Y-150583448D01*
X102102991Y-150612778D01*
X101946466Y-150696443D01*
X101776627Y-150747963D01*
X101710443Y-150754481D01*
X101644260Y-150761000D01*
X101555740Y-150761000D01*
X101489557Y-150754481D01*
X101423373Y-150747963D01*
X101253534Y-150696443D01*
X101097009Y-150612778D01*
X101061271Y-150583448D01*
X100959814Y-150500186D01*
X100876552Y-150398729D01*
X100847222Y-150362991D01*
X100763557Y-150206466D01*
X100712037Y-150036627D01*
X100694641Y-149860000D01*
X100712037Y-149683373D01*
X100763557Y-149513534D01*
X100847222Y-149357009D01*
X100876552Y-149321271D01*
X100959814Y-149219814D01*
X101061271Y-149136552D01*
X101097009Y-149107222D01*
X101253534Y-149023557D01*
X101423373Y-148972037D01*
X101489557Y-148965519D01*
X101555740Y-148959000D01*
X101644260Y-148959000D01*
X101710443Y-148965519D01*
X101710443Y-148965519D01*
G37*
G36*
X145881001Y-148396001D02*
G01*
X143079001Y-148396001D01*
X143079001Y-146794001D01*
X145881001Y-146794001D01*
X145881001Y-148396001D01*
X145881001Y-148396001D01*
G37*
G36*
X97621001Y-148396001D02*
G01*
X94819001Y-148396001D01*
X94819001Y-146794001D01*
X97621001Y-146794001D01*
X97621001Y-148396001D01*
X97621001Y-148396001D01*
G37*
G36*
X139048442Y-146425518D02*
G01*
X139114627Y-146432037D01*
X139284466Y-146483557D01*
X139440991Y-146567222D01*
X139476729Y-146596552D01*
X139578186Y-146679814D01*
X139661448Y-146781271D01*
X139690778Y-146817009D01*
X139774443Y-146973534D01*
X139825963Y-147143373D01*
X139843359Y-147320000D01*
X139825963Y-147496627D01*
X139774443Y-147666466D01*
X139690778Y-147822991D01*
X139661448Y-147858729D01*
X139578186Y-147960186D01*
X139476729Y-148043448D01*
X139440991Y-148072778D01*
X139284466Y-148156443D01*
X139114627Y-148207963D01*
X139048442Y-148214482D01*
X138982260Y-148221000D01*
X138893740Y-148221000D01*
X138827558Y-148214482D01*
X138761373Y-148207963D01*
X138591534Y-148156443D01*
X138435009Y-148072778D01*
X138399271Y-148043448D01*
X138297814Y-147960186D01*
X138214552Y-147858729D01*
X138185222Y-147822991D01*
X138101557Y-147666466D01*
X138050037Y-147496627D01*
X138032641Y-147320000D01*
X138050037Y-147143373D01*
X138101557Y-146973534D01*
X138185222Y-146817009D01*
X138214552Y-146781271D01*
X138297814Y-146679814D01*
X138399271Y-146596552D01*
X138435009Y-146567222D01*
X138591534Y-146483557D01*
X138761373Y-146432037D01*
X138827558Y-146425518D01*
X138893740Y-146419000D01*
X138982260Y-146419000D01*
X139048442Y-146425518D01*
X139048442Y-146425518D01*
G37*
G36*
X101710442Y-146425518D02*
G01*
X101776627Y-146432037D01*
X101946466Y-146483557D01*
X102102991Y-146567222D01*
X102138729Y-146596552D01*
X102240186Y-146679814D01*
X102323448Y-146781271D01*
X102352778Y-146817009D01*
X102436443Y-146973534D01*
X102487963Y-147143373D01*
X102505359Y-147320000D01*
X102487963Y-147496627D01*
X102436443Y-147666466D01*
X102352778Y-147822991D01*
X102323448Y-147858729D01*
X102240186Y-147960186D01*
X102138729Y-148043448D01*
X102102991Y-148072778D01*
X101946466Y-148156443D01*
X101776627Y-148207963D01*
X101710442Y-148214482D01*
X101644260Y-148221000D01*
X101555740Y-148221000D01*
X101489558Y-148214482D01*
X101423373Y-148207963D01*
X101253534Y-148156443D01*
X101097009Y-148072778D01*
X101061271Y-148043448D01*
X100959814Y-147960186D01*
X100876552Y-147858729D01*
X100847222Y-147822991D01*
X100763557Y-147666466D01*
X100712037Y-147496627D01*
X100694641Y-147320000D01*
X100712037Y-147143373D01*
X100763557Y-146973534D01*
X100847222Y-146817009D01*
X100876552Y-146781271D01*
X100959814Y-146679814D01*
X101061271Y-146596552D01*
X101097009Y-146567222D01*
X101253534Y-146483557D01*
X101423373Y-146432037D01*
X101489558Y-146425518D01*
X101555740Y-146419000D01*
X101644260Y-146419000D01*
X101710442Y-146425518D01*
X101710442Y-146425518D01*
G37*
G36*
X145881001Y-145856001D02*
G01*
X143079001Y-145856001D01*
X143079001Y-144254001D01*
X145881001Y-144254001D01*
X145881001Y-145856001D01*
X145881001Y-145856001D01*
G37*
G36*
X139048443Y-143885519D02*
G01*
X139114627Y-143892037D01*
X139284466Y-143943557D01*
X139440991Y-144027222D01*
X139476729Y-144056552D01*
X139578186Y-144139814D01*
X139661448Y-144241271D01*
X139690778Y-144277009D01*
X139774443Y-144433534D01*
X139825963Y-144603373D01*
X139843359Y-144780000D01*
X139825963Y-144956627D01*
X139774443Y-145126466D01*
X139690778Y-145282991D01*
X139661448Y-145318729D01*
X139578186Y-145420186D01*
X139476729Y-145503448D01*
X139440991Y-145532778D01*
X139284466Y-145616443D01*
X139114627Y-145667963D01*
X139048443Y-145674481D01*
X138982260Y-145681000D01*
X138893740Y-145681000D01*
X138827557Y-145674481D01*
X138761373Y-145667963D01*
X138591534Y-145616443D01*
X138435009Y-145532778D01*
X138399271Y-145503448D01*
X138297814Y-145420186D01*
X138214552Y-145318729D01*
X138185222Y-145282991D01*
X138101557Y-145126466D01*
X138050037Y-144956627D01*
X138032641Y-144780000D01*
X138050037Y-144603373D01*
X138101557Y-144433534D01*
X138185222Y-144277009D01*
X138214552Y-144241271D01*
X138297814Y-144139814D01*
X138399271Y-144056552D01*
X138435009Y-144027222D01*
X138591534Y-143943557D01*
X138761373Y-143892037D01*
X138827557Y-143885519D01*
X138893740Y-143879000D01*
X138982260Y-143879000D01*
X139048443Y-143885519D01*
X139048443Y-143885519D01*
G37*
G36*
X101710443Y-143885519D02*
G01*
X101776627Y-143892037D01*
X101946466Y-143943557D01*
X102102991Y-144027222D01*
X102138729Y-144056552D01*
X102240186Y-144139814D01*
X102323448Y-144241271D01*
X102352778Y-144277009D01*
X102436443Y-144433534D01*
X102487963Y-144603373D01*
X102505359Y-144780000D01*
X102487963Y-144956627D01*
X102436443Y-145126466D01*
X102352778Y-145282991D01*
X102323448Y-145318729D01*
X102240186Y-145420186D01*
X102138729Y-145503448D01*
X102102991Y-145532778D01*
X101946466Y-145616443D01*
X101776627Y-145667963D01*
X101710443Y-145674481D01*
X101644260Y-145681000D01*
X101555740Y-145681000D01*
X101489557Y-145674481D01*
X101423373Y-145667963D01*
X101253534Y-145616443D01*
X101097009Y-145532778D01*
X101061271Y-145503448D01*
X100959814Y-145420186D01*
X100876552Y-145318729D01*
X100847222Y-145282991D01*
X100763557Y-145126466D01*
X100712037Y-144956627D01*
X100694641Y-144780000D01*
X100712037Y-144603373D01*
X100763557Y-144433534D01*
X100847222Y-144277009D01*
X100876552Y-144241271D01*
X100959814Y-144139814D01*
X101061271Y-144056552D01*
X101097009Y-144027222D01*
X101253534Y-143943557D01*
X101423373Y-143892037D01*
X101489557Y-143885519D01*
X101555740Y-143879000D01*
X101644260Y-143879000D01*
X101710443Y-143885519D01*
X101710443Y-143885519D01*
G37*
G36*
X114466823Y-143941313D02*
G01*
X114627242Y-143989976D01*
X114696922Y-144027221D01*
X114775078Y-144068996D01*
X114904659Y-144175341D01*
X115011004Y-144304922D01*
X115011005Y-144304924D01*
X115090024Y-144452758D01*
X115138687Y-144613177D01*
X115155117Y-144780000D01*
X115138687Y-144946823D01*
X115090024Y-145107242D01*
X115079747Y-145126468D01*
X115011004Y-145255078D01*
X114904659Y-145384659D01*
X114775078Y-145491004D01*
X114775076Y-145491005D01*
X114627242Y-145570024D01*
X114466823Y-145618687D01*
X114341804Y-145631000D01*
X114258196Y-145631000D01*
X114133177Y-145618687D01*
X113972758Y-145570024D01*
X113824924Y-145491005D01*
X113824922Y-145491004D01*
X113695341Y-145384659D01*
X113588996Y-145255078D01*
X113520253Y-145126468D01*
X113509976Y-145107242D01*
X113461313Y-144946823D01*
X113444883Y-144780000D01*
X113461313Y-144613177D01*
X113509976Y-144452758D01*
X113588995Y-144304924D01*
X113588996Y-144304922D01*
X113695341Y-144175341D01*
X113824922Y-144068996D01*
X113903078Y-144027221D01*
X113972758Y-143989976D01*
X114133177Y-143941313D01*
X114258196Y-143929000D01*
X114341804Y-143929000D01*
X114466823Y-143941313D01*
X114466823Y-143941313D01*
G37*
G36*
X129706823Y-143941313D02*
G01*
X129867242Y-143989976D01*
X129936922Y-144027221D01*
X130015078Y-144068996D01*
X130144659Y-144175341D01*
X130251004Y-144304922D01*
X130251005Y-144304924D01*
X130330024Y-144452758D01*
X130378687Y-144613177D01*
X130395117Y-144780000D01*
X130378687Y-144946823D01*
X130330024Y-145107242D01*
X130319747Y-145126468D01*
X130251004Y-145255078D01*
X130144659Y-145384659D01*
X130015078Y-145491004D01*
X130015076Y-145491005D01*
X129867242Y-145570024D01*
X129706823Y-145618687D01*
X129581804Y-145631000D01*
X129498196Y-145631000D01*
X129373177Y-145618687D01*
X129212758Y-145570024D01*
X129064924Y-145491005D01*
X129064922Y-145491004D01*
X128935341Y-145384659D01*
X128828996Y-145255078D01*
X128760253Y-145126468D01*
X128749976Y-145107242D01*
X128701313Y-144946823D01*
X128684883Y-144780000D01*
X128701313Y-144613177D01*
X128749976Y-144452758D01*
X128828995Y-144304924D01*
X128828996Y-144304922D01*
X128935341Y-144175341D01*
X129064922Y-144068996D01*
X129143078Y-144027221D01*
X129212758Y-143989976D01*
X129373177Y-143941313D01*
X129498196Y-143929000D01*
X129581804Y-143929000D01*
X129706823Y-143941313D01*
X129706823Y-143941313D01*
G37*
G36*
X122086823Y-143941313D02*
G01*
X122247242Y-143989976D01*
X122316922Y-144027221D01*
X122395078Y-144068996D01*
X122524659Y-144175341D01*
X122631004Y-144304922D01*
X122631005Y-144304924D01*
X122710024Y-144452758D01*
X122758687Y-144613177D01*
X122775117Y-144780000D01*
X122758687Y-144946823D01*
X122710024Y-145107242D01*
X122699747Y-145126468D01*
X122631004Y-145255078D01*
X122524659Y-145384659D01*
X122395078Y-145491004D01*
X122395076Y-145491005D01*
X122247242Y-145570024D01*
X122086823Y-145618687D01*
X121961804Y-145631000D01*
X121878196Y-145631000D01*
X121753177Y-145618687D01*
X121592758Y-145570024D01*
X121444924Y-145491005D01*
X121444922Y-145491004D01*
X121315341Y-145384659D01*
X121208996Y-145255078D01*
X121140253Y-145126468D01*
X121129976Y-145107242D01*
X121081313Y-144946823D01*
X121064883Y-144780000D01*
X121081313Y-144613177D01*
X121129976Y-144452758D01*
X121208995Y-144304924D01*
X121208996Y-144304922D01*
X121315341Y-144175341D01*
X121444922Y-144068996D01*
X121523078Y-144027221D01*
X121592758Y-143989976D01*
X121753177Y-143941313D01*
X121878196Y-143929000D01*
X121961804Y-143929000D01*
X122086823Y-143941313D01*
X122086823Y-143941313D01*
G37*
G36*
X124626823Y-143941313D02*
G01*
X124787242Y-143989976D01*
X124856922Y-144027221D01*
X124935078Y-144068996D01*
X125064659Y-144175341D01*
X125171004Y-144304922D01*
X125171005Y-144304924D01*
X125250024Y-144452758D01*
X125298687Y-144613177D01*
X125315117Y-144780000D01*
X125298687Y-144946823D01*
X125250024Y-145107242D01*
X125239747Y-145126468D01*
X125171004Y-145255078D01*
X125064659Y-145384659D01*
X124935078Y-145491004D01*
X124935076Y-145491005D01*
X124787242Y-145570024D01*
X124626823Y-145618687D01*
X124501804Y-145631000D01*
X124418196Y-145631000D01*
X124293177Y-145618687D01*
X124132758Y-145570024D01*
X123984924Y-145491005D01*
X123984922Y-145491004D01*
X123855341Y-145384659D01*
X123748996Y-145255078D01*
X123680253Y-145126468D01*
X123669976Y-145107242D01*
X123621313Y-144946823D01*
X123604883Y-144780000D01*
X123621313Y-144613177D01*
X123669976Y-144452758D01*
X123748995Y-144304924D01*
X123748996Y-144304922D01*
X123855341Y-144175341D01*
X123984922Y-144068996D01*
X124063078Y-144027221D01*
X124132758Y-143989976D01*
X124293177Y-143941313D01*
X124418196Y-143929000D01*
X124501804Y-143929000D01*
X124626823Y-143941313D01*
X124626823Y-143941313D01*
G37*
G36*
X127166823Y-143941313D02*
G01*
X127327242Y-143989976D01*
X127396922Y-144027221D01*
X127475078Y-144068996D01*
X127604659Y-144175341D01*
X127711004Y-144304922D01*
X127711005Y-144304924D01*
X127790024Y-144452758D01*
X127838687Y-144613177D01*
X127855117Y-144780000D01*
X127838687Y-144946823D01*
X127790024Y-145107242D01*
X127779747Y-145126468D01*
X127711004Y-145255078D01*
X127604659Y-145384659D01*
X127475078Y-145491004D01*
X127475076Y-145491005D01*
X127327242Y-145570024D01*
X127166823Y-145618687D01*
X127041804Y-145631000D01*
X126958196Y-145631000D01*
X126833177Y-145618687D01*
X126672758Y-145570024D01*
X126524924Y-145491005D01*
X126524922Y-145491004D01*
X126395341Y-145384659D01*
X126288996Y-145255078D01*
X126220253Y-145126468D01*
X126209976Y-145107242D01*
X126161313Y-144946823D01*
X126144883Y-144780000D01*
X126161313Y-144613177D01*
X126209976Y-144452758D01*
X126288995Y-144304924D01*
X126288996Y-144304922D01*
X126395341Y-144175341D01*
X126524922Y-144068996D01*
X126603078Y-144027221D01*
X126672758Y-143989976D01*
X126833177Y-143941313D01*
X126958196Y-143929000D01*
X127041804Y-143929000D01*
X127166823Y-143941313D01*
X127166823Y-143941313D01*
G37*
G36*
X119546823Y-143941313D02*
G01*
X119707242Y-143989976D01*
X119776922Y-144027221D01*
X119855078Y-144068996D01*
X119984659Y-144175341D01*
X120091004Y-144304922D01*
X120091005Y-144304924D01*
X120170024Y-144452758D01*
X120218687Y-144613177D01*
X120235117Y-144780000D01*
X120218687Y-144946823D01*
X120170024Y-145107242D01*
X120159747Y-145126468D01*
X120091004Y-145255078D01*
X119984659Y-145384659D01*
X119855078Y-145491004D01*
X119855076Y-145491005D01*
X119707242Y-145570024D01*
X119546823Y-145618687D01*
X119421804Y-145631000D01*
X119338196Y-145631000D01*
X119213177Y-145618687D01*
X119052758Y-145570024D01*
X118904924Y-145491005D01*
X118904922Y-145491004D01*
X118775341Y-145384659D01*
X118668996Y-145255078D01*
X118600253Y-145126468D01*
X118589976Y-145107242D01*
X118541313Y-144946823D01*
X118524883Y-144780000D01*
X118541313Y-144613177D01*
X118589976Y-144452758D01*
X118668995Y-144304924D01*
X118668996Y-144304922D01*
X118775341Y-144175341D01*
X118904922Y-144068996D01*
X118983078Y-144027221D01*
X119052758Y-143989976D01*
X119213177Y-143941313D01*
X119338196Y-143929000D01*
X119421804Y-143929000D01*
X119546823Y-143941313D01*
X119546823Y-143941313D01*
G37*
G36*
X117006823Y-143941313D02*
G01*
X117167242Y-143989976D01*
X117236922Y-144027221D01*
X117315078Y-144068996D01*
X117444659Y-144175341D01*
X117551004Y-144304922D01*
X117551005Y-144304924D01*
X117630024Y-144452758D01*
X117678687Y-144613177D01*
X117695117Y-144780000D01*
X117678687Y-144946823D01*
X117630024Y-145107242D01*
X117619747Y-145126468D01*
X117551004Y-145255078D01*
X117444659Y-145384659D01*
X117315078Y-145491004D01*
X117315076Y-145491005D01*
X117167242Y-145570024D01*
X117006823Y-145618687D01*
X116881804Y-145631000D01*
X116798196Y-145631000D01*
X116673177Y-145618687D01*
X116512758Y-145570024D01*
X116364924Y-145491005D01*
X116364922Y-145491004D01*
X116235341Y-145384659D01*
X116128996Y-145255078D01*
X116060253Y-145126468D01*
X116049976Y-145107242D01*
X116001313Y-144946823D01*
X115984883Y-144780000D01*
X116001313Y-144613177D01*
X116049976Y-144452758D01*
X116128995Y-144304924D01*
X116128996Y-144304922D01*
X116235341Y-144175341D01*
X116364922Y-144068996D01*
X116443078Y-144027221D01*
X116512758Y-143989976D01*
X116673177Y-143941313D01*
X116798196Y-143929000D01*
X116881804Y-143929000D01*
X117006823Y-143941313D01*
X117006823Y-143941313D01*
G37*
G36*
X111926823Y-143941313D02*
G01*
X112087242Y-143989976D01*
X112156922Y-144027221D01*
X112235078Y-144068996D01*
X112364659Y-144175341D01*
X112471004Y-144304922D01*
X112471005Y-144304924D01*
X112550024Y-144452758D01*
X112598687Y-144613177D01*
X112615117Y-144780000D01*
X112598687Y-144946823D01*
X112550024Y-145107242D01*
X112539747Y-145126468D01*
X112471004Y-145255078D01*
X112364659Y-145384659D01*
X112235078Y-145491004D01*
X112235076Y-145491005D01*
X112087242Y-145570024D01*
X111926823Y-145618687D01*
X111801804Y-145631000D01*
X111718196Y-145631000D01*
X111593177Y-145618687D01*
X111432758Y-145570024D01*
X111284924Y-145491005D01*
X111284922Y-145491004D01*
X111155341Y-145384659D01*
X111048996Y-145255078D01*
X110980253Y-145126468D01*
X110969976Y-145107242D01*
X110921313Y-144946823D01*
X110904883Y-144780000D01*
X110921313Y-144613177D01*
X110969976Y-144452758D01*
X111048995Y-144304924D01*
X111048996Y-144304922D01*
X111155341Y-144175341D01*
X111284922Y-144068996D01*
X111363078Y-144027221D01*
X111432758Y-143989976D01*
X111593177Y-143941313D01*
X111718196Y-143929000D01*
X111801804Y-143929000D01*
X111926823Y-143941313D01*
X111926823Y-143941313D01*
G37*
G36*
X145881001Y-143316001D02*
G01*
X143079001Y-143316001D01*
X143079001Y-141714001D01*
X145881001Y-141714001D01*
X145881001Y-143316001D01*
X145881001Y-143316001D01*
G37*
G36*
X97621001Y-143316001D02*
G01*
X94819001Y-143316001D01*
X94819001Y-141714001D01*
X97621001Y-141714001D01*
X97621001Y-143316001D01*
X97621001Y-143316001D01*
G37*
G36*
X101675257Y-138366299D02*
G01*
X101781580Y-138387448D01*
X102082043Y-138511904D01*
X102352452Y-138692586D01*
X102582416Y-138922550D01*
X102763098Y-139192959D01*
X102887554Y-139493422D01*
X102951001Y-139812392D01*
X102951001Y-140137610D01*
X102887554Y-140456580D01*
X102763098Y-140757043D01*
X102582416Y-141027452D01*
X102352452Y-141257416D01*
X102082043Y-141438098D01*
X101781580Y-141562554D01*
X101675257Y-141583703D01*
X101462612Y-141626001D01*
X101137390Y-141626001D01*
X100924745Y-141583703D01*
X100818422Y-141562554D01*
X100517959Y-141438098D01*
X100247550Y-141257416D01*
X100017586Y-141027452D01*
X99836904Y-140757043D01*
X99712448Y-140456580D01*
X99649001Y-140137610D01*
X99649001Y-139812392D01*
X99712448Y-139493422D01*
X99836904Y-139192959D01*
X100017586Y-138922550D01*
X100247550Y-138692586D01*
X100517959Y-138511904D01*
X100818422Y-138387448D01*
X100924745Y-138366299D01*
X101137390Y-138324001D01*
X101462612Y-138324001D01*
X101675257Y-138366299D01*
X101675257Y-138366299D01*
G37*
G36*
X129615257Y-138366299D02*
G01*
X129721580Y-138387448D01*
X130022043Y-138511904D01*
X130292452Y-138692586D01*
X130522416Y-138922550D01*
X130703098Y-139192959D01*
X130827554Y-139493422D01*
X130891001Y-139812392D01*
X130891001Y-140137610D01*
X130827554Y-140456580D01*
X130703098Y-140757043D01*
X130522416Y-141027452D01*
X130292452Y-141257416D01*
X130022043Y-141438098D01*
X129721580Y-141562554D01*
X129615257Y-141583703D01*
X129402612Y-141626001D01*
X129077390Y-141626001D01*
X128864745Y-141583703D01*
X128758422Y-141562554D01*
X128457959Y-141438098D01*
X128187550Y-141257416D01*
X127957586Y-141027452D01*
X127776904Y-140757043D01*
X127652448Y-140456580D01*
X127589001Y-140137610D01*
X127589001Y-139812392D01*
X127652448Y-139493422D01*
X127776904Y-139192959D01*
X127957586Y-138922550D01*
X128187550Y-138692586D01*
X128457959Y-138511904D01*
X128758422Y-138387448D01*
X128864745Y-138366299D01*
X129077390Y-138324001D01*
X129402612Y-138324001D01*
X129615257Y-138366299D01*
X129615257Y-138366299D01*
G37*
G36*
X97621001Y-140776001D02*
G01*
X94819001Y-140776001D01*
X94819001Y-139174001D01*
X97621001Y-139174001D01*
X97621001Y-140776001D01*
X97621001Y-140776001D01*
G37*
G36*
X145881001Y-138236001D02*
G01*
X143079001Y-138236001D01*
X143079001Y-136634001D01*
X145881001Y-136634001D01*
X145881001Y-138236001D01*
X145881001Y-138236001D01*
G37*
G36*
X97621001Y-138236001D02*
G01*
X94819001Y-138236001D01*
X94819001Y-136634001D01*
X97621001Y-136634001D01*
X97621001Y-138236001D01*
X97621001Y-138236001D01*
G37*
G36*
X97621001Y-135696001D02*
G01*
X94819001Y-135696001D01*
X94819001Y-134094001D01*
X97621001Y-134094001D01*
X97621001Y-135696001D01*
X97621001Y-135696001D01*
G37*
G36*
X145881001Y-135696001D02*
G01*
X143079001Y-135696001D01*
X143079001Y-134094001D01*
X145881001Y-134094001D01*
X145881001Y-135696001D01*
X145881001Y-135696001D01*
G37*
G36*
X127277395Y-132435546D02*
G01*
X127450466Y-132507234D01*
X127456572Y-132511314D01*
X127606227Y-132611310D01*
X127738690Y-132743773D01*
X127781284Y-132807520D01*
X127842766Y-132899534D01*
X127914454Y-133072605D01*
X127951000Y-133256333D01*
X127951000Y-133443667D01*
X127914454Y-133627395D01*
X127842766Y-133800466D01*
X127842765Y-133800467D01*
X127738690Y-133956227D01*
X127606227Y-134088690D01*
X127583092Y-134104148D01*
X127450466Y-134192766D01*
X127277395Y-134264454D01*
X127093667Y-134301000D01*
X126906333Y-134301000D01*
X126722605Y-134264454D01*
X126549534Y-134192766D01*
X126416908Y-134104148D01*
X126393773Y-134088690D01*
X126261310Y-133956227D01*
X126157235Y-133800467D01*
X126157234Y-133800466D01*
X126085546Y-133627395D01*
X126049000Y-133443667D01*
X126049000Y-133256333D01*
X126085546Y-133072605D01*
X126157234Y-132899534D01*
X126218716Y-132807520D01*
X126261310Y-132743773D01*
X126393773Y-132611310D01*
X126543428Y-132511314D01*
X126549534Y-132507234D01*
X126722605Y-132435546D01*
X126906333Y-132399000D01*
X127093667Y-132399000D01*
X127277395Y-132435546D01*
X127277395Y-132435546D01*
G37*
G36*
X125411000Y-134301000D02*
G01*
X123509000Y-134301000D01*
X123509000Y-132399000D01*
X125411000Y-132399000D01*
X125411000Y-134301000D01*
X125411000Y-134301000D01*
G37*
G36*
X132246823Y-132511313D02*
G01*
X132407242Y-132559976D01*
X132474361Y-132595852D01*
X132555078Y-132638996D01*
X132684659Y-132745341D01*
X132791004Y-132874922D01*
X132791005Y-132874924D01*
X132870024Y-133022758D01*
X132918687Y-133183177D01*
X132935117Y-133350000D01*
X132918687Y-133516823D01*
X132870024Y-133677242D01*
X132829477Y-133753100D01*
X132791004Y-133825078D01*
X132684659Y-133954659D01*
X132555078Y-134061004D01*
X132555076Y-134061005D01*
X132407242Y-134140024D01*
X132246823Y-134188687D01*
X132121804Y-134201000D01*
X132038196Y-134201000D01*
X131913177Y-134188687D01*
X131752758Y-134140024D01*
X131604924Y-134061005D01*
X131604922Y-134061004D01*
X131475341Y-133954659D01*
X131368996Y-133825078D01*
X131330523Y-133753100D01*
X131289976Y-133677242D01*
X131241313Y-133516823D01*
X131224883Y-133350000D01*
X131241313Y-133183177D01*
X131289976Y-133022758D01*
X131368995Y-132874924D01*
X131368996Y-132874922D01*
X131475341Y-132745341D01*
X131604922Y-132638996D01*
X131685639Y-132595852D01*
X131752758Y-132559976D01*
X131913177Y-132511313D01*
X132038196Y-132499000D01*
X132121804Y-132499000D01*
X132246823Y-132511313D01*
X132246823Y-132511313D01*
G37*
G36*
X139948228Y-132531703D02*
G01*
X140103100Y-132595853D01*
X140242481Y-132688985D01*
X140361015Y-132807519D01*
X140454147Y-132946900D01*
X140518297Y-133101772D01*
X140551000Y-133266184D01*
X140551000Y-133433816D01*
X140518297Y-133598228D01*
X140454147Y-133753100D01*
X140361015Y-133892481D01*
X140242481Y-134011015D01*
X140103100Y-134104147D01*
X139948228Y-134168297D01*
X139783816Y-134201000D01*
X139616184Y-134201000D01*
X139451772Y-134168297D01*
X139296900Y-134104147D01*
X139157519Y-134011015D01*
X139038985Y-133892481D01*
X138945853Y-133753100D01*
X138881703Y-133598228D01*
X138849000Y-133433816D01*
X138849000Y-133266184D01*
X138881703Y-133101772D01*
X138945853Y-132946900D01*
X139038985Y-132807519D01*
X139157519Y-132688985D01*
X139296900Y-132595853D01*
X139451772Y-132531703D01*
X139616184Y-132499000D01*
X139783816Y-132499000D01*
X139948228Y-132531703D01*
X139948228Y-132531703D01*
G37*
G36*
X97621001Y-133156001D02*
G01*
X94819001Y-133156001D01*
X94819001Y-131554001D01*
X97621001Y-131554001D01*
X97621001Y-133156001D01*
X97621001Y-133156001D01*
G37*
G36*
X145881001Y-133156001D02*
G01*
X143079001Y-133156001D01*
X143079001Y-131554001D01*
X145881001Y-131554001D01*
X145881001Y-133156001D01*
X145881001Y-133156001D01*
G37*
G36*
X145881001Y-130616001D02*
G01*
X143079001Y-130616001D01*
X143079001Y-129014001D01*
X145881001Y-129014001D01*
X145881001Y-130616001D01*
X145881001Y-130616001D01*
G37*
G36*
X97621001Y-130616001D02*
G01*
X94819001Y-130616001D01*
X94819001Y-129014001D01*
X97621001Y-129014001D01*
X97621001Y-130616001D01*
X97621001Y-130616001D01*
G37*
G36*
X127277395Y-128625546D02*
G01*
X127450466Y-128697234D01*
X127456572Y-128701314D01*
X127606227Y-128801310D01*
X127738690Y-128933773D01*
X127781284Y-128997520D01*
X127842766Y-129089534D01*
X127914454Y-129262605D01*
X127951000Y-129446333D01*
X127951000Y-129633667D01*
X127914454Y-129817395D01*
X127842766Y-129990466D01*
X127842765Y-129990467D01*
X127738690Y-130146227D01*
X127606227Y-130278690D01*
X127583092Y-130294148D01*
X127450466Y-130382766D01*
X127277395Y-130454454D01*
X127093667Y-130491000D01*
X126906333Y-130491000D01*
X126722605Y-130454454D01*
X126549534Y-130382766D01*
X126416908Y-130294148D01*
X126393773Y-130278690D01*
X126261310Y-130146227D01*
X126157235Y-129990467D01*
X126157234Y-129990466D01*
X126085546Y-129817395D01*
X126049000Y-129633667D01*
X126049000Y-129446333D01*
X126085546Y-129262605D01*
X126157234Y-129089534D01*
X126218716Y-128997520D01*
X126261310Y-128933773D01*
X126393773Y-128801310D01*
X126543428Y-128701314D01*
X126549534Y-128697234D01*
X126722605Y-128625546D01*
X126906333Y-128589000D01*
X127093667Y-128589000D01*
X127277395Y-128625546D01*
X127277395Y-128625546D01*
G37*
G36*
X125411000Y-130491000D02*
G01*
X123509000Y-130491000D01*
X123509000Y-128589000D01*
X125411000Y-128589000D01*
X125411000Y-130491000D01*
X125411000Y-130491000D01*
G37*
G36*
X139948228Y-128721703D02*
G01*
X140103100Y-128785853D01*
X140242481Y-128878985D01*
X140361015Y-128997519D01*
X140454147Y-129136900D01*
X140518297Y-129291772D01*
X140551000Y-129456184D01*
X140551000Y-129623816D01*
X140518297Y-129788228D01*
X140454147Y-129943100D01*
X140361015Y-130082481D01*
X140242481Y-130201015D01*
X140103100Y-130294147D01*
X139948228Y-130358297D01*
X139783816Y-130391000D01*
X139616184Y-130391000D01*
X139451772Y-130358297D01*
X139296900Y-130294147D01*
X139157519Y-130201015D01*
X139038985Y-130082481D01*
X138945853Y-129943100D01*
X138881703Y-129788228D01*
X138849000Y-129623816D01*
X138849000Y-129456184D01*
X138881703Y-129291772D01*
X138945853Y-129136900D01*
X139038985Y-128997519D01*
X139157519Y-128878985D01*
X139296900Y-128785853D01*
X139451772Y-128721703D01*
X139616184Y-128689000D01*
X139783816Y-128689000D01*
X139948228Y-128721703D01*
X139948228Y-128721703D01*
G37*
G36*
X132246823Y-128701313D02*
G01*
X132407242Y-128749976D01*
X132474361Y-128785852D01*
X132555078Y-128828996D01*
X132684659Y-128935341D01*
X132791004Y-129064922D01*
X132791005Y-129064924D01*
X132870024Y-129212758D01*
X132918687Y-129373177D01*
X132935117Y-129540000D01*
X132918687Y-129706823D01*
X132870024Y-129867242D01*
X132829477Y-129943100D01*
X132791004Y-130015078D01*
X132684659Y-130144659D01*
X132555078Y-130251004D01*
X132555076Y-130251005D01*
X132407242Y-130330024D01*
X132246823Y-130378687D01*
X132121804Y-130391000D01*
X132038196Y-130391000D01*
X131913177Y-130378687D01*
X131752758Y-130330024D01*
X131604924Y-130251005D01*
X131604922Y-130251004D01*
X131475341Y-130144659D01*
X131368996Y-130015078D01*
X131330523Y-129943100D01*
X131289976Y-129867242D01*
X131241313Y-129706823D01*
X131224883Y-129540000D01*
X131241313Y-129373177D01*
X131289976Y-129212758D01*
X131368995Y-129064924D01*
X131368996Y-129064922D01*
X131475341Y-128935341D01*
X131604922Y-128828996D01*
X131685639Y-128785852D01*
X131752758Y-128749976D01*
X131913177Y-128701313D01*
X132038196Y-128689000D01*
X132121804Y-128689000D01*
X132246823Y-128701313D01*
X132246823Y-128701313D01*
G37*
G36*
X117791000Y-129983000D02*
G01*
X115889000Y-129983000D01*
X115889000Y-128081000D01*
X117791000Y-128081000D01*
X117791000Y-129983000D01*
X117791000Y-129983000D01*
G37*
G36*
X114577395Y-128117546D02*
G01*
X114750466Y-128189234D01*
X114756572Y-128193314D01*
X114906227Y-128293310D01*
X115038690Y-128425773D01*
X115081284Y-128489520D01*
X115142766Y-128581534D01*
X115214454Y-128754605D01*
X115251000Y-128938333D01*
X115251000Y-129125667D01*
X115214454Y-129309395D01*
X115142766Y-129482466D01*
X115142765Y-129482467D01*
X115038690Y-129638227D01*
X114906227Y-129770690D01*
X114883092Y-129786148D01*
X114750466Y-129874766D01*
X114577395Y-129946454D01*
X114393667Y-129983000D01*
X114206333Y-129983000D01*
X114022605Y-129946454D01*
X113849534Y-129874766D01*
X113716908Y-129786148D01*
X113693773Y-129770690D01*
X113561310Y-129638227D01*
X113457235Y-129482467D01*
X113457234Y-129482466D01*
X113385546Y-129309395D01*
X113349000Y-129125667D01*
X113349000Y-128938333D01*
X113385546Y-128754605D01*
X113457234Y-128581534D01*
X113518716Y-128489520D01*
X113561310Y-128425773D01*
X113693773Y-128293310D01*
X113843428Y-128193314D01*
X113849534Y-128189234D01*
X114022605Y-128117546D01*
X114206333Y-128081000D01*
X114393667Y-128081000D01*
X114577395Y-128117546D01*
X114577395Y-128117546D01*
G37*
G36*
X110910823Y-128193313D02*
G01*
X111071242Y-128241976D01*
X111138361Y-128277852D01*
X111219078Y-128320996D01*
X111348659Y-128427341D01*
X111455004Y-128556922D01*
X111455005Y-128556924D01*
X111534024Y-128704758D01*
X111582687Y-128865177D01*
X111599117Y-129032000D01*
X111582687Y-129198823D01*
X111534024Y-129359242D01*
X111493477Y-129435100D01*
X111455004Y-129507078D01*
X111348659Y-129636659D01*
X111219078Y-129743004D01*
X111219076Y-129743005D01*
X111071242Y-129822024D01*
X110910823Y-129870687D01*
X110785804Y-129883000D01*
X110702196Y-129883000D01*
X110577177Y-129870687D01*
X110416758Y-129822024D01*
X110268924Y-129743005D01*
X110268922Y-129743004D01*
X110139341Y-129636659D01*
X110032996Y-129507078D01*
X109994523Y-129435100D01*
X109953976Y-129359242D01*
X109905313Y-129198823D01*
X109888883Y-129032000D01*
X109905313Y-128865177D01*
X109953976Y-128704758D01*
X110032995Y-128556924D01*
X110032996Y-128556922D01*
X110139341Y-128427341D01*
X110268922Y-128320996D01*
X110349639Y-128277852D01*
X110416758Y-128241976D01*
X110577177Y-128193313D01*
X110702196Y-128181000D01*
X110785804Y-128181000D01*
X110910823Y-128193313D01*
X110910823Y-128193313D01*
G37*
G36*
X103372228Y-128213703D02*
G01*
X103527100Y-128277853D01*
X103666481Y-128370985D01*
X103785015Y-128489519D01*
X103878147Y-128628900D01*
X103942297Y-128783772D01*
X103975000Y-128948184D01*
X103975000Y-129115816D01*
X103942297Y-129280228D01*
X103878147Y-129435100D01*
X103785015Y-129574481D01*
X103666481Y-129693015D01*
X103527100Y-129786147D01*
X103372228Y-129850297D01*
X103207816Y-129883000D01*
X103040184Y-129883000D01*
X102875772Y-129850297D01*
X102720900Y-129786147D01*
X102581519Y-129693015D01*
X102462985Y-129574481D01*
X102369853Y-129435100D01*
X102305703Y-129280228D01*
X102273000Y-129115816D01*
X102273000Y-128948184D01*
X102305703Y-128783772D01*
X102369853Y-128628900D01*
X102462985Y-128489519D01*
X102581519Y-128370985D01*
X102720900Y-128277853D01*
X102875772Y-128213703D01*
X103040184Y-128181000D01*
X103207816Y-128181000D01*
X103372228Y-128213703D01*
X103372228Y-128213703D01*
G37*
G36*
X145881001Y-128076001D02*
G01*
X143079001Y-128076001D01*
X143079001Y-126474001D01*
X145881001Y-126474001D01*
X145881001Y-128076001D01*
X145881001Y-128076001D01*
G37*
G36*
X97621001Y-128076001D02*
G01*
X94819001Y-128076001D01*
X94819001Y-126474001D01*
X97621001Y-126474001D01*
X97621001Y-128076001D01*
X97621001Y-128076001D01*
G37*
G36*
X145881001Y-125536001D02*
G01*
X143079001Y-125536001D01*
X143079001Y-123934001D01*
X145881001Y-123934001D01*
X145881001Y-125536001D01*
X145881001Y-125536001D01*
G37*
G36*
X97621001Y-125536001D02*
G01*
X94819001Y-125536001D01*
X94819001Y-123934001D01*
X97621001Y-123934001D01*
X97621001Y-125536001D01*
X97621001Y-125536001D01*
G37*
G36*
X127277395Y-123545546D02*
G01*
X127450466Y-123617234D01*
X127522069Y-123665078D01*
X127606227Y-123721310D01*
X127738690Y-123853773D01*
X127770249Y-123901005D01*
X127842766Y-124009534D01*
X127914454Y-124182605D01*
X127951000Y-124366333D01*
X127951000Y-124553667D01*
X127914454Y-124737395D01*
X127842766Y-124910466D01*
X127842765Y-124910467D01*
X127738690Y-125066227D01*
X127606227Y-125198690D01*
X127527818Y-125251081D01*
X127450466Y-125302766D01*
X127277395Y-125374454D01*
X127093667Y-125411000D01*
X126906333Y-125411000D01*
X126722605Y-125374454D01*
X126549534Y-125302766D01*
X126472182Y-125251081D01*
X126393773Y-125198690D01*
X126261310Y-125066227D01*
X126157235Y-124910467D01*
X126157234Y-124910466D01*
X126085546Y-124737395D01*
X126049000Y-124553667D01*
X126049000Y-124366333D01*
X126085546Y-124182605D01*
X126157234Y-124009534D01*
X126229751Y-123901005D01*
X126261310Y-123853773D01*
X126393773Y-123721310D01*
X126477931Y-123665078D01*
X126549534Y-123617234D01*
X126722605Y-123545546D01*
X126906333Y-123509000D01*
X127093667Y-123509000D01*
X127277395Y-123545546D01*
X127277395Y-123545546D01*
G37*
G36*
X125411000Y-125411000D02*
G01*
X123509000Y-125411000D01*
X123509000Y-123509000D01*
X125411000Y-123509000D01*
X125411000Y-125411000D01*
X125411000Y-125411000D01*
G37*
G36*
X114831395Y-123037546D02*
G01*
X115004466Y-123109234D01*
X115010572Y-123113314D01*
X115160227Y-123213310D01*
X115292690Y-123345773D01*
X115335284Y-123409520D01*
X115396766Y-123501534D01*
X115468454Y-123674605D01*
X115505000Y-123858333D01*
X115505000Y-124045667D01*
X115468454Y-124229395D01*
X115396766Y-124402466D01*
X115396765Y-124402467D01*
X115292690Y-124558227D01*
X115160227Y-124690690D01*
X115137092Y-124706148D01*
X115004466Y-124794766D01*
X114831395Y-124866454D01*
X114647667Y-124903000D01*
X114460333Y-124903000D01*
X114276605Y-124866454D01*
X114103534Y-124794766D01*
X113970908Y-124706148D01*
X113947773Y-124690690D01*
X113815310Y-124558227D01*
X113711235Y-124402467D01*
X113711234Y-124402466D01*
X113639546Y-124229395D01*
X113603000Y-124045667D01*
X113603000Y-123858333D01*
X113639546Y-123674605D01*
X113711234Y-123501534D01*
X113772716Y-123409520D01*
X113815310Y-123345773D01*
X113947773Y-123213310D01*
X114097428Y-123113314D01*
X114103534Y-123109234D01*
X114276605Y-123037546D01*
X114460333Y-123001000D01*
X114647667Y-123001000D01*
X114831395Y-123037546D01*
X114831395Y-123037546D01*
G37*
G36*
X118045000Y-124903000D02*
G01*
X116143000Y-124903000D01*
X116143000Y-123001000D01*
X118045000Y-123001000D01*
X118045000Y-124903000D01*
X118045000Y-124903000D01*
G37*
G36*
X110910823Y-123113313D02*
G01*
X111071242Y-123161976D01*
X111138361Y-123197852D01*
X111219078Y-123240996D01*
X111348659Y-123347341D01*
X111455004Y-123476922D01*
X111455005Y-123476924D01*
X111534024Y-123624758D01*
X111582687Y-123785177D01*
X111599117Y-123952000D01*
X111582687Y-124118823D01*
X111534024Y-124279242D01*
X111493477Y-124355100D01*
X111455004Y-124427078D01*
X111348659Y-124556659D01*
X111219078Y-124663004D01*
X111219076Y-124663005D01*
X111071242Y-124742024D01*
X110910823Y-124790687D01*
X110785804Y-124803000D01*
X110702196Y-124803000D01*
X110577177Y-124790687D01*
X110416758Y-124742024D01*
X110268924Y-124663005D01*
X110268922Y-124663004D01*
X110139341Y-124556659D01*
X110032996Y-124427078D01*
X109994523Y-124355100D01*
X109953976Y-124279242D01*
X109905313Y-124118823D01*
X109888883Y-123952000D01*
X109905313Y-123785177D01*
X109953976Y-123624758D01*
X110032995Y-123476924D01*
X110032996Y-123476922D01*
X110139341Y-123347341D01*
X110268922Y-123240996D01*
X110349639Y-123197852D01*
X110416758Y-123161976D01*
X110577177Y-123113313D01*
X110702196Y-123101000D01*
X110785804Y-123101000D01*
X110910823Y-123113313D01*
X110910823Y-123113313D01*
G37*
G36*
X103372228Y-123133703D02*
G01*
X103527100Y-123197853D01*
X103666481Y-123290985D01*
X103785015Y-123409519D01*
X103878147Y-123548900D01*
X103942297Y-123703772D01*
X103975000Y-123868184D01*
X103975000Y-124035816D01*
X103942297Y-124200228D01*
X103878147Y-124355100D01*
X103785015Y-124494481D01*
X103666481Y-124613015D01*
X103527100Y-124706147D01*
X103372228Y-124770297D01*
X103207816Y-124803000D01*
X103040184Y-124803000D01*
X102875772Y-124770297D01*
X102720900Y-124706147D01*
X102581519Y-124613015D01*
X102462985Y-124494481D01*
X102369853Y-124355100D01*
X102305703Y-124200228D01*
X102273000Y-124035816D01*
X102273000Y-123868184D01*
X102305703Y-123703772D01*
X102369853Y-123548900D01*
X102462985Y-123409519D01*
X102581519Y-123290985D01*
X102720900Y-123197853D01*
X102875772Y-123133703D01*
X103040184Y-123101000D01*
X103207816Y-123101000D01*
X103372228Y-123133703D01*
X103372228Y-123133703D01*
G37*
G36*
X139948228Y-122371703D02*
G01*
X140103100Y-122435853D01*
X140242481Y-122528985D01*
X140361015Y-122647519D01*
X140454147Y-122786900D01*
X140518297Y-122941772D01*
X140551000Y-123106184D01*
X140551000Y-123273816D01*
X140518297Y-123438228D01*
X140454147Y-123593100D01*
X140361015Y-123732481D01*
X140242481Y-123851015D01*
X140103100Y-123944147D01*
X139948228Y-124008297D01*
X139783816Y-124041000D01*
X139616184Y-124041000D01*
X139451772Y-124008297D01*
X139296900Y-123944147D01*
X139157519Y-123851015D01*
X139038985Y-123732481D01*
X138945853Y-123593100D01*
X138881703Y-123438228D01*
X138849000Y-123273816D01*
X138849000Y-123106184D01*
X138881703Y-122941772D01*
X138945853Y-122786900D01*
X139038985Y-122647519D01*
X139157519Y-122528985D01*
X139296900Y-122435853D01*
X139451772Y-122371703D01*
X139616184Y-122339000D01*
X139783816Y-122339000D01*
X139948228Y-122371703D01*
X139948228Y-122371703D01*
G37*
G36*
X132246823Y-122351313D02*
G01*
X132407242Y-122399976D01*
X132474361Y-122435852D01*
X132555078Y-122478996D01*
X132684659Y-122585341D01*
X132791004Y-122714922D01*
X132791005Y-122714924D01*
X132870024Y-122862758D01*
X132918687Y-123023177D01*
X132935117Y-123190000D01*
X132918687Y-123356823D01*
X132870024Y-123517242D01*
X132812555Y-123624758D01*
X132791004Y-123665078D01*
X132684659Y-123794659D01*
X132555078Y-123901004D01*
X132555076Y-123901005D01*
X132407242Y-123980024D01*
X132246823Y-124028687D01*
X132121804Y-124041000D01*
X132038196Y-124041000D01*
X131913177Y-124028687D01*
X131752758Y-123980024D01*
X131604924Y-123901005D01*
X131604922Y-123901004D01*
X131475341Y-123794659D01*
X131368996Y-123665078D01*
X131347445Y-123624758D01*
X131289976Y-123517242D01*
X131241313Y-123356823D01*
X131224883Y-123190000D01*
X131241313Y-123023177D01*
X131289976Y-122862758D01*
X131368995Y-122714924D01*
X131368996Y-122714922D01*
X131475341Y-122585341D01*
X131604922Y-122478996D01*
X131685639Y-122435852D01*
X131752758Y-122399976D01*
X131913177Y-122351313D01*
X132038196Y-122339000D01*
X132121804Y-122339000D01*
X132246823Y-122351313D01*
X132246823Y-122351313D01*
G37*
G36*
X145881001Y-122996001D02*
G01*
X143079001Y-122996001D01*
X143079001Y-121394001D01*
X145881001Y-121394001D01*
X145881001Y-122996001D01*
X145881001Y-122996001D01*
G37*
G36*
X127277395Y-119735546D02*
G01*
X127450466Y-119807234D01*
X127522069Y-119855078D01*
X127606227Y-119911310D01*
X127738690Y-120043773D01*
X127770249Y-120091005D01*
X127842766Y-120199534D01*
X127914454Y-120372605D01*
X127951000Y-120556333D01*
X127951000Y-120743667D01*
X127914454Y-120927395D01*
X127842766Y-121100466D01*
X127842765Y-121100467D01*
X127738690Y-121256227D01*
X127606227Y-121388690D01*
X127598278Y-121394001D01*
X127450466Y-121492766D01*
X127277395Y-121564454D01*
X127093667Y-121601000D01*
X126906333Y-121601000D01*
X126722605Y-121564454D01*
X126549534Y-121492766D01*
X126401722Y-121394001D01*
X126393773Y-121388690D01*
X126261310Y-121256227D01*
X126157235Y-121100467D01*
X126157234Y-121100466D01*
X126085546Y-120927395D01*
X126049000Y-120743667D01*
X126049000Y-120556333D01*
X126085546Y-120372605D01*
X126157234Y-120199534D01*
X126229751Y-120091005D01*
X126261310Y-120043773D01*
X126393773Y-119911310D01*
X126477931Y-119855078D01*
X126549534Y-119807234D01*
X126722605Y-119735546D01*
X126906333Y-119699000D01*
X127093667Y-119699000D01*
X127277395Y-119735546D01*
X127277395Y-119735546D01*
G37*
G36*
X125411000Y-121601000D02*
G01*
X123509000Y-121601000D01*
X123509000Y-119699000D01*
X125411000Y-119699000D01*
X125411000Y-121601000D01*
X125411000Y-121601000D01*
G37*
G36*
X97621001Y-120456001D02*
G01*
X94819001Y-120456001D01*
X94819001Y-118854001D01*
X97621001Y-118854001D01*
X97621001Y-120456001D01*
X97621001Y-120456001D01*
G37*
G36*
X145881001Y-120456001D02*
G01*
X143079001Y-120456001D01*
X143079001Y-118854001D01*
X145881001Y-118854001D01*
X145881001Y-120456001D01*
X145881001Y-120456001D01*
G37*
G36*
X139948228Y-118561703D02*
G01*
X140103100Y-118625853D01*
X140242481Y-118718985D01*
X140361015Y-118837519D01*
X140454147Y-118976900D01*
X140518297Y-119131772D01*
X140551000Y-119296184D01*
X140551000Y-119463816D01*
X140518297Y-119628228D01*
X140454147Y-119783100D01*
X140361015Y-119922481D01*
X140242481Y-120041015D01*
X140103100Y-120134147D01*
X139948228Y-120198297D01*
X139783816Y-120231000D01*
X139616184Y-120231000D01*
X139451772Y-120198297D01*
X139296900Y-120134147D01*
X139157519Y-120041015D01*
X139038985Y-119922481D01*
X138945853Y-119783100D01*
X138881703Y-119628228D01*
X138849000Y-119463816D01*
X138849000Y-119296184D01*
X138881703Y-119131772D01*
X138945853Y-118976900D01*
X139038985Y-118837519D01*
X139157519Y-118718985D01*
X139296900Y-118625853D01*
X139451772Y-118561703D01*
X139616184Y-118529000D01*
X139783816Y-118529000D01*
X139948228Y-118561703D01*
X139948228Y-118561703D01*
G37*
G36*
X132246823Y-118541313D02*
G01*
X132407242Y-118589976D01*
X132474361Y-118625852D01*
X132555078Y-118668996D01*
X132684659Y-118775341D01*
X132791004Y-118904922D01*
X132791005Y-118904924D01*
X132870024Y-119052758D01*
X132918687Y-119213177D01*
X132935117Y-119380000D01*
X132918687Y-119546823D01*
X132870024Y-119707242D01*
X132799114Y-119839906D01*
X132791004Y-119855078D01*
X132684659Y-119984659D01*
X132555078Y-120091004D01*
X132555076Y-120091005D01*
X132407242Y-120170024D01*
X132246823Y-120218687D01*
X132121804Y-120231000D01*
X132038196Y-120231000D01*
X131913177Y-120218687D01*
X131752758Y-120170024D01*
X131604924Y-120091005D01*
X131604922Y-120091004D01*
X131475341Y-119984659D01*
X131368996Y-119855078D01*
X131360886Y-119839906D01*
X131289976Y-119707242D01*
X131241313Y-119546823D01*
X131224883Y-119380000D01*
X131241313Y-119213177D01*
X131289976Y-119052758D01*
X131368995Y-118904924D01*
X131368996Y-118904922D01*
X131475341Y-118775341D01*
X131604922Y-118668996D01*
X131685639Y-118625852D01*
X131752758Y-118589976D01*
X131913177Y-118541313D01*
X132038196Y-118529000D01*
X132121804Y-118529000D01*
X132246823Y-118541313D01*
X132246823Y-118541313D01*
G37*
G36*
X97621001Y-117916001D02*
G01*
X94819001Y-117916001D01*
X94819001Y-116314001D01*
X97621001Y-116314001D01*
X97621001Y-117916001D01*
X97621001Y-117916001D01*
G37*
G36*
X145881001Y-116392001D02*
G01*
X143079001Y-116392001D01*
X143079001Y-114790001D01*
X145881001Y-114790001D01*
X145881001Y-116392001D01*
X145881001Y-116392001D01*
G37*
G36*
X97621001Y-115376001D02*
G01*
X94819001Y-115376001D01*
X94819001Y-113774001D01*
X97621001Y-113774001D01*
X97621001Y-115376001D01*
X97621001Y-115376001D01*
G37*
G36*
X145881001Y-113852001D02*
G01*
X143079001Y-113852001D01*
X143079001Y-112250001D01*
X145881001Y-112250001D01*
X145881001Y-113852001D01*
X145881001Y-113852001D01*
G37*
G36*
X113532228Y-111703703D02*
G01*
X113687100Y-111767853D01*
X113826481Y-111860985D01*
X113945015Y-111979519D01*
X114038147Y-112118900D01*
X114102297Y-112273772D01*
X114135000Y-112438184D01*
X114135000Y-112605816D01*
X114102297Y-112770228D01*
X114038147Y-112925100D01*
X113945015Y-113064481D01*
X113826481Y-113183015D01*
X113687100Y-113276147D01*
X113532228Y-113340297D01*
X113367816Y-113373000D01*
X113200184Y-113373000D01*
X113035772Y-113340297D01*
X112880900Y-113276147D01*
X112741519Y-113183015D01*
X112622985Y-113064481D01*
X112529853Y-112925100D01*
X112465703Y-112770228D01*
X112433000Y-112605816D01*
X112433000Y-112438184D01*
X112465703Y-112273772D01*
X112529853Y-112118900D01*
X112622985Y-111979519D01*
X112741519Y-111860985D01*
X112880900Y-111767853D01*
X113035772Y-111703703D01*
X113200184Y-111671000D01*
X113367816Y-111671000D01*
X113532228Y-111703703D01*
X113532228Y-111703703D01*
G37*
G36*
X106674228Y-111417703D02*
G01*
X106829100Y-111481853D01*
X106968481Y-111574985D01*
X107087015Y-111693519D01*
X107180147Y-111832900D01*
X107244297Y-111987772D01*
X107277000Y-112152184D01*
X107277000Y-112319816D01*
X107244297Y-112484228D01*
X107180147Y-112639100D01*
X107087015Y-112778481D01*
X106968481Y-112897015D01*
X106829100Y-112990147D01*
X106674228Y-113054297D01*
X106509816Y-113087000D01*
X106342184Y-113087000D01*
X106177772Y-113054297D01*
X106022900Y-112990147D01*
X105883519Y-112897015D01*
X105764985Y-112778481D01*
X105671853Y-112639100D01*
X105607703Y-112484228D01*
X105575000Y-112319816D01*
X105575000Y-112152184D01*
X105607703Y-111987772D01*
X105671853Y-111832900D01*
X105764985Y-111693519D01*
X105883519Y-111574985D01*
X106022900Y-111481853D01*
X106177772Y-111417703D01*
X106342184Y-111385000D01*
X106509816Y-111385000D01*
X106674228Y-111417703D01*
X106674228Y-111417703D01*
G37*
G36*
X97621001Y-112836001D02*
G01*
X94819001Y-112836001D01*
X94819001Y-111234001D01*
X97621001Y-111234001D01*
X97621001Y-112836001D01*
X97621001Y-112836001D01*
G37*
G36*
X123300442Y-110865518D02*
G01*
X123366627Y-110872037D01*
X123536466Y-110923557D01*
X123692991Y-111007222D01*
X123728729Y-111036552D01*
X123830186Y-111119814D01*
X123913448Y-111221271D01*
X123942778Y-111257009D01*
X124026443Y-111413534D01*
X124077963Y-111583373D01*
X124095359Y-111760000D01*
X124077963Y-111936627D01*
X124062448Y-111987772D01*
X124026442Y-112106468D01*
X123984610Y-112184729D01*
X123942778Y-112262991D01*
X123933931Y-112273771D01*
X123830186Y-112400186D01*
X123728729Y-112483448D01*
X123692991Y-112512778D01*
X123536466Y-112596443D01*
X123366627Y-112647963D01*
X123300442Y-112654482D01*
X123234260Y-112661000D01*
X123145740Y-112661000D01*
X123079558Y-112654482D01*
X123013373Y-112647963D01*
X122843534Y-112596443D01*
X122687009Y-112512778D01*
X122651271Y-112483448D01*
X122549814Y-112400186D01*
X122446069Y-112273771D01*
X122437222Y-112262991D01*
X122395389Y-112184728D01*
X122353558Y-112106468D01*
X122317552Y-111987772D01*
X122302037Y-111936627D01*
X122284641Y-111760000D01*
X122302037Y-111583373D01*
X122353557Y-111413534D01*
X122437222Y-111257009D01*
X122466552Y-111221271D01*
X122549814Y-111119814D01*
X122651271Y-111036552D01*
X122687009Y-111007222D01*
X122843534Y-110923557D01*
X123013373Y-110872037D01*
X123079558Y-110865518D01*
X123145740Y-110859000D01*
X123234260Y-110859000D01*
X123300442Y-110865518D01*
X123300442Y-110865518D01*
G37*
G36*
X114135000Y-111373000D02*
G01*
X112433000Y-111373000D01*
X112433000Y-109671000D01*
X114135000Y-109671000D01*
X114135000Y-111373000D01*
X114135000Y-111373000D01*
G37*
G36*
X145881001Y-111312001D02*
G01*
X143079001Y-111312001D01*
X143079001Y-109710001D01*
X145881001Y-109710001D01*
X145881001Y-111312001D01*
X145881001Y-111312001D01*
G37*
G36*
X132952442Y-109341518D02*
G01*
X133018627Y-109348037D01*
X133188466Y-109399557D01*
X133344991Y-109483222D01*
X133380729Y-109512552D01*
X133482186Y-109595814D01*
X133565448Y-109697271D01*
X133594778Y-109733009D01*
X133678443Y-109889534D01*
X133729963Y-110059373D01*
X133747359Y-110236000D01*
X133729963Y-110412627D01*
X133678443Y-110582466D01*
X133594778Y-110738991D01*
X133565448Y-110774729D01*
X133482186Y-110876186D01*
X133380729Y-110959448D01*
X133344991Y-110988778D01*
X133188466Y-111072443D01*
X133018627Y-111123963D01*
X132952442Y-111130482D01*
X132886260Y-111137000D01*
X132797740Y-111137000D01*
X132731558Y-111130482D01*
X132665373Y-111123963D01*
X132495534Y-111072443D01*
X132339009Y-110988778D01*
X132303271Y-110959448D01*
X132201814Y-110876186D01*
X132118552Y-110774729D01*
X132089222Y-110738991D01*
X132005557Y-110582466D01*
X131954037Y-110412627D01*
X131936641Y-110236000D01*
X131954037Y-110059373D01*
X132005557Y-109889534D01*
X132089222Y-109733009D01*
X132118552Y-109697271D01*
X132201814Y-109595814D01*
X132303271Y-109512552D01*
X132339009Y-109483222D01*
X132495534Y-109399557D01*
X132665373Y-109348037D01*
X132731558Y-109341518D01*
X132797740Y-109335000D01*
X132886260Y-109335000D01*
X132952442Y-109341518D01*
X132952442Y-109341518D01*
G37*
G36*
X107277000Y-111087000D02*
G01*
X105575000Y-111087000D01*
X105575000Y-109385000D01*
X107277000Y-109385000D01*
X107277000Y-111087000D01*
X107277000Y-111087000D01*
G37*
G36*
X97621001Y-110296001D02*
G01*
X94819001Y-110296001D01*
X94819001Y-108694001D01*
X97621001Y-108694001D01*
X97621001Y-110296001D01*
X97621001Y-110296001D01*
G37*
G36*
X123300443Y-108325519D02*
G01*
X123366627Y-108332037D01*
X123536466Y-108383557D01*
X123692991Y-108467222D01*
X123728729Y-108496552D01*
X123830186Y-108579814D01*
X123913448Y-108681271D01*
X123942778Y-108717009D01*
X124026443Y-108873534D01*
X124077963Y-109043373D01*
X124095359Y-109220000D01*
X124077963Y-109396627D01*
X124026443Y-109566466D01*
X123942778Y-109722991D01*
X123913448Y-109758729D01*
X123830186Y-109860186D01*
X123728729Y-109943448D01*
X123692991Y-109972778D01*
X123536466Y-110056443D01*
X123366627Y-110107963D01*
X123300443Y-110114481D01*
X123234260Y-110121000D01*
X123145740Y-110121000D01*
X123079557Y-110114481D01*
X123013373Y-110107963D01*
X122843534Y-110056443D01*
X122687009Y-109972778D01*
X122651271Y-109943448D01*
X122549814Y-109860186D01*
X122466552Y-109758729D01*
X122437222Y-109722991D01*
X122353557Y-109566466D01*
X122302037Y-109396627D01*
X122284641Y-109220000D01*
X122302037Y-109043373D01*
X122353557Y-108873534D01*
X122437222Y-108717009D01*
X122466552Y-108681271D01*
X122549814Y-108579814D01*
X122651271Y-108496552D01*
X122687009Y-108467222D01*
X122843534Y-108383557D01*
X123013373Y-108332037D01*
X123079557Y-108325519D01*
X123145740Y-108319000D01*
X123234260Y-108319000D01*
X123300443Y-108325519D01*
X123300443Y-108325519D01*
G37*
G36*
X145881001Y-108772001D02*
G01*
X143079001Y-108772001D01*
X143079001Y-107170001D01*
X145881001Y-107170001D01*
X145881001Y-108772001D01*
X145881001Y-108772001D01*
G37*
G36*
X132952443Y-106801519D02*
G01*
X133018627Y-106808037D01*
X133188466Y-106859557D01*
X133344991Y-106943222D01*
X133380729Y-106972552D01*
X133482186Y-107055814D01*
X133565448Y-107157271D01*
X133594778Y-107193009D01*
X133678443Y-107349534D01*
X133729963Y-107519373D01*
X133747359Y-107696000D01*
X133729963Y-107872627D01*
X133678443Y-108042466D01*
X133594778Y-108198991D01*
X133565448Y-108234729D01*
X133482186Y-108336186D01*
X133380729Y-108419448D01*
X133344991Y-108448778D01*
X133188466Y-108532443D01*
X133018627Y-108583963D01*
X132952442Y-108590482D01*
X132886260Y-108597000D01*
X132797740Y-108597000D01*
X132731558Y-108590482D01*
X132665373Y-108583963D01*
X132495534Y-108532443D01*
X132339009Y-108448778D01*
X132303271Y-108419448D01*
X132201814Y-108336186D01*
X132118552Y-108234729D01*
X132089222Y-108198991D01*
X132005557Y-108042466D01*
X131954037Y-107872627D01*
X131936641Y-107696000D01*
X131954037Y-107519373D01*
X132005557Y-107349534D01*
X132089222Y-107193009D01*
X132118552Y-107157271D01*
X132201814Y-107055814D01*
X132303271Y-106972552D01*
X132339009Y-106943222D01*
X132495534Y-106859557D01*
X132665373Y-106808037D01*
X132731557Y-106801519D01*
X132797740Y-106795000D01*
X132886260Y-106795000D01*
X132952443Y-106801519D01*
X132952443Y-106801519D01*
G37*
G36*
X97621001Y-107756001D02*
G01*
X94819001Y-107756001D01*
X94819001Y-106154001D01*
X97621001Y-106154001D01*
X97621001Y-107756001D01*
X97621001Y-107756001D01*
G37*
G36*
X123300443Y-105785519D02*
G01*
X123366627Y-105792037D01*
X123536466Y-105843557D01*
X123692991Y-105927222D01*
X123728729Y-105956552D01*
X123830186Y-106039814D01*
X123913448Y-106141271D01*
X123942778Y-106177009D01*
X124026443Y-106333534D01*
X124077963Y-106503373D01*
X124095359Y-106680000D01*
X124077963Y-106856627D01*
X124026443Y-107026466D01*
X123942778Y-107182991D01*
X123913448Y-107218729D01*
X123830186Y-107320186D01*
X123728729Y-107403448D01*
X123692991Y-107432778D01*
X123536466Y-107516443D01*
X123366627Y-107567963D01*
X123300443Y-107574481D01*
X123234260Y-107581000D01*
X123145740Y-107581000D01*
X123079557Y-107574481D01*
X123013373Y-107567963D01*
X122843534Y-107516443D01*
X122687009Y-107432778D01*
X122651271Y-107403448D01*
X122549814Y-107320186D01*
X122466552Y-107218729D01*
X122437222Y-107182991D01*
X122353557Y-107026466D01*
X122302037Y-106856627D01*
X122284641Y-106680000D01*
X122302037Y-106503373D01*
X122353557Y-106333534D01*
X122437222Y-106177009D01*
X122466552Y-106141271D01*
X122549814Y-106039814D01*
X122651271Y-105956552D01*
X122687009Y-105927222D01*
X122843534Y-105843557D01*
X123013373Y-105792037D01*
X123079557Y-105785519D01*
X123145740Y-105779000D01*
X123234260Y-105779000D01*
X123300443Y-105785519D01*
X123300443Y-105785519D01*
G37*
G36*
X145881001Y-106232001D02*
G01*
X143079001Y-106232001D01*
X143079001Y-104630001D01*
X145881001Y-104630001D01*
X145881001Y-106232001D01*
X145881001Y-106232001D01*
G37*
G36*
X132947330Y-104261015D02*
G01*
X133018627Y-104268037D01*
X133188466Y-104319557D01*
X133344991Y-104403222D01*
X133380729Y-104432552D01*
X133482186Y-104515814D01*
X133565448Y-104617271D01*
X133594778Y-104653009D01*
X133678443Y-104809534D01*
X133729963Y-104979373D01*
X133747359Y-105156000D01*
X133729963Y-105332627D01*
X133678443Y-105502466D01*
X133594778Y-105658991D01*
X133565448Y-105694729D01*
X133482186Y-105796186D01*
X133380729Y-105879448D01*
X133344991Y-105908778D01*
X133188466Y-105992443D01*
X133018627Y-106043963D01*
X132952442Y-106050482D01*
X132886260Y-106057000D01*
X132797740Y-106057000D01*
X132731558Y-106050482D01*
X132665373Y-106043963D01*
X132495534Y-105992443D01*
X132339009Y-105908778D01*
X132303271Y-105879448D01*
X132201814Y-105796186D01*
X132118552Y-105694729D01*
X132089222Y-105658991D01*
X132005557Y-105502466D01*
X131954037Y-105332627D01*
X131936641Y-105156000D01*
X131954037Y-104979373D01*
X132005557Y-104809534D01*
X132089222Y-104653009D01*
X132118552Y-104617271D01*
X132201814Y-104515814D01*
X132303271Y-104432552D01*
X132339009Y-104403222D01*
X132495534Y-104319557D01*
X132665373Y-104268037D01*
X132736670Y-104261015D01*
X132797740Y-104255000D01*
X132886260Y-104255000D01*
X132947330Y-104261015D01*
X132947330Y-104261015D01*
G37*
G36*
X97621001Y-105216001D02*
G01*
X94819001Y-105216001D01*
X94819001Y-103614001D01*
X97621001Y-103614001D01*
X97621001Y-105216001D01*
X97621001Y-105216001D01*
G37*
G36*
X123300443Y-103245519D02*
G01*
X123366627Y-103252037D01*
X123536466Y-103303557D01*
X123692991Y-103387222D01*
X123728729Y-103416552D01*
X123830186Y-103499814D01*
X123913448Y-103601271D01*
X123942778Y-103637009D01*
X124026443Y-103793534D01*
X124077963Y-103963373D01*
X124095359Y-104140000D01*
X124077963Y-104316627D01*
X124026443Y-104486466D01*
X123942778Y-104642991D01*
X123913448Y-104678729D01*
X123830186Y-104780186D01*
X123728729Y-104863448D01*
X123692991Y-104892778D01*
X123536466Y-104976443D01*
X123366627Y-105027963D01*
X123300442Y-105034482D01*
X123234260Y-105041000D01*
X123145740Y-105041000D01*
X123079557Y-105034481D01*
X123013373Y-105027963D01*
X122843534Y-104976443D01*
X122687009Y-104892778D01*
X122651271Y-104863448D01*
X122549814Y-104780186D01*
X122466552Y-104678729D01*
X122437222Y-104642991D01*
X122353557Y-104486466D01*
X122302037Y-104316627D01*
X122284641Y-104140000D01*
X122302037Y-103963373D01*
X122353557Y-103793534D01*
X122437222Y-103637009D01*
X122466552Y-103601271D01*
X122549814Y-103499814D01*
X122651271Y-103416552D01*
X122687009Y-103387222D01*
X122843534Y-103303557D01*
X123013373Y-103252037D01*
X123079558Y-103245518D01*
X123145740Y-103239000D01*
X123234260Y-103239000D01*
X123300443Y-103245519D01*
X123300443Y-103245519D01*
G37*
G36*
X106420228Y-102781703D02*
G01*
X106575100Y-102845853D01*
X106714481Y-102938985D01*
X106833015Y-103057519D01*
X106926147Y-103196900D01*
X106990297Y-103351772D01*
X107023000Y-103516184D01*
X107023000Y-103683816D01*
X106990297Y-103848228D01*
X106926147Y-104003100D01*
X106833015Y-104142481D01*
X106714481Y-104261015D01*
X106575100Y-104354147D01*
X106420228Y-104418297D01*
X106255816Y-104451000D01*
X106088184Y-104451000D01*
X105923772Y-104418297D01*
X105768900Y-104354147D01*
X105629519Y-104261015D01*
X105510985Y-104142481D01*
X105417853Y-104003100D01*
X105353703Y-103848228D01*
X105321000Y-103683816D01*
X105321000Y-103516184D01*
X105353703Y-103351772D01*
X105417853Y-103196900D01*
X105510985Y-103057519D01*
X105629519Y-102938985D01*
X105768900Y-102845853D01*
X105923772Y-102781703D01*
X106088184Y-102749000D01*
X106255816Y-102749000D01*
X106420228Y-102781703D01*
X106420228Y-102781703D01*
G37*
G36*
X113786228Y-102781703D02*
G01*
X113941100Y-102845853D01*
X114080481Y-102938985D01*
X114199015Y-103057519D01*
X114292147Y-103196900D01*
X114356297Y-103351772D01*
X114389000Y-103516184D01*
X114389000Y-103683816D01*
X114356297Y-103848228D01*
X114292147Y-104003100D01*
X114199015Y-104142481D01*
X114080481Y-104261015D01*
X113941100Y-104354147D01*
X113786228Y-104418297D01*
X113621816Y-104451000D01*
X113454184Y-104451000D01*
X113289772Y-104418297D01*
X113134900Y-104354147D01*
X112995519Y-104261015D01*
X112876985Y-104142481D01*
X112783853Y-104003100D01*
X112719703Y-103848228D01*
X112687000Y-103683816D01*
X112687000Y-103516184D01*
X112719703Y-103351772D01*
X112783853Y-103196900D01*
X112876985Y-103057519D01*
X112995519Y-102938985D01*
X113134900Y-102845853D01*
X113289772Y-102781703D01*
X113454184Y-102749000D01*
X113621816Y-102749000D01*
X113786228Y-102781703D01*
X113786228Y-102781703D01*
G37*
G36*
X145881001Y-103692001D02*
G01*
X143079001Y-103692001D01*
X143079001Y-102090001D01*
X145881001Y-102090001D01*
X145881001Y-103692001D01*
X145881001Y-103692001D01*
G37*
G36*
X132952443Y-101721519D02*
G01*
X133018627Y-101728037D01*
X133188466Y-101779557D01*
X133344991Y-101863222D01*
X133380729Y-101892552D01*
X133482186Y-101975814D01*
X133565448Y-102077271D01*
X133594778Y-102113009D01*
X133678443Y-102269534D01*
X133729963Y-102439373D01*
X133747359Y-102616000D01*
X133729963Y-102792627D01*
X133678443Y-102962466D01*
X133594778Y-103118991D01*
X133565448Y-103154729D01*
X133482186Y-103256186D01*
X133380729Y-103339448D01*
X133344991Y-103368778D01*
X133188466Y-103452443D01*
X133018627Y-103503963D01*
X132952443Y-103510481D01*
X132886260Y-103517000D01*
X132797740Y-103517000D01*
X132731558Y-103510482D01*
X132665373Y-103503963D01*
X132495534Y-103452443D01*
X132339009Y-103368778D01*
X132303271Y-103339448D01*
X132201814Y-103256186D01*
X132118552Y-103154729D01*
X132089222Y-103118991D01*
X132005557Y-102962466D01*
X131954037Y-102792627D01*
X131936641Y-102616000D01*
X131954037Y-102439373D01*
X132005557Y-102269534D01*
X132089222Y-102113009D01*
X132118552Y-102077271D01*
X132201814Y-101975814D01*
X132303271Y-101892552D01*
X132339009Y-101863222D01*
X132495534Y-101779557D01*
X132665373Y-101728037D01*
X132731558Y-101721518D01*
X132797740Y-101715000D01*
X132886260Y-101715000D01*
X132952443Y-101721519D01*
X132952443Y-101721519D01*
G37*
G36*
X97621001Y-102676001D02*
G01*
X94819001Y-102676001D01*
X94819001Y-101074001D01*
X97621001Y-101074001D01*
X97621001Y-102676001D01*
X97621001Y-102676001D01*
G37*
G36*
X123300443Y-100705519D02*
G01*
X123366627Y-100712037D01*
X123536466Y-100763557D01*
X123692991Y-100847222D01*
X123728729Y-100876552D01*
X123830186Y-100959814D01*
X123913448Y-101061271D01*
X123942778Y-101097009D01*
X124026443Y-101253534D01*
X124077963Y-101423373D01*
X124095359Y-101600000D01*
X124077963Y-101776627D01*
X124026443Y-101946466D01*
X123942778Y-102102991D01*
X123913448Y-102138729D01*
X123830186Y-102240186D01*
X123728729Y-102323448D01*
X123692991Y-102352778D01*
X123536466Y-102436443D01*
X123366627Y-102487963D01*
X123300442Y-102494482D01*
X123234260Y-102501000D01*
X123145740Y-102501000D01*
X123079558Y-102494482D01*
X123013373Y-102487963D01*
X122843534Y-102436443D01*
X122687009Y-102352778D01*
X122651271Y-102323448D01*
X122549814Y-102240186D01*
X122466552Y-102138729D01*
X122437222Y-102102991D01*
X122353557Y-101946466D01*
X122302037Y-101776627D01*
X122284641Y-101600000D01*
X122302037Y-101423373D01*
X122353557Y-101253534D01*
X122437222Y-101097009D01*
X122466552Y-101061271D01*
X122549814Y-100959814D01*
X122651271Y-100876552D01*
X122687009Y-100847222D01*
X122843534Y-100763557D01*
X123013373Y-100712037D01*
X123079557Y-100705519D01*
X123145740Y-100699000D01*
X123234260Y-100699000D01*
X123300443Y-100705519D01*
X123300443Y-100705519D01*
G37*
G36*
X107023000Y-102451000D02*
G01*
X105321000Y-102451000D01*
X105321000Y-100749000D01*
X107023000Y-100749000D01*
X107023000Y-102451000D01*
X107023000Y-102451000D01*
G37*
G36*
X114389000Y-102451000D02*
G01*
X112687000Y-102451000D01*
X112687000Y-100749000D01*
X114389000Y-100749000D01*
X114389000Y-102451000D01*
X114389000Y-102451000D01*
G37*
G36*
X145881001Y-101152001D02*
G01*
X143079001Y-101152001D01*
X143079001Y-99550001D01*
X145881001Y-99550001D01*
X145881001Y-101152001D01*
X145881001Y-101152001D01*
G37*
G36*
X132952442Y-99181518D02*
G01*
X133018627Y-99188037D01*
X133188466Y-99239557D01*
X133344991Y-99323222D01*
X133380729Y-99352552D01*
X133482186Y-99435814D01*
X133565448Y-99537271D01*
X133594778Y-99573009D01*
X133678443Y-99729534D01*
X133729963Y-99899373D01*
X133747359Y-100076000D01*
X133729963Y-100252627D01*
X133678443Y-100422466D01*
X133594778Y-100578991D01*
X133565448Y-100614729D01*
X133482186Y-100716186D01*
X133380729Y-100799448D01*
X133344991Y-100828778D01*
X133188466Y-100912443D01*
X133018627Y-100963963D01*
X132952442Y-100970482D01*
X132886260Y-100977000D01*
X132797740Y-100977000D01*
X132731558Y-100970482D01*
X132665373Y-100963963D01*
X132495534Y-100912443D01*
X132339009Y-100828778D01*
X132303271Y-100799448D01*
X132201814Y-100716186D01*
X132118552Y-100614729D01*
X132089222Y-100578991D01*
X132005557Y-100422466D01*
X131954037Y-100252627D01*
X131936641Y-100076000D01*
X131954037Y-99899373D01*
X132005557Y-99729534D01*
X132089222Y-99573009D01*
X132118552Y-99537271D01*
X132201814Y-99435814D01*
X132303271Y-99352552D01*
X132339009Y-99323222D01*
X132495534Y-99239557D01*
X132665373Y-99188037D01*
X132731558Y-99181518D01*
X132797740Y-99175000D01*
X132886260Y-99175000D01*
X132952442Y-99181518D01*
X132952442Y-99181518D01*
G37*
G36*
X123300443Y-98165519D02*
G01*
X123366627Y-98172037D01*
X123536466Y-98223557D01*
X123692991Y-98307222D01*
X123728729Y-98336552D01*
X123830186Y-98419814D01*
X123913448Y-98521271D01*
X123942778Y-98557009D01*
X124026443Y-98713534D01*
X124077963Y-98883373D01*
X124095359Y-99060000D01*
X124077963Y-99236627D01*
X124026443Y-99406466D01*
X123942778Y-99562991D01*
X123913448Y-99598729D01*
X123830186Y-99700186D01*
X123728729Y-99783448D01*
X123692991Y-99812778D01*
X123536466Y-99896443D01*
X123366627Y-99947963D01*
X123300443Y-99954481D01*
X123234260Y-99961000D01*
X123145740Y-99961000D01*
X123079557Y-99954481D01*
X123013373Y-99947963D01*
X122843534Y-99896443D01*
X122687009Y-99812778D01*
X122651271Y-99783448D01*
X122549814Y-99700186D01*
X122466552Y-99598729D01*
X122437222Y-99562991D01*
X122353557Y-99406466D01*
X122302037Y-99236627D01*
X122284641Y-99060000D01*
X122302037Y-98883373D01*
X122353557Y-98713534D01*
X122437222Y-98557009D01*
X122466552Y-98521271D01*
X122549814Y-98419814D01*
X122651271Y-98336552D01*
X122687009Y-98307222D01*
X122843534Y-98223557D01*
X123013373Y-98172037D01*
X123079557Y-98165519D01*
X123145740Y-98159000D01*
X123234260Y-98159000D01*
X123300443Y-98165519D01*
X123300443Y-98165519D01*
G37*
G36*
X145881001Y-98612001D02*
G01*
X143079001Y-98612001D01*
X143079001Y-97010001D01*
X145881001Y-97010001D01*
X145881001Y-98612001D01*
X145881001Y-98612001D01*
G37*
G36*
X133743000Y-98437000D02*
G01*
X131941000Y-98437000D01*
X131941000Y-96635000D01*
X133743000Y-96635000D01*
X133743000Y-98437000D01*
X133743000Y-98437000D01*
G37*
G36*
X123300442Y-95625518D02*
G01*
X123366627Y-95632037D01*
X123536466Y-95683557D01*
X123692991Y-95767222D01*
X123728729Y-95796552D01*
X123830186Y-95879814D01*
X123905961Y-95972148D01*
X123942778Y-96017009D01*
X124026443Y-96173534D01*
X124077963Y-96343373D01*
X124095359Y-96520000D01*
X124077963Y-96696627D01*
X124026443Y-96866466D01*
X123942778Y-97022991D01*
X123913448Y-97058729D01*
X123830186Y-97160186D01*
X123728729Y-97243448D01*
X123692991Y-97272778D01*
X123536466Y-97356443D01*
X123366627Y-97407963D01*
X123300442Y-97414482D01*
X123234260Y-97421000D01*
X123145740Y-97421000D01*
X123079558Y-97414482D01*
X123013373Y-97407963D01*
X122843534Y-97356443D01*
X122687009Y-97272778D01*
X122651271Y-97243448D01*
X122549814Y-97160186D01*
X122466552Y-97058729D01*
X122437222Y-97022991D01*
X122353557Y-96866466D01*
X122302037Y-96696627D01*
X122284641Y-96520000D01*
X122302037Y-96343373D01*
X122353557Y-96173534D01*
X122437222Y-96017009D01*
X122474039Y-95972148D01*
X122549814Y-95879814D01*
X122651271Y-95796552D01*
X122687009Y-95767222D01*
X122843534Y-95683557D01*
X123013373Y-95632037D01*
X123079558Y-95625518D01*
X123145740Y-95619000D01*
X123234260Y-95619000D01*
X123300442Y-95625518D01*
X123300442Y-95625518D01*
G37*
G36*
X106674228Y-95161703D02*
G01*
X106829100Y-95225853D01*
X106968481Y-95318985D01*
X107087015Y-95437519D01*
X107180147Y-95576900D01*
X107244297Y-95731772D01*
X107277000Y-95896184D01*
X107277000Y-96063816D01*
X107244297Y-96228228D01*
X107180147Y-96383100D01*
X107087015Y-96522481D01*
X106968481Y-96641015D01*
X106829100Y-96734147D01*
X106674228Y-96798297D01*
X106509816Y-96831000D01*
X106342184Y-96831000D01*
X106177772Y-96798297D01*
X106022900Y-96734147D01*
X105883519Y-96641015D01*
X105764985Y-96522481D01*
X105671853Y-96383100D01*
X105607703Y-96228228D01*
X105575000Y-96063816D01*
X105575000Y-95896184D01*
X105607703Y-95731772D01*
X105671853Y-95576900D01*
X105764985Y-95437519D01*
X105883519Y-95318985D01*
X106022900Y-95225853D01*
X106177772Y-95161703D01*
X106342184Y-95129000D01*
X106509816Y-95129000D01*
X106674228Y-95161703D01*
X106674228Y-95161703D01*
G37*
G36*
X145881001Y-96072001D02*
G01*
X143079001Y-96072001D01*
X143079001Y-94470001D01*
X145881001Y-94470001D01*
X145881001Y-96072001D01*
X145881001Y-96072001D01*
G37*
G36*
X114294228Y-94399703D02*
G01*
X114449100Y-94463853D01*
X114588481Y-94556985D01*
X114707015Y-94675519D01*
X114800147Y-94814900D01*
X114864297Y-94969772D01*
X114897000Y-95134184D01*
X114897000Y-95301816D01*
X114864297Y-95466228D01*
X114800147Y-95621100D01*
X114707015Y-95760481D01*
X114588481Y-95879015D01*
X114449100Y-95972147D01*
X114294228Y-96036297D01*
X114129816Y-96069000D01*
X113962184Y-96069000D01*
X113797772Y-96036297D01*
X113642900Y-95972147D01*
X113503519Y-95879015D01*
X113384985Y-95760481D01*
X113291853Y-95621100D01*
X113227703Y-95466228D01*
X113195000Y-95301816D01*
X113195000Y-95134184D01*
X113227703Y-94969772D01*
X113291853Y-94814900D01*
X113384985Y-94675519D01*
X113503519Y-94556985D01*
X113642900Y-94463853D01*
X113797772Y-94399703D01*
X113962184Y-94367000D01*
X114129816Y-94367000D01*
X114294228Y-94399703D01*
X114294228Y-94399703D01*
G37*
G36*
X124091000Y-94881000D02*
G01*
X122289000Y-94881000D01*
X122289000Y-93079000D01*
X124091000Y-93079000D01*
X124091000Y-94881000D01*
X124091000Y-94881000D01*
G37*
G36*
X107277000Y-94831000D02*
G01*
X105575000Y-94831000D01*
X105575000Y-93129000D01*
X107277000Y-93129000D01*
X107277000Y-94831000D01*
X107277000Y-94831000D01*
G37*
G36*
X114897000Y-94069000D02*
G01*
X113195000Y-94069000D01*
X113195000Y-92367000D01*
X114897000Y-92367000D01*
X114897000Y-94069000D01*
X114897000Y-94069000D01*
G37*
G36*
X145881001Y-93532001D02*
G01*
X143079001Y-93532001D01*
X143079001Y-91930001D01*
X145881001Y-91930001D01*
X145881001Y-93532001D01*
X145881001Y-93532001D01*
G37*
G36*
X144855257Y-87566299D02*
G01*
X144961580Y-87587448D01*
X145262043Y-87711904D01*
X145532452Y-87892586D01*
X145762416Y-88122550D01*
X145943098Y-88392959D01*
X146064912Y-88687043D01*
X146067554Y-88693423D01*
X146131001Y-89012390D01*
X146131001Y-89337612D01*
X146100181Y-89492554D01*
X146067554Y-89656580D01*
X145943098Y-89957043D01*
X145762416Y-90227452D01*
X145532452Y-90457416D01*
X145262043Y-90638098D01*
X144961580Y-90762554D01*
X144855257Y-90783703D01*
X144642612Y-90826001D01*
X144317390Y-90826001D01*
X144104745Y-90783703D01*
X143998422Y-90762554D01*
X143697959Y-90638098D01*
X143427550Y-90457416D01*
X143197586Y-90227452D01*
X143016904Y-89957043D01*
X142892448Y-89656580D01*
X142859821Y-89492554D01*
X142829001Y-89337612D01*
X142829001Y-89012390D01*
X142892448Y-88693423D01*
X142895091Y-88687043D01*
X143016904Y-88392959D01*
X143197586Y-88122550D01*
X143427550Y-87892586D01*
X143697959Y-87711904D01*
X143998422Y-87587448D01*
X144104745Y-87566299D01*
X144317390Y-87524001D01*
X144642612Y-87524001D01*
X144855257Y-87566299D01*
X144855257Y-87566299D01*
G37*
G36*
X96595257Y-86296299D02*
G01*
X96701580Y-86317448D01*
X97002043Y-86441904D01*
X97272452Y-86622586D01*
X97502416Y-86852550D01*
X97502417Y-86852552D01*
X97683099Y-87122961D01*
X97807554Y-87423423D01*
X97871001Y-87742390D01*
X97871001Y-88067612D01*
X97828703Y-88280257D01*
X97807554Y-88386580D01*
X97683098Y-88687043D01*
X97502416Y-88957452D01*
X97272452Y-89187416D01*
X97002043Y-89368098D01*
X96701580Y-89492554D01*
X96595257Y-89513703D01*
X96382612Y-89556001D01*
X96057390Y-89556001D01*
X95844745Y-89513703D01*
X95738422Y-89492554D01*
X95437959Y-89368098D01*
X95167550Y-89187416D01*
X94937586Y-88957452D01*
X94756904Y-88687043D01*
X94632448Y-88386580D01*
X94611299Y-88280257D01*
X94569001Y-88067612D01*
X94569001Y-87742390D01*
X94632448Y-87423423D01*
X94756903Y-87122961D01*
X94937585Y-86852552D01*
X94937586Y-86852550D01*
X95167550Y-86622586D01*
X95437959Y-86441904D01*
X95738422Y-86317448D01*
X95844745Y-86296299D01*
X96057390Y-86254001D01*
X96382612Y-86254001D01*
X96595257Y-86296299D01*
X96595257Y-86296299D01*
G37*
G36*
X126942719Y-81513520D02*
G01*
X127131880Y-81570901D01*
X127131883Y-81570902D01*
X127224333Y-81620318D01*
X127306212Y-81664083D01*
X127459015Y-81789485D01*
X127584417Y-81942288D01*
X127677599Y-82116619D01*
X127734980Y-82305780D01*
X127749500Y-82453206D01*
X127749500Y-82646793D01*
X127734980Y-82794219D01*
X127701766Y-82903711D01*
X127677598Y-82983383D01*
X127655141Y-83025396D01*
X127584417Y-83157712D01*
X127459015Y-83310515D01*
X127306212Y-83435917D01*
X127131881Y-83529099D01*
X126942720Y-83586480D01*
X126746000Y-83605855D01*
X126549281Y-83586480D01*
X126360120Y-83529099D01*
X126185788Y-83435917D01*
X126032985Y-83310515D01*
X125907583Y-83157712D01*
X125814401Y-82983381D01*
X125757020Y-82794220D01*
X125742500Y-82646794D01*
X125742500Y-82453207D01*
X125757020Y-82305781D01*
X125814401Y-82116620D01*
X125814402Y-82116617D01*
X125863818Y-82024167D01*
X125907583Y-81942288D01*
X126032985Y-81789485D01*
X126185788Y-81664083D01*
X126360119Y-81570901D01*
X126549280Y-81513520D01*
X126746000Y-81494145D01*
X126942719Y-81513520D01*
X126942719Y-81513520D01*
G37*
G36*
X124402719Y-81513520D02*
G01*
X124591880Y-81570901D01*
X124591883Y-81570902D01*
X124684333Y-81620318D01*
X124766212Y-81664083D01*
X124919015Y-81789485D01*
X125044417Y-81942288D01*
X125137599Y-82116619D01*
X125194980Y-82305780D01*
X125209500Y-82453206D01*
X125209500Y-82646793D01*
X125194980Y-82794219D01*
X125161766Y-82903711D01*
X125137598Y-82983383D01*
X125115141Y-83025396D01*
X125044417Y-83157712D01*
X124919015Y-83310515D01*
X124766212Y-83435917D01*
X124591881Y-83529099D01*
X124402720Y-83586480D01*
X124206000Y-83605855D01*
X124009281Y-83586480D01*
X123820120Y-83529099D01*
X123645788Y-83435917D01*
X123492985Y-83310515D01*
X123367583Y-83157712D01*
X123274401Y-82983381D01*
X123217020Y-82794220D01*
X123202500Y-82646794D01*
X123202500Y-82453207D01*
X123217020Y-82305781D01*
X123274401Y-82116620D01*
X123274402Y-82116617D01*
X123323818Y-82024167D01*
X123367583Y-81942288D01*
X123492985Y-81789485D01*
X123645788Y-81664083D01*
X123820119Y-81570901D01*
X124009280Y-81513520D01*
X124206000Y-81494145D01*
X124402719Y-81513520D01*
X124402719Y-81513520D01*
G37*
G36*
X122669500Y-83601000D02*
G01*
X120662500Y-83601000D01*
X120662500Y-81499000D01*
X122669500Y-81499000D01*
X122669500Y-83601000D01*
X122669500Y-83601000D01*
G37*
G36*
X139134719Y-81259520D02*
G01*
X139323880Y-81316901D01*
X139323883Y-81316902D01*
X139416333Y-81366318D01*
X139498212Y-81410083D01*
X139651015Y-81535485D01*
X139776417Y-81688288D01*
X139869599Y-81862619D01*
X139926980Y-82051780D01*
X139941500Y-82199206D01*
X139941500Y-82392793D01*
X139926980Y-82540219D01*
X139869599Y-82729380D01*
X139869598Y-82729383D01*
X139820182Y-82821833D01*
X139776417Y-82903712D01*
X139651015Y-83056515D01*
X139498212Y-83181917D01*
X139323881Y-83275099D01*
X139134720Y-83332480D01*
X138938000Y-83351855D01*
X138741281Y-83332480D01*
X138552120Y-83275099D01*
X138377788Y-83181917D01*
X138224985Y-83056515D01*
X138099583Y-82903712D01*
X138006401Y-82729381D01*
X137949020Y-82540220D01*
X137934500Y-82392794D01*
X137934500Y-82199207D01*
X137949020Y-82051781D01*
X138006401Y-81862620D01*
X138006402Y-81862617D01*
X138055818Y-81770167D01*
X138099583Y-81688288D01*
X138224985Y-81535485D01*
X138377788Y-81410083D01*
X138552119Y-81316901D01*
X138741280Y-81259520D01*
X138938000Y-81240145D01*
X139134719Y-81259520D01*
X139134719Y-81259520D01*
G37*
G36*
X141674719Y-81259520D02*
G01*
X141863880Y-81316901D01*
X141863883Y-81316902D01*
X141956333Y-81366318D01*
X142038212Y-81410083D01*
X142191015Y-81535485D01*
X142316417Y-81688288D01*
X142409599Y-81862619D01*
X142466980Y-82051780D01*
X142481500Y-82199206D01*
X142481500Y-82392793D01*
X142466980Y-82540219D01*
X142409599Y-82729380D01*
X142409598Y-82729383D01*
X142360182Y-82821833D01*
X142316417Y-82903712D01*
X142191015Y-83056515D01*
X142038212Y-83181917D01*
X141863881Y-83275099D01*
X141674720Y-83332480D01*
X141478000Y-83351855D01*
X141281281Y-83332480D01*
X141092120Y-83275099D01*
X140917788Y-83181917D01*
X140764985Y-83056515D01*
X140639583Y-82903712D01*
X140546401Y-82729381D01*
X140489020Y-82540220D01*
X140474500Y-82392794D01*
X140474500Y-82199207D01*
X140489020Y-82051781D01*
X140546401Y-81862620D01*
X140546402Y-81862617D01*
X140595818Y-81770167D01*
X140639583Y-81688288D01*
X140764985Y-81535485D01*
X140917788Y-81410083D01*
X141092119Y-81316901D01*
X141281280Y-81259520D01*
X141478000Y-81240145D01*
X141674719Y-81259520D01*
X141674719Y-81259520D01*
G37*
G36*
X137401500Y-83347000D02*
G01*
X135394500Y-83347000D01*
X135394500Y-81245000D01*
X137401500Y-81245000D01*
X137401500Y-83347000D01*
X137401500Y-83347000D01*
G37*
G36*
X111808585Y-80012802D02*
G01*
X111958410Y-80042604D01*
X112240674Y-80159521D01*
X112494705Y-80329259D01*
X112710741Y-80545295D01*
X112880479Y-80799326D01*
X112997396Y-81081590D01*
X112997396Y-81081591D01*
X113044203Y-81316902D01*
X113057000Y-81381240D01*
X113057000Y-81686760D01*
X112997396Y-81986410D01*
X112880479Y-82268674D01*
X112710741Y-82522705D01*
X112494705Y-82738741D01*
X112240674Y-82908479D01*
X111958410Y-83025396D01*
X111808585Y-83055198D01*
X111658761Y-83085000D01*
X111353239Y-83085000D01*
X111203415Y-83055198D01*
X111053590Y-83025396D01*
X110771326Y-82908479D01*
X110517295Y-82738741D01*
X110301259Y-82522705D01*
X110131521Y-82268674D01*
X110014604Y-81986410D01*
X109955000Y-81686760D01*
X109955000Y-81381240D01*
X109967798Y-81316902D01*
X110014604Y-81081591D01*
X110014604Y-81081590D01*
X110131521Y-80799326D01*
X110301259Y-80545295D01*
X110517295Y-80329259D01*
X110771326Y-80159521D01*
X111053590Y-80042604D01*
X111203415Y-80012802D01*
X111353239Y-79983000D01*
X111658761Y-79983000D01*
X111808585Y-80012802D01*
X111808585Y-80012802D01*
G37*
G36*
X107977000Y-83085000D02*
G01*
X104875000Y-83085000D01*
X104875000Y-79983000D01*
X107977000Y-79983000D01*
X107977000Y-83085000D01*
X107977000Y-83085000D01*
G37*
G36*
X84669170Y-63809879D02*
G01*
X84963868Y-63868498D01*
X85519067Y-64098469D01*
X85804867Y-64289435D01*
X86018733Y-64432335D01*
X86443665Y-64857267D01*
X86586565Y-65071133D01*
X86777531Y-65356933D01*
X87007502Y-65912132D01*
X87124740Y-66501528D01*
X87124740Y-67102472D01*
X87007502Y-67691868D01*
X86777531Y-68247067D01*
X86615521Y-68489531D01*
X86443665Y-68746733D01*
X86018733Y-69171665D01*
X85804867Y-69314565D01*
X85519067Y-69505531D01*
X84963868Y-69735502D01*
X84669170Y-69794121D01*
X84374473Y-69852740D01*
X83773527Y-69852740D01*
X83478830Y-69794121D01*
X83184132Y-69735502D01*
X82628933Y-69505531D01*
X82343133Y-69314565D01*
X82129267Y-69171665D01*
X81704335Y-68746733D01*
X81532479Y-68489531D01*
X81370469Y-68247067D01*
X81140498Y-67691868D01*
X81023260Y-67102472D01*
X81023260Y-66501528D01*
X81140498Y-65912132D01*
X81370469Y-65356933D01*
X81561435Y-65071133D01*
X81704335Y-64857267D01*
X82129267Y-64432335D01*
X82343133Y-64289435D01*
X82628933Y-64098469D01*
X83184132Y-63868498D01*
X83478830Y-63809879D01*
X83773527Y-63751260D01*
X84374473Y-63751260D01*
X84669170Y-63809879D01*
X84669170Y-63809879D01*
G37*
G36*
X158583170Y-62793879D02*
G01*
X158877868Y-62852498D01*
X159433067Y-63082469D01*
X159718867Y-63273435D01*
X159932733Y-63416335D01*
X160357665Y-63841267D01*
X160500565Y-64055133D01*
X160691531Y-64340933D01*
X160921502Y-64896132D01*
X161038740Y-65485528D01*
X161038740Y-66086472D01*
X160921502Y-66675868D01*
X160691531Y-67231067D01*
X160500565Y-67516867D01*
X160357665Y-67730733D01*
X159932733Y-68155665D01*
X159718867Y-68298565D01*
X159433067Y-68489531D01*
X158877868Y-68719502D01*
X158740968Y-68746733D01*
X158288473Y-68836740D01*
X157687527Y-68836740D01*
X157235032Y-68746733D01*
X157098132Y-68719502D01*
X156542933Y-68489531D01*
X156257133Y-68298565D01*
X156043267Y-68155665D01*
X155618335Y-67730733D01*
X155475435Y-67516867D01*
X155284469Y-67231067D01*
X155054498Y-66675868D01*
X154937260Y-66086472D01*
X154937260Y-65485528D01*
X155054498Y-64896132D01*
X155284469Y-64340933D01*
X155475435Y-64055133D01*
X155618335Y-63841267D01*
X156043267Y-63416335D01*
X156257133Y-63273435D01*
X156542933Y-63082469D01*
X157098132Y-62852498D01*
X157392830Y-62793879D01*
X157687527Y-62735260D01*
X158288473Y-62735260D01*
X158583170Y-62793879D01*
X158583170Y-62793879D01*
G37*
M02*
