G04 #@! TF.GenerationSoftware,KiCad,Pcbnew,(5.1.2)-2*
G04 #@! TF.CreationDate,2019-08-24T13:29:16+07:00*
G04 #@! TF.ProjectId,siren_sound,73697265-6e5f-4736-9f75-6e642e6b6963,rev?*
G04 #@! TF.SameCoordinates,Original*
G04 #@! TF.FileFunction,Legend,Top*
G04 #@! TF.FilePolarity,Positive*
%FSLAX46Y46*%
G04 Gerber Fmt 4.6, Leading zero omitted, Abs format (unit mm)*
G04 Created by KiCad (PCBNEW (5.1.2)-2) date 2019-08-24 13:29:16*
%MOMM*%
%LPD*%
G04 APERTURE LIST*
%ADD10C,0.120000*%
%ADD11C,0.127000*%
%ADD12C,0.200000*%
%ADD13C,0.150000*%
%ADD14C,0.050000*%
G04 APERTURE END LIST*
D10*
X62865000Y-87630000D02*
X52705000Y-87630000D01*
X62865000Y-88900000D02*
X62865000Y-81280000D01*
X62865000Y-81280000D02*
X52705000Y-81280000D01*
X52705000Y-81280000D02*
X52705000Y-88900000D01*
X52705000Y-88900000D02*
X62865000Y-88900000D01*
X64135000Y-88900000D02*
X74295000Y-88900000D01*
X64135000Y-81280000D02*
X64135000Y-88900000D01*
X74295000Y-81280000D02*
X64135000Y-81280000D01*
X74295000Y-88900000D02*
X74295000Y-81280000D01*
X74295000Y-87630000D02*
X64135000Y-87630000D01*
X70625000Y-83075000D02*
X70625000Y-88265000D01*
X75425000Y-83075000D02*
X70625000Y-83075000D01*
X75425000Y-88265000D02*
X75425000Y-83075000D01*
X70625000Y-88265000D02*
X75425000Y-88265000D01*
X74295000Y-91055000D02*
X74295000Y-88265000D01*
X73025000Y-91055000D02*
X73025000Y-88265000D01*
X71755000Y-91055000D02*
X71755000Y-88265000D01*
X81955000Y-93345000D02*
G75*
G03X81955000Y-93345000I-1310000J0D01*
G01*
X81955000Y-93345000D02*
X84625000Y-93345000D01*
X64810000Y-91795001D02*
G75*
G03X64810000Y-91795001I-1310000J0D01*
G01*
X64810000Y-91795001D02*
X67480000Y-91795001D01*
X86760000Y-86820000D02*
X86760000Y-85320000D01*
X85510000Y-82820000D02*
X81010000Y-82820000D01*
X79760000Y-85320000D02*
X79760000Y-86820000D01*
X81010000Y-89320000D02*
X85510000Y-89320000D01*
D11*
X59655000Y-93290000D02*
X59655000Y-92490000D01*
X59655000Y-92490000D02*
X53055000Y-92490000D01*
X53055000Y-92490000D02*
X53055000Y-93090000D01*
X53055000Y-102390000D02*
X53055000Y-103090000D01*
X53055000Y-103090000D02*
X59655000Y-103090000D01*
X59655000Y-103090000D02*
X59655000Y-102390000D01*
D12*
X51355000Y-93990000D02*
G75*
G03X51355000Y-93990000I-100000J0D01*
G01*
D10*
X86055000Y-103520000D02*
X86055000Y-102220000D01*
X86655000Y-102870000D02*
X85455000Y-102870000D01*
X80894000Y-103224000D02*
X80894000Y-102516000D01*
X80934000Y-103429000D02*
X80934000Y-102311000D01*
X80974000Y-103577000D02*
X80974000Y-102163000D01*
X81014000Y-103699000D02*
X81014000Y-102041000D01*
X81054000Y-103804000D02*
X81054000Y-101936000D01*
X81094000Y-103898000D02*
X81094000Y-101842000D01*
X81134000Y-103982000D02*
X81134000Y-101758000D01*
X81174000Y-104059000D02*
X81174000Y-101681000D01*
X81214000Y-104131000D02*
X81214000Y-101609000D01*
X81254000Y-104197000D02*
X81254000Y-101543000D01*
X81294000Y-104260000D02*
X81294000Y-101480000D01*
X81334000Y-104318000D02*
X81334000Y-101422000D01*
X81374000Y-104374000D02*
X81374000Y-101366000D01*
X81414000Y-104426000D02*
X81414000Y-101314000D01*
X81454000Y-104476000D02*
X81454000Y-101264000D01*
X81494000Y-101890000D02*
X81494000Y-101216000D01*
X81494000Y-104524000D02*
X81494000Y-103850000D01*
X81534000Y-101890000D02*
X81534000Y-101171000D01*
X81534000Y-104569000D02*
X81534000Y-103850000D01*
X81574000Y-101890000D02*
X81574000Y-101128000D01*
X81574000Y-104612000D02*
X81574000Y-103850000D01*
X81614000Y-101890000D02*
X81614000Y-101087000D01*
X81614000Y-104653000D02*
X81614000Y-103850000D01*
X81654000Y-101890000D02*
X81654000Y-101047000D01*
X81654000Y-104693000D02*
X81654000Y-103850000D01*
X81694000Y-101890000D02*
X81694000Y-101009000D01*
X81694000Y-104731000D02*
X81694000Y-103850000D01*
X81734000Y-101890000D02*
X81734000Y-100973000D01*
X81734000Y-104767000D02*
X81734000Y-103850000D01*
X81774000Y-101890000D02*
X81774000Y-100938000D01*
X81774000Y-104802000D02*
X81774000Y-103850000D01*
X81814000Y-101890000D02*
X81814000Y-100905000D01*
X81814000Y-104835000D02*
X81814000Y-103850000D01*
X81854000Y-101890000D02*
X81854000Y-100873000D01*
X81854000Y-104867000D02*
X81854000Y-103850000D01*
X81894000Y-101890000D02*
X81894000Y-100842000D01*
X81894000Y-104898000D02*
X81894000Y-103850000D01*
X81934000Y-101890000D02*
X81934000Y-100812000D01*
X81934000Y-104928000D02*
X81934000Y-103850000D01*
X81974000Y-101890000D02*
X81974000Y-100784000D01*
X81974000Y-104956000D02*
X81974000Y-103850000D01*
X82014000Y-101890000D02*
X82014000Y-100757000D01*
X82014000Y-104983000D02*
X82014000Y-103850000D01*
X82054000Y-101890000D02*
X82054000Y-100730000D01*
X82054000Y-105010000D02*
X82054000Y-103850000D01*
X82094000Y-101890000D02*
X82094000Y-100705000D01*
X82094000Y-105035000D02*
X82094000Y-103850000D01*
X82134000Y-101890000D02*
X82134000Y-100681000D01*
X82134000Y-105059000D02*
X82134000Y-103850000D01*
X82174000Y-101890000D02*
X82174000Y-100658000D01*
X82174000Y-105082000D02*
X82174000Y-103850000D01*
X82214000Y-101890000D02*
X82214000Y-100636000D01*
X82214000Y-105104000D02*
X82214000Y-103850000D01*
X82254000Y-101890000D02*
X82254000Y-100614000D01*
X82254000Y-105126000D02*
X82254000Y-103850000D01*
X82294000Y-101890000D02*
X82294000Y-100594000D01*
X82294000Y-105146000D02*
X82294000Y-103850000D01*
X82334000Y-101890000D02*
X82334000Y-100574000D01*
X82334000Y-105166000D02*
X82334000Y-103850000D01*
X82374000Y-101890000D02*
X82374000Y-100555000D01*
X82374000Y-105185000D02*
X82374000Y-103850000D01*
X82414000Y-101890000D02*
X82414000Y-100537000D01*
X82414000Y-105203000D02*
X82414000Y-103850000D01*
X82454000Y-101890000D02*
X82454000Y-100520000D01*
X82454000Y-105220000D02*
X82454000Y-103850000D01*
X82494000Y-101890000D02*
X82494000Y-100504000D01*
X82494000Y-105236000D02*
X82494000Y-103850000D01*
X82534000Y-101890000D02*
X82534000Y-100488000D01*
X82534000Y-105252000D02*
X82534000Y-103850000D01*
X82574000Y-101890000D02*
X82574000Y-100474000D01*
X82574000Y-105266000D02*
X82574000Y-103850000D01*
X82614000Y-101890000D02*
X82614000Y-100460000D01*
X82614000Y-105280000D02*
X82614000Y-103850000D01*
X82654000Y-101890000D02*
X82654000Y-100446000D01*
X82654000Y-105294000D02*
X82654000Y-103850000D01*
X82694000Y-101890000D02*
X82694000Y-100434000D01*
X82694000Y-105306000D02*
X82694000Y-103850000D01*
X82734000Y-101890000D02*
X82734000Y-100422000D01*
X82734000Y-105318000D02*
X82734000Y-103850000D01*
X82775000Y-101890000D02*
X82775000Y-100410000D01*
X82775000Y-105330000D02*
X82775000Y-103850000D01*
X82815000Y-101890000D02*
X82815000Y-100400000D01*
X82815000Y-105340000D02*
X82815000Y-103850000D01*
X82855000Y-101890000D02*
X82855000Y-100390000D01*
X82855000Y-105350000D02*
X82855000Y-103850000D01*
X82895000Y-101890000D02*
X82895000Y-100381000D01*
X82895000Y-105359000D02*
X82895000Y-103850000D01*
X82935000Y-101890000D02*
X82935000Y-100372000D01*
X82935000Y-105368000D02*
X82935000Y-103850000D01*
X82975000Y-101890000D02*
X82975000Y-100364000D01*
X82975000Y-105376000D02*
X82975000Y-103850000D01*
X83015000Y-101890000D02*
X83015000Y-100357000D01*
X83015000Y-105383000D02*
X83015000Y-103850000D01*
X83055000Y-101890000D02*
X83055000Y-100351000D01*
X83055000Y-105389000D02*
X83055000Y-103850000D01*
X83095000Y-101890000D02*
X83095000Y-100345000D01*
X83095000Y-105395000D02*
X83095000Y-103850000D01*
X83135000Y-101890000D02*
X83135000Y-100339000D01*
X83135000Y-105401000D02*
X83135000Y-103850000D01*
X83175000Y-101890000D02*
X83175000Y-100335000D01*
X83175000Y-105405000D02*
X83175000Y-103850000D01*
X83215000Y-101890000D02*
X83215000Y-100331000D01*
X83215000Y-105409000D02*
X83215000Y-103850000D01*
X83255000Y-101890000D02*
X83255000Y-100327000D01*
X83255000Y-105413000D02*
X83255000Y-103850000D01*
X83295000Y-101890000D02*
X83295000Y-100324000D01*
X83295000Y-105416000D02*
X83295000Y-103850000D01*
X83335000Y-101890000D02*
X83335000Y-100322000D01*
X83335000Y-105418000D02*
X83335000Y-103850000D01*
X83375000Y-101890000D02*
X83375000Y-100321000D01*
X83375000Y-105419000D02*
X83375000Y-103850000D01*
X83415000Y-101890000D02*
X83415000Y-100320000D01*
X83415000Y-105420000D02*
X83415000Y-103850000D01*
X83455000Y-105420000D02*
X83455000Y-100320000D01*
X81149278Y-101690277D02*
G75*
G03X81149420Y-104050000I2305722J-1179723D01*
G01*
X81149278Y-101690277D02*
G75*
G02X85760580Y-101690000I2305722J-1179723D01*
G01*
X81149278Y-104049723D02*
G75*
G03X85760580Y-104050000I2305722J1179723D01*
G01*
X78140722Y-100420277D02*
G75*
G03X73529420Y-100420000I-2305722J-1179723D01*
G01*
X78140722Y-102779723D02*
G75*
G02X73529420Y-102780000I-2305722J1179723D01*
G01*
X78140722Y-102779723D02*
G75*
G03X78140580Y-100420000I-2305722J1179723D01*
G01*
X75835000Y-99050000D02*
X75835000Y-104150000D01*
X75875000Y-99050000D02*
X75875000Y-100620000D01*
X75875000Y-102580000D02*
X75875000Y-104150000D01*
X75915000Y-99051000D02*
X75915000Y-100620000D01*
X75915000Y-102580000D02*
X75915000Y-104149000D01*
X75955000Y-99052000D02*
X75955000Y-100620000D01*
X75955000Y-102580000D02*
X75955000Y-104148000D01*
X75995000Y-99054000D02*
X75995000Y-100620000D01*
X75995000Y-102580000D02*
X75995000Y-104146000D01*
X76035000Y-99057000D02*
X76035000Y-100620000D01*
X76035000Y-102580000D02*
X76035000Y-104143000D01*
X76075000Y-99061000D02*
X76075000Y-100620000D01*
X76075000Y-102580000D02*
X76075000Y-104139000D01*
X76115000Y-99065000D02*
X76115000Y-100620000D01*
X76115000Y-102580000D02*
X76115000Y-104135000D01*
X76155000Y-99069000D02*
X76155000Y-100620000D01*
X76155000Y-102580000D02*
X76155000Y-104131000D01*
X76195000Y-99075000D02*
X76195000Y-100620000D01*
X76195000Y-102580000D02*
X76195000Y-104125000D01*
X76235000Y-99081000D02*
X76235000Y-100620000D01*
X76235000Y-102580000D02*
X76235000Y-104119000D01*
X76275000Y-99087000D02*
X76275000Y-100620000D01*
X76275000Y-102580000D02*
X76275000Y-104113000D01*
X76315000Y-99094000D02*
X76315000Y-100620000D01*
X76315000Y-102580000D02*
X76315000Y-104106000D01*
X76355000Y-99102000D02*
X76355000Y-100620000D01*
X76355000Y-102580000D02*
X76355000Y-104098000D01*
X76395000Y-99111000D02*
X76395000Y-100620000D01*
X76395000Y-102580000D02*
X76395000Y-104089000D01*
X76435000Y-99120000D02*
X76435000Y-100620000D01*
X76435000Y-102580000D02*
X76435000Y-104080000D01*
X76475000Y-99130000D02*
X76475000Y-100620000D01*
X76475000Y-102580000D02*
X76475000Y-104070000D01*
X76515000Y-99140000D02*
X76515000Y-100620000D01*
X76515000Y-102580000D02*
X76515000Y-104060000D01*
X76556000Y-99152000D02*
X76556000Y-100620000D01*
X76556000Y-102580000D02*
X76556000Y-104048000D01*
X76596000Y-99164000D02*
X76596000Y-100620000D01*
X76596000Y-102580000D02*
X76596000Y-104036000D01*
X76636000Y-99176000D02*
X76636000Y-100620000D01*
X76636000Y-102580000D02*
X76636000Y-104024000D01*
X76676000Y-99190000D02*
X76676000Y-100620000D01*
X76676000Y-102580000D02*
X76676000Y-104010000D01*
X76716000Y-99204000D02*
X76716000Y-100620000D01*
X76716000Y-102580000D02*
X76716000Y-103996000D01*
X76756000Y-99218000D02*
X76756000Y-100620000D01*
X76756000Y-102580000D02*
X76756000Y-103982000D01*
X76796000Y-99234000D02*
X76796000Y-100620000D01*
X76796000Y-102580000D02*
X76796000Y-103966000D01*
X76836000Y-99250000D02*
X76836000Y-100620000D01*
X76836000Y-102580000D02*
X76836000Y-103950000D01*
X76876000Y-99267000D02*
X76876000Y-100620000D01*
X76876000Y-102580000D02*
X76876000Y-103933000D01*
X76916000Y-99285000D02*
X76916000Y-100620000D01*
X76916000Y-102580000D02*
X76916000Y-103915000D01*
X76956000Y-99304000D02*
X76956000Y-100620000D01*
X76956000Y-102580000D02*
X76956000Y-103896000D01*
X76996000Y-99324000D02*
X76996000Y-100620000D01*
X76996000Y-102580000D02*
X76996000Y-103876000D01*
X77036000Y-99344000D02*
X77036000Y-100620000D01*
X77036000Y-102580000D02*
X77036000Y-103856000D01*
X77076000Y-99366000D02*
X77076000Y-100620000D01*
X77076000Y-102580000D02*
X77076000Y-103834000D01*
X77116000Y-99388000D02*
X77116000Y-100620000D01*
X77116000Y-102580000D02*
X77116000Y-103812000D01*
X77156000Y-99411000D02*
X77156000Y-100620000D01*
X77156000Y-102580000D02*
X77156000Y-103789000D01*
X77196000Y-99435000D02*
X77196000Y-100620000D01*
X77196000Y-102580000D02*
X77196000Y-103765000D01*
X77236000Y-99460000D02*
X77236000Y-100620000D01*
X77236000Y-102580000D02*
X77236000Y-103740000D01*
X77276000Y-99487000D02*
X77276000Y-100620000D01*
X77276000Y-102580000D02*
X77276000Y-103713000D01*
X77316000Y-99514000D02*
X77316000Y-100620000D01*
X77316000Y-102580000D02*
X77316000Y-103686000D01*
X77356000Y-99542000D02*
X77356000Y-100620000D01*
X77356000Y-102580000D02*
X77356000Y-103658000D01*
X77396000Y-99572000D02*
X77396000Y-100620000D01*
X77396000Y-102580000D02*
X77396000Y-103628000D01*
X77436000Y-99603000D02*
X77436000Y-100620000D01*
X77436000Y-102580000D02*
X77436000Y-103597000D01*
X77476000Y-99635000D02*
X77476000Y-100620000D01*
X77476000Y-102580000D02*
X77476000Y-103565000D01*
X77516000Y-99668000D02*
X77516000Y-100620000D01*
X77516000Y-102580000D02*
X77516000Y-103532000D01*
X77556000Y-99703000D02*
X77556000Y-100620000D01*
X77556000Y-102580000D02*
X77556000Y-103497000D01*
X77596000Y-99739000D02*
X77596000Y-100620000D01*
X77596000Y-102580000D02*
X77596000Y-103461000D01*
X77636000Y-99777000D02*
X77636000Y-100620000D01*
X77636000Y-102580000D02*
X77636000Y-103423000D01*
X77676000Y-99817000D02*
X77676000Y-100620000D01*
X77676000Y-102580000D02*
X77676000Y-103383000D01*
X77716000Y-99858000D02*
X77716000Y-100620000D01*
X77716000Y-102580000D02*
X77716000Y-103342000D01*
X77756000Y-99901000D02*
X77756000Y-100620000D01*
X77756000Y-102580000D02*
X77756000Y-103299000D01*
X77796000Y-99946000D02*
X77796000Y-100620000D01*
X77796000Y-102580000D02*
X77796000Y-103254000D01*
X77836000Y-99994000D02*
X77836000Y-103206000D01*
X77876000Y-100044000D02*
X77876000Y-103156000D01*
X77916000Y-100096000D02*
X77916000Y-103104000D01*
X77956000Y-100152000D02*
X77956000Y-103048000D01*
X77996000Y-100210000D02*
X77996000Y-102990000D01*
X78036000Y-100273000D02*
X78036000Y-102927000D01*
X78076000Y-100339000D02*
X78076000Y-102861000D01*
X78116000Y-100411000D02*
X78116000Y-102789000D01*
X78156000Y-100488000D02*
X78156000Y-102712000D01*
X78196000Y-100572000D02*
X78196000Y-102628000D01*
X78236000Y-100666000D02*
X78236000Y-102534000D01*
X78276000Y-100771000D02*
X78276000Y-102429000D01*
X78316000Y-100893000D02*
X78316000Y-102307000D01*
X78356000Y-101041000D02*
X78356000Y-102159000D01*
X78396000Y-101246000D02*
X78396000Y-101954000D01*
X72635000Y-101600000D02*
X73835000Y-101600000D01*
X73235000Y-100950000D02*
X73235000Y-102250000D01*
X73330000Y-108570000D02*
X73330000Y-109870000D01*
X72730000Y-109220000D02*
X73930000Y-109220000D01*
X78491000Y-108866000D02*
X78491000Y-109574000D01*
X78451000Y-108661000D02*
X78451000Y-109779000D01*
X78411000Y-108513000D02*
X78411000Y-109927000D01*
X78371000Y-108391000D02*
X78371000Y-110049000D01*
X78331000Y-108286000D02*
X78331000Y-110154000D01*
X78291000Y-108192000D02*
X78291000Y-110248000D01*
X78251000Y-108108000D02*
X78251000Y-110332000D01*
X78211000Y-108031000D02*
X78211000Y-110409000D01*
X78171000Y-107959000D02*
X78171000Y-110481000D01*
X78131000Y-107893000D02*
X78131000Y-110547000D01*
X78091000Y-107830000D02*
X78091000Y-110610000D01*
X78051000Y-107772000D02*
X78051000Y-110668000D01*
X78011000Y-107716000D02*
X78011000Y-110724000D01*
X77971000Y-107664000D02*
X77971000Y-110776000D01*
X77931000Y-107614000D02*
X77931000Y-110826000D01*
X77891000Y-110200000D02*
X77891000Y-110874000D01*
X77891000Y-107566000D02*
X77891000Y-108240000D01*
X77851000Y-110200000D02*
X77851000Y-110919000D01*
X77851000Y-107521000D02*
X77851000Y-108240000D01*
X77811000Y-110200000D02*
X77811000Y-110962000D01*
X77811000Y-107478000D02*
X77811000Y-108240000D01*
X77771000Y-110200000D02*
X77771000Y-111003000D01*
X77771000Y-107437000D02*
X77771000Y-108240000D01*
X77731000Y-110200000D02*
X77731000Y-111043000D01*
X77731000Y-107397000D02*
X77731000Y-108240000D01*
X77691000Y-110200000D02*
X77691000Y-111081000D01*
X77691000Y-107359000D02*
X77691000Y-108240000D01*
X77651000Y-110200000D02*
X77651000Y-111117000D01*
X77651000Y-107323000D02*
X77651000Y-108240000D01*
X77611000Y-110200000D02*
X77611000Y-111152000D01*
X77611000Y-107288000D02*
X77611000Y-108240000D01*
X77571000Y-110200000D02*
X77571000Y-111185000D01*
X77571000Y-107255000D02*
X77571000Y-108240000D01*
X77531000Y-110200000D02*
X77531000Y-111217000D01*
X77531000Y-107223000D02*
X77531000Y-108240000D01*
X77491000Y-110200000D02*
X77491000Y-111248000D01*
X77491000Y-107192000D02*
X77491000Y-108240000D01*
X77451000Y-110200000D02*
X77451000Y-111278000D01*
X77451000Y-107162000D02*
X77451000Y-108240000D01*
X77411000Y-110200000D02*
X77411000Y-111306000D01*
X77411000Y-107134000D02*
X77411000Y-108240000D01*
X77371000Y-110200000D02*
X77371000Y-111333000D01*
X77371000Y-107107000D02*
X77371000Y-108240000D01*
X77331000Y-110200000D02*
X77331000Y-111360000D01*
X77331000Y-107080000D02*
X77331000Y-108240000D01*
X77291000Y-110200000D02*
X77291000Y-111385000D01*
X77291000Y-107055000D02*
X77291000Y-108240000D01*
X77251000Y-110200000D02*
X77251000Y-111409000D01*
X77251000Y-107031000D02*
X77251000Y-108240000D01*
X77211000Y-110200000D02*
X77211000Y-111432000D01*
X77211000Y-107008000D02*
X77211000Y-108240000D01*
X77171000Y-110200000D02*
X77171000Y-111454000D01*
X77171000Y-106986000D02*
X77171000Y-108240000D01*
X77131000Y-110200000D02*
X77131000Y-111476000D01*
X77131000Y-106964000D02*
X77131000Y-108240000D01*
X77091000Y-110200000D02*
X77091000Y-111496000D01*
X77091000Y-106944000D02*
X77091000Y-108240000D01*
X77051000Y-110200000D02*
X77051000Y-111516000D01*
X77051000Y-106924000D02*
X77051000Y-108240000D01*
X77011000Y-110200000D02*
X77011000Y-111535000D01*
X77011000Y-106905000D02*
X77011000Y-108240000D01*
X76971000Y-110200000D02*
X76971000Y-111553000D01*
X76971000Y-106887000D02*
X76971000Y-108240000D01*
X76931000Y-110200000D02*
X76931000Y-111570000D01*
X76931000Y-106870000D02*
X76931000Y-108240000D01*
X76891000Y-110200000D02*
X76891000Y-111586000D01*
X76891000Y-106854000D02*
X76891000Y-108240000D01*
X76851000Y-110200000D02*
X76851000Y-111602000D01*
X76851000Y-106838000D02*
X76851000Y-108240000D01*
X76811000Y-110200000D02*
X76811000Y-111616000D01*
X76811000Y-106824000D02*
X76811000Y-108240000D01*
X76771000Y-110200000D02*
X76771000Y-111630000D01*
X76771000Y-106810000D02*
X76771000Y-108240000D01*
X76731000Y-110200000D02*
X76731000Y-111644000D01*
X76731000Y-106796000D02*
X76731000Y-108240000D01*
X76691000Y-110200000D02*
X76691000Y-111656000D01*
X76691000Y-106784000D02*
X76691000Y-108240000D01*
X76651000Y-110200000D02*
X76651000Y-111668000D01*
X76651000Y-106772000D02*
X76651000Y-108240000D01*
X76610000Y-110200000D02*
X76610000Y-111680000D01*
X76610000Y-106760000D02*
X76610000Y-108240000D01*
X76570000Y-110200000D02*
X76570000Y-111690000D01*
X76570000Y-106750000D02*
X76570000Y-108240000D01*
X76530000Y-110200000D02*
X76530000Y-111700000D01*
X76530000Y-106740000D02*
X76530000Y-108240000D01*
X76490000Y-110200000D02*
X76490000Y-111709000D01*
X76490000Y-106731000D02*
X76490000Y-108240000D01*
X76450000Y-110200000D02*
X76450000Y-111718000D01*
X76450000Y-106722000D02*
X76450000Y-108240000D01*
X76410000Y-110200000D02*
X76410000Y-111726000D01*
X76410000Y-106714000D02*
X76410000Y-108240000D01*
X76370000Y-110200000D02*
X76370000Y-111733000D01*
X76370000Y-106707000D02*
X76370000Y-108240000D01*
X76330000Y-110200000D02*
X76330000Y-111739000D01*
X76330000Y-106701000D02*
X76330000Y-108240000D01*
X76290000Y-110200000D02*
X76290000Y-111745000D01*
X76290000Y-106695000D02*
X76290000Y-108240000D01*
X76250000Y-110200000D02*
X76250000Y-111751000D01*
X76250000Y-106689000D02*
X76250000Y-108240000D01*
X76210000Y-110200000D02*
X76210000Y-111755000D01*
X76210000Y-106685000D02*
X76210000Y-108240000D01*
X76170000Y-110200000D02*
X76170000Y-111759000D01*
X76170000Y-106681000D02*
X76170000Y-108240000D01*
X76130000Y-110200000D02*
X76130000Y-111763000D01*
X76130000Y-106677000D02*
X76130000Y-108240000D01*
X76090000Y-110200000D02*
X76090000Y-111766000D01*
X76090000Y-106674000D02*
X76090000Y-108240000D01*
X76050000Y-110200000D02*
X76050000Y-111768000D01*
X76050000Y-106672000D02*
X76050000Y-108240000D01*
X76010000Y-110200000D02*
X76010000Y-111769000D01*
X76010000Y-106671000D02*
X76010000Y-108240000D01*
X75970000Y-110200000D02*
X75970000Y-111770000D01*
X75970000Y-106670000D02*
X75970000Y-108240000D01*
X75930000Y-106670000D02*
X75930000Y-111770000D01*
X78235722Y-110399723D02*
G75*
G03X78235580Y-108040000I-2305722J1179723D01*
G01*
X78235722Y-110399723D02*
G75*
G02X73624420Y-110400000I-2305722J1179723D01*
G01*
X78235722Y-108040277D02*
G75*
G03X73624420Y-108040000I-2305722J-1179723D01*
G01*
X66180000Y-92600000D02*
X66180000Y-97790000D01*
X70980000Y-92600000D02*
X66180000Y-92600000D01*
X70980000Y-97790000D02*
X70980000Y-92600000D01*
X66180000Y-97790000D02*
X70980000Y-97790000D01*
X69850000Y-100580000D02*
X69850000Y-97790000D01*
X68580000Y-100580000D02*
X68580000Y-97790000D01*
X67310000Y-100580000D02*
X67310000Y-97790000D01*
X81955000Y-97790000D02*
G75*
G03X81955000Y-97790000I-1310000J0D01*
G01*
X81955000Y-97790000D02*
X84625000Y-97790000D01*
X68620000Y-96520000D02*
X71290000Y-96520000D01*
X68620000Y-96520000D02*
G75*
G03X68620000Y-96520000I-1310000J0D01*
G01*
X64175000Y-107950000D02*
G75*
G03X64175000Y-107950000I-1310000J0D01*
G01*
X64175000Y-107950000D02*
X66845000Y-107950000D01*
X54015000Y-108585000D02*
X56685000Y-108585000D01*
X54015000Y-108585000D02*
G75*
G03X54015000Y-108585000I-1310000J0D01*
G01*
D13*
X57451666Y-79462380D02*
X57451666Y-80176666D01*
X57404047Y-80319523D01*
X57308809Y-80414761D01*
X57165952Y-80462380D01*
X57070714Y-80462380D01*
X58451666Y-80462380D02*
X57880238Y-80462380D01*
X58165952Y-80462380D02*
X58165952Y-79462380D01*
X58070714Y-79605238D01*
X57975476Y-79700476D01*
X57880238Y-79748095D01*
X68572142Y-80462380D02*
X68095952Y-80462380D01*
X68095952Y-79462380D01*
X68857857Y-80414761D02*
X69000714Y-80462380D01*
X69238809Y-80462380D01*
X69334047Y-80414761D01*
X69381666Y-80367142D01*
X69429285Y-80271904D01*
X69429285Y-80176666D01*
X69381666Y-80081428D01*
X69334047Y-80033809D01*
X69238809Y-79986190D01*
X69048333Y-79938571D01*
X68953095Y-79890952D01*
X68905476Y-79843333D01*
X68857857Y-79748095D01*
X68857857Y-79652857D01*
X68905476Y-79557619D01*
X68953095Y-79510000D01*
X69048333Y-79462380D01*
X69286428Y-79462380D01*
X69429285Y-79510000D01*
X70381666Y-80462380D02*
X69810238Y-80462380D01*
X70095952Y-80462380D02*
X70095952Y-79462380D01*
X70000714Y-79605238D01*
X69905476Y-79700476D01*
X69810238Y-79748095D01*
X72929761Y-94402619D02*
X72834523Y-94355000D01*
X72739285Y-94259761D01*
X72596428Y-94116904D01*
X72501190Y-94069285D01*
X72405952Y-94069285D01*
X72453571Y-94307380D02*
X72358333Y-94259761D01*
X72263095Y-94164523D01*
X72215476Y-93974047D01*
X72215476Y-93640714D01*
X72263095Y-93450238D01*
X72358333Y-93355000D01*
X72453571Y-93307380D01*
X72644047Y-93307380D01*
X72739285Y-93355000D01*
X72834523Y-93450238D01*
X72882142Y-93640714D01*
X72882142Y-93974047D01*
X72834523Y-94164523D01*
X72739285Y-94259761D01*
X72644047Y-94307380D01*
X72453571Y-94307380D01*
X73263095Y-93402619D02*
X73310714Y-93355000D01*
X73405952Y-93307380D01*
X73644047Y-93307380D01*
X73739285Y-93355000D01*
X73786904Y-93402619D01*
X73834523Y-93497857D01*
X73834523Y-93593095D01*
X73786904Y-93735952D01*
X73215476Y-94307380D01*
X73834523Y-94307380D01*
X83018333Y-91487380D02*
X82685000Y-91011190D01*
X82446904Y-91487380D02*
X82446904Y-90487380D01*
X82827857Y-90487380D01*
X82923095Y-90535000D01*
X82970714Y-90582619D01*
X83018333Y-90677857D01*
X83018333Y-90820714D01*
X82970714Y-90915952D01*
X82923095Y-90963571D01*
X82827857Y-91011190D01*
X82446904Y-91011190D01*
X83970714Y-91487380D02*
X83399285Y-91487380D01*
X83685000Y-91487380D02*
X83685000Y-90487380D01*
X83589761Y-90630238D01*
X83494523Y-90725476D01*
X83399285Y-90773095D01*
X65873333Y-89937381D02*
X65540000Y-89461191D01*
X65301904Y-89937381D02*
X65301904Y-88937381D01*
X65682857Y-88937381D01*
X65778095Y-88985001D01*
X65825714Y-89032620D01*
X65873333Y-89127858D01*
X65873333Y-89270715D01*
X65825714Y-89365953D01*
X65778095Y-89413572D01*
X65682857Y-89461191D01*
X65301904Y-89461191D01*
X66730476Y-88937381D02*
X66540000Y-88937381D01*
X66444761Y-88985001D01*
X66397142Y-89032620D01*
X66301904Y-89175477D01*
X66254285Y-89365953D01*
X66254285Y-89746905D01*
X66301904Y-89842143D01*
X66349523Y-89889762D01*
X66444761Y-89937381D01*
X66635238Y-89937381D01*
X66730476Y-89889762D01*
X66778095Y-89842143D01*
X66825714Y-89746905D01*
X66825714Y-89508810D01*
X66778095Y-89413572D01*
X66730476Y-89365953D01*
X66635238Y-89318334D01*
X66444761Y-89318334D01*
X66349523Y-89365953D01*
X66301904Y-89413572D01*
X66254285Y-89508810D01*
X81926666Y-82224761D02*
X82069523Y-82272380D01*
X82307619Y-82272380D01*
X82402857Y-82224761D01*
X82450476Y-82177142D01*
X82498095Y-82081904D01*
X82498095Y-81986666D01*
X82450476Y-81891428D01*
X82402857Y-81843809D01*
X82307619Y-81796190D01*
X82117142Y-81748571D01*
X82021904Y-81700952D01*
X81974285Y-81653333D01*
X81926666Y-81558095D01*
X81926666Y-81462857D01*
X81974285Y-81367619D01*
X82021904Y-81320000D01*
X82117142Y-81272380D01*
X82355238Y-81272380D01*
X82498095Y-81320000D01*
X82831428Y-81272380D02*
X83069523Y-82272380D01*
X83260000Y-81558095D01*
X83450476Y-82272380D01*
X83688571Y-81272380D01*
X84593333Y-82272380D02*
X84021904Y-82272380D01*
X84307619Y-82272380D02*
X84307619Y-81272380D01*
X84212380Y-81415238D01*
X84117142Y-81510476D01*
X84021904Y-81558095D01*
D14*
X54830363Y-90895035D02*
X54830363Y-91706016D01*
X54878068Y-91801425D01*
X54925773Y-91849130D01*
X55021182Y-91896835D01*
X55212001Y-91896835D01*
X55307411Y-91849130D01*
X55355116Y-91801425D01*
X55402820Y-91706016D01*
X55402820Y-90895035D01*
X56404620Y-91896835D02*
X55832163Y-91896835D01*
X56118392Y-91896835D02*
X56118392Y-90895035D01*
X56022982Y-91038149D01*
X55927573Y-91133559D01*
X55832163Y-91181263D01*
X54061198Y-104513631D02*
X54061198Y-103512701D01*
X54633158Y-104513631D01*
X54633158Y-103512701D01*
X55109791Y-103989335D02*
X55443435Y-103989335D01*
X55586425Y-104513631D02*
X55109791Y-104513631D01*
X55109791Y-103512701D01*
X55586425Y-103512701D01*
X56492028Y-103512701D02*
X56015395Y-103512701D01*
X55967731Y-103989335D01*
X56015395Y-103941671D01*
X56110721Y-103894008D01*
X56349038Y-103894008D01*
X56444365Y-103941671D01*
X56492028Y-103989335D01*
X56539691Y-104084661D01*
X56539691Y-104322978D01*
X56492028Y-104418305D01*
X56444365Y-104465968D01*
X56349038Y-104513631D01*
X56110721Y-104513631D01*
X56015395Y-104465968D01*
X55967731Y-104418305D01*
X57445295Y-103512701D02*
X56968661Y-103512701D01*
X56920998Y-103989335D01*
X56968661Y-103941671D01*
X57063988Y-103894008D01*
X57302305Y-103894008D01*
X57397631Y-103941671D01*
X57445295Y-103989335D01*
X57492958Y-104084661D01*
X57492958Y-104322978D01*
X57445295Y-104418305D01*
X57397631Y-104465968D01*
X57302305Y-104513631D01*
X57063988Y-104513631D01*
X56968661Y-104465968D01*
X56920998Y-104418305D01*
X58398561Y-103512701D02*
X57921928Y-103512701D01*
X57874265Y-103989335D01*
X57921928Y-103941671D01*
X58017255Y-103894008D01*
X58255571Y-103894008D01*
X58350898Y-103941671D01*
X58398561Y-103989335D01*
X58446225Y-104084661D01*
X58446225Y-104322978D01*
X58398561Y-104418305D01*
X58350898Y-104465968D01*
X58255571Y-104513631D01*
X58017255Y-104513631D01*
X57921928Y-104465968D01*
X57874265Y-104418305D01*
D13*
X83288333Y-107037142D02*
X83240714Y-107084761D01*
X83097857Y-107132380D01*
X83002619Y-107132380D01*
X82859761Y-107084761D01*
X82764523Y-106989523D01*
X82716904Y-106894285D01*
X82669285Y-106703809D01*
X82669285Y-106560952D01*
X82716904Y-106370476D01*
X82764523Y-106275238D01*
X82859761Y-106180000D01*
X83002619Y-106132380D01*
X83097857Y-106132380D01*
X83240714Y-106180000D01*
X83288333Y-106227619D01*
X84240714Y-107132380D02*
X83669285Y-107132380D01*
X83955000Y-107132380D02*
X83955000Y-106132380D01*
X83859761Y-106275238D01*
X83764523Y-106370476D01*
X83669285Y-106418095D01*
X75668333Y-98147142D02*
X75620714Y-98194761D01*
X75477857Y-98242380D01*
X75382619Y-98242380D01*
X75239761Y-98194761D01*
X75144523Y-98099523D01*
X75096904Y-98004285D01*
X75049285Y-97813809D01*
X75049285Y-97670952D01*
X75096904Y-97480476D01*
X75144523Y-97385238D01*
X75239761Y-97290000D01*
X75382619Y-97242380D01*
X75477857Y-97242380D01*
X75620714Y-97290000D01*
X75668333Y-97337619D01*
X76049285Y-97337619D02*
X76096904Y-97290000D01*
X76192142Y-97242380D01*
X76430238Y-97242380D01*
X76525476Y-97290000D01*
X76573095Y-97337619D01*
X76620714Y-97432857D01*
X76620714Y-97528095D01*
X76573095Y-97670952D01*
X76001666Y-98242380D01*
X76620714Y-98242380D01*
X75763333Y-105767142D02*
X75715714Y-105814761D01*
X75572857Y-105862380D01*
X75477619Y-105862380D01*
X75334761Y-105814761D01*
X75239523Y-105719523D01*
X75191904Y-105624285D01*
X75144285Y-105433809D01*
X75144285Y-105290952D01*
X75191904Y-105100476D01*
X75239523Y-105005238D01*
X75334761Y-104910000D01*
X75477619Y-104862380D01*
X75572857Y-104862380D01*
X75715714Y-104910000D01*
X75763333Y-104957619D01*
X76096666Y-104862380D02*
X76715714Y-104862380D01*
X76382380Y-105243333D01*
X76525238Y-105243333D01*
X76620476Y-105290952D01*
X76668095Y-105338571D01*
X76715714Y-105433809D01*
X76715714Y-105671904D01*
X76668095Y-105767142D01*
X76620476Y-105814761D01*
X76525238Y-105862380D01*
X76239523Y-105862380D01*
X76144285Y-105814761D01*
X76096666Y-105767142D01*
X68484761Y-103927619D02*
X68389523Y-103880000D01*
X68294285Y-103784761D01*
X68151428Y-103641904D01*
X68056190Y-103594285D01*
X67960952Y-103594285D01*
X68008571Y-103832380D02*
X67913333Y-103784761D01*
X67818095Y-103689523D01*
X67770476Y-103499047D01*
X67770476Y-103165714D01*
X67818095Y-102975238D01*
X67913333Y-102880000D01*
X68008571Y-102832380D01*
X68199047Y-102832380D01*
X68294285Y-102880000D01*
X68389523Y-102975238D01*
X68437142Y-103165714D01*
X68437142Y-103499047D01*
X68389523Y-103689523D01*
X68294285Y-103784761D01*
X68199047Y-103832380D01*
X68008571Y-103832380D01*
X69389523Y-103832380D02*
X68818095Y-103832380D01*
X69103809Y-103832380D02*
X69103809Y-102832380D01*
X69008571Y-102975238D01*
X68913333Y-103070476D01*
X68818095Y-103118095D01*
X83018333Y-95932380D02*
X82685000Y-95456190D01*
X82446904Y-95932380D02*
X82446904Y-94932380D01*
X82827857Y-94932380D01*
X82923095Y-94980000D01*
X82970714Y-95027619D01*
X83018333Y-95122857D01*
X83018333Y-95265714D01*
X82970714Y-95360952D01*
X82923095Y-95408571D01*
X82827857Y-95456190D01*
X82446904Y-95456190D01*
X83399285Y-95027619D02*
X83446904Y-94980000D01*
X83542142Y-94932380D01*
X83780238Y-94932380D01*
X83875476Y-94980000D01*
X83923095Y-95027619D01*
X83970714Y-95122857D01*
X83970714Y-95218095D01*
X83923095Y-95360952D01*
X83351666Y-95932380D01*
X83970714Y-95932380D01*
X69683333Y-94662380D02*
X69350000Y-94186190D01*
X69111904Y-94662380D02*
X69111904Y-93662380D01*
X69492857Y-93662380D01*
X69588095Y-93710000D01*
X69635714Y-93757619D01*
X69683333Y-93852857D01*
X69683333Y-93995714D01*
X69635714Y-94090952D01*
X69588095Y-94138571D01*
X69492857Y-94186190D01*
X69111904Y-94186190D01*
X70016666Y-93662380D02*
X70635714Y-93662380D01*
X70302380Y-94043333D01*
X70445238Y-94043333D01*
X70540476Y-94090952D01*
X70588095Y-94138571D01*
X70635714Y-94233809D01*
X70635714Y-94471904D01*
X70588095Y-94567142D01*
X70540476Y-94614761D01*
X70445238Y-94662380D01*
X70159523Y-94662380D01*
X70064285Y-94614761D01*
X70016666Y-94567142D01*
X65238333Y-106092380D02*
X64905000Y-105616190D01*
X64666904Y-106092380D02*
X64666904Y-105092380D01*
X65047857Y-105092380D01*
X65143095Y-105140000D01*
X65190714Y-105187619D01*
X65238333Y-105282857D01*
X65238333Y-105425714D01*
X65190714Y-105520952D01*
X65143095Y-105568571D01*
X65047857Y-105616190D01*
X64666904Y-105616190D01*
X66095476Y-105425714D02*
X66095476Y-106092380D01*
X65857380Y-105044761D02*
X65619285Y-105759047D01*
X66238333Y-105759047D01*
X55078333Y-106727380D02*
X54745000Y-106251190D01*
X54506904Y-106727380D02*
X54506904Y-105727380D01*
X54887857Y-105727380D01*
X54983095Y-105775000D01*
X55030714Y-105822619D01*
X55078333Y-105917857D01*
X55078333Y-106060714D01*
X55030714Y-106155952D01*
X54983095Y-106203571D01*
X54887857Y-106251190D01*
X54506904Y-106251190D01*
X55983095Y-105727380D02*
X55506904Y-105727380D01*
X55459285Y-106203571D01*
X55506904Y-106155952D01*
X55602142Y-106108333D01*
X55840238Y-106108333D01*
X55935476Y-106155952D01*
X55983095Y-106203571D01*
X56030714Y-106298809D01*
X56030714Y-106536904D01*
X55983095Y-106632142D01*
X55935476Y-106679761D01*
X55840238Y-106727380D01*
X55602142Y-106727380D01*
X55506904Y-106679761D01*
X55459285Y-106632142D01*
M02*
