G04 #@! TF.GenerationSoftware,KiCad,Pcbnew,(5.1.2)-2*
G04 #@! TF.CreationDate,2019-08-24T13:29:16+07:00*
G04 #@! TF.ProjectId,siren_sound,73697265-6e5f-4736-9f75-6e642e6b6963,rev?*
G04 #@! TF.SameCoordinates,Original*
G04 #@! TF.FileFunction,Soldermask,Top*
G04 #@! TF.FilePolarity,Negative*
%FSLAX46Y46*%
G04 Gerber Fmt 4.6, Leading zero omitted, Abs format (unit mm)*
G04 Created by KiCad (PCBNEW (5.1.2)-2) date 2019-08-24 13:29:16*
%MOMM*%
%LPD*%
G04 APERTURE LIST*
%ADD10C,0.100000*%
G04 APERTURE END LIST*
D10*
G36*
X77178228Y-108401703D02*
G01*
X77333100Y-108465853D01*
X77472481Y-108558985D01*
X77591015Y-108677519D01*
X77684147Y-108816900D01*
X77748297Y-108971772D01*
X77781000Y-109136184D01*
X77781000Y-109303816D01*
X77748297Y-109468228D01*
X77684147Y-109623100D01*
X77591015Y-109762481D01*
X77472481Y-109881015D01*
X77333100Y-109974147D01*
X77178228Y-110038297D01*
X77013816Y-110071000D01*
X76846184Y-110071000D01*
X76681772Y-110038297D01*
X76526900Y-109974147D01*
X76387519Y-109881015D01*
X76268985Y-109762481D01*
X76175853Y-109623100D01*
X76111703Y-109468228D01*
X76079000Y-109303816D01*
X76079000Y-109136184D01*
X76111703Y-108971772D01*
X76175853Y-108816900D01*
X76268985Y-108677519D01*
X76387519Y-108558985D01*
X76526900Y-108465853D01*
X76681772Y-108401703D01*
X76846184Y-108369000D01*
X77013816Y-108369000D01*
X77178228Y-108401703D01*
X77178228Y-108401703D01*
G37*
G36*
X75631000Y-110071000D02*
G01*
X74229000Y-110071000D01*
X74229000Y-108369000D01*
X75631000Y-108369000D01*
X75631000Y-110071000D01*
X75631000Y-110071000D01*
G37*
G36*
X52953228Y-107766703D02*
G01*
X53108100Y-107830853D01*
X53247481Y-107923985D01*
X53366015Y-108042519D01*
X53459147Y-108181900D01*
X53523297Y-108336772D01*
X53556000Y-108501184D01*
X53556000Y-108668816D01*
X53523297Y-108833228D01*
X53459147Y-108988100D01*
X53366015Y-109127481D01*
X53247481Y-109246015D01*
X53108100Y-109339147D01*
X52953228Y-109403297D01*
X52788816Y-109436000D01*
X52621184Y-109436000D01*
X52456772Y-109403297D01*
X52301900Y-109339147D01*
X52162519Y-109246015D01*
X52043985Y-109127481D01*
X51950853Y-108988100D01*
X51886703Y-108833228D01*
X51854000Y-108668816D01*
X51854000Y-108501184D01*
X51886703Y-108336772D01*
X51950853Y-108181900D01*
X52043985Y-108042519D01*
X52162519Y-107923985D01*
X52301900Y-107830853D01*
X52456772Y-107766703D01*
X52621184Y-107734000D01*
X52788816Y-107734000D01*
X52953228Y-107766703D01*
X52953228Y-107766703D01*
G37*
G36*
X57863571Y-107787863D02*
G01*
X57942023Y-107795590D01*
X58042682Y-107826125D01*
X58093013Y-107841392D01*
X58232165Y-107915771D01*
X58354133Y-108015867D01*
X58454229Y-108137835D01*
X58528608Y-108276987D01*
X58528608Y-108276988D01*
X58574410Y-108427977D01*
X58589875Y-108585000D01*
X58574410Y-108742023D01*
X58551696Y-108816900D01*
X58528608Y-108893013D01*
X58454229Y-109032165D01*
X58354133Y-109154133D01*
X58232165Y-109254229D01*
X58093013Y-109328608D01*
X58042682Y-109343875D01*
X57942023Y-109374410D01*
X57863571Y-109382137D01*
X57824346Y-109386000D01*
X57745654Y-109386000D01*
X57706429Y-109382137D01*
X57627977Y-109374410D01*
X57527318Y-109343875D01*
X57476987Y-109328608D01*
X57337835Y-109254229D01*
X57215867Y-109154133D01*
X57115771Y-109032165D01*
X57041392Y-108893013D01*
X57018304Y-108816900D01*
X56995590Y-108742023D01*
X56980125Y-108585000D01*
X56995590Y-108427977D01*
X57041392Y-108276988D01*
X57041392Y-108276987D01*
X57115771Y-108137835D01*
X57215867Y-108015867D01*
X57337835Y-107915771D01*
X57476987Y-107841392D01*
X57527318Y-107826125D01*
X57627977Y-107795590D01*
X57706429Y-107787863D01*
X57745654Y-107784000D01*
X57824346Y-107784000D01*
X57863571Y-107787863D01*
X57863571Y-107787863D01*
G37*
G36*
X63113228Y-107131703D02*
G01*
X63268100Y-107195853D01*
X63407481Y-107288985D01*
X63526015Y-107407519D01*
X63619147Y-107546900D01*
X63683297Y-107701772D01*
X63716000Y-107866184D01*
X63716000Y-108033816D01*
X63683297Y-108198228D01*
X63619147Y-108353100D01*
X63526015Y-108492481D01*
X63407481Y-108611015D01*
X63268100Y-108704147D01*
X63113228Y-108768297D01*
X62948816Y-108801000D01*
X62781184Y-108801000D01*
X62616772Y-108768297D01*
X62461900Y-108704147D01*
X62322519Y-108611015D01*
X62203985Y-108492481D01*
X62110853Y-108353100D01*
X62046703Y-108198228D01*
X62014000Y-108033816D01*
X62014000Y-107866184D01*
X62046703Y-107701772D01*
X62110853Y-107546900D01*
X62203985Y-107407519D01*
X62322519Y-107288985D01*
X62461900Y-107195853D01*
X62616772Y-107131703D01*
X62781184Y-107099000D01*
X62948816Y-107099000D01*
X63113228Y-107131703D01*
X63113228Y-107131703D01*
G37*
G36*
X68111823Y-107111313D02*
G01*
X68272242Y-107159976D01*
X68339361Y-107195852D01*
X68420078Y-107238996D01*
X68549659Y-107345341D01*
X68656004Y-107474922D01*
X68656005Y-107474924D01*
X68735024Y-107622758D01*
X68783687Y-107783177D01*
X68800117Y-107950000D01*
X68783687Y-108116823D01*
X68735024Y-108277242D01*
X68694477Y-108353100D01*
X68656004Y-108425078D01*
X68549659Y-108554659D01*
X68420078Y-108661004D01*
X68420076Y-108661005D01*
X68272242Y-108740024D01*
X68111823Y-108788687D01*
X67986804Y-108801000D01*
X67903196Y-108801000D01*
X67778177Y-108788687D01*
X67617758Y-108740024D01*
X67469924Y-108661005D01*
X67469922Y-108661004D01*
X67340341Y-108554659D01*
X67233996Y-108425078D01*
X67195523Y-108353100D01*
X67154976Y-108277242D01*
X67106313Y-108116823D01*
X67089883Y-107950000D01*
X67106313Y-107783177D01*
X67154976Y-107622758D01*
X67233995Y-107474924D01*
X67233996Y-107474922D01*
X67340341Y-107345341D01*
X67469922Y-107238996D01*
X67550639Y-107195852D01*
X67617758Y-107159976D01*
X67778177Y-107111313D01*
X67903196Y-107099000D01*
X67986804Y-107099000D01*
X68111823Y-107111313D01*
X68111823Y-107111313D01*
G37*
G36*
X85306000Y-103721000D02*
G01*
X83604000Y-103721000D01*
X83604000Y-102019000D01*
X85306000Y-102019000D01*
X85306000Y-103721000D01*
X85306000Y-103721000D01*
G37*
G36*
X82688642Y-102099781D02*
G01*
X82791728Y-102142481D01*
X82834416Y-102160163D01*
X82965608Y-102247822D01*
X83077178Y-102359392D01*
X83138388Y-102451000D01*
X83164838Y-102490586D01*
X83225219Y-102636358D01*
X83256000Y-102791107D01*
X83256000Y-102948893D01*
X83225219Y-103103642D01*
X83164838Y-103249414D01*
X83164837Y-103249416D01*
X83077178Y-103380608D01*
X82965608Y-103492178D01*
X82834416Y-103579837D01*
X82834415Y-103579838D01*
X82834414Y-103579838D01*
X82688642Y-103640219D01*
X82533893Y-103671000D01*
X82376107Y-103671000D01*
X82221358Y-103640219D01*
X82075586Y-103579838D01*
X82075585Y-103579838D01*
X82075584Y-103579837D01*
X81944392Y-103492178D01*
X81832822Y-103380608D01*
X81745163Y-103249416D01*
X81745162Y-103249414D01*
X81684781Y-103103642D01*
X81654000Y-102948893D01*
X81654000Y-102791107D01*
X81684781Y-102636358D01*
X81745162Y-102490586D01*
X81771612Y-102451000D01*
X81832822Y-102359392D01*
X81944392Y-102247822D01*
X82075584Y-102160163D01*
X82118272Y-102142481D01*
X82221358Y-102099781D01*
X82376107Y-102069000D01*
X82533893Y-102069000D01*
X82688642Y-102099781D01*
X82688642Y-102099781D01*
G37*
G36*
X60631564Y-100589389D02*
G01*
X60822833Y-100668615D01*
X60822835Y-100668616D01*
X60994973Y-100783635D01*
X61141365Y-100930027D01*
X61239287Y-101076577D01*
X61256385Y-101102167D01*
X61335611Y-101293436D01*
X61376000Y-101496484D01*
X61376000Y-101703516D01*
X61335611Y-101906564D01*
X61280998Y-102038411D01*
X61256384Y-102097835D01*
X61141365Y-102269973D01*
X60994973Y-102416365D01*
X60822835Y-102531384D01*
X60822834Y-102531385D01*
X60822833Y-102531385D01*
X60631564Y-102610611D01*
X60428516Y-102651000D01*
X60221484Y-102651000D01*
X60018436Y-102610611D01*
X59827167Y-102531385D01*
X59827166Y-102531385D01*
X59827165Y-102531384D01*
X59655027Y-102416365D01*
X59508635Y-102269973D01*
X59393616Y-102097835D01*
X59369002Y-102038411D01*
X59314389Y-101906564D01*
X59274000Y-101703516D01*
X59274000Y-101496484D01*
X59314389Y-101293436D01*
X59393615Y-101102167D01*
X59410714Y-101076577D01*
X59508635Y-100930027D01*
X59655027Y-100783635D01*
X59827165Y-100668616D01*
X59827167Y-100668615D01*
X60018436Y-100589389D01*
X60221484Y-100549000D01*
X60428516Y-100549000D01*
X60631564Y-100589389D01*
X60631564Y-100589389D01*
G37*
G36*
X52691564Y-100589389D02*
G01*
X52882833Y-100668615D01*
X52882835Y-100668616D01*
X53054973Y-100783635D01*
X53201365Y-100930027D01*
X53299287Y-101076577D01*
X53316385Y-101102167D01*
X53395611Y-101293436D01*
X53436000Y-101496484D01*
X53436000Y-101703516D01*
X53395611Y-101906564D01*
X53340998Y-102038411D01*
X53316384Y-102097835D01*
X53201365Y-102269973D01*
X53054973Y-102416365D01*
X52882835Y-102531384D01*
X52882834Y-102531385D01*
X52882833Y-102531385D01*
X52691564Y-102610611D01*
X52488516Y-102651000D01*
X52281484Y-102651000D01*
X52078436Y-102610611D01*
X51887167Y-102531385D01*
X51887166Y-102531385D01*
X51887165Y-102531384D01*
X51715027Y-102416365D01*
X51568635Y-102269973D01*
X51453616Y-102097835D01*
X51429002Y-102038411D01*
X51374389Y-101906564D01*
X51334000Y-101703516D01*
X51334000Y-101496484D01*
X51374389Y-101293436D01*
X51453615Y-101102167D01*
X51470714Y-101076577D01*
X51568635Y-100930027D01*
X51715027Y-100783635D01*
X51887165Y-100668616D01*
X51887167Y-100668615D01*
X52078436Y-100589389D01*
X52281484Y-100549000D01*
X52488516Y-100549000D01*
X52691564Y-100589389D01*
X52691564Y-100589389D01*
G37*
G36*
X75586000Y-102451000D02*
G01*
X74084000Y-102451000D01*
X74084000Y-100749000D01*
X75586000Y-100749000D01*
X75586000Y-102451000D01*
X75586000Y-102451000D01*
G37*
G36*
X77083228Y-100781703D02*
G01*
X77238100Y-100845853D01*
X77377481Y-100938985D01*
X77496015Y-101057519D01*
X77589147Y-101196900D01*
X77653297Y-101351772D01*
X77686000Y-101516184D01*
X77686000Y-101683816D01*
X77653297Y-101848228D01*
X77589147Y-102003100D01*
X77496015Y-102142481D01*
X77377481Y-102261015D01*
X77238100Y-102354147D01*
X77083228Y-102418297D01*
X76918816Y-102451000D01*
X76751184Y-102451000D01*
X76586772Y-102418297D01*
X76431900Y-102354147D01*
X76292519Y-102261015D01*
X76173985Y-102142481D01*
X76080853Y-102003100D01*
X76016703Y-101848228D01*
X75984000Y-101683816D01*
X75984000Y-101516184D01*
X76016703Y-101351772D01*
X76080853Y-101196900D01*
X76173985Y-101057519D01*
X76292519Y-100938985D01*
X76431900Y-100845853D01*
X76586772Y-100781703D01*
X76751184Y-100749000D01*
X76918816Y-100749000D01*
X77083228Y-100781703D01*
X77083228Y-100781703D01*
G37*
G36*
X68668410Y-100805525D02*
G01*
X68753426Y-100831314D01*
X68831775Y-100873193D01*
X68900449Y-100929551D01*
X68956807Y-100998225D01*
X68998686Y-101076574D01*
X69024475Y-101161590D01*
X69031000Y-101227842D01*
X69031000Y-101972158D01*
X69024475Y-102038410D01*
X68998686Y-102123426D01*
X68956807Y-102201775D01*
X68900449Y-102270448D01*
X68831774Y-102326807D01*
X68753425Y-102368686D01*
X68668409Y-102394475D01*
X68580000Y-102403182D01*
X68491590Y-102394475D01*
X68406574Y-102368686D01*
X68328225Y-102326807D01*
X68259552Y-102270449D01*
X68203193Y-102201774D01*
X68161314Y-102123425D01*
X68135525Y-102038409D01*
X68129000Y-101972157D01*
X68129000Y-101227842D01*
X68135525Y-101161590D01*
X68161313Y-101076577D01*
X68203195Y-100998224D01*
X68259552Y-100929551D01*
X68328226Y-100873193D01*
X68406575Y-100831314D01*
X68491591Y-100805525D01*
X68580000Y-100796818D01*
X68668410Y-100805525D01*
X68668410Y-100805525D01*
G37*
G36*
X69938410Y-100805525D02*
G01*
X70023426Y-100831314D01*
X70101775Y-100873193D01*
X70170449Y-100929551D01*
X70226807Y-100998225D01*
X70268686Y-101076574D01*
X70294475Y-101161590D01*
X70301000Y-101227842D01*
X70301000Y-101972158D01*
X70294475Y-102038410D01*
X70268686Y-102123426D01*
X70226807Y-102201775D01*
X70170449Y-102270448D01*
X70101774Y-102326807D01*
X70023425Y-102368686D01*
X69938409Y-102394475D01*
X69850000Y-102403182D01*
X69761590Y-102394475D01*
X69676574Y-102368686D01*
X69598225Y-102326807D01*
X69529552Y-102270449D01*
X69473193Y-102201774D01*
X69431314Y-102123425D01*
X69405525Y-102038409D01*
X69399000Y-101972157D01*
X69399000Y-101227842D01*
X69405525Y-101161590D01*
X69431313Y-101076577D01*
X69473195Y-100998224D01*
X69529552Y-100929551D01*
X69598226Y-100873193D01*
X69676575Y-100831314D01*
X69761591Y-100805525D01*
X69850000Y-100796818D01*
X69938410Y-100805525D01*
X69938410Y-100805525D01*
G37*
G36*
X67761000Y-102401000D02*
G01*
X66859000Y-102401000D01*
X66859000Y-100799000D01*
X67761000Y-100799000D01*
X67761000Y-102401000D01*
X67761000Y-102401000D01*
G37*
G36*
X52691564Y-98049389D02*
G01*
X52855376Y-98117242D01*
X52882835Y-98128616D01*
X53054973Y-98243635D01*
X53201365Y-98390027D01*
X53304345Y-98544147D01*
X53316385Y-98562167D01*
X53395611Y-98753436D01*
X53436000Y-98956484D01*
X53436000Y-99163516D01*
X53395611Y-99366564D01*
X53316385Y-99557833D01*
X53316384Y-99557835D01*
X53201365Y-99729973D01*
X53054973Y-99876365D01*
X52882835Y-99991384D01*
X52882834Y-99991385D01*
X52882833Y-99991385D01*
X52691564Y-100070611D01*
X52488516Y-100111000D01*
X52281484Y-100111000D01*
X52078436Y-100070611D01*
X51887167Y-99991385D01*
X51887166Y-99991385D01*
X51887165Y-99991384D01*
X51715027Y-99876365D01*
X51568635Y-99729973D01*
X51453616Y-99557835D01*
X51453615Y-99557833D01*
X51374389Y-99366564D01*
X51334000Y-99163516D01*
X51334000Y-98956484D01*
X51374389Y-98753436D01*
X51453615Y-98562167D01*
X51465656Y-98544147D01*
X51568635Y-98390027D01*
X51715027Y-98243635D01*
X51887165Y-98128616D01*
X51914624Y-98117242D01*
X52078436Y-98049389D01*
X52281484Y-98009000D01*
X52488516Y-98009000D01*
X52691564Y-98049389D01*
X52691564Y-98049389D01*
G37*
G36*
X60631564Y-98049389D02*
G01*
X60795376Y-98117242D01*
X60822835Y-98128616D01*
X60994973Y-98243635D01*
X61141365Y-98390027D01*
X61244345Y-98544147D01*
X61256385Y-98562167D01*
X61335611Y-98753436D01*
X61376000Y-98956484D01*
X61376000Y-99163516D01*
X61335611Y-99366564D01*
X61256385Y-99557833D01*
X61256384Y-99557835D01*
X61141365Y-99729973D01*
X60994973Y-99876365D01*
X60822835Y-99991384D01*
X60822834Y-99991385D01*
X60822833Y-99991385D01*
X60631564Y-100070611D01*
X60428516Y-100111000D01*
X60221484Y-100111000D01*
X60018436Y-100070611D01*
X59827167Y-99991385D01*
X59827166Y-99991385D01*
X59827165Y-99991384D01*
X59655027Y-99876365D01*
X59508635Y-99729973D01*
X59393616Y-99557835D01*
X59393615Y-99557833D01*
X59314389Y-99366564D01*
X59274000Y-99163516D01*
X59274000Y-98956484D01*
X59314389Y-98753436D01*
X59393615Y-98562167D01*
X59405656Y-98544147D01*
X59508635Y-98390027D01*
X59655027Y-98243635D01*
X59827165Y-98128616D01*
X59854624Y-98117242D01*
X60018436Y-98049389D01*
X60221484Y-98009000D01*
X60428516Y-98009000D01*
X60631564Y-98049389D01*
X60631564Y-98049389D01*
G37*
G36*
X85891823Y-96951313D02*
G01*
X86052242Y-96999976D01*
X86184906Y-97070886D01*
X86200078Y-97078996D01*
X86329659Y-97185341D01*
X86436004Y-97314922D01*
X86436005Y-97314924D01*
X86515024Y-97462758D01*
X86563687Y-97623177D01*
X86580117Y-97790000D01*
X86563687Y-97956823D01*
X86515024Y-98117242D01*
X86474477Y-98193100D01*
X86436004Y-98265078D01*
X86329659Y-98394659D01*
X86200078Y-98501004D01*
X86200076Y-98501005D01*
X86052242Y-98580024D01*
X85891823Y-98628687D01*
X85766804Y-98641000D01*
X85683196Y-98641000D01*
X85558177Y-98628687D01*
X85397758Y-98580024D01*
X85249924Y-98501005D01*
X85249922Y-98501004D01*
X85120341Y-98394659D01*
X85013996Y-98265078D01*
X84975523Y-98193100D01*
X84934976Y-98117242D01*
X84886313Y-97956823D01*
X84869883Y-97790000D01*
X84886313Y-97623177D01*
X84934976Y-97462758D01*
X85013995Y-97314924D01*
X85013996Y-97314922D01*
X85120341Y-97185341D01*
X85249922Y-97078996D01*
X85265094Y-97070886D01*
X85397758Y-96999976D01*
X85558177Y-96951313D01*
X85683196Y-96939000D01*
X85766804Y-96939000D01*
X85891823Y-96951313D01*
X85891823Y-96951313D01*
G37*
G36*
X80893228Y-96971703D02*
G01*
X81048100Y-97035853D01*
X81187481Y-97128985D01*
X81306015Y-97247519D01*
X81399147Y-97386900D01*
X81463297Y-97541772D01*
X81496000Y-97706184D01*
X81496000Y-97873816D01*
X81463297Y-98038228D01*
X81399147Y-98193100D01*
X81306015Y-98332481D01*
X81187481Y-98451015D01*
X81048100Y-98544147D01*
X80893228Y-98608297D01*
X80728816Y-98641000D01*
X80561184Y-98641000D01*
X80396772Y-98608297D01*
X80241900Y-98544147D01*
X80102519Y-98451015D01*
X79983985Y-98332481D01*
X79890853Y-98193100D01*
X79826703Y-98038228D01*
X79794000Y-97873816D01*
X79794000Y-97706184D01*
X79826703Y-97541772D01*
X79890853Y-97386900D01*
X79983985Y-97247519D01*
X80102519Y-97128985D01*
X80241900Y-97035853D01*
X80396772Y-96971703D01*
X80561184Y-96939000D01*
X80728816Y-96939000D01*
X80893228Y-96971703D01*
X80893228Y-96971703D01*
G37*
G36*
X52691564Y-95509389D02*
G01*
X52882833Y-95588615D01*
X52882835Y-95588616D01*
X53003138Y-95669000D01*
X53054973Y-95703635D01*
X53201365Y-95850027D01*
X53316385Y-96022167D01*
X53395611Y-96213436D01*
X53436000Y-96416484D01*
X53436000Y-96623516D01*
X53395611Y-96826564D01*
X53316385Y-97017833D01*
X53316384Y-97017835D01*
X53201365Y-97189973D01*
X53054973Y-97336365D01*
X52882835Y-97451384D01*
X52882834Y-97451385D01*
X52882833Y-97451385D01*
X52691564Y-97530611D01*
X52488516Y-97571000D01*
X52281484Y-97571000D01*
X52078436Y-97530611D01*
X51887167Y-97451385D01*
X51887166Y-97451385D01*
X51887165Y-97451384D01*
X51715027Y-97336365D01*
X51568635Y-97189973D01*
X51453616Y-97017835D01*
X51453615Y-97017833D01*
X51374389Y-96826564D01*
X51334000Y-96623516D01*
X51334000Y-96416484D01*
X51374389Y-96213436D01*
X51453615Y-96022167D01*
X51568635Y-95850027D01*
X51715027Y-95703635D01*
X51766862Y-95669000D01*
X51887165Y-95588616D01*
X51887167Y-95588615D01*
X52078436Y-95509389D01*
X52281484Y-95469000D01*
X52488516Y-95469000D01*
X52691564Y-95509389D01*
X52691564Y-95509389D01*
G37*
G36*
X60631564Y-95509389D02*
G01*
X60822833Y-95588615D01*
X60822835Y-95588616D01*
X60943138Y-95669000D01*
X60994973Y-95703635D01*
X61141365Y-95850027D01*
X61256385Y-96022167D01*
X61335611Y-96213436D01*
X61376000Y-96416484D01*
X61376000Y-96623516D01*
X61335611Y-96826564D01*
X61256385Y-97017833D01*
X61256384Y-97017835D01*
X61141365Y-97189973D01*
X60994973Y-97336365D01*
X60822835Y-97451384D01*
X60822834Y-97451385D01*
X60822833Y-97451385D01*
X60631564Y-97530611D01*
X60428516Y-97571000D01*
X60221484Y-97571000D01*
X60018436Y-97530611D01*
X59827167Y-97451385D01*
X59827166Y-97451385D01*
X59827165Y-97451384D01*
X59655027Y-97336365D01*
X59508635Y-97189973D01*
X59393616Y-97017835D01*
X59393615Y-97017833D01*
X59314389Y-96826564D01*
X59274000Y-96623516D01*
X59274000Y-96416484D01*
X59314389Y-96213436D01*
X59393615Y-96022167D01*
X59508635Y-95850027D01*
X59655027Y-95703635D01*
X59706862Y-95669000D01*
X59827165Y-95588616D01*
X59827167Y-95588615D01*
X60018436Y-95509389D01*
X60221484Y-95469000D01*
X60428516Y-95469000D01*
X60631564Y-95509389D01*
X60631564Y-95509389D01*
G37*
G36*
X72556823Y-95681313D02*
G01*
X72717242Y-95729976D01*
X72784361Y-95765852D01*
X72865078Y-95808996D01*
X72994659Y-95915341D01*
X73101004Y-96044922D01*
X73101005Y-96044924D01*
X73180024Y-96192758D01*
X73228687Y-96353177D01*
X73245117Y-96520000D01*
X73228687Y-96686823D01*
X73180024Y-96847242D01*
X73139477Y-96923100D01*
X73101004Y-96995078D01*
X72994659Y-97124659D01*
X72865078Y-97231004D01*
X72865076Y-97231005D01*
X72717242Y-97310024D01*
X72556823Y-97358687D01*
X72431804Y-97371000D01*
X72348196Y-97371000D01*
X72223177Y-97358687D01*
X72062758Y-97310024D01*
X71914924Y-97231005D01*
X71914922Y-97231004D01*
X71785341Y-97124659D01*
X71678996Y-96995078D01*
X71640523Y-96923100D01*
X71599976Y-96847242D01*
X71551313Y-96686823D01*
X71534883Y-96520000D01*
X71551313Y-96353177D01*
X71599976Y-96192758D01*
X71678995Y-96044924D01*
X71678996Y-96044922D01*
X71785341Y-95915341D01*
X71914922Y-95808996D01*
X71995639Y-95765852D01*
X72062758Y-95729976D01*
X72223177Y-95681313D01*
X72348196Y-95669000D01*
X72431804Y-95669000D01*
X72556823Y-95681313D01*
X72556823Y-95681313D01*
G37*
G36*
X67558228Y-95701703D02*
G01*
X67713100Y-95765853D01*
X67852481Y-95858985D01*
X67971015Y-95977519D01*
X68064147Y-96116900D01*
X68128297Y-96271772D01*
X68161000Y-96436184D01*
X68161000Y-96603816D01*
X68128297Y-96768228D01*
X68064147Y-96923100D01*
X67971015Y-97062481D01*
X67852481Y-97181015D01*
X67713100Y-97274147D01*
X67558228Y-97338297D01*
X67393816Y-97371000D01*
X67226184Y-97371000D01*
X67061772Y-97338297D01*
X66906900Y-97274147D01*
X66767519Y-97181015D01*
X66648985Y-97062481D01*
X66555853Y-96923100D01*
X66491703Y-96768228D01*
X66459000Y-96603816D01*
X66459000Y-96436184D01*
X66491703Y-96271772D01*
X66555853Y-96116900D01*
X66648985Y-95977519D01*
X66767519Y-95858985D01*
X66906900Y-95765853D01*
X67061772Y-95701703D01*
X67226184Y-95669000D01*
X67393816Y-95669000D01*
X67558228Y-95701703D01*
X67558228Y-95701703D01*
G37*
G36*
X60631564Y-92969389D02*
G01*
X60822833Y-93048615D01*
X60822835Y-93048616D01*
X60890287Y-93093686D01*
X60994973Y-93163635D01*
X61141365Y-93310027D01*
X61256385Y-93482167D01*
X61335611Y-93673436D01*
X61376000Y-93876484D01*
X61376000Y-94083516D01*
X61335611Y-94286564D01*
X61296580Y-94380793D01*
X61256384Y-94477835D01*
X61141365Y-94649973D01*
X60994973Y-94796365D01*
X60822835Y-94911384D01*
X60822834Y-94911385D01*
X60822833Y-94911385D01*
X60631564Y-94990611D01*
X60428516Y-95031000D01*
X60221484Y-95031000D01*
X60018436Y-94990611D01*
X59827167Y-94911385D01*
X59827166Y-94911385D01*
X59827165Y-94911384D01*
X59655027Y-94796365D01*
X59508635Y-94649973D01*
X59393616Y-94477835D01*
X59353420Y-94380793D01*
X59314389Y-94286564D01*
X59274000Y-94083516D01*
X59274000Y-93876484D01*
X59314389Y-93673436D01*
X59393615Y-93482167D01*
X59508635Y-93310027D01*
X59655027Y-93163635D01*
X59759713Y-93093686D01*
X59827165Y-93048616D01*
X59827167Y-93048615D01*
X60018436Y-92969389D01*
X60221484Y-92929000D01*
X60428516Y-92929000D01*
X60631564Y-92969389D01*
X60631564Y-92969389D01*
G37*
G36*
X53436000Y-94665000D02*
G01*
X51334000Y-94665000D01*
X51334000Y-93295000D01*
X53436000Y-93295000D01*
X53436000Y-94665000D01*
X53436000Y-94665000D01*
G37*
G36*
X80951564Y-92334389D02*
G01*
X81142833Y-92413615D01*
X81142835Y-92413616D01*
X81314973Y-92528635D01*
X81461365Y-92675027D01*
X81520421Y-92763410D01*
X81576385Y-92847167D01*
X81655611Y-93038436D01*
X81696000Y-93241484D01*
X81696000Y-93448516D01*
X81655611Y-93651564D01*
X81646551Y-93673436D01*
X81576384Y-93842835D01*
X81461365Y-94014973D01*
X81314973Y-94161365D01*
X81142835Y-94276384D01*
X81142834Y-94276385D01*
X81142833Y-94276385D01*
X80951564Y-94355611D01*
X80748516Y-94396000D01*
X80541484Y-94396000D01*
X80338436Y-94355611D01*
X80147167Y-94276385D01*
X80147166Y-94276385D01*
X80147165Y-94276384D01*
X79975027Y-94161365D01*
X79828635Y-94014973D01*
X79713616Y-93842835D01*
X79643449Y-93673436D01*
X79634389Y-93651564D01*
X79594000Y-93448516D01*
X79594000Y-93241484D01*
X79634389Y-93038436D01*
X79713615Y-92847167D01*
X79769580Y-92763410D01*
X79828635Y-92675027D01*
X79975027Y-92528635D01*
X80147165Y-92413616D01*
X80147167Y-92413615D01*
X80338436Y-92334389D01*
X80541484Y-92294000D01*
X80748516Y-92294000D01*
X80951564Y-92334389D01*
X80951564Y-92334389D01*
G37*
G36*
X85828097Y-92299069D02*
G01*
X85931032Y-92309207D01*
X86129146Y-92369305D01*
X86129149Y-92369306D01*
X86212045Y-92413615D01*
X86311729Y-92466897D01*
X86471765Y-92598235D01*
X86603103Y-92758271D01*
X86628407Y-92805612D01*
X86700694Y-92940851D01*
X86700695Y-92940854D01*
X86760793Y-93138968D01*
X86781085Y-93345000D01*
X86760793Y-93551032D01*
X86700695Y-93749146D01*
X86700694Y-93749149D01*
X86650619Y-93842833D01*
X86603103Y-93931729D01*
X86471765Y-94091765D01*
X86311729Y-94223103D01*
X86225975Y-94268939D01*
X86129149Y-94320694D01*
X86129146Y-94320695D01*
X85931032Y-94380793D01*
X85828097Y-94390931D01*
X85776631Y-94396000D01*
X85673369Y-94396000D01*
X85621903Y-94390931D01*
X85518968Y-94380793D01*
X85320854Y-94320695D01*
X85320851Y-94320694D01*
X85224025Y-94268939D01*
X85138271Y-94223103D01*
X84978235Y-94091765D01*
X84846897Y-93931729D01*
X84799381Y-93842833D01*
X84749306Y-93749149D01*
X84749305Y-93749146D01*
X84689207Y-93551032D01*
X84668915Y-93345000D01*
X84689207Y-93138968D01*
X84749305Y-92940854D01*
X84749306Y-92940851D01*
X84821593Y-92805612D01*
X84846897Y-92758271D01*
X84978235Y-92598235D01*
X85138271Y-92466897D01*
X85237955Y-92413615D01*
X85320851Y-92369306D01*
X85320854Y-92369305D01*
X85518968Y-92309207D01*
X85621903Y-92299069D01*
X85673369Y-92294000D01*
X85776631Y-92294000D01*
X85828097Y-92299069D01*
X85828097Y-92299069D01*
G37*
G36*
X74383410Y-91030525D02*
G01*
X74468426Y-91056314D01*
X74546775Y-91098193D01*
X74615449Y-91154551D01*
X74671807Y-91223225D01*
X74713686Y-91301574D01*
X74739475Y-91386590D01*
X74746000Y-91452842D01*
X74746000Y-92697158D01*
X74739475Y-92763410D01*
X74713686Y-92848426D01*
X74671807Y-92926775D01*
X74615449Y-92995448D01*
X74546774Y-93051807D01*
X74468425Y-93093686D01*
X74383409Y-93119475D01*
X74295000Y-93128182D01*
X74206590Y-93119475D01*
X74121574Y-93093686D01*
X74043225Y-93051807D01*
X73974552Y-92995449D01*
X73918193Y-92926774D01*
X73876314Y-92848425D01*
X73850525Y-92763409D01*
X73844000Y-92697157D01*
X73844001Y-91452842D01*
X73850526Y-91386590D01*
X73876315Y-91301574D01*
X73918194Y-91223225D01*
X73974552Y-91154551D01*
X74043226Y-91098193D01*
X74121575Y-91056314D01*
X74206591Y-91030525D01*
X74295000Y-91021818D01*
X74383410Y-91030525D01*
X74383410Y-91030525D01*
G37*
G36*
X73113410Y-91030525D02*
G01*
X73198426Y-91056314D01*
X73276775Y-91098193D01*
X73345449Y-91154551D01*
X73401807Y-91223225D01*
X73443686Y-91301574D01*
X73469475Y-91386590D01*
X73476000Y-91452842D01*
X73476000Y-92697158D01*
X73469475Y-92763410D01*
X73443686Y-92848426D01*
X73401807Y-92926775D01*
X73345449Y-92995448D01*
X73276774Y-93051807D01*
X73198425Y-93093686D01*
X73113409Y-93119475D01*
X73025000Y-93128182D01*
X72936590Y-93119475D01*
X72851574Y-93093686D01*
X72773225Y-93051807D01*
X72704552Y-92995449D01*
X72648193Y-92926774D01*
X72606314Y-92848425D01*
X72580525Y-92763409D01*
X72574000Y-92697157D01*
X72574001Y-91452842D01*
X72580526Y-91386590D01*
X72606315Y-91301574D01*
X72648194Y-91223225D01*
X72704552Y-91154551D01*
X72773226Y-91098193D01*
X72851575Y-91056314D01*
X72936591Y-91030525D01*
X73025000Y-91021818D01*
X73113410Y-91030525D01*
X73113410Y-91030525D01*
G37*
G36*
X72206000Y-93126000D02*
G01*
X71304000Y-93126000D01*
X71304000Y-91024000D01*
X72206000Y-91024000D01*
X72206000Y-93126000D01*
X72206000Y-93126000D01*
G37*
G36*
X68683097Y-90749070D02*
G01*
X68786032Y-90759208D01*
X68984146Y-90819306D01*
X68984149Y-90819307D01*
X69067045Y-90863616D01*
X69166729Y-90916898D01*
X69326765Y-91048236D01*
X69458103Y-91208272D01*
X69466095Y-91223225D01*
X69555694Y-91390852D01*
X69555695Y-91390855D01*
X69615793Y-91588969D01*
X69636085Y-91795001D01*
X69615793Y-92001033D01*
X69585296Y-92101566D01*
X69555694Y-92199150D01*
X69505619Y-92292834D01*
X69458103Y-92381730D01*
X69326765Y-92541766D01*
X69166729Y-92673104D01*
X69080975Y-92718940D01*
X68984149Y-92770695D01*
X68984146Y-92770696D01*
X68786032Y-92830794D01*
X68683097Y-92840932D01*
X68631631Y-92846001D01*
X68528369Y-92846001D01*
X68476903Y-92840932D01*
X68373968Y-92830794D01*
X68175854Y-92770696D01*
X68175851Y-92770695D01*
X68079025Y-92718940D01*
X67993271Y-92673104D01*
X67833235Y-92541766D01*
X67701897Y-92381730D01*
X67654381Y-92292834D01*
X67604306Y-92199150D01*
X67574704Y-92101566D01*
X67544207Y-92001033D01*
X67523915Y-91795001D01*
X67544207Y-91588969D01*
X67604305Y-91390855D01*
X67604306Y-91390852D01*
X67693905Y-91223225D01*
X67701897Y-91208272D01*
X67833235Y-91048236D01*
X67993271Y-90916898D01*
X68092955Y-90863616D01*
X68175851Y-90819307D01*
X68175854Y-90819306D01*
X68373968Y-90759208D01*
X68476903Y-90749070D01*
X68528369Y-90744001D01*
X68631631Y-90744001D01*
X68683097Y-90749070D01*
X68683097Y-90749070D01*
G37*
G36*
X63806564Y-90784390D02*
G01*
X63997833Y-90863616D01*
X63997835Y-90863617D01*
X64169973Y-90978636D01*
X64316365Y-91125028D01*
X64371988Y-91208273D01*
X64431385Y-91297168D01*
X64510611Y-91488437D01*
X64551000Y-91691485D01*
X64551000Y-91898517D01*
X64510611Y-92101565D01*
X64470191Y-92199147D01*
X64431384Y-92292836D01*
X64316365Y-92464974D01*
X64169973Y-92611366D01*
X63997835Y-92726385D01*
X63997834Y-92726386D01*
X63997833Y-92726386D01*
X63806564Y-92805612D01*
X63603516Y-92846001D01*
X63396484Y-92846001D01*
X63193436Y-92805612D01*
X63002167Y-92726386D01*
X63002166Y-92726386D01*
X63002165Y-92726385D01*
X62830027Y-92611366D01*
X62683635Y-92464974D01*
X62568616Y-92292836D01*
X62529809Y-92199147D01*
X62489389Y-92101565D01*
X62449000Y-91898517D01*
X62449000Y-91691485D01*
X62489389Y-91488437D01*
X62568615Y-91297168D01*
X62628013Y-91208273D01*
X62683635Y-91125028D01*
X62830027Y-90978636D01*
X63002165Y-90863617D01*
X63002167Y-90863616D01*
X63193436Y-90784390D01*
X63396484Y-90744001D01*
X63603516Y-90744001D01*
X63806564Y-90784390D01*
X63806564Y-90784390D01*
G37*
G36*
X86816564Y-87309389D02*
G01*
X87007833Y-87388615D01*
X87007835Y-87388616D01*
X87179973Y-87503635D01*
X87326365Y-87650027D01*
X87441385Y-87822167D01*
X87520611Y-88013436D01*
X87561000Y-88216484D01*
X87561000Y-88423516D01*
X87520611Y-88626564D01*
X87441385Y-88817833D01*
X87441384Y-88817835D01*
X87326365Y-88989973D01*
X87179973Y-89136365D01*
X87007835Y-89251384D01*
X87007834Y-89251385D01*
X87007833Y-89251385D01*
X86816564Y-89330611D01*
X86613516Y-89371000D01*
X86406484Y-89371000D01*
X86203436Y-89330611D01*
X86012167Y-89251385D01*
X86012166Y-89251385D01*
X86012165Y-89251384D01*
X85840027Y-89136365D01*
X85693635Y-88989973D01*
X85578616Y-88817835D01*
X85578615Y-88817833D01*
X85499389Y-88626564D01*
X85459000Y-88423516D01*
X85459000Y-88216484D01*
X85499389Y-88013436D01*
X85578615Y-87822167D01*
X85693635Y-87650027D01*
X85840027Y-87503635D01*
X86012165Y-87388616D01*
X86012167Y-87388615D01*
X86203436Y-87309389D01*
X86406484Y-87269000D01*
X86613516Y-87269000D01*
X86816564Y-87309389D01*
X86816564Y-87309389D01*
G37*
G36*
X80316564Y-87309389D02*
G01*
X80507833Y-87388615D01*
X80507835Y-87388616D01*
X80679973Y-87503635D01*
X80826365Y-87650027D01*
X80941385Y-87822167D01*
X81020611Y-88013436D01*
X81061000Y-88216484D01*
X81061000Y-88423516D01*
X81020611Y-88626564D01*
X80941385Y-88817833D01*
X80941384Y-88817835D01*
X80826365Y-88989973D01*
X80679973Y-89136365D01*
X80507835Y-89251384D01*
X80507834Y-89251385D01*
X80507833Y-89251385D01*
X80316564Y-89330611D01*
X80113516Y-89371000D01*
X79906484Y-89371000D01*
X79703436Y-89330611D01*
X79512167Y-89251385D01*
X79512166Y-89251385D01*
X79512165Y-89251384D01*
X79340027Y-89136365D01*
X79193635Y-88989973D01*
X79078616Y-88817835D01*
X79078615Y-88817833D01*
X78999389Y-88626564D01*
X78959000Y-88423516D01*
X78959000Y-88216484D01*
X78999389Y-88013436D01*
X79078615Y-87822167D01*
X79193635Y-87650027D01*
X79340027Y-87503635D01*
X79512165Y-87388616D01*
X79512167Y-87388615D01*
X79703436Y-87309389D01*
X79906484Y-87269000D01*
X80113516Y-87269000D01*
X80316564Y-87309389D01*
X80316564Y-87309389D01*
G37*
G36*
X56796000Y-86641000D02*
G01*
X53694000Y-86641000D01*
X53694000Y-83539000D01*
X56796000Y-83539000D01*
X56796000Y-86641000D01*
X56796000Y-86641000D01*
G37*
G36*
X72057585Y-83568802D02*
G01*
X72207410Y-83598604D01*
X72489674Y-83715521D01*
X72743705Y-83885259D01*
X72959741Y-84101295D01*
X73129479Y-84355326D01*
X73246396Y-84637590D01*
X73306000Y-84937240D01*
X73306000Y-85242760D01*
X73246396Y-85542410D01*
X73129479Y-85824674D01*
X72959741Y-86078705D01*
X72743705Y-86294741D01*
X72489674Y-86464479D01*
X72207410Y-86581396D01*
X72057585Y-86611198D01*
X71907761Y-86641000D01*
X71602239Y-86641000D01*
X71452415Y-86611198D01*
X71302590Y-86581396D01*
X71020326Y-86464479D01*
X70766295Y-86294741D01*
X70550259Y-86078705D01*
X70380521Y-85824674D01*
X70263604Y-85542410D01*
X70204000Y-85242760D01*
X70204000Y-84937240D01*
X70263604Y-84637590D01*
X70380521Y-84355326D01*
X70550259Y-84101295D01*
X70766295Y-83885259D01*
X71020326Y-83715521D01*
X71302590Y-83598604D01*
X71452415Y-83568802D01*
X71602239Y-83539000D01*
X71907761Y-83539000D01*
X72057585Y-83568802D01*
X72057585Y-83568802D01*
G37*
G36*
X60627585Y-83568802D02*
G01*
X60777410Y-83598604D01*
X61059674Y-83715521D01*
X61313705Y-83885259D01*
X61529741Y-84101295D01*
X61699479Y-84355326D01*
X61816396Y-84637590D01*
X61876000Y-84937240D01*
X61876000Y-85242760D01*
X61816396Y-85542410D01*
X61699479Y-85824674D01*
X61529741Y-86078705D01*
X61313705Y-86294741D01*
X61059674Y-86464479D01*
X60777410Y-86581396D01*
X60627585Y-86611198D01*
X60477761Y-86641000D01*
X60172239Y-86641000D01*
X60022415Y-86611198D01*
X59872590Y-86581396D01*
X59590326Y-86464479D01*
X59336295Y-86294741D01*
X59120259Y-86078705D01*
X58950521Y-85824674D01*
X58833604Y-85542410D01*
X58774000Y-85242760D01*
X58774000Y-84937240D01*
X58833604Y-84637590D01*
X58950521Y-84355326D01*
X59120259Y-84101295D01*
X59336295Y-83885259D01*
X59590326Y-83715521D01*
X59872590Y-83598604D01*
X60022415Y-83568802D01*
X60172239Y-83539000D01*
X60477761Y-83539000D01*
X60627585Y-83568802D01*
X60627585Y-83568802D01*
G37*
G36*
X68226000Y-86641000D02*
G01*
X65124000Y-86641000D01*
X65124000Y-83539000D01*
X68226000Y-83539000D01*
X68226000Y-86641000D01*
X68226000Y-86641000D01*
G37*
G36*
X86816564Y-82809389D02*
G01*
X87007833Y-82888615D01*
X87007835Y-82888616D01*
X87179973Y-83003635D01*
X87326365Y-83150027D01*
X87441385Y-83322167D01*
X87520611Y-83513436D01*
X87561000Y-83716484D01*
X87561000Y-83923516D01*
X87520611Y-84126564D01*
X87441385Y-84317833D01*
X87441384Y-84317835D01*
X87326365Y-84489973D01*
X87179973Y-84636365D01*
X87007835Y-84751384D01*
X87007834Y-84751385D01*
X87007833Y-84751385D01*
X86816564Y-84830611D01*
X86613516Y-84871000D01*
X86406484Y-84871000D01*
X86203436Y-84830611D01*
X86012167Y-84751385D01*
X86012166Y-84751385D01*
X86012165Y-84751384D01*
X85840027Y-84636365D01*
X85693635Y-84489973D01*
X85578616Y-84317835D01*
X85578615Y-84317833D01*
X85499389Y-84126564D01*
X85459000Y-83923516D01*
X85459000Y-83716484D01*
X85499389Y-83513436D01*
X85578615Y-83322167D01*
X85693635Y-83150027D01*
X85840027Y-83003635D01*
X86012165Y-82888616D01*
X86012167Y-82888615D01*
X86203436Y-82809389D01*
X86406484Y-82769000D01*
X86613516Y-82769000D01*
X86816564Y-82809389D01*
X86816564Y-82809389D01*
G37*
G36*
X80316564Y-82809389D02*
G01*
X80507833Y-82888615D01*
X80507835Y-82888616D01*
X80679973Y-83003635D01*
X80826365Y-83150027D01*
X80941385Y-83322167D01*
X81020611Y-83513436D01*
X81061000Y-83716484D01*
X81061000Y-83923516D01*
X81020611Y-84126564D01*
X80941385Y-84317833D01*
X80941384Y-84317835D01*
X80826365Y-84489973D01*
X80679973Y-84636365D01*
X80507835Y-84751384D01*
X80507834Y-84751385D01*
X80507833Y-84751385D01*
X80316564Y-84830611D01*
X80113516Y-84871000D01*
X79906484Y-84871000D01*
X79703436Y-84830611D01*
X79512167Y-84751385D01*
X79512166Y-84751385D01*
X79512165Y-84751384D01*
X79340027Y-84636365D01*
X79193635Y-84489973D01*
X79078616Y-84317835D01*
X79078615Y-84317833D01*
X78999389Y-84126564D01*
X78959000Y-83923516D01*
X78959000Y-83716484D01*
X78999389Y-83513436D01*
X79078615Y-83322167D01*
X79193635Y-83150027D01*
X79340027Y-83003635D01*
X79512165Y-82888616D01*
X79512167Y-82888615D01*
X79703436Y-82809389D01*
X79906484Y-82769000D01*
X80113516Y-82769000D01*
X80316564Y-82809389D01*
X80316564Y-82809389D01*
G37*
M02*
