M48
; DRILL file {KiCad (5.1.2)-2} date 8/24/2019 1:29:10 PM
; FORMAT={-:-/ absolute / metric / decimal}
; #@! TF.CreationDate,2019-08-24T13:29:10+07:00
; #@! TF.GenerationSoftware,Kicad,Pcbnew,(5.1.2)-2
FMAT,2
METRIC
T1C0.400
T2C0.600
T3C0.760
T4C0.800
T5C1.100
T6C1.520
%
G90
G05
T1
X54.61Y-101.6
X55.245Y-93.98
X59.575Y-107.835
X69.85Y-95.25
T2
X67.31Y-101.6
X68.58Y-101.6
X69.85Y-101.6
X71.755Y-92.075
X73.025Y-92.075
X74.295Y-92.075
T3
X52.385Y-93.98
X52.385Y-96.52
X52.385Y-99.06
X52.385Y-101.6
X60.325Y-93.98
X60.325Y-96.52
X60.325Y-99.06
X60.325Y-101.6
T4
X82.455Y-102.87
X84.455Y-102.87
X52.705Y-108.585
X57.785Y-108.585
X67.31Y-96.52
X72.39Y-96.52
X62.865Y-107.95
X67.945Y-107.95
X74.93Y-109.22
X76.93Y-109.22
X80.645Y-93.345
X85.725Y-93.345
X80.645Y-97.79
X85.725Y-97.79
X63.5Y-91.795
X68.58Y-91.795
X74.835Y-101.6
X76.835Y-101.6
T5
X80.01Y-83.82
X80.01Y-88.32
X86.51Y-83.82
X86.51Y-88.32
T6
X55.245Y-85.09
X60.325Y-85.09
X66.675Y-85.09
X71.755Y-85.09
T0
M30
