G04 #@! TF.GenerationSoftware,KiCad,Pcbnew,(5.1.2)-2*
G04 #@! TF.CreationDate,2019-08-27T13:21:09+07:00*
G04 #@! TF.ProjectId,clock_7segment,636c6f63-6b5f-4377-9365-676d656e742e,rev?*
G04 #@! TF.SameCoordinates,Original*
G04 #@! TF.FileFunction,Copper,L2,Bot*
G04 #@! TF.FilePolarity,Positive*
%FSLAX46Y46*%
G04 Gerber Fmt 4.6, Leading zero omitted, Abs format (unit mm)*
G04 Created by KiCad (PCBNEW (5.1.2)-2) date 2019-08-27 13:21:09*
%MOMM*%
%LPD*%
G04 APERTURE LIST*
%ADD10O,2.000000X0.800000*%
%ADD11O,2.500000X0.700000*%
%ADD12O,2.000000X0.900000*%
%ADD13O,1.800000X0.800000*%
%ADD14O,2.500000X0.800000*%
%ADD15O,2.400000X2.400000*%
%ADD16C,2.400000*%
%ADD17O,1.600000X1.600000*%
%ADD18R,2.500000X1.200000*%
%ADD19C,1.200000*%
%ADD20C,0.100000*%
%ADD21R,1.600000X1.600000*%
%ADD22C,1.850000*%
%ADD23R,1.850000X1.850000*%
%ADD24O,2.350000X3.000000*%
%ADD25R,2.350000X3.000000*%
%ADD26C,3.000000*%
%ADD27R,3.000000X3.000000*%
%ADD28O,1.500000X0.800000*%
%ADD29C,1.000000*%
%ADD30C,0.500000*%
%ADD31C,0.900000*%
G04 APERTURE END LIST*
D10*
X109728000Y-130810000D03*
X110998000Y-129540000D03*
X109728000Y-128270000D03*
X109728000Y-114300000D03*
X110998000Y-115570000D03*
X109728000Y-116840000D03*
D11*
X109728000Y-86868000D03*
X110998000Y-88138000D03*
X109728000Y-89408000D03*
D12*
X109220000Y-144272000D03*
D10*
X107950000Y-145542000D03*
X109220000Y-146812000D03*
X109728000Y-109728000D03*
D13*
X110998000Y-108458000D03*
D14*
X109728000Y-107188000D03*
D15*
X132588000Y-104648000D03*
D16*
X119888000Y-104648000D03*
D17*
X140716000Y-155448000D03*
X140716000Y-157988000D03*
X140716000Y-118368000D03*
D18*
X188976000Y-157988000D03*
X140716000Y-120908000D03*
X188976000Y-155448000D03*
X140716000Y-123448000D03*
X188976000Y-152908000D03*
X140716000Y-125988000D03*
X188976000Y-150368000D03*
D19*
X140716000Y-128528000D03*
D20*
G36*
X139466000Y-129128000D02*
G01*
X139466000Y-127928000D01*
X141966000Y-127928000D01*
X141966000Y-129128000D01*
X139466000Y-129128000D01*
X139466000Y-129128000D01*
G37*
D18*
X188976000Y-147828000D03*
X140716000Y-131068000D03*
X188976000Y-145288000D03*
X140716000Y-133608000D03*
X188976000Y-140208000D03*
X140716000Y-136148000D03*
D17*
X188976000Y-137668000D03*
D18*
X140716000Y-140208000D03*
X188976000Y-135128000D03*
X140716000Y-142748000D03*
X188976000Y-132588000D03*
X140716000Y-145288000D03*
D17*
X188976000Y-130048000D03*
D18*
X140716000Y-147828000D03*
D17*
X188976000Y-127508000D03*
D18*
X140716000Y-150368000D03*
D17*
X188976000Y-124968000D03*
D18*
X140716000Y-152908000D03*
D21*
X188976000Y-122428000D03*
D17*
X140716000Y-115828000D03*
X140716000Y-113288000D03*
D22*
X98552000Y-90196000D03*
X98552000Y-92696000D03*
X98552000Y-95196000D03*
X98552000Y-97696000D03*
X98552000Y-100196000D03*
X98552000Y-102696000D03*
X98552000Y-105196000D03*
D23*
X98552000Y-107696000D03*
X67564000Y-107696000D03*
D22*
X67564000Y-105196000D03*
X67564000Y-102696000D03*
X67564000Y-100196000D03*
X67564000Y-97696000D03*
X67564000Y-95196000D03*
X67564000Y-92696000D03*
X67564000Y-90196000D03*
X156156000Y-166624000D03*
X158656000Y-166624000D03*
X161156000Y-166624000D03*
X163656000Y-166624000D03*
X166156000Y-166624000D03*
D23*
X168656000Y-166624000D03*
D24*
X186032000Y-167640000D03*
D25*
X189992000Y-167640000D03*
D22*
X128484000Y-87884000D03*
D23*
X125984000Y-87884000D03*
D22*
X180260000Y-167132000D03*
X177760000Y-167132000D03*
D23*
X175260000Y-167132000D03*
D26*
X96520000Y-75692000D03*
D27*
X91440000Y-75692000D03*
X110236000Y-75692000D03*
D26*
X105156000Y-75692000D03*
D10*
X109728000Y-168148000D03*
X108458000Y-166878000D03*
X109728000Y-165608000D03*
X109728000Y-158496000D03*
X108458000Y-159766000D03*
X109728000Y-161036000D03*
X109728000Y-153924000D03*
D12*
X108458000Y-152654000D03*
D10*
X109728000Y-151384000D03*
X109728000Y-121412000D03*
X110998000Y-122682000D03*
X109728000Y-123952000D03*
X109728000Y-101092000D03*
X110998000Y-102362000D03*
X109728000Y-103632000D03*
D28*
X109728000Y-96520000D03*
D13*
X110998000Y-95250000D03*
D10*
X109728000Y-93980000D03*
D16*
X118872000Y-167640000D03*
D15*
X131572000Y-167640000D03*
X131572000Y-160528000D03*
D16*
X118872000Y-160528000D03*
X118872000Y-152908000D03*
D15*
X131572000Y-152908000D03*
X131572000Y-147320000D03*
D16*
X118872000Y-147320000D03*
D15*
X132588000Y-141732000D03*
D16*
X119888000Y-141732000D03*
X119888000Y-137160000D03*
D15*
X132588000Y-137160000D03*
X132588000Y-132080000D03*
D16*
X119888000Y-132080000D03*
X119888000Y-127508000D03*
D15*
X132588000Y-127508000D03*
X132588000Y-122936000D03*
D16*
X119888000Y-122936000D03*
D15*
X132588000Y-99060000D03*
D16*
X119888000Y-99060000D03*
D22*
X139860000Y-166624000D03*
X142360000Y-166624000D03*
X144860000Y-166624000D03*
X147360000Y-166624000D03*
D23*
X149860000Y-166624000D03*
D16*
X88900000Y-113792000D03*
D15*
X76200000Y-113792000D03*
X76200000Y-119380000D03*
D16*
X88900000Y-119380000D03*
D15*
X76200000Y-124968000D03*
D16*
X88900000Y-124968000D03*
X88900000Y-129540000D03*
D15*
X76200000Y-129540000D03*
X76200000Y-134112000D03*
D16*
X88900000Y-134112000D03*
X88900000Y-139192000D03*
D15*
X76200000Y-139192000D03*
X76200000Y-143764000D03*
D16*
X88900000Y-143764000D03*
D22*
X88392000Y-90196000D03*
X88392000Y-92696000D03*
X88392000Y-95196000D03*
X88392000Y-97696000D03*
X88392000Y-100196000D03*
X88392000Y-102696000D03*
X88392000Y-105196000D03*
D23*
X88392000Y-107696000D03*
X78232000Y-107696000D03*
D22*
X78232000Y-105196000D03*
X78232000Y-102696000D03*
X78232000Y-100196000D03*
X78232000Y-97696000D03*
X78232000Y-95196000D03*
X78232000Y-92696000D03*
X78232000Y-90196000D03*
D29*
X165281001Y-164998999D02*
X165281001Y-164918999D01*
X163656000Y-166624000D02*
X165281001Y-164998999D01*
X172212000Y-157988000D02*
X188976000Y-157988000D01*
X165281001Y-164918999D02*
X172212000Y-157988000D01*
X128484000Y-87884000D02*
X128484000Y-111720000D01*
X128524000Y-111760000D02*
X128524000Y-112776000D01*
X128484000Y-111720000D02*
X128524000Y-111760000D01*
X136656000Y-120908000D02*
X140716000Y-120908000D01*
X128524000Y-112776000D02*
X136656000Y-120908000D01*
X88900000Y-113792000D02*
X88900000Y-119380000D01*
X88900000Y-119380000D02*
X88900000Y-124968000D01*
X88900000Y-124968000D02*
X88900000Y-129540000D01*
X88900000Y-134112000D02*
X88900000Y-139192000D01*
X87700001Y-142564001D02*
X88900000Y-143764000D01*
X88900000Y-139192000D02*
X87700001Y-140391999D01*
X87700001Y-140391999D02*
X87700001Y-142564001D01*
X121920000Y-158496000D02*
X109728000Y-158496000D01*
X122428000Y-159004000D02*
X121920000Y-158496000D01*
X122428000Y-161036000D02*
X122428000Y-159004000D01*
X109728000Y-165608000D02*
X117856000Y-165608000D01*
X117856000Y-165608000D02*
X122428000Y-161036000D01*
X109728000Y-158496000D02*
X118364000Y-158496000D01*
X122428000Y-159004000D02*
X122428000Y-151384000D01*
X111328000Y-151384000D02*
X109728000Y-151384000D01*
X113128000Y-149584000D02*
X111328000Y-151384000D01*
X120628000Y-149584000D02*
X113128000Y-149584000D01*
X122428000Y-151384000D02*
X120628000Y-149584000D01*
X122428000Y-151384000D02*
X122428000Y-145796000D01*
X120904000Y-144272000D02*
X109220000Y-144272000D01*
X122428000Y-145796000D02*
X120904000Y-144272000D01*
X96520000Y-75692000D02*
X105156000Y-75692000D01*
X105156000Y-75692000D02*
X110236000Y-80772000D01*
X110236000Y-80772000D02*
X125984000Y-80772000D01*
X128484000Y-83272000D02*
X128484000Y-87884000D01*
X125984000Y-80772000D02*
X128484000Y-83272000D01*
X88900000Y-134112000D02*
X88900000Y-129540000D01*
X90099999Y-142564001D02*
X108020001Y-142564001D01*
X88900000Y-143764000D02*
X90099999Y-142564001D01*
X109220000Y-143764000D02*
X109220000Y-144272000D01*
X108020001Y-142564001D02*
X109220000Y-143764000D01*
X155231001Y-165699001D02*
X156156000Y-166624000D01*
X154530999Y-164998999D02*
X155231001Y-165699001D01*
X146485001Y-164998999D02*
X154530999Y-164998999D01*
X144860000Y-166624000D02*
X146485001Y-164998999D01*
X141943999Y-169540001D02*
X141943999Y-169968001D01*
X144860000Y-166624000D02*
X141943999Y-169540001D01*
X141943999Y-169968001D02*
X141224000Y-170688000D01*
X141224000Y-170688000D02*
X129032000Y-170688000D01*
X122428000Y-164084000D02*
X122428000Y-161036000D01*
X129032000Y-170688000D02*
X122428000Y-164084000D01*
X180768000Y-167640000D02*
X180260000Y-167132000D01*
X186032000Y-167640000D02*
X180768000Y-167640000D01*
X186032000Y-167965000D02*
X188247000Y-170180000D01*
X186032000Y-167640000D02*
X186032000Y-167965000D01*
X195440020Y-166126982D02*
X195440020Y-139560020D01*
X188247000Y-170180000D02*
X191387002Y-170180000D01*
X191387002Y-170180000D02*
X195440020Y-166126982D01*
X191008000Y-135128000D02*
X188976000Y-135128000D01*
X195440020Y-139560020D02*
X191008000Y-135128000D01*
X140716000Y-120908000D02*
X151896000Y-120908000D01*
X151896000Y-120908000D02*
X150368000Y-122436000D01*
X150368000Y-160836000D02*
X156156000Y-166624000D01*
X150368000Y-122436000D02*
X150368000Y-160836000D01*
X172332000Y-155448000D02*
X188976000Y-155448000D01*
X161156000Y-166624000D02*
X172332000Y-155448000D01*
X137164000Y-123448000D02*
X140716000Y-123448000D01*
X127000000Y-113284000D02*
X137164000Y-123448000D01*
X127000000Y-90825000D02*
X127000000Y-113284000D01*
X125984000Y-87884000D02*
X125984000Y-89809000D01*
X125984000Y-89809000D02*
X127000000Y-90825000D01*
X181864000Y-152908000D02*
X188976000Y-152908000D01*
X179832000Y-150876000D02*
X181864000Y-152908000D01*
X130192010Y-99060000D02*
X129684010Y-99568000D01*
X132588000Y-99060000D02*
X130192010Y-99060000D01*
X179832000Y-143256000D02*
X179832000Y-150876000D01*
X129684010Y-99568000D02*
X129684010Y-108204000D01*
X129684010Y-108204000D02*
X130700010Y-107188000D01*
X130700010Y-107188000D02*
X143764000Y-107188000D01*
X143764000Y-107188000D02*
X179832000Y-143256000D01*
X144456010Y-164527990D02*
X144456010Y-126168010D01*
X142360000Y-166624000D02*
X144456010Y-164527990D01*
X144276000Y-125988000D02*
X140716000Y-125988000D01*
X144456010Y-126168010D02*
X144276000Y-125988000D01*
X181356000Y-150368000D02*
X188976000Y-150368000D01*
X181032010Y-150044010D02*
X181356000Y-150368000D01*
X181032010Y-142758940D02*
X181032010Y-150044010D01*
X143764000Y-105490930D02*
X181032010Y-142758940D01*
X132588000Y-104648000D02*
X143764000Y-104648000D01*
X143764000Y-104648000D02*
X143764000Y-105490930D01*
X143252000Y-128528000D02*
X140716000Y-128528000D01*
X143256000Y-128524000D02*
X143252000Y-128528000D01*
X139860000Y-166624000D02*
X143256000Y-163228000D01*
X143256000Y-163228000D02*
X143256000Y-128524000D01*
X191516000Y-147828000D02*
X188976000Y-147828000D01*
X177760000Y-165648000D02*
X181289999Y-162118001D01*
X177760000Y-167132000D02*
X177760000Y-165648000D01*
X181289999Y-162118001D02*
X190433999Y-162118001D01*
X190433999Y-162118001D02*
X193040000Y-159512000D01*
X193040000Y-159512000D02*
X193040000Y-149352000D01*
X193040000Y-149352000D02*
X191516000Y-147828000D01*
X139916001Y-130268001D02*
X138396001Y-130268001D01*
X140716000Y-131068000D02*
X139916001Y-130268001D01*
X138396001Y-128744001D02*
X132588000Y-122936000D01*
X138396001Y-130268001D02*
X138396001Y-128744001D01*
X194240010Y-160009060D02*
X194240010Y-148012010D01*
X189992000Y-167640000D02*
X189992000Y-164257070D01*
X189992000Y-164257070D02*
X194240010Y-160009060D01*
X191516000Y-145288000D02*
X188976000Y-145288000D01*
X194240010Y-148012010D02*
X191516000Y-145288000D01*
X140716000Y-133608000D02*
X136656000Y-133608000D01*
X136656000Y-131576000D02*
X132588000Y-127508000D01*
X136656000Y-133608000D02*
X136656000Y-131576000D01*
X112736000Y-75692000D02*
X115276000Y-78232000D01*
X110236000Y-75692000D02*
X112736000Y-75692000D01*
X115276000Y-78232000D02*
X127000000Y-78232000D01*
X127000000Y-78232000D02*
X145288000Y-96520000D01*
X145288000Y-96520000D02*
X145288000Y-103632000D01*
X165100000Y-123444000D02*
X165100000Y-123952000D01*
X145288000Y-103632000D02*
X165100000Y-123444000D01*
X181356000Y-140208000D02*
X188976000Y-140208000D01*
X165100000Y-123952000D02*
X181356000Y-140208000D01*
X136656000Y-136148000D02*
X132588000Y-132080000D01*
X140716000Y-136148000D02*
X136656000Y-136148000D01*
X135636000Y-140208000D02*
X132588000Y-137160000D01*
X140716000Y-140208000D02*
X135636000Y-140208000D01*
X133604000Y-142748000D02*
X132588000Y-141732000D01*
X140716000Y-142748000D02*
X133604000Y-142748000D01*
X147360000Y-166624000D02*
X149860000Y-166624000D01*
X158656000Y-167932147D02*
X157424147Y-169164000D01*
X158656000Y-166624000D02*
X158656000Y-167932147D01*
X151785000Y-166624000D02*
X149860000Y-166624000D01*
X154325000Y-169164000D02*
X151785000Y-166624000D01*
X157424147Y-169164000D02*
X154325000Y-169164000D01*
X175260000Y-169057000D02*
X175153000Y-169164000D01*
X175260000Y-167132000D02*
X175260000Y-169057000D01*
X161196000Y-169164000D02*
X158656000Y-166624000D01*
X175153000Y-169164000D02*
X161196000Y-169164000D01*
X175260000Y-169057000D02*
X177907000Y-171704000D01*
X196640030Y-166624042D02*
X196640030Y-138220030D01*
X177907000Y-171704000D02*
X191560072Y-171704000D01*
X191560072Y-171704000D02*
X196640030Y-166624042D01*
X196640030Y-138220030D02*
X191008000Y-132588000D01*
X191008000Y-132588000D02*
X188976000Y-132588000D01*
X133604000Y-145288000D02*
X131572000Y-147320000D01*
X140716000Y-145288000D02*
X133604000Y-145288000D01*
X140716000Y-147828000D02*
X136652000Y-147828000D01*
X136652000Y-147828000D02*
X131572000Y-152908000D01*
X140716000Y-150368000D02*
X139192000Y-150368000D01*
X131572000Y-157988000D02*
X131572000Y-160528000D01*
X139192000Y-150368000D02*
X131572000Y-157988000D01*
X140716000Y-152908000D02*
X139584630Y-152908000D01*
X139584630Y-152908000D02*
X139584630Y-154039370D01*
X132771999Y-166440001D02*
X131572000Y-167640000D01*
X134112000Y-165100000D02*
X132771999Y-166440001D01*
X134112000Y-159512000D02*
X134112000Y-165100000D01*
X139584630Y-154039370D02*
X134112000Y-159512000D01*
X92010787Y-167477999D02*
X54171990Y-129639202D01*
X108458000Y-166878000D02*
X107858001Y-167477999D01*
X107858001Y-167477999D02*
X92010787Y-167477999D01*
X97627001Y-89271001D02*
X98552000Y-90196000D01*
X94526979Y-86170979D02*
X97627001Y-89271001D01*
X65789879Y-86170979D02*
X94526979Y-86170979D01*
X54171991Y-97788867D02*
X65789879Y-86170979D01*
X54171990Y-129639202D02*
X54171991Y-97788867D01*
X98552000Y-92696000D02*
X88392000Y-92696000D01*
X101840000Y-89408000D02*
X98552000Y-92696000D01*
X109728000Y-89408000D02*
X101840000Y-89408000D01*
X66255853Y-92696000D02*
X67564000Y-92696000D01*
X59531952Y-99419901D02*
X66255853Y-92696000D01*
X59531952Y-127095952D02*
X59531952Y-99419901D01*
X76200000Y-143764000D02*
X59531952Y-127095952D01*
X88392000Y-92696000D02*
X78232000Y-92696000D01*
X76923853Y-92696000D02*
X67564000Y-92696000D01*
X78232000Y-92696000D02*
X76923853Y-92696000D01*
X98552000Y-95196000D02*
X88392000Y-95196000D01*
X99876000Y-96520000D02*
X98552000Y-95196000D01*
X109728000Y-96520000D02*
X99876000Y-96520000D01*
X66255853Y-95196000D02*
X67564000Y-95196000D01*
X60731962Y-100719891D02*
X66255853Y-95196000D01*
X76200000Y-139192000D02*
X60731962Y-123723962D01*
X60731962Y-123723962D02*
X60731962Y-100719891D01*
X88392000Y-95196000D02*
X78232000Y-95196000D01*
X67564000Y-95196000D02*
X78232000Y-95196000D01*
X88392000Y-97696000D02*
X98552000Y-97696000D01*
X99354930Y-97696000D02*
X98552000Y-97696000D01*
X99378940Y-97720010D02*
X99354930Y-97696000D01*
X103816010Y-97720010D02*
X99378940Y-97720010D01*
X106680000Y-100584000D02*
X103816010Y-97720010D01*
X109728000Y-103632000D02*
X106680000Y-103632000D01*
X106680000Y-103632000D02*
X106680000Y-100584000D01*
X66255853Y-97696000D02*
X67564000Y-97696000D01*
X61931971Y-102019882D02*
X66255853Y-97696000D01*
X61931971Y-119843971D02*
X61931971Y-102019882D01*
X76200000Y-134112000D02*
X61931971Y-119843971D01*
X67564000Y-97696000D02*
X78232000Y-97696000D01*
X88392000Y-97696000D02*
X78232000Y-97696000D01*
X88392000Y-100196000D02*
X98552000Y-100196000D01*
X109728000Y-109728000D02*
X105664000Y-109728000D01*
X105664000Y-109728000D02*
X104140000Y-108204000D01*
X104140000Y-108204000D02*
X104140000Y-101600000D01*
X102736000Y-100196000D02*
X98552000Y-100196000D01*
X104140000Y-101600000D02*
X102736000Y-100196000D01*
X66255853Y-100196000D02*
X67564000Y-100196000D01*
X63131980Y-103319873D02*
X66255853Y-100196000D01*
X63131980Y-116471980D02*
X63131980Y-103319873D01*
X76200000Y-129540000D02*
X63131980Y-116471980D01*
X78232000Y-100196000D02*
X88392000Y-100196000D01*
X67564000Y-100196000D02*
X78232000Y-100196000D01*
X88392000Y-102696000D02*
X98552000Y-102696000D01*
X66255853Y-102696000D02*
X67564000Y-102696000D01*
X64331990Y-104619863D02*
X66255853Y-102696000D01*
X64331990Y-113099990D02*
X64331990Y-104619863D01*
X76200000Y-124968000D02*
X64331990Y-113099990D01*
X78137002Y-102696000D02*
X78232000Y-102696000D01*
X67564000Y-102696000D02*
X78137002Y-102696000D01*
X88392000Y-102696000D02*
X78232000Y-102696000D01*
X101680000Y-102696000D02*
X98552000Y-102696000D01*
X102939990Y-103955990D02*
X101680000Y-102696000D01*
X102939990Y-116655990D02*
X102939990Y-103955990D01*
X109728000Y-116840000D02*
X103124000Y-116840000D01*
X103124000Y-116840000D02*
X102939990Y-116655990D01*
X98552000Y-105196000D02*
X87336000Y-105196000D01*
X76200000Y-119380000D02*
X76200000Y-117348000D01*
X76200000Y-117348000D02*
X71628000Y-112776000D01*
X71628000Y-112776000D02*
X71628000Y-111252000D01*
X71628000Y-111252000D02*
X65532000Y-111252000D01*
X66255853Y-105196000D02*
X67564000Y-105196000D01*
X65532000Y-105919853D02*
X66255853Y-105196000D01*
X65532000Y-111252000D02*
X65532000Y-105919853D01*
X88392000Y-105196000D02*
X78232000Y-105196000D01*
X67564000Y-105196000D02*
X78232000Y-105196000D01*
X109728000Y-123952000D02*
X105156000Y-123952000D01*
X105156000Y-123952000D02*
X101092000Y-119888000D01*
X101092000Y-119888000D02*
X101092000Y-105156000D01*
X101052000Y-105196000D02*
X98552000Y-105196000D01*
X101092000Y-105156000D02*
X101052000Y-105196000D01*
X98552000Y-107696000D02*
X88392000Y-107696000D01*
X76200000Y-113792000D02*
X76200000Y-109728000D01*
X67564000Y-107696000D02*
X78232000Y-107696000D01*
X78232000Y-107696000D02*
X88392000Y-107696000D01*
X76200000Y-109728000D02*
X78232000Y-107696000D01*
X98552000Y-109621000D02*
X98552000Y-107696000D01*
X98552000Y-129032000D02*
X98552000Y-109621000D01*
X109728000Y-130810000D02*
X100330000Y-130810000D01*
X100330000Y-130810000D02*
X98552000Y-129032000D01*
X85995858Y-159766000D02*
X55372000Y-129142142D01*
X108458000Y-159766000D02*
X85995858Y-159766000D01*
X87467001Y-89271001D02*
X88392000Y-90196000D01*
X85566989Y-87370989D02*
X87467001Y-89271001D01*
X66286939Y-87370989D02*
X85566989Y-87370989D01*
X55372000Y-98285928D02*
X66286939Y-87370989D01*
X55372000Y-129142142D02*
X55372000Y-98285928D01*
X80580928Y-152654000D02*
X57131932Y-129205004D01*
X108458000Y-152654000D02*
X80580928Y-152654000D01*
X77307001Y-89271001D02*
X78232000Y-90196000D01*
X76606999Y-88570999D02*
X77307001Y-89271001D01*
X66783999Y-88570999D02*
X76606999Y-88570999D01*
X57131932Y-98223066D02*
X66783999Y-88570999D01*
X57131932Y-129205004D02*
X57131932Y-98223066D01*
X58331942Y-128707944D02*
X75287999Y-145664001D01*
X58331942Y-98922841D02*
X58331942Y-128707944D01*
X67564000Y-90196000D02*
X67058783Y-90196000D01*
X67058783Y-90196000D02*
X58331942Y-98922841D01*
X94478002Y-145542000D02*
X107950000Y-145542000D01*
X94356001Y-145664001D02*
X94478002Y-145542000D01*
X94356001Y-145664001D02*
X95127999Y-145664001D01*
X75287999Y-145664001D02*
X94356001Y-145664001D01*
D30*
X110149472Y-88138000D02*
X110998000Y-88138000D01*
X110149472Y-95250000D02*
X110998000Y-95250000D01*
D31*
X110878010Y-88257990D02*
X110998000Y-88138000D01*
X101605990Y-88257990D02*
X110878010Y-88257990D01*
X91440000Y-75692000D02*
X91440000Y-78092000D01*
X91440000Y-78092000D02*
X101605990Y-88257990D01*
X113148000Y-88138000D02*
X113284000Y-88274000D01*
X110998000Y-88138000D02*
X113148000Y-88138000D01*
X113284000Y-88274000D02*
X113284000Y-90424000D01*
X113284000Y-90424000D02*
X111760000Y-91948000D01*
X111760000Y-91948000D02*
X105156000Y-91948000D01*
X105156000Y-93980000D02*
X106545990Y-95369990D01*
X105156000Y-91948000D02*
X105156000Y-93980000D01*
X106545990Y-95369990D02*
X110609990Y-95369990D01*
X111533991Y-96293991D02*
X111533991Y-98270009D01*
X110609990Y-95369990D02*
X111533991Y-96293991D01*
X111533991Y-98270009D02*
X110744000Y-99060000D01*
X109220000Y-99060000D02*
X107830010Y-100449990D01*
X110744000Y-99060000D02*
X109220000Y-99060000D01*
X109098000Y-102362000D02*
X110998000Y-102362000D01*
X107950000Y-102362000D02*
X109098000Y-102362000D01*
X107830010Y-102242010D02*
X107950000Y-102362000D01*
X107830010Y-100449990D02*
X107830010Y-102242010D01*
X112014000Y-102362000D02*
X112776000Y-103124000D01*
X110998000Y-102362000D02*
X112014000Y-102362000D01*
X107188000Y-105156000D02*
X105664000Y-106680000D01*
X106426000Y-108458000D02*
X110998000Y-108458000D01*
X105664000Y-106680000D02*
X105664000Y-107696000D01*
X105664000Y-107696000D02*
X106426000Y-108458000D01*
X105664000Y-114808000D02*
X106426000Y-115570000D01*
X110998000Y-108458000D02*
X110998000Y-108913062D01*
X110998000Y-108913062D02*
X111378010Y-109293072D01*
X111378010Y-109293072D02*
X111378010Y-112141990D01*
X111378010Y-112141990D02*
X106806010Y-112141990D01*
X106426000Y-115570000D02*
X110998000Y-115570000D01*
X106806010Y-112141990D02*
X105664000Y-113284000D01*
X105664000Y-113284000D02*
X105664000Y-114808000D01*
X111598000Y-115570000D02*
X113284000Y-117256000D01*
X110998000Y-115570000D02*
X111598000Y-115570000D01*
X113284000Y-117256000D02*
X113284000Y-117856000D01*
X113284000Y-117856000D02*
X112268000Y-118872000D01*
X112268000Y-118872000D02*
X105156000Y-118872000D01*
X109098000Y-122682000D02*
X110998000Y-122682000D01*
X105512358Y-122682000D02*
X109098000Y-122682000D01*
X105156000Y-122325642D02*
X105512358Y-122682000D01*
X105156000Y-118872000D02*
X105156000Y-122325642D01*
X110998000Y-122682000D02*
X112014000Y-122682000D01*
X112014000Y-122682000D02*
X112776000Y-123444000D01*
X112776000Y-123444000D02*
X112776000Y-124968000D01*
X112776000Y-124968000D02*
X112268000Y-125476000D01*
X112268000Y-125476000D02*
X107188000Y-125476000D01*
X107188000Y-125476000D02*
X104648000Y-128016000D01*
X109098000Y-129540000D02*
X110998000Y-129540000D01*
X105156000Y-129540000D02*
X109098000Y-129540000D01*
X104648000Y-129032000D02*
X105156000Y-129540000D01*
X104648000Y-128016000D02*
X104648000Y-129032000D01*
X112776000Y-103124000D02*
X112776000Y-103632000D01*
X112776000Y-103632000D02*
X111252000Y-105156000D01*
X111252000Y-105156000D02*
X107188000Y-105156000D01*
D29*
X110236000Y-167640000D02*
X109728000Y-168148000D01*
X118872000Y-167640000D02*
X110236000Y-167640000D01*
X110236000Y-160528000D02*
X109728000Y-161036000D01*
X118872000Y-160528000D02*
X110236000Y-160528000D01*
X118872000Y-152908000D02*
X114300000Y-152908000D01*
X113284000Y-153924000D02*
X109728000Y-153924000D01*
X114300000Y-152908000D02*
X113284000Y-153924000D01*
X109728000Y-147320000D02*
X109220000Y-146812000D01*
X118872000Y-147320000D02*
X109728000Y-147320000D01*
X116192019Y-138036019D02*
X119888000Y-141732000D01*
X116192019Y-136338949D02*
X116192019Y-138036019D01*
X112776000Y-132922930D02*
X116192019Y-136338949D01*
X112776000Y-127508000D02*
X112776000Y-132922930D01*
X109728000Y-128270000D02*
X110490000Y-127508000D01*
X110490000Y-127508000D02*
X112776000Y-127508000D01*
X117392028Y-136361084D02*
X117392028Y-135841888D01*
X119888000Y-137160000D02*
X118190944Y-137160000D01*
X118190944Y-137160000D02*
X117392028Y-136361084D01*
X113976010Y-132425870D02*
X113976010Y-122612010D01*
X117392028Y-135841888D02*
X113976010Y-132425870D01*
X110327999Y-120812001D02*
X109728000Y-121412000D01*
X112176001Y-120812001D02*
X110327999Y-120812001D01*
X113976010Y-122612010D02*
X112176001Y-120812001D01*
X117531999Y-133279999D02*
X115176020Y-130924020D01*
X119888000Y-132080000D02*
X118688001Y-133279999D01*
X118688001Y-133279999D02*
X117531999Y-133279999D01*
X115176020Y-130924020D02*
X115176020Y-116700020D01*
X110327999Y-113700001D02*
X109728000Y-114300000D01*
X112176001Y-113700001D02*
X110327999Y-113700001D01*
X115176020Y-116700020D02*
X112176001Y-113700001D01*
X116515999Y-128707999D02*
X116376030Y-128568030D01*
X119888000Y-127508000D02*
X118688001Y-128707999D01*
X118688001Y-128707999D02*
X116515999Y-128707999D01*
X116515999Y-116342929D02*
X112673062Y-112499992D01*
X116515999Y-128707999D02*
X116515999Y-116342929D01*
X112673062Y-112499992D02*
X112673062Y-107085062D01*
X112673062Y-107085062D02*
X112776000Y-106982124D01*
X110327999Y-106588001D02*
X109728000Y-107188000D01*
X112381877Y-106588001D02*
X110327999Y-106588001D01*
X112776000Y-106982124D02*
X112381877Y-106588001D01*
X117716009Y-120764009D02*
X117716009Y-115845869D01*
X119888000Y-122936000D02*
X117716009Y-120764009D01*
X117716009Y-115845869D02*
X113873072Y-112002932D01*
X113976009Y-111899995D02*
X113976009Y-101276009D01*
X113873072Y-112002932D02*
X113976009Y-111899995D01*
X110327999Y-100492001D02*
X109728000Y-101092000D01*
X113192001Y-100492001D02*
X110327999Y-100492001D01*
X113976009Y-101276009D02*
X113192001Y-100492001D01*
X110327999Y-93380001D02*
X112684001Y-93380001D01*
X109728000Y-93980000D02*
X110327999Y-93380001D01*
X112684001Y-97444001D02*
X119888000Y-104648000D01*
X112684001Y-93380001D02*
X112684001Y-97444001D01*
X110327999Y-86268001D02*
X116748001Y-86268001D01*
X109728000Y-86868000D02*
X110327999Y-86268001D01*
X116748001Y-95920001D02*
X119888000Y-99060000D01*
X116748001Y-86268001D02*
X116748001Y-95920001D01*
M02*
