  0
SECTION
  2
HEADER
  9
$ANGBASE
  50
0.0
  9
$ANGDIR
  70
  1
  9
$MEASUREMENT
  70
0
  0
ENDSEC
  0
SECTION
  2
TABLES
  0
TABLE
  2
LTYPE
  70
4
  0
LTYPE
  5
40F
  2
CONTINUOUS
  70
0
  3
Solid line
  72
65
  73
0
  40
0.0
  0
LTYPE
  5
410
  2
DASHDOT
 70
0
  3
Dash Dot ____ _ ____ _
 72
65
 73
4
 40
2.0
 49
1.25
 49
-0.25
 49
0.25
 49
-0.25
  0
LTYPE
  5
411
  2
DASHED
 70
0
  3
Dashed __ __ __ __ __
 72
65
 73
2
 40
0.75
 49
0.5
 49
-0.25
  0
LTYPE
  5
43B
  2
DOTTED
 70
0
  3
Dotted .  .  .  .
 72
65
 73
2
 40
0.2
 49
0.0
 49
-0.2
  0
ENDTAB
  0
TABLE
  2
STYLE
  70
4
  0
STYLE
  2
KICAD
  70
0
  40
0
  41
1
  42
1
  50
0
  71
0
  3
isocp.shx
  0
STYLE
  2
KICADB
  70
0
  40
0
  41
1
  42
1
  50
0
  71
0
  3
isocp.shx
  0
STYLE
  2
KICADI
  70
0
  40
0
  41
1
  42
1
  50
15
  71
0
  3
isocp.shx
  0
STYLE
  2
KICADBI
  70
0
  40
0
  41
1
  42
1
  50
15
  71
0
  3
isocp.shx
  0
ENDTAB
  0
TABLE
  2
LAYER
  70
30
  0
LAYER
  2
BLACK
  70
0
  62
7
  6
CONTINUOUS
  0
LAYER
  2
GRAY1
  70
0
  62
251
  6
CONTINUOUS
  0
LAYER
  2
GRAY2
  70
0
  62
8
  6
CONTINUOUS
  0
LAYER
  2
GRAY3
  70
0
  62
9
  6
CONTINUOUS
  0
LAYER
  2
WHITE
  70
0
  62
7
  6
CONTINUOUS
  0
LAYER
  2
LYELLOW
  70
0
  62
51
  6
CONTINUOUS
  0
LAYER
  2
BLUE1
  70
0
  62
178
  6
CONTINUOUS
  0
LAYER
  2
GREEN1
  70
0
  62
98
  6
CONTINUOUS
  0
LAYER
  2
CYAN1
  70
0
  62
138
  6
CONTINUOUS
  0
LAYER
  2
RED1
  70
0
  62
18
  6
CONTINUOUS
  0
LAYER
  2
MAGENTA1
  70
0
  62
228
  6
CONTINUOUS
  0
LAYER
  2
BROWN1
  70
0
  62
58
  6
CONTINUOUS
  0
LAYER
  2
BLUE2
  70
0
  62
5
  6
CONTINUOUS
  0
LAYER
  2
GREEN2
  70
0
  62
3
  6
CONTINUOUS
  0
LAYER
  2
CYAN2
  70
0
  62
4
  6
CONTINUOUS
  0
LAYER
  2
RED2
  70
0
  62
1
  6
CONTINUOUS
  0
LAYER
  2
MAGENTA2
  70
0
  62
6
  6
CONTINUOUS
  0
LAYER
  2
BROWN2
  70
0
  62
54
  6
CONTINUOUS
  0
LAYER
  2
BLUE3
  70
0
  62
171
  6
CONTINUOUS
  0
LAYER
  2
GREEN3
  70
0
  62
91
  6
CONTINUOUS
  0
LAYER
  2
CYAN3
  70
0
  62
131
  6
CONTINUOUS
  0
LAYER
  2
RED3
  70
0
  62
11
  6
CONTINUOUS
  0
LAYER
  2
MAGENTA3
  70
0
  62
221
  6
CONTINUOUS
  0
LAYER
  2
YELLOW3
  70
0
  62
2
  6
CONTINUOUS
  0
LAYER
  2
BLUE4
  70
0
  62
5
  6
CONTINUOUS
  0
LAYER
  2
GREEN4
  70
0
  62
3
  6
CONTINUOUS
  0
LAYER
  2
CYAN4
  70
0
  62
4
  6
CONTINUOUS
  0
LAYER
  2
RED4
  70
0
  62
1
  6
CONTINUOUS
  0
LAYER
  2
MAGENTA4
  70
0
  62
6
  6
CONTINUOUS
  0
LAYER
  2
YELLOW4
  70
0
  62
2
  6
CONTINUOUS
  0
ENDTAB
  0
ENDSEC
  0
SECTION
  2
ENTITIES
0
LINE
8
BLACK
6
CONTINUOUS
10
214.177
20
-126.188
11
213.778
21
-129.828
0
LINE
8
BLACK
6
CONTINUOUS
10
213.778
20
-129.828
11
213.221
21
-133.448
0
LINE
8
BLACK
6
CONTINUOUS
10
213.221
20
-133.448
11
212.507
21
-137.04
0
LINE
8
BLACK
6
CONTINUOUS
10
212.507
20
-137.04
11
211.636
21
-140.597
0
LINE
8
BLACK
6
CONTINUOUS
10
211.636
20
-140.597
11
210.611
21
-144.113
0
LINE
8
BLACK
6
CONTINUOUS
10
210.611
20
-144.113
11
209.434
21
-147.581
0
LINE
8
BLACK
6
CONTINUOUS
10
209.434
20
-147.581
11
208.107
21
-150.995
0
LINE
8
BLACK
6
CONTINUOUS
10
208.107
20
-150.995
11
206.632
21
-154.347
0
LINE
8
BLACK
6
CONTINUOUS
10
206.632
20
-154.347
11
205.012
21
-157.631
0
LINE
8
BLACK
6
CONTINUOUS
10
205.012
20
-157.631
11
203.251
21
-160.842
0
LINE
8
BLACK
6
CONTINUOUS
10
203.251
20
-160.842
11
201.351
21
-163.973
0
LINE
8
BLACK
6
CONTINUOUS
10
201.351
20
-163.973
11
199.316
21
-167.018
0
LINE
8
BLACK
6
CONTINUOUS
10
199.316
20
-167.018
11
197.15
21
-169.972
0
LINE
8
BLACK
6
CONTINUOUS
10
197.15
20
-169.972
11
194.858
21
-172.828
0
LINE
8
BLACK
6
CONTINUOUS
10
194.858
20
-172.828
11
192.443
21
-175.581
0
LINE
8
BLACK
6
CONTINUOUS
10
192.443
20
-175.581
11
189.911
21
-178.227
0
LINE
8
BLACK
6
CONTINUOUS
10
189.911
20
-178.227
11
187.265
21
-180.759
0
LINE
8
BLACK
6
CONTINUOUS
10
187.265
20
-180.759
11
184.512
21
-183.174
0
LINE
8
BLACK
6
CONTINUOUS
10
184.512
20
-183.174
11
181.656
21
-185.466
0
LINE
8
BLACK
6
CONTINUOUS
10
181.656
20
-185.466
11
178.702
21
-187.632
0
LINE
8
BLACK
6
CONTINUOUS
10
178.702
20
-187.632
11
175.657
21
-189.667
0
LINE
8
BLACK
6
CONTINUOUS
10
175.657
20
-189.667
11
172.526
21
-191.567
0
LINE
8
BLACK
6
CONTINUOUS
10
172.526
20
-191.567
11
169.315
21
-193.328
0
LINE
8
BLACK
6
CONTINUOUS
10
169.315
20
-193.328
11
166.031
21
-194.948
0
LINE
8
BLACK
6
CONTINUOUS
10
166.031
20
-194.948
11
162.679
21
-196.423
0
LINE
8
BLACK
6
CONTINUOUS
10
162.679
20
-196.423
11
159.265
21
-197.75
0
LINE
8
BLACK
6
CONTINUOUS
10
159.265
20
-197.75
11
155.797
21
-198.927
0
LINE
8
BLACK
6
CONTINUOUS
10
155.797
20
-198.927
11
152.281
21
-199.952
0
LINE
8
BLACK
6
CONTINUOUS
10
152.281
20
-199.952
11
148.724
21
-200.823
0
LINE
8
BLACK
6
CONTINUOUS
10
148.724
20
-200.823
11
145.132
21
-201.537
0
LINE
8
BLACK
6
CONTINUOUS
10
145.132
20
-201.537
11
141.512
21
-202.094
0
LINE
8
BLACK
6
CONTINUOUS
10
141.512
20
-202.094
11
137.872
21
-202.493
0
LINE
8
BLACK
6
CONTINUOUS
10
137.872
20
-202.493
11
134.217
21
-202.733
0
LINE
8
BLACK
6
CONTINUOUS
10
134.217
20
-202.733
11
130.556
21
-202.812
0
LINE
8
BLACK
6
CONTINUOUS
10
130.556
20
-202.812
11
126.895
21
-202.733
0
LINE
8
BLACK
6
CONTINUOUS
10
126.895
20
-202.733
11
123.24
21
-202.493
0
LINE
8
BLACK
6
CONTINUOUS
10
123.24
20
-202.493
11
119.6
21
-202.094
0
LINE
8
BLACK
6
CONTINUOUS
10
119.6
20
-202.094
11
115.98
21
-201.537
0
LINE
8
BLACK
6
CONTINUOUS
10
115.98
20
-201.537
11
112.388
21
-200.823
0
LINE
8
BLACK
6
CONTINUOUS
10
112.388
20
-200.823
11
108.831
21
-199.952
0
LINE
8
BLACK
6
CONTINUOUS
10
108.831
20
-199.952
11
105.315
21
-198.927
0
LINE
8
BLACK
6
CONTINUOUS
10
105.315
20
-198.927
11
101.847
21
-197.75
0
LINE
8
BLACK
6
CONTINUOUS
10
101.847
20
-197.75
11
98.4334
21
-196.423
0
LINE
8
BLACK
6
CONTINUOUS
10
98.4334
20
-196.423
11
95.0813
21
-194.948
0
LINE
8
BLACK
6
CONTINUOUS
10
95.0813
20
-194.948
11
91.7966
21
-193.328
0
LINE
8
BLACK
6
CONTINUOUS
10
91.7966
20
-193.328
11
88.5858
21
-191.567
0
LINE
8
BLACK
6
CONTINUOUS
10
88.5858
20
-191.567
11
85.4549
21
-189.667
0
LINE
8
BLACK
6
CONTINUOUS
10
85.4549
20
-189.667
11
82.4098
21
-187.632
0
LINE
8
BLACK
6
CONTINUOUS
10
82.4098
20
-187.632
11
79.4563
21
-185.466
0
LINE
8
BLACK
6
CONTINUOUS
10
79.4563
20
-185.466
11
76.6002
21
-183.174
0
LINE
8
BLACK
6
CONTINUOUS
10
76.6002
20
-183.174
11
73.8467
21
-180.759
0
LINE
8
BLACK
6
CONTINUOUS
10
73.8467
20
-180.759
11
71.2012
21
-178.227
0
LINE
8
BLACK
6
CONTINUOUS
10
71.2012
20
-178.227
11
68.6686
21
-175.581
0
LINE
8
BLACK
6
CONTINUOUS
10
68.6686
20
-175.581
11
66.2539
21
-172.828
0
LINE
8
BLACK
6
CONTINUOUS
10
66.2539
20
-172.828
11
63.9616
21
-169.972
0
LINE
8
BLACK
6
CONTINUOUS
10
63.9616
20
-169.972
11
61.7961
21
-167.018
0
LINE
8
BLACK
6
CONTINUOUS
10
61.7961
20
-167.018
11
59.7614
21
-163.973
0
LINE
8
BLACK
6
CONTINUOUS
10
59.7614
20
-163.973
11
57.8615
21
-160.842
0
LINE
8
BLACK
6
CONTINUOUS
10
57.8615
20
-160.842
11
56.1
21
-157.631
0
LINE
8
BLACK
6
CONTINUOUS
10
56.1
20
-157.631
11
54.4802
21
-154.347
0
LINE
8
BLACK
6
CONTINUOUS
10
54.4802
20
-154.347
11
53.0052
21
-150.995
0
LINE
8
BLACK
6
CONTINUOUS
10
53.0052
20
-150.995
11
51.6778
21
-147.581
0
LINE
8
BLACK
6
CONTINUOUS
10
51.6778
20
-147.581
11
50.5006
21
-144.113
0
LINE
8
BLACK
6
CONTINUOUS
10
50.5006
20
-144.113
11
49.4758
21
-140.597
0
LINE
8
BLACK
6
CONTINUOUS
10
49.4758
20
-140.597
11
48.6053
21
-137.04
0
LINE
8
BLACK
6
CONTINUOUS
10
48.6053
20
-137.04
11
47.8908
21
-133.448
0
LINE
8
BLACK
6
CONTINUOUS
10
47.8908
20
-133.448
11
47.3337
21
-129.828
0
LINE
8
BLACK
6
CONTINUOUS
10
47.3337
20
-129.828
11
46.935
21
-126.188
0
LINE
8
BLACK
6
CONTINUOUS
10
46.935
20
-126.188
11
46.6955
21
-122.533
0
LINE
8
BLACK
6
CONTINUOUS
10
46.6955
20
-122.533
11
46.6156
21
-118.872
0
LINE
8
BLACK
6
CONTINUOUS
10
46.6156
20
-118.872
11
46.6955
21
-115.211
0
LINE
8
BLACK
6
CONTINUOUS
10
46.6955
20
-115.211
11
46.935
21
-111.556
0
LINE
8
BLACK
6
CONTINUOUS
10
46.935
20
-111.556
11
47.3337
21
-107.916
0
LINE
8
BLACK
6
CONTINUOUS
10
47.3337
20
-107.916
11
47.8908
21
-104.296
0
LINE
8
BLACK
6
CONTINUOUS
10
47.8908
20
-104.296
11
48.6053
21
-100.704
0
LINE
8
BLACK
6
CONTINUOUS
10
48.6053
20
-100.704
11
49.4758
21
-97.1466
0
LINE
8
BLACK
6
CONTINUOUS
10
49.4758
20
-97.1466
11
50.5006
21
-93.6306
0
LINE
8
BLACK
6
CONTINUOUS
10
50.5006
20
-93.6306
11
51.6778
21
-90.1627
0
LINE
8
BLACK
6
CONTINUOUS
10
51.6778
20
-90.1627
11
53.0052
21
-86.7494
0
LINE
8
BLACK
6
CONTINUOUS
10
53.0052
20
-86.7494
11
54.4802
21
-83.3973
0
LINE
8
BLACK
6
CONTINUOUS
10
54.4802
20
-83.3973
11
56.1
21
-80.1126
0
LINE
8
BLACK
6
CONTINUOUS
10
56.1
20
-80.1126
11
57.8615
21
-76.9018
0
LINE
8
BLACK
6
CONTINUOUS
10
57.8615
20
-76.9018
11
59.7614
21
-73.7709
0
LINE
8
BLACK
6
CONTINUOUS
10
59.7614
20
-73.7709
11
61.7961
21
-70.7258
0
LINE
8
BLACK
6
CONTINUOUS
10
61.7961
20
-70.7258
11
63.9616
21
-67.7723
0
LINE
8
BLACK
6
CONTINUOUS
10
63.9616
20
-67.7723
11
66.2539
21
-64.9162
0
LINE
8
BLACK
6
CONTINUOUS
10
66.2539
20
-64.9162
11
68.6686
21
-62.1627
0
LINE
8
BLACK
6
CONTINUOUS
10
68.6686
20
-62.1627
11
71.2012
21
-59.5172
0
LINE
8
BLACK
6
CONTINUOUS
10
71.2012
20
-59.5172
11
73.8467
21
-56.9846
0
LINE
8
BLACK
6
CONTINUOUS
10
73.8467
20
-56.9846
11
76.6002
21
-54.5699
0
LINE
8
BLACK
6
CONTINUOUS
10
76.6002
20
-54.5699
11
79.4563
21
-52.2776
0
LINE
8
BLACK
6
CONTINUOUS
10
79.4563
20
-52.2776
11
82.4098
21
-50.1121
0
LINE
8
BLACK
6
CONTINUOUS
10
82.4098
20
-50.1121
11
85.4549
21
-48.0774
0
LINE
8
BLACK
6
CONTINUOUS
10
85.4549
20
-48.0774
11
88.5858
21
-46.1775
0
LINE
8
BLACK
6
CONTINUOUS
10
88.5858
20
-46.1775
11
91.7966
21
-44.416
0
LINE
8
BLACK
6
CONTINUOUS
10
91.7966
20
-44.416
11
95.0813
21
-42.7962
0
LINE
8
BLACK
6
CONTINUOUS
10
95.0813
20
-42.7962
11
98.4334
21
-41.3212
0
LINE
8
BLACK
6
CONTINUOUS
10
98.4334
20
-41.3212
11
101.847
21
-39.9938
0
LINE
8
BLACK
6
CONTINUOUS
10
101.847
20
-39.9938
11
105.315
21
-38.8166
0
LINE
8
BLACK
6
CONTINUOUS
10
105.315
20
-38.8166
11
108.831
21
-37.7918
0
LINE
8
BLACK
6
CONTINUOUS
10
108.831
20
-37.7918
11
112.388
21
-36.9213
0
LINE
8
BLACK
6
CONTINUOUS
10
112.388
20
-36.9213
11
115.98
21
-36.2068
0
LINE
8
BLACK
6
CONTINUOUS
10
115.98
20
-36.2068
11
119.6
21
-35.6497
0
LINE
8
BLACK
6
CONTINUOUS
10
119.6
20
-35.6497
11
123.24
21
-35.251
0
LINE
8
BLACK
6
CONTINUOUS
10
123.24
20
-35.251
11
126.895
21
-35.0115
0
LINE
8
BLACK
6
CONTINUOUS
10
126.895
20
-35.0115
11
130.556
21
-34.9316
0
LINE
8
BLACK
6
CONTINUOUS
10
130.556
20
-34.9316
11
134.217
21
-35.0115
0
LINE
8
BLACK
6
CONTINUOUS
10
134.217
20
-35.0115
11
137.872
21
-35.251
0
LINE
8
BLACK
6
CONTINUOUS
10
137.872
20
-35.251
11
141.512
21
-35.6497
0
LINE
8
BLACK
6
CONTINUOUS
10
141.512
20
-35.6497
11
145.132
21
-36.2068
0
LINE
8
BLACK
6
CONTINUOUS
10
145.132
20
-36.2068
11
148.724
21
-36.9213
0
LINE
8
BLACK
6
CONTINUOUS
10
148.724
20
-36.9213
11
152.281
21
-37.7918
0
LINE
8
BLACK
6
CONTINUOUS
10
152.281
20
-37.7918
11
155.797
21
-38.8166
0
LINE
8
BLACK
6
CONTINUOUS
10
155.797
20
-38.8166
11
159.265
21
-39.9938
0
LINE
8
BLACK
6
CONTINUOUS
10
159.265
20
-39.9938
11
162.679
21
-41.3212
0
LINE
8
BLACK
6
CONTINUOUS
10
162.679
20
-41.3212
11
166.031
21
-42.7962
0
LINE
8
BLACK
6
CONTINUOUS
10
166.031
20
-42.7962
11
169.315
21
-44.416
0
LINE
8
BLACK
6
CONTINUOUS
10
169.315
20
-44.416
11
172.526
21
-46.1775
0
LINE
8
BLACK
6
CONTINUOUS
10
172.526
20
-46.1775
11
175.657
21
-48.0774
0
LINE
8
BLACK
6
CONTINUOUS
10
175.657
20
-48.0774
11
178.702
21
-50.1121
0
LINE
8
BLACK
6
CONTINUOUS
10
178.702
20
-50.1121
11
181.656
21
-52.2776
0
LINE
8
BLACK
6
CONTINUOUS
10
181.656
20
-52.2776
11
184.512
21
-54.5699
0
LINE
8
BLACK
6
CONTINUOUS
10
184.512
20
-54.5699
11
187.265
21
-56.9846
0
LINE
8
BLACK
6
CONTINUOUS
10
187.265
20
-56.9846
11
189.911
21
-59.5172
0
LINE
8
BLACK
6
CONTINUOUS
10
189.911
20
-59.5172
11
192.443
21
-62.1627
0
LINE
8
BLACK
6
CONTINUOUS
10
192.443
20
-62.1627
11
194.858
21
-64.9162
0
LINE
8
BLACK
6
CONTINUOUS
10
194.858
20
-64.9162
11
197.15
21
-67.7723
0
LINE
8
BLACK
6
CONTINUOUS
10
197.15
20
-67.7723
11
199.316
21
-70.7258
0
LINE
8
BLACK
6
CONTINUOUS
10
199.316
20
-70.7258
11
201.351
21
-73.7709
0
LINE
8
BLACK
6
CONTINUOUS
10
201.351
20
-73.7709
11
203.251
21
-76.9018
0
LINE
8
BLACK
6
CONTINUOUS
10
203.251
20
-76.9018
11
205.012
21
-80.1126
0
LINE
8
BLACK
6
CONTINUOUS
10
205.012
20
-80.1126
11
206.632
21
-83.3973
0
LINE
8
BLACK
6
CONTINUOUS
10
206.632
20
-83.3973
11
208.107
21
-86.7494
0
LINE
8
BLACK
6
CONTINUOUS
10
208.107
20
-86.7494
11
209.434
21
-90.1627
0
LINE
8
BLACK
6
CONTINUOUS
10
209.434
20
-90.1627
11
210.611
21
-93.6306
0
LINE
8
BLACK
6
CONTINUOUS
10
210.611
20
-93.6306
11
211.636
21
-97.1466
0
LINE
8
BLACK
6
CONTINUOUS
10
211.636
20
-97.1466
11
212.507
21
-100.704
0
LINE
8
BLACK
6
CONTINUOUS
10
212.507
20
-100.704
11
213.221
21
-104.296
0
LINE
8
BLACK
6
CONTINUOUS
10
213.221
20
-104.296
11
213.778
21
-107.916
0
LINE
8
BLACK
6
CONTINUOUS
10
213.778
20
-107.916
11
214.177
21
-111.556
0
LINE
8
BLACK
6
CONTINUOUS
10
214.177
20
-111.556
11
214.417
21
-115.211
0
LINE
8
BLACK
6
CONTINUOUS
10
214.417
20
-115.211
11
214.496
21
-118.872
0
LINE
8
BLACK
6
CONTINUOUS
10
214.496
20
-118.872
11
214.417
21
-122.533
0
LINE
8
BLACK
6
CONTINUOUS
10
214.417
20
-122.533
11
214.177
21
-126.188
0
LINE
8
BLACK
6
CONTINUOUS
10
214.107
20
-111.562
11
213.709
21
-107.925
0
LINE
8
BLACK
6
CONTINUOUS
10
213.709
20
-107.925
11
213.152
21
-104.308
0
LINE
8
BLACK
6
CONTINUOUS
10
213.152
20
-104.308
11
212.438
21
-100.719
0
LINE
8
BLACK
6
CONTINUOUS
10
212.438
20
-100.719
11
211.569
21
-97.1647
0
LINE
8
BLACK
6
CONTINUOUS
10
211.569
20
-97.1647
11
210.545
21
-93.6517
0
LINE
8
BLACK
6
CONTINUOUS
10
210.545
20
-93.6517
11
209.368
21
-90.1866
0
LINE
8
BLACK
6
CONTINUOUS
10
209.368
20
-90.1866
11
208.042
21
-86.7762
0
LINE
8
BLACK
6
CONTINUOUS
10
208.042
20
-86.7762
11
206.568
21
-83.4268
0
LINE
8
BLACK
6
CONTINUOUS
10
206.568
20
-83.4268
11
204.95
21
-80.145
0
LINE
8
BLACK
6
CONTINUOUS
10
204.95
20
-80.145
11
203.19
21
-76.9368
0
LINE
8
BLACK
6
CONTINUOUS
10
203.19
20
-76.9368
11
201.292
21
-73.8085
0
LINE
8
BLACK
6
CONTINUOUS
10
201.292
20
-73.8085
11
199.259
21
-70.7659
0
LINE
8
BLACK
6
CONTINUOUS
10
199.259
20
-70.7659
11
197.095
21
-67.8149
0
LINE
8
BLACK
6
CONTINUOUS
10
197.095
20
-67.8149
11
194.804
21
-64.9611
0
LINE
8
BLACK
6
CONTINUOUS
10
194.804
20
-64.9611
11
192.392
21
-62.21
0
LINE
8
BLACK
6
CONTINUOUS
10
192.392
20
-62.21
11
189.861
21
-59.5667
0
LINE
8
BLACK
6
CONTINUOUS
10
189.861
20
-59.5667
11
187.218
21
-57.0363
0
LINE
8
BLACK
6
CONTINUOUS
10
187.218
20
-57.0363
11
184.467
21
-54.6235
0
LINE
8
BLACK
6
CONTINUOUS
10
184.467
20
-54.6235
11
181.613
21
-52.3331
0
LINE
8
BLACK
6
CONTINUOUS
10
181.613
20
-52.3331
11
178.662
21
-50.1694
0
LINE
8
BLACK
6
CONTINUOUS
10
178.662
20
-50.1694
11
175.62
21
-48.1364
0
LINE
8
BLACK
6
CONTINUOUS
10
175.62
20
-48.1364
11
172.491
21
-46.2381
0
LINE
8
BLACK
6
CONTINUOUS
10
172.491
20
-46.2381
11
169.283
21
-44.478
0
LINE
8
BLACK
6
CONTINUOUS
10
169.283
20
-44.478
11
166.001
21
-42.8596
0
LINE
8
BLACK
6
CONTINUOUS
10
166.001
20
-42.8596
11
162.652
21
-41.3859
0
LINE
8
BLACK
6
CONTINUOUS
10
162.652
20
-41.3859
11
159.241
21
-40.0596
0
LINE
8
BLACK
6
CONTINUOUS
10
159.241
20
-40.0596
11
155.776
21
-38.8834
0
LINE
8
BLACK
6
CONTINUOUS
10
155.776
20
-38.8834
11
152.263
21
-37.8594
0
LINE
8
BLACK
6
CONTINUOUS
10
152.263
20
-37.8594
11
148.709
21
-36.9897
0
LINE
8
BLACK
6
CONTINUOUS
10
148.709
20
-36.9897
11
145.12
21
-36.2758
0
LINE
8
BLACK
6
CONTINUOUS
10
145.12
20
-36.2758
11
141.503
21
-35.7191
0
LINE
8
BLACK
6
CONTINUOUS
10
141.503
20
-35.7191
11
137.866
21
-35.3208
0
LINE
8
BLACK
6
CONTINUOUS
10
137.866
20
-35.3208
11
134.214
21
-35.0814
0
LINE
8
BLACK
6
CONTINUOUS
10
134.214
20
-35.0814
11
130.556
21
-35.0016
0
LINE
8
BLACK
6
CONTINUOUS
10
130.556
20
-35.0016
11
126.898
21
-35.0814
0
LINE
8
BLACK
6
CONTINUOUS
10
126.898
20
-35.0814
11
123.246
21
-35.3208
0
LINE
8
BLACK
6
CONTINUOUS
10
123.246
20
-35.3208
11
119.609
21
-35.7191
0
LINE
8
BLACK
6
CONTINUOUS
10
119.609
20
-35.7191
11
115.992
21
-36.2758
0
LINE
8
BLACK
6
CONTINUOUS
10
115.992
20
-36.2758
11
112.403
21
-36.9897
0
LINE
8
BLACK
6
CONTINUOUS
10
112.403
20
-36.9897
11
108.849
21
-37.8594
0
LINE
8
BLACK
6
CONTINUOUS
10
108.849
20
-37.8594
11
105.336
21
-38.8834
0
LINE
8
BLACK
6
CONTINUOUS
10
105.336
20
-38.8834
11
101.871
21
-40.0596
0
LINE
8
BLACK
6
CONTINUOUS
10
101.871
20
-40.0596
11
98.4602
21
-41.3859
0
LINE
8
BLACK
6
CONTINUOUS
10
98.4602
20
-41.3859
11
95.1108
21
-42.8596
0
LINE
8
BLACK
6
CONTINUOUS
10
95.1108
20
-42.8596
11
91.829
21
-44.478
0
LINE
8
BLACK
6
CONTINUOUS
10
91.829
20
-44.478
11
88.6208
21
-46.2381
0
LINE
8
BLACK
6
CONTINUOUS
10
88.6208
20
-46.2381
11
85.4925
21
-48.1364
0
LINE
8
BLACK
6
CONTINUOUS
10
85.4925
20
-48.1364
11
82.4499
21
-50.1694
0
LINE
8
BLACK
6
CONTINUOUS
10
82.4499
20
-50.1694
11
79.4989
21
-52.3331
0
LINE
8
BLACK
6
CONTINUOUS
10
79.4989
20
-52.3331
11
76.6451
21
-54.6235
0
LINE
8
BLACK
6
CONTINUOUS
10
76.6451
20
-54.6235
11
73.894
21
-57.0363
0
LINE
8
BLACK
6
CONTINUOUS
10
73.894
20
-57.0363
11
71.2507
21
-59.5667
0
LINE
8
BLACK
6
CONTINUOUS
10
71.2507
20
-59.5667
11
68.7203
21
-62.21
0
LINE
8
BLACK
6
CONTINUOUS
10
68.7203
20
-62.21
11
66.3075
21
-64.9611
0
LINE
8
BLACK
6
CONTINUOUS
10
66.3075
20
-64.9611
11
64.0171
21
-67.8149
0
LINE
8
BLACK
6
CONTINUOUS
10
64.0171
20
-67.8149
11
61.8534
21
-70.7659
0
LINE
8
BLACK
6
CONTINUOUS
10
61.8534
20
-70.7659
11
59.8204
21
-73.8085
0
LINE
8
BLACK
6
CONTINUOUS
10
59.8204
20
-73.8085
11
57.9221
21
-76.9368
0
LINE
8
BLACK
6
CONTINUOUS
10
57.9221
20
-76.9368
11
56.1621
21
-80.145
0
LINE
8
BLACK
6
CONTINUOUS
10
56.1621
20
-80.145
11
54.5436
21
-83.4268
0
LINE
8
BLACK
6
CONTINUOUS
10
54.5436
20
-83.4268
11
53.0699
21
-86.7762
0
LINE
8
BLACK
6
CONTINUOUS
10
53.0699
20
-86.7762
11
51.7436
21
-90.1866
0
LINE
8
BLACK
6
CONTINUOUS
10
51.7436
20
-90.1866
11
50.5674
21
-93.6517
0
LINE
8
BLACK
6
CONTINUOUS
10
50.5674
20
-93.6517
11
49.5434
21
-97.1647
0
LINE
8
BLACK
6
CONTINUOUS
10
49.5434
20
-97.1647
11
48.6737
21
-100.719
0
LINE
8
BLACK
6
CONTINUOUS
10
48.6737
20
-100.719
11
47.9598
21
-104.308
0
LINE
8
BLACK
6
CONTINUOUS
10
47.9598
20
-104.308
11
47.4031
21
-107.925
0
LINE
8
BLACK
6
CONTINUOUS
10
47.4031
20
-107.925
11
47.0048
21
-111.562
0
LINE
8
BLACK
6
CONTINUOUS
10
47.0048
20
-111.562
11
46.7654
21
-115.214
0
LINE
8
BLACK
6
CONTINUOUS
10
46.7654
20
-115.214
11
46.6856
21
-118.872
0
LINE
8
BLACK
6
CONTINUOUS
10
46.6856
20
-118.872
11
46.7654
21
-122.53
0
LINE
8
BLACK
6
CONTINUOUS
10
46.7654
20
-122.53
11
47.0048
21
-126.182
0
LINE
8
BLACK
6
CONTINUOUS
10
47.0048
20
-126.182
11
47.4031
21
-129.819
0
LINE
8
BLACK
6
CONTINUOUS
10
47.4031
20
-129.819
11
47.9598
21
-133.436
0
LINE
8
BLACK
6
CONTINUOUS
10
47.9598
20
-133.436
11
48.6737
21
-137.025
0
LINE
8
BLACK
6
CONTINUOUS
10
48.6737
20
-137.025
11
49.5434
21
-140.579
0
LINE
8
BLACK
6
CONTINUOUS
10
49.5434
20
-140.579
11
50.5674
21
-144.092
0
LINE
8
BLACK
6
CONTINUOUS
10
50.5674
20
-144.092
11
51.7436
21
-147.557
0
LINE
8
BLACK
6
CONTINUOUS
10
51.7436
20
-147.557
11
53.0699
21
-150.968
0
LINE
8
BLACK
6
CONTINUOUS
10
53.0699
20
-150.968
11
54.5436
21
-154.317
0
LINE
8
BLACK
6
CONTINUOUS
10
54.5436
20
-154.317
11
56.1621
21
-157.599
0
LINE
8
BLACK
6
CONTINUOUS
10
56.1621
20
-157.599
11
57.9221
21
-160.807
0
LINE
8
BLACK
6
CONTINUOUS
10
57.9221
20
-160.807
11
59.8204
21
-163.936
0
LINE
8
BLACK
6
CONTINUOUS
10
59.8204
20
-163.936
11
61.8534
21
-166.978
0
LINE
8
BLACK
6
CONTINUOUS
10
61.8534
20
-166.978
11
64.0171
21
-169.929
0
LINE
8
BLACK
6
CONTINUOUS
10
64.0171
20
-169.929
11
66.3075
21
-172.783
0
LINE
8
BLACK
6
CONTINUOUS
10
66.3075
20
-172.783
11
68.7203
21
-175.534
0
LINE
8
BLACK
6
CONTINUOUS
10
68.7203
20
-175.534
11
71.2507
21
-178.177
0
LINE
8
BLACK
6
CONTINUOUS
10
71.2507
20
-178.177
11
73.894
21
-180.708
0
LINE
8
BLACK
6
CONTINUOUS
10
73.894
20
-180.708
11
76.6451
21
-183.12
0
LINE
8
BLACK
6
CONTINUOUS
10
76.6451
20
-183.12
11
79.4989
21
-185.411
0
LINE
8
BLACK
6
CONTINUOUS
10
79.4989
20
-185.411
11
82.4499
21
-187.575
0
LINE
8
BLACK
6
CONTINUOUS
10
82.4499
20
-187.575
11
85.4925
21
-189.608
0
LINE
8
BLACK
6
CONTINUOUS
10
85.4925
20
-189.608
11
88.6208
21
-191.506
0
LINE
8
BLACK
6
CONTINUOUS
10
88.6208
20
-191.506
11
91.829
21
-193.266
0
LINE
8
BLACK
6
CONTINUOUS
10
91.829
20
-193.266
11
95.1108
21
-194.884
0
LINE
8
BLACK
6
CONTINUOUS
10
95.1108
20
-194.884
11
98.4602
21
-196.358
0
LINE
8
BLACK
6
CONTINUOUS
10
98.4602
20
-196.358
11
101.871
21
-197.684
0
LINE
8
BLACK
6
CONTINUOUS
10
101.871
20
-197.684
11
105.336
21
-198.861
0
LINE
8
BLACK
6
CONTINUOUS
10
105.336
20
-198.861
11
108.849
21
-199.885
0
LINE
8
BLACK
6
CONTINUOUS
10
108.849
20
-199.885
11
112.403
21
-200.754
0
LINE
8
BLACK
6
CONTINUOUS
10
112.403
20
-200.754
11
115.992
21
-201.468
0
LINE
8
BLACK
6
CONTINUOUS
10
115.992
20
-201.468
11
119.609
21
-202.025
0
LINE
8
BLACK
6
CONTINUOUS
10
119.609
20
-202.025
11
123.246
21
-202.423
0
LINE
8
BLACK
6
CONTINUOUS
10
123.246
20
-202.423
11
126.898
21
-202.663
0
LINE
8
BLACK
6
CONTINUOUS
10
126.898
20
-202.663
11
130.556
21
-202.742
0
LINE
8
BLACK
6
CONTINUOUS
10
130.556
20
-202.742
11
134.214
21
-202.663
0
LINE
8
BLACK
6
CONTINUOUS
10
134.214
20
-202.663
11
137.866
21
-202.423
0
LINE
8
BLACK
6
CONTINUOUS
10
137.866
20
-202.423
11
141.503
21
-202.025
0
LINE
8
BLACK
6
CONTINUOUS
10
141.503
20
-202.025
11
145.12
21
-201.468
0
LINE
8
BLACK
6
CONTINUOUS
10
145.12
20
-201.468
11
148.709
21
-200.754
0
LINE
8
BLACK
6
CONTINUOUS
10
148.709
20
-200.754
11
152.263
21
-199.885
0
LINE
8
BLACK
6
CONTINUOUS
10
152.263
20
-199.885
11
155.776
21
-198.861
0
LINE
8
BLACK
6
CONTINUOUS
10
155.776
20
-198.861
11
159.241
21
-197.684
0
LINE
8
BLACK
6
CONTINUOUS
10
159.241
20
-197.684
11
162.652
21
-196.358
0
LINE
8
BLACK
6
CONTINUOUS
10
162.652
20
-196.358
11
166.001
21
-194.884
0
LINE
8
BLACK
6
CONTINUOUS
10
166.001
20
-194.884
11
169.283
21
-193.266
0
LINE
8
BLACK
6
CONTINUOUS
10
169.283
20
-193.266
11
172.491
21
-191.506
0
LINE
8
BLACK
6
CONTINUOUS
10
172.491
20
-191.506
11
175.62
21
-189.608
0
LINE
8
BLACK
6
CONTINUOUS
10
175.62
20
-189.608
11
178.662
21
-187.575
0
LINE
8
BLACK
6
CONTINUOUS
10
178.662
20
-187.575
11
181.613
21
-185.411
0
LINE
8
BLACK
6
CONTINUOUS
10
181.613
20
-185.411
11
184.467
21
-183.12
0
LINE
8
BLACK
6
CONTINUOUS
10
184.467
20
-183.12
11
187.218
21
-180.708
0
LINE
8
BLACK
6
CONTINUOUS
10
187.218
20
-180.708
11
189.861
21
-178.177
0
LINE
8
BLACK
6
CONTINUOUS
10
189.861
20
-178.177
11
192.392
21
-175.534
0
LINE
8
BLACK
6
CONTINUOUS
10
192.392
20
-175.534
11
194.804
21
-172.783
0
LINE
8
BLACK
6
CONTINUOUS
10
194.804
20
-172.783
11
197.095
21
-169.929
0
LINE
8
BLACK
6
CONTINUOUS
10
197.095
20
-169.929
11
199.259
21
-166.978
0
LINE
8
BLACK
6
CONTINUOUS
10
199.259
20
-166.978
11
201.292
21
-163.936
0
LINE
8
BLACK
6
CONTINUOUS
10
201.292
20
-163.936
11
203.19
21
-160.807
0
LINE
8
BLACK
6
CONTINUOUS
10
203.19
20
-160.807
11
204.95
21
-157.599
0
LINE
8
BLACK
6
CONTINUOUS
10
204.95
20
-157.599
11
206.568
21
-154.317
0
LINE
8
BLACK
6
CONTINUOUS
10
206.568
20
-154.317
11
208.042
21
-150.968
0
LINE
8
BLACK
6
CONTINUOUS
10
208.042
20
-150.968
11
209.368
21
-147.557
0
LINE
8
BLACK
6
CONTINUOUS
10
209.368
20
-147.557
11
210.545
21
-144.092
0
LINE
8
BLACK
6
CONTINUOUS
10
210.545
20
-144.092
11
211.569
21
-140.579
0
LINE
8
BLACK
6
CONTINUOUS
10
211.569
20
-140.579
11
212.438
21
-137.025
0
LINE
8
BLACK
6
CONTINUOUS
10
212.438
20
-137.025
11
213.152
21
-133.436
0
LINE
8
BLACK
6
CONTINUOUS
10
213.152
20
-133.436
11
213.709
21
-129.819
0
LINE
8
BLACK
6
CONTINUOUS
10
213.709
20
-129.819
11
214.107
21
-126.182
0
LINE
8
BLACK
6
CONTINUOUS
10
214.107
20
-126.182
11
214.347
21
-122.53
0
LINE
8
BLACK
6
CONTINUOUS
10
214.347
20
-122.53
11
214.426
21
-118.872
0
LINE
8
BLACK
6
CONTINUOUS
10
214.426
20
-118.872
11
214.347
21
-115.214
0
LINE
8
BLACK
6
CONTINUOUS
10
214.347
20
-115.214
11
214.107
21
-111.562
  0
ENDSEC
  0
EOF
