  0
SECTION
  2
HEADER
  9
$ANGBASE
  50
0.0
  9
$ANGDIR
  70
1
  9
$MEASUREMENT
  70
1
  0
ENDSEC
  0
SECTION
  2
TABLES
  0
TABLE
  2
LTYPE
  70
4
  0
LTYPE
  5
40F
  2
CONTINUOUS
  70
0
  3
Solid line
  72
65
  73
0
  40
0.0
  0
LTYPE
  5
410
  2
DASHDOT
 70
0
  3
Dash Dot ____ _ ____ _
 72
65
 73
4
 40
2.0
 49
1.25
 49
-0.25
 49
0.25
 49
-0.25
  0
LTYPE
  5
411
  2
DASHED
 70
0
  3
Dashed __ __ __ __ __
 72
65
 73
2
 40
0.75
 49
0.5
 49
-0.25
  0
LTYPE
  5
43B
  2
DOTTED
 70
0
  3
Dotted .  .  .  .
 72
65
 73
2
 40
0.2
 49
0.0
 49
-0.2
  0
ENDTAB
  0
TABLE
  2
STYLE
  70
4
  0
STYLE
  2
KICAD
  70
0
  40
0
  41
1
  42
1
  50
0
  71
0
  3
isocp.shx
  0
STYLE
  2
KICADB
  70
0
  40
0
  41
1
  42
1
  50
0
  71
0
  3
isocp.shx
  0
STYLE
  2
KICADI
  70
0
  40
0
  41
1
  42
1
  50
15
  71
0
  3
isocp.shx
  0
STYLE
  2
KICADBI
  70
0
  40
0
  41
1
  42
1
  50
15
  71
0
  3
isocp.shx
  0
ENDTAB
  0
TABLE
  2
LAYER
  70
1
  0
LAYER
  2
BLACK
  70
0
  62
7
  6
CONTINUOUS
  0
ENDTAB
  0
ENDSEC
  0
SECTION
  2
ENTITIES
0
LINE
8
BLACK
6
CONTINUOUS
10
70.1526
20
-61.9788
11
70.3024
21
-62.0086
0
LINE
8
BLACK
6
CONTINUOUS
10
70.3024
20
-62.0086
11
70.5847
21
-62.1255
0
LINE
8
BLACK
6
CONTINUOUS
10
70.5847
20
-62.1255
11
70.8387
21
-62.2953
0
LINE
8
BLACK
6
CONTINUOUS
10
70.8387
20
-62.2953
11
71.0547
21
-62.5113
0
LINE
8
BLACK
6
CONTINUOUS
10
71.0547
20
-62.5113
11
71.2245
21
-62.7653
0
LINE
8
BLACK
6
CONTINUOUS
10
71.2245
20
-62.7653
11
71.3414
21
-63.0476
0
LINE
8
BLACK
6
CONTINUOUS
10
71.3414
20
-63.0476
11
71.401
21
-63.3472
0
LINE
8
BLACK
6
CONTINUOUS
10
71.401
20
-63.3472
11
71.401
21
-63.6528
0
LINE
8
BLACK
6
CONTINUOUS
10
71.401
20
-63.6528
11
71.3414
21
-63.9524
0
LINE
8
BLACK
6
CONTINUOUS
10
71.3414
20
-63.9524
11
71.2245
21
-64.2347
0
LINE
8
BLACK
6
CONTINUOUS
10
71.2245
20
-64.2347
11
71.0547
21
-64.4887
0
LINE
8
BLACK
6
CONTINUOUS
10
71.0547
20
-64.4887
11
70.8387
21
-64.7047
0
LINE
8
BLACK
6
CONTINUOUS
10
70.8387
20
-64.7047
11
70.5847
21
-64.8745
0
LINE
8
BLACK
6
CONTINUOUS
10
70.5847
20
-64.8745
11
70.3024
21
-64.9914
0
LINE
8
BLACK
6
CONTINUOUS
10
70.3024
20
-64.9914
11
70.1526
21
-65.0212
0
LINE
8
BLACK
6
CONTINUOUS
10
70.1526
20
-65.0212
11
70.0028
21
-65.051
0
LINE
8
BLACK
6
CONTINUOUS
10
70.0028
20
-65.051
11
69.6972
21
-65.051
0
LINE
8
BLACK
6
CONTINUOUS
10
69.6972
20
-65.051
11
69.5474
21
-65.0212
0
LINE
8
BLACK
6
CONTINUOUS
10
69.5474
20
-65.0212
11
69.3976
21
-64.9914
0
LINE
8
BLACK
6
CONTINUOUS
10
69.3976
20
-64.9914
11
69.1153
21
-64.8745
0
LINE
8
BLACK
6
CONTINUOUS
10
69.1153
20
-64.8745
11
68.8613
21
-64.7047
0
LINE
8
BLACK
6
CONTINUOUS
10
68.8613
20
-64.7047
11
68.6453
21
-64.4887
0
LINE
8
BLACK
6
CONTINUOUS
10
68.6453
20
-64.4887
11
68.4755
21
-64.2347
0
LINE
8
BLACK
6
CONTINUOUS
10
68.4755
20
-64.2347
11
68.3586
21
-63.9524
0
LINE
8
BLACK
6
CONTINUOUS
10
68.3586
20
-63.9524
11
68.299
21
-63.6528
0
LINE
8
BLACK
6
CONTINUOUS
10
68.299
20
-63.6528
11
68.299
21
-63.3472
0
LINE
8
BLACK
6
CONTINUOUS
10
68.299
20
-63.3472
11
68.3586
21
-63.0476
0
LINE
8
BLACK
6
CONTINUOUS
10
68.3586
20
-63.0476
11
68.4755
21
-62.7653
0
LINE
8
BLACK
6
CONTINUOUS
10
68.4755
20
-62.7653
11
68.6453
21
-62.5113
0
LINE
8
BLACK
6
CONTINUOUS
10
68.6453
20
-62.5113
11
68.8613
21
-62.2953
0
LINE
8
BLACK
6
CONTINUOUS
10
68.8613
20
-62.2953
11
69.1153
21
-62.1255
0
LINE
8
BLACK
6
CONTINUOUS
10
69.1153
20
-62.1255
11
69.3976
21
-62.0086
0
LINE
8
BLACK
6
CONTINUOUS
10
69.3976
20
-62.0086
11
69.5474
21
-61.9788
0
LINE
8
BLACK
6
CONTINUOUS
10
69.5474
20
-61.9788
11
69.6972
21
-61.949
0
LINE
8
BLACK
6
CONTINUOUS
10
69.6972
20
-61.949
11
70.0028
21
-61.949
0
LINE
8
BLACK
6
CONTINUOUS
10
70.0028
20
-61.949
11
70.1526
21
-61.9788
0
LINE
8
BLACK
6
CONTINUOUS
10
61.2374
20
-58.7355
11
61.4105
21
-58.8072
0
LINE
8
BLACK
6
CONTINUOUS
10
61.4105
20
-58.8072
11
61.4105
21
-58.8072
0
LINE
8
BLACK
6
CONTINUOUS
10
61.4105
20
-58.8072
11
61.5662
21
-58.9113
0
LINE
8
BLACK
6
CONTINUOUS
10
61.5662
20
-58.9113
11
61.6987
21
-59.0438
0
LINE
8
BLACK
6
CONTINUOUS
10
61.6987
20
-59.0438
11
61.6987
21
-59.0438
0
LINE
8
BLACK
6
CONTINUOUS
10
61.6987
20
-59.0438
11
61.8028
21
-59.1995
0
LINE
8
BLACK
6
CONTINUOUS
10
61.8028
20
-59.1995
11
61.8745
21
-59.3726
0
LINE
8
BLACK
6
CONTINUOUS
10
61.8745
20
-59.3726
11
61.911
21
-59.5563
0
LINE
8
BLACK
6
CONTINUOUS
10
61.911
20
-59.5563
11
61.911
21
-59.7437
0
LINE
8
BLACK
6
CONTINUOUS
10
61.911
20
-59.7437
11
61.8745
21
-59.9274
0
LINE
8
BLACK
6
CONTINUOUS
10
61.8745
20
-59.9274
11
61.8028
21
-60.1005
0
LINE
8
BLACK
6
CONTINUOUS
10
61.8028
20
-60.1005
11
61.8028
21
-60.1005
0
LINE
8
BLACK
6
CONTINUOUS
10
61.8028
20
-60.1005
11
61.6987
21
-60.2562
0
LINE
8
BLACK
6
CONTINUOUS
10
61.6987
20
-60.2562
11
61.5662
21
-60.3887
0
LINE
8
BLACK
6
CONTINUOUS
10
61.5662
20
-60.3887
11
61.4878
21
-60.4411
0
LINE
8
BLACK
6
CONTINUOUS
10
61.4878
20
-60.4411
11
61.4105
21
-60.4928
0
LINE
8
BLACK
6
CONTINUOUS
10
61.4105
20
-60.4928
11
61.2374
21
-60.5645
0
LINE
8
BLACK
6
CONTINUOUS
10
61.2374
20
-60.5645
11
61.0537
21
-60.601
0
LINE
8
BLACK
6
CONTINUOUS
10
61.0537
20
-60.601
11
60.8663
21
-60.601
0
LINE
8
BLACK
6
CONTINUOUS
10
60.8663
20
-60.601
11
60.6826
21
-60.5645
0
LINE
8
BLACK
6
CONTINUOUS
10
60.6826
20
-60.5645
11
60.5095
21
-60.4928
0
LINE
8
BLACK
6
CONTINUOUS
10
60.5095
20
-60.4928
11
60.4322
21
-60.4411
0
LINE
8
BLACK
6
CONTINUOUS
10
60.4322
20
-60.4411
11
60.3538
21
-60.3887
0
LINE
8
BLACK
6
CONTINUOUS
10
60.3538
20
-60.3887
11
60.2213
21
-60.2562
0
LINE
8
BLACK
6
CONTINUOUS
10
60.2213
20
-60.2562
11
60.1172
21
-60.1005
0
LINE
8
BLACK
6
CONTINUOUS
10
60.1172
20
-60.1005
11
60.1172
21
-60.1005
0
LINE
8
BLACK
6
CONTINUOUS
10
60.1172
20
-60.1005
11
60.0455
21
-59.9274
0
LINE
8
BLACK
6
CONTINUOUS
10
60.0455
20
-59.9274
11
60.009
21
-59.7437
0
LINE
8
BLACK
6
CONTINUOUS
10
60.009
20
-59.7437
11
60.009
21
-59.5563
0
LINE
8
BLACK
6
CONTINUOUS
10
60.009
20
-59.5563
11
60.0455
21
-59.3726
0
LINE
8
BLACK
6
CONTINUOUS
10
60.0455
20
-59.3726
11
60.1172
21
-59.1995
0
LINE
8
BLACK
6
CONTINUOUS
10
60.1172
20
-59.1995
11
60.2213
21
-59.0438
0
LINE
8
BLACK
6
CONTINUOUS
10
60.2213
20
-59.0438
11
60.2213
21
-59.0438
0
LINE
8
BLACK
6
CONTINUOUS
10
60.2213
20
-59.0438
11
60.3538
21
-58.9113
0
LINE
8
BLACK
6
CONTINUOUS
10
60.3538
20
-58.9113
11
60.5095
21
-58.8072
0
LINE
8
BLACK
6
CONTINUOUS
10
60.5095
20
-58.8072
11
60.5095
21
-58.8072
0
LINE
8
BLACK
6
CONTINUOUS
10
60.5095
20
-58.8072
11
60.6826
21
-58.7355
0
LINE
8
BLACK
6
CONTINUOUS
10
60.6826
20
-58.7355
11
60.8663
21
-58.699
0
LINE
8
BLACK
6
CONTINUOUS
10
60.8663
20
-58.699
11
61.0537
21
-58.699
0
LINE
8
BLACK
6
CONTINUOUS
10
61.0537
20
-58.699
11
61.2374
21
-58.7355
0
LINE
8
BLACK
6
CONTINUOUS
10
56.1574
20
-58.7355
11
56.3305
21
-58.8072
0
LINE
8
BLACK
6
CONTINUOUS
10
56.3305
20
-58.8072
11
56.3305
21
-58.8072
0
LINE
8
BLACK
6
CONTINUOUS
10
56.3305
20
-58.8072
11
56.4862
21
-58.9113
0
LINE
8
BLACK
6
CONTINUOUS
10
56.4862
20
-58.9113
11
56.6187
21
-59.0438
0
LINE
8
BLACK
6
CONTINUOUS
10
56.6187
20
-59.0438
11
56.6187
21
-59.0438
0
LINE
8
BLACK
6
CONTINUOUS
10
56.6187
20
-59.0438
11
56.7228
21
-59.1995
0
LINE
8
BLACK
6
CONTINUOUS
10
56.7228
20
-59.1995
11
56.7945
21
-59.3726
0
LINE
8
BLACK
6
CONTINUOUS
10
56.7945
20
-59.3726
11
56.831
21
-59.5563
0
LINE
8
BLACK
6
CONTINUOUS
10
56.831
20
-59.5563
11
56.831
21
-59.7437
0
LINE
8
BLACK
6
CONTINUOUS
10
56.831
20
-59.7437
11
56.7945
21
-59.9274
0
LINE
8
BLACK
6
CONTINUOUS
10
56.7945
20
-59.9274
11
56.7228
21
-60.1005
0
LINE
8
BLACK
6
CONTINUOUS
10
56.7228
20
-60.1005
11
56.7228
21
-60.1005
0
LINE
8
BLACK
6
CONTINUOUS
10
56.7228
20
-60.1005
11
56.6187
21
-60.2562
0
LINE
8
BLACK
6
CONTINUOUS
10
56.6187
20
-60.2562
11
56.4862
21
-60.3887
0
LINE
8
BLACK
6
CONTINUOUS
10
56.4862
20
-60.3887
11
56.4078
21
-60.4411
0
LINE
8
BLACK
6
CONTINUOUS
10
56.4078
20
-60.4411
11
56.3305
21
-60.4928
0
LINE
8
BLACK
6
CONTINUOUS
10
56.3305
20
-60.4928
11
56.1574
21
-60.5645
0
LINE
8
BLACK
6
CONTINUOUS
10
56.1574
20
-60.5645
11
55.9737
21
-60.601
0
LINE
8
BLACK
6
CONTINUOUS
10
55.9737
20
-60.601
11
55.7863
21
-60.601
0
LINE
8
BLACK
6
CONTINUOUS
10
55.7863
20
-60.601
11
55.6026
21
-60.5645
0
LINE
8
BLACK
6
CONTINUOUS
10
55.6026
20
-60.5645
11
55.4295
21
-60.4928
0
LINE
8
BLACK
6
CONTINUOUS
10
55.4295
20
-60.4928
11
55.3522
21
-60.4411
0
LINE
8
BLACK
6
CONTINUOUS
10
55.3522
20
-60.4411
11
55.2738
21
-60.3887
0
LINE
8
BLACK
6
CONTINUOUS
10
55.2738
20
-60.3887
11
55.1413
21
-60.2562
0
LINE
8
BLACK
6
CONTINUOUS
10
55.1413
20
-60.2562
11
55.0372
21
-60.1005
0
LINE
8
BLACK
6
CONTINUOUS
10
55.0372
20
-60.1005
11
55.0372
21
-60.1005
0
LINE
8
BLACK
6
CONTINUOUS
10
55.0372
20
-60.1005
11
54.9655
21
-59.9274
0
LINE
8
BLACK
6
CONTINUOUS
10
54.9655
20
-59.9274
11
54.929
21
-59.7437
0
LINE
8
BLACK
6
CONTINUOUS
10
54.929
20
-59.7437
11
54.929
21
-59.5563
0
LINE
8
BLACK
6
CONTINUOUS
10
54.929
20
-59.5563
11
54.9655
21
-59.3726
0
LINE
8
BLACK
6
CONTINUOUS
10
54.9655
20
-59.3726
11
55.0372
21
-59.1995
0
LINE
8
BLACK
6
CONTINUOUS
10
55.0372
20
-59.1995
11
55.1413
21
-59.0438
0
LINE
8
BLACK
6
CONTINUOUS
10
55.1413
20
-59.0438
11
55.1413
21
-59.0438
0
LINE
8
BLACK
6
CONTINUOUS
10
55.1413
20
-59.0438
11
55.2738
21
-58.9113
0
LINE
8
BLACK
6
CONTINUOUS
10
55.2738
20
-58.9113
11
55.4295
21
-58.8072
0
LINE
8
BLACK
6
CONTINUOUS
10
55.4295
20
-58.8072
11
55.4295
21
-58.8072
0
LINE
8
BLACK
6
CONTINUOUS
10
55.4295
20
-58.8072
11
55.6026
21
-58.7355
0
LINE
8
BLACK
6
CONTINUOUS
10
55.6026
20
-58.7355
11
55.7863
21
-58.699
0
LINE
8
BLACK
6
CONTINUOUS
10
55.7863
20
-58.699
11
55.9737
21
-58.699
0
LINE
8
BLACK
6
CONTINUOUS
10
55.9737
20
-58.699
11
56.1574
21
-58.7355
0
LINE
8
BLACK
6
CONTINUOUS
10
70.0209
20
-56.8726
11
70.3024
21
-56.9286
0
LINE
8
BLACK
6
CONTINUOUS
10
70.3024
20
-56.9286
11
70.5847
21
-57.0455
0
LINE
8
BLACK
6
CONTINUOUS
10
70.5847
20
-57.0455
11
70.8387
21
-57.2153
0
LINE
8
BLACK
6
CONTINUOUS
10
70.8387
20
-57.2153
11
71.0547
21
-57.4313
0
LINE
8
BLACK
6
CONTINUOUS
10
71.0547
20
-57.4313
11
71.2245
21
-57.6853
0
LINE
8
BLACK
6
CONTINUOUS
10
71.2245
20
-57.6853
11
71.3414
21
-57.9676
0
LINE
8
BLACK
6
CONTINUOUS
10
71.3414
20
-57.9676
11
71.401
21
-58.2672
0
LINE
8
BLACK
6
CONTINUOUS
10
71.401
20
-58.2672
11
71.401
21
-58.5728
0
LINE
8
BLACK
6
CONTINUOUS
10
71.401
20
-58.5728
11
71.3414
21
-58.8724
0
LINE
8
BLACK
6
CONTINUOUS
10
71.3414
20
-58.8724
11
71.2245
21
-59.1547
0
LINE
8
BLACK
6
CONTINUOUS
10
71.2245
20
-59.1547
11
71.0547
21
-59.4087
0
LINE
8
BLACK
6
CONTINUOUS
10
71.0547
20
-59.4087
11
70.8387
21
-59.6247
0
LINE
8
BLACK
6
CONTINUOUS
10
70.8387
20
-59.6247
11
70.5847
21
-59.7945
0
LINE
8
BLACK
6
CONTINUOUS
10
70.5847
20
-59.7945
11
70.3024
21
-59.9114
0
LINE
8
BLACK
6
CONTINUOUS
10
70.3024
20
-59.9114
11
70.222
21
-59.9274
0
LINE
8
BLACK
6
CONTINUOUS
10
70.222
20
-59.9274
11
70.0028
21
-59.971
0
LINE
8
BLACK
6
CONTINUOUS
10
70.0028
20
-59.971
11
69.6972
21
-59.971
0
LINE
8
BLACK
6
CONTINUOUS
10
69.6972
20
-59.971
11
69.478
21
-59.9274
0
LINE
8
BLACK
6
CONTINUOUS
10
69.478
20
-59.9274
11
69.3976
21
-59.9114
0
LINE
8
BLACK
6
CONTINUOUS
10
69.3976
20
-59.9114
11
69.1153
21
-59.7945
0
LINE
8
BLACK
6
CONTINUOUS
10
69.1153
20
-59.7945
11
68.8613
21
-59.6247
0
LINE
8
BLACK
6
CONTINUOUS
10
68.8613
20
-59.6247
11
68.6453
21
-59.4087
0
LINE
8
BLACK
6
CONTINUOUS
10
68.6453
20
-59.4087
11
68.4755
21
-59.1547
0
LINE
8
BLACK
6
CONTINUOUS
10
68.4755
20
-59.1547
11
68.3586
21
-58.8724
0
LINE
8
BLACK
6
CONTINUOUS
10
68.3586
20
-58.8724
11
68.299
21
-58.5728
0
LINE
8
BLACK
6
CONTINUOUS
10
68.299
20
-58.5728
11
68.299
21
-58.2672
0
LINE
8
BLACK
6
CONTINUOUS
10
68.299
20
-58.2672
11
68.3586
21
-57.9676
0
LINE
8
BLACK
6
CONTINUOUS
10
68.3586
20
-57.9676
11
68.4755
21
-57.6853
0
LINE
8
BLACK
6
CONTINUOUS
10
68.4755
20
-57.6853
11
68.6453
21
-57.4313
0
LINE
8
BLACK
6
CONTINUOUS
10
68.6453
20
-57.4313
11
68.8613
21
-57.2153
0
LINE
8
BLACK
6
CONTINUOUS
10
68.8613
20
-57.2153
11
69.1153
21
-57.0455
0
LINE
8
BLACK
6
CONTINUOUS
10
69.1153
20
-57.0455
11
69.3976
21
-56.9286
0
LINE
8
BLACK
6
CONTINUOUS
10
69.3976
20
-56.9286
11
69.6791
21
-56.8726
0
LINE
8
BLACK
6
CONTINUOUS
10
69.6791
20
-56.8726
11
69.6972
21
-56.869
0
LINE
8
BLACK
6
CONTINUOUS
10
69.6972
20
-56.869
11
70.0028
21
-56.869
0
LINE
8
BLACK
6
CONTINUOUS
10
70.0028
20
-56.869
11
70.0209
21
-56.8726
0
LINE
8
BLACK
6
CONTINUOUS
10
51.081
20
-59.971
11
47.979
21
-59.971
0
LINE
8
BLACK
6
CONTINUOUS
10
47.979
20
-59.971
11
47.979
21
-56.869
0
LINE
8
BLACK
6
CONTINUOUS
10
47.979
20
-56.869
11
51.081
21
-56.869
0
LINE
8
BLACK
6
CONTINUOUS
10
51.081
20
-56.869
11
51.081
21
-59.971
0
LINE
8
BLACK
6
CONTINUOUS
10
56.1574
20
-56.2355
11
56.3305
21
-56.3072
0
LINE
8
BLACK
6
CONTINUOUS
10
56.3305
20
-56.3072
11
56.3305
21
-56.3072
0
LINE
8
BLACK
6
CONTINUOUS
10
56.3305
20
-56.3072
11
56.4862
21
-56.4113
0
LINE
8
BLACK
6
CONTINUOUS
10
56.4862
20
-56.4113
11
56.6187
21
-56.5438
0
LINE
8
BLACK
6
CONTINUOUS
10
56.6187
20
-56.5438
11
56.6187
21
-56.5438
0
LINE
8
BLACK
6
CONTINUOUS
10
56.6187
20
-56.5438
11
56.7228
21
-56.6995
0
LINE
8
BLACK
6
CONTINUOUS
10
56.7228
20
-56.6995
11
56.7945
21
-56.8726
0
LINE
8
BLACK
6
CONTINUOUS
10
56.7945
20
-56.8726
11
56.831
21
-57.0563
0
LINE
8
BLACK
6
CONTINUOUS
10
56.831
20
-57.0563
11
56.831
21
-57.2437
0
LINE
8
BLACK
6
CONTINUOUS
10
56.831
20
-57.2437
11
56.7945
21
-57.4274
0
LINE
8
BLACK
6
CONTINUOUS
10
56.7945
20
-57.4274
11
56.7228
21
-57.6005
0
LINE
8
BLACK
6
CONTINUOUS
10
56.7228
20
-57.6005
11
56.7228
21
-57.6005
0
LINE
8
BLACK
6
CONTINUOUS
10
56.7228
20
-57.6005
11
56.6187
21
-57.7562
0
LINE
8
BLACK
6
CONTINUOUS
10
56.6187
20
-57.7562
11
56.4862
21
-57.8887
0
LINE
8
BLACK
6
CONTINUOUS
10
56.4862
20
-57.8887
11
56.4078
21
-57.9411
0
LINE
8
BLACK
6
CONTINUOUS
10
56.4078
20
-57.9411
11
56.3305
21
-57.9928
0
LINE
8
BLACK
6
CONTINUOUS
10
56.3305
20
-57.9928
11
56.1574
21
-58.0645
0
LINE
8
BLACK
6
CONTINUOUS
10
56.1574
20
-58.0645
11
55.9737
21
-58.101
0
LINE
8
BLACK
6
CONTINUOUS
10
55.9737
20
-58.101
11
55.7863
21
-58.101
0
LINE
8
BLACK
6
CONTINUOUS
10
55.7863
20
-58.101
11
55.6026
21
-58.0645
0
LINE
8
BLACK
6
CONTINUOUS
10
55.6026
20
-58.0645
11
55.4295
21
-57.9928
0
LINE
8
BLACK
6
CONTINUOUS
10
55.4295
20
-57.9928
11
55.3522
21
-57.9411
0
LINE
8
BLACK
6
CONTINUOUS
10
55.3522
20
-57.9411
11
55.2738
21
-57.8887
0
LINE
8
BLACK
6
CONTINUOUS
10
55.2738
20
-57.8887
11
55.1413
21
-57.7562
0
LINE
8
BLACK
6
CONTINUOUS
10
55.1413
20
-57.7562
11
55.0372
21
-57.6005
0
LINE
8
BLACK
6
CONTINUOUS
10
55.0372
20
-57.6005
11
55.0372
21
-57.6005
0
LINE
8
BLACK
6
CONTINUOUS
10
55.0372
20
-57.6005
11
54.9655
21
-57.4274
0
LINE
8
BLACK
6
CONTINUOUS
10
54.9655
20
-57.4274
11
54.929
21
-57.2437
0
LINE
8
BLACK
6
CONTINUOUS
10
54.929
20
-57.2437
11
54.929
21
-57.0563
0
LINE
8
BLACK
6
CONTINUOUS
10
54.929
20
-57.0563
11
54.9655
21
-56.8726
0
LINE
8
BLACK
6
CONTINUOUS
10
54.9655
20
-56.8726
11
55.0372
21
-56.6995
0
LINE
8
BLACK
6
CONTINUOUS
10
55.0372
20
-56.6995
11
55.1413
21
-56.5438
0
LINE
8
BLACK
6
CONTINUOUS
10
55.1413
20
-56.5438
11
55.1413
21
-56.5438
0
LINE
8
BLACK
6
CONTINUOUS
10
55.1413
20
-56.5438
11
55.2738
21
-56.4113
0
LINE
8
BLACK
6
CONTINUOUS
10
55.2738
20
-56.4113
11
55.4295
21
-56.3072
0
LINE
8
BLACK
6
CONTINUOUS
10
55.4295
20
-56.3072
11
55.4295
21
-56.3072
0
LINE
8
BLACK
6
CONTINUOUS
10
55.4295
20
-56.3072
11
55.6026
21
-56.2355
0
LINE
8
BLACK
6
CONTINUOUS
10
55.6026
20
-56.2355
11
55.7863
21
-56.199
0
LINE
8
BLACK
6
CONTINUOUS
10
55.7863
20
-56.199
11
55.9737
21
-56.199
0
LINE
8
BLACK
6
CONTINUOUS
10
55.9737
20
-56.199
11
56.1574
21
-56.2355
0
LINE
8
BLACK
6
CONTINUOUS
10
61.2374
20
-56.2355
11
61.4105
21
-56.3072
0
LINE
8
BLACK
6
CONTINUOUS
10
61.4105
20
-56.3072
11
61.4105
21
-56.3072
0
LINE
8
BLACK
6
CONTINUOUS
10
61.4105
20
-56.3072
11
61.5662
21
-56.4113
0
LINE
8
BLACK
6
CONTINUOUS
10
61.5662
20
-56.4113
11
61.6987
21
-56.5438
0
LINE
8
BLACK
6
CONTINUOUS
10
61.6987
20
-56.5438
11
61.6987
21
-56.5438
0
LINE
8
BLACK
6
CONTINUOUS
10
61.6987
20
-56.5438
11
61.8028
21
-56.6995
0
LINE
8
BLACK
6
CONTINUOUS
10
61.8028
20
-56.6995
11
61.8745
21
-56.8726
0
LINE
8
BLACK
6
CONTINUOUS
10
61.8745
20
-56.8726
11
61.911
21
-57.0563
0
LINE
8
BLACK
6
CONTINUOUS
10
61.911
20
-57.0563
11
61.911
21
-57.2437
0
LINE
8
BLACK
6
CONTINUOUS
10
61.911
20
-57.2437
11
61.8745
21
-57.4274
0
LINE
8
BLACK
6
CONTINUOUS
10
61.8745
20
-57.4274
11
61.8028
21
-57.6005
0
LINE
8
BLACK
6
CONTINUOUS
10
61.8028
20
-57.6005
11
61.8028
21
-57.6005
0
LINE
8
BLACK
6
CONTINUOUS
10
61.8028
20
-57.6005
11
61.6987
21
-57.7562
0
LINE
8
BLACK
6
CONTINUOUS
10
61.6987
20
-57.7562
11
61.5662
21
-57.8887
0
LINE
8
BLACK
6
CONTINUOUS
10
61.5662
20
-57.8887
11
61.4878
21
-57.9411
0
LINE
8
BLACK
6
CONTINUOUS
10
61.4878
20
-57.9411
11
61.4105
21
-57.9928
0
LINE
8
BLACK
6
CONTINUOUS
10
61.4105
20
-57.9928
11
61.2374
21
-58.0645
0
LINE
8
BLACK
6
CONTINUOUS
10
61.2374
20
-58.0645
11
61.0537
21
-58.101
0
LINE
8
BLACK
6
CONTINUOUS
10
61.0537
20
-58.101
11
60.8663
21
-58.101
0
LINE
8
BLACK
6
CONTINUOUS
10
60.8663
20
-58.101
11
60.6826
21
-58.0645
0
LINE
8
BLACK
6
CONTINUOUS
10
60.6826
20
-58.0645
11
60.5095
21
-57.9928
0
LINE
8
BLACK
6
CONTINUOUS
10
60.5095
20
-57.9928
11
60.4322
21
-57.9411
0
LINE
8
BLACK
6
CONTINUOUS
10
60.4322
20
-57.9411
11
60.3538
21
-57.8887
0
LINE
8
BLACK
6
CONTINUOUS
10
60.3538
20
-57.8887
11
60.2213
21
-57.7562
0
LINE
8
BLACK
6
CONTINUOUS
10
60.2213
20
-57.7562
11
60.1172
21
-57.6005
0
LINE
8
BLACK
6
CONTINUOUS
10
60.1172
20
-57.6005
11
60.1172
21
-57.6005
0
LINE
8
BLACK
6
CONTINUOUS
10
60.1172
20
-57.6005
11
60.0455
21
-57.4274
0
LINE
8
BLACK
6
CONTINUOUS
10
60.0455
20
-57.4274
11
60.009
21
-57.2437
0
LINE
8
BLACK
6
CONTINUOUS
10
60.009
20
-57.2437
11
60.009
21
-57.0563
0
LINE
8
BLACK
6
CONTINUOUS
10
60.009
20
-57.0563
11
60.0455
21
-56.8726
0
LINE
8
BLACK
6
CONTINUOUS
10
60.0455
20
-56.8726
11
60.1172
21
-56.6995
0
LINE
8
BLACK
6
CONTINUOUS
10
60.1172
20
-56.6995
11
60.2213
21
-56.5438
0
LINE
8
BLACK
6
CONTINUOUS
10
60.2213
20
-56.5438
11
60.2213
21
-56.5438
0
LINE
8
BLACK
6
CONTINUOUS
10
60.2213
20
-56.5438
11
60.3538
21
-56.4113
0
LINE
8
BLACK
6
CONTINUOUS
10
60.3538
20
-56.4113
11
60.5095
21
-56.3072
0
LINE
8
BLACK
6
CONTINUOUS
10
60.5095
20
-56.3072
11
60.5095
21
-56.3072
0
LINE
8
BLACK
6
CONTINUOUS
10
60.5095
20
-56.3072
11
60.6826
21
-56.2355
0
LINE
8
BLACK
6
CONTINUOUS
10
60.6826
20
-56.2355
11
60.8663
21
-56.199
0
LINE
8
BLACK
6
CONTINUOUS
10
60.8663
20
-56.199
11
61.0537
21
-56.199
0
LINE
8
BLACK
6
CONTINUOUS
10
61.0537
20
-56.199
11
61.2374
21
-56.2355
0
LINE
8
BLACK
6
CONTINUOUS
10
49.8326
20
-51.8188
11
49.9824
21
-51.8486
0
LINE
8
BLACK
6
CONTINUOUS
10
49.9824
20
-51.8486
11
50.2647
21
-51.9655
0
LINE
8
BLACK
6
CONTINUOUS
10
50.2647
20
-51.9655
11
50.5187
21
-52.1353
0
LINE
8
BLACK
6
CONTINUOUS
10
50.5187
20
-52.1353
11
50.7347
21
-52.3513
0
LINE
8
BLACK
6
CONTINUOUS
10
50.7347
20
-52.3513
11
50.9045
21
-52.6053
0
LINE
8
BLACK
6
CONTINUOUS
10
50.9045
20
-52.6053
11
51.0214
21
-52.8876
0
LINE
8
BLACK
6
CONTINUOUS
10
51.0214
20
-52.8876
11
51.081
21
-53.1872
0
LINE
8
BLACK
6
CONTINUOUS
10
51.081
20
-53.1872
11
51.081
21
-53.4928
0
LINE
8
BLACK
6
CONTINUOUS
10
51.081
20
-53.4928
11
51.0214
21
-53.7924
0
LINE
8
BLACK
6
CONTINUOUS
10
51.0214
20
-53.7924
11
50.9045
21
-54.0747
0
LINE
8
BLACK
6
CONTINUOUS
10
50.9045
20
-54.0747
11
50.7347
21
-54.3287
0
LINE
8
BLACK
6
CONTINUOUS
10
50.7347
20
-54.3287
11
50.5187
21
-54.5447
0
LINE
8
BLACK
6
CONTINUOUS
10
50.5187
20
-54.5447
11
50.2647
21
-54.7145
0
LINE
8
BLACK
6
CONTINUOUS
10
50.2647
20
-54.7145
11
49.9824
21
-54.8314
0
LINE
8
BLACK
6
CONTINUOUS
10
49.9824
20
-54.8314
11
49.8326
21
-54.8612
0
LINE
8
BLACK
6
CONTINUOUS
10
49.8326
20
-54.8612
11
49.6828
21
-54.891
0
LINE
8
BLACK
6
CONTINUOUS
10
49.6828
20
-54.891
11
49.3772
21
-54.891
0
LINE
8
BLACK
6
CONTINUOUS
10
49.3772
20
-54.891
11
49.2274
21
-54.8612
0
LINE
8
BLACK
6
CONTINUOUS
10
49.2274
20
-54.8612
11
49.0776
21
-54.8314
0
LINE
8
BLACK
6
CONTINUOUS
10
49.0776
20
-54.8314
11
48.7953
21
-54.7145
0
LINE
8
BLACK
6
CONTINUOUS
10
48.7953
20
-54.7145
11
48.5413
21
-54.5447
0
LINE
8
BLACK
6
CONTINUOUS
10
48.5413
20
-54.5447
11
48.3253
21
-54.3287
0
LINE
8
BLACK
6
CONTINUOUS
10
48.3253
20
-54.3287
11
48.1555
21
-54.0747
0
LINE
8
BLACK
6
CONTINUOUS
10
48.1555
20
-54.0747
11
48.0386
21
-53.7924
0
LINE
8
BLACK
6
CONTINUOUS
10
48.0386
20
-53.7924
11
47.979
21
-53.4928
0
LINE
8
BLACK
6
CONTINUOUS
10
47.979
20
-53.4928
11
47.979
21
-53.1872
0
LINE
8
BLACK
6
CONTINUOUS
10
47.979
20
-53.1872
11
48.0386
21
-52.8876
0
LINE
8
BLACK
6
CONTINUOUS
10
48.0386
20
-52.8876
11
48.1555
21
-52.6053
0
LINE
8
BLACK
6
CONTINUOUS
10
48.1555
20
-52.6053
11
48.3253
21
-52.3513
0
LINE
8
BLACK
6
CONTINUOUS
10
48.3253
20
-52.3513
11
48.5413
21
-52.1353
0
LINE
8
BLACK
6
CONTINUOUS
10
48.5413
20
-52.1353
11
48.7953
21
-51.9655
0
LINE
8
BLACK
6
CONTINUOUS
10
48.7953
20
-51.9655
11
49.0776
21
-51.8486
0
LINE
8
BLACK
6
CONTINUOUS
10
49.0776
20
-51.8486
11
49.2274
21
-51.8188
0
LINE
8
BLACK
6
CONTINUOUS
10
49.2274
20
-51.8188
11
49.3772
21
-51.789
0
LINE
8
BLACK
6
CONTINUOUS
10
49.3772
20
-51.789
11
49.6828
21
-51.789
0
LINE
8
BLACK
6
CONTINUOUS
10
49.6828
20
-51.789
11
49.8326
21
-51.8188
0
LINE
8
BLACK
6
CONTINUOUS
10
70.1526
20
-51.8188
11
70.3024
21
-51.8486
0
LINE
8
BLACK
6
CONTINUOUS
10
70.3024
20
-51.8486
11
70.5847
21
-51.9655
0
LINE
8
BLACK
6
CONTINUOUS
10
70.5847
20
-51.9655
11
70.8387
21
-52.1353
0
LINE
8
BLACK
6
CONTINUOUS
10
70.8387
20
-52.1353
11
71.0547
21
-52.3513
0
LINE
8
BLACK
6
CONTINUOUS
10
71.0547
20
-52.3513
11
71.2245
21
-52.6053
0
LINE
8
BLACK
6
CONTINUOUS
10
71.2245
20
-52.6053
11
71.3414
21
-52.8876
0
LINE
8
BLACK
6
CONTINUOUS
10
71.3414
20
-52.8876
11
71.401
21
-53.1872
0
LINE
8
BLACK
6
CONTINUOUS
10
71.401
20
-53.1872
11
71.401
21
-53.4928
0
LINE
8
BLACK
6
CONTINUOUS
10
71.401
20
-53.4928
11
71.3414
21
-53.7924
0
LINE
8
BLACK
6
CONTINUOUS
10
71.3414
20
-53.7924
11
71.2245
21
-54.0747
0
LINE
8
BLACK
6
CONTINUOUS
10
71.2245
20
-54.0747
11
71.0547
21
-54.3287
0
LINE
8
BLACK
6
CONTINUOUS
10
71.0547
20
-54.3287
11
70.8387
21
-54.5447
0
LINE
8
BLACK
6
CONTINUOUS
10
70.8387
20
-54.5447
11
70.5847
21
-54.7145
0
LINE
8
BLACK
6
CONTINUOUS
10
70.5847
20
-54.7145
11
70.3024
21
-54.8314
0
LINE
8
BLACK
6
CONTINUOUS
10
70.3024
20
-54.8314
11
70.1526
21
-54.8612
0
LINE
8
BLACK
6
CONTINUOUS
10
70.1526
20
-54.8612
11
70.0028
21
-54.891
0
LINE
8
BLACK
6
CONTINUOUS
10
70.0028
20
-54.891
11
69.6972
21
-54.891
0
LINE
8
BLACK
6
CONTINUOUS
10
69.6972
20
-54.891
11
69.5474
21
-54.8612
0
LINE
8
BLACK
6
CONTINUOUS
10
69.5474
20
-54.8612
11
69.3976
21
-54.8314
0
LINE
8
BLACK
6
CONTINUOUS
10
69.3976
20
-54.8314
11
69.1153
21
-54.7145
0
LINE
8
BLACK
6
CONTINUOUS
10
69.1153
20
-54.7145
11
68.8613
21
-54.5447
0
LINE
8
BLACK
6
CONTINUOUS
10
68.8613
20
-54.5447
11
68.6453
21
-54.3287
0
LINE
8
BLACK
6
CONTINUOUS
10
68.6453
20
-54.3287
11
68.4755
21
-54.0747
0
LINE
8
BLACK
6
CONTINUOUS
10
68.4755
20
-54.0747
11
68.3586
21
-53.7924
0
LINE
8
BLACK
6
CONTINUOUS
10
68.3586
20
-53.7924
11
68.299
21
-53.4928
0
LINE
8
BLACK
6
CONTINUOUS
10
68.299
20
-53.4928
11
68.299
21
-53.1872
0
LINE
8
BLACK
6
CONTINUOUS
10
68.299
20
-53.1872
11
68.3586
21
-52.8876
0
LINE
8
BLACK
6
CONTINUOUS
10
68.3586
20
-52.8876
11
68.4755
21
-52.6053
0
LINE
8
BLACK
6
CONTINUOUS
10
68.4755
20
-52.6053
11
68.6453
21
-52.3513
0
LINE
8
BLACK
6
CONTINUOUS
10
68.6453
20
-52.3513
11
68.8613
21
-52.1353
0
LINE
8
BLACK
6
CONTINUOUS
10
68.8613
20
-52.1353
11
69.1153
21
-51.9655
0
LINE
8
BLACK
6
CONTINUOUS
10
69.1153
20
-51.9655
11
69.3976
21
-51.8486
0
LINE
8
BLACK
6
CONTINUOUS
10
69.3976
20
-51.8486
11
69.5474
21
-51.8188
0
LINE
8
BLACK
6
CONTINUOUS
10
69.5474
20
-51.8188
11
69.6972
21
-51.789
0
LINE
8
BLACK
6
CONTINUOUS
10
69.6972
20
-51.789
11
70.0028
21
-51.789
0
LINE
8
BLACK
6
CONTINUOUS
10
70.0028
20
-51.789
11
70.1526
21
-51.8188
0
LINE
8
BLACK
6
CONTINUOUS
10
61.1343
20
-50.3555
11
61.3019
21
-50.4063
0
LINE
8
BLACK
6
CONTINUOUS
10
61.3019
20
-50.4063
11
61.4564
21
-50.4889
0
LINE
8
BLACK
6
CONTINUOUS
10
61.4564
20
-50.4889
11
61.5918
21
-50.6
0
LINE
8
BLACK
6
CONTINUOUS
10
61.5918
20
-50.6
11
61.7029
21
-50.7354
0
LINE
8
BLACK
6
CONTINUOUS
10
61.7029
20
-50.7354
11
61.7855
21
-50.8899
0
LINE
8
BLACK
6
CONTINUOUS
10
61.7855
20
-50.8899
11
61.7855
21
-50.8899
0
LINE
8
BLACK
6
CONTINUOUS
10
61.7855
20
-50.8899
11
61.8363
21
-51.0575
0
LINE
8
BLACK
6
CONTINUOUS
10
61.8363
20
-51.0575
11
61.8492
21
-51.1881
0
LINE
8
BLACK
6
CONTINUOUS
10
61.8492
20
-51.1881
11
61.8492
21
-52.9519
0
LINE
8
BLACK
6
CONTINUOUS
10
61.8492
20
-52.9519
11
61.8363
21
-53.0825
0
LINE
8
BLACK
6
CONTINUOUS
10
61.8363
20
-53.0825
11
61.8046
21
-53.1872
0
LINE
8
BLACK
6
CONTINUOUS
10
61.8046
20
-53.1872
11
61.7855
21
-53.2501
0
LINE
8
BLACK
6
CONTINUOUS
10
61.7855
20
-53.2501
11
61.7029
21
-53.4046
0
LINE
8
BLACK
6
CONTINUOUS
10
61.7029
20
-53.4046
11
61.5918
21
-53.54
0
LINE
8
BLACK
6
CONTINUOUS
10
61.5918
20
-53.54
11
61.4564
21
-53.6511
0
LINE
8
BLACK
6
CONTINUOUS
10
61.4564
20
-53.6511
11
61.3019
21
-53.7337
0
LINE
8
BLACK
6
CONTINUOUS
10
61.3019
20
-53.7337
11
61.3019
21
-53.7337
0
LINE
8
BLACK
6
CONTINUOUS
10
61.3019
20
-53.7337
11
61.1343
21
-53.7845
0
LINE
8
BLACK
6
CONTINUOUS
10
61.1343
20
-53.7845
11
60.96
21
-53.8017
0
LINE
8
BLACK
6
CONTINUOUS
10
60.96
20
-53.8017
11
60.7857
21
-53.7845
0
LINE
8
BLACK
6
CONTINUOUS
10
60.7857
20
-53.7845
11
60.6181
21
-53.7337
0
LINE
8
BLACK
6
CONTINUOUS
10
60.6181
20
-53.7337
11
60.6181
21
-53.7337
0
LINE
8
BLACK
6
CONTINUOUS
10
60.6181
20
-53.7337
11
60.4636
21
-53.6511
0
LINE
8
BLACK
6
CONTINUOUS
10
60.4636
20
-53.6511
11
60.3282
21
-53.54
0
LINE
8
BLACK
6
CONTINUOUS
10
60.3282
20
-53.54
11
60.2171
21
-53.4046
0
LINE
8
BLACK
6
CONTINUOUS
10
60.2171
20
-53.4046
11
60.1345
21
-53.2501
0
LINE
8
BLACK
6
CONTINUOUS
10
60.1345
20
-53.2501
11
60.1154
21
-53.1872
0
LINE
8
BLACK
6
CONTINUOUS
10
60.1154
20
-53.1872
11
60.0837
21
-53.0825
0
LINE
8
BLACK
6
CONTINUOUS
10
60.0837
20
-53.0825
11
60.0708
21
-52.9519
0
LINE
8
BLACK
6
CONTINUOUS
10
60.0708
20
-52.9519
11
60.0708
21
-51.1881
0
LINE
8
BLACK
6
CONTINUOUS
10
60.0708
20
-51.1881
11
60.0837
21
-51.0575
0
LINE
8
BLACK
6
CONTINUOUS
10
60.0837
20
-51.0575
11
60.1345
21
-50.8899
0
LINE
8
BLACK
6
CONTINUOUS
10
60.1345
20
-50.8899
11
60.2171
21
-50.7354
0
LINE
8
BLACK
6
CONTINUOUS
10
60.2171
20
-50.7354
11
60.2171
21
-50.7354
0
LINE
8
BLACK
6
CONTINUOUS
10
60.2171
20
-50.7354
11
60.3282
21
-50.6
0
LINE
8
BLACK
6
CONTINUOUS
10
60.3282
20
-50.6
11
60.4636
21
-50.4889
0
LINE
8
BLACK
6
CONTINUOUS
10
60.4636
20
-50.4889
11
60.6181
21
-50.4063
0
LINE
8
BLACK
6
CONTINUOUS
10
60.6181
20
-50.4063
11
60.6181
21
-50.4063
0
LINE
8
BLACK
6
CONTINUOUS
10
60.6181
20
-50.4063
11
60.7857
21
-50.3555
0
LINE
8
BLACK
6
CONTINUOUS
10
60.7857
20
-50.3555
11
60.96
21
-50.3383
0
LINE
8
BLACK
6
CONTINUOUS
10
60.96
20
-50.3383
11
61.1343
21
-50.3555
0
LINE
8
BLACK
6
CONTINUOUS
10
58.5943
20
-50.3555
11
58.7619
21
-50.4063
0
LINE
8
BLACK
6
CONTINUOUS
10
58.7619
20
-50.4063
11
58.9164
21
-50.4889
0
LINE
8
BLACK
6
CONTINUOUS
10
58.9164
20
-50.4889
11
59.0518
21
-50.6
0
LINE
8
BLACK
6
CONTINUOUS
10
59.0518
20
-50.6
11
59.1629
21
-50.7354
0
LINE
8
BLACK
6
CONTINUOUS
10
59.1629
20
-50.7354
11
59.2455
21
-50.8899
0
LINE
8
BLACK
6
CONTINUOUS
10
59.2455
20
-50.8899
11
59.2455
21
-50.8899
0
LINE
8
BLACK
6
CONTINUOUS
10
59.2455
20
-50.8899
11
59.2963
21
-51.0575
0
LINE
8
BLACK
6
CONTINUOUS
10
59.2963
20
-51.0575
11
59.3092
21
-51.1881
0
LINE
8
BLACK
6
CONTINUOUS
10
59.3092
20
-51.1881
11
59.3092
21
-52.9519
0
LINE
8
BLACK
6
CONTINUOUS
10
59.3092
20
-52.9519
11
59.2963
21
-53.0825
0
LINE
8
BLACK
6
CONTINUOUS
10
59.2963
20
-53.0825
11
59.2646
21
-53.1872
0
LINE
8
BLACK
6
CONTINUOUS
10
59.2646
20
-53.1872
11
59.2455
21
-53.2501
0
LINE
8
BLACK
6
CONTINUOUS
10
59.2455
20
-53.2501
11
59.1629
21
-53.4046
0
LINE
8
BLACK
6
CONTINUOUS
10
59.1629
20
-53.4046
11
59.0518
21
-53.54
0
LINE
8
BLACK
6
CONTINUOUS
10
59.0518
20
-53.54
11
58.9164
21
-53.6511
0
LINE
8
BLACK
6
CONTINUOUS
10
58.9164
20
-53.6511
11
58.7619
21
-53.7337
0
LINE
8
BLACK
6
CONTINUOUS
10
58.7619
20
-53.7337
11
58.7619
21
-53.7337
0
LINE
8
BLACK
6
CONTINUOUS
10
58.7619
20
-53.7337
11
58.5943
21
-53.7845
0
LINE
8
BLACK
6
CONTINUOUS
10
58.5943
20
-53.7845
11
58.42
21
-53.8017
0
LINE
8
BLACK
6
CONTINUOUS
10
58.42
20
-53.8017
11
58.2457
21
-53.7845
0
LINE
8
BLACK
6
CONTINUOUS
10
58.2457
20
-53.7845
11
58.0781
21
-53.7337
0
LINE
8
BLACK
6
CONTINUOUS
10
58.0781
20
-53.7337
11
58.0781
21
-53.7337
0
LINE
8
BLACK
6
CONTINUOUS
10
58.0781
20
-53.7337
11
57.9236
21
-53.6511
0
LINE
8
BLACK
6
CONTINUOUS
10
57.9236
20
-53.6511
11
57.7882
21
-53.54
0
LINE
8
BLACK
6
CONTINUOUS
10
57.7882
20
-53.54
11
57.6771
21
-53.4046
0
LINE
8
BLACK
6
CONTINUOUS
10
57.6771
20
-53.4046
11
57.5945
21
-53.2501
0
LINE
8
BLACK
6
CONTINUOUS
10
57.5945
20
-53.2501
11
57.5754
21
-53.1872
0
LINE
8
BLACK
6
CONTINUOUS
10
57.5754
20
-53.1872
11
57.5437
21
-53.0825
0
LINE
8
BLACK
6
CONTINUOUS
10
57.5437
20
-53.0825
11
57.5308
21
-52.9519
0
LINE
8
BLACK
6
CONTINUOUS
10
57.5308
20
-52.9519
11
57.5308
21
-51.1881
0
LINE
8
BLACK
6
CONTINUOUS
10
57.5308
20
-51.1881
11
57.5437
21
-51.0575
0
LINE
8
BLACK
6
CONTINUOUS
10
57.5437
20
-51.0575
11
57.5945
21
-50.8899
0
LINE
8
BLACK
6
CONTINUOUS
10
57.5945
20
-50.8899
11
57.6771
21
-50.7354
0
LINE
8
BLACK
6
CONTINUOUS
10
57.6771
20
-50.7354
11
57.6771
21
-50.7354
0
LINE
8
BLACK
6
CONTINUOUS
10
57.6771
20
-50.7354
11
57.7882
21
-50.6
0
LINE
8
BLACK
6
CONTINUOUS
10
57.7882
20
-50.6
11
57.9236
21
-50.4889
0
LINE
8
BLACK
6
CONTINUOUS
10
57.9236
20
-50.4889
11
58.0781
21
-50.4063
0
LINE
8
BLACK
6
CONTINUOUS
10
58.0781
20
-50.4063
11
58.0781
21
-50.4063
0
LINE
8
BLACK
6
CONTINUOUS
10
58.0781
20
-50.4063
11
58.2457
21
-50.3555
0
LINE
8
BLACK
6
CONTINUOUS
10
58.2457
20
-50.3555
11
58.42
21
-50.3383
0
LINE
8
BLACK
6
CONTINUOUS
10
58.42
20
-50.3383
11
58.5943
21
-50.3555
0
LINE
8
BLACK
6
CONTINUOUS
10
56.0543
20
-50.3555
11
56.2219
21
-50.4063
0
LINE
8
BLACK
6
CONTINUOUS
10
56.2219
20
-50.4063
11
56.3764
21
-50.4889
0
LINE
8
BLACK
6
CONTINUOUS
10
56.3764
20
-50.4889
11
56.5118
21
-50.6
0
LINE
8
BLACK
6
CONTINUOUS
10
56.5118
20
-50.6
11
56.6229
21
-50.7354
0
LINE
8
BLACK
6
CONTINUOUS
10
56.6229
20
-50.7354
11
56.7055
21
-50.8899
0
LINE
8
BLACK
6
CONTINUOUS
10
56.7055
20
-50.8899
11
56.7055
21
-50.8899
0
LINE
8
BLACK
6
CONTINUOUS
10
56.7055
20
-50.8899
11
56.7563
21
-51.0575
0
LINE
8
BLACK
6
CONTINUOUS
10
56.7563
20
-51.0575
11
56.7692
21
-51.1881
0
LINE
8
BLACK
6
CONTINUOUS
10
56.7692
20
-51.1881
11
56.7692
21
-52.9519
0
LINE
8
BLACK
6
CONTINUOUS
10
56.7692
20
-52.9519
11
56.7563
21
-53.0825
0
LINE
8
BLACK
6
CONTINUOUS
10
56.7563
20
-53.0825
11
56.7246
21
-53.1872
0
LINE
8
BLACK
6
CONTINUOUS
10
56.7246
20
-53.1872
11
56.7055
21
-53.2501
0
LINE
8
BLACK
6
CONTINUOUS
10
56.7055
20
-53.2501
11
56.6229
21
-53.4046
0
LINE
8
BLACK
6
CONTINUOUS
10
56.6229
20
-53.4046
11
56.5118
21
-53.54
0
LINE
8
BLACK
6
CONTINUOUS
10
56.5118
20
-53.54
11
56.3764
21
-53.6511
0
LINE
8
BLACK
6
CONTINUOUS
10
56.3764
20
-53.6511
11
56.2219
21
-53.7337
0
LINE
8
BLACK
6
CONTINUOUS
10
56.2219
20
-53.7337
11
56.2219
21
-53.7337
0
LINE
8
BLACK
6
CONTINUOUS
10
56.2219
20
-53.7337
11
56.0543
21
-53.7845
0
LINE
8
BLACK
6
CONTINUOUS
10
56.0543
20
-53.7845
11
55.88
21
-53.8017
0
LINE
8
BLACK
6
CONTINUOUS
10
55.88
20
-53.8017
11
55.7057
21
-53.7845
0
LINE
8
BLACK
6
CONTINUOUS
10
55.7057
20
-53.7845
11
55.5381
21
-53.7337
0
LINE
8
BLACK
6
CONTINUOUS
10
55.5381
20
-53.7337
11
55.5381
21
-53.7337
0
LINE
8
BLACK
6
CONTINUOUS
10
55.5381
20
-53.7337
11
55.3836
21
-53.6511
0
LINE
8
BLACK
6
CONTINUOUS
10
55.3836
20
-53.6511
11
55.2482
21
-53.54
0
LINE
8
BLACK
6
CONTINUOUS
10
55.2482
20
-53.54
11
55.1371
21
-53.4046
0
LINE
8
BLACK
6
CONTINUOUS
10
55.1371
20
-53.4046
11
55.0545
21
-53.2501
0
LINE
8
BLACK
6
CONTINUOUS
10
55.0545
20
-53.2501
11
55.0354
21
-53.1872
0
LINE
8
BLACK
6
CONTINUOUS
10
55.0354
20
-53.1872
11
55.0037
21
-53.0825
0
LINE
8
BLACK
6
CONTINUOUS
10
55.0037
20
-53.0825
11
54.9908
21
-52.9519
0
LINE
8
BLACK
6
CONTINUOUS
10
54.9908
20
-52.9519
11
54.9908
21
-51.1881
0
LINE
8
BLACK
6
CONTINUOUS
10
54.9908
20
-51.1881
11
55.0037
21
-51.0575
0
LINE
8
BLACK
6
CONTINUOUS
10
55.0037
20
-51.0575
11
55.0545
21
-50.8899
0
LINE
8
BLACK
6
CONTINUOUS
10
55.0545
20
-50.8899
11
55.1371
21
-50.7354
0
LINE
8
BLACK
6
CONTINUOUS
10
55.1371
20
-50.7354
11
55.1371
21
-50.7354
0
LINE
8
BLACK
6
CONTINUOUS
10
55.1371
20
-50.7354
11
55.2482
21
-50.6
0
LINE
8
BLACK
6
CONTINUOUS
10
55.2482
20
-50.6
11
55.3836
21
-50.4889
0
LINE
8
BLACK
6
CONTINUOUS
10
55.3836
20
-50.4889
11
55.5381
21
-50.4063
0
LINE
8
BLACK
6
CONTINUOUS
10
55.5381
20
-50.4063
11
55.5381
21
-50.4063
0
LINE
8
BLACK
6
CONTINUOUS
10
55.5381
20
-50.4063
11
55.7057
21
-50.3555
0
LINE
8
BLACK
6
CONTINUOUS
10
55.7057
20
-50.3555
11
55.88
21
-50.3383
0
LINE
8
BLACK
6
CONTINUOUS
10
55.88
20
-50.3383
11
56.0543
21
-50.3555
0
LINE
8
BLACK
6
CONTINUOUS
10
71.401
20
-49.811
11
68.299
21
-49.811
0
LINE
8
BLACK
6
CONTINUOUS
10
68.299
20
-49.811
11
68.299
21
-46.709
0
LINE
8
BLACK
6
CONTINUOUS
10
68.299
20
-46.709
11
71.401
21
-46.709
0
LINE
8
BLACK
6
CONTINUOUS
10
71.401
20
-46.709
11
71.401
21
-49.811
0
LINE
8
BLACK
6
CONTINUOUS
10
58.8068
20
-32.8856
11
58.9165
21
-32.9074
0
LINE
8
BLACK
6
CONTINUOUS
10
58.9165
20
-32.9074
11
59.2262
21
-33.0357
0
LINE
8
BLACK
6
CONTINUOUS
10
59.2262
20
-33.0357
11
59.505
21
-33.222
0
LINE
8
BLACK
6
CONTINUOUS
10
59.505
20
-33.222
11
59.742
21
-33.459
0
LINE
8
BLACK
6
CONTINUOUS
10
59.742
20
-33.459
11
59.9283
21
-33.7378
0
LINE
8
BLACK
6
CONTINUOUS
10
59.9283
20
-33.7378
11
60.0566
21
-34.0475
0
LINE
8
BLACK
6
CONTINUOUS
10
60.0566
20
-34.0475
11
60.122
21
-34.3764
0
LINE
8
BLACK
6
CONTINUOUS
10
60.122
20
-34.3764
11
60.122
21
-34.7116
0
LINE
8
BLACK
6
CONTINUOUS
10
60.122
20
-34.7116
11
60.0566
21
-35.0405
0
LINE
8
BLACK
6
CONTINUOUS
10
60.0566
20
-35.0405
11
59.9283
21
-35.3502
0
LINE
8
BLACK
6
CONTINUOUS
10
59.9283
20
-35.3502
11
59.742
21
-35.629
0
LINE
8
BLACK
6
CONTINUOUS
10
59.742
20
-35.629
11
59.505
21
-35.866
0
LINE
8
BLACK
6
CONTINUOUS
10
59.505
20
-35.866
11
59.2262
21
-36.0523
0
LINE
8
BLACK
6
CONTINUOUS
10
59.2262
20
-36.0523
11
58.9165
21
-36.1806
0
LINE
8
BLACK
6
CONTINUOUS
10
58.9165
20
-36.1806
11
58.8068
21
-36.2024
0
LINE
8
BLACK
6
CONTINUOUS
10
58.8068
20
-36.2024
11
58.5876
21
-36.246
0
LINE
8
BLACK
6
CONTINUOUS
10
58.5876
20
-36.246
11
58.2524
21
-36.246
0
LINE
8
BLACK
6
CONTINUOUS
10
58.2524
20
-36.246
11
58.0332
21
-36.2024
0
LINE
8
BLACK
6
CONTINUOUS
10
58.0332
20
-36.2024
11
57.9235
21
-36.1806
0
LINE
8
BLACK
6
CONTINUOUS
10
57.9235
20
-36.1806
11
57.6138
21
-36.0523
0
LINE
8
BLACK
6
CONTINUOUS
10
57.6138
20
-36.0523
11
57.335
21
-35.866
0
LINE
8
BLACK
6
CONTINUOUS
10
57.335
20
-35.866
11
57.098
21
-35.629
0
LINE
8
BLACK
6
CONTINUOUS
10
57.098
20
-35.629
11
56.9117
21
-35.3502
0
LINE
8
BLACK
6
CONTINUOUS
10
56.9117
20
-35.3502
11
56.7834
21
-35.0405
0
LINE
8
BLACK
6
CONTINUOUS
10
56.7834
20
-35.0405
11
56.718
21
-34.7116
0
LINE
8
BLACK
6
CONTINUOUS
10
56.718
20
-34.7116
11
56.718
21
-34.3764
0
LINE
8
BLACK
6
CONTINUOUS
10
56.718
20
-34.3764
11
56.7834
21
-34.0475
0
LINE
8
BLACK
6
CONTINUOUS
10
56.7834
20
-34.0475
11
56.9117
21
-33.7378
0
LINE
8
BLACK
6
CONTINUOUS
10
56.9117
20
-33.7378
11
57.098
21
-33.459
0
LINE
8
BLACK
6
CONTINUOUS
10
57.098
20
-33.459
11
57.335
21
-33.222
0
LINE
8
BLACK
6
CONTINUOUS
10
57.335
20
-33.222
11
57.6138
21
-33.0357
0
LINE
8
BLACK
6
CONTINUOUS
10
57.6138
20
-33.0357
11
57.9235
21
-32.9074
0
LINE
8
BLACK
6
CONTINUOUS
10
57.9235
20
-32.9074
11
58.0332
21
-32.8856
0
LINE
8
BLACK
6
CONTINUOUS
10
58.0332
20
-32.8856
11
58.2524
21
-32.842
0
LINE
8
BLACK
6
CONTINUOUS
10
58.2524
20
-32.842
11
58.5876
21
-32.842
0
LINE
8
BLACK
6
CONTINUOUS
10
58.5876
20
-32.842
11
58.8068
21
-32.8856
  0
ENDSEC
  0
EOF
