G04 #@! TF.GenerationSoftware,KiCad,Pcbnew,(5.1.4)-1*
G04 #@! TF.CreationDate,2019-09-01T07:43:14-07:00*
G04 #@! TF.ProjectId,lm7805,6c6d3738-3035-42e6-9b69-6361645f7063,rev?*
G04 #@! TF.SameCoordinates,Original*
G04 #@! TF.FileFunction,Legend,Top*
G04 #@! TF.FilePolarity,Positive*
%FSLAX46Y46*%
G04 Gerber Fmt 4.6, Leading zero omitted, Abs format (unit mm)*
G04 Created by KiCad (PCBNEW (5.1.4)-1) date 2019-09-01 07:43:14*
%MOMM*%
%LPD*%
G04 APERTURE LIST*
%ADD10C,0.120000*%
%ADD11C,0.127000*%
%ADD12C,0.050800*%
%ADD13C,0.100000*%
%ADD14C,0.150000*%
%ADD15C,0.050000*%
G04 APERTURE END LIST*
D10*
X57300000Y-56380000D02*
X57300000Y-60420000D01*
X54460000Y-56380000D02*
X54460000Y-60420000D01*
X57300000Y-56380000D02*
X56675000Y-56380000D01*
X55085000Y-56380000D02*
X54460000Y-56380000D01*
X57300000Y-60420000D02*
X56675000Y-60420000D01*
X55085000Y-60420000D02*
X54460000Y-60420000D01*
X60165000Y-60420000D02*
X59540000Y-60420000D01*
X62380000Y-60420000D02*
X61755000Y-60420000D01*
X60165000Y-56380000D02*
X59540000Y-56380000D01*
X62380000Y-56380000D02*
X61755000Y-56380000D01*
X59540000Y-56380000D02*
X59540000Y-60420000D01*
X62380000Y-56380000D02*
X62380000Y-60420000D01*
X52070000Y-50800000D02*
X52070000Y-60960000D01*
X53340000Y-50800000D02*
X45720000Y-50800000D01*
X45720000Y-50800000D02*
X45720000Y-60960000D01*
X45720000Y-60960000D02*
X53340000Y-60960000D01*
X53340000Y-60960000D02*
X53340000Y-50800000D01*
X73660000Y-45720000D02*
X66040000Y-45720000D01*
X66040000Y-66040000D02*
X73660000Y-66040000D01*
X67310000Y-66040000D02*
X67310000Y-45720000D01*
X73660000Y-45720000D02*
X73660000Y-66040000D01*
X66040000Y-45720000D02*
X66040000Y-66040000D01*
D11*
X53213000Y-46990000D02*
X63627000Y-46990000D01*
X63627000Y-31115000D02*
X53213000Y-31115000D01*
X63627000Y-46990000D02*
X63627000Y-34544000D01*
X63627000Y-33020000D02*
X63627000Y-31115000D01*
X53213000Y-46990000D02*
X53213000Y-34544000D01*
X53213000Y-33020000D02*
X53213000Y-31115000D01*
D12*
X53848000Y-46355000D02*
X62992000Y-46355000D01*
X62992000Y-38100000D02*
X62992000Y-46355000D01*
X62992000Y-38100000D02*
X53848000Y-38100000D01*
X53848000Y-46355000D02*
X53848000Y-38100000D01*
D11*
X60223400Y-34544000D02*
G75*
G03X60223400Y-34544000I-1803400J0D01*
G01*
D13*
G36*
X60579740Y-49784000D02*
G01*
X61341000Y-49784000D01*
X61341000Y-50420610D01*
X60579740Y-50420610D01*
X60579740Y-49784000D01*
G37*
G36*
X58038823Y-49784000D02*
G01*
X58801000Y-49784000D01*
X58801000Y-50421190D01*
X58038823Y-50421190D01*
X58038823Y-49784000D01*
G37*
G36*
X55497710Y-49784000D02*
G01*
X56261000Y-49784000D01*
X56261000Y-50421080D01*
X55497710Y-50421080D01*
X55497710Y-49784000D01*
G37*
G36*
X55239460Y-46990000D02*
G01*
X56515000Y-46990000D01*
X56515000Y-49791090D01*
X55239460Y-49791090D01*
X55239460Y-46990000D01*
G37*
G36*
X57784119Y-46990000D02*
G01*
X59055000Y-46990000D01*
X59055000Y-49789640D01*
X57784119Y-49789640D01*
X57784119Y-46990000D01*
G37*
G36*
X60327130Y-46990000D02*
G01*
X61595000Y-46990000D01*
X61595000Y-49788550D01*
X60327130Y-49788550D01*
X60327130Y-46990000D01*
G37*
X60021000Y-34544000D02*
G75*
G03X60021000Y-34544000I-1601000J0D01*
G01*
D14*
X58787142Y-58566666D02*
X58834761Y-58614285D01*
X58882380Y-58757142D01*
X58882380Y-58852380D01*
X58834761Y-58995238D01*
X58739523Y-59090476D01*
X58644285Y-59138095D01*
X58453809Y-59185714D01*
X58310952Y-59185714D01*
X58120476Y-59138095D01*
X58025238Y-59090476D01*
X57930000Y-58995238D01*
X57882380Y-58852380D01*
X57882380Y-58757142D01*
X57930000Y-58614285D01*
X57977619Y-58566666D01*
X58882380Y-57614285D02*
X58882380Y-58185714D01*
X58882380Y-57900000D02*
X57882380Y-57900000D01*
X58025238Y-57995238D01*
X58120476Y-58090476D01*
X58168095Y-58185714D01*
X63867142Y-58566666D02*
X63914761Y-58614285D01*
X63962380Y-58757142D01*
X63962380Y-58852380D01*
X63914761Y-58995238D01*
X63819523Y-59090476D01*
X63724285Y-59138095D01*
X63533809Y-59185714D01*
X63390952Y-59185714D01*
X63200476Y-59138095D01*
X63105238Y-59090476D01*
X63010000Y-58995238D01*
X62962380Y-58852380D01*
X62962380Y-58757142D01*
X63010000Y-58614285D01*
X63057619Y-58566666D01*
X63057619Y-58185714D02*
X63010000Y-58138095D01*
X62962380Y-58042857D01*
X62962380Y-57804761D01*
X63010000Y-57709523D01*
X63057619Y-57661904D01*
X63152857Y-57614285D01*
X63248095Y-57614285D01*
X63390952Y-57661904D01*
X63962380Y-58233333D01*
X63962380Y-57614285D01*
X43902380Y-56213333D02*
X44616666Y-56213333D01*
X44759523Y-56260952D01*
X44854761Y-56356190D01*
X44902380Y-56499047D01*
X44902380Y-56594285D01*
X44902380Y-55213333D02*
X44902380Y-55784761D01*
X44902380Y-55499047D02*
X43902380Y-55499047D01*
X44045238Y-55594285D01*
X44140476Y-55689523D01*
X44188095Y-55784761D01*
X74102380Y-56193333D02*
X74816666Y-56193333D01*
X74959523Y-56240952D01*
X75054761Y-56336190D01*
X75102380Y-56479047D01*
X75102380Y-56574285D01*
X74197619Y-55764761D02*
X74150000Y-55717142D01*
X74102380Y-55621904D01*
X74102380Y-55383809D01*
X74150000Y-55288571D01*
X74197619Y-55240952D01*
X74292857Y-55193333D01*
X74388095Y-55193333D01*
X74530952Y-55240952D01*
X75102380Y-55812380D01*
X75102380Y-55193333D01*
D15*
X57097391Y-38847280D02*
X57097391Y-39982273D01*
X57164155Y-40115802D01*
X57230920Y-40182566D01*
X57364448Y-40249330D01*
X57631505Y-40249330D01*
X57765034Y-40182566D01*
X57831798Y-40115802D01*
X57898562Y-39982273D01*
X57898562Y-38847280D01*
X59300612Y-40249330D02*
X58499441Y-40249330D01*
X58900027Y-40249330D02*
X58900027Y-38847280D01*
X58766498Y-39047573D01*
X58632970Y-39181102D01*
X58499441Y-39247866D01*
X55892765Y-42922212D02*
X55225593Y-42922212D01*
X55225593Y-41521152D01*
X56359785Y-42922212D02*
X56359785Y-41521152D01*
X56826805Y-42521910D01*
X57293825Y-41521152D01*
X57293825Y-42922212D01*
X57827562Y-41521152D02*
X58761602Y-41521152D01*
X58161147Y-42922212D01*
X59495490Y-42121607D02*
X59362056Y-42054890D01*
X59295339Y-41988172D01*
X59228622Y-41854738D01*
X59228622Y-41788021D01*
X59295339Y-41654587D01*
X59362056Y-41587870D01*
X59495490Y-41521152D01*
X59762359Y-41521152D01*
X59895793Y-41587870D01*
X59962510Y-41654587D01*
X60029227Y-41788021D01*
X60029227Y-41854738D01*
X59962510Y-41988172D01*
X59895793Y-42054890D01*
X59762359Y-42121607D01*
X59495490Y-42121607D01*
X59362056Y-42188324D01*
X59295339Y-42255041D01*
X59228622Y-42388475D01*
X59228622Y-42655344D01*
X59295339Y-42788778D01*
X59362056Y-42855495D01*
X59495490Y-42922212D01*
X59762359Y-42922212D01*
X59895793Y-42855495D01*
X59962510Y-42788778D01*
X60029227Y-42655344D01*
X60029227Y-42388475D01*
X59962510Y-42255041D01*
X59895793Y-42188324D01*
X59762359Y-42121607D01*
X60896550Y-41521152D02*
X61029985Y-41521152D01*
X61163419Y-41587870D01*
X61230136Y-41654587D01*
X61296853Y-41788021D01*
X61363570Y-42054890D01*
X61363570Y-42388475D01*
X61296853Y-42655344D01*
X61230136Y-42788778D01*
X61163419Y-42855495D01*
X61029985Y-42922212D01*
X60896550Y-42922212D01*
X60763116Y-42855495D01*
X60696399Y-42788778D01*
X60629682Y-42655344D01*
X60562965Y-42388475D01*
X60562965Y-42054890D01*
X60629682Y-41788021D01*
X60696399Y-41654587D01*
X60763116Y-41587870D01*
X60896550Y-41521152D01*
X62631196Y-41521152D02*
X61964025Y-41521152D01*
X61897307Y-42188324D01*
X61964025Y-42121607D01*
X62097459Y-42054890D01*
X62431045Y-42054890D01*
X62564479Y-42121607D01*
X62631196Y-42188324D01*
X62697913Y-42321758D01*
X62697913Y-42655344D01*
X62631196Y-42788778D01*
X62564479Y-42855495D01*
X62431045Y-42922212D01*
X62097459Y-42922212D01*
X61964025Y-42855495D01*
X61897307Y-42788778D01*
M02*
