G04 #@! TF.GenerationSoftware,KiCad,Pcbnew,(5.1.4)-1*
G04 #@! TF.CreationDate,2019-09-01T07:43:14-07:00*
G04 #@! TF.ProjectId,lm7805,6c6d3738-3035-42e6-9b69-6361645f7063,rev?*
G04 #@! TF.SameCoordinates,Original*
G04 #@! TF.FileFunction,Profile,NP*
%FSLAX46Y46*%
G04 Gerber Fmt 4.6, Leading zero omitted, Abs format (unit mm)*
G04 Created by KiCad (PCBNEW (5.1.4)-1) date 2019-09-01 07:43:14*
%MOMM*%
%LPD*%
G04 APERTURE LIST*
%ADD10C,0.050000*%
G04 APERTURE END LIST*
D10*
X41910000Y-69850000D02*
X41910000Y-41910000D01*
X78740000Y-69850000D02*
X41910000Y-69850000D01*
X78740000Y-41910000D02*
X78740000Y-69850000D01*
X77470000Y-41910000D02*
X78740000Y-41910000D01*
X41910000Y-41910000D02*
X77470000Y-41910000D01*
X55524644Y-46172380D02*
X54953215Y-46172380D01*
X55238930Y-46172380D02*
X55238930Y-45172380D01*
X55143691Y-45315238D01*
X55048453Y-45410476D01*
X54953215Y-45458095D01*
X57498292Y-45267619D02*
X57545911Y-45220000D01*
X57641149Y-45172380D01*
X57879245Y-45172380D01*
X57974483Y-45220000D01*
X58022102Y-45267619D01*
X58069721Y-45362857D01*
X58069721Y-45458095D01*
X58022102Y-45600952D01*
X57450673Y-46172380D01*
X58069721Y-46172380D01*
X59992086Y-45172380D02*
X60611134Y-45172380D01*
X60277800Y-45553333D01*
X60420658Y-45553333D01*
X60515896Y-45600952D01*
X60563515Y-45648571D01*
X60611134Y-45743809D01*
X60611134Y-45981904D01*
X60563515Y-46077142D01*
X60515896Y-46124761D01*
X60420658Y-46172380D01*
X60134943Y-46172380D01*
X60039705Y-46124761D01*
X59992086Y-46077142D01*
M02*
