  0
SECTION
  2
HEADER
  9
$ANGBASE
  50
0.0
  9
$ANGDIR
  70
1
  9
$MEASUREMENT
  70
1
  0
ENDSEC
  0
SECTION
  2
TABLES
  0
TABLE
  2
LTYPE
  70
4
  0
LTYPE
  5
40F
  2
CONTINUOUS
  70
0
  3
Solid line
  72
65
  73
0
  40
0.0
  0
LTYPE
  5
410
  2
DASHDOT
 70
0
  3
Dash Dot ____ _ ____ _
 72
65
 73
4
 40
2.0
 49
1.25
 49
-0.25
 49
0.25
 49
-0.25
  0
LTYPE
  5
411
  2
DASHED
 70
0
  3
Dashed __ __ __ __ __
 72
65
 73
2
 40
0.75
 49
0.5
 49
-0.25
  0
LTYPE
  5
43B
  2
DOTTED
 70
0
  3
Dotted .  .  .  .
 72
65
 73
2
 40
0.2
 49
0.0
 49
-0.2
  0
ENDTAB
  0
TABLE
  2
STYLE
  70
4
  0
STYLE
  2
KICAD
  70
0
  40
0
  41
1
  42
1
  50
0
  71
0
  3
isocp.shx
  0
STYLE
  2
KICADB
  70
0
  40
0
  41
1
  42
1
  50
0
  71
0
  3
isocp.shx
  0
STYLE
  2
KICADI
  70
0
  40
0
  41
1
  42
1
  50
15
  71
0
  3
isocp.shx
  0
STYLE
  2
KICADBI
  70
0
  40
0
  41
1
  42
1
  50
15
  71
0
  3
isocp.shx
  0
ENDTAB
  0
TABLE
  2
LAYER
  70
1
  0
LAYER
  2
BLACK
  70
0
  62
7
  6
CONTINUOUS
  0
ENDTAB
  0
ENDSEC
  0
SECTION
  2
ENTITIES
0
LINE
8
BLACK
6
CONTINUOUS
10
58.5843
20
-50.4057
11
58.7423
21
-50.4537
0
LINE
8
BLACK
6
CONTINUOUS
10
58.7423
20
-50.4537
11
58.8879
21
-50.5315
0
LINE
8
BLACK
6
CONTINUOUS
10
58.8879
20
-50.5315
11
59.0156
21
-50.6362
0
LINE
8
BLACK
6
CONTINUOUS
10
59.0156
20
-50.6362
11
59.1203
21
-50.7639
0
LINE
8
BLACK
6
CONTINUOUS
10
59.1203
20
-50.7639
11
59.1981
21
-50.9095
0
LINE
8
BLACK
6
CONTINUOUS
10
59.1981
20
-50.9095
11
59.2461
21
-51.0675
0
LINE
8
BLACK
6
CONTINUOUS
10
59.2461
20
-51.0675
11
59.2582
21
-51.1906
0
LINE
8
BLACK
6
CONTINUOUS
10
59.2582
20
-51.1906
11
59.2582
21
-52.9494
0
LINE
8
BLACK
6
CONTINUOUS
10
59.2582
20
-52.9494
11
59.2461
21
-53.0725
0
LINE
8
BLACK
6
CONTINUOUS
10
59.2461
20
-53.0725
11
59.1981
21
-53.2305
0
LINE
8
BLACK
6
CONTINUOUS
10
59.1981
20
-53.2305
11
59.1203
21
-53.3761
0
LINE
8
BLACK
6
CONTINUOUS
10
59.1203
20
-53.3761
11
59.02
21
-53.4984
0
LINE
8
BLACK
6
CONTINUOUS
10
59.02
20
-53.4984
11
59.02
21
-57.0805
0
LINE
8
BLACK
6
CONTINUOUS
10
59.02
20
-57.0805
11
59.0229
21
-57.11
0
LINE
8
BLACK
6
CONTINUOUS
10
59.0229
20
-57.11
11
59.02
21
-57.1395
0
LINE
8
BLACK
6
CONTINUOUS
10
59.02
20
-57.1395
11
59.02
21
-57.1395
0
LINE
8
BLACK
6
CONTINUOUS
10
59.02
20
-57.1395
11
59.0113
21
-57.2276
0
LINE
8
BLACK
6
CONTINUOUS
10
59.0113
20
-57.2276
11
58.977
21
-57.3407
0
LINE
8
BLACK
6
CONTINUOUS
10
58.977
20
-57.3407
11
58.9213
21
-57.445
0
LINE
8
BLACK
6
CONTINUOUS
10
58.9213
20
-57.445
11
58.8463
21
-57.5363
0
LINE
8
BLACK
6
CONTINUOUS
10
58.8463
20
-57.5363
11
58.8234
21
-57.5551
0
LINE
8
BLACK
6
CONTINUOUS
10
58.8234
20
-57.5551
11
57.3285
21
-59.05
0
LINE
8
BLACK
6
CONTINUOUS
10
57.3285
20
-59.05
11
60.2872
21
-59.05
0
LINE
8
BLACK
6
CONTINUOUS
10
60.2872
20
-59.05
11
60.3863
21
-58.9509
0
LINE
8
BLACK
6
CONTINUOUS
10
60.3863
20
-58.9509
11
60.5337
21
-58.8524
0
LINE
8
BLACK
6
CONTINUOUS
10
60.5337
20
-58.8524
11
60.6975
21
-58.7846
0
LINE
8
BLACK
6
CONTINUOUS
10
60.6975
20
-58.7846
11
60.8714
21
-58.75
0
LINE
8
BLACK
6
CONTINUOUS
10
60.8714
20
-58.75
11
61.0486
21
-58.75
0
LINE
8
BLACK
6
CONTINUOUS
10
61.0486
20
-58.75
11
61.2225
21
-58.7846
0
LINE
8
BLACK
6
CONTINUOUS
10
61.2225
20
-58.7846
11
61.3863
21
-58.8524
0
LINE
8
BLACK
6
CONTINUOUS
10
61.3863
20
-58.8524
11
61.5337
21
-58.9509
0
LINE
8
BLACK
6
CONTINUOUS
10
61.5337
20
-58.9509
11
61.6591
21
-59.0763
0
LINE
8
BLACK
6
CONTINUOUS
10
61.6591
20
-59.0763
11
61.7576
21
-59.2237
0
LINE
8
BLACK
6
CONTINUOUS
10
61.7576
20
-59.2237
11
61.8254
21
-59.3875
0
LINE
8
BLACK
6
CONTINUOUS
10
61.8254
20
-59.3875
11
61.86
21
-59.5614
0
LINE
8
BLACK
6
CONTINUOUS
10
61.86
20
-59.5614
11
61.86
21
-59.7386
0
LINE
8
BLACK
6
CONTINUOUS
10
61.86
20
-59.7386
11
61.8254
21
-59.9125
0
LINE
8
BLACK
6
CONTINUOUS
10
61.8254
20
-59.9125
11
61.7576
21
-60.0763
0
LINE
8
BLACK
6
CONTINUOUS
10
61.7576
20
-60.0763
11
61.6591
21
-60.2237
0
LINE
8
BLACK
6
CONTINUOUS
10
61.6591
20
-60.2237
11
61.56
21
-60.3228
0
LINE
8
BLACK
6
CONTINUOUS
10
61.56
20
-60.3228
11
61.56
21
-61.9815
0
LINE
8
BLACK
6
CONTINUOUS
10
61.56
20
-61.9815
11
62.4785
21
-62.9
0
LINE
8
BLACK
6
CONTINUOUS
10
62.4785
20
-62.9
11
68.4749
21
-62.9
0
LINE
8
BLACK
6
CONTINUOUS
10
68.4749
20
-62.9
11
68.5207
21
-62.7895
0
LINE
8
BLACK
6
CONTINUOUS
10
68.5207
20
-62.7895
11
68.6849
21
-62.5438
0
LINE
8
BLACK
6
CONTINUOUS
10
68.6849
20
-62.5438
11
68.8938
21
-62.3349
0
LINE
8
BLACK
6
CONTINUOUS
10
68.8938
20
-62.3349
11
69.1395
21
-62.1707
0
LINE
8
BLACK
6
CONTINUOUS
10
69.1395
20
-62.1707
11
69.4125
21
-62.0576
0
LINE
8
BLACK
6
CONTINUOUS
10
69.4125
20
-62.0576
11
69.7023
21
-62
0
LINE
8
BLACK
6
CONTINUOUS
10
69.7023
20
-62
11
69.9977
21
-62
0
LINE
8
BLACK
6
CONTINUOUS
10
69.9977
20
-62
11
70.2875
21
-62.0576
0
LINE
8
BLACK
6
CONTINUOUS
10
70.2875
20
-62.0576
11
70.3981
21
-62.1034
0
LINE
8
BLACK
6
CONTINUOUS
10
70.3981
20
-62.1034
11
73.06
21
-59.4415
0
LINE
8
BLACK
6
CONTINUOUS
10
73.06
20
-59.4415
11
73.06
21
-54.8585
0
LINE
8
BLACK
6
CONTINUOUS
10
73.06
20
-54.8585
11
72.1415
21
-53.94
0
LINE
8
BLACK
6
CONTINUOUS
10
72.1415
20
-53.94
11
71.2251
21
-53.94
0
LINE
8
BLACK
6
CONTINUOUS
10
71.2251
20
-53.94
11
71.1793
21
-54.0505
0
LINE
8
BLACK
6
CONTINUOUS
10
71.1793
20
-54.0505
11
71.0151
21
-54.2962
0
LINE
8
BLACK
6
CONTINUOUS
10
71.0151
20
-54.2962
11
70.8062
21
-54.5051
0
LINE
8
BLACK
6
CONTINUOUS
10
70.8062
20
-54.5051
11
70.5605
21
-54.6693
0
LINE
8
BLACK
6
CONTINUOUS
10
70.5605
20
-54.6693
11
70.2875
21
-54.7824
0
LINE
8
BLACK
6
CONTINUOUS
10
70.2875
20
-54.7824
11
69.9977
21
-54.84
0
LINE
8
BLACK
6
CONTINUOUS
10
69.9977
20
-54.84
11
69.7023
21
-54.84
0
LINE
8
BLACK
6
CONTINUOUS
10
69.7023
20
-54.84
11
69.4125
21
-54.7824
0
LINE
8
BLACK
6
CONTINUOUS
10
69.4125
20
-54.7824
11
69.1395
21
-54.6693
0
LINE
8
BLACK
6
CONTINUOUS
10
69.1395
20
-54.6693
11
68.8938
21
-54.5051
0
LINE
8
BLACK
6
CONTINUOUS
10
68.8938
20
-54.5051
11
68.6849
21
-54.2962
0
LINE
8
BLACK
6
CONTINUOUS
10
68.6849
20
-54.2962
11
68.5207
21
-54.0505
0
LINE
8
BLACK
6
CONTINUOUS
10
68.5207
20
-54.0505
11
68.4076
21
-53.7775
0
LINE
8
BLACK
6
CONTINUOUS
10
68.4076
20
-53.7775
11
68.35
21
-53.4877
0
LINE
8
BLACK
6
CONTINUOUS
10
68.35
20
-53.4877
11
68.35
21
-53.1923
0
LINE
8
BLACK
6
CONTINUOUS
10
68.35
20
-53.1923
11
68.4076
21
-52.9025
0
LINE
8
BLACK
6
CONTINUOUS
10
68.4076
20
-52.9025
11
68.5207
21
-52.6295
0
LINE
8
BLACK
6
CONTINUOUS
10
68.5207
20
-52.6295
11
68.6849
21
-52.3838
0
LINE
8
BLACK
6
CONTINUOUS
10
68.6849
20
-52.3838
11
68.8938
21
-52.1749
0
LINE
8
BLACK
6
CONTINUOUS
10
68.8938
20
-52.1749
11
69.1395
21
-52.0107
0
LINE
8
BLACK
6
CONTINUOUS
10
69.1395
20
-52.0107
11
69.4125
21
-51.8976
0
LINE
8
BLACK
6
CONTINUOUS
10
69.4125
20
-51.8976
11
69.7023
21
-51.84
0
LINE
8
BLACK
6
CONTINUOUS
10
69.7023
20
-51.84
11
69.9977
21
-51.84
0
LINE
8
BLACK
6
CONTINUOUS
10
69.9977
20
-51.84
11
70.2875
21
-51.8976
0
LINE
8
BLACK
6
CONTINUOUS
10
70.2875
20
-51.8976
11
70.5605
21
-52.0107
0
LINE
8
BLACK
6
CONTINUOUS
10
70.5605
20
-52.0107
11
70.8062
21
-52.1749
0
LINE
8
BLACK
6
CONTINUOUS
10
70.8062
20
-52.1749
11
71.0151
21
-52.3838
0
LINE
8
BLACK
6
CONTINUOUS
10
71.0151
20
-52.3838
11
71.1793
21
-52.6295
0
LINE
8
BLACK
6
CONTINUOUS
10
71.1793
20
-52.6295
11
71.2251
21
-52.74
0
LINE
8
BLACK
6
CONTINUOUS
10
71.2251
20
-52.74
11
72.3605
21
-52.74
0
LINE
8
BLACK
6
CONTINUOUS
10
72.3605
20
-52.74
11
72.39
21
-52.7371
0
LINE
8
BLACK
6
CONTINUOUS
10
72.39
20
-52.7371
11
72.4195
21
-52.74
0
LINE
8
BLACK
6
CONTINUOUS
10
72.4195
20
-52.74
11
72.5076
21
-52.7487
0
LINE
8
BLACK
6
CONTINUOUS
10
72.5076
20
-52.7487
11
72.6207
21
-52.783
0
LINE
8
BLACK
6
CONTINUOUS
10
72.6207
20
-52.783
11
72.725
21
-52.8387
0
LINE
8
BLACK
6
CONTINUOUS
10
72.725
20
-52.8387
11
72.8163
21
-52.9137
0
LINE
8
BLACK
6
CONTINUOUS
10
72.8163
20
-52.9137
11
72.8351
21
-52.9366
0
LINE
8
BLACK
6
CONTINUOUS
10
72.8351
20
-52.9366
11
74.0634
21
-54.1649
0
LINE
8
BLACK
6
CONTINUOUS
10
74.0634
20
-54.1649
11
74.0863
21
-54.1837
0
LINE
8
BLACK
6
CONTINUOUS
10
74.0863
20
-54.1837
11
74.1613
21
-54.275
0
LINE
8
BLACK
6
CONTINUOUS
10
74.1613
20
-54.275
11
74.217
21
-54.3793
0
LINE
8
BLACK
6
CONTINUOUS
10
74.217
20
-54.3793
11
74.217
21
-54.3793
0
LINE
8
BLACK
6
CONTINUOUS
10
74.217
20
-54.3793
11
74.2513
21
-54.4924
0
LINE
8
BLACK
6
CONTINUOUS
10
74.2513
20
-54.4924
11
74.2629
21
-54.61
0
LINE
8
BLACK
6
CONTINUOUS
10
74.2629
20
-54.61
11
74.26
21
-54.6395
0
LINE
8
BLACK
6
CONTINUOUS
10
74.26
20
-54.6395
11
74.26
21
-59.6605
0
LINE
8
BLACK
6
CONTINUOUS
10
74.26
20
-59.6605
11
74.2629
21
-59.69
0
LINE
8
BLACK
6
CONTINUOUS
10
74.2629
20
-59.69
11
74.26
21
-59.7195
0
LINE
8
BLACK
6
CONTINUOUS
10
74.26
20
-59.7195
11
74.2513
21
-59.8076
0
LINE
8
BLACK
6
CONTINUOUS
10
74.2513
20
-59.8076
11
74.217
21
-59.9207
0
LINE
8
BLACK
6
CONTINUOUS
10
74.217
20
-59.9207
11
74.1613
21
-60.025
0
LINE
8
BLACK
6
CONTINUOUS
10
74.1613
20
-60.025
11
74.0863
21
-60.1163
0
LINE
8
BLACK
6
CONTINUOUS
10
74.0863
20
-60.1163
11
74.0634
21
-60.1351
0
LINE
8
BLACK
6
CONTINUOUS
10
74.0634
20
-60.1351
11
71.2466
21
-62.9519
0
LINE
8
BLACK
6
CONTINUOUS
10
71.2466
20
-62.9519
11
71.2924
21
-63.0625
0
LINE
8
BLACK
6
CONTINUOUS
10
71.2924
20
-63.0625
11
71.35
21
-63.3523
0
LINE
8
BLACK
6
CONTINUOUS
10
71.35
20
-63.3523
11
71.35
21
-63.6477
0
LINE
8
BLACK
6
CONTINUOUS
10
71.35
20
-63.6477
11
71.2924
21
-63.9375
0
LINE
8
BLACK
6
CONTINUOUS
10
71.2924
20
-63.9375
11
71.1793
21
-64.2105
0
LINE
8
BLACK
6
CONTINUOUS
10
71.1793
20
-64.2105
11
71.0151
21
-64.4562
0
LINE
8
BLACK
6
CONTINUOUS
10
71.0151
20
-64.4562
11
70.8062
21
-64.6651
0
LINE
8
BLACK
6
CONTINUOUS
10
70.8062
20
-64.6651
11
70.5605
21
-64.8293
0
LINE
8
BLACK
6
CONTINUOUS
10
70.5605
20
-64.8293
11
70.2875
21
-64.9424
0
LINE
8
BLACK
6
CONTINUOUS
10
70.2875
20
-64.9424
11
69.9977
21
-65
0
LINE
8
BLACK
6
CONTINUOUS
10
69.9977
20
-65
11
69.7023
21
-65
0
LINE
8
BLACK
6
CONTINUOUS
10
69.7023
20
-65
11
69.4125
21
-64.9424
0
LINE
8
BLACK
6
CONTINUOUS
10
69.4125
20
-64.9424
11
69.1395
21
-64.8293
0
LINE
8
BLACK
6
CONTINUOUS
10
69.1395
20
-64.8293
11
68.8938
21
-64.6651
0
LINE
8
BLACK
6
CONTINUOUS
10
68.8938
20
-64.6651
11
68.6849
21
-64.4562
0
LINE
8
BLACK
6
CONTINUOUS
10
68.6849
20
-64.4562
11
68.5207
21
-64.2105
0
LINE
8
BLACK
6
CONTINUOUS
10
68.5207
20
-64.2105
11
68.4749
21
-64.1
0
LINE
8
BLACK
6
CONTINUOUS
10
68.4749
20
-64.1
11
62.2595
21
-64.1
0
LINE
8
BLACK
6
CONTINUOUS
10
62.2595
20
-64.1
11
62.23
21
-64.1029
0
LINE
8
BLACK
6
CONTINUOUS
10
62.23
20
-64.1029
11
62.1124
21
-64.0913
0
LINE
8
BLACK
6
CONTINUOUS
10
62.1124
20
-64.0913
11
62.0781
21
-64.0809
0
LINE
8
BLACK
6
CONTINUOUS
10
62.0781
20
-64.0809
11
61.9993
21
-64.057
0
LINE
8
BLACK
6
CONTINUOUS
10
61.9993
20
-64.057
11
61.895
21
-64.0013
0
LINE
8
BLACK
6
CONTINUOUS
10
61.895
20
-64.0013
11
61.8037
21
-63.9263
0
LINE
8
BLACK
6
CONTINUOUS
10
61.8037
20
-63.9263
11
61.7849
21
-63.9034
0
LINE
8
BLACK
6
CONTINUOUS
10
61.7849
20
-63.9034
11
60.5566
21
-62.6751
0
LINE
8
BLACK
6
CONTINUOUS
10
60.5566
20
-62.6751
11
60.5337
21
-62.6563
0
LINE
8
BLACK
6
CONTINUOUS
10
60.5337
20
-62.6563
11
60.4587
21
-62.565
0
LINE
8
BLACK
6
CONTINUOUS
10
60.4587
20
-62.565
11
60.403
21
-62.4607
0
LINE
8
BLACK
6
CONTINUOUS
10
60.403
20
-62.4607
11
60.3687
21
-62.3476
0
LINE
8
BLACK
6
CONTINUOUS
10
60.3687
20
-62.3476
11
60.3571
21
-62.23
0
LINE
8
BLACK
6
CONTINUOUS
10
60.3571
20
-62.23
11
60.36
21
-62.2005
0
LINE
8
BLACK
6
CONTINUOUS
10
60.36
20
-62.2005
11
60.36
21
-60.3228
0
LINE
8
BLACK
6
CONTINUOUS
10
60.36
20
-60.3228
11
60.2872
21
-60.25
0
LINE
8
BLACK
6
CONTINUOUS
10
60.2872
20
-60.25
11
56.5528
21
-60.25
0
LINE
8
BLACK
6
CONTINUOUS
10
56.5528
20
-60.25
11
56.4537
21
-60.3491
0
LINE
8
BLACK
6
CONTINUOUS
10
56.4537
20
-60.3491
11
56.3063
21
-60.4476
0
LINE
8
BLACK
6
CONTINUOUS
10
56.3063
20
-60.4476
11
56.1425
21
-60.5154
0
LINE
8
BLACK
6
CONTINUOUS
10
56.1425
20
-60.5154
11
55.9686
21
-60.55
0
LINE
8
BLACK
6
CONTINUOUS
10
55.9686
20
-60.55
11
55.8285
21
-60.55
0
LINE
8
BLACK
6
CONTINUOUS
10
55.8285
20
-60.55
11
55.0151
21
-61.3634
0
LINE
8
BLACK
6
CONTINUOUS
10
55.0151
20
-61.3634
11
54.9963
21
-61.3863
0
LINE
8
BLACK
6
CONTINUOUS
10
54.9963
20
-61.3863
11
54.905
21
-61.4613
0
LINE
8
BLACK
6
CONTINUOUS
10
54.905
20
-61.4613
11
54.8007
21
-61.517
0
LINE
8
BLACK
6
CONTINUOUS
10
54.8007
20
-61.517
11
54.6876
21
-61.5513
0
LINE
8
BLACK
6
CONTINUOUS
10
54.6876
20
-61.5513
11
54.5995
21
-61.56
0
LINE
8
BLACK
6
CONTINUOUS
10
54.5995
20
-61.56
11
54.57
21
-61.5629
0
LINE
8
BLACK
6
CONTINUOUS
10
54.57
20
-61.5629
11
54.5405
21
-61.56
0
LINE
8
BLACK
6
CONTINUOUS
10
54.5405
20
-61.56
11
49.5595
21
-61.56
0
LINE
8
BLACK
6
CONTINUOUS
10
49.5595
20
-61.56
11
49.53
21
-61.5629
0
LINE
8
BLACK
6
CONTINUOUS
10
49.53
20
-61.5629
11
49.5005
21
-61.56
0
LINE
8
BLACK
6
CONTINUOUS
10
49.5005
20
-61.56
11
49.4124
21
-61.5513
0
LINE
8
BLACK
6
CONTINUOUS
10
49.4124
20
-61.5513
11
49.2993
21
-61.517
0
LINE
8
BLACK
6
CONTINUOUS
10
49.2993
20
-61.517
11
49.195
21
-61.4613
0
LINE
8
BLACK
6
CONTINUOUS
10
49.195
20
-61.4613
11
49.1037
21
-61.3863
0
LINE
8
BLACK
6
CONTINUOUS
10
49.1037
20
-61.3863
11
49.0287
21
-61.295
0
LINE
8
BLACK
6
CONTINUOUS
10
49.0287
20
-61.295
11
48.973
21
-61.1907
0
LINE
8
BLACK
6
CONTINUOUS
10
48.973
20
-61.1907
11
48.9387
21
-61.0776
0
LINE
8
BLACK
6
CONTINUOUS
10
48.9387
20
-61.0776
11
48.9271
21
-60.96
0
LINE
8
BLACK
6
CONTINUOUS
10
48.9271
20
-60.96
11
48.93
21
-60.9305
0
LINE
8
BLACK
6
CONTINUOUS
10
48.93
20
-60.9305
11
48.93
21
-59.92
0
LINE
8
BLACK
6
CONTINUOUS
10
48.93
20
-59.92
11
48.03
21
-59.92
0
LINE
8
BLACK
6
CONTINUOUS
10
48.03
20
-59.92
11
48.03
21
-56.92
0
LINE
8
BLACK
6
CONTINUOUS
10
48.03
20
-56.92
11
51.03
21
-56.92
0
LINE
8
BLACK
6
CONTINUOUS
10
51.03
20
-56.92
11
51.03
21
-59.92
0
LINE
8
BLACK
6
CONTINUOUS
10
51.03
20
-59.92
11
50.13
21
-59.92
0
LINE
8
BLACK
6
CONTINUOUS
10
50.13
20
-59.92
11
50.13
21
-60.36
0
LINE
8
BLACK
6
CONTINUOUS
10
50.13
20
-60.36
11
54.3215
21
-60.36
0
LINE
8
BLACK
6
CONTINUOUS
10
54.3215
20
-60.36
11
54.98
21
-59.7015
0
LINE
8
BLACK
6
CONTINUOUS
10
54.98
20
-59.7015
11
54.98
21
-59.5614
0
LINE
8
BLACK
6
CONTINUOUS
10
54.98
20
-59.5614
11
55.0146
21
-59.3875
0
LINE
8
BLACK
6
CONTINUOUS
10
55.0146
20
-59.3875
11
55.0824
21
-59.2237
0
LINE
8
BLACK
6
CONTINUOUS
10
55.0824
20
-59.2237
11
55.1809
21
-59.0763
0
LINE
8
BLACK
6
CONTINUOUS
10
55.1809
20
-59.0763
11
55.3063
21
-58.9509
0
LINE
8
BLACK
6
CONTINUOUS
10
55.3063
20
-58.9509
11
55.4537
21
-58.8524
0
LINE
8
BLACK
6
CONTINUOUS
10
55.4537
20
-58.8524
11
55.6175
21
-58.7846
0
LINE
8
BLACK
6
CONTINUOUS
10
55.6175
20
-58.7846
11
55.7914
21
-58.75
0
LINE
8
BLACK
6
CONTINUOUS
10
55.7914
20
-58.75
11
55.9315
21
-58.75
0
LINE
8
BLACK
6
CONTINUOUS
10
55.9315
20
-58.75
11
57.82
21
-56.8615
0
LINE
8
BLACK
6
CONTINUOUS
10
57.82
20
-56.8615
11
57.82
21
-53.4984
0
LINE
8
BLACK
6
CONTINUOUS
10
57.82
20
-53.4984
11
57.7197
21
-53.3761
0
LINE
8
BLACK
6
CONTINUOUS
10
57.7197
20
-53.3761
11
57.6419
21
-53.2305
0
LINE
8
BLACK
6
CONTINUOUS
10
57.6419
20
-53.2305
11
57.5939
21
-53.0725
0
LINE
8
BLACK
6
CONTINUOUS
10
57.5939
20
-53.0725
11
57.5818
21
-52.9494
0
LINE
8
BLACK
6
CONTINUOUS
10
57.5818
20
-52.9494
11
57.5818
21
-51.1906
0
LINE
8
BLACK
6
CONTINUOUS
10
57.5818
20
-51.1906
11
57.5939
21
-51.0675
0
LINE
8
BLACK
6
CONTINUOUS
10
57.5939
20
-51.0675
11
57.6419
21
-50.9095
0
LINE
8
BLACK
6
CONTINUOUS
10
57.6419
20
-50.9095
11
57.7197
21
-50.7639
0
LINE
8
BLACK
6
CONTINUOUS
10
57.7197
20
-50.7639
11
57.8244
21
-50.6362
0
LINE
8
BLACK
6
CONTINUOUS
10
57.8244
20
-50.6362
11
57.9521
21
-50.5315
0
LINE
8
BLACK
6
CONTINUOUS
10
57.9521
20
-50.5315
11
58.0977
21
-50.4537
0
LINE
8
BLACK
6
CONTINUOUS
10
58.0977
20
-50.4537
11
58.2557
21
-50.4057
0
LINE
8
BLACK
6
CONTINUOUS
10
58.2557
20
-50.4057
11
58.42
21
-50.3895
0
LINE
8
BLACK
6
CONTINUOUS
10
58.42
20
-50.3895
11
58.5843
21
-50.4057
0
LINE
8
BLACK
6
CONTINUOUS
10
61.1243
20
-50.4057
11
61.2823
21
-50.4537
0
LINE
8
BLACK
6
CONTINUOUS
10
61.2823
20
-50.4537
11
61.4279
21
-50.5315
0
LINE
8
BLACK
6
CONTINUOUS
10
61.4279
20
-50.5315
11
61.5556
21
-50.6362
0
LINE
8
BLACK
6
CONTINUOUS
10
61.5556
20
-50.6362
11
61.6603
21
-50.7639
0
LINE
8
BLACK
6
CONTINUOUS
10
61.6603
20
-50.7639
11
61.7381
21
-50.9095
0
LINE
8
BLACK
6
CONTINUOUS
10
61.7381
20
-50.9095
11
61.7861
21
-51.0675
0
LINE
8
BLACK
6
CONTINUOUS
10
61.7861
20
-51.0675
11
61.7982
21
-51.1906
0
LINE
8
BLACK
6
CONTINUOUS
10
61.7982
20
-51.1906
11
61.7982
21
-52.9494
0
LINE
8
BLACK
6
CONTINUOUS
10
61.7982
20
-52.9494
11
61.7861
21
-53.0725
0
LINE
8
BLACK
6
CONTINUOUS
10
61.7861
20
-53.0725
11
61.7381
21
-53.2305
0
LINE
8
BLACK
6
CONTINUOUS
10
61.7381
20
-53.2305
11
61.6603
21
-53.3761
0
LINE
8
BLACK
6
CONTINUOUS
10
61.6603
20
-53.3761
11
61.56
21
-53.4984
0
LINE
8
BLACK
6
CONTINUOUS
10
61.56
20
-53.4984
11
61.56
21
-56.4772
0
LINE
8
BLACK
6
CONTINUOUS
10
61.56
20
-56.4772
11
61.6328
21
-56.55
0
LINE
8
BLACK
6
CONTINUOUS
10
61.6328
20
-56.55
11
68.5505
21
-56.55
0
LINE
8
BLACK
6
CONTINUOUS
10
68.5505
20
-56.55
11
68.58
21
-56.5471
0
LINE
8
BLACK
6
CONTINUOUS
10
68.58
20
-56.5471
11
68.6095
21
-56.55
0
LINE
8
BLACK
6
CONTINUOUS
10
68.6095
20
-56.55
11
68.6976
21
-56.5587
0
LINE
8
BLACK
6
CONTINUOUS
10
68.6976
20
-56.5587
11
68.8107
21
-56.593
0
LINE
8
BLACK
6
CONTINUOUS
10
68.8107
20
-56.593
11
68.915
21
-56.6487
0
LINE
8
BLACK
6
CONTINUOUS
10
68.915
20
-56.6487
11
69.0063
21
-56.7237
0
LINE
8
BLACK
6
CONTINUOUS
10
69.0063
20
-56.7237
11
69.0251
21
-56.7466
0
LINE
8
BLACK
6
CONTINUOUS
10
69.0251
20
-56.7466
11
69.3019
21
-57.0234
0
LINE
8
BLACK
6
CONTINUOUS
10
69.3019
20
-57.0234
11
69.4125
21
-56.9776
0
LINE
8
BLACK
6
CONTINUOUS
10
69.4125
20
-56.9776
11
69.7023
21
-56.92
0
LINE
8
BLACK
6
CONTINUOUS
10
69.7023
20
-56.92
11
69.9977
21
-56.92
0
LINE
8
BLACK
6
CONTINUOUS
10
69.9977
20
-56.92
11
70.2875
21
-56.9776
0
LINE
8
BLACK
6
CONTINUOUS
10
70.2875
20
-56.9776
11
70.5605
21
-57.0907
0
LINE
8
BLACK
6
CONTINUOUS
10
70.5605
20
-57.0907
11
70.8062
21
-57.2549
0
LINE
8
BLACK
6
CONTINUOUS
10
70.8062
20
-57.2549
11
71.0151
21
-57.4638
0
LINE
8
BLACK
6
CONTINUOUS
10
71.0151
20
-57.4638
11
71.1793
21
-57.7095
0
LINE
8
BLACK
6
CONTINUOUS
10
71.1793
20
-57.7095
11
71.2924
21
-57.9825
0
LINE
8
BLACK
6
CONTINUOUS
10
71.2924
20
-57.9825
11
71.35
21
-58.2723
0
LINE
8
BLACK
6
CONTINUOUS
10
71.35
20
-58.2723
11
71.35
21
-58.5677
0
LINE
8
BLACK
6
CONTINUOUS
10
71.35
20
-58.5677
11
71.2924
21
-58.8575
0
LINE
8
BLACK
6
CONTINUOUS
10
71.2924
20
-58.8575
11
71.1793
21
-59.1305
0
LINE
8
BLACK
6
CONTINUOUS
10
71.1793
20
-59.1305
11
71.0151
21
-59.3762
0
LINE
8
BLACK
6
CONTINUOUS
10
71.0151
20
-59.3762
11
70.8062
21
-59.5851
0
LINE
8
BLACK
6
CONTINUOUS
10
70.8062
20
-59.5851
11
70.5605
21
-59.7493
0
LINE
8
BLACK
6
CONTINUOUS
10
70.5605
20
-59.7493
11
70.2875
21
-59.8624
0
LINE
8
BLACK
6
CONTINUOUS
10
70.2875
20
-59.8624
11
69.9977
21
-59.92
0
LINE
8
BLACK
6
CONTINUOUS
10
69.9977
20
-59.92
11
69.7023
21
-59.92
0
LINE
8
BLACK
6
CONTINUOUS
10
69.7023
20
-59.92
11
69.4125
21
-59.8624
0
LINE
8
BLACK
6
CONTINUOUS
10
69.4125
20
-59.8624
11
69.1395
21
-59.7493
0
LINE
8
BLACK
6
CONTINUOUS
10
69.1395
20
-59.7493
11
68.8938
21
-59.5851
0
LINE
8
BLACK
6
CONTINUOUS
10
68.8938
20
-59.5851
11
68.6849
21
-59.3762
0
LINE
8
BLACK
6
CONTINUOUS
10
68.6849
20
-59.3762
11
68.5207
21
-59.1305
0
LINE
8
BLACK
6
CONTINUOUS
10
68.5207
20
-59.1305
11
68.4076
21
-58.8575
0
LINE
8
BLACK
6
CONTINUOUS
10
68.4076
20
-58.8575
11
68.35
21
-58.5677
0
LINE
8
BLACK
6
CONTINUOUS
10
68.35
20
-58.5677
11
68.35
21
-58.2723
0
LINE
8
BLACK
6
CONTINUOUS
10
68.35
20
-58.2723
11
68.4076
21
-57.9825
0
LINE
8
BLACK
6
CONTINUOUS
10
68.4076
20
-57.9825
11
68.4534
21
-57.8719
0
LINE
8
BLACK
6
CONTINUOUS
10
68.4534
20
-57.8719
11
68.3315
21
-57.75
0
LINE
8
BLACK
6
CONTINUOUS
10
68.3315
20
-57.75
11
61.6328
21
-57.75
0
LINE
8
BLACK
6
CONTINUOUS
10
61.6328
20
-57.75
11
61.5337
21
-57.8491
0
LINE
8
BLACK
6
CONTINUOUS
10
61.5337
20
-57.8491
11
61.3863
21
-57.9476
0
LINE
8
BLACK
6
CONTINUOUS
10
61.3863
20
-57.9476
11
61.2225
21
-58.0154
0
LINE
8
BLACK
6
CONTINUOUS
10
61.2225
20
-58.0154
11
61.0486
21
-58.05
0
LINE
8
BLACK
6
CONTINUOUS
10
61.0486
20
-58.05
11
60.8714
21
-58.05
0
LINE
8
BLACK
6
CONTINUOUS
10
60.8714
20
-58.05
11
60.6975
21
-58.0154
0
LINE
8
BLACK
6
CONTINUOUS
10
60.6975
20
-58.0154
11
60.5337
21
-57.9476
0
LINE
8
BLACK
6
CONTINUOUS
10
60.5337
20
-57.9476
11
60.3863
21
-57.8491
0
LINE
8
BLACK
6
CONTINUOUS
10
60.3863
20
-57.8491
11
60.2609
21
-57.7237
0
LINE
8
BLACK
6
CONTINUOUS
10
60.2609
20
-57.7237
11
60.1624
21
-57.5763
0
LINE
8
BLACK
6
CONTINUOUS
10
60.1624
20
-57.5763
11
60.0946
21
-57.4125
0
LINE
8
BLACK
6
CONTINUOUS
10
60.0946
20
-57.4125
11
60.06
21
-57.2386
0
LINE
8
BLACK
6
CONTINUOUS
10
60.06
20
-57.2386
11
60.06
21
-57.0614
0
LINE
8
BLACK
6
CONTINUOUS
10
60.06
20
-57.0614
11
60.0946
21
-56.8875
0
LINE
8
BLACK
6
CONTINUOUS
10
60.0946
20
-56.8875
11
60.1624
21
-56.7237
0
LINE
8
BLACK
6
CONTINUOUS
10
60.1624
20
-56.7237
11
60.2609
21
-56.5763
0
LINE
8
BLACK
6
CONTINUOUS
10
60.2609
20
-56.5763
11
60.36
21
-56.4772
0
LINE
8
BLACK
6
CONTINUOUS
10
60.36
20
-56.4772
11
60.36
21
-53.4984
0
LINE
8
BLACK
6
CONTINUOUS
10
60.36
20
-53.4984
11
60.2597
21
-53.3761
0
LINE
8
BLACK
6
CONTINUOUS
10
60.2597
20
-53.3761
11
60.1819
21
-53.2305
0
LINE
8
BLACK
6
CONTINUOUS
10
60.1819
20
-53.2305
11
60.1339
21
-53.0725
0
LINE
8
BLACK
6
CONTINUOUS
10
60.1339
20
-53.0725
11
60.1218
21
-52.9494
0
LINE
8
BLACK
6
CONTINUOUS
10
60.1218
20
-52.9494
11
60.1218
21
-51.1906
0
LINE
8
BLACK
6
CONTINUOUS
10
60.1218
20
-51.1906
11
60.1339
21
-51.0675
0
LINE
8
BLACK
6
CONTINUOUS
10
60.1339
20
-51.0675
11
60.1819
21
-50.9095
0
LINE
8
BLACK
6
CONTINUOUS
10
60.1819
20
-50.9095
11
60.2597
21
-50.7639
0
LINE
8
BLACK
6
CONTINUOUS
10
60.2597
20
-50.7639
11
60.3644
21
-50.6362
0
LINE
8
BLACK
6
CONTINUOUS
10
60.3644
20
-50.6362
11
60.4921
21
-50.5315
0
LINE
8
BLACK
6
CONTINUOUS
10
60.4921
20
-50.5315
11
60.6377
21
-50.4537
0
LINE
8
BLACK
6
CONTINUOUS
10
60.6377
20
-50.4537
11
60.7957
21
-50.4057
0
LINE
8
BLACK
6
CONTINUOUS
10
60.7957
20
-50.4057
11
60.96
21
-50.3895
0
LINE
8
BLACK
6
CONTINUOUS
10
60.96
20
-50.3895
11
61.1243
21
-50.4057
0
LINE
8
BLACK
6
CONTINUOUS
10
71.35
20
-49.76
11
68.35
21
-49.76
0
LINE
8
BLACK
6
CONTINUOUS
10
68.35
20
-49.76
11
68.35
21
-48.86
0
LINE
8
BLACK
6
CONTINUOUS
10
68.35
20
-48.86
11
57.0621
21
-48.86
0
LINE
8
BLACK
6
CONTINUOUS
10
57.0621
20
-48.86
11
56.48
21
-49.4421
0
LINE
8
BLACK
6
CONTINUOUS
10
56.48
20
-49.4421
11
56.48
21
-50.6416
0
LINE
8
BLACK
6
CONTINUOUS
10
56.48
20
-50.6416
11
56.5803
21
-50.7639
0
LINE
8
BLACK
6
CONTINUOUS
10
56.5803
20
-50.7639
11
56.6581
21
-50.9095
0
LINE
8
BLACK
6
CONTINUOUS
10
56.6581
20
-50.9095
11
56.7061
21
-51.0675
0
LINE
8
BLACK
6
CONTINUOUS
10
56.7061
20
-51.0675
11
56.7182
21
-51.1906
0
LINE
8
BLACK
6
CONTINUOUS
10
56.7182
20
-51.1906
11
56.7182
21
-52.9494
0
LINE
8
BLACK
6
CONTINUOUS
10
56.7182
20
-52.9494
11
56.7061
21
-53.0725
0
LINE
8
BLACK
6
CONTINUOUS
10
56.7061
20
-53.0725
11
56.6581
21
-53.2305
0
LINE
8
BLACK
6
CONTINUOUS
10
56.6581
20
-53.2305
11
56.5803
21
-53.3761
0
LINE
8
BLACK
6
CONTINUOUS
10
56.5803
20
-53.3761
11
56.48
21
-53.4984
0
LINE
8
BLACK
6
CONTINUOUS
10
56.48
20
-53.4984
11
56.48
21
-56.4772
0
LINE
8
BLACK
6
CONTINUOUS
10
56.48
20
-56.4772
11
56.5791
21
-56.5763
0
LINE
8
BLACK
6
CONTINUOUS
10
56.5791
20
-56.5763
11
56.6776
21
-56.7237
0
LINE
8
BLACK
6
CONTINUOUS
10
56.6776
20
-56.7237
11
56.7454
21
-56.8875
0
LINE
8
BLACK
6
CONTINUOUS
10
56.7454
20
-56.8875
11
56.78
21
-57.0614
0
LINE
8
BLACK
6
CONTINUOUS
10
56.78
20
-57.0614
11
56.78
21
-57.2386
0
LINE
8
BLACK
6
CONTINUOUS
10
56.78
20
-57.2386
11
56.7454
21
-57.4125
0
LINE
8
BLACK
6
CONTINUOUS
10
56.7454
20
-57.4125
11
56.6776
21
-57.5763
0
LINE
8
BLACK
6
CONTINUOUS
10
56.6776
20
-57.5763
11
56.5791
21
-57.7237
0
LINE
8
BLACK
6
CONTINUOUS
10
56.5791
20
-57.7237
11
56.4537
21
-57.8491
0
LINE
8
BLACK
6
CONTINUOUS
10
56.4537
20
-57.8491
11
56.3063
21
-57.9476
0
LINE
8
BLACK
6
CONTINUOUS
10
56.3063
20
-57.9476
11
56.1425
21
-58.0154
0
LINE
8
BLACK
6
CONTINUOUS
10
56.1425
20
-58.0154
11
55.9686
21
-58.05
0
LINE
8
BLACK
6
CONTINUOUS
10
55.9686
20
-58.05
11
55.7914
21
-58.05
0
LINE
8
BLACK
6
CONTINUOUS
10
55.7914
20
-58.05
11
55.6175
21
-58.0154
0
LINE
8
BLACK
6
CONTINUOUS
10
55.6175
20
-58.0154
11
55.4537
21
-57.9476
0
LINE
8
BLACK
6
CONTINUOUS
10
55.4537
20
-57.9476
11
55.3063
21
-57.8491
0
LINE
8
BLACK
6
CONTINUOUS
10
55.3063
20
-57.8491
11
55.1809
21
-57.7237
0
LINE
8
BLACK
6
CONTINUOUS
10
55.1809
20
-57.7237
11
55.0824
21
-57.5763
0
LINE
8
BLACK
6
CONTINUOUS
10
55.0824
20
-57.5763
11
55.0146
21
-57.4125
0
LINE
8
BLACK
6
CONTINUOUS
10
55.0146
20
-57.4125
11
54.98
21
-57.2386
0
LINE
8
BLACK
6
CONTINUOUS
10
54.98
20
-57.2386
11
54.98
21
-57.0614
0
LINE
8
BLACK
6
CONTINUOUS
10
54.98
20
-57.0614
11
55.0146
21
-56.8875
0
LINE
8
BLACK
6
CONTINUOUS
10
55.0146
20
-56.8875
11
55.0824
21
-56.7237
0
LINE
8
BLACK
6
CONTINUOUS
10
55.0824
20
-56.7237
11
55.1809
21
-56.5763
0
LINE
8
BLACK
6
CONTINUOUS
10
55.1809
20
-56.5763
11
55.28
21
-56.4772
0
LINE
8
BLACK
6
CONTINUOUS
10
55.28
20
-56.4772
11
55.28
21
-53.5185
0
LINE
8
BLACK
6
CONTINUOUS
10
55.28
20
-53.5185
11
55.0551
21
-53.7434
0
LINE
8
BLACK
6
CONTINUOUS
10
55.0551
20
-53.7434
11
55.0363
21
-53.7663
0
LINE
8
BLACK
6
CONTINUOUS
10
55.0363
20
-53.7663
11
54.945
21
-53.8413
0
LINE
8
BLACK
6
CONTINUOUS
10
54.945
20
-53.8413
11
54.8407
21
-53.897
0
LINE
8
BLACK
6
CONTINUOUS
10
54.8407
20
-53.897
11
54.7276
21
-53.9313
0
LINE
8
BLACK
6
CONTINUOUS
10
54.7276
20
-53.9313
11
54.6395
21
-53.94
0
LINE
8
BLACK
6
CONTINUOUS
10
54.6395
20
-53.94
11
54.61
21
-53.9429
0
LINE
8
BLACK
6
CONTINUOUS
10
54.61
20
-53.9429
11
54.5805
21
-53.94
0
LINE
8
BLACK
6
CONTINUOUS
10
54.5805
20
-53.94
11
50.9051
21
-53.94
0
LINE
8
BLACK
6
CONTINUOUS
10
50.9051
20
-53.94
11
50.8593
21
-54.0505
0
LINE
8
BLACK
6
CONTINUOUS
10
50.8593
20
-54.0505
11
50.6951
21
-54.2962
0
LINE
8
BLACK
6
CONTINUOUS
10
50.6951
20
-54.2962
11
50.4862
21
-54.5051
0
LINE
8
BLACK
6
CONTINUOUS
10
50.4862
20
-54.5051
11
50.2405
21
-54.6693
0
LINE
8
BLACK
6
CONTINUOUS
10
50.2405
20
-54.6693
11
49.9675
21
-54.7824
0
LINE
8
BLACK
6
CONTINUOUS
10
49.9675
20
-54.7824
11
49.6777
21
-54.84
0
LINE
8
BLACK
6
CONTINUOUS
10
49.6777
20
-54.84
11
49.3823
21
-54.84
0
LINE
8
BLACK
6
CONTINUOUS
10
49.3823
20
-54.84
11
49.0925
21
-54.7824
0
LINE
8
BLACK
6
CONTINUOUS
10
49.0925
20
-54.7824
11
48.8195
21
-54.6693
0
LINE
8
BLACK
6
CONTINUOUS
10
48.8195
20
-54.6693
11
48.5738
21
-54.5051
0
LINE
8
BLACK
6
CONTINUOUS
10
48.5738
20
-54.5051
11
48.3649
21
-54.2962
0
LINE
8
BLACK
6
CONTINUOUS
10
48.3649
20
-54.2962
11
48.2007
21
-54.0505
0
LINE
8
BLACK
6
CONTINUOUS
10
48.2007
20
-54.0505
11
48.0876
21
-53.7775
0
LINE
8
BLACK
6
CONTINUOUS
10
48.0876
20
-53.7775
11
48.03
21
-53.4877
0
LINE
8
BLACK
6
CONTINUOUS
10
48.03
20
-53.4877
11
48.03
21
-53.1923
0
LINE
8
BLACK
6
CONTINUOUS
10
48.03
20
-53.1923
11
48.0876
21
-52.9025
0
LINE
8
BLACK
6
CONTINUOUS
10
48.0876
20
-52.9025
11
48.2007
21
-52.6295
0
LINE
8
BLACK
6
CONTINUOUS
10
48.2007
20
-52.6295
11
48.3649
21
-52.3838
0
LINE
8
BLACK
6
CONTINUOUS
10
48.3649
20
-52.3838
11
48.5738
21
-52.1749
0
LINE
8
BLACK
6
CONTINUOUS
10
48.5738
20
-52.1749
11
48.8195
21
-52.0107
0
LINE
8
BLACK
6
CONTINUOUS
10
48.8195
20
-52.0107
11
49.0925
21
-51.8976
0
LINE
8
BLACK
6
CONTINUOUS
10
49.0925
20
-51.8976
11
49.3823
21
-51.84
0
LINE
8
BLACK
6
CONTINUOUS
10
49.3823
20
-51.84
11
49.6777
21
-51.84
0
LINE
8
BLACK
6
CONTINUOUS
10
49.6777
20
-51.84
11
49.9675
21
-51.8976
0
LINE
8
BLACK
6
CONTINUOUS
10
49.9675
20
-51.8976
11
50.2405
21
-52.0107
0
LINE
8
BLACK
6
CONTINUOUS
10
50.2405
20
-52.0107
11
50.4862
21
-52.1749
0
LINE
8
BLACK
6
CONTINUOUS
10
50.4862
20
-52.1749
11
50.6951
21
-52.3838
0
LINE
8
BLACK
6
CONTINUOUS
10
50.6951
20
-52.3838
11
50.8593
21
-52.6295
0
LINE
8
BLACK
6
CONTINUOUS
10
50.8593
20
-52.6295
11
50.9051
21
-52.74
0
LINE
8
BLACK
6
CONTINUOUS
10
50.9051
20
-52.74
11
54.3615
21
-52.74
0
LINE
8
BLACK
6
CONTINUOUS
10
54.3615
20
-52.74
11
55.0418
21
-52.0597
0
LINE
8
BLACK
6
CONTINUOUS
10
55.0418
20
-52.0597
11
55.0418
21
-51.1906
0
LINE
8
BLACK
6
CONTINUOUS
10
55.0418
20
-51.1906
11
55.0539
21
-51.0675
0
LINE
8
BLACK
6
CONTINUOUS
10
55.0539
20
-51.0675
11
55.1019
21
-50.9095
0
LINE
8
BLACK
6
CONTINUOUS
10
55.1019
20
-50.9095
11
55.1797
21
-50.7639
0
LINE
8
BLACK
6
CONTINUOUS
10
55.1797
20
-50.7639
11
55.28
21
-50.6416
0
LINE
8
BLACK
6
CONTINUOUS
10
55.28
20
-50.6416
11
55.28
21
-49.2231
0
LINE
8
BLACK
6
CONTINUOUS
10
55.28
20
-49.2231
11
55.2771
21
-49.1936
0
LINE
8
BLACK
6
CONTINUOUS
10
55.2771
20
-49.1936
11
55.2887
21
-49.076
0
LINE
8
BLACK
6
CONTINUOUS
10
55.2887
20
-49.076
11
55.323
21
-48.9629
0
LINE
8
BLACK
6
CONTINUOUS
10
55.323
20
-48.9629
11
55.378
21
-48.86
0
LINE
8
BLACK
6
CONTINUOUS
10
55.378
20
-48.86
11
55.3787
21
-48.8586
0
LINE
8
BLACK
6
CONTINUOUS
10
55.3787
20
-48.8586
11
55.4537
21
-48.7673
0
LINE
8
BLACK
6
CONTINUOUS
10
55.4537
20
-48.7673
11
55.4766
21
-48.7485
0
LINE
8
BLACK
6
CONTINUOUS
10
55.4766
20
-48.7485
11
56.3685
21
-47.8566
0
LINE
8
BLACK
6
CONTINUOUS
10
56.3685
20
-47.8566
11
56.3873
21
-47.8337
0
LINE
8
BLACK
6
CONTINUOUS
10
56.3873
20
-47.8337
11
56.4786
21
-47.7587
0
LINE
8
BLACK
6
CONTINUOUS
10
56.4786
20
-47.7587
11
56.5466
21
-47.7224
0
LINE
8
BLACK
6
CONTINUOUS
10
56.5466
20
-47.7224
11
56.5829
21
-47.703
0
LINE
8
BLACK
6
CONTINUOUS
10
56.5829
20
-47.703
11
56.696
21
-47.6687
0
LINE
8
BLACK
6
CONTINUOUS
10
56.696
20
-47.6687
11
56.8136
21
-47.6571
0
LINE
8
BLACK
6
CONTINUOUS
10
56.8136
20
-47.6571
11
56.8431
21
-47.66
0
LINE
8
BLACK
6
CONTINUOUS
10
56.8431
20
-47.66
11
68.35
21
-47.66
0
LINE
8
BLACK
6
CONTINUOUS
10
68.35
20
-47.66
11
68.35
21
-46.76
0
LINE
8
BLACK
6
CONTINUOUS
10
68.35
20
-46.76
11
71.35
21
-46.76
0
LINE
8
BLACK
6
CONTINUOUS
10
71.35
20
-46.76
11
71.35
21
-49.76
0
LINE
8
BLACK
6
CONTINUOUS
10
58.9016
20
-32.9564
11
59.202
21
-33.0809
0
LINE
8
BLACK
6
CONTINUOUS
10
59.202
20
-33.0809
11
59.4725
21
-33.2616
0
LINE
8
BLACK
6
CONTINUOUS
10
59.4725
20
-33.2616
11
59.7024
21
-33.4915
0
LINE
8
BLACK
6
CONTINUOUS
10
59.7024
20
-33.4915
11
59.8831
21
-33.762
0
LINE
8
BLACK
6
CONTINUOUS
10
59.8831
20
-33.762
11
60.0076
21
-34.0624
0
LINE
8
BLACK
6
CONTINUOUS
10
60.0076
20
-34.0624
11
60.071
21
-34.3814
0
LINE
8
BLACK
6
CONTINUOUS
10
60.071
20
-34.3814
11
60.071
21
-34.7066
0
LINE
8
BLACK
6
CONTINUOUS
10
60.071
20
-34.7066
11
60.0076
21
-35.0256
0
LINE
8
BLACK
6
CONTINUOUS
10
60.0076
20
-35.0256
11
59.8831
21
-35.326
0
LINE
8
BLACK
6
CONTINUOUS
10
59.8831
20
-35.326
11
59.7024
21
-35.5965
0
LINE
8
BLACK
6
CONTINUOUS
10
59.7024
20
-35.5965
11
59.4725
21
-35.8264
0
LINE
8
BLACK
6
CONTINUOUS
10
59.4725
20
-35.8264
11
59.202
21
-36.0071
0
LINE
8
BLACK
6
CONTINUOUS
10
59.202
20
-36.0071
11
58.9016
21
-36.1316
0
LINE
8
BLACK
6
CONTINUOUS
10
58.9016
20
-36.1316
11
58.5826
21
-36.195
0
LINE
8
BLACK
6
CONTINUOUS
10
58.5826
20
-36.195
11
58.2574
21
-36.195
0
LINE
8
BLACK
6
CONTINUOUS
10
58.2574
20
-36.195
11
57.9384
21
-36.1316
0
LINE
8
BLACK
6
CONTINUOUS
10
57.9384
20
-36.1316
11
57.638
21
-36.0071
0
LINE
8
BLACK
6
CONTINUOUS
10
57.638
20
-36.0071
11
57.3675
21
-35.8264
0
LINE
8
BLACK
6
CONTINUOUS
10
57.3675
20
-35.8264
11
57.1376
21
-35.5965
0
LINE
8
BLACK
6
CONTINUOUS
10
57.1376
20
-35.5965
11
56.9569
21
-35.326
0
LINE
8
BLACK
6
CONTINUOUS
10
56.9569
20
-35.326
11
56.8324
21
-35.0256
0
LINE
8
BLACK
6
CONTINUOUS
10
56.8324
20
-35.0256
11
56.769
21
-34.7066
0
LINE
8
BLACK
6
CONTINUOUS
10
56.769
20
-34.7066
11
56.769
21
-34.3814
0
LINE
8
BLACK
6
CONTINUOUS
10
56.769
20
-34.3814
11
56.8324
21
-34.0624
0
LINE
8
BLACK
6
CONTINUOUS
10
56.8324
20
-34.0624
11
56.9569
21
-33.762
0
LINE
8
BLACK
6
CONTINUOUS
10
56.9569
20
-33.762
11
57.1376
21
-33.4915
0
LINE
8
BLACK
6
CONTINUOUS
10
57.1376
20
-33.4915
11
57.3675
21
-33.2616
0
LINE
8
BLACK
6
CONTINUOUS
10
57.3675
20
-33.2616
11
57.638
21
-33.0809
0
LINE
8
BLACK
6
CONTINUOUS
10
57.638
20
-33.0809
11
57.9384
21
-32.9564
0
LINE
8
BLACK
6
CONTINUOUS
10
57.9384
20
-32.9564
11
58.2574
21
-32.893
0
LINE
8
BLACK
6
CONTINUOUS
10
58.2574
20
-32.893
11
58.5826
21
-32.893
0
LINE
8
BLACK
6
CONTINUOUS
10
58.5826
20
-32.893
11
58.9016
21
-32.9564
  0
ENDSEC
  0
EOF
