  0
SECTION
  2
HEADER
  9
$ANGBASE
  50
0.0
  9
$ANGDIR
  70
1
  9
$MEASUREMENT
  70
1
  0
ENDSEC
  0
SECTION
  2
TABLES
  0
TABLE
  2
LTYPE
  70
4
  0
LTYPE
  5
40F
  2
CONTINUOUS
  70
0
  3
Solid line
  72
65
  73
0
  40
0.0
  0
LTYPE
  5
410
  2
DASHDOT
 70
0
  3
Dash Dot ____ _ ____ _
 72
65
 73
4
 40
2.0
 49
1.25
 49
-0.25
 49
0.25
 49
-0.25
  0
LTYPE
  5
411
  2
DASHED
 70
0
  3
Dashed __ __ __ __ __
 72
65
 73
2
 40
0.75
 49
0.5
 49
-0.25
  0
LTYPE
  5
43B
  2
DOTTED
 70
0
  3
Dotted .  .  .  .
 72
65
 73
2
 40
0.2
 49
0.0
 49
-0.2
  0
ENDTAB
  0
TABLE
  2
STYLE
  70
4
  0
STYLE
  2
KICAD
  70
0
  40
0
  41
1
  42
1
  50
0
  71
0
  3
isocp.shx
  0
STYLE
  2
KICADB
  70
0
  40
0
  41
1
  42
1
  50
0
  71
0
  3
isocp.shx
  0
STYLE
  2
KICADI
  70
0
  40
0
  41
1
  42
1
  50
15
  71
0
  3
isocp.shx
  0
STYLE
  2
KICADBI
  70
0
  40
0
  41
1
  42
1
  50
15
  71
0
  3
isocp.shx
  0
ENDTAB
  0
TABLE
  2
LAYER
  70
1
  0
LAYER
  2
BLACK
  70
0
  62
7
  6
CONTINUOUS
  0
ENDTAB
  0
ENDSEC
  0
SECTION
  2
ENTITIES
0
LINE
8
BLACK
6
CONTINUOUS
10
78.74
20
-41.8849
11
78.7412
21
-41.885
0
LINE
8
BLACK
6
CONTINUOUS
10
78.7412
20
-41.885
11
78.7412
21
-41.885
0
LINE
8
BLACK
6
CONTINUOUS
10
78.7412
20
-41.885
11
78.7449
21
-41.8854
0
LINE
8
BLACK
6
CONTINUOUS
10
78.7449
20
-41.8854
11
78.7496
21
-41.8868
0
LINE
8
BLACK
6
CONTINUOUS
10
78.7496
20
-41.8868
11
78.754
21
-41.8891
0
LINE
8
BLACK
6
CONTINUOUS
10
78.754
20
-41.8891
11
78.7578
21
-41.8922
0
LINE
8
BLACK
6
CONTINUOUS
10
78.7578
20
-41.8922
11
78.7609
21
-41.896
0
LINE
8
BLACK
6
CONTINUOUS
10
78.7609
20
-41.896
11
78.7632
21
-41.9004
0
LINE
8
BLACK
6
CONTINUOUS
10
78.7632
20
-41.9004
11
78.7646
21
-41.9051
0
LINE
8
BLACK
6
CONTINUOUS
10
78.7646
20
-41.9051
11
78.7651
21
-41.91
0
LINE
8
BLACK
6
CONTINUOUS
10
78.7651
20
-41.91
11
78.765
21
-41.9112
0
LINE
8
BLACK
6
CONTINUOUS
10
78.765
20
-41.9112
11
78.765
21
-69.8488
0
LINE
8
BLACK
6
CONTINUOUS
10
78.765
20
-69.8488
11
78.7651
21
-69.85
0
LINE
8
BLACK
6
CONTINUOUS
10
78.7651
20
-69.85
11
78.765
21
-69.8512
0
LINE
8
BLACK
6
CONTINUOUS
10
78.765
20
-69.8512
11
78.765
21
-69.8512
0
LINE
8
BLACK
6
CONTINUOUS
10
78.765
20
-69.8512
11
78.7646
21
-69.8549
0
LINE
8
BLACK
6
CONTINUOUS
10
78.7646
20
-69.8549
11
78.7632
21
-69.8596
0
LINE
8
BLACK
6
CONTINUOUS
10
78.7632
20
-69.8596
11
78.7609
21
-69.864
0
LINE
8
BLACK
6
CONTINUOUS
10
78.7609
20
-69.864
11
78.7578
21
-69.8678
0
LINE
8
BLACK
6
CONTINUOUS
10
78.7578
20
-69.8678
11
78.754
21
-69.8709
0
LINE
8
BLACK
6
CONTINUOUS
10
78.754
20
-69.8709
11
78.7496
21
-69.8732
0
LINE
8
BLACK
6
CONTINUOUS
10
78.7496
20
-69.8732
11
78.7449
21
-69.8746
0
LINE
8
BLACK
6
CONTINUOUS
10
78.7449
20
-69.8746
11
78.74
21
-69.8751
0
LINE
8
BLACK
6
CONTINUOUS
10
78.74
20
-69.8751
11
78.7388
21
-69.875
0
LINE
8
BLACK
6
CONTINUOUS
10
78.7388
20
-69.875
11
41.9112
21
-69.875
0
LINE
8
BLACK
6
CONTINUOUS
10
41.9112
20
-69.875
11
41.91
21
-69.8751
0
LINE
8
BLACK
6
CONTINUOUS
10
41.91
20
-69.8751
11
41.9051
21
-69.8746
0
LINE
8
BLACK
6
CONTINUOUS
10
41.9051
20
-69.8746
11
41.9004
21
-69.8732
0
LINE
8
BLACK
6
CONTINUOUS
10
41.9004
20
-69.8732
11
41.896
21
-69.8709
0
LINE
8
BLACK
6
CONTINUOUS
10
41.896
20
-69.8709
11
41.8922
21
-69.8678
0
LINE
8
BLACK
6
CONTINUOUS
10
41.8922
20
-69.8678
11
41.8891
21
-69.864
0
LINE
8
BLACK
6
CONTINUOUS
10
41.8891
20
-69.864
11
41.8868
21
-69.8596
0
LINE
8
BLACK
6
CONTINUOUS
10
41.8868
20
-69.8596
11
41.8854
21
-69.8549
0
LINE
8
BLACK
6
CONTINUOUS
10
41.8854
20
-69.8549
11
41.8849
21
-69.85
0
LINE
8
BLACK
6
CONTINUOUS
10
41.8849
20
-69.85
11
41.885
21
-69.8488
0
LINE
8
BLACK
6
CONTINUOUS
10
41.885
20
-69.8488
11
41.885
21
-41.9112
0
LINE
8
BLACK
6
CONTINUOUS
10
41.885
20
-41.9112
11
41.8849
21
-41.91
0
LINE
8
BLACK
6
CONTINUOUS
10
41.8849
20
-41.91
11
41.8854
21
-41.9051
0
LINE
8
BLACK
6
CONTINUOUS
10
41.8854
20
-41.9051
11
41.8868
21
-41.9004
0
LINE
8
BLACK
6
CONTINUOUS
10
41.8868
20
-41.9004
11
41.8891
21
-41.896
0
LINE
8
BLACK
6
CONTINUOUS
10
41.8891
20
-41.896
11
41.8922
21
-41.8922
0
LINE
8
BLACK
6
CONTINUOUS
10
41.8922
20
-41.8922
11
41.896
21
-41.8891
0
LINE
8
BLACK
6
CONTINUOUS
10
41.896
20
-41.8891
11
41.9004
21
-41.8868
0
LINE
8
BLACK
6
CONTINUOUS
10
41.9004
20
-41.8868
11
41.9051
21
-41.8854
0
LINE
8
BLACK
6
CONTINUOUS
10
41.9051
20
-41.8854
11
41.9088
21
-41.885
0
LINE
8
BLACK
6
CONTINUOUS
10
41.9088
20
-41.885
11
41.9088
21
-41.885
0
LINE
8
BLACK
6
CONTINUOUS
10
41.9088
20
-41.885
11
41.91
21
-41.8849
0
LINE
8
BLACK
6
CONTINUOUS
10
41.91
20
-41.8849
11
41.9112
21
-41.885
0
LINE
8
BLACK
6
CONTINUOUS
10
41.9112
20
-41.885
11
78.7388
21
-41.885
0
LINE
8
BLACK
6
CONTINUOUS
10
78.7388
20
-41.885
11
78.74
21
-41.8849
0
LINE
8
BLACK
6
CONTINUOUS
10
41.935
20
-69.825
11
78.715
21
-69.825
0
LINE
8
BLACK
6
CONTINUOUS
10
78.715
20
-69.825
11
78.715
21
-41.935
0
LINE
8
BLACK
6
CONTINUOUS
10
78.715
20
-41.935
11
41.935
21
-41.935
0
LINE
8
BLACK
6
CONTINUOUS
10
41.935
20
-41.935
11
41.935
21
-69.825
0
LINE
8
BLACK
6
CONTINUOUS
10
60.6115
20
-45.1474
11
60.6131
21
-45.1476
0
LINE
8
BLACK
6
CONTINUOUS
10
60.6131
20
-45.1476
11
60.6146
21
-45.1476
0
LINE
8
BLACK
6
CONTINUOUS
10
60.6146
20
-45.1476
11
60.6155
21
-45.1478
0
LINE
8
BLACK
6
CONTINUOUS
10
60.6155
20
-45.1478
11
60.6163
21
-45.1479
0
LINE
8
BLACK
6
CONTINUOUS
10
60.6163
20
-45.1479
11
60.6178
21
-45.1484
0
LINE
8
BLACK
6
CONTINUOUS
10
60.6178
20
-45.1484
11
60.6193
21
-45.1488
0
LINE
8
BLACK
6
CONTINUOUS
10
60.6193
20
-45.1488
11
60.6201
21
-45.1491
0
LINE
8
BLACK
6
CONTINUOUS
10
60.6201
20
-45.1491
11
60.621
21
-45.1494
0
LINE
8
BLACK
6
CONTINUOUS
10
60.621
20
-45.1494
11
60.6224
21
-45.1502
0
LINE
8
BLACK
6
CONTINUOUS
10
60.6224
20
-45.1502
11
60.6238
21
-45.1508
0
LINE
8
BLACK
6
CONTINUOUS
10
60.6238
20
-45.1508
11
60.6245
21
-45.1513
0
LINE
8
BLACK
6
CONTINUOUS
10
60.6245
20
-45.1513
11
60.6253
21
-45.1518
0
LINE
8
BLACK
6
CONTINUOUS
10
60.6253
20
-45.1518
11
60.6265
21
-45.1528
0
LINE
8
BLACK
6
CONTINUOUS
10
60.6265
20
-45.1528
11
60.6277
21
-45.1537
0
LINE
8
BLACK
6
CONTINUOUS
10
60.6277
20
-45.1537
11
60.6283
21
-45.1543
0
LINE
8
BLACK
6
CONTINUOUS
10
60.6283
20
-45.1543
11
60.629
21
-45.1549
0
LINE
8
BLACK
6
CONTINUOUS
10
60.629
20
-45.1549
11
60.63
21
-45.1561
0
LINE
8
BLACK
6
CONTINUOUS
10
60.63
20
-45.1561
11
60.631
21
-45.1573
0
LINE
8
BLACK
6
CONTINUOUS
10
60.631
20
-45.1573
11
60.6315
21
-45.158
0
LINE
8
BLACK
6
CONTINUOUS
10
60.6315
20
-45.158
11
60.6321
21
-45.1587
0
LINE
8
BLACK
6
CONTINUOUS
10
60.6321
20
-45.1587
11
60.6328
21
-45.1601
0
LINE
8
BLACK
6
CONTINUOUS
10
60.6328
20
-45.1601
11
60.6336
21
-45.1614
0
LINE
8
BLACK
6
CONTINUOUS
10
60.6336
20
-45.1614
11
60.6339
21
-45.1622
0
LINE
8
BLACK
6
CONTINUOUS
10
60.6339
20
-45.1622
11
60.6343
21
-45.163
0
LINE
8
BLACK
6
CONTINUOUS
10
60.6343
20
-45.163
11
60.6348
21
-45.1645
0
LINE
8
BLACK
6
CONTINUOUS
10
60.6348
20
-45.1645
11
60.6353
21
-45.166
0
LINE
8
BLACK
6
CONTINUOUS
10
60.6353
20
-45.166
11
60.6354
21
-45.1669
0
LINE
8
BLACK
6
CONTINUOUS
10
60.6354
20
-45.1669
11
60.6357
21
-45.1677
0
LINE
8
BLACK
6
CONTINUOUS
10
60.6357
20
-45.1677
11
60.6358
21
-45.1693
0
LINE
8
BLACK
6
CONTINUOUS
10
60.6358
20
-45.1693
11
60.6361
21
-45.1708
0
LINE
8
BLACK
6
CONTINUOUS
10
60.6361
20
-45.1708
11
60.6361
21
-45.1717
0
LINE
8
BLACK
6
CONTINUOUS
10
60.6361
20
-45.1717
11
60.6361
21
-45.1726
0
LINE
8
BLACK
6
CONTINUOUS
10
60.6361
20
-45.1726
11
60.636
21
-45.1741
0
LINE
8
BLACK
6
CONTINUOUS
10
60.636
20
-45.1741
11
60.6359
21
-45.1757
0
LINE
8
BLACK
6
CONTINUOUS
10
60.6359
20
-45.1757
11
60.6357
21
-45.1765
0
LINE
8
BLACK
6
CONTINUOUS
10
60.6357
20
-45.1765
11
60.6356
21
-45.1774
0
LINE
8
BLACK
6
CONTINUOUS
10
60.6356
20
-45.1774
11
60.6352
21
-45.1789
0
LINE
8
BLACK
6
CONTINUOUS
10
60.6352
20
-45.1789
11
60.6348
21
-45.1804
0
LINE
8
BLACK
6
CONTINUOUS
10
60.6348
20
-45.1804
11
60.6344
21
-45.1812
0
LINE
8
BLACK
6
CONTINUOUS
10
60.6344
20
-45.1812
11
60.6342
21
-45.1821
0
LINE
8
BLACK
6
CONTINUOUS
10
60.6342
20
-45.1821
11
60.6334
21
-45.1834
0
LINE
8
BLACK
6
CONTINUOUS
10
60.6334
20
-45.1834
11
60.6328
21
-45.1849
0
LINE
8
BLACK
6
CONTINUOUS
10
60.6328
20
-45.1849
11
60.6323
21
-45.1856
0
LINE
8
BLACK
6
CONTINUOUS
10
60.6323
20
-45.1856
11
60.6319
21
-45.1864
0
LINE
8
BLACK
6
CONTINUOUS
10
60.6319
20
-45.1864
11
60.6309
21
-45.1876
0
LINE
8
BLACK
6
CONTINUOUS
10
60.6309
20
-45.1876
11
60.6299
21
-45.1888
0
LINE
8
BLACK
6
CONTINUOUS
10
60.6299
20
-45.1888
11
60.3329
21
-45.5283
0
LINE
8
BLACK
6
CONTINUOUS
10
60.3329
20
-45.5283
11
60.4207
21
-45.5283
0
LINE
8
BLACK
6
CONTINUOUS
10
60.4207
20
-45.5283
11
60.421
21
-45.5283
0
LINE
8
BLACK
6
CONTINUOUS
10
60.421
20
-45.5283
11
60.4217
21
-45.5284
0
LINE
8
BLACK
6
CONTINUOUS
10
60.4217
20
-45.5284
11
60.4225
21
-45.5284
0
LINE
8
BLACK
6
CONTINUOUS
10
60.4225
20
-45.5284
11
60.4242
21
-45.5287
0
LINE
8
BLACK
6
CONTINUOUS
10
60.4242
20
-45.5287
11
60.4259
21
-45.5289
0
LINE
8
BLACK
6
CONTINUOUS
10
60.4259
20
-45.5289
11
60.4266
21
-45.5291
0
LINE
8
BLACK
6
CONTINUOUS
10
60.4266
20
-45.5291
11
60.4273
21
-45.5292
0
LINE
8
BLACK
6
CONTINUOUS
10
60.4273
20
-45.5292
11
60.4289
21
-45.5298
0
LINE
8
BLACK
6
CONTINUOUS
10
60.4289
20
-45.5298
11
60.4305
21
-45.5304
0
LINE
8
BLACK
6
CONTINUOUS
10
60.4305
20
-45.5304
11
60.4311
21
-45.5307
0
LINE
8
BLACK
6
CONTINUOUS
10
60.4311
20
-45.5307
11
60.4318
21
-45.531
0
LINE
8
BLACK
6
CONTINUOUS
10
60.4318
20
-45.531
11
60.5271
21
-45.5786
0
LINE
8
BLACK
6
CONTINUOUS
10
60.5271
20
-45.5786
11
60.5274
21
-45.5787
0
LINE
8
BLACK
6
CONTINUOUS
10
60.5274
20
-45.5787
11
60.5286
21
-45.5795
0
LINE
8
BLACK
6
CONTINUOUS
10
60.5286
20
-45.5795
11
60.5298
21
-45.5802
0
LINE
8
BLACK
6
CONTINUOUS
10
60.5298
20
-45.5802
11
60.5306
21
-45.5808
0
LINE
8
BLACK
6
CONTINUOUS
10
60.5306
20
-45.5808
11
60.5315
21
-45.5814
0
LINE
8
BLACK
6
CONTINUOUS
10
60.5315
20
-45.5814
11
60.5325
21
-45.5824
0
LINE
8
BLACK
6
CONTINUOUS
10
60.5325
20
-45.5824
11
60.5336
21
-45.5833
0
LINE
8
BLACK
6
CONTINUOUS
10
60.5336
20
-45.5833
11
60.5812
21
-45.6309
0
LINE
8
BLACK
6
CONTINUOUS
10
60.5812
20
-45.6309
11
60.5814
21
-45.6311
0
LINE
8
BLACK
6
CONTINUOUS
10
60.5814
20
-45.6311
11
60.5823
21
-45.6322
0
LINE
8
BLACK
6
CONTINUOUS
10
60.5823
20
-45.6322
11
60.5833
21
-45.6333
0
LINE
8
BLACK
6
CONTINUOUS
10
60.5833
20
-45.6333
11
60.5838
21
-45.6341
0
LINE
8
BLACK
6
CONTINUOUS
10
60.5838
20
-45.6341
11
60.5845
21
-45.635
0
LINE
8
BLACK
6
CONTINUOUS
10
60.5845
20
-45.635
11
60.5851
21
-45.6362
0
LINE
8
BLACK
6
CONTINUOUS
10
60.5851
20
-45.6362
11
60.5859
21
-45.6374
0
LINE
8
BLACK
6
CONTINUOUS
10
60.5859
20
-45.6374
11
60.6335
21
-45.7326
0
LINE
8
BLACK
6
CONTINUOUS
10
60.6335
20
-45.7326
11
60.6336
21
-45.7329
0
LINE
8
BLACK
6
CONTINUOUS
10
60.6336
20
-45.7329
11
60.6339
21
-45.7336
0
LINE
8
BLACK
6
CONTINUOUS
10
60.6339
20
-45.7336
11
60.6342
21
-45.7343
0
LINE
8
BLACK
6
CONTINUOUS
10
60.6342
20
-45.7343
11
60.6347
21
-45.7359
0
LINE
8
BLACK
6
CONTINUOUS
10
60.6347
20
-45.7359
11
60.6353
21
-45.7375
0
LINE
8
BLACK
6
CONTINUOUS
10
60.6353
20
-45.7375
11
60.6354
21
-45.7383
0
LINE
8
BLACK
6
CONTINUOUS
10
60.6354
20
-45.7383
11
60.6357
21
-45.739
0
LINE
8
BLACK
6
CONTINUOUS
10
60.6357
20
-45.739
11
60.6358
21
-45.7407
0
LINE
8
BLACK
6
CONTINUOUS
10
60.6358
20
-45.7407
11
60.6361
21
-45.7423
0
LINE
8
BLACK
6
CONTINUOUS
10
60.6361
20
-45.7423
11
60.6361
21
-45.7431
0
LINE
8
BLACK
6
CONTINUOUS
10
60.6361
20
-45.7431
11
60.6361
21
-45.7438
0
LINE
8
BLACK
6
CONTINUOUS
10
60.6361
20
-45.7438
11
60.6361
21
-45.9819
0
LINE
8
BLACK
6
CONTINUOUS
10
60.6361
20
-45.9819
11
60.6361
21
-45.9823
0
LINE
8
BLACK
6
CONTINUOUS
10
60.6361
20
-45.9823
11
60.636
21
-45.983
0
LINE
8
BLACK
6
CONTINUOUS
10
60.636
20
-45.983
11
60.6361
21
-45.9837
0
LINE
8
BLACK
6
CONTINUOUS
10
60.6361
20
-45.9837
11
60.6358
21
-45.9854
0
LINE
8
BLACK
6
CONTINUOUS
10
60.6358
20
-45.9854
11
60.6356
21
-45.9871
0
LINE
8
BLACK
6
CONTINUOUS
10
60.6356
20
-45.9871
11
60.6354
21
-45.9878
0
LINE
8
BLACK
6
CONTINUOUS
10
60.6354
20
-45.9878
11
60.6352
21
-45.9885
0
LINE
8
BLACK
6
CONTINUOUS
10
60.6352
20
-45.9885
11
60.6346
21
-45.9901
0
LINE
8
BLACK
6
CONTINUOUS
10
60.6346
20
-45.9901
11
60.6341
21
-45.9918
0
LINE
8
BLACK
6
CONTINUOUS
10
60.6341
20
-45.9918
11
60.6338
21
-45.9924
0
LINE
8
BLACK
6
CONTINUOUS
10
60.6338
20
-45.9924
11
60.6335
21
-45.9931
0
LINE
8
BLACK
6
CONTINUOUS
10
60.6335
20
-45.9931
11
60.5859
21
-46.0883
0
LINE
8
BLACK
6
CONTINUOUS
10
60.5859
20
-46.0883
11
60.5857
21
-46.0886
0
LINE
8
BLACK
6
CONTINUOUS
10
60.5857
20
-46.0886
11
60.5849
21
-46.0898
0
LINE
8
BLACK
6
CONTINUOUS
10
60.5849
20
-46.0898
11
60.5843
21
-46.091
0
LINE
8
BLACK
6
CONTINUOUS
10
60.5843
20
-46.091
11
60.5836
21
-46.0919
0
LINE
8
BLACK
6
CONTINUOUS
10
60.5836
20
-46.0919
11
60.5831
21
-46.0927
0
LINE
8
BLACK
6
CONTINUOUS
10
60.5831
20
-46.0927
11
60.5821
21
-46.0937
0
LINE
8
BLACK
6
CONTINUOUS
10
60.5821
20
-46.0937
11
60.5812
21
-46.0948
0
LINE
8
BLACK
6
CONTINUOUS
10
60.5812
20
-46.0948
11
60.5336
21
-46.1424
0
LINE
8
BLACK
6
CONTINUOUS
10
60.5336
20
-46.1424
11
60.5333
21
-46.1427
0
LINE
8
BLACK
6
CONTINUOUS
10
60.5333
20
-46.1427
11
60.5322
21
-46.1436
0
LINE
8
BLACK
6
CONTINUOUS
10
60.5322
20
-46.1436
11
60.5312
21
-46.1445
0
LINE
8
BLACK
6
CONTINUOUS
10
60.5312
20
-46.1445
11
60.5303
21
-46.1451
0
LINE
8
BLACK
6
CONTINUOUS
10
60.5303
20
-46.1451
11
60.5295
21
-46.1457
0
LINE
8
BLACK
6
CONTINUOUS
10
60.5295
20
-46.1457
11
60.5283
21
-46.1464
0
LINE
8
BLACK
6
CONTINUOUS
10
60.5283
20
-46.1464
11
60.5271
21
-46.1471
0
LINE
8
BLACK
6
CONTINUOUS
10
60.5271
20
-46.1471
11
60.4318
21
-46.1947
0
LINE
8
BLACK
6
CONTINUOUS
10
60.4318
20
-46.1947
11
60.4315
21
-46.1949
0
LINE
8
BLACK
6
CONTINUOUS
10
60.4315
20
-46.1949
11
60.4308
21
-46.1951
0
LINE
8
BLACK
6
CONTINUOUS
10
60.4308
20
-46.1951
11
60.4302
21
-46.1955
0
LINE
8
BLACK
6
CONTINUOUS
10
60.4302
20
-46.1955
11
60.4285
21
-46.196
0
LINE
8
BLACK
6
CONTINUOUS
10
60.4285
20
-46.196
11
60.4269
21
-46.1966
0
LINE
8
BLACK
6
CONTINUOUS
10
60.4269
20
-46.1966
11
60.4262
21
-46.1967
0
LINE
8
BLACK
6
CONTINUOUS
10
60.4262
20
-46.1967
11
60.4255
21
-46.1969
0
LINE
8
BLACK
6
CONTINUOUS
10
60.4255
20
-46.1969
11
60.4238
21
-46.1971
0
LINE
8
BLACK
6
CONTINUOUS
10
60.4238
20
-46.1971
11
60.4221
21
-46.1973
0
LINE
8
BLACK
6
CONTINUOUS
10
60.4221
20
-46.1973
11
60.4214
21
-46.1973
0
LINE
8
BLACK
6
CONTINUOUS
10
60.4214
20
-46.1973
11
60.4207
21
-46.1974
0
LINE
8
BLACK
6
CONTINUOUS
10
60.4207
20
-46.1974
11
60.1349
21
-46.1974
0
LINE
8
BLACK
6
CONTINUOUS
10
60.1349
20
-46.1974
11
60.1346
21
-46.1974
0
LINE
8
BLACK
6
CONTINUOUS
10
60.1346
20
-46.1974
11
60.1339
21
-46.1973
0
LINE
8
BLACK
6
CONTINUOUS
10
60.1339
20
-46.1973
11
60.1331
21
-46.1973
0
LINE
8
BLACK
6
CONTINUOUS
10
60.1331
20
-46.1973
11
60.1315
21
-46.197
0
LINE
8
BLACK
6
CONTINUOUS
10
60.1315
20
-46.197
11
60.1297
21
-46.1968
0
LINE
8
BLACK
6
CONTINUOUS
10
60.1297
20
-46.1968
11
60.129
21
-46.1966
0
LINE
8
BLACK
6
CONTINUOUS
10
60.129
20
-46.1966
11
60.1283
21
-46.1965
0
LINE
8
BLACK
6
CONTINUOUS
10
60.1283
20
-46.1965
11
60.1267
21
-46.1959
0
LINE
8
BLACK
6
CONTINUOUS
10
60.1267
20
-46.1959
11
60.1251
21
-46.1954
0
LINE
8
BLACK
6
CONTINUOUS
10
60.1251
20
-46.1954
11
60.1245
21
-46.195
0
LINE
8
BLACK
6
CONTINUOUS
10
60.1245
20
-46.195
11
60.1238
21
-46.1947
0
LINE
8
BLACK
6
CONTINUOUS
10
60.1238
20
-46.1947
11
60.0285
21
-46.1471
0
LINE
8
BLACK
6
CONTINUOUS
10
60.0285
20
-46.1471
11
60.0282
21
-46.147
0
LINE
8
BLACK
6
CONTINUOUS
10
60.0282
20
-46.147
11
60.027
21
-46.1462
0
LINE
8
BLACK
6
CONTINUOUS
10
60.027
20
-46.1462
11
60.0258
21
-46.1455
0
LINE
8
BLACK
6
CONTINUOUS
10
60.0258
20
-46.1455
11
60.025
21
-46.1449
0
LINE
8
BLACK
6
CONTINUOUS
10
60.025
20
-46.1449
11
60.0241
21
-46.1443
0
LINE
8
BLACK
6
CONTINUOUS
10
60.0241
20
-46.1443
11
60.0231
21
-46.1433
0
LINE
8
BLACK
6
CONTINUOUS
10
60.0231
20
-46.1433
11
60.022
21
-46.1424
0
LINE
8
BLACK
6
CONTINUOUS
10
60.022
20
-46.1424
11
59.9744
21
-46.0948
0
LINE
8
BLACK
6
CONTINUOUS
10
59.9744
20
-46.0948
11
59.9742
21
-46.0946
0
LINE
8
BLACK
6
CONTINUOUS
10
59.9742
20
-46.0946
11
59.9711
21
-46.0908
0
LINE
8
BLACK
6
CONTINUOUS
10
59.9711
20
-46.0908
11
59.9689
21
-46.0864
0
LINE
8
BLACK
6
CONTINUOUS
10
59.9689
20
-46.0864
11
59.9675
21
-46.0817
0
LINE
8
BLACK
6
CONTINUOUS
10
59.9675
20
-46.0817
11
59.9671
21
-46.0769
0
LINE
8
BLACK
6
CONTINUOUS
10
59.9671
20
-46.0769
11
59.9676
21
-46.072
0
LINE
8
BLACK
6
CONTINUOUS
10
59.9676
20
-46.072
11
59.9691
21
-46.0674
0
LINE
8
BLACK
6
CONTINUOUS
10
59.9691
20
-46.0674
11
59.9714
21
-46.0631
0
LINE
8
BLACK
6
CONTINUOUS
10
59.9714
20
-46.0631
11
59.9745
21
-46.0593
0
LINE
8
BLACK
6
CONTINUOUS
10
59.9745
20
-46.0593
11
59.9783
21
-46.0563
0
LINE
8
BLACK
6
CONTINUOUS
10
59.9783
20
-46.0563
11
59.9826
21
-46.054
0
LINE
8
BLACK
6
CONTINUOUS
10
59.9826
20
-46.054
11
59.9873
21
-46.0526
0
LINE
8
BLACK
6
CONTINUOUS
10
59.9873
20
-46.0526
11
59.9922
21
-46.0521
0
LINE
8
BLACK
6
CONTINUOUS
10
59.9922
20
-46.0521
11
59.997
21
-46.0526
0
LINE
8
BLACK
6
CONTINUOUS
10
59.997
20
-46.0526
11
60.0017
21
-46.0541
0
LINE
8
BLACK
6
CONTINUOUS
10
60.0017
20
-46.0541
11
60.006
21
-46.0564
0
LINE
8
BLACK
6
CONTINUOUS
10
60.006
20
-46.0564
11
60.0098
21
-46.0595
0
LINE
8
BLACK
6
CONTINUOUS
10
60.0098
20
-46.0595
11
60.0545
21
-46.1042
0
LINE
8
BLACK
6
CONTINUOUS
10
60.0545
20
-46.1042
11
60.1408
21
-46.1474
0
LINE
8
BLACK
6
CONTINUOUS
10
60.1408
20
-46.1474
11
60.4148
21
-46.1474
0
LINE
8
BLACK
6
CONTINUOUS
10
60.4148
20
-46.1474
11
60.5011
21
-46.1042
0
LINE
8
BLACK
6
CONTINUOUS
10
60.5011
20
-46.1042
11
60.543
21
-46.0623
0
LINE
8
BLACK
6
CONTINUOUS
10
60.543
20
-46.0623
11
60.5861
21
-45.976
0
LINE
8
BLACK
6
CONTINUOUS
10
60.5861
20
-45.976
11
60.5861
21
-45.7497
0
LINE
8
BLACK
6
CONTINUOUS
10
60.5861
20
-45.7497
11
60.543
21
-45.6634
0
LINE
8
BLACK
6
CONTINUOUS
10
60.543
20
-45.6634
11
60.5011
21
-45.6215
0
LINE
8
BLACK
6
CONTINUOUS
10
60.5011
20
-45.6215
11
60.4148
21
-45.5783
0
LINE
8
BLACK
6
CONTINUOUS
10
60.4148
20
-45.5783
11
60.2778
21
-45.5783
0
LINE
8
BLACK
6
CONTINUOUS
10
60.2778
20
-45.5783
11
60.2775
21
-45.5783
0
LINE
8
BLACK
6
CONTINUOUS
10
60.2775
20
-45.5783
11
60.2759
21
-45.5782
0
LINE
8
BLACK
6
CONTINUOUS
10
60.2759
20
-45.5782
11
60.2743
21
-45.5781
0
LINE
8
BLACK
6
CONTINUOUS
10
60.2743
20
-45.5781
11
60.2735
21
-45.5779
0
LINE
8
BLACK
6
CONTINUOUS
10
60.2735
20
-45.5779
11
60.2726
21
-45.5778
0
LINE
8
BLACK
6
CONTINUOUS
10
60.2726
20
-45.5778
11
60.2711
21
-45.5773
0
LINE
8
BLACK
6
CONTINUOUS
10
60.2711
20
-45.5773
11
60.2696
21
-45.5769
0
LINE
8
BLACK
6
CONTINUOUS
10
60.2696
20
-45.5769
11
60.2688
21
-45.5766
0
LINE
8
BLACK
6
CONTINUOUS
10
60.2688
20
-45.5766
11
60.268
21
-45.5763
0
LINE
8
BLACK
6
CONTINUOUS
10
60.268
20
-45.5763
11
60.2666
21
-45.5756
0
LINE
8
BLACK
6
CONTINUOUS
10
60.2666
20
-45.5756
11
60.2652
21
-45.5749
0
LINE
8
BLACK
6
CONTINUOUS
10
60.2652
20
-45.5749
11
60.2644
21
-45.5744
0
LINE
8
BLACK
6
CONTINUOUS
10
60.2644
20
-45.5744
11
60.2637
21
-45.574
0
LINE
8
BLACK
6
CONTINUOUS
10
60.2637
20
-45.574
11
60.2625
21
-45.5729
0
LINE
8
BLACK
6
CONTINUOUS
10
60.2625
20
-45.5729
11
60.2612
21
-45.572
0
LINE
8
BLACK
6
CONTINUOUS
10
60.2612
20
-45.572
11
60.2606
21
-45.5714
0
LINE
8
BLACK
6
CONTINUOUS
10
60.2606
20
-45.5714
11
60.2599
21
-45.5708
0
LINE
8
BLACK
6
CONTINUOUS
10
60.2599
20
-45.5708
11
60.259
21
-45.5696
0
LINE
8
BLACK
6
CONTINUOUS
10
60.259
20
-45.5696
11
60.2579
21
-45.5685
0
LINE
8
BLACK
6
CONTINUOUS
10
60.2579
20
-45.5685
11
60.2574
21
-45.5677
0
LINE
8
BLACK
6
CONTINUOUS
10
60.2574
20
-45.5677
11
60.2569
21
-45.567
0
LINE
8
BLACK
6
CONTINUOUS
10
60.2569
20
-45.567
11
60.2562
21
-45.5656
0
LINE
8
BLACK
6
CONTINUOUS
10
60.2562
20
-45.5656
11
60.2553
21
-45.5643
0
LINE
8
BLACK
6
CONTINUOUS
10
60.2553
20
-45.5643
11
60.255
21
-45.5635
0
LINE
8
BLACK
6
CONTINUOUS
10
60.255
20
-45.5635
11
60.2546
21
-45.5627
0
LINE
8
BLACK
6
CONTINUOUS
10
60.2546
20
-45.5627
11
60.2542
21
-45.5612
0
LINE
8
BLACK
6
CONTINUOUS
10
60.2542
20
-45.5612
11
60.2536
21
-45.5597
0
LINE
8
BLACK
6
CONTINUOUS
10
60.2536
20
-45.5597
11
60.2535
21
-45.5589
0
LINE
8
BLACK
6
CONTINUOUS
10
60.2535
20
-45.5589
11
60.2532
21
-45.558
0
LINE
8
BLACK
6
CONTINUOUS
10
60.2532
20
-45.558
11
60.2531
21
-45.5565
0
LINE
8
BLACK
6
CONTINUOUS
10
60.2531
20
-45.5565
11
60.2528
21
-45.5549
0
LINE
8
BLACK
6
CONTINUOUS
10
60.2528
20
-45.5549
11
60.2529
21
-45.554
0
LINE
8
BLACK
6
CONTINUOUS
10
60.2529
20
-45.554
11
60.2528
21
-45.5532
0
LINE
8
BLACK
6
CONTINUOUS
10
60.2528
20
-45.5532
11
60.253
21
-45.5516
0
LINE
8
BLACK
6
CONTINUOUS
10
60.253
20
-45.5516
11
60.253
21
-45.55
0
LINE
8
BLACK
6
CONTINUOUS
10
60.253
20
-45.55
11
60.2532
21
-45.5492
0
LINE
8
BLACK
6
CONTINUOUS
10
60.2532
20
-45.5492
11
60.2533
21
-45.5483
0
LINE
8
BLACK
6
CONTINUOUS
10
60.2533
20
-45.5483
11
60.2538
21
-45.5468
0
LINE
8
BLACK
6
CONTINUOUS
10
60.2538
20
-45.5468
11
60.2541
21
-45.5453
0
LINE
8
BLACK
6
CONTINUOUS
10
60.2541
20
-45.5453
11
60.2545
21
-45.5445
0
LINE
8
BLACK
6
CONTINUOUS
10
60.2545
20
-45.5445
11
60.2548
21
-45.5436
0
LINE
8
BLACK
6
CONTINUOUS
10
60.2548
20
-45.5436
11
60.2555
21
-45.5423
0
LINE
8
BLACK
6
CONTINUOUS
10
60.2555
20
-45.5423
11
60.2561
21
-45.5408
0
LINE
8
BLACK
6
CONTINUOUS
10
60.2561
20
-45.5408
11
60.2567
21
-45.5401
0
LINE
8
BLACK
6
CONTINUOUS
10
60.2567
20
-45.5401
11
60.2571
21
-45.5394
0
LINE
8
BLACK
6
CONTINUOUS
10
60.2571
20
-45.5394
11
60.2581
21
-45.5381
0
LINE
8
BLACK
6
CONTINUOUS
10
60.2581
20
-45.5381
11
60.259
21
-45.5369
0
LINE
8
BLACK
6
CONTINUOUS
10
60.259
20
-45.5369
11
60.556
21
-45.1974
0
LINE
8
BLACK
6
CONTINUOUS
10
60.556
20
-45.1974
11
59.9921
21
-45.1974
0
LINE
8
BLACK
6
CONTINUOUS
10
59.9921
20
-45.1974
11
59.9917
21
-45.1974
0
LINE
8
BLACK
6
CONTINUOUS
10
59.9917
20
-45.1974
11
59.9869
21
-45.1968
0
LINE
8
BLACK
6
CONTINUOUS
10
59.9869
20
-45.1968
11
59.9822
21
-45.1954
0
LINE
8
BLACK
6
CONTINUOUS
10
59.9822
20
-45.1954
11
59.978
21
-45.193
0
LINE
8
BLACK
6
CONTINUOUS
10
59.978
20
-45.193
11
59.9742
21
-45.1899
0
LINE
8
BLACK
6
CONTINUOUS
10
59.9742
20
-45.1899
11
59.9712
21
-45.1861
0
LINE
8
BLACK
6
CONTINUOUS
10
59.9712
20
-45.1861
11
59.9689
21
-45.1817
0
LINE
8
BLACK
6
CONTINUOUS
10
59.9689
20
-45.1817
11
59.9675
21
-45.1771
0
LINE
8
BLACK
6
CONTINUOUS
10
59.9675
20
-45.1771
11
59.9671
21
-45.1722
0
LINE
8
BLACK
6
CONTINUOUS
10
59.9671
20
-45.1722
11
59.9676
21
-45.1674
0
LINE
8
BLACK
6
CONTINUOUS
10
59.9676
20
-45.1674
11
59.969
21
-45.1627
0
LINE
8
BLACK
6
CONTINUOUS
10
59.969
20
-45.1627
11
59.9714
21
-45.1584
0
LINE
8
BLACK
6
CONTINUOUS
10
59.9714
20
-45.1584
11
59.9745
21
-45.1546
0
LINE
8
BLACK
6
CONTINUOUS
10
59.9745
20
-45.1546
11
59.9783
21
-45.1516
0
LINE
8
BLACK
6
CONTINUOUS
10
59.9783
20
-45.1516
11
59.9826
21
-45.1493
0
LINE
8
BLACK
6
CONTINUOUS
10
59.9826
20
-45.1493
11
59.9872
21
-45.1479
0
LINE
8
BLACK
6
CONTINUOUS
10
59.9872
20
-45.1479
11
59.9921
21
-45.1474
0
LINE
8
BLACK
6
CONTINUOUS
10
59.9921
20
-45.1474
11
60.6111
21
-45.1474
0
LINE
8
BLACK
6
CONTINUOUS
10
60.6111
20
-45.1474
11
60.6115
21
-45.1474
0
LINE
8
BLACK
6
CONTINUOUS
10
55.242
20
-45.1477
11
55.244
21
-45.1479
0
LINE
8
BLACK
6
CONTINUOUS
10
55.244
20
-45.1479
11
55.244
21
-45.1479
0
LINE
8
BLACK
6
CONTINUOUS
10
55.244
20
-45.1479
11
55.244
21
-45.1479
0
LINE
8
BLACK
6
CONTINUOUS
10
55.244
20
-45.1479
11
55.2464
21
-45.1486
0
LINE
8
BLACK
6
CONTINUOUS
10
55.2464
20
-45.1486
11
55.2486
21
-45.1493
0
LINE
8
BLACK
6
CONTINUOUS
10
55.2486
20
-45.1493
11
55.2486
21
-45.1493
0
LINE
8
BLACK
6
CONTINUOUS
10
55.2486
20
-45.1493
11
55.2487
21
-45.1493
0
LINE
8
BLACK
6
CONTINUOUS
10
55.2487
20
-45.1493
11
55.2504
21
-45.1503
0
LINE
8
BLACK
6
CONTINUOUS
10
55.2504
20
-45.1503
11
55.2529
21
-45.1517
0
LINE
8
BLACK
6
CONTINUOUS
10
55.2529
20
-45.1517
11
55.2529
21
-45.1517
0
LINE
8
BLACK
6
CONTINUOUS
10
55.2529
20
-45.1517
11
55.2529
21
-45.1517
0
LINE
8
BLACK
6
CONTINUOUS
10
55.2529
20
-45.1517
11
55.2545
21
-45.153
0
LINE
8
BLACK
6
CONTINUOUS
10
55.2545
20
-45.153
11
55.2567
21
-45.1548
0
LINE
8
BLACK
6
CONTINUOUS
10
55.2567
20
-45.1548
11
55.2567
21
-45.1548
0
LINE
8
BLACK
6
CONTINUOUS
10
55.2567
20
-45.1548
11
55.2567
21
-45.1548
0
LINE
8
BLACK
6
CONTINUOUS
10
55.2567
20
-45.1548
11
55.2581
21
-45.1566
0
LINE
8
BLACK
6
CONTINUOUS
10
55.2581
20
-45.1566
11
55.2598
21
-45.1585
0
LINE
8
BLACK
6
CONTINUOUS
10
55.2598
20
-45.1585
11
55.2598
21
-45.1586
0
LINE
8
BLACK
6
CONTINUOUS
10
55.2598
20
-45.1586
11
55.2598
21
-45.1586
0
LINE
8
BLACK
6
CONTINUOUS
10
55.2598
20
-45.1586
11
55.2609
21
-45.1607
0
LINE
8
BLACK
6
CONTINUOUS
10
55.2609
20
-45.1607
11
55.262
21
-45.1629
0
LINE
8
BLACK
6
CONTINUOUS
10
55.262
20
-45.1629
11
55.262
21
-45.1629
0
LINE
8
BLACK
6
CONTINUOUS
10
55.262
20
-45.1629
11
55.2621
21
-45.1629
0
LINE
8
BLACK
6
CONTINUOUS
10
55.2621
20
-45.1629
11
55.2627
21
-45.165
0
LINE
8
BLACK
6
CONTINUOUS
10
55.2627
20
-45.165
11
55.2635
21
-45.1675
0
LINE
8
BLACK
6
CONTINUOUS
10
55.2635
20
-45.1675
11
55.2635
21
-45.1675
0
LINE
8
BLACK
6
CONTINUOUS
10
55.2635
20
-45.1675
11
55.2635
21
-45.1676
0
LINE
8
BLACK
6
CONTINUOUS
10
55.2635
20
-45.1676
11
55.2637
21
-45.1698
0
LINE
8
BLACK
6
CONTINUOUS
10
55.2637
20
-45.1698
11
55.2639
21
-45.1724
0
LINE
8
BLACK
6
CONTINUOUS
10
55.2639
20
-45.1724
11
55.2639
21
-46.1474
0
LINE
8
BLACK
6
CONTINUOUS
10
55.2639
20
-46.1474
11
55.5246
21
-46.1474
0
LINE
8
BLACK
6
CONTINUOUS
10
55.5246
20
-46.1474
11
55.525
21
-46.1474
0
LINE
8
BLACK
6
CONTINUOUS
10
55.525
20
-46.1474
11
55.5298
21
-46.1479
0
LINE
8
BLACK
6
CONTINUOUS
10
55.5298
20
-46.1479
11
55.5345
21
-46.1494
0
LINE
8
BLACK
6
CONTINUOUS
10
55.5345
20
-46.1494
11
55.5388
21
-46.1518
0
LINE
8
BLACK
6
CONTINUOUS
10
55.5388
20
-46.1518
11
55.5425
21
-46.1549
0
LINE
8
BLACK
6
CONTINUOUS
10
55.5425
20
-46.1549
11
55.5456
21
-46.1587
0
LINE
8
BLACK
6
CONTINUOUS
10
55.5456
20
-46.1587
11
55.5478
21
-46.163
0
LINE
8
BLACK
6
CONTINUOUS
10
55.5478
20
-46.163
11
55.5492
21
-46.1677
0
LINE
8
BLACK
6
CONTINUOUS
10
55.5492
20
-46.1677
11
55.5496
21
-46.1726
0
LINE
8
BLACK
6
CONTINUOUS
10
55.5496
20
-46.1726
11
55.5491
21
-46.1774
0
LINE
8
BLACK
6
CONTINUOUS
10
55.5491
20
-46.1774
11
55.5477
21
-46.1821
0
LINE
8
BLACK
6
CONTINUOUS
10
55.5477
20
-46.1821
11
55.5454
21
-46.1864
0
LINE
8
BLACK
6
CONTINUOUS
10
55.5454
20
-46.1864
11
55.5423
21
-46.1901
0
LINE
8
BLACK
6
CONTINUOUS
10
55.5423
20
-46.1901
11
55.5385
21
-46.1932
0
LINE
8
BLACK
6
CONTINUOUS
10
55.5385
20
-46.1932
11
55.5342
21
-46.1955
0
LINE
8
BLACK
6
CONTINUOUS
10
55.5342
20
-46.1955
11
55.5295
21
-46.1969
0
LINE
8
BLACK
6
CONTINUOUS
10
55.5295
20
-46.1969
11
55.5246
21
-46.1974
0
LINE
8
BLACK
6
CONTINUOUS
10
55.5246
20
-46.1974
11
54.9532
21
-46.1974
0
LINE
8
BLACK
6
CONTINUOUS
10
54.9532
20
-46.1974
11
54.9529
21
-46.1974
0
LINE
8
BLACK
6
CONTINUOUS
10
54.9529
20
-46.1974
11
54.948
21
-46.1968
0
LINE
8
BLACK
6
CONTINUOUS
10
54.948
20
-46.1968
11
54.9434
21
-46.1954
0
LINE
8
BLACK
6
CONTINUOUS
10
54.9434
20
-46.1954
11
54.9391
21
-46.193
0
LINE
8
BLACK
6
CONTINUOUS
10
54.9391
20
-46.193
11
54.9354
21
-46.1899
0
LINE
8
BLACK
6
CONTINUOUS
10
54.9354
20
-46.1899
11
54.9323
21
-46.1861
0
LINE
8
BLACK
6
CONTINUOUS
10
54.9323
20
-46.1861
11
54.93
21
-46.1817
0
LINE
8
BLACK
6
CONTINUOUS
10
54.93
20
-46.1817
11
54.9287
21
-46.1771
0
LINE
8
BLACK
6
CONTINUOUS
10
54.9287
20
-46.1771
11
54.9282
21
-46.1722
0
LINE
8
BLACK
6
CONTINUOUS
10
54.9282
20
-46.1722
11
54.9287
21
-46.1674
0
LINE
8
BLACK
6
CONTINUOUS
10
54.9287
20
-46.1674
11
54.9302
21
-46.1627
0
LINE
8
BLACK
6
CONTINUOUS
10
54.9302
20
-46.1627
11
54.9325
21
-46.1584
0
LINE
8
BLACK
6
CONTINUOUS
10
54.9325
20
-46.1584
11
54.9356
21
-46.1546
0
LINE
8
BLACK
6
CONTINUOUS
10
54.9356
20
-46.1546
11
54.9394
21
-46.1516
0
LINE
8
BLACK
6
CONTINUOUS
10
54.9394
20
-46.1516
11
54.9437
21
-46.1493
0
LINE
8
BLACK
6
CONTINUOUS
10
54.9437
20
-46.1493
11
54.9484
21
-46.1479
0
LINE
8
BLACK
6
CONTINUOUS
10
54.9484
20
-46.1479
11
54.9532
21
-46.1474
0
LINE
8
BLACK
6
CONTINUOUS
10
54.9532
20
-46.1474
11
55.2139
21
-46.1474
0
LINE
8
BLACK
6
CONTINUOUS
10
55.2139
20
-46.1474
11
55.2139
21
-45.2549
0
LINE
8
BLACK
6
CONTINUOUS
10
55.2139
20
-45.2549
11
55.1645
21
-45.3291
0
LINE
8
BLACK
6
CONTINUOUS
10
55.1645
20
-45.3291
11
55.1643
21
-45.3294
0
LINE
8
BLACK
6
CONTINUOUS
10
55.1643
20
-45.3294
11
55.1628
21
-45.3312
0
LINE
8
BLACK
6
CONTINUOUS
10
55.1628
20
-45.3312
11
55.1614
21
-45.3329
0
LINE
8
BLACK
6
CONTINUOUS
10
55.1614
20
-45.3329
11
55.0661
21
-45.4282
0
LINE
8
BLACK
6
CONTINUOUS
10
55.0661
20
-45.4282
11
55.0659
21
-45.4284
0
LINE
8
BLACK
6
CONTINUOUS
10
55.0659
20
-45.4284
11
55.0648
21
-45.4293
0
LINE
8
BLACK
6
CONTINUOUS
10
55.0648
20
-45.4293
11
55.0638
21
-45.4302
0
LINE
8
BLACK
6
CONTINUOUS
10
55.0638
20
-45.4302
11
55.0629
21
-45.4308
0
LINE
8
BLACK
6
CONTINUOUS
10
55.0629
20
-45.4308
11
55.0621
21
-45.4314
0
LINE
8
BLACK
6
CONTINUOUS
10
55.0621
20
-45.4314
11
55.0608
21
-45.4321
0
LINE
8
BLACK
6
CONTINUOUS
10
55.0608
20
-45.4321
11
55.0596
21
-45.4328
0
LINE
8
BLACK
6
CONTINUOUS
10
55.0596
20
-45.4328
11
54.9644
21
-45.4805
0
LINE
8
BLACK
6
CONTINUOUS
10
54.9644
20
-45.4805
11
54.9641
21
-45.4806
0
LINE
8
BLACK
6
CONTINUOUS
10
54.9641
20
-45.4806
11
54.9595
21
-45.4823
0
LINE
8
BLACK
6
CONTINUOUS
10
54.9595
20
-45.4823
11
54.9547
21
-45.4831
0
LINE
8
BLACK
6
CONTINUOUS
10
54.9547
20
-45.4831
11
54.9498
21
-45.4829
0
LINE
8
BLACK
6
CONTINUOUS
10
54.9498
20
-45.4829
11
54.9451
21
-45.4817
0
LINE
8
BLACK
6
CONTINUOUS
10
54.9451
20
-45.4817
11
54.9406
21
-45.4797
0
LINE
8
BLACK
6
CONTINUOUS
10
54.9406
20
-45.4797
11
54.9367
21
-45.4768
0
LINE
8
BLACK
6
CONTINUOUS
10
54.9367
20
-45.4768
11
54.9333
21
-45.4733
0
LINE
8
BLACK
6
CONTINUOUS
10
54.9333
20
-45.4733
11
54.9308
21
-45.4691
0
LINE
8
BLACK
6
CONTINUOUS
10
54.9308
20
-45.4691
11
54.9291
21
-45.4646
0
LINE
8
BLACK
6
CONTINUOUS
10
54.9291
20
-45.4646
11
54.9283
21
-45.4597
0
LINE
8
BLACK
6
CONTINUOUS
10
54.9283
20
-45.4597
11
54.9284
21
-45.4549
0
LINE
8
BLACK
6
CONTINUOUS
10
54.9284
20
-45.4549
11
54.9295
21
-45.4501
0
LINE
8
BLACK
6
CONTINUOUS
10
54.9295
20
-45.4501
11
54.9315
21
-45.4457
0
LINE
8
BLACK
6
CONTINUOUS
10
54.9315
20
-45.4457
11
54.9344
21
-45.4417
0
LINE
8
BLACK
6
CONTINUOUS
10
54.9344
20
-45.4417
11
54.9379
21
-45.4383
0
LINE
8
BLACK
6
CONTINUOUS
10
54.9379
20
-45.4383
11
54.942
21
-45.4357
0
LINE
8
BLACK
6
CONTINUOUS
10
54.942
20
-45.4357
11
55.0336
21
-45.3899
0
LINE
8
BLACK
6
CONTINUOUS
10
55.0336
20
-45.3899
11
55.1243
21
-45.2993
0
LINE
8
BLACK
6
CONTINUOUS
10
55.1243
20
-45.2993
11
55.2181
21
-45.1585
0
LINE
8
BLACK
6
CONTINUOUS
10
55.2181
20
-45.1585
11
55.2183
21
-45.1582
0
LINE
8
BLACK
6
CONTINUOUS
10
55.2183
20
-45.1582
11
55.2201
21
-45.1561
0
LINE
8
BLACK
6
CONTINUOUS
10
55.2201
20
-45.1561
11
55.2214
21
-45.1545
0
LINE
8
BLACK
6
CONTINUOUS
10
55.2214
20
-45.1545
11
55.2215
21
-45.1545
0
LINE
8
BLACK
6
CONTINUOUS
10
55.2215
20
-45.1545
11
55.2215
21
-45.1545
0
LINE
8
BLACK
6
CONTINUOUS
10
55.2215
20
-45.1545
11
55.2236
21
-45.1528
0
LINE
8
BLACK
6
CONTINUOUS
10
55.2236
20
-45.1528
11
55.2252
21
-45.1515
0
LINE
8
BLACK
6
CONTINUOUS
10
55.2252
20
-45.1515
11
55.2253
21
-45.1515
0
LINE
8
BLACK
6
CONTINUOUS
10
55.2253
20
-45.1515
11
55.2253
21
-45.1514
0
LINE
8
BLACK
6
CONTINUOUS
10
55.2253
20
-45.1514
11
55.2274
21
-45.1503
0
LINE
8
BLACK
6
CONTINUOUS
10
55.2274
20
-45.1503
11
55.2296
21
-45.1492
0
LINE
8
BLACK
6
CONTINUOUS
10
55.2296
20
-45.1492
11
55.2296
21
-45.1492
0
LINE
8
BLACK
6
CONTINUOUS
10
55.2296
20
-45.1492
11
55.2296
21
-45.1492
0
LINE
8
BLACK
6
CONTINUOUS
10
55.2296
20
-45.1492
11
55.2319
21
-45.1485
0
LINE
8
BLACK
6
CONTINUOUS
10
55.2319
20
-45.1485
11
55.2342
21
-45.1478
0
LINE
8
BLACK
6
CONTINUOUS
10
55.2342
20
-45.1478
11
55.2343
21
-45.1478
0
LINE
8
BLACK
6
CONTINUOUS
10
55.2343
20
-45.1478
11
55.2343
21
-45.1478
0
LINE
8
BLACK
6
CONTINUOUS
10
55.2343
20
-45.1478
11
55.237
21
-45.1476
0
LINE
8
BLACK
6
CONTINUOUS
10
55.237
20
-45.1476
11
55.2391
21
-45.1474
0
LINE
8
BLACK
6
CONTINUOUS
10
55.2391
20
-45.1474
11
55.2391
21
-45.1474
0
LINE
8
BLACK
6
CONTINUOUS
10
55.2391
20
-45.1474
11
55.2391
21
-45.1474
0
LINE
8
BLACK
6
CONTINUOUS
10
55.2391
20
-45.1474
11
55.242
21
-45.1477
0
LINE
8
BLACK
6
CONTINUOUS
10
57.8796
20
-45.1474
11
57.8803
21
-45.1475
0
LINE
8
BLACK
6
CONTINUOUS
10
57.8803
20
-45.1475
11
57.8811
21
-45.1474
0
LINE
8
BLACK
6
CONTINUOUS
10
57.8811
20
-45.1474
11
57.8827
21
-45.1477
0
LINE
8
BLACK
6
CONTINUOUS
10
57.8827
20
-45.1477
11
57.8844
21
-45.1479
0
LINE
8
BLACK
6
CONTINUOUS
10
57.8844
20
-45.1479
11
57.8851
21
-45.1481
0
LINE
8
BLACK
6
CONTINUOUS
10
57.8851
20
-45.1481
11
57.8859
21
-45.1483
0
LINE
8
BLACK
6
CONTINUOUS
10
57.8859
20
-45.1483
11
57.8875
21
-45.1489
0
LINE
8
BLACK
6
CONTINUOUS
10
57.8875
20
-45.1489
11
57.8891
21
-45.1494
0
LINE
8
BLACK
6
CONTINUOUS
10
57.8891
20
-45.1494
11
57.8897
21
-45.1498
0
LINE
8
BLACK
6
CONTINUOUS
10
57.8897
20
-45.1498
11
57.8904
21
-45.15
0
LINE
8
BLACK
6
CONTINUOUS
10
57.8904
20
-45.15
11
57.9857
21
-45.1976
0
LINE
8
BLACK
6
CONTINUOUS
10
57.9857
20
-45.1976
11
57.986
21
-45.1978
0
LINE
8
BLACK
6
CONTINUOUS
10
57.986
20
-45.1978
11
57.9872
21
-45.1986
0
LINE
8
BLACK
6
CONTINUOUS
10
57.9872
20
-45.1986
11
57.9884
21
-45.1992
0
LINE
8
BLACK
6
CONTINUOUS
10
57.9884
20
-45.1992
11
57.9892
21
-45.1999
0
LINE
8
BLACK
6
CONTINUOUS
10
57.9892
20
-45.1999
11
57.9901
21
-45.2005
0
LINE
8
BLACK
6
CONTINUOUS
10
57.9901
20
-45.2005
11
57.9911
21
-45.2014
0
LINE
8
BLACK
6
CONTINUOUS
10
57.9911
20
-45.2014
11
57.9922
21
-45.2023
0
LINE
8
BLACK
6
CONTINUOUS
10
57.9922
20
-45.2023
11
58.0398
21
-45.2499
0
LINE
8
BLACK
6
CONTINUOUS
10
58.0398
20
-45.2499
11
58.04
21
-45.2502
0
LINE
8
BLACK
6
CONTINUOUS
10
58.04
20
-45.2502
11
58.0409
21
-45.2513
0
LINE
8
BLACK
6
CONTINUOUS
10
58.0409
20
-45.2513
11
58.0419
21
-45.2523
0
LINE
8
BLACK
6
CONTINUOUS
10
58.0419
20
-45.2523
11
58.0424
21
-45.2532
0
LINE
8
BLACK
6
CONTINUOUS
10
58.0424
20
-45.2532
11
58.0431
21
-45.254
0
LINE
8
BLACK
6
CONTINUOUS
10
58.0431
20
-45.254
11
58.0437
21
-45.2552
0
LINE
8
BLACK
6
CONTINUOUS
10
58.0437
20
-45.2552
11
58.0445
21
-45.2564
0
LINE
8
BLACK
6
CONTINUOUS
10
58.0445
20
-45.2564
11
58.0921
21
-45.3517
0
LINE
8
BLACK
6
CONTINUOUS
10
58.0921
20
-45.3517
11
58.0922
21
-45.352
0
LINE
8
BLACK
6
CONTINUOUS
10
58.0922
20
-45.352
11
58.0925
21
-45.3527
0
LINE
8
BLACK
6
CONTINUOUS
10
58.0925
20
-45.3527
11
58.0928
21
-45.3533
0
LINE
8
BLACK
6
CONTINUOUS
10
58.0928
20
-45.3533
11
58.0933
21
-45.355
0
LINE
8
BLACK
6
CONTINUOUS
10
58.0933
20
-45.355
11
58.0939
21
-45.3566
0
LINE
8
BLACK
6
CONTINUOUS
10
58.0939
20
-45.3566
11
58.094
21
-45.3573
0
LINE
8
BLACK
6
CONTINUOUS
10
58.094
20
-45.3573
11
58.0942
21
-45.358
0
LINE
8
BLACK
6
CONTINUOUS
10
58.0942
20
-45.358
11
58.0944
21
-45.3597
0
LINE
8
BLACK
6
CONTINUOUS
10
58.0944
20
-45.3597
11
58.0947
21
-45.3614
0
LINE
8
BLACK
6
CONTINUOUS
10
58.0947
20
-45.3614
11
58.0946
21
-45.3621
0
LINE
8
BLACK
6
CONTINUOUS
10
58.0946
20
-45.3621
11
58.0947
21
-45.3629
0
LINE
8
BLACK
6
CONTINUOUS
10
58.0947
20
-45.3629
11
58.0947
21
-45.4581
0
LINE
8
BLACK
6
CONTINUOUS
10
58.0947
20
-45.4581
11
58.0947
21
-45.4584
0
LINE
8
BLACK
6
CONTINUOUS
10
58.0947
20
-45.4584
11
58.0946
21
-45.4598
0
LINE
8
BLACK
6
CONTINUOUS
10
58.0946
20
-45.4598
11
58.0945
21
-45.4612
0
LINE
8
BLACK
6
CONTINUOUS
10
58.0945
20
-45.4612
11
58.0943
21
-45.4623
0
LINE
8
BLACK
6
CONTINUOUS
10
58.0943
20
-45.4623
11
58.0942
21
-45.4633
0
LINE
8
BLACK
6
CONTINUOUS
10
58.0942
20
-45.4633
11
58.0938
21
-45.4646
0
LINE
8
BLACK
6
CONTINUOUS
10
58.0938
20
-45.4646
11
58.0934
21
-45.466
0
LINE
8
BLACK
6
CONTINUOUS
10
58.0934
20
-45.466
11
58.0458
21
-45.6089
0
LINE
8
BLACK
6
CONTINUOUS
10
58.0458
20
-45.6089
11
58.0457
21
-45.6092
0
LINE
8
BLACK
6
CONTINUOUS
10
58.0457
20
-45.6092
11
58.0454
21
-45.6099
0
LINE
8
BLACK
6
CONTINUOUS
10
58.0454
20
-45.6099
11
58.0452
21
-45.6106
0
LINE
8
BLACK
6
CONTINUOUS
10
58.0452
20
-45.6106
11
58.0444
21
-45.6121
0
LINE
8
BLACK
6
CONTINUOUS
10
58.0444
20
-45.6121
11
58.0437
21
-45.6136
0
LINE
8
BLACK
6
CONTINUOUS
10
58.0437
20
-45.6136
11
58.0432
21
-45.6142
0
LINE
8
BLACK
6
CONTINUOUS
10
58.0432
20
-45.6142
11
58.0429
21
-45.6149
0
LINE
8
BLACK
6
CONTINUOUS
10
58.0429
20
-45.6149
11
58.0418
21
-45.6162
0
LINE
8
BLACK
6
CONTINUOUS
10
58.0418
20
-45.6162
11
58.0408
21
-45.6176
0
LINE
8
BLACK
6
CONTINUOUS
10
58.0408
20
-45.6176
11
58.0403
21
-45.6181
0
LINE
8
BLACK
6
CONTINUOUS
10
58.0403
20
-45.6181
11
58.0398
21
-45.6186
0
LINE
8
BLACK
6
CONTINUOUS
10
58.0398
20
-45.6186
11
57.511
21
-46.1474
0
LINE
8
BLACK
6
CONTINUOUS
10
57.511
20
-46.1474
11
58.0697
21
-46.1474
0
LINE
8
BLACK
6
CONTINUOUS
10
58.0697
20
-46.1474
11
58.0701
21
-46.1474
0
LINE
8
BLACK
6
CONTINUOUS
10
58.0701
20
-46.1474
11
58.0749
21
-46.1479
0
LINE
8
BLACK
6
CONTINUOUS
10
58.0749
20
-46.1479
11
58.0796
21
-46.1494
0
LINE
8
BLACK
6
CONTINUOUS
10
58.0796
20
-46.1494
11
58.0838
21
-46.1518
0
LINE
8
BLACK
6
CONTINUOUS
10
58.0838
20
-46.1518
11
58.0876
21
-46.1549
0
LINE
8
BLACK
6
CONTINUOUS
10
58.0876
20
-46.1549
11
58.0906
21
-46.1587
0
LINE
8
BLACK
6
CONTINUOUS
10
58.0906
20
-46.1587
11
58.0929
21
-46.163
0
LINE
8
BLACK
6
CONTINUOUS
10
58.0929
20
-46.163
11
58.0943
21
-46.1677
0
LINE
8
BLACK
6
CONTINUOUS
10
58.0943
20
-46.1677
11
58.0947
21
-46.1726
0
LINE
8
BLACK
6
CONTINUOUS
10
58.0947
20
-46.1726
11
58.0942
21
-46.1774
0
LINE
8
BLACK
6
CONTINUOUS
10
58.0942
20
-46.1774
11
58.0928
21
-46.1821
0
LINE
8
BLACK
6
CONTINUOUS
10
58.0928
20
-46.1821
11
58.0904
21
-46.1864
0
LINE
8
BLACK
6
CONTINUOUS
10
58.0904
20
-46.1864
11
58.0873
21
-46.1901
0
LINE
8
BLACK
6
CONTINUOUS
10
58.0873
20
-46.1901
11
58.0836
21
-46.1932
0
LINE
8
BLACK
6
CONTINUOUS
10
58.0836
20
-46.1932
11
58.0792
21
-46.1955
0
LINE
8
BLACK
6
CONTINUOUS
10
58.0792
20
-46.1955
11
58.0746
21
-46.1969
0
LINE
8
BLACK
6
CONTINUOUS
10
58.0746
20
-46.1969
11
58.0697
21
-46.1974
0
LINE
8
BLACK
6
CONTINUOUS
10
58.0697
20
-46.1974
11
57.4507
21
-46.1974
0
LINE
8
BLACK
6
CONTINUOUS
10
57.4507
20
-46.1974
11
57.4504
21
-46.1974
0
LINE
8
BLACK
6
CONTINUOUS
10
57.4504
20
-46.1974
11
57.4504
21
-46.1974
0
LINE
8
BLACK
6
CONTINUOUS
10
57.4504
20
-46.1974
11
57.4504
21
-46.1974
0
LINE
8
BLACK
6
CONTINUOUS
10
57.4504
20
-46.1974
11
57.4503
21
-46.1974
0
LINE
8
BLACK
6
CONTINUOUS
10
57.4503
20
-46.1974
11
57.4479
21
-46.1971
0
LINE
8
BLACK
6
CONTINUOUS
10
57.4479
20
-46.1971
11
57.4456
21
-46.1969
0
LINE
8
BLACK
6
CONTINUOUS
10
57.4456
20
-46.1969
11
57.4455
21
-46.1968
0
LINE
8
BLACK
6
CONTINUOUS
10
57.4455
20
-46.1968
11
57.4455
21
-46.1968
0
LINE
8
BLACK
6
CONTINUOUS
10
57.4455
20
-46.1968
11
57.4433
21
-46.1961
0
LINE
8
BLACK
6
CONTINUOUS
10
57.4433
20
-46.1961
11
57.4409
21
-46.1954
0
LINE
8
BLACK
6
CONTINUOUS
10
57.4409
20
-46.1954
11
57.4409
21
-46.1954
0
LINE
8
BLACK
6
CONTINUOUS
10
57.4409
20
-46.1954
11
57.4408
21
-46.1954
0
LINE
8
BLACK
6
CONTINUOUS
10
57.4408
20
-46.1954
11
57.4388
21
-46.1943
0
LINE
8
BLACK
6
CONTINUOUS
10
57.4388
20
-46.1943
11
57.4366
21
-46.1931
0
LINE
8
BLACK
6
CONTINUOUS
10
57.4366
20
-46.1931
11
57.4366
21
-46.193
0
LINE
8
BLACK
6
CONTINUOUS
10
57.4366
20
-46.193
11
57.4365
21
-46.193
0
LINE
8
BLACK
6
CONTINUOUS
10
57.4365
20
-46.193
11
57.4346
21
-46.1914
0
LINE
8
BLACK
6
CONTINUOUS
10
57.4346
20
-46.1914
11
57.4329
21
-46.1899
0
LINE
8
BLACK
6
CONTINUOUS
10
57.4329
20
-46.1899
11
57.4328
21
-46.1899
0
LINE
8
BLACK
6
CONTINUOUS
10
57.4328
20
-46.1899
11
57.4328
21
-46.1899
0
LINE
8
BLACK
6
CONTINUOUS
10
57.4328
20
-46.1899
11
57.4312
21
-46.1879
0
LINE
8
BLACK
6
CONTINUOUS
10
57.4312
20
-46.1879
11
57.4298
21
-46.1861
0
LINE
8
BLACK
6
CONTINUOUS
10
57.4298
20
-46.1861
11
57.4298
21
-46.1861
0
LINE
8
BLACK
6
CONTINUOUS
10
57.4298
20
-46.1861
11
57.4298
21
-46.1861
0
LINE
8
BLACK
6
CONTINUOUS
10
57.4298
20
-46.1861
11
57.4286
21
-46.1839
0
LINE
8
BLACK
6
CONTINUOUS
10
57.4286
20
-46.1839
11
57.4275
21
-46.1818
0
LINE
8
BLACK
6
CONTINUOUS
10
57.4275
20
-46.1818
11
57.4275
21
-46.1818
0
LINE
8
BLACK
6
CONTINUOUS
10
57.4275
20
-46.1818
11
57.4275
21
-46.1817
0
LINE
8
BLACK
6
CONTINUOUS
10
57.4275
20
-46.1817
11
57.4268
21
-46.1795
0
LINE
8
BLACK
6
CONTINUOUS
10
57.4268
20
-46.1795
11
57.4261
21
-46.1771
0
LINE
8
BLACK
6
CONTINUOUS
10
57.4261
20
-46.1771
11
57.4261
21
-46.1771
0
LINE
8
BLACK
6
CONTINUOUS
10
57.4261
20
-46.1771
11
57.4261
21
-46.1771
0
LINE
8
BLACK
6
CONTINUOUS
10
57.4261
20
-46.1771
11
57.4259
21
-46.1748
0
LINE
8
BLACK
6
CONTINUOUS
10
57.4259
20
-46.1748
11
57.4257
21
-46.1723
0
LINE
8
BLACK
6
CONTINUOUS
10
57.4257
20
-46.1723
11
57.4257
21
-46.1722
0
LINE
8
BLACK
6
CONTINUOUS
10
57.4257
20
-46.1722
11
57.4257
21
-46.1722
0
LINE
8
BLACK
6
CONTINUOUS
10
57.4257
20
-46.1722
11
57.4259
21
-46.17
0
LINE
8
BLACK
6
CONTINUOUS
10
57.4259
20
-46.17
11
57.4262
21
-46.1674
0
LINE
8
BLACK
6
CONTINUOUS
10
57.4262
20
-46.1674
11
57.4262
21
-46.1674
0
LINE
8
BLACK
6
CONTINUOUS
10
57.4262
20
-46.1674
11
57.4262
21
-46.1674
0
LINE
8
BLACK
6
CONTINUOUS
10
57.4262
20
-46.1674
11
57.4269
21
-46.1651
0
LINE
8
BLACK
6
CONTINUOUS
10
57.4269
20
-46.1651
11
57.4276
21
-46.1628
0
LINE
8
BLACK
6
CONTINUOUS
10
57.4276
20
-46.1628
11
57.4276
21
-46.1627
0
LINE
8
BLACK
6
CONTINUOUS
10
57.4276
20
-46.1627
11
57.4276
21
-46.1627
0
LINE
8
BLACK
6
CONTINUOUS
10
57.4276
20
-46.1627
11
57.4288
21
-46.1606
0
LINE
8
BLACK
6
CONTINUOUS
10
57.4288
20
-46.1606
11
57.4299
21
-46.1585
0
LINE
8
BLACK
6
CONTINUOUS
10
57.4299
20
-46.1585
11
57.4299
21
-46.1584
0
LINE
8
BLACK
6
CONTINUOUS
10
57.4299
20
-46.1584
11
57.4299
21
-46.1584
0
LINE
8
BLACK
6
CONTINUOUS
10
57.4299
20
-46.1584
11
57.4314
21
-46.1566
0
LINE
8
BLACK
6
CONTINUOUS
10
57.4314
20
-46.1566
11
57.433
21
-46.1547
0
LINE
8
BLACK
6
CONTINUOUS
10
57.433
20
-46.1547
11
58.0003
21
-45.5874
0
LINE
8
BLACK
6
CONTINUOUS
10
58.0003
20
-45.5874
11
58.0447
21
-45.454
0
LINE
8
BLACK
6
CONTINUOUS
10
58.0447
20
-45.454
11
58.0447
21
-45.3688
0
LINE
8
BLACK
6
CONTINUOUS
10
58.0447
20
-45.3688
11
58.0016
21
-45.2824
0
LINE
8
BLACK
6
CONTINUOUS
10
58.0016
20
-45.2824
11
57.9597
21
-45.2405
0
LINE
8
BLACK
6
CONTINUOUS
10
57.9597
20
-45.2405
11
57.8733
21
-45.1974
0
LINE
8
BLACK
6
CONTINUOUS
10
57.8733
20
-45.1974
11
57.6471
21
-45.1974
0
LINE
8
BLACK
6
CONTINUOUS
10
57.6471
20
-45.1974
11
57.5607
21
-45.2405
0
LINE
8
BLACK
6
CONTINUOUS
10
57.5607
20
-45.2405
11
57.516
21
-45.2853
0
LINE
8
BLACK
6
CONTINUOUS
10
57.516
20
-45.2853
11
57.5157
21
-45.2855
0
LINE
8
BLACK
6
CONTINUOUS
10
57.5157
20
-45.2855
11
57.5119
21
-45.2886
0
LINE
8
BLACK
6
CONTINUOUS
10
57.5119
20
-45.2886
11
57.5076
21
-45.2908
0
LINE
8
BLACK
6
CONTINUOUS
10
57.5076
20
-45.2908
11
57.5029
21
-45.2922
0
LINE
8
BLACK
6
CONTINUOUS
10
57.5029
20
-45.2922
11
57.498
21
-45.2926
0
LINE
8
BLACK
6
CONTINUOUS
10
57.498
20
-45.2926
11
57.4932
21
-45.2921
0
LINE
8
BLACK
6
CONTINUOUS
10
57.4932
20
-45.2921
11
57.4885
21
-45.2906
0
LINE
8
BLACK
6
CONTINUOUS
10
57.4885
20
-45.2906
11
57.4842
21
-45.2883
0
LINE
8
BLACK
6
CONTINUOUS
10
57.4842
20
-45.2883
11
57.4805
21
-45.2852
0
LINE
8
BLACK
6
CONTINUOUS
10
57.4805
20
-45.2852
11
57.4774
21
-45.2814
0
LINE
8
BLACK
6
CONTINUOUS
10
57.4774
20
-45.2814
11
57.4751
21
-45.2771
0
LINE
8
BLACK
6
CONTINUOUS
10
57.4751
20
-45.2771
11
57.4738
21
-45.2724
0
LINE
8
BLACK
6
CONTINUOUS
10
57.4738
20
-45.2724
11
57.4733
21
-45.2675
0
LINE
8
BLACK
6
CONTINUOUS
10
57.4733
20
-45.2675
11
57.4738
21
-45.2627
0
LINE
8
BLACK
6
CONTINUOUS
10
57.4738
20
-45.2627
11
57.4752
21
-45.258
0
LINE
8
BLACK
6
CONTINUOUS
10
57.4752
20
-45.258
11
57.4775
21
-45.2537
0
LINE
8
BLACK
6
CONTINUOUS
10
57.4775
20
-45.2537
11
57.4806
21
-45.2499
0
LINE
8
BLACK
6
CONTINUOUS
10
57.4806
20
-45.2499
11
57.5282
21
-45.2023
0
LINE
8
BLACK
6
CONTINUOUS
10
57.5282
20
-45.2023
11
57.5285
21
-45.2021
0
LINE
8
BLACK
6
CONTINUOUS
10
57.5285
20
-45.2021
11
57.5296
21
-45.2012
0
LINE
8
BLACK
6
CONTINUOUS
10
57.5296
20
-45.2012
11
57.5306
21
-45.2002
0
LINE
8
BLACK
6
CONTINUOUS
10
57.5306
20
-45.2002
11
57.5315
21
-45.1997
0
LINE
8
BLACK
6
CONTINUOUS
10
57.5315
20
-45.1997
11
57.5323
21
-45.199
0
LINE
8
BLACK
6
CONTINUOUS
10
57.5323
20
-45.199
11
57.5335
21
-45.1984
0
LINE
8
BLACK
6
CONTINUOUS
10
57.5335
20
-45.1984
11
57.5347
21
-45.1976
0
LINE
8
BLACK
6
CONTINUOUS
10
57.5347
20
-45.1976
11
57.63
21
-45.15
0
LINE
8
BLACK
6
CONTINUOUS
10
57.63
20
-45.15
11
57.6303
21
-45.1499
0
LINE
8
BLACK
6
CONTINUOUS
10
57.6303
20
-45.1499
11
57.631
21
-45.1496
0
LINE
8
BLACK
6
CONTINUOUS
10
57.631
20
-45.1496
11
57.6316
21
-45.1493
0
LINE
8
BLACK
6
CONTINUOUS
10
57.6316
20
-45.1493
11
57.6333
21
-45.1488
0
LINE
8
BLACK
6
CONTINUOUS
10
57.6333
20
-45.1488
11
57.6349
21
-45.1482
0
LINE
8
BLACK
6
CONTINUOUS
10
57.6349
20
-45.1482
11
57.6356
21
-45.1481
0
LINE
8
BLACK
6
CONTINUOUS
10
57.6356
20
-45.1481
11
57.6363
21
-45.1479
0
LINE
8
BLACK
6
CONTINUOUS
10
57.6363
20
-45.1479
11
57.638
21
-45.1477
0
LINE
8
BLACK
6
CONTINUOUS
10
57.638
20
-45.1477
11
57.6397
21
-45.1474
0
LINE
8
BLACK
6
CONTINUOUS
10
57.6397
20
-45.1474
11
57.6404
21
-45.1475
0
LINE
8
BLACK
6
CONTINUOUS
10
57.6404
20
-45.1475
11
57.6411
21
-45.1474
0
LINE
8
BLACK
6
CONTINUOUS
10
57.6411
20
-45.1474
11
57.8792
21
-45.1474
0
LINE
8
BLACK
6
CONTINUOUS
10
57.8792
20
-45.1474
11
57.8796
21
-45.1474
  0
ENDSEC
  0
EOF
