  0
SECTION
  2
HEADER
  9
$ANGBASE
  50
0.0
  9
$ANGDIR
  70
  1
  9
$MEASUREMENT
  70
0
  0
ENDSEC
  0
SECTION
  2
TABLES
  0
TABLE
  2
LTYPE
  70
4
  0
LTYPE
  5
40F
  2
CONTINUOUS
  70
0
  3
Solid line
  72
65
  73
0
  40
0.0
  0
LTYPE
  5
410
  2
DASHDOT
 70
0
  3
Dash Dot ____ _ ____ _
 72
65
 73
4
 40
2.0
 49
1.25
 49
-0.25
 49
0.25
 49
-0.25
  0
LTYPE
  5
411
  2
DASHED
 70
0
  3
Dashed __ __ __ __ __
 72
65
 73
2
 40
0.75
 49
0.5
 49
-0.25
  0
LTYPE
  5
43B
  2
DOTTED
 70
0
  3
Dotted .  .  .  .
 72
65
 73
2
 40
0.2
 49
0.0
 49
-0.2
  0
ENDTAB
  0
TABLE
  2
STYLE
  70
4
  0
STYLE
  2
KICAD
  70
0
  40
0
  41
1
  42
1
  50
0
  71
0
  3
isocp.shx
  0
STYLE
  2
KICADB
  70
0
  40
0
  41
1
  42
1
  50
0
  71
0
  3
isocp.shx
  0
STYLE
  2
KICADI
  70
0
  40
0
  41
1
  42
1
  50
15
  71
0
  3
isocp.shx
  0
STYLE
  2
KICADBI
  70
0
  40
0
  41
1
  42
1
  50
15
  71
0
  3
isocp.shx
  0
ENDTAB
  0
TABLE
  2
LAYER
  70
30
  0
LAYER
  2
BLACK
  70
0
  62
7
  6
CONTINUOUS
  0
LAYER
  2
GRAY1
  70
0
  62
251
  6
CONTINUOUS
  0
LAYER
  2
GRAY2
  70
0
  62
8
  6
CONTINUOUS
  0
LAYER
  2
GRAY3
  70
0
  62
9
  6
CONTINUOUS
  0
LAYER
  2
WHITE
  70
0
  62
7
  6
CONTINUOUS
  0
LAYER
  2
LYELLOW
  70
0
  62
51
  6
CONTINUOUS
  0
LAYER
  2
BLUE1
  70
0
  62
178
  6
CONTINUOUS
  0
LAYER
  2
GREEN1
  70
0
  62
98
  6
CONTINUOUS
  0
LAYER
  2
CYAN1
  70
0
  62
138
  6
CONTINUOUS
  0
LAYER
  2
RED1
  70
0
  62
18
  6
CONTINUOUS
  0
LAYER
  2
MAGENTA1
  70
0
  62
228
  6
CONTINUOUS
  0
LAYER
  2
BROWN1
  70
0
  62
58
  6
CONTINUOUS
  0
LAYER
  2
BLUE2
  70
0
  62
5
  6
CONTINUOUS
  0
LAYER
  2
GREEN2
  70
0
  62
3
  6
CONTINUOUS
  0
LAYER
  2
CYAN2
  70
0
  62
4
  6
CONTINUOUS
  0
LAYER
  2
RED2
  70
0
  62
1
  6
CONTINUOUS
  0
LAYER
  2
MAGENTA2
  70
0
  62
6
  6
CONTINUOUS
  0
LAYER
  2
BROWN2
  70
0
  62
54
  6
CONTINUOUS
  0
LAYER
  2
BLUE3
  70
0
  62
171
  6
CONTINUOUS
  0
LAYER
  2
GREEN3
  70
0
  62
91
  6
CONTINUOUS
  0
LAYER
  2
CYAN3
  70
0
  62
131
  6
CONTINUOUS
  0
LAYER
  2
RED3
  70
0
  62
11
  6
CONTINUOUS
  0
LAYER
  2
MAGENTA3
  70
0
  62
221
  6
CONTINUOUS
  0
LAYER
  2
YELLOW3
  70
0
  62
2
  6
CONTINUOUS
  0
LAYER
  2
BLUE4
  70
0
  62
5
  6
CONTINUOUS
  0
LAYER
  2
GREEN4
  70
0
  62
3
  6
CONTINUOUS
  0
LAYER
  2
CYAN4
  70
0
  62
4
  6
CONTINUOUS
  0
LAYER
  2
RED4
  70
0
  62
1
  6
CONTINUOUS
  0
LAYER
  2
MAGENTA4
  70
0
  62
6
  6
CONTINUOUS
  0
LAYER
  2
YELLOW4
  70
0
  62
2
  6
CONTINUOUS
  0
ENDTAB
  0
ENDSEC
  0
SECTION
  2
ENTITIES
0
LINE
8
BLACK
6
CONTINUOUS
10
109.609
20
-137.295
11
59.047
21
-137.295
0
LINE
8
BLACK
6
CONTINUOUS
10
59.047
20
-137.295
11
59.047
21
-132.453
0
LINE
8
BLACK
6
CONTINUOUS
10
59.047
20
-132.453
11
109.609
21
-132.453
0
LINE
8
BLACK
6
CONTINUOUS
10
109.609
20
-132.453
11
109.609
21
-137.295
0
LINE
8
BLACK
6
CONTINUOUS
10
114.181
20
-123.579
11
109.339
21
-123.579
0
LINE
8
BLACK
6
CONTINUOUS
10
109.339
20
-123.579
11
109.339
21
-60.317
0
LINE
8
BLACK
6
CONTINUOUS
10
109.339
20
-60.317
11
114.181
21
-60.317
0
LINE
8
BLACK
6
CONTINUOUS
10
114.181
20
-60.317
11
114.181
21
-123.579
0
LINE
8
BLACK
6
CONTINUOUS
10
63.381
20
-123.579
11
58.539
21
-123.579
0
LINE
8
BLACK
6
CONTINUOUS
10
58.539
20
-123.579
11
58.539
21
-60.317
0
LINE
8
BLACK
6
CONTINUOUS
10
58.539
20
-60.317
11
63.381
21
-60.317
0
LINE
8
BLACK
6
CONTINUOUS
10
63.381
20
-60.317
11
63.381
21
-123.579
0
LINE
8
BLACK
6
CONTINUOUS
10
94.9872
20
-22.3891
11
95.2231
21
-22.4606
0
LINE
8
BLACK
6
CONTINUOUS
10
95.2231
20
-22.4606
11
95.4404
21
-22.5768
0
LINE
8
BLACK
6
CONTINUOUS
10
95.4404
20
-22.5768
11
95.6309
21
-22.7331
0
LINE
8
BLACK
6
CONTINUOUS
10
95.6309
20
-22.7331
11
95.7872
21
-22.9236
0
LINE
8
BLACK
6
CONTINUOUS
10
95.7872
20
-22.9236
11
95.9034
21
-23.1409
0
LINE
8
BLACK
6
CONTINUOUS
10
95.9034
20
-23.1409
11
95.9749
21
-23.3768
0
LINE
8
BLACK
6
CONTINUOUS
10
95.9749
20
-23.3768
11
95.9991
21
-23.622
0
LINE
8
BLACK
6
CONTINUOUS
10
95.9991
20
-23.622
11
95.9749
21
-23.8672
0
LINE
8
BLACK
6
CONTINUOUS
10
95.9749
20
-23.8672
11
95.9034
21
-24.1031
0
LINE
8
BLACK
6
CONTINUOUS
10
95.9034
20
-24.1031
11
95.7872
21
-24.3204
0
LINE
8
BLACK
6
CONTINUOUS
10
95.7872
20
-24.3204
11
95.6309
21
-24.5109
0
LINE
8
BLACK
6
CONTINUOUS
10
95.6309
20
-24.5109
11
95.4404
21
-24.6672
0
LINE
8
BLACK
6
CONTINUOUS
10
95.4404
20
-24.6672
11
95.2231
21
-24.7834
0
LINE
8
BLACK
6
CONTINUOUS
10
95.2231
20
-24.7834
11
94.9872
21
-24.8549
0
LINE
8
BLACK
6
CONTINUOUS
10
94.9872
20
-24.8549
11
94.8035
21
-24.873
0
LINE
8
BLACK
6
CONTINUOUS
10
94.8035
20
-24.873
11
94.6805
21
-24.873
0
LINE
8
BLACK
6
CONTINUOUS
10
94.6805
20
-24.873
11
94.4968
21
-24.8549
0
LINE
8
BLACK
6
CONTINUOUS
10
94.4968
20
-24.8549
11
94.2609
21
-24.7834
0
LINE
8
BLACK
6
CONTINUOUS
10
94.2609
20
-24.7834
11
94.0436
21
-24.6672
0
LINE
8
BLACK
6
CONTINUOUS
10
94.0436
20
-24.6672
11
93.8531
21
-24.5109
0
LINE
8
BLACK
6
CONTINUOUS
10
93.8531
20
-24.5109
11
93.6968
21
-24.3204
0
LINE
8
BLACK
6
CONTINUOUS
10
93.6968
20
-24.3204
11
93.5806
21
-24.1031
0
LINE
8
BLACK
6
CONTINUOUS
10
93.5806
20
-24.1031
11
93.5091
21
-23.8672
0
LINE
8
BLACK
6
CONTINUOUS
10
93.5091
20
-23.8672
11
93.4849
21
-23.622
0
LINE
8
BLACK
6
CONTINUOUS
10
93.4849
20
-23.622
11
93.5091
21
-23.3768
0
LINE
8
BLACK
6
CONTINUOUS
10
93.5091
20
-23.3768
11
93.5806
21
-23.1409
0
LINE
8
BLACK
6
CONTINUOUS
10
93.5806
20
-23.1409
11
93.6968
21
-22.9236
0
LINE
8
BLACK
6
CONTINUOUS
10
93.6968
20
-22.9236
11
93.8531
21
-22.7331
0
LINE
8
BLACK
6
CONTINUOUS
10
93.8531
20
-22.7331
11
94.0436
21
-22.5768
0
LINE
8
BLACK
6
CONTINUOUS
10
94.0436
20
-22.5768
11
94.2609
21
-22.4606
0
LINE
8
BLACK
6
CONTINUOUS
10
94.2609
20
-22.4606
11
94.4968
21
-22.3891
0
LINE
8
BLACK
6
CONTINUOUS
10
94.4968
20
-22.3891
11
94.6805
21
-22.371
0
LINE
8
BLACK
6
CONTINUOUS
10
94.6805
20
-22.371
11
94.8035
21
-22.371
0
LINE
8
BLACK
6
CONTINUOUS
10
94.8035
20
-22.371
11
94.9872
21
-22.3891
0
LINE
8
BLACK
6
CONTINUOUS
10
79.8669
20
-22.4191
11
79.9672
21
-22.4606
0
LINE
8
BLACK
6
CONTINUOUS
10
79.9672
20
-22.4606
11
80.0946
21
-22.5134
0
LINE
8
BLACK
6
CONTINUOUS
10
80.0946
20
-22.5134
11
80.2995
21
-22.6503
0
LINE
8
BLACK
6
CONTINUOUS
10
80.2995
20
-22.6503
11
80.4737
21
-22.8245
0
LINE
8
BLACK
6
CONTINUOUS
10
80.4737
20
-22.8245
11
80.6106
21
-23.0294
0
LINE
8
BLACK
6
CONTINUOUS
10
80.6106
20
-23.0294
11
80.6106
21
-23.0294
0
LINE
8
BLACK
6
CONTINUOUS
10
80.6106
20
-23.0294
11
80.7049
21
-23.2571
0
LINE
8
BLACK
6
CONTINUOUS
10
80.7049
20
-23.2571
11
80.753
21
-23.4988
0
LINE
8
BLACK
6
CONTINUOUS
10
80.753
20
-23.4988
11
80.753
21
-23.7452
0
LINE
8
BLACK
6
CONTINUOUS
10
80.753
20
-23.7452
11
80.7049
21
-23.9869
0
LINE
8
BLACK
6
CONTINUOUS
10
80.7049
20
-23.9869
11
80.636
21
-24.1534
0
LINE
8
BLACK
6
CONTINUOUS
10
80.636
20
-24.1534
11
80.6106
21
-24.2146
0
LINE
8
BLACK
6
CONTINUOUS
10
80.6106
20
-24.2146
11
80.4737
21
-24.4195
0
LINE
8
BLACK
6
CONTINUOUS
10
80.4737
20
-24.4195
11
80.2995
21
-24.5937
0
LINE
8
BLACK
6
CONTINUOUS
10
80.2995
20
-24.5937
11
80.0946
21
-24.7306
0
LINE
8
BLACK
6
CONTINUOUS
10
80.0946
20
-24.7306
11
80.0946
21
-24.7306
0
LINE
8
BLACK
6
CONTINUOUS
10
80.0946
20
-24.7306
11
80.0946
21
-24.7306
0
LINE
8
BLACK
6
CONTINUOUS
10
80.0946
20
-24.7306
11
79.8669
21
-24.8249
0
LINE
8
BLACK
6
CONTINUOUS
10
79.8669
20
-24.8249
11
79.6252
21
-24.873
0
LINE
8
BLACK
6
CONTINUOUS
10
79.6252
20
-24.873
11
79.3788
21
-24.873
0
LINE
8
BLACK
6
CONTINUOUS
10
79.3788
20
-24.873
11
79.1371
21
-24.8249
0
LINE
8
BLACK
6
CONTINUOUS
10
79.1371
20
-24.8249
11
78.9094
21
-24.7306
0
LINE
8
BLACK
6
CONTINUOUS
10
78.9094
20
-24.7306
11
78.9094
21
-24.7306
0
LINE
8
BLACK
6
CONTINUOUS
10
78.9094
20
-24.7306
11
78.9094
21
-24.7306
0
LINE
8
BLACK
6
CONTINUOUS
10
78.9094
20
-24.7306
11
78.7045
21
-24.5937
0
LINE
8
BLACK
6
CONTINUOUS
10
78.7045
20
-24.5937
11
78.5303
21
-24.4195
0
LINE
8
BLACK
6
CONTINUOUS
10
78.5303
20
-24.4195
11
78.3934
21
-24.2146
0
LINE
8
BLACK
6
CONTINUOUS
10
78.3934
20
-24.2146
11
78.368
21
-24.1534
0
LINE
8
BLACK
6
CONTINUOUS
10
78.368
20
-24.1534
11
78.2991
21
-23.9869
0
LINE
8
BLACK
6
CONTINUOUS
10
78.2991
20
-23.9869
11
78.251
21
-23.7452
0
LINE
8
BLACK
6
CONTINUOUS
10
78.251
20
-23.7452
11
78.251
21
-23.4988
0
LINE
8
BLACK
6
CONTINUOUS
10
78.251
20
-23.4988
11
78.2991
21
-23.2571
0
LINE
8
BLACK
6
CONTINUOUS
10
78.2991
20
-23.2571
11
78.3934
21
-23.0294
0
LINE
8
BLACK
6
CONTINUOUS
10
78.3934
20
-23.0294
11
78.3934
21
-23.0294
0
LINE
8
BLACK
6
CONTINUOUS
10
78.3934
20
-23.0294
11
78.5303
21
-22.8245
0
LINE
8
BLACK
6
CONTINUOUS
10
78.5303
20
-22.8245
11
78.7045
21
-22.6503
0
LINE
8
BLACK
6
CONTINUOUS
10
78.7045
20
-22.6503
11
78.9094
21
-22.5134
0
LINE
8
BLACK
6
CONTINUOUS
10
78.9094
20
-22.5134
11
79.0368
21
-22.4606
0
LINE
8
BLACK
6
CONTINUOUS
10
79.0368
20
-22.4606
11
79.1371
21
-22.4191
0
LINE
8
BLACK
6
CONTINUOUS
10
79.1371
20
-22.4191
11
79.3788
21
-22.371
0
LINE
8
BLACK
6
CONTINUOUS
10
79.3788
20
-22.371
11
79.6252
21
-22.371
0
LINE
8
BLACK
6
CONTINUOUS
10
79.6252
20
-22.371
11
79.8669
21
-22.4191
0
LINE
8
BLACK
6
CONTINUOUS
10
107.631
20
-24.827
11
105.729
21
-24.827
0
LINE
8
BLACK
6
CONTINUOUS
10
105.729
20
-24.827
11
105.729
21
-22.925
0
LINE
8
BLACK
6
CONTINUOUS
10
105.729
20
-22.925
11
107.631
21
-22.925
0
LINE
8
BLACK
6
CONTINUOUS
10
107.631
20
-22.925
11
107.631
21
-24.827
0
LINE
8
BLACK
6
CONTINUOUS
10
104.417
20
-22.9615
11
104.59
21
-23.0332
0
LINE
8
BLACK
6
CONTINUOUS
10
104.59
20
-23.0332
11
104.59
21
-23.0332
0
LINE
8
BLACK
6
CONTINUOUS
10
104.59
20
-23.0332
11
104.746
21
-23.1373
0
LINE
8
BLACK
6
CONTINUOUS
10
104.746
20
-23.1373
11
104.879
21
-23.2698
0
LINE
8
BLACK
6
CONTINUOUS
10
104.879
20
-23.2698
11
104.879
21
-23.2698
0
LINE
8
BLACK
6
CONTINUOUS
10
104.879
20
-23.2698
11
104.983
21
-23.4255
0
LINE
8
BLACK
6
CONTINUOUS
10
104.983
20
-23.4255
11
105.054
21
-23.5986
0
LINE
8
BLACK
6
CONTINUOUS
10
105.054
20
-23.5986
11
105.091
21
-23.7823
0
LINE
8
BLACK
6
CONTINUOUS
10
105.091
20
-23.7823
11
105.091
21
-23.9697
0
LINE
8
BLACK
6
CONTINUOUS
10
105.091
20
-23.9697
11
105.054
21
-24.1534
0
LINE
8
BLACK
6
CONTINUOUS
10
105.054
20
-24.1534
11
104.983
21
-24.3265
0
LINE
8
BLACK
6
CONTINUOUS
10
104.983
20
-24.3265
11
104.983
21
-24.3265
0
LINE
8
BLACK
6
CONTINUOUS
10
104.983
20
-24.3265
11
104.879
21
-24.4822
0
LINE
8
BLACK
6
CONTINUOUS
10
104.879
20
-24.4822
11
104.746
21
-24.6147
0
LINE
8
BLACK
6
CONTINUOUS
10
104.746
20
-24.6147
11
104.668
21
-24.6671
0
LINE
8
BLACK
6
CONTINUOUS
10
104.668
20
-24.6671
11
104.59
21
-24.7188
0
LINE
8
BLACK
6
CONTINUOUS
10
104.59
20
-24.7188
11
104.417
21
-24.7905
0
LINE
8
BLACK
6
CONTINUOUS
10
104.417
20
-24.7905
11
104.234
21
-24.827
0
LINE
8
BLACK
6
CONTINUOUS
10
104.234
20
-24.827
11
104.046
21
-24.827
0
LINE
8
BLACK
6
CONTINUOUS
10
104.046
20
-24.827
11
103.863
21
-24.7905
0
LINE
8
BLACK
6
CONTINUOUS
10
103.863
20
-24.7905
11
103.69
21
-24.7188
0
LINE
8
BLACK
6
CONTINUOUS
10
103.69
20
-24.7188
11
103.612
21
-24.6671
0
LINE
8
BLACK
6
CONTINUOUS
10
103.612
20
-24.6671
11
103.534
21
-24.6147
0
LINE
8
BLACK
6
CONTINUOUS
10
103.534
20
-24.6147
11
103.401
21
-24.4822
0
LINE
8
BLACK
6
CONTINUOUS
10
103.401
20
-24.4822
11
103.297
21
-24.3265
0
LINE
8
BLACK
6
CONTINUOUS
10
103.297
20
-24.3265
11
103.297
21
-24.3265
0
LINE
8
BLACK
6
CONTINUOUS
10
103.297
20
-24.3265
11
103.226
21
-24.1534
0
LINE
8
BLACK
6
CONTINUOUS
10
103.226
20
-24.1534
11
103.189
21
-23.9697
0
LINE
8
BLACK
6
CONTINUOUS
10
103.189
20
-23.9697
11
103.189
21
-23.7823
0
LINE
8
BLACK
6
CONTINUOUS
10
103.189
20
-23.7823
11
103.226
21
-23.5986
0
LINE
8
BLACK
6
CONTINUOUS
10
103.226
20
-23.5986
11
103.297
21
-23.4255
0
LINE
8
BLACK
6
CONTINUOUS
10
103.297
20
-23.4255
11
103.401
21
-23.2698
0
LINE
8
BLACK
6
CONTINUOUS
10
103.401
20
-23.2698
11
103.401
21
-23.2698
0
LINE
8
BLACK
6
CONTINUOUS
10
103.401
20
-23.2698
11
103.534
21
-23.1373
0
LINE
8
BLACK
6
CONTINUOUS
10
103.534
20
-23.1373
11
103.69
21
-23.0332
0
LINE
8
BLACK
6
CONTINUOUS
10
103.69
20
-23.0332
11
103.69
21
-23.0332
0
LINE
8
BLACK
6
CONTINUOUS
10
103.69
20
-23.0332
11
103.863
21
-22.9615
0
LINE
8
BLACK
6
CONTINUOUS
10
103.863
20
-22.9615
11
104.046
21
-22.925
0
LINE
8
BLACK
6
CONTINUOUS
10
104.046
20
-22.925
11
104.234
21
-22.925
0
LINE
8
BLACK
6
CONTINUOUS
10
104.234
20
-22.925
11
104.417
21
-22.9615
0
LINE
8
BLACK
6
CONTINUOUS
10
76.843
20
-23.503
11
72.001
21
-23.503
0
LINE
8
BLACK
6
CONTINUOUS
10
72.001
20
-23.503
11
72.001
21
-18.661
0
LINE
8
BLACK
6
CONTINUOUS
10
72.001
20
-18.661
11
76.843
21
-18.661
0
LINE
8
BLACK
6
CONTINUOUS
10
76.843
20
-18.661
11
76.843
21
-23.503
0
LINE
8
BLACK
6
CONTINUOUS
10
66.321
20
-22.379
11
63.219
21
-22.379
0
LINE
8
BLACK
6
CONTINUOUS
10
63.219
20
-22.379
11
63.219
21
-19.277
0
LINE
8
BLACK
6
CONTINUOUS
10
63.219
20
-19.277
11
66.321
21
-19.277
0
LINE
8
BLACK
6
CONTINUOUS
10
66.321
20
-19.277
11
66.321
21
-22.379
0
LINE
8
BLACK
6
CONTINUOUS
10
59.9344
20
-19.2952
11
60.1424
21
-19.3366
0
LINE
8
BLACK
6
CONTINUOUS
10
60.1424
20
-19.3366
11
60.4247
21
-19.4535
0
LINE
8
BLACK
6
CONTINUOUS
10
60.4247
20
-19.4535
11
60.6787
21
-19.6233
0
LINE
8
BLACK
6
CONTINUOUS
10
60.6787
20
-19.6233
11
60.8947
21
-19.8393
0
LINE
8
BLACK
6
CONTINUOUS
10
60.8947
20
-19.8393
11
61.0645
21
-20.0933
0
LINE
8
BLACK
6
CONTINUOUS
10
61.0645
20
-20.0933
11
61.1814
21
-20.3756
0
LINE
8
BLACK
6
CONTINUOUS
10
61.1814
20
-20.3756
11
61.241
21
-20.6752
0
LINE
8
BLACK
6
CONTINUOUS
10
61.241
20
-20.6752
11
61.241
21
-20.9808
0
LINE
8
BLACK
6
CONTINUOUS
10
61.241
20
-20.9808
11
61.1814
21
-21.2804
0
LINE
8
BLACK
6
CONTINUOUS
10
61.1814
20
-21.2804
11
61.0645
21
-21.5627
0
LINE
8
BLACK
6
CONTINUOUS
10
61.0645
20
-21.5627
11
60.8947
21
-21.8167
0
LINE
8
BLACK
6
CONTINUOUS
10
60.8947
20
-21.8167
11
60.6787
21
-22.0327
0
LINE
8
BLACK
6
CONTINUOUS
10
60.6787
20
-22.0327
11
60.4247
21
-22.2025
0
LINE
8
BLACK
6
CONTINUOUS
10
60.4247
20
-22.2025
11
60.1424
21
-22.3194
0
LINE
8
BLACK
6
CONTINUOUS
10
60.1424
20
-22.3194
11
59.9926
21
-22.3492
0
LINE
8
BLACK
6
CONTINUOUS
10
59.9926
20
-22.3492
11
59.8428
21
-22.379
0
LINE
8
BLACK
6
CONTINUOUS
10
59.8428
20
-22.379
11
59.5372
21
-22.379
0
LINE
8
BLACK
6
CONTINUOUS
10
59.5372
20
-22.379
11
59.3874
21
-22.3492
0
LINE
8
BLACK
6
CONTINUOUS
10
59.3874
20
-22.3492
11
59.2376
21
-22.3194
0
LINE
8
BLACK
6
CONTINUOUS
10
59.2376
20
-22.3194
11
58.9553
21
-22.2025
0
LINE
8
BLACK
6
CONTINUOUS
10
58.9553
20
-22.2025
11
58.7013
21
-22.0327
0
LINE
8
BLACK
6
CONTINUOUS
10
58.7013
20
-22.0327
11
58.4853
21
-21.8167
0
LINE
8
BLACK
6
CONTINUOUS
10
58.4853
20
-21.8167
11
58.3155
21
-21.5627
0
LINE
8
BLACK
6
CONTINUOUS
10
58.3155
20
-21.5627
11
58.1986
21
-21.2804
0
LINE
8
BLACK
6
CONTINUOUS
10
58.1986
20
-21.2804
11
58.139
21
-20.9808
0
LINE
8
BLACK
6
CONTINUOUS
10
58.139
20
-20.9808
11
58.139
21
-20.6752
0
LINE
8
BLACK
6
CONTINUOUS
10
58.139
20
-20.6752
11
58.1986
21
-20.3756
0
LINE
8
BLACK
6
CONTINUOUS
10
58.1986
20
-20.3756
11
58.3155
21
-20.0933
0
LINE
8
BLACK
6
CONTINUOUS
10
58.3155
20
-20.0933
11
58.4853
21
-19.8393
0
LINE
8
BLACK
6
CONTINUOUS
10
58.4853
20
-19.8393
11
58.7013
21
-19.6233
0
LINE
8
BLACK
6
CONTINUOUS
10
58.7013
20
-19.6233
11
58.9553
21
-19.4535
0
LINE
8
BLACK
6
CONTINUOUS
10
58.9553
20
-19.4535
11
59.2376
21
-19.3366
0
LINE
8
BLACK
6
CONTINUOUS
10
59.2376
20
-19.3366
11
59.4456
21
-19.2952
0
LINE
8
BLACK
6
CONTINUOUS
10
59.4456
20
-19.2952
11
59.5372
21
-19.277
0
LINE
8
BLACK
6
CONTINUOUS
10
59.5372
20
-19.277
11
59.8428
21
-19.277
0
LINE
8
BLACK
6
CONTINUOUS
10
59.8428
20
-19.277
11
59.9344
21
-19.2952
0
LINE
8
BLACK
6
CONTINUOUS
10
79.8669
20
-17.8471
11
79.9672
21
-17.8886
0
LINE
8
BLACK
6
CONTINUOUS
10
79.9672
20
-17.8886
11
80.0946
21
-17.9414
0
LINE
8
BLACK
6
CONTINUOUS
10
80.0946
20
-17.9414
11
80.2995
21
-18.0783
0
LINE
8
BLACK
6
CONTINUOUS
10
80.2995
20
-18.0783
11
80.4737
21
-18.2525
0
LINE
8
BLACK
6
CONTINUOUS
10
80.4737
20
-18.2525
11
80.6106
21
-18.4574
0
LINE
8
BLACK
6
CONTINUOUS
10
80.6106
20
-18.4574
11
80.7049
21
-18.6851
0
LINE
8
BLACK
6
CONTINUOUS
10
80.7049
20
-18.6851
11
80.753
21
-18.9268
0
LINE
8
BLACK
6
CONTINUOUS
10
80.753
20
-18.9268
11
80.753
21
-19.1732
0
LINE
8
BLACK
6
CONTINUOUS
10
80.753
20
-19.1732
11
80.7049
21
-19.4149
0
LINE
8
BLACK
6
CONTINUOUS
10
80.7049
20
-19.4149
11
80.6106
21
-19.6426
0
LINE
8
BLACK
6
CONTINUOUS
10
80.6106
20
-19.6426
11
80.4737
21
-19.8475
0
LINE
8
BLACK
6
CONTINUOUS
10
80.4737
20
-19.8475
11
80.2995
21
-20.0217
0
LINE
8
BLACK
6
CONTINUOUS
10
80.2995
20
-20.0217
11
80.0946
21
-20.1586
0
LINE
8
BLACK
6
CONTINUOUS
10
80.0946
20
-20.1586
11
80.0946
21
-20.1586
0
LINE
8
BLACK
6
CONTINUOUS
10
80.0946
20
-20.1586
11
80.0946
21
-20.1586
0
LINE
8
BLACK
6
CONTINUOUS
10
80.0946
20
-20.1586
11
79.8669
21
-20.2529
0
LINE
8
BLACK
6
CONTINUOUS
10
79.8669
20
-20.2529
11
79.6252
21
-20.301
0
LINE
8
BLACK
6
CONTINUOUS
10
79.6252
20
-20.301
11
79.3788
21
-20.301
0
LINE
8
BLACK
6
CONTINUOUS
10
79.3788
20
-20.301
11
79.1371
21
-20.2529
0
LINE
8
BLACK
6
CONTINUOUS
10
79.1371
20
-20.2529
11
78.9094
21
-20.1586
0
LINE
8
BLACK
6
CONTINUOUS
10
78.9094
20
-20.1586
11
78.9094
21
-20.1586
0
LINE
8
BLACK
6
CONTINUOUS
10
78.9094
20
-20.1586
11
78.9094
21
-20.1586
0
LINE
8
BLACK
6
CONTINUOUS
10
78.9094
20
-20.1586
11
78.7045
21
-20.0217
0
LINE
8
BLACK
6
CONTINUOUS
10
78.7045
20
-20.0217
11
78.5303
21
-19.8475
0
LINE
8
BLACK
6
CONTINUOUS
10
78.5303
20
-19.8475
11
78.3934
21
-19.6426
0
LINE
8
BLACK
6
CONTINUOUS
10
78.3934
20
-19.6426
11
78.2991
21
-19.4149
0
LINE
8
BLACK
6
CONTINUOUS
10
78.2991
20
-19.4149
11
78.251
21
-19.1732
0
LINE
8
BLACK
6
CONTINUOUS
10
78.251
20
-19.1732
11
78.251
21
-18.9268
0
LINE
8
BLACK
6
CONTINUOUS
10
78.251
20
-18.9268
11
78.2991
21
-18.6851
0
LINE
8
BLACK
6
CONTINUOUS
10
78.2991
20
-18.6851
11
78.3934
21
-18.4574
0
LINE
8
BLACK
6
CONTINUOUS
10
78.3934
20
-18.4574
11
78.5303
21
-18.2525
0
LINE
8
BLACK
6
CONTINUOUS
10
78.5303
20
-18.2525
11
78.7045
21
-18.0783
0
LINE
8
BLACK
6
CONTINUOUS
10
78.7045
20
-18.0783
11
78.9094
21
-17.9414
0
LINE
8
BLACK
6
CONTINUOUS
10
78.9094
20
-17.9414
11
79.0368
21
-17.8886
0
LINE
8
BLACK
6
CONTINUOUS
10
79.0368
20
-17.8886
11
79.1371
21
-17.8471
0
LINE
8
BLACK
6
CONTINUOUS
10
79.1371
20
-17.8471
11
79.3788
21
-17.799
0
LINE
8
BLACK
6
CONTINUOUS
10
79.3788
20
-17.799
11
79.6252
21
-17.799
0
LINE
8
BLACK
6
CONTINUOUS
10
79.6252
20
-17.799
11
79.8669
21
-17.8471
0
LINE
8
BLACK
6
CONTINUOUS
10
94.9872
20
-17.8171
11
95.2231
21
-17.8886
0
LINE
8
BLACK
6
CONTINUOUS
10
95.2231
20
-17.8886
11
95.4404
21
-18.0048
0
LINE
8
BLACK
6
CONTINUOUS
10
95.4404
20
-18.0048
11
95.6309
21
-18.1611
0
LINE
8
BLACK
6
CONTINUOUS
10
95.6309
20
-18.1611
11
95.7872
21
-18.3516
0
LINE
8
BLACK
6
CONTINUOUS
10
95.7872
20
-18.3516
11
95.9034
21
-18.5689
0
LINE
8
BLACK
6
CONTINUOUS
10
95.9034
20
-18.5689
11
95.9749
21
-18.8048
0
LINE
8
BLACK
6
CONTINUOUS
10
95.9749
20
-18.8048
11
95.9991
21
-19.05
0
LINE
8
BLACK
6
CONTINUOUS
10
95.9991
20
-19.05
11
95.9749
21
-19.2952
0
LINE
8
BLACK
6
CONTINUOUS
10
95.9749
20
-19.2952
11
95.9034
21
-19.5311
0
LINE
8
BLACK
6
CONTINUOUS
10
95.9034
20
-19.5311
11
95.7872
21
-19.7484
0
LINE
8
BLACK
6
CONTINUOUS
10
95.7872
20
-19.7484
11
95.6309
21
-19.9389
0
LINE
8
BLACK
6
CONTINUOUS
10
95.6309
20
-19.9389
11
95.4404
21
-20.0952
0
LINE
8
BLACK
6
CONTINUOUS
10
95.4404
20
-20.0952
11
95.2231
21
-20.2114
0
LINE
8
BLACK
6
CONTINUOUS
10
95.2231
20
-20.2114
11
94.9872
21
-20.2829
0
LINE
8
BLACK
6
CONTINUOUS
10
94.9872
20
-20.2829
11
94.8035
21
-20.301
0
LINE
8
BLACK
6
CONTINUOUS
10
94.8035
20
-20.301
11
94.6805
21
-20.301
0
LINE
8
BLACK
6
CONTINUOUS
10
94.6805
20
-20.301
11
94.4968
21
-20.2829
0
LINE
8
BLACK
6
CONTINUOUS
10
94.4968
20
-20.2829
11
94.2609
21
-20.2114
0
LINE
8
BLACK
6
CONTINUOUS
10
94.2609
20
-20.2114
11
94.0436
21
-20.0952
0
LINE
8
BLACK
6
CONTINUOUS
10
94.0436
20
-20.0952
11
93.8531
21
-19.9389
0
LINE
8
BLACK
6
CONTINUOUS
10
93.8531
20
-19.9389
11
93.6968
21
-19.7484
0
LINE
8
BLACK
6
CONTINUOUS
10
93.6968
20
-19.7484
11
93.5806
21
-19.5311
0
LINE
8
BLACK
6
CONTINUOUS
10
93.5806
20
-19.5311
11
93.5091
21
-19.2952
0
LINE
8
BLACK
6
CONTINUOUS
10
93.5091
20
-19.2952
11
93.4849
21
-19.05
0
LINE
8
BLACK
6
CONTINUOUS
10
93.4849
20
-19.05
11
93.5091
21
-18.8048
0
LINE
8
BLACK
6
CONTINUOUS
10
93.5091
20
-18.8048
11
93.5806
21
-18.5689
0
LINE
8
BLACK
6
CONTINUOUS
10
93.5806
20
-18.5689
11
93.6968
21
-18.3516
0
LINE
8
BLACK
6
CONTINUOUS
10
93.6968
20
-18.3516
11
93.8531
21
-18.1611
0
LINE
8
BLACK
6
CONTINUOUS
10
93.8531
20
-18.1611
11
94.0436
21
-18.0048
0
LINE
8
BLACK
6
CONTINUOUS
10
94.0436
20
-18.0048
11
94.2609
21
-17.8886
0
LINE
8
BLACK
6
CONTINUOUS
10
94.2609
20
-17.8886
11
94.4968
21
-17.8171
0
LINE
8
BLACK
6
CONTINUOUS
10
94.4968
20
-17.8171
11
94.6805
21
-17.799
0
LINE
8
BLACK
6
CONTINUOUS
10
94.6805
20
-17.799
11
94.8035
21
-17.799
0
LINE
8
BLACK
6
CONTINUOUS
10
94.8035
20
-17.799
11
94.9872
21
-17.8171
0
LINE
8
BLACK
6
CONTINUOUS
10
107.631
20
-18.223
11
105.729
21
-18.223
0
LINE
8
BLACK
6
CONTINUOUS
10
105.729
20
-18.223
11
105.729
21
-16.321
0
LINE
8
BLACK
6
CONTINUOUS
10
105.729
20
-16.321
11
107.631
21
-16.321
0
LINE
8
BLACK
6
CONTINUOUS
10
107.631
20
-16.321
11
107.631
21
-18.223
0
LINE
8
BLACK
6
CONTINUOUS
10
104.417
20
-16.3575
11
104.59
21
-16.4292
0
LINE
8
BLACK
6
CONTINUOUS
10
104.59
20
-16.4292
11
104.59
21
-16.4292
0
LINE
8
BLACK
6
CONTINUOUS
10
104.59
20
-16.4292
11
104.746
21
-16.5333
0
LINE
8
BLACK
6
CONTINUOUS
10
104.746
20
-16.5333
11
104.879
21
-16.6658
0
LINE
8
BLACK
6
CONTINUOUS
10
104.879
20
-16.6658
11
104.879
21
-16.6658
0
LINE
8
BLACK
6
CONTINUOUS
10
104.879
20
-16.6658
11
104.983
21
-16.8215
0
LINE
8
BLACK
6
CONTINUOUS
10
104.983
20
-16.8215
11
105.054
21
-16.9946
0
LINE
8
BLACK
6
CONTINUOUS
10
105.054
20
-16.9946
11
105.091
21
-17.1783
0
LINE
8
BLACK
6
CONTINUOUS
10
105.091
20
-17.1783
11
105.091
21
-17.3657
0
LINE
8
BLACK
6
CONTINUOUS
10
105.091
20
-17.3657
11
105.054
21
-17.5494
0
LINE
8
BLACK
6
CONTINUOUS
10
105.054
20
-17.5494
11
104.983
21
-17.7225
0
LINE
8
BLACK
6
CONTINUOUS
10
104.983
20
-17.7225
11
104.983
21
-17.7225
0
LINE
8
BLACK
6
CONTINUOUS
10
104.983
20
-17.7225
11
104.879
21
-17.8782
0
LINE
8
BLACK
6
CONTINUOUS
10
104.879
20
-17.8782
11
104.746
21
-18.0107
0
LINE
8
BLACK
6
CONTINUOUS
10
104.746
20
-18.0107
11
104.668
21
-18.0631
0
LINE
8
BLACK
6
CONTINUOUS
10
104.668
20
-18.0631
11
104.59
21
-18.1148
0
LINE
8
BLACK
6
CONTINUOUS
10
104.59
20
-18.1148
11
104.417
21
-18.1865
0
LINE
8
BLACK
6
CONTINUOUS
10
104.417
20
-18.1865
11
104.234
21
-18.223
0
LINE
8
BLACK
6
CONTINUOUS
10
104.234
20
-18.223
11
104.046
21
-18.223
0
LINE
8
BLACK
6
CONTINUOUS
10
104.046
20
-18.223
11
103.863
21
-18.1865
0
LINE
8
BLACK
6
CONTINUOUS
10
103.863
20
-18.1865
11
103.69
21
-18.1148
0
LINE
8
BLACK
6
CONTINUOUS
10
103.69
20
-18.1148
11
103.612
21
-18.0631
0
LINE
8
BLACK
6
CONTINUOUS
10
103.612
20
-18.0631
11
103.534
21
-18.0107
0
LINE
8
BLACK
6
CONTINUOUS
10
103.534
20
-18.0107
11
103.401
21
-17.8782
0
LINE
8
BLACK
6
CONTINUOUS
10
103.401
20
-17.8782
11
103.297
21
-17.7225
0
LINE
8
BLACK
6
CONTINUOUS
10
103.297
20
-17.7225
11
103.297
21
-17.7225
0
LINE
8
BLACK
6
CONTINUOUS
10
103.297
20
-17.7225
11
103.226
21
-17.5494
0
LINE
8
BLACK
6
CONTINUOUS
10
103.226
20
-17.5494
11
103.189
21
-17.3657
0
LINE
8
BLACK
6
CONTINUOUS
10
103.189
20
-17.3657
11
103.189
21
-17.1783
0
LINE
8
BLACK
6
CONTINUOUS
10
103.189
20
-17.1783
11
103.226
21
-16.9946
0
LINE
8
BLACK
6
CONTINUOUS
10
103.226
20
-16.9946
11
103.297
21
-16.8215
0
LINE
8
BLACK
6
CONTINUOUS
10
103.297
20
-16.8215
11
103.401
21
-16.6658
0
LINE
8
BLACK
6
CONTINUOUS
10
103.401
20
-16.6658
11
103.401
21
-16.6658
0
LINE
8
BLACK
6
CONTINUOUS
10
103.401
20
-16.6658
11
103.534
21
-16.5333
0
LINE
8
BLACK
6
CONTINUOUS
10
103.534
20
-16.5333
11
103.69
21
-16.4292
0
LINE
8
BLACK
6
CONTINUOUS
10
103.69
20
-16.4292
11
103.69
21
-16.4292
0
LINE
8
BLACK
6
CONTINUOUS
10
103.69
20
-16.4292
11
103.863
21
-16.3575
0
LINE
8
BLACK
6
CONTINUOUS
10
103.863
20
-16.3575
11
104.046
21
-16.321
0
LINE
8
BLACK
6
CONTINUOUS
10
104.046
20
-16.321
11
104.234
21
-16.321
0
LINE
8
BLACK
6
CONTINUOUS
10
104.234
20
-16.321
11
104.417
21
-16.3575
  0
ENDSEC
  0
EOF
