  0
SECTION
  2
HEADER
  9
$ANGBASE
  50
0.0
  9
$ANGDIR
  70
  1
  9
$MEASUREMENT
  70
0
  0
ENDSEC
  0
SECTION
  2
TABLES
  0
TABLE
  2
LTYPE
  70
4
  0
LTYPE
  5
40F
  2
CONTINUOUS
  70
0
  3
Solid line
  72
65
  73
0
  40
0.0
  0
LTYPE
  5
410
  2
DASHDOT
 70
0
  3
Dash Dot ____ _ ____ _
 72
65
 73
4
 40
2.0
 49
1.25
 49
-0.25
 49
0.25
 49
-0.25
  0
LTYPE
  5
411
  2
DASHED
 70
0
  3
Dashed __ __ __ __ __
 72
65
 73
2
 40
0.75
 49
0.5
 49
-0.25
  0
LTYPE
  5
43B
  2
DOTTED
 70
0
  3
Dotted .  .  .  .
 72
65
 73
2
 40
0.2
 49
0.0
 49
-0.2
  0
ENDTAB
  0
TABLE
  2
STYLE
  70
4
  0
STYLE
  2
KICAD
  70
0
  40
0
  41
1
  42
1
  50
0
  71
0
  3
isocp.shx
  0
STYLE
  2
KICADB
  70
0
  40
0
  41
1
  42
1
  50
0
  71
0
  3
isocp.shx
  0
STYLE
  2
KICADI
  70
0
  40
0
  41
1
  42
1
  50
15
  71
0
  3
isocp.shx
  0
STYLE
  2
KICADBI
  70
0
  40
0
  41
1
  42
1
  50
15
  71
0
  3
isocp.shx
  0
ENDTAB
  0
TABLE
  2
LAYER
  70
30
  0
LAYER
  2
BLACK
  70
0
  62
7
  6
CONTINUOUS
  0
LAYER
  2
GRAY1
  70
0
  62
251
  6
CONTINUOUS
  0
LAYER
  2
GRAY2
  70
0
  62
8
  6
CONTINUOUS
  0
LAYER
  2
GRAY3
  70
0
  62
9
  6
CONTINUOUS
  0
LAYER
  2
WHITE
  70
0
  62
7
  6
CONTINUOUS
  0
LAYER
  2
LYELLOW
  70
0
  62
51
  6
CONTINUOUS
  0
LAYER
  2
BLUE1
  70
0
  62
178
  6
CONTINUOUS
  0
LAYER
  2
GREEN1
  70
0
  62
98
  6
CONTINUOUS
  0
LAYER
  2
CYAN1
  70
0
  62
138
  6
CONTINUOUS
  0
LAYER
  2
RED1
  70
0
  62
18
  6
CONTINUOUS
  0
LAYER
  2
MAGENTA1
  70
0
  62
228
  6
CONTINUOUS
  0
LAYER
  2
BROWN1
  70
0
  62
58
  6
CONTINUOUS
  0
LAYER
  2
BLUE2
  70
0
  62
5
  6
CONTINUOUS
  0
LAYER
  2
GREEN2
  70
0
  62
3
  6
CONTINUOUS
  0
LAYER
  2
CYAN2
  70
0
  62
4
  6
CONTINUOUS
  0
LAYER
  2
RED2
  70
0
  62
1
  6
CONTINUOUS
  0
LAYER
  2
MAGENTA2
  70
0
  62
6
  6
CONTINUOUS
  0
LAYER
  2
BROWN2
  70
0
  62
54
  6
CONTINUOUS
  0
LAYER
  2
BLUE3
  70
0
  62
171
  6
CONTINUOUS
  0
LAYER
  2
GREEN3
  70
0
  62
91
  6
CONTINUOUS
  0
LAYER
  2
CYAN3
  70
0
  62
131
  6
CONTINUOUS
  0
LAYER
  2
RED3
  70
0
  62
11
  6
CONTINUOUS
  0
LAYER
  2
MAGENTA3
  70
0
  62
221
  6
CONTINUOUS
  0
LAYER
  2
YELLOW3
  70
0
  62
2
  6
CONTINUOUS
  0
LAYER
  2
BLUE4
  70
0
  62
5
  6
CONTINUOUS
  0
LAYER
  2
GREEN4
  70
0
  62
3
  6
CONTINUOUS
  0
LAYER
  2
CYAN4
  70
0
  62
4
  6
CONTINUOUS
  0
LAYER
  2
RED4
  70
0
  62
1
  6
CONTINUOUS
  0
LAYER
  2
MAGENTA4
  70
0
  62
6
  6
CONTINUOUS
  0
LAYER
  2
YELLOW4
  70
0
  62
2
  6
CONTINUOUS
  0
ENDTAB
  0
ENDSEC
  0
SECTION
  2
ENTITIES
0
LINE
8
BLACK
6
CONTINUOUS
10
42.418
20
-152.425
11
42.4168
21
-152.425
0
LINE
8
BLACK
6
CONTINUOUS
10
42.4168
20
-152.425
11
42.4168
21
-152.425
0
LINE
8
BLACK
6
CONTINUOUS
10
42.4168
20
-152.425
11
42.4131
21
-152.425
0
LINE
8
BLACK
6
CONTINUOUS
10
42.4131
20
-152.425
11
42.4084
21
-152.423
0
LINE
8
BLACK
6
CONTINUOUS
10
42.4084
20
-152.423
11
42.404
21
-152.421
0
LINE
8
BLACK
6
CONTINUOUS
10
42.404
20
-152.421
11
42.4002
21
-152.418
0
LINE
8
BLACK
6
CONTINUOUS
10
42.4002
20
-152.418
11
42.3971
21
-152.414
0
LINE
8
BLACK
6
CONTINUOUS
10
42.3971
20
-152.414
11
42.3948
21
-152.41
0
LINE
8
BLACK
6
CONTINUOUS
10
42.3948
20
-152.41
11
42.3934
21
-152.405
0
LINE
8
BLACK
6
CONTINUOUS
10
42.3934
20
-152.405
11
42.3929
21
-152.4
0
LINE
8
BLACK
6
CONTINUOUS
10
42.3929
20
-152.4
11
42.393
21
-152.399
0
LINE
8
BLACK
6
CONTINUOUS
10
42.393
20
-152.399
11
42.393
21
-12.7012
0
LINE
8
BLACK
6
CONTINUOUS
10
42.393
20
-12.7012
11
42.3929
21
-12.7
0
LINE
8
BLACK
6
CONTINUOUS
10
42.3929
20
-12.7
11
42.3934
21
-12.6951
0
LINE
8
BLACK
6
CONTINUOUS
10
42.3934
20
-12.6951
11
42.3948
21
-12.6904
0
LINE
8
BLACK
6
CONTINUOUS
10
42.3948
20
-12.6904
11
42.3971
21
-12.686
0
LINE
8
BLACK
6
CONTINUOUS
10
42.3971
20
-12.686
11
42.4002
21
-12.6822
0
LINE
8
BLACK
6
CONTINUOUS
10
42.4002
20
-12.6822
11
42.404
21
-12.6791
0
LINE
8
BLACK
6
CONTINUOUS
10
42.404
20
-12.6791
11
42.4084
21
-12.6768
0
LINE
8
BLACK
6
CONTINUOUS
10
42.4084
20
-12.6768
11
42.4131
21
-12.6754
0
LINE
8
BLACK
6
CONTINUOUS
10
42.4131
20
-12.6754
11
42.4168
21
-12.675
0
LINE
8
BLACK
6
CONTINUOUS
10
42.4168
20
-12.675
11
42.418
21
-12.6749
0
LINE
8
BLACK
6
CONTINUOUS
10
42.418
20
-12.6749
11
42.4192
21
-12.675
0
LINE
8
BLACK
6
CONTINUOUS
10
42.4192
20
-12.675
11
127.507
21
-12.675
0
LINE
8
BLACK
6
CONTINUOUS
10
127.507
20
-12.675
11
127.508
21
-12.6749
0
LINE
8
BLACK
6
CONTINUOUS
10
127.508
20
-12.6749
11
127.509
21
-12.675
0
LINE
8
BLACK
6
CONTINUOUS
10
127.509
20
-12.675
11
127.513
21
-12.6754
0
LINE
8
BLACK
6
CONTINUOUS
10
127.513
20
-12.6754
11
127.518
21
-12.6768
0
LINE
8
BLACK
6
CONTINUOUS
10
127.518
20
-12.6768
11
127.522
21
-12.6791
0
LINE
8
BLACK
6
CONTINUOUS
10
127.522
20
-12.6791
11
127.526
21
-12.6822
0
LINE
8
BLACK
6
CONTINUOUS
10
127.526
20
-12.6822
11
127.529
21
-12.686
0
LINE
8
BLACK
6
CONTINUOUS
10
127.529
20
-12.686
11
127.531
21
-12.6904
0
LINE
8
BLACK
6
CONTINUOUS
10
127.531
20
-12.6904
11
127.533
21
-12.6951
0
LINE
8
BLACK
6
CONTINUOUS
10
127.533
20
-12.6951
11
127.533
21
-12.7
0
LINE
8
BLACK
6
CONTINUOUS
10
127.533
20
-12.7
11
127.533
21
-12.7012
0
LINE
8
BLACK
6
CONTINUOUS
10
127.533
20
-12.7012
11
127.533
21
-152.399
0
LINE
8
BLACK
6
CONTINUOUS
10
127.533
20
-152.399
11
127.533
21
-152.4
0
LINE
8
BLACK
6
CONTINUOUS
10
127.533
20
-152.4
11
127.533
21
-152.405
0
LINE
8
BLACK
6
CONTINUOUS
10
127.533
20
-152.405
11
127.531
21
-152.41
0
LINE
8
BLACK
6
CONTINUOUS
10
127.531
20
-152.41
11
127.529
21
-152.414
0
LINE
8
BLACK
6
CONTINUOUS
10
127.529
20
-152.414
11
127.526
21
-152.418
0
LINE
8
BLACK
6
CONTINUOUS
10
127.526
20
-152.418
11
127.522
21
-152.421
0
LINE
8
BLACK
6
CONTINUOUS
10
127.522
20
-152.421
11
127.518
21
-152.423
0
LINE
8
BLACK
6
CONTINUOUS
10
127.518
20
-152.423
11
127.513
21
-152.425
0
LINE
8
BLACK
6
CONTINUOUS
10
127.513
20
-152.425
11
127.509
21
-152.425
0
LINE
8
BLACK
6
CONTINUOUS
10
127.509
20
-152.425
11
127.509
21
-152.425
0
LINE
8
BLACK
6
CONTINUOUS
10
127.509
20
-152.425
11
127.508
21
-152.425
0
LINE
8
BLACK
6
CONTINUOUS
10
127.508
20
-152.425
11
127.507
21
-152.425
0
LINE
8
BLACK
6
CONTINUOUS
10
127.507
20
-152.425
11
42.4192
21
-152.425
0
LINE
8
BLACK
6
CONTINUOUS
10
42.4192
20
-152.425
11
42.418
21
-152.425
0
LINE
8
BLACK
6
CONTINUOUS
10
127.483
20
-12.725
11
42.443
21
-12.725
0
LINE
8
BLACK
6
CONTINUOUS
10
42.443
20
-12.725
11
42.443
21
-152.375
0
LINE
8
BLACK
6
CONTINUOUS
10
42.443
20
-152.375
11
127.483
21
-152.375
0
LINE
8
BLACK
6
CONTINUOUS
10
127.483
20
-152.375
11
127.483
21
-12.725
  0
ENDSEC
  0
EOF
