G04 #@! TF.GenerationSoftware,KiCad,Pcbnew,(5.1.2)-2*
G04 #@! TF.CreationDate,2020-05-16T03:45:46+07:00*
G04 #@! TF.ProjectId,STM_SHIELD_V1,53544d5f-5348-4494-954c-445f56312e6b,rev?*
G04 #@! TF.SameCoordinates,Original*
G04 #@! TF.FileFunction,Legend,Top*
G04 #@! TF.FilePolarity,Positive*
%FSLAX46Y46*%
G04 Gerber Fmt 4.6, Leading zero omitted, Abs format (unit mm)*
G04 Created by KiCad (PCBNEW (5.1.2)-2) date 2020-05-16 03:45:46*
%MOMM*%
%LPD*%
G04 APERTURE LIST*
%ADD10C,0.120000*%
%ADD11C,0.150000*%
%ADD12C,0.500000*%
%ADD13C,0.010000*%
G04 APERTURE END LIST*
D10*
X42418000Y-12700000D02*
X127508000Y-12700000D01*
X42418000Y-152400000D02*
X42418000Y-12700000D01*
X127508000Y-152400000D02*
X42418000Y-152400000D01*
X127508000Y-12700000D02*
X127508000Y-152400000D01*
D11*
X69659523Y-22058380D02*
X69183333Y-22058380D01*
X69135714Y-22534571D01*
X69183333Y-22486952D01*
X69278571Y-22439333D01*
X69516666Y-22439333D01*
X69611904Y-22486952D01*
X69659523Y-22534571D01*
X69707142Y-22629809D01*
X69707142Y-22867904D01*
X69659523Y-22963142D01*
X69611904Y-23010761D01*
X69516666Y-23058380D01*
X69278571Y-23058380D01*
X69183333Y-23010761D01*
X69135714Y-22963142D01*
X69992857Y-22058380D02*
X70326190Y-23058380D01*
X70659523Y-22058380D01*
X69088095Y-19264380D02*
X69707142Y-19264380D01*
X69373809Y-19645333D01*
X69516666Y-19645333D01*
X69611904Y-19692952D01*
X69659523Y-19740571D01*
X69707142Y-19835809D01*
X69707142Y-20073904D01*
X69659523Y-20169142D01*
X69611904Y-20216761D01*
X69516666Y-20264380D01*
X69230952Y-20264380D01*
X69135714Y-20216761D01*
X69088095Y-20169142D01*
X69992857Y-19264380D02*
X70326190Y-20264380D01*
X70659523Y-19264380D01*
D12*
X58293142Y-15454285D02*
X60578857Y-15454285D01*
X63881142Y-15200285D02*
X66166857Y-15200285D01*
X65024000Y-16343142D02*
X65024000Y-14057428D01*
D13*
G36*
X87766746Y-143025509D02*
G01*
X88137202Y-143137805D01*
X88449991Y-143314871D01*
X88693135Y-143550594D01*
X88805279Y-143726684D01*
X88839863Y-143813000D01*
X88901368Y-143986853D01*
X88986684Y-144238719D01*
X89092700Y-144559074D01*
X89216307Y-144938396D01*
X89354393Y-145367159D01*
X89503849Y-145835842D01*
X89661565Y-146334919D01*
X89770089Y-146680871D01*
X89929185Y-147189377D01*
X90079537Y-147669624D01*
X90218355Y-148112713D01*
X90342844Y-148509748D01*
X90450214Y-148851831D01*
X90537673Y-149130065D01*
X90602426Y-149335553D01*
X90641684Y-149459396D01*
X90652608Y-149493051D01*
X90641421Y-149518794D01*
X90578017Y-149535920D01*
X90450245Y-149545289D01*
X90245954Y-149547761D01*
X89952993Y-149544196D01*
X89934592Y-149543851D01*
X89193336Y-149529800D01*
X88344203Y-147015200D01*
X87495069Y-144500600D01*
X87204514Y-144500600D01*
X85526386Y-149555200D01*
X84746395Y-149555200D01*
X84480058Y-149552874D01*
X84255738Y-149546457D01*
X84090136Y-149536788D01*
X83999952Y-149524707D01*
X83988673Y-149517100D01*
X84007380Y-149462903D01*
X84053373Y-149320319D01*
X84123931Y-149098027D01*
X84216331Y-148804706D01*
X84327851Y-148449036D01*
X84455769Y-148039696D01*
X84597363Y-147585365D01*
X84749910Y-147094724D01*
X84884917Y-146659600D01*
X85064750Y-146083084D01*
X85233340Y-145549729D01*
X85388243Y-145066907D01*
X85527015Y-144641994D01*
X85647213Y-144282362D01*
X85746392Y-143995386D01*
X85822108Y-143788441D01*
X85871917Y-143668899D01*
X85882625Y-143649309D01*
X86113955Y-143383816D01*
X86417644Y-143181770D01*
X86783080Y-143047978D01*
X87199651Y-142987251D01*
X87350600Y-142984098D01*
X87766746Y-143025509D01*
X87766746Y-143025509D01*
G37*
X87766746Y-143025509D02*
X88137202Y-143137805D01*
X88449991Y-143314871D01*
X88693135Y-143550594D01*
X88805279Y-143726684D01*
X88839863Y-143813000D01*
X88901368Y-143986853D01*
X88986684Y-144238719D01*
X89092700Y-144559074D01*
X89216307Y-144938396D01*
X89354393Y-145367159D01*
X89503849Y-145835842D01*
X89661565Y-146334919D01*
X89770089Y-146680871D01*
X89929185Y-147189377D01*
X90079537Y-147669624D01*
X90218355Y-148112713D01*
X90342844Y-148509748D01*
X90450214Y-148851831D01*
X90537673Y-149130065D01*
X90602426Y-149335553D01*
X90641684Y-149459396D01*
X90652608Y-149493051D01*
X90641421Y-149518794D01*
X90578017Y-149535920D01*
X90450245Y-149545289D01*
X90245954Y-149547761D01*
X89952993Y-149544196D01*
X89934592Y-149543851D01*
X89193336Y-149529800D01*
X88344203Y-147015200D01*
X87495069Y-144500600D01*
X87204514Y-144500600D01*
X85526386Y-149555200D01*
X84746395Y-149555200D01*
X84480058Y-149552874D01*
X84255738Y-149546457D01*
X84090136Y-149536788D01*
X83999952Y-149524707D01*
X83988673Y-149517100D01*
X84007380Y-149462903D01*
X84053373Y-149320319D01*
X84123931Y-149098027D01*
X84216331Y-148804706D01*
X84327851Y-148449036D01*
X84455769Y-148039696D01*
X84597363Y-147585365D01*
X84749910Y-147094724D01*
X84884917Y-146659600D01*
X85064750Y-146083084D01*
X85233340Y-145549729D01*
X85388243Y-145066907D01*
X85527015Y-144641994D01*
X85647213Y-144282362D01*
X85746392Y-143995386D01*
X85822108Y-143788441D01*
X85871917Y-143668899D01*
X85882625Y-143649309D01*
X86113955Y-143383816D01*
X86417644Y-143181770D01*
X86783080Y-143047978D01*
X87199651Y-142987251D01*
X87350600Y-142984098D01*
X87766746Y-143025509D01*
G36*
X76329026Y-142998075D02*
G01*
X76734234Y-143116597D01*
X77071751Y-143310512D01*
X77343473Y-143581187D01*
X77513074Y-143850610D01*
X77549520Y-143940546D01*
X77612147Y-144116021D01*
X77697140Y-144365503D01*
X77800686Y-144677459D01*
X77918970Y-145040357D01*
X78048176Y-145442665D01*
X78184492Y-145872850D01*
X78232152Y-146024600D01*
X78367958Y-146456553D01*
X78495784Y-146860351D01*
X78612155Y-147225214D01*
X78713593Y-147540366D01*
X78796622Y-147795027D01*
X78857767Y-147978421D01*
X78893549Y-148079769D01*
X78899864Y-148094700D01*
X78918863Y-148118693D01*
X78954692Y-148137960D01*
X79017597Y-148153013D01*
X79117824Y-148164365D01*
X79265618Y-148172530D01*
X79471226Y-148178021D01*
X79744892Y-148181351D01*
X80096862Y-148183033D01*
X80537381Y-148183580D01*
X80674710Y-148183600D01*
X81170254Y-148183215D01*
X81574444Y-148181009D01*
X81897524Y-148175405D01*
X82149738Y-148164825D01*
X82341331Y-148147691D01*
X82482548Y-148122426D01*
X82583634Y-148087451D01*
X82654833Y-148041189D01*
X82706390Y-147982063D01*
X82748550Y-147908494D01*
X82771749Y-147860660D01*
X82847274Y-147615679D01*
X82826298Y-147398840D01*
X82725899Y-147225405D01*
X82596998Y-147072215D01*
X81290799Y-147056407D01*
X80889867Y-147051124D01*
X80576546Y-147045357D01*
X80336849Y-147037918D01*
X80156791Y-147027617D01*
X80022384Y-147013263D01*
X79919643Y-146993668D01*
X79834580Y-146967641D01*
X79753209Y-146933994D01*
X79730600Y-146923697D01*
X79389267Y-146711647D01*
X79098389Y-146416781D01*
X78865902Y-146048560D01*
X78738331Y-145740987D01*
X78669546Y-145443199D01*
X78640426Y-145100048D01*
X78650018Y-144746628D01*
X78697365Y-144418036D01*
X78781514Y-144149366D01*
X78781658Y-144149046D01*
X78985544Y-143793892D01*
X79246456Y-143516584D01*
X79577443Y-143303378D01*
X79591023Y-143296629D01*
X79931389Y-143129000D01*
X81977294Y-143114135D01*
X84023200Y-143099270D01*
X84023200Y-144475200D01*
X82256503Y-144475200D01*
X81766132Y-144475357D01*
X81367025Y-144476845D01*
X81048845Y-144481191D01*
X80801256Y-144489919D01*
X80613922Y-144504556D01*
X80476506Y-144526626D01*
X80378672Y-144557655D01*
X80310084Y-144599169D01*
X80260405Y-144652692D01*
X80219299Y-144719752D01*
X80187509Y-144780561D01*
X80125697Y-144977683D01*
X80120896Y-145192063D01*
X80167247Y-145393518D01*
X80258891Y-145551864D01*
X80351021Y-145622891D01*
X80425317Y-145635627D01*
X80586275Y-145649049D01*
X80818971Y-145662393D01*
X81108476Y-145674893D01*
X81439865Y-145685786D01*
X81711800Y-145692547D01*
X82981800Y-145719800D01*
X83286600Y-145869337D01*
X83496296Y-145993794D01*
X83710629Y-146154436D01*
X83828830Y-146262451D01*
X84064559Y-146573873D01*
X84222439Y-146933076D01*
X84303517Y-147323829D01*
X84308845Y-147729903D01*
X84239471Y-148135067D01*
X84096446Y-148523091D01*
X83880819Y-148877744D01*
X83642778Y-149139432D01*
X83545416Y-149228198D01*
X83457296Y-149303342D01*
X83369394Y-149365996D01*
X83272685Y-149417297D01*
X83158146Y-149458377D01*
X83016751Y-149490372D01*
X82839478Y-149514415D01*
X82617301Y-149531640D01*
X82341196Y-149543183D01*
X82002140Y-149550176D01*
X81591108Y-149553756D01*
X81099076Y-149555055D01*
X80517019Y-149555208D01*
X80334917Y-149555200D01*
X77782334Y-149555200D01*
X77418949Y-148424900D01*
X77193546Y-147723781D01*
X76997096Y-147113041D01*
X76827399Y-146586351D01*
X76682258Y-146137385D01*
X76559474Y-145759814D01*
X76456849Y-145447310D01*
X76372183Y-145193545D01*
X76303278Y-144992191D01*
X76247937Y-144836921D01*
X76203960Y-144721406D01*
X76169149Y-144639319D01*
X76141305Y-144584332D01*
X76118230Y-144550116D01*
X76097725Y-144530345D01*
X76077592Y-144518689D01*
X76058906Y-144510335D01*
X75948854Y-144485065D01*
X75863330Y-144536097D01*
X75840306Y-144573671D01*
X75804739Y-144655073D01*
X75755007Y-144785210D01*
X75689489Y-144968984D01*
X75606561Y-145211302D01*
X75504602Y-145517066D01*
X75381990Y-145891183D01*
X75237102Y-146338557D01*
X75068316Y-146864093D01*
X74874010Y-147472694D01*
X74652561Y-148169267D01*
X74442691Y-148831300D01*
X74213447Y-149555200D01*
X73423288Y-149555200D01*
X73123588Y-149554296D01*
X72911607Y-149550564D01*
X72773471Y-149542469D01*
X72695306Y-149528479D01*
X72663239Y-149507060D01*
X72663397Y-149476680D01*
X72665275Y-149471431D01*
X72686033Y-149408189D01*
X72733923Y-149257103D01*
X72806068Y-149027394D01*
X72899590Y-148728283D01*
X73011613Y-148368993D01*
X73139259Y-147958746D01*
X73279652Y-147506764D01*
X73429913Y-147022269D01*
X73509203Y-146766331D01*
X73665086Y-146263737D01*
X73814055Y-145784911D01*
X73953023Y-145339677D01*
X74078900Y-144937863D01*
X74188598Y-144589297D01*
X74279028Y-144303804D01*
X74347103Y-144091212D01*
X74389734Y-143961348D01*
X74399963Y-143932061D01*
X74554685Y-143653691D01*
X74789077Y-143411117D01*
X75084845Y-143213198D01*
X75423697Y-143068790D01*
X75787339Y-142986749D01*
X76157478Y-142975934D01*
X76329026Y-142998075D01*
X76329026Y-142998075D01*
G37*
X76329026Y-142998075D02*
X76734234Y-143116597D01*
X77071751Y-143310512D01*
X77343473Y-143581187D01*
X77513074Y-143850610D01*
X77549520Y-143940546D01*
X77612147Y-144116021D01*
X77697140Y-144365503D01*
X77800686Y-144677459D01*
X77918970Y-145040357D01*
X78048176Y-145442665D01*
X78184492Y-145872850D01*
X78232152Y-146024600D01*
X78367958Y-146456553D01*
X78495784Y-146860351D01*
X78612155Y-147225214D01*
X78713593Y-147540366D01*
X78796622Y-147795027D01*
X78857767Y-147978421D01*
X78893549Y-148079769D01*
X78899864Y-148094700D01*
X78918863Y-148118693D01*
X78954692Y-148137960D01*
X79017597Y-148153013D01*
X79117824Y-148164365D01*
X79265618Y-148172530D01*
X79471226Y-148178021D01*
X79744892Y-148181351D01*
X80096862Y-148183033D01*
X80537381Y-148183580D01*
X80674710Y-148183600D01*
X81170254Y-148183215D01*
X81574444Y-148181009D01*
X81897524Y-148175405D01*
X82149738Y-148164825D01*
X82341331Y-148147691D01*
X82482548Y-148122426D01*
X82583634Y-148087451D01*
X82654833Y-148041189D01*
X82706390Y-147982063D01*
X82748550Y-147908494D01*
X82771749Y-147860660D01*
X82847274Y-147615679D01*
X82826298Y-147398840D01*
X82725899Y-147225405D01*
X82596998Y-147072215D01*
X81290799Y-147056407D01*
X80889867Y-147051124D01*
X80576546Y-147045357D01*
X80336849Y-147037918D01*
X80156791Y-147027617D01*
X80022384Y-147013263D01*
X79919643Y-146993668D01*
X79834580Y-146967641D01*
X79753209Y-146933994D01*
X79730600Y-146923697D01*
X79389267Y-146711647D01*
X79098389Y-146416781D01*
X78865902Y-146048560D01*
X78738331Y-145740987D01*
X78669546Y-145443199D01*
X78640426Y-145100048D01*
X78650018Y-144746628D01*
X78697365Y-144418036D01*
X78781514Y-144149366D01*
X78781658Y-144149046D01*
X78985544Y-143793892D01*
X79246456Y-143516584D01*
X79577443Y-143303378D01*
X79591023Y-143296629D01*
X79931389Y-143129000D01*
X81977294Y-143114135D01*
X84023200Y-143099270D01*
X84023200Y-144475200D01*
X82256503Y-144475200D01*
X81766132Y-144475357D01*
X81367025Y-144476845D01*
X81048845Y-144481191D01*
X80801256Y-144489919D01*
X80613922Y-144504556D01*
X80476506Y-144526626D01*
X80378672Y-144557655D01*
X80310084Y-144599169D01*
X80260405Y-144652692D01*
X80219299Y-144719752D01*
X80187509Y-144780561D01*
X80125697Y-144977683D01*
X80120896Y-145192063D01*
X80167247Y-145393518D01*
X80258891Y-145551864D01*
X80351021Y-145622891D01*
X80425317Y-145635627D01*
X80586275Y-145649049D01*
X80818971Y-145662393D01*
X81108476Y-145674893D01*
X81439865Y-145685786D01*
X81711800Y-145692547D01*
X82981800Y-145719800D01*
X83286600Y-145869337D01*
X83496296Y-145993794D01*
X83710629Y-146154436D01*
X83828830Y-146262451D01*
X84064559Y-146573873D01*
X84222439Y-146933076D01*
X84303517Y-147323829D01*
X84308845Y-147729903D01*
X84239471Y-148135067D01*
X84096446Y-148523091D01*
X83880819Y-148877744D01*
X83642778Y-149139432D01*
X83545416Y-149228198D01*
X83457296Y-149303342D01*
X83369394Y-149365996D01*
X83272685Y-149417297D01*
X83158146Y-149458377D01*
X83016751Y-149490372D01*
X82839478Y-149514415D01*
X82617301Y-149531640D01*
X82341196Y-149543183D01*
X82002140Y-149550176D01*
X81591108Y-149553756D01*
X81099076Y-149555055D01*
X80517019Y-149555208D01*
X80334917Y-149555200D01*
X77782334Y-149555200D01*
X77418949Y-148424900D01*
X77193546Y-147723781D01*
X76997096Y-147113041D01*
X76827399Y-146586351D01*
X76682258Y-146137385D01*
X76559474Y-145759814D01*
X76456849Y-145447310D01*
X76372183Y-145193545D01*
X76303278Y-144992191D01*
X76247937Y-144836921D01*
X76203960Y-144721406D01*
X76169149Y-144639319D01*
X76141305Y-144584332D01*
X76118230Y-144550116D01*
X76097725Y-144530345D01*
X76077592Y-144518689D01*
X76058906Y-144510335D01*
X75948854Y-144485065D01*
X75863330Y-144536097D01*
X75840306Y-144573671D01*
X75804739Y-144655073D01*
X75755007Y-144785210D01*
X75689489Y-144968984D01*
X75606561Y-145211302D01*
X75504602Y-145517066D01*
X75381990Y-145891183D01*
X75237102Y-146338557D01*
X75068316Y-146864093D01*
X74874010Y-147472694D01*
X74652561Y-148169267D01*
X74442691Y-148831300D01*
X74213447Y-149555200D01*
X73423288Y-149555200D01*
X73123588Y-149554296D01*
X72911607Y-149550564D01*
X72773471Y-149542469D01*
X72695306Y-149528479D01*
X72663239Y-149507060D01*
X72663397Y-149476680D01*
X72665275Y-149471431D01*
X72686033Y-149408189D01*
X72733923Y-149257103D01*
X72806068Y-149027394D01*
X72899590Y-148728283D01*
X73011613Y-148368993D01*
X73139259Y-147958746D01*
X73279652Y-147506764D01*
X73429913Y-147022269D01*
X73509203Y-146766331D01*
X73665086Y-146263737D01*
X73814055Y-145784911D01*
X73953023Y-145339677D01*
X74078900Y-144937863D01*
X74188598Y-144589297D01*
X74279028Y-144303804D01*
X74347103Y-144091212D01*
X74389734Y-143961348D01*
X74399963Y-143932061D01*
X74554685Y-143653691D01*
X74789077Y-143411117D01*
X75084845Y-143213198D01*
X75423697Y-143068790D01*
X75787339Y-142986749D01*
X76157478Y-142975934D01*
X76329026Y-142998075D01*
G36*
X68499563Y-143033628D02*
G01*
X68892220Y-143178624D01*
X69234761Y-143403061D01*
X69516645Y-143702760D01*
X69568289Y-143776589D01*
X69618404Y-143860836D01*
X69670349Y-143968230D01*
X69727330Y-144108493D01*
X69792549Y-144291345D01*
X69869211Y-144526507D01*
X69960520Y-144823700D01*
X70069680Y-145192645D01*
X70199894Y-145643064D01*
X70306559Y-146016508D01*
X70431453Y-146452310D01*
X70550555Y-146862216D01*
X70660439Y-147234841D01*
X70757675Y-147558798D01*
X70838835Y-147822700D01*
X70900488Y-148015160D01*
X70939207Y-148124793D01*
X70946137Y-148140414D01*
X71018997Y-148245738D01*
X71112979Y-148278556D01*
X71186358Y-148275505D01*
X71348600Y-148259800D01*
X71399400Y-143129000D01*
X72872600Y-143129000D01*
X72872600Y-145796000D01*
X72872361Y-146391214D01*
X72871459Y-146893842D01*
X72869614Y-147312896D01*
X72866547Y-147657391D01*
X72861979Y-147936340D01*
X72855630Y-148158754D01*
X72847221Y-148333648D01*
X72836473Y-148470034D01*
X72823106Y-148576926D01*
X72806840Y-148663337D01*
X72787397Y-148738280D01*
X72780723Y-148760458D01*
X72650652Y-149048844D01*
X72457630Y-149307292D01*
X72223966Y-149511131D01*
X71996303Y-149627867D01*
X71774226Y-149677053D01*
X71488285Y-149703207D01*
X71173495Y-149706658D01*
X70864870Y-149687735D01*
X70597422Y-149646769D01*
X70476488Y-149613565D01*
X70118013Y-149439494D01*
X69818155Y-149189654D01*
X69722436Y-149076376D01*
X69679411Y-149002123D01*
X69625225Y-148874897D01*
X69557681Y-148687843D01*
X69474582Y-148434107D01*
X69373731Y-148106832D01*
X69252930Y-147699165D01*
X69109984Y-147204249D01*
X69010623Y-146855343D01*
X68883813Y-146410575D01*
X68762937Y-145991203D01*
X68651324Y-145608451D01*
X68552304Y-145273538D01*
X68469207Y-144997687D01*
X68405364Y-144792119D01*
X68364103Y-144668054D01*
X68353711Y-144641633D01*
X68248807Y-144500109D01*
X68114704Y-144437756D01*
X67974987Y-144462102D01*
X67917553Y-144502452D01*
X67894835Y-144526199D01*
X67875862Y-144558528D01*
X67860298Y-144608138D01*
X67847804Y-144683728D01*
X67838045Y-144793996D01*
X67830683Y-144947642D01*
X67825383Y-145153363D01*
X67821806Y-145419860D01*
X67819617Y-145755830D01*
X67818478Y-146169972D01*
X67818053Y-146670985D01*
X67818000Y-147073873D01*
X67818000Y-149555200D01*
X66344800Y-149555200D01*
X66345402Y-146900900D01*
X66345852Y-146271908D01*
X66347386Y-145735785D01*
X66350750Y-145283800D01*
X66356685Y-144907222D01*
X66365934Y-144597319D01*
X66379241Y-144345362D01*
X66397348Y-144142618D01*
X66421000Y-143980358D01*
X66450937Y-143849849D01*
X66487904Y-143742362D01*
X66532644Y-143649166D01*
X66585899Y-143561529D01*
X66635786Y-143488627D01*
X66844402Y-143276657D01*
X67135066Y-143119142D01*
X67510204Y-143014857D01*
X67606054Y-142998671D01*
X68067328Y-142972251D01*
X68499563Y-143033628D01*
X68499563Y-143033628D01*
G37*
X68499563Y-143033628D02*
X68892220Y-143178624D01*
X69234761Y-143403061D01*
X69516645Y-143702760D01*
X69568289Y-143776589D01*
X69618404Y-143860836D01*
X69670349Y-143968230D01*
X69727330Y-144108493D01*
X69792549Y-144291345D01*
X69869211Y-144526507D01*
X69960520Y-144823700D01*
X70069680Y-145192645D01*
X70199894Y-145643064D01*
X70306559Y-146016508D01*
X70431453Y-146452310D01*
X70550555Y-146862216D01*
X70660439Y-147234841D01*
X70757675Y-147558798D01*
X70838835Y-147822700D01*
X70900488Y-148015160D01*
X70939207Y-148124793D01*
X70946137Y-148140414D01*
X71018997Y-148245738D01*
X71112979Y-148278556D01*
X71186358Y-148275505D01*
X71348600Y-148259800D01*
X71399400Y-143129000D01*
X72872600Y-143129000D01*
X72872600Y-145796000D01*
X72872361Y-146391214D01*
X72871459Y-146893842D01*
X72869614Y-147312896D01*
X72866547Y-147657391D01*
X72861979Y-147936340D01*
X72855630Y-148158754D01*
X72847221Y-148333648D01*
X72836473Y-148470034D01*
X72823106Y-148576926D01*
X72806840Y-148663337D01*
X72787397Y-148738280D01*
X72780723Y-148760458D01*
X72650652Y-149048844D01*
X72457630Y-149307292D01*
X72223966Y-149511131D01*
X71996303Y-149627867D01*
X71774226Y-149677053D01*
X71488285Y-149703207D01*
X71173495Y-149706658D01*
X70864870Y-149687735D01*
X70597422Y-149646769D01*
X70476488Y-149613565D01*
X70118013Y-149439494D01*
X69818155Y-149189654D01*
X69722436Y-149076376D01*
X69679411Y-149002123D01*
X69625225Y-148874897D01*
X69557681Y-148687843D01*
X69474582Y-148434107D01*
X69373731Y-148106832D01*
X69252930Y-147699165D01*
X69109984Y-147204249D01*
X69010623Y-146855343D01*
X68883813Y-146410575D01*
X68762937Y-145991203D01*
X68651324Y-145608451D01*
X68552304Y-145273538D01*
X68469207Y-144997687D01*
X68405364Y-144792119D01*
X68364103Y-144668054D01*
X68353711Y-144641633D01*
X68248807Y-144500109D01*
X68114704Y-144437756D01*
X67974987Y-144462102D01*
X67917553Y-144502452D01*
X67894835Y-144526199D01*
X67875862Y-144558528D01*
X67860298Y-144608138D01*
X67847804Y-144683728D01*
X67838045Y-144793996D01*
X67830683Y-144947642D01*
X67825383Y-145153363D01*
X67821806Y-145419860D01*
X67819617Y-145755830D01*
X67818478Y-146169972D01*
X67818053Y-146670985D01*
X67818000Y-147073873D01*
X67818000Y-149555200D01*
X66344800Y-149555200D01*
X66345402Y-146900900D01*
X66345852Y-146271908D01*
X66347386Y-145735785D01*
X66350750Y-145283800D01*
X66356685Y-144907222D01*
X66365934Y-144597319D01*
X66379241Y-144345362D01*
X66397348Y-144142618D01*
X66421000Y-143980358D01*
X66450937Y-143849849D01*
X66487904Y-143742362D01*
X66532644Y-143649166D01*
X66585899Y-143561529D01*
X66635786Y-143488627D01*
X66844402Y-143276657D01*
X67135066Y-143119142D01*
X67510204Y-143014857D01*
X67606054Y-142998671D01*
X68067328Y-142972251D01*
X68499563Y-143033628D01*
D10*
X107970000Y-18817000D02*
X107970000Y-15727000D01*
X107910000Y-17272000D02*
G75*
G03X107910000Y-17272000I-2500000J0D01*
G01*
X102420000Y-17271538D02*
G75*
G03X107970000Y-18816830I2990000J-462D01*
G01*
X102420000Y-17272462D02*
G75*
G02X107970000Y-15727170I2990000J462D01*
G01*
X102420000Y-23876462D02*
G75*
G02X107970000Y-22331170I2990000J462D01*
G01*
X102420000Y-23875538D02*
G75*
G03X107970000Y-25420830I2990000J-462D01*
G01*
X107910000Y-23876000D02*
G75*
G03X107910000Y-23876000I-2500000J0D01*
G01*
X107970000Y-25421000D02*
X107970000Y-22331000D01*
X57150000Y-18288000D02*
X67310000Y-18288000D01*
X57150000Y-17018000D02*
X57150000Y-24638000D01*
X57150000Y-24638000D02*
X67310000Y-24638000D01*
X67310000Y-24638000D02*
X67310000Y-17018000D01*
X67310000Y-17018000D02*
X57150000Y-17018000D01*
X77022000Y-23682000D02*
X74422000Y-23682000D01*
X77022000Y-23682000D02*
X77022000Y-18482000D01*
X77022000Y-18482000D02*
X71822000Y-18482000D01*
X71822000Y-21082000D02*
X71822000Y-18482000D01*
X74422000Y-21082000D02*
X71822000Y-21082000D01*
X74422000Y-23682000D02*
X74422000Y-21082000D01*
X71822000Y-23682000D02*
X71822000Y-22352000D01*
X73152000Y-23682000D02*
X71822000Y-23682000D01*
X81052000Y-16680000D02*
X81052000Y-21420000D01*
X81052000Y-21420000D02*
X93192000Y-21420000D01*
X93192000Y-21420000D02*
X93192000Y-16680000D01*
X93192000Y-16680000D02*
X81052000Y-16680000D01*
X80942000Y-19050000D02*
X81052000Y-19050000D01*
X93302000Y-19050000D02*
X93192000Y-19050000D01*
X93302000Y-23622000D02*
X93192000Y-23622000D01*
X80942000Y-23622000D02*
X81052000Y-23622000D01*
X93192000Y-21252000D02*
X81052000Y-21252000D01*
X93192000Y-25992000D02*
X93192000Y-21252000D01*
X81052000Y-25992000D02*
X93192000Y-25992000D01*
X81052000Y-21252000D02*
X81052000Y-25992000D01*
D11*
X109625142Y-17724380D02*
X109148952Y-17724380D01*
X109148952Y-16724380D01*
X109958476Y-17200571D02*
X110291809Y-17200571D01*
X110434666Y-17724380D02*
X109958476Y-17724380D01*
X109958476Y-16724380D01*
X110434666Y-16724380D01*
X110863238Y-17724380D02*
X110863238Y-16724380D01*
X111101333Y-16724380D01*
X111244190Y-16772000D01*
X111339428Y-16867238D01*
X111387047Y-16962476D01*
X111434666Y-17152952D01*
X111434666Y-17295809D01*
X111387047Y-17486285D01*
X111339428Y-17581523D01*
X111244190Y-17676761D01*
X111101333Y-17724380D01*
X110863238Y-17724380D01*
X112529904Y-16724380D02*
X113148952Y-16724380D01*
X112815619Y-17105333D01*
X112958476Y-17105333D01*
X113053714Y-17152952D01*
X113101333Y-17200571D01*
X113148952Y-17295809D01*
X113148952Y-17533904D01*
X113101333Y-17629142D01*
X113053714Y-17676761D01*
X112958476Y-17724380D01*
X112672761Y-17724380D01*
X112577523Y-17676761D01*
X112529904Y-17629142D01*
X113577523Y-17629142D02*
X113625142Y-17676761D01*
X113577523Y-17724380D01*
X113529904Y-17676761D01*
X113577523Y-17629142D01*
X113577523Y-17724380D01*
X113958476Y-16724380D02*
X114577523Y-16724380D01*
X114244190Y-17105333D01*
X114387047Y-17105333D01*
X114482285Y-17152952D01*
X114529904Y-17200571D01*
X114577523Y-17295809D01*
X114577523Y-17533904D01*
X114529904Y-17629142D01*
X114482285Y-17676761D01*
X114387047Y-17724380D01*
X114101333Y-17724380D01*
X114006095Y-17676761D01*
X113958476Y-17629142D01*
X114863238Y-16724380D02*
X115196571Y-17724380D01*
X115529904Y-16724380D01*
X109831428Y-24328380D02*
X109355238Y-24328380D01*
X109355238Y-23328380D01*
X110164761Y-23804571D02*
X110498095Y-23804571D01*
X110640952Y-24328380D02*
X110164761Y-24328380D01*
X110164761Y-23328380D01*
X110640952Y-23328380D01*
X111069523Y-24328380D02*
X111069523Y-23328380D01*
X111307619Y-23328380D01*
X111450476Y-23376000D01*
X111545714Y-23471238D01*
X111593333Y-23566476D01*
X111640952Y-23756952D01*
X111640952Y-23899809D01*
X111593333Y-24090285D01*
X111545714Y-24185523D01*
X111450476Y-24280761D01*
X111307619Y-24328380D01*
X111069523Y-24328380D01*
X113307619Y-23328380D02*
X112831428Y-23328380D01*
X112783809Y-23804571D01*
X112831428Y-23756952D01*
X112926666Y-23709333D01*
X113164761Y-23709333D01*
X113260000Y-23756952D01*
X113307619Y-23804571D01*
X113355238Y-23899809D01*
X113355238Y-24137904D01*
X113307619Y-24233142D01*
X113260000Y-24280761D01*
X113164761Y-24328380D01*
X112926666Y-24328380D01*
X112831428Y-24280761D01*
X112783809Y-24233142D01*
X113640952Y-23328380D02*
X113974285Y-24328380D01*
X114307619Y-23328380D01*
X60301428Y-25693714D02*
X60301428Y-26693714D01*
X60301428Y-25741333D02*
X60396666Y-25693714D01*
X60587142Y-25693714D01*
X60682380Y-25741333D01*
X60730000Y-25788952D01*
X60777619Y-25884190D01*
X60777619Y-26169904D01*
X60730000Y-26265142D01*
X60682380Y-26312761D01*
X60587142Y-26360380D01*
X60396666Y-26360380D01*
X60301428Y-26312761D01*
X61349047Y-26360380D02*
X61253809Y-26312761D01*
X61206190Y-26265142D01*
X61158571Y-26169904D01*
X61158571Y-25884190D01*
X61206190Y-25788952D01*
X61253809Y-25741333D01*
X61349047Y-25693714D01*
X61491904Y-25693714D01*
X61587142Y-25741333D01*
X61634761Y-25788952D01*
X61682380Y-25884190D01*
X61682380Y-26169904D01*
X61634761Y-26265142D01*
X61587142Y-26312761D01*
X61491904Y-26360380D01*
X61349047Y-26360380D01*
X62015714Y-25693714D02*
X62206190Y-26360380D01*
X62396666Y-25884190D01*
X62587142Y-26360380D01*
X62777619Y-25693714D01*
X63539523Y-26312761D02*
X63444285Y-26360380D01*
X63253809Y-26360380D01*
X63158571Y-26312761D01*
X63110952Y-26217523D01*
X63110952Y-25836571D01*
X63158571Y-25741333D01*
X63253809Y-25693714D01*
X63444285Y-25693714D01*
X63539523Y-25741333D01*
X63587142Y-25836571D01*
X63587142Y-25931809D01*
X63110952Y-26027047D01*
X64015714Y-26360380D02*
X64015714Y-25693714D01*
X64015714Y-25884190D02*
X64063333Y-25788952D01*
X64110952Y-25741333D01*
X64206190Y-25693714D01*
X64301428Y-25693714D01*
X72255333Y-24852380D02*
X72255333Y-25566666D01*
X72207714Y-25709523D01*
X72112476Y-25804761D01*
X71969619Y-25852380D01*
X71874380Y-25852380D01*
X73160095Y-25185714D02*
X73160095Y-25852380D01*
X72731523Y-25185714D02*
X72731523Y-25709523D01*
X72779142Y-25804761D01*
X72874380Y-25852380D01*
X73017238Y-25852380D01*
X73112476Y-25804761D01*
X73160095Y-25757142D01*
X73636285Y-25852380D02*
X73636285Y-25185714D01*
X73636285Y-25280952D02*
X73683904Y-25233333D01*
X73779142Y-25185714D01*
X73922000Y-25185714D01*
X74017238Y-25233333D01*
X74064857Y-25328571D01*
X74064857Y-25852380D01*
X74064857Y-25328571D02*
X74112476Y-25233333D01*
X74207714Y-25185714D01*
X74350571Y-25185714D01*
X74445809Y-25233333D01*
X74493428Y-25328571D01*
X74493428Y-25852380D01*
X74969619Y-25185714D02*
X74969619Y-26185714D01*
X74969619Y-25233333D02*
X75064857Y-25185714D01*
X75255333Y-25185714D01*
X75350571Y-25233333D01*
X75398190Y-25280952D01*
X75445809Y-25376190D01*
X75445809Y-25661904D01*
X75398190Y-25757142D01*
X75350571Y-25804761D01*
X75255333Y-25852380D01*
X75064857Y-25852380D01*
X74969619Y-25804761D01*
X76255333Y-25804761D02*
X76160095Y-25852380D01*
X75969619Y-25852380D01*
X75874380Y-25804761D01*
X75826761Y-25709523D01*
X75826761Y-25328571D01*
X75874380Y-25233333D01*
X75969619Y-25185714D01*
X76160095Y-25185714D01*
X76255333Y-25233333D01*
X76302952Y-25328571D01*
X76302952Y-25423809D01*
X75826761Y-25519047D01*
X76731523Y-25852380D02*
X76731523Y-25185714D01*
X76731523Y-25376190D02*
X76779142Y-25280952D01*
X76826761Y-25233333D01*
X76922000Y-25185714D01*
X77017238Y-25185714D01*
X86907714Y-24074380D02*
X86336285Y-24074380D01*
X86622000Y-24074380D02*
X86622000Y-23074380D01*
X86526761Y-23217238D01*
X86431523Y-23312476D01*
X86336285Y-23360095D01*
X87336285Y-24074380D02*
X87336285Y-23074380D01*
X87907714Y-24074380D02*
X87479142Y-23502952D01*
X87907714Y-23074380D02*
X87336285Y-23645809D01*
X86907714Y-20704380D02*
X86336285Y-20704380D01*
X86622000Y-20704380D02*
X86622000Y-19704380D01*
X86526761Y-19847238D01*
X86431523Y-19942476D01*
X86336285Y-19990095D01*
X87336285Y-20704380D02*
X87336285Y-19704380D01*
X87907714Y-20704380D02*
X87479142Y-20132952D01*
X87907714Y-19704380D02*
X87336285Y-20275809D01*
M02*
