G04 #@! TF.GenerationSoftware,KiCad,Pcbnew,(5.1.2)-2*
G04 #@! TF.CreationDate,2020-05-16T03:45:46+07:00*
G04 #@! TF.ProjectId,STM_SHIELD_V1,53544d5f-5348-4494-954c-445f56312e6b,rev?*
G04 #@! TF.SameCoordinates,Original*
G04 #@! TF.FileFunction,Legend,Bot*
G04 #@! TF.FilePolarity,Positive*
%FSLAX46Y46*%
G04 Gerber Fmt 4.6, Leading zero omitted, Abs format (unit mm)*
G04 Created by KiCad (PCBNEW (5.1.2)-2) date 2020-05-16 03:45:46*
%MOMM*%
%LPD*%
G04 APERTURE LIST*
%ADD10C,0.120000*%
%ADD11C,0.150000*%
G04 APERTURE END LIST*
D10*
X63560000Y-60138000D02*
X60960000Y-60138000D01*
X63560000Y-60138000D02*
X63560000Y-123758000D01*
X63560000Y-123758000D02*
X58360000Y-123758000D01*
X58360000Y-62738000D02*
X58360000Y-123758000D01*
X60960000Y-62738000D02*
X58360000Y-62738000D01*
X60960000Y-60138000D02*
X60960000Y-62738000D01*
X58360000Y-60138000D02*
X58360000Y-61468000D01*
X59690000Y-60138000D02*
X58360000Y-60138000D01*
X109788000Y-137474000D02*
X109788000Y-134874000D01*
X109788000Y-137474000D02*
X58868000Y-137474000D01*
X58868000Y-137474000D02*
X58868000Y-132274000D01*
X107188000Y-132274000D02*
X58868000Y-132274000D01*
X107188000Y-134874000D02*
X107188000Y-132274000D01*
X109788000Y-134874000D02*
X107188000Y-134874000D01*
X109788000Y-132274000D02*
X108458000Y-132274000D01*
X109788000Y-133604000D02*
X109788000Y-132274000D01*
X110490000Y-60138000D02*
X109160000Y-60138000D01*
X109160000Y-60138000D02*
X109160000Y-61468000D01*
X111760000Y-60138000D02*
X111760000Y-62738000D01*
X111760000Y-62738000D02*
X109160000Y-62738000D01*
X109160000Y-62738000D02*
X109160000Y-123758000D01*
X114360000Y-123758000D02*
X109160000Y-123758000D01*
X114360000Y-60138000D02*
X114360000Y-123758000D01*
X114360000Y-60138000D02*
X111760000Y-60138000D01*
D11*
X61293333Y-58150380D02*
X61293333Y-58864666D01*
X61340952Y-59007523D01*
X61436190Y-59102761D01*
X61579047Y-59150380D01*
X61674285Y-59150380D01*
X60293333Y-59150380D02*
X60864761Y-59150380D01*
X60579047Y-59150380D02*
X60579047Y-58150380D01*
X60674285Y-58293238D01*
X60769523Y-58388476D01*
X60864761Y-58436095D01*
X111775619Y-135207333D02*
X111061333Y-135207333D01*
X110918476Y-135254952D01*
X110823238Y-135350190D01*
X110775619Y-135493047D01*
X110775619Y-135588285D01*
X111680380Y-134778761D02*
X111728000Y-134731142D01*
X111775619Y-134635904D01*
X111775619Y-134397809D01*
X111728000Y-134302571D01*
X111680380Y-134254952D01*
X111585142Y-134207333D01*
X111489904Y-134207333D01*
X111347047Y-134254952D01*
X110775619Y-134826380D01*
X110775619Y-134207333D01*
X112093333Y-58150380D02*
X112093333Y-58864666D01*
X112140952Y-59007523D01*
X112236190Y-59102761D01*
X112379047Y-59150380D01*
X112474285Y-59150380D01*
X111712380Y-58150380D02*
X111093333Y-58150380D01*
X111426666Y-58531333D01*
X111283809Y-58531333D01*
X111188571Y-58578952D01*
X111140952Y-58626571D01*
X111093333Y-58721809D01*
X111093333Y-58959904D01*
X111140952Y-59055142D01*
X111188571Y-59102761D01*
X111283809Y-59150380D01*
X111569523Y-59150380D01*
X111664761Y-59102761D01*
X111712380Y-59055142D01*
M02*
