M48
; DRILL file {KiCad (5.1.2)-2} date 5/16/2020 3:45:48 AM
; FORMAT={2:4/ absolute / inch / suppress leading zeros}
; #@! TF.CreationDate,2020-05-16T03:45:48+07:00
; #@! TF.GenerationSoftware,Kicad,Pcbnew,(5.1.2)-2
FMAT,2
INCH,TZ
T1C0.0315
T2C0.0354
T3C0.0394
T4C0.0472
T5C0.0598
T6C0.0787
%
G90
G05
T1
X21900Y-51200
X22200Y-25200
X22300Y-21600
X23500Y-49300
X23500Y-50900
X24200Y-51200
X26231Y-26869
X26400Y-21400
X28400Y-28100
X28400Y-35500
X29500Y-26100
X29500Y-32300
X40300Y-27800
X40500Y-23000
X40700Y-54700
X40700Y-58300
T2
X41000Y-6800
X42000Y-6800
X41000Y-9400
X42000Y-9400
T3
X28800Y-7800
X28800Y-8800
X29800Y-7800
X29800Y-8800
X23700Y-52600
X23700Y-53600
X24700Y-52600
X24700Y-53600
X25700Y-52600
X25700Y-53600
X26700Y-52600
X26700Y-53600
X27700Y-52600
X27700Y-53600
X28700Y-52600
X28700Y-53600
X29700Y-52600
X29700Y-53600
X30700Y-52600
X30700Y-53600
X31700Y-52600
X31700Y-53600
X32700Y-52600
X32700Y-53600
X33700Y-52600
X33700Y-53600
X34700Y-52600
X34700Y-53600
X35700Y-52600
X35700Y-53600
X36700Y-52600
X36700Y-53600
X37700Y-52600
X37700Y-53600
X38700Y-52600
X38700Y-53600
X39700Y-52600
X39700Y-53600
X40700Y-52600
X40700Y-53600
X41700Y-52600
X41700Y-53600
X42700Y-52600
X42700Y-53600
X43500Y-24200
X43500Y-25200
X43500Y-26200
X43500Y-27200
X43500Y-28200
X43500Y-29200
X43500Y-30200
X43500Y-31200
X43500Y-32200
X43500Y-33200
X43500Y-34200
X43500Y-35200
X43500Y-36200
X43500Y-37200
X43500Y-38200
X43500Y-39200
X43500Y-40200
X43500Y-41200
X43500Y-42200
X43500Y-43200
X43500Y-44200
X43500Y-45200
X43500Y-46200
X43500Y-47200
X43500Y-48200
X44500Y-24200
X44500Y-25200
X44500Y-26200
X44500Y-27200
X44500Y-28200
X44500Y-29200
X44500Y-30200
X44500Y-31200
X44500Y-32200
X44500Y-33200
X44500Y-34200
X44500Y-35200
X44500Y-36200
X44500Y-37200
X44500Y-38200
X44500Y-39200
X44500Y-40200
X44500Y-41200
X44500Y-42200
X44500Y-43200
X44500Y-44200
X44500Y-45200
X44500Y-46200
X44500Y-47200
X44500Y-48200
X23500Y-24200
X23500Y-25200
X23500Y-26200
X23500Y-27200
X23500Y-28200
X23500Y-29200
X23500Y-30200
X23500Y-31200
X23500Y-32200
X23500Y-33200
X23500Y-34200
X23500Y-35200
X23500Y-36200
X23500Y-37200
X23500Y-38200
X23500Y-39200
X23500Y-40200
X23500Y-41200
X23500Y-42200
X23500Y-43200
X23500Y-44200
X23500Y-45200
X23500Y-46200
X23500Y-47200
X23500Y-48200
X24500Y-24200
X24500Y-25200
X24500Y-26200
X24500Y-27200
X24500Y-28200
X24500Y-29200
X24500Y-30200
X24500Y-31200
X24500Y-32200
X24500Y-33200
X24500Y-34200
X24500Y-35200
X24500Y-36200
X24500Y-37200
X24500Y-38200
X24500Y-39200
X24500Y-40200
X24500Y-41200
X24500Y-42200
X24500Y-43200
X24500Y-44200
X24500Y-45200
X24500Y-46200
X24500Y-47200
X24500Y-48200
T4
X31300Y-7500
X37300Y-7500
X31300Y-9300
X37300Y-9300
T5
X23500Y-8200
X25500Y-8200
T6
X18400Y-58300
X19100Y-7300
X47700Y-57900
X47800Y-7200
T0
M30
