  0
SECTION
  2
HEADER
  9
$ANGBASE
  50
0.0
  9
$ANGDIR
  70
  1
  9
$MEASUREMENT
  70
0
  0
ENDSEC
  0
SECTION
  2
TABLES
  0
TABLE
  2
LTYPE
  70
4
  0
LTYPE
  5
40F
  2
CONTINUOUS
  70
0
  3
Solid line
  72
65
  73
0
  40
0.0
  0
LTYPE
  5
410
  2
DASHDOT
 70
0
  3
Dash Dot ____ _ ____ _
 72
65
 73
4
 40
2.0
 49
1.25
 49
-0.25
 49
0.25
 49
-0.25
  0
LTYPE
  5
411
  2
DASHED
 70
0
  3
Dashed __ __ __ __ __
 72
65
 73
2
 40
0.75
 49
0.5
 49
-0.25
  0
LTYPE
  5
43B
  2
DOTTED
 70
0
  3
Dotted .  .  .  .
 72
65
 73
2
 40
0.2
 49
0.0
 49
-0.2
  0
ENDTAB
  0
TABLE
  2
STYLE
  70
4
  0
STYLE
  2
KICAD
  70
0
  40
0
  41
1
  42
1
  50
0
  71
0
  3
isocp.shx
  0
STYLE
  2
KICADB
  70
0
  40
0
  41
1
  42
1
  50
0
  71
0
  3
isocp.shx
  0
STYLE
  2
KICADI
  70
0
  40
0
  41
1
  42
1
  50
15
  71
0
  3
isocp.shx
  0
STYLE
  2
KICADBI
  70
0
  40
0
  41
1
  42
1
  50
15
  71
0
  3
isocp.shx
  0
ENDTAB
  0
TABLE
  2
LAYER
  70
30
  0
LAYER
  2
BLACK
  70
0
  62
7
  6
CONTINUOUS
  0
LAYER
  2
GRAY1
  70
0
  62
251
  6
CONTINUOUS
  0
LAYER
  2
GRAY2
  70
0
  62
8
  6
CONTINUOUS
  0
LAYER
  2
GRAY3
  70
0
  62
9
  6
CONTINUOUS
  0
LAYER
  2
WHITE
  70
0
  62
7
  6
CONTINUOUS
  0
LAYER
  2
LYELLOW
  70
0
  62
51
  6
CONTINUOUS
  0
LAYER
  2
BLUE1
  70
0
  62
178
  6
CONTINUOUS
  0
LAYER
  2
GREEN1
  70
0
  62
98
  6
CONTINUOUS
  0
LAYER
  2
CYAN1
  70
0
  62
138
  6
CONTINUOUS
  0
LAYER
  2
RED1
  70
0
  62
18
  6
CONTINUOUS
  0
LAYER
  2
MAGENTA1
  70
0
  62
228
  6
CONTINUOUS
  0
LAYER
  2
BROWN1
  70
0
  62
58
  6
CONTINUOUS
  0
LAYER
  2
BLUE2
  70
0
  62
5
  6
CONTINUOUS
  0
LAYER
  2
GREEN2
  70
0
  62
3
  6
CONTINUOUS
  0
LAYER
  2
CYAN2
  70
0
  62
4
  6
CONTINUOUS
  0
LAYER
  2
RED2
  70
0
  62
1
  6
CONTINUOUS
  0
LAYER
  2
MAGENTA2
  70
0
  62
6
  6
CONTINUOUS
  0
LAYER
  2
BROWN2
  70
0
  62
54
  6
CONTINUOUS
  0
LAYER
  2
BLUE3
  70
0
  62
171
  6
CONTINUOUS
  0
LAYER
  2
GREEN3
  70
0
  62
91
  6
CONTINUOUS
  0
LAYER
  2
CYAN3
  70
0
  62
131
  6
CONTINUOUS
  0
LAYER
  2
RED3
  70
0
  62
11
  6
CONTINUOUS
  0
LAYER
  2
MAGENTA3
  70
0
  62
221
  6
CONTINUOUS
  0
LAYER
  2
YELLOW3
  70
0
  62
2
  6
CONTINUOUS
  0
LAYER
  2
BLUE4
  70
0
  62
5
  6
CONTINUOUS
  0
LAYER
  2
GREEN4
  70
0
  62
3
  6
CONTINUOUS
  0
LAYER
  2
CYAN4
  70
0
  62
4
  6
CONTINUOUS
  0
LAYER
  2
RED4
  70
0
  62
1
  6
CONTINUOUS
  0
LAYER
  2
MAGENTA4
  70
0
  62
6
  6
CONTINUOUS
  0
LAYER
  2
YELLOW4
  70
0
  62
2
  6
CONTINUOUS
  0
ENDTAB
  0
ENDSEC
  0
SECTION
  2
ENTITIES
0
LINE
8
BLACK
6
CONTINUOUS
10
47.6111
20
-145.197
11
48.157
21
-145.423
0
LINE
8
BLACK
6
CONTINUOUS
10
48.157
20
-145.423
11
48.6484
21
-145.752
0
LINE
8
BLACK
6
CONTINUOUS
10
48.6484
20
-145.752
11
49.0663
21
-146.17
0
LINE
8
BLACK
6
CONTINUOUS
10
49.0663
20
-146.17
11
49.3946
21
-146.661
0
LINE
8
BLACK
6
CONTINUOUS
10
49.3946
20
-146.661
11
49.6207
21
-147.207
0
LINE
8
BLACK
6
CONTINUOUS
10
49.6207
20
-147.207
11
49.736
21
-147.787
0
LINE
8
BLACK
6
CONTINUOUS
10
49.736
20
-147.787
11
49.736
21
-148.377
0
LINE
8
BLACK
6
CONTINUOUS
10
49.736
20
-148.377
11
49.6207
21
-148.957
0
LINE
8
BLACK
6
CONTINUOUS
10
49.6207
20
-148.957
11
49.3946
21
-149.503
0
LINE
8
BLACK
6
CONTINUOUS
10
49.3946
20
-149.503
11
49.0663
21
-149.994
0
LINE
8
BLACK
6
CONTINUOUS
10
49.0663
20
-149.994
11
48.6484
21
-150.412
0
LINE
8
BLACK
6
CONTINUOUS
10
48.6484
20
-150.412
11
48.157
21
-150.741
0
LINE
8
BLACK
6
CONTINUOUS
10
48.157
20
-150.741
11
47.6111
21
-150.967
0
LINE
8
BLACK
6
CONTINUOUS
10
47.6111
20
-150.967
11
47.0315
21
-151.082
0
LINE
8
BLACK
6
CONTINUOUS
10
47.0315
20
-151.082
11
46.4405
21
-151.082
0
LINE
8
BLACK
6
CONTINUOUS
10
46.4405
20
-151.082
11
45.8609
21
-150.967
0
LINE
8
BLACK
6
CONTINUOUS
10
45.8609
20
-150.967
11
45.315
21
-150.741
0
LINE
8
BLACK
6
CONTINUOUS
10
45.315
20
-150.741
11
44.8236
21
-150.412
0
LINE
8
BLACK
6
CONTINUOUS
10
44.8236
20
-150.412
11
44.4057
21
-149.994
0
LINE
8
BLACK
6
CONTINUOUS
10
44.4057
20
-149.994
11
44.0774
21
-149.503
0
LINE
8
BLACK
6
CONTINUOUS
10
44.0774
20
-149.503
11
43.8513
21
-148.957
0
LINE
8
BLACK
6
CONTINUOUS
10
43.8513
20
-148.957
11
43.736
21
-148.377
0
LINE
8
BLACK
6
CONTINUOUS
10
43.736
20
-148.377
11
43.736
21
-147.787
0
LINE
8
BLACK
6
CONTINUOUS
10
43.736
20
-147.787
11
43.8513
21
-147.207
0
LINE
8
BLACK
6
CONTINUOUS
10
43.8513
20
-147.207
11
44.0774
21
-146.661
0
LINE
8
BLACK
6
CONTINUOUS
10
44.0774
20
-146.661
11
44.4057
21
-146.17
0
LINE
8
BLACK
6
CONTINUOUS
10
44.4057
20
-146.17
11
44.8236
21
-145.752
0
LINE
8
BLACK
6
CONTINUOUS
10
44.8236
20
-145.752
11
45.315
21
-145.423
0
LINE
8
BLACK
6
CONTINUOUS
10
45.315
20
-145.423
11
45.8609
21
-145.197
0
LINE
8
BLACK
6
CONTINUOUS
10
45.8609
20
-145.197
11
46.4405
21
-145.082
0
LINE
8
BLACK
6
CONTINUOUS
10
46.4405
20
-145.082
11
47.0315
21
-145.082
0
LINE
8
BLACK
6
CONTINUOUS
10
47.0315
20
-145.082
11
47.6111
21
-145.197
0
LINE
8
BLACK
6
CONTINUOUS
10
122.325
20
-143.22
11
123.053
21
-143.521
0
LINE
8
BLACK
6
CONTINUOUS
10
123.053
20
-143.521
11
123.708
21
-143.959
0
LINE
8
BLACK
6
CONTINUOUS
10
123.708
20
-143.959
11
124.265
21
-144.516
0
LINE
8
BLACK
6
CONTINUOUS
10
124.265
20
-144.516
11
124.703
21
-145.171
0
LINE
8
BLACK
6
CONTINUOUS
10
124.703
20
-145.171
11
125.004
21
-145.899
0
LINE
8
BLACK
6
CONTINUOUS
10
125.004
20
-145.899
11
125.158
21
-146.672
0
LINE
8
BLACK
6
CONTINUOUS
10
125.158
20
-146.672
11
125.158
21
-147.46
0
LINE
8
BLACK
6
CONTINUOUS
10
125.158
20
-147.46
11
125.004
21
-148.233
0
LINE
8
BLACK
6
CONTINUOUS
10
125.004
20
-148.233
11
124.703
21
-148.961
0
LINE
8
BLACK
6
CONTINUOUS
10
124.703
20
-148.961
11
124.265
21
-149.616
0
LINE
8
BLACK
6
CONTINUOUS
10
124.265
20
-149.616
11
123.708
21
-150.173
0
LINE
8
BLACK
6
CONTINUOUS
10
123.708
20
-150.173
11
123.053
21
-150.611
0
LINE
8
BLACK
6
CONTINUOUS
10
123.053
20
-150.611
11
122.325
21
-150.912
0
LINE
8
BLACK
6
CONTINUOUS
10
122.325
20
-150.912
11
121.552
21
-151.066
0
LINE
8
BLACK
6
CONTINUOUS
10
121.552
20
-151.066
11
120.764
21
-151.066
0
LINE
8
BLACK
6
CONTINUOUS
10
120.764
20
-151.066
11
119.991
21
-150.912
0
LINE
8
BLACK
6
CONTINUOUS
10
119.991
20
-150.912
11
119.263
21
-150.611
0
LINE
8
BLACK
6
CONTINUOUS
10
119.263
20
-150.611
11
118.608
21
-150.173
0
LINE
8
BLACK
6
CONTINUOUS
10
118.608
20
-150.173
11
118.051
21
-149.616
0
LINE
8
BLACK
6
CONTINUOUS
10
118.051
20
-149.616
11
117.613
21
-148.961
0
LINE
8
BLACK
6
CONTINUOUS
10
117.613
20
-148.961
11
117.312
21
-148.233
0
LINE
8
BLACK
6
CONTINUOUS
10
117.312
20
-148.233
11
117.158
21
-147.46
0
LINE
8
BLACK
6
CONTINUOUS
10
117.158
20
-147.46
11
117.158
21
-146.672
0
LINE
8
BLACK
6
CONTINUOUS
10
117.158
20
-146.672
11
117.312
21
-145.899
0
LINE
8
BLACK
6
CONTINUOUS
10
117.312
20
-145.899
11
117.613
21
-145.171
0
LINE
8
BLACK
6
CONTINUOUS
10
117.613
20
-145.171
11
118.051
21
-144.516
0
LINE
8
BLACK
6
CONTINUOUS
10
118.051
20
-144.516
11
118.608
21
-143.959
0
LINE
8
BLACK
6
CONTINUOUS
10
118.608
20
-143.959
11
119.263
21
-143.521
0
LINE
8
BLACK
6
CONTINUOUS
10
119.263
20
-143.521
11
119.991
21
-143.22
0
LINE
8
BLACK
6
CONTINUOUS
10
119.991
20
-143.22
11
120.764
21
-143.066
0
LINE
8
BLACK
6
CONTINUOUS
10
120.764
20
-143.066
11
121.552
21
-143.066
0
LINE
8
BLACK
6
CONTINUOUS
10
121.552
20
-143.066
11
122.325
21
-143.22
0
LINE
8
BLACK
6
CONTINUOUS
10
103.67
20
-137.976
11
103.852
21
-138.052
0
LINE
8
BLACK
6
CONTINUOUS
10
103.852
20
-138.052
11
104.015
21
-138.161
0
LINE
8
BLACK
6
CONTINUOUS
10
104.015
20
-138.161
11
104.155
21
-138.301
0
LINE
8
BLACK
6
CONTINUOUS
10
104.155
20
-138.301
11
104.264
21
-138.464
0
LINE
8
BLACK
6
CONTINUOUS
10
104.264
20
-138.464
11
104.34
21
-138.646
0
LINE
8
BLACK
6
CONTINUOUS
10
104.34
20
-138.646
11
104.378
21
-138.84
0
LINE
8
BLACK
6
CONTINUOUS
10
104.378
20
-138.84
11
104.378
21
-139.036
0
LINE
8
BLACK
6
CONTINUOUS
10
104.378
20
-139.036
11
104.34
21
-139.23
0
LINE
8
BLACK
6
CONTINUOUS
10
104.34
20
-139.23
11
104.264
21
-139.412
0
LINE
8
BLACK
6
CONTINUOUS
10
104.264
20
-139.412
11
104.155
21
-139.575
0
LINE
8
BLACK
6
CONTINUOUS
10
104.155
20
-139.575
11
104.015
21
-139.715
0
LINE
8
BLACK
6
CONTINUOUS
10
104.015
20
-139.715
11
103.878
21
-139.807
0
LINE
8
BLACK
6
CONTINUOUS
10
103.878
20
-139.807
11
103.878
21
-147.213
0
LINE
8
BLACK
6
CONTINUOUS
10
103.878
20
-147.213
11
104.015
21
-147.305
0
LINE
8
BLACK
6
CONTINUOUS
10
104.015
20
-147.305
11
104.155
21
-147.445
0
LINE
8
BLACK
6
CONTINUOUS
10
104.155
20
-147.445
11
104.264
21
-147.608
0
LINE
8
BLACK
6
CONTINUOUS
10
104.264
20
-147.608
11
104.34
21
-147.79
0
LINE
8
BLACK
6
CONTINUOUS
10
104.34
20
-147.79
11
104.378
21
-147.984
0
LINE
8
BLACK
6
CONTINUOUS
10
104.378
20
-147.984
11
104.378
21
-148.18
0
LINE
8
BLACK
6
CONTINUOUS
10
104.378
20
-148.18
11
104.34
21
-148.374
0
LINE
8
BLACK
6
CONTINUOUS
10
104.34
20
-148.374
11
104.264
21
-148.556
0
LINE
8
BLACK
6
CONTINUOUS
10
104.264
20
-148.556
11
104.155
21
-148.719
0
LINE
8
BLACK
6
CONTINUOUS
10
104.155
20
-148.719
11
104.015
21
-148.859
0
LINE
8
BLACK
6
CONTINUOUS
10
104.015
20
-148.859
11
103.852
21
-148.968
0
LINE
8
BLACK
6
CONTINUOUS
10
103.852
20
-148.968
11
103.67
21
-149.044
0
LINE
8
BLACK
6
CONTINUOUS
10
103.67
20
-149.044
11
103.476
21
-149.082
0
LINE
8
BLACK
6
CONTINUOUS
10
103.476
20
-149.082
11
103.28
21
-149.082
0
LINE
8
BLACK
6
CONTINUOUS
10
103.28
20
-149.082
11
103.086
21
-149.044
0
LINE
8
BLACK
6
CONTINUOUS
10
103.086
20
-149.044
11
102.904
21
-148.968
0
LINE
8
BLACK
6
CONTINUOUS
10
102.904
20
-148.968
11
102.741
21
-148.859
0
LINE
8
BLACK
6
CONTINUOUS
10
102.741
20
-148.859
11
102.601
21
-148.719
0
LINE
8
BLACK
6
CONTINUOUS
10
102.601
20
-148.719
11
102.492
21
-148.556
0
LINE
8
BLACK
6
CONTINUOUS
10
102.492
20
-148.556
11
102.416
21
-148.374
0
LINE
8
BLACK
6
CONTINUOUS
10
102.416
20
-148.374
11
102.378
21
-148.18
0
LINE
8
BLACK
6
CONTINUOUS
10
102.378
20
-148.18
11
102.378
21
-147.984
0
LINE
8
BLACK
6
CONTINUOUS
10
102.378
20
-147.984
11
102.416
21
-147.79
0
LINE
8
BLACK
6
CONTINUOUS
10
102.416
20
-147.79
11
102.492
21
-147.608
0
LINE
8
BLACK
6
CONTINUOUS
10
102.492
20
-147.608
11
102.601
21
-147.445
0
LINE
8
BLACK
6
CONTINUOUS
10
102.601
20
-147.445
11
102.741
21
-147.305
0
LINE
8
BLACK
6
CONTINUOUS
10
102.741
20
-147.305
11
102.878
21
-147.213
0
LINE
8
BLACK
6
CONTINUOUS
10
102.878
20
-147.213
11
102.878
21
-139.807
0
LINE
8
BLACK
6
CONTINUOUS
10
102.878
20
-139.807
11
102.741
21
-139.715
0
LINE
8
BLACK
6
CONTINUOUS
10
102.741
20
-139.715
11
102.601
21
-139.575
0
LINE
8
BLACK
6
CONTINUOUS
10
102.601
20
-139.575
11
102.492
21
-139.412
0
LINE
8
BLACK
6
CONTINUOUS
10
102.492
20
-139.412
11
102.416
21
-139.23
0
LINE
8
BLACK
6
CONTINUOUS
10
102.416
20
-139.23
11
102.378
21
-139.036
0
LINE
8
BLACK
6
CONTINUOUS
10
102.378
20
-139.036
11
102.378
21
-138.84
0
LINE
8
BLACK
6
CONTINUOUS
10
102.378
20
-138.84
11
102.416
21
-138.646
0
LINE
8
BLACK
6
CONTINUOUS
10
102.416
20
-138.646
11
102.492
21
-138.464
0
LINE
8
BLACK
6
CONTINUOUS
10
102.492
20
-138.464
11
102.601
21
-138.301
0
LINE
8
BLACK
6
CONTINUOUS
10
102.601
20
-138.301
11
102.741
21
-138.161
0
LINE
8
BLACK
6
CONTINUOUS
10
102.741
20
-138.161
11
102.904
21
-138.052
0
LINE
8
BLACK
6
CONTINUOUS
10
102.904
20
-138.052
11
103.086
21
-137.976
0
LINE
8
BLACK
6
CONTINUOUS
10
103.086
20
-137.976
11
103.28
21
-137.938
0
LINE
8
BLACK
6
CONTINUOUS
10
103.28
20
-137.938
11
103.476
21
-137.938
0
LINE
8
BLACK
6
CONTINUOUS
10
103.476
20
-137.938
11
103.67
21
-137.976
0
LINE
8
BLACK
6
CONTINUOUS
10
76.538
20
-137.244
11
74.338
21
-137.244
0
LINE
8
BLACK
6
CONTINUOUS
10
74.338
20
-137.244
11
74.338
21
-135.044
0
LINE
8
BLACK
6
CONTINUOUS
10
74.338
20
-135.044
11
76.538
21
-135.044
0
LINE
8
BLACK
6
CONTINUOUS
10
76.538
20
-135.044
11
76.538
21
-137.244
0
LINE
8
BLACK
6
CONTINUOUS
10
109.558
20
-137.244
11
107.358
21
-137.244
0
LINE
8
BLACK
6
CONTINUOUS
10
107.358
20
-137.244
11
107.358
21
-135.044
0
LINE
8
BLACK
6
CONTINUOUS
10
107.358
20
-135.044
11
109.558
21
-135.044
0
LINE
8
BLACK
6
CONTINUOUS
10
109.558
20
-135.044
11
109.558
21
-137.244
0
LINE
8
BLACK
6
CONTINUOUS
10
86.698
20
-137.244
11
84.498
21
-137.244
0
LINE
8
BLACK
6
CONTINUOUS
10
84.498
20
-137.244
11
84.498
21
-135.044
0
LINE
8
BLACK
6
CONTINUOUS
10
84.498
20
-135.044
11
86.698
21
-135.044
0
LINE
8
BLACK
6
CONTINUOUS
10
86.698
20
-135.044
11
86.698
21
-137.244
0
LINE
8
BLACK
6
CONTINUOUS
10
84.158
20
-137.244
11
81.958
21
-137.244
0
LINE
8
BLACK
6
CONTINUOUS
10
81.958
20
-137.244
11
81.958
21
-135.044
0
LINE
8
BLACK
6
CONTINUOUS
10
81.958
20
-135.044
11
84.158
21
-135.044
0
LINE
8
BLACK
6
CONTINUOUS
10
84.158
20
-135.044
11
84.158
21
-137.244
0
LINE
8
BLACK
6
CONTINUOUS
10
81.618
20
-137.244
11
79.418
21
-137.244
0
LINE
8
BLACK
6
CONTINUOUS
10
79.418
20
-137.244
11
79.418
21
-135.044
0
LINE
8
BLACK
6
CONTINUOUS
10
79.418
20
-135.044
11
81.618
21
-135.044
0
LINE
8
BLACK
6
CONTINUOUS
10
81.618
20
-135.044
11
81.618
21
-137.244
0
LINE
8
BLACK
6
CONTINUOUS
10
79.078
20
-137.244
11
76.878
21
-137.244
0
LINE
8
BLACK
6
CONTINUOUS
10
76.878
20
-137.244
11
76.878
21
-135.044
0
LINE
8
BLACK
6
CONTINUOUS
10
76.878
20
-135.044
11
79.078
21
-135.044
0
LINE
8
BLACK
6
CONTINUOUS
10
79.078
20
-135.044
11
79.078
21
-137.244
0
LINE
8
BLACK
6
CONTINUOUS
10
89.238
20
-137.244
11
87.038
21
-137.244
0
LINE
8
BLACK
6
CONTINUOUS
10
87.038
20
-137.244
11
87.038
21
-135.044
0
LINE
8
BLACK
6
CONTINUOUS
10
87.038
20
-135.044
11
89.238
21
-135.044
0
LINE
8
BLACK
6
CONTINUOUS
10
89.238
20
-135.044
11
89.238
21
-137.244
0
LINE
8
BLACK
6
CONTINUOUS
10
73.998
20
-137.244
11
71.798
21
-137.244
0
LINE
8
BLACK
6
CONTINUOUS
10
71.798
20
-137.244
11
71.798
21
-135.044
0
LINE
8
BLACK
6
CONTINUOUS
10
71.798
20
-135.044
11
73.998
21
-135.044
0
LINE
8
BLACK
6
CONTINUOUS
10
73.998
20
-135.044
11
73.998
21
-137.244
0
LINE
8
BLACK
6
CONTINUOUS
10
71.458
20
-137.244
11
69.258
21
-137.244
0
LINE
8
BLACK
6
CONTINUOUS
10
69.258
20
-137.244
11
69.258
21
-135.044
0
LINE
8
BLACK
6
CONTINUOUS
10
69.258
20
-135.044
11
71.458
21
-135.044
0
LINE
8
BLACK
6
CONTINUOUS
10
71.458
20
-135.044
11
71.458
21
-137.244
0
LINE
8
BLACK
6
CONTINUOUS
10
68.918
20
-137.244
11
66.718
21
-137.244
0
LINE
8
BLACK
6
CONTINUOUS
10
66.718
20
-137.244
11
66.718
21
-135.044
0
LINE
8
BLACK
6
CONTINUOUS
10
66.718
20
-135.044
11
68.918
21
-135.044
0
LINE
8
BLACK
6
CONTINUOUS
10
68.918
20
-135.044
11
68.918
21
-137.244
0
LINE
8
BLACK
6
CONTINUOUS
10
66.378
20
-137.244
11
64.178
21
-137.244
0
LINE
8
BLACK
6
CONTINUOUS
10
64.178
20
-137.244
11
64.178
21
-135.044
0
LINE
8
BLACK
6
CONTINUOUS
10
64.178
20
-135.044
11
66.378
21
-135.044
0
LINE
8
BLACK
6
CONTINUOUS
10
66.378
20
-135.044
11
66.378
21
-137.244
0
LINE
8
BLACK
6
CONTINUOUS
10
61.298
20
-137.244
11
59.098
21
-137.244
0
LINE
8
BLACK
6
CONTINUOUS
10
59.098
20
-137.244
11
59.098
21
-135.044
0
LINE
8
BLACK
6
CONTINUOUS
10
59.098
20
-135.044
11
61.298
21
-135.044
0
LINE
8
BLACK
6
CONTINUOUS
10
61.298
20
-135.044
11
61.298
21
-137.244
0
LINE
8
BLACK
6
CONTINUOUS
10
63.838
20
-137.244
11
61.638
21
-137.244
0
LINE
8
BLACK
6
CONTINUOUS
10
61.638
20
-137.244
11
61.638
21
-135.044
0
LINE
8
BLACK
6
CONTINUOUS
10
61.638
20
-135.044
11
63.838
21
-135.044
0
LINE
8
BLACK
6
CONTINUOUS
10
63.838
20
-135.044
11
63.838
21
-137.244
0
LINE
8
BLACK
6
CONTINUOUS
10
107.018
20
-137.244
11
104.818
21
-137.244
0
LINE
8
BLACK
6
CONTINUOUS
10
104.818
20
-137.244
11
104.818
21
-135.044
0
LINE
8
BLACK
6
CONTINUOUS
10
104.818
20
-135.044
11
107.018
21
-135.044
0
LINE
8
BLACK
6
CONTINUOUS
10
107.018
20
-135.044
11
107.018
21
-137.244
0
LINE
8
BLACK
6
CONTINUOUS
10
104.478
20
-137.244
11
102.278
21
-137.244
0
LINE
8
BLACK
6
CONTINUOUS
10
102.278
20
-137.244
11
102.278
21
-135.044
0
LINE
8
BLACK
6
CONTINUOUS
10
102.278
20
-135.044
11
104.478
21
-135.044
0
LINE
8
BLACK
6
CONTINUOUS
10
104.478
20
-135.044
11
104.478
21
-137.244
0
LINE
8
BLACK
6
CONTINUOUS
10
91.778
20
-137.244
11
89.578
21
-137.244
0
LINE
8
BLACK
6
CONTINUOUS
10
89.578
20
-137.244
11
89.578
21
-135.044
0
LINE
8
BLACK
6
CONTINUOUS
10
89.578
20
-135.044
11
91.778
21
-135.044
0
LINE
8
BLACK
6
CONTINUOUS
10
91.778
20
-135.044
11
91.778
21
-137.244
0
LINE
8
BLACK
6
CONTINUOUS
10
101.938
20
-137.244
11
99.738
21
-137.244
0
LINE
8
BLACK
6
CONTINUOUS
10
99.738
20
-137.244
11
99.738
21
-135.044
0
LINE
8
BLACK
6
CONTINUOUS
10
99.738
20
-135.044
11
101.938
21
-135.044
0
LINE
8
BLACK
6
CONTINUOUS
10
101.938
20
-135.044
11
101.938
21
-137.244
0
LINE
8
BLACK
6
CONTINUOUS
10
99.398
20
-137.244
11
97.198
21
-137.244
0
LINE
8
BLACK
6
CONTINUOUS
10
97.198
20
-137.244
11
97.198
21
-135.044
0
LINE
8
BLACK
6
CONTINUOUS
10
97.198
20
-135.044
11
99.398
21
-135.044
0
LINE
8
BLACK
6
CONTINUOUS
10
99.398
20
-135.044
11
99.398
21
-137.244
0
LINE
8
BLACK
6
CONTINUOUS
10
94.318
20
-137.244
11
92.118
21
-137.244
0
LINE
8
BLACK
6
CONTINUOUS
10
92.118
20
-137.244
11
92.118
21
-135.044
0
LINE
8
BLACK
6
CONTINUOUS
10
92.118
20
-135.044
11
94.318
21
-135.044
0
LINE
8
BLACK
6
CONTINUOUS
10
94.318
20
-135.044
11
94.318
21
-137.244
0
LINE
8
BLACK
6
CONTINUOUS
10
96.858
20
-137.244
11
94.658
21
-137.244
0
LINE
8
BLACK
6
CONTINUOUS
10
94.658
20
-137.244
11
94.658
21
-135.044
0
LINE
8
BLACK
6
CONTINUOUS
10
94.658
20
-135.044
11
96.858
21
-135.044
0
LINE
8
BLACK
6
CONTINUOUS
10
96.858
20
-135.044
11
96.858
21
-137.244
0
LINE
8
BLACK
6
CONTINUOUS
10
86.698
20
-134.704
11
84.498
21
-134.704
0
LINE
8
BLACK
6
CONTINUOUS
10
84.498
20
-134.704
11
84.498
21
-132.504
0
LINE
8
BLACK
6
CONTINUOUS
10
84.498
20
-132.504
11
86.698
21
-132.504
0
LINE
8
BLACK
6
CONTINUOUS
10
86.698
20
-132.504
11
86.698
21
-134.704
0
LINE
8
BLACK
6
CONTINUOUS
10
107.018
20
-134.704
11
104.818
21
-134.704
0
LINE
8
BLACK
6
CONTINUOUS
10
104.818
20
-134.704
11
104.818
21
-132.504
0
LINE
8
BLACK
6
CONTINUOUS
10
104.818
20
-132.504
11
107.018
21
-132.504
0
LINE
8
BLACK
6
CONTINUOUS
10
107.018
20
-132.504
11
107.018
21
-134.704
0
LINE
8
BLACK
6
CONTINUOUS
10
89.238
20
-134.704
11
87.038
21
-134.704
0
LINE
8
BLACK
6
CONTINUOUS
10
87.038
20
-134.704
11
87.038
21
-132.504
0
LINE
8
BLACK
6
CONTINUOUS
10
87.038
20
-132.504
11
89.238
21
-132.504
0
LINE
8
BLACK
6
CONTINUOUS
10
89.238
20
-132.504
11
89.238
21
-134.704
0
LINE
8
BLACK
6
CONTINUOUS
10
63.838
20
-134.704
11
61.638
21
-134.704
0
LINE
8
BLACK
6
CONTINUOUS
10
61.638
20
-134.704
11
61.638
21
-132.504
0
LINE
8
BLACK
6
CONTINUOUS
10
61.638
20
-132.504
11
63.838
21
-132.504
0
LINE
8
BLACK
6
CONTINUOUS
10
63.838
20
-132.504
11
63.838
21
-134.704
0
LINE
8
BLACK
6
CONTINUOUS
10
66.378
20
-134.704
11
64.178
21
-134.704
0
LINE
8
BLACK
6
CONTINUOUS
10
64.178
20
-134.704
11
64.178
21
-132.504
0
LINE
8
BLACK
6
CONTINUOUS
10
64.178
20
-132.504
11
66.378
21
-132.504
0
LINE
8
BLACK
6
CONTINUOUS
10
66.378
20
-132.504
11
66.378
21
-134.704
0
LINE
8
BLACK
6
CONTINUOUS
10
91.778
20
-134.704
11
89.578
21
-134.704
0
LINE
8
BLACK
6
CONTINUOUS
10
89.578
20
-134.704
11
89.578
21
-132.504
0
LINE
8
BLACK
6
CONTINUOUS
10
89.578
20
-132.504
11
91.778
21
-132.504
0
LINE
8
BLACK
6
CONTINUOUS
10
91.778
20
-132.504
11
91.778
21
-134.704
0
LINE
8
BLACK
6
CONTINUOUS
10
68.918
20
-134.704
11
66.718
21
-134.704
0
LINE
8
BLACK
6
CONTINUOUS
10
66.718
20
-134.704
11
66.718
21
-132.504
0
LINE
8
BLACK
6
CONTINUOUS
10
66.718
20
-132.504
11
68.918
21
-132.504
0
LINE
8
BLACK
6
CONTINUOUS
10
68.918
20
-132.504
11
68.918
21
-134.704
0
LINE
8
BLACK
6
CONTINUOUS
10
71.458
20
-134.704
11
69.258
21
-134.704
0
LINE
8
BLACK
6
CONTINUOUS
10
69.258
20
-134.704
11
69.258
21
-132.504
0
LINE
8
BLACK
6
CONTINUOUS
10
69.258
20
-132.504
11
71.458
21
-132.504
0
LINE
8
BLACK
6
CONTINUOUS
10
71.458
20
-132.504
11
71.458
21
-134.704
0
LINE
8
BLACK
6
CONTINUOUS
10
94.318
20
-134.704
11
92.118
21
-134.704
0
LINE
8
BLACK
6
CONTINUOUS
10
92.118
20
-134.704
11
92.118
21
-132.504
0
LINE
8
BLACK
6
CONTINUOUS
10
92.118
20
-132.504
11
94.318
21
-132.504
0
LINE
8
BLACK
6
CONTINUOUS
10
94.318
20
-132.504
11
94.318
21
-134.704
0
LINE
8
BLACK
6
CONTINUOUS
10
73.998
20
-134.704
11
71.798
21
-134.704
0
LINE
8
BLACK
6
CONTINUOUS
10
71.798
20
-134.704
11
71.798
21
-132.504
0
LINE
8
BLACK
6
CONTINUOUS
10
71.798
20
-132.504
11
73.998
21
-132.504
0
LINE
8
BLACK
6
CONTINUOUS
10
73.998
20
-132.504
11
73.998
21
-134.704
0
LINE
8
BLACK
6
CONTINUOUS
10
76.538
20
-134.704
11
74.338
21
-134.704
0
LINE
8
BLACK
6
CONTINUOUS
10
74.338
20
-134.704
11
74.338
21
-132.504
0
LINE
8
BLACK
6
CONTINUOUS
10
74.338
20
-132.504
11
76.538
21
-132.504
0
LINE
8
BLACK
6
CONTINUOUS
10
76.538
20
-132.504
11
76.538
21
-134.704
0
LINE
8
BLACK
6
CONTINUOUS
10
96.858
20
-134.704
11
94.658
21
-134.704
0
LINE
8
BLACK
6
CONTINUOUS
10
94.658
20
-134.704
11
94.658
21
-132.504
0
LINE
8
BLACK
6
CONTINUOUS
10
94.658
20
-132.504
11
96.858
21
-132.504
0
LINE
8
BLACK
6
CONTINUOUS
10
96.858
20
-132.504
11
96.858
21
-134.704
0
LINE
8
BLACK
6
CONTINUOUS
10
79.078
20
-134.704
11
76.878
21
-134.704
0
LINE
8
BLACK
6
CONTINUOUS
10
76.878
20
-134.704
11
76.878
21
-132.504
0
LINE
8
BLACK
6
CONTINUOUS
10
76.878
20
-132.504
11
79.078
21
-132.504
0
LINE
8
BLACK
6
CONTINUOUS
10
79.078
20
-132.504
11
79.078
21
-134.704
0
LINE
8
BLACK
6
CONTINUOUS
10
81.618
20
-134.704
11
79.418
21
-134.704
0
LINE
8
BLACK
6
CONTINUOUS
10
79.418
20
-134.704
11
79.418
21
-132.504
0
LINE
8
BLACK
6
CONTINUOUS
10
79.418
20
-132.504
11
81.618
21
-132.504
0
LINE
8
BLACK
6
CONTINUOUS
10
81.618
20
-132.504
11
81.618
21
-134.704
0
LINE
8
BLACK
6
CONTINUOUS
10
99.398
20
-134.704
11
97.198
21
-134.704
0
LINE
8
BLACK
6
CONTINUOUS
10
97.198
20
-134.704
11
97.198
21
-132.504
0
LINE
8
BLACK
6
CONTINUOUS
10
97.198
20
-132.504
11
99.398
21
-132.504
0
LINE
8
BLACK
6
CONTINUOUS
10
99.398
20
-132.504
11
99.398
21
-134.704
0
LINE
8
BLACK
6
CONTINUOUS
10
101.938
20
-134.704
11
99.738
21
-134.704
0
LINE
8
BLACK
6
CONTINUOUS
10
99.738
20
-134.704
11
99.738
21
-132.504
0
LINE
8
BLACK
6
CONTINUOUS
10
99.738
20
-132.504
11
101.938
21
-132.504
0
LINE
8
BLACK
6
CONTINUOUS
10
101.938
20
-132.504
11
101.938
21
-134.704
0
LINE
8
BLACK
6
CONTINUOUS
10
84.158
20
-134.704
11
81.958
21
-134.704
0
LINE
8
BLACK
6
CONTINUOUS
10
81.958
20
-134.704
11
81.958
21
-132.504
0
LINE
8
BLACK
6
CONTINUOUS
10
81.958
20
-132.504
11
84.158
21
-132.504
0
LINE
8
BLACK
6
CONTINUOUS
10
84.158
20
-132.504
11
84.158
21
-134.704
0
LINE
8
BLACK
6
CONTINUOUS
10
104.478
20
-134.704
11
102.278
21
-134.704
0
LINE
8
BLACK
6
CONTINUOUS
10
102.278
20
-134.704
11
102.278
21
-132.504
0
LINE
8
BLACK
6
CONTINUOUS
10
102.278
20
-132.504
11
104.478
21
-132.504
0
LINE
8
BLACK
6
CONTINUOUS
10
104.478
20
-132.504
11
104.478
21
-134.704
0
LINE
8
BLACK
6
CONTINUOUS
10
109.558
20
-134.704
11
107.358
21
-134.704
0
LINE
8
BLACK
6
CONTINUOUS
10
107.358
20
-134.704
11
107.358
21
-132.504
0
LINE
8
BLACK
6
CONTINUOUS
10
107.358
20
-132.504
11
109.558
21
-132.504
0
LINE
8
BLACK
6
CONTINUOUS
10
109.558
20
-132.504
11
109.558
21
-134.704
0
LINE
8
BLACK
6
CONTINUOUS
10
61.298
20
-134.704
11
59.098
21
-134.704
0
LINE
8
BLACK
6
CONTINUOUS
10
59.098
20
-134.704
11
59.098
21
-132.504
0
LINE
8
BLACK
6
CONTINUOUS
10
59.098
20
-132.504
11
61.298
21
-132.504
0
LINE
8
BLACK
6
CONTINUOUS
10
61.298
20
-132.504
11
61.298
21
-134.704
0
LINE
8
BLACK
6
CONTINUOUS
10
55.8448
20
-129.327
11
55.9813
21
-129.383
0
LINE
8
BLACK
6
CONTINUOUS
10
55.9813
20
-129.383
11
56.1041
21
-129.465
0
LINE
8
BLACK
6
CONTINUOUS
10
56.1041
20
-129.465
11
56.2086
21
-129.57
0
LINE
8
BLACK
6
CONTINUOUS
10
56.2086
20
-129.57
11
56.2906
21
-129.693
0
LINE
8
BLACK
6
CONTINUOUS
10
56.2906
20
-129.693
11
56.3472
21
-129.829
0
LINE
8
BLACK
6
CONTINUOUS
10
56.3472
20
-129.829
11
56.376
21
-129.974
0
LINE
8
BLACK
6
CONTINUOUS
10
56.376
20
-129.974
11
56.376
21
-130.091
0
LINE
8
BLACK
6
CONTINUOUS
10
56.376
20
-130.091
11
56.5831
21
-130.298
0
LINE
8
BLACK
6
CONTINUOUS
10
56.5831
20
-130.298
11
60.5109
21
-130.298
0
LINE
8
BLACK
6
CONTINUOUS
10
60.5109
20
-130.298
11
60.718
21
-130.091
0
LINE
8
BLACK
6
CONTINUOUS
10
60.718
20
-130.091
11
60.718
21
-129.974
0
LINE
8
BLACK
6
CONTINUOUS
10
60.718
20
-129.974
11
60.7468
21
-129.829
0
LINE
8
BLACK
6
CONTINUOUS
10
60.7468
20
-129.829
11
60.8034
21
-129.693
0
LINE
8
BLACK
6
CONTINUOUS
10
60.8034
20
-129.693
11
60.8854
21
-129.57
0
LINE
8
BLACK
6
CONTINUOUS
10
60.8854
20
-129.57
11
60.9899
21
-129.465
0
LINE
8
BLACK
6
CONTINUOUS
10
60.9899
20
-129.465
11
61.1127
21
-129.383
0
LINE
8
BLACK
6
CONTINUOUS
10
61.1127
20
-129.383
11
61.2492
21
-129.327
0
LINE
8
BLACK
6
CONTINUOUS
10
61.2492
20
-129.327
11
61.3941
21
-129.298
0
LINE
8
BLACK
6
CONTINUOUS
10
61.3941
20
-129.298
11
61.5419
21
-129.298
0
LINE
8
BLACK
6
CONTINUOUS
10
61.5419
20
-129.298
11
61.6868
21
-129.327
0
LINE
8
BLACK
6
CONTINUOUS
10
61.6868
20
-129.327
11
61.8233
21
-129.383
0
LINE
8
BLACK
6
CONTINUOUS
10
61.8233
20
-129.383
11
61.9461
21
-129.465
0
LINE
8
BLACK
6
CONTINUOUS
10
61.9461
20
-129.465
11
62.0506
21
-129.57
0
LINE
8
BLACK
6
CONTINUOUS
10
62.0506
20
-129.57
11
62.1326
21
-129.693
0
LINE
8
BLACK
6
CONTINUOUS
10
62.1326
20
-129.693
11
62.1892
21
-129.829
0
LINE
8
BLACK
6
CONTINUOUS
10
62.1892
20
-129.829
11
62.218
21
-129.974
0
LINE
8
BLACK
6
CONTINUOUS
10
62.218
20
-129.974
11
62.218
21
-130.122
0
LINE
8
BLACK
6
CONTINUOUS
10
62.218
20
-130.122
11
62.1892
21
-130.267
0
LINE
8
BLACK
6
CONTINUOUS
10
62.1892
20
-130.267
11
62.1326
21
-130.403
0
LINE
8
BLACK
6
CONTINUOUS
10
62.1326
20
-130.403
11
62.0506
21
-130.526
0
LINE
8
BLACK
6
CONTINUOUS
10
62.0506
20
-130.526
11
61.9461
21
-130.631
0
LINE
8
BLACK
6
CONTINUOUS
10
61.9461
20
-130.631
11
61.8233
21
-130.713
0
LINE
8
BLACK
6
CONTINUOUS
10
61.8233
20
-130.713
11
61.6868
21
-130.769
0
LINE
8
BLACK
6
CONTINUOUS
10
61.6868
20
-130.769
11
61.5419
21
-130.798
0
LINE
8
BLACK
6
CONTINUOUS
10
61.5419
20
-130.798
11
61.4251
21
-130.798
0
LINE
8
BLACK
6
CONTINUOUS
10
61.4251
20
-130.798
11
61.0889
21
-131.134
0
LINE
8
BLACK
6
CONTINUOUS
10
61.0889
20
-131.134
11
61.0733
21
-131.153
0
LINE
8
BLACK
6
CONTINUOUS
10
61.0733
20
-131.153
11
60.9971
21
-131.216
0
LINE
8
BLACK
6
CONTINUOUS
10
60.9971
20
-131.216
11
60.9103
21
-131.262
0
LINE
8
BLACK
6
CONTINUOUS
10
60.9103
20
-131.262
11
60.816
21
-131.291
0
LINE
8
BLACK
6
CONTINUOUS
10
60.816
20
-131.291
11
60.7426
21
-131.298
0
LINE
8
BLACK
6
CONTINUOUS
10
60.7426
20
-131.298
11
60.718
21
-131.3
0
LINE
8
BLACK
6
CONTINUOUS
10
60.718
20
-131.3
11
60.6934
21
-131.298
0
LINE
8
BLACK
6
CONTINUOUS
10
60.6934
20
-131.298
11
56.4006
21
-131.298
0
LINE
8
BLACK
6
CONTINUOUS
10
56.4006
20
-131.298
11
56.376
21
-131.3
0
LINE
8
BLACK
6
CONTINUOUS
10
56.376
20
-131.3
11
56.278
21
-131.291
0
LINE
8
BLACK
6
CONTINUOUS
10
56.278
20
-131.291
11
56.1837
21
-131.262
0
LINE
8
BLACK
6
CONTINUOUS
10
56.1837
20
-131.262
11
56.0969
21
-131.216
0
LINE
8
BLACK
6
CONTINUOUS
10
56.0969
20
-131.216
11
56.0207
21
-131.153
0
LINE
8
BLACK
6
CONTINUOUS
10
56.0207
20
-131.153
11
56.0051
21
-131.134
0
LINE
8
BLACK
6
CONTINUOUS
10
56.0051
20
-131.134
11
55.6689
21
-130.798
0
LINE
8
BLACK
6
CONTINUOUS
10
55.6689
20
-130.798
11
55.5521
21
-130.798
0
LINE
8
BLACK
6
CONTINUOUS
10
55.5521
20
-130.798
11
55.4072
21
-130.769
0
LINE
8
BLACK
6
CONTINUOUS
10
55.4072
20
-130.769
11
55.2707
21
-130.713
0
LINE
8
BLACK
6
CONTINUOUS
10
55.2707
20
-130.713
11
55.1479
21
-130.631
0
LINE
8
BLACK
6
CONTINUOUS
10
55.1479
20
-130.631
11
55.0434
21
-130.526
0
LINE
8
BLACK
6
CONTINUOUS
10
55.0434
20
-130.526
11
54.9614
21
-130.403
0
LINE
8
BLACK
6
CONTINUOUS
10
54.9614
20
-130.403
11
54.9048
21
-130.267
0
LINE
8
BLACK
6
CONTINUOUS
10
54.9048
20
-130.267
11
54.876
21
-130.122
0
LINE
8
BLACK
6
CONTINUOUS
10
54.876
20
-130.122
11
54.876
21
-129.974
0
LINE
8
BLACK
6
CONTINUOUS
10
54.876
20
-129.974
11
54.9048
21
-129.829
0
LINE
8
BLACK
6
CONTINUOUS
10
54.9048
20
-129.829
11
54.9614
21
-129.693
0
LINE
8
BLACK
6
CONTINUOUS
10
54.9614
20
-129.693
11
55.0434
21
-129.57
0
LINE
8
BLACK
6
CONTINUOUS
10
55.0434
20
-129.57
11
55.1479
21
-129.465
0
LINE
8
BLACK
6
CONTINUOUS
10
55.1479
20
-129.465
11
55.2707
21
-129.383
0
LINE
8
BLACK
6
CONTINUOUS
10
55.2707
20
-129.383
11
55.4072
21
-129.327
0
LINE
8
BLACK
6
CONTINUOUS
10
55.4072
20
-129.327
11
55.5521
21
-129.298
0
LINE
8
BLACK
6
CONTINUOUS
10
55.5521
20
-129.298
11
55.6999
21
-129.298
0
LINE
8
BLACK
6
CONTINUOUS
10
55.6999
20
-129.298
11
55.8448
21
-129.327
0
LINE
8
BLACK
6
CONTINUOUS
10
59.9088
20
-124.501
11
60.0453
21
-124.557
0
LINE
8
BLACK
6
CONTINUOUS
10
60.0453
20
-124.557
11
60.1681
21
-124.639
0
LINE
8
BLACK
6
CONTINUOUS
10
60.1681
20
-124.639
11
60.2726
21
-124.744
0
LINE
8
BLACK
6
CONTINUOUS
10
60.2726
20
-124.744
11
60.3546
21
-124.867
0
LINE
8
BLACK
6
CONTINUOUS
10
60.3546
20
-124.867
11
60.4112
21
-125.003
0
LINE
8
BLACK
6
CONTINUOUS
10
60.4112
20
-125.003
11
60.44
21
-125.148
0
LINE
8
BLACK
6
CONTINUOUS
10
60.44
20
-125.148
11
60.44
21
-125.296
0
LINE
8
BLACK
6
CONTINUOUS
10
60.44
20
-125.296
11
60.4112
21
-125.441
0
LINE
8
BLACK
6
CONTINUOUS
10
60.4112
20
-125.441
11
60.3546
21
-125.577
0
LINE
8
BLACK
6
CONTINUOUS
10
60.3546
20
-125.577
11
60.2726
21
-125.7
0
LINE
8
BLACK
6
CONTINUOUS
10
60.2726
20
-125.7
11
60.19
21
-125.783
0
LINE
8
BLACK
6
CONTINUOUS
10
60.19
20
-125.783
11
60.19
21
-128.725
0
LINE
8
BLACK
6
CONTINUOUS
10
60.19
20
-128.725
11
60.2726
21
-128.808
0
LINE
8
BLACK
6
CONTINUOUS
10
60.2726
20
-128.808
11
60.3546
21
-128.931
0
LINE
8
BLACK
6
CONTINUOUS
10
60.3546
20
-128.931
11
60.4112
21
-129.067
0
LINE
8
BLACK
6
CONTINUOUS
10
60.4112
20
-129.067
11
60.44
21
-129.212
0
LINE
8
BLACK
6
CONTINUOUS
10
60.44
20
-129.212
11
60.44
21
-129.36
0
LINE
8
BLACK
6
CONTINUOUS
10
60.44
20
-129.36
11
60.4112
21
-129.505
0
LINE
8
BLACK
6
CONTINUOUS
10
60.4112
20
-129.505
11
60.3546
21
-129.641
0
LINE
8
BLACK
6
CONTINUOUS
10
60.3546
20
-129.641
11
60.2726
21
-129.764
0
LINE
8
BLACK
6
CONTINUOUS
10
60.2726
20
-129.764
11
60.1681
21
-129.869
0
LINE
8
BLACK
6
CONTINUOUS
10
60.1681
20
-129.869
11
60.0453
21
-129.951
0
LINE
8
BLACK
6
CONTINUOUS
10
60.0453
20
-129.951
11
59.9088
21
-130.007
0
LINE
8
BLACK
6
CONTINUOUS
10
59.9088
20
-130.007
11
59.7639
21
-130.036
0
LINE
8
BLACK
6
CONTINUOUS
10
59.7639
20
-130.036
11
59.6161
21
-130.036
0
LINE
8
BLACK
6
CONTINUOUS
10
59.6161
20
-130.036
11
59.4712
21
-130.007
0
LINE
8
BLACK
6
CONTINUOUS
10
59.4712
20
-130.007
11
59.3347
21
-129.951
0
LINE
8
BLACK
6
CONTINUOUS
10
59.3347
20
-129.951
11
59.2119
21
-129.869
0
LINE
8
BLACK
6
CONTINUOUS
10
59.2119
20
-129.869
11
59.1074
21
-129.764
0
LINE
8
BLACK
6
CONTINUOUS
10
59.1074
20
-129.764
11
59.0254
21
-129.641
0
LINE
8
BLACK
6
CONTINUOUS
10
59.0254
20
-129.641
11
58.9688
21
-129.505
0
LINE
8
BLACK
6
CONTINUOUS
10
58.9688
20
-129.505
11
58.94
21
-129.36
0
LINE
8
BLACK
6
CONTINUOUS
10
58.94
20
-129.36
11
58.94
21
-129.212
0
LINE
8
BLACK
6
CONTINUOUS
10
58.94
20
-129.212
11
58.9688
21
-129.067
0
LINE
8
BLACK
6
CONTINUOUS
10
58.9688
20
-129.067
11
59.0254
21
-128.931
0
LINE
8
BLACK
6
CONTINUOUS
10
59.0254
20
-128.931
11
59.1074
21
-128.808
0
LINE
8
BLACK
6
CONTINUOUS
10
59.1074
20
-128.808
11
59.19
21
-128.725
0
LINE
8
BLACK
6
CONTINUOUS
10
59.19
20
-128.725
11
59.19
21
-125.783
0
LINE
8
BLACK
6
CONTINUOUS
10
59.19
20
-125.783
11
59.1074
21
-125.7
0
LINE
8
BLACK
6
CONTINUOUS
10
59.1074
20
-125.7
11
59.0254
21
-125.577
0
LINE
8
BLACK
6
CONTINUOUS
10
59.0254
20
-125.577
11
58.9688
21
-125.441
0
LINE
8
BLACK
6
CONTINUOUS
10
58.9688
20
-125.441
11
58.94
21
-125.296
0
LINE
8
BLACK
6
CONTINUOUS
10
58.94
20
-125.296
11
58.94
21
-125.148
0
LINE
8
BLACK
6
CONTINUOUS
10
58.94
20
-125.148
11
58.9688
21
-125.003
0
LINE
8
BLACK
6
CONTINUOUS
10
58.9688
20
-125.003
11
59.0254
21
-124.867
0
LINE
8
BLACK
6
CONTINUOUS
10
59.0254
20
-124.867
11
59.1074
21
-124.744
0
LINE
8
BLACK
6
CONTINUOUS
10
59.1074
20
-124.744
11
59.2119
21
-124.639
0
LINE
8
BLACK
6
CONTINUOUS
10
59.2119
20
-124.639
11
59.3347
21
-124.557
0
LINE
8
BLACK
6
CONTINUOUS
10
59.3347
20
-124.557
11
59.4712
21
-124.501
0
LINE
8
BLACK
6
CONTINUOUS
10
59.4712
20
-124.501
11
59.6161
21
-124.472
0
LINE
8
BLACK
6
CONTINUOUS
10
59.6161
20
-124.472
11
59.7639
21
-124.472
0
LINE
8
BLACK
6
CONTINUOUS
10
59.7639
20
-124.472
11
59.9088
21
-124.501
0
LINE
8
BLACK
6
CONTINUOUS
10
114.13
20
-123.528
11
111.93
21
-123.528
0
LINE
8
BLACK
6
CONTINUOUS
10
111.93
20
-123.528
11
111.93
21
-121.328
0
LINE
8
BLACK
6
CONTINUOUS
10
111.93
20
-121.328
11
114.13
21
-121.328
0
LINE
8
BLACK
6
CONTINUOUS
10
114.13
20
-121.328
11
114.13
21
-123.528
0
LINE
8
BLACK
6
CONTINUOUS
10
60.79
20
-123.528
11
58.59
21
-123.528
0
LINE
8
BLACK
6
CONTINUOUS
10
58.59
20
-123.528
11
58.59
21
-121.328
0
LINE
8
BLACK
6
CONTINUOUS
10
58.59
20
-121.328
11
60.79
21
-121.328
0
LINE
8
BLACK
6
CONTINUOUS
10
60.79
20
-121.328
11
60.79
21
-123.528
0
LINE
8
BLACK
6
CONTINUOUS
10
63.33
20
-123.528
11
61.13
21
-123.528
0
LINE
8
BLACK
6
CONTINUOUS
10
61.13
20
-123.528
11
61.13
21
-121.328
0
LINE
8
BLACK
6
CONTINUOUS
10
61.13
20
-121.328
11
63.33
21
-121.328
0
LINE
8
BLACK
6
CONTINUOUS
10
63.33
20
-121.328
11
63.33
21
-123.528
0
LINE
8
BLACK
6
CONTINUOUS
10
111.59
20
-123.528
11
109.39
21
-123.528
0
LINE
8
BLACK
6
CONTINUOUS
10
109.39
20
-123.528
11
109.39
21
-121.328
0
LINE
8
BLACK
6
CONTINUOUS
10
109.39
20
-121.328
11
111.59
21
-121.328
0
LINE
8
BLACK
6
CONTINUOUS
10
111.59
20
-121.328
11
111.59
21
-123.528
0
LINE
8
BLACK
6
CONTINUOUS
10
111.59
20
-120.988
11
109.39
21
-120.988
0
LINE
8
BLACK
6
CONTINUOUS
10
109.39
20
-120.988
11
109.39
21
-118.788
0
LINE
8
BLACK
6
CONTINUOUS
10
109.39
20
-118.788
11
111.59
21
-118.788
0
LINE
8
BLACK
6
CONTINUOUS
10
111.59
20
-118.788
11
111.59
21
-120.988
0
LINE
8
BLACK
6
CONTINUOUS
10
114.13
20
-120.988
11
111.93
21
-120.988
0
LINE
8
BLACK
6
CONTINUOUS
10
111.93
20
-120.988
11
111.93
21
-118.788
0
LINE
8
BLACK
6
CONTINUOUS
10
111.93
20
-118.788
11
114.13
21
-118.788
0
LINE
8
BLACK
6
CONTINUOUS
10
114.13
20
-118.788
11
114.13
21
-120.988
0
LINE
8
BLACK
6
CONTINUOUS
10
63.33
20
-120.988
11
61.13
21
-120.988
0
LINE
8
BLACK
6
CONTINUOUS
10
61.13
20
-120.988
11
61.13
21
-118.788
0
LINE
8
BLACK
6
CONTINUOUS
10
61.13
20
-118.788
11
63.33
21
-118.788
0
LINE
8
BLACK
6
CONTINUOUS
10
63.33
20
-118.788
11
63.33
21
-120.988
0
LINE
8
BLACK
6
CONTINUOUS
10
60.79
20
-120.988
11
58.59
21
-120.988
0
LINE
8
BLACK
6
CONTINUOUS
10
58.59
20
-120.988
11
58.59
21
-118.788
0
LINE
8
BLACK
6
CONTINUOUS
10
58.59
20
-118.788
11
60.79
21
-118.788
0
LINE
8
BLACK
6
CONTINUOUS
10
60.79
20
-118.788
11
60.79
21
-120.988
0
LINE
8
BLACK
6
CONTINUOUS
10
111.59
20
-118.448
11
109.39
21
-118.448
0
LINE
8
BLACK
6
CONTINUOUS
10
109.39
20
-118.448
11
109.39
21
-116.248
0
LINE
8
BLACK
6
CONTINUOUS
10
109.39
20
-116.248
11
111.59
21
-116.248
0
LINE
8
BLACK
6
CONTINUOUS
10
111.59
20
-116.248
11
111.59
21
-118.448
0
LINE
8
BLACK
6
CONTINUOUS
10
114.13
20
-118.448
11
111.93
21
-118.448
0
LINE
8
BLACK
6
CONTINUOUS
10
111.93
20
-118.448
11
111.93
21
-116.248
0
LINE
8
BLACK
6
CONTINUOUS
10
111.93
20
-116.248
11
114.13
21
-116.248
0
LINE
8
BLACK
6
CONTINUOUS
10
114.13
20
-116.248
11
114.13
21
-118.448
0
LINE
8
BLACK
6
CONTINUOUS
10
63.33
20
-118.448
11
61.13
21
-118.448
0
LINE
8
BLACK
6
CONTINUOUS
10
61.13
20
-118.448
11
61.13
21
-116.248
0
LINE
8
BLACK
6
CONTINUOUS
10
61.13
20
-116.248
11
63.33
21
-116.248
0
LINE
8
BLACK
6
CONTINUOUS
10
63.33
20
-116.248
11
63.33
21
-118.448
0
LINE
8
BLACK
6
CONTINUOUS
10
60.79
20
-118.448
11
58.59
21
-118.448
0
LINE
8
BLACK
6
CONTINUOUS
10
58.59
20
-118.448
11
58.59
21
-116.248
0
LINE
8
BLACK
6
CONTINUOUS
10
58.59
20
-116.248
11
60.79
21
-116.248
0
LINE
8
BLACK
6
CONTINUOUS
10
60.79
20
-116.248
11
60.79
21
-118.448
0
LINE
8
BLACK
6
CONTINUOUS
10
60.79
20
-115.908
11
58.59
21
-115.908
0
LINE
8
BLACK
6
CONTINUOUS
10
58.59
20
-115.908
11
58.59
21
-113.708
0
LINE
8
BLACK
6
CONTINUOUS
10
58.59
20
-113.708
11
60.79
21
-113.708
0
LINE
8
BLACK
6
CONTINUOUS
10
60.79
20
-113.708
11
60.79
21
-115.908
0
LINE
8
BLACK
6
CONTINUOUS
10
63.33
20
-115.908
11
61.13
21
-115.908
0
LINE
8
BLACK
6
CONTINUOUS
10
61.13
20
-115.908
11
61.13
21
-113.708
0
LINE
8
BLACK
6
CONTINUOUS
10
61.13
20
-113.708
11
63.33
21
-113.708
0
LINE
8
BLACK
6
CONTINUOUS
10
63.33
20
-113.708
11
63.33
21
-115.908
0
LINE
8
BLACK
6
CONTINUOUS
10
111.59
20
-115.908
11
109.39
21
-115.908
0
LINE
8
BLACK
6
CONTINUOUS
10
109.39
20
-115.908
11
109.39
21
-113.708
0
LINE
8
BLACK
6
CONTINUOUS
10
109.39
20
-113.708
11
111.59
21
-113.708
0
LINE
8
BLACK
6
CONTINUOUS
10
111.59
20
-113.708
11
111.59
21
-115.908
0
LINE
8
BLACK
6
CONTINUOUS
10
114.13
20
-115.908
11
111.93
21
-115.908
0
LINE
8
BLACK
6
CONTINUOUS
10
111.93
20
-115.908
11
111.93
21
-113.708
0
LINE
8
BLACK
6
CONTINUOUS
10
111.93
20
-113.708
11
114.13
21
-113.708
0
LINE
8
BLACK
6
CONTINUOUS
10
114.13
20
-113.708
11
114.13
21
-115.908
0
LINE
8
BLACK
6
CONTINUOUS
10
60.79
20
-113.368
11
58.59
21
-113.368
0
LINE
8
BLACK
6
CONTINUOUS
10
58.59
20
-113.368
11
58.59
21
-111.168
0
LINE
8
BLACK
6
CONTINUOUS
10
58.59
20
-111.168
11
60.79
21
-111.168
0
LINE
8
BLACK
6
CONTINUOUS
10
60.79
20
-111.168
11
60.79
21
-113.368
0
LINE
8
BLACK
6
CONTINUOUS
10
63.33
20
-113.368
11
61.13
21
-113.368
0
LINE
8
BLACK
6
CONTINUOUS
10
61.13
20
-113.368
11
61.13
21
-111.168
0
LINE
8
BLACK
6
CONTINUOUS
10
61.13
20
-111.168
11
63.33
21
-111.168
0
LINE
8
BLACK
6
CONTINUOUS
10
63.33
20
-111.168
11
63.33
21
-113.368
0
LINE
8
BLACK
6
CONTINUOUS
10
114.13
20
-113.368
11
111.93
21
-113.368
0
LINE
8
BLACK
6
CONTINUOUS
10
111.93
20
-113.368
11
111.93
21
-111.168
0
LINE
8
BLACK
6
CONTINUOUS
10
111.93
20
-111.168
11
114.13
21
-111.168
0
LINE
8
BLACK
6
CONTINUOUS
10
114.13
20
-111.168
11
114.13
21
-113.368
0
LINE
8
BLACK
6
CONTINUOUS
10
111.59
20
-113.368
11
109.39
21
-113.368
0
LINE
8
BLACK
6
CONTINUOUS
10
109.39
20
-113.368
11
109.39
21
-111.168
0
LINE
8
BLACK
6
CONTINUOUS
10
109.39
20
-111.168
11
111.59
21
-111.168
0
LINE
8
BLACK
6
CONTINUOUS
10
111.59
20
-111.168
11
111.59
21
-113.368
0
LINE
8
BLACK
6
CONTINUOUS
10
111.59
20
-110.828
11
109.39
21
-110.828
0
LINE
8
BLACK
6
CONTINUOUS
10
109.39
20
-110.828
11
109.39
21
-108.628
0
LINE
8
BLACK
6
CONTINUOUS
10
109.39
20
-108.628
11
111.59
21
-108.628
0
LINE
8
BLACK
6
CONTINUOUS
10
111.59
20
-108.628
11
111.59
21
-110.828
0
LINE
8
BLACK
6
CONTINUOUS
10
60.79
20
-110.828
11
58.59
21
-110.828
0
LINE
8
BLACK
6
CONTINUOUS
10
58.59
20
-110.828
11
58.59
21
-108.628
0
LINE
8
BLACK
6
CONTINUOUS
10
58.59
20
-108.628
11
60.79
21
-108.628
0
LINE
8
BLACK
6
CONTINUOUS
10
60.79
20
-108.628
11
60.79
21
-110.828
0
LINE
8
BLACK
6
CONTINUOUS
10
63.33
20
-110.828
11
61.13
21
-110.828
0
LINE
8
BLACK
6
CONTINUOUS
10
61.13
20
-110.828
11
61.13
21
-108.628
0
LINE
8
BLACK
6
CONTINUOUS
10
61.13
20
-108.628
11
63.33
21
-108.628
0
LINE
8
BLACK
6
CONTINUOUS
10
63.33
20
-108.628
11
63.33
21
-110.828
0
LINE
8
BLACK
6
CONTINUOUS
10
114.13
20
-110.828
11
111.93
21
-110.828
0
LINE
8
BLACK
6
CONTINUOUS
10
111.93
20
-110.828
11
111.93
21
-108.628
0
LINE
8
BLACK
6
CONTINUOUS
10
111.93
20
-108.628
11
114.13
21
-108.628
0
LINE
8
BLACK
6
CONTINUOUS
10
114.13
20
-108.628
11
114.13
21
-110.828
0
LINE
8
BLACK
6
CONTINUOUS
10
63.33
20
-108.288
11
61.13
21
-108.288
0
LINE
8
BLACK
6
CONTINUOUS
10
61.13
20
-108.288
11
61.13
21
-106.088
0
LINE
8
BLACK
6
CONTINUOUS
10
61.13
20
-106.088
11
63.33
21
-106.088
0
LINE
8
BLACK
6
CONTINUOUS
10
63.33
20
-106.088
11
63.33
21
-108.288
0
LINE
8
BLACK
6
CONTINUOUS
10
60.79
20
-108.288
11
58.59
21
-108.288
0
LINE
8
BLACK
6
CONTINUOUS
10
58.59
20
-108.288
11
58.59
21
-106.088
0
LINE
8
BLACK
6
CONTINUOUS
10
58.59
20
-106.088
11
60.79
21
-106.088
0
LINE
8
BLACK
6
CONTINUOUS
10
60.79
20
-106.088
11
60.79
21
-108.288
0
LINE
8
BLACK
6
CONTINUOUS
10
114.13
20
-108.288
11
111.93
21
-108.288
0
LINE
8
BLACK
6
CONTINUOUS
10
111.93
20
-108.288
11
111.93
21
-106.088
0
LINE
8
BLACK
6
CONTINUOUS
10
111.93
20
-106.088
11
114.13
21
-106.088
0
LINE
8
BLACK
6
CONTINUOUS
10
114.13
20
-106.088
11
114.13
21
-108.288
0
LINE
8
BLACK
6
CONTINUOUS
10
111.59
20
-108.288
11
109.39
21
-108.288
0
LINE
8
BLACK
6
CONTINUOUS
10
109.39
20
-108.288
11
109.39
21
-106.088
0
LINE
8
BLACK
6
CONTINUOUS
10
109.39
20
-106.088
11
111.59
21
-106.088
0
LINE
8
BLACK
6
CONTINUOUS
10
111.59
20
-106.088
11
111.59
21
-108.288
0
LINE
8
BLACK
6
CONTINUOUS
10
63.33
20
-105.748
11
61.13
21
-105.748
0
LINE
8
BLACK
6
CONTINUOUS
10
61.13
20
-105.748
11
61.13
21
-103.548
0
LINE
8
BLACK
6
CONTINUOUS
10
61.13
20
-103.548
11
63.33
21
-103.548
0
LINE
8
BLACK
6
CONTINUOUS
10
63.33
20
-103.548
11
63.33
21
-105.748
0
LINE
8
BLACK
6
CONTINUOUS
10
111.59
20
-105.748
11
109.39
21
-105.748
0
LINE
8
BLACK
6
CONTINUOUS
10
109.39
20
-105.748
11
109.39
21
-103.548
0
LINE
8
BLACK
6
CONTINUOUS
10
109.39
20
-103.548
11
111.59
21
-103.548
0
LINE
8
BLACK
6
CONTINUOUS
10
111.59
20
-103.548
11
111.59
21
-105.748
0
LINE
8
BLACK
6
CONTINUOUS
10
114.13
20
-105.748
11
111.93
21
-105.748
0
LINE
8
BLACK
6
CONTINUOUS
10
111.93
20
-105.748
11
111.93
21
-103.548
0
LINE
8
BLACK
6
CONTINUOUS
10
111.93
20
-103.548
11
114.13
21
-103.548
0
LINE
8
BLACK
6
CONTINUOUS
10
114.13
20
-103.548
11
114.13
21
-105.748
0
LINE
8
BLACK
6
CONTINUOUS
10
60.79
20
-105.748
11
58.59
21
-105.748
0
LINE
8
BLACK
6
CONTINUOUS
10
58.59
20
-105.748
11
58.59
21
-103.548
0
LINE
8
BLACK
6
CONTINUOUS
10
58.59
20
-103.548
11
60.79
21
-103.548
0
LINE
8
BLACK
6
CONTINUOUS
10
60.79
20
-103.548
11
60.79
21
-105.748
0
LINE
8
BLACK
6
CONTINUOUS
10
111.59
20
-103.208
11
109.39
21
-103.208
0
LINE
8
BLACK
6
CONTINUOUS
10
109.39
20
-103.208
11
109.39
21
-101.008
0
LINE
8
BLACK
6
CONTINUOUS
10
109.39
20
-101.008
11
111.59
21
-101.008
0
LINE
8
BLACK
6
CONTINUOUS
10
111.59
20
-101.008
11
111.59
21
-103.208
0
LINE
8
BLACK
6
CONTINUOUS
10
60.79
20
-103.208
11
58.59
21
-103.208
0
LINE
8
BLACK
6
CONTINUOUS
10
58.59
20
-103.208
11
58.59
21
-101.008
0
LINE
8
BLACK
6
CONTINUOUS
10
58.59
20
-101.008
11
60.79
21
-101.008
0
LINE
8
BLACK
6
CONTINUOUS
10
60.79
20
-101.008
11
60.79
21
-103.208
0
LINE
8
BLACK
6
CONTINUOUS
10
63.33
20
-103.208
11
61.13
21
-103.208
0
LINE
8
BLACK
6
CONTINUOUS
10
61.13
20
-103.208
11
61.13
21
-101.008
0
LINE
8
BLACK
6
CONTINUOUS
10
61.13
20
-101.008
11
63.33
21
-101.008
0
LINE
8
BLACK
6
CONTINUOUS
10
63.33
20
-101.008
11
63.33
21
-103.208
0
LINE
8
BLACK
6
CONTINUOUS
10
114.13
20
-103.208
11
111.93
21
-103.208
0
LINE
8
BLACK
6
CONTINUOUS
10
111.93
20
-103.208
11
111.93
21
-101.008
0
LINE
8
BLACK
6
CONTINUOUS
10
111.93
20
-101.008
11
114.13
21
-101.008
0
LINE
8
BLACK
6
CONTINUOUS
10
114.13
20
-101.008
11
114.13
21
-103.208
0
LINE
8
BLACK
6
CONTINUOUS
10
60.79
20
-100.668
11
58.59
21
-100.668
0
LINE
8
BLACK
6
CONTINUOUS
10
58.59
20
-100.668
11
58.59
21
-98.468
0
LINE
8
BLACK
6
CONTINUOUS
10
58.59
20
-98.468
11
60.79
21
-98.468
0
LINE
8
BLACK
6
CONTINUOUS
10
60.79
20
-98.468
11
60.79
21
-100.668
0
LINE
8
BLACK
6
CONTINUOUS
10
111.59
20
-100.668
11
109.39
21
-100.668
0
LINE
8
BLACK
6
CONTINUOUS
10
109.39
20
-100.668
11
109.39
21
-98.468
0
LINE
8
BLACK
6
CONTINUOUS
10
109.39
20
-98.468
11
111.59
21
-98.468
0
LINE
8
BLACK
6
CONTINUOUS
10
111.59
20
-98.468
11
111.59
21
-100.668
0
LINE
8
BLACK
6
CONTINUOUS
10
114.13
20
-100.668
11
111.93
21
-100.668
0
LINE
8
BLACK
6
CONTINUOUS
10
111.93
20
-100.668
11
111.93
21
-98.468
0
LINE
8
BLACK
6
CONTINUOUS
10
111.93
20
-98.468
11
114.13
21
-98.468
0
LINE
8
BLACK
6
CONTINUOUS
10
114.13
20
-98.468
11
114.13
21
-100.668
0
LINE
8
BLACK
6
CONTINUOUS
10
63.33
20
-100.668
11
61.13
21
-100.668
0
LINE
8
BLACK
6
CONTINUOUS
10
61.13
20
-100.668
11
61.13
21
-98.468
0
LINE
8
BLACK
6
CONTINUOUS
10
61.13
20
-98.468
11
63.33
21
-98.468
0
LINE
8
BLACK
6
CONTINUOUS
10
63.33
20
-98.468
11
63.33
21
-100.668
0
LINE
8
BLACK
6
CONTINUOUS
10
63.33
20
-98.128
11
61.13
21
-98.128
0
LINE
8
BLACK
6
CONTINUOUS
10
61.13
20
-98.128
11
61.13
21
-95.928
0
LINE
8
BLACK
6
CONTINUOUS
10
61.13
20
-95.928
11
63.33
21
-95.928
0
LINE
8
BLACK
6
CONTINUOUS
10
63.33
20
-95.928
11
63.33
21
-98.128
0
LINE
8
BLACK
6
CONTINUOUS
10
111.59
20
-98.128
11
109.39
21
-98.128
0
LINE
8
BLACK
6
CONTINUOUS
10
109.39
20
-98.128
11
109.39
21
-95.928
0
LINE
8
BLACK
6
CONTINUOUS
10
109.39
20
-95.928
11
111.59
21
-95.928
0
LINE
8
BLACK
6
CONTINUOUS
10
111.59
20
-95.928
11
111.59
21
-98.128
0
LINE
8
BLACK
6
CONTINUOUS
10
114.13
20
-98.128
11
111.93
21
-98.128
0
LINE
8
BLACK
6
CONTINUOUS
10
111.93
20
-98.128
11
111.93
21
-95.928
0
LINE
8
BLACK
6
CONTINUOUS
10
111.93
20
-95.928
11
114.13
21
-95.928
0
LINE
8
BLACK
6
CONTINUOUS
10
114.13
20
-95.928
11
114.13
21
-98.128
0
LINE
8
BLACK
6
CONTINUOUS
10
60.79
20
-98.128
11
58.59
21
-98.128
0
LINE
8
BLACK
6
CONTINUOUS
10
58.59
20
-98.128
11
58.59
21
-95.928
0
LINE
8
BLACK
6
CONTINUOUS
10
58.59
20
-95.928
11
60.79
21
-95.928
0
LINE
8
BLACK
6
CONTINUOUS
10
60.79
20
-95.928
11
60.79
21
-98.128
0
LINE
8
BLACK
6
CONTINUOUS
10
60.79
20
-95.588
11
58.59
21
-95.588
0
LINE
8
BLACK
6
CONTINUOUS
10
58.59
20
-95.588
11
58.59
21
-93.388
0
LINE
8
BLACK
6
CONTINUOUS
10
58.59
20
-93.388
11
60.79
21
-93.388
0
LINE
8
BLACK
6
CONTINUOUS
10
60.79
20
-93.388
11
60.79
21
-95.588
0
LINE
8
BLACK
6
CONTINUOUS
10
63.33
20
-95.588
11
61.13
21
-95.588
0
LINE
8
BLACK
6
CONTINUOUS
10
61.13
20
-95.588
11
61.13
21
-93.388
0
LINE
8
BLACK
6
CONTINUOUS
10
61.13
20
-93.388
11
63.33
21
-93.388
0
LINE
8
BLACK
6
CONTINUOUS
10
63.33
20
-93.388
11
63.33
21
-95.588
0
LINE
8
BLACK
6
CONTINUOUS
10
114.13
20
-95.588
11
111.93
21
-95.588
0
LINE
8
BLACK
6
CONTINUOUS
10
111.93
20
-95.588
11
111.93
21
-93.388
0
LINE
8
BLACK
6
CONTINUOUS
10
111.93
20
-93.388
11
114.13
21
-93.388
0
LINE
8
BLACK
6
CONTINUOUS
10
114.13
20
-93.388
11
114.13
21
-95.588
0
LINE
8
BLACK
6
CONTINUOUS
10
111.59
20
-95.588
11
109.39
21
-95.588
0
LINE
8
BLACK
6
CONTINUOUS
10
109.39
20
-95.588
11
109.39
21
-93.388
0
LINE
8
BLACK
6
CONTINUOUS
10
109.39
20
-93.388
11
111.59
21
-93.388
0
LINE
8
BLACK
6
CONTINUOUS
10
111.59
20
-93.388
11
111.59
21
-95.588
0
LINE
8
BLACK
6
CONTINUOUS
10
60.79
20
-93.048
11
58.59
21
-93.048
0
LINE
8
BLACK
6
CONTINUOUS
10
58.59
20
-93.048
11
58.59
21
-90.848
0
LINE
8
BLACK
6
CONTINUOUS
10
58.59
20
-90.848
11
60.79
21
-90.848
0
LINE
8
BLACK
6
CONTINUOUS
10
60.79
20
-90.848
11
60.79
21
-93.048
0
LINE
8
BLACK
6
CONTINUOUS
10
63.33
20
-93.048
11
61.13
21
-93.048
0
LINE
8
BLACK
6
CONTINUOUS
10
61.13
20
-93.048
11
61.13
21
-90.848
0
LINE
8
BLACK
6
CONTINUOUS
10
61.13
20
-90.848
11
63.33
21
-90.848
0
LINE
8
BLACK
6
CONTINUOUS
10
63.33
20
-90.848
11
63.33
21
-93.048
0
LINE
8
BLACK
6
CONTINUOUS
10
114.13
20
-93.048
11
111.93
21
-93.048
0
LINE
8
BLACK
6
CONTINUOUS
10
111.93
20
-93.048
11
111.93
21
-90.848
0
LINE
8
BLACK
6
CONTINUOUS
10
111.93
20
-90.848
11
114.13
21
-90.848
0
LINE
8
BLACK
6
CONTINUOUS
10
114.13
20
-90.848
11
114.13
21
-93.048
0
LINE
8
BLACK
6
CONTINUOUS
10
111.59
20
-93.048
11
109.39
21
-93.048
0
LINE
8
BLACK
6
CONTINUOUS
10
109.39
20
-93.048
11
109.39
21
-90.848
0
LINE
8
BLACK
6
CONTINUOUS
10
109.39
20
-90.848
11
111.59
21
-90.848
0
LINE
8
BLACK
6
CONTINUOUS
10
111.59
20
-90.848
11
111.59
21
-93.048
0
LINE
8
BLACK
6
CONTINUOUS
10
72.4277
20
-70.4124
11
72.6097
21
-70.4878
0
LINE
8
BLACK
6
CONTINUOUS
10
72.6097
20
-70.4878
11
72.7735
21
-70.5972
0
LINE
8
BLACK
6
CONTINUOUS
10
72.7735
20
-70.5972
11
72.9128
21
-70.7365
0
LINE
8
BLACK
6
CONTINUOUS
10
72.9128
20
-70.7365
11
73.0222
21
-70.9003
0
LINE
8
BLACK
6
CONTINUOUS
10
73.0222
20
-70.9003
11
73.0976
21
-71.0823
0
LINE
8
BLACK
6
CONTINUOUS
10
73.0976
20
-71.0823
11
73.136
21
-71.2755
0
LINE
8
BLACK
6
CONTINUOUS
10
73.136
20
-71.2755
11
73.136
21
-71.4725
0
LINE
8
BLACK
6
CONTINUOUS
10
73.136
20
-71.4725
11
73.0976
21
-71.6657
0
LINE
8
BLACK
6
CONTINUOUS
10
73.0976
20
-71.6657
11
73.0222
21
-71.8477
0
LINE
8
BLACK
6
CONTINUOUS
10
73.0222
20
-71.8477
11
72.9128
21
-72.0115
0
LINE
8
BLACK
6
CONTINUOUS
10
72.9128
20
-72.0115
11
72.7735
21
-72.1508
0
LINE
8
BLACK
6
CONTINUOUS
10
72.7735
20
-72.1508
11
72.6097
21
-72.2602
0
LINE
8
BLACK
6
CONTINUOUS
10
72.6097
20
-72.2602
11
72.4277
21
-72.3356
0
LINE
8
BLACK
6
CONTINUOUS
10
72.4277
20
-72.3356
11
72.2345
21
-72.374
0
LINE
8
BLACK
6
CONTINUOUS
10
72.2345
20
-72.374
11
72.0375
21
-72.374
0
LINE
8
BLACK
6
CONTINUOUS
10
72.0375
20
-72.374
11
71.8754
21
-72.3417
0
LINE
8
BLACK
6
CONTINUOUS
10
71.8754
20
-72.3417
11
71.636
21
-72.5811
0
LINE
8
BLACK
6
CONTINUOUS
10
71.636
20
-72.5811
11
71.636
21
-88.9629
0
LINE
8
BLACK
6
CONTINUOUS
10
71.636
20
-88.9629
11
71.8754
21
-89.2023
0
LINE
8
BLACK
6
CONTINUOUS
10
71.8754
20
-89.2023
11
72.0375
21
-89.17
0
LINE
8
BLACK
6
CONTINUOUS
10
72.0375
20
-89.17
11
72.2345
21
-89.17
0
LINE
8
BLACK
6
CONTINUOUS
10
72.2345
20
-89.17
11
72.4277
21
-89.2084
0
LINE
8
BLACK
6
CONTINUOUS
10
72.4277
20
-89.2084
11
72.6097
21
-89.2838
0
LINE
8
BLACK
6
CONTINUOUS
10
72.6097
20
-89.2838
11
72.7735
21
-89.3932
0
LINE
8
BLACK
6
CONTINUOUS
10
72.7735
20
-89.3932
11
72.9128
21
-89.5325
0
LINE
8
BLACK
6
CONTINUOUS
10
72.9128
20
-89.5325
11
73.0222
21
-89.6963
0
LINE
8
BLACK
6
CONTINUOUS
10
73.0222
20
-89.6963
11
73.0976
21
-89.8783
0
LINE
8
BLACK
6
CONTINUOUS
10
73.0976
20
-89.8783
11
73.136
21
-90.0715
0
LINE
8
BLACK
6
CONTINUOUS
10
73.136
20
-90.0715
11
73.136
21
-90.2685
0
LINE
8
BLACK
6
CONTINUOUS
10
73.136
20
-90.2685
11
73.0976
21
-90.4617
0
LINE
8
BLACK
6
CONTINUOUS
10
73.0976
20
-90.4617
11
73.0222
21
-90.6437
0
LINE
8
BLACK
6
CONTINUOUS
10
73.0222
20
-90.6437
11
72.9128
21
-90.8075
0
LINE
8
BLACK
6
CONTINUOUS
10
72.9128
20
-90.8075
11
72.7735
21
-90.9468
0
LINE
8
BLACK
6
CONTINUOUS
10
72.7735
20
-90.9468
11
72.6097
21
-91.0562
0
LINE
8
BLACK
6
CONTINUOUS
10
72.6097
20
-91.0562
11
72.4277
21
-91.1316
0
LINE
8
BLACK
6
CONTINUOUS
10
72.4277
20
-91.1316
11
72.2345
21
-91.17
0
LINE
8
BLACK
6
CONTINUOUS
10
72.2345
20
-91.17
11
72.0375
21
-91.17
0
LINE
8
BLACK
6
CONTINUOUS
10
72.0375
20
-91.17
11
71.8443
21
-91.1316
0
LINE
8
BLACK
6
CONTINUOUS
10
71.8443
20
-91.1316
11
71.6623
21
-91.0562
0
LINE
8
BLACK
6
CONTINUOUS
10
71.6623
20
-91.0562
11
71.4985
21
-90.9468
0
LINE
8
BLACK
6
CONTINUOUS
10
71.4985
20
-90.9468
11
71.3592
21
-90.8075
0
LINE
8
BLACK
6
CONTINUOUS
10
71.3592
20
-90.8075
11
71.2498
21
-90.6437
0
LINE
8
BLACK
6
CONTINUOUS
10
71.2498
20
-90.6437
11
71.1744
21
-90.4617
0
LINE
8
BLACK
6
CONTINUOUS
10
71.1744
20
-90.4617
11
71.136
21
-90.2685
0
LINE
8
BLACK
6
CONTINUOUS
10
71.136
20
-90.2685
11
71.136
21
-90.0715
0
LINE
8
BLACK
6
CONTINUOUS
10
71.136
20
-90.0715
11
71.1683
21
-89.9094
0
LINE
8
BLACK
6
CONTINUOUS
10
71.1683
20
-89.9094
11
70.7998
21
-89.5409
0
LINE
8
BLACK
6
CONTINUOUS
10
70.7998
20
-89.5409
11
70.7807
21
-89.5253
0
LINE
8
BLACK
6
CONTINUOUS
10
70.7807
20
-89.5253
11
70.7183
21
-89.4491
0
LINE
8
BLACK
6
CONTINUOUS
10
70.7183
20
-89.4491
11
70.6718
21
-89.3623
0
LINE
8
BLACK
6
CONTINUOUS
10
70.6718
20
-89.3623
11
70.6432
21
-89.268
0
LINE
8
BLACK
6
CONTINUOUS
10
70.6432
20
-89.268
11
70.6336
21
-89.17
0
LINE
8
BLACK
6
CONTINUOUS
10
70.6336
20
-89.17
11
70.636
21
-89.1454
0
LINE
8
BLACK
6
CONTINUOUS
10
70.636
20
-89.1454
11
70.636
21
-72.3986
0
LINE
8
BLACK
6
CONTINUOUS
10
70.636
20
-72.3986
11
70.6336
21
-72.374
0
LINE
8
BLACK
6
CONTINUOUS
10
70.6336
20
-72.374
11
70.6432
21
-72.276
0
LINE
8
BLACK
6
CONTINUOUS
10
70.6432
20
-72.276
11
70.6519
21
-72.2474
0
LINE
8
BLACK
6
CONTINUOUS
10
70.6519
20
-72.2474
11
70.6718
21
-72.1817
0
LINE
8
BLACK
6
CONTINUOUS
10
70.6718
20
-72.1817
11
70.7183
21
-72.0949
0
LINE
8
BLACK
6
CONTINUOUS
10
70.7183
20
-72.0949
11
70.7807
21
-72.0187
0
LINE
8
BLACK
6
CONTINUOUS
10
70.7807
20
-72.0187
11
70.7998
21
-72.0031
0
LINE
8
BLACK
6
CONTINUOUS
10
70.7998
20
-72.0031
11
71.1683
21
-71.6346
0
LINE
8
BLACK
6
CONTINUOUS
10
71.1683
20
-71.6346
11
71.136
21
-71.4725
0
LINE
8
BLACK
6
CONTINUOUS
10
71.136
20
-71.4725
11
71.136
21
-71.2755
0
LINE
8
BLACK
6
CONTINUOUS
10
71.136
20
-71.2755
11
71.1744
21
-71.0823
0
LINE
8
BLACK
6
CONTINUOUS
10
71.1744
20
-71.0823
11
71.2498
21
-70.9003
0
LINE
8
BLACK
6
CONTINUOUS
10
71.2498
20
-70.9003
11
71.3592
21
-70.7365
0
LINE
8
BLACK
6
CONTINUOUS
10
71.3592
20
-70.7365
11
71.4985
21
-70.5972
0
LINE
8
BLACK
6
CONTINUOUS
10
71.4985
20
-70.5972
11
71.6623
21
-70.4878
0
LINE
8
BLACK
6
CONTINUOUS
10
71.6623
20
-70.4878
11
71.8443
21
-70.4124
0
LINE
8
BLACK
6
CONTINUOUS
10
71.8443
20
-70.4124
11
72.0375
21
-70.374
0
LINE
8
BLACK
6
CONTINUOUS
10
72.0375
20
-70.374
11
72.2345
21
-70.374
0
LINE
8
BLACK
6
CONTINUOUS
10
72.2345
20
-70.374
11
72.4277
21
-70.4124
0
LINE
8
BLACK
6
CONTINUOUS
10
114.13
20
-90.508
11
111.93
21
-90.508
0
LINE
8
BLACK
6
CONTINUOUS
10
111.93
20
-90.508
11
111.93
21
-88.308
0
LINE
8
BLACK
6
CONTINUOUS
10
111.93
20
-88.308
11
114.13
21
-88.308
0
LINE
8
BLACK
6
CONTINUOUS
10
114.13
20
-88.308
11
114.13
21
-90.508
0
LINE
8
BLACK
6
CONTINUOUS
10
60.79
20
-90.508
11
58.59
21
-90.508
0
LINE
8
BLACK
6
CONTINUOUS
10
58.59
20
-90.508
11
58.59
21
-88.308
0
LINE
8
BLACK
6
CONTINUOUS
10
58.59
20
-88.308
11
60.79
21
-88.308
0
LINE
8
BLACK
6
CONTINUOUS
10
60.79
20
-88.308
11
60.79
21
-90.508
0
LINE
8
BLACK
6
CONTINUOUS
10
63.33
20
-90.508
11
61.13
21
-90.508
0
LINE
8
BLACK
6
CONTINUOUS
10
61.13
20
-90.508
11
61.13
21
-88.308
0
LINE
8
BLACK
6
CONTINUOUS
10
61.13
20
-88.308
11
63.33
21
-88.308
0
LINE
8
BLACK
6
CONTINUOUS
10
63.33
20
-88.308
11
63.33
21
-90.508
0
LINE
8
BLACK
6
CONTINUOUS
10
111.59
20
-90.508
11
109.39
21
-90.508
0
LINE
8
BLACK
6
CONTINUOUS
10
109.39
20
-90.508
11
109.39
21
-88.308
0
LINE
8
BLACK
6
CONTINUOUS
10
109.39
20
-88.308
11
111.59
21
-88.308
0
LINE
8
BLACK
6
CONTINUOUS
10
111.59
20
-88.308
11
111.59
21
-90.508
0
LINE
8
BLACK
6
CONTINUOUS
10
63.33
20
-87.968
11
61.13
21
-87.968
0
LINE
8
BLACK
6
CONTINUOUS
10
61.13
20
-87.968
11
61.13
21
-85.768
0
LINE
8
BLACK
6
CONTINUOUS
10
61.13
20
-85.768
11
63.33
21
-85.768
0
LINE
8
BLACK
6
CONTINUOUS
10
63.33
20
-85.768
11
63.33
21
-87.968
0
LINE
8
BLACK
6
CONTINUOUS
10
60.79
20
-87.968
11
58.59
21
-87.968
0
LINE
8
BLACK
6
CONTINUOUS
10
58.59
20
-87.968
11
58.59
21
-85.768
0
LINE
8
BLACK
6
CONTINUOUS
10
58.59
20
-85.768
11
60.79
21
-85.768
0
LINE
8
BLACK
6
CONTINUOUS
10
60.79
20
-85.768
11
60.79
21
-87.968
0
LINE
8
BLACK
6
CONTINUOUS
10
111.59
20
-87.968
11
109.39
21
-87.968
0
LINE
8
BLACK
6
CONTINUOUS
10
109.39
20
-87.968
11
109.39
21
-85.768
0
LINE
8
BLACK
6
CONTINUOUS
10
109.39
20
-85.768
11
111.59
21
-85.768
0
LINE
8
BLACK
6
CONTINUOUS
10
111.59
20
-85.768
11
111.59
21
-87.968
0
LINE
8
BLACK
6
CONTINUOUS
10
114.13
20
-87.968
11
111.93
21
-87.968
0
LINE
8
BLACK
6
CONTINUOUS
10
111.93
20
-87.968
11
111.93
21
-85.768
0
LINE
8
BLACK
6
CONTINUOUS
10
111.93
20
-85.768
11
114.13
21
-85.768
0
LINE
8
BLACK
6
CONTINUOUS
10
114.13
20
-85.768
11
114.13
21
-87.968
0
LINE
8
BLACK
6
CONTINUOUS
10
63.33
20
-85.428
11
61.13
21
-85.428
0
LINE
8
BLACK
6
CONTINUOUS
10
61.13
20
-85.428
11
61.13
21
-83.228
0
LINE
8
BLACK
6
CONTINUOUS
10
61.13
20
-83.228
11
63.33
21
-83.228
0
LINE
8
BLACK
6
CONTINUOUS
10
63.33
20
-83.228
11
63.33
21
-85.428
0
LINE
8
BLACK
6
CONTINUOUS
10
60.79
20
-85.428
11
58.59
21
-85.428
0
LINE
8
BLACK
6
CONTINUOUS
10
58.59
20
-85.428
11
58.59
21
-83.228
0
LINE
8
BLACK
6
CONTINUOUS
10
58.59
20
-83.228
11
60.79
21
-83.228
0
LINE
8
BLACK
6
CONTINUOUS
10
60.79
20
-83.228
11
60.79
21
-85.428
0
LINE
8
BLACK
6
CONTINUOUS
10
111.59
20
-85.428
11
109.39
21
-85.428
0
LINE
8
BLACK
6
CONTINUOUS
10
109.39
20
-85.428
11
109.39
21
-83.228
0
LINE
8
BLACK
6
CONTINUOUS
10
109.39
20
-83.228
11
111.59
21
-83.228
0
LINE
8
BLACK
6
CONTINUOUS
10
111.59
20
-83.228
11
111.59
21
-85.428
0
LINE
8
BLACK
6
CONTINUOUS
10
114.13
20
-85.428
11
111.93
21
-85.428
0
LINE
8
BLACK
6
CONTINUOUS
10
111.93
20
-85.428
11
111.93
21
-83.228
0
LINE
8
BLACK
6
CONTINUOUS
10
111.93
20
-83.228
11
114.13
21
-83.228
0
LINE
8
BLACK
6
CONTINUOUS
10
114.13
20
-83.228
11
114.13
21
-85.428
0
LINE
8
BLACK
6
CONTINUOUS
10
75.2217
20
-65.3324
11
75.4037
21
-65.4078
0
LINE
8
BLACK
6
CONTINUOUS
10
75.4037
20
-65.4078
11
75.5675
21
-65.5172
0
LINE
8
BLACK
6
CONTINUOUS
10
75.5675
20
-65.5172
11
75.7068
21
-65.6565
0
LINE
8
BLACK
6
CONTINUOUS
10
75.7068
20
-65.6565
11
75.8162
21
-65.8203
0
LINE
8
BLACK
6
CONTINUOUS
10
75.8162
20
-65.8203
11
75.8916
21
-66.0023
0
LINE
8
BLACK
6
CONTINUOUS
10
75.8916
20
-66.0023
11
75.93
21
-66.1955
0
LINE
8
BLACK
6
CONTINUOUS
10
75.93
20
-66.1955
11
75.93
21
-66.3925
0
LINE
8
BLACK
6
CONTINUOUS
10
75.93
20
-66.3925
11
75.8916
21
-66.5857
0
LINE
8
BLACK
6
CONTINUOUS
10
75.8916
20
-66.5857
11
75.8162
21
-66.7677
0
LINE
8
BLACK
6
CONTINUOUS
10
75.8162
20
-66.7677
11
75.7068
21
-66.9315
0
LINE
8
BLACK
6
CONTINUOUS
10
75.7068
20
-66.9315
11
75.5675
21
-67.0708
0
LINE
8
BLACK
6
CONTINUOUS
10
75.5675
20
-67.0708
11
75.43
21
-67.1626
0
LINE
8
BLACK
6
CONTINUOUS
10
75.43
20
-67.1626
11
75.43
21
-81.1734
0
LINE
8
BLACK
6
CONTINUOUS
10
75.43
20
-81.1734
11
75.5675
21
-81.2652
0
LINE
8
BLACK
6
CONTINUOUS
10
75.5675
20
-81.2652
11
75.7068
21
-81.4045
0
LINE
8
BLACK
6
CONTINUOUS
10
75.7068
20
-81.4045
11
75.8162
21
-81.5683
0
LINE
8
BLACK
6
CONTINUOUS
10
75.8162
20
-81.5683
11
75.8916
21
-81.7503
0
LINE
8
BLACK
6
CONTINUOUS
10
75.8916
20
-81.7503
11
75.93
21
-81.9435
0
LINE
8
BLACK
6
CONTINUOUS
10
75.93
20
-81.9435
11
75.93
21
-82.1405
0
LINE
8
BLACK
6
CONTINUOUS
10
75.93
20
-82.1405
11
75.8916
21
-82.3337
0
LINE
8
BLACK
6
CONTINUOUS
10
75.8916
20
-82.3337
11
75.8162
21
-82.5157
0
LINE
8
BLACK
6
CONTINUOUS
10
75.8162
20
-82.5157
11
75.7068
21
-82.6795
0
LINE
8
BLACK
6
CONTINUOUS
10
75.7068
20
-82.6795
11
75.5675
21
-82.8188
0
LINE
8
BLACK
6
CONTINUOUS
10
75.5675
20
-82.8188
11
75.4037
21
-82.9282
0
LINE
8
BLACK
6
CONTINUOUS
10
75.4037
20
-82.9282
11
75.2217
21
-83.0036
0
LINE
8
BLACK
6
CONTINUOUS
10
75.2217
20
-83.0036
11
75.0285
21
-83.042
0
LINE
8
BLACK
6
CONTINUOUS
10
75.0285
20
-83.042
11
74.8315
21
-83.042
0
LINE
8
BLACK
6
CONTINUOUS
10
74.8315
20
-83.042
11
74.6383
21
-83.0036
0
LINE
8
BLACK
6
CONTINUOUS
10
74.6383
20
-83.0036
11
74.4563
21
-82.9282
0
LINE
8
BLACK
6
CONTINUOUS
10
74.4563
20
-82.9282
11
74.2925
21
-82.8188
0
LINE
8
BLACK
6
CONTINUOUS
10
74.2925
20
-82.8188
11
74.1532
21
-82.6795
0
LINE
8
BLACK
6
CONTINUOUS
10
74.1532
20
-82.6795
11
74.0438
21
-82.5157
0
LINE
8
BLACK
6
CONTINUOUS
10
74.0438
20
-82.5157
11
73.9684
21
-82.3337
0
LINE
8
BLACK
6
CONTINUOUS
10
73.9684
20
-82.3337
11
73.93
21
-82.1405
0
LINE
8
BLACK
6
CONTINUOUS
10
73.93
20
-82.1405
11
73.93
21
-81.9435
0
LINE
8
BLACK
6
CONTINUOUS
10
73.93
20
-81.9435
11
73.9684
21
-81.7503
0
LINE
8
BLACK
6
CONTINUOUS
10
73.9684
20
-81.7503
11
74.0438
21
-81.5683
0
LINE
8
BLACK
6
CONTINUOUS
10
74.0438
20
-81.5683
11
74.1532
21
-81.4045
0
LINE
8
BLACK
6
CONTINUOUS
10
74.1532
20
-81.4045
11
74.2925
21
-81.2652
0
LINE
8
BLACK
6
CONTINUOUS
10
74.2925
20
-81.2652
11
74.43
21
-81.1734
0
LINE
8
BLACK
6
CONTINUOUS
10
74.43
20
-81.1734
11
74.43
21
-67.1626
0
LINE
8
BLACK
6
CONTINUOUS
10
74.43
20
-67.1626
11
74.2925
21
-67.0708
0
LINE
8
BLACK
6
CONTINUOUS
10
74.2925
20
-67.0708
11
74.1532
21
-66.9315
0
LINE
8
BLACK
6
CONTINUOUS
10
74.1532
20
-66.9315
11
74.0438
21
-66.7677
0
LINE
8
BLACK
6
CONTINUOUS
10
74.0438
20
-66.7677
11
73.9684
21
-66.5857
0
LINE
8
BLACK
6
CONTINUOUS
10
73.9684
20
-66.5857
11
73.93
21
-66.3925
0
LINE
8
BLACK
6
CONTINUOUS
10
73.93
20
-66.3925
11
73.93
21
-66.1955
0
LINE
8
BLACK
6
CONTINUOUS
10
73.93
20
-66.1955
11
73.9684
21
-66.0023
0
LINE
8
BLACK
6
CONTINUOUS
10
73.9684
20
-66.0023
11
74.0438
21
-65.8203
0
LINE
8
BLACK
6
CONTINUOUS
10
74.0438
20
-65.8203
11
74.1532
21
-65.6565
0
LINE
8
BLACK
6
CONTINUOUS
10
74.1532
20
-65.6565
11
74.2925
21
-65.5172
0
LINE
8
BLACK
6
CONTINUOUS
10
74.2925
20
-65.5172
11
74.4563
21
-65.4078
0
LINE
8
BLACK
6
CONTINUOUS
10
74.4563
20
-65.4078
11
74.6383
21
-65.3324
0
LINE
8
BLACK
6
CONTINUOUS
10
74.6383
20
-65.3324
11
74.8315
21
-65.294
0
LINE
8
BLACK
6
CONTINUOUS
10
74.8315
20
-65.294
11
75.0285
21
-65.294
0
LINE
8
BLACK
6
CONTINUOUS
10
75.0285
20
-65.294
11
75.2217
21
-65.3324
0
LINE
8
BLACK
6
CONTINUOUS
10
111.59
20
-82.888
11
109.39
21
-82.888
0
LINE
8
BLACK
6
CONTINUOUS
10
109.39
20
-82.888
11
109.39
21
-80.688
0
LINE
8
BLACK
6
CONTINUOUS
10
109.39
20
-80.688
11
111.59
21
-80.688
0
LINE
8
BLACK
6
CONTINUOUS
10
111.59
20
-80.688
11
111.59
21
-82.888
0
LINE
8
BLACK
6
CONTINUOUS
10
114.13
20
-82.888
11
111.93
21
-82.888
0
LINE
8
BLACK
6
CONTINUOUS
10
111.93
20
-82.888
11
111.93
21
-80.688
0
LINE
8
BLACK
6
CONTINUOUS
10
111.93
20
-80.688
11
114.13
21
-80.688
0
LINE
8
BLACK
6
CONTINUOUS
10
114.13
20
-80.688
11
114.13
21
-82.888
0
LINE
8
BLACK
6
CONTINUOUS
10
63.33
20
-82.888
11
61.13
21
-82.888
0
LINE
8
BLACK
6
CONTINUOUS
10
61.13
20
-82.888
11
61.13
21
-80.688
0
LINE
8
BLACK
6
CONTINUOUS
10
61.13
20
-80.688
11
63.33
21
-80.688
0
LINE
8
BLACK
6
CONTINUOUS
10
63.33
20
-80.688
11
63.33
21
-82.888
0
LINE
8
BLACK
6
CONTINUOUS
10
60.79
20
-82.888
11
58.59
21
-82.888
0
LINE
8
BLACK
6
CONTINUOUS
10
58.59
20
-82.888
11
58.59
21
-80.688
0
LINE
8
BLACK
6
CONTINUOUS
10
58.59
20
-80.688
11
60.79
21
-80.688
0
LINE
8
BLACK
6
CONTINUOUS
10
60.79
20
-80.688
11
60.79
21
-82.888
0
LINE
8
BLACK
6
CONTINUOUS
10
60.79
20
-80.348
11
58.59
21
-80.348
0
LINE
8
BLACK
6
CONTINUOUS
10
58.59
20
-80.348
11
58.59
21
-78.148
0
LINE
8
BLACK
6
CONTINUOUS
10
58.59
20
-78.148
11
60.79
21
-78.148
0
LINE
8
BLACK
6
CONTINUOUS
10
60.79
20
-78.148
11
60.79
21
-80.348
0
LINE
8
BLACK
6
CONTINUOUS
10
63.33
20
-80.348
11
61.13
21
-80.348
0
LINE
8
BLACK
6
CONTINUOUS
10
61.13
20
-80.348
11
61.13
21
-78.148
0
LINE
8
BLACK
6
CONTINUOUS
10
61.13
20
-78.148
11
63.33
21
-78.148
0
LINE
8
BLACK
6
CONTINUOUS
10
63.33
20
-78.148
11
63.33
21
-80.348
0
LINE
8
BLACK
6
CONTINUOUS
10
114.13
20
-80.348
11
111.93
21
-80.348
0
LINE
8
BLACK
6
CONTINUOUS
10
111.93
20
-80.348
11
111.93
21
-78.148
0
LINE
8
BLACK
6
CONTINUOUS
10
111.93
20
-78.148
11
114.13
21
-78.148
0
LINE
8
BLACK
6
CONTINUOUS
10
114.13
20
-78.148
11
114.13
21
-80.348
0
LINE
8
BLACK
6
CONTINUOUS
10
111.59
20
-80.348
11
109.39
21
-80.348
0
LINE
8
BLACK
6
CONTINUOUS
10
109.39
20
-80.348
11
109.39
21
-78.148
0
LINE
8
BLACK
6
CONTINUOUS
10
109.39
20
-78.148
11
111.59
21
-78.148
0
LINE
8
BLACK
6
CONTINUOUS
10
111.59
20
-78.148
11
111.59
21
-80.348
0
LINE
8
BLACK
6
CONTINUOUS
10
60.79
20
-77.808
11
58.59
21
-77.808
0
LINE
8
BLACK
6
CONTINUOUS
10
58.59
20
-77.808
11
58.59
21
-75.608
0
LINE
8
BLACK
6
CONTINUOUS
10
58.59
20
-75.608
11
60.79
21
-75.608
0
LINE
8
BLACK
6
CONTINUOUS
10
60.79
20
-75.608
11
60.79
21
-77.808
0
LINE
8
BLACK
6
CONTINUOUS
10
63.33
20
-77.808
11
61.13
21
-77.808
0
LINE
8
BLACK
6
CONTINUOUS
10
61.13
20
-77.808
11
61.13
21
-75.608
0
LINE
8
BLACK
6
CONTINUOUS
10
61.13
20
-75.608
11
63.33
21
-75.608
0
LINE
8
BLACK
6
CONTINUOUS
10
63.33
20
-75.608
11
63.33
21
-77.808
0
LINE
8
BLACK
6
CONTINUOUS
10
114.13
20
-77.808
11
111.93
21
-77.808
0
LINE
8
BLACK
6
CONTINUOUS
10
111.93
20
-77.808
11
111.93
21
-75.608
0
LINE
8
BLACK
6
CONTINUOUS
10
111.93
20
-75.608
11
114.13
21
-75.608
0
LINE
8
BLACK
6
CONTINUOUS
10
114.13
20
-75.608
11
114.13
21
-77.808
0
LINE
8
BLACK
6
CONTINUOUS
10
111.59
20
-77.808
11
109.39
21
-77.808
0
LINE
8
BLACK
6
CONTINUOUS
10
109.39
20
-77.808
11
109.39
21
-75.608
0
LINE
8
BLACK
6
CONTINUOUS
10
109.39
20
-75.608
11
111.59
21
-75.608
0
LINE
8
BLACK
6
CONTINUOUS
10
111.59
20
-75.608
11
111.59
21
-77.808
0
LINE
8
BLACK
6
CONTINUOUS
10
60.79
20
-75.268
11
58.59
21
-75.268
0
LINE
8
BLACK
6
CONTINUOUS
10
58.59
20
-75.268
11
58.59
21
-73.068
0
LINE
8
BLACK
6
CONTINUOUS
10
58.59
20
-73.068
11
60.79
21
-73.068
0
LINE
8
BLACK
6
CONTINUOUS
10
60.79
20
-73.068
11
60.79
21
-75.268
0
LINE
8
BLACK
6
CONTINUOUS
10
63.33
20
-75.268
11
61.13
21
-75.268
0
LINE
8
BLACK
6
CONTINUOUS
10
61.13
20
-75.268
11
61.13
21
-73.068
0
LINE
8
BLACK
6
CONTINUOUS
10
61.13
20
-73.068
11
63.33
21
-73.068
0
LINE
8
BLACK
6
CONTINUOUS
10
63.33
20
-73.068
11
63.33
21
-75.268
0
LINE
8
BLACK
6
CONTINUOUS
10
114.13
20
-75.268
11
111.93
21
-75.268
0
LINE
8
BLACK
6
CONTINUOUS
10
111.93
20
-75.268
11
111.93
21
-73.068
0
LINE
8
BLACK
6
CONTINUOUS
10
111.93
20
-73.068
11
114.13
21
-73.068
0
LINE
8
BLACK
6
CONTINUOUS
10
114.13
20
-73.068
11
114.13
21
-75.268
0
LINE
8
BLACK
6
CONTINUOUS
10
111.59
20
-75.268
11
109.39
21
-75.268
0
LINE
8
BLACK
6
CONTINUOUS
10
109.39
20
-75.268
11
109.39
21
-73.068
0
LINE
8
BLACK
6
CONTINUOUS
10
109.39
20
-73.068
11
111.59
21
-73.068
0
LINE
8
BLACK
6
CONTINUOUS
10
111.59
20
-73.068
11
111.59
21
-75.268
0
LINE
8
BLACK
6
CONTINUOUS
10
60.79
20
-72.728
11
58.59
21
-72.728
0
LINE
8
BLACK
6
CONTINUOUS
10
58.59
20
-72.728
11
58.59
21
-70.528
0
LINE
8
BLACK
6
CONTINUOUS
10
58.59
20
-70.528
11
60.79
21
-70.528
0
LINE
8
BLACK
6
CONTINUOUS
10
60.79
20
-70.528
11
60.79
21
-72.728
0
LINE
8
BLACK
6
CONTINUOUS
10
111.59
20
-72.728
11
109.39
21
-72.728
0
LINE
8
BLACK
6
CONTINUOUS
10
109.39
20
-72.728
11
109.39
21
-70.528
0
LINE
8
BLACK
6
CONTINUOUS
10
109.39
20
-70.528
11
111.59
21
-70.528
0
LINE
8
BLACK
6
CONTINUOUS
10
111.59
20
-70.528
11
111.59
21
-72.728
0
LINE
8
BLACK
6
CONTINUOUS
10
114.13
20
-72.728
11
111.93
21
-72.728
0
LINE
8
BLACK
6
CONTINUOUS
10
111.93
20
-72.728
11
111.93
21
-70.528
0
LINE
8
BLACK
6
CONTINUOUS
10
111.93
20
-70.528
11
114.13
21
-70.528
0
LINE
8
BLACK
6
CONTINUOUS
10
114.13
20
-70.528
11
114.13
21
-72.728
0
LINE
8
BLACK
6
CONTINUOUS
10
63.33
20
-72.728
11
61.13
21
-72.728
0
LINE
8
BLACK
6
CONTINUOUS
10
61.13
20
-72.728
11
61.13
21
-70.528
0
LINE
8
BLACK
6
CONTINUOUS
10
61.13
20
-70.528
11
63.33
21
-70.528
0
LINE
8
BLACK
6
CONTINUOUS
10
63.33
20
-70.528
11
63.33
21
-72.728
0
LINE
8
BLACK
6
CONTINUOUS
10
103.162
20
-57.4584
11
103.344
21
-57.5338
0
LINE
8
BLACK
6
CONTINUOUS
10
103.344
20
-57.5338
11
103.507
21
-57.6432
0
LINE
8
BLACK
6
CONTINUOUS
10
103.507
20
-57.6432
11
103.647
21
-57.7825
0
LINE
8
BLACK
6
CONTINUOUS
10
103.647
20
-57.7825
11
103.756
21
-57.9463
0
LINE
8
BLACK
6
CONTINUOUS
10
103.756
20
-57.9463
11
103.832
21
-58.1283
0
LINE
8
BLACK
6
CONTINUOUS
10
103.832
20
-58.1283
11
103.87
21
-58.3215
0
LINE
8
BLACK
6
CONTINUOUS
10
103.87
20
-58.3215
11
103.87
21
-58.5185
0
LINE
8
BLACK
6
CONTINUOUS
10
103.87
20
-58.5185
11
103.832
21
-58.7117
0
LINE
8
BLACK
6
CONTINUOUS
10
103.832
20
-58.7117
11
103.756
21
-58.8937
0
LINE
8
BLACK
6
CONTINUOUS
10
103.756
20
-58.8937
11
103.647
21
-59.0575
0
LINE
8
BLACK
6
CONTINUOUS
10
103.647
20
-59.0575
11
103.507
21
-59.1968
0
LINE
8
BLACK
6
CONTINUOUS
10
103.507
20
-59.1968
11
103.37
21
-59.2886
0
LINE
8
BLACK
6
CONTINUOUS
10
103.37
20
-59.2886
11
103.37
21
-70.0795
0
LINE
8
BLACK
6
CONTINUOUS
10
103.37
20
-70.0795
11
103.372
21
-70.104
0
LINE
8
BLACK
6
CONTINUOUS
10
103.372
20
-70.104
11
103.37
21
-70.1286
0
LINE
8
BLACK
6
CONTINUOUS
10
103.37
20
-70.1286
11
103.37
21
-70.1286
0
LINE
8
BLACK
6
CONTINUOUS
10
103.37
20
-70.1286
11
103.363
21
-70.202
0
LINE
8
BLACK
6
CONTINUOUS
10
103.363
20
-70.202
11
103.334
21
-70.2963
0
LINE
8
BLACK
6
CONTINUOUS
10
103.334
20
-70.2963
11
103.323
21
-70.3179
0
LINE
8
BLACK
6
CONTINUOUS
10
103.323
20
-70.3179
11
103.324
21
-70.3203
0
LINE
8
BLACK
6
CONTINUOUS
10
103.324
20
-70.3203
11
103.362
21
-70.5135
0
LINE
8
BLACK
6
CONTINUOUS
10
103.362
20
-70.5135
11
103.362
21
-70.7105
0
LINE
8
BLACK
6
CONTINUOUS
10
103.362
20
-70.7105
11
103.324
21
-70.9037
0
LINE
8
BLACK
6
CONTINUOUS
10
103.324
20
-70.9037
11
103.248
21
-71.0857
0
LINE
8
BLACK
6
CONTINUOUS
10
103.248
20
-71.0857
11
103.139
21
-71.2495
0
LINE
8
BLACK
6
CONTINUOUS
10
103.139
20
-71.2495
11
102.999
21
-71.3888
0
LINE
8
BLACK
6
CONTINUOUS
10
102.999
20
-71.3888
11
102.836
21
-71.4982
0
LINE
8
BLACK
6
CONTINUOUS
10
102.836
20
-71.4982
11
102.654
21
-71.5736
0
LINE
8
BLACK
6
CONTINUOUS
10
102.654
20
-71.5736
11
102.46
21
-71.612
0
LINE
8
BLACK
6
CONTINUOUS
10
102.46
20
-71.612
11
102.264
21
-71.612
0
LINE
8
BLACK
6
CONTINUOUS
10
102.264
20
-71.612
11
102.07
21
-71.5736
0
LINE
8
BLACK
6
CONTINUOUS
10
102.07
20
-71.5736
11
101.888
21
-71.4982
0
LINE
8
BLACK
6
CONTINUOUS
10
101.888
20
-71.4982
11
101.725
21
-71.3888
0
LINE
8
BLACK
6
CONTINUOUS
10
101.725
20
-71.3888
11
101.585
21
-71.2495
0
LINE
8
BLACK
6
CONTINUOUS
10
101.585
20
-71.2495
11
101.476
21
-71.0857
0
LINE
8
BLACK
6
CONTINUOUS
10
101.476
20
-71.0857
11
101.4
21
-70.9037
0
LINE
8
BLACK
6
CONTINUOUS
10
101.4
20
-70.9037
11
101.362
21
-70.7105
0
LINE
8
BLACK
6
CONTINUOUS
10
101.362
20
-70.7105
11
101.362
21
-70.5135
0
LINE
8
BLACK
6
CONTINUOUS
10
101.362
20
-70.5135
11
101.4
21
-70.3203
0
LINE
8
BLACK
6
CONTINUOUS
10
101.4
20
-70.3203
11
101.476
21
-70.1383
0
LINE
8
BLACK
6
CONTINUOUS
10
101.476
20
-70.1383
11
101.585
21
-69.9745
0
LINE
8
BLACK
6
CONTINUOUS
10
101.585
20
-69.9745
11
101.725
21
-69.8352
0
LINE
8
BLACK
6
CONTINUOUS
10
101.725
20
-69.8352
11
101.888
21
-69.7258
0
LINE
8
BLACK
6
CONTINUOUS
10
101.888
20
-69.7258
11
102.07
21
-69.6504
0
LINE
8
BLACK
6
CONTINUOUS
10
102.07
20
-69.6504
11
102.264
21
-69.612
0
LINE
8
BLACK
6
CONTINUOUS
10
102.264
20
-69.612
11
102.37
21
-69.612
0
LINE
8
BLACK
6
CONTINUOUS
10
102.37
20
-69.612
11
102.37
21
-59.2886
0
LINE
8
BLACK
6
CONTINUOUS
10
102.37
20
-59.2886
11
102.233
21
-59.1968
0
LINE
8
BLACK
6
CONTINUOUS
10
102.233
20
-59.1968
11
102.093
21
-59.0575
0
LINE
8
BLACK
6
CONTINUOUS
10
102.093
20
-59.0575
11
101.984
21
-58.8937
0
LINE
8
BLACK
6
CONTINUOUS
10
101.984
20
-58.8937
11
101.908
21
-58.7117
0
LINE
8
BLACK
6
CONTINUOUS
10
101.908
20
-58.7117
11
101.87
21
-58.5185
0
LINE
8
BLACK
6
CONTINUOUS
10
101.87
20
-58.5185
11
101.87
21
-58.3215
0
LINE
8
BLACK
6
CONTINUOUS
10
101.87
20
-58.3215
11
101.908
21
-58.1283
0
LINE
8
BLACK
6
CONTINUOUS
10
101.908
20
-58.1283
11
101.984
21
-57.9463
0
LINE
8
BLACK
6
CONTINUOUS
10
101.984
20
-57.9463
11
102.093
21
-57.7825
0
LINE
8
BLACK
6
CONTINUOUS
10
102.093
20
-57.7825
11
102.233
21
-57.6432
0
LINE
8
BLACK
6
CONTINUOUS
10
102.233
20
-57.6432
11
102.396
21
-57.5338
0
LINE
8
BLACK
6
CONTINUOUS
10
102.396
20
-57.5338
11
102.578
21
-57.4584
0
LINE
8
BLACK
6
CONTINUOUS
10
102.578
20
-57.4584
11
102.772
21
-57.42
0
LINE
8
BLACK
6
CONTINUOUS
10
102.772
20
-57.42
11
102.968
21
-57.42
0
LINE
8
BLACK
6
CONTINUOUS
10
102.968
20
-57.42
11
103.162
21
-57.4584
0
LINE
8
BLACK
6
CONTINUOUS
10
63.33
20
-70.188
11
61.13
21
-70.188
0
LINE
8
BLACK
6
CONTINUOUS
10
61.13
20
-70.188
11
61.13
21
-67.988
0
LINE
8
BLACK
6
CONTINUOUS
10
61.13
20
-67.988
11
63.33
21
-67.988
0
LINE
8
BLACK
6
CONTINUOUS
10
63.33
20
-67.988
11
63.33
21
-70.188
0
LINE
8
BLACK
6
CONTINUOUS
10
111.59
20
-70.188
11
109.39
21
-70.188
0
LINE
8
BLACK
6
CONTINUOUS
10
109.39
20
-70.188
11
109.39
21
-67.988
0
LINE
8
BLACK
6
CONTINUOUS
10
109.39
20
-67.988
11
111.59
21
-67.988
0
LINE
8
BLACK
6
CONTINUOUS
10
111.59
20
-67.988
11
111.59
21
-70.188
0
LINE
8
BLACK
6
CONTINUOUS
10
114.13
20
-70.188
11
111.93
21
-70.188
0
LINE
8
BLACK
6
CONTINUOUS
10
111.93
20
-70.188
11
111.93
21
-67.988
0
LINE
8
BLACK
6
CONTINUOUS
10
111.93
20
-67.988
11
114.13
21
-67.988
0
LINE
8
BLACK
6
CONTINUOUS
10
114.13
20
-67.988
11
114.13
21
-70.188
0
LINE
8
BLACK
6
CONTINUOUS
10
60.79
20
-70.188
11
58.59
21
-70.188
0
LINE
8
BLACK
6
CONTINUOUS
10
58.59
20
-70.188
11
58.59
21
-67.988
0
LINE
8
BLACK
6
CONTINUOUS
10
58.59
20
-67.988
11
60.79
21
-67.988
0
LINE
8
BLACK
6
CONTINUOUS
10
60.79
20
-67.988
11
60.79
21
-70.188
0
LINE
8
BLACK
6
CONTINUOUS
10
67.3477
20
-53.3944
11
67.5297
21
-53.4698
0
LINE
8
BLACK
6
CONTINUOUS
10
67.5297
20
-53.4698
11
67.6935
21
-53.5792
0
LINE
8
BLACK
6
CONTINUOUS
10
67.6935
20
-53.5792
11
67.8328
21
-53.7185
0
LINE
8
BLACK
6
CONTINUOUS
10
67.8328
20
-53.7185
11
67.9422
21
-53.8823
0
LINE
8
BLACK
6
CONTINUOUS
10
67.9422
20
-53.8823
11
68.0176
21
-54.0643
0
LINE
8
BLACK
6
CONTINUOUS
10
68.0176
20
-54.0643
11
68.056
21
-54.2575
0
LINE
8
BLACK
6
CONTINUOUS
10
68.056
20
-54.2575
11
68.056
21
-54.4545
0
LINE
8
BLACK
6
CONTINUOUS
10
68.056
20
-54.4545
11
68.0176
21
-54.6477
0
LINE
8
BLACK
6
CONTINUOUS
10
68.0176
20
-54.6477
11
67.9422
21
-54.8297
0
LINE
8
BLACK
6
CONTINUOUS
10
67.9422
20
-54.8297
11
67.8328
21
-54.9935
0
LINE
8
BLACK
6
CONTINUOUS
10
67.8328
20
-54.9935
11
67.6935
21
-55.1328
0
LINE
8
BLACK
6
CONTINUOUS
10
67.6935
20
-55.1328
11
67.556
21
-55.2246
0
LINE
8
BLACK
6
CONTINUOUS
10
67.556
20
-55.2246
11
67.556
21
-67.7934
0
LINE
8
BLACK
6
CONTINUOUS
10
67.556
20
-67.7934
11
67.5584
21
-67.818
0
LINE
8
BLACK
6
CONTINUOUS
10
67.5584
20
-67.818
11
67.556
21
-67.8426
0
LINE
8
BLACK
6
CONTINUOUS
10
67.556
20
-67.8426
11
67.556
21
-67.8426
0
LINE
8
BLACK
6
CONTINUOUS
10
67.556
20
-67.8426
11
67.5533
21
-67.8701
0
LINE
8
BLACK
6
CONTINUOUS
10
67.5533
20
-67.8701
11
67.5886
21
-67.9553
0
LINE
8
BLACK
6
CONTINUOUS
10
67.5886
20
-67.9553
11
67.627
21
-68.1485
0
LINE
8
BLACK
6
CONTINUOUS
10
67.627
20
-68.1485
11
67.627
21
-68.3455
0
LINE
8
BLACK
6
CONTINUOUS
10
67.627
20
-68.3455
11
67.5886
21
-68.5387
0
LINE
8
BLACK
6
CONTINUOUS
10
67.5886
20
-68.5387
11
67.5132
21
-68.7207
0
LINE
8
BLACK
6
CONTINUOUS
10
67.5132
20
-68.7207
11
67.4038
21
-68.8845
0
LINE
8
BLACK
6
CONTINUOUS
10
67.4038
20
-68.8845
11
67.2645
21
-69.0237
0
LINE
8
BLACK
6
CONTINUOUS
10
67.2645
20
-69.0237
11
67.1007
21
-69.1332
0
LINE
8
BLACK
6
CONTINUOUS
10
67.1007
20
-69.1332
11
66.9187
21
-69.2086
0
LINE
8
BLACK
6
CONTINUOUS
10
66.9187
20
-69.2086
11
66.7255
21
-69.247
0
LINE
8
BLACK
6
CONTINUOUS
10
66.7255
20
-69.247
11
66.5285
21
-69.247
0
LINE
8
BLACK
6
CONTINUOUS
10
66.5285
20
-69.247
11
66.3353
21
-69.2086
0
LINE
8
BLACK
6
CONTINUOUS
10
66.3353
20
-69.2086
11
66.1533
21
-69.1332
0
LINE
8
BLACK
6
CONTINUOUS
10
66.1533
20
-69.1332
11
65.9895
21
-69.0237
0
LINE
8
BLACK
6
CONTINUOUS
10
65.9895
20
-69.0237
11
65.8503
21
-68.8845
0
LINE
8
BLACK
6
CONTINUOUS
10
65.8503
20
-68.8845
11
65.7408
21
-68.7207
0
LINE
8
BLACK
6
CONTINUOUS
10
65.7408
20
-68.7207
11
65.6654
21
-68.5387
0
LINE
8
BLACK
6
CONTINUOUS
10
65.6654
20
-68.5387
11
65.627
21
-68.3455
0
LINE
8
BLACK
6
CONTINUOUS
10
65.627
20
-68.3455
11
65.627
21
-68.1485
0
LINE
8
BLACK
6
CONTINUOUS
10
65.627
20
-68.1485
11
65.6654
21
-67.9553
0
LINE
8
BLACK
6
CONTINUOUS
10
65.6654
20
-67.9553
11
65.7408
21
-67.7733
0
LINE
8
BLACK
6
CONTINUOUS
10
65.7408
20
-67.7733
11
65.8503
21
-67.6095
0
LINE
8
BLACK
6
CONTINUOUS
10
65.8503
20
-67.6095
11
65.9895
21
-67.4702
0
LINE
8
BLACK
6
CONTINUOUS
10
65.9895
20
-67.4702
11
66.1533
21
-67.3608
0
LINE
8
BLACK
6
CONTINUOUS
10
66.1533
20
-67.3608
11
66.3353
21
-67.2854
0
LINE
8
BLACK
6
CONTINUOUS
10
66.3353
20
-67.2854
11
66.5285
21
-67.247
0
LINE
8
BLACK
6
CONTINUOUS
10
66.5285
20
-67.247
11
66.556
21
-67.247
0
LINE
8
BLACK
6
CONTINUOUS
10
66.556
20
-67.247
11
66.556
21
-55.2246
0
LINE
8
BLACK
6
CONTINUOUS
10
66.556
20
-55.2246
11
66.4185
21
-55.1328
0
LINE
8
BLACK
6
CONTINUOUS
10
66.4185
20
-55.1328
11
66.2792
21
-54.9935
0
LINE
8
BLACK
6
CONTINUOUS
10
66.2792
20
-54.9935
11
66.1698
21
-54.8297
0
LINE
8
BLACK
6
CONTINUOUS
10
66.1698
20
-54.8297
11
66.0944
21
-54.6477
0
LINE
8
BLACK
6
CONTINUOUS
10
66.0944
20
-54.6477
11
66.056
21
-54.4545
0
LINE
8
BLACK
6
CONTINUOUS
10
66.056
20
-54.4545
11
66.056
21
-54.2575
0
LINE
8
BLACK
6
CONTINUOUS
10
66.056
20
-54.2575
11
66.0944
21
-54.0643
0
LINE
8
BLACK
6
CONTINUOUS
10
66.0944
20
-54.0643
11
66.1698
21
-53.8823
0
LINE
8
BLACK
6
CONTINUOUS
10
66.1698
20
-53.8823
11
66.2792
21
-53.7185
0
LINE
8
BLACK
6
CONTINUOUS
10
66.2792
20
-53.7185
11
66.4185
21
-53.5792
0
LINE
8
BLACK
6
CONTINUOUS
10
66.4185
20
-53.5792
11
66.5823
21
-53.4698
0
LINE
8
BLACK
6
CONTINUOUS
10
66.5823
20
-53.4698
11
66.7643
21
-53.3944
0
LINE
8
BLACK
6
CONTINUOUS
10
66.7643
20
-53.3944
11
66.9575
21
-53.356
0
LINE
8
BLACK
6
CONTINUOUS
10
66.9575
20
-53.356
11
67.1545
21
-53.356
0
LINE
8
BLACK
6
CONTINUOUS
10
67.1545
20
-53.356
11
67.3477
21
-53.3944
0
LINE
8
BLACK
6
CONTINUOUS
10
114.13
20
-67.648
11
111.93
21
-67.648
0
LINE
8
BLACK
6
CONTINUOUS
10
111.93
20
-67.648
11
111.93
21
-65.448
0
LINE
8
BLACK
6
CONTINUOUS
10
111.93
20
-65.448
11
114.13
21
-65.448
0
LINE
8
BLACK
6
CONTINUOUS
10
114.13
20
-65.448
11
114.13
21
-67.648
0
LINE
8
BLACK
6
CONTINUOUS
10
111.59
20
-67.648
11
109.39
21
-67.648
0
LINE
8
BLACK
6
CONTINUOUS
10
109.39
20
-67.648
11
109.39
21
-65.448
0
LINE
8
BLACK
6
CONTINUOUS
10
109.39
20
-65.448
11
111.59
21
-65.448
0
LINE
8
BLACK
6
CONTINUOUS
10
111.59
20
-65.448
11
111.59
21
-67.648
0
LINE
8
BLACK
6
CONTINUOUS
10
60.79
20
-67.648
11
58.59
21
-67.648
0
LINE
8
BLACK
6
CONTINUOUS
10
58.59
20
-67.648
11
58.59
21
-65.448
0
LINE
8
BLACK
6
CONTINUOUS
10
58.59
20
-65.448
11
60.79
21
-65.448
0
LINE
8
BLACK
6
CONTINUOUS
10
60.79
20
-65.448
11
60.79
21
-67.648
0
LINE
8
BLACK
6
CONTINUOUS
10
63.33
20
-67.648
11
61.13
21
-67.648
0
LINE
8
BLACK
6
CONTINUOUS
10
61.13
20
-67.648
11
61.13
21
-65.448
0
LINE
8
BLACK
6
CONTINUOUS
10
61.13
20
-65.448
11
63.33
21
-65.448
0
LINE
8
BLACK
6
CONTINUOUS
10
63.33
20
-65.448
11
63.33
21
-67.648
0
LINE
8
BLACK
6
CONTINUOUS
10
63.33
20
-65.108
11
61.13
21
-65.108
0
LINE
8
BLACK
6
CONTINUOUS
10
61.13
20
-65.108
11
61.13
21
-62.908
0
LINE
8
BLACK
6
CONTINUOUS
10
61.13
20
-62.908
11
63.33
21
-62.908
0
LINE
8
BLACK
6
CONTINUOUS
10
63.33
20
-62.908
11
63.33
21
-65.108
0
LINE
8
BLACK
6
CONTINUOUS
10
60.79
20
-65.108
11
58.59
21
-65.108
0
LINE
8
BLACK
6
CONTINUOUS
10
58.59
20
-65.108
11
58.59
21
-62.908
0
LINE
8
BLACK
6
CONTINUOUS
10
58.59
20
-62.908
11
60.79
21
-62.908
0
LINE
8
BLACK
6
CONTINUOUS
10
60.79
20
-62.908
11
60.79
21
-65.108
0
LINE
8
BLACK
6
CONTINUOUS
10
114.13
20
-65.108
11
111.93
21
-65.108
0
LINE
8
BLACK
6
CONTINUOUS
10
111.93
20
-65.108
11
111.93
21
-62.908
0
LINE
8
BLACK
6
CONTINUOUS
10
111.93
20
-62.908
11
114.13
21
-62.908
0
LINE
8
BLACK
6
CONTINUOUS
10
114.13
20
-62.908
11
114.13
21
-65.108
0
LINE
8
BLACK
6
CONTINUOUS
10
111.59
20
-65.108
11
109.39
21
-65.108
0
LINE
8
BLACK
6
CONTINUOUS
10
109.39
20
-65.108
11
109.39
21
-62.908
0
LINE
8
BLACK
6
CONTINUOUS
10
109.39
20
-62.908
11
111.59
21
-62.908
0
LINE
8
BLACK
6
CONTINUOUS
10
111.59
20
-62.908
11
111.59
21
-65.108
0
LINE
8
BLACK
6
CONTINUOUS
10
56.9337
20
-53.9024
11
57.1157
21
-53.9778
0
LINE
8
BLACK
6
CONTINUOUS
10
57.1157
20
-53.9778
11
57.2795
21
-54.0872
0
LINE
8
BLACK
6
CONTINUOUS
10
57.2795
20
-54.0872
11
57.4188
21
-54.2265
0
LINE
8
BLACK
6
CONTINUOUS
10
57.4188
20
-54.2265
11
57.5282
21
-54.3903
0
LINE
8
BLACK
6
CONTINUOUS
10
57.5282
20
-54.3903
11
57.6036
21
-54.5723
0
LINE
8
BLACK
6
CONTINUOUS
10
57.6036
20
-54.5723
11
57.642
21
-54.7655
0
LINE
8
BLACK
6
CONTINUOUS
10
57.642
20
-54.7655
11
57.642
21
-54.9625
0
LINE
8
BLACK
6
CONTINUOUS
10
57.642
20
-54.9625
11
57.6036
21
-55.1557
0
LINE
8
BLACK
6
CONTINUOUS
10
57.6036
20
-55.1557
11
57.5282
21
-55.3377
0
LINE
8
BLACK
6
CONTINUOUS
10
57.5282
20
-55.3377
11
57.4188
21
-55.5015
0
LINE
8
BLACK
6
CONTINUOUS
10
57.4188
20
-55.5015
11
57.2795
21
-55.6408
0
LINE
8
BLACK
6
CONTINUOUS
10
57.2795
20
-55.6408
11
57.142
21
-55.7326
0
LINE
8
BLACK
6
CONTINUOUS
10
57.142
20
-55.7326
11
57.142
21
-63.3478
0
LINE
8
BLACK
6
CONTINUOUS
10
57.142
20
-63.3478
11
57.1648
21
-63.3705
0
LINE
8
BLACK
6
CONTINUOUS
10
57.1648
20
-63.3705
11
57.2742
21
-63.5343
0
LINE
8
BLACK
6
CONTINUOUS
10
57.2742
20
-63.5343
11
57.3496
21
-63.7163
0
LINE
8
BLACK
6
CONTINUOUS
10
57.3496
20
-63.7163
11
57.388
21
-63.9095
0
LINE
8
BLACK
6
CONTINUOUS
10
57.388
20
-63.9095
11
57.388
21
-64.1065
0
LINE
8
BLACK
6
CONTINUOUS
10
57.388
20
-64.1065
11
57.3496
21
-64.2997
0
LINE
8
BLACK
6
CONTINUOUS
10
57.3496
20
-64.2997
11
57.2742
21
-64.4817
0
LINE
8
BLACK
6
CONTINUOUS
10
57.2742
20
-64.4817
11
57.1648
21
-64.6455
0
LINE
8
BLACK
6
CONTINUOUS
10
57.1648
20
-64.6455
11
57.0255
21
-64.7848
0
LINE
8
BLACK
6
CONTINUOUS
10
57.0255
20
-64.7848
11
56.8617
21
-64.8942
0
LINE
8
BLACK
6
CONTINUOUS
10
56.8617
20
-64.8942
11
56.6797
21
-64.9696
0
LINE
8
BLACK
6
CONTINUOUS
10
56.6797
20
-64.9696
11
56.4865
21
-65.008
0
LINE
8
BLACK
6
CONTINUOUS
10
56.4865
20
-65.008
11
56.2895
21
-65.008
0
LINE
8
BLACK
6
CONTINUOUS
10
56.2895
20
-65.008
11
56.0963
21
-64.9696
0
LINE
8
BLACK
6
CONTINUOUS
10
56.0963
20
-64.9696
11
55.9143
21
-64.8942
0
LINE
8
BLACK
6
CONTINUOUS
10
55.9143
20
-64.8942
11
55.7505
21
-64.7848
0
LINE
8
BLACK
6
CONTINUOUS
10
55.7505
20
-64.7848
11
55.6112
21
-64.6455
0
LINE
8
BLACK
6
CONTINUOUS
10
55.6112
20
-64.6455
11
55.5018
21
-64.4817
0
LINE
8
BLACK
6
CONTINUOUS
10
55.5018
20
-64.4817
11
55.4264
21
-64.2997
0
LINE
8
BLACK
6
CONTINUOUS
10
55.4264
20
-64.2997
11
55.388
21
-64.1065
0
LINE
8
BLACK
6
CONTINUOUS
10
55.388
20
-64.1065
11
55.388
21
-63.9095
0
LINE
8
BLACK
6
CONTINUOUS
10
55.388
20
-63.9095
11
55.4264
21
-63.7163
0
LINE
8
BLACK
6
CONTINUOUS
10
55.4264
20
-63.7163
11
55.5018
21
-63.5343
0
LINE
8
BLACK
6
CONTINUOUS
10
55.5018
20
-63.5343
11
55.6112
21
-63.3705
0
LINE
8
BLACK
6
CONTINUOUS
10
55.6112
20
-63.3705
11
55.7505
21
-63.2312
0
LINE
8
BLACK
6
CONTINUOUS
10
55.7505
20
-63.2312
11
55.9143
21
-63.1218
0
LINE
8
BLACK
6
CONTINUOUS
10
55.9143
20
-63.1218
11
56.0963
21
-63.0464
0
LINE
8
BLACK
6
CONTINUOUS
10
56.0963
20
-63.0464
11
56.142
21
-63.0373
0
LINE
8
BLACK
6
CONTINUOUS
10
56.142
20
-63.0373
11
56.142
21
-55.7326
0
LINE
8
BLACK
6
CONTINUOUS
10
56.142
20
-55.7326
11
56.0045
21
-55.6408
0
LINE
8
BLACK
6
CONTINUOUS
10
56.0045
20
-55.6408
11
55.8652
21
-55.5015
0
LINE
8
BLACK
6
CONTINUOUS
10
55.8652
20
-55.5015
11
55.7558
21
-55.3377
0
LINE
8
BLACK
6
CONTINUOUS
10
55.7558
20
-55.3377
11
55.6804
21
-55.1557
0
LINE
8
BLACK
6
CONTINUOUS
10
55.6804
20
-55.1557
11
55.642
21
-54.9625
0
LINE
8
BLACK
6
CONTINUOUS
10
55.642
20
-54.9625
11
55.642
21
-54.7655
0
LINE
8
BLACK
6
CONTINUOUS
10
55.642
20
-54.7655
11
55.6804
21
-54.5723
0
LINE
8
BLACK
6
CONTINUOUS
10
55.6804
20
-54.5723
11
55.7558
21
-54.3903
0
LINE
8
BLACK
6
CONTINUOUS
10
55.7558
20
-54.3903
11
55.8652
21
-54.2265
0
LINE
8
BLACK
6
CONTINUOUS
10
55.8652
20
-54.2265
11
56.0045
21
-54.0872
0
LINE
8
BLACK
6
CONTINUOUS
10
56.0045
20
-54.0872
11
56.1683
21
-53.9778
0
LINE
8
BLACK
6
CONTINUOUS
10
56.1683
20
-53.9778
11
56.3503
21
-53.9024
0
LINE
8
BLACK
6
CONTINUOUS
10
56.3503
20
-53.9024
11
56.5435
21
-53.864
0
LINE
8
BLACK
6
CONTINUOUS
10
56.5435
20
-53.864
11
56.7405
21
-53.864
0
LINE
8
BLACK
6
CONTINUOUS
10
56.7405
20
-53.864
11
56.9337
21
-53.9024
0
LINE
8
BLACK
6
CONTINUOUS
10
111.59
20
-62.568
11
109.39
21
-62.568
0
LINE
8
BLACK
6
CONTINUOUS
10
109.39
20
-62.568
11
109.39
21
-60.368
0
LINE
8
BLACK
6
CONTINUOUS
10
109.39
20
-60.368
11
111.59
21
-60.368
0
LINE
8
BLACK
6
CONTINUOUS
10
111.59
20
-60.368
11
111.59
21
-62.568
0
LINE
8
BLACK
6
CONTINUOUS
10
114.13
20
-62.568
11
111.93
21
-62.568
0
LINE
8
BLACK
6
CONTINUOUS
10
111.93
20
-62.568
11
111.93
21
-60.368
0
LINE
8
BLACK
6
CONTINUOUS
10
111.93
20
-60.368
11
114.13
21
-60.368
0
LINE
8
BLACK
6
CONTINUOUS
10
114.13
20
-60.368
11
114.13
21
-62.568
0
LINE
8
BLACK
6
CONTINUOUS
10
60.79
20
-62.568
11
58.59
21
-62.568
0
LINE
8
BLACK
6
CONTINUOUS
10
58.59
20
-62.568
11
58.59
21
-60.368
0
LINE
8
BLACK
6
CONTINUOUS
10
58.59
20
-60.368
11
60.79
21
-60.368
0
LINE
8
BLACK
6
CONTINUOUS
10
60.79
20
-60.368
11
60.79
21
-62.568
0
LINE
8
BLACK
6
CONTINUOUS
10
63.33
20
-62.568
11
61.13
21
-62.568
0
LINE
8
BLACK
6
CONTINUOUS
10
61.13
20
-62.568
11
61.13
21
-60.368
0
LINE
8
BLACK
6
CONTINUOUS
10
61.13
20
-60.368
11
63.33
21
-60.368
0
LINE
8
BLACK
6
CONTINUOUS
10
63.33
20
-60.368
11
63.33
21
-62.568
0
LINE
8
BLACK
6
CONTINUOUS
10
94.9772
20
-22.4394
11
95.2034
21
-22.508
0
LINE
8
BLACK
6
CONTINUOUS
10
95.2034
20
-22.508
11
95.4119
21
-22.6194
0
LINE
8
BLACK
6
CONTINUOUS
10
95.4119
20
-22.6194
11
95.5946
21
-22.7694
0
LINE
8
BLACK
6
CONTINUOUS
10
95.5946
20
-22.7694
11
95.7446
21
-22.9521
0
LINE
8
BLACK
6
CONTINUOUS
10
95.7446
20
-22.9521
11
95.856
21
-23.1606
0
LINE
8
BLACK
6
CONTINUOUS
10
95.856
20
-23.1606
11
95.9246
21
-23.3868
0
LINE
8
BLACK
6
CONTINUOUS
10
95.9246
20
-23.3868
11
95.9478
21
-23.622
0
LINE
8
BLACK
6
CONTINUOUS
10
95.9478
20
-23.622
11
95.9246
21
-23.8572
0
LINE
8
BLACK
6
CONTINUOUS
10
95.9246
20
-23.8572
11
95.856
21
-24.0834
0
LINE
8
BLACK
6
CONTINUOUS
10
95.856
20
-24.0834
11
95.7446
21
-24.2919
0
LINE
8
BLACK
6
CONTINUOUS
10
95.7446
20
-24.2919
11
95.5946
21
-24.4746
0
LINE
8
BLACK
6
CONTINUOUS
10
95.5946
20
-24.4746
11
95.4119
21
-24.6246
0
LINE
8
BLACK
6
CONTINUOUS
10
95.4119
20
-24.6246
11
95.2034
21
-24.736
0
LINE
8
BLACK
6
CONTINUOUS
10
95.2034
20
-24.736
11
94.9772
21
-24.8046
0
LINE
8
BLACK
6
CONTINUOUS
10
94.9772
20
-24.8046
11
94.801
21
-24.822
0
LINE
8
BLACK
6
CONTINUOUS
10
94.801
20
-24.822
11
94.683
21
-24.822
0
LINE
8
BLACK
6
CONTINUOUS
10
94.683
20
-24.822
11
94.5068
21
-24.8046
0
LINE
8
BLACK
6
CONTINUOUS
10
94.5068
20
-24.8046
11
94.2806
21
-24.736
0
LINE
8
BLACK
6
CONTINUOUS
10
94.2806
20
-24.736
11
94.0721
21
-24.6246
0
LINE
8
BLACK
6
CONTINUOUS
10
94.0721
20
-24.6246
11
93.8894
21
-24.4746
0
LINE
8
BLACK
6
CONTINUOUS
10
93.8894
20
-24.4746
11
93.7394
21
-24.2919
0
LINE
8
BLACK
6
CONTINUOUS
10
93.7394
20
-24.2919
11
93.628
21
-24.0834
0
LINE
8
BLACK
6
CONTINUOUS
10
93.628
20
-24.0834
11
93.5594
21
-23.8572
0
LINE
8
BLACK
6
CONTINUOUS
10
93.5594
20
-23.8572
11
93.5362
21
-23.622
0
LINE
8
BLACK
6
CONTINUOUS
10
93.5362
20
-23.622
11
93.5594
21
-23.3868
0
LINE
8
BLACK
6
CONTINUOUS
10
93.5594
20
-23.3868
11
93.628
21
-23.1606
0
LINE
8
BLACK
6
CONTINUOUS
10
93.628
20
-23.1606
11
93.7394
21
-22.9521
0
LINE
8
BLACK
6
CONTINUOUS
10
93.7394
20
-22.9521
11
93.8894
21
-22.7694
0
LINE
8
BLACK
6
CONTINUOUS
10
93.8894
20
-22.7694
11
94.0721
21
-22.6194
0
LINE
8
BLACK
6
CONTINUOUS
10
94.0721
20
-22.6194
11
94.2806
21
-22.508
0
LINE
8
BLACK
6
CONTINUOUS
10
94.2806
20
-22.508
11
94.5068
21
-22.4394
0
LINE
8
BLACK
6
CONTINUOUS
10
94.5068
20
-22.4394
11
94.683
21
-22.422
0
LINE
8
BLACK
6
CONTINUOUS
10
94.683
20
-22.422
11
94.801
21
-22.422
0
LINE
8
BLACK
6
CONTINUOUS
10
94.801
20
-22.422
11
94.9772
21
-22.4394
0
LINE
8
BLACK
6
CONTINUOUS
10
79.852
20
-22.4681
11
80.0704
21
-22.5586
0
LINE
8
BLACK
6
CONTINUOUS
10
80.0704
20
-22.5586
11
80.267
21
-22.6899
0
LINE
8
BLACK
6
CONTINUOUS
10
80.267
20
-22.6899
11
80.4341
21
-22.857
0
LINE
8
BLACK
6
CONTINUOUS
10
80.4341
20
-22.857
11
80.5654
21
-23.0536
0
LINE
8
BLACK
6
CONTINUOUS
10
80.5654
20
-23.0536
11
80.6559
21
-23.272
0
LINE
8
BLACK
6
CONTINUOUS
10
80.6559
20
-23.272
11
80.702
21
-23.5038
0
LINE
8
BLACK
6
CONTINUOUS
10
80.702
20
-23.5038
11
80.702
21
-23.7402
0
LINE
8
BLACK
6
CONTINUOUS
10
80.702
20
-23.7402
11
80.6559
21
-23.972
0
LINE
8
BLACK
6
CONTINUOUS
10
80.6559
20
-23.972
11
80.5654
21
-24.1904
0
LINE
8
BLACK
6
CONTINUOUS
10
80.5654
20
-24.1904
11
80.4341
21
-24.387
0
LINE
8
BLACK
6
CONTINUOUS
10
80.4341
20
-24.387
11
80.267
21
-24.5541
0
LINE
8
BLACK
6
CONTINUOUS
10
80.267
20
-24.5541
11
80.0704
21
-24.6854
0
LINE
8
BLACK
6
CONTINUOUS
10
80.0704
20
-24.6854
11
79.852
21
-24.7759
0
LINE
8
BLACK
6
CONTINUOUS
10
79.852
20
-24.7759
11
79.6202
21
-24.822
0
LINE
8
BLACK
6
CONTINUOUS
10
79.6202
20
-24.822
11
79.3838
21
-24.822
0
LINE
8
BLACK
6
CONTINUOUS
10
79.3838
20
-24.822
11
79.152
21
-24.7759
0
LINE
8
BLACK
6
CONTINUOUS
10
79.152
20
-24.7759
11
78.9336
21
-24.6854
0
LINE
8
BLACK
6
CONTINUOUS
10
78.9336
20
-24.6854
11
78.737
21
-24.5541
0
LINE
8
BLACK
6
CONTINUOUS
10
78.737
20
-24.5541
11
78.5699
21
-24.387
0
LINE
8
BLACK
6
CONTINUOUS
10
78.5699
20
-24.387
11
78.4386
21
-24.1904
0
LINE
8
BLACK
6
CONTINUOUS
10
78.4386
20
-24.1904
11
78.3481
21
-23.972
0
LINE
8
BLACK
6
CONTINUOUS
10
78.3481
20
-23.972
11
78.302
21
-23.7402
0
LINE
8
BLACK
6
CONTINUOUS
10
78.302
20
-23.7402
11
78.302
21
-23.5038
0
LINE
8
BLACK
6
CONTINUOUS
10
78.302
20
-23.5038
11
78.3481
21
-23.272
0
LINE
8
BLACK
6
CONTINUOUS
10
78.3481
20
-23.272
11
78.4386
21
-23.0536
0
LINE
8
BLACK
6
CONTINUOUS
10
78.4386
20
-23.0536
11
78.5699
21
-22.857
0
LINE
8
BLACK
6
CONTINUOUS
10
78.5699
20
-22.857
11
78.737
21
-22.6899
0
LINE
8
BLACK
6
CONTINUOUS
10
78.737
20
-22.6899
11
78.9336
21
-22.5586
0
LINE
8
BLACK
6
CONTINUOUS
10
78.9336
20
-22.5586
11
79.152
21
-22.4681
0
LINE
8
BLACK
6
CONTINUOUS
10
79.152
20
-22.4681
11
79.3838
21
-22.422
0
LINE
8
BLACK
6
CONTINUOUS
10
79.3838
20
-22.422
11
79.6202
21
-22.422
0
LINE
8
BLACK
6
CONTINUOUS
10
79.6202
20
-22.422
11
79.852
21
-22.4681
0
LINE
8
BLACK
6
CONTINUOUS
10
107.58
20
-24.776
11
105.78
21
-24.776
0
LINE
8
BLACK
6
CONTINUOUS
10
105.78
20
-24.776
11
105.78
21
-22.976
0
LINE
8
BLACK
6
CONTINUOUS
10
105.78
20
-22.976
11
107.58
21
-22.976
0
LINE
8
BLACK
6
CONTINUOUS
10
107.58
20
-22.976
11
107.58
21
-24.776
0
LINE
8
BLACK
6
CONTINUOUS
10
104.403
20
-23.0106
11
104.566
21
-23.0784
0
LINE
8
BLACK
6
CONTINUOUS
10
104.566
20
-23.0784
11
104.714
21
-23.1769
0
LINE
8
BLACK
6
CONTINUOUS
10
104.714
20
-23.1769
11
104.839
21
-23.3023
0
LINE
8
BLACK
6
CONTINUOUS
10
104.839
20
-23.3023
11
104.938
21
-23.4497
0
LINE
8
BLACK
6
CONTINUOUS
10
104.938
20
-23.4497
11
105.005
21
-23.6135
0
LINE
8
BLACK
6
CONTINUOUS
10
105.005
20
-23.6135
11
105.04
21
-23.7874
0
LINE
8
BLACK
6
CONTINUOUS
10
105.04
20
-23.7874
11
105.04
21
-23.9646
0
LINE
8
BLACK
6
CONTINUOUS
10
105.04
20
-23.9646
11
105.005
21
-24.1385
0
LINE
8
BLACK
6
CONTINUOUS
10
105.005
20
-24.1385
11
104.938
21
-24.3023
0
LINE
8
BLACK
6
CONTINUOUS
10
104.938
20
-24.3023
11
104.839
21
-24.4497
0
LINE
8
BLACK
6
CONTINUOUS
10
104.839
20
-24.4497
11
104.714
21
-24.5751
0
LINE
8
BLACK
6
CONTINUOUS
10
104.714
20
-24.5751
11
104.566
21
-24.6736
0
LINE
8
BLACK
6
CONTINUOUS
10
104.566
20
-24.6736
11
104.403
21
-24.7414
0
LINE
8
BLACK
6
CONTINUOUS
10
104.403
20
-24.7414
11
104.229
21
-24.776
0
LINE
8
BLACK
6
CONTINUOUS
10
104.229
20
-24.776
11
104.051
21
-24.776
0
LINE
8
BLACK
6
CONTINUOUS
10
104.051
20
-24.776
11
103.877
21
-24.7414
0
LINE
8
BLACK
6
CONTINUOUS
10
103.877
20
-24.7414
11
103.714
21
-24.6736
0
LINE
8
BLACK
6
CONTINUOUS
10
103.714
20
-24.6736
11
103.566
21
-24.5751
0
LINE
8
BLACK
6
CONTINUOUS
10
103.566
20
-24.5751
11
103.441
21
-24.4497
0
LINE
8
BLACK
6
CONTINUOUS
10
103.441
20
-24.4497
11
103.342
21
-24.3023
0
LINE
8
BLACK
6
CONTINUOUS
10
103.342
20
-24.3023
11
103.275
21
-24.1385
0
LINE
8
BLACK
6
CONTINUOUS
10
103.275
20
-24.1385
11
103.24
21
-23.9646
0
LINE
8
BLACK
6
CONTINUOUS
10
103.24
20
-23.9646
11
103.24
21
-23.7874
0
LINE
8
BLACK
6
CONTINUOUS
10
103.24
20
-23.7874
11
103.275
21
-23.6135
0
LINE
8
BLACK
6
CONTINUOUS
10
103.275
20
-23.6135
11
103.342
21
-23.4497
0
LINE
8
BLACK
6
CONTINUOUS
10
103.342
20
-23.4497
11
103.441
21
-23.3023
0
LINE
8
BLACK
6
CONTINUOUS
10
103.441
20
-23.3023
11
103.566
21
-23.1769
0
LINE
8
BLACK
6
CONTINUOUS
10
103.566
20
-23.1769
11
103.714
21
-23.0784
0
LINE
8
BLACK
6
CONTINUOUS
10
103.714
20
-23.0784
11
103.877
21
-23.0106
0
LINE
8
BLACK
6
CONTINUOUS
10
103.877
20
-23.0106
11
104.051
21
-22.976
0
LINE
8
BLACK
6
CONTINUOUS
10
104.051
20
-22.976
11
104.229
21
-22.976
0
LINE
8
BLACK
6
CONTINUOUS
10
104.229
20
-22.976
11
104.403
21
-23.0106
0
LINE
8
BLACK
6
CONTINUOUS
10
74.252
20
-23.452
11
72.052
21
-23.452
0
LINE
8
BLACK
6
CONTINUOUS
10
72.052
20
-23.452
11
72.052
21
-21.252
0
LINE
8
BLACK
6
CONTINUOUS
10
72.052
20
-21.252
11
74.252
21
-21.252
0
LINE
8
BLACK
6
CONTINUOUS
10
74.252
20
-21.252
11
74.252
21
-23.452
0
LINE
8
BLACK
6
CONTINUOUS
10
76.792
20
-23.452
11
74.592
21
-23.452
0
LINE
8
BLACK
6
CONTINUOUS
10
74.592
20
-23.452
11
74.592
21
-21.252
0
LINE
8
BLACK
6
CONTINUOUS
10
74.592
20
-21.252
11
76.792
21
-21.252
0
LINE
8
BLACK
6
CONTINUOUS
10
76.792
20
-21.252
11
76.792
21
-23.452
0
LINE
8
BLACK
6
CONTINUOUS
10
49.6808
20
-14.6957
11
50.4087
21
-14.9972
0
LINE
8
BLACK
6
CONTINUOUS
10
50.4087
20
-14.9972
11
51.0639
21
-15.435
0
LINE
8
BLACK
6
CONTINUOUS
10
51.0639
20
-15.435
11
51.621
21
-15.9921
0
LINE
8
BLACK
6
CONTINUOUS
10
51.621
20
-15.9921
11
52.0588
21
-16.6473
0
LINE
8
BLACK
6
CONTINUOUS
10
52.0588
20
-16.6473
11
52.3603
21
-17.3752
0
LINE
8
BLACK
6
CONTINUOUS
10
52.3603
20
-17.3752
11
52.514
21
-18.148
0
LINE
8
BLACK
6
CONTINUOUS
10
52.514
20
-18.148
11
52.514
21
-18.936
0
LINE
8
BLACK
6
CONTINUOUS
10
52.514
20
-18.936
11
52.3603
21
-19.7088
0
LINE
8
BLACK
6
CONTINUOUS
10
52.3603
20
-19.7088
11
52.0588
21
-20.4367
0
LINE
8
BLACK
6
CONTINUOUS
10
52.0588
20
-20.4367
11
51.621
21
-21.0919
0
LINE
8
BLACK
6
CONTINUOUS
10
51.621
20
-21.0919
11
51.0639
21
-21.649
0
LINE
8
BLACK
6
CONTINUOUS
10
51.0639
20
-21.649
11
50.4087
21
-22.0868
0
LINE
8
BLACK
6
CONTINUOUS
10
50.4087
20
-22.0868
11
49.6808
21
-22.3883
0
LINE
8
BLACK
6
CONTINUOUS
10
49.6808
20
-22.3883
11
48.908
21
-22.542
0
LINE
8
BLACK
6
CONTINUOUS
10
48.908
20
-22.542
11
48.12
21
-22.542
0
LINE
8
BLACK
6
CONTINUOUS
10
48.12
20
-22.542
11
47.3472
21
-22.3883
0
LINE
8
BLACK
6
CONTINUOUS
10
47.3472
20
-22.3883
11
46.6193
21
-22.0868
0
LINE
8
BLACK
6
CONTINUOUS
10
46.6193
20
-22.0868
11
45.9641
21
-21.649
0
LINE
8
BLACK
6
CONTINUOUS
10
45.9641
20
-21.649
11
45.407
21
-21.0919
0
LINE
8
BLACK
6
CONTINUOUS
10
45.407
20
-21.0919
11
44.9692
21
-20.4367
0
LINE
8
BLACK
6
CONTINUOUS
10
44.9692
20
-20.4367
11
44.6677
21
-19.7088
0
LINE
8
BLACK
6
CONTINUOUS
10
44.6677
20
-19.7088
11
44.514
21
-18.936
0
LINE
8
BLACK
6
CONTINUOUS
10
44.514
20
-18.936
11
44.514
21
-18.148
0
LINE
8
BLACK
6
CONTINUOUS
10
44.514
20
-18.148
11
44.6677
21
-17.3752
0
LINE
8
BLACK
6
CONTINUOUS
10
44.6677
20
-17.3752
11
44.9692
21
-16.6473
0
LINE
8
BLACK
6
CONTINUOUS
10
44.9692
20
-16.6473
11
45.407
21
-15.9921
0
LINE
8
BLACK
6
CONTINUOUS
10
45.407
20
-15.9921
11
45.9641
21
-15.435
0
LINE
8
BLACK
6
CONTINUOUS
10
45.9641
20
-15.435
11
46.6193
21
-14.9972
0
LINE
8
BLACK
6
CONTINUOUS
10
46.6193
20
-14.9972
11
47.3472
21
-14.6957
0
LINE
8
BLACK
6
CONTINUOUS
10
47.3472
20
-14.6957
11
48.12
21
-14.542
0
LINE
8
BLACK
6
CONTINUOUS
10
48.12
20
-14.542
11
48.908
21
-14.542
0
LINE
8
BLACK
6
CONTINUOUS
10
48.908
20
-14.542
11
49.6808
21
-14.6957
0
LINE
8
BLACK
6
CONTINUOUS
10
66.27
20
-22.328
11
63.27
21
-22.328
0
LINE
8
BLACK
6
CONTINUOUS
10
63.27
20
-22.328
11
63.27
21
-19.328
0
LINE
8
BLACK
6
CONTINUOUS
10
63.27
20
-19.328
11
66.27
21
-19.328
0
LINE
8
BLACK
6
CONTINUOUS
10
66.27
20
-19.328
11
66.27
21
-22.328
0
LINE
8
BLACK
6
CONTINUOUS
10
60.1275
20
-19.3856
11
60.4005
21
-19.4987
0
LINE
8
BLACK
6
CONTINUOUS
10
60.4005
20
-19.4987
11
60.6462
21
-19.6629
0
LINE
8
BLACK
6
CONTINUOUS
10
60.6462
20
-19.6629
11
60.8551
21
-19.8718
0
LINE
8
BLACK
6
CONTINUOUS
10
60.8551
20
-19.8718
11
61.0193
21
-20.1175
0
LINE
8
BLACK
6
CONTINUOUS
10
61.0193
20
-20.1175
11
61.1324
21
-20.3905
0
LINE
8
BLACK
6
CONTINUOUS
10
61.1324
20
-20.3905
11
61.19
21
-20.6803
0
LINE
8
BLACK
6
CONTINUOUS
10
61.19
20
-20.6803
11
61.19
21
-20.9757
0
LINE
8
BLACK
6
CONTINUOUS
10
61.19
20
-20.9757
11
61.1324
21
-21.2655
0
LINE
8
BLACK
6
CONTINUOUS
10
61.1324
20
-21.2655
11
61.0193
21
-21.5385
0
LINE
8
BLACK
6
CONTINUOUS
10
61.0193
20
-21.5385
11
60.8551
21
-21.7842
0
LINE
8
BLACK
6
CONTINUOUS
10
60.8551
20
-21.7842
11
60.6462
21
-21.9931
0
LINE
8
BLACK
6
CONTINUOUS
10
60.6462
20
-21.9931
11
60.4005
21
-22.1573
0
LINE
8
BLACK
6
CONTINUOUS
10
60.4005
20
-22.1573
11
60.1275
21
-22.2704
0
LINE
8
BLACK
6
CONTINUOUS
10
60.1275
20
-22.2704
11
59.8377
21
-22.328
0
LINE
8
BLACK
6
CONTINUOUS
10
59.8377
20
-22.328
11
59.5423
21
-22.328
0
LINE
8
BLACK
6
CONTINUOUS
10
59.5423
20
-22.328
11
59.2525
21
-22.2704
0
LINE
8
BLACK
6
CONTINUOUS
10
59.2525
20
-22.2704
11
58.9795
21
-22.1573
0
LINE
8
BLACK
6
CONTINUOUS
10
58.9795
20
-22.1573
11
58.7338
21
-21.9931
0
LINE
8
BLACK
6
CONTINUOUS
10
58.7338
20
-21.9931
11
58.5249
21
-21.7842
0
LINE
8
BLACK
6
CONTINUOUS
10
58.5249
20
-21.7842
11
58.3607
21
-21.5385
0
LINE
8
BLACK
6
CONTINUOUS
10
58.3607
20
-21.5385
11
58.2476
21
-21.2655
0
LINE
8
BLACK
6
CONTINUOUS
10
58.2476
20
-21.2655
11
58.19
21
-20.9757
0
LINE
8
BLACK
6
CONTINUOUS
10
58.19
20
-20.9757
11
58.19
21
-20.6803
0
LINE
8
BLACK
6
CONTINUOUS
10
58.19
20
-20.6803
11
58.2476
21
-20.3905
0
LINE
8
BLACK
6
CONTINUOUS
10
58.2476
20
-20.3905
11
58.3607
21
-20.1175
0
LINE
8
BLACK
6
CONTINUOUS
10
58.3607
20
-20.1175
11
58.5249
21
-19.8718
0
LINE
8
BLACK
6
CONTINUOUS
10
58.5249
20
-19.8718
11
58.7338
21
-19.6629
0
LINE
8
BLACK
6
CONTINUOUS
10
58.7338
20
-19.6629
11
58.9795
21
-19.4987
0
LINE
8
BLACK
6
CONTINUOUS
10
58.9795
20
-19.4987
11
59.2525
21
-19.3856
0
LINE
8
BLACK
6
CONTINUOUS
10
59.2525
20
-19.3856
11
59.5423
21
-19.328
0
LINE
8
BLACK
6
CONTINUOUS
10
59.5423
20
-19.328
11
59.8377
21
-19.328
0
LINE
8
BLACK
6
CONTINUOUS
10
59.8377
20
-19.328
11
60.1275
21
-19.3856
0
LINE
8
BLACK
6
CONTINUOUS
10
122.579
20
-14.4417
11
123.307
21
-14.7432
0
LINE
8
BLACK
6
CONTINUOUS
10
123.307
20
-14.7432
11
123.962
21
-15.181
0
LINE
8
BLACK
6
CONTINUOUS
10
123.962
20
-15.181
11
124.519
21
-15.7381
0
LINE
8
BLACK
6
CONTINUOUS
10
124.519
20
-15.7381
11
124.957
21
-16.3933
0
LINE
8
BLACK
6
CONTINUOUS
10
124.957
20
-16.3933
11
125.258
21
-17.1212
0
LINE
8
BLACK
6
CONTINUOUS
10
125.258
20
-17.1212
11
125.412
21
-17.894
0
LINE
8
BLACK
6
CONTINUOUS
10
125.412
20
-17.894
11
125.412
21
-18.682
0
LINE
8
BLACK
6
CONTINUOUS
10
125.412
20
-18.682
11
125.258
21
-19.4548
0
LINE
8
BLACK
6
CONTINUOUS
10
125.258
20
-19.4548
11
124.957
21
-20.1827
0
LINE
8
BLACK
6
CONTINUOUS
10
124.957
20
-20.1827
11
124.519
21
-20.8379
0
LINE
8
BLACK
6
CONTINUOUS
10
124.519
20
-20.8379
11
123.962
21
-21.395
0
LINE
8
BLACK
6
CONTINUOUS
10
123.962
20
-21.395
11
123.307
21
-21.8328
0
LINE
8
BLACK
6
CONTINUOUS
10
123.307
20
-21.8328
11
122.579
21
-22.1343
0
LINE
8
BLACK
6
CONTINUOUS
10
122.579
20
-22.1343
11
121.806
21
-22.288
0
LINE
8
BLACK
6
CONTINUOUS
10
121.806
20
-22.288
11
121.018
21
-22.288
0
LINE
8
BLACK
6
CONTINUOUS
10
121.018
20
-22.288
11
120.245
21
-22.1343
0
LINE
8
BLACK
6
CONTINUOUS
10
120.245
20
-22.1343
11
119.517
21
-21.8328
0
LINE
8
BLACK
6
CONTINUOUS
10
119.517
20
-21.8328
11
118.862
21
-21.395
0
LINE
8
BLACK
6
CONTINUOUS
10
118.862
20
-21.395
11
118.305
21
-20.8379
0
LINE
8
BLACK
6
CONTINUOUS
10
118.305
20
-20.8379
11
117.867
21
-20.1827
0
LINE
8
BLACK
6
CONTINUOUS
10
117.867
20
-20.1827
11
117.566
21
-19.4548
0
LINE
8
BLACK
6
CONTINUOUS
10
117.566
20
-19.4548
11
117.412
21
-18.682
0
LINE
8
BLACK
6
CONTINUOUS
10
117.412
20
-18.682
11
117.412
21
-17.894
0
LINE
8
BLACK
6
CONTINUOUS
10
117.412
20
-17.894
11
117.566
21
-17.1212
0
LINE
8
BLACK
6
CONTINUOUS
10
117.566
20
-17.1212
11
117.867
21
-16.3933
0
LINE
8
BLACK
6
CONTINUOUS
10
117.867
20
-16.3933
11
118.305
21
-15.7381
0
LINE
8
BLACK
6
CONTINUOUS
10
118.305
20
-15.7381
11
118.862
21
-15.181
0
LINE
8
BLACK
6
CONTINUOUS
10
118.862
20
-15.181
11
119.517
21
-14.7432
0
LINE
8
BLACK
6
CONTINUOUS
10
119.517
20
-14.7432
11
120.245
21
-14.4417
0
LINE
8
BLACK
6
CONTINUOUS
10
120.245
20
-14.4417
11
121.018
21
-14.288
0
LINE
8
BLACK
6
CONTINUOUS
10
121.018
20
-14.288
11
121.806
21
-14.288
0
LINE
8
BLACK
6
CONTINUOUS
10
121.806
20
-14.288
11
122.579
21
-14.4417
0
LINE
8
BLACK
6
CONTINUOUS
10
74.252
20
-20.912
11
72.052
21
-20.912
0
LINE
8
BLACK
6
CONTINUOUS
10
72.052
20
-20.912
11
72.052
21
-18.712
0
LINE
8
BLACK
6
CONTINUOUS
10
72.052
20
-18.712
11
74.252
21
-18.712
0
LINE
8
BLACK
6
CONTINUOUS
10
74.252
20
-18.712
11
74.252
21
-20.912
0
LINE
8
BLACK
6
CONTINUOUS
10
76.792
20
-20.912
11
74.592
21
-20.912
0
LINE
8
BLACK
6
CONTINUOUS
10
74.592
20
-20.912
11
74.592
21
-18.712
0
LINE
8
BLACK
6
CONTINUOUS
10
74.592
20
-18.712
11
76.792
21
-18.712
0
LINE
8
BLACK
6
CONTINUOUS
10
76.792
20
-18.712
11
76.792
21
-20.912
0
LINE
8
BLACK
6
CONTINUOUS
10
79.852
20
-17.8961
11
80.0704
21
-17.9866
0
LINE
8
BLACK
6
CONTINUOUS
10
80.0704
20
-17.9866
11
80.267
21
-18.1179
0
LINE
8
BLACK
6
CONTINUOUS
10
80.267
20
-18.1179
11
80.4341
21
-18.285
0
LINE
8
BLACK
6
CONTINUOUS
10
80.4341
20
-18.285
11
80.5654
21
-18.4816
0
LINE
8
BLACK
6
CONTINUOUS
10
80.5654
20
-18.4816
11
80.6559
21
-18.7
0
LINE
8
BLACK
6
CONTINUOUS
10
80.6559
20
-18.7
11
80.702
21
-18.9318
0
LINE
8
BLACK
6
CONTINUOUS
10
80.702
20
-18.9318
11
80.702
21
-19.1682
0
LINE
8
BLACK
6
CONTINUOUS
10
80.702
20
-19.1682
11
80.6559
21
-19.4
0
LINE
8
BLACK
6
CONTINUOUS
10
80.6559
20
-19.4
11
80.5654
21
-19.6184
0
LINE
8
BLACK
6
CONTINUOUS
10
80.5654
20
-19.6184
11
80.4341
21
-19.815
0
LINE
8
BLACK
6
CONTINUOUS
10
80.4341
20
-19.815
11
80.267
21
-19.9821
0
LINE
8
BLACK
6
CONTINUOUS
10
80.267
20
-19.9821
11
80.0704
21
-20.1134
0
LINE
8
BLACK
6
CONTINUOUS
10
80.0704
20
-20.1134
11
79.852
21
-20.2039
0
LINE
8
BLACK
6
CONTINUOUS
10
79.852
20
-20.2039
11
79.6202
21
-20.25
0
LINE
8
BLACK
6
CONTINUOUS
10
79.6202
20
-20.25
11
79.3838
21
-20.25
0
LINE
8
BLACK
6
CONTINUOUS
10
79.3838
20
-20.25
11
79.152
21
-20.2039
0
LINE
8
BLACK
6
CONTINUOUS
10
79.152
20
-20.2039
11
78.9336
21
-20.1134
0
LINE
8
BLACK
6
CONTINUOUS
10
78.9336
20
-20.1134
11
78.737
21
-19.9821
0
LINE
8
BLACK
6
CONTINUOUS
10
78.737
20
-19.9821
11
78.5699
21
-19.815
0
LINE
8
BLACK
6
CONTINUOUS
10
78.5699
20
-19.815
11
78.4386
21
-19.6184
0
LINE
8
BLACK
6
CONTINUOUS
10
78.4386
20
-19.6184
11
78.3481
21
-19.4
0
LINE
8
BLACK
6
CONTINUOUS
10
78.3481
20
-19.4
11
78.302
21
-19.1682
0
LINE
8
BLACK
6
CONTINUOUS
10
78.302
20
-19.1682
11
78.302
21
-18.9318
0
LINE
8
BLACK
6
CONTINUOUS
10
78.302
20
-18.9318
11
78.3481
21
-18.7
0
LINE
8
BLACK
6
CONTINUOUS
10
78.3481
20
-18.7
11
78.4386
21
-18.4816
0
LINE
8
BLACK
6
CONTINUOUS
10
78.4386
20
-18.4816
11
78.5699
21
-18.285
0
LINE
8
BLACK
6
CONTINUOUS
10
78.5699
20
-18.285
11
78.737
21
-18.1179
0
LINE
8
BLACK
6
CONTINUOUS
10
78.737
20
-18.1179
11
78.9336
21
-17.9866
0
LINE
8
BLACK
6
CONTINUOUS
10
78.9336
20
-17.9866
11
79.152
21
-17.8961
0
LINE
8
BLACK
6
CONTINUOUS
10
79.152
20
-17.8961
11
79.3838
21
-17.85
0
LINE
8
BLACK
6
CONTINUOUS
10
79.3838
20
-17.85
11
79.6202
21
-17.85
0
LINE
8
BLACK
6
CONTINUOUS
10
79.6202
20
-17.85
11
79.852
21
-17.8961
0
LINE
8
BLACK
6
CONTINUOUS
10
94.9772
20
-17.8674
11
95.2034
21
-17.936
0
LINE
8
BLACK
6
CONTINUOUS
10
95.2034
20
-17.936
11
95.4119
21
-18.0474
0
LINE
8
BLACK
6
CONTINUOUS
10
95.4119
20
-18.0474
11
95.5946
21
-18.1974
0
LINE
8
BLACK
6
CONTINUOUS
10
95.5946
20
-18.1974
11
95.7446
21
-18.3801
0
LINE
8
BLACK
6
CONTINUOUS
10
95.7446
20
-18.3801
11
95.856
21
-18.5886
0
LINE
8
BLACK
6
CONTINUOUS
10
95.856
20
-18.5886
11
95.9246
21
-18.8148
0
LINE
8
BLACK
6
CONTINUOUS
10
95.9246
20
-18.8148
11
95.9478
21
-19.05
0
LINE
8
BLACK
6
CONTINUOUS
10
95.9478
20
-19.05
11
95.9246
21
-19.2852
0
LINE
8
BLACK
6
CONTINUOUS
10
95.9246
20
-19.2852
11
95.856
21
-19.5114
0
LINE
8
BLACK
6
CONTINUOUS
10
95.856
20
-19.5114
11
95.7446
21
-19.7199
0
LINE
8
BLACK
6
CONTINUOUS
10
95.7446
20
-19.7199
11
95.5946
21
-19.9026
0
LINE
8
BLACK
6
CONTINUOUS
10
95.5946
20
-19.9026
11
95.4119
21
-20.0526
0
LINE
8
BLACK
6
CONTINUOUS
10
95.4119
20
-20.0526
11
95.2034
21
-20.164
0
LINE
8
BLACK
6
CONTINUOUS
10
95.2034
20
-20.164
11
94.9772
21
-20.2326
0
LINE
8
BLACK
6
CONTINUOUS
10
94.9772
20
-20.2326
11
94.801
21
-20.25
0
LINE
8
BLACK
6
CONTINUOUS
10
94.801
20
-20.25
11
94.683
21
-20.25
0
LINE
8
BLACK
6
CONTINUOUS
10
94.683
20
-20.25
11
94.5068
21
-20.2326
0
LINE
8
BLACK
6
CONTINUOUS
10
94.5068
20
-20.2326
11
94.2806
21
-20.164
0
LINE
8
BLACK
6
CONTINUOUS
10
94.2806
20
-20.164
11
94.0721
21
-20.0526
0
LINE
8
BLACK
6
CONTINUOUS
10
94.0721
20
-20.0526
11
93.8894
21
-19.9026
0
LINE
8
BLACK
6
CONTINUOUS
10
93.8894
20
-19.9026
11
93.7394
21
-19.7199
0
LINE
8
BLACK
6
CONTINUOUS
10
93.7394
20
-19.7199
11
93.628
21
-19.5114
0
LINE
8
BLACK
6
CONTINUOUS
10
93.628
20
-19.5114
11
93.5594
21
-19.2852
0
LINE
8
BLACK
6
CONTINUOUS
10
93.5594
20
-19.2852
11
93.5362
21
-19.05
0
LINE
8
BLACK
6
CONTINUOUS
10
93.5362
20
-19.05
11
93.5594
21
-18.8148
0
LINE
8
BLACK
6
CONTINUOUS
10
93.5594
20
-18.8148
11
93.628
21
-18.5886
0
LINE
8
BLACK
6
CONTINUOUS
10
93.628
20
-18.5886
11
93.7394
21
-18.3801
0
LINE
8
BLACK
6
CONTINUOUS
10
93.7394
20
-18.3801
11
93.8894
21
-18.1974
0
LINE
8
BLACK
6
CONTINUOUS
10
93.8894
20
-18.1974
11
94.0721
21
-18.0474
0
LINE
8
BLACK
6
CONTINUOUS
10
94.0721
20
-18.0474
11
94.2806
21
-17.936
0
LINE
8
BLACK
6
CONTINUOUS
10
94.2806
20
-17.936
11
94.5068
21
-17.8674
0
LINE
8
BLACK
6
CONTINUOUS
10
94.5068
20
-17.8674
11
94.683
21
-17.85
0
LINE
8
BLACK
6
CONTINUOUS
10
94.683
20
-17.85
11
94.801
21
-17.85
0
LINE
8
BLACK
6
CONTINUOUS
10
94.801
20
-17.85
11
94.9772
21
-17.8674
0
LINE
8
BLACK
6
CONTINUOUS
10
104.403
20
-16.4066
11
104.566
21
-16.4744
0
LINE
8
BLACK
6
CONTINUOUS
10
104.566
20
-16.4744
11
104.714
21
-16.5729
0
LINE
8
BLACK
6
CONTINUOUS
10
104.714
20
-16.5729
11
104.839
21
-16.6983
0
LINE
8
BLACK
6
CONTINUOUS
10
104.839
20
-16.6983
11
104.938
21
-16.8457
0
LINE
8
BLACK
6
CONTINUOUS
10
104.938
20
-16.8457
11
105.005
21
-17.0095
0
LINE
8
BLACK
6
CONTINUOUS
10
105.005
20
-17.0095
11
105.04
21
-17.1834
0
LINE
8
BLACK
6
CONTINUOUS
10
105.04
20
-17.1834
11
105.04
21
-17.3606
0
LINE
8
BLACK
6
CONTINUOUS
10
105.04
20
-17.3606
11
105.005
21
-17.5345
0
LINE
8
BLACK
6
CONTINUOUS
10
105.005
20
-17.5345
11
104.938
21
-17.6983
0
LINE
8
BLACK
6
CONTINUOUS
10
104.938
20
-17.6983
11
104.839
21
-17.8457
0
LINE
8
BLACK
6
CONTINUOUS
10
104.839
20
-17.8457
11
104.714
21
-17.9711
0
LINE
8
BLACK
6
CONTINUOUS
10
104.714
20
-17.9711
11
104.566
21
-18.0696
0
LINE
8
BLACK
6
CONTINUOUS
10
104.566
20
-18.0696
11
104.403
21
-18.1374
0
LINE
8
BLACK
6
CONTINUOUS
10
104.403
20
-18.1374
11
104.229
21
-18.172
0
LINE
8
BLACK
6
CONTINUOUS
10
104.229
20
-18.172
11
104.051
21
-18.172
0
LINE
8
BLACK
6
CONTINUOUS
10
104.051
20
-18.172
11
103.877
21
-18.1374
0
LINE
8
BLACK
6
CONTINUOUS
10
103.877
20
-18.1374
11
103.714
21
-18.0696
0
LINE
8
BLACK
6
CONTINUOUS
10
103.714
20
-18.0696
11
103.566
21
-17.9711
0
LINE
8
BLACK
6
CONTINUOUS
10
103.566
20
-17.9711
11
103.441
21
-17.8457
0
LINE
8
BLACK
6
CONTINUOUS
10
103.441
20
-17.8457
11
103.342
21
-17.6983
0
LINE
8
BLACK
6
CONTINUOUS
10
103.342
20
-17.6983
11
103.275
21
-17.5345
0
LINE
8
BLACK
6
CONTINUOUS
10
103.275
20
-17.5345
11
103.24
21
-17.3606
0
LINE
8
BLACK
6
CONTINUOUS
10
103.24
20
-17.3606
11
103.24
21
-17.1834
0
LINE
8
BLACK
6
CONTINUOUS
10
103.24
20
-17.1834
11
103.275
21
-17.0095
0
LINE
8
BLACK
6
CONTINUOUS
10
103.275
20
-17.0095
11
103.342
21
-16.8457
0
LINE
8
BLACK
6
CONTINUOUS
10
103.342
20
-16.8457
11
103.441
21
-16.6983
0
LINE
8
BLACK
6
CONTINUOUS
10
103.441
20
-16.6983
11
103.566
21
-16.5729
0
LINE
8
BLACK
6
CONTINUOUS
10
103.566
20
-16.5729
11
103.714
21
-16.4744
0
LINE
8
BLACK
6
CONTINUOUS
10
103.714
20
-16.4744
11
103.877
21
-16.4066
0
LINE
8
BLACK
6
CONTINUOUS
10
103.877
20
-16.4066
11
104.051
21
-16.372
0
LINE
8
BLACK
6
CONTINUOUS
10
104.051
20
-16.372
11
104.229
21
-16.372
0
LINE
8
BLACK
6
CONTINUOUS
10
104.229
20
-16.372
11
104.403
21
-16.4066
0
LINE
8
BLACK
6
CONTINUOUS
10
107.58
20
-18.172
11
105.78
21
-18.172
0
LINE
8
BLACK
6
CONTINUOUS
10
105.78
20
-18.172
11
105.78
21
-16.372
0
LINE
8
BLACK
6
CONTINUOUS
10
105.78
20
-16.372
11
107.58
21
-16.372
0
LINE
8
BLACK
6
CONTINUOUS
10
107.58
20
-16.372
11
107.58
21
-18.172
0
CIRCLE
8
BLACK
10
121.412
20
-18.288
40
1
0
CIRCLE
8
BLACK
10
48.514
20
-18.542
40
1
0
CIRCLE
8
BLACK
10
46.736
20
-148.082
40
1
0
CIRCLE
8
BLACK
10
121.158
20
-147.066
40
1
0
CIRCLE
8
BLACK
10
72.136
20
-90.17
40
0.4
0
CIRCLE
8
BLACK
10
72.136
20
-71.374
40
0.4
0
CIRCLE
8
BLACK
10
67.056
20
-54.356
40
0.4
0
CIRCLE
8
BLACK
10
66.627
20
-68.247
40
0.4
0
CIRCLE
8
BLACK
10
74.93
20
-66.294
40
0.4
0
CIRCLE
8
BLACK
10
74.93
20
-82.042
40
0.4
0
CIRCLE
8
BLACK
10
61.468
20
-130.048
40
0.4
0
CIRCLE
8
BLACK
10
55.626
20
-130.048
40
0.4
0
CIRCLE
8
BLACK
10
59.69
20
-125.222
40
0.4
0
CIRCLE
8
BLACK
10
59.69
20
-129.286
40
0.4
0
CIRCLE
8
BLACK
10
103.378
20
-138.938
40
0.4
0
CIRCLE
8
BLACK
10
103.378
20
-148.082
40
0.4
0
CIRCLE
8
BLACK
10
102.87
20
-58.42
40
0.4
0
CIRCLE
8
BLACK
10
102.362
20
-70.612
40
0.4
0
CIRCLE
8
BLACK
10
56.388
20
-64.008
40
0.4
0
CIRCLE
8
BLACK
10
56.642
20
-54.864
40
0.4
  0
ENDSEC
  0
EOF
