G04 #@! TF.GenerationSoftware,KiCad,Pcbnew,(5.1.2)-2*
G04 #@! TF.CreationDate,2020-05-16T03:45:46+07:00*
G04 #@! TF.ProjectId,STM_SHIELD_V1,53544d5f-5348-4494-954c-445f56312e6b,rev?*
G04 #@! TF.SameCoordinates,Original*
G04 #@! TF.FileFunction,Soldermask,Bot*
G04 #@! TF.FilePolarity,Negative*
%FSLAX46Y46*%
G04 Gerber Fmt 4.6, Leading zero omitted, Abs format (unit mm)*
G04 Created by KiCad (PCBNEW (5.1.2)-2) date 2020-05-16 03:45:46*
%MOMM*%
%LPD*%
G04 APERTURE LIST*
%ADD10C,0.100000*%
G04 APERTURE END LIST*
D10*
G36*
X109609000Y-137295000D02*
G01*
X59047000Y-137295000D01*
X59047000Y-132453000D01*
X109609000Y-132453000D01*
X109609000Y-137295000D01*
X109609000Y-137295000D01*
G37*
G36*
X114181000Y-123579000D02*
G01*
X109339000Y-123579000D01*
X109339000Y-60317000D01*
X114181000Y-60317000D01*
X114181000Y-123579000D01*
X114181000Y-123579000D01*
G37*
G36*
X63381000Y-123579000D02*
G01*
X58539000Y-123579000D01*
X58539000Y-60317000D01*
X63381000Y-60317000D01*
X63381000Y-123579000D01*
X63381000Y-123579000D01*
G37*
G36*
X94987239Y-22389101D02*
G01*
X95223053Y-22460634D01*
X95440381Y-22576799D01*
X95630871Y-22733129D01*
X95787201Y-22923619D01*
X95903366Y-23140947D01*
X95974899Y-23376761D01*
X95999053Y-23622000D01*
X95974899Y-23867239D01*
X95903366Y-24103053D01*
X95787201Y-24320381D01*
X95630871Y-24510871D01*
X95440381Y-24667201D01*
X95223053Y-24783366D01*
X94987239Y-24854899D01*
X94803457Y-24873000D01*
X94680543Y-24873000D01*
X94496761Y-24854899D01*
X94260947Y-24783366D01*
X94043619Y-24667201D01*
X93853129Y-24510871D01*
X93696799Y-24320381D01*
X93580634Y-24103053D01*
X93509101Y-23867239D01*
X93484947Y-23622000D01*
X93509101Y-23376761D01*
X93580634Y-23140947D01*
X93696799Y-22923619D01*
X93853129Y-22733129D01*
X94043619Y-22576799D01*
X94260947Y-22460634D01*
X94496761Y-22389101D01*
X94680543Y-22371000D01*
X94803457Y-22371000D01*
X94987239Y-22389101D01*
X94987239Y-22389101D01*
G37*
G36*
X79866903Y-22419075D02*
G01*
X79967236Y-22460634D01*
X80094571Y-22513378D01*
X80299466Y-22650285D01*
X80473715Y-22824534D01*
X80610622Y-23029429D01*
X80610623Y-23029431D01*
X80704925Y-23257097D01*
X80753000Y-23498786D01*
X80753000Y-23745214D01*
X80704925Y-23986903D01*
X80635962Y-24153396D01*
X80610622Y-24214571D01*
X80473715Y-24419466D01*
X80299466Y-24593715D01*
X80094571Y-24730622D01*
X80094570Y-24730623D01*
X80094569Y-24730623D01*
X79866903Y-24824925D01*
X79625214Y-24873000D01*
X79378786Y-24873000D01*
X79137097Y-24824925D01*
X78909431Y-24730623D01*
X78909430Y-24730623D01*
X78909429Y-24730622D01*
X78704534Y-24593715D01*
X78530285Y-24419466D01*
X78393378Y-24214571D01*
X78368039Y-24153396D01*
X78299075Y-23986903D01*
X78251000Y-23745214D01*
X78251000Y-23498786D01*
X78299075Y-23257097D01*
X78393377Y-23029431D01*
X78393378Y-23029429D01*
X78530285Y-22824534D01*
X78704534Y-22650285D01*
X78909429Y-22513378D01*
X79036765Y-22460634D01*
X79137097Y-22419075D01*
X79378786Y-22371000D01*
X79625214Y-22371000D01*
X79866903Y-22419075D01*
X79866903Y-22419075D01*
G37*
G36*
X107631000Y-24827000D02*
G01*
X105729000Y-24827000D01*
X105729000Y-22925000D01*
X107631000Y-22925000D01*
X107631000Y-24827000D01*
X107631000Y-24827000D01*
G37*
G36*
X104417395Y-22961546D02*
G01*
X104590466Y-23033234D01*
X104590467Y-23033235D01*
X104746227Y-23137310D01*
X104878690Y-23269773D01*
X104878691Y-23269775D01*
X104982766Y-23425534D01*
X105054454Y-23598605D01*
X105091000Y-23782333D01*
X105091000Y-23969667D01*
X105054454Y-24153395D01*
X104982766Y-24326466D01*
X104982765Y-24326467D01*
X104878690Y-24482227D01*
X104746227Y-24614690D01*
X104667818Y-24667081D01*
X104590466Y-24718766D01*
X104417395Y-24790454D01*
X104233667Y-24827000D01*
X104046333Y-24827000D01*
X103862605Y-24790454D01*
X103689534Y-24718766D01*
X103612182Y-24667081D01*
X103533773Y-24614690D01*
X103401310Y-24482227D01*
X103297235Y-24326467D01*
X103297234Y-24326466D01*
X103225546Y-24153395D01*
X103189000Y-23969667D01*
X103189000Y-23782333D01*
X103225546Y-23598605D01*
X103297234Y-23425534D01*
X103401309Y-23269775D01*
X103401310Y-23269773D01*
X103533773Y-23137310D01*
X103689533Y-23033235D01*
X103689534Y-23033234D01*
X103862605Y-22961546D01*
X104046333Y-22925000D01*
X104233667Y-22925000D01*
X104417395Y-22961546D01*
X104417395Y-22961546D01*
G37*
G36*
X76843000Y-23503000D02*
G01*
X72001000Y-23503000D01*
X72001000Y-18661000D01*
X76843000Y-18661000D01*
X76843000Y-23503000D01*
X76843000Y-23503000D01*
G37*
G36*
X66321000Y-22379000D02*
G01*
X63219000Y-22379000D01*
X63219000Y-19277000D01*
X66321000Y-19277000D01*
X66321000Y-22379000D01*
X66321000Y-22379000D01*
G37*
G36*
X59934444Y-19295237D02*
G01*
X60142410Y-19336604D01*
X60424674Y-19453521D01*
X60678705Y-19623259D01*
X60894741Y-19839295D01*
X61064479Y-20093326D01*
X61181396Y-20375590D01*
X61241000Y-20675240D01*
X61241000Y-20980760D01*
X61181396Y-21280410D01*
X61064479Y-21562674D01*
X60894741Y-21816705D01*
X60678705Y-22032741D01*
X60424674Y-22202479D01*
X60142410Y-22319396D01*
X59992585Y-22349198D01*
X59842761Y-22379000D01*
X59537239Y-22379000D01*
X59387415Y-22349198D01*
X59237590Y-22319396D01*
X58955326Y-22202479D01*
X58701295Y-22032741D01*
X58485259Y-21816705D01*
X58315521Y-21562674D01*
X58198604Y-21280410D01*
X58139000Y-20980760D01*
X58139000Y-20675240D01*
X58198604Y-20375590D01*
X58315521Y-20093326D01*
X58485259Y-19839295D01*
X58701295Y-19623259D01*
X58955326Y-19453521D01*
X59237590Y-19336604D01*
X59445556Y-19295237D01*
X59537239Y-19277000D01*
X59842761Y-19277000D01*
X59934444Y-19295237D01*
X59934444Y-19295237D01*
G37*
G36*
X79866903Y-17847075D02*
G01*
X79967236Y-17888634D01*
X80094571Y-17941378D01*
X80299466Y-18078285D01*
X80473715Y-18252534D01*
X80610622Y-18457429D01*
X80704925Y-18685097D01*
X80753000Y-18926787D01*
X80753000Y-19173213D01*
X80704925Y-19414903D01*
X80610622Y-19642571D01*
X80473715Y-19847466D01*
X80299466Y-20021715D01*
X80094571Y-20158622D01*
X80094570Y-20158623D01*
X80094569Y-20158623D01*
X79866903Y-20252925D01*
X79625214Y-20301000D01*
X79378786Y-20301000D01*
X79137097Y-20252925D01*
X78909431Y-20158623D01*
X78909430Y-20158623D01*
X78909429Y-20158622D01*
X78704534Y-20021715D01*
X78530285Y-19847466D01*
X78393378Y-19642571D01*
X78299075Y-19414903D01*
X78251000Y-19173213D01*
X78251000Y-18926787D01*
X78299075Y-18685097D01*
X78393378Y-18457429D01*
X78530285Y-18252534D01*
X78704534Y-18078285D01*
X78909429Y-17941378D01*
X79036765Y-17888634D01*
X79137097Y-17847075D01*
X79378786Y-17799000D01*
X79625214Y-17799000D01*
X79866903Y-17847075D01*
X79866903Y-17847075D01*
G37*
G36*
X94987239Y-17817101D02*
G01*
X95223053Y-17888634D01*
X95440381Y-18004799D01*
X95630871Y-18161129D01*
X95787201Y-18351619D01*
X95903366Y-18568947D01*
X95974899Y-18804761D01*
X95999053Y-19050000D01*
X95974899Y-19295239D01*
X95903366Y-19531053D01*
X95787201Y-19748381D01*
X95630871Y-19938871D01*
X95440381Y-20095201D01*
X95223053Y-20211366D01*
X94987239Y-20282899D01*
X94803457Y-20301000D01*
X94680543Y-20301000D01*
X94496761Y-20282899D01*
X94260947Y-20211366D01*
X94043619Y-20095201D01*
X93853129Y-19938871D01*
X93696799Y-19748381D01*
X93580634Y-19531053D01*
X93509101Y-19295239D01*
X93484947Y-19050000D01*
X93509101Y-18804761D01*
X93580634Y-18568947D01*
X93696799Y-18351619D01*
X93853129Y-18161129D01*
X94043619Y-18004799D01*
X94260947Y-17888634D01*
X94496761Y-17817101D01*
X94680543Y-17799000D01*
X94803457Y-17799000D01*
X94987239Y-17817101D01*
X94987239Y-17817101D01*
G37*
G36*
X107631000Y-18223000D02*
G01*
X105729000Y-18223000D01*
X105729000Y-16321000D01*
X107631000Y-16321000D01*
X107631000Y-18223000D01*
X107631000Y-18223000D01*
G37*
G36*
X104417395Y-16357546D02*
G01*
X104590466Y-16429234D01*
X104590467Y-16429235D01*
X104746227Y-16533310D01*
X104878690Y-16665773D01*
X104878691Y-16665775D01*
X104982766Y-16821534D01*
X105054454Y-16994605D01*
X105091000Y-17178333D01*
X105091000Y-17365667D01*
X105054454Y-17549395D01*
X104982766Y-17722466D01*
X104982765Y-17722467D01*
X104878690Y-17878227D01*
X104746227Y-18010690D01*
X104667818Y-18063081D01*
X104590466Y-18114766D01*
X104417395Y-18186454D01*
X104233667Y-18223000D01*
X104046333Y-18223000D01*
X103862605Y-18186454D01*
X103689534Y-18114766D01*
X103612182Y-18063081D01*
X103533773Y-18010690D01*
X103401310Y-17878227D01*
X103297235Y-17722467D01*
X103297234Y-17722466D01*
X103225546Y-17549395D01*
X103189000Y-17365667D01*
X103189000Y-17178333D01*
X103225546Y-16994605D01*
X103297234Y-16821534D01*
X103401309Y-16665775D01*
X103401310Y-16665773D01*
X103533773Y-16533310D01*
X103689533Y-16429235D01*
X103689534Y-16429234D01*
X103862605Y-16357546D01*
X104046333Y-16321000D01*
X104233667Y-16321000D01*
X104417395Y-16357546D01*
X104417395Y-16357546D01*
G37*
M02*
