  0
SECTION
  2
HEADER
  9
$ANGBASE
  50
0.0
  9
$ANGDIR
  70
  1
  9
$MEASUREMENT
  70
0
  0
ENDSEC
  0
SECTION
  2
TABLES
  0
TABLE
  2
LTYPE
  70
4
  0
LTYPE
  5
40F
  2
CONTINUOUS
  70
0
  3
Solid line
  72
65
  73
0
  40
0.0
  0
LTYPE
  5
410
  2
DASHDOT
 70
0
  3
Dash Dot ____ _ ____ _
 72
65
 73
4
 40
2.0
 49
1.25
 49
-0.25
 49
0.25
 49
-0.25
  0
LTYPE
  5
411
  2
DASHED
 70
0
  3
Dashed __ __ __ __ __
 72
65
 73
2
 40
0.75
 49
0.5
 49
-0.25
  0
LTYPE
  5
43B
  2
DOTTED
 70
0
  3
Dotted .  .  .  .
 72
65
 73
2
 40
0.2
 49
0.0
 49
-0.2
  0
ENDTAB
  0
TABLE
  2
STYLE
  70
4
  0
STYLE
  2
KICAD
  70
0
  40
0
  41
1
  42
1
  50
0
  71
0
  3
isocp.shx
  0
STYLE
  2
KICADB
  70
0
  40
0
  41
1
  42
1
  50
0
  71
0
  3
isocp.shx
  0
STYLE
  2
KICADI
  70
0
  40
0
  41
1
  42
1
  50
15
  71
0
  3
isocp.shx
  0
STYLE
  2
KICADBI
  70
0
  40
0
  41
1
  42
1
  50
15
  71
0
  3
isocp.shx
  0
ENDTAB
  0
TABLE
  2
LAYER
  70
30
  0
LAYER
  2
BLACK
  70
0
  62
7
  6
CONTINUOUS
  0
LAYER
  2
GRAY1
  70
0
  62
251
  6
CONTINUOUS
  0
LAYER
  2
GRAY2
  70
0
  62
8
  6
CONTINUOUS
  0
LAYER
  2
GRAY3
  70
0
  62
9
  6
CONTINUOUS
  0
LAYER
  2
WHITE
  70
0
  62
7
  6
CONTINUOUS
  0
LAYER
  2
LYELLOW
  70
0
  62
51
  6
CONTINUOUS
  0
LAYER
  2
BLUE1
  70
0
  62
178
  6
CONTINUOUS
  0
LAYER
  2
GREEN1
  70
0
  62
98
  6
CONTINUOUS
  0
LAYER
  2
CYAN1
  70
0
  62
138
  6
CONTINUOUS
  0
LAYER
  2
RED1
  70
0
  62
18
  6
CONTINUOUS
  0
LAYER
  2
MAGENTA1
  70
0
  62
228
  6
CONTINUOUS
  0
LAYER
  2
BROWN1
  70
0
  62
58
  6
CONTINUOUS
  0
LAYER
  2
BLUE2
  70
0
  62
5
  6
CONTINUOUS
  0
LAYER
  2
GREEN2
  70
0
  62
3
  6
CONTINUOUS
  0
LAYER
  2
CYAN2
  70
0
  62
4
  6
CONTINUOUS
  0
LAYER
  2
RED2
  70
0
  62
1
  6
CONTINUOUS
  0
LAYER
  2
MAGENTA2
  70
0
  62
6
  6
CONTINUOUS
  0
LAYER
  2
BROWN2
  70
0
  62
54
  6
CONTINUOUS
  0
LAYER
  2
BLUE3
  70
0
  62
171
  6
CONTINUOUS
  0
LAYER
  2
GREEN3
  70
0
  62
91
  6
CONTINUOUS
  0
LAYER
  2
CYAN3
  70
0
  62
131
  6
CONTINUOUS
  0
LAYER
  2
RED3
  70
0
  62
11
  6
CONTINUOUS
  0
LAYER
  2
MAGENTA3
  70
0
  62
221
  6
CONTINUOUS
  0
LAYER
  2
YELLOW3
  70
0
  62
2
  6
CONTINUOUS
  0
LAYER
  2
BLUE4
  70
0
  62
5
  6
CONTINUOUS
  0
LAYER
  2
GREEN4
  70
0
  62
3
  6
CONTINUOUS
  0
LAYER
  2
CYAN4
  70
0
  62
4
  6
CONTINUOUS
  0
LAYER
  2
RED4
  70
0
  62
1
  6
CONTINUOUS
  0
LAYER
  2
MAGENTA4
  70
0
  62
6
  6
CONTINUOUS
  0
LAYER
  2
YELLOW4
  70
0
  62
2
  6
CONTINUOUS
  0
ENDTAB
  0
ENDSEC
  0
SECTION
  2
ENTITIES
0
LINE
8
BLACK
6
CONTINUOUS
10
107.191
20
-132.214
11
107.2
21
-132.215
0
LINE
8
BLACK
6
CONTINUOUS
10
107.2
20
-132.215
11
107.211
21
-132.218
0
LINE
8
BLACK
6
CONTINUOUS
10
107.211
20
-132.218
11
107.221
21
-132.224
0
LINE
8
BLACK
6
CONTINUOUS
10
107.221
20
-132.224
11
107.231
21
-132.231
0
LINE
8
BLACK
6
CONTINUOUS
10
107.231
20
-132.231
11
107.238
21
-132.241
0
LINE
8
BLACK
6
CONTINUOUS
10
107.238
20
-132.241
11
107.244
21
-132.251
0
LINE
8
BLACK
6
CONTINUOUS
10
107.244
20
-132.251
11
107.247
21
-132.262
0
LINE
8
BLACK
6
CONTINUOUS
10
107.247
20
-132.262
11
107.248
21
-132.274
0
LINE
8
BLACK
6
CONTINUOUS
10
107.248
20
-132.274
11
107.248
21
-132.277
0
LINE
8
BLACK
6
CONTINUOUS
10
107.248
20
-132.277
11
107.248
21
-134.814
0
LINE
8
BLACK
6
CONTINUOUS
10
107.248
20
-134.814
11
109.785
21
-134.814
0
LINE
8
BLACK
6
CONTINUOUS
10
109.785
20
-134.814
11
109.788
21
-134.814
0
LINE
8
BLACK
6
CONTINUOUS
10
109.788
20
-134.814
11
109.791
21
-134.814
0
LINE
8
BLACK
6
CONTINUOUS
10
109.791
20
-134.814
11
109.8
21
-134.815
0
LINE
8
BLACK
6
CONTINUOUS
10
109.8
20
-134.815
11
109.811
21
-134.818
0
LINE
8
BLACK
6
CONTINUOUS
10
109.811
20
-134.818
11
109.821
21
-134.824
0
LINE
8
BLACK
6
CONTINUOUS
10
109.821
20
-134.824
11
109.831
21
-134.831
0
LINE
8
BLACK
6
CONTINUOUS
10
109.831
20
-134.831
11
109.838
21
-134.841
0
LINE
8
BLACK
6
CONTINUOUS
10
109.838
20
-134.841
11
109.844
21
-134.851
0
LINE
8
BLACK
6
CONTINUOUS
10
109.844
20
-134.851
11
109.847
21
-134.862
0
LINE
8
BLACK
6
CONTINUOUS
10
109.847
20
-134.862
11
109.848
21
-134.874
0
LINE
8
BLACK
6
CONTINUOUS
10
109.848
20
-134.874
11
109.848
21
-134.877
0
LINE
8
BLACK
6
CONTINUOUS
10
109.848
20
-134.877
11
109.848
21
-137.471
0
LINE
8
BLACK
6
CONTINUOUS
10
109.848
20
-137.471
11
109.848
21
-137.474
0
LINE
8
BLACK
6
CONTINUOUS
10
109.848
20
-137.474
11
109.847
21
-137.486
0
LINE
8
BLACK
6
CONTINUOUS
10
109.847
20
-137.486
11
109.844
21
-137.497
0
LINE
8
BLACK
6
CONTINUOUS
10
109.844
20
-137.497
11
109.838
21
-137.507
0
LINE
8
BLACK
6
CONTINUOUS
10
109.838
20
-137.507
11
109.831
21
-137.517
0
LINE
8
BLACK
6
CONTINUOUS
10
109.831
20
-137.517
11
109.821
21
-137.524
0
LINE
8
BLACK
6
CONTINUOUS
10
109.821
20
-137.524
11
109.811
21
-137.53
0
LINE
8
BLACK
6
CONTINUOUS
10
109.811
20
-137.53
11
109.8
21
-137.533
0
LINE
8
BLACK
6
CONTINUOUS
10
109.8
20
-137.533
11
109.791
21
-137.534
0
LINE
8
BLACK
6
CONTINUOUS
10
109.791
20
-137.534
11
109.791
21
-137.534
0
LINE
8
BLACK
6
CONTINUOUS
10
109.791
20
-137.534
11
109.788
21
-137.534
0
LINE
8
BLACK
6
CONTINUOUS
10
109.788
20
-137.534
11
109.785
21
-137.534
0
LINE
8
BLACK
6
CONTINUOUS
10
109.785
20
-137.534
11
58.8709
21
-137.534
0
LINE
8
BLACK
6
CONTINUOUS
10
58.8709
20
-137.534
11
58.868
21
-137.534
0
LINE
8
BLACK
6
CONTINUOUS
10
58.868
20
-137.534
11
58.8562
21
-137.533
0
LINE
8
BLACK
6
CONTINUOUS
10
58.8562
20
-137.533
11
58.8449
21
-137.53
0
LINE
8
BLACK
6
CONTINUOUS
10
58.8449
20
-137.53
11
58.8345
21
-137.524
0
LINE
8
BLACK
6
CONTINUOUS
10
58.8345
20
-137.524
11
58.8254
21
-137.517
0
LINE
8
BLACK
6
CONTINUOUS
10
58.8254
20
-137.517
11
58.8179
21
-137.507
0
LINE
8
BLACK
6
CONTINUOUS
10
58.8179
20
-137.507
11
58.8123
21
-137.497
0
LINE
8
BLACK
6
CONTINUOUS
10
58.8123
20
-137.497
11
58.8089
21
-137.486
0
LINE
8
BLACK
6
CONTINUOUS
10
58.8089
20
-137.486
11
58.8077
21
-137.474
0
LINE
8
BLACK
6
CONTINUOUS
10
58.8077
20
-137.474
11
58.808
21
-137.471
0
LINE
8
BLACK
6
CONTINUOUS
10
58.808
20
-137.471
11
58.808
21
-132.277
0
LINE
8
BLACK
6
CONTINUOUS
10
58.808
20
-132.277
11
58.8077
21
-132.274
0
LINE
8
BLACK
6
CONTINUOUS
10
58.8077
20
-132.274
11
58.8089
21
-132.262
0
LINE
8
BLACK
6
CONTINUOUS
10
58.8089
20
-132.262
11
58.8123
21
-132.251
0
LINE
8
BLACK
6
CONTINUOUS
10
58.8123
20
-132.251
11
58.8179
21
-132.241
0
LINE
8
BLACK
6
CONTINUOUS
10
58.8179
20
-132.241
11
58.8254
21
-132.231
0
LINE
8
BLACK
6
CONTINUOUS
10
58.8254
20
-132.231
11
58.8345
21
-132.224
0
LINE
8
BLACK
6
CONTINUOUS
10
58.8345
20
-132.224
11
58.8449
21
-132.218
0
LINE
8
BLACK
6
CONTINUOUS
10
58.8449
20
-132.218
11
58.8562
21
-132.215
0
LINE
8
BLACK
6
CONTINUOUS
10
58.8562
20
-132.215
11
58.8651
21
-132.214
0
LINE
8
BLACK
6
CONTINUOUS
10
58.8651
20
-132.214
11
58.8651
21
-132.214
0
LINE
8
BLACK
6
CONTINUOUS
10
58.8651
20
-132.214
11
58.868
21
-132.214
0
LINE
8
BLACK
6
CONTINUOUS
10
58.868
20
-132.214
11
58.8709
21
-132.214
0
LINE
8
BLACK
6
CONTINUOUS
10
58.8709
20
-132.214
11
107.185
21
-132.214
0
LINE
8
BLACK
6
CONTINUOUS
10
107.185
20
-132.214
11
107.188
21
-132.214
0
LINE
8
BLACK
6
CONTINUOUS
10
107.188
20
-132.214
11
107.191
21
-132.214
0
LINE
8
BLACK
6
CONTINUOUS
10
58.928
20
-132.334
11
58.928
21
-137.414
0
LINE
8
BLACK
6
CONTINUOUS
10
58.928
20
-137.414
11
109.728
21
-137.414
0
LINE
8
BLACK
6
CONTINUOUS
10
109.728
20
-137.414
11
109.728
21
-134.934
0
LINE
8
BLACK
6
CONTINUOUS
10
109.728
20
-134.934
11
107.191
21
-134.934
0
LINE
8
BLACK
6
CONTINUOUS
10
107.191
20
-134.934
11
107.188
21
-134.934
0
LINE
8
BLACK
6
CONTINUOUS
10
107.188
20
-134.934
11
107.176
21
-134.933
0
LINE
8
BLACK
6
CONTINUOUS
10
107.176
20
-134.933
11
107.165
21
-134.93
0
LINE
8
BLACK
6
CONTINUOUS
10
107.165
20
-134.93
11
107.155
21
-134.924
0
LINE
8
BLACK
6
CONTINUOUS
10
107.155
20
-134.924
11
107.145
21
-134.917
0
LINE
8
BLACK
6
CONTINUOUS
10
107.145
20
-134.917
11
107.138
21
-134.907
0
LINE
8
BLACK
6
CONTINUOUS
10
107.138
20
-134.907
11
107.135
21
-134.901
0
LINE
8
BLACK
6
CONTINUOUS
10
107.135
20
-134.901
11
107.132
21
-134.897
0
LINE
8
BLACK
6
CONTINUOUS
10
107.132
20
-134.897
11
107.129
21
-134.886
0
LINE
8
BLACK
6
CONTINUOUS
10
107.129
20
-134.886
11
107.128
21
-134.874
0
LINE
8
BLACK
6
CONTINUOUS
10
107.128
20
-134.874
11
107.128
21
-134.871
0
LINE
8
BLACK
6
CONTINUOUS
10
107.128
20
-134.871
11
107.128
21
-132.334
0
LINE
8
BLACK
6
CONTINUOUS
10
107.128
20
-132.334
11
58.928
21
-132.334
0
LINE
8
BLACK
6
CONTINUOUS
10
111.777
20
-135.132
11
111.791
21
-135.134
0
LINE
8
BLACK
6
CONTINUOUS
10
111.791
20
-135.134
11
111.805
21
-135.138
0
LINE
8
BLACK
6
CONTINUOUS
10
111.805
20
-135.138
11
111.818
21
-135.145
0
LINE
8
BLACK
6
CONTINUOUS
10
111.818
20
-135.145
11
111.829
21
-135.155
0
LINE
8
BLACK
6
CONTINUOUS
10
111.829
20
-135.155
11
111.838
21
-135.166
0
LINE
8
BLACK
6
CONTINUOUS
10
111.838
20
-135.166
11
111.845
21
-135.179
0
LINE
8
BLACK
6
CONTINUOUS
10
111.845
20
-135.179
11
111.849
21
-135.193
0
LINE
8
BLACK
6
CONTINUOUS
10
111.849
20
-135.193
11
111.851
21
-135.208
0
LINE
8
BLACK
6
CONTINUOUS
10
111.851
20
-135.208
11
111.849
21
-135.222
0
LINE
8
BLACK
6
CONTINUOUS
10
111.849
20
-135.222
11
111.845
21
-135.236
0
LINE
8
BLACK
6
CONTINUOUS
10
111.845
20
-135.236
11
111.838
21
-135.249
0
LINE
8
BLACK
6
CONTINUOUS
10
111.838
20
-135.249
11
111.828
21
-135.261
0
LINE
8
BLACK
6
CONTINUOUS
10
111.828
20
-135.261
11
111.817
21
-135.27
0
LINE
8
BLACK
6
CONTINUOUS
10
111.817
20
-135.27
11
111.804
21
-135.277
0
LINE
8
BLACK
6
CONTINUOUS
10
111.804
20
-135.277
11
111.79
21
-135.281
0
LINE
8
BLACK
6
CONTINUOUS
10
111.79
20
-135.281
11
111.776
21
-135.282
0
LINE
8
BLACK
6
CONTINUOUS
10
111.776
20
-135.282
11
111.074
21
-135.282
0
LINE
8
BLACK
6
CONTINUOUS
10
111.074
20
-135.282
11
110.959
21
-135.321
0
LINE
8
BLACK
6
CONTINUOUS
10
110.959
20
-135.321
11
110.889
21
-135.391
0
LINE
8
BLACK
6
CONTINUOUS
10
110.889
20
-135.391
11
110.851
21
-135.505
0
LINE
8
BLACK
6
CONTINUOUS
10
110.851
20
-135.505
11
110.851
21
-135.588
0
LINE
8
BLACK
6
CONTINUOUS
10
110.851
20
-135.588
11
110.851
21
-135.589
0
LINE
8
BLACK
6
CONTINUOUS
10
110.851
20
-135.589
11
110.849
21
-135.604
0
LINE
8
BLACK
6
CONTINUOUS
10
110.849
20
-135.604
11
110.845
21
-135.618
0
LINE
8
BLACK
6
CONTINUOUS
10
110.845
20
-135.618
11
110.838
21
-135.631
0
LINE
8
BLACK
6
CONTINUOUS
10
110.838
20
-135.631
11
110.828
21
-135.642
0
LINE
8
BLACK
6
CONTINUOUS
10
110.828
20
-135.642
11
110.817
21
-135.651
0
LINE
8
BLACK
6
CONTINUOUS
10
110.817
20
-135.651
11
110.804
21
-135.658
0
LINE
8
BLACK
6
CONTINUOUS
10
110.804
20
-135.658
11
110.79
21
-135.662
0
LINE
8
BLACK
6
CONTINUOUS
10
110.79
20
-135.662
11
110.775
21
-135.663
0
LINE
8
BLACK
6
CONTINUOUS
10
110.775
20
-135.663
11
110.761
21
-135.662
0
LINE
8
BLACK
6
CONTINUOUS
10
110.761
20
-135.662
11
110.747
21
-135.657
0
LINE
8
BLACK
6
CONTINUOUS
10
110.747
20
-135.657
11
110.734
21
-135.65
0
LINE
8
BLACK
6
CONTINUOUS
10
110.734
20
-135.65
11
110.722
21
-135.641
0
LINE
8
BLACK
6
CONTINUOUS
10
110.722
20
-135.641
11
110.713
21
-135.63
0
LINE
8
BLACK
6
CONTINUOUS
10
110.713
20
-135.63
11
110.706
21
-135.617
0
LINE
8
BLACK
6
CONTINUOUS
10
110.706
20
-135.617
11
110.702
21
-135.603
0
LINE
8
BLACK
6
CONTINUOUS
10
110.702
20
-135.603
11
110.701
21
-135.588
0
LINE
8
BLACK
6
CONTINUOUS
10
110.701
20
-135.588
11
110.701
21
-135.493
0
LINE
8
BLACK
6
CONTINUOUS
10
110.701
20
-135.493
11
110.701
21
-135.492
0
LINE
8
BLACK
6
CONTINUOUS
10
110.701
20
-135.492
11
110.701
21
-135.488
0
LINE
8
BLACK
6
CONTINUOUS
10
110.701
20
-135.488
11
110.701
21
-135.484
0
LINE
8
BLACK
6
CONTINUOUS
10
110.701
20
-135.484
11
110.702
21
-135.481
0
LINE
8
BLACK
6
CONTINUOUS
10
110.702
20
-135.481
11
110.702
21
-135.477
0
LINE
8
BLACK
6
CONTINUOUS
10
110.702
20
-135.477
11
110.704
21
-135.473
0
LINE
8
BLACK
6
CONTINUOUS
10
110.704
20
-135.473
11
110.704
21
-135.469
0
LINE
8
BLACK
6
CONTINUOUS
10
110.704
20
-135.469
11
110.752
21
-135.326
0
LINE
8
BLACK
6
CONTINUOUS
10
110.752
20
-135.326
11
110.752
21
-135.325
0
LINE
8
BLACK
6
CONTINUOUS
10
110.752
20
-135.325
11
110.753
21
-135.323
0
LINE
8
BLACK
6
CONTINUOUS
10
110.753
20
-135.323
11
110.754
21
-135.321
0
LINE
8
BLACK
6
CONTINUOUS
10
110.754
20
-135.321
11
110.756
21
-135.317
0
LINE
8
BLACK
6
CONTINUOUS
10
110.756
20
-135.317
11
110.759
21
-135.312
0
LINE
8
BLACK
6
CONTINUOUS
10
110.759
20
-135.312
11
110.76
21
-135.31
0
LINE
8
BLACK
6
CONTINUOUS
10
110.76
20
-135.31
11
110.761
21
-135.308
0
LINE
8
BLACK
6
CONTINUOUS
10
110.761
20
-135.308
11
110.764
21
-135.304
0
LINE
8
BLACK
6
CONTINUOUS
10
110.764
20
-135.304
11
110.767
21
-135.3
0
LINE
8
BLACK
6
CONTINUOUS
10
110.767
20
-135.3
11
110.769
21
-135.299
0
LINE
8
BLACK
6
CONTINUOUS
10
110.769
20
-135.299
11
110.77
21
-135.297
0
LINE
8
BLACK
6
CONTINUOUS
10
110.77
20
-135.297
11
110.865
21
-135.202
0
LINE
8
BLACK
6
CONTINUOUS
10
110.865
20
-135.202
11
110.866
21
-135.201
0
LINE
8
BLACK
6
CONTINUOUS
10
110.866
20
-135.201
11
110.868
21
-135.2
0
LINE
8
BLACK
6
CONTINUOUS
10
110.868
20
-135.2
11
110.869
21
-135.198
0
LINE
8
BLACK
6
CONTINUOUS
10
110.869
20
-135.198
11
110.874
21
-135.195
0
LINE
8
BLACK
6
CONTINUOUS
10
110.874
20
-135.195
11
110.878
21
-135.192
0
LINE
8
BLACK
6
CONTINUOUS
10
110.878
20
-135.192
11
110.88
21
-135.191
0
LINE
8
BLACK
6
CONTINUOUS
10
110.88
20
-135.191
11
110.881
21
-135.19
0
LINE
8
BLACK
6
CONTINUOUS
10
110.881
20
-135.19
11
110.886
21
-135.188
0
LINE
8
BLACK
6
CONTINUOUS
10
110.886
20
-135.188
11
110.891
21
-135.185
0
LINE
8
BLACK
6
CONTINUOUS
10
110.891
20
-135.185
11
110.893
21
-135.185
0
LINE
8
BLACK
6
CONTINUOUS
10
110.893
20
-135.185
11
110.895
21
-135.184
0
LINE
8
BLACK
6
CONTINUOUS
10
110.895
20
-135.184
11
111.038
21
-135.136
0
LINE
8
BLACK
6
CONTINUOUS
10
111.038
20
-135.136
11
111.039
21
-135.136
0
LINE
8
BLACK
6
CONTINUOUS
10
111.039
20
-135.136
11
111.043
21
-135.135
0
LINE
8
BLACK
6
CONTINUOUS
10
111.043
20
-135.135
11
111.047
21
-135.134
0
LINE
8
BLACK
6
CONTINUOUS
10
111.047
20
-135.134
11
111.05
21
-135.133
0
LINE
8
BLACK
6
CONTINUOUS
10
111.05
20
-135.133
11
111.053
21
-135.133
0
LINE
8
BLACK
6
CONTINUOUS
10
111.053
20
-135.133
11
111.057
21
-135.133
0
LINE
8
BLACK
6
CONTINUOUS
10
111.057
20
-135.133
11
111.061
21
-135.132
0
LINE
8
BLACK
6
CONTINUOUS
10
111.061
20
-135.132
11
111.776
21
-135.132
0
LINE
8
BLACK
6
CONTINUOUS
10
111.776
20
-135.132
11
111.777
21
-135.132
0
LINE
8
BLACK
6
CONTINUOUS
10
111.586
20
-134.132
11
111.588
21
-134.133
0
LINE
8
BLACK
6
CONTINUOUS
10
111.588
20
-134.133
11
111.591
21
-134.133
0
LINE
8
BLACK
6
CONTINUOUS
10
111.591
20
-134.133
11
111.596
21
-134.133
0
LINE
8
BLACK
6
CONTINUOUS
10
111.596
20
-134.133
11
111.601
21
-134.134
0
LINE
8
BLACK
6
CONTINUOUS
10
111.601
20
-134.134
11
111.603
21
-134.135
0
LINE
8
BLACK
6
CONTINUOUS
10
111.603
20
-134.135
11
111.605
21
-134.135
0
LINE
8
BLACK
6
CONTINUOUS
10
111.605
20
-134.135
11
111.61
21
-134.137
0
LINE
8
BLACK
6
CONTINUOUS
10
111.61
20
-134.137
11
111.615
21
-134.138
0
LINE
8
BLACK
6
CONTINUOUS
10
111.615
20
-134.138
11
111.617
21
-134.139
0
LINE
8
BLACK
6
CONTINUOUS
10
111.617
20
-134.139
11
111.619
21
-134.14
0
LINE
8
BLACK
6
CONTINUOUS
10
111.619
20
-134.14
11
111.714
21
-134.188
0
LINE
8
BLACK
6
CONTINUOUS
10
111.714
20
-134.188
11
111.715
21
-134.188
0
LINE
8
BLACK
6
CONTINUOUS
10
111.715
20
-134.188
11
111.718
21
-134.191
0
LINE
8
BLACK
6
CONTINUOUS
10
111.718
20
-134.191
11
111.722
21
-134.193
0
LINE
8
BLACK
6
CONTINUOUS
10
111.722
20
-134.193
11
111.725
21
-134.195
0
LINE
8
BLACK
6
CONTINUOUS
10
111.725
20
-134.195
11
111.727
21
-134.196
0
LINE
8
BLACK
6
CONTINUOUS
10
111.727
20
-134.196
11
111.73
21
-134.199
0
LINE
8
BLACK
6
CONTINUOUS
10
111.73
20
-134.199
11
111.733
21
-134.202
0
LINE
8
BLACK
6
CONTINUOUS
10
111.733
20
-134.202
11
111.781
21
-134.25
0
LINE
8
BLACK
6
CONTINUOUS
10
111.781
20
-134.25
11
111.782
21
-134.25
0
LINE
8
BLACK
6
CONTINUOUS
10
111.782
20
-134.25
11
111.784
21
-134.254
0
LINE
8
BLACK
6
CONTINUOUS
10
111.784
20
-134.254
11
111.787
21
-134.257
0
LINE
8
BLACK
6
CONTINUOUS
10
111.787
20
-134.257
11
111.789
21
-134.259
0
LINE
8
BLACK
6
CONTINUOUS
10
111.789
20
-134.259
11
111.791
21
-134.262
0
LINE
8
BLACK
6
CONTINUOUS
10
111.791
20
-134.262
11
111.793
21
-134.265
0
LINE
8
BLACK
6
CONTINUOUS
10
111.793
20
-134.265
11
111.795
21
-134.269
0
LINE
8
BLACK
6
CONTINUOUS
10
111.795
20
-134.269
11
111.843
21
-134.364
0
LINE
8
BLACK
6
CONTINUOUS
10
111.843
20
-134.364
11
111.843
21
-134.365
0
LINE
8
BLACK
6
CONTINUOUS
10
111.843
20
-134.365
11
111.844
21
-134.367
0
LINE
8
BLACK
6
CONTINUOUS
10
111.844
20
-134.367
11
111.845
21
-134.369
0
LINE
8
BLACK
6
CONTINUOUS
10
111.845
20
-134.369
11
111.846
21
-134.374
0
LINE
8
BLACK
6
CONTINUOUS
10
111.846
20
-134.374
11
111.848
21
-134.379
0
LINE
8
BLACK
6
CONTINUOUS
10
111.848
20
-134.379
11
111.849
21
-134.381
0
LINE
8
BLACK
6
CONTINUOUS
10
111.849
20
-134.381
11
111.849
21
-134.383
0
LINE
8
BLACK
6
CONTINUOUS
10
111.849
20
-134.383
11
111.85
21
-134.388
0
LINE
8
BLACK
6
CONTINUOUS
10
111.85
20
-134.388
11
111.85
21
-134.393
0
LINE
8
BLACK
6
CONTINUOUS
10
111.85
20
-134.393
11
111.85
21
-134.396
0
LINE
8
BLACK
6
CONTINUOUS
10
111.85
20
-134.396
11
111.851
21
-134.398
0
LINE
8
BLACK
6
CONTINUOUS
10
111.851
20
-134.398
11
111.851
21
-134.636
0
LINE
8
BLACK
6
CONTINUOUS
10
111.851
20
-134.636
11
111.851
21
-134.637
0
LINE
8
BLACK
6
CONTINUOUS
10
111.851
20
-134.637
11
111.85
21
-134.639
0
LINE
8
BLACK
6
CONTINUOUS
10
111.85
20
-134.639
11
111.85
21
-134.641
0
LINE
8
BLACK
6
CONTINUOUS
10
111.85
20
-134.641
11
111.85
21
-134.646
0
LINE
8
BLACK
6
CONTINUOUS
10
111.85
20
-134.646
11
111.849
21
-134.651
0
LINE
8
BLACK
6
CONTINUOUS
10
111.849
20
-134.651
11
111.848
21
-134.654
0
LINE
8
BLACK
6
CONTINUOUS
10
111.848
20
-134.654
11
111.848
21
-134.656
0
LINE
8
BLACK
6
CONTINUOUS
10
111.848
20
-134.656
11
111.846
21
-134.661
0
LINE
8
BLACK
6
CONTINUOUS
10
111.846
20
-134.661
11
111.845
21
-134.665
0
LINE
8
BLACK
6
CONTINUOUS
10
111.845
20
-134.665
11
111.843
21
-134.667
0
LINE
8
BLACK
6
CONTINUOUS
10
111.843
20
-134.667
11
111.843
21
-134.669
0
LINE
8
BLACK
6
CONTINUOUS
10
111.843
20
-134.669
11
111.795
21
-134.765
0
LINE
8
BLACK
6
CONTINUOUS
10
111.795
20
-134.765
11
111.795
21
-134.766
0
LINE
8
BLACK
6
CONTINUOUS
10
111.795
20
-134.766
11
111.792
21
-134.769
0
LINE
8
BLACK
6
CONTINUOUS
10
111.792
20
-134.769
11
111.79
21
-134.773
0
LINE
8
BLACK
6
CONTINUOUS
10
111.79
20
-134.773
11
111.788
21
-134.775
0
LINE
8
BLACK
6
CONTINUOUS
10
111.788
20
-134.775
11
111.787
21
-134.778
0
LINE
8
BLACK
6
CONTINUOUS
10
111.787
20
-134.778
11
111.784
21
-134.781
0
LINE
8
BLACK
6
CONTINUOUS
10
111.784
20
-134.781
11
111.781
21
-134.784
0
LINE
8
BLACK
6
CONTINUOUS
10
111.781
20
-134.784
11
111.733
21
-134.832
0
LINE
8
BLACK
6
CONTINUOUS
10
111.733
20
-134.832
11
111.733
21
-134.833
0
LINE
8
BLACK
6
CONTINUOUS
10
111.733
20
-134.833
11
111.721
21
-134.842
0
LINE
8
BLACK
6
CONTINUOUS
10
111.721
20
-134.842
11
111.708
21
-134.848
0
LINE
8
BLACK
6
CONTINUOUS
10
111.708
20
-134.848
11
111.694
21
-134.852
0
LINE
8
BLACK
6
CONTINUOUS
10
111.694
20
-134.852
11
111.68
21
-134.854
0
LINE
8
BLACK
6
CONTINUOUS
10
111.68
20
-134.854
11
111.665
21
-134.852
0
LINE
8
BLACK
6
CONTINUOUS
10
111.665
20
-134.852
11
111.651
21
-134.848
0
LINE
8
BLACK
6
CONTINUOUS
10
111.651
20
-134.848
11
111.638
21
-134.841
0
LINE
8
BLACK
6
CONTINUOUS
10
111.638
20
-134.841
11
111.627
21
-134.831
0
LINE
8
BLACK
6
CONTINUOUS
10
111.627
20
-134.831
11
111.618
21
-134.82
0
LINE
8
BLACK
6
CONTINUOUS
10
111.618
20
-134.82
11
111.611
21
-134.807
0
LINE
8
BLACK
6
CONTINUOUS
10
111.611
20
-134.807
11
111.607
21
-134.793
0
LINE
8
BLACK
6
CONTINUOUS
10
111.607
20
-134.793
11
111.605
21
-134.778
0
LINE
8
BLACK
6
CONTINUOUS
10
111.605
20
-134.778
11
111.607
21
-134.764
0
LINE
8
BLACK
6
CONTINUOUS
10
111.607
20
-134.764
11
111.611
21
-134.75
0
LINE
8
BLACK
6
CONTINUOUS
10
111.611
20
-134.75
11
111.618
21
-134.737
0
LINE
8
BLACK
6
CONTINUOUS
10
111.618
20
-134.737
11
111.627
21
-134.726
0
LINE
8
BLACK
6
CONTINUOUS
10
111.627
20
-134.726
11
111.666
21
-134.687
0
LINE
8
BLACK
6
CONTINUOUS
10
111.666
20
-134.687
11
111.701
21
-134.618
0
LINE
8
BLACK
6
CONTINUOUS
10
111.701
20
-134.618
11
111.701
21
-134.416
0
LINE
8
BLACK
6
CONTINUOUS
10
111.701
20
-134.416
11
111.666
21
-134.347
0
LINE
8
BLACK
6
CONTINUOUS
10
111.666
20
-134.347
11
111.636
21
-134.317
0
LINE
8
BLACK
6
CONTINUOUS
10
111.636
20
-134.317
11
111.567
21
-134.282
0
LINE
8
BLACK
6
CONTINUOUS
10
111.567
20
-134.282
11
111.502
21
-134.282
0
LINE
8
BLACK
6
CONTINUOUS
10
111.502
20
-134.282
11
111.388
21
-134.321
0
LINE
8
BLACK
6
CONTINUOUS
10
111.388
20
-134.321
11
110.829
21
-134.879
0
LINE
8
BLACK
6
CONTINUOUS
10
110.829
20
-134.879
11
110.828
21
-134.88
0
LINE
8
BLACK
6
CONTINUOUS
10
110.828
20
-134.88
11
110.828
21
-134.88
0
LINE
8
BLACK
6
CONTINUOUS
10
110.828
20
-134.88
11
110.828
21
-134.88
0
LINE
8
BLACK
6
CONTINUOUS
10
110.828
20
-134.88
11
110.828
21
-134.88
0
LINE
8
BLACK
6
CONTINUOUS
10
110.828
20
-134.88
11
110.822
21
-134.885
0
LINE
8
BLACK
6
CONTINUOUS
10
110.822
20
-134.885
11
110.817
21
-134.889
0
LINE
8
BLACK
6
CONTINUOUS
10
110.817
20
-134.889
11
110.817
21
-134.889
0
LINE
8
BLACK
6
CONTINUOUS
10
110.817
20
-134.889
11
110.816
21
-134.889
0
LINE
8
BLACK
6
CONTINUOUS
10
110.816
20
-134.889
11
110.81
21
-134.893
0
LINE
8
BLACK
6
CONTINUOUS
10
110.81
20
-134.893
11
110.804
21
-134.896
0
LINE
8
BLACK
6
CONTINUOUS
10
110.804
20
-134.896
11
110.804
21
-134.896
0
LINE
8
BLACK
6
CONTINUOUS
10
110.804
20
-134.896
11
110.803
21
-134.896
0
LINE
8
BLACK
6
CONTINUOUS
10
110.803
20
-134.896
11
110.797
21
-134.898
0
LINE
8
BLACK
6
CONTINUOUS
10
110.797
20
-134.898
11
110.79
21
-134.9
0
LINE
8
BLACK
6
CONTINUOUS
10
110.79
20
-134.9
11
110.79
21
-134.9
0
LINE
8
BLACK
6
CONTINUOUS
10
110.79
20
-134.9
11
110.789
21
-134.9
0
LINE
8
BLACK
6
CONTINUOUS
10
110.789
20
-134.9
11
110.782
21
-134.901
0
LINE
8
BLACK
6
CONTINUOUS
10
110.782
20
-134.901
11
110.775
21
-134.901
0
LINE
8
BLACK
6
CONTINUOUS
10
110.775
20
-134.901
11
110.775
21
-134.901
0
LINE
8
BLACK
6
CONTINUOUS
10
110.775
20
-134.901
11
110.775
21
-134.901
0
LINE
8
BLACK
6
CONTINUOUS
10
110.775
20
-134.901
11
110.768
21
-134.901
0
LINE
8
BLACK
6
CONTINUOUS
10
110.768
20
-134.901
11
110.761
21
-134.9
0
LINE
8
BLACK
6
CONTINUOUS
10
110.761
20
-134.9
11
110.76
21
-134.9
0
LINE
8
BLACK
6
CONTINUOUS
10
110.76
20
-134.9
11
110.76
21
-134.9
0
LINE
8
BLACK
6
CONTINUOUS
10
110.76
20
-134.9
11
110.753
21
-134.898
0
LINE
8
BLACK
6
CONTINUOUS
10
110.753
20
-134.898
11
110.747
21
-134.896
0
LINE
8
BLACK
6
CONTINUOUS
10
110.747
20
-134.896
11
110.746
21
-134.895
0
LINE
8
BLACK
6
CONTINUOUS
10
110.746
20
-134.895
11
110.746
21
-134.895
0
LINE
8
BLACK
6
CONTINUOUS
10
110.746
20
-134.895
11
110.74
21
-134.892
0
LINE
8
BLACK
6
CONTINUOUS
10
110.74
20
-134.892
11
110.734
21
-134.889
0
LINE
8
BLACK
6
CONTINUOUS
10
110.734
20
-134.889
11
110.734
21
-134.888
0
LINE
8
BLACK
6
CONTINUOUS
10
110.734
20
-134.888
11
110.733
21
-134.888
0
LINE
8
BLACK
6
CONTINUOUS
10
110.733
20
-134.888
11
110.728
21
-134.884
0
LINE
8
BLACK
6
CONTINUOUS
10
110.728
20
-134.884
11
110.722
21
-134.879
0
LINE
8
BLACK
6
CONTINUOUS
10
110.722
20
-134.879
11
110.722
21
-134.879
0
LINE
8
BLACK
6
CONTINUOUS
10
110.722
20
-134.879
11
110.722
21
-134.879
0
LINE
8
BLACK
6
CONTINUOUS
10
110.722
20
-134.879
11
110.718
21
-134.873
0
LINE
8
BLACK
6
CONTINUOUS
10
110.718
20
-134.873
11
110.713
21
-134.868
0
LINE
8
BLACK
6
CONTINUOUS
10
110.713
20
-134.868
11
110.713
21
-134.868
0
LINE
8
BLACK
6
CONTINUOUS
10
110.713
20
-134.868
11
110.713
21
-134.868
0
LINE
8
BLACK
6
CONTINUOUS
10
110.713
20
-134.868
11
110.71
21
-134.861
0
LINE
8
BLACK
6
CONTINUOUS
10
110.71
20
-134.861
11
110.706
21
-134.855
0
LINE
8
BLACK
6
CONTINUOUS
10
110.706
20
-134.855
11
110.706
21
-134.855
0
LINE
8
BLACK
6
CONTINUOUS
10
110.706
20
-134.855
11
110.706
21
-134.855
0
LINE
8
BLACK
6
CONTINUOUS
10
110.706
20
-134.855
11
110.704
21
-134.848
0
LINE
8
BLACK
6
CONTINUOUS
10
110.704
20
-134.848
11
110.702
21
-134.841
0
LINE
8
BLACK
6
CONTINUOUS
10
110.702
20
-134.841
11
110.702
21
-134.841
0
LINE
8
BLACK
6
CONTINUOUS
10
110.702
20
-134.841
11
110.702
21
-134.841
0
LINE
8
BLACK
6
CONTINUOUS
10
110.702
20
-134.841
11
110.701
21
-134.834
0
LINE
8
BLACK
6
CONTINUOUS
10
110.701
20
-134.834
11
110.701
21
-134.826
0
LINE
8
BLACK
6
CONTINUOUS
10
110.701
20
-134.826
11
110.701
21
-134.207
0
LINE
8
BLACK
6
CONTINUOUS
10
110.701
20
-134.207
11
110.701
21
-134.206
0
LINE
8
BLACK
6
CONTINUOUS
10
110.701
20
-134.206
11
110.702
21
-134.192
0
LINE
8
BLACK
6
CONTINUOUS
10
110.702
20
-134.192
11
110.707
21
-134.178
0
LINE
8
BLACK
6
CONTINUOUS
10
110.707
20
-134.178
11
110.714
21
-134.165
0
LINE
8
BLACK
6
CONTINUOUS
10
110.714
20
-134.165
11
110.723
21
-134.154
0
LINE
8
BLACK
6
CONTINUOUS
10
110.723
20
-134.154
11
110.735
21
-134.145
0
LINE
8
BLACK
6
CONTINUOUS
10
110.735
20
-134.145
11
110.748
21
-134.138
0
LINE
8
BLACK
6
CONTINUOUS
10
110.748
20
-134.138
11
110.762
21
-134.134
0
LINE
8
BLACK
6
CONTINUOUS
10
110.762
20
-134.134
11
110.776
21
-134.132
0
LINE
8
BLACK
6
CONTINUOUS
10
110.776
20
-134.132
11
110.791
21
-134.134
0
LINE
8
BLACK
6
CONTINUOUS
10
110.791
20
-134.134
11
110.805
21
-134.138
0
LINE
8
BLACK
6
CONTINUOUS
10
110.805
20
-134.138
11
110.818
21
-134.145
0
LINE
8
BLACK
6
CONTINUOUS
10
110.818
20
-134.145
11
110.829
21
-134.154
0
LINE
8
BLACK
6
CONTINUOUS
10
110.829
20
-134.154
11
110.838
21
-134.166
0
LINE
8
BLACK
6
CONTINUOUS
10
110.838
20
-134.166
11
110.845
21
-134.179
0
LINE
8
BLACK
6
CONTINUOUS
10
110.845
20
-134.179
11
110.849
21
-134.193
0
LINE
8
BLACK
6
CONTINUOUS
10
110.849
20
-134.193
11
110.851
21
-134.207
0
LINE
8
BLACK
6
CONTINUOUS
10
110.851
20
-134.207
11
110.851
21
-134.645
0
LINE
8
BLACK
6
CONTINUOUS
10
110.851
20
-134.645
11
111.294
21
-134.202
0
LINE
8
BLACK
6
CONTINUOUS
10
111.294
20
-134.202
11
111.295
21
-134.201
0
LINE
8
BLACK
6
CONTINUOUS
10
111.295
20
-134.201
11
111.296
21
-134.2
0
LINE
8
BLACK
6
CONTINUOUS
10
111.296
20
-134.2
11
111.298
21
-134.198
0
LINE
8
BLACK
6
CONTINUOUS
10
111.298
20
-134.198
11
111.302
21
-134.195
0
LINE
8
BLACK
6
CONTINUOUS
10
111.302
20
-134.195
11
111.306
21
-134.192
0
LINE
8
BLACK
6
CONTINUOUS
10
111.306
20
-134.192
11
111.308
21
-134.191
0
LINE
8
BLACK
6
CONTINUOUS
10
111.308
20
-134.191
11
111.31
21
-134.19
0
LINE
8
BLACK
6
CONTINUOUS
10
111.31
20
-134.19
11
111.315
21
-134.188
0
LINE
8
BLACK
6
CONTINUOUS
10
111.315
20
-134.188
11
111.319
21
-134.185
0
LINE
8
BLACK
6
CONTINUOUS
10
111.319
20
-134.185
11
111.321
21
-134.185
0
LINE
8
BLACK
6
CONTINUOUS
10
111.321
20
-134.185
11
111.323
21
-134.184
0
LINE
8
BLACK
6
CONTINUOUS
10
111.323
20
-134.184
11
111.466
21
-134.136
0
LINE
8
BLACK
6
CONTINUOUS
10
111.466
20
-134.136
11
111.467
21
-134.136
0
LINE
8
BLACK
6
CONTINUOUS
10
111.467
20
-134.136
11
111.471
21
-134.135
0
LINE
8
BLACK
6
CONTINUOUS
10
111.471
20
-134.135
11
111.475
21
-134.134
0
LINE
8
BLACK
6
CONTINUOUS
10
111.475
20
-134.134
11
111.478
21
-134.133
0
LINE
8
BLACK
6
CONTINUOUS
10
111.478
20
-134.133
11
111.481
21
-134.133
0
LINE
8
BLACK
6
CONTINUOUS
10
111.481
20
-134.133
11
111.486
21
-134.133
0
LINE
8
BLACK
6
CONTINUOUS
10
111.486
20
-134.133
11
111.49
21
-134.132
0
LINE
8
BLACK
6
CONTINUOUS
10
111.49
20
-134.132
11
111.585
21
-134.132
0
LINE
8
BLACK
6
CONTINUOUS
10
111.585
20
-134.132
11
111.586
21
-134.132
0
LINE
8
BLACK
6
CONTINUOUS
10
109.791
20
-132.214
11
109.8
21
-132.215
0
LINE
8
BLACK
6
CONTINUOUS
10
109.8
20
-132.215
11
109.811
21
-132.218
0
LINE
8
BLACK
6
CONTINUOUS
10
109.811
20
-132.218
11
109.821
21
-132.224
0
LINE
8
BLACK
6
CONTINUOUS
10
109.821
20
-132.224
11
109.831
21
-132.231
0
LINE
8
BLACK
6
CONTINUOUS
10
109.831
20
-132.231
11
109.838
21
-132.241
0
LINE
8
BLACK
6
CONTINUOUS
10
109.838
20
-132.241
11
109.844
21
-132.251
0
LINE
8
BLACK
6
CONTINUOUS
10
109.844
20
-132.251
11
109.847
21
-132.262
0
LINE
8
BLACK
6
CONTINUOUS
10
109.847
20
-132.262
11
109.848
21
-132.274
0
LINE
8
BLACK
6
CONTINUOUS
10
109.848
20
-132.274
11
109.848
21
-132.277
0
LINE
8
BLACK
6
CONTINUOUS
10
109.848
20
-132.277
11
109.848
21
-133.607
0
LINE
8
BLACK
6
CONTINUOUS
10
109.848
20
-133.607
11
109.847
21
-133.616
0
LINE
8
BLACK
6
CONTINUOUS
10
109.847
20
-133.616
11
109.844
21
-133.627
0
LINE
8
BLACK
6
CONTINUOUS
10
109.844
20
-133.627
11
109.838
21
-133.637
0
LINE
8
BLACK
6
CONTINUOUS
10
109.838
20
-133.637
11
109.831
21
-133.647
0
LINE
8
BLACK
6
CONTINUOUS
10
109.831
20
-133.647
11
109.821
21
-133.654
0
LINE
8
BLACK
6
CONTINUOUS
10
109.821
20
-133.654
11
109.811
21
-133.66
0
LINE
8
BLACK
6
CONTINUOUS
10
109.811
20
-133.66
11
109.8
21
-133.663
0
LINE
8
BLACK
6
CONTINUOUS
10
109.8
20
-133.663
11
109.788
21
-133.664
0
LINE
8
BLACK
6
CONTINUOUS
10
109.788
20
-133.664
11
109.776
21
-133.663
0
LINE
8
BLACK
6
CONTINUOUS
10
109.776
20
-133.663
11
109.765
21
-133.66
0
LINE
8
BLACK
6
CONTINUOUS
10
109.765
20
-133.66
11
109.755
21
-133.654
0
LINE
8
BLACK
6
CONTINUOUS
10
109.755
20
-133.654
11
109.745
21
-133.647
0
LINE
8
BLACK
6
CONTINUOUS
10
109.745
20
-133.647
11
109.738
21
-133.637
0
LINE
8
BLACK
6
CONTINUOUS
10
109.738
20
-133.637
11
109.732
21
-133.627
0
LINE
8
BLACK
6
CONTINUOUS
10
109.732
20
-133.627
11
109.729
21
-133.616
0
LINE
8
BLACK
6
CONTINUOUS
10
109.729
20
-133.616
11
109.728
21
-133.607
0
LINE
8
BLACK
6
CONTINUOUS
10
109.728
20
-133.607
11
109.728
21
-132.334
0
LINE
8
BLACK
6
CONTINUOUS
10
109.728
20
-132.334
11
108.455
21
-132.334
0
LINE
8
BLACK
6
CONTINUOUS
10
108.455
20
-132.334
11
108.446
21
-132.333
0
LINE
8
BLACK
6
CONTINUOUS
10
108.446
20
-132.333
11
108.435
21
-132.33
0
LINE
8
BLACK
6
CONTINUOUS
10
108.435
20
-132.33
11
108.425
21
-132.324
0
LINE
8
BLACK
6
CONTINUOUS
10
108.425
20
-132.324
11
108.415
21
-132.317
0
LINE
8
BLACK
6
CONTINUOUS
10
108.415
20
-132.317
11
108.408
21
-132.307
0
LINE
8
BLACK
6
CONTINUOUS
10
108.408
20
-132.307
11
108.402
21
-132.297
0
LINE
8
BLACK
6
CONTINUOUS
10
108.402
20
-132.297
11
108.399
21
-132.286
0
LINE
8
BLACK
6
CONTINUOUS
10
108.399
20
-132.286
11
108.398
21
-132.274
0
LINE
8
BLACK
6
CONTINUOUS
10
108.398
20
-132.274
11
108.399
21
-132.262
0
LINE
8
BLACK
6
CONTINUOUS
10
108.399
20
-132.262
11
108.402
21
-132.251
0
LINE
8
BLACK
6
CONTINUOUS
10
108.402
20
-132.251
11
108.408
21
-132.241
0
LINE
8
BLACK
6
CONTINUOUS
10
108.408
20
-132.241
11
108.415
21
-132.231
0
LINE
8
BLACK
6
CONTINUOUS
10
108.415
20
-132.231
11
108.425
21
-132.224
0
LINE
8
BLACK
6
CONTINUOUS
10
108.425
20
-132.224
11
108.435
21
-132.218
0
LINE
8
BLACK
6
CONTINUOUS
10
108.435
20
-132.218
11
108.446
21
-132.215
0
LINE
8
BLACK
6
CONTINUOUS
10
108.446
20
-132.215
11
108.455
21
-132.214
0
LINE
8
BLACK
6
CONTINUOUS
10
108.455
20
-132.214
11
109.785
21
-132.214
0
LINE
8
BLACK
6
CONTINUOUS
10
109.785
20
-132.214
11
109.788
21
-132.214
0
LINE
8
BLACK
6
CONTINUOUS
10
109.788
20
-132.214
11
109.791
21
-132.214
0
LINE
8
BLACK
6
CONTINUOUS
10
114.363
20
-60.078
11
114.363
21
-60.078
0
LINE
8
BLACK
6
CONTINUOUS
10
114.363
20
-60.078
11
114.372
21
-60.0789
0
LINE
8
BLACK
6
CONTINUOUS
10
114.372
20
-60.0789
11
114.383
21
-60.0823
0
LINE
8
BLACK
6
CONTINUOUS
10
114.383
20
-60.0823
11
114.393
21
-60.0879
0
LINE
8
BLACK
6
CONTINUOUS
10
114.393
20
-60.0879
11
114.403
21
-60.0954
0
LINE
8
BLACK
6
CONTINUOUS
10
114.403
20
-60.0954
11
114.41
21
-60.1045
0
LINE
8
BLACK
6
CONTINUOUS
10
114.41
20
-60.1045
11
114.416
21
-60.1149
0
LINE
8
BLACK
6
CONTINUOUS
10
114.416
20
-60.1149
11
114.419
21
-60.1262
0
LINE
8
BLACK
6
CONTINUOUS
10
114.419
20
-60.1262
11
114.42
21
-60.138
0
LINE
8
BLACK
6
CONTINUOUS
10
114.42
20
-60.138
11
114.42
21
-60.1409
0
LINE
8
BLACK
6
CONTINUOUS
10
114.42
20
-60.1409
11
114.42
21
-123.755
0
LINE
8
BLACK
6
CONTINUOUS
10
114.42
20
-123.755
11
114.42
21
-123.758
0
LINE
8
BLACK
6
CONTINUOUS
10
114.42
20
-123.758
11
114.42
21
-123.761
0
LINE
8
BLACK
6
CONTINUOUS
10
114.42
20
-123.761
11
114.419
21
-123.77
0
LINE
8
BLACK
6
CONTINUOUS
10
114.419
20
-123.77
11
114.416
21
-123.781
0
LINE
8
BLACK
6
CONTINUOUS
10
114.416
20
-123.781
11
114.41
21
-123.791
0
LINE
8
BLACK
6
CONTINUOUS
10
114.41
20
-123.791
11
114.403
21
-123.801
0
LINE
8
BLACK
6
CONTINUOUS
10
114.403
20
-123.801
11
114.393
21
-123.808
0
LINE
8
BLACK
6
CONTINUOUS
10
114.393
20
-123.808
11
114.383
21
-123.814
0
LINE
8
BLACK
6
CONTINUOUS
10
114.383
20
-123.814
11
114.372
21
-123.817
0
LINE
8
BLACK
6
CONTINUOUS
10
114.372
20
-123.817
11
114.36
21
-123.818
0
LINE
8
BLACK
6
CONTINUOUS
10
114.36
20
-123.818
11
114.357
21
-123.818
0
LINE
8
BLACK
6
CONTINUOUS
10
114.357
20
-123.818
11
109.163
21
-123.818
0
LINE
8
BLACK
6
CONTINUOUS
10
109.163
20
-123.818
11
109.16
21
-123.818
0
LINE
8
BLACK
6
CONTINUOUS
10
109.16
20
-123.818
11
109.157
21
-123.818
0
LINE
8
BLACK
6
CONTINUOUS
10
109.157
20
-123.818
11
109.157
21
-123.818
0
LINE
8
BLACK
6
CONTINUOUS
10
109.157
20
-123.818
11
109.148
21
-123.817
0
LINE
8
BLACK
6
CONTINUOUS
10
109.148
20
-123.817
11
109.137
21
-123.814
0
LINE
8
BLACK
6
CONTINUOUS
10
109.137
20
-123.814
11
109.127
21
-123.808
0
LINE
8
BLACK
6
CONTINUOUS
10
109.127
20
-123.808
11
109.117
21
-123.801
0
LINE
8
BLACK
6
CONTINUOUS
10
109.117
20
-123.801
11
109.11
21
-123.791
0
LINE
8
BLACK
6
CONTINUOUS
10
109.11
20
-123.791
11
109.104
21
-123.781
0
LINE
8
BLACK
6
CONTINUOUS
10
109.104
20
-123.781
11
109.101
21
-123.77
0
LINE
8
BLACK
6
CONTINUOUS
10
109.101
20
-123.77
11
109.1
21
-123.758
0
LINE
8
BLACK
6
CONTINUOUS
10
109.1
20
-123.758
11
109.1
21
-123.755
0
LINE
8
BLACK
6
CONTINUOUS
10
109.1
20
-123.755
11
109.1
21
-62.7409
0
LINE
8
BLACK
6
CONTINUOUS
10
109.1
20
-62.7409
11
109.1
21
-62.738
0
LINE
8
BLACK
6
CONTINUOUS
10
109.1
20
-62.738
11
109.101
21
-62.7262
0
LINE
8
BLACK
6
CONTINUOUS
10
109.101
20
-62.7262
11
109.104
21
-62.7149
0
LINE
8
BLACK
6
CONTINUOUS
10
109.104
20
-62.7149
11
109.11
21
-62.7045
0
LINE
8
BLACK
6
CONTINUOUS
10
109.11
20
-62.7045
11
109.117
21
-62.6954
0
LINE
8
BLACK
6
CONTINUOUS
10
109.117
20
-62.6954
11
109.127
21
-62.6879
0
LINE
8
BLACK
6
CONTINUOUS
10
109.127
20
-62.6879
11
109.137
21
-62.6823
0
LINE
8
BLACK
6
CONTINUOUS
10
109.137
20
-62.6823
11
109.148
21
-62.6789
0
LINE
8
BLACK
6
CONTINUOUS
10
109.148
20
-62.6789
11
109.157
21
-62.678
0
LINE
8
BLACK
6
CONTINUOUS
10
109.157
20
-62.678
11
109.16
21
-62.6777
0
LINE
8
BLACK
6
CONTINUOUS
10
109.16
20
-62.6777
11
109.163
21
-62.678
0
LINE
8
BLACK
6
CONTINUOUS
10
109.163
20
-62.678
11
111.7
21
-62.678
0
LINE
8
BLACK
6
CONTINUOUS
10
111.7
20
-62.678
11
111.7
21
-60.1409
0
LINE
8
BLACK
6
CONTINUOUS
10
111.7
20
-60.1409
11
111.7
21
-60.138
0
LINE
8
BLACK
6
CONTINUOUS
10
111.7
20
-60.138
11
111.701
21
-60.1262
0
LINE
8
BLACK
6
CONTINUOUS
10
111.701
20
-60.1262
11
111.704
21
-60.1149
0
LINE
8
BLACK
6
CONTINUOUS
10
111.704
20
-60.1149
11
111.71
21
-60.1045
0
LINE
8
BLACK
6
CONTINUOUS
10
111.71
20
-60.1045
11
111.717
21
-60.0954
0
LINE
8
BLACK
6
CONTINUOUS
10
111.717
20
-60.0954
11
111.727
21
-60.0879
0
LINE
8
BLACK
6
CONTINUOUS
10
111.727
20
-60.0879
11
111.737
21
-60.0823
0
LINE
8
BLACK
6
CONTINUOUS
10
111.737
20
-60.0823
11
111.748
21
-60.0789
0
LINE
8
BLACK
6
CONTINUOUS
10
111.748
20
-60.0789
11
111.757
21
-60.078
0
LINE
8
BLACK
6
CONTINUOUS
10
111.757
20
-60.078
11
111.76
21
-60.0777
0
LINE
8
BLACK
6
CONTINUOUS
10
111.76
20
-60.0777
11
111.763
21
-60.078
0
LINE
8
BLACK
6
CONTINUOUS
10
111.763
20
-60.078
11
114.357
21
-60.078
0
LINE
8
BLACK
6
CONTINUOUS
10
114.357
20
-60.078
11
114.36
21
-60.0777
0
LINE
8
BLACK
6
CONTINUOUS
10
114.36
20
-60.0777
11
114.363
21
-60.078
0
LINE
8
BLACK
6
CONTINUOUS
10
111.82
20
-60.198
11
111.82
21
-62.7351
0
LINE
8
BLACK
6
CONTINUOUS
10
111.82
20
-62.7351
11
111.82
21
-62.738
0
LINE
8
BLACK
6
CONTINUOUS
10
111.82
20
-62.738
11
111.82
21
-62.7409
0
LINE
8
BLACK
6
CONTINUOUS
10
111.82
20
-62.7409
11
111.819
21
-62.7498
0
LINE
8
BLACK
6
CONTINUOUS
10
111.819
20
-62.7498
11
111.816
21
-62.7611
0
LINE
8
BLACK
6
CONTINUOUS
10
111.816
20
-62.7611
11
111.81
21
-62.7715
0
LINE
8
BLACK
6
CONTINUOUS
10
111.81
20
-62.7715
11
111.803
21
-62.7806
0
LINE
8
BLACK
6
CONTINUOUS
10
111.803
20
-62.7806
11
111.793
21
-62.7881
0
LINE
8
BLACK
6
CONTINUOUS
10
111.793
20
-62.7881
11
111.783
21
-62.7937
0
LINE
8
BLACK
6
CONTINUOUS
10
111.783
20
-62.7937
11
111.772
21
-62.7971
0
LINE
8
BLACK
6
CONTINUOUS
10
111.772
20
-62.7971
11
111.76
21
-62.7983
0
LINE
8
BLACK
6
CONTINUOUS
10
111.76
20
-62.7983
11
111.757
21
-62.798
0
LINE
8
BLACK
6
CONTINUOUS
10
111.757
20
-62.798
11
109.22
21
-62.798
0
LINE
8
BLACK
6
CONTINUOUS
10
109.22
20
-62.798
11
109.22
21
-123.698
0
LINE
8
BLACK
6
CONTINUOUS
10
109.22
20
-123.698
11
114.3
21
-123.698
0
LINE
8
BLACK
6
CONTINUOUS
10
114.3
20
-123.698
11
114.3
21
-60.198
0
LINE
8
BLACK
6
CONTINUOUS
10
114.3
20
-60.198
11
111.82
21
-60.198
0
LINE
8
BLACK
6
CONTINUOUS
10
63.5629
20
-60.078
11
63.5629
21
-60.078
0
LINE
8
BLACK
6
CONTINUOUS
10
63.5629
20
-60.078
11
63.5718
21
-60.0789
0
LINE
8
BLACK
6
CONTINUOUS
10
63.5718
20
-60.0789
11
63.5831
21
-60.0823
0
LINE
8
BLACK
6
CONTINUOUS
10
63.5831
20
-60.0823
11
63.5935
21
-60.0879
0
LINE
8
BLACK
6
CONTINUOUS
10
63.5935
20
-60.0879
11
63.6026
21
-60.0954
0
LINE
8
BLACK
6
CONTINUOUS
10
63.6026
20
-60.0954
11
63.6101
21
-60.1045
0
LINE
8
BLACK
6
CONTINUOUS
10
63.6101
20
-60.1045
11
63.6157
21
-60.1149
0
LINE
8
BLACK
6
CONTINUOUS
10
63.6157
20
-60.1149
11
63.6191
21
-60.1262
0
LINE
8
BLACK
6
CONTINUOUS
10
63.6191
20
-60.1262
11
63.6203
21
-60.138
0
LINE
8
BLACK
6
CONTINUOUS
10
63.6203
20
-60.138
11
63.62
21
-60.1409
0
LINE
8
BLACK
6
CONTINUOUS
10
63.62
20
-60.1409
11
63.62
21
-123.755
0
LINE
8
BLACK
6
CONTINUOUS
10
63.62
20
-123.755
11
63.6203
21
-123.758
0
LINE
8
BLACK
6
CONTINUOUS
10
63.6203
20
-123.758
11
63.62
21
-123.761
0
LINE
8
BLACK
6
CONTINUOUS
10
63.62
20
-123.761
11
63.6191
21
-123.77
0
LINE
8
BLACK
6
CONTINUOUS
10
63.6191
20
-123.77
11
63.6157
21
-123.781
0
LINE
8
BLACK
6
CONTINUOUS
10
63.6157
20
-123.781
11
63.6101
21
-123.791
0
LINE
8
BLACK
6
CONTINUOUS
10
63.6101
20
-123.791
11
63.6026
21
-123.801
0
LINE
8
BLACK
6
CONTINUOUS
10
63.6026
20
-123.801
11
63.5935
21
-123.808
0
LINE
8
BLACK
6
CONTINUOUS
10
63.5935
20
-123.808
11
63.5831
21
-123.814
0
LINE
8
BLACK
6
CONTINUOUS
10
63.5831
20
-123.814
11
63.5718
21
-123.817
0
LINE
8
BLACK
6
CONTINUOUS
10
63.5718
20
-123.817
11
63.56
21
-123.818
0
LINE
8
BLACK
6
CONTINUOUS
10
63.56
20
-123.818
11
63.5571
21
-123.818
0
LINE
8
BLACK
6
CONTINUOUS
10
63.5571
20
-123.818
11
58.3629
21
-123.818
0
LINE
8
BLACK
6
CONTINUOUS
10
58.3629
20
-123.818
11
58.36
21
-123.818
0
LINE
8
BLACK
6
CONTINUOUS
10
58.36
20
-123.818
11
58.3571
21
-123.818
0
LINE
8
BLACK
6
CONTINUOUS
10
58.3571
20
-123.818
11
58.3571
21
-123.818
0
LINE
8
BLACK
6
CONTINUOUS
10
58.3571
20
-123.818
11
58.3482
21
-123.817
0
LINE
8
BLACK
6
CONTINUOUS
10
58.3482
20
-123.817
11
58.3369
21
-123.814
0
LINE
8
BLACK
6
CONTINUOUS
10
58.3369
20
-123.814
11
58.3265
21
-123.808
0
LINE
8
BLACK
6
CONTINUOUS
10
58.3265
20
-123.808
11
58.3174
21
-123.801
0
LINE
8
BLACK
6
CONTINUOUS
10
58.3174
20
-123.801
11
58.3099
21
-123.791
0
LINE
8
BLACK
6
CONTINUOUS
10
58.3099
20
-123.791
11
58.3043
21
-123.781
0
LINE
8
BLACK
6
CONTINUOUS
10
58.3043
20
-123.781
11
58.3009
21
-123.77
0
LINE
8
BLACK
6
CONTINUOUS
10
58.3009
20
-123.77
11
58.2997
21
-123.758
0
LINE
8
BLACK
6
CONTINUOUS
10
58.2997
20
-123.758
11
58.3
21
-123.755
0
LINE
8
BLACK
6
CONTINUOUS
10
58.3
20
-123.755
11
58.3
21
-62.7409
0
LINE
8
BLACK
6
CONTINUOUS
10
58.3
20
-62.7409
11
58.2997
21
-62.738
0
LINE
8
BLACK
6
CONTINUOUS
10
58.2997
20
-62.738
11
58.3009
21
-62.7262
0
LINE
8
BLACK
6
CONTINUOUS
10
58.3009
20
-62.7262
11
58.3043
21
-62.7149
0
LINE
8
BLACK
6
CONTINUOUS
10
58.3043
20
-62.7149
11
58.3099
21
-62.7045
0
LINE
8
BLACK
6
CONTINUOUS
10
58.3099
20
-62.7045
11
58.3174
21
-62.6954
0
LINE
8
BLACK
6
CONTINUOUS
10
58.3174
20
-62.6954
11
58.3265
21
-62.6879
0
LINE
8
BLACK
6
CONTINUOUS
10
58.3265
20
-62.6879
11
58.3369
21
-62.6823
0
LINE
8
BLACK
6
CONTINUOUS
10
58.3369
20
-62.6823
11
58.3482
21
-62.6789
0
LINE
8
BLACK
6
CONTINUOUS
10
58.3482
20
-62.6789
11
58.3571
21
-62.678
0
LINE
8
BLACK
6
CONTINUOUS
10
58.3571
20
-62.678
11
58.36
21
-62.6777
0
LINE
8
BLACK
6
CONTINUOUS
10
58.36
20
-62.6777
11
58.3629
21
-62.678
0
LINE
8
BLACK
6
CONTINUOUS
10
58.3629
20
-62.678
11
60.9
21
-62.678
0
LINE
8
BLACK
6
CONTINUOUS
10
60.9
20
-62.678
11
60.9
21
-60.1409
0
LINE
8
BLACK
6
CONTINUOUS
10
60.9
20
-60.1409
11
60.8997
21
-60.138
0
LINE
8
BLACK
6
CONTINUOUS
10
60.8997
20
-60.138
11
60.9009
21
-60.1262
0
LINE
8
BLACK
6
CONTINUOUS
10
60.9009
20
-60.1262
11
60.9043
21
-60.1149
0
LINE
8
BLACK
6
CONTINUOUS
10
60.9043
20
-60.1149
11
60.9099
21
-60.1045
0
LINE
8
BLACK
6
CONTINUOUS
10
60.9099
20
-60.1045
11
60.9174
21
-60.0954
0
LINE
8
BLACK
6
CONTINUOUS
10
60.9174
20
-60.0954
11
60.9265
21
-60.0879
0
LINE
8
BLACK
6
CONTINUOUS
10
60.9265
20
-60.0879
11
60.9369
21
-60.0823
0
LINE
8
BLACK
6
CONTINUOUS
10
60.9369
20
-60.0823
11
60.9482
21
-60.0789
0
LINE
8
BLACK
6
CONTINUOUS
10
60.9482
20
-60.0789
11
60.9571
21
-60.078
0
LINE
8
BLACK
6
CONTINUOUS
10
60.9571
20
-60.078
11
60.96
21
-60.0777
0
LINE
8
BLACK
6
CONTINUOUS
10
60.96
20
-60.0777
11
60.9629
21
-60.078
0
LINE
8
BLACK
6
CONTINUOUS
10
60.9629
20
-60.078
11
63.5571
21
-60.078
0
LINE
8
BLACK
6
CONTINUOUS
10
63.5571
20
-60.078
11
63.56
21
-60.0777
0
LINE
8
BLACK
6
CONTINUOUS
10
63.56
20
-60.0777
11
63.5629
21
-60.078
0
LINE
8
BLACK
6
CONTINUOUS
10
61.02
20
-60.198
11
61.02
21
-62.7351
0
LINE
8
BLACK
6
CONTINUOUS
10
61.02
20
-62.7351
11
61.0203
21
-62.738
0
LINE
8
BLACK
6
CONTINUOUS
10
61.0203
20
-62.738
11
61.02
21
-62.7409
0
LINE
8
BLACK
6
CONTINUOUS
10
61.02
20
-62.7409
11
61.0191
21
-62.7498
0
LINE
8
BLACK
6
CONTINUOUS
10
61.0191
20
-62.7498
11
61.0157
21
-62.7611
0
LINE
8
BLACK
6
CONTINUOUS
10
61.0157
20
-62.7611
11
61.0101
21
-62.7715
0
LINE
8
BLACK
6
CONTINUOUS
10
61.0101
20
-62.7715
11
61.0026
21
-62.7806
0
LINE
8
BLACK
6
CONTINUOUS
10
61.0026
20
-62.7806
11
60.9935
21
-62.7881
0
LINE
8
BLACK
6
CONTINUOUS
10
60.9935
20
-62.7881
11
60.9831
21
-62.7937
0
LINE
8
BLACK
6
CONTINUOUS
10
60.9831
20
-62.7937
11
60.9718
21
-62.7971
0
LINE
8
BLACK
6
CONTINUOUS
10
60.9718
20
-62.7971
11
60.96
21
-62.7983
0
LINE
8
BLACK
6
CONTINUOUS
10
60.96
20
-62.7983
11
60.9571
21
-62.798
0
LINE
8
BLACK
6
CONTINUOUS
10
60.9571
20
-62.798
11
58.42
21
-62.798
0
LINE
8
BLACK
6
CONTINUOUS
10
58.42
20
-62.798
11
58.42
21
-123.698
0
LINE
8
BLACK
6
CONTINUOUS
10
58.42
20
-123.698
11
63.5
21
-123.698
0
LINE
8
BLACK
6
CONTINUOUS
10
63.5
20
-123.698
11
63.5
21
-60.198
0
LINE
8
BLACK
6
CONTINUOUS
10
63.5
20
-60.198
11
61.02
21
-60.198
0
LINE
8
BLACK
6
CONTINUOUS
10
58.3629
20
-60.078
11
59.6929
21
-60.078
0
LINE
8
BLACK
6
CONTINUOUS
10
59.6929
20
-60.078
11
59.7018
21
-60.0789
0
LINE
8
BLACK
6
CONTINUOUS
10
59.7018
20
-60.0789
11
59.7131
21
-60.0823
0
LINE
8
BLACK
6
CONTINUOUS
10
59.7131
20
-60.0823
11
59.7235
21
-60.0879
0
LINE
8
BLACK
6
CONTINUOUS
10
59.7235
20
-60.0879
11
59.7326
21
-60.0954
0
LINE
8
BLACK
6
CONTINUOUS
10
59.7326
20
-60.0954
11
59.7401
21
-60.1045
0
LINE
8
BLACK
6
CONTINUOUS
10
59.7401
20
-60.1045
11
59.7457
21
-60.1149
0
LINE
8
BLACK
6
CONTINUOUS
10
59.7457
20
-60.1149
11
59.7491
21
-60.1262
0
LINE
8
BLACK
6
CONTINUOUS
10
59.7491
20
-60.1262
11
59.7503
21
-60.138
0
LINE
8
BLACK
6
CONTINUOUS
10
59.7503
20
-60.138
11
59.7491
21
-60.1498
0
LINE
8
BLACK
6
CONTINUOUS
10
59.7491
20
-60.1498
11
59.7457
21
-60.1611
0
LINE
8
BLACK
6
CONTINUOUS
10
59.7457
20
-60.1611
11
59.7401
21
-60.1715
0
LINE
8
BLACK
6
CONTINUOUS
10
59.7401
20
-60.1715
11
59.7326
21
-60.1806
0
LINE
8
BLACK
6
CONTINUOUS
10
59.7326
20
-60.1806
11
59.7235
21
-60.1881
0
LINE
8
BLACK
6
CONTINUOUS
10
59.7235
20
-60.1881
11
59.7131
21
-60.1937
0
LINE
8
BLACK
6
CONTINUOUS
10
59.7131
20
-60.1937
11
59.7018
21
-60.1971
0
LINE
8
BLACK
6
CONTINUOUS
10
59.7018
20
-60.1971
11
59.6929
21
-60.198
0
LINE
8
BLACK
6
CONTINUOUS
10
59.6929
20
-60.198
11
58.42
21
-60.198
0
LINE
8
BLACK
6
CONTINUOUS
10
58.42
20
-60.198
11
58.42
21
-61.4709
0
LINE
8
BLACK
6
CONTINUOUS
10
58.42
20
-61.4709
11
58.4191
21
-61.4798
0
LINE
8
BLACK
6
CONTINUOUS
10
58.4191
20
-61.4798
11
58.4157
21
-61.4911
0
LINE
8
BLACK
6
CONTINUOUS
10
58.4157
20
-61.4911
11
58.4101
21
-61.5015
0
LINE
8
BLACK
6
CONTINUOUS
10
58.4101
20
-61.5015
11
58.4026
21
-61.5106
0
LINE
8
BLACK
6
CONTINUOUS
10
58.4026
20
-61.5106
11
58.3935
21
-61.5181
0
LINE
8
BLACK
6
CONTINUOUS
10
58.3935
20
-61.5181
11
58.3831
21
-61.5237
0
LINE
8
BLACK
6
CONTINUOUS
10
58.3831
20
-61.5237
11
58.3718
21
-61.5271
0
LINE
8
BLACK
6
CONTINUOUS
10
58.3718
20
-61.5271
11
58.36
21
-61.5283
0
LINE
8
BLACK
6
CONTINUOUS
10
58.36
20
-61.5283
11
58.3482
21
-61.5271
0
LINE
8
BLACK
6
CONTINUOUS
10
58.3482
20
-61.5271
11
58.3369
21
-61.5237
0
LINE
8
BLACK
6
CONTINUOUS
10
58.3369
20
-61.5237
11
58.3265
21
-61.5181
0
LINE
8
BLACK
6
CONTINUOUS
10
58.3265
20
-61.5181
11
58.3174
21
-61.5106
0
LINE
8
BLACK
6
CONTINUOUS
10
58.3174
20
-61.5106
11
58.3099
21
-61.5015
0
LINE
8
BLACK
6
CONTINUOUS
10
58.3099
20
-61.5015
11
58.3043
21
-61.4911
0
LINE
8
BLACK
6
CONTINUOUS
10
58.3043
20
-61.4911
11
58.3009
21
-61.4798
0
LINE
8
BLACK
6
CONTINUOUS
10
58.3009
20
-61.4798
11
58.3
21
-61.4709
0
LINE
8
BLACK
6
CONTINUOUS
10
58.3
20
-61.4709
11
58.3
21
-60.1409
0
LINE
8
BLACK
6
CONTINUOUS
10
58.3
20
-60.1409
11
58.2997
21
-60.138
0
LINE
8
BLACK
6
CONTINUOUS
10
58.2997
20
-60.138
11
58.3009
21
-60.1262
0
LINE
8
BLACK
6
CONTINUOUS
10
58.3009
20
-60.1262
11
58.3043
21
-60.1149
0
LINE
8
BLACK
6
CONTINUOUS
10
58.3043
20
-60.1149
11
58.3099
21
-60.1045
0
LINE
8
BLACK
6
CONTINUOUS
10
58.3099
20
-60.1045
11
58.3174
21
-60.0954
0
LINE
8
BLACK
6
CONTINUOUS
10
58.3174
20
-60.0954
11
58.3265
21
-60.0879
0
LINE
8
BLACK
6
CONTINUOUS
10
58.3265
20
-60.0879
11
58.3369
21
-60.0823
0
LINE
8
BLACK
6
CONTINUOUS
10
58.3369
20
-60.0823
11
58.3482
21
-60.0789
0
LINE
8
BLACK
6
CONTINUOUS
10
58.3482
20
-60.0789
11
58.3571
21
-60.078
0
LINE
8
BLACK
6
CONTINUOUS
10
58.3571
20
-60.078
11
58.36
21
-60.0777
0
LINE
8
BLACK
6
CONTINUOUS
10
58.36
20
-60.0777
11
58.3629
21
-60.078
0
LINE
8
BLACK
6
CONTINUOUS
10
109.163
20
-60.078
11
110.493
21
-60.078
0
LINE
8
BLACK
6
CONTINUOUS
10
110.493
20
-60.078
11
110.502
21
-60.0789
0
LINE
8
BLACK
6
CONTINUOUS
10
110.502
20
-60.0789
11
110.513
21
-60.0823
0
LINE
8
BLACK
6
CONTINUOUS
10
110.513
20
-60.0823
11
110.523
21
-60.0879
0
LINE
8
BLACK
6
CONTINUOUS
10
110.523
20
-60.0879
11
110.533
21
-60.0954
0
LINE
8
BLACK
6
CONTINUOUS
10
110.533
20
-60.0954
11
110.54
21
-60.1045
0
LINE
8
BLACK
6
CONTINUOUS
10
110.54
20
-60.1045
11
110.546
21
-60.1149
0
LINE
8
BLACK
6
CONTINUOUS
10
110.546
20
-60.1149
11
110.549
21
-60.1262
0
LINE
8
BLACK
6
CONTINUOUS
10
110.549
20
-60.1262
11
110.55
21
-60.138
0
LINE
8
BLACK
6
CONTINUOUS
10
110.55
20
-60.138
11
110.549
21
-60.1498
0
LINE
8
BLACK
6
CONTINUOUS
10
110.549
20
-60.1498
11
110.546
21
-60.1611
0
LINE
8
BLACK
6
CONTINUOUS
10
110.546
20
-60.1611
11
110.54
21
-60.1715
0
LINE
8
BLACK
6
CONTINUOUS
10
110.54
20
-60.1715
11
110.533
21
-60.1806
0
LINE
8
BLACK
6
CONTINUOUS
10
110.533
20
-60.1806
11
110.523
21
-60.1881
0
LINE
8
BLACK
6
CONTINUOUS
10
110.523
20
-60.1881
11
110.513
21
-60.1937
0
LINE
8
BLACK
6
CONTINUOUS
10
110.513
20
-60.1937
11
110.502
21
-60.1971
0
LINE
8
BLACK
6
CONTINUOUS
10
110.502
20
-60.1971
11
110.493
21
-60.198
0
LINE
8
BLACK
6
CONTINUOUS
10
110.493
20
-60.198
11
109.22
21
-60.198
0
LINE
8
BLACK
6
CONTINUOUS
10
109.22
20
-60.198
11
109.22
21
-61.4709
0
LINE
8
BLACK
6
CONTINUOUS
10
109.22
20
-61.4709
11
109.219
21
-61.4798
0
LINE
8
BLACK
6
CONTINUOUS
10
109.219
20
-61.4798
11
109.216
21
-61.4911
0
LINE
8
BLACK
6
CONTINUOUS
10
109.216
20
-61.4911
11
109.21
21
-61.5015
0
LINE
8
BLACK
6
CONTINUOUS
10
109.21
20
-61.5015
11
109.203
21
-61.5106
0
LINE
8
BLACK
6
CONTINUOUS
10
109.203
20
-61.5106
11
109.193
21
-61.5181
0
LINE
8
BLACK
6
CONTINUOUS
10
109.193
20
-61.5181
11
109.183
21
-61.5237
0
LINE
8
BLACK
6
CONTINUOUS
10
109.183
20
-61.5237
11
109.172
21
-61.5271
0
LINE
8
BLACK
6
CONTINUOUS
10
109.172
20
-61.5271
11
109.16
21
-61.5283
0
LINE
8
BLACK
6
CONTINUOUS
10
109.16
20
-61.5283
11
109.148
21
-61.5271
0
LINE
8
BLACK
6
CONTINUOUS
10
109.148
20
-61.5271
11
109.137
21
-61.5237
0
LINE
8
BLACK
6
CONTINUOUS
10
109.137
20
-61.5237
11
109.127
21
-61.5181
0
LINE
8
BLACK
6
CONTINUOUS
10
109.127
20
-61.5181
11
109.117
21
-61.5106
0
LINE
8
BLACK
6
CONTINUOUS
10
109.117
20
-61.5106
11
109.11
21
-61.5015
0
LINE
8
BLACK
6
CONTINUOUS
10
109.11
20
-61.5015
11
109.104
21
-61.4911
0
LINE
8
BLACK
6
CONTINUOUS
10
109.104
20
-61.4911
11
109.101
21
-61.4798
0
LINE
8
BLACK
6
CONTINUOUS
10
109.101
20
-61.4798
11
109.1
21
-61.4709
0
LINE
8
BLACK
6
CONTINUOUS
10
109.1
20
-61.4709
11
109.1
21
-60.1409
0
LINE
8
BLACK
6
CONTINUOUS
10
109.1
20
-60.1409
11
109.1
21
-60.138
0
LINE
8
BLACK
6
CONTINUOUS
10
109.1
20
-60.138
11
109.101
21
-60.1262
0
LINE
8
BLACK
6
CONTINUOUS
10
109.101
20
-60.1262
11
109.104
21
-60.1149
0
LINE
8
BLACK
6
CONTINUOUS
10
109.104
20
-60.1149
11
109.11
21
-60.1045
0
LINE
8
BLACK
6
CONTINUOUS
10
109.11
20
-60.1045
11
109.117
21
-60.0954
0
LINE
8
BLACK
6
CONTINUOUS
10
109.117
20
-60.0954
11
109.127
21
-60.0879
0
LINE
8
BLACK
6
CONTINUOUS
10
109.127
20
-60.0879
11
109.137
21
-60.0823
0
LINE
8
BLACK
6
CONTINUOUS
10
109.137
20
-60.0823
11
109.148
21
-60.0789
0
LINE
8
BLACK
6
CONTINUOUS
10
109.148
20
-60.0789
11
109.157
21
-60.078
0
LINE
8
BLACK
6
CONTINUOUS
10
109.157
20
-60.078
11
109.16
21
-60.0777
0
LINE
8
BLACK
6
CONTINUOUS
10
109.16
20
-60.0777
11
109.163
21
-60.078
0
LINE
8
BLACK
6
CONTINUOUS
10
61.3084
20
-58.0769
11
61.3224
21
-58.0812
0
LINE
8
BLACK
6
CONTINUOUS
10
61.3224
20
-58.0812
11
61.3353
21
-58.0882
0
LINE
8
BLACK
6
CONTINUOUS
10
61.3353
20
-58.0882
11
61.3466
21
-58.0975
0
LINE
8
BLACK
6
CONTINUOUS
10
61.3466
20
-58.0975
11
61.3558
21
-58.1089
0
LINE
8
BLACK
6
CONTINUOUS
10
61.3558
20
-58.1089
11
61.3627
21
-58.1218
0
LINE
8
BLACK
6
CONTINUOUS
10
61.3627
20
-58.1218
11
61.3669
21
-58.1358
0
LINE
8
BLACK
6
CONTINUOUS
10
61.3669
20
-58.1358
11
61.3683
21
-58.1504
0
LINE
8
BLACK
6
CONTINUOUS
10
61.3683
20
-58.1504
11
61.3683
21
-58.8525
0
LINE
8
BLACK
6
CONTINUOUS
10
61.3683
20
-58.8525
11
61.4065
21
-58.967
0
LINE
8
BLACK
6
CONTINUOUS
10
61.4065
20
-58.967
11
61.4767
21
-59.0372
0
LINE
8
BLACK
6
CONTINUOUS
10
61.4767
20
-59.0372
11
61.5912
21
-59.0754
0
LINE
8
BLACK
6
CONTINUOUS
10
61.5912
20
-59.0754
11
61.6743
21
-59.0754
0
LINE
8
BLACK
6
CONTINUOUS
10
61.6743
20
-59.0754
11
61.6753
21
-59.0754
0
LINE
8
BLACK
6
CONTINUOUS
10
61.6753
20
-59.0754
11
61.6899
21
-59.077
0
LINE
8
BLACK
6
CONTINUOUS
10
61.6899
20
-59.077
11
61.7038
21
-59.0814
0
LINE
8
BLACK
6
CONTINUOUS
10
61.7038
20
-59.0814
11
61.7167
21
-59.0885
0
LINE
8
BLACK
6
CONTINUOUS
10
61.7167
20
-59.0885
11
61.7279
21
-59.0979
0
LINE
8
BLACK
6
CONTINUOUS
10
61.7279
20
-59.0979
11
61.737
21
-59.1093
0
LINE
8
BLACK
6
CONTINUOUS
10
61.737
20
-59.1093
11
61.7438
21
-59.1223
0
LINE
8
BLACK
6
CONTINUOUS
10
61.7438
20
-59.1223
11
61.748
21
-59.1363
0
LINE
8
BLACK
6
CONTINUOUS
10
61.748
20
-59.1363
11
61.7493
21
-59.1509
0
LINE
8
BLACK
6
CONTINUOUS
10
61.7493
20
-59.1509
11
61.7478
21
-59.1655
0
LINE
8
BLACK
6
CONTINUOUS
10
61.7478
20
-59.1655
11
61.7434
21
-59.1794
0
LINE
8
BLACK
6
CONTINUOUS
10
61.7434
20
-59.1794
11
61.7365
21
-59.1923
0
LINE
8
BLACK
6
CONTINUOUS
10
61.7365
20
-59.1923
11
61.7271
21
-59.2036
0
LINE
8
BLACK
6
CONTINUOUS
10
61.7271
20
-59.2036
11
61.7158
21
-59.2128
0
LINE
8
BLACK
6
CONTINUOUS
10
61.7158
20
-59.2128
11
61.7029
21
-59.2197
0
LINE
8
BLACK
6
CONTINUOUS
10
61.7029
20
-59.2197
11
61.6889
21
-59.224
0
LINE
8
BLACK
6
CONTINUOUS
10
61.6889
20
-59.224
11
61.6743
21
-59.2254
0
LINE
8
BLACK
6
CONTINUOUS
10
61.6743
20
-59.2254
11
61.579
21
-59.2254
0
LINE
8
BLACK
6
CONTINUOUS
10
61.579
20
-59.2254
11
61.578
21
-59.2254
0
LINE
8
BLACK
6
CONTINUOUS
10
61.578
20
-59.2254
11
61.5738
21
-59.2249
0
LINE
8
BLACK
6
CONTINUOUS
10
61.5738
20
-59.2249
11
61.5696
21
-59.2248
0
LINE
8
BLACK
6
CONTINUOUS
10
61.5696
20
-59.2248
11
61.5666
21
-59.2241
0
LINE
8
BLACK
6
CONTINUOUS
10
61.5666
20
-59.2241
11
61.5635
21
-59.2237
0
LINE
8
BLACK
6
CONTINUOUS
10
61.5635
20
-59.2237
11
61.5594
21
-59.2225
0
LINE
8
BLACK
6
CONTINUOUS
10
61.5594
20
-59.2225
11
61.5553
21
-59.2215
0
LINE
8
BLACK
6
CONTINUOUS
10
61.5553
20
-59.2215
11
61.4125
21
-59.1739
0
LINE
8
BLACK
6
CONTINUOUS
10
61.4125
20
-59.1739
11
61.4115
21
-59.1736
0
LINE
8
BLACK
6
CONTINUOUS
10
61.4115
20
-59.1736
11
61.4095
21
-59.1726
0
LINE
8
BLACK
6
CONTINUOUS
10
61.4095
20
-59.1726
11
61.4074
21
-59.172
0
LINE
8
BLACK
6
CONTINUOUS
10
61.4074
20
-59.172
11
61.4028
21
-59.1696
0
LINE
8
BLACK
6
CONTINUOUS
10
61.4028
20
-59.1696
11
61.3982
21
-59.1674
0
LINE
8
BLACK
6
CONTINUOUS
10
61.3982
20
-59.1674
11
61.3964
21
-59.1661
0
LINE
8
BLACK
6
CONTINUOUS
10
61.3964
20
-59.1661
11
61.3945
21
-59.1651
0
LINE
8
BLACK
6
CONTINUOUS
10
61.3945
20
-59.1651
11
61.3905
21
-59.1618
0
LINE
8
BLACK
6
CONTINUOUS
10
61.3905
20
-59.1618
11
61.3864
21
-59.1588
0
LINE
8
BLACK
6
CONTINUOUS
10
61.3864
20
-59.1588
11
61.3849
21
-59.1572
0
LINE
8
BLACK
6
CONTINUOUS
10
61.3849
20
-59.1572
11
61.3832
21
-59.1558
0
LINE
8
BLACK
6
CONTINUOUS
10
61.3832
20
-59.1558
11
61.2879
21
-59.0606
0
LINE
8
BLACK
6
CONTINUOUS
10
61.2879
20
-59.0606
11
61.2872
21
-59.0598
0
LINE
8
BLACK
6
CONTINUOUS
10
61.2872
20
-59.0598
11
61.2858
21
-59.0581
0
LINE
8
BLACK
6
CONTINUOUS
10
61.2858
20
-59.0581
11
61.2842
21
-59.0566
0
LINE
8
BLACK
6
CONTINUOUS
10
61.2842
20
-59.0566
11
61.2813
21
-59.0524
0
LINE
8
BLACK
6
CONTINUOUS
10
61.2813
20
-59.0524
11
61.2781
21
-59.0484
0
LINE
8
BLACK
6
CONTINUOUS
10
61.2781
20
-59.0484
11
61.277
21
-59.0464
0
LINE
8
BLACK
6
CONTINUOUS
10
61.277
20
-59.0464
11
61.2758
21
-59.0446
0
LINE
8
BLACK
6
CONTINUOUS
10
61.2758
20
-59.0446
11
61.2737
21
-59.0399
0
LINE
8
BLACK
6
CONTINUOUS
10
61.2737
20
-59.0399
11
61.2713
21
-59.0354
0
LINE
8
BLACK
6
CONTINUOUS
10
61.2713
20
-59.0354
11
61.2707
21
-59.0333
0
LINE
8
BLACK
6
CONTINUOUS
10
61.2707
20
-59.0333
11
61.2698
21
-59.0312
0
LINE
8
BLACK
6
CONTINUOUS
10
61.2698
20
-59.0312
11
61.2222
21
-58.8884
0
LINE
8
BLACK
6
CONTINUOUS
10
61.2222
20
-58.8884
11
61.2219
21
-58.8874
0
LINE
8
BLACK
6
CONTINUOUS
10
61.2219
20
-58.8874
11
61.221
21
-58.8833
0
LINE
8
BLACK
6
CONTINUOUS
10
61.221
20
-58.8833
11
61.2198
21
-58.8792
0
LINE
8
BLACK
6
CONTINUOUS
10
61.2198
20
-58.8792
11
61.2195
21
-58.8761
0
LINE
8
BLACK
6
CONTINUOUS
10
61.2195
20
-58.8761
11
61.2188
21
-58.8731
0
LINE
8
BLACK
6
CONTINUOUS
10
61.2188
20
-58.8731
11
61.2187
21
-58.8689
0
LINE
8
BLACK
6
CONTINUOUS
10
61.2187
20
-58.8689
11
61.2183
21
-58.8647
0
LINE
8
BLACK
6
CONTINUOUS
10
61.2183
20
-58.8647
11
61.2183
21
-58.1504
0
LINE
8
BLACK
6
CONTINUOUS
10
61.2183
20
-58.1504
11
61.2183
21
-58.1493
0
LINE
8
BLACK
6
CONTINUOUS
10
61.2183
20
-58.1493
11
61.22
21
-58.1348
0
LINE
8
BLACK
6
CONTINUOUS
10
61.22
20
-58.1348
11
61.2244
21
-58.1208
0
LINE
8
BLACK
6
CONTINUOUS
10
61.2244
20
-58.1208
11
61.2314
21
-58.108
0
LINE
8
BLACK
6
CONTINUOUS
10
61.2314
20
-58.108
11
61.2409
21
-58.0968
0
LINE
8
BLACK
6
CONTINUOUS
10
61.2409
20
-58.0968
11
61.2523
21
-58.0876
0
LINE
8
BLACK
6
CONTINUOUS
10
61.2523
20
-58.0876
11
61.2652
21
-58.0808
0
LINE
8
BLACK
6
CONTINUOUS
10
61.2652
20
-58.0808
11
61.2793
21
-58.0767
0
LINE
8
BLACK
6
CONTINUOUS
10
61.2793
20
-58.0767
11
61.2939
21
-58.0754
0
LINE
8
BLACK
6
CONTINUOUS
10
61.2939
20
-58.0754
11
61.3084
21
-58.0769
0
LINE
8
BLACK
6
CONTINUOUS
10
60.5795
20
-58.0754
11
60.5796
21
-58.0754
0
LINE
8
BLACK
6
CONTINUOUS
10
60.5796
20
-58.0754
11
60.5866
21
-58.0761
0
LINE
8
BLACK
6
CONTINUOUS
10
60.5866
20
-58.0761
11
60.594
21
-58.0769
0
LINE
8
BLACK
6
CONTINUOUS
10
60.594
20
-58.0769
11
60.5941
21
-58.0769
0
LINE
8
BLACK
6
CONTINUOUS
10
60.5941
20
-58.0769
11
60.5941
21
-58.0769
0
LINE
8
BLACK
6
CONTINUOUS
10
60.5941
20
-58.0769
11
60.6012
21
-58.0791
0
LINE
8
BLACK
6
CONTINUOUS
10
60.6012
20
-58.0791
11
60.608
21
-58.0812
0
LINE
8
BLACK
6
CONTINUOUS
10
60.608
20
-58.0812
11
60.6081
21
-58.0812
0
LINE
8
BLACK
6
CONTINUOUS
10
60.6081
20
-58.0812
11
60.6081
21
-58.0812
0
LINE
8
BLACK
6
CONTINUOUS
10
60.6081
20
-58.0812
11
60.6148
21
-58.0848
0
LINE
8
BLACK
6
CONTINUOUS
10
60.6148
20
-58.0848
11
60.6209
21
-58.0881
0
LINE
8
BLACK
6
CONTINUOUS
10
60.6209
20
-58.0881
11
60.6209
21
-58.0882
0
LINE
8
BLACK
6
CONTINUOUS
10
60.6209
20
-58.0882
11
60.621
21
-58.0882
0
LINE
8
BLACK
6
CONTINUOUS
10
60.621
20
-58.0882
11
60.6265
21
-58.0928
0
LINE
8
BLACK
6
CONTINUOUS
10
60.6265
20
-58.0928
11
60.6322
21
-58.0974
0
LINE
8
BLACK
6
CONTINUOUS
10
60.6322
20
-58.0974
11
60.6322
21
-58.0975
0
LINE
8
BLACK
6
CONTINUOUS
10
60.6322
20
-58.0975
11
60.6323
21
-58.0975
0
LINE
8
BLACK
6
CONTINUOUS
10
60.6323
20
-58.0975
11
60.6367
21
-58.103
0
LINE
8
BLACK
6
CONTINUOUS
10
60.6367
20
-58.103
11
60.6415
21
-58.1088
0
LINE
8
BLACK
6
CONTINUOUS
10
60.6415
20
-58.1088
11
60.7326
21
-58.2455
0
LINE
8
BLACK
6
CONTINUOUS
10
60.7326
20
-58.2455
11
60.8139
21
-58.3268
0
LINE
8
BLACK
6
CONTINUOUS
10
60.8139
20
-58.3268
11
60.8983
21
-58.369
0
LINE
8
BLACK
6
CONTINUOUS
10
60.8983
20
-58.369
11
60.8992
21
-58.3695
0
LINE
8
BLACK
6
CONTINUOUS
10
60.8992
20
-58.3695
11
60.9115
21
-58.3775
0
LINE
8
BLACK
6
CONTINUOUS
10
60.9115
20
-58.3775
11
60.922
21
-58.3877
0
LINE
8
BLACK
6
CONTINUOUS
10
60.922
20
-58.3877
11
60.9303
21
-58.3997
0
LINE
8
BLACK
6
CONTINUOUS
10
60.9303
20
-58.3997
11
60.9362
21
-58.4131
0
LINE
8
BLACK
6
CONTINUOUS
10
60.9362
20
-58.4131
11
60.9393
21
-58.4274
0
LINE
8
BLACK
6
CONTINUOUS
10
60.9393
20
-58.4274
11
60.9395
21
-58.4421
0
LINE
8
BLACK
6
CONTINUOUS
10
60.9395
20
-58.4421
11
60.9369
21
-58.4565
0
LINE
8
BLACK
6
CONTINUOUS
10
60.9369
20
-58.4565
11
60.9316
21
-58.4701
0
LINE
8
BLACK
6
CONTINUOUS
10
60.9316
20
-58.4701
11
60.9237
21
-58.4824
0
LINE
8
BLACK
6
CONTINUOUS
10
60.9237
20
-58.4824
11
60.9136
21
-58.493
0
LINE
8
BLACK
6
CONTINUOUS
10
60.9136
20
-58.493
11
60.9016
21
-58.5014
0
LINE
8
BLACK
6
CONTINUOUS
10
60.9016
20
-58.5014
11
60.8882
21
-58.5073
0
LINE
8
BLACK
6
CONTINUOUS
10
60.8882
20
-58.5073
11
60.8739
21
-58.5105
0
LINE
8
BLACK
6
CONTINUOUS
10
60.8739
20
-58.5105
11
60.8593
21
-58.5109
0
LINE
8
BLACK
6
CONTINUOUS
10
60.8593
20
-58.5109
11
60.8449
21
-58.5084
0
LINE
8
BLACK
6
CONTINUOUS
10
60.8449
20
-58.5084
11
60.8312
21
-58.5032
0
LINE
8
BLACK
6
CONTINUOUS
10
60.8312
20
-58.5032
11
60.736
21
-58.4556
0
LINE
8
BLACK
6
CONTINUOUS
10
60.736
20
-58.4556
11
60.735
21
-58.4551
0
LINE
8
BLACK
6
CONTINUOUS
10
60.735
20
-58.4551
11
60.7315
21
-58.4528
0
LINE
8
BLACK
6
CONTINUOUS
10
60.7315
20
-58.4528
11
60.7278
21
-58.4508
0
LINE
8
BLACK
6
CONTINUOUS
10
60.7278
20
-58.4508
11
60.7254
21
-58.4488
0
LINE
8
BLACK
6
CONTINUOUS
10
60.7254
20
-58.4488
11
60.7228
21
-58.4471
0
LINE
8
BLACK
6
CONTINUOUS
10
60.7228
20
-58.4471
11
60.7197
21
-58.4442
0
LINE
8
BLACK
6
CONTINUOUS
10
60.7197
20
-58.4442
11
60.7165
21
-58.4415
0
LINE
8
BLACK
6
CONTINUOUS
10
60.7165
20
-58.4415
11
60.654
21
-58.3791
0
LINE
8
BLACK
6
CONTINUOUS
10
60.654
20
-58.3791
11
60.654
21
-59.0754
0
LINE
8
BLACK
6
CONTINUOUS
10
60.654
20
-59.0754
11
60.8648
21
-59.0754
0
LINE
8
BLACK
6
CONTINUOUS
10
60.8648
20
-59.0754
11
60.8658
21
-59.0754
0
LINE
8
BLACK
6
CONTINUOUS
10
60.8658
20
-59.0754
11
60.8804
21
-59.077
0
LINE
8
BLACK
6
CONTINUOUS
10
60.8804
20
-59.077
11
60.8943
21
-59.0814
0
LINE
8
BLACK
6
CONTINUOUS
10
60.8943
20
-59.0814
11
60.9071
21
-59.0885
0
LINE
8
BLACK
6
CONTINUOUS
10
60.9071
20
-59.0885
11
60.9183
21
-59.0979
0
LINE
8
BLACK
6
CONTINUOUS
10
60.9183
20
-59.0979
11
60.9275
21
-59.1093
0
LINE
8
BLACK
6
CONTINUOUS
10
60.9275
20
-59.1093
11
60.9343
21
-59.1223
0
LINE
8
BLACK
6
CONTINUOUS
10
60.9343
20
-59.1223
11
60.9384
21
-59.1363
0
LINE
8
BLACK
6
CONTINUOUS
10
60.9384
20
-59.1363
11
60.9398
21
-59.1509
0
LINE
8
BLACK
6
CONTINUOUS
10
60.9398
20
-59.1509
11
60.9382
21
-59.1655
0
LINE
8
BLACK
6
CONTINUOUS
10
60.9382
20
-59.1655
11
60.9339
21
-59.1794
0
LINE
8
BLACK
6
CONTINUOUS
10
60.9339
20
-59.1794
11
60.9269
21
-59.1923
0
LINE
8
BLACK
6
CONTINUOUS
10
60.9269
20
-59.1923
11
60.9176
21
-59.2036
0
LINE
8
BLACK
6
CONTINUOUS
10
60.9176
20
-59.2036
11
60.9063
21
-59.2128
0
LINE
8
BLACK
6
CONTINUOUS
10
60.9063
20
-59.2128
11
60.8933
21
-59.2197
0
LINE
8
BLACK
6
CONTINUOUS
10
60.8933
20
-59.2197
11
60.8793
21
-59.224
0
LINE
8
BLACK
6
CONTINUOUS
10
60.8793
20
-59.224
11
60.8648
21
-59.2254
0
LINE
8
BLACK
6
CONTINUOUS
10
60.8648
20
-59.2254
11
60.2933
21
-59.2254
0
LINE
8
BLACK
6
CONTINUOUS
10
60.2933
20
-59.2254
11
60.2923
21
-59.2254
0
LINE
8
BLACK
6
CONTINUOUS
10
60.2923
20
-59.2254
11
60.2777
21
-59.2237
0
LINE
8
BLACK
6
CONTINUOUS
10
60.2777
20
-59.2237
11
60.2638
21
-59.2193
0
LINE
8
BLACK
6
CONTINUOUS
10
60.2638
20
-59.2193
11
60.251
21
-59.2123
0
LINE
8
BLACK
6
CONTINUOUS
10
60.251
20
-59.2123
11
60.2397
21
-59.2029
0
LINE
8
BLACK
6
CONTINUOUS
10
60.2397
20
-59.2029
11
60.2306
21
-59.1914
0
LINE
8
BLACK
6
CONTINUOUS
10
60.2306
20
-59.1914
11
60.2238
21
-59.1785
0
LINE
8
BLACK
6
CONTINUOUS
10
60.2238
20
-59.1785
11
60.2197
21
-59.1644
0
LINE
8
BLACK
6
CONTINUOUS
10
60.2197
20
-59.1644
11
60.2183
21
-59.1499
0
LINE
8
BLACK
6
CONTINUOUS
10
60.2183
20
-59.1499
11
60.2199
21
-59.1353
0
LINE
8
BLACK
6
CONTINUOUS
10
60.2199
20
-59.1353
11
60.2242
21
-59.1213
0
LINE
8
BLACK
6
CONTINUOUS
10
60.2242
20
-59.1213
11
60.2312
21
-59.1084
0
LINE
8
BLACK
6
CONTINUOUS
10
60.2312
20
-59.1084
11
60.2405
21
-59.0972
0
LINE
8
BLACK
6
CONTINUOUS
10
60.2405
20
-59.0972
11
60.2518
21
-59.0879
0
LINE
8
BLACK
6
CONTINUOUS
10
60.2518
20
-59.0879
11
60.2648
21
-59.081
0
LINE
8
BLACK
6
CONTINUOUS
10
60.2648
20
-59.081
11
60.2788
21
-59.0768
0
LINE
8
BLACK
6
CONTINUOUS
10
60.2788
20
-59.0768
11
60.2933
21
-59.0754
0
LINE
8
BLACK
6
CONTINUOUS
10
60.2933
20
-59.0754
11
60.504
21
-59.0754
0
LINE
8
BLACK
6
CONTINUOUS
10
60.504
20
-59.0754
11
60.504
21
-58.1504
0
LINE
8
BLACK
6
CONTINUOUS
10
60.504
20
-58.1504
11
60.5041
21
-58.1495
0
LINE
8
BLACK
6
CONTINUOUS
10
60.5041
20
-58.1495
11
60.5041
21
-58.1494
0
LINE
8
BLACK
6
CONTINUOUS
10
60.5041
20
-58.1494
11
60.5041
21
-58.1494
0
LINE
8
BLACK
6
CONTINUOUS
10
60.5041
20
-58.1494
11
60.5041
21
-58.1493
0
LINE
8
BLACK
6
CONTINUOUS
10
60.5041
20
-58.1493
11
60.5049
21
-58.1422
0
LINE
8
BLACK
6
CONTINUOUS
10
60.5049
20
-58.1422
11
60.5057
21
-58.1349
0
LINE
8
BLACK
6
CONTINUOUS
10
60.5057
20
-58.1349
11
60.5057
21
-58.1348
0
LINE
8
BLACK
6
CONTINUOUS
10
60.5057
20
-58.1348
11
60.5057
21
-58.1348
0
LINE
8
BLACK
6
CONTINUOUS
10
60.5057
20
-58.1348
11
60.508
21
-58.1276
0
LINE
8
BLACK
6
CONTINUOUS
10
60.508
20
-58.1276
11
60.5101
21
-58.1209
0
LINE
8
BLACK
6
CONTINUOUS
10
60.5101
20
-58.1209
11
60.5101
21
-58.1209
0
LINE
8
BLACK
6
CONTINUOUS
10
60.5101
20
-58.1209
11
60.5101
21
-58.1208
0
LINE
8
BLACK
6
CONTINUOUS
10
60.5101
20
-58.1208
11
60.5137
21
-58.1142
0
LINE
8
BLACK
6
CONTINUOUS
10
60.5137
20
-58.1142
11
60.5171
21
-58.1081
0
LINE
8
BLACK
6
CONTINUOUS
10
60.5171
20
-58.1081
11
60.5171
21
-58.1081
0
LINE
8
BLACK
6
CONTINUOUS
10
60.5171
20
-58.1081
11
60.5172
21
-58.108
0
LINE
8
BLACK
6
CONTINUOUS
10
60.5172
20
-58.108
11
60.5218
21
-58.1025
0
LINE
8
BLACK
6
CONTINUOUS
10
60.5218
20
-58.1025
11
60.5265
21
-58.0969
0
LINE
8
BLACK
6
CONTINUOUS
10
60.5265
20
-58.0969
11
60.5265
21
-58.0968
0
LINE
8
BLACK
6
CONTINUOUS
10
60.5265
20
-58.0968
11
60.5266
21
-58.0968
0
LINE
8
BLACK
6
CONTINUOUS
10
60.5266
20
-58.0968
11
60.5321
21
-58.0923
0
LINE
8
BLACK
6
CONTINUOUS
10
60.5321
20
-58.0923
11
60.5379
21
-58.0877
0
LINE
8
BLACK
6
CONTINUOUS
10
60.5379
20
-58.0877
11
60.5379
21
-58.0877
0
LINE
8
BLACK
6
CONTINUOUS
10
60.5379
20
-58.0877
11
60.538
21
-58.0876
0
LINE
8
BLACK
6
CONTINUOUS
10
60.538
20
-58.0876
11
60.5443
21
-58.0843
0
LINE
8
BLACK
6
CONTINUOUS
10
60.5443
20
-58.0843
11
60.5508
21
-58.0809
0
LINE
8
BLACK
6
CONTINUOUS
10
60.5508
20
-58.0809
11
60.5509
21
-58.0809
0
LINE
8
BLACK
6
CONTINUOUS
10
60.5509
20
-58.0809
11
60.551
21
-58.0808
0
LINE
8
BLACK
6
CONTINUOUS
10
60.551
20
-58.0808
11
60.5579
21
-58.0788
0
LINE
8
BLACK
6
CONTINUOUS
10
60.5579
20
-58.0788
11
60.5649
21
-58.0767
0
LINE
8
BLACK
6
CONTINUOUS
10
60.5649
20
-58.0767
11
60.5649
21
-58.0767
0
LINE
8
BLACK
6
CONTINUOUS
10
60.5649
20
-58.0767
11
60.565
21
-58.0767
0
LINE
8
BLACK
6
CONTINUOUS
10
60.565
20
-58.0767
11
60.5721
21
-58.0761
0
LINE
8
BLACK
6
CONTINUOUS
10
60.5721
20
-58.0761
11
60.5795
21
-58.0754
0
LINE
8
BLACK
6
CONTINUOUS
10
60.5795
20
-58.0754
11
60.5795
21
-58.0754
0
LINE
8
BLACK
6
CONTINUOUS
10
111.713
20
-58.0754
11
111.728
21
-58.077
0
LINE
8
BLACK
6
CONTINUOUS
10
111.728
20
-58.077
11
111.742
21
-58.0814
0
LINE
8
BLACK
6
CONTINUOUS
10
111.742
20
-58.0814
11
111.755
21
-58.0885
0
LINE
8
BLACK
6
CONTINUOUS
10
111.755
20
-58.0885
11
111.766
21
-58.0979
0
LINE
8
BLACK
6
CONTINUOUS
10
111.766
20
-58.0979
11
111.775
21
-58.1093
0
LINE
8
BLACK
6
CONTINUOUS
10
111.775
20
-58.1093
11
111.782
21
-58.1223
0
LINE
8
BLACK
6
CONTINUOUS
10
111.782
20
-58.1223
11
111.786
21
-58.1363
0
LINE
8
BLACK
6
CONTINUOUS
10
111.786
20
-58.1363
11
111.787
21
-58.1509
0
LINE
8
BLACK
6
CONTINUOUS
10
111.787
20
-58.1509
11
111.786
21
-58.1655
0
LINE
8
BLACK
6
CONTINUOUS
10
111.786
20
-58.1655
11
111.782
21
-58.1794
0
LINE
8
BLACK
6
CONTINUOUS
10
111.782
20
-58.1794
11
111.775
21
-58.1923
0
LINE
8
BLACK
6
CONTINUOUS
10
111.775
20
-58.1923
11
111.765
21
-58.2036
0
LINE
8
BLACK
6
CONTINUOUS
10
111.765
20
-58.2036
11
111.754
21
-58.2128
0
LINE
8
BLACK
6
CONTINUOUS
10
111.754
20
-58.2128
11
111.741
21
-58.2197
0
LINE
8
BLACK
6
CONTINUOUS
10
111.741
20
-58.2197
11
111.727
21
-58.224
0
LINE
8
BLACK
6
CONTINUOUS
10
111.727
20
-58.224
11
111.712
21
-58.2254
0
LINE
8
BLACK
6
CONTINUOUS
10
111.712
20
-58.2254
11
111.259
21
-58.2254
0
LINE
8
BLACK
6
CONTINUOUS
10
111.259
20
-58.2254
11
111.483
21
-58.4819
0
LINE
8
BLACK
6
CONTINUOUS
10
111.483
20
-58.4819
11
111.484
21
-58.4827
0
LINE
8
BLACK
6
CONTINUOUS
10
111.484
20
-58.4827
11
111.486
21
-58.4866
0
LINE
8
BLACK
6
CONTINUOUS
10
111.486
20
-58.4866
11
111.489
21
-58.4903
0
LINE
8
BLACK
6
CONTINUOUS
10
111.489
20
-58.4903
11
111.491
21
-58.4926
0
LINE
8
BLACK
6
CONTINUOUS
10
111.491
20
-58.4926
11
111.492
21
-58.4948
0
LINE
8
BLACK
6
CONTINUOUS
10
111.492
20
-58.4948
11
111.494
21
-58.4991
0
LINE
8
BLACK
6
CONTINUOUS
10
111.494
20
-58.4991
11
111.496
21
-58.5032
0
LINE
8
BLACK
6
CONTINUOUS
10
111.496
20
-58.5032
11
111.497
21
-58.5058
0
LINE
8
BLACK
6
CONTINUOUS
10
111.497
20
-58.5058
11
111.498
21
-58.5082
0
LINE
8
BLACK
6
CONTINUOUS
10
111.498
20
-58.5082
11
111.499
21
-58.5128
0
LINE
8
BLACK
6
CONTINUOUS
10
111.499
20
-58.5128
11
111.5
21
-58.5173
0
LINE
8
BLACK
6
CONTINUOUS
10
111.5
20
-58.5173
11
111.501
21
-58.5199
0
LINE
8
BLACK
6
CONTINUOUS
10
111.501
20
-58.5199
11
111.501
21
-58.5225
0
LINE
8
BLACK
6
CONTINUOUS
10
111.501
20
-58.5225
11
111.501
21
-58.5272
0
LINE
8
BLACK
6
CONTINUOUS
10
111.501
20
-58.5272
11
111.502
21
-58.5319
0
LINE
8
BLACK
6
CONTINUOUS
10
111.502
20
-58.5319
11
111.501
21
-58.5345
0
LINE
8
BLACK
6
CONTINUOUS
10
111.501
20
-58.5345
11
111.501
21
-58.5371
0
LINE
8
BLACK
6
CONTINUOUS
10
111.501
20
-58.5371
11
111.501
21
-58.5417
0
LINE
8
BLACK
6
CONTINUOUS
10
111.501
20
-58.5417
11
111.5
21
-58.5464
0
LINE
8
BLACK
6
CONTINUOUS
10
111.5
20
-58.5464
11
111.499
21
-58.5489
0
LINE
8
BLACK
6
CONTINUOUS
10
111.499
20
-58.5489
11
111.499
21
-58.5515
0
LINE
8
BLACK
6
CONTINUOUS
10
111.499
20
-58.5515
11
111.497
21
-58.5559
0
LINE
8
BLACK
6
CONTINUOUS
10
111.497
20
-58.5559
11
111.496
21
-58.5604
0
LINE
8
BLACK
6
CONTINUOUS
10
111.496
20
-58.5604
11
111.495
21
-58.5627
0
LINE
8
BLACK
6
CONTINUOUS
10
111.495
20
-58.5627
11
111.494
21
-58.5652
0
LINE
8
BLACK
6
CONTINUOUS
10
111.494
20
-58.5652
11
111.491
21
-58.5691
0
LINE
8
BLACK
6
CONTINUOUS
10
111.491
20
-58.5691
11
111.489
21
-58.5733
0
LINE
8
BLACK
6
CONTINUOUS
10
111.489
20
-58.5733
11
111.487
21
-58.5753
0
LINE
8
BLACK
6
CONTINUOUS
10
111.487
20
-58.5753
11
111.486
21
-58.5775
0
LINE
8
BLACK
6
CONTINUOUS
10
111.486
20
-58.5775
11
111.483
21
-58.5809
0
LINE
8
BLACK
6
CONTINUOUS
10
111.483
20
-58.5809
11
111.48
21
-58.5846
0
LINE
8
BLACK
6
CONTINUOUS
10
111.48
20
-58.5846
11
111.477
21
-58.5862
0
LINE
8
BLACK
6
CONTINUOUS
10
111.477
20
-58.5862
11
111.476
21
-58.5881
0
LINE
8
BLACK
6
CONTINUOUS
10
111.476
20
-58.5881
11
111.472
21
-58.5908
0
LINE
8
BLACK
6
CONTINUOUS
10
111.472
20
-58.5908
11
111.468
21
-58.5938
0
LINE
8
BLACK
6
CONTINUOUS
10
111.468
20
-58.5938
11
111.466
21
-58.595
0
LINE
8
BLACK
6
CONTINUOUS
10
111.466
20
-58.595
11
111.464
21
-58.5966
0
LINE
8
BLACK
6
CONTINUOUS
10
111.464
20
-58.5966
11
111.459
21
-58.5985
0
LINE
8
BLACK
6
CONTINUOUS
10
111.459
20
-58.5985
11
111.455
21
-58.6007
0
LINE
8
BLACK
6
CONTINUOUS
10
111.455
20
-58.6007
11
111.453
21
-58.6014
0
LINE
8
BLACK
6
CONTINUOUS
10
111.453
20
-58.6014
11
111.45
21
-58.6025
0
LINE
8
BLACK
6
CONTINUOUS
10
111.45
20
-58.6025
11
111.446
21
-58.6035
0
LINE
8
BLACK
6
CONTINUOUS
10
111.446
20
-58.6035
11
111.441
21
-58.6049
0
LINE
8
BLACK
6
CONTINUOUS
10
111.441
20
-58.6049
11
111.439
21
-58.6052
0
LINE
8
BLACK
6
CONTINUOUS
10
111.439
20
-58.6052
11
111.436
21
-58.6057
0
LINE
8
BLACK
6
CONTINUOUS
10
111.436
20
-58.6057
11
111.431
21
-58.6059
0
LINE
8
BLACK
6
CONTINUOUS
10
111.431
20
-58.6059
11
111.427
21
-58.6063
0
LINE
8
BLACK
6
CONTINUOUS
10
111.427
20
-58.6063
11
111.302
21
-58.6063
0
LINE
8
BLACK
6
CONTINUOUS
10
111.302
20
-58.6063
11
111.233
21
-58.6406
0
LINE
8
BLACK
6
CONTINUOUS
10
111.233
20
-58.6406
11
111.203
21
-58.671
0
LINE
8
BLACK
6
CONTINUOUS
10
111.203
20
-58.671
11
111.168
21
-58.7395
0
LINE
8
BLACK
6
CONTINUOUS
10
111.168
20
-58.7395
11
111.168
21
-58.9422
0
LINE
8
BLACK
6
CONTINUOUS
10
111.168
20
-58.9422
11
111.203
21
-59.0107
0
LINE
8
BLACK
6
CONTINUOUS
10
111.203
20
-59.0107
11
111.233
21
-59.0411
0
LINE
8
BLACK
6
CONTINUOUS
10
111.233
20
-59.0411
11
111.302
21
-59.0754
0
LINE
8
BLACK
6
CONTINUOUS
10
111.302
20
-59.0754
11
111.552
21
-59.0754
0
LINE
8
BLACK
6
CONTINUOUS
10
111.552
20
-59.0754
11
111.62
21
-59.0411
0
LINE
8
BLACK
6
CONTINUOUS
10
111.62
20
-59.0411
11
111.659
21
-59.0021
0
LINE
8
BLACK
6
CONTINUOUS
10
111.659
20
-59.0021
11
111.66
21
-59.0014
0
LINE
8
BLACK
6
CONTINUOUS
10
111.66
20
-59.0014
11
111.672
21
-58.9922
0
LINE
8
BLACK
6
CONTINUOUS
10
111.672
20
-58.9922
11
111.685
21
-58.9855
0
LINE
8
BLACK
6
CONTINUOUS
10
111.685
20
-58.9855
11
111.699
21
-58.9814
0
LINE
8
BLACK
6
CONTINUOUS
10
111.699
20
-58.9814
11
111.713
21
-58.9801
0
LINE
8
BLACK
6
CONTINUOUS
10
111.713
20
-58.9801
11
111.728
21
-58.9817
0
LINE
8
BLACK
6
CONTINUOUS
10
111.728
20
-58.9817
11
111.742
21
-58.9861
0
LINE
8
BLACK
6
CONTINUOUS
10
111.742
20
-58.9861
11
111.755
21
-58.9931
0
LINE
8
BLACK
6
CONTINUOUS
10
111.755
20
-58.9931
11
111.766
21
-59.0025
0
LINE
8
BLACK
6
CONTINUOUS
10
111.766
20
-59.0025
11
111.775
21
-59.0139
0
LINE
8
BLACK
6
CONTINUOUS
10
111.775
20
-59.0139
11
111.782
21
-59.0268
0
LINE
8
BLACK
6
CONTINUOUS
10
111.782
20
-59.0268
11
111.786
21
-59.0408
0
LINE
8
BLACK
6
CONTINUOUS
10
111.786
20
-59.0408
11
111.787
21
-59.0554
0
LINE
8
BLACK
6
CONTINUOUS
10
111.787
20
-59.0554
11
111.786
21
-59.07
0
LINE
8
BLACK
6
CONTINUOUS
10
111.786
20
-59.07
11
111.782
21
-59.084
0
LINE
8
BLACK
6
CONTINUOUS
10
111.782
20
-59.084
11
111.775
21
-59.0969
0
LINE
8
BLACK
6
CONTINUOUS
10
111.775
20
-59.0969
11
111.765
21
-59.1082
0
LINE
8
BLACK
6
CONTINUOUS
10
111.765
20
-59.1082
11
111.718
21
-59.1558
0
LINE
8
BLACK
6
CONTINUOUS
10
111.718
20
-59.1558
11
111.717
21
-59.1565
0
LINE
8
BLACK
6
CONTINUOUS
10
111.717
20
-59.1565
11
111.714
21
-59.1592
0
LINE
8
BLACK
6
CONTINUOUS
10
111.714
20
-59.1592
11
111.711
21
-59.1621
0
LINE
8
BLACK
6
CONTINUOUS
10
111.711
20
-59.1621
11
111.708
21
-59.1637
0
LINE
8
BLACK
6
CONTINUOUS
10
111.708
20
-59.1637
11
111.706
21
-59.1657
0
LINE
8
BLACK
6
CONTINUOUS
10
111.706
20
-59.1657
11
111.702
21
-59.1676
0
LINE
8
BLACK
6
CONTINUOUS
10
111.702
20
-59.1676
11
111.698
21
-59.1698
0
LINE
8
BLACK
6
CONTINUOUS
10
111.698
20
-59.1698
11
111.603
21
-59.2175
0
LINE
8
BLACK
6
CONTINUOUS
10
111.603
20
-59.2175
11
111.602
21
-59.2179
0
LINE
8
BLACK
6
CONTINUOUS
10
111.602
20
-59.2179
11
111.6
21
-59.2187
0
LINE
8
BLACK
6
CONTINUOUS
10
111.6
20
-59.2187
11
111.598
21
-59.2197
0
LINE
8
BLACK
6
CONTINUOUS
10
111.598
20
-59.2197
11
111.593
21
-59.2212
0
LINE
8
BLACK
6
CONTINUOUS
10
111.593
20
-59.2212
11
111.588
21
-59.223
0
LINE
8
BLACK
6
CONTINUOUS
10
111.588
20
-59.223
11
111.586
21
-59.2233
0
LINE
8
BLACK
6
CONTINUOUS
10
111.586
20
-59.2233
11
111.584
21
-59.224
0
LINE
8
BLACK
6
CONTINUOUS
10
111.584
20
-59.224
11
111.579
21
-59.2245
0
LINE
8
BLACK
6
CONTINUOUS
10
111.579
20
-59.2245
11
111.574
21
-59.2253
0
LINE
8
BLACK
6
CONTINUOUS
10
111.574
20
-59.2253
11
111.572
21
-59.2252
0
LINE
8
BLACK
6
CONTINUOUS
10
111.572
20
-59.2252
11
111.57
21
-59.2254
0
LINE
8
BLACK
6
CONTINUOUS
10
111.57
20
-59.2254
11
111.284
21
-59.2254
0
LINE
8
BLACK
6
CONTINUOUS
10
111.284
20
-59.2254
11
111.283
21
-59.2254
0
LINE
8
BLACK
6
CONTINUOUS
10
111.283
20
-59.2254
11
111.281
21
-59.2251
0
LINE
8
BLACK
6
CONTINUOUS
10
111.281
20
-59.2251
11
111.278
21
-59.2252
0
LINE
8
BLACK
6
CONTINUOUS
10
111.278
20
-59.2252
11
111.273
21
-59.2243
0
LINE
8
BLACK
6
CONTINUOUS
10
111.273
20
-59.2243
11
111.268
21
-59.2237
0
LINE
8
BLACK
6
CONTINUOUS
10
111.268
20
-59.2237
11
111.266
21
-59.2231
0
LINE
8
BLACK
6
CONTINUOUS
10
111.266
20
-59.2231
11
111.264
21
-59.2227
0
LINE
8
BLACK
6
CONTINUOUS
10
111.264
20
-59.2227
11
111.259
21
-59.2209
0
LINE
8
BLACK
6
CONTINUOUS
10
111.259
20
-59.2209
11
111.254
21
-59.2193
0
LINE
8
BLACK
6
CONTINUOUS
10
111.254
20
-59.2193
11
111.252
21
-59.2183
0
LINE
8
BLACK
6
CONTINUOUS
10
111.252
20
-59.2183
11
111.25
21
-59.2175
0
LINE
8
BLACK
6
CONTINUOUS
10
111.25
20
-59.2175
11
111.155
21
-59.1698
0
LINE
8
BLACK
6
CONTINUOUS
10
111.155
20
-59.1698
11
111.154
21
-59.1694
0
LINE
8
BLACK
6
CONTINUOUS
10
111.154
20
-59.1694
11
111.151
21
-59.1671
0
LINE
8
BLACK
6
CONTINUOUS
10
111.151
20
-59.1671
11
111.147
21
-59.1651
0
LINE
8
BLACK
6
CONTINUOUS
10
111.147
20
-59.1651
11
111.144
21
-59.1631
0
LINE
8
BLACK
6
CONTINUOUS
10
111.144
20
-59.1631
11
111.142
21
-59.1614
0
LINE
8
BLACK
6
CONTINUOUS
10
111.142
20
-59.1614
11
111.139
21
-59.1585
0
LINE
8
BLACK
6
CONTINUOUS
10
111.139
20
-59.1585
11
111.136
21
-59.1558
0
LINE
8
BLACK
6
CONTINUOUS
10
111.136
20
-59.1558
11
111.088
21
-59.1082
0
LINE
8
BLACK
6
CONTINUOUS
10
111.088
20
-59.1082
11
111.087
21
-59.1074
0
LINE
8
BLACK
6
CONTINUOUS
10
111.087
20
-59.1074
11
111.085
21
-59.1041
0
LINE
8
BLACK
6
CONTINUOUS
10
111.085
20
-59.1041
11
111.082
21
-59.1011
0
LINE
8
BLACK
6
CONTINUOUS
10
111.082
20
-59.1011
11
111.08
21
-59.0984
0
LINE
8
BLACK
6
CONTINUOUS
10
111.08
20
-59.0984
11
111.078
21
-59.096
0
LINE
8
BLACK
6
CONTINUOUS
10
111.078
20
-59.096
11
111.076
21
-59.0923
0
LINE
8
BLACK
6
CONTINUOUS
10
111.076
20
-59.0923
11
111.074
21
-59.0887
0
LINE
8
BLACK
6
CONTINUOUS
10
111.074
20
-59.0887
11
111.026
21
-58.9934
0
LINE
8
BLACK
6
CONTINUOUS
10
111.026
20
-58.9934
11
111.026
21
-58.9925
0
LINE
8
BLACK
6
CONTINUOUS
10
111.026
20
-58.9925
11
111.025
21
-58.9904
0
LINE
8
BLACK
6
CONTINUOUS
10
111.025
20
-58.9904
11
111.024
21
-58.9885
0
LINE
8
BLACK
6
CONTINUOUS
10
111.024
20
-58.9885
11
111.023
21
-58.9836
0
LINE
8
BLACK
6
CONTINUOUS
10
111.023
20
-58.9836
11
111.021
21
-58.9788
0
LINE
8
BLACK
6
CONTINUOUS
10
111.021
20
-58.9788
11
111.02
21
-58.9766
0
LINE
8
BLACK
6
CONTINUOUS
10
111.02
20
-58.9766
11
111.02
21
-58.9745
0
LINE
8
BLACK
6
CONTINUOUS
10
111.02
20
-58.9745
11
111.019
21
-58.9694
0
LINE
8
BLACK
6
CONTINUOUS
10
111.019
20
-58.9694
11
111.018
21
-58.9643
0
LINE
8
BLACK
6
CONTINUOUS
10
111.018
20
-58.9643
11
111.019
21
-58.9621
0
LINE
8
BLACK
6
CONTINUOUS
10
111.019
20
-58.9621
11
111.018
21
-58.9599
0
LINE
8
BLACK
6
CONTINUOUS
10
111.018
20
-58.9599
11
111.018
21
-58.7218
0
LINE
8
BLACK
6
CONTINUOUS
10
111.018
20
-58.7218
11
111.018
21
-58.7208
0
LINE
8
BLACK
6
CONTINUOUS
10
111.018
20
-58.7208
11
111.019
21
-58.7186
0
LINE
8
BLACK
6
CONTINUOUS
10
111.019
20
-58.7186
11
111.019
21
-58.7164
0
LINE
8
BLACK
6
CONTINUOUS
10
111.019
20
-58.7164
11
111.019
21
-58.7113
0
LINE
8
BLACK
6
CONTINUOUS
10
111.019
20
-58.7113
11
111.02
21
-58.7062
0
LINE
8
BLACK
6
CONTINUOUS
10
111.02
20
-58.7062
11
111.021
21
-58.7041
0
LINE
8
BLACK
6
CONTINUOUS
10
111.021
20
-58.7041
11
111.021
21
-58.7019
0
LINE
8
BLACK
6
CONTINUOUS
10
111.021
20
-58.7019
11
111.023
21
-58.6971
0
LINE
8
BLACK
6
CONTINUOUS
10
111.023
20
-58.6971
11
111.024
21
-58.6923
0
LINE
8
BLACK
6
CONTINUOUS
10
111.024
20
-58.6923
11
111.025
21
-58.6903
0
LINE
8
BLACK
6
CONTINUOUS
10
111.025
20
-58.6903
11
111.026
21
-58.6883
0
LINE
8
BLACK
6
CONTINUOUS
10
111.026
20
-58.6883
11
111.074
21
-58.593
0
LINE
8
BLACK
6
CONTINUOUS
10
111.074
20
-58.593
11
111.074
21
-58.5921
0
LINE
8
BLACK
6
CONTINUOUS
10
111.074
20
-58.5921
11
111.077
21
-58.5886
0
LINE
8
BLACK
6
CONTINUOUS
10
111.077
20
-58.5886
11
111.079
21
-58.5848
0
LINE
8
BLACK
6
CONTINUOUS
10
111.079
20
-58.5848
11
111.081
21
-58.5824
0
LINE
8
BLACK
6
CONTINUOUS
10
111.081
20
-58.5824
11
111.082
21
-58.5798
0
LINE
8
BLACK
6
CONTINUOUS
10
111.082
20
-58.5798
11
111.085
21
-58.5768
0
LINE
8
BLACK
6
CONTINUOUS
10
111.085
20
-58.5768
11
111.088
21
-58.5735
0
LINE
8
BLACK
6
CONTINUOUS
10
111.088
20
-58.5735
11
111.136
21
-58.5259
0
LINE
8
BLACK
6
CONTINUOUS
10
111.136
20
-58.5259
11
111.136
21
-58.5252
0
LINE
8
BLACK
6
CONTINUOUS
10
111.136
20
-58.5252
11
111.14
21
-58.5226
0
LINE
8
BLACK
6
CONTINUOUS
10
111.14
20
-58.5226
11
111.143
21
-58.5197
0
LINE
8
BLACK
6
CONTINUOUS
10
111.143
20
-58.5197
11
111.145
21
-58.518
0
LINE
8
BLACK
6
CONTINUOUS
10
111.145
20
-58.518
11
111.148
21
-58.5161
0
LINE
8
BLACK
6
CONTINUOUS
10
111.148
20
-58.5161
11
111.151
21
-58.5141
0
LINE
8
BLACK
6
CONTINUOUS
10
111.151
20
-58.5141
11
111.155
21
-58.5119
0
LINE
8
BLACK
6
CONTINUOUS
10
111.155
20
-58.5119
11
111.25
21
-58.4643
0
LINE
8
BLACK
6
CONTINUOUS
10
111.25
20
-58.4643
11
111.251
21
-58.4638
0
LINE
8
BLACK
6
CONTINUOUS
10
111.251
20
-58.4638
11
111.253
21
-58.463
0
LINE
8
BLACK
6
CONTINUOUS
10
111.253
20
-58.463
11
111.255
21
-58.462
0
LINE
8
BLACK
6
CONTINUOUS
10
111.255
20
-58.462
11
111.26
21
-58.4605
0
LINE
8
BLACK
6
CONTINUOUS
10
111.26
20
-58.4605
11
111.264
21
-58.4591
0
LINE
8
BLACK
6
CONTINUOUS
10
111.264
20
-58.4591
11
111.037
21
-58.1998
0
LINE
8
BLACK
6
CONTINUOUS
10
111.037
20
-58.1998
11
111.036
21
-58.199
0
LINE
8
BLACK
6
CONTINUOUS
10
111.036
20
-58.199
11
111.034
21
-58.1951
0
LINE
8
BLACK
6
CONTINUOUS
10
111.034
20
-58.1951
11
111.031
21
-58.1914
0
LINE
8
BLACK
6
CONTINUOUS
10
111.031
20
-58.1914
11
111.029
21
-58.1891
0
LINE
8
BLACK
6
CONTINUOUS
10
111.029
20
-58.1891
11
111.028
21
-58.187
0
LINE
8
BLACK
6
CONTINUOUS
10
111.028
20
-58.187
11
111.026
21
-58.1826
0
LINE
8
BLACK
6
CONTINUOUS
10
111.026
20
-58.1826
11
111.024
21
-58.1785
0
LINE
8
BLACK
6
CONTINUOUS
10
111.024
20
-58.1785
11
111.023
21
-58.1759
0
LINE
8
BLACK
6
CONTINUOUS
10
111.023
20
-58.1759
11
111.022
21
-58.1735
0
LINE
8
BLACK
6
CONTINUOUS
10
111.022
20
-58.1735
11
111.021
21
-58.1689
0
LINE
8
BLACK
6
CONTINUOUS
10
111.021
20
-58.1689
11
111.02
21
-58.1644
0
LINE
8
BLACK
6
CONTINUOUS
10
111.02
20
-58.1644
11
111.019
21
-58.1618
0
LINE
8
BLACK
6
CONTINUOUS
10
111.019
20
-58.1618
11
111.019
21
-58.1592
0
LINE
8
BLACK
6
CONTINUOUS
10
111.019
20
-58.1592
11
111.019
21
-58.1545
0
LINE
8
BLACK
6
CONTINUOUS
10
111.019
20
-58.1545
11
111.018
21
-58.1499
0
LINE
8
BLACK
6
CONTINUOUS
10
111.018
20
-58.1499
11
111.019
21
-58.1472
0
LINE
8
BLACK
6
CONTINUOUS
10
111.019
20
-58.1472
11
111.019
21
-58.1446
0
LINE
8
BLACK
6
CONTINUOUS
10
111.019
20
-58.1446
11
111.019
21
-58.14
0
LINE
8
BLACK
6
CONTINUOUS
10
111.019
20
-58.14
11
111.02
21
-58.1353
0
LINE
8
BLACK
6
CONTINUOUS
10
111.02
20
-58.1353
11
111.021
21
-58.1328
0
LINE
8
BLACK
6
CONTINUOUS
10
111.021
20
-58.1328
11
111.021
21
-58.1302
0
LINE
8
BLACK
6
CONTINUOUS
10
111.021
20
-58.1302
11
111.023
21
-58.1258
0
LINE
8
BLACK
6
CONTINUOUS
10
111.023
20
-58.1258
11
111.024
21
-58.1213
0
LINE
8
BLACK
6
CONTINUOUS
10
111.024
20
-58.1213
11
111.025
21
-58.119
0
LINE
8
BLACK
6
CONTINUOUS
10
111.025
20
-58.119
11
111.026
21
-58.1165
0
LINE
8
BLACK
6
CONTINUOUS
10
111.026
20
-58.1165
11
111.029
21
-58.1126
0
LINE
8
BLACK
6
CONTINUOUS
10
111.029
20
-58.1126
11
111.031
21
-58.1084
0
LINE
8
BLACK
6
CONTINUOUS
10
111.031
20
-58.1084
11
111.033
21
-58.1064
0
LINE
8
BLACK
6
CONTINUOUS
10
111.033
20
-58.1064
11
111.034
21
-58.1042
0
LINE
8
BLACK
6
CONTINUOUS
10
111.034
20
-58.1042
11
111.037
21
-58.1008
0
LINE
8
BLACK
6
CONTINUOUS
10
111.037
20
-58.1008
11
111.04
21
-58.0972
0
LINE
8
BLACK
6
CONTINUOUS
10
111.04
20
-58.0972
11
111.043
21
-58.0955
0
LINE
8
BLACK
6
CONTINUOUS
10
111.043
20
-58.0955
11
111.044
21
-58.0936
0
LINE
8
BLACK
6
CONTINUOUS
10
111.044
20
-58.0936
11
111.048
21
-58.0909
0
LINE
8
BLACK
6
CONTINUOUS
10
111.048
20
-58.0909
11
111.052
21
-58.0879
0
LINE
8
BLACK
6
CONTINUOUS
10
111.052
20
-58.0879
11
111.054
21
-58.0867
0
LINE
8
BLACK
6
CONTINUOUS
10
111.054
20
-58.0867
11
111.056
21
-58.0852
0
LINE
8
BLACK
6
CONTINUOUS
10
111.056
20
-58.0852
11
111.061
21
-58.0832
0
LINE
8
BLACK
6
CONTINUOUS
10
111.061
20
-58.0832
11
111.065
21
-58.081
0
LINE
8
BLACK
6
CONTINUOUS
10
111.065
20
-58.081
11
111.067
21
-58.0803
0
LINE
8
BLACK
6
CONTINUOUS
10
111.067
20
-58.0803
11
111.07
21
-58.0792
0
LINE
8
BLACK
6
CONTINUOUS
10
111.07
20
-58.0792
11
111.074
21
-58.0782
0
LINE
8
BLACK
6
CONTINUOUS
10
111.074
20
-58.0782
11
111.079
21
-58.0768
0
LINE
8
BLACK
6
CONTINUOUS
10
111.079
20
-58.0768
11
111.081
21
-58.0766
0
LINE
8
BLACK
6
CONTINUOUS
10
111.081
20
-58.0766
11
111.084
21
-58.076
0
LINE
8
BLACK
6
CONTINUOUS
10
111.084
20
-58.076
11
111.089
21
-58.0758
0
LINE
8
BLACK
6
CONTINUOUS
10
111.089
20
-58.0758
11
111.093
21
-58.0754
0
LINE
8
BLACK
6
CONTINUOUS
10
111.093
20
-58.0754
11
111.712
21
-58.0754
0
LINE
8
BLACK
6
CONTINUOUS
10
111.712
20
-58.0754
11
111.713
21
-58.0754
0
LINE
8
BLACK
6
CONTINUOUS
10
112.108
20
-58.0769
11
112.122
21
-58.0812
0
LINE
8
BLACK
6
CONTINUOUS
10
112.122
20
-58.0812
11
112.135
21
-58.0882
0
LINE
8
BLACK
6
CONTINUOUS
10
112.135
20
-58.0882
11
112.147
21
-58.0975
0
LINE
8
BLACK
6
CONTINUOUS
10
112.147
20
-58.0975
11
112.156
21
-58.1089
0
LINE
8
BLACK
6
CONTINUOUS
10
112.156
20
-58.1089
11
112.163
21
-58.1218
0
LINE
8
BLACK
6
CONTINUOUS
10
112.163
20
-58.1218
11
112.167
21
-58.1358
0
LINE
8
BLACK
6
CONTINUOUS
10
112.167
20
-58.1358
11
112.168
21
-58.1504
0
LINE
8
BLACK
6
CONTINUOUS
10
112.168
20
-58.1504
11
112.168
21
-58.8525
0
LINE
8
BLACK
6
CONTINUOUS
10
112.168
20
-58.8525
11
112.207
21
-58.967
0
LINE
8
BLACK
6
CONTINUOUS
10
112.207
20
-58.967
11
112.277
21
-59.0372
0
LINE
8
BLACK
6
CONTINUOUS
10
112.277
20
-59.0372
11
112.391
21
-59.0754
0
LINE
8
BLACK
6
CONTINUOUS
10
112.391
20
-59.0754
11
112.474
21
-59.0754
0
LINE
8
BLACK
6
CONTINUOUS
10
112.474
20
-59.0754
11
112.475
21
-59.0754
0
LINE
8
BLACK
6
CONTINUOUS
10
112.475
20
-59.0754
11
112.49
21
-59.077
0
LINE
8
BLACK
6
CONTINUOUS
10
112.49
20
-59.077
11
112.504
21
-59.0814
0
LINE
8
BLACK
6
CONTINUOUS
10
112.504
20
-59.0814
11
112.517
21
-59.0885
0
LINE
8
BLACK
6
CONTINUOUS
10
112.517
20
-59.0885
11
112.528
21
-59.0979
0
LINE
8
BLACK
6
CONTINUOUS
10
112.528
20
-59.0979
11
112.537
21
-59.1093
0
LINE
8
BLACK
6
CONTINUOUS
10
112.537
20
-59.1093
11
112.544
21
-59.1223
0
LINE
8
BLACK
6
CONTINUOUS
10
112.544
20
-59.1223
11
112.548
21
-59.1363
0
LINE
8
BLACK
6
CONTINUOUS
10
112.548
20
-59.1363
11
112.549
21
-59.1509
0
LINE
8
BLACK
6
CONTINUOUS
10
112.549
20
-59.1509
11
112.548
21
-59.1655
0
LINE
8
BLACK
6
CONTINUOUS
10
112.548
20
-59.1655
11
112.543
21
-59.1794
0
LINE
8
BLACK
6
CONTINUOUS
10
112.543
20
-59.1794
11
112.536
21
-59.1923
0
LINE
8
BLACK
6
CONTINUOUS
10
112.536
20
-59.1923
11
112.527
21
-59.2036
0
LINE
8
BLACK
6
CONTINUOUS
10
112.527
20
-59.2036
11
112.516
21
-59.2128
0
LINE
8
BLACK
6
CONTINUOUS
10
112.516
20
-59.2128
11
112.503
21
-59.2197
0
LINE
8
BLACK
6
CONTINUOUS
10
112.503
20
-59.2197
11
112.489
21
-59.224
0
LINE
8
BLACK
6
CONTINUOUS
10
112.489
20
-59.224
11
112.474
21
-59.2254
0
LINE
8
BLACK
6
CONTINUOUS
10
112.474
20
-59.2254
11
112.379
21
-59.2254
0
LINE
8
BLACK
6
CONTINUOUS
10
112.379
20
-59.2254
11
112.378
21
-59.2254
0
LINE
8
BLACK
6
CONTINUOUS
10
112.378
20
-59.2254
11
112.374
21
-59.2249
0
LINE
8
BLACK
6
CONTINUOUS
10
112.374
20
-59.2249
11
112.37
21
-59.2248
0
LINE
8
BLACK
6
CONTINUOUS
10
112.37
20
-59.2248
11
112.367
21
-59.2241
0
LINE
8
BLACK
6
CONTINUOUS
10
112.367
20
-59.2241
11
112.363
21
-59.2237
0
LINE
8
BLACK
6
CONTINUOUS
10
112.363
20
-59.2237
11
112.359
21
-59.2225
0
LINE
8
BLACK
6
CONTINUOUS
10
112.359
20
-59.2225
11
112.355
21
-59.2215
0
LINE
8
BLACK
6
CONTINUOUS
10
112.355
20
-59.2215
11
112.212
21
-59.1739
0
LINE
8
BLACK
6
CONTINUOUS
10
112.212
20
-59.1739
11
112.211
21
-59.1736
0
LINE
8
BLACK
6
CONTINUOUS
10
112.211
20
-59.1736
11
112.209
21
-59.1726
0
LINE
8
BLACK
6
CONTINUOUS
10
112.209
20
-59.1726
11
112.207
21
-59.172
0
LINE
8
BLACK
6
CONTINUOUS
10
112.207
20
-59.172
11
112.203
21
-59.1696
0
LINE
8
BLACK
6
CONTINUOUS
10
112.203
20
-59.1696
11
112.198
21
-59.1674
0
LINE
8
BLACK
6
CONTINUOUS
10
112.198
20
-59.1674
11
112.196
21
-59.1661
0
LINE
8
BLACK
6
CONTINUOUS
10
112.196
20
-59.1661
11
112.194
21
-59.1651
0
LINE
8
BLACK
6
CONTINUOUS
10
112.194
20
-59.1651
11
112.191
21
-59.1618
0
LINE
8
BLACK
6
CONTINUOUS
10
112.191
20
-59.1618
11
112.186
21
-59.1588
0
LINE
8
BLACK
6
CONTINUOUS
10
112.186
20
-59.1588
11
112.185
21
-59.1572
0
LINE
8
BLACK
6
CONTINUOUS
10
112.185
20
-59.1572
11
112.183
21
-59.1558
0
LINE
8
BLACK
6
CONTINUOUS
10
112.183
20
-59.1558
11
112.088
21
-59.0606
0
LINE
8
BLACK
6
CONTINUOUS
10
112.088
20
-59.0606
11
112.087
21
-59.0598
0
LINE
8
BLACK
6
CONTINUOUS
10
112.087
20
-59.0598
11
112.086
21
-59.0581
0
LINE
8
BLACK
6
CONTINUOUS
10
112.086
20
-59.0581
11
112.084
21
-59.0566
0
LINE
8
BLACK
6
CONTINUOUS
10
112.084
20
-59.0566
11
112.081
21
-59.0524
0
LINE
8
BLACK
6
CONTINUOUS
10
112.081
20
-59.0524
11
112.078
21
-59.0484
0
LINE
8
BLACK
6
CONTINUOUS
10
112.078
20
-59.0484
11
112.077
21
-59.0464
0
LINE
8
BLACK
6
CONTINUOUS
10
112.077
20
-59.0464
11
112.076
21
-59.0446
0
LINE
8
BLACK
6
CONTINUOUS
10
112.076
20
-59.0446
11
112.074
21
-59.0399
0
LINE
8
BLACK
6
CONTINUOUS
10
112.074
20
-59.0399
11
112.071
21
-59.0354
0
LINE
8
BLACK
6
CONTINUOUS
10
112.071
20
-59.0354
11
112.071
21
-59.0333
0
LINE
8
BLACK
6
CONTINUOUS
10
112.071
20
-59.0333
11
112.07
21
-59.0312
0
LINE
8
BLACK
6
CONTINUOUS
10
112.07
20
-59.0312
11
112.022
21
-58.8884
0
LINE
8
BLACK
6
CONTINUOUS
10
112.022
20
-58.8884
11
112.022
21
-58.8874
0
LINE
8
BLACK
6
CONTINUOUS
10
112.022
20
-58.8874
11
112.021
21
-58.8833
0
LINE
8
BLACK
6
CONTINUOUS
10
112.021
20
-58.8833
11
112.02
21
-58.8792
0
LINE
8
BLACK
6
CONTINUOUS
10
112.02
20
-58.8792
11
112.019
21
-58.8761
0
LINE
8
BLACK
6
CONTINUOUS
10
112.019
20
-58.8761
11
112.019
21
-58.8731
0
LINE
8
BLACK
6
CONTINUOUS
10
112.019
20
-58.8731
11
112.019
21
-58.8689
0
LINE
8
BLACK
6
CONTINUOUS
10
112.019
20
-58.8689
11
112.018
21
-58.8647
0
LINE
8
BLACK
6
CONTINUOUS
10
112.018
20
-58.8647
11
112.018
21
-58.1504
0
LINE
8
BLACK
6
CONTINUOUS
10
112.018
20
-58.1504
11
112.018
21
-58.1493
0
LINE
8
BLACK
6
CONTINUOUS
10
112.018
20
-58.1493
11
112.02
21
-58.1348
0
LINE
8
BLACK
6
CONTINUOUS
10
112.02
20
-58.1348
11
112.024
21
-58.1208
0
LINE
8
BLACK
6
CONTINUOUS
10
112.024
20
-58.1208
11
112.031
21
-58.108
0
LINE
8
BLACK
6
CONTINUOUS
10
112.031
20
-58.108
11
112.041
21
-58.0968
0
LINE
8
BLACK
6
CONTINUOUS
10
112.041
20
-58.0968
11
112.052
21
-58.0876
0
LINE
8
BLACK
6
CONTINUOUS
10
112.052
20
-58.0876
11
112.065
21
-58.0808
0
LINE
8
BLACK
6
CONTINUOUS
10
112.065
20
-58.0808
11
112.079
21
-58.0767
0
LINE
8
BLACK
6
CONTINUOUS
10
112.079
20
-58.0767
11
112.094
21
-58.0754
0
LINE
8
BLACK
6
CONTINUOUS
10
112.094
20
-58.0754
11
112.108
21
-58.0769
  0
ENDSEC
  0
EOF
