G04 #@! TF.GenerationSoftware,KiCad,Pcbnew,(5.1.2)-2*
G04 #@! TF.CreationDate,2020-05-16T03:45:46+07:00*
G04 #@! TF.ProjectId,STM_SHIELD_V1,53544d5f-5348-4494-954c-445f56312e6b,rev?*
G04 #@! TF.SameCoordinates,Original*
G04 #@! TF.FileFunction,Copper,L1,Top*
G04 #@! TF.FilePolarity,Positive*
%FSLAX46Y46*%
G04 Gerber Fmt 4.6, Leading zero omitted, Abs format (unit mm)*
G04 Created by KiCad (PCBNEW (5.1.2)-2) date 2020-05-16 03:45:46*
%MOMM*%
%LPD*%
G04 APERTURE LIST*
%ADD10R,1.800000X1.800000*%
%ADD11C,1.800000*%
%ADD12R,2.200000X2.200000*%
%ADD13R,3.000000X3.000000*%
%ADD14C,3.000000*%
%ADD15C,2.400000*%
%ADD16O,2.400000X2.400000*%
%ADD17C,8.000000*%
%ADD18C,6.000000*%
%ADD19C,2.000000*%
%ADD20C,1.500000*%
%ADD21C,1.000000*%
G04 APERTURE END LIST*
D10*
X106680000Y-17272000D03*
D11*
X104140000Y-17272000D03*
X104140000Y-23876000D03*
D10*
X106680000Y-23876000D03*
D12*
X59690000Y-61468000D03*
X62230000Y-61468000D03*
X59690000Y-64008000D03*
X62230000Y-64008000D03*
X59690000Y-66548000D03*
X62230000Y-66548000D03*
X59690000Y-69088000D03*
X62230000Y-69088000D03*
X59690000Y-71628000D03*
X62230000Y-71628000D03*
X59690000Y-74168000D03*
X62230000Y-74168000D03*
X59690000Y-76708000D03*
X62230000Y-76708000D03*
X59690000Y-79248000D03*
X62230000Y-79248000D03*
X59690000Y-81788000D03*
X62230000Y-81788000D03*
X59690000Y-84328000D03*
X62230000Y-84328000D03*
X59690000Y-86868000D03*
X62230000Y-86868000D03*
X59690000Y-89408000D03*
X62230000Y-89408000D03*
X59690000Y-91948000D03*
X62230000Y-91948000D03*
X59690000Y-94488000D03*
X62230000Y-94488000D03*
X59690000Y-97028000D03*
X62230000Y-97028000D03*
X59690000Y-99568000D03*
X62230000Y-99568000D03*
X59690000Y-102108000D03*
X62230000Y-102108000D03*
X59690000Y-104648000D03*
X62230000Y-104648000D03*
X59690000Y-107188000D03*
X62230000Y-107188000D03*
X59690000Y-109728000D03*
X62230000Y-109728000D03*
X59690000Y-112268000D03*
X62230000Y-112268000D03*
X59690000Y-114808000D03*
X62230000Y-114808000D03*
X59690000Y-117348000D03*
X62230000Y-117348000D03*
X59690000Y-119888000D03*
X62230000Y-119888000D03*
X59690000Y-122428000D03*
X62230000Y-122428000D03*
X108458000Y-133604000D03*
X108458000Y-136144000D03*
X105918000Y-133604000D03*
X105918000Y-136144000D03*
X103378000Y-133604000D03*
X103378000Y-136144000D03*
X100838000Y-133604000D03*
X100838000Y-136144000D03*
X98298000Y-133604000D03*
X98298000Y-136144000D03*
X95758000Y-133604000D03*
X95758000Y-136144000D03*
X93218000Y-133604000D03*
X93218000Y-136144000D03*
X90678000Y-133604000D03*
X90678000Y-136144000D03*
X88138000Y-133604000D03*
X88138000Y-136144000D03*
X85598000Y-133604000D03*
X85598000Y-136144000D03*
X83058000Y-133604000D03*
X83058000Y-136144000D03*
X80518000Y-133604000D03*
X80518000Y-136144000D03*
X77978000Y-133604000D03*
X77978000Y-136144000D03*
X75438000Y-133604000D03*
X75438000Y-136144000D03*
X72898000Y-133604000D03*
X72898000Y-136144000D03*
X70358000Y-133604000D03*
X70358000Y-136144000D03*
X67818000Y-133604000D03*
X67818000Y-136144000D03*
X65278000Y-133604000D03*
X65278000Y-136144000D03*
X62738000Y-133604000D03*
X62738000Y-136144000D03*
X60198000Y-133604000D03*
X60198000Y-136144000D03*
X113030000Y-122428000D03*
X110490000Y-122428000D03*
X113030000Y-119888000D03*
X110490000Y-119888000D03*
X113030000Y-117348000D03*
X110490000Y-117348000D03*
X113030000Y-114808000D03*
X110490000Y-114808000D03*
X113030000Y-112268000D03*
X110490000Y-112268000D03*
X113030000Y-109728000D03*
X110490000Y-109728000D03*
X113030000Y-107188000D03*
X110490000Y-107188000D03*
X113030000Y-104648000D03*
X110490000Y-104648000D03*
X113030000Y-102108000D03*
X110490000Y-102108000D03*
X113030000Y-99568000D03*
X110490000Y-99568000D03*
X113030000Y-97028000D03*
X110490000Y-97028000D03*
X113030000Y-94488000D03*
X110490000Y-94488000D03*
X113030000Y-91948000D03*
X110490000Y-91948000D03*
X113030000Y-89408000D03*
X110490000Y-89408000D03*
X113030000Y-86868000D03*
X110490000Y-86868000D03*
X113030000Y-84328000D03*
X110490000Y-84328000D03*
X113030000Y-81788000D03*
X110490000Y-81788000D03*
X113030000Y-79248000D03*
X110490000Y-79248000D03*
X113030000Y-76708000D03*
X110490000Y-76708000D03*
X113030000Y-74168000D03*
X110490000Y-74168000D03*
X113030000Y-71628000D03*
X110490000Y-71628000D03*
X113030000Y-69088000D03*
X110490000Y-69088000D03*
X113030000Y-66548000D03*
X110490000Y-66548000D03*
X113030000Y-64008000D03*
X110490000Y-64008000D03*
X113030000Y-61468000D03*
X110490000Y-61468000D03*
D13*
X64770000Y-20828000D03*
D14*
X59690000Y-20828000D03*
D12*
X73152000Y-22352000D03*
X75692000Y-22352000D03*
X73152000Y-19812000D03*
X75692000Y-19812000D03*
D15*
X79502000Y-19050000D03*
D16*
X94742000Y-19050000D03*
X94742000Y-23622000D03*
D15*
X79502000Y-23622000D03*
D17*
X121412000Y-18288000D03*
X48514000Y-18542000D03*
D18*
X46736000Y-148082000D03*
D17*
X121158000Y-147066000D03*
D19*
X72136000Y-90170000D03*
X72136000Y-71374000D03*
X67056000Y-54356000D03*
X66627001Y-68246999D03*
X74930000Y-66294000D03*
X74930000Y-82042000D03*
D20*
X61468000Y-130048000D03*
X55626000Y-130048000D03*
X59690000Y-125222000D03*
X59690000Y-129286000D03*
D19*
X103378000Y-138938000D03*
X103378000Y-148082000D03*
X102870000Y-58420000D03*
X102362000Y-70612000D03*
X56388000Y-64008000D03*
X56642000Y-54864000D03*
D21*
X71136001Y-89170001D02*
X72136000Y-90170000D01*
X71136001Y-72373999D02*
X71136001Y-89170001D01*
X72136000Y-71374000D02*
X71136001Y-72373999D01*
X67056000Y-67818000D02*
X66627001Y-68246999D01*
X67056000Y-54356000D02*
X67056000Y-67818000D01*
X74930000Y-66294000D02*
X74930000Y-82042000D01*
X56375999Y-130797999D02*
X55626000Y-130048000D01*
X60718001Y-130797999D02*
X56375999Y-130797999D01*
X61468000Y-130048000D02*
X60718001Y-130797999D01*
X59690000Y-125222000D02*
X59690000Y-129286000D01*
X103378000Y-138938000D02*
X103378000Y-148082000D01*
X102870000Y-70104000D02*
X102362000Y-70612000D01*
X102870000Y-58420000D02*
X102870000Y-70104000D01*
X56642000Y-63754000D02*
X56388000Y-64008000D01*
X56642000Y-54864000D02*
X56642000Y-63754000D01*
M02*
