G04 #@! TF.GenerationSoftware,KiCad,Pcbnew,(5.1.2)-2*
G04 #@! TF.CreationDate,2019-09-02T15:00:53-07:00*
G04 #@! TF.ProjectId,watt meter,77617474-206d-4657-9465-722e6b696361,rev?*
G04 #@! TF.SameCoordinates,Original*
G04 #@! TF.FileFunction,Soldermask,Bot*
G04 #@! TF.FilePolarity,Negative*
%FSLAX46Y46*%
G04 Gerber Fmt 4.6, Leading zero omitted, Abs format (unit mm)*
G04 Created by KiCad (PCBNEW (5.1.2)-2) date 2019-09-02 15:00:53*
%MOMM*%
%LPD*%
G04 APERTURE LIST*
%ADD10C,0.100000*%
G04 APERTURE END LIST*
D10*
G36*
X156726834Y-114954361D02*
G01*
X157074249Y-115098265D01*
X157074251Y-115098266D01*
X157386917Y-115307183D01*
X157652817Y-115573083D01*
X157861734Y-115885749D01*
X157861735Y-115885751D01*
X158005639Y-116233166D01*
X158079000Y-116601979D01*
X158079000Y-116978021D01*
X158005639Y-117346834D01*
X157861735Y-117694249D01*
X157861734Y-117694251D01*
X157652817Y-118006917D01*
X157386917Y-118272817D01*
X157074251Y-118481734D01*
X157074250Y-118481735D01*
X157074249Y-118481735D01*
X156726834Y-118625639D01*
X156358021Y-118699000D01*
X155981979Y-118699000D01*
X155613166Y-118625639D01*
X155265751Y-118481735D01*
X155265750Y-118481735D01*
X155265749Y-118481734D01*
X154953083Y-118272817D01*
X154687183Y-118006917D01*
X154478266Y-117694251D01*
X154478265Y-117694249D01*
X154334361Y-117346834D01*
X154261000Y-116978021D01*
X154261000Y-116601979D01*
X154334361Y-116233166D01*
X154478265Y-115885751D01*
X154478266Y-115885749D01*
X154687183Y-115573083D01*
X154953083Y-115307183D01*
X155265749Y-115098266D01*
X155265751Y-115098265D01*
X155613166Y-114954361D01*
X155981979Y-114881000D01*
X156358021Y-114881000D01*
X156726834Y-114954361D01*
X156726834Y-114954361D01*
G37*
G36*
X125726834Y-114954361D02*
G01*
X126074249Y-115098265D01*
X126074251Y-115098266D01*
X126386917Y-115307183D01*
X126652817Y-115573083D01*
X126861734Y-115885749D01*
X126861735Y-115885751D01*
X127005639Y-116233166D01*
X127079000Y-116601979D01*
X127079000Y-116978021D01*
X127005639Y-117346834D01*
X126861735Y-117694249D01*
X126861734Y-117694251D01*
X126652817Y-118006917D01*
X126386917Y-118272817D01*
X126074251Y-118481734D01*
X126074250Y-118481735D01*
X126074249Y-118481735D01*
X125726834Y-118625639D01*
X125358021Y-118699000D01*
X124981979Y-118699000D01*
X124613166Y-118625639D01*
X124265751Y-118481735D01*
X124265750Y-118481735D01*
X124265749Y-118481734D01*
X123953083Y-118272817D01*
X123687183Y-118006917D01*
X123478266Y-117694251D01*
X123478265Y-117694249D01*
X123334361Y-117346834D01*
X123261000Y-116978021D01*
X123261000Y-116601979D01*
X123334361Y-116233166D01*
X123478265Y-115885751D01*
X123478266Y-115885749D01*
X123687183Y-115573083D01*
X123953083Y-115307183D01*
X124265749Y-115098266D01*
X124265751Y-115098265D01*
X124613166Y-114954361D01*
X124981979Y-114881000D01*
X125358021Y-114881000D01*
X125726834Y-114954361D01*
X125726834Y-114954361D01*
G37*
G36*
X91718205Y-114292461D02*
G01*
X91836153Y-114315922D01*
X91928194Y-114354047D01*
X92058359Y-114407963D01*
X92258342Y-114541587D01*
X92428413Y-114711658D01*
X92562037Y-114911641D01*
X92615953Y-115041806D01*
X92654078Y-115133847D01*
X92701000Y-115369742D01*
X92701000Y-115610258D01*
X92654078Y-115846153D01*
X92637676Y-115885751D01*
X92562037Y-116068359D01*
X92428413Y-116268342D01*
X92258342Y-116438413D01*
X92058359Y-116572037D01*
X91928194Y-116625953D01*
X91836153Y-116664078D01*
X91600259Y-116711000D01*
X91359741Y-116711000D01*
X91123847Y-116664078D01*
X91031806Y-116625953D01*
X90901641Y-116572037D01*
X90701658Y-116438413D01*
X90531587Y-116268342D01*
X90397963Y-116068359D01*
X90322324Y-115885751D01*
X90305922Y-115846153D01*
X90259000Y-115610258D01*
X90259000Y-115369742D01*
X90305922Y-115133847D01*
X90344047Y-115041806D01*
X90397963Y-114911641D01*
X90531587Y-114711658D01*
X90701658Y-114541587D01*
X90901641Y-114407963D01*
X91031806Y-114354047D01*
X91123847Y-114315922D01*
X91241795Y-114292461D01*
X91359741Y-114269000D01*
X91600259Y-114269000D01*
X91718205Y-114292461D01*
X91718205Y-114292461D01*
G37*
G36*
X116421000Y-113881000D02*
G01*
X114719000Y-113881000D01*
X114719000Y-112179000D01*
X116421000Y-112179000D01*
X116421000Y-113881000D01*
X116421000Y-113881000D01*
G37*
G36*
X100496823Y-112191313D02*
G01*
X100657242Y-112239976D01*
X100789906Y-112310886D01*
X100805078Y-112318996D01*
X100934659Y-112425341D01*
X101041004Y-112554922D01*
X101041005Y-112554924D01*
X101120024Y-112702758D01*
X101168687Y-112863177D01*
X101185117Y-113030000D01*
X101168687Y-113196823D01*
X101120024Y-113357242D01*
X101049114Y-113489906D01*
X101041004Y-113505078D01*
X100934659Y-113634659D01*
X100805078Y-113741004D01*
X100805076Y-113741005D01*
X100657242Y-113820024D01*
X100496823Y-113868687D01*
X100371804Y-113881000D01*
X100288196Y-113881000D01*
X100163177Y-113868687D01*
X100002758Y-113820024D01*
X99854924Y-113741005D01*
X99854922Y-113741004D01*
X99725341Y-113634659D01*
X99618996Y-113505078D01*
X99610886Y-113489906D01*
X99539976Y-113357242D01*
X99491313Y-113196823D01*
X99474883Y-113030000D01*
X99491313Y-112863177D01*
X99539976Y-112702758D01*
X99618995Y-112554924D01*
X99618996Y-112554922D01*
X99725341Y-112425341D01*
X99854922Y-112318996D01*
X99870094Y-112310886D01*
X100002758Y-112239976D01*
X100163177Y-112191313D01*
X100288196Y-112179000D01*
X100371804Y-112179000D01*
X100496823Y-112191313D01*
X100496823Y-112191313D01*
G37*
G36*
X125621000Y-112241000D02*
G01*
X123719000Y-112241000D01*
X123719000Y-110339000D01*
X125621000Y-110339000D01*
X125621000Y-112241000D01*
X125621000Y-112241000D01*
G37*
G36*
X94208176Y-109290466D02*
G01*
X94336153Y-109315922D01*
X94428194Y-109354047D01*
X94558359Y-109407963D01*
X94758342Y-109541587D01*
X94928413Y-109711658D01*
X95062037Y-109911641D01*
X95154078Y-110133848D01*
X95201000Y-110369741D01*
X95201000Y-110610259D01*
X95154078Y-110846152D01*
X95062037Y-111068359D01*
X94928413Y-111268342D01*
X94758342Y-111438413D01*
X94558359Y-111572037D01*
X94428194Y-111625953D01*
X94336153Y-111664078D01*
X94218205Y-111687539D01*
X94100259Y-111711000D01*
X93859741Y-111711000D01*
X93741795Y-111687539D01*
X93623847Y-111664078D01*
X93531806Y-111625953D01*
X93401641Y-111572037D01*
X93201658Y-111438413D01*
X93031587Y-111268342D01*
X92897963Y-111068359D01*
X92805922Y-110846152D01*
X92759000Y-110610259D01*
X92759000Y-110369741D01*
X92805922Y-110133848D01*
X92897963Y-109911641D01*
X93031587Y-109711658D01*
X93201658Y-109541587D01*
X93401641Y-109407963D01*
X93531806Y-109354047D01*
X93623847Y-109315922D01*
X93751824Y-109290466D01*
X93859741Y-109269000D01*
X94100259Y-109269000D01*
X94208176Y-109290466D01*
X94208176Y-109290466D01*
G37*
G36*
X89208176Y-109290466D02*
G01*
X89336153Y-109315922D01*
X89428194Y-109354047D01*
X89558359Y-109407963D01*
X89758342Y-109541587D01*
X89928413Y-109711658D01*
X90062037Y-109911641D01*
X90154078Y-110133848D01*
X90201000Y-110369741D01*
X90201000Y-110610259D01*
X90154078Y-110846152D01*
X90062037Y-111068359D01*
X89928413Y-111268342D01*
X89758342Y-111438413D01*
X89558359Y-111572037D01*
X89428194Y-111625953D01*
X89336153Y-111664078D01*
X89218205Y-111687539D01*
X89100259Y-111711000D01*
X88859741Y-111711000D01*
X88741795Y-111687539D01*
X88623847Y-111664078D01*
X88531806Y-111625953D01*
X88401641Y-111572037D01*
X88201658Y-111438413D01*
X88031587Y-111268342D01*
X87897963Y-111068359D01*
X87805922Y-110846152D01*
X87759000Y-110610259D01*
X87759000Y-110369741D01*
X87805922Y-110133848D01*
X87897963Y-109911641D01*
X88031587Y-109711658D01*
X88201658Y-109541587D01*
X88401641Y-109407963D01*
X88531806Y-109354047D01*
X88623847Y-109315922D01*
X88751824Y-109290466D01*
X88859741Y-109269000D01*
X89100259Y-109269000D01*
X89208176Y-109290466D01*
X89208176Y-109290466D01*
G37*
G36*
X100496823Y-109651313D02*
G01*
X100657242Y-109699976D01*
X100679097Y-109711658D01*
X100805078Y-109778996D01*
X100934659Y-109885341D01*
X101041004Y-110014922D01*
X101041005Y-110014924D01*
X101120024Y-110162758D01*
X101168687Y-110323177D01*
X101185117Y-110490000D01*
X101168687Y-110656823D01*
X101120024Y-110817242D01*
X101049114Y-110949906D01*
X101041004Y-110965078D01*
X100934659Y-111094659D01*
X100805078Y-111201004D01*
X100805076Y-111201005D01*
X100657242Y-111280024D01*
X100496823Y-111328687D01*
X100371804Y-111341000D01*
X100288196Y-111341000D01*
X100163177Y-111328687D01*
X100002758Y-111280024D01*
X99854924Y-111201005D01*
X99854922Y-111201004D01*
X99725341Y-111094659D01*
X99618996Y-110965078D01*
X99610886Y-110949906D01*
X99539976Y-110817242D01*
X99491313Y-110656823D01*
X99474883Y-110490000D01*
X99491313Y-110323177D01*
X99539976Y-110162758D01*
X99618995Y-110014924D01*
X99618996Y-110014922D01*
X99725341Y-109885341D01*
X99854922Y-109778996D01*
X99980903Y-109711658D01*
X100002758Y-109699976D01*
X100163177Y-109651313D01*
X100288196Y-109639000D01*
X100371804Y-109639000D01*
X100496823Y-109651313D01*
X100496823Y-109651313D01*
G37*
G36*
X115736823Y-109651313D02*
G01*
X115897242Y-109699976D01*
X115919097Y-109711658D01*
X116045078Y-109778996D01*
X116174659Y-109885341D01*
X116281004Y-110014922D01*
X116281005Y-110014924D01*
X116360024Y-110162758D01*
X116408687Y-110323177D01*
X116425117Y-110490000D01*
X116408687Y-110656823D01*
X116360024Y-110817242D01*
X116289114Y-110949906D01*
X116281004Y-110965078D01*
X116174659Y-111094659D01*
X116045078Y-111201004D01*
X116045076Y-111201005D01*
X115897242Y-111280024D01*
X115736823Y-111328687D01*
X115611804Y-111341000D01*
X115528196Y-111341000D01*
X115403177Y-111328687D01*
X115242758Y-111280024D01*
X115094924Y-111201005D01*
X115094922Y-111201004D01*
X114965341Y-111094659D01*
X114858996Y-110965078D01*
X114850886Y-110949906D01*
X114779976Y-110817242D01*
X114731313Y-110656823D01*
X114714883Y-110490000D01*
X114731313Y-110323177D01*
X114779976Y-110162758D01*
X114858995Y-110014924D01*
X114858996Y-110014922D01*
X114965341Y-109885341D01*
X115094922Y-109778996D01*
X115220903Y-109711658D01*
X115242758Y-109699976D01*
X115403177Y-109651313D01*
X115528196Y-109639000D01*
X115611804Y-109639000D01*
X115736823Y-109651313D01*
X115736823Y-109651313D01*
G37*
G36*
X124947395Y-107925546D02*
G01*
X125120466Y-107997234D01*
X125120467Y-107997235D01*
X125276227Y-108101310D01*
X125408690Y-108233773D01*
X125408691Y-108233775D01*
X125512766Y-108389534D01*
X125584454Y-108562605D01*
X125621000Y-108746333D01*
X125621000Y-108933667D01*
X125584454Y-109117395D01*
X125512766Y-109290466D01*
X125512765Y-109290467D01*
X125408690Y-109446227D01*
X125276227Y-109578690D01*
X125197818Y-109631081D01*
X125120466Y-109682766D01*
X124947395Y-109754454D01*
X124763667Y-109791000D01*
X124576333Y-109791000D01*
X124392605Y-109754454D01*
X124219534Y-109682766D01*
X124142182Y-109631081D01*
X124063773Y-109578690D01*
X123931310Y-109446227D01*
X123827235Y-109290467D01*
X123827234Y-109290466D01*
X123755546Y-109117395D01*
X123719000Y-108933667D01*
X123719000Y-108746333D01*
X123755546Y-108562605D01*
X123827234Y-108389534D01*
X123931309Y-108233775D01*
X123931310Y-108233773D01*
X124063773Y-108101310D01*
X124219533Y-107997235D01*
X124219534Y-107997234D01*
X124392605Y-107925546D01*
X124576333Y-107889000D01*
X124763667Y-107889000D01*
X124947395Y-107925546D01*
X124947395Y-107925546D01*
G37*
G36*
X115736823Y-107111313D02*
G01*
X115897242Y-107159976D01*
X116029906Y-107230886D01*
X116045078Y-107238996D01*
X116174659Y-107345341D01*
X116281004Y-107474922D01*
X116281005Y-107474924D01*
X116360024Y-107622758D01*
X116408687Y-107783177D01*
X116425117Y-107950000D01*
X116408687Y-108116823D01*
X116360024Y-108277242D01*
X116300003Y-108389533D01*
X116281004Y-108425078D01*
X116174659Y-108554659D01*
X116045078Y-108661004D01*
X116045076Y-108661005D01*
X115897242Y-108740024D01*
X115736823Y-108788687D01*
X115611804Y-108801000D01*
X115528196Y-108801000D01*
X115403177Y-108788687D01*
X115242758Y-108740024D01*
X115094924Y-108661005D01*
X115094922Y-108661004D01*
X114965341Y-108554659D01*
X114858996Y-108425078D01*
X114839997Y-108389533D01*
X114779976Y-108277242D01*
X114731313Y-108116823D01*
X114714883Y-107950000D01*
X114731313Y-107783177D01*
X114779976Y-107622758D01*
X114858995Y-107474924D01*
X114858996Y-107474922D01*
X114965341Y-107345341D01*
X115094922Y-107238996D01*
X115110094Y-107230886D01*
X115242758Y-107159976D01*
X115403177Y-107111313D01*
X115528196Y-107099000D01*
X115611804Y-107099000D01*
X115736823Y-107111313D01*
X115736823Y-107111313D01*
G37*
G36*
X100496823Y-107111313D02*
G01*
X100657242Y-107159976D01*
X100789906Y-107230886D01*
X100805078Y-107238996D01*
X100934659Y-107345341D01*
X101041004Y-107474922D01*
X101041005Y-107474924D01*
X101120024Y-107622758D01*
X101168687Y-107783177D01*
X101185117Y-107950000D01*
X101168687Y-108116823D01*
X101120024Y-108277242D01*
X101060003Y-108389533D01*
X101041004Y-108425078D01*
X100934659Y-108554659D01*
X100805078Y-108661004D01*
X100805076Y-108661005D01*
X100657242Y-108740024D01*
X100496823Y-108788687D01*
X100371804Y-108801000D01*
X100288196Y-108801000D01*
X100163177Y-108788687D01*
X100002758Y-108740024D01*
X99854924Y-108661005D01*
X99854922Y-108661004D01*
X99725341Y-108554659D01*
X99618996Y-108425078D01*
X99599997Y-108389533D01*
X99539976Y-108277242D01*
X99491313Y-108116823D01*
X99474883Y-107950000D01*
X99491313Y-107783177D01*
X99539976Y-107622758D01*
X99618995Y-107474924D01*
X99618996Y-107474922D01*
X99725341Y-107345341D01*
X99854922Y-107238996D01*
X99870094Y-107230886D01*
X100002758Y-107159976D01*
X100163177Y-107111313D01*
X100288196Y-107099000D01*
X100371804Y-107099000D01*
X100496823Y-107111313D01*
X100496823Y-107111313D01*
G37*
G36*
X124947395Y-105295546D02*
G01*
X125120466Y-105367234D01*
X125120467Y-105367235D01*
X125276227Y-105471310D01*
X125408690Y-105603773D01*
X125408691Y-105603775D01*
X125512766Y-105759534D01*
X125584454Y-105932605D01*
X125621000Y-106116333D01*
X125621000Y-106303667D01*
X125584454Y-106487395D01*
X125512766Y-106660466D01*
X125512765Y-106660467D01*
X125408690Y-106816227D01*
X125276227Y-106948690D01*
X125197818Y-107001081D01*
X125120466Y-107052766D01*
X124947395Y-107124454D01*
X124763667Y-107161000D01*
X124576333Y-107161000D01*
X124392605Y-107124454D01*
X124219534Y-107052766D01*
X124142182Y-107001081D01*
X124063773Y-106948690D01*
X123931310Y-106816227D01*
X123827235Y-106660467D01*
X123827234Y-106660466D01*
X123755546Y-106487395D01*
X123719000Y-106303667D01*
X123719000Y-106116333D01*
X123755546Y-105932605D01*
X123827234Y-105759534D01*
X123931309Y-105603775D01*
X123931310Y-105603773D01*
X124063773Y-105471310D01*
X124219533Y-105367235D01*
X124219534Y-105367234D01*
X124392605Y-105295546D01*
X124576333Y-105259000D01*
X124763667Y-105259000D01*
X124947395Y-105295546D01*
X124947395Y-105295546D01*
G37*
G36*
X115736823Y-104571313D02*
G01*
X115897242Y-104619976D01*
X116029441Y-104690638D01*
X116045078Y-104698996D01*
X116174659Y-104805341D01*
X116281004Y-104934922D01*
X116281005Y-104934924D01*
X116360024Y-105082758D01*
X116408687Y-105243177D01*
X116425117Y-105410000D01*
X116408687Y-105576823D01*
X116360024Y-105737242D01*
X116289114Y-105869906D01*
X116281004Y-105885078D01*
X116174659Y-106014659D01*
X116045078Y-106121004D01*
X116045076Y-106121005D01*
X115897242Y-106200024D01*
X115736823Y-106248687D01*
X115611804Y-106261000D01*
X115528196Y-106261000D01*
X115403177Y-106248687D01*
X115242758Y-106200024D01*
X115094924Y-106121005D01*
X115094922Y-106121004D01*
X114965341Y-106014659D01*
X114858996Y-105885078D01*
X114850886Y-105869906D01*
X114779976Y-105737242D01*
X114731313Y-105576823D01*
X114714883Y-105410000D01*
X114731313Y-105243177D01*
X114779976Y-105082758D01*
X114858995Y-104934924D01*
X114858996Y-104934922D01*
X114965341Y-104805341D01*
X115094922Y-104698996D01*
X115110559Y-104690638D01*
X115242758Y-104619976D01*
X115403177Y-104571313D01*
X115528196Y-104559000D01*
X115611804Y-104559000D01*
X115736823Y-104571313D01*
X115736823Y-104571313D01*
G37*
G36*
X100496823Y-104571313D02*
G01*
X100657242Y-104619976D01*
X100789441Y-104690638D01*
X100805078Y-104698996D01*
X100934659Y-104805341D01*
X101041004Y-104934922D01*
X101041005Y-104934924D01*
X101120024Y-105082758D01*
X101168687Y-105243177D01*
X101185117Y-105410000D01*
X101168687Y-105576823D01*
X101120024Y-105737242D01*
X101049114Y-105869906D01*
X101041004Y-105885078D01*
X100934659Y-106014659D01*
X100805078Y-106121004D01*
X100805076Y-106121005D01*
X100657242Y-106200024D01*
X100496823Y-106248687D01*
X100371804Y-106261000D01*
X100288196Y-106261000D01*
X100163177Y-106248687D01*
X100002758Y-106200024D01*
X99854924Y-106121005D01*
X99854922Y-106121004D01*
X99725341Y-106014659D01*
X99618996Y-105885078D01*
X99610886Y-105869906D01*
X99539976Y-105737242D01*
X99491313Y-105576823D01*
X99474883Y-105410000D01*
X99491313Y-105243177D01*
X99539976Y-105082758D01*
X99618995Y-104934924D01*
X99618996Y-104934922D01*
X99725341Y-104805341D01*
X99854922Y-104698996D01*
X99870559Y-104690638D01*
X100002758Y-104619976D01*
X100163177Y-104571313D01*
X100288196Y-104559000D01*
X100371804Y-104559000D01*
X100496823Y-104571313D01*
X100496823Y-104571313D01*
G37*
G36*
X96688519Y-103292797D02*
G01*
X96771961Y-103309395D01*
X96929163Y-103374510D01*
X97070641Y-103469042D01*
X97190958Y-103589359D01*
X97285490Y-103730837D01*
X97350605Y-103888039D01*
X97383800Y-104054923D01*
X97383800Y-104225077D01*
X97350605Y-104391961D01*
X97285490Y-104549163D01*
X97190958Y-104690641D01*
X97070641Y-104810958D01*
X96929163Y-104905490D01*
X96771961Y-104970605D01*
X96688519Y-104987202D01*
X96605078Y-105003800D01*
X96434922Y-105003800D01*
X96351481Y-104987203D01*
X96268039Y-104970605D01*
X96110837Y-104905490D01*
X95969359Y-104810958D01*
X95849042Y-104690641D01*
X95754510Y-104549163D01*
X95689395Y-104391961D01*
X95656200Y-104225077D01*
X95656200Y-104054923D01*
X95689395Y-103888039D01*
X95754510Y-103730837D01*
X95849042Y-103589359D01*
X95969359Y-103469042D01*
X96110837Y-103374510D01*
X96268039Y-103309395D01*
X96351481Y-103292797D01*
X96434922Y-103276200D01*
X96605078Y-103276200D01*
X96688519Y-103292797D01*
X96688519Y-103292797D01*
G37*
G36*
X89068519Y-103292797D02*
G01*
X89151961Y-103309395D01*
X89309163Y-103374510D01*
X89450641Y-103469042D01*
X89570958Y-103589359D01*
X89665490Y-103730837D01*
X89730605Y-103888039D01*
X89763800Y-104054923D01*
X89763800Y-104225077D01*
X89730605Y-104391961D01*
X89665490Y-104549163D01*
X89570958Y-104690641D01*
X89450641Y-104810958D01*
X89309163Y-104905490D01*
X89151961Y-104970605D01*
X89068519Y-104987202D01*
X88985078Y-105003800D01*
X88814922Y-105003800D01*
X88731481Y-104987203D01*
X88648039Y-104970605D01*
X88490837Y-104905490D01*
X88349359Y-104810958D01*
X88229042Y-104690641D01*
X88134510Y-104549163D01*
X88069395Y-104391961D01*
X88036200Y-104225077D01*
X88036200Y-104054923D01*
X88069395Y-103888039D01*
X88134510Y-103730837D01*
X88229042Y-103589359D01*
X88349359Y-103469042D01*
X88490837Y-103374510D01*
X88648039Y-103309395D01*
X88731481Y-103292797D01*
X88814922Y-103276200D01*
X88985078Y-103276200D01*
X89068519Y-103292797D01*
X89068519Y-103292797D01*
G37*
G36*
X124947395Y-102755546D02*
G01*
X125120466Y-102827234D01*
X125120467Y-102827235D01*
X125276227Y-102931310D01*
X125408690Y-103063773D01*
X125408691Y-103063775D01*
X125512766Y-103219534D01*
X125584454Y-103392605D01*
X125621000Y-103576333D01*
X125621000Y-103763667D01*
X125584454Y-103947395D01*
X125512766Y-104120466D01*
X125512765Y-104120467D01*
X125408690Y-104276227D01*
X125276227Y-104408690D01*
X125197818Y-104461081D01*
X125120466Y-104512766D01*
X124947395Y-104584454D01*
X124763667Y-104621000D01*
X124576333Y-104621000D01*
X124392605Y-104584454D01*
X124219534Y-104512766D01*
X124142182Y-104461081D01*
X124063773Y-104408690D01*
X123931310Y-104276227D01*
X123827235Y-104120467D01*
X123827234Y-104120466D01*
X123755546Y-103947395D01*
X123719000Y-103763667D01*
X123719000Y-103576333D01*
X123755546Y-103392605D01*
X123827234Y-103219534D01*
X123931309Y-103063775D01*
X123931310Y-103063773D01*
X124063773Y-102931310D01*
X124219533Y-102827235D01*
X124219534Y-102827234D01*
X124392605Y-102755546D01*
X124576333Y-102719000D01*
X124763667Y-102719000D01*
X124947395Y-102755546D01*
X124947395Y-102755546D01*
G37*
G36*
X115736823Y-102031313D02*
G01*
X115897242Y-102079976D01*
X116029441Y-102150638D01*
X116045078Y-102158996D01*
X116174659Y-102265341D01*
X116281004Y-102394922D01*
X116281005Y-102394924D01*
X116360024Y-102542758D01*
X116408687Y-102703177D01*
X116425117Y-102870000D01*
X116408687Y-103036823D01*
X116360024Y-103197242D01*
X116317820Y-103276200D01*
X116281004Y-103345078D01*
X116174659Y-103474659D01*
X116045078Y-103581004D01*
X116045076Y-103581005D01*
X115897242Y-103660024D01*
X115736823Y-103708687D01*
X115611804Y-103721000D01*
X115528196Y-103721000D01*
X115403177Y-103708687D01*
X115242758Y-103660024D01*
X115094924Y-103581005D01*
X115094922Y-103581004D01*
X114965341Y-103474659D01*
X114858996Y-103345078D01*
X114822180Y-103276200D01*
X114779976Y-103197242D01*
X114731313Y-103036823D01*
X114714883Y-102870000D01*
X114731313Y-102703177D01*
X114779976Y-102542758D01*
X114858995Y-102394924D01*
X114858996Y-102394922D01*
X114965341Y-102265341D01*
X115094922Y-102158996D01*
X115110559Y-102150638D01*
X115242758Y-102079976D01*
X115403177Y-102031313D01*
X115528196Y-102019000D01*
X115611804Y-102019000D01*
X115736823Y-102031313D01*
X115736823Y-102031313D01*
G37*
G36*
X100496823Y-102031313D02*
G01*
X100657242Y-102079976D01*
X100789441Y-102150638D01*
X100805078Y-102158996D01*
X100934659Y-102265341D01*
X101041004Y-102394922D01*
X101041005Y-102394924D01*
X101120024Y-102542758D01*
X101168687Y-102703177D01*
X101185117Y-102870000D01*
X101168687Y-103036823D01*
X101120024Y-103197242D01*
X101077820Y-103276200D01*
X101041004Y-103345078D01*
X100934659Y-103474659D01*
X100805078Y-103581004D01*
X100805076Y-103581005D01*
X100657242Y-103660024D01*
X100496823Y-103708687D01*
X100371804Y-103721000D01*
X100288196Y-103721000D01*
X100163177Y-103708687D01*
X100002758Y-103660024D01*
X99854924Y-103581005D01*
X99854922Y-103581004D01*
X99725341Y-103474659D01*
X99618996Y-103345078D01*
X99582180Y-103276200D01*
X99539976Y-103197242D01*
X99491313Y-103036823D01*
X99474883Y-102870000D01*
X99491313Y-102703177D01*
X99539976Y-102542758D01*
X99618995Y-102394924D01*
X99618996Y-102394922D01*
X99725341Y-102265341D01*
X99854922Y-102158996D01*
X99870559Y-102150638D01*
X100002758Y-102079976D01*
X100163177Y-102031313D01*
X100288196Y-102019000D01*
X100371804Y-102019000D01*
X100496823Y-102031313D01*
X100496823Y-102031313D01*
G37*
G36*
X89068519Y-100752798D02*
G01*
X89151961Y-100769395D01*
X89309163Y-100834510D01*
X89450641Y-100929042D01*
X89570958Y-101049359D01*
X89665490Y-101190837D01*
X89730605Y-101348039D01*
X89763800Y-101514923D01*
X89763800Y-101685077D01*
X89730605Y-101851961D01*
X89665490Y-102009163D01*
X89570958Y-102150641D01*
X89450641Y-102270958D01*
X89309163Y-102365490D01*
X89151961Y-102430605D01*
X89068519Y-102447202D01*
X88985078Y-102463800D01*
X88814922Y-102463800D01*
X88731481Y-102447203D01*
X88648039Y-102430605D01*
X88490837Y-102365490D01*
X88349359Y-102270958D01*
X88229042Y-102150641D01*
X88134510Y-102009163D01*
X88069395Y-101851961D01*
X88036200Y-101685077D01*
X88036200Y-101514923D01*
X88069395Y-101348039D01*
X88134510Y-101190837D01*
X88229042Y-101049359D01*
X88349359Y-100929042D01*
X88490837Y-100834510D01*
X88648039Y-100769395D01*
X88731481Y-100752798D01*
X88814922Y-100736200D01*
X88985078Y-100736200D01*
X89068519Y-100752798D01*
X89068519Y-100752798D01*
G37*
G36*
X96688519Y-100752798D02*
G01*
X96771961Y-100769395D01*
X96929163Y-100834510D01*
X97070641Y-100929042D01*
X97190958Y-101049359D01*
X97285490Y-101190837D01*
X97350605Y-101348039D01*
X97383800Y-101514923D01*
X97383800Y-101685077D01*
X97350605Y-101851961D01*
X97285490Y-102009163D01*
X97190958Y-102150641D01*
X97070641Y-102270958D01*
X96929163Y-102365490D01*
X96771961Y-102430605D01*
X96688519Y-102447202D01*
X96605078Y-102463800D01*
X96434922Y-102463800D01*
X96351481Y-102447203D01*
X96268039Y-102430605D01*
X96110837Y-102365490D01*
X95969359Y-102270958D01*
X95849042Y-102150641D01*
X95754510Y-102009163D01*
X95689395Y-101851961D01*
X95656200Y-101685077D01*
X95656200Y-101514923D01*
X95689395Y-101348039D01*
X95754510Y-101190837D01*
X95849042Y-101049359D01*
X95969359Y-100929042D01*
X96110837Y-100834510D01*
X96268039Y-100769395D01*
X96351481Y-100752798D01*
X96434922Y-100736200D01*
X96605078Y-100736200D01*
X96688519Y-100752798D01*
X96688519Y-100752798D01*
G37*
G36*
X124947395Y-100215546D02*
G01*
X125120466Y-100287234D01*
X125120467Y-100287235D01*
X125276227Y-100391310D01*
X125408690Y-100523773D01*
X125408691Y-100523775D01*
X125512766Y-100679534D01*
X125584454Y-100852605D01*
X125621000Y-101036333D01*
X125621000Y-101223667D01*
X125584454Y-101407395D01*
X125512766Y-101580466D01*
X125479000Y-101631000D01*
X125408690Y-101736227D01*
X125276227Y-101868690D01*
X125197818Y-101921081D01*
X125120466Y-101972766D01*
X124947395Y-102044454D01*
X124763667Y-102081000D01*
X124576333Y-102081000D01*
X124392605Y-102044454D01*
X124219534Y-101972766D01*
X124142182Y-101921081D01*
X124063773Y-101868690D01*
X123931310Y-101736227D01*
X123861000Y-101631000D01*
X123827234Y-101580466D01*
X123755546Y-101407395D01*
X123719000Y-101223667D01*
X123719000Y-101036333D01*
X123755546Y-100852605D01*
X123827234Y-100679534D01*
X123931309Y-100523775D01*
X123931310Y-100523773D01*
X124063773Y-100391310D01*
X124219533Y-100287235D01*
X124219534Y-100287234D01*
X124392605Y-100215546D01*
X124576333Y-100179000D01*
X124763667Y-100179000D01*
X124947395Y-100215546D01*
X124947395Y-100215546D01*
G37*
G36*
X83979472Y-99038412D02*
G01*
X84075040Y-99047825D01*
X84320280Y-99122218D01*
X84546294Y-99243025D01*
X84597899Y-99285376D01*
X84744397Y-99405603D01*
X84825520Y-99504453D01*
X84906975Y-99603706D01*
X85027782Y-99829720D01*
X85102175Y-100074960D01*
X85127294Y-100330000D01*
X85102175Y-100585040D01*
X85027782Y-100830280D01*
X84906975Y-101056294D01*
X84864624Y-101107899D01*
X84744397Y-101254397D01*
X84597899Y-101374624D01*
X84546294Y-101416975D01*
X84320280Y-101537782D01*
X84075040Y-101612175D01*
X83979473Y-101621587D01*
X83883906Y-101631000D01*
X83756094Y-101631000D01*
X83660527Y-101621587D01*
X83564960Y-101612175D01*
X83319720Y-101537782D01*
X83093706Y-101416975D01*
X83042101Y-101374624D01*
X82895603Y-101254397D01*
X82775376Y-101107899D01*
X82733025Y-101056294D01*
X82612218Y-100830280D01*
X82537825Y-100585040D01*
X82512706Y-100330000D01*
X82537825Y-100074960D01*
X82612218Y-99829720D01*
X82733025Y-99603706D01*
X82814480Y-99504453D01*
X82895603Y-99405603D01*
X83042101Y-99285376D01*
X83093706Y-99243025D01*
X83319720Y-99122218D01*
X83564960Y-99047825D01*
X83660527Y-99038413D01*
X83756094Y-99029000D01*
X83883906Y-99029000D01*
X83979472Y-99038412D01*
X83979472Y-99038412D01*
G37*
G36*
X77501000Y-101631000D02*
G01*
X74899000Y-101631000D01*
X74899000Y-99029000D01*
X77501000Y-99029000D01*
X77501000Y-101631000D01*
X77501000Y-101631000D01*
G37*
G36*
X115736823Y-99491313D02*
G01*
X115897242Y-99539976D01*
X116016472Y-99603706D01*
X116045078Y-99618996D01*
X116174659Y-99725341D01*
X116281004Y-99854922D01*
X116281005Y-99854924D01*
X116360024Y-100002758D01*
X116408687Y-100163177D01*
X116425117Y-100330000D01*
X116408687Y-100496823D01*
X116360024Y-100657242D01*
X116317820Y-100736200D01*
X116281004Y-100805078D01*
X116174659Y-100934659D01*
X116045078Y-101041004D01*
X116045076Y-101041005D01*
X115897242Y-101120024D01*
X115736823Y-101168687D01*
X115611804Y-101181000D01*
X115528196Y-101181000D01*
X115403177Y-101168687D01*
X115242758Y-101120024D01*
X115094924Y-101041005D01*
X115094922Y-101041004D01*
X114965341Y-100934659D01*
X114858996Y-100805078D01*
X114822180Y-100736200D01*
X114779976Y-100657242D01*
X114731313Y-100496823D01*
X114714883Y-100330000D01*
X114731313Y-100163177D01*
X114779976Y-100002758D01*
X114858995Y-99854924D01*
X114858996Y-99854922D01*
X114965341Y-99725341D01*
X115094922Y-99618996D01*
X115123528Y-99603706D01*
X115242758Y-99539976D01*
X115403177Y-99491313D01*
X115528196Y-99479000D01*
X115611804Y-99479000D01*
X115736823Y-99491313D01*
X115736823Y-99491313D01*
G37*
G36*
X100496823Y-99491313D02*
G01*
X100657242Y-99539976D01*
X100776472Y-99603706D01*
X100805078Y-99618996D01*
X100934659Y-99725341D01*
X101041004Y-99854922D01*
X101041005Y-99854924D01*
X101120024Y-100002758D01*
X101168687Y-100163177D01*
X101185117Y-100330000D01*
X101168687Y-100496823D01*
X101120024Y-100657242D01*
X101077820Y-100736200D01*
X101041004Y-100805078D01*
X100934659Y-100934659D01*
X100805078Y-101041004D01*
X100805076Y-101041005D01*
X100657242Y-101120024D01*
X100496823Y-101168687D01*
X100371804Y-101181000D01*
X100288196Y-101181000D01*
X100163177Y-101168687D01*
X100002758Y-101120024D01*
X99854924Y-101041005D01*
X99854922Y-101041004D01*
X99725341Y-100934659D01*
X99618996Y-100805078D01*
X99582180Y-100736200D01*
X99539976Y-100657242D01*
X99491313Y-100496823D01*
X99474883Y-100330000D01*
X99491313Y-100163177D01*
X99539976Y-100002758D01*
X99618995Y-99854924D01*
X99618996Y-99854922D01*
X99725341Y-99725341D01*
X99854922Y-99618996D01*
X99883528Y-99603706D01*
X100002758Y-99539976D01*
X100163177Y-99491313D01*
X100288196Y-99479000D01*
X100371804Y-99479000D01*
X100496823Y-99491313D01*
X100496823Y-99491313D01*
G37*
G36*
X96688519Y-98212797D02*
G01*
X96771961Y-98229395D01*
X96929163Y-98294510D01*
X97070641Y-98389042D01*
X97190958Y-98509359D01*
X97285490Y-98650837D01*
X97350605Y-98808039D01*
X97383800Y-98974923D01*
X97383800Y-99145077D01*
X97350605Y-99311961D01*
X97285490Y-99469163D01*
X97190958Y-99610641D01*
X97070641Y-99730958D01*
X96929163Y-99825490D01*
X96771961Y-99890605D01*
X96688519Y-99907202D01*
X96605078Y-99923800D01*
X96434922Y-99923800D01*
X96351481Y-99907202D01*
X96268039Y-99890605D01*
X96110837Y-99825490D01*
X95969359Y-99730958D01*
X95849042Y-99610641D01*
X95754510Y-99469163D01*
X95689395Y-99311961D01*
X95656200Y-99145077D01*
X95656200Y-98974923D01*
X95689395Y-98808039D01*
X95754510Y-98650837D01*
X95849042Y-98509359D01*
X95969359Y-98389042D01*
X96110837Y-98294510D01*
X96268039Y-98229395D01*
X96351481Y-98212798D01*
X96434922Y-98196200D01*
X96605078Y-98196200D01*
X96688519Y-98212797D01*
X96688519Y-98212797D01*
G37*
G36*
X89068519Y-98212797D02*
G01*
X89151961Y-98229395D01*
X89309163Y-98294510D01*
X89450641Y-98389042D01*
X89570958Y-98509359D01*
X89665490Y-98650837D01*
X89730605Y-98808039D01*
X89763800Y-98974923D01*
X89763800Y-99145077D01*
X89730605Y-99311961D01*
X89665490Y-99469163D01*
X89570958Y-99610641D01*
X89450641Y-99730958D01*
X89309163Y-99825490D01*
X89151961Y-99890605D01*
X89068519Y-99907202D01*
X88985078Y-99923800D01*
X88814922Y-99923800D01*
X88731481Y-99907202D01*
X88648039Y-99890605D01*
X88490837Y-99825490D01*
X88349359Y-99730958D01*
X88229042Y-99610641D01*
X88134510Y-99469163D01*
X88069395Y-99311961D01*
X88036200Y-99145077D01*
X88036200Y-98974923D01*
X88069395Y-98808039D01*
X88134510Y-98650837D01*
X88229042Y-98509359D01*
X88349359Y-98389042D01*
X88490837Y-98294510D01*
X88648039Y-98229395D01*
X88731481Y-98212798D01*
X88814922Y-98196200D01*
X88985078Y-98196200D01*
X89068519Y-98212797D01*
X89068519Y-98212797D01*
G37*
G36*
X124947395Y-97675546D02*
G01*
X125120466Y-97747234D01*
X125120467Y-97747235D01*
X125276227Y-97851310D01*
X125408690Y-97983773D01*
X125408691Y-97983775D01*
X125512766Y-98139534D01*
X125584454Y-98312605D01*
X125621000Y-98496333D01*
X125621000Y-98683667D01*
X125584454Y-98867395D01*
X125512766Y-99040466D01*
X125512765Y-99040467D01*
X125408690Y-99196227D01*
X125276227Y-99328690D01*
X125197818Y-99381081D01*
X125120466Y-99432766D01*
X124947395Y-99504454D01*
X124763667Y-99541000D01*
X124576333Y-99541000D01*
X124392605Y-99504454D01*
X124219534Y-99432766D01*
X124142182Y-99381081D01*
X124063773Y-99328690D01*
X123931310Y-99196227D01*
X123827235Y-99040467D01*
X123827234Y-99040466D01*
X123755546Y-98867395D01*
X123719000Y-98683667D01*
X123719000Y-98496333D01*
X123755546Y-98312605D01*
X123827234Y-98139534D01*
X123931309Y-97983775D01*
X123931310Y-97983773D01*
X124063773Y-97851310D01*
X124219533Y-97747235D01*
X124219534Y-97747234D01*
X124392605Y-97675546D01*
X124576333Y-97639000D01*
X124763667Y-97639000D01*
X124947395Y-97675546D01*
X124947395Y-97675546D01*
G37*
G36*
X115736823Y-96951313D02*
G01*
X115897242Y-96999976D01*
X116029441Y-97070638D01*
X116045078Y-97078996D01*
X116174659Y-97185341D01*
X116281004Y-97314922D01*
X116281005Y-97314924D01*
X116360024Y-97462758D01*
X116408687Y-97623177D01*
X116425117Y-97790000D01*
X116408687Y-97956823D01*
X116360024Y-98117242D01*
X116317820Y-98196200D01*
X116281004Y-98265078D01*
X116174659Y-98394659D01*
X116045078Y-98501004D01*
X116045076Y-98501005D01*
X115897242Y-98580024D01*
X115736823Y-98628687D01*
X115611804Y-98641000D01*
X115528196Y-98641000D01*
X115403177Y-98628687D01*
X115242758Y-98580024D01*
X115094924Y-98501005D01*
X115094922Y-98501004D01*
X114965341Y-98394659D01*
X114858996Y-98265078D01*
X114822180Y-98196200D01*
X114779976Y-98117242D01*
X114731313Y-97956823D01*
X114714883Y-97790000D01*
X114731313Y-97623177D01*
X114779976Y-97462758D01*
X114858995Y-97314924D01*
X114858996Y-97314922D01*
X114965341Y-97185341D01*
X115094922Y-97078996D01*
X115110559Y-97070638D01*
X115242758Y-96999976D01*
X115403177Y-96951313D01*
X115528196Y-96939000D01*
X115611804Y-96939000D01*
X115736823Y-96951313D01*
X115736823Y-96951313D01*
G37*
G36*
X100496823Y-96951313D02*
G01*
X100657242Y-96999976D01*
X100789441Y-97070638D01*
X100805078Y-97078996D01*
X100934659Y-97185341D01*
X101041004Y-97314922D01*
X101041005Y-97314924D01*
X101120024Y-97462758D01*
X101168687Y-97623177D01*
X101185117Y-97790000D01*
X101168687Y-97956823D01*
X101120024Y-98117242D01*
X101077820Y-98196200D01*
X101041004Y-98265078D01*
X100934659Y-98394659D01*
X100805078Y-98501004D01*
X100805076Y-98501005D01*
X100657242Y-98580024D01*
X100496823Y-98628687D01*
X100371804Y-98641000D01*
X100288196Y-98641000D01*
X100163177Y-98628687D01*
X100002758Y-98580024D01*
X99854924Y-98501005D01*
X99854922Y-98501004D01*
X99725341Y-98394659D01*
X99618996Y-98265078D01*
X99582180Y-98196200D01*
X99539976Y-98117242D01*
X99491313Y-97956823D01*
X99474883Y-97790000D01*
X99491313Y-97623177D01*
X99539976Y-97462758D01*
X99618995Y-97314924D01*
X99618996Y-97314922D01*
X99725341Y-97185341D01*
X99854922Y-97078996D01*
X99870559Y-97070638D01*
X100002758Y-96999976D01*
X100163177Y-96951313D01*
X100288196Y-96939000D01*
X100371804Y-96939000D01*
X100496823Y-96951313D01*
X100496823Y-96951313D01*
G37*
G36*
X70131000Y-98071000D02*
G01*
X67029000Y-98071000D01*
X67029000Y-94969000D01*
X70131000Y-94969000D01*
X70131000Y-98071000D01*
X70131000Y-98071000D01*
G37*
G36*
X89068519Y-95672797D02*
G01*
X89151961Y-95689395D01*
X89309163Y-95754510D01*
X89450641Y-95849042D01*
X89570958Y-95969359D01*
X89665490Y-96110837D01*
X89730605Y-96268039D01*
X89763800Y-96434923D01*
X89763800Y-96605077D01*
X89730605Y-96771961D01*
X89665490Y-96929163D01*
X89570958Y-97070641D01*
X89450641Y-97190958D01*
X89309163Y-97285490D01*
X89151961Y-97350605D01*
X89068519Y-97367203D01*
X88985078Y-97383800D01*
X88814922Y-97383800D01*
X88731481Y-97367202D01*
X88648039Y-97350605D01*
X88490837Y-97285490D01*
X88349359Y-97190958D01*
X88229042Y-97070641D01*
X88134510Y-96929163D01*
X88069395Y-96771961D01*
X88036200Y-96605077D01*
X88036200Y-96434923D01*
X88069395Y-96268039D01*
X88134510Y-96110837D01*
X88229042Y-95969359D01*
X88349359Y-95849042D01*
X88490837Y-95754510D01*
X88648039Y-95689395D01*
X88731481Y-95672797D01*
X88814922Y-95656200D01*
X88985078Y-95656200D01*
X89068519Y-95672797D01*
X89068519Y-95672797D01*
G37*
G36*
X96688519Y-95672797D02*
G01*
X96771961Y-95689395D01*
X96929163Y-95754510D01*
X97070641Y-95849042D01*
X97190958Y-95969359D01*
X97285490Y-96110837D01*
X97350605Y-96268039D01*
X97383800Y-96434923D01*
X97383800Y-96605077D01*
X97350605Y-96771961D01*
X97285490Y-96929163D01*
X97190958Y-97070641D01*
X97070641Y-97190958D01*
X96929163Y-97285490D01*
X96771961Y-97350605D01*
X96688519Y-97367203D01*
X96605078Y-97383800D01*
X96434922Y-97383800D01*
X96351481Y-97367202D01*
X96268039Y-97350605D01*
X96110837Y-97285490D01*
X95969359Y-97190958D01*
X95849042Y-97070641D01*
X95754510Y-96929163D01*
X95689395Y-96771961D01*
X95656200Y-96605077D01*
X95656200Y-96434923D01*
X95689395Y-96268039D01*
X95754510Y-96110837D01*
X95849042Y-95969359D01*
X95969359Y-95849042D01*
X96110837Y-95754510D01*
X96268039Y-95689395D01*
X96351481Y-95672797D01*
X96434922Y-95656200D01*
X96605078Y-95656200D01*
X96688519Y-95672797D01*
X96688519Y-95672797D01*
G37*
G36*
X124947395Y-95135546D02*
G01*
X125120466Y-95207234D01*
X125120467Y-95207235D01*
X125276227Y-95311310D01*
X125408690Y-95443773D01*
X125408691Y-95443775D01*
X125512766Y-95599534D01*
X125584454Y-95772605D01*
X125621000Y-95956333D01*
X125621000Y-96143667D01*
X125584454Y-96327395D01*
X125512766Y-96500466D01*
X125512765Y-96500467D01*
X125408690Y-96656227D01*
X125276227Y-96788690D01*
X125197818Y-96841081D01*
X125120466Y-96892766D01*
X124947395Y-96964454D01*
X124763667Y-97001000D01*
X124576333Y-97001000D01*
X124392605Y-96964454D01*
X124219534Y-96892766D01*
X124142182Y-96841081D01*
X124063773Y-96788690D01*
X123931310Y-96656227D01*
X123827235Y-96500467D01*
X123827234Y-96500466D01*
X123755546Y-96327395D01*
X123719000Y-96143667D01*
X123719000Y-95956333D01*
X123755546Y-95772605D01*
X123827234Y-95599534D01*
X123931309Y-95443775D01*
X123931310Y-95443773D01*
X124063773Y-95311310D01*
X124219533Y-95207235D01*
X124219534Y-95207234D01*
X124392605Y-95135546D01*
X124576333Y-95099000D01*
X124763667Y-95099000D01*
X124947395Y-95135546D01*
X124947395Y-95135546D01*
G37*
G36*
X115736823Y-94411313D02*
G01*
X115897242Y-94459976D01*
X116029906Y-94530886D01*
X116045078Y-94538996D01*
X116174659Y-94645341D01*
X116281004Y-94774922D01*
X116281005Y-94774924D01*
X116360024Y-94922758D01*
X116408687Y-95083177D01*
X116425117Y-95250000D01*
X116408687Y-95416823D01*
X116360024Y-95577242D01*
X116317820Y-95656200D01*
X116281004Y-95725078D01*
X116174659Y-95854659D01*
X116045078Y-95961004D01*
X116045076Y-95961005D01*
X115897242Y-96040024D01*
X115736823Y-96088687D01*
X115611804Y-96101000D01*
X115528196Y-96101000D01*
X115403177Y-96088687D01*
X115242758Y-96040024D01*
X115094924Y-95961005D01*
X115094922Y-95961004D01*
X114965341Y-95854659D01*
X114858996Y-95725078D01*
X114822180Y-95656200D01*
X114779976Y-95577242D01*
X114731313Y-95416823D01*
X114714883Y-95250000D01*
X114731313Y-95083177D01*
X114779976Y-94922758D01*
X114858995Y-94774924D01*
X114858996Y-94774922D01*
X114965341Y-94645341D01*
X115094922Y-94538996D01*
X115110094Y-94530886D01*
X115242758Y-94459976D01*
X115403177Y-94411313D01*
X115528196Y-94399000D01*
X115611804Y-94399000D01*
X115736823Y-94411313D01*
X115736823Y-94411313D01*
G37*
G36*
X100496823Y-94411313D02*
G01*
X100657242Y-94459976D01*
X100789906Y-94530886D01*
X100805078Y-94538996D01*
X100934659Y-94645341D01*
X101041004Y-94774922D01*
X101041005Y-94774924D01*
X101120024Y-94922758D01*
X101168687Y-95083177D01*
X101185117Y-95250000D01*
X101168687Y-95416823D01*
X101120024Y-95577242D01*
X101077820Y-95656200D01*
X101041004Y-95725078D01*
X100934659Y-95854659D01*
X100805078Y-95961004D01*
X100805076Y-95961005D01*
X100657242Y-96040024D01*
X100496823Y-96088687D01*
X100371804Y-96101000D01*
X100288196Y-96101000D01*
X100163177Y-96088687D01*
X100002758Y-96040024D01*
X99854924Y-95961005D01*
X99854922Y-95961004D01*
X99725341Y-95854659D01*
X99618996Y-95725078D01*
X99582180Y-95656200D01*
X99539976Y-95577242D01*
X99491313Y-95416823D01*
X99474883Y-95250000D01*
X99491313Y-95083177D01*
X99539976Y-94922758D01*
X99618995Y-94774924D01*
X99618996Y-94774922D01*
X99725341Y-94645341D01*
X99854922Y-94538996D01*
X99870094Y-94530886D01*
X100002758Y-94459976D01*
X100163177Y-94411313D01*
X100288196Y-94399000D01*
X100371804Y-94399000D01*
X100496823Y-94411313D01*
X100496823Y-94411313D01*
G37*
G36*
X124947395Y-92595546D02*
G01*
X125120466Y-92667234D01*
X125120467Y-92667235D01*
X125276227Y-92771310D01*
X125408690Y-92903773D01*
X125408691Y-92903775D01*
X125512766Y-93059534D01*
X125584454Y-93232605D01*
X125621000Y-93416333D01*
X125621000Y-93603667D01*
X125584454Y-93787395D01*
X125512766Y-93960466D01*
X125512765Y-93960467D01*
X125408690Y-94116227D01*
X125276227Y-94248690D01*
X125197818Y-94301081D01*
X125120466Y-94352766D01*
X124947395Y-94424454D01*
X124763667Y-94461000D01*
X124576333Y-94461000D01*
X124392605Y-94424454D01*
X124219534Y-94352766D01*
X124142182Y-94301081D01*
X124063773Y-94248690D01*
X123931310Y-94116227D01*
X123827235Y-93960467D01*
X123827234Y-93960466D01*
X123755546Y-93787395D01*
X123719000Y-93603667D01*
X123719000Y-93416333D01*
X123755546Y-93232605D01*
X123827234Y-93059534D01*
X123931309Y-92903775D01*
X123931310Y-92903773D01*
X124063773Y-92771310D01*
X124219533Y-92667235D01*
X124219534Y-92667234D01*
X124392605Y-92595546D01*
X124576333Y-92559000D01*
X124763667Y-92559000D01*
X124947395Y-92595546D01*
X124947395Y-92595546D01*
G37*
G36*
X115736823Y-91871313D02*
G01*
X115897242Y-91919976D01*
X116029906Y-91990886D01*
X116045078Y-91998996D01*
X116174659Y-92105341D01*
X116281004Y-92234922D01*
X116281005Y-92234924D01*
X116360024Y-92382758D01*
X116408687Y-92543177D01*
X116425117Y-92710000D01*
X116408687Y-92876823D01*
X116360024Y-93037242D01*
X116289114Y-93169906D01*
X116281004Y-93185078D01*
X116174659Y-93314659D01*
X116045078Y-93421004D01*
X116045076Y-93421005D01*
X115897242Y-93500024D01*
X115736823Y-93548687D01*
X115611804Y-93561000D01*
X115528196Y-93561000D01*
X115403177Y-93548687D01*
X115242758Y-93500024D01*
X115094924Y-93421005D01*
X115094922Y-93421004D01*
X114965341Y-93314659D01*
X114858996Y-93185078D01*
X114850886Y-93169906D01*
X114779976Y-93037242D01*
X114731313Y-92876823D01*
X114714883Y-92710000D01*
X114731313Y-92543177D01*
X114779976Y-92382758D01*
X114858995Y-92234924D01*
X114858996Y-92234922D01*
X114965341Y-92105341D01*
X115094922Y-91998996D01*
X115110094Y-91990886D01*
X115242758Y-91919976D01*
X115403177Y-91871313D01*
X115528196Y-91859000D01*
X115611804Y-91859000D01*
X115736823Y-91871313D01*
X115736823Y-91871313D01*
G37*
G36*
X100496823Y-91871313D02*
G01*
X100657242Y-91919976D01*
X100789906Y-91990886D01*
X100805078Y-91998996D01*
X100934659Y-92105341D01*
X101041004Y-92234922D01*
X101041005Y-92234924D01*
X101120024Y-92382758D01*
X101168687Y-92543177D01*
X101185117Y-92710000D01*
X101168687Y-92876823D01*
X101120024Y-93037242D01*
X101049114Y-93169906D01*
X101041004Y-93185078D01*
X100934659Y-93314659D01*
X100805078Y-93421004D01*
X100805076Y-93421005D01*
X100657242Y-93500024D01*
X100496823Y-93548687D01*
X100371804Y-93561000D01*
X100288196Y-93561000D01*
X100163177Y-93548687D01*
X100002758Y-93500024D01*
X99854924Y-93421005D01*
X99854922Y-93421004D01*
X99725341Y-93314659D01*
X99618996Y-93185078D01*
X99610886Y-93169906D01*
X99539976Y-93037242D01*
X99491313Y-92876823D01*
X99474883Y-92710000D01*
X99491313Y-92543177D01*
X99539976Y-92382758D01*
X99618995Y-92234924D01*
X99618996Y-92234922D01*
X99725341Y-92105341D01*
X99854922Y-91998996D01*
X99870094Y-91990886D01*
X100002758Y-91919976D01*
X100163177Y-91871313D01*
X100288196Y-91859000D01*
X100371804Y-91859000D01*
X100496823Y-91871313D01*
X100496823Y-91871313D01*
G37*
G36*
X68882585Y-89918802D02*
G01*
X69032410Y-89948604D01*
X69314674Y-90065521D01*
X69568705Y-90235259D01*
X69784741Y-90451295D01*
X69954479Y-90705326D01*
X70071396Y-90987590D01*
X70131000Y-91287240D01*
X70131000Y-91592760D01*
X70071396Y-91892410D01*
X69954479Y-92174674D01*
X69784741Y-92428705D01*
X69568705Y-92644741D01*
X69314674Y-92814479D01*
X69032410Y-92931396D01*
X68882585Y-92961198D01*
X68732761Y-92991000D01*
X68427239Y-92991000D01*
X68277415Y-92961198D01*
X68127590Y-92931396D01*
X67845326Y-92814479D01*
X67591295Y-92644741D01*
X67375259Y-92428705D01*
X67205521Y-92174674D01*
X67088604Y-91892410D01*
X67029000Y-91592760D01*
X67029000Y-91287240D01*
X67088604Y-90987590D01*
X67205521Y-90705326D01*
X67375259Y-90451295D01*
X67591295Y-90235259D01*
X67845326Y-90065521D01*
X68127590Y-89948604D01*
X68277415Y-89918802D01*
X68427239Y-89889000D01*
X68732761Y-89889000D01*
X68882585Y-89918802D01*
X68882585Y-89918802D01*
G37*
G36*
X92291000Y-92291000D02*
G01*
X90589000Y-92291000D01*
X90589000Y-90589000D01*
X92291000Y-90589000D01*
X92291000Y-92291000D01*
X92291000Y-92291000D01*
G37*
G36*
X85941000Y-92291000D02*
G01*
X84239000Y-92291000D01*
X84239000Y-90589000D01*
X85941000Y-90589000D01*
X85941000Y-92291000D01*
X85941000Y-92291000D01*
G37*
G36*
X79591000Y-92291000D02*
G01*
X77889000Y-92291000D01*
X77889000Y-90589000D01*
X79591000Y-90589000D01*
X79591000Y-92291000D01*
X79591000Y-92291000D01*
G37*
G36*
X124947395Y-90055546D02*
G01*
X125120466Y-90127234D01*
X125120467Y-90127235D01*
X125276227Y-90231310D01*
X125408690Y-90363773D01*
X125408691Y-90363775D01*
X125512766Y-90519534D01*
X125584454Y-90692605D01*
X125621000Y-90876333D01*
X125621000Y-91063667D01*
X125584454Y-91247395D01*
X125512766Y-91420466D01*
X125512765Y-91420467D01*
X125408690Y-91576227D01*
X125276227Y-91708690D01*
X125197818Y-91761081D01*
X125120466Y-91812766D01*
X124947395Y-91884454D01*
X124763667Y-91921000D01*
X124576333Y-91921000D01*
X124392605Y-91884454D01*
X124219534Y-91812766D01*
X124142182Y-91761081D01*
X124063773Y-91708690D01*
X123931310Y-91576227D01*
X123827235Y-91420467D01*
X123827234Y-91420466D01*
X123755546Y-91247395D01*
X123719000Y-91063667D01*
X123719000Y-90876333D01*
X123755546Y-90692605D01*
X123827234Y-90519534D01*
X123931309Y-90363775D01*
X123931310Y-90363773D01*
X124063773Y-90231310D01*
X124219533Y-90127235D01*
X124219534Y-90127234D01*
X124392605Y-90055546D01*
X124576333Y-90019000D01*
X124763667Y-90019000D01*
X124947395Y-90055546D01*
X124947395Y-90055546D01*
G37*
G36*
X100496823Y-89331313D02*
G01*
X100657242Y-89379976D01*
X100789906Y-89450886D01*
X100805078Y-89458996D01*
X100934659Y-89565341D01*
X101041004Y-89694922D01*
X101041005Y-89694924D01*
X101120024Y-89842758D01*
X101168687Y-90003177D01*
X101185117Y-90170000D01*
X101168687Y-90336823D01*
X101120024Y-90497242D01*
X101070978Y-90589000D01*
X101041004Y-90645078D01*
X100934659Y-90774659D01*
X100805078Y-90881004D01*
X100805076Y-90881005D01*
X100657242Y-90960024D01*
X100496823Y-91008687D01*
X100371804Y-91021000D01*
X100288196Y-91021000D01*
X100163177Y-91008687D01*
X100002758Y-90960024D01*
X99854924Y-90881005D01*
X99854922Y-90881004D01*
X99725341Y-90774659D01*
X99618996Y-90645078D01*
X99589022Y-90589000D01*
X99539976Y-90497242D01*
X99491313Y-90336823D01*
X99474883Y-90170000D01*
X99491313Y-90003177D01*
X99539976Y-89842758D01*
X99618995Y-89694924D01*
X99618996Y-89694922D01*
X99725341Y-89565341D01*
X99854922Y-89458996D01*
X99870094Y-89450886D01*
X100002758Y-89379976D01*
X100163177Y-89331313D01*
X100288196Y-89319000D01*
X100371804Y-89319000D01*
X100496823Y-89331313D01*
X100496823Y-89331313D01*
G37*
G36*
X115736823Y-89331313D02*
G01*
X115897242Y-89379976D01*
X116029906Y-89450886D01*
X116045078Y-89458996D01*
X116174659Y-89565341D01*
X116281004Y-89694922D01*
X116281005Y-89694924D01*
X116360024Y-89842758D01*
X116408687Y-90003177D01*
X116425117Y-90170000D01*
X116408687Y-90336823D01*
X116360024Y-90497242D01*
X116310978Y-90589000D01*
X116281004Y-90645078D01*
X116174659Y-90774659D01*
X116045078Y-90881004D01*
X116045076Y-90881005D01*
X115897242Y-90960024D01*
X115736823Y-91008687D01*
X115611804Y-91021000D01*
X115528196Y-91021000D01*
X115403177Y-91008687D01*
X115242758Y-90960024D01*
X115094924Y-90881005D01*
X115094922Y-90881004D01*
X114965341Y-90774659D01*
X114858996Y-90645078D01*
X114829022Y-90589000D01*
X114779976Y-90497242D01*
X114731313Y-90336823D01*
X114714883Y-90170000D01*
X114731313Y-90003177D01*
X114779976Y-89842758D01*
X114858995Y-89694924D01*
X114858996Y-89694922D01*
X114965341Y-89565341D01*
X115094922Y-89458996D01*
X115110094Y-89450886D01*
X115242758Y-89379976D01*
X115403177Y-89331313D01*
X115528196Y-89319000D01*
X115611804Y-89319000D01*
X115736823Y-89331313D01*
X115736823Y-89331313D01*
G37*
G36*
X85338228Y-88121703D02*
G01*
X85493100Y-88185853D01*
X85632481Y-88278985D01*
X85751015Y-88397519D01*
X85844147Y-88536900D01*
X85908297Y-88691772D01*
X85941000Y-88856184D01*
X85941000Y-89023816D01*
X85908297Y-89188228D01*
X85844147Y-89343100D01*
X85751015Y-89482481D01*
X85632481Y-89601015D01*
X85493100Y-89694147D01*
X85338228Y-89758297D01*
X85173816Y-89791000D01*
X85006184Y-89791000D01*
X84841772Y-89758297D01*
X84686900Y-89694147D01*
X84547519Y-89601015D01*
X84428985Y-89482481D01*
X84335853Y-89343100D01*
X84271703Y-89188228D01*
X84239000Y-89023816D01*
X84239000Y-88856184D01*
X84271703Y-88691772D01*
X84335853Y-88536900D01*
X84428985Y-88397519D01*
X84547519Y-88278985D01*
X84686900Y-88185853D01*
X84841772Y-88121703D01*
X85006184Y-88089000D01*
X85173816Y-88089000D01*
X85338228Y-88121703D01*
X85338228Y-88121703D01*
G37*
G36*
X91688228Y-88121703D02*
G01*
X91843100Y-88185853D01*
X91982481Y-88278985D01*
X92101015Y-88397519D01*
X92194147Y-88536900D01*
X92258297Y-88691772D01*
X92291000Y-88856184D01*
X92291000Y-89023816D01*
X92258297Y-89188228D01*
X92194147Y-89343100D01*
X92101015Y-89482481D01*
X91982481Y-89601015D01*
X91843100Y-89694147D01*
X91688228Y-89758297D01*
X91523816Y-89791000D01*
X91356184Y-89791000D01*
X91191772Y-89758297D01*
X91036900Y-89694147D01*
X90897519Y-89601015D01*
X90778985Y-89482481D01*
X90685853Y-89343100D01*
X90621703Y-89188228D01*
X90589000Y-89023816D01*
X90589000Y-88856184D01*
X90621703Y-88691772D01*
X90685853Y-88536900D01*
X90778985Y-88397519D01*
X90897519Y-88278985D01*
X91036900Y-88185853D01*
X91191772Y-88121703D01*
X91356184Y-88089000D01*
X91523816Y-88089000D01*
X91688228Y-88121703D01*
X91688228Y-88121703D01*
G37*
G36*
X78988228Y-88121703D02*
G01*
X79143100Y-88185853D01*
X79282481Y-88278985D01*
X79401015Y-88397519D01*
X79494147Y-88536900D01*
X79558297Y-88691772D01*
X79591000Y-88856184D01*
X79591000Y-89023816D01*
X79558297Y-89188228D01*
X79494147Y-89343100D01*
X79401015Y-89482481D01*
X79282481Y-89601015D01*
X79143100Y-89694147D01*
X78988228Y-89758297D01*
X78823816Y-89791000D01*
X78656184Y-89791000D01*
X78491772Y-89758297D01*
X78336900Y-89694147D01*
X78197519Y-89601015D01*
X78078985Y-89482481D01*
X77985853Y-89343100D01*
X77921703Y-89188228D01*
X77889000Y-89023816D01*
X77889000Y-88856184D01*
X77921703Y-88691772D01*
X77985853Y-88536900D01*
X78078985Y-88397519D01*
X78197519Y-88278985D01*
X78336900Y-88185853D01*
X78491772Y-88121703D01*
X78656184Y-88089000D01*
X78823816Y-88089000D01*
X78988228Y-88121703D01*
X78988228Y-88121703D01*
G37*
G36*
X124947395Y-87515546D02*
G01*
X125120466Y-87587234D01*
X125120467Y-87587235D01*
X125276227Y-87691310D01*
X125408690Y-87823773D01*
X125408691Y-87823775D01*
X125512766Y-87979534D01*
X125584454Y-88152605D01*
X125621000Y-88336333D01*
X125621000Y-88523667D01*
X125584454Y-88707395D01*
X125512766Y-88880466D01*
X125512765Y-88880467D01*
X125408690Y-89036227D01*
X125276227Y-89168690D01*
X125197818Y-89221081D01*
X125120466Y-89272766D01*
X124947395Y-89344454D01*
X124763667Y-89381000D01*
X124576333Y-89381000D01*
X124392605Y-89344454D01*
X124219534Y-89272766D01*
X124142182Y-89221081D01*
X124063773Y-89168690D01*
X123931310Y-89036227D01*
X123827235Y-88880467D01*
X123827234Y-88880466D01*
X123755546Y-88707395D01*
X123719000Y-88523667D01*
X123719000Y-88336333D01*
X123755546Y-88152605D01*
X123827234Y-87979534D01*
X123931309Y-87823775D01*
X123931310Y-87823773D01*
X124063773Y-87691310D01*
X124219533Y-87587235D01*
X124219534Y-87587234D01*
X124392605Y-87515546D01*
X124576333Y-87479000D01*
X124763667Y-87479000D01*
X124947395Y-87515546D01*
X124947395Y-87515546D01*
G37*
G36*
X115736823Y-86791313D02*
G01*
X115897242Y-86839976D01*
X116029906Y-86910886D01*
X116045078Y-86918996D01*
X116174659Y-87025341D01*
X116281004Y-87154922D01*
X116281005Y-87154924D01*
X116360024Y-87302758D01*
X116408687Y-87463177D01*
X116425117Y-87630000D01*
X116408687Y-87796823D01*
X116360024Y-87957242D01*
X116289598Y-88089000D01*
X116281004Y-88105078D01*
X116174659Y-88234659D01*
X116045078Y-88341004D01*
X116045076Y-88341005D01*
X115897242Y-88420024D01*
X115736823Y-88468687D01*
X115611804Y-88481000D01*
X115528196Y-88481000D01*
X115403177Y-88468687D01*
X115242758Y-88420024D01*
X115094924Y-88341005D01*
X115094922Y-88341004D01*
X114965341Y-88234659D01*
X114858996Y-88105078D01*
X114850402Y-88089000D01*
X114779976Y-87957242D01*
X114731313Y-87796823D01*
X114714883Y-87630000D01*
X114731313Y-87463177D01*
X114779976Y-87302758D01*
X114858995Y-87154924D01*
X114858996Y-87154922D01*
X114965341Y-87025341D01*
X115094922Y-86918996D01*
X115110094Y-86910886D01*
X115242758Y-86839976D01*
X115403177Y-86791313D01*
X115528196Y-86779000D01*
X115611804Y-86779000D01*
X115736823Y-86791313D01*
X115736823Y-86791313D01*
G37*
G36*
X100496823Y-86791313D02*
G01*
X100657242Y-86839976D01*
X100789906Y-86910886D01*
X100805078Y-86918996D01*
X100934659Y-87025341D01*
X101041004Y-87154922D01*
X101041005Y-87154924D01*
X101120024Y-87302758D01*
X101168687Y-87463177D01*
X101185117Y-87630000D01*
X101168687Y-87796823D01*
X101120024Y-87957242D01*
X101049598Y-88089000D01*
X101041004Y-88105078D01*
X100934659Y-88234659D01*
X100805078Y-88341004D01*
X100805076Y-88341005D01*
X100657242Y-88420024D01*
X100496823Y-88468687D01*
X100371804Y-88481000D01*
X100288196Y-88481000D01*
X100163177Y-88468687D01*
X100002758Y-88420024D01*
X99854924Y-88341005D01*
X99854922Y-88341004D01*
X99725341Y-88234659D01*
X99618996Y-88105078D01*
X99610402Y-88089000D01*
X99539976Y-87957242D01*
X99491313Y-87796823D01*
X99474883Y-87630000D01*
X99491313Y-87463177D01*
X99539976Y-87302758D01*
X99618995Y-87154924D01*
X99618996Y-87154922D01*
X99725341Y-87025341D01*
X99854922Y-86918996D01*
X99870094Y-86910886D01*
X100002758Y-86839976D01*
X100163177Y-86791313D01*
X100288196Y-86779000D01*
X100371804Y-86779000D01*
X100496823Y-86791313D01*
X100496823Y-86791313D01*
G37*
G36*
X124947395Y-84975546D02*
G01*
X125120466Y-85047234D01*
X125120467Y-85047235D01*
X125276227Y-85151310D01*
X125408690Y-85283773D01*
X125408691Y-85283775D01*
X125512766Y-85439534D01*
X125584454Y-85612605D01*
X125621000Y-85796333D01*
X125621000Y-85983667D01*
X125584454Y-86167395D01*
X125512766Y-86340466D01*
X125512765Y-86340467D01*
X125408690Y-86496227D01*
X125276227Y-86628690D01*
X125197818Y-86681081D01*
X125120466Y-86732766D01*
X124947395Y-86804454D01*
X124763667Y-86841000D01*
X124576333Y-86841000D01*
X124392605Y-86804454D01*
X124219534Y-86732766D01*
X124142182Y-86681081D01*
X124063773Y-86628690D01*
X123931310Y-86496227D01*
X123827235Y-86340467D01*
X123827234Y-86340466D01*
X123755546Y-86167395D01*
X123719000Y-85983667D01*
X123719000Y-85796333D01*
X123755546Y-85612605D01*
X123827234Y-85439534D01*
X123931309Y-85283775D01*
X123931310Y-85283773D01*
X124063773Y-85151310D01*
X124219533Y-85047235D01*
X124219534Y-85047234D01*
X124392605Y-84975546D01*
X124576333Y-84939000D01*
X124763667Y-84939000D01*
X124947395Y-84975546D01*
X124947395Y-84975546D01*
G37*
G36*
X100496823Y-84251313D02*
G01*
X100657242Y-84299976D01*
X100750581Y-84349867D01*
X100805078Y-84378996D01*
X100934659Y-84485341D01*
X101041004Y-84614922D01*
X101041005Y-84614924D01*
X101120024Y-84762758D01*
X101168687Y-84923177D01*
X101185117Y-85090000D01*
X101168687Y-85256823D01*
X101120024Y-85417242D01*
X101049114Y-85549906D01*
X101041004Y-85565078D01*
X100934659Y-85694659D01*
X100805078Y-85801004D01*
X100805076Y-85801005D01*
X100657242Y-85880024D01*
X100496823Y-85928687D01*
X100371804Y-85941000D01*
X100288196Y-85941000D01*
X100163177Y-85928687D01*
X100002758Y-85880024D01*
X99854924Y-85801005D01*
X99854922Y-85801004D01*
X99725341Y-85694659D01*
X99618996Y-85565078D01*
X99610886Y-85549906D01*
X99539976Y-85417242D01*
X99491313Y-85256823D01*
X99474883Y-85090000D01*
X99491313Y-84923177D01*
X99539976Y-84762758D01*
X99618995Y-84614924D01*
X99618996Y-84614922D01*
X99725341Y-84485341D01*
X99854922Y-84378996D01*
X99909419Y-84349867D01*
X100002758Y-84299976D01*
X100163177Y-84251313D01*
X100288196Y-84239000D01*
X100371804Y-84239000D01*
X100496823Y-84251313D01*
X100496823Y-84251313D01*
G37*
G36*
X115736823Y-84251313D02*
G01*
X115897242Y-84299976D01*
X115990581Y-84349867D01*
X116045078Y-84378996D01*
X116174659Y-84485341D01*
X116281004Y-84614922D01*
X116281005Y-84614924D01*
X116360024Y-84762758D01*
X116408687Y-84923177D01*
X116425117Y-85090000D01*
X116408687Y-85256823D01*
X116360024Y-85417242D01*
X116289114Y-85549906D01*
X116281004Y-85565078D01*
X116174659Y-85694659D01*
X116045078Y-85801004D01*
X116045076Y-85801005D01*
X115897242Y-85880024D01*
X115736823Y-85928687D01*
X115611804Y-85941000D01*
X115528196Y-85941000D01*
X115403177Y-85928687D01*
X115242758Y-85880024D01*
X115094924Y-85801005D01*
X115094922Y-85801004D01*
X114965341Y-85694659D01*
X114858996Y-85565078D01*
X114850886Y-85549906D01*
X114779976Y-85417242D01*
X114731313Y-85256823D01*
X114714883Y-85090000D01*
X114731313Y-84923177D01*
X114779976Y-84762758D01*
X114858995Y-84614924D01*
X114858996Y-84614922D01*
X114965341Y-84485341D01*
X115094922Y-84378996D01*
X115149419Y-84349867D01*
X115242758Y-84299976D01*
X115403177Y-84251313D01*
X115528196Y-84239000D01*
X115611804Y-84239000D01*
X115736823Y-84251313D01*
X115736823Y-84251313D01*
G37*
G36*
X85309059Y-84367860D02*
G01*
X85369294Y-84392810D01*
X85445732Y-84424472D01*
X85568735Y-84506660D01*
X85673340Y-84611265D01*
X85755528Y-84734268D01*
X85755529Y-84734270D01*
X85812140Y-84870941D01*
X85825678Y-84939000D01*
X85841000Y-85016033D01*
X85841000Y-85163967D01*
X85812140Y-85309059D01*
X85755528Y-85445732D01*
X85673340Y-85568735D01*
X85568735Y-85673340D01*
X85445732Y-85755528D01*
X85445731Y-85755529D01*
X85445730Y-85755529D01*
X85309059Y-85812140D01*
X85163968Y-85841000D01*
X85016032Y-85841000D01*
X84870941Y-85812140D01*
X84734270Y-85755529D01*
X84734269Y-85755529D01*
X84734268Y-85755528D01*
X84611265Y-85673340D01*
X84506660Y-85568735D01*
X84424472Y-85445732D01*
X84367860Y-85309059D01*
X84339000Y-85163967D01*
X84339000Y-85016033D01*
X84354323Y-84939000D01*
X84367860Y-84870941D01*
X84424471Y-84734270D01*
X84424472Y-84734268D01*
X84506660Y-84611265D01*
X84611265Y-84506660D01*
X84734268Y-84424472D01*
X84810707Y-84392810D01*
X84870941Y-84367860D01*
X85016032Y-84339000D01*
X85163968Y-84339000D01*
X85309059Y-84367860D01*
X85309059Y-84367860D01*
G37*
G36*
X96593665Y-84342622D02*
G01*
X96667222Y-84349867D01*
X96808786Y-84392810D01*
X96939252Y-84462546D01*
X96967028Y-84485341D01*
X97053607Y-84556393D01*
X97123008Y-84640960D01*
X97147454Y-84670748D01*
X97217190Y-84801214D01*
X97260133Y-84942778D01*
X97274633Y-85090000D01*
X97260133Y-85237222D01*
X97217190Y-85378786D01*
X97147454Y-85509252D01*
X97123008Y-85539040D01*
X97053607Y-85623607D01*
X96993004Y-85673341D01*
X96939252Y-85717454D01*
X96808786Y-85787190D01*
X96667222Y-85830133D01*
X96593665Y-85837378D01*
X96556888Y-85841000D01*
X96483112Y-85841000D01*
X96446335Y-85837378D01*
X96372778Y-85830133D01*
X96231214Y-85787190D01*
X96100748Y-85717454D01*
X96046996Y-85673341D01*
X95986393Y-85623607D01*
X95916992Y-85539040D01*
X95892546Y-85509252D01*
X95822810Y-85378786D01*
X95779867Y-85237222D01*
X95765367Y-85090000D01*
X95779867Y-84942778D01*
X95822810Y-84801214D01*
X95892546Y-84670748D01*
X95916992Y-84640960D01*
X95986393Y-84556393D01*
X96072972Y-84485341D01*
X96100748Y-84462546D01*
X96231214Y-84392810D01*
X96372778Y-84349867D01*
X96446335Y-84342622D01*
X96483112Y-84339000D01*
X96556888Y-84339000D01*
X96593665Y-84342622D01*
X96593665Y-84342622D01*
G37*
G36*
X92929059Y-84367860D02*
G01*
X92989294Y-84392810D01*
X93065732Y-84424472D01*
X93188735Y-84506660D01*
X93293340Y-84611265D01*
X93375528Y-84734268D01*
X93375529Y-84734270D01*
X93432140Y-84870941D01*
X93445678Y-84939000D01*
X93461000Y-85016033D01*
X93461000Y-85163967D01*
X93432140Y-85309059D01*
X93375528Y-85445732D01*
X93293340Y-85568735D01*
X93188735Y-85673340D01*
X93065732Y-85755528D01*
X93065731Y-85755529D01*
X93065730Y-85755529D01*
X92929059Y-85812140D01*
X92783968Y-85841000D01*
X92636032Y-85841000D01*
X92490941Y-85812140D01*
X92354270Y-85755529D01*
X92354269Y-85755529D01*
X92354268Y-85755528D01*
X92231265Y-85673340D01*
X92126660Y-85568735D01*
X92044472Y-85445732D01*
X91987860Y-85309059D01*
X91959000Y-85163967D01*
X91959000Y-85016033D01*
X91974323Y-84939000D01*
X91987860Y-84870941D01*
X92044471Y-84734270D01*
X92044472Y-84734268D01*
X92126660Y-84611265D01*
X92231265Y-84506660D01*
X92354268Y-84424472D01*
X92430707Y-84392810D01*
X92490941Y-84367860D01*
X92636032Y-84339000D01*
X92783968Y-84339000D01*
X92929059Y-84367860D01*
X92929059Y-84367860D01*
G37*
G36*
X77689059Y-84367860D02*
G01*
X77749294Y-84392810D01*
X77825732Y-84424472D01*
X77948735Y-84506660D01*
X78053340Y-84611265D01*
X78135528Y-84734268D01*
X78135529Y-84734270D01*
X78192140Y-84870941D01*
X78205678Y-84939000D01*
X78221000Y-85016033D01*
X78221000Y-85163967D01*
X78192140Y-85309059D01*
X78135528Y-85445732D01*
X78053340Y-85568735D01*
X77948735Y-85673340D01*
X77825732Y-85755528D01*
X77825731Y-85755529D01*
X77825730Y-85755529D01*
X77689059Y-85812140D01*
X77543968Y-85841000D01*
X77396032Y-85841000D01*
X77250941Y-85812140D01*
X77114270Y-85755529D01*
X77114269Y-85755529D01*
X77114268Y-85755528D01*
X76991265Y-85673340D01*
X76886660Y-85568735D01*
X76804472Y-85445732D01*
X76747860Y-85309059D01*
X76719000Y-85163967D01*
X76719000Y-85016033D01*
X76734323Y-84939000D01*
X76747860Y-84870941D01*
X76804471Y-84734270D01*
X76804472Y-84734268D01*
X76886660Y-84611265D01*
X76991265Y-84506660D01*
X77114268Y-84424472D01*
X77190707Y-84392810D01*
X77250941Y-84367860D01*
X77396032Y-84339000D01*
X77543968Y-84339000D01*
X77689059Y-84367860D01*
X77689059Y-84367860D01*
G37*
G36*
X81353665Y-84342622D02*
G01*
X81427222Y-84349867D01*
X81568786Y-84392810D01*
X81699252Y-84462546D01*
X81727028Y-84485341D01*
X81813607Y-84556393D01*
X81883008Y-84640960D01*
X81907454Y-84670748D01*
X81977190Y-84801214D01*
X82020133Y-84942778D01*
X82034633Y-85090000D01*
X82020133Y-85237222D01*
X81977190Y-85378786D01*
X81907454Y-85509252D01*
X81883008Y-85539040D01*
X81813607Y-85623607D01*
X81753004Y-85673341D01*
X81699252Y-85717454D01*
X81568786Y-85787190D01*
X81427222Y-85830133D01*
X81353665Y-85837378D01*
X81316888Y-85841000D01*
X81243112Y-85841000D01*
X81206335Y-85837378D01*
X81132778Y-85830133D01*
X80991214Y-85787190D01*
X80860748Y-85717454D01*
X80806996Y-85673341D01*
X80746393Y-85623607D01*
X80676992Y-85539040D01*
X80652546Y-85509252D01*
X80582810Y-85378786D01*
X80539867Y-85237222D01*
X80525367Y-85090000D01*
X80539867Y-84942778D01*
X80582810Y-84801214D01*
X80652546Y-84670748D01*
X80676992Y-84640960D01*
X80746393Y-84556393D01*
X80832972Y-84485341D01*
X80860748Y-84462546D01*
X80991214Y-84392810D01*
X81132778Y-84349867D01*
X81206335Y-84342622D01*
X81243112Y-84339000D01*
X81316888Y-84339000D01*
X81353665Y-84342622D01*
X81353665Y-84342622D01*
G37*
G36*
X89119059Y-84367860D02*
G01*
X89179294Y-84392810D01*
X89255732Y-84424472D01*
X89378735Y-84506660D01*
X89483340Y-84611265D01*
X89565528Y-84734268D01*
X89565529Y-84734270D01*
X89622140Y-84870941D01*
X89635678Y-84939000D01*
X89651000Y-85016033D01*
X89651000Y-85163967D01*
X89622140Y-85309059D01*
X89565528Y-85445732D01*
X89483340Y-85568735D01*
X89378735Y-85673340D01*
X89255732Y-85755528D01*
X89255731Y-85755529D01*
X89255730Y-85755529D01*
X89119059Y-85812140D01*
X88973968Y-85841000D01*
X88826032Y-85841000D01*
X88680941Y-85812140D01*
X88544270Y-85755529D01*
X88544269Y-85755529D01*
X88544268Y-85755528D01*
X88421265Y-85673340D01*
X88316660Y-85568735D01*
X88234472Y-85445732D01*
X88177860Y-85309059D01*
X88149000Y-85163967D01*
X88149000Y-85016033D01*
X88164323Y-84939000D01*
X88177860Y-84870941D01*
X88234471Y-84734270D01*
X88234472Y-84734268D01*
X88316660Y-84611265D01*
X88421265Y-84506660D01*
X88544268Y-84424472D01*
X88620707Y-84392810D01*
X88680941Y-84367860D01*
X88826032Y-84339000D01*
X88973968Y-84339000D01*
X89119059Y-84367860D01*
X89119059Y-84367860D01*
G37*
G36*
X70131000Y-85371000D02*
G01*
X67029000Y-85371000D01*
X67029000Y-82269000D01*
X70131000Y-82269000D01*
X70131000Y-85371000D01*
X70131000Y-85371000D01*
G37*
G36*
X124947395Y-82435546D02*
G01*
X125120466Y-82507234D01*
X125120467Y-82507235D01*
X125276227Y-82611310D01*
X125408690Y-82743773D01*
X125408691Y-82743775D01*
X125512766Y-82899534D01*
X125584454Y-83072605D01*
X125621000Y-83256333D01*
X125621000Y-83443667D01*
X125584454Y-83627395D01*
X125512766Y-83800466D01*
X125512765Y-83800467D01*
X125408690Y-83956227D01*
X125276227Y-84088690D01*
X125197818Y-84141081D01*
X125120466Y-84192766D01*
X124947395Y-84264454D01*
X124763667Y-84301000D01*
X124576333Y-84301000D01*
X124392605Y-84264454D01*
X124219534Y-84192766D01*
X124142182Y-84141081D01*
X124063773Y-84088690D01*
X123931310Y-83956227D01*
X123827235Y-83800467D01*
X123827234Y-83800466D01*
X123755546Y-83627395D01*
X123719000Y-83443667D01*
X123719000Y-83256333D01*
X123755546Y-83072605D01*
X123827234Y-82899534D01*
X123931309Y-82743775D01*
X123931310Y-82743773D01*
X124063773Y-82611310D01*
X124219533Y-82507235D01*
X124219534Y-82507234D01*
X124392605Y-82435546D01*
X124576333Y-82399000D01*
X124763667Y-82399000D01*
X124947395Y-82435546D01*
X124947395Y-82435546D01*
G37*
G36*
X100496823Y-81711313D02*
G01*
X100657242Y-81759976D01*
X100789906Y-81830886D01*
X100805078Y-81838996D01*
X100934659Y-81945341D01*
X101041004Y-82074922D01*
X101041005Y-82074924D01*
X101120024Y-82222758D01*
X101168687Y-82383177D01*
X101185117Y-82550000D01*
X101168687Y-82716823D01*
X101120024Y-82877242D01*
X101049114Y-83009906D01*
X101041004Y-83025078D01*
X100934659Y-83154659D01*
X100805078Y-83261004D01*
X100805076Y-83261005D01*
X100657242Y-83340024D01*
X100496823Y-83388687D01*
X100371804Y-83401000D01*
X100288196Y-83401000D01*
X100163177Y-83388687D01*
X100002758Y-83340024D01*
X99854924Y-83261005D01*
X99854922Y-83261004D01*
X99725341Y-83154659D01*
X99618996Y-83025078D01*
X99610886Y-83009906D01*
X99539976Y-82877242D01*
X99491313Y-82716823D01*
X99474883Y-82550000D01*
X99491313Y-82383177D01*
X99539976Y-82222758D01*
X99618995Y-82074924D01*
X99618996Y-82074922D01*
X99725341Y-81945341D01*
X99854922Y-81838996D01*
X99870094Y-81830886D01*
X100002758Y-81759976D01*
X100163177Y-81711313D01*
X100288196Y-81699000D01*
X100371804Y-81699000D01*
X100496823Y-81711313D01*
X100496823Y-81711313D01*
G37*
G36*
X115736823Y-81711313D02*
G01*
X115897242Y-81759976D01*
X116029906Y-81830886D01*
X116045078Y-81838996D01*
X116174659Y-81945341D01*
X116281004Y-82074922D01*
X116281005Y-82074924D01*
X116360024Y-82222758D01*
X116408687Y-82383177D01*
X116425117Y-82550000D01*
X116408687Y-82716823D01*
X116360024Y-82877242D01*
X116289114Y-83009906D01*
X116281004Y-83025078D01*
X116174659Y-83154659D01*
X116045078Y-83261004D01*
X116045076Y-83261005D01*
X115897242Y-83340024D01*
X115736823Y-83388687D01*
X115611804Y-83401000D01*
X115528196Y-83401000D01*
X115403177Y-83388687D01*
X115242758Y-83340024D01*
X115094924Y-83261005D01*
X115094922Y-83261004D01*
X114965341Y-83154659D01*
X114858996Y-83025078D01*
X114850886Y-83009906D01*
X114779976Y-82877242D01*
X114731313Y-82716823D01*
X114714883Y-82550000D01*
X114731313Y-82383177D01*
X114779976Y-82222758D01*
X114858995Y-82074924D01*
X114858996Y-82074922D01*
X114965341Y-81945341D01*
X115094922Y-81838996D01*
X115110094Y-81830886D01*
X115242758Y-81759976D01*
X115403177Y-81711313D01*
X115528196Y-81699000D01*
X115611804Y-81699000D01*
X115736823Y-81711313D01*
X115736823Y-81711313D01*
G37*
G36*
X124947395Y-79895546D02*
G01*
X125120466Y-79967234D01*
X125120467Y-79967235D01*
X125276227Y-80071310D01*
X125408690Y-80203773D01*
X125408691Y-80203775D01*
X125512766Y-80359534D01*
X125584454Y-80532605D01*
X125621000Y-80716333D01*
X125621000Y-80903667D01*
X125584454Y-81087395D01*
X125512766Y-81260466D01*
X125512765Y-81260467D01*
X125408690Y-81416227D01*
X125276227Y-81548690D01*
X125197818Y-81601081D01*
X125120466Y-81652766D01*
X124947395Y-81724454D01*
X124763667Y-81761000D01*
X124576333Y-81761000D01*
X124392605Y-81724454D01*
X124219534Y-81652766D01*
X124142182Y-81601081D01*
X124063773Y-81548690D01*
X123931310Y-81416227D01*
X123827235Y-81260467D01*
X123827234Y-81260466D01*
X123755546Y-81087395D01*
X123719000Y-80903667D01*
X123719000Y-80716333D01*
X123755546Y-80532605D01*
X123827234Y-80359534D01*
X123931309Y-80203775D01*
X123931310Y-80203773D01*
X124063773Y-80071310D01*
X124219533Y-79967235D01*
X124219534Y-79967234D01*
X124392605Y-79895546D01*
X124576333Y-79859000D01*
X124763667Y-79859000D01*
X124947395Y-79895546D01*
X124947395Y-79895546D01*
G37*
G36*
X115736823Y-79171313D02*
G01*
X115897242Y-79219976D01*
X115990581Y-79269867D01*
X116045078Y-79298996D01*
X116174659Y-79405341D01*
X116281004Y-79534922D01*
X116281005Y-79534924D01*
X116360024Y-79682758D01*
X116408687Y-79843177D01*
X116425117Y-80010000D01*
X116408687Y-80176823D01*
X116360024Y-80337242D01*
X116289114Y-80469906D01*
X116281004Y-80485078D01*
X116174659Y-80614659D01*
X116045078Y-80721004D01*
X116045076Y-80721005D01*
X115897242Y-80800024D01*
X115736823Y-80848687D01*
X115611804Y-80861000D01*
X115528196Y-80861000D01*
X115403177Y-80848687D01*
X115242758Y-80800024D01*
X115094924Y-80721005D01*
X115094922Y-80721004D01*
X114965341Y-80614659D01*
X114858996Y-80485078D01*
X114850886Y-80469906D01*
X114779976Y-80337242D01*
X114731313Y-80176823D01*
X114714883Y-80010000D01*
X114731313Y-79843177D01*
X114779976Y-79682758D01*
X114858995Y-79534924D01*
X114858996Y-79534922D01*
X114965341Y-79405341D01*
X115094922Y-79298996D01*
X115149419Y-79269867D01*
X115242758Y-79219976D01*
X115403177Y-79171313D01*
X115528196Y-79159000D01*
X115611804Y-79159000D01*
X115736823Y-79171313D01*
X115736823Y-79171313D01*
G37*
G36*
X100496823Y-79171313D02*
G01*
X100657242Y-79219976D01*
X100750581Y-79269867D01*
X100805078Y-79298996D01*
X100934659Y-79405341D01*
X101041004Y-79534922D01*
X101041005Y-79534924D01*
X101120024Y-79682758D01*
X101168687Y-79843177D01*
X101185117Y-80010000D01*
X101168687Y-80176823D01*
X101120024Y-80337242D01*
X101049114Y-80469906D01*
X101041004Y-80485078D01*
X100934659Y-80614659D01*
X100805078Y-80721004D01*
X100805076Y-80721005D01*
X100657242Y-80800024D01*
X100496823Y-80848687D01*
X100371804Y-80861000D01*
X100288196Y-80861000D01*
X100163177Y-80848687D01*
X100002758Y-80800024D01*
X99854924Y-80721005D01*
X99854922Y-80721004D01*
X99725341Y-80614659D01*
X99618996Y-80485078D01*
X99610886Y-80469906D01*
X99539976Y-80337242D01*
X99491313Y-80176823D01*
X99474883Y-80010000D01*
X99491313Y-79843177D01*
X99539976Y-79682758D01*
X99618995Y-79534924D01*
X99618996Y-79534922D01*
X99725341Y-79405341D01*
X99854922Y-79298996D01*
X99909419Y-79269867D01*
X100002758Y-79219976D01*
X100163177Y-79171313D01*
X100288196Y-79159000D01*
X100371804Y-79159000D01*
X100496823Y-79171313D01*
X100496823Y-79171313D01*
G37*
G36*
X81499059Y-79287860D02*
G01*
X81559294Y-79312810D01*
X81635732Y-79344472D01*
X81758735Y-79426660D01*
X81863340Y-79531265D01*
X81945528Y-79654268D01*
X81945529Y-79654270D01*
X82002140Y-79790941D01*
X82015678Y-79859000D01*
X82031000Y-79936033D01*
X82031000Y-80083967D01*
X82002140Y-80229059D01*
X81945528Y-80365732D01*
X81863340Y-80488735D01*
X81758735Y-80593340D01*
X81635732Y-80675528D01*
X81635731Y-80675529D01*
X81635730Y-80675529D01*
X81499059Y-80732140D01*
X81353968Y-80761000D01*
X81206032Y-80761000D01*
X81060941Y-80732140D01*
X80924270Y-80675529D01*
X80924269Y-80675529D01*
X80924268Y-80675528D01*
X80801265Y-80593340D01*
X80696660Y-80488735D01*
X80614472Y-80365732D01*
X80557860Y-80229059D01*
X80529000Y-80083967D01*
X80529000Y-79936033D01*
X80544323Y-79859000D01*
X80557860Y-79790941D01*
X80614471Y-79654270D01*
X80614472Y-79654268D01*
X80696660Y-79531265D01*
X80801265Y-79426660D01*
X80924268Y-79344472D01*
X81000707Y-79312810D01*
X81060941Y-79287860D01*
X81206032Y-79259000D01*
X81353968Y-79259000D01*
X81499059Y-79287860D01*
X81499059Y-79287860D01*
G37*
G36*
X77543665Y-79262622D02*
G01*
X77617222Y-79269867D01*
X77758786Y-79312810D01*
X77889252Y-79382546D01*
X77917028Y-79405341D01*
X78003607Y-79476393D01*
X78073008Y-79560960D01*
X78097454Y-79590748D01*
X78167190Y-79721214D01*
X78210133Y-79862778D01*
X78224633Y-80010000D01*
X78210133Y-80157222D01*
X78167190Y-80298786D01*
X78097454Y-80429252D01*
X78073008Y-80459040D01*
X78003607Y-80543607D01*
X77943004Y-80593341D01*
X77889252Y-80637454D01*
X77758786Y-80707190D01*
X77617222Y-80750133D01*
X77543665Y-80757378D01*
X77506888Y-80761000D01*
X77433112Y-80761000D01*
X77396335Y-80757378D01*
X77322778Y-80750133D01*
X77181214Y-80707190D01*
X77050748Y-80637454D01*
X76996996Y-80593341D01*
X76936393Y-80543607D01*
X76866992Y-80459040D01*
X76842546Y-80429252D01*
X76772810Y-80298786D01*
X76729867Y-80157222D01*
X76715367Y-80010000D01*
X76729867Y-79862778D01*
X76772810Y-79721214D01*
X76842546Y-79590748D01*
X76866992Y-79560960D01*
X76936393Y-79476393D01*
X77022972Y-79405341D01*
X77050748Y-79382546D01*
X77181214Y-79312810D01*
X77322778Y-79269867D01*
X77396335Y-79262622D01*
X77433112Y-79259000D01*
X77506888Y-79259000D01*
X77543665Y-79262622D01*
X77543665Y-79262622D01*
G37*
G36*
X92783665Y-79262622D02*
G01*
X92857222Y-79269867D01*
X92998786Y-79312810D01*
X93129252Y-79382546D01*
X93157028Y-79405341D01*
X93243607Y-79476393D01*
X93313008Y-79560960D01*
X93337454Y-79590748D01*
X93407190Y-79721214D01*
X93450133Y-79862778D01*
X93464633Y-80010000D01*
X93450133Y-80157222D01*
X93407190Y-80298786D01*
X93337454Y-80429252D01*
X93313008Y-80459040D01*
X93243607Y-80543607D01*
X93183004Y-80593341D01*
X93129252Y-80637454D01*
X92998786Y-80707190D01*
X92857222Y-80750133D01*
X92783665Y-80757378D01*
X92746888Y-80761000D01*
X92673112Y-80761000D01*
X92636335Y-80757378D01*
X92562778Y-80750133D01*
X92421214Y-80707190D01*
X92290748Y-80637454D01*
X92236996Y-80593341D01*
X92176393Y-80543607D01*
X92106992Y-80459040D01*
X92082546Y-80429252D01*
X92012810Y-80298786D01*
X91969867Y-80157222D01*
X91955367Y-80010000D01*
X91969867Y-79862778D01*
X92012810Y-79721214D01*
X92082546Y-79590748D01*
X92106992Y-79560960D01*
X92176393Y-79476393D01*
X92262972Y-79405341D01*
X92290748Y-79382546D01*
X92421214Y-79312810D01*
X92562778Y-79269867D01*
X92636335Y-79262622D01*
X92673112Y-79259000D01*
X92746888Y-79259000D01*
X92783665Y-79262622D01*
X92783665Y-79262622D01*
G37*
G36*
X85163665Y-79262622D02*
G01*
X85237222Y-79269867D01*
X85378786Y-79312810D01*
X85509252Y-79382546D01*
X85537028Y-79405341D01*
X85623607Y-79476393D01*
X85693008Y-79560960D01*
X85717454Y-79590748D01*
X85787190Y-79721214D01*
X85830133Y-79862778D01*
X85844633Y-80010000D01*
X85830133Y-80157222D01*
X85787190Y-80298786D01*
X85717454Y-80429252D01*
X85693008Y-80459040D01*
X85623607Y-80543607D01*
X85563004Y-80593341D01*
X85509252Y-80637454D01*
X85378786Y-80707190D01*
X85237222Y-80750133D01*
X85163665Y-80757378D01*
X85126888Y-80761000D01*
X85053112Y-80761000D01*
X85016335Y-80757378D01*
X84942778Y-80750133D01*
X84801214Y-80707190D01*
X84670748Y-80637454D01*
X84616996Y-80593341D01*
X84556393Y-80543607D01*
X84486992Y-80459040D01*
X84462546Y-80429252D01*
X84392810Y-80298786D01*
X84349867Y-80157222D01*
X84335367Y-80010000D01*
X84349867Y-79862778D01*
X84392810Y-79721214D01*
X84462546Y-79590748D01*
X84486992Y-79560960D01*
X84556393Y-79476393D01*
X84642972Y-79405341D01*
X84670748Y-79382546D01*
X84801214Y-79312810D01*
X84942778Y-79269867D01*
X85016335Y-79262622D01*
X85053112Y-79259000D01*
X85126888Y-79259000D01*
X85163665Y-79262622D01*
X85163665Y-79262622D01*
G37*
G36*
X96739059Y-79287860D02*
G01*
X96799294Y-79312810D01*
X96875732Y-79344472D01*
X96998735Y-79426660D01*
X97103340Y-79531265D01*
X97185528Y-79654268D01*
X97185529Y-79654270D01*
X97242140Y-79790941D01*
X97255678Y-79859000D01*
X97271000Y-79936033D01*
X97271000Y-80083967D01*
X97242140Y-80229059D01*
X97185528Y-80365732D01*
X97103340Y-80488735D01*
X96998735Y-80593340D01*
X96875732Y-80675528D01*
X96875731Y-80675529D01*
X96875730Y-80675529D01*
X96739059Y-80732140D01*
X96593968Y-80761000D01*
X96446032Y-80761000D01*
X96300941Y-80732140D01*
X96164270Y-80675529D01*
X96164269Y-80675529D01*
X96164268Y-80675528D01*
X96041265Y-80593340D01*
X95936660Y-80488735D01*
X95854472Y-80365732D01*
X95797860Y-80229059D01*
X95769000Y-80083967D01*
X95769000Y-79936033D01*
X95784323Y-79859000D01*
X95797860Y-79790941D01*
X95854471Y-79654270D01*
X95854472Y-79654268D01*
X95936660Y-79531265D01*
X96041265Y-79426660D01*
X96164268Y-79344472D01*
X96240707Y-79312810D01*
X96300941Y-79287860D01*
X96446032Y-79259000D01*
X96593968Y-79259000D01*
X96739059Y-79287860D01*
X96739059Y-79287860D01*
G37*
G36*
X88973665Y-79262622D02*
G01*
X89047222Y-79269867D01*
X89188786Y-79312810D01*
X89319252Y-79382546D01*
X89347028Y-79405341D01*
X89433607Y-79476393D01*
X89503008Y-79560960D01*
X89527454Y-79590748D01*
X89597190Y-79721214D01*
X89640133Y-79862778D01*
X89654633Y-80010000D01*
X89640133Y-80157222D01*
X89597190Y-80298786D01*
X89527454Y-80429252D01*
X89503008Y-80459040D01*
X89433607Y-80543607D01*
X89373004Y-80593341D01*
X89319252Y-80637454D01*
X89188786Y-80707190D01*
X89047222Y-80750133D01*
X88973665Y-80757378D01*
X88936888Y-80761000D01*
X88863112Y-80761000D01*
X88826335Y-80757378D01*
X88752778Y-80750133D01*
X88611214Y-80707190D01*
X88480748Y-80637454D01*
X88426996Y-80593341D01*
X88366393Y-80543607D01*
X88296992Y-80459040D01*
X88272546Y-80429252D01*
X88202810Y-80298786D01*
X88159867Y-80157222D01*
X88145367Y-80010000D01*
X88159867Y-79862778D01*
X88202810Y-79721214D01*
X88272546Y-79590748D01*
X88296992Y-79560960D01*
X88366393Y-79476393D01*
X88452972Y-79405341D01*
X88480748Y-79382546D01*
X88611214Y-79312810D01*
X88752778Y-79269867D01*
X88826335Y-79262622D01*
X88863112Y-79259000D01*
X88936888Y-79259000D01*
X88973665Y-79262622D01*
X88973665Y-79262622D01*
G37*
G36*
X68882585Y-77218802D02*
G01*
X69032410Y-77248604D01*
X69314674Y-77365521D01*
X69568705Y-77535259D01*
X69784741Y-77751295D01*
X69954479Y-78005326D01*
X70071396Y-78287590D01*
X70131000Y-78587240D01*
X70131000Y-78892760D01*
X70071396Y-79192410D01*
X69954479Y-79474674D01*
X69784741Y-79728705D01*
X69568705Y-79944741D01*
X69314674Y-80114479D01*
X69032410Y-80231396D01*
X68882585Y-80261198D01*
X68732761Y-80291000D01*
X68427239Y-80291000D01*
X68277415Y-80261198D01*
X68127590Y-80231396D01*
X67845326Y-80114479D01*
X67591295Y-79944741D01*
X67375259Y-79728705D01*
X67205521Y-79474674D01*
X67088604Y-79192410D01*
X67029000Y-78892760D01*
X67029000Y-78587240D01*
X67088604Y-78287590D01*
X67205521Y-78005326D01*
X67375259Y-77751295D01*
X67591295Y-77535259D01*
X67845326Y-77365521D01*
X68127590Y-77248604D01*
X68277415Y-77218802D01*
X68427239Y-77189000D01*
X68732761Y-77189000D01*
X68882585Y-77218802D01*
X68882585Y-77218802D01*
G37*
G36*
X124947395Y-77355546D02*
G01*
X125120466Y-77427234D01*
X125120467Y-77427235D01*
X125276227Y-77531310D01*
X125408690Y-77663773D01*
X125408691Y-77663775D01*
X125512766Y-77819534D01*
X125584454Y-77992605D01*
X125621000Y-78176333D01*
X125621000Y-78363667D01*
X125584454Y-78547395D01*
X125512766Y-78720466D01*
X125512765Y-78720467D01*
X125408690Y-78876227D01*
X125276227Y-79008690D01*
X125197818Y-79061081D01*
X125120466Y-79112766D01*
X124947395Y-79184454D01*
X124763667Y-79221000D01*
X124576333Y-79221000D01*
X124392605Y-79184454D01*
X124219534Y-79112766D01*
X124142182Y-79061081D01*
X124063773Y-79008690D01*
X123931310Y-78876227D01*
X123827235Y-78720467D01*
X123827234Y-78720466D01*
X123755546Y-78547395D01*
X123719000Y-78363667D01*
X123719000Y-78176333D01*
X123755546Y-77992605D01*
X123827234Y-77819534D01*
X123931309Y-77663775D01*
X123931310Y-77663773D01*
X124063773Y-77531310D01*
X124219533Y-77427235D01*
X124219534Y-77427234D01*
X124392605Y-77355546D01*
X124576333Y-77319000D01*
X124763667Y-77319000D01*
X124947395Y-77355546D01*
X124947395Y-77355546D01*
G37*
G36*
X100496823Y-76631313D02*
G01*
X100657242Y-76679976D01*
X100789906Y-76750886D01*
X100805078Y-76758996D01*
X100934659Y-76865341D01*
X101041004Y-76994922D01*
X101041005Y-76994924D01*
X101120024Y-77142758D01*
X101168687Y-77303177D01*
X101185117Y-77470000D01*
X101168687Y-77636823D01*
X101120024Y-77797242D01*
X101049114Y-77929906D01*
X101041004Y-77945078D01*
X100934659Y-78074659D01*
X100805078Y-78181004D01*
X100805076Y-78181005D01*
X100657242Y-78260024D01*
X100496823Y-78308687D01*
X100371804Y-78321000D01*
X100288196Y-78321000D01*
X100163177Y-78308687D01*
X100002758Y-78260024D01*
X99854924Y-78181005D01*
X99854922Y-78181004D01*
X99725341Y-78074659D01*
X99618996Y-77945078D01*
X99610886Y-77929906D01*
X99539976Y-77797242D01*
X99491313Y-77636823D01*
X99474883Y-77470000D01*
X99491313Y-77303177D01*
X99539976Y-77142758D01*
X99618995Y-76994924D01*
X99618996Y-76994922D01*
X99725341Y-76865341D01*
X99854922Y-76758996D01*
X99870094Y-76750886D01*
X100002758Y-76679976D01*
X100163177Y-76631313D01*
X100288196Y-76619000D01*
X100371804Y-76619000D01*
X100496823Y-76631313D01*
X100496823Y-76631313D01*
G37*
G36*
X115736823Y-76631313D02*
G01*
X115897242Y-76679976D01*
X116029906Y-76750886D01*
X116045078Y-76758996D01*
X116174659Y-76865341D01*
X116281004Y-76994922D01*
X116281005Y-76994924D01*
X116360024Y-77142758D01*
X116408687Y-77303177D01*
X116425117Y-77470000D01*
X116408687Y-77636823D01*
X116360024Y-77797242D01*
X116289114Y-77929906D01*
X116281004Y-77945078D01*
X116174659Y-78074659D01*
X116045078Y-78181004D01*
X116045076Y-78181005D01*
X115897242Y-78260024D01*
X115736823Y-78308687D01*
X115611804Y-78321000D01*
X115528196Y-78321000D01*
X115403177Y-78308687D01*
X115242758Y-78260024D01*
X115094924Y-78181005D01*
X115094922Y-78181004D01*
X114965341Y-78074659D01*
X114858996Y-77945078D01*
X114850886Y-77929906D01*
X114779976Y-77797242D01*
X114731313Y-77636823D01*
X114714883Y-77470000D01*
X114731313Y-77303177D01*
X114779976Y-77142758D01*
X114858995Y-76994924D01*
X114858996Y-76994922D01*
X114965341Y-76865341D01*
X115094922Y-76758996D01*
X115110094Y-76750886D01*
X115242758Y-76679976D01*
X115403177Y-76631313D01*
X115528196Y-76619000D01*
X115611804Y-76619000D01*
X115736823Y-76631313D01*
X115736823Y-76631313D01*
G37*
G36*
X124947395Y-74815546D02*
G01*
X125120466Y-74887234D01*
X125120467Y-74887235D01*
X125276227Y-74991310D01*
X125408690Y-75123773D01*
X125408691Y-75123775D01*
X125512766Y-75279534D01*
X125584454Y-75452605D01*
X125621000Y-75636333D01*
X125621000Y-75823667D01*
X125584454Y-76007395D01*
X125512766Y-76180466D01*
X125512765Y-76180467D01*
X125408690Y-76336227D01*
X125276227Y-76468690D01*
X125197818Y-76521081D01*
X125120466Y-76572766D01*
X124947395Y-76644454D01*
X124763667Y-76681000D01*
X124576333Y-76681000D01*
X124392605Y-76644454D01*
X124219534Y-76572766D01*
X124142182Y-76521081D01*
X124063773Y-76468690D01*
X123931310Y-76336227D01*
X123827235Y-76180467D01*
X123827234Y-76180466D01*
X123755546Y-76007395D01*
X123719000Y-75823667D01*
X123719000Y-75636333D01*
X123755546Y-75452605D01*
X123827234Y-75279534D01*
X123931309Y-75123775D01*
X123931310Y-75123773D01*
X124063773Y-74991310D01*
X124219533Y-74887235D01*
X124219534Y-74887234D01*
X124392605Y-74815546D01*
X124576333Y-74779000D01*
X124763667Y-74779000D01*
X124947395Y-74815546D01*
X124947395Y-74815546D01*
G37*
G36*
X82724313Y-71945466D02*
G01*
X82891927Y-71996312D01*
X82969164Y-72037596D01*
X83046403Y-72078880D01*
X83181801Y-72189999D01*
X83292923Y-72325401D01*
X83375487Y-72479869D01*
X83375488Y-72479872D01*
X83426334Y-72647486D01*
X83439200Y-72778120D01*
X83439200Y-74541880D01*
X83426334Y-74672514D01*
X83394031Y-74779000D01*
X83375487Y-74840131D01*
X83292923Y-74994599D01*
X83181801Y-75130001D01*
X83046399Y-75241123D01*
X82891931Y-75323687D01*
X82891928Y-75323688D01*
X82724314Y-75374534D01*
X82550000Y-75391702D01*
X82375687Y-75374534D01*
X82208073Y-75323688D01*
X82208070Y-75323687D01*
X82053602Y-75241123D01*
X81918200Y-75130001D01*
X81807078Y-74994599D01*
X81724514Y-74840131D01*
X81705970Y-74779000D01*
X81673667Y-74672514D01*
X81660801Y-74541880D01*
X81660800Y-72778121D01*
X81673666Y-72647487D01*
X81724512Y-72479873D01*
X81795408Y-72347235D01*
X81807080Y-72325397D01*
X81918199Y-72189999D01*
X82053601Y-72078877D01*
X82208069Y-71996313D01*
X82208072Y-71996312D01*
X82375686Y-71945466D01*
X82550000Y-71928298D01*
X82724313Y-71945466D01*
X82724313Y-71945466D01*
G37*
G36*
X77644313Y-71945466D02*
G01*
X77811927Y-71996312D01*
X77889164Y-72037596D01*
X77966403Y-72078880D01*
X78101801Y-72189999D01*
X78212923Y-72325401D01*
X78295487Y-72479869D01*
X78295488Y-72479872D01*
X78346334Y-72647486D01*
X78359200Y-72778120D01*
X78359200Y-74541880D01*
X78346334Y-74672514D01*
X78314031Y-74779000D01*
X78295487Y-74840131D01*
X78212923Y-74994599D01*
X78101801Y-75130001D01*
X77966399Y-75241123D01*
X77811931Y-75323687D01*
X77811928Y-75323688D01*
X77644314Y-75374534D01*
X77470000Y-75391702D01*
X77295687Y-75374534D01*
X77128073Y-75323688D01*
X77128070Y-75323687D01*
X76973602Y-75241123D01*
X76838200Y-75130001D01*
X76727078Y-74994599D01*
X76644514Y-74840131D01*
X76625970Y-74779000D01*
X76593667Y-74672514D01*
X76580801Y-74541880D01*
X76580800Y-72778121D01*
X76593666Y-72647487D01*
X76644512Y-72479873D01*
X76715408Y-72347235D01*
X76727080Y-72325397D01*
X76838199Y-72189999D01*
X76973601Y-72078877D01*
X77128069Y-71996313D01*
X77128072Y-71996312D01*
X77295686Y-71945466D01*
X77470000Y-71928298D01*
X77644313Y-71945466D01*
X77644313Y-71945466D01*
G37*
G36*
X80184313Y-71945466D02*
G01*
X80351927Y-71996312D01*
X80429164Y-72037596D01*
X80506403Y-72078880D01*
X80641801Y-72189999D01*
X80752923Y-72325401D01*
X80835487Y-72479869D01*
X80835488Y-72479872D01*
X80886334Y-72647486D01*
X80899200Y-72778120D01*
X80899200Y-74541880D01*
X80886334Y-74672514D01*
X80854031Y-74779000D01*
X80835487Y-74840131D01*
X80752923Y-74994599D01*
X80641801Y-75130001D01*
X80506399Y-75241123D01*
X80351931Y-75323687D01*
X80351928Y-75323688D01*
X80184314Y-75374534D01*
X80010000Y-75391702D01*
X79835687Y-75374534D01*
X79668073Y-75323688D01*
X79668070Y-75323687D01*
X79513602Y-75241123D01*
X79378200Y-75130001D01*
X79267078Y-74994599D01*
X79184514Y-74840131D01*
X79165970Y-74779000D01*
X79133667Y-74672514D01*
X79120801Y-74541880D01*
X79120800Y-72778121D01*
X79133666Y-72647487D01*
X79184512Y-72479873D01*
X79255408Y-72347235D01*
X79267080Y-72325397D01*
X79378199Y-72189999D01*
X79513601Y-72078877D01*
X79668069Y-71996313D01*
X79668072Y-71996312D01*
X79835686Y-71945466D01*
X80010000Y-71928298D01*
X80184313Y-71945466D01*
X80184313Y-71945466D01*
G37*
G36*
X124947395Y-72275546D02*
G01*
X125120466Y-72347234D01*
X125120467Y-72347235D01*
X125276227Y-72451310D01*
X125408690Y-72583773D01*
X125408691Y-72583775D01*
X125512766Y-72739534D01*
X125584454Y-72912605D01*
X125621000Y-73096333D01*
X125621000Y-73283667D01*
X125584454Y-73467395D01*
X125512766Y-73640466D01*
X125512765Y-73640467D01*
X125408690Y-73796227D01*
X125276227Y-73928690D01*
X125197818Y-73981081D01*
X125120466Y-74032766D01*
X124947395Y-74104454D01*
X124763667Y-74141000D01*
X124576333Y-74141000D01*
X124392605Y-74104454D01*
X124219534Y-74032766D01*
X124142182Y-73981081D01*
X124063773Y-73928690D01*
X123931310Y-73796227D01*
X123827235Y-73640467D01*
X123827234Y-73640466D01*
X123755546Y-73467395D01*
X123719000Y-73283667D01*
X123719000Y-73096333D01*
X123755546Y-72912605D01*
X123827234Y-72739534D01*
X123931309Y-72583775D01*
X123931310Y-72583773D01*
X124063773Y-72451310D01*
X124219533Y-72347235D01*
X124219534Y-72347234D01*
X124392605Y-72275546D01*
X124576333Y-72239000D01*
X124763667Y-72239000D01*
X124947395Y-72275546D01*
X124947395Y-72275546D01*
G37*
G36*
X80396847Y-54475605D02*
G01*
X80506455Y-54497407D01*
X80816199Y-54625707D01*
X81094962Y-54811970D01*
X81332030Y-55049038D01*
X81518293Y-55327801D01*
X81646593Y-55637545D01*
X81712000Y-55966368D01*
X81712000Y-56301632D01*
X81646593Y-56630455D01*
X81518293Y-56940199D01*
X81332030Y-57218962D01*
X81094962Y-57456030D01*
X80816199Y-57642293D01*
X80506455Y-57770593D01*
X80396847Y-57792395D01*
X80177634Y-57836000D01*
X79842366Y-57836000D01*
X79623153Y-57792395D01*
X79513545Y-57770593D01*
X79203801Y-57642293D01*
X78925038Y-57456030D01*
X78687970Y-57218962D01*
X78501707Y-56940199D01*
X78373407Y-56630455D01*
X78308000Y-56301632D01*
X78308000Y-55966368D01*
X78373407Y-55637545D01*
X78501707Y-55327801D01*
X78687970Y-55049038D01*
X78925038Y-54811970D01*
X79203801Y-54625707D01*
X79513545Y-54497407D01*
X79623153Y-54475605D01*
X79842366Y-54432000D01*
X80177634Y-54432000D01*
X80396847Y-54475605D01*
X80396847Y-54475605D01*
G37*
G36*
X156726834Y-39954361D02*
G01*
X157074249Y-40098265D01*
X157074251Y-40098266D01*
X157386917Y-40307183D01*
X157652817Y-40573083D01*
X157861734Y-40885749D01*
X157861735Y-40885751D01*
X158005639Y-41233166D01*
X158079000Y-41601979D01*
X158079000Y-41978021D01*
X158005639Y-42346834D01*
X157861735Y-42694249D01*
X157861734Y-42694251D01*
X157652817Y-43006917D01*
X157386917Y-43272817D01*
X157074251Y-43481734D01*
X157074250Y-43481735D01*
X157074249Y-43481735D01*
X156726834Y-43625639D01*
X156358021Y-43699000D01*
X155981979Y-43699000D01*
X155613166Y-43625639D01*
X155265751Y-43481735D01*
X155265750Y-43481735D01*
X155265749Y-43481734D01*
X154953083Y-43272817D01*
X154687183Y-43006917D01*
X154478266Y-42694251D01*
X154478265Y-42694249D01*
X154334361Y-42346834D01*
X154261000Y-41978021D01*
X154261000Y-41601979D01*
X154334361Y-41233166D01*
X154478265Y-40885751D01*
X154478266Y-40885749D01*
X154687183Y-40573083D01*
X154953083Y-40307183D01*
X155265749Y-40098266D01*
X155265751Y-40098265D01*
X155613166Y-39954361D01*
X155981979Y-39881000D01*
X156358021Y-39881000D01*
X156726834Y-39954361D01*
X156726834Y-39954361D01*
G37*
G36*
X125726834Y-39954361D02*
G01*
X126074249Y-40098265D01*
X126074251Y-40098266D01*
X126386917Y-40307183D01*
X126652817Y-40573083D01*
X126861734Y-40885749D01*
X126861735Y-40885751D01*
X127005639Y-41233166D01*
X127079000Y-41601979D01*
X127079000Y-41978021D01*
X127005639Y-42346834D01*
X126861735Y-42694249D01*
X126861734Y-42694251D01*
X126652817Y-43006917D01*
X126386917Y-43272817D01*
X126074251Y-43481734D01*
X126074250Y-43481735D01*
X126074249Y-43481735D01*
X125726834Y-43625639D01*
X125358021Y-43699000D01*
X124981979Y-43699000D01*
X124613166Y-43625639D01*
X124265751Y-43481735D01*
X124265750Y-43481735D01*
X124265749Y-43481734D01*
X123953083Y-43272817D01*
X123687183Y-43006917D01*
X123478266Y-42694251D01*
X123478265Y-42694249D01*
X123334361Y-42346834D01*
X123261000Y-41978021D01*
X123261000Y-41601979D01*
X123334361Y-41233166D01*
X123478265Y-40885751D01*
X123478266Y-40885749D01*
X123687183Y-40573083D01*
X123953083Y-40307183D01*
X124265749Y-40098266D01*
X124265751Y-40098265D01*
X124613166Y-39954361D01*
X124981979Y-39881000D01*
X125358021Y-39881000D01*
X125726834Y-39954361D01*
X125726834Y-39954361D01*
G37*
M02*
