G04 #@! TF.GenerationSoftware,KiCad,Pcbnew,(5.1.2)-2*
G04 #@! TF.CreationDate,2019-09-02T15:00:53-07:00*
G04 #@! TF.ProjectId,watt meter,77617474-206d-4657-9465-722e6b696361,rev?*
G04 #@! TF.SameCoordinates,Original*
G04 #@! TF.FileFunction,Legend,Top*
G04 #@! TF.FilePolarity,Positive*
%FSLAX46Y46*%
G04 Gerber Fmt 4.6, Leading zero omitted, Abs format (unit mm)*
G04 Created by KiCad (PCBNEW (5.1.2)-2) date 2019-09-02 15:00:53*
%MOMM*%
%LPD*%
G04 APERTURE LIST*
%ADD10C,0.120000*%
%ADD11C,0.127000*%
%ADD12C,0.050800*%
%ADD13C,0.100000*%
%ADD14C,0.203200*%
%ADD15C,0.150000*%
%ADD16C,0.050000*%
G04 APERTURE END LIST*
D10*
X114300000Y-111760000D02*
X114300000Y-114300000D01*
X114300000Y-114300000D02*
X116970000Y-114300000D01*
X116970000Y-111760000D02*
X116970000Y-73530000D01*
X116970000Y-116970000D02*
X116970000Y-114300000D01*
X101600000Y-114300000D02*
X98930000Y-114300000D01*
X101600000Y-114300000D02*
X101600000Y-76200000D01*
X101600000Y-76200000D02*
X98930000Y-76200000D01*
X114300000Y-111760000D02*
X116970000Y-111760000D01*
X114300000Y-111760000D02*
X114300000Y-76200000D01*
X114300000Y-76200000D02*
X116970000Y-76200000D01*
X116970000Y-73530000D02*
X98930000Y-73530000D01*
X98930000Y-73530000D02*
X98930000Y-116970000D01*
X98930000Y-116970000D02*
X116970000Y-116970000D01*
X77015000Y-92744775D02*
X77515000Y-92744775D01*
X77265000Y-92994775D02*
X77265000Y-92494775D01*
X81360000Y-90190000D02*
G75*
G03X81360000Y-90190000I-2620000J0D01*
G01*
X87710000Y-90190000D02*
G75*
G03X87710000Y-90190000I-2620000J0D01*
G01*
X83615000Y-92994775D02*
X83615000Y-92494775D01*
X83365000Y-92744775D02*
X83865000Y-92744775D01*
X94060000Y-90190000D02*
G75*
G03X94060000Y-90190000I-2620000J0D01*
G01*
X89965000Y-92994775D02*
X89965000Y-92494775D01*
X89715000Y-92744775D02*
X90215000Y-92744775D01*
D11*
X122670000Y-119290000D02*
X158670000Y-119290000D01*
X158670000Y-119290000D02*
X158670000Y-39290000D01*
X158670000Y-39290000D02*
X122670000Y-39290000D01*
X122670000Y-39290000D02*
X122670000Y-119290000D01*
D10*
X71120000Y-76200000D02*
X71120000Y-86360000D01*
X72390000Y-76200000D02*
X64770000Y-76200000D01*
X64770000Y-76200000D02*
X64770000Y-86360000D01*
X64770000Y-86360000D02*
X72390000Y-86360000D01*
X72390000Y-86360000D02*
X72390000Y-76200000D01*
X72390000Y-99060000D02*
X72390000Y-88900000D01*
X64770000Y-99060000D02*
X72390000Y-99060000D01*
X64770000Y-88900000D02*
X64770000Y-99060000D01*
X72390000Y-88900000D02*
X64770000Y-88900000D01*
X71120000Y-88900000D02*
X71120000Y-99060000D01*
X95600000Y-80630000D02*
X95600000Y-84470000D01*
X97440000Y-80630000D02*
X97440000Y-84470000D01*
X91790000Y-84470000D02*
X91790000Y-80630000D01*
X93630000Y-84470000D02*
X93630000Y-80630000D01*
X76550000Y-84470000D02*
X76550000Y-80630000D01*
X78390000Y-84470000D02*
X78390000Y-80630000D01*
X80360000Y-80630000D02*
X80360000Y-84470000D01*
X82200000Y-80630000D02*
X82200000Y-84470000D01*
X87980000Y-84470000D02*
X87980000Y-80630000D01*
X89820000Y-84470000D02*
X89820000Y-80630000D01*
X86010000Y-84470000D02*
X86010000Y-80630000D01*
X84170000Y-84470000D02*
X84170000Y-80630000D01*
X96751000Y-110369000D02*
X96751000Y-115410000D01*
X86210000Y-110369000D02*
X86210000Y-115410000D01*
X96751000Y-115410000D02*
X92905000Y-115410000D01*
X90055000Y-115410000D02*
X86210000Y-115410000D01*
X87555000Y-110369000D02*
X86210000Y-110369000D01*
X96751000Y-110369000D02*
X95406000Y-110369000D01*
X92554000Y-110369000D02*
X90405000Y-110369000D01*
X93350000Y-111871000D02*
X93350000Y-115410000D01*
X89610000Y-111871000D02*
X89610000Y-115410000D01*
X92554000Y-110369000D02*
X90405000Y-110369000D01*
X93350000Y-115410000D02*
X92905000Y-115410000D01*
X90055000Y-115410000D02*
X89610000Y-115410000D01*
X76600000Y-98220000D02*
X83421000Y-98220000D01*
X76600000Y-102440000D02*
X83421000Y-102440000D01*
X76600000Y-98220000D02*
X76600000Y-99290000D01*
X76600000Y-101370000D02*
X76600000Y-102440000D01*
X83421000Y-98220000D02*
X83421000Y-99340000D01*
X83421000Y-101320000D02*
X83421000Y-102440000D01*
X76360000Y-97980000D02*
X77743000Y-97980000D01*
X76360000Y-97980000D02*
X76360000Y-99290000D01*
X78200000Y-99695000D02*
X78200000Y-100965000D01*
X78200000Y-100965000D02*
X81820000Y-100965000D01*
X81820000Y-100965000D02*
X81820000Y-99695000D01*
X81820000Y-99695000D02*
X78200000Y-99695000D01*
X78200000Y-99815000D02*
X79406667Y-99815000D01*
X78200000Y-99935000D02*
X79406667Y-99935000D01*
X78200000Y-100055000D02*
X79406667Y-100055000D01*
X78200000Y-100175000D02*
X79406667Y-100175000D01*
X78200000Y-100295000D02*
X79406667Y-100295000D01*
X78200000Y-100415000D02*
X79406667Y-100415000D01*
X78200000Y-100535000D02*
X79406667Y-100535000D01*
X78200000Y-100655000D02*
X79406667Y-100655000D01*
X78200000Y-100775000D02*
X79406667Y-100775000D01*
X78200000Y-100895000D02*
X79406667Y-100895000D01*
X79406667Y-99695000D02*
X79406667Y-100965000D01*
D11*
X74803000Y-68580000D02*
X85217000Y-68580000D01*
X85217000Y-52705000D02*
X74803000Y-52705000D01*
X85217000Y-68580000D02*
X85217000Y-56134000D01*
X85217000Y-54610000D02*
X85217000Y-52705000D01*
X74803000Y-68580000D02*
X74803000Y-56134000D01*
X74803000Y-54610000D02*
X74803000Y-52705000D01*
D12*
X75438000Y-67945000D02*
X84582000Y-67945000D01*
X84582000Y-59690000D02*
X84582000Y-67945000D01*
X84582000Y-59690000D02*
X75438000Y-59690000D01*
X75438000Y-67945000D02*
X75438000Y-59690000D01*
D11*
X81813400Y-56134000D02*
G75*
G03X81813400Y-56134000I-1803400J0D01*
G01*
D13*
G36*
X82169740Y-71374000D02*
G01*
X82931000Y-71374000D01*
X82931000Y-72010610D01*
X82169740Y-72010610D01*
X82169740Y-71374000D01*
G37*
G36*
X79628823Y-71374000D02*
G01*
X80391000Y-71374000D01*
X80391000Y-72011190D01*
X79628823Y-72011190D01*
X79628823Y-71374000D01*
G37*
G36*
X77087710Y-71374000D02*
G01*
X77851000Y-71374000D01*
X77851000Y-72011080D01*
X77087710Y-72011080D01*
X77087710Y-71374000D01*
G37*
G36*
X76829460Y-68580000D02*
G01*
X78105000Y-68580000D01*
X78105000Y-71381090D01*
X76829460Y-71381090D01*
X76829460Y-68580000D01*
G37*
G36*
X79374119Y-68580000D02*
G01*
X80645000Y-68580000D01*
X80645000Y-71379640D01*
X79374119Y-71379640D01*
X79374119Y-68580000D01*
G37*
G36*
X81917130Y-68580000D02*
G01*
X83185000Y-68580000D01*
X83185000Y-71378550D01*
X81917130Y-71378550D01*
X81917130Y-68580000D01*
G37*
D14*
X95250000Y-105410000D02*
X95250000Y-95250000D01*
X90170000Y-95250000D02*
X90170000Y-105410000D01*
X95250000Y-105410000D02*
X90170000Y-105410000D01*
X95250000Y-95250000D02*
X93726000Y-95250000D01*
X90170000Y-95250000D02*
X91694000Y-95250000D01*
X91694000Y-95250000D02*
G75*
G03X93726000Y-95250000I1016000J0D01*
G01*
D11*
G36*
X89535000Y-94138750D02*
G01*
X89547470Y-94138750D01*
X89572380Y-94140060D01*
X89597180Y-94142660D01*
X89621820Y-94146560D01*
X89646210Y-94151750D01*
X89670310Y-94158200D01*
X89694030Y-94165910D01*
X89717310Y-94174850D01*
X89740100Y-94185000D01*
X89762320Y-94196320D01*
X89783920Y-94208790D01*
X89804840Y-94222370D01*
X89825020Y-94237030D01*
X89844400Y-94252730D01*
X89862940Y-94269420D01*
X89880580Y-94287060D01*
X89897270Y-94305590D01*
X89912960Y-94324980D01*
X89927620Y-94345150D01*
X89941210Y-94366070D01*
X89953680Y-94387670D01*
X89965000Y-94409900D01*
X89975150Y-94432680D01*
X89984090Y-94455970D01*
X89991790Y-94479690D01*
X89998250Y-94503780D01*
X90003440Y-94528180D01*
X90007340Y-94552810D01*
X90009940Y-94577620D01*
X90011250Y-94602530D01*
X90011250Y-94615000D01*
X90011250Y-94627470D01*
X90009940Y-94652380D01*
X90007340Y-94677180D01*
X90003440Y-94701820D01*
X89998250Y-94726210D01*
X89991800Y-94750310D01*
X89984090Y-94774030D01*
X89975150Y-94797310D01*
X89965000Y-94820100D01*
X89953680Y-94842320D01*
X89941210Y-94863920D01*
X89927630Y-94884840D01*
X89912970Y-94905020D01*
X89897270Y-94924400D01*
X89880580Y-94942940D01*
X89862940Y-94960580D01*
X89844410Y-94977270D01*
X89825020Y-94992960D01*
X89804850Y-95007620D01*
X89783930Y-95021210D01*
X89762330Y-95033680D01*
X89740100Y-95045000D01*
X89717320Y-95055150D01*
X89694030Y-95064090D01*
X89670310Y-95071790D01*
X89646220Y-95078250D01*
X89621820Y-95083440D01*
X89597190Y-95087340D01*
X89572380Y-95089940D01*
X89547470Y-95091250D01*
X89535000Y-95091250D01*
X89522530Y-95091250D01*
X89497620Y-95089940D01*
X89472820Y-95087340D01*
X89448180Y-95083440D01*
X89423790Y-95078250D01*
X89399690Y-95071800D01*
X89375970Y-95064090D01*
X89352690Y-95055150D01*
X89329900Y-95045000D01*
X89307680Y-95033680D01*
X89286080Y-95021210D01*
X89265160Y-95007630D01*
X89244980Y-94992970D01*
X89225600Y-94977270D01*
X89207060Y-94960580D01*
X89189420Y-94942940D01*
X89172730Y-94924410D01*
X89157040Y-94905020D01*
X89142380Y-94884850D01*
X89128790Y-94863930D01*
X89116320Y-94842330D01*
X89105000Y-94820100D01*
X89094850Y-94797320D01*
X89085910Y-94774030D01*
X89078210Y-94750310D01*
X89071750Y-94726220D01*
X89066560Y-94701820D01*
X89062660Y-94677190D01*
X89060060Y-94652380D01*
X89058750Y-94627470D01*
X89058750Y-94615000D01*
X89058750Y-94602530D01*
X89060060Y-94577620D01*
X89062660Y-94552820D01*
X89066560Y-94528180D01*
X89071750Y-94503790D01*
X89078200Y-94479690D01*
X89085910Y-94455970D01*
X89094850Y-94432690D01*
X89105000Y-94409900D01*
X89116320Y-94387680D01*
X89128790Y-94366080D01*
X89142370Y-94345160D01*
X89157030Y-94324980D01*
X89172730Y-94305600D01*
X89189420Y-94287060D01*
X89207060Y-94269420D01*
X89225590Y-94252730D01*
X89244980Y-94237040D01*
X89265150Y-94222380D01*
X89286070Y-94208790D01*
X89307670Y-94196320D01*
X89329900Y-94185000D01*
X89352680Y-94174850D01*
X89375970Y-94165910D01*
X89399690Y-94158210D01*
X89423780Y-94151750D01*
X89448180Y-94146560D01*
X89472810Y-94142660D01*
X89497620Y-94140060D01*
X89522530Y-94138750D01*
X89535000Y-94138750D01*
G37*
X89535000Y-94138750D02*
X89547470Y-94138750D01*
X89572380Y-94140060D01*
X89597180Y-94142660D01*
X89621820Y-94146560D01*
X89646210Y-94151750D01*
X89670310Y-94158200D01*
X89694030Y-94165910D01*
X89717310Y-94174850D01*
X89740100Y-94185000D01*
X89762320Y-94196320D01*
X89783920Y-94208790D01*
X89804840Y-94222370D01*
X89825020Y-94237030D01*
X89844400Y-94252730D01*
X89862940Y-94269420D01*
X89880580Y-94287060D01*
X89897270Y-94305590D01*
X89912960Y-94324980D01*
X89927620Y-94345150D01*
X89941210Y-94366070D01*
X89953680Y-94387670D01*
X89965000Y-94409900D01*
X89975150Y-94432680D01*
X89984090Y-94455970D01*
X89991790Y-94479690D01*
X89998250Y-94503780D01*
X90003440Y-94528180D01*
X90007340Y-94552810D01*
X90009940Y-94577620D01*
X90011250Y-94602530D01*
X90011250Y-94615000D01*
X90011250Y-94627470D01*
X90009940Y-94652380D01*
X90007340Y-94677180D01*
X90003440Y-94701820D01*
X89998250Y-94726210D01*
X89991800Y-94750310D01*
X89984090Y-94774030D01*
X89975150Y-94797310D01*
X89965000Y-94820100D01*
X89953680Y-94842320D01*
X89941210Y-94863920D01*
X89927630Y-94884840D01*
X89912970Y-94905020D01*
X89897270Y-94924400D01*
X89880580Y-94942940D01*
X89862940Y-94960580D01*
X89844410Y-94977270D01*
X89825020Y-94992960D01*
X89804850Y-95007620D01*
X89783930Y-95021210D01*
X89762330Y-95033680D01*
X89740100Y-95045000D01*
X89717320Y-95055150D01*
X89694030Y-95064090D01*
X89670310Y-95071790D01*
X89646220Y-95078250D01*
X89621820Y-95083440D01*
X89597190Y-95087340D01*
X89572380Y-95089940D01*
X89547470Y-95091250D01*
X89535000Y-95091250D01*
X89522530Y-95091250D01*
X89497620Y-95089940D01*
X89472820Y-95087340D01*
X89448180Y-95083440D01*
X89423790Y-95078250D01*
X89399690Y-95071800D01*
X89375970Y-95064090D01*
X89352690Y-95055150D01*
X89329900Y-95045000D01*
X89307680Y-95033680D01*
X89286080Y-95021210D01*
X89265160Y-95007630D01*
X89244980Y-94992970D01*
X89225600Y-94977270D01*
X89207060Y-94960580D01*
X89189420Y-94942940D01*
X89172730Y-94924410D01*
X89157040Y-94905020D01*
X89142380Y-94884850D01*
X89128790Y-94863930D01*
X89116320Y-94842330D01*
X89105000Y-94820100D01*
X89094850Y-94797320D01*
X89085910Y-94774030D01*
X89078210Y-94750310D01*
X89071750Y-94726220D01*
X89066560Y-94701820D01*
X89062660Y-94677190D01*
X89060060Y-94652380D01*
X89058750Y-94627470D01*
X89058750Y-94615000D01*
X89058750Y-94602530D01*
X89060060Y-94577620D01*
X89062660Y-94552820D01*
X89066560Y-94528180D01*
X89071750Y-94503790D01*
X89078200Y-94479690D01*
X89085910Y-94455970D01*
X89094850Y-94432690D01*
X89105000Y-94409900D01*
X89116320Y-94387680D01*
X89128790Y-94366080D01*
X89142370Y-94345160D01*
X89157030Y-94324980D01*
X89172730Y-94305600D01*
X89189420Y-94287060D01*
X89207060Y-94269420D01*
X89225590Y-94252730D01*
X89244980Y-94237040D01*
X89265150Y-94222380D01*
X89286070Y-94208790D01*
X89307670Y-94196320D01*
X89329900Y-94185000D01*
X89352680Y-94174850D01*
X89375970Y-94165910D01*
X89399690Y-94158210D01*
X89423780Y-94151750D01*
X89448180Y-94146560D01*
X89472810Y-94142660D01*
X89497620Y-94140060D01*
X89522530Y-94138750D01*
X89535000Y-94138750D01*
D15*
X102973809Y-118276666D02*
X103450000Y-118276666D01*
X102878571Y-118562380D02*
X103211904Y-117562380D01*
X103545238Y-118562380D01*
X103878571Y-118562380D02*
X103878571Y-117895714D01*
X103878571Y-118086190D02*
X103926190Y-117990952D01*
X103973809Y-117943333D01*
X104069047Y-117895714D01*
X104164285Y-117895714D01*
X104926190Y-118562380D02*
X104926190Y-117562380D01*
X104926190Y-118514761D02*
X104830952Y-118562380D01*
X104640476Y-118562380D01*
X104545238Y-118514761D01*
X104497619Y-118467142D01*
X104450000Y-118371904D01*
X104450000Y-118086190D01*
X104497619Y-117990952D01*
X104545238Y-117943333D01*
X104640476Y-117895714D01*
X104830952Y-117895714D01*
X104926190Y-117943333D01*
X105830952Y-117895714D02*
X105830952Y-118562380D01*
X105402380Y-117895714D02*
X105402380Y-118419523D01*
X105450000Y-118514761D01*
X105545238Y-118562380D01*
X105688095Y-118562380D01*
X105783333Y-118514761D01*
X105830952Y-118467142D01*
X106307142Y-118562380D02*
X106307142Y-117895714D01*
X106307142Y-117562380D02*
X106259523Y-117610000D01*
X106307142Y-117657619D01*
X106354761Y-117610000D01*
X106307142Y-117562380D01*
X106307142Y-117657619D01*
X106783333Y-117895714D02*
X106783333Y-118562380D01*
X106783333Y-117990952D02*
X106830952Y-117943333D01*
X106926190Y-117895714D01*
X107069047Y-117895714D01*
X107164285Y-117943333D01*
X107211904Y-118038571D01*
X107211904Y-118562380D01*
X107830952Y-118562380D02*
X107735714Y-118514761D01*
X107688095Y-118467142D01*
X107640476Y-118371904D01*
X107640476Y-118086190D01*
X107688095Y-117990952D01*
X107735714Y-117943333D01*
X107830952Y-117895714D01*
X107973809Y-117895714D01*
X108069047Y-117943333D01*
X108116666Y-117990952D01*
X108164285Y-118086190D01*
X108164285Y-118371904D01*
X108116666Y-118467142D01*
X108069047Y-118514761D01*
X107973809Y-118562380D01*
X107830952Y-118562380D01*
X109354761Y-118562380D02*
X109354761Y-117562380D01*
X109926190Y-118562380D01*
X109926190Y-117562380D01*
X110354761Y-118276666D02*
X110830952Y-118276666D01*
X110259523Y-118562380D02*
X110592857Y-117562380D01*
X110926190Y-118562380D01*
X111259523Y-118562380D02*
X111259523Y-117562380D01*
X111830952Y-118562380D01*
X111830952Y-117562380D01*
X112497619Y-117562380D02*
X112688095Y-117562380D01*
X112783333Y-117610000D01*
X112878571Y-117705238D01*
X112926190Y-117895714D01*
X112926190Y-118229047D01*
X112878571Y-118419523D01*
X112783333Y-118514761D01*
X112688095Y-118562380D01*
X112497619Y-118562380D01*
X112402380Y-118514761D01*
X112307142Y-118419523D01*
X112259523Y-118229047D01*
X112259523Y-117895714D01*
X112307142Y-117705238D01*
X112402380Y-117610000D01*
X112497619Y-117562380D01*
X75347142Y-90356666D02*
X75394761Y-90404285D01*
X75442380Y-90547142D01*
X75442380Y-90642380D01*
X75394761Y-90785238D01*
X75299523Y-90880476D01*
X75204285Y-90928095D01*
X75013809Y-90975714D01*
X74870952Y-90975714D01*
X74680476Y-90928095D01*
X74585238Y-90880476D01*
X74490000Y-90785238D01*
X74442380Y-90642380D01*
X74442380Y-90547142D01*
X74490000Y-90404285D01*
X74537619Y-90356666D01*
X75442380Y-89404285D02*
X75442380Y-89975714D01*
X75442380Y-89690000D02*
X74442380Y-89690000D01*
X74585238Y-89785238D01*
X74680476Y-89880476D01*
X74728095Y-89975714D01*
X81697142Y-90356666D02*
X81744761Y-90404285D01*
X81792380Y-90547142D01*
X81792380Y-90642380D01*
X81744761Y-90785238D01*
X81649523Y-90880476D01*
X81554285Y-90928095D01*
X81363809Y-90975714D01*
X81220952Y-90975714D01*
X81030476Y-90928095D01*
X80935238Y-90880476D01*
X80840000Y-90785238D01*
X80792380Y-90642380D01*
X80792380Y-90547142D01*
X80840000Y-90404285D01*
X80887619Y-90356666D01*
X80887619Y-89975714D02*
X80840000Y-89928095D01*
X80792380Y-89832857D01*
X80792380Y-89594761D01*
X80840000Y-89499523D01*
X80887619Y-89451904D01*
X80982857Y-89404285D01*
X81078095Y-89404285D01*
X81220952Y-89451904D01*
X81792380Y-90023333D01*
X81792380Y-89404285D01*
X88047142Y-90356666D02*
X88094761Y-90404285D01*
X88142380Y-90547142D01*
X88142380Y-90642380D01*
X88094761Y-90785238D01*
X87999523Y-90880476D01*
X87904285Y-90928095D01*
X87713809Y-90975714D01*
X87570952Y-90975714D01*
X87380476Y-90928095D01*
X87285238Y-90880476D01*
X87190000Y-90785238D01*
X87142380Y-90642380D01*
X87142380Y-90547142D01*
X87190000Y-90404285D01*
X87237619Y-90356666D01*
X87142380Y-90023333D02*
X87142380Y-89404285D01*
X87523333Y-89737619D01*
X87523333Y-89594761D01*
X87570952Y-89499523D01*
X87618571Y-89451904D01*
X87713809Y-89404285D01*
X87951904Y-89404285D01*
X88047142Y-89451904D01*
X88094761Y-89499523D01*
X88142380Y-89594761D01*
X88142380Y-89880476D01*
X88094761Y-89975714D01*
X88047142Y-90023333D01*
D16*
X122281425Y-117876874D02*
X121281105Y-117876874D01*
X121281105Y-117638702D01*
X121328740Y-117495800D01*
X121424008Y-117400531D01*
X121519277Y-117352897D01*
X121709814Y-117305262D01*
X121852717Y-117305262D01*
X122043254Y-117352897D01*
X122138522Y-117400531D01*
X122233791Y-117495800D01*
X122281425Y-117638702D01*
X122281425Y-117876874D01*
X122233791Y-116924188D02*
X122281425Y-116781285D01*
X122281425Y-116543114D01*
X122233791Y-116447845D01*
X122186157Y-116400211D01*
X122090888Y-116352577D01*
X121995620Y-116352577D01*
X121900351Y-116400211D01*
X121852717Y-116447845D01*
X121805082Y-116543114D01*
X121757448Y-116733651D01*
X121709814Y-116828920D01*
X121662180Y-116876554D01*
X121566911Y-116924188D01*
X121471642Y-116924188D01*
X121376374Y-116876554D01*
X121328740Y-116828920D01*
X121281105Y-116733651D01*
X121281105Y-116495480D01*
X121328740Y-116352577D01*
X122281425Y-115399891D02*
X122281425Y-115971502D01*
X122281425Y-115685697D02*
X121281105Y-115685697D01*
X121424008Y-115780965D01*
X121519277Y-115876234D01*
X121566911Y-115971502D01*
X160062064Y-122600164D02*
X160062064Y-123076969D01*
X159060774Y-123076969D01*
X159966703Y-121694235D02*
X160014384Y-121741915D01*
X160062064Y-121884957D01*
X160062064Y-121980318D01*
X160014384Y-122123359D01*
X159919023Y-122218720D01*
X159823662Y-122266400D01*
X159632940Y-122314081D01*
X159489898Y-122314081D01*
X159299176Y-122266400D01*
X159203815Y-122218720D01*
X159108455Y-122123359D01*
X159060774Y-121980318D01*
X159060774Y-121884957D01*
X159108455Y-121741915D01*
X159156135Y-121694235D01*
X160062064Y-121265110D02*
X159060774Y-121265110D01*
X159775981Y-120931347D01*
X159060774Y-120597584D01*
X160062064Y-120597584D01*
X159680620Y-120120779D02*
X159680620Y-119357891D01*
X160014384Y-118928767D02*
X160062064Y-118785726D01*
X160062064Y-118547323D01*
X160014384Y-118451962D01*
X159966703Y-118404282D01*
X159871342Y-118356601D01*
X159775981Y-118356601D01*
X159680620Y-118404282D01*
X159632940Y-118451962D01*
X159585259Y-118547323D01*
X159537579Y-118738045D01*
X159489898Y-118833406D01*
X159442218Y-118881087D01*
X159346857Y-118928767D01*
X159251496Y-118928767D01*
X159156135Y-118881087D01*
X159108455Y-118833406D01*
X159060774Y-118738045D01*
X159060774Y-118499643D01*
X159108455Y-118356601D01*
X159060774Y-117736755D02*
X159060774Y-117641394D01*
X159108455Y-117546033D01*
X159156135Y-117498353D01*
X159251496Y-117450672D01*
X159442218Y-117402992D01*
X159680620Y-117402992D01*
X159871342Y-117450672D01*
X159966703Y-117498353D01*
X160014384Y-117546033D01*
X160062064Y-117641394D01*
X160062064Y-117736755D01*
X160014384Y-117832116D01*
X159966703Y-117879797D01*
X159871342Y-117927477D01*
X159680620Y-117975158D01*
X159442218Y-117975158D01*
X159251496Y-117927477D01*
X159156135Y-117879797D01*
X159108455Y-117832116D01*
X159060774Y-117736755D01*
X160062064Y-116449382D02*
X160062064Y-117021548D01*
X160062064Y-116735465D02*
X159060774Y-116735465D01*
X159203815Y-116830826D01*
X159299176Y-116926187D01*
X159346857Y-117021548D01*
X159060774Y-115591134D02*
X159060774Y-115781856D01*
X159108455Y-115877217D01*
X159156135Y-115924897D01*
X159299176Y-116020258D01*
X159489898Y-116067939D01*
X159871342Y-116067939D01*
X159966703Y-116020258D01*
X160014384Y-115972578D01*
X160062064Y-115877217D01*
X160062064Y-115686495D01*
X160014384Y-115591134D01*
X159966703Y-115543453D01*
X159871342Y-115495773D01*
X159632940Y-115495773D01*
X159537579Y-115543453D01*
X159489898Y-115591134D01*
X159442218Y-115686495D01*
X159442218Y-115877217D01*
X159489898Y-115972578D01*
X159537579Y-116020258D01*
X159632940Y-116067939D01*
X159060774Y-114875927D02*
X159060774Y-114780566D01*
X159108455Y-114685205D01*
X159156135Y-114637524D01*
X159251496Y-114589844D01*
X159442218Y-114542163D01*
X159680620Y-114542163D01*
X159871342Y-114589844D01*
X159966703Y-114637524D01*
X160014384Y-114685205D01*
X160062064Y-114780566D01*
X160062064Y-114875927D01*
X160014384Y-114971288D01*
X159966703Y-115018968D01*
X159871342Y-115066649D01*
X159680620Y-115114329D01*
X159442218Y-115114329D01*
X159251496Y-115066649D01*
X159156135Y-115018968D01*
X159108455Y-114971288D01*
X159060774Y-114875927D01*
X159156135Y-114160720D02*
X159108455Y-114113039D01*
X159060774Y-114017678D01*
X159060774Y-113779276D01*
X159108455Y-113683915D01*
X159156135Y-113636234D01*
X159251496Y-113588554D01*
X159346857Y-113588554D01*
X159489898Y-113636234D01*
X160062064Y-114208400D01*
X160062064Y-113588554D01*
X160062064Y-113159430D02*
X159060774Y-113159430D01*
X159060774Y-112921027D01*
X159108455Y-112777986D01*
X159203815Y-112682625D01*
X159299176Y-112634944D01*
X159489898Y-112587264D01*
X159632940Y-112587264D01*
X159823662Y-112634944D01*
X159919023Y-112682625D01*
X160014384Y-112777986D01*
X160062064Y-112921027D01*
X160062064Y-113159430D01*
X159060774Y-112301181D02*
X159060774Y-111729015D01*
X160062064Y-112015098D02*
X159060774Y-112015098D01*
X160062064Y-110823086D02*
X159585259Y-111156850D01*
X160062064Y-111395252D02*
X159060774Y-111395252D01*
X159060774Y-111013808D01*
X159108455Y-110918447D01*
X159156135Y-110870767D01*
X159251496Y-110823086D01*
X159394537Y-110823086D01*
X159489898Y-110870767D01*
X159537579Y-110918447D01*
X159585259Y-111013808D01*
X159585259Y-111395252D01*
X160157425Y-110632364D02*
X160157425Y-109869477D01*
X159775981Y-109678755D02*
X159775981Y-109201950D01*
X160062064Y-109774116D02*
X159060774Y-109440352D01*
X160062064Y-109106589D01*
D15*
X63952380Y-86708571D02*
X62952380Y-86708571D01*
X63952380Y-86232380D02*
X62952380Y-86232380D01*
X63952380Y-85660952D01*
X62952380Y-85660952D01*
X63952380Y-85184761D02*
X62952380Y-85184761D01*
X62952380Y-84803809D01*
X63000000Y-84708571D01*
X63047619Y-84660952D01*
X63142857Y-84613333D01*
X63285714Y-84613333D01*
X63380952Y-84660952D01*
X63428571Y-84708571D01*
X63476190Y-84803809D01*
X63476190Y-85184761D01*
X62952380Y-84184761D02*
X63761904Y-84184761D01*
X63857142Y-84137142D01*
X63904761Y-84089523D01*
X63952380Y-83994285D01*
X63952380Y-83803809D01*
X63904761Y-83708571D01*
X63857142Y-83660952D01*
X63761904Y-83613333D01*
X62952380Y-83613333D01*
X62952380Y-83280000D02*
X62952380Y-82708571D01*
X63952380Y-82994285D02*
X62952380Y-82994285D01*
X62952380Y-81756190D02*
X63952380Y-81422857D01*
X62952380Y-81089523D01*
X62952380Y-80565714D02*
X62952380Y-80375238D01*
X63000000Y-80280000D01*
X63095238Y-80184761D01*
X63285714Y-80137142D01*
X63619047Y-80137142D01*
X63809523Y-80184761D01*
X63904761Y-80280000D01*
X63952380Y-80375238D01*
X63952380Y-80565714D01*
X63904761Y-80660952D01*
X63809523Y-80756190D01*
X63619047Y-80803809D01*
X63285714Y-80803809D01*
X63095238Y-80756190D01*
X63000000Y-80660952D01*
X62952380Y-80565714D01*
X63952380Y-79232380D02*
X63952380Y-79708571D01*
X62952380Y-79708571D01*
X62952380Y-79041904D02*
X62952380Y-78470476D01*
X63952380Y-78756190D02*
X62952380Y-78756190D01*
X63666666Y-78184761D02*
X63666666Y-77708571D01*
X63952380Y-78280000D02*
X62952380Y-77946666D01*
X63952380Y-77613333D01*
X63000000Y-76756190D02*
X62952380Y-76851428D01*
X62952380Y-76994285D01*
X63000000Y-77137142D01*
X63095238Y-77232380D01*
X63190476Y-77280000D01*
X63380952Y-77327619D01*
X63523809Y-77327619D01*
X63714285Y-77280000D01*
X63809523Y-77232380D01*
X63904761Y-77137142D01*
X63952380Y-76994285D01*
X63952380Y-76899047D01*
X63904761Y-76756190D01*
X63857142Y-76708571D01*
X63523809Y-76708571D01*
X63523809Y-76899047D01*
X63428571Y-76280000D02*
X63428571Y-75946666D01*
X63952380Y-75803809D02*
X63952380Y-76280000D01*
X62952380Y-76280000D01*
X62952380Y-75803809D01*
X63952380Y-95122857D02*
X63952380Y-95599047D01*
X62952380Y-95599047D01*
X62952380Y-94599047D02*
X62952380Y-94408571D01*
X63000000Y-94313333D01*
X63095238Y-94218095D01*
X63285714Y-94170476D01*
X63619047Y-94170476D01*
X63809523Y-94218095D01*
X63904761Y-94313333D01*
X63952380Y-94408571D01*
X63952380Y-94599047D01*
X63904761Y-94694285D01*
X63809523Y-94789523D01*
X63619047Y-94837142D01*
X63285714Y-94837142D01*
X63095238Y-94789523D01*
X63000000Y-94694285D01*
X62952380Y-94599047D01*
X63666666Y-93789523D02*
X63666666Y-93313333D01*
X63952380Y-93884761D02*
X62952380Y-93551428D01*
X63952380Y-93218095D01*
X63952380Y-92884761D02*
X62952380Y-92884761D01*
X62952380Y-92646666D01*
X63000000Y-92503809D01*
X63095238Y-92408571D01*
X63190476Y-92360952D01*
X63380952Y-92313333D01*
X63523809Y-92313333D01*
X63714285Y-92360952D01*
X63809523Y-92408571D01*
X63904761Y-92503809D01*
X63952380Y-92646666D01*
X63952380Y-92884761D01*
X98892380Y-82716666D02*
X98416190Y-83050000D01*
X98892380Y-83288095D02*
X97892380Y-83288095D01*
X97892380Y-82907142D01*
X97940000Y-82811904D01*
X97987619Y-82764285D01*
X98082857Y-82716666D01*
X98225714Y-82716666D01*
X98320952Y-82764285D01*
X98368571Y-82811904D01*
X98416190Y-82907142D01*
X98416190Y-83288095D01*
X98892380Y-81764285D02*
X98892380Y-82335714D01*
X98892380Y-82050000D02*
X97892380Y-82050000D01*
X98035238Y-82145238D01*
X98130476Y-82240476D01*
X98178095Y-82335714D01*
X91242380Y-82716666D02*
X90766190Y-83050000D01*
X91242380Y-83288095D02*
X90242380Y-83288095D01*
X90242380Y-82907142D01*
X90290000Y-82811904D01*
X90337619Y-82764285D01*
X90432857Y-82716666D01*
X90575714Y-82716666D01*
X90670952Y-82764285D01*
X90718571Y-82811904D01*
X90766190Y-82907142D01*
X90766190Y-83288095D01*
X90337619Y-82335714D02*
X90290000Y-82288095D01*
X90242380Y-82192857D01*
X90242380Y-81954761D01*
X90290000Y-81859523D01*
X90337619Y-81811904D01*
X90432857Y-81764285D01*
X90528095Y-81764285D01*
X90670952Y-81811904D01*
X91242380Y-82383333D01*
X91242380Y-81764285D01*
X76002380Y-82716666D02*
X75526190Y-83050000D01*
X76002380Y-83288095D02*
X75002380Y-83288095D01*
X75002380Y-82907142D01*
X75050000Y-82811904D01*
X75097619Y-82764285D01*
X75192857Y-82716666D01*
X75335714Y-82716666D01*
X75430952Y-82764285D01*
X75478571Y-82811904D01*
X75526190Y-82907142D01*
X75526190Y-83288095D01*
X75002380Y-82383333D02*
X75002380Y-81764285D01*
X75383333Y-82097619D01*
X75383333Y-81954761D01*
X75430952Y-81859523D01*
X75478571Y-81811904D01*
X75573809Y-81764285D01*
X75811904Y-81764285D01*
X75907142Y-81811904D01*
X75954761Y-81859523D01*
X76002380Y-81954761D01*
X76002380Y-82240476D01*
X75954761Y-82335714D01*
X75907142Y-82383333D01*
X83652380Y-82716666D02*
X83176190Y-83050000D01*
X83652380Y-83288095D02*
X82652380Y-83288095D01*
X82652380Y-82907142D01*
X82700000Y-82811904D01*
X82747619Y-82764285D01*
X82842857Y-82716666D01*
X82985714Y-82716666D01*
X83080952Y-82764285D01*
X83128571Y-82811904D01*
X83176190Y-82907142D01*
X83176190Y-83288095D01*
X82985714Y-81859523D02*
X83652380Y-81859523D01*
X82604761Y-82097619D02*
X83319047Y-82335714D01*
X83319047Y-81716666D01*
X87432380Y-82716666D02*
X86956190Y-83050000D01*
X87432380Y-83288095D02*
X86432380Y-83288095D01*
X86432380Y-82907142D01*
X86480000Y-82811904D01*
X86527619Y-82764285D01*
X86622857Y-82716666D01*
X86765714Y-82716666D01*
X86860952Y-82764285D01*
X86908571Y-82811904D01*
X86956190Y-82907142D01*
X86956190Y-83288095D01*
X86432380Y-81811904D02*
X86432380Y-82288095D01*
X86908571Y-82335714D01*
X86860952Y-82288095D01*
X86813333Y-82192857D01*
X86813333Y-81954761D01*
X86860952Y-81859523D01*
X86908571Y-81811904D01*
X87003809Y-81764285D01*
X87241904Y-81764285D01*
X87337142Y-81811904D01*
X87384761Y-81859523D01*
X87432380Y-81954761D01*
X87432380Y-82192857D01*
X87384761Y-82288095D01*
X87337142Y-82335714D01*
X83622380Y-82716666D02*
X83146190Y-83050000D01*
X83622380Y-83288095D02*
X82622380Y-83288095D01*
X82622380Y-82907142D01*
X82670000Y-82811904D01*
X82717619Y-82764285D01*
X82812857Y-82716666D01*
X82955714Y-82716666D01*
X83050952Y-82764285D01*
X83098571Y-82811904D01*
X83146190Y-82907142D01*
X83146190Y-83288095D01*
X82622380Y-81859523D02*
X82622380Y-82050000D01*
X82670000Y-82145238D01*
X82717619Y-82192857D01*
X82860476Y-82288095D01*
X83050952Y-82335714D01*
X83431904Y-82335714D01*
X83527142Y-82288095D01*
X83574761Y-82240476D01*
X83622380Y-82145238D01*
X83622380Y-81954761D01*
X83574761Y-81859523D01*
X83527142Y-81811904D01*
X83431904Y-81764285D01*
X83193809Y-81764285D01*
X83098571Y-81811904D01*
X83050952Y-81859523D01*
X83003333Y-81954761D01*
X83003333Y-82145238D01*
X83050952Y-82240476D01*
X83098571Y-82288095D01*
X83193809Y-82335714D01*
X98332380Y-111085238D02*
X97856190Y-111418571D01*
X98332380Y-111656666D02*
X97332380Y-111656666D01*
X97332380Y-111275714D01*
X97380000Y-111180476D01*
X97427619Y-111132857D01*
X97522857Y-111085238D01*
X97665714Y-111085238D01*
X97760952Y-111132857D01*
X97808571Y-111180476D01*
X97856190Y-111275714D01*
X97856190Y-111656666D01*
X97332380Y-110799523D02*
X98332380Y-110466190D01*
X97332380Y-110132857D01*
X98332380Y-109275714D02*
X98332380Y-109847142D01*
X98332380Y-109561428D02*
X97332380Y-109561428D01*
X97475238Y-109656666D01*
X97570476Y-109751904D01*
X97618095Y-109847142D01*
X77486190Y-95972380D02*
X77676666Y-95972380D01*
X77771904Y-96020000D01*
X77867142Y-96115238D01*
X77914761Y-96305714D01*
X77914761Y-96639047D01*
X77867142Y-96829523D01*
X77771904Y-96924761D01*
X77676666Y-96972380D01*
X77486190Y-96972380D01*
X77390952Y-96924761D01*
X77295714Y-96829523D01*
X77248095Y-96639047D01*
X77248095Y-96305714D01*
X77295714Y-96115238D01*
X77390952Y-96020000D01*
X77486190Y-95972380D01*
X78343333Y-96972380D02*
X78343333Y-95972380D01*
X78914761Y-96972380D01*
X78914761Y-95972380D01*
X80105238Y-95924761D02*
X79248095Y-97210476D01*
X80629047Y-95972380D02*
X80819523Y-95972380D01*
X80914761Y-96020000D01*
X81010000Y-96115238D01*
X81057619Y-96305714D01*
X81057619Y-96639047D01*
X81010000Y-96829523D01*
X80914761Y-96924761D01*
X80819523Y-96972380D01*
X80629047Y-96972380D01*
X80533809Y-96924761D01*
X80438571Y-96829523D01*
X80390952Y-96639047D01*
X80390952Y-96305714D01*
X80438571Y-96115238D01*
X80533809Y-96020000D01*
X80629047Y-95972380D01*
X81819523Y-96448571D02*
X81486190Y-96448571D01*
X81486190Y-96972380D02*
X81486190Y-95972380D01*
X81962380Y-95972380D01*
X82676666Y-96448571D02*
X82343333Y-96448571D01*
X82343333Y-96972380D02*
X82343333Y-95972380D01*
X82819523Y-95972380D01*
D16*
X78687391Y-60437280D02*
X78687391Y-61572273D01*
X78754155Y-61705802D01*
X78820920Y-61772566D01*
X78954448Y-61839330D01*
X79221505Y-61839330D01*
X79355034Y-61772566D01*
X79421798Y-61705802D01*
X79488562Y-61572273D01*
X79488562Y-60437280D01*
X80089441Y-60570809D02*
X80156205Y-60504045D01*
X80289734Y-60437280D01*
X80623555Y-60437280D01*
X80757084Y-60504045D01*
X80823848Y-60570809D01*
X80890612Y-60704337D01*
X80890612Y-60837866D01*
X80823848Y-61038159D01*
X80022677Y-61839330D01*
X80890612Y-61839330D01*
X77482765Y-64512212D02*
X76815593Y-64512212D01*
X76815593Y-63111152D01*
X77949785Y-64512212D02*
X77949785Y-63111152D01*
X78416805Y-64111910D01*
X78883825Y-63111152D01*
X78883825Y-64512212D01*
X79417562Y-63111152D02*
X80351602Y-63111152D01*
X79751147Y-64512212D01*
X81085490Y-63711607D02*
X80952056Y-63644890D01*
X80885339Y-63578172D01*
X80818622Y-63444738D01*
X80818622Y-63378021D01*
X80885339Y-63244587D01*
X80952056Y-63177870D01*
X81085490Y-63111152D01*
X81352359Y-63111152D01*
X81485793Y-63177870D01*
X81552510Y-63244587D01*
X81619227Y-63378021D01*
X81619227Y-63444738D01*
X81552510Y-63578172D01*
X81485793Y-63644890D01*
X81352359Y-63711607D01*
X81085490Y-63711607D01*
X80952056Y-63778324D01*
X80885339Y-63845041D01*
X80818622Y-63978475D01*
X80818622Y-64245344D01*
X80885339Y-64378778D01*
X80952056Y-64445495D01*
X81085490Y-64512212D01*
X81352359Y-64512212D01*
X81485793Y-64445495D01*
X81552510Y-64378778D01*
X81619227Y-64245344D01*
X81619227Y-63978475D01*
X81552510Y-63845041D01*
X81485793Y-63778324D01*
X81352359Y-63711607D01*
X82486550Y-63111152D02*
X82619985Y-63111152D01*
X82753419Y-63177870D01*
X82820136Y-63244587D01*
X82886853Y-63378021D01*
X82953570Y-63644890D01*
X82953570Y-63978475D01*
X82886853Y-64245344D01*
X82820136Y-64378778D01*
X82753419Y-64445495D01*
X82619985Y-64512212D01*
X82486550Y-64512212D01*
X82353116Y-64445495D01*
X82286399Y-64378778D01*
X82219682Y-64245344D01*
X82152965Y-63978475D01*
X82152965Y-63644890D01*
X82219682Y-63378021D01*
X82286399Y-63244587D01*
X82353116Y-63177870D01*
X82486550Y-63111152D01*
X84221196Y-63111152D02*
X83554025Y-63111152D01*
X83487307Y-63778324D01*
X83554025Y-63711607D01*
X83687459Y-63644890D01*
X84021045Y-63644890D01*
X84154479Y-63711607D01*
X84221196Y-63778324D01*
X84287913Y-63911758D01*
X84287913Y-64245344D01*
X84221196Y-64378778D01*
X84154479Y-64445495D01*
X84021045Y-64512212D01*
X83687459Y-64512212D01*
X83554025Y-64445495D01*
X83487307Y-64378778D01*
X92344285Y-94047342D02*
X92344285Y-94435914D01*
X92367142Y-94481628D01*
X92390000Y-94504485D01*
X92435714Y-94527342D01*
X92527142Y-94527342D01*
X92572857Y-94504485D01*
X92595714Y-94481628D01*
X92618571Y-94435914D01*
X92618571Y-94047342D01*
X92801428Y-94047342D02*
X93098571Y-94047342D01*
X92938571Y-94230200D01*
X93007142Y-94230200D01*
X93052857Y-94253057D01*
X93075714Y-94275914D01*
X93098571Y-94321628D01*
X93098571Y-94435914D01*
X93075714Y-94481628D01*
X93052857Y-94504485D01*
X93007142Y-94527342D01*
X92870000Y-94527342D01*
X92824285Y-94504485D01*
X92801428Y-94481628D01*
X91670000Y-106592342D02*
X91441428Y-106592342D01*
X91441428Y-106112342D01*
X91830000Y-106592342D02*
X91830000Y-106112342D01*
X91990000Y-106455200D01*
X92150000Y-106112342D01*
X92150000Y-106592342D01*
X92332857Y-106112342D02*
X92630000Y-106112342D01*
X92470000Y-106295200D01*
X92538571Y-106295200D01*
X92584285Y-106318057D01*
X92607142Y-106340914D01*
X92630000Y-106386628D01*
X92630000Y-106500914D01*
X92607142Y-106546628D01*
X92584285Y-106569485D01*
X92538571Y-106592342D01*
X92401428Y-106592342D01*
X92355714Y-106569485D01*
X92332857Y-106546628D01*
X93064285Y-106112342D02*
X92835714Y-106112342D01*
X92812857Y-106340914D01*
X92835714Y-106318057D01*
X92881428Y-106295200D01*
X92995714Y-106295200D01*
X93041428Y-106318057D01*
X93064285Y-106340914D01*
X93087142Y-106386628D01*
X93087142Y-106500914D01*
X93064285Y-106546628D01*
X93041428Y-106569485D01*
X92995714Y-106592342D01*
X92881428Y-106592342D01*
X92835714Y-106569485D01*
X92812857Y-106546628D01*
X93247142Y-106112342D02*
X93567142Y-106112342D01*
X93361428Y-106592342D01*
X93818571Y-106318057D02*
X93772857Y-106295200D01*
X93750000Y-106272342D01*
X93727142Y-106226628D01*
X93727142Y-106203771D01*
X93750000Y-106158057D01*
X93772857Y-106135200D01*
X93818571Y-106112342D01*
X93910000Y-106112342D01*
X93955714Y-106135200D01*
X93978571Y-106158057D01*
X94001428Y-106203771D01*
X94001428Y-106226628D01*
X93978571Y-106272342D01*
X93955714Y-106295200D01*
X93910000Y-106318057D01*
X93818571Y-106318057D01*
X93772857Y-106340914D01*
X93750000Y-106363771D01*
X93727142Y-106409485D01*
X93727142Y-106500914D01*
X93750000Y-106546628D01*
X93772857Y-106569485D01*
X93818571Y-106592342D01*
X93910000Y-106592342D01*
X93955714Y-106569485D01*
X93978571Y-106546628D01*
X94001428Y-106500914D01*
X94001428Y-106409485D01*
X93978571Y-106363771D01*
X93955714Y-106340914D01*
X93910000Y-106318057D01*
M02*
