  0
SECTION
  2
HEADER
  9
$ANGBASE
  50
0.0
  9
$ANGDIR
  70
  1
  9
$MEASUREMENT
  70
0
  0
ENDSEC
  0
SECTION
  2
TABLES
  0
TABLE
  2
LTYPE
  70
4
  0
LTYPE
  5
40F
  2
CONTINUOUS
  70
0
  3
Solid line
  72
65
  73
0
  40
0.0
  0
LTYPE
  5
410
  2
DASHDOT
 70
0
  3
Dash Dot ____ _ ____ _
 72
65
 73
4
 40
2.0
 49
1.25
 49
-0.25
 49
0.25
 49
-0.25
  0
LTYPE
  5
411
  2
DASHED
 70
0
  3
Dashed __ __ __ __ __
 72
65
 73
2
 40
0.75
 49
0.5
 49
-0.25
  0
LTYPE
  5
43B
  2
DOTTED
 70
0
  3
Dotted .  .  .  .
 72
65
 73
2
 40
0.2
 49
0.0
 49
-0.2
  0
ENDTAB
  0
TABLE
  2
STYLE
  70
4
  0
STYLE
  2
KICAD
  70
0
  40
0
  41
1
  42
1
  50
0
  71
0
  3
isocp.shx
  0
STYLE
  2
KICADB
  70
0
  40
0
  41
1
  42
1
  50
0
  71
0
  3
isocp.shx
  0
STYLE
  2
KICADI
  70
0
  40
0
  41
1
  42
1
  50
15
  71
0
  3
isocp.shx
  0
STYLE
  2
KICADBI
  70
0
  40
0
  41
1
  42
1
  50
15
  71
0
  3
isocp.shx
  0
ENDTAB
  0
TABLE
  2
LAYER
  70
30
  0
LAYER
  2
BLACK
  70
0
  62
7
  6
CONTINUOUS
  0
LAYER
  2
GRAY1
  70
0
  62
251
  6
CONTINUOUS
  0
LAYER
  2
GRAY2
  70
0
  62
8
  6
CONTINUOUS
  0
LAYER
  2
GRAY3
  70
0
  62
9
  6
CONTINUOUS
  0
LAYER
  2
WHITE
  70
0
  62
7
  6
CONTINUOUS
  0
LAYER
  2
LYELLOW
  70
0
  62
51
  6
CONTINUOUS
  0
LAYER
  2
BLUE1
  70
0
  62
178
  6
CONTINUOUS
  0
LAYER
  2
GREEN1
  70
0
  62
98
  6
CONTINUOUS
  0
LAYER
  2
CYAN1
  70
0
  62
138
  6
CONTINUOUS
  0
LAYER
  2
RED1
  70
0
  62
18
  6
CONTINUOUS
  0
LAYER
  2
MAGENTA1
  70
0
  62
228
  6
CONTINUOUS
  0
LAYER
  2
BROWN1
  70
0
  62
58
  6
CONTINUOUS
  0
LAYER
  2
BLUE2
  70
0
  62
5
  6
CONTINUOUS
  0
LAYER
  2
GREEN2
  70
0
  62
3
  6
CONTINUOUS
  0
LAYER
  2
CYAN2
  70
0
  62
4
  6
CONTINUOUS
  0
LAYER
  2
RED2
  70
0
  62
1
  6
CONTINUOUS
  0
LAYER
  2
MAGENTA2
  70
0
  62
6
  6
CONTINUOUS
  0
LAYER
  2
BROWN2
  70
0
  62
54
  6
CONTINUOUS
  0
LAYER
  2
BLUE3
  70
0
  62
171
  6
CONTINUOUS
  0
LAYER
  2
GREEN3
  70
0
  62
91
  6
CONTINUOUS
  0
LAYER
  2
CYAN3
  70
0
  62
131
  6
CONTINUOUS
  0
LAYER
  2
RED3
  70
0
  62
11
  6
CONTINUOUS
  0
LAYER
  2
MAGENTA3
  70
0
  62
221
  6
CONTINUOUS
  0
LAYER
  2
YELLOW3
  70
0
  62
2
  6
CONTINUOUS
  0
LAYER
  2
BLUE4
  70
0
  62
5
  6
CONTINUOUS
  0
LAYER
  2
GREEN4
  70
0
  62
3
  6
CONTINUOUS
  0
LAYER
  2
CYAN4
  70
0
  62
4
  6
CONTINUOUS
  0
LAYER
  2
RED4
  70
0
  62
1
  6
CONTINUOUS
  0
LAYER
  2
MAGENTA4
  70
0
  62
6
  6
CONTINUOUS
  0
LAYER
  2
YELLOW4
  70
0
  62
2
  6
CONTINUOUS
  0
ENDTAB
  0
ENDSEC
  0
SECTION
  2
ENTITIES
0
LINE
8
BLACK
6
CONTINUOUS
10
165.102
20
-31.7251
11
165.105
21
-31.7253
0
LINE
8
BLACK
6
CONTINUOUS
10
165.105
20
-31.7253
11
165.105
21
-31.7253
0
LINE
8
BLACK
6
CONTINUOUS
10
165.105
20
-31.7253
11
165.105
21
-31.7254
0
LINE
8
BLACK
6
CONTINUOUS
10
165.105
20
-31.7254
11
165.107
21
-31.726
0
LINE
8
BLACK
6
CONTINUOUS
10
165.107
20
-31.726
11
165.109
21
-31.7267
0
LINE
8
BLACK
6
CONTINUOUS
10
165.109
20
-31.7267
11
165.109
21
-31.7267
0
LINE
8
BLACK
6
CONTINUOUS
10
165.109
20
-31.7267
11
165.11
21
-31.7268
0
LINE
8
BLACK
6
CONTINUOUS
10
165.11
20
-31.7268
11
165.112
21
-31.7279
0
LINE
8
BLACK
6
CONTINUOUS
10
165.112
20
-31.7279
11
165.114
21
-31.729
0
LINE
8
BLACK
6
CONTINUOUS
10
165.114
20
-31.729
11
165.114
21
-31.729
0
LINE
8
BLACK
6
CONTINUOUS
10
165.114
20
-31.729
11
165.114
21
-31.7291
0
LINE
8
BLACK
6
CONTINUOUS
10
165.114
20
-31.7291
11
165.116
21
-31.7306
0
LINE
8
BLACK
6
CONTINUOUS
10
165.116
20
-31.7306
11
165.118
21
-31.732
0
LINE
8
BLACK
6
CONTINUOUS
10
165.118
20
-31.732
11
165.118
21
-31.7321
0
LINE
8
BLACK
6
CONTINUOUS
10
165.118
20
-31.7321
11
165.118
21
-31.7322
0
LINE
8
BLACK
6
CONTINUOUS
10
165.118
20
-31.7322
11
165.119
21
-31.7341
0
LINE
8
BLACK
6
CONTINUOUS
10
165.119
20
-31.7341
11
165.121
21
-31.7358
0
LINE
8
BLACK
6
CONTINUOUS
10
165.121
20
-31.7358
11
165.121
21
-31.7359
0
LINE
8
BLACK
6
CONTINUOUS
10
165.121
20
-31.7359
11
165.121
21
-31.736
0
LINE
8
BLACK
6
CONTINUOUS
10
165.121
20
-31.736
11
165.122
21
-31.7382
0
LINE
8
BLACK
6
CONTINUOUS
10
165.122
20
-31.7382
11
165.123
21
-31.7401
0
LINE
8
BLACK
6
CONTINUOUS
10
165.123
20
-31.7401
11
165.123
21
-31.7403
0
LINE
8
BLACK
6
CONTINUOUS
10
165.123
20
-31.7403
11
165.123
21
-31.7404
0
LINE
8
BLACK
6
CONTINUOUS
10
165.123
20
-31.7404
11
165.124
21
-31.7427
0
LINE
8
BLACK
6
CONTINUOUS
10
165.124
20
-31.7427
11
165.125
21
-31.7448
0
LINE
8
BLACK
6
CONTINUOUS
10
165.125
20
-31.7448
11
165.125
21
-31.745
0
LINE
8
BLACK
6
CONTINUOUS
10
165.125
20
-31.745
11
165.125
21
-31.7451
0
LINE
8
BLACK
6
CONTINUOUS
10
165.125
20
-31.7451
11
165.125
21
-31.7475
0
LINE
8
BLACK
6
CONTINUOUS
10
165.125
20
-31.7475
11
165.125
21
-31.7497
0
LINE
8
BLACK
6
CONTINUOUS
10
165.125
20
-31.7497
11
165.125
21
-31.7511
0
LINE
8
BLACK
6
CONTINUOUS
10
165.125
20
-31.7511
11
165.125
21
-126.999
0
LINE
8
BLACK
6
CONTINUOUS
10
165.125
20
-126.999
11
165.125
21
-127
0
LINE
8
BLACK
6
CONTINUOUS
10
165.125
20
-127
11
165.125
21
-127.005
0
LINE
8
BLACK
6
CONTINUOUS
10
165.125
20
-127.005
11
165.123
21
-127.01
0
LINE
8
BLACK
6
CONTINUOUS
10
165.123
20
-127.01
11
165.121
21
-127.014
0
LINE
8
BLACK
6
CONTINUOUS
10
165.121
20
-127.014
11
165.118
21
-127.018
0
LINE
8
BLACK
6
CONTINUOUS
10
165.118
20
-127.018
11
165.114
21
-127.021
0
LINE
8
BLACK
6
CONTINUOUS
10
165.114
20
-127.021
11
165.11
21
-127.023
0
LINE
8
BLACK
6
CONTINUOUS
10
165.11
20
-127.023
11
165.105
21
-127.025
0
LINE
8
BLACK
6
CONTINUOUS
10
165.105
20
-127.025
11
165.101
21
-127.025
0
LINE
8
BLACK
6
CONTINUOUS
10
165.101
20
-127.025
11
165.101
21
-127.025
0
LINE
8
BLACK
6
CONTINUOUS
10
165.101
20
-127.025
11
165.1
21
-127.025
0
LINE
8
BLACK
6
CONTINUOUS
10
165.1
20
-127.025
11
165.099
21
-127.025
0
LINE
8
BLACK
6
CONTINUOUS
10
165.099
20
-127.025
11
57.1514
21
-127.025
0
LINE
8
BLACK
6
CONTINUOUS
10
57.1514
20
-127.025
11
57.1503
21
-127.025
0
LINE
8
BLACK
6
CONTINUOUS
10
57.1503
20
-127.025
11
57.1489
21
-127.025
0
LINE
8
BLACK
6
CONTINUOUS
10
57.1489
20
-127.025
11
57.1488
21
-127.025
0
LINE
8
BLACK
6
CONTINUOUS
10
57.1488
20
-127.025
11
57.1477
21
-127.025
0
LINE
8
BLACK
6
CONTINUOUS
10
57.1477
20
-127.025
11
57.1454
21
-127.025
0
LINE
8
BLACK
6
CONTINUOUS
10
57.1454
20
-127.025
11
57.1453
21
-127.025
0
LINE
8
BLACK
6
CONTINUOUS
10
57.1453
20
-127.025
11
57.1451
21
-127.025
0
LINE
8
BLACK
6
CONTINUOUS
10
57.1451
20
-127.025
11
57.1429
21
-127.024
0
LINE
8
BLACK
6
CONTINUOUS
10
57.1429
20
-127.024
11
57.1407
21
-127.023
0
LINE
8
BLACK
6
CONTINUOUS
10
57.1407
20
-127.023
11
57.1405
21
-127.023
0
LINE
8
BLACK
6
CONTINUOUS
10
57.1405
20
-127.023
11
57.1404
21
-127.023
0
LINE
8
BLACK
6
CONTINUOUS
10
57.1404
20
-127.023
11
57.1384
21
-127.022
0
LINE
8
BLACK
6
CONTINUOUS
10
57.1384
20
-127.022
11
57.1363
21
-127.021
0
LINE
8
BLACK
6
CONTINUOUS
10
57.1363
20
-127.021
11
57.1362
21
-127.021
0
LINE
8
BLACK
6
CONTINUOUS
10
57.1362
20
-127.021
11
57.136
21
-127.021
0
LINE
8
BLACK
6
CONTINUOUS
10
57.136
20
-127.021
11
57.1343
21
-127.019
0
LINE
8
BLACK
6
CONTINUOUS
10
57.1343
20
-127.019
11
57.1325
21
-127.018
0
LINE
8
BLACK
6
CONTINUOUS
10
57.1325
20
-127.018
11
57.1324
21
-127.018
0
LINE
8
BLACK
6
CONTINUOUS
10
57.1324
20
-127.018
11
57.1322
21
-127.018
0
LINE
8
BLACK
6
CONTINUOUS
10
57.1322
20
-127.018
11
57.1308
21
-127.016
0
LINE
8
BLACK
6
CONTINUOUS
10
57.1308
20
-127.016
11
57.1293
21
-127.014
0
LINE
8
BLACK
6
CONTINUOUS
10
57.1293
20
-127.014
11
57.1292
21
-127.014
0
LINE
8
BLACK
6
CONTINUOUS
10
57.1292
20
-127.014
11
57.1291
21
-127.014
0
LINE
8
BLACK
6
CONTINUOUS
10
57.1291
20
-127.014
11
57.128
21
-127.012
0
LINE
8
BLACK
6
CONTINUOUS
10
57.128
20
-127.012
11
57.1269
21
-127.01
0
LINE
8
BLACK
6
CONTINUOUS
10
57.1269
20
-127.01
11
57.1269
21
-127.01
0
LINE
8
BLACK
6
CONTINUOUS
10
57.1269
20
-127.01
11
57.1268
21
-127.01
0
LINE
8
BLACK
6
CONTINUOUS
10
57.1268
20
-127.01
11
57.1261
21
-127.007
0
LINE
8
BLACK
6
CONTINUOUS
10
57.1261
20
-127.007
11
57.1254
21
-127.005
0
LINE
8
BLACK
6
CONTINUOUS
10
57.1254
20
-127.005
11
57.1254
21
-127.005
0
LINE
8
BLACK
6
CONTINUOUS
10
57.1254
20
-127.005
11
57.1254
21
-127.005
0
LINE
8
BLACK
6
CONTINUOUS
10
57.1254
20
-127.005
11
57.1251
21
-127.003
0
LINE
8
BLACK
6
CONTINUOUS
10
57.1251
20
-127.003
11
57.125
21
-127.002
0
LINE
8
BLACK
6
CONTINUOUS
10
57.125
20
-127.002
11
57.125
21
-127.001
0
LINE
8
BLACK
6
CONTINUOUS
10
57.125
20
-127.001
11
57.1249
21
-127
0
LINE
8
BLACK
6
CONTINUOUS
10
57.1249
20
-127
11
57.125
21
-126.999
0
LINE
8
BLACK
6
CONTINUOUS
10
57.125
20
-126.999
11
55.855
21
-33.0215
0
LINE
8
BLACK
6
CONTINUOUS
10
55.855
20
-33.0215
11
55.8549
21
-33.0203
0
LINE
8
BLACK
6
CONTINUOUS
10
55.8549
20
-33.0203
11
55.8551
21
-33.0178
0
LINE
8
BLACK
6
CONTINUOUS
10
55.8551
20
-33.0178
11
55.8553
21
-33.0154
0
LINE
8
BLACK
6
CONTINUOUS
10
55.8553
20
-33.0154
11
55.8553
21
-33.0154
0
LINE
8
BLACK
6
CONTINUOUS
10
55.8553
20
-33.0154
11
55.8553
21
-33.0154
0
LINE
8
BLACK
6
CONTINUOUS
10
55.8553
20
-33.0154
11
55.8561
21
-33.0127
0
LINE
8
BLACK
6
CONTINUOUS
10
55.8561
20
-33.0127
11
55.8567
21
-33.0107
0
LINE
8
BLACK
6
CONTINUOUS
10
55.8567
20
-33.0107
11
55.8567
21
-33.0107
0
LINE
8
BLACK
6
CONTINUOUS
10
55.8567
20
-33.0107
11
55.8567
21
-33.0107
0
LINE
8
BLACK
6
CONTINUOUS
10
55.8567
20
-33.0107
11
55.8579
21
-33.0084
0
LINE
8
BLACK
6
CONTINUOUS
10
55.8579
20
-33.0084
11
55.8589
21
-33.0063
0
LINE
8
BLACK
6
CONTINUOUS
10
55.8589
20
-33.0063
11
55.8589
21
-33.0063
0
LINE
8
BLACK
6
CONTINUOUS
10
55.8589
20
-33.0063
11
55.859
21
-33.0063
0
LINE
8
BLACK
6
CONTINUOUS
10
55.859
20
-33.0063
11
55.8605
21
-33.0044
0
LINE
8
BLACK
6
CONTINUOUS
10
55.8605
20
-33.0044
11
55.862
21
-33.0025
0
LINE
8
BLACK
6
CONTINUOUS
10
55.862
20
-33.0025
11
55.862
21
-33.0025
0
LINE
8
BLACK
6
CONTINUOUS
10
55.862
20
-33.0025
11
55.862
21
-33.0024
0
LINE
8
BLACK
6
CONTINUOUS
10
55.862
20
-33.0024
11
55.864
21
-33.0008
0
LINE
8
BLACK
6
CONTINUOUS
10
55.864
20
-33.0008
11
55.8658
21
-32.9993
0
LINE
8
BLACK
6
CONTINUOUS
10
55.8658
20
-32.9993
11
55.8658
21
-32.9993
0
LINE
8
BLACK
6
CONTINUOUS
10
55.8658
20
-32.9993
11
55.8658
21
-32.9993
0
LINE
8
BLACK
6
CONTINUOUS
10
55.8658
20
-32.9993
11
55.8681
21
-32.998
0
LINE
8
BLACK
6
CONTINUOUS
10
55.8681
20
-32.998
11
55.8701
21
-32.9969
0
LINE
8
BLACK
6
CONTINUOUS
10
55.8701
20
-32.9969
11
55.8701
21
-32.9969
0
LINE
8
BLACK
6
CONTINUOUS
10
55.8701
20
-32.9969
11
55.8701
21
-32.9969
0
LINE
8
BLACK
6
CONTINUOUS
10
55.8701
20
-32.9969
11
55.8726
21
-32.9961
0
LINE
8
BLACK
6
CONTINUOUS
10
55.8726
20
-32.9961
11
55.8748
21
-32.9954
0
LINE
8
BLACK
6
CONTINUOUS
10
55.8748
20
-32.9954
11
55.8748
21
-32.9954
0
LINE
8
BLACK
6
CONTINUOUS
10
55.8748
20
-32.9954
11
55.8748
21
-32.9954
0
LINE
8
BLACK
6
CONTINUOUS
10
55.8748
20
-32.9954
11
55.8775
21
-32.9951
0
LINE
8
BLACK
6
CONTINUOUS
10
55.8775
20
-32.9951
11
55.8797
21
-32.9949
0
LINE
8
BLACK
6
CONTINUOUS
10
55.8797
20
-32.9949
11
55.8809
21
-32.995
0
LINE
8
BLACK
6
CONTINUOUS
10
55.8809
20
-32.995
11
165.099
21
-31.725
0
LINE
8
BLACK
6
CONTINUOUS
10
165.099
20
-31.725
11
165.1
21
-31.7249
0
LINE
8
BLACK
6
CONTINUOUS
10
165.1
20
-31.7249
11
165.102
21
-31.7251
0
LINE
8
BLACK
6
CONTINUOUS
10
55.9053
20
-33.0447
11
57.1747
21
-126.975
0
LINE
8
BLACK
6
CONTINUOUS
10
57.1747
20
-126.975
11
165.075
21
-126.975
0
LINE
8
BLACK
6
CONTINUOUS
10
165.075
20
-126.975
11
165.075
21
-31.7753
0
LINE
8
BLACK
6
CONTINUOUS
10
165.075
20
-31.7753
11
55.9053
21
-33.0447
0
LINE
8
BLACK
6
CONTINUOUS
10
76.832
20
-66.7377
11
76.834
21
-66.7379
0
LINE
8
BLACK
6
CONTINUOUS
10
76.834
20
-66.7379
11
76.834
21
-66.7379
0
LINE
8
BLACK
6
CONTINUOUS
10
76.834
20
-66.7379
11
76.834
21
-66.7379
0
LINE
8
BLACK
6
CONTINUOUS
10
76.834
20
-66.7379
11
76.8364
21
-66.7386
0
LINE
8
BLACK
6
CONTINUOUS
10
76.8364
20
-66.7386
11
76.8386
21
-66.7393
0
LINE
8
BLACK
6
CONTINUOUS
10
76.8386
20
-66.7393
11
76.8386
21
-66.7393
0
LINE
8
BLACK
6
CONTINUOUS
10
76.8386
20
-66.7393
11
76.8387
21
-66.7393
0
LINE
8
BLACK
6
CONTINUOUS
10
76.8387
20
-66.7393
11
76.8404
21
-66.7403
0
LINE
8
BLACK
6
CONTINUOUS
10
76.8404
20
-66.7403
11
76.8429
21
-66.7417
0
LINE
8
BLACK
6
CONTINUOUS
10
76.8429
20
-66.7417
11
76.8429
21
-66.7417
0
LINE
8
BLACK
6
CONTINUOUS
10
76.8429
20
-66.7417
11
76.8429
21
-66.7417
0
LINE
8
BLACK
6
CONTINUOUS
10
76.8429
20
-66.7417
11
76.8445
21
-66.743
0
LINE
8
BLACK
6
CONTINUOUS
10
76.8445
20
-66.743
11
76.8467
21
-66.7448
0
LINE
8
BLACK
6
CONTINUOUS
10
76.8467
20
-66.7448
11
76.8467
21
-66.7448
0
LINE
8
BLACK
6
CONTINUOUS
10
76.8467
20
-66.7448
11
76.8467
21
-66.7448
0
LINE
8
BLACK
6
CONTINUOUS
10
76.8467
20
-66.7448
11
76.8481
21
-66.7466
0
LINE
8
BLACK
6
CONTINUOUS
10
76.8481
20
-66.7466
11
76.8498
21
-66.7485
0
LINE
8
BLACK
6
CONTINUOUS
10
76.8498
20
-66.7485
11
76.8498
21
-66.7486
0
LINE
8
BLACK
6
CONTINUOUS
10
76.8498
20
-66.7486
11
76.8498
21
-66.7486
0
LINE
8
BLACK
6
CONTINUOUS
10
76.8498
20
-66.7486
11
76.8509
21
-66.7507
0
LINE
8
BLACK
6
CONTINUOUS
10
76.8509
20
-66.7507
11
76.852
21
-66.7529
0
LINE
8
BLACK
6
CONTINUOUS
10
76.852
20
-66.7529
11
76.852
21
-66.7529
0
LINE
8
BLACK
6
CONTINUOUS
10
76.852
20
-66.7529
11
76.8521
21
-66.7529
0
LINE
8
BLACK
6
CONTINUOUS
10
76.8521
20
-66.7529
11
76.8527
21
-66.755
0
LINE
8
BLACK
6
CONTINUOUS
10
76.8527
20
-66.755
11
76.8535
21
-66.7575
0
LINE
8
BLACK
6
CONTINUOUS
10
76.8535
20
-66.7575
11
76.8535
21
-66.7575
0
LINE
8
BLACK
6
CONTINUOUS
10
76.8535
20
-66.7575
11
76.8535
21
-66.7576
0
LINE
8
BLACK
6
CONTINUOUS
10
76.8535
20
-66.7576
11
76.8537
21
-66.7598
0
LINE
8
BLACK
6
CONTINUOUS
10
76.8537
20
-66.7598
11
76.8539
21
-66.7624
0
LINE
8
BLACK
6
CONTINUOUS
10
76.8539
20
-66.7624
11
76.8539
21
-67.7374
0
LINE
8
BLACK
6
CONTINUOUS
10
76.8539
20
-67.7374
11
77.1146
21
-67.7374
0
LINE
8
BLACK
6
CONTINUOUS
10
77.1146
20
-67.7374
11
77.115
21
-67.7374
0
LINE
8
BLACK
6
CONTINUOUS
10
77.115
20
-67.7374
11
77.1198
21
-67.7379
0
LINE
8
BLACK
6
CONTINUOUS
10
77.1198
20
-67.7379
11
77.1245
21
-67.7394
0
LINE
8
BLACK
6
CONTINUOUS
10
77.1245
20
-67.7394
11
77.1288
21
-67.7418
0
LINE
8
BLACK
6
CONTINUOUS
10
77.1288
20
-67.7418
11
77.1325
21
-67.7449
0
LINE
8
BLACK
6
CONTINUOUS
10
77.1325
20
-67.7449
11
77.1356
21
-67.7487
0
LINE
8
BLACK
6
CONTINUOUS
10
77.1356
20
-67.7487
11
77.1378
21
-67.753
0
LINE
8
BLACK
6
CONTINUOUS
10
77.1378
20
-67.753
11
77.1392
21
-67.7577
0
LINE
8
BLACK
6
CONTINUOUS
10
77.1392
20
-67.7577
11
77.1396
21
-67.7626
0
LINE
8
BLACK
6
CONTINUOUS
10
77.1396
20
-67.7626
11
77.1391
21
-67.7674
0
LINE
8
BLACK
6
CONTINUOUS
10
77.1391
20
-67.7674
11
77.1377
21
-67.7721
0
LINE
8
BLACK
6
CONTINUOUS
10
77.1377
20
-67.7721
11
77.1354
21
-67.7764
0
LINE
8
BLACK
6
CONTINUOUS
10
77.1354
20
-67.7764
11
77.1323
21
-67.7801
0
LINE
8
BLACK
6
CONTINUOUS
10
77.1323
20
-67.7801
11
77.1285
21
-67.7832
0
LINE
8
BLACK
6
CONTINUOUS
10
77.1285
20
-67.7832
11
77.1242
21
-67.7855
0
LINE
8
BLACK
6
CONTINUOUS
10
77.1242
20
-67.7855
11
77.1195
21
-67.7869
0
LINE
8
BLACK
6
CONTINUOUS
10
77.1195
20
-67.7869
11
77.1146
21
-67.7874
0
LINE
8
BLACK
6
CONTINUOUS
10
77.1146
20
-67.7874
11
76.5432
21
-67.7874
0
LINE
8
BLACK
6
CONTINUOUS
10
76.5432
20
-67.7874
11
76.5429
21
-67.7874
0
LINE
8
BLACK
6
CONTINUOUS
10
76.5429
20
-67.7874
11
76.538
21
-67.7868
0
LINE
8
BLACK
6
CONTINUOUS
10
76.538
20
-67.7868
11
76.5334
21
-67.7854
0
LINE
8
BLACK
6
CONTINUOUS
10
76.5334
20
-67.7854
11
76.5291
21
-67.783
0
LINE
8
BLACK
6
CONTINUOUS
10
76.5291
20
-67.783
11
76.5254
21
-67.7799
0
LINE
8
BLACK
6
CONTINUOUS
10
76.5254
20
-67.7799
11
76.5223
21
-67.7761
0
LINE
8
BLACK
6
CONTINUOUS
10
76.5223
20
-67.7761
11
76.52
21
-67.7717
0
LINE
8
BLACK
6
CONTINUOUS
10
76.52
20
-67.7717
11
76.5187
21
-67.7671
0
LINE
8
BLACK
6
CONTINUOUS
10
76.5187
20
-67.7671
11
76.5182
21
-67.7622
0
LINE
8
BLACK
6
CONTINUOUS
10
76.5182
20
-67.7622
11
76.5187
21
-67.7574
0
LINE
8
BLACK
6
CONTINUOUS
10
76.5187
20
-67.7574
11
76.5202
21
-67.7527
0
LINE
8
BLACK
6
CONTINUOUS
10
76.5202
20
-67.7527
11
76.5225
21
-67.7484
0
LINE
8
BLACK
6
CONTINUOUS
10
76.5225
20
-67.7484
11
76.5256
21
-67.7446
0
LINE
8
BLACK
6
CONTINUOUS
10
76.5256
20
-67.7446
11
76.5294
21
-67.7416
0
LINE
8
BLACK
6
CONTINUOUS
10
76.5294
20
-67.7416
11
76.5337
21
-67.7393
0
LINE
8
BLACK
6
CONTINUOUS
10
76.5337
20
-67.7393
11
76.5384
21
-67.7379
0
LINE
8
BLACK
6
CONTINUOUS
10
76.5384
20
-67.7379
11
76.5432
21
-67.7374
0
LINE
8
BLACK
6
CONTINUOUS
10
76.5432
20
-67.7374
11
76.8039
21
-67.7374
0
LINE
8
BLACK
6
CONTINUOUS
10
76.8039
20
-67.7374
11
76.8039
21
-66.8449
0
LINE
8
BLACK
6
CONTINUOUS
10
76.8039
20
-66.8449
11
76.7545
21
-66.9191
0
LINE
8
BLACK
6
CONTINUOUS
10
76.7545
20
-66.9191
11
76.7543
21
-66.9194
0
LINE
8
BLACK
6
CONTINUOUS
10
76.7543
20
-66.9194
11
76.7528
21
-66.9212
0
LINE
8
BLACK
6
CONTINUOUS
10
76.7528
20
-66.9212
11
76.7514
21
-66.9229
0
LINE
8
BLACK
6
CONTINUOUS
10
76.7514
20
-66.9229
11
76.6561
21
-67.0182
0
LINE
8
BLACK
6
CONTINUOUS
10
76.6561
20
-67.0182
11
76.6559
21
-67.0184
0
LINE
8
BLACK
6
CONTINUOUS
10
76.6559
20
-67.0184
11
76.6548
21
-67.0193
0
LINE
8
BLACK
6
CONTINUOUS
10
76.6548
20
-67.0193
11
76.6538
21
-67.0202
0
LINE
8
BLACK
6
CONTINUOUS
10
76.6538
20
-67.0202
11
76.6529
21
-67.0208
0
LINE
8
BLACK
6
CONTINUOUS
10
76.6529
20
-67.0208
11
76.6521
21
-67.0214
0
LINE
8
BLACK
6
CONTINUOUS
10
76.6521
20
-67.0214
11
76.6508
21
-67.0221
0
LINE
8
BLACK
6
CONTINUOUS
10
76.6508
20
-67.0221
11
76.6496
21
-67.0228
0
LINE
8
BLACK
6
CONTINUOUS
10
76.6496
20
-67.0228
11
76.5544
21
-67.0705
0
LINE
8
BLACK
6
CONTINUOUS
10
76.5544
20
-67.0705
11
76.5541
21
-67.0706
0
LINE
8
BLACK
6
CONTINUOUS
10
76.5541
20
-67.0706
11
76.5495
21
-67.0723
0
LINE
8
BLACK
6
CONTINUOUS
10
76.5495
20
-67.0723
11
76.5447
21
-67.0731
0
LINE
8
BLACK
6
CONTINUOUS
10
76.5447
20
-67.0731
11
76.5398
21
-67.0729
0
LINE
8
BLACK
6
CONTINUOUS
10
76.5398
20
-67.0729
11
76.5351
21
-67.0717
0
LINE
8
BLACK
6
CONTINUOUS
10
76.5351
20
-67.0717
11
76.5306
21
-67.0697
0
LINE
8
BLACK
6
CONTINUOUS
10
76.5306
20
-67.0697
11
76.5267
21
-67.0668
0
LINE
8
BLACK
6
CONTINUOUS
10
76.5267
20
-67.0668
11
76.5233
21
-67.0633
0
LINE
8
BLACK
6
CONTINUOUS
10
76.5233
20
-67.0633
11
76.5208
21
-67.0591
0
LINE
8
BLACK
6
CONTINUOUS
10
76.5208
20
-67.0591
11
76.5191
21
-67.0546
0
LINE
8
BLACK
6
CONTINUOUS
10
76.5191
20
-67.0546
11
76.5183
21
-67.0497
0
LINE
8
BLACK
6
CONTINUOUS
10
76.5183
20
-67.0497
11
76.5184
21
-67.0449
0
LINE
8
BLACK
6
CONTINUOUS
10
76.5184
20
-67.0449
11
76.5195
21
-67.0401
0
LINE
8
BLACK
6
CONTINUOUS
10
76.5195
20
-67.0401
11
76.5215
21
-67.0357
0
LINE
8
BLACK
6
CONTINUOUS
10
76.5215
20
-67.0357
11
76.5244
21
-67.0317
0
LINE
8
BLACK
6
CONTINUOUS
10
76.5244
20
-67.0317
11
76.5279
21
-67.0283
0
LINE
8
BLACK
6
CONTINUOUS
10
76.5279
20
-67.0283
11
76.532
21
-67.0257
0
LINE
8
BLACK
6
CONTINUOUS
10
76.532
20
-67.0257
11
76.6236
21
-66.9799
0
LINE
8
BLACK
6
CONTINUOUS
10
76.6236
20
-66.9799
11
76.7143
21
-66.8893
0
LINE
8
BLACK
6
CONTINUOUS
10
76.7143
20
-66.8893
11
76.8081
21
-66.7485
0
LINE
8
BLACK
6
CONTINUOUS
10
76.8081
20
-66.7485
11
76.8083
21
-66.7482
0
LINE
8
BLACK
6
CONTINUOUS
10
76.8083
20
-66.7482
11
76.8101
21
-66.7461
0
LINE
8
BLACK
6
CONTINUOUS
10
76.8101
20
-66.7461
11
76.8114
21
-66.7445
0
LINE
8
BLACK
6
CONTINUOUS
10
76.8114
20
-66.7445
11
76.8115
21
-66.7445
0
LINE
8
BLACK
6
CONTINUOUS
10
76.8115
20
-66.7445
11
76.8115
21
-66.7445
0
LINE
8
BLACK
6
CONTINUOUS
10
76.8115
20
-66.7445
11
76.8136
21
-66.7428
0
LINE
8
BLACK
6
CONTINUOUS
10
76.8136
20
-66.7428
11
76.8152
21
-66.7415
0
LINE
8
BLACK
6
CONTINUOUS
10
76.8152
20
-66.7415
11
76.8153
21
-66.7415
0
LINE
8
BLACK
6
CONTINUOUS
10
76.8153
20
-66.7415
11
76.8153
21
-66.7414
0
LINE
8
BLACK
6
CONTINUOUS
10
76.8153
20
-66.7414
11
76.8174
21
-66.7403
0
LINE
8
BLACK
6
CONTINUOUS
10
76.8174
20
-66.7403
11
76.8196
21
-66.7392
0
LINE
8
BLACK
6
CONTINUOUS
10
76.8196
20
-66.7392
11
76.8196
21
-66.7392
0
LINE
8
BLACK
6
CONTINUOUS
10
76.8196
20
-66.7392
11
76.8196
21
-66.7392
0
LINE
8
BLACK
6
CONTINUOUS
10
76.8196
20
-66.7392
11
76.8219
21
-66.7385
0
LINE
8
BLACK
6
CONTINUOUS
10
76.8219
20
-66.7385
11
76.8242
21
-66.7378
0
LINE
8
BLACK
6
CONTINUOUS
10
76.8242
20
-66.7378
11
76.8243
21
-66.7378
0
LINE
8
BLACK
6
CONTINUOUS
10
76.8243
20
-66.7378
11
76.8243
21
-66.7378
0
LINE
8
BLACK
6
CONTINUOUS
10
76.8243
20
-66.7378
11
76.827
21
-66.7376
0
LINE
8
BLACK
6
CONTINUOUS
10
76.827
20
-66.7376
11
76.8291
21
-66.7374
0
LINE
8
BLACK
6
CONTINUOUS
10
76.8291
20
-66.7374
11
76.8291
21
-66.7374
0
LINE
8
BLACK
6
CONTINUOUS
10
76.8291
20
-66.7374
11
76.8291
21
-66.7374
0
LINE
8
BLACK
6
CONTINUOUS
10
76.8291
20
-66.7374
11
76.832
21
-66.7377
0
LINE
8
BLACK
6
CONTINUOUS
10
82.2015
20
-66.7374
11
82.2031
21
-66.7376
0
LINE
8
BLACK
6
CONTINUOUS
10
82.2031
20
-66.7376
11
82.2046
21
-66.7376
0
LINE
8
BLACK
6
CONTINUOUS
10
82.2046
20
-66.7376
11
82.2055
21
-66.7378
0
LINE
8
BLACK
6
CONTINUOUS
10
82.2055
20
-66.7378
11
82.2063
21
-66.7379
0
LINE
8
BLACK
6
CONTINUOUS
10
82.2063
20
-66.7379
11
82.2078
21
-66.7384
0
LINE
8
BLACK
6
CONTINUOUS
10
82.2078
20
-66.7384
11
82.2094
21
-66.7388
0
LINE
8
BLACK
6
CONTINUOUS
10
82.2094
20
-66.7388
11
82.2101
21
-66.7391
0
LINE
8
BLACK
6
CONTINUOUS
10
82.2101
20
-66.7391
11
82.211
21
-66.7394
0
LINE
8
BLACK
6
CONTINUOUS
10
82.211
20
-66.7394
11
82.2124
21
-66.7402
0
LINE
8
BLACK
6
CONTINUOUS
10
82.2124
20
-66.7402
11
82.2138
21
-66.7408
0
LINE
8
BLACK
6
CONTINUOUS
10
82.2138
20
-66.7408
11
82.2145
21
-66.7413
0
LINE
8
BLACK
6
CONTINUOUS
10
82.2145
20
-66.7413
11
82.2153
21
-66.7418
0
LINE
8
BLACK
6
CONTINUOUS
10
82.2153
20
-66.7418
11
82.2165
21
-66.7428
0
LINE
8
BLACK
6
CONTINUOUS
10
82.2165
20
-66.7428
11
82.2177
21
-66.7437
0
LINE
8
BLACK
6
CONTINUOUS
10
82.2177
20
-66.7437
11
82.2183
21
-66.7443
0
LINE
8
BLACK
6
CONTINUOUS
10
82.2183
20
-66.7443
11
82.219
21
-66.7449
0
LINE
8
BLACK
6
CONTINUOUS
10
82.219
20
-66.7449
11
82.22
21
-66.7461
0
LINE
8
BLACK
6
CONTINUOUS
10
82.22
20
-66.7461
11
82.221
21
-66.7473
0
LINE
8
BLACK
6
CONTINUOUS
10
82.221
20
-66.7473
11
82.2215
21
-66.748
0
LINE
8
BLACK
6
CONTINUOUS
10
82.2215
20
-66.748
11
82.2221
21
-66.7487
0
LINE
8
BLACK
6
CONTINUOUS
10
82.2221
20
-66.7487
11
82.2228
21
-66.7501
0
LINE
8
BLACK
6
CONTINUOUS
10
82.2228
20
-66.7501
11
82.2236
21
-66.7514
0
LINE
8
BLACK
6
CONTINUOUS
10
82.2236
20
-66.7514
11
82.2239
21
-66.7522
0
LINE
8
BLACK
6
CONTINUOUS
10
82.2239
20
-66.7522
11
82.2243
21
-66.753
0
LINE
8
BLACK
6
CONTINUOUS
10
82.2243
20
-66.753
11
82.2248
21
-66.7545
0
LINE
8
BLACK
6
CONTINUOUS
10
82.2248
20
-66.7545
11
82.2253
21
-66.756
0
LINE
8
BLACK
6
CONTINUOUS
10
82.2253
20
-66.756
11
82.2254
21
-66.7569
0
LINE
8
BLACK
6
CONTINUOUS
10
82.2254
20
-66.7569
11
82.2257
21
-66.7577
0
LINE
8
BLACK
6
CONTINUOUS
10
82.2257
20
-66.7577
11
82.2258
21
-66.7593
0
LINE
8
BLACK
6
CONTINUOUS
10
82.2258
20
-66.7593
11
82.2261
21
-66.7608
0
LINE
8
BLACK
6
CONTINUOUS
10
82.2261
20
-66.7608
11
82.2261
21
-66.7617
0
LINE
8
BLACK
6
CONTINUOUS
10
82.2261
20
-66.7617
11
82.2261
21
-66.7626
0
LINE
8
BLACK
6
CONTINUOUS
10
82.2261
20
-66.7626
11
82.226
21
-66.7641
0
LINE
8
BLACK
6
CONTINUOUS
10
82.226
20
-66.7641
11
82.2259
21
-66.7657
0
LINE
8
BLACK
6
CONTINUOUS
10
82.2259
20
-66.7657
11
82.2257
21
-66.7665
0
LINE
8
BLACK
6
CONTINUOUS
10
82.2257
20
-66.7665
11
82.2256
21
-66.7674
0
LINE
8
BLACK
6
CONTINUOUS
10
82.2256
20
-66.7674
11
82.2252
21
-66.7689
0
LINE
8
BLACK
6
CONTINUOUS
10
82.2252
20
-66.7689
11
82.2248
21
-66.7704
0
LINE
8
BLACK
6
CONTINUOUS
10
82.2248
20
-66.7704
11
82.2244
21
-66.7712
0
LINE
8
BLACK
6
CONTINUOUS
10
82.2244
20
-66.7712
11
82.2242
21
-66.7721
0
LINE
8
BLACK
6
CONTINUOUS
10
82.2242
20
-66.7721
11
82.2234
21
-66.7734
0
LINE
8
BLACK
6
CONTINUOUS
10
82.2234
20
-66.7734
11
82.2228
21
-66.7749
0
LINE
8
BLACK
6
CONTINUOUS
10
82.2228
20
-66.7749
11
82.2223
21
-66.7756
0
LINE
8
BLACK
6
CONTINUOUS
10
82.2223
20
-66.7756
11
82.2219
21
-66.7764
0
LINE
8
BLACK
6
CONTINUOUS
10
82.2219
20
-66.7764
11
82.2209
21
-66.7776
0
LINE
8
BLACK
6
CONTINUOUS
10
82.2209
20
-66.7776
11
82.2199
21
-66.7788
0
LINE
8
BLACK
6
CONTINUOUS
10
82.2199
20
-66.7788
11
81.9229
21
-67.1183
0
LINE
8
BLACK
6
CONTINUOUS
10
81.9229
20
-67.1183
11
82.0107
21
-67.1183
0
LINE
8
BLACK
6
CONTINUOUS
10
82.0107
20
-67.1183
11
82.011
21
-67.1183
0
LINE
8
BLACK
6
CONTINUOUS
10
82.011
20
-67.1183
11
82.0117
21
-67.1184
0
LINE
8
BLACK
6
CONTINUOUS
10
82.0117
20
-67.1184
11
82.0125
21
-67.1184
0
LINE
8
BLACK
6
CONTINUOUS
10
82.0125
20
-67.1184
11
82.0142
21
-67.1187
0
LINE
8
BLACK
6
CONTINUOUS
10
82.0142
20
-67.1187
11
82.0159
21
-67.1189
0
LINE
8
BLACK
6
CONTINUOUS
10
82.0159
20
-67.1189
11
82.0166
21
-67.1191
0
LINE
8
BLACK
6
CONTINUOUS
10
82.0166
20
-67.1191
11
82.0173
21
-67.1192
0
LINE
8
BLACK
6
CONTINUOUS
10
82.0173
20
-67.1192
11
82.0189
21
-67.1198
0
LINE
8
BLACK
6
CONTINUOUS
10
82.0189
20
-67.1198
11
82.0205
21
-67.1204
0
LINE
8
BLACK
6
CONTINUOUS
10
82.0205
20
-67.1204
11
82.0211
21
-67.1207
0
LINE
8
BLACK
6
CONTINUOUS
10
82.0211
20
-67.1207
11
82.0218
21
-67.121
0
LINE
8
BLACK
6
CONTINUOUS
10
82.0218
20
-67.121
11
82.1171
21
-67.1686
0
LINE
8
BLACK
6
CONTINUOUS
10
82.1171
20
-67.1686
11
82.1174
21
-67.1687
0
LINE
8
BLACK
6
CONTINUOUS
10
82.1174
20
-67.1687
11
82.1186
21
-67.1695
0
LINE
8
BLACK
6
CONTINUOUS
10
82.1186
20
-67.1695
11
82.1198
21
-67.1702
0
LINE
8
BLACK
6
CONTINUOUS
10
82.1198
20
-67.1702
11
82.1206
21
-67.1708
0
LINE
8
BLACK
6
CONTINUOUS
10
82.1206
20
-67.1708
11
82.1215
21
-67.1714
0
LINE
8
BLACK
6
CONTINUOUS
10
82.1215
20
-67.1714
11
82.1225
21
-67.1724
0
LINE
8
BLACK
6
CONTINUOUS
10
82.1225
20
-67.1724
11
82.1236
21
-67.1733
0
LINE
8
BLACK
6
CONTINUOUS
10
82.1236
20
-67.1733
11
82.1712
21
-67.2209
0
LINE
8
BLACK
6
CONTINUOUS
10
82.1712
20
-67.2209
11
82.1714
21
-67.2211
0
LINE
8
BLACK
6
CONTINUOUS
10
82.1714
20
-67.2211
11
82.1723
21
-67.2222
0
LINE
8
BLACK
6
CONTINUOUS
10
82.1723
20
-67.2222
11
82.1733
21
-67.2233
0
LINE
8
BLACK
6
CONTINUOUS
10
82.1733
20
-67.2233
11
82.1738
21
-67.2241
0
LINE
8
BLACK
6
CONTINUOUS
10
82.1738
20
-67.2241
11
82.1745
21
-67.225
0
LINE
8
BLACK
6
CONTINUOUS
10
82.1745
20
-67.225
11
82.1751
21
-67.2262
0
LINE
8
BLACK
6
CONTINUOUS
10
82.1751
20
-67.2262
11
82.1759
21
-67.2274
0
LINE
8
BLACK
6
CONTINUOUS
10
82.1759
20
-67.2274
11
82.2235
21
-67.3226
0
LINE
8
BLACK
6
CONTINUOUS
10
82.2235
20
-67.3226
11
82.2236
21
-67.3229
0
LINE
8
BLACK
6
CONTINUOUS
10
82.2236
20
-67.3229
11
82.2239
21
-67.3236
0
LINE
8
BLACK
6
CONTINUOUS
10
82.2239
20
-67.3236
11
82.2242
21
-67.3243
0
LINE
8
BLACK
6
CONTINUOUS
10
82.2242
20
-67.3243
11
82.2247
21
-67.3259
0
LINE
8
BLACK
6
CONTINUOUS
10
82.2247
20
-67.3259
11
82.2253
21
-67.3275
0
LINE
8
BLACK
6
CONTINUOUS
10
82.2253
20
-67.3275
11
82.2254
21
-67.3282
0
LINE
8
BLACK
6
CONTINUOUS
10
82.2254
20
-67.3282
11
82.2257
21
-67.329
0
LINE
8
BLACK
6
CONTINUOUS
10
82.2257
20
-67.329
11
82.2258
21
-67.3307
0
LINE
8
BLACK
6
CONTINUOUS
10
82.2258
20
-67.3307
11
82.2261
21
-67.3323
0
LINE
8
BLACK
6
CONTINUOUS
10
82.2261
20
-67.3323
11
82.2261
21
-67.3331
0
LINE
8
BLACK
6
CONTINUOUS
10
82.2261
20
-67.3331
11
82.2261
21
-67.3338
0
LINE
8
BLACK
6
CONTINUOUS
10
82.2261
20
-67.3338
11
82.2261
21
-67.5719
0
LINE
8
BLACK
6
CONTINUOUS
10
82.2261
20
-67.5719
11
82.2261
21
-67.5723
0
LINE
8
BLACK
6
CONTINUOUS
10
82.2261
20
-67.5723
11
82.2261
21
-67.573
0
LINE
8
BLACK
6
CONTINUOUS
10
82.2261
20
-67.573
11
82.2261
21
-67.5737
0
LINE
8
BLACK
6
CONTINUOUS
10
82.2261
20
-67.5737
11
82.2258
21
-67.5754
0
LINE
8
BLACK
6
CONTINUOUS
10
82.2258
20
-67.5754
11
82.2256
21
-67.5771
0
LINE
8
BLACK
6
CONTINUOUS
10
82.2256
20
-67.5771
11
82.2254
21
-67.5778
0
LINE
8
BLACK
6
CONTINUOUS
10
82.2254
20
-67.5778
11
82.2252
21
-67.5785
0
LINE
8
BLACK
6
CONTINUOUS
10
82.2252
20
-67.5785
11
82.2246
21
-67.5801
0
LINE
8
BLACK
6
CONTINUOUS
10
82.2246
20
-67.5801
11
82.2241
21
-67.5818
0
LINE
8
BLACK
6
CONTINUOUS
10
82.2241
20
-67.5818
11
82.2238
21
-67.5824
0
LINE
8
BLACK
6
CONTINUOUS
10
82.2238
20
-67.5824
11
82.2235
21
-67.5831
0
LINE
8
BLACK
6
CONTINUOUS
10
82.2235
20
-67.5831
11
82.1759
21
-67.6783
0
LINE
8
BLACK
6
CONTINUOUS
10
82.1759
20
-67.6783
11
82.1757
21
-67.6786
0
LINE
8
BLACK
6
CONTINUOUS
10
82.1757
20
-67.6786
11
82.1749
21
-67.6798
0
LINE
8
BLACK
6
CONTINUOUS
10
82.1749
20
-67.6798
11
82.1743
21
-67.681
0
LINE
8
BLACK
6
CONTINUOUS
10
82.1743
20
-67.681
11
82.1736
21
-67.6818
0
LINE
8
BLACK
6
CONTINUOUS
10
82.1736
20
-67.6818
11
82.1731
21
-67.6827
0
LINE
8
BLACK
6
CONTINUOUS
10
82.1731
20
-67.6827
11
82.1721
21
-67.6837
0
LINE
8
BLACK
6
CONTINUOUS
10
82.1721
20
-67.6837
11
82.1712
21
-67.6848
0
LINE
8
BLACK
6
CONTINUOUS
10
82.1712
20
-67.6848
11
82.1236
21
-67.7324
0
LINE
8
BLACK
6
CONTINUOUS
10
82.1236
20
-67.7324
11
82.1233
21
-67.7327
0
LINE
8
BLACK
6
CONTINUOUS
10
82.1233
20
-67.7327
11
82.1222
21
-67.7336
0
LINE
8
BLACK
6
CONTINUOUS
10
82.1222
20
-67.7336
11
82.1212
21
-67.7345
0
LINE
8
BLACK
6
CONTINUOUS
10
82.1212
20
-67.7345
11
82.1203
21
-67.7351
0
LINE
8
BLACK
6
CONTINUOUS
10
82.1203
20
-67.7351
11
82.1195
21
-67.7357
0
LINE
8
BLACK
6
CONTINUOUS
10
82.1195
20
-67.7357
11
82.1183
21
-67.7364
0
LINE
8
BLACK
6
CONTINUOUS
10
82.1183
20
-67.7364
11
82.1171
21
-67.7371
0
LINE
8
BLACK
6
CONTINUOUS
10
82.1171
20
-67.7371
11
82.0218
21
-67.7847
0
LINE
8
BLACK
6
CONTINUOUS
10
82.0218
20
-67.7847
11
82.0215
21
-67.7849
0
LINE
8
BLACK
6
CONTINUOUS
10
82.0215
20
-67.7849
11
82.0208
21
-67.7851
0
LINE
8
BLACK
6
CONTINUOUS
10
82.0208
20
-67.7851
11
82.0202
21
-67.7855
0
LINE
8
BLACK
6
CONTINUOUS
10
82.0202
20
-67.7855
11
82.0185
21
-67.786
0
LINE
8
BLACK
6
CONTINUOUS
10
82.0185
20
-67.786
11
82.0169
21
-67.7866
0
LINE
8
BLACK
6
CONTINUOUS
10
82.0169
20
-67.7866
11
82.0162
21
-67.7867
0
LINE
8
BLACK
6
CONTINUOUS
10
82.0162
20
-67.7867
11
82.0155
21
-67.7869
0
LINE
8
BLACK
6
CONTINUOUS
10
82.0155
20
-67.7869
11
82.0138
21
-67.7871
0
LINE
8
BLACK
6
CONTINUOUS
10
82.0138
20
-67.7871
11
82.0121
21
-67.7873
0
LINE
8
BLACK
6
CONTINUOUS
10
82.0121
20
-67.7873
11
82.0114
21
-67.7873
0
LINE
8
BLACK
6
CONTINUOUS
10
82.0114
20
-67.7873
11
82.0107
21
-67.7874
0
LINE
8
BLACK
6
CONTINUOUS
10
82.0107
20
-67.7874
11
81.7249
21
-67.7874
0
LINE
8
BLACK
6
CONTINUOUS
10
81.7249
20
-67.7874
11
81.7246
21
-67.7874
0
LINE
8
BLACK
6
CONTINUOUS
10
81.7246
20
-67.7874
11
81.7239
21
-67.7873
0
LINE
8
BLACK
6
CONTINUOUS
10
81.7239
20
-67.7873
11
81.7231
21
-67.7873
0
LINE
8
BLACK
6
CONTINUOUS
10
81.7231
20
-67.7873
11
81.7215
21
-67.787
0
LINE
8
BLACK
6
CONTINUOUS
10
81.7215
20
-67.787
11
81.7197
21
-67.7868
0
LINE
8
BLACK
6
CONTINUOUS
10
81.7197
20
-67.7868
11
81.719
21
-67.7866
0
LINE
8
BLACK
6
CONTINUOUS
10
81.719
20
-67.7866
11
81.7183
21
-67.7865
0
LINE
8
BLACK
6
CONTINUOUS
10
81.7183
20
-67.7865
11
81.7167
21
-67.7859
0
LINE
8
BLACK
6
CONTINUOUS
10
81.7167
20
-67.7859
11
81.7151
21
-67.7854
0
LINE
8
BLACK
6
CONTINUOUS
10
81.7151
20
-67.7854
11
81.7145
21
-67.785
0
LINE
8
BLACK
6
CONTINUOUS
10
81.7145
20
-67.785
11
81.7138
21
-67.7847
0
LINE
8
BLACK
6
CONTINUOUS
10
81.7138
20
-67.7847
11
81.6185
21
-67.7371
0
LINE
8
BLACK
6
CONTINUOUS
10
81.6185
20
-67.7371
11
81.6182
21
-67.737
0
LINE
8
BLACK
6
CONTINUOUS
10
81.6182
20
-67.737
11
81.617
21
-67.7362
0
LINE
8
BLACK
6
CONTINUOUS
10
81.617
20
-67.7362
11
81.6158
21
-67.7355
0
LINE
8
BLACK
6
CONTINUOUS
10
81.6158
20
-67.7355
11
81.615
21
-67.7349
0
LINE
8
BLACK
6
CONTINUOUS
10
81.615
20
-67.7349
11
81.6141
21
-67.7343
0
LINE
8
BLACK
6
CONTINUOUS
10
81.6141
20
-67.7343
11
81.6131
21
-67.7333
0
LINE
8
BLACK
6
CONTINUOUS
10
81.6131
20
-67.7333
11
81.612
21
-67.7324
0
LINE
8
BLACK
6
CONTINUOUS
10
81.612
20
-67.7324
11
81.5644
21
-67.6848
0
LINE
8
BLACK
6
CONTINUOUS
10
81.5644
20
-67.6848
11
81.5642
21
-67.6846
0
LINE
8
BLACK
6
CONTINUOUS
10
81.5642
20
-67.6846
11
81.5611
21
-67.6808
0
LINE
8
BLACK
6
CONTINUOUS
10
81.5611
20
-67.6808
11
81.5589
21
-67.6764
0
LINE
8
BLACK
6
CONTINUOUS
10
81.5589
20
-67.6764
11
81.5575
21
-67.6717
0
LINE
8
BLACK
6
CONTINUOUS
10
81.5575
20
-67.6717
11
81.5571
21
-67.6669
0
LINE
8
BLACK
6
CONTINUOUS
10
81.5571
20
-67.6669
11
81.5576
21
-67.662
0
LINE
8
BLACK
6
CONTINUOUS
10
81.5576
20
-67.662
11
81.5591
21
-67.6574
0
LINE
8
BLACK
6
CONTINUOUS
10
81.5591
20
-67.6574
11
81.5614
21
-67.6531
0
LINE
8
BLACK
6
CONTINUOUS
10
81.5614
20
-67.6531
11
81.5645
21
-67.6493
0
LINE
8
BLACK
6
CONTINUOUS
10
81.5645
20
-67.6493
11
81.5683
21
-67.6463
0
LINE
8
BLACK
6
CONTINUOUS
10
81.5683
20
-67.6463
11
81.5726
21
-67.644
0
LINE
8
BLACK
6
CONTINUOUS
10
81.5726
20
-67.644
11
81.5773
21
-67.6426
0
LINE
8
BLACK
6
CONTINUOUS
10
81.5773
20
-67.6426
11
81.5822
21
-67.6421
0
LINE
8
BLACK
6
CONTINUOUS
10
81.5822
20
-67.6421
11
81.587
21
-67.6426
0
LINE
8
BLACK
6
CONTINUOUS
10
81.587
20
-67.6426
11
81.5917
21
-67.6441
0
LINE
8
BLACK
6
CONTINUOUS
10
81.5917
20
-67.6441
11
81.596
21
-67.6464
0
LINE
8
BLACK
6
CONTINUOUS
10
81.596
20
-67.6464
11
81.5998
21
-67.6495
0
LINE
8
BLACK
6
CONTINUOUS
10
81.5998
20
-67.6495
11
81.6445
21
-67.6942
0
LINE
8
BLACK
6
CONTINUOUS
10
81.6445
20
-67.6942
11
81.7308
21
-67.7374
0
LINE
8
BLACK
6
CONTINUOUS
10
81.7308
20
-67.7374
11
82.0048
21
-67.7374
0
LINE
8
BLACK
6
CONTINUOUS
10
82.0048
20
-67.7374
11
82.0911
21
-67.6942
0
LINE
8
BLACK
6
CONTINUOUS
10
82.0911
20
-67.6942
11
82.133
21
-67.6523
0
LINE
8
BLACK
6
CONTINUOUS
10
82.133
20
-67.6523
11
82.1761
21
-67.566
0
LINE
8
BLACK
6
CONTINUOUS
10
82.1761
20
-67.566
11
82.1761
21
-67.3397
0
LINE
8
BLACK
6
CONTINUOUS
10
82.1761
20
-67.3397
11
82.133
21
-67.2534
0
LINE
8
BLACK
6
CONTINUOUS
10
82.133
20
-67.2534
11
82.0911
21
-67.2115
0
LINE
8
BLACK
6
CONTINUOUS
10
82.0911
20
-67.2115
11
82.0048
21
-67.1683
0
LINE
8
BLACK
6
CONTINUOUS
10
82.0048
20
-67.1683
11
81.8678
21
-67.1683
0
LINE
8
BLACK
6
CONTINUOUS
10
81.8678
20
-67.1683
11
81.8675
21
-67.1683
0
LINE
8
BLACK
6
CONTINUOUS
10
81.8675
20
-67.1683
11
81.8659
21
-67.1682
0
LINE
8
BLACK
6
CONTINUOUS
10
81.8659
20
-67.1682
11
81.8643
21
-67.1681
0
LINE
8
BLACK
6
CONTINUOUS
10
81.8643
20
-67.1681
11
81.8635
21
-67.1679
0
LINE
8
BLACK
6
CONTINUOUS
10
81.8635
20
-67.1679
11
81.8626
21
-67.1678
0
LINE
8
BLACK
6
CONTINUOUS
10
81.8626
20
-67.1678
11
81.8611
21
-67.1673
0
LINE
8
BLACK
6
CONTINUOUS
10
81.8611
20
-67.1673
11
81.8596
21
-67.1669
0
LINE
8
BLACK
6
CONTINUOUS
10
81.8596
20
-67.1669
11
81.8588
21
-67.1666
0
LINE
8
BLACK
6
CONTINUOUS
10
81.8588
20
-67.1666
11
81.858
21
-67.1663
0
LINE
8
BLACK
6
CONTINUOUS
10
81.858
20
-67.1663
11
81.8566
21
-67.1656
0
LINE
8
BLACK
6
CONTINUOUS
10
81.8566
20
-67.1656
11
81.8552
21
-67.1649
0
LINE
8
BLACK
6
CONTINUOUS
10
81.8552
20
-67.1649
11
81.8544
21
-67.1644
0
LINE
8
BLACK
6
CONTINUOUS
10
81.8544
20
-67.1644
11
81.8537
21
-67.164
0
LINE
8
BLACK
6
CONTINUOUS
10
81.8537
20
-67.164
11
81.8525
21
-67.1629
0
LINE
8
BLACK
6
CONTINUOUS
10
81.8525
20
-67.1629
11
81.8512
21
-67.162
0
LINE
8
BLACK
6
CONTINUOUS
10
81.8512
20
-67.162
11
81.8506
21
-67.1614
0
LINE
8
BLACK
6
CONTINUOUS
10
81.8506
20
-67.1614
11
81.8499
21
-67.1608
0
LINE
8
BLACK
6
CONTINUOUS
10
81.8499
20
-67.1608
11
81.849
21
-67.1596
0
LINE
8
BLACK
6
CONTINUOUS
10
81.849
20
-67.1596
11
81.8479
21
-67.1585
0
LINE
8
BLACK
6
CONTINUOUS
10
81.8479
20
-67.1585
11
81.8474
21
-67.1577
0
LINE
8
BLACK
6
CONTINUOUS
10
81.8474
20
-67.1577
11
81.8469
21
-67.157
0
LINE
8
BLACK
6
CONTINUOUS
10
81.8469
20
-67.157
11
81.8462
21
-67.1556
0
LINE
8
BLACK
6
CONTINUOUS
10
81.8462
20
-67.1556
11
81.8453
21
-67.1543
0
LINE
8
BLACK
6
CONTINUOUS
10
81.8453
20
-67.1543
11
81.845
21
-67.1535
0
LINE
8
BLACK
6
CONTINUOUS
10
81.845
20
-67.1535
11
81.8446
21
-67.1527
0
LINE
8
BLACK
6
CONTINUOUS
10
81.8446
20
-67.1527
11
81.8442
21
-67.1512
0
LINE
8
BLACK
6
CONTINUOUS
10
81.8442
20
-67.1512
11
81.8436
21
-67.1497
0
LINE
8
BLACK
6
CONTINUOUS
10
81.8436
20
-67.1497
11
81.8435
21
-67.1489
0
LINE
8
BLACK
6
CONTINUOUS
10
81.8435
20
-67.1489
11
81.8432
21
-67.148
0
LINE
8
BLACK
6
CONTINUOUS
10
81.8432
20
-67.148
11
81.8431
21
-67.1465
0
LINE
8
BLACK
6
CONTINUOUS
10
81.8431
20
-67.1465
11
81.8428
21
-67.1449
0
LINE
8
BLACK
6
CONTINUOUS
10
81.8428
20
-67.1449
11
81.8429
21
-67.144
0
LINE
8
BLACK
6
CONTINUOUS
10
81.8429
20
-67.144
11
81.8428
21
-67.1432
0
LINE
8
BLACK
6
CONTINUOUS
10
81.8428
20
-67.1432
11
81.843
21
-67.1416
0
LINE
8
BLACK
6
CONTINUOUS
10
81.843
20
-67.1416
11
81.843
21
-67.14
0
LINE
8
BLACK
6
CONTINUOUS
10
81.843
20
-67.14
11
81.8432
21
-67.1392
0
LINE
8
BLACK
6
CONTINUOUS
10
81.8432
20
-67.1392
11
81.8433
21
-67.1383
0
LINE
8
BLACK
6
CONTINUOUS
10
81.8433
20
-67.1383
11
81.8438
21
-67.1368
0
LINE
8
BLACK
6
CONTINUOUS
10
81.8438
20
-67.1368
11
81.8441
21
-67.1353
0
LINE
8
BLACK
6
CONTINUOUS
10
81.8441
20
-67.1353
11
81.8445
21
-67.1345
0
LINE
8
BLACK
6
CONTINUOUS
10
81.8445
20
-67.1345
11
81.8448
21
-67.1336
0
LINE
8
BLACK
6
CONTINUOUS
10
81.8448
20
-67.1336
11
81.8455
21
-67.1323
0
LINE
8
BLACK
6
CONTINUOUS
10
81.8455
20
-67.1323
11
81.8461
21
-67.1308
0
LINE
8
BLACK
6
CONTINUOUS
10
81.8461
20
-67.1308
11
81.8467
21
-67.1301
0
LINE
8
BLACK
6
CONTINUOUS
10
81.8467
20
-67.1301
11
81.8471
21
-67.1294
0
LINE
8
BLACK
6
CONTINUOUS
10
81.8471
20
-67.1294
11
81.8481
21
-67.1281
0
LINE
8
BLACK
6
CONTINUOUS
10
81.8481
20
-67.1281
11
81.849
21
-67.1269
0
LINE
8
BLACK
6
CONTINUOUS
10
81.849
20
-67.1269
11
82.146
21
-66.7874
0
LINE
8
BLACK
6
CONTINUOUS
10
82.146
20
-66.7874
11
81.5821
21
-66.7874
0
LINE
8
BLACK
6
CONTINUOUS
10
81.5821
20
-66.7874
11
81.5817
21
-66.7874
0
LINE
8
BLACK
6
CONTINUOUS
10
81.5817
20
-66.7874
11
81.5769
21
-66.7868
0
LINE
8
BLACK
6
CONTINUOUS
10
81.5769
20
-66.7868
11
81.5722
21
-66.7854
0
LINE
8
BLACK
6
CONTINUOUS
10
81.5722
20
-66.7854
11
81.568
21
-66.783
0
LINE
8
BLACK
6
CONTINUOUS
10
81.568
20
-66.783
11
81.5642
21
-66.7799
0
LINE
8
BLACK
6
CONTINUOUS
10
81.5642
20
-66.7799
11
81.5612
21
-66.7761
0
LINE
8
BLACK
6
CONTINUOUS
10
81.5612
20
-66.7761
11
81.5589
21
-66.7717
0
LINE
8
BLACK
6
CONTINUOUS
10
81.5589
20
-66.7717
11
81.5575
21
-66.7671
0
LINE
8
BLACK
6
CONTINUOUS
10
81.5575
20
-66.7671
11
81.5571
21
-66.7622
0
LINE
8
BLACK
6
CONTINUOUS
10
81.5571
20
-66.7622
11
81.5576
21
-66.7574
0
LINE
8
BLACK
6
CONTINUOUS
10
81.5576
20
-66.7574
11
81.559
21
-66.7527
0
LINE
8
BLACK
6
CONTINUOUS
10
81.559
20
-66.7527
11
81.5614
21
-66.7484
0
LINE
8
BLACK
6
CONTINUOUS
10
81.5614
20
-66.7484
11
81.5645
21
-66.7446
0
LINE
8
BLACK
6
CONTINUOUS
10
81.5645
20
-66.7446
11
81.5683
21
-66.7416
0
LINE
8
BLACK
6
CONTINUOUS
10
81.5683
20
-66.7416
11
81.5726
21
-66.7393
0
LINE
8
BLACK
6
CONTINUOUS
10
81.5726
20
-66.7393
11
81.5772
21
-66.7379
0
LINE
8
BLACK
6
CONTINUOUS
10
81.5772
20
-66.7379
11
81.5821
21
-66.7374
0
LINE
8
BLACK
6
CONTINUOUS
10
81.5821
20
-66.7374
11
82.2011
21
-66.7374
0
LINE
8
BLACK
6
CONTINUOUS
10
82.2011
20
-66.7374
11
82.2015
21
-66.7374
0
LINE
8
BLACK
6
CONTINUOUS
10
79.4696
20
-66.7374
11
79.4703
21
-66.7375
0
LINE
8
BLACK
6
CONTINUOUS
10
79.4703
20
-66.7375
11
79.4711
21
-66.7374
0
LINE
8
BLACK
6
CONTINUOUS
10
79.4711
20
-66.7374
11
79.4727
21
-66.7377
0
LINE
8
BLACK
6
CONTINUOUS
10
79.4727
20
-66.7377
11
79.4744
21
-66.7379
0
LINE
8
BLACK
6
CONTINUOUS
10
79.4744
20
-66.7379
11
79.4751
21
-66.7381
0
LINE
8
BLACK
6
CONTINUOUS
10
79.4751
20
-66.7381
11
79.4759
21
-66.7383
0
LINE
8
BLACK
6
CONTINUOUS
10
79.4759
20
-66.7383
11
79.4775
21
-66.7389
0
LINE
8
BLACK
6
CONTINUOUS
10
79.4775
20
-66.7389
11
79.4791
21
-66.7394
0
LINE
8
BLACK
6
CONTINUOUS
10
79.4791
20
-66.7394
11
79.4797
21
-66.7398
0
LINE
8
BLACK
6
CONTINUOUS
10
79.4797
20
-66.7398
11
79.4804
21
-66.74
0
LINE
8
BLACK
6
CONTINUOUS
10
79.4804
20
-66.74
11
79.5757
21
-66.7876
0
LINE
8
BLACK
6
CONTINUOUS
10
79.5757
20
-66.7876
11
79.576
21
-66.7878
0
LINE
8
BLACK
6
CONTINUOUS
10
79.576
20
-66.7878
11
79.5772
21
-66.7886
0
LINE
8
BLACK
6
CONTINUOUS
10
79.5772
20
-66.7886
11
79.5784
21
-66.7892
0
LINE
8
BLACK
6
CONTINUOUS
10
79.5784
20
-66.7892
11
79.5792
21
-66.7899
0
LINE
8
BLACK
6
CONTINUOUS
10
79.5792
20
-66.7899
11
79.5801
21
-66.7905
0
LINE
8
BLACK
6
CONTINUOUS
10
79.5801
20
-66.7905
11
79.5811
21
-66.7914
0
LINE
8
BLACK
6
CONTINUOUS
10
79.5811
20
-66.7914
11
79.5822
21
-66.7923
0
LINE
8
BLACK
6
CONTINUOUS
10
79.5822
20
-66.7923
11
79.6298
21
-66.8399
0
LINE
8
BLACK
6
CONTINUOUS
10
79.6298
20
-66.8399
11
79.63
21
-66.8402
0
LINE
8
BLACK
6
CONTINUOUS
10
79.63
20
-66.8402
11
79.6309
21
-66.8413
0
LINE
8
BLACK
6
CONTINUOUS
10
79.6309
20
-66.8413
11
79.6319
21
-66.8423
0
LINE
8
BLACK
6
CONTINUOUS
10
79.6319
20
-66.8423
11
79.6324
21
-66.8432
0
LINE
8
BLACK
6
CONTINUOUS
10
79.6324
20
-66.8432
11
79.6331
21
-66.844
0
LINE
8
BLACK
6
CONTINUOUS
10
79.6331
20
-66.844
11
79.6337
21
-66.8452
0
LINE
8
BLACK
6
CONTINUOUS
10
79.6337
20
-66.8452
11
79.6345
21
-66.8464
0
LINE
8
BLACK
6
CONTINUOUS
10
79.6345
20
-66.8464
11
79.6821
21
-66.9417
0
LINE
8
BLACK
6
CONTINUOUS
10
79.6821
20
-66.9417
11
79.6822
21
-66.942
0
LINE
8
BLACK
6
CONTINUOUS
10
79.6822
20
-66.942
11
79.6825
21
-66.9427
0
LINE
8
BLACK
6
CONTINUOUS
10
79.6825
20
-66.9427
11
79.6828
21
-66.9433
0
LINE
8
BLACK
6
CONTINUOUS
10
79.6828
20
-66.9433
11
79.6833
21
-66.945
0
LINE
8
BLACK
6
CONTINUOUS
10
79.6833
20
-66.945
11
79.6839
21
-66.9466
0
LINE
8
BLACK
6
CONTINUOUS
10
79.6839
20
-66.9466
11
79.684
21
-66.9473
0
LINE
8
BLACK
6
CONTINUOUS
10
79.684
20
-66.9473
11
79.6842
21
-66.948
0
LINE
8
BLACK
6
CONTINUOUS
10
79.6842
20
-66.948
11
79.6844
21
-66.9497
0
LINE
8
BLACK
6
CONTINUOUS
10
79.6844
20
-66.9497
11
79.6847
21
-66.9514
0
LINE
8
BLACK
6
CONTINUOUS
10
79.6847
20
-66.9514
11
79.6846
21
-66.9521
0
LINE
8
BLACK
6
CONTINUOUS
10
79.6846
20
-66.9521
11
79.6847
21
-66.9529
0
LINE
8
BLACK
6
CONTINUOUS
10
79.6847
20
-66.9529
11
79.6847
21
-67.0481
0
LINE
8
BLACK
6
CONTINUOUS
10
79.6847
20
-67.0481
11
79.6847
21
-67.0484
0
LINE
8
BLACK
6
CONTINUOUS
10
79.6847
20
-67.0484
11
79.6846
21
-67.0498
0
LINE
8
BLACK
6
CONTINUOUS
10
79.6846
20
-67.0498
11
79.6845
21
-67.0512
0
LINE
8
BLACK
6
CONTINUOUS
10
79.6845
20
-67.0512
11
79.6843
21
-67.0523
0
LINE
8
BLACK
6
CONTINUOUS
10
79.6843
20
-67.0523
11
79.6842
21
-67.0533
0
LINE
8
BLACK
6
CONTINUOUS
10
79.6842
20
-67.0533
11
79.6838
21
-67.0546
0
LINE
8
BLACK
6
CONTINUOUS
10
79.6838
20
-67.0546
11
79.6834
21
-67.056
0
LINE
8
BLACK
6
CONTINUOUS
10
79.6834
20
-67.056
11
79.6358
21
-67.1989
0
LINE
8
BLACK
6
CONTINUOUS
10
79.6358
20
-67.1989
11
79.6357
21
-67.1992
0
LINE
8
BLACK
6
CONTINUOUS
10
79.6357
20
-67.1992
11
79.6354
21
-67.1999
0
LINE
8
BLACK
6
CONTINUOUS
10
79.6354
20
-67.1999
11
79.6352
21
-67.2006
0
LINE
8
BLACK
6
CONTINUOUS
10
79.6352
20
-67.2006
11
79.6344
21
-67.2021
0
LINE
8
BLACK
6
CONTINUOUS
10
79.6344
20
-67.2021
11
79.6337
21
-67.2036
0
LINE
8
BLACK
6
CONTINUOUS
10
79.6337
20
-67.2036
11
79.6332
21
-67.2042
0
LINE
8
BLACK
6
CONTINUOUS
10
79.6332
20
-67.2042
11
79.6329
21
-67.2049
0
LINE
8
BLACK
6
CONTINUOUS
10
79.6329
20
-67.2049
11
79.6318
21
-67.2062
0
LINE
8
BLACK
6
CONTINUOUS
10
79.6318
20
-67.2062
11
79.6308
21
-67.2076
0
LINE
8
BLACK
6
CONTINUOUS
10
79.6308
20
-67.2076
11
79.6302
21
-67.2081
0
LINE
8
BLACK
6
CONTINUOUS
10
79.6302
20
-67.2081
11
79.6298
21
-67.2086
0
LINE
8
BLACK
6
CONTINUOUS
10
79.6298
20
-67.2086
11
79.101
21
-67.7374
0
LINE
8
BLACK
6
CONTINUOUS
10
79.101
20
-67.7374
11
79.6597
21
-67.7374
0
LINE
8
BLACK
6
CONTINUOUS
10
79.6597
20
-67.7374
11
79.6601
21
-67.7374
0
LINE
8
BLACK
6
CONTINUOUS
10
79.6601
20
-67.7374
11
79.6649
21
-67.7379
0
LINE
8
BLACK
6
CONTINUOUS
10
79.6649
20
-67.7379
11
79.6696
21
-67.7394
0
LINE
8
BLACK
6
CONTINUOUS
10
79.6696
20
-67.7394
11
79.6738
21
-67.7418
0
LINE
8
BLACK
6
CONTINUOUS
10
79.6738
20
-67.7418
11
79.6776
21
-67.7449
0
LINE
8
BLACK
6
CONTINUOUS
10
79.6776
20
-67.7449
11
79.6806
21
-67.7487
0
LINE
8
BLACK
6
CONTINUOUS
10
79.6806
20
-67.7487
11
79.6829
21
-67.753
0
LINE
8
BLACK
6
CONTINUOUS
10
79.6829
20
-67.753
11
79.6843
21
-67.7577
0
LINE
8
BLACK
6
CONTINUOUS
10
79.6843
20
-67.7577
11
79.6847
21
-67.7626
0
LINE
8
BLACK
6
CONTINUOUS
10
79.6847
20
-67.7626
11
79.6842
21
-67.7674
0
LINE
8
BLACK
6
CONTINUOUS
10
79.6842
20
-67.7674
11
79.6828
21
-67.7721
0
LINE
8
BLACK
6
CONTINUOUS
10
79.6828
20
-67.7721
11
79.6804
21
-67.7764
0
LINE
8
BLACK
6
CONTINUOUS
10
79.6804
20
-67.7764
11
79.6773
21
-67.7801
0
LINE
8
BLACK
6
CONTINUOUS
10
79.6773
20
-67.7801
11
79.6736
21
-67.7832
0
LINE
8
BLACK
6
CONTINUOUS
10
79.6736
20
-67.7832
11
79.6692
21
-67.7855
0
LINE
8
BLACK
6
CONTINUOUS
10
79.6692
20
-67.7855
11
79.6646
21
-67.7869
0
LINE
8
BLACK
6
CONTINUOUS
10
79.6646
20
-67.7869
11
79.6597
21
-67.7874
0
LINE
8
BLACK
6
CONTINUOUS
10
79.6597
20
-67.7874
11
79.0407
21
-67.7874
0
LINE
8
BLACK
6
CONTINUOUS
10
79.0407
20
-67.7874
11
79.0404
21
-67.7874
0
LINE
8
BLACK
6
CONTINUOUS
10
79.0404
20
-67.7874
11
79.0404
21
-67.7874
0
LINE
8
BLACK
6
CONTINUOUS
10
79.0404
20
-67.7874
11
79.0404
21
-67.7874
0
LINE
8
BLACK
6
CONTINUOUS
10
79.0404
20
-67.7874
11
79.0403
21
-67.7874
0
LINE
8
BLACK
6
CONTINUOUS
10
79.0403
20
-67.7874
11
79.0379
21
-67.7871
0
LINE
8
BLACK
6
CONTINUOUS
10
79.0379
20
-67.7871
11
79.0356
21
-67.7869
0
LINE
8
BLACK
6
CONTINUOUS
10
79.0356
20
-67.7869
11
79.0355
21
-67.7868
0
LINE
8
BLACK
6
CONTINUOUS
10
79.0355
20
-67.7868
11
79.0355
21
-67.7868
0
LINE
8
BLACK
6
CONTINUOUS
10
79.0355
20
-67.7868
11
79.0333
21
-67.7861
0
LINE
8
BLACK
6
CONTINUOUS
10
79.0333
20
-67.7861
11
79.0309
21
-67.7854
0
LINE
8
BLACK
6
CONTINUOUS
10
79.0309
20
-67.7854
11
79.0309
21
-67.7854
0
LINE
8
BLACK
6
CONTINUOUS
10
79.0309
20
-67.7854
11
79.0308
21
-67.7854
0
LINE
8
BLACK
6
CONTINUOUS
10
79.0308
20
-67.7854
11
79.0288
21
-67.7843
0
LINE
8
BLACK
6
CONTINUOUS
10
79.0288
20
-67.7843
11
79.0266
21
-67.7831
0
LINE
8
BLACK
6
CONTINUOUS
10
79.0266
20
-67.7831
11
79.0266
21
-67.783
0
LINE
8
BLACK
6
CONTINUOUS
10
79.0266
20
-67.783
11
79.0265
21
-67.783
0
LINE
8
BLACK
6
CONTINUOUS
10
79.0265
20
-67.783
11
79.0246
21
-67.7814
0
LINE
8
BLACK
6
CONTINUOUS
10
79.0246
20
-67.7814
11
79.0229
21
-67.7799
0
LINE
8
BLACK
6
CONTINUOUS
10
79.0229
20
-67.7799
11
79.0228
21
-67.7799
0
LINE
8
BLACK
6
CONTINUOUS
10
79.0228
20
-67.7799
11
79.0228
21
-67.7799
0
LINE
8
BLACK
6
CONTINUOUS
10
79.0228
20
-67.7799
11
79.0212
21
-67.7779
0
LINE
8
BLACK
6
CONTINUOUS
10
79.0212
20
-67.7779
11
79.0198
21
-67.7761
0
LINE
8
BLACK
6
CONTINUOUS
10
79.0198
20
-67.7761
11
79.0198
21
-67.7761
0
LINE
8
BLACK
6
CONTINUOUS
10
79.0198
20
-67.7761
11
79.0198
21
-67.7761
0
LINE
8
BLACK
6
CONTINUOUS
10
79.0198
20
-67.7761
11
79.0186
21
-67.7739
0
LINE
8
BLACK
6
CONTINUOUS
10
79.0186
20
-67.7739
11
79.0175
21
-67.7718
0
LINE
8
BLACK
6
CONTINUOUS
10
79.0175
20
-67.7718
11
79.0175
21
-67.7718
0
LINE
8
BLACK
6
CONTINUOUS
10
79.0175
20
-67.7718
11
79.0175
21
-67.7717
0
LINE
8
BLACK
6
CONTINUOUS
10
79.0175
20
-67.7717
11
79.0168
21
-67.7695
0
LINE
8
BLACK
6
CONTINUOUS
10
79.0168
20
-67.7695
11
79.0161
21
-67.7672
0
LINE
8
BLACK
6
CONTINUOUS
10
79.0161
20
-67.7672
11
79.0161
21
-67.7671
0
LINE
8
BLACK
6
CONTINUOUS
10
79.0161
20
-67.7671
11
79.0161
21
-67.7671
0
LINE
8
BLACK
6
CONTINUOUS
10
79.0161
20
-67.7671
11
79.0159
21
-67.7648
0
LINE
8
BLACK
6
CONTINUOUS
10
79.0159
20
-67.7648
11
79.0157
21
-67.7623
0
LINE
8
BLACK
6
CONTINUOUS
10
79.0157
20
-67.7623
11
79.0157
21
-67.7622
0
LINE
8
BLACK
6
CONTINUOUS
10
79.0157
20
-67.7622
11
79.0157
21
-67.7622
0
LINE
8
BLACK
6
CONTINUOUS
10
79.0157
20
-67.7622
11
79.0159
21
-67.76
0
LINE
8
BLACK
6
CONTINUOUS
10
79.0159
20
-67.76
11
79.0162
21
-67.7574
0
LINE
8
BLACK
6
CONTINUOUS
10
79.0162
20
-67.7574
11
79.0162
21
-67.7574
0
LINE
8
BLACK
6
CONTINUOUS
10
79.0162
20
-67.7574
11
79.0162
21
-67.7574
0
LINE
8
BLACK
6
CONTINUOUS
10
79.0162
20
-67.7574
11
79.0169
21
-67.7552
0
LINE
8
BLACK
6
CONTINUOUS
10
79.0169
20
-67.7552
11
79.0176
21
-67.7528
0
LINE
8
BLACK
6
CONTINUOUS
10
79.0176
20
-67.7528
11
79.0176
21
-67.7527
0
LINE
8
BLACK
6
CONTINUOUS
10
79.0176
20
-67.7527
11
79.0176
21
-67.7527
0
LINE
8
BLACK
6
CONTINUOUS
10
79.0176
20
-67.7527
11
79.0188
21
-67.7506
0
LINE
8
BLACK
6
CONTINUOUS
10
79.0188
20
-67.7506
11
79.0199
21
-67.7485
0
LINE
8
BLACK
6
CONTINUOUS
10
79.0199
20
-67.7485
11
79.0199
21
-67.7484
0
LINE
8
BLACK
6
CONTINUOUS
10
79.0199
20
-67.7484
11
79.0199
21
-67.7484
0
LINE
8
BLACK
6
CONTINUOUS
10
79.0199
20
-67.7484
11
79.0214
21
-67.7466
0
LINE
8
BLACK
6
CONTINUOUS
10
79.0214
20
-67.7466
11
79.023
21
-67.7447
0
LINE
8
BLACK
6
CONTINUOUS
10
79.023
20
-67.7447
11
79.5903
21
-67.1774
0
LINE
8
BLACK
6
CONTINUOUS
10
79.5903
20
-67.1774
11
79.6347
21
-67.044
0
LINE
8
BLACK
6
CONTINUOUS
10
79.6347
20
-67.044
11
79.6347
21
-66.9588
0
LINE
8
BLACK
6
CONTINUOUS
10
79.6347
20
-66.9588
11
79.5916
21
-66.8724
0
LINE
8
BLACK
6
CONTINUOUS
10
79.5916
20
-66.8724
11
79.5497
21
-66.8305
0
LINE
8
BLACK
6
CONTINUOUS
10
79.5497
20
-66.8305
11
79.4633
21
-66.7874
0
LINE
8
BLACK
6
CONTINUOUS
10
79.4633
20
-66.7874
11
79.237
21
-66.7874
0
LINE
8
BLACK
6
CONTINUOUS
10
79.237
20
-66.7874
11
79.1507
21
-66.8305
0
LINE
8
BLACK
6
CONTINUOUS
10
79.1507
20
-66.8305
11
79.106
21
-66.8753
0
LINE
8
BLACK
6
CONTINUOUS
10
79.106
20
-66.8753
11
79.1057
21
-66.8755
0
LINE
8
BLACK
6
CONTINUOUS
10
79.1057
20
-66.8755
11
79.1019
21
-66.8786
0
LINE
8
BLACK
6
CONTINUOUS
10
79.1019
20
-66.8786
11
79.0976
21
-66.8808
0
LINE
8
BLACK
6
CONTINUOUS
10
79.0976
20
-66.8808
11
79.0929
21
-66.8822
0
LINE
8
BLACK
6
CONTINUOUS
10
79.0929
20
-66.8822
11
79.088
21
-66.8826
0
LINE
8
BLACK
6
CONTINUOUS
10
79.088
20
-66.8826
11
79.0832
21
-66.8821
0
LINE
8
BLACK
6
CONTINUOUS
10
79.0832
20
-66.8821
11
79.0785
21
-66.8806
0
LINE
8
BLACK
6
CONTINUOUS
10
79.0785
20
-66.8806
11
79.0742
21
-66.8783
0
LINE
8
BLACK
6
CONTINUOUS
10
79.0742
20
-66.8783
11
79.0705
21
-66.8752
0
LINE
8
BLACK
6
CONTINUOUS
10
79.0705
20
-66.8752
11
79.0674
21
-66.8714
0
LINE
8
BLACK
6
CONTINUOUS
10
79.0674
20
-66.8714
11
79.0651
21
-66.8671
0
LINE
8
BLACK
6
CONTINUOUS
10
79.0651
20
-66.8671
11
79.0638
21
-66.8624
0
LINE
8
BLACK
6
CONTINUOUS
10
79.0638
20
-66.8624
11
79.0633
21
-66.8575
0
LINE
8
BLACK
6
CONTINUOUS
10
79.0633
20
-66.8575
11
79.0638
21
-66.8527
0
LINE
8
BLACK
6
CONTINUOUS
10
79.0638
20
-66.8527
11
79.0652
21
-66.848
0
LINE
8
BLACK
6
CONTINUOUS
10
79.0652
20
-66.848
11
79.0675
21
-66.8437
0
LINE
8
BLACK
6
CONTINUOUS
10
79.0675
20
-66.8437
11
79.0706
21
-66.8399
0
LINE
8
BLACK
6
CONTINUOUS
10
79.0706
20
-66.8399
11
79.1182
21
-66.7923
0
LINE
8
BLACK
6
CONTINUOUS
10
79.1182
20
-66.7923
11
79.1185
21
-66.7921
0
LINE
8
BLACK
6
CONTINUOUS
10
79.1185
20
-66.7921
11
79.1196
21
-66.7912
0
LINE
8
BLACK
6
CONTINUOUS
10
79.1196
20
-66.7912
11
79.1206
21
-66.7902
0
LINE
8
BLACK
6
CONTINUOUS
10
79.1206
20
-66.7902
11
79.1215
21
-66.7897
0
LINE
8
BLACK
6
CONTINUOUS
10
79.1215
20
-66.7897
11
79.1223
21
-66.789
0
LINE
8
BLACK
6
CONTINUOUS
10
79.1223
20
-66.789
11
79.1235
21
-66.7884
0
LINE
8
BLACK
6
CONTINUOUS
10
79.1235
20
-66.7884
11
79.1247
21
-66.7876
0
LINE
8
BLACK
6
CONTINUOUS
10
79.1247
20
-66.7876
11
79.22
21
-66.74
0
LINE
8
BLACK
6
CONTINUOUS
10
79.22
20
-66.74
11
79.2203
21
-66.7399
0
LINE
8
BLACK
6
CONTINUOUS
10
79.2203
20
-66.7399
11
79.221
21
-66.7396
0
LINE
8
BLACK
6
CONTINUOUS
10
79.221
20
-66.7396
11
79.2216
21
-66.7393
0
LINE
8
BLACK
6
CONTINUOUS
10
79.2216
20
-66.7393
11
79.2233
21
-66.7388
0
LINE
8
BLACK
6
CONTINUOUS
10
79.2233
20
-66.7388
11
79.2249
21
-66.7382
0
LINE
8
BLACK
6
CONTINUOUS
10
79.2249
20
-66.7382
11
79.2256
21
-66.7381
0
LINE
8
BLACK
6
CONTINUOUS
10
79.2256
20
-66.7381
11
79.2263
21
-66.7379
0
LINE
8
BLACK
6
CONTINUOUS
10
79.2263
20
-66.7379
11
79.228
21
-66.7377
0
LINE
8
BLACK
6
CONTINUOUS
10
79.228
20
-66.7377
11
79.2297
21
-66.7374
0
LINE
8
BLACK
6
CONTINUOUS
10
79.2297
20
-66.7374
11
79.2304
21
-66.7375
0
LINE
8
BLACK
6
CONTINUOUS
10
79.2304
20
-66.7375
11
79.2311
21
-66.7374
0
LINE
8
BLACK
6
CONTINUOUS
10
79.2311
20
-66.7374
11
79.4692
21
-66.7374
0
LINE
8
BLACK
6
CONTINUOUS
10
79.4692
20
-66.7374
11
79.4696
21
-66.7374
  0
ENDSEC
  0
EOF
