M48
; DRILL file {KiCad (5.1.2)-2} date 9/2/2019 3:00:42 PM
; FORMAT={2:4/ absolute / inch / suppress leading zeros}
; #@! TF.CreationDate,2019-09-02T15:00:42-07:00
; #@! TF.GenerationSoftware,Kicad,Pcbnew,(5.1.2)-2
FMAT,2
INCH,TZ
T1C0.0157
T2C0.0276
T3C0.0315
T4C0.0320
T5C0.0440
T6C0.0472
T7C0.0512
T8C0.0598
T9C0.1063
T10C0.1300
%
G90
G05
T1
X29500Y-30500
X29992Y-34008
X32000Y-30437
X33500Y-34168
X36000Y-34000
X38295Y-46205
X38500Y-43500
X46843Y-41343
X47169Y-40169
T2
X33500Y-31500
X33500Y-33500
X30500Y-31500
X30500Y-33500
X32000Y-31500
X32000Y-33500
X38000Y-31500
X38000Y-33500
X36500Y-31500
X36500Y-33500
X35000Y-31500
X35000Y-33500
T3
X31000Y-35016
X31000Y-36000
X36000Y-35016
X36000Y-36000
X33500Y-35016
X33500Y-36000
X39500Y-30500
X39500Y-31500
X39500Y-32500
X39500Y-33500
X39500Y-34500
X39500Y-35500
X39500Y-36500
X39500Y-37500
X39500Y-38500
X39500Y-39500
X39500Y-40500
X39500Y-41500
X39500Y-42500
X39500Y-43500
X39500Y-44500
X45500Y-30500
X45500Y-31500
X45500Y-32500
X45500Y-33500
X45500Y-34500
X45500Y-35500
X45500Y-36500
X45500Y-37500
X45500Y-38500
X45500Y-39500
X45500Y-40500
X45500Y-41500
X45500Y-42500
X45500Y-43500
X45500Y-44500
T4
X35000Y-38000
X35000Y-39000
X35000Y-40000
X35000Y-41000
X38000Y-38000
X38000Y-39000
X38000Y-40000
X38000Y-41000
T5
X30500Y-29000
X31500Y-29000
X32500Y-29000
T6
X30000Y-39500
X33000Y-39500
X49083Y-28815
X49083Y-29815
X49083Y-30815
X49083Y-31815
X49083Y-32815
X49083Y-33815
X49083Y-34815
X49083Y-35815
X49083Y-36815
X49083Y-37815
X49083Y-38815
X49083Y-39815
X49083Y-40815
X49083Y-41815
X49083Y-42850
X49083Y-43815
T7
X35031Y-43500
X36016Y-45469
X37000Y-43500
T8
X27000Y-31000
X27000Y-33000
X27000Y-36000
X27000Y-38000
T9
X49280Y-16453
X49280Y-45980
X61484Y-16453
X61484Y-45980
T10
X31500Y-22100
T0
M30
