G04 #@! TF.GenerationSoftware,KiCad,Pcbnew,(5.1.2)-2*
G04 #@! TF.CreationDate,2019-09-02T15:00:53-07:00*
G04 #@! TF.ProjectId,watt meter,77617474-206d-4657-9465-722e6b696361,rev?*
G04 #@! TF.SameCoordinates,Original*
G04 #@! TF.FileFunction,Profile,NP*
%FSLAX46Y46*%
G04 Gerber Fmt 4.6, Leading zero omitted, Abs format (unit mm)*
G04 Created by KiCad (PCBNEW (5.1.2)-2) date 2019-09-02 15:00:53*
%MOMM*%
%LPD*%
G04 APERTURE LIST*
%ADD10C,0.050000*%
G04 APERTURE END LIST*
D10*
X165100000Y-31750000D02*
X55880000Y-33020000D01*
X165100000Y-127000000D02*
X165100000Y-31750000D01*
X57150000Y-127000000D02*
X165100000Y-127000000D01*
X55880000Y-33020000D02*
X57150000Y-127000000D01*
X77114644Y-67762380D02*
X76543215Y-67762380D01*
X76828930Y-67762380D02*
X76828930Y-66762380D01*
X76733691Y-66905238D01*
X76638453Y-67000476D01*
X76543215Y-67048095D01*
X79088292Y-66857619D02*
X79135911Y-66810000D01*
X79231149Y-66762380D01*
X79469245Y-66762380D01*
X79564483Y-66810000D01*
X79612102Y-66857619D01*
X79659721Y-66952857D01*
X79659721Y-67048095D01*
X79612102Y-67190952D01*
X79040673Y-67762380D01*
X79659721Y-67762380D01*
X81582086Y-66762380D02*
X82201134Y-66762380D01*
X81867800Y-67143333D01*
X82010658Y-67143333D01*
X82105896Y-67190952D01*
X82153515Y-67238571D01*
X82201134Y-67333809D01*
X82201134Y-67571904D01*
X82153515Y-67667142D01*
X82105896Y-67714761D01*
X82010658Y-67762380D01*
X81724943Y-67762380D01*
X81629705Y-67714761D01*
X81582086Y-67667142D01*
M02*
