M48
; DRILL file {KiCad (5.1.2)-2} date 1/8/2020 10:24:04 AM
; FORMAT={2:4/ absolute / inch / suppress leading zeros}
; #@! TF.CreationDate,2020-01-08T10:24:04+07:00
; #@! TF.GenerationSoftware,Kicad,Pcbnew,(5.1.2)-2
FMAT,2
INCH,TZ
T1C0.0157
T2C0.0236
T3C0.0315
T4C0.0354
T5C0.0394
T6C0.0433
T7C0.0472
T8C0.0512
T9C0.0598
%
G90
G05
T1
X36700Y-18800
X39000Y-18800
T2
X47216Y-17784
X48716Y-17700
T3
X52216Y-16700
X53200Y-16700
X38100Y-17600
X38100Y-20600
X39100Y-17600
X39100Y-20600
X40100Y-17600
X40100Y-20600
X41100Y-17600
X41100Y-20600
X42100Y-17600
X42100Y-20600
X43100Y-17600
X43100Y-20600
X44100Y-17600
X44100Y-20600
X45100Y-17600
X45100Y-20600
X49716Y-16700
X50700Y-16700
X47216Y-16700
X48200Y-16700
T4
X50100Y-23000
X51100Y-23000
X46900Y-20400
X47900Y-20400
X44000Y-23000
X45000Y-23000
X38000Y-23000
X39000Y-23000
X41000Y-23000
X42000Y-23000
X47000Y-23000
X48000Y-23000
T5
X47600Y-14700
X48600Y-14700
X49600Y-14700
X34600Y-13200
X34600Y-14200
X34600Y-15200
X34600Y-16200
X34600Y-17200
X34600Y-18200
X34600Y-19200
X34600Y-20200
X34600Y-21200
X34600Y-22200
X34600Y-23200
X34600Y-24200
X34600Y-25200
X34600Y-26200
X34600Y-27200
X34600Y-28200
X34600Y-29200
X34600Y-30200
X34600Y-31200
X34600Y-32200
X35600Y-13200
X35600Y-14200
X35600Y-15200
X35600Y-16200
X35600Y-17200
X35600Y-18200
X35600Y-19200
X35600Y-20200
X35600Y-21200
X35600Y-22200
X35600Y-23200
X35600Y-24200
X35600Y-25200
X35600Y-26200
X35600Y-27200
X35600Y-28200
X35600Y-29200
X35600Y-30200
X35600Y-31200
X35600Y-32200
X51400Y-14700
X52400Y-14700
X53400Y-14700
T6
X56341Y-30028
X56341Y-31800
X58900Y-30028
X58900Y-31800
X50000Y-19400
X51000Y-19400
X52000Y-19400
X56341Y-17028
X56341Y-18800
X58900Y-17028
X58900Y-18800
X56341Y-20428
X56341Y-22200
X58900Y-20428
X58900Y-22200
X56335Y-26855
X56335Y-28626
X58894Y-26855
X58894Y-28626
X56300Y-23528
X56300Y-25300
X58859Y-23528
X58859Y-25300
T7
X51500Y-26000
X51500Y-32000
X53100Y-26000
X53100Y-32000
X44900Y-26000
X44900Y-32000
X38100Y-26000
X38100Y-32000
X48300Y-26000
X48300Y-32000
X54700Y-26000
X54700Y-32000
X43200Y-26000
X43200Y-32000
X49900Y-26000
X49900Y-32000
X39800Y-26000
X39800Y-32000
X46600Y-26000
X46600Y-32000
X41500Y-26000
X41500Y-32000
T8
X33100Y-11000
X33200Y-34000
X60500Y-34000
X60600Y-11100
T9
X38400Y-14900
X40400Y-14900
X56100Y-14500
X58100Y-14500
X42900Y-14900
X44900Y-14900
T0
M30
