  0
SECTION
  2
HEADER
  9
$ANGBASE
  50
0.0
  9
$ANGDIR
  70
  1
  9
$MEASUREMENT
  70
0
  0
ENDSEC
  0
SECTION
  2
TABLES
  0
TABLE
  2
LTYPE
  70
4
  0
LTYPE
  5
40F
  2
CONTINUOUS
  70
0
  3
Solid line
  72
65
  73
0
  40
0.0
  0
LTYPE
  5
410
  2
DASHDOT
 70
0
  3
Dash Dot ____ _ ____ _
 72
65
 73
4
 40
2.0
 49
1.25
 49
-0.25
 49
0.25
 49
-0.25
  0
LTYPE
  5
411
  2
DASHED
 70
0
  3
Dashed __ __ __ __ __
 72
65
 73
2
 40
0.75
 49
0.5
 49
-0.25
  0
LTYPE
  5
43B
  2
DOTTED
 70
0
  3
Dotted .  .  .  .
 72
65
 73
2
 40
0.2
 49
0.0
 49
-0.2
  0
ENDTAB
  0
TABLE
  2
STYLE
  70
4
  0
STYLE
  2
KICAD
  70
0
  40
0
  41
1
  42
1
  50
0
  71
0
  3
isocp.shx
  0
STYLE
  2
KICADB
  70
0
  40
0
  41
1
  42
1
  50
0
  71
0
  3
isocp.shx
  0
STYLE
  2
KICADI
  70
0
  40
0
  41
1
  42
1
  50
15
  71
0
  3
isocp.shx
  0
STYLE
  2
KICADBI
  70
0
  40
0
  41
1
  42
1
  50
15
  71
0
  3
isocp.shx
  0
ENDTAB
  0
TABLE
  2
LAYER
  70
30
  0
LAYER
  2
BLACK
  70
0
  62
7
  6
CONTINUOUS
  0
LAYER
  2
GRAY1
  70
0
  62
251
  6
CONTINUOUS
  0
LAYER
  2
GRAY2
  70
0
  62
8
  6
CONTINUOUS
  0
LAYER
  2
GRAY3
  70
0
  62
9
  6
CONTINUOUS
  0
LAYER
  2
WHITE
  70
0
  62
7
  6
CONTINUOUS
  0
LAYER
  2
LYELLOW
  70
0
  62
51
  6
CONTINUOUS
  0
LAYER
  2
BLUE1
  70
0
  62
178
  6
CONTINUOUS
  0
LAYER
  2
GREEN1
  70
0
  62
98
  6
CONTINUOUS
  0
LAYER
  2
CYAN1
  70
0
  62
138
  6
CONTINUOUS
  0
LAYER
  2
RED1
  70
0
  62
18
  6
CONTINUOUS
  0
LAYER
  2
MAGENTA1
  70
0
  62
228
  6
CONTINUOUS
  0
LAYER
  2
BROWN1
  70
0
  62
58
  6
CONTINUOUS
  0
LAYER
  2
BLUE2
  70
0
  62
5
  6
CONTINUOUS
  0
LAYER
  2
GREEN2
  70
0
  62
3
  6
CONTINUOUS
  0
LAYER
  2
CYAN2
  70
0
  62
4
  6
CONTINUOUS
  0
LAYER
  2
RED2
  70
0
  62
1
  6
CONTINUOUS
  0
LAYER
  2
MAGENTA2
  70
0
  62
6
  6
CONTINUOUS
  0
LAYER
  2
BROWN2
  70
0
  62
54
  6
CONTINUOUS
  0
LAYER
  2
BLUE3
  70
0
  62
171
  6
CONTINUOUS
  0
LAYER
  2
GREEN3
  70
0
  62
91
  6
CONTINUOUS
  0
LAYER
  2
CYAN3
  70
0
  62
131
  6
CONTINUOUS
  0
LAYER
  2
RED3
  70
0
  62
11
  6
CONTINUOUS
  0
LAYER
  2
MAGENTA3
  70
0
  62
221
  6
CONTINUOUS
  0
LAYER
  2
YELLOW3
  70
0
  62
2
  6
CONTINUOUS
  0
LAYER
  2
BLUE4
  70
0
  62
5
  6
CONTINUOUS
  0
LAYER
  2
GREEN4
  70
0
  62
3
  6
CONTINUOUS
  0
LAYER
  2
CYAN4
  70
0
  62
4
  6
CONTINUOUS
  0
LAYER
  2
RED4
  70
0
  62
1
  6
CONTINUOUS
  0
LAYER
  2
MAGENTA4
  70
0
  62
6
  6
CONTINUOUS
  0
LAYER
  2
YELLOW4
  70
0
  62
2
  6
CONTINUOUS
  0
ENDTAB
  0
ENDSEC
  0
SECTION
  2
ENTITIES
0
LINE
8
BLACK
6
CONTINUOUS
10
156.997
20
-88.646
11
156.997
21
-88.6509
0
LINE
8
BLACK
6
CONTINUOUS
10
156.997
20
-88.6509
11
156.995
21
-88.6556
0
LINE
8
BLACK
6
CONTINUOUS
10
156.995
20
-88.6556
11
156.993
21
-88.66
0
LINE
8
BLACK
6
CONTINUOUS
10
156.993
20
-88.66
11
156.99
21
-88.6638
0
LINE
8
BLACK
6
CONTINUOUS
10
156.99
20
-88.6638
11
156.986
21
-88.6669
0
LINE
8
BLACK
6
CONTINUOUS
10
156.986
20
-88.6669
11
156.982
21
-88.6692
0
LINE
8
BLACK
6
CONTINUOUS
10
156.982
20
-88.6692
11
156.977
21
-88.6706
0
LINE
8
BLACK
6
CONTINUOUS
10
156.977
20
-88.6706
11
156.973
21
-88.671
0
LINE
8
BLACK
6
CONTINUOUS
10
156.973
20
-88.671
11
156.973
21
-88.671
0
LINE
8
BLACK
6
CONTINUOUS
10
156.973
20
-88.671
11
156.972
21
-88.6711
0
LINE
8
BLACK
6
CONTINUOUS
10
156.972
20
-88.6711
11
156.971
21
-88.671
0
LINE
8
BLACK
6
CONTINUOUS
10
156.971
20
-88.671
11
81.5352
21
-88.671
0
LINE
8
BLACK
6
CONTINUOUS
10
81.5352
20
-88.671
11
81.534
21
-88.6711
0
LINE
8
BLACK
6
CONTINUOUS
10
81.534
20
-88.6711
11
81.5328
21
-88.671
0
LINE
8
BLACK
6
CONTINUOUS
10
81.5328
20
-88.671
11
81.5328
21
-88.671
0
LINE
8
BLACK
6
CONTINUOUS
10
81.5328
20
-88.671
11
81.5291
21
-88.6706
0
LINE
8
BLACK
6
CONTINUOUS
10
81.5291
20
-88.6706
11
81.5244
21
-88.6692
0
LINE
8
BLACK
6
CONTINUOUS
10
81.5244
20
-88.6692
11
81.52
21
-88.6669
0
LINE
8
BLACK
6
CONTINUOUS
10
81.52
20
-88.6669
11
81.5162
21
-88.6638
0
LINE
8
BLACK
6
CONTINUOUS
10
81.5162
20
-88.6638
11
81.5131
21
-88.66
0
LINE
8
BLACK
6
CONTINUOUS
10
81.5131
20
-88.66
11
81.5108
21
-88.6556
0
LINE
8
BLACK
6
CONTINUOUS
10
81.5108
20
-88.6556
11
81.5094
21
-88.6509
0
LINE
8
BLACK
6
CONTINUOUS
10
81.5094
20
-88.6509
11
81.5089
21
-88.646
0
LINE
8
BLACK
6
CONTINUOUS
10
81.5089
20
-88.646
11
81.509
21
-88.6448
0
LINE
8
BLACK
6
CONTINUOUS
10
81.509
20
-88.6448
11
81.509
21
-25.6552
0
LINE
8
BLACK
6
CONTINUOUS
10
81.509
20
-25.6552
11
81.5089
21
-25.654
0
LINE
8
BLACK
6
CONTINUOUS
10
81.5089
20
-25.654
11
81.5094
21
-25.6491
0
LINE
8
BLACK
6
CONTINUOUS
10
81.5094
20
-25.6491
11
81.5108
21
-25.6444
0
LINE
8
BLACK
6
CONTINUOUS
10
81.5108
20
-25.6444
11
81.5131
21
-25.64
0
LINE
8
BLACK
6
CONTINUOUS
10
81.5131
20
-25.64
11
81.5162
21
-25.6362
0
LINE
8
BLACK
6
CONTINUOUS
10
81.5162
20
-25.6362
11
81.52
21
-25.6331
0
LINE
8
BLACK
6
CONTINUOUS
10
81.52
20
-25.6331
11
81.5244
21
-25.6308
0
LINE
8
BLACK
6
CONTINUOUS
10
81.5244
20
-25.6308
11
81.5291
21
-25.6294
0
LINE
8
BLACK
6
CONTINUOUS
10
81.5291
20
-25.6294
11
81.5328
21
-25.629
0
LINE
8
BLACK
6
CONTINUOUS
10
81.5328
20
-25.629
11
81.534
21
-25.6289
0
LINE
8
BLACK
6
CONTINUOUS
10
81.534
20
-25.6289
11
81.5352
21
-25.629
0
LINE
8
BLACK
6
CONTINUOUS
10
81.5352
20
-25.629
11
156.971
21
-25.629
0
LINE
8
BLACK
6
CONTINUOUS
10
156.971
20
-25.629
11
156.972
21
-25.6289
0
LINE
8
BLACK
6
CONTINUOUS
10
156.972
20
-25.6289
11
156.973
21
-25.629
0
LINE
8
BLACK
6
CONTINUOUS
10
156.973
20
-25.629
11
156.977
21
-25.6294
0
LINE
8
BLACK
6
CONTINUOUS
10
156.977
20
-25.6294
11
156.982
21
-25.6308
0
LINE
8
BLACK
6
CONTINUOUS
10
156.982
20
-25.6308
11
156.986
21
-25.6331
0
LINE
8
BLACK
6
CONTINUOUS
10
156.986
20
-25.6331
11
156.99
21
-25.6362
0
LINE
8
BLACK
6
CONTINUOUS
10
156.99
20
-25.6362
11
156.993
21
-25.64
0
LINE
8
BLACK
6
CONTINUOUS
10
156.993
20
-25.64
11
156.995
21
-25.6444
0
LINE
8
BLACK
6
CONTINUOUS
10
156.995
20
-25.6444
11
156.997
21
-25.6491
0
LINE
8
BLACK
6
CONTINUOUS
10
156.997
20
-25.6491
11
156.997
21
-25.654
0
LINE
8
BLACK
6
CONTINUOUS
10
156.997
20
-25.654
11
156.997
21
-25.6552
0
LINE
8
BLACK
6
CONTINUOUS
10
156.997
20
-25.6552
11
156.997
21
-88.6448
0
LINE
8
BLACK
6
CONTINUOUS
10
156.997
20
-88.6448
11
156.997
21
-88.646
0
LINE
8
BLACK
6
CONTINUOUS
10
81.559
20
-25.679
11
81.559
21
-88.621
0
LINE
8
BLACK
6
CONTINUOUS
10
81.559
20
-88.621
11
156.947
21
-88.621
0
LINE
8
BLACK
6
CONTINUOUS
10
156.947
20
-88.621
11
156.947
21
-26.4172
0
LINE
8
BLACK
6
CONTINUOUS
10
156.947
20
-26.4172
11
156.947
21
-26.4172
0
LINE
8
BLACK
6
CONTINUOUS
10
156.947
20
-26.4172
11
156.947
21
-25.679
0
LINE
8
BLACK
6
CONTINUOUS
10
156.947
20
-25.679
11
81.559
21
-25.679
  0
ENDSEC
  0
EOF
