G04 #@! TF.GenerationSoftware,KiCad,Pcbnew,(5.1.2)-2*
G04 #@! TF.CreationDate,2020-01-08T10:24:07+07:00*
G04 #@! TF.ProjectId,FPGA_PROJECT,46504741-5f50-4524-9f4a-4543542e6b69,rev?*
G04 #@! TF.SameCoordinates,Original*
G04 #@! TF.FileFunction,Legend,Top*
G04 #@! TF.FilePolarity,Positive*
%FSLAX46Y46*%
G04 Gerber Fmt 4.6, Leading zero omitted, Abs format (unit mm)*
G04 Created by KiCad (PCBNEW (5.1.2)-2) date 2020-01-08 10:24:07*
%MOMM*%
%LPD*%
G04 APERTURE LIST*
%ADD10C,0.120000*%
%ADD11C,0.150000*%
G04 APERTURE END LIST*
D10*
X136966000Y-36008000D02*
X136966000Y-37338000D01*
X135636000Y-36008000D02*
X136966000Y-36008000D01*
X134366000Y-36008000D02*
X134366000Y-38668000D01*
X134366000Y-38668000D02*
X129226000Y-38668000D01*
X134366000Y-36008000D02*
X129226000Y-36008000D01*
X129226000Y-36008000D02*
X129226000Y-38668000D01*
X120284000Y-68590000D02*
X116444000Y-68590000D01*
X116444000Y-68590000D02*
X116444000Y-78730000D01*
X116444000Y-78730000D02*
X120284000Y-78730000D01*
X120284000Y-78730000D02*
X120284000Y-68590000D01*
X118364000Y-67480000D02*
X118364000Y-68590000D01*
X118364000Y-79840000D02*
X118364000Y-78730000D01*
X124420000Y-46006000D02*
X134660000Y-46006000D01*
X124420000Y-50647000D02*
X134660000Y-50647000D01*
X124420000Y-46006000D02*
X124420000Y-50647000D01*
X134660000Y-46006000D02*
X134660000Y-50647000D01*
X124420000Y-47516000D02*
X134660000Y-47516000D01*
X127690000Y-46006000D02*
X127690000Y-47516000D01*
X131391000Y-46006000D02*
X131391000Y-47516000D01*
X112126000Y-78730000D02*
X115966000Y-78730000D01*
X115966000Y-78730000D02*
X115966000Y-68590000D01*
X115966000Y-68590000D02*
X112126000Y-68590000D01*
X112126000Y-68590000D02*
X112126000Y-78730000D01*
X114046000Y-79840000D02*
X114046000Y-78730000D01*
X114046000Y-67480000D02*
X114046000Y-68590000D01*
X149856000Y-54888000D02*
X149856000Y-53388000D01*
X148606000Y-50888000D02*
X144106000Y-50888000D01*
X142856000Y-53388000D02*
X142856000Y-54888000D01*
X144106000Y-57388000D02*
X148606000Y-57388000D01*
X109728000Y-67480000D02*
X109728000Y-68590000D01*
X109728000Y-79840000D02*
X109728000Y-78730000D01*
X107808000Y-68590000D02*
X107808000Y-78730000D01*
X111648000Y-68590000D02*
X107808000Y-68590000D01*
X111648000Y-78730000D02*
X111648000Y-68590000D01*
X107808000Y-78730000D02*
X111648000Y-78730000D01*
X131258000Y-41048000D02*
X136498000Y-41048000D01*
X131258000Y-43788000D02*
X136498000Y-43788000D01*
X131258000Y-41048000D02*
X131258000Y-43788000D01*
X136498000Y-41048000D02*
X136498000Y-43788000D01*
X118558000Y-43788000D02*
X118558000Y-41048000D01*
X123798000Y-43788000D02*
X123798000Y-41048000D01*
X123798000Y-41048000D02*
X118558000Y-41048000D01*
X123798000Y-43788000D02*
X118558000Y-43788000D01*
X130148000Y-43788000D02*
X124908000Y-43788000D01*
X130148000Y-41048000D02*
X124908000Y-41048000D01*
X130148000Y-43788000D02*
X130148000Y-41048000D01*
X124908000Y-43788000D02*
X124908000Y-41048000D01*
X117836000Y-50271000D02*
X117836000Y-53361000D01*
X122896000Y-51816000D02*
G75*
G03X122896000Y-51816000I-2500000J0D01*
G01*
X123386000Y-51815538D02*
G75*
G02X117836000Y-53360830I-2990000J-462D01*
G01*
X123386000Y-51816462D02*
G75*
G03X117836000Y-50271170I-2990000J462D01*
G01*
X100780000Y-58420462D02*
G75*
G03X95230000Y-56875170I-2990000J462D01*
G01*
X100780000Y-58419538D02*
G75*
G02X95230000Y-59964830I-2990000J-462D01*
G01*
X100290000Y-58420000D02*
G75*
G03X100290000Y-58420000I-2500000J0D01*
G01*
X95230000Y-56875000D02*
X95230000Y-59965000D01*
X108400000Y-58420462D02*
G75*
G03X102850000Y-56875170I-2990000J462D01*
G01*
X108400000Y-58419538D02*
G75*
G02X102850000Y-59964830I-2990000J-462D01*
G01*
X107910000Y-58420000D02*
G75*
G03X107910000Y-58420000I-2500000J0D01*
G01*
X102850000Y-56875000D02*
X102850000Y-59965000D01*
X110470000Y-56875000D02*
X110470000Y-59965000D01*
X115530000Y-58420000D02*
G75*
G03X115530000Y-58420000I-2500000J0D01*
G01*
X116020000Y-58419538D02*
G75*
G02X110470000Y-59964830I-2990000J-462D01*
G01*
X116020000Y-58420462D02*
G75*
G03X110470000Y-56875170I-2990000J462D01*
G01*
X123640000Y-58420462D02*
G75*
G03X118090000Y-56875170I-2990000J462D01*
G01*
X123640000Y-58419538D02*
G75*
G02X118090000Y-59964830I-2990000J-462D01*
G01*
X123150000Y-58420000D02*
G75*
G03X123150000Y-58420000I-2500000J0D01*
G01*
X118090000Y-56875000D02*
X118090000Y-59965000D01*
X125964000Y-56875000D02*
X125964000Y-59965000D01*
X131024000Y-58420000D02*
G75*
G03X131024000Y-58420000I-2500000J0D01*
G01*
X131514000Y-58419538D02*
G75*
G02X125964000Y-59964830I-2990000J-462D01*
G01*
X131514000Y-58420462D02*
G75*
G03X125964000Y-56875170I-2990000J462D01*
G01*
X139954000Y-40640000D02*
X150114000Y-40640000D01*
X139954000Y-33020000D02*
X139954000Y-40640000D01*
X150114000Y-33020000D02*
X139954000Y-33020000D01*
X150114000Y-40640000D02*
X150114000Y-33020000D01*
X150114000Y-39370000D02*
X139954000Y-39370000D01*
X119574000Y-36008000D02*
X119574000Y-38668000D01*
X124714000Y-36008000D02*
X119574000Y-36008000D01*
X124714000Y-38668000D02*
X119574000Y-38668000D01*
X124714000Y-36008000D02*
X124714000Y-38668000D01*
X125984000Y-36008000D02*
X127314000Y-36008000D01*
X127314000Y-36008000D02*
X127314000Y-37338000D01*
X94996000Y-35306000D02*
X105156000Y-35306000D01*
X94996000Y-34036000D02*
X94996000Y-41656000D01*
X94996000Y-41656000D02*
X105156000Y-41656000D01*
X105156000Y-41656000D02*
X105156000Y-34036000D01*
X105156000Y-34036000D02*
X94996000Y-34036000D01*
X106426000Y-35306000D02*
X116586000Y-35306000D01*
X106426000Y-34036000D02*
X106426000Y-41656000D01*
X106426000Y-41656000D02*
X116586000Y-41656000D01*
X116586000Y-41656000D02*
X116586000Y-34036000D01*
X116586000Y-34036000D02*
X106426000Y-34036000D01*
X96774000Y-67480000D02*
X96774000Y-68590000D01*
X96774000Y-79840000D02*
X96774000Y-78730000D01*
X94854000Y-68590000D02*
X94854000Y-78730000D01*
X98694000Y-68590000D02*
X94854000Y-68590000D01*
X98694000Y-78730000D02*
X98694000Y-68590000D01*
X94854000Y-78730000D02*
X98694000Y-78730000D01*
X99172000Y-78730000D02*
X103012000Y-78730000D01*
X103012000Y-78730000D02*
X103012000Y-68590000D01*
X103012000Y-68590000D02*
X99172000Y-68590000D01*
X99172000Y-68590000D02*
X99172000Y-78730000D01*
X101092000Y-79840000D02*
X101092000Y-78730000D01*
X101092000Y-67480000D02*
X101092000Y-68590000D01*
X105410000Y-67480000D02*
X105410000Y-68590000D01*
X105410000Y-79840000D02*
X105410000Y-78730000D01*
X103490000Y-68590000D02*
X103490000Y-78730000D01*
X107330000Y-68590000D02*
X103490000Y-68590000D01*
X107330000Y-78730000D02*
X107330000Y-68590000D01*
X103490000Y-78730000D02*
X107330000Y-78730000D01*
X144106000Y-48752000D02*
X148606000Y-48752000D01*
X142856000Y-44752000D02*
X142856000Y-46252000D01*
X148606000Y-42252000D02*
X144106000Y-42252000D01*
X149856000Y-46252000D02*
X149856000Y-44752000D01*
X144002000Y-65262000D02*
X148502000Y-65262000D01*
X142752000Y-61262000D02*
X142752000Y-62762000D01*
X148502000Y-58762000D02*
X144002000Y-58762000D01*
X149752000Y-62762000D02*
X149752000Y-61262000D01*
X149841001Y-71211001D02*
X149841001Y-69711001D01*
X148591001Y-67211001D02*
X144091001Y-67211001D01*
X142841001Y-69711001D02*
X142841001Y-71211001D01*
X144091001Y-73711001D02*
X148591001Y-73711001D01*
X144106000Y-81772000D02*
X148606000Y-81772000D01*
X142856000Y-77772000D02*
X142856000Y-79272000D01*
X148606000Y-75272000D02*
X144106000Y-75272000D01*
X149856000Y-79272000D02*
X149856000Y-77772000D01*
X115884000Y-49514000D02*
G75*
G02X115884000Y-47514000I0J1000000D01*
G01*
X115884000Y-47514000D02*
X115884000Y-45864000D01*
X115884000Y-45864000D02*
X95444000Y-45864000D01*
X95444000Y-45864000D02*
X95444000Y-51164000D01*
X95444000Y-51164000D02*
X115884000Y-51164000D01*
X115884000Y-51164000D02*
X115884000Y-49514000D01*
X86554000Y-83118000D02*
X91754000Y-83118000D01*
X86554000Y-34798000D02*
X86554000Y-83118000D01*
X91754000Y-32198000D02*
X91754000Y-83118000D01*
X86554000Y-34798000D02*
X89154000Y-34798000D01*
X89154000Y-34798000D02*
X89154000Y-32198000D01*
X89154000Y-32198000D02*
X91754000Y-32198000D01*
X86554000Y-33528000D02*
X86554000Y-32198000D01*
X86554000Y-32198000D02*
X87884000Y-32198000D01*
X120762000Y-78730000D02*
X124602000Y-78730000D01*
X124602000Y-78730000D02*
X124602000Y-68590000D01*
X124602000Y-68590000D02*
X120762000Y-68590000D01*
X120762000Y-68590000D02*
X120762000Y-78730000D01*
X122682000Y-79840000D02*
X122682000Y-78730000D01*
X122682000Y-67480000D02*
X122682000Y-68590000D01*
X126746000Y-67480000D02*
X126746000Y-68590000D01*
X126746000Y-79840000D02*
X126746000Y-78730000D01*
X124826000Y-68590000D02*
X124826000Y-78730000D01*
X128666000Y-68590000D02*
X124826000Y-68590000D01*
X128666000Y-78730000D02*
X128666000Y-68590000D01*
X124826000Y-78730000D02*
X128666000Y-78730000D01*
X128890000Y-78730000D02*
X132730000Y-78730000D01*
X132730000Y-78730000D02*
X132730000Y-68590000D01*
X132730000Y-68590000D02*
X128890000Y-68590000D01*
X128890000Y-68590000D02*
X128890000Y-78730000D01*
X130810000Y-79840000D02*
X130810000Y-78730000D01*
X130810000Y-67480000D02*
X130810000Y-68590000D01*
X134874000Y-67480000D02*
X134874000Y-68590000D01*
X134874000Y-79840000D02*
X134874000Y-78730000D01*
X132954000Y-68590000D02*
X132954000Y-78730000D01*
X136794000Y-68590000D02*
X132954000Y-68590000D01*
X136794000Y-78730000D02*
X136794000Y-68590000D01*
X132954000Y-78730000D02*
X136794000Y-78730000D01*
X137018000Y-78730000D02*
X140858000Y-78730000D01*
X140858000Y-78730000D02*
X140858000Y-68590000D01*
X140858000Y-68590000D02*
X137018000Y-68590000D01*
X137018000Y-68590000D02*
X137018000Y-78730000D01*
X138938000Y-79840000D02*
X138938000Y-78730000D01*
X138938000Y-67480000D02*
X138938000Y-68590000D01*
D11*
X137418380Y-37671333D02*
X138132666Y-37671333D01*
X138275523Y-37718952D01*
X138370761Y-37814190D01*
X138418380Y-37957047D01*
X138418380Y-38052285D01*
X137418380Y-36718952D02*
X137418380Y-37195142D01*
X137894571Y-37242761D01*
X137846952Y-37195142D01*
X137799333Y-37099904D01*
X137799333Y-36861809D01*
X137846952Y-36766571D01*
X137894571Y-36718952D01*
X137989809Y-36671333D01*
X138227904Y-36671333D01*
X138323142Y-36718952D01*
X138370761Y-36766571D01*
X138418380Y-36861809D01*
X138418380Y-37099904D01*
X138370761Y-37195142D01*
X138323142Y-37242761D01*
X121736380Y-73826666D02*
X121260190Y-74160000D01*
X121736380Y-74398095D02*
X120736380Y-74398095D01*
X120736380Y-74017142D01*
X120784000Y-73921904D01*
X120831619Y-73874285D01*
X120926857Y-73826666D01*
X121069714Y-73826666D01*
X121164952Y-73874285D01*
X121212571Y-73921904D01*
X121260190Y-74017142D01*
X121260190Y-74398095D01*
X121736380Y-72874285D02*
X121736380Y-73445714D01*
X121736380Y-73160000D02*
X120736380Y-73160000D01*
X120879238Y-73255238D01*
X120974476Y-73350476D01*
X121022095Y-73445714D01*
X128778095Y-44458380D02*
X128778095Y-45267904D01*
X128825714Y-45363142D01*
X128873333Y-45410761D01*
X128968571Y-45458380D01*
X129159047Y-45458380D01*
X129254285Y-45410761D01*
X129301904Y-45363142D01*
X129349523Y-45267904D01*
X129349523Y-44458380D01*
X130349523Y-45458380D02*
X129778095Y-45458380D01*
X130063809Y-45458380D02*
X130063809Y-44458380D01*
X129968571Y-44601238D01*
X129873333Y-44696476D01*
X129778095Y-44744095D01*
X111578380Y-73826666D02*
X111102190Y-74160000D01*
X111578380Y-74398095D02*
X110578380Y-74398095D01*
X110578380Y-74017142D01*
X110626000Y-73921904D01*
X110673619Y-73874285D01*
X110768857Y-73826666D01*
X110911714Y-73826666D01*
X111006952Y-73874285D01*
X111054571Y-73921904D01*
X111102190Y-74017142D01*
X111102190Y-74398095D01*
X110578380Y-72969523D02*
X110578380Y-73160000D01*
X110626000Y-73255238D01*
X110673619Y-73302857D01*
X110816476Y-73398095D01*
X111006952Y-73445714D01*
X111387904Y-73445714D01*
X111483142Y-73398095D01*
X111530761Y-73350476D01*
X111578380Y-73255238D01*
X111578380Y-73064761D01*
X111530761Y-72969523D01*
X111483142Y-72921904D01*
X111387904Y-72874285D01*
X111149809Y-72874285D01*
X111054571Y-72921904D01*
X111006952Y-72969523D01*
X110959333Y-73064761D01*
X110959333Y-73255238D01*
X111006952Y-73350476D01*
X111054571Y-73398095D01*
X111149809Y-73445714D01*
X145022666Y-50292761D02*
X145165523Y-50340380D01*
X145403619Y-50340380D01*
X145498857Y-50292761D01*
X145546476Y-50245142D01*
X145594095Y-50149904D01*
X145594095Y-50054666D01*
X145546476Y-49959428D01*
X145498857Y-49911809D01*
X145403619Y-49864190D01*
X145213142Y-49816571D01*
X145117904Y-49768952D01*
X145070285Y-49721333D01*
X145022666Y-49626095D01*
X145022666Y-49530857D01*
X145070285Y-49435619D01*
X145117904Y-49388000D01*
X145213142Y-49340380D01*
X145451238Y-49340380D01*
X145594095Y-49388000D01*
X145927428Y-49340380D02*
X146165523Y-50340380D01*
X146356000Y-49626095D01*
X146546476Y-50340380D01*
X146784571Y-49340380D01*
X147117904Y-49435619D02*
X147165523Y-49388000D01*
X147260761Y-49340380D01*
X147498857Y-49340380D01*
X147594095Y-49388000D01*
X147641714Y-49435619D01*
X147689333Y-49530857D01*
X147689333Y-49626095D01*
X147641714Y-49768952D01*
X147070285Y-50340380D01*
X147689333Y-50340380D01*
X107260380Y-73826666D02*
X106784190Y-74160000D01*
X107260380Y-74398095D02*
X106260380Y-74398095D01*
X106260380Y-74017142D01*
X106308000Y-73921904D01*
X106355619Y-73874285D01*
X106450857Y-73826666D01*
X106593714Y-73826666D01*
X106688952Y-73874285D01*
X106736571Y-73921904D01*
X106784190Y-74017142D01*
X106784190Y-74398095D01*
X106260380Y-72921904D02*
X106260380Y-73398095D01*
X106736571Y-73445714D01*
X106688952Y-73398095D01*
X106641333Y-73302857D01*
X106641333Y-73064761D01*
X106688952Y-72969523D01*
X106736571Y-72921904D01*
X106831809Y-72874285D01*
X107069904Y-72874285D01*
X107165142Y-72921904D01*
X107212761Y-72969523D01*
X107260380Y-73064761D01*
X107260380Y-73302857D01*
X107212761Y-73398095D01*
X107165142Y-73445714D01*
X133711333Y-40275142D02*
X133663714Y-40322761D01*
X133520857Y-40370380D01*
X133425619Y-40370380D01*
X133282761Y-40322761D01*
X133187523Y-40227523D01*
X133139904Y-40132285D01*
X133092285Y-39941809D01*
X133092285Y-39798952D01*
X133139904Y-39608476D01*
X133187523Y-39513238D01*
X133282761Y-39418000D01*
X133425619Y-39370380D01*
X133520857Y-39370380D01*
X133663714Y-39418000D01*
X133711333Y-39465619D01*
X134663714Y-40370380D02*
X134092285Y-40370380D01*
X134378000Y-40370380D02*
X134378000Y-39370380D01*
X134282761Y-39513238D01*
X134187523Y-39608476D01*
X134092285Y-39656095D01*
X121011333Y-45275142D02*
X120963714Y-45322761D01*
X120820857Y-45370380D01*
X120725619Y-45370380D01*
X120582761Y-45322761D01*
X120487523Y-45227523D01*
X120439904Y-45132285D01*
X120392285Y-44941809D01*
X120392285Y-44798952D01*
X120439904Y-44608476D01*
X120487523Y-44513238D01*
X120582761Y-44418000D01*
X120725619Y-44370380D01*
X120820857Y-44370380D01*
X120963714Y-44418000D01*
X121011333Y-44465619D01*
X121392285Y-44465619D02*
X121439904Y-44418000D01*
X121535142Y-44370380D01*
X121773238Y-44370380D01*
X121868476Y-44418000D01*
X121916095Y-44465619D01*
X121963714Y-44560857D01*
X121963714Y-44656095D01*
X121916095Y-44798952D01*
X121344666Y-45370380D01*
X121963714Y-45370380D01*
X127361333Y-45275142D02*
X127313714Y-45322761D01*
X127170857Y-45370380D01*
X127075619Y-45370380D01*
X126932761Y-45322761D01*
X126837523Y-45227523D01*
X126789904Y-45132285D01*
X126742285Y-44941809D01*
X126742285Y-44798952D01*
X126789904Y-44608476D01*
X126837523Y-44513238D01*
X126932761Y-44418000D01*
X127075619Y-44370380D01*
X127170857Y-44370380D01*
X127313714Y-44418000D01*
X127361333Y-44465619D01*
X127694666Y-44370380D02*
X128313714Y-44370380D01*
X127980380Y-44751333D01*
X128123238Y-44751333D01*
X128218476Y-44798952D01*
X128266095Y-44846571D01*
X128313714Y-44941809D01*
X128313714Y-45179904D01*
X128266095Y-45275142D01*
X128218476Y-45322761D01*
X128123238Y-45370380D01*
X127837523Y-45370380D01*
X127742285Y-45322761D01*
X127694666Y-45275142D01*
X119657904Y-48308380D02*
X119657904Y-47308380D01*
X119896000Y-47308380D01*
X120038857Y-47356000D01*
X120134095Y-47451238D01*
X120181714Y-47546476D01*
X120229333Y-47736952D01*
X120229333Y-47879809D01*
X120181714Y-48070285D01*
X120134095Y-48165523D01*
X120038857Y-48260761D01*
X119896000Y-48308380D01*
X119657904Y-48308380D01*
X121181714Y-48308380D02*
X120610285Y-48308380D01*
X120896000Y-48308380D02*
X120896000Y-47308380D01*
X120800761Y-47451238D01*
X120705523Y-47546476D01*
X120610285Y-47594095D01*
X97051904Y-54912380D02*
X97051904Y-53912380D01*
X97290000Y-53912380D01*
X97432857Y-53960000D01*
X97528095Y-54055238D01*
X97575714Y-54150476D01*
X97623333Y-54340952D01*
X97623333Y-54483809D01*
X97575714Y-54674285D01*
X97528095Y-54769523D01*
X97432857Y-54864761D01*
X97290000Y-54912380D01*
X97051904Y-54912380D01*
X98004285Y-54007619D02*
X98051904Y-53960000D01*
X98147142Y-53912380D01*
X98385238Y-53912380D01*
X98480476Y-53960000D01*
X98528095Y-54007619D01*
X98575714Y-54102857D01*
X98575714Y-54198095D01*
X98528095Y-54340952D01*
X97956666Y-54912380D01*
X98575714Y-54912380D01*
X104671904Y-54912380D02*
X104671904Y-53912380D01*
X104910000Y-53912380D01*
X105052857Y-53960000D01*
X105148095Y-54055238D01*
X105195714Y-54150476D01*
X105243333Y-54340952D01*
X105243333Y-54483809D01*
X105195714Y-54674285D01*
X105148095Y-54769523D01*
X105052857Y-54864761D01*
X104910000Y-54912380D01*
X104671904Y-54912380D01*
X105576666Y-53912380D02*
X106195714Y-53912380D01*
X105862380Y-54293333D01*
X106005238Y-54293333D01*
X106100476Y-54340952D01*
X106148095Y-54388571D01*
X106195714Y-54483809D01*
X106195714Y-54721904D01*
X106148095Y-54817142D01*
X106100476Y-54864761D01*
X106005238Y-54912380D01*
X105719523Y-54912380D01*
X105624285Y-54864761D01*
X105576666Y-54817142D01*
X112291904Y-54912380D02*
X112291904Y-53912380D01*
X112530000Y-53912380D01*
X112672857Y-53960000D01*
X112768095Y-54055238D01*
X112815714Y-54150476D01*
X112863333Y-54340952D01*
X112863333Y-54483809D01*
X112815714Y-54674285D01*
X112768095Y-54769523D01*
X112672857Y-54864761D01*
X112530000Y-54912380D01*
X112291904Y-54912380D01*
X113720476Y-54245714D02*
X113720476Y-54912380D01*
X113482380Y-53864761D02*
X113244285Y-54579047D01*
X113863333Y-54579047D01*
X119911904Y-54912380D02*
X119911904Y-53912380D01*
X120150000Y-53912380D01*
X120292857Y-53960000D01*
X120388095Y-54055238D01*
X120435714Y-54150476D01*
X120483333Y-54340952D01*
X120483333Y-54483809D01*
X120435714Y-54674285D01*
X120388095Y-54769523D01*
X120292857Y-54864761D01*
X120150000Y-54912380D01*
X119911904Y-54912380D01*
X121388095Y-53912380D02*
X120911904Y-53912380D01*
X120864285Y-54388571D01*
X120911904Y-54340952D01*
X121007142Y-54293333D01*
X121245238Y-54293333D01*
X121340476Y-54340952D01*
X121388095Y-54388571D01*
X121435714Y-54483809D01*
X121435714Y-54721904D01*
X121388095Y-54817142D01*
X121340476Y-54864761D01*
X121245238Y-54912380D01*
X121007142Y-54912380D01*
X120911904Y-54864761D01*
X120864285Y-54817142D01*
X127785904Y-54912380D02*
X127785904Y-53912380D01*
X128024000Y-53912380D01*
X128166857Y-53960000D01*
X128262095Y-54055238D01*
X128309714Y-54150476D01*
X128357333Y-54340952D01*
X128357333Y-54483809D01*
X128309714Y-54674285D01*
X128262095Y-54769523D01*
X128166857Y-54864761D01*
X128024000Y-54912380D01*
X127785904Y-54912380D01*
X129214476Y-53912380D02*
X129024000Y-53912380D01*
X128928761Y-53960000D01*
X128881142Y-54007619D01*
X128785904Y-54150476D01*
X128738285Y-54340952D01*
X128738285Y-54721904D01*
X128785904Y-54817142D01*
X128833523Y-54864761D01*
X128928761Y-54912380D01*
X129119238Y-54912380D01*
X129214476Y-54864761D01*
X129262095Y-54817142D01*
X129309714Y-54721904D01*
X129309714Y-54483809D01*
X129262095Y-54388571D01*
X129214476Y-54340952D01*
X129119238Y-54293333D01*
X128928761Y-54293333D01*
X128833523Y-54340952D01*
X128785904Y-54388571D01*
X128738285Y-54483809D01*
X144700666Y-31202380D02*
X144700666Y-31916666D01*
X144653047Y-32059523D01*
X144557809Y-32154761D01*
X144414952Y-32202380D01*
X144319714Y-32202380D01*
X145700666Y-32202380D02*
X145129238Y-32202380D01*
X145414952Y-32202380D02*
X145414952Y-31202380D01*
X145319714Y-31345238D01*
X145224476Y-31440476D01*
X145129238Y-31488095D01*
X127766380Y-37671333D02*
X128480666Y-37671333D01*
X128623523Y-37718952D01*
X128718761Y-37814190D01*
X128766380Y-37957047D01*
X128766380Y-38052285D01*
X127766380Y-36766571D02*
X127766380Y-36957047D01*
X127814000Y-37052285D01*
X127861619Y-37099904D01*
X128004476Y-37195142D01*
X128194952Y-37242761D01*
X128575904Y-37242761D01*
X128671142Y-37195142D01*
X128718761Y-37147523D01*
X128766380Y-37052285D01*
X128766380Y-36861809D01*
X128718761Y-36766571D01*
X128671142Y-36718952D01*
X128575904Y-36671333D01*
X128337809Y-36671333D01*
X128242571Y-36718952D01*
X128194952Y-36766571D01*
X128147333Y-36861809D01*
X128147333Y-37052285D01*
X128194952Y-37147523D01*
X128242571Y-37195142D01*
X128337809Y-37242761D01*
X99742666Y-42378380D02*
X99742666Y-43092666D01*
X99695047Y-43235523D01*
X99599809Y-43330761D01*
X99456952Y-43378380D01*
X99361714Y-43378380D01*
X100123619Y-42378380D02*
X100790285Y-42378380D01*
X100361714Y-43378380D01*
X111172666Y-42378380D02*
X111172666Y-43092666D01*
X111125047Y-43235523D01*
X111029809Y-43330761D01*
X110886952Y-43378380D01*
X110791714Y-43378380D01*
X111791714Y-42806952D02*
X111696476Y-42759333D01*
X111648857Y-42711714D01*
X111601238Y-42616476D01*
X111601238Y-42568857D01*
X111648857Y-42473619D01*
X111696476Y-42426000D01*
X111791714Y-42378380D01*
X111982190Y-42378380D01*
X112077428Y-42426000D01*
X112125047Y-42473619D01*
X112172666Y-42568857D01*
X112172666Y-42616476D01*
X112125047Y-42711714D01*
X112077428Y-42759333D01*
X111982190Y-42806952D01*
X111791714Y-42806952D01*
X111696476Y-42854571D01*
X111648857Y-42902190D01*
X111601238Y-42997428D01*
X111601238Y-43187904D01*
X111648857Y-43283142D01*
X111696476Y-43330761D01*
X111791714Y-43378380D01*
X111982190Y-43378380D01*
X112077428Y-43330761D01*
X112125047Y-43283142D01*
X112172666Y-43187904D01*
X112172666Y-42997428D01*
X112125047Y-42902190D01*
X112077428Y-42854571D01*
X111982190Y-42806952D01*
X94306380Y-73826666D02*
X93830190Y-74160000D01*
X94306380Y-74398095D02*
X93306380Y-74398095D01*
X93306380Y-74017142D01*
X93354000Y-73921904D01*
X93401619Y-73874285D01*
X93496857Y-73826666D01*
X93639714Y-73826666D01*
X93734952Y-73874285D01*
X93782571Y-73921904D01*
X93830190Y-74017142D01*
X93830190Y-74398095D01*
X93401619Y-73445714D02*
X93354000Y-73398095D01*
X93306380Y-73302857D01*
X93306380Y-73064761D01*
X93354000Y-72969523D01*
X93401619Y-72921904D01*
X93496857Y-72874285D01*
X93592095Y-72874285D01*
X93734952Y-72921904D01*
X94306380Y-73493333D01*
X94306380Y-72874285D01*
X98624380Y-73826666D02*
X98148190Y-74160000D01*
X98624380Y-74398095D02*
X97624380Y-74398095D01*
X97624380Y-74017142D01*
X97672000Y-73921904D01*
X97719619Y-73874285D01*
X97814857Y-73826666D01*
X97957714Y-73826666D01*
X98052952Y-73874285D01*
X98100571Y-73921904D01*
X98148190Y-74017142D01*
X98148190Y-74398095D01*
X97624380Y-73493333D02*
X97624380Y-72874285D01*
X98005333Y-73207619D01*
X98005333Y-73064761D01*
X98052952Y-72969523D01*
X98100571Y-72921904D01*
X98195809Y-72874285D01*
X98433904Y-72874285D01*
X98529142Y-72921904D01*
X98576761Y-72969523D01*
X98624380Y-73064761D01*
X98624380Y-73350476D01*
X98576761Y-73445714D01*
X98529142Y-73493333D01*
X102942380Y-73826666D02*
X102466190Y-74160000D01*
X102942380Y-74398095D02*
X101942380Y-74398095D01*
X101942380Y-74017142D01*
X101990000Y-73921904D01*
X102037619Y-73874285D01*
X102132857Y-73826666D01*
X102275714Y-73826666D01*
X102370952Y-73874285D01*
X102418571Y-73921904D01*
X102466190Y-74017142D01*
X102466190Y-74398095D01*
X102275714Y-72969523D02*
X102942380Y-72969523D01*
X101894761Y-73207619D02*
X102609047Y-73445714D01*
X102609047Y-72826666D01*
X145022666Y-41656761D02*
X145165523Y-41704380D01*
X145403619Y-41704380D01*
X145498857Y-41656761D01*
X145546476Y-41609142D01*
X145594095Y-41513904D01*
X145594095Y-41418666D01*
X145546476Y-41323428D01*
X145498857Y-41275809D01*
X145403619Y-41228190D01*
X145213142Y-41180571D01*
X145117904Y-41132952D01*
X145070285Y-41085333D01*
X145022666Y-40990095D01*
X145022666Y-40894857D01*
X145070285Y-40799619D01*
X145117904Y-40752000D01*
X145213142Y-40704380D01*
X145451238Y-40704380D01*
X145594095Y-40752000D01*
X145927428Y-40704380D02*
X146165523Y-41704380D01*
X146356000Y-40990095D01*
X146546476Y-41704380D01*
X146784571Y-40704380D01*
X147689333Y-41704380D02*
X147117904Y-41704380D01*
X147403619Y-41704380D02*
X147403619Y-40704380D01*
X147308380Y-40847238D01*
X147213142Y-40942476D01*
X147117904Y-40990095D01*
X144918666Y-58166761D02*
X145061523Y-58214380D01*
X145299619Y-58214380D01*
X145394857Y-58166761D01*
X145442476Y-58119142D01*
X145490095Y-58023904D01*
X145490095Y-57928666D01*
X145442476Y-57833428D01*
X145394857Y-57785809D01*
X145299619Y-57738190D01*
X145109142Y-57690571D01*
X145013904Y-57642952D01*
X144966285Y-57595333D01*
X144918666Y-57500095D01*
X144918666Y-57404857D01*
X144966285Y-57309619D01*
X145013904Y-57262000D01*
X145109142Y-57214380D01*
X145347238Y-57214380D01*
X145490095Y-57262000D01*
X145823428Y-57214380D02*
X146061523Y-58214380D01*
X146252000Y-57500095D01*
X146442476Y-58214380D01*
X146680571Y-57214380D01*
X146966285Y-57214380D02*
X147585333Y-57214380D01*
X147252000Y-57595333D01*
X147394857Y-57595333D01*
X147490095Y-57642952D01*
X147537714Y-57690571D01*
X147585333Y-57785809D01*
X147585333Y-58023904D01*
X147537714Y-58119142D01*
X147490095Y-58166761D01*
X147394857Y-58214380D01*
X147109142Y-58214380D01*
X147013904Y-58166761D01*
X146966285Y-58119142D01*
X145007667Y-66615762D02*
X145150524Y-66663381D01*
X145388620Y-66663381D01*
X145483858Y-66615762D01*
X145531477Y-66568143D01*
X145579096Y-66472905D01*
X145579096Y-66377667D01*
X145531477Y-66282429D01*
X145483858Y-66234810D01*
X145388620Y-66187191D01*
X145198143Y-66139572D01*
X145102905Y-66091953D01*
X145055286Y-66044334D01*
X145007667Y-65949096D01*
X145007667Y-65853858D01*
X145055286Y-65758620D01*
X145102905Y-65711001D01*
X145198143Y-65663381D01*
X145436239Y-65663381D01*
X145579096Y-65711001D01*
X145912429Y-65663381D02*
X146150524Y-66663381D01*
X146341001Y-65949096D01*
X146531477Y-66663381D01*
X146769572Y-65663381D01*
X147579096Y-65996715D02*
X147579096Y-66663381D01*
X147341001Y-65615762D02*
X147102905Y-66330048D01*
X147721953Y-66330048D01*
X145022666Y-74676761D02*
X145165523Y-74724380D01*
X145403619Y-74724380D01*
X145498857Y-74676761D01*
X145546476Y-74629142D01*
X145594095Y-74533904D01*
X145594095Y-74438666D01*
X145546476Y-74343428D01*
X145498857Y-74295809D01*
X145403619Y-74248190D01*
X145213142Y-74200571D01*
X145117904Y-74152952D01*
X145070285Y-74105333D01*
X145022666Y-74010095D01*
X145022666Y-73914857D01*
X145070285Y-73819619D01*
X145117904Y-73772000D01*
X145213142Y-73724380D01*
X145451238Y-73724380D01*
X145594095Y-73772000D01*
X145927428Y-73724380D02*
X146165523Y-74724380D01*
X146356000Y-74010095D01*
X146546476Y-74724380D01*
X146784571Y-73724380D01*
X147641714Y-73724380D02*
X147165523Y-73724380D01*
X147117904Y-74200571D01*
X147165523Y-74152952D01*
X147260761Y-74105333D01*
X147498857Y-74105333D01*
X147594095Y-74152952D01*
X147641714Y-74200571D01*
X147689333Y-74295809D01*
X147689333Y-74533904D01*
X147641714Y-74629142D01*
X147594095Y-74676761D01*
X147498857Y-74724380D01*
X147260761Y-74724380D01*
X147165523Y-74676761D01*
X147117904Y-74629142D01*
X116336380Y-49275904D02*
X117145904Y-49275904D01*
X117241142Y-49228285D01*
X117288761Y-49180666D01*
X117336380Y-49085428D01*
X117336380Y-48894952D01*
X117288761Y-48799714D01*
X117241142Y-48752095D01*
X117145904Y-48704476D01*
X116336380Y-48704476D01*
X116431619Y-48275904D02*
X116384000Y-48228285D01*
X116336380Y-48133047D01*
X116336380Y-47894952D01*
X116384000Y-47799714D01*
X116431619Y-47752095D01*
X116526857Y-47704476D01*
X116622095Y-47704476D01*
X116764952Y-47752095D01*
X117336380Y-48323523D01*
X117336380Y-47704476D01*
X88820666Y-30650380D02*
X88820666Y-31364666D01*
X88773047Y-31507523D01*
X88677809Y-31602761D01*
X88534952Y-31650380D01*
X88439714Y-31650380D01*
X89249238Y-30745619D02*
X89296857Y-30698000D01*
X89392095Y-30650380D01*
X89630190Y-30650380D01*
X89725428Y-30698000D01*
X89773047Y-30745619D01*
X89820666Y-30840857D01*
X89820666Y-30936095D01*
X89773047Y-31078952D01*
X89201619Y-31650380D01*
X89820666Y-31650380D01*
X120214380Y-73826666D02*
X119738190Y-74160000D01*
X120214380Y-74398095D02*
X119214380Y-74398095D01*
X119214380Y-74017142D01*
X119262000Y-73921904D01*
X119309619Y-73874285D01*
X119404857Y-73826666D01*
X119547714Y-73826666D01*
X119642952Y-73874285D01*
X119690571Y-73921904D01*
X119738190Y-74017142D01*
X119738190Y-74398095D01*
X119214380Y-73493333D02*
X119214380Y-72826666D01*
X120214380Y-73255238D01*
X124278380Y-73826666D02*
X123802190Y-74160000D01*
X124278380Y-74398095D02*
X123278380Y-74398095D01*
X123278380Y-74017142D01*
X123326000Y-73921904D01*
X123373619Y-73874285D01*
X123468857Y-73826666D01*
X123611714Y-73826666D01*
X123706952Y-73874285D01*
X123754571Y-73921904D01*
X123802190Y-74017142D01*
X123802190Y-74398095D01*
X123706952Y-73255238D02*
X123659333Y-73350476D01*
X123611714Y-73398095D01*
X123516476Y-73445714D01*
X123468857Y-73445714D01*
X123373619Y-73398095D01*
X123326000Y-73350476D01*
X123278380Y-73255238D01*
X123278380Y-73064761D01*
X123326000Y-72969523D01*
X123373619Y-72921904D01*
X123468857Y-72874285D01*
X123516476Y-72874285D01*
X123611714Y-72921904D01*
X123659333Y-72969523D01*
X123706952Y-73064761D01*
X123706952Y-73255238D01*
X123754571Y-73350476D01*
X123802190Y-73398095D01*
X123897428Y-73445714D01*
X124087904Y-73445714D01*
X124183142Y-73398095D01*
X124230761Y-73350476D01*
X124278380Y-73255238D01*
X124278380Y-73064761D01*
X124230761Y-72969523D01*
X124183142Y-72921904D01*
X124087904Y-72874285D01*
X123897428Y-72874285D01*
X123802190Y-72921904D01*
X123754571Y-72969523D01*
X123706952Y-73064761D01*
X128342380Y-73826666D02*
X127866190Y-74160000D01*
X128342380Y-74398095D02*
X127342380Y-74398095D01*
X127342380Y-74017142D01*
X127390000Y-73921904D01*
X127437619Y-73874285D01*
X127532857Y-73826666D01*
X127675714Y-73826666D01*
X127770952Y-73874285D01*
X127818571Y-73921904D01*
X127866190Y-74017142D01*
X127866190Y-74398095D01*
X128342380Y-73350476D02*
X128342380Y-73160000D01*
X128294761Y-73064761D01*
X128247142Y-73017142D01*
X128104285Y-72921904D01*
X127913809Y-72874285D01*
X127532857Y-72874285D01*
X127437619Y-72921904D01*
X127390000Y-72969523D01*
X127342380Y-73064761D01*
X127342380Y-73255238D01*
X127390000Y-73350476D01*
X127437619Y-73398095D01*
X127532857Y-73445714D01*
X127770952Y-73445714D01*
X127866190Y-73398095D01*
X127913809Y-73350476D01*
X127961428Y-73255238D01*
X127961428Y-73064761D01*
X127913809Y-72969523D01*
X127866190Y-72921904D01*
X127770952Y-72874285D01*
X132406380Y-74302857D02*
X131930190Y-74636190D01*
X132406380Y-74874285D02*
X131406380Y-74874285D01*
X131406380Y-74493333D01*
X131454000Y-74398095D01*
X131501619Y-74350476D01*
X131596857Y-74302857D01*
X131739714Y-74302857D01*
X131834952Y-74350476D01*
X131882571Y-74398095D01*
X131930190Y-74493333D01*
X131930190Y-74874285D01*
X132406380Y-73350476D02*
X132406380Y-73921904D01*
X132406380Y-73636190D02*
X131406380Y-73636190D01*
X131549238Y-73731428D01*
X131644476Y-73826666D01*
X131692095Y-73921904D01*
X131406380Y-72731428D02*
X131406380Y-72636190D01*
X131454000Y-72540952D01*
X131501619Y-72493333D01*
X131596857Y-72445714D01*
X131787333Y-72398095D01*
X132025428Y-72398095D01*
X132215904Y-72445714D01*
X132311142Y-72493333D01*
X132358761Y-72540952D01*
X132406380Y-72636190D01*
X132406380Y-72731428D01*
X132358761Y-72826666D01*
X132311142Y-72874285D01*
X132215904Y-72921904D01*
X132025428Y-72969523D01*
X131787333Y-72969523D01*
X131596857Y-72921904D01*
X131501619Y-72874285D01*
X131454000Y-72826666D01*
X131406380Y-72731428D01*
X136470380Y-74302857D02*
X135994190Y-74636190D01*
X136470380Y-74874285D02*
X135470380Y-74874285D01*
X135470380Y-74493333D01*
X135518000Y-74398095D01*
X135565619Y-74350476D01*
X135660857Y-74302857D01*
X135803714Y-74302857D01*
X135898952Y-74350476D01*
X135946571Y-74398095D01*
X135994190Y-74493333D01*
X135994190Y-74874285D01*
X136470380Y-73350476D02*
X136470380Y-73921904D01*
X136470380Y-73636190D02*
X135470380Y-73636190D01*
X135613238Y-73731428D01*
X135708476Y-73826666D01*
X135756095Y-73921904D01*
X136470380Y-72398095D02*
X136470380Y-72969523D01*
X136470380Y-72683809D02*
X135470380Y-72683809D01*
X135613238Y-72779047D01*
X135708476Y-72874285D01*
X135756095Y-72969523D01*
M02*
