G04 #@! TF.GenerationSoftware,KiCad,Pcbnew,(5.1.2)-2*
G04 #@! TF.CreationDate,2020-09-10T12:30:11+07:00*
G04 #@! TF.ProjectId,power,706f7765-722e-46b6-9963-61645f706362,rev?*
G04 #@! TF.SameCoordinates,Original*
G04 #@! TF.FileFunction,Legend,Top*
G04 #@! TF.FilePolarity,Positive*
%FSLAX46Y46*%
G04 Gerber Fmt 4.6, Leading zero omitted, Abs format (unit mm)*
G04 Created by KiCad (PCBNEW (5.1.2)-2) date 2020-09-10 12:30:11*
%MOMM*%
%LPD*%
G04 APERTURE LIST*
%ADD10C,0.120000*%
%ADD11C,0.150000*%
G04 APERTURE END LIST*
D10*
X162756000Y-74930462D02*
G75*
G03X157206000Y-73385170I-2990000J462D01*
G01*
X162756000Y-74929538D02*
G75*
G02X157206000Y-76474830I-2990000J-462D01*
G01*
X162266000Y-74930000D02*
G75*
G03X162266000Y-74930000I-2500000J0D01*
G01*
X157206000Y-73385000D02*
X157206000Y-76475000D01*
X95758000Y-80772000D02*
X99060000Y-80772000D01*
X99060000Y-80772000D02*
X99060000Y-63754000D01*
X99060000Y-63754000D02*
X96012000Y-63754000D01*
X96012000Y-63754000D02*
X95758000Y-63754000D01*
X95758000Y-63754000D02*
X95758000Y-80772000D01*
X93980000Y-60198000D02*
X93980000Y-50038000D01*
X92710000Y-60198000D02*
X100330000Y-60198000D01*
X100330000Y-60198000D02*
X100330000Y-50038000D01*
X100330000Y-50038000D02*
X92710000Y-50038000D01*
X92710000Y-50038000D02*
X92710000Y-60198000D01*
X102616000Y-50038000D02*
X153670000Y-50038000D01*
X153670000Y-50038000D02*
X153670000Y-78232000D01*
X153670000Y-78232000D02*
X102108000Y-78232000D01*
X102108000Y-78232000D02*
X102108000Y-50038000D01*
X102108000Y-50038000D02*
X102616000Y-50038000D01*
X155448000Y-70358000D02*
X163068000Y-70358000D01*
X163068000Y-50038000D02*
X155448000Y-50038000D01*
X161798000Y-50038000D02*
X161798000Y-70358000D01*
X155448000Y-70358000D02*
X155448000Y-50038000D01*
X163068000Y-70358000D02*
X163068000Y-50038000D01*
X130052000Y-78914000D02*
X130052000Y-84154000D01*
X130052000Y-84154000D02*
X145792000Y-84154000D01*
X145792000Y-84154000D02*
X145792000Y-78914000D01*
X145792000Y-78914000D02*
X130052000Y-78914000D01*
X129202000Y-81534000D02*
X130052000Y-81534000D01*
X146642000Y-81534000D02*
X145792000Y-81534000D01*
D11*
X159027904Y-71422380D02*
X159027904Y-70422380D01*
X159266000Y-70422380D01*
X159408857Y-70470000D01*
X159504095Y-70565238D01*
X159551714Y-70660476D01*
X159599333Y-70850952D01*
X159599333Y-70993809D01*
X159551714Y-71184285D01*
X159504095Y-71279523D01*
X159408857Y-71374761D01*
X159266000Y-71422380D01*
X159027904Y-71422380D01*
X160551714Y-71422380D02*
X159980285Y-71422380D01*
X160266000Y-71422380D02*
X160266000Y-70422380D01*
X160170761Y-70565238D01*
X160075523Y-70660476D01*
X159980285Y-70708095D01*
X97718571Y-72977333D02*
X97718571Y-73310666D01*
X98242380Y-73310666D02*
X97242380Y-73310666D01*
X97242380Y-72834476D01*
X98242380Y-71929714D02*
X98242380Y-72501142D01*
X98242380Y-72215428D02*
X97242380Y-72215428D01*
X97385238Y-72310666D01*
X97480476Y-72405904D01*
X97528095Y-72501142D01*
X101052380Y-55451333D02*
X101766666Y-55451333D01*
X101909523Y-55498952D01*
X102004761Y-55594190D01*
X102052380Y-55737047D01*
X102052380Y-55832285D01*
X102052380Y-54451333D02*
X102052380Y-55022761D01*
X102052380Y-54737047D02*
X101052380Y-54737047D01*
X101195238Y-54832285D01*
X101290476Y-54927523D01*
X101338095Y-55022761D01*
X127174666Y-62698380D02*
X127174666Y-63412666D01*
X127127047Y-63555523D01*
X127031809Y-63650761D01*
X126888952Y-63698380D01*
X126793714Y-63698380D01*
X127603238Y-62793619D02*
X127650857Y-62746000D01*
X127746095Y-62698380D01*
X127984190Y-62698380D01*
X128079428Y-62746000D01*
X128127047Y-62793619D01*
X128174666Y-62888857D01*
X128174666Y-62984095D01*
X128127047Y-63126952D01*
X127555619Y-63698380D01*
X128174666Y-63698380D01*
X153910380Y-60551333D02*
X154624666Y-60551333D01*
X154767523Y-60598952D01*
X154862761Y-60694190D01*
X154910380Y-60837047D01*
X154910380Y-60932285D01*
X153910380Y-60170380D02*
X153910380Y-59551333D01*
X154291333Y-59884666D01*
X154291333Y-59741809D01*
X154338952Y-59646571D01*
X154386571Y-59598952D01*
X154481809Y-59551333D01*
X154719904Y-59551333D01*
X154815142Y-59598952D01*
X154862761Y-59646571D01*
X154910380Y-59741809D01*
X154910380Y-60027523D01*
X154862761Y-60122761D01*
X154815142Y-60170380D01*
X137755333Y-78366380D02*
X137422000Y-77890190D01*
X137183904Y-78366380D02*
X137183904Y-77366380D01*
X137564857Y-77366380D01*
X137660095Y-77414000D01*
X137707714Y-77461619D01*
X137755333Y-77556857D01*
X137755333Y-77699714D01*
X137707714Y-77794952D01*
X137660095Y-77842571D01*
X137564857Y-77890190D01*
X137183904Y-77890190D01*
X138707714Y-78366380D02*
X138136285Y-78366380D01*
X138422000Y-78366380D02*
X138422000Y-77366380D01*
X138326761Y-77509238D01*
X138231523Y-77604476D01*
X138136285Y-77652095D01*
M02*
