G04 #@! TF.GenerationSoftware,KiCad,Pcbnew,(5.1.2)-2*
G04 #@! TF.CreationDate,2020-09-10T12:30:11+07:00*
G04 #@! TF.ProjectId,power,706f7765-722e-46b6-9963-61645f706362,rev?*
G04 #@! TF.SameCoordinates,Original*
G04 #@! TF.FileFunction,Soldermask,Top*
G04 #@! TF.FilePolarity,Negative*
%FSLAX46Y46*%
G04 Gerber Fmt 4.6, Leading zero omitted, Abs format (unit mm)*
G04 Created by KiCad (PCBNEW (5.1.2)-2) date 2020-09-10 12:30:11*
%MOMM*%
%LPD*%
G04 APERTURE LIST*
%ADD10C,0.100000*%
G04 APERTURE END LIST*
D10*
G36*
X128126903Y-80331075D02*
G01*
X128227236Y-80372634D01*
X128354571Y-80425378D01*
X128559466Y-80562285D01*
X128733715Y-80736534D01*
X128870622Y-80941429D01*
X128964925Y-81169097D01*
X129013000Y-81410787D01*
X129013000Y-81657213D01*
X128964925Y-81898903D01*
X128870622Y-82126571D01*
X128733715Y-82331466D01*
X128559466Y-82505715D01*
X128354571Y-82642622D01*
X128354570Y-82642623D01*
X128354569Y-82642623D01*
X128126903Y-82736925D01*
X127885214Y-82785000D01*
X127638786Y-82785000D01*
X127397097Y-82736925D01*
X127169431Y-82642623D01*
X127169430Y-82642623D01*
X127169429Y-82642622D01*
X126964534Y-82505715D01*
X126790285Y-82331466D01*
X126653378Y-82126571D01*
X126559075Y-81898903D01*
X126511000Y-81657213D01*
X126511000Y-81410787D01*
X126559075Y-81169097D01*
X126653378Y-80941429D01*
X126790285Y-80736534D01*
X126964534Y-80562285D01*
X127169429Y-80425378D01*
X127296765Y-80372634D01*
X127397097Y-80331075D01*
X127638786Y-80283000D01*
X127885214Y-80283000D01*
X128126903Y-80331075D01*
X128126903Y-80331075D01*
G37*
G36*
X148327239Y-80301101D02*
G01*
X148563053Y-80372634D01*
X148780381Y-80488799D01*
X148970871Y-80645129D01*
X149127201Y-80835619D01*
X149243366Y-81052947D01*
X149314899Y-81288761D01*
X149339053Y-81534000D01*
X149314899Y-81779239D01*
X149243366Y-82015053D01*
X149127201Y-82232381D01*
X148970871Y-82422871D01*
X148780381Y-82579201D01*
X148563053Y-82695366D01*
X148327239Y-82766899D01*
X148143457Y-82785000D01*
X148020543Y-82785000D01*
X147836761Y-82766899D01*
X147600947Y-82695366D01*
X147383619Y-82579201D01*
X147193129Y-82422871D01*
X147036799Y-82232381D01*
X146920634Y-82015053D01*
X146849101Y-81779239D01*
X146824947Y-81534000D01*
X146849101Y-81288761D01*
X146920634Y-81052947D01*
X147036799Y-80835619D01*
X147193129Y-80645129D01*
X147383619Y-80488799D01*
X147600947Y-80372634D01*
X147836761Y-80301101D01*
X148020543Y-80283000D01*
X148143457Y-80283000D01*
X148327239Y-80301101D01*
X148327239Y-80301101D01*
G37*
G36*
X97842564Y-78745389D02*
G01*
X98033833Y-78824615D01*
X98033835Y-78824616D01*
X98205973Y-78939635D01*
X98352365Y-79086027D01*
X98467385Y-79258167D01*
X98546611Y-79449436D01*
X98587000Y-79652484D01*
X98587000Y-79859516D01*
X98546611Y-80062564D01*
X98467385Y-80253833D01*
X98467384Y-80253835D01*
X98352365Y-80425973D01*
X98205973Y-80572365D01*
X98033835Y-80687384D01*
X98033834Y-80687385D01*
X98033833Y-80687385D01*
X97842564Y-80766611D01*
X97639516Y-80807000D01*
X97432484Y-80807000D01*
X97229436Y-80766611D01*
X97038167Y-80687385D01*
X97038166Y-80687385D01*
X97038165Y-80687384D01*
X96866027Y-80572365D01*
X96719635Y-80425973D01*
X96604616Y-80253835D01*
X96604615Y-80253833D01*
X96525389Y-80062564D01*
X96485000Y-79859516D01*
X96485000Y-79652484D01*
X96525389Y-79449436D01*
X96604615Y-79258167D01*
X96719635Y-79086027D01*
X96866027Y-78939635D01*
X97038165Y-78824616D01*
X97038167Y-78824615D01*
X97229436Y-78745389D01*
X97432484Y-78705000D01*
X97639516Y-78705000D01*
X97842564Y-78745389D01*
X97842564Y-78745389D01*
G37*
G36*
X161313395Y-74015546D02*
G01*
X161486466Y-74087234D01*
X161486467Y-74087235D01*
X161642227Y-74191310D01*
X161774690Y-74323773D01*
X161774691Y-74323775D01*
X161878766Y-74479534D01*
X161950454Y-74652605D01*
X161987000Y-74836333D01*
X161987000Y-75023667D01*
X161950454Y-75207395D01*
X161878766Y-75380466D01*
X161878765Y-75380467D01*
X161774690Y-75536227D01*
X161642227Y-75668690D01*
X161563818Y-75721081D01*
X161486466Y-75772766D01*
X161313395Y-75844454D01*
X161129667Y-75881000D01*
X160942333Y-75881000D01*
X160758605Y-75844454D01*
X160585534Y-75772766D01*
X160508182Y-75721081D01*
X160429773Y-75668690D01*
X160297310Y-75536227D01*
X160193235Y-75380467D01*
X160193234Y-75380466D01*
X160121546Y-75207395D01*
X160085000Y-75023667D01*
X160085000Y-74836333D01*
X160121546Y-74652605D01*
X160193234Y-74479534D01*
X160297309Y-74323775D01*
X160297310Y-74323773D01*
X160429773Y-74191310D01*
X160585533Y-74087235D01*
X160585534Y-74087234D01*
X160758605Y-74015546D01*
X160942333Y-73979000D01*
X161129667Y-73979000D01*
X161313395Y-74015546D01*
X161313395Y-74015546D01*
G37*
G36*
X159447000Y-75881000D02*
G01*
X157545000Y-75881000D01*
X157545000Y-73979000D01*
X159447000Y-73979000D01*
X159447000Y-75881000D01*
X159447000Y-75881000D01*
G37*
G36*
X149001000Y-73923000D02*
G01*
X146899000Y-73923000D01*
X146899000Y-71821000D01*
X149001000Y-71821000D01*
X149001000Y-73923000D01*
X149001000Y-73923000D01*
G37*
G36*
X109001000Y-73923000D02*
G01*
X106899000Y-73923000D01*
X106899000Y-71821000D01*
X109001000Y-71821000D01*
X109001000Y-73923000D01*
X109001000Y-73923000D01*
G37*
G36*
X160809000Y-69369000D02*
G01*
X157707000Y-69369000D01*
X157707000Y-66267000D01*
X160809000Y-66267000D01*
X160809000Y-69369000D01*
X160809000Y-69369000D01*
G37*
G36*
X97842564Y-63745389D02*
G01*
X98033833Y-63824615D01*
X98033835Y-63824616D01*
X98205973Y-63939635D01*
X98352365Y-64086027D01*
X98467385Y-64258167D01*
X98546611Y-64449436D01*
X98587000Y-64652484D01*
X98587000Y-64859516D01*
X98546611Y-65062564D01*
X98467385Y-65253833D01*
X98467384Y-65253835D01*
X98352365Y-65425973D01*
X98205973Y-65572365D01*
X98033835Y-65687384D01*
X98033834Y-65687385D01*
X98033833Y-65687385D01*
X97842564Y-65766611D01*
X97639516Y-65807000D01*
X97432484Y-65807000D01*
X97229436Y-65766611D01*
X97038167Y-65687385D01*
X97038166Y-65687385D01*
X97038165Y-65687384D01*
X96866027Y-65572365D01*
X96719635Y-65425973D01*
X96604616Y-65253835D01*
X96604615Y-65253833D01*
X96525389Y-65062564D01*
X96485000Y-64859516D01*
X96485000Y-64652484D01*
X96525389Y-64449436D01*
X96604615Y-64258167D01*
X96719635Y-64086027D01*
X96866027Y-63939635D01*
X97038165Y-63824616D01*
X97038167Y-63824615D01*
X97229436Y-63745389D01*
X97432484Y-63705000D01*
X97639516Y-63705000D01*
X97842564Y-63745389D01*
X97842564Y-63745389D01*
G37*
G36*
X159560585Y-61216802D02*
G01*
X159710410Y-61246604D01*
X159992674Y-61363521D01*
X160246705Y-61533259D01*
X160462741Y-61749295D01*
X160632479Y-62003326D01*
X160749396Y-62285590D01*
X160809000Y-62585240D01*
X160809000Y-62890760D01*
X160749396Y-63190410D01*
X160632479Y-63472674D01*
X160462741Y-63726705D01*
X160246705Y-63942741D01*
X159992674Y-64112479D01*
X159710410Y-64229396D01*
X159565778Y-64258165D01*
X159410761Y-64289000D01*
X159105239Y-64289000D01*
X158950222Y-64258165D01*
X158805590Y-64229396D01*
X158523326Y-64112479D01*
X158269295Y-63942741D01*
X158053259Y-63726705D01*
X157883521Y-63472674D01*
X157766604Y-63190410D01*
X157707000Y-62890760D01*
X157707000Y-62585240D01*
X157766604Y-62285590D01*
X157883521Y-62003326D01*
X158053259Y-61749295D01*
X158269295Y-61533259D01*
X158523326Y-61363521D01*
X158805590Y-61246604D01*
X158955415Y-61216802D01*
X159105239Y-61187000D01*
X159410761Y-61187000D01*
X159560585Y-61216802D01*
X159560585Y-61216802D01*
G37*
G36*
X159560585Y-56136802D02*
G01*
X159710410Y-56166604D01*
X159992674Y-56283521D01*
X160246705Y-56453259D01*
X160462741Y-56669295D01*
X160632479Y-56923326D01*
X160749396Y-57205590D01*
X160809000Y-57505240D01*
X160809000Y-57810760D01*
X160749396Y-58110410D01*
X160632479Y-58392674D01*
X160462741Y-58646705D01*
X160246705Y-58862741D01*
X159992674Y-59032479D01*
X159710410Y-59149396D01*
X159560585Y-59179198D01*
X159410761Y-59209000D01*
X159105239Y-59209000D01*
X158955415Y-59179198D01*
X158805590Y-59149396D01*
X158523326Y-59032479D01*
X158269295Y-58862741D01*
X158053259Y-58646705D01*
X157883521Y-58392674D01*
X157766604Y-58110410D01*
X157707000Y-57810760D01*
X157707000Y-57505240D01*
X157766604Y-57205590D01*
X157883521Y-56923326D01*
X158053259Y-56669295D01*
X158269295Y-56453259D01*
X158523326Y-56283521D01*
X158805590Y-56166604D01*
X158955415Y-56136802D01*
X159105239Y-56107000D01*
X159410761Y-56107000D01*
X159560585Y-56136802D01*
X159560585Y-56136802D01*
G37*
G36*
X96822585Y-56136802D02*
G01*
X96972410Y-56166604D01*
X97254674Y-56283521D01*
X97508705Y-56453259D01*
X97724741Y-56669295D01*
X97894479Y-56923326D01*
X98011396Y-57205590D01*
X98071000Y-57505240D01*
X98071000Y-57810760D01*
X98011396Y-58110410D01*
X97894479Y-58392674D01*
X97724741Y-58646705D01*
X97508705Y-58862741D01*
X97254674Y-59032479D01*
X96972410Y-59149396D01*
X96822585Y-59179198D01*
X96672761Y-59209000D01*
X96367239Y-59209000D01*
X96217415Y-59179198D01*
X96067590Y-59149396D01*
X95785326Y-59032479D01*
X95531295Y-58862741D01*
X95315259Y-58646705D01*
X95145521Y-58392674D01*
X95028604Y-58110410D01*
X94969000Y-57810760D01*
X94969000Y-57505240D01*
X95028604Y-57205590D01*
X95145521Y-56923326D01*
X95315259Y-56669295D01*
X95531295Y-56453259D01*
X95785326Y-56283521D01*
X96067590Y-56166604D01*
X96217415Y-56136802D01*
X96367239Y-56107000D01*
X96672761Y-56107000D01*
X96822585Y-56136802D01*
X96822585Y-56136802D01*
G37*
G36*
X109001000Y-56423000D02*
G01*
X106899000Y-56423000D01*
X106899000Y-54321000D01*
X109001000Y-54321000D01*
X109001000Y-56423000D01*
X109001000Y-56423000D01*
G37*
G36*
X149001000Y-56423000D02*
G01*
X146899000Y-56423000D01*
X146899000Y-54321000D01*
X149001000Y-54321000D01*
X149001000Y-56423000D01*
X149001000Y-56423000D01*
G37*
G36*
X98071000Y-54129000D02*
G01*
X94969000Y-54129000D01*
X94969000Y-51027000D01*
X98071000Y-51027000D01*
X98071000Y-54129000D01*
X98071000Y-54129000D01*
G37*
G36*
X159560585Y-51056802D02*
G01*
X159710410Y-51086604D01*
X159992674Y-51203521D01*
X160246705Y-51373259D01*
X160462741Y-51589295D01*
X160632479Y-51843326D01*
X160749396Y-52125590D01*
X160809000Y-52425240D01*
X160809000Y-52730760D01*
X160749396Y-53030410D01*
X160632479Y-53312674D01*
X160462741Y-53566705D01*
X160246705Y-53782741D01*
X159992674Y-53952479D01*
X159710410Y-54069396D01*
X159560585Y-54099198D01*
X159410761Y-54129000D01*
X159105239Y-54129000D01*
X158955415Y-54099198D01*
X158805590Y-54069396D01*
X158523326Y-53952479D01*
X158269295Y-53782741D01*
X158053259Y-53566705D01*
X157883521Y-53312674D01*
X157766604Y-53030410D01*
X157707000Y-52730760D01*
X157707000Y-52425240D01*
X157766604Y-52125590D01*
X157883521Y-51843326D01*
X158053259Y-51589295D01*
X158269295Y-51373259D01*
X158523326Y-51203521D01*
X158805590Y-51086604D01*
X158955415Y-51056802D01*
X159105239Y-51027000D01*
X159410761Y-51027000D01*
X159560585Y-51056802D01*
X159560585Y-51056802D01*
G37*
M02*
