G04 #@! TF.GenerationSoftware,KiCad,Pcbnew,(5.1.2)-2*
G04 #@! TF.CreationDate,2020-09-10T12:30:11+07:00*
G04 #@! TF.ProjectId,power,706f7765-722e-46b6-9963-61645f706362,rev?*
G04 #@! TF.SameCoordinates,Original*
G04 #@! TF.FileFunction,Copper,L2,Bot*
G04 #@! TF.FilePolarity,Positive*
%FSLAX46Y46*%
G04 Gerber Fmt 4.6, Leading zero omitted, Abs format (unit mm)*
G04 Created by KiCad (PCBNEW (5.1.2)-2) date 2020-09-10 12:30:11*
%MOMM*%
%LPD*%
G04 APERTURE LIST*
%ADD10R,1.800000X1.800000*%
%ADD11C,1.800000*%
%ADD12C,2.000000*%
%ADD13R,3.000000X3.000000*%
%ADD14C,3.000000*%
%ADD15R,2.000000X2.000000*%
%ADD16C,2.400000*%
%ADD17O,2.400000X2.400000*%
%ADD18C,1.500000*%
G04 APERTURE END LIST*
D10*
X158496000Y-74930000D03*
D11*
X161036000Y-74930000D03*
D12*
X97536000Y-79756000D03*
X97536000Y-64756000D03*
D13*
X96520000Y-52578000D03*
D14*
X96520000Y-57658000D03*
D15*
X107950000Y-55372000D03*
X107950000Y-72872000D03*
X147950000Y-55372000D03*
X147950000Y-72872000D03*
D14*
X159258000Y-62738000D03*
X159258000Y-57658000D03*
D13*
X159258000Y-67818000D03*
D14*
X159258000Y-52578000D03*
D16*
X127762000Y-81534000D03*
D17*
X148082000Y-81534000D03*
D14*
X91440000Y-48006000D03*
X93218000Y-83058000D03*
X163830000Y-48006000D03*
X161544000Y-83312000D03*
D18*
X107950000Y-70372000D02*
X107950000Y-72872000D01*
X112776000Y-65546000D02*
X107950000Y-70372000D01*
X112776000Y-54102000D02*
X112776000Y-65546000D01*
X110236000Y-51562000D02*
X112776000Y-54102000D01*
X102616000Y-51562000D02*
X110236000Y-51562000D01*
X96520000Y-57658000D02*
X102616000Y-51562000D01*
X121504176Y-72872000D02*
X124070176Y-75438000D01*
X107950000Y-72872000D02*
X121504176Y-72872000D01*
X124070176Y-75438000D02*
X155956000Y-75438000D01*
X156096000Y-74930000D02*
X158496000Y-74930000D01*
X155956000Y-75070000D02*
X156096000Y-74930000D01*
X155956000Y-75438000D02*
X155956000Y-75070000D01*
X149779056Y-81534000D02*
X148082000Y-81534000D01*
X155704792Y-81534000D02*
X149779056Y-81534000D01*
X161036000Y-76202792D02*
X155704792Y-81534000D01*
X161036000Y-74930000D02*
X161036000Y-76202792D01*
X107950000Y-57872000D02*
X103124000Y-62698000D01*
X107950000Y-55372000D02*
X107950000Y-57872000D01*
X103124000Y-62698000D02*
X103124000Y-75946000D01*
X99314000Y-79756000D02*
X97536000Y-79756000D01*
X103124000Y-75946000D02*
X99314000Y-79756000D01*
X124286944Y-79756000D02*
X99314000Y-79756000D01*
X126064944Y-81534000D02*
X124286944Y-79756000D01*
X127762000Y-81534000D02*
X126064944Y-81534000D01*
X93520000Y-52578000D02*
X92456000Y-53642000D01*
X96520000Y-52578000D02*
X93520000Y-52578000D01*
X92456000Y-59676000D02*
X97536000Y-64756000D01*
X92456000Y-53642000D02*
X92456000Y-59676000D01*
X150744000Y-52578000D02*
X147950000Y-55372000D01*
X159258000Y-52578000D02*
X150744000Y-52578000D01*
X147950000Y-57872000D02*
X152816000Y-62738000D01*
X147950000Y-55372000D02*
X147950000Y-57872000D01*
X152816000Y-62738000D02*
X159258000Y-62738000D01*
X153004000Y-67818000D02*
X147950000Y-72872000D01*
X159258000Y-67818000D02*
X153004000Y-67818000D01*
X159258000Y-57658000D02*
X162560000Y-57658000D01*
X162258000Y-67818000D02*
X159258000Y-67818000D01*
X162560000Y-67516000D02*
X162258000Y-67818000D01*
X162560000Y-57658000D02*
X162560000Y-67516000D01*
M02*
