M48
; DRILL file {KiCad (5.1.2)-2} date 9/10/2020 12:30:15 PM
; FORMAT={2:4/ absolute / inch / suppress leading zeros}
; #@! TF.CreationDate,2020-09-10T12:30:15+07:00
; #@! TF.GenerationSoftware,Kicad,Pcbnew,(5.1.2)-2
FMAT,2
INCH,TZ
T1C0.0300
T2C0.0354
T3C0.0394
T4C0.0472
T5C0.0591
T6C0.0598
%
G90
G05
T1
X38400Y-25494
X38400Y-31400
T2
X62400Y-29500
X63400Y-29500
T3
X42500Y-21800
X42500Y-28690
X58248Y-21800
X58248Y-28690
T4
X50300Y-32100
X58300Y-32100
T5
X36000Y-18900
X36700Y-32700
X63600Y-32800
X64500Y-18900
T6
X62700Y-20700
X62700Y-22700
X62700Y-24700
X62700Y-26700
X38000Y-20700
X38000Y-22700
T0
M30
