M48
; DRILL file {KiCad (5.1.2)-2} date 8/26/2019 5:00:11 PM
; FORMAT={-:-/ absolute / metric / decimal}
; #@! TF.CreationDate,2019-08-26T17:00:11+07:00
; #@! TF.GenerationSoftware,Kicad,Pcbnew,(5.1.2)-2
FMAT,2
METRIC
T1C0.700
T2C0.800
T3C0.900
T4C1.200
T5C1.520
T6C1.650
T7C1.780
%
G90
G05
T1
X109.728Y-101.092
X109.728Y-103.632
X110.998Y-102.362
X107.95Y-145.542
X109.22Y-144.272
X109.22Y-146.812
X109.728Y-121.412
X109.728Y-123.952
X110.998Y-122.682
X108.458Y-159.766
X109.728Y-158.496
X109.728Y-161.036
X109.728Y-114.3
X109.728Y-116.84
X110.998Y-115.57
X109.728Y-93.98
X109.728Y-96.52
X110.998Y-95.25
X109.728Y-107.188
X109.728Y-109.728
X110.998Y-108.458
X108.458Y-152.654
X109.728Y-151.384
X109.728Y-153.924
X108.458Y-166.878
X109.728Y-165.608
X109.728Y-168.148
X109.728Y-128.27
X109.728Y-130.81
X110.998Y-129.54
X109.728Y-86.868
X109.728Y-89.408
X110.998Y-88.138
T2
X140.716Y-113.288
X140.716Y-115.828
X140.716Y-118.368
X140.716Y-120.908
X140.716Y-123.448
X140.716Y-125.988
X140.716Y-128.528
X140.716Y-131.068
X140.716Y-133.608
X140.716Y-136.148
X140.716Y-140.208
X140.716Y-142.748
X140.716Y-145.288
X140.716Y-147.828
X140.716Y-150.368
X140.716Y-152.908
X140.716Y-155.448
X140.716Y-157.988
X188.976Y-122.428
X188.976Y-124.968
X188.976Y-127.508
X188.976Y-130.048
X188.976Y-132.588
X188.976Y-135.128
X188.976Y-137.668
X188.976Y-140.208
X188.976Y-145.288
X188.976Y-147.828
X188.976Y-150.368
X188.976Y-152.908
X188.976Y-155.448
X188.976Y-157.988
T3
X125.984Y-87.884
X128.484Y-87.884
X139.86Y-166.624
X142.36Y-166.624
X144.86Y-166.624
X147.36Y-166.624
X149.86Y-166.624
X78.232Y-90.196
X78.232Y-92.696
X78.232Y-95.196
X78.232Y-97.696
X78.232Y-100.196
X78.232Y-102.696
X78.232Y-105.196
X78.232Y-107.696
X98.552Y-90.196
X98.552Y-92.696
X98.552Y-95.196
X98.552Y-97.696
X98.552Y-100.196
X98.552Y-102.696
X98.552Y-105.196
X98.552Y-107.696
X88.392Y-90.196
X88.392Y-92.696
X88.392Y-95.196
X88.392Y-97.696
X88.392Y-100.196
X88.392Y-102.696
X88.392Y-105.196
X88.392Y-107.696
X67.564Y-90.196
X67.564Y-92.696
X67.564Y-95.196
X67.564Y-97.696
X67.564Y-100.196
X67.564Y-102.696
X67.564Y-105.196
X67.564Y-107.696
X156.156Y-166.624
X158.656Y-166.624
X161.156Y-166.624
X163.656Y-166.624
X166.156Y-166.624
X168.656Y-166.624
X175.26Y-167.132
X177.76Y-167.132
X180.26Y-167.132
T4
X76.2Y-119.38
X88.9Y-119.38
X119.888Y-141.732
X132.588Y-141.732
X118.872Y-167.64
X131.572Y-167.64
X119.888Y-137.16
X132.588Y-137.16
X119.888Y-99.06
X132.588Y-99.06
X76.2Y-129.54
X88.9Y-129.54
X76.2Y-113.792
X88.9Y-113.792
X76.2Y-124.968
X88.9Y-124.968
X118.872Y-160.528
X131.572Y-160.528
X76.2Y-139.192
X88.9Y-139.192
X118.872Y-147.32
X131.572Y-147.32
X118.872Y-152.908
X131.572Y-152.908
X119.888Y-104.648
X132.588Y-104.648
X119.888Y-132.08
X132.588Y-132.08
X76.2Y-134.112
X88.9Y-134.112
X76.2Y-143.764
X88.9Y-143.764
X119.888Y-127.508
X132.588Y-127.508
X119.888Y-122.936
X132.588Y-122.936
T5
X91.44Y-75.692
X96.52Y-75.692
X105.156Y-75.692
X110.236Y-75.692
T6
X186.032Y-167.64
X189.992Y-167.64
T7
X140.716Y-109.728
X155.956Y-160.528
X183.896Y-160.528
X188.976Y-108.458
T0
M30
