M48
; DRILL file {KiCad (5.1.2)-2} date 10/1/2019 3:18:11 PM
; FORMAT={2:4/ absolute / inch / suppress leading zeros}
; #@! TF.CreationDate,2019-10-01T15:18:11-10:00
; #@! TF.GenerationSoftware,Kicad,Pcbnew,(5.1.2)-2
FMAT,2
INCH,TZ
T1C0.0354
%
G90
G05
T1
X35500Y-40500
X35500Y-41484
X35500Y-42469
X35500Y-43453
X35500Y-44437
X54500Y-37000
X54500Y-37984
X54500Y-38969
X54500Y-39953
X54500Y-40937
X54500Y-41921
X54500Y-42906
X54500Y-43890
X35500Y-31531
X35500Y-32516
X35500Y-33500
X35500Y-34484
X35500Y-35469
X35500Y-36453
X35500Y-37437
X35500Y-38421
X43000Y-36031
X43000Y-38000
X44500Y-32000
X44500Y-34000
X45500Y-38500
X45500Y-39248
X54500Y-26594
X54500Y-27579
X54500Y-28563
X54500Y-29547
X54500Y-30531
X54500Y-31516
X54500Y-32500
X54500Y-33484
X54500Y-34469
X54500Y-35453
X47500Y-30500
X47500Y-31500
X47500Y-32500
X47500Y-33500
X47500Y-34500
X47500Y-35500
X47500Y-36500
X47500Y-37500
X47500Y-38500
X47500Y-39500
X47500Y-40500
X47500Y-41500
X47500Y-42500
X47500Y-43500
X50500Y-30500
X50500Y-31500
X50500Y-32500
X50500Y-33500
X50500Y-34500
X50500Y-35500
X50500Y-36500
X50500Y-37500
X50500Y-38500
X50500Y-39500
X50500Y-40500
X50500Y-41500
X50500Y-42500
X50500Y-43500
X43000Y-39000
X43000Y-40969
T0
M30
