G04 #@! TF.GenerationSoftware,KiCad,Pcbnew,(5.1.2)-2*
G04 #@! TF.CreationDate,2019-10-01T15:18:02-10:00*
G04 #@! TF.ProjectId,bootloader_atmega328,626f6f74-6c6f-4616-9465-725f61746d65,rev?*
G04 #@! TF.SameCoordinates,Original*
G04 #@! TF.FileFunction,Copper,L1,Top*
G04 #@! TF.FilePolarity,Positive*
%FSLAX46Y46*%
G04 Gerber Fmt 4.6, Leading zero omitted, Abs format (unit mm)*
G04 Created by KiCad (PCBNEW (5.1.2)-2) date 2019-10-01 15:18:02*
%MOMM*%
%LPD*%
G04 APERTURE LIST*
%ADD10C,1.500000*%
%ADD11C,0.100000*%
%ADD12C,1.000000*%
G04 APERTURE END LIST*
D10*
X109220000Y-91520000D03*
D11*
G36*
X107970000Y-90770000D02*
G01*
X110470000Y-90770000D01*
X110470000Y-92270000D01*
X107970000Y-92270000D01*
X107970000Y-90770000D01*
X107970000Y-90770000D01*
G37*
D10*
X109220000Y-96520000D03*
D11*
G36*
X107970000Y-95770000D02*
G01*
X110470000Y-95770000D01*
X110470000Y-97270000D01*
X107970000Y-97270000D01*
X107970000Y-95770000D01*
X107970000Y-95770000D01*
G37*
D10*
X109220000Y-104060000D03*
D11*
G36*
X107970000Y-103310000D02*
G01*
X110470000Y-103310000D01*
X110470000Y-104810000D01*
X107970000Y-104810000D01*
X107970000Y-103310000D01*
X107970000Y-103310000D01*
G37*
D10*
X109220000Y-99060000D03*
D11*
G36*
X107970000Y-98310000D02*
G01*
X110470000Y-98310000D01*
X110470000Y-99810000D01*
X107970000Y-99810000D01*
X107970000Y-98310000D01*
X107970000Y-98310000D01*
G37*
D10*
X90170000Y-80090000D03*
D11*
G36*
X88920000Y-79340000D02*
G01*
X91420000Y-79340000D01*
X91420000Y-80840000D01*
X88920000Y-80840000D01*
X88920000Y-79340000D01*
X88920000Y-79340000D01*
G37*
D10*
X90170000Y-82590000D03*
D11*
G36*
X88920000Y-81840000D02*
G01*
X91420000Y-81840000D01*
X91420000Y-83340000D01*
X88920000Y-83340000D01*
X88920000Y-81840000D01*
X88920000Y-81840000D01*
G37*
D10*
X90170000Y-85090000D03*
D11*
G36*
X88920000Y-84340000D02*
G01*
X91420000Y-84340000D01*
X91420000Y-85840000D01*
X88920000Y-85840000D01*
X88920000Y-84340000D01*
X88920000Y-84340000D01*
G37*
D10*
X90170000Y-87590000D03*
D11*
G36*
X88920000Y-86840000D02*
G01*
X91420000Y-86840000D01*
X91420000Y-88340000D01*
X88920000Y-88340000D01*
X88920000Y-86840000D01*
X88920000Y-86840000D01*
G37*
D10*
X90170000Y-90090000D03*
D11*
G36*
X88920000Y-89340000D02*
G01*
X91420000Y-89340000D01*
X91420000Y-90840000D01*
X88920000Y-90840000D01*
X88920000Y-89340000D01*
X88920000Y-89340000D01*
G37*
D10*
X90170000Y-92590000D03*
D11*
G36*
X88920000Y-91840000D02*
G01*
X91420000Y-91840000D01*
X91420000Y-93340000D01*
X88920000Y-93340000D01*
X88920000Y-91840000D01*
X88920000Y-91840000D01*
G37*
D10*
X90170000Y-95090000D03*
D11*
G36*
X88920000Y-94340000D02*
G01*
X91420000Y-94340000D01*
X91420000Y-95840000D01*
X88920000Y-95840000D01*
X88920000Y-94340000D01*
X88920000Y-94340000D01*
G37*
D10*
X90170000Y-97590000D03*
D11*
G36*
X88920000Y-96840000D02*
G01*
X91420000Y-96840000D01*
X91420000Y-98340000D01*
X88920000Y-98340000D01*
X88920000Y-96840000D01*
X88920000Y-96840000D01*
G37*
D10*
X90170000Y-102870000D03*
D11*
G36*
X88920000Y-102120000D02*
G01*
X91420000Y-102120000D01*
X91420000Y-103620000D01*
X88920000Y-103620000D01*
X88920000Y-102120000D01*
X88920000Y-102120000D01*
G37*
D10*
X90170000Y-105370000D03*
D11*
G36*
X88920000Y-104620000D02*
G01*
X91420000Y-104620000D01*
X91420000Y-106120000D01*
X88920000Y-106120000D01*
X88920000Y-104620000D01*
X88920000Y-104620000D01*
G37*
D10*
X90170000Y-107870000D03*
D11*
G36*
X88920000Y-107120000D02*
G01*
X91420000Y-107120000D01*
X91420000Y-108620000D01*
X88920000Y-108620000D01*
X88920000Y-107120000D01*
X88920000Y-107120000D01*
G37*
D10*
X90170000Y-110370000D03*
D11*
G36*
X88920000Y-109620000D02*
G01*
X91420000Y-109620000D01*
X91420000Y-111120000D01*
X88920000Y-111120000D01*
X88920000Y-109620000D01*
X88920000Y-109620000D01*
G37*
D10*
X90170000Y-112870000D03*
D11*
G36*
X88920000Y-112120000D02*
G01*
X91420000Y-112120000D01*
X91420000Y-113620000D01*
X88920000Y-113620000D01*
X88920000Y-112120000D01*
X88920000Y-112120000D01*
G37*
D10*
X138430000Y-90050000D03*
D11*
G36*
X139680000Y-90800000D02*
G01*
X137180000Y-90800000D01*
X137180000Y-89300000D01*
X139680000Y-89300000D01*
X139680000Y-90800000D01*
X139680000Y-90800000D01*
G37*
D10*
X138430000Y-87550000D03*
D11*
G36*
X139680000Y-88300000D02*
G01*
X137180000Y-88300000D01*
X137180000Y-86800000D01*
X139680000Y-86800000D01*
X139680000Y-88300000D01*
X139680000Y-88300000D01*
G37*
D10*
X138430000Y-85050000D03*
D11*
G36*
X139680000Y-85800000D02*
G01*
X137180000Y-85800000D01*
X137180000Y-84300000D01*
X139680000Y-84300000D01*
X139680000Y-85800000D01*
X139680000Y-85800000D01*
G37*
D10*
X138430000Y-82550000D03*
D11*
G36*
X139680000Y-83300000D02*
G01*
X137180000Y-83300000D01*
X137180000Y-81800000D01*
X139680000Y-81800000D01*
X139680000Y-83300000D01*
X139680000Y-83300000D01*
G37*
D10*
X138430000Y-80050000D03*
D11*
G36*
X139680000Y-80800000D02*
G01*
X137180000Y-80800000D01*
X137180000Y-79300000D01*
X139680000Y-79300000D01*
X139680000Y-80800000D01*
X139680000Y-80800000D01*
G37*
D10*
X138430000Y-77550000D03*
D11*
G36*
X139680000Y-78300000D02*
G01*
X137180000Y-78300000D01*
X137180000Y-76800000D01*
X139680000Y-76800000D01*
X139680000Y-78300000D01*
X139680000Y-78300000D01*
G37*
D10*
X138430000Y-75050000D03*
D11*
G36*
X139680000Y-75800000D02*
G01*
X137180000Y-75800000D01*
X137180000Y-74300000D01*
X139680000Y-74300000D01*
X139680000Y-75800000D01*
X139680000Y-75800000D01*
G37*
D10*
X138430000Y-72550000D03*
D11*
G36*
X139680000Y-73300000D02*
G01*
X137180000Y-73300000D01*
X137180000Y-71800000D01*
X139680000Y-71800000D01*
X139680000Y-73300000D01*
X139680000Y-73300000D01*
G37*
D10*
X138430000Y-70050000D03*
D11*
G36*
X139680000Y-70800000D02*
G01*
X137180000Y-70800000D01*
X137180000Y-69300000D01*
X139680000Y-69300000D01*
X139680000Y-70800000D01*
X139680000Y-70800000D01*
G37*
D10*
X138430000Y-67550000D03*
D11*
G36*
X139680000Y-68300000D02*
G01*
X137180000Y-68300000D01*
X137180000Y-66800000D01*
X139680000Y-66800000D01*
X139680000Y-68300000D01*
X139680000Y-68300000D01*
G37*
D10*
X138430000Y-93980000D03*
D11*
G36*
X139680000Y-94730000D02*
G01*
X137180000Y-94730000D01*
X137180000Y-93230000D01*
X139680000Y-93230000D01*
X139680000Y-94730000D01*
X139680000Y-94730000D01*
G37*
D10*
X138430000Y-96480000D03*
D11*
G36*
X139680000Y-97230000D02*
G01*
X137180000Y-97230000D01*
X137180000Y-95730000D01*
X139680000Y-95730000D01*
X139680000Y-97230000D01*
X139680000Y-97230000D01*
G37*
D10*
X138430000Y-98980000D03*
D11*
G36*
X139680000Y-99730000D02*
G01*
X137180000Y-99730000D01*
X137180000Y-98230000D01*
X139680000Y-98230000D01*
X139680000Y-99730000D01*
X139680000Y-99730000D01*
G37*
D10*
X138430000Y-101480000D03*
D11*
G36*
X139680000Y-102230000D02*
G01*
X137180000Y-102230000D01*
X137180000Y-100730000D01*
X139680000Y-100730000D01*
X139680000Y-102230000D01*
X139680000Y-102230000D01*
G37*
D10*
X138430000Y-103980000D03*
D11*
G36*
X139680000Y-104730000D02*
G01*
X137180000Y-104730000D01*
X137180000Y-103230000D01*
X139680000Y-103230000D01*
X139680000Y-104730000D01*
X139680000Y-104730000D01*
G37*
D10*
X138430000Y-106480000D03*
D11*
G36*
X139680000Y-107230000D02*
G01*
X137180000Y-107230000D01*
X137180000Y-105730000D01*
X139680000Y-105730000D01*
X139680000Y-107230000D01*
X139680000Y-107230000D01*
G37*
D10*
X138430000Y-108980000D03*
D11*
G36*
X139680000Y-109730000D02*
G01*
X137180000Y-109730000D01*
X137180000Y-108230000D01*
X139680000Y-108230000D01*
X139680000Y-109730000D01*
X139680000Y-109730000D01*
G37*
D10*
X138430000Y-111480000D03*
D11*
G36*
X139680000Y-112230000D02*
G01*
X137180000Y-112230000D01*
X137180000Y-110730000D01*
X139680000Y-110730000D01*
X139680000Y-112230000D01*
X139680000Y-112230000D01*
G37*
D10*
X113030000Y-81280000D03*
D11*
G36*
X111780000Y-80530000D02*
G01*
X114280000Y-80530000D01*
X114280000Y-82030000D01*
X111780000Y-82030000D01*
X111780000Y-80530000D01*
X111780000Y-80530000D01*
G37*
D10*
X113030000Y-86360000D03*
D11*
G36*
X111780000Y-85610000D02*
G01*
X114280000Y-85610000D01*
X114280000Y-87110000D01*
X111780000Y-87110000D01*
X111780000Y-85610000D01*
X111780000Y-85610000D01*
G37*
D10*
X120650000Y-77470000D03*
D11*
G36*
X119400000Y-78220000D02*
G01*
X119400000Y-76720000D01*
X121900000Y-76720000D01*
X121900000Y-78220000D01*
X119400000Y-78220000D01*
X119400000Y-78220000D01*
G37*
D10*
X128270000Y-110490000D03*
D11*
G36*
X127020000Y-111240000D02*
G01*
X127020000Y-109740000D01*
X129520000Y-109740000D01*
X129520000Y-111240000D01*
X127020000Y-111240000D01*
X127020000Y-111240000D01*
G37*
D10*
X120650000Y-80010000D03*
D11*
G36*
X119400000Y-80760000D02*
G01*
X119400000Y-79260000D01*
X121900000Y-79260000D01*
X121900000Y-80760000D01*
X119400000Y-80760000D01*
X119400000Y-80760000D01*
G37*
D10*
X128270000Y-107950000D03*
D11*
G36*
X127020000Y-108700000D02*
G01*
X127020000Y-107200000D01*
X129520000Y-107200000D01*
X129520000Y-108700000D01*
X127020000Y-108700000D01*
X127020000Y-108700000D01*
G37*
D10*
X120650000Y-82550000D03*
D11*
G36*
X119400000Y-83300000D02*
G01*
X119400000Y-81800000D01*
X121900000Y-81800000D01*
X121900000Y-83300000D01*
X119400000Y-83300000D01*
X119400000Y-83300000D01*
G37*
D10*
X128270000Y-105410000D03*
D11*
G36*
X127020000Y-106160000D02*
G01*
X127020000Y-104660000D01*
X129520000Y-104660000D01*
X129520000Y-106160000D01*
X127020000Y-106160000D01*
X127020000Y-106160000D01*
G37*
D10*
X120650000Y-85090000D03*
D11*
G36*
X119400000Y-85840000D02*
G01*
X119400000Y-84340000D01*
X121900000Y-84340000D01*
X121900000Y-85840000D01*
X119400000Y-85840000D01*
X119400000Y-85840000D01*
G37*
D10*
X128270000Y-102870000D03*
D11*
G36*
X127020000Y-103620000D02*
G01*
X127020000Y-102120000D01*
X129520000Y-102120000D01*
X129520000Y-103620000D01*
X127020000Y-103620000D01*
X127020000Y-103620000D01*
G37*
D10*
X120650000Y-87630000D03*
D11*
G36*
X119400000Y-88380000D02*
G01*
X119400000Y-86880000D01*
X121900000Y-86880000D01*
X121900000Y-88380000D01*
X119400000Y-88380000D01*
X119400000Y-88380000D01*
G37*
D10*
X128270000Y-100330000D03*
D11*
G36*
X127020000Y-101080000D02*
G01*
X127020000Y-99580000D01*
X129520000Y-99580000D01*
X129520000Y-101080000D01*
X127020000Y-101080000D01*
X127020000Y-101080000D01*
G37*
D10*
X120650000Y-90170000D03*
D11*
G36*
X119400000Y-90920000D02*
G01*
X119400000Y-89420000D01*
X121900000Y-89420000D01*
X121900000Y-90920000D01*
X119400000Y-90920000D01*
X119400000Y-90920000D01*
G37*
D10*
X128270000Y-97790000D03*
D11*
G36*
X127020000Y-98540000D02*
G01*
X127020000Y-97040000D01*
X129520000Y-97040000D01*
X129520000Y-98540000D01*
X127020000Y-98540000D01*
X127020000Y-98540000D01*
G37*
D10*
X120650000Y-92710000D03*
D11*
G36*
X119400000Y-93460000D02*
G01*
X119400000Y-91960000D01*
X121900000Y-91960000D01*
X121900000Y-93460000D01*
X119400000Y-93460000D01*
X119400000Y-93460000D01*
G37*
D10*
X128270000Y-95250000D03*
D11*
G36*
X127020000Y-96000000D02*
G01*
X127020000Y-94500000D01*
X129520000Y-94500000D01*
X129520000Y-96000000D01*
X127020000Y-96000000D01*
X127020000Y-96000000D01*
G37*
D10*
X120650000Y-95250000D03*
D11*
G36*
X119400000Y-96000000D02*
G01*
X119400000Y-94500000D01*
X121900000Y-94500000D01*
X121900000Y-96000000D01*
X119400000Y-96000000D01*
X119400000Y-96000000D01*
G37*
D10*
X128270000Y-92710000D03*
D11*
G36*
X127020000Y-93460000D02*
G01*
X127020000Y-91960000D01*
X129520000Y-91960000D01*
X129520000Y-93460000D01*
X127020000Y-93460000D01*
X127020000Y-93460000D01*
G37*
D10*
X120650000Y-97790000D03*
D11*
G36*
X119400000Y-98540000D02*
G01*
X119400000Y-97040000D01*
X121900000Y-97040000D01*
X121900000Y-98540000D01*
X119400000Y-98540000D01*
X119400000Y-98540000D01*
G37*
D10*
X128270000Y-90170000D03*
D11*
G36*
X127020000Y-90920000D02*
G01*
X127020000Y-89420000D01*
X129520000Y-89420000D01*
X129520000Y-90920000D01*
X127020000Y-90920000D01*
X127020000Y-90920000D01*
G37*
D10*
X120650000Y-100330000D03*
D11*
G36*
X119400000Y-101080000D02*
G01*
X119400000Y-99580000D01*
X121900000Y-99580000D01*
X121900000Y-101080000D01*
X119400000Y-101080000D01*
X119400000Y-101080000D01*
G37*
D10*
X128270000Y-87630000D03*
D11*
G36*
X127020000Y-88380000D02*
G01*
X127020000Y-86880000D01*
X129520000Y-86880000D01*
X129520000Y-88380000D01*
X127020000Y-88380000D01*
X127020000Y-88380000D01*
G37*
D10*
X120650000Y-102870000D03*
D11*
G36*
X119400000Y-103620000D02*
G01*
X119400000Y-102120000D01*
X121900000Y-102120000D01*
X121900000Y-103620000D01*
X119400000Y-103620000D01*
X119400000Y-103620000D01*
G37*
D10*
X128270000Y-85090000D03*
D11*
G36*
X127020000Y-85840000D02*
G01*
X127020000Y-84340000D01*
X129520000Y-84340000D01*
X129520000Y-85840000D01*
X127020000Y-85840000D01*
X127020000Y-85840000D01*
G37*
D10*
X120650000Y-105410000D03*
D11*
G36*
X119400000Y-106160000D02*
G01*
X119400000Y-104660000D01*
X121900000Y-104660000D01*
X121900000Y-106160000D01*
X119400000Y-106160000D01*
X119400000Y-106160000D01*
G37*
D10*
X128270000Y-82550000D03*
D11*
G36*
X127020000Y-83300000D02*
G01*
X127020000Y-81800000D01*
X129520000Y-81800000D01*
X129520000Y-83300000D01*
X127020000Y-83300000D01*
X127020000Y-83300000D01*
G37*
D10*
X120650000Y-107950000D03*
D11*
G36*
X119400000Y-108700000D02*
G01*
X119400000Y-107200000D01*
X121900000Y-107200000D01*
X121900000Y-108700000D01*
X119400000Y-108700000D01*
X119400000Y-108700000D01*
G37*
D10*
X128270000Y-80010000D03*
D11*
G36*
X127020000Y-80760000D02*
G01*
X127020000Y-79260000D01*
X129520000Y-79260000D01*
X129520000Y-80760000D01*
X127020000Y-80760000D01*
X127020000Y-80760000D01*
G37*
D10*
X120650000Y-110490000D03*
D11*
G36*
X119400000Y-111240000D02*
G01*
X119400000Y-109740000D01*
X121900000Y-109740000D01*
X121900000Y-111240000D01*
X119400000Y-111240000D01*
X119400000Y-111240000D01*
G37*
D10*
X128270000Y-77470000D03*
D11*
G36*
X127020000Y-78220000D02*
G01*
X127020000Y-76720000D01*
X129520000Y-76720000D01*
X129520000Y-78220000D01*
X127020000Y-78220000D01*
X127020000Y-78220000D01*
G37*
D10*
X115570000Y-97790000D03*
D11*
G36*
X114320000Y-97040000D02*
G01*
X116820000Y-97040000D01*
X116820000Y-98540000D01*
X114320000Y-98540000D01*
X114320000Y-97040000D01*
X114320000Y-97040000D01*
G37*
D10*
X115570000Y-99690000D03*
D11*
G36*
X114320000Y-98940000D02*
G01*
X116820000Y-98940000D01*
X116820000Y-100440000D01*
X114320000Y-100440000D01*
X114320000Y-98940000D01*
X114320000Y-98940000D01*
G37*
D12*
X120650000Y-95250000D02*
X121920000Y-95250000D01*
X124460000Y-92710000D02*
X128270000Y-92710000D01*
X121920000Y-95250000D02*
X124460000Y-92710000D01*
M02*
