G04 #@! TF.GenerationSoftware,KiCad,Pcbnew,(5.1.2)-2*
G04 #@! TF.CreationDate,2019-10-01T15:18:02-10:00*
G04 #@! TF.ProjectId,bootloader_atmega328,626f6f74-6c6f-4616-9465-725f61746d65,rev?*
G04 #@! TF.SameCoordinates,Original*
G04 #@! TF.FileFunction,Copper,L2,Bot*
G04 #@! TF.FilePolarity,Positive*
%FSLAX46Y46*%
G04 Gerber Fmt 4.6, Leading zero omitted, Abs format (unit mm)*
G04 Created by KiCad (PCBNEW (5.1.2)-2) date 2019-10-01 15:18:02*
%MOMM*%
%LPD*%
G04 APERTURE LIST*
%ADD10C,1.500000*%
%ADD11C,0.100000*%
%ADD12C,1.000000*%
%ADD13C,0.254000*%
G04 APERTURE END LIST*
D10*
X109220000Y-91520000D03*
D11*
G36*
X107970000Y-90770000D02*
G01*
X110470000Y-90770000D01*
X110470000Y-92270000D01*
X107970000Y-92270000D01*
X107970000Y-90770000D01*
X107970000Y-90770000D01*
G37*
D10*
X109220000Y-96520000D03*
D11*
G36*
X107970000Y-95770000D02*
G01*
X110470000Y-95770000D01*
X110470000Y-97270000D01*
X107970000Y-97270000D01*
X107970000Y-95770000D01*
X107970000Y-95770000D01*
G37*
D10*
X109220000Y-104060000D03*
D11*
G36*
X107970000Y-103310000D02*
G01*
X110470000Y-103310000D01*
X110470000Y-104810000D01*
X107970000Y-104810000D01*
X107970000Y-103310000D01*
X107970000Y-103310000D01*
G37*
D10*
X109220000Y-99060000D03*
D11*
G36*
X107970000Y-98310000D02*
G01*
X110470000Y-98310000D01*
X110470000Y-99810000D01*
X107970000Y-99810000D01*
X107970000Y-98310000D01*
X107970000Y-98310000D01*
G37*
D10*
X90170000Y-80090000D03*
D11*
G36*
X88920000Y-79340000D02*
G01*
X91420000Y-79340000D01*
X91420000Y-80840000D01*
X88920000Y-80840000D01*
X88920000Y-79340000D01*
X88920000Y-79340000D01*
G37*
D10*
X90170000Y-82590000D03*
D11*
G36*
X88920000Y-81840000D02*
G01*
X91420000Y-81840000D01*
X91420000Y-83340000D01*
X88920000Y-83340000D01*
X88920000Y-81840000D01*
X88920000Y-81840000D01*
G37*
D10*
X90170000Y-85090000D03*
D11*
G36*
X88920000Y-84340000D02*
G01*
X91420000Y-84340000D01*
X91420000Y-85840000D01*
X88920000Y-85840000D01*
X88920000Y-84340000D01*
X88920000Y-84340000D01*
G37*
D10*
X90170000Y-87590000D03*
D11*
G36*
X88920000Y-86840000D02*
G01*
X91420000Y-86840000D01*
X91420000Y-88340000D01*
X88920000Y-88340000D01*
X88920000Y-86840000D01*
X88920000Y-86840000D01*
G37*
D10*
X90170000Y-90090000D03*
D11*
G36*
X88920000Y-89340000D02*
G01*
X91420000Y-89340000D01*
X91420000Y-90840000D01*
X88920000Y-90840000D01*
X88920000Y-89340000D01*
X88920000Y-89340000D01*
G37*
D10*
X90170000Y-92590000D03*
D11*
G36*
X88920000Y-91840000D02*
G01*
X91420000Y-91840000D01*
X91420000Y-93340000D01*
X88920000Y-93340000D01*
X88920000Y-91840000D01*
X88920000Y-91840000D01*
G37*
D10*
X90170000Y-95090000D03*
D11*
G36*
X88920000Y-94340000D02*
G01*
X91420000Y-94340000D01*
X91420000Y-95840000D01*
X88920000Y-95840000D01*
X88920000Y-94340000D01*
X88920000Y-94340000D01*
G37*
D10*
X90170000Y-97590000D03*
D11*
G36*
X88920000Y-96840000D02*
G01*
X91420000Y-96840000D01*
X91420000Y-98340000D01*
X88920000Y-98340000D01*
X88920000Y-96840000D01*
X88920000Y-96840000D01*
G37*
D10*
X90170000Y-102870000D03*
D11*
G36*
X88920000Y-102120000D02*
G01*
X91420000Y-102120000D01*
X91420000Y-103620000D01*
X88920000Y-103620000D01*
X88920000Y-102120000D01*
X88920000Y-102120000D01*
G37*
D10*
X90170000Y-105370000D03*
D11*
G36*
X88920000Y-104620000D02*
G01*
X91420000Y-104620000D01*
X91420000Y-106120000D01*
X88920000Y-106120000D01*
X88920000Y-104620000D01*
X88920000Y-104620000D01*
G37*
D10*
X90170000Y-107870000D03*
D11*
G36*
X88920000Y-107120000D02*
G01*
X91420000Y-107120000D01*
X91420000Y-108620000D01*
X88920000Y-108620000D01*
X88920000Y-107120000D01*
X88920000Y-107120000D01*
G37*
D10*
X90170000Y-110370000D03*
D11*
G36*
X88920000Y-109620000D02*
G01*
X91420000Y-109620000D01*
X91420000Y-111120000D01*
X88920000Y-111120000D01*
X88920000Y-109620000D01*
X88920000Y-109620000D01*
G37*
D10*
X90170000Y-112870000D03*
D11*
G36*
X88920000Y-112120000D02*
G01*
X91420000Y-112120000D01*
X91420000Y-113620000D01*
X88920000Y-113620000D01*
X88920000Y-112120000D01*
X88920000Y-112120000D01*
G37*
D10*
X138430000Y-90050000D03*
D11*
G36*
X139680000Y-90800000D02*
G01*
X137180000Y-90800000D01*
X137180000Y-89300000D01*
X139680000Y-89300000D01*
X139680000Y-90800000D01*
X139680000Y-90800000D01*
G37*
D10*
X138430000Y-87550000D03*
D11*
G36*
X139680000Y-88300000D02*
G01*
X137180000Y-88300000D01*
X137180000Y-86800000D01*
X139680000Y-86800000D01*
X139680000Y-88300000D01*
X139680000Y-88300000D01*
G37*
D10*
X138430000Y-85050000D03*
D11*
G36*
X139680000Y-85800000D02*
G01*
X137180000Y-85800000D01*
X137180000Y-84300000D01*
X139680000Y-84300000D01*
X139680000Y-85800000D01*
X139680000Y-85800000D01*
G37*
D10*
X138430000Y-82550000D03*
D11*
G36*
X139680000Y-83300000D02*
G01*
X137180000Y-83300000D01*
X137180000Y-81800000D01*
X139680000Y-81800000D01*
X139680000Y-83300000D01*
X139680000Y-83300000D01*
G37*
D10*
X138430000Y-80050000D03*
D11*
G36*
X139680000Y-80800000D02*
G01*
X137180000Y-80800000D01*
X137180000Y-79300000D01*
X139680000Y-79300000D01*
X139680000Y-80800000D01*
X139680000Y-80800000D01*
G37*
D10*
X138430000Y-77550000D03*
D11*
G36*
X139680000Y-78300000D02*
G01*
X137180000Y-78300000D01*
X137180000Y-76800000D01*
X139680000Y-76800000D01*
X139680000Y-78300000D01*
X139680000Y-78300000D01*
G37*
D10*
X138430000Y-75050000D03*
D11*
G36*
X139680000Y-75800000D02*
G01*
X137180000Y-75800000D01*
X137180000Y-74300000D01*
X139680000Y-74300000D01*
X139680000Y-75800000D01*
X139680000Y-75800000D01*
G37*
D10*
X138430000Y-72550000D03*
D11*
G36*
X139680000Y-73300000D02*
G01*
X137180000Y-73300000D01*
X137180000Y-71800000D01*
X139680000Y-71800000D01*
X139680000Y-73300000D01*
X139680000Y-73300000D01*
G37*
D10*
X138430000Y-70050000D03*
D11*
G36*
X139680000Y-70800000D02*
G01*
X137180000Y-70800000D01*
X137180000Y-69300000D01*
X139680000Y-69300000D01*
X139680000Y-70800000D01*
X139680000Y-70800000D01*
G37*
D10*
X138430000Y-67550000D03*
D11*
G36*
X139680000Y-68300000D02*
G01*
X137180000Y-68300000D01*
X137180000Y-66800000D01*
X139680000Y-66800000D01*
X139680000Y-68300000D01*
X139680000Y-68300000D01*
G37*
D10*
X138430000Y-93980000D03*
D11*
G36*
X139680000Y-94730000D02*
G01*
X137180000Y-94730000D01*
X137180000Y-93230000D01*
X139680000Y-93230000D01*
X139680000Y-94730000D01*
X139680000Y-94730000D01*
G37*
D10*
X138430000Y-96480000D03*
D11*
G36*
X139680000Y-97230000D02*
G01*
X137180000Y-97230000D01*
X137180000Y-95730000D01*
X139680000Y-95730000D01*
X139680000Y-97230000D01*
X139680000Y-97230000D01*
G37*
D10*
X138430000Y-98980000D03*
D11*
G36*
X139680000Y-99730000D02*
G01*
X137180000Y-99730000D01*
X137180000Y-98230000D01*
X139680000Y-98230000D01*
X139680000Y-99730000D01*
X139680000Y-99730000D01*
G37*
D10*
X138430000Y-101480000D03*
D11*
G36*
X139680000Y-102230000D02*
G01*
X137180000Y-102230000D01*
X137180000Y-100730000D01*
X139680000Y-100730000D01*
X139680000Y-102230000D01*
X139680000Y-102230000D01*
G37*
D10*
X138430000Y-103980000D03*
D11*
G36*
X139680000Y-104730000D02*
G01*
X137180000Y-104730000D01*
X137180000Y-103230000D01*
X139680000Y-103230000D01*
X139680000Y-104730000D01*
X139680000Y-104730000D01*
G37*
D10*
X138430000Y-106480000D03*
D11*
G36*
X139680000Y-107230000D02*
G01*
X137180000Y-107230000D01*
X137180000Y-105730000D01*
X139680000Y-105730000D01*
X139680000Y-107230000D01*
X139680000Y-107230000D01*
G37*
D10*
X138430000Y-108980000D03*
D11*
G36*
X139680000Y-109730000D02*
G01*
X137180000Y-109730000D01*
X137180000Y-108230000D01*
X139680000Y-108230000D01*
X139680000Y-109730000D01*
X139680000Y-109730000D01*
G37*
D10*
X138430000Y-111480000D03*
D11*
G36*
X139680000Y-112230000D02*
G01*
X137180000Y-112230000D01*
X137180000Y-110730000D01*
X139680000Y-110730000D01*
X139680000Y-112230000D01*
X139680000Y-112230000D01*
G37*
D10*
X113030000Y-81280000D03*
D11*
G36*
X111780000Y-80530000D02*
G01*
X114280000Y-80530000D01*
X114280000Y-82030000D01*
X111780000Y-82030000D01*
X111780000Y-80530000D01*
X111780000Y-80530000D01*
G37*
D10*
X113030000Y-86360000D03*
D11*
G36*
X111780000Y-85610000D02*
G01*
X114280000Y-85610000D01*
X114280000Y-87110000D01*
X111780000Y-87110000D01*
X111780000Y-85610000D01*
X111780000Y-85610000D01*
G37*
D10*
X120650000Y-77470000D03*
D11*
G36*
X119400000Y-78220000D02*
G01*
X119400000Y-76720000D01*
X121900000Y-76720000D01*
X121900000Y-78220000D01*
X119400000Y-78220000D01*
X119400000Y-78220000D01*
G37*
D10*
X128270000Y-110490000D03*
D11*
G36*
X127020000Y-111240000D02*
G01*
X127020000Y-109740000D01*
X129520000Y-109740000D01*
X129520000Y-111240000D01*
X127020000Y-111240000D01*
X127020000Y-111240000D01*
G37*
D10*
X120650000Y-80010000D03*
D11*
G36*
X119400000Y-80760000D02*
G01*
X119400000Y-79260000D01*
X121900000Y-79260000D01*
X121900000Y-80760000D01*
X119400000Y-80760000D01*
X119400000Y-80760000D01*
G37*
D10*
X128270000Y-107950000D03*
D11*
G36*
X127020000Y-108700000D02*
G01*
X127020000Y-107200000D01*
X129520000Y-107200000D01*
X129520000Y-108700000D01*
X127020000Y-108700000D01*
X127020000Y-108700000D01*
G37*
D10*
X120650000Y-82550000D03*
D11*
G36*
X119400000Y-83300000D02*
G01*
X119400000Y-81800000D01*
X121900000Y-81800000D01*
X121900000Y-83300000D01*
X119400000Y-83300000D01*
X119400000Y-83300000D01*
G37*
D10*
X128270000Y-105410000D03*
D11*
G36*
X127020000Y-106160000D02*
G01*
X127020000Y-104660000D01*
X129520000Y-104660000D01*
X129520000Y-106160000D01*
X127020000Y-106160000D01*
X127020000Y-106160000D01*
G37*
D10*
X120650000Y-85090000D03*
D11*
G36*
X119400000Y-85840000D02*
G01*
X119400000Y-84340000D01*
X121900000Y-84340000D01*
X121900000Y-85840000D01*
X119400000Y-85840000D01*
X119400000Y-85840000D01*
G37*
D10*
X128270000Y-102870000D03*
D11*
G36*
X127020000Y-103620000D02*
G01*
X127020000Y-102120000D01*
X129520000Y-102120000D01*
X129520000Y-103620000D01*
X127020000Y-103620000D01*
X127020000Y-103620000D01*
G37*
D10*
X120650000Y-87630000D03*
D11*
G36*
X119400000Y-88380000D02*
G01*
X119400000Y-86880000D01*
X121900000Y-86880000D01*
X121900000Y-88380000D01*
X119400000Y-88380000D01*
X119400000Y-88380000D01*
G37*
D10*
X128270000Y-100330000D03*
D11*
G36*
X127020000Y-101080000D02*
G01*
X127020000Y-99580000D01*
X129520000Y-99580000D01*
X129520000Y-101080000D01*
X127020000Y-101080000D01*
X127020000Y-101080000D01*
G37*
D10*
X120650000Y-90170000D03*
D11*
G36*
X119400000Y-90920000D02*
G01*
X119400000Y-89420000D01*
X121900000Y-89420000D01*
X121900000Y-90920000D01*
X119400000Y-90920000D01*
X119400000Y-90920000D01*
G37*
D10*
X128270000Y-97790000D03*
D11*
G36*
X127020000Y-98540000D02*
G01*
X127020000Y-97040000D01*
X129520000Y-97040000D01*
X129520000Y-98540000D01*
X127020000Y-98540000D01*
X127020000Y-98540000D01*
G37*
D10*
X120650000Y-92710000D03*
D11*
G36*
X119400000Y-93460000D02*
G01*
X119400000Y-91960000D01*
X121900000Y-91960000D01*
X121900000Y-93460000D01*
X119400000Y-93460000D01*
X119400000Y-93460000D01*
G37*
D10*
X128270000Y-95250000D03*
D11*
G36*
X127020000Y-96000000D02*
G01*
X127020000Y-94500000D01*
X129520000Y-94500000D01*
X129520000Y-96000000D01*
X127020000Y-96000000D01*
X127020000Y-96000000D01*
G37*
D10*
X120650000Y-95250000D03*
D11*
G36*
X119400000Y-96000000D02*
G01*
X119400000Y-94500000D01*
X121900000Y-94500000D01*
X121900000Y-96000000D01*
X119400000Y-96000000D01*
X119400000Y-96000000D01*
G37*
D10*
X128270000Y-92710000D03*
D11*
G36*
X127020000Y-93460000D02*
G01*
X127020000Y-91960000D01*
X129520000Y-91960000D01*
X129520000Y-93460000D01*
X127020000Y-93460000D01*
X127020000Y-93460000D01*
G37*
D10*
X120650000Y-97790000D03*
D11*
G36*
X119400000Y-98540000D02*
G01*
X119400000Y-97040000D01*
X121900000Y-97040000D01*
X121900000Y-98540000D01*
X119400000Y-98540000D01*
X119400000Y-98540000D01*
G37*
D10*
X128270000Y-90170000D03*
D11*
G36*
X127020000Y-90920000D02*
G01*
X127020000Y-89420000D01*
X129520000Y-89420000D01*
X129520000Y-90920000D01*
X127020000Y-90920000D01*
X127020000Y-90920000D01*
G37*
D10*
X120650000Y-100330000D03*
D11*
G36*
X119400000Y-101080000D02*
G01*
X119400000Y-99580000D01*
X121900000Y-99580000D01*
X121900000Y-101080000D01*
X119400000Y-101080000D01*
X119400000Y-101080000D01*
G37*
D10*
X128270000Y-87630000D03*
D11*
G36*
X127020000Y-88380000D02*
G01*
X127020000Y-86880000D01*
X129520000Y-86880000D01*
X129520000Y-88380000D01*
X127020000Y-88380000D01*
X127020000Y-88380000D01*
G37*
D10*
X120650000Y-102870000D03*
D11*
G36*
X119400000Y-103620000D02*
G01*
X119400000Y-102120000D01*
X121900000Y-102120000D01*
X121900000Y-103620000D01*
X119400000Y-103620000D01*
X119400000Y-103620000D01*
G37*
D10*
X128270000Y-85090000D03*
D11*
G36*
X127020000Y-85840000D02*
G01*
X127020000Y-84340000D01*
X129520000Y-84340000D01*
X129520000Y-85840000D01*
X127020000Y-85840000D01*
X127020000Y-85840000D01*
G37*
D10*
X120650000Y-105410000D03*
D11*
G36*
X119400000Y-106160000D02*
G01*
X119400000Y-104660000D01*
X121900000Y-104660000D01*
X121900000Y-106160000D01*
X119400000Y-106160000D01*
X119400000Y-106160000D01*
G37*
D10*
X128270000Y-82550000D03*
D11*
G36*
X127020000Y-83300000D02*
G01*
X127020000Y-81800000D01*
X129520000Y-81800000D01*
X129520000Y-83300000D01*
X127020000Y-83300000D01*
X127020000Y-83300000D01*
G37*
D10*
X120650000Y-107950000D03*
D11*
G36*
X119400000Y-108700000D02*
G01*
X119400000Y-107200000D01*
X121900000Y-107200000D01*
X121900000Y-108700000D01*
X119400000Y-108700000D01*
X119400000Y-108700000D01*
G37*
D10*
X128270000Y-80010000D03*
D11*
G36*
X127020000Y-80760000D02*
G01*
X127020000Y-79260000D01*
X129520000Y-79260000D01*
X129520000Y-80760000D01*
X127020000Y-80760000D01*
X127020000Y-80760000D01*
G37*
D10*
X120650000Y-110490000D03*
D11*
G36*
X119400000Y-111240000D02*
G01*
X119400000Y-109740000D01*
X121900000Y-109740000D01*
X121900000Y-111240000D01*
X119400000Y-111240000D01*
X119400000Y-111240000D01*
G37*
D10*
X128270000Y-77470000D03*
D11*
G36*
X127020000Y-78220000D02*
G01*
X127020000Y-76720000D01*
X129520000Y-76720000D01*
X129520000Y-78220000D01*
X127020000Y-78220000D01*
X127020000Y-78220000D01*
G37*
D10*
X115570000Y-97790000D03*
D11*
G36*
X114320000Y-97040000D02*
G01*
X116820000Y-97040000D01*
X116820000Y-98540000D01*
X114320000Y-98540000D01*
X114320000Y-97040000D01*
X114320000Y-97040000D01*
G37*
D10*
X115570000Y-99690000D03*
D11*
G36*
X114320000Y-98940000D02*
G01*
X116820000Y-98940000D01*
X116820000Y-100440000D01*
X114320000Y-100440000D01*
X114320000Y-98940000D01*
X114320000Y-98940000D01*
G37*
D12*
X120650000Y-97790000D02*
X115570000Y-97790000D01*
X114300000Y-96520000D02*
X115570000Y-97790000D01*
X109220000Y-96520000D02*
X114300000Y-96520000D01*
X116210000Y-100330000D02*
X115570000Y-99690000D01*
X120650000Y-100330000D02*
X116210000Y-100330000D01*
X113590000Y-99690000D02*
X109220000Y-104060000D01*
X115570000Y-99690000D02*
X113590000Y-99690000D01*
X113030000Y-86360000D02*
X113030000Y-88900000D01*
X116840000Y-92710000D02*
X120650000Y-92710000D01*
X113030000Y-88900000D02*
X116840000Y-92710000D01*
X113030000Y-86360000D02*
X104140000Y-86360000D01*
X100410000Y-90090000D02*
X90170000Y-90090000D01*
X104140000Y-86360000D02*
X100410000Y-90090000D01*
X115570000Y-77470000D02*
X113030000Y-80010000D01*
X120650000Y-77470000D02*
X115570000Y-77470000D01*
X113030000Y-80010000D02*
X113030000Y-81280000D01*
X138430000Y-85050000D02*
X138305000Y-85050000D01*
X135930000Y-85050000D02*
X138430000Y-85050000D01*
X122450000Y-77470000D02*
X123190000Y-78210000D01*
X120650000Y-77470000D02*
X122450000Y-77470000D01*
X134620000Y-86360000D02*
X135930000Y-85050000D01*
X123190000Y-78210000D02*
X123190000Y-114300000D01*
X123190000Y-114300000D02*
X132080000Y-114300000D01*
X132080000Y-114300000D02*
X134620000Y-111760000D01*
X134620000Y-111760000D02*
X134620000Y-86360000D01*
X136455000Y-82550000D02*
X133350000Y-85655000D01*
X138430000Y-82550000D02*
X136455000Y-82550000D01*
X133350000Y-85655000D02*
X133350000Y-96520000D01*
X129540000Y-100330000D02*
X128270000Y-100330000D01*
X133350000Y-96520000D02*
X129540000Y-100330000D01*
X125730000Y-102870000D02*
X128270000Y-102870000D01*
X137092928Y-80050000D02*
X129362938Y-72320010D01*
X138430000Y-80050000D02*
X137092928Y-80050000D01*
X129362938Y-72320010D02*
X125799990Y-72320010D01*
X125799990Y-72320010D02*
X125660010Y-72459990D01*
X125660010Y-72459990D02*
X125660010Y-102800010D01*
X125660010Y-102800010D02*
X125730000Y-102870000D01*
X124460000Y-105410000D02*
X128270000Y-105410000D01*
X136455000Y-77550000D02*
X131295000Y-72390000D01*
X131295000Y-72390000D02*
X131129998Y-72390000D01*
X131129998Y-72390000D02*
X129859998Y-71120000D01*
X138430000Y-77550000D02*
X136455000Y-77550000D01*
X129859998Y-71120000D02*
X124460000Y-71120000D01*
X124460000Y-71120000D02*
X124460000Y-105410000D01*
D13*
G36*
X142850000Y-119990000D02*
G01*
X85750000Y-119990000D01*
X85750000Y-102120000D01*
X88281928Y-102120000D01*
X88281928Y-103620000D01*
X88294188Y-103744482D01*
X88330498Y-103864180D01*
X88389463Y-103974494D01*
X88468815Y-104071185D01*
X88528296Y-104120000D01*
X88468815Y-104168815D01*
X88389463Y-104265506D01*
X88330498Y-104375820D01*
X88294188Y-104495518D01*
X88281928Y-104620000D01*
X88281928Y-106120000D01*
X88294188Y-106244482D01*
X88330498Y-106364180D01*
X88389463Y-106474494D01*
X88468815Y-106571185D01*
X88528296Y-106620000D01*
X88468815Y-106668815D01*
X88389463Y-106765506D01*
X88330498Y-106875820D01*
X88294188Y-106995518D01*
X88281928Y-107120000D01*
X88281928Y-108620000D01*
X88294188Y-108744482D01*
X88330498Y-108864180D01*
X88389463Y-108974494D01*
X88468815Y-109071185D01*
X88528296Y-109120000D01*
X88468815Y-109168815D01*
X88389463Y-109265506D01*
X88330498Y-109375820D01*
X88294188Y-109495518D01*
X88281928Y-109620000D01*
X88281928Y-111120000D01*
X88294188Y-111244482D01*
X88330498Y-111364180D01*
X88389463Y-111474494D01*
X88468815Y-111571185D01*
X88528296Y-111620000D01*
X88468815Y-111668815D01*
X88389463Y-111765506D01*
X88330498Y-111875820D01*
X88294188Y-111995518D01*
X88281928Y-112120000D01*
X88281928Y-113620000D01*
X88294188Y-113744482D01*
X88330498Y-113864180D01*
X88389463Y-113974494D01*
X88468815Y-114071185D01*
X88565506Y-114150537D01*
X88675820Y-114209502D01*
X88795518Y-114245812D01*
X88920000Y-114258072D01*
X91420000Y-114258072D01*
X91544482Y-114245812D01*
X91664180Y-114209502D01*
X91774494Y-114150537D01*
X91871185Y-114071185D01*
X91950537Y-113974494D01*
X92009502Y-113864180D01*
X92045812Y-113744482D01*
X92058072Y-113620000D01*
X92058072Y-112120000D01*
X92045812Y-111995518D01*
X92009502Y-111875820D01*
X91950537Y-111765506D01*
X91871185Y-111668815D01*
X91811704Y-111620000D01*
X91871185Y-111571185D01*
X91950537Y-111474494D01*
X92009502Y-111364180D01*
X92045812Y-111244482D01*
X92058072Y-111120000D01*
X92058072Y-109620000D01*
X92045812Y-109495518D01*
X92009502Y-109375820D01*
X91950537Y-109265506D01*
X91871185Y-109168815D01*
X91811704Y-109120000D01*
X91871185Y-109071185D01*
X91950537Y-108974494D01*
X92009502Y-108864180D01*
X92045812Y-108744482D01*
X92058072Y-108620000D01*
X92058072Y-107120000D01*
X92045812Y-106995518D01*
X92009502Y-106875820D01*
X91950537Y-106765506D01*
X91871185Y-106668815D01*
X91811704Y-106620000D01*
X91871185Y-106571185D01*
X91950537Y-106474494D01*
X92009502Y-106364180D01*
X92045812Y-106244482D01*
X92058072Y-106120000D01*
X92058072Y-104620000D01*
X92045812Y-104495518D01*
X92009502Y-104375820D01*
X91950537Y-104265506D01*
X91871185Y-104168815D01*
X91811704Y-104120000D01*
X91871185Y-104071185D01*
X91950537Y-103974494D01*
X92009502Y-103864180D01*
X92045812Y-103744482D01*
X92058072Y-103620000D01*
X92058072Y-102120000D01*
X92045812Y-101995518D01*
X92009502Y-101875820D01*
X91950537Y-101765506D01*
X91871185Y-101668815D01*
X91774494Y-101589463D01*
X91664180Y-101530498D01*
X91544482Y-101494188D01*
X91420000Y-101481928D01*
X88920000Y-101481928D01*
X88795518Y-101494188D01*
X88675820Y-101530498D01*
X88565506Y-101589463D01*
X88468815Y-101668815D01*
X88389463Y-101765506D01*
X88330498Y-101875820D01*
X88294188Y-101995518D01*
X88281928Y-102120000D01*
X85750000Y-102120000D01*
X85750000Y-99187000D01*
X107331928Y-99187000D01*
X107331928Y-99810000D01*
X107344188Y-99934482D01*
X107380498Y-100054180D01*
X107439463Y-100164494D01*
X107518815Y-100261185D01*
X107615506Y-100340537D01*
X107725820Y-100399502D01*
X107845518Y-100435812D01*
X107970000Y-100448072D01*
X109093000Y-100448072D01*
X109093000Y-99187000D01*
X109347000Y-99187000D01*
X109347000Y-100448072D01*
X110470000Y-100448072D01*
X110594482Y-100435812D01*
X110714180Y-100399502D01*
X110824494Y-100340537D01*
X110921185Y-100261185D01*
X111000537Y-100164494D01*
X111059502Y-100054180D01*
X111095812Y-99934482D01*
X111108072Y-99810000D01*
X111108072Y-99187000D01*
X109347000Y-99187000D01*
X109093000Y-99187000D01*
X107331928Y-99187000D01*
X85750000Y-99187000D01*
X85750000Y-92717000D01*
X88281928Y-92717000D01*
X88281928Y-93340000D01*
X88294188Y-93464482D01*
X88330498Y-93584180D01*
X88389463Y-93694494D01*
X88468815Y-93791185D01*
X88528296Y-93840000D01*
X88468815Y-93888815D01*
X88389463Y-93985506D01*
X88330498Y-94095820D01*
X88294188Y-94215518D01*
X88281928Y-94340000D01*
X88281928Y-95840000D01*
X88294188Y-95964482D01*
X88330498Y-96084180D01*
X88389463Y-96194494D01*
X88468815Y-96291185D01*
X88528296Y-96340000D01*
X88468815Y-96388815D01*
X88389463Y-96485506D01*
X88330498Y-96595820D01*
X88294188Y-96715518D01*
X88281928Y-96840000D01*
X88281928Y-98340000D01*
X88294188Y-98464482D01*
X88330498Y-98584180D01*
X88389463Y-98694494D01*
X88468815Y-98791185D01*
X88565506Y-98870537D01*
X88675820Y-98929502D01*
X88795518Y-98965812D01*
X88920000Y-98978072D01*
X91420000Y-98978072D01*
X91544482Y-98965812D01*
X91664180Y-98929502D01*
X91774494Y-98870537D01*
X91871185Y-98791185D01*
X91950537Y-98694494D01*
X92009502Y-98584180D01*
X92045812Y-98464482D01*
X92058072Y-98340000D01*
X92058072Y-96840000D01*
X92045812Y-96715518D01*
X92009502Y-96595820D01*
X91950537Y-96485506D01*
X91871185Y-96388815D01*
X91811704Y-96340000D01*
X91871185Y-96291185D01*
X91950537Y-96194494D01*
X92009502Y-96084180D01*
X92045812Y-95964482D01*
X92058072Y-95840000D01*
X92058072Y-94340000D01*
X92045812Y-94215518D01*
X92009502Y-94095820D01*
X91950537Y-93985506D01*
X91871185Y-93888815D01*
X91811704Y-93840000D01*
X91871185Y-93791185D01*
X91950537Y-93694494D01*
X92009502Y-93584180D01*
X92045812Y-93464482D01*
X92058072Y-93340000D01*
X92058072Y-92717000D01*
X90297000Y-92717000D01*
X90297000Y-92737000D01*
X90043000Y-92737000D01*
X90043000Y-92717000D01*
X88281928Y-92717000D01*
X85750000Y-92717000D01*
X85750000Y-79340000D01*
X88281928Y-79340000D01*
X88281928Y-80840000D01*
X88294188Y-80964482D01*
X88330498Y-81084180D01*
X88389463Y-81194494D01*
X88468815Y-81291185D01*
X88528296Y-81340000D01*
X88468815Y-81388815D01*
X88389463Y-81485506D01*
X88330498Y-81595820D01*
X88294188Y-81715518D01*
X88281928Y-81840000D01*
X88281928Y-83340000D01*
X88294188Y-83464482D01*
X88330498Y-83584180D01*
X88389463Y-83694494D01*
X88468815Y-83791185D01*
X88528296Y-83840000D01*
X88468815Y-83888815D01*
X88389463Y-83985506D01*
X88330498Y-84095820D01*
X88294188Y-84215518D01*
X88281928Y-84340000D01*
X88281928Y-85840000D01*
X88294188Y-85964482D01*
X88330498Y-86084180D01*
X88389463Y-86194494D01*
X88468815Y-86291185D01*
X88528296Y-86340000D01*
X88468815Y-86388815D01*
X88389463Y-86485506D01*
X88330498Y-86595820D01*
X88294188Y-86715518D01*
X88281928Y-86840000D01*
X88281928Y-88340000D01*
X88294188Y-88464482D01*
X88330498Y-88584180D01*
X88389463Y-88694494D01*
X88468815Y-88791185D01*
X88528296Y-88840000D01*
X88468815Y-88888815D01*
X88389463Y-88985506D01*
X88330498Y-89095820D01*
X88294188Y-89215518D01*
X88281928Y-89340000D01*
X88281928Y-90840000D01*
X88294188Y-90964482D01*
X88330498Y-91084180D01*
X88389463Y-91194494D01*
X88468815Y-91291185D01*
X88528296Y-91340000D01*
X88468815Y-91388815D01*
X88389463Y-91485506D01*
X88330498Y-91595820D01*
X88294188Y-91715518D01*
X88281928Y-91840000D01*
X88281928Y-92463000D01*
X90043000Y-92463000D01*
X90043000Y-92443000D01*
X90297000Y-92443000D01*
X90297000Y-92463000D01*
X92058072Y-92463000D01*
X92058072Y-91840000D01*
X92045812Y-91715518D01*
X92025028Y-91647000D01*
X107331928Y-91647000D01*
X107331928Y-92270000D01*
X107344188Y-92394482D01*
X107380498Y-92514180D01*
X107439463Y-92624494D01*
X107518815Y-92721185D01*
X107615506Y-92800537D01*
X107725820Y-92859502D01*
X107845518Y-92895812D01*
X107970000Y-92908072D01*
X109093000Y-92908072D01*
X109093000Y-91647000D01*
X109347000Y-91647000D01*
X109347000Y-92908072D01*
X110470000Y-92908072D01*
X110594482Y-92895812D01*
X110714180Y-92859502D01*
X110824494Y-92800537D01*
X110921185Y-92721185D01*
X111000537Y-92624494D01*
X111059502Y-92514180D01*
X111095812Y-92394482D01*
X111108072Y-92270000D01*
X111108072Y-91647000D01*
X109347000Y-91647000D01*
X109093000Y-91647000D01*
X107331928Y-91647000D01*
X92025028Y-91647000D01*
X92009502Y-91595820D01*
X91950537Y-91485506D01*
X91871185Y-91388815D01*
X91811704Y-91340000D01*
X91871185Y-91291185D01*
X91925501Y-91225000D01*
X100354249Y-91225000D01*
X100410000Y-91230491D01*
X100465751Y-91225000D01*
X100465752Y-91225000D01*
X100632499Y-91208577D01*
X100846447Y-91143676D01*
X101043623Y-91038284D01*
X101216449Y-90896449D01*
X101251996Y-90853135D01*
X101335131Y-90770000D01*
X107331928Y-90770000D01*
X107331928Y-91393000D01*
X109093000Y-91393000D01*
X109093000Y-90131928D01*
X109347000Y-90131928D01*
X109347000Y-91393000D01*
X111108072Y-91393000D01*
X111108072Y-90770000D01*
X111095812Y-90645518D01*
X111059502Y-90525820D01*
X111000537Y-90415506D01*
X110921185Y-90318815D01*
X110824494Y-90239463D01*
X110714180Y-90180498D01*
X110594482Y-90144188D01*
X110470000Y-90131928D01*
X109347000Y-90131928D01*
X109093000Y-90131928D01*
X107970000Y-90131928D01*
X107845518Y-90144188D01*
X107725820Y-90180498D01*
X107615506Y-90239463D01*
X107518815Y-90318815D01*
X107439463Y-90415506D01*
X107380498Y-90525820D01*
X107344188Y-90645518D01*
X107331928Y-90770000D01*
X101335131Y-90770000D01*
X104610133Y-87495000D01*
X111274499Y-87495000D01*
X111328815Y-87561185D01*
X111425506Y-87640537D01*
X111535820Y-87699502D01*
X111655518Y-87735812D01*
X111780000Y-87748072D01*
X111895001Y-87748072D01*
X111895001Y-88844239D01*
X111889509Y-88900000D01*
X111911423Y-89122498D01*
X111976324Y-89336446D01*
X111976325Y-89336447D01*
X112081717Y-89533623D01*
X112223552Y-89706449D01*
X112266860Y-89741991D01*
X115998013Y-93473146D01*
X116033551Y-93516449D01*
X116076854Y-93551987D01*
X116076856Y-93551989D01*
X116206377Y-93658284D01*
X116403553Y-93763676D01*
X116617501Y-93828577D01*
X116840000Y-93850491D01*
X116895752Y-93845000D01*
X118894499Y-93845000D01*
X118948815Y-93911185D01*
X119032667Y-93980000D01*
X118948815Y-94048815D01*
X118869463Y-94145506D01*
X118810498Y-94255820D01*
X118774188Y-94375518D01*
X118761928Y-94500000D01*
X118761928Y-95123000D01*
X120523000Y-95123000D01*
X120523000Y-95103000D01*
X120777000Y-95103000D01*
X120777000Y-95123000D01*
X120797000Y-95123000D01*
X120797000Y-95377000D01*
X120777000Y-95377000D01*
X120777000Y-95397000D01*
X120523000Y-95397000D01*
X120523000Y-95377000D01*
X118761928Y-95377000D01*
X118761928Y-96000000D01*
X118774188Y-96124482D01*
X118810498Y-96244180D01*
X118869463Y-96354494D01*
X118948815Y-96451185D01*
X119032667Y-96520000D01*
X118948815Y-96588815D01*
X118894499Y-96655000D01*
X117325501Y-96655000D01*
X117271185Y-96588815D01*
X117174494Y-96509463D01*
X117064180Y-96450498D01*
X116944482Y-96414188D01*
X116820000Y-96401928D01*
X115787060Y-96401928D01*
X115141996Y-95756865D01*
X115106449Y-95713551D01*
X114933623Y-95571716D01*
X114736447Y-95466324D01*
X114522499Y-95401423D01*
X114355752Y-95385000D01*
X114355751Y-95385000D01*
X114300000Y-95379509D01*
X114244249Y-95385000D01*
X110975501Y-95385000D01*
X110921185Y-95318815D01*
X110824494Y-95239463D01*
X110714180Y-95180498D01*
X110594482Y-95144188D01*
X110470000Y-95131928D01*
X107970000Y-95131928D01*
X107845518Y-95144188D01*
X107725820Y-95180498D01*
X107615506Y-95239463D01*
X107518815Y-95318815D01*
X107439463Y-95415506D01*
X107380498Y-95525820D01*
X107344188Y-95645518D01*
X107331928Y-95770000D01*
X107331928Y-97270000D01*
X107344188Y-97394482D01*
X107380498Y-97514180D01*
X107439463Y-97624494D01*
X107518815Y-97721185D01*
X107602667Y-97790000D01*
X107518815Y-97858815D01*
X107439463Y-97955506D01*
X107380498Y-98065820D01*
X107344188Y-98185518D01*
X107331928Y-98310000D01*
X107331928Y-98933000D01*
X109093000Y-98933000D01*
X109093000Y-98913000D01*
X109347000Y-98913000D01*
X109347000Y-98933000D01*
X111108072Y-98933000D01*
X111108072Y-98310000D01*
X111095812Y-98185518D01*
X111059502Y-98065820D01*
X111000537Y-97955506D01*
X110921185Y-97858815D01*
X110837333Y-97790000D01*
X110921185Y-97721185D01*
X110975501Y-97655000D01*
X113681928Y-97655000D01*
X113681928Y-98540000D01*
X113683405Y-98555000D01*
X113645741Y-98555000D01*
X113589999Y-98549510D01*
X113534257Y-98555000D01*
X113534248Y-98555000D01*
X113367501Y-98571423D01*
X113153553Y-98636324D01*
X112956377Y-98741716D01*
X112783551Y-98883551D01*
X112748009Y-98926859D01*
X109002941Y-102671928D01*
X107970000Y-102671928D01*
X107845518Y-102684188D01*
X107725820Y-102720498D01*
X107615506Y-102779463D01*
X107518815Y-102858815D01*
X107439463Y-102955506D01*
X107380498Y-103065820D01*
X107344188Y-103185518D01*
X107331928Y-103310000D01*
X107331928Y-104810000D01*
X107344188Y-104934482D01*
X107380498Y-105054180D01*
X107439463Y-105164494D01*
X107518815Y-105261185D01*
X107615506Y-105340537D01*
X107725820Y-105399502D01*
X107845518Y-105435812D01*
X107970000Y-105448072D01*
X110470000Y-105448072D01*
X110594482Y-105435812D01*
X110714180Y-105399502D01*
X110824494Y-105340537D01*
X110921185Y-105261185D01*
X111000537Y-105164494D01*
X111059502Y-105054180D01*
X111095812Y-104934482D01*
X111108072Y-104810000D01*
X111108072Y-103777059D01*
X113937543Y-100947589D01*
X113965506Y-100970537D01*
X114075820Y-101029502D01*
X114195518Y-101065812D01*
X114320000Y-101078072D01*
X115352940Y-101078072D01*
X115368008Y-101093140D01*
X115403551Y-101136449D01*
X115576376Y-101278283D01*
X115576377Y-101278284D01*
X115773553Y-101383676D01*
X115987501Y-101448577D01*
X116210000Y-101470491D01*
X116265752Y-101465000D01*
X118894499Y-101465000D01*
X118948815Y-101531185D01*
X119032667Y-101600000D01*
X118948815Y-101668815D01*
X118869463Y-101765506D01*
X118810498Y-101875820D01*
X118774188Y-101995518D01*
X118761928Y-102120000D01*
X118761928Y-103620000D01*
X118774188Y-103744482D01*
X118810498Y-103864180D01*
X118869463Y-103974494D01*
X118948815Y-104071185D01*
X119032667Y-104140000D01*
X118948815Y-104208815D01*
X118869463Y-104305506D01*
X118810498Y-104415820D01*
X118774188Y-104535518D01*
X118761928Y-104660000D01*
X118761928Y-106160000D01*
X118774188Y-106284482D01*
X118810498Y-106404180D01*
X118869463Y-106514494D01*
X118948815Y-106611185D01*
X119032667Y-106680000D01*
X118948815Y-106748815D01*
X118869463Y-106845506D01*
X118810498Y-106955820D01*
X118774188Y-107075518D01*
X118761928Y-107200000D01*
X118761928Y-108700000D01*
X118774188Y-108824482D01*
X118810498Y-108944180D01*
X118869463Y-109054494D01*
X118948815Y-109151185D01*
X119032667Y-109220000D01*
X118948815Y-109288815D01*
X118869463Y-109385506D01*
X118810498Y-109495820D01*
X118774188Y-109615518D01*
X118761928Y-109740000D01*
X118761928Y-111240000D01*
X118774188Y-111364482D01*
X118810498Y-111484180D01*
X118869463Y-111594494D01*
X118948815Y-111691185D01*
X119045506Y-111770537D01*
X119155820Y-111829502D01*
X119275518Y-111865812D01*
X119400000Y-111878072D01*
X121900000Y-111878072D01*
X122024482Y-111865812D01*
X122055001Y-111856554D01*
X122055001Y-114244238D01*
X122049509Y-114300000D01*
X122071423Y-114522499D01*
X122136324Y-114736447D01*
X122241716Y-114933623D01*
X122383551Y-115106449D01*
X122556377Y-115248284D01*
X122753553Y-115353676D01*
X122967501Y-115418577D01*
X123134248Y-115435000D01*
X123134249Y-115435000D01*
X123190000Y-115440491D01*
X123245752Y-115435000D01*
X132024249Y-115435000D01*
X132080000Y-115440491D01*
X132135751Y-115435000D01*
X132135752Y-115435000D01*
X132302499Y-115418577D01*
X132516447Y-115353676D01*
X132713623Y-115248284D01*
X132886449Y-115106449D01*
X132921996Y-115063135D01*
X135383141Y-112601991D01*
X135426449Y-112566449D01*
X135568284Y-112393623D01*
X135673676Y-112196447D01*
X135738577Y-111982499D01*
X135755000Y-111815752D01*
X135755000Y-111815743D01*
X135760490Y-111760001D01*
X135755000Y-111704259D01*
X135755000Y-93230000D01*
X136541928Y-93230000D01*
X136541928Y-94730000D01*
X136554188Y-94854482D01*
X136590498Y-94974180D01*
X136649463Y-95084494D01*
X136728815Y-95181185D01*
X136788296Y-95230000D01*
X136728815Y-95278815D01*
X136649463Y-95375506D01*
X136590498Y-95485820D01*
X136554188Y-95605518D01*
X136541928Y-95730000D01*
X136541928Y-97230000D01*
X136554188Y-97354482D01*
X136590498Y-97474180D01*
X136649463Y-97584494D01*
X136728815Y-97681185D01*
X136788296Y-97730000D01*
X136728815Y-97778815D01*
X136649463Y-97875506D01*
X136590498Y-97985820D01*
X136554188Y-98105518D01*
X136541928Y-98230000D01*
X136541928Y-99730000D01*
X136554188Y-99854482D01*
X136590498Y-99974180D01*
X136649463Y-100084494D01*
X136728815Y-100181185D01*
X136788296Y-100230000D01*
X136728815Y-100278815D01*
X136649463Y-100375506D01*
X136590498Y-100485820D01*
X136554188Y-100605518D01*
X136541928Y-100730000D01*
X136541928Y-102230000D01*
X136554188Y-102354482D01*
X136590498Y-102474180D01*
X136649463Y-102584494D01*
X136728815Y-102681185D01*
X136788296Y-102730000D01*
X136728815Y-102778815D01*
X136649463Y-102875506D01*
X136590498Y-102985820D01*
X136554188Y-103105518D01*
X136541928Y-103230000D01*
X136541928Y-104730000D01*
X136554188Y-104854482D01*
X136590498Y-104974180D01*
X136649463Y-105084494D01*
X136728815Y-105181185D01*
X136788296Y-105230000D01*
X136728815Y-105278815D01*
X136649463Y-105375506D01*
X136590498Y-105485820D01*
X136554188Y-105605518D01*
X136541928Y-105730000D01*
X136541928Y-107230000D01*
X136554188Y-107354482D01*
X136590498Y-107474180D01*
X136649463Y-107584494D01*
X136728815Y-107681185D01*
X136788296Y-107730000D01*
X136728815Y-107778815D01*
X136649463Y-107875506D01*
X136590498Y-107985820D01*
X136554188Y-108105518D01*
X136541928Y-108230000D01*
X136541928Y-109730000D01*
X136554188Y-109854482D01*
X136590498Y-109974180D01*
X136649463Y-110084494D01*
X136728815Y-110181185D01*
X136788296Y-110230000D01*
X136728815Y-110278815D01*
X136649463Y-110375506D01*
X136590498Y-110485820D01*
X136554188Y-110605518D01*
X136541928Y-110730000D01*
X136541928Y-112230000D01*
X136554188Y-112354482D01*
X136590498Y-112474180D01*
X136649463Y-112584494D01*
X136728815Y-112681185D01*
X136825506Y-112760537D01*
X136935820Y-112819502D01*
X137055518Y-112855812D01*
X137180000Y-112868072D01*
X139680000Y-112868072D01*
X139804482Y-112855812D01*
X139924180Y-112819502D01*
X140034494Y-112760537D01*
X140131185Y-112681185D01*
X140210537Y-112584494D01*
X140269502Y-112474180D01*
X140305812Y-112354482D01*
X140318072Y-112230000D01*
X140318072Y-110730000D01*
X140305812Y-110605518D01*
X140269502Y-110485820D01*
X140210537Y-110375506D01*
X140131185Y-110278815D01*
X140071704Y-110230000D01*
X140131185Y-110181185D01*
X140210537Y-110084494D01*
X140269502Y-109974180D01*
X140305812Y-109854482D01*
X140318072Y-109730000D01*
X140318072Y-108230000D01*
X140305812Y-108105518D01*
X140269502Y-107985820D01*
X140210537Y-107875506D01*
X140131185Y-107778815D01*
X140071704Y-107730000D01*
X140131185Y-107681185D01*
X140210537Y-107584494D01*
X140269502Y-107474180D01*
X140305812Y-107354482D01*
X140318072Y-107230000D01*
X140318072Y-105730000D01*
X140305812Y-105605518D01*
X140269502Y-105485820D01*
X140210537Y-105375506D01*
X140131185Y-105278815D01*
X140071704Y-105230000D01*
X140131185Y-105181185D01*
X140210537Y-105084494D01*
X140269502Y-104974180D01*
X140305812Y-104854482D01*
X140318072Y-104730000D01*
X140318072Y-103230000D01*
X140305812Y-103105518D01*
X140269502Y-102985820D01*
X140210537Y-102875506D01*
X140131185Y-102778815D01*
X140071704Y-102730000D01*
X140131185Y-102681185D01*
X140210537Y-102584494D01*
X140269502Y-102474180D01*
X140305812Y-102354482D01*
X140318072Y-102230000D01*
X140318072Y-100730000D01*
X140305812Y-100605518D01*
X140269502Y-100485820D01*
X140210537Y-100375506D01*
X140131185Y-100278815D01*
X140071704Y-100230000D01*
X140131185Y-100181185D01*
X140210537Y-100084494D01*
X140269502Y-99974180D01*
X140305812Y-99854482D01*
X140318072Y-99730000D01*
X140318072Y-98230000D01*
X140305812Y-98105518D01*
X140269502Y-97985820D01*
X140210537Y-97875506D01*
X140131185Y-97778815D01*
X140071704Y-97730000D01*
X140131185Y-97681185D01*
X140210537Y-97584494D01*
X140269502Y-97474180D01*
X140305812Y-97354482D01*
X140318072Y-97230000D01*
X140318072Y-95730000D01*
X140305812Y-95605518D01*
X140269502Y-95485820D01*
X140210537Y-95375506D01*
X140131185Y-95278815D01*
X140071704Y-95230000D01*
X140131185Y-95181185D01*
X140210537Y-95084494D01*
X140269502Y-94974180D01*
X140305812Y-94854482D01*
X140318072Y-94730000D01*
X140318072Y-93230000D01*
X140305812Y-93105518D01*
X140269502Y-92985820D01*
X140210537Y-92875506D01*
X140131185Y-92778815D01*
X140034494Y-92699463D01*
X139924180Y-92640498D01*
X139804482Y-92604188D01*
X139680000Y-92591928D01*
X137180000Y-92591928D01*
X137055518Y-92604188D01*
X136935820Y-92640498D01*
X136825506Y-92699463D01*
X136728815Y-92778815D01*
X136649463Y-92875506D01*
X136590498Y-92985820D01*
X136554188Y-93105518D01*
X136541928Y-93230000D01*
X135755000Y-93230000D01*
X135755000Y-86830131D01*
X136400132Y-86185000D01*
X136674499Y-86185000D01*
X136728815Y-86251185D01*
X136788296Y-86300000D01*
X136728815Y-86348815D01*
X136649463Y-86445506D01*
X136590498Y-86555820D01*
X136554188Y-86675518D01*
X136541928Y-86800000D01*
X136541928Y-88300000D01*
X136554188Y-88424482D01*
X136590498Y-88544180D01*
X136649463Y-88654494D01*
X136728815Y-88751185D01*
X136788296Y-88800000D01*
X136728815Y-88848815D01*
X136649463Y-88945506D01*
X136590498Y-89055820D01*
X136554188Y-89175518D01*
X136541928Y-89300000D01*
X136541928Y-90800000D01*
X136554188Y-90924482D01*
X136590498Y-91044180D01*
X136649463Y-91154494D01*
X136728815Y-91251185D01*
X136825506Y-91330537D01*
X136935820Y-91389502D01*
X137055518Y-91425812D01*
X137180000Y-91438072D01*
X139680000Y-91438072D01*
X139804482Y-91425812D01*
X139924180Y-91389502D01*
X140034494Y-91330537D01*
X140131185Y-91251185D01*
X140210537Y-91154494D01*
X140269502Y-91044180D01*
X140305812Y-90924482D01*
X140318072Y-90800000D01*
X140318072Y-89300000D01*
X140305812Y-89175518D01*
X140269502Y-89055820D01*
X140210537Y-88945506D01*
X140131185Y-88848815D01*
X140071704Y-88800000D01*
X140131185Y-88751185D01*
X140210537Y-88654494D01*
X140269502Y-88544180D01*
X140305812Y-88424482D01*
X140318072Y-88300000D01*
X140318072Y-86800000D01*
X140305812Y-86675518D01*
X140269502Y-86555820D01*
X140210537Y-86445506D01*
X140131185Y-86348815D01*
X140071704Y-86300000D01*
X140131185Y-86251185D01*
X140210537Y-86154494D01*
X140269502Y-86044180D01*
X140305812Y-85924482D01*
X140318072Y-85800000D01*
X140318072Y-84300000D01*
X140305812Y-84175518D01*
X140269502Y-84055820D01*
X140210537Y-83945506D01*
X140131185Y-83848815D01*
X140071704Y-83800000D01*
X140131185Y-83751185D01*
X140210537Y-83654494D01*
X140269502Y-83544180D01*
X140305812Y-83424482D01*
X140318072Y-83300000D01*
X140318072Y-81800000D01*
X140305812Y-81675518D01*
X140269502Y-81555820D01*
X140210537Y-81445506D01*
X140131185Y-81348815D01*
X140071704Y-81300000D01*
X140131185Y-81251185D01*
X140210537Y-81154494D01*
X140269502Y-81044180D01*
X140305812Y-80924482D01*
X140318072Y-80800000D01*
X140318072Y-79300000D01*
X140305812Y-79175518D01*
X140269502Y-79055820D01*
X140210537Y-78945506D01*
X140131185Y-78848815D01*
X140071704Y-78800000D01*
X140131185Y-78751185D01*
X140210537Y-78654494D01*
X140269502Y-78544180D01*
X140305812Y-78424482D01*
X140318072Y-78300000D01*
X140318072Y-76800000D01*
X140305812Y-76675518D01*
X140269502Y-76555820D01*
X140210537Y-76445506D01*
X140131185Y-76348815D01*
X140071704Y-76300000D01*
X140131185Y-76251185D01*
X140210537Y-76154494D01*
X140269502Y-76044180D01*
X140305812Y-75924482D01*
X140318072Y-75800000D01*
X140318072Y-74300000D01*
X140305812Y-74175518D01*
X140269502Y-74055820D01*
X140210537Y-73945506D01*
X140131185Y-73848815D01*
X140071704Y-73800000D01*
X140131185Y-73751185D01*
X140210537Y-73654494D01*
X140269502Y-73544180D01*
X140305812Y-73424482D01*
X140318072Y-73300000D01*
X140318072Y-71800000D01*
X140305812Y-71675518D01*
X140269502Y-71555820D01*
X140210537Y-71445506D01*
X140131185Y-71348815D01*
X140071704Y-71300000D01*
X140131185Y-71251185D01*
X140210537Y-71154494D01*
X140269502Y-71044180D01*
X140305812Y-70924482D01*
X140318072Y-70800000D01*
X140318072Y-69300000D01*
X140305812Y-69175518D01*
X140269502Y-69055820D01*
X140210537Y-68945506D01*
X140131185Y-68848815D01*
X140071704Y-68800000D01*
X140131185Y-68751185D01*
X140210537Y-68654494D01*
X140269502Y-68544180D01*
X140305812Y-68424482D01*
X140318072Y-68300000D01*
X140318072Y-66800000D01*
X140305812Y-66675518D01*
X140269502Y-66555820D01*
X140210537Y-66445506D01*
X140131185Y-66348815D01*
X140034494Y-66269463D01*
X139924180Y-66210498D01*
X139804482Y-66174188D01*
X139680000Y-66161928D01*
X137180000Y-66161928D01*
X137055518Y-66174188D01*
X136935820Y-66210498D01*
X136825506Y-66269463D01*
X136728815Y-66348815D01*
X136649463Y-66445506D01*
X136590498Y-66555820D01*
X136554188Y-66675518D01*
X136541928Y-66800000D01*
X136541928Y-68300000D01*
X136554188Y-68424482D01*
X136590498Y-68544180D01*
X136649463Y-68654494D01*
X136728815Y-68751185D01*
X136788296Y-68800000D01*
X136728815Y-68848815D01*
X136649463Y-68945506D01*
X136590498Y-69055820D01*
X136554188Y-69175518D01*
X136541928Y-69300000D01*
X136541928Y-70800000D01*
X136554188Y-70924482D01*
X136590498Y-71044180D01*
X136649463Y-71154494D01*
X136728815Y-71251185D01*
X136788296Y-71300000D01*
X136728815Y-71348815D01*
X136649463Y-71445506D01*
X136590498Y-71555820D01*
X136554188Y-71675518D01*
X136541928Y-71800000D01*
X136541928Y-73300000D01*
X136554188Y-73424482D01*
X136590498Y-73544180D01*
X136649463Y-73654494D01*
X136728815Y-73751185D01*
X136788296Y-73800000D01*
X136728815Y-73848815D01*
X136649463Y-73945506D01*
X136590498Y-74055820D01*
X136554188Y-74175518D01*
X136541928Y-74300000D01*
X136541928Y-75800000D01*
X136554188Y-75924482D01*
X136590498Y-76044180D01*
X136632051Y-76121919D01*
X132136996Y-71626865D01*
X132101449Y-71583551D01*
X131928623Y-71441716D01*
X131731447Y-71336324D01*
X131659685Y-71314555D01*
X130701994Y-70356865D01*
X130666447Y-70313551D01*
X130493621Y-70171716D01*
X130296445Y-70066324D01*
X130082497Y-70001423D01*
X129915750Y-69985000D01*
X129915749Y-69985000D01*
X129859998Y-69979509D01*
X129804247Y-69985000D01*
X124515751Y-69985000D01*
X124460000Y-69979509D01*
X124404248Y-69985000D01*
X124237501Y-70001423D01*
X124023553Y-70066324D01*
X123826377Y-70171716D01*
X123653551Y-70313551D01*
X123511716Y-70486377D01*
X123406324Y-70683553D01*
X123341423Y-70897501D01*
X123319509Y-71120000D01*
X123325000Y-71175752D01*
X123325000Y-76739869D01*
X123291996Y-76706865D01*
X123256449Y-76663551D01*
X123083623Y-76521716D01*
X122886447Y-76416324D01*
X122672499Y-76351423D01*
X122505752Y-76335000D01*
X122505751Y-76335000D01*
X122450000Y-76329509D01*
X122404660Y-76333975D01*
X122351185Y-76268815D01*
X122254494Y-76189463D01*
X122144180Y-76130498D01*
X122024482Y-76094188D01*
X121900000Y-76081928D01*
X119400000Y-76081928D01*
X119275518Y-76094188D01*
X119155820Y-76130498D01*
X119045506Y-76189463D01*
X118948815Y-76268815D01*
X118894499Y-76335000D01*
X115625741Y-76335000D01*
X115569999Y-76329510D01*
X115514257Y-76335000D01*
X115514248Y-76335000D01*
X115347501Y-76351423D01*
X115133553Y-76416324D01*
X114936377Y-76521716D01*
X114763551Y-76663551D01*
X114728009Y-76706859D01*
X112266865Y-79168004D01*
X112223551Y-79203551D01*
X112081716Y-79376377D01*
X111976325Y-79573553D01*
X111976324Y-79573554D01*
X111911423Y-79787502D01*
X111901138Y-79891928D01*
X111780000Y-79891928D01*
X111655518Y-79904188D01*
X111535820Y-79940498D01*
X111425506Y-79999463D01*
X111328815Y-80078815D01*
X111249463Y-80175506D01*
X111190498Y-80285820D01*
X111154188Y-80405518D01*
X111141928Y-80530000D01*
X111141928Y-82030000D01*
X111154188Y-82154482D01*
X111190498Y-82274180D01*
X111249463Y-82384494D01*
X111328815Y-82481185D01*
X111425506Y-82560537D01*
X111535820Y-82619502D01*
X111655518Y-82655812D01*
X111780000Y-82668072D01*
X114280000Y-82668072D01*
X114404482Y-82655812D01*
X114524180Y-82619502D01*
X114634494Y-82560537D01*
X114731185Y-82481185D01*
X114810537Y-82384494D01*
X114869502Y-82274180D01*
X114905812Y-82154482D01*
X114918072Y-82030000D01*
X114918072Y-80530000D01*
X114905812Y-80405518D01*
X114869502Y-80285820D01*
X114810537Y-80175506D01*
X114731185Y-80078815D01*
X114640631Y-80004500D01*
X116040132Y-78605000D01*
X118894499Y-78605000D01*
X118948815Y-78671185D01*
X119032667Y-78740000D01*
X118948815Y-78808815D01*
X118869463Y-78905506D01*
X118810498Y-79015820D01*
X118774188Y-79135518D01*
X118761928Y-79260000D01*
X118761928Y-80760000D01*
X118774188Y-80884482D01*
X118810498Y-81004180D01*
X118869463Y-81114494D01*
X118948815Y-81211185D01*
X119032667Y-81280000D01*
X118948815Y-81348815D01*
X118869463Y-81445506D01*
X118810498Y-81555820D01*
X118774188Y-81675518D01*
X118761928Y-81800000D01*
X118761928Y-83300000D01*
X118774188Y-83424482D01*
X118810498Y-83544180D01*
X118869463Y-83654494D01*
X118948815Y-83751185D01*
X119032667Y-83820000D01*
X118948815Y-83888815D01*
X118869463Y-83985506D01*
X118810498Y-84095820D01*
X118774188Y-84215518D01*
X118761928Y-84340000D01*
X118761928Y-85840000D01*
X118774188Y-85964482D01*
X118810498Y-86084180D01*
X118869463Y-86194494D01*
X118948815Y-86291185D01*
X119032667Y-86360000D01*
X118948815Y-86428815D01*
X118869463Y-86525506D01*
X118810498Y-86635820D01*
X118774188Y-86755518D01*
X118761928Y-86880000D01*
X118761928Y-88380000D01*
X118774188Y-88504482D01*
X118810498Y-88624180D01*
X118869463Y-88734494D01*
X118948815Y-88831185D01*
X119032667Y-88900000D01*
X118948815Y-88968815D01*
X118869463Y-89065506D01*
X118810498Y-89175820D01*
X118774188Y-89295518D01*
X118761928Y-89420000D01*
X118761928Y-90920000D01*
X118774188Y-91044482D01*
X118810498Y-91164180D01*
X118869463Y-91274494D01*
X118948815Y-91371185D01*
X119032667Y-91440000D01*
X118948815Y-91508815D01*
X118894499Y-91575000D01*
X117310133Y-91575000D01*
X114165000Y-88429869D01*
X114165000Y-87748072D01*
X114280000Y-87748072D01*
X114404482Y-87735812D01*
X114524180Y-87699502D01*
X114634494Y-87640537D01*
X114731185Y-87561185D01*
X114810537Y-87464494D01*
X114869502Y-87354180D01*
X114905812Y-87234482D01*
X114918072Y-87110000D01*
X114918072Y-85610000D01*
X114905812Y-85485518D01*
X114869502Y-85365820D01*
X114810537Y-85255506D01*
X114731185Y-85158815D01*
X114634494Y-85079463D01*
X114524180Y-85020498D01*
X114404482Y-84984188D01*
X114280000Y-84971928D01*
X111780000Y-84971928D01*
X111655518Y-84984188D01*
X111535820Y-85020498D01*
X111425506Y-85079463D01*
X111328815Y-85158815D01*
X111274499Y-85225000D01*
X104195752Y-85225000D01*
X104140000Y-85219509D01*
X103917501Y-85241423D01*
X103703553Y-85306324D01*
X103506377Y-85411716D01*
X103376856Y-85518011D01*
X103376854Y-85518013D01*
X103333551Y-85553551D01*
X103298013Y-85596854D01*
X99939869Y-88955000D01*
X91925501Y-88955000D01*
X91871185Y-88888815D01*
X91811704Y-88840000D01*
X91871185Y-88791185D01*
X91950537Y-88694494D01*
X92009502Y-88584180D01*
X92045812Y-88464482D01*
X92058072Y-88340000D01*
X92058072Y-86840000D01*
X92045812Y-86715518D01*
X92009502Y-86595820D01*
X91950537Y-86485506D01*
X91871185Y-86388815D01*
X91811704Y-86340000D01*
X91871185Y-86291185D01*
X91950537Y-86194494D01*
X92009502Y-86084180D01*
X92045812Y-85964482D01*
X92058072Y-85840000D01*
X92058072Y-84340000D01*
X92045812Y-84215518D01*
X92009502Y-84095820D01*
X91950537Y-83985506D01*
X91871185Y-83888815D01*
X91811704Y-83840000D01*
X91871185Y-83791185D01*
X91950537Y-83694494D01*
X92009502Y-83584180D01*
X92045812Y-83464482D01*
X92058072Y-83340000D01*
X92058072Y-81840000D01*
X92045812Y-81715518D01*
X92009502Y-81595820D01*
X91950537Y-81485506D01*
X91871185Y-81388815D01*
X91811704Y-81340000D01*
X91871185Y-81291185D01*
X91950537Y-81194494D01*
X92009502Y-81084180D01*
X92045812Y-80964482D01*
X92058072Y-80840000D01*
X92058072Y-79340000D01*
X92045812Y-79215518D01*
X92009502Y-79095820D01*
X91950537Y-78985506D01*
X91871185Y-78888815D01*
X91774494Y-78809463D01*
X91664180Y-78750498D01*
X91544482Y-78714188D01*
X91420000Y-78701928D01*
X88920000Y-78701928D01*
X88795518Y-78714188D01*
X88675820Y-78750498D01*
X88565506Y-78809463D01*
X88468815Y-78888815D01*
X88389463Y-78985506D01*
X88330498Y-79095820D01*
X88294188Y-79215518D01*
X88281928Y-79340000D01*
X85750000Y-79340000D01*
X85750000Y-61620000D01*
X142850001Y-61620000D01*
X142850000Y-119990000D01*
X142850000Y-119990000D01*
G37*
X142850000Y-119990000D02*
X85750000Y-119990000D01*
X85750000Y-102120000D01*
X88281928Y-102120000D01*
X88281928Y-103620000D01*
X88294188Y-103744482D01*
X88330498Y-103864180D01*
X88389463Y-103974494D01*
X88468815Y-104071185D01*
X88528296Y-104120000D01*
X88468815Y-104168815D01*
X88389463Y-104265506D01*
X88330498Y-104375820D01*
X88294188Y-104495518D01*
X88281928Y-104620000D01*
X88281928Y-106120000D01*
X88294188Y-106244482D01*
X88330498Y-106364180D01*
X88389463Y-106474494D01*
X88468815Y-106571185D01*
X88528296Y-106620000D01*
X88468815Y-106668815D01*
X88389463Y-106765506D01*
X88330498Y-106875820D01*
X88294188Y-106995518D01*
X88281928Y-107120000D01*
X88281928Y-108620000D01*
X88294188Y-108744482D01*
X88330498Y-108864180D01*
X88389463Y-108974494D01*
X88468815Y-109071185D01*
X88528296Y-109120000D01*
X88468815Y-109168815D01*
X88389463Y-109265506D01*
X88330498Y-109375820D01*
X88294188Y-109495518D01*
X88281928Y-109620000D01*
X88281928Y-111120000D01*
X88294188Y-111244482D01*
X88330498Y-111364180D01*
X88389463Y-111474494D01*
X88468815Y-111571185D01*
X88528296Y-111620000D01*
X88468815Y-111668815D01*
X88389463Y-111765506D01*
X88330498Y-111875820D01*
X88294188Y-111995518D01*
X88281928Y-112120000D01*
X88281928Y-113620000D01*
X88294188Y-113744482D01*
X88330498Y-113864180D01*
X88389463Y-113974494D01*
X88468815Y-114071185D01*
X88565506Y-114150537D01*
X88675820Y-114209502D01*
X88795518Y-114245812D01*
X88920000Y-114258072D01*
X91420000Y-114258072D01*
X91544482Y-114245812D01*
X91664180Y-114209502D01*
X91774494Y-114150537D01*
X91871185Y-114071185D01*
X91950537Y-113974494D01*
X92009502Y-113864180D01*
X92045812Y-113744482D01*
X92058072Y-113620000D01*
X92058072Y-112120000D01*
X92045812Y-111995518D01*
X92009502Y-111875820D01*
X91950537Y-111765506D01*
X91871185Y-111668815D01*
X91811704Y-111620000D01*
X91871185Y-111571185D01*
X91950537Y-111474494D01*
X92009502Y-111364180D01*
X92045812Y-111244482D01*
X92058072Y-111120000D01*
X92058072Y-109620000D01*
X92045812Y-109495518D01*
X92009502Y-109375820D01*
X91950537Y-109265506D01*
X91871185Y-109168815D01*
X91811704Y-109120000D01*
X91871185Y-109071185D01*
X91950537Y-108974494D01*
X92009502Y-108864180D01*
X92045812Y-108744482D01*
X92058072Y-108620000D01*
X92058072Y-107120000D01*
X92045812Y-106995518D01*
X92009502Y-106875820D01*
X91950537Y-106765506D01*
X91871185Y-106668815D01*
X91811704Y-106620000D01*
X91871185Y-106571185D01*
X91950537Y-106474494D01*
X92009502Y-106364180D01*
X92045812Y-106244482D01*
X92058072Y-106120000D01*
X92058072Y-104620000D01*
X92045812Y-104495518D01*
X92009502Y-104375820D01*
X91950537Y-104265506D01*
X91871185Y-104168815D01*
X91811704Y-104120000D01*
X91871185Y-104071185D01*
X91950537Y-103974494D01*
X92009502Y-103864180D01*
X92045812Y-103744482D01*
X92058072Y-103620000D01*
X92058072Y-102120000D01*
X92045812Y-101995518D01*
X92009502Y-101875820D01*
X91950537Y-101765506D01*
X91871185Y-101668815D01*
X91774494Y-101589463D01*
X91664180Y-101530498D01*
X91544482Y-101494188D01*
X91420000Y-101481928D01*
X88920000Y-101481928D01*
X88795518Y-101494188D01*
X88675820Y-101530498D01*
X88565506Y-101589463D01*
X88468815Y-101668815D01*
X88389463Y-101765506D01*
X88330498Y-101875820D01*
X88294188Y-101995518D01*
X88281928Y-102120000D01*
X85750000Y-102120000D01*
X85750000Y-99187000D01*
X107331928Y-99187000D01*
X107331928Y-99810000D01*
X107344188Y-99934482D01*
X107380498Y-100054180D01*
X107439463Y-100164494D01*
X107518815Y-100261185D01*
X107615506Y-100340537D01*
X107725820Y-100399502D01*
X107845518Y-100435812D01*
X107970000Y-100448072D01*
X109093000Y-100448072D01*
X109093000Y-99187000D01*
X109347000Y-99187000D01*
X109347000Y-100448072D01*
X110470000Y-100448072D01*
X110594482Y-100435812D01*
X110714180Y-100399502D01*
X110824494Y-100340537D01*
X110921185Y-100261185D01*
X111000537Y-100164494D01*
X111059502Y-100054180D01*
X111095812Y-99934482D01*
X111108072Y-99810000D01*
X111108072Y-99187000D01*
X109347000Y-99187000D01*
X109093000Y-99187000D01*
X107331928Y-99187000D01*
X85750000Y-99187000D01*
X85750000Y-92717000D01*
X88281928Y-92717000D01*
X88281928Y-93340000D01*
X88294188Y-93464482D01*
X88330498Y-93584180D01*
X88389463Y-93694494D01*
X88468815Y-93791185D01*
X88528296Y-93840000D01*
X88468815Y-93888815D01*
X88389463Y-93985506D01*
X88330498Y-94095820D01*
X88294188Y-94215518D01*
X88281928Y-94340000D01*
X88281928Y-95840000D01*
X88294188Y-95964482D01*
X88330498Y-96084180D01*
X88389463Y-96194494D01*
X88468815Y-96291185D01*
X88528296Y-96340000D01*
X88468815Y-96388815D01*
X88389463Y-96485506D01*
X88330498Y-96595820D01*
X88294188Y-96715518D01*
X88281928Y-96840000D01*
X88281928Y-98340000D01*
X88294188Y-98464482D01*
X88330498Y-98584180D01*
X88389463Y-98694494D01*
X88468815Y-98791185D01*
X88565506Y-98870537D01*
X88675820Y-98929502D01*
X88795518Y-98965812D01*
X88920000Y-98978072D01*
X91420000Y-98978072D01*
X91544482Y-98965812D01*
X91664180Y-98929502D01*
X91774494Y-98870537D01*
X91871185Y-98791185D01*
X91950537Y-98694494D01*
X92009502Y-98584180D01*
X92045812Y-98464482D01*
X92058072Y-98340000D01*
X92058072Y-96840000D01*
X92045812Y-96715518D01*
X92009502Y-96595820D01*
X91950537Y-96485506D01*
X91871185Y-96388815D01*
X91811704Y-96340000D01*
X91871185Y-96291185D01*
X91950537Y-96194494D01*
X92009502Y-96084180D01*
X92045812Y-95964482D01*
X92058072Y-95840000D01*
X92058072Y-94340000D01*
X92045812Y-94215518D01*
X92009502Y-94095820D01*
X91950537Y-93985506D01*
X91871185Y-93888815D01*
X91811704Y-93840000D01*
X91871185Y-93791185D01*
X91950537Y-93694494D01*
X92009502Y-93584180D01*
X92045812Y-93464482D01*
X92058072Y-93340000D01*
X92058072Y-92717000D01*
X90297000Y-92717000D01*
X90297000Y-92737000D01*
X90043000Y-92737000D01*
X90043000Y-92717000D01*
X88281928Y-92717000D01*
X85750000Y-92717000D01*
X85750000Y-79340000D01*
X88281928Y-79340000D01*
X88281928Y-80840000D01*
X88294188Y-80964482D01*
X88330498Y-81084180D01*
X88389463Y-81194494D01*
X88468815Y-81291185D01*
X88528296Y-81340000D01*
X88468815Y-81388815D01*
X88389463Y-81485506D01*
X88330498Y-81595820D01*
X88294188Y-81715518D01*
X88281928Y-81840000D01*
X88281928Y-83340000D01*
X88294188Y-83464482D01*
X88330498Y-83584180D01*
X88389463Y-83694494D01*
X88468815Y-83791185D01*
X88528296Y-83840000D01*
X88468815Y-83888815D01*
X88389463Y-83985506D01*
X88330498Y-84095820D01*
X88294188Y-84215518D01*
X88281928Y-84340000D01*
X88281928Y-85840000D01*
X88294188Y-85964482D01*
X88330498Y-86084180D01*
X88389463Y-86194494D01*
X88468815Y-86291185D01*
X88528296Y-86340000D01*
X88468815Y-86388815D01*
X88389463Y-86485506D01*
X88330498Y-86595820D01*
X88294188Y-86715518D01*
X88281928Y-86840000D01*
X88281928Y-88340000D01*
X88294188Y-88464482D01*
X88330498Y-88584180D01*
X88389463Y-88694494D01*
X88468815Y-88791185D01*
X88528296Y-88840000D01*
X88468815Y-88888815D01*
X88389463Y-88985506D01*
X88330498Y-89095820D01*
X88294188Y-89215518D01*
X88281928Y-89340000D01*
X88281928Y-90840000D01*
X88294188Y-90964482D01*
X88330498Y-91084180D01*
X88389463Y-91194494D01*
X88468815Y-91291185D01*
X88528296Y-91340000D01*
X88468815Y-91388815D01*
X88389463Y-91485506D01*
X88330498Y-91595820D01*
X88294188Y-91715518D01*
X88281928Y-91840000D01*
X88281928Y-92463000D01*
X90043000Y-92463000D01*
X90043000Y-92443000D01*
X90297000Y-92443000D01*
X90297000Y-92463000D01*
X92058072Y-92463000D01*
X92058072Y-91840000D01*
X92045812Y-91715518D01*
X92025028Y-91647000D01*
X107331928Y-91647000D01*
X107331928Y-92270000D01*
X107344188Y-92394482D01*
X107380498Y-92514180D01*
X107439463Y-92624494D01*
X107518815Y-92721185D01*
X107615506Y-92800537D01*
X107725820Y-92859502D01*
X107845518Y-92895812D01*
X107970000Y-92908072D01*
X109093000Y-92908072D01*
X109093000Y-91647000D01*
X109347000Y-91647000D01*
X109347000Y-92908072D01*
X110470000Y-92908072D01*
X110594482Y-92895812D01*
X110714180Y-92859502D01*
X110824494Y-92800537D01*
X110921185Y-92721185D01*
X111000537Y-92624494D01*
X111059502Y-92514180D01*
X111095812Y-92394482D01*
X111108072Y-92270000D01*
X111108072Y-91647000D01*
X109347000Y-91647000D01*
X109093000Y-91647000D01*
X107331928Y-91647000D01*
X92025028Y-91647000D01*
X92009502Y-91595820D01*
X91950537Y-91485506D01*
X91871185Y-91388815D01*
X91811704Y-91340000D01*
X91871185Y-91291185D01*
X91925501Y-91225000D01*
X100354249Y-91225000D01*
X100410000Y-91230491D01*
X100465751Y-91225000D01*
X100465752Y-91225000D01*
X100632499Y-91208577D01*
X100846447Y-91143676D01*
X101043623Y-91038284D01*
X101216449Y-90896449D01*
X101251996Y-90853135D01*
X101335131Y-90770000D01*
X107331928Y-90770000D01*
X107331928Y-91393000D01*
X109093000Y-91393000D01*
X109093000Y-90131928D01*
X109347000Y-90131928D01*
X109347000Y-91393000D01*
X111108072Y-91393000D01*
X111108072Y-90770000D01*
X111095812Y-90645518D01*
X111059502Y-90525820D01*
X111000537Y-90415506D01*
X110921185Y-90318815D01*
X110824494Y-90239463D01*
X110714180Y-90180498D01*
X110594482Y-90144188D01*
X110470000Y-90131928D01*
X109347000Y-90131928D01*
X109093000Y-90131928D01*
X107970000Y-90131928D01*
X107845518Y-90144188D01*
X107725820Y-90180498D01*
X107615506Y-90239463D01*
X107518815Y-90318815D01*
X107439463Y-90415506D01*
X107380498Y-90525820D01*
X107344188Y-90645518D01*
X107331928Y-90770000D01*
X101335131Y-90770000D01*
X104610133Y-87495000D01*
X111274499Y-87495000D01*
X111328815Y-87561185D01*
X111425506Y-87640537D01*
X111535820Y-87699502D01*
X111655518Y-87735812D01*
X111780000Y-87748072D01*
X111895001Y-87748072D01*
X111895001Y-88844239D01*
X111889509Y-88900000D01*
X111911423Y-89122498D01*
X111976324Y-89336446D01*
X111976325Y-89336447D01*
X112081717Y-89533623D01*
X112223552Y-89706449D01*
X112266860Y-89741991D01*
X115998013Y-93473146D01*
X116033551Y-93516449D01*
X116076854Y-93551987D01*
X116076856Y-93551989D01*
X116206377Y-93658284D01*
X116403553Y-93763676D01*
X116617501Y-93828577D01*
X116840000Y-93850491D01*
X116895752Y-93845000D01*
X118894499Y-93845000D01*
X118948815Y-93911185D01*
X119032667Y-93980000D01*
X118948815Y-94048815D01*
X118869463Y-94145506D01*
X118810498Y-94255820D01*
X118774188Y-94375518D01*
X118761928Y-94500000D01*
X118761928Y-95123000D01*
X120523000Y-95123000D01*
X120523000Y-95103000D01*
X120777000Y-95103000D01*
X120777000Y-95123000D01*
X120797000Y-95123000D01*
X120797000Y-95377000D01*
X120777000Y-95377000D01*
X120777000Y-95397000D01*
X120523000Y-95397000D01*
X120523000Y-95377000D01*
X118761928Y-95377000D01*
X118761928Y-96000000D01*
X118774188Y-96124482D01*
X118810498Y-96244180D01*
X118869463Y-96354494D01*
X118948815Y-96451185D01*
X119032667Y-96520000D01*
X118948815Y-96588815D01*
X118894499Y-96655000D01*
X117325501Y-96655000D01*
X117271185Y-96588815D01*
X117174494Y-96509463D01*
X117064180Y-96450498D01*
X116944482Y-96414188D01*
X116820000Y-96401928D01*
X115787060Y-96401928D01*
X115141996Y-95756865D01*
X115106449Y-95713551D01*
X114933623Y-95571716D01*
X114736447Y-95466324D01*
X114522499Y-95401423D01*
X114355752Y-95385000D01*
X114355751Y-95385000D01*
X114300000Y-95379509D01*
X114244249Y-95385000D01*
X110975501Y-95385000D01*
X110921185Y-95318815D01*
X110824494Y-95239463D01*
X110714180Y-95180498D01*
X110594482Y-95144188D01*
X110470000Y-95131928D01*
X107970000Y-95131928D01*
X107845518Y-95144188D01*
X107725820Y-95180498D01*
X107615506Y-95239463D01*
X107518815Y-95318815D01*
X107439463Y-95415506D01*
X107380498Y-95525820D01*
X107344188Y-95645518D01*
X107331928Y-95770000D01*
X107331928Y-97270000D01*
X107344188Y-97394482D01*
X107380498Y-97514180D01*
X107439463Y-97624494D01*
X107518815Y-97721185D01*
X107602667Y-97790000D01*
X107518815Y-97858815D01*
X107439463Y-97955506D01*
X107380498Y-98065820D01*
X107344188Y-98185518D01*
X107331928Y-98310000D01*
X107331928Y-98933000D01*
X109093000Y-98933000D01*
X109093000Y-98913000D01*
X109347000Y-98913000D01*
X109347000Y-98933000D01*
X111108072Y-98933000D01*
X111108072Y-98310000D01*
X111095812Y-98185518D01*
X111059502Y-98065820D01*
X111000537Y-97955506D01*
X110921185Y-97858815D01*
X110837333Y-97790000D01*
X110921185Y-97721185D01*
X110975501Y-97655000D01*
X113681928Y-97655000D01*
X113681928Y-98540000D01*
X113683405Y-98555000D01*
X113645741Y-98555000D01*
X113589999Y-98549510D01*
X113534257Y-98555000D01*
X113534248Y-98555000D01*
X113367501Y-98571423D01*
X113153553Y-98636324D01*
X112956377Y-98741716D01*
X112783551Y-98883551D01*
X112748009Y-98926859D01*
X109002941Y-102671928D01*
X107970000Y-102671928D01*
X107845518Y-102684188D01*
X107725820Y-102720498D01*
X107615506Y-102779463D01*
X107518815Y-102858815D01*
X107439463Y-102955506D01*
X107380498Y-103065820D01*
X107344188Y-103185518D01*
X107331928Y-103310000D01*
X107331928Y-104810000D01*
X107344188Y-104934482D01*
X107380498Y-105054180D01*
X107439463Y-105164494D01*
X107518815Y-105261185D01*
X107615506Y-105340537D01*
X107725820Y-105399502D01*
X107845518Y-105435812D01*
X107970000Y-105448072D01*
X110470000Y-105448072D01*
X110594482Y-105435812D01*
X110714180Y-105399502D01*
X110824494Y-105340537D01*
X110921185Y-105261185D01*
X111000537Y-105164494D01*
X111059502Y-105054180D01*
X111095812Y-104934482D01*
X111108072Y-104810000D01*
X111108072Y-103777059D01*
X113937543Y-100947589D01*
X113965506Y-100970537D01*
X114075820Y-101029502D01*
X114195518Y-101065812D01*
X114320000Y-101078072D01*
X115352940Y-101078072D01*
X115368008Y-101093140D01*
X115403551Y-101136449D01*
X115576376Y-101278283D01*
X115576377Y-101278284D01*
X115773553Y-101383676D01*
X115987501Y-101448577D01*
X116210000Y-101470491D01*
X116265752Y-101465000D01*
X118894499Y-101465000D01*
X118948815Y-101531185D01*
X119032667Y-101600000D01*
X118948815Y-101668815D01*
X118869463Y-101765506D01*
X118810498Y-101875820D01*
X118774188Y-101995518D01*
X118761928Y-102120000D01*
X118761928Y-103620000D01*
X118774188Y-103744482D01*
X118810498Y-103864180D01*
X118869463Y-103974494D01*
X118948815Y-104071185D01*
X119032667Y-104140000D01*
X118948815Y-104208815D01*
X118869463Y-104305506D01*
X118810498Y-104415820D01*
X118774188Y-104535518D01*
X118761928Y-104660000D01*
X118761928Y-106160000D01*
X118774188Y-106284482D01*
X118810498Y-106404180D01*
X118869463Y-106514494D01*
X118948815Y-106611185D01*
X119032667Y-106680000D01*
X118948815Y-106748815D01*
X118869463Y-106845506D01*
X118810498Y-106955820D01*
X118774188Y-107075518D01*
X118761928Y-107200000D01*
X118761928Y-108700000D01*
X118774188Y-108824482D01*
X118810498Y-108944180D01*
X118869463Y-109054494D01*
X118948815Y-109151185D01*
X119032667Y-109220000D01*
X118948815Y-109288815D01*
X118869463Y-109385506D01*
X118810498Y-109495820D01*
X118774188Y-109615518D01*
X118761928Y-109740000D01*
X118761928Y-111240000D01*
X118774188Y-111364482D01*
X118810498Y-111484180D01*
X118869463Y-111594494D01*
X118948815Y-111691185D01*
X119045506Y-111770537D01*
X119155820Y-111829502D01*
X119275518Y-111865812D01*
X119400000Y-111878072D01*
X121900000Y-111878072D01*
X122024482Y-111865812D01*
X122055001Y-111856554D01*
X122055001Y-114244238D01*
X122049509Y-114300000D01*
X122071423Y-114522499D01*
X122136324Y-114736447D01*
X122241716Y-114933623D01*
X122383551Y-115106449D01*
X122556377Y-115248284D01*
X122753553Y-115353676D01*
X122967501Y-115418577D01*
X123134248Y-115435000D01*
X123134249Y-115435000D01*
X123190000Y-115440491D01*
X123245752Y-115435000D01*
X132024249Y-115435000D01*
X132080000Y-115440491D01*
X132135751Y-115435000D01*
X132135752Y-115435000D01*
X132302499Y-115418577D01*
X132516447Y-115353676D01*
X132713623Y-115248284D01*
X132886449Y-115106449D01*
X132921996Y-115063135D01*
X135383141Y-112601991D01*
X135426449Y-112566449D01*
X135568284Y-112393623D01*
X135673676Y-112196447D01*
X135738577Y-111982499D01*
X135755000Y-111815752D01*
X135755000Y-111815743D01*
X135760490Y-111760001D01*
X135755000Y-111704259D01*
X135755000Y-93230000D01*
X136541928Y-93230000D01*
X136541928Y-94730000D01*
X136554188Y-94854482D01*
X136590498Y-94974180D01*
X136649463Y-95084494D01*
X136728815Y-95181185D01*
X136788296Y-95230000D01*
X136728815Y-95278815D01*
X136649463Y-95375506D01*
X136590498Y-95485820D01*
X136554188Y-95605518D01*
X136541928Y-95730000D01*
X136541928Y-97230000D01*
X136554188Y-97354482D01*
X136590498Y-97474180D01*
X136649463Y-97584494D01*
X136728815Y-97681185D01*
X136788296Y-97730000D01*
X136728815Y-97778815D01*
X136649463Y-97875506D01*
X136590498Y-97985820D01*
X136554188Y-98105518D01*
X136541928Y-98230000D01*
X136541928Y-99730000D01*
X136554188Y-99854482D01*
X136590498Y-99974180D01*
X136649463Y-100084494D01*
X136728815Y-100181185D01*
X136788296Y-100230000D01*
X136728815Y-100278815D01*
X136649463Y-100375506D01*
X136590498Y-100485820D01*
X136554188Y-100605518D01*
X136541928Y-100730000D01*
X136541928Y-102230000D01*
X136554188Y-102354482D01*
X136590498Y-102474180D01*
X136649463Y-102584494D01*
X136728815Y-102681185D01*
X136788296Y-102730000D01*
X136728815Y-102778815D01*
X136649463Y-102875506D01*
X136590498Y-102985820D01*
X136554188Y-103105518D01*
X136541928Y-103230000D01*
X136541928Y-104730000D01*
X136554188Y-104854482D01*
X136590498Y-104974180D01*
X136649463Y-105084494D01*
X136728815Y-105181185D01*
X136788296Y-105230000D01*
X136728815Y-105278815D01*
X136649463Y-105375506D01*
X136590498Y-105485820D01*
X136554188Y-105605518D01*
X136541928Y-105730000D01*
X136541928Y-107230000D01*
X136554188Y-107354482D01*
X136590498Y-107474180D01*
X136649463Y-107584494D01*
X136728815Y-107681185D01*
X136788296Y-107730000D01*
X136728815Y-107778815D01*
X136649463Y-107875506D01*
X136590498Y-107985820D01*
X136554188Y-108105518D01*
X136541928Y-108230000D01*
X136541928Y-109730000D01*
X136554188Y-109854482D01*
X136590498Y-109974180D01*
X136649463Y-110084494D01*
X136728815Y-110181185D01*
X136788296Y-110230000D01*
X136728815Y-110278815D01*
X136649463Y-110375506D01*
X136590498Y-110485820D01*
X136554188Y-110605518D01*
X136541928Y-110730000D01*
X136541928Y-112230000D01*
X136554188Y-112354482D01*
X136590498Y-112474180D01*
X136649463Y-112584494D01*
X136728815Y-112681185D01*
X136825506Y-112760537D01*
X136935820Y-112819502D01*
X137055518Y-112855812D01*
X137180000Y-112868072D01*
X139680000Y-112868072D01*
X139804482Y-112855812D01*
X139924180Y-112819502D01*
X140034494Y-112760537D01*
X140131185Y-112681185D01*
X140210537Y-112584494D01*
X140269502Y-112474180D01*
X140305812Y-112354482D01*
X140318072Y-112230000D01*
X140318072Y-110730000D01*
X140305812Y-110605518D01*
X140269502Y-110485820D01*
X140210537Y-110375506D01*
X140131185Y-110278815D01*
X140071704Y-110230000D01*
X140131185Y-110181185D01*
X140210537Y-110084494D01*
X140269502Y-109974180D01*
X140305812Y-109854482D01*
X140318072Y-109730000D01*
X140318072Y-108230000D01*
X140305812Y-108105518D01*
X140269502Y-107985820D01*
X140210537Y-107875506D01*
X140131185Y-107778815D01*
X140071704Y-107730000D01*
X140131185Y-107681185D01*
X140210537Y-107584494D01*
X140269502Y-107474180D01*
X140305812Y-107354482D01*
X140318072Y-107230000D01*
X140318072Y-105730000D01*
X140305812Y-105605518D01*
X140269502Y-105485820D01*
X140210537Y-105375506D01*
X140131185Y-105278815D01*
X140071704Y-105230000D01*
X140131185Y-105181185D01*
X140210537Y-105084494D01*
X140269502Y-104974180D01*
X140305812Y-104854482D01*
X140318072Y-104730000D01*
X140318072Y-103230000D01*
X140305812Y-103105518D01*
X140269502Y-102985820D01*
X140210537Y-102875506D01*
X140131185Y-102778815D01*
X140071704Y-102730000D01*
X140131185Y-102681185D01*
X140210537Y-102584494D01*
X140269502Y-102474180D01*
X140305812Y-102354482D01*
X140318072Y-102230000D01*
X140318072Y-100730000D01*
X140305812Y-100605518D01*
X140269502Y-100485820D01*
X140210537Y-100375506D01*
X140131185Y-100278815D01*
X140071704Y-100230000D01*
X140131185Y-100181185D01*
X140210537Y-100084494D01*
X140269502Y-99974180D01*
X140305812Y-99854482D01*
X140318072Y-99730000D01*
X140318072Y-98230000D01*
X140305812Y-98105518D01*
X140269502Y-97985820D01*
X140210537Y-97875506D01*
X140131185Y-97778815D01*
X140071704Y-97730000D01*
X140131185Y-97681185D01*
X140210537Y-97584494D01*
X140269502Y-97474180D01*
X140305812Y-97354482D01*
X140318072Y-97230000D01*
X140318072Y-95730000D01*
X140305812Y-95605518D01*
X140269502Y-95485820D01*
X140210537Y-95375506D01*
X140131185Y-95278815D01*
X140071704Y-95230000D01*
X140131185Y-95181185D01*
X140210537Y-95084494D01*
X140269502Y-94974180D01*
X140305812Y-94854482D01*
X140318072Y-94730000D01*
X140318072Y-93230000D01*
X140305812Y-93105518D01*
X140269502Y-92985820D01*
X140210537Y-92875506D01*
X140131185Y-92778815D01*
X140034494Y-92699463D01*
X139924180Y-92640498D01*
X139804482Y-92604188D01*
X139680000Y-92591928D01*
X137180000Y-92591928D01*
X137055518Y-92604188D01*
X136935820Y-92640498D01*
X136825506Y-92699463D01*
X136728815Y-92778815D01*
X136649463Y-92875506D01*
X136590498Y-92985820D01*
X136554188Y-93105518D01*
X136541928Y-93230000D01*
X135755000Y-93230000D01*
X135755000Y-86830131D01*
X136400132Y-86185000D01*
X136674499Y-86185000D01*
X136728815Y-86251185D01*
X136788296Y-86300000D01*
X136728815Y-86348815D01*
X136649463Y-86445506D01*
X136590498Y-86555820D01*
X136554188Y-86675518D01*
X136541928Y-86800000D01*
X136541928Y-88300000D01*
X136554188Y-88424482D01*
X136590498Y-88544180D01*
X136649463Y-88654494D01*
X136728815Y-88751185D01*
X136788296Y-88800000D01*
X136728815Y-88848815D01*
X136649463Y-88945506D01*
X136590498Y-89055820D01*
X136554188Y-89175518D01*
X136541928Y-89300000D01*
X136541928Y-90800000D01*
X136554188Y-90924482D01*
X136590498Y-91044180D01*
X136649463Y-91154494D01*
X136728815Y-91251185D01*
X136825506Y-91330537D01*
X136935820Y-91389502D01*
X137055518Y-91425812D01*
X137180000Y-91438072D01*
X139680000Y-91438072D01*
X139804482Y-91425812D01*
X139924180Y-91389502D01*
X140034494Y-91330537D01*
X140131185Y-91251185D01*
X140210537Y-91154494D01*
X140269502Y-91044180D01*
X140305812Y-90924482D01*
X140318072Y-90800000D01*
X140318072Y-89300000D01*
X140305812Y-89175518D01*
X140269502Y-89055820D01*
X140210537Y-88945506D01*
X140131185Y-88848815D01*
X140071704Y-88800000D01*
X140131185Y-88751185D01*
X140210537Y-88654494D01*
X140269502Y-88544180D01*
X140305812Y-88424482D01*
X140318072Y-88300000D01*
X140318072Y-86800000D01*
X140305812Y-86675518D01*
X140269502Y-86555820D01*
X140210537Y-86445506D01*
X140131185Y-86348815D01*
X140071704Y-86300000D01*
X140131185Y-86251185D01*
X140210537Y-86154494D01*
X140269502Y-86044180D01*
X140305812Y-85924482D01*
X140318072Y-85800000D01*
X140318072Y-84300000D01*
X140305812Y-84175518D01*
X140269502Y-84055820D01*
X140210537Y-83945506D01*
X140131185Y-83848815D01*
X140071704Y-83800000D01*
X140131185Y-83751185D01*
X140210537Y-83654494D01*
X140269502Y-83544180D01*
X140305812Y-83424482D01*
X140318072Y-83300000D01*
X140318072Y-81800000D01*
X140305812Y-81675518D01*
X140269502Y-81555820D01*
X140210537Y-81445506D01*
X140131185Y-81348815D01*
X140071704Y-81300000D01*
X140131185Y-81251185D01*
X140210537Y-81154494D01*
X140269502Y-81044180D01*
X140305812Y-80924482D01*
X140318072Y-80800000D01*
X140318072Y-79300000D01*
X140305812Y-79175518D01*
X140269502Y-79055820D01*
X140210537Y-78945506D01*
X140131185Y-78848815D01*
X140071704Y-78800000D01*
X140131185Y-78751185D01*
X140210537Y-78654494D01*
X140269502Y-78544180D01*
X140305812Y-78424482D01*
X140318072Y-78300000D01*
X140318072Y-76800000D01*
X140305812Y-76675518D01*
X140269502Y-76555820D01*
X140210537Y-76445506D01*
X140131185Y-76348815D01*
X140071704Y-76300000D01*
X140131185Y-76251185D01*
X140210537Y-76154494D01*
X140269502Y-76044180D01*
X140305812Y-75924482D01*
X140318072Y-75800000D01*
X140318072Y-74300000D01*
X140305812Y-74175518D01*
X140269502Y-74055820D01*
X140210537Y-73945506D01*
X140131185Y-73848815D01*
X140071704Y-73800000D01*
X140131185Y-73751185D01*
X140210537Y-73654494D01*
X140269502Y-73544180D01*
X140305812Y-73424482D01*
X140318072Y-73300000D01*
X140318072Y-71800000D01*
X140305812Y-71675518D01*
X140269502Y-71555820D01*
X140210537Y-71445506D01*
X140131185Y-71348815D01*
X140071704Y-71300000D01*
X140131185Y-71251185D01*
X140210537Y-71154494D01*
X140269502Y-71044180D01*
X140305812Y-70924482D01*
X140318072Y-70800000D01*
X140318072Y-69300000D01*
X140305812Y-69175518D01*
X140269502Y-69055820D01*
X140210537Y-68945506D01*
X140131185Y-68848815D01*
X140071704Y-68800000D01*
X140131185Y-68751185D01*
X140210537Y-68654494D01*
X140269502Y-68544180D01*
X140305812Y-68424482D01*
X140318072Y-68300000D01*
X140318072Y-66800000D01*
X140305812Y-66675518D01*
X140269502Y-66555820D01*
X140210537Y-66445506D01*
X140131185Y-66348815D01*
X140034494Y-66269463D01*
X139924180Y-66210498D01*
X139804482Y-66174188D01*
X139680000Y-66161928D01*
X137180000Y-66161928D01*
X137055518Y-66174188D01*
X136935820Y-66210498D01*
X136825506Y-66269463D01*
X136728815Y-66348815D01*
X136649463Y-66445506D01*
X136590498Y-66555820D01*
X136554188Y-66675518D01*
X136541928Y-66800000D01*
X136541928Y-68300000D01*
X136554188Y-68424482D01*
X136590498Y-68544180D01*
X136649463Y-68654494D01*
X136728815Y-68751185D01*
X136788296Y-68800000D01*
X136728815Y-68848815D01*
X136649463Y-68945506D01*
X136590498Y-69055820D01*
X136554188Y-69175518D01*
X136541928Y-69300000D01*
X136541928Y-70800000D01*
X136554188Y-70924482D01*
X136590498Y-71044180D01*
X136649463Y-71154494D01*
X136728815Y-71251185D01*
X136788296Y-71300000D01*
X136728815Y-71348815D01*
X136649463Y-71445506D01*
X136590498Y-71555820D01*
X136554188Y-71675518D01*
X136541928Y-71800000D01*
X136541928Y-73300000D01*
X136554188Y-73424482D01*
X136590498Y-73544180D01*
X136649463Y-73654494D01*
X136728815Y-73751185D01*
X136788296Y-73800000D01*
X136728815Y-73848815D01*
X136649463Y-73945506D01*
X136590498Y-74055820D01*
X136554188Y-74175518D01*
X136541928Y-74300000D01*
X136541928Y-75800000D01*
X136554188Y-75924482D01*
X136590498Y-76044180D01*
X136632051Y-76121919D01*
X132136996Y-71626865D01*
X132101449Y-71583551D01*
X131928623Y-71441716D01*
X131731447Y-71336324D01*
X131659685Y-71314555D01*
X130701994Y-70356865D01*
X130666447Y-70313551D01*
X130493621Y-70171716D01*
X130296445Y-70066324D01*
X130082497Y-70001423D01*
X129915750Y-69985000D01*
X129915749Y-69985000D01*
X129859998Y-69979509D01*
X129804247Y-69985000D01*
X124515751Y-69985000D01*
X124460000Y-69979509D01*
X124404248Y-69985000D01*
X124237501Y-70001423D01*
X124023553Y-70066324D01*
X123826377Y-70171716D01*
X123653551Y-70313551D01*
X123511716Y-70486377D01*
X123406324Y-70683553D01*
X123341423Y-70897501D01*
X123319509Y-71120000D01*
X123325000Y-71175752D01*
X123325000Y-76739869D01*
X123291996Y-76706865D01*
X123256449Y-76663551D01*
X123083623Y-76521716D01*
X122886447Y-76416324D01*
X122672499Y-76351423D01*
X122505752Y-76335000D01*
X122505751Y-76335000D01*
X122450000Y-76329509D01*
X122404660Y-76333975D01*
X122351185Y-76268815D01*
X122254494Y-76189463D01*
X122144180Y-76130498D01*
X122024482Y-76094188D01*
X121900000Y-76081928D01*
X119400000Y-76081928D01*
X119275518Y-76094188D01*
X119155820Y-76130498D01*
X119045506Y-76189463D01*
X118948815Y-76268815D01*
X118894499Y-76335000D01*
X115625741Y-76335000D01*
X115569999Y-76329510D01*
X115514257Y-76335000D01*
X115514248Y-76335000D01*
X115347501Y-76351423D01*
X115133553Y-76416324D01*
X114936377Y-76521716D01*
X114763551Y-76663551D01*
X114728009Y-76706859D01*
X112266865Y-79168004D01*
X112223551Y-79203551D01*
X112081716Y-79376377D01*
X111976325Y-79573553D01*
X111976324Y-79573554D01*
X111911423Y-79787502D01*
X111901138Y-79891928D01*
X111780000Y-79891928D01*
X111655518Y-79904188D01*
X111535820Y-79940498D01*
X111425506Y-79999463D01*
X111328815Y-80078815D01*
X111249463Y-80175506D01*
X111190498Y-80285820D01*
X111154188Y-80405518D01*
X111141928Y-80530000D01*
X111141928Y-82030000D01*
X111154188Y-82154482D01*
X111190498Y-82274180D01*
X111249463Y-82384494D01*
X111328815Y-82481185D01*
X111425506Y-82560537D01*
X111535820Y-82619502D01*
X111655518Y-82655812D01*
X111780000Y-82668072D01*
X114280000Y-82668072D01*
X114404482Y-82655812D01*
X114524180Y-82619502D01*
X114634494Y-82560537D01*
X114731185Y-82481185D01*
X114810537Y-82384494D01*
X114869502Y-82274180D01*
X114905812Y-82154482D01*
X114918072Y-82030000D01*
X114918072Y-80530000D01*
X114905812Y-80405518D01*
X114869502Y-80285820D01*
X114810537Y-80175506D01*
X114731185Y-80078815D01*
X114640631Y-80004500D01*
X116040132Y-78605000D01*
X118894499Y-78605000D01*
X118948815Y-78671185D01*
X119032667Y-78740000D01*
X118948815Y-78808815D01*
X118869463Y-78905506D01*
X118810498Y-79015820D01*
X118774188Y-79135518D01*
X118761928Y-79260000D01*
X118761928Y-80760000D01*
X118774188Y-80884482D01*
X118810498Y-81004180D01*
X118869463Y-81114494D01*
X118948815Y-81211185D01*
X119032667Y-81280000D01*
X118948815Y-81348815D01*
X118869463Y-81445506D01*
X118810498Y-81555820D01*
X118774188Y-81675518D01*
X118761928Y-81800000D01*
X118761928Y-83300000D01*
X118774188Y-83424482D01*
X118810498Y-83544180D01*
X118869463Y-83654494D01*
X118948815Y-83751185D01*
X119032667Y-83820000D01*
X118948815Y-83888815D01*
X118869463Y-83985506D01*
X118810498Y-84095820D01*
X118774188Y-84215518D01*
X118761928Y-84340000D01*
X118761928Y-85840000D01*
X118774188Y-85964482D01*
X118810498Y-86084180D01*
X118869463Y-86194494D01*
X118948815Y-86291185D01*
X119032667Y-86360000D01*
X118948815Y-86428815D01*
X118869463Y-86525506D01*
X118810498Y-86635820D01*
X118774188Y-86755518D01*
X118761928Y-86880000D01*
X118761928Y-88380000D01*
X118774188Y-88504482D01*
X118810498Y-88624180D01*
X118869463Y-88734494D01*
X118948815Y-88831185D01*
X119032667Y-88900000D01*
X118948815Y-88968815D01*
X118869463Y-89065506D01*
X118810498Y-89175820D01*
X118774188Y-89295518D01*
X118761928Y-89420000D01*
X118761928Y-90920000D01*
X118774188Y-91044482D01*
X118810498Y-91164180D01*
X118869463Y-91274494D01*
X118948815Y-91371185D01*
X119032667Y-91440000D01*
X118948815Y-91508815D01*
X118894499Y-91575000D01*
X117310133Y-91575000D01*
X114165000Y-88429869D01*
X114165000Y-87748072D01*
X114280000Y-87748072D01*
X114404482Y-87735812D01*
X114524180Y-87699502D01*
X114634494Y-87640537D01*
X114731185Y-87561185D01*
X114810537Y-87464494D01*
X114869502Y-87354180D01*
X114905812Y-87234482D01*
X114918072Y-87110000D01*
X114918072Y-85610000D01*
X114905812Y-85485518D01*
X114869502Y-85365820D01*
X114810537Y-85255506D01*
X114731185Y-85158815D01*
X114634494Y-85079463D01*
X114524180Y-85020498D01*
X114404482Y-84984188D01*
X114280000Y-84971928D01*
X111780000Y-84971928D01*
X111655518Y-84984188D01*
X111535820Y-85020498D01*
X111425506Y-85079463D01*
X111328815Y-85158815D01*
X111274499Y-85225000D01*
X104195752Y-85225000D01*
X104140000Y-85219509D01*
X103917501Y-85241423D01*
X103703553Y-85306324D01*
X103506377Y-85411716D01*
X103376856Y-85518011D01*
X103376854Y-85518013D01*
X103333551Y-85553551D01*
X103298013Y-85596854D01*
X99939869Y-88955000D01*
X91925501Y-88955000D01*
X91871185Y-88888815D01*
X91811704Y-88840000D01*
X91871185Y-88791185D01*
X91950537Y-88694494D01*
X92009502Y-88584180D01*
X92045812Y-88464482D01*
X92058072Y-88340000D01*
X92058072Y-86840000D01*
X92045812Y-86715518D01*
X92009502Y-86595820D01*
X91950537Y-86485506D01*
X91871185Y-86388815D01*
X91811704Y-86340000D01*
X91871185Y-86291185D01*
X91950537Y-86194494D01*
X92009502Y-86084180D01*
X92045812Y-85964482D01*
X92058072Y-85840000D01*
X92058072Y-84340000D01*
X92045812Y-84215518D01*
X92009502Y-84095820D01*
X91950537Y-83985506D01*
X91871185Y-83888815D01*
X91811704Y-83840000D01*
X91871185Y-83791185D01*
X91950537Y-83694494D01*
X92009502Y-83584180D01*
X92045812Y-83464482D01*
X92058072Y-83340000D01*
X92058072Y-81840000D01*
X92045812Y-81715518D01*
X92009502Y-81595820D01*
X91950537Y-81485506D01*
X91871185Y-81388815D01*
X91811704Y-81340000D01*
X91871185Y-81291185D01*
X91950537Y-81194494D01*
X92009502Y-81084180D01*
X92045812Y-80964482D01*
X92058072Y-80840000D01*
X92058072Y-79340000D01*
X92045812Y-79215518D01*
X92009502Y-79095820D01*
X91950537Y-78985506D01*
X91871185Y-78888815D01*
X91774494Y-78809463D01*
X91664180Y-78750498D01*
X91544482Y-78714188D01*
X91420000Y-78701928D01*
X88920000Y-78701928D01*
X88795518Y-78714188D01*
X88675820Y-78750498D01*
X88565506Y-78809463D01*
X88468815Y-78888815D01*
X88389463Y-78985506D01*
X88330498Y-79095820D01*
X88294188Y-79215518D01*
X88281928Y-79340000D01*
X85750000Y-79340000D01*
X85750000Y-61620000D01*
X142850001Y-61620000D01*
X142850000Y-119990000D01*
G36*
X136250941Y-80813146D02*
G01*
X136286479Y-80856449D01*
X136329782Y-80891987D01*
X136329784Y-80891989D01*
X136459305Y-80998284D01*
X136608628Y-81078098D01*
X136649463Y-81154494D01*
X136728815Y-81251185D01*
X136788296Y-81300000D01*
X136728815Y-81348815D01*
X136674499Y-81415000D01*
X136510751Y-81415000D01*
X136454999Y-81409509D01*
X136232500Y-81431423D01*
X136210582Y-81438072D01*
X136018553Y-81496324D01*
X135821377Y-81601716D01*
X135648551Y-81743551D01*
X135613009Y-81786859D01*
X132586865Y-84813004D01*
X132543551Y-84848551D01*
X132401716Y-85021377D01*
X132328255Y-85158815D01*
X132296324Y-85218554D01*
X132231423Y-85432502D01*
X132209509Y-85655000D01*
X132215000Y-85710752D01*
X132215001Y-96049866D01*
X130158072Y-98106796D01*
X130158072Y-97040000D01*
X130145812Y-96915518D01*
X130109502Y-96795820D01*
X130050537Y-96685506D01*
X129971185Y-96588815D01*
X129887333Y-96520000D01*
X129971185Y-96451185D01*
X130050537Y-96354494D01*
X130109502Y-96244180D01*
X130145812Y-96124482D01*
X130158072Y-96000000D01*
X130158072Y-94500000D01*
X130145812Y-94375518D01*
X130109502Y-94255820D01*
X130050537Y-94145506D01*
X129971185Y-94048815D01*
X129887333Y-93980000D01*
X129971185Y-93911185D01*
X130050537Y-93814494D01*
X130109502Y-93704180D01*
X130145812Y-93584482D01*
X130158072Y-93460000D01*
X130158072Y-92837000D01*
X128397000Y-92837000D01*
X128397000Y-92857000D01*
X128143000Y-92857000D01*
X128143000Y-92837000D01*
X128123000Y-92837000D01*
X128123000Y-92583000D01*
X128143000Y-92583000D01*
X128143000Y-92563000D01*
X128397000Y-92563000D01*
X128397000Y-92583000D01*
X130158072Y-92583000D01*
X130158072Y-91960000D01*
X130145812Y-91835518D01*
X130109502Y-91715820D01*
X130050537Y-91605506D01*
X129971185Y-91508815D01*
X129887333Y-91440000D01*
X129971185Y-91371185D01*
X130050537Y-91274494D01*
X130109502Y-91164180D01*
X130145812Y-91044482D01*
X130158072Y-90920000D01*
X130158072Y-89420000D01*
X130145812Y-89295518D01*
X130109502Y-89175820D01*
X130050537Y-89065506D01*
X129971185Y-88968815D01*
X129887333Y-88900000D01*
X129971185Y-88831185D01*
X130050537Y-88734494D01*
X130109502Y-88624180D01*
X130145812Y-88504482D01*
X130158072Y-88380000D01*
X130158072Y-86880000D01*
X130145812Y-86755518D01*
X130109502Y-86635820D01*
X130050537Y-86525506D01*
X129971185Y-86428815D01*
X129887333Y-86360000D01*
X129971185Y-86291185D01*
X130050537Y-86194494D01*
X130109502Y-86084180D01*
X130145812Y-85964482D01*
X130158072Y-85840000D01*
X130158072Y-84340000D01*
X130145812Y-84215518D01*
X130109502Y-84095820D01*
X130050537Y-83985506D01*
X129971185Y-83888815D01*
X129887333Y-83820000D01*
X129971185Y-83751185D01*
X130050537Y-83654494D01*
X130109502Y-83544180D01*
X130145812Y-83424482D01*
X130158072Y-83300000D01*
X130158072Y-81800000D01*
X130145812Y-81675518D01*
X130109502Y-81555820D01*
X130050537Y-81445506D01*
X129971185Y-81348815D01*
X129887333Y-81280000D01*
X129971185Y-81211185D01*
X130050537Y-81114494D01*
X130109502Y-81004180D01*
X130145812Y-80884482D01*
X130158072Y-80760000D01*
X130158072Y-79260000D01*
X130145812Y-79135518D01*
X130109502Y-79015820D01*
X130050537Y-78905506D01*
X129971185Y-78808815D01*
X129887333Y-78740000D01*
X129971185Y-78671185D01*
X130050537Y-78574494D01*
X130109502Y-78464180D01*
X130145812Y-78344482D01*
X130158072Y-78220000D01*
X130158072Y-76720000D01*
X130145812Y-76595518D01*
X130109502Y-76475820D01*
X130050537Y-76365506D01*
X129971185Y-76268815D01*
X129874494Y-76189463D01*
X129764180Y-76130498D01*
X129644482Y-76094188D01*
X129520000Y-76081928D01*
X127020000Y-76081928D01*
X126895518Y-76094188D01*
X126795010Y-76124677D01*
X126795010Y-73455010D01*
X128892807Y-73455010D01*
X136250941Y-80813146D01*
X136250941Y-80813146D01*
G37*
X136250941Y-80813146D02*
X136286479Y-80856449D01*
X136329782Y-80891987D01*
X136329784Y-80891989D01*
X136459305Y-80998284D01*
X136608628Y-81078098D01*
X136649463Y-81154494D01*
X136728815Y-81251185D01*
X136788296Y-81300000D01*
X136728815Y-81348815D01*
X136674499Y-81415000D01*
X136510751Y-81415000D01*
X136454999Y-81409509D01*
X136232500Y-81431423D01*
X136210582Y-81438072D01*
X136018553Y-81496324D01*
X135821377Y-81601716D01*
X135648551Y-81743551D01*
X135613009Y-81786859D01*
X132586865Y-84813004D01*
X132543551Y-84848551D01*
X132401716Y-85021377D01*
X132328255Y-85158815D01*
X132296324Y-85218554D01*
X132231423Y-85432502D01*
X132209509Y-85655000D01*
X132215000Y-85710752D01*
X132215001Y-96049866D01*
X130158072Y-98106796D01*
X130158072Y-97040000D01*
X130145812Y-96915518D01*
X130109502Y-96795820D01*
X130050537Y-96685506D01*
X129971185Y-96588815D01*
X129887333Y-96520000D01*
X129971185Y-96451185D01*
X130050537Y-96354494D01*
X130109502Y-96244180D01*
X130145812Y-96124482D01*
X130158072Y-96000000D01*
X130158072Y-94500000D01*
X130145812Y-94375518D01*
X130109502Y-94255820D01*
X130050537Y-94145506D01*
X129971185Y-94048815D01*
X129887333Y-93980000D01*
X129971185Y-93911185D01*
X130050537Y-93814494D01*
X130109502Y-93704180D01*
X130145812Y-93584482D01*
X130158072Y-93460000D01*
X130158072Y-92837000D01*
X128397000Y-92837000D01*
X128397000Y-92857000D01*
X128143000Y-92857000D01*
X128143000Y-92837000D01*
X128123000Y-92837000D01*
X128123000Y-92583000D01*
X128143000Y-92583000D01*
X128143000Y-92563000D01*
X128397000Y-92563000D01*
X128397000Y-92583000D01*
X130158072Y-92583000D01*
X130158072Y-91960000D01*
X130145812Y-91835518D01*
X130109502Y-91715820D01*
X130050537Y-91605506D01*
X129971185Y-91508815D01*
X129887333Y-91440000D01*
X129971185Y-91371185D01*
X130050537Y-91274494D01*
X130109502Y-91164180D01*
X130145812Y-91044482D01*
X130158072Y-90920000D01*
X130158072Y-89420000D01*
X130145812Y-89295518D01*
X130109502Y-89175820D01*
X130050537Y-89065506D01*
X129971185Y-88968815D01*
X129887333Y-88900000D01*
X129971185Y-88831185D01*
X130050537Y-88734494D01*
X130109502Y-88624180D01*
X130145812Y-88504482D01*
X130158072Y-88380000D01*
X130158072Y-86880000D01*
X130145812Y-86755518D01*
X130109502Y-86635820D01*
X130050537Y-86525506D01*
X129971185Y-86428815D01*
X129887333Y-86360000D01*
X129971185Y-86291185D01*
X130050537Y-86194494D01*
X130109502Y-86084180D01*
X130145812Y-85964482D01*
X130158072Y-85840000D01*
X130158072Y-84340000D01*
X130145812Y-84215518D01*
X130109502Y-84095820D01*
X130050537Y-83985506D01*
X129971185Y-83888815D01*
X129887333Y-83820000D01*
X129971185Y-83751185D01*
X130050537Y-83654494D01*
X130109502Y-83544180D01*
X130145812Y-83424482D01*
X130158072Y-83300000D01*
X130158072Y-81800000D01*
X130145812Y-81675518D01*
X130109502Y-81555820D01*
X130050537Y-81445506D01*
X129971185Y-81348815D01*
X129887333Y-81280000D01*
X129971185Y-81211185D01*
X130050537Y-81114494D01*
X130109502Y-81004180D01*
X130145812Y-80884482D01*
X130158072Y-80760000D01*
X130158072Y-79260000D01*
X130145812Y-79135518D01*
X130109502Y-79015820D01*
X130050537Y-78905506D01*
X129971185Y-78808815D01*
X129887333Y-78740000D01*
X129971185Y-78671185D01*
X130050537Y-78574494D01*
X130109502Y-78464180D01*
X130145812Y-78344482D01*
X130158072Y-78220000D01*
X130158072Y-76720000D01*
X130145812Y-76595518D01*
X130109502Y-76475820D01*
X130050537Y-76365506D01*
X129971185Y-76268815D01*
X129874494Y-76189463D01*
X129764180Y-76130498D01*
X129644482Y-76094188D01*
X129520000Y-76081928D01*
X127020000Y-76081928D01*
X126895518Y-76094188D01*
X126795010Y-76124677D01*
X126795010Y-73455010D01*
X128892807Y-73455010D01*
X136250941Y-80813146D01*
M02*
