  0
SECTION
  2
HEADER
  9
$ANGBASE
  50
0.0
  9
$ANGDIR
  70
  1
  9
$MEASUREMENT
  70
0
  0
ENDSEC
  0
SECTION
  2
TABLES
  0
TABLE
  2
LTYPE
  70
4
  0
LTYPE
  5
40F
  2
CONTINUOUS
  70
0
  3
Solid line
  72
65
  73
0
  40
0.0
  0
LTYPE
  5
410
  2
DASHDOT
 70
0
  3
Dash Dot ____ _ ____ _
 72
65
 73
4
 40
2.0
 49
1.25
 49
-0.25
 49
0.25
 49
-0.25
  0
LTYPE
  5
411
  2
DASHED
 70
0
  3
Dashed __ __ __ __ __
 72
65
 73
2
 40
0.75
 49
0.5
 49
-0.25
  0
LTYPE
  5
43B
  2
DOTTED
 70
0
  3
Dotted .  .  .  .
 72
65
 73
2
 40
0.2
 49
0.0
 49
-0.2
  0
ENDTAB
  0
TABLE
  2
STYLE
  70
4
  0
STYLE
  2
KICAD
  70
0
  40
0
  41
1
  42
1
  50
0
  71
0
  3
isocp.shx
  0
STYLE
  2
KICADB
  70
0
  40
0
  41
1
  42
1
  50
0
  71
0
  3
isocp.shx
  0
STYLE
  2
KICADI
  70
0
  40
0
  41
1
  42
1
  50
15
  71
0
  3
isocp.shx
  0
STYLE
  2
KICADBI
  70
0
  40
0
  41
1
  42
1
  50
15
  71
0
  3
isocp.shx
  0
ENDTAB
  0
TABLE
  2
LAYER
  70
30
  0
LAYER
  2
BLACK
  70
0
  62
7
  6
CONTINUOUS
  0
LAYER
  2
GRAY1
  70
0
  62
251
  6
CONTINUOUS
  0
LAYER
  2
GRAY2
  70
0
  62
8
  6
CONTINUOUS
  0
LAYER
  2
GRAY3
  70
0
  62
9
  6
CONTINUOUS
  0
LAYER
  2
WHITE
  70
0
  62
7
  6
CONTINUOUS
  0
LAYER
  2
LYELLOW
  70
0
  62
51
  6
CONTINUOUS
  0
LAYER
  2
BLUE1
  70
0
  62
178
  6
CONTINUOUS
  0
LAYER
  2
GREEN1
  70
0
  62
98
  6
CONTINUOUS
  0
LAYER
  2
CYAN1
  70
0
  62
138
  6
CONTINUOUS
  0
LAYER
  2
RED1
  70
0
  62
18
  6
CONTINUOUS
  0
LAYER
  2
MAGENTA1
  70
0
  62
228
  6
CONTINUOUS
  0
LAYER
  2
BROWN1
  70
0
  62
58
  6
CONTINUOUS
  0
LAYER
  2
BLUE2
  70
0
  62
5
  6
CONTINUOUS
  0
LAYER
  2
GREEN2
  70
0
  62
3
  6
CONTINUOUS
  0
LAYER
  2
CYAN2
  70
0
  62
4
  6
CONTINUOUS
  0
LAYER
  2
RED2
  70
0
  62
1
  6
CONTINUOUS
  0
LAYER
  2
MAGENTA2
  70
0
  62
6
  6
CONTINUOUS
  0
LAYER
  2
BROWN2
  70
0
  62
54
  6
CONTINUOUS
  0
LAYER
  2
BLUE3
  70
0
  62
171
  6
CONTINUOUS
  0
LAYER
  2
GREEN3
  70
0
  62
91
  6
CONTINUOUS
  0
LAYER
  2
CYAN3
  70
0
  62
131
  6
CONTINUOUS
  0
LAYER
  2
RED3
  70
0
  62
11
  6
CONTINUOUS
  0
LAYER
  2
MAGENTA3
  70
0
  62
221
  6
CONTINUOUS
  0
LAYER
  2
YELLOW3
  70
0
  62
2
  6
CONTINUOUS
  0
LAYER
  2
BLUE4
  70
0
  62
5
  6
CONTINUOUS
  0
LAYER
  2
GREEN4
  70
0
  62
3
  6
CONTINUOUS
  0
LAYER
  2
CYAN4
  70
0
  62
4
  6
CONTINUOUS
  0
LAYER
  2
RED4
  70
0
  62
1
  6
CONTINUOUS
  0
LAYER
  2
MAGENTA4
  70
0
  62
6
  6
CONTINUOUS
  0
LAYER
  2
YELLOW4
  70
0
  62
2
  6
CONTINUOUS
  0
ENDTAB
  0
ENDSEC
  0
SECTION
  2
ENTITIES
0
LINE
8
BLACK
6
CONTINUOUS
10
91.42
20
-113.62
11
88.92
21
-113.62
0
LINE
8
BLACK
6
CONTINUOUS
10
88.92
20
-113.62
11
88.92
21
-112.12
0
LINE
8
BLACK
6
CONTINUOUS
10
88.92
20
-112.12
11
91.42
21
-112.12
0
LINE
8
BLACK
6
CONTINUOUS
10
91.42
20
-112.12
11
91.42
21
-113.62
0
LINE
8
BLACK
6
CONTINUOUS
10
139.68
20
-112.23
11
137.18
21
-112.23
0
LINE
8
BLACK
6
CONTINUOUS
10
137.18
20
-112.23
11
137.18
21
-110.73
0
LINE
8
BLACK
6
CONTINUOUS
10
137.18
20
-110.73
11
139.68
21
-110.73
0
LINE
8
BLACK
6
CONTINUOUS
10
139.68
20
-110.73
11
139.68
21
-112.23
0
LINE
8
BLACK
6
CONTINUOUS
10
121.9
20
-111.24
11
119.4
21
-111.24
0
LINE
8
BLACK
6
CONTINUOUS
10
119.4
20
-111.24
11
119.4
21
-109.74
0
LINE
8
BLACK
6
CONTINUOUS
10
119.4
20
-109.74
11
121.9
21
-109.74
0
LINE
8
BLACK
6
CONTINUOUS
10
121.9
20
-109.74
11
121.9
21
-111.24
0
LINE
8
BLACK
6
CONTINUOUS
10
129.52
20
-111.24
11
127.02
21
-111.24
0
LINE
8
BLACK
6
CONTINUOUS
10
127.02
20
-111.24
11
127.02
21
-109.74
0
LINE
8
BLACK
6
CONTINUOUS
10
127.02
20
-109.74
11
129.52
21
-109.74
0
LINE
8
BLACK
6
CONTINUOUS
10
129.52
20
-109.74
11
129.52
21
-111.24
0
LINE
8
BLACK
6
CONTINUOUS
10
91.42
20
-111.12
11
88.92
21
-111.12
0
LINE
8
BLACK
6
CONTINUOUS
10
88.92
20
-111.12
11
88.92
21
-109.62
0
LINE
8
BLACK
6
CONTINUOUS
10
88.92
20
-109.62
11
91.42
21
-109.62
0
LINE
8
BLACK
6
CONTINUOUS
10
91.42
20
-109.62
11
91.42
21
-111.12
0
LINE
8
BLACK
6
CONTINUOUS
10
139.68
20
-109.73
11
137.18
21
-109.73
0
LINE
8
BLACK
6
CONTINUOUS
10
137.18
20
-109.73
11
137.18
21
-108.23
0
LINE
8
BLACK
6
CONTINUOUS
10
137.18
20
-108.23
11
139.68
21
-108.23
0
LINE
8
BLACK
6
CONTINUOUS
10
139.68
20
-108.23
11
139.68
21
-109.73
0
LINE
8
BLACK
6
CONTINUOUS
10
129.52
20
-108.7
11
127.02
21
-108.7
0
LINE
8
BLACK
6
CONTINUOUS
10
127.02
20
-108.7
11
127.02
21
-107.2
0
LINE
8
BLACK
6
CONTINUOUS
10
127.02
20
-107.2
11
129.52
21
-107.2
0
LINE
8
BLACK
6
CONTINUOUS
10
129.52
20
-107.2
11
129.52
21
-108.7
0
LINE
8
BLACK
6
CONTINUOUS
10
121.9
20
-108.7
11
119.4
21
-108.7
0
LINE
8
BLACK
6
CONTINUOUS
10
119.4
20
-108.7
11
119.4
21
-107.2
0
LINE
8
BLACK
6
CONTINUOUS
10
119.4
20
-107.2
11
121.9
21
-107.2
0
LINE
8
BLACK
6
CONTINUOUS
10
121.9
20
-107.2
11
121.9
21
-108.7
0
LINE
8
BLACK
6
CONTINUOUS
10
91.42
20
-108.62
11
88.92
21
-108.62
0
LINE
8
BLACK
6
CONTINUOUS
10
88.92
20
-108.62
11
88.92
21
-107.12
0
LINE
8
BLACK
6
CONTINUOUS
10
88.92
20
-107.12
11
91.42
21
-107.12
0
LINE
8
BLACK
6
CONTINUOUS
10
91.42
20
-107.12
11
91.42
21
-108.62
0
LINE
8
BLACK
6
CONTINUOUS
10
139.68
20
-107.23
11
137.18
21
-107.23
0
LINE
8
BLACK
6
CONTINUOUS
10
137.18
20
-107.23
11
137.18
21
-105.73
0
LINE
8
BLACK
6
CONTINUOUS
10
137.18
20
-105.73
11
139.68
21
-105.73
0
LINE
8
BLACK
6
CONTINUOUS
10
139.68
20
-105.73
11
139.68
21
-107.23
0
LINE
8
BLACK
6
CONTINUOUS
10
129.52
20
-106.16
11
127.02
21
-106.16
0
LINE
8
BLACK
6
CONTINUOUS
10
127.02
20
-106.16
11
127.02
21
-104.66
0
LINE
8
BLACK
6
CONTINUOUS
10
127.02
20
-104.66
11
129.52
21
-104.66
0
LINE
8
BLACK
6
CONTINUOUS
10
129.52
20
-104.66
11
129.52
21
-106.16
0
LINE
8
BLACK
6
CONTINUOUS
10
121.9
20
-106.16
11
119.4
21
-106.16
0
LINE
8
BLACK
6
CONTINUOUS
10
119.4
20
-106.16
11
119.4
21
-104.66
0
LINE
8
BLACK
6
CONTINUOUS
10
119.4
20
-104.66
11
121.9
21
-104.66
0
LINE
8
BLACK
6
CONTINUOUS
10
121.9
20
-104.66
11
121.9
21
-106.16
0
LINE
8
BLACK
6
CONTINUOUS
10
91.42
20
-106.12
11
88.92
21
-106.12
0
LINE
8
BLACK
6
CONTINUOUS
10
88.92
20
-106.12
11
88.92
21
-104.62
0
LINE
8
BLACK
6
CONTINUOUS
10
88.92
20
-104.62
11
91.42
21
-104.62
0
LINE
8
BLACK
6
CONTINUOUS
10
91.42
20
-104.62
11
91.42
21
-106.12
0
LINE
8
BLACK
6
CONTINUOUS
10
110.47
20
-104.81
11
107.97
21
-104.81
0
LINE
8
BLACK
6
CONTINUOUS
10
107.97
20
-104.81
11
107.97
21
-103.31
0
LINE
8
BLACK
6
CONTINUOUS
10
107.97
20
-103.31
11
110.47
21
-103.31
0
LINE
8
BLACK
6
CONTINUOUS
10
110.47
20
-103.31
11
110.47
21
-104.81
0
LINE
8
BLACK
6
CONTINUOUS
10
139.68
20
-104.73
11
137.18
21
-104.73
0
LINE
8
BLACK
6
CONTINUOUS
10
137.18
20
-104.73
11
137.18
21
-103.23
0
LINE
8
BLACK
6
CONTINUOUS
10
137.18
20
-103.23
11
139.68
21
-103.23
0
LINE
8
BLACK
6
CONTINUOUS
10
139.68
20
-103.23
11
139.68
21
-104.73
0
LINE
8
BLACK
6
CONTINUOUS
10
129.52
20
-103.62
11
127.02
21
-103.62
0
LINE
8
BLACK
6
CONTINUOUS
10
127.02
20
-103.62
11
127.02
21
-102.12
0
LINE
8
BLACK
6
CONTINUOUS
10
127.02
20
-102.12
11
129.52
21
-102.12
0
LINE
8
BLACK
6
CONTINUOUS
10
129.52
20
-102.12
11
129.52
21
-103.62
0
LINE
8
BLACK
6
CONTINUOUS
10
91.42
20
-103.62
11
88.92
21
-103.62
0
LINE
8
BLACK
6
CONTINUOUS
10
88.92
20
-103.62
11
88.92
21
-102.12
0
LINE
8
BLACK
6
CONTINUOUS
10
88.92
20
-102.12
11
91.42
21
-102.12
0
LINE
8
BLACK
6
CONTINUOUS
10
91.42
20
-102.12
11
91.42
21
-103.62
0
LINE
8
BLACK
6
CONTINUOUS
10
121.9
20
-103.62
11
119.4
21
-103.62
0
LINE
8
BLACK
6
CONTINUOUS
10
119.4
20
-103.62
11
119.4
21
-102.12
0
LINE
8
BLACK
6
CONTINUOUS
10
119.4
20
-102.12
11
121.9
21
-102.12
0
LINE
8
BLACK
6
CONTINUOUS
10
121.9
20
-102.12
11
121.9
21
-103.62
0
LINE
8
BLACK
6
CONTINUOUS
10
139.68
20
-102.23
11
137.18
21
-102.23
0
LINE
8
BLACK
6
CONTINUOUS
10
137.18
20
-102.23
11
137.18
21
-100.73
0
LINE
8
BLACK
6
CONTINUOUS
10
137.18
20
-100.73
11
139.68
21
-100.73
0
LINE
8
BLACK
6
CONTINUOUS
10
139.68
20
-100.73
11
139.68
21
-102.23
0
LINE
8
BLACK
6
CONTINUOUS
10
129.52
20
-101.08
11
127.02
21
-101.08
0
LINE
8
BLACK
6
CONTINUOUS
10
127.02
20
-101.08
11
127.02
21
-99.58
0
LINE
8
BLACK
6
CONTINUOUS
10
127.02
20
-99.58
11
129.52
21
-99.58
0
LINE
8
BLACK
6
CONTINUOUS
10
129.52
20
-99.58
11
129.52
21
-101.08
0
LINE
8
BLACK
6
CONTINUOUS
10
121.9
20
-101.08
11
119.4
21
-101.08
0
LINE
8
BLACK
6
CONTINUOUS
10
119.4
20
-101.08
11
119.4
21
-99.58
0
LINE
8
BLACK
6
CONTINUOUS
10
119.4
20
-99.58
11
121.9
21
-99.58
0
LINE
8
BLACK
6
CONTINUOUS
10
121.9
20
-99.58
11
121.9
21
-101.08
0
LINE
8
BLACK
6
CONTINUOUS
10
116.82
20
-100.44
11
114.32
21
-100.44
0
LINE
8
BLACK
6
CONTINUOUS
10
114.32
20
-100.44
11
114.32
21
-98.94
0
LINE
8
BLACK
6
CONTINUOUS
10
114.32
20
-98.94
11
116.82
21
-98.94
0
LINE
8
BLACK
6
CONTINUOUS
10
116.82
20
-98.94
11
116.82
21
-100.44
0
LINE
8
BLACK
6
CONTINUOUS
10
110.47
20
-99.81
11
107.97
21
-99.81
0
LINE
8
BLACK
6
CONTINUOUS
10
107.97
20
-99.81
11
107.97
21
-98.31
0
LINE
8
BLACK
6
CONTINUOUS
10
107.97
20
-98.31
11
110.47
21
-98.31
0
LINE
8
BLACK
6
CONTINUOUS
10
110.47
20
-98.31
11
110.47
21
-99.81
0
LINE
8
BLACK
6
CONTINUOUS
10
139.68
20
-99.73
11
137.18
21
-99.73
0
LINE
8
BLACK
6
CONTINUOUS
10
137.18
20
-99.73
11
137.18
21
-98.23
0
LINE
8
BLACK
6
CONTINUOUS
10
137.18
20
-98.23
11
139.68
21
-98.23
0
LINE
8
BLACK
6
CONTINUOUS
10
139.68
20
-98.23
11
139.68
21
-99.73
0
LINE
8
BLACK
6
CONTINUOUS
10
129.52
20
-98.54
11
127.02
21
-98.54
0
LINE
8
BLACK
6
CONTINUOUS
10
127.02
20
-98.54
11
127.02
21
-97.04
0
LINE
8
BLACK
6
CONTINUOUS
10
127.02
20
-97.04
11
129.52
21
-97.04
0
LINE
8
BLACK
6
CONTINUOUS
10
129.52
20
-97.04
11
129.52
21
-98.54
0
LINE
8
BLACK
6
CONTINUOUS
10
116.82
20
-98.54
11
114.32
21
-98.54
0
LINE
8
BLACK
6
CONTINUOUS
10
114.32
20
-98.54
11
114.32
21
-97.04
0
LINE
8
BLACK
6
CONTINUOUS
10
114.32
20
-97.04
11
116.82
21
-97.04
0
LINE
8
BLACK
6
CONTINUOUS
10
116.82
20
-97.04
11
116.82
21
-98.54
0
LINE
8
BLACK
6
CONTINUOUS
10
121.9
20
-98.54
11
119.4
21
-98.54
0
LINE
8
BLACK
6
CONTINUOUS
10
119.4
20
-98.54
11
119.4
21
-97.04
0
LINE
8
BLACK
6
CONTINUOUS
10
119.4
20
-97.04
11
121.9
21
-97.04
0
LINE
8
BLACK
6
CONTINUOUS
10
121.9
20
-97.04
11
121.9
21
-98.54
0
LINE
8
BLACK
6
CONTINUOUS
10
91.42
20
-98.34
11
88.92
21
-98.34
0
LINE
8
BLACK
6
CONTINUOUS
10
88.92
20
-98.34
11
88.92
21
-96.84
0
LINE
8
BLACK
6
CONTINUOUS
10
88.92
20
-96.84
11
91.42
21
-96.84
0
LINE
8
BLACK
6
CONTINUOUS
10
91.42
20
-96.84
11
91.42
21
-98.34
0
LINE
8
BLACK
6
CONTINUOUS
10
110.47
20
-97.27
11
107.97
21
-97.27
0
LINE
8
BLACK
6
CONTINUOUS
10
107.97
20
-97.27
11
107.97
21
-95.77
0
LINE
8
BLACK
6
CONTINUOUS
10
107.97
20
-95.77
11
110.47
21
-95.77
0
LINE
8
BLACK
6
CONTINUOUS
10
110.47
20
-95.77
11
110.47
21
-97.27
0
LINE
8
BLACK
6
CONTINUOUS
10
139.68
20
-97.23
11
137.18
21
-97.23
0
LINE
8
BLACK
6
CONTINUOUS
10
137.18
20
-97.23
11
137.18
21
-95.73
0
LINE
8
BLACK
6
CONTINUOUS
10
137.18
20
-95.73
11
139.68
21
-95.73
0
LINE
8
BLACK
6
CONTINUOUS
10
139.68
20
-95.73
11
139.68
21
-97.23
0
LINE
8
BLACK
6
CONTINUOUS
10
129.52
20
-96
11
127.02
21
-96
0
LINE
8
BLACK
6
CONTINUOUS
10
127.02
20
-96
11
127.02
21
-94.5
0
LINE
8
BLACK
6
CONTINUOUS
10
127.02
20
-94.5
11
129.52
21
-94.5
0
LINE
8
BLACK
6
CONTINUOUS
10
129.52
20
-94.5
11
129.52
21
-96
0
LINE
8
BLACK
6
CONTINUOUS
10
129.52
20
-93.46
11
127.02
21
-93.46
0
LINE
8
BLACK
6
CONTINUOUS
10
127.02
20
-93.46
11
127.02
21
-93.21
0
LINE
8
BLACK
6
CONTINUOUS
10
127.02
20
-93.21
11
124.667
21
-93.21
0
LINE
8
BLACK
6
CONTINUOUS
10
124.667
20
-93.21
11
122.291
21
-95.5862
0
LINE
8
BLACK
6
CONTINUOUS
10
122.291
20
-95.5862
11
122.275
21
-95.6053
0
LINE
8
BLACK
6
CONTINUOUS
10
122.275
20
-95.6053
11
122.199
21
-95.6677
0
LINE
8
BLACK
6
CONTINUOUS
10
122.199
20
-95.6677
11
122.112
21
-95.7142
0
LINE
8
BLACK
6
CONTINUOUS
10
122.112
20
-95.7142
11
122.018
21
-95.7428
0
LINE
8
BLACK
6
CONTINUOUS
10
122.018
20
-95.7428
11
121.945
21
-95.75
0
LINE
8
BLACK
6
CONTINUOUS
10
121.945
20
-95.75
11
121.92
21
-95.7524
0
LINE
8
BLACK
6
CONTINUOUS
10
121.92
20
-95.7524
11
121.9
21
-95.7504
0
LINE
8
BLACK
6
CONTINUOUS
10
121.9
20
-95.7504
11
121.9
21
-96
0
LINE
8
BLACK
6
CONTINUOUS
10
121.9
20
-96
11
119.4
21
-96
0
LINE
8
BLACK
6
CONTINUOUS
10
119.4
20
-96
11
119.4
21
-94.5
0
LINE
8
BLACK
6
CONTINUOUS
10
119.4
20
-94.5
11
121.9
21
-94.5
0
LINE
8
BLACK
6
CONTINUOUS
10
121.9
20
-94.5
11
121.9
21
-94.5629
0
LINE
8
BLACK
6
CONTINUOUS
10
121.9
20
-94.5629
11
124.089
21
-92.3738
0
LINE
8
BLACK
6
CONTINUOUS
10
124.089
20
-92.3738
11
124.105
21
-92.3547
0
LINE
8
BLACK
6
CONTINUOUS
10
124.105
20
-92.3547
11
124.181
21
-92.2923
0
LINE
8
BLACK
6
CONTINUOUS
10
124.181
20
-92.2923
11
124.268
21
-92.2458
0
LINE
8
BLACK
6
CONTINUOUS
10
124.268
20
-92.2458
11
124.362
21
-92.2172
0
LINE
8
BLACK
6
CONTINUOUS
10
124.362
20
-92.2172
11
124.435
21
-92.21
0
LINE
8
BLACK
6
CONTINUOUS
10
124.435
20
-92.21
11
124.435
21
-92.21
0
LINE
8
BLACK
6
CONTINUOUS
10
124.435
20
-92.21
11
124.46
21
-92.2076
0
LINE
8
BLACK
6
CONTINUOUS
10
124.46
20
-92.2076
11
124.485
21
-92.21
0
LINE
8
BLACK
6
CONTINUOUS
10
124.485
20
-92.21
11
127.02
21
-92.21
0
LINE
8
BLACK
6
CONTINUOUS
10
127.02
20
-92.21
11
127.02
21
-91.96
0
LINE
8
BLACK
6
CONTINUOUS
10
127.02
20
-91.96
11
129.52
21
-91.96
0
LINE
8
BLACK
6
CONTINUOUS
10
129.52
20
-91.96
11
129.52
21
-93.46
0
LINE
8
BLACK
6
CONTINUOUS
10
91.42
20
-95.84
11
88.92
21
-95.84
0
LINE
8
BLACK
6
CONTINUOUS
10
88.92
20
-95.84
11
88.92
21
-94.34
0
LINE
8
BLACK
6
CONTINUOUS
10
88.92
20
-94.34
11
91.42
21
-94.34
0
LINE
8
BLACK
6
CONTINUOUS
10
91.42
20
-94.34
11
91.42
21
-95.84
0
LINE
8
BLACK
6
CONTINUOUS
10
139.68
20
-94.73
11
137.18
21
-94.73
0
LINE
8
BLACK
6
CONTINUOUS
10
137.18
20
-94.73
11
137.18
21
-93.23
0
LINE
8
BLACK
6
CONTINUOUS
10
137.18
20
-93.23
11
139.68
21
-93.23
0
LINE
8
BLACK
6
CONTINUOUS
10
139.68
20
-93.23
11
139.68
21
-94.73
0
LINE
8
BLACK
6
CONTINUOUS
10
121.9
20
-93.46
11
119.4
21
-93.46
0
LINE
8
BLACK
6
CONTINUOUS
10
119.4
20
-93.46
11
119.4
21
-91.96
0
LINE
8
BLACK
6
CONTINUOUS
10
119.4
20
-91.96
11
121.9
21
-91.96
0
LINE
8
BLACK
6
CONTINUOUS
10
121.9
20
-91.96
11
121.9
21
-93.46
0
LINE
8
BLACK
6
CONTINUOUS
10
91.42
20
-93.34
11
88.92
21
-93.34
0
LINE
8
BLACK
6
CONTINUOUS
10
88.92
20
-93.34
11
88.92
21
-91.84
0
LINE
8
BLACK
6
CONTINUOUS
10
88.92
20
-91.84
11
91.42
21
-91.84
0
LINE
8
BLACK
6
CONTINUOUS
10
91.42
20
-91.84
11
91.42
21
-93.34
0
LINE
8
BLACK
6
CONTINUOUS
10
110.47
20
-92.27
11
107.97
21
-92.27
0
LINE
8
BLACK
6
CONTINUOUS
10
107.97
20
-92.27
11
107.97
21
-90.77
0
LINE
8
BLACK
6
CONTINUOUS
10
107.97
20
-90.77
11
110.47
21
-90.77
0
LINE
8
BLACK
6
CONTINUOUS
10
110.47
20
-90.77
11
110.47
21
-92.27
0
LINE
8
BLACK
6
CONTINUOUS
10
121.9
20
-90.92
11
119.4
21
-90.92
0
LINE
8
BLACK
6
CONTINUOUS
10
119.4
20
-90.92
11
119.4
21
-89.42
0
LINE
8
BLACK
6
CONTINUOUS
10
119.4
20
-89.42
11
121.9
21
-89.42
0
LINE
8
BLACK
6
CONTINUOUS
10
121.9
20
-89.42
11
121.9
21
-90.92
0
LINE
8
BLACK
6
CONTINUOUS
10
129.52
20
-90.92
11
127.02
21
-90.92
0
LINE
8
BLACK
6
CONTINUOUS
10
127.02
20
-90.92
11
127.02
21
-89.42
0
LINE
8
BLACK
6
CONTINUOUS
10
127.02
20
-89.42
11
129.52
21
-89.42
0
LINE
8
BLACK
6
CONTINUOUS
10
129.52
20
-89.42
11
129.52
21
-90.92
0
LINE
8
BLACK
6
CONTINUOUS
10
91.42
20
-90.84
11
88.92
21
-90.84
0
LINE
8
BLACK
6
CONTINUOUS
10
88.92
20
-90.84
11
88.92
21
-89.34
0
LINE
8
BLACK
6
CONTINUOUS
10
88.92
20
-89.34
11
91.42
21
-89.34
0
LINE
8
BLACK
6
CONTINUOUS
10
91.42
20
-89.34
11
91.42
21
-90.84
0
LINE
8
BLACK
6
CONTINUOUS
10
139.68
20
-90.8
11
137.18
21
-90.8
0
LINE
8
BLACK
6
CONTINUOUS
10
137.18
20
-90.8
11
137.18
21
-89.3
0
LINE
8
BLACK
6
CONTINUOUS
10
137.18
20
-89.3
11
139.68
21
-89.3
0
LINE
8
BLACK
6
CONTINUOUS
10
139.68
20
-89.3
11
139.68
21
-90.8
0
LINE
8
BLACK
6
CONTINUOUS
10
129.52
20
-88.38
11
127.02
21
-88.38
0
LINE
8
BLACK
6
CONTINUOUS
10
127.02
20
-88.38
11
127.02
21
-86.88
0
LINE
8
BLACK
6
CONTINUOUS
10
127.02
20
-86.88
11
129.52
21
-86.88
0
LINE
8
BLACK
6
CONTINUOUS
10
129.52
20
-86.88
11
129.52
21
-88.38
0
LINE
8
BLACK
6
CONTINUOUS
10
121.9
20
-88.38
11
119.4
21
-88.38
0
LINE
8
BLACK
6
CONTINUOUS
10
119.4
20
-88.38
11
119.4
21
-86.88
0
LINE
8
BLACK
6
CONTINUOUS
10
119.4
20
-86.88
11
121.9
21
-86.88
0
LINE
8
BLACK
6
CONTINUOUS
10
121.9
20
-86.88
11
121.9
21
-88.38
0
LINE
8
BLACK
6
CONTINUOUS
10
91.42
20
-88.34
11
88.92
21
-88.34
0
LINE
8
BLACK
6
CONTINUOUS
10
88.92
20
-88.34
11
88.92
21
-86.84
0
LINE
8
BLACK
6
CONTINUOUS
10
88.92
20
-86.84
11
91.42
21
-86.84
0
LINE
8
BLACK
6
CONTINUOUS
10
91.42
20
-86.84
11
91.42
21
-88.34
0
LINE
8
BLACK
6
CONTINUOUS
10
139.68
20
-88.3
11
137.18
21
-88.3
0
LINE
8
BLACK
6
CONTINUOUS
10
137.18
20
-88.3
11
137.18
21
-86.8
0
LINE
8
BLACK
6
CONTINUOUS
10
137.18
20
-86.8
11
139.68
21
-86.8
0
LINE
8
BLACK
6
CONTINUOUS
10
139.68
20
-86.8
11
139.68
21
-88.3
0
LINE
8
BLACK
6
CONTINUOUS
10
114.28
20
-87.11
11
111.78
21
-87.11
0
LINE
8
BLACK
6
CONTINUOUS
10
111.78
20
-87.11
11
111.78
21
-85.61
0
LINE
8
BLACK
6
CONTINUOUS
10
111.78
20
-85.61
11
114.28
21
-85.61
0
LINE
8
BLACK
6
CONTINUOUS
10
114.28
20
-85.61
11
114.28
21
-87.11
0
LINE
8
BLACK
6
CONTINUOUS
10
129.52
20
-85.84
11
127.02
21
-85.84
0
LINE
8
BLACK
6
CONTINUOUS
10
127.02
20
-85.84
11
127.02
21
-84.34
0
LINE
8
BLACK
6
CONTINUOUS
10
127.02
20
-84.34
11
129.52
21
-84.34
0
LINE
8
BLACK
6
CONTINUOUS
10
129.52
20
-84.34
11
129.52
21
-85.84
0
LINE
8
BLACK
6
CONTINUOUS
10
121.9
20
-85.84
11
119.4
21
-85.84
0
LINE
8
BLACK
6
CONTINUOUS
10
119.4
20
-85.84
11
119.4
21
-84.34
0
LINE
8
BLACK
6
CONTINUOUS
10
119.4
20
-84.34
11
121.9
21
-84.34
0
LINE
8
BLACK
6
CONTINUOUS
10
121.9
20
-84.34
11
121.9
21
-85.84
0
LINE
8
BLACK
6
CONTINUOUS
10
91.42
20
-85.84
11
88.92
21
-85.84
0
LINE
8
BLACK
6
CONTINUOUS
10
88.92
20
-85.84
11
88.92
21
-84.34
0
LINE
8
BLACK
6
CONTINUOUS
10
88.92
20
-84.34
11
91.42
21
-84.34
0
LINE
8
BLACK
6
CONTINUOUS
10
91.42
20
-84.34
11
91.42
21
-85.84
0
LINE
8
BLACK
6
CONTINUOUS
10
139.68
20
-85.8
11
137.18
21
-85.8
0
LINE
8
BLACK
6
CONTINUOUS
10
137.18
20
-85.8
11
137.18
21
-84.3
0
LINE
8
BLACK
6
CONTINUOUS
10
137.18
20
-84.3
11
139.68
21
-84.3
0
LINE
8
BLACK
6
CONTINUOUS
10
139.68
20
-84.3
11
139.68
21
-85.8
0
LINE
8
BLACK
6
CONTINUOUS
10
91.42
20
-83.34
11
88.92
21
-83.34
0
LINE
8
BLACK
6
CONTINUOUS
10
88.92
20
-83.34
11
88.92
21
-81.84
0
LINE
8
BLACK
6
CONTINUOUS
10
88.92
20
-81.84
11
91.42
21
-81.84
0
LINE
8
BLACK
6
CONTINUOUS
10
91.42
20
-81.84
11
91.42
21
-83.34
0
LINE
8
BLACK
6
CONTINUOUS
10
139.68
20
-83.3
11
137.18
21
-83.3
0
LINE
8
BLACK
6
CONTINUOUS
10
137.18
20
-83.3
11
137.18
21
-81.8
0
LINE
8
BLACK
6
CONTINUOUS
10
137.18
20
-81.8
11
139.68
21
-81.8
0
LINE
8
BLACK
6
CONTINUOUS
10
139.68
20
-81.8
11
139.68
21
-83.3
0
LINE
8
BLACK
6
CONTINUOUS
10
129.52
20
-83.3
11
127.02
21
-83.3
0
LINE
8
BLACK
6
CONTINUOUS
10
127.02
20
-83.3
11
127.02
21
-81.8
0
LINE
8
BLACK
6
CONTINUOUS
10
127.02
20
-81.8
11
129.52
21
-81.8
0
LINE
8
BLACK
6
CONTINUOUS
10
129.52
20
-81.8
11
129.52
21
-83.3
0
LINE
8
BLACK
6
CONTINUOUS
10
121.9
20
-83.3
11
119.4
21
-83.3
0
LINE
8
BLACK
6
CONTINUOUS
10
119.4
20
-83.3
11
119.4
21
-81.8
0
LINE
8
BLACK
6
CONTINUOUS
10
119.4
20
-81.8
11
121.9
21
-81.8
0
LINE
8
BLACK
6
CONTINUOUS
10
121.9
20
-81.8
11
121.9
21
-83.3
0
LINE
8
BLACK
6
CONTINUOUS
10
114.28
20
-82.03
11
111.78
21
-82.03
0
LINE
8
BLACK
6
CONTINUOUS
10
111.78
20
-82.03
11
111.78
21
-80.53
0
LINE
8
BLACK
6
CONTINUOUS
10
111.78
20
-80.53
11
114.28
21
-80.53
0
LINE
8
BLACK
6
CONTINUOUS
10
114.28
20
-80.53
11
114.28
21
-82.03
0
LINE
8
BLACK
6
CONTINUOUS
10
91.42
20
-80.84
11
88.92
21
-80.84
0
LINE
8
BLACK
6
CONTINUOUS
10
88.92
20
-80.84
11
88.92
21
-79.34
0
LINE
8
BLACK
6
CONTINUOUS
10
88.92
20
-79.34
11
91.42
21
-79.34
0
LINE
8
BLACK
6
CONTINUOUS
10
91.42
20
-79.34
11
91.42
21
-80.84
0
LINE
8
BLACK
6
CONTINUOUS
10
139.68
20
-80.8
11
137.18
21
-80.8
0
LINE
8
BLACK
6
CONTINUOUS
10
137.18
20
-80.8
11
137.18
21
-79.3
0
LINE
8
BLACK
6
CONTINUOUS
10
137.18
20
-79.3
11
139.68
21
-79.3
0
LINE
8
BLACK
6
CONTINUOUS
10
139.68
20
-79.3
11
139.68
21
-80.8
0
LINE
8
BLACK
6
CONTINUOUS
10
121.9
20
-80.76
11
119.4
21
-80.76
0
LINE
8
BLACK
6
CONTINUOUS
10
119.4
20
-80.76
11
119.4
21
-79.26
0
LINE
8
BLACK
6
CONTINUOUS
10
119.4
20
-79.26
11
121.9
21
-79.26
0
LINE
8
BLACK
6
CONTINUOUS
10
121.9
20
-79.26
11
121.9
21
-80.76
0
LINE
8
BLACK
6
CONTINUOUS
10
129.52
20
-80.76
11
127.02
21
-80.76
0
LINE
8
BLACK
6
CONTINUOUS
10
127.02
20
-80.76
11
127.02
21
-79.26
0
LINE
8
BLACK
6
CONTINUOUS
10
127.02
20
-79.26
11
129.52
21
-79.26
0
LINE
8
BLACK
6
CONTINUOUS
10
129.52
20
-79.26
11
129.52
21
-80.76
0
LINE
8
BLACK
6
CONTINUOUS
10
139.68
20
-78.3
11
137.18
21
-78.3
0
LINE
8
BLACK
6
CONTINUOUS
10
137.18
20
-78.3
11
137.18
21
-76.8
0
LINE
8
BLACK
6
CONTINUOUS
10
137.18
20
-76.8
11
139.68
21
-76.8
0
LINE
8
BLACK
6
CONTINUOUS
10
139.68
20
-76.8
11
139.68
21
-78.3
0
LINE
8
BLACK
6
CONTINUOUS
10
121.9
20
-78.22
11
119.4
21
-78.22
0
LINE
8
BLACK
6
CONTINUOUS
10
119.4
20
-78.22
11
119.4
21
-76.72
0
LINE
8
BLACK
6
CONTINUOUS
10
119.4
20
-76.72
11
121.9
21
-76.72
0
LINE
8
BLACK
6
CONTINUOUS
10
121.9
20
-76.72
11
121.9
21
-78.22
0
LINE
8
BLACK
6
CONTINUOUS
10
129.52
20
-78.22
11
127.02
21
-78.22
0
LINE
8
BLACK
6
CONTINUOUS
10
127.02
20
-78.22
11
127.02
21
-76.72
0
LINE
8
BLACK
6
CONTINUOUS
10
127.02
20
-76.72
11
129.52
21
-76.72
0
LINE
8
BLACK
6
CONTINUOUS
10
129.52
20
-76.72
11
129.52
21
-78.22
0
LINE
8
BLACK
6
CONTINUOUS
10
139.68
20
-75.8
11
137.18
21
-75.8
0
LINE
8
BLACK
6
CONTINUOUS
10
137.18
20
-75.8
11
137.18
21
-74.3
0
LINE
8
BLACK
6
CONTINUOUS
10
137.18
20
-74.3
11
139.68
21
-74.3
0
LINE
8
BLACK
6
CONTINUOUS
10
139.68
20
-74.3
11
139.68
21
-75.8
0
LINE
8
BLACK
6
CONTINUOUS
10
139.68
20
-73.3
11
137.18
21
-73.3
0
LINE
8
BLACK
6
CONTINUOUS
10
137.18
20
-73.3
11
137.18
21
-71.8
0
LINE
8
BLACK
6
CONTINUOUS
10
137.18
20
-71.8
11
139.68
21
-71.8
0
LINE
8
BLACK
6
CONTINUOUS
10
139.68
20
-71.8
11
139.68
21
-73.3
0
LINE
8
BLACK
6
CONTINUOUS
10
139.68
20
-70.8
11
137.18
21
-70.8
0
LINE
8
BLACK
6
CONTINUOUS
10
137.18
20
-70.8
11
137.18
21
-69.3
0
LINE
8
BLACK
6
CONTINUOUS
10
137.18
20
-69.3
11
139.68
21
-69.3
0
LINE
8
BLACK
6
CONTINUOUS
10
139.68
20
-69.3
11
139.68
21
-70.8
0
LINE
8
BLACK
6
CONTINUOUS
10
139.68
20
-68.3
11
137.18
21
-68.3
0
LINE
8
BLACK
6
CONTINUOUS
10
137.18
20
-68.3
11
137.18
21
-66.8
0
LINE
8
BLACK
6
CONTINUOUS
10
137.18
20
-66.8
11
139.68
21
-66.8
0
LINE
8
BLACK
6
CONTINUOUS
10
139.68
20
-66.8
11
139.68
21
-68.3
  0
ENDSEC
  0
EOF
