G04 #@! TF.GenerationSoftware,KiCad,Pcbnew,(5.1.2)-2*
G04 #@! TF.CreationDate,2019-10-01T15:18:02-10:00*
G04 #@! TF.ProjectId,bootloader_atmega328,626f6f74-6c6f-4616-9465-725f61746d65,rev?*
G04 #@! TF.SameCoordinates,Original*
G04 #@! TF.FileFunction,Soldermask,Top*
G04 #@! TF.FilePolarity,Negative*
%FSLAX46Y46*%
G04 Gerber Fmt 4.6, Leading zero omitted, Abs format (unit mm)*
G04 Created by KiCad (PCBNEW (5.1.2)-2) date 2019-10-01 15:18:02*
%MOMM*%
%LPD*%
G04 APERTURE LIST*
%ADD10C,0.100000*%
G04 APERTURE END LIST*
D10*
G36*
X91471000Y-113671000D02*
G01*
X88869000Y-113671000D01*
X88869000Y-112069000D01*
X91471000Y-112069000D01*
X91471000Y-113671000D01*
X91471000Y-113671000D01*
G37*
G36*
X139731000Y-112281000D02*
G01*
X137129000Y-112281000D01*
X137129000Y-110679000D01*
X139731000Y-110679000D01*
X139731000Y-112281000D01*
X139731000Y-112281000D01*
G37*
G36*
X121951000Y-111291000D02*
G01*
X119349000Y-111291000D01*
X119349000Y-109689000D01*
X121951000Y-109689000D01*
X121951000Y-111291000D01*
X121951000Y-111291000D01*
G37*
G36*
X129571000Y-111291000D02*
G01*
X126969000Y-111291000D01*
X126969000Y-109689000D01*
X129571000Y-109689000D01*
X129571000Y-111291000D01*
X129571000Y-111291000D01*
G37*
G36*
X91471000Y-111171000D02*
G01*
X88869000Y-111171000D01*
X88869000Y-109569000D01*
X91471000Y-109569000D01*
X91471000Y-111171000D01*
X91471000Y-111171000D01*
G37*
G36*
X139731000Y-109781000D02*
G01*
X137129000Y-109781000D01*
X137129000Y-108179000D01*
X139731000Y-108179000D01*
X139731000Y-109781000D01*
X139731000Y-109781000D01*
G37*
G36*
X121951000Y-108751000D02*
G01*
X119349000Y-108751000D01*
X119349000Y-107149000D01*
X121951000Y-107149000D01*
X121951000Y-108751000D01*
X121951000Y-108751000D01*
G37*
G36*
X129571000Y-108751000D02*
G01*
X126969000Y-108751000D01*
X126969000Y-107149000D01*
X129571000Y-107149000D01*
X129571000Y-108751000D01*
X129571000Y-108751000D01*
G37*
G36*
X91471000Y-108671000D02*
G01*
X88869000Y-108671000D01*
X88869000Y-107069000D01*
X91471000Y-107069000D01*
X91471000Y-108671000D01*
X91471000Y-108671000D01*
G37*
G36*
X139731000Y-107281000D02*
G01*
X137129000Y-107281000D01*
X137129000Y-105679000D01*
X139731000Y-105679000D01*
X139731000Y-107281000D01*
X139731000Y-107281000D01*
G37*
G36*
X121951000Y-106211000D02*
G01*
X119349000Y-106211000D01*
X119349000Y-104609000D01*
X121951000Y-104609000D01*
X121951000Y-106211000D01*
X121951000Y-106211000D01*
G37*
G36*
X129571000Y-106211000D02*
G01*
X126969000Y-106211000D01*
X126969000Y-104609000D01*
X129571000Y-104609000D01*
X129571000Y-106211000D01*
X129571000Y-106211000D01*
G37*
G36*
X91471000Y-106171000D02*
G01*
X88869000Y-106171000D01*
X88869000Y-104569000D01*
X91471000Y-104569000D01*
X91471000Y-106171000D01*
X91471000Y-106171000D01*
G37*
G36*
X110521000Y-104861000D02*
G01*
X107919000Y-104861000D01*
X107919000Y-103259000D01*
X110521000Y-103259000D01*
X110521000Y-104861000D01*
X110521000Y-104861000D01*
G37*
G36*
X139731000Y-104781000D02*
G01*
X137129000Y-104781000D01*
X137129000Y-103179000D01*
X139731000Y-103179000D01*
X139731000Y-104781000D01*
X139731000Y-104781000D01*
G37*
G36*
X129571000Y-103671000D02*
G01*
X126969000Y-103671000D01*
X126969000Y-102069000D01*
X129571000Y-102069000D01*
X129571000Y-103671000D01*
X129571000Y-103671000D01*
G37*
G36*
X91471000Y-103671000D02*
G01*
X88869000Y-103671000D01*
X88869000Y-102069000D01*
X91471000Y-102069000D01*
X91471000Y-103671000D01*
X91471000Y-103671000D01*
G37*
G36*
X121951000Y-103671000D02*
G01*
X119349000Y-103671000D01*
X119349000Y-102069000D01*
X121951000Y-102069000D01*
X121951000Y-103671000D01*
X121951000Y-103671000D01*
G37*
G36*
X139731000Y-102281000D02*
G01*
X137129000Y-102281000D01*
X137129000Y-100679000D01*
X139731000Y-100679000D01*
X139731000Y-102281000D01*
X139731000Y-102281000D01*
G37*
G36*
X129571000Y-101131000D02*
G01*
X126969000Y-101131000D01*
X126969000Y-99529000D01*
X129571000Y-99529000D01*
X129571000Y-101131000D01*
X129571000Y-101131000D01*
G37*
G36*
X121951000Y-101131000D02*
G01*
X119349000Y-101131000D01*
X119349000Y-99529000D01*
X121951000Y-99529000D01*
X121951000Y-101131000D01*
X121951000Y-101131000D01*
G37*
G36*
X116871000Y-100491000D02*
G01*
X114269000Y-100491000D01*
X114269000Y-98889000D01*
X116871000Y-98889000D01*
X116871000Y-100491000D01*
X116871000Y-100491000D01*
G37*
G36*
X110521000Y-99861000D02*
G01*
X107919000Y-99861000D01*
X107919000Y-98259000D01*
X110521000Y-98259000D01*
X110521000Y-99861000D01*
X110521000Y-99861000D01*
G37*
G36*
X139731000Y-99781000D02*
G01*
X137129000Y-99781000D01*
X137129000Y-98179000D01*
X139731000Y-98179000D01*
X139731000Y-99781000D01*
X139731000Y-99781000D01*
G37*
G36*
X129571000Y-98591000D02*
G01*
X126969000Y-98591000D01*
X126969000Y-96989000D01*
X129571000Y-96989000D01*
X129571000Y-98591000D01*
X129571000Y-98591000D01*
G37*
G36*
X121951000Y-98591000D02*
G01*
X119349000Y-98591000D01*
X119349000Y-96989000D01*
X121951000Y-96989000D01*
X121951000Y-98591000D01*
X121951000Y-98591000D01*
G37*
G36*
X116871000Y-98591000D02*
G01*
X114269000Y-98591000D01*
X114269000Y-96989000D01*
X116871000Y-96989000D01*
X116871000Y-98591000D01*
X116871000Y-98591000D01*
G37*
G36*
X91471000Y-98391000D02*
G01*
X88869000Y-98391000D01*
X88869000Y-96789000D01*
X91471000Y-96789000D01*
X91471000Y-98391000D01*
X91471000Y-98391000D01*
G37*
G36*
X110521000Y-97321000D02*
G01*
X107919000Y-97321000D01*
X107919000Y-95719000D01*
X110521000Y-95719000D01*
X110521000Y-97321000D01*
X110521000Y-97321000D01*
G37*
G36*
X139731000Y-97281000D02*
G01*
X137129000Y-97281000D01*
X137129000Y-95679000D01*
X139731000Y-95679000D01*
X139731000Y-97281000D01*
X139731000Y-97281000D01*
G37*
G36*
X129571000Y-96051000D02*
G01*
X126969000Y-96051000D01*
X126969000Y-94449000D01*
X129571000Y-94449000D01*
X129571000Y-96051000D01*
X129571000Y-96051000D01*
G37*
G36*
X121951000Y-96051000D02*
G01*
X119349000Y-96051000D01*
X119349000Y-94449000D01*
X121951000Y-94449000D01*
X121951000Y-96051000D01*
X121951000Y-96051000D01*
G37*
G36*
X91471000Y-95891000D02*
G01*
X88869000Y-95891000D01*
X88869000Y-94289000D01*
X91471000Y-94289000D01*
X91471000Y-95891000D01*
X91471000Y-95891000D01*
G37*
G36*
X139731000Y-94781000D02*
G01*
X137129000Y-94781000D01*
X137129000Y-93179000D01*
X139731000Y-93179000D01*
X139731000Y-94781000D01*
X139731000Y-94781000D01*
G37*
G36*
X121951000Y-93511000D02*
G01*
X119349000Y-93511000D01*
X119349000Y-91909000D01*
X121951000Y-91909000D01*
X121951000Y-93511000D01*
X121951000Y-93511000D01*
G37*
G36*
X129571000Y-93511000D02*
G01*
X126969000Y-93511000D01*
X126969000Y-91909000D01*
X129571000Y-91909000D01*
X129571000Y-93511000D01*
X129571000Y-93511000D01*
G37*
G36*
X91471000Y-93391000D02*
G01*
X88869000Y-93391000D01*
X88869000Y-91789000D01*
X91471000Y-91789000D01*
X91471000Y-93391000D01*
X91471000Y-93391000D01*
G37*
G36*
X110521000Y-92321000D02*
G01*
X107919000Y-92321000D01*
X107919000Y-90719000D01*
X110521000Y-90719000D01*
X110521000Y-92321000D01*
X110521000Y-92321000D01*
G37*
G36*
X121951000Y-90971000D02*
G01*
X119349000Y-90971000D01*
X119349000Y-89369000D01*
X121951000Y-89369000D01*
X121951000Y-90971000D01*
X121951000Y-90971000D01*
G37*
G36*
X129571000Y-90971000D02*
G01*
X126969000Y-90971000D01*
X126969000Y-89369000D01*
X129571000Y-89369000D01*
X129571000Y-90971000D01*
X129571000Y-90971000D01*
G37*
G36*
X91471000Y-90891000D02*
G01*
X88869000Y-90891000D01*
X88869000Y-89289000D01*
X91471000Y-89289000D01*
X91471000Y-90891000D01*
X91471000Y-90891000D01*
G37*
G36*
X139731000Y-90851000D02*
G01*
X137129000Y-90851000D01*
X137129000Y-89249000D01*
X139731000Y-89249000D01*
X139731000Y-90851000D01*
X139731000Y-90851000D01*
G37*
G36*
X121951000Y-88431000D02*
G01*
X119349000Y-88431000D01*
X119349000Y-86829000D01*
X121951000Y-86829000D01*
X121951000Y-88431000D01*
X121951000Y-88431000D01*
G37*
G36*
X129571000Y-88431000D02*
G01*
X126969000Y-88431000D01*
X126969000Y-86829000D01*
X129571000Y-86829000D01*
X129571000Y-88431000D01*
X129571000Y-88431000D01*
G37*
G36*
X91471000Y-88391000D02*
G01*
X88869000Y-88391000D01*
X88869000Y-86789000D01*
X91471000Y-86789000D01*
X91471000Y-88391000D01*
X91471000Y-88391000D01*
G37*
G36*
X139731000Y-88351000D02*
G01*
X137129000Y-88351000D01*
X137129000Y-86749000D01*
X139731000Y-86749000D01*
X139731000Y-88351000D01*
X139731000Y-88351000D01*
G37*
G36*
X114331000Y-87161000D02*
G01*
X111729000Y-87161000D01*
X111729000Y-85559000D01*
X114331000Y-85559000D01*
X114331000Y-87161000D01*
X114331000Y-87161000D01*
G37*
G36*
X91471000Y-85891000D02*
G01*
X88869000Y-85891000D01*
X88869000Y-84289000D01*
X91471000Y-84289000D01*
X91471000Y-85891000D01*
X91471000Y-85891000D01*
G37*
G36*
X129571000Y-85891000D02*
G01*
X126969000Y-85891000D01*
X126969000Y-84289000D01*
X129571000Y-84289000D01*
X129571000Y-85891000D01*
X129571000Y-85891000D01*
G37*
G36*
X121951000Y-85891000D02*
G01*
X119349000Y-85891000D01*
X119349000Y-84289000D01*
X121951000Y-84289000D01*
X121951000Y-85891000D01*
X121951000Y-85891000D01*
G37*
G36*
X139731000Y-85851000D02*
G01*
X137129000Y-85851000D01*
X137129000Y-84249000D01*
X139731000Y-84249000D01*
X139731000Y-85851000D01*
X139731000Y-85851000D01*
G37*
G36*
X91471000Y-83391000D02*
G01*
X88869000Y-83391000D01*
X88869000Y-81789000D01*
X91471000Y-81789000D01*
X91471000Y-83391000D01*
X91471000Y-83391000D01*
G37*
G36*
X121951000Y-83351000D02*
G01*
X119349000Y-83351000D01*
X119349000Y-81749000D01*
X121951000Y-81749000D01*
X121951000Y-83351000D01*
X121951000Y-83351000D01*
G37*
G36*
X129571000Y-83351000D02*
G01*
X126969000Y-83351000D01*
X126969000Y-81749000D01*
X129571000Y-81749000D01*
X129571000Y-83351000D01*
X129571000Y-83351000D01*
G37*
G36*
X139731000Y-83351000D02*
G01*
X137129000Y-83351000D01*
X137129000Y-81749000D01*
X139731000Y-81749000D01*
X139731000Y-83351000D01*
X139731000Y-83351000D01*
G37*
G36*
X114331000Y-82081000D02*
G01*
X111729000Y-82081000D01*
X111729000Y-80479000D01*
X114331000Y-80479000D01*
X114331000Y-82081000D01*
X114331000Y-82081000D01*
G37*
G36*
X91471000Y-80891000D02*
G01*
X88869000Y-80891000D01*
X88869000Y-79289000D01*
X91471000Y-79289000D01*
X91471000Y-80891000D01*
X91471000Y-80891000D01*
G37*
G36*
X139731000Y-80851000D02*
G01*
X137129000Y-80851000D01*
X137129000Y-79249000D01*
X139731000Y-79249000D01*
X139731000Y-80851000D01*
X139731000Y-80851000D01*
G37*
G36*
X121951000Y-80811000D02*
G01*
X119349000Y-80811000D01*
X119349000Y-79209000D01*
X121951000Y-79209000D01*
X121951000Y-80811000D01*
X121951000Y-80811000D01*
G37*
G36*
X129571000Y-80811000D02*
G01*
X126969000Y-80811000D01*
X126969000Y-79209000D01*
X129571000Y-79209000D01*
X129571000Y-80811000D01*
X129571000Y-80811000D01*
G37*
G36*
X139731000Y-78351000D02*
G01*
X137129000Y-78351000D01*
X137129000Y-76749000D01*
X139731000Y-76749000D01*
X139731000Y-78351000D01*
X139731000Y-78351000D01*
G37*
G36*
X129571000Y-78271000D02*
G01*
X126969000Y-78271000D01*
X126969000Y-76669000D01*
X129571000Y-76669000D01*
X129571000Y-78271000D01*
X129571000Y-78271000D01*
G37*
G36*
X121951000Y-78271000D02*
G01*
X119349000Y-78271000D01*
X119349000Y-76669000D01*
X121951000Y-76669000D01*
X121951000Y-78271000D01*
X121951000Y-78271000D01*
G37*
G36*
X139731000Y-75851000D02*
G01*
X137129000Y-75851000D01*
X137129000Y-74249000D01*
X139731000Y-74249000D01*
X139731000Y-75851000D01*
X139731000Y-75851000D01*
G37*
G36*
X139731000Y-73351000D02*
G01*
X137129000Y-73351000D01*
X137129000Y-71749000D01*
X139731000Y-71749000D01*
X139731000Y-73351000D01*
X139731000Y-73351000D01*
G37*
G36*
X139731000Y-70851000D02*
G01*
X137129000Y-70851000D01*
X137129000Y-69249000D01*
X139731000Y-69249000D01*
X139731000Y-70851000D01*
X139731000Y-70851000D01*
G37*
G36*
X139731000Y-68351000D02*
G01*
X137129000Y-68351000D01*
X137129000Y-66749000D01*
X139731000Y-66749000D01*
X139731000Y-68351000D01*
X139731000Y-68351000D01*
G37*
M02*
