  0
SECTION
  2
HEADER
  9
$ANGBASE
  50
0.0
  9
$ANGDIR
  70
  1
  9
$MEASUREMENT
  70
0
  0
ENDSEC
  0
SECTION
  2
TABLES
  0
TABLE
  2
LTYPE
  70
4
  0
LTYPE
  5
40F
  2
CONTINUOUS
  70
0
  3
Solid line
  72
65
  73
0
  40
0.0
  0
LTYPE
  5
410
  2
DASHDOT
 70
0
  3
Dash Dot ____ _ ____ _
 72
65
 73
4
 40
2.0
 49
1.25
 49
-0.25
 49
0.25
 49
-0.25
  0
LTYPE
  5
411
  2
DASHED
 70
0
  3
Dashed __ __ __ __ __
 72
65
 73
2
 40
0.75
 49
0.5
 49
-0.25
  0
LTYPE
  5
43B
  2
DOTTED
 70
0
  3
Dotted .  .  .  .
 72
65
 73
2
 40
0.2
 49
0.0
 49
-0.2
  0
ENDTAB
  0
TABLE
  2
STYLE
  70
4
  0
STYLE
  2
KICAD
  70
0
  40
0
  41
1
  42
1
  50
0
  71
0
  3
isocp.shx
  0
STYLE
  2
KICADB
  70
0
  40
0
  41
1
  42
1
  50
0
  71
0
  3
isocp.shx
  0
STYLE
  2
KICADI
  70
0
  40
0
  41
1
  42
1
  50
15
  71
0
  3
isocp.shx
  0
STYLE
  2
KICADBI
  70
0
  40
0
  41
1
  42
1
  50
15
  71
0
  3
isocp.shx
  0
ENDTAB
  0
TABLE
  2
LAYER
  70
30
  0
LAYER
  2
BLACK
  70
0
  62
7
  6
CONTINUOUS
  0
LAYER
  2
GRAY1
  70
0
  62
251
  6
CONTINUOUS
  0
LAYER
  2
GRAY2
  70
0
  62
8
  6
CONTINUOUS
  0
LAYER
  2
GRAY3
  70
0
  62
9
  6
CONTINUOUS
  0
LAYER
  2
WHITE
  70
0
  62
7
  6
CONTINUOUS
  0
LAYER
  2
LYELLOW
  70
0
  62
51
  6
CONTINUOUS
  0
LAYER
  2
BLUE1
  70
0
  62
178
  6
CONTINUOUS
  0
LAYER
  2
GREEN1
  70
0
  62
98
  6
CONTINUOUS
  0
LAYER
  2
CYAN1
  70
0
  62
138
  6
CONTINUOUS
  0
LAYER
  2
RED1
  70
0
  62
18
  6
CONTINUOUS
  0
LAYER
  2
MAGENTA1
  70
0
  62
228
  6
CONTINUOUS
  0
LAYER
  2
BROWN1
  70
0
  62
58
  6
CONTINUOUS
  0
LAYER
  2
BLUE2
  70
0
  62
5
  6
CONTINUOUS
  0
LAYER
  2
GREEN2
  70
0
  62
3
  6
CONTINUOUS
  0
LAYER
  2
CYAN2
  70
0
  62
4
  6
CONTINUOUS
  0
LAYER
  2
RED2
  70
0
  62
1
  6
CONTINUOUS
  0
LAYER
  2
MAGENTA2
  70
0
  62
6
  6
CONTINUOUS
  0
LAYER
  2
BROWN2
  70
0
  62
54
  6
CONTINUOUS
  0
LAYER
  2
BLUE3
  70
0
  62
171
  6
CONTINUOUS
  0
LAYER
  2
GREEN3
  70
0
  62
91
  6
CONTINUOUS
  0
LAYER
  2
CYAN3
  70
0
  62
131
  6
CONTINUOUS
  0
LAYER
  2
RED3
  70
0
  62
11
  6
CONTINUOUS
  0
LAYER
  2
MAGENTA3
  70
0
  62
221
  6
CONTINUOUS
  0
LAYER
  2
YELLOW3
  70
0
  62
2
  6
CONTINUOUS
  0
LAYER
  2
BLUE4
  70
0
  62
5
  6
CONTINUOUS
  0
LAYER
  2
GREEN4
  70
0
  62
3
  6
CONTINUOUS
  0
LAYER
  2
CYAN4
  70
0
  62
4
  6
CONTINUOUS
  0
LAYER
  2
RED4
  70
0
  62
1
  6
CONTINUOUS
  0
LAYER
  2
MAGENTA4
  70
0
  62
6
  6
CONTINUOUS
  0
LAYER
  2
YELLOW4
  70
0
  62
2
  6
CONTINUOUS
  0
ENDTAB
  0
ENDSEC
  0
SECTION
  2
ENTITIES
0
LINE
8
BLACK
6
CONTINUOUS
10
91.471
20
-113.671
11
88.869
21
-113.671
0
LINE
8
BLACK
6
CONTINUOUS
10
88.869
20
-113.671
11
88.869
21
-112.069
0
LINE
8
BLACK
6
CONTINUOUS
10
88.869
20
-112.069
11
91.471
21
-112.069
0
LINE
8
BLACK
6
CONTINUOUS
10
91.471
20
-112.069
11
91.471
21
-113.671
0
LINE
8
BLACK
6
CONTINUOUS
10
139.731
20
-112.281
11
137.129
21
-112.281
0
LINE
8
BLACK
6
CONTINUOUS
10
137.129
20
-112.281
11
137.129
21
-110.679
0
LINE
8
BLACK
6
CONTINUOUS
10
137.129
20
-110.679
11
139.731
21
-110.679
0
LINE
8
BLACK
6
CONTINUOUS
10
139.731
20
-110.679
11
139.731
21
-112.281
0
LINE
8
BLACK
6
CONTINUOUS
10
121.951
20
-111.291
11
119.349
21
-111.291
0
LINE
8
BLACK
6
CONTINUOUS
10
119.349
20
-111.291
11
119.349
21
-109.689
0
LINE
8
BLACK
6
CONTINUOUS
10
119.349
20
-109.689
11
121.951
21
-109.689
0
LINE
8
BLACK
6
CONTINUOUS
10
121.951
20
-109.689
11
121.951
21
-111.291
0
LINE
8
BLACK
6
CONTINUOUS
10
129.571
20
-111.291
11
126.969
21
-111.291
0
LINE
8
BLACK
6
CONTINUOUS
10
126.969
20
-111.291
11
126.969
21
-109.689
0
LINE
8
BLACK
6
CONTINUOUS
10
126.969
20
-109.689
11
129.571
21
-109.689
0
LINE
8
BLACK
6
CONTINUOUS
10
129.571
20
-109.689
11
129.571
21
-111.291
0
LINE
8
BLACK
6
CONTINUOUS
10
91.471
20
-111.171
11
88.869
21
-111.171
0
LINE
8
BLACK
6
CONTINUOUS
10
88.869
20
-111.171
11
88.869
21
-109.569
0
LINE
8
BLACK
6
CONTINUOUS
10
88.869
20
-109.569
11
91.471
21
-109.569
0
LINE
8
BLACK
6
CONTINUOUS
10
91.471
20
-109.569
11
91.471
21
-111.171
0
LINE
8
BLACK
6
CONTINUOUS
10
139.731
20
-109.781
11
137.129
21
-109.781
0
LINE
8
BLACK
6
CONTINUOUS
10
137.129
20
-109.781
11
137.129
21
-108.179
0
LINE
8
BLACK
6
CONTINUOUS
10
137.129
20
-108.179
11
139.731
21
-108.179
0
LINE
8
BLACK
6
CONTINUOUS
10
139.731
20
-108.179
11
139.731
21
-109.781
0
LINE
8
BLACK
6
CONTINUOUS
10
121.951
20
-108.751
11
119.349
21
-108.751
0
LINE
8
BLACK
6
CONTINUOUS
10
119.349
20
-108.751
11
119.349
21
-107.149
0
LINE
8
BLACK
6
CONTINUOUS
10
119.349
20
-107.149
11
121.951
21
-107.149
0
LINE
8
BLACK
6
CONTINUOUS
10
121.951
20
-107.149
11
121.951
21
-108.751
0
LINE
8
BLACK
6
CONTINUOUS
10
129.571
20
-108.751
11
126.969
21
-108.751
0
LINE
8
BLACK
6
CONTINUOUS
10
126.969
20
-108.751
11
126.969
21
-107.149
0
LINE
8
BLACK
6
CONTINUOUS
10
126.969
20
-107.149
11
129.571
21
-107.149
0
LINE
8
BLACK
6
CONTINUOUS
10
129.571
20
-107.149
11
129.571
21
-108.751
0
LINE
8
BLACK
6
CONTINUOUS
10
91.471
20
-108.671
11
88.869
21
-108.671
0
LINE
8
BLACK
6
CONTINUOUS
10
88.869
20
-108.671
11
88.869
21
-107.069
0
LINE
8
BLACK
6
CONTINUOUS
10
88.869
20
-107.069
11
91.471
21
-107.069
0
LINE
8
BLACK
6
CONTINUOUS
10
91.471
20
-107.069
11
91.471
21
-108.671
0
LINE
8
BLACK
6
CONTINUOUS
10
139.731
20
-107.281
11
137.129
21
-107.281
0
LINE
8
BLACK
6
CONTINUOUS
10
137.129
20
-107.281
11
137.129
21
-105.679
0
LINE
8
BLACK
6
CONTINUOUS
10
137.129
20
-105.679
11
139.731
21
-105.679
0
LINE
8
BLACK
6
CONTINUOUS
10
139.731
20
-105.679
11
139.731
21
-107.281
0
LINE
8
BLACK
6
CONTINUOUS
10
121.951
20
-106.211
11
119.349
21
-106.211
0
LINE
8
BLACK
6
CONTINUOUS
10
119.349
20
-106.211
11
119.349
21
-104.609
0
LINE
8
BLACK
6
CONTINUOUS
10
119.349
20
-104.609
11
121.951
21
-104.609
0
LINE
8
BLACK
6
CONTINUOUS
10
121.951
20
-104.609
11
121.951
21
-106.211
0
LINE
8
BLACK
6
CONTINUOUS
10
129.571
20
-106.211
11
126.969
21
-106.211
0
LINE
8
BLACK
6
CONTINUOUS
10
126.969
20
-106.211
11
126.969
21
-104.609
0
LINE
8
BLACK
6
CONTINUOUS
10
126.969
20
-104.609
11
129.571
21
-104.609
0
LINE
8
BLACK
6
CONTINUOUS
10
129.571
20
-104.609
11
129.571
21
-106.211
0
LINE
8
BLACK
6
CONTINUOUS
10
91.471
20
-106.171
11
88.869
21
-106.171
0
LINE
8
BLACK
6
CONTINUOUS
10
88.869
20
-106.171
11
88.869
21
-104.569
0
LINE
8
BLACK
6
CONTINUOUS
10
88.869
20
-104.569
11
91.471
21
-104.569
0
LINE
8
BLACK
6
CONTINUOUS
10
91.471
20
-104.569
11
91.471
21
-106.171
0
LINE
8
BLACK
6
CONTINUOUS
10
110.521
20
-104.861
11
107.919
21
-104.861
0
LINE
8
BLACK
6
CONTINUOUS
10
107.919
20
-104.861
11
107.919
21
-103.259
0
LINE
8
BLACK
6
CONTINUOUS
10
107.919
20
-103.259
11
110.521
21
-103.259
0
LINE
8
BLACK
6
CONTINUOUS
10
110.521
20
-103.259
11
110.521
21
-104.861
0
LINE
8
BLACK
6
CONTINUOUS
10
139.731
20
-104.781
11
137.129
21
-104.781
0
LINE
8
BLACK
6
CONTINUOUS
10
137.129
20
-104.781
11
137.129
21
-103.179
0
LINE
8
BLACK
6
CONTINUOUS
10
137.129
20
-103.179
11
139.731
21
-103.179
0
LINE
8
BLACK
6
CONTINUOUS
10
139.731
20
-103.179
11
139.731
21
-104.781
0
LINE
8
BLACK
6
CONTINUOUS
10
129.571
20
-103.671
11
126.969
21
-103.671
0
LINE
8
BLACK
6
CONTINUOUS
10
126.969
20
-103.671
11
126.969
21
-102.069
0
LINE
8
BLACK
6
CONTINUOUS
10
126.969
20
-102.069
11
129.571
21
-102.069
0
LINE
8
BLACK
6
CONTINUOUS
10
129.571
20
-102.069
11
129.571
21
-103.671
0
LINE
8
BLACK
6
CONTINUOUS
10
91.471
20
-103.671
11
88.869
21
-103.671
0
LINE
8
BLACK
6
CONTINUOUS
10
88.869
20
-103.671
11
88.869
21
-102.069
0
LINE
8
BLACK
6
CONTINUOUS
10
88.869
20
-102.069
11
91.471
21
-102.069
0
LINE
8
BLACK
6
CONTINUOUS
10
91.471
20
-102.069
11
91.471
21
-103.671
0
LINE
8
BLACK
6
CONTINUOUS
10
121.951
20
-103.671
11
119.349
21
-103.671
0
LINE
8
BLACK
6
CONTINUOUS
10
119.349
20
-103.671
11
119.349
21
-102.069
0
LINE
8
BLACK
6
CONTINUOUS
10
119.349
20
-102.069
11
121.951
21
-102.069
0
LINE
8
BLACK
6
CONTINUOUS
10
121.951
20
-102.069
11
121.951
21
-103.671
0
LINE
8
BLACK
6
CONTINUOUS
10
139.731
20
-102.281
11
137.129
21
-102.281
0
LINE
8
BLACK
6
CONTINUOUS
10
137.129
20
-102.281
11
137.129
21
-100.679
0
LINE
8
BLACK
6
CONTINUOUS
10
137.129
20
-100.679
11
139.731
21
-100.679
0
LINE
8
BLACK
6
CONTINUOUS
10
139.731
20
-100.679
11
139.731
21
-102.281
0
LINE
8
BLACK
6
CONTINUOUS
10
129.571
20
-101.131
11
126.969
21
-101.131
0
LINE
8
BLACK
6
CONTINUOUS
10
126.969
20
-101.131
11
126.969
21
-99.529
0
LINE
8
BLACK
6
CONTINUOUS
10
126.969
20
-99.529
11
129.571
21
-99.529
0
LINE
8
BLACK
6
CONTINUOUS
10
129.571
20
-99.529
11
129.571
21
-101.131
0
LINE
8
BLACK
6
CONTINUOUS
10
121.951
20
-101.131
11
119.349
21
-101.131
0
LINE
8
BLACK
6
CONTINUOUS
10
119.349
20
-101.131
11
119.349
21
-99.529
0
LINE
8
BLACK
6
CONTINUOUS
10
119.349
20
-99.529
11
121.951
21
-99.529
0
LINE
8
BLACK
6
CONTINUOUS
10
121.951
20
-99.529
11
121.951
21
-101.131
0
LINE
8
BLACK
6
CONTINUOUS
10
116.871
20
-100.491
11
114.269
21
-100.491
0
LINE
8
BLACK
6
CONTINUOUS
10
114.269
20
-100.491
11
114.269
21
-98.889
0
LINE
8
BLACK
6
CONTINUOUS
10
114.269
20
-98.889
11
116.871
21
-98.889
0
LINE
8
BLACK
6
CONTINUOUS
10
116.871
20
-98.889
11
116.871
21
-100.491
0
LINE
8
BLACK
6
CONTINUOUS
10
110.521
20
-99.861
11
107.919
21
-99.861
0
LINE
8
BLACK
6
CONTINUOUS
10
107.919
20
-99.861
11
107.919
21
-98.259
0
LINE
8
BLACK
6
CONTINUOUS
10
107.919
20
-98.259
11
110.521
21
-98.259
0
LINE
8
BLACK
6
CONTINUOUS
10
110.521
20
-98.259
11
110.521
21
-99.861
0
LINE
8
BLACK
6
CONTINUOUS
10
139.731
20
-99.781
11
137.129
21
-99.781
0
LINE
8
BLACK
6
CONTINUOUS
10
137.129
20
-99.781
11
137.129
21
-98.179
0
LINE
8
BLACK
6
CONTINUOUS
10
137.129
20
-98.179
11
139.731
21
-98.179
0
LINE
8
BLACK
6
CONTINUOUS
10
139.731
20
-98.179
11
139.731
21
-99.781
0
LINE
8
BLACK
6
CONTINUOUS
10
129.571
20
-98.591
11
126.969
21
-98.591
0
LINE
8
BLACK
6
CONTINUOUS
10
126.969
20
-98.591
11
126.969
21
-96.989
0
LINE
8
BLACK
6
CONTINUOUS
10
126.969
20
-96.989
11
129.571
21
-96.989
0
LINE
8
BLACK
6
CONTINUOUS
10
129.571
20
-96.989
11
129.571
21
-98.591
0
LINE
8
BLACK
6
CONTINUOUS
10
121.951
20
-98.591
11
119.349
21
-98.591
0
LINE
8
BLACK
6
CONTINUOUS
10
119.349
20
-98.591
11
119.349
21
-96.989
0
LINE
8
BLACK
6
CONTINUOUS
10
119.349
20
-96.989
11
121.951
21
-96.989
0
LINE
8
BLACK
6
CONTINUOUS
10
121.951
20
-96.989
11
121.951
21
-98.591
0
LINE
8
BLACK
6
CONTINUOUS
10
116.871
20
-98.591
11
114.269
21
-98.591
0
LINE
8
BLACK
6
CONTINUOUS
10
114.269
20
-98.591
11
114.269
21
-96.989
0
LINE
8
BLACK
6
CONTINUOUS
10
114.269
20
-96.989
11
116.871
21
-96.989
0
LINE
8
BLACK
6
CONTINUOUS
10
116.871
20
-96.989
11
116.871
21
-98.591
0
LINE
8
BLACK
6
CONTINUOUS
10
91.471
20
-98.391
11
88.869
21
-98.391
0
LINE
8
BLACK
6
CONTINUOUS
10
88.869
20
-98.391
11
88.869
21
-96.789
0
LINE
8
BLACK
6
CONTINUOUS
10
88.869
20
-96.789
11
91.471
21
-96.789
0
LINE
8
BLACK
6
CONTINUOUS
10
91.471
20
-96.789
11
91.471
21
-98.391
0
LINE
8
BLACK
6
CONTINUOUS
10
110.521
20
-97.321
11
107.919
21
-97.321
0
LINE
8
BLACK
6
CONTINUOUS
10
107.919
20
-97.321
11
107.919
21
-95.719
0
LINE
8
BLACK
6
CONTINUOUS
10
107.919
20
-95.719
11
110.521
21
-95.719
0
LINE
8
BLACK
6
CONTINUOUS
10
110.521
20
-95.719
11
110.521
21
-97.321
0
LINE
8
BLACK
6
CONTINUOUS
10
139.731
20
-97.281
11
137.129
21
-97.281
0
LINE
8
BLACK
6
CONTINUOUS
10
137.129
20
-97.281
11
137.129
21
-95.679
0
LINE
8
BLACK
6
CONTINUOUS
10
137.129
20
-95.679
11
139.731
21
-95.679
0
LINE
8
BLACK
6
CONTINUOUS
10
139.731
20
-95.679
11
139.731
21
-97.281
0
LINE
8
BLACK
6
CONTINUOUS
10
129.571
20
-96.051
11
126.969
21
-96.051
0
LINE
8
BLACK
6
CONTINUOUS
10
126.969
20
-96.051
11
126.969
21
-94.449
0
LINE
8
BLACK
6
CONTINUOUS
10
126.969
20
-94.449
11
129.571
21
-94.449
0
LINE
8
BLACK
6
CONTINUOUS
10
129.571
20
-94.449
11
129.571
21
-96.051
0
LINE
8
BLACK
6
CONTINUOUS
10
121.951
20
-96.051
11
119.349
21
-96.051
0
LINE
8
BLACK
6
CONTINUOUS
10
119.349
20
-96.051
11
119.349
21
-94.449
0
LINE
8
BLACK
6
CONTINUOUS
10
119.349
20
-94.449
11
121.951
21
-94.449
0
LINE
8
BLACK
6
CONTINUOUS
10
121.951
20
-94.449
11
121.951
21
-96.051
0
LINE
8
BLACK
6
CONTINUOUS
10
91.471
20
-95.891
11
88.869
21
-95.891
0
LINE
8
BLACK
6
CONTINUOUS
10
88.869
20
-95.891
11
88.869
21
-94.289
0
LINE
8
BLACK
6
CONTINUOUS
10
88.869
20
-94.289
11
91.471
21
-94.289
0
LINE
8
BLACK
6
CONTINUOUS
10
91.471
20
-94.289
11
91.471
21
-95.891
0
LINE
8
BLACK
6
CONTINUOUS
10
139.731
20
-94.781
11
137.129
21
-94.781
0
LINE
8
BLACK
6
CONTINUOUS
10
137.129
20
-94.781
11
137.129
21
-93.179
0
LINE
8
BLACK
6
CONTINUOUS
10
137.129
20
-93.179
11
139.731
21
-93.179
0
LINE
8
BLACK
6
CONTINUOUS
10
139.731
20
-93.179
11
139.731
21
-94.781
0
LINE
8
BLACK
6
CONTINUOUS
10
121.951
20
-93.511
11
119.349
21
-93.511
0
LINE
8
BLACK
6
CONTINUOUS
10
119.349
20
-93.511
11
119.349
21
-91.909
0
LINE
8
BLACK
6
CONTINUOUS
10
119.349
20
-91.909
11
121.951
21
-91.909
0
LINE
8
BLACK
6
CONTINUOUS
10
121.951
20
-91.909
11
121.951
21
-93.511
0
LINE
8
BLACK
6
CONTINUOUS
10
129.571
20
-93.511
11
126.969
21
-93.511
0
LINE
8
BLACK
6
CONTINUOUS
10
126.969
20
-93.511
11
126.969
21
-91.909
0
LINE
8
BLACK
6
CONTINUOUS
10
126.969
20
-91.909
11
129.571
21
-91.909
0
LINE
8
BLACK
6
CONTINUOUS
10
129.571
20
-91.909
11
129.571
21
-93.511
0
LINE
8
BLACK
6
CONTINUOUS
10
91.471
20
-93.391
11
88.869
21
-93.391
0
LINE
8
BLACK
6
CONTINUOUS
10
88.869
20
-93.391
11
88.869
21
-91.789
0
LINE
8
BLACK
6
CONTINUOUS
10
88.869
20
-91.789
11
91.471
21
-91.789
0
LINE
8
BLACK
6
CONTINUOUS
10
91.471
20
-91.789
11
91.471
21
-93.391
0
LINE
8
BLACK
6
CONTINUOUS
10
110.521
20
-92.321
11
107.919
21
-92.321
0
LINE
8
BLACK
6
CONTINUOUS
10
107.919
20
-92.321
11
107.919
21
-90.719
0
LINE
8
BLACK
6
CONTINUOUS
10
107.919
20
-90.719
11
110.521
21
-90.719
0
LINE
8
BLACK
6
CONTINUOUS
10
110.521
20
-90.719
11
110.521
21
-92.321
0
LINE
8
BLACK
6
CONTINUOUS
10
121.951
20
-90.971
11
119.349
21
-90.971
0
LINE
8
BLACK
6
CONTINUOUS
10
119.349
20
-90.971
11
119.349
21
-89.369
0
LINE
8
BLACK
6
CONTINUOUS
10
119.349
20
-89.369
11
121.951
21
-89.369
0
LINE
8
BLACK
6
CONTINUOUS
10
121.951
20
-89.369
11
121.951
21
-90.971
0
LINE
8
BLACK
6
CONTINUOUS
10
129.571
20
-90.971
11
126.969
21
-90.971
0
LINE
8
BLACK
6
CONTINUOUS
10
126.969
20
-90.971
11
126.969
21
-89.369
0
LINE
8
BLACK
6
CONTINUOUS
10
126.969
20
-89.369
11
129.571
21
-89.369
0
LINE
8
BLACK
6
CONTINUOUS
10
129.571
20
-89.369
11
129.571
21
-90.971
0
LINE
8
BLACK
6
CONTINUOUS
10
91.471
20
-90.891
11
88.869
21
-90.891
0
LINE
8
BLACK
6
CONTINUOUS
10
88.869
20
-90.891
11
88.869
21
-89.289
0
LINE
8
BLACK
6
CONTINUOUS
10
88.869
20
-89.289
11
91.471
21
-89.289
0
LINE
8
BLACK
6
CONTINUOUS
10
91.471
20
-89.289
11
91.471
21
-90.891
0
LINE
8
BLACK
6
CONTINUOUS
10
139.731
20
-90.851
11
137.129
21
-90.851
0
LINE
8
BLACK
6
CONTINUOUS
10
137.129
20
-90.851
11
137.129
21
-89.249
0
LINE
8
BLACK
6
CONTINUOUS
10
137.129
20
-89.249
11
139.731
21
-89.249
0
LINE
8
BLACK
6
CONTINUOUS
10
139.731
20
-89.249
11
139.731
21
-90.851
0
LINE
8
BLACK
6
CONTINUOUS
10
121.951
20
-88.431
11
119.349
21
-88.431
0
LINE
8
BLACK
6
CONTINUOUS
10
119.349
20
-88.431
11
119.349
21
-86.829
0
LINE
8
BLACK
6
CONTINUOUS
10
119.349
20
-86.829
11
121.951
21
-86.829
0
LINE
8
BLACK
6
CONTINUOUS
10
121.951
20
-86.829
11
121.951
21
-88.431
0
LINE
8
BLACK
6
CONTINUOUS
10
129.571
20
-88.431
11
126.969
21
-88.431
0
LINE
8
BLACK
6
CONTINUOUS
10
126.969
20
-88.431
11
126.969
21
-86.829
0
LINE
8
BLACK
6
CONTINUOUS
10
126.969
20
-86.829
11
129.571
21
-86.829
0
LINE
8
BLACK
6
CONTINUOUS
10
129.571
20
-86.829
11
129.571
21
-88.431
0
LINE
8
BLACK
6
CONTINUOUS
10
91.471
20
-88.391
11
88.869
21
-88.391
0
LINE
8
BLACK
6
CONTINUOUS
10
88.869
20
-88.391
11
88.869
21
-86.789
0
LINE
8
BLACK
6
CONTINUOUS
10
88.869
20
-86.789
11
91.471
21
-86.789
0
LINE
8
BLACK
6
CONTINUOUS
10
91.471
20
-86.789
11
91.471
21
-88.391
0
LINE
8
BLACK
6
CONTINUOUS
10
139.731
20
-88.351
11
137.129
21
-88.351
0
LINE
8
BLACK
6
CONTINUOUS
10
137.129
20
-88.351
11
137.129
21
-86.749
0
LINE
8
BLACK
6
CONTINUOUS
10
137.129
20
-86.749
11
139.731
21
-86.749
0
LINE
8
BLACK
6
CONTINUOUS
10
139.731
20
-86.749
11
139.731
21
-88.351
0
LINE
8
BLACK
6
CONTINUOUS
10
114.331
20
-87.161
11
111.729
21
-87.161
0
LINE
8
BLACK
6
CONTINUOUS
10
111.729
20
-87.161
11
111.729
21
-85.559
0
LINE
8
BLACK
6
CONTINUOUS
10
111.729
20
-85.559
11
114.331
21
-85.559
0
LINE
8
BLACK
6
CONTINUOUS
10
114.331
20
-85.559
11
114.331
21
-87.161
0
LINE
8
BLACK
6
CONTINUOUS
10
91.471
20
-85.891
11
88.869
21
-85.891
0
LINE
8
BLACK
6
CONTINUOUS
10
88.869
20
-85.891
11
88.869
21
-84.289
0
LINE
8
BLACK
6
CONTINUOUS
10
88.869
20
-84.289
11
91.471
21
-84.289
0
LINE
8
BLACK
6
CONTINUOUS
10
91.471
20
-84.289
11
91.471
21
-85.891
0
LINE
8
BLACK
6
CONTINUOUS
10
129.571
20
-85.891
11
126.969
21
-85.891
0
LINE
8
BLACK
6
CONTINUOUS
10
126.969
20
-85.891
11
126.969
21
-84.289
0
LINE
8
BLACK
6
CONTINUOUS
10
126.969
20
-84.289
11
129.571
21
-84.289
0
LINE
8
BLACK
6
CONTINUOUS
10
129.571
20
-84.289
11
129.571
21
-85.891
0
LINE
8
BLACK
6
CONTINUOUS
10
121.951
20
-85.891
11
119.349
21
-85.891
0
LINE
8
BLACK
6
CONTINUOUS
10
119.349
20
-85.891
11
119.349
21
-84.289
0
LINE
8
BLACK
6
CONTINUOUS
10
119.349
20
-84.289
11
121.951
21
-84.289
0
LINE
8
BLACK
6
CONTINUOUS
10
121.951
20
-84.289
11
121.951
21
-85.891
0
LINE
8
BLACK
6
CONTINUOUS
10
139.731
20
-85.851
11
137.129
21
-85.851
0
LINE
8
BLACK
6
CONTINUOUS
10
137.129
20
-85.851
11
137.129
21
-84.249
0
LINE
8
BLACK
6
CONTINUOUS
10
137.129
20
-84.249
11
139.731
21
-84.249
0
LINE
8
BLACK
6
CONTINUOUS
10
139.731
20
-84.249
11
139.731
21
-85.851
0
LINE
8
BLACK
6
CONTINUOUS
10
91.471
20
-83.391
11
88.869
21
-83.391
0
LINE
8
BLACK
6
CONTINUOUS
10
88.869
20
-83.391
11
88.869
21
-81.789
0
LINE
8
BLACK
6
CONTINUOUS
10
88.869
20
-81.789
11
91.471
21
-81.789
0
LINE
8
BLACK
6
CONTINUOUS
10
91.471
20
-81.789
11
91.471
21
-83.391
0
LINE
8
BLACK
6
CONTINUOUS
10
121.951
20
-83.351
11
119.349
21
-83.351
0
LINE
8
BLACK
6
CONTINUOUS
10
119.349
20
-83.351
11
119.349
21
-81.749
0
LINE
8
BLACK
6
CONTINUOUS
10
119.349
20
-81.749
11
121.951
21
-81.749
0
LINE
8
BLACK
6
CONTINUOUS
10
121.951
20
-81.749
11
121.951
21
-83.351
0
LINE
8
BLACK
6
CONTINUOUS
10
129.571
20
-83.351
11
126.969
21
-83.351
0
LINE
8
BLACK
6
CONTINUOUS
10
126.969
20
-83.351
11
126.969
21
-81.749
0
LINE
8
BLACK
6
CONTINUOUS
10
126.969
20
-81.749
11
129.571
21
-81.749
0
LINE
8
BLACK
6
CONTINUOUS
10
129.571
20
-81.749
11
129.571
21
-83.351
0
LINE
8
BLACK
6
CONTINUOUS
10
139.731
20
-83.351
11
137.129
21
-83.351
0
LINE
8
BLACK
6
CONTINUOUS
10
137.129
20
-83.351
11
137.129
21
-81.749
0
LINE
8
BLACK
6
CONTINUOUS
10
137.129
20
-81.749
11
139.731
21
-81.749
0
LINE
8
BLACK
6
CONTINUOUS
10
139.731
20
-81.749
11
139.731
21
-83.351
0
LINE
8
BLACK
6
CONTINUOUS
10
114.331
20
-82.081
11
111.729
21
-82.081
0
LINE
8
BLACK
6
CONTINUOUS
10
111.729
20
-82.081
11
111.729
21
-80.479
0
LINE
8
BLACK
6
CONTINUOUS
10
111.729
20
-80.479
11
114.331
21
-80.479
0
LINE
8
BLACK
6
CONTINUOUS
10
114.331
20
-80.479
11
114.331
21
-82.081
0
LINE
8
BLACK
6
CONTINUOUS
10
91.471
20
-80.891
11
88.869
21
-80.891
0
LINE
8
BLACK
6
CONTINUOUS
10
88.869
20
-80.891
11
88.869
21
-79.289
0
LINE
8
BLACK
6
CONTINUOUS
10
88.869
20
-79.289
11
91.471
21
-79.289
0
LINE
8
BLACK
6
CONTINUOUS
10
91.471
20
-79.289
11
91.471
21
-80.891
0
LINE
8
BLACK
6
CONTINUOUS
10
139.731
20
-80.851
11
137.129
21
-80.851
0
LINE
8
BLACK
6
CONTINUOUS
10
137.129
20
-80.851
11
137.129
21
-79.249
0
LINE
8
BLACK
6
CONTINUOUS
10
137.129
20
-79.249
11
139.731
21
-79.249
0
LINE
8
BLACK
6
CONTINUOUS
10
139.731
20
-79.249
11
139.731
21
-80.851
0
LINE
8
BLACK
6
CONTINUOUS
10
121.951
20
-80.811
11
119.349
21
-80.811
0
LINE
8
BLACK
6
CONTINUOUS
10
119.349
20
-80.811
11
119.349
21
-79.209
0
LINE
8
BLACK
6
CONTINUOUS
10
119.349
20
-79.209
11
121.951
21
-79.209
0
LINE
8
BLACK
6
CONTINUOUS
10
121.951
20
-79.209
11
121.951
21
-80.811
0
LINE
8
BLACK
6
CONTINUOUS
10
129.571
20
-80.811
11
126.969
21
-80.811
0
LINE
8
BLACK
6
CONTINUOUS
10
126.969
20
-80.811
11
126.969
21
-79.209
0
LINE
8
BLACK
6
CONTINUOUS
10
126.969
20
-79.209
11
129.571
21
-79.209
0
LINE
8
BLACK
6
CONTINUOUS
10
129.571
20
-79.209
11
129.571
21
-80.811
0
LINE
8
BLACK
6
CONTINUOUS
10
139.731
20
-78.351
11
137.129
21
-78.351
0
LINE
8
BLACK
6
CONTINUOUS
10
137.129
20
-78.351
11
137.129
21
-76.749
0
LINE
8
BLACK
6
CONTINUOUS
10
137.129
20
-76.749
11
139.731
21
-76.749
0
LINE
8
BLACK
6
CONTINUOUS
10
139.731
20
-76.749
11
139.731
21
-78.351
0
LINE
8
BLACK
6
CONTINUOUS
10
129.571
20
-78.271
11
126.969
21
-78.271
0
LINE
8
BLACK
6
CONTINUOUS
10
126.969
20
-78.271
11
126.969
21
-76.669
0
LINE
8
BLACK
6
CONTINUOUS
10
126.969
20
-76.669
11
129.571
21
-76.669
0
LINE
8
BLACK
6
CONTINUOUS
10
129.571
20
-76.669
11
129.571
21
-78.271
0
LINE
8
BLACK
6
CONTINUOUS
10
121.951
20
-78.271
11
119.349
21
-78.271
0
LINE
8
BLACK
6
CONTINUOUS
10
119.349
20
-78.271
11
119.349
21
-76.669
0
LINE
8
BLACK
6
CONTINUOUS
10
119.349
20
-76.669
11
121.951
21
-76.669
0
LINE
8
BLACK
6
CONTINUOUS
10
121.951
20
-76.669
11
121.951
21
-78.271
0
LINE
8
BLACK
6
CONTINUOUS
10
139.731
20
-75.851
11
137.129
21
-75.851
0
LINE
8
BLACK
6
CONTINUOUS
10
137.129
20
-75.851
11
137.129
21
-74.249
0
LINE
8
BLACK
6
CONTINUOUS
10
137.129
20
-74.249
11
139.731
21
-74.249
0
LINE
8
BLACK
6
CONTINUOUS
10
139.731
20
-74.249
11
139.731
21
-75.851
0
LINE
8
BLACK
6
CONTINUOUS
10
139.731
20
-73.351
11
137.129
21
-73.351
0
LINE
8
BLACK
6
CONTINUOUS
10
137.129
20
-73.351
11
137.129
21
-71.749
0
LINE
8
BLACK
6
CONTINUOUS
10
137.129
20
-71.749
11
139.731
21
-71.749
0
LINE
8
BLACK
6
CONTINUOUS
10
139.731
20
-71.749
11
139.731
21
-73.351
0
LINE
8
BLACK
6
CONTINUOUS
10
139.731
20
-70.851
11
137.129
21
-70.851
0
LINE
8
BLACK
6
CONTINUOUS
10
137.129
20
-70.851
11
137.129
21
-69.249
0
LINE
8
BLACK
6
CONTINUOUS
10
137.129
20
-69.249
11
139.731
21
-69.249
0
LINE
8
BLACK
6
CONTINUOUS
10
139.731
20
-69.249
11
139.731
21
-70.851
0
LINE
8
BLACK
6
CONTINUOUS
10
139.731
20
-68.351
11
137.129
21
-68.351
0
LINE
8
BLACK
6
CONTINUOUS
10
137.129
20
-68.351
11
137.129
21
-66.749
0
LINE
8
BLACK
6
CONTINUOUS
10
137.129
20
-66.749
11
139.731
21
-66.749
0
LINE
8
BLACK
6
CONTINUOUS
10
139.731
20
-66.749
11
139.731
21
-68.351
  0
ENDSEC
  0
EOF
