  0
SECTION
  2
HEADER
  9
$ANGBASE
  50
0.0
  9
$ANGDIR
  70
  1
  9
$MEASUREMENT
  70
0
  0
ENDSEC
  0
SECTION
  2
TABLES
  0
TABLE
  2
LTYPE
  70
4
  0
LTYPE
  5
40F
  2
CONTINUOUS
  70
0
  3
Solid line
  72
65
  73
0
  40
0.0
  0
LTYPE
  5
410
  2
DASHDOT
 70
0
  3
Dash Dot ____ _ ____ _
 72
65
 73
4
 40
2.0
 49
1.25
 49
-0.25
 49
0.25
 49
-0.25
  0
LTYPE
  5
411
  2
DASHED
 70
0
  3
Dashed __ __ __ __ __
 72
65
 73
2
 40
0.75
 49
0.5
 49
-0.25
  0
LTYPE
  5
43B
  2
DOTTED
 70
0
  3
Dotted .  .  .  .
 72
65
 73
2
 40
0.2
 49
0.0
 49
-0.2
  0
ENDTAB
  0
TABLE
  2
STYLE
  70
4
  0
STYLE
  2
KICAD
  70
0
  40
0
  41
1
  42
1
  50
0
  71
0
  3
isocp.shx
  0
STYLE
  2
KICADB
  70
0
  40
0
  41
1
  42
1
  50
0
  71
0
  3
isocp.shx
  0
STYLE
  2
KICADI
  70
0
  40
0
  41
1
  42
1
  50
15
  71
0
  3
isocp.shx
  0
STYLE
  2
KICADBI
  70
0
  40
0
  41
1
  42
1
  50
15
  71
0
  3
isocp.shx
  0
ENDTAB
  0
TABLE
  2
LAYER
  70
30
  0
LAYER
  2
BLACK
  70
0
  62
7
  6
CONTINUOUS
  0
LAYER
  2
GRAY1
  70
0
  62
251
  6
CONTINUOUS
  0
LAYER
  2
GRAY2
  70
0
  62
8
  6
CONTINUOUS
  0
LAYER
  2
GRAY3
  70
0
  62
9
  6
CONTINUOUS
  0
LAYER
  2
WHITE
  70
0
  62
7
  6
CONTINUOUS
  0
LAYER
  2
LYELLOW
  70
0
  62
51
  6
CONTINUOUS
  0
LAYER
  2
BLUE1
  70
0
  62
178
  6
CONTINUOUS
  0
LAYER
  2
GREEN1
  70
0
  62
98
  6
CONTINUOUS
  0
LAYER
  2
CYAN1
  70
0
  62
138
  6
CONTINUOUS
  0
LAYER
  2
RED1
  70
0
  62
18
  6
CONTINUOUS
  0
LAYER
  2
MAGENTA1
  70
0
  62
228
  6
CONTINUOUS
  0
LAYER
  2
BROWN1
  70
0
  62
58
  6
CONTINUOUS
  0
LAYER
  2
BLUE2
  70
0
  62
5
  6
CONTINUOUS
  0
LAYER
  2
GREEN2
  70
0
  62
3
  6
CONTINUOUS
  0
LAYER
  2
CYAN2
  70
0
  62
4
  6
CONTINUOUS
  0
LAYER
  2
RED2
  70
0
  62
1
  6
CONTINUOUS
  0
LAYER
  2
MAGENTA2
  70
0
  62
6
  6
CONTINUOUS
  0
LAYER
  2
BROWN2
  70
0
  62
54
  6
CONTINUOUS
  0
LAYER
  2
BLUE3
  70
0
  62
171
  6
CONTINUOUS
  0
LAYER
  2
GREEN3
  70
0
  62
91
  6
CONTINUOUS
  0
LAYER
  2
CYAN3
  70
0
  62
131
  6
CONTINUOUS
  0
LAYER
  2
RED3
  70
0
  62
11
  6
CONTINUOUS
  0
LAYER
  2
MAGENTA3
  70
0
  62
221
  6
CONTINUOUS
  0
LAYER
  2
YELLOW3
  70
0
  62
2
  6
CONTINUOUS
  0
LAYER
  2
BLUE4
  70
0
  62
5
  6
CONTINUOUS
  0
LAYER
  2
GREEN4
  70
0
  62
3
  6
CONTINUOUS
  0
LAYER
  2
CYAN4
  70
0
  62
4
  6
CONTINUOUS
  0
LAYER
  2
RED4
  70
0
  62
1
  6
CONTINUOUS
  0
LAYER
  2
MAGENTA4
  70
0
  62
6
  6
CONTINUOUS
  0
LAYER
  2
YELLOW4
  70
0
  62
2
  6
CONTINUOUS
  0
ENDTAB
  0
ENDSEC
  0
SECTION
  2
ENTITIES
0
LINE
8
BLACK
6
CONTINUOUS
10
143.511
20
-60.935
11
143.515
21
-60.9354
0
LINE
8
BLACK
6
CONTINUOUS
10
143.515
20
-60.9354
11
143.52
21
-60.9368
0
LINE
8
BLACK
6
CONTINUOUS
10
143.52
20
-60.9368
11
143.524
21
-60.9391
0
LINE
8
BLACK
6
CONTINUOUS
10
143.524
20
-60.9391
11
143.528
21
-60.9422
0
LINE
8
BLACK
6
CONTINUOUS
10
143.528
20
-60.9422
11
143.531
21
-60.946
0
LINE
8
BLACK
6
CONTINUOUS
10
143.531
20
-60.946
11
143.533
21
-60.9504
0
LINE
8
BLACK
6
CONTINUOUS
10
143.533
20
-60.9504
11
143.535
21
-60.9551
0
LINE
8
BLACK
6
CONTINUOUS
10
143.535
20
-60.9551
11
143.535
21
-60.96
0
LINE
8
BLACK
6
CONTINUOUS
10
143.535
20
-60.96
11
143.535
21
-60.9612
0
LINE
8
BLACK
6
CONTINUOUS
10
143.535
20
-60.9612
11
143.535
21
-120.649
0
LINE
8
BLACK
6
CONTINUOUS
10
143.535
20
-120.649
11
143.535
21
-120.65
0
LINE
8
BLACK
6
CONTINUOUS
10
143.535
20
-120.65
11
143.535
21
-120.655
0
LINE
8
BLACK
6
CONTINUOUS
10
143.535
20
-120.655
11
143.533
21
-120.66
0
LINE
8
BLACK
6
CONTINUOUS
10
143.533
20
-120.66
11
143.531
21
-120.664
0
LINE
8
BLACK
6
CONTINUOUS
10
143.531
20
-120.664
11
143.528
21
-120.668
0
LINE
8
BLACK
6
CONTINUOUS
10
143.528
20
-120.668
11
143.524
21
-120.671
0
LINE
8
BLACK
6
CONTINUOUS
10
143.524
20
-120.671
11
143.52
21
-120.673
0
LINE
8
BLACK
6
CONTINUOUS
10
143.52
20
-120.673
11
143.515
21
-120.675
0
LINE
8
BLACK
6
CONTINUOUS
10
143.515
20
-120.675
11
143.511
21
-120.675
0
LINE
8
BLACK
6
CONTINUOUS
10
143.511
20
-120.675
11
143.511
21
-120.675
0
LINE
8
BLACK
6
CONTINUOUS
10
143.511
20
-120.675
11
143.51
21
-120.675
0
LINE
8
BLACK
6
CONTINUOUS
10
143.51
20
-120.675
11
143.509
21
-120.675
0
LINE
8
BLACK
6
CONTINUOUS
10
143.509
20
-120.675
11
85.0912
21
-120.675
0
LINE
8
BLACK
6
CONTINUOUS
10
85.0912
20
-120.675
11
85.09
21
-120.675
0
LINE
8
BLACK
6
CONTINUOUS
10
85.09
20
-120.675
11
85.0888
21
-120.675
0
LINE
8
BLACK
6
CONTINUOUS
10
85.0888
20
-120.675
11
85.0888
21
-120.675
0
LINE
8
BLACK
6
CONTINUOUS
10
85.0888
20
-120.675
11
85.0851
21
-120.675
0
LINE
8
BLACK
6
CONTINUOUS
10
85.0851
20
-120.675
11
85.0804
21
-120.673
0
LINE
8
BLACK
6
CONTINUOUS
10
85.0804
20
-120.673
11
85.076
21
-120.671
0
LINE
8
BLACK
6
CONTINUOUS
10
85.076
20
-120.671
11
85.0722
21
-120.668
0
LINE
8
BLACK
6
CONTINUOUS
10
85.0722
20
-120.668
11
85.0691
21
-120.664
0
LINE
8
BLACK
6
CONTINUOUS
10
85.0691
20
-120.664
11
85.0668
21
-120.66
0
LINE
8
BLACK
6
CONTINUOUS
10
85.0668
20
-120.66
11
85.0654
21
-120.655
0
LINE
8
BLACK
6
CONTINUOUS
10
85.0654
20
-120.655
11
85.0649
21
-120.65
0
LINE
8
BLACK
6
CONTINUOUS
10
85.0649
20
-120.65
11
85.065
21
-120.649
0
LINE
8
BLACK
6
CONTINUOUS
10
85.065
20
-120.649
11
85.065
21
-64.7688
0
LINE
8
BLACK
6
CONTINUOUS
10
85.065
20
-64.7688
11
85.065
21
-64.7688
0
LINE
8
BLACK
6
CONTINUOUS
10
85.065
20
-64.7688
11
85.065
21
-60.9612
0
LINE
8
BLACK
6
CONTINUOUS
10
85.065
20
-60.9612
11
85.0649
21
-60.96
0
LINE
8
BLACK
6
CONTINUOUS
10
85.0649
20
-60.96
11
85.0654
21
-60.9551
0
LINE
8
BLACK
6
CONTINUOUS
10
85.0654
20
-60.9551
11
85.0668
21
-60.9504
0
LINE
8
BLACK
6
CONTINUOUS
10
85.0668
20
-60.9504
11
85.0691
21
-60.946
0
LINE
8
BLACK
6
CONTINUOUS
10
85.0691
20
-60.946
11
85.0722
21
-60.9422
0
LINE
8
BLACK
6
CONTINUOUS
10
85.0722
20
-60.9422
11
85.076
21
-60.9391
0
LINE
8
BLACK
6
CONTINUOUS
10
85.076
20
-60.9391
11
85.0804
21
-60.9368
0
LINE
8
BLACK
6
CONTINUOUS
10
85.0804
20
-60.9368
11
85.0851
21
-60.9354
0
LINE
8
BLACK
6
CONTINUOUS
10
85.0851
20
-60.9354
11
85.0888
21
-60.935
0
LINE
8
BLACK
6
CONTINUOUS
10
85.0888
20
-60.935
11
85.09
21
-60.9349
0
LINE
8
BLACK
6
CONTINUOUS
10
85.09
20
-60.9349
11
85.0912
21
-60.935
0
LINE
8
BLACK
6
CONTINUOUS
10
85.0912
20
-60.935
11
143.509
21
-60.935
0
LINE
8
BLACK
6
CONTINUOUS
10
143.509
20
-60.935
11
143.51
21
-60.9349
0
LINE
8
BLACK
6
CONTINUOUS
10
143.51
20
-60.9349
11
143.511
21
-60.935
0
LINE
8
BLACK
6
CONTINUOUS
10
143.485
20
-120.625
11
143.485
21
-60.985
0
LINE
8
BLACK
6
CONTINUOUS
10
143.485
20
-60.985
11
85.115
21
-60.985
0
LINE
8
BLACK
6
CONTINUOUS
10
85.115
20
-60.985
11
85.115
21
-120.625
0
LINE
8
BLACK
6
CONTINUOUS
10
85.115
20
-120.625
11
143.485
21
-120.625
  0
ENDSEC
  0
EOF
