G04 #@! TF.GenerationSoftware,KiCad,Pcbnew,(5.1.2)-2*
G04 #@! TF.CreationDate,2019-08-28T16:57:34+07:00*
G04 #@! TF.ProjectId,regulator_clock,72656775-6c61-4746-9f72-5f636c6f636b,rev?*
G04 #@! TF.SameCoordinates,Original*
G04 #@! TF.FileFunction,Legend,Top*
G04 #@! TF.FilePolarity,Positive*
%FSLAX46Y46*%
G04 Gerber Fmt 4.6, Leading zero omitted, Abs format (unit mm)*
G04 Created by KiCad (PCBNEW (5.1.2)-2) date 2019-08-28 16:57:34*
%MOMM*%
%LPD*%
G04 APERTURE LIST*
%ADD10C,0.150000*%
%ADD11C,0.120000*%
G04 APERTURE END LIST*
D10*
X121046857Y-90169904D02*
X121046857Y-88646095D01*
X120142095Y-84470857D02*
X121665904Y-84470857D01*
X120904000Y-85232761D02*
X120904000Y-83708952D01*
X121046857Y-80517904D02*
X121046857Y-78994095D01*
X121665904Y-73517142D02*
X120142095Y-73517142D01*
X120904000Y-72755238D02*
X120904000Y-74279047D01*
X89042857Y-88645904D02*
X89042857Y-87122095D01*
X88214285Y-75820571D02*
X89585714Y-75820571D01*
X88900000Y-76506285D02*
X88900000Y-75134857D01*
D11*
X101808000Y-73084000D02*
X102108000Y-73684000D01*
X102408000Y-73084000D02*
X101808000Y-73084000D01*
X102108000Y-73684000D02*
X102408000Y-73084000D01*
X96788000Y-77684000D02*
X97108000Y-77684000D01*
X96788000Y-81104000D02*
X96788000Y-77684000D01*
X97108000Y-81184000D02*
X96788000Y-81104000D01*
X97428000Y-81104000D02*
X97108000Y-81184000D01*
X97428000Y-77684000D02*
X97428000Y-81104000D01*
X97108000Y-77684000D02*
X97428000Y-77684000D01*
X99288000Y-77684000D02*
X99608000Y-77684000D01*
X99288000Y-81104000D02*
X99288000Y-77684000D01*
X99608000Y-81184000D02*
X99288000Y-81104000D01*
X99928000Y-81104000D02*
X99608000Y-81184000D01*
X99928000Y-77684000D02*
X99928000Y-81104000D01*
X99608000Y-77684000D02*
X99928000Y-77684000D01*
X101788000Y-77684000D02*
X102108000Y-77684000D01*
X101788000Y-81104000D02*
X101788000Y-77684000D01*
X102108000Y-81184000D02*
X101788000Y-81104000D01*
X102428000Y-81104000D02*
X102108000Y-81184000D01*
X102428000Y-77684000D02*
X102428000Y-81104000D01*
X102108000Y-77684000D02*
X102428000Y-77684000D01*
X103258000Y-76684000D02*
X95958000Y-76684000D01*
X103258000Y-77684000D02*
X95958000Y-77684000D01*
X95958000Y-75734000D02*
X94458000Y-75734000D01*
X95958000Y-80534000D02*
X95958000Y-75734000D01*
X94458000Y-80534000D02*
X95958000Y-80534000D01*
X103258000Y-75734000D02*
X104758000Y-75734000D01*
X103258000Y-80534000D02*
X103258000Y-75734000D01*
X104758000Y-80534000D02*
X103258000Y-80534000D01*
X95958000Y-73534000D02*
X95958000Y-75734000D01*
X94458000Y-73534000D02*
X95958000Y-73534000D01*
X94458000Y-82034000D02*
X94458000Y-73534000D01*
X104758000Y-82034000D02*
X94458000Y-82034000D01*
X104758000Y-73534000D02*
X104758000Y-82034000D01*
X103258000Y-73534000D02*
X104758000Y-73534000D01*
X103258000Y-75734000D02*
X103258000Y-73534000D01*
X105156000Y-89916000D02*
X94996000Y-89916000D01*
X105156000Y-91186000D02*
X105156000Y-83566000D01*
X105156000Y-83566000D02*
X94996000Y-83566000D01*
X94996000Y-83566000D02*
X94996000Y-91186000D01*
X94996000Y-91186000D02*
X105156000Y-91186000D01*
X107962000Y-89326000D02*
X109462000Y-89326000D01*
X108712000Y-90076000D02*
X108712000Y-88576000D01*
X108433000Y-79795000D02*
X108991000Y-79795000D01*
X108040000Y-79835000D02*
X109384000Y-79835000D01*
X107799000Y-79875000D02*
X109625000Y-79875000D01*
X107608000Y-79915000D02*
X109816000Y-79915000D01*
X107447000Y-79955000D02*
X109977000Y-79955000D01*
X107305000Y-79995000D02*
X110119000Y-79995000D01*
X107176000Y-80035000D02*
X110248000Y-80035000D01*
X107058000Y-80075000D02*
X110366000Y-80075000D01*
X106949000Y-80115000D02*
X110475000Y-80115000D01*
X106846000Y-80155000D02*
X110578000Y-80155000D01*
X106750000Y-80195000D02*
X110674000Y-80195000D01*
X106659000Y-80235000D02*
X110765000Y-80235000D01*
X106572000Y-80275000D02*
X110852000Y-80275000D01*
X106490000Y-80315000D02*
X110934000Y-80315000D01*
X106411000Y-80355000D02*
X111013000Y-80355000D01*
X106335000Y-80395000D02*
X111089000Y-80395000D01*
X106263000Y-80435000D02*
X111161000Y-80435000D01*
X106193000Y-80475000D02*
X111231000Y-80475000D01*
X106125000Y-80515000D02*
X111299000Y-80515000D01*
X106060000Y-80555000D02*
X111364000Y-80555000D01*
X105997000Y-80595000D02*
X111427000Y-80595000D01*
X105935000Y-80635000D02*
X111489000Y-80635000D01*
X105876000Y-80675000D02*
X111548000Y-80675000D01*
X105818000Y-80715000D02*
X111606000Y-80715000D01*
X105763000Y-80755000D02*
X111661000Y-80755000D01*
X105708000Y-80795000D02*
X111716000Y-80795000D01*
X105655000Y-80835000D02*
X111769000Y-80835000D01*
X105604000Y-80875000D02*
X111820000Y-80875000D01*
X105554000Y-80915000D02*
X111870000Y-80915000D01*
X105505000Y-80955000D02*
X111919000Y-80955000D01*
X105457000Y-80995000D02*
X111967000Y-80995000D01*
X105410000Y-81035000D02*
X112014000Y-81035000D01*
X105365000Y-81075000D02*
X112059000Y-81075000D01*
X105321000Y-81115000D02*
X112103000Y-81115000D01*
X105277000Y-81155000D02*
X112147000Y-81155000D01*
X105235000Y-81195000D02*
X112189000Y-81195000D01*
X109893000Y-81235000D02*
X112230000Y-81235000D01*
X105194000Y-81235000D02*
X107531000Y-81235000D01*
X109893000Y-81275000D02*
X112271000Y-81275000D01*
X105153000Y-81275000D02*
X107531000Y-81275000D01*
X109893000Y-81315000D02*
X112310000Y-81315000D01*
X105114000Y-81315000D02*
X107531000Y-81315000D01*
X109893000Y-81355000D02*
X112349000Y-81355000D01*
X105075000Y-81355000D02*
X107531000Y-81355000D01*
X109893000Y-81395000D02*
X112387000Y-81395000D01*
X105037000Y-81395000D02*
X107531000Y-81395000D01*
X109893000Y-81435000D02*
X112424000Y-81435000D01*
X105000000Y-81435000D02*
X107531000Y-81435000D01*
X109893000Y-81475000D02*
X112460000Y-81475000D01*
X104964000Y-81475000D02*
X107531000Y-81475000D01*
X109893000Y-81515000D02*
X112496000Y-81515000D01*
X104928000Y-81515000D02*
X107531000Y-81515000D01*
X109893000Y-81555000D02*
X112531000Y-81555000D01*
X104893000Y-81555000D02*
X107531000Y-81555000D01*
X109893000Y-81595000D02*
X112565000Y-81595000D01*
X104859000Y-81595000D02*
X107531000Y-81595000D01*
X109893000Y-81635000D02*
X112598000Y-81635000D01*
X104826000Y-81635000D02*
X107531000Y-81635000D01*
X109893000Y-81675000D02*
X112631000Y-81675000D01*
X104793000Y-81675000D02*
X107531000Y-81675000D01*
X109893000Y-81715000D02*
X112663000Y-81715000D01*
X104761000Y-81715000D02*
X107531000Y-81715000D01*
X109893000Y-81755000D02*
X112694000Y-81755000D01*
X104730000Y-81755000D02*
X107531000Y-81755000D01*
X109893000Y-81795000D02*
X112725000Y-81795000D01*
X104699000Y-81795000D02*
X107531000Y-81795000D01*
X109893000Y-81835000D02*
X112755000Y-81835000D01*
X104669000Y-81835000D02*
X107531000Y-81835000D01*
X109893000Y-81875000D02*
X112784000Y-81875000D01*
X104640000Y-81875000D02*
X107531000Y-81875000D01*
X109893000Y-81915000D02*
X112813000Y-81915000D01*
X104611000Y-81915000D02*
X107531000Y-81915000D01*
X109893000Y-81955000D02*
X112842000Y-81955000D01*
X104582000Y-81955000D02*
X107531000Y-81955000D01*
X109893000Y-81995000D02*
X112869000Y-81995000D01*
X104555000Y-81995000D02*
X107531000Y-81995000D01*
X109893000Y-82035000D02*
X112897000Y-82035000D01*
X104527000Y-82035000D02*
X107531000Y-82035000D01*
X109893000Y-82075000D02*
X112923000Y-82075000D01*
X104501000Y-82075000D02*
X107531000Y-82075000D01*
X109893000Y-82115000D02*
X112949000Y-82115000D01*
X104475000Y-82115000D02*
X107531000Y-82115000D01*
X109893000Y-82155000D02*
X112975000Y-82155000D01*
X104449000Y-82155000D02*
X107531000Y-82155000D01*
X109893000Y-82195000D02*
X113000000Y-82195000D01*
X104424000Y-82195000D02*
X107531000Y-82195000D01*
X109893000Y-82235000D02*
X113024000Y-82235000D01*
X104400000Y-82235000D02*
X107531000Y-82235000D01*
X109893000Y-82275000D02*
X113048000Y-82275000D01*
X104376000Y-82275000D02*
X107531000Y-82275000D01*
X109893000Y-82315000D02*
X113072000Y-82315000D01*
X104352000Y-82315000D02*
X107531000Y-82315000D01*
X109893000Y-82355000D02*
X113095000Y-82355000D01*
X104329000Y-82355000D02*
X107531000Y-82355000D01*
X109893000Y-82395000D02*
X113117000Y-82395000D01*
X104307000Y-82395000D02*
X107531000Y-82395000D01*
X109893000Y-82435000D02*
X113140000Y-82435000D01*
X104284000Y-82435000D02*
X107531000Y-82435000D01*
X109893000Y-82475000D02*
X113161000Y-82475000D01*
X104263000Y-82475000D02*
X107531000Y-82475000D01*
X109893000Y-82515000D02*
X113182000Y-82515000D01*
X104242000Y-82515000D02*
X107531000Y-82515000D01*
X109893000Y-82555000D02*
X113203000Y-82555000D01*
X104221000Y-82555000D02*
X107531000Y-82555000D01*
X109893000Y-82595000D02*
X113223000Y-82595000D01*
X104201000Y-82595000D02*
X107531000Y-82595000D01*
X109893000Y-82635000D02*
X113243000Y-82635000D01*
X104181000Y-82635000D02*
X107531000Y-82635000D01*
X109893000Y-82675000D02*
X113262000Y-82675000D01*
X104162000Y-82675000D02*
X107531000Y-82675000D01*
X109893000Y-82715000D02*
X113281000Y-82715000D01*
X104143000Y-82715000D02*
X107531000Y-82715000D01*
X109893000Y-82755000D02*
X113300000Y-82755000D01*
X104124000Y-82755000D02*
X107531000Y-82755000D01*
X109893000Y-82795000D02*
X113318000Y-82795000D01*
X104106000Y-82795000D02*
X107531000Y-82795000D01*
X109893000Y-82835000D02*
X113336000Y-82835000D01*
X104088000Y-82835000D02*
X107531000Y-82835000D01*
X109893000Y-82875000D02*
X113353000Y-82875000D01*
X104071000Y-82875000D02*
X107531000Y-82875000D01*
X109893000Y-82915000D02*
X113370000Y-82915000D01*
X104054000Y-82915000D02*
X107531000Y-82915000D01*
X109893000Y-82955000D02*
X113386000Y-82955000D01*
X104038000Y-82955000D02*
X107531000Y-82955000D01*
X109893000Y-82995000D02*
X113403000Y-82995000D01*
X104021000Y-82995000D02*
X107531000Y-82995000D01*
X109893000Y-83035000D02*
X113418000Y-83035000D01*
X104006000Y-83035000D02*
X107531000Y-83035000D01*
X109893000Y-83075000D02*
X113434000Y-83075000D01*
X103990000Y-83075000D02*
X107531000Y-83075000D01*
X109893000Y-83115000D02*
X113449000Y-83115000D01*
X103975000Y-83115000D02*
X107531000Y-83115000D01*
X109893000Y-83155000D02*
X113463000Y-83155000D01*
X103961000Y-83155000D02*
X107531000Y-83155000D01*
X109893000Y-83195000D02*
X113477000Y-83195000D01*
X103947000Y-83195000D02*
X107531000Y-83195000D01*
X109893000Y-83235000D02*
X113491000Y-83235000D01*
X103933000Y-83235000D02*
X107531000Y-83235000D01*
X109893000Y-83275000D02*
X113504000Y-83275000D01*
X103920000Y-83275000D02*
X107531000Y-83275000D01*
X109893000Y-83315000D02*
X113518000Y-83315000D01*
X103906000Y-83315000D02*
X107531000Y-83315000D01*
X109893000Y-83355000D02*
X113530000Y-83355000D01*
X103894000Y-83355000D02*
X107531000Y-83355000D01*
X109893000Y-83395000D02*
X113543000Y-83395000D01*
X103881000Y-83395000D02*
X107531000Y-83395000D01*
X109893000Y-83435000D02*
X113555000Y-83435000D01*
X103869000Y-83435000D02*
X107531000Y-83435000D01*
X109893000Y-83475000D02*
X113566000Y-83475000D01*
X103858000Y-83475000D02*
X107531000Y-83475000D01*
X109893000Y-83515000D02*
X113577000Y-83515000D01*
X103847000Y-83515000D02*
X107531000Y-83515000D01*
X109893000Y-83555000D02*
X113588000Y-83555000D01*
X103836000Y-83555000D02*
X107531000Y-83555000D01*
X103825000Y-83595000D02*
X113599000Y-83595000D01*
X103815000Y-83635000D02*
X113609000Y-83635000D01*
X103805000Y-83675000D02*
X113619000Y-83675000D01*
X103795000Y-83715000D02*
X113629000Y-83715000D01*
X103786000Y-83755000D02*
X113638000Y-83755000D01*
X103777000Y-83795000D02*
X113647000Y-83795000D01*
X103769000Y-83835000D02*
X113655000Y-83835000D01*
X103761000Y-83875000D02*
X113663000Y-83875000D01*
X103753000Y-83915000D02*
X113671000Y-83915000D01*
X103745000Y-83955000D02*
X113679000Y-83955000D01*
X103738000Y-83995000D02*
X113686000Y-83995000D01*
X103731000Y-84035000D02*
X113693000Y-84035000D01*
X103725000Y-84075000D02*
X113699000Y-84075000D01*
X103719000Y-84115000D02*
X113705000Y-84115000D01*
X103713000Y-84155000D02*
X113711000Y-84155000D01*
X103707000Y-84196000D02*
X113717000Y-84196000D01*
X103702000Y-84236000D02*
X113722000Y-84236000D01*
X103697000Y-84276000D02*
X113727000Y-84276000D01*
X103692000Y-84316000D02*
X113732000Y-84316000D01*
X103688000Y-84356000D02*
X113736000Y-84356000D01*
X103684000Y-84396000D02*
X113740000Y-84396000D01*
X103681000Y-84436000D02*
X113743000Y-84436000D01*
X103677000Y-84476000D02*
X113747000Y-84476000D01*
X103674000Y-84516000D02*
X113750000Y-84516000D01*
X103672000Y-84556000D02*
X113752000Y-84556000D01*
X103669000Y-84596000D02*
X113755000Y-84596000D01*
X103667000Y-84636000D02*
X113757000Y-84636000D01*
X103665000Y-84676000D02*
X113759000Y-84676000D01*
X103664000Y-84716000D02*
X113760000Y-84716000D01*
X103663000Y-84756000D02*
X113761000Y-84756000D01*
X103662000Y-84796000D02*
X113762000Y-84796000D01*
X103662000Y-84836000D02*
X113762000Y-84836000D01*
X103662000Y-84876000D02*
X113762000Y-84876000D01*
X110095264Y-79977563D02*
G75*
G03X107332000Y-79976643I-1383264J-4898437D01*
G01*
X110095264Y-79977563D02*
G75*
G02X110092000Y-89775357I-1383264J-4898437D01*
G01*
X107328736Y-79977563D02*
G75*
G03X107332000Y-89775357I1383264J-4898437D01*
G01*
X92710000Y-86868000D02*
X92710000Y-76708000D01*
X85090000Y-86868000D02*
X92710000Y-86868000D01*
X85090000Y-76708000D02*
X85090000Y-86868000D01*
X92710000Y-76708000D02*
X85090000Y-76708000D01*
X91440000Y-76708000D02*
X91440000Y-86868000D01*
X112014000Y-71628000D02*
X112014000Y-81788000D01*
X119634000Y-71628000D02*
X112014000Y-71628000D01*
X119634000Y-81788000D02*
X119634000Y-71628000D01*
X112014000Y-81788000D02*
X119634000Y-81788000D01*
X113284000Y-81788000D02*
X113284000Y-71628000D01*
X113284000Y-91948000D02*
X113284000Y-81788000D01*
X112014000Y-91948000D02*
X119634000Y-91948000D01*
X119634000Y-91948000D02*
X119634000Y-81788000D01*
X119634000Y-81788000D02*
X112014000Y-81788000D01*
X112014000Y-81788000D02*
X112014000Y-91948000D01*
X108048000Y-78232000D02*
X108728000Y-78232000D01*
X108048000Y-78232000D02*
G75*
G03X108048000Y-78232000I-860000J0D01*
G01*
X101401000Y-78452000D02*
X101846000Y-78452000D01*
X98226000Y-78452000D02*
X98671000Y-78452000D01*
X98901000Y-83373000D02*
X101171000Y-83373000D01*
X101846000Y-81989000D02*
X101846000Y-78452000D01*
X98226000Y-81989000D02*
X98226000Y-78452000D01*
X98901000Y-83373000D02*
X101171000Y-83373000D01*
X94825000Y-83373000D02*
X96171000Y-83373000D01*
X103901000Y-83373000D02*
X105246000Y-83373000D01*
X101401000Y-78452000D02*
X105246000Y-78452000D01*
X94825000Y-78452000D02*
X98671000Y-78452000D01*
X105246000Y-83373000D02*
X105246000Y-78452000D01*
X94825000Y-83373000D02*
X94825000Y-78452000D01*
D10*
X98846095Y-71636380D02*
X98846095Y-72445904D01*
X98893714Y-72541142D01*
X98941333Y-72588761D01*
X99036571Y-72636380D01*
X99227047Y-72636380D01*
X99322285Y-72588761D01*
X99369904Y-72541142D01*
X99417523Y-72445904D01*
X99417523Y-71636380D01*
X100417523Y-72636380D02*
X99846095Y-72636380D01*
X100131809Y-72636380D02*
X100131809Y-71636380D01*
X100036571Y-71779238D01*
X99941333Y-71874476D01*
X99846095Y-71922095D01*
X99909333Y-82653142D02*
X99861714Y-82700761D01*
X99718857Y-82748380D01*
X99623619Y-82748380D01*
X99480761Y-82700761D01*
X99385523Y-82605523D01*
X99337904Y-82510285D01*
X99290285Y-82319809D01*
X99290285Y-82176952D01*
X99337904Y-81986476D01*
X99385523Y-81891238D01*
X99480761Y-81796000D01*
X99623619Y-81748380D01*
X99718857Y-81748380D01*
X99861714Y-81796000D01*
X99909333Y-81843619D01*
X100861714Y-82748380D02*
X100290285Y-82748380D01*
X100576000Y-82748380D02*
X100576000Y-81748380D01*
X100480761Y-81891238D01*
X100385523Y-81986476D01*
X100290285Y-82034095D01*
X102759142Y-85042666D02*
X102806761Y-85090285D01*
X102854380Y-85233142D01*
X102854380Y-85328380D01*
X102806761Y-85471238D01*
X102711523Y-85566476D01*
X102616285Y-85614095D01*
X102425809Y-85661714D01*
X102282952Y-85661714D01*
X102092476Y-85614095D01*
X101997238Y-85566476D01*
X101902000Y-85471238D01*
X101854380Y-85328380D01*
X101854380Y-85233142D01*
X101902000Y-85090285D01*
X101949619Y-85042666D01*
X101949619Y-84661714D02*
X101902000Y-84614095D01*
X101854380Y-84518857D01*
X101854380Y-84280761D01*
X101902000Y-84185523D01*
X101949619Y-84137904D01*
X102044857Y-84090285D01*
X102140095Y-84090285D01*
X102282952Y-84137904D01*
X102854380Y-84709333D01*
X102854380Y-84090285D01*
X91733714Y-83208571D02*
X92733714Y-83208571D01*
X91781333Y-83208571D02*
X91733714Y-83113333D01*
X91733714Y-82922857D01*
X91781333Y-82827619D01*
X91828952Y-82780000D01*
X91924190Y-82732380D01*
X92209904Y-82732380D01*
X92305142Y-82780000D01*
X92352761Y-82827619D01*
X92400380Y-82922857D01*
X92400380Y-83113333D01*
X92352761Y-83208571D01*
X92400380Y-82160952D02*
X92352761Y-82256190D01*
X92305142Y-82303809D01*
X92209904Y-82351428D01*
X91924190Y-82351428D01*
X91828952Y-82303809D01*
X91781333Y-82256190D01*
X91733714Y-82160952D01*
X91733714Y-82018095D01*
X91781333Y-81922857D01*
X91828952Y-81875238D01*
X91924190Y-81827619D01*
X92209904Y-81827619D01*
X92305142Y-81875238D01*
X92352761Y-81922857D01*
X92400380Y-82018095D01*
X92400380Y-82160952D01*
X91733714Y-81494285D02*
X92400380Y-81303809D01*
X91924190Y-81113333D01*
X92400380Y-80922857D01*
X91733714Y-80732380D01*
X92352761Y-79970476D02*
X92400380Y-80065714D01*
X92400380Y-80256190D01*
X92352761Y-80351428D01*
X92257523Y-80399047D01*
X91876571Y-80399047D01*
X91781333Y-80351428D01*
X91733714Y-80256190D01*
X91733714Y-80065714D01*
X91781333Y-79970476D01*
X91876571Y-79922857D01*
X91971809Y-79922857D01*
X92067047Y-80399047D01*
X92400380Y-79494285D02*
X91733714Y-79494285D01*
X91924190Y-79494285D02*
X91828952Y-79446666D01*
X91781333Y-79399047D01*
X91733714Y-79303809D01*
X91733714Y-79208571D01*
X114189142Y-71064380D02*
X114189142Y-70540571D01*
X114141523Y-70445333D01*
X114046285Y-70397714D01*
X113855809Y-70397714D01*
X113760571Y-70445333D01*
X114189142Y-71016761D02*
X114093904Y-71064380D01*
X113855809Y-71064380D01*
X113760571Y-71016761D01*
X113712952Y-70921523D01*
X113712952Y-70826285D01*
X113760571Y-70731047D01*
X113855809Y-70683428D01*
X114093904Y-70683428D01*
X114189142Y-70635809D01*
X114665333Y-71064380D02*
X114665333Y-70397714D01*
X114665333Y-70588190D02*
X114712952Y-70492952D01*
X114760571Y-70445333D01*
X114855809Y-70397714D01*
X114951047Y-70397714D01*
X115712952Y-71064380D02*
X115712952Y-70064380D01*
X115712952Y-71016761D02*
X115617714Y-71064380D01*
X115427238Y-71064380D01*
X115332000Y-71016761D01*
X115284380Y-70969142D01*
X115236761Y-70873904D01*
X115236761Y-70588190D01*
X115284380Y-70492952D01*
X115332000Y-70445333D01*
X115427238Y-70397714D01*
X115617714Y-70397714D01*
X115712952Y-70445333D01*
X116617714Y-70397714D02*
X116617714Y-71064380D01*
X116189142Y-70397714D02*
X116189142Y-70921523D01*
X116236761Y-71016761D01*
X116332000Y-71064380D01*
X116474857Y-71064380D01*
X116570095Y-71016761D01*
X116617714Y-70969142D01*
X117093904Y-71064380D02*
X117093904Y-70397714D01*
X117093904Y-70064380D02*
X117046285Y-70112000D01*
X117093904Y-70159619D01*
X117141523Y-70112000D01*
X117093904Y-70064380D01*
X117093904Y-70159619D01*
X117570095Y-70397714D02*
X117570095Y-71064380D01*
X117570095Y-70492952D02*
X117617714Y-70445333D01*
X117712952Y-70397714D01*
X117855809Y-70397714D01*
X117951047Y-70445333D01*
X117998666Y-70540571D01*
X117998666Y-71064380D01*
X118617714Y-71064380D02*
X118522476Y-71016761D01*
X118474857Y-70969142D01*
X118427238Y-70873904D01*
X118427238Y-70588190D01*
X118474857Y-70492952D01*
X118522476Y-70445333D01*
X118617714Y-70397714D01*
X118760571Y-70397714D01*
X118855809Y-70445333D01*
X118903428Y-70492952D01*
X118951047Y-70588190D01*
X118951047Y-70873904D01*
X118903428Y-70969142D01*
X118855809Y-71016761D01*
X118760571Y-71064380D01*
X118617714Y-71064380D01*
X111863619Y-92924380D02*
X112530285Y-92924380D01*
X112101714Y-93924380D01*
X112863619Y-93876761D02*
X112958857Y-93924380D01*
X113149333Y-93924380D01*
X113244571Y-93876761D01*
X113292190Y-93781523D01*
X113292190Y-93733904D01*
X113244571Y-93638666D01*
X113149333Y-93591047D01*
X113006476Y-93591047D01*
X112911238Y-93543428D01*
X112863619Y-93448190D01*
X112863619Y-93400571D01*
X112911238Y-93305333D01*
X113006476Y-93257714D01*
X113149333Y-93257714D01*
X113244571Y-93305333D01*
X114101714Y-93876761D02*
X114006476Y-93924380D01*
X113816000Y-93924380D01*
X113720761Y-93876761D01*
X113673142Y-93781523D01*
X113673142Y-93400571D01*
X113720761Y-93305333D01*
X113816000Y-93257714D01*
X114006476Y-93257714D01*
X114101714Y-93305333D01*
X114149333Y-93400571D01*
X114149333Y-93495809D01*
X113673142Y-93591047D01*
X115006476Y-93257714D02*
X115006476Y-94067238D01*
X114958857Y-94162476D01*
X114911238Y-94210095D01*
X114816000Y-94257714D01*
X114673142Y-94257714D01*
X114577904Y-94210095D01*
X115006476Y-93876761D02*
X114911238Y-93924380D01*
X114720761Y-93924380D01*
X114625523Y-93876761D01*
X114577904Y-93829142D01*
X114530285Y-93733904D01*
X114530285Y-93448190D01*
X114577904Y-93352952D01*
X114625523Y-93305333D01*
X114720761Y-93257714D01*
X114911238Y-93257714D01*
X115006476Y-93305333D01*
X115482666Y-93924380D02*
X115482666Y-93257714D01*
X115482666Y-93352952D02*
X115530285Y-93305333D01*
X115625523Y-93257714D01*
X115768380Y-93257714D01*
X115863619Y-93305333D01*
X115911238Y-93400571D01*
X115911238Y-93924380D01*
X115911238Y-93400571D02*
X115958857Y-93305333D01*
X116054095Y-93257714D01*
X116196952Y-93257714D01*
X116292190Y-93305333D01*
X116339809Y-93400571D01*
X116339809Y-93924380D01*
X117196952Y-93876761D02*
X117101714Y-93924380D01*
X116911238Y-93924380D01*
X116816000Y-93876761D01*
X116768380Y-93781523D01*
X116768380Y-93400571D01*
X116816000Y-93305333D01*
X116911238Y-93257714D01*
X117101714Y-93257714D01*
X117196952Y-93305333D01*
X117244571Y-93400571D01*
X117244571Y-93495809D01*
X116768380Y-93591047D01*
X117673142Y-93257714D02*
X117673142Y-93924380D01*
X117673142Y-93352952D02*
X117720761Y-93305333D01*
X117816000Y-93257714D01*
X117958857Y-93257714D01*
X118054095Y-93305333D01*
X118101714Y-93400571D01*
X118101714Y-93924380D01*
X118435047Y-93257714D02*
X118816000Y-93257714D01*
X118577904Y-92924380D02*
X118577904Y-93781523D01*
X118625523Y-93876761D01*
X118720761Y-93924380D01*
X118816000Y-93924380D01*
X108291333Y-76824380D02*
X107958000Y-76348190D01*
X107719904Y-76824380D02*
X107719904Y-75824380D01*
X108100857Y-75824380D01*
X108196095Y-75872000D01*
X108243714Y-75919619D01*
X108291333Y-76014857D01*
X108291333Y-76157714D01*
X108243714Y-76252952D01*
X108196095Y-76300571D01*
X108100857Y-76348190D01*
X107719904Y-76348190D01*
X109243714Y-76824380D02*
X108672285Y-76824380D01*
X108958000Y-76824380D02*
X108958000Y-75824380D01*
X108862761Y-75967238D01*
X108767523Y-76062476D01*
X108672285Y-76110095D01*
X94088380Y-83907238D02*
X93612190Y-84240571D01*
X94088380Y-84478666D02*
X93088380Y-84478666D01*
X93088380Y-84097714D01*
X93136000Y-84002476D01*
X93183619Y-83954857D01*
X93278857Y-83907238D01*
X93421714Y-83907238D01*
X93516952Y-83954857D01*
X93564571Y-84002476D01*
X93612190Y-84097714D01*
X93612190Y-84478666D01*
X93088380Y-83621523D02*
X94088380Y-83288190D01*
X93088380Y-82954857D01*
X94088380Y-82097714D02*
X94088380Y-82669142D01*
X94088380Y-82383428D02*
X93088380Y-82383428D01*
X93231238Y-82478666D01*
X93326476Y-82573904D01*
X93374095Y-82669142D01*
M02*
