  0
SECTION
  2
HEADER
  9
$ANGBASE
  50
0.0
  9
$ANGDIR
  70
  1
  9
$MEASUREMENT
  70
0
  0
ENDSEC
  0
SECTION
  2
TABLES
  0
TABLE
  2
LTYPE
  70
4
  0
LTYPE
  5
40F
  2
CONTINUOUS
  70
0
  3
Solid line
  72
65
  73
0
  40
0.0
  0
LTYPE
  5
410
  2
DASHDOT
 70
0
  3
Dash Dot ____ _ ____ _
 72
65
 73
4
 40
2.0
 49
1.25
 49
-0.25
 49
0.25
 49
-0.25
  0
LTYPE
  5
411
  2
DASHED
 70
0
  3
Dashed __ __ __ __ __
 72
65
 73
2
 40
0.75
 49
0.5
 49
-0.25
  0
LTYPE
  5
43B
  2
DOTTED
 70
0
  3
Dotted .  .  .  .
 72
65
 73
2
 40
0.2
 49
0.0
 49
-0.2
  0
ENDTAB
  0
TABLE
  2
STYLE
  70
4
  0
STYLE
  2
KICAD
  70
0
  40
0
  41
1
  42
1
  50
0
  71
0
  3
isocp.shx
  0
STYLE
  2
KICADB
  70
0
  40
0
  41
1
  42
1
  50
0
  71
0
  3
isocp.shx
  0
STYLE
  2
KICADI
  70
0
  40
0
  41
1
  42
1
  50
15
  71
0
  3
isocp.shx
  0
STYLE
  2
KICADBI
  70
0
  40
0
  41
1
  42
1
  50
15
  71
0
  3
isocp.shx
  0
ENDTAB
  0
TABLE
  2
LAYER
  70
30
  0
LAYER
  2
BLACK
  70
0
  62
7
  6
CONTINUOUS
  0
LAYER
  2
GRAY1
  70
0
  62
251
  6
CONTINUOUS
  0
LAYER
  2
GRAY2
  70
0
  62
8
  6
CONTINUOUS
  0
LAYER
  2
GRAY3
  70
0
  62
9
  6
CONTINUOUS
  0
LAYER
  2
WHITE
  70
0
  62
7
  6
CONTINUOUS
  0
LAYER
  2
LYELLOW
  70
0
  62
51
  6
CONTINUOUS
  0
LAYER
  2
BLUE1
  70
0
  62
178
  6
CONTINUOUS
  0
LAYER
  2
GREEN1
  70
0
  62
98
  6
CONTINUOUS
  0
LAYER
  2
CYAN1
  70
0
  62
138
  6
CONTINUOUS
  0
LAYER
  2
RED1
  70
0
  62
18
  6
CONTINUOUS
  0
LAYER
  2
MAGENTA1
  70
0
  62
228
  6
CONTINUOUS
  0
LAYER
  2
BROWN1
  70
0
  62
58
  6
CONTINUOUS
  0
LAYER
  2
BLUE2
  70
0
  62
5
  6
CONTINUOUS
  0
LAYER
  2
GREEN2
  70
0
  62
3
  6
CONTINUOUS
  0
LAYER
  2
CYAN2
  70
0
  62
4
  6
CONTINUOUS
  0
LAYER
  2
RED2
  70
0
  62
1
  6
CONTINUOUS
  0
LAYER
  2
MAGENTA2
  70
0
  62
6
  6
CONTINUOUS
  0
LAYER
  2
BROWN2
  70
0
  62
54
  6
CONTINUOUS
  0
LAYER
  2
BLUE3
  70
0
  62
171
  6
CONTINUOUS
  0
LAYER
  2
GREEN3
  70
0
  62
91
  6
CONTINUOUS
  0
LAYER
  2
CYAN3
  70
0
  62
131
  6
CONTINUOUS
  0
LAYER
  2
RED3
  70
0
  62
11
  6
CONTINUOUS
  0
LAYER
  2
MAGENTA3
  70
0
  62
221
  6
CONTINUOUS
  0
LAYER
  2
YELLOW3
  70
0
  62
2
  6
CONTINUOUS
  0
LAYER
  2
BLUE4
  70
0
  62
5
  6
CONTINUOUS
  0
LAYER
  2
GREEN4
  70
0
  62
3
  6
CONTINUOUS
  0
LAYER
  2
CYAN4
  70
0
  62
4
  6
CONTINUOUS
  0
LAYER
  2
RED4
  70
0
  62
1
  6
CONTINUOUS
  0
LAYER
  2
MAGENTA4
  70
0
  62
6
  6
CONTINUOUS
  0
LAYER
  2
YELLOW4
  70
0
  62
2
  6
CONTINUOUS
  0
ENDTAB
  0
ENDSEC
  0
SECTION
  2
ENTITIES
0
LINE
8
BLACK
6
CONTINUOUS
10
116.127
20
-87.8868
11
116.276
21
-87.9166
0
LINE
8
BLACK
6
CONTINUOUS
10
116.276
20
-87.9166
11
116.559
21
-88.0335
0
LINE
8
BLACK
6
CONTINUOUS
10
116.559
20
-88.0335
11
116.813
21
-88.2033
0
LINE
8
BLACK
6
CONTINUOUS
10
116.813
20
-88.2033
11
117.029
21
-88.4193
0
LINE
8
BLACK
6
CONTINUOUS
10
117.029
20
-88.4193
11
117.198
21
-88.6733
0
LINE
8
BLACK
6
CONTINUOUS
10
117.198
20
-88.6733
11
117.315
21
-88.9556
0
LINE
8
BLACK
6
CONTINUOUS
10
117.315
20
-88.9556
11
117.375
21
-89.2552
0
LINE
8
BLACK
6
CONTINUOUS
10
117.375
20
-89.2552
11
117.375
21
-89.5608
0
LINE
8
BLACK
6
CONTINUOUS
10
117.375
20
-89.5608
11
117.315
21
-89.8604
0
LINE
8
BLACK
6
CONTINUOUS
10
117.315
20
-89.8604
11
117.198
21
-90.1427
0
LINE
8
BLACK
6
CONTINUOUS
10
117.198
20
-90.1427
11
117.029
21
-90.3967
0
LINE
8
BLACK
6
CONTINUOUS
10
117.029
20
-90.3967
11
116.813
21
-90.6127
0
LINE
8
BLACK
6
CONTINUOUS
10
116.813
20
-90.6127
11
116.559
21
-90.7825
0
LINE
8
BLACK
6
CONTINUOUS
10
116.559
20
-90.7825
11
116.276
21
-90.8994
0
LINE
8
BLACK
6
CONTINUOUS
10
116.276
20
-90.8994
11
116.127
21
-90.9292
0
LINE
8
BLACK
6
CONTINUOUS
10
116.127
20
-90.9292
11
115.977
21
-90.959
0
LINE
8
BLACK
6
CONTINUOUS
10
115.977
20
-90.959
11
115.671
21
-90.959
0
LINE
8
BLACK
6
CONTINUOUS
10
115.671
20
-90.959
11
115.521
21
-90.9292
0
LINE
8
BLACK
6
CONTINUOUS
10
115.521
20
-90.9292
11
115.372
21
-90.8994
0
LINE
8
BLACK
6
CONTINUOUS
10
115.372
20
-90.8994
11
115.089
21
-90.7825
0
LINE
8
BLACK
6
CONTINUOUS
10
115.089
20
-90.7825
11
114.835
21
-90.6127
0
LINE
8
BLACK
6
CONTINUOUS
10
114.835
20
-90.6127
11
114.619
21
-90.3967
0
LINE
8
BLACK
6
CONTINUOUS
10
114.619
20
-90.3967
11
114.45
21
-90.1427
0
LINE
8
BLACK
6
CONTINUOUS
10
114.45
20
-90.1427
11
114.333
21
-89.8604
0
LINE
8
BLACK
6
CONTINUOUS
10
114.333
20
-89.8604
11
114.273
21
-89.5608
0
LINE
8
BLACK
6
CONTINUOUS
10
114.273
20
-89.5608
11
114.273
21
-89.2552
0
LINE
8
BLACK
6
CONTINUOUS
10
114.273
20
-89.2552
11
114.333
21
-88.9556
0
LINE
8
BLACK
6
CONTINUOUS
10
114.333
20
-88.9556
11
114.45
21
-88.6733
0
LINE
8
BLACK
6
CONTINUOUS
10
114.45
20
-88.6733
11
114.619
21
-88.4193
0
LINE
8
BLACK
6
CONTINUOUS
10
114.619
20
-88.4193
11
114.835
21
-88.2033
0
LINE
8
BLACK
6
CONTINUOUS
10
114.835
20
-88.2033
11
115.089
21
-88.0335
0
LINE
8
BLACK
6
CONTINUOUS
10
115.089
20
-88.0335
11
115.372
21
-87.9166
0
LINE
8
BLACK
6
CONTINUOUS
10
115.372
20
-87.9166
11
115.521
21
-87.8868
0
LINE
8
BLACK
6
CONTINUOUS
10
115.521
20
-87.8868
11
115.671
21
-87.857
0
LINE
8
BLACK
6
CONTINUOUS
10
115.671
20
-87.857
11
115.977
21
-87.857
0
LINE
8
BLACK
6
CONTINUOUS
10
115.977
20
-87.857
11
116.127
21
-87.8868
0
LINE
8
BLACK
6
CONTINUOUS
10
102.919
20
-85.8548
11
103.068
21
-85.8846
0
LINE
8
BLACK
6
CONTINUOUS
10
103.068
20
-85.8846
11
103.351
21
-86.0015
0
LINE
8
BLACK
6
CONTINUOUS
10
103.351
20
-86.0015
11
103.605
21
-86.1713
0
LINE
8
BLACK
6
CONTINUOUS
10
103.605
20
-86.1713
11
103.821
21
-86.3873
0
LINE
8
BLACK
6
CONTINUOUS
10
103.821
20
-86.3873
11
103.99
21
-86.6413
0
LINE
8
BLACK
6
CONTINUOUS
10
103.99
20
-86.6413
11
104.107
21
-86.9236
0
LINE
8
BLACK
6
CONTINUOUS
10
104.107
20
-86.9236
11
104.167
21
-87.2232
0
LINE
8
BLACK
6
CONTINUOUS
10
104.167
20
-87.2232
11
104.167
21
-87.5288
0
LINE
8
BLACK
6
CONTINUOUS
10
104.167
20
-87.5288
11
104.107
21
-87.8284
0
LINE
8
BLACK
6
CONTINUOUS
10
104.107
20
-87.8284
11
103.99
21
-88.1107
0
LINE
8
BLACK
6
CONTINUOUS
10
103.99
20
-88.1107
11
103.821
21
-88.3647
0
LINE
8
BLACK
6
CONTINUOUS
10
103.821
20
-88.3647
11
103.605
21
-88.5807
0
LINE
8
BLACK
6
CONTINUOUS
10
103.605
20
-88.5807
11
103.351
21
-88.7505
0
LINE
8
BLACK
6
CONTINUOUS
10
103.351
20
-88.7505
11
103.068
21
-88.8674
0
LINE
8
BLACK
6
CONTINUOUS
10
103.068
20
-88.8674
11
102.919
21
-88.8972
0
LINE
8
BLACK
6
CONTINUOUS
10
102.919
20
-88.8972
11
102.769
21
-88.927
0
LINE
8
BLACK
6
CONTINUOUS
10
102.769
20
-88.927
11
102.463
21
-88.927
0
LINE
8
BLACK
6
CONTINUOUS
10
102.463
20
-88.927
11
102.313
21
-88.8972
0
LINE
8
BLACK
6
CONTINUOUS
10
102.313
20
-88.8972
11
102.164
21
-88.8674
0
LINE
8
BLACK
6
CONTINUOUS
10
102.164
20
-88.8674
11
101.881
21
-88.7505
0
LINE
8
BLACK
6
CONTINUOUS
10
101.881
20
-88.7505
11
101.627
21
-88.5807
0
LINE
8
BLACK
6
CONTINUOUS
10
101.627
20
-88.5807
11
101.411
21
-88.3647
0
LINE
8
BLACK
6
CONTINUOUS
10
101.411
20
-88.3647
11
101.242
21
-88.1107
0
LINE
8
BLACK
6
CONTINUOUS
10
101.242
20
-88.1107
11
101.125
21
-87.8284
0
LINE
8
BLACK
6
CONTINUOUS
10
101.125
20
-87.8284
11
101.065
21
-87.5288
0
LINE
8
BLACK
6
CONTINUOUS
10
101.065
20
-87.5288
11
101.065
21
-87.2232
0
LINE
8
BLACK
6
CONTINUOUS
10
101.065
20
-87.2232
11
101.125
21
-86.9236
0
LINE
8
BLACK
6
CONTINUOUS
10
101.125
20
-86.9236
11
101.242
21
-86.6413
0
LINE
8
BLACK
6
CONTINUOUS
10
101.242
20
-86.6413
11
101.411
21
-86.3873
0
LINE
8
BLACK
6
CONTINUOUS
10
101.411
20
-86.3873
11
101.627
21
-86.1713
0
LINE
8
BLACK
6
CONTINUOUS
10
101.627
20
-86.1713
11
101.881
21
-86.0015
0
LINE
8
BLACK
6
CONTINUOUS
10
101.881
20
-86.0015
11
102.164
21
-85.8846
0
LINE
8
BLACK
6
CONTINUOUS
10
102.164
20
-85.8846
11
102.313
21
-85.8548
0
LINE
8
BLACK
6
CONTINUOUS
10
102.313
20
-85.8548
11
102.463
21
-85.825
0
LINE
8
BLACK
6
CONTINUOUS
10
102.463
20
-85.825
11
102.769
21
-85.825
0
LINE
8
BLACK
6
CONTINUOUS
10
102.769
20
-85.825
11
102.919
21
-85.8548
0
LINE
8
BLACK
6
CONTINUOUS
10
99.087
20
-88.927
11
95.985
21
-88.927
0
LINE
8
BLACK
6
CONTINUOUS
10
95.985
20
-88.927
11
95.985
21
-85.825
0
LINE
8
BLACK
6
CONTINUOUS
10
95.985
20
-85.825
11
99.087
21
-85.825
0
LINE
8
BLACK
6
CONTINUOUS
10
99.087
20
-85.825
11
99.087
21
-88.927
0
LINE
8
BLACK
6
CONTINUOUS
10
109.763
20
-88.427
11
107.661
21
-88.427
0
LINE
8
BLACK
6
CONTINUOUS
10
107.661
20
-88.427
11
107.661
21
-86.325
0
LINE
8
BLACK
6
CONTINUOUS
10
107.661
20
-86.325
11
109.763
21
-86.325
0
LINE
8
BLACK
6
CONTINUOUS
10
109.763
20
-86.325
11
109.763
21
-88.427
0
LINE
8
BLACK
6
CONTINUOUS
10
117.375
20
-85.879
11
114.273
21
-85.879
0
LINE
8
BLACK
6
CONTINUOUS
10
114.273
20
-85.879
11
114.273
21
-82.777
0
LINE
8
BLACK
6
CONTINUOUS
10
114.273
20
-82.777
11
117.375
21
-82.777
0
LINE
8
BLACK
6
CONTINUOUS
10
117.375
20
-82.777
11
117.375
21
-85.879
0
LINE
8
BLACK
6
CONTINUOUS
10
90.451
20
-85.879
11
87.349
21
-85.879
0
LINE
8
BLACK
6
CONTINUOUS
10
87.349
20
-85.879
11
87.349
21
-82.777
0
LINE
8
BLACK
6
CONTINUOUS
10
87.349
20
-82.777
11
90.451
21
-82.777
0
LINE
8
BLACK
6
CONTINUOUS
10
90.451
20
-82.777
11
90.451
21
-85.879
0
LINE
8
BLACK
6
CONTINUOUS
10
102.774
20
-82.1145
11
102.892
21
-82.1379
0
LINE
8
BLACK
6
CONTINUOUS
10
102.892
20
-82.1379
11
102.984
21
-82.176
0
LINE
8
BLACK
6
CONTINUOUS
10
102.984
20
-82.176
11
103.114
21
-82.23
0
LINE
8
BLACK
6
CONTINUOUS
10
103.114
20
-82.23
11
103.314
21
-82.3636
0
LINE
8
BLACK
6
CONTINUOUS
10
103.314
20
-82.3636
11
103.484
21
-82.5337
0
LINE
8
BLACK
6
CONTINUOUS
10
103.484
20
-82.5337
11
103.618
21
-82.7336
0
LINE
8
BLACK
6
CONTINUOUS
10
103.618
20
-82.7336
11
103.71
21
-82.9558
0
LINE
8
BLACK
6
CONTINUOUS
10
103.71
20
-82.9558
11
103.757
21
-83.1917
0
LINE
8
BLACK
6
CONTINUOUS
10
103.757
20
-83.1917
11
103.757
21
-83.4323
0
LINE
8
BLACK
6
CONTINUOUS
10
103.757
20
-83.4323
11
103.71
21
-83.6682
0
LINE
8
BLACK
6
CONTINUOUS
10
103.71
20
-83.6682
11
103.618
21
-83.8904
0
LINE
8
BLACK
6
CONTINUOUS
10
103.618
20
-83.8904
11
103.484
21
-84.0903
0
LINE
8
BLACK
6
CONTINUOUS
10
103.484
20
-84.0903
11
103.314
21
-84.2604
0
LINE
8
BLACK
6
CONTINUOUS
10
103.314
20
-84.2604
11
103.114
21
-84.394
0
LINE
8
BLACK
6
CONTINUOUS
10
103.114
20
-84.394
11
102.984
21
-84.448
0
LINE
8
BLACK
6
CONTINUOUS
10
102.984
20
-84.448
11
102.892
21
-84.4861
0
LINE
8
BLACK
6
CONTINUOUS
10
102.892
20
-84.4861
11
102.774
21
-84.5095
0
LINE
8
BLACK
6
CONTINUOUS
10
102.774
20
-84.5095
11
102.656
21
-84.533
0
LINE
8
BLACK
6
CONTINUOUS
10
102.656
20
-84.533
11
102.416
21
-84.533
0
LINE
8
BLACK
6
CONTINUOUS
10
102.416
20
-84.533
11
102.298
21
-84.5095
0
LINE
8
BLACK
6
CONTINUOUS
10
102.298
20
-84.5095
11
102.18
21
-84.4861
0
LINE
8
BLACK
6
CONTINUOUS
10
102.18
20
-84.4861
11
102.088
21
-84.448
0
LINE
8
BLACK
6
CONTINUOUS
10
102.088
20
-84.448
11
101.958
21
-84.394
0
LINE
8
BLACK
6
CONTINUOUS
10
101.958
20
-84.394
11
101.758
21
-84.2604
0
LINE
8
BLACK
6
CONTINUOUS
10
101.758
20
-84.2604
11
101.588
21
-84.0903
0
LINE
8
BLACK
6
CONTINUOUS
10
101.588
20
-84.0903
11
101.454
21
-83.8904
0
LINE
8
BLACK
6
CONTINUOUS
10
101.454
20
-83.8904
11
101.362
21
-83.6682
0
LINE
8
BLACK
6
CONTINUOUS
10
101.362
20
-83.6682
11
101.315
21
-83.4323
0
LINE
8
BLACK
6
CONTINUOUS
10
101.315
20
-83.4323
11
101.315
21
-83.1917
0
LINE
8
BLACK
6
CONTINUOUS
10
101.315
20
-83.1917
11
101.362
21
-82.9558
0
LINE
8
BLACK
6
CONTINUOUS
10
101.362
20
-82.9558
11
101.454
21
-82.7336
0
LINE
8
BLACK
6
CONTINUOUS
10
101.454
20
-82.7336
11
101.588
21
-82.5337
0
LINE
8
BLACK
6
CONTINUOUS
10
101.588
20
-82.5337
11
101.758
21
-82.3636
0
LINE
8
BLACK
6
CONTINUOUS
10
101.758
20
-82.3636
11
101.958
21
-82.23
0
LINE
8
BLACK
6
CONTINUOUS
10
101.958
20
-82.23
11
102.088
21
-82.176
0
LINE
8
BLACK
6
CONTINUOUS
10
102.088
20
-82.176
11
102.18
21
-82.1379
0
LINE
8
BLACK
6
CONTINUOUS
10
102.18
20
-82.1379
11
102.298
21
-82.1145
0
LINE
8
BLACK
6
CONTINUOUS
10
102.298
20
-82.1145
11
102.416
21
-82.091
0
LINE
8
BLACK
6
CONTINUOUS
10
102.416
20
-82.091
11
102.656
21
-82.091
0
LINE
8
BLACK
6
CONTINUOUS
10
102.656
20
-82.091
11
102.774
21
-82.1145
0
LINE
8
BLACK
6
CONTINUOUS
10
97.7742
20
-82.1145
11
97.8922
21
-82.1379
0
LINE
8
BLACK
6
CONTINUOUS
10
97.8922
20
-82.1379
11
97.9842
21
-82.176
0
LINE
8
BLACK
6
CONTINUOUS
10
97.9842
20
-82.176
11
98.1144
21
-82.23
0
LINE
8
BLACK
6
CONTINUOUS
10
98.1144
20
-82.23
11
98.3143
21
-82.3636
0
LINE
8
BLACK
6
CONTINUOUS
10
98.3143
20
-82.3636
11
98.4844
21
-82.5337
0
LINE
8
BLACK
6
CONTINUOUS
10
98.4844
20
-82.5337
11
98.618
21
-82.7336
0
LINE
8
BLACK
6
CONTINUOUS
10
98.618
20
-82.7336
11
98.7101
21
-82.9558
0
LINE
8
BLACK
6
CONTINUOUS
10
98.7101
20
-82.9558
11
98.757
21
-83.1917
0
LINE
8
BLACK
6
CONTINUOUS
10
98.757
20
-83.1917
11
98.757
21
-83.4323
0
LINE
8
BLACK
6
CONTINUOUS
10
98.757
20
-83.4323
11
98.7101
21
-83.6682
0
LINE
8
BLACK
6
CONTINUOUS
10
98.7101
20
-83.6682
11
98.618
21
-83.8904
0
LINE
8
BLACK
6
CONTINUOUS
10
98.618
20
-83.8904
11
98.4844
21
-84.0903
0
LINE
8
BLACK
6
CONTINUOUS
10
98.4844
20
-84.0903
11
98.3143
21
-84.2604
0
LINE
8
BLACK
6
CONTINUOUS
10
98.3143
20
-84.2604
11
98.1144
21
-84.394
0
LINE
8
BLACK
6
CONTINUOUS
10
98.1144
20
-84.394
11
97.9842
21
-84.448
0
LINE
8
BLACK
6
CONTINUOUS
10
97.9842
20
-84.448
11
97.8922
21
-84.4861
0
LINE
8
BLACK
6
CONTINUOUS
10
97.8922
20
-84.4861
11
97.7742
21
-84.5095
0
LINE
8
BLACK
6
CONTINUOUS
10
97.7742
20
-84.5095
11
97.6563
21
-84.533
0
LINE
8
BLACK
6
CONTINUOUS
10
97.6563
20
-84.533
11
97.4157
21
-84.533
0
LINE
8
BLACK
6
CONTINUOUS
10
97.4157
20
-84.533
11
97.2978
21
-84.5095
0
LINE
8
BLACK
6
CONTINUOUS
10
97.2978
20
-84.5095
11
97.1798
21
-84.4861
0
LINE
8
BLACK
6
CONTINUOUS
10
97.1798
20
-84.4861
11
97.0878
21
-84.448
0
LINE
8
BLACK
6
CONTINUOUS
10
97.0878
20
-84.448
11
96.9576
21
-84.394
0
LINE
8
BLACK
6
CONTINUOUS
10
96.9576
20
-84.394
11
96.7577
21
-84.2604
0
LINE
8
BLACK
6
CONTINUOUS
10
96.7577
20
-84.2604
11
96.5876
21
-84.0903
0
LINE
8
BLACK
6
CONTINUOUS
10
96.5876
20
-84.0903
11
96.454
21
-83.8904
0
LINE
8
BLACK
6
CONTINUOUS
10
96.454
20
-83.8904
11
96.3619
21
-83.6682
0
LINE
8
BLACK
6
CONTINUOUS
10
96.3619
20
-83.6682
11
96.315
21
-83.4323
0
LINE
8
BLACK
6
CONTINUOUS
10
96.315
20
-83.4323
11
96.315
21
-83.1917
0
LINE
8
BLACK
6
CONTINUOUS
10
96.315
20
-83.1917
11
96.3619
21
-82.9558
0
LINE
8
BLACK
6
CONTINUOUS
10
96.3619
20
-82.9558
11
96.454
21
-82.7336
0
LINE
8
BLACK
6
CONTINUOUS
10
96.454
20
-82.7336
11
96.5876
21
-82.5337
0
LINE
8
BLACK
6
CONTINUOUS
10
96.5876
20
-82.5337
11
96.7577
21
-82.3636
0
LINE
8
BLACK
6
CONTINUOUS
10
96.7577
20
-82.3636
11
96.9576
21
-82.23
0
LINE
8
BLACK
6
CONTINUOUS
10
96.9576
20
-82.23
11
97.0878
21
-82.176
0
LINE
8
BLACK
6
CONTINUOUS
10
97.0878
20
-82.176
11
97.1798
21
-82.1379
0
LINE
8
BLACK
6
CONTINUOUS
10
97.1798
20
-82.1379
11
97.2978
21
-82.1145
0
LINE
8
BLACK
6
CONTINUOUS
10
97.2978
20
-82.1145
11
97.4157
21
-82.091
0
LINE
8
BLACK
6
CONTINUOUS
10
97.4157
20
-82.091
11
97.6563
21
-82.091
0
LINE
8
BLACK
6
CONTINUOUS
10
97.6563
20
-82.091
11
97.7742
21
-82.1145
0
LINE
8
BLACK
6
CONTINUOUS
10
109.019
20
-81.3654
11
109.21
21
-81.4446
0
LINE
8
BLACK
6
CONTINUOUS
10
109.21
20
-81.4446
11
109.21
21
-81.4446
0
LINE
8
BLACK
6
CONTINUOUS
10
109.21
20
-81.4446
11
109.382
21
-81.5596
0
LINE
8
BLACK
6
CONTINUOUS
10
109.382
20
-81.5596
11
109.528
21
-81.706
0
LINE
8
BLACK
6
CONTINUOUS
10
109.528
20
-81.706
11
109.643
21
-81.8782
0
LINE
8
BLACK
6
CONTINUOUS
10
109.643
20
-81.8782
11
109.723
21
-82.0694
0
LINE
8
BLACK
6
CONTINUOUS
10
109.723
20
-82.0694
11
109.763
21
-82.2725
0
LINE
8
BLACK
6
CONTINUOUS
10
109.763
20
-82.2725
11
109.763
21
-82.4795
0
LINE
8
BLACK
6
CONTINUOUS
10
109.763
20
-82.4795
11
109.723
21
-82.6826
0
LINE
8
BLACK
6
CONTINUOUS
10
109.723
20
-82.6826
11
109.701
21
-82.7336
0
LINE
8
BLACK
6
CONTINUOUS
10
109.701
20
-82.7336
11
109.643
21
-82.8738
0
LINE
8
BLACK
6
CONTINUOUS
10
109.643
20
-82.8738
11
109.528
21
-83.046
0
LINE
8
BLACK
6
CONTINUOUS
10
109.528
20
-83.046
11
109.382
21
-83.1924
0
LINE
8
BLACK
6
CONTINUOUS
10
109.382
20
-83.1924
11
109.21
21
-83.3074
0
LINE
8
BLACK
6
CONTINUOUS
10
109.21
20
-83.3074
11
109.21
21
-83.3074
0
LINE
8
BLACK
6
CONTINUOUS
10
109.21
20
-83.3074
11
109.21
21
-83.3074
0
LINE
8
BLACK
6
CONTINUOUS
10
109.21
20
-83.3074
11
109.019
21
-83.3866
0
LINE
8
BLACK
6
CONTINUOUS
10
109.019
20
-83.3866
11
108.816
21
-83.427
0
LINE
8
BLACK
6
CONTINUOUS
10
108.816
20
-83.427
11
108.608
21
-83.427
0
LINE
8
BLACK
6
CONTINUOUS
10
108.608
20
-83.427
11
108.405
21
-83.3866
0
LINE
8
BLACK
6
CONTINUOUS
10
108.405
20
-83.3866
11
108.214
21
-83.3074
0
LINE
8
BLACK
6
CONTINUOUS
10
108.214
20
-83.3074
11
108.214
21
-83.3074
0
LINE
8
BLACK
6
CONTINUOUS
10
108.214
20
-83.3074
11
108.214
21
-83.3074
0
LINE
8
BLACK
6
CONTINUOUS
10
108.214
20
-83.3074
11
108.042
21
-83.1924
0
LINE
8
BLACK
6
CONTINUOUS
10
108.042
20
-83.1924
11
107.896
21
-83.046
0
LINE
8
BLACK
6
CONTINUOUS
10
107.896
20
-83.046
11
107.781
21
-82.8738
0
LINE
8
BLACK
6
CONTINUOUS
10
107.781
20
-82.8738
11
107.723
21
-82.7336
0
LINE
8
BLACK
6
CONTINUOUS
10
107.723
20
-82.7336
11
107.701
21
-82.6826
0
LINE
8
BLACK
6
CONTINUOUS
10
107.701
20
-82.6826
11
107.661
21
-82.4795
0
LINE
8
BLACK
6
CONTINUOUS
10
107.661
20
-82.4795
11
107.661
21
-82.2725
0
LINE
8
BLACK
6
CONTINUOUS
10
107.661
20
-82.2725
11
107.701
21
-82.0694
0
LINE
8
BLACK
6
CONTINUOUS
10
107.701
20
-82.0694
11
107.781
21
-81.8782
0
LINE
8
BLACK
6
CONTINUOUS
10
107.781
20
-81.8782
11
107.896
21
-81.706
0
LINE
8
BLACK
6
CONTINUOUS
10
107.896
20
-81.706
11
108.042
21
-81.5596
0
LINE
8
BLACK
6
CONTINUOUS
10
108.042
20
-81.5596
11
108.214
21
-81.4446
0
LINE
8
BLACK
6
CONTINUOUS
10
108.214
20
-81.4446
11
108.214
21
-81.4446
0
LINE
8
BLACK
6
CONTINUOUS
10
108.214
20
-81.4446
11
108.405
21
-81.3654
0
LINE
8
BLACK
6
CONTINUOUS
10
108.405
20
-81.3654
11
108.608
21
-81.325
0
LINE
8
BLACK
6
CONTINUOUS
10
108.608
20
-81.325
11
108.816
21
-81.325
0
LINE
8
BLACK
6
CONTINUOUS
10
108.816
20
-81.325
11
109.019
21
-81.3654
0
LINE
8
BLACK
6
CONTINUOUS
10
89.2026
20
-77.7268
11
89.3524
21
-77.7566
0
LINE
8
BLACK
6
CONTINUOUS
10
89.3524
20
-77.7566
11
89.6347
21
-77.8735
0
LINE
8
BLACK
6
CONTINUOUS
10
89.6347
20
-77.8735
11
89.8887
21
-78.0433
0
LINE
8
BLACK
6
CONTINUOUS
10
89.8887
20
-78.0433
11
90.1047
21
-78.2593
0
LINE
8
BLACK
6
CONTINUOUS
10
90.1047
20
-78.2593
11
90.2745
21
-78.5133
0
LINE
8
BLACK
6
CONTINUOUS
10
90.2745
20
-78.5133
11
90.3914
21
-78.7956
0
LINE
8
BLACK
6
CONTINUOUS
10
90.3914
20
-78.7956
11
90.451
21
-79.0952
0
LINE
8
BLACK
6
CONTINUOUS
10
90.451
20
-79.0952
11
90.451
21
-79.4008
0
LINE
8
BLACK
6
CONTINUOUS
10
90.451
20
-79.4008
11
90.3914
21
-79.7004
0
LINE
8
BLACK
6
CONTINUOUS
10
90.3914
20
-79.7004
11
90.2745
21
-79.9827
0
LINE
8
BLACK
6
CONTINUOUS
10
90.2745
20
-79.9827
11
90.1047
21
-80.2367
0
LINE
8
BLACK
6
CONTINUOUS
10
90.1047
20
-80.2367
11
89.8887
21
-80.4527
0
LINE
8
BLACK
6
CONTINUOUS
10
89.8887
20
-80.4527
11
89.6347
21
-80.6225
0
LINE
8
BLACK
6
CONTINUOUS
10
89.6347
20
-80.6225
11
89.3524
21
-80.7394
0
LINE
8
BLACK
6
CONTINUOUS
10
89.3524
20
-80.7394
11
89.2026
21
-80.7692
0
LINE
8
BLACK
6
CONTINUOUS
10
89.2026
20
-80.7692
11
89.0528
21
-80.799
0
LINE
8
BLACK
6
CONTINUOUS
10
89.0528
20
-80.799
11
88.7472
21
-80.799
0
LINE
8
BLACK
6
CONTINUOUS
10
88.7472
20
-80.799
11
88.5974
21
-80.7692
0
LINE
8
BLACK
6
CONTINUOUS
10
88.5974
20
-80.7692
11
88.4476
21
-80.7394
0
LINE
8
BLACK
6
CONTINUOUS
10
88.4476
20
-80.7394
11
88.1653
21
-80.6225
0
LINE
8
BLACK
6
CONTINUOUS
10
88.1653
20
-80.6225
11
87.9113
21
-80.4527
0
LINE
8
BLACK
6
CONTINUOUS
10
87.9113
20
-80.4527
11
87.6953
21
-80.2367
0
LINE
8
BLACK
6
CONTINUOUS
10
87.6953
20
-80.2367
11
87.5255
21
-79.9827
0
LINE
8
BLACK
6
CONTINUOUS
10
87.5255
20
-79.9827
11
87.4086
21
-79.7004
0
LINE
8
BLACK
6
CONTINUOUS
10
87.4086
20
-79.7004
11
87.349
21
-79.4008
0
LINE
8
BLACK
6
CONTINUOUS
10
87.349
20
-79.4008
11
87.349
21
-79.0952
0
LINE
8
BLACK
6
CONTINUOUS
10
87.349
20
-79.0952
11
87.4086
21
-78.7956
0
LINE
8
BLACK
6
CONTINUOUS
10
87.4086
20
-78.7956
11
87.5255
21
-78.5133
0
LINE
8
BLACK
6
CONTINUOUS
10
87.5255
20
-78.5133
11
87.6953
21
-78.2593
0
LINE
8
BLACK
6
CONTINUOUS
10
87.6953
20
-78.2593
11
87.9113
21
-78.0433
0
LINE
8
BLACK
6
CONTINUOUS
10
87.9113
20
-78.0433
11
88.1653
21
-77.8735
0
LINE
8
BLACK
6
CONTINUOUS
10
88.1653
20
-77.8735
11
88.4476
21
-77.7566
0
LINE
8
BLACK
6
CONTINUOUS
10
88.4476
20
-77.7566
11
88.5974
21
-77.7268
0
LINE
8
BLACK
6
CONTINUOUS
10
88.5974
20
-77.7268
11
88.7472
21
-77.697
0
LINE
8
BLACK
6
CONTINUOUS
10
88.7472
20
-77.697
11
89.0528
21
-77.697
0
LINE
8
BLACK
6
CONTINUOUS
10
89.0528
20
-77.697
11
89.2026
21
-77.7268
0
LINE
8
BLACK
6
CONTINUOUS
10
116.127
20
-77.7268
11
116.276
21
-77.7566
0
LINE
8
BLACK
6
CONTINUOUS
10
116.276
20
-77.7566
11
116.559
21
-77.8735
0
LINE
8
BLACK
6
CONTINUOUS
10
116.559
20
-77.8735
11
116.813
21
-78.0433
0
LINE
8
BLACK
6
CONTINUOUS
10
116.813
20
-78.0433
11
117.029
21
-78.2593
0
LINE
8
BLACK
6
CONTINUOUS
10
117.029
20
-78.2593
11
117.198
21
-78.5133
0
LINE
8
BLACK
6
CONTINUOUS
10
117.198
20
-78.5133
11
117.315
21
-78.7956
0
LINE
8
BLACK
6
CONTINUOUS
10
117.315
20
-78.7956
11
117.375
21
-79.0952
0
LINE
8
BLACK
6
CONTINUOUS
10
117.375
20
-79.0952
11
117.375
21
-79.4008
0
LINE
8
BLACK
6
CONTINUOUS
10
117.375
20
-79.4008
11
117.315
21
-79.7004
0
LINE
8
BLACK
6
CONTINUOUS
10
117.315
20
-79.7004
11
117.198
21
-79.9827
0
LINE
8
BLACK
6
CONTINUOUS
10
117.198
20
-79.9827
11
117.029
21
-80.2367
0
LINE
8
BLACK
6
CONTINUOUS
10
117.029
20
-80.2367
11
116.813
21
-80.4527
0
LINE
8
BLACK
6
CONTINUOUS
10
116.813
20
-80.4527
11
116.559
21
-80.6225
0
LINE
8
BLACK
6
CONTINUOUS
10
116.559
20
-80.6225
11
116.276
21
-80.7394
0
LINE
8
BLACK
6
CONTINUOUS
10
116.276
20
-80.7394
11
116.127
21
-80.7692
0
LINE
8
BLACK
6
CONTINUOUS
10
116.127
20
-80.7692
11
115.977
21
-80.799
0
LINE
8
BLACK
6
CONTINUOUS
10
115.977
20
-80.799
11
115.671
21
-80.799
0
LINE
8
BLACK
6
CONTINUOUS
10
115.671
20
-80.799
11
115.521
21
-80.7692
0
LINE
8
BLACK
6
CONTINUOUS
10
115.521
20
-80.7692
11
115.372
21
-80.7394
0
LINE
8
BLACK
6
CONTINUOUS
10
115.372
20
-80.7394
11
115.089
21
-80.6225
0
LINE
8
BLACK
6
CONTINUOUS
10
115.089
20
-80.6225
11
114.835
21
-80.4527
0
LINE
8
BLACK
6
CONTINUOUS
10
114.835
20
-80.4527
11
114.619
21
-80.2367
0
LINE
8
BLACK
6
CONTINUOUS
10
114.619
20
-80.2367
11
114.45
21
-79.9827
0
LINE
8
BLACK
6
CONTINUOUS
10
114.45
20
-79.9827
11
114.333
21
-79.7004
0
LINE
8
BLACK
6
CONTINUOUS
10
114.333
20
-79.7004
11
114.273
21
-79.4008
0
LINE
8
BLACK
6
CONTINUOUS
10
114.273
20
-79.4008
11
114.273
21
-79.0952
0
LINE
8
BLACK
6
CONTINUOUS
10
114.273
20
-79.0952
11
114.333
21
-78.7956
0
LINE
8
BLACK
6
CONTINUOUS
10
114.333
20
-78.7956
11
114.45
21
-78.5133
0
LINE
8
BLACK
6
CONTINUOUS
10
114.45
20
-78.5133
11
114.619
21
-78.2593
0
LINE
8
BLACK
6
CONTINUOUS
10
114.619
20
-78.2593
11
114.835
21
-78.0433
0
LINE
8
BLACK
6
CONTINUOUS
10
114.835
20
-78.0433
11
115.089
21
-77.8735
0
LINE
8
BLACK
6
CONTINUOUS
10
115.089
20
-77.8735
11
115.372
21
-77.7566
0
LINE
8
BLACK
6
CONTINUOUS
10
115.372
20
-77.7566
11
115.521
21
-77.7268
0
LINE
8
BLACK
6
CONTINUOUS
10
115.521
20
-77.7268
11
115.671
21
-77.697
0
LINE
8
BLACK
6
CONTINUOUS
10
115.671
20
-77.697
11
115.977
21
-77.697
0
LINE
8
BLACK
6
CONTINUOUS
10
115.977
20
-77.697
11
116.127
21
-77.7268
0
LINE
8
BLACK
6
CONTINUOUS
10
100.392
20
-77.1379
11
100.484
21
-77.176
0
LINE
8
BLACK
6
CONTINUOUS
10
100.484
20
-77.176
11
100.614
21
-77.23
0
LINE
8
BLACK
6
CONTINUOUS
10
100.614
20
-77.23
11
100.814
21
-77.3636
0
LINE
8
BLACK
6
CONTINUOUS
10
100.814
20
-77.3636
11
100.984
21
-77.5337
0
LINE
8
BLACK
6
CONTINUOUS
10
100.984
20
-77.5337
11
101.118
21
-77.7336
0
LINE
8
BLACK
6
CONTINUOUS
10
101.118
20
-77.7336
11
101.151
21
-77.8127
0
LINE
8
BLACK
6
CONTINUOUS
10
101.151
20
-77.8127
11
101.21
21
-77.9558
0
LINE
8
BLACK
6
CONTINUOUS
10
101.21
20
-77.9558
11
101.227
21
-78.0433
0
LINE
8
BLACK
6
CONTINUOUS
10
101.227
20
-78.0433
11
101.257
21
-78.1917
0
LINE
8
BLACK
6
CONTINUOUS
10
101.257
20
-78.1917
11
101.257
21
-78.4323
0
LINE
8
BLACK
6
CONTINUOUS
10
101.257
20
-78.4323
11
101.234
21
-78.5502
0
LINE
8
BLACK
6
CONTINUOUS
10
101.234
20
-78.5502
11
101.21
21
-78.6682
0
LINE
8
BLACK
6
CONTINUOUS
10
101.21
20
-78.6682
11
101.192
21
-78.7107
0
LINE
8
BLACK
6
CONTINUOUS
10
101.192
20
-78.7107
11
101.118
21
-78.8904
0
LINE
8
BLACK
6
CONTINUOUS
10
101.118
20
-78.8904
11
100.984
21
-79.0903
0
LINE
8
BLACK
6
CONTINUOUS
10
100.984
20
-79.0903
11
100.814
21
-79.2604
0
LINE
8
BLACK
6
CONTINUOUS
10
100.814
20
-79.2604
11
100.614
21
-79.394
0
LINE
8
BLACK
6
CONTINUOUS
10
100.614
20
-79.394
11
100.484
21
-79.448
0
LINE
8
BLACK
6
CONTINUOUS
10
100.484
20
-79.448
11
100.392
21
-79.4861
0
LINE
8
BLACK
6
CONTINUOUS
10
100.392
20
-79.4861
11
100.274
21
-79.5095
0
LINE
8
BLACK
6
CONTINUOUS
10
100.274
20
-79.5095
11
100.156
21
-79.533
0
LINE
8
BLACK
6
CONTINUOUS
10
100.156
20
-79.533
11
99.9157
21
-79.533
0
LINE
8
BLACK
6
CONTINUOUS
10
99.9157
20
-79.533
11
99.7978
21
-79.5095
0
LINE
8
BLACK
6
CONTINUOUS
10
99.7978
20
-79.5095
11
99.6798
21
-79.4861
0
LINE
8
BLACK
6
CONTINUOUS
10
99.6798
20
-79.4861
11
99.5878
21
-79.448
0
LINE
8
BLACK
6
CONTINUOUS
10
99.5878
20
-79.448
11
99.4576
21
-79.394
0
LINE
8
BLACK
6
CONTINUOUS
10
99.4576
20
-79.394
11
99.2577
21
-79.2604
0
LINE
8
BLACK
6
CONTINUOUS
10
99.2577
20
-79.2604
11
99.0876
21
-79.0903
0
LINE
8
BLACK
6
CONTINUOUS
10
99.0876
20
-79.0903
11
98.954
21
-78.8904
0
LINE
8
BLACK
6
CONTINUOUS
10
98.954
20
-78.8904
11
98.8796
21
-78.7107
0
LINE
8
BLACK
6
CONTINUOUS
10
98.8796
20
-78.7107
11
98.8619
21
-78.6682
0
LINE
8
BLACK
6
CONTINUOUS
10
98.8619
20
-78.6682
11
98.8385
21
-78.5502
0
LINE
8
BLACK
6
CONTINUOUS
10
98.8385
20
-78.5502
11
98.815
21
-78.4323
0
LINE
8
BLACK
6
CONTINUOUS
10
98.815
20
-78.4323
11
98.815
21
-78.1917
0
LINE
8
BLACK
6
CONTINUOUS
10
98.815
20
-78.1917
11
98.8445
21
-78.0433
0
LINE
8
BLACK
6
CONTINUOUS
10
98.8445
20
-78.0433
11
98.8619
21
-77.9558
0
LINE
8
BLACK
6
CONTINUOUS
10
98.8619
20
-77.9558
11
98.9212
21
-77.8127
0
LINE
8
BLACK
6
CONTINUOUS
10
98.9212
20
-77.8127
11
98.954
21
-77.7336
0
LINE
8
BLACK
6
CONTINUOUS
10
98.954
20
-77.7336
11
99.0876
21
-77.5337
0
LINE
8
BLACK
6
CONTINUOUS
10
99.0876
20
-77.5337
11
99.2577
21
-77.3636
0
LINE
8
BLACK
6
CONTINUOUS
10
99.2577
20
-77.3636
11
99.4576
21
-77.23
0
LINE
8
BLACK
6
CONTINUOUS
10
99.4576
20
-77.23
11
99.5878
21
-77.176
0
LINE
8
BLACK
6
CONTINUOUS
10
99.5878
20
-77.176
11
99.6798
21
-77.1379
0
LINE
8
BLACK
6
CONTINUOUS
10
99.6798
20
-77.1379
11
99.9157
21
-77.091
0
LINE
8
BLACK
6
CONTINUOUS
10
99.9157
20
-77.091
11
100.156
21
-77.091
0
LINE
8
BLACK
6
CONTINUOUS
10
100.156
20
-77.091
11
100.392
21
-77.1379
0
LINE
8
BLACK
6
CONTINUOUS
10
109.802
20
-77.4846
11
109.875
21
-77.4919
0
LINE
8
BLACK
6
CONTINUOUS
10
109.875
20
-77.4919
11
110.017
21
-77.5348
0
LINE
8
BLACK
6
CONTINUOUS
10
110.017
20
-77.5348
11
110.147
21
-77.6045
0
LINE
8
BLACK
6
CONTINUOUS
10
110.147
20
-77.6045
11
110.177
21
-77.629
0
LINE
8
BLACK
6
CONTINUOUS
10
110.177
20
-77.629
11
110.262
21
-77.6984
0
LINE
8
BLACK
6
CONTINUOUS
10
110.262
20
-77.6984
11
110.309
21
-77.7566
0
LINE
8
BLACK
6
CONTINUOUS
10
110.309
20
-77.7566
11
110.355
21
-77.8127
0
LINE
8
BLACK
6
CONTINUOUS
10
110.355
20
-77.8127
11
110.425
21
-77.9432
0
LINE
8
BLACK
6
CONTINUOUS
10
110.425
20
-77.9432
11
110.468
21
-78.0848
0
LINE
8
BLACK
6
CONTINUOUS
10
110.468
20
-78.0848
11
110.483
21
-78.232
0
LINE
8
BLACK
6
CONTINUOUS
10
110.483
20
-78.232
11
110.468
21
-78.3792
0
LINE
8
BLACK
6
CONTINUOUS
10
110.468
20
-78.3792
11
110.425
21
-78.5208
0
LINE
8
BLACK
6
CONTINUOUS
10
110.425
20
-78.5208
11
110.355
21
-78.6513
0
LINE
8
BLACK
6
CONTINUOUS
10
110.355
20
-78.6513
11
110.331
21
-78.681
0
LINE
8
BLACK
6
CONTINUOUS
10
110.331
20
-78.681
11
110.262
21
-78.7656
0
LINE
8
BLACK
6
CONTINUOUS
10
110.262
20
-78.7656
11
110.201
21
-78.8153
0
LINE
8
BLACK
6
CONTINUOUS
10
110.201
20
-78.8153
11
110.147
21
-78.8595
0
LINE
8
BLACK
6
CONTINUOUS
10
110.147
20
-78.8595
11
110.017
21
-78.9292
0
LINE
8
BLACK
6
CONTINUOUS
10
110.017
20
-78.9292
11
109.875
21
-78.9721
0
LINE
8
BLACK
6
CONTINUOUS
10
109.875
20
-78.9721
11
109.802
21
-78.9794
0
LINE
8
BLACK
6
CONTINUOUS
10
109.802
20
-78.9794
11
109.765
21
-78.983
0
LINE
8
BLACK
6
CONTINUOUS
10
109.765
20
-78.983
11
109.691
21
-78.983
0
LINE
8
BLACK
6
CONTINUOUS
10
109.691
20
-78.983
11
109.654
21
-78.9794
0
LINE
8
BLACK
6
CONTINUOUS
10
109.654
20
-78.9794
11
109.581
21
-78.9721
0
LINE
8
BLACK
6
CONTINUOUS
10
109.581
20
-78.9721
11
109.439
21
-78.9292
0
LINE
8
BLACK
6
CONTINUOUS
10
109.439
20
-78.9292
11
109.309
21
-78.8595
0
LINE
8
BLACK
6
CONTINUOUS
10
109.309
20
-78.8595
11
109.255
21
-78.8153
0
LINE
8
BLACK
6
CONTINUOUS
10
109.255
20
-78.8153
11
109.194
21
-78.7656
0
LINE
8
BLACK
6
CONTINUOUS
10
109.194
20
-78.7656
11
109.125
21
-78.681
0
LINE
8
BLACK
6
CONTINUOUS
10
109.125
20
-78.681
11
109.101
21
-78.6513
0
LINE
8
BLACK
6
CONTINUOUS
10
109.101
20
-78.6513
11
109.031
21
-78.5208
0
LINE
8
BLACK
6
CONTINUOUS
10
109.031
20
-78.5208
11
108.988
21
-78.3792
0
LINE
8
BLACK
6
CONTINUOUS
10
108.988
20
-78.3792
11
108.973
21
-78.232
0
LINE
8
BLACK
6
CONTINUOUS
10
108.973
20
-78.232
11
108.988
21
-78.0848
0
LINE
8
BLACK
6
CONTINUOUS
10
108.988
20
-78.0848
11
109.031
21
-77.9432
0
LINE
8
BLACK
6
CONTINUOUS
10
109.031
20
-77.9432
11
109.101
21
-77.8127
0
LINE
8
BLACK
6
CONTINUOUS
10
109.101
20
-77.8127
11
109.147
21
-77.7566
0
LINE
8
BLACK
6
CONTINUOUS
10
109.147
20
-77.7566
11
109.194
21
-77.6984
0
LINE
8
BLACK
6
CONTINUOUS
10
109.194
20
-77.6984
11
109.279
21
-77.629
0
LINE
8
BLACK
6
CONTINUOUS
10
109.279
20
-77.629
11
109.309
21
-77.6045
0
LINE
8
BLACK
6
CONTINUOUS
10
109.309
20
-77.6045
11
109.439
21
-77.5348
0
LINE
8
BLACK
6
CONTINUOUS
10
109.439
20
-77.5348
11
109.581
21
-77.4919
0
LINE
8
BLACK
6
CONTINUOUS
10
109.581
20
-77.4919
11
109.654
21
-77.4846
0
LINE
8
BLACK
6
CONTINUOUS
10
109.654
20
-77.4846
11
109.691
21
-77.481
0
LINE
8
BLACK
6
CONTINUOUS
10
109.691
20
-77.481
11
109.765
21
-77.481
0
LINE
8
BLACK
6
CONTINUOUS
10
109.765
20
-77.481
11
109.802
21
-77.4846
0
LINE
8
BLACK
6
CONTINUOUS
10
107.407
20
-77.5099
11
107.467
21
-77.5348
0
LINE
8
BLACK
6
CONTINUOUS
10
107.467
20
-77.5348
11
107.544
21
-77.5665
0
LINE
8
BLACK
6
CONTINUOUS
10
107.544
20
-77.5665
11
107.667
21
-77.6487
0
LINE
8
BLACK
6
CONTINUOUS
10
107.667
20
-77.6487
11
107.771
21
-77.7533
0
LINE
8
BLACK
6
CONTINUOUS
10
107.771
20
-77.7533
11
107.854
21
-77.8763
0
LINE
8
BLACK
6
CONTINUOUS
10
107.854
20
-77.8763
11
107.854
21
-77.8763
0
LINE
8
BLACK
6
CONTINUOUS
10
107.854
20
-77.8763
11
107.91
21
-78.0129
0
LINE
8
BLACK
6
CONTINUOUS
10
107.91
20
-78.0129
11
107.939
21
-78.158
0
LINE
8
BLACK
6
CONTINUOUS
10
107.939
20
-78.158
11
107.939
21
-78.306
0
LINE
8
BLACK
6
CONTINUOUS
10
107.939
20
-78.306
11
107.91
21
-78.4511
0
LINE
8
BLACK
6
CONTINUOUS
10
107.91
20
-78.4511
11
107.854
21
-78.5877
0
LINE
8
BLACK
6
CONTINUOUS
10
107.854
20
-78.5877
11
107.771
21
-78.7107
0
LINE
8
BLACK
6
CONTINUOUS
10
107.771
20
-78.7107
11
107.667
21
-78.8153
0
LINE
8
BLACK
6
CONTINUOUS
10
107.667
20
-78.8153
11
107.544
21
-78.8975
0
LINE
8
BLACK
6
CONTINUOUS
10
107.544
20
-78.8975
11
107.544
21
-78.8975
0
LINE
8
BLACK
6
CONTINUOUS
10
107.544
20
-78.8975
11
107.544
21
-78.8975
0
LINE
8
BLACK
6
CONTINUOUS
10
107.544
20
-78.8975
11
107.407
21
-78.9541
0
LINE
8
BLACK
6
CONTINUOUS
10
107.407
20
-78.9541
11
107.262
21
-78.983
0
LINE
8
BLACK
6
CONTINUOUS
10
107.262
20
-78.983
11
107.114
21
-78.983
0
LINE
8
BLACK
6
CONTINUOUS
10
107.114
20
-78.983
11
106.969
21
-78.9541
0
LINE
8
BLACK
6
CONTINUOUS
10
106.969
20
-78.9541
11
106.832
21
-78.8975
0
LINE
8
BLACK
6
CONTINUOUS
10
106.832
20
-78.8975
11
106.832
21
-78.8975
0
LINE
8
BLACK
6
CONTINUOUS
10
106.832
20
-78.8975
11
106.832
21
-78.8975
0
LINE
8
BLACK
6
CONTINUOUS
10
106.832
20
-78.8975
11
106.709
21
-78.8153
0
LINE
8
BLACK
6
CONTINUOUS
10
106.709
20
-78.8153
11
106.605
21
-78.7107
0
LINE
8
BLACK
6
CONTINUOUS
10
106.605
20
-78.7107
11
106.522
21
-78.5877
0
LINE
8
BLACK
6
CONTINUOUS
10
106.522
20
-78.5877
11
106.466
21
-78.4511
0
LINE
8
BLACK
6
CONTINUOUS
10
106.466
20
-78.4511
11
106.437
21
-78.306
0
LINE
8
BLACK
6
CONTINUOUS
10
106.437
20
-78.306
11
106.437
21
-78.158
0
LINE
8
BLACK
6
CONTINUOUS
10
106.437
20
-78.158
11
106.466
21
-78.0129
0
LINE
8
BLACK
6
CONTINUOUS
10
106.466
20
-78.0129
11
106.522
21
-77.8763
0
LINE
8
BLACK
6
CONTINUOUS
10
106.522
20
-77.8763
11
106.522
21
-77.8763
0
LINE
8
BLACK
6
CONTINUOUS
10
106.522
20
-77.8763
11
106.605
21
-77.7533
0
LINE
8
BLACK
6
CONTINUOUS
10
106.605
20
-77.7533
11
106.709
21
-77.6487
0
LINE
8
BLACK
6
CONTINUOUS
10
106.709
20
-77.6487
11
106.832
21
-77.5665
0
LINE
8
BLACK
6
CONTINUOUS
10
106.832
20
-77.5665
11
106.909
21
-77.5348
0
LINE
8
BLACK
6
CONTINUOUS
10
106.909
20
-77.5348
11
106.969
21
-77.5099
0
LINE
8
BLACK
6
CONTINUOUS
10
106.969
20
-77.5099
11
107.114
21
-77.481
0
LINE
8
BLACK
6
CONTINUOUS
10
107.114
20
-77.481
11
107.262
21
-77.481
0
LINE
8
BLACK
6
CONTINUOUS
10
107.262
20
-77.481
11
107.407
21
-77.5099
0
LINE
8
BLACK
6
CONTINUOUS
10
103.084
20
-76.16
11
101.132
21
-76.16
0
LINE
8
BLACK
6
CONTINUOUS
10
101.132
20
-76.16
11
101.132
21
-74.208
0
LINE
8
BLACK
6
CONTINUOUS
10
101.132
20
-74.208
11
103.084
21
-74.208
0
LINE
8
BLACK
6
CONTINUOUS
10
103.084
20
-74.208
11
103.084
21
-76.16
0
LINE
8
BLACK
6
CONTINUOUS
10
99.8927
20
-74.2455
11
99.8927
21
-74.2455
0
LINE
8
BLACK
6
CONTINUOUS
10
99.8927
20
-74.2455
11
99.8927
21
-74.2455
0
LINE
8
BLACK
6
CONTINUOUS
10
99.8927
20
-74.2455
11
100.07
21
-74.3191
0
LINE
8
BLACK
6
CONTINUOUS
10
100.07
20
-74.3191
11
100.07
21
-74.3191
0
LINE
8
BLACK
6
CONTINUOUS
10
100.07
20
-74.3191
11
100.23
21
-74.4259
0
LINE
8
BLACK
6
CONTINUOUS
10
100.23
20
-74.4259
11
100.366
21
-74.5618
0
LINE
8
BLACK
6
CONTINUOUS
10
100.366
20
-74.5618
11
100.455
21
-74.6951
0
LINE
8
BLACK
6
CONTINUOUS
10
100.455
20
-74.6951
11
100.473
21
-74.7217
0
LINE
8
BLACK
6
CONTINUOUS
10
100.473
20
-74.7217
11
100.53
21
-74.8591
0
LINE
8
BLACK
6
CONTINUOUS
10
100.53
20
-74.8591
11
100.546
21
-74.8993
0
LINE
8
BLACK
6
CONTINUOUS
10
100.546
20
-74.8993
11
100.584
21
-75.0879
0
LINE
8
BLACK
6
CONTINUOUS
10
100.584
20
-75.0879
11
100.584
21
-75.2801
0
LINE
8
BLACK
6
CONTINUOUS
10
100.584
20
-75.2801
11
100.546
21
-75.4687
0
LINE
8
BLACK
6
CONTINUOUS
10
100.546
20
-75.4687
11
100.546
21
-75.4687
0
LINE
8
BLACK
6
CONTINUOUS
10
100.546
20
-75.4687
11
100.473
21
-75.6463
0
LINE
8
BLACK
6
CONTINUOUS
10
100.473
20
-75.6463
11
100.473
21
-75.6463
0
LINE
8
BLACK
6
CONTINUOUS
10
100.473
20
-75.6463
11
100.366
21
-75.8062
0
LINE
8
BLACK
6
CONTINUOUS
10
100.366
20
-75.8062
11
100.23
21
-75.9421
0
LINE
8
BLACK
6
CONTINUOUS
10
100.23
20
-75.9421
11
100.097
21
-76.0312
0
LINE
8
BLACK
6
CONTINUOUS
10
100.097
20
-76.0312
11
100.07
21
-76.0489
0
LINE
8
BLACK
6
CONTINUOUS
10
100.07
20
-76.0489
11
99.9329
21
-76.1058
0
LINE
8
BLACK
6
CONTINUOUS
10
99.9329
20
-76.1058
11
99.8927
21
-76.1225
0
LINE
8
BLACK
6
CONTINUOUS
10
99.8927
20
-76.1225
11
99.7041
21
-76.16
0
LINE
8
BLACK
6
CONTINUOUS
10
99.7041
20
-76.16
11
99.5119
21
-76.16
0
LINE
8
BLACK
6
CONTINUOUS
10
99.5119
20
-76.16
11
99.3233
21
-76.1225
0
LINE
8
BLACK
6
CONTINUOUS
10
99.3233
20
-76.1225
11
99.2831
21
-76.1058
0
LINE
8
BLACK
6
CONTINUOUS
10
99.2831
20
-76.1058
11
99.1457
21
-76.0489
0
LINE
8
BLACK
6
CONTINUOUS
10
99.1457
20
-76.0489
11
99.1191
21
-76.0312
0
LINE
8
BLACK
6
CONTINUOUS
10
99.1191
20
-76.0312
11
98.9858
21
-75.9421
0
LINE
8
BLACK
6
CONTINUOUS
10
98.9858
20
-75.9421
11
98.8499
21
-75.8062
0
LINE
8
BLACK
6
CONTINUOUS
10
98.8499
20
-75.8062
11
98.7431
21
-75.6463
0
LINE
8
BLACK
6
CONTINUOUS
10
98.7431
20
-75.6463
11
98.7431
21
-75.6463
0
LINE
8
BLACK
6
CONTINUOUS
10
98.7431
20
-75.6463
11
98.6695
21
-75.4687
0
LINE
8
BLACK
6
CONTINUOUS
10
98.6695
20
-75.4687
11
98.6695
21
-75.4687
0
LINE
8
BLACK
6
CONTINUOUS
10
98.6695
20
-75.4687
11
98.632
21
-75.2801
0
LINE
8
BLACK
6
CONTINUOUS
10
98.632
20
-75.2801
11
98.632
21
-75.0879
0
LINE
8
BLACK
6
CONTINUOUS
10
98.632
20
-75.0879
11
98.6695
21
-74.8993
0
LINE
8
BLACK
6
CONTINUOUS
10
98.6695
20
-74.8993
11
98.6862
21
-74.8591
0
LINE
8
BLACK
6
CONTINUOUS
10
98.6862
20
-74.8591
11
98.7431
21
-74.7217
0
LINE
8
BLACK
6
CONTINUOUS
10
98.7431
20
-74.7217
11
98.7608
21
-74.6951
0
LINE
8
BLACK
6
CONTINUOUS
10
98.7608
20
-74.6951
11
98.8499
21
-74.5618
0
LINE
8
BLACK
6
CONTINUOUS
10
98.8499
20
-74.5618
11
98.9858
21
-74.4259
0
LINE
8
BLACK
6
CONTINUOUS
10
98.9858
20
-74.4259
11
99.1457
21
-74.3191
0
LINE
8
BLACK
6
CONTINUOUS
10
99.1457
20
-74.3191
11
99.1457
21
-74.3191
0
LINE
8
BLACK
6
CONTINUOUS
10
99.1457
20
-74.3191
11
99.3233
21
-74.2455
0
LINE
8
BLACK
6
CONTINUOUS
10
99.3233
20
-74.2455
11
99.3233
21
-74.2455
0
LINE
8
BLACK
6
CONTINUOUS
10
99.3233
20
-74.2455
11
99.3233
21
-74.2455
0
LINE
8
BLACK
6
CONTINUOUS
10
99.3233
20
-74.2455
11
99.5119
21
-74.208
0
LINE
8
BLACK
6
CONTINUOUS
10
99.5119
20
-74.208
11
99.7041
21
-74.208
0
LINE
8
BLACK
6
CONTINUOUS
10
99.7041
20
-74.208
11
99.8927
21
-74.2455
0
LINE
8
BLACK
6
CONTINUOUS
10
97.3927
20
-74.2455
11
97.3927
21
-74.2455
0
LINE
8
BLACK
6
CONTINUOUS
10
97.3927
20
-74.2455
11
97.3927
21
-74.2455
0
LINE
8
BLACK
6
CONTINUOUS
10
97.3927
20
-74.2455
11
97.5703
21
-74.3191
0
LINE
8
BLACK
6
CONTINUOUS
10
97.5703
20
-74.3191
11
97.5703
21
-74.3191
0
LINE
8
BLACK
6
CONTINUOUS
10
97.5703
20
-74.3191
11
97.7302
21
-74.4259
0
LINE
8
BLACK
6
CONTINUOUS
10
97.7302
20
-74.4259
11
97.8661
21
-74.5618
0
LINE
8
BLACK
6
CONTINUOUS
10
97.8661
20
-74.5618
11
97.9552
21
-74.6951
0
LINE
8
BLACK
6
CONTINUOUS
10
97.9552
20
-74.6951
11
97.9729
21
-74.7217
0
LINE
8
BLACK
6
CONTINUOUS
10
97.9729
20
-74.7217
11
98.0298
21
-74.8591
0
LINE
8
BLACK
6
CONTINUOUS
10
98.0298
20
-74.8591
11
98.0465
21
-74.8993
0
LINE
8
BLACK
6
CONTINUOUS
10
98.0465
20
-74.8993
11
98.084
21
-75.0879
0
LINE
8
BLACK
6
CONTINUOUS
10
98.084
20
-75.0879
11
98.084
21
-75.2801
0
LINE
8
BLACK
6
CONTINUOUS
10
98.084
20
-75.2801
11
98.0465
21
-75.4687
0
LINE
8
BLACK
6
CONTINUOUS
10
98.0465
20
-75.4687
11
98.0465
21
-75.4687
0
LINE
8
BLACK
6
CONTINUOUS
10
98.0465
20
-75.4687
11
97.9729
21
-75.6463
0
LINE
8
BLACK
6
CONTINUOUS
10
97.9729
20
-75.6463
11
97.9729
21
-75.6463
0
LINE
8
BLACK
6
CONTINUOUS
10
97.9729
20
-75.6463
11
97.8661
21
-75.8062
0
LINE
8
BLACK
6
CONTINUOUS
10
97.8661
20
-75.8062
11
97.7302
21
-75.9421
0
LINE
8
BLACK
6
CONTINUOUS
10
97.7302
20
-75.9421
11
97.5969
21
-76.0312
0
LINE
8
BLACK
6
CONTINUOUS
10
97.5969
20
-76.0312
11
97.5703
21
-76.0489
0
LINE
8
BLACK
6
CONTINUOUS
10
97.5703
20
-76.0489
11
97.4329
21
-76.1058
0
LINE
8
BLACK
6
CONTINUOUS
10
97.4329
20
-76.1058
11
97.3927
21
-76.1225
0
LINE
8
BLACK
6
CONTINUOUS
10
97.3927
20
-76.1225
11
97.2041
21
-76.16
0
LINE
8
BLACK
6
CONTINUOUS
10
97.2041
20
-76.16
11
97.0119
21
-76.16
0
LINE
8
BLACK
6
CONTINUOUS
10
97.0119
20
-76.16
11
96.8233
21
-76.1225
0
LINE
8
BLACK
6
CONTINUOUS
10
96.8233
20
-76.1225
11
96.7831
21
-76.1058
0
LINE
8
BLACK
6
CONTINUOUS
10
96.7831
20
-76.1058
11
96.6457
21
-76.0489
0
LINE
8
BLACK
6
CONTINUOUS
10
96.6457
20
-76.0489
11
96.6191
21
-76.0312
0
LINE
8
BLACK
6
CONTINUOUS
10
96.6191
20
-76.0312
11
96.4858
21
-75.9421
0
LINE
8
BLACK
6
CONTINUOUS
10
96.4858
20
-75.9421
11
96.3499
21
-75.8062
0
LINE
8
BLACK
6
CONTINUOUS
10
96.3499
20
-75.8062
11
96.2431
21
-75.6463
0
LINE
8
BLACK
6
CONTINUOUS
10
96.2431
20
-75.6463
11
96.2431
21
-75.6463
0
LINE
8
BLACK
6
CONTINUOUS
10
96.2431
20
-75.6463
11
96.1695
21
-75.4687
0
LINE
8
BLACK
6
CONTINUOUS
10
96.1695
20
-75.4687
11
96.1695
21
-75.4687
0
LINE
8
BLACK
6
CONTINUOUS
10
96.1695
20
-75.4687
11
96.132
21
-75.2801
0
LINE
8
BLACK
6
CONTINUOUS
10
96.132
20
-75.2801
11
96.132
21
-75.0879
0
LINE
8
BLACK
6
CONTINUOUS
10
96.132
20
-75.0879
11
96.1695
21
-74.8993
0
LINE
8
BLACK
6
CONTINUOUS
10
96.1695
20
-74.8993
11
96.1862
21
-74.8591
0
LINE
8
BLACK
6
CONTINUOUS
10
96.1862
20
-74.8591
11
96.2431
21
-74.7217
0
LINE
8
BLACK
6
CONTINUOUS
10
96.2431
20
-74.7217
11
96.2608
21
-74.6951
0
LINE
8
BLACK
6
CONTINUOUS
10
96.2608
20
-74.6951
11
96.3499
21
-74.5618
0
LINE
8
BLACK
6
CONTINUOUS
10
96.3499
20
-74.5618
11
96.4858
21
-74.4259
0
LINE
8
BLACK
6
CONTINUOUS
10
96.4858
20
-74.4259
11
96.6457
21
-74.3191
0
LINE
8
BLACK
6
CONTINUOUS
10
96.6457
20
-74.3191
11
96.6457
21
-74.3191
0
LINE
8
BLACK
6
CONTINUOUS
10
96.6457
20
-74.3191
11
96.8233
21
-74.2455
0
LINE
8
BLACK
6
CONTINUOUS
10
96.8233
20
-74.2455
11
96.8233
21
-74.2455
0
LINE
8
BLACK
6
CONTINUOUS
10
96.8233
20
-74.2455
11
96.8233
21
-74.2455
0
LINE
8
BLACK
6
CONTINUOUS
10
96.8233
20
-74.2455
11
97.0119
21
-74.208
0
LINE
8
BLACK
6
CONTINUOUS
10
97.0119
20
-74.208
11
97.2041
21
-74.208
0
LINE
8
BLACK
6
CONTINUOUS
10
97.2041
20
-74.208
11
97.3927
21
-74.2455
0
LINE
8
BLACK
6
CONTINUOUS
10
117.375
20
-75.719
11
114.273
21
-75.719
0
LINE
8
BLACK
6
CONTINUOUS
10
114.273
20
-75.719
11
114.273
21
-72.617
0
LINE
8
BLACK
6
CONTINUOUS
10
114.273
20
-72.617
11
117.375
21
-72.617
0
LINE
8
BLACK
6
CONTINUOUS
10
117.375
20
-72.617
11
117.375
21
-75.719
  0
ENDSEC
  0
EOF
