  0
SECTION
  2
HEADER
  9
$ANGBASE
  50
0.0
  9
$ANGDIR
  70
  1
  9
$MEASUREMENT
  70
0
  0
ENDSEC
  0
SECTION
  2
TABLES
  0
TABLE
  2
LTYPE
  70
4
  0
LTYPE
  5
40F
  2
CONTINUOUS
  70
0
  3
Solid line
  72
65
  73
0
  40
0.0
  0
LTYPE
  5
410
  2
DASHDOT
 70
0
  3
Dash Dot ____ _ ____ _
 72
65
 73
4
 40
2.0
 49
1.25
 49
-0.25
 49
0.25
 49
-0.25
  0
LTYPE
  5
411
  2
DASHED
 70
0
  3
Dashed __ __ __ __ __
 72
65
 73
2
 40
0.75
 49
0.5
 49
-0.25
  0
LTYPE
  5
43B
  2
DOTTED
 70
0
  3
Dotted .  .  .  .
 72
65
 73
2
 40
0.2
 49
0.0
 49
-0.2
  0
ENDTAB
  0
TABLE
  2
STYLE
  70
4
  0
STYLE
  2
KICAD
  70
0
  40
0
  41
1
  42
1
  50
0
  71
0
  3
isocp.shx
  0
STYLE
  2
KICADB
  70
0
  40
0
  41
1
  42
1
  50
0
  71
0
  3
isocp.shx
  0
STYLE
  2
KICADI
  70
0
  40
0
  41
1
  42
1
  50
15
  71
0
  3
isocp.shx
  0
STYLE
  2
KICADBI
  70
0
  40
0
  41
1
  42
1
  50
15
  71
0
  3
isocp.shx
  0
ENDTAB
  0
TABLE
  2
LAYER
  70
30
  0
LAYER
  2
BLACK
  70
0
  62
7
  6
CONTINUOUS
  0
LAYER
  2
GRAY1
  70
0
  62
251
  6
CONTINUOUS
  0
LAYER
  2
GRAY2
  70
0
  62
8
  6
CONTINUOUS
  0
LAYER
  2
GRAY3
  70
0
  62
9
  6
CONTINUOUS
  0
LAYER
  2
WHITE
  70
0
  62
7
  6
CONTINUOUS
  0
LAYER
  2
LYELLOW
  70
0
  62
51
  6
CONTINUOUS
  0
LAYER
  2
BLUE1
  70
0
  62
178
  6
CONTINUOUS
  0
LAYER
  2
GREEN1
  70
0
  62
98
  6
CONTINUOUS
  0
LAYER
  2
CYAN1
  70
0
  62
138
  6
CONTINUOUS
  0
LAYER
  2
RED1
  70
0
  62
18
  6
CONTINUOUS
  0
LAYER
  2
MAGENTA1
  70
0
  62
228
  6
CONTINUOUS
  0
LAYER
  2
BROWN1
  70
0
  62
58
  6
CONTINUOUS
  0
LAYER
  2
BLUE2
  70
0
  62
5
  6
CONTINUOUS
  0
LAYER
  2
GREEN2
  70
0
  62
3
  6
CONTINUOUS
  0
LAYER
  2
CYAN2
  70
0
  62
4
  6
CONTINUOUS
  0
LAYER
  2
RED2
  70
0
  62
1
  6
CONTINUOUS
  0
LAYER
  2
MAGENTA2
  70
0
  62
6
  6
CONTINUOUS
  0
LAYER
  2
BROWN2
  70
0
  62
54
  6
CONTINUOUS
  0
LAYER
  2
BLUE3
  70
0
  62
171
  6
CONTINUOUS
  0
LAYER
  2
GREEN3
  70
0
  62
91
  6
CONTINUOUS
  0
LAYER
  2
CYAN3
  70
0
  62
131
  6
CONTINUOUS
  0
LAYER
  2
RED3
  70
0
  62
11
  6
CONTINUOUS
  0
LAYER
  2
MAGENTA3
  70
0
  62
221
  6
CONTINUOUS
  0
LAYER
  2
YELLOW3
  70
0
  62
2
  6
CONTINUOUS
  0
LAYER
  2
BLUE4
  70
0
  62
5
  6
CONTINUOUS
  0
LAYER
  2
GREEN4
  70
0
  62
3
  6
CONTINUOUS
  0
LAYER
  2
CYAN4
  70
0
  62
4
  6
CONTINUOUS
  0
LAYER
  2
RED4
  70
0
  62
1
  6
CONTINUOUS
  0
LAYER
  2
MAGENTA4
  70
0
  62
6
  6
CONTINUOUS
  0
LAYER
  2
YELLOW4
  70
0
  62
2
  6
CONTINUOUS
  0
ENDTAB
  0
ENDSEC
  0
SECTION
  2
ENTITIES
0
LINE
8
BLACK
6
CONTINUOUS
10
116.262
20
-77.8056
11
116.535
21
-77.9187
0
LINE
8
BLACK
6
CONTINUOUS
10
116.535
20
-77.9187
11
116.78
21
-78.0829
0
LINE
8
BLACK
6
CONTINUOUS
10
116.78
20
-78.0829
11
116.989
21
-78.2918
0
LINE
8
BLACK
6
CONTINUOUS
10
116.989
20
-78.2918
11
117.153
21
-78.5375
0
LINE
8
BLACK
6
CONTINUOUS
10
117.153
20
-78.5375
11
117.199
21
-78.648
0
LINE
8
BLACK
6
CONTINUOUS
10
117.199
20
-78.648
11
118.335
21
-78.648
0
LINE
8
BLACK
6
CONTINUOUS
10
118.335
20
-78.648
11
118.364
21
-78.6451
0
LINE
8
BLACK
6
CONTINUOUS
10
118.364
20
-78.6451
11
118.393
21
-78.648
0
LINE
8
BLACK
6
CONTINUOUS
10
118.393
20
-78.648
11
118.482
21
-78.6567
0
LINE
8
BLACK
6
CONTINUOUS
10
118.482
20
-78.6567
11
118.595
21
-78.691
0
LINE
8
BLACK
6
CONTINUOUS
10
118.595
20
-78.691
11
118.699
21
-78.7467
0
LINE
8
BLACK
6
CONTINUOUS
10
118.699
20
-78.7467
11
118.79
21
-78.8217
0
LINE
8
BLACK
6
CONTINUOUS
10
118.79
20
-78.8217
11
118.809
21
-78.8446
0
LINE
8
BLACK
6
CONTINUOUS
10
118.809
20
-78.8446
11
119.275
21
-79.3109
0
LINE
8
BLACK
6
CONTINUOUS
10
119.275
20
-79.3109
11
119.298
21
-79.3297
0
LINE
8
BLACK
6
CONTINUOUS
10
119.298
20
-79.3297
11
119.373
21
-79.421
0
LINE
8
BLACK
6
CONTINUOUS
10
119.373
20
-79.421
11
119.429
21
-79.5253
0
LINE
8
BLACK
6
CONTINUOUS
10
119.429
20
-79.5253
11
119.463
21
-79.6384
0
LINE
8
BLACK
6
CONTINUOUS
10
119.463
20
-79.6384
11
119.472
21
-79.7265
0
LINE
8
BLACK
6
CONTINUOUS
10
119.472
20
-79.7265
11
119.472
21
-79.7265
0
LINE
8
BLACK
6
CONTINUOUS
10
119.472
20
-79.7265
11
119.475
21
-79.756
0
LINE
8
BLACK
6
CONTINUOUS
10
119.475
20
-79.756
11
119.472
21
-79.7855
0
LINE
8
BLACK
6
CONTINUOUS
10
119.472
20
-79.7855
11
119.472
21
-86.3305
0
LINE
8
BLACK
6
CONTINUOUS
10
119.472
20
-86.3305
11
119.475
21
-86.36
0
LINE
8
BLACK
6
CONTINUOUS
10
119.475
20
-86.36
11
119.472
21
-86.3895
0
LINE
8
BLACK
6
CONTINUOUS
10
119.472
20
-86.3895
11
119.463
21
-86.4776
0
LINE
8
BLACK
6
CONTINUOUS
10
119.463
20
-86.4776
11
119.429
21
-86.5907
0
LINE
8
BLACK
6
CONTINUOUS
10
119.429
20
-86.5907
11
119.373
21
-86.695
0
LINE
8
BLACK
6
CONTINUOUS
10
119.373
20
-86.695
11
119.298
21
-86.7863
0
LINE
8
BLACK
6
CONTINUOUS
10
119.298
20
-86.7863
11
119.275
21
-86.8051
0
LINE
8
BLACK
6
CONTINUOUS
10
119.275
20
-86.8051
11
117.221
21
-88.8599
0
LINE
8
BLACK
6
CONTINUOUS
10
117.221
20
-88.8599
11
117.266
21
-88.9705
0
LINE
8
BLACK
6
CONTINUOUS
10
117.266
20
-88.9705
11
117.324
21
-89.2603
0
LINE
8
BLACK
6
CONTINUOUS
10
117.324
20
-89.2603
11
117.324
21
-89.5557
0
LINE
8
BLACK
6
CONTINUOUS
10
117.324
20
-89.5557
11
117.266
21
-89.8455
0
LINE
8
BLACK
6
CONTINUOUS
10
117.266
20
-89.8455
11
117.153
21
-90.1185
0
LINE
8
BLACK
6
CONTINUOUS
10
117.153
20
-90.1185
11
116.989
21
-90.3642
0
LINE
8
BLACK
6
CONTINUOUS
10
116.989
20
-90.3642
11
116.78
21
-90.5731
0
LINE
8
BLACK
6
CONTINUOUS
10
116.78
20
-90.5731
11
116.535
21
-90.7373
0
LINE
8
BLACK
6
CONTINUOUS
10
116.535
20
-90.7373
11
116.262
21
-90.8504
0
LINE
8
BLACK
6
CONTINUOUS
10
116.262
20
-90.8504
11
115.972
21
-90.908
0
LINE
8
BLACK
6
CONTINUOUS
10
115.972
20
-90.908
11
115.676
21
-90.908
0
LINE
8
BLACK
6
CONTINUOUS
10
115.676
20
-90.908
11
115.386
21
-90.8504
0
LINE
8
BLACK
6
CONTINUOUS
10
115.386
20
-90.8504
11
115.113
21
-90.7373
0
LINE
8
BLACK
6
CONTINUOUS
10
115.113
20
-90.7373
11
114.868
21
-90.5731
0
LINE
8
BLACK
6
CONTINUOUS
10
114.868
20
-90.5731
11
114.659
21
-90.3642
0
LINE
8
BLACK
6
CONTINUOUS
10
114.659
20
-90.3642
11
114.495
21
-90.1185
0
LINE
8
BLACK
6
CONTINUOUS
10
114.495
20
-90.1185
11
114.382
21
-89.8455
0
LINE
8
BLACK
6
CONTINUOUS
10
114.382
20
-89.8455
11
114.324
21
-89.5557
0
LINE
8
BLACK
6
CONTINUOUS
10
114.324
20
-89.5557
11
114.324
21
-89.2603
0
LINE
8
BLACK
6
CONTINUOUS
10
114.324
20
-89.2603
11
114.382
21
-88.9705
0
LINE
8
BLACK
6
CONTINUOUS
10
114.382
20
-88.9705
11
114.427
21
-88.8599
0
LINE
8
BLACK
6
CONTINUOUS
10
114.427
20
-88.8599
11
113.543
21
-87.976
0
LINE
8
BLACK
6
CONTINUOUS
10
113.543
20
-87.976
11
109.712
21
-87.976
0
LINE
8
BLACK
6
CONTINUOUS
10
109.712
20
-87.976
11
109.712
21
-88.376
0
LINE
8
BLACK
6
CONTINUOUS
10
109.712
20
-88.376
11
107.712
21
-88.376
0
LINE
8
BLACK
6
CONTINUOUS
10
107.712
20
-88.376
11
107.712
21
-87.976
0
LINE
8
BLACK
6
CONTINUOUS
10
107.712
20
-87.976
11
103.991
21
-87.976
0
LINE
8
BLACK
6
CONTINUOUS
10
103.991
20
-87.976
11
103.945
21
-88.0865
0
LINE
8
BLACK
6
CONTINUOUS
10
103.945
20
-88.0865
11
103.781
21
-88.3322
0
LINE
8
BLACK
6
CONTINUOUS
10
103.781
20
-88.3322
11
103.572
21
-88.5411
0
LINE
8
BLACK
6
CONTINUOUS
10
103.572
20
-88.5411
11
103.327
21
-88.7053
0
LINE
8
BLACK
6
CONTINUOUS
10
103.327
20
-88.7053
11
103.054
21
-88.8184
0
LINE
8
BLACK
6
CONTINUOUS
10
103.054
20
-88.8184
11
102.764
21
-88.876
0
LINE
8
BLACK
6
CONTINUOUS
10
102.764
20
-88.876
11
102.468
21
-88.876
0
LINE
8
BLACK
6
CONTINUOUS
10
102.468
20
-88.876
11
102.178
21
-88.8184
0
LINE
8
BLACK
6
CONTINUOUS
10
102.178
20
-88.8184
11
101.905
21
-88.7053
0
LINE
8
BLACK
6
CONTINUOUS
10
101.905
20
-88.7053
11
101.66
21
-88.5411
0
LINE
8
BLACK
6
CONTINUOUS
10
101.66
20
-88.5411
11
101.451
21
-88.3322
0
LINE
8
BLACK
6
CONTINUOUS
10
101.451
20
-88.3322
11
101.287
21
-88.0865
0
LINE
8
BLACK
6
CONTINUOUS
10
101.287
20
-88.0865
11
101.174
21
-87.8135
0
LINE
8
BLACK
6
CONTINUOUS
10
101.174
20
-87.8135
11
101.116
21
-87.5237
0
LINE
8
BLACK
6
CONTINUOUS
10
101.116
20
-87.5237
11
101.116
21
-87.2283
0
LINE
8
BLACK
6
CONTINUOUS
10
101.116
20
-87.2283
11
101.174
21
-86.9385
0
LINE
8
BLACK
6
CONTINUOUS
10
101.174
20
-86.9385
11
101.219
21
-86.8279
0
LINE
8
BLACK
6
CONTINUOUS
10
101.219
20
-86.8279
11
98.4466
21
-84.0551
0
LINE
8
BLACK
6
CONTINUOUS
10
98.4466
20
-84.0551
11
98.4448
21
-84.0578
0
LINE
8
BLACK
6
CONTINUOUS
10
98.4448
20
-84.0578
11
98.2818
21
-84.2208
0
LINE
8
BLACK
6
CONTINUOUS
10
98.2818
20
-84.2208
11
98.0902
21
-84.3488
0
LINE
8
BLACK
6
CONTINUOUS
10
98.0902
20
-84.3488
11
97.8773
21
-84.437
0
LINE
8
BLACK
6
CONTINUOUS
10
97.8773
20
-84.437
11
97.6512
21
-84.482
0
LINE
8
BLACK
6
CONTINUOUS
10
97.6512
20
-84.482
11
97.4208
21
-84.482
0
LINE
8
BLACK
6
CONTINUOUS
10
97.4208
20
-84.482
11
97.2487
21
-84.4478
0
LINE
8
BLACK
6
CONTINUOUS
10
97.2487
20
-84.4478
11
96.9651
21
-84.7314
0
LINE
8
BLACK
6
CONTINUOUS
10
96.9651
20
-84.7314
11
96.9463
21
-84.7543
0
LINE
8
BLACK
6
CONTINUOUS
10
96.9463
20
-84.7543
11
96.855
21
-84.8293
0
LINE
8
BLACK
6
CONTINUOUS
10
96.855
20
-84.8293
11
96.7507
21
-84.885
0
LINE
8
BLACK
6
CONTINUOUS
10
96.7507
20
-84.885
11
96.6376
21
-84.9193
0
LINE
8
BLACK
6
CONTINUOUS
10
96.6376
20
-84.9193
11
96.5495
21
-84.928
0
LINE
8
BLACK
6
CONTINUOUS
10
96.5495
20
-84.928
11
96.52
21
-84.9309
0
LINE
8
BLACK
6
CONTINUOUS
10
96.52
20
-84.9309
11
96.4905
21
-84.928
0
LINE
8
BLACK
6
CONTINUOUS
10
96.4905
20
-84.928
11
90.4
21
-84.928
0
LINE
8
BLACK
6
CONTINUOUS
10
90.4
20
-84.928
11
90.4
21
-85.828
0
LINE
8
BLACK
6
CONTINUOUS
10
90.4
20
-85.828
11
87.4
21
-85.828
0
LINE
8
BLACK
6
CONTINUOUS
10
87.4
20
-85.828
11
87.4
21
-82.828
0
LINE
8
BLACK
6
CONTINUOUS
10
87.4
20
-82.828
11
90.4
21
-82.828
0
LINE
8
BLACK
6
CONTINUOUS
10
90.4
20
-82.828
11
90.4
21
-83.728
0
LINE
8
BLACK
6
CONTINUOUS
10
90.4
20
-83.728
11
96.2715
21
-83.728
0
LINE
8
BLACK
6
CONTINUOUS
10
96.2715
20
-83.728
11
96.4002
21
-83.5993
0
LINE
8
BLACK
6
CONTINUOUS
10
96.4002
20
-83.5993
11
96.366
21
-83.4272
0
LINE
8
BLACK
6
CONTINUOUS
10
96.366
20
-83.4272
11
96.366
21
-83.1968
0
LINE
8
BLACK
6
CONTINUOUS
10
96.366
20
-83.1968
11
96.411
21
-82.9707
0
LINE
8
BLACK
6
CONTINUOUS
10
96.411
20
-82.9707
11
96.4992
21
-82.7578
0
LINE
8
BLACK
6
CONTINUOUS
10
96.4992
20
-82.7578
11
96.6272
21
-82.5662
0
LINE
8
BLACK
6
CONTINUOUS
10
96.6272
20
-82.5662
11
96.7902
21
-82.4032
0
LINE
8
BLACK
6
CONTINUOUS
10
96.7902
20
-82.4032
11
96.9818
21
-82.2752
0
LINE
8
BLACK
6
CONTINUOUS
10
96.9818
20
-82.2752
11
97.1947
21
-82.187
0
LINE
8
BLACK
6
CONTINUOUS
10
97.1947
20
-82.187
11
97.4208
21
-82.142
0
LINE
8
BLACK
6
CONTINUOUS
10
97.4208
20
-82.142
11
97.6512
21
-82.142
0
LINE
8
BLACK
6
CONTINUOUS
10
97.6512
20
-82.142
11
97.8773
21
-82.187
0
LINE
8
BLACK
6
CONTINUOUS
10
97.8773
20
-82.187
11
98.0902
21
-82.2752
0
LINE
8
BLACK
6
CONTINUOUS
10
98.0902
20
-82.2752
11
98.2818
21
-82.4032
0
LINE
8
BLACK
6
CONTINUOUS
10
98.2818
20
-82.4032
11
98.4448
21
-82.5662
0
LINE
8
BLACK
6
CONTINUOUS
10
98.4448
20
-82.5662
11
98.541
21
-82.7102
0
LINE
8
BLACK
6
CONTINUOUS
10
98.541
20
-82.7102
11
98.552
21
-82.7091
0
LINE
8
BLACK
6
CONTINUOUS
10
98.552
20
-82.7091
11
98.5815
21
-82.712
0
LINE
8
BLACK
6
CONTINUOUS
10
98.5815
20
-82.712
11
98.6696
21
-82.7207
0
LINE
8
BLACK
6
CONTINUOUS
10
98.6696
20
-82.7207
11
98.7827
21
-82.755
0
LINE
8
BLACK
6
CONTINUOUS
10
98.7827
20
-82.755
11
98.887
21
-82.8107
0
LINE
8
BLACK
6
CONTINUOUS
10
98.887
20
-82.8107
11
98.9783
21
-82.8857
0
LINE
8
BLACK
6
CONTINUOUS
10
98.9783
20
-82.8857
11
98.9971
21
-82.9086
0
LINE
8
BLACK
6
CONTINUOUS
10
98.9971
20
-82.9086
11
102.068
21
-85.9794
0
LINE
8
BLACK
6
CONTINUOUS
10
102.068
20
-85.9794
11
102.178
21
-85.9336
0
LINE
8
BLACK
6
CONTINUOUS
10
102.178
20
-85.9336
11
102.468
21
-85.876
0
LINE
8
BLACK
6
CONTINUOUS
10
102.468
20
-85.876
11
102.764
21
-85.876
0
LINE
8
BLACK
6
CONTINUOUS
10
102.764
20
-85.876
11
103.054
21
-85.9336
0
LINE
8
BLACK
6
CONTINUOUS
10
103.054
20
-85.9336
11
103.327
21
-86.0467
0
LINE
8
BLACK
6
CONTINUOUS
10
103.327
20
-86.0467
11
103.572
21
-86.2109
0
LINE
8
BLACK
6
CONTINUOUS
10
103.572
20
-86.2109
11
103.781
21
-86.4198
0
LINE
8
BLACK
6
CONTINUOUS
10
103.781
20
-86.4198
11
103.945
21
-86.6655
0
LINE
8
BLACK
6
CONTINUOUS
10
103.945
20
-86.6655
11
103.991
21
-86.776
0
LINE
8
BLACK
6
CONTINUOUS
10
103.991
20
-86.776
11
107.712
21
-86.776
0
LINE
8
BLACK
6
CONTINUOUS
10
107.712
20
-86.776
11
107.712
21
-86.376
0
LINE
8
BLACK
6
CONTINUOUS
10
107.712
20
-86.376
11
109.712
21
-86.376
0
LINE
8
BLACK
6
CONTINUOUS
10
109.712
20
-86.376
11
109.712
21
-86.776
0
LINE
8
BLACK
6
CONTINUOUS
10
109.712
20
-86.776
11
113.763
21
-86.776
0
LINE
8
BLACK
6
CONTINUOUS
10
113.763
20
-86.776
11
113.792
21
-86.7731
0
LINE
8
BLACK
6
CONTINUOUS
10
113.792
20
-86.7731
11
113.821
21
-86.776
0
LINE
8
BLACK
6
CONTINUOUS
10
113.821
20
-86.776
11
113.91
21
-86.7847
0
LINE
8
BLACK
6
CONTINUOUS
10
113.91
20
-86.7847
11
114.023
21
-86.819
0
LINE
8
BLACK
6
CONTINUOUS
10
114.023
20
-86.819
11
114.127
21
-86.8747
0
LINE
8
BLACK
6
CONTINUOUS
10
114.127
20
-86.8747
11
114.218
21
-86.9497
0
LINE
8
BLACK
6
CONTINUOUS
10
114.218
20
-86.9497
11
114.237
21
-86.9726
0
LINE
8
BLACK
6
CONTINUOUS
10
114.237
20
-86.9726
11
115.276
21
-88.0114
0
LINE
8
BLACK
6
CONTINUOUS
10
115.276
20
-88.0114
11
115.386
21
-87.9656
0
LINE
8
BLACK
6
CONTINUOUS
10
115.386
20
-87.9656
11
115.676
21
-87.908
0
LINE
8
BLACK
6
CONTINUOUS
10
115.676
20
-87.908
11
115.972
21
-87.908
0
LINE
8
BLACK
6
CONTINUOUS
10
115.972
20
-87.908
11
116.262
21
-87.9656
0
LINE
8
BLACK
6
CONTINUOUS
10
116.262
20
-87.9656
11
116.372
21
-88.0114
0
LINE
8
BLACK
6
CONTINUOUS
10
116.372
20
-88.0114
11
118.272
21
-86.1115
0
LINE
8
BLACK
6
CONTINUOUS
10
118.272
20
-86.1115
11
118.272
21
-80.0045
0
LINE
8
BLACK
6
CONTINUOUS
10
118.272
20
-80.0045
11
118.115
21
-79.848
0
LINE
8
BLACK
6
CONTINUOUS
10
118.115
20
-79.848
11
117.199
21
-79.848
0
LINE
8
BLACK
6
CONTINUOUS
10
117.199
20
-79.848
11
117.153
21
-79.9585
0
LINE
8
BLACK
6
CONTINUOUS
10
117.153
20
-79.9585
11
116.989
21
-80.2042
0
LINE
8
BLACK
6
CONTINUOUS
10
116.989
20
-80.2042
11
116.78
21
-80.4131
0
LINE
8
BLACK
6
CONTINUOUS
10
116.78
20
-80.4131
11
116.535
21
-80.5773
0
LINE
8
BLACK
6
CONTINUOUS
10
116.535
20
-80.5773
11
116.262
21
-80.6904
0
LINE
8
BLACK
6
CONTINUOUS
10
116.262
20
-80.6904
11
115.972
21
-80.748
0
LINE
8
BLACK
6
CONTINUOUS
10
115.972
20
-80.748
11
115.676
21
-80.748
0
LINE
8
BLACK
6
CONTINUOUS
10
115.676
20
-80.748
11
115.386
21
-80.6904
0
LINE
8
BLACK
6
CONTINUOUS
10
115.386
20
-80.6904
11
115.113
21
-80.5773
0
LINE
8
BLACK
6
CONTINUOUS
10
115.113
20
-80.5773
11
114.868
21
-80.4131
0
LINE
8
BLACK
6
CONTINUOUS
10
114.868
20
-80.4131
11
114.659
21
-80.2042
0
LINE
8
BLACK
6
CONTINUOUS
10
114.659
20
-80.2042
11
114.495
21
-79.9585
0
LINE
8
BLACK
6
CONTINUOUS
10
114.495
20
-79.9585
11
114.382
21
-79.6855
0
LINE
8
BLACK
6
CONTINUOUS
10
114.382
20
-79.6855
11
114.324
21
-79.3957
0
LINE
8
BLACK
6
CONTINUOUS
10
114.324
20
-79.3957
11
114.324
21
-79.1003
0
LINE
8
BLACK
6
CONTINUOUS
10
114.324
20
-79.1003
11
114.382
21
-78.8105
0
LINE
8
BLACK
6
CONTINUOUS
10
114.382
20
-78.8105
11
114.495
21
-78.5375
0
LINE
8
BLACK
6
CONTINUOUS
10
114.495
20
-78.5375
11
114.659
21
-78.2918
0
LINE
8
BLACK
6
CONTINUOUS
10
114.659
20
-78.2918
11
114.868
21
-78.0829
0
LINE
8
BLACK
6
CONTINUOUS
10
114.868
20
-78.0829
11
115.113
21
-77.9187
0
LINE
8
BLACK
6
CONTINUOUS
10
115.113
20
-77.9187
11
115.386
21
-77.8056
0
LINE
8
BLACK
6
CONTINUOUS
10
115.386
20
-77.8056
11
115.676
21
-77.748
0
LINE
8
BLACK
6
CONTINUOUS
10
115.676
20
-77.748
11
115.972
21
-77.748
0
LINE
8
BLACK
6
CONTINUOUS
10
115.972
20
-77.748
11
116.262
21
-77.8056
0
LINE
8
BLACK
6
CONTINUOUS
10
110.613
20
-71.028
11
110.702
21
-71.0367
0
LINE
8
BLACK
6
CONTINUOUS
10
110.702
20
-71.0367
11
110.815
21
-71.071
0
LINE
8
BLACK
6
CONTINUOUS
10
110.815
20
-71.071
11
110.919
21
-71.1267
0
LINE
8
BLACK
6
CONTINUOUS
10
110.919
20
-71.1267
11
111.01
21
-71.2017
0
LINE
8
BLACK
6
CONTINUOUS
10
111.01
20
-71.2017
11
111.029
21
-71.2246
0
LINE
8
BLACK
6
CONTINUOUS
10
111.029
20
-71.2246
11
113.373
21
-73.568
0
LINE
8
BLACK
6
CONTINUOUS
10
113.373
20
-73.568
11
114.324
21
-73.568
0
LINE
8
BLACK
6
CONTINUOUS
10
114.324
20
-73.568
11
114.324
21
-72.668
0
LINE
8
BLACK
6
CONTINUOUS
10
114.324
20
-72.668
11
117.324
21
-72.668
0
LINE
8
BLACK
6
CONTINUOUS
10
117.324
20
-72.668
11
117.324
21
-75.668
0
LINE
8
BLACK
6
CONTINUOUS
10
117.324
20
-75.668
11
115.164
21
-75.668
0
LINE
8
BLACK
6
CONTINUOUS
10
115.164
20
-75.668
11
115.143
21
-75.6853
0
LINE
8
BLACK
6
CONTINUOUS
10
115.143
20
-75.6853
11
115.039
21
-75.741
0
LINE
8
BLACK
6
CONTINUOUS
10
115.039
20
-75.741
11
114.926
21
-75.7753
0
LINE
8
BLACK
6
CONTINUOUS
10
114.926
20
-75.7753
11
114.808
21
-75.7869
0
LINE
8
BLACK
6
CONTINUOUS
10
114.808
20
-75.7869
11
114.69
21
-75.7753
0
LINE
8
BLACK
6
CONTINUOUS
10
114.69
20
-75.7753
11
114.577
21
-75.741
0
LINE
8
BLACK
6
CONTINUOUS
10
114.577
20
-75.741
11
114.473
21
-75.6853
0
LINE
8
BLACK
6
CONTINUOUS
10
114.473
20
-75.6853
11
114.452
21
-75.668
0
LINE
8
BLACK
6
CONTINUOUS
10
114.452
20
-75.668
11
114.324
21
-75.668
0
LINE
8
BLACK
6
CONTINUOUS
10
114.324
20
-75.668
11
114.324
21
-75.54
0
LINE
8
BLACK
6
CONTINUOUS
10
114.324
20
-75.54
11
114.307
21
-75.519
0
LINE
8
BLACK
6
CONTINUOUS
10
114.307
20
-75.519
11
114.251
21
-75.4147
0
LINE
8
BLACK
6
CONTINUOUS
10
114.251
20
-75.4147
11
114.217
21
-75.3016
0
LINE
8
BLACK
6
CONTINUOUS
10
114.217
20
-75.3016
11
114.205
21
-75.184
0
LINE
8
BLACK
6
CONTINUOUS
10
114.205
20
-75.184
11
114.217
21
-75.0664
0
LINE
8
BLACK
6
CONTINUOUS
10
114.217
20
-75.0664
11
114.251
21
-74.9533
0
LINE
8
BLACK
6
CONTINUOUS
10
114.251
20
-74.9533
11
114.307
21
-74.849
0
LINE
8
BLACK
6
CONTINUOUS
10
114.307
20
-74.849
11
114.324
21
-74.828
0
LINE
8
BLACK
6
CONTINUOUS
10
114.324
20
-74.828
11
114.324
21
-74.768
0
LINE
8
BLACK
6
CONTINUOUS
10
114.324
20
-74.768
11
113.153
21
-74.768
0
LINE
8
BLACK
6
CONTINUOUS
10
113.153
20
-74.768
11
113.124
21
-74.7709
0
LINE
8
BLACK
6
CONTINUOUS
10
113.124
20
-74.7709
11
113.095
21
-74.768
0
LINE
8
BLACK
6
CONTINUOUS
10
113.095
20
-74.768
11
113.095
21
-74.768
0
LINE
8
BLACK
6
CONTINUOUS
10
113.095
20
-74.768
11
113.018
21
-74.7604
0
LINE
8
BLACK
6
CONTINUOUS
10
113.018
20
-74.7604
11
113.006
21
-74.7593
0
LINE
8
BLACK
6
CONTINUOUS
10
113.006
20
-74.7593
11
112.962
21
-74.7458
0
LINE
8
BLACK
6
CONTINUOUS
10
112.962
20
-74.7458
11
112.893
21
-74.725
0
LINE
8
BLACK
6
CONTINUOUS
10
112.893
20
-74.725
11
112.789
21
-74.6693
0
LINE
8
BLACK
6
CONTINUOUS
10
112.789
20
-74.6693
11
112.698
21
-74.5943
0
LINE
8
BLACK
6
CONTINUOUS
10
112.698
20
-74.5943
11
112.679
21
-74.5714
0
LINE
8
BLACK
6
CONTINUOUS
10
112.679
20
-74.5714
11
110.335
21
-72.228
0
LINE
8
BLACK
6
CONTINUOUS
10
110.335
20
-72.228
11
99.6044
21
-72.228
0
LINE
8
BLACK
6
CONTINUOUS
10
99.6044
20
-72.228
11
97.708
21
-74.1244
0
LINE
8
BLACK
6
CONTINUOUS
10
97.708
20
-74.1244
11
97.708
21
-74.4759
0
LINE
8
BLACK
6
CONTINUOUS
10
97.708
20
-74.4759
11
97.8265
21
-74.5943
0
LINE
8
BLACK
6
CONTINUOUS
10
97.8265
20
-74.5943
11
97.9277
21
-74.7458
0
LINE
8
BLACK
6
CONTINUOUS
10
97.9277
20
-74.7458
11
97.9975
21
-74.9142
0
LINE
8
BLACK
6
CONTINUOUS
10
97.9975
20
-74.9142
11
98.033
21
-75.0929
0
LINE
8
BLACK
6
CONTINUOUS
10
98.033
20
-75.0929
11
98.033
21
-75.2751
0
LINE
8
BLACK
6
CONTINUOUS
10
98.033
20
-75.2751
11
97.9975
21
-75.4538
0
LINE
8
BLACK
6
CONTINUOUS
10
97.9975
20
-75.4538
11
97.9277
21
-75.6222
0
LINE
8
BLACK
6
CONTINUOUS
10
97.9277
20
-75.6222
11
97.8265
21
-75.7737
0
LINE
8
BLACK
6
CONTINUOUS
10
97.8265
20
-75.7737
11
97.6977
21
-75.9025
0
LINE
8
BLACK
6
CONTINUOUS
10
97.6977
20
-75.9025
11
97.5462
21
-76.0037
0
LINE
8
BLACK
6
CONTINUOUS
10
97.5462
20
-76.0037
11
97.3778
21
-76.0735
0
LINE
8
BLACK
6
CONTINUOUS
10
97.3778
20
-76.0735
11
97.1991
21
-76.109
0
LINE
8
BLACK
6
CONTINUOUS
10
97.1991
20
-76.109
11
97.0169
21
-76.109
0
LINE
8
BLACK
6
CONTINUOUS
10
97.0169
20
-76.109
11
96.8382
21
-76.0735
0
LINE
8
BLACK
6
CONTINUOUS
10
96.8382
20
-76.0735
11
96.6698
21
-76.0037
0
LINE
8
BLACK
6
CONTINUOUS
10
96.6698
20
-76.0037
11
96.5183
21
-75.9025
0
LINE
8
BLACK
6
CONTINUOUS
10
96.5183
20
-75.9025
11
96.3895
21
-75.7737
0
LINE
8
BLACK
6
CONTINUOUS
10
96.3895
20
-75.7737
11
96.2883
21
-75.6222
0
LINE
8
BLACK
6
CONTINUOUS
10
96.2883
20
-75.6222
11
96.2185
21
-75.4538
0
LINE
8
BLACK
6
CONTINUOUS
10
96.2185
20
-75.4538
11
96.183
21
-75.2751
0
LINE
8
BLACK
6
CONTINUOUS
10
96.183
20
-75.2751
11
96.183
21
-75.1075
0
LINE
8
BLACK
6
CONTINUOUS
10
96.183
20
-75.1075
11
95.8675
21
-74.792
0
LINE
8
BLACK
6
CONTINUOUS
10
95.8675
20
-74.792
11
91
21
-74.792
0
LINE
8
BLACK
6
CONTINUOUS
10
91
20
-74.792
11
91
21
-77.7185
0
LINE
8
BLACK
6
CONTINUOUS
10
91
20
-77.7185
11
91.0029
21
-77.748
0
LINE
8
BLACK
6
CONTINUOUS
10
91.0029
20
-77.748
11
91
21
-77.7775
0
LINE
8
BLACK
6
CONTINUOUS
10
91
20
-77.7775
11
91
21
-77.7775
0
LINE
8
BLACK
6
CONTINUOUS
10
91
20
-77.7775
11
90.9913
21
-77.8656
0
LINE
8
BLACK
6
CONTINUOUS
10
90.9913
20
-77.8656
11
90.957
21
-77.9787
0
LINE
8
BLACK
6
CONTINUOUS
10
90.957
20
-77.9787
11
90.9013
21
-78.083
0
LINE
8
BLACK
6
CONTINUOUS
10
90.9013
20
-78.083
11
90.8263
21
-78.1743
0
LINE
8
BLACK
6
CONTINUOUS
10
90.8263
20
-78.1743
11
90.8034
21
-78.1931
0
LINE
8
BLACK
6
CONTINUOUS
10
90.8034
20
-78.1931
11
90.2966
21
-78.6999
0
LINE
8
BLACK
6
CONTINUOUS
10
90.2966
20
-78.6999
11
90.3424
21
-78.8105
0
LINE
8
BLACK
6
CONTINUOUS
10
90.3424
20
-78.8105
11
90.4
21
-79.1003
0
LINE
8
BLACK
6
CONTINUOUS
10
90.4
20
-79.1003
11
90.4
21
-79.3957
0
LINE
8
BLACK
6
CONTINUOUS
10
90.4
20
-79.3957
11
90.3424
21
-79.6855
0
LINE
8
BLACK
6
CONTINUOUS
10
90.3424
20
-79.6855
11
90.2293
21
-79.9585
0
LINE
8
BLACK
6
CONTINUOUS
10
90.2293
20
-79.9585
11
90.0651
21
-80.2042
0
LINE
8
BLACK
6
CONTINUOUS
10
90.0651
20
-80.2042
11
89.8562
21
-80.4131
0
LINE
8
BLACK
6
CONTINUOUS
10
89.8562
20
-80.4131
11
89.6105
21
-80.5773
0
LINE
8
BLACK
6
CONTINUOUS
10
89.6105
20
-80.5773
11
89.3375
21
-80.6904
0
LINE
8
BLACK
6
CONTINUOUS
10
89.3375
20
-80.6904
11
89.0477
21
-80.748
0
LINE
8
BLACK
6
CONTINUOUS
10
89.0477
20
-80.748
11
88.7523
21
-80.748
0
LINE
8
BLACK
6
CONTINUOUS
10
88.7523
20
-80.748
11
88.4625
21
-80.6904
0
LINE
8
BLACK
6
CONTINUOUS
10
88.4625
20
-80.6904
11
88.352
21
-80.6446
0
LINE
8
BLACK
6
CONTINUOUS
10
88.352
20
-80.6446
11
85.944
21
-83.0525
0
LINE
8
BLACK
6
CONTINUOUS
10
85.944
20
-83.0525
11
85.944
21
-86.6195
0
LINE
8
BLACK
6
CONTINUOUS
10
85.944
20
-86.6195
11
86.1005
21
-86.776
0
LINE
8
BLACK
6
CONTINUOUS
10
86.1005
20
-86.776
11
96.036
21
-86.776
0
LINE
8
BLACK
6
CONTINUOUS
10
96.036
20
-86.776
11
96.036
21
-85.876
0
LINE
8
BLACK
6
CONTINUOUS
10
96.036
20
-85.876
11
99.036
21
-85.876
0
LINE
8
BLACK
6
CONTINUOUS
10
99.036
20
-85.876
11
99.036
21
-88.876
0
LINE
8
BLACK
6
CONTINUOUS
10
99.036
20
-88.876
11
96.036
21
-88.876
0
LINE
8
BLACK
6
CONTINUOUS
10
96.036
20
-88.876
11
96.036
21
-87.976
0
LINE
8
BLACK
6
CONTINUOUS
10
96.036
20
-87.976
11
85.8815
21
-87.976
0
LINE
8
BLACK
6
CONTINUOUS
10
85.8815
20
-87.976
11
85.852
21
-87.9789
0
LINE
8
BLACK
6
CONTINUOUS
10
85.852
20
-87.9789
11
85.8225
21
-87.976
0
LINE
8
BLACK
6
CONTINUOUS
10
85.8225
20
-87.976
11
85.8225
21
-87.976
0
LINE
8
BLACK
6
CONTINUOUS
10
85.8225
20
-87.976
11
85.7456
21
-87.9684
0
LINE
8
BLACK
6
CONTINUOUS
10
85.7456
20
-87.9684
11
85.7344
21
-87.9673
0
LINE
8
BLACK
6
CONTINUOUS
10
85.7344
20
-87.9673
11
85.7001
21
-87.9569
0
LINE
8
BLACK
6
CONTINUOUS
10
85.7001
20
-87.9569
11
85.6213
21
-87.933
0
LINE
8
BLACK
6
CONTINUOUS
10
85.6213
20
-87.933
11
85.517
21
-87.8773
0
LINE
8
BLACK
6
CONTINUOUS
10
85.517
20
-87.8773
11
85.4257
21
-87.8023
0
LINE
8
BLACK
6
CONTINUOUS
10
85.4257
20
-87.8023
11
85.4069
21
-87.7794
0
LINE
8
BLACK
6
CONTINUOUS
10
85.4069
20
-87.7794
11
84.9406
21
-87.3131
0
LINE
8
BLACK
6
CONTINUOUS
10
84.9406
20
-87.3131
11
84.9177
21
-87.2943
0
LINE
8
BLACK
6
CONTINUOUS
10
84.9177
20
-87.2943
11
84.8427
21
-87.203
0
LINE
8
BLACK
6
CONTINUOUS
10
84.8427
20
-87.203
11
84.787
21
-87.0987
0
LINE
8
BLACK
6
CONTINUOUS
10
84.787
20
-87.0987
11
84.7527
21
-86.9856
0
LINE
8
BLACK
6
CONTINUOUS
10
84.7527
20
-86.9856
11
84.7411
21
-86.868
0
LINE
8
BLACK
6
CONTINUOUS
10
84.7411
20
-86.868
11
84.744
21
-86.8385
0
LINE
8
BLACK
6
CONTINUOUS
10
84.744
20
-86.8385
11
84.744
21
-82.8335
0
LINE
8
BLACK
6
CONTINUOUS
10
84.744
20
-82.8335
11
84.7411
21
-82.804
0
LINE
8
BLACK
6
CONTINUOUS
10
84.7411
20
-82.804
11
84.7527
21
-82.6864
0
LINE
8
BLACK
6
CONTINUOUS
10
84.7527
20
-82.6864
11
84.7768
21
-82.6067
0
LINE
8
BLACK
6
CONTINUOUS
10
84.7768
20
-82.6067
11
84.787
21
-82.5733
0
LINE
8
BLACK
6
CONTINUOUS
10
84.787
20
-82.5733
11
84.8427
21
-82.469
0
LINE
8
BLACK
6
CONTINUOUS
10
84.8427
20
-82.469
11
84.9177
21
-82.3777
0
LINE
8
BLACK
6
CONTINUOUS
10
84.9177
20
-82.3777
11
84.9406
21
-82.3589
0
LINE
8
BLACK
6
CONTINUOUS
10
84.9406
20
-82.3589
11
87.5034
21
-79.796
0
LINE
8
BLACK
6
CONTINUOUS
10
87.5034
20
-79.796
11
87.4576
21
-79.6855
0
LINE
8
BLACK
6
CONTINUOUS
10
87.4576
20
-79.6855
11
87.4
21
-79.3957
0
LINE
8
BLACK
6
CONTINUOUS
10
87.4
20
-79.3957
11
87.4
21
-79.1003
0
LINE
8
BLACK
6
CONTINUOUS
10
87.4
20
-79.1003
11
87.4576
21
-78.8105
0
LINE
8
BLACK
6
CONTINUOUS
10
87.4576
20
-78.8105
11
87.5707
21
-78.5375
0
LINE
8
BLACK
6
CONTINUOUS
10
87.5707
20
-78.5375
11
87.7349
21
-78.2918
0
LINE
8
BLACK
6
CONTINUOUS
10
87.7349
20
-78.2918
11
87.9438
21
-78.0829
0
LINE
8
BLACK
6
CONTINUOUS
10
87.9438
20
-78.0829
11
88.1895
21
-77.9187
0
LINE
8
BLACK
6
CONTINUOUS
10
88.1895
20
-77.9187
11
88.4625
21
-77.8056
0
LINE
8
BLACK
6
CONTINUOUS
10
88.4625
20
-77.8056
11
88.7523
21
-77.748
0
LINE
8
BLACK
6
CONTINUOUS
10
88.7523
20
-77.748
11
89.0477
21
-77.748
0
LINE
8
BLACK
6
CONTINUOUS
10
89.0477
20
-77.748
11
89.3375
21
-77.8056
0
LINE
8
BLACK
6
CONTINUOUS
10
89.3375
20
-77.8056
11
89.4481
21
-77.8514
0
LINE
8
BLACK
6
CONTINUOUS
10
89.4481
20
-77.8514
11
89.8
21
-77.4995
0
LINE
8
BLACK
6
CONTINUOUS
10
89.8
20
-77.4995
11
89.8
21
-74.2215
0
LINE
8
BLACK
6
CONTINUOUS
10
89.8
20
-74.2215
11
89.7971
21
-74.192
0
LINE
8
BLACK
6
CONTINUOUS
10
89.7971
20
-74.192
11
89.8087
21
-74.0744
0
LINE
8
BLACK
6
CONTINUOUS
10
89.8087
20
-74.0744
11
89.843
21
-73.9613
0
LINE
8
BLACK
6
CONTINUOUS
10
89.843
20
-73.9613
11
89.8987
21
-73.857
0
LINE
8
BLACK
6
CONTINUOUS
10
89.8987
20
-73.857
11
89.9737
21
-73.7657
0
LINE
8
BLACK
6
CONTINUOUS
10
89.9737
20
-73.7657
11
90.065
21
-73.6907
0
LINE
8
BLACK
6
CONTINUOUS
10
90.065
20
-73.6907
11
90.1693
21
-73.635
0
LINE
8
BLACK
6
CONTINUOUS
10
90.1693
20
-73.635
11
90.2824
21
-73.6007
0
LINE
8
BLACK
6
CONTINUOUS
10
90.2824
20
-73.6007
11
90.3705
21
-73.592
0
LINE
8
BLACK
6
CONTINUOUS
10
90.3705
20
-73.592
11
90.4
21
-73.5891
0
LINE
8
BLACK
6
CONTINUOUS
10
90.4
20
-73.5891
11
90.4295
21
-73.592
0
LINE
8
BLACK
6
CONTINUOUS
10
90.4295
20
-73.592
11
96.0865
21
-73.592
0
LINE
8
BLACK
6
CONTINUOUS
10
96.0865
20
-73.592
11
96.116
21
-73.5891
0
LINE
8
BLACK
6
CONTINUOUS
10
96.116
20
-73.5891
11
96.1455
21
-73.592
0
LINE
8
BLACK
6
CONTINUOUS
10
96.1455
20
-73.592
11
96.2336
21
-73.6007
0
LINE
8
BLACK
6
CONTINUOUS
10
96.2336
20
-73.6007
11
96.3467
21
-73.635
0
LINE
8
BLACK
6
CONTINUOUS
10
96.3467
20
-73.635
11
96.451
21
-73.6907
0
LINE
8
BLACK
6
CONTINUOUS
10
96.451
20
-73.6907
11
96.52
21
-73.7474
0
LINE
8
BLACK
6
CONTINUOUS
10
96.52
20
-73.7474
11
96.5274
21
-73.7229
0
LINE
8
BLACK
6
CONTINUOUS
10
96.5274
20
-73.7229
11
96.551
21
-73.6451
0
LINE
8
BLACK
6
CONTINUOUS
10
96.551
20
-73.6451
11
96.6067
21
-73.5409
0
LINE
8
BLACK
6
CONTINUOUS
10
96.6067
20
-73.5409
11
96.6817
21
-73.4495
0
LINE
8
BLACK
6
CONTINUOUS
10
96.6817
20
-73.4495
11
96.7046
21
-73.4307
0
LINE
8
BLACK
6
CONTINUOUS
10
96.7046
20
-73.4307
11
98.9107
21
-71.2246
0
LINE
8
BLACK
6
CONTINUOUS
10
98.9107
20
-71.2246
11
98.9295
21
-71.2017
0
LINE
8
BLACK
6
CONTINUOUS
10
98.9295
20
-71.2017
11
99.0209
21
-71.1267
0
LINE
8
BLACK
6
CONTINUOUS
10
99.0209
20
-71.1267
11
99.1251
21
-71.071
0
LINE
8
BLACK
6
CONTINUOUS
10
99.1251
20
-71.071
11
99.2382
21
-71.0367
0
LINE
8
BLACK
6
CONTINUOUS
10
99.2382
20
-71.0367
11
99.3559
21
-71.0251
0
LINE
8
BLACK
6
CONTINUOUS
10
99.3559
20
-71.0251
11
99.3853
21
-71.028
0
LINE
8
BLACK
6
CONTINUOUS
10
99.3853
20
-71.028
11
110.555
21
-71.028
0
LINE
8
BLACK
6
CONTINUOUS
10
110.555
20
-71.028
11
110.584
21
-71.0251
0
LINE
8
BLACK
6
CONTINUOUS
10
110.584
20
-71.0251
11
110.613
21
-71.028
0
LINE
8
BLACK
6
CONTINUOUS
10
105.667
20
-72.552
11
105.756
21
-72.5607
0
LINE
8
BLACK
6
CONTINUOUS
10
105.756
20
-72.5607
11
105.869
21
-72.595
0
LINE
8
BLACK
6
CONTINUOUS
10
105.869
20
-72.595
11
105.973
21
-72.6507
0
LINE
8
BLACK
6
CONTINUOUS
10
105.973
20
-72.6507
11
106.064
21
-72.7257
0
LINE
8
BLACK
6
CONTINUOUS
10
106.064
20
-72.7257
11
106.083
21
-72.7486
0
LINE
8
BLACK
6
CONTINUOUS
10
106.083
20
-72.7486
11
110.131
21
-76.7969
0
LINE
8
BLACK
6
CONTINUOUS
10
110.131
20
-76.7969
11
110.154
21
-76.8157
0
LINE
8
BLACK
6
CONTINUOUS
10
110.154
20
-76.8157
11
110.229
21
-76.9071
0
LINE
8
BLACK
6
CONTINUOUS
10
110.229
20
-76.9071
11
110.285
21
-77.0113
0
LINE
8
BLACK
6
CONTINUOUS
10
110.285
20
-77.0113
11
110.319
21
-77.1244
0
LINE
8
BLACK
6
CONTINUOUS
10
110.319
20
-77.1244
11
110.331
21
-77.2421
0
LINE
8
BLACK
6
CONTINUOUS
10
110.331
20
-77.2421
11
110.328
21
-77.2715
0
LINE
8
BLACK
6
CONTINUOUS
10
110.328
20
-77.2715
11
110.328
21
-77.8696
0
LINE
8
BLACK
6
CONTINUOUS
10
110.328
20
-77.8696
11
110.378
21
-77.9628
0
LINE
8
BLACK
6
CONTINUOUS
10
110.378
20
-77.9628
11
110.418
21
-78.0948
0
LINE
8
BLACK
6
CONTINUOUS
10
110.418
20
-78.0948
11
110.431
21
-78.232
0
LINE
8
BLACK
6
CONTINUOUS
10
110.431
20
-78.232
11
110.418
21
-78.3692
0
LINE
8
BLACK
6
CONTINUOUS
10
110.418
20
-78.3692
11
110.378
21
-78.5012
0
LINE
8
BLACK
6
CONTINUOUS
10
110.378
20
-78.5012
11
110.328
21
-78.5944
0
LINE
8
BLACK
6
CONTINUOUS
10
110.328
20
-78.5944
11
110.328
21
-81.3305
0
LINE
8
BLACK
6
CONTINUOUS
10
110.328
20
-81.3305
11
110.331
21
-81.36
0
LINE
8
BLACK
6
CONTINUOUS
10
110.331
20
-81.36
11
110.328
21
-81.3895
0
LINE
8
BLACK
6
CONTINUOUS
10
110.328
20
-81.3895
11
110.319
21
-81.4776
0
LINE
8
BLACK
6
CONTINUOUS
10
110.319
20
-81.4776
11
110.285
21
-81.5907
0
LINE
8
BLACK
6
CONTINUOUS
10
110.285
20
-81.5907
11
110.229
21
-81.695
0
LINE
8
BLACK
6
CONTINUOUS
10
110.229
20
-81.695
11
110.154
21
-81.7863
0
LINE
8
BLACK
6
CONTINUOUS
10
110.154
20
-81.7863
11
110.131
21
-81.8051
0
LINE
8
BLACK
6
CONTINUOUS
10
110.131
20
-81.8051
11
109.703
21
-82.2333
0
LINE
8
BLACK
6
CONTINUOUS
10
109.703
20
-82.2333
11
109.712
21
-82.2775
0
LINE
8
BLACK
6
CONTINUOUS
10
109.712
20
-82.2775
11
109.712
21
-82.4745
0
LINE
8
BLACK
6
CONTINUOUS
10
109.712
20
-82.4745
11
109.703
21
-82.5187
0
LINE
8
BLACK
6
CONTINUOUS
10
109.703
20
-82.5187
11
110.913
21
-83.728
0
LINE
8
BLACK
6
CONTINUOUS
10
110.913
20
-83.728
11
114.324
21
-83.728
0
LINE
8
BLACK
6
CONTINUOUS
10
114.324
20
-83.728
11
114.324
21
-82.828
0
LINE
8
BLACK
6
CONTINUOUS
10
114.324
20
-82.828
11
117.324
21
-82.828
0
LINE
8
BLACK
6
CONTINUOUS
10
117.324
20
-82.828
11
117.324
21
-85.828
0
LINE
8
BLACK
6
CONTINUOUS
10
117.324
20
-85.828
11
114.324
21
-85.828
0
LINE
8
BLACK
6
CONTINUOUS
10
114.324
20
-85.828
11
114.324
21
-84.928
0
LINE
8
BLACK
6
CONTINUOUS
10
114.324
20
-84.928
11
110.693
21
-84.928
0
LINE
8
BLACK
6
CONTINUOUS
10
110.693
20
-84.928
11
110.664
21
-84.9309
0
LINE
8
BLACK
6
CONTINUOUS
10
110.664
20
-84.9309
11
110.546
21
-84.9193
0
LINE
8
BLACK
6
CONTINUOUS
10
110.546
20
-84.9193
11
110.433
21
-84.885
0
LINE
8
BLACK
6
CONTINUOUS
10
110.433
20
-84.885
11
110.397
21
-84.8656
0
LINE
8
BLACK
6
CONTINUOUS
10
110.397
20
-84.8656
11
110.329
21
-84.8293
0
LINE
8
BLACK
6
CONTINUOUS
10
110.329
20
-84.8293
11
110.238
21
-84.7543
0
LINE
8
BLACK
6
CONTINUOUS
10
110.238
20
-84.7543
11
110.219
21
-84.7314
0
LINE
8
BLACK
6
CONTINUOUS
10
110.219
20
-84.7314
11
108.855
21
-83.3672
0
LINE
8
BLACK
6
CONTINUOUS
10
108.855
20
-83.3672
11
108.81
21
-83.376
0
LINE
8
BLACK
6
CONTINUOUS
10
108.81
20
-83.376
11
108.614
21
-83.376
0
LINE
8
BLACK
6
CONTINUOUS
10
108.614
20
-83.376
11
108.42
21
-83.3376
0
LINE
8
BLACK
6
CONTINUOUS
10
108.42
20
-83.3376
11
108.238
21
-83.2622
0
LINE
8
BLACK
6
CONTINUOUS
10
108.238
20
-83.2622
11
108.075
21
-83.1528
0
LINE
8
BLACK
6
CONTINUOUS
10
108.075
20
-83.1528
11
107.935
21
-83.0135
0
LINE
8
BLACK
6
CONTINUOUS
10
107.935
20
-83.0135
11
107.826
21
-82.8497
0
LINE
8
BLACK
6
CONTINUOUS
10
107.826
20
-82.8497
11
107.75
21
-82.6677
0
LINE
8
BLACK
6
CONTINUOUS
10
107.75
20
-82.6677
11
107.712
21
-82.4745
0
LINE
8
BLACK
6
CONTINUOUS
10
107.712
20
-82.4745
11
107.712
21
-82.2775
0
LINE
8
BLACK
6
CONTINUOUS
10
107.712
20
-82.2775
11
107.75
21
-82.0843
0
LINE
8
BLACK
6
CONTINUOUS
10
107.75
20
-82.0843
11
107.826
21
-81.9023
0
LINE
8
BLACK
6
CONTINUOUS
10
107.826
20
-81.9023
11
107.935
21
-81.7385
0
LINE
8
BLACK
6
CONTINUOUS
10
107.935
20
-81.7385
11
108.075
21
-81.5992
0
LINE
8
BLACK
6
CONTINUOUS
10
108.075
20
-81.5992
11
108.238
21
-81.4898
0
LINE
8
BLACK
6
CONTINUOUS
10
108.238
20
-81.4898
11
108.42
21
-81.4144
0
LINE
8
BLACK
6
CONTINUOUS
10
108.42
20
-81.4144
11
108.614
21
-81.376
0
LINE
8
BLACK
6
CONTINUOUS
10
108.614
20
-81.376
11
108.81
21
-81.376
0
LINE
8
BLACK
6
CONTINUOUS
10
108.81
20
-81.376
11
108.855
21
-81.3848
0
LINE
8
BLACK
6
CONTINUOUS
10
108.855
20
-81.3848
11
109.128
21
-81.1115
0
LINE
8
BLACK
6
CONTINUOUS
10
109.128
20
-81.1115
11
109.128
21
-78.5944
0
LINE
8
BLACK
6
CONTINUOUS
10
109.128
20
-78.5944
11
109.078
21
-78.5012
0
LINE
8
BLACK
6
CONTINUOUS
10
109.078
20
-78.5012
11
109.038
21
-78.3692
0
LINE
8
BLACK
6
CONTINUOUS
10
109.038
20
-78.3692
11
109.025
21
-78.232
0
LINE
8
BLACK
6
CONTINUOUS
10
109.025
20
-78.232
11
109.038
21
-78.0948
0
LINE
8
BLACK
6
CONTINUOUS
10
109.038
20
-78.0948
11
109.078
21
-77.9628
0
LINE
8
BLACK
6
CONTINUOUS
10
109.078
20
-77.9628
11
109.128
21
-77.8696
0
LINE
8
BLACK
6
CONTINUOUS
10
109.128
20
-77.8696
11
109.128
21
-77.4906
0
LINE
8
BLACK
6
CONTINUOUS
10
109.128
20
-77.4906
11
105.389
21
-73.752
0
LINE
8
BLACK
6
CONTINUOUS
10
105.389
20
-73.752
11
100.58
21
-73.752
0
LINE
8
BLACK
6
CONTINUOUS
10
100.58
20
-73.752
11
100.208
21
-74.1244
0
LINE
8
BLACK
6
CONTINUOUS
10
100.208
20
-74.1244
11
100.208
21
-74.4759
0
LINE
8
BLACK
6
CONTINUOUS
10
100.208
20
-74.4759
11
100.326
21
-74.5943
0
LINE
8
BLACK
6
CONTINUOUS
10
100.326
20
-74.5943
11
100.428
21
-74.7458
0
LINE
8
BLACK
6
CONTINUOUS
10
100.428
20
-74.7458
11
100.497
21
-74.9142
0
LINE
8
BLACK
6
CONTINUOUS
10
100.497
20
-74.9142
11
100.533
21
-75.0929
0
LINE
8
BLACK
6
CONTINUOUS
10
100.533
20
-75.0929
11
100.533
21
-75.2751
0
LINE
8
BLACK
6
CONTINUOUS
10
100.533
20
-75.2751
11
100.497
21
-75.4538
0
LINE
8
BLACK
6
CONTINUOUS
10
100.497
20
-75.4538
11
100.428
21
-75.6222
0
LINE
8
BLACK
6
CONTINUOUS
10
100.428
20
-75.6222
11
100.326
21
-75.7737
0
LINE
8
BLACK
6
CONTINUOUS
10
100.326
20
-75.7737
11
100.198
21
-75.9025
0
LINE
8
BLACK
6
CONTINUOUS
10
100.198
20
-75.9025
11
100.046
21
-76.0037
0
LINE
8
BLACK
6
CONTINUOUS
10
100.046
20
-76.0037
11
99.8778
21
-76.0735
0
LINE
8
BLACK
6
CONTINUOUS
10
99.8778
20
-76.0735
11
99.6991
21
-76.109
0
LINE
8
BLACK
6
CONTINUOUS
10
99.6991
20
-76.109
11
99.5169
21
-76.109
0
LINE
8
BLACK
6
CONTINUOUS
10
99.5169
20
-76.109
11
99.3382
21
-76.0735
0
LINE
8
BLACK
6
CONTINUOUS
10
99.3382
20
-76.0735
11
99.1698
21
-76.0037
0
LINE
8
BLACK
6
CONTINUOUS
10
99.1698
20
-76.0037
11
99.0183
21
-75.9025
0
LINE
8
BLACK
6
CONTINUOUS
10
99.0183
20
-75.9025
11
98.8895
21
-75.7737
0
LINE
8
BLACK
6
CONTINUOUS
10
98.8895
20
-75.7737
11
98.7883
21
-75.6222
0
LINE
8
BLACK
6
CONTINUOUS
10
98.7883
20
-75.6222
11
98.7185
21
-75.4538
0
LINE
8
BLACK
6
CONTINUOUS
10
98.7185
20
-75.4538
11
98.683
21
-75.2751
0
LINE
8
BLACK
6
CONTINUOUS
10
98.683
20
-75.2751
11
98.683
21
-75.0929
0
LINE
8
BLACK
6
CONTINUOUS
10
98.683
20
-75.0929
11
98.7185
21
-74.9142
0
LINE
8
BLACK
6
CONTINUOUS
10
98.7185
20
-74.9142
11
98.7883
21
-74.7458
0
LINE
8
BLACK
6
CONTINUOUS
10
98.7883
20
-74.7458
11
98.8895
21
-74.5943
0
LINE
8
BLACK
6
CONTINUOUS
10
98.8895
20
-74.5943
11
99.008
21
-74.4759
0
LINE
8
BLACK
6
CONTINUOUS
10
99.008
20
-74.4759
11
99.008
21
-73.9053
0
LINE
8
BLACK
6
CONTINUOUS
10
99.008
20
-73.9053
11
99.0051
21
-73.8759
0
LINE
8
BLACK
6
CONTINUOUS
10
99.0051
20
-73.8759
11
99.0167
21
-73.7582
0
LINE
8
BLACK
6
CONTINUOUS
10
99.0167
20
-73.7582
11
99.051
21
-73.6451
0
LINE
8
BLACK
6
CONTINUOUS
10
99.051
20
-73.6451
11
99.0564
21
-73.635
0
LINE
8
BLACK
6
CONTINUOUS
10
99.0564
20
-73.635
11
99.1067
21
-73.5409
0
LINE
8
BLACK
6
CONTINUOUS
10
99.1067
20
-73.5409
11
99.1817
21
-73.4495
0
LINE
8
BLACK
6
CONTINUOUS
10
99.1817
20
-73.4495
11
99.2046
21
-73.4307
0
LINE
8
BLACK
6
CONTINUOUS
10
99.2046
20
-73.4307
11
99.8867
21
-72.7486
0
LINE
8
BLACK
6
CONTINUOUS
10
99.8867
20
-72.7486
11
99.9055
21
-72.7257
0
LINE
8
BLACK
6
CONTINUOUS
10
99.9055
20
-72.7257
11
99.9969
21
-72.6507
0
LINE
8
BLACK
6
CONTINUOUS
10
99.9969
20
-72.6507
11
100.101
21
-72.595
0
LINE
8
BLACK
6
CONTINUOUS
10
100.101
20
-72.595
11
100.214
21
-72.5607
0
LINE
8
BLACK
6
CONTINUOUS
10
100.214
20
-72.5607
11
100.302
21
-72.552
0
LINE
8
BLACK
6
CONTINUOUS
10
100.302
20
-72.552
11
100.332
21
-72.5491
0
LINE
8
BLACK
6
CONTINUOUS
10
100.332
20
-72.5491
11
100.361
21
-72.552
0
LINE
8
BLACK
6
CONTINUOUS
10
100.361
20
-72.552
11
105.608
21
-72.552
0
LINE
8
BLACK
6
CONTINUOUS
10
105.608
20
-72.552
11
105.638
21
-72.5491
0
LINE
8
BLACK
6
CONTINUOUS
10
105.638
20
-72.5491
11
105.667
21
-72.552
0
LINE
8
BLACK
6
CONTINUOUS
10
107.392
20
-77.5589
11
107.52
21
-77.6117
0
LINE
8
BLACK
6
CONTINUOUS
10
107.52
20
-77.6117
11
107.634
21
-77.6883
0
LINE
8
BLACK
6
CONTINUOUS
10
107.634
20
-77.6883
11
107.732
21
-77.7858
0
LINE
8
BLACK
6
CONTINUOUS
10
107.732
20
-77.7858
11
107.808
21
-77.9004
0
LINE
8
BLACK
6
CONTINUOUS
10
107.808
20
-77.9004
11
107.861
21
-78.0278
0
LINE
8
BLACK
6
CONTINUOUS
10
107.861
20
-78.0278
11
107.888
21
-78.1631
0
LINE
8
BLACK
6
CONTINUOUS
10
107.888
20
-78.1631
11
107.888
21
-78.3009
0
LINE
8
BLACK
6
CONTINUOUS
10
107.888
20
-78.3009
11
107.861
21
-78.4362
0
LINE
8
BLACK
6
CONTINUOUS
10
107.861
20
-78.4362
11
107.808
21
-78.5636
0
LINE
8
BLACK
6
CONTINUOUS
10
107.808
20
-78.5636
11
107.732
21
-78.6782
0
LINE
8
BLACK
6
CONTINUOUS
10
107.732
20
-78.6782
11
107.634
21
-78.7757
0
LINE
8
BLACK
6
CONTINUOUS
10
107.634
20
-78.7757
11
107.52
21
-78.8523
0
LINE
8
BLACK
6
CONTINUOUS
10
107.52
20
-78.8523
11
107.392
21
-78.9051
0
LINE
8
BLACK
6
CONTINUOUS
10
107.392
20
-78.9051
11
107.356
21
-78.9122
0
LINE
8
BLACK
6
CONTINUOUS
10
107.356
20
-78.9122
11
103.548
21
-82.7206
0
LINE
8
BLACK
6
CONTINUOUS
10
103.548
20
-82.7206
11
103.573
21
-82.7578
0
LINE
8
BLACK
6
CONTINUOUS
10
103.573
20
-82.7578
11
103.661
21
-82.9707
0
LINE
8
BLACK
6
CONTINUOUS
10
103.661
20
-82.9707
11
103.706
21
-83.1968
0
LINE
8
BLACK
6
CONTINUOUS
10
103.706
20
-83.1968
11
103.706
21
-83.4272
0
LINE
8
BLACK
6
CONTINUOUS
10
103.706
20
-83.4272
11
103.661
21
-83.6533
0
LINE
8
BLACK
6
CONTINUOUS
10
103.661
20
-83.6533
11
103.573
21
-83.8662
0
LINE
8
BLACK
6
CONTINUOUS
10
103.573
20
-83.8662
11
103.445
21
-84.0578
0
LINE
8
BLACK
6
CONTINUOUS
10
103.445
20
-84.0578
11
103.282
21
-84.2208
0
LINE
8
BLACK
6
CONTINUOUS
10
103.282
20
-84.2208
11
103.09
21
-84.3488
0
LINE
8
BLACK
6
CONTINUOUS
10
103.09
20
-84.3488
11
102.877
21
-84.437
0
LINE
8
BLACK
6
CONTINUOUS
10
102.877
20
-84.437
11
102.651
21
-84.482
0
LINE
8
BLACK
6
CONTINUOUS
10
102.651
20
-84.482
11
102.421
21
-84.482
0
LINE
8
BLACK
6
CONTINUOUS
10
102.421
20
-84.482
11
102.195
21
-84.437
0
LINE
8
BLACK
6
CONTINUOUS
10
102.195
20
-84.437
11
101.982
21
-84.3488
0
LINE
8
BLACK
6
CONTINUOUS
10
101.982
20
-84.3488
11
101.79
21
-84.2208
0
LINE
8
BLACK
6
CONTINUOUS
10
101.79
20
-84.2208
11
101.627
21
-84.0578
0
LINE
8
BLACK
6
CONTINUOUS
10
101.627
20
-84.0578
11
101.499
21
-83.8662
0
LINE
8
BLACK
6
CONTINUOUS
10
101.499
20
-83.8662
11
101.411
21
-83.6533
0
LINE
8
BLACK
6
CONTINUOUS
10
101.411
20
-83.6533
11
101.366
21
-83.4272
0
LINE
8
BLACK
6
CONTINUOUS
10
101.366
20
-83.4272
11
101.366
21
-83.1968
0
LINE
8
BLACK
6
CONTINUOUS
10
101.366
20
-83.1968
11
101.411
21
-82.9707
0
LINE
8
BLACK
6
CONTINUOUS
10
101.411
20
-82.9707
11
101.499
21
-82.7578
0
LINE
8
BLACK
6
CONTINUOUS
10
101.499
20
-82.7578
11
101.627
21
-82.5662
0
LINE
8
BLACK
6
CONTINUOUS
10
101.627
20
-82.5662
11
101.79
21
-82.4032
0
LINE
8
BLACK
6
CONTINUOUS
10
101.79
20
-82.4032
11
101.982
21
-82.2752
0
LINE
8
BLACK
6
CONTINUOUS
10
101.982
20
-82.2752
11
102.195
21
-82.187
0
LINE
8
BLACK
6
CONTINUOUS
10
102.195
20
-82.187
11
102.421
21
-82.142
0
LINE
8
BLACK
6
CONTINUOUS
10
102.421
20
-82.142
11
102.429
21
-82.142
0
LINE
8
BLACK
6
CONTINUOUS
10
102.429
20
-82.142
11
106.508
21
-78.0637
0
LINE
8
BLACK
6
CONTINUOUS
10
106.508
20
-78.0637
11
106.515
21
-78.0278
0
LINE
8
BLACK
6
CONTINUOUS
10
106.515
20
-78.0278
11
106.568
21
-77.9004
0
LINE
8
BLACK
6
CONTINUOUS
10
106.568
20
-77.9004
11
106.644
21
-77.7858
0
LINE
8
BLACK
6
CONTINUOUS
10
106.644
20
-77.7858
11
106.742
21
-77.6883
0
LINE
8
BLACK
6
CONTINUOUS
10
106.742
20
-77.6883
11
106.856
21
-77.6117
0
LINE
8
BLACK
6
CONTINUOUS
10
106.856
20
-77.6117
11
106.984
21
-77.5589
0
LINE
8
BLACK
6
CONTINUOUS
10
106.984
20
-77.5589
11
107.119
21
-77.532
0
LINE
8
BLACK
6
CONTINUOUS
10
107.119
20
-77.532
11
107.257
21
-77.532
0
LINE
8
BLACK
6
CONTINUOUS
10
107.257
20
-77.532
11
107.392
21
-77.5589
0
LINE
8
BLACK
6
CONTINUOUS
10
103.033
20
-76.109
11
102.708
21
-76.109
0
LINE
8
BLACK
6
CONTINUOUS
10
102.708
20
-76.109
11
102.708
21
-76.2105
0
LINE
8
BLACK
6
CONTINUOUS
10
102.708
20
-76.2105
11
102.711
21
-76.24
0
LINE
8
BLACK
6
CONTINUOUS
10
102.711
20
-76.24
11
102.699
21
-76.3576
0
LINE
8
BLACK
6
CONTINUOUS
10
102.699
20
-76.3576
11
102.665
21
-76.4707
0
LINE
8
BLACK
6
CONTINUOUS
10
102.665
20
-76.4707
11
102.609
21
-76.575
0
LINE
8
BLACK
6
CONTINUOUS
10
102.609
20
-76.575
11
102.534
21
-76.6663
0
LINE
8
BLACK
6
CONTINUOUS
10
102.534
20
-76.6663
11
102.511
21
-76.6851
0
LINE
8
BLACK
6
CONTINUOUS
10
102.511
20
-76.6851
11
101.172
21
-78.0247
0
LINE
8
BLACK
6
CONTINUOUS
10
101.172
20
-78.0247
11
101.206
21
-78.1968
0
LINE
8
BLACK
6
CONTINUOUS
10
101.206
20
-78.1968
11
101.206
21
-78.4272
0
LINE
8
BLACK
6
CONTINUOUS
10
101.206
20
-78.4272
11
101.161
21
-78.6533
0
LINE
8
BLACK
6
CONTINUOUS
10
101.161
20
-78.6533
11
101.073
21
-78.8662
0
LINE
8
BLACK
6
CONTINUOUS
10
101.073
20
-78.8662
11
100.945
21
-79.0578
0
LINE
8
BLACK
6
CONTINUOUS
10
100.945
20
-79.0578
11
100.782
21
-79.2208
0
LINE
8
BLACK
6
CONTINUOUS
10
100.782
20
-79.2208
11
100.59
21
-79.3488
0
LINE
8
BLACK
6
CONTINUOUS
10
100.59
20
-79.3488
11
100.377
21
-79.437
0
LINE
8
BLACK
6
CONTINUOUS
10
100.377
20
-79.437
11
100.151
21
-79.482
0
LINE
8
BLACK
6
CONTINUOUS
10
100.151
20
-79.482
11
99.9208
21
-79.482
0
LINE
8
BLACK
6
CONTINUOUS
10
99.9208
20
-79.482
11
99.6947
21
-79.437
0
LINE
8
BLACK
6
CONTINUOUS
10
99.6947
20
-79.437
11
99.4818
21
-79.3488
0
LINE
8
BLACK
6
CONTINUOUS
10
99.4818
20
-79.3488
11
99.2902
21
-79.2208
0
LINE
8
BLACK
6
CONTINUOUS
10
99.2902
20
-79.2208
11
99.1272
21
-79.0578
0
LINE
8
BLACK
6
CONTINUOUS
10
99.1272
20
-79.0578
11
98.9992
21
-78.8662
0
LINE
8
BLACK
6
CONTINUOUS
10
98.9992
20
-78.8662
11
98.911
21
-78.6533
0
LINE
8
BLACK
6
CONTINUOUS
10
98.911
20
-78.6533
11
98.866
21
-78.4272
0
LINE
8
BLACK
6
CONTINUOUS
10
98.866
20
-78.4272
11
98.866
21
-78.1968
0
LINE
8
BLACK
6
CONTINUOUS
10
98.866
20
-78.1968
11
98.911
21
-77.9707
0
LINE
8
BLACK
6
CONTINUOUS
10
98.911
20
-77.9707
11
98.9992
21
-77.7578
0
LINE
8
BLACK
6
CONTINUOUS
10
98.9992
20
-77.7578
11
99.1272
21
-77.5662
0
LINE
8
BLACK
6
CONTINUOUS
10
99.1272
20
-77.5662
11
99.2902
21
-77.4032
0
LINE
8
BLACK
6
CONTINUOUS
10
99.2902
20
-77.4032
11
99.4818
21
-77.2752
0
LINE
8
BLACK
6
CONTINUOUS
10
99.4818
20
-77.2752
11
99.6947
21
-77.187
0
LINE
8
BLACK
6
CONTINUOUS
10
99.6947
20
-77.187
11
99.9208
21
-77.142
0
LINE
8
BLACK
6
CONTINUOUS
10
99.9208
20
-77.142
11
100.151
21
-77.142
0
LINE
8
BLACK
6
CONTINUOUS
10
100.151
20
-77.142
11
100.323
21
-77.1762
0
LINE
8
BLACK
6
CONTINUOUS
10
100.323
20
-77.1762
11
101.39
21
-76.109
0
LINE
8
BLACK
6
CONTINUOUS
10
101.39
20
-76.109
11
101.183
21
-76.109
0
LINE
8
BLACK
6
CONTINUOUS
10
101.183
20
-76.109
11
101.183
21
-74.259
0
LINE
8
BLACK
6
CONTINUOUS
10
101.183
20
-74.259
11
103.033
21
-74.259
0
LINE
8
BLACK
6
CONTINUOUS
10
103.033
20
-74.259
11
103.033
21
-76.109
  0
ENDSEC
  0
EOF
