  0
SECTION
  2
HEADER
  9
$ANGBASE
  50
0.0
  9
$ANGDIR
  70
  1
  9
$MEASUREMENT
  70
0
  0
ENDSEC
  0
SECTION
  2
TABLES
  0
TABLE
  2
LTYPE
  70
4
  0
LTYPE
  5
40F
  2
CONTINUOUS
  70
0
  3
Solid line
  72
65
  73
0
  40
0.0
  0
LTYPE
  5
410
  2
DASHDOT
 70
0
  3
Dash Dot ____ _ ____ _
 72
65
 73
4
 40
2.0
 49
1.25
 49
-0.25
 49
0.25
 49
-0.25
  0
LTYPE
  5
411
  2
DASHED
 70
0
  3
Dashed __ __ __ __ __
 72
65
 73
2
 40
0.75
 49
0.5
 49
-0.25
  0
LTYPE
  5
43B
  2
DOTTED
 70
0
  3
Dotted .  .  .  .
 72
65
 73
2
 40
0.2
 49
0.0
 49
-0.2
  0
ENDTAB
  0
TABLE
  2
STYLE
  70
4
  0
STYLE
  2
KICAD
  70
0
  40
0
  41
1
  42
1
  50
0
  71
0
  3
isocp.shx
  0
STYLE
  2
KICADB
  70
0
  40
0
  41
1
  42
1
  50
0
  71
0
  3
isocp.shx
  0
STYLE
  2
KICADI
  70
0
  40
0
  41
1
  42
1
  50
15
  71
0
  3
isocp.shx
  0
STYLE
  2
KICADBI
  70
0
  40
0
  41
1
  42
1
  50
15
  71
0
  3
isocp.shx
  0
ENDTAB
  0
TABLE
  2
LAYER
  70
30
  0
LAYER
  2
BLACK
  70
0
  62
7
  6
CONTINUOUS
  0
LAYER
  2
GRAY1
  70
0
  62
251
  6
CONTINUOUS
  0
LAYER
  2
GRAY2
  70
0
  62
8
  6
CONTINUOUS
  0
LAYER
  2
GRAY3
  70
0
  62
9
  6
CONTINUOUS
  0
LAYER
  2
WHITE
  70
0
  62
7
  6
CONTINUOUS
  0
LAYER
  2
LYELLOW
  70
0
  62
51
  6
CONTINUOUS
  0
LAYER
  2
BLUE1
  70
0
  62
178
  6
CONTINUOUS
  0
LAYER
  2
GREEN1
  70
0
  62
98
  6
CONTINUOUS
  0
LAYER
  2
CYAN1
  70
0
  62
138
  6
CONTINUOUS
  0
LAYER
  2
RED1
  70
0
  62
18
  6
CONTINUOUS
  0
LAYER
  2
MAGENTA1
  70
0
  62
228
  6
CONTINUOUS
  0
LAYER
  2
BROWN1
  70
0
  62
58
  6
CONTINUOUS
  0
LAYER
  2
BLUE2
  70
0
  62
5
  6
CONTINUOUS
  0
LAYER
  2
GREEN2
  70
0
  62
3
  6
CONTINUOUS
  0
LAYER
  2
CYAN2
  70
0
  62
4
  6
CONTINUOUS
  0
LAYER
  2
RED2
  70
0
  62
1
  6
CONTINUOUS
  0
LAYER
  2
MAGENTA2
  70
0
  62
6
  6
CONTINUOUS
  0
LAYER
  2
BROWN2
  70
0
  62
54
  6
CONTINUOUS
  0
LAYER
  2
BLUE3
  70
0
  62
171
  6
CONTINUOUS
  0
LAYER
  2
GREEN3
  70
0
  62
91
  6
CONTINUOUS
  0
LAYER
  2
CYAN3
  70
0
  62
131
  6
CONTINUOUS
  0
LAYER
  2
RED3
  70
0
  62
11
  6
CONTINUOUS
  0
LAYER
  2
MAGENTA3
  70
0
  62
221
  6
CONTINUOUS
  0
LAYER
  2
YELLOW3
  70
0
  62
2
  6
CONTINUOUS
  0
LAYER
  2
BLUE4
  70
0
  62
5
  6
CONTINUOUS
  0
LAYER
  2
GREEN4
  70
0
  62
3
  6
CONTINUOUS
  0
LAYER
  2
CYAN4
  70
0
  62
4
  6
CONTINUOUS
  0
LAYER
  2
RED4
  70
0
  62
1
  6
CONTINUOUS
  0
LAYER
  2
MAGENTA4
  70
0
  62
6
  6
CONTINUOUS
  0
LAYER
  2
YELLOW4
  70
0
  62
2
  6
CONTINUOUS
  0
ENDTAB
  0
ENDSEC
  0
SECTION
  2
ENTITIES
0
LINE
8
BLACK
6
CONTINUOUS
10
116.262
20
-87.9656
11
116.535
21
-88.0787
0
LINE
8
BLACK
6
CONTINUOUS
10
116.535
20
-88.0787
11
116.78
21
-88.2429
0
LINE
8
BLACK
6
CONTINUOUS
10
116.78
20
-88.2429
11
116.989
21
-88.4518
0
LINE
8
BLACK
6
CONTINUOUS
10
116.989
20
-88.4518
11
117.153
21
-88.6975
0
LINE
8
BLACK
6
CONTINUOUS
10
117.153
20
-88.6975
11
117.266
21
-88.9705
0
LINE
8
BLACK
6
CONTINUOUS
10
117.266
20
-88.9705
11
117.324
21
-89.2603
0
LINE
8
BLACK
6
CONTINUOUS
10
117.324
20
-89.2603
11
117.324
21
-89.5557
0
LINE
8
BLACK
6
CONTINUOUS
10
117.324
20
-89.5557
11
117.266
21
-89.8455
0
LINE
8
BLACK
6
CONTINUOUS
10
117.266
20
-89.8455
11
117.153
21
-90.1185
0
LINE
8
BLACK
6
CONTINUOUS
10
117.153
20
-90.1185
11
116.989
21
-90.3642
0
LINE
8
BLACK
6
CONTINUOUS
10
116.989
20
-90.3642
11
116.78
21
-90.5731
0
LINE
8
BLACK
6
CONTINUOUS
10
116.78
20
-90.5731
11
116.535
21
-90.7373
0
LINE
8
BLACK
6
CONTINUOUS
10
116.535
20
-90.7373
11
116.262
21
-90.8504
0
LINE
8
BLACK
6
CONTINUOUS
10
116.262
20
-90.8504
11
115.972
21
-90.908
0
LINE
8
BLACK
6
CONTINUOUS
10
115.972
20
-90.908
11
115.676
21
-90.908
0
LINE
8
BLACK
6
CONTINUOUS
10
115.676
20
-90.908
11
115.386
21
-90.8504
0
LINE
8
BLACK
6
CONTINUOUS
10
115.386
20
-90.8504
11
115.113
21
-90.7373
0
LINE
8
BLACK
6
CONTINUOUS
10
115.113
20
-90.7373
11
114.868
21
-90.5731
0
LINE
8
BLACK
6
CONTINUOUS
10
114.868
20
-90.5731
11
114.659
21
-90.3642
0
LINE
8
BLACK
6
CONTINUOUS
10
114.659
20
-90.3642
11
114.495
21
-90.1185
0
LINE
8
BLACK
6
CONTINUOUS
10
114.495
20
-90.1185
11
114.382
21
-89.8455
0
LINE
8
BLACK
6
CONTINUOUS
10
114.382
20
-89.8455
11
114.324
21
-89.5557
0
LINE
8
BLACK
6
CONTINUOUS
10
114.324
20
-89.5557
11
114.324
21
-89.2603
0
LINE
8
BLACK
6
CONTINUOUS
10
114.324
20
-89.2603
11
114.382
21
-88.9705
0
LINE
8
BLACK
6
CONTINUOUS
10
114.382
20
-88.9705
11
114.495
21
-88.6975
0
LINE
8
BLACK
6
CONTINUOUS
10
114.495
20
-88.6975
11
114.659
21
-88.4518
0
LINE
8
BLACK
6
CONTINUOUS
10
114.659
20
-88.4518
11
114.868
21
-88.2429
0
LINE
8
BLACK
6
CONTINUOUS
10
114.868
20
-88.2429
11
115.113
21
-88.0787
0
LINE
8
BLACK
6
CONTINUOUS
10
115.113
20
-88.0787
11
115.386
21
-87.9656
0
LINE
8
BLACK
6
CONTINUOUS
10
115.386
20
-87.9656
11
115.676
21
-87.908
0
LINE
8
BLACK
6
CONTINUOUS
10
115.676
20
-87.908
11
115.972
21
-87.908
0
LINE
8
BLACK
6
CONTINUOUS
10
115.972
20
-87.908
11
116.262
21
-87.9656
0
LINE
8
BLACK
6
CONTINUOUS
10
99.036
20
-88.876
11
96.036
21
-88.876
0
LINE
8
BLACK
6
CONTINUOUS
10
96.036
20
-88.876
11
96.036
21
-85.876
0
LINE
8
BLACK
6
CONTINUOUS
10
96.036
20
-85.876
11
99.036
21
-85.876
0
LINE
8
BLACK
6
CONTINUOUS
10
99.036
20
-85.876
11
99.036
21
-88.876
0
LINE
8
BLACK
6
CONTINUOUS
10
103.054
20
-85.9336
11
103.327
21
-86.0467
0
LINE
8
BLACK
6
CONTINUOUS
10
103.327
20
-86.0467
11
103.572
21
-86.2109
0
LINE
8
BLACK
6
CONTINUOUS
10
103.572
20
-86.2109
11
103.781
21
-86.4198
0
LINE
8
BLACK
6
CONTINUOUS
10
103.781
20
-86.4198
11
103.945
21
-86.6655
0
LINE
8
BLACK
6
CONTINUOUS
10
103.945
20
-86.6655
11
104.058
21
-86.9385
0
LINE
8
BLACK
6
CONTINUOUS
10
104.058
20
-86.9385
11
104.116
21
-87.2283
0
LINE
8
BLACK
6
CONTINUOUS
10
104.116
20
-87.2283
11
104.116
21
-87.5237
0
LINE
8
BLACK
6
CONTINUOUS
10
104.116
20
-87.5237
11
104.058
21
-87.8135
0
LINE
8
BLACK
6
CONTINUOUS
10
104.058
20
-87.8135
11
103.945
21
-88.0865
0
LINE
8
BLACK
6
CONTINUOUS
10
103.945
20
-88.0865
11
103.781
21
-88.3322
0
LINE
8
BLACK
6
CONTINUOUS
10
103.781
20
-88.3322
11
103.572
21
-88.5411
0
LINE
8
BLACK
6
CONTINUOUS
10
103.572
20
-88.5411
11
103.327
21
-88.7053
0
LINE
8
BLACK
6
CONTINUOUS
10
103.327
20
-88.7053
11
103.054
21
-88.8184
0
LINE
8
BLACK
6
CONTINUOUS
10
103.054
20
-88.8184
11
102.764
21
-88.876
0
LINE
8
BLACK
6
CONTINUOUS
10
102.764
20
-88.876
11
102.468
21
-88.876
0
LINE
8
BLACK
6
CONTINUOUS
10
102.468
20
-88.876
11
102.178
21
-88.8184
0
LINE
8
BLACK
6
CONTINUOUS
10
102.178
20
-88.8184
11
101.905
21
-88.7053
0
LINE
8
BLACK
6
CONTINUOUS
10
101.905
20
-88.7053
11
101.66
21
-88.5411
0
LINE
8
BLACK
6
CONTINUOUS
10
101.66
20
-88.5411
11
101.451
21
-88.3322
0
LINE
8
BLACK
6
CONTINUOUS
10
101.451
20
-88.3322
11
101.287
21
-88.0865
0
LINE
8
BLACK
6
CONTINUOUS
10
101.287
20
-88.0865
11
101.174
21
-87.8135
0
LINE
8
BLACK
6
CONTINUOUS
10
101.174
20
-87.8135
11
101.116
21
-87.5237
0
LINE
8
BLACK
6
CONTINUOUS
10
101.116
20
-87.5237
11
101.116
21
-87.2283
0
LINE
8
BLACK
6
CONTINUOUS
10
101.116
20
-87.2283
11
101.174
21
-86.9385
0
LINE
8
BLACK
6
CONTINUOUS
10
101.174
20
-86.9385
11
101.287
21
-86.6655
0
LINE
8
BLACK
6
CONTINUOUS
10
101.287
20
-86.6655
11
101.451
21
-86.4198
0
LINE
8
BLACK
6
CONTINUOUS
10
101.451
20
-86.4198
11
101.66
21
-86.2109
0
LINE
8
BLACK
6
CONTINUOUS
10
101.66
20
-86.2109
11
101.905
21
-86.0467
0
LINE
8
BLACK
6
CONTINUOUS
10
101.905
20
-86.0467
11
102.178
21
-85.9336
0
LINE
8
BLACK
6
CONTINUOUS
10
102.178
20
-85.9336
11
102.468
21
-85.876
0
LINE
8
BLACK
6
CONTINUOUS
10
102.468
20
-85.876
11
102.764
21
-85.876
0
LINE
8
BLACK
6
CONTINUOUS
10
102.764
20
-85.876
11
103.054
21
-85.9336
0
LINE
8
BLACK
6
CONTINUOUS
10
109.712
20
-88.376
11
107.712
21
-88.376
0
LINE
8
BLACK
6
CONTINUOUS
10
107.712
20
-88.376
11
107.712
21
-86.376
0
LINE
8
BLACK
6
CONTINUOUS
10
107.712
20
-86.376
11
109.712
21
-86.376
0
LINE
8
BLACK
6
CONTINUOUS
10
109.712
20
-86.376
11
109.712
21
-88.376
0
LINE
8
BLACK
6
CONTINUOUS
10
90.4
20
-85.828
11
87.4
21
-85.828
0
LINE
8
BLACK
6
CONTINUOUS
10
87.4
20
-85.828
11
87.4
21
-82.828
0
LINE
8
BLACK
6
CONTINUOUS
10
87.4
20
-82.828
11
90.4
21
-82.828
0
LINE
8
BLACK
6
CONTINUOUS
10
90.4
20
-82.828
11
90.4
21
-85.828
0
LINE
8
BLACK
6
CONTINUOUS
10
117.324
20
-85.828
11
114.324
21
-85.828
0
LINE
8
BLACK
6
CONTINUOUS
10
114.324
20
-85.828
11
114.324
21
-82.828
0
LINE
8
BLACK
6
CONTINUOUS
10
114.324
20
-82.828
11
117.324
21
-82.828
0
LINE
8
BLACK
6
CONTINUOUS
10
117.324
20
-82.828
11
117.324
21
-85.828
0
LINE
8
BLACK
6
CONTINUOUS
10
102.877
20
-82.187
11
103.09
21
-82.2752
0
LINE
8
BLACK
6
CONTINUOUS
10
103.09
20
-82.2752
11
103.282
21
-82.4032
0
LINE
8
BLACK
6
CONTINUOUS
10
103.282
20
-82.4032
11
103.445
21
-82.5662
0
LINE
8
BLACK
6
CONTINUOUS
10
103.445
20
-82.5662
11
103.573
21
-82.7578
0
LINE
8
BLACK
6
CONTINUOUS
10
103.573
20
-82.7578
11
103.661
21
-82.9707
0
LINE
8
BLACK
6
CONTINUOUS
10
103.661
20
-82.9707
11
103.706
21
-83.1968
0
LINE
8
BLACK
6
CONTINUOUS
10
103.706
20
-83.1968
11
103.706
21
-83.4272
0
LINE
8
BLACK
6
CONTINUOUS
10
103.706
20
-83.4272
11
103.661
21
-83.6533
0
LINE
8
BLACK
6
CONTINUOUS
10
103.661
20
-83.6533
11
103.573
21
-83.8662
0
LINE
8
BLACK
6
CONTINUOUS
10
103.573
20
-83.8662
11
103.445
21
-84.0578
0
LINE
8
BLACK
6
CONTINUOUS
10
103.445
20
-84.0578
11
103.282
21
-84.2208
0
LINE
8
BLACK
6
CONTINUOUS
10
103.282
20
-84.2208
11
103.09
21
-84.3488
0
LINE
8
BLACK
6
CONTINUOUS
10
103.09
20
-84.3488
11
102.877
21
-84.437
0
LINE
8
BLACK
6
CONTINUOUS
10
102.877
20
-84.437
11
102.651
21
-84.482
0
LINE
8
BLACK
6
CONTINUOUS
10
102.651
20
-84.482
11
102.421
21
-84.482
0
LINE
8
BLACK
6
CONTINUOUS
10
102.421
20
-84.482
11
102.195
21
-84.437
0
LINE
8
BLACK
6
CONTINUOUS
10
102.195
20
-84.437
11
101.982
21
-84.3488
0
LINE
8
BLACK
6
CONTINUOUS
10
101.982
20
-84.3488
11
101.79
21
-84.2208
0
LINE
8
BLACK
6
CONTINUOUS
10
101.79
20
-84.2208
11
101.627
21
-84.0578
0
LINE
8
BLACK
6
CONTINUOUS
10
101.627
20
-84.0578
11
101.499
21
-83.8662
0
LINE
8
BLACK
6
CONTINUOUS
10
101.499
20
-83.8662
11
101.411
21
-83.6533
0
LINE
8
BLACK
6
CONTINUOUS
10
101.411
20
-83.6533
11
101.366
21
-83.4272
0
LINE
8
BLACK
6
CONTINUOUS
10
101.366
20
-83.4272
11
101.366
21
-83.1968
0
LINE
8
BLACK
6
CONTINUOUS
10
101.366
20
-83.1968
11
101.411
21
-82.9707
0
LINE
8
BLACK
6
CONTINUOUS
10
101.411
20
-82.9707
11
101.499
21
-82.7578
0
LINE
8
BLACK
6
CONTINUOUS
10
101.499
20
-82.7578
11
101.627
21
-82.5662
0
LINE
8
BLACK
6
CONTINUOUS
10
101.627
20
-82.5662
11
101.79
21
-82.4032
0
LINE
8
BLACK
6
CONTINUOUS
10
101.79
20
-82.4032
11
101.982
21
-82.2752
0
LINE
8
BLACK
6
CONTINUOUS
10
101.982
20
-82.2752
11
102.195
21
-82.187
0
LINE
8
BLACK
6
CONTINUOUS
10
102.195
20
-82.187
11
102.421
21
-82.142
0
LINE
8
BLACK
6
CONTINUOUS
10
102.421
20
-82.142
11
102.651
21
-82.142
0
LINE
8
BLACK
6
CONTINUOUS
10
102.651
20
-82.142
11
102.877
21
-82.187
0
LINE
8
BLACK
6
CONTINUOUS
10
97.8773
20
-82.187
11
98.0902
21
-82.2752
0
LINE
8
BLACK
6
CONTINUOUS
10
98.0902
20
-82.2752
11
98.2818
21
-82.4032
0
LINE
8
BLACK
6
CONTINUOUS
10
98.2818
20
-82.4032
11
98.4448
21
-82.5662
0
LINE
8
BLACK
6
CONTINUOUS
10
98.4448
20
-82.5662
11
98.5728
21
-82.7578
0
LINE
8
BLACK
6
CONTINUOUS
10
98.5728
20
-82.7578
11
98.661
21
-82.9707
0
LINE
8
BLACK
6
CONTINUOUS
10
98.661
20
-82.9707
11
98.706
21
-83.1968
0
LINE
8
BLACK
6
CONTINUOUS
10
98.706
20
-83.1968
11
98.706
21
-83.4272
0
LINE
8
BLACK
6
CONTINUOUS
10
98.706
20
-83.4272
11
98.661
21
-83.6533
0
LINE
8
BLACK
6
CONTINUOUS
10
98.661
20
-83.6533
11
98.5728
21
-83.8662
0
LINE
8
BLACK
6
CONTINUOUS
10
98.5728
20
-83.8662
11
98.4448
21
-84.0578
0
LINE
8
BLACK
6
CONTINUOUS
10
98.4448
20
-84.0578
11
98.2818
21
-84.2208
0
LINE
8
BLACK
6
CONTINUOUS
10
98.2818
20
-84.2208
11
98.0902
21
-84.3488
0
LINE
8
BLACK
6
CONTINUOUS
10
98.0902
20
-84.3488
11
97.8773
21
-84.437
0
LINE
8
BLACK
6
CONTINUOUS
10
97.8773
20
-84.437
11
97.6512
21
-84.482
0
LINE
8
BLACK
6
CONTINUOUS
10
97.6512
20
-84.482
11
97.4208
21
-84.482
0
LINE
8
BLACK
6
CONTINUOUS
10
97.4208
20
-84.482
11
97.1947
21
-84.437
0
LINE
8
BLACK
6
CONTINUOUS
10
97.1947
20
-84.437
11
96.9818
21
-84.3488
0
LINE
8
BLACK
6
CONTINUOUS
10
96.9818
20
-84.3488
11
96.7902
21
-84.2208
0
LINE
8
BLACK
6
CONTINUOUS
10
96.7902
20
-84.2208
11
96.6272
21
-84.0578
0
LINE
8
BLACK
6
CONTINUOUS
10
96.6272
20
-84.0578
11
96.4992
21
-83.8662
0
LINE
8
BLACK
6
CONTINUOUS
10
96.4992
20
-83.8662
11
96.411
21
-83.6533
0
LINE
8
BLACK
6
CONTINUOUS
10
96.411
20
-83.6533
11
96.366
21
-83.4272
0
LINE
8
BLACK
6
CONTINUOUS
10
96.366
20
-83.4272
11
96.366
21
-83.1968
0
LINE
8
BLACK
6
CONTINUOUS
10
96.366
20
-83.1968
11
96.411
21
-82.9707
0
LINE
8
BLACK
6
CONTINUOUS
10
96.411
20
-82.9707
11
96.4992
21
-82.7578
0
LINE
8
BLACK
6
CONTINUOUS
10
96.4992
20
-82.7578
11
96.6272
21
-82.5662
0
LINE
8
BLACK
6
CONTINUOUS
10
96.6272
20
-82.5662
11
96.7902
21
-82.4032
0
LINE
8
BLACK
6
CONTINUOUS
10
96.7902
20
-82.4032
11
96.9818
21
-82.2752
0
LINE
8
BLACK
6
CONTINUOUS
10
96.9818
20
-82.2752
11
97.1947
21
-82.187
0
LINE
8
BLACK
6
CONTINUOUS
10
97.1947
20
-82.187
11
97.4208
21
-82.142
0
LINE
8
BLACK
6
CONTINUOUS
10
97.4208
20
-82.142
11
97.6512
21
-82.142
0
LINE
8
BLACK
6
CONTINUOUS
10
97.6512
20
-82.142
11
97.8773
21
-82.187
0
LINE
8
BLACK
6
CONTINUOUS
10
109.004
20
-81.4144
11
109.186
21
-81.4898
0
LINE
8
BLACK
6
CONTINUOUS
10
109.186
20
-81.4898
11
109.349
21
-81.5992
0
LINE
8
BLACK
6
CONTINUOUS
10
109.349
20
-81.5992
11
109.489
21
-81.7385
0
LINE
8
BLACK
6
CONTINUOUS
10
109.489
20
-81.7385
11
109.598
21
-81.9023
0
LINE
8
BLACK
6
CONTINUOUS
10
109.598
20
-81.9023
11
109.674
21
-82.0843
0
LINE
8
BLACK
6
CONTINUOUS
10
109.674
20
-82.0843
11
109.712
21
-82.2775
0
LINE
8
BLACK
6
CONTINUOUS
10
109.712
20
-82.2775
11
109.712
21
-82.4745
0
LINE
8
BLACK
6
CONTINUOUS
10
109.712
20
-82.4745
11
109.674
21
-82.6677
0
LINE
8
BLACK
6
CONTINUOUS
10
109.674
20
-82.6677
11
109.598
21
-82.8497
0
LINE
8
BLACK
6
CONTINUOUS
10
109.598
20
-82.8497
11
109.489
21
-83.0135
0
LINE
8
BLACK
6
CONTINUOUS
10
109.489
20
-83.0135
11
109.349
21
-83.1528
0
LINE
8
BLACK
6
CONTINUOUS
10
109.349
20
-83.1528
11
109.186
21
-83.2622
0
LINE
8
BLACK
6
CONTINUOUS
10
109.186
20
-83.2622
11
109.004
21
-83.3376
0
LINE
8
BLACK
6
CONTINUOUS
10
109.004
20
-83.3376
11
108.81
21
-83.376
0
LINE
8
BLACK
6
CONTINUOUS
10
108.81
20
-83.376
11
108.614
21
-83.376
0
LINE
8
BLACK
6
CONTINUOUS
10
108.614
20
-83.376
11
108.42
21
-83.3376
0
LINE
8
BLACK
6
CONTINUOUS
10
108.42
20
-83.3376
11
108.238
21
-83.2622
0
LINE
8
BLACK
6
CONTINUOUS
10
108.238
20
-83.2622
11
108.075
21
-83.1528
0
LINE
8
BLACK
6
CONTINUOUS
10
108.075
20
-83.1528
11
107.935
21
-83.0135
0
LINE
8
BLACK
6
CONTINUOUS
10
107.935
20
-83.0135
11
107.826
21
-82.8497
0
LINE
8
BLACK
6
CONTINUOUS
10
107.826
20
-82.8497
11
107.75
21
-82.6677
0
LINE
8
BLACK
6
CONTINUOUS
10
107.75
20
-82.6677
11
107.712
21
-82.4745
0
LINE
8
BLACK
6
CONTINUOUS
10
107.712
20
-82.4745
11
107.712
21
-82.2775
0
LINE
8
BLACK
6
CONTINUOUS
10
107.712
20
-82.2775
11
107.75
21
-82.0843
0
LINE
8
BLACK
6
CONTINUOUS
10
107.75
20
-82.0843
11
107.826
21
-81.9023
0
LINE
8
BLACK
6
CONTINUOUS
10
107.826
20
-81.9023
11
107.935
21
-81.7385
0
LINE
8
BLACK
6
CONTINUOUS
10
107.935
20
-81.7385
11
108.075
21
-81.5992
0
LINE
8
BLACK
6
CONTINUOUS
10
108.075
20
-81.5992
11
108.238
21
-81.4898
0
LINE
8
BLACK
6
CONTINUOUS
10
108.238
20
-81.4898
11
108.42
21
-81.4144
0
LINE
8
BLACK
6
CONTINUOUS
10
108.42
20
-81.4144
11
108.614
21
-81.376
0
LINE
8
BLACK
6
CONTINUOUS
10
108.614
20
-81.376
11
108.81
21
-81.376
0
LINE
8
BLACK
6
CONTINUOUS
10
108.81
20
-81.376
11
109.004
21
-81.4144
0
LINE
8
BLACK
6
CONTINUOUS
10
116.262
20
-77.8056
11
116.535
21
-77.9187
0
LINE
8
BLACK
6
CONTINUOUS
10
116.535
20
-77.9187
11
116.78
21
-78.0829
0
LINE
8
BLACK
6
CONTINUOUS
10
116.78
20
-78.0829
11
116.989
21
-78.2918
0
LINE
8
BLACK
6
CONTINUOUS
10
116.989
20
-78.2918
11
117.153
21
-78.5375
0
LINE
8
BLACK
6
CONTINUOUS
10
117.153
20
-78.5375
11
117.266
21
-78.8105
0
LINE
8
BLACK
6
CONTINUOUS
10
117.266
20
-78.8105
11
117.324
21
-79.1003
0
LINE
8
BLACK
6
CONTINUOUS
10
117.324
20
-79.1003
11
117.324
21
-79.3957
0
LINE
8
BLACK
6
CONTINUOUS
10
117.324
20
-79.3957
11
117.266
21
-79.6855
0
LINE
8
BLACK
6
CONTINUOUS
10
117.266
20
-79.6855
11
117.153
21
-79.9585
0
LINE
8
BLACK
6
CONTINUOUS
10
117.153
20
-79.9585
11
116.989
21
-80.2042
0
LINE
8
BLACK
6
CONTINUOUS
10
116.989
20
-80.2042
11
116.78
21
-80.4131
0
LINE
8
BLACK
6
CONTINUOUS
10
116.78
20
-80.4131
11
116.535
21
-80.5773
0
LINE
8
BLACK
6
CONTINUOUS
10
116.535
20
-80.5773
11
116.262
21
-80.6904
0
LINE
8
BLACK
6
CONTINUOUS
10
116.262
20
-80.6904
11
115.972
21
-80.748
0
LINE
8
BLACK
6
CONTINUOUS
10
115.972
20
-80.748
11
115.676
21
-80.748
0
LINE
8
BLACK
6
CONTINUOUS
10
115.676
20
-80.748
11
115.386
21
-80.6904
0
LINE
8
BLACK
6
CONTINUOUS
10
115.386
20
-80.6904
11
115.113
21
-80.5773
0
LINE
8
BLACK
6
CONTINUOUS
10
115.113
20
-80.5773
11
114.868
21
-80.4131
0
LINE
8
BLACK
6
CONTINUOUS
10
114.868
20
-80.4131
11
114.659
21
-80.2042
0
LINE
8
BLACK
6
CONTINUOUS
10
114.659
20
-80.2042
11
114.495
21
-79.9585
0
LINE
8
BLACK
6
CONTINUOUS
10
114.495
20
-79.9585
11
114.382
21
-79.6855
0
LINE
8
BLACK
6
CONTINUOUS
10
114.382
20
-79.6855
11
114.324
21
-79.3957
0
LINE
8
BLACK
6
CONTINUOUS
10
114.324
20
-79.3957
11
114.324
21
-79.1003
0
LINE
8
BLACK
6
CONTINUOUS
10
114.324
20
-79.1003
11
114.382
21
-78.8105
0
LINE
8
BLACK
6
CONTINUOUS
10
114.382
20
-78.8105
11
114.495
21
-78.5375
0
LINE
8
BLACK
6
CONTINUOUS
10
114.495
20
-78.5375
11
114.659
21
-78.2918
0
LINE
8
BLACK
6
CONTINUOUS
10
114.659
20
-78.2918
11
114.868
21
-78.0829
0
LINE
8
BLACK
6
CONTINUOUS
10
114.868
20
-78.0829
11
115.113
21
-77.9187
0
LINE
8
BLACK
6
CONTINUOUS
10
115.113
20
-77.9187
11
115.386
21
-77.8056
0
LINE
8
BLACK
6
CONTINUOUS
10
115.386
20
-77.8056
11
115.676
21
-77.748
0
LINE
8
BLACK
6
CONTINUOUS
10
115.676
20
-77.748
11
115.972
21
-77.748
0
LINE
8
BLACK
6
CONTINUOUS
10
115.972
20
-77.748
11
116.262
21
-77.8056
0
LINE
8
BLACK
6
CONTINUOUS
10
89.3375
20
-77.8056
11
89.6105
21
-77.9187
0
LINE
8
BLACK
6
CONTINUOUS
10
89.6105
20
-77.9187
11
89.8562
21
-78.0829
0
LINE
8
BLACK
6
CONTINUOUS
10
89.8562
20
-78.0829
11
90.0651
21
-78.2918
0
LINE
8
BLACK
6
CONTINUOUS
10
90.0651
20
-78.2918
11
90.2293
21
-78.5375
0
LINE
8
BLACK
6
CONTINUOUS
10
90.2293
20
-78.5375
11
90.3424
21
-78.8105
0
LINE
8
BLACK
6
CONTINUOUS
10
90.3424
20
-78.8105
11
90.4
21
-79.1003
0
LINE
8
BLACK
6
CONTINUOUS
10
90.4
20
-79.1003
11
90.4
21
-79.3957
0
LINE
8
BLACK
6
CONTINUOUS
10
90.4
20
-79.3957
11
90.3424
21
-79.6855
0
LINE
8
BLACK
6
CONTINUOUS
10
90.3424
20
-79.6855
11
90.2293
21
-79.9585
0
LINE
8
BLACK
6
CONTINUOUS
10
90.2293
20
-79.9585
11
90.0651
21
-80.2042
0
LINE
8
BLACK
6
CONTINUOUS
10
90.0651
20
-80.2042
11
89.8562
21
-80.4131
0
LINE
8
BLACK
6
CONTINUOUS
10
89.8562
20
-80.4131
11
89.6105
21
-80.5773
0
LINE
8
BLACK
6
CONTINUOUS
10
89.6105
20
-80.5773
11
89.3375
21
-80.6904
0
LINE
8
BLACK
6
CONTINUOUS
10
89.3375
20
-80.6904
11
89.0477
21
-80.748
0
LINE
8
BLACK
6
CONTINUOUS
10
89.0477
20
-80.748
11
88.7523
21
-80.748
0
LINE
8
BLACK
6
CONTINUOUS
10
88.7523
20
-80.748
11
88.4625
21
-80.6904
0
LINE
8
BLACK
6
CONTINUOUS
10
88.4625
20
-80.6904
11
88.1895
21
-80.5773
0
LINE
8
BLACK
6
CONTINUOUS
10
88.1895
20
-80.5773
11
87.9438
21
-80.4131
0
LINE
8
BLACK
6
CONTINUOUS
10
87.9438
20
-80.4131
11
87.7349
21
-80.2042
0
LINE
8
BLACK
6
CONTINUOUS
10
87.7349
20
-80.2042
11
87.5707
21
-79.9585
0
LINE
8
BLACK
6
CONTINUOUS
10
87.5707
20
-79.9585
11
87.4576
21
-79.6855
0
LINE
8
BLACK
6
CONTINUOUS
10
87.4576
20
-79.6855
11
87.4
21
-79.3957
0
LINE
8
BLACK
6
CONTINUOUS
10
87.4
20
-79.3957
11
87.4
21
-79.1003
0
LINE
8
BLACK
6
CONTINUOUS
10
87.4
20
-79.1003
11
87.4576
21
-78.8105
0
LINE
8
BLACK
6
CONTINUOUS
10
87.4576
20
-78.8105
11
87.5707
21
-78.5375
0
LINE
8
BLACK
6
CONTINUOUS
10
87.5707
20
-78.5375
11
87.7349
21
-78.2918
0
LINE
8
BLACK
6
CONTINUOUS
10
87.7349
20
-78.2918
11
87.9438
21
-78.0829
0
LINE
8
BLACK
6
CONTINUOUS
10
87.9438
20
-78.0829
11
88.1895
21
-77.9187
0
LINE
8
BLACK
6
CONTINUOUS
10
88.1895
20
-77.9187
11
88.4625
21
-77.8056
0
LINE
8
BLACK
6
CONTINUOUS
10
88.4625
20
-77.8056
11
88.7523
21
-77.748
0
LINE
8
BLACK
6
CONTINUOUS
10
88.7523
20
-77.748
11
89.0477
21
-77.748
0
LINE
8
BLACK
6
CONTINUOUS
10
89.0477
20
-77.748
11
89.3375
21
-77.8056
0
LINE
8
BLACK
6
CONTINUOUS
10
100.377
20
-77.187
11
100.59
21
-77.2752
0
LINE
8
BLACK
6
CONTINUOUS
10
100.59
20
-77.2752
11
100.782
21
-77.4032
0
LINE
8
BLACK
6
CONTINUOUS
10
100.782
20
-77.4032
11
100.945
21
-77.5662
0
LINE
8
BLACK
6
CONTINUOUS
10
100.945
20
-77.5662
11
101.073
21
-77.7578
0
LINE
8
BLACK
6
CONTINUOUS
10
101.073
20
-77.7578
11
101.161
21
-77.9707
0
LINE
8
BLACK
6
CONTINUOUS
10
101.161
20
-77.9707
11
101.206
21
-78.1968
0
LINE
8
BLACK
6
CONTINUOUS
10
101.206
20
-78.1968
11
101.206
21
-78.4272
0
LINE
8
BLACK
6
CONTINUOUS
10
101.206
20
-78.4272
11
101.161
21
-78.6533
0
LINE
8
BLACK
6
CONTINUOUS
10
101.161
20
-78.6533
11
101.073
21
-78.8662
0
LINE
8
BLACK
6
CONTINUOUS
10
101.073
20
-78.8662
11
100.945
21
-79.0578
0
LINE
8
BLACK
6
CONTINUOUS
10
100.945
20
-79.0578
11
100.782
21
-79.2208
0
LINE
8
BLACK
6
CONTINUOUS
10
100.782
20
-79.2208
11
100.59
21
-79.3488
0
LINE
8
BLACK
6
CONTINUOUS
10
100.59
20
-79.3488
11
100.377
21
-79.437
0
LINE
8
BLACK
6
CONTINUOUS
10
100.377
20
-79.437
11
100.151
21
-79.482
0
LINE
8
BLACK
6
CONTINUOUS
10
100.151
20
-79.482
11
99.9208
21
-79.482
0
LINE
8
BLACK
6
CONTINUOUS
10
99.9208
20
-79.482
11
99.6947
21
-79.437
0
LINE
8
BLACK
6
CONTINUOUS
10
99.6947
20
-79.437
11
99.4818
21
-79.3488
0
LINE
8
BLACK
6
CONTINUOUS
10
99.4818
20
-79.3488
11
99.2902
21
-79.2208
0
LINE
8
BLACK
6
CONTINUOUS
10
99.2902
20
-79.2208
11
99.1272
21
-79.0578
0
LINE
8
BLACK
6
CONTINUOUS
10
99.1272
20
-79.0578
11
98.9992
21
-78.8662
0
LINE
8
BLACK
6
CONTINUOUS
10
98.9992
20
-78.8662
11
98.911
21
-78.6533
0
LINE
8
BLACK
6
CONTINUOUS
10
98.911
20
-78.6533
11
98.866
21
-78.4272
0
LINE
8
BLACK
6
CONTINUOUS
10
98.866
20
-78.4272
11
98.866
21
-78.1968
0
LINE
8
BLACK
6
CONTINUOUS
10
98.866
20
-78.1968
11
98.911
21
-77.9707
0
LINE
8
BLACK
6
CONTINUOUS
10
98.911
20
-77.9707
11
98.9992
21
-77.7578
0
LINE
8
BLACK
6
CONTINUOUS
10
98.9992
20
-77.7578
11
99.1272
21
-77.5662
0
LINE
8
BLACK
6
CONTINUOUS
10
99.1272
20
-77.5662
11
99.2902
21
-77.4032
0
LINE
8
BLACK
6
CONTINUOUS
10
99.2902
20
-77.4032
11
99.4818
21
-77.2752
0
LINE
8
BLACK
6
CONTINUOUS
10
99.4818
20
-77.2752
11
99.6947
21
-77.187
0
LINE
8
BLACK
6
CONTINUOUS
10
99.6947
20
-77.187
11
99.9208
21
-77.142
0
LINE
8
BLACK
6
CONTINUOUS
10
99.9208
20
-77.142
11
100.151
21
-77.142
0
LINE
8
BLACK
6
CONTINUOUS
10
100.151
20
-77.142
11
100.377
21
-77.187
0
LINE
8
BLACK
6
CONTINUOUS
10
109.865
20
-77.5421
11
109.997
21
-77.5822
0
LINE
8
BLACK
6
CONTINUOUS
10
109.997
20
-77.5822
11
110.119
21
-77.6472
0
LINE
8
BLACK
6
CONTINUOUS
10
110.119
20
-77.6472
11
110.225
21
-77.7346
0
LINE
8
BLACK
6
CONTINUOUS
10
110.225
20
-77.7346
11
110.313
21
-77.8412
0
LINE
8
BLACK
6
CONTINUOUS
10
110.313
20
-77.8412
11
110.378
21
-77.9628
0
LINE
8
BLACK
6
CONTINUOUS
10
110.378
20
-77.9628
11
110.418
21
-78.0948
0
LINE
8
BLACK
6
CONTINUOUS
10
110.418
20
-78.0948
11
110.431
21
-78.232
0
LINE
8
BLACK
6
CONTINUOUS
10
110.431
20
-78.232
11
110.418
21
-78.3692
0
LINE
8
BLACK
6
CONTINUOUS
10
110.418
20
-78.3692
11
110.378
21
-78.5012
0
LINE
8
BLACK
6
CONTINUOUS
10
110.378
20
-78.5012
11
110.313
21
-78.6228
0
LINE
8
BLACK
6
CONTINUOUS
10
110.313
20
-78.6228
11
110.225
21
-78.7294
0
LINE
8
BLACK
6
CONTINUOUS
10
110.225
20
-78.7294
11
110.119
21
-78.8168
0
LINE
8
BLACK
6
CONTINUOUS
10
110.119
20
-78.8168
11
109.997
21
-78.8818
0
LINE
8
BLACK
6
CONTINUOUS
10
109.997
20
-78.8818
11
109.865
21
-78.9219
0
LINE
8
BLACK
6
CONTINUOUS
10
109.865
20
-78.9219
11
109.762
21
-78.932
0
LINE
8
BLACK
6
CONTINUOUS
10
109.762
20
-78.932
11
109.694
21
-78.932
0
LINE
8
BLACK
6
CONTINUOUS
10
109.694
20
-78.932
11
109.591
21
-78.9219
0
LINE
8
BLACK
6
CONTINUOUS
10
109.591
20
-78.9219
11
109.459
21
-78.8818
0
LINE
8
BLACK
6
CONTINUOUS
10
109.459
20
-78.8818
11
109.337
21
-78.8168
0
LINE
8
BLACK
6
CONTINUOUS
10
109.337
20
-78.8168
11
109.231
21
-78.7294
0
LINE
8
BLACK
6
CONTINUOUS
10
109.231
20
-78.7294
11
109.143
21
-78.6228
0
LINE
8
BLACK
6
CONTINUOUS
10
109.143
20
-78.6228
11
109.078
21
-78.5012
0
LINE
8
BLACK
6
CONTINUOUS
10
109.078
20
-78.5012
11
109.038
21
-78.3692
0
LINE
8
BLACK
6
CONTINUOUS
10
109.038
20
-78.3692
11
109.025
21
-78.232
0
LINE
8
BLACK
6
CONTINUOUS
10
109.025
20
-78.232
11
109.038
21
-78.0948
0
LINE
8
BLACK
6
CONTINUOUS
10
109.038
20
-78.0948
11
109.078
21
-77.9628
0
LINE
8
BLACK
6
CONTINUOUS
10
109.078
20
-77.9628
11
109.143
21
-77.8412
0
LINE
8
BLACK
6
CONTINUOUS
10
109.143
20
-77.8412
11
109.231
21
-77.7346
0
LINE
8
BLACK
6
CONTINUOUS
10
109.231
20
-77.7346
11
109.337
21
-77.6472
0
LINE
8
BLACK
6
CONTINUOUS
10
109.337
20
-77.6472
11
109.459
21
-77.5822
0
LINE
8
BLACK
6
CONTINUOUS
10
109.459
20
-77.5822
11
109.591
21
-77.5421
0
LINE
8
BLACK
6
CONTINUOUS
10
109.591
20
-77.5421
11
109.694
21
-77.532
0
LINE
8
BLACK
6
CONTINUOUS
10
109.694
20
-77.532
11
109.762
21
-77.532
0
LINE
8
BLACK
6
CONTINUOUS
10
109.762
20
-77.532
11
109.865
21
-77.5421
0
LINE
8
BLACK
6
CONTINUOUS
10
107.392
20
-77.5589
11
107.52
21
-77.6117
0
LINE
8
BLACK
6
CONTINUOUS
10
107.52
20
-77.6117
11
107.634
21
-77.6883
0
LINE
8
BLACK
6
CONTINUOUS
10
107.634
20
-77.6883
11
107.732
21
-77.7858
0
LINE
8
BLACK
6
CONTINUOUS
10
107.732
20
-77.7858
11
107.808
21
-77.9004
0
LINE
8
BLACK
6
CONTINUOUS
10
107.808
20
-77.9004
11
107.861
21
-78.0278
0
LINE
8
BLACK
6
CONTINUOUS
10
107.861
20
-78.0278
11
107.888
21
-78.1631
0
LINE
8
BLACK
6
CONTINUOUS
10
107.888
20
-78.1631
11
107.888
21
-78.3009
0
LINE
8
BLACK
6
CONTINUOUS
10
107.888
20
-78.3009
11
107.861
21
-78.4362
0
LINE
8
BLACK
6
CONTINUOUS
10
107.861
20
-78.4362
11
107.808
21
-78.5636
0
LINE
8
BLACK
6
CONTINUOUS
10
107.808
20
-78.5636
11
107.732
21
-78.6782
0
LINE
8
BLACK
6
CONTINUOUS
10
107.732
20
-78.6782
11
107.634
21
-78.7757
0
LINE
8
BLACK
6
CONTINUOUS
10
107.634
20
-78.7757
11
107.52
21
-78.8523
0
LINE
8
BLACK
6
CONTINUOUS
10
107.52
20
-78.8523
11
107.392
21
-78.9051
0
LINE
8
BLACK
6
CONTINUOUS
10
107.392
20
-78.9051
11
107.257
21
-78.932
0
LINE
8
BLACK
6
CONTINUOUS
10
107.257
20
-78.932
11
107.119
21
-78.932
0
LINE
8
BLACK
6
CONTINUOUS
10
107.119
20
-78.932
11
106.984
21
-78.9051
0
LINE
8
BLACK
6
CONTINUOUS
10
106.984
20
-78.9051
11
106.856
21
-78.8523
0
LINE
8
BLACK
6
CONTINUOUS
10
106.856
20
-78.8523
11
106.742
21
-78.7757
0
LINE
8
BLACK
6
CONTINUOUS
10
106.742
20
-78.7757
11
106.644
21
-78.6782
0
LINE
8
BLACK
6
CONTINUOUS
10
106.644
20
-78.6782
11
106.568
21
-78.5636
0
LINE
8
BLACK
6
CONTINUOUS
10
106.568
20
-78.5636
11
106.515
21
-78.4362
0
LINE
8
BLACK
6
CONTINUOUS
10
106.515
20
-78.4362
11
106.488
21
-78.3009
0
LINE
8
BLACK
6
CONTINUOUS
10
106.488
20
-78.3009
11
106.488
21
-78.1631
0
LINE
8
BLACK
6
CONTINUOUS
10
106.488
20
-78.1631
11
106.515
21
-78.0278
0
LINE
8
BLACK
6
CONTINUOUS
10
106.515
20
-78.0278
11
106.568
21
-77.9004
0
LINE
8
BLACK
6
CONTINUOUS
10
106.568
20
-77.9004
11
106.644
21
-77.7858
0
LINE
8
BLACK
6
CONTINUOUS
10
106.644
20
-77.7858
11
106.742
21
-77.6883
0
LINE
8
BLACK
6
CONTINUOUS
10
106.742
20
-77.6883
11
106.856
21
-77.6117
0
LINE
8
BLACK
6
CONTINUOUS
10
106.856
20
-77.6117
11
106.984
21
-77.5589
0
LINE
8
BLACK
6
CONTINUOUS
10
106.984
20
-77.5589
11
107.119
21
-77.532
0
LINE
8
BLACK
6
CONTINUOUS
10
107.119
20
-77.532
11
107.257
21
-77.532
0
LINE
8
BLACK
6
CONTINUOUS
10
107.257
20
-77.532
11
107.392
21
-77.5589
0
LINE
8
BLACK
6
CONTINUOUS
10
97.3778
20
-74.2945
11
97.5462
21
-74.3643
0
LINE
8
BLACK
6
CONTINUOUS
10
97.5462
20
-74.3643
11
97.6977
21
-74.4655
0
LINE
8
BLACK
6
CONTINUOUS
10
97.6977
20
-74.4655
11
97.8265
21
-74.5943
0
LINE
8
BLACK
6
CONTINUOUS
10
97.8265
20
-74.5943
11
97.9277
21
-74.7458
0
LINE
8
BLACK
6
CONTINUOUS
10
97.9277
20
-74.7458
11
97.9975
21
-74.9142
0
LINE
8
BLACK
6
CONTINUOUS
10
97.9975
20
-74.9142
11
98.033
21
-75.0929
0
LINE
8
BLACK
6
CONTINUOUS
10
98.033
20
-75.0929
11
98.033
21
-75.2751
0
LINE
8
BLACK
6
CONTINUOUS
10
98.033
20
-75.2751
11
97.9975
21
-75.4538
0
LINE
8
BLACK
6
CONTINUOUS
10
97.9975
20
-75.4538
11
97.9277
21
-75.6222
0
LINE
8
BLACK
6
CONTINUOUS
10
97.9277
20
-75.6222
11
97.8265
21
-75.7737
0
LINE
8
BLACK
6
CONTINUOUS
10
97.8265
20
-75.7737
11
97.6977
21
-75.9025
0
LINE
8
BLACK
6
CONTINUOUS
10
97.6977
20
-75.9025
11
97.5462
21
-76.0037
0
LINE
8
BLACK
6
CONTINUOUS
10
97.5462
20
-76.0037
11
97.3778
21
-76.0735
0
LINE
8
BLACK
6
CONTINUOUS
10
97.3778
20
-76.0735
11
97.1991
21
-76.109
0
LINE
8
BLACK
6
CONTINUOUS
10
97.1991
20
-76.109
11
97.0169
21
-76.109
0
LINE
8
BLACK
6
CONTINUOUS
10
97.0169
20
-76.109
11
96.8382
21
-76.0735
0
LINE
8
BLACK
6
CONTINUOUS
10
96.8382
20
-76.0735
11
96.6698
21
-76.0037
0
LINE
8
BLACK
6
CONTINUOUS
10
96.6698
20
-76.0037
11
96.5183
21
-75.9025
0
LINE
8
BLACK
6
CONTINUOUS
10
96.5183
20
-75.9025
11
96.3895
21
-75.7737
0
LINE
8
BLACK
6
CONTINUOUS
10
96.3895
20
-75.7737
11
96.2883
21
-75.6222
0
LINE
8
BLACK
6
CONTINUOUS
10
96.2883
20
-75.6222
11
96.2185
21
-75.4538
0
LINE
8
BLACK
6
CONTINUOUS
10
96.2185
20
-75.4538
11
96.183
21
-75.2751
0
LINE
8
BLACK
6
CONTINUOUS
10
96.183
20
-75.2751
11
96.183
21
-75.0929
0
LINE
8
BLACK
6
CONTINUOUS
10
96.183
20
-75.0929
11
96.2185
21
-74.9142
0
LINE
8
BLACK
6
CONTINUOUS
10
96.2185
20
-74.9142
11
96.2883
21
-74.7458
0
LINE
8
BLACK
6
CONTINUOUS
10
96.2883
20
-74.7458
11
96.3895
21
-74.5943
0
LINE
8
BLACK
6
CONTINUOUS
10
96.3895
20
-74.5943
11
96.5183
21
-74.4655
0
LINE
8
BLACK
6
CONTINUOUS
10
96.5183
20
-74.4655
11
96.6698
21
-74.3643
0
LINE
8
BLACK
6
CONTINUOUS
10
96.6698
20
-74.3643
11
96.8382
21
-74.2945
0
LINE
8
BLACK
6
CONTINUOUS
10
96.8382
20
-74.2945
11
97.0169
21
-74.259
0
LINE
8
BLACK
6
CONTINUOUS
10
97.0169
20
-74.259
11
97.1991
21
-74.259
0
LINE
8
BLACK
6
CONTINUOUS
10
97.1991
20
-74.259
11
97.3778
21
-74.2945
0
LINE
8
BLACK
6
CONTINUOUS
10
103.033
20
-76.109
11
101.183
21
-76.109
0
LINE
8
BLACK
6
CONTINUOUS
10
101.183
20
-76.109
11
101.183
21
-74.259
0
LINE
8
BLACK
6
CONTINUOUS
10
101.183
20
-74.259
11
103.033
21
-74.259
0
LINE
8
BLACK
6
CONTINUOUS
10
103.033
20
-74.259
11
103.033
21
-76.109
0
LINE
8
BLACK
6
CONTINUOUS
10
99.8778
20
-74.2945
11
100.046
21
-74.3643
0
LINE
8
BLACK
6
CONTINUOUS
10
100.046
20
-74.3643
11
100.198
21
-74.4655
0
LINE
8
BLACK
6
CONTINUOUS
10
100.198
20
-74.4655
11
100.326
21
-74.5943
0
LINE
8
BLACK
6
CONTINUOUS
10
100.326
20
-74.5943
11
100.428
21
-74.7458
0
LINE
8
BLACK
6
CONTINUOUS
10
100.428
20
-74.7458
11
100.497
21
-74.9142
0
LINE
8
BLACK
6
CONTINUOUS
10
100.497
20
-74.9142
11
100.533
21
-75.0929
0
LINE
8
BLACK
6
CONTINUOUS
10
100.533
20
-75.0929
11
100.533
21
-75.2751
0
LINE
8
BLACK
6
CONTINUOUS
10
100.533
20
-75.2751
11
100.497
21
-75.4538
0
LINE
8
BLACK
6
CONTINUOUS
10
100.497
20
-75.4538
11
100.428
21
-75.6222
0
LINE
8
BLACK
6
CONTINUOUS
10
100.428
20
-75.6222
11
100.326
21
-75.7737
0
LINE
8
BLACK
6
CONTINUOUS
10
100.326
20
-75.7737
11
100.198
21
-75.9025
0
LINE
8
BLACK
6
CONTINUOUS
10
100.198
20
-75.9025
11
100.046
21
-76.0037
0
LINE
8
BLACK
6
CONTINUOUS
10
100.046
20
-76.0037
11
99.8778
21
-76.0735
0
LINE
8
BLACK
6
CONTINUOUS
10
99.8778
20
-76.0735
11
99.6991
21
-76.109
0
LINE
8
BLACK
6
CONTINUOUS
10
99.6991
20
-76.109
11
99.5169
21
-76.109
0
LINE
8
BLACK
6
CONTINUOUS
10
99.5169
20
-76.109
11
99.3382
21
-76.0735
0
LINE
8
BLACK
6
CONTINUOUS
10
99.3382
20
-76.0735
11
99.1698
21
-76.0037
0
LINE
8
BLACK
6
CONTINUOUS
10
99.1698
20
-76.0037
11
99.0183
21
-75.9025
0
LINE
8
BLACK
6
CONTINUOUS
10
99.0183
20
-75.9025
11
98.8895
21
-75.7737
0
LINE
8
BLACK
6
CONTINUOUS
10
98.8895
20
-75.7737
11
98.7883
21
-75.6222
0
LINE
8
BLACK
6
CONTINUOUS
10
98.7883
20
-75.6222
11
98.7185
21
-75.4538
0
LINE
8
BLACK
6
CONTINUOUS
10
98.7185
20
-75.4538
11
98.683
21
-75.2751
0
LINE
8
BLACK
6
CONTINUOUS
10
98.683
20
-75.2751
11
98.683
21
-75.0929
0
LINE
8
BLACK
6
CONTINUOUS
10
98.683
20
-75.0929
11
98.7185
21
-74.9142
0
LINE
8
BLACK
6
CONTINUOUS
10
98.7185
20
-74.9142
11
98.7883
21
-74.7458
0
LINE
8
BLACK
6
CONTINUOUS
10
98.7883
20
-74.7458
11
98.8895
21
-74.5943
0
LINE
8
BLACK
6
CONTINUOUS
10
98.8895
20
-74.5943
11
99.0183
21
-74.4655
0
LINE
8
BLACK
6
CONTINUOUS
10
99.0183
20
-74.4655
11
99.1698
21
-74.3643
0
LINE
8
BLACK
6
CONTINUOUS
10
99.1698
20
-74.3643
11
99.3382
21
-74.2945
0
LINE
8
BLACK
6
CONTINUOUS
10
99.3382
20
-74.2945
11
99.5169
21
-74.259
0
LINE
8
BLACK
6
CONTINUOUS
10
99.5169
20
-74.259
11
99.6991
21
-74.259
0
LINE
8
BLACK
6
CONTINUOUS
10
99.6991
20
-74.259
11
99.8778
21
-74.2945
0
LINE
8
BLACK
6
CONTINUOUS
10
117.324
20
-75.668
11
114.324
21
-75.668
0
LINE
8
BLACK
6
CONTINUOUS
10
114.324
20
-75.668
11
114.324
21
-72.668
0
LINE
8
BLACK
6
CONTINUOUS
10
114.324
20
-72.668
11
117.324
21
-72.668
0
LINE
8
BLACK
6
CONTINUOUS
10
117.324
20
-72.668
11
117.324
21
-75.668
  0
ENDSEC
  0
EOF
