G04 PROTEUS GERBER X2 FILE*
%TF.GenerationSoftware,Labcenter,Proteus,8.6-SP2-Build23525*%
%TF.CreationDate,2019-06-30T03:38:34+00:00*%
%TF.FileFunction,Plated,0,2,PTH*%
%TF.FilePolarity,Positive*%
%TF.Part,Single*%
%FSLAX45Y45*%
%MOMM*%
G01*
%TA.AperFunction,ViaDrill*%
%ADD21C,0.381000*%
%TA.AperFunction,ComponentDrill*%
%ADD22C,1.270000*%
%TA.AperFunction,ComponentDrill*%
%ADD23C,1.143000*%
%TA.AperFunction,ComponentDrill*%
%ADD24C,0.762000*%
%TA.AperFunction,ComponentDrill*%
%ADD25C,1.524000*%
%TA.AperFunction,ComponentDrill*%
%ADD26C,1.016000*%
%TA.AperFunction,OtherDrill,Unknown*%
%ADD27C,2.032000*%
%TD.AperFunction*%
D21*
X+340159Y+853731D03*
X+360000Y+2760000D03*
X-6672199Y+2225371D03*
X-7307199Y+2225371D03*
X-5900000Y+4733975D03*
X-5950000Y+4110000D03*
X+768982Y+5456450D03*
X+780000Y+860000D03*
D22*
X-742000Y+5430000D03*
X-742000Y+5176000D03*
X+20000Y+5176000D03*
X+20000Y+5430000D03*
D23*
X-1434000Y+5240000D03*
X-2450000Y+5240000D03*
D22*
X-752000Y+3790000D03*
X-752000Y+3536000D03*
D24*
X+10000Y+3536000D03*
D22*
X+10000Y+3790000D03*
D23*
X-1474000Y+4060000D03*
X-2490000Y+4060000D03*
X-1494000Y+2420000D03*
X-2510000Y+2420000D03*
D22*
X-742000Y+794000D03*
X-742000Y+540000D03*
X+20000Y+540000D03*
D24*
X+20000Y+794000D03*
D23*
X-1514000Y+1040000D03*
X-2530000Y+1040000D03*
D22*
X+1290000Y+5750000D03*
X+1290000Y+5496000D03*
X+1290000Y+5242000D03*
X+1240000Y+4228000D03*
X+1240000Y+3974000D03*
X+1240000Y+3720000D03*
X+1220000Y+2710000D03*
X+1220000Y+2456000D03*
X+1220000Y+2202000D03*
X+1170000Y+1110000D03*
X+1170000Y+856000D03*
X+1170000Y+602000D03*
D25*
X+3990000Y+2230000D03*
X+2974000Y+2230000D03*
X+2840000Y+3980000D03*
X+3856000Y+3980000D03*
X+3800000Y+5230000D03*
X+2784000Y+5230000D03*
X+2824000Y+1120000D03*
X+3840000Y+1120000D03*
D22*
X-772000Y+2314000D03*
D23*
X-772000Y+2060000D03*
D24*
X-10000Y+2060000D03*
X-10000Y+2314000D03*
D26*
X-7590000Y+3642000D03*
X-7590000Y+3896000D03*
X-7590000Y+4150000D03*
X-7570000Y+2252000D03*
X-7570000Y+2506000D03*
X-7570000Y+2760000D03*
X-6020000Y+2980000D03*
X-6020000Y+2726000D03*
X-6020000Y+2472000D03*
X-5050000Y+2650000D03*
X-5050000Y+2396000D03*
X-5050000Y+2142000D03*
X-5050000Y+1888000D03*
X-5050000Y+1634000D03*
X-5050000Y+1380000D03*
D24*
X-3840000Y+870000D03*
X-3840000Y+1124000D03*
X-3840000Y+1378000D03*
X-3840000Y+1632000D03*
X-8666000Y+3664000D03*
X-3840000Y+1886000D03*
X-3840000Y+2140000D03*
X-8666000Y+3410000D03*
X-3840000Y+2394000D03*
X-3840000Y+2648000D03*
X-3840000Y+3029000D03*
X-3840000Y+3283000D03*
X-3840000Y+3537000D03*
X-3840000Y+3791000D03*
X-3840000Y+4045000D03*
X-3840000Y+4299000D03*
X-8666000Y+4426000D03*
X-8666000Y+2140000D03*
X-8666000Y+1886000D03*
X-8666000Y+1632000D03*
X-8666000Y+1378000D03*
X-8666000Y+1124000D03*
X-8666000Y+870000D03*
X-3840000Y+4807000D03*
X-8666000Y+3156000D03*
X-8666000Y+2902000D03*
X-3840000Y+4553000D03*
X-8666000Y+4172000D03*
X-8666000Y+3918000D03*
X-3840000Y+5315000D03*
X-3840000Y+5061000D03*
X-8666000Y+2648000D03*
D26*
X-5020000Y+4794000D03*
X-5020000Y+4540000D03*
X-5020000Y+4286000D03*
X-5020000Y+4032000D03*
X-5020000Y+3778000D03*
X-5020000Y+3524000D03*
X-6030000Y+1610000D03*
X-6030000Y+1356000D03*
X-6030000Y+1102000D03*
X-6030000Y+848000D03*
X-7590000Y+678000D03*
X-7590000Y+932000D03*
X-7590000Y+1186000D03*
X-7590000Y+1440000D03*
D22*
X-280000Y+6810000D03*
X-26000Y+6810000D03*
X+2336000Y+6770000D03*
X+2590000Y+6770000D03*
D26*
X-8060000Y+1190000D03*
X-8060000Y+1444000D03*
X-8060000Y+1698000D03*
D27*
X-9940000Y-530000D03*
X-9890000Y+7580000D03*
X+5700000Y+7610000D03*
X+5650000Y-500000D03*
M02*
