G04 PROTEUS GERBER X2 FILE*
%TF.GenerationSoftware,Labcenter,Proteus,8.6-SP2-Build23525*%
%TF.CreationDate,2019-06-30T03:38:34+00:00*%
%TF.FileFunction,Legend,Top*%
%TF.FilePolarity,Positive*%
%TF.Part,Single*%
%FSLAX45Y45*%
%MOMM*%
G01*
%TA.AperFunction,Material*%
%ADD71C,0.203200*%
%ADD20C,0.000010*%
%TA.AperFunction,Profile*%
%ADD70C,0.203200*%
%TD.AperFunction*%
D71*
X-234000Y+5557000D02*
X-107000Y+5557000D01*
X-107000Y+5049000D01*
X-615000Y+5049000D01*
X-615000Y+5557000D01*
X-488000Y+5557000D01*
X-361000Y+5430000D02*
X-335124Y+5432436D01*
X-311152Y+5439485D01*
X-289562Y+5450762D01*
X-270830Y+5465878D01*
X-255431Y+5484446D01*
X-243842Y+5506081D01*
X-236540Y+5530394D01*
X-234000Y+5557000D01*
X-361000Y+5430000D02*
X-387606Y+5432436D01*
X-411919Y+5439485D01*
X-433554Y+5450762D01*
X-452122Y+5465878D01*
X-467238Y+5484446D01*
X-478515Y+5506081D01*
X-485564Y+5530394D01*
X-488000Y+5557000D01*
X-488000Y+5689080D02*
X-488000Y+5612880D01*
X-472125Y+5597640D01*
X-408625Y+5597640D01*
X-392750Y+5612880D01*
X-392750Y+5689080D01*
X-329250Y+5658600D02*
X-297500Y+5689080D01*
X-297500Y+5597640D01*
X-1561000Y+5240000D02*
X-1688000Y+5240000D01*
X-2196000Y+5176500D02*
X-1688000Y+5176500D01*
X-1688000Y+5303500D01*
X-2196000Y+5303500D01*
X-2196000Y+5176500D01*
X-2196000Y+5240000D02*
X-2323000Y+5240000D01*
X-2069000Y+5044420D02*
X-2069000Y+5135860D01*
X-1989625Y+5135860D01*
X-1973750Y+5120620D01*
X-1973750Y+5105380D01*
X-1989625Y+5090140D01*
X-2069000Y+5090140D01*
X-1989625Y+5090140D02*
X-1973750Y+5074900D01*
X-1973750Y+5044420D01*
X-1910250Y+5105380D02*
X-1878500Y+5135860D01*
X-1878500Y+5044420D01*
X-244000Y+3917000D02*
X-117000Y+3917000D01*
X-117000Y+3409000D01*
X-625000Y+3409000D01*
X-625000Y+3917000D01*
X-498000Y+3917000D01*
X-371000Y+3790000D02*
X-345124Y+3792436D01*
X-321152Y+3799485D01*
X-299562Y+3810762D01*
X-280830Y+3825878D01*
X-265431Y+3844446D01*
X-253842Y+3866081D01*
X-246540Y+3890394D01*
X-244000Y+3917000D01*
X-371000Y+3790000D02*
X-397606Y+3792436D01*
X-421919Y+3799485D01*
X-443554Y+3810762D01*
X-462122Y+3825878D01*
X-477238Y+3844446D01*
X-488515Y+3866081D01*
X-495564Y+3890394D01*
X-498000Y+3917000D01*
X-498000Y+4049080D02*
X-498000Y+3972880D01*
X-482125Y+3957640D01*
X-418625Y+3957640D01*
X-402750Y+3972880D01*
X-402750Y+4049080D01*
X-275750Y+4049080D02*
X-355125Y+4049080D01*
X-355125Y+4018600D01*
X-291625Y+4018600D01*
X-275750Y+4003360D01*
X-275750Y+3972880D01*
X-291625Y+3957640D01*
X-339250Y+3957640D01*
X-355125Y+3972880D01*
X-1601000Y+4060000D02*
X-1728000Y+4060000D01*
X-2236000Y+3996500D02*
X-1728000Y+3996500D01*
X-1728000Y+4123500D01*
X-2236000Y+4123500D01*
X-2236000Y+3996500D01*
X-2236000Y+4060000D02*
X-2363000Y+4060000D01*
X-2109000Y+3864420D02*
X-2109000Y+3955860D01*
X-2029625Y+3955860D01*
X-2013750Y+3940620D01*
X-2013750Y+3925380D01*
X-2029625Y+3910140D01*
X-2109000Y+3910140D01*
X-2029625Y+3910140D02*
X-2013750Y+3894900D01*
X-2013750Y+3864420D01*
X-1966125Y+3940620D02*
X-1950250Y+3955860D01*
X-1902625Y+3955860D01*
X-1886750Y+3940620D01*
X-1886750Y+3925380D01*
X-1902625Y+3910140D01*
X-1886750Y+3894900D01*
X-1886750Y+3879660D01*
X-1902625Y+3864420D01*
X-1950250Y+3864420D01*
X-1966125Y+3879660D01*
X-1934375Y+3910140D02*
X-1902625Y+3910140D01*
X-1621000Y+2420000D02*
X-1748000Y+2420000D01*
X-2256000Y+2356500D02*
X-1748000Y+2356500D01*
X-1748000Y+2483500D01*
X-2256000Y+2483500D01*
X-2256000Y+2356500D01*
X-2256000Y+2420000D02*
X-2383000Y+2420000D01*
X-2129000Y+2224420D02*
X-2129000Y+2315860D01*
X-2049625Y+2315860D01*
X-2033750Y+2300620D01*
X-2033750Y+2285380D01*
X-2049625Y+2270140D01*
X-2129000Y+2270140D01*
X-2049625Y+2270140D02*
X-2033750Y+2254900D01*
X-2033750Y+2224420D01*
X-1906750Y+2254900D02*
X-2002000Y+2254900D01*
X-1938500Y+2315860D01*
X-1938500Y+2224420D01*
X-234000Y+921000D02*
X-107000Y+921000D01*
X-107000Y+413000D01*
X-615000Y+413000D01*
X-615000Y+921000D01*
X-488000Y+921000D01*
X-361000Y+794000D02*
X-335124Y+796436D01*
X-311152Y+803485D01*
X-289562Y+814762D01*
X-270830Y+829878D01*
X-255431Y+848446D01*
X-243842Y+870081D01*
X-236540Y+894394D01*
X-234000Y+921000D01*
X-361000Y+794000D02*
X-387606Y+796436D01*
X-411919Y+803485D01*
X-433554Y+814762D01*
X-452122Y+829878D01*
X-467238Y+848446D01*
X-478515Y+870081D01*
X-485564Y+894394D01*
X-488000Y+921000D01*
X-488000Y+1053080D02*
X-488000Y+976880D01*
X-472125Y+961640D01*
X-408625Y+961640D01*
X-392750Y+976880D01*
X-392750Y+1053080D01*
X-345125Y+1037840D02*
X-329250Y+1053080D01*
X-281625Y+1053080D01*
X-265750Y+1037840D01*
X-265750Y+1022600D01*
X-281625Y+1007360D01*
X-265750Y+992120D01*
X-265750Y+976880D01*
X-281625Y+961640D01*
X-329250Y+961640D01*
X-345125Y+976880D01*
X-313375Y+1007360D02*
X-281625Y+1007360D01*
X-1641000Y+1040000D02*
X-1768000Y+1040000D01*
X-2276000Y+976500D02*
X-1768000Y+976500D01*
X-1768000Y+1103500D01*
X-2276000Y+1103500D01*
X-2276000Y+976500D01*
X-2276000Y+1040000D02*
X-2403000Y+1040000D01*
X-2149000Y+844420D02*
X-2149000Y+935860D01*
X-2069625Y+935860D01*
X-2053750Y+920620D01*
X-2053750Y+905380D01*
X-2069625Y+890140D01*
X-2149000Y+890140D01*
X-2069625Y+890140D02*
X-2053750Y+874900D01*
X-2053750Y+844420D01*
X-2006125Y+920620D02*
X-1990250Y+935860D01*
X-1942625Y+935860D01*
X-1926750Y+920620D01*
X-1926750Y+905380D01*
X-1942625Y+890140D01*
X-1990250Y+890140D01*
X-2006125Y+874900D01*
X-2006125Y+844420D01*
X-1926750Y+844420D01*
X+1163000Y+5115000D02*
X+1417000Y+5115000D01*
X+1417000Y+5877000D01*
X+1163000Y+5877000D01*
X+1163000Y+5115000D01*
X+1417000Y+5877000D02*
X+1544000Y+5877000D01*
X+1544000Y+5115000D01*
X+1417000Y+5115000D01*
X+1417000Y+5877000D02*
X+1544000Y+5750000D01*
X+1417000Y+5750000D02*
X+1544000Y+5623000D01*
X+1417000Y+5623000D02*
X+1544000Y+5496000D01*
X+1417000Y+5496000D02*
X+1544000Y+5369000D01*
X+1417000Y+5369000D02*
X+1544000Y+5242000D01*
X+1417000Y+5242000D02*
X+1544000Y+5115000D01*
X+1615120Y+5369000D02*
X+1584640Y+5400750D01*
X+1584640Y+5432500D01*
X+1615120Y+5464250D01*
X+1645600Y+5464250D01*
X+1676080Y+5432500D01*
X+1676080Y+5400750D01*
X+1645600Y+5369000D01*
X+1615120Y+5369000D01*
X+1645600Y+5432500D02*
X+1676080Y+5464250D01*
X+1615120Y+5527750D02*
X+1584640Y+5559500D01*
X+1676080Y+5559500D01*
X+1113000Y+3593000D02*
X+1367000Y+3593000D01*
X+1367000Y+4355000D01*
X+1113000Y+4355000D01*
X+1113000Y+3593000D01*
X+1367000Y+4355000D02*
X+1494000Y+4355000D01*
X+1494000Y+3593000D01*
X+1367000Y+3593000D01*
X+1367000Y+4355000D02*
X+1494000Y+4228000D01*
X+1367000Y+4228000D02*
X+1494000Y+4101000D01*
X+1367000Y+4101000D02*
X+1494000Y+3974000D01*
X+1367000Y+3974000D02*
X+1494000Y+3847000D01*
X+1367000Y+3847000D02*
X+1494000Y+3720000D01*
X+1367000Y+3720000D02*
X+1494000Y+3593000D01*
X+1565120Y+3847000D02*
X+1534640Y+3878750D01*
X+1534640Y+3910500D01*
X+1565120Y+3942250D01*
X+1595600Y+3942250D01*
X+1626080Y+3910500D01*
X+1626080Y+3878750D01*
X+1595600Y+3847000D01*
X+1565120Y+3847000D01*
X+1595600Y+3910500D02*
X+1626080Y+3942250D01*
X+1549880Y+3989875D02*
X+1534640Y+4005750D01*
X+1534640Y+4053375D01*
X+1549880Y+4069250D01*
X+1565120Y+4069250D01*
X+1580360Y+4053375D01*
X+1580360Y+4005750D01*
X+1595600Y+3989875D01*
X+1626080Y+3989875D01*
X+1626080Y+4069250D01*
X+1093000Y+2075000D02*
X+1347000Y+2075000D01*
X+1347000Y+2837000D01*
X+1093000Y+2837000D01*
X+1093000Y+2075000D01*
X+1347000Y+2837000D02*
X+1474000Y+2837000D01*
X+1474000Y+2075000D01*
X+1347000Y+2075000D01*
X+1347000Y+2837000D02*
X+1474000Y+2710000D01*
X+1347000Y+2710000D02*
X+1474000Y+2583000D01*
X+1347000Y+2583000D02*
X+1474000Y+2456000D01*
X+1347000Y+2456000D02*
X+1474000Y+2329000D01*
X+1347000Y+2329000D02*
X+1474000Y+2202000D01*
X+1347000Y+2202000D02*
X+1474000Y+2075000D01*
X+1545120Y+2329000D02*
X+1514640Y+2360750D01*
X+1514640Y+2392500D01*
X+1545120Y+2424250D01*
X+1575600Y+2424250D01*
X+1606080Y+2392500D01*
X+1606080Y+2360750D01*
X+1575600Y+2329000D01*
X+1545120Y+2329000D01*
X+1575600Y+2392500D02*
X+1606080Y+2424250D01*
X+1529880Y+2471875D02*
X+1514640Y+2487750D01*
X+1514640Y+2535375D01*
X+1529880Y+2551250D01*
X+1545120Y+2551250D01*
X+1560360Y+2535375D01*
X+1575600Y+2551250D01*
X+1590840Y+2551250D01*
X+1606080Y+2535375D01*
X+1606080Y+2487750D01*
X+1590840Y+2471875D01*
X+1560360Y+2503625D02*
X+1560360Y+2535375D01*
X+1043000Y+475000D02*
X+1297000Y+475000D01*
X+1297000Y+1237000D01*
X+1043000Y+1237000D01*
X+1043000Y+475000D01*
X+1297000Y+1237000D02*
X+1424000Y+1237000D01*
X+1424000Y+475000D01*
X+1297000Y+475000D01*
X+1297000Y+1237000D02*
X+1424000Y+1110000D01*
X+1297000Y+1110000D02*
X+1424000Y+983000D01*
X+1297000Y+983000D02*
X+1424000Y+856000D01*
X+1297000Y+856000D02*
X+1424000Y+729000D01*
X+1297000Y+729000D02*
X+1424000Y+602000D01*
X+1297000Y+602000D02*
X+1424000Y+475000D01*
X+1495120Y+729000D02*
X+1464640Y+760750D01*
X+1464640Y+792500D01*
X+1495120Y+824250D01*
X+1525600Y+824250D01*
X+1556080Y+792500D01*
X+1556080Y+760750D01*
X+1525600Y+729000D01*
X+1495120Y+729000D01*
X+1525600Y+792500D02*
X+1556080Y+824250D01*
X+1525600Y+951250D02*
X+1525600Y+856000D01*
X+1464640Y+919500D01*
X+1556080Y+919500D01*
X+3863000Y+2230000D02*
X+3736000Y+2230000D01*
X+3228000Y+2166500D02*
X+3736000Y+2166500D01*
X+3736000Y+2293500D01*
X+3228000Y+2293500D01*
X+3228000Y+2166500D01*
X+3228000Y+2230000D02*
X+3101000Y+2230000D01*
X+3355000Y+2034420D02*
X+3355000Y+2125860D01*
X+3434375Y+2125860D01*
X+3450250Y+2110620D01*
X+3450250Y+2095380D01*
X+3434375Y+2080140D01*
X+3355000Y+2080140D01*
X+3434375Y+2080140D02*
X+3450250Y+2064900D01*
X+3450250Y+2034420D01*
X+3577250Y+2125860D02*
X+3497875Y+2125860D01*
X+3497875Y+2095380D01*
X+3561375Y+2095380D01*
X+3577250Y+2080140D01*
X+3577250Y+2049660D01*
X+3561375Y+2034420D01*
X+3513750Y+2034420D01*
X+3497875Y+2049660D01*
X+2967000Y+3980000D02*
X+3094000Y+3980000D01*
X+3094000Y+3916500D02*
X+3602000Y+3916500D01*
X+3602000Y+4043500D01*
X+3094000Y+4043500D01*
X+3094000Y+3916500D01*
X+3602000Y+3980000D02*
X+3729000Y+3980000D01*
X+3221000Y+4084140D02*
X+3221000Y+4175580D01*
X+3300375Y+4175580D01*
X+3316250Y+4160340D01*
X+3316250Y+4145100D01*
X+3300375Y+4129860D01*
X+3221000Y+4129860D01*
X+3300375Y+4129860D02*
X+3316250Y+4114620D01*
X+3316250Y+4084140D01*
X+3443250Y+4160340D02*
X+3427375Y+4175580D01*
X+3379750Y+4175580D01*
X+3363875Y+4160340D01*
X+3363875Y+4099380D01*
X+3379750Y+4084140D01*
X+3427375Y+4084140D01*
X+3443250Y+4099380D01*
X+3443250Y+4114620D01*
X+3427375Y+4129860D01*
X+3363875Y+4129860D01*
X+3673000Y+5230000D02*
X+3546000Y+5230000D01*
X+3038000Y+5166500D02*
X+3546000Y+5166500D01*
X+3546000Y+5293500D01*
X+3038000Y+5293500D01*
X+3038000Y+5166500D01*
X+3038000Y+5230000D02*
X+2911000Y+5230000D01*
X+3165000Y+5034420D02*
X+3165000Y+5125860D01*
X+3244375Y+5125860D01*
X+3260250Y+5110620D01*
X+3260250Y+5095380D01*
X+3244375Y+5080140D01*
X+3165000Y+5080140D01*
X+3244375Y+5080140D02*
X+3260250Y+5064900D01*
X+3260250Y+5034420D01*
X+3307875Y+5125860D02*
X+3387250Y+5125860D01*
X+3387250Y+5110620D01*
X+3307875Y+5034420D01*
X+2951000Y+1120000D02*
X+3078000Y+1120000D01*
X+3078000Y+1056500D02*
X+3586000Y+1056500D01*
X+3586000Y+1183500D01*
X+3078000Y+1183500D01*
X+3078000Y+1056500D01*
X+3586000Y+1120000D02*
X+3713000Y+1120000D01*
X+3205000Y+1224140D02*
X+3205000Y+1315580D01*
X+3284375Y+1315580D01*
X+3300250Y+1300340D01*
X+3300250Y+1285100D01*
X+3284375Y+1269860D01*
X+3205000Y+1269860D01*
X+3284375Y+1269860D02*
X+3300250Y+1254620D01*
X+3300250Y+1224140D01*
X+3363750Y+1269860D02*
X+3347875Y+1285100D01*
X+3347875Y+1300340D01*
X+3363750Y+1315580D01*
X+3411375Y+1315580D01*
X+3427250Y+1300340D01*
X+3427250Y+1285100D01*
X+3411375Y+1269860D01*
X+3363750Y+1269860D01*
X+3347875Y+1254620D01*
X+3347875Y+1239380D01*
X+3363750Y+1224140D01*
X+3411375Y+1224140D01*
X+3427250Y+1239380D01*
X+3427250Y+1254620D01*
X+3411375Y+1269860D01*
X-264000Y+2441000D02*
X-137000Y+2441000D01*
X-137000Y+1933000D01*
X-645000Y+1933000D01*
X-645000Y+2441000D01*
X-518000Y+2441000D01*
X-391000Y+2314000D02*
X-365124Y+2316436D01*
X-341152Y+2323485D01*
X-319562Y+2334762D01*
X-300830Y+2349878D01*
X-285431Y+2368446D01*
X-273842Y+2390081D01*
X-266540Y+2414394D01*
X-264000Y+2441000D01*
X-391000Y+2314000D02*
X-417606Y+2316436D01*
X-441919Y+2323485D01*
X-463554Y+2334762D01*
X-482122Y+2349878D01*
X-497238Y+2368446D01*
X-508515Y+2390081D01*
X-515564Y+2414394D01*
X-518000Y+2441000D01*
X-518000Y+2573080D02*
X-518000Y+2496880D01*
X-502125Y+2481640D01*
X-438625Y+2481640D01*
X-422750Y+2496880D01*
X-422750Y+2573080D01*
X-295750Y+2512120D02*
X-391000Y+2512120D01*
X-327500Y+2573080D01*
X-327500Y+2481640D01*
X-7717000Y+3515000D02*
X-7463000Y+3515000D01*
X-7463000Y+4277000D01*
X-7717000Y+4277000D01*
X-7717000Y+3515000D01*
X-8057640Y+3039500D02*
X-8149080Y+3039500D01*
X-8149080Y+3134750D01*
X-8103360Y+3039500D02*
X-8103360Y+3103000D01*
X-8057640Y+3166500D02*
X-8149080Y+3166500D01*
X-8149080Y+3245875D01*
X-8133840Y+3261750D01*
X-8118600Y+3261750D01*
X-8103360Y+3245875D01*
X-8103360Y+3166500D01*
X-8103360Y+3245875D02*
X-8088120Y+3261750D01*
X-8057640Y+3261750D01*
X-8057640Y+3388750D02*
X-8057640Y+3293500D01*
X-8149080Y+3293500D01*
X-8149080Y+3388750D01*
X-8103360Y+3293500D02*
X-8103360Y+3357000D01*
X-8118600Y+3420500D02*
X-8149080Y+3452250D01*
X-8149080Y+3484000D01*
X-8118600Y+3515750D01*
X-8088120Y+3515750D01*
X-8057640Y+3484000D01*
X-8057640Y+3452250D01*
X-8088120Y+3420500D01*
X-8118600Y+3420500D01*
X-8088120Y+3484000D02*
X-8057640Y+3515750D01*
X-8149080Y+3547500D02*
X-8072880Y+3547500D01*
X-8057640Y+3563375D01*
X-8057640Y+3626875D01*
X-8072880Y+3642750D01*
X-8149080Y+3642750D01*
X-8057640Y+3769750D02*
X-8057640Y+3674500D01*
X-8149080Y+3674500D01*
X-8149080Y+3769750D01*
X-8103360Y+3674500D02*
X-8103360Y+3738000D01*
X-8057640Y+3801500D02*
X-8149080Y+3801500D01*
X-8057640Y+3896750D01*
X-8149080Y+3896750D01*
X-8072880Y+4023750D02*
X-8057640Y+4007875D01*
X-8057640Y+3960250D01*
X-8088120Y+3928500D01*
X-8118600Y+3928500D01*
X-8149080Y+3960250D01*
X-8149080Y+4007875D01*
X-8133840Y+4023750D01*
X-8149080Y+4150750D02*
X-8057640Y+4055500D01*
X-8149080Y+4055500D02*
X-8103360Y+4103125D01*
X-8042400Y+4182500D02*
X-8042400Y+4277750D01*
X-8057640Y+4309500D02*
X-8149080Y+4309500D01*
X-8103360Y+4357125D01*
X-8149080Y+4404750D01*
X-8057640Y+4404750D01*
X-8118600Y+4436500D02*
X-8149080Y+4468250D01*
X-8149080Y+4500000D01*
X-8118600Y+4531750D01*
X-8088120Y+4531750D01*
X-8057640Y+4500000D01*
X-8057640Y+4468250D01*
X-8088120Y+4436500D01*
X-8118600Y+4436500D01*
X-8149080Y+4563500D02*
X-8149080Y+4658750D01*
X-8149080Y+4611125D02*
X-8057640Y+4611125D01*
X-8118600Y+4690500D02*
X-8149080Y+4722250D01*
X-8149080Y+4754000D01*
X-8118600Y+4785750D01*
X-8088120Y+4785750D01*
X-8057640Y+4754000D01*
X-8057640Y+4722250D01*
X-8088120Y+4690500D01*
X-8118600Y+4690500D01*
X-8057640Y+4817500D02*
X-8149080Y+4817500D01*
X-8149080Y+4896875D01*
X-8133840Y+4912750D01*
X-8118600Y+4912750D01*
X-8103360Y+4896875D01*
X-8103360Y+4817500D01*
X-8103360Y+4896875D02*
X-8088120Y+4912750D01*
X-8057640Y+4912750D01*
X-7697000Y+2125000D02*
X-7443000Y+2125000D01*
X-7443000Y+2887000D01*
X-7697000Y+2887000D01*
X-7697000Y+2125000D01*
X-7972880Y+1657500D02*
X-7957640Y+1673375D01*
X-7957640Y+1736875D01*
X-7972880Y+1752750D01*
X-7988120Y+1752750D01*
X-8003360Y+1736875D01*
X-8003360Y+1673375D01*
X-8018600Y+1657500D01*
X-8033840Y+1657500D01*
X-8049080Y+1673375D01*
X-8049080Y+1736875D01*
X-8033840Y+1752750D01*
X-7957640Y+1784500D02*
X-8049080Y+1784500D01*
X-8049080Y+1863875D01*
X-8033840Y+1879750D01*
X-8018600Y+1879750D01*
X-8003360Y+1863875D01*
X-8003360Y+1784500D01*
X-7957640Y+2006750D02*
X-7957640Y+1911500D01*
X-8049080Y+1911500D01*
X-8049080Y+2006750D01*
X-8003360Y+1911500D02*
X-8003360Y+1975000D01*
X-7957640Y+2133750D02*
X-7957640Y+2038500D01*
X-8049080Y+2038500D01*
X-8049080Y+2133750D01*
X-8003360Y+2038500D02*
X-8003360Y+2102000D01*
X-7957640Y+2165500D02*
X-8049080Y+2165500D01*
X-8049080Y+2229000D01*
X-8018600Y+2260750D01*
X-7988120Y+2260750D01*
X-7957640Y+2229000D01*
X-7957640Y+2165500D01*
X-7942400Y+2292500D02*
X-7942400Y+2387750D01*
X-7957640Y+2419500D02*
X-8049080Y+2419500D01*
X-8003360Y+2467125D01*
X-8049080Y+2514750D01*
X-7957640Y+2514750D01*
X-8018600Y+2546500D02*
X-8049080Y+2578250D01*
X-8049080Y+2610000D01*
X-8018600Y+2641750D01*
X-7988120Y+2641750D01*
X-7957640Y+2610000D01*
X-7957640Y+2578250D01*
X-7988120Y+2546500D01*
X-8018600Y+2546500D01*
X-8049080Y+2673500D02*
X-8049080Y+2768750D01*
X-8049080Y+2721125D02*
X-7957640Y+2721125D01*
X-8018600Y+2800500D02*
X-8049080Y+2832250D01*
X-8049080Y+2864000D01*
X-8018600Y+2895750D01*
X-7988120Y+2895750D01*
X-7957640Y+2864000D01*
X-7957640Y+2832250D01*
X-7988120Y+2800500D01*
X-8018600Y+2800500D01*
X-7957640Y+2927500D02*
X-8049080Y+2927500D01*
X-8049080Y+3006875D01*
X-8033840Y+3022750D01*
X-8018600Y+3022750D01*
X-8003360Y+3006875D01*
X-8003360Y+2927500D01*
X-8003360Y+3006875D02*
X-7988120Y+3022750D01*
X-7957640Y+3022750D01*
X-6147000Y+2345000D02*
X-5893000Y+2345000D01*
X-5893000Y+3107000D01*
X-6147000Y+3107000D01*
X-6147000Y+2345000D01*
X-5662360Y+2231500D02*
X-5570920Y+2231500D01*
X-5570920Y+2326750D01*
X-5586160Y+2453750D02*
X-5570920Y+2437875D01*
X-5570920Y+2390250D01*
X-5601400Y+2358500D01*
X-5631880Y+2358500D01*
X-5662360Y+2390250D01*
X-5662360Y+2437875D01*
X-5647120Y+2453750D01*
X-5570920Y+2485500D02*
X-5662360Y+2485500D01*
X-5662360Y+2549000D01*
X-5631880Y+2580750D01*
X-5601400Y+2580750D01*
X-5570920Y+2549000D01*
X-5570920Y+2485500D01*
X-5555680Y+2612500D02*
X-5555680Y+2707750D01*
X-5570920Y+2739500D02*
X-5662360Y+2739500D01*
X-5662360Y+2818875D01*
X-5647120Y+2834750D01*
X-5631880Y+2834750D01*
X-5616640Y+2818875D01*
X-5616640Y+2739500D01*
X-5631880Y+2866500D02*
X-5662360Y+2898250D01*
X-5662360Y+2930000D01*
X-5631880Y+2961750D01*
X-5601400Y+2961750D01*
X-5570920Y+2930000D01*
X-5570920Y+2898250D01*
X-5601400Y+2866500D01*
X-5631880Y+2866500D01*
X-5662360Y+2993500D02*
X-5662360Y+3088750D01*
X-5662360Y+3041125D02*
X-5570920Y+3041125D01*
X-5177000Y+1253000D02*
X-4923000Y+1253000D01*
X-4923000Y+2777000D01*
X-5177000Y+2777000D01*
X-5177000Y+1253000D01*
X-4882360Y+1761000D02*
X-4790920Y+1761000D01*
X-4790920Y+1856250D01*
X-4806160Y+1983250D02*
X-4790920Y+1967375D01*
X-4790920Y+1919750D01*
X-4821400Y+1888000D01*
X-4851880Y+1888000D01*
X-4882360Y+1919750D01*
X-4882360Y+1967375D01*
X-4867120Y+1983250D01*
X-4790920Y+2015000D02*
X-4882360Y+2015000D01*
X-4882360Y+2078500D01*
X-4851880Y+2110250D01*
X-4821400Y+2110250D01*
X-4790920Y+2078500D01*
X-4790920Y+2015000D01*
X-4851880Y+2173750D02*
X-4882360Y+2205500D01*
X-4790920Y+2205500D01*
X-8920000Y+616000D02*
X-8920000Y+7220000D01*
X-3586000Y+870000D02*
X-3586000Y+7220000D01*
X-8920000Y+616000D02*
X-8666000Y+616000D01*
X-8412000Y+362000D02*
X-8666000Y+616000D01*
X-8412000Y+362000D02*
X-5110000Y+362000D01*
X-4856000Y+616000D01*
X-3840000Y+616000D01*
X-3586000Y+870000D02*
X-3840000Y+616000D01*
X-8920000Y+7220000D02*
X-3586000Y+7220000D01*
X-8793000Y+743000D02*
X-8539000Y+743000D01*
X-8539000Y+2267000D01*
X-8793000Y+2267000D01*
X-8793000Y+743000D01*
X-8793000Y+2521000D02*
X-8539000Y+2521000D01*
X-8539000Y+4553000D01*
X-8793000Y+4553000D01*
X-8793000Y+2521000D01*
X-3967000Y+743000D02*
X-3713000Y+743000D01*
X-3713000Y+2775000D01*
X-3967000Y+2775000D01*
X-3967000Y+743000D01*
X-3967000Y+2902000D02*
X-3713000Y+2902000D01*
X-3713000Y+5442000D01*
X-3967000Y+5442000D01*
X-3967000Y+2902000D01*
D20*
X-8539000Y+6549440D02*
X-8539000Y+6732320D01*
X-8481850Y+6823760D01*
X-8424700Y+6823760D01*
X-8367550Y+6732320D01*
X-8367550Y+6549440D01*
X-8539000Y+6640880D02*
X-8367550Y+6640880D01*
X-8310400Y+6549440D02*
X-8310400Y+6823760D01*
X-8167525Y+6823760D01*
X-8138950Y+6778040D01*
X-8138950Y+6732320D01*
X-8167525Y+6686600D01*
X-8310400Y+6686600D01*
X-8167525Y+6686600D02*
X-8138950Y+6640880D01*
X-8138950Y+6549440D01*
X-8081800Y+6549440D02*
X-8081800Y+6823760D01*
X-7967500Y+6823760D01*
X-7910350Y+6732320D01*
X-7910350Y+6640880D01*
X-7967500Y+6549440D01*
X-8081800Y+6549440D01*
X-7853200Y+6823760D02*
X-7853200Y+6595160D01*
X-7824625Y+6549440D01*
X-7710325Y+6549440D01*
X-7681750Y+6595160D01*
X-7681750Y+6823760D01*
X-7596025Y+6823760D02*
X-7481725Y+6823760D01*
X-7538875Y+6823760D02*
X-7538875Y+6549440D01*
X-7596025Y+6549440D02*
X-7481725Y+6549440D01*
X-7396000Y+6549440D02*
X-7396000Y+6823760D01*
X-7224550Y+6549440D01*
X-7224550Y+6823760D01*
X-7167400Y+6732320D02*
X-7110250Y+6823760D01*
X-7053100Y+6823760D01*
X-6995950Y+6732320D01*
X-6995950Y+6640880D01*
X-7053100Y+6549440D01*
X-7110250Y+6549440D01*
X-7167400Y+6640880D01*
X-7167400Y+6732320D01*
X-6710200Y+6823760D02*
X-6710200Y+6595160D01*
X-6681625Y+6549440D01*
X-6567325Y+6549440D01*
X-6538750Y+6595160D01*
X-6538750Y+6823760D01*
X-6481600Y+6549440D02*
X-6481600Y+6823760D01*
X-6310150Y+6549440D01*
X-6310150Y+6823760D01*
X-6253000Y+6732320D02*
X-6195850Y+6823760D01*
X-6138700Y+6823760D01*
X-6081550Y+6732320D01*
X-6081550Y+6640880D01*
X-6138700Y+6549440D01*
X-6195850Y+6549440D01*
X-6253000Y+6640880D01*
X-6253000Y+6732320D01*
X-5795800Y+6549440D02*
X-5795800Y+6823760D01*
X-5652925Y+6823760D01*
X-5624350Y+6778040D01*
X-5624350Y+6732320D01*
X-5652925Y+6686600D01*
X-5795800Y+6686600D01*
X-5652925Y+6686600D02*
X-5624350Y+6640880D01*
X-5624350Y+6549440D01*
X-5538625Y+6778040D02*
X-5510050Y+6823760D01*
X-5424325Y+6823760D01*
X-5395750Y+6778040D01*
X-5395750Y+6732320D01*
X-5424325Y+6686600D01*
X-5395750Y+6640880D01*
X-5395750Y+6595160D01*
X-5424325Y+6549440D01*
X-5510050Y+6549440D01*
X-5538625Y+6595160D01*
X-5481475Y+6686600D02*
X-5424325Y+6686600D01*
X-5110000Y+6595160D02*
X-5081425Y+6549440D01*
X-4967125Y+6549440D01*
X-4938550Y+6595160D01*
X-4938550Y+6640880D01*
X-4967125Y+6686600D01*
X-5081425Y+6686600D01*
X-5110000Y+6732320D01*
X-5110000Y+6778040D01*
X-5081425Y+6823760D01*
X-4967125Y+6823760D01*
X-4938550Y+6778040D01*
X-4881400Y+6549440D02*
X-4881400Y+6823760D01*
X-4709950Y+6823760D02*
X-4709950Y+6549440D01*
X-4881400Y+6686600D02*
X-4709950Y+6686600D01*
X-4624225Y+6823760D02*
X-4509925Y+6823760D01*
X-4567075Y+6823760D02*
X-4567075Y+6549440D01*
X-4624225Y+6549440D02*
X-4509925Y+6549440D01*
X-4252750Y+6549440D02*
X-4424200Y+6549440D01*
X-4424200Y+6823760D01*
X-4252750Y+6823760D01*
X-4424200Y+6686600D02*
X-4309900Y+6686600D01*
X-4195600Y+6823760D02*
X-4195600Y+6549440D01*
X-4024150Y+6549440D01*
X-3967000Y+6549440D02*
X-3967000Y+6823760D01*
X-3852700Y+6823760D01*
X-3795550Y+6732320D01*
X-3795550Y+6640880D01*
X-3852700Y+6549440D01*
X-3967000Y+6549440D01*
D71*
X-3453920Y+3537000D02*
X-3514880Y+3537000D01*
X-3545360Y+3568750D01*
X-3545360Y+3600500D01*
X-3514880Y+3632250D01*
X-3453920Y+3632250D01*
X-3484400Y+3537000D02*
X-3484400Y+3632250D01*
X-3453920Y+3664000D02*
X-3545360Y+3664000D01*
X-3545360Y+3743375D01*
X-3530120Y+3759250D01*
X-3514880Y+3759250D01*
X-3499640Y+3743375D01*
X-3499640Y+3664000D01*
X-3499640Y+3743375D02*
X-3484400Y+3759250D01*
X-3453920Y+3759250D01*
X-3453920Y+3791000D02*
X-3545360Y+3791000D01*
X-3545360Y+3854500D01*
X-3514880Y+3886250D01*
X-3484400Y+3886250D01*
X-3453920Y+3854500D01*
X-3453920Y+3791000D01*
X-3514880Y+3949750D02*
X-3545360Y+3981500D01*
X-3453920Y+3981500D01*
X-5147000Y+3397000D02*
X-4893000Y+3397000D01*
X-4893000Y+4921000D01*
X-5147000Y+4921000D01*
X-5147000Y+3397000D01*
X-4852360Y+3968500D02*
X-4760920Y+3968500D01*
X-4760920Y+4063750D01*
X-4776160Y+4190750D02*
X-4760920Y+4174875D01*
X-4760920Y+4127250D01*
X-4791400Y+4095500D01*
X-4821880Y+4095500D01*
X-4852360Y+4127250D01*
X-4852360Y+4174875D01*
X-4837120Y+4190750D01*
X-4760920Y+4222500D02*
X-4852360Y+4222500D01*
X-4852360Y+4286000D01*
X-4821880Y+4317750D01*
X-4791400Y+4317750D01*
X-4760920Y+4286000D01*
X-4760920Y+4222500D01*
X-6157000Y+721000D02*
X-5903000Y+721000D01*
X-5903000Y+1737000D01*
X-6157000Y+1737000D01*
X-6157000Y+721000D01*
X-5590920Y+859750D02*
X-5590920Y+764500D01*
X-5682360Y+764500D01*
X-5682360Y+859750D01*
X-5636640Y+764500D02*
X-5636640Y+828000D01*
X-5590920Y+891500D02*
X-5682360Y+891500D01*
X-5590920Y+986750D01*
X-5682360Y+986750D01*
X-5606160Y+1113750D02*
X-5590920Y+1097875D01*
X-5590920Y+1050250D01*
X-5621400Y+1018500D01*
X-5651880Y+1018500D01*
X-5682360Y+1050250D01*
X-5682360Y+1097875D01*
X-5667120Y+1113750D01*
X-5651880Y+1145500D02*
X-5682360Y+1177250D01*
X-5682360Y+1209000D01*
X-5651880Y+1240750D01*
X-5621400Y+1240750D01*
X-5590920Y+1209000D01*
X-5590920Y+1177250D01*
X-5621400Y+1145500D01*
X-5651880Y+1145500D01*
X-5590920Y+1272500D02*
X-5682360Y+1272500D01*
X-5682360Y+1336000D01*
X-5651880Y+1367750D01*
X-5621400Y+1367750D01*
X-5590920Y+1336000D01*
X-5590920Y+1272500D01*
X-5590920Y+1494750D02*
X-5590920Y+1399500D01*
X-5682360Y+1399500D01*
X-5682360Y+1494750D01*
X-5636640Y+1399500D02*
X-5636640Y+1463000D01*
X-5590920Y+1526500D02*
X-5682360Y+1526500D01*
X-5682360Y+1605875D01*
X-5667120Y+1621750D01*
X-5651880Y+1621750D01*
X-5636640Y+1605875D01*
X-5636640Y+1526500D01*
X-5636640Y+1605875D02*
X-5621400Y+1621750D01*
X-5590920Y+1621750D01*
X-7717000Y+551000D02*
X-7463000Y+551000D01*
X-7463000Y+1567000D01*
X-7717000Y+1567000D01*
X-7717000Y+551000D01*
X-8028600Y+835000D02*
X-8059080Y+866750D01*
X-8059080Y+898500D01*
X-8028600Y+930250D01*
X-7998120Y+930250D01*
X-7967640Y+898500D01*
X-7967640Y+866750D01*
X-7998120Y+835000D01*
X-8028600Y+835000D01*
X-8059080Y+962000D02*
X-7967640Y+962000D01*
X-7967640Y+1057250D01*
X-7967640Y+1184250D02*
X-7967640Y+1089000D01*
X-8059080Y+1089000D01*
X-8059080Y+1184250D01*
X-8013360Y+1089000D02*
X-8013360Y+1152500D01*
X-7967640Y+1216000D02*
X-8059080Y+1216000D01*
X-8059080Y+1279500D01*
X-8028600Y+1311250D01*
X-7998120Y+1311250D01*
X-7967640Y+1279500D01*
X-7967640Y+1216000D01*
X-407000Y+6683000D02*
X+101000Y+6683000D01*
X+101000Y+6937000D01*
X-407000Y+6937000D01*
X-407000Y+6683000D01*
X-530500Y+7107640D02*
X-530500Y+7199080D01*
X-451125Y+7199080D01*
X-435250Y+7183840D01*
X-435250Y+7168600D01*
X-451125Y+7153360D01*
X-530500Y+7153360D01*
X-403500Y+7168600D02*
X-371750Y+7199080D01*
X-340000Y+7199080D01*
X-308250Y+7168600D01*
X-308250Y+7138120D01*
X-340000Y+7107640D01*
X-371750Y+7107640D01*
X-403500Y+7138120D01*
X-403500Y+7168600D01*
X-276500Y+7199080D02*
X-276500Y+7107640D01*
X-228875Y+7153360D01*
X-181250Y+7107640D01*
X-181250Y+7199080D01*
X-54250Y+7107640D02*
X-149500Y+7107640D01*
X-149500Y+7199080D01*
X-54250Y+7199080D01*
X-149500Y+7153360D02*
X-86000Y+7153360D01*
X-22500Y+7107640D02*
X-22500Y+7199080D01*
X+56875Y+7199080D01*
X+72750Y+7183840D01*
X+72750Y+7168600D01*
X+56875Y+7153360D01*
X-22500Y+7153360D01*
X+56875Y+7153360D02*
X+72750Y+7138120D01*
X+72750Y+7107640D01*
X+2209000Y+6643000D02*
X+2717000Y+6643000D01*
X+2717000Y+6897000D01*
X+2209000Y+6897000D01*
X+2209000Y+6643000D01*
X+2209000Y+7029080D02*
X+2209000Y+6937640D01*
X+2304250Y+6937640D01*
X+2336000Y+6998600D02*
X+2367750Y+7029080D01*
X+2399500Y+7029080D01*
X+2431250Y+6998600D01*
X+2431250Y+6968120D01*
X+2399500Y+6937640D01*
X+2367750Y+6937640D01*
X+2336000Y+6968120D01*
X+2336000Y+6998600D01*
X+2463000Y+6937640D02*
X+2463000Y+6998600D01*
X+2494750Y+7029080D01*
X+2526500Y+7029080D01*
X+2558250Y+6998600D01*
X+2558250Y+6937640D01*
X+2463000Y+6968120D02*
X+2558250Y+6968120D01*
X+2590000Y+6937640D02*
X+2590000Y+7029080D01*
X+2653500Y+7029080D01*
X+2685250Y+6998600D01*
X+2685250Y+6968120D01*
X+2653500Y+6937640D01*
X+2590000Y+6937640D01*
X-8187000Y+1063000D02*
X-7933000Y+1063000D01*
X-7933000Y+1825000D01*
X-8187000Y+1825000D01*
X-8187000Y+1063000D01*
X-8242880Y+555000D02*
X-8227640Y+570875D01*
X-8227640Y+634375D01*
X-8242880Y+650250D01*
X-8258120Y+650250D01*
X-8273360Y+634375D01*
X-8273360Y+570875D01*
X-8288600Y+555000D01*
X-8303840Y+555000D01*
X-8319080Y+570875D01*
X-8319080Y+634375D01*
X-8303840Y+650250D01*
X-8227640Y+682000D02*
X-8319080Y+682000D01*
X-8319080Y+761375D01*
X-8303840Y+777250D01*
X-8288600Y+777250D01*
X-8273360Y+761375D01*
X-8273360Y+682000D01*
X-8227640Y+904250D02*
X-8227640Y+809000D01*
X-8319080Y+809000D01*
X-8319080Y+904250D01*
X-8273360Y+809000D02*
X-8273360Y+872500D01*
X-8227640Y+936000D02*
X-8288600Y+936000D01*
X-8319080Y+967750D01*
X-8319080Y+999500D01*
X-8288600Y+1031250D01*
X-8227640Y+1031250D01*
X-8258120Y+936000D02*
X-8258120Y+1031250D01*
X-8227640Y+1063000D02*
X-8319080Y+1063000D01*
X-8319080Y+1126500D01*
X-8288600Y+1158250D01*
X-8258120Y+1158250D01*
X-8227640Y+1126500D01*
X-8227640Y+1063000D01*
X-8212400Y+1190000D02*
X-8212400Y+1285250D01*
X-8227640Y+1317000D02*
X-8319080Y+1317000D01*
X-8319080Y+1412250D01*
X-8273360Y+1317000D02*
X-8273360Y+1380500D01*
X-8227640Y+1539250D02*
X-8227640Y+1444000D01*
X-8319080Y+1444000D01*
X-8319080Y+1539250D01*
X-8273360Y+1444000D02*
X-8273360Y+1507500D01*
X-8227640Y+1666250D02*
X-8227640Y+1571000D01*
X-8319080Y+1571000D01*
X-8319080Y+1666250D01*
X-8273360Y+1571000D02*
X-8273360Y+1634500D01*
X-8227640Y+1698000D02*
X-8319080Y+1698000D01*
X-8319080Y+1761500D01*
X-8288600Y+1793250D01*
X-8258120Y+1793250D01*
X-8227640Y+1761500D01*
X-8227640Y+1698000D01*
X-8227640Y+1825000D02*
X-8319080Y+1825000D01*
X-8319080Y+1904375D01*
X-8303840Y+1920250D01*
X-8288600Y+1920250D01*
X-8273360Y+1904375D01*
X-8258120Y+1920250D01*
X-8242880Y+1920250D01*
X-8227640Y+1904375D01*
X-8227640Y+1825000D01*
X-8273360Y+1825000D02*
X-8273360Y+1904375D01*
X-8227640Y+1952000D02*
X-8288600Y+1952000D01*
X-8319080Y+1983750D01*
X-8319080Y+2015500D01*
X-8288600Y+2047250D01*
X-8227640Y+2047250D01*
X-8258120Y+1952000D02*
X-8258120Y+2047250D01*
X-8242880Y+2174250D02*
X-8227640Y+2158375D01*
X-8227640Y+2110750D01*
X-8258120Y+2079000D01*
X-8288600Y+2079000D01*
X-8319080Y+2110750D01*
X-8319080Y+2158375D01*
X-8303840Y+2174250D01*
X-8319080Y+2206000D02*
X-8227640Y+2206000D01*
X-8319080Y+2301250D02*
X-8273360Y+2253625D01*
X-8227640Y+2301250D01*
X-8273360Y+2206000D02*
X-8273360Y+2253625D01*
D70*
X-10540000Y-1070000D02*
X+6310000Y-1070000D01*
X+6310000Y+8110000D01*
X-10540000Y+8110000D01*
X-10540000Y-1070000D01*
M02*
