G04 #@! TF.GenerationSoftware,KiCad,Pcbnew,(5.1.2)-2*
G04 #@! TF.CreationDate,2020-05-01T16:22:05+07:00*
G04 #@! TF.ProjectId,l298n,6c323938-6e2e-46b6-9963-61645f706362,rev?*
G04 #@! TF.SameCoordinates,Original*
G04 #@! TF.FileFunction,Legend,Top*
G04 #@! TF.FilePolarity,Positive*
%FSLAX46Y46*%
G04 Gerber Fmt 4.6, Leading zero omitted, Abs format (unit mm)*
G04 Created by KiCad (PCBNEW (5.1.2)-2) date 2020-05-01 16:22:05*
%MOMM*%
%LPD*%
G04 APERTURE LIST*
%ADD10C,0.120000*%
%ADD11C,0.500000*%
%ADD12C,0.150000*%
G04 APERTURE END LIST*
D10*
X79248000Y-17526000D02*
X79248000Y-94488000D01*
X140208000Y-17526000D02*
X79248000Y-17526000D01*
X140208000Y-94488000D02*
X140208000Y-17526000D01*
X79248000Y-94488000D02*
X140208000Y-94488000D01*
D11*
X89790952Y-22748761D02*
X89790952Y-20748761D01*
X90933809Y-22748761D02*
X90076666Y-21605904D01*
X90933809Y-20748761D02*
X89790952Y-21891619D01*
X92552857Y-22653523D02*
X92362380Y-22748761D01*
X91981428Y-22748761D01*
X91790952Y-22653523D01*
X91695714Y-22463047D01*
X91695714Y-21701142D01*
X91790952Y-21510666D01*
X91981428Y-21415428D01*
X92362380Y-21415428D01*
X92552857Y-21510666D01*
X92648095Y-21701142D01*
X92648095Y-21891619D01*
X91695714Y-22082095D01*
X94267142Y-22653523D02*
X94076666Y-22748761D01*
X93695714Y-22748761D01*
X93505238Y-22653523D01*
X93410000Y-22463047D01*
X93410000Y-21701142D01*
X93505238Y-21510666D01*
X93695714Y-21415428D01*
X94076666Y-21415428D01*
X94267142Y-21510666D01*
X94362380Y-21701142D01*
X94362380Y-21891619D01*
X93410000Y-22082095D01*
X95219523Y-21415428D02*
X95219523Y-23415428D01*
X95219523Y-21510666D02*
X95410000Y-21415428D01*
X95790952Y-21415428D01*
X95981428Y-21510666D01*
X96076666Y-21605904D01*
X96171904Y-21796380D01*
X96171904Y-22367809D01*
X96076666Y-22558285D01*
X95981428Y-22653523D01*
X95790952Y-22748761D01*
X95410000Y-22748761D01*
X95219523Y-22653523D01*
X98552857Y-22748761D02*
X98552857Y-20748761D01*
X99219523Y-22177333D01*
X99886190Y-20748761D01*
X99886190Y-22748761D01*
X101124285Y-22748761D02*
X100933809Y-22653523D01*
X100838571Y-22558285D01*
X100743333Y-22367809D01*
X100743333Y-21796380D01*
X100838571Y-21605904D01*
X100933809Y-21510666D01*
X101124285Y-21415428D01*
X101410000Y-21415428D01*
X101600476Y-21510666D01*
X101695714Y-21605904D01*
X101790952Y-21796380D01*
X101790952Y-22367809D01*
X101695714Y-22558285D01*
X101600476Y-22653523D01*
X101410000Y-22748761D01*
X101124285Y-22748761D01*
X102457619Y-21415428D02*
X102933809Y-22748761D01*
X103410000Y-21415428D01*
X104171904Y-22748761D02*
X104171904Y-21415428D01*
X104171904Y-20748761D02*
X104076666Y-20844000D01*
X104171904Y-20939238D01*
X104267142Y-20844000D01*
X104171904Y-20748761D01*
X104171904Y-20939238D01*
X105124285Y-21415428D02*
X105124285Y-22748761D01*
X105124285Y-21605904D02*
X105219523Y-21510666D01*
X105410000Y-21415428D01*
X105695714Y-21415428D01*
X105886190Y-21510666D01*
X105981428Y-21701142D01*
X105981428Y-22748761D01*
X107790952Y-21415428D02*
X107790952Y-23034476D01*
X107695714Y-23224952D01*
X107600476Y-23320190D01*
X107410000Y-23415428D01*
X107124285Y-23415428D01*
X106933809Y-23320190D01*
X107790952Y-22653523D02*
X107600476Y-22748761D01*
X107219523Y-22748761D01*
X107029047Y-22653523D01*
X106933809Y-22558285D01*
X106838571Y-22367809D01*
X106838571Y-21796380D01*
X106933809Y-21605904D01*
X107029047Y-21510666D01*
X107219523Y-21415428D01*
X107600476Y-21415428D01*
X107790952Y-21510666D01*
X110933809Y-21701142D02*
X110267142Y-21701142D01*
X110267142Y-22748761D02*
X110267142Y-20748761D01*
X111219523Y-20748761D01*
X112267142Y-22748761D02*
X112076666Y-22653523D01*
X111981428Y-22558285D01*
X111886190Y-22367809D01*
X111886190Y-21796380D01*
X111981428Y-21605904D01*
X112076666Y-21510666D01*
X112267142Y-21415428D01*
X112552857Y-21415428D01*
X112743333Y-21510666D01*
X112838571Y-21605904D01*
X112933809Y-21796380D01*
X112933809Y-22367809D01*
X112838571Y-22558285D01*
X112743333Y-22653523D01*
X112552857Y-22748761D01*
X112267142Y-22748761D01*
X113790952Y-22748761D02*
X113790952Y-21415428D01*
X113790952Y-21796380D02*
X113886190Y-21605904D01*
X113981428Y-21510666D01*
X114171904Y-21415428D01*
X114362380Y-21415428D01*
X114838571Y-21415428D02*
X115219523Y-22748761D01*
X115600476Y-21796380D01*
X115981428Y-22748761D01*
X116362380Y-21415428D01*
X117981428Y-22748761D02*
X117981428Y-21701142D01*
X117886190Y-21510666D01*
X117695714Y-21415428D01*
X117314761Y-21415428D01*
X117124285Y-21510666D01*
X117981428Y-22653523D02*
X117790952Y-22748761D01*
X117314761Y-22748761D01*
X117124285Y-22653523D01*
X117029047Y-22463047D01*
X117029047Y-22272571D01*
X117124285Y-22082095D01*
X117314761Y-21986857D01*
X117790952Y-21986857D01*
X117981428Y-21891619D01*
X118933809Y-22748761D02*
X118933809Y-21415428D01*
X118933809Y-21796380D02*
X119029047Y-21605904D01*
X119124285Y-21510666D01*
X119314761Y-21415428D01*
X119505238Y-21415428D01*
X121029047Y-22748761D02*
X121029047Y-20748761D01*
X121029047Y-22653523D02*
X120838571Y-22748761D01*
X120457619Y-22748761D01*
X120267142Y-22653523D01*
X120171904Y-22558285D01*
X120076666Y-22367809D01*
X120076666Y-21796380D01*
X120171904Y-21605904D01*
X120267142Y-21510666D01*
X120457619Y-21415428D01*
X120838571Y-21415428D01*
X121029047Y-21510666D01*
D12*
X100782380Y-43418000D02*
X99782380Y-43418000D01*
X100782380Y-42941809D02*
X99782380Y-42941809D01*
X100782380Y-42370380D01*
X99782380Y-42370380D01*
X100782380Y-41370380D02*
X100782380Y-41941809D01*
X100782380Y-41656095D02*
X99782380Y-41656095D01*
X99925238Y-41751333D01*
X100020476Y-41846571D01*
X100068095Y-41941809D01*
X135890095Y-39378000D02*
X135794857Y-39330380D01*
X135652000Y-39330380D01*
X135509142Y-39378000D01*
X135413904Y-39473238D01*
X135366285Y-39568476D01*
X135318666Y-39758952D01*
X135318666Y-39901809D01*
X135366285Y-40092285D01*
X135413904Y-40187523D01*
X135509142Y-40282761D01*
X135652000Y-40330380D01*
X135747238Y-40330380D01*
X135890095Y-40282761D01*
X135937714Y-40235142D01*
X135937714Y-39901809D01*
X135747238Y-39901809D01*
X136366285Y-40330380D02*
X136366285Y-39330380D01*
X136937714Y-40330380D01*
X136937714Y-39330380D01*
X137413904Y-40330380D02*
X137413904Y-39330380D01*
X137652000Y-39330380D01*
X137794857Y-39378000D01*
X137890095Y-39473238D01*
X137937714Y-39568476D01*
X137985333Y-39758952D01*
X137985333Y-39901809D01*
X137937714Y-40092285D01*
X137890095Y-40187523D01*
X137794857Y-40282761D01*
X137652000Y-40330380D01*
X137413904Y-40330380D01*
X135302761Y-37266571D02*
X135636095Y-37266571D01*
X135778952Y-37790380D02*
X135302761Y-37790380D01*
X135302761Y-36790380D01*
X135778952Y-36790380D01*
X136207523Y-37123714D02*
X136207523Y-37790380D01*
X136207523Y-37218952D02*
X136255142Y-37171333D01*
X136350380Y-37123714D01*
X136493238Y-37123714D01*
X136588476Y-37171333D01*
X136636095Y-37266571D01*
X136636095Y-37790380D01*
X137064666Y-37504666D02*
X137540857Y-37504666D01*
X136969428Y-37790380D02*
X137302761Y-36790380D01*
X137636095Y-37790380D01*
X135398000Y-35504380D02*
X135398000Y-34504380D01*
X135874190Y-35504380D02*
X135874190Y-34504380D01*
X136445619Y-35504380D01*
X136445619Y-34504380D01*
X137350380Y-34837714D02*
X137350380Y-35504380D01*
X137112285Y-34456761D02*
X136874190Y-35171047D01*
X137493238Y-35171047D01*
X135398000Y-33472380D02*
X135398000Y-32472380D01*
X135874190Y-33472380D02*
X135874190Y-32472380D01*
X136445619Y-33472380D01*
X136445619Y-32472380D01*
X136826571Y-32472380D02*
X137445619Y-32472380D01*
X137112285Y-32853333D01*
X137255142Y-32853333D01*
X137350380Y-32900952D01*
X137398000Y-32948571D01*
X137445619Y-33043809D01*
X137445619Y-33281904D01*
X137398000Y-33377142D01*
X137350380Y-33424761D01*
X137255142Y-33472380D01*
X136969428Y-33472380D01*
X136874190Y-33424761D01*
X136826571Y-33377142D01*
X81129333Y-39552571D02*
X81462666Y-39552571D01*
X81605523Y-40076380D02*
X81129333Y-40076380D01*
X81129333Y-39076380D01*
X81605523Y-39076380D01*
X82034095Y-39409714D02*
X82034095Y-40076380D01*
X82034095Y-39504952D02*
X82081714Y-39457333D01*
X82176952Y-39409714D01*
X82319809Y-39409714D01*
X82415047Y-39457333D01*
X82462666Y-39552571D01*
X82462666Y-40076380D01*
X83272190Y-39552571D02*
X83415047Y-39600190D01*
X83462666Y-39647809D01*
X83510285Y-39743047D01*
X83510285Y-39885904D01*
X83462666Y-39981142D01*
X83415047Y-40028761D01*
X83319809Y-40076380D01*
X82938857Y-40076380D01*
X82938857Y-39076380D01*
X83272190Y-39076380D01*
X83367428Y-39124000D01*
X83415047Y-39171619D01*
X83462666Y-39266857D01*
X83462666Y-39362095D01*
X83415047Y-39457333D01*
X83367428Y-39504952D01*
X83272190Y-39552571D01*
X82938857Y-39552571D01*
X81296000Y-37536380D02*
X81296000Y-36536380D01*
X81772190Y-37536380D02*
X81772190Y-36536380D01*
X82343619Y-37536380D01*
X82343619Y-36536380D01*
X82772190Y-36631619D02*
X82819809Y-36584000D01*
X82915047Y-36536380D01*
X83153142Y-36536380D01*
X83248380Y-36584000D01*
X83296000Y-36631619D01*
X83343619Y-36726857D01*
X83343619Y-36822095D01*
X83296000Y-36964952D01*
X82724571Y-37536380D01*
X83343619Y-37536380D01*
X81296000Y-34996380D02*
X81296000Y-33996380D01*
X81772190Y-34996380D02*
X81772190Y-33996380D01*
X82343619Y-34996380D01*
X82343619Y-33996380D01*
X83343619Y-34996380D02*
X82772190Y-34996380D01*
X83057904Y-34996380D02*
X83057904Y-33996380D01*
X82962666Y-34139238D01*
X82867428Y-34234476D01*
X82772190Y-34282095D01*
X81851523Y-31964380D02*
X81375333Y-31964380D01*
X81327714Y-32440571D01*
X81375333Y-32392952D01*
X81470571Y-32345333D01*
X81708666Y-32345333D01*
X81803904Y-32392952D01*
X81851523Y-32440571D01*
X81899142Y-32535809D01*
X81899142Y-32773904D01*
X81851523Y-32869142D01*
X81803904Y-32916761D01*
X81708666Y-32964380D01*
X81470571Y-32964380D01*
X81375333Y-32916761D01*
X81327714Y-32869142D01*
X82184857Y-31964380D02*
X82518190Y-32964380D01*
X82851523Y-31964380D01*
X80042000Y-60142380D02*
X80042000Y-59142380D01*
X80375333Y-59856666D01*
X80708666Y-59142380D01*
X80708666Y-60142380D01*
X81327714Y-60142380D02*
X81232476Y-60094761D01*
X81184857Y-60047142D01*
X81137238Y-59951904D01*
X81137238Y-59666190D01*
X81184857Y-59570952D01*
X81232476Y-59523333D01*
X81327714Y-59475714D01*
X81470571Y-59475714D01*
X81565809Y-59523333D01*
X81613428Y-59570952D01*
X81661047Y-59666190D01*
X81661047Y-59951904D01*
X81613428Y-60047142D01*
X81565809Y-60094761D01*
X81470571Y-60142380D01*
X81327714Y-60142380D01*
X81946761Y-59475714D02*
X82327714Y-59475714D01*
X82089619Y-59142380D02*
X82089619Y-59999523D01*
X82137238Y-60094761D01*
X82232476Y-60142380D01*
X82327714Y-60142380D01*
X83184857Y-60142380D02*
X82613428Y-60142380D01*
X82899142Y-60142380D02*
X82899142Y-59142380D01*
X82803904Y-59285238D01*
X82708666Y-59380476D01*
X82613428Y-59428095D01*
X84042000Y-60142380D02*
X84042000Y-59618571D01*
X83994380Y-59523333D01*
X83899142Y-59475714D01*
X83708666Y-59475714D01*
X83613428Y-59523333D01*
X84042000Y-60094761D02*
X83946761Y-60142380D01*
X83708666Y-60142380D01*
X83613428Y-60094761D01*
X83565809Y-59999523D01*
X83565809Y-59904285D01*
X83613428Y-59809047D01*
X83708666Y-59761428D01*
X83946761Y-59761428D01*
X84042000Y-59713809D01*
X80042000Y-62936380D02*
X80042000Y-61936380D01*
X80375333Y-62650666D01*
X80708666Y-61936380D01*
X80708666Y-62936380D01*
X81327714Y-62936380D02*
X81232476Y-62888761D01*
X81184857Y-62841142D01*
X81137238Y-62745904D01*
X81137238Y-62460190D01*
X81184857Y-62364952D01*
X81232476Y-62317333D01*
X81327714Y-62269714D01*
X81470571Y-62269714D01*
X81565809Y-62317333D01*
X81613428Y-62364952D01*
X81661047Y-62460190D01*
X81661047Y-62745904D01*
X81613428Y-62841142D01*
X81565809Y-62888761D01*
X81470571Y-62936380D01*
X81327714Y-62936380D01*
X81946761Y-62269714D02*
X82327714Y-62269714D01*
X82089619Y-61936380D02*
X82089619Y-62793523D01*
X82137238Y-62888761D01*
X82232476Y-62936380D01*
X82327714Y-62936380D01*
X83184857Y-62936380D02*
X82613428Y-62936380D01*
X82899142Y-62936380D02*
X82899142Y-61936380D01*
X82803904Y-62079238D01*
X82708666Y-62174476D01*
X82613428Y-62222095D01*
X83613428Y-62936380D02*
X83613428Y-61936380D01*
X83613428Y-62317333D02*
X83708666Y-62269714D01*
X83899142Y-62269714D01*
X83994380Y-62317333D01*
X84042000Y-62364952D01*
X84089619Y-62460190D01*
X84089619Y-62745904D01*
X84042000Y-62841142D01*
X83994380Y-62888761D01*
X83899142Y-62936380D01*
X83708666Y-62936380D01*
X83613428Y-62888761D01*
X81534095Y-64524000D02*
X81438857Y-64476380D01*
X81296000Y-64476380D01*
X81153142Y-64524000D01*
X81057904Y-64619238D01*
X81010285Y-64714476D01*
X80962666Y-64904952D01*
X80962666Y-65047809D01*
X81010285Y-65238285D01*
X81057904Y-65333523D01*
X81153142Y-65428761D01*
X81296000Y-65476380D01*
X81391238Y-65476380D01*
X81534095Y-65428761D01*
X81581714Y-65381142D01*
X81581714Y-65047809D01*
X81391238Y-65047809D01*
X82010285Y-65476380D02*
X82010285Y-64476380D01*
X82581714Y-65476380D01*
X82581714Y-64476380D01*
X83057904Y-65476380D02*
X83057904Y-64476380D01*
X83296000Y-64476380D01*
X83438857Y-64524000D01*
X83534095Y-64619238D01*
X83581714Y-64714476D01*
X83629333Y-64904952D01*
X83629333Y-65047809D01*
X83581714Y-65238285D01*
X83534095Y-65333523D01*
X83438857Y-65428761D01*
X83296000Y-65476380D01*
X83057904Y-65476380D01*
X81899142Y-67016380D02*
X81422952Y-67016380D01*
X81375333Y-67492571D01*
X81422952Y-67444952D01*
X81518190Y-67397333D01*
X81756285Y-67397333D01*
X81851523Y-67444952D01*
X81899142Y-67492571D01*
X81946761Y-67587809D01*
X81946761Y-67825904D01*
X81899142Y-67921142D01*
X81851523Y-67968761D01*
X81756285Y-68016380D01*
X81518190Y-68016380D01*
X81422952Y-67968761D01*
X81375333Y-67921142D01*
X82280095Y-67349714D02*
X82518190Y-68016380D01*
X82756285Y-67349714D01*
X80018190Y-69524571D02*
X80351523Y-69524571D01*
X80494380Y-70048380D02*
X80018190Y-70048380D01*
X80018190Y-69048380D01*
X80494380Y-69048380D01*
X80922952Y-69381714D02*
X80922952Y-70048380D01*
X80922952Y-69476952D02*
X80970571Y-69429333D01*
X81065809Y-69381714D01*
X81208666Y-69381714D01*
X81303904Y-69429333D01*
X81351523Y-69524571D01*
X81351523Y-70048380D01*
X82256285Y-70000761D02*
X82161047Y-70048380D01*
X81970571Y-70048380D01*
X81875333Y-70000761D01*
X81827714Y-69953142D01*
X81780095Y-69857904D01*
X81780095Y-69572190D01*
X81827714Y-69476952D01*
X81875333Y-69429333D01*
X81970571Y-69381714D01*
X82161047Y-69381714D01*
X82256285Y-69429333D01*
X83208666Y-70048380D02*
X82637238Y-70048380D01*
X82922952Y-70048380D02*
X82922952Y-69048380D01*
X82827714Y-69191238D01*
X82732476Y-69286476D01*
X82637238Y-69334095D01*
X83637238Y-70048380D02*
X83637238Y-69048380D01*
X83637238Y-69429333D02*
X83732476Y-69381714D01*
X83922952Y-69381714D01*
X84018190Y-69429333D01*
X84065809Y-69476952D01*
X84113428Y-69572190D01*
X84113428Y-69857904D01*
X84065809Y-69953142D01*
X84018190Y-70000761D01*
X83922952Y-70048380D01*
X83732476Y-70048380D01*
X83637238Y-70000761D01*
X80018190Y-72572571D02*
X80351523Y-72572571D01*
X80494380Y-73096380D02*
X80018190Y-73096380D01*
X80018190Y-72096380D01*
X80494380Y-72096380D01*
X80922952Y-72429714D02*
X80922952Y-73096380D01*
X80922952Y-72524952D02*
X80970571Y-72477333D01*
X81065809Y-72429714D01*
X81208666Y-72429714D01*
X81303904Y-72477333D01*
X81351523Y-72572571D01*
X81351523Y-73096380D01*
X82256285Y-73048761D02*
X82161047Y-73096380D01*
X81970571Y-73096380D01*
X81875333Y-73048761D01*
X81827714Y-73001142D01*
X81780095Y-72905904D01*
X81780095Y-72620190D01*
X81827714Y-72524952D01*
X81875333Y-72477333D01*
X81970571Y-72429714D01*
X82161047Y-72429714D01*
X82256285Y-72477333D01*
X83208666Y-73096380D02*
X82637238Y-73096380D01*
X82922952Y-73096380D02*
X82922952Y-72096380D01*
X82827714Y-72239238D01*
X82732476Y-72334476D01*
X82637238Y-72382095D01*
X84065809Y-73096380D02*
X84065809Y-72572571D01*
X84018190Y-72477333D01*
X83922952Y-72429714D01*
X83732476Y-72429714D01*
X83637238Y-72477333D01*
X84065809Y-73048761D02*
X83970571Y-73096380D01*
X83732476Y-73096380D01*
X83637238Y-73048761D01*
X83589619Y-72953523D01*
X83589619Y-72858285D01*
X83637238Y-72763047D01*
X83732476Y-72715428D01*
X83970571Y-72715428D01*
X84065809Y-72667809D01*
X133612190Y-72064571D02*
X133945523Y-72064571D01*
X134088380Y-72588380D02*
X133612190Y-72588380D01*
X133612190Y-71588380D01*
X134088380Y-71588380D01*
X134516952Y-71921714D02*
X134516952Y-72588380D01*
X134516952Y-72016952D02*
X134564571Y-71969333D01*
X134659809Y-71921714D01*
X134802666Y-71921714D01*
X134897904Y-71969333D01*
X134945523Y-72064571D01*
X134945523Y-72588380D01*
X135850285Y-72540761D02*
X135755047Y-72588380D01*
X135564571Y-72588380D01*
X135469333Y-72540761D01*
X135421714Y-72493142D01*
X135374095Y-72397904D01*
X135374095Y-72112190D01*
X135421714Y-72016952D01*
X135469333Y-71969333D01*
X135564571Y-71921714D01*
X135755047Y-71921714D01*
X135850285Y-71969333D01*
X136231238Y-71683619D02*
X136278857Y-71636000D01*
X136374095Y-71588380D01*
X136612190Y-71588380D01*
X136707428Y-71636000D01*
X136755047Y-71683619D01*
X136802666Y-71778857D01*
X136802666Y-71874095D01*
X136755047Y-72016952D01*
X136183619Y-72588380D01*
X136802666Y-72588380D01*
X137659809Y-72588380D02*
X137659809Y-72064571D01*
X137612190Y-71969333D01*
X137516952Y-71921714D01*
X137326476Y-71921714D01*
X137231238Y-71969333D01*
X137659809Y-72540761D02*
X137564571Y-72588380D01*
X137326476Y-72588380D01*
X137231238Y-72540761D01*
X137183619Y-72445523D01*
X137183619Y-72350285D01*
X137231238Y-72255047D01*
X137326476Y-72207428D01*
X137564571Y-72207428D01*
X137659809Y-72159809D01*
X133358190Y-69524571D02*
X133691523Y-69524571D01*
X133834380Y-70048380D02*
X133358190Y-70048380D01*
X133358190Y-69048380D01*
X133834380Y-69048380D01*
X134262952Y-69381714D02*
X134262952Y-70048380D01*
X134262952Y-69476952D02*
X134310571Y-69429333D01*
X134405809Y-69381714D01*
X134548666Y-69381714D01*
X134643904Y-69429333D01*
X134691523Y-69524571D01*
X134691523Y-70048380D01*
X135596285Y-70000761D02*
X135501047Y-70048380D01*
X135310571Y-70048380D01*
X135215333Y-70000761D01*
X135167714Y-69953142D01*
X135120095Y-69857904D01*
X135120095Y-69572190D01*
X135167714Y-69476952D01*
X135215333Y-69429333D01*
X135310571Y-69381714D01*
X135501047Y-69381714D01*
X135596285Y-69429333D01*
X135977238Y-69143619D02*
X136024857Y-69096000D01*
X136120095Y-69048380D01*
X136358190Y-69048380D01*
X136453428Y-69096000D01*
X136501047Y-69143619D01*
X136548666Y-69238857D01*
X136548666Y-69334095D01*
X136501047Y-69476952D01*
X135929619Y-70048380D01*
X136548666Y-70048380D01*
X136977238Y-70048380D02*
X136977238Y-69048380D01*
X136977238Y-69429333D02*
X137072476Y-69381714D01*
X137262952Y-69381714D01*
X137358190Y-69429333D01*
X137405809Y-69476952D01*
X137453428Y-69572190D01*
X137453428Y-69857904D01*
X137405809Y-69953142D01*
X137358190Y-70000761D01*
X137262952Y-70048380D01*
X137072476Y-70048380D01*
X136977238Y-70000761D01*
X134429523Y-66508380D02*
X133953333Y-66508380D01*
X133905714Y-66984571D01*
X133953333Y-66936952D01*
X134048571Y-66889333D01*
X134286666Y-66889333D01*
X134381904Y-66936952D01*
X134429523Y-66984571D01*
X134477142Y-67079809D01*
X134477142Y-67317904D01*
X134429523Y-67413142D01*
X134381904Y-67460761D01*
X134286666Y-67508380D01*
X134048571Y-67508380D01*
X133953333Y-67460761D01*
X133905714Y-67413142D01*
X134762857Y-66508380D02*
X135096190Y-67508380D01*
X135429523Y-66508380D01*
X134112095Y-64016000D02*
X134016857Y-63968380D01*
X133874000Y-63968380D01*
X133731142Y-64016000D01*
X133635904Y-64111238D01*
X133588285Y-64206476D01*
X133540666Y-64396952D01*
X133540666Y-64539809D01*
X133588285Y-64730285D01*
X133635904Y-64825523D01*
X133731142Y-64920761D01*
X133874000Y-64968380D01*
X133969238Y-64968380D01*
X134112095Y-64920761D01*
X134159714Y-64873142D01*
X134159714Y-64539809D01*
X133969238Y-64539809D01*
X134588285Y-64968380D02*
X134588285Y-63968380D01*
X135159714Y-64968380D01*
X135159714Y-63968380D01*
X135635904Y-64968380D02*
X135635904Y-63968380D01*
X135874000Y-63968380D01*
X136016857Y-64016000D01*
X136112095Y-64111238D01*
X136159714Y-64206476D01*
X136207333Y-64396952D01*
X136207333Y-64539809D01*
X136159714Y-64730285D01*
X136112095Y-64825523D01*
X136016857Y-64920761D01*
X135874000Y-64968380D01*
X135635904Y-64968380D01*
X133382000Y-62174380D02*
X133382000Y-61174380D01*
X133715333Y-61888666D01*
X134048666Y-61174380D01*
X134048666Y-62174380D01*
X134667714Y-62174380D02*
X134572476Y-62126761D01*
X134524857Y-62079142D01*
X134477238Y-61983904D01*
X134477238Y-61698190D01*
X134524857Y-61602952D01*
X134572476Y-61555333D01*
X134667714Y-61507714D01*
X134810571Y-61507714D01*
X134905809Y-61555333D01*
X134953428Y-61602952D01*
X135001047Y-61698190D01*
X135001047Y-61983904D01*
X134953428Y-62079142D01*
X134905809Y-62126761D01*
X134810571Y-62174380D01*
X134667714Y-62174380D01*
X135286761Y-61507714D02*
X135667714Y-61507714D01*
X135429619Y-61174380D02*
X135429619Y-62031523D01*
X135477238Y-62126761D01*
X135572476Y-62174380D01*
X135667714Y-62174380D01*
X135953428Y-61269619D02*
X136001047Y-61222000D01*
X136096285Y-61174380D01*
X136334380Y-61174380D01*
X136429619Y-61222000D01*
X136477238Y-61269619D01*
X136524857Y-61364857D01*
X136524857Y-61460095D01*
X136477238Y-61602952D01*
X135905809Y-62174380D01*
X136524857Y-62174380D01*
X136953428Y-62174380D02*
X136953428Y-61174380D01*
X136953428Y-61555333D02*
X137048666Y-61507714D01*
X137239142Y-61507714D01*
X137334380Y-61555333D01*
X137382000Y-61602952D01*
X137429619Y-61698190D01*
X137429619Y-61983904D01*
X137382000Y-62079142D01*
X137334380Y-62126761D01*
X137239142Y-62174380D01*
X137048666Y-62174380D01*
X136953428Y-62126761D01*
X133382000Y-59888380D02*
X133382000Y-58888380D01*
X133715333Y-59602666D01*
X134048666Y-58888380D01*
X134048666Y-59888380D01*
X134667714Y-59888380D02*
X134572476Y-59840761D01*
X134524857Y-59793142D01*
X134477238Y-59697904D01*
X134477238Y-59412190D01*
X134524857Y-59316952D01*
X134572476Y-59269333D01*
X134667714Y-59221714D01*
X134810571Y-59221714D01*
X134905809Y-59269333D01*
X134953428Y-59316952D01*
X135001047Y-59412190D01*
X135001047Y-59697904D01*
X134953428Y-59793142D01*
X134905809Y-59840761D01*
X134810571Y-59888380D01*
X134667714Y-59888380D01*
X135286761Y-59221714D02*
X135667714Y-59221714D01*
X135429619Y-58888380D02*
X135429619Y-59745523D01*
X135477238Y-59840761D01*
X135572476Y-59888380D01*
X135667714Y-59888380D01*
X135953428Y-58983619D02*
X136001047Y-58936000D01*
X136096285Y-58888380D01*
X136334380Y-58888380D01*
X136429619Y-58936000D01*
X136477238Y-58983619D01*
X136524857Y-59078857D01*
X136524857Y-59174095D01*
X136477238Y-59316952D01*
X135905809Y-59888380D01*
X136524857Y-59888380D01*
X137382000Y-59888380D02*
X137382000Y-59364571D01*
X137334380Y-59269333D01*
X137239142Y-59221714D01*
X137048666Y-59221714D01*
X136953428Y-59269333D01*
X137382000Y-59840761D02*
X137286761Y-59888380D01*
X137048666Y-59888380D01*
X136953428Y-59840761D01*
X136905809Y-59745523D01*
X136905809Y-59650285D01*
X136953428Y-59555047D01*
X137048666Y-59507428D01*
X137286761Y-59507428D01*
X137382000Y-59459809D01*
X109148571Y-92955809D02*
X109148571Y-92622476D01*
X109672380Y-92479619D02*
X109672380Y-92955809D01*
X108672380Y-92955809D01*
X108672380Y-92479619D01*
X109005714Y-92051047D02*
X109672380Y-92051047D01*
X109100952Y-92051047D02*
X109053333Y-92003428D01*
X109005714Y-91908190D01*
X109005714Y-91765333D01*
X109053333Y-91670095D01*
X109148571Y-91622476D01*
X109672380Y-91622476D01*
X109624761Y-90717714D02*
X109672380Y-90812952D01*
X109672380Y-91003428D01*
X109624761Y-91098666D01*
X109577142Y-91146285D01*
X109481904Y-91193904D01*
X109196190Y-91193904D01*
X109100952Y-91146285D01*
X109053333Y-91098666D01*
X109005714Y-91003428D01*
X109005714Y-90812952D01*
X109053333Y-90717714D01*
X108767619Y-90336761D02*
X108720000Y-90289142D01*
X108672380Y-90193904D01*
X108672380Y-89955809D01*
X108720000Y-89860571D01*
X108767619Y-89812952D01*
X108862857Y-89765333D01*
X108958095Y-89765333D01*
X109100952Y-89812952D01*
X109672380Y-90384380D01*
X109672380Y-89765333D01*
X109672380Y-89336761D02*
X108672380Y-89336761D01*
X109053333Y-89336761D02*
X109005714Y-89241523D01*
X109005714Y-89051047D01*
X109053333Y-88955809D01*
X109100952Y-88908190D01*
X109196190Y-88860571D01*
X109481904Y-88860571D01*
X109577142Y-88908190D01*
X109624761Y-88955809D01*
X109672380Y-89051047D01*
X109672380Y-89241523D01*
X109624761Y-89336761D01*
X106354571Y-92955809D02*
X106354571Y-92622476D01*
X106878380Y-92479619D02*
X106878380Y-92955809D01*
X105878380Y-92955809D01*
X105878380Y-92479619D01*
X106211714Y-92051047D02*
X106878380Y-92051047D01*
X106306952Y-92051047D02*
X106259333Y-92003428D01*
X106211714Y-91908190D01*
X106211714Y-91765333D01*
X106259333Y-91670095D01*
X106354571Y-91622476D01*
X106878380Y-91622476D01*
X106830761Y-90717714D02*
X106878380Y-90812952D01*
X106878380Y-91003428D01*
X106830761Y-91098666D01*
X106783142Y-91146285D01*
X106687904Y-91193904D01*
X106402190Y-91193904D01*
X106306952Y-91146285D01*
X106259333Y-91098666D01*
X106211714Y-91003428D01*
X106211714Y-90812952D01*
X106259333Y-90717714D01*
X105973619Y-90336761D02*
X105926000Y-90289142D01*
X105878380Y-90193904D01*
X105878380Y-89955809D01*
X105926000Y-89860571D01*
X105973619Y-89812952D01*
X106068857Y-89765333D01*
X106164095Y-89765333D01*
X106306952Y-89812952D01*
X106878380Y-90384380D01*
X106878380Y-89765333D01*
X106878380Y-88908190D02*
X106354571Y-88908190D01*
X106259333Y-88955809D01*
X106211714Y-89051047D01*
X106211714Y-89241523D01*
X106259333Y-89336761D01*
X106830761Y-88908190D02*
X106878380Y-89003428D01*
X106878380Y-89241523D01*
X106830761Y-89336761D01*
X106735523Y-89384380D01*
X106640285Y-89384380D01*
X106545047Y-89336761D01*
X106497428Y-89241523D01*
X106497428Y-89003428D01*
X106449809Y-88908190D01*
X104068571Y-92955809D02*
X104068571Y-92622476D01*
X104592380Y-92479619D02*
X104592380Y-92955809D01*
X103592380Y-92955809D01*
X103592380Y-92479619D01*
X103925714Y-92051047D02*
X104592380Y-92051047D01*
X104020952Y-92051047D02*
X103973333Y-92003428D01*
X103925714Y-91908190D01*
X103925714Y-91765333D01*
X103973333Y-91670095D01*
X104068571Y-91622476D01*
X104592380Y-91622476D01*
X104544761Y-90717714D02*
X104592380Y-90812952D01*
X104592380Y-91003428D01*
X104544761Y-91098666D01*
X104497142Y-91146285D01*
X104401904Y-91193904D01*
X104116190Y-91193904D01*
X104020952Y-91146285D01*
X103973333Y-91098666D01*
X103925714Y-91003428D01*
X103925714Y-90812952D01*
X103973333Y-90717714D01*
X104592380Y-89765333D02*
X104592380Y-90336761D01*
X104592380Y-90051047D02*
X103592380Y-90051047D01*
X103735238Y-90146285D01*
X103830476Y-90241523D01*
X103878095Y-90336761D01*
X104592380Y-89336761D02*
X103592380Y-89336761D01*
X103973333Y-89336761D02*
X103925714Y-89241523D01*
X103925714Y-89051047D01*
X103973333Y-88955809D01*
X104020952Y-88908190D01*
X104116190Y-88860571D01*
X104401904Y-88860571D01*
X104497142Y-88908190D01*
X104544761Y-88955809D01*
X104592380Y-89051047D01*
X104592380Y-89241523D01*
X104544761Y-89336761D01*
X101274571Y-92955809D02*
X101274571Y-92622476D01*
X101798380Y-92479619D02*
X101798380Y-92955809D01*
X100798380Y-92955809D01*
X100798380Y-92479619D01*
X101131714Y-92051047D02*
X101798380Y-92051047D01*
X101226952Y-92051047D02*
X101179333Y-92003428D01*
X101131714Y-91908190D01*
X101131714Y-91765333D01*
X101179333Y-91670095D01*
X101274571Y-91622476D01*
X101798380Y-91622476D01*
X101750761Y-90717714D02*
X101798380Y-90812952D01*
X101798380Y-91003428D01*
X101750761Y-91098666D01*
X101703142Y-91146285D01*
X101607904Y-91193904D01*
X101322190Y-91193904D01*
X101226952Y-91146285D01*
X101179333Y-91098666D01*
X101131714Y-91003428D01*
X101131714Y-90812952D01*
X101179333Y-90717714D01*
X101798380Y-89765333D02*
X101798380Y-90336761D01*
X101798380Y-90051047D02*
X100798380Y-90051047D01*
X100941238Y-90146285D01*
X101036476Y-90241523D01*
X101084095Y-90336761D01*
X101798380Y-88908190D02*
X101274571Y-88908190D01*
X101179333Y-88955809D01*
X101131714Y-89051047D01*
X101131714Y-89241523D01*
X101179333Y-89336761D01*
X101750761Y-88908190D02*
X101798380Y-89003428D01*
X101798380Y-89241523D01*
X101750761Y-89336761D01*
X101655523Y-89384380D01*
X101560285Y-89384380D01*
X101465047Y-89336761D01*
X101417428Y-89241523D01*
X101417428Y-89003428D01*
X101369809Y-88908190D01*
D11*
X130429142Y-86574285D02*
X132714857Y-86574285D01*
X125095142Y-86574285D02*
X127380857Y-86574285D01*
X126238000Y-87717142D02*
X126238000Y-85431428D01*
D10*
X92904000Y-30674000D02*
X94234000Y-30674000D01*
X92904000Y-32004000D02*
X92904000Y-30674000D01*
X92904000Y-33274000D02*
X95564000Y-33274000D01*
X95564000Y-33274000D02*
X95564000Y-40954000D01*
X92904000Y-33274000D02*
X92904000Y-40954000D01*
X92904000Y-40954000D02*
X95564000Y-40954000D01*
X106620000Y-45526000D02*
X106620000Y-44196000D01*
X107950000Y-45526000D02*
X106620000Y-45526000D01*
X109220000Y-45526000D02*
X109220000Y-42866000D01*
X109220000Y-42866000D02*
X116900000Y-42866000D01*
X109220000Y-45526000D02*
X116900000Y-45526000D01*
X116900000Y-45526000D02*
X116900000Y-42866000D01*
X130242000Y-30928000D02*
X131572000Y-30928000D01*
X130242000Y-32258000D02*
X130242000Y-30928000D01*
X130242000Y-33528000D02*
X132902000Y-33528000D01*
X132902000Y-33528000D02*
X132902000Y-41208000D01*
X130242000Y-33528000D02*
X130242000Y-41208000D01*
X130242000Y-41208000D02*
X132902000Y-41208000D01*
X101286000Y-28908000D02*
X121726000Y-28908000D01*
X101286000Y-34149000D02*
X102962000Y-34149000D01*
X104811000Y-34149000D02*
X105502000Y-34149000D01*
X107351000Y-34149000D02*
X108042000Y-34149000D01*
X109891000Y-34149000D02*
X110582000Y-34149000D01*
X112431000Y-34149000D02*
X113122000Y-34149000D01*
X114971000Y-34149000D02*
X115662000Y-34149000D01*
X117511000Y-34149000D02*
X118202000Y-34149000D01*
X120051000Y-34149000D02*
X121726000Y-34149000D01*
X101286000Y-28908000D02*
X101286000Y-34149000D01*
X121726000Y-28908000D02*
X121726000Y-34149000D01*
X101286000Y-30748000D02*
X121726000Y-30748000D01*
X109657000Y-28908000D02*
X109657000Y-30748000D01*
X113356000Y-28908000D02*
X113356000Y-30748000D01*
X102616000Y-34149000D02*
X102616000Y-37558000D01*
X105156000Y-34149000D02*
X105156000Y-37543000D01*
X107696000Y-34149000D02*
X107696000Y-37543000D01*
X110236000Y-34149000D02*
X110236000Y-37543000D01*
X112776000Y-34149000D02*
X112776000Y-37543000D01*
X115316000Y-34149000D02*
X115316000Y-37543000D01*
X117856000Y-34149000D02*
X117856000Y-37543000D01*
X120396000Y-34149000D02*
X120396000Y-37543000D01*
X110752000Y-81059000D02*
X110752000Y-81684000D01*
X110752000Y-78844000D02*
X110752000Y-79469000D01*
X106712000Y-81059000D02*
X106712000Y-81684000D01*
X106712000Y-78844000D02*
X106712000Y-79469000D01*
X106712000Y-81684000D02*
X110752000Y-81684000D01*
X106712000Y-78844000D02*
X110752000Y-78844000D01*
X111752000Y-79469000D02*
X111752000Y-78844000D01*
X111752000Y-81684000D02*
X111752000Y-81059000D01*
X115792000Y-79469000D02*
X115792000Y-78844000D01*
X115792000Y-81684000D02*
X115792000Y-81059000D01*
X115792000Y-78844000D02*
X111752000Y-78844000D01*
X115792000Y-81684000D02*
X111752000Y-81684000D01*
X120658000Y-81684000D02*
X116618000Y-81684000D01*
X120658000Y-78844000D02*
X116618000Y-78844000D01*
X120658000Y-81684000D02*
X120658000Y-81059000D01*
X120658000Y-79469000D02*
X120658000Y-78844000D01*
X116618000Y-81684000D02*
X116618000Y-81059000D01*
X116618000Y-79469000D02*
X116618000Y-78844000D01*
X100592000Y-81684000D02*
X96552000Y-81684000D01*
X100592000Y-78844000D02*
X96552000Y-78844000D01*
X100592000Y-81684000D02*
X100592000Y-81059000D01*
X100592000Y-79469000D02*
X100592000Y-78844000D01*
X96552000Y-81684000D02*
X96552000Y-81059000D01*
X96552000Y-79469000D02*
X96552000Y-78844000D01*
X101592000Y-78844000D02*
X105632000Y-78844000D01*
X101592000Y-81684000D02*
X105632000Y-81684000D01*
X101592000Y-78844000D02*
X101592000Y-79469000D01*
X101592000Y-81059000D02*
X101592000Y-81684000D01*
X105632000Y-78844000D02*
X105632000Y-79469000D01*
X105632000Y-81059000D02*
X105632000Y-81684000D01*
X87850000Y-81498000D02*
X87694000Y-81498000D01*
X85534000Y-81498000D02*
X85378000Y-81498000D01*
X87692608Y-84730335D02*
G75*
G03X87849516Y-81498000I-1078608J1672335D01*
G01*
X85535392Y-84730335D02*
G75*
G02X85378484Y-81498000I1078608J1672335D01*
G01*
X87693837Y-84099130D02*
G75*
G03X87694000Y-82017039I-1079837J1041130D01*
G01*
X85534163Y-84099130D02*
G75*
G02X85534000Y-82017039I1079837J1041130D01*
G01*
X133858000Y-83566000D02*
X123698000Y-83566000D01*
X133858000Y-84836000D02*
X133858000Y-77216000D01*
X133858000Y-77216000D02*
X123698000Y-77216000D01*
X123698000Y-77216000D02*
X123698000Y-84836000D01*
X123698000Y-84836000D02*
X133858000Y-84836000D01*
X102870000Y-87690000D02*
X102870000Y-85030000D01*
X102870000Y-87690000D02*
X110550000Y-87690000D01*
X110550000Y-87690000D02*
X110550000Y-85030000D01*
X102870000Y-85030000D02*
X110550000Y-85030000D01*
X100270000Y-85030000D02*
X101600000Y-85030000D01*
X100270000Y-86360000D02*
X100270000Y-85030000D01*
X85030000Y-61214000D02*
X87690000Y-61214000D01*
X85030000Y-61214000D02*
X85030000Y-73974000D01*
X85030000Y-73974000D02*
X87690000Y-73974000D01*
X87690000Y-61214000D02*
X87690000Y-73974000D01*
X87690000Y-58614000D02*
X87690000Y-59944000D01*
X86360000Y-58614000D02*
X87690000Y-58614000D01*
X131572000Y-58106000D02*
X132902000Y-58106000D01*
X132902000Y-58106000D02*
X132902000Y-59436000D01*
X132902000Y-60706000D02*
X132902000Y-73466000D01*
X130242000Y-73466000D02*
X132902000Y-73466000D01*
X130242000Y-60706000D02*
X130242000Y-73466000D01*
X130242000Y-60706000D02*
X132902000Y-60706000D01*
X95680000Y-80264000D02*
G75*
G03X95680000Y-80264000I-2970000J0D01*
G01*
X92710000Y-83234000D02*
X92710000Y-83644000D01*
X85284000Y-40954000D02*
X87944000Y-40954000D01*
X85284000Y-33274000D02*
X85284000Y-40954000D01*
X87944000Y-33274000D02*
X87944000Y-40954000D01*
X85284000Y-33274000D02*
X87944000Y-33274000D01*
X85284000Y-32004000D02*
X85284000Y-30674000D01*
X85284000Y-30674000D02*
X86614000Y-30674000D01*
X113992000Y-68843000D02*
X113992000Y-74413000D01*
X113992000Y-74413000D02*
X123752000Y-74413000D01*
X123752000Y-74413000D02*
X123752000Y-68843000D01*
X123752000Y-68843000D02*
X113992000Y-68843000D01*
X112692000Y-71628000D02*
X113992000Y-71628000D01*
X125052000Y-71628000D02*
X123752000Y-71628000D01*
X115540000Y-68843000D02*
X115540000Y-74413000D01*
X115660000Y-68843000D02*
X115660000Y-74413000D01*
X115420000Y-68843000D02*
X115420000Y-74413000D01*
X93623001Y-55056001D02*
X93623001Y-60626001D01*
X93623001Y-60626001D02*
X103383001Y-60626001D01*
X103383001Y-60626001D02*
X103383001Y-55056001D01*
X103383001Y-55056001D02*
X93623001Y-55056001D01*
X92323001Y-57841001D02*
X93623001Y-57841001D01*
X104683001Y-57841001D02*
X103383001Y-57841001D01*
X95171001Y-55056001D02*
X95171001Y-60626001D01*
X95291001Y-55056001D02*
X95291001Y-60626001D01*
X95051001Y-55056001D02*
X95051001Y-60626001D01*
X115511001Y-47912001D02*
X115511001Y-53482001D01*
X115751001Y-47912001D02*
X115751001Y-53482001D01*
X115631001Y-47912001D02*
X115631001Y-53482001D01*
X125143001Y-50697001D02*
X123843001Y-50697001D01*
X112783001Y-50697001D02*
X114083001Y-50697001D01*
X123843001Y-47912001D02*
X114083001Y-47912001D01*
X123843001Y-53482001D02*
X123843001Y-47912001D01*
X114083001Y-53482001D02*
X123843001Y-53482001D01*
X114083001Y-47912001D02*
X114083001Y-53482001D01*
X95051001Y-61946001D02*
X95051001Y-67516001D01*
X95291001Y-61946001D02*
X95291001Y-67516001D01*
X95171001Y-61946001D02*
X95171001Y-67516001D01*
X104683001Y-64731001D02*
X103383001Y-64731001D01*
X92323001Y-64731001D02*
X93623001Y-64731001D01*
X103383001Y-61946001D02*
X93623001Y-61946001D01*
X103383001Y-67516001D02*
X103383001Y-61946001D01*
X93623001Y-67516001D02*
X103383001Y-67516001D01*
X93623001Y-61946001D02*
X93623001Y-67516001D01*
X114083001Y-54802001D02*
X114083001Y-60372001D01*
X114083001Y-60372001D02*
X123843001Y-60372001D01*
X123843001Y-60372001D02*
X123843001Y-54802001D01*
X123843001Y-54802001D02*
X114083001Y-54802001D01*
X112783001Y-57587001D02*
X114083001Y-57587001D01*
X125143001Y-57587001D02*
X123843001Y-57587001D01*
X115631001Y-54802001D02*
X115631001Y-60372001D01*
X115751001Y-54802001D02*
X115751001Y-60372001D01*
X115511001Y-54802001D02*
X115511001Y-60372001D01*
X93623001Y-68836001D02*
X93623001Y-74406001D01*
X93623001Y-74406001D02*
X103383001Y-74406001D01*
X103383001Y-74406001D02*
X103383001Y-68836001D01*
X103383001Y-68836001D02*
X93623001Y-68836001D01*
X92323001Y-71621001D02*
X93623001Y-71621001D01*
X104683001Y-71621001D02*
X103383001Y-71621001D01*
X95171001Y-68836001D02*
X95171001Y-74406001D01*
X95291001Y-68836001D02*
X95291001Y-74406001D01*
X95051001Y-68836001D02*
X95051001Y-74406001D01*
X115511001Y-61692001D02*
X115511001Y-67262001D01*
X115751001Y-61692001D02*
X115751001Y-67262001D01*
X115631001Y-61692001D02*
X115631001Y-67262001D01*
X125143001Y-64477001D02*
X123843001Y-64477001D01*
X112783001Y-64477001D02*
X114083001Y-64477001D01*
X123843001Y-61692001D02*
X114083001Y-61692001D01*
X123843001Y-67262001D02*
X123843001Y-61692001D01*
X114083001Y-67262001D02*
X123843001Y-67262001D01*
X114083001Y-61692001D02*
X114083001Y-67262001D01*
X94846000Y-47761000D02*
X94846000Y-53331000D01*
X95086000Y-47761000D02*
X95086000Y-53331000D01*
X94966000Y-47761000D02*
X94966000Y-53331000D01*
X104478000Y-50546000D02*
X103178000Y-50546000D01*
X92118000Y-50546000D02*
X93418000Y-50546000D01*
X103178000Y-47761000D02*
X93418000Y-47761000D01*
X103178000Y-53331000D02*
X103178000Y-47761000D01*
X93418000Y-53331000D02*
X103178000Y-53331000D01*
X93418000Y-47761000D02*
X93418000Y-53331000D01*
D12*
X92829238Y-27471714D02*
X92829238Y-28471714D01*
X92829238Y-27519333D02*
X92924476Y-27471714D01*
X93114952Y-27471714D01*
X93210190Y-27519333D01*
X93257809Y-27566952D01*
X93305428Y-27662190D01*
X93305428Y-27947904D01*
X93257809Y-28043142D01*
X93210190Y-28090761D01*
X93114952Y-28138380D01*
X92924476Y-28138380D01*
X92829238Y-28090761D01*
X93638761Y-27471714D02*
X93829238Y-28138380D01*
X94019714Y-27662190D01*
X94210190Y-28138380D01*
X94400666Y-27471714D01*
X94781619Y-28138380D02*
X94781619Y-27471714D01*
X94781619Y-27566952D02*
X94829238Y-27519333D01*
X94924476Y-27471714D01*
X95067333Y-27471714D01*
X95162571Y-27519333D01*
X95210190Y-27614571D01*
X95210190Y-28138380D01*
X95210190Y-27614571D02*
X95257809Y-27519333D01*
X95353047Y-27471714D01*
X95495904Y-27471714D01*
X95591142Y-27519333D01*
X95638761Y-27614571D01*
X95638761Y-28138380D01*
X106072380Y-45529333D02*
X105596190Y-45862666D01*
X106072380Y-46100761D02*
X105072380Y-46100761D01*
X105072380Y-45719809D01*
X105120000Y-45624571D01*
X105167619Y-45576952D01*
X105262857Y-45529333D01*
X105405714Y-45529333D01*
X105500952Y-45576952D01*
X105548571Y-45624571D01*
X105596190Y-45719809D01*
X105596190Y-46100761D01*
X105548571Y-45100761D02*
X105548571Y-44767428D01*
X106072380Y-44624571D02*
X106072380Y-45100761D01*
X105072380Y-45100761D01*
X105072380Y-44624571D01*
X105548571Y-43862666D02*
X105548571Y-44196000D01*
X106072380Y-44196000D02*
X105072380Y-44196000D01*
X105072380Y-43719809D01*
X105072380Y-43196000D02*
X105310476Y-43196000D01*
X105215238Y-43434095D02*
X105310476Y-43196000D01*
X105215238Y-42957904D01*
X105500952Y-43338857D02*
X105310476Y-43196000D01*
X105500952Y-43053142D01*
X105072380Y-42434095D02*
X105310476Y-42434095D01*
X105215238Y-42672190D02*
X105310476Y-42434095D01*
X105215238Y-42196000D01*
X105500952Y-42576952D02*
X105310476Y-42434095D01*
X105500952Y-42291238D01*
X130167238Y-27217714D02*
X130167238Y-28217714D01*
X130167238Y-27265333D02*
X130262476Y-27217714D01*
X130452952Y-27217714D01*
X130548190Y-27265333D01*
X130595809Y-27312952D01*
X130643428Y-27408190D01*
X130643428Y-27693904D01*
X130595809Y-27789142D01*
X130548190Y-27836761D01*
X130452952Y-27884380D01*
X130262476Y-27884380D01*
X130167238Y-27836761D01*
X130976761Y-27217714D02*
X131167238Y-27884380D01*
X131357714Y-27408190D01*
X131548190Y-27884380D01*
X131738666Y-27217714D01*
X132119619Y-27884380D02*
X132119619Y-27217714D01*
X132119619Y-27312952D02*
X132167238Y-27265333D01*
X132262476Y-27217714D01*
X132405333Y-27217714D01*
X132500571Y-27265333D01*
X132548190Y-27360571D01*
X132548190Y-27884380D01*
X132548190Y-27360571D02*
X132595809Y-27265333D01*
X132691047Y-27217714D01*
X132833904Y-27217714D01*
X132929142Y-27265333D01*
X132976761Y-27360571D01*
X132976761Y-27884380D01*
X109886952Y-27630380D02*
X109410761Y-27630380D01*
X109410761Y-26630380D01*
X110172666Y-26725619D02*
X110220285Y-26678000D01*
X110315523Y-26630380D01*
X110553619Y-26630380D01*
X110648857Y-26678000D01*
X110696476Y-26725619D01*
X110744095Y-26820857D01*
X110744095Y-26916095D01*
X110696476Y-27058952D01*
X110125047Y-27630380D01*
X110744095Y-27630380D01*
X111220285Y-27630380D02*
X111410761Y-27630380D01*
X111506000Y-27582761D01*
X111553619Y-27535142D01*
X111648857Y-27392285D01*
X111696476Y-27201809D01*
X111696476Y-26820857D01*
X111648857Y-26725619D01*
X111601238Y-26678000D01*
X111506000Y-26630380D01*
X111315523Y-26630380D01*
X111220285Y-26678000D01*
X111172666Y-26725619D01*
X111125047Y-26820857D01*
X111125047Y-27058952D01*
X111172666Y-27154190D01*
X111220285Y-27201809D01*
X111315523Y-27249428D01*
X111506000Y-27249428D01*
X111601238Y-27201809D01*
X111648857Y-27154190D01*
X111696476Y-27058952D01*
X112267904Y-27058952D02*
X112172666Y-27011333D01*
X112125047Y-26963714D01*
X112077428Y-26868476D01*
X112077428Y-26820857D01*
X112125047Y-26725619D01*
X112172666Y-26678000D01*
X112267904Y-26630380D01*
X112458380Y-26630380D01*
X112553619Y-26678000D01*
X112601238Y-26725619D01*
X112648857Y-26820857D01*
X112648857Y-26868476D01*
X112601238Y-26963714D01*
X112553619Y-27011333D01*
X112458380Y-27058952D01*
X112267904Y-27058952D01*
X112172666Y-27106571D01*
X112125047Y-27154190D01*
X112077428Y-27249428D01*
X112077428Y-27439904D01*
X112125047Y-27535142D01*
X112172666Y-27582761D01*
X112267904Y-27630380D01*
X112458380Y-27630380D01*
X112553619Y-27582761D01*
X112601238Y-27535142D01*
X112648857Y-27439904D01*
X112648857Y-27249428D01*
X112601238Y-27154190D01*
X112553619Y-27106571D01*
X112458380Y-27058952D01*
X113077428Y-27630380D02*
X113077428Y-26630380D01*
X113315523Y-26630380D01*
X113458380Y-26678000D01*
X113553619Y-26773238D01*
X113601238Y-26868476D01*
X113648857Y-27058952D01*
X113648857Y-27201809D01*
X113601238Y-27392285D01*
X113553619Y-27487523D01*
X113458380Y-27582761D01*
X113315523Y-27630380D01*
X113077428Y-27630380D01*
X108565333Y-78071142D02*
X108517714Y-78118761D01*
X108374857Y-78166380D01*
X108279619Y-78166380D01*
X108136761Y-78118761D01*
X108041523Y-78023523D01*
X107993904Y-77928285D01*
X107946285Y-77737809D01*
X107946285Y-77594952D01*
X107993904Y-77404476D01*
X108041523Y-77309238D01*
X108136761Y-77214000D01*
X108279619Y-77166380D01*
X108374857Y-77166380D01*
X108517714Y-77214000D01*
X108565333Y-77261619D01*
X109517714Y-78166380D02*
X108946285Y-78166380D01*
X109232000Y-78166380D02*
X109232000Y-77166380D01*
X109136761Y-77309238D01*
X109041523Y-77404476D01*
X108946285Y-77452095D01*
X113625333Y-78081142D02*
X113577714Y-78128761D01*
X113434857Y-78176380D01*
X113339619Y-78176380D01*
X113196761Y-78128761D01*
X113101523Y-78033523D01*
X113053904Y-77938285D01*
X113006285Y-77747809D01*
X113006285Y-77604952D01*
X113053904Y-77414476D01*
X113101523Y-77319238D01*
X113196761Y-77224000D01*
X113339619Y-77176380D01*
X113434857Y-77176380D01*
X113577714Y-77224000D01*
X113625333Y-77271619D01*
X114006285Y-77271619D02*
X114053904Y-77224000D01*
X114149142Y-77176380D01*
X114387238Y-77176380D01*
X114482476Y-77224000D01*
X114530095Y-77271619D01*
X114577714Y-77366857D01*
X114577714Y-77462095D01*
X114530095Y-77604952D01*
X113958666Y-78176380D01*
X114577714Y-78176380D01*
X118451333Y-78081142D02*
X118403714Y-78128761D01*
X118260857Y-78176380D01*
X118165619Y-78176380D01*
X118022761Y-78128761D01*
X117927523Y-78033523D01*
X117879904Y-77938285D01*
X117832285Y-77747809D01*
X117832285Y-77604952D01*
X117879904Y-77414476D01*
X117927523Y-77319238D01*
X118022761Y-77224000D01*
X118165619Y-77176380D01*
X118260857Y-77176380D01*
X118403714Y-77224000D01*
X118451333Y-77271619D01*
X118784666Y-77176380D02*
X119403714Y-77176380D01*
X119070380Y-77557333D01*
X119213238Y-77557333D01*
X119308476Y-77604952D01*
X119356095Y-77652571D01*
X119403714Y-77747809D01*
X119403714Y-77985904D01*
X119356095Y-78081142D01*
X119308476Y-78128761D01*
X119213238Y-78176380D01*
X118927523Y-78176380D01*
X118832285Y-78128761D01*
X118784666Y-78081142D01*
X98405333Y-78081142D02*
X98357714Y-78128761D01*
X98214857Y-78176380D01*
X98119619Y-78176380D01*
X97976761Y-78128761D01*
X97881523Y-78033523D01*
X97833904Y-77938285D01*
X97786285Y-77747809D01*
X97786285Y-77604952D01*
X97833904Y-77414476D01*
X97881523Y-77319238D01*
X97976761Y-77224000D01*
X98119619Y-77176380D01*
X98214857Y-77176380D01*
X98357714Y-77224000D01*
X98405333Y-77271619D01*
X99262476Y-77509714D02*
X99262476Y-78176380D01*
X99024380Y-77128761D02*
X98786285Y-77843047D01*
X99405333Y-77843047D01*
X103445333Y-78071142D02*
X103397714Y-78118761D01*
X103254857Y-78166380D01*
X103159619Y-78166380D01*
X103016761Y-78118761D01*
X102921523Y-78023523D01*
X102873904Y-77928285D01*
X102826285Y-77737809D01*
X102826285Y-77594952D01*
X102873904Y-77404476D01*
X102921523Y-77309238D01*
X103016761Y-77214000D01*
X103159619Y-77166380D01*
X103254857Y-77166380D01*
X103397714Y-77214000D01*
X103445333Y-77261619D01*
X104350095Y-77166380D02*
X103873904Y-77166380D01*
X103826285Y-77642571D01*
X103873904Y-77594952D01*
X103969142Y-77547333D01*
X104207238Y-77547333D01*
X104302476Y-77594952D01*
X104350095Y-77642571D01*
X104397714Y-77737809D01*
X104397714Y-77975904D01*
X104350095Y-78071142D01*
X104302476Y-78118761D01*
X104207238Y-78166380D01*
X103969142Y-78166380D01*
X103873904Y-78118761D01*
X103826285Y-78071142D01*
X83510380Y-84050095D02*
X82510380Y-84050095D01*
X82510380Y-83812000D01*
X82558000Y-83669142D01*
X82653238Y-83573904D01*
X82748476Y-83526285D01*
X82938952Y-83478666D01*
X83081809Y-83478666D01*
X83272285Y-83526285D01*
X83367523Y-83573904D01*
X83462761Y-83669142D01*
X83510380Y-83812000D01*
X83510380Y-84050095D01*
X83510380Y-82526285D02*
X83510380Y-83097714D01*
X83510380Y-82812000D02*
X82510380Y-82812000D01*
X82653238Y-82907238D01*
X82748476Y-83002476D01*
X82796095Y-83097714D01*
X126849428Y-75731714D02*
X126849428Y-76731714D01*
X126849428Y-75779333D02*
X126944666Y-75731714D01*
X127135142Y-75731714D01*
X127230380Y-75779333D01*
X127278000Y-75826952D01*
X127325619Y-75922190D01*
X127325619Y-76207904D01*
X127278000Y-76303142D01*
X127230380Y-76350761D01*
X127135142Y-76398380D01*
X126944666Y-76398380D01*
X126849428Y-76350761D01*
X127897047Y-76398380D02*
X127801809Y-76350761D01*
X127754190Y-76303142D01*
X127706571Y-76207904D01*
X127706571Y-75922190D01*
X127754190Y-75826952D01*
X127801809Y-75779333D01*
X127897047Y-75731714D01*
X128039904Y-75731714D01*
X128135142Y-75779333D01*
X128182761Y-75826952D01*
X128230380Y-75922190D01*
X128230380Y-76207904D01*
X128182761Y-76303142D01*
X128135142Y-76350761D01*
X128039904Y-76398380D01*
X127897047Y-76398380D01*
X128563714Y-75731714D02*
X128754190Y-76398380D01*
X128944666Y-75922190D01*
X129135142Y-76398380D01*
X129325619Y-75731714D01*
X130087523Y-76350761D02*
X129992285Y-76398380D01*
X129801809Y-76398380D01*
X129706571Y-76350761D01*
X129658952Y-76255523D01*
X129658952Y-75874571D01*
X129706571Y-75779333D01*
X129801809Y-75731714D01*
X129992285Y-75731714D01*
X130087523Y-75779333D01*
X130135142Y-75874571D01*
X130135142Y-75969809D01*
X129658952Y-76065047D01*
X130563714Y-76398380D02*
X130563714Y-75731714D01*
X130563714Y-75922190D02*
X130611333Y-75826952D01*
X130658952Y-75779333D01*
X130754190Y-75731714D01*
X130849428Y-75731714D01*
X98282380Y-86693333D02*
X98996666Y-86693333D01*
X99139523Y-86740952D01*
X99234761Y-86836190D01*
X99282380Y-86979047D01*
X99282380Y-87074285D01*
X98377619Y-86264761D02*
X98330000Y-86217142D01*
X98282380Y-86121904D01*
X98282380Y-85883809D01*
X98330000Y-85788571D01*
X98377619Y-85740952D01*
X98472857Y-85693333D01*
X98568095Y-85693333D01*
X98710952Y-85740952D01*
X99282380Y-86312380D01*
X99282380Y-85693333D01*
X83923428Y-56332380D02*
X83923428Y-55665714D01*
X83923428Y-55760952D02*
X83971047Y-55713333D01*
X84066285Y-55665714D01*
X84209142Y-55665714D01*
X84304380Y-55713333D01*
X84352000Y-55808571D01*
X84352000Y-56332380D01*
X84352000Y-55808571D02*
X84399619Y-55713333D01*
X84494857Y-55665714D01*
X84637714Y-55665714D01*
X84732952Y-55713333D01*
X84780571Y-55808571D01*
X84780571Y-56332380D01*
X85399619Y-56332380D02*
X85304380Y-56284761D01*
X85256761Y-56237142D01*
X85209142Y-56141904D01*
X85209142Y-55856190D01*
X85256761Y-55760952D01*
X85304380Y-55713333D01*
X85399619Y-55665714D01*
X85542476Y-55665714D01*
X85637714Y-55713333D01*
X85685333Y-55760952D01*
X85732952Y-55856190D01*
X85732952Y-56141904D01*
X85685333Y-56237142D01*
X85637714Y-56284761D01*
X85542476Y-56332380D01*
X85399619Y-56332380D01*
X86018666Y-55665714D02*
X86399619Y-55665714D01*
X86161523Y-55332380D02*
X86161523Y-56189523D01*
X86209142Y-56284761D01*
X86304380Y-56332380D01*
X86399619Y-56332380D01*
X86875809Y-56332380D02*
X86780571Y-56284761D01*
X86732952Y-56237142D01*
X86685333Y-56141904D01*
X86685333Y-55856190D01*
X86732952Y-55760952D01*
X86780571Y-55713333D01*
X86875809Y-55665714D01*
X87018666Y-55665714D01*
X87113904Y-55713333D01*
X87161523Y-55760952D01*
X87209142Y-55856190D01*
X87209142Y-56141904D01*
X87161523Y-56237142D01*
X87113904Y-56284761D01*
X87018666Y-56332380D01*
X86875809Y-56332380D01*
X87637714Y-56332380D02*
X87637714Y-55665714D01*
X87637714Y-55856190D02*
X87685333Y-55760952D01*
X87732952Y-55713333D01*
X87828190Y-55665714D01*
X87923428Y-55665714D01*
X130659428Y-56078380D02*
X130659428Y-55411714D01*
X130659428Y-55506952D02*
X130707047Y-55459333D01*
X130802285Y-55411714D01*
X130945142Y-55411714D01*
X131040380Y-55459333D01*
X131088000Y-55554571D01*
X131088000Y-56078380D01*
X131088000Y-55554571D02*
X131135619Y-55459333D01*
X131230857Y-55411714D01*
X131373714Y-55411714D01*
X131468952Y-55459333D01*
X131516571Y-55554571D01*
X131516571Y-56078380D01*
X132135619Y-56078380D02*
X132040380Y-56030761D01*
X131992761Y-55983142D01*
X131945142Y-55887904D01*
X131945142Y-55602190D01*
X131992761Y-55506952D01*
X132040380Y-55459333D01*
X132135619Y-55411714D01*
X132278476Y-55411714D01*
X132373714Y-55459333D01*
X132421333Y-55506952D01*
X132468952Y-55602190D01*
X132468952Y-55887904D01*
X132421333Y-55983142D01*
X132373714Y-56030761D01*
X132278476Y-56078380D01*
X132135619Y-56078380D01*
X132754666Y-55411714D02*
X133135619Y-55411714D01*
X132897523Y-55078380D02*
X132897523Y-55935523D01*
X132945142Y-56030761D01*
X133040380Y-56078380D01*
X133135619Y-56078380D01*
X133611809Y-56078380D02*
X133516571Y-56030761D01*
X133468952Y-55983142D01*
X133421333Y-55887904D01*
X133421333Y-55602190D01*
X133468952Y-55506952D01*
X133516571Y-55459333D01*
X133611809Y-55411714D01*
X133754666Y-55411714D01*
X133849904Y-55459333D01*
X133897523Y-55506952D01*
X133945142Y-55602190D01*
X133945142Y-55887904D01*
X133897523Y-55983142D01*
X133849904Y-56030761D01*
X133754666Y-56078380D01*
X133611809Y-56078380D01*
X134373714Y-56078380D02*
X134373714Y-55411714D01*
X134373714Y-55602190D02*
X134421333Y-55506952D01*
X134468952Y-55459333D01*
X134564190Y-55411714D01*
X134659428Y-55411714D01*
X95702380Y-84494666D02*
X95226190Y-84828000D01*
X95702380Y-85066095D02*
X94702380Y-85066095D01*
X94702380Y-84685142D01*
X94750000Y-84589904D01*
X94797619Y-84542285D01*
X94892857Y-84494666D01*
X95035714Y-84494666D01*
X95130952Y-84542285D01*
X95178571Y-84589904D01*
X95226190Y-84685142D01*
X95226190Y-85066095D01*
X95702380Y-83542285D02*
X95702380Y-84113714D01*
X95702380Y-83828000D02*
X94702380Y-83828000D01*
X94845238Y-83923238D01*
X94940476Y-84018476D01*
X94988095Y-84113714D01*
X85209238Y-27217714D02*
X85209238Y-28217714D01*
X85209238Y-27265333D02*
X85304476Y-27217714D01*
X85494952Y-27217714D01*
X85590190Y-27265333D01*
X85637809Y-27312952D01*
X85685428Y-27408190D01*
X85685428Y-27693904D01*
X85637809Y-27789142D01*
X85590190Y-27836761D01*
X85494952Y-27884380D01*
X85304476Y-27884380D01*
X85209238Y-27836761D01*
X86018761Y-27217714D02*
X86209238Y-27884380D01*
X86399714Y-27408190D01*
X86590190Y-27884380D01*
X86780666Y-27217714D01*
X87161619Y-27884380D02*
X87161619Y-27217714D01*
X87161619Y-27312952D02*
X87209238Y-27265333D01*
X87304476Y-27217714D01*
X87447333Y-27217714D01*
X87542571Y-27265333D01*
X87590190Y-27360571D01*
X87590190Y-27884380D01*
X87590190Y-27360571D02*
X87637809Y-27265333D01*
X87733047Y-27217714D01*
X87875904Y-27217714D01*
X87971142Y-27265333D01*
X88018761Y-27360571D01*
X88018761Y-27884380D01*
X118133904Y-68295380D02*
X118133904Y-67295380D01*
X118372000Y-67295380D01*
X118514857Y-67343000D01*
X118610095Y-67438238D01*
X118657714Y-67533476D01*
X118705333Y-67723952D01*
X118705333Y-67866809D01*
X118657714Y-68057285D01*
X118610095Y-68152523D01*
X118514857Y-68247761D01*
X118372000Y-68295380D01*
X118133904Y-68295380D01*
X119086285Y-67390619D02*
X119133904Y-67343000D01*
X119229142Y-67295380D01*
X119467238Y-67295380D01*
X119562476Y-67343000D01*
X119610095Y-67390619D01*
X119657714Y-67485857D01*
X119657714Y-67581095D01*
X119610095Y-67723952D01*
X119038666Y-68295380D01*
X119657714Y-68295380D01*
X110990095Y-69880380D02*
X110990095Y-68880380D01*
X111561523Y-69880380D02*
X111132952Y-69308952D01*
X111561523Y-68880380D02*
X110990095Y-69451809D01*
X97764905Y-54508381D02*
X97764905Y-53508381D01*
X98003001Y-53508381D01*
X98145858Y-53556001D01*
X98241096Y-53651239D01*
X98288715Y-53746477D01*
X98336334Y-53936953D01*
X98336334Y-54079810D01*
X98288715Y-54270286D01*
X98241096Y-54365524D01*
X98145858Y-54460762D01*
X98003001Y-54508381D01*
X97764905Y-54508381D01*
X98669667Y-53508381D02*
X99288715Y-53508381D01*
X98955381Y-53889334D01*
X99098239Y-53889334D01*
X99193477Y-53936953D01*
X99241096Y-53984572D01*
X99288715Y-54079810D01*
X99288715Y-54317905D01*
X99241096Y-54413143D01*
X99193477Y-54460762D01*
X99098239Y-54508381D01*
X98812524Y-54508381D01*
X98717286Y-54460762D01*
X98669667Y-54413143D01*
X90621096Y-56093381D02*
X90621096Y-55093381D01*
X91192524Y-56093381D02*
X90763953Y-55521953D01*
X91192524Y-55093381D02*
X90621096Y-55664810D01*
X118224905Y-47364381D02*
X118224905Y-46364381D01*
X118463001Y-46364381D01*
X118605858Y-46412001D01*
X118701096Y-46507239D01*
X118748715Y-46602477D01*
X118796334Y-46792953D01*
X118796334Y-46935810D01*
X118748715Y-47126286D01*
X118701096Y-47221524D01*
X118605858Y-47316762D01*
X118463001Y-47364381D01*
X118224905Y-47364381D01*
X119653477Y-46697715D02*
X119653477Y-47364381D01*
X119415381Y-46316762D02*
X119177286Y-47031048D01*
X119796334Y-47031048D01*
X111081096Y-48949381D02*
X111081096Y-47949381D01*
X111652524Y-48949381D02*
X111223953Y-48377953D01*
X111652524Y-47949381D02*
X111081096Y-48520810D01*
X97764905Y-61398381D02*
X97764905Y-60398381D01*
X98003001Y-60398381D01*
X98145858Y-60446001D01*
X98241096Y-60541239D01*
X98288715Y-60636477D01*
X98336334Y-60826953D01*
X98336334Y-60969810D01*
X98288715Y-61160286D01*
X98241096Y-61255524D01*
X98145858Y-61350762D01*
X98003001Y-61398381D01*
X97764905Y-61398381D01*
X99241096Y-60398381D02*
X98764905Y-60398381D01*
X98717286Y-60874572D01*
X98764905Y-60826953D01*
X98860143Y-60779334D01*
X99098239Y-60779334D01*
X99193477Y-60826953D01*
X99241096Y-60874572D01*
X99288715Y-60969810D01*
X99288715Y-61207905D01*
X99241096Y-61303143D01*
X99193477Y-61350762D01*
X99098239Y-61398381D01*
X98860143Y-61398381D01*
X98764905Y-61350762D01*
X98717286Y-61303143D01*
X90621096Y-62983381D02*
X90621096Y-61983381D01*
X91192524Y-62983381D02*
X90763953Y-62411953D01*
X91192524Y-61983381D02*
X90621096Y-62554810D01*
X118224905Y-54254381D02*
X118224905Y-53254381D01*
X118463001Y-53254381D01*
X118605858Y-53302001D01*
X118701096Y-53397239D01*
X118748715Y-53492477D01*
X118796334Y-53682953D01*
X118796334Y-53825810D01*
X118748715Y-54016286D01*
X118701096Y-54111524D01*
X118605858Y-54206762D01*
X118463001Y-54254381D01*
X118224905Y-54254381D01*
X119653477Y-53254381D02*
X119463001Y-53254381D01*
X119367762Y-53302001D01*
X119320143Y-53349620D01*
X119224905Y-53492477D01*
X119177286Y-53682953D01*
X119177286Y-54063905D01*
X119224905Y-54159143D01*
X119272524Y-54206762D01*
X119367762Y-54254381D01*
X119558239Y-54254381D01*
X119653477Y-54206762D01*
X119701096Y-54159143D01*
X119748715Y-54063905D01*
X119748715Y-53825810D01*
X119701096Y-53730572D01*
X119653477Y-53682953D01*
X119558239Y-53635334D01*
X119367762Y-53635334D01*
X119272524Y-53682953D01*
X119224905Y-53730572D01*
X119177286Y-53825810D01*
X111081096Y-55839381D02*
X111081096Y-54839381D01*
X111652524Y-55839381D02*
X111223953Y-55267953D01*
X111652524Y-54839381D02*
X111081096Y-55410810D01*
X97764905Y-68288381D02*
X97764905Y-67288381D01*
X98003001Y-67288381D01*
X98145858Y-67336001D01*
X98241096Y-67431239D01*
X98288715Y-67526477D01*
X98336334Y-67716953D01*
X98336334Y-67859810D01*
X98288715Y-68050286D01*
X98241096Y-68145524D01*
X98145858Y-68240762D01*
X98003001Y-68288381D01*
X97764905Y-68288381D01*
X98669667Y-67288381D02*
X99336334Y-67288381D01*
X98907762Y-68288381D01*
X90621096Y-69873381D02*
X90621096Y-68873381D01*
X91192524Y-69873381D02*
X90763953Y-69301953D01*
X91192524Y-68873381D02*
X90621096Y-69444810D01*
X118224905Y-61144381D02*
X118224905Y-60144381D01*
X118463001Y-60144381D01*
X118605858Y-60192001D01*
X118701096Y-60287239D01*
X118748715Y-60382477D01*
X118796334Y-60572953D01*
X118796334Y-60715810D01*
X118748715Y-60906286D01*
X118701096Y-61001524D01*
X118605858Y-61096762D01*
X118463001Y-61144381D01*
X118224905Y-61144381D01*
X119367762Y-60572953D02*
X119272524Y-60525334D01*
X119224905Y-60477715D01*
X119177286Y-60382477D01*
X119177286Y-60334858D01*
X119224905Y-60239620D01*
X119272524Y-60192001D01*
X119367762Y-60144381D01*
X119558239Y-60144381D01*
X119653477Y-60192001D01*
X119701096Y-60239620D01*
X119748715Y-60334858D01*
X119748715Y-60382477D01*
X119701096Y-60477715D01*
X119653477Y-60525334D01*
X119558239Y-60572953D01*
X119367762Y-60572953D01*
X119272524Y-60620572D01*
X119224905Y-60668191D01*
X119177286Y-60763429D01*
X119177286Y-60953905D01*
X119224905Y-61049143D01*
X119272524Y-61096762D01*
X119367762Y-61144381D01*
X119558239Y-61144381D01*
X119653477Y-61096762D01*
X119701096Y-61049143D01*
X119748715Y-60953905D01*
X119748715Y-60763429D01*
X119701096Y-60668191D01*
X119653477Y-60620572D01*
X119558239Y-60572953D01*
X111081096Y-62729381D02*
X111081096Y-61729381D01*
X111652524Y-62729381D02*
X111223953Y-62157953D01*
X111652524Y-61729381D02*
X111081096Y-62300810D01*
X97559904Y-47213380D02*
X97559904Y-46213380D01*
X97798000Y-46213380D01*
X97940857Y-46261000D01*
X98036095Y-46356238D01*
X98083714Y-46451476D01*
X98131333Y-46641952D01*
X98131333Y-46784809D01*
X98083714Y-46975285D01*
X98036095Y-47070523D01*
X97940857Y-47165761D01*
X97798000Y-47213380D01*
X97559904Y-47213380D01*
X98607523Y-47213380D02*
X98798000Y-47213380D01*
X98893238Y-47165761D01*
X98940857Y-47118142D01*
X99036095Y-46975285D01*
X99083714Y-46784809D01*
X99083714Y-46403857D01*
X99036095Y-46308619D01*
X98988476Y-46261000D01*
X98893238Y-46213380D01*
X98702761Y-46213380D01*
X98607523Y-46261000D01*
X98559904Y-46308619D01*
X98512285Y-46403857D01*
X98512285Y-46641952D01*
X98559904Y-46737190D01*
X98607523Y-46784809D01*
X98702761Y-46832428D01*
X98893238Y-46832428D01*
X98988476Y-46784809D01*
X99036095Y-46737190D01*
X99083714Y-46641952D01*
X90416095Y-48798380D02*
X90416095Y-47798380D01*
X90987523Y-48798380D02*
X90558952Y-48226952D01*
X90987523Y-47798380D02*
X90416095Y-48369809D01*
M02*
