G04 #@! TF.GenerationSoftware,KiCad,Pcbnew,(5.1.2)-2*
G04 #@! TF.CreationDate,2020-05-01T16:22:05+07:00*
G04 #@! TF.ProjectId,l298n,6c323938-6e2e-46b6-9963-61645f706362,rev?*
G04 #@! TF.SameCoordinates,Original*
G04 #@! TF.FileFunction,Soldermask,Bot*
G04 #@! TF.FilePolarity,Negative*
%FSLAX46Y46*%
G04 Gerber Fmt 4.6, Leading zero omitted, Abs format (unit mm)*
G04 Created by KiCad (PCBNEW (5.1.2)-2) date 2020-05-01 16:22:05*
%MOMM*%
%LPD*%
G04 APERTURE LIST*
%ADD10C,0.100000*%
G04 APERTURE END LIST*
D10*
G36*
X110271000Y-87661000D02*
G01*
X108169000Y-87661000D01*
X108169000Y-85059000D01*
X110271000Y-85059000D01*
X110271000Y-87661000D01*
X110271000Y-87661000D01*
G37*
G36*
X107731000Y-87661000D02*
G01*
X105629000Y-87661000D01*
X105629000Y-85059000D01*
X107731000Y-85059000D01*
X107731000Y-87661000D01*
X107731000Y-87661000D01*
G37*
G36*
X102651000Y-87661000D02*
G01*
X100549000Y-87661000D01*
X100549000Y-85059000D01*
X102651000Y-85059000D01*
X102651000Y-87661000D01*
X102651000Y-87661000D01*
G37*
G36*
X105191000Y-87661000D02*
G01*
X103089000Y-87661000D01*
X103089000Y-85059000D01*
X105191000Y-85059000D01*
X105191000Y-87661000D01*
X105191000Y-87661000D01*
G37*
G36*
X92887861Y-83903497D02*
G01*
X92994446Y-83913995D01*
X93267960Y-83996965D01*
X93267963Y-83996966D01*
X93520028Y-84131698D01*
X93520029Y-84131699D01*
X93520033Y-84131701D01*
X93740976Y-84313024D01*
X93922299Y-84533967D01*
X93922301Y-84533971D01*
X93922302Y-84533972D01*
X94057034Y-84786037D01*
X94057035Y-84786040D01*
X94140005Y-85059554D01*
X94168020Y-85344000D01*
X94140005Y-85628446D01*
X94057035Y-85901960D01*
X94057034Y-85901963D01*
X93922302Y-86154028D01*
X93922299Y-86154033D01*
X93740976Y-86374976D01*
X93520033Y-86556299D01*
X93520029Y-86556301D01*
X93520028Y-86556302D01*
X93267963Y-86691034D01*
X93267960Y-86691035D01*
X92994446Y-86774005D01*
X92887861Y-86784503D01*
X92781278Y-86795000D01*
X92638722Y-86795000D01*
X92532139Y-86784503D01*
X92425554Y-86774005D01*
X92152040Y-86691035D01*
X92152037Y-86691034D01*
X91899972Y-86556302D01*
X91899971Y-86556301D01*
X91899967Y-86556299D01*
X91679024Y-86374976D01*
X91497701Y-86154033D01*
X91497698Y-86154028D01*
X91362966Y-85901963D01*
X91362965Y-85901960D01*
X91279995Y-85628446D01*
X91251980Y-85344000D01*
X91279995Y-85059554D01*
X91362965Y-84786040D01*
X91362966Y-84786037D01*
X91497698Y-84533972D01*
X91497699Y-84533971D01*
X91497701Y-84533967D01*
X91679024Y-84313024D01*
X91899967Y-84131701D01*
X91899971Y-84131699D01*
X91899972Y-84131698D01*
X92152037Y-83996966D01*
X92152040Y-83996965D01*
X92425554Y-83913995D01*
X92532139Y-83903497D01*
X92638722Y-83893000D01*
X92781278Y-83893000D01*
X92887861Y-83903497D01*
X92887861Y-83903497D01*
G37*
G36*
X86891395Y-83413546D02*
G01*
X87064466Y-83485234D01*
X87064467Y-83485235D01*
X87220227Y-83589310D01*
X87352690Y-83721773D01*
X87352691Y-83721775D01*
X87456766Y-83877534D01*
X87528454Y-84050605D01*
X87565000Y-84234333D01*
X87565000Y-84421667D01*
X87528454Y-84605395D01*
X87456766Y-84778466D01*
X87456765Y-84778467D01*
X87352690Y-84934227D01*
X87220227Y-85066690D01*
X87141818Y-85119081D01*
X87064466Y-85170766D01*
X86891395Y-85242454D01*
X86707667Y-85279000D01*
X86520333Y-85279000D01*
X86336605Y-85242454D01*
X86163534Y-85170766D01*
X86086182Y-85119081D01*
X86007773Y-85066690D01*
X85875310Y-84934227D01*
X85771235Y-84778467D01*
X85771234Y-84778466D01*
X85699546Y-84605395D01*
X85663000Y-84421667D01*
X85663000Y-84234333D01*
X85699546Y-84050605D01*
X85771234Y-83877534D01*
X85875309Y-83721775D01*
X85875310Y-83721773D01*
X86007773Y-83589310D01*
X86163533Y-83485235D01*
X86163534Y-83485234D01*
X86336605Y-83413546D01*
X86520333Y-83377000D01*
X86707667Y-83377000D01*
X86891395Y-83413546D01*
X86891395Y-83413546D01*
G37*
G36*
X87565000Y-82739000D02*
G01*
X85663000Y-82739000D01*
X85663000Y-80837000D01*
X87565000Y-80837000D01*
X87565000Y-82739000D01*
X87565000Y-82739000D01*
G37*
G36*
X131620585Y-79504802D02*
G01*
X131770410Y-79534604D01*
X132052674Y-79651521D01*
X132306705Y-79821259D01*
X132522741Y-80037295D01*
X132692479Y-80291326D01*
X132808143Y-80570565D01*
X132809396Y-80573591D01*
X132869000Y-80873239D01*
X132869000Y-81178761D01*
X132866971Y-81188959D01*
X132809396Y-81478410D01*
X132692479Y-81760674D01*
X132522741Y-82014705D01*
X132306705Y-82230741D01*
X132052674Y-82400479D01*
X131770410Y-82517396D01*
X131620585Y-82547198D01*
X131470761Y-82577000D01*
X131165239Y-82577000D01*
X131015415Y-82547198D01*
X130865590Y-82517396D01*
X130583326Y-82400479D01*
X130329295Y-82230741D01*
X130113259Y-82014705D01*
X129943521Y-81760674D01*
X129826604Y-81478410D01*
X129769029Y-81188959D01*
X129767000Y-81178761D01*
X129767000Y-80873239D01*
X129826604Y-80573591D01*
X129827857Y-80570565D01*
X129943521Y-80291326D01*
X130113259Y-80037295D01*
X130329295Y-79821259D01*
X130583326Y-79651521D01*
X130865590Y-79534604D01*
X131015415Y-79504802D01*
X131165239Y-79475000D01*
X131470761Y-79475000D01*
X131620585Y-79504802D01*
X131620585Y-79504802D01*
G37*
G36*
X127789000Y-82577000D02*
G01*
X124687000Y-82577000D01*
X124687000Y-79475000D01*
X127789000Y-79475000D01*
X127789000Y-82577000D01*
X127789000Y-82577000D01*
G37*
G36*
X93133241Y-78868760D02*
G01*
X93397305Y-78978139D01*
X93634958Y-79136934D01*
X93837066Y-79339042D01*
X93995861Y-79576695D01*
X94105240Y-79840759D01*
X94161000Y-80121088D01*
X94161000Y-80406912D01*
X94105240Y-80687241D01*
X93995861Y-80951305D01*
X93837066Y-81188958D01*
X93634958Y-81391066D01*
X93397305Y-81549861D01*
X93133241Y-81659240D01*
X92852912Y-81715000D01*
X92567088Y-81715000D01*
X92286759Y-81659240D01*
X92022695Y-81549861D01*
X91785042Y-81391066D01*
X91582934Y-81188958D01*
X91424139Y-80951305D01*
X91314760Y-80687241D01*
X91259000Y-80406912D01*
X91259000Y-80121088D01*
X91314760Y-79840759D01*
X91424139Y-79576695D01*
X91582934Y-79339042D01*
X91785042Y-79136934D01*
X92022695Y-78978139D01*
X92286759Y-78868760D01*
X92567088Y-78813000D01*
X92852912Y-78813000D01*
X93133241Y-78868760D01*
X93133241Y-78868760D01*
G37*
G36*
X97628564Y-79253389D02*
G01*
X97819833Y-79332615D01*
X97819835Y-79332616D01*
X97829452Y-79339042D01*
X97991973Y-79447635D01*
X98138365Y-79594027D01*
X98253385Y-79766167D01*
X98332611Y-79957436D01*
X98373000Y-80160484D01*
X98373000Y-80367516D01*
X98332611Y-80570564D01*
X98331357Y-80573591D01*
X98253384Y-80761835D01*
X98138365Y-80933973D01*
X97991973Y-81080365D01*
X97819835Y-81195384D01*
X97819834Y-81195385D01*
X97819833Y-81195385D01*
X97628564Y-81274611D01*
X97425516Y-81315000D01*
X97218484Y-81315000D01*
X97015436Y-81274611D01*
X96824167Y-81195385D01*
X96824166Y-81195385D01*
X96824165Y-81195384D01*
X96652027Y-81080365D01*
X96505635Y-80933973D01*
X96390616Y-80761835D01*
X96312643Y-80573591D01*
X96311389Y-80570564D01*
X96271000Y-80367516D01*
X96271000Y-80160484D01*
X96311389Y-79957436D01*
X96390615Y-79766167D01*
X96505635Y-79594027D01*
X96652027Y-79447635D01*
X96814548Y-79339042D01*
X96824165Y-79332616D01*
X96824167Y-79332615D01*
X97015436Y-79253389D01*
X97218484Y-79213000D01*
X97425516Y-79213000D01*
X97628564Y-79253389D01*
X97628564Y-79253389D01*
G37*
G36*
X107788564Y-79253389D02*
G01*
X107979833Y-79332615D01*
X107979835Y-79332616D01*
X107989452Y-79339042D01*
X108151973Y-79447635D01*
X108298365Y-79594027D01*
X108413385Y-79766167D01*
X108492611Y-79957436D01*
X108533000Y-80160484D01*
X108533000Y-80367516D01*
X108492611Y-80570564D01*
X108491357Y-80573591D01*
X108413384Y-80761835D01*
X108298365Y-80933973D01*
X108151973Y-81080365D01*
X107979835Y-81195384D01*
X107979834Y-81195385D01*
X107979833Y-81195385D01*
X107788564Y-81274611D01*
X107585516Y-81315000D01*
X107378484Y-81315000D01*
X107175436Y-81274611D01*
X106984167Y-81195385D01*
X106984166Y-81195385D01*
X106984165Y-81195384D01*
X106812027Y-81080365D01*
X106665635Y-80933973D01*
X106550616Y-80761835D01*
X106472643Y-80573591D01*
X106471389Y-80570564D01*
X106431000Y-80367516D01*
X106431000Y-80160484D01*
X106471389Y-79957436D01*
X106550615Y-79766167D01*
X106665635Y-79594027D01*
X106812027Y-79447635D01*
X106974548Y-79339042D01*
X106984165Y-79332616D01*
X106984167Y-79332615D01*
X107175436Y-79253389D01*
X107378484Y-79213000D01*
X107585516Y-79213000D01*
X107788564Y-79253389D01*
X107788564Y-79253389D01*
G37*
G36*
X112828564Y-79253389D02*
G01*
X113019833Y-79332615D01*
X113019835Y-79332616D01*
X113029452Y-79339042D01*
X113191973Y-79447635D01*
X113338365Y-79594027D01*
X113453385Y-79766167D01*
X113532611Y-79957436D01*
X113573000Y-80160484D01*
X113573000Y-80367516D01*
X113532611Y-80570564D01*
X113531357Y-80573591D01*
X113453384Y-80761835D01*
X113338365Y-80933973D01*
X113191973Y-81080365D01*
X113019835Y-81195384D01*
X113019834Y-81195385D01*
X113019833Y-81195385D01*
X112828564Y-81274611D01*
X112625516Y-81315000D01*
X112418484Y-81315000D01*
X112215436Y-81274611D01*
X112024167Y-81195385D01*
X112024166Y-81195385D01*
X112024165Y-81195384D01*
X111852027Y-81080365D01*
X111705635Y-80933973D01*
X111590616Y-80761835D01*
X111512643Y-80573591D01*
X111511389Y-80570564D01*
X111471000Y-80367516D01*
X111471000Y-80160484D01*
X111511389Y-79957436D01*
X111590615Y-79766167D01*
X111705635Y-79594027D01*
X111852027Y-79447635D01*
X112014548Y-79339042D01*
X112024165Y-79332616D01*
X112024167Y-79332615D01*
X112215436Y-79253389D01*
X112418484Y-79213000D01*
X112625516Y-79213000D01*
X112828564Y-79253389D01*
X112828564Y-79253389D01*
G37*
G36*
X115328564Y-79253389D02*
G01*
X115519833Y-79332615D01*
X115519835Y-79332616D01*
X115529452Y-79339042D01*
X115691973Y-79447635D01*
X115838365Y-79594027D01*
X115953385Y-79766167D01*
X116032611Y-79957436D01*
X116073000Y-80160484D01*
X116073000Y-80367516D01*
X116032611Y-80570564D01*
X116031357Y-80573591D01*
X115953384Y-80761835D01*
X115838365Y-80933973D01*
X115691973Y-81080365D01*
X115519835Y-81195384D01*
X115519834Y-81195385D01*
X115519833Y-81195385D01*
X115328564Y-81274611D01*
X115125516Y-81315000D01*
X114918484Y-81315000D01*
X114715436Y-81274611D01*
X114524167Y-81195385D01*
X114524166Y-81195385D01*
X114524165Y-81195384D01*
X114352027Y-81080365D01*
X114205635Y-80933973D01*
X114090616Y-80761835D01*
X114012643Y-80573591D01*
X114011389Y-80570564D01*
X113971000Y-80367516D01*
X113971000Y-80160484D01*
X114011389Y-79957436D01*
X114090615Y-79766167D01*
X114205635Y-79594027D01*
X114352027Y-79447635D01*
X114514548Y-79339042D01*
X114524165Y-79332616D01*
X114524167Y-79332615D01*
X114715436Y-79253389D01*
X114918484Y-79213000D01*
X115125516Y-79213000D01*
X115328564Y-79253389D01*
X115328564Y-79253389D01*
G37*
G36*
X120194564Y-79253389D02*
G01*
X120385833Y-79332615D01*
X120385835Y-79332616D01*
X120395452Y-79339042D01*
X120557973Y-79447635D01*
X120704365Y-79594027D01*
X120819385Y-79766167D01*
X120898611Y-79957436D01*
X120939000Y-80160484D01*
X120939000Y-80367516D01*
X120898611Y-80570564D01*
X120897357Y-80573591D01*
X120819384Y-80761835D01*
X120704365Y-80933973D01*
X120557973Y-81080365D01*
X120385835Y-81195384D01*
X120385834Y-81195385D01*
X120385833Y-81195385D01*
X120194564Y-81274611D01*
X119991516Y-81315000D01*
X119784484Y-81315000D01*
X119581436Y-81274611D01*
X119390167Y-81195385D01*
X119390166Y-81195385D01*
X119390165Y-81195384D01*
X119218027Y-81080365D01*
X119071635Y-80933973D01*
X118956616Y-80761835D01*
X118878643Y-80573591D01*
X118877389Y-80570564D01*
X118837000Y-80367516D01*
X118837000Y-80160484D01*
X118877389Y-79957436D01*
X118956615Y-79766167D01*
X119071635Y-79594027D01*
X119218027Y-79447635D01*
X119380548Y-79339042D01*
X119390165Y-79332616D01*
X119390167Y-79332615D01*
X119581436Y-79253389D01*
X119784484Y-79213000D01*
X119991516Y-79213000D01*
X120194564Y-79253389D01*
X120194564Y-79253389D01*
G37*
G36*
X117694564Y-79253389D02*
G01*
X117885833Y-79332615D01*
X117885835Y-79332616D01*
X117895452Y-79339042D01*
X118057973Y-79447635D01*
X118204365Y-79594027D01*
X118319385Y-79766167D01*
X118398611Y-79957436D01*
X118439000Y-80160484D01*
X118439000Y-80367516D01*
X118398611Y-80570564D01*
X118397357Y-80573591D01*
X118319384Y-80761835D01*
X118204365Y-80933973D01*
X118057973Y-81080365D01*
X117885835Y-81195384D01*
X117885834Y-81195385D01*
X117885833Y-81195385D01*
X117694564Y-81274611D01*
X117491516Y-81315000D01*
X117284484Y-81315000D01*
X117081436Y-81274611D01*
X116890167Y-81195385D01*
X116890166Y-81195385D01*
X116890165Y-81195384D01*
X116718027Y-81080365D01*
X116571635Y-80933973D01*
X116456616Y-80761835D01*
X116378643Y-80573591D01*
X116377389Y-80570564D01*
X116337000Y-80367516D01*
X116337000Y-80160484D01*
X116377389Y-79957436D01*
X116456615Y-79766167D01*
X116571635Y-79594027D01*
X116718027Y-79447635D01*
X116880548Y-79339042D01*
X116890165Y-79332616D01*
X116890167Y-79332615D01*
X117081436Y-79253389D01*
X117284484Y-79213000D01*
X117491516Y-79213000D01*
X117694564Y-79253389D01*
X117694564Y-79253389D01*
G37*
G36*
X100128564Y-79253389D02*
G01*
X100319833Y-79332615D01*
X100319835Y-79332616D01*
X100329452Y-79339042D01*
X100491973Y-79447635D01*
X100638365Y-79594027D01*
X100753385Y-79766167D01*
X100832611Y-79957436D01*
X100873000Y-80160484D01*
X100873000Y-80367516D01*
X100832611Y-80570564D01*
X100831357Y-80573591D01*
X100753384Y-80761835D01*
X100638365Y-80933973D01*
X100491973Y-81080365D01*
X100319835Y-81195384D01*
X100319834Y-81195385D01*
X100319833Y-81195385D01*
X100128564Y-81274611D01*
X99925516Y-81315000D01*
X99718484Y-81315000D01*
X99515436Y-81274611D01*
X99324167Y-81195385D01*
X99324166Y-81195385D01*
X99324165Y-81195384D01*
X99152027Y-81080365D01*
X99005635Y-80933973D01*
X98890616Y-80761835D01*
X98812643Y-80573591D01*
X98811389Y-80570564D01*
X98771000Y-80367516D01*
X98771000Y-80160484D01*
X98811389Y-79957436D01*
X98890615Y-79766167D01*
X99005635Y-79594027D01*
X99152027Y-79447635D01*
X99314548Y-79339042D01*
X99324165Y-79332616D01*
X99324167Y-79332615D01*
X99515436Y-79253389D01*
X99718484Y-79213000D01*
X99925516Y-79213000D01*
X100128564Y-79253389D01*
X100128564Y-79253389D01*
G37*
G36*
X102668564Y-79253389D02*
G01*
X102859833Y-79332615D01*
X102859835Y-79332616D01*
X102869452Y-79339042D01*
X103031973Y-79447635D01*
X103178365Y-79594027D01*
X103293385Y-79766167D01*
X103372611Y-79957436D01*
X103413000Y-80160484D01*
X103413000Y-80367516D01*
X103372611Y-80570564D01*
X103371357Y-80573591D01*
X103293384Y-80761835D01*
X103178365Y-80933973D01*
X103031973Y-81080365D01*
X102859835Y-81195384D01*
X102859834Y-81195385D01*
X102859833Y-81195385D01*
X102668564Y-81274611D01*
X102465516Y-81315000D01*
X102258484Y-81315000D01*
X102055436Y-81274611D01*
X101864167Y-81195385D01*
X101864166Y-81195385D01*
X101864165Y-81195384D01*
X101692027Y-81080365D01*
X101545635Y-80933973D01*
X101430616Y-80761835D01*
X101352643Y-80573591D01*
X101351389Y-80570564D01*
X101311000Y-80367516D01*
X101311000Y-80160484D01*
X101351389Y-79957436D01*
X101430615Y-79766167D01*
X101545635Y-79594027D01*
X101692027Y-79447635D01*
X101854548Y-79339042D01*
X101864165Y-79332616D01*
X101864167Y-79332615D01*
X102055436Y-79253389D01*
X102258484Y-79213000D01*
X102465516Y-79213000D01*
X102668564Y-79253389D01*
X102668564Y-79253389D01*
G37*
G36*
X105168564Y-79253389D02*
G01*
X105359833Y-79332615D01*
X105359835Y-79332616D01*
X105369452Y-79339042D01*
X105531973Y-79447635D01*
X105678365Y-79594027D01*
X105793385Y-79766167D01*
X105872611Y-79957436D01*
X105913000Y-80160484D01*
X105913000Y-80367516D01*
X105872611Y-80570564D01*
X105871357Y-80573591D01*
X105793384Y-80761835D01*
X105678365Y-80933973D01*
X105531973Y-81080365D01*
X105359835Y-81195384D01*
X105359834Y-81195385D01*
X105359833Y-81195385D01*
X105168564Y-81274611D01*
X104965516Y-81315000D01*
X104758484Y-81315000D01*
X104555436Y-81274611D01*
X104364167Y-81195385D01*
X104364166Y-81195385D01*
X104364165Y-81195384D01*
X104192027Y-81080365D01*
X104045635Y-80933973D01*
X103930616Y-80761835D01*
X103852643Y-80573591D01*
X103851389Y-80570564D01*
X103811000Y-80367516D01*
X103811000Y-80160484D01*
X103851389Y-79957436D01*
X103930615Y-79766167D01*
X104045635Y-79594027D01*
X104192027Y-79447635D01*
X104354548Y-79339042D01*
X104364165Y-79332616D01*
X104364167Y-79332615D01*
X104555436Y-79253389D01*
X104758484Y-79213000D01*
X104965516Y-79213000D01*
X105168564Y-79253389D01*
X105168564Y-79253389D01*
G37*
G36*
X110288564Y-79253389D02*
G01*
X110479833Y-79332615D01*
X110479835Y-79332616D01*
X110489452Y-79339042D01*
X110651973Y-79447635D01*
X110798365Y-79594027D01*
X110913385Y-79766167D01*
X110992611Y-79957436D01*
X111033000Y-80160484D01*
X111033000Y-80367516D01*
X110992611Y-80570564D01*
X110991357Y-80573591D01*
X110913384Y-80761835D01*
X110798365Y-80933973D01*
X110651973Y-81080365D01*
X110479835Y-81195384D01*
X110479834Y-81195385D01*
X110479833Y-81195385D01*
X110288564Y-81274611D01*
X110085516Y-81315000D01*
X109878484Y-81315000D01*
X109675436Y-81274611D01*
X109484167Y-81195385D01*
X109484166Y-81195385D01*
X109484165Y-81195384D01*
X109312027Y-81080365D01*
X109165635Y-80933973D01*
X109050616Y-80761835D01*
X108972643Y-80573591D01*
X108971389Y-80570564D01*
X108931000Y-80367516D01*
X108931000Y-80160484D01*
X108971389Y-79957436D01*
X109050615Y-79766167D01*
X109165635Y-79594027D01*
X109312027Y-79447635D01*
X109474548Y-79339042D01*
X109484165Y-79332616D01*
X109484167Y-79332615D01*
X109675436Y-79253389D01*
X109878484Y-79213000D01*
X110085516Y-79213000D01*
X110288564Y-79253389D01*
X110288564Y-79253389D01*
G37*
G36*
X87661000Y-73695000D02*
G01*
X85059000Y-73695000D01*
X85059000Y-71593000D01*
X87661000Y-71593000D01*
X87661000Y-73695000D01*
X87661000Y-73695000D01*
G37*
G36*
X132873000Y-73187000D02*
G01*
X130271000Y-73187000D01*
X130271000Y-71085000D01*
X132873000Y-71085000D01*
X132873000Y-73187000D01*
X132873000Y-73187000D01*
G37*
G36*
X112503000Y-72879000D02*
G01*
X110001000Y-72879000D01*
X110001000Y-70377000D01*
X112503000Y-70377000D01*
X112503000Y-72879000D01*
X112503000Y-72879000D01*
G37*
G36*
X126737239Y-70395101D02*
G01*
X126973053Y-70466634D01*
X127190381Y-70582799D01*
X127380871Y-70739129D01*
X127537201Y-70929619D01*
X127653366Y-71146947D01*
X127724899Y-71382761D01*
X127749053Y-71628000D01*
X127724899Y-71873239D01*
X127653366Y-72109053D01*
X127537201Y-72326381D01*
X127380871Y-72516871D01*
X127190381Y-72673201D01*
X126973053Y-72789366D01*
X126737239Y-72860899D01*
X126553457Y-72879000D01*
X126430543Y-72879000D01*
X126246761Y-72860899D01*
X126010947Y-72789366D01*
X125793619Y-72673201D01*
X125603129Y-72516871D01*
X125446799Y-72326381D01*
X125330634Y-72109053D01*
X125259101Y-71873239D01*
X125234947Y-71628000D01*
X125259101Y-71382761D01*
X125330634Y-71146947D01*
X125446799Y-70929619D01*
X125603129Y-70739129D01*
X125793619Y-70582799D01*
X126010947Y-70466634D01*
X126246761Y-70395101D01*
X126430543Y-70377000D01*
X126553457Y-70377000D01*
X126737239Y-70395101D01*
X126737239Y-70395101D01*
G37*
G36*
X106368240Y-70388102D02*
G01*
X106604054Y-70459635D01*
X106821382Y-70575800D01*
X107011872Y-70732130D01*
X107168202Y-70922620D01*
X107284367Y-71139948D01*
X107355900Y-71375762D01*
X107380054Y-71621001D01*
X107355900Y-71866240D01*
X107284367Y-72102054D01*
X107168202Y-72319382D01*
X107011872Y-72509872D01*
X106821382Y-72666202D01*
X106604054Y-72782367D01*
X106368240Y-72853900D01*
X106184458Y-72872001D01*
X106061544Y-72872001D01*
X105877762Y-72853900D01*
X105641948Y-72782367D01*
X105424620Y-72666202D01*
X105234130Y-72509872D01*
X105077800Y-72319382D01*
X104961635Y-72102054D01*
X104890102Y-71866240D01*
X104865948Y-71621001D01*
X104890102Y-71375762D01*
X104961635Y-71139948D01*
X105077800Y-70922620D01*
X105234130Y-70732130D01*
X105424620Y-70575800D01*
X105641948Y-70459635D01*
X105877762Y-70388102D01*
X106061544Y-70370001D01*
X106184458Y-70370001D01*
X106368240Y-70388102D01*
X106368240Y-70388102D01*
G37*
G36*
X92134001Y-72872001D02*
G01*
X89632001Y-72872001D01*
X89632001Y-70370001D01*
X92134001Y-70370001D01*
X92134001Y-72872001D01*
X92134001Y-72872001D01*
G37*
G36*
X87661000Y-71155000D02*
G01*
X85059000Y-71155000D01*
X85059000Y-69053000D01*
X87661000Y-69053000D01*
X87661000Y-71155000D01*
X87661000Y-71155000D01*
G37*
G36*
X132873000Y-70647000D02*
G01*
X130271000Y-70647000D01*
X130271000Y-68545000D01*
X132873000Y-68545000D01*
X132873000Y-70647000D01*
X132873000Y-70647000D01*
G37*
G36*
X87661000Y-68615000D02*
G01*
X85059000Y-68615000D01*
X85059000Y-66513000D01*
X87661000Y-66513000D01*
X87661000Y-68615000D01*
X87661000Y-68615000D01*
G37*
G36*
X132873000Y-68107000D02*
G01*
X130271000Y-68107000D01*
X130271000Y-66005000D01*
X132873000Y-66005000D01*
X132873000Y-68107000D01*
X132873000Y-68107000D01*
G37*
G36*
X87661000Y-66075000D02*
G01*
X85059000Y-66075000D01*
X85059000Y-63973000D01*
X87661000Y-63973000D01*
X87661000Y-66075000D01*
X87661000Y-66075000D01*
G37*
G36*
X106368240Y-63498102D02*
G01*
X106604054Y-63569635D01*
X106821382Y-63685800D01*
X107011872Y-63842130D01*
X107168202Y-64032620D01*
X107284367Y-64249948D01*
X107355900Y-64485762D01*
X107380054Y-64731001D01*
X107355900Y-64976240D01*
X107284367Y-65212054D01*
X107168202Y-65429382D01*
X107011872Y-65619872D01*
X106821382Y-65776202D01*
X106604054Y-65892367D01*
X106368240Y-65963900D01*
X106184458Y-65982001D01*
X106061544Y-65982001D01*
X105877762Y-65963900D01*
X105641948Y-65892367D01*
X105424620Y-65776202D01*
X105234130Y-65619872D01*
X105077800Y-65429382D01*
X104961635Y-65212054D01*
X104890102Y-64976240D01*
X104865948Y-64731001D01*
X104890102Y-64485762D01*
X104961635Y-64249948D01*
X105077800Y-64032620D01*
X105234130Y-63842130D01*
X105424620Y-63685800D01*
X105641948Y-63569635D01*
X105877762Y-63498102D01*
X106061544Y-63480001D01*
X106184458Y-63480001D01*
X106368240Y-63498102D01*
X106368240Y-63498102D01*
G37*
G36*
X92134001Y-65982001D02*
G01*
X89632001Y-65982001D01*
X89632001Y-63480001D01*
X92134001Y-63480001D01*
X92134001Y-65982001D01*
X92134001Y-65982001D01*
G37*
G36*
X126828240Y-63244102D02*
G01*
X127064054Y-63315635D01*
X127281382Y-63431800D01*
X127471872Y-63588130D01*
X127628202Y-63778620D01*
X127744367Y-63995948D01*
X127815900Y-64231762D01*
X127840054Y-64477001D01*
X127815900Y-64722240D01*
X127744367Y-64958054D01*
X127628202Y-65175382D01*
X127471872Y-65365872D01*
X127281382Y-65522202D01*
X127064054Y-65638367D01*
X126828240Y-65709900D01*
X126644458Y-65728001D01*
X126521544Y-65728001D01*
X126337762Y-65709900D01*
X126101948Y-65638367D01*
X125884620Y-65522202D01*
X125694130Y-65365872D01*
X125537800Y-65175382D01*
X125421635Y-64958054D01*
X125350102Y-64722240D01*
X125325948Y-64477001D01*
X125350102Y-64231762D01*
X125421635Y-63995948D01*
X125537800Y-63778620D01*
X125694130Y-63588130D01*
X125884620Y-63431800D01*
X126101948Y-63315635D01*
X126337762Y-63244102D01*
X126521544Y-63226001D01*
X126644458Y-63226001D01*
X126828240Y-63244102D01*
X126828240Y-63244102D01*
G37*
G36*
X112594001Y-65728001D02*
G01*
X110092001Y-65728001D01*
X110092001Y-63226001D01*
X112594001Y-63226001D01*
X112594001Y-65728001D01*
X112594001Y-65728001D01*
G37*
G36*
X132873000Y-65567000D02*
G01*
X130271000Y-65567000D01*
X130271000Y-63465000D01*
X132873000Y-63465000D01*
X132873000Y-65567000D01*
X132873000Y-65567000D01*
G37*
G36*
X87661000Y-63535000D02*
G01*
X85059000Y-63535000D01*
X85059000Y-61433000D01*
X87661000Y-61433000D01*
X87661000Y-63535000D01*
X87661000Y-63535000D01*
G37*
G36*
X132873000Y-63027000D02*
G01*
X130271000Y-63027000D01*
X130271000Y-60925000D01*
X132873000Y-60925000D01*
X132873000Y-63027000D01*
X132873000Y-63027000D01*
G37*
G36*
X87661000Y-60995000D02*
G01*
X85059000Y-60995000D01*
X85059000Y-58893000D01*
X87661000Y-58893000D01*
X87661000Y-60995000D01*
X87661000Y-60995000D01*
G37*
G36*
X132873000Y-60487000D02*
G01*
X130271000Y-60487000D01*
X130271000Y-58385000D01*
X132873000Y-58385000D01*
X132873000Y-60487000D01*
X132873000Y-60487000D01*
G37*
G36*
X106368240Y-56608102D02*
G01*
X106604054Y-56679635D01*
X106821382Y-56795800D01*
X107011872Y-56952130D01*
X107168202Y-57142620D01*
X107284367Y-57359948D01*
X107355900Y-57595762D01*
X107380054Y-57841001D01*
X107355900Y-58086240D01*
X107284367Y-58322054D01*
X107168202Y-58539382D01*
X107011872Y-58729872D01*
X106821382Y-58886202D01*
X106604054Y-59002367D01*
X106368240Y-59073900D01*
X106184458Y-59092001D01*
X106061544Y-59092001D01*
X105877762Y-59073900D01*
X105641948Y-59002367D01*
X105424620Y-58886202D01*
X105234130Y-58729872D01*
X105077800Y-58539382D01*
X104961635Y-58322054D01*
X104890102Y-58086240D01*
X104865948Y-57841001D01*
X104890102Y-57595762D01*
X104961635Y-57359948D01*
X105077800Y-57142620D01*
X105234130Y-56952130D01*
X105424620Y-56795800D01*
X105641948Y-56679635D01*
X105877762Y-56608102D01*
X106061544Y-56590001D01*
X106184458Y-56590001D01*
X106368240Y-56608102D01*
X106368240Y-56608102D01*
G37*
G36*
X92134001Y-59092001D02*
G01*
X89632001Y-59092001D01*
X89632001Y-56590001D01*
X92134001Y-56590001D01*
X92134001Y-59092001D01*
X92134001Y-59092001D01*
G37*
G36*
X126828240Y-56354102D02*
G01*
X127064054Y-56425635D01*
X127281382Y-56541800D01*
X127471872Y-56698130D01*
X127628202Y-56888620D01*
X127744367Y-57105948D01*
X127815900Y-57341762D01*
X127840054Y-57587001D01*
X127815900Y-57832240D01*
X127744367Y-58068054D01*
X127628202Y-58285382D01*
X127471872Y-58475872D01*
X127281382Y-58632202D01*
X127064054Y-58748367D01*
X126828240Y-58819900D01*
X126644458Y-58838001D01*
X126521544Y-58838001D01*
X126337762Y-58819900D01*
X126101948Y-58748367D01*
X125884620Y-58632202D01*
X125694130Y-58475872D01*
X125537800Y-58285382D01*
X125421635Y-58068054D01*
X125350102Y-57832240D01*
X125325948Y-57587001D01*
X125350102Y-57341762D01*
X125421635Y-57105948D01*
X125537800Y-56888620D01*
X125694130Y-56698130D01*
X125884620Y-56541800D01*
X126101948Y-56425635D01*
X126337762Y-56354102D01*
X126521544Y-56336001D01*
X126644458Y-56336001D01*
X126828240Y-56354102D01*
X126828240Y-56354102D01*
G37*
G36*
X112594001Y-58838001D02*
G01*
X110092001Y-58838001D01*
X110092001Y-56336001D01*
X112594001Y-56336001D01*
X112594001Y-58838001D01*
X112594001Y-58838001D01*
G37*
G36*
X126828240Y-49464102D02*
G01*
X127064054Y-49535635D01*
X127281382Y-49651800D01*
X127471872Y-49808130D01*
X127628202Y-49998620D01*
X127744367Y-50215948D01*
X127815900Y-50451762D01*
X127840054Y-50697001D01*
X127815900Y-50942240D01*
X127744367Y-51178054D01*
X127628202Y-51395382D01*
X127471872Y-51585872D01*
X127281382Y-51742202D01*
X127064054Y-51858367D01*
X126828240Y-51929900D01*
X126644458Y-51948001D01*
X126521544Y-51948001D01*
X126337762Y-51929900D01*
X126101948Y-51858367D01*
X125884620Y-51742202D01*
X125694130Y-51585872D01*
X125537800Y-51395382D01*
X125421635Y-51178054D01*
X125350102Y-50942240D01*
X125325948Y-50697001D01*
X125350102Y-50451762D01*
X125421635Y-50215948D01*
X125537800Y-49998620D01*
X125694130Y-49808130D01*
X125884620Y-49651800D01*
X126101948Y-49535635D01*
X126337762Y-49464102D01*
X126521544Y-49446001D01*
X126644458Y-49446001D01*
X126828240Y-49464102D01*
X126828240Y-49464102D01*
G37*
G36*
X112594001Y-51948001D02*
G01*
X110092001Y-51948001D01*
X110092001Y-49446001D01*
X112594001Y-49446001D01*
X112594001Y-51948001D01*
X112594001Y-51948001D01*
G37*
G36*
X91929000Y-51797000D02*
G01*
X89427000Y-51797000D01*
X89427000Y-49295000D01*
X91929000Y-49295000D01*
X91929000Y-51797000D01*
X91929000Y-51797000D01*
G37*
G36*
X106163239Y-49313101D02*
G01*
X106399053Y-49384634D01*
X106616381Y-49500799D01*
X106806871Y-49657129D01*
X106963201Y-49847619D01*
X107079366Y-50064947D01*
X107150899Y-50300761D01*
X107175053Y-50546000D01*
X107150899Y-50791239D01*
X107079366Y-51027053D01*
X106963201Y-51244381D01*
X106806871Y-51434871D01*
X106616381Y-51591201D01*
X106399053Y-51707366D01*
X106163239Y-51778899D01*
X105979457Y-51797000D01*
X105856543Y-51797000D01*
X105672761Y-51778899D01*
X105436947Y-51707366D01*
X105219619Y-51591201D01*
X105029129Y-51434871D01*
X104872799Y-51244381D01*
X104756634Y-51027053D01*
X104685101Y-50791239D01*
X104660947Y-50546000D01*
X104685101Y-50300761D01*
X104756634Y-50064947D01*
X104872799Y-49847619D01*
X105029129Y-49657129D01*
X105219619Y-49500799D01*
X105436947Y-49384634D01*
X105672761Y-49313101D01*
X105856543Y-49295000D01*
X105979457Y-49295000D01*
X106163239Y-49313101D01*
X106163239Y-49313101D01*
G37*
G36*
X113236031Y-42910207D02*
G01*
X113434145Y-42970305D01*
X113434148Y-42970306D01*
X113500030Y-43005521D01*
X113616729Y-43067897D01*
X113776765Y-43199235D01*
X113908103Y-43359271D01*
X113908104Y-43359273D01*
X114005694Y-43541851D01*
X114005694Y-43541852D01*
X114005695Y-43541854D01*
X114065793Y-43739968D01*
X114081000Y-43894370D01*
X114081000Y-44497629D01*
X114065793Y-44652031D01*
X114005695Y-44850145D01*
X114005694Y-44850148D01*
X113953940Y-44946974D01*
X113908103Y-45032729D01*
X113776765Y-45192765D01*
X113616729Y-45324103D01*
X113530975Y-45369939D01*
X113434149Y-45421694D01*
X113434146Y-45421695D01*
X113236032Y-45481793D01*
X113030000Y-45502085D01*
X112823969Y-45481793D01*
X112625855Y-45421695D01*
X112625852Y-45421694D01*
X112529026Y-45369939D01*
X112443272Y-45324103D01*
X112283236Y-45192765D01*
X112151898Y-45032729D01*
X112054306Y-44850148D01*
X112054305Y-44850147D01*
X112034272Y-44784108D01*
X111994207Y-44652032D01*
X111979000Y-44497630D01*
X111979000Y-43894371D01*
X111994207Y-43739969D01*
X112054305Y-43541855D01*
X112054306Y-43541852D01*
X112089521Y-43475970D01*
X112151897Y-43359271D01*
X112283235Y-43199235D01*
X112443271Y-43067897D01*
X112529025Y-43022061D01*
X112625851Y-42970306D01*
X112625854Y-42970305D01*
X112823968Y-42910207D01*
X113030000Y-42889915D01*
X113236031Y-42910207D01*
X113236031Y-42910207D01*
G37*
G36*
X115776031Y-42910207D02*
G01*
X115974145Y-42970305D01*
X115974148Y-42970306D01*
X116040030Y-43005521D01*
X116156729Y-43067897D01*
X116316765Y-43199235D01*
X116448103Y-43359271D01*
X116448104Y-43359273D01*
X116545694Y-43541851D01*
X116545694Y-43541852D01*
X116545695Y-43541854D01*
X116605793Y-43739968D01*
X116621000Y-43894370D01*
X116621000Y-44497629D01*
X116605793Y-44652031D01*
X116545695Y-44850145D01*
X116545694Y-44850148D01*
X116493940Y-44946974D01*
X116448103Y-45032729D01*
X116316765Y-45192765D01*
X116156729Y-45324103D01*
X116070975Y-45369939D01*
X115974149Y-45421694D01*
X115974146Y-45421695D01*
X115776032Y-45481793D01*
X115570000Y-45502085D01*
X115363969Y-45481793D01*
X115165855Y-45421695D01*
X115165852Y-45421694D01*
X115069026Y-45369939D01*
X114983272Y-45324103D01*
X114823236Y-45192765D01*
X114691898Y-45032729D01*
X114594306Y-44850148D01*
X114594305Y-44850147D01*
X114574272Y-44784108D01*
X114534207Y-44652032D01*
X114519000Y-44497630D01*
X114519000Y-43894371D01*
X114534207Y-43739969D01*
X114594305Y-43541855D01*
X114594306Y-43541852D01*
X114629521Y-43475970D01*
X114691897Y-43359271D01*
X114823235Y-43199235D01*
X114983271Y-43067897D01*
X115069025Y-43022061D01*
X115165851Y-42970306D01*
X115165854Y-42970305D01*
X115363968Y-42910207D01*
X115570000Y-42889915D01*
X115776031Y-42910207D01*
X115776031Y-42910207D01*
G37*
G36*
X110696031Y-42910207D02*
G01*
X110894145Y-42970305D01*
X110894148Y-42970306D01*
X110960030Y-43005521D01*
X111076729Y-43067897D01*
X111236765Y-43199235D01*
X111368103Y-43359271D01*
X111368104Y-43359273D01*
X111465694Y-43541851D01*
X111465694Y-43541852D01*
X111465695Y-43541854D01*
X111525793Y-43739968D01*
X111541000Y-43894370D01*
X111541000Y-44497629D01*
X111525793Y-44652031D01*
X111465695Y-44850145D01*
X111465694Y-44850148D01*
X111413940Y-44946974D01*
X111368103Y-45032729D01*
X111236765Y-45192765D01*
X111076729Y-45324103D01*
X110990975Y-45369939D01*
X110894149Y-45421694D01*
X110894146Y-45421695D01*
X110696032Y-45481793D01*
X110490000Y-45502085D01*
X110283969Y-45481793D01*
X110085855Y-45421695D01*
X110085852Y-45421694D01*
X109989026Y-45369939D01*
X109903272Y-45324103D01*
X109743236Y-45192765D01*
X109611898Y-45032729D01*
X109514306Y-44850148D01*
X109514305Y-44850147D01*
X109494272Y-44784108D01*
X109454207Y-44652032D01*
X109439000Y-44497630D01*
X109439000Y-43894371D01*
X109454207Y-43739969D01*
X109514305Y-43541855D01*
X109514306Y-43541852D01*
X109549521Y-43475970D01*
X109611897Y-43359271D01*
X109743235Y-43199235D01*
X109903271Y-43067897D01*
X109989025Y-43022061D01*
X110085851Y-42970306D01*
X110085854Y-42970305D01*
X110283968Y-42910207D01*
X110490000Y-42889915D01*
X110696031Y-42910207D01*
X110696031Y-42910207D01*
G37*
G36*
X108156031Y-42910207D02*
G01*
X108354145Y-42970305D01*
X108354148Y-42970306D01*
X108420030Y-43005521D01*
X108536729Y-43067897D01*
X108696765Y-43199235D01*
X108828103Y-43359271D01*
X108828104Y-43359273D01*
X108925694Y-43541851D01*
X108925694Y-43541852D01*
X108925695Y-43541854D01*
X108985793Y-43739968D01*
X109001000Y-43894370D01*
X109001000Y-44497629D01*
X108985793Y-44652031D01*
X108925695Y-44850145D01*
X108925694Y-44850148D01*
X108873940Y-44946974D01*
X108828103Y-45032729D01*
X108696765Y-45192765D01*
X108536729Y-45324103D01*
X108450975Y-45369939D01*
X108354149Y-45421694D01*
X108354146Y-45421695D01*
X108156032Y-45481793D01*
X107950000Y-45502085D01*
X107743969Y-45481793D01*
X107545855Y-45421695D01*
X107545852Y-45421694D01*
X107449026Y-45369939D01*
X107363272Y-45324103D01*
X107203236Y-45192765D01*
X107071898Y-45032729D01*
X106974306Y-44850148D01*
X106974305Y-44850147D01*
X106954272Y-44784108D01*
X106914207Y-44652032D01*
X106899000Y-44497630D01*
X106899000Y-43894371D01*
X106914207Y-43739969D01*
X106974305Y-43541855D01*
X106974306Y-43541852D01*
X107009521Y-43475970D01*
X107071897Y-43359271D01*
X107203235Y-43199235D01*
X107363271Y-43067897D01*
X107449025Y-43022061D01*
X107545851Y-42970306D01*
X107545854Y-42970305D01*
X107743968Y-42910207D01*
X107950000Y-42889915D01*
X108156031Y-42910207D01*
X108156031Y-42910207D01*
G37*
G36*
X132873000Y-40929000D02*
G01*
X130271000Y-40929000D01*
X130271000Y-38827000D01*
X132873000Y-38827000D01*
X132873000Y-40929000D01*
X132873000Y-40929000D01*
G37*
G36*
X95785000Y-40675000D02*
G01*
X92683000Y-40675000D01*
X92683000Y-38573000D01*
X95785000Y-38573000D01*
X95785000Y-40675000D01*
X95785000Y-40675000D01*
G37*
G36*
X88165000Y-40675000D02*
G01*
X85063000Y-40675000D01*
X85063000Y-38573000D01*
X88165000Y-38573000D01*
X88165000Y-40675000D01*
X88165000Y-40675000D01*
G37*
G36*
X120602031Y-37322207D02*
G01*
X120800145Y-37382305D01*
X120800148Y-37382306D01*
X120866030Y-37417521D01*
X120982729Y-37479897D01*
X121142765Y-37611235D01*
X121274103Y-37771271D01*
X121274104Y-37771273D01*
X121371694Y-37953851D01*
X121371694Y-37953852D01*
X121371695Y-37953854D01*
X121431793Y-38151968D01*
X121447000Y-38306370D01*
X121447000Y-38909629D01*
X121431793Y-39064031D01*
X121371695Y-39262145D01*
X121371694Y-39262148D01*
X121319940Y-39358974D01*
X121274103Y-39444729D01*
X121142765Y-39604765D01*
X120982729Y-39736103D01*
X120896975Y-39781939D01*
X120800149Y-39833694D01*
X120800146Y-39833695D01*
X120602032Y-39893793D01*
X120396000Y-39914085D01*
X120189969Y-39893793D01*
X119991855Y-39833695D01*
X119991852Y-39833694D01*
X119895026Y-39781939D01*
X119809272Y-39736103D01*
X119649236Y-39604765D01*
X119517898Y-39444729D01*
X119420306Y-39262148D01*
X119420305Y-39262147D01*
X119400272Y-39196108D01*
X119360207Y-39064032D01*
X119345000Y-38909630D01*
X119345000Y-38306371D01*
X119360207Y-38151969D01*
X119420305Y-37953855D01*
X119420306Y-37953852D01*
X119455521Y-37887970D01*
X119517897Y-37771271D01*
X119649235Y-37611235D01*
X119809271Y-37479897D01*
X119895025Y-37434061D01*
X119991851Y-37382306D01*
X119991854Y-37382305D01*
X120189968Y-37322207D01*
X120396000Y-37301915D01*
X120602031Y-37322207D01*
X120602031Y-37322207D01*
G37*
G36*
X102822031Y-37322207D02*
G01*
X103020145Y-37382305D01*
X103020148Y-37382306D01*
X103086030Y-37417521D01*
X103202729Y-37479897D01*
X103362765Y-37611235D01*
X103494103Y-37771271D01*
X103494104Y-37771273D01*
X103591694Y-37953851D01*
X103591694Y-37953852D01*
X103591695Y-37953854D01*
X103651793Y-38151968D01*
X103667000Y-38306370D01*
X103667000Y-38909629D01*
X103651793Y-39064031D01*
X103591695Y-39262145D01*
X103591694Y-39262148D01*
X103539940Y-39358974D01*
X103494103Y-39444729D01*
X103362765Y-39604765D01*
X103202729Y-39736103D01*
X103116975Y-39781939D01*
X103020149Y-39833694D01*
X103020146Y-39833695D01*
X102822032Y-39893793D01*
X102616000Y-39914085D01*
X102409969Y-39893793D01*
X102211855Y-39833695D01*
X102211852Y-39833694D01*
X102115026Y-39781939D01*
X102029272Y-39736103D01*
X101869236Y-39604765D01*
X101737898Y-39444729D01*
X101640306Y-39262148D01*
X101640305Y-39262147D01*
X101620272Y-39196108D01*
X101580207Y-39064032D01*
X101565000Y-38909630D01*
X101565000Y-38306371D01*
X101580207Y-38151969D01*
X101640305Y-37953855D01*
X101640306Y-37953852D01*
X101675521Y-37887970D01*
X101737897Y-37771271D01*
X101869235Y-37611235D01*
X102029271Y-37479897D01*
X102115025Y-37434061D01*
X102211851Y-37382306D01*
X102211854Y-37382305D01*
X102409968Y-37322207D01*
X102616000Y-37301915D01*
X102822031Y-37322207D01*
X102822031Y-37322207D01*
G37*
G36*
X105362031Y-37322207D02*
G01*
X105560145Y-37382305D01*
X105560148Y-37382306D01*
X105626030Y-37417521D01*
X105742729Y-37479897D01*
X105902765Y-37611235D01*
X106034103Y-37771271D01*
X106034104Y-37771273D01*
X106131694Y-37953851D01*
X106131694Y-37953852D01*
X106131695Y-37953854D01*
X106191793Y-38151968D01*
X106207000Y-38306370D01*
X106207000Y-38909629D01*
X106191793Y-39064031D01*
X106131695Y-39262145D01*
X106131694Y-39262148D01*
X106079940Y-39358974D01*
X106034103Y-39444729D01*
X105902765Y-39604765D01*
X105742729Y-39736103D01*
X105656975Y-39781939D01*
X105560149Y-39833694D01*
X105560146Y-39833695D01*
X105362032Y-39893793D01*
X105156000Y-39914085D01*
X104949969Y-39893793D01*
X104751855Y-39833695D01*
X104751852Y-39833694D01*
X104655026Y-39781939D01*
X104569272Y-39736103D01*
X104409236Y-39604765D01*
X104277898Y-39444729D01*
X104180306Y-39262148D01*
X104180305Y-39262147D01*
X104160272Y-39196108D01*
X104120207Y-39064032D01*
X104105000Y-38909630D01*
X104105000Y-38306371D01*
X104120207Y-38151969D01*
X104180305Y-37953855D01*
X104180306Y-37953852D01*
X104215521Y-37887970D01*
X104277897Y-37771271D01*
X104409235Y-37611235D01*
X104569271Y-37479897D01*
X104655025Y-37434061D01*
X104751851Y-37382306D01*
X104751854Y-37382305D01*
X104949968Y-37322207D01*
X105156000Y-37301915D01*
X105362031Y-37322207D01*
X105362031Y-37322207D01*
G37*
G36*
X107902031Y-37322207D02*
G01*
X108100145Y-37382305D01*
X108100148Y-37382306D01*
X108166030Y-37417521D01*
X108282729Y-37479897D01*
X108442765Y-37611235D01*
X108574103Y-37771271D01*
X108574104Y-37771273D01*
X108671694Y-37953851D01*
X108671694Y-37953852D01*
X108671695Y-37953854D01*
X108731793Y-38151968D01*
X108747000Y-38306370D01*
X108747000Y-38909629D01*
X108731793Y-39064031D01*
X108671695Y-39262145D01*
X108671694Y-39262148D01*
X108619940Y-39358974D01*
X108574103Y-39444729D01*
X108442765Y-39604765D01*
X108282729Y-39736103D01*
X108196975Y-39781939D01*
X108100149Y-39833694D01*
X108100146Y-39833695D01*
X107902032Y-39893793D01*
X107696000Y-39914085D01*
X107489969Y-39893793D01*
X107291855Y-39833695D01*
X107291852Y-39833694D01*
X107195026Y-39781939D01*
X107109272Y-39736103D01*
X106949236Y-39604765D01*
X106817898Y-39444729D01*
X106720306Y-39262148D01*
X106720305Y-39262147D01*
X106700272Y-39196108D01*
X106660207Y-39064032D01*
X106645000Y-38909630D01*
X106645000Y-38306371D01*
X106660207Y-38151969D01*
X106720305Y-37953855D01*
X106720306Y-37953852D01*
X106755521Y-37887970D01*
X106817897Y-37771271D01*
X106949235Y-37611235D01*
X107109271Y-37479897D01*
X107195025Y-37434061D01*
X107291851Y-37382306D01*
X107291854Y-37382305D01*
X107489968Y-37322207D01*
X107696000Y-37301915D01*
X107902031Y-37322207D01*
X107902031Y-37322207D01*
G37*
G36*
X118062031Y-37322207D02*
G01*
X118260145Y-37382305D01*
X118260148Y-37382306D01*
X118326030Y-37417521D01*
X118442729Y-37479897D01*
X118602765Y-37611235D01*
X118734103Y-37771271D01*
X118734104Y-37771273D01*
X118831694Y-37953851D01*
X118831694Y-37953852D01*
X118831695Y-37953854D01*
X118891793Y-38151968D01*
X118907000Y-38306370D01*
X118907000Y-38909629D01*
X118891793Y-39064031D01*
X118831695Y-39262145D01*
X118831694Y-39262148D01*
X118779940Y-39358974D01*
X118734103Y-39444729D01*
X118602765Y-39604765D01*
X118442729Y-39736103D01*
X118356975Y-39781939D01*
X118260149Y-39833694D01*
X118260146Y-39833695D01*
X118062032Y-39893793D01*
X117856000Y-39914085D01*
X117649969Y-39893793D01*
X117451855Y-39833695D01*
X117451852Y-39833694D01*
X117355026Y-39781939D01*
X117269272Y-39736103D01*
X117109236Y-39604765D01*
X116977898Y-39444729D01*
X116880306Y-39262148D01*
X116880305Y-39262147D01*
X116860272Y-39196108D01*
X116820207Y-39064032D01*
X116805000Y-38909630D01*
X116805000Y-38306371D01*
X116820207Y-38151969D01*
X116880305Y-37953855D01*
X116880306Y-37953852D01*
X116915521Y-37887970D01*
X116977897Y-37771271D01*
X117109235Y-37611235D01*
X117269271Y-37479897D01*
X117355025Y-37434061D01*
X117451851Y-37382306D01*
X117451854Y-37382305D01*
X117649968Y-37322207D01*
X117856000Y-37301915D01*
X118062031Y-37322207D01*
X118062031Y-37322207D01*
G37*
G36*
X115522031Y-37322207D02*
G01*
X115720145Y-37382305D01*
X115720148Y-37382306D01*
X115786030Y-37417521D01*
X115902729Y-37479897D01*
X116062765Y-37611235D01*
X116194103Y-37771271D01*
X116194104Y-37771273D01*
X116291694Y-37953851D01*
X116291694Y-37953852D01*
X116291695Y-37953854D01*
X116351793Y-38151968D01*
X116367000Y-38306370D01*
X116367000Y-38909629D01*
X116351793Y-39064031D01*
X116291695Y-39262145D01*
X116291694Y-39262148D01*
X116239940Y-39358974D01*
X116194103Y-39444729D01*
X116062765Y-39604765D01*
X115902729Y-39736103D01*
X115816975Y-39781939D01*
X115720149Y-39833694D01*
X115720146Y-39833695D01*
X115522032Y-39893793D01*
X115316000Y-39914085D01*
X115109969Y-39893793D01*
X114911855Y-39833695D01*
X114911852Y-39833694D01*
X114815026Y-39781939D01*
X114729272Y-39736103D01*
X114569236Y-39604765D01*
X114437898Y-39444729D01*
X114340306Y-39262148D01*
X114340305Y-39262147D01*
X114320272Y-39196108D01*
X114280207Y-39064032D01*
X114265000Y-38909630D01*
X114265000Y-38306371D01*
X114280207Y-38151969D01*
X114340305Y-37953855D01*
X114340306Y-37953852D01*
X114375521Y-37887970D01*
X114437897Y-37771271D01*
X114569235Y-37611235D01*
X114729271Y-37479897D01*
X114815025Y-37434061D01*
X114911851Y-37382306D01*
X114911854Y-37382305D01*
X115109968Y-37322207D01*
X115316000Y-37301915D01*
X115522031Y-37322207D01*
X115522031Y-37322207D01*
G37*
G36*
X112982031Y-37322207D02*
G01*
X113180145Y-37382305D01*
X113180148Y-37382306D01*
X113246030Y-37417521D01*
X113362729Y-37479897D01*
X113522765Y-37611235D01*
X113654103Y-37771271D01*
X113654104Y-37771273D01*
X113751694Y-37953851D01*
X113751694Y-37953852D01*
X113751695Y-37953854D01*
X113811793Y-38151968D01*
X113827000Y-38306370D01*
X113827000Y-38909629D01*
X113811793Y-39064031D01*
X113751695Y-39262145D01*
X113751694Y-39262148D01*
X113699940Y-39358974D01*
X113654103Y-39444729D01*
X113522765Y-39604765D01*
X113362729Y-39736103D01*
X113276975Y-39781939D01*
X113180149Y-39833694D01*
X113180146Y-39833695D01*
X112982032Y-39893793D01*
X112776000Y-39914085D01*
X112569969Y-39893793D01*
X112371855Y-39833695D01*
X112371852Y-39833694D01*
X112275026Y-39781939D01*
X112189272Y-39736103D01*
X112029236Y-39604765D01*
X111897898Y-39444729D01*
X111800306Y-39262148D01*
X111800305Y-39262147D01*
X111780272Y-39196108D01*
X111740207Y-39064032D01*
X111725000Y-38909630D01*
X111725000Y-38306371D01*
X111740207Y-38151969D01*
X111800305Y-37953855D01*
X111800306Y-37953852D01*
X111835521Y-37887970D01*
X111897897Y-37771271D01*
X112029235Y-37611235D01*
X112189271Y-37479897D01*
X112275025Y-37434061D01*
X112371851Y-37382306D01*
X112371854Y-37382305D01*
X112569968Y-37322207D01*
X112776000Y-37301915D01*
X112982031Y-37322207D01*
X112982031Y-37322207D01*
G37*
G36*
X110442031Y-37322207D02*
G01*
X110640145Y-37382305D01*
X110640148Y-37382306D01*
X110706030Y-37417521D01*
X110822729Y-37479897D01*
X110982765Y-37611235D01*
X111114103Y-37771271D01*
X111114104Y-37771273D01*
X111211694Y-37953851D01*
X111211694Y-37953852D01*
X111211695Y-37953854D01*
X111271793Y-38151968D01*
X111287000Y-38306370D01*
X111287000Y-38909629D01*
X111271793Y-39064031D01*
X111211695Y-39262145D01*
X111211694Y-39262148D01*
X111159940Y-39358974D01*
X111114103Y-39444729D01*
X110982765Y-39604765D01*
X110822729Y-39736103D01*
X110736975Y-39781939D01*
X110640149Y-39833694D01*
X110640146Y-39833695D01*
X110442032Y-39893793D01*
X110236000Y-39914085D01*
X110029969Y-39893793D01*
X109831855Y-39833695D01*
X109831852Y-39833694D01*
X109735026Y-39781939D01*
X109649272Y-39736103D01*
X109489236Y-39604765D01*
X109357898Y-39444729D01*
X109260306Y-39262148D01*
X109260305Y-39262147D01*
X109240272Y-39196108D01*
X109200207Y-39064032D01*
X109185000Y-38909630D01*
X109185000Y-38306371D01*
X109200207Y-38151969D01*
X109260305Y-37953855D01*
X109260306Y-37953852D01*
X109295521Y-37887970D01*
X109357897Y-37771271D01*
X109489235Y-37611235D01*
X109649271Y-37479897D01*
X109735025Y-37434061D01*
X109831851Y-37382306D01*
X109831854Y-37382305D01*
X110029968Y-37322207D01*
X110236000Y-37301915D01*
X110442031Y-37322207D01*
X110442031Y-37322207D01*
G37*
G36*
X132873000Y-38389000D02*
G01*
X130271000Y-38389000D01*
X130271000Y-36287000D01*
X132873000Y-36287000D01*
X132873000Y-38389000D01*
X132873000Y-38389000D01*
G37*
G36*
X88165000Y-38135000D02*
G01*
X85063000Y-38135000D01*
X85063000Y-36033000D01*
X88165000Y-36033000D01*
X88165000Y-38135000D01*
X88165000Y-38135000D01*
G37*
G36*
X95785000Y-38135000D02*
G01*
X92683000Y-38135000D01*
X92683000Y-36033000D01*
X95785000Y-36033000D01*
X95785000Y-38135000D01*
X95785000Y-38135000D01*
G37*
G36*
X132873000Y-35849000D02*
G01*
X130271000Y-35849000D01*
X130271000Y-33747000D01*
X132873000Y-33747000D01*
X132873000Y-35849000D01*
X132873000Y-35849000D01*
G37*
G36*
X88165000Y-35595000D02*
G01*
X85063000Y-35595000D01*
X85063000Y-33493000D01*
X88165000Y-33493000D01*
X88165000Y-35595000D01*
X88165000Y-35595000D01*
G37*
G36*
X95785000Y-35595000D02*
G01*
X92683000Y-35595000D01*
X92683000Y-33493000D01*
X95785000Y-33493000D01*
X95785000Y-35595000D01*
X95785000Y-35595000D01*
G37*
G36*
X106632031Y-32242207D02*
G01*
X106830145Y-32302305D01*
X106830148Y-32302306D01*
X106896030Y-32337521D01*
X107012729Y-32399897D01*
X107172765Y-32531235D01*
X107304103Y-32691271D01*
X107304104Y-32691273D01*
X107401694Y-32873851D01*
X107401694Y-32873852D01*
X107401695Y-32873854D01*
X107461793Y-33071968D01*
X107477000Y-33226370D01*
X107477000Y-33829629D01*
X107461793Y-33984031D01*
X107401695Y-34182145D01*
X107401694Y-34182148D01*
X107349940Y-34278974D01*
X107304103Y-34364729D01*
X107172765Y-34524765D01*
X107012729Y-34656103D01*
X106926975Y-34701939D01*
X106830149Y-34753694D01*
X106830146Y-34753695D01*
X106632032Y-34813793D01*
X106426000Y-34834085D01*
X106219969Y-34813793D01*
X106021855Y-34753695D01*
X106021852Y-34753694D01*
X105925026Y-34701939D01*
X105839272Y-34656103D01*
X105679236Y-34524765D01*
X105547898Y-34364729D01*
X105450306Y-34182148D01*
X105450305Y-34182147D01*
X105430272Y-34116108D01*
X105390207Y-33984032D01*
X105375000Y-33829630D01*
X105375000Y-33226371D01*
X105390207Y-33071969D01*
X105450305Y-32873855D01*
X105450306Y-32873852D01*
X105485521Y-32807970D01*
X105547897Y-32691271D01*
X105679235Y-32531235D01*
X105839271Y-32399897D01*
X105925025Y-32354061D01*
X106021851Y-32302306D01*
X106021854Y-32302305D01*
X106219968Y-32242207D01*
X106426000Y-32221915D01*
X106632031Y-32242207D01*
X106632031Y-32242207D01*
G37*
G36*
X104092031Y-32242207D02*
G01*
X104290145Y-32302305D01*
X104290148Y-32302306D01*
X104356030Y-32337521D01*
X104472729Y-32399897D01*
X104632765Y-32531235D01*
X104764103Y-32691271D01*
X104764104Y-32691273D01*
X104861694Y-32873851D01*
X104861694Y-32873852D01*
X104861695Y-32873854D01*
X104921793Y-33071968D01*
X104937000Y-33226370D01*
X104937000Y-33829629D01*
X104921793Y-33984031D01*
X104861695Y-34182145D01*
X104861694Y-34182148D01*
X104809940Y-34278974D01*
X104764103Y-34364729D01*
X104632765Y-34524765D01*
X104472729Y-34656103D01*
X104386975Y-34701939D01*
X104290149Y-34753694D01*
X104290146Y-34753695D01*
X104092032Y-34813793D01*
X103886000Y-34834085D01*
X103679969Y-34813793D01*
X103481855Y-34753695D01*
X103481852Y-34753694D01*
X103385026Y-34701939D01*
X103299272Y-34656103D01*
X103139236Y-34524765D01*
X103007898Y-34364729D01*
X102910306Y-34182148D01*
X102910305Y-34182147D01*
X102890272Y-34116108D01*
X102850207Y-33984032D01*
X102835000Y-33829630D01*
X102835000Y-33226371D01*
X102850207Y-33071969D01*
X102910305Y-32873855D01*
X102910306Y-32873852D01*
X102945521Y-32807970D01*
X103007897Y-32691271D01*
X103139235Y-32531235D01*
X103299271Y-32399897D01*
X103385025Y-32354061D01*
X103481851Y-32302306D01*
X103481854Y-32302305D01*
X103679968Y-32242207D01*
X103886000Y-32221915D01*
X104092031Y-32242207D01*
X104092031Y-32242207D01*
G37*
G36*
X109172031Y-32242207D02*
G01*
X109370145Y-32302305D01*
X109370148Y-32302306D01*
X109436030Y-32337521D01*
X109552729Y-32399897D01*
X109712765Y-32531235D01*
X109844103Y-32691271D01*
X109844104Y-32691273D01*
X109941694Y-32873851D01*
X109941694Y-32873852D01*
X109941695Y-32873854D01*
X110001793Y-33071968D01*
X110017000Y-33226370D01*
X110017000Y-33829629D01*
X110001793Y-33984031D01*
X109941695Y-34182145D01*
X109941694Y-34182148D01*
X109889940Y-34278974D01*
X109844103Y-34364729D01*
X109712765Y-34524765D01*
X109552729Y-34656103D01*
X109466975Y-34701939D01*
X109370149Y-34753694D01*
X109370146Y-34753695D01*
X109172032Y-34813793D01*
X108966000Y-34834085D01*
X108759969Y-34813793D01*
X108561855Y-34753695D01*
X108561852Y-34753694D01*
X108465026Y-34701939D01*
X108379272Y-34656103D01*
X108219236Y-34524765D01*
X108087898Y-34364729D01*
X107990306Y-34182148D01*
X107990305Y-34182147D01*
X107970272Y-34116108D01*
X107930207Y-33984032D01*
X107915000Y-33829630D01*
X107915000Y-33226371D01*
X107930207Y-33071969D01*
X107990305Y-32873855D01*
X107990306Y-32873852D01*
X108025521Y-32807970D01*
X108087897Y-32691271D01*
X108219235Y-32531235D01*
X108379271Y-32399897D01*
X108465025Y-32354061D01*
X108561851Y-32302306D01*
X108561854Y-32302305D01*
X108759968Y-32242207D01*
X108966000Y-32221915D01*
X109172031Y-32242207D01*
X109172031Y-32242207D01*
G37*
G36*
X111712031Y-32242207D02*
G01*
X111910145Y-32302305D01*
X111910148Y-32302306D01*
X111976030Y-32337521D01*
X112092729Y-32399897D01*
X112252765Y-32531235D01*
X112384103Y-32691271D01*
X112384104Y-32691273D01*
X112481694Y-32873851D01*
X112481694Y-32873852D01*
X112481695Y-32873854D01*
X112541793Y-33071968D01*
X112557000Y-33226370D01*
X112557000Y-33829629D01*
X112541793Y-33984031D01*
X112481695Y-34182145D01*
X112481694Y-34182148D01*
X112429940Y-34278974D01*
X112384103Y-34364729D01*
X112252765Y-34524765D01*
X112092729Y-34656103D01*
X112006975Y-34701939D01*
X111910149Y-34753694D01*
X111910146Y-34753695D01*
X111712032Y-34813793D01*
X111506000Y-34834085D01*
X111299969Y-34813793D01*
X111101855Y-34753695D01*
X111101852Y-34753694D01*
X111005026Y-34701939D01*
X110919272Y-34656103D01*
X110759236Y-34524765D01*
X110627898Y-34364729D01*
X110530306Y-34182148D01*
X110530305Y-34182147D01*
X110510272Y-34116108D01*
X110470207Y-33984032D01*
X110455000Y-33829630D01*
X110455000Y-33226371D01*
X110470207Y-33071969D01*
X110530305Y-32873855D01*
X110530306Y-32873852D01*
X110565521Y-32807970D01*
X110627897Y-32691271D01*
X110759235Y-32531235D01*
X110919271Y-32399897D01*
X111005025Y-32354061D01*
X111101851Y-32302306D01*
X111101854Y-32302305D01*
X111299968Y-32242207D01*
X111506000Y-32221915D01*
X111712031Y-32242207D01*
X111712031Y-32242207D01*
G37*
G36*
X114252031Y-32242207D02*
G01*
X114450145Y-32302305D01*
X114450148Y-32302306D01*
X114516030Y-32337521D01*
X114632729Y-32399897D01*
X114792765Y-32531235D01*
X114924103Y-32691271D01*
X114924104Y-32691273D01*
X115021694Y-32873851D01*
X115021694Y-32873852D01*
X115021695Y-32873854D01*
X115081793Y-33071968D01*
X115097000Y-33226370D01*
X115097000Y-33829629D01*
X115081793Y-33984031D01*
X115021695Y-34182145D01*
X115021694Y-34182148D01*
X114969940Y-34278974D01*
X114924103Y-34364729D01*
X114792765Y-34524765D01*
X114632729Y-34656103D01*
X114546975Y-34701939D01*
X114450149Y-34753694D01*
X114450146Y-34753695D01*
X114252032Y-34813793D01*
X114046000Y-34834085D01*
X113839969Y-34813793D01*
X113641855Y-34753695D01*
X113641852Y-34753694D01*
X113545026Y-34701939D01*
X113459272Y-34656103D01*
X113299236Y-34524765D01*
X113167898Y-34364729D01*
X113070306Y-34182148D01*
X113070305Y-34182147D01*
X113050272Y-34116108D01*
X113010207Y-33984032D01*
X112995000Y-33829630D01*
X112995000Y-33226371D01*
X113010207Y-33071969D01*
X113070305Y-32873855D01*
X113070306Y-32873852D01*
X113105521Y-32807970D01*
X113167897Y-32691271D01*
X113299235Y-32531235D01*
X113459271Y-32399897D01*
X113545025Y-32354061D01*
X113641851Y-32302306D01*
X113641854Y-32302305D01*
X113839968Y-32242207D01*
X114046000Y-32221915D01*
X114252031Y-32242207D01*
X114252031Y-32242207D01*
G37*
G36*
X116792031Y-32242207D02*
G01*
X116990145Y-32302305D01*
X116990148Y-32302306D01*
X117056030Y-32337521D01*
X117172729Y-32399897D01*
X117332765Y-32531235D01*
X117464103Y-32691271D01*
X117464104Y-32691273D01*
X117561694Y-32873851D01*
X117561694Y-32873852D01*
X117561695Y-32873854D01*
X117621793Y-33071968D01*
X117637000Y-33226370D01*
X117637000Y-33829629D01*
X117621793Y-33984031D01*
X117561695Y-34182145D01*
X117561694Y-34182148D01*
X117509940Y-34278974D01*
X117464103Y-34364729D01*
X117332765Y-34524765D01*
X117172729Y-34656103D01*
X117086975Y-34701939D01*
X116990149Y-34753694D01*
X116990146Y-34753695D01*
X116792032Y-34813793D01*
X116586000Y-34834085D01*
X116379969Y-34813793D01*
X116181855Y-34753695D01*
X116181852Y-34753694D01*
X116085026Y-34701939D01*
X115999272Y-34656103D01*
X115839236Y-34524765D01*
X115707898Y-34364729D01*
X115610306Y-34182148D01*
X115610305Y-34182147D01*
X115590272Y-34116108D01*
X115550207Y-33984032D01*
X115535000Y-33829630D01*
X115535000Y-33226371D01*
X115550207Y-33071969D01*
X115610305Y-32873855D01*
X115610306Y-32873852D01*
X115645521Y-32807970D01*
X115707897Y-32691271D01*
X115839235Y-32531235D01*
X115999271Y-32399897D01*
X116085025Y-32354061D01*
X116181851Y-32302306D01*
X116181854Y-32302305D01*
X116379968Y-32242207D01*
X116586000Y-32221915D01*
X116792031Y-32242207D01*
X116792031Y-32242207D01*
G37*
G36*
X119332031Y-32242207D02*
G01*
X119530145Y-32302305D01*
X119530148Y-32302306D01*
X119596030Y-32337521D01*
X119712729Y-32399897D01*
X119872765Y-32531235D01*
X120004103Y-32691271D01*
X120004104Y-32691273D01*
X120101694Y-32873851D01*
X120101694Y-32873852D01*
X120101695Y-32873854D01*
X120161793Y-33071968D01*
X120177000Y-33226370D01*
X120177000Y-33829629D01*
X120161793Y-33984031D01*
X120101695Y-34182145D01*
X120101694Y-34182148D01*
X120049940Y-34278974D01*
X120004103Y-34364729D01*
X119872765Y-34524765D01*
X119712729Y-34656103D01*
X119626975Y-34701939D01*
X119530149Y-34753694D01*
X119530146Y-34753695D01*
X119332032Y-34813793D01*
X119126000Y-34834085D01*
X118919969Y-34813793D01*
X118721855Y-34753695D01*
X118721852Y-34753694D01*
X118625026Y-34701939D01*
X118539272Y-34656103D01*
X118379236Y-34524765D01*
X118247898Y-34364729D01*
X118150306Y-34182148D01*
X118150305Y-34182147D01*
X118130272Y-34116108D01*
X118090207Y-33984032D01*
X118075000Y-33829630D01*
X118075000Y-33226371D01*
X118090207Y-33071969D01*
X118150305Y-32873855D01*
X118150306Y-32873852D01*
X118185521Y-32807970D01*
X118247897Y-32691271D01*
X118379235Y-32531235D01*
X118539271Y-32399897D01*
X118625025Y-32354061D01*
X118721851Y-32302306D01*
X118721854Y-32302305D01*
X118919968Y-32242207D01*
X119126000Y-32221915D01*
X119332031Y-32242207D01*
X119332031Y-32242207D01*
G37*
G36*
X132873000Y-33309000D02*
G01*
X130271000Y-33309000D01*
X130271000Y-31207000D01*
X132873000Y-31207000D01*
X132873000Y-33309000D01*
X132873000Y-33309000D01*
G37*
G36*
X88165000Y-33055000D02*
G01*
X85063000Y-33055000D01*
X85063000Y-30953000D01*
X88165000Y-30953000D01*
X88165000Y-33055000D01*
X88165000Y-33055000D01*
G37*
G36*
X95785000Y-33055000D02*
G01*
X92683000Y-33055000D01*
X92683000Y-30953000D01*
X95785000Y-30953000D01*
X95785000Y-33055000D01*
X95785000Y-33055000D01*
G37*
M02*
