  0
SECTION
  2
HEADER
  9
$ANGBASE
  50
0.0
  9
$ANGDIR
  70
  1
  9
$MEASUREMENT
  70
0
  0
ENDSEC
  0
SECTION
  2
TABLES
  0
TABLE
  2
LTYPE
  70
4
  0
LTYPE
  5
40F
  2
CONTINUOUS
  70
0
  3
Solid line
  72
65
  73
0
  40
0.0
  0
LTYPE
  5
410
  2
DASHDOT
 70
0
  3
Dash Dot ____ _ ____ _
 72
65
 73
4
 40
2.0
 49
1.25
 49
-0.25
 49
0.25
 49
-0.25
  0
LTYPE
  5
411
  2
DASHED
 70
0
  3
Dashed __ __ __ __ __
 72
65
 73
2
 40
0.75
 49
0.5
 49
-0.25
  0
LTYPE
  5
43B
  2
DOTTED
 70
0
  3
Dotted .  .  .  .
 72
65
 73
2
 40
0.2
 49
0.0
 49
-0.2
  0
ENDTAB
  0
TABLE
  2
STYLE
  70
4
  0
STYLE
  2
KICAD
  70
0
  40
0
  41
1
  42
1
  50
0
  71
0
  3
isocp.shx
  0
STYLE
  2
KICADB
  70
0
  40
0
  41
1
  42
1
  50
0
  71
0
  3
isocp.shx
  0
STYLE
  2
KICADI
  70
0
  40
0
  41
1
  42
1
  50
15
  71
0
  3
isocp.shx
  0
STYLE
  2
KICADBI
  70
0
  40
0
  41
1
  42
1
  50
15
  71
0
  3
isocp.shx
  0
ENDTAB
  0
TABLE
  2
LAYER
  70
30
  0
LAYER
  2
BLACK
  70
0
  62
7
  6
CONTINUOUS
  0
LAYER
  2
GRAY1
  70
0
  62
251
  6
CONTINUOUS
  0
LAYER
  2
GRAY2
  70
0
  62
8
  6
CONTINUOUS
  0
LAYER
  2
GRAY3
  70
0
  62
9
  6
CONTINUOUS
  0
LAYER
  2
WHITE
  70
0
  62
7
  6
CONTINUOUS
  0
LAYER
  2
LYELLOW
  70
0
  62
51
  6
CONTINUOUS
  0
LAYER
  2
BLUE1
  70
0
  62
178
  6
CONTINUOUS
  0
LAYER
  2
GREEN1
  70
0
  62
98
  6
CONTINUOUS
  0
LAYER
  2
CYAN1
  70
0
  62
138
  6
CONTINUOUS
  0
LAYER
  2
RED1
  70
0
  62
18
  6
CONTINUOUS
  0
LAYER
  2
MAGENTA1
  70
0
  62
228
  6
CONTINUOUS
  0
LAYER
  2
BROWN1
  70
0
  62
58
  6
CONTINUOUS
  0
LAYER
  2
BLUE2
  70
0
  62
5
  6
CONTINUOUS
  0
LAYER
  2
GREEN2
  70
0
  62
3
  6
CONTINUOUS
  0
LAYER
  2
CYAN2
  70
0
  62
4
  6
CONTINUOUS
  0
LAYER
  2
RED2
  70
0
  62
1
  6
CONTINUOUS
  0
LAYER
  2
MAGENTA2
  70
0
  62
6
  6
CONTINUOUS
  0
LAYER
  2
BROWN2
  70
0
  62
54
  6
CONTINUOUS
  0
LAYER
  2
BLUE3
  70
0
  62
171
  6
CONTINUOUS
  0
LAYER
  2
GREEN3
  70
0
  62
91
  6
CONTINUOUS
  0
LAYER
  2
CYAN3
  70
0
  62
131
  6
CONTINUOUS
  0
LAYER
  2
RED3
  70
0
  62
11
  6
CONTINUOUS
  0
LAYER
  2
MAGENTA3
  70
0
  62
221
  6
CONTINUOUS
  0
LAYER
  2
YELLOW3
  70
0
  62
2
  6
CONTINUOUS
  0
LAYER
  2
BLUE4
  70
0
  62
5
  6
CONTINUOUS
  0
LAYER
  2
GREEN4
  70
0
  62
3
  6
CONTINUOUS
  0
LAYER
  2
CYAN4
  70
0
  62
4
  6
CONTINUOUS
  0
LAYER
  2
RED4
  70
0
  62
1
  6
CONTINUOUS
  0
LAYER
  2
MAGENTA4
  70
0
  62
6
  6
CONTINUOUS
  0
LAYER
  2
YELLOW4
  70
0
  62
2
  6
CONTINUOUS
  0
ENDTAB
  0
ENDSEC
  0
SECTION
  2
ENTITIES
0
LINE
8
BLACK
6
CONTINUOUS
10
82.9523
20
-87.7525
11
83.3618
21
-87.9221
0
LINE
8
BLACK
6
CONTINUOUS
10
83.3618
20
-87.9221
11
83.7303
21
-88.1683
0
LINE
8
BLACK
6
CONTINUOUS
10
83.7303
20
-88.1683
11
84.0437
21
-88.4817
0
LINE
8
BLACK
6
CONTINUOUS
10
84.0437
20
-88.4817
11
84.2899
21
-88.8502
0
LINE
8
BLACK
6
CONTINUOUS
10
84.2899
20
-88.8502
11
84.4595
21
-89.2597
0
LINE
8
BLACK
6
CONTINUOUS
10
84.4595
20
-89.2597
11
84.546
21
-89.6944
0
LINE
8
BLACK
6
CONTINUOUS
10
84.546
20
-89.6944
11
84.546
21
-90.1376
0
LINE
8
BLACK
6
CONTINUOUS
10
84.546
20
-90.1376
11
84.4595
21
-90.5723
0
LINE
8
BLACK
6
CONTINUOUS
10
84.4595
20
-90.5723
11
84.2899
21
-90.9818
0
LINE
8
BLACK
6
CONTINUOUS
10
84.2899
20
-90.9818
11
84.0437
21
-91.3503
0
LINE
8
BLACK
6
CONTINUOUS
10
84.0437
20
-91.3503
11
83.7303
21
-91.6637
0
LINE
8
BLACK
6
CONTINUOUS
10
83.7303
20
-91.6637
11
83.3618
21
-91.9099
0
LINE
8
BLACK
6
CONTINUOUS
10
83.3618
20
-91.9099
11
82.9523
21
-92.0795
0
LINE
8
BLACK
6
CONTINUOUS
10
82.9523
20
-92.0795
11
82.5176
21
-92.166
0
LINE
8
BLACK
6
CONTINUOUS
10
82.5176
20
-92.166
11
82.0744
21
-92.166
0
LINE
8
BLACK
6
CONTINUOUS
10
82.0744
20
-92.166
11
81.6397
21
-92.0795
0
LINE
8
BLACK
6
CONTINUOUS
10
81.6397
20
-92.0795
11
81.2302
21
-91.9099
0
LINE
8
BLACK
6
CONTINUOUS
10
81.2302
20
-91.9099
11
80.8617
21
-91.6637
0
LINE
8
BLACK
6
CONTINUOUS
10
80.8617
20
-91.6637
11
80.5483
21
-91.3503
0
LINE
8
BLACK
6
CONTINUOUS
10
80.5483
20
-91.3503
11
80.3021
21
-90.9818
0
LINE
8
BLACK
6
CONTINUOUS
10
80.3021
20
-90.9818
11
80.1325
21
-90.5723
0
LINE
8
BLACK
6
CONTINUOUS
10
80.1325
20
-90.5723
11
80.046
21
-90.1376
0
LINE
8
BLACK
6
CONTINUOUS
10
80.046
20
-90.1376
11
80.046
21
-89.6944
0
LINE
8
BLACK
6
CONTINUOUS
10
80.046
20
-89.6944
11
80.1325
21
-89.2597
0
LINE
8
BLACK
6
CONTINUOUS
10
80.1325
20
-89.2597
11
80.3021
21
-88.8502
0
LINE
8
BLACK
6
CONTINUOUS
10
80.3021
20
-88.8502
11
80.5483
21
-88.4817
0
LINE
8
BLACK
6
CONTINUOUS
10
80.5483
20
-88.4817
11
80.8617
21
-88.1683
0
LINE
8
BLACK
6
CONTINUOUS
10
80.8617
20
-88.1683
11
81.2302
21
-87.9221
0
LINE
8
BLACK
6
CONTINUOUS
10
81.2302
20
-87.9221
11
81.6397
21
-87.7525
0
LINE
8
BLACK
6
CONTINUOUS
10
81.6397
20
-87.7525
11
82.0744
21
-87.666
0
LINE
8
BLACK
6
CONTINUOUS
10
82.0744
20
-87.666
11
82.5176
21
-87.666
0
LINE
8
BLACK
6
CONTINUOUS
10
82.5176
20
-87.666
11
82.9523
21
-87.7525
0
LINE
8
BLACK
6
CONTINUOUS
10
137.562
20
-86.9905
11
137.972
21
-87.1601
0
LINE
8
BLACK
6
CONTINUOUS
10
137.972
20
-87.1601
11
138.34
21
-87.4063
0
LINE
8
BLACK
6
CONTINUOUS
10
138.34
20
-87.4063
11
138.654
21
-87.7197
0
LINE
8
BLACK
6
CONTINUOUS
10
138.654
20
-87.7197
11
138.9
21
-88.0882
0
LINE
8
BLACK
6
CONTINUOUS
10
138.9
20
-88.0882
11
139.07
21
-88.4977
0
LINE
8
BLACK
6
CONTINUOUS
10
139.07
20
-88.4977
11
139.156
21
-88.9324
0
LINE
8
BLACK
6
CONTINUOUS
10
139.156
20
-88.9324
11
139.156
21
-89.3756
0
LINE
8
BLACK
6
CONTINUOUS
10
139.156
20
-89.3756
11
139.07
21
-89.8103
0
LINE
8
BLACK
6
CONTINUOUS
10
139.07
20
-89.8103
11
138.9
21
-90.2198
0
LINE
8
BLACK
6
CONTINUOUS
10
138.9
20
-90.2198
11
138.654
21
-90.5883
0
LINE
8
BLACK
6
CONTINUOUS
10
138.654
20
-90.5883
11
138.34
21
-90.9017
0
LINE
8
BLACK
6
CONTINUOUS
10
138.34
20
-90.9017
11
137.972
21
-91.1479
0
LINE
8
BLACK
6
CONTINUOUS
10
137.972
20
-91.1479
11
137.562
21
-91.3175
0
LINE
8
BLACK
6
CONTINUOUS
10
137.562
20
-91.3175
11
137.128
21
-91.404
0
LINE
8
BLACK
6
CONTINUOUS
10
137.128
20
-91.404
11
136.684
21
-91.404
0
LINE
8
BLACK
6
CONTINUOUS
10
136.684
20
-91.404
11
136.25
21
-91.3175
0
LINE
8
BLACK
6
CONTINUOUS
10
136.25
20
-91.3175
11
135.84
21
-91.1479
0
LINE
8
BLACK
6
CONTINUOUS
10
135.84
20
-91.1479
11
135.472
21
-90.9017
0
LINE
8
BLACK
6
CONTINUOUS
10
135.472
20
-90.9017
11
135.158
21
-90.5883
0
LINE
8
BLACK
6
CONTINUOUS
10
135.158
20
-90.5883
11
134.912
21
-90.2198
0
LINE
8
BLACK
6
CONTINUOUS
10
134.912
20
-90.2198
11
134.742
21
-89.8103
0
LINE
8
BLACK
6
CONTINUOUS
10
134.742
20
-89.8103
11
134.656
21
-89.3756
0
LINE
8
BLACK
6
CONTINUOUS
10
134.656
20
-89.3756
11
134.656
21
-88.9324
0
LINE
8
BLACK
6
CONTINUOUS
10
134.656
20
-88.9324
11
134.742
21
-88.4977
0
LINE
8
BLACK
6
CONTINUOUS
10
134.742
20
-88.4977
11
134.912
21
-88.0882
0
LINE
8
BLACK
6
CONTINUOUS
10
134.912
20
-88.0882
11
135.158
21
-87.7197
0
LINE
8
BLACK
6
CONTINUOUS
10
135.158
20
-87.7197
11
135.472
21
-87.4063
0
LINE
8
BLACK
6
CONTINUOUS
10
135.472
20
-87.4063
11
135.84
21
-87.1601
0
LINE
8
BLACK
6
CONTINUOUS
10
135.84
20
-87.1601
11
136.25
21
-86.9905
0
LINE
8
BLACK
6
CONTINUOUS
10
136.25
20
-86.9905
11
136.684
21
-86.904
0
LINE
8
BLACK
6
CONTINUOUS
10
136.684
20
-86.904
11
137.128
21
-86.904
0
LINE
8
BLACK
6
CONTINUOUS
10
137.128
20
-86.904
11
137.562
21
-86.9905
0
LINE
8
BLACK
6
CONTINUOUS
10
110.22
20
-87.61
11
108.22
21
-87.61
0
LINE
8
BLACK
6
CONTINUOUS
10
108.22
20
-87.61
11
108.22
21
-85.11
0
LINE
8
BLACK
6
CONTINUOUS
10
108.22
20
-85.11
11
110.22
21
-85.11
0
LINE
8
BLACK
6
CONTINUOUS
10
110.22
20
-85.11
11
110.22
21
-87.61
0
LINE
8
BLACK
6
CONTINUOUS
10
107.68
20
-87.61
11
105.68
21
-87.61
0
LINE
8
BLACK
6
CONTINUOUS
10
105.68
20
-87.61
11
105.68
21
-85.11
0
LINE
8
BLACK
6
CONTINUOUS
10
105.68
20
-85.11
11
107.68
21
-85.11
0
LINE
8
BLACK
6
CONTINUOUS
10
107.68
20
-85.11
11
107.68
21
-87.61
0
LINE
8
BLACK
6
CONTINUOUS
10
105.14
20
-87.61
11
103.14
21
-87.61
0
LINE
8
BLACK
6
CONTINUOUS
10
103.14
20
-87.61
11
103.14
21
-85.11
0
LINE
8
BLACK
6
CONTINUOUS
10
103.14
20
-85.11
11
105.14
21
-85.11
0
LINE
8
BLACK
6
CONTINUOUS
10
105.14
20
-85.11
11
105.14
21
-87.61
0
LINE
8
BLACK
6
CONTINUOUS
10
102.6
20
-87.61
11
100.6
21
-87.61
0
LINE
8
BLACK
6
CONTINUOUS
10
100.6
20
-87.61
11
100.6
21
-85.11
0
LINE
8
BLACK
6
CONTINUOUS
10
100.6
20
-85.11
11
102.6
21
-85.11
0
LINE
8
BLACK
6
CONTINUOUS
10
102.6
20
-85.11
11
102.6
21
-87.61
0
LINE
8
BLACK
6
CONTINUOUS
10
92.9844
20
-83.9643
11
93.2483
21
-84.0443
0
LINE
8
BLACK
6
CONTINUOUS
10
93.2483
20
-84.0443
11
93.4916
21
-84.1743
0
LINE
8
BLACK
6
CONTINUOUS
10
93.4916
20
-84.1743
11
93.7047
21
-84.3493
0
LINE
8
BLACK
6
CONTINUOUS
10
93.7047
20
-84.3493
11
93.8797
21
-84.5624
0
LINE
8
BLACK
6
CONTINUOUS
10
93.8797
20
-84.5624
11
94.0097
21
-84.8057
0
LINE
8
BLACK
6
CONTINUOUS
10
94.0097
20
-84.8057
11
94.0897
21
-85.0696
0
LINE
8
BLACK
6
CONTINUOUS
10
94.0897
20
-85.0696
11
94.1168
21
-85.344
0
LINE
8
BLACK
6
CONTINUOUS
10
94.1168
20
-85.344
11
94.0897
21
-85.6184
0
LINE
8
BLACK
6
CONTINUOUS
10
94.0897
20
-85.6184
11
94.0097
21
-85.8823
0
LINE
8
BLACK
6
CONTINUOUS
10
94.0097
20
-85.8823
11
93.8797
21
-86.1256
0
LINE
8
BLACK
6
CONTINUOUS
10
93.8797
20
-86.1256
11
93.7047
21
-86.3387
0
LINE
8
BLACK
6
CONTINUOUS
10
93.7047
20
-86.3387
11
93.4916
21
-86.5137
0
LINE
8
BLACK
6
CONTINUOUS
10
93.4916
20
-86.5137
11
93.2483
21
-86.6437
0
LINE
8
BLACK
6
CONTINUOUS
10
93.2483
20
-86.6437
11
92.9844
21
-86.7237
0
LINE
8
BLACK
6
CONTINUOUS
10
92.9844
20
-86.7237
11
92.7788
21
-86.744
0
LINE
8
BLACK
6
CONTINUOUS
10
92.7788
20
-86.744
11
92.6412
21
-86.744
0
LINE
8
BLACK
6
CONTINUOUS
10
92.6412
20
-86.744
11
92.4356
21
-86.7237
0
LINE
8
BLACK
6
CONTINUOUS
10
92.4356
20
-86.7237
11
92.1717
21
-86.6437
0
LINE
8
BLACK
6
CONTINUOUS
10
92.1717
20
-86.6437
11
91.9284
21
-86.5137
0
LINE
8
BLACK
6
CONTINUOUS
10
91.9284
20
-86.5137
11
91.7153
21
-86.3387
0
LINE
8
BLACK
6
CONTINUOUS
10
91.7153
20
-86.3387
11
91.5403
21
-86.1256
0
LINE
8
BLACK
6
CONTINUOUS
10
91.5403
20
-86.1256
11
91.4103
21
-85.8823
0
LINE
8
BLACK
6
CONTINUOUS
10
91.4103
20
-85.8823
11
91.3303
21
-85.6184
0
LINE
8
BLACK
6
CONTINUOUS
10
91.3303
20
-85.6184
11
91.3032
21
-85.344
0
LINE
8
BLACK
6
CONTINUOUS
10
91.3032
20
-85.344
11
91.3303
21
-85.0696
0
LINE
8
BLACK
6
CONTINUOUS
10
91.3303
20
-85.0696
11
91.4103
21
-84.8057
0
LINE
8
BLACK
6
CONTINUOUS
10
91.4103
20
-84.8057
11
91.5403
21
-84.5624
0
LINE
8
BLACK
6
CONTINUOUS
10
91.5403
20
-84.5624
11
91.7153
21
-84.3493
0
LINE
8
BLACK
6
CONTINUOUS
10
91.7153
20
-84.3493
11
91.9284
21
-84.1743
0
LINE
8
BLACK
6
CONTINUOUS
10
91.9284
20
-84.1743
11
92.1717
21
-84.0443
0
LINE
8
BLACK
6
CONTINUOUS
10
92.1717
20
-84.0443
11
92.4356
21
-83.9643
0
LINE
8
BLACK
6
CONTINUOUS
10
92.4356
20
-83.9643
11
92.6412
21
-83.944
0
LINE
8
BLACK
6
CONTINUOUS
10
92.6412
20
-83.944
11
92.7788
21
-83.944
0
LINE
8
BLACK
6
CONTINUOUS
10
92.7788
20
-83.944
11
92.9844
21
-83.9643
0
LINE
8
BLACK
6
CONTINUOUS
10
86.8765
20
-83.4626
11
87.0403
21
-83.5304
0
LINE
8
BLACK
6
CONTINUOUS
10
87.0403
20
-83.5304
11
87.1877
21
-83.6289
0
LINE
8
BLACK
6
CONTINUOUS
10
87.1877
20
-83.6289
11
87.3131
21
-83.7543
0
LINE
8
BLACK
6
CONTINUOUS
10
87.3131
20
-83.7543
11
87.4116
21
-83.9017
0
LINE
8
BLACK
6
CONTINUOUS
10
87.4116
20
-83.9017
11
87.4794
21
-84.0655
0
LINE
8
BLACK
6
CONTINUOUS
10
87.4794
20
-84.0655
11
87.514
21
-84.2394
0
LINE
8
BLACK
6
CONTINUOUS
10
87.514
20
-84.2394
11
87.514
21
-84.4166
0
LINE
8
BLACK
6
CONTINUOUS
10
87.514
20
-84.4166
11
87.4794
21
-84.5905
0
LINE
8
BLACK
6
CONTINUOUS
10
87.4794
20
-84.5905
11
87.4116
21
-84.7543
0
LINE
8
BLACK
6
CONTINUOUS
10
87.4116
20
-84.7543
11
87.3131
21
-84.9017
0
LINE
8
BLACK
6
CONTINUOUS
10
87.3131
20
-84.9017
11
87.1877
21
-85.0271
0
LINE
8
BLACK
6
CONTINUOUS
10
87.1877
20
-85.0271
11
87.0403
21
-85.1256
0
LINE
8
BLACK
6
CONTINUOUS
10
87.0403
20
-85.1256
11
86.8765
21
-85.1934
0
LINE
8
BLACK
6
CONTINUOUS
10
86.8765
20
-85.1934
11
86.7026
21
-85.228
0
LINE
8
BLACK
6
CONTINUOUS
10
86.7026
20
-85.228
11
86.5254
21
-85.228
0
LINE
8
BLACK
6
CONTINUOUS
10
86.5254
20
-85.228
11
86.3515
21
-85.1934
0
LINE
8
BLACK
6
CONTINUOUS
10
86.3515
20
-85.1934
11
86.1877
21
-85.1256
0
LINE
8
BLACK
6
CONTINUOUS
10
86.1877
20
-85.1256
11
86.0403
21
-85.0271
0
LINE
8
BLACK
6
CONTINUOUS
10
86.0403
20
-85.0271
11
85.9149
21
-84.9017
0
LINE
8
BLACK
6
CONTINUOUS
10
85.9149
20
-84.9017
11
85.8164
21
-84.7543
0
LINE
8
BLACK
6
CONTINUOUS
10
85.8164
20
-84.7543
11
85.7486
21
-84.5905
0
LINE
8
BLACK
6
CONTINUOUS
10
85.7486
20
-84.5905
11
85.714
21
-84.4166
0
LINE
8
BLACK
6
CONTINUOUS
10
85.714
20
-84.4166
11
85.714
21
-84.2394
0
LINE
8
BLACK
6
CONTINUOUS
10
85.714
20
-84.2394
11
85.7486
21
-84.0655
0
LINE
8
BLACK
6
CONTINUOUS
10
85.7486
20
-84.0655
11
85.8164
21
-83.9017
0
LINE
8
BLACK
6
CONTINUOUS
10
85.8164
20
-83.9017
11
85.9149
21
-83.7543
0
LINE
8
BLACK
6
CONTINUOUS
10
85.9149
20
-83.7543
11
86.0403
21
-83.6289
0
LINE
8
BLACK
6
CONTINUOUS
10
86.0403
20
-83.6289
11
86.1877
21
-83.5304
0
LINE
8
BLACK
6
CONTINUOUS
10
86.1877
20
-83.5304
11
86.3515
21
-83.4626
0
LINE
8
BLACK
6
CONTINUOUS
10
86.3515
20
-83.4626
11
86.5254
21
-83.428
0
LINE
8
BLACK
6
CONTINUOUS
10
86.5254
20
-83.428
11
86.7026
21
-83.428
0
LINE
8
BLACK
6
CONTINUOUS
10
86.7026
20
-83.428
11
86.8765
21
-83.4626
0
LINE
8
BLACK
6
CONTINUOUS
10
87.514
20
-82.688
11
85.714
21
-82.688
0
LINE
8
BLACK
6
CONTINUOUS
10
85.714
20
-82.688
11
85.714
21
-80.888
0
LINE
8
BLACK
6
CONTINUOUS
10
85.714
20
-80.888
11
87.514
21
-80.888
0
LINE
8
BLACK
6
CONTINUOUS
10
87.514
20
-80.888
11
87.514
21
-82.688
0
LINE
8
BLACK
6
CONTINUOUS
10
127.738
20
-82.526
11
124.738
21
-82.526
0
LINE
8
BLACK
6
CONTINUOUS
10
124.738
20
-82.526
11
124.738
21
-79.526
0
LINE
8
BLACK
6
CONTINUOUS
10
124.738
20
-79.526
11
127.738
21
-79.526
0
LINE
8
BLACK
6
CONTINUOUS
10
127.738
20
-79.526
11
127.738
21
-82.526
0
LINE
8
BLACK
6
CONTINUOUS
10
131.756
20
-79.5836
11
132.029
21
-79.6967
0
LINE
8
BLACK
6
CONTINUOUS
10
132.029
20
-79.6967
11
132.274
21
-79.8609
0
LINE
8
BLACK
6
CONTINUOUS
10
132.274
20
-79.8609
11
132.483
21
-80.0698
0
LINE
8
BLACK
6
CONTINUOUS
10
132.483
20
-80.0698
11
132.647
21
-80.3155
0
LINE
8
BLACK
6
CONTINUOUS
10
132.647
20
-80.3155
11
132.76
21
-80.5885
0
LINE
8
BLACK
6
CONTINUOUS
10
132.76
20
-80.5885
11
132.818
21
-80.8783
0
LINE
8
BLACK
6
CONTINUOUS
10
132.818
20
-80.8783
11
132.818
21
-81.1737
0
LINE
8
BLACK
6
CONTINUOUS
10
132.818
20
-81.1737
11
132.76
21
-81.4635
0
LINE
8
BLACK
6
CONTINUOUS
10
132.76
20
-81.4635
11
132.647
21
-81.7365
0
LINE
8
BLACK
6
CONTINUOUS
10
132.647
20
-81.7365
11
132.483
21
-81.9822
0
LINE
8
BLACK
6
CONTINUOUS
10
132.483
20
-81.9822
11
132.274
21
-82.1911
0
LINE
8
BLACK
6
CONTINUOUS
10
132.274
20
-82.1911
11
132.029
21
-82.3553
0
LINE
8
BLACK
6
CONTINUOUS
10
132.029
20
-82.3553
11
131.756
21
-82.4684
0
LINE
8
BLACK
6
CONTINUOUS
10
131.756
20
-82.4684
11
131.466
21
-82.526
0
LINE
8
BLACK
6
CONTINUOUS
10
131.466
20
-82.526
11
131.17
21
-82.526
0
LINE
8
BLACK
6
CONTINUOUS
10
131.17
20
-82.526
11
130.88
21
-82.4684
0
LINE
8
BLACK
6
CONTINUOUS
10
130.88
20
-82.4684
11
130.607
21
-82.3553
0
LINE
8
BLACK
6
CONTINUOUS
10
130.607
20
-82.3553
11
130.362
21
-82.1911
0
LINE
8
BLACK
6
CONTINUOUS
10
130.362
20
-82.1911
11
130.153
21
-81.9822
0
LINE
8
BLACK
6
CONTINUOUS
10
130.153
20
-81.9822
11
129.989
21
-81.7365
0
LINE
8
BLACK
6
CONTINUOUS
10
129.989
20
-81.7365
11
129.876
21
-81.4635
0
LINE
8
BLACK
6
CONTINUOUS
10
129.876
20
-81.4635
11
129.818
21
-81.1737
0
LINE
8
BLACK
6
CONTINUOUS
10
129.818
20
-81.1737
11
129.818
21
-80.8783
0
LINE
8
BLACK
6
CONTINUOUS
10
129.818
20
-80.8783
11
129.876
21
-80.5885
0
LINE
8
BLACK
6
CONTINUOUS
10
129.876
20
-80.5885
11
129.989
21
-80.3155
0
LINE
8
BLACK
6
CONTINUOUS
10
129.989
20
-80.3155
11
130.153
21
-80.0698
0
LINE
8
BLACK
6
CONTINUOUS
10
130.153
20
-80.0698
11
130.362
21
-79.8609
0
LINE
8
BLACK
6
CONTINUOUS
10
130.362
20
-79.8609
11
130.607
21
-79.6967
0
LINE
8
BLACK
6
CONTINUOUS
10
130.607
20
-79.6967
11
130.88
21
-79.5836
0
LINE
8
BLACK
6
CONTINUOUS
10
130.88
20
-79.5836
11
131.17
21
-79.526
0
LINE
8
BLACK
6
CONTINUOUS
10
131.17
20
-79.526
11
131.466
21
-79.526
0
LINE
8
BLACK
6
CONTINUOUS
10
131.466
20
-79.526
11
131.756
21
-79.5836
0
LINE
8
BLACK
6
CONTINUOUS
10
93.1184
20
-78.9178
11
93.3731
21
-79.0233
0
LINE
8
BLACK
6
CONTINUOUS
10
93.3731
20
-79.0233
11
93.6024
21
-79.1765
0
LINE
8
BLACK
6
CONTINUOUS
10
93.6024
20
-79.1765
11
93.7975
21
-79.3716
0
LINE
8
BLACK
6
CONTINUOUS
10
93.7975
20
-79.3716
11
93.9507
21
-79.6009
0
LINE
8
BLACK
6
CONTINUOUS
10
93.9507
20
-79.6009
11
94.0562
21
-79.8556
0
LINE
8
BLACK
6
CONTINUOUS
10
94.0562
20
-79.8556
11
94.11
21
-80.1261
0
LINE
8
BLACK
6
CONTINUOUS
10
94.11
20
-80.1261
11
94.11
21
-80.4019
0
LINE
8
BLACK
6
CONTINUOUS
10
94.11
20
-80.4019
11
94.0562
21
-80.6724
0
LINE
8
BLACK
6
CONTINUOUS
10
94.0562
20
-80.6724
11
93.9507
21
-80.9271
0
LINE
8
BLACK
6
CONTINUOUS
10
93.9507
20
-80.9271
11
93.7975
21
-81.1564
0
LINE
8
BLACK
6
CONTINUOUS
10
93.7975
20
-81.1564
11
93.6024
21
-81.3515
0
LINE
8
BLACK
6
CONTINUOUS
10
93.6024
20
-81.3515
11
93.3731
21
-81.5047
0
LINE
8
BLACK
6
CONTINUOUS
10
93.3731
20
-81.5047
11
93.1184
21
-81.6102
0
LINE
8
BLACK
6
CONTINUOUS
10
93.1184
20
-81.6102
11
92.8479
21
-81.664
0
LINE
8
BLACK
6
CONTINUOUS
10
92.8479
20
-81.664
11
92.5721
21
-81.664
0
LINE
8
BLACK
6
CONTINUOUS
10
92.5721
20
-81.664
11
92.3016
21
-81.6102
0
LINE
8
BLACK
6
CONTINUOUS
10
92.3016
20
-81.6102
11
92.0469
21
-81.5047
0
LINE
8
BLACK
6
CONTINUOUS
10
92.0469
20
-81.5047
11
91.8176
21
-81.3515
0
LINE
8
BLACK
6
CONTINUOUS
10
91.8176
20
-81.3515
11
91.6225
21
-81.1564
0
LINE
8
BLACK
6
CONTINUOUS
10
91.6225
20
-81.1564
11
91.4693
21
-80.9271
0
LINE
8
BLACK
6
CONTINUOUS
10
91.4693
20
-80.9271
11
91.3638
21
-80.6724
0
LINE
8
BLACK
6
CONTINUOUS
10
91.3638
20
-80.6724
11
91.31
21
-80.4019
0
LINE
8
BLACK
6
CONTINUOUS
10
91.31
20
-80.4019
11
91.31
21
-80.1261
0
LINE
8
BLACK
6
CONTINUOUS
10
91.31
20
-80.1261
11
91.3638
21
-79.8556
0
LINE
8
BLACK
6
CONTINUOUS
10
91.3638
20
-79.8556
11
91.4693
21
-79.6009
0
LINE
8
BLACK
6
CONTINUOUS
10
91.4693
20
-79.6009
11
91.6225
21
-79.3716
0
LINE
8
BLACK
6
CONTINUOUS
10
91.6225
20
-79.3716
11
91.8176
21
-79.1765
0
LINE
8
BLACK
6
CONTINUOUS
10
91.8176
20
-79.1765
11
92.0469
21
-79.0233
0
LINE
8
BLACK
6
CONTINUOUS
10
92.0469
20
-79.0233
11
92.3016
21
-78.9178
0
LINE
8
BLACK
6
CONTINUOUS
10
92.3016
20
-78.9178
11
92.5721
21
-78.864
0
LINE
8
BLACK
6
CONTINUOUS
10
92.5721
20
-78.864
11
92.8479
21
-78.864
0
LINE
8
BLACK
6
CONTINUOUS
10
92.8479
20
-78.864
11
93.1184
21
-78.9178
0
LINE
8
BLACK
6
CONTINUOUS
10
117.68
20
-79.3024
11
117.862
21
-79.3778
0
LINE
8
BLACK
6
CONTINUOUS
10
117.862
20
-79.3778
11
118.025
21
-79.4872
0
LINE
8
BLACK
6
CONTINUOUS
10
118.025
20
-79.4872
11
118.165
21
-79.6265
0
LINE
8
BLACK
6
CONTINUOUS
10
118.165
20
-79.6265
11
118.274
21
-79.7903
0
LINE
8
BLACK
6
CONTINUOUS
10
118.274
20
-79.7903
11
118.35
21
-79.9723
0
LINE
8
BLACK
6
CONTINUOUS
10
118.35
20
-79.9723
11
118.388
21
-80.1655
0
LINE
8
BLACK
6
CONTINUOUS
10
118.388
20
-80.1655
11
118.388
21
-80.3625
0
LINE
8
BLACK
6
CONTINUOUS
10
118.388
20
-80.3625
11
118.35
21
-80.5557
0
LINE
8
BLACK
6
CONTINUOUS
10
118.35
20
-80.5557
11
118.274
21
-80.7377
0
LINE
8
BLACK
6
CONTINUOUS
10
118.274
20
-80.7377
11
118.165
21
-80.9015
0
LINE
8
BLACK
6
CONTINUOUS
10
118.165
20
-80.9015
11
118.025
21
-81.0408
0
LINE
8
BLACK
6
CONTINUOUS
10
118.025
20
-81.0408
11
117.862
21
-81.1502
0
LINE
8
BLACK
6
CONTINUOUS
10
117.862
20
-81.1502
11
117.68
21
-81.2256
0
LINE
8
BLACK
6
CONTINUOUS
10
117.68
20
-81.2256
11
117.486
21
-81.264
0
LINE
8
BLACK
6
CONTINUOUS
10
117.486
20
-81.264
11
117.29
21
-81.264
0
LINE
8
BLACK
6
CONTINUOUS
10
117.29
20
-81.264
11
117.096
21
-81.2256
0
LINE
8
BLACK
6
CONTINUOUS
10
117.096
20
-81.2256
11
116.914
21
-81.1502
0
LINE
8
BLACK
6
CONTINUOUS
10
116.914
20
-81.1502
11
116.751
21
-81.0408
0
LINE
8
BLACK
6
CONTINUOUS
10
116.751
20
-81.0408
11
116.611
21
-80.9015
0
LINE
8
BLACK
6
CONTINUOUS
10
116.611
20
-80.9015
11
116.502
21
-80.7377
0
LINE
8
BLACK
6
CONTINUOUS
10
116.502
20
-80.7377
11
116.426
21
-80.5557
0
LINE
8
BLACK
6
CONTINUOUS
10
116.426
20
-80.5557
11
116.388
21
-80.3625
0
LINE
8
BLACK
6
CONTINUOUS
10
116.388
20
-80.3625
11
116.388
21
-80.1655
0
LINE
8
BLACK
6
CONTINUOUS
10
116.388
20
-80.1655
11
116.426
21
-79.9723
0
LINE
8
BLACK
6
CONTINUOUS
10
116.426
20
-79.9723
11
116.502
21
-79.7903
0
LINE
8
BLACK
6
CONTINUOUS
10
116.502
20
-79.7903
11
116.611
21
-79.6265
0
LINE
8
BLACK
6
CONTINUOUS
10
116.611
20
-79.6265
11
116.751
21
-79.4872
0
LINE
8
BLACK
6
CONTINUOUS
10
116.751
20
-79.4872
11
116.914
21
-79.3778
0
LINE
8
BLACK
6
CONTINUOUS
10
116.914
20
-79.3778
11
117.096
21
-79.3024
0
LINE
8
BLACK
6
CONTINUOUS
10
117.096
20
-79.3024
11
117.29
21
-79.264
0
LINE
8
BLACK
6
CONTINUOUS
10
117.29
20
-79.264
11
117.486
21
-79.264
0
LINE
8
BLACK
6
CONTINUOUS
10
117.486
20
-79.264
11
117.68
21
-79.3024
0
LINE
8
BLACK
6
CONTINUOUS
10
100.114
20
-79.3024
11
100.296
21
-79.3778
0
LINE
8
BLACK
6
CONTINUOUS
10
100.296
20
-79.3778
11
100.459
21
-79.4872
0
LINE
8
BLACK
6
CONTINUOUS
10
100.459
20
-79.4872
11
100.599
21
-79.6265
0
LINE
8
BLACK
6
CONTINUOUS
10
100.599
20
-79.6265
11
100.708
21
-79.7903
0
LINE
8
BLACK
6
CONTINUOUS
10
100.708
20
-79.7903
11
100.784
21
-79.9723
0
LINE
8
BLACK
6
CONTINUOUS
10
100.784
20
-79.9723
11
100.822
21
-80.1655
0
LINE
8
BLACK
6
CONTINUOUS
10
100.822
20
-80.1655
11
100.822
21
-80.3625
0
LINE
8
BLACK
6
CONTINUOUS
10
100.822
20
-80.3625
11
100.784
21
-80.5557
0
LINE
8
BLACK
6
CONTINUOUS
10
100.784
20
-80.5557
11
100.708
21
-80.7377
0
LINE
8
BLACK
6
CONTINUOUS
10
100.708
20
-80.7377
11
100.599
21
-80.9015
0
LINE
8
BLACK
6
CONTINUOUS
10
100.599
20
-80.9015
11
100.459
21
-81.0408
0
LINE
8
BLACK
6
CONTINUOUS
10
100.459
20
-81.0408
11
100.296
21
-81.1502
0
LINE
8
BLACK
6
CONTINUOUS
10
100.296
20
-81.1502
11
100.114
21
-81.2256
0
LINE
8
BLACK
6
CONTINUOUS
10
100.114
20
-81.2256
11
99.9205
21
-81.264
0
LINE
8
BLACK
6
CONTINUOUS
10
99.9205
20
-81.264
11
99.7235
21
-81.264
0
LINE
8
BLACK
6
CONTINUOUS
10
99.7235
20
-81.264
11
99.5303
21
-81.2256
0
LINE
8
BLACK
6
CONTINUOUS
10
99.5303
20
-81.2256
11
99.3483
21
-81.1502
0
LINE
8
BLACK
6
CONTINUOUS
10
99.3483
20
-81.1502
11
99.1845
21
-81.0408
0
LINE
8
BLACK
6
CONTINUOUS
10
99.1845
20
-81.0408
11
99.0452
21
-80.9015
0
LINE
8
BLACK
6
CONTINUOUS
10
99.0452
20
-80.9015
11
98.9358
21
-80.7377
0
LINE
8
BLACK
6
CONTINUOUS
10
98.9358
20
-80.7377
11
98.8604
21
-80.5557
0
LINE
8
BLACK
6
CONTINUOUS
10
98.8604
20
-80.5557
11
98.822
21
-80.3625
0
LINE
8
BLACK
6
CONTINUOUS
10
98.822
20
-80.3625
11
98.822
21
-80.1655
0
LINE
8
BLACK
6
CONTINUOUS
10
98.822
20
-80.1655
11
98.8604
21
-79.9723
0
LINE
8
BLACK
6
CONTINUOUS
10
98.8604
20
-79.9723
11
98.9358
21
-79.7903
0
LINE
8
BLACK
6
CONTINUOUS
10
98.9358
20
-79.7903
11
99.0452
21
-79.6265
0
LINE
8
BLACK
6
CONTINUOUS
10
99.0452
20
-79.6265
11
99.1845
21
-79.4872
0
LINE
8
BLACK
6
CONTINUOUS
10
99.1845
20
-79.4872
11
99.3483
21
-79.3778
0
LINE
8
BLACK
6
CONTINUOUS
10
99.3483
20
-79.3778
11
99.5303
21
-79.3024
0
LINE
8
BLACK
6
CONTINUOUS
10
99.5303
20
-79.3024
11
99.7235
21
-79.264
0
LINE
8
BLACK
6
CONTINUOUS
10
99.7235
20
-79.264
11
99.9205
21
-79.264
0
LINE
8
BLACK
6
CONTINUOUS
10
99.9205
20
-79.264
11
100.114
21
-79.3024
0
LINE
8
BLACK
6
CONTINUOUS
10
97.6137
20
-79.3024
11
97.7957
21
-79.3778
0
LINE
8
BLACK
6
CONTINUOUS
10
97.7957
20
-79.3778
11
97.9595
21
-79.4872
0
LINE
8
BLACK
6
CONTINUOUS
10
97.9595
20
-79.4872
11
98.0988
21
-79.6265
0
LINE
8
BLACK
6
CONTINUOUS
10
98.0988
20
-79.6265
11
98.2082
21
-79.7903
0
LINE
8
BLACK
6
CONTINUOUS
10
98.2082
20
-79.7903
11
98.2836
21
-79.9723
0
LINE
8
BLACK
6
CONTINUOUS
10
98.2836
20
-79.9723
11
98.322
21
-80.1655
0
LINE
8
BLACK
6
CONTINUOUS
10
98.322
20
-80.1655
11
98.322
21
-80.3625
0
LINE
8
BLACK
6
CONTINUOUS
10
98.322
20
-80.3625
11
98.2836
21
-80.5557
0
LINE
8
BLACK
6
CONTINUOUS
10
98.2836
20
-80.5557
11
98.2082
21
-80.7377
0
LINE
8
BLACK
6
CONTINUOUS
10
98.2082
20
-80.7377
11
98.0988
21
-80.9015
0
LINE
8
BLACK
6
CONTINUOUS
10
98.0988
20
-80.9015
11
97.9595
21
-81.0408
0
LINE
8
BLACK
6
CONTINUOUS
10
97.9595
20
-81.0408
11
97.7957
21
-81.1502
0
LINE
8
BLACK
6
CONTINUOUS
10
97.7957
20
-81.1502
11
97.6137
21
-81.2256
0
LINE
8
BLACK
6
CONTINUOUS
10
97.6137
20
-81.2256
11
97.4205
21
-81.264
0
LINE
8
BLACK
6
CONTINUOUS
10
97.4205
20
-81.264
11
97.2235
21
-81.264
0
LINE
8
BLACK
6
CONTINUOUS
10
97.2235
20
-81.264
11
97.0303
21
-81.2256
0
LINE
8
BLACK
6
CONTINUOUS
10
97.0303
20
-81.2256
11
96.8483
21
-81.1502
0
LINE
8
BLACK
6
CONTINUOUS
10
96.8483
20
-81.1502
11
96.6845
21
-81.0408
0
LINE
8
BLACK
6
CONTINUOUS
10
96.6845
20
-81.0408
11
96.5452
21
-80.9015
0
LINE
8
BLACK
6
CONTINUOUS
10
96.5452
20
-80.9015
11
96.4358
21
-80.7377
0
LINE
8
BLACK
6
CONTINUOUS
10
96.4358
20
-80.7377
11
96.3604
21
-80.5557
0
LINE
8
BLACK
6
CONTINUOUS
10
96.3604
20
-80.5557
11
96.322
21
-80.3625
0
LINE
8
BLACK
6
CONTINUOUS
10
96.322
20
-80.3625
11
96.322
21
-80.1655
0
LINE
8
BLACK
6
CONTINUOUS
10
96.322
20
-80.1655
11
96.3604
21
-79.9723
0
LINE
8
BLACK
6
CONTINUOUS
10
96.3604
20
-79.9723
11
96.4358
21
-79.7903
0
LINE
8
BLACK
6
CONTINUOUS
10
96.4358
20
-79.7903
11
96.5452
21
-79.6265
0
LINE
8
BLACK
6
CONTINUOUS
10
96.5452
20
-79.6265
11
96.6845
21
-79.4872
0
LINE
8
BLACK
6
CONTINUOUS
10
96.6845
20
-79.4872
11
96.8483
21
-79.3778
0
LINE
8
BLACK
6
CONTINUOUS
10
96.8483
20
-79.3778
11
97.0303
21
-79.3024
0
LINE
8
BLACK
6
CONTINUOUS
10
97.0303
20
-79.3024
11
97.2235
21
-79.264
0
LINE
8
BLACK
6
CONTINUOUS
10
97.2235
20
-79.264
11
97.4205
21
-79.264
0
LINE
8
BLACK
6
CONTINUOUS
10
97.4205
20
-79.264
11
97.6137
21
-79.3024
0
LINE
8
BLACK
6
CONTINUOUS
10
102.654
20
-79.3024
11
102.836
21
-79.3778
0
LINE
8
BLACK
6
CONTINUOUS
10
102.836
20
-79.3778
11
102.999
21
-79.4872
0
LINE
8
BLACK
6
CONTINUOUS
10
102.999
20
-79.4872
11
103.139
21
-79.6265
0
LINE
8
BLACK
6
CONTINUOUS
10
103.139
20
-79.6265
11
103.248
21
-79.7903
0
LINE
8
BLACK
6
CONTINUOUS
10
103.248
20
-79.7903
11
103.324
21
-79.9723
0
LINE
8
BLACK
6
CONTINUOUS
10
103.324
20
-79.9723
11
103.362
21
-80.1655
0
LINE
8
BLACK
6
CONTINUOUS
10
103.362
20
-80.1655
11
103.362
21
-80.3625
0
LINE
8
BLACK
6
CONTINUOUS
10
103.362
20
-80.3625
11
103.324
21
-80.5557
0
LINE
8
BLACK
6
CONTINUOUS
10
103.324
20
-80.5557
11
103.248
21
-80.7377
0
LINE
8
BLACK
6
CONTINUOUS
10
103.248
20
-80.7377
11
103.139
21
-80.9015
0
LINE
8
BLACK
6
CONTINUOUS
10
103.139
20
-80.9015
11
102.999
21
-81.0408
0
LINE
8
BLACK
6
CONTINUOUS
10
102.999
20
-81.0408
11
102.836
21
-81.1502
0
LINE
8
BLACK
6
CONTINUOUS
10
102.836
20
-81.1502
11
102.654
21
-81.2256
0
LINE
8
BLACK
6
CONTINUOUS
10
102.654
20
-81.2256
11
102.46
21
-81.264
0
LINE
8
BLACK
6
CONTINUOUS
10
102.46
20
-81.264
11
102.264
21
-81.264
0
LINE
8
BLACK
6
CONTINUOUS
10
102.264
20
-81.264
11
102.07
21
-81.2256
0
LINE
8
BLACK
6
CONTINUOUS
10
102.07
20
-81.2256
11
101.888
21
-81.1502
0
LINE
8
BLACK
6
CONTINUOUS
10
101.888
20
-81.1502
11
101.725
21
-81.0408
0
LINE
8
BLACK
6
CONTINUOUS
10
101.725
20
-81.0408
11
101.585
21
-80.9015
0
LINE
8
BLACK
6
CONTINUOUS
10
101.585
20
-80.9015
11
101.476
21
-80.7377
0
LINE
8
BLACK
6
CONTINUOUS
10
101.476
20
-80.7377
11
101.4
21
-80.5557
0
LINE
8
BLACK
6
CONTINUOUS
10
101.4
20
-80.5557
11
101.362
21
-80.3625
0
LINE
8
BLACK
6
CONTINUOUS
10
101.362
20
-80.3625
11
101.362
21
-80.1655
0
LINE
8
BLACK
6
CONTINUOUS
10
101.362
20
-80.1655
11
101.4
21
-79.9723
0
LINE
8
BLACK
6
CONTINUOUS
10
101.4
20
-79.9723
11
101.476
21
-79.7903
0
LINE
8
BLACK
6
CONTINUOUS
10
101.476
20
-79.7903
11
101.585
21
-79.6265
0
LINE
8
BLACK
6
CONTINUOUS
10
101.585
20
-79.6265
11
101.725
21
-79.4872
0
LINE
8
BLACK
6
CONTINUOUS
10
101.725
20
-79.4872
11
101.888
21
-79.3778
0
LINE
8
BLACK
6
CONTINUOUS
10
101.888
20
-79.3778
11
102.07
21
-79.3024
0
LINE
8
BLACK
6
CONTINUOUS
10
102.07
20
-79.3024
11
102.264
21
-79.264
0
LINE
8
BLACK
6
CONTINUOUS
10
102.264
20
-79.264
11
102.46
21
-79.264
0
LINE
8
BLACK
6
CONTINUOUS
10
102.46
20
-79.264
11
102.654
21
-79.3024
0
LINE
8
BLACK
6
CONTINUOUS
10
105.154
20
-79.3024
11
105.336
21
-79.3778
0
LINE
8
BLACK
6
CONTINUOUS
10
105.336
20
-79.3778
11
105.499
21
-79.4872
0
LINE
8
BLACK
6
CONTINUOUS
10
105.499
20
-79.4872
11
105.639
21
-79.6265
0
LINE
8
BLACK
6
CONTINUOUS
10
105.639
20
-79.6265
11
105.748
21
-79.7903
0
LINE
8
BLACK
6
CONTINUOUS
10
105.748
20
-79.7903
11
105.824
21
-79.9723
0
LINE
8
BLACK
6
CONTINUOUS
10
105.824
20
-79.9723
11
105.862
21
-80.1655
0
LINE
8
BLACK
6
CONTINUOUS
10
105.862
20
-80.1655
11
105.862
21
-80.3625
0
LINE
8
BLACK
6
CONTINUOUS
10
105.862
20
-80.3625
11
105.824
21
-80.5557
0
LINE
8
BLACK
6
CONTINUOUS
10
105.824
20
-80.5557
11
105.748
21
-80.7377
0
LINE
8
BLACK
6
CONTINUOUS
10
105.748
20
-80.7377
11
105.639
21
-80.9015
0
LINE
8
BLACK
6
CONTINUOUS
10
105.639
20
-80.9015
11
105.499
21
-81.0408
0
LINE
8
BLACK
6
CONTINUOUS
10
105.499
20
-81.0408
11
105.336
21
-81.1502
0
LINE
8
BLACK
6
CONTINUOUS
10
105.336
20
-81.1502
11
105.154
21
-81.2256
0
LINE
8
BLACK
6
CONTINUOUS
10
105.154
20
-81.2256
11
104.96
21
-81.264
0
LINE
8
BLACK
6
CONTINUOUS
10
104.96
20
-81.264
11
104.764
21
-81.264
0
LINE
8
BLACK
6
CONTINUOUS
10
104.764
20
-81.264
11
104.57
21
-81.2256
0
LINE
8
BLACK
6
CONTINUOUS
10
104.57
20
-81.2256
11
104.388
21
-81.1502
0
LINE
8
BLACK
6
CONTINUOUS
10
104.388
20
-81.1502
11
104.225
21
-81.0408
0
LINE
8
BLACK
6
CONTINUOUS
10
104.225
20
-81.0408
11
104.085
21
-80.9015
0
LINE
8
BLACK
6
CONTINUOUS
10
104.085
20
-80.9015
11
103.976
21
-80.7377
0
LINE
8
BLACK
6
CONTINUOUS
10
103.976
20
-80.7377
11
103.9
21
-80.5557
0
LINE
8
BLACK
6
CONTINUOUS
10
103.9
20
-80.5557
11
103.862
21
-80.3625
0
LINE
8
BLACK
6
CONTINUOUS
10
103.862
20
-80.3625
11
103.862
21
-80.1655
0
LINE
8
BLACK
6
CONTINUOUS
10
103.862
20
-80.1655
11
103.9
21
-79.9723
0
LINE
8
BLACK
6
CONTINUOUS
10
103.9
20
-79.9723
11
103.976
21
-79.7903
0
LINE
8
BLACK
6
CONTINUOUS
10
103.976
20
-79.7903
11
104.085
21
-79.6265
0
LINE
8
BLACK
6
CONTINUOUS
10
104.085
20
-79.6265
11
104.225
21
-79.4872
0
LINE
8
BLACK
6
CONTINUOUS
10
104.225
20
-79.4872
11
104.388
21
-79.3778
0
LINE
8
BLACK
6
CONTINUOUS
10
104.388
20
-79.3778
11
104.57
21
-79.3024
0
LINE
8
BLACK
6
CONTINUOUS
10
104.57
20
-79.3024
11
104.764
21
-79.264
0
LINE
8
BLACK
6
CONTINUOUS
10
104.764
20
-79.264
11
104.96
21
-79.264
0
LINE
8
BLACK
6
CONTINUOUS
10
104.96
20
-79.264
11
105.154
21
-79.3024
0
LINE
8
BLACK
6
CONTINUOUS
10
120.18
20
-79.3024
11
120.362
21
-79.3778
0
LINE
8
BLACK
6
CONTINUOUS
10
120.362
20
-79.3778
11
120.525
21
-79.4872
0
LINE
8
BLACK
6
CONTINUOUS
10
120.525
20
-79.4872
11
120.665
21
-79.6265
0
LINE
8
BLACK
6
CONTINUOUS
10
120.665
20
-79.6265
11
120.774
21
-79.7903
0
LINE
8
BLACK
6
CONTINUOUS
10
120.774
20
-79.7903
11
120.85
21
-79.9723
0
LINE
8
BLACK
6
CONTINUOUS
10
120.85
20
-79.9723
11
120.888
21
-80.1655
0
LINE
8
BLACK
6
CONTINUOUS
10
120.888
20
-80.1655
11
120.888
21
-80.3625
0
LINE
8
BLACK
6
CONTINUOUS
10
120.888
20
-80.3625
11
120.85
21
-80.5557
0
LINE
8
BLACK
6
CONTINUOUS
10
120.85
20
-80.5557
11
120.774
21
-80.7377
0
LINE
8
BLACK
6
CONTINUOUS
10
120.774
20
-80.7377
11
120.665
21
-80.9015
0
LINE
8
BLACK
6
CONTINUOUS
10
120.665
20
-80.9015
11
120.525
21
-81.0408
0
LINE
8
BLACK
6
CONTINUOUS
10
120.525
20
-81.0408
11
120.362
21
-81.1502
0
LINE
8
BLACK
6
CONTINUOUS
10
120.362
20
-81.1502
11
120.18
21
-81.2256
0
LINE
8
BLACK
6
CONTINUOUS
10
120.18
20
-81.2256
11
119.986
21
-81.264
0
LINE
8
BLACK
6
CONTINUOUS
10
119.986
20
-81.264
11
119.79
21
-81.264
0
LINE
8
BLACK
6
CONTINUOUS
10
119.79
20
-81.264
11
119.596
21
-81.2256
0
LINE
8
BLACK
6
CONTINUOUS
10
119.596
20
-81.2256
11
119.414
21
-81.1502
0
LINE
8
BLACK
6
CONTINUOUS
10
119.414
20
-81.1502
11
119.251
21
-81.0408
0
LINE
8
BLACK
6
CONTINUOUS
10
119.251
20
-81.0408
11
119.111
21
-80.9015
0
LINE
8
BLACK
6
CONTINUOUS
10
119.111
20
-80.9015
11
119.002
21
-80.7377
0
LINE
8
BLACK
6
CONTINUOUS
10
119.002
20
-80.7377
11
118.926
21
-80.5557
0
LINE
8
BLACK
6
CONTINUOUS
10
118.926
20
-80.5557
11
118.888
21
-80.3625
0
LINE
8
BLACK
6
CONTINUOUS
10
118.888
20
-80.3625
11
118.888
21
-80.1655
0
LINE
8
BLACK
6
CONTINUOUS
10
118.888
20
-80.1655
11
118.926
21
-79.9723
0
LINE
8
BLACK
6
CONTINUOUS
10
118.926
20
-79.9723
11
119.002
21
-79.7903
0
LINE
8
BLACK
6
CONTINUOUS
10
119.002
20
-79.7903
11
119.111
21
-79.6265
0
LINE
8
BLACK
6
CONTINUOUS
10
119.111
20
-79.6265
11
119.251
21
-79.4872
0
LINE
8
BLACK
6
CONTINUOUS
10
119.251
20
-79.4872
11
119.414
21
-79.3778
0
LINE
8
BLACK
6
CONTINUOUS
10
119.414
20
-79.3778
11
119.596
21
-79.3024
0
LINE
8
BLACK
6
CONTINUOUS
10
119.596
20
-79.3024
11
119.79
21
-79.264
0
LINE
8
BLACK
6
CONTINUOUS
10
119.79
20
-79.264
11
119.986
21
-79.264
0
LINE
8
BLACK
6
CONTINUOUS
10
119.986
20
-79.264
11
120.18
21
-79.3024
0
LINE
8
BLACK
6
CONTINUOUS
10
115.314
20
-79.3024
11
115.496
21
-79.3778
0
LINE
8
BLACK
6
CONTINUOUS
10
115.496
20
-79.3778
11
115.659
21
-79.4872
0
LINE
8
BLACK
6
CONTINUOUS
10
115.659
20
-79.4872
11
115.799
21
-79.6265
0
LINE
8
BLACK
6
CONTINUOUS
10
115.799
20
-79.6265
11
115.908
21
-79.7903
0
LINE
8
BLACK
6
CONTINUOUS
10
115.908
20
-79.7903
11
115.984
21
-79.9723
0
LINE
8
BLACK
6
CONTINUOUS
10
115.984
20
-79.9723
11
116.022
21
-80.1655
0
LINE
8
BLACK
6
CONTINUOUS
10
116.022
20
-80.1655
11
116.022
21
-80.3625
0
LINE
8
BLACK
6
CONTINUOUS
10
116.022
20
-80.3625
11
115.984
21
-80.5557
0
LINE
8
BLACK
6
CONTINUOUS
10
115.984
20
-80.5557
11
115.908
21
-80.7377
0
LINE
8
BLACK
6
CONTINUOUS
10
115.908
20
-80.7377
11
115.799
21
-80.9015
0
LINE
8
BLACK
6
CONTINUOUS
10
115.799
20
-80.9015
11
115.659
21
-81.0408
0
LINE
8
BLACK
6
CONTINUOUS
10
115.659
20
-81.0408
11
115.496
21
-81.1502
0
LINE
8
BLACK
6
CONTINUOUS
10
115.496
20
-81.1502
11
115.314
21
-81.2256
0
LINE
8
BLACK
6
CONTINUOUS
10
115.314
20
-81.2256
11
115.12
21
-81.264
0
LINE
8
BLACK
6
CONTINUOUS
10
115.12
20
-81.264
11
114.924
21
-81.264
0
LINE
8
BLACK
6
CONTINUOUS
10
114.924
20
-81.264
11
114.73
21
-81.2256
0
LINE
8
BLACK
6
CONTINUOUS
10
114.73
20
-81.2256
11
114.548
21
-81.1502
0
LINE
8
BLACK
6
CONTINUOUS
10
114.548
20
-81.1502
11
114.385
21
-81.0408
0
LINE
8
BLACK
6
CONTINUOUS
10
114.385
20
-81.0408
11
114.245
21
-80.9015
0
LINE
8
BLACK
6
CONTINUOUS
10
114.245
20
-80.9015
11
114.136
21
-80.7377
0
LINE
8
BLACK
6
CONTINUOUS
10
114.136
20
-80.7377
11
114.06
21
-80.5557
0
LINE
8
BLACK
6
CONTINUOUS
10
114.06
20
-80.5557
11
114.022
21
-80.3625
0
LINE
8
BLACK
6
CONTINUOUS
10
114.022
20
-80.3625
11
114.022
21
-80.1655
0
LINE
8
BLACK
6
CONTINUOUS
10
114.022
20
-80.1655
11
114.06
21
-79.9723
0
LINE
8
BLACK
6
CONTINUOUS
10
114.06
20
-79.9723
11
114.136
21
-79.7903
0
LINE
8
BLACK
6
CONTINUOUS
10
114.136
20
-79.7903
11
114.245
21
-79.6265
0
LINE
8
BLACK
6
CONTINUOUS
10
114.245
20
-79.6265
11
114.385
21
-79.4872
0
LINE
8
BLACK
6
CONTINUOUS
10
114.385
20
-79.4872
11
114.548
21
-79.3778
0
LINE
8
BLACK
6
CONTINUOUS
10
114.548
20
-79.3778
11
114.73
21
-79.3024
0
LINE
8
BLACK
6
CONTINUOUS
10
114.73
20
-79.3024
11
114.924
21
-79.264
0
LINE
8
BLACK
6
CONTINUOUS
10
114.924
20
-79.264
11
115.12
21
-79.264
0
LINE
8
BLACK
6
CONTINUOUS
10
115.12
20
-79.264
11
115.314
21
-79.3024
0
LINE
8
BLACK
6
CONTINUOUS
10
112.814
20
-79.3024
11
112.996
21
-79.3778
0
LINE
8
BLACK
6
CONTINUOUS
10
112.996
20
-79.3778
11
113.159
21
-79.4872
0
LINE
8
BLACK
6
CONTINUOUS
10
113.159
20
-79.4872
11
113.299
21
-79.6265
0
LINE
8
BLACK
6
CONTINUOUS
10
113.299
20
-79.6265
11
113.408
21
-79.7903
0
LINE
8
BLACK
6
CONTINUOUS
10
113.408
20
-79.7903
11
113.484
21
-79.9723
0
LINE
8
BLACK
6
CONTINUOUS
10
113.484
20
-79.9723
11
113.522
21
-80.1655
0
LINE
8
BLACK
6
CONTINUOUS
10
113.522
20
-80.1655
11
113.522
21
-80.3625
0
LINE
8
BLACK
6
CONTINUOUS
10
113.522
20
-80.3625
11
113.484
21
-80.5557
0
LINE
8
BLACK
6
CONTINUOUS
10
113.484
20
-80.5557
11
113.408
21
-80.7377
0
LINE
8
BLACK
6
CONTINUOUS
10
113.408
20
-80.7377
11
113.299
21
-80.9015
0
LINE
8
BLACK
6
CONTINUOUS
10
113.299
20
-80.9015
11
113.159
21
-81.0408
0
LINE
8
BLACK
6
CONTINUOUS
10
113.159
20
-81.0408
11
112.996
21
-81.1502
0
LINE
8
BLACK
6
CONTINUOUS
10
112.996
20
-81.1502
11
112.814
21
-81.2256
0
LINE
8
BLACK
6
CONTINUOUS
10
112.814
20
-81.2256
11
112.62
21
-81.264
0
LINE
8
BLACK
6
CONTINUOUS
10
112.62
20
-81.264
11
112.424
21
-81.264
0
LINE
8
BLACK
6
CONTINUOUS
10
112.424
20
-81.264
11
112.23
21
-81.2256
0
LINE
8
BLACK
6
CONTINUOUS
10
112.23
20
-81.2256
11
112.048
21
-81.1502
0
LINE
8
BLACK
6
CONTINUOUS
10
112.048
20
-81.1502
11
111.885
21
-81.0408
0
LINE
8
BLACK
6
CONTINUOUS
10
111.885
20
-81.0408
11
111.745
21
-80.9015
0
LINE
8
BLACK
6
CONTINUOUS
10
111.745
20
-80.9015
11
111.636
21
-80.7377
0
LINE
8
BLACK
6
CONTINUOUS
10
111.636
20
-80.7377
11
111.56
21
-80.5557
0
LINE
8
BLACK
6
CONTINUOUS
10
111.56
20
-80.5557
11
111.522
21
-80.3625
0
LINE
8
BLACK
6
CONTINUOUS
10
111.522
20
-80.3625
11
111.522
21
-80.1655
0
LINE
8
BLACK
6
CONTINUOUS
10
111.522
20
-80.1655
11
111.56
21
-79.9723
0
LINE
8
BLACK
6
CONTINUOUS
10
111.56
20
-79.9723
11
111.636
21
-79.7903
0
LINE
8
BLACK
6
CONTINUOUS
10
111.636
20
-79.7903
11
111.745
21
-79.6265
0
LINE
8
BLACK
6
CONTINUOUS
10
111.745
20
-79.6265
11
111.885
21
-79.4872
0
LINE
8
BLACK
6
CONTINUOUS
10
111.885
20
-79.4872
11
112.048
21
-79.3778
0
LINE
8
BLACK
6
CONTINUOUS
10
112.048
20
-79.3778
11
112.23
21
-79.3024
0
LINE
8
BLACK
6
CONTINUOUS
10
112.23
20
-79.3024
11
112.424
21
-79.264
0
LINE
8
BLACK
6
CONTINUOUS
10
112.424
20
-79.264
11
112.62
21
-79.264
0
LINE
8
BLACK
6
CONTINUOUS
10
112.62
20
-79.264
11
112.814
21
-79.3024
0
LINE
8
BLACK
6
CONTINUOUS
10
107.774
20
-79.3024
11
107.956
21
-79.3778
0
LINE
8
BLACK
6
CONTINUOUS
10
107.956
20
-79.3778
11
108.119
21
-79.4872
0
LINE
8
BLACK
6
CONTINUOUS
10
108.119
20
-79.4872
11
108.259
21
-79.6265
0
LINE
8
BLACK
6
CONTINUOUS
10
108.259
20
-79.6265
11
108.368
21
-79.7903
0
LINE
8
BLACK
6
CONTINUOUS
10
108.368
20
-79.7903
11
108.444
21
-79.9723
0
LINE
8
BLACK
6
CONTINUOUS
10
108.444
20
-79.9723
11
108.482
21
-80.1655
0
LINE
8
BLACK
6
CONTINUOUS
10
108.482
20
-80.1655
11
108.482
21
-80.3625
0
LINE
8
BLACK
6
CONTINUOUS
10
108.482
20
-80.3625
11
108.444
21
-80.5557
0
LINE
8
BLACK
6
CONTINUOUS
10
108.444
20
-80.5557
11
108.368
21
-80.7377
0
LINE
8
BLACK
6
CONTINUOUS
10
108.368
20
-80.7377
11
108.259
21
-80.9015
0
LINE
8
BLACK
6
CONTINUOUS
10
108.259
20
-80.9015
11
108.119
21
-81.0408
0
LINE
8
BLACK
6
CONTINUOUS
10
108.119
20
-81.0408
11
107.956
21
-81.1502
0
LINE
8
BLACK
6
CONTINUOUS
10
107.956
20
-81.1502
11
107.774
21
-81.2256
0
LINE
8
BLACK
6
CONTINUOUS
10
107.774
20
-81.2256
11
107.58
21
-81.264
0
LINE
8
BLACK
6
CONTINUOUS
10
107.58
20
-81.264
11
107.384
21
-81.264
0
LINE
8
BLACK
6
CONTINUOUS
10
107.384
20
-81.264
11
107.19
21
-81.2256
0
LINE
8
BLACK
6
CONTINUOUS
10
107.19
20
-81.2256
11
107.008
21
-81.1502
0
LINE
8
BLACK
6
CONTINUOUS
10
107.008
20
-81.1502
11
106.845
21
-81.0408
0
LINE
8
BLACK
6
CONTINUOUS
10
106.845
20
-81.0408
11
106.705
21
-80.9015
0
LINE
8
BLACK
6
CONTINUOUS
10
106.705
20
-80.9015
11
106.596
21
-80.7377
0
LINE
8
BLACK
6
CONTINUOUS
10
106.596
20
-80.7377
11
106.52
21
-80.5557
0
LINE
8
BLACK
6
CONTINUOUS
10
106.52
20
-80.5557
11
106.482
21
-80.3625
0
LINE
8
BLACK
6
CONTINUOUS
10
106.482
20
-80.3625
11
106.482
21
-80.1655
0
LINE
8
BLACK
6
CONTINUOUS
10
106.482
20
-80.1655
11
106.52
21
-79.9723
0
LINE
8
BLACK
6
CONTINUOUS
10
106.52
20
-79.9723
11
106.596
21
-79.7903
0
LINE
8
BLACK
6
CONTINUOUS
10
106.596
20
-79.7903
11
106.705
21
-79.6265
0
LINE
8
BLACK
6
CONTINUOUS
10
106.705
20
-79.6265
11
106.845
21
-79.4872
0
LINE
8
BLACK
6
CONTINUOUS
10
106.845
20
-79.4872
11
107.008
21
-79.3778
0
LINE
8
BLACK
6
CONTINUOUS
10
107.008
20
-79.3778
11
107.19
21
-79.3024
0
LINE
8
BLACK
6
CONTINUOUS
10
107.19
20
-79.3024
11
107.384
21
-79.264
0
LINE
8
BLACK
6
CONTINUOUS
10
107.384
20
-79.264
11
107.58
21
-79.264
0
LINE
8
BLACK
6
CONTINUOUS
10
107.58
20
-79.264
11
107.774
21
-79.3024
0
LINE
8
BLACK
6
CONTINUOUS
10
110.274
20
-79.3024
11
110.456
21
-79.3778
0
LINE
8
BLACK
6
CONTINUOUS
10
110.456
20
-79.3778
11
110.619
21
-79.4872
0
LINE
8
BLACK
6
CONTINUOUS
10
110.619
20
-79.4872
11
110.759
21
-79.6265
0
LINE
8
BLACK
6
CONTINUOUS
10
110.759
20
-79.6265
11
110.868
21
-79.7903
0
LINE
8
BLACK
6
CONTINUOUS
10
110.868
20
-79.7903
11
110.944
21
-79.9723
0
LINE
8
BLACK
6
CONTINUOUS
10
110.944
20
-79.9723
11
110.982
21
-80.1655
0
LINE
8
BLACK
6
CONTINUOUS
10
110.982
20
-80.1655
11
110.982
21
-80.3625
0
LINE
8
BLACK
6
CONTINUOUS
10
110.982
20
-80.3625
11
110.944
21
-80.5557
0
LINE
8
BLACK
6
CONTINUOUS
10
110.944
20
-80.5557
11
110.868
21
-80.7377
0
LINE
8
BLACK
6
CONTINUOUS
10
110.868
20
-80.7377
11
110.759
21
-80.9015
0
LINE
8
BLACK
6
CONTINUOUS
10
110.759
20
-80.9015
11
110.619
21
-81.0408
0
LINE
8
BLACK
6
CONTINUOUS
10
110.619
20
-81.0408
11
110.456
21
-81.1502
0
LINE
8
BLACK
6
CONTINUOUS
10
110.456
20
-81.1502
11
110.274
21
-81.2256
0
LINE
8
BLACK
6
CONTINUOUS
10
110.274
20
-81.2256
11
110.08
21
-81.264
0
LINE
8
BLACK
6
CONTINUOUS
10
110.08
20
-81.264
11
109.884
21
-81.264
0
LINE
8
BLACK
6
CONTINUOUS
10
109.884
20
-81.264
11
109.69
21
-81.2256
0
LINE
8
BLACK
6
CONTINUOUS
10
109.69
20
-81.2256
11
109.508
21
-81.1502
0
LINE
8
BLACK
6
CONTINUOUS
10
109.508
20
-81.1502
11
109.345
21
-81.0408
0
LINE
8
BLACK
6
CONTINUOUS
10
109.345
20
-81.0408
11
109.205
21
-80.9015
0
LINE
8
BLACK
6
CONTINUOUS
10
109.205
20
-80.9015
11
109.096
21
-80.7377
0
LINE
8
BLACK
6
CONTINUOUS
10
109.096
20
-80.7377
11
109.02
21
-80.5557
0
LINE
8
BLACK
6
CONTINUOUS
10
109.02
20
-80.5557
11
108.982
21
-80.3625
0
LINE
8
BLACK
6
CONTINUOUS
10
108.982
20
-80.3625
11
108.982
21
-80.1655
0
LINE
8
BLACK
6
CONTINUOUS
10
108.982
20
-80.1655
11
109.02
21
-79.9723
0
LINE
8
BLACK
6
CONTINUOUS
10
109.02
20
-79.9723
11
109.096
21
-79.7903
0
LINE
8
BLACK
6
CONTINUOUS
10
109.096
20
-79.7903
11
109.205
21
-79.6265
0
LINE
8
BLACK
6
CONTINUOUS
10
109.205
20
-79.6265
11
109.345
21
-79.4872
0
LINE
8
BLACK
6
CONTINUOUS
10
109.345
20
-79.4872
11
109.508
21
-79.3778
0
LINE
8
BLACK
6
CONTINUOUS
10
109.508
20
-79.3778
11
109.69
21
-79.3024
0
LINE
8
BLACK
6
CONTINUOUS
10
109.69
20
-79.3024
11
109.884
21
-79.264
0
LINE
8
BLACK
6
CONTINUOUS
10
109.884
20
-79.264
11
110.08
21
-79.264
0
LINE
8
BLACK
6
CONTINUOUS
10
110.08
20
-79.264
11
110.274
21
-79.3024
0
LINE
8
BLACK
6
CONTINUOUS
10
87.61
20
-73.644
11
85.11
21
-73.644
0
LINE
8
BLACK
6
CONTINUOUS
10
85.11
20
-73.644
11
85.11
21
-71.644
0
LINE
8
BLACK
6
CONTINUOUS
10
85.11
20
-71.644
11
87.61
21
-71.644
0
LINE
8
BLACK
6
CONTINUOUS
10
87.61
20
-71.644
11
87.61
21
-73.644
0
LINE
8
BLACK
6
CONTINUOUS
10
132.822
20
-73.136
11
130.322
21
-73.136
0
LINE
8
BLACK
6
CONTINUOUS
10
130.322
20
-73.136
11
130.322
21
-71.136
0
LINE
8
BLACK
6
CONTINUOUS
10
130.322
20
-71.136
11
132.822
21
-71.136
0
LINE
8
BLACK
6
CONTINUOUS
10
132.822
20
-71.136
11
132.822
21
-73.136
0
LINE
8
BLACK
6
CONTINUOUS
10
126.727
20
-70.4454
11
126.953
21
-70.514
0
LINE
8
BLACK
6
CONTINUOUS
10
126.953
20
-70.514
11
127.162
21
-70.6254
0
LINE
8
BLACK
6
CONTINUOUS
10
127.162
20
-70.6254
11
127.345
21
-70.7754
0
LINE
8
BLACK
6
CONTINUOUS
10
127.345
20
-70.7754
11
127.495
21
-70.9581
0
LINE
8
BLACK
6
CONTINUOUS
10
127.495
20
-70.9581
11
127.606
21
-71.1666
0
LINE
8
BLACK
6
CONTINUOUS
10
127.606
20
-71.1666
11
127.675
21
-71.3928
0
LINE
8
BLACK
6
CONTINUOUS
10
127.675
20
-71.3928
11
127.698
21
-71.628
0
LINE
8
BLACK
6
CONTINUOUS
10
127.698
20
-71.628
11
127.675
21
-71.8632
0
LINE
8
BLACK
6
CONTINUOUS
10
127.675
20
-71.8632
11
127.606
21
-72.0894
0
LINE
8
BLACK
6
CONTINUOUS
10
127.606
20
-72.0894
11
127.495
21
-72.2979
0
LINE
8
BLACK
6
CONTINUOUS
10
127.495
20
-72.2979
11
127.345
21
-72.4806
0
LINE
8
BLACK
6
CONTINUOUS
10
127.345
20
-72.4806
11
127.162
21
-72.6306
0
LINE
8
BLACK
6
CONTINUOUS
10
127.162
20
-72.6306
11
126.953
21
-72.742
0
LINE
8
BLACK
6
CONTINUOUS
10
126.953
20
-72.742
11
126.727
21
-72.8106
0
LINE
8
BLACK
6
CONTINUOUS
10
126.727
20
-72.8106
11
126.551
21
-72.828
0
LINE
8
BLACK
6
CONTINUOUS
10
126.551
20
-72.828
11
126.433
21
-72.828
0
LINE
8
BLACK
6
CONTINUOUS
10
126.433
20
-72.828
11
126.257
21
-72.8106
0
LINE
8
BLACK
6
CONTINUOUS
10
126.257
20
-72.8106
11
126.031
21
-72.742
0
LINE
8
BLACK
6
CONTINUOUS
10
126.031
20
-72.742
11
125.822
21
-72.6306
0
LINE
8
BLACK
6
CONTINUOUS
10
125.822
20
-72.6306
11
125.639
21
-72.4806
0
LINE
8
BLACK
6
CONTINUOUS
10
125.639
20
-72.4806
11
125.489
21
-72.2979
0
LINE
8
BLACK
6
CONTINUOUS
10
125.489
20
-72.2979
11
125.378
21
-72.0894
0
LINE
8
BLACK
6
CONTINUOUS
10
125.378
20
-72.0894
11
125.309
21
-71.8632
0
LINE
8
BLACK
6
CONTINUOUS
10
125.309
20
-71.8632
11
125.286
21
-71.628
0
LINE
8
BLACK
6
CONTINUOUS
10
125.286
20
-71.628
11
125.309
21
-71.3928
0
LINE
8
BLACK
6
CONTINUOUS
10
125.309
20
-71.3928
11
125.378
21
-71.1666
0
LINE
8
BLACK
6
CONTINUOUS
10
125.378
20
-71.1666
11
125.489
21
-70.9581
0
LINE
8
BLACK
6
CONTINUOUS
10
125.489
20
-70.9581
11
125.639
21
-70.7754
0
LINE
8
BLACK
6
CONTINUOUS
10
125.639
20
-70.7754
11
125.822
21
-70.6254
0
LINE
8
BLACK
6
CONTINUOUS
10
125.822
20
-70.6254
11
126.031
21
-70.514
0
LINE
8
BLACK
6
CONTINUOUS
10
126.031
20
-70.514
11
126.257
21
-70.4454
0
LINE
8
BLACK
6
CONTINUOUS
10
126.257
20
-70.4454
11
126.433
21
-70.428
0
LINE
8
BLACK
6
CONTINUOUS
10
126.433
20
-70.428
11
126.551
21
-70.428
0
LINE
8
BLACK
6
CONTINUOUS
10
126.551
20
-70.428
11
126.727
21
-70.4454
0
LINE
8
BLACK
6
CONTINUOUS
10
112.452
20
-72.828
11
110.052
21
-72.828
0
LINE
8
BLACK
6
CONTINUOUS
10
110.052
20
-72.828
11
110.052
21
-70.428
0
LINE
8
BLACK
6
CONTINUOUS
10
110.052
20
-70.428
11
112.452
21
-70.428
0
LINE
8
BLACK
6
CONTINUOUS
10
112.452
20
-70.428
11
112.452
21
-72.828
0
LINE
8
BLACK
6
CONTINUOUS
10
106.358
20
-70.4384
11
106.584
21
-70.507
0
LINE
8
BLACK
6
CONTINUOUS
10
106.584
20
-70.507
11
106.793
21
-70.6184
0
LINE
8
BLACK
6
CONTINUOUS
10
106.793
20
-70.6184
11
106.976
21
-70.7684
0
LINE
8
BLACK
6
CONTINUOUS
10
106.976
20
-70.7684
11
107.126
21
-70.9511
0
LINE
8
BLACK
6
CONTINUOUS
10
107.126
20
-70.9511
11
107.237
21
-71.1596
0
LINE
8
BLACK
6
CONTINUOUS
10
107.237
20
-71.1596
11
107.306
21
-71.3858
0
LINE
8
BLACK
6
CONTINUOUS
10
107.306
20
-71.3858
11
107.329
21
-71.621
0
LINE
8
BLACK
6
CONTINUOUS
10
107.329
20
-71.621
11
107.306
21
-71.8562
0
LINE
8
BLACK
6
CONTINUOUS
10
107.306
20
-71.8562
11
107.237
21
-72.0824
0
LINE
8
BLACK
6
CONTINUOUS
10
107.237
20
-72.0824
11
107.126
21
-72.2909
0
LINE
8
BLACK
6
CONTINUOUS
10
107.126
20
-72.2909
11
106.976
21
-72.4736
0
LINE
8
BLACK
6
CONTINUOUS
10
106.976
20
-72.4736
11
106.793
21
-72.6236
0
LINE
8
BLACK
6
CONTINUOUS
10
106.793
20
-72.6236
11
106.584
21
-72.735
0
LINE
8
BLACK
6
CONTINUOUS
10
106.584
20
-72.735
11
106.358
21
-72.8036
0
LINE
8
BLACK
6
CONTINUOUS
10
106.358
20
-72.8036
11
106.182
21
-72.821
0
LINE
8
BLACK
6
CONTINUOUS
10
106.182
20
-72.821
11
106.064
21
-72.821
0
LINE
8
BLACK
6
CONTINUOUS
10
106.064
20
-72.821
11
105.888
21
-72.8036
0
LINE
8
BLACK
6
CONTINUOUS
10
105.888
20
-72.8036
11
105.662
21
-72.735
0
LINE
8
BLACK
6
CONTINUOUS
10
105.662
20
-72.735
11
105.453
21
-72.6236
0
LINE
8
BLACK
6
CONTINUOUS
10
105.453
20
-72.6236
11
105.27
21
-72.4736
0
LINE
8
BLACK
6
CONTINUOUS
10
105.27
20
-72.4736
11
105.12
21
-72.2909
0
LINE
8
BLACK
6
CONTINUOUS
10
105.12
20
-72.2909
11
105.009
21
-72.0824
0
LINE
8
BLACK
6
CONTINUOUS
10
105.009
20
-72.0824
11
104.94
21
-71.8562
0
LINE
8
BLACK
6
CONTINUOUS
10
104.94
20
-71.8562
11
104.917
21
-71.621
0
LINE
8
BLACK
6
CONTINUOUS
10
104.917
20
-71.621
11
104.94
21
-71.3858
0
LINE
8
BLACK
6
CONTINUOUS
10
104.94
20
-71.3858
11
105.009
21
-71.1596
0
LINE
8
BLACK
6
CONTINUOUS
10
105.009
20
-71.1596
11
105.12
21
-70.9511
0
LINE
8
BLACK
6
CONTINUOUS
10
105.12
20
-70.9511
11
105.27
21
-70.7684
0
LINE
8
BLACK
6
CONTINUOUS
10
105.27
20
-70.7684
11
105.453
21
-70.6184
0
LINE
8
BLACK
6
CONTINUOUS
10
105.453
20
-70.6184
11
105.662
21
-70.507
0
LINE
8
BLACK
6
CONTINUOUS
10
105.662
20
-70.507
11
105.888
21
-70.4384
0
LINE
8
BLACK
6
CONTINUOUS
10
105.888
20
-70.4384
11
106.064
21
-70.421
0
LINE
8
BLACK
6
CONTINUOUS
10
106.064
20
-70.421
11
106.182
21
-70.421
0
LINE
8
BLACK
6
CONTINUOUS
10
106.182
20
-70.421
11
106.358
21
-70.4384
0
LINE
8
BLACK
6
CONTINUOUS
10
92.083
20
-72.821
11
89.683
21
-72.821
0
LINE
8
BLACK
6
CONTINUOUS
10
89.683
20
-72.821
11
89.683
21
-70.421
0
LINE
8
BLACK
6
CONTINUOUS
10
89.683
20
-70.421
11
92.083
21
-70.421
0
LINE
8
BLACK
6
CONTINUOUS
10
92.083
20
-70.421
11
92.083
21
-72.821
0
LINE
8
BLACK
6
CONTINUOUS
10
87.61
20
-71.104
11
85.11
21
-71.104
0
LINE
8
BLACK
6
CONTINUOUS
10
85.11
20
-71.104
11
85.11
21
-69.104
0
LINE
8
BLACK
6
CONTINUOUS
10
85.11
20
-69.104
11
87.61
21
-69.104
0
LINE
8
BLACK
6
CONTINUOUS
10
87.61
20
-69.104
11
87.61
21
-71.104
0
LINE
8
BLACK
6
CONTINUOUS
10
132.822
20
-70.596
11
130.322
21
-70.596
0
LINE
8
BLACK
6
CONTINUOUS
10
130.322
20
-70.596
11
130.322
21
-68.596
0
LINE
8
BLACK
6
CONTINUOUS
10
130.322
20
-68.596
11
132.822
21
-68.596
0
LINE
8
BLACK
6
CONTINUOUS
10
132.822
20
-68.596
11
132.822
21
-70.596
0
LINE
8
BLACK
6
CONTINUOUS
10
87.61
20
-68.564
11
85.11
21
-68.564
0
LINE
8
BLACK
6
CONTINUOUS
10
85.11
20
-68.564
11
85.11
21
-66.564
0
LINE
8
BLACK
6
CONTINUOUS
10
85.11
20
-66.564
11
87.61
21
-66.564
0
LINE
8
BLACK
6
CONTINUOUS
10
87.61
20
-66.564
11
87.61
21
-68.564
0
LINE
8
BLACK
6
CONTINUOUS
10
132.822
20
-68.056
11
130.322
21
-68.056
0
LINE
8
BLACK
6
CONTINUOUS
10
130.322
20
-68.056
11
130.322
21
-66.056
0
LINE
8
BLACK
6
CONTINUOUS
10
130.322
20
-66.056
11
132.822
21
-66.056
0
LINE
8
BLACK
6
CONTINUOUS
10
132.822
20
-66.056
11
132.822
21
-68.056
0
LINE
8
BLACK
6
CONTINUOUS
10
87.61
20
-66.024
11
85.11
21
-66.024
0
LINE
8
BLACK
6
CONTINUOUS
10
85.11
20
-66.024
11
85.11
21
-64.024
0
LINE
8
BLACK
6
CONTINUOUS
10
85.11
20
-64.024
11
87.61
21
-64.024
0
LINE
8
BLACK
6
CONTINUOUS
10
87.61
20
-64.024
11
87.61
21
-66.024
0
LINE
8
BLACK
6
CONTINUOUS
10
92.083
20
-65.931
11
89.683
21
-65.931
0
LINE
8
BLACK
6
CONTINUOUS
10
89.683
20
-65.931
11
89.683
21
-63.531
0
LINE
8
BLACK
6
CONTINUOUS
10
89.683
20
-63.531
11
92.083
21
-63.531
0
LINE
8
BLACK
6
CONTINUOUS
10
92.083
20
-63.531
11
92.083
21
-65.931
0
LINE
8
BLACK
6
CONTINUOUS
10
106.358
20
-63.5484
11
106.584
21
-63.617
0
LINE
8
BLACK
6
CONTINUOUS
10
106.584
20
-63.617
11
106.793
21
-63.7284
0
LINE
8
BLACK
6
CONTINUOUS
10
106.793
20
-63.7284
11
106.976
21
-63.8784
0
LINE
8
BLACK
6
CONTINUOUS
10
106.976
20
-63.8784
11
107.126
21
-64.0611
0
LINE
8
BLACK
6
CONTINUOUS
10
107.126
20
-64.0611
11
107.237
21
-64.2696
0
LINE
8
BLACK
6
CONTINUOUS
10
107.237
20
-64.2696
11
107.306
21
-64.4958
0
LINE
8
BLACK
6
CONTINUOUS
10
107.306
20
-64.4958
11
107.329
21
-64.731
0
LINE
8
BLACK
6
CONTINUOUS
10
107.329
20
-64.731
11
107.306
21
-64.9662
0
LINE
8
BLACK
6
CONTINUOUS
10
107.306
20
-64.9662
11
107.237
21
-65.1924
0
LINE
8
BLACK
6
CONTINUOUS
10
107.237
20
-65.1924
11
107.126
21
-65.4009
0
LINE
8
BLACK
6
CONTINUOUS
10
107.126
20
-65.4009
11
106.976
21
-65.5836
0
LINE
8
BLACK
6
CONTINUOUS
10
106.976
20
-65.5836
11
106.793
21
-65.7336
0
LINE
8
BLACK
6
CONTINUOUS
10
106.793
20
-65.7336
11
106.584
21
-65.845
0
LINE
8
BLACK
6
CONTINUOUS
10
106.584
20
-65.845
11
106.358
21
-65.9136
0
LINE
8
BLACK
6
CONTINUOUS
10
106.358
20
-65.9136
11
106.182
21
-65.931
0
LINE
8
BLACK
6
CONTINUOUS
10
106.182
20
-65.931
11
106.064
21
-65.931
0
LINE
8
BLACK
6
CONTINUOUS
10
106.064
20
-65.931
11
105.888
21
-65.9136
0
LINE
8
BLACK
6
CONTINUOUS
10
105.888
20
-65.9136
11
105.662
21
-65.845
0
LINE
8
BLACK
6
CONTINUOUS
10
105.662
20
-65.845
11
105.453
21
-65.7336
0
LINE
8
BLACK
6
CONTINUOUS
10
105.453
20
-65.7336
11
105.27
21
-65.5836
0
LINE
8
BLACK
6
CONTINUOUS
10
105.27
20
-65.5836
11
105.12
21
-65.4009
0
LINE
8
BLACK
6
CONTINUOUS
10
105.12
20
-65.4009
11
105.009
21
-65.1924
0
LINE
8
BLACK
6
CONTINUOUS
10
105.009
20
-65.1924
11
104.94
21
-64.9662
0
LINE
8
BLACK
6
CONTINUOUS
10
104.94
20
-64.9662
11
104.917
21
-64.731
0
LINE
8
BLACK
6
CONTINUOUS
10
104.917
20
-64.731
11
104.94
21
-64.4958
0
LINE
8
BLACK
6
CONTINUOUS
10
104.94
20
-64.4958
11
105.009
21
-64.2696
0
LINE
8
BLACK
6
CONTINUOUS
10
105.009
20
-64.2696
11
105.12
21
-64.0611
0
LINE
8
BLACK
6
CONTINUOUS
10
105.12
20
-64.0611
11
105.27
21
-63.8784
0
LINE
8
BLACK
6
CONTINUOUS
10
105.27
20
-63.8784
11
105.453
21
-63.7284
0
LINE
8
BLACK
6
CONTINUOUS
10
105.453
20
-63.7284
11
105.662
21
-63.617
0
LINE
8
BLACK
6
CONTINUOUS
10
105.662
20
-63.617
11
105.888
21
-63.5484
0
LINE
8
BLACK
6
CONTINUOUS
10
105.888
20
-63.5484
11
106.064
21
-63.531
0
LINE
8
BLACK
6
CONTINUOUS
10
106.064
20
-63.531
11
106.182
21
-63.531
0
LINE
8
BLACK
6
CONTINUOUS
10
106.182
20
-63.531
11
106.358
21
-63.5484
0
LINE
8
BLACK
6
CONTINUOUS
10
112.543
20
-65.677
11
110.143
21
-65.677
0
LINE
8
BLACK
6
CONTINUOUS
10
110.143
20
-65.677
11
110.143
21
-63.277
0
LINE
8
BLACK
6
CONTINUOUS
10
110.143
20
-63.277
11
112.543
21
-63.277
0
LINE
8
BLACK
6
CONTINUOUS
10
112.543
20
-63.277
11
112.543
21
-65.677
0
LINE
8
BLACK
6
CONTINUOUS
10
126.818
20
-63.2944
11
127.044
21
-63.363
0
LINE
8
BLACK
6
CONTINUOUS
10
127.044
20
-63.363
11
127.253
21
-63.4744
0
LINE
8
BLACK
6
CONTINUOUS
10
127.253
20
-63.4744
11
127.436
21
-63.6244
0
LINE
8
BLACK
6
CONTINUOUS
10
127.436
20
-63.6244
11
127.586
21
-63.8071
0
LINE
8
BLACK
6
CONTINUOUS
10
127.586
20
-63.8071
11
127.697
21
-64.0156
0
LINE
8
BLACK
6
CONTINUOUS
10
127.697
20
-64.0156
11
127.766
21
-64.2418
0
LINE
8
BLACK
6
CONTINUOUS
10
127.766
20
-64.2418
11
127.789
21
-64.477
0
LINE
8
BLACK
6
CONTINUOUS
10
127.789
20
-64.477
11
127.766
21
-64.7122
0
LINE
8
BLACK
6
CONTINUOUS
10
127.766
20
-64.7122
11
127.697
21
-64.9384
0
LINE
8
BLACK
6
CONTINUOUS
10
127.697
20
-64.9384
11
127.586
21
-65.1469
0
LINE
8
BLACK
6
CONTINUOUS
10
127.586
20
-65.1469
11
127.436
21
-65.3296
0
LINE
8
BLACK
6
CONTINUOUS
10
127.436
20
-65.3296
11
127.253
21
-65.4796
0
LINE
8
BLACK
6
CONTINUOUS
10
127.253
20
-65.4796
11
127.044
21
-65.591
0
LINE
8
BLACK
6
CONTINUOUS
10
127.044
20
-65.591
11
126.818
21
-65.6596
0
LINE
8
BLACK
6
CONTINUOUS
10
126.818
20
-65.6596
11
126.642
21
-65.677
0
LINE
8
BLACK
6
CONTINUOUS
10
126.642
20
-65.677
11
126.524
21
-65.677
0
LINE
8
BLACK
6
CONTINUOUS
10
126.524
20
-65.677
11
126.348
21
-65.6596
0
LINE
8
BLACK
6
CONTINUOUS
10
126.348
20
-65.6596
11
126.122
21
-65.591
0
LINE
8
BLACK
6
CONTINUOUS
10
126.122
20
-65.591
11
125.913
21
-65.4796
0
LINE
8
BLACK
6
CONTINUOUS
10
125.913
20
-65.4796
11
125.73
21
-65.3296
0
LINE
8
BLACK
6
CONTINUOUS
10
125.73
20
-65.3296
11
125.58
21
-65.1469
0
LINE
8
BLACK
6
CONTINUOUS
10
125.58
20
-65.1469
11
125.469
21
-64.9384
0
LINE
8
BLACK
6
CONTINUOUS
10
125.469
20
-64.9384
11
125.4
21
-64.7122
0
LINE
8
BLACK
6
CONTINUOUS
10
125.4
20
-64.7122
11
125.377
21
-64.477
0
LINE
8
BLACK
6
CONTINUOUS
10
125.377
20
-64.477
11
125.4
21
-64.2418
0
LINE
8
BLACK
6
CONTINUOUS
10
125.4
20
-64.2418
11
125.469
21
-64.0156
0
LINE
8
BLACK
6
CONTINUOUS
10
125.469
20
-64.0156
11
125.58
21
-63.8071
0
LINE
8
BLACK
6
CONTINUOUS
10
125.58
20
-63.8071
11
125.73
21
-63.6244
0
LINE
8
BLACK
6
CONTINUOUS
10
125.73
20
-63.6244
11
125.913
21
-63.4744
0
LINE
8
BLACK
6
CONTINUOUS
10
125.913
20
-63.4744
11
126.122
21
-63.363
0
LINE
8
BLACK
6
CONTINUOUS
10
126.122
20
-63.363
11
126.348
21
-63.2944
0
LINE
8
BLACK
6
CONTINUOUS
10
126.348
20
-63.2944
11
126.524
21
-63.277
0
LINE
8
BLACK
6
CONTINUOUS
10
126.524
20
-63.277
11
126.642
21
-63.277
0
LINE
8
BLACK
6
CONTINUOUS
10
126.642
20
-63.277
11
126.818
21
-63.2944
0
LINE
8
BLACK
6
CONTINUOUS
10
132.822
20
-65.516
11
130.322
21
-65.516
0
LINE
8
BLACK
6
CONTINUOUS
10
130.322
20
-65.516
11
130.322
21
-63.516
0
LINE
8
BLACK
6
CONTINUOUS
10
130.322
20
-63.516
11
132.822
21
-63.516
0
LINE
8
BLACK
6
CONTINUOUS
10
132.822
20
-63.516
11
132.822
21
-65.516
0
LINE
8
BLACK
6
CONTINUOUS
10
87.61
20
-63.484
11
85.11
21
-63.484
0
LINE
8
BLACK
6
CONTINUOUS
10
85.11
20
-63.484
11
85.11
21
-61.484
0
LINE
8
BLACK
6
CONTINUOUS
10
85.11
20
-61.484
11
87.61
21
-61.484
0
LINE
8
BLACK
6
CONTINUOUS
10
87.61
20
-61.484
11
87.61
21
-63.484
0
LINE
8
BLACK
6
CONTINUOUS
10
132.822
20
-62.976
11
130.322
21
-62.976
0
LINE
8
BLACK
6
CONTINUOUS
10
130.322
20
-62.976
11
130.322
21
-60.976
0
LINE
8
BLACK
6
CONTINUOUS
10
130.322
20
-60.976
11
132.822
21
-60.976
0
LINE
8
BLACK
6
CONTINUOUS
10
132.822
20
-60.976
11
132.822
21
-62.976
0
LINE
8
BLACK
6
CONTINUOUS
10
87.61
20
-60.944
11
85.11
21
-60.944
0
LINE
8
BLACK
6
CONTINUOUS
10
85.11
20
-60.944
11
85.11
21
-58.944
0
LINE
8
BLACK
6
CONTINUOUS
10
85.11
20
-58.944
11
87.61
21
-58.944
0
LINE
8
BLACK
6
CONTINUOUS
10
87.61
20
-58.944
11
87.61
21
-60.944
0
LINE
8
BLACK
6
CONTINUOUS
10
132.822
20
-60.436
11
130.322
21
-60.436
0
LINE
8
BLACK
6
CONTINUOUS
10
130.322
20
-60.436
11
130.322
21
-58.436
0
LINE
8
BLACK
6
CONTINUOUS
10
130.322
20
-58.436
11
132.822
21
-58.436
0
LINE
8
BLACK
6
CONTINUOUS
10
132.822
20
-58.436
11
132.822
21
-60.436
0
LINE
8
BLACK
6
CONTINUOUS
10
122.974
20
-33.5824
11
123.156
21
-33.6578
0
LINE
8
BLACK
6
CONTINUOUS
10
123.156
20
-33.6578
11
123.319
21
-33.7672
0
LINE
8
BLACK
6
CONTINUOUS
10
123.319
20
-33.7672
11
123.459
21
-33.9065
0
LINE
8
BLACK
6
CONTINUOUS
10
123.459
20
-33.9065
11
123.568
21
-34.0703
0
LINE
8
BLACK
6
CONTINUOUS
10
123.568
20
-34.0703
11
123.644
21
-34.2523
0
LINE
8
BLACK
6
CONTINUOUS
10
123.644
20
-34.2523
11
123.682
21
-34.4455
0
LINE
8
BLACK
6
CONTINUOUS
10
123.682
20
-34.4455
11
123.682
21
-34.6425
0
LINE
8
BLACK
6
CONTINUOUS
10
123.682
20
-34.6425
11
123.644
21
-34.8357
0
LINE
8
BLACK
6
CONTINUOUS
10
123.644
20
-34.8357
11
123.568
21
-35.0177
0
LINE
8
BLACK
6
CONTINUOUS
10
123.568
20
-35.0177
11
123.459
21
-35.1815
0
LINE
8
BLACK
6
CONTINUOUS
10
123.459
20
-35.1815
11
123.319
21
-35.3208
0
LINE
8
BLACK
6
CONTINUOUS
10
123.319
20
-35.3208
11
123.182
21
-35.4126
0
LINE
8
BLACK
6
CONTINUOUS
10
123.182
20
-35.4126
11
123.182
21
-40.3854
0
LINE
8
BLACK
6
CONTINUOUS
10
123.182
20
-40.3854
11
123.184
21
-40.41
0
LINE
8
BLACK
6
CONTINUOUS
10
123.184
20
-40.41
11
123.182
21
-40.4346
0
LINE
8
BLACK
6
CONTINUOUS
10
123.182
20
-40.4346
11
123.175
21
-40.508
0
LINE
8
BLACK
6
CONTINUOUS
10
123.175
20
-40.508
11
123.146
21
-40.6023
0
LINE
8
BLACK
6
CONTINUOUS
10
123.146
20
-40.6023
11
123.1
21
-40.6891
0
LINE
8
BLACK
6
CONTINUOUS
10
123.1
20
-40.6891
11
123.037
21
-40.7653
0
LINE
8
BLACK
6
CONTINUOUS
10
123.037
20
-40.7653
11
123.018
21
-40.7809
0
LINE
8
BLACK
6
CONTINUOUS
10
123.018
20
-40.7809
11
122.244
21
-41.5551
0
LINE
8
BLACK
6
CONTINUOUS
10
122.244
20
-41.5551
11
122.244
21
-56.6227
0
LINE
8
BLACK
6
CONTINUOUS
10
122.244
20
-56.6227
11
122.256
21
-56.6349
0
LINE
8
BLACK
6
CONTINUOUS
10
122.256
20
-56.6349
11
122.275
21
-56.6505
0
LINE
8
BLACK
6
CONTINUOUS
10
122.275
20
-56.6505
11
122.338
21
-56.7267
0
LINE
8
BLACK
6
CONTINUOUS
10
122.338
20
-56.7267
11
122.384
21
-56.8135
0
LINE
8
BLACK
6
CONTINUOUS
10
122.384
20
-56.8135
11
122.392
21
-56.8384
0
LINE
8
BLACK
6
CONTINUOUS
10
122.392
20
-56.8384
11
122.413
21
-56.9078
0
LINE
8
BLACK
6
CONTINUOUS
10
122.413
20
-56.9078
11
122.422
21
-57.0058
0
LINE
8
BLACK
6
CONTINUOUS
10
122.422
20
-57.0058
11
122.42
21
-57.0303
0
LINE
8
BLACK
6
CONTINUOUS
10
122.42
20
-57.0303
11
122.42
21
-57.5514
0
LINE
8
BLACK
6
CONTINUOUS
10
122.42
20
-57.5514
11
122.557
21
-57.6432
0
LINE
8
BLACK
6
CONTINUOUS
10
122.557
20
-57.6432
11
122.697
21
-57.7825
0
LINE
8
BLACK
6
CONTINUOUS
10
122.697
20
-57.7825
11
122.806
21
-57.9463
0
LINE
8
BLACK
6
CONTINUOUS
10
122.806
20
-57.9463
11
122.882
21
-58.1283
0
LINE
8
BLACK
6
CONTINUOUS
10
122.882
20
-58.1283
11
122.92
21
-58.3215
0
LINE
8
BLACK
6
CONTINUOUS
10
122.92
20
-58.3215
11
122.92
21
-58.5185
0
LINE
8
BLACK
6
CONTINUOUS
10
122.92
20
-58.5185
11
122.882
21
-58.7117
0
LINE
8
BLACK
6
CONTINUOUS
10
122.882
20
-58.7117
11
122.806
21
-58.8937
0
LINE
8
BLACK
6
CONTINUOUS
10
122.806
20
-58.8937
11
122.697
21
-59.0575
0
LINE
8
BLACK
6
CONTINUOUS
10
122.697
20
-59.0575
11
122.557
21
-59.1968
0
LINE
8
BLACK
6
CONTINUOUS
10
122.557
20
-59.1968
11
122.394
21
-59.3062
0
LINE
8
BLACK
6
CONTINUOUS
10
122.394
20
-59.3062
11
122.212
21
-59.3816
0
LINE
8
BLACK
6
CONTINUOUS
10
122.212
20
-59.3816
11
122.018
21
-59.42
0
LINE
8
BLACK
6
CONTINUOUS
10
122.018
20
-59.42
11
121.822
21
-59.42
0
LINE
8
BLACK
6
CONTINUOUS
10
121.822
20
-59.42
11
121.628
21
-59.3816
0
LINE
8
BLACK
6
CONTINUOUS
10
121.628
20
-59.3816
11
121.446
21
-59.3062
0
LINE
8
BLACK
6
CONTINUOUS
10
121.446
20
-59.3062
11
121.283
21
-59.1968
0
LINE
8
BLACK
6
CONTINUOUS
10
121.283
20
-59.1968
11
121.143
21
-59.0575
0
LINE
8
BLACK
6
CONTINUOUS
10
121.143
20
-59.0575
11
121.034
21
-58.8937
0
LINE
8
BLACK
6
CONTINUOUS
10
121.034
20
-58.8937
11
120.958
21
-58.7117
0
LINE
8
BLACK
6
CONTINUOUS
10
120.958
20
-58.7117
11
120.92
21
-58.5185
0
LINE
8
BLACK
6
CONTINUOUS
10
120.92
20
-58.5185
11
120.92
21
-58.3215
0
LINE
8
BLACK
6
CONTINUOUS
10
120.92
20
-58.3215
11
120.958
21
-58.1283
0
LINE
8
BLACK
6
CONTINUOUS
10
120.958
20
-58.1283
11
121.034
21
-57.9463
0
LINE
8
BLACK
6
CONTINUOUS
10
121.034
20
-57.9463
11
121.143
21
-57.7825
0
LINE
8
BLACK
6
CONTINUOUS
10
121.143
20
-57.7825
11
121.283
21
-57.6432
0
LINE
8
BLACK
6
CONTINUOUS
10
121.283
20
-57.6432
11
121.42
21
-57.5514
0
LINE
8
BLACK
6
CONTINUOUS
10
121.42
20
-57.5514
11
121.42
21
-57.2129
0
LINE
8
BLACK
6
CONTINUOUS
10
121.42
20
-57.2129
11
121.408
21
-57.2007
0
LINE
8
BLACK
6
CONTINUOUS
10
121.408
20
-57.2007
11
121.389
21
-57.185
0
LINE
8
BLACK
6
CONTINUOUS
10
121.389
20
-57.185
11
121.326
21
-57.1089
0
LINE
8
BLACK
6
CONTINUOUS
10
121.326
20
-57.1089
11
121.28
21
-57.0221
0
LINE
8
BLACK
6
CONTINUOUS
10
121.28
20
-57.0221
11
121.251
21
-56.9278
0
LINE
8
BLACK
6
CONTINUOUS
10
121.251
20
-56.9278
11
121.242
21
-56.8298
0
LINE
8
BLACK
6
CONTINUOUS
10
121.242
20
-56.8298
11
121.244
21
-56.8052
0
LINE
8
BLACK
6
CONTINUOUS
10
121.244
20
-56.8052
11
121.244
21
-41.3726
0
LINE
8
BLACK
6
CONTINUOUS
10
121.244
20
-41.3726
11
121.242
21
-41.348
0
LINE
8
BLACK
6
CONTINUOUS
10
121.242
20
-41.348
11
121.251
21
-41.25
0
LINE
8
BLACK
6
CONTINUOUS
10
121.251
20
-41.25
11
121.26
21
-41.2214
0
LINE
8
BLACK
6
CONTINUOUS
10
121.26
20
-41.2214
11
121.28
21
-41.1557
0
LINE
8
BLACK
6
CONTINUOUS
10
121.28
20
-41.1557
11
121.326
21
-41.0689
0
LINE
8
BLACK
6
CONTINUOUS
10
121.326
20
-41.0689
11
121.389
21
-40.9927
0
LINE
8
BLACK
6
CONTINUOUS
10
121.389
20
-40.9927
11
121.408
21
-40.9771
0
LINE
8
BLACK
6
CONTINUOUS
10
121.408
20
-40.9771
11
122.182
21
-40.2029
0
LINE
8
BLACK
6
CONTINUOUS
10
122.182
20
-40.2029
11
122.182
21
-35.4126
0
LINE
8
BLACK
6
CONTINUOUS
10
122.182
20
-35.4126
11
122.045
21
-35.3208
0
LINE
8
BLACK
6
CONTINUOUS
10
122.045
20
-35.3208
11
121.905
21
-35.1815
0
LINE
8
BLACK
6
CONTINUOUS
10
121.905
20
-35.1815
11
121.796
21
-35.0177
0
LINE
8
BLACK
6
CONTINUOUS
10
121.796
20
-35.0177
11
121.72
21
-34.8357
0
LINE
8
BLACK
6
CONTINUOUS
10
121.72
20
-34.8357
11
121.682
21
-34.6425
0
LINE
8
BLACK
6
CONTINUOUS
10
121.682
20
-34.6425
11
121.682
21
-34.4455
0
LINE
8
BLACK
6
CONTINUOUS
10
121.682
20
-34.4455
11
121.72
21
-34.2523
0
LINE
8
BLACK
6
CONTINUOUS
10
121.72
20
-34.2523
11
121.796
21
-34.0703
0
LINE
8
BLACK
6
CONTINUOUS
10
121.796
20
-34.0703
11
121.905
21
-33.9065
0
LINE
8
BLACK
6
CONTINUOUS
10
121.905
20
-33.9065
11
122.045
21
-33.7672
0
LINE
8
BLACK
6
CONTINUOUS
10
122.045
20
-33.7672
11
122.208
21
-33.6578
0
LINE
8
BLACK
6
CONTINUOUS
10
122.208
20
-33.6578
11
122.39
21
-33.5824
0
LINE
8
BLACK
6
CONTINUOUS
10
122.39
20
-33.5824
11
122.584
21
-33.544
0
LINE
8
BLACK
6
CONTINUOUS
10
122.584
20
-33.544
11
122.78
21
-33.544
0
LINE
8
BLACK
6
CONTINUOUS
10
122.78
20
-33.544
11
122.974
21
-33.5824
0
LINE
8
BLACK
6
CONTINUOUS
10
92.083
20
-59.041
11
89.683
21
-59.041
0
LINE
8
BLACK
6
CONTINUOUS
10
89.683
20
-59.041
11
89.683
21
-56.641
0
LINE
8
BLACK
6
CONTINUOUS
10
89.683
20
-56.641
11
92.083
21
-56.641
0
LINE
8
BLACK
6
CONTINUOUS
10
92.083
20
-56.641
11
92.083
21
-59.041
0
LINE
8
BLACK
6
CONTINUOUS
10
106.358
20
-56.6584
11
106.584
21
-56.727
0
LINE
8
BLACK
6
CONTINUOUS
10
106.584
20
-56.727
11
106.793
21
-56.8384
0
LINE
8
BLACK
6
CONTINUOUS
10
106.793
20
-56.8384
11
106.976
21
-56.9884
0
LINE
8
BLACK
6
CONTINUOUS
10
106.976
20
-56.9884
11
107.126
21
-57.1711
0
LINE
8
BLACK
6
CONTINUOUS
10
107.126
20
-57.1711
11
107.237
21
-57.3796
0
LINE
8
BLACK
6
CONTINUOUS
10
107.237
20
-57.3796
11
107.306
21
-57.6058
0
LINE
8
BLACK
6
CONTINUOUS
10
107.306
20
-57.6058
11
107.329
21
-57.841
0
LINE
8
BLACK
6
CONTINUOUS
10
107.329
20
-57.841
11
107.306
21
-58.0762
0
LINE
8
BLACK
6
CONTINUOUS
10
107.306
20
-58.0762
11
107.237
21
-58.3024
0
LINE
8
BLACK
6
CONTINUOUS
10
107.237
20
-58.3024
11
107.126
21
-58.5109
0
LINE
8
BLACK
6
CONTINUOUS
10
107.126
20
-58.5109
11
106.976
21
-58.6936
0
LINE
8
BLACK
6
CONTINUOUS
10
106.976
20
-58.6936
11
106.793
21
-58.8436
0
LINE
8
BLACK
6
CONTINUOUS
10
106.793
20
-58.8436
11
106.584
21
-58.955
0
LINE
8
BLACK
6
CONTINUOUS
10
106.584
20
-58.955
11
106.358
21
-59.0236
0
LINE
8
BLACK
6
CONTINUOUS
10
106.358
20
-59.0236
11
106.182
21
-59.041
0
LINE
8
BLACK
6
CONTINUOUS
10
106.182
20
-59.041
11
106.064
21
-59.041
0
LINE
8
BLACK
6
CONTINUOUS
10
106.064
20
-59.041
11
105.888
21
-59.0236
0
LINE
8
BLACK
6
CONTINUOUS
10
105.888
20
-59.0236
11
105.662
21
-58.955
0
LINE
8
BLACK
6
CONTINUOUS
10
105.662
20
-58.955
11
105.453
21
-58.8436
0
LINE
8
BLACK
6
CONTINUOUS
10
105.453
20
-58.8436
11
105.27
21
-58.6936
0
LINE
8
BLACK
6
CONTINUOUS
10
105.27
20
-58.6936
11
105.12
21
-58.5109
0
LINE
8
BLACK
6
CONTINUOUS
10
105.12
20
-58.5109
11
105.009
21
-58.3024
0
LINE
8
BLACK
6
CONTINUOUS
10
105.009
20
-58.3024
11
104.94
21
-58.0762
0
LINE
8
BLACK
6
CONTINUOUS
10
104.94
20
-58.0762
11
104.917
21
-57.841
0
LINE
8
BLACK
6
CONTINUOUS
10
104.917
20
-57.841
11
104.94
21
-57.6058
0
LINE
8
BLACK
6
CONTINUOUS
10
104.94
20
-57.6058
11
105.009
21
-57.3796
0
LINE
8
BLACK
6
CONTINUOUS
10
105.009
20
-57.3796
11
105.12
21
-57.1711
0
LINE
8
BLACK
6
CONTINUOUS
10
105.12
20
-57.1711
11
105.27
21
-56.9884
0
LINE
8
BLACK
6
CONTINUOUS
10
105.27
20
-56.9884
11
105.453
21
-56.8384
0
LINE
8
BLACK
6
CONTINUOUS
10
105.453
20
-56.8384
11
105.662
21
-56.727
0
LINE
8
BLACK
6
CONTINUOUS
10
105.662
20
-56.727
11
105.888
21
-56.6584
0
LINE
8
BLACK
6
CONTINUOUS
10
105.888
20
-56.6584
11
106.064
21
-56.641
0
LINE
8
BLACK
6
CONTINUOUS
10
106.064
20
-56.641
11
106.182
21
-56.641
0
LINE
8
BLACK
6
CONTINUOUS
10
106.182
20
-56.641
11
106.358
21
-56.6584
0
LINE
8
BLACK
6
CONTINUOUS
10
116.443
20
-48.328
11
116.67
21
-48.4223
0
LINE
8
BLACK
6
CONTINUOUS
10
116.67
20
-48.4223
11
116.875
21
-48.5591
0
LINE
8
BLACK
6
CONTINUOUS
10
116.875
20
-48.5591
11
117.049
21
-48.7332
0
LINE
8
BLACK
6
CONTINUOUS
10
117.049
20
-48.7332
11
117.186
21
-48.9379
0
LINE
8
BLACK
6
CONTINUOUS
10
117.186
20
-48.9379
11
117.28
21
-49.1654
0
LINE
8
BLACK
6
CONTINUOUS
10
117.28
20
-49.1654
11
117.328
21
-49.4069
0
LINE
8
BLACK
6
CONTINUOUS
10
117.328
20
-49.4069
11
117.328
21
-49.6531
0
LINE
8
BLACK
6
CONTINUOUS
10
117.328
20
-49.6531
11
117.28
21
-49.8946
0
LINE
8
BLACK
6
CONTINUOUS
10
117.28
20
-49.8946
11
117.186
21
-50.1221
0
LINE
8
BLACK
6
CONTINUOUS
10
117.186
20
-50.1221
11
117.049
21
-50.3268
0
LINE
8
BLACK
6
CONTINUOUS
10
117.049
20
-50.3268
11
116.875
21
-50.5009
0
LINE
8
BLACK
6
CONTINUOUS
10
116.875
20
-50.5009
11
116.67
21
-50.6377
0
LINE
8
BLACK
6
CONTINUOUS
10
116.67
20
-50.6377
11
116.578
21
-50.6759
0
LINE
8
BLACK
6
CONTINUOUS
10
116.578
20
-50.6759
11
116.578
21
-56.4356
0
LINE
8
BLACK
6
CONTINUOUS
10
116.578
20
-56.4356
11
116.717
21
-56.408
0
LINE
8
BLACK
6
CONTINUOUS
10
116.717
20
-56.408
11
116.963
21
-56.408
0
LINE
8
BLACK
6
CONTINUOUS
10
116.963
20
-56.408
11
117.205
21
-56.456
0
LINE
8
BLACK
6
CONTINUOUS
10
117.205
20
-56.456
11
117.432
21
-56.5503
0
LINE
8
BLACK
6
CONTINUOUS
10
117.432
20
-56.5503
11
117.637
21
-56.6871
0
LINE
8
BLACK
6
CONTINUOUS
10
117.637
20
-56.6871
11
117.811
21
-56.8612
0
LINE
8
BLACK
6
CONTINUOUS
10
117.811
20
-56.8612
11
117.948
21
-57.0659
0
LINE
8
BLACK
6
CONTINUOUS
10
117.948
20
-57.0659
11
118.042
21
-57.2934
0
LINE
8
BLACK
6
CONTINUOUS
10
118.042
20
-57.2934
11
118.09
21
-57.5349
0
LINE
8
BLACK
6
CONTINUOUS
10
118.09
20
-57.5349
11
118.09
21
-57.7811
0
LINE
8
BLACK
6
CONTINUOUS
10
118.09
20
-57.7811
11
118.042
21
-58.0226
0
LINE
8
BLACK
6
CONTINUOUS
10
118.042
20
-58.0226
11
117.948
21
-58.2501
0
LINE
8
BLACK
6
CONTINUOUS
10
117.948
20
-58.2501
11
117.811
21
-58.4548
0
LINE
8
BLACK
6
CONTINUOUS
10
117.811
20
-58.4548
11
117.637
21
-58.6289
0
LINE
8
BLACK
6
CONTINUOUS
10
117.637
20
-58.6289
11
117.432
21
-58.7657
0
LINE
8
BLACK
6
CONTINUOUS
10
117.432
20
-58.7657
11
117.205
21
-58.86
0
LINE
8
BLACK
6
CONTINUOUS
10
117.205
20
-58.86
11
116.963
21
-58.908
0
LINE
8
BLACK
6
CONTINUOUS
10
116.963
20
-58.908
11
116.717
21
-58.908
0
LINE
8
BLACK
6
CONTINUOUS
10
116.717
20
-58.908
11
116.475
21
-58.86
0
LINE
8
BLACK
6
CONTINUOUS
10
116.475
20
-58.86
11
116.248
21
-58.7657
0
LINE
8
BLACK
6
CONTINUOUS
10
116.248
20
-58.7657
11
116.043
21
-58.6289
0
LINE
8
BLACK
6
CONTINUOUS
10
116.043
20
-58.6289
11
115.869
21
-58.4548
0
LINE
8
BLACK
6
CONTINUOUS
10
115.869
20
-58.4548
11
115.732
21
-58.2501
0
LINE
8
BLACK
6
CONTINUOUS
10
115.732
20
-58.2501
11
115.638
21
-58.0226
0
LINE
8
BLACK
6
CONTINUOUS
10
115.638
20
-58.0226
11
115.59
21
-57.7811
0
LINE
8
BLACK
6
CONTINUOUS
10
115.59
20
-57.7811
11
115.59
21
-57.5349
0
LINE
8
BLACK
6
CONTINUOUS
10
115.59
20
-57.5349
11
115.638
21
-57.2934
0
LINE
8
BLACK
6
CONTINUOUS
10
115.638
20
-57.2934
11
115.678
21
-57.1968
0
LINE
8
BLACK
6
CONTINUOUS
10
115.678
20
-57.1968
11
115.66
21
-57.1751
0
LINE
8
BLACK
6
CONTINUOUS
10
115.66
20
-57.1751
11
115.614
21
-57.0883
0
LINE
8
BLACK
6
CONTINUOUS
10
115.614
20
-57.0883
11
115.607
21
-57.0659
0
LINE
8
BLACK
6
CONTINUOUS
10
115.607
20
-57.0659
11
115.585
21
-56.994
0
LINE
8
BLACK
6
CONTINUOUS
10
115.585
20
-56.994
11
115.576
21
-56.896
0
LINE
8
BLACK
6
CONTINUOUS
10
115.576
20
-56.896
11
115.578
21
-56.8714
0
LINE
8
BLACK
6
CONTINUOUS
10
115.578
20
-56.8714
11
115.578
21
-50.6759
0
LINE
8
BLACK
6
CONTINUOUS
10
115.578
20
-50.6759
11
115.486
21
-50.6377
0
LINE
8
BLACK
6
CONTINUOUS
10
115.486
20
-50.6377
11
115.281
21
-50.5009
0
LINE
8
BLACK
6
CONTINUOUS
10
115.281
20
-50.5009
11
115.107
21
-50.3268
0
LINE
8
BLACK
6
CONTINUOUS
10
115.107
20
-50.3268
11
114.97
21
-50.1221
0
LINE
8
BLACK
6
CONTINUOUS
10
114.97
20
-50.1221
11
114.876
21
-49.8946
0
LINE
8
BLACK
6
CONTINUOUS
10
114.876
20
-49.8946
11
114.828
21
-49.6531
0
LINE
8
BLACK
6
CONTINUOUS
10
114.828
20
-49.6531
11
114.828
21
-49.4069
0
LINE
8
BLACK
6
CONTINUOUS
10
114.828
20
-49.4069
11
114.876
21
-49.1654
0
LINE
8
BLACK
6
CONTINUOUS
10
114.876
20
-49.1654
11
114.97
21
-48.9379
0
LINE
8
BLACK
6
CONTINUOUS
10
114.97
20
-48.9379
11
115.107
21
-48.7332
0
LINE
8
BLACK
6
CONTINUOUS
10
115.107
20
-48.7332
11
115.281
21
-48.5591
0
LINE
8
BLACK
6
CONTINUOUS
10
115.281
20
-48.5591
11
115.486
21
-48.4223
0
LINE
8
BLACK
6
CONTINUOUS
10
115.486
20
-48.4223
11
115.713
21
-48.328
0
LINE
8
BLACK
6
CONTINUOUS
10
115.713
20
-48.328
11
115.955
21
-48.28
0
LINE
8
BLACK
6
CONTINUOUS
10
115.955
20
-48.28
11
116.201
21
-48.28
0
LINE
8
BLACK
6
CONTINUOUS
10
116.201
20
-48.28
11
116.443
21
-48.328
0
LINE
8
BLACK
6
CONTINUOUS
10
112.543
20
-58.787
11
110.143
21
-58.787
0
LINE
8
BLACK
6
CONTINUOUS
10
110.143
20
-58.787
11
110.143
21
-56.387
0
LINE
8
BLACK
6
CONTINUOUS
10
110.143
20
-56.387
11
112.543
21
-56.387
0
LINE
8
BLACK
6
CONTINUOUS
10
112.543
20
-56.387
11
112.543
21
-58.787
0
LINE
8
BLACK
6
CONTINUOUS
10
126.818
20
-56.4044
11
127.044
21
-56.473
0
LINE
8
BLACK
6
CONTINUOUS
10
127.044
20
-56.473
11
127.253
21
-56.5844
0
LINE
8
BLACK
6
CONTINUOUS
10
127.253
20
-56.5844
11
127.436
21
-56.7344
0
LINE
8
BLACK
6
CONTINUOUS
10
127.436
20
-56.7344
11
127.586
21
-56.9171
0
LINE
8
BLACK
6
CONTINUOUS
10
127.586
20
-56.9171
11
127.697
21
-57.1256
0
LINE
8
BLACK
6
CONTINUOUS
10
127.697
20
-57.1256
11
127.766
21
-57.3518
0
LINE
8
BLACK
6
CONTINUOUS
10
127.766
20
-57.3518
11
127.789
21
-57.587
0
LINE
8
BLACK
6
CONTINUOUS
10
127.789
20
-57.587
11
127.766
21
-57.8222
0
LINE
8
BLACK
6
CONTINUOUS
10
127.766
20
-57.8222
11
127.697
21
-58.0484
0
LINE
8
BLACK
6
CONTINUOUS
10
127.697
20
-58.0484
11
127.586
21
-58.2569
0
LINE
8
BLACK
6
CONTINUOUS
10
127.586
20
-58.2569
11
127.436
21
-58.4396
0
LINE
8
BLACK
6
CONTINUOUS
10
127.436
20
-58.4396
11
127.253
21
-58.5896
0
LINE
8
BLACK
6
CONTINUOUS
10
127.253
20
-58.5896
11
127.044
21
-58.701
0
LINE
8
BLACK
6
CONTINUOUS
10
127.044
20
-58.701
11
126.818
21
-58.7696
0
LINE
8
BLACK
6
CONTINUOUS
10
126.818
20
-58.7696
11
126.642
21
-58.787
0
LINE
8
BLACK
6
CONTINUOUS
10
126.642
20
-58.787
11
126.524
21
-58.787
0
LINE
8
BLACK
6
CONTINUOUS
10
126.524
20
-58.787
11
126.348
21
-58.7696
0
LINE
8
BLACK
6
CONTINUOUS
10
126.348
20
-58.7696
11
126.122
21
-58.701
0
LINE
8
BLACK
6
CONTINUOUS
10
126.122
20
-58.701
11
125.913
21
-58.5896
0
LINE
8
BLACK
6
CONTINUOUS
10
125.913
20
-58.5896
11
125.73
21
-58.4396
0
LINE
8
BLACK
6
CONTINUOUS
10
125.73
20
-58.4396
11
125.58
21
-58.2569
0
LINE
8
BLACK
6
CONTINUOUS
10
125.58
20
-58.2569
11
125.469
21
-58.0484
0
LINE
8
BLACK
6
CONTINUOUS
10
125.469
20
-58.0484
11
125.4
21
-57.8222
0
LINE
8
BLACK
6
CONTINUOUS
10
125.4
20
-57.8222
11
125.377
21
-57.587
0
LINE
8
BLACK
6
CONTINUOUS
10
125.377
20
-57.587
11
125.4
21
-57.3518
0
LINE
8
BLACK
6
CONTINUOUS
10
125.4
20
-57.3518
11
125.469
21
-57.1256
0
LINE
8
BLACK
6
CONTINUOUS
10
125.469
20
-57.1256
11
125.58
21
-56.9171
0
LINE
8
BLACK
6
CONTINUOUS
10
125.58
20
-56.9171
11
125.73
21
-56.7344
0
LINE
8
BLACK
6
CONTINUOUS
10
125.73
20
-56.7344
11
125.913
21
-56.5844
0
LINE
8
BLACK
6
CONTINUOUS
10
125.913
20
-56.5844
11
126.122
21
-56.473
0
LINE
8
BLACK
6
CONTINUOUS
10
126.122
20
-56.473
11
126.348
21
-56.4044
0
LINE
8
BLACK
6
CONTINUOUS
10
126.348
20
-56.4044
11
126.524
21
-56.387
0
LINE
8
BLACK
6
CONTINUOUS
10
126.524
20
-56.387
11
126.642
21
-56.387
0
LINE
8
BLACK
6
CONTINUOUS
10
126.642
20
-56.387
11
126.818
21
-56.4044
0
LINE
8
BLACK
6
CONTINUOUS
10
123.99
20
-40.9484
11
124.172
21
-41.0238
0
LINE
8
BLACK
6
CONTINUOUS
10
124.172
20
-41.0238
11
124.335
21
-41.1332
0
LINE
8
BLACK
6
CONTINUOUS
10
124.335
20
-41.1332
11
124.475
21
-41.2725
0
LINE
8
BLACK
6
CONTINUOUS
10
124.475
20
-41.2725
11
124.584
21
-41.4363
0
LINE
8
BLACK
6
CONTINUOUS
10
124.584
20
-41.4363
11
124.66
21
-41.6183
0
LINE
8
BLACK
6
CONTINUOUS
10
124.66
20
-41.6183
11
124.698
21
-41.8115
0
LINE
8
BLACK
6
CONTINUOUS
10
124.698
20
-41.8115
11
124.698
21
-42.0085
0
LINE
8
BLACK
6
CONTINUOUS
10
124.698
20
-42.0085
11
124.66
21
-42.2017
0
LINE
8
BLACK
6
CONTINUOUS
10
124.66
20
-42.2017
11
124.584
21
-42.3837
0
LINE
8
BLACK
6
CONTINUOUS
10
124.584
20
-42.3837
11
124.475
21
-42.5475
0
LINE
8
BLACK
6
CONTINUOUS
10
124.475
20
-42.5475
11
124.335
21
-42.6868
0
LINE
8
BLACK
6
CONTINUOUS
10
124.335
20
-42.6868
11
124.198
21
-42.7786
0
LINE
8
BLACK
6
CONTINUOUS
10
124.198
20
-42.7786
11
124.198
21
-53.4418
0
LINE
8
BLACK
6
CONTINUOUS
10
124.198
20
-53.4418
11
124.221
21
-53.4645
0
LINE
8
BLACK
6
CONTINUOUS
10
124.221
20
-53.4645
11
124.33
21
-53.6283
0
LINE
8
BLACK
6
CONTINUOUS
10
124.33
20
-53.6283
11
124.406
21
-53.8103
0
LINE
8
BLACK
6
CONTINUOUS
10
124.406
20
-53.8103
11
124.444
21
-54.0035
0
LINE
8
BLACK
6
CONTINUOUS
10
124.444
20
-54.0035
11
124.444
21
-54.2005
0
LINE
8
BLACK
6
CONTINUOUS
10
124.444
20
-54.2005
11
124.406
21
-54.3937
0
LINE
8
BLACK
6
CONTINUOUS
10
124.406
20
-54.3937
11
124.33
21
-54.5757
0
LINE
8
BLACK
6
CONTINUOUS
10
124.33
20
-54.5757
11
124.221
21
-54.7395
0
LINE
8
BLACK
6
CONTINUOUS
10
124.221
20
-54.7395
11
124.081
21
-54.8788
0
LINE
8
BLACK
6
CONTINUOUS
10
124.081
20
-54.8788
11
123.918
21
-54.9882
0
LINE
8
BLACK
6
CONTINUOUS
10
123.918
20
-54.9882
11
123.736
21
-55.0636
0
LINE
8
BLACK
6
CONTINUOUS
10
123.736
20
-55.0636
11
123.542
21
-55.102
0
LINE
8
BLACK
6
CONTINUOUS
10
123.542
20
-55.102
11
123.346
21
-55.102
0
LINE
8
BLACK
6
CONTINUOUS
10
123.346
20
-55.102
11
123.152
21
-55.0636
0
LINE
8
BLACK
6
CONTINUOUS
10
123.152
20
-55.0636
11
122.97
21
-54.9882
0
LINE
8
BLACK
6
CONTINUOUS
10
122.97
20
-54.9882
11
122.807
21
-54.8788
0
LINE
8
BLACK
6
CONTINUOUS
10
122.807
20
-54.8788
11
122.667
21
-54.7395
0
LINE
8
BLACK
6
CONTINUOUS
10
122.667
20
-54.7395
11
122.558
21
-54.5757
0
LINE
8
BLACK
6
CONTINUOUS
10
122.558
20
-54.5757
11
122.482
21
-54.3937
0
LINE
8
BLACK
6
CONTINUOUS
10
122.482
20
-54.3937
11
122.444
21
-54.2005
0
LINE
8
BLACK
6
CONTINUOUS
10
122.444
20
-54.2005
11
122.444
21
-54.0035
0
LINE
8
BLACK
6
CONTINUOUS
10
122.444
20
-54.0035
11
122.482
21
-53.8103
0
LINE
8
BLACK
6
CONTINUOUS
10
122.482
20
-53.8103
11
122.558
21
-53.6283
0
LINE
8
BLACK
6
CONTINUOUS
10
122.558
20
-53.6283
11
122.667
21
-53.4645
0
LINE
8
BLACK
6
CONTINUOUS
10
122.667
20
-53.4645
11
122.807
21
-53.3252
0
LINE
8
BLACK
6
CONTINUOUS
10
122.807
20
-53.3252
11
122.97
21
-53.2158
0
LINE
8
BLACK
6
CONTINUOUS
10
122.97
20
-53.2158
11
123.152
21
-53.1404
0
LINE
8
BLACK
6
CONTINUOUS
10
123.152
20
-53.1404
11
123.198
21
-53.1313
0
LINE
8
BLACK
6
CONTINUOUS
10
123.198
20
-53.1313
11
123.198
21
-42.7786
0
LINE
8
BLACK
6
CONTINUOUS
10
123.198
20
-42.7786
11
123.061
21
-42.6868
0
LINE
8
BLACK
6
CONTINUOUS
10
123.061
20
-42.6868
11
122.921
21
-42.5475
0
LINE
8
BLACK
6
CONTINUOUS
10
122.921
20
-42.5475
11
122.812
21
-42.3837
0
LINE
8
BLACK
6
CONTINUOUS
10
122.812
20
-42.3837
11
122.736
21
-42.2017
0
LINE
8
BLACK
6
CONTINUOUS
10
122.736
20
-42.2017
11
122.698
21
-42.0085
0
LINE
8
BLACK
6
CONTINUOUS
10
122.698
20
-42.0085
11
122.698
21
-41.8115
0
LINE
8
BLACK
6
CONTINUOUS
10
122.698
20
-41.8115
11
122.736
21
-41.6183
0
LINE
8
BLACK
6
CONTINUOUS
10
122.736
20
-41.6183
11
122.812
21
-41.4363
0
LINE
8
BLACK
6
CONTINUOUS
10
122.812
20
-41.4363
11
122.921
21
-41.2725
0
LINE
8
BLACK
6
CONTINUOUS
10
122.921
20
-41.2725
11
123.061
21
-41.1332
0
LINE
8
BLACK
6
CONTINUOUS
10
123.061
20
-41.1332
11
123.224
21
-41.0238
0
LINE
8
BLACK
6
CONTINUOUS
10
123.224
20
-41.0238
11
123.406
21
-40.9484
0
LINE
8
BLACK
6
CONTINUOUS
10
123.406
20
-40.9484
11
123.6
21
-40.91
0
LINE
8
BLACK
6
CONTINUOUS
10
123.6
20
-40.91
11
123.796
21
-40.91
0
LINE
8
BLACK
6
CONTINUOUS
10
123.796
20
-40.91
11
123.99
21
-40.9484
0
LINE
8
BLACK
6
CONTINUOUS
10
112.543
20
-51.897
11
110.143
21
-51.897
0
LINE
8
BLACK
6
CONTINUOUS
10
110.143
20
-51.897
11
110.143
21
-49.497
0
LINE
8
BLACK
6
CONTINUOUS
10
110.143
20
-49.497
11
112.543
21
-49.497
0
LINE
8
BLACK
6
CONTINUOUS
10
112.543
20
-49.497
11
112.543
21
-51.897
0
LINE
8
BLACK
6
CONTINUOUS
10
126.818
20
-49.5144
11
127.044
21
-49.583
0
LINE
8
BLACK
6
CONTINUOUS
10
127.044
20
-49.583
11
127.253
21
-49.6944
0
LINE
8
BLACK
6
CONTINUOUS
10
127.253
20
-49.6944
11
127.436
21
-49.8444
0
LINE
8
BLACK
6
CONTINUOUS
10
127.436
20
-49.8444
11
127.586
21
-50.0271
0
LINE
8
BLACK
6
CONTINUOUS
10
127.586
20
-50.0271
11
127.697
21
-50.2356
0
LINE
8
BLACK
6
CONTINUOUS
10
127.697
20
-50.2356
11
127.766
21
-50.4618
0
LINE
8
BLACK
6
CONTINUOUS
10
127.766
20
-50.4618
11
127.789
21
-50.697
0
LINE
8
BLACK
6
CONTINUOUS
10
127.789
20
-50.697
11
127.766
21
-50.9322
0
LINE
8
BLACK
6
CONTINUOUS
10
127.766
20
-50.9322
11
127.697
21
-51.1584
0
LINE
8
BLACK
6
CONTINUOUS
10
127.697
20
-51.1584
11
127.586
21
-51.3669
0
LINE
8
BLACK
6
CONTINUOUS
10
127.586
20
-51.3669
11
127.436
21
-51.5496
0
LINE
8
BLACK
6
CONTINUOUS
10
127.436
20
-51.5496
11
127.253
21
-51.6996
0
LINE
8
BLACK
6
CONTINUOUS
10
127.253
20
-51.6996
11
127.044
21
-51.811
0
LINE
8
BLACK
6
CONTINUOUS
10
127.044
20
-51.811
11
126.818
21
-51.8796
0
LINE
8
BLACK
6
CONTINUOUS
10
126.818
20
-51.8796
11
126.642
21
-51.897
0
LINE
8
BLACK
6
CONTINUOUS
10
126.642
20
-51.897
11
126.524
21
-51.897
0
LINE
8
BLACK
6
CONTINUOUS
10
126.524
20
-51.897
11
126.348
21
-51.8796
0
LINE
8
BLACK
6
CONTINUOUS
10
126.348
20
-51.8796
11
126.122
21
-51.811
0
LINE
8
BLACK
6
CONTINUOUS
10
126.122
20
-51.811
11
125.913
21
-51.6996
0
LINE
8
BLACK
6
CONTINUOUS
10
125.913
20
-51.6996
11
125.73
21
-51.5496
0
LINE
8
BLACK
6
CONTINUOUS
10
125.73
20
-51.5496
11
125.58
21
-51.3669
0
LINE
8
BLACK
6
CONTINUOUS
10
125.58
20
-51.3669
11
125.469
21
-51.1584
0
LINE
8
BLACK
6
CONTINUOUS
10
125.469
20
-51.1584
11
125.4
21
-50.9322
0
LINE
8
BLACK
6
CONTINUOUS
10
125.4
20
-50.9322
11
125.377
21
-50.697
0
LINE
8
BLACK
6
CONTINUOUS
10
125.377
20
-50.697
11
125.4
21
-50.4618
0
LINE
8
BLACK
6
CONTINUOUS
10
125.4
20
-50.4618
11
125.469
21
-50.2356
0
LINE
8
BLACK
6
CONTINUOUS
10
125.469
20
-50.2356
11
125.58
21
-50.0271
0
LINE
8
BLACK
6
CONTINUOUS
10
125.58
20
-50.0271
11
125.73
21
-49.8444
0
LINE
8
BLACK
6
CONTINUOUS
10
125.73
20
-49.8444
11
125.913
21
-49.6944
0
LINE
8
BLACK
6
CONTINUOUS
10
125.913
20
-49.6944
11
126.122
21
-49.583
0
LINE
8
BLACK
6
CONTINUOUS
10
126.122
20
-49.583
11
126.348
21
-49.5144
0
LINE
8
BLACK
6
CONTINUOUS
10
126.348
20
-49.5144
11
126.524
21
-49.497
0
LINE
8
BLACK
6
CONTINUOUS
10
126.524
20
-49.497
11
126.642
21
-49.497
0
LINE
8
BLACK
6
CONTINUOUS
10
126.642
20
-49.497
11
126.818
21
-49.5144
0
LINE
8
BLACK
6
CONTINUOUS
10
106.153
20
-49.3634
11
106.379
21
-49.432
0
LINE
8
BLACK
6
CONTINUOUS
10
106.379
20
-49.432
11
106.588
21
-49.5434
0
LINE
8
BLACK
6
CONTINUOUS
10
106.588
20
-49.5434
11
106.771
21
-49.6934
0
LINE
8
BLACK
6
CONTINUOUS
10
106.771
20
-49.6934
11
106.921
21
-49.8761
0
LINE
8
BLACK
6
CONTINUOUS
10
106.921
20
-49.8761
11
107.032
21
-50.0846
0
LINE
8
BLACK
6
CONTINUOUS
10
107.032
20
-50.0846
11
107.101
21
-50.3108
0
LINE
8
BLACK
6
CONTINUOUS
10
107.101
20
-50.3108
11
107.124
21
-50.546
0
LINE
8
BLACK
6
CONTINUOUS
10
107.124
20
-50.546
11
107.101
21
-50.7812
0
LINE
8
BLACK
6
CONTINUOUS
10
107.101
20
-50.7812
11
107.032
21
-51.0074
0
LINE
8
BLACK
6
CONTINUOUS
10
107.032
20
-51.0074
11
106.921
21
-51.2159
0
LINE
8
BLACK
6
CONTINUOUS
10
106.921
20
-51.2159
11
106.771
21
-51.3986
0
LINE
8
BLACK
6
CONTINUOUS
10
106.771
20
-51.3986
11
106.588
21
-51.5486
0
LINE
8
BLACK
6
CONTINUOUS
10
106.588
20
-51.5486
11
106.379
21
-51.66
0
LINE
8
BLACK
6
CONTINUOUS
10
106.379
20
-51.66
11
106.153
21
-51.7286
0
LINE
8
BLACK
6
CONTINUOUS
10
106.153
20
-51.7286
11
105.977
21
-51.746
0
LINE
8
BLACK
6
CONTINUOUS
10
105.977
20
-51.746
11
105.859
21
-51.746
0
LINE
8
BLACK
6
CONTINUOUS
10
105.859
20
-51.746
11
105.683
21
-51.7286
0
LINE
8
BLACK
6
CONTINUOUS
10
105.683
20
-51.7286
11
105.457
21
-51.66
0
LINE
8
BLACK
6
CONTINUOUS
10
105.457
20
-51.66
11
105.248
21
-51.5486
0
LINE
8
BLACK
6
CONTINUOUS
10
105.248
20
-51.5486
11
105.065
21
-51.3986
0
LINE
8
BLACK
6
CONTINUOUS
10
105.065
20
-51.3986
11
104.915
21
-51.2159
0
LINE
8
BLACK
6
CONTINUOUS
10
104.915
20
-51.2159
11
104.804
21
-51.0074
0
LINE
8
BLACK
6
CONTINUOUS
10
104.804
20
-51.0074
11
104.735
21
-50.7812
0
LINE
8
BLACK
6
CONTINUOUS
10
104.735
20
-50.7812
11
104.712
21
-50.546
0
LINE
8
BLACK
6
CONTINUOUS
10
104.712
20
-50.546
11
104.735
21
-50.3108
0
LINE
8
BLACK
6
CONTINUOUS
10
104.735
20
-50.3108
11
104.804
21
-50.0846
0
LINE
8
BLACK
6
CONTINUOUS
10
104.804
20
-50.0846
11
104.915
21
-49.8761
0
LINE
8
BLACK
6
CONTINUOUS
10
104.915
20
-49.8761
11
105.065
21
-49.6934
0
LINE
8
BLACK
6
CONTINUOUS
10
105.065
20
-49.6934
11
105.248
21
-49.5434
0
LINE
8
BLACK
6
CONTINUOUS
10
105.248
20
-49.5434
11
105.457
21
-49.432
0
LINE
8
BLACK
6
CONTINUOUS
10
105.457
20
-49.432
11
105.683
21
-49.3634
0
LINE
8
BLACK
6
CONTINUOUS
10
105.683
20
-49.3634
11
105.859
21
-49.346
0
LINE
8
BLACK
6
CONTINUOUS
10
105.859
20
-49.346
11
105.977
21
-49.346
0
LINE
8
BLACK
6
CONTINUOUS
10
105.977
20
-49.346
11
106.153
21
-49.3634
0
LINE
8
BLACK
6
CONTINUOUS
10
91.878
20
-51.746
11
89.478
21
-51.746
0
LINE
8
BLACK
6
CONTINUOUS
10
89.478
20
-51.746
11
89.478
21
-49.346
0
LINE
8
BLACK
6
CONTINUOUS
10
89.478
20
-49.346
11
91.878
21
-49.346
0
LINE
8
BLACK
6
CONTINUOUS
10
91.878
20
-49.346
11
91.878
21
-51.746
0
LINE
8
BLACK
6
CONTINUOUS
10
98.3357
20
-44.7584
11
98.5177
21
-44.8338
0
LINE
8
BLACK
6
CONTINUOUS
10
98.5177
20
-44.8338
11
98.6815
21
-44.9432
0
LINE
8
BLACK
6
CONTINUOUS
10
98.6815
20
-44.9432
11
98.8208
21
-45.0825
0
LINE
8
BLACK
6
CONTINUOUS
10
98.8208
20
-45.0825
11
98.9302
21
-45.2463
0
LINE
8
BLACK
6
CONTINUOUS
10
98.9302
20
-45.2463
11
99.0056
21
-45.4283
0
LINE
8
BLACK
6
CONTINUOUS
10
99.0056
20
-45.4283
11
99.044
21
-45.6215
0
LINE
8
BLACK
6
CONTINUOUS
10
99.044
20
-45.6215
11
99.044
21
-45.8185
0
LINE
8
BLACK
6
CONTINUOUS
10
99.044
20
-45.8185
11
99.0056
21
-46.0117
0
LINE
8
BLACK
6
CONTINUOUS
10
99.0056
20
-46.0117
11
98.9302
21
-46.1937
0
LINE
8
BLACK
6
CONTINUOUS
10
98.9302
20
-46.1937
11
98.8208
21
-46.3575
0
LINE
8
BLACK
6
CONTINUOUS
10
98.8208
20
-46.3575
11
98.6815
21
-46.4968
0
LINE
8
BLACK
6
CONTINUOUS
10
98.6815
20
-46.4968
11
98.544
21
-46.5886
0
LINE
8
BLACK
6
CONTINUOUS
10
98.544
20
-46.5886
11
98.544
21
-49.6774
0
LINE
8
BLACK
6
CONTINUOUS
10
98.544
20
-49.6774
11
98.6815
21
-49.7692
0
LINE
8
BLACK
6
CONTINUOUS
10
98.6815
20
-49.7692
11
98.8208
21
-49.9085
0
LINE
8
BLACK
6
CONTINUOUS
10
98.8208
20
-49.9085
11
98.9302
21
-50.0723
0
LINE
8
BLACK
6
CONTINUOUS
10
98.9302
20
-50.0723
11
99.0056
21
-50.2543
0
LINE
8
BLACK
6
CONTINUOUS
10
99.0056
20
-50.2543
11
99.044
21
-50.4475
0
LINE
8
BLACK
6
CONTINUOUS
10
99.044
20
-50.4475
11
99.044
21
-50.6445
0
LINE
8
BLACK
6
CONTINUOUS
10
99.044
20
-50.6445
11
99.0056
21
-50.8377
0
LINE
8
BLACK
6
CONTINUOUS
10
99.0056
20
-50.8377
11
98.9302
21
-51.0197
0
LINE
8
BLACK
6
CONTINUOUS
10
98.9302
20
-51.0197
11
98.8208
21
-51.1835
0
LINE
8
BLACK
6
CONTINUOUS
10
98.8208
20
-51.1835
11
98.6815
21
-51.3228
0
LINE
8
BLACK
6
CONTINUOUS
10
98.6815
20
-51.3228
11
98.5177
21
-51.4322
0
LINE
8
BLACK
6
CONTINUOUS
10
98.5177
20
-51.4322
11
98.3357
21
-51.5076
0
LINE
8
BLACK
6
CONTINUOUS
10
98.3357
20
-51.5076
11
98.1425
21
-51.546
0
LINE
8
BLACK
6
CONTINUOUS
10
98.1425
20
-51.546
11
97.9455
21
-51.546
0
LINE
8
BLACK
6
CONTINUOUS
10
97.9455
20
-51.546
11
97.7523
21
-51.5076
0
LINE
8
BLACK
6
CONTINUOUS
10
97.7523
20
-51.5076
11
97.5703
21
-51.4322
0
LINE
8
BLACK
6
CONTINUOUS
10
97.5703
20
-51.4322
11
97.4065
21
-51.3228
0
LINE
8
BLACK
6
CONTINUOUS
10
97.4065
20
-51.3228
11
97.2672
21
-51.1835
0
LINE
8
BLACK
6
CONTINUOUS
10
97.2672
20
-51.1835
11
97.1578
21
-51.0197
0
LINE
8
BLACK
6
CONTINUOUS
10
97.1578
20
-51.0197
11
97.0824
21
-50.8377
0
LINE
8
BLACK
6
CONTINUOUS
10
97.0824
20
-50.8377
11
97.044
21
-50.6445
0
LINE
8
BLACK
6
CONTINUOUS
10
97.044
20
-50.6445
11
97.044
21
-50.4475
0
LINE
8
BLACK
6
CONTINUOUS
10
97.044
20
-50.4475
11
97.0824
21
-50.2543
0
LINE
8
BLACK
6
CONTINUOUS
10
97.0824
20
-50.2543
11
97.1578
21
-50.0723
0
LINE
8
BLACK
6
CONTINUOUS
10
97.1578
20
-50.0723
11
97.2672
21
-49.9085
0
LINE
8
BLACK
6
CONTINUOUS
10
97.2672
20
-49.9085
11
97.4065
21
-49.7692
0
LINE
8
BLACK
6
CONTINUOUS
10
97.4065
20
-49.7692
11
97.544
21
-49.6774
0
LINE
8
BLACK
6
CONTINUOUS
10
97.544
20
-49.6774
11
97.544
21
-46.5886
0
LINE
8
BLACK
6
CONTINUOUS
10
97.544
20
-46.5886
11
97.4065
21
-46.4968
0
LINE
8
BLACK
6
CONTINUOUS
10
97.4065
20
-46.4968
11
97.2672
21
-46.3575
0
LINE
8
BLACK
6
CONTINUOUS
10
97.2672
20
-46.3575
11
97.1578
21
-46.1937
0
LINE
8
BLACK
6
CONTINUOUS
10
97.1578
20
-46.1937
11
97.0824
21
-46.0117
0
LINE
8
BLACK
6
CONTINUOUS
10
97.0824
20
-46.0117
11
97.044
21
-45.8185
0
LINE
8
BLACK
6
CONTINUOUS
10
97.044
20
-45.8185
11
97.044
21
-45.6215
0
LINE
8
BLACK
6
CONTINUOUS
10
97.044
20
-45.6215
11
97.0824
21
-45.4283
0
LINE
8
BLACK
6
CONTINUOUS
10
97.0824
20
-45.4283
11
97.1578
21
-45.2463
0
LINE
8
BLACK
6
CONTINUOUS
10
97.1578
20
-45.2463
11
97.2672
21
-45.0825
0
LINE
8
BLACK
6
CONTINUOUS
10
97.2672
20
-45.0825
11
97.4065
21
-44.9432
0
LINE
8
BLACK
6
CONTINUOUS
10
97.4065
20
-44.9432
11
97.5703
21
-44.8338
0
LINE
8
BLACK
6
CONTINUOUS
10
97.5703
20
-44.8338
11
97.7523
21
-44.7584
0
LINE
8
BLACK
6
CONTINUOUS
10
97.7523
20
-44.7584
11
97.9455
21
-44.72
0
LINE
8
BLACK
6
CONTINUOUS
10
97.9455
20
-44.72
11
98.1425
21
-44.72
0
LINE
8
BLACK
6
CONTINUOUS
10
98.1425
20
-44.72
11
98.3357
21
-44.7584
0
LINE
8
BLACK
6
CONTINUOUS
10
95.734
20
-40.4472
11
101.833
21
-46.546
0
LINE
8
BLACK
6
CONTINUOUS
10
101.833
20
-46.546
11
113.293
21
-46.546
0
LINE
8
BLACK
6
CONTINUOUS
10
113.293
20
-46.546
11
114.78
21
-45.0594
0
LINE
8
BLACK
6
CONTINUOUS
10
114.78
20
-45.0594
11
114.735
21
-45.0043
0
LINE
8
BLACK
6
CONTINUOUS
10
114.735
20
-45.0043
11
114.642
21
-44.8305
0
LINE
8
BLACK
6
CONTINUOUS
10
114.642
20
-44.8305
11
114.584
21
-44.642
0
LINE
8
BLACK
6
CONTINUOUS
10
114.584
20
-44.642
11
114.57
21
-44.4951
0
LINE
8
BLACK
6
CONTINUOUS
10
114.57
20
-44.4951
11
114.57
21
-43.8969
0
LINE
8
BLACK
6
CONTINUOUS
10
114.57
20
-43.8969
11
114.584
21
-43.75
0
LINE
8
BLACK
6
CONTINUOUS
10
114.584
20
-43.75
11
114.642
21
-43.5615
0
LINE
8
BLACK
6
CONTINUOUS
10
114.642
20
-43.5615
11
114.735
21
-43.3877
0
LINE
8
BLACK
6
CONTINUOUS
10
114.735
20
-43.3877
11
114.859
21
-43.2355
0
LINE
8
BLACK
6
CONTINUOUS
10
114.859
20
-43.2355
11
115.012
21
-43.1105
0
LINE
8
BLACK
6
CONTINUOUS
10
115.012
20
-43.1105
11
115.185
21
-43.0177
0
LINE
8
BLACK
6
CONTINUOUS
10
115.185
20
-43.0177
11
115.374
21
-42.9605
0
LINE
8
BLACK
6
CONTINUOUS
10
115.374
20
-42.9605
11
115.57
21
-42.9412
0
LINE
8
BLACK
6
CONTINUOUS
10
115.57
20
-42.9412
11
115.766
21
-42.9605
0
LINE
8
BLACK
6
CONTINUOUS
10
115.766
20
-42.9605
11
115.955
21
-43.0177
0
LINE
8
BLACK
6
CONTINUOUS
10
115.955
20
-43.0177
11
116.128
21
-43.1105
0
LINE
8
BLACK
6
CONTINUOUS
10
116.128
20
-43.1105
11
116.281
21
-43.2355
0
LINE
8
BLACK
6
CONTINUOUS
10
116.281
20
-43.2355
11
116.405
21
-43.3877
0
LINE
8
BLACK
6
CONTINUOUS
10
116.405
20
-43.3877
11
116.498
21
-43.5615
0
LINE
8
BLACK
6
CONTINUOUS
10
116.498
20
-43.5615
11
116.556
21
-43.75
0
LINE
8
BLACK
6
CONTINUOUS
10
116.556
20
-43.75
11
116.57
21
-43.8969
0
LINE
8
BLACK
6
CONTINUOUS
10
116.57
20
-43.8969
11
116.57
21
-44.4951
0
LINE
8
BLACK
6
CONTINUOUS
10
116.57
20
-44.4951
11
116.556
21
-44.642
0
LINE
8
BLACK
6
CONTINUOUS
10
116.556
20
-44.642
11
116.498
21
-44.8305
0
LINE
8
BLACK
6
CONTINUOUS
10
116.498
20
-44.8305
11
116.405
21
-45.0043
0
LINE
8
BLACK
6
CONTINUOUS
10
116.405
20
-45.0043
11
116.281
21
-45.1565
0
LINE
8
BLACK
6
CONTINUOUS
10
116.281
20
-45.1565
11
116.128
21
-45.2815
0
LINE
8
BLACK
6
CONTINUOUS
10
116.128
20
-45.2815
11
115.955
21
-45.3743
0
LINE
8
BLACK
6
CONTINUOUS
10
115.955
20
-45.3743
11
115.766
21
-45.4315
0
LINE
8
BLACK
6
CONTINUOUS
10
115.766
20
-45.4315
11
115.57
21
-45.4508
0
LINE
8
BLACK
6
CONTINUOUS
10
115.57
20
-45.4508
11
115.374
21
-45.4315
0
LINE
8
BLACK
6
CONTINUOUS
10
115.374
20
-45.4315
11
115.185
21
-45.3743
0
LINE
8
BLACK
6
CONTINUOUS
10
115.185
20
-45.3743
11
115.012
21
-45.2815
0
LINE
8
BLACK
6
CONTINUOUS
10
115.012
20
-45.2815
11
114.957
21
-45.2362
0
LINE
8
BLACK
6
CONTINUOUS
10
114.957
20
-45.2362
11
113.438
21
-46.7551
0
LINE
8
BLACK
6
CONTINUOUS
10
113.438
20
-46.7551
11
113.434
21
-46.7598
0
LINE
8
BLACK
6
CONTINUOUS
10
113.434
20
-46.7598
11
113.415
21
-46.7755
0
LINE
8
BLACK
6
CONTINUOUS
10
113.415
20
-46.7755
11
113.393
21
-46.7871
0
LINE
8
BLACK
6
CONTINUOUS
10
113.393
20
-46.7871
11
113.369
21
-46.7942
0
LINE
8
BLACK
6
CONTINUOUS
10
113.369
20
-46.7942
11
113.351
21
-46.796
0
LINE
8
BLACK
6
CONTINUOUS
10
113.351
20
-46.796
11
113.351
21
-46.796
0
LINE
8
BLACK
6
CONTINUOUS
10
113.351
20
-46.796
11
113.345
21
-46.7966
0
LINE
8
BLACK
6
CONTINUOUS
10
113.345
20
-46.7966
11
113.339
21
-46.796
0
LINE
8
BLACK
6
CONTINUOUS
10
113.339
20
-46.796
11
101.787
21
-46.796
0
LINE
8
BLACK
6
CONTINUOUS
10
101.787
20
-46.796
11
101.781
21
-46.7966
0
LINE
8
BLACK
6
CONTINUOUS
10
101.781
20
-46.7966
11
101.775
21
-46.796
0
LINE
8
BLACK
6
CONTINUOUS
10
101.775
20
-46.796
11
101.775
21
-46.796
0
LINE
8
BLACK
6
CONTINUOUS
10
101.775
20
-46.796
11
101.757
21
-46.7942
0
LINE
8
BLACK
6
CONTINUOUS
10
101.757
20
-46.7942
11
101.733
21
-46.7871
0
LINE
8
BLACK
6
CONTINUOUS
10
101.733
20
-46.7871
11
101.711
21
-46.7755
0
LINE
8
BLACK
6
CONTINUOUS
10
101.711
20
-46.7755
11
101.697
21
-46.7638
0
LINE
8
BLACK
6
CONTINUOUS
10
101.697
20
-46.7638
11
101.692
21
-46.7598
0
LINE
8
BLACK
6
CONTINUOUS
10
101.692
20
-46.7598
11
101.688
21
-46.7551
0
LINE
8
BLACK
6
CONTINUOUS
10
101.688
20
-46.7551
11
95.5572
21
-40.624
0
LINE
8
BLACK
6
CONTINUOUS
10
95.5572
20
-40.624
11
92.734
21
-40.624
0
LINE
8
BLACK
6
CONTINUOUS
10
92.734
20
-40.624
11
92.734
21
-38.624
0
LINE
8
BLACK
6
CONTINUOUS
10
92.734
20
-38.624
11
95.734
21
-38.624
0
LINE
8
BLACK
6
CONTINUOUS
10
95.734
20
-38.624
11
95.734
21
-40.4472
0
LINE
8
BLACK
6
CONTINUOUS
10
95.734
20
-36.959
11
96.0401
21
-36.959
0
LINE
8
BLACK
6
CONTINUOUS
10
96.0401
20
-36.959
11
96.0462
21
-36.9584
0
LINE
8
BLACK
6
CONTINUOUS
10
96.0462
20
-36.9584
11
96.0523
21
-36.959
0
LINE
8
BLACK
6
CONTINUOUS
10
96.0523
20
-36.959
11
96.0523
21
-36.959
0
LINE
8
BLACK
6
CONTINUOUS
10
96.0523
20
-36.959
11
96.0707
21
-36.9608
0
LINE
8
BLACK
6
CONTINUOUS
10
96.0707
20
-36.9608
11
96.0942
21
-36.968
0
LINE
8
BLACK
6
CONTINUOUS
10
96.0942
20
-36.968
11
96.116
21
-36.9796
0
LINE
8
BLACK
6
CONTINUOUS
10
96.116
20
-36.9796
11
96.135
21
-36.9952
0
LINE
8
BLACK
6
CONTINUOUS
10
96.135
20
-36.9952
11
96.1389
21
-37
0
LINE
8
BLACK
6
CONTINUOUS
10
96.1389
20
-37
11
105.235
21
-46.096
0
LINE
8
BLACK
6
CONTINUOUS
10
105.235
20
-46.096
11
112.453
21
-46.096
0
LINE
8
BLACK
6
CONTINUOUS
10
112.453
20
-46.096
11
112.905
21
-45.6442
0
LINE
8
BLACK
6
CONTINUOUS
10
112.905
20
-45.6442
11
112.905
21
-45.4385
0
LINE
8
BLACK
6
CONTINUOUS
10
112.905
20
-45.4385
11
112.834
21
-45.4315
0
LINE
8
BLACK
6
CONTINUOUS
10
112.834
20
-45.4315
11
112.645
21
-45.3743
0
LINE
8
BLACK
6
CONTINUOUS
10
112.645
20
-45.3743
11
112.472
21
-45.2815
0
LINE
8
BLACK
6
CONTINUOUS
10
112.472
20
-45.2815
11
112.319
21
-45.1565
0
LINE
8
BLACK
6
CONTINUOUS
10
112.319
20
-45.1565
11
112.195
21
-45.0043
0
LINE
8
BLACK
6
CONTINUOUS
10
112.195
20
-45.0043
11
112.102
21
-44.8305
0
LINE
8
BLACK
6
CONTINUOUS
10
112.102
20
-44.8305
11
112.044
21
-44.642
0
LINE
8
BLACK
6
CONTINUOUS
10
112.044
20
-44.642
11
112.03
21
-44.4951
0
LINE
8
BLACK
6
CONTINUOUS
10
112.03
20
-44.4951
11
112.03
21
-43.8969
0
LINE
8
BLACK
6
CONTINUOUS
10
112.03
20
-43.8969
11
112.044
21
-43.75
0
LINE
8
BLACK
6
CONTINUOUS
10
112.044
20
-43.75
11
112.102
21
-43.5615
0
LINE
8
BLACK
6
CONTINUOUS
10
112.102
20
-43.5615
11
112.195
21
-43.3877
0
LINE
8
BLACK
6
CONTINUOUS
10
112.195
20
-43.3877
11
112.319
21
-43.2355
0
LINE
8
BLACK
6
CONTINUOUS
10
112.319
20
-43.2355
11
112.472
21
-43.1105
0
LINE
8
BLACK
6
CONTINUOUS
10
112.472
20
-43.1105
11
112.645
21
-43.0177
0
LINE
8
BLACK
6
CONTINUOUS
10
112.645
20
-43.0177
11
112.834
21
-42.9605
0
LINE
8
BLACK
6
CONTINUOUS
10
112.834
20
-42.9605
11
113.03
21
-42.9412
0
LINE
8
BLACK
6
CONTINUOUS
10
113.03
20
-42.9412
11
113.226
21
-42.9605
0
LINE
8
BLACK
6
CONTINUOUS
10
113.226
20
-42.9605
11
113.415
21
-43.0177
0
LINE
8
BLACK
6
CONTINUOUS
10
113.415
20
-43.0177
11
113.588
21
-43.1105
0
LINE
8
BLACK
6
CONTINUOUS
10
113.588
20
-43.1105
11
113.741
21
-43.2355
0
LINE
8
BLACK
6
CONTINUOUS
10
113.741
20
-43.2355
11
113.865
21
-43.3877
0
LINE
8
BLACK
6
CONTINUOUS
10
113.865
20
-43.3877
11
113.958
21
-43.5615
0
LINE
8
BLACK
6
CONTINUOUS
10
113.958
20
-43.5615
11
114.016
21
-43.75
0
LINE
8
BLACK
6
CONTINUOUS
10
114.016
20
-43.75
11
114.03
21
-43.8969
0
LINE
8
BLACK
6
CONTINUOUS
10
114.03
20
-43.8969
11
114.03
21
-44.4951
0
LINE
8
BLACK
6
CONTINUOUS
10
114.03
20
-44.4951
11
114.016
21
-44.642
0
LINE
8
BLACK
6
CONTINUOUS
10
114.016
20
-44.642
11
113.958
21
-44.8305
0
LINE
8
BLACK
6
CONTINUOUS
10
113.958
20
-44.8305
11
113.865
21
-45.0043
0
LINE
8
BLACK
6
CONTINUOUS
10
113.865
20
-45.0043
11
113.741
21
-45.1565
0
LINE
8
BLACK
6
CONTINUOUS
10
113.741
20
-45.1565
11
113.588
21
-45.2815
0
LINE
8
BLACK
6
CONTINUOUS
10
113.588
20
-45.2815
11
113.415
21
-45.3743
0
LINE
8
BLACK
6
CONTINUOUS
10
113.415
20
-45.3743
11
113.226
21
-45.4315
0
LINE
8
BLACK
6
CONTINUOUS
10
113.226
20
-45.4315
11
113.155
21
-45.4385
0
LINE
8
BLACK
6
CONTINUOUS
10
113.155
20
-45.4385
11
113.155
21
-45.6899
0
LINE
8
BLACK
6
CONTINUOUS
10
113.155
20
-45.6899
11
113.156
21
-45.696
0
LINE
8
BLACK
6
CONTINUOUS
10
113.156
20
-45.696
11
113.155
21
-45.7021
0
LINE
8
BLACK
6
CONTINUOUS
10
113.155
20
-45.7021
11
113.155
21
-45.7021
0
LINE
8
BLACK
6
CONTINUOUS
10
113.155
20
-45.7021
11
113.153
21
-45.7205
0
LINE
8
BLACK
6
CONTINUOUS
10
113.153
20
-45.7205
11
113.146
21
-45.7441
0
LINE
8
BLACK
6
CONTINUOUS
10
113.146
20
-45.7441
11
113.134
21
-45.7658
0
LINE
8
BLACK
6
CONTINUOUS
10
113.134
20
-45.7658
11
113.123
21
-45.7801
0
LINE
8
BLACK
6
CONTINUOUS
10
113.123
20
-45.7801
11
113.123
21
-45.7801
0
LINE
8
BLACK
6
CONTINUOUS
10
113.123
20
-45.7801
11
113.119
21
-45.7848
0
LINE
8
BLACK
6
CONTINUOUS
10
113.119
20
-45.7848
11
113.114
21
-45.7887
0
LINE
8
BLACK
6
CONTINUOUS
10
113.114
20
-45.7887
11
112.598
21
-46.3051
0
LINE
8
BLACK
6
CONTINUOUS
10
112.598
20
-46.3051
11
112.594
21
-46.3098
0
LINE
8
BLACK
6
CONTINUOUS
10
112.594
20
-46.3098
11
112.589
21
-46.3137
0
LINE
8
BLACK
6
CONTINUOUS
10
112.589
20
-46.3137
11
112.589
21
-46.3137
0
LINE
8
BLACK
6
CONTINUOUS
10
112.589
20
-46.3137
11
112.575
21
-46.3255
0
LINE
8
BLACK
6
CONTINUOUS
10
112.575
20
-46.3255
11
112.553
21
-46.3371
0
LINE
8
BLACK
6
CONTINUOUS
10
112.553
20
-46.3371
11
112.553
21
-46.3371
0
LINE
8
BLACK
6
CONTINUOUS
10
112.553
20
-46.3371
11
112.529
21
-46.3442
0
LINE
8
BLACK
6
CONTINUOUS
10
112.529
20
-46.3442
11
112.511
21
-46.346
0
LINE
8
BLACK
6
CONTINUOUS
10
112.511
20
-46.346
11
112.511
21
-46.346
0
LINE
8
BLACK
6
CONTINUOUS
10
112.511
20
-46.346
11
112.505
21
-46.3466
0
LINE
8
BLACK
6
CONTINUOUS
10
112.505
20
-46.3466
11
112.499
21
-46.346
0
LINE
8
BLACK
6
CONTINUOUS
10
112.499
20
-46.346
11
105.189
21
-46.346
0
LINE
8
BLACK
6
CONTINUOUS
10
105.189
20
-46.346
11
105.183
21
-46.3466
0
LINE
8
BLACK
6
CONTINUOUS
10
105.183
20
-46.3466
11
105.159
21
-46.3442
0
LINE
8
BLACK
6
CONTINUOUS
10
105.159
20
-46.3442
11
105.135
21
-46.3371
0
LINE
8
BLACK
6
CONTINUOUS
10
105.135
20
-46.3371
11
105.113
21
-46.3255
0
LINE
8
BLACK
6
CONTINUOUS
10
105.113
20
-46.3255
11
105.099
21
-46.3137
0
LINE
8
BLACK
6
CONTINUOUS
10
105.099
20
-46.3137
11
105.099
21
-46.3137
0
LINE
8
BLACK
6
CONTINUOUS
10
105.099
20
-46.3137
11
105.094
21
-46.3098
0
LINE
8
BLACK
6
CONTINUOUS
10
105.094
20
-46.3098
11
105.09
21
-46.3051
0
LINE
8
BLACK
6
CONTINUOUS
10
105.09
20
-46.3051
11
95.9944
21
-37.209
0
LINE
8
BLACK
6
CONTINUOUS
10
95.9944
20
-37.209
11
95.734
21
-37.209
0
LINE
8
BLACK
6
CONTINUOUS
10
95.734
20
-37.209
11
95.734
21
-38.084
0
LINE
8
BLACK
6
CONTINUOUS
10
95.734
20
-38.084
11
92.734
21
-38.084
0
LINE
8
BLACK
6
CONTINUOUS
10
92.734
20
-38.084
11
92.734
21
-36.084
0
LINE
8
BLACK
6
CONTINUOUS
10
92.734
20
-36.084
11
95.734
21
-36.084
0
LINE
8
BLACK
6
CONTINUOUS
10
95.734
20
-36.084
11
95.734
21
-36.959
0
LINE
8
BLACK
6
CONTINUOUS
10
95.734
20
-34.419
11
97.2759
21
-34.419
0
LINE
8
BLACK
6
CONTINUOUS
10
97.2759
20
-34.419
11
97.282
21
-34.4184
0
LINE
8
BLACK
6
CONTINUOUS
10
97.282
20
-34.4184
11
97.2881
21
-34.419
0
LINE
8
BLACK
6
CONTINUOUS
10
97.2881
20
-34.419
11
97.2881
21
-34.419
0
LINE
8
BLACK
6
CONTINUOUS
10
97.2881
20
-34.419
11
97.3065
21
-34.4208
0
LINE
8
BLACK
6
CONTINUOUS
10
97.3065
20
-34.4208
11
97.3301
21
-34.428
0
LINE
8
BLACK
6
CONTINUOUS
10
97.3301
20
-34.428
11
97.3518
21
-34.4396
0
LINE
8
BLACK
6
CONTINUOUS
10
97.3518
20
-34.4396
11
97.3708
21
-34.4552
0
LINE
8
BLACK
6
CONTINUOUS
10
97.3708
20
-34.4552
11
97.3747
21
-34.46
0
LINE
8
BLACK
6
CONTINUOUS
10
97.3747
20
-34.46
11
100.668
21
-37.7533
0
LINE
8
BLACK
6
CONTINUOUS
10
100.668
20
-37.7533
11
100.673
21
-37.7572
0
LINE
8
BLACK
6
CONTINUOUS
10
100.673
20
-37.7572
11
100.677
21
-37.7619
0
LINE
8
BLACK
6
CONTINUOUS
10
100.677
20
-37.7619
11
100.677
21
-37.7619
0
LINE
8
BLACK
6
CONTINUOUS
10
100.677
20
-37.7619
11
100.688
21
-37.7762
0
LINE
8
BLACK
6
CONTINUOUS
10
100.688
20
-37.7762
11
100.7
21
-37.7979
0
LINE
8
BLACK
6
CONTINUOUS
10
100.7
20
-37.7979
11
100.707
21
-37.8215
0
LINE
8
BLACK
6
CONTINUOUS
10
100.707
20
-37.8215
11
100.709
21
-37.8399
0
LINE
8
BLACK
6
CONTINUOUS
10
100.709
20
-37.8399
11
100.709
21
-37.8399
0
LINE
8
BLACK
6
CONTINUOUS
10
100.709
20
-37.8399
11
100.71
21
-37.846
0
LINE
8
BLACK
6
CONTINUOUS
10
100.71
20
-37.846
11
100.709
21
-37.8521
0
LINE
8
BLACK
6
CONTINUOUS
10
100.709
20
-37.8521
11
100.709
21
-40.9336
0
LINE
8
BLACK
6
CONTINUOUS
10
100.709
20
-40.9336
11
105.421
21
-45.646
0
LINE
8
BLACK
6
CONTINUOUS
10
105.421
20
-45.646
11
110.363
21
-45.646
0
LINE
8
BLACK
6
CONTINUOUS
10
110.363
20
-45.646
11
110.365
21
-45.6442
0
LINE
8
BLACK
6
CONTINUOUS
10
110.365
20
-45.6442
11
110.365
21
-45.4385
0
LINE
8
BLACK
6
CONTINUOUS
10
110.365
20
-45.4385
11
110.294
21
-45.4315
0
LINE
8
BLACK
6
CONTINUOUS
10
110.294
20
-45.4315
11
110.105
21
-45.3743
0
LINE
8
BLACK
6
CONTINUOUS
10
110.105
20
-45.3743
11
109.932
21
-45.2815
0
LINE
8
BLACK
6
CONTINUOUS
10
109.932
20
-45.2815
11
109.779
21
-45.1565
0
LINE
8
BLACK
6
CONTINUOUS
10
109.779
20
-45.1565
11
109.655
21
-45.0043
0
LINE
8
BLACK
6
CONTINUOUS
10
109.655
20
-45.0043
11
109.562
21
-44.8305
0
LINE
8
BLACK
6
CONTINUOUS
10
109.562
20
-44.8305
11
109.504
21
-44.642
0
LINE
8
BLACK
6
CONTINUOUS
10
109.504
20
-44.642
11
109.49
21
-44.4951
0
LINE
8
BLACK
6
CONTINUOUS
10
109.49
20
-44.4951
11
109.49
21
-43.8969
0
LINE
8
BLACK
6
CONTINUOUS
10
109.49
20
-43.8969
11
109.504
21
-43.75
0
LINE
8
BLACK
6
CONTINUOUS
10
109.504
20
-43.75
11
109.562
21
-43.5615
0
LINE
8
BLACK
6
CONTINUOUS
10
109.562
20
-43.5615
11
109.655
21
-43.3877
0
LINE
8
BLACK
6
CONTINUOUS
10
109.655
20
-43.3877
11
109.779
21
-43.2355
0
LINE
8
BLACK
6
CONTINUOUS
10
109.779
20
-43.2355
11
109.932
21
-43.1105
0
LINE
8
BLACK
6
CONTINUOUS
10
109.932
20
-43.1105
11
110.105
21
-43.0177
0
LINE
8
BLACK
6
CONTINUOUS
10
110.105
20
-43.0177
11
110.294
21
-42.9605
0
LINE
8
BLACK
6
CONTINUOUS
10
110.294
20
-42.9605
11
110.49
21
-42.9412
0
LINE
8
BLACK
6
CONTINUOUS
10
110.49
20
-42.9412
11
110.686
21
-42.9605
0
LINE
8
BLACK
6
CONTINUOUS
10
110.686
20
-42.9605
11
110.875
21
-43.0177
0
LINE
8
BLACK
6
CONTINUOUS
10
110.875
20
-43.0177
11
111.048
21
-43.1105
0
LINE
8
BLACK
6
CONTINUOUS
10
111.048
20
-43.1105
11
111.201
21
-43.2355
0
LINE
8
BLACK
6
CONTINUOUS
10
111.201
20
-43.2355
11
111.325
21
-43.3877
0
LINE
8
BLACK
6
CONTINUOUS
10
111.325
20
-43.3877
11
111.418
21
-43.5615
0
LINE
8
BLACK
6
CONTINUOUS
10
111.418
20
-43.5615
11
111.476
21
-43.75
0
LINE
8
BLACK
6
CONTINUOUS
10
111.476
20
-43.75
11
111.49
21
-43.8969
0
LINE
8
BLACK
6
CONTINUOUS
10
111.49
20
-43.8969
11
111.49
21
-44.4951
0
LINE
8
BLACK
6
CONTINUOUS
10
111.49
20
-44.4951
11
111.476
21
-44.642
0
LINE
8
BLACK
6
CONTINUOUS
10
111.476
20
-44.642
11
111.418
21
-44.8305
0
LINE
8
BLACK
6
CONTINUOUS
10
111.418
20
-44.8305
11
111.325
21
-45.0043
0
LINE
8
BLACK
6
CONTINUOUS
10
111.325
20
-45.0043
11
111.201
21
-45.1565
0
LINE
8
BLACK
6
CONTINUOUS
10
111.201
20
-45.1565
11
111.048
21
-45.2815
0
LINE
8
BLACK
6
CONTINUOUS
10
111.048
20
-45.2815
11
110.875
21
-45.3743
0
LINE
8
BLACK
6
CONTINUOUS
10
110.875
20
-45.3743
11
110.686
21
-45.4315
0
LINE
8
BLACK
6
CONTINUOUS
10
110.686
20
-45.4315
11
110.615
21
-45.4385
0
LINE
8
BLACK
6
CONTINUOUS
10
110.615
20
-45.4385
11
110.615
21
-45.6899
0
LINE
8
BLACK
6
CONTINUOUS
10
110.615
20
-45.6899
11
110.616
21
-45.696
0
LINE
8
BLACK
6
CONTINUOUS
10
110.616
20
-45.696
11
110.615
21
-45.7021
0
LINE
8
BLACK
6
CONTINUOUS
10
110.615
20
-45.7021
11
110.615
21
-45.7021
0
LINE
8
BLACK
6
CONTINUOUS
10
110.615
20
-45.7021
11
110.613
21
-45.7205
0
LINE
8
BLACK
6
CONTINUOUS
10
110.613
20
-45.7205
11
110.606
21
-45.7441
0
LINE
8
BLACK
6
CONTINUOUS
10
110.606
20
-45.7441
11
110.594
21
-45.7658
0
LINE
8
BLACK
6
CONTINUOUS
10
110.594
20
-45.7658
11
110.583
21
-45.7801
0
LINE
8
BLACK
6
CONTINUOUS
10
110.583
20
-45.7801
11
110.579
21
-45.7848
0
LINE
8
BLACK
6
CONTINUOUS
10
110.579
20
-45.7848
11
110.574
21
-45.7887
0
LINE
8
BLACK
6
CONTINUOUS
10
110.574
20
-45.7887
11
110.508
21
-45.8551
0
LINE
8
BLACK
6
CONTINUOUS
10
110.508
20
-45.8551
11
110.504
21
-45.8598
0
LINE
8
BLACK
6
CONTINUOUS
10
110.504
20
-45.8598
11
110.485
21
-45.8754
0
LINE
8
BLACK
6
CONTINUOUS
10
110.485
20
-45.8754
11
110.463
21
-45.8871
0
LINE
8
BLACK
6
CONTINUOUS
10
110.463
20
-45.8871
11
110.439
21
-45.8942
0
LINE
8
BLACK
6
CONTINUOUS
10
110.439
20
-45.8942
11
110.421
21
-45.896
0
LINE
8
BLACK
6
CONTINUOUS
10
110.421
20
-45.896
11
110.421
21
-45.896
0
LINE
8
BLACK
6
CONTINUOUS
10
110.421
20
-45.896
11
110.415
21
-45.8966
0
LINE
8
BLACK
6
CONTINUOUS
10
110.415
20
-45.8966
11
110.409
21
-45.896
0
LINE
8
BLACK
6
CONTINUOUS
10
110.409
20
-45.896
11
105.376
21
-45.896
0
LINE
8
BLACK
6
CONTINUOUS
10
105.376
20
-45.896
11
105.37
21
-45.8966
0
LINE
8
BLACK
6
CONTINUOUS
10
105.37
20
-45.8966
11
105.363
21
-45.896
0
LINE
8
BLACK
6
CONTINUOUS
10
105.363
20
-45.896
11
105.363
21
-45.896
0
LINE
8
BLACK
6
CONTINUOUS
10
105.363
20
-45.896
11
105.345
21
-45.8942
0
LINE
8
BLACK
6
CONTINUOUS
10
105.345
20
-45.8942
11
105.322
21
-45.8871
0
LINE
8
BLACK
6
CONTINUOUS
10
105.322
20
-45.8871
11
105.3
21
-45.8754
0
LINE
8
BLACK
6
CONTINUOUS
10
105.3
20
-45.8754
11
105.297
21
-45.8734
0
LINE
8
BLACK
6
CONTINUOUS
10
105.297
20
-45.8734
11
105.286
21
-45.8637
0
LINE
8
BLACK
6
CONTINUOUS
10
105.286
20
-45.8637
11
105.286
21
-45.8637
0
LINE
8
BLACK
6
CONTINUOUS
10
105.286
20
-45.8637
11
105.281
21
-45.8598
0
LINE
8
BLACK
6
CONTINUOUS
10
105.281
20
-45.8598
11
105.277
21
-45.8551
0
LINE
8
BLACK
6
CONTINUOUS
10
105.277
20
-45.8551
11
100.5
21
-41.0781
0
LINE
8
BLACK
6
CONTINUOUS
10
100.5
20
-41.0781
11
100.495
21
-41.0742
0
LINE
8
BLACK
6
CONTINUOUS
10
100.495
20
-41.0742
11
100.48
21
-41.0552
0
LINE
8
BLACK
6
CONTINUOUS
10
100.48
20
-41.0552
11
100.468
21
-41.0335
0
LINE
8
BLACK
6
CONTINUOUS
10
100.468
20
-41.0335
11
100.461
21
-41.0099
0
LINE
8
BLACK
6
CONTINUOUS
10
100.461
20
-41.0099
11
100.459
21
-40.9915
0
LINE
8
BLACK
6
CONTINUOUS
10
100.459
20
-40.9915
11
100.459
21
-40.9915
0
LINE
8
BLACK
6
CONTINUOUS
10
100.459
20
-40.9915
11
100.458
21
-40.9854
0
LINE
8
BLACK
6
CONTINUOUS
10
100.458
20
-40.9854
11
100.459
21
-40.9793
0
LINE
8
BLACK
6
CONTINUOUS
10
100.459
20
-40.9793
11
100.459
21
-37.8978
0
LINE
8
BLACK
6
CONTINUOUS
10
100.459
20
-37.8978
11
97.2302
21
-34.669
0
LINE
8
BLACK
6
CONTINUOUS
10
97.2302
20
-34.669
11
95.734
21
-34.669
0
LINE
8
BLACK
6
CONTINUOUS
10
95.734
20
-34.669
11
95.734
21
-35.544
0
LINE
8
BLACK
6
CONTINUOUS
10
95.734
20
-35.544
11
92.734
21
-35.544
0
LINE
8
BLACK
6
CONTINUOUS
10
92.734
20
-35.544
11
92.734
21
-33.544
0
LINE
8
BLACK
6
CONTINUOUS
10
92.734
20
-33.544
11
95.734
21
-33.544
0
LINE
8
BLACK
6
CONTINUOUS
10
95.734
20
-33.544
11
95.734
21
-34.419
0
LINE
8
BLACK
6
CONTINUOUS
10
95.734
20
-31.879
11
96.2599
21
-31.879
0
LINE
8
BLACK
6
CONTINUOUS
10
96.2599
20
-31.879
11
96.266
21
-31.8784
0
LINE
8
BLACK
6
CONTINUOUS
10
96.266
20
-31.8784
11
96.2721
21
-31.879
0
LINE
8
BLACK
6
CONTINUOUS
10
96.2721
20
-31.879
11
96.2721
21
-31.879
0
LINE
8
BLACK
6
CONTINUOUS
10
96.2721
20
-31.879
11
96.2905
21
-31.8808
0
LINE
8
BLACK
6
CONTINUOUS
10
96.2905
20
-31.8808
11
96.3141
21
-31.888
0
LINE
8
BLACK
6
CONTINUOUS
10
96.3141
20
-31.888
11
96.3358
21
-31.8996
0
LINE
8
BLACK
6
CONTINUOUS
10
96.3358
20
-31.8996
11
96.3548
21
-31.9152
0
LINE
8
BLACK
6
CONTINUOUS
10
96.3548
20
-31.9152
11
96.3587
21
-31.92
0
LINE
8
BLACK
6
CONTINUOUS
10
96.3587
20
-31.92
11
101.176
21
-36.7373
0
LINE
8
BLACK
6
CONTINUOUS
10
101.176
20
-36.7373
11
101.181
21
-36.7412
0
LINE
8
BLACK
6
CONTINUOUS
10
101.181
20
-36.7412
11
101.185
21
-36.7459
0
LINE
8
BLACK
6
CONTINUOUS
10
101.185
20
-36.7459
11
101.196
21
-36.7602
0
LINE
8
BLACK
6
CONTINUOUS
10
101.196
20
-36.7602
11
101.208
21
-36.7819
0
LINE
8
BLACK
6
CONTINUOUS
10
101.208
20
-36.7819
11
101.215
21
-36.8055
0
LINE
8
BLACK
6
CONTINUOUS
10
101.215
20
-36.8055
11
101.217
21
-36.8239
0
LINE
8
BLACK
6
CONTINUOUS
10
101.217
20
-36.8239
11
101.217
21
-36.8239
0
LINE
8
BLACK
6
CONTINUOUS
10
101.217
20
-36.8239
11
101.218
21
-36.83
0
LINE
8
BLACK
6
CONTINUOUS
10
101.218
20
-36.83
11
101.217
21
-36.8361
0
LINE
8
BLACK
6
CONTINUOUS
10
101.217
20
-36.8361
11
101.217
21
-40.8052
0
LINE
8
BLACK
6
CONTINUOUS
10
101.217
20
-40.8052
11
104.483
21
-44.071
0
LINE
8
BLACK
6
CONTINUOUS
10
104.483
20
-44.071
11
106.95
21
-44.071
0
LINE
8
BLACK
6
CONTINUOUS
10
106.95
20
-44.071
11
106.95
21
-43.8969
0
LINE
8
BLACK
6
CONTINUOUS
10
106.95
20
-43.8969
11
106.964
21
-43.75
0
LINE
8
BLACK
6
CONTINUOUS
10
106.964
20
-43.75
11
107.022
21
-43.5615
0
LINE
8
BLACK
6
CONTINUOUS
10
107.022
20
-43.5615
11
107.115
21
-43.3877
0
LINE
8
BLACK
6
CONTINUOUS
10
107.115
20
-43.3877
11
107.239
21
-43.2355
0
LINE
8
BLACK
6
CONTINUOUS
10
107.239
20
-43.2355
11
107.392
21
-43.1105
0
LINE
8
BLACK
6
CONTINUOUS
10
107.392
20
-43.1105
11
107.565
21
-43.0177
0
LINE
8
BLACK
6
CONTINUOUS
10
107.565
20
-43.0177
11
107.754
21
-42.9605
0
LINE
8
BLACK
6
CONTINUOUS
10
107.754
20
-42.9605
11
107.95
21
-42.9412
0
LINE
8
BLACK
6
CONTINUOUS
10
107.95
20
-42.9412
11
108.146
21
-42.9605
0
LINE
8
BLACK
6
CONTINUOUS
10
108.146
20
-42.9605
11
108.335
21
-43.0177
0
LINE
8
BLACK
6
CONTINUOUS
10
108.335
20
-43.0177
11
108.508
21
-43.1105
0
LINE
8
BLACK
6
CONTINUOUS
10
108.508
20
-43.1105
11
108.661
21
-43.2355
0
LINE
8
BLACK
6
CONTINUOUS
10
108.661
20
-43.2355
11
108.785
21
-43.3877
0
LINE
8
BLACK
6
CONTINUOUS
10
108.785
20
-43.3877
11
108.878
21
-43.5615
0
LINE
8
BLACK
6
CONTINUOUS
10
108.878
20
-43.5615
11
108.936
21
-43.75
0
LINE
8
BLACK
6
CONTINUOUS
10
108.936
20
-43.75
11
108.95
21
-43.8969
0
LINE
8
BLACK
6
CONTINUOUS
10
108.95
20
-43.8969
11
108.95
21
-44.4951
0
LINE
8
BLACK
6
CONTINUOUS
10
108.95
20
-44.4951
11
108.936
21
-44.642
0
LINE
8
BLACK
6
CONTINUOUS
10
108.936
20
-44.642
11
108.878
21
-44.8305
0
LINE
8
BLACK
6
CONTINUOUS
10
108.878
20
-44.8305
11
108.785
21
-45.0043
0
LINE
8
BLACK
6
CONTINUOUS
10
108.785
20
-45.0043
11
108.661
21
-45.1565
0
LINE
8
BLACK
6
CONTINUOUS
10
108.661
20
-45.1565
11
108.508
21
-45.2815
0
LINE
8
BLACK
6
CONTINUOUS
10
108.508
20
-45.2815
11
108.335
21
-45.3743
0
LINE
8
BLACK
6
CONTINUOUS
10
108.335
20
-45.3743
11
108.146
21
-45.4315
0
LINE
8
BLACK
6
CONTINUOUS
10
108.146
20
-45.4315
11
107.95
21
-45.4508
0
LINE
8
BLACK
6
CONTINUOUS
10
107.95
20
-45.4508
11
107.754
21
-45.4315
0
LINE
8
BLACK
6
CONTINUOUS
10
107.754
20
-45.4315
11
107.565
21
-45.3743
0
LINE
8
BLACK
6
CONTINUOUS
10
107.565
20
-45.3743
11
107.392
21
-45.2815
0
LINE
8
BLACK
6
CONTINUOUS
10
107.392
20
-45.2815
11
107.239
21
-45.1565
0
LINE
8
BLACK
6
CONTINUOUS
10
107.239
20
-45.1565
11
107.115
21
-45.0043
0
LINE
8
BLACK
6
CONTINUOUS
10
107.115
20
-45.0043
11
107.022
21
-44.8305
0
LINE
8
BLACK
6
CONTINUOUS
10
107.022
20
-44.8305
11
106.964
21
-44.642
0
LINE
8
BLACK
6
CONTINUOUS
10
106.964
20
-44.642
11
106.95
21
-44.4951
0
LINE
8
BLACK
6
CONTINUOUS
10
106.95
20
-44.4951
11
106.95
21
-44.321
0
LINE
8
BLACK
6
CONTINUOUS
10
106.95
20
-44.321
11
104.437
21
-44.321
0
LINE
8
BLACK
6
CONTINUOUS
10
104.437
20
-44.321
11
104.431
21
-44.3216
0
LINE
8
BLACK
6
CONTINUOUS
10
104.431
20
-44.3216
11
104.425
21
-44.321
0
LINE
8
BLACK
6
CONTINUOUS
10
104.425
20
-44.321
11
104.425
21
-44.321
0
LINE
8
BLACK
6
CONTINUOUS
10
104.425
20
-44.321
11
104.406
21
-44.3192
0
LINE
8
BLACK
6
CONTINUOUS
10
104.406
20
-44.3192
11
104.383
21
-44.312
0
LINE
8
BLACK
6
CONTINUOUS
10
104.383
20
-44.312
11
104.361
21
-44.3004
0
LINE
8
BLACK
6
CONTINUOUS
10
104.361
20
-44.3004
11
104.347
21
-44.2887
0
LINE
8
BLACK
6
CONTINUOUS
10
104.347
20
-44.2887
11
104.342
21
-44.2848
0
LINE
8
BLACK
6
CONTINUOUS
10
104.342
20
-44.2848
11
104.338
21
-44.2801
0
LINE
8
BLACK
6
CONTINUOUS
10
104.338
20
-44.2801
11
101.008
21
-40.9497
0
LINE
8
BLACK
6
CONTINUOUS
10
101.008
20
-40.9497
11
101.003
21
-40.9458
0
LINE
8
BLACK
6
CONTINUOUS
10
101.003
20
-40.9458
11
100.988
21
-40.9268
0
LINE
8
BLACK
6
CONTINUOUS
10
100.988
20
-40.9268
11
100.976
21
-40.9051
0
LINE
8
BLACK
6
CONTINUOUS
10
100.976
20
-40.9051
11
100.969
21
-40.8815
0
LINE
8
BLACK
6
CONTINUOUS
10
100.969
20
-40.8815
11
100.967
21
-40.8631
0
LINE
8
BLACK
6
CONTINUOUS
10
100.967
20
-40.8631
11
100.967
21
-40.8631
0
LINE
8
BLACK
6
CONTINUOUS
10
100.967
20
-40.8631
11
100.966
21
-40.857
0
LINE
8
BLACK
6
CONTINUOUS
10
100.966
20
-40.857
11
100.967
21
-40.8509
0
LINE
8
BLACK
6
CONTINUOUS
10
100.967
20
-40.8509
11
100.967
21
-36.8818
0
LINE
8
BLACK
6
CONTINUOUS
10
100.967
20
-36.8818
11
96.2142
21
-32.129
0
LINE
8
BLACK
6
CONTINUOUS
10
96.2142
20
-32.129
11
95.734
21
-32.129
0
LINE
8
BLACK
6
CONTINUOUS
10
95.734
20
-32.129
11
95.734
21
-33.004
0
LINE
8
BLACK
6
CONTINUOUS
10
95.734
20
-33.004
11
92.734
21
-33.004
0
LINE
8
BLACK
6
CONTINUOUS
10
92.734
20
-33.004
11
92.734
21
-31.004
0
LINE
8
BLACK
6
CONTINUOUS
10
92.734
20
-31.004
11
95.734
21
-31.004
0
LINE
8
BLACK
6
CONTINUOUS
10
95.734
20
-31.004
11
95.734
21
-31.879
0
LINE
8
BLACK
6
CONTINUOUS
10
132.822
20
-40.878
11
130.322
21
-40.878
0
LINE
8
BLACK
6
CONTINUOUS
10
130.322
20
-40.878
11
130.322
21
-38.878
0
LINE
8
BLACK
6
CONTINUOUS
10
130.322
20
-38.878
11
132.822
21
-38.878
0
LINE
8
BLACK
6
CONTINUOUS
10
132.822
20
-38.878
11
132.822
21
-40.878
0
LINE
8
BLACK
6
CONTINUOUS
10
88.114
20
-40.624
11
85.114
21
-40.624
0
LINE
8
BLACK
6
CONTINUOUS
10
85.114
20
-40.624
11
85.114
21
-38.624
0
LINE
8
BLACK
6
CONTINUOUS
10
85.114
20
-38.624
11
88.114
21
-38.624
0
LINE
8
BLACK
6
CONTINUOUS
10
88.114
20
-38.624
11
88.114
21
-40.624
0
LINE
8
BLACK
6
CONTINUOUS
10
107.892
20
-37.3725
11
108.081
21
-37.4297
0
LINE
8
BLACK
6
CONTINUOUS
10
108.081
20
-37.4297
11
108.254
21
-37.5225
0
LINE
8
BLACK
6
CONTINUOUS
10
108.254
20
-37.5225
11
108.407
21
-37.6475
0
LINE
8
BLACK
6
CONTINUOUS
10
108.407
20
-37.6475
11
108.531
21
-37.7997
0
LINE
8
BLACK
6
CONTINUOUS
10
108.531
20
-37.7997
11
108.624
21
-37.9735
0
LINE
8
BLACK
6
CONTINUOUS
10
108.624
20
-37.9735
11
108.682
21
-38.162
0
LINE
8
BLACK
6
CONTINUOUS
10
108.682
20
-38.162
11
108.696
21
-38.3089
0
LINE
8
BLACK
6
CONTINUOUS
10
108.696
20
-38.3089
11
108.696
21
-38.9071
0
LINE
8
BLACK
6
CONTINUOUS
10
108.696
20
-38.9071
11
108.682
21
-39.054
0
LINE
8
BLACK
6
CONTINUOUS
10
108.682
20
-39.054
11
108.624
21
-39.2425
0
LINE
8
BLACK
6
CONTINUOUS
10
108.624
20
-39.2425
11
108.531
21
-39.4163
0
LINE
8
BLACK
6
CONTINUOUS
10
108.531
20
-39.4163
11
108.407
21
-39.5685
0
LINE
8
BLACK
6
CONTINUOUS
10
108.407
20
-39.5685
11
108.254
21
-39.6935
0
LINE
8
BLACK
6
CONTINUOUS
10
108.254
20
-39.6935
11
108.081
21
-39.7863
0
LINE
8
BLACK
6
CONTINUOUS
10
108.081
20
-39.7863
11
107.892
21
-39.8435
0
LINE
8
BLACK
6
CONTINUOUS
10
107.892
20
-39.8435
11
107.696
21
-39.8628
0
LINE
8
BLACK
6
CONTINUOUS
10
107.696
20
-39.8628
11
107.5
21
-39.8435
0
LINE
8
BLACK
6
CONTINUOUS
10
107.5
20
-39.8435
11
107.311
21
-39.7863
0
LINE
8
BLACK
6
CONTINUOUS
10
107.311
20
-39.7863
11
107.138
21
-39.6935
0
LINE
8
BLACK
6
CONTINUOUS
10
107.138
20
-39.6935
11
106.985
21
-39.5685
0
LINE
8
BLACK
6
CONTINUOUS
10
106.985
20
-39.5685
11
106.861
21
-39.4163
0
LINE
8
BLACK
6
CONTINUOUS
10
106.861
20
-39.4163
11
106.768
21
-39.2425
0
LINE
8
BLACK
6
CONTINUOUS
10
106.768
20
-39.2425
11
106.71
21
-39.054
0
LINE
8
BLACK
6
CONTINUOUS
10
106.71
20
-39.054
11
106.696
21
-38.9071
0
LINE
8
BLACK
6
CONTINUOUS
10
106.696
20
-38.9071
11
106.696
21
-38.3089
0
LINE
8
BLACK
6
CONTINUOUS
10
106.696
20
-38.3089
11
106.71
21
-38.162
0
LINE
8
BLACK
6
CONTINUOUS
10
106.71
20
-38.162
11
106.768
21
-37.9735
0
LINE
8
BLACK
6
CONTINUOUS
10
106.768
20
-37.9735
11
106.861
21
-37.7997
0
LINE
8
BLACK
6
CONTINUOUS
10
106.861
20
-37.7997
11
106.985
21
-37.6475
0
LINE
8
BLACK
6
CONTINUOUS
10
106.985
20
-37.6475
11
107.138
21
-37.5225
0
LINE
8
BLACK
6
CONTINUOUS
10
107.138
20
-37.5225
11
107.311
21
-37.4297
0
LINE
8
BLACK
6
CONTINUOUS
10
107.311
20
-37.4297
11
107.5
21
-37.3725
0
LINE
8
BLACK
6
CONTINUOUS
10
107.5
20
-37.3725
11
107.696
21
-37.3532
0
LINE
8
BLACK
6
CONTINUOUS
10
107.696
20
-37.3532
11
107.892
21
-37.3725
0
LINE
8
BLACK
6
CONTINUOUS
10
110.432
20
-37.3725
11
110.621
21
-37.4297
0
LINE
8
BLACK
6
CONTINUOUS
10
110.621
20
-37.4297
11
110.794
21
-37.5225
0
LINE
8
BLACK
6
CONTINUOUS
10
110.794
20
-37.5225
11
110.947
21
-37.6475
0
LINE
8
BLACK
6
CONTINUOUS
10
110.947
20
-37.6475
11
111.071
21
-37.7997
0
LINE
8
BLACK
6
CONTINUOUS
10
111.071
20
-37.7997
11
111.164
21
-37.9735
0
LINE
8
BLACK
6
CONTINUOUS
10
111.164
20
-37.9735
11
111.222
21
-38.162
0
LINE
8
BLACK
6
CONTINUOUS
10
111.222
20
-38.162
11
111.236
21
-38.3089
0
LINE
8
BLACK
6
CONTINUOUS
10
111.236
20
-38.3089
11
111.236
21
-38.9071
0
LINE
8
BLACK
6
CONTINUOUS
10
111.236
20
-38.9071
11
111.222
21
-39.054
0
LINE
8
BLACK
6
CONTINUOUS
10
111.222
20
-39.054
11
111.164
21
-39.2425
0
LINE
8
BLACK
6
CONTINUOUS
10
111.164
20
-39.2425
11
111.071
21
-39.4163
0
LINE
8
BLACK
6
CONTINUOUS
10
111.071
20
-39.4163
11
110.947
21
-39.5685
0
LINE
8
BLACK
6
CONTINUOUS
10
110.947
20
-39.5685
11
110.794
21
-39.6935
0
LINE
8
BLACK
6
CONTINUOUS
10
110.794
20
-39.6935
11
110.621
21
-39.7863
0
LINE
8
BLACK
6
CONTINUOUS
10
110.621
20
-39.7863
11
110.432
21
-39.8435
0
LINE
8
BLACK
6
CONTINUOUS
10
110.432
20
-39.8435
11
110.236
21
-39.8628
0
LINE
8
BLACK
6
CONTINUOUS
10
110.236
20
-39.8628
11
110.04
21
-39.8435
0
LINE
8
BLACK
6
CONTINUOUS
10
110.04
20
-39.8435
11
109.851
21
-39.7863
0
LINE
8
BLACK
6
CONTINUOUS
10
109.851
20
-39.7863
11
109.678
21
-39.6935
0
LINE
8
BLACK
6
CONTINUOUS
10
109.678
20
-39.6935
11
109.525
21
-39.5685
0
LINE
8
BLACK
6
CONTINUOUS
10
109.525
20
-39.5685
11
109.401
21
-39.4163
0
LINE
8
BLACK
6
CONTINUOUS
10
109.401
20
-39.4163
11
109.308
21
-39.2425
0
LINE
8
BLACK
6
CONTINUOUS
10
109.308
20
-39.2425
11
109.25
21
-39.054
0
LINE
8
BLACK
6
CONTINUOUS
10
109.25
20
-39.054
11
109.236
21
-38.9071
0
LINE
8
BLACK
6
CONTINUOUS
10
109.236
20
-38.9071
11
109.236
21
-38.3089
0
LINE
8
BLACK
6
CONTINUOUS
10
109.236
20
-38.3089
11
109.25
21
-38.162
0
LINE
8
BLACK
6
CONTINUOUS
10
109.25
20
-38.162
11
109.308
21
-37.9735
0
LINE
8
BLACK
6
CONTINUOUS
10
109.308
20
-37.9735
11
109.401
21
-37.7997
0
LINE
8
BLACK
6
CONTINUOUS
10
109.401
20
-37.7997
11
109.525
21
-37.6475
0
LINE
8
BLACK
6
CONTINUOUS
10
109.525
20
-37.6475
11
109.678
21
-37.5225
0
LINE
8
BLACK
6
CONTINUOUS
10
109.678
20
-37.5225
11
109.851
21
-37.4297
0
LINE
8
BLACK
6
CONTINUOUS
10
109.851
20
-37.4297
11
110.04
21
-37.3725
0
LINE
8
BLACK
6
CONTINUOUS
10
110.04
20
-37.3725
11
110.236
21
-37.3532
0
LINE
8
BLACK
6
CONTINUOUS
10
110.236
20
-37.3532
11
110.432
21
-37.3725
0
LINE
8
BLACK
6
CONTINUOUS
10
112.972
20
-37.3725
11
113.161
21
-37.4297
0
LINE
8
BLACK
6
CONTINUOUS
10
113.161
20
-37.4297
11
113.334
21
-37.5225
0
LINE
8
BLACK
6
CONTINUOUS
10
113.334
20
-37.5225
11
113.487
21
-37.6475
0
LINE
8
BLACK
6
CONTINUOUS
10
113.487
20
-37.6475
11
113.611
21
-37.7997
0
LINE
8
BLACK
6
CONTINUOUS
10
113.611
20
-37.7997
11
113.704
21
-37.9735
0
LINE
8
BLACK
6
CONTINUOUS
10
113.704
20
-37.9735
11
113.762
21
-38.162
0
LINE
8
BLACK
6
CONTINUOUS
10
113.762
20
-38.162
11
113.776
21
-38.3089
0
LINE
8
BLACK
6
CONTINUOUS
10
113.776
20
-38.3089
11
113.776
21
-38.9071
0
LINE
8
BLACK
6
CONTINUOUS
10
113.776
20
-38.9071
11
113.762
21
-39.054
0
LINE
8
BLACK
6
CONTINUOUS
10
113.762
20
-39.054
11
113.704
21
-39.2425
0
LINE
8
BLACK
6
CONTINUOUS
10
113.704
20
-39.2425
11
113.611
21
-39.4163
0
LINE
8
BLACK
6
CONTINUOUS
10
113.611
20
-39.4163
11
113.487
21
-39.5685
0
LINE
8
BLACK
6
CONTINUOUS
10
113.487
20
-39.5685
11
113.334
21
-39.6935
0
LINE
8
BLACK
6
CONTINUOUS
10
113.334
20
-39.6935
11
113.161
21
-39.7863
0
LINE
8
BLACK
6
CONTINUOUS
10
113.161
20
-39.7863
11
112.972
21
-39.8435
0
LINE
8
BLACK
6
CONTINUOUS
10
112.972
20
-39.8435
11
112.776
21
-39.8628
0
LINE
8
BLACK
6
CONTINUOUS
10
112.776
20
-39.8628
11
112.58
21
-39.8435
0
LINE
8
BLACK
6
CONTINUOUS
10
112.58
20
-39.8435
11
112.391
21
-39.7863
0
LINE
8
BLACK
6
CONTINUOUS
10
112.391
20
-39.7863
11
112.218
21
-39.6935
0
LINE
8
BLACK
6
CONTINUOUS
10
112.218
20
-39.6935
11
112.065
21
-39.5685
0
LINE
8
BLACK
6
CONTINUOUS
10
112.065
20
-39.5685
11
111.941
21
-39.4163
0
LINE
8
BLACK
6
CONTINUOUS
10
111.941
20
-39.4163
11
111.848
21
-39.2425
0
LINE
8
BLACK
6
CONTINUOUS
10
111.848
20
-39.2425
11
111.79
21
-39.054
0
LINE
8
BLACK
6
CONTINUOUS
10
111.79
20
-39.054
11
111.776
21
-38.9071
0
LINE
8
BLACK
6
CONTINUOUS
10
111.776
20
-38.9071
11
111.776
21
-38.3089
0
LINE
8
BLACK
6
CONTINUOUS
10
111.776
20
-38.3089
11
111.79
21
-38.162
0
LINE
8
BLACK
6
CONTINUOUS
10
111.79
20
-38.162
11
111.848
21
-37.9735
0
LINE
8
BLACK
6
CONTINUOUS
10
111.848
20
-37.9735
11
111.941
21
-37.7997
0
LINE
8
BLACK
6
CONTINUOUS
10
111.941
20
-37.7997
11
112.065
21
-37.6475
0
LINE
8
BLACK
6
CONTINUOUS
10
112.065
20
-37.6475
11
112.218
21
-37.5225
0
LINE
8
BLACK
6
CONTINUOUS
10
112.218
20
-37.5225
11
112.391
21
-37.4297
0
LINE
8
BLACK
6
CONTINUOUS
10
112.391
20
-37.4297
11
112.58
21
-37.3725
0
LINE
8
BLACK
6
CONTINUOUS
10
112.58
20
-37.3725
11
112.776
21
-37.3532
0
LINE
8
BLACK
6
CONTINUOUS
10
112.776
20
-37.3532
11
112.972
21
-37.3725
0
LINE
8
BLACK
6
CONTINUOUS
10
115.512
20
-37.3725
11
115.701
21
-37.4297
0
LINE
8
BLACK
6
CONTINUOUS
10
115.701
20
-37.4297
11
115.874
21
-37.5225
0
LINE
8
BLACK
6
CONTINUOUS
10
115.874
20
-37.5225
11
116.027
21
-37.6475
0
LINE
8
BLACK
6
CONTINUOUS
10
116.027
20
-37.6475
11
116.151
21
-37.7997
0
LINE
8
BLACK
6
CONTINUOUS
10
116.151
20
-37.7997
11
116.244
21
-37.9735
0
LINE
8
BLACK
6
CONTINUOUS
10
116.244
20
-37.9735
11
116.302
21
-38.162
0
LINE
8
BLACK
6
CONTINUOUS
10
116.302
20
-38.162
11
116.316
21
-38.3089
0
LINE
8
BLACK
6
CONTINUOUS
10
116.316
20
-38.3089
11
116.316
21
-38.9071
0
LINE
8
BLACK
6
CONTINUOUS
10
116.316
20
-38.9071
11
116.302
21
-39.054
0
LINE
8
BLACK
6
CONTINUOUS
10
116.302
20
-39.054
11
116.244
21
-39.2425
0
LINE
8
BLACK
6
CONTINUOUS
10
116.244
20
-39.2425
11
116.151
21
-39.4163
0
LINE
8
BLACK
6
CONTINUOUS
10
116.151
20
-39.4163
11
116.027
21
-39.5685
0
LINE
8
BLACK
6
CONTINUOUS
10
116.027
20
-39.5685
11
115.874
21
-39.6935
0
LINE
8
BLACK
6
CONTINUOUS
10
115.874
20
-39.6935
11
115.701
21
-39.7863
0
LINE
8
BLACK
6
CONTINUOUS
10
115.701
20
-39.7863
11
115.512
21
-39.8435
0
LINE
8
BLACK
6
CONTINUOUS
10
115.512
20
-39.8435
11
115.316
21
-39.8628
0
LINE
8
BLACK
6
CONTINUOUS
10
115.316
20
-39.8628
11
115.12
21
-39.8435
0
LINE
8
BLACK
6
CONTINUOUS
10
115.12
20
-39.8435
11
114.931
21
-39.7863
0
LINE
8
BLACK
6
CONTINUOUS
10
114.931
20
-39.7863
11
114.758
21
-39.6935
0
LINE
8
BLACK
6
CONTINUOUS
10
114.758
20
-39.6935
11
114.605
21
-39.5685
0
LINE
8
BLACK
6
CONTINUOUS
10
114.605
20
-39.5685
11
114.481
21
-39.4163
0
LINE
8
BLACK
6
CONTINUOUS
10
114.481
20
-39.4163
11
114.388
21
-39.2425
0
LINE
8
BLACK
6
CONTINUOUS
10
114.388
20
-39.2425
11
114.33
21
-39.054
0
LINE
8
BLACK
6
CONTINUOUS
10
114.33
20
-39.054
11
114.316
21
-38.9071
0
LINE
8
BLACK
6
CONTINUOUS
10
114.316
20
-38.9071
11
114.316
21
-38.3089
0
LINE
8
BLACK
6
CONTINUOUS
10
114.316
20
-38.3089
11
114.33
21
-38.162
0
LINE
8
BLACK
6
CONTINUOUS
10
114.33
20
-38.162
11
114.388
21
-37.9735
0
LINE
8
BLACK
6
CONTINUOUS
10
114.388
20
-37.9735
11
114.481
21
-37.7997
0
LINE
8
BLACK
6
CONTINUOUS
10
114.481
20
-37.7997
11
114.605
21
-37.6475
0
LINE
8
BLACK
6
CONTINUOUS
10
114.605
20
-37.6475
11
114.758
21
-37.5225
0
LINE
8
BLACK
6
CONTINUOUS
10
114.758
20
-37.5225
11
114.931
21
-37.4297
0
LINE
8
BLACK
6
CONTINUOUS
10
114.931
20
-37.4297
11
115.12
21
-37.3725
0
LINE
8
BLACK
6
CONTINUOUS
10
115.12
20
-37.3725
11
115.316
21
-37.3532
0
LINE
8
BLACK
6
CONTINUOUS
10
115.316
20
-37.3532
11
115.512
21
-37.3725
0
LINE
8
BLACK
6
CONTINUOUS
10
118.052
20
-37.3725
11
118.241
21
-37.4297
0
LINE
8
BLACK
6
CONTINUOUS
10
118.241
20
-37.4297
11
118.414
21
-37.5225
0
LINE
8
BLACK
6
CONTINUOUS
10
118.414
20
-37.5225
11
118.567
21
-37.6475
0
LINE
8
BLACK
6
CONTINUOUS
10
118.567
20
-37.6475
11
118.691
21
-37.7997
0
LINE
8
BLACK
6
CONTINUOUS
10
118.691
20
-37.7997
11
118.784
21
-37.9735
0
LINE
8
BLACK
6
CONTINUOUS
10
118.784
20
-37.9735
11
118.842
21
-38.162
0
LINE
8
BLACK
6
CONTINUOUS
10
118.842
20
-38.162
11
118.856
21
-38.3089
0
LINE
8
BLACK
6
CONTINUOUS
10
118.856
20
-38.3089
11
118.856
21
-38.9071
0
LINE
8
BLACK
6
CONTINUOUS
10
118.856
20
-38.9071
11
118.842
21
-39.054
0
LINE
8
BLACK
6
CONTINUOUS
10
118.842
20
-39.054
11
118.784
21
-39.2425
0
LINE
8
BLACK
6
CONTINUOUS
10
118.784
20
-39.2425
11
118.691
21
-39.4163
0
LINE
8
BLACK
6
CONTINUOUS
10
118.691
20
-39.4163
11
118.567
21
-39.5685
0
LINE
8
BLACK
6
CONTINUOUS
10
118.567
20
-39.5685
11
118.414
21
-39.6935
0
LINE
8
BLACK
6
CONTINUOUS
10
118.414
20
-39.6935
11
118.241
21
-39.7863
0
LINE
8
BLACK
6
CONTINUOUS
10
118.241
20
-39.7863
11
118.052
21
-39.8435
0
LINE
8
BLACK
6
CONTINUOUS
10
118.052
20
-39.8435
11
117.856
21
-39.8628
0
LINE
8
BLACK
6
CONTINUOUS
10
117.856
20
-39.8628
11
117.66
21
-39.8435
0
LINE
8
BLACK
6
CONTINUOUS
10
117.66
20
-39.8435
11
117.471
21
-39.7863
0
LINE
8
BLACK
6
CONTINUOUS
10
117.471
20
-39.7863
11
117.298
21
-39.6935
0
LINE
8
BLACK
6
CONTINUOUS
10
117.298
20
-39.6935
11
117.145
21
-39.5685
0
LINE
8
BLACK
6
CONTINUOUS
10
117.145
20
-39.5685
11
117.021
21
-39.4163
0
LINE
8
BLACK
6
CONTINUOUS
10
117.021
20
-39.4163
11
116.928
21
-39.2425
0
LINE
8
BLACK
6
CONTINUOUS
10
116.928
20
-39.2425
11
116.87
21
-39.054
0
LINE
8
BLACK
6
CONTINUOUS
10
116.87
20
-39.054
11
116.856
21
-38.9071
0
LINE
8
BLACK
6
CONTINUOUS
10
116.856
20
-38.9071
11
116.856
21
-38.3089
0
LINE
8
BLACK
6
CONTINUOUS
10
116.856
20
-38.3089
11
116.87
21
-38.162
0
LINE
8
BLACK
6
CONTINUOUS
10
116.87
20
-38.162
11
116.928
21
-37.9735
0
LINE
8
BLACK
6
CONTINUOUS
10
116.928
20
-37.9735
11
117.021
21
-37.7997
0
LINE
8
BLACK
6
CONTINUOUS
10
117.021
20
-37.7997
11
117.145
21
-37.6475
0
LINE
8
BLACK
6
CONTINUOUS
10
117.145
20
-37.6475
11
117.298
21
-37.5225
0
LINE
8
BLACK
6
CONTINUOUS
10
117.298
20
-37.5225
11
117.471
21
-37.4297
0
LINE
8
BLACK
6
CONTINUOUS
10
117.471
20
-37.4297
11
117.66
21
-37.3725
0
LINE
8
BLACK
6
CONTINUOUS
10
117.66
20
-37.3725
11
117.856
21
-37.3532
0
LINE
8
BLACK
6
CONTINUOUS
10
117.856
20
-37.3532
11
118.052
21
-37.3725
0
LINE
8
BLACK
6
CONTINUOUS
10
102.812
20
-37.3725
11
103.001
21
-37.4297
0
LINE
8
BLACK
6
CONTINUOUS
10
103.001
20
-37.4297
11
103.174
21
-37.5225
0
LINE
8
BLACK
6
CONTINUOUS
10
103.174
20
-37.5225
11
103.327
21
-37.6475
0
LINE
8
BLACK
6
CONTINUOUS
10
103.327
20
-37.6475
11
103.451
21
-37.7997
0
LINE
8
BLACK
6
CONTINUOUS
10
103.451
20
-37.7997
11
103.544
21
-37.9735
0
LINE
8
BLACK
6
CONTINUOUS
10
103.544
20
-37.9735
11
103.602
21
-38.162
0
LINE
8
BLACK
6
CONTINUOUS
10
103.602
20
-38.162
11
103.616
21
-38.3089
0
LINE
8
BLACK
6
CONTINUOUS
10
103.616
20
-38.3089
11
103.616
21
-38.9071
0
LINE
8
BLACK
6
CONTINUOUS
10
103.616
20
-38.9071
11
103.602
21
-39.054
0
LINE
8
BLACK
6
CONTINUOUS
10
103.602
20
-39.054
11
103.544
21
-39.2425
0
LINE
8
BLACK
6
CONTINUOUS
10
103.544
20
-39.2425
11
103.451
21
-39.4163
0
LINE
8
BLACK
6
CONTINUOUS
10
103.451
20
-39.4163
11
103.327
21
-39.5685
0
LINE
8
BLACK
6
CONTINUOUS
10
103.327
20
-39.5685
11
103.174
21
-39.6935
0
LINE
8
BLACK
6
CONTINUOUS
10
103.174
20
-39.6935
11
103.001
21
-39.7863
0
LINE
8
BLACK
6
CONTINUOUS
10
103.001
20
-39.7863
11
102.812
21
-39.8435
0
LINE
8
BLACK
6
CONTINUOUS
10
102.812
20
-39.8435
11
102.616
21
-39.8628
0
LINE
8
BLACK
6
CONTINUOUS
10
102.616
20
-39.8628
11
102.42
21
-39.8435
0
LINE
8
BLACK
6
CONTINUOUS
10
102.42
20
-39.8435
11
102.231
21
-39.7863
0
LINE
8
BLACK
6
CONTINUOUS
10
102.231
20
-39.7863
11
102.058
21
-39.6935
0
LINE
8
BLACK
6
CONTINUOUS
10
102.058
20
-39.6935
11
101.905
21
-39.5685
0
LINE
8
BLACK
6
CONTINUOUS
10
101.905
20
-39.5685
11
101.781
21
-39.4163
0
LINE
8
BLACK
6
CONTINUOUS
10
101.781
20
-39.4163
11
101.688
21
-39.2425
0
LINE
8
BLACK
6
CONTINUOUS
10
101.688
20
-39.2425
11
101.63
21
-39.054
0
LINE
8
BLACK
6
CONTINUOUS
10
101.63
20
-39.054
11
101.616
21
-38.9071
0
LINE
8
BLACK
6
CONTINUOUS
10
101.616
20
-38.9071
11
101.616
21
-38.3089
0
LINE
8
BLACK
6
CONTINUOUS
10
101.616
20
-38.3089
11
101.63
21
-38.162
0
LINE
8
BLACK
6
CONTINUOUS
10
101.63
20
-38.162
11
101.688
21
-37.9735
0
LINE
8
BLACK
6
CONTINUOUS
10
101.688
20
-37.9735
11
101.781
21
-37.7997
0
LINE
8
BLACK
6
CONTINUOUS
10
101.781
20
-37.7997
11
101.905
21
-37.6475
0
LINE
8
BLACK
6
CONTINUOUS
10
101.905
20
-37.6475
11
102.058
21
-37.5225
0
LINE
8
BLACK
6
CONTINUOUS
10
102.058
20
-37.5225
11
102.231
21
-37.4297
0
LINE
8
BLACK
6
CONTINUOUS
10
102.231
20
-37.4297
11
102.42
21
-37.3725
0
LINE
8
BLACK
6
CONTINUOUS
10
102.42
20
-37.3725
11
102.616
21
-37.3532
0
LINE
8
BLACK
6
CONTINUOUS
10
102.616
20
-37.3532
11
102.812
21
-37.3725
0
LINE
8
BLACK
6
CONTINUOUS
10
105.352
20
-37.3725
11
105.541
21
-37.4297
0
LINE
8
BLACK
6
CONTINUOUS
10
105.541
20
-37.4297
11
105.714
21
-37.5225
0
LINE
8
BLACK
6
CONTINUOUS
10
105.714
20
-37.5225
11
105.867
21
-37.6475
0
LINE
8
BLACK
6
CONTINUOUS
10
105.867
20
-37.6475
11
105.991
21
-37.7997
0
LINE
8
BLACK
6
CONTINUOUS
10
105.991
20
-37.7997
11
106.084
21
-37.9735
0
LINE
8
BLACK
6
CONTINUOUS
10
106.084
20
-37.9735
11
106.142
21
-38.162
0
LINE
8
BLACK
6
CONTINUOUS
10
106.142
20
-38.162
11
106.156
21
-38.3089
0
LINE
8
BLACK
6
CONTINUOUS
10
106.156
20
-38.3089
11
106.156
21
-38.9071
0
LINE
8
BLACK
6
CONTINUOUS
10
106.156
20
-38.9071
11
106.142
21
-39.054
0
LINE
8
BLACK
6
CONTINUOUS
10
106.142
20
-39.054
11
106.084
21
-39.2425
0
LINE
8
BLACK
6
CONTINUOUS
10
106.084
20
-39.2425
11
105.991
21
-39.4163
0
LINE
8
BLACK
6
CONTINUOUS
10
105.991
20
-39.4163
11
105.867
21
-39.5685
0
LINE
8
BLACK
6
CONTINUOUS
10
105.867
20
-39.5685
11
105.714
21
-39.6935
0
LINE
8
BLACK
6
CONTINUOUS
10
105.714
20
-39.6935
11
105.541
21
-39.7863
0
LINE
8
BLACK
6
CONTINUOUS
10
105.541
20
-39.7863
11
105.352
21
-39.8435
0
LINE
8
BLACK
6
CONTINUOUS
10
105.352
20
-39.8435
11
105.156
21
-39.8628
0
LINE
8
BLACK
6
CONTINUOUS
10
105.156
20
-39.8628
11
104.96
21
-39.8435
0
LINE
8
BLACK
6
CONTINUOUS
10
104.96
20
-39.8435
11
104.771
21
-39.7863
0
LINE
8
BLACK
6
CONTINUOUS
10
104.771
20
-39.7863
11
104.598
21
-39.6935
0
LINE
8
BLACK
6
CONTINUOUS
10
104.598
20
-39.6935
11
104.445
21
-39.5685
0
LINE
8
BLACK
6
CONTINUOUS
10
104.445
20
-39.5685
11
104.321
21
-39.4163
0
LINE
8
BLACK
6
CONTINUOUS
10
104.321
20
-39.4163
11
104.228
21
-39.2425
0
LINE
8
BLACK
6
CONTINUOUS
10
104.228
20
-39.2425
11
104.17
21
-39.054
0
LINE
8
BLACK
6
CONTINUOUS
10
104.17
20
-39.054
11
104.156
21
-38.9071
0
LINE
8
BLACK
6
CONTINUOUS
10
104.156
20
-38.9071
11
104.156
21
-38.3089
0
LINE
8
BLACK
6
CONTINUOUS
10
104.156
20
-38.3089
11
104.17
21
-38.162
0
LINE
8
BLACK
6
CONTINUOUS
10
104.17
20
-38.162
11
104.228
21
-37.9735
0
LINE
8
BLACK
6
CONTINUOUS
10
104.228
20
-37.9735
11
104.321
21
-37.7997
0
LINE
8
BLACK
6
CONTINUOUS
10
104.321
20
-37.7997
11
104.445
21
-37.6475
0
LINE
8
BLACK
6
CONTINUOUS
10
104.445
20
-37.6475
11
104.598
21
-37.5225
0
LINE
8
BLACK
6
CONTINUOUS
10
104.598
20
-37.5225
11
104.771
21
-37.4297
0
LINE
8
BLACK
6
CONTINUOUS
10
104.771
20
-37.4297
11
104.96
21
-37.3725
0
LINE
8
BLACK
6
CONTINUOUS
10
104.96
20
-37.3725
11
105.156
21
-37.3532
0
LINE
8
BLACK
6
CONTINUOUS
10
105.156
20
-37.3532
11
105.352
21
-37.3725
0
LINE
8
BLACK
6
CONTINUOUS
10
120.592
20
-37.3725
11
120.781
21
-37.4297
0
LINE
8
BLACK
6
CONTINUOUS
10
120.781
20
-37.4297
11
120.954
21
-37.5225
0
LINE
8
BLACK
6
CONTINUOUS
10
120.954
20
-37.5225
11
121.107
21
-37.6475
0
LINE
8
BLACK
6
CONTINUOUS
10
121.107
20
-37.6475
11
121.231
21
-37.7997
0
LINE
8
BLACK
6
CONTINUOUS
10
121.231
20
-37.7997
11
121.324
21
-37.9735
0
LINE
8
BLACK
6
CONTINUOUS
10
121.324
20
-37.9735
11
121.382
21
-38.162
0
LINE
8
BLACK
6
CONTINUOUS
10
121.382
20
-38.162
11
121.396
21
-38.3089
0
LINE
8
BLACK
6
CONTINUOUS
10
121.396
20
-38.3089
11
121.396
21
-38.9071
0
LINE
8
BLACK
6
CONTINUOUS
10
121.396
20
-38.9071
11
121.382
21
-39.054
0
LINE
8
BLACK
6
CONTINUOUS
10
121.382
20
-39.054
11
121.324
21
-39.2425
0
LINE
8
BLACK
6
CONTINUOUS
10
121.324
20
-39.2425
11
121.231
21
-39.4163
0
LINE
8
BLACK
6
CONTINUOUS
10
121.231
20
-39.4163
11
121.107
21
-39.5685
0
LINE
8
BLACK
6
CONTINUOUS
10
121.107
20
-39.5685
11
120.954
21
-39.6935
0
LINE
8
BLACK
6
CONTINUOUS
10
120.954
20
-39.6935
11
120.781
21
-39.7863
0
LINE
8
BLACK
6
CONTINUOUS
10
120.781
20
-39.7863
11
120.592
21
-39.8435
0
LINE
8
BLACK
6
CONTINUOUS
10
120.592
20
-39.8435
11
120.396
21
-39.8628
0
LINE
8
BLACK
6
CONTINUOUS
10
120.396
20
-39.8628
11
120.2
21
-39.8435
0
LINE
8
BLACK
6
CONTINUOUS
10
120.2
20
-39.8435
11
120.011
21
-39.7863
0
LINE
8
BLACK
6
CONTINUOUS
10
120.011
20
-39.7863
11
119.838
21
-39.6935
0
LINE
8
BLACK
6
CONTINUOUS
10
119.838
20
-39.6935
11
119.685
21
-39.5685
0
LINE
8
BLACK
6
CONTINUOUS
10
119.685
20
-39.5685
11
119.561
21
-39.4163
0
LINE
8
BLACK
6
CONTINUOUS
10
119.561
20
-39.4163
11
119.468
21
-39.2425
0
LINE
8
BLACK
6
CONTINUOUS
10
119.468
20
-39.2425
11
119.41
21
-39.054
0
LINE
8
BLACK
6
CONTINUOUS
10
119.41
20
-39.054
11
119.396
21
-38.9071
0
LINE
8
BLACK
6
CONTINUOUS
10
119.396
20
-38.9071
11
119.396
21
-38.3089
0
LINE
8
BLACK
6
CONTINUOUS
10
119.396
20
-38.3089
11
119.41
21
-38.162
0
LINE
8
BLACK
6
CONTINUOUS
10
119.41
20
-38.162
11
119.468
21
-37.9735
0
LINE
8
BLACK
6
CONTINUOUS
10
119.468
20
-37.9735
11
119.561
21
-37.7997
0
LINE
8
BLACK
6
CONTINUOUS
10
119.561
20
-37.7997
11
119.685
21
-37.6475
0
LINE
8
BLACK
6
CONTINUOUS
10
119.685
20
-37.6475
11
119.838
21
-37.5225
0
LINE
8
BLACK
6
CONTINUOUS
10
119.838
20
-37.5225
11
120.011
21
-37.4297
0
LINE
8
BLACK
6
CONTINUOUS
10
120.011
20
-37.4297
11
120.2
21
-37.3725
0
LINE
8
BLACK
6
CONTINUOUS
10
120.2
20
-37.3725
11
120.396
21
-37.3532
0
LINE
8
BLACK
6
CONTINUOUS
10
120.396
20
-37.3532
11
120.592
21
-37.3725
0
LINE
8
BLACK
6
CONTINUOUS
10
132.822
20
-38.338
11
130.322
21
-38.338
0
LINE
8
BLACK
6
CONTINUOUS
10
130.322
20
-38.338
11
130.322
21
-36.338
0
LINE
8
BLACK
6
CONTINUOUS
10
130.322
20
-36.338
11
132.822
21
-36.338
0
LINE
8
BLACK
6
CONTINUOUS
10
132.822
20
-36.338
11
132.822
21
-38.338
0
LINE
8
BLACK
6
CONTINUOUS
10
88.114
20
-38.084
11
85.114
21
-38.084
0
LINE
8
BLACK
6
CONTINUOUS
10
85.114
20
-38.084
11
85.114
21
-36.084
0
LINE
8
BLACK
6
CONTINUOUS
10
85.114
20
-36.084
11
88.114
21
-36.084
0
LINE
8
BLACK
6
CONTINUOUS
10
88.114
20
-36.084
11
88.114
21
-38.084
0
LINE
8
BLACK
6
CONTINUOUS
10
132.822
20
-35.798
11
130.322
21
-35.798
0
LINE
8
BLACK
6
CONTINUOUS
10
130.322
20
-35.798
11
130.322
21
-33.798
0
LINE
8
BLACK
6
CONTINUOUS
10
130.322
20
-33.798
11
132.822
21
-33.798
0
LINE
8
BLACK
6
CONTINUOUS
10
132.822
20
-33.798
11
132.822
21
-35.798
0
LINE
8
BLACK
6
CONTINUOUS
10
88.114
20
-35.544
11
85.114
21
-35.544
0
LINE
8
BLACK
6
CONTINUOUS
10
85.114
20
-35.544
11
85.114
21
-33.544
0
LINE
8
BLACK
6
CONTINUOUS
10
85.114
20
-33.544
11
88.114
21
-33.544
0
LINE
8
BLACK
6
CONTINUOUS
10
88.114
20
-33.544
11
88.114
21
-35.544
0
LINE
8
BLACK
6
CONTINUOUS
10
109.162
20
-32.2925
11
109.351
21
-32.3497
0
LINE
8
BLACK
6
CONTINUOUS
10
109.351
20
-32.3497
11
109.524
21
-32.4425
0
LINE
8
BLACK
6
CONTINUOUS
10
109.524
20
-32.4425
11
109.677
21
-32.5675
0
LINE
8
BLACK
6
CONTINUOUS
10
109.677
20
-32.5675
11
109.801
21
-32.7197
0
LINE
8
BLACK
6
CONTINUOUS
10
109.801
20
-32.7197
11
109.894
21
-32.8935
0
LINE
8
BLACK
6
CONTINUOUS
10
109.894
20
-32.8935
11
109.952
21
-33.082
0
LINE
8
BLACK
6
CONTINUOUS
10
109.952
20
-33.082
11
109.966
21
-33.2289
0
LINE
8
BLACK
6
CONTINUOUS
10
109.966
20
-33.2289
11
109.966
21
-33.8271
0
LINE
8
BLACK
6
CONTINUOUS
10
109.966
20
-33.8271
11
109.952
21
-33.974
0
LINE
8
BLACK
6
CONTINUOUS
10
109.952
20
-33.974
11
109.894
21
-34.1625
0
LINE
8
BLACK
6
CONTINUOUS
10
109.894
20
-34.1625
11
109.801
21
-34.3363
0
LINE
8
BLACK
6
CONTINUOUS
10
109.801
20
-34.3363
11
109.677
21
-34.4885
0
LINE
8
BLACK
6
CONTINUOUS
10
109.677
20
-34.4885
11
109.524
21
-34.6135
0
LINE
8
BLACK
6
CONTINUOUS
10
109.524
20
-34.6135
11
109.351
21
-34.7063
0
LINE
8
BLACK
6
CONTINUOUS
10
109.351
20
-34.7063
11
109.162
21
-34.7635
0
LINE
8
BLACK
6
CONTINUOUS
10
109.162
20
-34.7635
11
108.966
21
-34.7828
0
LINE
8
BLACK
6
CONTINUOUS
10
108.966
20
-34.7828
11
108.77
21
-34.7635
0
LINE
8
BLACK
6
CONTINUOUS
10
108.77
20
-34.7635
11
108.581
21
-34.7063
0
LINE
8
BLACK
6
CONTINUOUS
10
108.581
20
-34.7063
11
108.408
21
-34.6135
0
LINE
8
BLACK
6
CONTINUOUS
10
108.408
20
-34.6135
11
108.255
21
-34.4885
0
LINE
8
BLACK
6
CONTINUOUS
10
108.255
20
-34.4885
11
108.131
21
-34.3363
0
LINE
8
BLACK
6
CONTINUOUS
10
108.131
20
-34.3363
11
108.038
21
-34.1625
0
LINE
8
BLACK
6
CONTINUOUS
10
108.038
20
-34.1625
11
107.98
21
-33.974
0
LINE
8
BLACK
6
CONTINUOUS
10
107.98
20
-33.974
11
107.966
21
-33.8271
0
LINE
8
BLACK
6
CONTINUOUS
10
107.966
20
-33.8271
11
107.966
21
-33.2289
0
LINE
8
BLACK
6
CONTINUOUS
10
107.966
20
-33.2289
11
107.98
21
-33.082
0
LINE
8
BLACK
6
CONTINUOUS
10
107.98
20
-33.082
11
108.038
21
-32.8935
0
LINE
8
BLACK
6
CONTINUOUS
10
108.038
20
-32.8935
11
108.131
21
-32.7197
0
LINE
8
BLACK
6
CONTINUOUS
10
108.131
20
-32.7197
11
108.255
21
-32.5675
0
LINE
8
BLACK
6
CONTINUOUS
10
108.255
20
-32.5675
11
108.408
21
-32.4425
0
LINE
8
BLACK
6
CONTINUOUS
10
108.408
20
-32.4425
11
108.581
21
-32.3497
0
LINE
8
BLACK
6
CONTINUOUS
10
108.581
20
-32.3497
11
108.77
21
-32.2925
0
LINE
8
BLACK
6
CONTINUOUS
10
108.77
20
-32.2925
11
108.966
21
-32.2732
0
LINE
8
BLACK
6
CONTINUOUS
10
108.966
20
-32.2732
11
109.162
21
-32.2925
0
LINE
8
BLACK
6
CONTINUOUS
10
104.082
20
-32.2925
11
104.271
21
-32.3497
0
LINE
8
BLACK
6
CONTINUOUS
10
104.271
20
-32.3497
11
104.444
21
-32.4425
0
LINE
8
BLACK
6
CONTINUOUS
10
104.444
20
-32.4425
11
104.597
21
-32.5675
0
LINE
8
BLACK
6
CONTINUOUS
10
104.597
20
-32.5675
11
104.721
21
-32.7197
0
LINE
8
BLACK
6
CONTINUOUS
10
104.721
20
-32.7197
11
104.814
21
-32.8935
0
LINE
8
BLACK
6
CONTINUOUS
10
104.814
20
-32.8935
11
104.872
21
-33.082
0
LINE
8
BLACK
6
CONTINUOUS
10
104.872
20
-33.082
11
104.886
21
-33.2289
0
LINE
8
BLACK
6
CONTINUOUS
10
104.886
20
-33.2289
11
104.886
21
-33.8271
0
LINE
8
BLACK
6
CONTINUOUS
10
104.886
20
-33.8271
11
104.872
21
-33.974
0
LINE
8
BLACK
6
CONTINUOUS
10
104.872
20
-33.974
11
104.814
21
-34.1625
0
LINE
8
BLACK
6
CONTINUOUS
10
104.814
20
-34.1625
11
104.721
21
-34.3363
0
LINE
8
BLACK
6
CONTINUOUS
10
104.721
20
-34.3363
11
104.597
21
-34.4885
0
LINE
8
BLACK
6
CONTINUOUS
10
104.597
20
-34.4885
11
104.444
21
-34.6135
0
LINE
8
BLACK
6
CONTINUOUS
10
104.444
20
-34.6135
11
104.271
21
-34.7063
0
LINE
8
BLACK
6
CONTINUOUS
10
104.271
20
-34.7063
11
104.082
21
-34.7635
0
LINE
8
BLACK
6
CONTINUOUS
10
104.082
20
-34.7635
11
103.886
21
-34.7828
0
LINE
8
BLACK
6
CONTINUOUS
10
103.886
20
-34.7828
11
103.69
21
-34.7635
0
LINE
8
BLACK
6
CONTINUOUS
10
103.69
20
-34.7635
11
103.501
21
-34.7063
0
LINE
8
BLACK
6
CONTINUOUS
10
103.501
20
-34.7063
11
103.328
21
-34.6135
0
LINE
8
BLACK
6
CONTINUOUS
10
103.328
20
-34.6135
11
103.175
21
-34.4885
0
LINE
8
BLACK
6
CONTINUOUS
10
103.175
20
-34.4885
11
103.051
21
-34.3363
0
LINE
8
BLACK
6
CONTINUOUS
10
103.051
20
-34.3363
11
102.958
21
-34.1625
0
LINE
8
BLACK
6
CONTINUOUS
10
102.958
20
-34.1625
11
102.9
21
-33.974
0
LINE
8
BLACK
6
CONTINUOUS
10
102.9
20
-33.974
11
102.886
21
-33.8271
0
LINE
8
BLACK
6
CONTINUOUS
10
102.886
20
-33.8271
11
102.886
21
-33.2289
0
LINE
8
BLACK
6
CONTINUOUS
10
102.886
20
-33.2289
11
102.9
21
-33.082
0
LINE
8
BLACK
6
CONTINUOUS
10
102.9
20
-33.082
11
102.958
21
-32.8935
0
LINE
8
BLACK
6
CONTINUOUS
10
102.958
20
-32.8935
11
103.051
21
-32.7197
0
LINE
8
BLACK
6
CONTINUOUS
10
103.051
20
-32.7197
11
103.175
21
-32.5675
0
LINE
8
BLACK
6
CONTINUOUS
10
103.175
20
-32.5675
11
103.328
21
-32.4425
0
LINE
8
BLACK
6
CONTINUOUS
10
103.328
20
-32.4425
11
103.501
21
-32.3497
0
LINE
8
BLACK
6
CONTINUOUS
10
103.501
20
-32.3497
11
103.69
21
-32.2925
0
LINE
8
BLACK
6
CONTINUOUS
10
103.69
20
-32.2925
11
103.886
21
-32.2732
0
LINE
8
BLACK
6
CONTINUOUS
10
103.886
20
-32.2732
11
104.082
21
-32.2925
0
LINE
8
BLACK
6
CONTINUOUS
10
106.622
20
-32.2925
11
106.811
21
-32.3497
0
LINE
8
BLACK
6
CONTINUOUS
10
106.811
20
-32.3497
11
106.984
21
-32.4425
0
LINE
8
BLACK
6
CONTINUOUS
10
106.984
20
-32.4425
11
107.137
21
-32.5675
0
LINE
8
BLACK
6
CONTINUOUS
10
107.137
20
-32.5675
11
107.261
21
-32.7197
0
LINE
8
BLACK
6
CONTINUOUS
10
107.261
20
-32.7197
11
107.354
21
-32.8935
0
LINE
8
BLACK
6
CONTINUOUS
10
107.354
20
-32.8935
11
107.412
21
-33.082
0
LINE
8
BLACK
6
CONTINUOUS
10
107.412
20
-33.082
11
107.426
21
-33.2289
0
LINE
8
BLACK
6
CONTINUOUS
10
107.426
20
-33.2289
11
107.426
21
-33.8271
0
LINE
8
BLACK
6
CONTINUOUS
10
107.426
20
-33.8271
11
107.412
21
-33.974
0
LINE
8
BLACK
6
CONTINUOUS
10
107.412
20
-33.974
11
107.354
21
-34.1625
0
LINE
8
BLACK
6
CONTINUOUS
10
107.354
20
-34.1625
11
107.261
21
-34.3363
0
LINE
8
BLACK
6
CONTINUOUS
10
107.261
20
-34.3363
11
107.137
21
-34.4885
0
LINE
8
BLACK
6
CONTINUOUS
10
107.137
20
-34.4885
11
106.984
21
-34.6135
0
LINE
8
BLACK
6
CONTINUOUS
10
106.984
20
-34.6135
11
106.811
21
-34.7063
0
LINE
8
BLACK
6
CONTINUOUS
10
106.811
20
-34.7063
11
106.622
21
-34.7635
0
LINE
8
BLACK
6
CONTINUOUS
10
106.622
20
-34.7635
11
106.426
21
-34.7828
0
LINE
8
BLACK
6
CONTINUOUS
10
106.426
20
-34.7828
11
106.23
21
-34.7635
0
LINE
8
BLACK
6
CONTINUOUS
10
106.23
20
-34.7635
11
106.041
21
-34.7063
0
LINE
8
BLACK
6
CONTINUOUS
10
106.041
20
-34.7063
11
105.868
21
-34.6135
0
LINE
8
BLACK
6
CONTINUOUS
10
105.868
20
-34.6135
11
105.715
21
-34.4885
0
LINE
8
BLACK
6
CONTINUOUS
10
105.715
20
-34.4885
11
105.591
21
-34.3363
0
LINE
8
BLACK
6
CONTINUOUS
10
105.591
20
-34.3363
11
105.498
21
-34.1625
0
LINE
8
BLACK
6
CONTINUOUS
10
105.498
20
-34.1625
11
105.44
21
-33.974
0
LINE
8
BLACK
6
CONTINUOUS
10
105.44
20
-33.974
11
105.426
21
-33.8271
0
LINE
8
BLACK
6
CONTINUOUS
10
105.426
20
-33.8271
11
105.426
21
-33.2289
0
LINE
8
BLACK
6
CONTINUOUS
10
105.426
20
-33.2289
11
105.44
21
-33.082
0
LINE
8
BLACK
6
CONTINUOUS
10
105.44
20
-33.082
11
105.498
21
-32.8935
0
LINE
8
BLACK
6
CONTINUOUS
10
105.498
20
-32.8935
11
105.591
21
-32.7197
0
LINE
8
BLACK
6
CONTINUOUS
10
105.591
20
-32.7197
11
105.715
21
-32.5675
0
LINE
8
BLACK
6
CONTINUOUS
10
105.715
20
-32.5675
11
105.868
21
-32.4425
0
LINE
8
BLACK
6
CONTINUOUS
10
105.868
20
-32.4425
11
106.041
21
-32.3497
0
LINE
8
BLACK
6
CONTINUOUS
10
106.041
20
-32.3497
11
106.23
21
-32.2925
0
LINE
8
BLACK
6
CONTINUOUS
10
106.23
20
-32.2925
11
106.426
21
-32.2732
0
LINE
8
BLACK
6
CONTINUOUS
10
106.426
20
-32.2732
11
106.622
21
-32.2925
0
LINE
8
BLACK
6
CONTINUOUS
10
119.322
20
-32.2925
11
119.511
21
-32.3497
0
LINE
8
BLACK
6
CONTINUOUS
10
119.511
20
-32.3497
11
119.684
21
-32.4425
0
LINE
8
BLACK
6
CONTINUOUS
10
119.684
20
-32.4425
11
119.837
21
-32.5675
0
LINE
8
BLACK
6
CONTINUOUS
10
119.837
20
-32.5675
11
119.961
21
-32.7197
0
LINE
8
BLACK
6
CONTINUOUS
10
119.961
20
-32.7197
11
120.054
21
-32.8935
0
LINE
8
BLACK
6
CONTINUOUS
10
120.054
20
-32.8935
11
120.112
21
-33.082
0
LINE
8
BLACK
6
CONTINUOUS
10
120.112
20
-33.082
11
120.126
21
-33.2289
0
LINE
8
BLACK
6
CONTINUOUS
10
120.126
20
-33.2289
11
120.126
21
-33.8271
0
LINE
8
BLACK
6
CONTINUOUS
10
120.126
20
-33.8271
11
120.112
21
-33.974
0
LINE
8
BLACK
6
CONTINUOUS
10
120.112
20
-33.974
11
120.054
21
-34.1625
0
LINE
8
BLACK
6
CONTINUOUS
10
120.054
20
-34.1625
11
119.961
21
-34.3363
0
LINE
8
BLACK
6
CONTINUOUS
10
119.961
20
-34.3363
11
119.837
21
-34.4885
0
LINE
8
BLACK
6
CONTINUOUS
10
119.837
20
-34.4885
11
119.684
21
-34.6135
0
LINE
8
BLACK
6
CONTINUOUS
10
119.684
20
-34.6135
11
119.511
21
-34.7063
0
LINE
8
BLACK
6
CONTINUOUS
10
119.511
20
-34.7063
11
119.322
21
-34.7635
0
LINE
8
BLACK
6
CONTINUOUS
10
119.322
20
-34.7635
11
119.126
21
-34.7828
0
LINE
8
BLACK
6
CONTINUOUS
10
119.126
20
-34.7828
11
118.93
21
-34.7635
0
LINE
8
BLACK
6
CONTINUOUS
10
118.93
20
-34.7635
11
118.741
21
-34.7063
0
LINE
8
BLACK
6
CONTINUOUS
10
118.741
20
-34.7063
11
118.568
21
-34.6135
0
LINE
8
BLACK
6
CONTINUOUS
10
118.568
20
-34.6135
11
118.415
21
-34.4885
0
LINE
8
BLACK
6
CONTINUOUS
10
118.415
20
-34.4885
11
118.291
21
-34.3363
0
LINE
8
BLACK
6
CONTINUOUS
10
118.291
20
-34.3363
11
118.198
21
-34.1625
0
LINE
8
BLACK
6
CONTINUOUS
10
118.198
20
-34.1625
11
118.14
21
-33.974
0
LINE
8
BLACK
6
CONTINUOUS
10
118.14
20
-33.974
11
118.126
21
-33.8271
0
LINE
8
BLACK
6
CONTINUOUS
10
118.126
20
-33.8271
11
118.126
21
-33.2289
0
LINE
8
BLACK
6
CONTINUOUS
10
118.126
20
-33.2289
11
118.14
21
-33.082
0
LINE
8
BLACK
6
CONTINUOUS
10
118.14
20
-33.082
11
118.198
21
-32.8935
0
LINE
8
BLACK
6
CONTINUOUS
10
118.198
20
-32.8935
11
118.291
21
-32.7197
0
LINE
8
BLACK
6
CONTINUOUS
10
118.291
20
-32.7197
11
118.415
21
-32.5675
0
LINE
8
BLACK
6
CONTINUOUS
10
118.415
20
-32.5675
11
118.568
21
-32.4425
0
LINE
8
BLACK
6
CONTINUOUS
10
118.568
20
-32.4425
11
118.741
21
-32.3497
0
LINE
8
BLACK
6
CONTINUOUS
10
118.741
20
-32.3497
11
118.93
21
-32.2925
0
LINE
8
BLACK
6
CONTINUOUS
10
118.93
20
-32.2925
11
119.126
21
-32.2732
0
LINE
8
BLACK
6
CONTINUOUS
10
119.126
20
-32.2732
11
119.322
21
-32.2925
0
LINE
8
BLACK
6
CONTINUOUS
10
116.782
20
-32.2925
11
116.971
21
-32.3497
0
LINE
8
BLACK
6
CONTINUOUS
10
116.971
20
-32.3497
11
117.144
21
-32.4425
0
LINE
8
BLACK
6
CONTINUOUS
10
117.144
20
-32.4425
11
117.297
21
-32.5675
0
LINE
8
BLACK
6
CONTINUOUS
10
117.297
20
-32.5675
11
117.421
21
-32.7197
0
LINE
8
BLACK
6
CONTINUOUS
10
117.421
20
-32.7197
11
117.514
21
-32.8935
0
LINE
8
BLACK
6
CONTINUOUS
10
117.514
20
-32.8935
11
117.572
21
-33.082
0
LINE
8
BLACK
6
CONTINUOUS
10
117.572
20
-33.082
11
117.586
21
-33.2289
0
LINE
8
BLACK
6
CONTINUOUS
10
117.586
20
-33.2289
11
117.586
21
-33.8271
0
LINE
8
BLACK
6
CONTINUOUS
10
117.586
20
-33.8271
11
117.572
21
-33.974
0
LINE
8
BLACK
6
CONTINUOUS
10
117.572
20
-33.974
11
117.514
21
-34.1625
0
LINE
8
BLACK
6
CONTINUOUS
10
117.514
20
-34.1625
11
117.421
21
-34.3363
0
LINE
8
BLACK
6
CONTINUOUS
10
117.421
20
-34.3363
11
117.297
21
-34.4885
0
LINE
8
BLACK
6
CONTINUOUS
10
117.297
20
-34.4885
11
117.144
21
-34.6135
0
LINE
8
BLACK
6
CONTINUOUS
10
117.144
20
-34.6135
11
116.971
21
-34.7063
0
LINE
8
BLACK
6
CONTINUOUS
10
116.971
20
-34.7063
11
116.782
21
-34.7635
0
LINE
8
BLACK
6
CONTINUOUS
10
116.782
20
-34.7635
11
116.586
21
-34.7828
0
LINE
8
BLACK
6
CONTINUOUS
10
116.586
20
-34.7828
11
116.39
21
-34.7635
0
LINE
8
BLACK
6
CONTINUOUS
10
116.39
20
-34.7635
11
116.201
21
-34.7063
0
LINE
8
BLACK
6
CONTINUOUS
10
116.201
20
-34.7063
11
116.028
21
-34.6135
0
LINE
8
BLACK
6
CONTINUOUS
10
116.028
20
-34.6135
11
115.875
21
-34.4885
0
LINE
8
BLACK
6
CONTINUOUS
10
115.875
20
-34.4885
11
115.751
21
-34.3363
0
LINE
8
BLACK
6
CONTINUOUS
10
115.751
20
-34.3363
11
115.658
21
-34.1625
0
LINE
8
BLACK
6
CONTINUOUS
10
115.658
20
-34.1625
11
115.6
21
-33.974
0
LINE
8
BLACK
6
CONTINUOUS
10
115.6
20
-33.974
11
115.586
21
-33.8271
0
LINE
8
BLACK
6
CONTINUOUS
10
115.586
20
-33.8271
11
115.586
21
-33.2289
0
LINE
8
BLACK
6
CONTINUOUS
10
115.586
20
-33.2289
11
115.6
21
-33.082
0
LINE
8
BLACK
6
CONTINUOUS
10
115.6
20
-33.082
11
115.658
21
-32.8935
0
LINE
8
BLACK
6
CONTINUOUS
10
115.658
20
-32.8935
11
115.751
21
-32.7197
0
LINE
8
BLACK
6
CONTINUOUS
10
115.751
20
-32.7197
11
115.875
21
-32.5675
0
LINE
8
BLACK
6
CONTINUOUS
10
115.875
20
-32.5675
11
116.028
21
-32.4425
0
LINE
8
BLACK
6
CONTINUOUS
10
116.028
20
-32.4425
11
116.201
21
-32.3497
0
LINE
8
BLACK
6
CONTINUOUS
10
116.201
20
-32.3497
11
116.39
21
-32.2925
0
LINE
8
BLACK
6
CONTINUOUS
10
116.39
20
-32.2925
11
116.586
21
-32.2732
0
LINE
8
BLACK
6
CONTINUOUS
10
116.586
20
-32.2732
11
116.782
21
-32.2925
0
LINE
8
BLACK
6
CONTINUOUS
10
114.242
20
-32.2925
11
114.431
21
-32.3497
0
LINE
8
BLACK
6
CONTINUOUS
10
114.431
20
-32.3497
11
114.604
21
-32.4425
0
LINE
8
BLACK
6
CONTINUOUS
10
114.604
20
-32.4425
11
114.757
21
-32.5675
0
LINE
8
BLACK
6
CONTINUOUS
10
114.757
20
-32.5675
11
114.881
21
-32.7197
0
LINE
8
BLACK
6
CONTINUOUS
10
114.881
20
-32.7197
11
114.974
21
-32.8935
0
LINE
8
BLACK
6
CONTINUOUS
10
114.974
20
-32.8935
11
115.032
21
-33.082
0
LINE
8
BLACK
6
CONTINUOUS
10
115.032
20
-33.082
11
115.046
21
-33.2289
0
LINE
8
BLACK
6
CONTINUOUS
10
115.046
20
-33.2289
11
115.046
21
-33.8271
0
LINE
8
BLACK
6
CONTINUOUS
10
115.046
20
-33.8271
11
115.032
21
-33.974
0
LINE
8
BLACK
6
CONTINUOUS
10
115.032
20
-33.974
11
114.974
21
-34.1625
0
LINE
8
BLACK
6
CONTINUOUS
10
114.974
20
-34.1625
11
114.881
21
-34.3363
0
LINE
8
BLACK
6
CONTINUOUS
10
114.881
20
-34.3363
11
114.757
21
-34.4885
0
LINE
8
BLACK
6
CONTINUOUS
10
114.757
20
-34.4885
11
114.604
21
-34.6135
0
LINE
8
BLACK
6
CONTINUOUS
10
114.604
20
-34.6135
11
114.431
21
-34.7063
0
LINE
8
BLACK
6
CONTINUOUS
10
114.431
20
-34.7063
11
114.242
21
-34.7635
0
LINE
8
BLACK
6
CONTINUOUS
10
114.242
20
-34.7635
11
114.046
21
-34.7828
0
LINE
8
BLACK
6
CONTINUOUS
10
114.046
20
-34.7828
11
113.85
21
-34.7635
0
LINE
8
BLACK
6
CONTINUOUS
10
113.85
20
-34.7635
11
113.661
21
-34.7063
0
LINE
8
BLACK
6
CONTINUOUS
10
113.661
20
-34.7063
11
113.488
21
-34.6135
0
LINE
8
BLACK
6
CONTINUOUS
10
113.488
20
-34.6135
11
113.335
21
-34.4885
0
LINE
8
BLACK
6
CONTINUOUS
10
113.335
20
-34.4885
11
113.211
21
-34.3363
0
LINE
8
BLACK
6
CONTINUOUS
10
113.211
20
-34.3363
11
113.118
21
-34.1625
0
LINE
8
BLACK
6
CONTINUOUS
10
113.118
20
-34.1625
11
113.06
21
-33.974
0
LINE
8
BLACK
6
CONTINUOUS
10
113.06
20
-33.974
11
113.046
21
-33.8271
0
LINE
8
BLACK
6
CONTINUOUS
10
113.046
20
-33.8271
11
113.046
21
-33.2289
0
LINE
8
BLACK
6
CONTINUOUS
10
113.046
20
-33.2289
11
113.06
21
-33.082
0
LINE
8
BLACK
6
CONTINUOUS
10
113.06
20
-33.082
11
113.118
21
-32.8935
0
LINE
8
BLACK
6
CONTINUOUS
10
113.118
20
-32.8935
11
113.211
21
-32.7197
0
LINE
8
BLACK
6
CONTINUOUS
10
113.211
20
-32.7197
11
113.335
21
-32.5675
0
LINE
8
BLACK
6
CONTINUOUS
10
113.335
20
-32.5675
11
113.488
21
-32.4425
0
LINE
8
BLACK
6
CONTINUOUS
10
113.488
20
-32.4425
11
113.661
21
-32.3497
0
LINE
8
BLACK
6
CONTINUOUS
10
113.661
20
-32.3497
11
113.85
21
-32.2925
0
LINE
8
BLACK
6
CONTINUOUS
10
113.85
20
-32.2925
11
114.046
21
-32.2732
0
LINE
8
BLACK
6
CONTINUOUS
10
114.046
20
-32.2732
11
114.242
21
-32.2925
0
LINE
8
BLACK
6
CONTINUOUS
10
111.702
20
-32.2925
11
111.891
21
-32.3497
0
LINE
8
BLACK
6
CONTINUOUS
10
111.891
20
-32.3497
11
112.064
21
-32.4425
0
LINE
8
BLACK
6
CONTINUOUS
10
112.064
20
-32.4425
11
112.217
21
-32.5675
0
LINE
8
BLACK
6
CONTINUOUS
10
112.217
20
-32.5675
11
112.341
21
-32.7197
0
LINE
8
BLACK
6
CONTINUOUS
10
112.341
20
-32.7197
11
112.434
21
-32.8935
0
LINE
8
BLACK
6
CONTINUOUS
10
112.434
20
-32.8935
11
112.492
21
-33.082
0
LINE
8
BLACK
6
CONTINUOUS
10
112.492
20
-33.082
11
112.506
21
-33.2289
0
LINE
8
BLACK
6
CONTINUOUS
10
112.506
20
-33.2289
11
112.506
21
-33.8271
0
LINE
8
BLACK
6
CONTINUOUS
10
112.506
20
-33.8271
11
112.492
21
-33.974
0
LINE
8
BLACK
6
CONTINUOUS
10
112.492
20
-33.974
11
112.434
21
-34.1625
0
LINE
8
BLACK
6
CONTINUOUS
10
112.434
20
-34.1625
11
112.341
21
-34.3363
0
LINE
8
BLACK
6
CONTINUOUS
10
112.341
20
-34.3363
11
112.217
21
-34.4885
0
LINE
8
BLACK
6
CONTINUOUS
10
112.217
20
-34.4885
11
112.064
21
-34.6135
0
LINE
8
BLACK
6
CONTINUOUS
10
112.064
20
-34.6135
11
111.891
21
-34.7063
0
LINE
8
BLACK
6
CONTINUOUS
10
111.891
20
-34.7063
11
111.702
21
-34.7635
0
LINE
8
BLACK
6
CONTINUOUS
10
111.702
20
-34.7635
11
111.506
21
-34.7828
0
LINE
8
BLACK
6
CONTINUOUS
10
111.506
20
-34.7828
11
111.31
21
-34.7635
0
LINE
8
BLACK
6
CONTINUOUS
10
111.31
20
-34.7635
11
111.121
21
-34.7063
0
LINE
8
BLACK
6
CONTINUOUS
10
111.121
20
-34.7063
11
110.948
21
-34.6135
0
LINE
8
BLACK
6
CONTINUOUS
10
110.948
20
-34.6135
11
110.795
21
-34.4885
0
LINE
8
BLACK
6
CONTINUOUS
10
110.795
20
-34.4885
11
110.671
21
-34.3363
0
LINE
8
BLACK
6
CONTINUOUS
10
110.671
20
-34.3363
11
110.578
21
-34.1625
0
LINE
8
BLACK
6
CONTINUOUS
10
110.578
20
-34.1625
11
110.52
21
-33.974
0
LINE
8
BLACK
6
CONTINUOUS
10
110.52
20
-33.974
11
110.506
21
-33.8271
0
LINE
8
BLACK
6
CONTINUOUS
10
110.506
20
-33.8271
11
110.506
21
-33.2289
0
LINE
8
BLACK
6
CONTINUOUS
10
110.506
20
-33.2289
11
110.52
21
-33.082
0
LINE
8
BLACK
6
CONTINUOUS
10
110.52
20
-33.082
11
110.578
21
-32.8935
0
LINE
8
BLACK
6
CONTINUOUS
10
110.578
20
-32.8935
11
110.671
21
-32.7197
0
LINE
8
BLACK
6
CONTINUOUS
10
110.671
20
-32.7197
11
110.795
21
-32.5675
0
LINE
8
BLACK
6
CONTINUOUS
10
110.795
20
-32.5675
11
110.948
21
-32.4425
0
LINE
8
BLACK
6
CONTINUOUS
10
110.948
20
-32.4425
11
111.121
21
-32.3497
0
LINE
8
BLACK
6
CONTINUOUS
10
111.121
20
-32.3497
11
111.31
21
-32.2925
0
LINE
8
BLACK
6
CONTINUOUS
10
111.31
20
-32.2925
11
111.506
21
-32.2732
0
LINE
8
BLACK
6
CONTINUOUS
10
111.506
20
-32.2732
11
111.702
21
-32.2925
0
LINE
8
BLACK
6
CONTINUOUS
10
132.822
20
-33.258
11
130.322
21
-33.258
0
LINE
8
BLACK
6
CONTINUOUS
10
130.322
20
-33.258
11
130.322
21
-31.258
0
LINE
8
BLACK
6
CONTINUOUS
10
130.322
20
-31.258
11
132.822
21
-31.258
0
LINE
8
BLACK
6
CONTINUOUS
10
132.822
20
-31.258
11
132.822
21
-33.258
0
LINE
8
BLACK
6
CONTINUOUS
10
88.114
20
-33.004
11
85.114
21
-33.004
0
LINE
8
BLACK
6
CONTINUOUS
10
85.114
20
-33.004
11
85.114
21
-31.004
0
LINE
8
BLACK
6
CONTINUOUS
10
85.114
20
-31.004
11
88.114
21
-31.004
0
LINE
8
BLACK
6
CONTINUOUS
10
88.114
20
-31.004
11
88.114
21
-33.004
0
LINE
8
BLACK
6
CONTINUOUS
10
137.562
20
-20.1885
11
137.972
21
-20.3581
0
LINE
8
BLACK
6
CONTINUOUS
10
137.972
20
-20.3581
11
138.34
21
-20.6043
0
LINE
8
BLACK
6
CONTINUOUS
10
138.34
20
-20.6043
11
138.654
21
-20.9177
0
LINE
8
BLACK
6
CONTINUOUS
10
138.654
20
-20.9177
11
138.9
21
-21.2862
0
LINE
8
BLACK
6
CONTINUOUS
10
138.9
20
-21.2862
11
139.07
21
-21.6957
0
LINE
8
BLACK
6
CONTINUOUS
10
139.07
20
-21.6957
11
139.156
21
-22.1304
0
LINE
8
BLACK
6
CONTINUOUS
10
139.156
20
-22.1304
11
139.156
21
-22.5736
0
LINE
8
BLACK
6
CONTINUOUS
10
139.156
20
-22.5736
11
139.07
21
-23.0083
0
LINE
8
BLACK
6
CONTINUOUS
10
139.07
20
-23.0083
11
138.9
21
-23.4178
0
LINE
8
BLACK
6
CONTINUOUS
10
138.9
20
-23.4178
11
138.654
21
-23.7863
0
LINE
8
BLACK
6
CONTINUOUS
10
138.654
20
-23.7863
11
138.34
21
-24.0997
0
LINE
8
BLACK
6
CONTINUOUS
10
138.34
20
-24.0997
11
137.972
21
-24.3459
0
LINE
8
BLACK
6
CONTINUOUS
10
137.972
20
-24.3459
11
137.562
21
-24.5155
0
LINE
8
BLACK
6
CONTINUOUS
10
137.562
20
-24.5155
11
137.128
21
-24.602
0
LINE
8
BLACK
6
CONTINUOUS
10
137.128
20
-24.602
11
136.684
21
-24.602
0
LINE
8
BLACK
6
CONTINUOUS
10
136.684
20
-24.602
11
136.25
21
-24.5155
0
LINE
8
BLACK
6
CONTINUOUS
10
136.25
20
-24.5155
11
135.84
21
-24.3459
0
LINE
8
BLACK
6
CONTINUOUS
10
135.84
20
-24.3459
11
135.472
21
-24.0997
0
LINE
8
BLACK
6
CONTINUOUS
10
135.472
20
-24.0997
11
135.158
21
-23.7863
0
LINE
8
BLACK
6
CONTINUOUS
10
135.158
20
-23.7863
11
134.912
21
-23.4178
0
LINE
8
BLACK
6
CONTINUOUS
10
134.912
20
-23.4178
11
134.742
21
-23.0083
0
LINE
8
BLACK
6
CONTINUOUS
10
134.742
20
-23.0083
11
134.656
21
-22.5736
0
LINE
8
BLACK
6
CONTINUOUS
10
134.656
20
-22.5736
11
134.656
21
-22.1304
0
LINE
8
BLACK
6
CONTINUOUS
10
134.656
20
-22.1304
11
134.742
21
-21.6957
0
LINE
8
BLACK
6
CONTINUOUS
10
134.742
20
-21.6957
11
134.912
21
-21.2862
0
LINE
8
BLACK
6
CONTINUOUS
10
134.912
20
-21.2862
11
135.158
21
-20.9177
0
LINE
8
BLACK
6
CONTINUOUS
10
135.158
20
-20.9177
11
135.472
21
-20.6043
0
LINE
8
BLACK
6
CONTINUOUS
10
135.472
20
-20.6043
11
135.84
21
-20.3581
0
LINE
8
BLACK
6
CONTINUOUS
10
135.84
20
-20.3581
11
136.25
21
-20.1885
0
LINE
8
BLACK
6
CONTINUOUS
10
136.25
20
-20.1885
11
136.684
21
-20.102
0
LINE
8
BLACK
6
CONTINUOUS
10
136.684
20
-20.102
11
137.128
21
-20.102
0
LINE
8
BLACK
6
CONTINUOUS
10
137.128
20
-20.102
11
137.562
21
-20.1885
0
LINE
8
BLACK
6
CONTINUOUS
10
83.9683
20
-19.9345
11
84.3778
21
-20.1041
0
LINE
8
BLACK
6
CONTINUOUS
10
84.3778
20
-20.1041
11
84.7463
21
-20.3503
0
LINE
8
BLACK
6
CONTINUOUS
10
84.7463
20
-20.3503
11
85.0597
21
-20.6637
0
LINE
8
BLACK
6
CONTINUOUS
10
85.0597
20
-20.6637
11
85.3059
21
-21.0322
0
LINE
8
BLACK
6
CONTINUOUS
10
85.3059
20
-21.0322
11
85.4755
21
-21.4417
0
LINE
8
BLACK
6
CONTINUOUS
10
85.4755
20
-21.4417
11
85.562
21
-21.8764
0
LINE
8
BLACK
6
CONTINUOUS
10
85.562
20
-21.8764
11
85.562
21
-22.3196
0
LINE
8
BLACK
6
CONTINUOUS
10
85.562
20
-22.3196
11
85.4755
21
-22.7543
0
LINE
8
BLACK
6
CONTINUOUS
10
85.4755
20
-22.7543
11
85.3059
21
-23.1638
0
LINE
8
BLACK
6
CONTINUOUS
10
85.3059
20
-23.1638
11
85.0597
21
-23.5323
0
LINE
8
BLACK
6
CONTINUOUS
10
85.0597
20
-23.5323
11
84.7463
21
-23.8457
0
LINE
8
BLACK
6
CONTINUOUS
10
84.7463
20
-23.8457
11
84.3778
21
-24.0919
0
LINE
8
BLACK
6
CONTINUOUS
10
84.3778
20
-24.0919
11
83.9683
21
-24.2615
0
LINE
8
BLACK
6
CONTINUOUS
10
83.9683
20
-24.2615
11
83.5336
21
-24.348
0
LINE
8
BLACK
6
CONTINUOUS
10
83.5336
20
-24.348
11
83.0904
21
-24.348
0
LINE
8
BLACK
6
CONTINUOUS
10
83.0904
20
-24.348
11
82.6557
21
-24.2615
0
LINE
8
BLACK
6
CONTINUOUS
10
82.6557
20
-24.2615
11
82.2462
21
-24.0919
0
LINE
8
BLACK
6
CONTINUOUS
10
82.2462
20
-24.0919
11
81.8777
21
-23.8457
0
LINE
8
BLACK
6
CONTINUOUS
10
81.8777
20
-23.8457
11
81.5643
21
-23.5323
0
LINE
8
BLACK
6
CONTINUOUS
10
81.5643
20
-23.5323
11
81.3181
21
-23.1638
0
LINE
8
BLACK
6
CONTINUOUS
10
81.3181
20
-23.1638
11
81.1485
21
-22.7543
0
LINE
8
BLACK
6
CONTINUOUS
10
81.1485
20
-22.7543
11
81.062
21
-22.3196
0
LINE
8
BLACK
6
CONTINUOUS
10
81.062
20
-22.3196
11
81.062
21
-21.8764
0
LINE
8
BLACK
6
CONTINUOUS
10
81.062
20
-21.8764
11
81.1485
21
-21.4417
0
LINE
8
BLACK
6
CONTINUOUS
10
81.1485
20
-21.4417
11
81.3181
21
-21.0322
0
LINE
8
BLACK
6
CONTINUOUS
10
81.3181
20
-21.0322
11
81.5643
21
-20.6637
0
LINE
8
BLACK
6
CONTINUOUS
10
81.5643
20
-20.6637
11
81.8777
21
-20.3503
0
LINE
8
BLACK
6
CONTINUOUS
10
81.8777
20
-20.3503
11
82.2462
21
-20.1041
0
LINE
8
BLACK
6
CONTINUOUS
10
82.2462
20
-20.1041
11
82.6557
21
-19.9345
0
LINE
8
BLACK
6
CONTINUOUS
10
82.6557
20
-19.9345
11
83.0904
21
-19.848
0
LINE
8
BLACK
6
CONTINUOUS
10
83.0904
20
-19.848
11
83.5336
21
-19.848
0
LINE
8
BLACK
6
CONTINUOUS
10
83.5336
20
-19.848
11
83.9683
21
-19.9345
0
CIRCLE
8
BLACK
10
136.906
20
-89.154
40
1
0
CIRCLE
8
BLACK
10
82.296
20
-89.916
40
1
0
CIRCLE
8
BLACK
10
83.312
20
-22.098
40
1
0
CIRCLE
8
BLACK
10
136.906
20
-22.352
40
1
0
CIRCLE
8
BLACK
10
116.84
20
-57.658
40
0.4
0
CIRCLE
8
BLACK
10
123.698
20
-41.91
40
0.4
0
CIRCLE
8
BLACK
10
123.444
20
-54.102
40
0.4
0
CIRCLE
8
BLACK
10
122.682
20
-34.544
40
0.4
0
CIRCLE
8
BLACK
10
121.92
20
-58.42
40
0.4
0
CIRCLE
8
BLACK
10
116.078
20
-49.53
40
0.4
0
CIRCLE
8
BLACK
10
98.044
20
-45.72
40
0.4
0
CIRCLE
8
BLACK
10
98.044
20
-50.546
40
0.4
  0
ENDSEC
  0
EOF
