G04 #@! TF.GenerationSoftware,KiCad,Pcbnew,(5.1.2)-2*
G04 #@! TF.CreationDate,2020-05-01T16:22:05+07:00*
G04 #@! TF.ProjectId,l298n,6c323938-6e2e-46b6-9963-61645f706362,rev?*
G04 #@! TF.SameCoordinates,Original*
G04 #@! TF.FileFunction,Copper,L1,Top*
G04 #@! TF.FilePolarity,Positive*
%FSLAX46Y46*%
G04 Gerber Fmt 4.6, Leading zero omitted, Abs format (unit mm)*
G04 Created by KiCad (PCBNEW (5.1.2)-2) date 2020-05-01 16:22:05*
%MOMM*%
%LPD*%
G04 APERTURE LIST*
%ADD10R,3.000000X2.000000*%
%ADD11O,2.000000X2.500000*%
%ADD12R,2.500000X2.000000*%
%ADD13C,2.000000*%
%ADD14R,1.800000X1.800000*%
%ADD15C,1.800000*%
%ADD16R,3.000000X3.000000*%
%ADD17C,3.000000*%
%ADD18R,2.000000X2.500000*%
%ADD19C,2.800000*%
%ADD20O,2.800000X2.800000*%
%ADD21R,2.400000X2.400000*%
%ADD22O,2.400000X2.400000*%
%ADD23C,4.500000*%
%ADD24C,2.500000*%
%ADD25C,1.000000*%
%ADD26C,0.250000*%
G04 APERTURE END LIST*
D10*
X94234000Y-39624000D03*
X94234000Y-37084000D03*
X94234000Y-34544000D03*
X94234000Y-32004000D03*
D11*
X115570000Y-44196000D03*
X113030000Y-44196000D03*
X110490000Y-44196000D03*
X107950000Y-44196000D03*
D12*
X131572000Y-39878000D03*
X131572000Y-37338000D03*
X131572000Y-34798000D03*
X131572000Y-32258000D03*
D11*
X102616000Y-38608000D03*
X103886000Y-33528000D03*
X105156000Y-38608000D03*
X106426000Y-33528000D03*
X107696000Y-38608000D03*
X108966000Y-33528000D03*
X110236000Y-38608000D03*
X111506000Y-33528000D03*
X112776000Y-38608000D03*
X114046000Y-33528000D03*
X115316000Y-38608000D03*
X116586000Y-33528000D03*
X117856000Y-38608000D03*
X119126000Y-33528000D03*
X120396000Y-38608000D03*
D13*
X109982000Y-80264000D03*
X107482000Y-80264000D03*
X112522000Y-80264000D03*
X115022000Y-80264000D03*
X119888000Y-80264000D03*
X117388000Y-80264000D03*
X99822000Y-80264000D03*
X97322000Y-80264000D03*
X102362000Y-80264000D03*
X104862000Y-80264000D03*
D14*
X86614000Y-81788000D03*
D15*
X86614000Y-84328000D03*
D16*
X126238000Y-81026000D03*
D17*
X131318000Y-81026000D03*
D18*
X101600000Y-86360000D03*
X104140000Y-86360000D03*
X106680000Y-86360000D03*
X109220000Y-86360000D03*
D12*
X86360000Y-59944000D03*
X86360000Y-62484000D03*
X86360000Y-65024000D03*
X86360000Y-67564000D03*
X86360000Y-70104000D03*
X86360000Y-72644000D03*
X131572000Y-72136000D03*
X131572000Y-69596000D03*
X131572000Y-67056000D03*
X131572000Y-64516000D03*
X131572000Y-61976000D03*
X131572000Y-59436000D03*
D19*
X92710000Y-80264000D03*
D20*
X92710000Y-85344000D03*
D10*
X86614000Y-32004000D03*
X86614000Y-34544000D03*
X86614000Y-37084000D03*
X86614000Y-39624000D03*
D21*
X111252000Y-71628000D03*
D22*
X126492000Y-71628000D03*
D21*
X90883001Y-57841001D03*
D22*
X106123001Y-57841001D03*
X126583001Y-50697001D03*
D21*
X111343001Y-50697001D03*
D22*
X106123001Y-64731001D03*
D21*
X90883001Y-64731001D03*
X111343001Y-57587001D03*
D22*
X126583001Y-57587001D03*
D21*
X90883001Y-71621001D03*
D22*
X106123001Y-71621001D03*
X126583001Y-64477001D03*
D21*
X111343001Y-64477001D03*
D22*
X105918000Y-50546000D03*
D21*
X90678000Y-50546000D03*
D23*
X136906000Y-89154000D03*
X82296000Y-89916000D03*
X83312000Y-22098000D03*
X136906000Y-22352000D03*
D24*
X116840000Y-57658000D03*
D13*
X123698000Y-41910000D03*
X123444000Y-54102000D03*
X122682000Y-34544000D03*
X121920000Y-58420000D03*
D24*
X116078000Y-49530000D03*
D13*
X98044000Y-45720000D03*
X98044000Y-50546000D03*
D25*
X123698000Y-53848000D02*
X123444000Y-54102000D01*
X123698000Y-41910000D02*
X123698000Y-53848000D01*
X116078000Y-56896000D02*
X116840000Y-57658000D01*
X116078000Y-49530000D02*
X116078000Y-56896000D01*
X98044000Y-45720000D02*
X98044000Y-50546000D01*
D26*
X96046182Y-37084000D02*
X94234000Y-37084000D01*
X105183201Y-46221019D02*
X96046182Y-37084000D01*
X112504980Y-46221020D02*
X105183201Y-46221019D01*
X113030000Y-44196000D02*
X113030000Y-45696000D01*
X113030000Y-45696000D02*
X112504980Y-46221020D01*
D25*
X121920000Y-57005787D02*
X121920000Y-58420000D01*
X121743999Y-56829786D02*
X121920000Y-57005787D01*
X121743999Y-41347999D02*
X121743999Y-56829786D01*
X122682000Y-40409998D02*
X121743999Y-41347999D01*
X122682000Y-34544000D02*
X122682000Y-40409998D01*
D26*
X105369602Y-45771010D02*
X100584000Y-40985408D01*
X110414990Y-45771010D02*
X105369602Y-45771010D01*
X110490000Y-44196000D02*
X110490000Y-45696000D01*
X110490000Y-45696000D02*
X110414990Y-45771010D01*
X100584000Y-40985408D02*
X100584000Y-37846000D01*
X97282000Y-34544000D02*
X94234000Y-34544000D01*
X100584000Y-37846000D02*
X97282000Y-34544000D01*
X94734000Y-39624000D02*
X94234000Y-39624000D01*
X101781029Y-46671029D02*
X94734000Y-39624000D01*
X113344971Y-46671029D02*
X101781029Y-46671029D01*
X115570000Y-44446000D02*
X113344971Y-46671029D01*
X115570000Y-44196000D02*
X115570000Y-44446000D01*
X104431002Y-44196000D02*
X101092000Y-40856998D01*
X107950000Y-44196000D02*
X104431002Y-44196000D01*
X101092000Y-40856998D02*
X101092000Y-36830000D01*
X96266000Y-32004000D02*
X94234000Y-32004000D01*
X101092000Y-36830000D02*
X96266000Y-32004000D01*
M02*
