  0
SECTION
  2
HEADER
  9
$ANGBASE
  50
0.0
  9
$ANGDIR
  70
  1
  9
$MEASUREMENT
  70
0
  0
ENDSEC
  0
SECTION
  2
TABLES
  0
TABLE
  2
LTYPE
  70
4
  0
LTYPE
  5
40F
  2
CONTINUOUS
  70
0
  3
Solid line
  72
65
  73
0
  40
0.0
  0
LTYPE
  5
410
  2
DASHDOT
 70
0
  3
Dash Dot ____ _ ____ _
 72
65
 73
4
 40
2.0
 49
1.25
 49
-0.25
 49
0.25
 49
-0.25
  0
LTYPE
  5
411
  2
DASHED
 70
0
  3
Dashed __ __ __ __ __
 72
65
 73
2
 40
0.75
 49
0.5
 49
-0.25
  0
LTYPE
  5
43B
  2
DOTTED
 70
0
  3
Dotted .  .  .  .
 72
65
 73
2
 40
0.2
 49
0.0
 49
-0.2
  0
ENDTAB
  0
TABLE
  2
STYLE
  70
4
  0
STYLE
  2
KICAD
  70
0
  40
0
  41
1
  42
1
  50
0
  71
0
  3
isocp.shx
  0
STYLE
  2
KICADB
  70
0
  40
0
  41
1
  42
1
  50
0
  71
0
  3
isocp.shx
  0
STYLE
  2
KICADI
  70
0
  40
0
  41
1
  42
1
  50
15
  71
0
  3
isocp.shx
  0
STYLE
  2
KICADBI
  70
0
  40
0
  41
1
  42
1
  50
15
  71
0
  3
isocp.shx
  0
ENDTAB
  0
TABLE
  2
LAYER
  70
30
  0
LAYER
  2
BLACK
  70
0
  62
7
  6
CONTINUOUS
  0
LAYER
  2
GRAY1
  70
0
  62
251
  6
CONTINUOUS
  0
LAYER
  2
GRAY2
  70
0
  62
8
  6
CONTINUOUS
  0
LAYER
  2
GRAY3
  70
0
  62
9
  6
CONTINUOUS
  0
LAYER
  2
WHITE
  70
0
  62
7
  6
CONTINUOUS
  0
LAYER
  2
LYELLOW
  70
0
  62
51
  6
CONTINUOUS
  0
LAYER
  2
BLUE1
  70
0
  62
178
  6
CONTINUOUS
  0
LAYER
  2
GREEN1
  70
0
  62
98
  6
CONTINUOUS
  0
LAYER
  2
CYAN1
  70
0
  62
138
  6
CONTINUOUS
  0
LAYER
  2
RED1
  70
0
  62
18
  6
CONTINUOUS
  0
LAYER
  2
MAGENTA1
  70
0
  62
228
  6
CONTINUOUS
  0
LAYER
  2
BROWN1
  70
0
  62
58
  6
CONTINUOUS
  0
LAYER
  2
BLUE2
  70
0
  62
5
  6
CONTINUOUS
  0
LAYER
  2
GREEN2
  70
0
  62
3
  6
CONTINUOUS
  0
LAYER
  2
CYAN2
  70
0
  62
4
  6
CONTINUOUS
  0
LAYER
  2
RED2
  70
0
  62
1
  6
CONTINUOUS
  0
LAYER
  2
MAGENTA2
  70
0
  62
6
  6
CONTINUOUS
  0
LAYER
  2
BROWN2
  70
0
  62
54
  6
CONTINUOUS
  0
LAYER
  2
BLUE3
  70
0
  62
171
  6
CONTINUOUS
  0
LAYER
  2
GREEN3
  70
0
  62
91
  6
CONTINUOUS
  0
LAYER
  2
CYAN3
  70
0
  62
131
  6
CONTINUOUS
  0
LAYER
  2
RED3
  70
0
  62
11
  6
CONTINUOUS
  0
LAYER
  2
MAGENTA3
  70
0
  62
221
  6
CONTINUOUS
  0
LAYER
  2
YELLOW3
  70
0
  62
2
  6
CONTINUOUS
  0
LAYER
  2
BLUE4
  70
0
  62
5
  6
CONTINUOUS
  0
LAYER
  2
GREEN4
  70
0
  62
3
  6
CONTINUOUS
  0
LAYER
  2
CYAN4
  70
0
  62
4
  6
CONTINUOUS
  0
LAYER
  2
RED4
  70
0
  62
1
  6
CONTINUOUS
  0
LAYER
  2
MAGENTA4
  70
0
  62
6
  6
CONTINUOUS
  0
LAYER
  2
YELLOW4
  70
0
  62
2
  6
CONTINUOUS
  0
ENDTAB
  0
ENDSEC
  0
SECTION
  2
ENTITIES
0
LINE
8
BLACK
6
CONTINUOUS
10
110.271
20
-87.661
11
108.169
21
-87.661
0
LINE
8
BLACK
6
CONTINUOUS
10
108.169
20
-87.661
11
108.169
21
-85.059
0
LINE
8
BLACK
6
CONTINUOUS
10
108.169
20
-85.059
11
110.271
21
-85.059
0
LINE
8
BLACK
6
CONTINUOUS
10
110.271
20
-85.059
11
110.271
21
-87.661
0
LINE
8
BLACK
6
CONTINUOUS
10
107.731
20
-87.661
11
105.629
21
-87.661
0
LINE
8
BLACK
6
CONTINUOUS
10
105.629
20
-87.661
11
105.629
21
-85.059
0
LINE
8
BLACK
6
CONTINUOUS
10
105.629
20
-85.059
11
107.731
21
-85.059
0
LINE
8
BLACK
6
CONTINUOUS
10
107.731
20
-85.059
11
107.731
21
-87.661
0
LINE
8
BLACK
6
CONTINUOUS
10
102.651
20
-87.661
11
100.549
21
-87.661
0
LINE
8
BLACK
6
CONTINUOUS
10
100.549
20
-87.661
11
100.549
21
-85.059
0
LINE
8
BLACK
6
CONTINUOUS
10
100.549
20
-85.059
11
102.651
21
-85.059
0
LINE
8
BLACK
6
CONTINUOUS
10
102.651
20
-85.059
11
102.651
21
-87.661
0
LINE
8
BLACK
6
CONTINUOUS
10
105.191
20
-87.661
11
103.089
21
-87.661
0
LINE
8
BLACK
6
CONTINUOUS
10
103.089
20
-87.661
11
103.089
21
-85.059
0
LINE
8
BLACK
6
CONTINUOUS
10
103.089
20
-85.059
11
105.191
21
-85.059
0
LINE
8
BLACK
6
CONTINUOUS
10
105.191
20
-85.059
11
105.191
21
-87.661
0
LINE
8
BLACK
6
CONTINUOUS
10
92.8879
20
-83.9035
11
92.9944
21
-83.914
0
LINE
8
BLACK
6
CONTINUOUS
10
92.9944
20
-83.914
11
93.268
21
-83.997
0
LINE
8
BLACK
6
CONTINUOUS
10
93.268
20
-83.997
11
93.268
21
-83.997
0
LINE
8
BLACK
6
CONTINUOUS
10
93.268
20
-83.997
11
93.52
21
-84.1317
0
LINE
8
BLACK
6
CONTINUOUS
10
93.52
20
-84.1317
11
93.52
21
-84.1317
0
LINE
8
BLACK
6
CONTINUOUS
10
93.52
20
-84.1317
11
93.52
21
-84.1317
0
LINE
8
BLACK
6
CONTINUOUS
10
93.52
20
-84.1317
11
93.741
21
-84.313
0
LINE
8
BLACK
6
CONTINUOUS
10
93.741
20
-84.313
11
93.9223
21
-84.534
0
LINE
8
BLACK
6
CONTINUOUS
10
93.9223
20
-84.534
11
93.9223
21
-84.534
0
LINE
8
BLACK
6
CONTINUOUS
10
93.9223
20
-84.534
11
93.9223
21
-84.534
0
LINE
8
BLACK
6
CONTINUOUS
10
93.9223
20
-84.534
11
94.057
21
-84.786
0
LINE
8
BLACK
6
CONTINUOUS
10
94.057
20
-84.786
11
94.057
21
-84.786
0
LINE
8
BLACK
6
CONTINUOUS
10
94.057
20
-84.786
11
94.14
21
-85.0596
0
LINE
8
BLACK
6
CONTINUOUS
10
94.14
20
-85.0596
11
94.168
21
-85.344
0
LINE
8
BLACK
6
CONTINUOUS
10
94.168
20
-85.344
11
94.14
21
-85.6284
0
LINE
8
BLACK
6
CONTINUOUS
10
94.14
20
-85.6284
11
94.057
21
-85.902
0
LINE
8
BLACK
6
CONTINUOUS
10
94.057
20
-85.902
11
94.057
21
-85.902
0
LINE
8
BLACK
6
CONTINUOUS
10
94.057
20
-85.902
11
93.9223
21
-86.154
0
LINE
8
BLACK
6
CONTINUOUS
10
93.9223
20
-86.154
11
93.9223
21
-86.154
0
LINE
8
BLACK
6
CONTINUOUS
10
93.9223
20
-86.154
11
93.741
21
-86.375
0
LINE
8
BLACK
6
CONTINUOUS
10
93.741
20
-86.375
11
93.52
21
-86.5563
0
LINE
8
BLACK
6
CONTINUOUS
10
93.52
20
-86.5563
11
93.52
21
-86.5563
0
LINE
8
BLACK
6
CONTINUOUS
10
93.52
20
-86.5563
11
93.52
21
-86.5563
0
LINE
8
BLACK
6
CONTINUOUS
10
93.52
20
-86.5563
11
93.268
21
-86.691
0
LINE
8
BLACK
6
CONTINUOUS
10
93.268
20
-86.691
11
93.268
21
-86.691
0
LINE
8
BLACK
6
CONTINUOUS
10
93.268
20
-86.691
11
92.9944
21
-86.774
0
LINE
8
BLACK
6
CONTINUOUS
10
92.9944
20
-86.774
11
92.8879
21
-86.7845
0
LINE
8
BLACK
6
CONTINUOUS
10
92.8879
20
-86.7845
11
92.7813
21
-86.795
0
LINE
8
BLACK
6
CONTINUOUS
10
92.7813
20
-86.795
11
92.6387
21
-86.795
0
LINE
8
BLACK
6
CONTINUOUS
10
92.6387
20
-86.795
11
92.5321
21
-86.7845
0
LINE
8
BLACK
6
CONTINUOUS
10
92.5321
20
-86.7845
11
92.4256
21
-86.774
0
LINE
8
BLACK
6
CONTINUOUS
10
92.4256
20
-86.774
11
92.152
21
-86.691
0
LINE
8
BLACK
6
CONTINUOUS
10
92.152
20
-86.691
11
92.152
21
-86.691
0
LINE
8
BLACK
6
CONTINUOUS
10
92.152
20
-86.691
11
91.9
21
-86.5563
0
LINE
8
BLACK
6
CONTINUOUS
10
91.9
20
-86.5563
11
91.9
21
-86.5563
0
LINE
8
BLACK
6
CONTINUOUS
10
91.9
20
-86.5563
11
91.9
21
-86.5563
0
LINE
8
BLACK
6
CONTINUOUS
10
91.9
20
-86.5563
11
91.679
21
-86.375
0
LINE
8
BLACK
6
CONTINUOUS
10
91.679
20
-86.375
11
91.4977
21
-86.154
0
LINE
8
BLACK
6
CONTINUOUS
10
91.4977
20
-86.154
11
91.4977
21
-86.154
0
LINE
8
BLACK
6
CONTINUOUS
10
91.4977
20
-86.154
11
91.363
21
-85.902
0
LINE
8
BLACK
6
CONTINUOUS
10
91.363
20
-85.902
11
91.363
21
-85.902
0
LINE
8
BLACK
6
CONTINUOUS
10
91.363
20
-85.902
11
91.28
21
-85.6284
0
LINE
8
BLACK
6
CONTINUOUS
10
91.28
20
-85.6284
11
91.252
21
-85.344
0
LINE
8
BLACK
6
CONTINUOUS
10
91.252
20
-85.344
11
91.28
21
-85.0596
0
LINE
8
BLACK
6
CONTINUOUS
10
91.28
20
-85.0596
11
91.363
21
-84.786
0
LINE
8
BLACK
6
CONTINUOUS
10
91.363
20
-84.786
11
91.363
21
-84.786
0
LINE
8
BLACK
6
CONTINUOUS
10
91.363
20
-84.786
11
91.4977
21
-84.534
0
LINE
8
BLACK
6
CONTINUOUS
10
91.4977
20
-84.534
11
91.4977
21
-84.534
0
LINE
8
BLACK
6
CONTINUOUS
10
91.4977
20
-84.534
11
91.4977
21
-84.534
0
LINE
8
BLACK
6
CONTINUOUS
10
91.4977
20
-84.534
11
91.679
21
-84.313
0
LINE
8
BLACK
6
CONTINUOUS
10
91.679
20
-84.313
11
91.9
21
-84.1317
0
LINE
8
BLACK
6
CONTINUOUS
10
91.9
20
-84.1317
11
91.9
21
-84.1317
0
LINE
8
BLACK
6
CONTINUOUS
10
91.9
20
-84.1317
11
91.9
21
-84.1317
0
LINE
8
BLACK
6
CONTINUOUS
10
91.9
20
-84.1317
11
92.152
21
-83.997
0
LINE
8
BLACK
6
CONTINUOUS
10
92.152
20
-83.997
11
92.152
21
-83.997
0
LINE
8
BLACK
6
CONTINUOUS
10
92.152
20
-83.997
11
92.4256
21
-83.914
0
LINE
8
BLACK
6
CONTINUOUS
10
92.4256
20
-83.914
11
92.5321
21
-83.9035
0
LINE
8
BLACK
6
CONTINUOUS
10
92.5321
20
-83.9035
11
92.6387
21
-83.893
0
LINE
8
BLACK
6
CONTINUOUS
10
92.6387
20
-83.893
11
92.7813
21
-83.893
0
LINE
8
BLACK
6
CONTINUOUS
10
92.7813
20
-83.893
11
92.8879
21
-83.9035
0
LINE
8
BLACK
6
CONTINUOUS
10
86.8914
20
-83.4135
11
87.0645
21
-83.4852
0
LINE
8
BLACK
6
CONTINUOUS
10
87.0645
20
-83.4852
11
87.0645
21
-83.4852
0
LINE
8
BLACK
6
CONTINUOUS
10
87.0645
20
-83.4852
11
87.2202
21
-83.5893
0
LINE
8
BLACK
6
CONTINUOUS
10
87.2202
20
-83.5893
11
87.3527
21
-83.7218
0
LINE
8
BLACK
6
CONTINUOUS
10
87.3527
20
-83.7218
11
87.3527
21
-83.7218
0
LINE
8
BLACK
6
CONTINUOUS
10
87.3527
20
-83.7218
11
87.4568
21
-83.8775
0
LINE
8
BLACK
6
CONTINUOUS
10
87.4568
20
-83.8775
11
87.5285
21
-84.0506
0
LINE
8
BLACK
6
CONTINUOUS
10
87.5285
20
-84.0506
11
87.565
21
-84.2343
0
LINE
8
BLACK
6
CONTINUOUS
10
87.565
20
-84.2343
11
87.565
21
-84.4217
0
LINE
8
BLACK
6
CONTINUOUS
10
87.565
20
-84.4217
11
87.5285
21
-84.6054
0
LINE
8
BLACK
6
CONTINUOUS
10
87.5285
20
-84.6054
11
87.4568
21
-84.7785
0
LINE
8
BLACK
6
CONTINUOUS
10
87.4568
20
-84.7785
11
87.4568
21
-84.7785
0
LINE
8
BLACK
6
CONTINUOUS
10
87.4568
20
-84.7785
11
87.3527
21
-84.9342
0
LINE
8
BLACK
6
CONTINUOUS
10
87.3527
20
-84.9342
11
87.2202
21
-85.0667
0
LINE
8
BLACK
6
CONTINUOUS
10
87.2202
20
-85.0667
11
87.1418
21
-85.1191
0
LINE
8
BLACK
6
CONTINUOUS
10
87.1418
20
-85.1191
11
87.0645
21
-85.1708
0
LINE
8
BLACK
6
CONTINUOUS
10
87.0645
20
-85.1708
11
86.8914
21
-85.2425
0
LINE
8
BLACK
6
CONTINUOUS
10
86.8914
20
-85.2425
11
86.7077
21
-85.279
0
LINE
8
BLACK
6
CONTINUOUS
10
86.7077
20
-85.279
11
86.5203
21
-85.279
0
LINE
8
BLACK
6
CONTINUOUS
10
86.5203
20
-85.279
11
86.3366
21
-85.2425
0
LINE
8
BLACK
6
CONTINUOUS
10
86.3366
20
-85.2425
11
86.1635
21
-85.1708
0
LINE
8
BLACK
6
CONTINUOUS
10
86.1635
20
-85.1708
11
86.0862
21
-85.1191
0
LINE
8
BLACK
6
CONTINUOUS
10
86.0862
20
-85.1191
11
86.0078
21
-85.0667
0
LINE
8
BLACK
6
CONTINUOUS
10
86.0078
20
-85.0667
11
85.8753
21
-84.9342
0
LINE
8
BLACK
6
CONTINUOUS
10
85.8753
20
-84.9342
11
85.7712
21
-84.7785
0
LINE
8
BLACK
6
CONTINUOUS
10
85.7712
20
-84.7785
11
85.7712
21
-84.7785
0
LINE
8
BLACK
6
CONTINUOUS
10
85.7712
20
-84.7785
11
85.6995
21
-84.6054
0
LINE
8
BLACK
6
CONTINUOUS
10
85.6995
20
-84.6054
11
85.663
21
-84.4217
0
LINE
8
BLACK
6
CONTINUOUS
10
85.663
20
-84.4217
11
85.663
21
-84.2343
0
LINE
8
BLACK
6
CONTINUOUS
10
85.663
20
-84.2343
11
85.6995
21
-84.0506
0
LINE
8
BLACK
6
CONTINUOUS
10
85.6995
20
-84.0506
11
85.7712
21
-83.8775
0
LINE
8
BLACK
6
CONTINUOUS
10
85.7712
20
-83.8775
11
85.8753
21
-83.7218
0
LINE
8
BLACK
6
CONTINUOUS
10
85.8753
20
-83.7218
11
85.8753
21
-83.7218
0
LINE
8
BLACK
6
CONTINUOUS
10
85.8753
20
-83.7218
11
86.0078
21
-83.5893
0
LINE
8
BLACK
6
CONTINUOUS
10
86.0078
20
-83.5893
11
86.1635
21
-83.4852
0
LINE
8
BLACK
6
CONTINUOUS
10
86.1635
20
-83.4852
11
86.1635
21
-83.4852
0
LINE
8
BLACK
6
CONTINUOUS
10
86.1635
20
-83.4852
11
86.3366
21
-83.4135
0
LINE
8
BLACK
6
CONTINUOUS
10
86.3366
20
-83.4135
11
86.5203
21
-83.377
0
LINE
8
BLACK
6
CONTINUOUS
10
86.5203
20
-83.377
11
86.7077
21
-83.377
0
LINE
8
BLACK
6
CONTINUOUS
10
86.7077
20
-83.377
11
86.8914
21
-83.4135
0
LINE
8
BLACK
6
CONTINUOUS
10
87.565
20
-82.739
11
85.663
21
-82.739
0
LINE
8
BLACK
6
CONTINUOUS
10
85.663
20
-82.739
11
85.663
21
-80.837
0
LINE
8
BLACK
6
CONTINUOUS
10
85.663
20
-80.837
11
87.565
21
-80.837
0
LINE
8
BLACK
6
CONTINUOUS
10
87.565
20
-80.837
11
87.565
21
-82.739
0
LINE
8
BLACK
6
CONTINUOUS
10
131.621
20
-79.5048
11
131.77
21
-79.5346
0
LINE
8
BLACK
6
CONTINUOUS
10
131.77
20
-79.5346
11
132.053
21
-79.6515
0
LINE
8
BLACK
6
CONTINUOUS
10
132.053
20
-79.6515
11
132.307
21
-79.8213
0
LINE
8
BLACK
6
CONTINUOUS
10
132.307
20
-79.8213
11
132.523
21
-80.0373
0
LINE
8
BLACK
6
CONTINUOUS
10
132.523
20
-80.0373
11
132.692
21
-80.2913
0
LINE
8
BLACK
6
CONTINUOUS
10
132.692
20
-80.2913
11
132.808
21
-80.5706
0
LINE
8
BLACK
6
CONTINUOUS
10
132.808
20
-80.5706
11
132.809
21
-80.5736
0
LINE
8
BLACK
6
CONTINUOUS
10
132.809
20
-80.5736
11
132.869
21
-80.8732
0
LINE
8
BLACK
6
CONTINUOUS
10
132.869
20
-80.8732
11
132.869
21
-81.1788
0
LINE
8
BLACK
6
CONTINUOUS
10
132.869
20
-81.1788
11
132.867
21
-81.189
0
LINE
8
BLACK
6
CONTINUOUS
10
132.867
20
-81.189
11
132.809
21
-81.4784
0
LINE
8
BLACK
6
CONTINUOUS
10
132.809
20
-81.4784
11
132.692
21
-81.7607
0
LINE
8
BLACK
6
CONTINUOUS
10
132.692
20
-81.7607
11
132.523
21
-82.0147
0
LINE
8
BLACK
6
CONTINUOUS
10
132.523
20
-82.0147
11
132.307
21
-82.2307
0
LINE
8
BLACK
6
CONTINUOUS
10
132.307
20
-82.2307
11
132.053
21
-82.4005
0
LINE
8
BLACK
6
CONTINUOUS
10
132.053
20
-82.4005
11
131.77
21
-82.5174
0
LINE
8
BLACK
6
CONTINUOUS
10
131.77
20
-82.5174
11
131.621
21
-82.5472
0
LINE
8
BLACK
6
CONTINUOUS
10
131.621
20
-82.5472
11
131.471
21
-82.577
0
LINE
8
BLACK
6
CONTINUOUS
10
131.471
20
-82.577
11
131.165
21
-82.577
0
LINE
8
BLACK
6
CONTINUOUS
10
131.165
20
-82.577
11
131.015
21
-82.5472
0
LINE
8
BLACK
6
CONTINUOUS
10
131.015
20
-82.5472
11
130.866
21
-82.5174
0
LINE
8
BLACK
6
CONTINUOUS
10
130.866
20
-82.5174
11
130.583
21
-82.4005
0
LINE
8
BLACK
6
CONTINUOUS
10
130.583
20
-82.4005
11
130.329
21
-82.2307
0
LINE
8
BLACK
6
CONTINUOUS
10
130.329
20
-82.2307
11
130.113
21
-82.0147
0
LINE
8
BLACK
6
CONTINUOUS
10
130.113
20
-82.0147
11
129.944
21
-81.7607
0
LINE
8
BLACK
6
CONTINUOUS
10
129.944
20
-81.7607
11
129.827
21
-81.4784
0
LINE
8
BLACK
6
CONTINUOUS
10
129.827
20
-81.4784
11
129.769
21
-81.189
0
LINE
8
BLACK
6
CONTINUOUS
10
129.769
20
-81.189
11
129.767
21
-81.1788
0
LINE
8
BLACK
6
CONTINUOUS
10
129.767
20
-81.1788
11
129.767
21
-80.8732
0
LINE
8
BLACK
6
CONTINUOUS
10
129.767
20
-80.8732
11
129.827
21
-80.5736
0
LINE
8
BLACK
6
CONTINUOUS
10
129.827
20
-80.5736
11
129.828
21
-80.5706
0
LINE
8
BLACK
6
CONTINUOUS
10
129.828
20
-80.5706
11
129.944
21
-80.2913
0
LINE
8
BLACK
6
CONTINUOUS
10
129.944
20
-80.2913
11
130.113
21
-80.0373
0
LINE
8
BLACK
6
CONTINUOUS
10
130.113
20
-80.0373
11
130.329
21
-79.8213
0
LINE
8
BLACK
6
CONTINUOUS
10
130.329
20
-79.8213
11
130.583
21
-79.6515
0
LINE
8
BLACK
6
CONTINUOUS
10
130.583
20
-79.6515
11
130.866
21
-79.5346
0
LINE
8
BLACK
6
CONTINUOUS
10
130.866
20
-79.5346
11
131.015
21
-79.5048
0
LINE
8
BLACK
6
CONTINUOUS
10
131.015
20
-79.5048
11
131.165
21
-79.475
0
LINE
8
BLACK
6
CONTINUOUS
10
131.165
20
-79.475
11
131.471
21
-79.475
0
LINE
8
BLACK
6
CONTINUOUS
10
131.471
20
-79.475
11
131.621
21
-79.5048
0
LINE
8
BLACK
6
CONTINUOUS
10
127.789
20
-82.577
11
124.687
21
-82.577
0
LINE
8
BLACK
6
CONTINUOUS
10
124.687
20
-82.577
11
124.687
21
-79.475
0
LINE
8
BLACK
6
CONTINUOUS
10
124.687
20
-79.475
11
127.789
21
-79.475
0
LINE
8
BLACK
6
CONTINUOUS
10
127.789
20
-79.475
11
127.789
21
-82.577
0
LINE
8
BLACK
6
CONTINUOUS
10
93.1332
20
-78.8688
11
93.3973
21
-78.9781
0
LINE
8
BLACK
6
CONTINUOUS
10
93.3973
20
-78.9781
11
93.635
21
-79.1369
0
LINE
8
BLACK
6
CONTINUOUS
10
93.635
20
-79.1369
11
93.8371
21
-79.339
0
LINE
8
BLACK
6
CONTINUOUS
10
93.8371
20
-79.339
11
93.9959
21
-79.5767
0
LINE
8
BLACK
6
CONTINUOUS
10
93.9959
20
-79.5767
11
94.1052
21
-79.8408
0
LINE
8
BLACK
6
CONTINUOUS
10
94.1052
20
-79.8408
11
94.161
21
-80.1211
0
LINE
8
BLACK
6
CONTINUOUS
10
94.161
20
-80.1211
11
94.161
21
-80.4069
0
LINE
8
BLACK
6
CONTINUOUS
10
94.161
20
-80.4069
11
94.1052
21
-80.6872
0
LINE
8
BLACK
6
CONTINUOUS
10
94.1052
20
-80.6872
11
93.9959
21
-80.9513
0
LINE
8
BLACK
6
CONTINUOUS
10
93.9959
20
-80.9513
11
93.8371
21
-81.189
0
LINE
8
BLACK
6
CONTINUOUS
10
93.8371
20
-81.189
11
93.635
21
-81.3911
0
LINE
8
BLACK
6
CONTINUOUS
10
93.635
20
-81.3911
11
93.3973
21
-81.5499
0
LINE
8
BLACK
6
CONTINUOUS
10
93.3973
20
-81.5499
11
93.1332
21
-81.6592
0
LINE
8
BLACK
6
CONTINUOUS
10
93.1332
20
-81.6592
11
92.8529
21
-81.715
0
LINE
8
BLACK
6
CONTINUOUS
10
92.8529
20
-81.715
11
92.5671
21
-81.715
0
LINE
8
BLACK
6
CONTINUOUS
10
92.5671
20
-81.715
11
92.2868
21
-81.6592
0
LINE
8
BLACK
6
CONTINUOUS
10
92.2868
20
-81.6592
11
92.0227
21
-81.5499
0
LINE
8
BLACK
6
CONTINUOUS
10
92.0227
20
-81.5499
11
91.785
21
-81.3911
0
LINE
8
BLACK
6
CONTINUOUS
10
91.785
20
-81.3911
11
91.5829
21
-81.189
0
LINE
8
BLACK
6
CONTINUOUS
10
91.5829
20
-81.189
11
91.4241
21
-80.9513
0
LINE
8
BLACK
6
CONTINUOUS
10
91.4241
20
-80.9513
11
91.3148
21
-80.6872
0
LINE
8
BLACK
6
CONTINUOUS
10
91.3148
20
-80.6872
11
91.259
21
-80.4069
0
LINE
8
BLACK
6
CONTINUOUS
10
91.259
20
-80.4069
11
91.259
21
-80.1211
0
LINE
8
BLACK
6
CONTINUOUS
10
91.259
20
-80.1211
11
91.3148
21
-79.8408
0
LINE
8
BLACK
6
CONTINUOUS
10
91.3148
20
-79.8408
11
91.4241
21
-79.5767
0
LINE
8
BLACK
6
CONTINUOUS
10
91.4241
20
-79.5767
11
91.5829
21
-79.339
0
LINE
8
BLACK
6
CONTINUOUS
10
91.5829
20
-79.339
11
91.785
21
-79.1369
0
LINE
8
BLACK
6
CONTINUOUS
10
91.785
20
-79.1369
11
92.0227
21
-78.9781
0
LINE
8
BLACK
6
CONTINUOUS
10
92.0227
20
-78.9781
11
92.2868
21
-78.8688
0
LINE
8
BLACK
6
CONTINUOUS
10
92.2868
20
-78.8688
11
92.5671
21
-78.813
0
LINE
8
BLACK
6
CONTINUOUS
10
92.5671
20
-78.813
11
92.8529
21
-78.813
0
LINE
8
BLACK
6
CONTINUOUS
10
92.8529
20
-78.813
11
93.1332
21
-78.8688
0
LINE
8
BLACK
6
CONTINUOUS
10
97.6286
20
-79.2534
11
97.8198
21
-79.3326
0
LINE
8
BLACK
6
CONTINUOUS
10
97.8198
20
-79.3326
11
97.8198
21
-79.3326
0
LINE
8
BLACK
6
CONTINUOUS
10
97.8198
20
-79.3326
11
97.8295
21
-79.339
0
LINE
8
BLACK
6
CONTINUOUS
10
97.8295
20
-79.339
11
97.992
21
-79.4476
0
LINE
8
BLACK
6
CONTINUOUS
10
97.992
20
-79.4476
11
98.1384
21
-79.594
0
LINE
8
BLACK
6
CONTINUOUS
10
98.1384
20
-79.594
11
98.2534
21
-79.7662
0
LINE
8
BLACK
6
CONTINUOUS
10
98.2534
20
-79.7662
11
98.3326
21
-79.9574
0
LINE
8
BLACK
6
CONTINUOUS
10
98.3326
20
-79.9574
11
98.373
21
-80.1605
0
LINE
8
BLACK
6
CONTINUOUS
10
98.373
20
-80.1605
11
98.373
21
-80.3675
0
LINE
8
BLACK
6
CONTINUOUS
10
98.373
20
-80.3675
11
98.3326
21
-80.5706
0
LINE
8
BLACK
6
CONTINUOUS
10
98.3326
20
-80.5706
11
98.3314
21
-80.5736
0
LINE
8
BLACK
6
CONTINUOUS
10
98.3314
20
-80.5736
11
98.2534
21
-80.7618
0
LINE
8
BLACK
6
CONTINUOUS
10
98.2534
20
-80.7618
11
98.1384
21
-80.934
0
LINE
8
BLACK
6
CONTINUOUS
10
98.1384
20
-80.934
11
97.992
21
-81.0804
0
LINE
8
BLACK
6
CONTINUOUS
10
97.992
20
-81.0804
11
97.8198
21
-81.1954
0
LINE
8
BLACK
6
CONTINUOUS
10
97.8198
20
-81.1954
11
97.8198
21
-81.1954
0
LINE
8
BLACK
6
CONTINUOUS
10
97.8198
20
-81.1954
11
97.8198
21
-81.1954
0
LINE
8
BLACK
6
CONTINUOUS
10
97.8198
20
-81.1954
11
97.6286
21
-81.2746
0
LINE
8
BLACK
6
CONTINUOUS
10
97.6286
20
-81.2746
11
97.4255
21
-81.315
0
LINE
8
BLACK
6
CONTINUOUS
10
97.4255
20
-81.315
11
97.2185
21
-81.315
0
LINE
8
BLACK
6
CONTINUOUS
10
97.2185
20
-81.315
11
97.0154
21
-81.2746
0
LINE
8
BLACK
6
CONTINUOUS
10
97.0154
20
-81.2746
11
96.8242
21
-81.1954
0
LINE
8
BLACK
6
CONTINUOUS
10
96.8242
20
-81.1954
11
96.8242
21
-81.1954
0
LINE
8
BLACK
6
CONTINUOUS
10
96.8242
20
-81.1954
11
96.8242
21
-81.1954
0
LINE
8
BLACK
6
CONTINUOUS
10
96.8242
20
-81.1954
11
96.652
21
-81.0804
0
LINE
8
BLACK
6
CONTINUOUS
10
96.652
20
-81.0804
11
96.5056
21
-80.934
0
LINE
8
BLACK
6
CONTINUOUS
10
96.5056
20
-80.934
11
96.3906
21
-80.7618
0
LINE
8
BLACK
6
CONTINUOUS
10
96.3906
20
-80.7618
11
96.3126
21
-80.5736
0
LINE
8
BLACK
6
CONTINUOUS
10
96.3126
20
-80.5736
11
96.3114
21
-80.5706
0
LINE
8
BLACK
6
CONTINUOUS
10
96.3114
20
-80.5706
11
96.271
21
-80.3675
0
LINE
8
BLACK
6
CONTINUOUS
10
96.271
20
-80.3675
11
96.271
21
-80.1605
0
LINE
8
BLACK
6
CONTINUOUS
10
96.271
20
-80.1605
11
96.3114
21
-79.9574
0
LINE
8
BLACK
6
CONTINUOUS
10
96.3114
20
-79.9574
11
96.3906
21
-79.7662
0
LINE
8
BLACK
6
CONTINUOUS
10
96.3906
20
-79.7662
11
96.5056
21
-79.594
0
LINE
8
BLACK
6
CONTINUOUS
10
96.5056
20
-79.594
11
96.652
21
-79.4476
0
LINE
8
BLACK
6
CONTINUOUS
10
96.652
20
-79.4476
11
96.8145
21
-79.339
0
LINE
8
BLACK
6
CONTINUOUS
10
96.8145
20
-79.339
11
96.8242
21
-79.3326
0
LINE
8
BLACK
6
CONTINUOUS
10
96.8242
20
-79.3326
11
96.8242
21
-79.3326
0
LINE
8
BLACK
6
CONTINUOUS
10
96.8242
20
-79.3326
11
97.0154
21
-79.2534
0
LINE
8
BLACK
6
CONTINUOUS
10
97.0154
20
-79.2534
11
97.2185
21
-79.213
0
LINE
8
BLACK
6
CONTINUOUS
10
97.2185
20
-79.213
11
97.4255
21
-79.213
0
LINE
8
BLACK
6
CONTINUOUS
10
97.4255
20
-79.213
11
97.6286
21
-79.2534
0
LINE
8
BLACK
6
CONTINUOUS
10
107.789
20
-79.2534
11
107.98
21
-79.3326
0
LINE
8
BLACK
6
CONTINUOUS
10
107.98
20
-79.3326
11
107.98
21
-79.3326
0
LINE
8
BLACK
6
CONTINUOUS
10
107.98
20
-79.3326
11
107.989
21
-79.339
0
LINE
8
BLACK
6
CONTINUOUS
10
107.989
20
-79.339
11
108.152
21
-79.4476
0
LINE
8
BLACK
6
CONTINUOUS
10
108.152
20
-79.4476
11
108.298
21
-79.594
0
LINE
8
BLACK
6
CONTINUOUS
10
108.298
20
-79.594
11
108.413
21
-79.7662
0
LINE
8
BLACK
6
CONTINUOUS
10
108.413
20
-79.7662
11
108.493
21
-79.9574
0
LINE
8
BLACK
6
CONTINUOUS
10
108.493
20
-79.9574
11
108.533
21
-80.1605
0
LINE
8
BLACK
6
CONTINUOUS
10
108.533
20
-80.1605
11
108.533
21
-80.3675
0
LINE
8
BLACK
6
CONTINUOUS
10
108.533
20
-80.3675
11
108.493
21
-80.5706
0
LINE
8
BLACK
6
CONTINUOUS
10
108.493
20
-80.5706
11
108.491
21
-80.5736
0
LINE
8
BLACK
6
CONTINUOUS
10
108.491
20
-80.5736
11
108.413
21
-80.7618
0
LINE
8
BLACK
6
CONTINUOUS
10
108.413
20
-80.7618
11
108.298
21
-80.934
0
LINE
8
BLACK
6
CONTINUOUS
10
108.298
20
-80.934
11
108.152
21
-81.0804
0
LINE
8
BLACK
6
CONTINUOUS
10
108.152
20
-81.0804
11
107.98
21
-81.1954
0
LINE
8
BLACK
6
CONTINUOUS
10
107.98
20
-81.1954
11
107.98
21
-81.1954
0
LINE
8
BLACK
6
CONTINUOUS
10
107.98
20
-81.1954
11
107.98
21
-81.1954
0
LINE
8
BLACK
6
CONTINUOUS
10
107.98
20
-81.1954
11
107.789
21
-81.2746
0
LINE
8
BLACK
6
CONTINUOUS
10
107.789
20
-81.2746
11
107.586
21
-81.315
0
LINE
8
BLACK
6
CONTINUOUS
10
107.586
20
-81.315
11
107.378
21
-81.315
0
LINE
8
BLACK
6
CONTINUOUS
10
107.378
20
-81.315
11
107.175
21
-81.2746
0
LINE
8
BLACK
6
CONTINUOUS
10
107.175
20
-81.2746
11
106.984
21
-81.1954
0
LINE
8
BLACK
6
CONTINUOUS
10
106.984
20
-81.1954
11
106.984
21
-81.1954
0
LINE
8
BLACK
6
CONTINUOUS
10
106.984
20
-81.1954
11
106.984
21
-81.1954
0
LINE
8
BLACK
6
CONTINUOUS
10
106.984
20
-81.1954
11
106.812
21
-81.0804
0
LINE
8
BLACK
6
CONTINUOUS
10
106.812
20
-81.0804
11
106.666
21
-80.934
0
LINE
8
BLACK
6
CONTINUOUS
10
106.666
20
-80.934
11
106.551
21
-80.7618
0
LINE
8
BLACK
6
CONTINUOUS
10
106.551
20
-80.7618
11
106.473
21
-80.5736
0
LINE
8
BLACK
6
CONTINUOUS
10
106.473
20
-80.5736
11
106.471
21
-80.5706
0
LINE
8
BLACK
6
CONTINUOUS
10
106.471
20
-80.5706
11
106.431
21
-80.3675
0
LINE
8
BLACK
6
CONTINUOUS
10
106.431
20
-80.3675
11
106.431
21
-80.1605
0
LINE
8
BLACK
6
CONTINUOUS
10
106.431
20
-80.1605
11
106.471
21
-79.9574
0
LINE
8
BLACK
6
CONTINUOUS
10
106.471
20
-79.9574
11
106.551
21
-79.7662
0
LINE
8
BLACK
6
CONTINUOUS
10
106.551
20
-79.7662
11
106.666
21
-79.594
0
LINE
8
BLACK
6
CONTINUOUS
10
106.666
20
-79.594
11
106.812
21
-79.4476
0
LINE
8
BLACK
6
CONTINUOUS
10
106.812
20
-79.4476
11
106.975
21
-79.339
0
LINE
8
BLACK
6
CONTINUOUS
10
106.975
20
-79.339
11
106.984
21
-79.3326
0
LINE
8
BLACK
6
CONTINUOUS
10
106.984
20
-79.3326
11
106.984
21
-79.3326
0
LINE
8
BLACK
6
CONTINUOUS
10
106.984
20
-79.3326
11
107.175
21
-79.2534
0
LINE
8
BLACK
6
CONTINUOUS
10
107.175
20
-79.2534
11
107.378
21
-79.213
0
LINE
8
BLACK
6
CONTINUOUS
10
107.378
20
-79.213
11
107.586
21
-79.213
0
LINE
8
BLACK
6
CONTINUOUS
10
107.586
20
-79.213
11
107.789
21
-79.2534
0
LINE
8
BLACK
6
CONTINUOUS
10
112.829
20
-79.2534
11
113.02
21
-79.3326
0
LINE
8
BLACK
6
CONTINUOUS
10
113.02
20
-79.3326
11
113.02
21
-79.3326
0
LINE
8
BLACK
6
CONTINUOUS
10
113.02
20
-79.3326
11
113.029
21
-79.339
0
LINE
8
BLACK
6
CONTINUOUS
10
113.029
20
-79.339
11
113.192
21
-79.4476
0
LINE
8
BLACK
6
CONTINUOUS
10
113.192
20
-79.4476
11
113.338
21
-79.594
0
LINE
8
BLACK
6
CONTINUOUS
10
113.338
20
-79.594
11
113.453
21
-79.7662
0
LINE
8
BLACK
6
CONTINUOUS
10
113.453
20
-79.7662
11
113.533
21
-79.9574
0
LINE
8
BLACK
6
CONTINUOUS
10
113.533
20
-79.9574
11
113.573
21
-80.1605
0
LINE
8
BLACK
6
CONTINUOUS
10
113.573
20
-80.1605
11
113.573
21
-80.3675
0
LINE
8
BLACK
6
CONTINUOUS
10
113.573
20
-80.3675
11
113.533
21
-80.5706
0
LINE
8
BLACK
6
CONTINUOUS
10
113.533
20
-80.5706
11
113.531
21
-80.5736
0
LINE
8
BLACK
6
CONTINUOUS
10
113.531
20
-80.5736
11
113.453
21
-80.7618
0
LINE
8
BLACK
6
CONTINUOUS
10
113.453
20
-80.7618
11
113.338
21
-80.934
0
LINE
8
BLACK
6
CONTINUOUS
10
113.338
20
-80.934
11
113.192
21
-81.0804
0
LINE
8
BLACK
6
CONTINUOUS
10
113.192
20
-81.0804
11
113.02
21
-81.1954
0
LINE
8
BLACK
6
CONTINUOUS
10
113.02
20
-81.1954
11
113.02
21
-81.1954
0
LINE
8
BLACK
6
CONTINUOUS
10
113.02
20
-81.1954
11
113.02
21
-81.1954
0
LINE
8
BLACK
6
CONTINUOUS
10
113.02
20
-81.1954
11
112.829
21
-81.2746
0
LINE
8
BLACK
6
CONTINUOUS
10
112.829
20
-81.2746
11
112.626
21
-81.315
0
LINE
8
BLACK
6
CONTINUOUS
10
112.626
20
-81.315
11
112.418
21
-81.315
0
LINE
8
BLACK
6
CONTINUOUS
10
112.418
20
-81.315
11
112.215
21
-81.2746
0
LINE
8
BLACK
6
CONTINUOUS
10
112.215
20
-81.2746
11
112.024
21
-81.1954
0
LINE
8
BLACK
6
CONTINUOUS
10
112.024
20
-81.1954
11
112.024
21
-81.1954
0
LINE
8
BLACK
6
CONTINUOUS
10
112.024
20
-81.1954
11
112.024
21
-81.1954
0
LINE
8
BLACK
6
CONTINUOUS
10
112.024
20
-81.1954
11
111.852
21
-81.0804
0
LINE
8
BLACK
6
CONTINUOUS
10
111.852
20
-81.0804
11
111.706
21
-80.934
0
LINE
8
BLACK
6
CONTINUOUS
10
111.706
20
-80.934
11
111.591
21
-80.7618
0
LINE
8
BLACK
6
CONTINUOUS
10
111.591
20
-80.7618
11
111.513
21
-80.5736
0
LINE
8
BLACK
6
CONTINUOUS
10
111.513
20
-80.5736
11
111.511
21
-80.5706
0
LINE
8
BLACK
6
CONTINUOUS
10
111.511
20
-80.5706
11
111.471
21
-80.3675
0
LINE
8
BLACK
6
CONTINUOUS
10
111.471
20
-80.3675
11
111.471
21
-80.1605
0
LINE
8
BLACK
6
CONTINUOUS
10
111.471
20
-80.1605
11
111.511
21
-79.9574
0
LINE
8
BLACK
6
CONTINUOUS
10
111.511
20
-79.9574
11
111.591
21
-79.7662
0
LINE
8
BLACK
6
CONTINUOUS
10
111.591
20
-79.7662
11
111.706
21
-79.594
0
LINE
8
BLACK
6
CONTINUOUS
10
111.706
20
-79.594
11
111.852
21
-79.4476
0
LINE
8
BLACK
6
CONTINUOUS
10
111.852
20
-79.4476
11
112.015
21
-79.339
0
LINE
8
BLACK
6
CONTINUOUS
10
112.015
20
-79.339
11
112.024
21
-79.3326
0
LINE
8
BLACK
6
CONTINUOUS
10
112.024
20
-79.3326
11
112.024
21
-79.3326
0
LINE
8
BLACK
6
CONTINUOUS
10
112.024
20
-79.3326
11
112.215
21
-79.2534
0
LINE
8
BLACK
6
CONTINUOUS
10
112.215
20
-79.2534
11
112.418
21
-79.213
0
LINE
8
BLACK
6
CONTINUOUS
10
112.418
20
-79.213
11
112.626
21
-79.213
0
LINE
8
BLACK
6
CONTINUOUS
10
112.626
20
-79.213
11
112.829
21
-79.2534
0
LINE
8
BLACK
6
CONTINUOUS
10
115.329
20
-79.2534
11
115.52
21
-79.3326
0
LINE
8
BLACK
6
CONTINUOUS
10
115.52
20
-79.3326
11
115.52
21
-79.3326
0
LINE
8
BLACK
6
CONTINUOUS
10
115.52
20
-79.3326
11
115.529
21
-79.339
0
LINE
8
BLACK
6
CONTINUOUS
10
115.529
20
-79.339
11
115.692
21
-79.4476
0
LINE
8
BLACK
6
CONTINUOUS
10
115.692
20
-79.4476
11
115.838
21
-79.594
0
LINE
8
BLACK
6
CONTINUOUS
10
115.838
20
-79.594
11
115.953
21
-79.7662
0
LINE
8
BLACK
6
CONTINUOUS
10
115.953
20
-79.7662
11
116.033
21
-79.9574
0
LINE
8
BLACK
6
CONTINUOUS
10
116.033
20
-79.9574
11
116.073
21
-80.1605
0
LINE
8
BLACK
6
CONTINUOUS
10
116.073
20
-80.1605
11
116.073
21
-80.3675
0
LINE
8
BLACK
6
CONTINUOUS
10
116.073
20
-80.3675
11
116.033
21
-80.5706
0
LINE
8
BLACK
6
CONTINUOUS
10
116.033
20
-80.5706
11
116.031
21
-80.5736
0
LINE
8
BLACK
6
CONTINUOUS
10
116.031
20
-80.5736
11
115.953
21
-80.7618
0
LINE
8
BLACK
6
CONTINUOUS
10
115.953
20
-80.7618
11
115.838
21
-80.934
0
LINE
8
BLACK
6
CONTINUOUS
10
115.838
20
-80.934
11
115.692
21
-81.0804
0
LINE
8
BLACK
6
CONTINUOUS
10
115.692
20
-81.0804
11
115.52
21
-81.1954
0
LINE
8
BLACK
6
CONTINUOUS
10
115.52
20
-81.1954
11
115.52
21
-81.1954
0
LINE
8
BLACK
6
CONTINUOUS
10
115.52
20
-81.1954
11
115.52
21
-81.1954
0
LINE
8
BLACK
6
CONTINUOUS
10
115.52
20
-81.1954
11
115.329
21
-81.2746
0
LINE
8
BLACK
6
CONTINUOUS
10
115.329
20
-81.2746
11
115.126
21
-81.315
0
LINE
8
BLACK
6
CONTINUOUS
10
115.126
20
-81.315
11
114.918
21
-81.315
0
LINE
8
BLACK
6
CONTINUOUS
10
114.918
20
-81.315
11
114.715
21
-81.2746
0
LINE
8
BLACK
6
CONTINUOUS
10
114.715
20
-81.2746
11
114.524
21
-81.1954
0
LINE
8
BLACK
6
CONTINUOUS
10
114.524
20
-81.1954
11
114.524
21
-81.1954
0
LINE
8
BLACK
6
CONTINUOUS
10
114.524
20
-81.1954
11
114.524
21
-81.1954
0
LINE
8
BLACK
6
CONTINUOUS
10
114.524
20
-81.1954
11
114.352
21
-81.0804
0
LINE
8
BLACK
6
CONTINUOUS
10
114.352
20
-81.0804
11
114.206
21
-80.934
0
LINE
8
BLACK
6
CONTINUOUS
10
114.206
20
-80.934
11
114.091
21
-80.7618
0
LINE
8
BLACK
6
CONTINUOUS
10
114.091
20
-80.7618
11
114.013
21
-80.5736
0
LINE
8
BLACK
6
CONTINUOUS
10
114.013
20
-80.5736
11
114.011
21
-80.5706
0
LINE
8
BLACK
6
CONTINUOUS
10
114.011
20
-80.5706
11
113.971
21
-80.3675
0
LINE
8
BLACK
6
CONTINUOUS
10
113.971
20
-80.3675
11
113.971
21
-80.1605
0
LINE
8
BLACK
6
CONTINUOUS
10
113.971
20
-80.1605
11
114.011
21
-79.9574
0
LINE
8
BLACK
6
CONTINUOUS
10
114.011
20
-79.9574
11
114.091
21
-79.7662
0
LINE
8
BLACK
6
CONTINUOUS
10
114.091
20
-79.7662
11
114.206
21
-79.594
0
LINE
8
BLACK
6
CONTINUOUS
10
114.206
20
-79.594
11
114.352
21
-79.4476
0
LINE
8
BLACK
6
CONTINUOUS
10
114.352
20
-79.4476
11
114.515
21
-79.339
0
LINE
8
BLACK
6
CONTINUOUS
10
114.515
20
-79.339
11
114.524
21
-79.3326
0
LINE
8
BLACK
6
CONTINUOUS
10
114.524
20
-79.3326
11
114.524
21
-79.3326
0
LINE
8
BLACK
6
CONTINUOUS
10
114.524
20
-79.3326
11
114.715
21
-79.2534
0
LINE
8
BLACK
6
CONTINUOUS
10
114.715
20
-79.2534
11
114.918
21
-79.213
0
LINE
8
BLACK
6
CONTINUOUS
10
114.918
20
-79.213
11
115.126
21
-79.213
0
LINE
8
BLACK
6
CONTINUOUS
10
115.126
20
-79.213
11
115.329
21
-79.2534
0
LINE
8
BLACK
6
CONTINUOUS
10
120.195
20
-79.2534
11
120.386
21
-79.3326
0
LINE
8
BLACK
6
CONTINUOUS
10
120.386
20
-79.3326
11
120.386
21
-79.3326
0
LINE
8
BLACK
6
CONTINUOUS
10
120.386
20
-79.3326
11
120.395
21
-79.339
0
LINE
8
BLACK
6
CONTINUOUS
10
120.395
20
-79.339
11
120.558
21
-79.4476
0
LINE
8
BLACK
6
CONTINUOUS
10
120.558
20
-79.4476
11
120.704
21
-79.594
0
LINE
8
BLACK
6
CONTINUOUS
10
120.704
20
-79.594
11
120.819
21
-79.7662
0
LINE
8
BLACK
6
CONTINUOUS
10
120.819
20
-79.7662
11
120.899
21
-79.9574
0
LINE
8
BLACK
6
CONTINUOUS
10
120.899
20
-79.9574
11
120.939
21
-80.1605
0
LINE
8
BLACK
6
CONTINUOUS
10
120.939
20
-80.1605
11
120.939
21
-80.3675
0
LINE
8
BLACK
6
CONTINUOUS
10
120.939
20
-80.3675
11
120.899
21
-80.5706
0
LINE
8
BLACK
6
CONTINUOUS
10
120.899
20
-80.5706
11
120.897
21
-80.5736
0
LINE
8
BLACK
6
CONTINUOUS
10
120.897
20
-80.5736
11
120.819
21
-80.7618
0
LINE
8
BLACK
6
CONTINUOUS
10
120.819
20
-80.7618
11
120.704
21
-80.934
0
LINE
8
BLACK
6
CONTINUOUS
10
120.704
20
-80.934
11
120.558
21
-81.0804
0
LINE
8
BLACK
6
CONTINUOUS
10
120.558
20
-81.0804
11
120.386
21
-81.1954
0
LINE
8
BLACK
6
CONTINUOUS
10
120.386
20
-81.1954
11
120.386
21
-81.1954
0
LINE
8
BLACK
6
CONTINUOUS
10
120.386
20
-81.1954
11
120.386
21
-81.1954
0
LINE
8
BLACK
6
CONTINUOUS
10
120.386
20
-81.1954
11
120.195
21
-81.2746
0
LINE
8
BLACK
6
CONTINUOUS
10
120.195
20
-81.2746
11
119.992
21
-81.315
0
LINE
8
BLACK
6
CONTINUOUS
10
119.992
20
-81.315
11
119.784
21
-81.315
0
LINE
8
BLACK
6
CONTINUOUS
10
119.784
20
-81.315
11
119.581
21
-81.2746
0
LINE
8
BLACK
6
CONTINUOUS
10
119.581
20
-81.2746
11
119.39
21
-81.1954
0
LINE
8
BLACK
6
CONTINUOUS
10
119.39
20
-81.1954
11
119.39
21
-81.1954
0
LINE
8
BLACK
6
CONTINUOUS
10
119.39
20
-81.1954
11
119.39
21
-81.1954
0
LINE
8
BLACK
6
CONTINUOUS
10
119.39
20
-81.1954
11
119.218
21
-81.0804
0
LINE
8
BLACK
6
CONTINUOUS
10
119.218
20
-81.0804
11
119.072
21
-80.934
0
LINE
8
BLACK
6
CONTINUOUS
10
119.072
20
-80.934
11
118.957
21
-80.7618
0
LINE
8
BLACK
6
CONTINUOUS
10
118.957
20
-80.7618
11
118.879
21
-80.5736
0
LINE
8
BLACK
6
CONTINUOUS
10
118.879
20
-80.5736
11
118.877
21
-80.5706
0
LINE
8
BLACK
6
CONTINUOUS
10
118.877
20
-80.5706
11
118.837
21
-80.3675
0
LINE
8
BLACK
6
CONTINUOUS
10
118.837
20
-80.3675
11
118.837
21
-80.1605
0
LINE
8
BLACK
6
CONTINUOUS
10
118.837
20
-80.1605
11
118.877
21
-79.9574
0
LINE
8
BLACK
6
CONTINUOUS
10
118.877
20
-79.9574
11
118.957
21
-79.7662
0
LINE
8
BLACK
6
CONTINUOUS
10
118.957
20
-79.7662
11
119.072
21
-79.594
0
LINE
8
BLACK
6
CONTINUOUS
10
119.072
20
-79.594
11
119.218
21
-79.4476
0
LINE
8
BLACK
6
CONTINUOUS
10
119.218
20
-79.4476
11
119.381
21
-79.339
0
LINE
8
BLACK
6
CONTINUOUS
10
119.381
20
-79.339
11
119.39
21
-79.3326
0
LINE
8
BLACK
6
CONTINUOUS
10
119.39
20
-79.3326
11
119.39
21
-79.3326
0
LINE
8
BLACK
6
CONTINUOUS
10
119.39
20
-79.3326
11
119.581
21
-79.2534
0
LINE
8
BLACK
6
CONTINUOUS
10
119.581
20
-79.2534
11
119.784
21
-79.213
0
LINE
8
BLACK
6
CONTINUOUS
10
119.784
20
-79.213
11
119.992
21
-79.213
0
LINE
8
BLACK
6
CONTINUOUS
10
119.992
20
-79.213
11
120.195
21
-79.2534
0
LINE
8
BLACK
6
CONTINUOUS
10
117.695
20
-79.2534
11
117.886
21
-79.3326
0
LINE
8
BLACK
6
CONTINUOUS
10
117.886
20
-79.3326
11
117.886
21
-79.3326
0
LINE
8
BLACK
6
CONTINUOUS
10
117.886
20
-79.3326
11
117.895
21
-79.339
0
LINE
8
BLACK
6
CONTINUOUS
10
117.895
20
-79.339
11
118.058
21
-79.4476
0
LINE
8
BLACK
6
CONTINUOUS
10
118.058
20
-79.4476
11
118.204
21
-79.594
0
LINE
8
BLACK
6
CONTINUOUS
10
118.204
20
-79.594
11
118.319
21
-79.7662
0
LINE
8
BLACK
6
CONTINUOUS
10
118.319
20
-79.7662
11
118.399
21
-79.9574
0
LINE
8
BLACK
6
CONTINUOUS
10
118.399
20
-79.9574
11
118.439
21
-80.1605
0
LINE
8
BLACK
6
CONTINUOUS
10
118.439
20
-80.1605
11
118.439
21
-80.3675
0
LINE
8
BLACK
6
CONTINUOUS
10
118.439
20
-80.3675
11
118.399
21
-80.5706
0
LINE
8
BLACK
6
CONTINUOUS
10
118.399
20
-80.5706
11
118.397
21
-80.5736
0
LINE
8
BLACK
6
CONTINUOUS
10
118.397
20
-80.5736
11
118.319
21
-80.7618
0
LINE
8
BLACK
6
CONTINUOUS
10
118.319
20
-80.7618
11
118.204
21
-80.934
0
LINE
8
BLACK
6
CONTINUOUS
10
118.204
20
-80.934
11
118.058
21
-81.0804
0
LINE
8
BLACK
6
CONTINUOUS
10
118.058
20
-81.0804
11
117.886
21
-81.1954
0
LINE
8
BLACK
6
CONTINUOUS
10
117.886
20
-81.1954
11
117.886
21
-81.1954
0
LINE
8
BLACK
6
CONTINUOUS
10
117.886
20
-81.1954
11
117.886
21
-81.1954
0
LINE
8
BLACK
6
CONTINUOUS
10
117.886
20
-81.1954
11
117.695
21
-81.2746
0
LINE
8
BLACK
6
CONTINUOUS
10
117.695
20
-81.2746
11
117.492
21
-81.315
0
LINE
8
BLACK
6
CONTINUOUS
10
117.492
20
-81.315
11
117.284
21
-81.315
0
LINE
8
BLACK
6
CONTINUOUS
10
117.284
20
-81.315
11
117.081
21
-81.2746
0
LINE
8
BLACK
6
CONTINUOUS
10
117.081
20
-81.2746
11
116.89
21
-81.1954
0
LINE
8
BLACK
6
CONTINUOUS
10
116.89
20
-81.1954
11
116.89
21
-81.1954
0
LINE
8
BLACK
6
CONTINUOUS
10
116.89
20
-81.1954
11
116.89
21
-81.1954
0
LINE
8
BLACK
6
CONTINUOUS
10
116.89
20
-81.1954
11
116.718
21
-81.0804
0
LINE
8
BLACK
6
CONTINUOUS
10
116.718
20
-81.0804
11
116.572
21
-80.934
0
LINE
8
BLACK
6
CONTINUOUS
10
116.572
20
-80.934
11
116.457
21
-80.7618
0
LINE
8
BLACK
6
CONTINUOUS
10
116.457
20
-80.7618
11
116.379
21
-80.5736
0
LINE
8
BLACK
6
CONTINUOUS
10
116.379
20
-80.5736
11
116.377
21
-80.5706
0
LINE
8
BLACK
6
CONTINUOUS
10
116.377
20
-80.5706
11
116.337
21
-80.3675
0
LINE
8
BLACK
6
CONTINUOUS
10
116.337
20
-80.3675
11
116.337
21
-80.1605
0
LINE
8
BLACK
6
CONTINUOUS
10
116.337
20
-80.1605
11
116.377
21
-79.9574
0
LINE
8
BLACK
6
CONTINUOUS
10
116.377
20
-79.9574
11
116.457
21
-79.7662
0
LINE
8
BLACK
6
CONTINUOUS
10
116.457
20
-79.7662
11
116.572
21
-79.594
0
LINE
8
BLACK
6
CONTINUOUS
10
116.572
20
-79.594
11
116.718
21
-79.4476
0
LINE
8
BLACK
6
CONTINUOUS
10
116.718
20
-79.4476
11
116.881
21
-79.339
0
LINE
8
BLACK
6
CONTINUOUS
10
116.881
20
-79.339
11
116.89
21
-79.3326
0
LINE
8
BLACK
6
CONTINUOUS
10
116.89
20
-79.3326
11
116.89
21
-79.3326
0
LINE
8
BLACK
6
CONTINUOUS
10
116.89
20
-79.3326
11
117.081
21
-79.2534
0
LINE
8
BLACK
6
CONTINUOUS
10
117.081
20
-79.2534
11
117.284
21
-79.213
0
LINE
8
BLACK
6
CONTINUOUS
10
117.284
20
-79.213
11
117.492
21
-79.213
0
LINE
8
BLACK
6
CONTINUOUS
10
117.492
20
-79.213
11
117.695
21
-79.2534
0
LINE
8
BLACK
6
CONTINUOUS
10
100.129
20
-79.2534
11
100.32
21
-79.3326
0
LINE
8
BLACK
6
CONTINUOUS
10
100.32
20
-79.3326
11
100.32
21
-79.3326
0
LINE
8
BLACK
6
CONTINUOUS
10
100.32
20
-79.3326
11
100.329
21
-79.339
0
LINE
8
BLACK
6
CONTINUOUS
10
100.329
20
-79.339
11
100.492
21
-79.4476
0
LINE
8
BLACK
6
CONTINUOUS
10
100.492
20
-79.4476
11
100.638
21
-79.594
0
LINE
8
BLACK
6
CONTINUOUS
10
100.638
20
-79.594
11
100.753
21
-79.7662
0
LINE
8
BLACK
6
CONTINUOUS
10
100.753
20
-79.7662
11
100.833
21
-79.9574
0
LINE
8
BLACK
6
CONTINUOUS
10
100.833
20
-79.9574
11
100.873
21
-80.1605
0
LINE
8
BLACK
6
CONTINUOUS
10
100.873
20
-80.1605
11
100.873
21
-80.3675
0
LINE
8
BLACK
6
CONTINUOUS
10
100.873
20
-80.3675
11
100.833
21
-80.5706
0
LINE
8
BLACK
6
CONTINUOUS
10
100.833
20
-80.5706
11
100.831
21
-80.5736
0
LINE
8
BLACK
6
CONTINUOUS
10
100.831
20
-80.5736
11
100.753
21
-80.7618
0
LINE
8
BLACK
6
CONTINUOUS
10
100.753
20
-80.7618
11
100.638
21
-80.934
0
LINE
8
BLACK
6
CONTINUOUS
10
100.638
20
-80.934
11
100.492
21
-81.0804
0
LINE
8
BLACK
6
CONTINUOUS
10
100.492
20
-81.0804
11
100.32
21
-81.1954
0
LINE
8
BLACK
6
CONTINUOUS
10
100.32
20
-81.1954
11
100.32
21
-81.1954
0
LINE
8
BLACK
6
CONTINUOUS
10
100.32
20
-81.1954
11
100.32
21
-81.1954
0
LINE
8
BLACK
6
CONTINUOUS
10
100.32
20
-81.1954
11
100.129
21
-81.2746
0
LINE
8
BLACK
6
CONTINUOUS
10
100.129
20
-81.2746
11
99.9255
21
-81.315
0
LINE
8
BLACK
6
CONTINUOUS
10
99.9255
20
-81.315
11
99.7185
21
-81.315
0
LINE
8
BLACK
6
CONTINUOUS
10
99.7185
20
-81.315
11
99.5154
21
-81.2746
0
LINE
8
BLACK
6
CONTINUOUS
10
99.5154
20
-81.2746
11
99.3242
21
-81.1954
0
LINE
8
BLACK
6
CONTINUOUS
10
99.3242
20
-81.1954
11
99.3242
21
-81.1954
0
LINE
8
BLACK
6
CONTINUOUS
10
99.3242
20
-81.1954
11
99.3242
21
-81.1954
0
LINE
8
BLACK
6
CONTINUOUS
10
99.3242
20
-81.1954
11
99.152
21
-81.0804
0
LINE
8
BLACK
6
CONTINUOUS
10
99.152
20
-81.0804
11
99.0056
21
-80.934
0
LINE
8
BLACK
6
CONTINUOUS
10
99.0056
20
-80.934
11
98.8906
21
-80.7618
0
LINE
8
BLACK
6
CONTINUOUS
10
98.8906
20
-80.7618
11
98.8126
21
-80.5736
0
LINE
8
BLACK
6
CONTINUOUS
10
98.8126
20
-80.5736
11
98.8114
21
-80.5706
0
LINE
8
BLACK
6
CONTINUOUS
10
98.8114
20
-80.5706
11
98.771
21
-80.3675
0
LINE
8
BLACK
6
CONTINUOUS
10
98.771
20
-80.3675
11
98.771
21
-80.1605
0
LINE
8
BLACK
6
CONTINUOUS
10
98.771
20
-80.1605
11
98.8114
21
-79.9574
0
LINE
8
BLACK
6
CONTINUOUS
10
98.8114
20
-79.9574
11
98.8906
21
-79.7662
0
LINE
8
BLACK
6
CONTINUOUS
10
98.8906
20
-79.7662
11
99.0056
21
-79.594
0
LINE
8
BLACK
6
CONTINUOUS
10
99.0056
20
-79.594
11
99.152
21
-79.4476
0
LINE
8
BLACK
6
CONTINUOUS
10
99.152
20
-79.4476
11
99.3145
21
-79.339
0
LINE
8
BLACK
6
CONTINUOUS
10
99.3145
20
-79.339
11
99.3242
21
-79.3326
0
LINE
8
BLACK
6
CONTINUOUS
10
99.3242
20
-79.3326
11
99.3242
21
-79.3326
0
LINE
8
BLACK
6
CONTINUOUS
10
99.3242
20
-79.3326
11
99.5154
21
-79.2534
0
LINE
8
BLACK
6
CONTINUOUS
10
99.5154
20
-79.2534
11
99.7185
21
-79.213
0
LINE
8
BLACK
6
CONTINUOUS
10
99.7185
20
-79.213
11
99.9255
21
-79.213
0
LINE
8
BLACK
6
CONTINUOUS
10
99.9255
20
-79.213
11
100.129
21
-79.2534
0
LINE
8
BLACK
6
CONTINUOUS
10
102.669
20
-79.2534
11
102.86
21
-79.3326
0
LINE
8
BLACK
6
CONTINUOUS
10
102.86
20
-79.3326
11
102.86
21
-79.3326
0
LINE
8
BLACK
6
CONTINUOUS
10
102.86
20
-79.3326
11
102.869
21
-79.339
0
LINE
8
BLACK
6
CONTINUOUS
10
102.869
20
-79.339
11
103.032
21
-79.4476
0
LINE
8
BLACK
6
CONTINUOUS
10
103.032
20
-79.4476
11
103.178
21
-79.594
0
LINE
8
BLACK
6
CONTINUOUS
10
103.178
20
-79.594
11
103.293
21
-79.7662
0
LINE
8
BLACK
6
CONTINUOUS
10
103.293
20
-79.7662
11
103.373
21
-79.9574
0
LINE
8
BLACK
6
CONTINUOUS
10
103.373
20
-79.9574
11
103.413
21
-80.1605
0
LINE
8
BLACK
6
CONTINUOUS
10
103.413
20
-80.1605
11
103.413
21
-80.3675
0
LINE
8
BLACK
6
CONTINUOUS
10
103.413
20
-80.3675
11
103.373
21
-80.5706
0
LINE
8
BLACK
6
CONTINUOUS
10
103.373
20
-80.5706
11
103.371
21
-80.5736
0
LINE
8
BLACK
6
CONTINUOUS
10
103.371
20
-80.5736
11
103.293
21
-80.7618
0
LINE
8
BLACK
6
CONTINUOUS
10
103.293
20
-80.7618
11
103.178
21
-80.934
0
LINE
8
BLACK
6
CONTINUOUS
10
103.178
20
-80.934
11
103.032
21
-81.0804
0
LINE
8
BLACK
6
CONTINUOUS
10
103.032
20
-81.0804
11
102.86
21
-81.1954
0
LINE
8
BLACK
6
CONTINUOUS
10
102.86
20
-81.1954
11
102.86
21
-81.1954
0
LINE
8
BLACK
6
CONTINUOUS
10
102.86
20
-81.1954
11
102.86
21
-81.1954
0
LINE
8
BLACK
6
CONTINUOUS
10
102.86
20
-81.1954
11
102.669
21
-81.2746
0
LINE
8
BLACK
6
CONTINUOUS
10
102.669
20
-81.2746
11
102.466
21
-81.315
0
LINE
8
BLACK
6
CONTINUOUS
10
102.466
20
-81.315
11
102.258
21
-81.315
0
LINE
8
BLACK
6
CONTINUOUS
10
102.258
20
-81.315
11
102.055
21
-81.2746
0
LINE
8
BLACK
6
CONTINUOUS
10
102.055
20
-81.2746
11
101.864
21
-81.1954
0
LINE
8
BLACK
6
CONTINUOUS
10
101.864
20
-81.1954
11
101.864
21
-81.1954
0
LINE
8
BLACK
6
CONTINUOUS
10
101.864
20
-81.1954
11
101.864
21
-81.1954
0
LINE
8
BLACK
6
CONTINUOUS
10
101.864
20
-81.1954
11
101.692
21
-81.0804
0
LINE
8
BLACK
6
CONTINUOUS
10
101.692
20
-81.0804
11
101.546
21
-80.934
0
LINE
8
BLACK
6
CONTINUOUS
10
101.546
20
-80.934
11
101.431
21
-80.7618
0
LINE
8
BLACK
6
CONTINUOUS
10
101.431
20
-80.7618
11
101.353
21
-80.5736
0
LINE
8
BLACK
6
CONTINUOUS
10
101.353
20
-80.5736
11
101.351
21
-80.5706
0
LINE
8
BLACK
6
CONTINUOUS
10
101.351
20
-80.5706
11
101.311
21
-80.3675
0
LINE
8
BLACK
6
CONTINUOUS
10
101.311
20
-80.3675
11
101.311
21
-80.1605
0
LINE
8
BLACK
6
CONTINUOUS
10
101.311
20
-80.1605
11
101.351
21
-79.9574
0
LINE
8
BLACK
6
CONTINUOUS
10
101.351
20
-79.9574
11
101.431
21
-79.7662
0
LINE
8
BLACK
6
CONTINUOUS
10
101.431
20
-79.7662
11
101.546
21
-79.594
0
LINE
8
BLACK
6
CONTINUOUS
10
101.546
20
-79.594
11
101.692
21
-79.4476
0
LINE
8
BLACK
6
CONTINUOUS
10
101.692
20
-79.4476
11
101.855
21
-79.339
0
LINE
8
BLACK
6
CONTINUOUS
10
101.855
20
-79.339
11
101.864
21
-79.3326
0
LINE
8
BLACK
6
CONTINUOUS
10
101.864
20
-79.3326
11
101.864
21
-79.3326
0
LINE
8
BLACK
6
CONTINUOUS
10
101.864
20
-79.3326
11
102.055
21
-79.2534
0
LINE
8
BLACK
6
CONTINUOUS
10
102.055
20
-79.2534
11
102.258
21
-79.213
0
LINE
8
BLACK
6
CONTINUOUS
10
102.258
20
-79.213
11
102.466
21
-79.213
0
LINE
8
BLACK
6
CONTINUOUS
10
102.466
20
-79.213
11
102.669
21
-79.2534
0
LINE
8
BLACK
6
CONTINUOUS
10
105.169
20
-79.2534
11
105.36
21
-79.3326
0
LINE
8
BLACK
6
CONTINUOUS
10
105.36
20
-79.3326
11
105.36
21
-79.3326
0
LINE
8
BLACK
6
CONTINUOUS
10
105.36
20
-79.3326
11
105.369
21
-79.339
0
LINE
8
BLACK
6
CONTINUOUS
10
105.369
20
-79.339
11
105.532
21
-79.4476
0
LINE
8
BLACK
6
CONTINUOUS
10
105.532
20
-79.4476
11
105.678
21
-79.594
0
LINE
8
BLACK
6
CONTINUOUS
10
105.678
20
-79.594
11
105.793
21
-79.7662
0
LINE
8
BLACK
6
CONTINUOUS
10
105.793
20
-79.7662
11
105.873
21
-79.9574
0
LINE
8
BLACK
6
CONTINUOUS
10
105.873
20
-79.9574
11
105.913
21
-80.1605
0
LINE
8
BLACK
6
CONTINUOUS
10
105.913
20
-80.1605
11
105.913
21
-80.3675
0
LINE
8
BLACK
6
CONTINUOUS
10
105.913
20
-80.3675
11
105.873
21
-80.5706
0
LINE
8
BLACK
6
CONTINUOUS
10
105.873
20
-80.5706
11
105.871
21
-80.5736
0
LINE
8
BLACK
6
CONTINUOUS
10
105.871
20
-80.5736
11
105.793
21
-80.7618
0
LINE
8
BLACK
6
CONTINUOUS
10
105.793
20
-80.7618
11
105.678
21
-80.934
0
LINE
8
BLACK
6
CONTINUOUS
10
105.678
20
-80.934
11
105.532
21
-81.0804
0
LINE
8
BLACK
6
CONTINUOUS
10
105.532
20
-81.0804
11
105.36
21
-81.1954
0
LINE
8
BLACK
6
CONTINUOUS
10
105.36
20
-81.1954
11
105.36
21
-81.1954
0
LINE
8
BLACK
6
CONTINUOUS
10
105.36
20
-81.1954
11
105.36
21
-81.1954
0
LINE
8
BLACK
6
CONTINUOUS
10
105.36
20
-81.1954
11
105.169
21
-81.2746
0
LINE
8
BLACK
6
CONTINUOUS
10
105.169
20
-81.2746
11
104.966
21
-81.315
0
LINE
8
BLACK
6
CONTINUOUS
10
104.966
20
-81.315
11
104.758
21
-81.315
0
LINE
8
BLACK
6
CONTINUOUS
10
104.758
20
-81.315
11
104.555
21
-81.2746
0
LINE
8
BLACK
6
CONTINUOUS
10
104.555
20
-81.2746
11
104.364
21
-81.1954
0
LINE
8
BLACK
6
CONTINUOUS
10
104.364
20
-81.1954
11
104.364
21
-81.1954
0
LINE
8
BLACK
6
CONTINUOUS
10
104.364
20
-81.1954
11
104.364
21
-81.1954
0
LINE
8
BLACK
6
CONTINUOUS
10
104.364
20
-81.1954
11
104.192
21
-81.0804
0
LINE
8
BLACK
6
CONTINUOUS
10
104.192
20
-81.0804
11
104.046
21
-80.934
0
LINE
8
BLACK
6
CONTINUOUS
10
104.046
20
-80.934
11
103.931
21
-80.7618
0
LINE
8
BLACK
6
CONTINUOUS
10
103.931
20
-80.7618
11
103.853
21
-80.5736
0
LINE
8
BLACK
6
CONTINUOUS
10
103.853
20
-80.5736
11
103.851
21
-80.5706
0
LINE
8
BLACK
6
CONTINUOUS
10
103.851
20
-80.5706
11
103.811
21
-80.3675
0
LINE
8
BLACK
6
CONTINUOUS
10
103.811
20
-80.3675
11
103.811
21
-80.1605
0
LINE
8
BLACK
6
CONTINUOUS
10
103.811
20
-80.1605
11
103.851
21
-79.9574
0
LINE
8
BLACK
6
CONTINUOUS
10
103.851
20
-79.9574
11
103.931
21
-79.7662
0
LINE
8
BLACK
6
CONTINUOUS
10
103.931
20
-79.7662
11
104.046
21
-79.594
0
LINE
8
BLACK
6
CONTINUOUS
10
104.046
20
-79.594
11
104.192
21
-79.4476
0
LINE
8
BLACK
6
CONTINUOUS
10
104.192
20
-79.4476
11
104.355
21
-79.339
0
LINE
8
BLACK
6
CONTINUOUS
10
104.355
20
-79.339
11
104.364
21
-79.3326
0
LINE
8
BLACK
6
CONTINUOUS
10
104.364
20
-79.3326
11
104.364
21
-79.3326
0
LINE
8
BLACK
6
CONTINUOUS
10
104.364
20
-79.3326
11
104.555
21
-79.2534
0
LINE
8
BLACK
6
CONTINUOUS
10
104.555
20
-79.2534
11
104.758
21
-79.213
0
LINE
8
BLACK
6
CONTINUOUS
10
104.758
20
-79.213
11
104.966
21
-79.213
0
LINE
8
BLACK
6
CONTINUOUS
10
104.966
20
-79.213
11
105.169
21
-79.2534
0
LINE
8
BLACK
6
CONTINUOUS
10
110.289
20
-79.2534
11
110.48
21
-79.3326
0
LINE
8
BLACK
6
CONTINUOUS
10
110.48
20
-79.3326
11
110.48
21
-79.3326
0
LINE
8
BLACK
6
CONTINUOUS
10
110.48
20
-79.3326
11
110.489
21
-79.339
0
LINE
8
BLACK
6
CONTINUOUS
10
110.489
20
-79.339
11
110.652
21
-79.4476
0
LINE
8
BLACK
6
CONTINUOUS
10
110.652
20
-79.4476
11
110.798
21
-79.594
0
LINE
8
BLACK
6
CONTINUOUS
10
110.798
20
-79.594
11
110.913
21
-79.7662
0
LINE
8
BLACK
6
CONTINUOUS
10
110.913
20
-79.7662
11
110.993
21
-79.9574
0
LINE
8
BLACK
6
CONTINUOUS
10
110.993
20
-79.9574
11
111.033
21
-80.1605
0
LINE
8
BLACK
6
CONTINUOUS
10
111.033
20
-80.1605
11
111.033
21
-80.3675
0
LINE
8
BLACK
6
CONTINUOUS
10
111.033
20
-80.3675
11
110.993
21
-80.5706
0
LINE
8
BLACK
6
CONTINUOUS
10
110.993
20
-80.5706
11
110.991
21
-80.5736
0
LINE
8
BLACK
6
CONTINUOUS
10
110.991
20
-80.5736
11
110.913
21
-80.7618
0
LINE
8
BLACK
6
CONTINUOUS
10
110.913
20
-80.7618
11
110.798
21
-80.934
0
LINE
8
BLACK
6
CONTINUOUS
10
110.798
20
-80.934
11
110.652
21
-81.0804
0
LINE
8
BLACK
6
CONTINUOUS
10
110.652
20
-81.0804
11
110.48
21
-81.1954
0
LINE
8
BLACK
6
CONTINUOUS
10
110.48
20
-81.1954
11
110.48
21
-81.1954
0
LINE
8
BLACK
6
CONTINUOUS
10
110.48
20
-81.1954
11
110.48
21
-81.1954
0
LINE
8
BLACK
6
CONTINUOUS
10
110.48
20
-81.1954
11
110.289
21
-81.2746
0
LINE
8
BLACK
6
CONTINUOUS
10
110.289
20
-81.2746
11
110.086
21
-81.315
0
LINE
8
BLACK
6
CONTINUOUS
10
110.086
20
-81.315
11
109.878
21
-81.315
0
LINE
8
BLACK
6
CONTINUOUS
10
109.878
20
-81.315
11
109.675
21
-81.2746
0
LINE
8
BLACK
6
CONTINUOUS
10
109.675
20
-81.2746
11
109.484
21
-81.1954
0
LINE
8
BLACK
6
CONTINUOUS
10
109.484
20
-81.1954
11
109.484
21
-81.1954
0
LINE
8
BLACK
6
CONTINUOUS
10
109.484
20
-81.1954
11
109.484
21
-81.1954
0
LINE
8
BLACK
6
CONTINUOUS
10
109.484
20
-81.1954
11
109.312
21
-81.0804
0
LINE
8
BLACK
6
CONTINUOUS
10
109.312
20
-81.0804
11
109.166
21
-80.934
0
LINE
8
BLACK
6
CONTINUOUS
10
109.166
20
-80.934
11
109.051
21
-80.7618
0
LINE
8
BLACK
6
CONTINUOUS
10
109.051
20
-80.7618
11
108.973
21
-80.5736
0
LINE
8
BLACK
6
CONTINUOUS
10
108.973
20
-80.5736
11
108.971
21
-80.5706
0
LINE
8
BLACK
6
CONTINUOUS
10
108.971
20
-80.5706
11
108.931
21
-80.3675
0
LINE
8
BLACK
6
CONTINUOUS
10
108.931
20
-80.3675
11
108.931
21
-80.1605
0
LINE
8
BLACK
6
CONTINUOUS
10
108.931
20
-80.1605
11
108.971
21
-79.9574
0
LINE
8
BLACK
6
CONTINUOUS
10
108.971
20
-79.9574
11
109.051
21
-79.7662
0
LINE
8
BLACK
6
CONTINUOUS
10
109.051
20
-79.7662
11
109.166
21
-79.594
0
LINE
8
BLACK
6
CONTINUOUS
10
109.166
20
-79.594
11
109.312
21
-79.4476
0
LINE
8
BLACK
6
CONTINUOUS
10
109.312
20
-79.4476
11
109.475
21
-79.339
0
LINE
8
BLACK
6
CONTINUOUS
10
109.475
20
-79.339
11
109.484
21
-79.3326
0
LINE
8
BLACK
6
CONTINUOUS
10
109.484
20
-79.3326
11
109.484
21
-79.3326
0
LINE
8
BLACK
6
CONTINUOUS
10
109.484
20
-79.3326
11
109.675
21
-79.2534
0
LINE
8
BLACK
6
CONTINUOUS
10
109.675
20
-79.2534
11
109.878
21
-79.213
0
LINE
8
BLACK
6
CONTINUOUS
10
109.878
20
-79.213
11
110.086
21
-79.213
0
LINE
8
BLACK
6
CONTINUOUS
10
110.086
20
-79.213
11
110.289
21
-79.2534
0
LINE
8
BLACK
6
CONTINUOUS
10
87.661
20
-73.695
11
85.059
21
-73.695
0
LINE
8
BLACK
6
CONTINUOUS
10
85.059
20
-73.695
11
85.059
21
-71.593
0
LINE
8
BLACK
6
CONTINUOUS
10
85.059
20
-71.593
11
87.661
21
-71.593
0
LINE
8
BLACK
6
CONTINUOUS
10
87.661
20
-71.593
11
87.661
21
-73.695
0
LINE
8
BLACK
6
CONTINUOUS
10
132.873
20
-73.187
11
130.271
21
-73.187
0
LINE
8
BLACK
6
CONTINUOUS
10
130.271
20
-73.187
11
130.271
21
-71.085
0
LINE
8
BLACK
6
CONTINUOUS
10
130.271
20
-71.085
11
132.873
21
-71.085
0
LINE
8
BLACK
6
CONTINUOUS
10
132.873
20
-71.085
11
132.873
21
-73.187
0
LINE
8
BLACK
6
CONTINUOUS
10
112.503
20
-72.879
11
110.001
21
-72.879
0
LINE
8
BLACK
6
CONTINUOUS
10
110.001
20
-72.879
11
110.001
21
-70.377
0
LINE
8
BLACK
6
CONTINUOUS
10
110.001
20
-70.377
11
112.503
21
-70.377
0
LINE
8
BLACK
6
CONTINUOUS
10
112.503
20
-70.377
11
112.503
21
-72.879
0
LINE
8
BLACK
6
CONTINUOUS
10
126.737
20
-70.3951
11
126.973
21
-70.4666
0
LINE
8
BLACK
6
CONTINUOUS
10
126.973
20
-70.4666
11
127.19
21
-70.5828
0
LINE
8
BLACK
6
CONTINUOUS
10
127.19
20
-70.5828
11
127.381
21
-70.7391
0
LINE
8
BLACK
6
CONTINUOUS
10
127.381
20
-70.7391
11
127.537
21
-70.9296
0
LINE
8
BLACK
6
CONTINUOUS
10
127.537
20
-70.9296
11
127.653
21
-71.1469
0
LINE
8
BLACK
6
CONTINUOUS
10
127.653
20
-71.1469
11
127.725
21
-71.3828
0
LINE
8
BLACK
6
CONTINUOUS
10
127.725
20
-71.3828
11
127.749
21
-71.628
0
LINE
8
BLACK
6
CONTINUOUS
10
127.749
20
-71.628
11
127.725
21
-71.8732
0
LINE
8
BLACK
6
CONTINUOUS
10
127.725
20
-71.8732
11
127.653
21
-72.1091
0
LINE
8
BLACK
6
CONTINUOUS
10
127.653
20
-72.1091
11
127.537
21
-72.3264
0
LINE
8
BLACK
6
CONTINUOUS
10
127.537
20
-72.3264
11
127.381
21
-72.5169
0
LINE
8
BLACK
6
CONTINUOUS
10
127.381
20
-72.5169
11
127.19
21
-72.6732
0
LINE
8
BLACK
6
CONTINUOUS
10
127.19
20
-72.6732
11
126.973
21
-72.7894
0
LINE
8
BLACK
6
CONTINUOUS
10
126.973
20
-72.7894
11
126.737
21
-72.8609
0
LINE
8
BLACK
6
CONTINUOUS
10
126.737
20
-72.8609
11
126.553
21
-72.879
0
LINE
8
BLACK
6
CONTINUOUS
10
126.553
20
-72.879
11
126.431
21
-72.879
0
LINE
8
BLACK
6
CONTINUOUS
10
126.431
20
-72.879
11
126.247
21
-72.8609
0
LINE
8
BLACK
6
CONTINUOUS
10
126.247
20
-72.8609
11
126.011
21
-72.7894
0
LINE
8
BLACK
6
CONTINUOUS
10
126.011
20
-72.7894
11
125.794
21
-72.6732
0
LINE
8
BLACK
6
CONTINUOUS
10
125.794
20
-72.6732
11
125.603
21
-72.5169
0
LINE
8
BLACK
6
CONTINUOUS
10
125.603
20
-72.5169
11
125.447
21
-72.3264
0
LINE
8
BLACK
6
CONTINUOUS
10
125.447
20
-72.3264
11
125.331
21
-72.1091
0
LINE
8
BLACK
6
CONTINUOUS
10
125.331
20
-72.1091
11
125.259
21
-71.8732
0
LINE
8
BLACK
6
CONTINUOUS
10
125.259
20
-71.8732
11
125.235
21
-71.628
0
LINE
8
BLACK
6
CONTINUOUS
10
125.235
20
-71.628
11
125.259
21
-71.3828
0
LINE
8
BLACK
6
CONTINUOUS
10
125.259
20
-71.3828
11
125.331
21
-71.1469
0
LINE
8
BLACK
6
CONTINUOUS
10
125.331
20
-71.1469
11
125.447
21
-70.9296
0
LINE
8
BLACK
6
CONTINUOUS
10
125.447
20
-70.9296
11
125.603
21
-70.7391
0
LINE
8
BLACK
6
CONTINUOUS
10
125.603
20
-70.7391
11
125.794
21
-70.5828
0
LINE
8
BLACK
6
CONTINUOUS
10
125.794
20
-70.5828
11
126.011
21
-70.4666
0
LINE
8
BLACK
6
CONTINUOUS
10
126.011
20
-70.4666
11
126.247
21
-70.3951
0
LINE
8
BLACK
6
CONTINUOUS
10
126.247
20
-70.3951
11
126.431
21
-70.377
0
LINE
8
BLACK
6
CONTINUOUS
10
126.431
20
-70.377
11
126.553
21
-70.377
0
LINE
8
BLACK
6
CONTINUOUS
10
126.553
20
-70.377
11
126.737
21
-70.3951
0
LINE
8
BLACK
6
CONTINUOUS
10
106.368
20
-70.3881
11
106.604
21
-70.4596
0
LINE
8
BLACK
6
CONTINUOUS
10
106.604
20
-70.4596
11
106.821
21
-70.5758
0
LINE
8
BLACK
6
CONTINUOUS
10
106.821
20
-70.5758
11
107.012
21
-70.7321
0
LINE
8
BLACK
6
CONTINUOUS
10
107.012
20
-70.7321
11
107.168
21
-70.9226
0
LINE
8
BLACK
6
CONTINUOUS
10
107.168
20
-70.9226
11
107.284
21
-71.1399
0
LINE
8
BLACK
6
CONTINUOUS
10
107.284
20
-71.1399
11
107.356
21
-71.3758
0
LINE
8
BLACK
6
CONTINUOUS
10
107.356
20
-71.3758
11
107.38
21
-71.621
0
LINE
8
BLACK
6
CONTINUOUS
10
107.38
20
-71.621
11
107.356
21
-71.8662
0
LINE
8
BLACK
6
CONTINUOUS
10
107.356
20
-71.8662
11
107.284
21
-72.1021
0
LINE
8
BLACK
6
CONTINUOUS
10
107.284
20
-72.1021
11
107.168
21
-72.3194
0
LINE
8
BLACK
6
CONTINUOUS
10
107.168
20
-72.3194
11
107.012
21
-72.5099
0
LINE
8
BLACK
6
CONTINUOUS
10
107.012
20
-72.5099
11
106.821
21
-72.6662
0
LINE
8
BLACK
6
CONTINUOUS
10
106.821
20
-72.6662
11
106.604
21
-72.7824
0
LINE
8
BLACK
6
CONTINUOUS
10
106.604
20
-72.7824
11
106.368
21
-72.8539
0
LINE
8
BLACK
6
CONTINUOUS
10
106.368
20
-72.8539
11
106.184
21
-72.872
0
LINE
8
BLACK
6
CONTINUOUS
10
106.184
20
-72.872
11
106.062
21
-72.872
0
LINE
8
BLACK
6
CONTINUOUS
10
106.062
20
-72.872
11
105.878
21
-72.8539
0
LINE
8
BLACK
6
CONTINUOUS
10
105.878
20
-72.8539
11
105.642
21
-72.7824
0
LINE
8
BLACK
6
CONTINUOUS
10
105.642
20
-72.7824
11
105.425
21
-72.6662
0
LINE
8
BLACK
6
CONTINUOUS
10
105.425
20
-72.6662
11
105.234
21
-72.5099
0
LINE
8
BLACK
6
CONTINUOUS
10
105.234
20
-72.5099
11
105.078
21
-72.3194
0
LINE
8
BLACK
6
CONTINUOUS
10
105.078
20
-72.3194
11
104.962
21
-72.1021
0
LINE
8
BLACK
6
CONTINUOUS
10
104.962
20
-72.1021
11
104.89
21
-71.8662
0
LINE
8
BLACK
6
CONTINUOUS
10
104.89
20
-71.8662
11
104.866
21
-71.621
0
LINE
8
BLACK
6
CONTINUOUS
10
104.866
20
-71.621
11
104.89
21
-71.3758
0
LINE
8
BLACK
6
CONTINUOUS
10
104.89
20
-71.3758
11
104.962
21
-71.1399
0
LINE
8
BLACK
6
CONTINUOUS
10
104.962
20
-71.1399
11
105.078
21
-70.9226
0
LINE
8
BLACK
6
CONTINUOUS
10
105.078
20
-70.9226
11
105.234
21
-70.7321
0
LINE
8
BLACK
6
CONTINUOUS
10
105.234
20
-70.7321
11
105.425
21
-70.5758
0
LINE
8
BLACK
6
CONTINUOUS
10
105.425
20
-70.5758
11
105.642
21
-70.4596
0
LINE
8
BLACK
6
CONTINUOUS
10
105.642
20
-70.4596
11
105.878
21
-70.3881
0
LINE
8
BLACK
6
CONTINUOUS
10
105.878
20
-70.3881
11
106.062
21
-70.37
0
LINE
8
BLACK
6
CONTINUOUS
10
106.062
20
-70.37
11
106.184
21
-70.37
0
LINE
8
BLACK
6
CONTINUOUS
10
106.184
20
-70.37
11
106.368
21
-70.3881
0
LINE
8
BLACK
6
CONTINUOUS
10
92.134
20
-72.872
11
89.632
21
-72.872
0
LINE
8
BLACK
6
CONTINUOUS
10
89.632
20
-72.872
11
89.632
21
-70.37
0
LINE
8
BLACK
6
CONTINUOUS
10
89.632
20
-70.37
11
92.134
21
-70.37
0
LINE
8
BLACK
6
CONTINUOUS
10
92.134
20
-70.37
11
92.134
21
-72.872
0
LINE
8
BLACK
6
CONTINUOUS
10
87.661
20
-71.155
11
85.059
21
-71.155
0
LINE
8
BLACK
6
CONTINUOUS
10
85.059
20
-71.155
11
85.059
21
-69.053
0
LINE
8
BLACK
6
CONTINUOUS
10
85.059
20
-69.053
11
87.661
21
-69.053
0
LINE
8
BLACK
6
CONTINUOUS
10
87.661
20
-69.053
11
87.661
21
-71.155
0
LINE
8
BLACK
6
CONTINUOUS
10
132.873
20
-70.647
11
130.271
21
-70.647
0
LINE
8
BLACK
6
CONTINUOUS
10
130.271
20
-70.647
11
130.271
21
-68.545
0
LINE
8
BLACK
6
CONTINUOUS
10
130.271
20
-68.545
11
132.873
21
-68.545
0
LINE
8
BLACK
6
CONTINUOUS
10
132.873
20
-68.545
11
132.873
21
-70.647
0
LINE
8
BLACK
6
CONTINUOUS
10
87.661
20
-68.615
11
85.059
21
-68.615
0
LINE
8
BLACK
6
CONTINUOUS
10
85.059
20
-68.615
11
85.059
21
-66.513
0
LINE
8
BLACK
6
CONTINUOUS
10
85.059
20
-66.513
11
87.661
21
-66.513
0
LINE
8
BLACK
6
CONTINUOUS
10
87.661
20
-66.513
11
87.661
21
-68.615
0
LINE
8
BLACK
6
CONTINUOUS
10
132.873
20
-68.107
11
130.271
21
-68.107
0
LINE
8
BLACK
6
CONTINUOUS
10
130.271
20
-68.107
11
130.271
21
-66.005
0
LINE
8
BLACK
6
CONTINUOUS
10
130.271
20
-66.005
11
132.873
21
-66.005
0
LINE
8
BLACK
6
CONTINUOUS
10
132.873
20
-66.005
11
132.873
21
-68.107
0
LINE
8
BLACK
6
CONTINUOUS
10
87.661
20
-66.075
11
85.059
21
-66.075
0
LINE
8
BLACK
6
CONTINUOUS
10
85.059
20
-66.075
11
85.059
21
-63.973
0
LINE
8
BLACK
6
CONTINUOUS
10
85.059
20
-63.973
11
87.661
21
-63.973
0
LINE
8
BLACK
6
CONTINUOUS
10
87.661
20
-63.973
11
87.661
21
-66.075
0
LINE
8
BLACK
6
CONTINUOUS
10
106.368
20
-63.4981
11
106.604
21
-63.5696
0
LINE
8
BLACK
6
CONTINUOUS
10
106.604
20
-63.5696
11
106.821
21
-63.6858
0
LINE
8
BLACK
6
CONTINUOUS
10
106.821
20
-63.6858
11
107.012
21
-63.8421
0
LINE
8
BLACK
6
CONTINUOUS
10
107.012
20
-63.8421
11
107.168
21
-64.0326
0
LINE
8
BLACK
6
CONTINUOUS
10
107.168
20
-64.0326
11
107.284
21
-64.2499
0
LINE
8
BLACK
6
CONTINUOUS
10
107.284
20
-64.2499
11
107.356
21
-64.4858
0
LINE
8
BLACK
6
CONTINUOUS
10
107.356
20
-64.4858
11
107.38
21
-64.731
0
LINE
8
BLACK
6
CONTINUOUS
10
107.38
20
-64.731
11
107.356
21
-64.9762
0
LINE
8
BLACK
6
CONTINUOUS
10
107.356
20
-64.9762
11
107.284
21
-65.2121
0
LINE
8
BLACK
6
CONTINUOUS
10
107.284
20
-65.2121
11
107.168
21
-65.4294
0
LINE
8
BLACK
6
CONTINUOUS
10
107.168
20
-65.4294
11
107.012
21
-65.6199
0
LINE
8
BLACK
6
CONTINUOUS
10
107.012
20
-65.6199
11
106.821
21
-65.7762
0
LINE
8
BLACK
6
CONTINUOUS
10
106.821
20
-65.7762
11
106.604
21
-65.8924
0
LINE
8
BLACK
6
CONTINUOUS
10
106.604
20
-65.8924
11
106.368
21
-65.9639
0
LINE
8
BLACK
6
CONTINUOUS
10
106.368
20
-65.9639
11
106.184
21
-65.982
0
LINE
8
BLACK
6
CONTINUOUS
10
106.184
20
-65.982
11
106.062
21
-65.982
0
LINE
8
BLACK
6
CONTINUOUS
10
106.062
20
-65.982
11
105.878
21
-65.9639
0
LINE
8
BLACK
6
CONTINUOUS
10
105.878
20
-65.9639
11
105.642
21
-65.8924
0
LINE
8
BLACK
6
CONTINUOUS
10
105.642
20
-65.8924
11
105.425
21
-65.7762
0
LINE
8
BLACK
6
CONTINUOUS
10
105.425
20
-65.7762
11
105.234
21
-65.6199
0
LINE
8
BLACK
6
CONTINUOUS
10
105.234
20
-65.6199
11
105.078
21
-65.4294
0
LINE
8
BLACK
6
CONTINUOUS
10
105.078
20
-65.4294
11
104.962
21
-65.2121
0
LINE
8
BLACK
6
CONTINUOUS
10
104.962
20
-65.2121
11
104.89
21
-64.9762
0
LINE
8
BLACK
6
CONTINUOUS
10
104.89
20
-64.9762
11
104.866
21
-64.731
0
LINE
8
BLACK
6
CONTINUOUS
10
104.866
20
-64.731
11
104.89
21
-64.4858
0
LINE
8
BLACK
6
CONTINUOUS
10
104.89
20
-64.4858
11
104.962
21
-64.2499
0
LINE
8
BLACK
6
CONTINUOUS
10
104.962
20
-64.2499
11
105.078
21
-64.0326
0
LINE
8
BLACK
6
CONTINUOUS
10
105.078
20
-64.0326
11
105.234
21
-63.8421
0
LINE
8
BLACK
6
CONTINUOUS
10
105.234
20
-63.8421
11
105.425
21
-63.6858
0
LINE
8
BLACK
6
CONTINUOUS
10
105.425
20
-63.6858
11
105.642
21
-63.5696
0
LINE
8
BLACK
6
CONTINUOUS
10
105.642
20
-63.5696
11
105.878
21
-63.4981
0
LINE
8
BLACK
6
CONTINUOUS
10
105.878
20
-63.4981
11
106.062
21
-63.48
0
LINE
8
BLACK
6
CONTINUOUS
10
106.062
20
-63.48
11
106.184
21
-63.48
0
LINE
8
BLACK
6
CONTINUOUS
10
106.184
20
-63.48
11
106.368
21
-63.4981
0
LINE
8
BLACK
6
CONTINUOUS
10
92.134
20
-65.982
11
89.632
21
-65.982
0
LINE
8
BLACK
6
CONTINUOUS
10
89.632
20
-65.982
11
89.632
21
-63.48
0
LINE
8
BLACK
6
CONTINUOUS
10
89.632
20
-63.48
11
92.134
21
-63.48
0
LINE
8
BLACK
6
CONTINUOUS
10
92.134
20
-63.48
11
92.134
21
-65.982
0
LINE
8
BLACK
6
CONTINUOUS
10
126.828
20
-63.2441
11
127.064
21
-63.3156
0
LINE
8
BLACK
6
CONTINUOUS
10
127.064
20
-63.3156
11
127.281
21
-63.4318
0
LINE
8
BLACK
6
CONTINUOUS
10
127.281
20
-63.4318
11
127.472
21
-63.5881
0
LINE
8
BLACK
6
CONTINUOUS
10
127.472
20
-63.5881
11
127.628
21
-63.7786
0
LINE
8
BLACK
6
CONTINUOUS
10
127.628
20
-63.7786
11
127.744
21
-63.9959
0
LINE
8
BLACK
6
CONTINUOUS
10
127.744
20
-63.9959
11
127.816
21
-64.2318
0
LINE
8
BLACK
6
CONTINUOUS
10
127.816
20
-64.2318
11
127.84
21
-64.477
0
LINE
8
BLACK
6
CONTINUOUS
10
127.84
20
-64.477
11
127.816
21
-64.7222
0
LINE
8
BLACK
6
CONTINUOUS
10
127.816
20
-64.7222
11
127.744
21
-64.9581
0
LINE
8
BLACK
6
CONTINUOUS
10
127.744
20
-64.9581
11
127.628
21
-65.1754
0
LINE
8
BLACK
6
CONTINUOUS
10
127.628
20
-65.1754
11
127.472
21
-65.3659
0
LINE
8
BLACK
6
CONTINUOUS
10
127.472
20
-65.3659
11
127.281
21
-65.5222
0
LINE
8
BLACK
6
CONTINUOUS
10
127.281
20
-65.5222
11
127.064
21
-65.6384
0
LINE
8
BLACK
6
CONTINUOUS
10
127.064
20
-65.6384
11
126.828
21
-65.7099
0
LINE
8
BLACK
6
CONTINUOUS
10
126.828
20
-65.7099
11
126.644
21
-65.728
0
LINE
8
BLACK
6
CONTINUOUS
10
126.644
20
-65.728
11
126.522
21
-65.728
0
LINE
8
BLACK
6
CONTINUOUS
10
126.522
20
-65.728
11
126.338
21
-65.7099
0
LINE
8
BLACK
6
CONTINUOUS
10
126.338
20
-65.7099
11
126.102
21
-65.6384
0
LINE
8
BLACK
6
CONTINUOUS
10
126.102
20
-65.6384
11
125.885
21
-65.5222
0
LINE
8
BLACK
6
CONTINUOUS
10
125.885
20
-65.5222
11
125.694
21
-65.3659
0
LINE
8
BLACK
6
CONTINUOUS
10
125.694
20
-65.3659
11
125.538
21
-65.1754
0
LINE
8
BLACK
6
CONTINUOUS
10
125.538
20
-65.1754
11
125.422
21
-64.9581
0
LINE
8
BLACK
6
CONTINUOUS
10
125.422
20
-64.9581
11
125.35
21
-64.7222
0
LINE
8
BLACK
6
CONTINUOUS
10
125.35
20
-64.7222
11
125.326
21
-64.477
0
LINE
8
BLACK
6
CONTINUOUS
10
125.326
20
-64.477
11
125.35
21
-64.2318
0
LINE
8
BLACK
6
CONTINUOUS
10
125.35
20
-64.2318
11
125.422
21
-63.9959
0
LINE
8
BLACK
6
CONTINUOUS
10
125.422
20
-63.9959
11
125.538
21
-63.7786
0
LINE
8
BLACK
6
CONTINUOUS
10
125.538
20
-63.7786
11
125.694
21
-63.5881
0
LINE
8
BLACK
6
CONTINUOUS
10
125.694
20
-63.5881
11
125.885
21
-63.4318
0
LINE
8
BLACK
6
CONTINUOUS
10
125.885
20
-63.4318
11
126.102
21
-63.3156
0
LINE
8
BLACK
6
CONTINUOUS
10
126.102
20
-63.3156
11
126.338
21
-63.2441
0
LINE
8
BLACK
6
CONTINUOUS
10
126.338
20
-63.2441
11
126.522
21
-63.226
0
LINE
8
BLACK
6
CONTINUOUS
10
126.522
20
-63.226
11
126.644
21
-63.226
0
LINE
8
BLACK
6
CONTINUOUS
10
126.644
20
-63.226
11
126.828
21
-63.2441
0
LINE
8
BLACK
6
CONTINUOUS
10
112.594
20
-65.728
11
110.092
21
-65.728
0
LINE
8
BLACK
6
CONTINUOUS
10
110.092
20
-65.728
11
110.092
21
-63.226
0
LINE
8
BLACK
6
CONTINUOUS
10
110.092
20
-63.226
11
112.594
21
-63.226
0
LINE
8
BLACK
6
CONTINUOUS
10
112.594
20
-63.226
11
112.594
21
-65.728
0
LINE
8
BLACK
6
CONTINUOUS
10
132.873
20
-65.567
11
130.271
21
-65.567
0
LINE
8
BLACK
6
CONTINUOUS
10
130.271
20
-65.567
11
130.271
21
-63.465
0
LINE
8
BLACK
6
CONTINUOUS
10
130.271
20
-63.465
11
132.873
21
-63.465
0
LINE
8
BLACK
6
CONTINUOUS
10
132.873
20
-63.465
11
132.873
21
-65.567
0
LINE
8
BLACK
6
CONTINUOUS
10
87.661
20
-63.535
11
85.059
21
-63.535
0
LINE
8
BLACK
6
CONTINUOUS
10
85.059
20
-63.535
11
85.059
21
-61.433
0
LINE
8
BLACK
6
CONTINUOUS
10
85.059
20
-61.433
11
87.661
21
-61.433
0
LINE
8
BLACK
6
CONTINUOUS
10
87.661
20
-61.433
11
87.661
21
-63.535
0
LINE
8
BLACK
6
CONTINUOUS
10
132.873
20
-63.027
11
130.271
21
-63.027
0
LINE
8
BLACK
6
CONTINUOUS
10
130.271
20
-63.027
11
130.271
21
-60.925
0
LINE
8
BLACK
6
CONTINUOUS
10
130.271
20
-60.925
11
132.873
21
-60.925
0
LINE
8
BLACK
6
CONTINUOUS
10
132.873
20
-60.925
11
132.873
21
-63.027
0
LINE
8
BLACK
6
CONTINUOUS
10
87.661
20
-60.995
11
85.059
21
-60.995
0
LINE
8
BLACK
6
CONTINUOUS
10
85.059
20
-60.995
11
85.059
21
-58.893
0
LINE
8
BLACK
6
CONTINUOUS
10
85.059
20
-58.893
11
87.661
21
-58.893
0
LINE
8
BLACK
6
CONTINUOUS
10
87.661
20
-58.893
11
87.661
21
-60.995
0
LINE
8
BLACK
6
CONTINUOUS
10
132.873
20
-60.487
11
130.271
21
-60.487
0
LINE
8
BLACK
6
CONTINUOUS
10
130.271
20
-60.487
11
130.271
21
-58.385
0
LINE
8
BLACK
6
CONTINUOUS
10
130.271
20
-58.385
11
132.873
21
-58.385
0
LINE
8
BLACK
6
CONTINUOUS
10
132.873
20
-58.385
11
132.873
21
-60.487
0
LINE
8
BLACK
6
CONTINUOUS
10
106.368
20
-56.6081
11
106.604
21
-56.6796
0
LINE
8
BLACK
6
CONTINUOUS
10
106.604
20
-56.6796
11
106.821
21
-56.7958
0
LINE
8
BLACK
6
CONTINUOUS
10
106.821
20
-56.7958
11
107.012
21
-56.9521
0
LINE
8
BLACK
6
CONTINUOUS
10
107.012
20
-56.9521
11
107.168
21
-57.1426
0
LINE
8
BLACK
6
CONTINUOUS
10
107.168
20
-57.1426
11
107.284
21
-57.3599
0
LINE
8
BLACK
6
CONTINUOUS
10
107.284
20
-57.3599
11
107.356
21
-57.5958
0
LINE
8
BLACK
6
CONTINUOUS
10
107.356
20
-57.5958
11
107.38
21
-57.841
0
LINE
8
BLACK
6
CONTINUOUS
10
107.38
20
-57.841
11
107.356
21
-58.0862
0
LINE
8
BLACK
6
CONTINUOUS
10
107.356
20
-58.0862
11
107.284
21
-58.3221
0
LINE
8
BLACK
6
CONTINUOUS
10
107.284
20
-58.3221
11
107.168
21
-58.5394
0
LINE
8
BLACK
6
CONTINUOUS
10
107.168
20
-58.5394
11
107.012
21
-58.7299
0
LINE
8
BLACK
6
CONTINUOUS
10
107.012
20
-58.7299
11
106.821
21
-58.8862
0
LINE
8
BLACK
6
CONTINUOUS
10
106.821
20
-58.8862
11
106.604
21
-59.0024
0
LINE
8
BLACK
6
CONTINUOUS
10
106.604
20
-59.0024
11
106.368
21
-59.0739
0
LINE
8
BLACK
6
CONTINUOUS
10
106.368
20
-59.0739
11
106.184
21
-59.092
0
LINE
8
BLACK
6
CONTINUOUS
10
106.184
20
-59.092
11
106.062
21
-59.092
0
LINE
8
BLACK
6
CONTINUOUS
10
106.062
20
-59.092
11
105.878
21
-59.0739
0
LINE
8
BLACK
6
CONTINUOUS
10
105.878
20
-59.0739
11
105.642
21
-59.0024
0
LINE
8
BLACK
6
CONTINUOUS
10
105.642
20
-59.0024
11
105.425
21
-58.8862
0
LINE
8
BLACK
6
CONTINUOUS
10
105.425
20
-58.8862
11
105.234
21
-58.7299
0
LINE
8
BLACK
6
CONTINUOUS
10
105.234
20
-58.7299
11
105.078
21
-58.5394
0
LINE
8
BLACK
6
CONTINUOUS
10
105.078
20
-58.5394
11
104.962
21
-58.3221
0
LINE
8
BLACK
6
CONTINUOUS
10
104.962
20
-58.3221
11
104.89
21
-58.0862
0
LINE
8
BLACK
6
CONTINUOUS
10
104.89
20
-58.0862
11
104.866
21
-57.841
0
LINE
8
BLACK
6
CONTINUOUS
10
104.866
20
-57.841
11
104.89
21
-57.5958
0
LINE
8
BLACK
6
CONTINUOUS
10
104.89
20
-57.5958
11
104.962
21
-57.3599
0
LINE
8
BLACK
6
CONTINUOUS
10
104.962
20
-57.3599
11
105.078
21
-57.1426
0
LINE
8
BLACK
6
CONTINUOUS
10
105.078
20
-57.1426
11
105.234
21
-56.9521
0
LINE
8
BLACK
6
CONTINUOUS
10
105.234
20
-56.9521
11
105.425
21
-56.7958
0
LINE
8
BLACK
6
CONTINUOUS
10
105.425
20
-56.7958
11
105.642
21
-56.6796
0
LINE
8
BLACK
6
CONTINUOUS
10
105.642
20
-56.6796
11
105.878
21
-56.6081
0
LINE
8
BLACK
6
CONTINUOUS
10
105.878
20
-56.6081
11
106.062
21
-56.59
0
LINE
8
BLACK
6
CONTINUOUS
10
106.062
20
-56.59
11
106.184
21
-56.59
0
LINE
8
BLACK
6
CONTINUOUS
10
106.184
20
-56.59
11
106.368
21
-56.6081
0
LINE
8
BLACK
6
CONTINUOUS
10
92.134
20
-59.092
11
89.632
21
-59.092
0
LINE
8
BLACK
6
CONTINUOUS
10
89.632
20
-59.092
11
89.632
21
-56.59
0
LINE
8
BLACK
6
CONTINUOUS
10
89.632
20
-56.59
11
92.134
21
-56.59
0
LINE
8
BLACK
6
CONTINUOUS
10
92.134
20
-56.59
11
92.134
21
-59.092
0
LINE
8
BLACK
6
CONTINUOUS
10
126.828
20
-56.3541
11
127.064
21
-56.4256
0
LINE
8
BLACK
6
CONTINUOUS
10
127.064
20
-56.4256
11
127.281
21
-56.5418
0
LINE
8
BLACK
6
CONTINUOUS
10
127.281
20
-56.5418
11
127.472
21
-56.6981
0
LINE
8
BLACK
6
CONTINUOUS
10
127.472
20
-56.6981
11
127.628
21
-56.8886
0
LINE
8
BLACK
6
CONTINUOUS
10
127.628
20
-56.8886
11
127.744
21
-57.1059
0
LINE
8
BLACK
6
CONTINUOUS
10
127.744
20
-57.1059
11
127.816
21
-57.3418
0
LINE
8
BLACK
6
CONTINUOUS
10
127.816
20
-57.3418
11
127.84
21
-57.587
0
LINE
8
BLACK
6
CONTINUOUS
10
127.84
20
-57.587
11
127.816
21
-57.8322
0
LINE
8
BLACK
6
CONTINUOUS
10
127.816
20
-57.8322
11
127.744
21
-58.0681
0
LINE
8
BLACK
6
CONTINUOUS
10
127.744
20
-58.0681
11
127.628
21
-58.2854
0
LINE
8
BLACK
6
CONTINUOUS
10
127.628
20
-58.2854
11
127.472
21
-58.4759
0
LINE
8
BLACK
6
CONTINUOUS
10
127.472
20
-58.4759
11
127.281
21
-58.6322
0
LINE
8
BLACK
6
CONTINUOUS
10
127.281
20
-58.6322
11
127.064
21
-58.7484
0
LINE
8
BLACK
6
CONTINUOUS
10
127.064
20
-58.7484
11
126.828
21
-58.8199
0
LINE
8
BLACK
6
CONTINUOUS
10
126.828
20
-58.8199
11
126.644
21
-58.838
0
LINE
8
BLACK
6
CONTINUOUS
10
126.644
20
-58.838
11
126.522
21
-58.838
0
LINE
8
BLACK
6
CONTINUOUS
10
126.522
20
-58.838
11
126.338
21
-58.8199
0
LINE
8
BLACK
6
CONTINUOUS
10
126.338
20
-58.8199
11
126.102
21
-58.7484
0
LINE
8
BLACK
6
CONTINUOUS
10
126.102
20
-58.7484
11
125.885
21
-58.6322
0
LINE
8
BLACK
6
CONTINUOUS
10
125.885
20
-58.6322
11
125.694
21
-58.4759
0
LINE
8
BLACK
6
CONTINUOUS
10
125.694
20
-58.4759
11
125.538
21
-58.2854
0
LINE
8
BLACK
6
CONTINUOUS
10
125.538
20
-58.2854
11
125.422
21
-58.0681
0
LINE
8
BLACK
6
CONTINUOUS
10
125.422
20
-58.0681
11
125.35
21
-57.8322
0
LINE
8
BLACK
6
CONTINUOUS
10
125.35
20
-57.8322
11
125.326
21
-57.587
0
LINE
8
BLACK
6
CONTINUOUS
10
125.326
20
-57.587
11
125.35
21
-57.3418
0
LINE
8
BLACK
6
CONTINUOUS
10
125.35
20
-57.3418
11
125.422
21
-57.1059
0
LINE
8
BLACK
6
CONTINUOUS
10
125.422
20
-57.1059
11
125.538
21
-56.8886
0
LINE
8
BLACK
6
CONTINUOUS
10
125.538
20
-56.8886
11
125.694
21
-56.6981
0
LINE
8
BLACK
6
CONTINUOUS
10
125.694
20
-56.6981
11
125.885
21
-56.5418
0
LINE
8
BLACK
6
CONTINUOUS
10
125.885
20
-56.5418
11
126.102
21
-56.4256
0
LINE
8
BLACK
6
CONTINUOUS
10
126.102
20
-56.4256
11
126.338
21
-56.3541
0
LINE
8
BLACK
6
CONTINUOUS
10
126.338
20
-56.3541
11
126.522
21
-56.336
0
LINE
8
BLACK
6
CONTINUOUS
10
126.522
20
-56.336
11
126.644
21
-56.336
0
LINE
8
BLACK
6
CONTINUOUS
10
126.644
20
-56.336
11
126.828
21
-56.3541
0
LINE
8
BLACK
6
CONTINUOUS
10
112.594
20
-58.838
11
110.092
21
-58.838
0
LINE
8
BLACK
6
CONTINUOUS
10
110.092
20
-58.838
11
110.092
21
-56.336
0
LINE
8
BLACK
6
CONTINUOUS
10
110.092
20
-56.336
11
112.594
21
-56.336
0
LINE
8
BLACK
6
CONTINUOUS
10
112.594
20
-56.336
11
112.594
21
-58.838
0
LINE
8
BLACK
6
CONTINUOUS
10
126.828
20
-49.4641
11
127.064
21
-49.5356
0
LINE
8
BLACK
6
CONTINUOUS
10
127.064
20
-49.5356
11
127.281
21
-49.6518
0
LINE
8
BLACK
6
CONTINUOUS
10
127.281
20
-49.6518
11
127.472
21
-49.8081
0
LINE
8
BLACK
6
CONTINUOUS
10
127.472
20
-49.8081
11
127.628
21
-49.9986
0
LINE
8
BLACK
6
CONTINUOUS
10
127.628
20
-49.9986
11
127.744
21
-50.2159
0
LINE
8
BLACK
6
CONTINUOUS
10
127.744
20
-50.2159
11
127.816
21
-50.4518
0
LINE
8
BLACK
6
CONTINUOUS
10
127.816
20
-50.4518
11
127.84
21
-50.697
0
LINE
8
BLACK
6
CONTINUOUS
10
127.84
20
-50.697
11
127.816
21
-50.9422
0
LINE
8
BLACK
6
CONTINUOUS
10
127.816
20
-50.9422
11
127.744
21
-51.1781
0
LINE
8
BLACK
6
CONTINUOUS
10
127.744
20
-51.1781
11
127.628
21
-51.3954
0
LINE
8
BLACK
6
CONTINUOUS
10
127.628
20
-51.3954
11
127.472
21
-51.5859
0
LINE
8
BLACK
6
CONTINUOUS
10
127.472
20
-51.5859
11
127.281
21
-51.7422
0
LINE
8
BLACK
6
CONTINUOUS
10
127.281
20
-51.7422
11
127.064
21
-51.8584
0
LINE
8
BLACK
6
CONTINUOUS
10
127.064
20
-51.8584
11
126.828
21
-51.9299
0
LINE
8
BLACK
6
CONTINUOUS
10
126.828
20
-51.9299
11
126.644
21
-51.948
0
LINE
8
BLACK
6
CONTINUOUS
10
126.644
20
-51.948
11
126.522
21
-51.948
0
LINE
8
BLACK
6
CONTINUOUS
10
126.522
20
-51.948
11
126.338
21
-51.9299
0
LINE
8
BLACK
6
CONTINUOUS
10
126.338
20
-51.9299
11
126.102
21
-51.8584
0
LINE
8
BLACK
6
CONTINUOUS
10
126.102
20
-51.8584
11
125.885
21
-51.7422
0
LINE
8
BLACK
6
CONTINUOUS
10
125.885
20
-51.7422
11
125.694
21
-51.5859
0
LINE
8
BLACK
6
CONTINUOUS
10
125.694
20
-51.5859
11
125.538
21
-51.3954
0
LINE
8
BLACK
6
CONTINUOUS
10
125.538
20
-51.3954
11
125.422
21
-51.1781
0
LINE
8
BLACK
6
CONTINUOUS
10
125.422
20
-51.1781
11
125.35
21
-50.9422
0
LINE
8
BLACK
6
CONTINUOUS
10
125.35
20
-50.9422
11
125.326
21
-50.697
0
LINE
8
BLACK
6
CONTINUOUS
10
125.326
20
-50.697
11
125.35
21
-50.4518
0
LINE
8
BLACK
6
CONTINUOUS
10
125.35
20
-50.4518
11
125.422
21
-50.2159
0
LINE
8
BLACK
6
CONTINUOUS
10
125.422
20
-50.2159
11
125.538
21
-49.9986
0
LINE
8
BLACK
6
CONTINUOUS
10
125.538
20
-49.9986
11
125.694
21
-49.8081
0
LINE
8
BLACK
6
CONTINUOUS
10
125.694
20
-49.8081
11
125.885
21
-49.6518
0
LINE
8
BLACK
6
CONTINUOUS
10
125.885
20
-49.6518
11
126.102
21
-49.5356
0
LINE
8
BLACK
6
CONTINUOUS
10
126.102
20
-49.5356
11
126.338
21
-49.4641
0
LINE
8
BLACK
6
CONTINUOUS
10
126.338
20
-49.4641
11
126.522
21
-49.446
0
LINE
8
BLACK
6
CONTINUOUS
10
126.522
20
-49.446
11
126.644
21
-49.446
0
LINE
8
BLACK
6
CONTINUOUS
10
126.644
20
-49.446
11
126.828
21
-49.4641
0
LINE
8
BLACK
6
CONTINUOUS
10
112.594
20
-51.948
11
110.092
21
-51.948
0
LINE
8
BLACK
6
CONTINUOUS
10
110.092
20
-51.948
11
110.092
21
-49.446
0
LINE
8
BLACK
6
CONTINUOUS
10
110.092
20
-49.446
11
112.594
21
-49.446
0
LINE
8
BLACK
6
CONTINUOUS
10
112.594
20
-49.446
11
112.594
21
-51.948
0
LINE
8
BLACK
6
CONTINUOUS
10
91.929
20
-51.797
11
89.427
21
-51.797
0
LINE
8
BLACK
6
CONTINUOUS
10
89.427
20
-51.797
11
89.427
21
-49.295
0
LINE
8
BLACK
6
CONTINUOUS
10
89.427
20
-49.295
11
91.929
21
-49.295
0
LINE
8
BLACK
6
CONTINUOUS
10
91.929
20
-49.295
11
91.929
21
-51.797
0
LINE
8
BLACK
6
CONTINUOUS
10
106.163
20
-49.3131
11
106.399
21
-49.3846
0
LINE
8
BLACK
6
CONTINUOUS
10
106.399
20
-49.3846
11
106.616
21
-49.5008
0
LINE
8
BLACK
6
CONTINUOUS
10
106.616
20
-49.5008
11
106.807
21
-49.6571
0
LINE
8
BLACK
6
CONTINUOUS
10
106.807
20
-49.6571
11
106.963
21
-49.8476
0
LINE
8
BLACK
6
CONTINUOUS
10
106.963
20
-49.8476
11
107.079
21
-50.0649
0
LINE
8
BLACK
6
CONTINUOUS
10
107.079
20
-50.0649
11
107.151
21
-50.3008
0
LINE
8
BLACK
6
CONTINUOUS
10
107.151
20
-50.3008
11
107.175
21
-50.546
0
LINE
8
BLACK
6
CONTINUOUS
10
107.175
20
-50.546
11
107.151
21
-50.7912
0
LINE
8
BLACK
6
CONTINUOUS
10
107.151
20
-50.7912
11
107.079
21
-51.0271
0
LINE
8
BLACK
6
CONTINUOUS
10
107.079
20
-51.0271
11
106.963
21
-51.2444
0
LINE
8
BLACK
6
CONTINUOUS
10
106.963
20
-51.2444
11
106.807
21
-51.4349
0
LINE
8
BLACK
6
CONTINUOUS
10
106.807
20
-51.4349
11
106.616
21
-51.5912
0
LINE
8
BLACK
6
CONTINUOUS
10
106.616
20
-51.5912
11
106.399
21
-51.7074
0
LINE
8
BLACK
6
CONTINUOUS
10
106.399
20
-51.7074
11
106.163
21
-51.7789
0
LINE
8
BLACK
6
CONTINUOUS
10
106.163
20
-51.7789
11
105.979
21
-51.797
0
LINE
8
BLACK
6
CONTINUOUS
10
105.979
20
-51.797
11
105.857
21
-51.797
0
LINE
8
BLACK
6
CONTINUOUS
10
105.857
20
-51.797
11
105.673
21
-51.7789
0
LINE
8
BLACK
6
CONTINUOUS
10
105.673
20
-51.7789
11
105.437
21
-51.7074
0
LINE
8
BLACK
6
CONTINUOUS
10
105.437
20
-51.7074
11
105.22
21
-51.5912
0
LINE
8
BLACK
6
CONTINUOUS
10
105.22
20
-51.5912
11
105.029
21
-51.4349
0
LINE
8
BLACK
6
CONTINUOUS
10
105.029
20
-51.4349
11
104.873
21
-51.2444
0
LINE
8
BLACK
6
CONTINUOUS
10
104.873
20
-51.2444
11
104.757
21
-51.0271
0
LINE
8
BLACK
6
CONTINUOUS
10
104.757
20
-51.0271
11
104.685
21
-50.7912
0
LINE
8
BLACK
6
CONTINUOUS
10
104.685
20
-50.7912
11
104.661
21
-50.546
0
LINE
8
BLACK
6
CONTINUOUS
10
104.661
20
-50.546
11
104.685
21
-50.3008
0
LINE
8
BLACK
6
CONTINUOUS
10
104.685
20
-50.3008
11
104.757
21
-50.0649
0
LINE
8
BLACK
6
CONTINUOUS
10
104.757
20
-50.0649
11
104.873
21
-49.8476
0
LINE
8
BLACK
6
CONTINUOUS
10
104.873
20
-49.8476
11
105.029
21
-49.6571
0
LINE
8
BLACK
6
CONTINUOUS
10
105.029
20
-49.6571
11
105.22
21
-49.5008
0
LINE
8
BLACK
6
CONTINUOUS
10
105.22
20
-49.5008
11
105.437
21
-49.3846
0
LINE
8
BLACK
6
CONTINUOUS
10
105.437
20
-49.3846
11
105.673
21
-49.3131
0
LINE
8
BLACK
6
CONTINUOUS
10
105.673
20
-49.3131
11
105.857
21
-49.295
0
LINE
8
BLACK
6
CONTINUOUS
10
105.857
20
-49.295
11
105.979
21
-49.295
0
LINE
8
BLACK
6
CONTINUOUS
10
105.979
20
-49.295
11
106.163
21
-49.3131
0
LINE
8
BLACK
6
CONTINUOUS
10
113.236
20
-42.9102
11
113.434
21
-42.9703
0
LINE
8
BLACK
6
CONTINUOUS
10
113.434
20
-42.9703
11
113.434
21
-42.9703
0
LINE
8
BLACK
6
CONTINUOUS
10
113.434
20
-42.9703
11
113.5
21
-43.0055
0
LINE
8
BLACK
6
CONTINUOUS
10
113.5
20
-43.0055
11
113.617
21
-43.0679
0
LINE
8
BLACK
6
CONTINUOUS
10
113.617
20
-43.0679
11
113.777
21
-43.1992
0
LINE
8
BLACK
6
CONTINUOUS
10
113.777
20
-43.1992
11
113.908
21
-43.3593
0
LINE
8
BLACK
6
CONTINUOUS
10
113.908
20
-43.3593
11
113.908
21
-43.3593
0
LINE
8
BLACK
6
CONTINUOUS
10
113.908
20
-43.3593
11
114.006
21
-43.5419
0
LINE
8
BLACK
6
CONTINUOUS
10
114.006
20
-43.5419
11
114.006
21
-43.5419
0
LINE
8
BLACK
6
CONTINUOUS
10
114.006
20
-43.5419
11
114.006
21
-43.5419
0
LINE
8
BLACK
6
CONTINUOUS
10
114.006
20
-43.5419
11
114.066
21
-43.74
0
LINE
8
BLACK
6
CONTINUOUS
10
114.066
20
-43.74
11
114.081
21
-43.8944
0
LINE
8
BLACK
6
CONTINUOUS
10
114.081
20
-43.8944
11
114.081
21
-44.4976
0
LINE
8
BLACK
6
CONTINUOUS
10
114.081
20
-44.4976
11
114.066
21
-44.652
0
LINE
8
BLACK
6
CONTINUOUS
10
114.066
20
-44.652
11
114.006
21
-44.8501
0
LINE
8
BLACK
6
CONTINUOUS
10
114.006
20
-44.8501
11
114.006
21
-44.8501
0
LINE
8
BLACK
6
CONTINUOUS
10
114.006
20
-44.8501
11
113.954
21
-44.947
0
LINE
8
BLACK
6
CONTINUOUS
10
113.954
20
-44.947
11
113.908
21
-45.0327
0
LINE
8
BLACK
6
CONTINUOUS
10
113.908
20
-45.0327
11
113.777
21
-45.1928
0
LINE
8
BLACK
6
CONTINUOUS
10
113.777
20
-45.1928
11
113.617
21
-45.3241
0
LINE
8
BLACK
6
CONTINUOUS
10
113.617
20
-45.3241
11
113.531
21
-45.3699
0
LINE
8
BLACK
6
CONTINUOUS
10
113.531
20
-45.3699
11
113.434
21
-45.4217
0
LINE
8
BLACK
6
CONTINUOUS
10
113.434
20
-45.4217
11
113.434
21
-45.4217
0
LINE
8
BLACK
6
CONTINUOUS
10
113.434
20
-45.4217
11
113.236
21
-45.4818
0
LINE
8
BLACK
6
CONTINUOUS
10
113.236
20
-45.4818
11
113.03
21
-45.5021
0
LINE
8
BLACK
6
CONTINUOUS
10
113.03
20
-45.5021
11
112.824
21
-45.4818
0
LINE
8
BLACK
6
CONTINUOUS
10
112.824
20
-45.4818
11
112.626
21
-45.4217
0
LINE
8
BLACK
6
CONTINUOUS
10
112.626
20
-45.4217
11
112.626
21
-45.4217
0
LINE
8
BLACK
6
CONTINUOUS
10
112.626
20
-45.4217
11
112.529
21
-45.3699
0
LINE
8
BLACK
6
CONTINUOUS
10
112.529
20
-45.3699
11
112.443
21
-45.3241
0
LINE
8
BLACK
6
CONTINUOUS
10
112.443
20
-45.3241
11
112.283
21
-45.1928
0
LINE
8
BLACK
6
CONTINUOUS
10
112.283
20
-45.1928
11
112.152
21
-45.0327
0
LINE
8
BLACK
6
CONTINUOUS
10
112.152
20
-45.0327
11
112.054
21
-44.8501
0
LINE
8
BLACK
6
CONTINUOUS
10
112.054
20
-44.8501
11
112.054
21
-44.8501
0
LINE
8
BLACK
6
CONTINUOUS
10
112.054
20
-44.8501
11
112.034
21
-44.7841
0
LINE
8
BLACK
6
CONTINUOUS
10
112.034
20
-44.7841
11
111.994
21
-44.652
0
LINE
8
BLACK
6
CONTINUOUS
10
111.994
20
-44.652
11
111.979
21
-44.4976
0
LINE
8
BLACK
6
CONTINUOUS
10
111.979
20
-44.4976
11
111.979
21
-43.8944
0
LINE
8
BLACK
6
CONTINUOUS
10
111.979
20
-43.8944
11
111.994
21
-43.74
0
LINE
8
BLACK
6
CONTINUOUS
10
111.994
20
-43.74
11
112.054
21
-43.5419
0
LINE
8
BLACK
6
CONTINUOUS
10
112.054
20
-43.5419
11
112.054
21
-43.5419
0
LINE
8
BLACK
6
CONTINUOUS
10
112.054
20
-43.5419
11
112.09
21
-43.476
0
LINE
8
BLACK
6
CONTINUOUS
10
112.09
20
-43.476
11
112.152
21
-43.3593
0
LINE
8
BLACK
6
CONTINUOUS
10
112.152
20
-43.3593
11
112.283
21
-43.1992
0
LINE
8
BLACK
6
CONTINUOUS
10
112.283
20
-43.1992
11
112.443
21
-43.0679
0
LINE
8
BLACK
6
CONTINUOUS
10
112.443
20
-43.0679
11
112.529
21
-43.0221
0
LINE
8
BLACK
6
CONTINUOUS
10
112.529
20
-43.0221
11
112.626
21
-42.9703
0
LINE
8
BLACK
6
CONTINUOUS
10
112.626
20
-42.9703
11
112.626
21
-42.9703
0
LINE
8
BLACK
6
CONTINUOUS
10
112.626
20
-42.9703
11
112.824
21
-42.9102
0
LINE
8
BLACK
6
CONTINUOUS
10
112.824
20
-42.9102
11
113.03
21
-42.8899
0
LINE
8
BLACK
6
CONTINUOUS
10
113.03
20
-42.8899
11
113.236
21
-42.9102
0
LINE
8
BLACK
6
CONTINUOUS
10
115.776
20
-42.9102
11
115.974
21
-42.9703
0
LINE
8
BLACK
6
CONTINUOUS
10
115.974
20
-42.9703
11
115.974
21
-42.9703
0
LINE
8
BLACK
6
CONTINUOUS
10
115.974
20
-42.9703
11
116.04
21
-43.0055
0
LINE
8
BLACK
6
CONTINUOUS
10
116.04
20
-43.0055
11
116.157
21
-43.0679
0
LINE
8
BLACK
6
CONTINUOUS
10
116.157
20
-43.0679
11
116.317
21
-43.1992
0
LINE
8
BLACK
6
CONTINUOUS
10
116.317
20
-43.1992
11
116.448
21
-43.3593
0
LINE
8
BLACK
6
CONTINUOUS
10
116.448
20
-43.3593
11
116.448
21
-43.3593
0
LINE
8
BLACK
6
CONTINUOUS
10
116.448
20
-43.3593
11
116.546
21
-43.5419
0
LINE
8
BLACK
6
CONTINUOUS
10
116.546
20
-43.5419
11
116.546
21
-43.5419
0
LINE
8
BLACK
6
CONTINUOUS
10
116.546
20
-43.5419
11
116.546
21
-43.5419
0
LINE
8
BLACK
6
CONTINUOUS
10
116.546
20
-43.5419
11
116.606
21
-43.74
0
LINE
8
BLACK
6
CONTINUOUS
10
116.606
20
-43.74
11
116.621
21
-43.8944
0
LINE
8
BLACK
6
CONTINUOUS
10
116.621
20
-43.8944
11
116.621
21
-44.4976
0
LINE
8
BLACK
6
CONTINUOUS
10
116.621
20
-44.4976
11
116.606
21
-44.652
0
LINE
8
BLACK
6
CONTINUOUS
10
116.606
20
-44.652
11
116.546
21
-44.8501
0
LINE
8
BLACK
6
CONTINUOUS
10
116.546
20
-44.8501
11
116.546
21
-44.8501
0
LINE
8
BLACK
6
CONTINUOUS
10
116.546
20
-44.8501
11
116.494
21
-44.947
0
LINE
8
BLACK
6
CONTINUOUS
10
116.494
20
-44.947
11
116.448
21
-45.0327
0
LINE
8
BLACK
6
CONTINUOUS
10
116.448
20
-45.0327
11
116.317
21
-45.1928
0
LINE
8
BLACK
6
CONTINUOUS
10
116.317
20
-45.1928
11
116.157
21
-45.3241
0
LINE
8
BLACK
6
CONTINUOUS
10
116.157
20
-45.3241
11
116.071
21
-45.3699
0
LINE
8
BLACK
6
CONTINUOUS
10
116.071
20
-45.3699
11
115.974
21
-45.4217
0
LINE
8
BLACK
6
CONTINUOUS
10
115.974
20
-45.4217
11
115.974
21
-45.4217
0
LINE
8
BLACK
6
CONTINUOUS
10
115.974
20
-45.4217
11
115.776
21
-45.4818
0
LINE
8
BLACK
6
CONTINUOUS
10
115.776
20
-45.4818
11
115.57
21
-45.5021
0
LINE
8
BLACK
6
CONTINUOUS
10
115.57
20
-45.5021
11
115.364
21
-45.4818
0
LINE
8
BLACK
6
CONTINUOUS
10
115.364
20
-45.4818
11
115.166
21
-45.4217
0
LINE
8
BLACK
6
CONTINUOUS
10
115.166
20
-45.4217
11
115.166
21
-45.4217
0
LINE
8
BLACK
6
CONTINUOUS
10
115.166
20
-45.4217
11
115.069
21
-45.3699
0
LINE
8
BLACK
6
CONTINUOUS
10
115.069
20
-45.3699
11
114.983
21
-45.3241
0
LINE
8
BLACK
6
CONTINUOUS
10
114.983
20
-45.3241
11
114.823
21
-45.1928
0
LINE
8
BLACK
6
CONTINUOUS
10
114.823
20
-45.1928
11
114.692
21
-45.0327
0
LINE
8
BLACK
6
CONTINUOUS
10
114.692
20
-45.0327
11
114.594
21
-44.8501
0
LINE
8
BLACK
6
CONTINUOUS
10
114.594
20
-44.8501
11
114.594
21
-44.8501
0
LINE
8
BLACK
6
CONTINUOUS
10
114.594
20
-44.8501
11
114.574
21
-44.7841
0
LINE
8
BLACK
6
CONTINUOUS
10
114.574
20
-44.7841
11
114.534
21
-44.652
0
LINE
8
BLACK
6
CONTINUOUS
10
114.534
20
-44.652
11
114.519
21
-44.4976
0
LINE
8
BLACK
6
CONTINUOUS
10
114.519
20
-44.4976
11
114.519
21
-43.8944
0
LINE
8
BLACK
6
CONTINUOUS
10
114.519
20
-43.8944
11
114.534
21
-43.74
0
LINE
8
BLACK
6
CONTINUOUS
10
114.534
20
-43.74
11
114.594
21
-43.5419
0
LINE
8
BLACK
6
CONTINUOUS
10
114.594
20
-43.5419
11
114.594
21
-43.5419
0
LINE
8
BLACK
6
CONTINUOUS
10
114.594
20
-43.5419
11
114.63
21
-43.476
0
LINE
8
BLACK
6
CONTINUOUS
10
114.63
20
-43.476
11
114.692
21
-43.3593
0
LINE
8
BLACK
6
CONTINUOUS
10
114.692
20
-43.3593
11
114.823
21
-43.1992
0
LINE
8
BLACK
6
CONTINUOUS
10
114.823
20
-43.1992
11
114.983
21
-43.0679
0
LINE
8
BLACK
6
CONTINUOUS
10
114.983
20
-43.0679
11
115.069
21
-43.0221
0
LINE
8
BLACK
6
CONTINUOUS
10
115.069
20
-43.0221
11
115.166
21
-42.9703
0
LINE
8
BLACK
6
CONTINUOUS
10
115.166
20
-42.9703
11
115.166
21
-42.9703
0
LINE
8
BLACK
6
CONTINUOUS
10
115.166
20
-42.9703
11
115.364
21
-42.9102
0
LINE
8
BLACK
6
CONTINUOUS
10
115.364
20
-42.9102
11
115.57
21
-42.8899
0
LINE
8
BLACK
6
CONTINUOUS
10
115.57
20
-42.8899
11
115.776
21
-42.9102
0
LINE
8
BLACK
6
CONTINUOUS
10
110.696
20
-42.9102
11
110.894
21
-42.9703
0
LINE
8
BLACK
6
CONTINUOUS
10
110.894
20
-42.9703
11
110.894
21
-42.9703
0
LINE
8
BLACK
6
CONTINUOUS
10
110.894
20
-42.9703
11
110.96
21
-43.0055
0
LINE
8
BLACK
6
CONTINUOUS
10
110.96
20
-43.0055
11
111.077
21
-43.0679
0
LINE
8
BLACK
6
CONTINUOUS
10
111.077
20
-43.0679
11
111.237
21
-43.1992
0
LINE
8
BLACK
6
CONTINUOUS
10
111.237
20
-43.1992
11
111.368
21
-43.3593
0
LINE
8
BLACK
6
CONTINUOUS
10
111.368
20
-43.3593
11
111.368
21
-43.3593
0
LINE
8
BLACK
6
CONTINUOUS
10
111.368
20
-43.3593
11
111.466
21
-43.5419
0
LINE
8
BLACK
6
CONTINUOUS
10
111.466
20
-43.5419
11
111.466
21
-43.5419
0
LINE
8
BLACK
6
CONTINUOUS
10
111.466
20
-43.5419
11
111.466
21
-43.5419
0
LINE
8
BLACK
6
CONTINUOUS
10
111.466
20
-43.5419
11
111.526
21
-43.74
0
LINE
8
BLACK
6
CONTINUOUS
10
111.526
20
-43.74
11
111.541
21
-43.8944
0
LINE
8
BLACK
6
CONTINUOUS
10
111.541
20
-43.8944
11
111.541
21
-44.4976
0
LINE
8
BLACK
6
CONTINUOUS
10
111.541
20
-44.4976
11
111.526
21
-44.652
0
LINE
8
BLACK
6
CONTINUOUS
10
111.526
20
-44.652
11
111.466
21
-44.8501
0
LINE
8
BLACK
6
CONTINUOUS
10
111.466
20
-44.8501
11
111.466
21
-44.8501
0
LINE
8
BLACK
6
CONTINUOUS
10
111.466
20
-44.8501
11
111.414
21
-44.947
0
LINE
8
BLACK
6
CONTINUOUS
10
111.414
20
-44.947
11
111.368
21
-45.0327
0
LINE
8
BLACK
6
CONTINUOUS
10
111.368
20
-45.0327
11
111.237
21
-45.1928
0
LINE
8
BLACK
6
CONTINUOUS
10
111.237
20
-45.1928
11
111.077
21
-45.3241
0
LINE
8
BLACK
6
CONTINUOUS
10
111.077
20
-45.3241
11
110.991
21
-45.3699
0
LINE
8
BLACK
6
CONTINUOUS
10
110.991
20
-45.3699
11
110.894
21
-45.4217
0
LINE
8
BLACK
6
CONTINUOUS
10
110.894
20
-45.4217
11
110.894
21
-45.4217
0
LINE
8
BLACK
6
CONTINUOUS
10
110.894
20
-45.4217
11
110.696
21
-45.4818
0
LINE
8
BLACK
6
CONTINUOUS
10
110.696
20
-45.4818
11
110.49
21
-45.5021
0
LINE
8
BLACK
6
CONTINUOUS
10
110.49
20
-45.5021
11
110.284
21
-45.4818
0
LINE
8
BLACK
6
CONTINUOUS
10
110.284
20
-45.4818
11
110.086
21
-45.4217
0
LINE
8
BLACK
6
CONTINUOUS
10
110.086
20
-45.4217
11
110.086
21
-45.4217
0
LINE
8
BLACK
6
CONTINUOUS
10
110.086
20
-45.4217
11
109.989
21
-45.3699
0
LINE
8
BLACK
6
CONTINUOUS
10
109.989
20
-45.3699
11
109.903
21
-45.3241
0
LINE
8
BLACK
6
CONTINUOUS
10
109.903
20
-45.3241
11
109.743
21
-45.1928
0
LINE
8
BLACK
6
CONTINUOUS
10
109.743
20
-45.1928
11
109.612
21
-45.0327
0
LINE
8
BLACK
6
CONTINUOUS
10
109.612
20
-45.0327
11
109.514
21
-44.8501
0
LINE
8
BLACK
6
CONTINUOUS
10
109.514
20
-44.8501
11
109.514
21
-44.8501
0
LINE
8
BLACK
6
CONTINUOUS
10
109.514
20
-44.8501
11
109.494
21
-44.7841
0
LINE
8
BLACK
6
CONTINUOUS
10
109.494
20
-44.7841
11
109.454
21
-44.652
0
LINE
8
BLACK
6
CONTINUOUS
10
109.454
20
-44.652
11
109.439
21
-44.4976
0
LINE
8
BLACK
6
CONTINUOUS
10
109.439
20
-44.4976
11
109.439
21
-43.8944
0
LINE
8
BLACK
6
CONTINUOUS
10
109.439
20
-43.8944
11
109.454
21
-43.74
0
LINE
8
BLACK
6
CONTINUOUS
10
109.454
20
-43.74
11
109.514
21
-43.5419
0
LINE
8
BLACK
6
CONTINUOUS
10
109.514
20
-43.5419
11
109.514
21
-43.5419
0
LINE
8
BLACK
6
CONTINUOUS
10
109.514
20
-43.5419
11
109.55
21
-43.476
0
LINE
8
BLACK
6
CONTINUOUS
10
109.55
20
-43.476
11
109.612
21
-43.3593
0
LINE
8
BLACK
6
CONTINUOUS
10
109.612
20
-43.3593
11
109.743
21
-43.1992
0
LINE
8
BLACK
6
CONTINUOUS
10
109.743
20
-43.1992
11
109.903
21
-43.0679
0
LINE
8
BLACK
6
CONTINUOUS
10
109.903
20
-43.0679
11
109.989
21
-43.0221
0
LINE
8
BLACK
6
CONTINUOUS
10
109.989
20
-43.0221
11
110.086
21
-42.9703
0
LINE
8
BLACK
6
CONTINUOUS
10
110.086
20
-42.9703
11
110.086
21
-42.9703
0
LINE
8
BLACK
6
CONTINUOUS
10
110.086
20
-42.9703
11
110.284
21
-42.9102
0
LINE
8
BLACK
6
CONTINUOUS
10
110.284
20
-42.9102
11
110.49
21
-42.8899
0
LINE
8
BLACK
6
CONTINUOUS
10
110.49
20
-42.8899
11
110.696
21
-42.9102
0
LINE
8
BLACK
6
CONTINUOUS
10
108.156
20
-42.9102
11
108.354
21
-42.9703
0
LINE
8
BLACK
6
CONTINUOUS
10
108.354
20
-42.9703
11
108.354
21
-42.9703
0
LINE
8
BLACK
6
CONTINUOUS
10
108.354
20
-42.9703
11
108.42
21
-43.0055
0
LINE
8
BLACK
6
CONTINUOUS
10
108.42
20
-43.0055
11
108.537
21
-43.0679
0
LINE
8
BLACK
6
CONTINUOUS
10
108.537
20
-43.0679
11
108.697
21
-43.1992
0
LINE
8
BLACK
6
CONTINUOUS
10
108.697
20
-43.1992
11
108.828
21
-43.3593
0
LINE
8
BLACK
6
CONTINUOUS
10
108.828
20
-43.3593
11
108.828
21
-43.3593
0
LINE
8
BLACK
6
CONTINUOUS
10
108.828
20
-43.3593
11
108.926
21
-43.5419
0
LINE
8
BLACK
6
CONTINUOUS
10
108.926
20
-43.5419
11
108.926
21
-43.5419
0
LINE
8
BLACK
6
CONTINUOUS
10
108.926
20
-43.5419
11
108.926
21
-43.5419
0
LINE
8
BLACK
6
CONTINUOUS
10
108.926
20
-43.5419
11
108.986
21
-43.74
0
LINE
8
BLACK
6
CONTINUOUS
10
108.986
20
-43.74
11
109.001
21
-43.8944
0
LINE
8
BLACK
6
CONTINUOUS
10
109.001
20
-43.8944
11
109.001
21
-44.4976
0
LINE
8
BLACK
6
CONTINUOUS
10
109.001
20
-44.4976
11
108.986
21
-44.652
0
LINE
8
BLACK
6
CONTINUOUS
10
108.986
20
-44.652
11
108.926
21
-44.8501
0
LINE
8
BLACK
6
CONTINUOUS
10
108.926
20
-44.8501
11
108.926
21
-44.8501
0
LINE
8
BLACK
6
CONTINUOUS
10
108.926
20
-44.8501
11
108.874
21
-44.947
0
LINE
8
BLACK
6
CONTINUOUS
10
108.874
20
-44.947
11
108.828
21
-45.0327
0
LINE
8
BLACK
6
CONTINUOUS
10
108.828
20
-45.0327
11
108.697
21
-45.1928
0
LINE
8
BLACK
6
CONTINUOUS
10
108.697
20
-45.1928
11
108.537
21
-45.3241
0
LINE
8
BLACK
6
CONTINUOUS
10
108.537
20
-45.3241
11
108.451
21
-45.3699
0
LINE
8
BLACK
6
CONTINUOUS
10
108.451
20
-45.3699
11
108.354
21
-45.4217
0
LINE
8
BLACK
6
CONTINUOUS
10
108.354
20
-45.4217
11
108.354
21
-45.4217
0
LINE
8
BLACK
6
CONTINUOUS
10
108.354
20
-45.4217
11
108.156
21
-45.4818
0
LINE
8
BLACK
6
CONTINUOUS
10
108.156
20
-45.4818
11
107.95
21
-45.5021
0
LINE
8
BLACK
6
CONTINUOUS
10
107.95
20
-45.5021
11
107.744
21
-45.4818
0
LINE
8
BLACK
6
CONTINUOUS
10
107.744
20
-45.4818
11
107.546
21
-45.4217
0
LINE
8
BLACK
6
CONTINUOUS
10
107.546
20
-45.4217
11
107.546
21
-45.4217
0
LINE
8
BLACK
6
CONTINUOUS
10
107.546
20
-45.4217
11
107.449
21
-45.3699
0
LINE
8
BLACK
6
CONTINUOUS
10
107.449
20
-45.3699
11
107.363
21
-45.3241
0
LINE
8
BLACK
6
CONTINUOUS
10
107.363
20
-45.3241
11
107.203
21
-45.1928
0
LINE
8
BLACK
6
CONTINUOUS
10
107.203
20
-45.1928
11
107.072
21
-45.0327
0
LINE
8
BLACK
6
CONTINUOUS
10
107.072
20
-45.0327
11
106.974
21
-44.8501
0
LINE
8
BLACK
6
CONTINUOUS
10
106.974
20
-44.8501
11
106.974
21
-44.8501
0
LINE
8
BLACK
6
CONTINUOUS
10
106.974
20
-44.8501
11
106.954
21
-44.7841
0
LINE
8
BLACK
6
CONTINUOUS
10
106.954
20
-44.7841
11
106.914
21
-44.652
0
LINE
8
BLACK
6
CONTINUOUS
10
106.914
20
-44.652
11
106.899
21
-44.4976
0
LINE
8
BLACK
6
CONTINUOUS
10
106.899
20
-44.4976
11
106.899
21
-43.8944
0
LINE
8
BLACK
6
CONTINUOUS
10
106.899
20
-43.8944
11
106.914
21
-43.74
0
LINE
8
BLACK
6
CONTINUOUS
10
106.914
20
-43.74
11
106.974
21
-43.5419
0
LINE
8
BLACK
6
CONTINUOUS
10
106.974
20
-43.5419
11
106.974
21
-43.5419
0
LINE
8
BLACK
6
CONTINUOUS
10
106.974
20
-43.5419
11
107.01
21
-43.476
0
LINE
8
BLACK
6
CONTINUOUS
10
107.01
20
-43.476
11
107.072
21
-43.3593
0
LINE
8
BLACK
6
CONTINUOUS
10
107.072
20
-43.3593
11
107.203
21
-43.1992
0
LINE
8
BLACK
6
CONTINUOUS
10
107.203
20
-43.1992
11
107.363
21
-43.0679
0
LINE
8
BLACK
6
CONTINUOUS
10
107.363
20
-43.0679
11
107.449
21
-43.0221
0
LINE
8
BLACK
6
CONTINUOUS
10
107.449
20
-43.0221
11
107.546
21
-42.9703
0
LINE
8
BLACK
6
CONTINUOUS
10
107.546
20
-42.9703
11
107.546
21
-42.9703
0
LINE
8
BLACK
6
CONTINUOUS
10
107.546
20
-42.9703
11
107.744
21
-42.9102
0
LINE
8
BLACK
6
CONTINUOUS
10
107.744
20
-42.9102
11
107.95
21
-42.8899
0
LINE
8
BLACK
6
CONTINUOUS
10
107.95
20
-42.8899
11
108.156
21
-42.9102
0
LINE
8
BLACK
6
CONTINUOUS
10
132.873
20
-40.929
11
130.271
21
-40.929
0
LINE
8
BLACK
6
CONTINUOUS
10
130.271
20
-40.929
11
130.271
21
-38.827
0
LINE
8
BLACK
6
CONTINUOUS
10
130.271
20
-38.827
11
132.873
21
-38.827
0
LINE
8
BLACK
6
CONTINUOUS
10
132.873
20
-38.827
11
132.873
21
-40.929
0
LINE
8
BLACK
6
CONTINUOUS
10
95.785
20
-40.675
11
92.683
21
-40.675
0
LINE
8
BLACK
6
CONTINUOUS
10
92.683
20
-40.675
11
92.683
21
-38.573
0
LINE
8
BLACK
6
CONTINUOUS
10
92.683
20
-38.573
11
95.785
21
-38.573
0
LINE
8
BLACK
6
CONTINUOUS
10
95.785
20
-38.573
11
95.785
21
-40.675
0
LINE
8
BLACK
6
CONTINUOUS
10
88.165
20
-40.675
11
85.063
21
-40.675
0
LINE
8
BLACK
6
CONTINUOUS
10
85.063
20
-40.675
11
85.063
21
-38.573
0
LINE
8
BLACK
6
CONTINUOUS
10
85.063
20
-38.573
11
88.165
21
-38.573
0
LINE
8
BLACK
6
CONTINUOUS
10
88.165
20
-38.573
11
88.165
21
-40.675
0
LINE
8
BLACK
6
CONTINUOUS
10
120.602
20
-37.3222
11
120.8
21
-37.3823
0
LINE
8
BLACK
6
CONTINUOUS
10
120.8
20
-37.3823
11
120.8
21
-37.3823
0
LINE
8
BLACK
6
CONTINUOUS
10
120.8
20
-37.3823
11
120.866
21
-37.4175
0
LINE
8
BLACK
6
CONTINUOUS
10
120.866
20
-37.4175
11
120.983
21
-37.4799
0
LINE
8
BLACK
6
CONTINUOUS
10
120.983
20
-37.4799
11
121.143
21
-37.6112
0
LINE
8
BLACK
6
CONTINUOUS
10
121.143
20
-37.6112
11
121.274
21
-37.7713
0
LINE
8
BLACK
6
CONTINUOUS
10
121.274
20
-37.7713
11
121.274
21
-37.7713
0
LINE
8
BLACK
6
CONTINUOUS
10
121.274
20
-37.7713
11
121.372
21
-37.9539
0
LINE
8
BLACK
6
CONTINUOUS
10
121.372
20
-37.9539
11
121.372
21
-37.9539
0
LINE
8
BLACK
6
CONTINUOUS
10
121.372
20
-37.9539
11
121.372
21
-37.9539
0
LINE
8
BLACK
6
CONTINUOUS
10
121.372
20
-37.9539
11
121.432
21
-38.152
0
LINE
8
BLACK
6
CONTINUOUS
10
121.432
20
-38.152
11
121.447
21
-38.3064
0
LINE
8
BLACK
6
CONTINUOUS
10
121.447
20
-38.3064
11
121.447
21
-38.9096
0
LINE
8
BLACK
6
CONTINUOUS
10
121.447
20
-38.9096
11
121.432
21
-39.064
0
LINE
8
BLACK
6
CONTINUOUS
10
121.432
20
-39.064
11
121.372
21
-39.2621
0
LINE
8
BLACK
6
CONTINUOUS
10
121.372
20
-39.2621
11
121.372
21
-39.2621
0
LINE
8
BLACK
6
CONTINUOUS
10
121.372
20
-39.2621
11
121.32
21
-39.359
0
LINE
8
BLACK
6
CONTINUOUS
10
121.32
20
-39.359
11
121.274
21
-39.4447
0
LINE
8
BLACK
6
CONTINUOUS
10
121.274
20
-39.4447
11
121.143
21
-39.6048
0
LINE
8
BLACK
6
CONTINUOUS
10
121.143
20
-39.6048
11
120.983
21
-39.7361
0
LINE
8
BLACK
6
CONTINUOUS
10
120.983
20
-39.7361
11
120.897
21
-39.7819
0
LINE
8
BLACK
6
CONTINUOUS
10
120.897
20
-39.7819
11
120.8
21
-39.8337
0
LINE
8
BLACK
6
CONTINUOUS
10
120.8
20
-39.8337
11
120.8
21
-39.8337
0
LINE
8
BLACK
6
CONTINUOUS
10
120.8
20
-39.8337
11
120.602
21
-39.8938
0
LINE
8
BLACK
6
CONTINUOUS
10
120.602
20
-39.8938
11
120.396
21
-39.9141
0
LINE
8
BLACK
6
CONTINUOUS
10
120.396
20
-39.9141
11
120.19
21
-39.8938
0
LINE
8
BLACK
6
CONTINUOUS
10
120.19
20
-39.8938
11
119.992
21
-39.8337
0
LINE
8
BLACK
6
CONTINUOUS
10
119.992
20
-39.8337
11
119.992
21
-39.8337
0
LINE
8
BLACK
6
CONTINUOUS
10
119.992
20
-39.8337
11
119.895
21
-39.7819
0
LINE
8
BLACK
6
CONTINUOUS
10
119.895
20
-39.7819
11
119.809
21
-39.7361
0
LINE
8
BLACK
6
CONTINUOUS
10
119.809
20
-39.7361
11
119.649
21
-39.6048
0
LINE
8
BLACK
6
CONTINUOUS
10
119.649
20
-39.6048
11
119.518
21
-39.4447
0
LINE
8
BLACK
6
CONTINUOUS
10
119.518
20
-39.4447
11
119.42
21
-39.2621
0
LINE
8
BLACK
6
CONTINUOUS
10
119.42
20
-39.2621
11
119.42
21
-39.2621
0
LINE
8
BLACK
6
CONTINUOUS
10
119.42
20
-39.2621
11
119.4
21
-39.1961
0
LINE
8
BLACK
6
CONTINUOUS
10
119.4
20
-39.1961
11
119.36
21
-39.064
0
LINE
8
BLACK
6
CONTINUOUS
10
119.36
20
-39.064
11
119.345
21
-38.9096
0
LINE
8
BLACK
6
CONTINUOUS
10
119.345
20
-38.9096
11
119.345
21
-38.3064
0
LINE
8
BLACK
6
CONTINUOUS
10
119.345
20
-38.3064
11
119.36
21
-38.152
0
LINE
8
BLACK
6
CONTINUOUS
10
119.36
20
-38.152
11
119.42
21
-37.9539
0
LINE
8
BLACK
6
CONTINUOUS
10
119.42
20
-37.9539
11
119.42
21
-37.9539
0
LINE
8
BLACK
6
CONTINUOUS
10
119.42
20
-37.9539
11
119.456
21
-37.888
0
LINE
8
BLACK
6
CONTINUOUS
10
119.456
20
-37.888
11
119.518
21
-37.7713
0
LINE
8
BLACK
6
CONTINUOUS
10
119.518
20
-37.7713
11
119.649
21
-37.6112
0
LINE
8
BLACK
6
CONTINUOUS
10
119.649
20
-37.6112
11
119.809
21
-37.4799
0
LINE
8
BLACK
6
CONTINUOUS
10
119.809
20
-37.4799
11
119.895
21
-37.4341
0
LINE
8
BLACK
6
CONTINUOUS
10
119.895
20
-37.4341
11
119.992
21
-37.3823
0
LINE
8
BLACK
6
CONTINUOUS
10
119.992
20
-37.3823
11
119.992
21
-37.3823
0
LINE
8
BLACK
6
CONTINUOUS
10
119.992
20
-37.3823
11
120.19
21
-37.3222
0
LINE
8
BLACK
6
CONTINUOUS
10
120.19
20
-37.3222
11
120.396
21
-37.3019
0
LINE
8
BLACK
6
CONTINUOUS
10
120.396
20
-37.3019
11
120.602
21
-37.3222
0
LINE
8
BLACK
6
CONTINUOUS
10
102.822
20
-37.3222
11
103.02
21
-37.3823
0
LINE
8
BLACK
6
CONTINUOUS
10
103.02
20
-37.3823
11
103.02
21
-37.3823
0
LINE
8
BLACK
6
CONTINUOUS
10
103.02
20
-37.3823
11
103.086
21
-37.4175
0
LINE
8
BLACK
6
CONTINUOUS
10
103.086
20
-37.4175
11
103.203
21
-37.4799
0
LINE
8
BLACK
6
CONTINUOUS
10
103.203
20
-37.4799
11
103.363
21
-37.6112
0
LINE
8
BLACK
6
CONTINUOUS
10
103.363
20
-37.6112
11
103.494
21
-37.7713
0
LINE
8
BLACK
6
CONTINUOUS
10
103.494
20
-37.7713
11
103.494
21
-37.7713
0
LINE
8
BLACK
6
CONTINUOUS
10
103.494
20
-37.7713
11
103.592
21
-37.9539
0
LINE
8
BLACK
6
CONTINUOUS
10
103.592
20
-37.9539
11
103.592
21
-37.9539
0
LINE
8
BLACK
6
CONTINUOUS
10
103.592
20
-37.9539
11
103.592
21
-37.9539
0
LINE
8
BLACK
6
CONTINUOUS
10
103.592
20
-37.9539
11
103.652
21
-38.152
0
LINE
8
BLACK
6
CONTINUOUS
10
103.652
20
-38.152
11
103.667
21
-38.3064
0
LINE
8
BLACK
6
CONTINUOUS
10
103.667
20
-38.3064
11
103.667
21
-38.9096
0
LINE
8
BLACK
6
CONTINUOUS
10
103.667
20
-38.9096
11
103.652
21
-39.064
0
LINE
8
BLACK
6
CONTINUOUS
10
103.652
20
-39.064
11
103.592
21
-39.2621
0
LINE
8
BLACK
6
CONTINUOUS
10
103.592
20
-39.2621
11
103.592
21
-39.2621
0
LINE
8
BLACK
6
CONTINUOUS
10
103.592
20
-39.2621
11
103.54
21
-39.359
0
LINE
8
BLACK
6
CONTINUOUS
10
103.54
20
-39.359
11
103.494
21
-39.4447
0
LINE
8
BLACK
6
CONTINUOUS
10
103.494
20
-39.4447
11
103.363
21
-39.6048
0
LINE
8
BLACK
6
CONTINUOUS
10
103.363
20
-39.6048
11
103.203
21
-39.7361
0
LINE
8
BLACK
6
CONTINUOUS
10
103.203
20
-39.7361
11
103.117
21
-39.7819
0
LINE
8
BLACK
6
CONTINUOUS
10
103.117
20
-39.7819
11
103.02
21
-39.8337
0
LINE
8
BLACK
6
CONTINUOUS
10
103.02
20
-39.8337
11
103.02
21
-39.8337
0
LINE
8
BLACK
6
CONTINUOUS
10
103.02
20
-39.8337
11
102.822
21
-39.8938
0
LINE
8
BLACK
6
CONTINUOUS
10
102.822
20
-39.8938
11
102.616
21
-39.9141
0
LINE
8
BLACK
6
CONTINUOUS
10
102.616
20
-39.9141
11
102.41
21
-39.8938
0
LINE
8
BLACK
6
CONTINUOUS
10
102.41
20
-39.8938
11
102.212
21
-39.8337
0
LINE
8
BLACK
6
CONTINUOUS
10
102.212
20
-39.8337
11
102.212
21
-39.8337
0
LINE
8
BLACK
6
CONTINUOUS
10
102.212
20
-39.8337
11
102.115
21
-39.7819
0
LINE
8
BLACK
6
CONTINUOUS
10
102.115
20
-39.7819
11
102.029
21
-39.7361
0
LINE
8
BLACK
6
CONTINUOUS
10
102.029
20
-39.7361
11
101.869
21
-39.6048
0
LINE
8
BLACK
6
CONTINUOUS
10
101.869
20
-39.6048
11
101.738
21
-39.4447
0
LINE
8
BLACK
6
CONTINUOUS
10
101.738
20
-39.4447
11
101.64
21
-39.2621
0
LINE
8
BLACK
6
CONTINUOUS
10
101.64
20
-39.2621
11
101.64
21
-39.2621
0
LINE
8
BLACK
6
CONTINUOUS
10
101.64
20
-39.2621
11
101.62
21
-39.1961
0
LINE
8
BLACK
6
CONTINUOUS
10
101.62
20
-39.1961
11
101.58
21
-39.064
0
LINE
8
BLACK
6
CONTINUOUS
10
101.58
20
-39.064
11
101.565
21
-38.9096
0
LINE
8
BLACK
6
CONTINUOUS
10
101.565
20
-38.9096
11
101.565
21
-38.3064
0
LINE
8
BLACK
6
CONTINUOUS
10
101.565
20
-38.3064
11
101.58
21
-38.152
0
LINE
8
BLACK
6
CONTINUOUS
10
101.58
20
-38.152
11
101.64
21
-37.9539
0
LINE
8
BLACK
6
CONTINUOUS
10
101.64
20
-37.9539
11
101.64
21
-37.9539
0
LINE
8
BLACK
6
CONTINUOUS
10
101.64
20
-37.9539
11
101.676
21
-37.888
0
LINE
8
BLACK
6
CONTINUOUS
10
101.676
20
-37.888
11
101.738
21
-37.7713
0
LINE
8
BLACK
6
CONTINUOUS
10
101.738
20
-37.7713
11
101.869
21
-37.6112
0
LINE
8
BLACK
6
CONTINUOUS
10
101.869
20
-37.6112
11
102.029
21
-37.4799
0
LINE
8
BLACK
6
CONTINUOUS
10
102.029
20
-37.4799
11
102.115
21
-37.4341
0
LINE
8
BLACK
6
CONTINUOUS
10
102.115
20
-37.4341
11
102.212
21
-37.3823
0
LINE
8
BLACK
6
CONTINUOUS
10
102.212
20
-37.3823
11
102.212
21
-37.3823
0
LINE
8
BLACK
6
CONTINUOUS
10
102.212
20
-37.3823
11
102.41
21
-37.3222
0
LINE
8
BLACK
6
CONTINUOUS
10
102.41
20
-37.3222
11
102.616
21
-37.3019
0
LINE
8
BLACK
6
CONTINUOUS
10
102.616
20
-37.3019
11
102.822
21
-37.3222
0
LINE
8
BLACK
6
CONTINUOUS
10
105.362
20
-37.3222
11
105.56
21
-37.3823
0
LINE
8
BLACK
6
CONTINUOUS
10
105.56
20
-37.3823
11
105.56
21
-37.3823
0
LINE
8
BLACK
6
CONTINUOUS
10
105.56
20
-37.3823
11
105.626
21
-37.4175
0
LINE
8
BLACK
6
CONTINUOUS
10
105.626
20
-37.4175
11
105.743
21
-37.4799
0
LINE
8
BLACK
6
CONTINUOUS
10
105.743
20
-37.4799
11
105.903
21
-37.6112
0
LINE
8
BLACK
6
CONTINUOUS
10
105.903
20
-37.6112
11
106.034
21
-37.7713
0
LINE
8
BLACK
6
CONTINUOUS
10
106.034
20
-37.7713
11
106.034
21
-37.7713
0
LINE
8
BLACK
6
CONTINUOUS
10
106.034
20
-37.7713
11
106.132
21
-37.9539
0
LINE
8
BLACK
6
CONTINUOUS
10
106.132
20
-37.9539
11
106.132
21
-37.9539
0
LINE
8
BLACK
6
CONTINUOUS
10
106.132
20
-37.9539
11
106.132
21
-37.9539
0
LINE
8
BLACK
6
CONTINUOUS
10
106.132
20
-37.9539
11
106.192
21
-38.152
0
LINE
8
BLACK
6
CONTINUOUS
10
106.192
20
-38.152
11
106.207
21
-38.3064
0
LINE
8
BLACK
6
CONTINUOUS
10
106.207
20
-38.3064
11
106.207
21
-38.9096
0
LINE
8
BLACK
6
CONTINUOUS
10
106.207
20
-38.9096
11
106.192
21
-39.064
0
LINE
8
BLACK
6
CONTINUOUS
10
106.192
20
-39.064
11
106.132
21
-39.2621
0
LINE
8
BLACK
6
CONTINUOUS
10
106.132
20
-39.2621
11
106.132
21
-39.2621
0
LINE
8
BLACK
6
CONTINUOUS
10
106.132
20
-39.2621
11
106.08
21
-39.359
0
LINE
8
BLACK
6
CONTINUOUS
10
106.08
20
-39.359
11
106.034
21
-39.4447
0
LINE
8
BLACK
6
CONTINUOUS
10
106.034
20
-39.4447
11
105.903
21
-39.6048
0
LINE
8
BLACK
6
CONTINUOUS
10
105.903
20
-39.6048
11
105.743
21
-39.7361
0
LINE
8
BLACK
6
CONTINUOUS
10
105.743
20
-39.7361
11
105.657
21
-39.7819
0
LINE
8
BLACK
6
CONTINUOUS
10
105.657
20
-39.7819
11
105.56
21
-39.8337
0
LINE
8
BLACK
6
CONTINUOUS
10
105.56
20
-39.8337
11
105.56
21
-39.8337
0
LINE
8
BLACK
6
CONTINUOUS
10
105.56
20
-39.8337
11
105.362
21
-39.8938
0
LINE
8
BLACK
6
CONTINUOUS
10
105.362
20
-39.8938
11
105.156
21
-39.9141
0
LINE
8
BLACK
6
CONTINUOUS
10
105.156
20
-39.9141
11
104.95
21
-39.8938
0
LINE
8
BLACK
6
CONTINUOUS
10
104.95
20
-39.8938
11
104.752
21
-39.8337
0
LINE
8
BLACK
6
CONTINUOUS
10
104.752
20
-39.8337
11
104.752
21
-39.8337
0
LINE
8
BLACK
6
CONTINUOUS
10
104.752
20
-39.8337
11
104.655
21
-39.7819
0
LINE
8
BLACK
6
CONTINUOUS
10
104.655
20
-39.7819
11
104.569
21
-39.7361
0
LINE
8
BLACK
6
CONTINUOUS
10
104.569
20
-39.7361
11
104.409
21
-39.6048
0
LINE
8
BLACK
6
CONTINUOUS
10
104.409
20
-39.6048
11
104.278
21
-39.4447
0
LINE
8
BLACK
6
CONTINUOUS
10
104.278
20
-39.4447
11
104.18
21
-39.2621
0
LINE
8
BLACK
6
CONTINUOUS
10
104.18
20
-39.2621
11
104.18
21
-39.2621
0
LINE
8
BLACK
6
CONTINUOUS
10
104.18
20
-39.2621
11
104.16
21
-39.1961
0
LINE
8
BLACK
6
CONTINUOUS
10
104.16
20
-39.1961
11
104.12
21
-39.064
0
LINE
8
BLACK
6
CONTINUOUS
10
104.12
20
-39.064
11
104.105
21
-38.9096
0
LINE
8
BLACK
6
CONTINUOUS
10
104.105
20
-38.9096
11
104.105
21
-38.3064
0
LINE
8
BLACK
6
CONTINUOUS
10
104.105
20
-38.3064
11
104.12
21
-38.152
0
LINE
8
BLACK
6
CONTINUOUS
10
104.12
20
-38.152
11
104.18
21
-37.9539
0
LINE
8
BLACK
6
CONTINUOUS
10
104.18
20
-37.9539
11
104.18
21
-37.9539
0
LINE
8
BLACK
6
CONTINUOUS
10
104.18
20
-37.9539
11
104.216
21
-37.888
0
LINE
8
BLACK
6
CONTINUOUS
10
104.216
20
-37.888
11
104.278
21
-37.7713
0
LINE
8
BLACK
6
CONTINUOUS
10
104.278
20
-37.7713
11
104.409
21
-37.6112
0
LINE
8
BLACK
6
CONTINUOUS
10
104.409
20
-37.6112
11
104.569
21
-37.4799
0
LINE
8
BLACK
6
CONTINUOUS
10
104.569
20
-37.4799
11
104.655
21
-37.4341
0
LINE
8
BLACK
6
CONTINUOUS
10
104.655
20
-37.4341
11
104.752
21
-37.3823
0
LINE
8
BLACK
6
CONTINUOUS
10
104.752
20
-37.3823
11
104.752
21
-37.3823
0
LINE
8
BLACK
6
CONTINUOUS
10
104.752
20
-37.3823
11
104.95
21
-37.3222
0
LINE
8
BLACK
6
CONTINUOUS
10
104.95
20
-37.3222
11
105.156
21
-37.3019
0
LINE
8
BLACK
6
CONTINUOUS
10
105.156
20
-37.3019
11
105.362
21
-37.3222
0
LINE
8
BLACK
6
CONTINUOUS
10
107.902
20
-37.3222
11
108.1
21
-37.3823
0
LINE
8
BLACK
6
CONTINUOUS
10
108.1
20
-37.3823
11
108.1
21
-37.3823
0
LINE
8
BLACK
6
CONTINUOUS
10
108.1
20
-37.3823
11
108.166
21
-37.4175
0
LINE
8
BLACK
6
CONTINUOUS
10
108.166
20
-37.4175
11
108.283
21
-37.4799
0
LINE
8
BLACK
6
CONTINUOUS
10
108.283
20
-37.4799
11
108.443
21
-37.6112
0
LINE
8
BLACK
6
CONTINUOUS
10
108.443
20
-37.6112
11
108.574
21
-37.7713
0
LINE
8
BLACK
6
CONTINUOUS
10
108.574
20
-37.7713
11
108.574
21
-37.7713
0
LINE
8
BLACK
6
CONTINUOUS
10
108.574
20
-37.7713
11
108.672
21
-37.9539
0
LINE
8
BLACK
6
CONTINUOUS
10
108.672
20
-37.9539
11
108.672
21
-37.9539
0
LINE
8
BLACK
6
CONTINUOUS
10
108.672
20
-37.9539
11
108.672
21
-37.9539
0
LINE
8
BLACK
6
CONTINUOUS
10
108.672
20
-37.9539
11
108.732
21
-38.152
0
LINE
8
BLACK
6
CONTINUOUS
10
108.732
20
-38.152
11
108.747
21
-38.3064
0
LINE
8
BLACK
6
CONTINUOUS
10
108.747
20
-38.3064
11
108.747
21
-38.9096
0
LINE
8
BLACK
6
CONTINUOUS
10
108.747
20
-38.9096
11
108.732
21
-39.064
0
LINE
8
BLACK
6
CONTINUOUS
10
108.732
20
-39.064
11
108.672
21
-39.2621
0
LINE
8
BLACK
6
CONTINUOUS
10
108.672
20
-39.2621
11
108.672
21
-39.2621
0
LINE
8
BLACK
6
CONTINUOUS
10
108.672
20
-39.2621
11
108.62
21
-39.359
0
LINE
8
BLACK
6
CONTINUOUS
10
108.62
20
-39.359
11
108.574
21
-39.4447
0
LINE
8
BLACK
6
CONTINUOUS
10
108.574
20
-39.4447
11
108.443
21
-39.6048
0
LINE
8
BLACK
6
CONTINUOUS
10
108.443
20
-39.6048
11
108.283
21
-39.7361
0
LINE
8
BLACK
6
CONTINUOUS
10
108.283
20
-39.7361
11
108.197
21
-39.7819
0
LINE
8
BLACK
6
CONTINUOUS
10
108.197
20
-39.7819
11
108.1
21
-39.8337
0
LINE
8
BLACK
6
CONTINUOUS
10
108.1
20
-39.8337
11
108.1
21
-39.8337
0
LINE
8
BLACK
6
CONTINUOUS
10
108.1
20
-39.8337
11
107.902
21
-39.8938
0
LINE
8
BLACK
6
CONTINUOUS
10
107.902
20
-39.8938
11
107.696
21
-39.9141
0
LINE
8
BLACK
6
CONTINUOUS
10
107.696
20
-39.9141
11
107.49
21
-39.8938
0
LINE
8
BLACK
6
CONTINUOUS
10
107.49
20
-39.8938
11
107.292
21
-39.8337
0
LINE
8
BLACK
6
CONTINUOUS
10
107.292
20
-39.8337
11
107.292
21
-39.8337
0
LINE
8
BLACK
6
CONTINUOUS
10
107.292
20
-39.8337
11
107.195
21
-39.7819
0
LINE
8
BLACK
6
CONTINUOUS
10
107.195
20
-39.7819
11
107.109
21
-39.7361
0
LINE
8
BLACK
6
CONTINUOUS
10
107.109
20
-39.7361
11
106.949
21
-39.6048
0
LINE
8
BLACK
6
CONTINUOUS
10
106.949
20
-39.6048
11
106.818
21
-39.4447
0
LINE
8
BLACK
6
CONTINUOUS
10
106.818
20
-39.4447
11
106.72
21
-39.2621
0
LINE
8
BLACK
6
CONTINUOUS
10
106.72
20
-39.2621
11
106.72
21
-39.2621
0
LINE
8
BLACK
6
CONTINUOUS
10
106.72
20
-39.2621
11
106.7
21
-39.1961
0
LINE
8
BLACK
6
CONTINUOUS
10
106.7
20
-39.1961
11
106.66
21
-39.064
0
LINE
8
BLACK
6
CONTINUOUS
10
106.66
20
-39.064
11
106.645
21
-38.9096
0
LINE
8
BLACK
6
CONTINUOUS
10
106.645
20
-38.9096
11
106.645
21
-38.3064
0
LINE
8
BLACK
6
CONTINUOUS
10
106.645
20
-38.3064
11
106.66
21
-38.152
0
LINE
8
BLACK
6
CONTINUOUS
10
106.66
20
-38.152
11
106.72
21
-37.9539
0
LINE
8
BLACK
6
CONTINUOUS
10
106.72
20
-37.9539
11
106.72
21
-37.9539
0
LINE
8
BLACK
6
CONTINUOUS
10
106.72
20
-37.9539
11
106.756
21
-37.888
0
LINE
8
BLACK
6
CONTINUOUS
10
106.756
20
-37.888
11
106.818
21
-37.7713
0
LINE
8
BLACK
6
CONTINUOUS
10
106.818
20
-37.7713
11
106.949
21
-37.6112
0
LINE
8
BLACK
6
CONTINUOUS
10
106.949
20
-37.6112
11
107.109
21
-37.4799
0
LINE
8
BLACK
6
CONTINUOUS
10
107.109
20
-37.4799
11
107.195
21
-37.4341
0
LINE
8
BLACK
6
CONTINUOUS
10
107.195
20
-37.4341
11
107.292
21
-37.3823
0
LINE
8
BLACK
6
CONTINUOUS
10
107.292
20
-37.3823
11
107.292
21
-37.3823
0
LINE
8
BLACK
6
CONTINUOUS
10
107.292
20
-37.3823
11
107.49
21
-37.3222
0
LINE
8
BLACK
6
CONTINUOUS
10
107.49
20
-37.3222
11
107.696
21
-37.3019
0
LINE
8
BLACK
6
CONTINUOUS
10
107.696
20
-37.3019
11
107.902
21
-37.3222
0
LINE
8
BLACK
6
CONTINUOUS
10
118.062
20
-37.3222
11
118.26
21
-37.3823
0
LINE
8
BLACK
6
CONTINUOUS
10
118.26
20
-37.3823
11
118.26
21
-37.3823
0
LINE
8
BLACK
6
CONTINUOUS
10
118.26
20
-37.3823
11
118.326
21
-37.4175
0
LINE
8
BLACK
6
CONTINUOUS
10
118.326
20
-37.4175
11
118.443
21
-37.4799
0
LINE
8
BLACK
6
CONTINUOUS
10
118.443
20
-37.4799
11
118.603
21
-37.6112
0
LINE
8
BLACK
6
CONTINUOUS
10
118.603
20
-37.6112
11
118.734
21
-37.7713
0
LINE
8
BLACK
6
CONTINUOUS
10
118.734
20
-37.7713
11
118.734
21
-37.7713
0
LINE
8
BLACK
6
CONTINUOUS
10
118.734
20
-37.7713
11
118.832
21
-37.9539
0
LINE
8
BLACK
6
CONTINUOUS
10
118.832
20
-37.9539
11
118.832
21
-37.9539
0
LINE
8
BLACK
6
CONTINUOUS
10
118.832
20
-37.9539
11
118.832
21
-37.9539
0
LINE
8
BLACK
6
CONTINUOUS
10
118.832
20
-37.9539
11
118.892
21
-38.152
0
LINE
8
BLACK
6
CONTINUOUS
10
118.892
20
-38.152
11
118.907
21
-38.3064
0
LINE
8
BLACK
6
CONTINUOUS
10
118.907
20
-38.3064
11
118.907
21
-38.9096
0
LINE
8
BLACK
6
CONTINUOUS
10
118.907
20
-38.9096
11
118.892
21
-39.064
0
LINE
8
BLACK
6
CONTINUOUS
10
118.892
20
-39.064
11
118.832
21
-39.2621
0
LINE
8
BLACK
6
CONTINUOUS
10
118.832
20
-39.2621
11
118.832
21
-39.2621
0
LINE
8
BLACK
6
CONTINUOUS
10
118.832
20
-39.2621
11
118.78
21
-39.359
0
LINE
8
BLACK
6
CONTINUOUS
10
118.78
20
-39.359
11
118.734
21
-39.4447
0
LINE
8
BLACK
6
CONTINUOUS
10
118.734
20
-39.4447
11
118.603
21
-39.6048
0
LINE
8
BLACK
6
CONTINUOUS
10
118.603
20
-39.6048
11
118.443
21
-39.7361
0
LINE
8
BLACK
6
CONTINUOUS
10
118.443
20
-39.7361
11
118.357
21
-39.7819
0
LINE
8
BLACK
6
CONTINUOUS
10
118.357
20
-39.7819
11
118.26
21
-39.8337
0
LINE
8
BLACK
6
CONTINUOUS
10
118.26
20
-39.8337
11
118.26
21
-39.8337
0
LINE
8
BLACK
6
CONTINUOUS
10
118.26
20
-39.8337
11
118.062
21
-39.8938
0
LINE
8
BLACK
6
CONTINUOUS
10
118.062
20
-39.8938
11
117.856
21
-39.9141
0
LINE
8
BLACK
6
CONTINUOUS
10
117.856
20
-39.9141
11
117.65
21
-39.8938
0
LINE
8
BLACK
6
CONTINUOUS
10
117.65
20
-39.8938
11
117.452
21
-39.8337
0
LINE
8
BLACK
6
CONTINUOUS
10
117.452
20
-39.8337
11
117.452
21
-39.8337
0
LINE
8
BLACK
6
CONTINUOUS
10
117.452
20
-39.8337
11
117.355
21
-39.7819
0
LINE
8
BLACK
6
CONTINUOUS
10
117.355
20
-39.7819
11
117.269
21
-39.7361
0
LINE
8
BLACK
6
CONTINUOUS
10
117.269
20
-39.7361
11
117.109
21
-39.6048
0
LINE
8
BLACK
6
CONTINUOUS
10
117.109
20
-39.6048
11
116.978
21
-39.4447
0
LINE
8
BLACK
6
CONTINUOUS
10
116.978
20
-39.4447
11
116.88
21
-39.2621
0
LINE
8
BLACK
6
CONTINUOUS
10
116.88
20
-39.2621
11
116.88
21
-39.2621
0
LINE
8
BLACK
6
CONTINUOUS
10
116.88
20
-39.2621
11
116.86
21
-39.1961
0
LINE
8
BLACK
6
CONTINUOUS
10
116.86
20
-39.1961
11
116.82
21
-39.064
0
LINE
8
BLACK
6
CONTINUOUS
10
116.82
20
-39.064
11
116.805
21
-38.9096
0
LINE
8
BLACK
6
CONTINUOUS
10
116.805
20
-38.9096
11
116.805
21
-38.3064
0
LINE
8
BLACK
6
CONTINUOUS
10
116.805
20
-38.3064
11
116.82
21
-38.152
0
LINE
8
BLACK
6
CONTINUOUS
10
116.82
20
-38.152
11
116.88
21
-37.9539
0
LINE
8
BLACK
6
CONTINUOUS
10
116.88
20
-37.9539
11
116.88
21
-37.9539
0
LINE
8
BLACK
6
CONTINUOUS
10
116.88
20
-37.9539
11
116.916
21
-37.888
0
LINE
8
BLACK
6
CONTINUOUS
10
116.916
20
-37.888
11
116.978
21
-37.7713
0
LINE
8
BLACK
6
CONTINUOUS
10
116.978
20
-37.7713
11
117.109
21
-37.6112
0
LINE
8
BLACK
6
CONTINUOUS
10
117.109
20
-37.6112
11
117.269
21
-37.4799
0
LINE
8
BLACK
6
CONTINUOUS
10
117.269
20
-37.4799
11
117.355
21
-37.4341
0
LINE
8
BLACK
6
CONTINUOUS
10
117.355
20
-37.4341
11
117.452
21
-37.3823
0
LINE
8
BLACK
6
CONTINUOUS
10
117.452
20
-37.3823
11
117.452
21
-37.3823
0
LINE
8
BLACK
6
CONTINUOUS
10
117.452
20
-37.3823
11
117.65
21
-37.3222
0
LINE
8
BLACK
6
CONTINUOUS
10
117.65
20
-37.3222
11
117.856
21
-37.3019
0
LINE
8
BLACK
6
CONTINUOUS
10
117.856
20
-37.3019
11
118.062
21
-37.3222
0
LINE
8
BLACK
6
CONTINUOUS
10
115.522
20
-37.3222
11
115.72
21
-37.3823
0
LINE
8
BLACK
6
CONTINUOUS
10
115.72
20
-37.3823
11
115.72
21
-37.3823
0
LINE
8
BLACK
6
CONTINUOUS
10
115.72
20
-37.3823
11
115.786
21
-37.4175
0
LINE
8
BLACK
6
CONTINUOUS
10
115.786
20
-37.4175
11
115.903
21
-37.4799
0
LINE
8
BLACK
6
CONTINUOUS
10
115.903
20
-37.4799
11
116.063
21
-37.6112
0
LINE
8
BLACK
6
CONTINUOUS
10
116.063
20
-37.6112
11
116.194
21
-37.7713
0
LINE
8
BLACK
6
CONTINUOUS
10
116.194
20
-37.7713
11
116.194
21
-37.7713
0
LINE
8
BLACK
6
CONTINUOUS
10
116.194
20
-37.7713
11
116.292
21
-37.9539
0
LINE
8
BLACK
6
CONTINUOUS
10
116.292
20
-37.9539
11
116.292
21
-37.9539
0
LINE
8
BLACK
6
CONTINUOUS
10
116.292
20
-37.9539
11
116.292
21
-37.9539
0
LINE
8
BLACK
6
CONTINUOUS
10
116.292
20
-37.9539
11
116.352
21
-38.152
0
LINE
8
BLACK
6
CONTINUOUS
10
116.352
20
-38.152
11
116.367
21
-38.3064
0
LINE
8
BLACK
6
CONTINUOUS
10
116.367
20
-38.3064
11
116.367
21
-38.9096
0
LINE
8
BLACK
6
CONTINUOUS
10
116.367
20
-38.9096
11
116.352
21
-39.064
0
LINE
8
BLACK
6
CONTINUOUS
10
116.352
20
-39.064
11
116.292
21
-39.2621
0
LINE
8
BLACK
6
CONTINUOUS
10
116.292
20
-39.2621
11
116.292
21
-39.2621
0
LINE
8
BLACK
6
CONTINUOUS
10
116.292
20
-39.2621
11
116.24
21
-39.359
0
LINE
8
BLACK
6
CONTINUOUS
10
116.24
20
-39.359
11
116.194
21
-39.4447
0
LINE
8
BLACK
6
CONTINUOUS
10
116.194
20
-39.4447
11
116.063
21
-39.6048
0
LINE
8
BLACK
6
CONTINUOUS
10
116.063
20
-39.6048
11
115.903
21
-39.7361
0
LINE
8
BLACK
6
CONTINUOUS
10
115.903
20
-39.7361
11
115.817
21
-39.7819
0
LINE
8
BLACK
6
CONTINUOUS
10
115.817
20
-39.7819
11
115.72
21
-39.8337
0
LINE
8
BLACK
6
CONTINUOUS
10
115.72
20
-39.8337
11
115.72
21
-39.8337
0
LINE
8
BLACK
6
CONTINUOUS
10
115.72
20
-39.8337
11
115.522
21
-39.8938
0
LINE
8
BLACK
6
CONTINUOUS
10
115.522
20
-39.8938
11
115.316
21
-39.9141
0
LINE
8
BLACK
6
CONTINUOUS
10
115.316
20
-39.9141
11
115.11
21
-39.8938
0
LINE
8
BLACK
6
CONTINUOUS
10
115.11
20
-39.8938
11
114.912
21
-39.8337
0
LINE
8
BLACK
6
CONTINUOUS
10
114.912
20
-39.8337
11
114.912
21
-39.8337
0
LINE
8
BLACK
6
CONTINUOUS
10
114.912
20
-39.8337
11
114.815
21
-39.7819
0
LINE
8
BLACK
6
CONTINUOUS
10
114.815
20
-39.7819
11
114.729
21
-39.7361
0
LINE
8
BLACK
6
CONTINUOUS
10
114.729
20
-39.7361
11
114.569
21
-39.6048
0
LINE
8
BLACK
6
CONTINUOUS
10
114.569
20
-39.6048
11
114.438
21
-39.4447
0
LINE
8
BLACK
6
CONTINUOUS
10
114.438
20
-39.4447
11
114.34
21
-39.2621
0
LINE
8
BLACK
6
CONTINUOUS
10
114.34
20
-39.2621
11
114.34
21
-39.2621
0
LINE
8
BLACK
6
CONTINUOUS
10
114.34
20
-39.2621
11
114.32
21
-39.1961
0
LINE
8
BLACK
6
CONTINUOUS
10
114.32
20
-39.1961
11
114.28
21
-39.064
0
LINE
8
BLACK
6
CONTINUOUS
10
114.28
20
-39.064
11
114.265
21
-38.9096
0
LINE
8
BLACK
6
CONTINUOUS
10
114.265
20
-38.9096
11
114.265
21
-38.3064
0
LINE
8
BLACK
6
CONTINUOUS
10
114.265
20
-38.3064
11
114.28
21
-38.152
0
LINE
8
BLACK
6
CONTINUOUS
10
114.28
20
-38.152
11
114.34
21
-37.9539
0
LINE
8
BLACK
6
CONTINUOUS
10
114.34
20
-37.9539
11
114.34
21
-37.9539
0
LINE
8
BLACK
6
CONTINUOUS
10
114.34
20
-37.9539
11
114.376
21
-37.888
0
LINE
8
BLACK
6
CONTINUOUS
10
114.376
20
-37.888
11
114.438
21
-37.7713
0
LINE
8
BLACK
6
CONTINUOUS
10
114.438
20
-37.7713
11
114.569
21
-37.6112
0
LINE
8
BLACK
6
CONTINUOUS
10
114.569
20
-37.6112
11
114.729
21
-37.4799
0
LINE
8
BLACK
6
CONTINUOUS
10
114.729
20
-37.4799
11
114.815
21
-37.4341
0
LINE
8
BLACK
6
CONTINUOUS
10
114.815
20
-37.4341
11
114.912
21
-37.3823
0
LINE
8
BLACK
6
CONTINUOUS
10
114.912
20
-37.3823
11
114.912
21
-37.3823
0
LINE
8
BLACK
6
CONTINUOUS
10
114.912
20
-37.3823
11
115.11
21
-37.3222
0
LINE
8
BLACK
6
CONTINUOUS
10
115.11
20
-37.3222
11
115.316
21
-37.3019
0
LINE
8
BLACK
6
CONTINUOUS
10
115.316
20
-37.3019
11
115.522
21
-37.3222
0
LINE
8
BLACK
6
CONTINUOUS
10
112.982
20
-37.3222
11
113.18
21
-37.3823
0
LINE
8
BLACK
6
CONTINUOUS
10
113.18
20
-37.3823
11
113.18
21
-37.3823
0
LINE
8
BLACK
6
CONTINUOUS
10
113.18
20
-37.3823
11
113.246
21
-37.4175
0
LINE
8
BLACK
6
CONTINUOUS
10
113.246
20
-37.4175
11
113.363
21
-37.4799
0
LINE
8
BLACK
6
CONTINUOUS
10
113.363
20
-37.4799
11
113.523
21
-37.6112
0
LINE
8
BLACK
6
CONTINUOUS
10
113.523
20
-37.6112
11
113.654
21
-37.7713
0
LINE
8
BLACK
6
CONTINUOUS
10
113.654
20
-37.7713
11
113.654
21
-37.7713
0
LINE
8
BLACK
6
CONTINUOUS
10
113.654
20
-37.7713
11
113.752
21
-37.9539
0
LINE
8
BLACK
6
CONTINUOUS
10
113.752
20
-37.9539
11
113.752
21
-37.9539
0
LINE
8
BLACK
6
CONTINUOUS
10
113.752
20
-37.9539
11
113.752
21
-37.9539
0
LINE
8
BLACK
6
CONTINUOUS
10
113.752
20
-37.9539
11
113.812
21
-38.152
0
LINE
8
BLACK
6
CONTINUOUS
10
113.812
20
-38.152
11
113.827
21
-38.3064
0
LINE
8
BLACK
6
CONTINUOUS
10
113.827
20
-38.3064
11
113.827
21
-38.9096
0
LINE
8
BLACK
6
CONTINUOUS
10
113.827
20
-38.9096
11
113.812
21
-39.064
0
LINE
8
BLACK
6
CONTINUOUS
10
113.812
20
-39.064
11
113.752
21
-39.2621
0
LINE
8
BLACK
6
CONTINUOUS
10
113.752
20
-39.2621
11
113.752
21
-39.2621
0
LINE
8
BLACK
6
CONTINUOUS
10
113.752
20
-39.2621
11
113.7
21
-39.359
0
LINE
8
BLACK
6
CONTINUOUS
10
113.7
20
-39.359
11
113.654
21
-39.4447
0
LINE
8
BLACK
6
CONTINUOUS
10
113.654
20
-39.4447
11
113.523
21
-39.6048
0
LINE
8
BLACK
6
CONTINUOUS
10
113.523
20
-39.6048
11
113.363
21
-39.7361
0
LINE
8
BLACK
6
CONTINUOUS
10
113.363
20
-39.7361
11
113.277
21
-39.7819
0
LINE
8
BLACK
6
CONTINUOUS
10
113.277
20
-39.7819
11
113.18
21
-39.8337
0
LINE
8
BLACK
6
CONTINUOUS
10
113.18
20
-39.8337
11
113.18
21
-39.8337
0
LINE
8
BLACK
6
CONTINUOUS
10
113.18
20
-39.8337
11
112.982
21
-39.8938
0
LINE
8
BLACK
6
CONTINUOUS
10
112.982
20
-39.8938
11
112.776
21
-39.9141
0
LINE
8
BLACK
6
CONTINUOUS
10
112.776
20
-39.9141
11
112.57
21
-39.8938
0
LINE
8
BLACK
6
CONTINUOUS
10
112.57
20
-39.8938
11
112.372
21
-39.8337
0
LINE
8
BLACK
6
CONTINUOUS
10
112.372
20
-39.8337
11
112.372
21
-39.8337
0
LINE
8
BLACK
6
CONTINUOUS
10
112.372
20
-39.8337
11
112.275
21
-39.7819
0
LINE
8
BLACK
6
CONTINUOUS
10
112.275
20
-39.7819
11
112.189
21
-39.7361
0
LINE
8
BLACK
6
CONTINUOUS
10
112.189
20
-39.7361
11
112.029
21
-39.6048
0
LINE
8
BLACK
6
CONTINUOUS
10
112.029
20
-39.6048
11
111.898
21
-39.4447
0
LINE
8
BLACK
6
CONTINUOUS
10
111.898
20
-39.4447
11
111.8
21
-39.2621
0
LINE
8
BLACK
6
CONTINUOUS
10
111.8
20
-39.2621
11
111.8
21
-39.2621
0
LINE
8
BLACK
6
CONTINUOUS
10
111.8
20
-39.2621
11
111.78
21
-39.1961
0
LINE
8
BLACK
6
CONTINUOUS
10
111.78
20
-39.1961
11
111.74
21
-39.064
0
LINE
8
BLACK
6
CONTINUOUS
10
111.74
20
-39.064
11
111.725
21
-38.9096
0
LINE
8
BLACK
6
CONTINUOUS
10
111.725
20
-38.9096
11
111.725
21
-38.3064
0
LINE
8
BLACK
6
CONTINUOUS
10
111.725
20
-38.3064
11
111.74
21
-38.152
0
LINE
8
BLACK
6
CONTINUOUS
10
111.74
20
-38.152
11
111.8
21
-37.9539
0
LINE
8
BLACK
6
CONTINUOUS
10
111.8
20
-37.9539
11
111.8
21
-37.9539
0
LINE
8
BLACK
6
CONTINUOUS
10
111.8
20
-37.9539
11
111.836
21
-37.888
0
LINE
8
BLACK
6
CONTINUOUS
10
111.836
20
-37.888
11
111.898
21
-37.7713
0
LINE
8
BLACK
6
CONTINUOUS
10
111.898
20
-37.7713
11
112.029
21
-37.6112
0
LINE
8
BLACK
6
CONTINUOUS
10
112.029
20
-37.6112
11
112.189
21
-37.4799
0
LINE
8
BLACK
6
CONTINUOUS
10
112.189
20
-37.4799
11
112.275
21
-37.4341
0
LINE
8
BLACK
6
CONTINUOUS
10
112.275
20
-37.4341
11
112.372
21
-37.3823
0
LINE
8
BLACK
6
CONTINUOUS
10
112.372
20
-37.3823
11
112.372
21
-37.3823
0
LINE
8
BLACK
6
CONTINUOUS
10
112.372
20
-37.3823
11
112.57
21
-37.3222
0
LINE
8
BLACK
6
CONTINUOUS
10
112.57
20
-37.3222
11
112.776
21
-37.3019
0
LINE
8
BLACK
6
CONTINUOUS
10
112.776
20
-37.3019
11
112.982
21
-37.3222
0
LINE
8
BLACK
6
CONTINUOUS
10
110.442
20
-37.3222
11
110.64
21
-37.3823
0
LINE
8
BLACK
6
CONTINUOUS
10
110.64
20
-37.3823
11
110.64
21
-37.3823
0
LINE
8
BLACK
6
CONTINUOUS
10
110.64
20
-37.3823
11
110.706
21
-37.4175
0
LINE
8
BLACK
6
CONTINUOUS
10
110.706
20
-37.4175
11
110.823
21
-37.4799
0
LINE
8
BLACK
6
CONTINUOUS
10
110.823
20
-37.4799
11
110.983
21
-37.6112
0
LINE
8
BLACK
6
CONTINUOUS
10
110.983
20
-37.6112
11
111.114
21
-37.7713
0
LINE
8
BLACK
6
CONTINUOUS
10
111.114
20
-37.7713
11
111.114
21
-37.7713
0
LINE
8
BLACK
6
CONTINUOUS
10
111.114
20
-37.7713
11
111.212
21
-37.9539
0
LINE
8
BLACK
6
CONTINUOUS
10
111.212
20
-37.9539
11
111.212
21
-37.9539
0
LINE
8
BLACK
6
CONTINUOUS
10
111.212
20
-37.9539
11
111.212
21
-37.9539
0
LINE
8
BLACK
6
CONTINUOUS
10
111.212
20
-37.9539
11
111.272
21
-38.152
0
LINE
8
BLACK
6
CONTINUOUS
10
111.272
20
-38.152
11
111.287
21
-38.3064
0
LINE
8
BLACK
6
CONTINUOUS
10
111.287
20
-38.3064
11
111.287
21
-38.9096
0
LINE
8
BLACK
6
CONTINUOUS
10
111.287
20
-38.9096
11
111.272
21
-39.064
0
LINE
8
BLACK
6
CONTINUOUS
10
111.272
20
-39.064
11
111.212
21
-39.2621
0
LINE
8
BLACK
6
CONTINUOUS
10
111.212
20
-39.2621
11
111.212
21
-39.2621
0
LINE
8
BLACK
6
CONTINUOUS
10
111.212
20
-39.2621
11
111.16
21
-39.359
0
LINE
8
BLACK
6
CONTINUOUS
10
111.16
20
-39.359
11
111.114
21
-39.4447
0
LINE
8
BLACK
6
CONTINUOUS
10
111.114
20
-39.4447
11
110.983
21
-39.6048
0
LINE
8
BLACK
6
CONTINUOUS
10
110.983
20
-39.6048
11
110.823
21
-39.7361
0
LINE
8
BLACK
6
CONTINUOUS
10
110.823
20
-39.7361
11
110.737
21
-39.7819
0
LINE
8
BLACK
6
CONTINUOUS
10
110.737
20
-39.7819
11
110.64
21
-39.8337
0
LINE
8
BLACK
6
CONTINUOUS
10
110.64
20
-39.8337
11
110.64
21
-39.8337
0
LINE
8
BLACK
6
CONTINUOUS
10
110.64
20
-39.8337
11
110.442
21
-39.8938
0
LINE
8
BLACK
6
CONTINUOUS
10
110.442
20
-39.8938
11
110.236
21
-39.9141
0
LINE
8
BLACK
6
CONTINUOUS
10
110.236
20
-39.9141
11
110.03
21
-39.8938
0
LINE
8
BLACK
6
CONTINUOUS
10
110.03
20
-39.8938
11
109.832
21
-39.8337
0
LINE
8
BLACK
6
CONTINUOUS
10
109.832
20
-39.8337
11
109.832
21
-39.8337
0
LINE
8
BLACK
6
CONTINUOUS
10
109.832
20
-39.8337
11
109.735
21
-39.7819
0
LINE
8
BLACK
6
CONTINUOUS
10
109.735
20
-39.7819
11
109.649
21
-39.7361
0
LINE
8
BLACK
6
CONTINUOUS
10
109.649
20
-39.7361
11
109.489
21
-39.6048
0
LINE
8
BLACK
6
CONTINUOUS
10
109.489
20
-39.6048
11
109.358
21
-39.4447
0
LINE
8
BLACK
6
CONTINUOUS
10
109.358
20
-39.4447
11
109.26
21
-39.2621
0
LINE
8
BLACK
6
CONTINUOUS
10
109.26
20
-39.2621
11
109.26
21
-39.2621
0
LINE
8
BLACK
6
CONTINUOUS
10
109.26
20
-39.2621
11
109.24
21
-39.1961
0
LINE
8
BLACK
6
CONTINUOUS
10
109.24
20
-39.1961
11
109.2
21
-39.064
0
LINE
8
BLACK
6
CONTINUOUS
10
109.2
20
-39.064
11
109.185
21
-38.9096
0
LINE
8
BLACK
6
CONTINUOUS
10
109.185
20
-38.9096
11
109.185
21
-38.3064
0
LINE
8
BLACK
6
CONTINUOUS
10
109.185
20
-38.3064
11
109.2
21
-38.152
0
LINE
8
BLACK
6
CONTINUOUS
10
109.2
20
-38.152
11
109.26
21
-37.9539
0
LINE
8
BLACK
6
CONTINUOUS
10
109.26
20
-37.9539
11
109.26
21
-37.9539
0
LINE
8
BLACK
6
CONTINUOUS
10
109.26
20
-37.9539
11
109.296
21
-37.888
0
LINE
8
BLACK
6
CONTINUOUS
10
109.296
20
-37.888
11
109.358
21
-37.7713
0
LINE
8
BLACK
6
CONTINUOUS
10
109.358
20
-37.7713
11
109.489
21
-37.6112
0
LINE
8
BLACK
6
CONTINUOUS
10
109.489
20
-37.6112
11
109.649
21
-37.4799
0
LINE
8
BLACK
6
CONTINUOUS
10
109.649
20
-37.4799
11
109.735
21
-37.4341
0
LINE
8
BLACK
6
CONTINUOUS
10
109.735
20
-37.4341
11
109.832
21
-37.3823
0
LINE
8
BLACK
6
CONTINUOUS
10
109.832
20
-37.3823
11
109.832
21
-37.3823
0
LINE
8
BLACK
6
CONTINUOUS
10
109.832
20
-37.3823
11
110.03
21
-37.3222
0
LINE
8
BLACK
6
CONTINUOUS
10
110.03
20
-37.3222
11
110.236
21
-37.3019
0
LINE
8
BLACK
6
CONTINUOUS
10
110.236
20
-37.3019
11
110.442
21
-37.3222
0
LINE
8
BLACK
6
CONTINUOUS
10
132.873
20
-38.389
11
130.271
21
-38.389
0
LINE
8
BLACK
6
CONTINUOUS
10
130.271
20
-38.389
11
130.271
21
-36.287
0
LINE
8
BLACK
6
CONTINUOUS
10
130.271
20
-36.287
11
132.873
21
-36.287
0
LINE
8
BLACK
6
CONTINUOUS
10
132.873
20
-36.287
11
132.873
21
-38.389
0
LINE
8
BLACK
6
CONTINUOUS
10
88.165
20
-38.135
11
85.063
21
-38.135
0
LINE
8
BLACK
6
CONTINUOUS
10
85.063
20
-38.135
11
85.063
21
-36.033
0
LINE
8
BLACK
6
CONTINUOUS
10
85.063
20
-36.033
11
88.165
21
-36.033
0
LINE
8
BLACK
6
CONTINUOUS
10
88.165
20
-36.033
11
88.165
21
-38.135
0
LINE
8
BLACK
6
CONTINUOUS
10
95.785
20
-38.135
11
92.683
21
-38.135
0
LINE
8
BLACK
6
CONTINUOUS
10
92.683
20
-38.135
11
92.683
21
-36.033
0
LINE
8
BLACK
6
CONTINUOUS
10
92.683
20
-36.033
11
95.785
21
-36.033
0
LINE
8
BLACK
6
CONTINUOUS
10
95.785
20
-36.033
11
95.785
21
-38.135
0
LINE
8
BLACK
6
CONTINUOUS
10
132.873
20
-35.849
11
130.271
21
-35.849
0
LINE
8
BLACK
6
CONTINUOUS
10
130.271
20
-35.849
11
130.271
21
-33.747
0
LINE
8
BLACK
6
CONTINUOUS
10
130.271
20
-33.747
11
132.873
21
-33.747
0
LINE
8
BLACK
6
CONTINUOUS
10
132.873
20
-33.747
11
132.873
21
-35.849
0
LINE
8
BLACK
6
CONTINUOUS
10
88.165
20
-35.595
11
85.063
21
-35.595
0
LINE
8
BLACK
6
CONTINUOUS
10
85.063
20
-35.595
11
85.063
21
-33.493
0
LINE
8
BLACK
6
CONTINUOUS
10
85.063
20
-33.493
11
88.165
21
-33.493
0
LINE
8
BLACK
6
CONTINUOUS
10
88.165
20
-33.493
11
88.165
21
-35.595
0
LINE
8
BLACK
6
CONTINUOUS
10
95.785
20
-35.595
11
92.683
21
-35.595
0
LINE
8
BLACK
6
CONTINUOUS
10
92.683
20
-35.595
11
92.683
21
-33.493
0
LINE
8
BLACK
6
CONTINUOUS
10
92.683
20
-33.493
11
95.785
21
-33.493
0
LINE
8
BLACK
6
CONTINUOUS
10
95.785
20
-33.493
11
95.785
21
-35.595
0
LINE
8
BLACK
6
CONTINUOUS
10
106.632
20
-32.2422
11
106.83
21
-32.3023
0
LINE
8
BLACK
6
CONTINUOUS
10
106.83
20
-32.3023
11
106.83
21
-32.3023
0
LINE
8
BLACK
6
CONTINUOUS
10
106.83
20
-32.3023
11
106.896
21
-32.3375
0
LINE
8
BLACK
6
CONTINUOUS
10
106.896
20
-32.3375
11
107.013
21
-32.3999
0
LINE
8
BLACK
6
CONTINUOUS
10
107.013
20
-32.3999
11
107.173
21
-32.5312
0
LINE
8
BLACK
6
CONTINUOUS
10
107.173
20
-32.5312
11
107.304
21
-32.6913
0
LINE
8
BLACK
6
CONTINUOUS
10
107.304
20
-32.6913
11
107.304
21
-32.6913
0
LINE
8
BLACK
6
CONTINUOUS
10
107.304
20
-32.6913
11
107.402
21
-32.8739
0
LINE
8
BLACK
6
CONTINUOUS
10
107.402
20
-32.8739
11
107.402
21
-32.8739
0
LINE
8
BLACK
6
CONTINUOUS
10
107.402
20
-32.8739
11
107.402
21
-32.8739
0
LINE
8
BLACK
6
CONTINUOUS
10
107.402
20
-32.8739
11
107.462
21
-33.072
0
LINE
8
BLACK
6
CONTINUOUS
10
107.462
20
-33.072
11
107.477
21
-33.2264
0
LINE
8
BLACK
6
CONTINUOUS
10
107.477
20
-33.2264
11
107.477
21
-33.8296
0
LINE
8
BLACK
6
CONTINUOUS
10
107.477
20
-33.8296
11
107.462
21
-33.984
0
LINE
8
BLACK
6
CONTINUOUS
10
107.462
20
-33.984
11
107.402
21
-34.1821
0
LINE
8
BLACK
6
CONTINUOUS
10
107.402
20
-34.1821
11
107.402
21
-34.1821
0
LINE
8
BLACK
6
CONTINUOUS
10
107.402
20
-34.1821
11
107.35
21
-34.279
0
LINE
8
BLACK
6
CONTINUOUS
10
107.35
20
-34.279
11
107.304
21
-34.3647
0
LINE
8
BLACK
6
CONTINUOUS
10
107.304
20
-34.3647
11
107.173
21
-34.5248
0
LINE
8
BLACK
6
CONTINUOUS
10
107.173
20
-34.5248
11
107.013
21
-34.6561
0
LINE
8
BLACK
6
CONTINUOUS
10
107.013
20
-34.6561
11
106.927
21
-34.7019
0
LINE
8
BLACK
6
CONTINUOUS
10
106.927
20
-34.7019
11
106.83
21
-34.7537
0
LINE
8
BLACK
6
CONTINUOUS
10
106.83
20
-34.7537
11
106.83
21
-34.7537
0
LINE
8
BLACK
6
CONTINUOUS
10
106.83
20
-34.7537
11
106.632
21
-34.8138
0
LINE
8
BLACK
6
CONTINUOUS
10
106.632
20
-34.8138
11
106.426
21
-34.8341
0
LINE
8
BLACK
6
CONTINUOUS
10
106.426
20
-34.8341
11
106.22
21
-34.8138
0
LINE
8
BLACK
6
CONTINUOUS
10
106.22
20
-34.8138
11
106.022
21
-34.7537
0
LINE
8
BLACK
6
CONTINUOUS
10
106.022
20
-34.7537
11
106.022
21
-34.7537
0
LINE
8
BLACK
6
CONTINUOUS
10
106.022
20
-34.7537
11
105.925
21
-34.7019
0
LINE
8
BLACK
6
CONTINUOUS
10
105.925
20
-34.7019
11
105.839
21
-34.6561
0
LINE
8
BLACK
6
CONTINUOUS
10
105.839
20
-34.6561
11
105.679
21
-34.5248
0
LINE
8
BLACK
6
CONTINUOUS
10
105.679
20
-34.5248
11
105.548
21
-34.3647
0
LINE
8
BLACK
6
CONTINUOUS
10
105.548
20
-34.3647
11
105.45
21
-34.1821
0
LINE
8
BLACK
6
CONTINUOUS
10
105.45
20
-34.1821
11
105.45
21
-34.1821
0
LINE
8
BLACK
6
CONTINUOUS
10
105.45
20
-34.1821
11
105.43
21
-34.1161
0
LINE
8
BLACK
6
CONTINUOUS
10
105.43
20
-34.1161
11
105.39
21
-33.984
0
LINE
8
BLACK
6
CONTINUOUS
10
105.39
20
-33.984
11
105.375
21
-33.8296
0
LINE
8
BLACK
6
CONTINUOUS
10
105.375
20
-33.8296
11
105.375
21
-33.2264
0
LINE
8
BLACK
6
CONTINUOUS
10
105.375
20
-33.2264
11
105.39
21
-33.072
0
LINE
8
BLACK
6
CONTINUOUS
10
105.39
20
-33.072
11
105.45
21
-32.8739
0
LINE
8
BLACK
6
CONTINUOUS
10
105.45
20
-32.8739
11
105.45
21
-32.8739
0
LINE
8
BLACK
6
CONTINUOUS
10
105.45
20
-32.8739
11
105.486
21
-32.808
0
LINE
8
BLACK
6
CONTINUOUS
10
105.486
20
-32.808
11
105.548
21
-32.6913
0
LINE
8
BLACK
6
CONTINUOUS
10
105.548
20
-32.6913
11
105.679
21
-32.5312
0
LINE
8
BLACK
6
CONTINUOUS
10
105.679
20
-32.5312
11
105.839
21
-32.3999
0
LINE
8
BLACK
6
CONTINUOUS
10
105.839
20
-32.3999
11
105.925
21
-32.3541
0
LINE
8
BLACK
6
CONTINUOUS
10
105.925
20
-32.3541
11
106.022
21
-32.3023
0
LINE
8
BLACK
6
CONTINUOUS
10
106.022
20
-32.3023
11
106.022
21
-32.3023
0
LINE
8
BLACK
6
CONTINUOUS
10
106.022
20
-32.3023
11
106.22
21
-32.2422
0
LINE
8
BLACK
6
CONTINUOUS
10
106.22
20
-32.2422
11
106.426
21
-32.2219
0
LINE
8
BLACK
6
CONTINUOUS
10
106.426
20
-32.2219
11
106.632
21
-32.2422
0
LINE
8
BLACK
6
CONTINUOUS
10
104.092
20
-32.2422
11
104.29
21
-32.3023
0
LINE
8
BLACK
6
CONTINUOUS
10
104.29
20
-32.3023
11
104.29
21
-32.3023
0
LINE
8
BLACK
6
CONTINUOUS
10
104.29
20
-32.3023
11
104.356
21
-32.3375
0
LINE
8
BLACK
6
CONTINUOUS
10
104.356
20
-32.3375
11
104.473
21
-32.3999
0
LINE
8
BLACK
6
CONTINUOUS
10
104.473
20
-32.3999
11
104.633
21
-32.5312
0
LINE
8
BLACK
6
CONTINUOUS
10
104.633
20
-32.5312
11
104.764
21
-32.6913
0
LINE
8
BLACK
6
CONTINUOUS
10
104.764
20
-32.6913
11
104.764
21
-32.6913
0
LINE
8
BLACK
6
CONTINUOUS
10
104.764
20
-32.6913
11
104.862
21
-32.8739
0
LINE
8
BLACK
6
CONTINUOUS
10
104.862
20
-32.8739
11
104.862
21
-32.8739
0
LINE
8
BLACK
6
CONTINUOUS
10
104.862
20
-32.8739
11
104.862
21
-32.8739
0
LINE
8
BLACK
6
CONTINUOUS
10
104.862
20
-32.8739
11
104.922
21
-33.072
0
LINE
8
BLACK
6
CONTINUOUS
10
104.922
20
-33.072
11
104.937
21
-33.2264
0
LINE
8
BLACK
6
CONTINUOUS
10
104.937
20
-33.2264
11
104.937
21
-33.8296
0
LINE
8
BLACK
6
CONTINUOUS
10
104.937
20
-33.8296
11
104.922
21
-33.984
0
LINE
8
BLACK
6
CONTINUOUS
10
104.922
20
-33.984
11
104.862
21
-34.1821
0
LINE
8
BLACK
6
CONTINUOUS
10
104.862
20
-34.1821
11
104.862
21
-34.1821
0
LINE
8
BLACK
6
CONTINUOUS
10
104.862
20
-34.1821
11
104.81
21
-34.279
0
LINE
8
BLACK
6
CONTINUOUS
10
104.81
20
-34.279
11
104.764
21
-34.3647
0
LINE
8
BLACK
6
CONTINUOUS
10
104.764
20
-34.3647
11
104.633
21
-34.5248
0
LINE
8
BLACK
6
CONTINUOUS
10
104.633
20
-34.5248
11
104.473
21
-34.6561
0
LINE
8
BLACK
6
CONTINUOUS
10
104.473
20
-34.6561
11
104.387
21
-34.7019
0
LINE
8
BLACK
6
CONTINUOUS
10
104.387
20
-34.7019
11
104.29
21
-34.7537
0
LINE
8
BLACK
6
CONTINUOUS
10
104.29
20
-34.7537
11
104.29
21
-34.7537
0
LINE
8
BLACK
6
CONTINUOUS
10
104.29
20
-34.7537
11
104.092
21
-34.8138
0
LINE
8
BLACK
6
CONTINUOUS
10
104.092
20
-34.8138
11
103.886
21
-34.8341
0
LINE
8
BLACK
6
CONTINUOUS
10
103.886
20
-34.8341
11
103.68
21
-34.8138
0
LINE
8
BLACK
6
CONTINUOUS
10
103.68
20
-34.8138
11
103.482
21
-34.7537
0
LINE
8
BLACK
6
CONTINUOUS
10
103.482
20
-34.7537
11
103.482
21
-34.7537
0
LINE
8
BLACK
6
CONTINUOUS
10
103.482
20
-34.7537
11
103.385
21
-34.7019
0
LINE
8
BLACK
6
CONTINUOUS
10
103.385
20
-34.7019
11
103.299
21
-34.6561
0
LINE
8
BLACK
6
CONTINUOUS
10
103.299
20
-34.6561
11
103.139
21
-34.5248
0
LINE
8
BLACK
6
CONTINUOUS
10
103.139
20
-34.5248
11
103.008
21
-34.3647
0
LINE
8
BLACK
6
CONTINUOUS
10
103.008
20
-34.3647
11
102.91
21
-34.1821
0
LINE
8
BLACK
6
CONTINUOUS
10
102.91
20
-34.1821
11
102.91
21
-34.1821
0
LINE
8
BLACK
6
CONTINUOUS
10
102.91
20
-34.1821
11
102.89
21
-34.1161
0
LINE
8
BLACK
6
CONTINUOUS
10
102.89
20
-34.1161
11
102.85
21
-33.984
0
LINE
8
BLACK
6
CONTINUOUS
10
102.85
20
-33.984
11
102.835
21
-33.8296
0
LINE
8
BLACK
6
CONTINUOUS
10
102.835
20
-33.8296
11
102.835
21
-33.2264
0
LINE
8
BLACK
6
CONTINUOUS
10
102.835
20
-33.2264
11
102.85
21
-33.072
0
LINE
8
BLACK
6
CONTINUOUS
10
102.85
20
-33.072
11
102.91
21
-32.8739
0
LINE
8
BLACK
6
CONTINUOUS
10
102.91
20
-32.8739
11
102.91
21
-32.8739
0
LINE
8
BLACK
6
CONTINUOUS
10
102.91
20
-32.8739
11
102.946
21
-32.808
0
LINE
8
BLACK
6
CONTINUOUS
10
102.946
20
-32.808
11
103.008
21
-32.6913
0
LINE
8
BLACK
6
CONTINUOUS
10
103.008
20
-32.6913
11
103.139
21
-32.5312
0
LINE
8
BLACK
6
CONTINUOUS
10
103.139
20
-32.5312
11
103.299
21
-32.3999
0
LINE
8
BLACK
6
CONTINUOUS
10
103.299
20
-32.3999
11
103.385
21
-32.3541
0
LINE
8
BLACK
6
CONTINUOUS
10
103.385
20
-32.3541
11
103.482
21
-32.3023
0
LINE
8
BLACK
6
CONTINUOUS
10
103.482
20
-32.3023
11
103.482
21
-32.3023
0
LINE
8
BLACK
6
CONTINUOUS
10
103.482
20
-32.3023
11
103.68
21
-32.2422
0
LINE
8
BLACK
6
CONTINUOUS
10
103.68
20
-32.2422
11
103.886
21
-32.2219
0
LINE
8
BLACK
6
CONTINUOUS
10
103.886
20
-32.2219
11
104.092
21
-32.2422
0
LINE
8
BLACK
6
CONTINUOUS
10
109.172
20
-32.2422
11
109.37
21
-32.3023
0
LINE
8
BLACK
6
CONTINUOUS
10
109.37
20
-32.3023
11
109.37
21
-32.3023
0
LINE
8
BLACK
6
CONTINUOUS
10
109.37
20
-32.3023
11
109.436
21
-32.3375
0
LINE
8
BLACK
6
CONTINUOUS
10
109.436
20
-32.3375
11
109.553
21
-32.3999
0
LINE
8
BLACK
6
CONTINUOUS
10
109.553
20
-32.3999
11
109.713
21
-32.5312
0
LINE
8
BLACK
6
CONTINUOUS
10
109.713
20
-32.5312
11
109.844
21
-32.6913
0
LINE
8
BLACK
6
CONTINUOUS
10
109.844
20
-32.6913
11
109.844
21
-32.6913
0
LINE
8
BLACK
6
CONTINUOUS
10
109.844
20
-32.6913
11
109.942
21
-32.8739
0
LINE
8
BLACK
6
CONTINUOUS
10
109.942
20
-32.8739
11
109.942
21
-32.8739
0
LINE
8
BLACK
6
CONTINUOUS
10
109.942
20
-32.8739
11
109.942
21
-32.8739
0
LINE
8
BLACK
6
CONTINUOUS
10
109.942
20
-32.8739
11
110.002
21
-33.072
0
LINE
8
BLACK
6
CONTINUOUS
10
110.002
20
-33.072
11
110.017
21
-33.2264
0
LINE
8
BLACK
6
CONTINUOUS
10
110.017
20
-33.2264
11
110.017
21
-33.8296
0
LINE
8
BLACK
6
CONTINUOUS
10
110.017
20
-33.8296
11
110.002
21
-33.984
0
LINE
8
BLACK
6
CONTINUOUS
10
110.002
20
-33.984
11
109.942
21
-34.1821
0
LINE
8
BLACK
6
CONTINUOUS
10
109.942
20
-34.1821
11
109.942
21
-34.1821
0
LINE
8
BLACK
6
CONTINUOUS
10
109.942
20
-34.1821
11
109.89
21
-34.279
0
LINE
8
BLACK
6
CONTINUOUS
10
109.89
20
-34.279
11
109.844
21
-34.3647
0
LINE
8
BLACK
6
CONTINUOUS
10
109.844
20
-34.3647
11
109.713
21
-34.5248
0
LINE
8
BLACK
6
CONTINUOUS
10
109.713
20
-34.5248
11
109.553
21
-34.6561
0
LINE
8
BLACK
6
CONTINUOUS
10
109.553
20
-34.6561
11
109.467
21
-34.7019
0
LINE
8
BLACK
6
CONTINUOUS
10
109.467
20
-34.7019
11
109.37
21
-34.7537
0
LINE
8
BLACK
6
CONTINUOUS
10
109.37
20
-34.7537
11
109.37
21
-34.7537
0
LINE
8
BLACK
6
CONTINUOUS
10
109.37
20
-34.7537
11
109.172
21
-34.8138
0
LINE
8
BLACK
6
CONTINUOUS
10
109.172
20
-34.8138
11
108.966
21
-34.8341
0
LINE
8
BLACK
6
CONTINUOUS
10
108.966
20
-34.8341
11
108.76
21
-34.8138
0
LINE
8
BLACK
6
CONTINUOUS
10
108.76
20
-34.8138
11
108.562
21
-34.7537
0
LINE
8
BLACK
6
CONTINUOUS
10
108.562
20
-34.7537
11
108.562
21
-34.7537
0
LINE
8
BLACK
6
CONTINUOUS
10
108.562
20
-34.7537
11
108.465
21
-34.7019
0
LINE
8
BLACK
6
CONTINUOUS
10
108.465
20
-34.7019
11
108.379
21
-34.6561
0
LINE
8
BLACK
6
CONTINUOUS
10
108.379
20
-34.6561
11
108.219
21
-34.5248
0
LINE
8
BLACK
6
CONTINUOUS
10
108.219
20
-34.5248
11
108.088
21
-34.3647
0
LINE
8
BLACK
6
CONTINUOUS
10
108.088
20
-34.3647
11
107.99
21
-34.1821
0
LINE
8
BLACK
6
CONTINUOUS
10
107.99
20
-34.1821
11
107.99
21
-34.1821
0
LINE
8
BLACK
6
CONTINUOUS
10
107.99
20
-34.1821
11
107.97
21
-34.1161
0
LINE
8
BLACK
6
CONTINUOUS
10
107.97
20
-34.1161
11
107.93
21
-33.984
0
LINE
8
BLACK
6
CONTINUOUS
10
107.93
20
-33.984
11
107.915
21
-33.8296
0
LINE
8
BLACK
6
CONTINUOUS
10
107.915
20
-33.8296
11
107.915
21
-33.2264
0
LINE
8
BLACK
6
CONTINUOUS
10
107.915
20
-33.2264
11
107.93
21
-33.072
0
LINE
8
BLACK
6
CONTINUOUS
10
107.93
20
-33.072
11
107.99
21
-32.8739
0
LINE
8
BLACK
6
CONTINUOUS
10
107.99
20
-32.8739
11
107.99
21
-32.8739
0
LINE
8
BLACK
6
CONTINUOUS
10
107.99
20
-32.8739
11
108.026
21
-32.808
0
LINE
8
BLACK
6
CONTINUOUS
10
108.026
20
-32.808
11
108.088
21
-32.6913
0
LINE
8
BLACK
6
CONTINUOUS
10
108.088
20
-32.6913
11
108.219
21
-32.5312
0
LINE
8
BLACK
6
CONTINUOUS
10
108.219
20
-32.5312
11
108.379
21
-32.3999
0
LINE
8
BLACK
6
CONTINUOUS
10
108.379
20
-32.3999
11
108.465
21
-32.3541
0
LINE
8
BLACK
6
CONTINUOUS
10
108.465
20
-32.3541
11
108.562
21
-32.3023
0
LINE
8
BLACK
6
CONTINUOUS
10
108.562
20
-32.3023
11
108.562
21
-32.3023
0
LINE
8
BLACK
6
CONTINUOUS
10
108.562
20
-32.3023
11
108.76
21
-32.2422
0
LINE
8
BLACK
6
CONTINUOUS
10
108.76
20
-32.2422
11
108.966
21
-32.2219
0
LINE
8
BLACK
6
CONTINUOUS
10
108.966
20
-32.2219
11
109.172
21
-32.2422
0
LINE
8
BLACK
6
CONTINUOUS
10
111.712
20
-32.2422
11
111.91
21
-32.3023
0
LINE
8
BLACK
6
CONTINUOUS
10
111.91
20
-32.3023
11
111.91
21
-32.3023
0
LINE
8
BLACK
6
CONTINUOUS
10
111.91
20
-32.3023
11
111.976
21
-32.3375
0
LINE
8
BLACK
6
CONTINUOUS
10
111.976
20
-32.3375
11
112.093
21
-32.3999
0
LINE
8
BLACK
6
CONTINUOUS
10
112.093
20
-32.3999
11
112.253
21
-32.5312
0
LINE
8
BLACK
6
CONTINUOUS
10
112.253
20
-32.5312
11
112.384
21
-32.6913
0
LINE
8
BLACK
6
CONTINUOUS
10
112.384
20
-32.6913
11
112.384
21
-32.6913
0
LINE
8
BLACK
6
CONTINUOUS
10
112.384
20
-32.6913
11
112.482
21
-32.8739
0
LINE
8
BLACK
6
CONTINUOUS
10
112.482
20
-32.8739
11
112.482
21
-32.8739
0
LINE
8
BLACK
6
CONTINUOUS
10
112.482
20
-32.8739
11
112.482
21
-32.8739
0
LINE
8
BLACK
6
CONTINUOUS
10
112.482
20
-32.8739
11
112.542
21
-33.072
0
LINE
8
BLACK
6
CONTINUOUS
10
112.542
20
-33.072
11
112.557
21
-33.2264
0
LINE
8
BLACK
6
CONTINUOUS
10
112.557
20
-33.2264
11
112.557
21
-33.8296
0
LINE
8
BLACK
6
CONTINUOUS
10
112.557
20
-33.8296
11
112.542
21
-33.984
0
LINE
8
BLACK
6
CONTINUOUS
10
112.542
20
-33.984
11
112.482
21
-34.1821
0
LINE
8
BLACK
6
CONTINUOUS
10
112.482
20
-34.1821
11
112.482
21
-34.1821
0
LINE
8
BLACK
6
CONTINUOUS
10
112.482
20
-34.1821
11
112.43
21
-34.279
0
LINE
8
BLACK
6
CONTINUOUS
10
112.43
20
-34.279
11
112.384
21
-34.3647
0
LINE
8
BLACK
6
CONTINUOUS
10
112.384
20
-34.3647
11
112.253
21
-34.5248
0
LINE
8
BLACK
6
CONTINUOUS
10
112.253
20
-34.5248
11
112.093
21
-34.6561
0
LINE
8
BLACK
6
CONTINUOUS
10
112.093
20
-34.6561
11
112.007
21
-34.7019
0
LINE
8
BLACK
6
CONTINUOUS
10
112.007
20
-34.7019
11
111.91
21
-34.7537
0
LINE
8
BLACK
6
CONTINUOUS
10
111.91
20
-34.7537
11
111.91
21
-34.7537
0
LINE
8
BLACK
6
CONTINUOUS
10
111.91
20
-34.7537
11
111.712
21
-34.8138
0
LINE
8
BLACK
6
CONTINUOUS
10
111.712
20
-34.8138
11
111.506
21
-34.8341
0
LINE
8
BLACK
6
CONTINUOUS
10
111.506
20
-34.8341
11
111.3
21
-34.8138
0
LINE
8
BLACK
6
CONTINUOUS
10
111.3
20
-34.8138
11
111.102
21
-34.7537
0
LINE
8
BLACK
6
CONTINUOUS
10
111.102
20
-34.7537
11
111.102
21
-34.7537
0
LINE
8
BLACK
6
CONTINUOUS
10
111.102
20
-34.7537
11
111.005
21
-34.7019
0
LINE
8
BLACK
6
CONTINUOUS
10
111.005
20
-34.7019
11
110.919
21
-34.6561
0
LINE
8
BLACK
6
CONTINUOUS
10
110.919
20
-34.6561
11
110.759
21
-34.5248
0
LINE
8
BLACK
6
CONTINUOUS
10
110.759
20
-34.5248
11
110.628
21
-34.3647
0
LINE
8
BLACK
6
CONTINUOUS
10
110.628
20
-34.3647
11
110.53
21
-34.1821
0
LINE
8
BLACK
6
CONTINUOUS
10
110.53
20
-34.1821
11
110.53
21
-34.1821
0
LINE
8
BLACK
6
CONTINUOUS
10
110.53
20
-34.1821
11
110.51
21
-34.1161
0
LINE
8
BLACK
6
CONTINUOUS
10
110.51
20
-34.1161
11
110.47
21
-33.984
0
LINE
8
BLACK
6
CONTINUOUS
10
110.47
20
-33.984
11
110.455
21
-33.8296
0
LINE
8
BLACK
6
CONTINUOUS
10
110.455
20
-33.8296
11
110.455
21
-33.2264
0
LINE
8
BLACK
6
CONTINUOUS
10
110.455
20
-33.2264
11
110.47
21
-33.072
0
LINE
8
BLACK
6
CONTINUOUS
10
110.47
20
-33.072
11
110.53
21
-32.8739
0
LINE
8
BLACK
6
CONTINUOUS
10
110.53
20
-32.8739
11
110.53
21
-32.8739
0
LINE
8
BLACK
6
CONTINUOUS
10
110.53
20
-32.8739
11
110.566
21
-32.808
0
LINE
8
BLACK
6
CONTINUOUS
10
110.566
20
-32.808
11
110.628
21
-32.6913
0
LINE
8
BLACK
6
CONTINUOUS
10
110.628
20
-32.6913
11
110.759
21
-32.5312
0
LINE
8
BLACK
6
CONTINUOUS
10
110.759
20
-32.5312
11
110.919
21
-32.3999
0
LINE
8
BLACK
6
CONTINUOUS
10
110.919
20
-32.3999
11
111.005
21
-32.3541
0
LINE
8
BLACK
6
CONTINUOUS
10
111.005
20
-32.3541
11
111.102
21
-32.3023
0
LINE
8
BLACK
6
CONTINUOUS
10
111.102
20
-32.3023
11
111.102
21
-32.3023
0
LINE
8
BLACK
6
CONTINUOUS
10
111.102
20
-32.3023
11
111.3
21
-32.2422
0
LINE
8
BLACK
6
CONTINUOUS
10
111.3
20
-32.2422
11
111.506
21
-32.2219
0
LINE
8
BLACK
6
CONTINUOUS
10
111.506
20
-32.2219
11
111.712
21
-32.2422
0
LINE
8
BLACK
6
CONTINUOUS
10
114.252
20
-32.2422
11
114.45
21
-32.3023
0
LINE
8
BLACK
6
CONTINUOUS
10
114.45
20
-32.3023
11
114.45
21
-32.3023
0
LINE
8
BLACK
6
CONTINUOUS
10
114.45
20
-32.3023
11
114.516
21
-32.3375
0
LINE
8
BLACK
6
CONTINUOUS
10
114.516
20
-32.3375
11
114.633
21
-32.3999
0
LINE
8
BLACK
6
CONTINUOUS
10
114.633
20
-32.3999
11
114.793
21
-32.5312
0
LINE
8
BLACK
6
CONTINUOUS
10
114.793
20
-32.5312
11
114.924
21
-32.6913
0
LINE
8
BLACK
6
CONTINUOUS
10
114.924
20
-32.6913
11
114.924
21
-32.6913
0
LINE
8
BLACK
6
CONTINUOUS
10
114.924
20
-32.6913
11
115.022
21
-32.8739
0
LINE
8
BLACK
6
CONTINUOUS
10
115.022
20
-32.8739
11
115.022
21
-32.8739
0
LINE
8
BLACK
6
CONTINUOUS
10
115.022
20
-32.8739
11
115.022
21
-32.8739
0
LINE
8
BLACK
6
CONTINUOUS
10
115.022
20
-32.8739
11
115.082
21
-33.072
0
LINE
8
BLACK
6
CONTINUOUS
10
115.082
20
-33.072
11
115.097
21
-33.2264
0
LINE
8
BLACK
6
CONTINUOUS
10
115.097
20
-33.2264
11
115.097
21
-33.8296
0
LINE
8
BLACK
6
CONTINUOUS
10
115.097
20
-33.8296
11
115.082
21
-33.984
0
LINE
8
BLACK
6
CONTINUOUS
10
115.082
20
-33.984
11
115.022
21
-34.1821
0
LINE
8
BLACK
6
CONTINUOUS
10
115.022
20
-34.1821
11
115.022
21
-34.1821
0
LINE
8
BLACK
6
CONTINUOUS
10
115.022
20
-34.1821
11
114.97
21
-34.279
0
LINE
8
BLACK
6
CONTINUOUS
10
114.97
20
-34.279
11
114.924
21
-34.3647
0
LINE
8
BLACK
6
CONTINUOUS
10
114.924
20
-34.3647
11
114.793
21
-34.5248
0
LINE
8
BLACK
6
CONTINUOUS
10
114.793
20
-34.5248
11
114.633
21
-34.6561
0
LINE
8
BLACK
6
CONTINUOUS
10
114.633
20
-34.6561
11
114.547
21
-34.7019
0
LINE
8
BLACK
6
CONTINUOUS
10
114.547
20
-34.7019
11
114.45
21
-34.7537
0
LINE
8
BLACK
6
CONTINUOUS
10
114.45
20
-34.7537
11
114.45
21
-34.7537
0
LINE
8
BLACK
6
CONTINUOUS
10
114.45
20
-34.7537
11
114.252
21
-34.8138
0
LINE
8
BLACK
6
CONTINUOUS
10
114.252
20
-34.8138
11
114.046
21
-34.8341
0
LINE
8
BLACK
6
CONTINUOUS
10
114.046
20
-34.8341
11
113.84
21
-34.8138
0
LINE
8
BLACK
6
CONTINUOUS
10
113.84
20
-34.8138
11
113.642
21
-34.7537
0
LINE
8
BLACK
6
CONTINUOUS
10
113.642
20
-34.7537
11
113.642
21
-34.7537
0
LINE
8
BLACK
6
CONTINUOUS
10
113.642
20
-34.7537
11
113.545
21
-34.7019
0
LINE
8
BLACK
6
CONTINUOUS
10
113.545
20
-34.7019
11
113.459
21
-34.6561
0
LINE
8
BLACK
6
CONTINUOUS
10
113.459
20
-34.6561
11
113.299
21
-34.5248
0
LINE
8
BLACK
6
CONTINUOUS
10
113.299
20
-34.5248
11
113.168
21
-34.3647
0
LINE
8
BLACK
6
CONTINUOUS
10
113.168
20
-34.3647
11
113.07
21
-34.1821
0
LINE
8
BLACK
6
CONTINUOUS
10
113.07
20
-34.1821
11
113.07
21
-34.1821
0
LINE
8
BLACK
6
CONTINUOUS
10
113.07
20
-34.1821
11
113.05
21
-34.1161
0
LINE
8
BLACK
6
CONTINUOUS
10
113.05
20
-34.1161
11
113.01
21
-33.984
0
LINE
8
BLACK
6
CONTINUOUS
10
113.01
20
-33.984
11
112.995
21
-33.8296
0
LINE
8
BLACK
6
CONTINUOUS
10
112.995
20
-33.8296
11
112.995
21
-33.2264
0
LINE
8
BLACK
6
CONTINUOUS
10
112.995
20
-33.2264
11
113.01
21
-33.072
0
LINE
8
BLACK
6
CONTINUOUS
10
113.01
20
-33.072
11
113.07
21
-32.8739
0
LINE
8
BLACK
6
CONTINUOUS
10
113.07
20
-32.8739
11
113.07
21
-32.8739
0
LINE
8
BLACK
6
CONTINUOUS
10
113.07
20
-32.8739
11
113.106
21
-32.808
0
LINE
8
BLACK
6
CONTINUOUS
10
113.106
20
-32.808
11
113.168
21
-32.6913
0
LINE
8
BLACK
6
CONTINUOUS
10
113.168
20
-32.6913
11
113.299
21
-32.5312
0
LINE
8
BLACK
6
CONTINUOUS
10
113.299
20
-32.5312
11
113.459
21
-32.3999
0
LINE
8
BLACK
6
CONTINUOUS
10
113.459
20
-32.3999
11
113.545
21
-32.3541
0
LINE
8
BLACK
6
CONTINUOUS
10
113.545
20
-32.3541
11
113.642
21
-32.3023
0
LINE
8
BLACK
6
CONTINUOUS
10
113.642
20
-32.3023
11
113.642
21
-32.3023
0
LINE
8
BLACK
6
CONTINUOUS
10
113.642
20
-32.3023
11
113.84
21
-32.2422
0
LINE
8
BLACK
6
CONTINUOUS
10
113.84
20
-32.2422
11
114.046
21
-32.2219
0
LINE
8
BLACK
6
CONTINUOUS
10
114.046
20
-32.2219
11
114.252
21
-32.2422
0
LINE
8
BLACK
6
CONTINUOUS
10
116.792
20
-32.2422
11
116.99
21
-32.3023
0
LINE
8
BLACK
6
CONTINUOUS
10
116.99
20
-32.3023
11
116.99
21
-32.3023
0
LINE
8
BLACK
6
CONTINUOUS
10
116.99
20
-32.3023
11
117.056
21
-32.3375
0
LINE
8
BLACK
6
CONTINUOUS
10
117.056
20
-32.3375
11
117.173
21
-32.3999
0
LINE
8
BLACK
6
CONTINUOUS
10
117.173
20
-32.3999
11
117.333
21
-32.5312
0
LINE
8
BLACK
6
CONTINUOUS
10
117.333
20
-32.5312
11
117.464
21
-32.6913
0
LINE
8
BLACK
6
CONTINUOUS
10
117.464
20
-32.6913
11
117.464
21
-32.6913
0
LINE
8
BLACK
6
CONTINUOUS
10
117.464
20
-32.6913
11
117.562
21
-32.8739
0
LINE
8
BLACK
6
CONTINUOUS
10
117.562
20
-32.8739
11
117.562
21
-32.8739
0
LINE
8
BLACK
6
CONTINUOUS
10
117.562
20
-32.8739
11
117.562
21
-32.8739
0
LINE
8
BLACK
6
CONTINUOUS
10
117.562
20
-32.8739
11
117.622
21
-33.072
0
LINE
8
BLACK
6
CONTINUOUS
10
117.622
20
-33.072
11
117.637
21
-33.2264
0
LINE
8
BLACK
6
CONTINUOUS
10
117.637
20
-33.2264
11
117.637
21
-33.8296
0
LINE
8
BLACK
6
CONTINUOUS
10
117.637
20
-33.8296
11
117.622
21
-33.984
0
LINE
8
BLACK
6
CONTINUOUS
10
117.622
20
-33.984
11
117.562
21
-34.1821
0
LINE
8
BLACK
6
CONTINUOUS
10
117.562
20
-34.1821
11
117.562
21
-34.1821
0
LINE
8
BLACK
6
CONTINUOUS
10
117.562
20
-34.1821
11
117.51
21
-34.279
0
LINE
8
BLACK
6
CONTINUOUS
10
117.51
20
-34.279
11
117.464
21
-34.3647
0
LINE
8
BLACK
6
CONTINUOUS
10
117.464
20
-34.3647
11
117.333
21
-34.5248
0
LINE
8
BLACK
6
CONTINUOUS
10
117.333
20
-34.5248
11
117.173
21
-34.6561
0
LINE
8
BLACK
6
CONTINUOUS
10
117.173
20
-34.6561
11
117.087
21
-34.7019
0
LINE
8
BLACK
6
CONTINUOUS
10
117.087
20
-34.7019
11
116.99
21
-34.7537
0
LINE
8
BLACK
6
CONTINUOUS
10
116.99
20
-34.7537
11
116.99
21
-34.7537
0
LINE
8
BLACK
6
CONTINUOUS
10
116.99
20
-34.7537
11
116.792
21
-34.8138
0
LINE
8
BLACK
6
CONTINUOUS
10
116.792
20
-34.8138
11
116.586
21
-34.8341
0
LINE
8
BLACK
6
CONTINUOUS
10
116.586
20
-34.8341
11
116.38
21
-34.8138
0
LINE
8
BLACK
6
CONTINUOUS
10
116.38
20
-34.8138
11
116.182
21
-34.7537
0
LINE
8
BLACK
6
CONTINUOUS
10
116.182
20
-34.7537
11
116.182
21
-34.7537
0
LINE
8
BLACK
6
CONTINUOUS
10
116.182
20
-34.7537
11
116.085
21
-34.7019
0
LINE
8
BLACK
6
CONTINUOUS
10
116.085
20
-34.7019
11
115.999
21
-34.6561
0
LINE
8
BLACK
6
CONTINUOUS
10
115.999
20
-34.6561
11
115.839
21
-34.5248
0
LINE
8
BLACK
6
CONTINUOUS
10
115.839
20
-34.5248
11
115.708
21
-34.3647
0
LINE
8
BLACK
6
CONTINUOUS
10
115.708
20
-34.3647
11
115.61
21
-34.1821
0
LINE
8
BLACK
6
CONTINUOUS
10
115.61
20
-34.1821
11
115.61
21
-34.1821
0
LINE
8
BLACK
6
CONTINUOUS
10
115.61
20
-34.1821
11
115.59
21
-34.1161
0
LINE
8
BLACK
6
CONTINUOUS
10
115.59
20
-34.1161
11
115.55
21
-33.984
0
LINE
8
BLACK
6
CONTINUOUS
10
115.55
20
-33.984
11
115.535
21
-33.8296
0
LINE
8
BLACK
6
CONTINUOUS
10
115.535
20
-33.8296
11
115.535
21
-33.2264
0
LINE
8
BLACK
6
CONTINUOUS
10
115.535
20
-33.2264
11
115.55
21
-33.072
0
LINE
8
BLACK
6
CONTINUOUS
10
115.55
20
-33.072
11
115.61
21
-32.8739
0
LINE
8
BLACK
6
CONTINUOUS
10
115.61
20
-32.8739
11
115.61
21
-32.8739
0
LINE
8
BLACK
6
CONTINUOUS
10
115.61
20
-32.8739
11
115.646
21
-32.808
0
LINE
8
BLACK
6
CONTINUOUS
10
115.646
20
-32.808
11
115.708
21
-32.6913
0
LINE
8
BLACK
6
CONTINUOUS
10
115.708
20
-32.6913
11
115.839
21
-32.5312
0
LINE
8
BLACK
6
CONTINUOUS
10
115.839
20
-32.5312
11
115.999
21
-32.3999
0
LINE
8
BLACK
6
CONTINUOUS
10
115.999
20
-32.3999
11
116.085
21
-32.3541
0
LINE
8
BLACK
6
CONTINUOUS
10
116.085
20
-32.3541
11
116.182
21
-32.3023
0
LINE
8
BLACK
6
CONTINUOUS
10
116.182
20
-32.3023
11
116.182
21
-32.3023
0
LINE
8
BLACK
6
CONTINUOUS
10
116.182
20
-32.3023
11
116.38
21
-32.2422
0
LINE
8
BLACK
6
CONTINUOUS
10
116.38
20
-32.2422
11
116.586
21
-32.2219
0
LINE
8
BLACK
6
CONTINUOUS
10
116.586
20
-32.2219
11
116.792
21
-32.2422
0
LINE
8
BLACK
6
CONTINUOUS
10
119.332
20
-32.2422
11
119.53
21
-32.3023
0
LINE
8
BLACK
6
CONTINUOUS
10
119.53
20
-32.3023
11
119.53
21
-32.3023
0
LINE
8
BLACK
6
CONTINUOUS
10
119.53
20
-32.3023
11
119.596
21
-32.3375
0
LINE
8
BLACK
6
CONTINUOUS
10
119.596
20
-32.3375
11
119.713
21
-32.3999
0
LINE
8
BLACK
6
CONTINUOUS
10
119.713
20
-32.3999
11
119.873
21
-32.5312
0
LINE
8
BLACK
6
CONTINUOUS
10
119.873
20
-32.5312
11
120.004
21
-32.6913
0
LINE
8
BLACK
6
CONTINUOUS
10
120.004
20
-32.6913
11
120.004
21
-32.6913
0
LINE
8
BLACK
6
CONTINUOUS
10
120.004
20
-32.6913
11
120.102
21
-32.8739
0
LINE
8
BLACK
6
CONTINUOUS
10
120.102
20
-32.8739
11
120.102
21
-32.8739
0
LINE
8
BLACK
6
CONTINUOUS
10
120.102
20
-32.8739
11
120.102
21
-32.8739
0
LINE
8
BLACK
6
CONTINUOUS
10
120.102
20
-32.8739
11
120.162
21
-33.072
0
LINE
8
BLACK
6
CONTINUOUS
10
120.162
20
-33.072
11
120.177
21
-33.2264
0
LINE
8
BLACK
6
CONTINUOUS
10
120.177
20
-33.2264
11
120.177
21
-33.8296
0
LINE
8
BLACK
6
CONTINUOUS
10
120.177
20
-33.8296
11
120.162
21
-33.984
0
LINE
8
BLACK
6
CONTINUOUS
10
120.162
20
-33.984
11
120.102
21
-34.1821
0
LINE
8
BLACK
6
CONTINUOUS
10
120.102
20
-34.1821
11
120.102
21
-34.1821
0
LINE
8
BLACK
6
CONTINUOUS
10
120.102
20
-34.1821
11
120.05
21
-34.279
0
LINE
8
BLACK
6
CONTINUOUS
10
120.05
20
-34.279
11
120.004
21
-34.3647
0
LINE
8
BLACK
6
CONTINUOUS
10
120.004
20
-34.3647
11
119.873
21
-34.5248
0
LINE
8
BLACK
6
CONTINUOUS
10
119.873
20
-34.5248
11
119.713
21
-34.6561
0
LINE
8
BLACK
6
CONTINUOUS
10
119.713
20
-34.6561
11
119.627
21
-34.7019
0
LINE
8
BLACK
6
CONTINUOUS
10
119.627
20
-34.7019
11
119.53
21
-34.7537
0
LINE
8
BLACK
6
CONTINUOUS
10
119.53
20
-34.7537
11
119.53
21
-34.7537
0
LINE
8
BLACK
6
CONTINUOUS
10
119.53
20
-34.7537
11
119.332
21
-34.8138
0
LINE
8
BLACK
6
CONTINUOUS
10
119.332
20
-34.8138
11
119.126
21
-34.8341
0
LINE
8
BLACK
6
CONTINUOUS
10
119.126
20
-34.8341
11
118.92
21
-34.8138
0
LINE
8
BLACK
6
CONTINUOUS
10
118.92
20
-34.8138
11
118.722
21
-34.7537
0
LINE
8
BLACK
6
CONTINUOUS
10
118.722
20
-34.7537
11
118.722
21
-34.7537
0
LINE
8
BLACK
6
CONTINUOUS
10
118.722
20
-34.7537
11
118.625
21
-34.7019
0
LINE
8
BLACK
6
CONTINUOUS
10
118.625
20
-34.7019
11
118.539
21
-34.6561
0
LINE
8
BLACK
6
CONTINUOUS
10
118.539
20
-34.6561
11
118.379
21
-34.5248
0
LINE
8
BLACK
6
CONTINUOUS
10
118.379
20
-34.5248
11
118.248
21
-34.3647
0
LINE
8
BLACK
6
CONTINUOUS
10
118.248
20
-34.3647
11
118.15
21
-34.1821
0
LINE
8
BLACK
6
CONTINUOUS
10
118.15
20
-34.1821
11
118.15
21
-34.1821
0
LINE
8
BLACK
6
CONTINUOUS
10
118.15
20
-34.1821
11
118.13
21
-34.1161
0
LINE
8
BLACK
6
CONTINUOUS
10
118.13
20
-34.1161
11
118.09
21
-33.984
0
LINE
8
BLACK
6
CONTINUOUS
10
118.09
20
-33.984
11
118.075
21
-33.8296
0
LINE
8
BLACK
6
CONTINUOUS
10
118.075
20
-33.8296
11
118.075
21
-33.2264
0
LINE
8
BLACK
6
CONTINUOUS
10
118.075
20
-33.2264
11
118.09
21
-33.072
0
LINE
8
BLACK
6
CONTINUOUS
10
118.09
20
-33.072
11
118.15
21
-32.8739
0
LINE
8
BLACK
6
CONTINUOUS
10
118.15
20
-32.8739
11
118.15
21
-32.8739
0
LINE
8
BLACK
6
CONTINUOUS
10
118.15
20
-32.8739
11
118.186
21
-32.808
0
LINE
8
BLACK
6
CONTINUOUS
10
118.186
20
-32.808
11
118.248
21
-32.6913
0
LINE
8
BLACK
6
CONTINUOUS
10
118.248
20
-32.6913
11
118.379
21
-32.5312
0
LINE
8
BLACK
6
CONTINUOUS
10
118.379
20
-32.5312
11
118.539
21
-32.3999
0
LINE
8
BLACK
6
CONTINUOUS
10
118.539
20
-32.3999
11
118.625
21
-32.3541
0
LINE
8
BLACK
6
CONTINUOUS
10
118.625
20
-32.3541
11
118.722
21
-32.3023
0
LINE
8
BLACK
6
CONTINUOUS
10
118.722
20
-32.3023
11
118.722
21
-32.3023
0
LINE
8
BLACK
6
CONTINUOUS
10
118.722
20
-32.3023
11
118.92
21
-32.2422
0
LINE
8
BLACK
6
CONTINUOUS
10
118.92
20
-32.2422
11
119.126
21
-32.2219
0
LINE
8
BLACK
6
CONTINUOUS
10
119.126
20
-32.2219
11
119.332
21
-32.2422
0
LINE
8
BLACK
6
CONTINUOUS
10
132.873
20
-33.309
11
130.271
21
-33.309
0
LINE
8
BLACK
6
CONTINUOUS
10
130.271
20
-33.309
11
130.271
21
-31.207
0
LINE
8
BLACK
6
CONTINUOUS
10
130.271
20
-31.207
11
132.873
21
-31.207
0
LINE
8
BLACK
6
CONTINUOUS
10
132.873
20
-31.207
11
132.873
21
-33.309
0
LINE
8
BLACK
6
CONTINUOUS
10
88.165
20
-33.055
11
85.063
21
-33.055
0
LINE
8
BLACK
6
CONTINUOUS
10
85.063
20
-33.055
11
85.063
21
-30.953
0
LINE
8
BLACK
6
CONTINUOUS
10
85.063
20
-30.953
11
88.165
21
-30.953
0
LINE
8
BLACK
6
CONTINUOUS
10
88.165
20
-30.953
11
88.165
21
-33.055
0
LINE
8
BLACK
6
CONTINUOUS
10
95.785
20
-33.055
11
92.683
21
-33.055
0
LINE
8
BLACK
6
CONTINUOUS
10
92.683
20
-33.055
11
92.683
21
-30.953
0
LINE
8
BLACK
6
CONTINUOUS
10
92.683
20
-30.953
11
95.785
21
-30.953
0
LINE
8
BLACK
6
CONTINUOUS
10
95.785
20
-30.953
11
95.785
21
-33.055
  0
ENDSEC
  0
EOF
