  0
SECTION
  2
HEADER
  9
$ANGBASE
  50
0.0
  9
$ANGDIR
  70
  1
  9
$MEASUREMENT
  70
0
  0
ENDSEC
  0
SECTION
  2
TABLES
  0
TABLE
  2
LTYPE
  70
4
  0
LTYPE
  5
40F
  2
CONTINUOUS
  70
0
  3
Solid line
  72
65
  73
0
  40
0.0
  0
LTYPE
  5
410
  2
DASHDOT
 70
0
  3
Dash Dot ____ _ ____ _
 72
65
 73
4
 40
2.0
 49
1.25
 49
-0.25
 49
0.25
 49
-0.25
  0
LTYPE
  5
411
  2
DASHED
 70
0
  3
Dashed __ __ __ __ __
 72
65
 73
2
 40
0.75
 49
0.5
 49
-0.25
  0
LTYPE
  5
43B
  2
DOTTED
 70
0
  3
Dotted .  .  .  .
 72
65
 73
2
 40
0.2
 49
0.0
 49
-0.2
  0
ENDTAB
  0
TABLE
  2
STYLE
  70
4
  0
STYLE
  2
KICAD
  70
0
  40
0
  41
1
  42
1
  50
0
  71
0
  3
isocp.shx
  0
STYLE
  2
KICADB
  70
0
  40
0
  41
1
  42
1
  50
0
  71
0
  3
isocp.shx
  0
STYLE
  2
KICADI
  70
0
  40
0
  41
1
  42
1
  50
15
  71
0
  3
isocp.shx
  0
STYLE
  2
KICADBI
  70
0
  40
0
  41
1
  42
1
  50
15
  71
0
  3
isocp.shx
  0
ENDTAB
  0
TABLE
  2
LAYER
  70
30
  0
LAYER
  2
BLACK
  70
0
  62
7
  6
CONTINUOUS
  0
LAYER
  2
GRAY1
  70
0
  62
251
  6
CONTINUOUS
  0
LAYER
  2
GRAY2
  70
0
  62
8
  6
CONTINUOUS
  0
LAYER
  2
GRAY3
  70
0
  62
9
  6
CONTINUOUS
  0
LAYER
  2
WHITE
  70
0
  62
7
  6
CONTINUOUS
  0
LAYER
  2
LYELLOW
  70
0
  62
51
  6
CONTINUOUS
  0
LAYER
  2
BLUE1
  70
0
  62
178
  6
CONTINUOUS
  0
LAYER
  2
GREEN1
  70
0
  62
98
  6
CONTINUOUS
  0
LAYER
  2
CYAN1
  70
0
  62
138
  6
CONTINUOUS
  0
LAYER
  2
RED1
  70
0
  62
18
  6
CONTINUOUS
  0
LAYER
  2
MAGENTA1
  70
0
  62
228
  6
CONTINUOUS
  0
LAYER
  2
BROWN1
  70
0
  62
58
  6
CONTINUOUS
  0
LAYER
  2
BLUE2
  70
0
  62
5
  6
CONTINUOUS
  0
LAYER
  2
GREEN2
  70
0
  62
3
  6
CONTINUOUS
  0
LAYER
  2
CYAN2
  70
0
  62
4
  6
CONTINUOUS
  0
LAYER
  2
RED2
  70
0
  62
1
  6
CONTINUOUS
  0
LAYER
  2
MAGENTA2
  70
0
  62
6
  6
CONTINUOUS
  0
LAYER
  2
BROWN2
  70
0
  62
54
  6
CONTINUOUS
  0
LAYER
  2
BLUE3
  70
0
  62
171
  6
CONTINUOUS
  0
LAYER
  2
GREEN3
  70
0
  62
91
  6
CONTINUOUS
  0
LAYER
  2
CYAN3
  70
0
  62
131
  6
CONTINUOUS
  0
LAYER
  2
RED3
  70
0
  62
11
  6
CONTINUOUS
  0
LAYER
  2
MAGENTA3
  70
0
  62
221
  6
CONTINUOUS
  0
LAYER
  2
YELLOW3
  70
0
  62
2
  6
CONTINUOUS
  0
LAYER
  2
BLUE4
  70
0
  62
5
  6
CONTINUOUS
  0
LAYER
  2
GREEN4
  70
0
  62
3
  6
CONTINUOUS
  0
LAYER
  2
CYAN4
  70
0
  62
4
  6
CONTINUOUS
  0
LAYER
  2
RED4
  70
0
  62
1
  6
CONTINUOUS
  0
LAYER
  2
MAGENTA4
  70
0
  62
6
  6
CONTINUOUS
  0
LAYER
  2
YELLOW4
  70
0
  62
2
  6
CONTINUOUS
  0
ENDTAB
  0
ENDSEC
  0
SECTION
  2
ENTITIES
0
LINE
8
BLACK
6
CONTINUOUS
10
140.233
20
-94.488
11
140.233
21
-94.4929
0
LINE
8
BLACK
6
CONTINUOUS
10
140.233
20
-94.4929
11
140.231
21
-94.4976
0
LINE
8
BLACK
6
CONTINUOUS
10
140.231
20
-94.4976
11
140.229
21
-94.502
0
LINE
8
BLACK
6
CONTINUOUS
10
140.229
20
-94.502
11
140.226
21
-94.5058
0
LINE
8
BLACK
6
CONTINUOUS
10
140.226
20
-94.5058
11
140.222
21
-94.5089
0
LINE
8
BLACK
6
CONTINUOUS
10
140.222
20
-94.5089
11
140.218
21
-94.5112
0
LINE
8
BLACK
6
CONTINUOUS
10
140.218
20
-94.5112
11
140.213
21
-94.5126
0
LINE
8
BLACK
6
CONTINUOUS
10
140.213
20
-94.5126
11
140.209
21
-94.513
0
LINE
8
BLACK
6
CONTINUOUS
10
140.209
20
-94.513
11
140.209
21
-94.513
0
LINE
8
BLACK
6
CONTINUOUS
10
140.209
20
-94.513
11
140.208
21
-94.5131
0
LINE
8
BLACK
6
CONTINUOUS
10
140.208
20
-94.5131
11
140.207
21
-94.513
0
LINE
8
BLACK
6
CONTINUOUS
10
140.207
20
-94.513
11
79.2492
21
-94.513
0
LINE
8
BLACK
6
CONTINUOUS
10
79.2492
20
-94.513
11
79.248
21
-94.5131
0
LINE
8
BLACK
6
CONTINUOUS
10
79.248
20
-94.5131
11
79.2468
21
-94.513
0
LINE
8
BLACK
6
CONTINUOUS
10
79.2468
20
-94.513
11
79.2468
21
-94.513
0
LINE
8
BLACK
6
CONTINUOUS
10
79.2468
20
-94.513
11
79.2431
21
-94.5126
0
LINE
8
BLACK
6
CONTINUOUS
10
79.2431
20
-94.5126
11
79.2384
21
-94.5112
0
LINE
8
BLACK
6
CONTINUOUS
10
79.2384
20
-94.5112
11
79.234
21
-94.5089
0
LINE
8
BLACK
6
CONTINUOUS
10
79.234
20
-94.5089
11
79.2302
21
-94.5058
0
LINE
8
BLACK
6
CONTINUOUS
10
79.2302
20
-94.5058
11
79.2271
21
-94.502
0
LINE
8
BLACK
6
CONTINUOUS
10
79.2271
20
-94.502
11
79.2248
21
-94.4976
0
LINE
8
BLACK
6
CONTINUOUS
10
79.2248
20
-94.4976
11
79.2234
21
-94.4929
0
LINE
8
BLACK
6
CONTINUOUS
10
79.2234
20
-94.4929
11
79.2229
21
-94.488
0
LINE
8
BLACK
6
CONTINUOUS
10
79.2229
20
-94.488
11
79.223
21
-94.4868
0
LINE
8
BLACK
6
CONTINUOUS
10
79.223
20
-94.4868
11
79.223
21
-17.5272
0
LINE
8
BLACK
6
CONTINUOUS
10
79.223
20
-17.5272
11
79.2229
21
-17.526
0
LINE
8
BLACK
6
CONTINUOUS
10
79.2229
20
-17.526
11
79.2234
21
-17.5211
0
LINE
8
BLACK
6
CONTINUOUS
10
79.2234
20
-17.5211
11
79.2248
21
-17.5164
0
LINE
8
BLACK
6
CONTINUOUS
10
79.2248
20
-17.5164
11
79.2271
21
-17.512
0
LINE
8
BLACK
6
CONTINUOUS
10
79.2271
20
-17.512
11
79.2302
21
-17.5082
0
LINE
8
BLACK
6
CONTINUOUS
10
79.2302
20
-17.5082
11
79.234
21
-17.5051
0
LINE
8
BLACK
6
CONTINUOUS
10
79.234
20
-17.5051
11
79.2384
21
-17.5028
0
LINE
8
BLACK
6
CONTINUOUS
10
79.2384
20
-17.5028
11
79.2431
21
-17.5014
0
LINE
8
BLACK
6
CONTINUOUS
10
79.2431
20
-17.5014
11
79.2468
21
-17.501
0
LINE
8
BLACK
6
CONTINUOUS
10
79.2468
20
-17.501
11
79.248
21
-17.5009
0
LINE
8
BLACK
6
CONTINUOUS
10
79.248
20
-17.5009
11
79.2492
21
-17.501
0
LINE
8
BLACK
6
CONTINUOUS
10
79.2492
20
-17.501
11
140.207
21
-17.501
0
LINE
8
BLACK
6
CONTINUOUS
10
140.207
20
-17.501
11
140.208
21
-17.5009
0
LINE
8
BLACK
6
CONTINUOUS
10
140.208
20
-17.5009
11
140.209
21
-17.501
0
LINE
8
BLACK
6
CONTINUOUS
10
140.209
20
-17.501
11
140.213
21
-17.5014
0
LINE
8
BLACK
6
CONTINUOUS
10
140.213
20
-17.5014
11
140.218
21
-17.5028
0
LINE
8
BLACK
6
CONTINUOUS
10
140.218
20
-17.5028
11
140.222
21
-17.5051
0
LINE
8
BLACK
6
CONTINUOUS
10
140.222
20
-17.5051
11
140.226
21
-17.5082
0
LINE
8
BLACK
6
CONTINUOUS
10
140.226
20
-17.5082
11
140.229
21
-17.512
0
LINE
8
BLACK
6
CONTINUOUS
10
140.229
20
-17.512
11
140.231
21
-17.5164
0
LINE
8
BLACK
6
CONTINUOUS
10
140.231
20
-17.5164
11
140.233
21
-17.5211
0
LINE
8
BLACK
6
CONTINUOUS
10
140.233
20
-17.5211
11
140.233
21
-17.526
0
LINE
8
BLACK
6
CONTINUOUS
10
140.233
20
-17.526
11
140.233
21
-17.5272
0
LINE
8
BLACK
6
CONTINUOUS
10
140.233
20
-17.5272
11
140.233
21
-94.4868
0
LINE
8
BLACK
6
CONTINUOUS
10
140.233
20
-94.4868
11
140.233
21
-94.488
0
LINE
8
BLACK
6
CONTINUOUS
10
79.273
20
-17.551
11
79.273
21
-94.463
0
LINE
8
BLACK
6
CONTINUOUS
10
79.273
20
-94.463
11
140.183
21
-94.463
0
LINE
8
BLACK
6
CONTINUOUS
10
140.183
20
-94.463
11
140.183
21
-18.5432
0
LINE
8
BLACK
6
CONTINUOUS
10
140.183
20
-18.5432
11
140.183
21
-18.5432
0
LINE
8
BLACK
6
CONTINUOUS
10
140.183
20
-18.5432
11
140.183
21
-17.7812
0
LINE
8
BLACK
6
CONTINUOUS
10
140.183
20
-17.7812
11
140.183
21
-17.7812
0
LINE
8
BLACK
6
CONTINUOUS
10
140.183
20
-17.7812
11
140.183
21
-17.551
0
LINE
8
BLACK
6
CONTINUOUS
10
140.183
20
-17.551
11
79.273
21
-17.551
  0
ENDSEC
  0
EOF
