M48
; DRILL file {KiCad (5.1.2)-2} date 5/1/2020 4:22:13 PM
; FORMAT={2:4/ absolute / inch / suppress leading zeros}
; #@! TF.CreationDate,2020-05-01T16:22:13+07:00
; #@! TF.GenerationSoftware,Kicad,Pcbnew,(5.1.2)-2
FMAT,2
INCH,TZ
T1C0.0315
T2C0.0354
T3C0.0394
T4C0.0472
T5C0.0551
T6C0.0598
T7C0.0787
%
G90
G05
T1
X38600Y-18000
X38600Y-19900
X45700Y-19500
X46000Y-22700
X48000Y-23000
X48300Y-13600
X48600Y-21300
X48700Y-16500
X40300Y-31600
X41284Y-31600
X44300Y-31600
X45284Y-31600
X46216Y-31600
X47200Y-31600
X38316Y-31600
X39300Y-31600
X42316Y-31600
X43300Y-31600
T2
X34100Y-32200
X34100Y-33200
T3
X34100Y-12600
X34100Y-13600
X34100Y-14600
X34100Y-15600
X51800Y-12700
X51800Y-13700
X51800Y-14700
X51800Y-15700
X42500Y-17400
X43500Y-17400
X44500Y-17400
X45500Y-17400
X37100Y-12600
X37100Y-13600
X37100Y-14600
X37100Y-15600
X40400Y-15200
X40900Y-13200
X41400Y-15200
X41900Y-13200
X42400Y-15200
X42900Y-13200
X43400Y-15200
X43900Y-13200
X44400Y-15200
X44900Y-13200
X45400Y-15200
X45900Y-13200
X46400Y-15200
X46900Y-13200
X47400Y-15200
X51800Y-23400
X51800Y-24400
X51800Y-25400
X51800Y-26400
X51800Y-27400
X51800Y-28400
X40000Y-34000
X41000Y-34000
X42000Y-34000
X43000Y-34000
X34000Y-23600
X34000Y-24600
X34000Y-25600
X34000Y-26600
X34000Y-27600
X34000Y-28600
T4
X35781Y-28197
X41781Y-28197
X43800Y-28200
X49800Y-28200
X43836Y-25385
X49836Y-25385
X35700Y-19900
X41700Y-19900
X43836Y-19959
X49836Y-19959
X43836Y-22672
X49836Y-22672
X35781Y-22772
X41781Y-22772
X35781Y-25485
X41781Y-25485
T5
X36500Y-31600
X36500Y-33600
T6
X49700Y-31900
X51700Y-31900
T7
X32400Y-35400
X32800Y-8700
X53900Y-8800
X53900Y-35100
T0
M30
