  0
SECTION
  2
HEADER
  9
$ANGBASE
  50
0.0
  9
$ANGDIR
  70
  1
  9
$MEASUREMENT
  70
0
  0
ENDSEC
  0
SECTION
  2
TABLES
  0
TABLE
  2
LTYPE
  70
4
  0
LTYPE
  5
40F
  2
CONTINUOUS
  70
0
  3
Solid line
  72
65
  73
0
  40
0.0
  0
LTYPE
  5
410
  2
DASHDOT
 70
0
  3
Dash Dot ____ _ ____ _
 72
65
 73
4
 40
2.0
 49
1.25
 49
-0.25
 49
0.25
 49
-0.25
  0
LTYPE
  5
411
  2
DASHED
 70
0
  3
Dashed __ __ __ __ __
 72
65
 73
2
 40
0.75
 49
0.5
 49
-0.25
  0
LTYPE
  5
43B
  2
DOTTED
 70
0
  3
Dotted .  .  .  .
 72
65
 73
2
 40
0.2
 49
0.0
 49
-0.2
  0
ENDTAB
  0
TABLE
  2
STYLE
  70
4
  0
STYLE
  2
KICAD
  70
0
  40
0
  41
1
  42
1
  50
0
  71
0
  3
isocp.shx
  0
STYLE
  2
KICADB
  70
0
  40
0
  41
1
  42
1
  50
0
  71
0
  3
isocp.shx
  0
STYLE
  2
KICADI
  70
0
  40
0
  41
1
  42
1
  50
15
  71
0
  3
isocp.shx
  0
STYLE
  2
KICADBI
  70
0
  40
0
  41
1
  42
1
  50
15
  71
0
  3
isocp.shx
  0
ENDTAB
  0
TABLE
  2
LAYER
  70
30
  0
LAYER
  2
BLACK
  70
0
  62
7
  6
CONTINUOUS
  0
LAYER
  2
GRAY1
  70
0
  62
251
  6
CONTINUOUS
  0
LAYER
  2
GRAY2
  70
0
  62
8
  6
CONTINUOUS
  0
LAYER
  2
GRAY3
  70
0
  62
9
  6
CONTINUOUS
  0
LAYER
  2
WHITE
  70
0
  62
7
  6
CONTINUOUS
  0
LAYER
  2
LYELLOW
  70
0
  62
51
  6
CONTINUOUS
  0
LAYER
  2
BLUE1
  70
0
  62
178
  6
CONTINUOUS
  0
LAYER
  2
GREEN1
  70
0
  62
98
  6
CONTINUOUS
  0
LAYER
  2
CYAN1
  70
0
  62
138
  6
CONTINUOUS
  0
LAYER
  2
RED1
  70
0
  62
18
  6
CONTINUOUS
  0
LAYER
  2
MAGENTA1
  70
0
  62
228
  6
CONTINUOUS
  0
LAYER
  2
BROWN1
  70
0
  62
58
  6
CONTINUOUS
  0
LAYER
  2
BLUE2
  70
0
  62
5
  6
CONTINUOUS
  0
LAYER
  2
GREEN2
  70
0
  62
3
  6
CONTINUOUS
  0
LAYER
  2
CYAN2
  70
0
  62
4
  6
CONTINUOUS
  0
LAYER
  2
RED2
  70
0
  62
1
  6
CONTINUOUS
  0
LAYER
  2
MAGENTA2
  70
0
  62
6
  6
CONTINUOUS
  0
LAYER
  2
BROWN2
  70
0
  62
54
  6
CONTINUOUS
  0
LAYER
  2
BLUE3
  70
0
  62
171
  6
CONTINUOUS
  0
LAYER
  2
GREEN3
  70
0
  62
91
  6
CONTINUOUS
  0
LAYER
  2
CYAN3
  70
0
  62
131
  6
CONTINUOUS
  0
LAYER
  2
RED3
  70
0
  62
11
  6
CONTINUOUS
  0
LAYER
  2
MAGENTA3
  70
0
  62
221
  6
CONTINUOUS
  0
LAYER
  2
YELLOW3
  70
0
  62
2
  6
CONTINUOUS
  0
LAYER
  2
BLUE4
  70
0
  62
5
  6
CONTINUOUS
  0
LAYER
  2
GREEN4
  70
0
  62
3
  6
CONTINUOUS
  0
LAYER
  2
CYAN4
  70
0
  62
4
  6
CONTINUOUS
  0
LAYER
  2
RED4
  70
0
  62
1
  6
CONTINUOUS
  0
LAYER
  2
MAGENTA4
  70
0
  62
6
  6
CONTINUOUS
  0
LAYER
  2
YELLOW4
  70
0
  62
2
  6
CONTINUOUS
  0
ENDTAB
  0
ENDSEC
  0
SECTION
  2
ENTITIES
0
LINE
8
BLACK
6
CONTINUOUS
10
102.425
20
-66.428
11
102.425
21
-66.428
0
LINE
8
BLACK
6
CONTINUOUS
10
102.425
20
-66.428
11
102.434
21
-66.4289
0
LINE
8
BLACK
6
CONTINUOUS
10
102.434
20
-66.4289
11
102.445
21
-66.4323
0
LINE
8
BLACK
6
CONTINUOUS
10
102.445
20
-66.4323
11
102.455
21
-66.4379
0
LINE
8
BLACK
6
CONTINUOUS
10
102.455
20
-66.4379
11
102.465
21
-66.4454
0
LINE
8
BLACK
6
CONTINUOUS
10
102.465
20
-66.4454
11
102.472
21
-66.4545
0
LINE
8
BLACK
6
CONTINUOUS
10
102.472
20
-66.4545
11
102.478
21
-66.4649
0
LINE
8
BLACK
6
CONTINUOUS
10
102.478
20
-66.4649
11
102.481
21
-66.4762
0
LINE
8
BLACK
6
CONTINUOUS
10
102.481
20
-66.4762
11
102.482
21
-66.488
0
LINE
8
BLACK
6
CONTINUOUS
10
102.482
20
-66.488
11
102.482
21
-66.4909
0
LINE
8
BLACK
6
CONTINUOUS
10
102.482
20
-66.4909
11
102.482
21
-130.105
0
LINE
8
BLACK
6
CONTINUOUS
10
102.482
20
-130.105
11
102.482
21
-130.108
0
LINE
8
BLACK
6
CONTINUOUS
10
102.482
20
-130.108
11
102.482
21
-130.111
0
LINE
8
BLACK
6
CONTINUOUS
10
102.482
20
-130.111
11
102.481
21
-130.12
0
LINE
8
BLACK
6
CONTINUOUS
10
102.481
20
-130.12
11
102.478
21
-130.131
0
LINE
8
BLACK
6
CONTINUOUS
10
102.478
20
-130.131
11
102.472
21
-130.141
0
LINE
8
BLACK
6
CONTINUOUS
10
102.472
20
-130.141
11
102.465
21
-130.151
0
LINE
8
BLACK
6
CONTINUOUS
10
102.465
20
-130.151
11
102.455
21
-130.158
0
LINE
8
BLACK
6
CONTINUOUS
10
102.455
20
-130.158
11
102.445
21
-130.164
0
LINE
8
BLACK
6
CONTINUOUS
10
102.445
20
-130.164
11
102.434
21
-130.167
0
LINE
8
BLACK
6
CONTINUOUS
10
102.434
20
-130.167
11
102.422
21
-130.168
0
LINE
8
BLACK
6
CONTINUOUS
10
102.422
20
-130.168
11
102.419
21
-130.168
0
LINE
8
BLACK
6
CONTINUOUS
10
102.419
20
-130.168
11
97.2249
21
-130.168
0
LINE
8
BLACK
6
CONTINUOUS
10
97.2249
20
-130.168
11
97.222
21
-130.168
0
LINE
8
BLACK
6
CONTINUOUS
10
97.222
20
-130.168
11
97.2191
21
-130.168
0
LINE
8
BLACK
6
CONTINUOUS
10
97.2191
20
-130.168
11
97.2191
21
-130.168
0
LINE
8
BLACK
6
CONTINUOUS
10
97.2191
20
-130.168
11
97.2102
21
-130.167
0
LINE
8
BLACK
6
CONTINUOUS
10
97.2102
20
-130.167
11
97.1989
21
-130.164
0
LINE
8
BLACK
6
CONTINUOUS
10
97.1989
20
-130.164
11
97.1885
21
-130.158
0
LINE
8
BLACK
6
CONTINUOUS
10
97.1885
20
-130.158
11
97.1794
21
-130.151
0
LINE
8
BLACK
6
CONTINUOUS
10
97.1794
20
-130.151
11
97.1719
21
-130.141
0
LINE
8
BLACK
6
CONTINUOUS
10
97.1719
20
-130.141
11
97.1663
21
-130.131
0
LINE
8
BLACK
6
CONTINUOUS
10
97.1663
20
-130.131
11
97.1629
21
-130.12
0
LINE
8
BLACK
6
CONTINUOUS
10
97.1629
20
-130.12
11
97.1617
21
-130.108
0
LINE
8
BLACK
6
CONTINUOUS
10
97.1617
20
-130.108
11
97.162
21
-130.105
0
LINE
8
BLACK
6
CONTINUOUS
10
97.162
20
-130.105
11
97.162
21
-69.0909
0
LINE
8
BLACK
6
CONTINUOUS
10
97.162
20
-69.0909
11
97.1617
21
-69.088
0
LINE
8
BLACK
6
CONTINUOUS
10
97.1617
20
-69.088
11
97.1629
21
-69.0762
0
LINE
8
BLACK
6
CONTINUOUS
10
97.1629
20
-69.0762
11
97.1663
21
-69.0649
0
LINE
8
BLACK
6
CONTINUOUS
10
97.1663
20
-69.0649
11
97.1719
21
-69.0545
0
LINE
8
BLACK
6
CONTINUOUS
10
97.1719
20
-69.0545
11
97.1794
21
-69.0454
0
LINE
8
BLACK
6
CONTINUOUS
10
97.1794
20
-69.0454
11
97.1885
21
-69.0379
0
LINE
8
BLACK
6
CONTINUOUS
10
97.1885
20
-69.0379
11
97.1989
21
-69.0323
0
LINE
8
BLACK
6
CONTINUOUS
10
97.1989
20
-69.0323
11
97.2102
21
-69.0289
0
LINE
8
BLACK
6
CONTINUOUS
10
97.2102
20
-69.0289
11
97.2191
21
-69.028
0
LINE
8
BLACK
6
CONTINUOUS
10
97.2191
20
-69.028
11
97.222
21
-69.0277
0
LINE
8
BLACK
6
CONTINUOUS
10
97.222
20
-69.0277
11
97.2249
21
-69.028
0
LINE
8
BLACK
6
CONTINUOUS
10
97.2249
20
-69.028
11
99.762
21
-69.028
0
LINE
8
BLACK
6
CONTINUOUS
10
99.762
20
-69.028
11
99.762
21
-66.4909
0
LINE
8
BLACK
6
CONTINUOUS
10
99.762
20
-66.4909
11
99.7617
21
-66.488
0
LINE
8
BLACK
6
CONTINUOUS
10
99.7617
20
-66.488
11
99.7629
21
-66.4762
0
LINE
8
BLACK
6
CONTINUOUS
10
99.7629
20
-66.4762
11
99.7663
21
-66.4649
0
LINE
8
BLACK
6
CONTINUOUS
10
99.7663
20
-66.4649
11
99.7719
21
-66.4545
0
LINE
8
BLACK
6
CONTINUOUS
10
99.7719
20
-66.4545
11
99.7794
21
-66.4454
0
LINE
8
BLACK
6
CONTINUOUS
10
99.7794
20
-66.4454
11
99.7885
21
-66.4379
0
LINE
8
BLACK
6
CONTINUOUS
10
99.7885
20
-66.4379
11
99.7989
21
-66.4323
0
LINE
8
BLACK
6
CONTINUOUS
10
99.7989
20
-66.4323
11
99.8102
21
-66.4289
0
LINE
8
BLACK
6
CONTINUOUS
10
99.8102
20
-66.4289
11
99.8191
21
-66.428
0
LINE
8
BLACK
6
CONTINUOUS
10
99.8191
20
-66.428
11
99.822
21
-66.4277
0
LINE
8
BLACK
6
CONTINUOUS
10
99.822
20
-66.4277
11
99.8249
21
-66.428
0
LINE
8
BLACK
6
CONTINUOUS
10
99.8249
20
-66.428
11
102.419
21
-66.428
0
LINE
8
BLACK
6
CONTINUOUS
10
102.419
20
-66.428
11
102.422
21
-66.4277
0
LINE
8
BLACK
6
CONTINUOUS
10
102.422
20
-66.4277
11
102.425
21
-66.428
0
LINE
8
BLACK
6
CONTINUOUS
10
99.882
20
-66.548
11
99.882
21
-69.0851
0
LINE
8
BLACK
6
CONTINUOUS
10
99.882
20
-69.0851
11
99.8823
21
-69.088
0
LINE
8
BLACK
6
CONTINUOUS
10
99.8823
20
-69.088
11
99.882
21
-69.0909
0
LINE
8
BLACK
6
CONTINUOUS
10
99.882
20
-69.0909
11
99.8811
21
-69.0998
0
LINE
8
BLACK
6
CONTINUOUS
10
99.8811
20
-69.0998
11
99.8777
21
-69.1111
0
LINE
8
BLACK
6
CONTINUOUS
10
99.8777
20
-69.1111
11
99.8721
21
-69.1215
0
LINE
8
BLACK
6
CONTINUOUS
10
99.8721
20
-69.1215
11
99.8646
21
-69.1306
0
LINE
8
BLACK
6
CONTINUOUS
10
99.8646
20
-69.1306
11
99.8555
21
-69.1381
0
LINE
8
BLACK
6
CONTINUOUS
10
99.8555
20
-69.1381
11
99.8451
21
-69.1437
0
LINE
8
BLACK
6
CONTINUOUS
10
99.8451
20
-69.1437
11
99.8338
21
-69.1471
0
LINE
8
BLACK
6
CONTINUOUS
10
99.8338
20
-69.1471
11
99.822
21
-69.1483
0
LINE
8
BLACK
6
CONTINUOUS
10
99.822
20
-69.1483
11
99.8191
21
-69.148
0
LINE
8
BLACK
6
CONTINUOUS
10
99.8191
20
-69.148
11
97.282
21
-69.148
0
LINE
8
BLACK
6
CONTINUOUS
10
97.282
20
-69.148
11
97.282
21
-130.048
0
LINE
8
BLACK
6
CONTINUOUS
10
97.282
20
-130.048
11
102.362
21
-130.048
0
LINE
8
BLACK
6
CONTINUOUS
10
102.362
20
-130.048
11
102.362
21
-66.548
0
LINE
8
BLACK
6
CONTINUOUS
10
102.362
20
-66.548
11
99.882
21
-66.548
0
LINE
8
BLACK
6
CONTINUOUS
10
153.225
20
-65.92
11
153.225
21
-65.92
0
LINE
8
BLACK
6
CONTINUOUS
10
153.225
20
-65.92
11
153.234
21
-65.9209
0
LINE
8
BLACK
6
CONTINUOUS
10
153.234
20
-65.9209
11
153.245
21
-65.9243
0
LINE
8
BLACK
6
CONTINUOUS
10
153.245
20
-65.9243
11
153.255
21
-65.9299
0
LINE
8
BLACK
6
CONTINUOUS
10
153.255
20
-65.9299
11
153.265
21
-65.9374
0
LINE
8
BLACK
6
CONTINUOUS
10
153.265
20
-65.9374
11
153.272
21
-65.9465
0
LINE
8
BLACK
6
CONTINUOUS
10
153.272
20
-65.9465
11
153.278
21
-65.9569
0
LINE
8
BLACK
6
CONTINUOUS
10
153.278
20
-65.9569
11
153.281
21
-65.9682
0
LINE
8
BLACK
6
CONTINUOUS
10
153.281
20
-65.9682
11
153.282
21
-65.98
0
LINE
8
BLACK
6
CONTINUOUS
10
153.282
20
-65.98
11
153.282
21
-65.9829
0
LINE
8
BLACK
6
CONTINUOUS
10
153.282
20
-65.9829
11
153.282
21
-129.597
0
LINE
8
BLACK
6
CONTINUOUS
10
153.282
20
-129.597
11
153.282
21
-129.6
0
LINE
8
BLACK
6
CONTINUOUS
10
153.282
20
-129.6
11
153.282
21
-129.603
0
LINE
8
BLACK
6
CONTINUOUS
10
153.282
20
-129.603
11
153.281
21
-129.612
0
LINE
8
BLACK
6
CONTINUOUS
10
153.281
20
-129.612
11
153.278
21
-129.623
0
LINE
8
BLACK
6
CONTINUOUS
10
153.278
20
-129.623
11
153.272
21
-129.633
0
LINE
8
BLACK
6
CONTINUOUS
10
153.272
20
-129.633
11
153.265
21
-129.643
0
LINE
8
BLACK
6
CONTINUOUS
10
153.265
20
-129.643
11
153.255
21
-129.65
0
LINE
8
BLACK
6
CONTINUOUS
10
153.255
20
-129.65
11
153.245
21
-129.656
0
LINE
8
BLACK
6
CONTINUOUS
10
153.245
20
-129.656
11
153.234
21
-129.659
0
LINE
8
BLACK
6
CONTINUOUS
10
153.234
20
-129.659
11
153.222
21
-129.66
0
LINE
8
BLACK
6
CONTINUOUS
10
153.222
20
-129.66
11
153.219
21
-129.66
0
LINE
8
BLACK
6
CONTINUOUS
10
153.219
20
-129.66
11
148.025
21
-129.66
0
LINE
8
BLACK
6
CONTINUOUS
10
148.025
20
-129.66
11
148.022
21
-129.66
0
LINE
8
BLACK
6
CONTINUOUS
10
148.022
20
-129.66
11
148.019
21
-129.66
0
LINE
8
BLACK
6
CONTINUOUS
10
148.019
20
-129.66
11
148.019
21
-129.66
0
LINE
8
BLACK
6
CONTINUOUS
10
148.019
20
-129.66
11
148.01
21
-129.659
0
LINE
8
BLACK
6
CONTINUOUS
10
148.01
20
-129.659
11
147.999
21
-129.656
0
LINE
8
BLACK
6
CONTINUOUS
10
147.999
20
-129.656
11
147.989
21
-129.65
0
LINE
8
BLACK
6
CONTINUOUS
10
147.989
20
-129.65
11
147.979
21
-129.643
0
LINE
8
BLACK
6
CONTINUOUS
10
147.979
20
-129.643
11
147.972
21
-129.633
0
LINE
8
BLACK
6
CONTINUOUS
10
147.972
20
-129.633
11
147.966
21
-129.623
0
LINE
8
BLACK
6
CONTINUOUS
10
147.966
20
-129.623
11
147.963
21
-129.612
0
LINE
8
BLACK
6
CONTINUOUS
10
147.963
20
-129.612
11
147.962
21
-129.6
0
LINE
8
BLACK
6
CONTINUOUS
10
147.962
20
-129.6
11
147.962
21
-129.597
0
LINE
8
BLACK
6
CONTINUOUS
10
147.962
20
-129.597
11
147.962
21
-68.5829
0
LINE
8
BLACK
6
CONTINUOUS
10
147.962
20
-68.5829
11
147.962
21
-68.58
0
LINE
8
BLACK
6
CONTINUOUS
10
147.962
20
-68.58
11
147.963
21
-68.5682
0
LINE
8
BLACK
6
CONTINUOUS
10
147.963
20
-68.5682
11
147.966
21
-68.5569
0
LINE
8
BLACK
6
CONTINUOUS
10
147.966
20
-68.5569
11
147.972
21
-68.5465
0
LINE
8
BLACK
6
CONTINUOUS
10
147.972
20
-68.5465
11
147.979
21
-68.5374
0
LINE
8
BLACK
6
CONTINUOUS
10
147.979
20
-68.5374
11
147.989
21
-68.5299
0
LINE
8
BLACK
6
CONTINUOUS
10
147.989
20
-68.5299
11
147.999
21
-68.5243
0
LINE
8
BLACK
6
CONTINUOUS
10
147.999
20
-68.5243
11
148.01
21
-68.5209
0
LINE
8
BLACK
6
CONTINUOUS
10
148.01
20
-68.5209
11
148.019
21
-68.52
0
LINE
8
BLACK
6
CONTINUOUS
10
148.019
20
-68.52
11
148.022
21
-68.5197
0
LINE
8
BLACK
6
CONTINUOUS
10
148.022
20
-68.5197
11
148.025
21
-68.52
0
LINE
8
BLACK
6
CONTINUOUS
10
148.025
20
-68.52
11
150.562
21
-68.52
0
LINE
8
BLACK
6
CONTINUOUS
10
150.562
20
-68.52
11
150.562
21
-65.9829
0
LINE
8
BLACK
6
CONTINUOUS
10
150.562
20
-65.9829
11
150.562
21
-65.98
0
LINE
8
BLACK
6
CONTINUOUS
10
150.562
20
-65.98
11
150.563
21
-65.9682
0
LINE
8
BLACK
6
CONTINUOUS
10
150.563
20
-65.9682
11
150.566
21
-65.9569
0
LINE
8
BLACK
6
CONTINUOUS
10
150.566
20
-65.9569
11
150.572
21
-65.9465
0
LINE
8
BLACK
6
CONTINUOUS
10
150.572
20
-65.9465
11
150.579
21
-65.9374
0
LINE
8
BLACK
6
CONTINUOUS
10
150.579
20
-65.9374
11
150.589
21
-65.9299
0
LINE
8
BLACK
6
CONTINUOUS
10
150.589
20
-65.9299
11
150.599
21
-65.9243
0
LINE
8
BLACK
6
CONTINUOUS
10
150.599
20
-65.9243
11
150.61
21
-65.9209
0
LINE
8
BLACK
6
CONTINUOUS
10
150.61
20
-65.9209
11
150.619
21
-65.92
0
LINE
8
BLACK
6
CONTINUOUS
10
150.619
20
-65.92
11
150.622
21
-65.9197
0
LINE
8
BLACK
6
CONTINUOUS
10
150.622
20
-65.9197
11
150.625
21
-65.92
0
LINE
8
BLACK
6
CONTINUOUS
10
150.625
20
-65.92
11
153.219
21
-65.92
0
LINE
8
BLACK
6
CONTINUOUS
10
153.219
20
-65.92
11
153.222
21
-65.9197
0
LINE
8
BLACK
6
CONTINUOUS
10
153.222
20
-65.9197
11
153.225
21
-65.92
0
LINE
8
BLACK
6
CONTINUOUS
10
150.682
20
-66.04
11
150.682
21
-68.5771
0
LINE
8
BLACK
6
CONTINUOUS
10
150.682
20
-68.5771
11
150.682
21
-68.58
0
LINE
8
BLACK
6
CONTINUOUS
10
150.682
20
-68.58
11
150.682
21
-68.5829
0
LINE
8
BLACK
6
CONTINUOUS
10
150.682
20
-68.5829
11
150.681
21
-68.5918
0
LINE
8
BLACK
6
CONTINUOUS
10
150.681
20
-68.5918
11
150.678
21
-68.6031
0
LINE
8
BLACK
6
CONTINUOUS
10
150.678
20
-68.6031
11
150.672
21
-68.6135
0
LINE
8
BLACK
6
CONTINUOUS
10
150.672
20
-68.6135
11
150.665
21
-68.6226
0
LINE
8
BLACK
6
CONTINUOUS
10
150.665
20
-68.6226
11
150.655
21
-68.6301
0
LINE
8
BLACK
6
CONTINUOUS
10
150.655
20
-68.6301
11
150.645
21
-68.6357
0
LINE
8
BLACK
6
CONTINUOUS
10
150.645
20
-68.6357
11
150.634
21
-68.6391
0
LINE
8
BLACK
6
CONTINUOUS
10
150.634
20
-68.6391
11
150.622
21
-68.6403
0
LINE
8
BLACK
6
CONTINUOUS
10
150.622
20
-68.6403
11
150.619
21
-68.64
0
LINE
8
BLACK
6
CONTINUOUS
10
150.619
20
-68.64
11
148.082
21
-68.64
0
LINE
8
BLACK
6
CONTINUOUS
10
148.082
20
-68.64
11
148.082
21
-129.54
0
LINE
8
BLACK
6
CONTINUOUS
10
148.082
20
-129.54
11
153.162
21
-129.54
0
LINE
8
BLACK
6
CONTINUOUS
10
153.162
20
-129.54
11
153.162
21
-66.04
0
LINE
8
BLACK
6
CONTINUOUS
10
153.162
20
-66.04
11
150.682
21
-66.04
0
LINE
8
BLACK
6
CONTINUOUS
10
97.2249
20
-66.428
11
98.5549
21
-66.428
0
LINE
8
BLACK
6
CONTINUOUS
10
98.5549
20
-66.428
11
98.5638
21
-66.4289
0
LINE
8
BLACK
6
CONTINUOUS
10
98.5638
20
-66.4289
11
98.5751
21
-66.4323
0
LINE
8
BLACK
6
CONTINUOUS
10
98.5751
20
-66.4323
11
98.5855
21
-66.4379
0
LINE
8
BLACK
6
CONTINUOUS
10
98.5855
20
-66.4379
11
98.5946
21
-66.4454
0
LINE
8
BLACK
6
CONTINUOUS
10
98.5946
20
-66.4454
11
98.6021
21
-66.4545
0
LINE
8
BLACK
6
CONTINUOUS
10
98.6021
20
-66.4545
11
98.6077
21
-66.4649
0
LINE
8
BLACK
6
CONTINUOUS
10
98.6077
20
-66.4649
11
98.6111
21
-66.4762
0
LINE
8
BLACK
6
CONTINUOUS
10
98.6111
20
-66.4762
11
98.6123
21
-66.488
0
LINE
8
BLACK
6
CONTINUOUS
10
98.6123
20
-66.488
11
98.6111
21
-66.4998
0
LINE
8
BLACK
6
CONTINUOUS
10
98.6111
20
-66.4998
11
98.6077
21
-66.5111
0
LINE
8
BLACK
6
CONTINUOUS
10
98.6077
20
-66.5111
11
98.6021
21
-66.5215
0
LINE
8
BLACK
6
CONTINUOUS
10
98.6021
20
-66.5215
11
98.5946
21
-66.5306
0
LINE
8
BLACK
6
CONTINUOUS
10
98.5946
20
-66.5306
11
98.5855
21
-66.5381
0
LINE
8
BLACK
6
CONTINUOUS
10
98.5855
20
-66.5381
11
98.5751
21
-66.5437
0
LINE
8
BLACK
6
CONTINUOUS
10
98.5751
20
-66.5437
11
98.5638
21
-66.5471
0
LINE
8
BLACK
6
CONTINUOUS
10
98.5638
20
-66.5471
11
98.5549
21
-66.548
0
LINE
8
BLACK
6
CONTINUOUS
10
98.5549
20
-66.548
11
97.282
21
-66.548
0
LINE
8
BLACK
6
CONTINUOUS
10
97.282
20
-66.548
11
97.282
21
-67.8209
0
LINE
8
BLACK
6
CONTINUOUS
10
97.282
20
-67.8209
11
97.2811
21
-67.8298
0
LINE
8
BLACK
6
CONTINUOUS
10
97.2811
20
-67.8298
11
97.2777
21
-67.8411
0
LINE
8
BLACK
6
CONTINUOUS
10
97.2777
20
-67.8411
11
97.2721
21
-67.8515
0
LINE
8
BLACK
6
CONTINUOUS
10
97.2721
20
-67.8515
11
97.2646
21
-67.8606
0
LINE
8
BLACK
6
CONTINUOUS
10
97.2646
20
-67.8606
11
97.2555
21
-67.8681
0
LINE
8
BLACK
6
CONTINUOUS
10
97.2555
20
-67.8681
11
97.2451
21
-67.8737
0
LINE
8
BLACK
6
CONTINUOUS
10
97.2451
20
-67.8737
11
97.2338
21
-67.8771
0
LINE
8
BLACK
6
CONTINUOUS
10
97.2338
20
-67.8771
11
97.222
21
-67.8783
0
LINE
8
BLACK
6
CONTINUOUS
10
97.222
20
-67.8783
11
97.2102
21
-67.8771
0
LINE
8
BLACK
6
CONTINUOUS
10
97.2102
20
-67.8771
11
97.1989
21
-67.8737
0
LINE
8
BLACK
6
CONTINUOUS
10
97.1989
20
-67.8737
11
97.1885
21
-67.8681
0
LINE
8
BLACK
6
CONTINUOUS
10
97.1885
20
-67.8681
11
97.1794
21
-67.8606
0
LINE
8
BLACK
6
CONTINUOUS
10
97.1794
20
-67.8606
11
97.1719
21
-67.8515
0
LINE
8
BLACK
6
CONTINUOUS
10
97.1719
20
-67.8515
11
97.1663
21
-67.8411
0
LINE
8
BLACK
6
CONTINUOUS
10
97.1663
20
-67.8411
11
97.1629
21
-67.8298
0
LINE
8
BLACK
6
CONTINUOUS
10
97.1629
20
-67.8298
11
97.162
21
-67.8209
0
LINE
8
BLACK
6
CONTINUOUS
10
97.162
20
-67.8209
11
97.162
21
-66.4909
0
LINE
8
BLACK
6
CONTINUOUS
10
97.162
20
-66.4909
11
97.1617
21
-66.488
0
LINE
8
BLACK
6
CONTINUOUS
10
97.1617
20
-66.488
11
97.1629
21
-66.4762
0
LINE
8
BLACK
6
CONTINUOUS
10
97.1629
20
-66.4762
11
97.1663
21
-66.4649
0
LINE
8
BLACK
6
CONTINUOUS
10
97.1663
20
-66.4649
11
97.1719
21
-66.4545
0
LINE
8
BLACK
6
CONTINUOUS
10
97.1719
20
-66.4545
11
97.1794
21
-66.4454
0
LINE
8
BLACK
6
CONTINUOUS
10
97.1794
20
-66.4454
11
97.1885
21
-66.4379
0
LINE
8
BLACK
6
CONTINUOUS
10
97.1885
20
-66.4379
11
97.1989
21
-66.4323
0
LINE
8
BLACK
6
CONTINUOUS
10
97.1989
20
-66.4323
11
97.2102
21
-66.4289
0
LINE
8
BLACK
6
CONTINUOUS
10
97.2102
20
-66.4289
11
97.2191
21
-66.428
0
LINE
8
BLACK
6
CONTINUOUS
10
97.2191
20
-66.428
11
97.222
21
-66.4277
0
LINE
8
BLACK
6
CONTINUOUS
10
97.222
20
-66.4277
11
97.2249
21
-66.428
0
LINE
8
BLACK
6
CONTINUOUS
10
148.025
20
-65.92
11
149.355
21
-65.92
0
LINE
8
BLACK
6
CONTINUOUS
10
149.355
20
-65.92
11
149.364
21
-65.9209
0
LINE
8
BLACK
6
CONTINUOUS
10
149.364
20
-65.9209
11
149.375
21
-65.9243
0
LINE
8
BLACK
6
CONTINUOUS
10
149.375
20
-65.9243
11
149.385
21
-65.9299
0
LINE
8
BLACK
6
CONTINUOUS
10
149.385
20
-65.9299
11
149.395
21
-65.9374
0
LINE
8
BLACK
6
CONTINUOUS
10
149.395
20
-65.9374
11
149.402
21
-65.9465
0
LINE
8
BLACK
6
CONTINUOUS
10
149.402
20
-65.9465
11
149.408
21
-65.9569
0
LINE
8
BLACK
6
CONTINUOUS
10
149.408
20
-65.9569
11
149.411
21
-65.9682
0
LINE
8
BLACK
6
CONTINUOUS
10
149.411
20
-65.9682
11
149.412
21
-65.98
0
LINE
8
BLACK
6
CONTINUOUS
10
149.412
20
-65.98
11
149.411
21
-65.9918
0
LINE
8
BLACK
6
CONTINUOUS
10
149.411
20
-65.9918
11
149.408
21
-66.0031
0
LINE
8
BLACK
6
CONTINUOUS
10
149.408
20
-66.0031
11
149.402
21
-66.0135
0
LINE
8
BLACK
6
CONTINUOUS
10
149.402
20
-66.0135
11
149.395
21
-66.0226
0
LINE
8
BLACK
6
CONTINUOUS
10
149.395
20
-66.0226
11
149.385
21
-66.0301
0
LINE
8
BLACK
6
CONTINUOUS
10
149.385
20
-66.0301
11
149.375
21
-66.0357
0
LINE
8
BLACK
6
CONTINUOUS
10
149.375
20
-66.0357
11
149.364
21
-66.0391
0
LINE
8
BLACK
6
CONTINUOUS
10
149.364
20
-66.0391
11
149.355
21
-66.04
0
LINE
8
BLACK
6
CONTINUOUS
10
149.355
20
-66.04
11
148.082
21
-66.04
0
LINE
8
BLACK
6
CONTINUOUS
10
148.082
20
-66.04
11
148.082
21
-67.3129
0
LINE
8
BLACK
6
CONTINUOUS
10
148.082
20
-67.3129
11
148.081
21
-67.3218
0
LINE
8
BLACK
6
CONTINUOUS
10
148.081
20
-67.3218
11
148.078
21
-67.3331
0
LINE
8
BLACK
6
CONTINUOUS
10
148.078
20
-67.3331
11
148.072
21
-67.3435
0
LINE
8
BLACK
6
CONTINUOUS
10
148.072
20
-67.3435
11
148.065
21
-67.3526
0
LINE
8
BLACK
6
CONTINUOUS
10
148.065
20
-67.3526
11
148.055
21
-67.3601
0
LINE
8
BLACK
6
CONTINUOUS
10
148.055
20
-67.3601
11
148.045
21
-67.3657
0
LINE
8
BLACK
6
CONTINUOUS
10
148.045
20
-67.3657
11
148.034
21
-67.3691
0
LINE
8
BLACK
6
CONTINUOUS
10
148.034
20
-67.3691
11
148.022
21
-67.3703
0
LINE
8
BLACK
6
CONTINUOUS
10
148.022
20
-67.3703
11
148.01
21
-67.3691
0
LINE
8
BLACK
6
CONTINUOUS
10
148.01
20
-67.3691
11
147.999
21
-67.3657
0
LINE
8
BLACK
6
CONTINUOUS
10
147.999
20
-67.3657
11
147.989
21
-67.3601
0
LINE
8
BLACK
6
CONTINUOUS
10
147.989
20
-67.3601
11
147.979
21
-67.3526
0
LINE
8
BLACK
6
CONTINUOUS
10
147.979
20
-67.3526
11
147.972
21
-67.3435
0
LINE
8
BLACK
6
CONTINUOUS
10
147.972
20
-67.3435
11
147.966
21
-67.3331
0
LINE
8
BLACK
6
CONTINUOUS
10
147.966
20
-67.3331
11
147.963
21
-67.3218
0
LINE
8
BLACK
6
CONTINUOUS
10
147.963
20
-67.3218
11
147.962
21
-67.3129
0
LINE
8
BLACK
6
CONTINUOUS
10
147.962
20
-67.3129
11
147.962
21
-65.9829
0
LINE
8
BLACK
6
CONTINUOUS
10
147.962
20
-65.9829
11
147.962
21
-65.98
0
LINE
8
BLACK
6
CONTINUOUS
10
147.962
20
-65.98
11
147.963
21
-65.9682
0
LINE
8
BLACK
6
CONTINUOUS
10
147.963
20
-65.9682
11
147.966
21
-65.9569
0
LINE
8
BLACK
6
CONTINUOUS
10
147.966
20
-65.9569
11
147.972
21
-65.9465
0
LINE
8
BLACK
6
CONTINUOUS
10
147.972
20
-65.9465
11
147.979
21
-65.9374
0
LINE
8
BLACK
6
CONTINUOUS
10
147.979
20
-65.9374
11
147.989
21
-65.9299
0
LINE
8
BLACK
6
CONTINUOUS
10
147.989
20
-65.9299
11
147.999
21
-65.9243
0
LINE
8
BLACK
6
CONTINUOUS
10
147.999
20
-65.9243
11
148.01
21
-65.9209
0
LINE
8
BLACK
6
CONTINUOUS
10
148.01
20
-65.9209
11
148.019
21
-65.92
0
LINE
8
BLACK
6
CONTINUOUS
10
148.019
20
-65.92
11
148.022
21
-65.9197
0
LINE
8
BLACK
6
CONTINUOUS
10
148.022
20
-65.9197
11
148.025
21
-65.92
0
LINE
8
BLACK
6
CONTINUOUS
10
100.17
20
-64.4269
11
100.184
21
-64.4312
0
LINE
8
BLACK
6
CONTINUOUS
10
100.184
20
-64.4312
11
100.197
21
-64.4382
0
LINE
8
BLACK
6
CONTINUOUS
10
100.197
20
-64.4382
11
100.209
21
-64.4475
0
LINE
8
BLACK
6
CONTINUOUS
10
100.209
20
-64.4475
11
100.218
21
-64.4589
0
LINE
8
BLACK
6
CONTINUOUS
10
100.218
20
-64.4589
11
100.225
21
-64.4718
0
LINE
8
BLACK
6
CONTINUOUS
10
100.225
20
-64.4718
11
100.229
21
-64.4858
0
LINE
8
BLACK
6
CONTINUOUS
10
100.229
20
-64.4858
11
100.23
21
-64.5004
0
LINE
8
BLACK
6
CONTINUOUS
10
100.23
20
-64.5004
11
100.23
21
-65.2025
0
LINE
8
BLACK
6
CONTINUOUS
10
100.23
20
-65.2025
11
100.269
21
-65.317
0
LINE
8
BLACK
6
CONTINUOUS
10
100.269
20
-65.317
11
100.339
21
-65.3872
0
LINE
8
BLACK
6
CONTINUOUS
10
100.339
20
-65.3872
11
100.453
21
-65.4254
0
LINE
8
BLACK
6
CONTINUOUS
10
100.453
20
-65.4254
11
100.536
21
-65.4254
0
LINE
8
BLACK
6
CONTINUOUS
10
100.536
20
-65.4254
11
100.537
21
-65.4254
0
LINE
8
BLACK
6
CONTINUOUS
10
100.537
20
-65.4254
11
100.552
21
-65.427
0
LINE
8
BLACK
6
CONTINUOUS
10
100.552
20
-65.427
11
100.566
21
-65.4314
0
LINE
8
BLACK
6
CONTINUOUS
10
100.566
20
-65.4314
11
100.579
21
-65.4385
0
LINE
8
BLACK
6
CONTINUOUS
10
100.579
20
-65.4385
11
100.59
21
-65.4479
0
LINE
8
BLACK
6
CONTINUOUS
10
100.59
20
-65.4479
11
100.599
21
-65.4593
0
LINE
8
BLACK
6
CONTINUOUS
10
100.599
20
-65.4593
11
100.606
21
-65.4723
0
LINE
8
BLACK
6
CONTINUOUS
10
100.606
20
-65.4723
11
100.61
21
-65.4863
0
LINE
8
BLACK
6
CONTINUOUS
10
100.61
20
-65.4863
11
100.611
21
-65.5009
0
LINE
8
BLACK
6
CONTINUOUS
10
100.611
20
-65.5009
11
100.61
21
-65.5155
0
LINE
8
BLACK
6
CONTINUOUS
10
100.61
20
-65.5155
11
100.605
21
-65.5294
0
LINE
8
BLACK
6
CONTINUOUS
10
100.605
20
-65.5294
11
100.598
21
-65.5423
0
LINE
8
BLACK
6
CONTINUOUS
10
100.598
20
-65.5423
11
100.589
21
-65.5536
0
LINE
8
BLACK
6
CONTINUOUS
10
100.589
20
-65.5536
11
100.578
21
-65.5628
0
LINE
8
BLACK
6
CONTINUOUS
10
100.578
20
-65.5628
11
100.565
21
-65.5697
0
LINE
8
BLACK
6
CONTINUOUS
10
100.565
20
-65.5697
11
100.551
21
-65.574
0
LINE
8
BLACK
6
CONTINUOUS
10
100.551
20
-65.574
11
100.536
21
-65.5754
0
LINE
8
BLACK
6
CONTINUOUS
10
100.536
20
-65.5754
11
100.441
21
-65.5754
0
LINE
8
BLACK
6
CONTINUOUS
10
100.441
20
-65.5754
11
100.44
21
-65.5754
0
LINE
8
BLACK
6
CONTINUOUS
10
100.44
20
-65.5754
11
100.436
21
-65.5749
0
LINE
8
BLACK
6
CONTINUOUS
10
100.436
20
-65.5749
11
100.432
21
-65.5748
0
LINE
8
BLACK
6
CONTINUOUS
10
100.432
20
-65.5748
11
100.429
21
-65.5741
0
LINE
8
BLACK
6
CONTINUOUS
10
100.429
20
-65.5741
11
100.425
21
-65.5737
0
LINE
8
BLACK
6
CONTINUOUS
10
100.425
20
-65.5737
11
100.421
21
-65.5725
0
LINE
8
BLACK
6
CONTINUOUS
10
100.421
20
-65.5725
11
100.417
21
-65.5715
0
LINE
8
BLACK
6
CONTINUOUS
10
100.417
20
-65.5715
11
100.274
21
-65.5239
0
LINE
8
BLACK
6
CONTINUOUS
10
100.274
20
-65.5239
11
100.273
21
-65.5236
0
LINE
8
BLACK
6
CONTINUOUS
10
100.273
20
-65.5236
11
100.271
21
-65.5226
0
LINE
8
BLACK
6
CONTINUOUS
10
100.271
20
-65.5226
11
100.269
21
-65.522
0
LINE
8
BLACK
6
CONTINUOUS
10
100.269
20
-65.522
11
100.265
21
-65.5196
0
LINE
8
BLACK
6
CONTINUOUS
10
100.265
20
-65.5196
11
100.26
21
-65.5174
0
LINE
8
BLACK
6
CONTINUOUS
10
100.26
20
-65.5174
11
100.258
21
-65.5161
0
LINE
8
BLACK
6
CONTINUOUS
10
100.258
20
-65.5161
11
100.256
21
-65.5151
0
LINE
8
BLACK
6
CONTINUOUS
10
100.256
20
-65.5151
11
100.253
21
-65.5118
0
LINE
8
BLACK
6
CONTINUOUS
10
100.253
20
-65.5118
11
100.248
21
-65.5088
0
LINE
8
BLACK
6
CONTINUOUS
10
100.248
20
-65.5088
11
100.247
21
-65.5072
0
LINE
8
BLACK
6
CONTINUOUS
10
100.247
20
-65.5072
11
100.245
21
-65.5058
0
LINE
8
BLACK
6
CONTINUOUS
10
100.245
20
-65.5058
11
100.15
21
-65.4106
0
LINE
8
BLACK
6
CONTINUOUS
10
100.15
20
-65.4106
11
100.149
21
-65.4098
0
LINE
8
BLACK
6
CONTINUOUS
10
100.149
20
-65.4098
11
100.148
21
-65.4081
0
LINE
8
BLACK
6
CONTINUOUS
10
100.148
20
-65.4081
11
100.146
21
-65.4066
0
LINE
8
BLACK
6
CONTINUOUS
10
100.146
20
-65.4066
11
100.143
21
-65.4024
0
LINE
8
BLACK
6
CONTINUOUS
10
100.143
20
-65.4024
11
100.14
21
-65.3984
0
LINE
8
BLACK
6
CONTINUOUS
10
100.14
20
-65.3984
11
100.139
21
-65.3964
0
LINE
8
BLACK
6
CONTINUOUS
10
100.139
20
-65.3964
11
100.138
21
-65.3946
0
LINE
8
BLACK
6
CONTINUOUS
10
100.138
20
-65.3946
11
100.136
21
-65.3899
0
LINE
8
BLACK
6
CONTINUOUS
10
100.136
20
-65.3899
11
100.133
21
-65.3854
0
LINE
8
BLACK
6
CONTINUOUS
10
100.133
20
-65.3854
11
100.133
21
-65.3833
0
LINE
8
BLACK
6
CONTINUOUS
10
100.133
20
-65.3833
11
100.132
21
-65.3812
0
LINE
8
BLACK
6
CONTINUOUS
10
100.132
20
-65.3812
11
100.084
21
-65.2384
0
LINE
8
BLACK
6
CONTINUOUS
10
100.084
20
-65.2384
11
100.084
21
-65.2374
0
LINE
8
BLACK
6
CONTINUOUS
10
100.084
20
-65.2374
11
100.083
21
-65.2333
0
LINE
8
BLACK
6
CONTINUOUS
10
100.083
20
-65.2333
11
100.082
21
-65.2292
0
LINE
8
BLACK
6
CONTINUOUS
10
100.082
20
-65.2292
11
100.081
21
-65.2261
0
LINE
8
BLACK
6
CONTINUOUS
10
100.081
20
-65.2261
11
100.081
21
-65.2231
0
LINE
8
BLACK
6
CONTINUOUS
10
100.081
20
-65.2231
11
100.081
21
-65.2189
0
LINE
8
BLACK
6
CONTINUOUS
10
100.081
20
-65.2189
11
100.08
21
-65.2147
0
LINE
8
BLACK
6
CONTINUOUS
10
100.08
20
-65.2147
11
100.08
21
-64.5004
0
LINE
8
BLACK
6
CONTINUOUS
10
100.08
20
-64.5004
11
100.08
21
-64.4993
0
LINE
8
BLACK
6
CONTINUOUS
10
100.08
20
-64.4993
11
100.082
21
-64.4848
0
LINE
8
BLACK
6
CONTINUOUS
10
100.082
20
-64.4848
11
100.086
21
-64.4708
0
LINE
8
BLACK
6
CONTINUOUS
10
100.086
20
-64.4708
11
100.093
21
-64.458
0
LINE
8
BLACK
6
CONTINUOUS
10
100.093
20
-64.458
11
100.103
21
-64.4468
0
LINE
8
BLACK
6
CONTINUOUS
10
100.103
20
-64.4468
11
100.114
21
-64.4376
0
LINE
8
BLACK
6
CONTINUOUS
10
100.114
20
-64.4376
11
100.127
21
-64.4308
0
LINE
8
BLACK
6
CONTINUOUS
10
100.127
20
-64.4308
11
100.141
21
-64.4267
0
LINE
8
BLACK
6
CONTINUOUS
10
100.141
20
-64.4267
11
100.156
21
-64.4254
0
LINE
8
BLACK
6
CONTINUOUS
10
100.156
20
-64.4254
11
100.17
21
-64.4269
0
LINE
8
BLACK
6
CONTINUOUS
10
99.1543
20
-65.5754
11
99.1397
21
-65.5737
0
LINE
8
BLACK
6
CONTINUOUS
10
99.1397
20
-65.5737
11
99.1258
21
-65.5693
0
LINE
8
BLACK
6
CONTINUOUS
10
99.1258
20
-65.5693
11
99.113
21
-65.5623
0
LINE
8
BLACK
6
CONTINUOUS
10
99.113
20
-65.5623
11
99.1017
21
-65.5529
0
LINE
8
BLACK
6
CONTINUOUS
10
99.1017
20
-65.5529
11
99.0926
21
-65.5414
0
LINE
8
BLACK
6
CONTINUOUS
10
99.0926
20
-65.5414
11
99.0858
21
-65.5285
0
LINE
8
BLACK
6
CONTINUOUS
10
99.0858
20
-65.5285
11
99.0817
21
-65.5144
0
LINE
8
BLACK
6
CONTINUOUS
10
99.0817
20
-65.5144
11
99.0803
21
-65.4999
0
LINE
8
BLACK
6
CONTINUOUS
10
99.0803
20
-65.4999
11
99.0819
21
-65.4853
0
LINE
8
BLACK
6
CONTINUOUS
10
99.0819
20
-65.4853
11
99.0862
21
-65.4713
0
LINE
8
BLACK
6
CONTINUOUS
10
99.0862
20
-65.4713
11
99.0932
21
-65.4584
0
LINE
8
BLACK
6
CONTINUOUS
10
99.0932
20
-65.4584
11
99.1025
21
-65.4472
0
LINE
8
BLACK
6
CONTINUOUS
10
99.1025
20
-65.4472
11
99.1138
21
-65.4379
0
LINE
8
BLACK
6
CONTINUOUS
10
99.1138
20
-65.4379
11
99.1268
21
-65.431
0
LINE
8
BLACK
6
CONTINUOUS
10
99.1268
20
-65.431
11
99.1408
21
-65.4268
0
LINE
8
BLACK
6
CONTINUOUS
10
99.1408
20
-65.4268
11
99.1553
21
-65.4254
0
LINE
8
BLACK
6
CONTINUOUS
10
99.1553
20
-65.4254
11
99.5933
21
-65.4254
0
LINE
8
BLACK
6
CONTINUOUS
10
99.5933
20
-65.4254
11
99.1499
21
-64.982
0
LINE
8
BLACK
6
CONTINUOUS
10
99.1499
20
-64.982
11
99.1492
21
-64.9812
0
LINE
8
BLACK
6
CONTINUOUS
10
99.1492
20
-64.9812
11
99.1478
21
-64.9795
0
LINE
8
BLACK
6
CONTINUOUS
10
99.1478
20
-64.9795
11
99.1462
21
-64.978
0
LINE
8
BLACK
6
CONTINUOUS
10
99.1462
20
-64.978
11
99.1433
21
-64.9738
0
LINE
8
BLACK
6
CONTINUOUS
10
99.1433
20
-64.9738
11
99.1401
21
-64.9698
0
LINE
8
BLACK
6
CONTINUOUS
10
99.1401
20
-64.9698
11
99.139
21
-64.9678
0
LINE
8
BLACK
6
CONTINUOUS
10
99.139
20
-64.9678
11
99.1378
21
-64.966
0
LINE
8
BLACK
6
CONTINUOUS
10
99.1378
20
-64.966
11
99.1357
21
-64.9614
0
LINE
8
BLACK
6
CONTINUOUS
10
99.1357
20
-64.9614
11
99.1333
21
-64.9568
0
LINE
8
BLACK
6
CONTINUOUS
10
99.1333
20
-64.9568
11
99.1327
21
-64.9547
0
LINE
8
BLACK
6
CONTINUOUS
10
99.1327
20
-64.9547
11
99.1318
21
-64.9527
0
LINE
8
BLACK
6
CONTINUOUS
10
99.1318
20
-64.9527
11
99.0842
21
-64.8098
0
LINE
8
BLACK
6
CONTINUOUS
10
99.0842
20
-64.8098
11
99.0839
21
-64.8088
0
LINE
8
BLACK
6
CONTINUOUS
10
99.0839
20
-64.8088
11
99.083
21
-64.8047
0
LINE
8
BLACK
6
CONTINUOUS
10
99.083
20
-64.8047
11
99.0818
21
-64.8007
0
LINE
8
BLACK
6
CONTINUOUS
10
99.0818
20
-64.8007
11
99.0815
21
-64.7976
0
LINE
8
BLACK
6
CONTINUOUS
10
99.0815
20
-64.7976
11
99.0808
21
-64.7945
0
LINE
8
BLACK
6
CONTINUOUS
10
99.0808
20
-64.7945
11
99.0807
21
-64.7903
0
LINE
8
BLACK
6
CONTINUOUS
10
99.0807
20
-64.7903
11
99.0803
21
-64.7861
0
LINE
8
BLACK
6
CONTINUOUS
10
99.0803
20
-64.7861
11
99.0803
21
-64.6909
0
LINE
8
BLACK
6
CONTINUOUS
10
99.0803
20
-64.6909
11
99.0803
21
-64.6898
0
LINE
8
BLACK
6
CONTINUOUS
10
99.0803
20
-64.6898
11
99.0806
21
-64.6876
0
LINE
8
BLACK
6
CONTINUOUS
10
99.0806
20
-64.6876
11
99.0805
21
-64.6854
0
LINE
8
BLACK
6
CONTINUOUS
10
99.0805
20
-64.6854
11
99.0814
21
-64.6804
0
LINE
8
BLACK
6
CONTINUOUS
10
99.0814
20
-64.6804
11
99.082
21
-64.6753
0
LINE
8
BLACK
6
CONTINUOUS
10
99.082
20
-64.6753
11
99.0826
21
-64.6732
0
LINE
8
BLACK
6
CONTINUOUS
10
99.0826
20
-64.6732
11
99.083
21
-64.671
0
LINE
8
BLACK
6
CONTINUOUS
10
99.083
20
-64.671
11
99.0848
21
-64.6662
0
LINE
8
BLACK
6
CONTINUOUS
10
99.0848
20
-64.6662
11
99.0864
21
-64.6613
0
LINE
8
BLACK
6
CONTINUOUS
10
99.0864
20
-64.6613
11
99.0875
21
-64.6594
0
LINE
8
BLACK
6
CONTINUOUS
10
99.0875
20
-64.6594
11
99.0883
21
-64.6573
0
LINE
8
BLACK
6
CONTINUOUS
10
99.0883
20
-64.6573
11
99.1359
21
-64.5621
0
LINE
8
BLACK
6
CONTINUOUS
10
99.1359
20
-64.5621
11
99.1363
21
-64.5611
0
LINE
8
BLACK
6
CONTINUOUS
10
99.1363
20
-64.5611
11
99.1386
21
-64.5576
0
LINE
8
BLACK
6
CONTINUOUS
10
99.1386
20
-64.5576
11
99.1406
21
-64.5539
0
LINE
8
BLACK
6
CONTINUOUS
10
99.1406
20
-64.5539
11
99.1426
21
-64.5515
0
LINE
8
BLACK
6
CONTINUOUS
10
99.1426
20
-64.5515
11
99.1443
21
-64.5489
0
LINE
8
BLACK
6
CONTINUOUS
10
99.1443
20
-64.5489
11
99.1472
21
-64.5458
0
LINE
8
BLACK
6
CONTINUOUS
10
99.1472
20
-64.5458
11
99.1499
21
-64.5426
0
LINE
8
BLACK
6
CONTINUOUS
10
99.1499
20
-64.5426
11
99.1975
21
-64.495
0
LINE
8
BLACK
6
CONTINUOUS
10
99.1975
20
-64.495
11
99.1983
21
-64.4942
0
LINE
8
BLACK
6
CONTINUOUS
10
99.1983
20
-64.4942
11
99.2016
21
-64.4916
0
LINE
8
BLACK
6
CONTINUOUS
10
99.2016
20
-64.4916
11
99.2046
21
-64.4887
0
LINE
8
BLACK
6
CONTINUOUS
10
99.2046
20
-64.4887
11
99.2073
21
-64.487
0
LINE
8
BLACK
6
CONTINUOUS
10
99.2073
20
-64.487
11
99.2097
21
-64.4851
0
LINE
8
BLACK
6
CONTINUOUS
10
99.2097
20
-64.4851
11
99.2135
21
-64.4832
0
LINE
8
BLACK
6
CONTINUOUS
10
99.2135
20
-64.4832
11
99.217
21
-64.4809
0
LINE
8
BLACK
6
CONTINUOUS
10
99.217
20
-64.4809
11
99.3123
21
-64.4333
0
LINE
8
BLACK
6
CONTINUOUS
10
99.3123
20
-64.4333
11
99.3132
21
-64.4328
0
LINE
8
BLACK
6
CONTINUOUS
10
99.3132
20
-64.4328
11
99.3153
21
-64.4321
0
LINE
8
BLACK
6
CONTINUOUS
10
99.3153
20
-64.4321
11
99.3172
21
-64.431
0
LINE
8
BLACK
6
CONTINUOUS
10
99.3172
20
-64.431
11
99.3221
21
-64.4296
0
LINE
8
BLACK
6
CONTINUOUS
10
99.3221
20
-64.4296
11
99.3269
21
-64.4278
0
LINE
8
BLACK
6
CONTINUOUS
10
99.3269
20
-64.4278
11
99.3291
21
-64.4274
0
LINE
8
BLACK
6
CONTINUOUS
10
99.3291
20
-64.4274
11
99.3312
21
-64.4268
0
LINE
8
BLACK
6
CONTINUOUS
10
99.3312
20
-64.4268
11
99.3363
21
-64.4263
0
LINE
8
BLACK
6
CONTINUOUS
10
99.3363
20
-64.4263
11
99.3414
21
-64.4255
0
LINE
8
BLACK
6
CONTINUOUS
10
99.3414
20
-64.4255
11
99.3436
21
-64.4256
0
LINE
8
BLACK
6
CONTINUOUS
10
99.3436
20
-64.4256
11
99.3458
21
-64.4254
0
LINE
8
BLACK
6
CONTINUOUS
10
99.3458
20
-64.4254
11
99.5839
21
-64.4254
0
LINE
8
BLACK
6
CONTINUOUS
10
99.5839
20
-64.4254
11
99.585
21
-64.4254
0
LINE
8
BLACK
6
CONTINUOUS
10
99.585
20
-64.4254
11
99.5871
21
-64.4256
0
LINE
8
BLACK
6
CONTINUOUS
10
99.5871
20
-64.4256
11
99.5894
21
-64.4256
0
LINE
8
BLACK
6
CONTINUOUS
10
99.5894
20
-64.4256
11
99.5944
21
-64.4264
0
LINE
8
BLACK
6
CONTINUOUS
10
99.5944
20
-64.4264
11
99.5995
21
-64.427
0
LINE
8
BLACK
6
CONTINUOUS
10
99.5995
20
-64.427
11
99.6016
21
-64.4277
0
LINE
8
BLACK
6
CONTINUOUS
10
99.6016
20
-64.4277
11
99.6038
21
-64.4281
0
LINE
8
BLACK
6
CONTINUOUS
10
99.6038
20
-64.4281
11
99.6086
21
-64.4299
0
LINE
8
BLACK
6
CONTINUOUS
10
99.6086
20
-64.4299
11
99.6135
21
-64.4314
0
LINE
8
BLACK
6
CONTINUOUS
10
99.6135
20
-64.4314
11
99.6154
21
-64.4325
0
LINE
8
BLACK
6
CONTINUOUS
10
99.6154
20
-64.4325
11
99.6174
21
-64.4333
0
LINE
8
BLACK
6
CONTINUOUS
10
99.6174
20
-64.4333
11
99.7127
21
-64.4809
0
LINE
8
BLACK
6
CONTINUOUS
10
99.7127
20
-64.4809
11
99.7136
21
-64.4814
0
LINE
8
BLACK
6
CONTINUOUS
10
99.7136
20
-64.4814
11
99.7172
21
-64.4837
0
LINE
8
BLACK
6
CONTINUOUS
10
99.7172
20
-64.4837
11
99.7209
21
-64.4857
0
LINE
8
BLACK
6
CONTINUOUS
10
99.7209
20
-64.4857
11
99.7233
21
-64.4877
0
LINE
8
BLACK
6
CONTINUOUS
10
99.7233
20
-64.4877
11
99.7259
21
-64.4894
0
LINE
8
BLACK
6
CONTINUOUS
10
99.7259
20
-64.4894
11
99.7289
21
-64.4923
0
LINE
8
BLACK
6
CONTINUOUS
10
99.7289
20
-64.4923
11
99.7322
21
-64.495
0
LINE
8
BLACK
6
CONTINUOUS
10
99.7322
20
-64.495
11
99.7798
21
-64.5426
0
LINE
8
BLACK
6
CONTINUOUS
10
99.7798
20
-64.5426
11
99.7805
21
-64.5433
0
LINE
8
BLACK
6
CONTINUOUS
10
99.7805
20
-64.5433
11
99.7897
21
-64.5548
0
LINE
8
BLACK
6
CONTINUOUS
10
99.7897
20
-64.5548
11
99.7964
21
-64.5678
0
LINE
8
BLACK
6
CONTINUOUS
10
99.7964
20
-64.5678
11
99.8005
21
-64.5818
0
LINE
8
BLACK
6
CONTINUOUS
10
99.8005
20
-64.5818
11
99.8018
21
-64.5964
0
LINE
8
BLACK
6
CONTINUOUS
10
99.8018
20
-64.5964
11
99.8002
21
-64.611
0
LINE
8
BLACK
6
CONTINUOUS
10
99.8002
20
-64.611
11
99.7958
21
-64.6249
0
LINE
8
BLACK
6
CONTINUOUS
10
99.7958
20
-64.6249
11
99.7888
21
-64.6378
0
LINE
8
BLACK
6
CONTINUOUS
10
99.7888
20
-64.6378
11
99.7794
21
-64.649
0
LINE
8
BLACK
6
CONTINUOUS
10
99.7794
20
-64.649
11
99.768
21
-64.6582
0
LINE
8
BLACK
6
CONTINUOUS
10
99.768
20
-64.6582
11
99.7551
21
-64.6651
0
LINE
8
BLACK
6
CONTINUOUS
10
99.7551
20
-64.6651
11
99.7411
21
-64.6692
0
LINE
8
BLACK
6
CONTINUOUS
10
99.7411
20
-64.6692
11
99.7265
21
-64.6706
0
LINE
8
BLACK
6
CONTINUOUS
10
99.7265
20
-64.6706
11
99.7119
21
-64.6691
0
LINE
8
BLACK
6
CONTINUOUS
10
99.7119
20
-64.6691
11
99.6979
21
-64.6649
0
LINE
8
BLACK
6
CONTINUOUS
10
99.6979
20
-64.6649
11
99.685
21
-64.6579
0
LINE
8
BLACK
6
CONTINUOUS
10
99.685
20
-64.6579
11
99.6737
21
-64.6487
0
LINE
8
BLACK
6
CONTINUOUS
10
99.6737
20
-64.6487
11
99.6347
21
-64.6096
0
LINE
8
BLACK
6
CONTINUOUS
10
99.6347
20
-64.6096
11
99.5662
21
-64.5754
0
LINE
8
BLACK
6
CONTINUOUS
10
99.5662
20
-64.5754
11
99.3635
21
-64.5754
0
LINE
8
BLACK
6
CONTINUOUS
10
99.3635
20
-64.5754
11
99.295
21
-64.6096
0
LINE
8
BLACK
6
CONTINUOUS
10
99.295
20
-64.6096
11
99.2646
21
-64.64
0
LINE
8
BLACK
6
CONTINUOUS
10
99.2646
20
-64.64
11
99.2303
21
-64.7086
0
LINE
8
BLACK
6
CONTINUOUS
10
99.2303
20
-64.7086
11
99.2303
21
-64.7739
0
LINE
8
BLACK
6
CONTINUOUS
10
99.2303
20
-64.7739
11
99.2685
21
-64.8884
0
LINE
8
BLACK
6
CONTINUOUS
10
99.2685
20
-64.8884
11
99.8274
21
-65.4473
0
LINE
8
BLACK
6
CONTINUOUS
10
99.8274
20
-65.4473
11
99.828
21
-65.4479
0
LINE
8
BLACK
6
CONTINUOUS
10
99.828
20
-65.4479
11
99.828
21
-65.4479
0
LINE
8
BLACK
6
CONTINUOUS
10
99.828
20
-65.4479
11
99.828
21
-65.4479
0
LINE
8
BLACK
6
CONTINUOUS
10
99.828
20
-65.4479
11
99.8281
21
-65.4481
0
LINE
8
BLACK
6
CONTINUOUS
10
99.8281
20
-65.4481
11
99.8327
21
-65.4538
0
LINE
8
BLACK
6
CONTINUOUS
10
99.8327
20
-65.4538
11
99.8371
21
-65.4593
0
LINE
8
BLACK
6
CONTINUOUS
10
99.8371
20
-65.4593
11
99.8372
21
-65.4594
0
LINE
8
BLACK
6
CONTINUOUS
10
99.8372
20
-65.4594
11
99.8373
21
-65.4595
0
LINE
8
BLACK
6
CONTINUOUS
10
99.8373
20
-65.4595
11
99.8406
21
-65.4659
0
LINE
8
BLACK
6
CONTINUOUS
10
99.8406
20
-65.4659
11
99.8439
21
-65.4723
0
LINE
8
BLACK
6
CONTINUOUS
10
99.8439
20
-65.4723
11
99.844
21
-65.4724
0
LINE
8
BLACK
6
CONTINUOUS
10
99.844
20
-65.4724
11
99.844
21
-65.4725
0
LINE
8
BLACK
6
CONTINUOUS
10
99.844
20
-65.4725
11
99.846
21
-65.4794
0
LINE
8
BLACK
6
CONTINUOUS
10
99.846
20
-65.4794
11
99.8481
21
-65.4863
0
LINE
8
BLACK
6
CONTINUOUS
10
99.8481
20
-65.4863
11
99.8481
21
-65.4865
0
LINE
8
BLACK
6
CONTINUOUS
10
99.8481
20
-65.4865
11
99.8481
21
-65.4866
0
LINE
8
BLACK
6
CONTINUOUS
10
99.8481
20
-65.4866
11
99.8487
21
-65.4939
0
LINE
8
BLACK
6
CONTINUOUS
10
99.8487
20
-65.4939
11
99.8494
21
-65.5009
0
LINE
8
BLACK
6
CONTINUOUS
10
99.8494
20
-65.5009
11
99.8494
21
-65.501
0
LINE
8
BLACK
6
CONTINUOUS
10
99.8494
20
-65.501
11
99.8494
21
-65.5012
0
LINE
8
BLACK
6
CONTINUOUS
10
99.8494
20
-65.5012
11
99.8486
21
-65.5082
0
LINE
8
BLACK
6
CONTINUOUS
10
99.8486
20
-65.5082
11
99.8478
21
-65.5155
0
LINE
8
BLACK
6
CONTINUOUS
10
99.8478
20
-65.5155
11
99.8478
21
-65.5156
0
LINE
8
BLACK
6
CONTINUOUS
10
99.8478
20
-65.5156
11
99.8478
21
-65.5157
0
LINE
8
BLACK
6
CONTINUOUS
10
99.8478
20
-65.5157
11
99.8458
21
-65.5222
0
LINE
8
BLACK
6
CONTINUOUS
10
99.8458
20
-65.5222
11
99.8435
21
-65.5294
0
LINE
8
BLACK
6
CONTINUOUS
10
99.8435
20
-65.5294
11
99.8435
21
-65.5296
0
LINE
8
BLACK
6
CONTINUOUS
10
99.8435
20
-65.5296
11
99.8434
21
-65.5297
0
LINE
8
BLACK
6
CONTINUOUS
10
99.8434
20
-65.5297
11
99.84
21
-65.536
0
LINE
8
BLACK
6
CONTINUOUS
10
99.84
20
-65.536
11
99.8366
21
-65.5423
0
LINE
8
BLACK
6
CONTINUOUS
10
99.8366
20
-65.5423
11
99.8365
21
-65.5424
0
LINE
8
BLACK
6
CONTINUOUS
10
99.8365
20
-65.5424
11
99.8364
21
-65.5425
0
LINE
8
BLACK
6
CONTINUOUS
10
99.8364
20
-65.5425
11
99.8319
21
-65.548
0
LINE
8
BLACK
6
CONTINUOUS
10
99.8319
20
-65.548
11
99.8272
21
-65.5536
0
LINE
8
BLACK
6
CONTINUOUS
10
99.8272
20
-65.5536
11
99.8271
21
-65.5537
0
LINE
8
BLACK
6
CONTINUOUS
10
99.8271
20
-65.5537
11
99.827
21
-65.5538
0
LINE
8
BLACK
6
CONTINUOUS
10
99.827
20
-65.5538
11
99.8216
21
-65.5582
0
LINE
8
BLACK
6
CONTINUOUS
10
99.8216
20
-65.5582
11
99.8159
21
-65.5628
0
LINE
8
BLACK
6
CONTINUOUS
10
99.8159
20
-65.5628
11
99.8158
21
-65.5629
0
LINE
8
BLACK
6
CONTINUOUS
10
99.8158
20
-65.5629
11
99.8157
21
-65.563
0
LINE
8
BLACK
6
CONTINUOUS
10
99.8157
20
-65.563
11
99.8093
21
-65.5664
0
LINE
8
BLACK
6
CONTINUOUS
10
99.8093
20
-65.5664
11
99.803
21
-65.5697
0
LINE
8
BLACK
6
CONTINUOUS
10
99.803
20
-65.5697
11
99.8028
21
-65.5698
0
LINE
8
BLACK
6
CONTINUOUS
10
99.8028
20
-65.5698
11
99.8027
21
-65.5698
0
LINE
8
BLACK
6
CONTINUOUS
10
99.8027
20
-65.5698
11
99.7958
21
-65.5719
0
LINE
8
BLACK
6
CONTINUOUS
10
99.7958
20
-65.5719
11
99.7889
21
-65.574
0
LINE
8
BLACK
6
CONTINUOUS
10
99.7889
20
-65.574
11
99.7888
21
-65.574
0
LINE
8
BLACK
6
CONTINUOUS
10
99.7888
20
-65.574
11
99.7887
21
-65.574
0
LINE
8
BLACK
6
CONTINUOUS
10
99.7887
20
-65.574
11
99.7815
21
-65.5747
0
LINE
8
BLACK
6
CONTINUOUS
10
99.7815
20
-65.5747
11
99.7744
21
-65.5754
0
LINE
8
BLACK
6
CONTINUOUS
10
99.7744
20
-65.5754
11
99.1553
21
-65.5754
0
LINE
8
BLACK
6
CONTINUOUS
10
99.1553
20
-65.5754
11
99.1543
21
-65.5754
0
LINE
8
BLACK
6
CONTINUOUS
10
150.575
20
-63.9174
11
150.59
21
-63.919
0
LINE
8
BLACK
6
CONTINUOUS
10
150.59
20
-63.919
11
150.604
21
-63.9234
0
LINE
8
BLACK
6
CONTINUOUS
10
150.604
20
-63.9234
11
150.617
21
-63.9305
0
LINE
8
BLACK
6
CONTINUOUS
10
150.617
20
-63.9305
11
150.628
21
-63.9399
0
LINE
8
BLACK
6
CONTINUOUS
10
150.628
20
-63.9399
11
150.637
21
-63.9513
0
LINE
8
BLACK
6
CONTINUOUS
10
150.637
20
-63.9513
11
150.644
21
-63.9643
0
LINE
8
BLACK
6
CONTINUOUS
10
150.644
20
-63.9643
11
150.648
21
-63.9783
0
LINE
8
BLACK
6
CONTINUOUS
10
150.648
20
-63.9783
11
150.649
21
-63.9929
0
LINE
8
BLACK
6
CONTINUOUS
10
150.649
20
-63.9929
11
150.648
21
-64.0075
0
LINE
8
BLACK
6
CONTINUOUS
10
150.648
20
-64.0075
11
150.644
21
-64.0214
0
LINE
8
BLACK
6
CONTINUOUS
10
150.644
20
-64.0214
11
150.637
21
-64.0343
0
LINE
8
BLACK
6
CONTINUOUS
10
150.637
20
-64.0343
11
150.627
21
-64.0456
0
LINE
8
BLACK
6
CONTINUOUS
10
150.627
20
-64.0456
11
150.616
21
-64.0548
0
LINE
8
BLACK
6
CONTINUOUS
10
150.616
20
-64.0548
11
150.603
21
-64.0617
0
LINE
8
BLACK
6
CONTINUOUS
10
150.603
20
-64.0617
11
150.589
21
-64.066
0
LINE
8
BLACK
6
CONTINUOUS
10
150.589
20
-64.066
11
150.574
21
-64.0674
0
LINE
8
BLACK
6
CONTINUOUS
10
150.574
20
-64.0674
11
150.121
21
-64.0674
0
LINE
8
BLACK
6
CONTINUOUS
10
150.121
20
-64.0674
11
150.345
21
-64.3239
0
LINE
8
BLACK
6
CONTINUOUS
10
150.345
20
-64.3239
11
150.346
21
-64.3247
0
LINE
8
BLACK
6
CONTINUOUS
10
150.346
20
-64.3247
11
150.348
21
-64.3286
0
LINE
8
BLACK
6
CONTINUOUS
10
150.348
20
-64.3286
11
150.351
21
-64.3323
0
LINE
8
BLACK
6
CONTINUOUS
10
150.351
20
-64.3323
11
150.353
21
-64.3346
0
LINE
8
BLACK
6
CONTINUOUS
10
150.353
20
-64.3346
11
150.354
21
-64.3368
0
LINE
8
BLACK
6
CONTINUOUS
10
150.354
20
-64.3368
11
150.356
21
-64.3411
0
LINE
8
BLACK
6
CONTINUOUS
10
150.356
20
-64.3411
11
150.358
21
-64.3452
0
LINE
8
BLACK
6
CONTINUOUS
10
150.358
20
-64.3452
11
150.359
21
-64.3478
0
LINE
8
BLACK
6
CONTINUOUS
10
150.359
20
-64.3478
11
150.36
21
-64.3502
0
LINE
8
BLACK
6
CONTINUOUS
10
150.36
20
-64.3502
11
150.361
21
-64.3548
0
LINE
8
BLACK
6
CONTINUOUS
10
150.361
20
-64.3548
11
150.362
21
-64.3593
0
LINE
8
BLACK
6
CONTINUOUS
10
150.362
20
-64.3593
11
150.363
21
-64.3619
0
LINE
8
BLACK
6
CONTINUOUS
10
150.363
20
-64.3619
11
150.363
21
-64.3645
0
LINE
8
BLACK
6
CONTINUOUS
10
150.363
20
-64.3645
11
150.363
21
-64.3692
0
LINE
8
BLACK
6
CONTINUOUS
10
150.363
20
-64.3692
11
150.364
21
-64.3739
0
LINE
8
BLACK
6
CONTINUOUS
10
150.364
20
-64.3739
11
150.363
21
-64.3765
0
LINE
8
BLACK
6
CONTINUOUS
10
150.363
20
-64.3765
11
150.363
21
-64.3791
0
LINE
8
BLACK
6
CONTINUOUS
10
150.363
20
-64.3791
11
150.363
21
-64.3837
0
LINE
8
BLACK
6
CONTINUOUS
10
150.363
20
-64.3837
11
150.362
21
-64.3884
0
LINE
8
BLACK
6
CONTINUOUS
10
150.362
20
-64.3884
11
150.361
21
-64.3909
0
LINE
8
BLACK
6
CONTINUOUS
10
150.361
20
-64.3909
11
150.361
21
-64.3935
0
LINE
8
BLACK
6
CONTINUOUS
10
150.361
20
-64.3935
11
150.359
21
-64.3979
0
LINE
8
BLACK
6
CONTINUOUS
10
150.359
20
-64.3979
11
150.358
21
-64.4024
0
LINE
8
BLACK
6
CONTINUOUS
10
150.358
20
-64.4024
11
150.357
21
-64.4047
0
LINE
8
BLACK
6
CONTINUOUS
10
150.357
20
-64.4047
11
150.356
21
-64.4072
0
LINE
8
BLACK
6
CONTINUOUS
10
150.356
20
-64.4072
11
150.353
21
-64.4111
0
LINE
8
BLACK
6
CONTINUOUS
10
150.353
20
-64.4111
11
150.351
21
-64.4153
0
LINE
8
BLACK
6
CONTINUOUS
10
150.351
20
-64.4153
11
150.349
21
-64.4173
0
LINE
8
BLACK
6
CONTINUOUS
10
150.349
20
-64.4173
11
150.348
21
-64.4195
0
LINE
8
BLACK
6
CONTINUOUS
10
150.348
20
-64.4195
11
150.345
21
-64.4229
0
LINE
8
BLACK
6
CONTINUOUS
10
150.345
20
-64.4229
11
150.342
21
-64.4266
0
LINE
8
BLACK
6
CONTINUOUS
10
150.342
20
-64.4266
11
150.339
21
-64.4282
0
LINE
8
BLACK
6
CONTINUOUS
10
150.339
20
-64.4282
11
150.338
21
-64.4301
0
LINE
8
BLACK
6
CONTINUOUS
10
150.338
20
-64.4301
11
150.334
21
-64.4328
0
LINE
8
BLACK
6
CONTINUOUS
10
150.334
20
-64.4328
11
150.33
21
-64.4358
0
LINE
8
BLACK
6
CONTINUOUS
10
150.33
20
-64.4358
11
150.328
21
-64.437
0
LINE
8
BLACK
6
CONTINUOUS
10
150.328
20
-64.437
11
150.326
21
-64.4386
0
LINE
8
BLACK
6
CONTINUOUS
10
150.326
20
-64.4386
11
150.321
21
-64.4405
0
LINE
8
BLACK
6
CONTINUOUS
10
150.321
20
-64.4405
11
150.317
21
-64.4427
0
LINE
8
BLACK
6
CONTINUOUS
10
150.317
20
-64.4427
11
150.315
21
-64.4434
0
LINE
8
BLACK
6
CONTINUOUS
10
150.315
20
-64.4434
11
150.312
21
-64.4445
0
LINE
8
BLACK
6
CONTINUOUS
10
150.312
20
-64.4445
11
150.308
21
-64.4455
0
LINE
8
BLACK
6
CONTINUOUS
10
150.308
20
-64.4455
11
150.303
21
-64.4469
0
LINE
8
BLACK
6
CONTINUOUS
10
150.303
20
-64.4469
11
150.301
21
-64.4472
0
LINE
8
BLACK
6
CONTINUOUS
10
150.301
20
-64.4472
11
150.298
21
-64.4477
0
LINE
8
BLACK
6
CONTINUOUS
10
150.298
20
-64.4477
11
150.293
21
-64.4479
0
LINE
8
BLACK
6
CONTINUOUS
10
150.293
20
-64.4479
11
150.289
21
-64.4483
0
LINE
8
BLACK
6
CONTINUOUS
10
150.289
20
-64.4483
11
150.164
21
-64.4483
0
LINE
8
BLACK
6
CONTINUOUS
10
150.164
20
-64.4483
11
150.095
21
-64.4826
0
LINE
8
BLACK
6
CONTINUOUS
10
150.095
20
-64.4826
11
150.065
21
-64.513
0
LINE
8
BLACK
6
CONTINUOUS
10
150.065
20
-64.513
11
150.03
21
-64.5815
0
LINE
8
BLACK
6
CONTINUOUS
10
150.03
20
-64.5815
11
150.03
21
-64.7842
0
LINE
8
BLACK
6
CONTINUOUS
10
150.03
20
-64.7842
11
150.065
21
-64.8527
0
LINE
8
BLACK
6
CONTINUOUS
10
150.065
20
-64.8527
11
150.095
21
-64.8831
0
LINE
8
BLACK
6
CONTINUOUS
10
150.095
20
-64.8831
11
150.164
21
-64.9174
0
LINE
8
BLACK
6
CONTINUOUS
10
150.164
20
-64.9174
11
150.414
21
-64.9174
0
LINE
8
BLACK
6
CONTINUOUS
10
150.414
20
-64.9174
11
150.482
21
-64.8831
0
LINE
8
BLACK
6
CONTINUOUS
10
150.482
20
-64.8831
11
150.521
21
-64.8441
0
LINE
8
BLACK
6
CONTINUOUS
10
150.521
20
-64.8441
11
150.522
21
-64.8434
0
LINE
8
BLACK
6
CONTINUOUS
10
150.522
20
-64.8434
11
150.534
21
-64.8342
0
LINE
8
BLACK
6
CONTINUOUS
10
150.534
20
-64.8342
11
150.547
21
-64.8275
0
LINE
8
BLACK
6
CONTINUOUS
10
150.547
20
-64.8275
11
150.561
21
-64.8234
0
LINE
8
BLACK
6
CONTINUOUS
10
150.561
20
-64.8234
11
150.575
21
-64.8221
0
LINE
8
BLACK
6
CONTINUOUS
10
150.575
20
-64.8221
11
150.59
21
-64.8237
0
LINE
8
BLACK
6
CONTINUOUS
10
150.59
20
-64.8237
11
150.604
21
-64.8281
0
LINE
8
BLACK
6
CONTINUOUS
10
150.604
20
-64.8281
11
150.617
21
-64.8351
0
LINE
8
BLACK
6
CONTINUOUS
10
150.617
20
-64.8351
11
150.628
21
-64.8445
0
LINE
8
BLACK
6
CONTINUOUS
10
150.628
20
-64.8445
11
150.637
21
-64.8559
0
LINE
8
BLACK
6
CONTINUOUS
10
150.637
20
-64.8559
11
150.644
21
-64.8688
0
LINE
8
BLACK
6
CONTINUOUS
10
150.644
20
-64.8688
11
150.648
21
-64.8828
0
LINE
8
BLACK
6
CONTINUOUS
10
150.648
20
-64.8828
11
150.649
21
-64.8974
0
LINE
8
BLACK
6
CONTINUOUS
10
150.649
20
-64.8974
11
150.648
21
-64.912
0
LINE
8
BLACK
6
CONTINUOUS
10
150.648
20
-64.912
11
150.644
21
-64.926
0
LINE
8
BLACK
6
CONTINUOUS
10
150.644
20
-64.926
11
150.637
21
-64.9389
0
LINE
8
BLACK
6
CONTINUOUS
10
150.637
20
-64.9389
11
150.627
21
-64.9502
0
LINE
8
BLACK
6
CONTINUOUS
10
150.627
20
-64.9502
11
150.58
21
-64.9978
0
LINE
8
BLACK
6
CONTINUOUS
10
150.58
20
-64.9978
11
150.579
21
-64.9985
0
LINE
8
BLACK
6
CONTINUOUS
10
150.579
20
-64.9985
11
150.576
21
-65.0012
0
LINE
8
BLACK
6
CONTINUOUS
10
150.576
20
-65.0012
11
150.573
21
-65.0041
0
LINE
8
BLACK
6
CONTINUOUS
10
150.573
20
-65.0041
11
150.57
21
-65.0057
0
LINE
8
BLACK
6
CONTINUOUS
10
150.57
20
-65.0057
11
150.568
21
-65.0077
0
LINE
8
BLACK
6
CONTINUOUS
10
150.568
20
-65.0077
11
150.564
21
-65.0096
0
LINE
8
BLACK
6
CONTINUOUS
10
150.564
20
-65.0096
11
150.56
21
-65.0118
0
LINE
8
BLACK
6
CONTINUOUS
10
150.56
20
-65.0118
11
150.465
21
-65.0595
0
LINE
8
BLACK
6
CONTINUOUS
10
150.465
20
-65.0595
11
150.464
21
-65.0599
0
LINE
8
BLACK
6
CONTINUOUS
10
150.464
20
-65.0599
11
150.462
21
-65.0607
0
LINE
8
BLACK
6
CONTINUOUS
10
150.462
20
-65.0607
11
150.46
21
-65.0617
0
LINE
8
BLACK
6
CONTINUOUS
10
150.46
20
-65.0617
11
150.455
21
-65.0632
0
LINE
8
BLACK
6
CONTINUOUS
10
150.455
20
-65.0632
11
150.45
21
-65.065
0
LINE
8
BLACK
6
CONTINUOUS
10
150.45
20
-65.065
11
150.448
21
-65.0653
0
LINE
8
BLACK
6
CONTINUOUS
10
150.448
20
-65.0653
11
150.446
21
-65.066
0
LINE
8
BLACK
6
CONTINUOUS
10
150.446
20
-65.066
11
150.441
21
-65.0665
0
LINE
8
BLACK
6
CONTINUOUS
10
150.441
20
-65.0665
11
150.436
21
-65.0673
0
LINE
8
BLACK
6
CONTINUOUS
10
150.436
20
-65.0673
11
150.434
21
-65.0672
0
LINE
8
BLACK
6
CONTINUOUS
10
150.434
20
-65.0672
11
150.432
21
-65.0674
0
LINE
8
BLACK
6
CONTINUOUS
10
150.432
20
-65.0674
11
150.146
21
-65.0674
0
LINE
8
BLACK
6
CONTINUOUS
10
150.146
20
-65.0674
11
150.145
21
-65.0674
0
LINE
8
BLACK
6
CONTINUOUS
10
150.145
20
-65.0674
11
150.143
21
-65.0671
0
LINE
8
BLACK
6
CONTINUOUS
10
150.143
20
-65.0671
11
150.14
21
-65.0672
0
LINE
8
BLACK
6
CONTINUOUS
10
150.14
20
-65.0672
11
150.135
21
-65.0663
0
LINE
8
BLACK
6
CONTINUOUS
10
150.135
20
-65.0663
11
150.13
21
-65.0657
0
LINE
8
BLACK
6
CONTINUOUS
10
150.13
20
-65.0657
11
150.128
21
-65.0651
0
LINE
8
BLACK
6
CONTINUOUS
10
150.128
20
-65.0651
11
150.126
21
-65.0647
0
LINE
8
BLACK
6
CONTINUOUS
10
150.126
20
-65.0647
11
150.121
21
-65.0629
0
LINE
8
BLACK
6
CONTINUOUS
10
150.121
20
-65.0629
11
150.116
21
-65.0613
0
LINE
8
BLACK
6
CONTINUOUS
10
150.116
20
-65.0613
11
150.114
21
-65.0603
0
LINE
8
BLACK
6
CONTINUOUS
10
150.114
20
-65.0603
11
150.112
21
-65.0595
0
LINE
8
BLACK
6
CONTINUOUS
10
150.112
20
-65.0595
11
150.017
21
-65.0118
0
LINE
8
BLACK
6
CONTINUOUS
10
150.017
20
-65.0118
11
150.016
21
-65.0114
0
LINE
8
BLACK
6
CONTINUOUS
10
150.016
20
-65.0114
11
150.013
21
-65.0091
0
LINE
8
BLACK
6
CONTINUOUS
10
150.013
20
-65.0091
11
150.009
21
-65.0071
0
LINE
8
BLACK
6
CONTINUOUS
10
150.009
20
-65.0071
11
150.006
21
-65.0051
0
LINE
8
BLACK
6
CONTINUOUS
10
150.006
20
-65.0051
11
150.004
21
-65.0034
0
LINE
8
BLACK
6
CONTINUOUS
10
150.004
20
-65.0034
11
150.001
21
-65.0005
0
LINE
8
BLACK
6
CONTINUOUS
10
150.001
20
-65.0005
11
149.998
21
-64.9978
0
LINE
8
BLACK
6
CONTINUOUS
10
149.998
20
-64.9978
11
149.95
21
-64.9502
0
LINE
8
BLACK
6
CONTINUOUS
10
149.95
20
-64.9502
11
149.949
21
-64.9494
0
LINE
8
BLACK
6
CONTINUOUS
10
149.949
20
-64.9494
11
149.947
21
-64.9461
0
LINE
8
BLACK
6
CONTINUOUS
10
149.947
20
-64.9461
11
149.944
21
-64.9431
0
LINE
8
BLACK
6
CONTINUOUS
10
149.944
20
-64.9431
11
149.942
21
-64.9404
0
LINE
8
BLACK
6
CONTINUOUS
10
149.942
20
-64.9404
11
149.94
21
-64.938
0
LINE
8
BLACK
6
CONTINUOUS
10
149.94
20
-64.938
11
149.938
21
-64.9343
0
LINE
8
BLACK
6
CONTINUOUS
10
149.938
20
-64.9343
11
149.936
21
-64.9307
0
LINE
8
BLACK
6
CONTINUOUS
10
149.936
20
-64.9307
11
149.888
21
-64.8354
0
LINE
8
BLACK
6
CONTINUOUS
10
149.888
20
-64.8354
11
149.888
21
-64.8345
0
LINE
8
BLACK
6
CONTINUOUS
10
149.888
20
-64.8345
11
149.887
21
-64.8324
0
LINE
8
BLACK
6
CONTINUOUS
10
149.887
20
-64.8324
11
149.886
21
-64.8305
0
LINE
8
BLACK
6
CONTINUOUS
10
149.886
20
-64.8305
11
149.885
21
-64.8256
0
LINE
8
BLACK
6
CONTINUOUS
10
149.885
20
-64.8256
11
149.883
21
-64.8208
0
LINE
8
BLACK
6
CONTINUOUS
10
149.883
20
-64.8208
11
149.882
21
-64.8186
0
LINE
8
BLACK
6
CONTINUOUS
10
149.882
20
-64.8186
11
149.882
21
-64.8165
0
LINE
8
BLACK
6
CONTINUOUS
10
149.882
20
-64.8165
11
149.881
21
-64.8114
0
LINE
8
BLACK
6
CONTINUOUS
10
149.881
20
-64.8114
11
149.88
21
-64.8063
0
LINE
8
BLACK
6
CONTINUOUS
10
149.88
20
-64.8063
11
149.881
21
-64.8041
0
LINE
8
BLACK
6
CONTINUOUS
10
149.881
20
-64.8041
11
149.88
21
-64.8019
0
LINE
8
BLACK
6
CONTINUOUS
10
149.88
20
-64.8019
11
149.88
21
-64.5638
0
LINE
8
BLACK
6
CONTINUOUS
10
149.88
20
-64.5638
11
149.88
21
-64.5628
0
LINE
8
BLACK
6
CONTINUOUS
10
149.88
20
-64.5628
11
149.881
21
-64.5606
0
LINE
8
BLACK
6
CONTINUOUS
10
149.881
20
-64.5606
11
149.881
21
-64.5584
0
LINE
8
BLACK
6
CONTINUOUS
10
149.881
20
-64.5584
11
149.881
21
-64.5533
0
LINE
8
BLACK
6
CONTINUOUS
10
149.881
20
-64.5533
11
149.882
21
-64.5482
0
LINE
8
BLACK
6
CONTINUOUS
10
149.882
20
-64.5482
11
149.883
21
-64.5461
0
LINE
8
BLACK
6
CONTINUOUS
10
149.883
20
-64.5461
11
149.883
21
-64.5439
0
LINE
8
BLACK
6
CONTINUOUS
10
149.883
20
-64.5439
11
149.885
21
-64.5391
0
LINE
8
BLACK
6
CONTINUOUS
10
149.885
20
-64.5391
11
149.886
21
-64.5343
0
LINE
8
BLACK
6
CONTINUOUS
10
149.886
20
-64.5343
11
149.887
21
-64.5323
0
LINE
8
BLACK
6
CONTINUOUS
10
149.887
20
-64.5323
11
149.888
21
-64.5303
0
LINE
8
BLACK
6
CONTINUOUS
10
149.888
20
-64.5303
11
149.936
21
-64.435
0
LINE
8
BLACK
6
CONTINUOUS
10
149.936
20
-64.435
11
149.936
21
-64.4341
0
LINE
8
BLACK
6
CONTINUOUS
10
149.936
20
-64.4341
11
149.939
21
-64.4306
0
LINE
8
BLACK
6
CONTINUOUS
10
149.939
20
-64.4306
11
149.941
21
-64.4268
0
LINE
8
BLACK
6
CONTINUOUS
10
149.941
20
-64.4268
11
149.943
21
-64.4244
0
LINE
8
BLACK
6
CONTINUOUS
10
149.943
20
-64.4244
11
149.944
21
-64.4218
0
LINE
8
BLACK
6
CONTINUOUS
10
149.944
20
-64.4218
11
149.947
21
-64.4188
0
LINE
8
BLACK
6
CONTINUOUS
10
149.947
20
-64.4188
11
149.95
21
-64.4155
0
LINE
8
BLACK
6
CONTINUOUS
10
149.95
20
-64.4155
11
149.998
21
-64.3679
0
LINE
8
BLACK
6
CONTINUOUS
10
149.998
20
-64.3679
11
149.998
21
-64.3672
0
LINE
8
BLACK
6
CONTINUOUS
10
149.998
20
-64.3672
11
150.002
21
-64.3646
0
LINE
8
BLACK
6
CONTINUOUS
10
150.002
20
-64.3646
11
150.005
21
-64.3617
0
LINE
8
BLACK
6
CONTINUOUS
10
150.005
20
-64.3617
11
150.007
21
-64.36
0
LINE
8
BLACK
6
CONTINUOUS
10
150.007
20
-64.36
11
150.01
21
-64.3581
0
LINE
8
BLACK
6
CONTINUOUS
10
150.01
20
-64.3581
11
150.013
21
-64.3561
0
LINE
8
BLACK
6
CONTINUOUS
10
150.013
20
-64.3561
11
150.017
21
-64.3539
0
LINE
8
BLACK
6
CONTINUOUS
10
150.017
20
-64.3539
11
150.112
21
-64.3063
0
LINE
8
BLACK
6
CONTINUOUS
10
150.112
20
-64.3063
11
150.113
21
-64.3058
0
LINE
8
BLACK
6
CONTINUOUS
10
150.113
20
-64.3058
11
150.115
21
-64.305
0
LINE
8
BLACK
6
CONTINUOUS
10
150.115
20
-64.305
11
150.117
21
-64.304
0
LINE
8
BLACK
6
CONTINUOUS
10
150.117
20
-64.304
11
150.122
21
-64.3025
0
LINE
8
BLACK
6
CONTINUOUS
10
150.122
20
-64.3025
11
150.126
21
-64.3011
0
LINE
8
BLACK
6
CONTINUOUS
10
150.126
20
-64.3011
11
149.899
21
-64.0418
0
LINE
8
BLACK
6
CONTINUOUS
10
149.899
20
-64.0418
11
149.898
21
-64.041
0
LINE
8
BLACK
6
CONTINUOUS
10
149.898
20
-64.041
11
149.896
21
-64.0371
0
LINE
8
BLACK
6
CONTINUOUS
10
149.896
20
-64.0371
11
149.893
21
-64.0334
0
LINE
8
BLACK
6
CONTINUOUS
10
149.893
20
-64.0334
11
149.891
21
-64.0311
0
LINE
8
BLACK
6
CONTINUOUS
10
149.891
20
-64.0311
11
149.89
21
-64.029
0
LINE
8
BLACK
6
CONTINUOUS
10
149.89
20
-64.029
11
149.888
21
-64.0246
0
LINE
8
BLACK
6
CONTINUOUS
10
149.888
20
-64.0246
11
149.886
21
-64.0205
0
LINE
8
BLACK
6
CONTINUOUS
10
149.886
20
-64.0205
11
149.885
21
-64.0179
0
LINE
8
BLACK
6
CONTINUOUS
10
149.885
20
-64.0179
11
149.884
21
-64.0155
0
LINE
8
BLACK
6
CONTINUOUS
10
149.884
20
-64.0155
11
149.883
21
-64.0109
0
LINE
8
BLACK
6
CONTINUOUS
10
149.883
20
-64.0109
11
149.882
21
-64.0064
0
LINE
8
BLACK
6
CONTINUOUS
10
149.882
20
-64.0064
11
149.881
21
-64.0038
0
LINE
8
BLACK
6
CONTINUOUS
10
149.881
20
-64.0038
11
149.881
21
-64.0012
0
LINE
8
BLACK
6
CONTINUOUS
10
149.881
20
-64.0012
11
149.881
21
-63.9965
0
LINE
8
BLACK
6
CONTINUOUS
10
149.881
20
-63.9965
11
149.88
21
-63.9919
0
LINE
8
BLACK
6
CONTINUOUS
10
149.88
20
-63.9919
11
149.881
21
-63.9892
0
LINE
8
BLACK
6
CONTINUOUS
10
149.881
20
-63.9892
11
149.881
21
-63.9866
0
LINE
8
BLACK
6
CONTINUOUS
10
149.881
20
-63.9866
11
149.881
21
-63.982
0
LINE
8
BLACK
6
CONTINUOUS
10
149.881
20
-63.982
11
149.882
21
-63.9773
0
LINE
8
BLACK
6
CONTINUOUS
10
149.882
20
-63.9773
11
149.883
21
-63.9748
0
LINE
8
BLACK
6
CONTINUOUS
10
149.883
20
-63.9748
11
149.883
21
-63.9722
0
LINE
8
BLACK
6
CONTINUOUS
10
149.883
20
-63.9722
11
149.885
21
-63.9678
0
LINE
8
BLACK
6
CONTINUOUS
10
149.885
20
-63.9678
11
149.886
21
-63.9633
0
LINE
8
BLACK
6
CONTINUOUS
10
149.886
20
-63.9633
11
149.887
21
-63.961
0
LINE
8
BLACK
6
CONTINUOUS
10
149.887
20
-63.961
11
149.888
21
-63.9585
0
LINE
8
BLACK
6
CONTINUOUS
10
149.888
20
-63.9585
11
149.891
21
-63.9546
0
LINE
8
BLACK
6
CONTINUOUS
10
149.891
20
-63.9546
11
149.893
21
-63.9504
0
LINE
8
BLACK
6
CONTINUOUS
10
149.893
20
-63.9504
11
149.895
21
-63.9484
0
LINE
8
BLACK
6
CONTINUOUS
10
149.895
20
-63.9484
11
149.896
21
-63.9462
0
LINE
8
BLACK
6
CONTINUOUS
10
149.896
20
-63.9462
11
149.899
21
-63.9428
0
LINE
8
BLACK
6
CONTINUOUS
10
149.899
20
-63.9428
11
149.902
21
-63.9392
0
LINE
8
BLACK
6
CONTINUOUS
10
149.902
20
-63.9392
11
149.905
21
-63.9375
0
LINE
8
BLACK
6
CONTINUOUS
10
149.905
20
-63.9375
11
149.906
21
-63.9356
0
LINE
8
BLACK
6
CONTINUOUS
10
149.906
20
-63.9356
11
149.91
21
-63.9329
0
LINE
8
BLACK
6
CONTINUOUS
10
149.91
20
-63.9329
11
149.914
21
-63.9299
0
LINE
8
BLACK
6
CONTINUOUS
10
149.914
20
-63.9299
11
149.916
21
-63.9287
0
LINE
8
BLACK
6
CONTINUOUS
10
149.916
20
-63.9287
11
149.918
21
-63.9272
0
LINE
8
BLACK
6
CONTINUOUS
10
149.918
20
-63.9272
11
149.923
21
-63.9252
0
LINE
8
BLACK
6
CONTINUOUS
10
149.923
20
-63.9252
11
149.927
21
-63.923
0
LINE
8
BLACK
6
CONTINUOUS
10
149.927
20
-63.923
11
149.929
21
-63.9223
0
LINE
8
BLACK
6
CONTINUOUS
10
149.929
20
-63.9223
11
149.932
21
-63.9212
0
LINE
8
BLACK
6
CONTINUOUS
10
149.932
20
-63.9212
11
149.936
21
-63.9202
0
LINE
8
BLACK
6
CONTINUOUS
10
149.936
20
-63.9202
11
149.941
21
-63.9188
0
LINE
8
BLACK
6
CONTINUOUS
10
149.941
20
-63.9188
11
149.943
21
-63.9186
0
LINE
8
BLACK
6
CONTINUOUS
10
149.943
20
-63.9186
11
149.946
21
-63.918
0
LINE
8
BLACK
6
CONTINUOUS
10
149.946
20
-63.918
11
149.951
21
-63.9178
0
LINE
8
BLACK
6
CONTINUOUS
10
149.951
20
-63.9178
11
149.955
21
-63.9174
0
LINE
8
BLACK
6
CONTINUOUS
10
149.955
20
-63.9174
11
150.574
21
-63.9174
0
LINE
8
BLACK
6
CONTINUOUS
10
150.574
20
-63.9174
11
150.575
21
-63.9174
0
LINE
8
BLACK
6
CONTINUOUS
10
150.97
20
-63.9189
11
150.984
21
-63.9232
0
LINE
8
BLACK
6
CONTINUOUS
10
150.984
20
-63.9232
11
150.997
21
-63.9302
0
LINE
8
BLACK
6
CONTINUOUS
10
150.997
20
-63.9302
11
151.009
21
-63.9395
0
LINE
8
BLACK
6
CONTINUOUS
10
151.009
20
-63.9395
11
151.018
21
-63.9509
0
LINE
8
BLACK
6
CONTINUOUS
10
151.018
20
-63.9509
11
151.025
21
-63.9638
0
LINE
8
BLACK
6
CONTINUOUS
10
151.025
20
-63.9638
11
151.029
21
-63.9778
0
LINE
8
BLACK
6
CONTINUOUS
10
151.029
20
-63.9778
11
151.03
21
-63.9924
0
LINE
8
BLACK
6
CONTINUOUS
10
151.03
20
-63.9924
11
151.03
21
-64.6945
0
LINE
8
BLACK
6
CONTINUOUS
10
151.03
20
-64.6945
11
151.069
21
-64.809
0
LINE
8
BLACK
6
CONTINUOUS
10
151.069
20
-64.809
11
151.139
21
-64.8792
0
LINE
8
BLACK
6
CONTINUOUS
10
151.139
20
-64.8792
11
151.253
21
-64.9174
0
LINE
8
BLACK
6
CONTINUOUS
10
151.253
20
-64.9174
11
151.336
21
-64.9174
0
LINE
8
BLACK
6
CONTINUOUS
10
151.336
20
-64.9174
11
151.337
21
-64.9174
0
LINE
8
BLACK
6
CONTINUOUS
10
151.337
20
-64.9174
11
151.352
21
-64.919
0
LINE
8
BLACK
6
CONTINUOUS
10
151.352
20
-64.919
11
151.366
21
-64.9234
0
LINE
8
BLACK
6
CONTINUOUS
10
151.366
20
-64.9234
11
151.379
21
-64.9305
0
LINE
8
BLACK
6
CONTINUOUS
10
151.379
20
-64.9305
11
151.39
21
-64.9399
0
LINE
8
BLACK
6
CONTINUOUS
10
151.39
20
-64.9399
11
151.399
21
-64.9513
0
LINE
8
BLACK
6
CONTINUOUS
10
151.399
20
-64.9513
11
151.406
21
-64.9643
0
LINE
8
BLACK
6
CONTINUOUS
10
151.406
20
-64.9643
11
151.41
21
-64.9783
0
LINE
8
BLACK
6
CONTINUOUS
10
151.41
20
-64.9783
11
151.411
21
-64.9929
0
LINE
8
BLACK
6
CONTINUOUS
10
151.411
20
-64.9929
11
151.41
21
-65.0075
0
LINE
8
BLACK
6
CONTINUOUS
10
151.41
20
-65.0075
11
151.405
21
-65.0214
0
LINE
8
BLACK
6
CONTINUOUS
10
151.405
20
-65.0214
11
151.398
21
-65.0343
0
LINE
8
BLACK
6
CONTINUOUS
10
151.398
20
-65.0343
11
151.389
21
-65.0456
0
LINE
8
BLACK
6
CONTINUOUS
10
151.389
20
-65.0456
11
151.378
21
-65.0548
0
LINE
8
BLACK
6
CONTINUOUS
10
151.378
20
-65.0548
11
151.365
21
-65.0617
0
LINE
8
BLACK
6
CONTINUOUS
10
151.365
20
-65.0617
11
151.351
21
-65.066
0
LINE
8
BLACK
6
CONTINUOUS
10
151.351
20
-65.066
11
151.336
21
-65.0674
0
LINE
8
BLACK
6
CONTINUOUS
10
151.336
20
-65.0674
11
151.241
21
-65.0674
0
LINE
8
BLACK
6
CONTINUOUS
10
151.241
20
-65.0674
11
151.24
21
-65.0674
0
LINE
8
BLACK
6
CONTINUOUS
10
151.24
20
-65.0674
11
151.236
21
-65.0669
0
LINE
8
BLACK
6
CONTINUOUS
10
151.236
20
-65.0669
11
151.232
21
-65.0668
0
LINE
8
BLACK
6
CONTINUOUS
10
151.232
20
-65.0668
11
151.229
21
-65.0661
0
LINE
8
BLACK
6
CONTINUOUS
10
151.229
20
-65.0661
11
151.225
21
-65.0657
0
LINE
8
BLACK
6
CONTINUOUS
10
151.225
20
-65.0657
11
151.221
21
-65.0645
0
LINE
8
BLACK
6
CONTINUOUS
10
151.221
20
-65.0645
11
151.217
21
-65.0635
0
LINE
8
BLACK
6
CONTINUOUS
10
151.217
20
-65.0635
11
151.074
21
-65.0159
0
LINE
8
BLACK
6
CONTINUOUS
10
151.074
20
-65.0159
11
151.073
21
-65.0156
0
LINE
8
BLACK
6
CONTINUOUS
10
151.073
20
-65.0156
11
151.071
21
-65.0146
0
LINE
8
BLACK
6
CONTINUOUS
10
151.071
20
-65.0146
11
151.069
21
-65.014
0
LINE
8
BLACK
6
CONTINUOUS
10
151.069
20
-65.014
11
151.065
21
-65.0116
0
LINE
8
BLACK
6
CONTINUOUS
10
151.065
20
-65.0116
11
151.06
21
-65.0094
0
LINE
8
BLACK
6
CONTINUOUS
10
151.06
20
-65.0094
11
151.058
21
-65.0081
0
LINE
8
BLACK
6
CONTINUOUS
10
151.058
20
-65.0081
11
151.056
21
-65.0071
0
LINE
8
BLACK
6
CONTINUOUS
10
151.056
20
-65.0071
11
151.053
21
-65.0038
0
LINE
8
BLACK
6
CONTINUOUS
10
151.053
20
-65.0038
11
151.048
21
-65.0008
0
LINE
8
BLACK
6
CONTINUOUS
10
151.048
20
-65.0008
11
151.047
21
-64.9992
0
LINE
8
BLACK
6
CONTINUOUS
10
151.047
20
-64.9992
11
151.045
21
-64.9978
0
LINE
8
BLACK
6
CONTINUOUS
10
151.045
20
-64.9978
11
150.95
21
-64.9026
0
LINE
8
BLACK
6
CONTINUOUS
10
150.95
20
-64.9026
11
150.949
21
-64.9018
0
LINE
8
BLACK
6
CONTINUOUS
10
150.949
20
-64.9018
11
150.948
21
-64.9001
0
LINE
8
BLACK
6
CONTINUOUS
10
150.948
20
-64.9001
11
150.946
21
-64.8986
0
LINE
8
BLACK
6
CONTINUOUS
10
150.946
20
-64.8986
11
150.943
21
-64.8944
0
LINE
8
BLACK
6
CONTINUOUS
10
150.943
20
-64.8944
11
150.94
21
-64.8904
0
LINE
8
BLACK
6
CONTINUOUS
10
150.94
20
-64.8904
11
150.939
21
-64.8884
0
LINE
8
BLACK
6
CONTINUOUS
10
150.939
20
-64.8884
11
150.938
21
-64.8866
0
LINE
8
BLACK
6
CONTINUOUS
10
150.938
20
-64.8866
11
150.936
21
-64.8819
0
LINE
8
BLACK
6
CONTINUOUS
10
150.936
20
-64.8819
11
150.933
21
-64.8774
0
LINE
8
BLACK
6
CONTINUOUS
10
150.933
20
-64.8774
11
150.933
21
-64.8753
0
LINE
8
BLACK
6
CONTINUOUS
10
150.933
20
-64.8753
11
150.932
21
-64.8732
0
LINE
8
BLACK
6
CONTINUOUS
10
150.932
20
-64.8732
11
150.884
21
-64.7304
0
LINE
8
BLACK
6
CONTINUOUS
10
150.884
20
-64.7304
11
150.884
21
-64.7294
0
LINE
8
BLACK
6
CONTINUOUS
10
150.884
20
-64.7294
11
150.883
21
-64.7253
0
LINE
8
BLACK
6
CONTINUOUS
10
150.883
20
-64.7253
11
150.882
21
-64.7212
0
LINE
8
BLACK
6
CONTINUOUS
10
150.882
20
-64.7212
11
150.881
21
-64.7181
0
LINE
8
BLACK
6
CONTINUOUS
10
150.881
20
-64.7181
11
150.881
21
-64.7151
0
LINE
8
BLACK
6
CONTINUOUS
10
150.881
20
-64.7151
11
150.881
21
-64.7109
0
LINE
8
BLACK
6
CONTINUOUS
10
150.881
20
-64.7109
11
150.88
21
-64.7067
0
LINE
8
BLACK
6
CONTINUOUS
10
150.88
20
-64.7067
11
150.88
21
-63.9924
0
LINE
8
BLACK
6
CONTINUOUS
10
150.88
20
-63.9924
11
150.88
21
-63.9913
0
LINE
8
BLACK
6
CONTINUOUS
10
150.88
20
-63.9913
11
150.882
21
-63.9768
0
LINE
8
BLACK
6
CONTINUOUS
10
150.882
20
-63.9768
11
150.886
21
-63.9628
0
LINE
8
BLACK
6
CONTINUOUS
10
150.886
20
-63.9628
11
150.893
21
-63.95
0
LINE
8
BLACK
6
CONTINUOUS
10
150.893
20
-63.95
11
150.903
21
-63.9388
0
LINE
8
BLACK
6
CONTINUOUS
10
150.903
20
-63.9388
11
150.914
21
-63.9296
0
LINE
8
BLACK
6
CONTINUOUS
10
150.914
20
-63.9296
11
150.927
21
-63.9228
0
LINE
8
BLACK
6
CONTINUOUS
10
150.927
20
-63.9228
11
150.941
21
-63.9187
0
LINE
8
BLACK
6
CONTINUOUS
10
150.941
20
-63.9187
11
150.956
21
-63.9174
0
LINE
8
BLACK
6
CONTINUOUS
10
150.956
20
-63.9174
11
150.97
21
-63.9189
  0
ENDSEC
  0
EOF
