  0
SECTION
  2
HEADER
  9
$ANGBASE
  50
0.0
  9
$ANGDIR
  70
  1
  9
$MEASUREMENT
  70
0
  0
ENDSEC
  0
SECTION
  2
TABLES
  0
TABLE
  2
LTYPE
  70
4
  0
LTYPE
  5
40F
  2
CONTINUOUS
  70
0
  3
Solid line
  72
65
  73
0
  40
0.0
  0
LTYPE
  5
410
  2
DASHDOT
 70
0
  3
Dash Dot ____ _ ____ _
 72
65
 73
4
 40
2.0
 49
1.25
 49
-0.25
 49
0.25
 49
-0.25
  0
LTYPE
  5
411
  2
DASHED
 70
0
  3
Dashed __ __ __ __ __
 72
65
 73
2
 40
0.75
 49
0.5
 49
-0.25
  0
LTYPE
  5
43B
  2
DOTTED
 70
0
  3
Dotted .  .  .  .
 72
65
 73
2
 40
0.2
 49
0.0
 49
-0.2
  0
ENDTAB
  0
TABLE
  2
STYLE
  70
4
  0
STYLE
  2
KICAD
  70
0
  40
0
  41
1
  42
1
  50
0
  71
0
  3
isocp.shx
  0
STYLE
  2
KICADB
  70
0
  40
0
  41
1
  42
1
  50
0
  71
0
  3
isocp.shx
  0
STYLE
  2
KICADI
  70
0
  40
0
  41
1
  42
1
  50
15
  71
0
  3
isocp.shx
  0
STYLE
  2
KICADBI
  70
0
  40
0
  41
1
  42
1
  50
15
  71
0
  3
isocp.shx
  0
ENDTAB
  0
TABLE
  2
LAYER
  70
30
  0
LAYER
  2
BLACK
  70
0
  62
7
  6
CONTINUOUS
  0
LAYER
  2
GRAY1
  70
0
  62
251
  6
CONTINUOUS
  0
LAYER
  2
GRAY2
  70
0
  62
8
  6
CONTINUOUS
  0
LAYER
  2
GRAY3
  70
0
  62
9
  6
CONTINUOUS
  0
LAYER
  2
WHITE
  70
0
  62
7
  6
CONTINUOUS
  0
LAYER
  2
LYELLOW
  70
0
  62
51
  6
CONTINUOUS
  0
LAYER
  2
BLUE1
  70
0
  62
178
  6
CONTINUOUS
  0
LAYER
  2
GREEN1
  70
0
  62
98
  6
CONTINUOUS
  0
LAYER
  2
CYAN1
  70
0
  62
138
  6
CONTINUOUS
  0
LAYER
  2
RED1
  70
0
  62
18
  6
CONTINUOUS
  0
LAYER
  2
MAGENTA1
  70
0
  62
228
  6
CONTINUOUS
  0
LAYER
  2
BROWN1
  70
0
  62
58
  6
CONTINUOUS
  0
LAYER
  2
BLUE2
  70
0
  62
5
  6
CONTINUOUS
  0
LAYER
  2
GREEN2
  70
0
  62
3
  6
CONTINUOUS
  0
LAYER
  2
CYAN2
  70
0
  62
4
  6
CONTINUOUS
  0
LAYER
  2
RED2
  70
0
  62
1
  6
CONTINUOUS
  0
LAYER
  2
MAGENTA2
  70
0
  62
6
  6
CONTINUOUS
  0
LAYER
  2
BROWN2
  70
0
  62
54
  6
CONTINUOUS
  0
LAYER
  2
BLUE3
  70
0
  62
171
  6
CONTINUOUS
  0
LAYER
  2
GREEN3
  70
0
  62
91
  6
CONTINUOUS
  0
LAYER
  2
CYAN3
  70
0
  62
131
  6
CONTINUOUS
  0
LAYER
  2
RED3
  70
0
  62
11
  6
CONTINUOUS
  0
LAYER
  2
MAGENTA3
  70
0
  62
221
  6
CONTINUOUS
  0
LAYER
  2
YELLOW3
  70
0
  62
2
  6
CONTINUOUS
  0
LAYER
  2
BLUE4
  70
0
  62
5
  6
CONTINUOUS
  0
LAYER
  2
GREEN4
  70
0
  62
3
  6
CONTINUOUS
  0
LAYER
  2
CYAN4
  70
0
  62
4
  6
CONTINUOUS
  0
LAYER
  2
RED4
  70
0
  62
1
  6
CONTINUOUS
  0
LAYER
  2
MAGENTA4
  70
0
  62
6
  6
CONTINUOUS
  0
LAYER
  2
YELLOW4
  70
0
  62
2
  6
CONTINUOUS
  0
ENDTAB
  0
ENDSEC
  0
SECTION
  2
ENTITIES
0
LINE
8
BLACK
6
CONTINUOUS
10
190.525
20
-144.78
11
190.525
21
-144.785
0
LINE
8
BLACK
6
CONTINUOUS
10
190.525
20
-144.785
11
190.523
21
-144.79
0
LINE
8
BLACK
6
CONTINUOUS
10
190.523
20
-144.79
11
190.521
21
-144.794
0
LINE
8
BLACK
6
CONTINUOUS
10
190.521
20
-144.794
11
190.518
21
-144.798
0
LINE
8
BLACK
6
CONTINUOUS
10
190.518
20
-144.798
11
190.514
21
-144.801
0
LINE
8
BLACK
6
CONTINUOUS
10
190.514
20
-144.801
11
190.51
21
-144.803
0
LINE
8
BLACK
6
CONTINUOUS
10
190.51
20
-144.803
11
190.505
21
-144.805
0
LINE
8
BLACK
6
CONTINUOUS
10
190.505
20
-144.805
11
190.501
21
-144.805
0
LINE
8
BLACK
6
CONTINUOUS
10
190.501
20
-144.805
11
190.501
21
-144.805
0
LINE
8
BLACK
6
CONTINUOUS
10
190.501
20
-144.805
11
190.5
21
-144.805
0
LINE
8
BLACK
6
CONTINUOUS
10
190.5
20
-144.805
11
190.499
21
-144.805
0
LINE
8
BLACK
6
CONTINUOUS
10
190.499
20
-144.805
11
59.6912
21
-144.805
0
LINE
8
BLACK
6
CONTINUOUS
10
59.6912
20
-144.805
11
59.69
21
-144.805
0
LINE
8
BLACK
6
CONTINUOUS
10
59.69
20
-144.805
11
59.6888
21
-144.805
0
LINE
8
BLACK
6
CONTINUOUS
10
59.6888
20
-144.805
11
59.6888
21
-144.805
0
LINE
8
BLACK
6
CONTINUOUS
10
59.6888
20
-144.805
11
59.6851
21
-144.805
0
LINE
8
BLACK
6
CONTINUOUS
10
59.6851
20
-144.805
11
59.6804
21
-144.803
0
LINE
8
BLACK
6
CONTINUOUS
10
59.6804
20
-144.803
11
59.676
21
-144.801
0
LINE
8
BLACK
6
CONTINUOUS
10
59.676
20
-144.801
11
59.6722
21
-144.798
0
LINE
8
BLACK
6
CONTINUOUS
10
59.6722
20
-144.798
11
59.6691
21
-144.794
0
LINE
8
BLACK
6
CONTINUOUS
10
59.6691
20
-144.794
11
59.6668
21
-144.79
0
LINE
8
BLACK
6
CONTINUOUS
10
59.6668
20
-144.79
11
59.6654
21
-144.785
0
LINE
8
BLACK
6
CONTINUOUS
10
59.6654
20
-144.785
11
59.6649
21
-144.78
0
LINE
8
BLACK
6
CONTINUOUS
10
59.6649
20
-144.78
11
59.665
21
-144.779
0
LINE
8
BLACK
6
CONTINUOUS
10
59.665
20
-144.779
11
59.665
21
-38.8632
0
LINE
8
BLACK
6
CONTINUOUS
10
59.665
20
-38.8632
11
59.6649
21
-38.862
0
LINE
8
BLACK
6
CONTINUOUS
10
59.6649
20
-38.862
11
59.6654
21
-38.8571
0
LINE
8
BLACK
6
CONTINUOUS
10
59.6654
20
-38.8571
11
59.6668
21
-38.8524
0
LINE
8
BLACK
6
CONTINUOUS
10
59.6668
20
-38.8524
11
59.6691
21
-38.848
0
LINE
8
BLACK
6
CONTINUOUS
10
59.6691
20
-38.848
11
59.6722
21
-38.8442
0
LINE
8
BLACK
6
CONTINUOUS
10
59.6722
20
-38.8442
11
59.676
21
-38.8411
0
LINE
8
BLACK
6
CONTINUOUS
10
59.676
20
-38.8411
11
59.6804
21
-38.8388
0
LINE
8
BLACK
6
CONTINUOUS
10
59.6804
20
-38.8388
11
59.6851
21
-38.8374
0
LINE
8
BLACK
6
CONTINUOUS
10
59.6851
20
-38.8374
11
59.6888
21
-38.837
0
LINE
8
BLACK
6
CONTINUOUS
10
59.6888
20
-38.837
11
59.69
21
-38.8369
0
LINE
8
BLACK
6
CONTINUOUS
10
59.69
20
-38.8369
11
59.6912
21
-38.837
0
LINE
8
BLACK
6
CONTINUOUS
10
59.6912
20
-38.837
11
190.499
21
-38.837
0
LINE
8
BLACK
6
CONTINUOUS
10
190.499
20
-38.837
11
190.5
21
-38.8369
0
LINE
8
BLACK
6
CONTINUOUS
10
190.5
20
-38.8369
11
190.501
21
-38.837
0
LINE
8
BLACK
6
CONTINUOUS
10
190.501
20
-38.837
11
190.505
21
-38.8374
0
LINE
8
BLACK
6
CONTINUOUS
10
190.505
20
-38.8374
11
190.51
21
-38.8388
0
LINE
8
BLACK
6
CONTINUOUS
10
190.51
20
-38.8388
11
190.514
21
-38.8411
0
LINE
8
BLACK
6
CONTINUOUS
10
190.514
20
-38.8411
11
190.518
21
-38.8442
0
LINE
8
BLACK
6
CONTINUOUS
10
190.518
20
-38.8442
11
190.521
21
-38.848
0
LINE
8
BLACK
6
CONTINUOUS
10
190.521
20
-38.848
11
190.523
21
-38.8524
0
LINE
8
BLACK
6
CONTINUOUS
10
190.523
20
-38.8524
11
190.525
21
-38.8571
0
LINE
8
BLACK
6
CONTINUOUS
10
190.525
20
-38.8571
11
190.525
21
-38.862
0
LINE
8
BLACK
6
CONTINUOUS
10
190.525
20
-38.862
11
190.525
21
-38.8632
0
LINE
8
BLACK
6
CONTINUOUS
10
190.525
20
-38.8632
11
190.525
21
-144.779
0
LINE
8
BLACK
6
CONTINUOUS
10
190.525
20
-144.779
11
190.525
21
-144.78
0
LINE
8
BLACK
6
CONTINUOUS
10
59.715
20
-38.887
11
59.715
21
-144.755
0
LINE
8
BLACK
6
CONTINUOUS
10
59.715
20
-144.755
11
190.475
21
-144.755
0
LINE
8
BLACK
6
CONTINUOUS
10
190.475
20
-144.755
11
190.475
21
-39.8792
0
LINE
8
BLACK
6
CONTINUOUS
10
190.475
20
-39.8792
11
190.475
21
-39.8792
0
LINE
8
BLACK
6
CONTINUOUS
10
190.475
20
-39.8792
11
190.475
21
-38.887
0
LINE
8
BLACK
6
CONTINUOUS
10
190.475
20
-38.887
11
59.715
21
-38.887
  0
ENDSEC
  0
EOF
