M48
; DRILL file {KiCad (5.1.2)-2} date 5/14/2020 10:23:40 AM
; FORMAT={2:4/ absolute / inch / suppress leading zeros}
; #@! TF.CreationDate,2020-05-14T10:23:40+07:00
; #@! TF.GenerationSoftware,Kicad,Pcbnew,(5.1.2)-2
FMAT,2
INCH,TZ
T1C0.0394
T2C0.0787
%
G90
G05
T1
X32900Y-26719
X32900Y-27719
X32900Y-28719
X32900Y-29719
X32900Y-30719
X32900Y-31719
X32900Y-32719
X32900Y-33719
X32900Y-34719
X32900Y-35719
X32900Y-36719
X32900Y-37719
X32900Y-38719
X32900Y-39719
X32900Y-40719
X32900Y-41719
X32900Y-42719
X32900Y-43719
X32900Y-44719
X32900Y-45719
X33900Y-26719
X33900Y-27719
X33900Y-28719
X33900Y-29719
X33900Y-30719
X33900Y-31719
X33900Y-32719
X33900Y-33719
X33900Y-34719
X33900Y-35719
X33900Y-36719
X33900Y-37719
X33900Y-38719
X33900Y-39719
X33900Y-40719
X33900Y-41719
X33900Y-42719
X33900Y-43719
X33900Y-44719
X33900Y-45719
X64100Y-26500
X64100Y-27500
X64100Y-28500
X64100Y-29500
X64100Y-30500
X64100Y-31500
X64100Y-32500
X64100Y-33500
X64100Y-34500
X64100Y-35500
X64100Y-36500
X64100Y-37500
X64100Y-38500
X64100Y-39500
X64100Y-40500
X64100Y-41500
X64100Y-42500
X64100Y-43500
X64100Y-44500
X64100Y-45500
X65100Y-26500
X65100Y-27500
X65100Y-28500
X65100Y-29500
X65100Y-30500
X65100Y-31500
X65100Y-32500
X65100Y-33500
X65100Y-34500
X65100Y-35500
X65100Y-36500
X65100Y-37500
X65100Y-38500
X65100Y-39500
X65100Y-40500
X65100Y-41500
X65100Y-42500
X65100Y-43500
X65100Y-44500
X65100Y-45500
X58800Y-26500
X58800Y-27500
X58800Y-28500
X58800Y-29500
X58800Y-30500
X58800Y-31500
X58800Y-32500
X58800Y-33500
X58800Y-34500
X58800Y-35500
X58800Y-36500
X58800Y-37500
X58800Y-38500
X58800Y-39500
X58800Y-40500
X58800Y-41500
X58800Y-42500
X58800Y-43500
X58800Y-44500
X58800Y-45500
X58800Y-46500
X58800Y-47500
X58800Y-48500
X58800Y-49500
X58800Y-50500
X59800Y-26500
X59800Y-27500
X59800Y-28500
X59800Y-29500
X59800Y-30500
X59800Y-31500
X59800Y-32500
X59800Y-33500
X59800Y-34500
X59800Y-35500
X59800Y-36500
X59800Y-37500
X59800Y-38500
X59800Y-39500
X59800Y-40500
X59800Y-41500
X59800Y-42500
X59800Y-43500
X59800Y-44500
X59800Y-45500
X59800Y-46500
X59800Y-47500
X59800Y-48500
X59800Y-49500
X59800Y-50500
X38800Y-26700
X38800Y-27700
X38800Y-28700
X38800Y-29700
X38800Y-30700
X38800Y-31700
X38800Y-32700
X38800Y-33700
X38800Y-34700
X38800Y-35700
X38800Y-36700
X38800Y-37700
X38800Y-38700
X38800Y-39700
X38800Y-40700
X38800Y-41700
X38800Y-42700
X38800Y-43700
X38800Y-44700
X38800Y-45700
X38800Y-46700
X38800Y-47700
X38800Y-48700
X38800Y-49700
X38800Y-50700
X39800Y-26700
X39800Y-27700
X39800Y-28700
X39800Y-29700
X39800Y-30700
X39800Y-31700
X39800Y-32700
X39800Y-33700
X39800Y-34700
X39800Y-35700
X39800Y-36700
X39800Y-37700
X39800Y-38700
X39800Y-39700
X39800Y-40700
X39800Y-41700
X39800Y-42700
X39800Y-43700
X39800Y-44700
X39800Y-45700
X39800Y-46700
X39800Y-47700
X39800Y-48700
X39800Y-49700
X39800Y-50700
X39500Y-54200
X40500Y-54200
X41500Y-54200
X42500Y-54200
X43500Y-54200
X44500Y-54200
X45500Y-54200
X46500Y-54200
X47500Y-54200
X48500Y-54200
X49500Y-54200
X50500Y-54200
X51500Y-54200
X52500Y-54200
X53500Y-54200
X54500Y-54200
X55500Y-54200
X56500Y-54200
X57500Y-54200
X58500Y-54200
T2
X26400Y-17500
X26400Y-44800
X26400Y-54400
X71600Y-44900
X71600Y-54600
X72400Y-17600
T0
M30
