  0
SECTION
  2
HEADER
  9
$ANGBASE
  50
0.0
  9
$ANGDIR
  70
  1
  9
$MEASUREMENT
  70
0
  0
ENDSEC
  0
SECTION
  2
TABLES
  0
TABLE
  2
LTYPE
  70
4
  0
LTYPE
  5
40F
  2
CONTINUOUS
  70
0
  3
Solid line
  72
65
  73
0
  40
0.0
  0
LTYPE
  5
410
  2
DASHDOT
 70
0
  3
Dash Dot ____ _ ____ _
 72
65
 73
4
 40
2.0
 49
1.25
 49
-0.25
 49
0.25
 49
-0.25
  0
LTYPE
  5
411
  2
DASHED
 70
0
  3
Dashed __ __ __ __ __
 72
65
 73
2
 40
0.75
 49
0.5
 49
-0.25
  0
LTYPE
  5
43B
  2
DOTTED
 70
0
  3
Dotted .  .  .  .
 72
65
 73
2
 40
0.2
 49
0.0
 49
-0.2
  0
ENDTAB
  0
TABLE
  2
STYLE
  70
4
  0
STYLE
  2
KICAD
  70
0
  40
0
  41
1
  42
1
  50
0
  71
0
  3
isocp.shx
  0
STYLE
  2
KICADB
  70
0
  40
0
  41
1
  42
1
  50
0
  71
0
  3
isocp.shx
  0
STYLE
  2
KICADI
  70
0
  40
0
  41
1
  42
1
  50
15
  71
0
  3
isocp.shx
  0
STYLE
  2
KICADBI
  70
0
  40
0
  41
1
  42
1
  50
15
  71
0
  3
isocp.shx
  0
ENDTAB
  0
TABLE
  2
LAYER
  70
30
  0
LAYER
  2
BLACK
  70
0
  62
7
  6
CONTINUOUS
  0
LAYER
  2
GRAY1
  70
0
  62
251
  6
CONTINUOUS
  0
LAYER
  2
GRAY2
  70
0
  62
8
  6
CONTINUOUS
  0
LAYER
  2
GRAY3
  70
0
  62
9
  6
CONTINUOUS
  0
LAYER
  2
WHITE
  70
0
  62
7
  6
CONTINUOUS
  0
LAYER
  2
LYELLOW
  70
0
  62
51
  6
CONTINUOUS
  0
LAYER
  2
BLUE1
  70
0
  62
178
  6
CONTINUOUS
  0
LAYER
  2
GREEN1
  70
0
  62
98
  6
CONTINUOUS
  0
LAYER
  2
CYAN1
  70
0
  62
138
  6
CONTINUOUS
  0
LAYER
  2
RED1
  70
0
  62
18
  6
CONTINUOUS
  0
LAYER
  2
MAGENTA1
  70
0
  62
228
  6
CONTINUOUS
  0
LAYER
  2
BROWN1
  70
0
  62
58
  6
CONTINUOUS
  0
LAYER
  2
BLUE2
  70
0
  62
5
  6
CONTINUOUS
  0
LAYER
  2
GREEN2
  70
0
  62
3
  6
CONTINUOUS
  0
LAYER
  2
CYAN2
  70
0
  62
4
  6
CONTINUOUS
  0
LAYER
  2
RED2
  70
0
  62
1
  6
CONTINUOUS
  0
LAYER
  2
MAGENTA2
  70
0
  62
6
  6
CONTINUOUS
  0
LAYER
  2
BROWN2
  70
0
  62
54
  6
CONTINUOUS
  0
LAYER
  2
BLUE3
  70
0
  62
171
  6
CONTINUOUS
  0
LAYER
  2
GREEN3
  70
0
  62
91
  6
CONTINUOUS
  0
LAYER
  2
CYAN3
  70
0
  62
131
  6
CONTINUOUS
  0
LAYER
  2
RED3
  70
0
  62
11
  6
CONTINUOUS
  0
LAYER
  2
MAGENTA3
  70
0
  62
221
  6
CONTINUOUS
  0
LAYER
  2
YELLOW3
  70
0
  62
2
  6
CONTINUOUS
  0
LAYER
  2
BLUE4
  70
0
  62
5
  6
CONTINUOUS
  0
LAYER
  2
GREEN4
  70
0
  62
3
  6
CONTINUOUS
  0
LAYER
  2
CYAN4
  70
0
  62
4
  6
CONTINUOUS
  0
LAYER
  2
RED4
  70
0
  62
1
  6
CONTINUOUS
  0
LAYER
  2
MAGENTA4
  70
0
  62
6
  6
CONTINUOUS
  0
LAYER
  2
YELLOW4
  70
0
  62
2
  6
CONTINUOUS
  0
ENDTAB
  0
ENDSEC
  0
SECTION
  2
ENTITIES
0
LINE
8
BLACK
6
CONTINUOUS
10
183.031
20
-134.838
11
183.759
21
-135.139
0
LINE
8
BLACK
6
CONTINUOUS
10
183.759
20
-135.139
11
184.414
21
-135.577
0
LINE
8
BLACK
6
CONTINUOUS
10
184.414
20
-135.577
11
184.971
21
-136.134
0
LINE
8
BLACK
6
CONTINUOUS
10
184.971
20
-136.134
11
185.409
21
-136.789
0
LINE
8
BLACK
6
CONTINUOUS
10
185.409
20
-136.789
11
185.71
21
-137.517
0
LINE
8
BLACK
6
CONTINUOUS
10
185.71
20
-137.517
11
185.864
21
-138.29
0
LINE
8
BLACK
6
CONTINUOUS
10
185.864
20
-138.29
11
185.864
21
-139.078
0
LINE
8
BLACK
6
CONTINUOUS
10
185.864
20
-139.078
11
185.71
21
-139.851
0
LINE
8
BLACK
6
CONTINUOUS
10
185.71
20
-139.851
11
185.409
21
-140.579
0
LINE
8
BLACK
6
CONTINUOUS
10
185.409
20
-140.579
11
184.971
21
-141.234
0
LINE
8
BLACK
6
CONTINUOUS
10
184.971
20
-141.234
11
184.414
21
-141.791
0
LINE
8
BLACK
6
CONTINUOUS
10
184.414
20
-141.791
11
183.759
21
-142.229
0
LINE
8
BLACK
6
CONTINUOUS
10
183.759
20
-142.229
11
183.031
21
-142.53
0
LINE
8
BLACK
6
CONTINUOUS
10
183.031
20
-142.53
11
182.258
21
-142.684
0
LINE
8
BLACK
6
CONTINUOUS
10
182.258
20
-142.684
11
181.47
21
-142.684
0
LINE
8
BLACK
6
CONTINUOUS
10
181.47
20
-142.684
11
180.697
21
-142.53
0
LINE
8
BLACK
6
CONTINUOUS
10
180.697
20
-142.53
11
179.969
21
-142.229
0
LINE
8
BLACK
6
CONTINUOUS
10
179.969
20
-142.229
11
179.314
21
-141.791
0
LINE
8
BLACK
6
CONTINUOUS
10
179.314
20
-141.791
11
178.757
21
-141.234
0
LINE
8
BLACK
6
CONTINUOUS
10
178.757
20
-141.234
11
178.319
21
-140.579
0
LINE
8
BLACK
6
CONTINUOUS
10
178.319
20
-140.579
11
178.018
21
-139.851
0
LINE
8
BLACK
6
CONTINUOUS
10
178.018
20
-139.851
11
177.864
21
-139.078
0
LINE
8
BLACK
6
CONTINUOUS
10
177.864
20
-139.078
11
177.864
21
-138.29
0
LINE
8
BLACK
6
CONTINUOUS
10
177.864
20
-138.29
11
178.018
21
-137.517
0
LINE
8
BLACK
6
CONTINUOUS
10
178.018
20
-137.517
11
178.319
21
-136.789
0
LINE
8
BLACK
6
CONTINUOUS
10
178.319
20
-136.789
11
178.757
21
-136.134
0
LINE
8
BLACK
6
CONTINUOUS
10
178.757
20
-136.134
11
179.314
21
-135.577
0
LINE
8
BLACK
6
CONTINUOUS
10
179.314
20
-135.577
11
179.969
21
-135.139
0
LINE
8
BLACK
6
CONTINUOUS
10
179.969
20
-135.139
11
180.697
21
-134.838
0
LINE
8
BLACK
6
CONTINUOUS
10
180.697
20
-134.838
11
181.47
21
-134.684
0
LINE
8
BLACK
6
CONTINUOUS
10
181.47
20
-134.684
11
182.258
21
-134.684
0
LINE
8
BLACK
6
CONTINUOUS
10
182.258
20
-134.684
11
183.031
21
-134.838
0
LINE
8
BLACK
6
CONTINUOUS
10
68.2228
20
-134.33
11
68.9507
21
-134.631
0
LINE
8
BLACK
6
CONTINUOUS
10
68.9507
20
-134.631
11
69.6059
21
-135.069
0
LINE
8
BLACK
6
CONTINUOUS
10
69.6059
20
-135.069
11
70.163
21
-135.626
0
LINE
8
BLACK
6
CONTINUOUS
10
70.163
20
-135.626
11
70.6008
21
-136.281
0
LINE
8
BLACK
6
CONTINUOUS
10
70.6008
20
-136.281
11
70.9023
21
-137.009
0
LINE
8
BLACK
6
CONTINUOUS
10
70.9023
20
-137.009
11
71.056
21
-137.782
0
LINE
8
BLACK
6
CONTINUOUS
10
71.056
20
-137.782
11
71.056
21
-138.57
0
LINE
8
BLACK
6
CONTINUOUS
10
71.056
20
-138.57
11
70.9023
21
-139.343
0
LINE
8
BLACK
6
CONTINUOUS
10
70.9023
20
-139.343
11
70.6008
21
-140.071
0
LINE
8
BLACK
6
CONTINUOUS
10
70.6008
20
-140.071
11
70.163
21
-140.726
0
LINE
8
BLACK
6
CONTINUOUS
10
70.163
20
-140.726
11
69.6059
21
-141.283
0
LINE
8
BLACK
6
CONTINUOUS
10
69.6059
20
-141.283
11
68.9507
21
-141.721
0
LINE
8
BLACK
6
CONTINUOUS
10
68.9507
20
-141.721
11
68.2228
21
-142.022
0
LINE
8
BLACK
6
CONTINUOUS
10
68.2228
20
-142.022
11
67.45
21
-142.176
0
LINE
8
BLACK
6
CONTINUOUS
10
67.45
20
-142.176
11
66.662
21
-142.176
0
LINE
8
BLACK
6
CONTINUOUS
10
66.662
20
-142.176
11
65.8892
21
-142.022
0
LINE
8
BLACK
6
CONTINUOUS
10
65.8892
20
-142.022
11
65.1613
21
-141.721
0
LINE
8
BLACK
6
CONTINUOUS
10
65.1613
20
-141.721
11
64.5061
21
-141.283
0
LINE
8
BLACK
6
CONTINUOUS
10
64.5061
20
-141.283
11
63.949
21
-140.726
0
LINE
8
BLACK
6
CONTINUOUS
10
63.949
20
-140.726
11
63.5112
21
-140.071
0
LINE
8
BLACK
6
CONTINUOUS
10
63.5112
20
-140.071
11
63.2097
21
-139.343
0
LINE
8
BLACK
6
CONTINUOUS
10
63.2097
20
-139.343
11
63.056
21
-138.57
0
LINE
8
BLACK
6
CONTINUOUS
10
63.056
20
-138.57
11
63.056
21
-137.782
0
LINE
8
BLACK
6
CONTINUOUS
10
63.056
20
-137.782
11
63.2097
21
-137.009
0
LINE
8
BLACK
6
CONTINUOUS
10
63.2097
20
-137.009
11
63.5112
21
-136.281
0
LINE
8
BLACK
6
CONTINUOUS
10
63.5112
20
-136.281
11
63.949
21
-135.626
0
LINE
8
BLACK
6
CONTINUOUS
10
63.949
20
-135.626
11
64.5061
21
-135.069
0
LINE
8
BLACK
6
CONTINUOUS
10
64.5061
20
-135.069
11
65.1613
21
-134.631
0
LINE
8
BLACK
6
CONTINUOUS
10
65.1613
20
-134.631
11
65.8892
21
-134.33
0
LINE
8
BLACK
6
CONTINUOUS
10
65.8892
20
-134.33
11
66.662
21
-134.176
0
LINE
8
BLACK
6
CONTINUOUS
10
66.662
20
-134.176
11
67.45
21
-134.176
0
LINE
8
BLACK
6
CONTINUOUS
10
67.45
20
-134.176
11
68.2228
21
-134.33
0
LINE
8
BLACK
6
CONTINUOUS
10
126.83
20
-138.768
11
124.63
21
-138.768
0
LINE
8
BLACK
6
CONTINUOUS
10
124.63
20
-138.768
11
124.63
21
-136.568
0
LINE
8
BLACK
6
CONTINUOUS
10
124.63
20
-136.568
11
126.83
21
-136.568
0
LINE
8
BLACK
6
CONTINUOUS
10
126.83
20
-136.568
11
126.83
21
-138.768
0
LINE
8
BLACK
6
CONTINUOUS
10
101.43
20
-138.768
11
99.23
21
-138.768
0
LINE
8
BLACK
6
CONTINUOUS
10
99.23
20
-138.768
11
99.23
21
-136.568
0
LINE
8
BLACK
6
CONTINUOUS
10
99.23
20
-136.568
11
101.43
21
-136.568
0
LINE
8
BLACK
6
CONTINUOUS
10
101.43
20
-136.568
11
101.43
21
-138.768
0
LINE
8
BLACK
6
CONTINUOUS
10
103.97
20
-138.768
11
101.77
21
-138.768
0
LINE
8
BLACK
6
CONTINUOUS
10
101.77
20
-138.768
11
101.77
21
-136.568
0
LINE
8
BLACK
6
CONTINUOUS
10
101.77
20
-136.568
11
103.97
21
-136.568
0
LINE
8
BLACK
6
CONTINUOUS
10
103.97
20
-136.568
11
103.97
21
-138.768
0
LINE
8
BLACK
6
CONTINUOUS
10
106.51
20
-138.768
11
104.31
21
-138.768
0
LINE
8
BLACK
6
CONTINUOUS
10
104.31
20
-138.768
11
104.31
21
-136.568
0
LINE
8
BLACK
6
CONTINUOUS
10
104.31
20
-136.568
11
106.51
21
-136.568
0
LINE
8
BLACK
6
CONTINUOUS
10
106.51
20
-136.568
11
106.51
21
-138.768
0
LINE
8
BLACK
6
CONTINUOUS
10
109.05
20
-138.768
11
106.85
21
-138.768
0
LINE
8
BLACK
6
CONTINUOUS
10
106.85
20
-138.768
11
106.85
21
-136.568
0
LINE
8
BLACK
6
CONTINUOUS
10
106.85
20
-136.568
11
109.05
21
-136.568
0
LINE
8
BLACK
6
CONTINUOUS
10
109.05
20
-136.568
11
109.05
21
-138.768
0
LINE
8
BLACK
6
CONTINUOUS
10
111.59
20
-138.768
11
109.39
21
-138.768
0
LINE
8
BLACK
6
CONTINUOUS
10
109.39
20
-138.768
11
109.39
21
-136.568
0
LINE
8
BLACK
6
CONTINUOUS
10
109.39
20
-136.568
11
111.59
21
-136.568
0
LINE
8
BLACK
6
CONTINUOUS
10
111.59
20
-136.568
11
111.59
21
-138.768
0
LINE
8
BLACK
6
CONTINUOUS
10
114.13
20
-138.768
11
111.93
21
-138.768
0
LINE
8
BLACK
6
CONTINUOUS
10
111.93
20
-138.768
11
111.93
21
-136.568
0
LINE
8
BLACK
6
CONTINUOUS
10
111.93
20
-136.568
11
114.13
21
-136.568
0
LINE
8
BLACK
6
CONTINUOUS
10
114.13
20
-136.568
11
114.13
21
-138.768
0
LINE
8
BLACK
6
CONTINUOUS
10
116.67
20
-138.768
11
114.47
21
-138.768
0
LINE
8
BLACK
6
CONTINUOUS
10
114.47
20
-138.768
11
114.47
21
-136.568
0
LINE
8
BLACK
6
CONTINUOUS
10
114.47
20
-136.568
11
116.67
21
-136.568
0
LINE
8
BLACK
6
CONTINUOUS
10
116.67
20
-136.568
11
116.67
21
-138.768
0
LINE
8
BLACK
6
CONTINUOUS
10
119.21
20
-138.768
11
117.01
21
-138.768
0
LINE
8
BLACK
6
CONTINUOUS
10
117.01
20
-138.768
11
117.01
21
-136.568
0
LINE
8
BLACK
6
CONTINUOUS
10
117.01
20
-136.568
11
119.21
21
-136.568
0
LINE
8
BLACK
6
CONTINUOUS
10
119.21
20
-136.568
11
119.21
21
-138.768
0
LINE
8
BLACK
6
CONTINUOUS
10
121.75
20
-138.768
11
119.55
21
-138.768
0
LINE
8
BLACK
6
CONTINUOUS
10
119.55
20
-138.768
11
119.55
21
-136.568
0
LINE
8
BLACK
6
CONTINUOUS
10
119.55
20
-136.568
11
121.75
21
-136.568
0
LINE
8
BLACK
6
CONTINUOUS
10
121.75
20
-136.568
11
121.75
21
-138.768
0
LINE
8
BLACK
6
CONTINUOUS
10
124.29
20
-138.768
11
122.09
21
-138.768
0
LINE
8
BLACK
6
CONTINUOUS
10
122.09
20
-138.768
11
122.09
21
-136.568
0
LINE
8
BLACK
6
CONTINUOUS
10
122.09
20
-136.568
11
124.29
21
-136.568
0
LINE
8
BLACK
6
CONTINUOUS
10
124.29
20
-136.568
11
124.29
21
-138.768
0
LINE
8
BLACK
6
CONTINUOUS
10
129.37
20
-138.768
11
127.17
21
-138.768
0
LINE
8
BLACK
6
CONTINUOUS
10
127.17
20
-138.768
11
127.17
21
-136.568
0
LINE
8
BLACK
6
CONTINUOUS
10
127.17
20
-136.568
11
129.37
21
-136.568
0
LINE
8
BLACK
6
CONTINUOUS
10
129.37
20
-136.568
11
129.37
21
-138.768
0
LINE
8
BLACK
6
CONTINUOUS
10
131.91
20
-138.768
11
129.71
21
-138.768
0
LINE
8
BLACK
6
CONTINUOUS
10
129.71
20
-138.768
11
129.71
21
-136.568
0
LINE
8
BLACK
6
CONTINUOUS
10
129.71
20
-136.568
11
131.91
21
-136.568
0
LINE
8
BLACK
6
CONTINUOUS
10
131.91
20
-136.568
11
131.91
21
-138.768
0
LINE
8
BLACK
6
CONTINUOUS
10
134.45
20
-138.768
11
132.25
21
-138.768
0
LINE
8
BLACK
6
CONTINUOUS
10
132.25
20
-138.768
11
132.25
21
-136.568
0
LINE
8
BLACK
6
CONTINUOUS
10
132.25
20
-136.568
11
134.45
21
-136.568
0
LINE
8
BLACK
6
CONTINUOUS
10
134.45
20
-136.568
11
134.45
21
-138.768
0
LINE
8
BLACK
6
CONTINUOUS
10
136.99
20
-138.768
11
134.79
21
-138.768
0
LINE
8
BLACK
6
CONTINUOUS
10
134.79
20
-138.768
11
134.79
21
-136.568
0
LINE
8
BLACK
6
CONTINUOUS
10
134.79
20
-136.568
11
136.99
21
-136.568
0
LINE
8
BLACK
6
CONTINUOUS
10
136.99
20
-136.568
11
136.99
21
-138.768
0
LINE
8
BLACK
6
CONTINUOUS
10
139.53
20
-138.768
11
137.33
21
-138.768
0
LINE
8
BLACK
6
CONTINUOUS
10
137.33
20
-138.768
11
137.33
21
-136.568
0
LINE
8
BLACK
6
CONTINUOUS
10
137.33
20
-136.568
11
139.53
21
-136.568
0
LINE
8
BLACK
6
CONTINUOUS
10
139.53
20
-136.568
11
139.53
21
-138.768
0
LINE
8
BLACK
6
CONTINUOUS
10
142.07
20
-138.768
11
139.87
21
-138.768
0
LINE
8
BLACK
6
CONTINUOUS
10
139.87
20
-138.768
11
139.87
21
-136.568
0
LINE
8
BLACK
6
CONTINUOUS
10
139.87
20
-136.568
11
142.07
21
-136.568
0
LINE
8
BLACK
6
CONTINUOUS
10
142.07
20
-136.568
11
142.07
21
-138.768
0
LINE
8
BLACK
6
CONTINUOUS
10
144.61
20
-138.768
11
142.41
21
-138.768
0
LINE
8
BLACK
6
CONTINUOUS
10
142.41
20
-138.768
11
142.41
21
-136.568
0
LINE
8
BLACK
6
CONTINUOUS
10
142.41
20
-136.568
11
144.61
21
-136.568
0
LINE
8
BLACK
6
CONTINUOUS
10
144.61
20
-136.568
11
144.61
21
-138.768
0
LINE
8
BLACK
6
CONTINUOUS
10
147.15
20
-138.768
11
144.95
21
-138.768
0
LINE
8
BLACK
6
CONTINUOUS
10
144.95
20
-138.768
11
144.95
21
-136.568
0
LINE
8
BLACK
6
CONTINUOUS
10
144.95
20
-136.568
11
147.15
21
-136.568
0
LINE
8
BLACK
6
CONTINUOUS
10
147.15
20
-136.568
11
147.15
21
-138.768
0
LINE
8
BLACK
6
CONTINUOUS
10
149.69
20
-138.768
11
147.49
21
-138.768
0
LINE
8
BLACK
6
CONTINUOUS
10
147.49
20
-138.768
11
147.49
21
-136.568
0
LINE
8
BLACK
6
CONTINUOUS
10
147.49
20
-136.568
11
149.69
21
-136.568
0
LINE
8
BLACK
6
CONTINUOUS
10
149.69
20
-136.568
11
149.69
21
-138.768
0
LINE
8
BLACK
6
CONTINUOUS
10
102.192
20
-129.878
11
99.992
21
-129.878
0
LINE
8
BLACK
6
CONTINUOUS
10
99.992
20
-129.878
11
99.992
21
-127.678
0
LINE
8
BLACK
6
CONTINUOUS
10
99.992
20
-127.678
11
102.192
21
-127.678
0
LINE
8
BLACK
6
CONTINUOUS
10
102.192
20
-127.678
11
102.192
21
-129.878
0
LINE
8
BLACK
6
CONTINUOUS
10
99.652
20
-129.878
11
97.452
21
-129.878
0
LINE
8
BLACK
6
CONTINUOUS
10
97.452
20
-129.878
11
97.452
21
-127.678
0
LINE
8
BLACK
6
CONTINUOUS
10
97.452
20
-127.678
11
99.652
21
-127.678
0
LINE
8
BLACK
6
CONTINUOUS
10
99.652
20
-127.678
11
99.652
21
-129.878
0
LINE
8
BLACK
6
CONTINUOUS
10
150.452
20
-129.37
11
148.252
21
-129.37
0
LINE
8
BLACK
6
CONTINUOUS
10
148.252
20
-129.37
11
148.252
21
-127.17
0
LINE
8
BLACK
6
CONTINUOUS
10
148.252
20
-127.17
11
150.452
21
-127.17
0
LINE
8
BLACK
6
CONTINUOUS
10
150.452
20
-127.17
11
150.452
21
-129.37
0
LINE
8
BLACK
6
CONTINUOUS
10
152.992
20
-129.37
11
150.792
21
-129.37
0
LINE
8
BLACK
6
CONTINUOUS
10
150.792
20
-129.37
11
150.792
21
-127.17
0
LINE
8
BLACK
6
CONTINUOUS
10
150.792
20
-127.17
11
152.992
21
-127.17
0
LINE
8
BLACK
6
CONTINUOUS
10
152.992
20
-127.17
11
152.992
21
-129.37
0
LINE
8
BLACK
6
CONTINUOUS
10
102.192
20
-127.338
11
99.992
21
-127.338
0
LINE
8
BLACK
6
CONTINUOUS
10
99.992
20
-127.338
11
99.992
21
-125.138
0
LINE
8
BLACK
6
CONTINUOUS
10
99.992
20
-125.138
11
102.192
21
-125.138
0
LINE
8
BLACK
6
CONTINUOUS
10
102.192
20
-125.138
11
102.192
21
-127.338
0
LINE
8
BLACK
6
CONTINUOUS
10
99.652
20
-127.338
11
97.452
21
-127.338
0
LINE
8
BLACK
6
CONTINUOUS
10
97.452
20
-127.338
11
97.452
21
-125.138
0
LINE
8
BLACK
6
CONTINUOUS
10
97.452
20
-125.138
11
99.652
21
-125.138
0
LINE
8
BLACK
6
CONTINUOUS
10
99.652
20
-125.138
11
99.652
21
-127.338
0
LINE
8
BLACK
6
CONTINUOUS
10
150.452
20
-126.83
11
148.252
21
-126.83
0
LINE
8
BLACK
6
CONTINUOUS
10
148.252
20
-126.83
11
148.252
21
-124.63
0
LINE
8
BLACK
6
CONTINUOUS
10
148.252
20
-124.63
11
150.452
21
-124.63
0
LINE
8
BLACK
6
CONTINUOUS
10
150.452
20
-124.63
11
150.452
21
-126.83
0
LINE
8
BLACK
6
CONTINUOUS
10
152.992
20
-126.83
11
150.792
21
-126.83
0
LINE
8
BLACK
6
CONTINUOUS
10
150.792
20
-126.83
11
150.792
21
-124.63
0
LINE
8
BLACK
6
CONTINUOUS
10
150.792
20
-124.63
11
152.992
21
-124.63
0
LINE
8
BLACK
6
CONTINUOUS
10
152.992
20
-124.63
11
152.992
21
-126.83
0
LINE
8
BLACK
6
CONTINUOUS
10
99.652
20
-124.798
11
97.452
21
-124.798
0
LINE
8
BLACK
6
CONTINUOUS
10
97.452
20
-124.798
11
97.452
21
-122.598
0
LINE
8
BLACK
6
CONTINUOUS
10
97.452
20
-122.598
11
99.652
21
-122.598
0
LINE
8
BLACK
6
CONTINUOUS
10
99.652
20
-122.598
11
99.652
21
-124.798
0
LINE
8
BLACK
6
CONTINUOUS
10
102.192
20
-124.798
11
99.992
21
-124.798
0
LINE
8
BLACK
6
CONTINUOUS
10
99.992
20
-124.798
11
99.992
21
-122.598
0
LINE
8
BLACK
6
CONTINUOUS
10
99.992
20
-122.598
11
102.192
21
-122.598
0
LINE
8
BLACK
6
CONTINUOUS
10
102.192
20
-122.598
11
102.192
21
-124.798
0
LINE
8
BLACK
6
CONTINUOUS
10
150.452
20
-124.29
11
148.252
21
-124.29
0
LINE
8
BLACK
6
CONTINUOUS
10
148.252
20
-124.29
11
148.252
21
-122.09
0
LINE
8
BLACK
6
CONTINUOUS
10
148.252
20
-122.09
11
150.452
21
-122.09
0
LINE
8
BLACK
6
CONTINUOUS
10
150.452
20
-122.09
11
150.452
21
-124.29
0
LINE
8
BLACK
6
CONTINUOUS
10
152.992
20
-124.29
11
150.792
21
-124.29
0
LINE
8
BLACK
6
CONTINUOUS
10
150.792
20
-124.29
11
150.792
21
-122.09
0
LINE
8
BLACK
6
CONTINUOUS
10
150.792
20
-122.09
11
152.992
21
-122.09
0
LINE
8
BLACK
6
CONTINUOUS
10
152.992
20
-122.09
11
152.992
21
-124.29
0
LINE
8
BLACK
6
CONTINUOUS
10
99.652
20
-122.258
11
97.452
21
-122.258
0
LINE
8
BLACK
6
CONTINUOUS
10
97.452
20
-122.258
11
97.452
21
-120.058
0
LINE
8
BLACK
6
CONTINUOUS
10
97.452
20
-120.058
11
99.652
21
-120.058
0
LINE
8
BLACK
6
CONTINUOUS
10
99.652
20
-120.058
11
99.652
21
-122.258
0
LINE
8
BLACK
6
CONTINUOUS
10
102.192
20
-122.258
11
99.992
21
-122.258
0
LINE
8
BLACK
6
CONTINUOUS
10
99.992
20
-122.258
11
99.992
21
-120.058
0
LINE
8
BLACK
6
CONTINUOUS
10
99.992
20
-120.058
11
102.192
21
-120.058
0
LINE
8
BLACK
6
CONTINUOUS
10
102.192
20
-120.058
11
102.192
21
-122.258
0
LINE
8
BLACK
6
CONTINUOUS
10
152.992
20
-121.75
11
150.792
21
-121.75
0
LINE
8
BLACK
6
CONTINUOUS
10
150.792
20
-121.75
11
150.792
21
-119.55
0
LINE
8
BLACK
6
CONTINUOUS
10
150.792
20
-119.55
11
152.992
21
-119.55
0
LINE
8
BLACK
6
CONTINUOUS
10
152.992
20
-119.55
11
152.992
21
-121.75
0
LINE
8
BLACK
6
CONTINUOUS
10
150.452
20
-121.75
11
148.252
21
-121.75
0
LINE
8
BLACK
6
CONTINUOUS
10
148.252
20
-121.75
11
148.252
21
-119.55
0
LINE
8
BLACK
6
CONTINUOUS
10
148.252
20
-119.55
11
150.452
21
-119.55
0
LINE
8
BLACK
6
CONTINUOUS
10
150.452
20
-119.55
11
150.452
21
-121.75
0
LINE
8
BLACK
6
CONTINUOUS
10
102.192
20
-119.718
11
99.992
21
-119.718
0
LINE
8
BLACK
6
CONTINUOUS
10
99.992
20
-119.718
11
99.992
21
-117.518
0
LINE
8
BLACK
6
CONTINUOUS
10
99.992
20
-117.518
11
102.192
21
-117.518
0
LINE
8
BLACK
6
CONTINUOUS
10
102.192
20
-117.518
11
102.192
21
-119.718
0
LINE
8
BLACK
6
CONTINUOUS
10
99.652
20
-119.718
11
97.452
21
-119.718
0
LINE
8
BLACK
6
CONTINUOUS
10
97.452
20
-119.718
11
97.452
21
-117.518
0
LINE
8
BLACK
6
CONTINUOUS
10
97.452
20
-117.518
11
99.652
21
-117.518
0
LINE
8
BLACK
6
CONTINUOUS
10
99.652
20
-117.518
11
99.652
21
-119.718
0
LINE
8
BLACK
6
CONTINUOUS
10
152.992
20
-119.21
11
150.792
21
-119.21
0
LINE
8
BLACK
6
CONTINUOUS
10
150.792
20
-119.21
11
150.792
21
-117.01
0
LINE
8
BLACK
6
CONTINUOUS
10
150.792
20
-117.01
11
152.992
21
-117.01
0
LINE
8
BLACK
6
CONTINUOUS
10
152.992
20
-117.01
11
152.992
21
-119.21
0
LINE
8
BLACK
6
CONTINUOUS
10
150.452
20
-119.21
11
148.252
21
-119.21
0
LINE
8
BLACK
6
CONTINUOUS
10
148.252
20
-119.21
11
148.252
21
-117.01
0
LINE
8
BLACK
6
CONTINUOUS
10
148.252
20
-117.01
11
150.452
21
-117.01
0
LINE
8
BLACK
6
CONTINUOUS
10
150.452
20
-117.01
11
150.452
21
-119.21
0
LINE
8
BLACK
6
CONTINUOUS
10
183.031
20
-110.2
11
183.759
21
-110.501
0
LINE
8
BLACK
6
CONTINUOUS
10
183.759
20
-110.501
11
184.414
21
-110.939
0
LINE
8
BLACK
6
CONTINUOUS
10
184.414
20
-110.939
11
184.971
21
-111.496
0
LINE
8
BLACK
6
CONTINUOUS
10
184.971
20
-111.496
11
185.409
21
-112.151
0
LINE
8
BLACK
6
CONTINUOUS
10
185.409
20
-112.151
11
185.71
21
-112.879
0
LINE
8
BLACK
6
CONTINUOUS
10
185.71
20
-112.879
11
185.864
21
-113.652
0
LINE
8
BLACK
6
CONTINUOUS
10
185.864
20
-113.652
11
185.864
21
-114.44
0
LINE
8
BLACK
6
CONTINUOUS
10
185.864
20
-114.44
11
185.71
21
-115.213
0
LINE
8
BLACK
6
CONTINUOUS
10
185.71
20
-115.213
11
185.409
21
-115.941
0
LINE
8
BLACK
6
CONTINUOUS
10
185.409
20
-115.941
11
184.971
21
-116.596
0
LINE
8
BLACK
6
CONTINUOUS
10
184.971
20
-116.596
11
184.414
21
-117.153
0
LINE
8
BLACK
6
CONTINUOUS
10
184.414
20
-117.153
11
183.759
21
-117.591
0
LINE
8
BLACK
6
CONTINUOUS
10
183.759
20
-117.591
11
183.031
21
-117.892
0
LINE
8
BLACK
6
CONTINUOUS
10
183.031
20
-117.892
11
182.258
21
-118.046
0
LINE
8
BLACK
6
CONTINUOUS
10
182.258
20
-118.046
11
181.47
21
-118.046
0
LINE
8
BLACK
6
CONTINUOUS
10
181.47
20
-118.046
11
180.697
21
-117.892
0
LINE
8
BLACK
6
CONTINUOUS
10
180.697
20
-117.892
11
179.969
21
-117.591
0
LINE
8
BLACK
6
CONTINUOUS
10
179.969
20
-117.591
11
179.314
21
-117.153
0
LINE
8
BLACK
6
CONTINUOUS
10
179.314
20
-117.153
11
178.757
21
-116.596
0
LINE
8
BLACK
6
CONTINUOUS
10
178.757
20
-116.596
11
178.319
21
-115.941
0
LINE
8
BLACK
6
CONTINUOUS
10
178.319
20
-115.941
11
178.018
21
-115.213
0
LINE
8
BLACK
6
CONTINUOUS
10
178.018
20
-115.213
11
177.864
21
-114.44
0
LINE
8
BLACK
6
CONTINUOUS
10
177.864
20
-114.44
11
177.864
21
-113.652
0
LINE
8
BLACK
6
CONTINUOUS
10
177.864
20
-113.652
11
178.018
21
-112.879
0
LINE
8
BLACK
6
CONTINUOUS
10
178.018
20
-112.879
11
178.319
21
-112.151
0
LINE
8
BLACK
6
CONTINUOUS
10
178.319
20
-112.151
11
178.757
21
-111.496
0
LINE
8
BLACK
6
CONTINUOUS
10
178.757
20
-111.496
11
179.314
21
-110.939
0
LINE
8
BLACK
6
CONTINUOUS
10
179.314
20
-110.939
11
179.969
21
-110.501
0
LINE
8
BLACK
6
CONTINUOUS
10
179.969
20
-110.501
11
180.697
21
-110.2
0
LINE
8
BLACK
6
CONTINUOUS
10
180.697
20
-110.2
11
181.47
21
-110.046
0
LINE
8
BLACK
6
CONTINUOUS
10
181.47
20
-110.046
11
182.258
21
-110.046
0
LINE
8
BLACK
6
CONTINUOUS
10
182.258
20
-110.046
11
183.031
21
-110.2
0
LINE
8
BLACK
6
CONTINUOUS
10
68.2228
20
-109.946
11
68.9507
21
-110.247
0
LINE
8
BLACK
6
CONTINUOUS
10
68.9507
20
-110.247
11
69.6059
21
-110.685
0
LINE
8
BLACK
6
CONTINUOUS
10
69.6059
20
-110.685
11
70.163
21
-111.242
0
LINE
8
BLACK
6
CONTINUOUS
10
70.163
20
-111.242
11
70.6008
21
-111.897
0
LINE
8
BLACK
6
CONTINUOUS
10
70.6008
20
-111.897
11
70.9023
21
-112.625
0
LINE
8
BLACK
6
CONTINUOUS
10
70.9023
20
-112.625
11
71.056
21
-113.398
0
LINE
8
BLACK
6
CONTINUOUS
10
71.056
20
-113.398
11
71.056
21
-114.186
0
LINE
8
BLACK
6
CONTINUOUS
10
71.056
20
-114.186
11
70.9023
21
-114.959
0
LINE
8
BLACK
6
CONTINUOUS
10
70.9023
20
-114.959
11
70.6008
21
-115.687
0
LINE
8
BLACK
6
CONTINUOUS
10
70.6008
20
-115.687
11
70.163
21
-116.342
0
LINE
8
BLACK
6
CONTINUOUS
10
70.163
20
-116.342
11
69.6059
21
-116.899
0
LINE
8
BLACK
6
CONTINUOUS
10
69.6059
20
-116.899
11
68.9507
21
-117.337
0
LINE
8
BLACK
6
CONTINUOUS
10
68.9507
20
-117.337
11
68.2228
21
-117.638
0
LINE
8
BLACK
6
CONTINUOUS
10
68.2228
20
-117.638
11
67.45
21
-117.792
0
LINE
8
BLACK
6
CONTINUOUS
10
67.45
20
-117.792
11
66.662
21
-117.792
0
LINE
8
BLACK
6
CONTINUOUS
10
66.662
20
-117.792
11
65.8892
21
-117.638
0
LINE
8
BLACK
6
CONTINUOUS
10
65.8892
20
-117.638
11
65.1613
21
-117.337
0
LINE
8
BLACK
6
CONTINUOUS
10
65.1613
20
-117.337
11
64.5061
21
-116.899
0
LINE
8
BLACK
6
CONTINUOUS
10
64.5061
20
-116.899
11
63.949
21
-116.342
0
LINE
8
BLACK
6
CONTINUOUS
10
63.949
20
-116.342
11
63.5112
21
-115.687
0
LINE
8
BLACK
6
CONTINUOUS
10
63.5112
20
-115.687
11
63.2097
21
-114.959
0
LINE
8
BLACK
6
CONTINUOUS
10
63.2097
20
-114.959
11
63.056
21
-114.186
0
LINE
8
BLACK
6
CONTINUOUS
10
63.056
20
-114.186
11
63.056
21
-113.398
0
LINE
8
BLACK
6
CONTINUOUS
10
63.056
20
-113.398
11
63.2097
21
-112.625
0
LINE
8
BLACK
6
CONTINUOUS
10
63.2097
20
-112.625
11
63.5112
21
-111.897
0
LINE
8
BLACK
6
CONTINUOUS
10
63.5112
20
-111.897
11
63.949
21
-111.242
0
LINE
8
BLACK
6
CONTINUOUS
10
63.949
20
-111.242
11
64.5061
21
-110.685
0
LINE
8
BLACK
6
CONTINUOUS
10
64.5061
20
-110.685
11
65.1613
21
-110.247
0
LINE
8
BLACK
6
CONTINUOUS
10
65.1613
20
-110.247
11
65.8892
21
-109.946
0
LINE
8
BLACK
6
CONTINUOUS
10
65.8892
20
-109.946
11
66.662
21
-109.792
0
LINE
8
BLACK
6
CONTINUOUS
10
66.662
20
-109.792
11
67.45
21
-109.792
0
LINE
8
BLACK
6
CONTINUOUS
10
67.45
20
-109.792
11
68.2228
21
-109.946
0
LINE
8
BLACK
6
CONTINUOUS
10
84.666
20
-117.225
11
82.466
21
-117.225
0
LINE
8
BLACK
6
CONTINUOUS
10
82.466
20
-117.225
11
82.466
21
-115.025
0
LINE
8
BLACK
6
CONTINUOUS
10
82.466
20
-115.025
11
84.666
21
-115.025
0
LINE
8
BLACK
6
CONTINUOUS
10
84.666
20
-115.025
11
84.666
21
-117.225
0
LINE
8
BLACK
6
CONTINUOUS
10
87.206
20
-117.225
11
85.006
21
-117.225
0
LINE
8
BLACK
6
CONTINUOUS
10
85.006
20
-117.225
11
85.006
21
-115.025
0
LINE
8
BLACK
6
CONTINUOUS
10
85.006
20
-115.025
11
87.206
21
-115.025
0
LINE
8
BLACK
6
CONTINUOUS
10
87.206
20
-115.025
11
87.206
21
-117.225
0
LINE
8
BLACK
6
CONTINUOUS
10
102.192
20
-117.178
11
99.992
21
-117.178
0
LINE
8
BLACK
6
CONTINUOUS
10
99.992
20
-117.178
11
99.992
21
-114.978
0
LINE
8
BLACK
6
CONTINUOUS
10
99.992
20
-114.978
11
102.192
21
-114.978
0
LINE
8
BLACK
6
CONTINUOUS
10
102.192
20
-114.978
11
102.192
21
-117.178
0
LINE
8
BLACK
6
CONTINUOUS
10
99.652
20
-117.178
11
97.452
21
-117.178
0
LINE
8
BLACK
6
CONTINUOUS
10
97.452
20
-117.178
11
97.452
21
-114.978
0
LINE
8
BLACK
6
CONTINUOUS
10
97.452
20
-114.978
11
99.652
21
-114.978
0
LINE
8
BLACK
6
CONTINUOUS
10
99.652
20
-114.978
11
99.652
21
-117.178
0
LINE
8
BLACK
6
CONTINUOUS
10
150.452
20
-116.67
11
148.252
21
-116.67
0
LINE
8
BLACK
6
CONTINUOUS
10
148.252
20
-116.67
11
148.252
21
-114.47
0
LINE
8
BLACK
6
CONTINUOUS
10
148.252
20
-114.47
11
150.452
21
-114.47
0
LINE
8
BLACK
6
CONTINUOUS
10
150.452
20
-114.47
11
150.452
21
-116.67
0
LINE
8
BLACK
6
CONTINUOUS
10
152.992
20
-116.67
11
150.792
21
-116.67
0
LINE
8
BLACK
6
CONTINUOUS
10
150.792
20
-116.67
11
150.792
21
-114.47
0
LINE
8
BLACK
6
CONTINUOUS
10
150.792
20
-114.47
11
152.992
21
-114.47
0
LINE
8
BLACK
6
CONTINUOUS
10
152.992
20
-114.47
11
152.992
21
-116.67
0
LINE
8
BLACK
6
CONTINUOUS
10
163.914
20
-116.67
11
161.714
21
-116.67
0
LINE
8
BLACK
6
CONTINUOUS
10
161.714
20
-116.67
11
161.714
21
-114.47
0
LINE
8
BLACK
6
CONTINUOUS
10
161.714
20
-114.47
11
163.914
21
-114.47
0
LINE
8
BLACK
6
CONTINUOUS
10
163.914
20
-114.47
11
163.914
21
-116.67
0
LINE
8
BLACK
6
CONTINUOUS
10
166.454
20
-116.67
11
164.254
21
-116.67
0
LINE
8
BLACK
6
CONTINUOUS
10
164.254
20
-116.67
11
164.254
21
-114.47
0
LINE
8
BLACK
6
CONTINUOUS
10
164.254
20
-114.47
11
166.454
21
-114.47
0
LINE
8
BLACK
6
CONTINUOUS
10
166.454
20
-114.47
11
166.454
21
-116.67
0
LINE
8
BLACK
6
CONTINUOUS
10
84.666
20
-114.685
11
82.466
21
-114.685
0
LINE
8
BLACK
6
CONTINUOUS
10
82.466
20
-114.685
11
82.466
21
-112.485
0
LINE
8
BLACK
6
CONTINUOUS
10
82.466
20
-112.485
11
84.666
21
-112.485
0
LINE
8
BLACK
6
CONTINUOUS
10
84.666
20
-112.485
11
84.666
21
-114.685
0
LINE
8
BLACK
6
CONTINUOUS
10
87.206
20
-114.685
11
85.006
21
-114.685
0
LINE
8
BLACK
6
CONTINUOUS
10
85.006
20
-114.685
11
85.006
21
-112.485
0
LINE
8
BLACK
6
CONTINUOUS
10
85.006
20
-112.485
11
87.206
21
-112.485
0
LINE
8
BLACK
6
CONTINUOUS
10
87.206
20
-112.485
11
87.206
21
-114.685
0
LINE
8
BLACK
6
CONTINUOUS
10
102.192
20
-114.638
11
99.992
21
-114.638
0
LINE
8
BLACK
6
CONTINUOUS
10
99.992
20
-114.638
11
99.992
21
-112.438
0
LINE
8
BLACK
6
CONTINUOUS
10
99.992
20
-112.438
11
102.192
21
-112.438
0
LINE
8
BLACK
6
CONTINUOUS
10
102.192
20
-112.438
11
102.192
21
-114.638
0
LINE
8
BLACK
6
CONTINUOUS
10
99.652
20
-114.638
11
97.452
21
-114.638
0
LINE
8
BLACK
6
CONTINUOUS
10
97.452
20
-114.638
11
97.452
21
-112.438
0
LINE
8
BLACK
6
CONTINUOUS
10
97.452
20
-112.438
11
99.652
21
-112.438
0
LINE
8
BLACK
6
CONTINUOUS
10
99.652
20
-112.438
11
99.652
21
-114.638
0
LINE
8
BLACK
6
CONTINUOUS
10
150.452
20
-114.13
11
148.252
21
-114.13
0
LINE
8
BLACK
6
CONTINUOUS
10
148.252
20
-114.13
11
148.252
21
-111.93
0
LINE
8
BLACK
6
CONTINUOUS
10
148.252
20
-111.93
11
150.452
21
-111.93
0
LINE
8
BLACK
6
CONTINUOUS
10
150.452
20
-111.93
11
150.452
21
-114.13
0
LINE
8
BLACK
6
CONTINUOUS
10
152.992
20
-114.13
11
150.792
21
-114.13
0
LINE
8
BLACK
6
CONTINUOUS
10
150.792
20
-114.13
11
150.792
21
-111.93
0
LINE
8
BLACK
6
CONTINUOUS
10
150.792
20
-111.93
11
152.992
21
-111.93
0
LINE
8
BLACK
6
CONTINUOUS
10
152.992
20
-111.93
11
152.992
21
-114.13
0
LINE
8
BLACK
6
CONTINUOUS
10
166.454
20
-114.13
11
164.254
21
-114.13
0
LINE
8
BLACK
6
CONTINUOUS
10
164.254
20
-114.13
11
164.254
21
-111.93
0
LINE
8
BLACK
6
CONTINUOUS
10
164.254
20
-111.93
11
166.454
21
-111.93
0
LINE
8
BLACK
6
CONTINUOUS
10
166.454
20
-111.93
11
166.454
21
-114.13
0
LINE
8
BLACK
6
CONTINUOUS
10
163.914
20
-114.13
11
161.714
21
-114.13
0
LINE
8
BLACK
6
CONTINUOUS
10
161.714
20
-114.13
11
161.714
21
-111.93
0
LINE
8
BLACK
6
CONTINUOUS
10
161.714
20
-111.93
11
163.914
21
-111.93
0
LINE
8
BLACK
6
CONTINUOUS
10
163.914
20
-111.93
11
163.914
21
-114.13
0
LINE
8
BLACK
6
CONTINUOUS
10
84.666
20
-112.145
11
82.466
21
-112.145
0
LINE
8
BLACK
6
CONTINUOUS
10
82.466
20
-112.145
11
82.466
21
-109.945
0
LINE
8
BLACK
6
CONTINUOUS
10
82.466
20
-109.945
11
84.666
21
-109.945
0
LINE
8
BLACK
6
CONTINUOUS
10
84.666
20
-109.945
11
84.666
21
-112.145
0
LINE
8
BLACK
6
CONTINUOUS
10
87.206
20
-112.145
11
85.006
21
-112.145
0
LINE
8
BLACK
6
CONTINUOUS
10
85.006
20
-112.145
11
85.006
21
-109.945
0
LINE
8
BLACK
6
CONTINUOUS
10
85.006
20
-109.945
11
87.206
21
-109.945
0
LINE
8
BLACK
6
CONTINUOUS
10
87.206
20
-109.945
11
87.206
21
-112.145
0
LINE
8
BLACK
6
CONTINUOUS
10
99.652
20
-112.098
11
97.452
21
-112.098
0
LINE
8
BLACK
6
CONTINUOUS
10
97.452
20
-112.098
11
97.452
21
-109.898
0
LINE
8
BLACK
6
CONTINUOUS
10
97.452
20
-109.898
11
99.652
21
-109.898
0
LINE
8
BLACK
6
CONTINUOUS
10
99.652
20
-109.898
11
99.652
21
-112.098
0
LINE
8
BLACK
6
CONTINUOUS
10
102.192
20
-112.098
11
99.992
21
-112.098
0
LINE
8
BLACK
6
CONTINUOUS
10
99.992
20
-112.098
11
99.992
21
-109.898
0
LINE
8
BLACK
6
CONTINUOUS
10
99.992
20
-109.898
11
102.192
21
-109.898
0
LINE
8
BLACK
6
CONTINUOUS
10
102.192
20
-109.898
11
102.192
21
-112.098
0
LINE
8
BLACK
6
CONTINUOUS
10
163.914
20
-111.59
11
161.714
21
-111.59
0
LINE
8
BLACK
6
CONTINUOUS
10
161.714
20
-111.59
11
161.714
21
-109.39
0
LINE
8
BLACK
6
CONTINUOUS
10
161.714
20
-109.39
11
163.914
21
-109.39
0
LINE
8
BLACK
6
CONTINUOUS
10
163.914
20
-109.39
11
163.914
21
-111.59
0
LINE
8
BLACK
6
CONTINUOUS
10
166.454
20
-111.59
11
164.254
21
-111.59
0
LINE
8
BLACK
6
CONTINUOUS
10
164.254
20
-111.59
11
164.254
21
-109.39
0
LINE
8
BLACK
6
CONTINUOUS
10
164.254
20
-109.39
11
166.454
21
-109.39
0
LINE
8
BLACK
6
CONTINUOUS
10
166.454
20
-109.39
11
166.454
21
-111.59
0
LINE
8
BLACK
6
CONTINUOUS
10
152.992
20
-111.59
11
150.792
21
-111.59
0
LINE
8
BLACK
6
CONTINUOUS
10
150.792
20
-111.59
11
150.792
21
-109.39
0
LINE
8
BLACK
6
CONTINUOUS
10
150.792
20
-109.39
11
152.992
21
-109.39
0
LINE
8
BLACK
6
CONTINUOUS
10
152.992
20
-109.39
11
152.992
21
-111.59
0
LINE
8
BLACK
6
CONTINUOUS
10
150.452
20
-111.59
11
148.252
21
-111.59
0
LINE
8
BLACK
6
CONTINUOUS
10
148.252
20
-111.59
11
148.252
21
-109.39
0
LINE
8
BLACK
6
CONTINUOUS
10
148.252
20
-109.39
11
150.452
21
-109.39
0
LINE
8
BLACK
6
CONTINUOUS
10
150.452
20
-109.39
11
150.452
21
-111.59
0
LINE
8
BLACK
6
CONTINUOUS
10
87.206
20
-109.605
11
85.006
21
-109.605
0
LINE
8
BLACK
6
CONTINUOUS
10
85.006
20
-109.605
11
85.006
21
-107.405
0
LINE
8
BLACK
6
CONTINUOUS
10
85.006
20
-107.405
11
87.206
21
-107.405
0
LINE
8
BLACK
6
CONTINUOUS
10
87.206
20
-107.405
11
87.206
21
-109.605
0
LINE
8
BLACK
6
CONTINUOUS
10
84.666
20
-109.605
11
82.466
21
-109.605
0
LINE
8
BLACK
6
CONTINUOUS
10
82.466
20
-109.605
11
82.466
21
-107.405
0
LINE
8
BLACK
6
CONTINUOUS
10
82.466
20
-107.405
11
84.666
21
-107.405
0
LINE
8
BLACK
6
CONTINUOUS
10
84.666
20
-107.405
11
84.666
21
-109.605
0
LINE
8
BLACK
6
CONTINUOUS
10
99.652
20
-109.558
11
97.452
21
-109.558
0
LINE
8
BLACK
6
CONTINUOUS
10
97.452
20
-109.558
11
97.452
21
-107.358
0
LINE
8
BLACK
6
CONTINUOUS
10
97.452
20
-107.358
11
99.652
21
-107.358
0
LINE
8
BLACK
6
CONTINUOUS
10
99.652
20
-107.358
11
99.652
21
-109.558
0
LINE
8
BLACK
6
CONTINUOUS
10
102.192
20
-109.558
11
99.992
21
-109.558
0
LINE
8
BLACK
6
CONTINUOUS
10
99.992
20
-109.558
11
99.992
21
-107.358
0
LINE
8
BLACK
6
CONTINUOUS
10
99.992
20
-107.358
11
102.192
21
-107.358
0
LINE
8
BLACK
6
CONTINUOUS
10
102.192
20
-107.358
11
102.192
21
-109.558
0
LINE
8
BLACK
6
CONTINUOUS
10
150.452
20
-109.05
11
148.252
21
-109.05
0
LINE
8
BLACK
6
CONTINUOUS
10
148.252
20
-109.05
11
148.252
21
-106.85
0
LINE
8
BLACK
6
CONTINUOUS
10
148.252
20
-106.85
11
150.452
21
-106.85
0
LINE
8
BLACK
6
CONTINUOUS
10
150.452
20
-106.85
11
150.452
21
-109.05
0
LINE
8
BLACK
6
CONTINUOUS
10
152.992
20
-109.05
11
150.792
21
-109.05
0
LINE
8
BLACK
6
CONTINUOUS
10
150.792
20
-109.05
11
150.792
21
-106.85
0
LINE
8
BLACK
6
CONTINUOUS
10
150.792
20
-106.85
11
152.992
21
-106.85
0
LINE
8
BLACK
6
CONTINUOUS
10
152.992
20
-106.85
11
152.992
21
-109.05
0
LINE
8
BLACK
6
CONTINUOUS
10
166.454
20
-109.05
11
164.254
21
-109.05
0
LINE
8
BLACK
6
CONTINUOUS
10
164.254
20
-109.05
11
164.254
21
-106.85
0
LINE
8
BLACK
6
CONTINUOUS
10
164.254
20
-106.85
11
166.454
21
-106.85
0
LINE
8
BLACK
6
CONTINUOUS
10
166.454
20
-106.85
11
166.454
21
-109.05
0
LINE
8
BLACK
6
CONTINUOUS
10
163.914
20
-109.05
11
161.714
21
-109.05
0
LINE
8
BLACK
6
CONTINUOUS
10
161.714
20
-109.05
11
161.714
21
-106.85
0
LINE
8
BLACK
6
CONTINUOUS
10
161.714
20
-106.85
11
163.914
21
-106.85
0
LINE
8
BLACK
6
CONTINUOUS
10
163.914
20
-106.85
11
163.914
21
-109.05
0
LINE
8
BLACK
6
CONTINUOUS
10
84.666
20
-107.065
11
82.466
21
-107.065
0
LINE
8
BLACK
6
CONTINUOUS
10
82.466
20
-107.065
11
82.466
21
-104.865
0
LINE
8
BLACK
6
CONTINUOUS
10
82.466
20
-104.865
11
84.666
21
-104.865
0
LINE
8
BLACK
6
CONTINUOUS
10
84.666
20
-104.865
11
84.666
21
-107.065
0
LINE
8
BLACK
6
CONTINUOUS
10
87.206
20
-107.065
11
85.006
21
-107.065
0
LINE
8
BLACK
6
CONTINUOUS
10
85.006
20
-107.065
11
85.006
21
-104.865
0
LINE
8
BLACK
6
CONTINUOUS
10
85.006
20
-104.865
11
87.206
21
-104.865
0
LINE
8
BLACK
6
CONTINUOUS
10
87.206
20
-104.865
11
87.206
21
-107.065
0
LINE
8
BLACK
6
CONTINUOUS
10
99.652
20
-107.018
11
97.452
21
-107.018
0
LINE
8
BLACK
6
CONTINUOUS
10
97.452
20
-107.018
11
97.452
21
-104.818
0
LINE
8
BLACK
6
CONTINUOUS
10
97.452
20
-104.818
11
99.652
21
-104.818
0
LINE
8
BLACK
6
CONTINUOUS
10
99.652
20
-104.818
11
99.652
21
-107.018
0
LINE
8
BLACK
6
CONTINUOUS
10
102.192
20
-107.018
11
99.992
21
-107.018
0
LINE
8
BLACK
6
CONTINUOUS
10
99.992
20
-107.018
11
99.992
21
-104.818
0
LINE
8
BLACK
6
CONTINUOUS
10
99.992
20
-104.818
11
102.192
21
-104.818
0
LINE
8
BLACK
6
CONTINUOUS
10
102.192
20
-104.818
11
102.192
21
-107.018
0
LINE
8
BLACK
6
CONTINUOUS
10
152.992
20
-106.51
11
150.792
21
-106.51
0
LINE
8
BLACK
6
CONTINUOUS
10
150.792
20
-106.51
11
150.792
21
-104.31
0
LINE
8
BLACK
6
CONTINUOUS
10
150.792
20
-104.31
11
152.992
21
-104.31
0
LINE
8
BLACK
6
CONTINUOUS
10
152.992
20
-104.31
11
152.992
21
-106.51
0
LINE
8
BLACK
6
CONTINUOUS
10
150.452
20
-106.51
11
148.252
21
-106.51
0
LINE
8
BLACK
6
CONTINUOUS
10
148.252
20
-106.51
11
148.252
21
-104.31
0
LINE
8
BLACK
6
CONTINUOUS
10
148.252
20
-104.31
11
150.452
21
-104.31
0
LINE
8
BLACK
6
CONTINUOUS
10
150.452
20
-104.31
11
150.452
21
-106.51
0
LINE
8
BLACK
6
CONTINUOUS
10
166.454
20
-106.51
11
164.254
21
-106.51
0
LINE
8
BLACK
6
CONTINUOUS
10
164.254
20
-106.51
11
164.254
21
-104.31
0
LINE
8
BLACK
6
CONTINUOUS
10
164.254
20
-104.31
11
166.454
21
-104.31
0
LINE
8
BLACK
6
CONTINUOUS
10
166.454
20
-104.31
11
166.454
21
-106.51
0
LINE
8
BLACK
6
CONTINUOUS
10
163.914
20
-106.51
11
161.714
21
-106.51
0
LINE
8
BLACK
6
CONTINUOUS
10
161.714
20
-106.51
11
161.714
21
-104.31
0
LINE
8
BLACK
6
CONTINUOUS
10
161.714
20
-104.31
11
163.914
21
-104.31
0
LINE
8
BLACK
6
CONTINUOUS
10
163.914
20
-104.31
11
163.914
21
-106.51
0
LINE
8
BLACK
6
CONTINUOUS
10
84.666
20
-104.525
11
82.466
21
-104.525
0
LINE
8
BLACK
6
CONTINUOUS
10
82.466
20
-104.525
11
82.466
21
-102.325
0
LINE
8
BLACK
6
CONTINUOUS
10
82.466
20
-102.325
11
84.666
21
-102.325
0
LINE
8
BLACK
6
CONTINUOUS
10
84.666
20
-102.325
11
84.666
21
-104.525
0
LINE
8
BLACK
6
CONTINUOUS
10
87.206
20
-104.525
11
85.006
21
-104.525
0
LINE
8
BLACK
6
CONTINUOUS
10
85.006
20
-104.525
11
85.006
21
-102.325
0
LINE
8
BLACK
6
CONTINUOUS
10
85.006
20
-102.325
11
87.206
21
-102.325
0
LINE
8
BLACK
6
CONTINUOUS
10
87.206
20
-102.325
11
87.206
21
-104.525
0
LINE
8
BLACK
6
CONTINUOUS
10
99.652
20
-104.478
11
97.452
21
-104.478
0
LINE
8
BLACK
6
CONTINUOUS
10
97.452
20
-104.478
11
97.452
21
-102.278
0
LINE
8
BLACK
6
CONTINUOUS
10
97.452
20
-102.278
11
99.652
21
-102.278
0
LINE
8
BLACK
6
CONTINUOUS
10
99.652
20
-102.278
11
99.652
21
-104.478
0
LINE
8
BLACK
6
CONTINUOUS
10
102.192
20
-104.478
11
99.992
21
-104.478
0
LINE
8
BLACK
6
CONTINUOUS
10
99.992
20
-104.478
11
99.992
21
-102.278
0
LINE
8
BLACK
6
CONTINUOUS
10
99.992
20
-102.278
11
102.192
21
-102.278
0
LINE
8
BLACK
6
CONTINUOUS
10
102.192
20
-102.278
11
102.192
21
-104.478
0
LINE
8
BLACK
6
CONTINUOUS
10
163.914
20
-103.97
11
161.714
21
-103.97
0
LINE
8
BLACK
6
CONTINUOUS
10
161.714
20
-103.97
11
161.714
21
-101.77
0
LINE
8
BLACK
6
CONTINUOUS
10
161.714
20
-101.77
11
163.914
21
-101.77
0
LINE
8
BLACK
6
CONTINUOUS
10
163.914
20
-101.77
11
163.914
21
-103.97
0
LINE
8
BLACK
6
CONTINUOUS
10
166.454
20
-103.97
11
164.254
21
-103.97
0
LINE
8
BLACK
6
CONTINUOUS
10
164.254
20
-103.97
11
164.254
21
-101.77
0
LINE
8
BLACK
6
CONTINUOUS
10
164.254
20
-101.77
11
166.454
21
-101.77
0
LINE
8
BLACK
6
CONTINUOUS
10
166.454
20
-101.77
11
166.454
21
-103.97
0
LINE
8
BLACK
6
CONTINUOUS
10
150.452
20
-103.97
11
148.252
21
-103.97
0
LINE
8
BLACK
6
CONTINUOUS
10
148.252
20
-103.97
11
148.252
21
-101.77
0
LINE
8
BLACK
6
CONTINUOUS
10
148.252
20
-101.77
11
150.452
21
-101.77
0
LINE
8
BLACK
6
CONTINUOUS
10
150.452
20
-101.77
11
150.452
21
-103.97
0
LINE
8
BLACK
6
CONTINUOUS
10
152.992
20
-103.97
11
150.792
21
-103.97
0
LINE
8
BLACK
6
CONTINUOUS
10
150.792
20
-103.97
11
150.792
21
-101.77
0
LINE
8
BLACK
6
CONTINUOUS
10
150.792
20
-101.77
11
152.992
21
-101.77
0
LINE
8
BLACK
6
CONTINUOUS
10
152.992
20
-101.77
11
152.992
21
-103.97
0
LINE
8
BLACK
6
CONTINUOUS
10
84.666
20
-101.985
11
82.466
21
-101.985
0
LINE
8
BLACK
6
CONTINUOUS
10
82.466
20
-101.985
11
82.466
21
-99.785
0
LINE
8
BLACK
6
CONTINUOUS
10
82.466
20
-99.785
11
84.666
21
-99.785
0
LINE
8
BLACK
6
CONTINUOUS
10
84.666
20
-99.785
11
84.666
21
-101.985
0
LINE
8
BLACK
6
CONTINUOUS
10
87.206
20
-101.985
11
85.006
21
-101.985
0
LINE
8
BLACK
6
CONTINUOUS
10
85.006
20
-101.985
11
85.006
21
-99.785
0
LINE
8
BLACK
6
CONTINUOUS
10
85.006
20
-99.785
11
87.206
21
-99.785
0
LINE
8
BLACK
6
CONTINUOUS
10
87.206
20
-99.785
11
87.206
21
-101.985
0
LINE
8
BLACK
6
CONTINUOUS
10
102.192
20
-101.938
11
99.992
21
-101.938
0
LINE
8
BLACK
6
CONTINUOUS
10
99.992
20
-101.938
11
99.992
21
-99.738
0
LINE
8
BLACK
6
CONTINUOUS
10
99.992
20
-99.738
11
102.192
21
-99.738
0
LINE
8
BLACK
6
CONTINUOUS
10
102.192
20
-99.738
11
102.192
21
-101.938
0
LINE
8
BLACK
6
CONTINUOUS
10
99.652
20
-101.938
11
97.452
21
-101.938
0
LINE
8
BLACK
6
CONTINUOUS
10
97.452
20
-101.938
11
97.452
21
-99.738
0
LINE
8
BLACK
6
CONTINUOUS
10
97.452
20
-99.738
11
99.652
21
-99.738
0
LINE
8
BLACK
6
CONTINUOUS
10
99.652
20
-99.738
11
99.652
21
-101.938
0
LINE
8
BLACK
6
CONTINUOUS
10
163.914
20
-101.43
11
161.714
21
-101.43
0
LINE
8
BLACK
6
CONTINUOUS
10
161.714
20
-101.43
11
161.714
21
-99.23
0
LINE
8
BLACK
6
CONTINUOUS
10
161.714
20
-99.23
11
163.914
21
-99.23
0
LINE
8
BLACK
6
CONTINUOUS
10
163.914
20
-99.23
11
163.914
21
-101.43
0
LINE
8
BLACK
6
CONTINUOUS
10
150.452
20
-101.43
11
148.252
21
-101.43
0
LINE
8
BLACK
6
CONTINUOUS
10
148.252
20
-101.43
11
148.252
21
-99.23
0
LINE
8
BLACK
6
CONTINUOUS
10
148.252
20
-99.23
11
150.452
21
-99.23
0
LINE
8
BLACK
6
CONTINUOUS
10
150.452
20
-99.23
11
150.452
21
-101.43
0
LINE
8
BLACK
6
CONTINUOUS
10
166.454
20
-101.43
11
164.254
21
-101.43
0
LINE
8
BLACK
6
CONTINUOUS
10
164.254
20
-101.43
11
164.254
21
-99.23
0
LINE
8
BLACK
6
CONTINUOUS
10
164.254
20
-99.23
11
166.454
21
-99.23
0
LINE
8
BLACK
6
CONTINUOUS
10
166.454
20
-99.23
11
166.454
21
-101.43
0
LINE
8
BLACK
6
CONTINUOUS
10
152.992
20
-101.43
11
150.792
21
-101.43
0
LINE
8
BLACK
6
CONTINUOUS
10
150.792
20
-101.43
11
150.792
21
-99.23
0
LINE
8
BLACK
6
CONTINUOUS
10
150.792
20
-99.23
11
152.992
21
-99.23
0
LINE
8
BLACK
6
CONTINUOUS
10
152.992
20
-99.23
11
152.992
21
-101.43
0
LINE
8
BLACK
6
CONTINUOUS
10
84.666
20
-99.445
11
82.466
21
-99.445
0
LINE
8
BLACK
6
CONTINUOUS
10
82.466
20
-99.445
11
82.466
21
-97.245
0
LINE
8
BLACK
6
CONTINUOUS
10
82.466
20
-97.245
11
84.666
21
-97.245
0
LINE
8
BLACK
6
CONTINUOUS
10
84.666
20
-97.245
11
84.666
21
-99.445
0
LINE
8
BLACK
6
CONTINUOUS
10
87.206
20
-99.445
11
85.006
21
-99.445
0
LINE
8
BLACK
6
CONTINUOUS
10
85.006
20
-99.445
11
85.006
21
-97.245
0
LINE
8
BLACK
6
CONTINUOUS
10
85.006
20
-97.245
11
87.206
21
-97.245
0
LINE
8
BLACK
6
CONTINUOUS
10
87.206
20
-97.245
11
87.206
21
-99.445
0
LINE
8
BLACK
6
CONTINUOUS
10
99.652
20
-99.398
11
97.452
21
-99.398
0
LINE
8
BLACK
6
CONTINUOUS
10
97.452
20
-99.398
11
97.452
21
-97.198
0
LINE
8
BLACK
6
CONTINUOUS
10
97.452
20
-97.198
11
99.652
21
-97.198
0
LINE
8
BLACK
6
CONTINUOUS
10
99.652
20
-97.198
11
99.652
21
-99.398
0
LINE
8
BLACK
6
CONTINUOUS
10
102.192
20
-99.398
11
99.992
21
-99.398
0
LINE
8
BLACK
6
CONTINUOUS
10
99.992
20
-99.398
11
99.992
21
-97.198
0
LINE
8
BLACK
6
CONTINUOUS
10
99.992
20
-97.198
11
102.192
21
-97.198
0
LINE
8
BLACK
6
CONTINUOUS
10
102.192
20
-97.198
11
102.192
21
-99.398
0
LINE
8
BLACK
6
CONTINUOUS
10
166.454
20
-98.89
11
164.254
21
-98.89
0
LINE
8
BLACK
6
CONTINUOUS
10
164.254
20
-98.89
11
164.254
21
-96.69
0
LINE
8
BLACK
6
CONTINUOUS
10
164.254
20
-96.69
11
166.454
21
-96.69
0
LINE
8
BLACK
6
CONTINUOUS
10
166.454
20
-96.69
11
166.454
21
-98.89
0
LINE
8
BLACK
6
CONTINUOUS
10
163.914
20
-98.89
11
161.714
21
-98.89
0
LINE
8
BLACK
6
CONTINUOUS
10
161.714
20
-98.89
11
161.714
21
-96.69
0
LINE
8
BLACK
6
CONTINUOUS
10
161.714
20
-96.69
11
163.914
21
-96.69
0
LINE
8
BLACK
6
CONTINUOUS
10
163.914
20
-96.69
11
163.914
21
-98.89
0
LINE
8
BLACK
6
CONTINUOUS
10
152.992
20
-98.89
11
150.792
21
-98.89
0
LINE
8
BLACK
6
CONTINUOUS
10
150.792
20
-98.89
11
150.792
21
-96.69
0
LINE
8
BLACK
6
CONTINUOUS
10
150.792
20
-96.69
11
152.992
21
-96.69
0
LINE
8
BLACK
6
CONTINUOUS
10
152.992
20
-96.69
11
152.992
21
-98.89
0
LINE
8
BLACK
6
CONTINUOUS
10
150.452
20
-98.89
11
148.252
21
-98.89
0
LINE
8
BLACK
6
CONTINUOUS
10
148.252
20
-98.89
11
148.252
21
-96.69
0
LINE
8
BLACK
6
CONTINUOUS
10
148.252
20
-96.69
11
150.452
21
-96.69
0
LINE
8
BLACK
6
CONTINUOUS
10
150.452
20
-96.69
11
150.452
21
-98.89
0
LINE
8
BLACK
6
CONTINUOUS
10
84.666
20
-96.905
11
82.466
21
-96.905
0
LINE
8
BLACK
6
CONTINUOUS
10
82.466
20
-96.905
11
82.466
21
-94.705
0
LINE
8
BLACK
6
CONTINUOUS
10
82.466
20
-94.705
11
84.666
21
-94.705
0
LINE
8
BLACK
6
CONTINUOUS
10
84.666
20
-94.705
11
84.666
21
-96.905
0
LINE
8
BLACK
6
CONTINUOUS
10
87.206
20
-96.905
11
85.006
21
-96.905
0
LINE
8
BLACK
6
CONTINUOUS
10
85.006
20
-96.905
11
85.006
21
-94.705
0
LINE
8
BLACK
6
CONTINUOUS
10
85.006
20
-94.705
11
87.206
21
-94.705
0
LINE
8
BLACK
6
CONTINUOUS
10
87.206
20
-94.705
11
87.206
21
-96.905
0
LINE
8
BLACK
6
CONTINUOUS
10
102.192
20
-96.858
11
99.992
21
-96.858
0
LINE
8
BLACK
6
CONTINUOUS
10
99.992
20
-96.858
11
99.992
21
-94.658
0
LINE
8
BLACK
6
CONTINUOUS
10
99.992
20
-94.658
11
102.192
21
-94.658
0
LINE
8
BLACK
6
CONTINUOUS
10
102.192
20
-94.658
11
102.192
21
-96.858
0
LINE
8
BLACK
6
CONTINUOUS
10
99.652
20
-96.858
11
97.452
21
-96.858
0
LINE
8
BLACK
6
CONTINUOUS
10
97.452
20
-96.858
11
97.452
21
-94.658
0
LINE
8
BLACK
6
CONTINUOUS
10
97.452
20
-94.658
11
99.652
21
-94.658
0
LINE
8
BLACK
6
CONTINUOUS
10
99.652
20
-94.658
11
99.652
21
-96.858
0
LINE
8
BLACK
6
CONTINUOUS
10
152.992
20
-96.35
11
150.792
21
-96.35
0
LINE
8
BLACK
6
CONTINUOUS
10
150.792
20
-96.35
11
150.792
21
-94.15
0
LINE
8
BLACK
6
CONTINUOUS
10
150.792
20
-94.15
11
152.992
21
-94.15
0
LINE
8
BLACK
6
CONTINUOUS
10
152.992
20
-94.15
11
152.992
21
-96.35
0
LINE
8
BLACK
6
CONTINUOUS
10
166.454
20
-96.35
11
164.254
21
-96.35
0
LINE
8
BLACK
6
CONTINUOUS
10
164.254
20
-96.35
11
164.254
21
-94.15
0
LINE
8
BLACK
6
CONTINUOUS
10
164.254
20
-94.15
11
166.454
21
-94.15
0
LINE
8
BLACK
6
CONTINUOUS
10
166.454
20
-94.15
11
166.454
21
-96.35
0
LINE
8
BLACK
6
CONTINUOUS
10
163.914
20
-96.35
11
161.714
21
-96.35
0
LINE
8
BLACK
6
CONTINUOUS
10
161.714
20
-96.35
11
161.714
21
-94.15
0
LINE
8
BLACK
6
CONTINUOUS
10
161.714
20
-94.15
11
163.914
21
-94.15
0
LINE
8
BLACK
6
CONTINUOUS
10
163.914
20
-94.15
11
163.914
21
-96.35
0
LINE
8
BLACK
6
CONTINUOUS
10
150.452
20
-96.35
11
148.252
21
-96.35
0
LINE
8
BLACK
6
CONTINUOUS
10
148.252
20
-96.35
11
148.252
21
-94.15
0
LINE
8
BLACK
6
CONTINUOUS
10
148.252
20
-94.15
11
150.452
21
-94.15
0
LINE
8
BLACK
6
CONTINUOUS
10
150.452
20
-94.15
11
150.452
21
-96.35
0
LINE
8
BLACK
6
CONTINUOUS
10
84.666
20
-94.365
11
82.466
21
-94.365
0
LINE
8
BLACK
6
CONTINUOUS
10
82.466
20
-94.365
11
82.466
21
-92.165
0
LINE
8
BLACK
6
CONTINUOUS
10
82.466
20
-92.165
11
84.666
21
-92.165
0
LINE
8
BLACK
6
CONTINUOUS
10
84.666
20
-92.165
11
84.666
21
-94.365
0
LINE
8
BLACK
6
CONTINUOUS
10
87.206
20
-94.365
11
85.006
21
-94.365
0
LINE
8
BLACK
6
CONTINUOUS
10
85.006
20
-94.365
11
85.006
21
-92.165
0
LINE
8
BLACK
6
CONTINUOUS
10
85.006
20
-92.165
11
87.206
21
-92.165
0
LINE
8
BLACK
6
CONTINUOUS
10
87.206
20
-92.165
11
87.206
21
-94.365
0
LINE
8
BLACK
6
CONTINUOUS
10
99.652
20
-94.318
11
97.452
21
-94.318
0
LINE
8
BLACK
6
CONTINUOUS
10
97.452
20
-94.318
11
97.452
21
-92.118
0
LINE
8
BLACK
6
CONTINUOUS
10
97.452
20
-92.118
11
99.652
21
-92.118
0
LINE
8
BLACK
6
CONTINUOUS
10
99.652
20
-92.118
11
99.652
21
-94.318
0
LINE
8
BLACK
6
CONTINUOUS
10
102.192
20
-94.318
11
99.992
21
-94.318
0
LINE
8
BLACK
6
CONTINUOUS
10
99.992
20
-94.318
11
99.992
21
-92.118
0
LINE
8
BLACK
6
CONTINUOUS
10
99.992
20
-92.118
11
102.192
21
-92.118
0
LINE
8
BLACK
6
CONTINUOUS
10
102.192
20
-92.118
11
102.192
21
-94.318
0
LINE
8
BLACK
6
CONTINUOUS
10
150.452
20
-93.81
11
148.252
21
-93.81
0
LINE
8
BLACK
6
CONTINUOUS
10
148.252
20
-93.81
11
148.252
21
-91.61
0
LINE
8
BLACK
6
CONTINUOUS
10
148.252
20
-91.61
11
150.452
21
-91.61
0
LINE
8
BLACK
6
CONTINUOUS
10
150.452
20
-91.61
11
150.452
21
-93.81
0
LINE
8
BLACK
6
CONTINUOUS
10
152.992
20
-93.81
11
150.792
21
-93.81
0
LINE
8
BLACK
6
CONTINUOUS
10
150.792
20
-93.81
11
150.792
21
-91.61
0
LINE
8
BLACK
6
CONTINUOUS
10
150.792
20
-91.61
11
152.992
21
-91.61
0
LINE
8
BLACK
6
CONTINUOUS
10
152.992
20
-91.61
11
152.992
21
-93.81
0
LINE
8
BLACK
6
CONTINUOUS
10
163.914
20
-93.81
11
161.714
21
-93.81
0
LINE
8
BLACK
6
CONTINUOUS
10
161.714
20
-93.81
11
161.714
21
-91.61
0
LINE
8
BLACK
6
CONTINUOUS
10
161.714
20
-91.61
11
163.914
21
-91.61
0
LINE
8
BLACK
6
CONTINUOUS
10
163.914
20
-91.61
11
163.914
21
-93.81
0
LINE
8
BLACK
6
CONTINUOUS
10
166.454
20
-93.81
11
164.254
21
-93.81
0
LINE
8
BLACK
6
CONTINUOUS
10
164.254
20
-93.81
11
164.254
21
-91.61
0
LINE
8
BLACK
6
CONTINUOUS
10
164.254
20
-91.61
11
166.454
21
-91.61
0
LINE
8
BLACK
6
CONTINUOUS
10
166.454
20
-91.61
11
166.454
21
-93.81
0
LINE
8
BLACK
6
CONTINUOUS
10
87.206
20
-91.825
11
85.006
21
-91.825
0
LINE
8
BLACK
6
CONTINUOUS
10
85.006
20
-91.825
11
85.006
21
-89.625
0
LINE
8
BLACK
6
CONTINUOUS
10
85.006
20
-89.625
11
87.206
21
-89.625
0
LINE
8
BLACK
6
CONTINUOUS
10
87.206
20
-89.625
11
87.206
21
-91.825
0
LINE
8
BLACK
6
CONTINUOUS
10
84.666
20
-91.825
11
82.466
21
-91.825
0
LINE
8
BLACK
6
CONTINUOUS
10
82.466
20
-91.825
11
82.466
21
-89.625
0
LINE
8
BLACK
6
CONTINUOUS
10
82.466
20
-89.625
11
84.666
21
-89.625
0
LINE
8
BLACK
6
CONTINUOUS
10
84.666
20
-89.625
11
84.666
21
-91.825
0
LINE
8
BLACK
6
CONTINUOUS
10
102.192
20
-91.778
11
99.992
21
-91.778
0
LINE
8
BLACK
6
CONTINUOUS
10
99.992
20
-91.778
11
99.992
21
-89.578
0
LINE
8
BLACK
6
CONTINUOUS
10
99.992
20
-89.578
11
102.192
21
-89.578
0
LINE
8
BLACK
6
CONTINUOUS
10
102.192
20
-89.578
11
102.192
21
-91.778
0
LINE
8
BLACK
6
CONTINUOUS
10
99.652
20
-91.778
11
97.452
21
-91.778
0
LINE
8
BLACK
6
CONTINUOUS
10
97.452
20
-91.778
11
97.452
21
-89.578
0
LINE
8
BLACK
6
CONTINUOUS
10
97.452
20
-89.578
11
99.652
21
-89.578
0
LINE
8
BLACK
6
CONTINUOUS
10
99.652
20
-89.578
11
99.652
21
-91.778
0
LINE
8
BLACK
6
CONTINUOUS
10
150.452
20
-91.27
11
148.252
21
-91.27
0
LINE
8
BLACK
6
CONTINUOUS
10
148.252
20
-91.27
11
148.252
21
-89.07
0
LINE
8
BLACK
6
CONTINUOUS
10
148.252
20
-89.07
11
150.452
21
-89.07
0
LINE
8
BLACK
6
CONTINUOUS
10
150.452
20
-89.07
11
150.452
21
-91.27
0
LINE
8
BLACK
6
CONTINUOUS
10
166.454
20
-91.27
11
164.254
21
-91.27
0
LINE
8
BLACK
6
CONTINUOUS
10
164.254
20
-91.27
11
164.254
21
-89.07
0
LINE
8
BLACK
6
CONTINUOUS
10
164.254
20
-89.07
11
166.454
21
-89.07
0
LINE
8
BLACK
6
CONTINUOUS
10
166.454
20
-89.07
11
166.454
21
-91.27
0
LINE
8
BLACK
6
CONTINUOUS
10
163.914
20
-91.27
11
161.714
21
-91.27
0
LINE
8
BLACK
6
CONTINUOUS
10
161.714
20
-91.27
11
161.714
21
-89.07
0
LINE
8
BLACK
6
CONTINUOUS
10
161.714
20
-89.07
11
163.914
21
-89.07
0
LINE
8
BLACK
6
CONTINUOUS
10
163.914
20
-89.07
11
163.914
21
-91.27
0
LINE
8
BLACK
6
CONTINUOUS
10
152.992
20
-91.27
11
150.792
21
-91.27
0
LINE
8
BLACK
6
CONTINUOUS
10
150.792
20
-91.27
11
150.792
21
-89.07
0
LINE
8
BLACK
6
CONTINUOUS
10
150.792
20
-89.07
11
152.992
21
-89.07
0
LINE
8
BLACK
6
CONTINUOUS
10
152.992
20
-89.07
11
152.992
21
-91.27
0
LINE
8
BLACK
6
CONTINUOUS
10
84.666
20
-89.285
11
82.466
21
-89.285
0
LINE
8
BLACK
6
CONTINUOUS
10
82.466
20
-89.285
11
82.466
21
-87.085
0
LINE
8
BLACK
6
CONTINUOUS
10
82.466
20
-87.085
11
84.666
21
-87.085
0
LINE
8
BLACK
6
CONTINUOUS
10
84.666
20
-87.085
11
84.666
21
-89.285
0
LINE
8
BLACK
6
CONTINUOUS
10
87.206
20
-89.285
11
85.006
21
-89.285
0
LINE
8
BLACK
6
CONTINUOUS
10
85.006
20
-89.285
11
85.006
21
-87.085
0
LINE
8
BLACK
6
CONTINUOUS
10
85.006
20
-87.085
11
87.206
21
-87.085
0
LINE
8
BLACK
6
CONTINUOUS
10
87.206
20
-87.085
11
87.206
21
-89.285
0
LINE
8
BLACK
6
CONTINUOUS
10
102.192
20
-89.238
11
99.992
21
-89.238
0
LINE
8
BLACK
6
CONTINUOUS
10
99.992
20
-89.238
11
99.992
21
-87.038
0
LINE
8
BLACK
6
CONTINUOUS
10
99.992
20
-87.038
11
102.192
21
-87.038
0
LINE
8
BLACK
6
CONTINUOUS
10
102.192
20
-87.038
11
102.192
21
-89.238
0
LINE
8
BLACK
6
CONTINUOUS
10
99.652
20
-89.238
11
97.452
21
-89.238
0
LINE
8
BLACK
6
CONTINUOUS
10
97.452
20
-89.238
11
97.452
21
-87.038
0
LINE
8
BLACK
6
CONTINUOUS
10
97.452
20
-87.038
11
99.652
21
-87.038
0
LINE
8
BLACK
6
CONTINUOUS
10
99.652
20
-87.038
11
99.652
21
-89.238
0
LINE
8
BLACK
6
CONTINUOUS
10
150.452
20
-88.73
11
148.252
21
-88.73
0
LINE
8
BLACK
6
CONTINUOUS
10
148.252
20
-88.73
11
148.252
21
-86.53
0
LINE
8
BLACK
6
CONTINUOUS
10
148.252
20
-86.53
11
150.452
21
-86.53
0
LINE
8
BLACK
6
CONTINUOUS
10
150.452
20
-86.53
11
150.452
21
-88.73
0
LINE
8
BLACK
6
CONTINUOUS
10
152.992
20
-88.73
11
150.792
21
-88.73
0
LINE
8
BLACK
6
CONTINUOUS
10
150.792
20
-88.73
11
150.792
21
-86.53
0
LINE
8
BLACK
6
CONTINUOUS
10
150.792
20
-86.53
11
152.992
21
-86.53
0
LINE
8
BLACK
6
CONTINUOUS
10
152.992
20
-86.53
11
152.992
21
-88.73
0
LINE
8
BLACK
6
CONTINUOUS
10
163.914
20
-88.73
11
161.714
21
-88.73
0
LINE
8
BLACK
6
CONTINUOUS
10
161.714
20
-88.73
11
161.714
21
-86.53
0
LINE
8
BLACK
6
CONTINUOUS
10
161.714
20
-86.53
11
163.914
21
-86.53
0
LINE
8
BLACK
6
CONTINUOUS
10
163.914
20
-86.53
11
163.914
21
-88.73
0
LINE
8
BLACK
6
CONTINUOUS
10
166.454
20
-88.73
11
164.254
21
-88.73
0
LINE
8
BLACK
6
CONTINUOUS
10
164.254
20
-88.73
11
164.254
21
-86.53
0
LINE
8
BLACK
6
CONTINUOUS
10
164.254
20
-86.53
11
166.454
21
-86.53
0
LINE
8
BLACK
6
CONTINUOUS
10
166.454
20
-86.53
11
166.454
21
-88.73
0
LINE
8
BLACK
6
CONTINUOUS
10
87.206
20
-86.745
11
85.006
21
-86.745
0
LINE
8
BLACK
6
CONTINUOUS
10
85.006
20
-86.745
11
85.006
21
-84.545
0
LINE
8
BLACK
6
CONTINUOUS
10
85.006
20
-84.545
11
87.206
21
-84.545
0
LINE
8
BLACK
6
CONTINUOUS
10
87.206
20
-84.545
11
87.206
21
-86.745
0
LINE
8
BLACK
6
CONTINUOUS
10
84.666
20
-86.745
11
82.466
21
-86.745
0
LINE
8
BLACK
6
CONTINUOUS
10
82.466
20
-86.745
11
82.466
21
-84.545
0
LINE
8
BLACK
6
CONTINUOUS
10
82.466
20
-84.545
11
84.666
21
-84.545
0
LINE
8
BLACK
6
CONTINUOUS
10
84.666
20
-84.545
11
84.666
21
-86.745
0
LINE
8
BLACK
6
CONTINUOUS
10
99.652
20
-86.698
11
97.452
21
-86.698
0
LINE
8
BLACK
6
CONTINUOUS
10
97.452
20
-86.698
11
97.452
21
-84.498
0
LINE
8
BLACK
6
CONTINUOUS
10
97.452
20
-84.498
11
99.652
21
-84.498
0
LINE
8
BLACK
6
CONTINUOUS
10
99.652
20
-84.498
11
99.652
21
-86.698
0
LINE
8
BLACK
6
CONTINUOUS
10
102.192
20
-86.698
11
99.992
21
-86.698
0
LINE
8
BLACK
6
CONTINUOUS
10
99.992
20
-86.698
11
99.992
21
-84.498
0
LINE
8
BLACK
6
CONTINUOUS
10
99.992
20
-84.498
11
102.192
21
-84.498
0
LINE
8
BLACK
6
CONTINUOUS
10
102.192
20
-84.498
11
102.192
21
-86.698
0
LINE
8
BLACK
6
CONTINUOUS
10
166.454
20
-86.19
11
164.254
21
-86.19
0
LINE
8
BLACK
6
CONTINUOUS
10
164.254
20
-86.19
11
164.254
21
-83.99
0
LINE
8
BLACK
6
CONTINUOUS
10
164.254
20
-83.99
11
166.454
21
-83.99
0
LINE
8
BLACK
6
CONTINUOUS
10
166.454
20
-83.99
11
166.454
21
-86.19
0
LINE
8
BLACK
6
CONTINUOUS
10
150.452
20
-86.19
11
148.252
21
-86.19
0
LINE
8
BLACK
6
CONTINUOUS
10
148.252
20
-86.19
11
148.252
21
-83.99
0
LINE
8
BLACK
6
CONTINUOUS
10
148.252
20
-83.99
11
150.452
21
-83.99
0
LINE
8
BLACK
6
CONTINUOUS
10
150.452
20
-83.99
11
150.452
21
-86.19
0
LINE
8
BLACK
6
CONTINUOUS
10
152.992
20
-86.19
11
150.792
21
-86.19
0
LINE
8
BLACK
6
CONTINUOUS
10
150.792
20
-86.19
11
150.792
21
-83.99
0
LINE
8
BLACK
6
CONTINUOUS
10
150.792
20
-83.99
11
152.992
21
-83.99
0
LINE
8
BLACK
6
CONTINUOUS
10
152.992
20
-83.99
11
152.992
21
-86.19
0
LINE
8
BLACK
6
CONTINUOUS
10
163.914
20
-86.19
11
161.714
21
-86.19
0
LINE
8
BLACK
6
CONTINUOUS
10
161.714
20
-86.19
11
161.714
21
-83.99
0
LINE
8
BLACK
6
CONTINUOUS
10
161.714
20
-83.99
11
163.914
21
-83.99
0
LINE
8
BLACK
6
CONTINUOUS
10
163.914
20
-83.99
11
163.914
21
-86.19
0
LINE
8
BLACK
6
CONTINUOUS
10
84.666
20
-84.205
11
82.466
21
-84.205
0
LINE
8
BLACK
6
CONTINUOUS
10
82.466
20
-84.205
11
82.466
21
-82.005
0
LINE
8
BLACK
6
CONTINUOUS
10
82.466
20
-82.005
11
84.666
21
-82.005
0
LINE
8
BLACK
6
CONTINUOUS
10
84.666
20
-82.005
11
84.666
21
-84.205
0
LINE
8
BLACK
6
CONTINUOUS
10
87.206
20
-84.205
11
85.006
21
-84.205
0
LINE
8
BLACK
6
CONTINUOUS
10
85.006
20
-84.205
11
85.006
21
-82.005
0
LINE
8
BLACK
6
CONTINUOUS
10
85.006
20
-82.005
11
87.206
21
-82.005
0
LINE
8
BLACK
6
CONTINUOUS
10
87.206
20
-82.005
11
87.206
21
-84.205
0
LINE
8
BLACK
6
CONTINUOUS
10
99.652
20
-84.158
11
97.452
21
-84.158
0
LINE
8
BLACK
6
CONTINUOUS
10
97.452
20
-84.158
11
97.452
21
-81.958
0
LINE
8
BLACK
6
CONTINUOUS
10
97.452
20
-81.958
11
99.652
21
-81.958
0
LINE
8
BLACK
6
CONTINUOUS
10
99.652
20
-81.958
11
99.652
21
-84.158
0
LINE
8
BLACK
6
CONTINUOUS
10
102.192
20
-84.158
11
99.992
21
-84.158
0
LINE
8
BLACK
6
CONTINUOUS
10
99.992
20
-84.158
11
99.992
21
-81.958
0
LINE
8
BLACK
6
CONTINUOUS
10
99.992
20
-81.958
11
102.192
21
-81.958
0
LINE
8
BLACK
6
CONTINUOUS
10
102.192
20
-81.958
11
102.192
21
-84.158
0
LINE
8
BLACK
6
CONTINUOUS
10
150.452
20
-83.65
11
148.252
21
-83.65
0
LINE
8
BLACK
6
CONTINUOUS
10
148.252
20
-83.65
11
148.252
21
-81.45
0
LINE
8
BLACK
6
CONTINUOUS
10
148.252
20
-81.45
11
150.452
21
-81.45
0
LINE
8
BLACK
6
CONTINUOUS
10
150.452
20
-81.45
11
150.452
21
-83.65
0
LINE
8
BLACK
6
CONTINUOUS
10
163.914
20
-83.65
11
161.714
21
-83.65
0
LINE
8
BLACK
6
CONTINUOUS
10
161.714
20
-83.65
11
161.714
21
-81.45
0
LINE
8
BLACK
6
CONTINUOUS
10
161.714
20
-81.45
11
163.914
21
-81.45
0
LINE
8
BLACK
6
CONTINUOUS
10
163.914
20
-81.45
11
163.914
21
-83.65
0
LINE
8
BLACK
6
CONTINUOUS
10
166.454
20
-83.65
11
164.254
21
-83.65
0
LINE
8
BLACK
6
CONTINUOUS
10
164.254
20
-83.65
11
164.254
21
-81.45
0
LINE
8
BLACK
6
CONTINUOUS
10
164.254
20
-81.45
11
166.454
21
-81.45
0
LINE
8
BLACK
6
CONTINUOUS
10
166.454
20
-81.45
11
166.454
21
-83.65
0
LINE
8
BLACK
6
CONTINUOUS
10
152.992
20
-83.65
11
150.792
21
-83.65
0
LINE
8
BLACK
6
CONTINUOUS
10
150.792
20
-83.65
11
150.792
21
-81.45
0
LINE
8
BLACK
6
CONTINUOUS
10
150.792
20
-81.45
11
152.992
21
-81.45
0
LINE
8
BLACK
6
CONTINUOUS
10
152.992
20
-81.45
11
152.992
21
-83.65
0
LINE
8
BLACK
6
CONTINUOUS
10
87.206
20
-81.665
11
85.006
21
-81.665
0
LINE
8
BLACK
6
CONTINUOUS
10
85.006
20
-81.665
11
85.006
21
-79.465
0
LINE
8
BLACK
6
CONTINUOUS
10
85.006
20
-79.465
11
87.206
21
-79.465
0
LINE
8
BLACK
6
CONTINUOUS
10
87.206
20
-79.465
11
87.206
21
-81.665
0
LINE
8
BLACK
6
CONTINUOUS
10
84.666
20
-81.665
11
82.466
21
-81.665
0
LINE
8
BLACK
6
CONTINUOUS
10
82.466
20
-81.665
11
82.466
21
-79.465
0
LINE
8
BLACK
6
CONTINUOUS
10
82.466
20
-79.465
11
84.666
21
-79.465
0
LINE
8
BLACK
6
CONTINUOUS
10
84.666
20
-79.465
11
84.666
21
-81.665
0
LINE
8
BLACK
6
CONTINUOUS
10
102.192
20
-81.618
11
99.992
21
-81.618
0
LINE
8
BLACK
6
CONTINUOUS
10
99.992
20
-81.618
11
99.992
21
-79.418
0
LINE
8
BLACK
6
CONTINUOUS
10
99.992
20
-79.418
11
102.192
21
-79.418
0
LINE
8
BLACK
6
CONTINUOUS
10
102.192
20
-79.418
11
102.192
21
-81.618
0
LINE
8
BLACK
6
CONTINUOUS
10
99.652
20
-81.618
11
97.452
21
-81.618
0
LINE
8
BLACK
6
CONTINUOUS
10
97.452
20
-81.618
11
97.452
21
-79.418
0
LINE
8
BLACK
6
CONTINUOUS
10
97.452
20
-79.418
11
99.652
21
-79.418
0
LINE
8
BLACK
6
CONTINUOUS
10
99.652
20
-79.418
11
99.652
21
-81.618
0
LINE
8
BLACK
6
CONTINUOUS
10
166.454
20
-81.11
11
164.254
21
-81.11
0
LINE
8
BLACK
6
CONTINUOUS
10
164.254
20
-81.11
11
164.254
21
-78.91
0
LINE
8
BLACK
6
CONTINUOUS
10
164.254
20
-78.91
11
166.454
21
-78.91
0
LINE
8
BLACK
6
CONTINUOUS
10
166.454
20
-78.91
11
166.454
21
-81.11
0
LINE
8
BLACK
6
CONTINUOUS
10
163.914
20
-81.11
11
161.714
21
-81.11
0
LINE
8
BLACK
6
CONTINUOUS
10
161.714
20
-81.11
11
161.714
21
-78.91
0
LINE
8
BLACK
6
CONTINUOUS
10
161.714
20
-78.91
11
163.914
21
-78.91
0
LINE
8
BLACK
6
CONTINUOUS
10
163.914
20
-78.91
11
163.914
21
-81.11
0
LINE
8
BLACK
6
CONTINUOUS
10
150.452
20
-81.11
11
148.252
21
-81.11
0
LINE
8
BLACK
6
CONTINUOUS
10
148.252
20
-81.11
11
148.252
21
-78.91
0
LINE
8
BLACK
6
CONTINUOUS
10
148.252
20
-78.91
11
150.452
21
-78.91
0
LINE
8
BLACK
6
CONTINUOUS
10
150.452
20
-78.91
11
150.452
21
-81.11
0
LINE
8
BLACK
6
CONTINUOUS
10
152.992
20
-81.11
11
150.792
21
-81.11
0
LINE
8
BLACK
6
CONTINUOUS
10
150.792
20
-81.11
11
150.792
21
-78.91
0
LINE
8
BLACK
6
CONTINUOUS
10
150.792
20
-78.91
11
152.992
21
-78.91
0
LINE
8
BLACK
6
CONTINUOUS
10
152.992
20
-78.91
11
152.992
21
-81.11
0
LINE
8
BLACK
6
CONTINUOUS
10
84.666
20
-79.125
11
82.466
21
-79.125
0
LINE
8
BLACK
6
CONTINUOUS
10
82.466
20
-79.125
11
82.466
21
-76.925
0
LINE
8
BLACK
6
CONTINUOUS
10
82.466
20
-76.925
11
84.666
21
-76.925
0
LINE
8
BLACK
6
CONTINUOUS
10
84.666
20
-76.925
11
84.666
21
-79.125
0
LINE
8
BLACK
6
CONTINUOUS
10
87.206
20
-79.125
11
85.006
21
-79.125
0
LINE
8
BLACK
6
CONTINUOUS
10
85.006
20
-79.125
11
85.006
21
-76.925
0
LINE
8
BLACK
6
CONTINUOUS
10
85.006
20
-76.925
11
87.206
21
-76.925
0
LINE
8
BLACK
6
CONTINUOUS
10
87.206
20
-76.925
11
87.206
21
-79.125
0
LINE
8
BLACK
6
CONTINUOUS
10
99.652
20
-79.078
11
97.452
21
-79.078
0
LINE
8
BLACK
6
CONTINUOUS
10
97.452
20
-79.078
11
97.452
21
-76.878
0
LINE
8
BLACK
6
CONTINUOUS
10
97.452
20
-76.878
11
99.652
21
-76.878
0
LINE
8
BLACK
6
CONTINUOUS
10
99.652
20
-76.878
11
99.652
21
-79.078
0
LINE
8
BLACK
6
CONTINUOUS
10
102.192
20
-79.078
11
99.992
21
-79.078
0
LINE
8
BLACK
6
CONTINUOUS
10
99.992
20
-79.078
11
99.992
21
-76.878
0
LINE
8
BLACK
6
CONTINUOUS
10
99.992
20
-76.878
11
102.192
21
-76.878
0
LINE
8
BLACK
6
CONTINUOUS
10
102.192
20
-76.878
11
102.192
21
-79.078
0
LINE
8
BLACK
6
CONTINUOUS
10
152.992
20
-78.57
11
150.792
21
-78.57
0
LINE
8
BLACK
6
CONTINUOUS
10
150.792
20
-78.57
11
150.792
21
-76.37
0
LINE
8
BLACK
6
CONTINUOUS
10
150.792
20
-76.37
11
152.992
21
-76.37
0
LINE
8
BLACK
6
CONTINUOUS
10
152.992
20
-76.37
11
152.992
21
-78.57
0
LINE
8
BLACK
6
CONTINUOUS
10
150.452
20
-78.57
11
148.252
21
-78.57
0
LINE
8
BLACK
6
CONTINUOUS
10
148.252
20
-78.57
11
148.252
21
-76.37
0
LINE
8
BLACK
6
CONTINUOUS
10
148.252
20
-76.37
11
150.452
21
-76.37
0
LINE
8
BLACK
6
CONTINUOUS
10
150.452
20
-76.37
11
150.452
21
-78.57
0
LINE
8
BLACK
6
CONTINUOUS
10
166.454
20
-78.57
11
164.254
21
-78.57
0
LINE
8
BLACK
6
CONTINUOUS
10
164.254
20
-78.57
11
164.254
21
-76.37
0
LINE
8
BLACK
6
CONTINUOUS
10
164.254
20
-76.37
11
166.454
21
-76.37
0
LINE
8
BLACK
6
CONTINUOUS
10
166.454
20
-76.37
11
166.454
21
-78.57
0
LINE
8
BLACK
6
CONTINUOUS
10
163.914
20
-78.57
11
161.714
21
-78.57
0
LINE
8
BLACK
6
CONTINUOUS
10
161.714
20
-78.57
11
161.714
21
-76.37
0
LINE
8
BLACK
6
CONTINUOUS
10
161.714
20
-76.37
11
163.914
21
-76.37
0
LINE
8
BLACK
6
CONTINUOUS
10
163.914
20
-76.37
11
163.914
21
-78.57
0
LINE
8
BLACK
6
CONTINUOUS
10
87.206
20
-76.585
11
85.006
21
-76.585
0
LINE
8
BLACK
6
CONTINUOUS
10
85.006
20
-76.585
11
85.006
21
-74.385
0
LINE
8
BLACK
6
CONTINUOUS
10
85.006
20
-74.385
11
87.206
21
-74.385
0
LINE
8
BLACK
6
CONTINUOUS
10
87.206
20
-74.385
11
87.206
21
-76.585
0
LINE
8
BLACK
6
CONTINUOUS
10
84.666
20
-76.585
11
82.466
21
-76.585
0
LINE
8
BLACK
6
CONTINUOUS
10
82.466
20
-76.585
11
82.466
21
-74.385
0
LINE
8
BLACK
6
CONTINUOUS
10
82.466
20
-74.385
11
84.666
21
-74.385
0
LINE
8
BLACK
6
CONTINUOUS
10
84.666
20
-74.385
11
84.666
21
-76.585
0
LINE
8
BLACK
6
CONTINUOUS
10
102.192
20
-76.538
11
99.992
21
-76.538
0
LINE
8
BLACK
6
CONTINUOUS
10
99.992
20
-76.538
11
99.992
21
-74.338
0
LINE
8
BLACK
6
CONTINUOUS
10
99.992
20
-74.338
11
102.192
21
-74.338
0
LINE
8
BLACK
6
CONTINUOUS
10
102.192
20
-74.338
11
102.192
21
-76.538
0
LINE
8
BLACK
6
CONTINUOUS
10
99.652
20
-76.538
11
97.452
21
-76.538
0
LINE
8
BLACK
6
CONTINUOUS
10
97.452
20
-76.538
11
97.452
21
-74.338
0
LINE
8
BLACK
6
CONTINUOUS
10
97.452
20
-74.338
11
99.652
21
-74.338
0
LINE
8
BLACK
6
CONTINUOUS
10
99.652
20
-74.338
11
99.652
21
-76.538
0
LINE
8
BLACK
6
CONTINUOUS
10
163.914
20
-76.03
11
161.714
21
-76.03
0
LINE
8
BLACK
6
CONTINUOUS
10
161.714
20
-76.03
11
161.714
21
-73.83
0
LINE
8
BLACK
6
CONTINUOUS
10
161.714
20
-73.83
11
163.914
21
-73.83
0
LINE
8
BLACK
6
CONTINUOUS
10
163.914
20
-73.83
11
163.914
21
-76.03
0
LINE
8
BLACK
6
CONTINUOUS
10
150.452
20
-76.03
11
148.252
21
-76.03
0
LINE
8
BLACK
6
CONTINUOUS
10
148.252
20
-76.03
11
148.252
21
-73.83
0
LINE
8
BLACK
6
CONTINUOUS
10
148.252
20
-73.83
11
150.452
21
-73.83
0
LINE
8
BLACK
6
CONTINUOUS
10
150.452
20
-73.83
11
150.452
21
-76.03
0
LINE
8
BLACK
6
CONTINUOUS
10
152.992
20
-76.03
11
150.792
21
-76.03
0
LINE
8
BLACK
6
CONTINUOUS
10
150.792
20
-76.03
11
150.792
21
-73.83
0
LINE
8
BLACK
6
CONTINUOUS
10
150.792
20
-73.83
11
152.992
21
-73.83
0
LINE
8
BLACK
6
CONTINUOUS
10
152.992
20
-73.83
11
152.992
21
-76.03
0
LINE
8
BLACK
6
CONTINUOUS
10
166.454
20
-76.03
11
164.254
21
-76.03
0
LINE
8
BLACK
6
CONTINUOUS
10
164.254
20
-76.03
11
164.254
21
-73.83
0
LINE
8
BLACK
6
CONTINUOUS
10
164.254
20
-73.83
11
166.454
21
-73.83
0
LINE
8
BLACK
6
CONTINUOUS
10
166.454
20
-73.83
11
166.454
21
-76.03
0
LINE
8
BLACK
6
CONTINUOUS
10
87.206
20
-74.045
11
85.006
21
-74.045
0
LINE
8
BLACK
6
CONTINUOUS
10
85.006
20
-74.045
11
85.006
21
-71.845
0
LINE
8
BLACK
6
CONTINUOUS
10
85.006
20
-71.845
11
87.206
21
-71.845
0
LINE
8
BLACK
6
CONTINUOUS
10
87.206
20
-71.845
11
87.206
21
-74.045
0
LINE
8
BLACK
6
CONTINUOUS
10
84.666
20
-74.045
11
82.466
21
-74.045
0
LINE
8
BLACK
6
CONTINUOUS
10
82.466
20
-74.045
11
82.466
21
-71.845
0
LINE
8
BLACK
6
CONTINUOUS
10
82.466
20
-71.845
11
84.666
21
-71.845
0
LINE
8
BLACK
6
CONTINUOUS
10
84.666
20
-71.845
11
84.666
21
-74.045
0
LINE
8
BLACK
6
CONTINUOUS
10
102.192
20
-73.998
11
99.992
21
-73.998
0
LINE
8
BLACK
6
CONTINUOUS
10
99.992
20
-73.998
11
99.992
21
-71.798
0
LINE
8
BLACK
6
CONTINUOUS
10
99.992
20
-71.798
11
102.192
21
-71.798
0
LINE
8
BLACK
6
CONTINUOUS
10
102.192
20
-71.798
11
102.192
21
-73.998
0
LINE
8
BLACK
6
CONTINUOUS
10
99.652
20
-73.998
11
97.452
21
-73.998
0
LINE
8
BLACK
6
CONTINUOUS
10
97.452
20
-73.998
11
97.452
21
-71.798
0
LINE
8
BLACK
6
CONTINUOUS
10
97.452
20
-71.798
11
99.652
21
-71.798
0
LINE
8
BLACK
6
CONTINUOUS
10
99.652
20
-71.798
11
99.652
21
-73.998
0
LINE
8
BLACK
6
CONTINUOUS
10
150.452
20
-73.49
11
148.252
21
-73.49
0
LINE
8
BLACK
6
CONTINUOUS
10
148.252
20
-73.49
11
148.252
21
-71.29
0
LINE
8
BLACK
6
CONTINUOUS
10
148.252
20
-71.29
11
150.452
21
-71.29
0
LINE
8
BLACK
6
CONTINUOUS
10
150.452
20
-71.29
11
150.452
21
-73.49
0
LINE
8
BLACK
6
CONTINUOUS
10
163.914
20
-73.49
11
161.714
21
-73.49
0
LINE
8
BLACK
6
CONTINUOUS
10
161.714
20
-73.49
11
161.714
21
-71.29
0
LINE
8
BLACK
6
CONTINUOUS
10
161.714
20
-71.29
11
163.914
21
-71.29
0
LINE
8
BLACK
6
CONTINUOUS
10
163.914
20
-71.29
11
163.914
21
-73.49
0
LINE
8
BLACK
6
CONTINUOUS
10
152.992
20
-73.49
11
150.792
21
-73.49
0
LINE
8
BLACK
6
CONTINUOUS
10
150.792
20
-73.49
11
150.792
21
-71.29
0
LINE
8
BLACK
6
CONTINUOUS
10
150.792
20
-71.29
11
152.992
21
-71.29
0
LINE
8
BLACK
6
CONTINUOUS
10
152.992
20
-71.29
11
152.992
21
-73.49
0
LINE
8
BLACK
6
CONTINUOUS
10
166.454
20
-73.49
11
164.254
21
-73.49
0
LINE
8
BLACK
6
CONTINUOUS
10
164.254
20
-73.49
11
164.254
21
-71.29
0
LINE
8
BLACK
6
CONTINUOUS
10
164.254
20
-71.29
11
166.454
21
-71.29
0
LINE
8
BLACK
6
CONTINUOUS
10
166.454
20
-71.29
11
166.454
21
-73.49
0
LINE
8
BLACK
6
CONTINUOUS
10
87.206
20
-71.505
11
85.006
21
-71.505
0
LINE
8
BLACK
6
CONTINUOUS
10
85.006
20
-71.505
11
85.006
21
-69.305
0
LINE
8
BLACK
6
CONTINUOUS
10
85.006
20
-69.305
11
87.206
21
-69.305
0
LINE
8
BLACK
6
CONTINUOUS
10
87.206
20
-69.305
11
87.206
21
-71.505
0
LINE
8
BLACK
6
CONTINUOUS
10
84.666
20
-71.505
11
82.466
21
-71.505
0
LINE
8
BLACK
6
CONTINUOUS
10
82.466
20
-71.505
11
82.466
21
-69.305
0
LINE
8
BLACK
6
CONTINUOUS
10
82.466
20
-69.305
11
84.666
21
-69.305
0
LINE
8
BLACK
6
CONTINUOUS
10
84.666
20
-69.305
11
84.666
21
-71.505
0
LINE
8
BLACK
6
CONTINUOUS
10
99.652
20
-71.458
11
97.452
21
-71.458
0
LINE
8
BLACK
6
CONTINUOUS
10
97.452
20
-71.458
11
97.452
21
-69.258
0
LINE
8
BLACK
6
CONTINUOUS
10
97.452
20
-69.258
11
99.652
21
-69.258
0
LINE
8
BLACK
6
CONTINUOUS
10
99.652
20
-69.258
11
99.652
21
-71.458
0
LINE
8
BLACK
6
CONTINUOUS
10
102.192
20
-71.458
11
99.992
21
-71.458
0
LINE
8
BLACK
6
CONTINUOUS
10
99.992
20
-71.458
11
99.992
21
-69.258
0
LINE
8
BLACK
6
CONTINUOUS
10
99.992
20
-69.258
11
102.192
21
-69.258
0
LINE
8
BLACK
6
CONTINUOUS
10
102.192
20
-69.258
11
102.192
21
-71.458
0
LINE
8
BLACK
6
CONTINUOUS
10
152.992
20
-70.95
11
150.792
21
-70.95
0
LINE
8
BLACK
6
CONTINUOUS
10
150.792
20
-70.95
11
150.792
21
-68.75
0
LINE
8
BLACK
6
CONTINUOUS
10
150.792
20
-68.75
11
152.992
21
-68.75
0
LINE
8
BLACK
6
CONTINUOUS
10
152.992
20
-68.75
11
152.992
21
-70.95
0
LINE
8
BLACK
6
CONTINUOUS
10
166.454
20
-70.95
11
164.254
21
-70.95
0
LINE
8
BLACK
6
CONTINUOUS
10
164.254
20
-70.95
11
164.254
21
-68.75
0
LINE
8
BLACK
6
CONTINUOUS
10
164.254
20
-68.75
11
166.454
21
-68.75
0
LINE
8
BLACK
6
CONTINUOUS
10
166.454
20
-68.75
11
166.454
21
-70.95
0
LINE
8
BLACK
6
CONTINUOUS
10
163.914
20
-70.95
11
161.714
21
-70.95
0
LINE
8
BLACK
6
CONTINUOUS
10
161.714
20
-70.95
11
161.714
21
-68.75
0
LINE
8
BLACK
6
CONTINUOUS
10
161.714
20
-68.75
11
163.914
21
-68.75
0
LINE
8
BLACK
6
CONTINUOUS
10
163.914
20
-68.75
11
163.914
21
-70.95
0
LINE
8
BLACK
6
CONTINUOUS
10
150.452
20
-70.95
11
148.252
21
-70.95
0
LINE
8
BLACK
6
CONTINUOUS
10
148.252
20
-70.95
11
148.252
21
-68.75
0
LINE
8
BLACK
6
CONTINUOUS
10
148.252
20
-68.75
11
150.452
21
-68.75
0
LINE
8
BLACK
6
CONTINUOUS
10
150.452
20
-68.75
11
150.452
21
-70.95
0
LINE
8
BLACK
6
CONTINUOUS
10
84.666
20
-68.965
11
82.466
21
-68.965
0
LINE
8
BLACK
6
CONTINUOUS
10
82.466
20
-68.965
11
82.466
21
-66.765
0
LINE
8
BLACK
6
CONTINUOUS
10
82.466
20
-66.765
11
84.666
21
-66.765
0
LINE
8
BLACK
6
CONTINUOUS
10
84.666
20
-66.765
11
84.666
21
-68.965
0
LINE
8
BLACK
6
CONTINUOUS
10
87.206
20
-68.965
11
85.006
21
-68.965
0
LINE
8
BLACK
6
CONTINUOUS
10
85.006
20
-68.965
11
85.006
21
-66.765
0
LINE
8
BLACK
6
CONTINUOUS
10
85.006
20
-66.765
11
87.206
21
-66.765
0
LINE
8
BLACK
6
CONTINUOUS
10
87.206
20
-66.765
11
87.206
21
-68.965
0
LINE
8
BLACK
6
CONTINUOUS
10
99.652
20
-68.918
11
97.452
21
-68.918
0
LINE
8
BLACK
6
CONTINUOUS
10
97.452
20
-68.918
11
97.452
21
-66.718
0
LINE
8
BLACK
6
CONTINUOUS
10
97.452
20
-66.718
11
99.652
21
-66.718
0
LINE
8
BLACK
6
CONTINUOUS
10
99.652
20
-66.718
11
99.652
21
-68.918
0
LINE
8
BLACK
6
CONTINUOUS
10
102.192
20
-68.918
11
99.992
21
-68.918
0
LINE
8
BLACK
6
CONTINUOUS
10
99.992
20
-68.918
11
99.992
21
-66.718
0
LINE
8
BLACK
6
CONTINUOUS
10
99.992
20
-66.718
11
102.192
21
-66.718
0
LINE
8
BLACK
6
CONTINUOUS
10
102.192
20
-66.718
11
102.192
21
-68.918
0
LINE
8
BLACK
6
CONTINUOUS
10
152.992
20
-68.41
11
150.792
21
-68.41
0
LINE
8
BLACK
6
CONTINUOUS
10
150.792
20
-68.41
11
150.792
21
-66.21
0
LINE
8
BLACK
6
CONTINUOUS
10
150.792
20
-66.21
11
152.992
21
-66.21
0
LINE
8
BLACK
6
CONTINUOUS
10
152.992
20
-66.21
11
152.992
21
-68.41
0
LINE
8
BLACK
6
CONTINUOUS
10
150.452
20
-68.41
11
148.252
21
-68.41
0
LINE
8
BLACK
6
CONTINUOUS
10
148.252
20
-68.41
11
148.252
21
-66.21
0
LINE
8
BLACK
6
CONTINUOUS
10
148.252
20
-66.21
11
150.452
21
-66.21
0
LINE
8
BLACK
6
CONTINUOUS
10
150.452
20
-66.21
11
150.452
21
-68.41
0
LINE
8
BLACK
6
CONTINUOUS
10
163.914
20
-68.41
11
161.714
21
-68.41
0
LINE
8
BLACK
6
CONTINUOUS
10
161.714
20
-68.41
11
161.714
21
-66.21
0
LINE
8
BLACK
6
CONTINUOUS
10
161.714
20
-66.21
11
163.914
21
-66.21
0
LINE
8
BLACK
6
CONTINUOUS
10
163.914
20
-66.21
11
163.914
21
-68.41
0
LINE
8
BLACK
6
CONTINUOUS
10
166.454
20
-68.41
11
164.254
21
-68.41
0
LINE
8
BLACK
6
CONTINUOUS
10
164.254
20
-68.41
11
164.254
21
-66.21
0
LINE
8
BLACK
6
CONTINUOUS
10
164.254
20
-66.21
11
166.454
21
-66.21
0
LINE
8
BLACK
6
CONTINUOUS
10
166.454
20
-66.21
11
166.454
21
-68.41
0
LINE
8
BLACK
6
CONTINUOUS
10
185.063
20
-40.8577
11
185.791
21
-41.1592
0
LINE
8
BLACK
6
CONTINUOUS
10
185.791
20
-41.1592
11
186.446
21
-41.597
0
LINE
8
BLACK
6
CONTINUOUS
10
186.446
20
-41.597
11
187.003
21
-42.1541
0
LINE
8
BLACK
6
CONTINUOUS
10
187.003
20
-42.1541
11
187.441
21
-42.8093
0
LINE
8
BLACK
6
CONTINUOUS
10
187.441
20
-42.8093
11
187.742
21
-43.5372
0
LINE
8
BLACK
6
CONTINUOUS
10
187.742
20
-43.5372
11
187.896
21
-44.31
0
LINE
8
BLACK
6
CONTINUOUS
10
187.896
20
-44.31
11
187.896
21
-45.098
0
LINE
8
BLACK
6
CONTINUOUS
10
187.896
20
-45.098
11
187.742
21
-45.8708
0
LINE
8
BLACK
6
CONTINUOUS
10
187.742
20
-45.8708
11
187.441
21
-46.5987
0
LINE
8
BLACK
6
CONTINUOUS
10
187.441
20
-46.5987
11
187.003
21
-47.2539
0
LINE
8
BLACK
6
CONTINUOUS
10
187.003
20
-47.2539
11
186.446
21
-47.811
0
LINE
8
BLACK
6
CONTINUOUS
10
186.446
20
-47.811
11
185.791
21
-48.2488
0
LINE
8
BLACK
6
CONTINUOUS
10
185.791
20
-48.2488
11
185.063
21
-48.5503
0
LINE
8
BLACK
6
CONTINUOUS
10
185.063
20
-48.5503
11
184.29
21
-48.704
0
LINE
8
BLACK
6
CONTINUOUS
10
184.29
20
-48.704
11
183.502
21
-48.704
0
LINE
8
BLACK
6
CONTINUOUS
10
183.502
20
-48.704
11
182.729
21
-48.5503
0
LINE
8
BLACK
6
CONTINUOUS
10
182.729
20
-48.5503
11
182.001
21
-48.2488
0
LINE
8
BLACK
6
CONTINUOUS
10
182.001
20
-48.2488
11
181.346
21
-47.811
0
LINE
8
BLACK
6
CONTINUOUS
10
181.346
20
-47.811
11
180.789
21
-47.2539
0
LINE
8
BLACK
6
CONTINUOUS
10
180.789
20
-47.2539
11
180.351
21
-46.5987
0
LINE
8
BLACK
6
CONTINUOUS
10
180.351
20
-46.5987
11
180.05
21
-45.8708
0
LINE
8
BLACK
6
CONTINUOUS
10
180.05
20
-45.8708
11
179.896
21
-45.098
0
LINE
8
BLACK
6
CONTINUOUS
10
179.896
20
-45.098
11
179.896
21
-44.31
0
LINE
8
BLACK
6
CONTINUOUS
10
179.896
20
-44.31
11
180.05
21
-43.5372
0
LINE
8
BLACK
6
CONTINUOUS
10
180.05
20
-43.5372
11
180.351
21
-42.8093
0
LINE
8
BLACK
6
CONTINUOUS
10
180.351
20
-42.8093
11
180.789
21
-42.1541
0
LINE
8
BLACK
6
CONTINUOUS
10
180.789
20
-42.1541
11
181.346
21
-41.597
0
LINE
8
BLACK
6
CONTINUOUS
10
181.346
20
-41.597
11
182.001
21
-41.1592
0
LINE
8
BLACK
6
CONTINUOUS
10
182.001
20
-41.1592
11
182.729
21
-40.8577
0
LINE
8
BLACK
6
CONTINUOUS
10
182.729
20
-40.8577
11
183.502
21
-40.704
0
LINE
8
BLACK
6
CONTINUOUS
10
183.502
20
-40.704
11
184.29
21
-40.704
0
LINE
8
BLACK
6
CONTINUOUS
10
184.29
20
-40.704
11
185.063
21
-40.8577
0
LINE
8
BLACK
6
CONTINUOUS
10
68.2228
20
-40.6037
11
68.9507
21
-40.9052
0
LINE
8
BLACK
6
CONTINUOUS
10
68.9507
20
-40.9052
11
69.6059
21
-41.343
0
LINE
8
BLACK
6
CONTINUOUS
10
69.6059
20
-41.343
11
70.163
21
-41.9001
0
LINE
8
BLACK
6
CONTINUOUS
10
70.163
20
-41.9001
11
70.6008
21
-42.5553
0
LINE
8
BLACK
6
CONTINUOUS
10
70.6008
20
-42.5553
11
70.9023
21
-43.2832
0
LINE
8
BLACK
6
CONTINUOUS
10
70.9023
20
-43.2832
11
71.056
21
-44.056
0
LINE
8
BLACK
6
CONTINUOUS
10
71.056
20
-44.056
11
71.056
21
-44.844
0
LINE
8
BLACK
6
CONTINUOUS
10
71.056
20
-44.844
11
70.9023
21
-45.6168
0
LINE
8
BLACK
6
CONTINUOUS
10
70.9023
20
-45.6168
11
70.6008
21
-46.3447
0
LINE
8
BLACK
6
CONTINUOUS
10
70.6008
20
-46.3447
11
70.163
21
-46.9999
0
LINE
8
BLACK
6
CONTINUOUS
10
70.163
20
-46.9999
11
69.6059
21
-47.557
0
LINE
8
BLACK
6
CONTINUOUS
10
69.6059
20
-47.557
11
68.9507
21
-47.9948
0
LINE
8
BLACK
6
CONTINUOUS
10
68.9507
20
-47.9948
11
68.2228
21
-48.2963
0
LINE
8
BLACK
6
CONTINUOUS
10
68.2228
20
-48.2963
11
67.45
21
-48.45
0
LINE
8
BLACK
6
CONTINUOUS
10
67.45
20
-48.45
11
66.662
21
-48.45
0
LINE
8
BLACK
6
CONTINUOUS
10
66.662
20
-48.45
11
65.8892
21
-48.2963
0
LINE
8
BLACK
6
CONTINUOUS
10
65.8892
20
-48.2963
11
65.1613
21
-47.9948
0
LINE
8
BLACK
6
CONTINUOUS
10
65.1613
20
-47.9948
11
64.5061
21
-47.557
0
LINE
8
BLACK
6
CONTINUOUS
10
64.5061
20
-47.557
11
63.949
21
-46.9999
0
LINE
8
BLACK
6
CONTINUOUS
10
63.949
20
-46.9999
11
63.5112
21
-46.3447
0
LINE
8
BLACK
6
CONTINUOUS
10
63.5112
20
-46.3447
11
63.2097
21
-45.6168
0
LINE
8
BLACK
6
CONTINUOUS
10
63.2097
20
-45.6168
11
63.056
21
-44.844
0
LINE
8
BLACK
6
CONTINUOUS
10
63.056
20
-44.844
11
63.056
21
-44.056
0
LINE
8
BLACK
6
CONTINUOUS
10
63.056
20
-44.056
11
63.2097
21
-43.2832
0
LINE
8
BLACK
6
CONTINUOUS
10
63.2097
20
-43.2832
11
63.5112
21
-42.5553
0
LINE
8
BLACK
6
CONTINUOUS
10
63.5112
20
-42.5553
11
63.949
21
-41.9001
0
LINE
8
BLACK
6
CONTINUOUS
10
63.949
20
-41.9001
11
64.5061
21
-41.343
0
LINE
8
BLACK
6
CONTINUOUS
10
64.5061
20
-41.343
11
65.1613
21
-40.9052
0
LINE
8
BLACK
6
CONTINUOUS
10
65.1613
20
-40.9052
11
65.8892
21
-40.6037
0
LINE
8
BLACK
6
CONTINUOUS
10
65.8892
20
-40.6037
11
66.662
21
-40.45
0
LINE
8
BLACK
6
CONTINUOUS
10
66.662
20
-40.45
11
67.45
21
-40.45
0
LINE
8
BLACK
6
CONTINUOUS
10
67.45
20
-40.45
11
68.2228
21
-40.6037
0
CIRCLE
8
BLACK
10
183.896
20
-44.704
40
1
0
CIRCLE
8
BLACK
10
181.864
20
-138.684
40
1
0
CIRCLE
8
BLACK
10
67.056
20
-138.176
40
1
0
CIRCLE
8
BLACK
10
67.056
20
-44.45
40
1
0
CIRCLE
8
BLACK
10
67.056
20
-113.792
40
1
0
CIRCLE
8
BLACK
10
181.864
20
-114.046
40
1
  0
ENDSEC
  0
EOF
