G04 #@! TF.GenerationSoftware,KiCad,Pcbnew,(5.1.2)-2*
G04 #@! TF.CreationDate,2019-10-26T09:12:10-10:00*
G04 #@! TF.ProjectId,74HC595N_smd,37344843-3539-4354-9e5f-736d642e6b69,rev?*
G04 #@! TF.SameCoordinates,Original*
G04 #@! TF.FileFunction,Copper,L1,Top*
G04 #@! TF.FilePolarity,Positive*
%FSLAX46Y46*%
G04 Gerber Fmt 4.6, Leading zero omitted, Abs format (unit mm)*
G04 Created by KiCad (PCBNEW (5.1.2)-2) date 2019-10-26 09:12:10*
%MOMM*%
%LPD*%
G04 APERTURE LIST*
%ADD10C,0.300000*%
%ADD11C,0.100000*%
%ADD12C,0.975000*%
%ADD13R,1.700000X1.700000*%
%ADD14O,1.700000X1.700000*%
%ADD15R,1.701800X0.533400*%
%ADD16C,0.800000*%
%ADD17C,0.254000*%
G04 APERTURE END LIST*
D10*
X83729428Y-47414571D02*
X83729428Y-45914571D01*
X84229428Y-46986000D01*
X84729428Y-45914571D01*
X84729428Y-47414571D01*
X85658000Y-47414571D02*
X85515142Y-47343142D01*
X85443714Y-47271714D01*
X85372285Y-47128857D01*
X85372285Y-46700285D01*
X85443714Y-46557428D01*
X85515142Y-46486000D01*
X85658000Y-46414571D01*
X85872285Y-46414571D01*
X86015142Y-46486000D01*
X86086571Y-46557428D01*
X86158000Y-46700285D01*
X86158000Y-47128857D01*
X86086571Y-47271714D01*
X86015142Y-47343142D01*
X85872285Y-47414571D01*
X85658000Y-47414571D01*
X86800857Y-46414571D02*
X86800857Y-47414571D01*
X86800857Y-46557428D02*
X86872285Y-46486000D01*
X87015142Y-46414571D01*
X87229428Y-46414571D01*
X87372285Y-46486000D01*
X87443714Y-46628857D01*
X87443714Y-47414571D01*
X88086571Y-47343142D02*
X88229428Y-47414571D01*
X88515142Y-47414571D01*
X88658000Y-47343142D01*
X88729428Y-47200285D01*
X88729428Y-47128857D01*
X88658000Y-46986000D01*
X88515142Y-46914571D01*
X88300857Y-46914571D01*
X88158000Y-46843142D01*
X88086571Y-46700285D01*
X88086571Y-46628857D01*
X88158000Y-46486000D01*
X88300857Y-46414571D01*
X88515142Y-46414571D01*
X88658000Y-46486000D01*
X89158000Y-46414571D02*
X89729428Y-46414571D01*
X89372285Y-45914571D02*
X89372285Y-47200285D01*
X89443714Y-47343142D01*
X89586571Y-47414571D01*
X89729428Y-47414571D01*
X90800857Y-47343142D02*
X90658000Y-47414571D01*
X90372285Y-47414571D01*
X90229428Y-47343142D01*
X90158000Y-47200285D01*
X90158000Y-46628857D01*
X90229428Y-46486000D01*
X90372285Y-46414571D01*
X90658000Y-46414571D01*
X90800857Y-46486000D01*
X90872285Y-46628857D01*
X90872285Y-46771714D01*
X90158000Y-46914571D01*
X91515142Y-47414571D02*
X91515142Y-46414571D01*
X91515142Y-46700285D02*
X91586571Y-46557428D01*
X91658000Y-46486000D01*
X91800857Y-46414571D01*
X91943714Y-46414571D01*
X92443714Y-47414571D02*
X92443714Y-45914571D01*
X92943714Y-45914571D02*
X93800857Y-45914571D01*
X93372285Y-47414571D02*
X93372285Y-45914571D01*
X95158000Y-47271714D02*
X95086571Y-47343142D01*
X94872285Y-47414571D01*
X94729428Y-47414571D01*
X94515142Y-47343142D01*
X94372285Y-47200285D01*
X94300857Y-47057428D01*
X94229428Y-46771714D01*
X94229428Y-46557428D01*
X94300857Y-46271714D01*
X94372285Y-46128857D01*
X94515142Y-45986000D01*
X94729428Y-45914571D01*
X94872285Y-45914571D01*
X95086571Y-45986000D01*
X95158000Y-46057428D01*
D11*
G36*
X105169642Y-44005174D02*
G01*
X105193303Y-44008684D01*
X105216507Y-44014496D01*
X105239029Y-44022554D01*
X105260653Y-44032782D01*
X105281170Y-44045079D01*
X105300383Y-44059329D01*
X105318107Y-44075393D01*
X105334171Y-44093117D01*
X105348421Y-44112330D01*
X105360718Y-44132847D01*
X105370946Y-44154471D01*
X105379004Y-44176993D01*
X105384816Y-44200197D01*
X105388326Y-44223858D01*
X105389500Y-44247750D01*
X105389500Y-45160250D01*
X105388326Y-45184142D01*
X105384816Y-45207803D01*
X105379004Y-45231007D01*
X105370946Y-45253529D01*
X105360718Y-45275153D01*
X105348421Y-45295670D01*
X105334171Y-45314883D01*
X105318107Y-45332607D01*
X105300383Y-45348671D01*
X105281170Y-45362921D01*
X105260653Y-45375218D01*
X105239029Y-45385446D01*
X105216507Y-45393504D01*
X105193303Y-45399316D01*
X105169642Y-45402826D01*
X105145750Y-45404000D01*
X104658250Y-45404000D01*
X104634358Y-45402826D01*
X104610697Y-45399316D01*
X104587493Y-45393504D01*
X104564971Y-45385446D01*
X104543347Y-45375218D01*
X104522830Y-45362921D01*
X104503617Y-45348671D01*
X104485893Y-45332607D01*
X104469829Y-45314883D01*
X104455579Y-45295670D01*
X104443282Y-45275153D01*
X104433054Y-45253529D01*
X104424996Y-45231007D01*
X104419184Y-45207803D01*
X104415674Y-45184142D01*
X104414500Y-45160250D01*
X104414500Y-44247750D01*
X104415674Y-44223858D01*
X104419184Y-44200197D01*
X104424996Y-44176993D01*
X104433054Y-44154471D01*
X104443282Y-44132847D01*
X104455579Y-44112330D01*
X104469829Y-44093117D01*
X104485893Y-44075393D01*
X104503617Y-44059329D01*
X104522830Y-44045079D01*
X104543347Y-44032782D01*
X104564971Y-44022554D01*
X104587493Y-44014496D01*
X104610697Y-44008684D01*
X104634358Y-44005174D01*
X104658250Y-44004000D01*
X105145750Y-44004000D01*
X105169642Y-44005174D01*
X105169642Y-44005174D01*
G37*
D12*
X104902000Y-44704000D03*
D11*
G36*
X107044642Y-44005174D02*
G01*
X107068303Y-44008684D01*
X107091507Y-44014496D01*
X107114029Y-44022554D01*
X107135653Y-44032782D01*
X107156170Y-44045079D01*
X107175383Y-44059329D01*
X107193107Y-44075393D01*
X107209171Y-44093117D01*
X107223421Y-44112330D01*
X107235718Y-44132847D01*
X107245946Y-44154471D01*
X107254004Y-44176993D01*
X107259816Y-44200197D01*
X107263326Y-44223858D01*
X107264500Y-44247750D01*
X107264500Y-45160250D01*
X107263326Y-45184142D01*
X107259816Y-45207803D01*
X107254004Y-45231007D01*
X107245946Y-45253529D01*
X107235718Y-45275153D01*
X107223421Y-45295670D01*
X107209171Y-45314883D01*
X107193107Y-45332607D01*
X107175383Y-45348671D01*
X107156170Y-45362921D01*
X107135653Y-45375218D01*
X107114029Y-45385446D01*
X107091507Y-45393504D01*
X107068303Y-45399316D01*
X107044642Y-45402826D01*
X107020750Y-45404000D01*
X106533250Y-45404000D01*
X106509358Y-45402826D01*
X106485697Y-45399316D01*
X106462493Y-45393504D01*
X106439971Y-45385446D01*
X106418347Y-45375218D01*
X106397830Y-45362921D01*
X106378617Y-45348671D01*
X106360893Y-45332607D01*
X106344829Y-45314883D01*
X106330579Y-45295670D01*
X106318282Y-45275153D01*
X106308054Y-45253529D01*
X106299996Y-45231007D01*
X106294184Y-45207803D01*
X106290674Y-45184142D01*
X106289500Y-45160250D01*
X106289500Y-44247750D01*
X106290674Y-44223858D01*
X106294184Y-44200197D01*
X106299996Y-44176993D01*
X106308054Y-44154471D01*
X106318282Y-44132847D01*
X106330579Y-44112330D01*
X106344829Y-44093117D01*
X106360893Y-44075393D01*
X106378617Y-44059329D01*
X106397830Y-44045079D01*
X106418347Y-44032782D01*
X106439971Y-44022554D01*
X106462493Y-44014496D01*
X106485697Y-44008684D01*
X106509358Y-44005174D01*
X106533250Y-44004000D01*
X107020750Y-44004000D01*
X107044642Y-44005174D01*
X107044642Y-44005174D01*
G37*
D12*
X106777000Y-44704000D03*
D11*
G36*
X107044642Y-41973174D02*
G01*
X107068303Y-41976684D01*
X107091507Y-41982496D01*
X107114029Y-41990554D01*
X107135653Y-42000782D01*
X107156170Y-42013079D01*
X107175383Y-42027329D01*
X107193107Y-42043393D01*
X107209171Y-42061117D01*
X107223421Y-42080330D01*
X107235718Y-42100847D01*
X107245946Y-42122471D01*
X107254004Y-42144993D01*
X107259816Y-42168197D01*
X107263326Y-42191858D01*
X107264500Y-42215750D01*
X107264500Y-43128250D01*
X107263326Y-43152142D01*
X107259816Y-43175803D01*
X107254004Y-43199007D01*
X107245946Y-43221529D01*
X107235718Y-43243153D01*
X107223421Y-43263670D01*
X107209171Y-43282883D01*
X107193107Y-43300607D01*
X107175383Y-43316671D01*
X107156170Y-43330921D01*
X107135653Y-43343218D01*
X107114029Y-43353446D01*
X107091507Y-43361504D01*
X107068303Y-43367316D01*
X107044642Y-43370826D01*
X107020750Y-43372000D01*
X106533250Y-43372000D01*
X106509358Y-43370826D01*
X106485697Y-43367316D01*
X106462493Y-43361504D01*
X106439971Y-43353446D01*
X106418347Y-43343218D01*
X106397830Y-43330921D01*
X106378617Y-43316671D01*
X106360893Y-43300607D01*
X106344829Y-43282883D01*
X106330579Y-43263670D01*
X106318282Y-43243153D01*
X106308054Y-43221529D01*
X106299996Y-43199007D01*
X106294184Y-43175803D01*
X106290674Y-43152142D01*
X106289500Y-43128250D01*
X106289500Y-42215750D01*
X106290674Y-42191858D01*
X106294184Y-42168197D01*
X106299996Y-42144993D01*
X106308054Y-42122471D01*
X106318282Y-42100847D01*
X106330579Y-42080330D01*
X106344829Y-42061117D01*
X106360893Y-42043393D01*
X106378617Y-42027329D01*
X106397830Y-42013079D01*
X106418347Y-42000782D01*
X106439971Y-41990554D01*
X106462493Y-41982496D01*
X106485697Y-41976684D01*
X106509358Y-41973174D01*
X106533250Y-41972000D01*
X107020750Y-41972000D01*
X107044642Y-41973174D01*
X107044642Y-41973174D01*
G37*
D12*
X106777000Y-42672000D03*
D11*
G36*
X105169642Y-41973174D02*
G01*
X105193303Y-41976684D01*
X105216507Y-41982496D01*
X105239029Y-41990554D01*
X105260653Y-42000782D01*
X105281170Y-42013079D01*
X105300383Y-42027329D01*
X105318107Y-42043393D01*
X105334171Y-42061117D01*
X105348421Y-42080330D01*
X105360718Y-42100847D01*
X105370946Y-42122471D01*
X105379004Y-42144993D01*
X105384816Y-42168197D01*
X105388326Y-42191858D01*
X105389500Y-42215750D01*
X105389500Y-43128250D01*
X105388326Y-43152142D01*
X105384816Y-43175803D01*
X105379004Y-43199007D01*
X105370946Y-43221529D01*
X105360718Y-43243153D01*
X105348421Y-43263670D01*
X105334171Y-43282883D01*
X105318107Y-43300607D01*
X105300383Y-43316671D01*
X105281170Y-43330921D01*
X105260653Y-43343218D01*
X105239029Y-43353446D01*
X105216507Y-43361504D01*
X105193303Y-43367316D01*
X105169642Y-43370826D01*
X105145750Y-43372000D01*
X104658250Y-43372000D01*
X104634358Y-43370826D01*
X104610697Y-43367316D01*
X104587493Y-43361504D01*
X104564971Y-43353446D01*
X104543347Y-43343218D01*
X104522830Y-43330921D01*
X104503617Y-43316671D01*
X104485893Y-43300607D01*
X104469829Y-43282883D01*
X104455579Y-43263670D01*
X104443282Y-43243153D01*
X104433054Y-43221529D01*
X104424996Y-43199007D01*
X104419184Y-43175803D01*
X104415674Y-43152142D01*
X104414500Y-43128250D01*
X104414500Y-42215750D01*
X104415674Y-42191858D01*
X104419184Y-42168197D01*
X104424996Y-42144993D01*
X104433054Y-42122471D01*
X104443282Y-42100847D01*
X104455579Y-42080330D01*
X104469829Y-42061117D01*
X104485893Y-42043393D01*
X104503617Y-42027329D01*
X104522830Y-42013079D01*
X104543347Y-42000782D01*
X104564971Y-41990554D01*
X104587493Y-41982496D01*
X104610697Y-41976684D01*
X104634358Y-41973174D01*
X104658250Y-41972000D01*
X105145750Y-41972000D01*
X105169642Y-41973174D01*
X105169642Y-41973174D01*
G37*
D12*
X104902000Y-42672000D03*
D11*
G36*
X105326642Y-39687174D02*
G01*
X105350303Y-39690684D01*
X105373507Y-39696496D01*
X105396029Y-39704554D01*
X105417653Y-39714782D01*
X105438170Y-39727079D01*
X105457383Y-39741329D01*
X105475107Y-39757393D01*
X105491171Y-39775117D01*
X105505421Y-39794330D01*
X105517718Y-39814847D01*
X105527946Y-39836471D01*
X105536004Y-39858993D01*
X105541816Y-39882197D01*
X105545326Y-39905858D01*
X105546500Y-39929750D01*
X105546500Y-40842250D01*
X105545326Y-40866142D01*
X105541816Y-40889803D01*
X105536004Y-40913007D01*
X105527946Y-40935529D01*
X105517718Y-40957153D01*
X105505421Y-40977670D01*
X105491171Y-40996883D01*
X105475107Y-41014607D01*
X105457383Y-41030671D01*
X105438170Y-41044921D01*
X105417653Y-41057218D01*
X105396029Y-41067446D01*
X105373507Y-41075504D01*
X105350303Y-41081316D01*
X105326642Y-41084826D01*
X105302750Y-41086000D01*
X104815250Y-41086000D01*
X104791358Y-41084826D01*
X104767697Y-41081316D01*
X104744493Y-41075504D01*
X104721971Y-41067446D01*
X104700347Y-41057218D01*
X104679830Y-41044921D01*
X104660617Y-41030671D01*
X104642893Y-41014607D01*
X104626829Y-40996883D01*
X104612579Y-40977670D01*
X104600282Y-40957153D01*
X104590054Y-40935529D01*
X104581996Y-40913007D01*
X104576184Y-40889803D01*
X104572674Y-40866142D01*
X104571500Y-40842250D01*
X104571500Y-39929750D01*
X104572674Y-39905858D01*
X104576184Y-39882197D01*
X104581996Y-39858993D01*
X104590054Y-39836471D01*
X104600282Y-39814847D01*
X104612579Y-39794330D01*
X104626829Y-39775117D01*
X104642893Y-39757393D01*
X104660617Y-39741329D01*
X104679830Y-39727079D01*
X104700347Y-39714782D01*
X104721971Y-39704554D01*
X104744493Y-39696496D01*
X104767697Y-39690684D01*
X104791358Y-39687174D01*
X104815250Y-39686000D01*
X105302750Y-39686000D01*
X105326642Y-39687174D01*
X105326642Y-39687174D01*
G37*
D12*
X105059000Y-40386000D03*
D11*
G36*
X107201642Y-39687174D02*
G01*
X107225303Y-39690684D01*
X107248507Y-39696496D01*
X107271029Y-39704554D01*
X107292653Y-39714782D01*
X107313170Y-39727079D01*
X107332383Y-39741329D01*
X107350107Y-39757393D01*
X107366171Y-39775117D01*
X107380421Y-39794330D01*
X107392718Y-39814847D01*
X107402946Y-39836471D01*
X107411004Y-39858993D01*
X107416816Y-39882197D01*
X107420326Y-39905858D01*
X107421500Y-39929750D01*
X107421500Y-40842250D01*
X107420326Y-40866142D01*
X107416816Y-40889803D01*
X107411004Y-40913007D01*
X107402946Y-40935529D01*
X107392718Y-40957153D01*
X107380421Y-40977670D01*
X107366171Y-40996883D01*
X107350107Y-41014607D01*
X107332383Y-41030671D01*
X107313170Y-41044921D01*
X107292653Y-41057218D01*
X107271029Y-41067446D01*
X107248507Y-41075504D01*
X107225303Y-41081316D01*
X107201642Y-41084826D01*
X107177750Y-41086000D01*
X106690250Y-41086000D01*
X106666358Y-41084826D01*
X106642697Y-41081316D01*
X106619493Y-41075504D01*
X106596971Y-41067446D01*
X106575347Y-41057218D01*
X106554830Y-41044921D01*
X106535617Y-41030671D01*
X106517893Y-41014607D01*
X106501829Y-40996883D01*
X106487579Y-40977670D01*
X106475282Y-40957153D01*
X106465054Y-40935529D01*
X106456996Y-40913007D01*
X106451184Y-40889803D01*
X106447674Y-40866142D01*
X106446500Y-40842250D01*
X106446500Y-39929750D01*
X106447674Y-39905858D01*
X106451184Y-39882197D01*
X106456996Y-39858993D01*
X106465054Y-39836471D01*
X106475282Y-39814847D01*
X106487579Y-39794330D01*
X106501829Y-39775117D01*
X106517893Y-39757393D01*
X106535617Y-39741329D01*
X106554830Y-39727079D01*
X106575347Y-39714782D01*
X106596971Y-39704554D01*
X106619493Y-39696496D01*
X106642697Y-39690684D01*
X106666358Y-39687174D01*
X106690250Y-39686000D01*
X107177750Y-39686000D01*
X107201642Y-39687174D01*
X107201642Y-39687174D01*
G37*
D12*
X106934000Y-40386000D03*
D11*
G36*
X107201642Y-37655174D02*
G01*
X107225303Y-37658684D01*
X107248507Y-37664496D01*
X107271029Y-37672554D01*
X107292653Y-37682782D01*
X107313170Y-37695079D01*
X107332383Y-37709329D01*
X107350107Y-37725393D01*
X107366171Y-37743117D01*
X107380421Y-37762330D01*
X107392718Y-37782847D01*
X107402946Y-37804471D01*
X107411004Y-37826993D01*
X107416816Y-37850197D01*
X107420326Y-37873858D01*
X107421500Y-37897750D01*
X107421500Y-38810250D01*
X107420326Y-38834142D01*
X107416816Y-38857803D01*
X107411004Y-38881007D01*
X107402946Y-38903529D01*
X107392718Y-38925153D01*
X107380421Y-38945670D01*
X107366171Y-38964883D01*
X107350107Y-38982607D01*
X107332383Y-38998671D01*
X107313170Y-39012921D01*
X107292653Y-39025218D01*
X107271029Y-39035446D01*
X107248507Y-39043504D01*
X107225303Y-39049316D01*
X107201642Y-39052826D01*
X107177750Y-39054000D01*
X106690250Y-39054000D01*
X106666358Y-39052826D01*
X106642697Y-39049316D01*
X106619493Y-39043504D01*
X106596971Y-39035446D01*
X106575347Y-39025218D01*
X106554830Y-39012921D01*
X106535617Y-38998671D01*
X106517893Y-38982607D01*
X106501829Y-38964883D01*
X106487579Y-38945670D01*
X106475282Y-38925153D01*
X106465054Y-38903529D01*
X106456996Y-38881007D01*
X106451184Y-38857803D01*
X106447674Y-38834142D01*
X106446500Y-38810250D01*
X106446500Y-37897750D01*
X106447674Y-37873858D01*
X106451184Y-37850197D01*
X106456996Y-37826993D01*
X106465054Y-37804471D01*
X106475282Y-37782847D01*
X106487579Y-37762330D01*
X106501829Y-37743117D01*
X106517893Y-37725393D01*
X106535617Y-37709329D01*
X106554830Y-37695079D01*
X106575347Y-37682782D01*
X106596971Y-37672554D01*
X106619493Y-37664496D01*
X106642697Y-37658684D01*
X106666358Y-37655174D01*
X106690250Y-37654000D01*
X107177750Y-37654000D01*
X107201642Y-37655174D01*
X107201642Y-37655174D01*
G37*
D12*
X106934000Y-38354000D03*
D11*
G36*
X105326642Y-37655174D02*
G01*
X105350303Y-37658684D01*
X105373507Y-37664496D01*
X105396029Y-37672554D01*
X105417653Y-37682782D01*
X105438170Y-37695079D01*
X105457383Y-37709329D01*
X105475107Y-37725393D01*
X105491171Y-37743117D01*
X105505421Y-37762330D01*
X105517718Y-37782847D01*
X105527946Y-37804471D01*
X105536004Y-37826993D01*
X105541816Y-37850197D01*
X105545326Y-37873858D01*
X105546500Y-37897750D01*
X105546500Y-38810250D01*
X105545326Y-38834142D01*
X105541816Y-38857803D01*
X105536004Y-38881007D01*
X105527946Y-38903529D01*
X105517718Y-38925153D01*
X105505421Y-38945670D01*
X105491171Y-38964883D01*
X105475107Y-38982607D01*
X105457383Y-38998671D01*
X105438170Y-39012921D01*
X105417653Y-39025218D01*
X105396029Y-39035446D01*
X105373507Y-39043504D01*
X105350303Y-39049316D01*
X105326642Y-39052826D01*
X105302750Y-39054000D01*
X104815250Y-39054000D01*
X104791358Y-39052826D01*
X104767697Y-39049316D01*
X104744493Y-39043504D01*
X104721971Y-39035446D01*
X104700347Y-39025218D01*
X104679830Y-39012921D01*
X104660617Y-38998671D01*
X104642893Y-38982607D01*
X104626829Y-38964883D01*
X104612579Y-38945670D01*
X104600282Y-38925153D01*
X104590054Y-38903529D01*
X104581996Y-38881007D01*
X104576184Y-38857803D01*
X104572674Y-38834142D01*
X104571500Y-38810250D01*
X104571500Y-37897750D01*
X104572674Y-37873858D01*
X104576184Y-37850197D01*
X104581996Y-37826993D01*
X104590054Y-37804471D01*
X104600282Y-37782847D01*
X104612579Y-37762330D01*
X104626829Y-37743117D01*
X104642893Y-37725393D01*
X104660617Y-37709329D01*
X104679830Y-37695079D01*
X104700347Y-37682782D01*
X104721971Y-37672554D01*
X104744493Y-37664496D01*
X104767697Y-37658684D01*
X104791358Y-37655174D01*
X104815250Y-37654000D01*
X105302750Y-37654000D01*
X105326642Y-37655174D01*
X105326642Y-37655174D01*
G37*
D12*
X105059000Y-38354000D03*
D11*
G36*
X105326642Y-35623174D02*
G01*
X105350303Y-35626684D01*
X105373507Y-35632496D01*
X105396029Y-35640554D01*
X105417653Y-35650782D01*
X105438170Y-35663079D01*
X105457383Y-35677329D01*
X105475107Y-35693393D01*
X105491171Y-35711117D01*
X105505421Y-35730330D01*
X105517718Y-35750847D01*
X105527946Y-35772471D01*
X105536004Y-35794993D01*
X105541816Y-35818197D01*
X105545326Y-35841858D01*
X105546500Y-35865750D01*
X105546500Y-36778250D01*
X105545326Y-36802142D01*
X105541816Y-36825803D01*
X105536004Y-36849007D01*
X105527946Y-36871529D01*
X105517718Y-36893153D01*
X105505421Y-36913670D01*
X105491171Y-36932883D01*
X105475107Y-36950607D01*
X105457383Y-36966671D01*
X105438170Y-36980921D01*
X105417653Y-36993218D01*
X105396029Y-37003446D01*
X105373507Y-37011504D01*
X105350303Y-37017316D01*
X105326642Y-37020826D01*
X105302750Y-37022000D01*
X104815250Y-37022000D01*
X104791358Y-37020826D01*
X104767697Y-37017316D01*
X104744493Y-37011504D01*
X104721971Y-37003446D01*
X104700347Y-36993218D01*
X104679830Y-36980921D01*
X104660617Y-36966671D01*
X104642893Y-36950607D01*
X104626829Y-36932883D01*
X104612579Y-36913670D01*
X104600282Y-36893153D01*
X104590054Y-36871529D01*
X104581996Y-36849007D01*
X104576184Y-36825803D01*
X104572674Y-36802142D01*
X104571500Y-36778250D01*
X104571500Y-35865750D01*
X104572674Y-35841858D01*
X104576184Y-35818197D01*
X104581996Y-35794993D01*
X104590054Y-35772471D01*
X104600282Y-35750847D01*
X104612579Y-35730330D01*
X104626829Y-35711117D01*
X104642893Y-35693393D01*
X104660617Y-35677329D01*
X104679830Y-35663079D01*
X104700347Y-35650782D01*
X104721971Y-35640554D01*
X104744493Y-35632496D01*
X104767697Y-35626684D01*
X104791358Y-35623174D01*
X104815250Y-35622000D01*
X105302750Y-35622000D01*
X105326642Y-35623174D01*
X105326642Y-35623174D01*
G37*
D12*
X105059000Y-36322000D03*
D11*
G36*
X107201642Y-35623174D02*
G01*
X107225303Y-35626684D01*
X107248507Y-35632496D01*
X107271029Y-35640554D01*
X107292653Y-35650782D01*
X107313170Y-35663079D01*
X107332383Y-35677329D01*
X107350107Y-35693393D01*
X107366171Y-35711117D01*
X107380421Y-35730330D01*
X107392718Y-35750847D01*
X107402946Y-35772471D01*
X107411004Y-35794993D01*
X107416816Y-35818197D01*
X107420326Y-35841858D01*
X107421500Y-35865750D01*
X107421500Y-36778250D01*
X107420326Y-36802142D01*
X107416816Y-36825803D01*
X107411004Y-36849007D01*
X107402946Y-36871529D01*
X107392718Y-36893153D01*
X107380421Y-36913670D01*
X107366171Y-36932883D01*
X107350107Y-36950607D01*
X107332383Y-36966671D01*
X107313170Y-36980921D01*
X107292653Y-36993218D01*
X107271029Y-37003446D01*
X107248507Y-37011504D01*
X107225303Y-37017316D01*
X107201642Y-37020826D01*
X107177750Y-37022000D01*
X106690250Y-37022000D01*
X106666358Y-37020826D01*
X106642697Y-37017316D01*
X106619493Y-37011504D01*
X106596971Y-37003446D01*
X106575347Y-36993218D01*
X106554830Y-36980921D01*
X106535617Y-36966671D01*
X106517893Y-36950607D01*
X106501829Y-36932883D01*
X106487579Y-36913670D01*
X106475282Y-36893153D01*
X106465054Y-36871529D01*
X106456996Y-36849007D01*
X106451184Y-36825803D01*
X106447674Y-36802142D01*
X106446500Y-36778250D01*
X106446500Y-35865750D01*
X106447674Y-35841858D01*
X106451184Y-35818197D01*
X106456996Y-35794993D01*
X106465054Y-35772471D01*
X106475282Y-35750847D01*
X106487579Y-35730330D01*
X106501829Y-35711117D01*
X106517893Y-35693393D01*
X106535617Y-35677329D01*
X106554830Y-35663079D01*
X106575347Y-35650782D01*
X106596971Y-35640554D01*
X106619493Y-35632496D01*
X106642697Y-35626684D01*
X106666358Y-35623174D01*
X106690250Y-35622000D01*
X107177750Y-35622000D01*
X107201642Y-35623174D01*
X107201642Y-35623174D01*
G37*
D12*
X106934000Y-36322000D03*
D11*
G36*
X107201642Y-33591174D02*
G01*
X107225303Y-33594684D01*
X107248507Y-33600496D01*
X107271029Y-33608554D01*
X107292653Y-33618782D01*
X107313170Y-33631079D01*
X107332383Y-33645329D01*
X107350107Y-33661393D01*
X107366171Y-33679117D01*
X107380421Y-33698330D01*
X107392718Y-33718847D01*
X107402946Y-33740471D01*
X107411004Y-33762993D01*
X107416816Y-33786197D01*
X107420326Y-33809858D01*
X107421500Y-33833750D01*
X107421500Y-34746250D01*
X107420326Y-34770142D01*
X107416816Y-34793803D01*
X107411004Y-34817007D01*
X107402946Y-34839529D01*
X107392718Y-34861153D01*
X107380421Y-34881670D01*
X107366171Y-34900883D01*
X107350107Y-34918607D01*
X107332383Y-34934671D01*
X107313170Y-34948921D01*
X107292653Y-34961218D01*
X107271029Y-34971446D01*
X107248507Y-34979504D01*
X107225303Y-34985316D01*
X107201642Y-34988826D01*
X107177750Y-34990000D01*
X106690250Y-34990000D01*
X106666358Y-34988826D01*
X106642697Y-34985316D01*
X106619493Y-34979504D01*
X106596971Y-34971446D01*
X106575347Y-34961218D01*
X106554830Y-34948921D01*
X106535617Y-34934671D01*
X106517893Y-34918607D01*
X106501829Y-34900883D01*
X106487579Y-34881670D01*
X106475282Y-34861153D01*
X106465054Y-34839529D01*
X106456996Y-34817007D01*
X106451184Y-34793803D01*
X106447674Y-34770142D01*
X106446500Y-34746250D01*
X106446500Y-33833750D01*
X106447674Y-33809858D01*
X106451184Y-33786197D01*
X106456996Y-33762993D01*
X106465054Y-33740471D01*
X106475282Y-33718847D01*
X106487579Y-33698330D01*
X106501829Y-33679117D01*
X106517893Y-33661393D01*
X106535617Y-33645329D01*
X106554830Y-33631079D01*
X106575347Y-33618782D01*
X106596971Y-33608554D01*
X106619493Y-33600496D01*
X106642697Y-33594684D01*
X106666358Y-33591174D01*
X106690250Y-33590000D01*
X107177750Y-33590000D01*
X107201642Y-33591174D01*
X107201642Y-33591174D01*
G37*
D12*
X106934000Y-34290000D03*
D11*
G36*
X105326642Y-33591174D02*
G01*
X105350303Y-33594684D01*
X105373507Y-33600496D01*
X105396029Y-33608554D01*
X105417653Y-33618782D01*
X105438170Y-33631079D01*
X105457383Y-33645329D01*
X105475107Y-33661393D01*
X105491171Y-33679117D01*
X105505421Y-33698330D01*
X105517718Y-33718847D01*
X105527946Y-33740471D01*
X105536004Y-33762993D01*
X105541816Y-33786197D01*
X105545326Y-33809858D01*
X105546500Y-33833750D01*
X105546500Y-34746250D01*
X105545326Y-34770142D01*
X105541816Y-34793803D01*
X105536004Y-34817007D01*
X105527946Y-34839529D01*
X105517718Y-34861153D01*
X105505421Y-34881670D01*
X105491171Y-34900883D01*
X105475107Y-34918607D01*
X105457383Y-34934671D01*
X105438170Y-34948921D01*
X105417653Y-34961218D01*
X105396029Y-34971446D01*
X105373507Y-34979504D01*
X105350303Y-34985316D01*
X105326642Y-34988826D01*
X105302750Y-34990000D01*
X104815250Y-34990000D01*
X104791358Y-34988826D01*
X104767697Y-34985316D01*
X104744493Y-34979504D01*
X104721971Y-34971446D01*
X104700347Y-34961218D01*
X104679830Y-34948921D01*
X104660617Y-34934671D01*
X104642893Y-34918607D01*
X104626829Y-34900883D01*
X104612579Y-34881670D01*
X104600282Y-34861153D01*
X104590054Y-34839529D01*
X104581996Y-34817007D01*
X104576184Y-34793803D01*
X104572674Y-34770142D01*
X104571500Y-34746250D01*
X104571500Y-33833750D01*
X104572674Y-33809858D01*
X104576184Y-33786197D01*
X104581996Y-33762993D01*
X104590054Y-33740471D01*
X104600282Y-33718847D01*
X104612579Y-33698330D01*
X104626829Y-33679117D01*
X104642893Y-33661393D01*
X104660617Y-33645329D01*
X104679830Y-33631079D01*
X104700347Y-33618782D01*
X104721971Y-33608554D01*
X104744493Y-33600496D01*
X104767697Y-33594684D01*
X104791358Y-33591174D01*
X104815250Y-33590000D01*
X105302750Y-33590000D01*
X105326642Y-33591174D01*
X105326642Y-33591174D01*
G37*
D12*
X105059000Y-34290000D03*
D11*
G36*
X105502142Y-31559174D02*
G01*
X105525803Y-31562684D01*
X105549007Y-31568496D01*
X105571529Y-31576554D01*
X105593153Y-31586782D01*
X105613670Y-31599079D01*
X105632883Y-31613329D01*
X105650607Y-31629393D01*
X105666671Y-31647117D01*
X105680921Y-31666330D01*
X105693218Y-31686847D01*
X105703446Y-31708471D01*
X105711504Y-31730993D01*
X105717316Y-31754197D01*
X105720826Y-31777858D01*
X105722000Y-31801750D01*
X105722000Y-32714250D01*
X105720826Y-32738142D01*
X105717316Y-32761803D01*
X105711504Y-32785007D01*
X105703446Y-32807529D01*
X105693218Y-32829153D01*
X105680921Y-32849670D01*
X105666671Y-32868883D01*
X105650607Y-32886607D01*
X105632883Y-32902671D01*
X105613670Y-32916921D01*
X105593153Y-32929218D01*
X105571529Y-32939446D01*
X105549007Y-32947504D01*
X105525803Y-32953316D01*
X105502142Y-32956826D01*
X105478250Y-32958000D01*
X104990750Y-32958000D01*
X104966858Y-32956826D01*
X104943197Y-32953316D01*
X104919993Y-32947504D01*
X104897471Y-32939446D01*
X104875847Y-32929218D01*
X104855330Y-32916921D01*
X104836117Y-32902671D01*
X104818393Y-32886607D01*
X104802329Y-32868883D01*
X104788079Y-32849670D01*
X104775782Y-32829153D01*
X104765554Y-32807529D01*
X104757496Y-32785007D01*
X104751684Y-32761803D01*
X104748174Y-32738142D01*
X104747000Y-32714250D01*
X104747000Y-31801750D01*
X104748174Y-31777858D01*
X104751684Y-31754197D01*
X104757496Y-31730993D01*
X104765554Y-31708471D01*
X104775782Y-31686847D01*
X104788079Y-31666330D01*
X104802329Y-31647117D01*
X104818393Y-31629393D01*
X104836117Y-31613329D01*
X104855330Y-31599079D01*
X104875847Y-31586782D01*
X104897471Y-31576554D01*
X104919993Y-31568496D01*
X104943197Y-31562684D01*
X104966858Y-31559174D01*
X104990750Y-31558000D01*
X105478250Y-31558000D01*
X105502142Y-31559174D01*
X105502142Y-31559174D01*
G37*
D12*
X105234500Y-32258000D03*
D11*
G36*
X107377142Y-31559174D02*
G01*
X107400803Y-31562684D01*
X107424007Y-31568496D01*
X107446529Y-31576554D01*
X107468153Y-31586782D01*
X107488670Y-31599079D01*
X107507883Y-31613329D01*
X107525607Y-31629393D01*
X107541671Y-31647117D01*
X107555921Y-31666330D01*
X107568218Y-31686847D01*
X107578446Y-31708471D01*
X107586504Y-31730993D01*
X107592316Y-31754197D01*
X107595826Y-31777858D01*
X107597000Y-31801750D01*
X107597000Y-32714250D01*
X107595826Y-32738142D01*
X107592316Y-32761803D01*
X107586504Y-32785007D01*
X107578446Y-32807529D01*
X107568218Y-32829153D01*
X107555921Y-32849670D01*
X107541671Y-32868883D01*
X107525607Y-32886607D01*
X107507883Y-32902671D01*
X107488670Y-32916921D01*
X107468153Y-32929218D01*
X107446529Y-32939446D01*
X107424007Y-32947504D01*
X107400803Y-32953316D01*
X107377142Y-32956826D01*
X107353250Y-32958000D01*
X106865750Y-32958000D01*
X106841858Y-32956826D01*
X106818197Y-32953316D01*
X106794993Y-32947504D01*
X106772471Y-32939446D01*
X106750847Y-32929218D01*
X106730330Y-32916921D01*
X106711117Y-32902671D01*
X106693393Y-32886607D01*
X106677329Y-32868883D01*
X106663079Y-32849670D01*
X106650782Y-32829153D01*
X106640554Y-32807529D01*
X106632496Y-32785007D01*
X106626684Y-32761803D01*
X106623174Y-32738142D01*
X106622000Y-32714250D01*
X106622000Y-31801750D01*
X106623174Y-31777858D01*
X106626684Y-31754197D01*
X106632496Y-31730993D01*
X106640554Y-31708471D01*
X106650782Y-31686847D01*
X106663079Y-31666330D01*
X106677329Y-31647117D01*
X106693393Y-31629393D01*
X106711117Y-31613329D01*
X106730330Y-31599079D01*
X106750847Y-31586782D01*
X106772471Y-31576554D01*
X106794993Y-31568496D01*
X106818197Y-31562684D01*
X106841858Y-31559174D01*
X106865750Y-31558000D01*
X107353250Y-31558000D01*
X107377142Y-31559174D01*
X107377142Y-31559174D01*
G37*
D12*
X107109500Y-32258000D03*
D11*
G36*
X107298642Y-29527174D02*
G01*
X107322303Y-29530684D01*
X107345507Y-29536496D01*
X107368029Y-29544554D01*
X107389653Y-29554782D01*
X107410170Y-29567079D01*
X107429383Y-29581329D01*
X107447107Y-29597393D01*
X107463171Y-29615117D01*
X107477421Y-29634330D01*
X107489718Y-29654847D01*
X107499946Y-29676471D01*
X107508004Y-29698993D01*
X107513816Y-29722197D01*
X107517326Y-29745858D01*
X107518500Y-29769750D01*
X107518500Y-30682250D01*
X107517326Y-30706142D01*
X107513816Y-30729803D01*
X107508004Y-30753007D01*
X107499946Y-30775529D01*
X107489718Y-30797153D01*
X107477421Y-30817670D01*
X107463171Y-30836883D01*
X107447107Y-30854607D01*
X107429383Y-30870671D01*
X107410170Y-30884921D01*
X107389653Y-30897218D01*
X107368029Y-30907446D01*
X107345507Y-30915504D01*
X107322303Y-30921316D01*
X107298642Y-30924826D01*
X107274750Y-30926000D01*
X106787250Y-30926000D01*
X106763358Y-30924826D01*
X106739697Y-30921316D01*
X106716493Y-30915504D01*
X106693971Y-30907446D01*
X106672347Y-30897218D01*
X106651830Y-30884921D01*
X106632617Y-30870671D01*
X106614893Y-30854607D01*
X106598829Y-30836883D01*
X106584579Y-30817670D01*
X106572282Y-30797153D01*
X106562054Y-30775529D01*
X106553996Y-30753007D01*
X106548184Y-30729803D01*
X106544674Y-30706142D01*
X106543500Y-30682250D01*
X106543500Y-29769750D01*
X106544674Y-29745858D01*
X106548184Y-29722197D01*
X106553996Y-29698993D01*
X106562054Y-29676471D01*
X106572282Y-29654847D01*
X106584579Y-29634330D01*
X106598829Y-29615117D01*
X106614893Y-29597393D01*
X106632617Y-29581329D01*
X106651830Y-29567079D01*
X106672347Y-29554782D01*
X106693971Y-29544554D01*
X106716493Y-29536496D01*
X106739697Y-29530684D01*
X106763358Y-29527174D01*
X106787250Y-29526000D01*
X107274750Y-29526000D01*
X107298642Y-29527174D01*
X107298642Y-29527174D01*
G37*
D12*
X107031000Y-30226000D03*
D11*
G36*
X105423642Y-29527174D02*
G01*
X105447303Y-29530684D01*
X105470507Y-29536496D01*
X105493029Y-29544554D01*
X105514653Y-29554782D01*
X105535170Y-29567079D01*
X105554383Y-29581329D01*
X105572107Y-29597393D01*
X105588171Y-29615117D01*
X105602421Y-29634330D01*
X105614718Y-29654847D01*
X105624946Y-29676471D01*
X105633004Y-29698993D01*
X105638816Y-29722197D01*
X105642326Y-29745858D01*
X105643500Y-29769750D01*
X105643500Y-30682250D01*
X105642326Y-30706142D01*
X105638816Y-30729803D01*
X105633004Y-30753007D01*
X105624946Y-30775529D01*
X105614718Y-30797153D01*
X105602421Y-30817670D01*
X105588171Y-30836883D01*
X105572107Y-30854607D01*
X105554383Y-30870671D01*
X105535170Y-30884921D01*
X105514653Y-30897218D01*
X105493029Y-30907446D01*
X105470507Y-30915504D01*
X105447303Y-30921316D01*
X105423642Y-30924826D01*
X105399750Y-30926000D01*
X104912250Y-30926000D01*
X104888358Y-30924826D01*
X104864697Y-30921316D01*
X104841493Y-30915504D01*
X104818971Y-30907446D01*
X104797347Y-30897218D01*
X104776830Y-30884921D01*
X104757617Y-30870671D01*
X104739893Y-30854607D01*
X104723829Y-30836883D01*
X104709579Y-30817670D01*
X104697282Y-30797153D01*
X104687054Y-30775529D01*
X104678996Y-30753007D01*
X104673184Y-30729803D01*
X104669674Y-30706142D01*
X104668500Y-30682250D01*
X104668500Y-29769750D01*
X104669674Y-29745858D01*
X104673184Y-29722197D01*
X104678996Y-29698993D01*
X104687054Y-29676471D01*
X104697282Y-29654847D01*
X104709579Y-29634330D01*
X104723829Y-29615117D01*
X104739893Y-29597393D01*
X104757617Y-29581329D01*
X104776830Y-29567079D01*
X104797347Y-29554782D01*
X104818971Y-29544554D01*
X104841493Y-29536496D01*
X104864697Y-29530684D01*
X104888358Y-29527174D01*
X104912250Y-29526000D01*
X105399750Y-29526000D01*
X105423642Y-29527174D01*
X105423642Y-29527174D01*
G37*
D12*
X105156000Y-30226000D03*
D13*
X86153001Y-31797001D03*
D14*
X86153001Y-34337001D03*
X86153001Y-36877001D03*
X86153001Y-39417001D03*
X86153001Y-41957001D03*
D11*
G36*
X101456642Y-44005174D02*
G01*
X101480303Y-44008684D01*
X101503507Y-44014496D01*
X101526029Y-44022554D01*
X101547653Y-44032782D01*
X101568170Y-44045079D01*
X101587383Y-44059329D01*
X101605107Y-44075393D01*
X101621171Y-44093117D01*
X101635421Y-44112330D01*
X101647718Y-44132847D01*
X101657946Y-44154471D01*
X101666004Y-44176993D01*
X101671816Y-44200197D01*
X101675326Y-44223858D01*
X101676500Y-44247750D01*
X101676500Y-45160250D01*
X101675326Y-45184142D01*
X101671816Y-45207803D01*
X101666004Y-45231007D01*
X101657946Y-45253529D01*
X101647718Y-45275153D01*
X101635421Y-45295670D01*
X101621171Y-45314883D01*
X101605107Y-45332607D01*
X101587383Y-45348671D01*
X101568170Y-45362921D01*
X101547653Y-45375218D01*
X101526029Y-45385446D01*
X101503507Y-45393504D01*
X101480303Y-45399316D01*
X101456642Y-45402826D01*
X101432750Y-45404000D01*
X100945250Y-45404000D01*
X100921358Y-45402826D01*
X100897697Y-45399316D01*
X100874493Y-45393504D01*
X100851971Y-45385446D01*
X100830347Y-45375218D01*
X100809830Y-45362921D01*
X100790617Y-45348671D01*
X100772893Y-45332607D01*
X100756829Y-45314883D01*
X100742579Y-45295670D01*
X100730282Y-45275153D01*
X100720054Y-45253529D01*
X100711996Y-45231007D01*
X100706184Y-45207803D01*
X100702674Y-45184142D01*
X100701500Y-45160250D01*
X100701500Y-44247750D01*
X100702674Y-44223858D01*
X100706184Y-44200197D01*
X100711996Y-44176993D01*
X100720054Y-44154471D01*
X100730282Y-44132847D01*
X100742579Y-44112330D01*
X100756829Y-44093117D01*
X100772893Y-44075393D01*
X100790617Y-44059329D01*
X100809830Y-44045079D01*
X100830347Y-44032782D01*
X100851971Y-44022554D01*
X100874493Y-44014496D01*
X100897697Y-44008684D01*
X100921358Y-44005174D01*
X100945250Y-44004000D01*
X101432750Y-44004000D01*
X101456642Y-44005174D01*
X101456642Y-44005174D01*
G37*
D12*
X101189000Y-44704000D03*
D11*
G36*
X99581642Y-44005174D02*
G01*
X99605303Y-44008684D01*
X99628507Y-44014496D01*
X99651029Y-44022554D01*
X99672653Y-44032782D01*
X99693170Y-44045079D01*
X99712383Y-44059329D01*
X99730107Y-44075393D01*
X99746171Y-44093117D01*
X99760421Y-44112330D01*
X99772718Y-44132847D01*
X99782946Y-44154471D01*
X99791004Y-44176993D01*
X99796816Y-44200197D01*
X99800326Y-44223858D01*
X99801500Y-44247750D01*
X99801500Y-45160250D01*
X99800326Y-45184142D01*
X99796816Y-45207803D01*
X99791004Y-45231007D01*
X99782946Y-45253529D01*
X99772718Y-45275153D01*
X99760421Y-45295670D01*
X99746171Y-45314883D01*
X99730107Y-45332607D01*
X99712383Y-45348671D01*
X99693170Y-45362921D01*
X99672653Y-45375218D01*
X99651029Y-45385446D01*
X99628507Y-45393504D01*
X99605303Y-45399316D01*
X99581642Y-45402826D01*
X99557750Y-45404000D01*
X99070250Y-45404000D01*
X99046358Y-45402826D01*
X99022697Y-45399316D01*
X98999493Y-45393504D01*
X98976971Y-45385446D01*
X98955347Y-45375218D01*
X98934830Y-45362921D01*
X98915617Y-45348671D01*
X98897893Y-45332607D01*
X98881829Y-45314883D01*
X98867579Y-45295670D01*
X98855282Y-45275153D01*
X98845054Y-45253529D01*
X98836996Y-45231007D01*
X98831184Y-45207803D01*
X98827674Y-45184142D01*
X98826500Y-45160250D01*
X98826500Y-44247750D01*
X98827674Y-44223858D01*
X98831184Y-44200197D01*
X98836996Y-44176993D01*
X98845054Y-44154471D01*
X98855282Y-44132847D01*
X98867579Y-44112330D01*
X98881829Y-44093117D01*
X98897893Y-44075393D01*
X98915617Y-44059329D01*
X98934830Y-44045079D01*
X98955347Y-44032782D01*
X98976971Y-44022554D01*
X98999493Y-44014496D01*
X99022697Y-44008684D01*
X99046358Y-44005174D01*
X99070250Y-44004000D01*
X99557750Y-44004000D01*
X99581642Y-44005174D01*
X99581642Y-44005174D01*
G37*
D12*
X99314000Y-44704000D03*
D11*
G36*
X99581642Y-41973174D02*
G01*
X99605303Y-41976684D01*
X99628507Y-41982496D01*
X99651029Y-41990554D01*
X99672653Y-42000782D01*
X99693170Y-42013079D01*
X99712383Y-42027329D01*
X99730107Y-42043393D01*
X99746171Y-42061117D01*
X99760421Y-42080330D01*
X99772718Y-42100847D01*
X99782946Y-42122471D01*
X99791004Y-42144993D01*
X99796816Y-42168197D01*
X99800326Y-42191858D01*
X99801500Y-42215750D01*
X99801500Y-43128250D01*
X99800326Y-43152142D01*
X99796816Y-43175803D01*
X99791004Y-43199007D01*
X99782946Y-43221529D01*
X99772718Y-43243153D01*
X99760421Y-43263670D01*
X99746171Y-43282883D01*
X99730107Y-43300607D01*
X99712383Y-43316671D01*
X99693170Y-43330921D01*
X99672653Y-43343218D01*
X99651029Y-43353446D01*
X99628507Y-43361504D01*
X99605303Y-43367316D01*
X99581642Y-43370826D01*
X99557750Y-43372000D01*
X99070250Y-43372000D01*
X99046358Y-43370826D01*
X99022697Y-43367316D01*
X98999493Y-43361504D01*
X98976971Y-43353446D01*
X98955347Y-43343218D01*
X98934830Y-43330921D01*
X98915617Y-43316671D01*
X98897893Y-43300607D01*
X98881829Y-43282883D01*
X98867579Y-43263670D01*
X98855282Y-43243153D01*
X98845054Y-43221529D01*
X98836996Y-43199007D01*
X98831184Y-43175803D01*
X98827674Y-43152142D01*
X98826500Y-43128250D01*
X98826500Y-42215750D01*
X98827674Y-42191858D01*
X98831184Y-42168197D01*
X98836996Y-42144993D01*
X98845054Y-42122471D01*
X98855282Y-42100847D01*
X98867579Y-42080330D01*
X98881829Y-42061117D01*
X98897893Y-42043393D01*
X98915617Y-42027329D01*
X98934830Y-42013079D01*
X98955347Y-42000782D01*
X98976971Y-41990554D01*
X98999493Y-41982496D01*
X99022697Y-41976684D01*
X99046358Y-41973174D01*
X99070250Y-41972000D01*
X99557750Y-41972000D01*
X99581642Y-41973174D01*
X99581642Y-41973174D01*
G37*
D12*
X99314000Y-42672000D03*
D11*
G36*
X101456642Y-41973174D02*
G01*
X101480303Y-41976684D01*
X101503507Y-41982496D01*
X101526029Y-41990554D01*
X101547653Y-42000782D01*
X101568170Y-42013079D01*
X101587383Y-42027329D01*
X101605107Y-42043393D01*
X101621171Y-42061117D01*
X101635421Y-42080330D01*
X101647718Y-42100847D01*
X101657946Y-42122471D01*
X101666004Y-42144993D01*
X101671816Y-42168197D01*
X101675326Y-42191858D01*
X101676500Y-42215750D01*
X101676500Y-43128250D01*
X101675326Y-43152142D01*
X101671816Y-43175803D01*
X101666004Y-43199007D01*
X101657946Y-43221529D01*
X101647718Y-43243153D01*
X101635421Y-43263670D01*
X101621171Y-43282883D01*
X101605107Y-43300607D01*
X101587383Y-43316671D01*
X101568170Y-43330921D01*
X101547653Y-43343218D01*
X101526029Y-43353446D01*
X101503507Y-43361504D01*
X101480303Y-43367316D01*
X101456642Y-43370826D01*
X101432750Y-43372000D01*
X100945250Y-43372000D01*
X100921358Y-43370826D01*
X100897697Y-43367316D01*
X100874493Y-43361504D01*
X100851971Y-43353446D01*
X100830347Y-43343218D01*
X100809830Y-43330921D01*
X100790617Y-43316671D01*
X100772893Y-43300607D01*
X100756829Y-43282883D01*
X100742579Y-43263670D01*
X100730282Y-43243153D01*
X100720054Y-43221529D01*
X100711996Y-43199007D01*
X100706184Y-43175803D01*
X100702674Y-43152142D01*
X100701500Y-43128250D01*
X100701500Y-42215750D01*
X100702674Y-42191858D01*
X100706184Y-42168197D01*
X100711996Y-42144993D01*
X100720054Y-42122471D01*
X100730282Y-42100847D01*
X100742579Y-42080330D01*
X100756829Y-42061117D01*
X100772893Y-42043393D01*
X100790617Y-42027329D01*
X100809830Y-42013079D01*
X100830347Y-42000782D01*
X100851971Y-41990554D01*
X100874493Y-41982496D01*
X100897697Y-41976684D01*
X100921358Y-41973174D01*
X100945250Y-41972000D01*
X101432750Y-41972000D01*
X101456642Y-41973174D01*
X101456642Y-41973174D01*
G37*
D12*
X101189000Y-42672000D03*
D11*
G36*
X101456642Y-39687174D02*
G01*
X101480303Y-39690684D01*
X101503507Y-39696496D01*
X101526029Y-39704554D01*
X101547653Y-39714782D01*
X101568170Y-39727079D01*
X101587383Y-39741329D01*
X101605107Y-39757393D01*
X101621171Y-39775117D01*
X101635421Y-39794330D01*
X101647718Y-39814847D01*
X101657946Y-39836471D01*
X101666004Y-39858993D01*
X101671816Y-39882197D01*
X101675326Y-39905858D01*
X101676500Y-39929750D01*
X101676500Y-40842250D01*
X101675326Y-40866142D01*
X101671816Y-40889803D01*
X101666004Y-40913007D01*
X101657946Y-40935529D01*
X101647718Y-40957153D01*
X101635421Y-40977670D01*
X101621171Y-40996883D01*
X101605107Y-41014607D01*
X101587383Y-41030671D01*
X101568170Y-41044921D01*
X101547653Y-41057218D01*
X101526029Y-41067446D01*
X101503507Y-41075504D01*
X101480303Y-41081316D01*
X101456642Y-41084826D01*
X101432750Y-41086000D01*
X100945250Y-41086000D01*
X100921358Y-41084826D01*
X100897697Y-41081316D01*
X100874493Y-41075504D01*
X100851971Y-41067446D01*
X100830347Y-41057218D01*
X100809830Y-41044921D01*
X100790617Y-41030671D01*
X100772893Y-41014607D01*
X100756829Y-40996883D01*
X100742579Y-40977670D01*
X100730282Y-40957153D01*
X100720054Y-40935529D01*
X100711996Y-40913007D01*
X100706184Y-40889803D01*
X100702674Y-40866142D01*
X100701500Y-40842250D01*
X100701500Y-39929750D01*
X100702674Y-39905858D01*
X100706184Y-39882197D01*
X100711996Y-39858993D01*
X100720054Y-39836471D01*
X100730282Y-39814847D01*
X100742579Y-39794330D01*
X100756829Y-39775117D01*
X100772893Y-39757393D01*
X100790617Y-39741329D01*
X100809830Y-39727079D01*
X100830347Y-39714782D01*
X100851971Y-39704554D01*
X100874493Y-39696496D01*
X100897697Y-39690684D01*
X100921358Y-39687174D01*
X100945250Y-39686000D01*
X101432750Y-39686000D01*
X101456642Y-39687174D01*
X101456642Y-39687174D01*
G37*
D12*
X101189000Y-40386000D03*
D11*
G36*
X99581642Y-39687174D02*
G01*
X99605303Y-39690684D01*
X99628507Y-39696496D01*
X99651029Y-39704554D01*
X99672653Y-39714782D01*
X99693170Y-39727079D01*
X99712383Y-39741329D01*
X99730107Y-39757393D01*
X99746171Y-39775117D01*
X99760421Y-39794330D01*
X99772718Y-39814847D01*
X99782946Y-39836471D01*
X99791004Y-39858993D01*
X99796816Y-39882197D01*
X99800326Y-39905858D01*
X99801500Y-39929750D01*
X99801500Y-40842250D01*
X99800326Y-40866142D01*
X99796816Y-40889803D01*
X99791004Y-40913007D01*
X99782946Y-40935529D01*
X99772718Y-40957153D01*
X99760421Y-40977670D01*
X99746171Y-40996883D01*
X99730107Y-41014607D01*
X99712383Y-41030671D01*
X99693170Y-41044921D01*
X99672653Y-41057218D01*
X99651029Y-41067446D01*
X99628507Y-41075504D01*
X99605303Y-41081316D01*
X99581642Y-41084826D01*
X99557750Y-41086000D01*
X99070250Y-41086000D01*
X99046358Y-41084826D01*
X99022697Y-41081316D01*
X98999493Y-41075504D01*
X98976971Y-41067446D01*
X98955347Y-41057218D01*
X98934830Y-41044921D01*
X98915617Y-41030671D01*
X98897893Y-41014607D01*
X98881829Y-40996883D01*
X98867579Y-40977670D01*
X98855282Y-40957153D01*
X98845054Y-40935529D01*
X98836996Y-40913007D01*
X98831184Y-40889803D01*
X98827674Y-40866142D01*
X98826500Y-40842250D01*
X98826500Y-39929750D01*
X98827674Y-39905858D01*
X98831184Y-39882197D01*
X98836996Y-39858993D01*
X98845054Y-39836471D01*
X98855282Y-39814847D01*
X98867579Y-39794330D01*
X98881829Y-39775117D01*
X98897893Y-39757393D01*
X98915617Y-39741329D01*
X98934830Y-39727079D01*
X98955347Y-39714782D01*
X98976971Y-39704554D01*
X98999493Y-39696496D01*
X99022697Y-39690684D01*
X99046358Y-39687174D01*
X99070250Y-39686000D01*
X99557750Y-39686000D01*
X99581642Y-39687174D01*
X99581642Y-39687174D01*
G37*
D12*
X99314000Y-40386000D03*
D11*
G36*
X99581642Y-37655174D02*
G01*
X99605303Y-37658684D01*
X99628507Y-37664496D01*
X99651029Y-37672554D01*
X99672653Y-37682782D01*
X99693170Y-37695079D01*
X99712383Y-37709329D01*
X99730107Y-37725393D01*
X99746171Y-37743117D01*
X99760421Y-37762330D01*
X99772718Y-37782847D01*
X99782946Y-37804471D01*
X99791004Y-37826993D01*
X99796816Y-37850197D01*
X99800326Y-37873858D01*
X99801500Y-37897750D01*
X99801500Y-38810250D01*
X99800326Y-38834142D01*
X99796816Y-38857803D01*
X99791004Y-38881007D01*
X99782946Y-38903529D01*
X99772718Y-38925153D01*
X99760421Y-38945670D01*
X99746171Y-38964883D01*
X99730107Y-38982607D01*
X99712383Y-38998671D01*
X99693170Y-39012921D01*
X99672653Y-39025218D01*
X99651029Y-39035446D01*
X99628507Y-39043504D01*
X99605303Y-39049316D01*
X99581642Y-39052826D01*
X99557750Y-39054000D01*
X99070250Y-39054000D01*
X99046358Y-39052826D01*
X99022697Y-39049316D01*
X98999493Y-39043504D01*
X98976971Y-39035446D01*
X98955347Y-39025218D01*
X98934830Y-39012921D01*
X98915617Y-38998671D01*
X98897893Y-38982607D01*
X98881829Y-38964883D01*
X98867579Y-38945670D01*
X98855282Y-38925153D01*
X98845054Y-38903529D01*
X98836996Y-38881007D01*
X98831184Y-38857803D01*
X98827674Y-38834142D01*
X98826500Y-38810250D01*
X98826500Y-37897750D01*
X98827674Y-37873858D01*
X98831184Y-37850197D01*
X98836996Y-37826993D01*
X98845054Y-37804471D01*
X98855282Y-37782847D01*
X98867579Y-37762330D01*
X98881829Y-37743117D01*
X98897893Y-37725393D01*
X98915617Y-37709329D01*
X98934830Y-37695079D01*
X98955347Y-37682782D01*
X98976971Y-37672554D01*
X98999493Y-37664496D01*
X99022697Y-37658684D01*
X99046358Y-37655174D01*
X99070250Y-37654000D01*
X99557750Y-37654000D01*
X99581642Y-37655174D01*
X99581642Y-37655174D01*
G37*
D12*
X99314000Y-38354000D03*
D11*
G36*
X101456642Y-37655174D02*
G01*
X101480303Y-37658684D01*
X101503507Y-37664496D01*
X101526029Y-37672554D01*
X101547653Y-37682782D01*
X101568170Y-37695079D01*
X101587383Y-37709329D01*
X101605107Y-37725393D01*
X101621171Y-37743117D01*
X101635421Y-37762330D01*
X101647718Y-37782847D01*
X101657946Y-37804471D01*
X101666004Y-37826993D01*
X101671816Y-37850197D01*
X101675326Y-37873858D01*
X101676500Y-37897750D01*
X101676500Y-38810250D01*
X101675326Y-38834142D01*
X101671816Y-38857803D01*
X101666004Y-38881007D01*
X101657946Y-38903529D01*
X101647718Y-38925153D01*
X101635421Y-38945670D01*
X101621171Y-38964883D01*
X101605107Y-38982607D01*
X101587383Y-38998671D01*
X101568170Y-39012921D01*
X101547653Y-39025218D01*
X101526029Y-39035446D01*
X101503507Y-39043504D01*
X101480303Y-39049316D01*
X101456642Y-39052826D01*
X101432750Y-39054000D01*
X100945250Y-39054000D01*
X100921358Y-39052826D01*
X100897697Y-39049316D01*
X100874493Y-39043504D01*
X100851971Y-39035446D01*
X100830347Y-39025218D01*
X100809830Y-39012921D01*
X100790617Y-38998671D01*
X100772893Y-38982607D01*
X100756829Y-38964883D01*
X100742579Y-38945670D01*
X100730282Y-38925153D01*
X100720054Y-38903529D01*
X100711996Y-38881007D01*
X100706184Y-38857803D01*
X100702674Y-38834142D01*
X100701500Y-38810250D01*
X100701500Y-37897750D01*
X100702674Y-37873858D01*
X100706184Y-37850197D01*
X100711996Y-37826993D01*
X100720054Y-37804471D01*
X100730282Y-37782847D01*
X100742579Y-37762330D01*
X100756829Y-37743117D01*
X100772893Y-37725393D01*
X100790617Y-37709329D01*
X100809830Y-37695079D01*
X100830347Y-37682782D01*
X100851971Y-37672554D01*
X100874493Y-37664496D01*
X100897697Y-37658684D01*
X100921358Y-37655174D01*
X100945250Y-37654000D01*
X101432750Y-37654000D01*
X101456642Y-37655174D01*
X101456642Y-37655174D01*
G37*
D12*
X101189000Y-38354000D03*
D11*
G36*
X101456642Y-35623174D02*
G01*
X101480303Y-35626684D01*
X101503507Y-35632496D01*
X101526029Y-35640554D01*
X101547653Y-35650782D01*
X101568170Y-35663079D01*
X101587383Y-35677329D01*
X101605107Y-35693393D01*
X101621171Y-35711117D01*
X101635421Y-35730330D01*
X101647718Y-35750847D01*
X101657946Y-35772471D01*
X101666004Y-35794993D01*
X101671816Y-35818197D01*
X101675326Y-35841858D01*
X101676500Y-35865750D01*
X101676500Y-36778250D01*
X101675326Y-36802142D01*
X101671816Y-36825803D01*
X101666004Y-36849007D01*
X101657946Y-36871529D01*
X101647718Y-36893153D01*
X101635421Y-36913670D01*
X101621171Y-36932883D01*
X101605107Y-36950607D01*
X101587383Y-36966671D01*
X101568170Y-36980921D01*
X101547653Y-36993218D01*
X101526029Y-37003446D01*
X101503507Y-37011504D01*
X101480303Y-37017316D01*
X101456642Y-37020826D01*
X101432750Y-37022000D01*
X100945250Y-37022000D01*
X100921358Y-37020826D01*
X100897697Y-37017316D01*
X100874493Y-37011504D01*
X100851971Y-37003446D01*
X100830347Y-36993218D01*
X100809830Y-36980921D01*
X100790617Y-36966671D01*
X100772893Y-36950607D01*
X100756829Y-36932883D01*
X100742579Y-36913670D01*
X100730282Y-36893153D01*
X100720054Y-36871529D01*
X100711996Y-36849007D01*
X100706184Y-36825803D01*
X100702674Y-36802142D01*
X100701500Y-36778250D01*
X100701500Y-35865750D01*
X100702674Y-35841858D01*
X100706184Y-35818197D01*
X100711996Y-35794993D01*
X100720054Y-35772471D01*
X100730282Y-35750847D01*
X100742579Y-35730330D01*
X100756829Y-35711117D01*
X100772893Y-35693393D01*
X100790617Y-35677329D01*
X100809830Y-35663079D01*
X100830347Y-35650782D01*
X100851971Y-35640554D01*
X100874493Y-35632496D01*
X100897697Y-35626684D01*
X100921358Y-35623174D01*
X100945250Y-35622000D01*
X101432750Y-35622000D01*
X101456642Y-35623174D01*
X101456642Y-35623174D01*
G37*
D12*
X101189000Y-36322000D03*
D11*
G36*
X99581642Y-35623174D02*
G01*
X99605303Y-35626684D01*
X99628507Y-35632496D01*
X99651029Y-35640554D01*
X99672653Y-35650782D01*
X99693170Y-35663079D01*
X99712383Y-35677329D01*
X99730107Y-35693393D01*
X99746171Y-35711117D01*
X99760421Y-35730330D01*
X99772718Y-35750847D01*
X99782946Y-35772471D01*
X99791004Y-35794993D01*
X99796816Y-35818197D01*
X99800326Y-35841858D01*
X99801500Y-35865750D01*
X99801500Y-36778250D01*
X99800326Y-36802142D01*
X99796816Y-36825803D01*
X99791004Y-36849007D01*
X99782946Y-36871529D01*
X99772718Y-36893153D01*
X99760421Y-36913670D01*
X99746171Y-36932883D01*
X99730107Y-36950607D01*
X99712383Y-36966671D01*
X99693170Y-36980921D01*
X99672653Y-36993218D01*
X99651029Y-37003446D01*
X99628507Y-37011504D01*
X99605303Y-37017316D01*
X99581642Y-37020826D01*
X99557750Y-37022000D01*
X99070250Y-37022000D01*
X99046358Y-37020826D01*
X99022697Y-37017316D01*
X98999493Y-37011504D01*
X98976971Y-37003446D01*
X98955347Y-36993218D01*
X98934830Y-36980921D01*
X98915617Y-36966671D01*
X98897893Y-36950607D01*
X98881829Y-36932883D01*
X98867579Y-36913670D01*
X98855282Y-36893153D01*
X98845054Y-36871529D01*
X98836996Y-36849007D01*
X98831184Y-36825803D01*
X98827674Y-36802142D01*
X98826500Y-36778250D01*
X98826500Y-35865750D01*
X98827674Y-35841858D01*
X98831184Y-35818197D01*
X98836996Y-35794993D01*
X98845054Y-35772471D01*
X98855282Y-35750847D01*
X98867579Y-35730330D01*
X98881829Y-35711117D01*
X98897893Y-35693393D01*
X98915617Y-35677329D01*
X98934830Y-35663079D01*
X98955347Y-35650782D01*
X98976971Y-35640554D01*
X98999493Y-35632496D01*
X99022697Y-35626684D01*
X99046358Y-35623174D01*
X99070250Y-35622000D01*
X99557750Y-35622000D01*
X99581642Y-35623174D01*
X99581642Y-35623174D01*
G37*
D12*
X99314000Y-36322000D03*
D11*
G36*
X99581642Y-33591174D02*
G01*
X99605303Y-33594684D01*
X99628507Y-33600496D01*
X99651029Y-33608554D01*
X99672653Y-33618782D01*
X99693170Y-33631079D01*
X99712383Y-33645329D01*
X99730107Y-33661393D01*
X99746171Y-33679117D01*
X99760421Y-33698330D01*
X99772718Y-33718847D01*
X99782946Y-33740471D01*
X99791004Y-33762993D01*
X99796816Y-33786197D01*
X99800326Y-33809858D01*
X99801500Y-33833750D01*
X99801500Y-34746250D01*
X99800326Y-34770142D01*
X99796816Y-34793803D01*
X99791004Y-34817007D01*
X99782946Y-34839529D01*
X99772718Y-34861153D01*
X99760421Y-34881670D01*
X99746171Y-34900883D01*
X99730107Y-34918607D01*
X99712383Y-34934671D01*
X99693170Y-34948921D01*
X99672653Y-34961218D01*
X99651029Y-34971446D01*
X99628507Y-34979504D01*
X99605303Y-34985316D01*
X99581642Y-34988826D01*
X99557750Y-34990000D01*
X99070250Y-34990000D01*
X99046358Y-34988826D01*
X99022697Y-34985316D01*
X98999493Y-34979504D01*
X98976971Y-34971446D01*
X98955347Y-34961218D01*
X98934830Y-34948921D01*
X98915617Y-34934671D01*
X98897893Y-34918607D01*
X98881829Y-34900883D01*
X98867579Y-34881670D01*
X98855282Y-34861153D01*
X98845054Y-34839529D01*
X98836996Y-34817007D01*
X98831184Y-34793803D01*
X98827674Y-34770142D01*
X98826500Y-34746250D01*
X98826500Y-33833750D01*
X98827674Y-33809858D01*
X98831184Y-33786197D01*
X98836996Y-33762993D01*
X98845054Y-33740471D01*
X98855282Y-33718847D01*
X98867579Y-33698330D01*
X98881829Y-33679117D01*
X98897893Y-33661393D01*
X98915617Y-33645329D01*
X98934830Y-33631079D01*
X98955347Y-33618782D01*
X98976971Y-33608554D01*
X98999493Y-33600496D01*
X99022697Y-33594684D01*
X99046358Y-33591174D01*
X99070250Y-33590000D01*
X99557750Y-33590000D01*
X99581642Y-33591174D01*
X99581642Y-33591174D01*
G37*
D12*
X99314000Y-34290000D03*
D11*
G36*
X101456642Y-33591174D02*
G01*
X101480303Y-33594684D01*
X101503507Y-33600496D01*
X101526029Y-33608554D01*
X101547653Y-33618782D01*
X101568170Y-33631079D01*
X101587383Y-33645329D01*
X101605107Y-33661393D01*
X101621171Y-33679117D01*
X101635421Y-33698330D01*
X101647718Y-33718847D01*
X101657946Y-33740471D01*
X101666004Y-33762993D01*
X101671816Y-33786197D01*
X101675326Y-33809858D01*
X101676500Y-33833750D01*
X101676500Y-34746250D01*
X101675326Y-34770142D01*
X101671816Y-34793803D01*
X101666004Y-34817007D01*
X101657946Y-34839529D01*
X101647718Y-34861153D01*
X101635421Y-34881670D01*
X101621171Y-34900883D01*
X101605107Y-34918607D01*
X101587383Y-34934671D01*
X101568170Y-34948921D01*
X101547653Y-34961218D01*
X101526029Y-34971446D01*
X101503507Y-34979504D01*
X101480303Y-34985316D01*
X101456642Y-34988826D01*
X101432750Y-34990000D01*
X100945250Y-34990000D01*
X100921358Y-34988826D01*
X100897697Y-34985316D01*
X100874493Y-34979504D01*
X100851971Y-34971446D01*
X100830347Y-34961218D01*
X100809830Y-34948921D01*
X100790617Y-34934671D01*
X100772893Y-34918607D01*
X100756829Y-34900883D01*
X100742579Y-34881670D01*
X100730282Y-34861153D01*
X100720054Y-34839529D01*
X100711996Y-34817007D01*
X100706184Y-34793803D01*
X100702674Y-34770142D01*
X100701500Y-34746250D01*
X100701500Y-33833750D01*
X100702674Y-33809858D01*
X100706184Y-33786197D01*
X100711996Y-33762993D01*
X100720054Y-33740471D01*
X100730282Y-33718847D01*
X100742579Y-33698330D01*
X100756829Y-33679117D01*
X100772893Y-33661393D01*
X100790617Y-33645329D01*
X100809830Y-33631079D01*
X100830347Y-33618782D01*
X100851971Y-33608554D01*
X100874493Y-33600496D01*
X100897697Y-33594684D01*
X100921358Y-33591174D01*
X100945250Y-33590000D01*
X101432750Y-33590000D01*
X101456642Y-33591174D01*
X101456642Y-33591174D01*
G37*
D12*
X101189000Y-34290000D03*
D11*
G36*
X101456642Y-31559174D02*
G01*
X101480303Y-31562684D01*
X101503507Y-31568496D01*
X101526029Y-31576554D01*
X101547653Y-31586782D01*
X101568170Y-31599079D01*
X101587383Y-31613329D01*
X101605107Y-31629393D01*
X101621171Y-31647117D01*
X101635421Y-31666330D01*
X101647718Y-31686847D01*
X101657946Y-31708471D01*
X101666004Y-31730993D01*
X101671816Y-31754197D01*
X101675326Y-31777858D01*
X101676500Y-31801750D01*
X101676500Y-32714250D01*
X101675326Y-32738142D01*
X101671816Y-32761803D01*
X101666004Y-32785007D01*
X101657946Y-32807529D01*
X101647718Y-32829153D01*
X101635421Y-32849670D01*
X101621171Y-32868883D01*
X101605107Y-32886607D01*
X101587383Y-32902671D01*
X101568170Y-32916921D01*
X101547653Y-32929218D01*
X101526029Y-32939446D01*
X101503507Y-32947504D01*
X101480303Y-32953316D01*
X101456642Y-32956826D01*
X101432750Y-32958000D01*
X100945250Y-32958000D01*
X100921358Y-32956826D01*
X100897697Y-32953316D01*
X100874493Y-32947504D01*
X100851971Y-32939446D01*
X100830347Y-32929218D01*
X100809830Y-32916921D01*
X100790617Y-32902671D01*
X100772893Y-32886607D01*
X100756829Y-32868883D01*
X100742579Y-32849670D01*
X100730282Y-32829153D01*
X100720054Y-32807529D01*
X100711996Y-32785007D01*
X100706184Y-32761803D01*
X100702674Y-32738142D01*
X100701500Y-32714250D01*
X100701500Y-31801750D01*
X100702674Y-31777858D01*
X100706184Y-31754197D01*
X100711996Y-31730993D01*
X100720054Y-31708471D01*
X100730282Y-31686847D01*
X100742579Y-31666330D01*
X100756829Y-31647117D01*
X100772893Y-31629393D01*
X100790617Y-31613329D01*
X100809830Y-31599079D01*
X100830347Y-31586782D01*
X100851971Y-31576554D01*
X100874493Y-31568496D01*
X100897697Y-31562684D01*
X100921358Y-31559174D01*
X100945250Y-31558000D01*
X101432750Y-31558000D01*
X101456642Y-31559174D01*
X101456642Y-31559174D01*
G37*
D12*
X101189000Y-32258000D03*
D11*
G36*
X99581642Y-31559174D02*
G01*
X99605303Y-31562684D01*
X99628507Y-31568496D01*
X99651029Y-31576554D01*
X99672653Y-31586782D01*
X99693170Y-31599079D01*
X99712383Y-31613329D01*
X99730107Y-31629393D01*
X99746171Y-31647117D01*
X99760421Y-31666330D01*
X99772718Y-31686847D01*
X99782946Y-31708471D01*
X99791004Y-31730993D01*
X99796816Y-31754197D01*
X99800326Y-31777858D01*
X99801500Y-31801750D01*
X99801500Y-32714250D01*
X99800326Y-32738142D01*
X99796816Y-32761803D01*
X99791004Y-32785007D01*
X99782946Y-32807529D01*
X99772718Y-32829153D01*
X99760421Y-32849670D01*
X99746171Y-32868883D01*
X99730107Y-32886607D01*
X99712383Y-32902671D01*
X99693170Y-32916921D01*
X99672653Y-32929218D01*
X99651029Y-32939446D01*
X99628507Y-32947504D01*
X99605303Y-32953316D01*
X99581642Y-32956826D01*
X99557750Y-32958000D01*
X99070250Y-32958000D01*
X99046358Y-32956826D01*
X99022697Y-32953316D01*
X98999493Y-32947504D01*
X98976971Y-32939446D01*
X98955347Y-32929218D01*
X98934830Y-32916921D01*
X98915617Y-32902671D01*
X98897893Y-32886607D01*
X98881829Y-32868883D01*
X98867579Y-32849670D01*
X98855282Y-32829153D01*
X98845054Y-32807529D01*
X98836996Y-32785007D01*
X98831184Y-32761803D01*
X98827674Y-32738142D01*
X98826500Y-32714250D01*
X98826500Y-31801750D01*
X98827674Y-31777858D01*
X98831184Y-31754197D01*
X98836996Y-31730993D01*
X98845054Y-31708471D01*
X98855282Y-31686847D01*
X98867579Y-31666330D01*
X98881829Y-31647117D01*
X98897893Y-31629393D01*
X98915617Y-31613329D01*
X98934830Y-31599079D01*
X98955347Y-31586782D01*
X98976971Y-31576554D01*
X98999493Y-31568496D01*
X99022697Y-31562684D01*
X99046358Y-31559174D01*
X99070250Y-31558000D01*
X99557750Y-31558000D01*
X99581642Y-31559174D01*
X99581642Y-31559174D01*
G37*
D12*
X99314000Y-32258000D03*
D11*
G36*
X99581642Y-29527174D02*
G01*
X99605303Y-29530684D01*
X99628507Y-29536496D01*
X99651029Y-29544554D01*
X99672653Y-29554782D01*
X99693170Y-29567079D01*
X99712383Y-29581329D01*
X99730107Y-29597393D01*
X99746171Y-29615117D01*
X99760421Y-29634330D01*
X99772718Y-29654847D01*
X99782946Y-29676471D01*
X99791004Y-29698993D01*
X99796816Y-29722197D01*
X99800326Y-29745858D01*
X99801500Y-29769750D01*
X99801500Y-30682250D01*
X99800326Y-30706142D01*
X99796816Y-30729803D01*
X99791004Y-30753007D01*
X99782946Y-30775529D01*
X99772718Y-30797153D01*
X99760421Y-30817670D01*
X99746171Y-30836883D01*
X99730107Y-30854607D01*
X99712383Y-30870671D01*
X99693170Y-30884921D01*
X99672653Y-30897218D01*
X99651029Y-30907446D01*
X99628507Y-30915504D01*
X99605303Y-30921316D01*
X99581642Y-30924826D01*
X99557750Y-30926000D01*
X99070250Y-30926000D01*
X99046358Y-30924826D01*
X99022697Y-30921316D01*
X98999493Y-30915504D01*
X98976971Y-30907446D01*
X98955347Y-30897218D01*
X98934830Y-30884921D01*
X98915617Y-30870671D01*
X98897893Y-30854607D01*
X98881829Y-30836883D01*
X98867579Y-30817670D01*
X98855282Y-30797153D01*
X98845054Y-30775529D01*
X98836996Y-30753007D01*
X98831184Y-30729803D01*
X98827674Y-30706142D01*
X98826500Y-30682250D01*
X98826500Y-29769750D01*
X98827674Y-29745858D01*
X98831184Y-29722197D01*
X98836996Y-29698993D01*
X98845054Y-29676471D01*
X98855282Y-29654847D01*
X98867579Y-29634330D01*
X98881829Y-29615117D01*
X98897893Y-29597393D01*
X98915617Y-29581329D01*
X98934830Y-29567079D01*
X98955347Y-29554782D01*
X98976971Y-29544554D01*
X98999493Y-29536496D01*
X99022697Y-29530684D01*
X99046358Y-29527174D01*
X99070250Y-29526000D01*
X99557750Y-29526000D01*
X99581642Y-29527174D01*
X99581642Y-29527174D01*
G37*
D12*
X99314000Y-30226000D03*
D11*
G36*
X101456642Y-29527174D02*
G01*
X101480303Y-29530684D01*
X101503507Y-29536496D01*
X101526029Y-29544554D01*
X101547653Y-29554782D01*
X101568170Y-29567079D01*
X101587383Y-29581329D01*
X101605107Y-29597393D01*
X101621171Y-29615117D01*
X101635421Y-29634330D01*
X101647718Y-29654847D01*
X101657946Y-29676471D01*
X101666004Y-29698993D01*
X101671816Y-29722197D01*
X101675326Y-29745858D01*
X101676500Y-29769750D01*
X101676500Y-30682250D01*
X101675326Y-30706142D01*
X101671816Y-30729803D01*
X101666004Y-30753007D01*
X101657946Y-30775529D01*
X101647718Y-30797153D01*
X101635421Y-30817670D01*
X101621171Y-30836883D01*
X101605107Y-30854607D01*
X101587383Y-30870671D01*
X101568170Y-30884921D01*
X101547653Y-30897218D01*
X101526029Y-30907446D01*
X101503507Y-30915504D01*
X101480303Y-30921316D01*
X101456642Y-30924826D01*
X101432750Y-30926000D01*
X100945250Y-30926000D01*
X100921358Y-30924826D01*
X100897697Y-30921316D01*
X100874493Y-30915504D01*
X100851971Y-30907446D01*
X100830347Y-30897218D01*
X100809830Y-30884921D01*
X100790617Y-30870671D01*
X100772893Y-30854607D01*
X100756829Y-30836883D01*
X100742579Y-30817670D01*
X100730282Y-30797153D01*
X100720054Y-30775529D01*
X100711996Y-30753007D01*
X100706184Y-30729803D01*
X100702674Y-30706142D01*
X100701500Y-30682250D01*
X100701500Y-29769750D01*
X100702674Y-29745858D01*
X100706184Y-29722197D01*
X100711996Y-29698993D01*
X100720054Y-29676471D01*
X100730282Y-29654847D01*
X100742579Y-29634330D01*
X100756829Y-29615117D01*
X100772893Y-29597393D01*
X100790617Y-29581329D01*
X100809830Y-29567079D01*
X100830347Y-29554782D01*
X100851971Y-29544554D01*
X100874493Y-29536496D01*
X100897697Y-29530684D01*
X100921358Y-29527174D01*
X100945250Y-29526000D01*
X101432750Y-29526000D01*
X101456642Y-29527174D01*
X101456642Y-29527174D01*
G37*
D12*
X101189000Y-30226000D03*
D15*
X95554800Y-41529000D03*
X95554800Y-40259000D03*
X95554800Y-38989000D03*
X95554800Y-37719000D03*
X95554800Y-36449000D03*
X95554800Y-35179000D03*
X95554800Y-33909000D03*
X95554800Y-32639000D03*
X90373200Y-32639000D03*
X90373200Y-33909000D03*
X90373200Y-35179000D03*
X90373200Y-36449000D03*
X90373200Y-37719000D03*
X90373200Y-38989000D03*
X90373200Y-40259000D03*
X90373200Y-41529000D03*
D16*
X101189000Y-44704000D02*
X104902000Y-44704000D01*
X94970600Y-32639000D02*
X95554800Y-32639000D01*
X91678590Y-29346990D02*
X94970600Y-32639000D01*
X84408783Y-29346990D02*
X91678590Y-29346990D01*
X83702990Y-30052783D02*
X84408783Y-29346990D01*
X83702990Y-38381217D02*
X83702990Y-30052783D01*
X84328000Y-39006226D02*
X83702990Y-38381217D01*
X84328000Y-40132000D02*
X84328000Y-39006226D01*
X86153001Y-41957001D02*
X84328000Y-40132000D01*
X91821000Y-37719000D02*
X90373200Y-37719000D01*
X91824101Y-37715899D02*
X91821000Y-37719000D01*
X91824101Y-35442097D02*
X91824101Y-37715899D01*
X94627198Y-32639000D02*
X91824101Y-35442097D01*
X95554800Y-32639000D02*
X94627198Y-32639000D01*
X107031000Y-32179500D02*
X107109500Y-32258000D01*
X107031000Y-30226000D02*
X107031000Y-32179500D01*
X107109500Y-34114500D02*
X106934000Y-34290000D01*
X107109500Y-32258000D02*
X107109500Y-34114500D01*
X106934000Y-34290000D02*
X106934000Y-36322000D01*
X106934000Y-36322000D02*
X106934000Y-38354000D01*
X106934000Y-40386000D02*
X106934000Y-38354000D01*
X106934000Y-42515000D02*
X106777000Y-42672000D01*
X106934000Y-40386000D02*
X106934000Y-42515000D01*
X106777000Y-42672000D02*
X106777000Y-44704000D01*
X95554800Y-31300974D02*
X98915774Y-27940000D01*
X95554800Y-32639000D02*
X95554800Y-31300974D01*
X107031000Y-29426000D02*
X107031000Y-30226000D01*
X105545000Y-27940000D02*
X107031000Y-29426000D01*
X98915774Y-27940000D02*
X105545000Y-27940000D01*
X101189000Y-42672000D02*
X104902000Y-42672000D01*
X101189000Y-40386000D02*
X105059000Y-40386000D01*
X101189000Y-38354000D02*
X105059000Y-38354000D01*
X101189000Y-36322000D02*
X105059000Y-36322000D01*
X101189000Y-34290000D02*
X105059000Y-34290000D01*
X101189000Y-32258000D02*
X105664000Y-32258000D01*
X105664000Y-32258000D02*
X105234500Y-32258000D01*
X101189000Y-30226000D02*
X105156000Y-30226000D01*
X89535000Y-35179000D02*
X90373200Y-35179000D01*
X86153001Y-31797001D02*
X89535000Y-35179000D01*
X88265000Y-36449000D02*
X90373200Y-36449000D01*
X86153001Y-34337001D02*
X88265000Y-36449000D01*
X88265000Y-38989000D02*
X90373200Y-38989000D01*
X86153001Y-36877001D02*
X88265000Y-38989000D01*
X88265000Y-41529000D02*
X90373200Y-41529000D01*
X86153001Y-39417001D02*
X88265000Y-41529000D01*
X91824101Y-33385701D02*
X91300802Y-33909000D01*
X91824101Y-31892299D02*
X91824101Y-33385701D01*
X90278802Y-30347000D02*
X91824101Y-31892299D01*
X84823000Y-30347000D02*
X90278802Y-30347000D01*
X91300802Y-33909000D02*
X90373200Y-33909000D01*
X84703000Y-30467000D02*
X84823000Y-30347000D01*
X84703000Y-37967000D02*
X84703000Y-30467000D01*
X86153001Y-39417001D02*
X84703000Y-37967000D01*
X98726500Y-44704000D02*
X99314000Y-44704000D01*
X96469100Y-44704000D02*
X98726500Y-44704000D01*
X92024100Y-40259000D02*
X96469100Y-44704000D01*
X90373200Y-40259000D02*
X92024100Y-40259000D01*
X98171000Y-41529000D02*
X99314000Y-42672000D01*
X95554800Y-41529000D02*
X98171000Y-41529000D01*
X99187000Y-40259000D02*
X99314000Y-40386000D01*
X95554800Y-40259000D02*
X99187000Y-40259000D01*
X98679000Y-38989000D02*
X99314000Y-38354000D01*
X95554800Y-38989000D02*
X98679000Y-38989000D01*
X97917000Y-37719000D02*
X99314000Y-36322000D01*
X95554800Y-37719000D02*
X97917000Y-37719000D01*
X97155000Y-36449000D02*
X99314000Y-34290000D01*
X95554800Y-36449000D02*
X97155000Y-36449000D01*
X98028010Y-33777619D02*
X98028010Y-32258000D01*
X95554800Y-35179000D02*
X96626629Y-35179000D01*
X96626629Y-35179000D02*
X98028010Y-33777619D01*
X98028010Y-32258000D02*
X99314000Y-32258000D01*
X96482402Y-33909000D02*
X97028000Y-33363402D01*
X95554800Y-33909000D02*
X96482402Y-33909000D01*
X97028000Y-33363402D02*
X97028000Y-31242000D01*
X98044000Y-30226000D02*
X99314000Y-30226000D01*
X97028000Y-31242000D02*
X98044000Y-30226000D01*
D17*
G36*
X108560000Y-48108000D02*
G01*
X96228715Y-48108000D01*
X96228715Y-45712651D01*
X96266205Y-45724024D01*
X96418262Y-45739000D01*
X96418271Y-45739000D01*
X96469099Y-45744006D01*
X96519927Y-45739000D01*
X98409948Y-45739000D01*
X98446708Y-45783792D01*
X98580336Y-45893458D01*
X98732791Y-45974947D01*
X98898215Y-46025128D01*
X99070250Y-46042072D01*
X99557750Y-46042072D01*
X99729785Y-46025128D01*
X99895209Y-45974947D01*
X100047664Y-45893458D01*
X100181292Y-45783792D01*
X100251500Y-45698244D01*
X100321708Y-45783792D01*
X100455336Y-45893458D01*
X100607791Y-45974947D01*
X100773215Y-46025128D01*
X100945250Y-46042072D01*
X101432750Y-46042072D01*
X101604785Y-46025128D01*
X101770209Y-45974947D01*
X101922664Y-45893458D01*
X102056292Y-45783792D01*
X102093052Y-45739000D01*
X103997948Y-45739000D01*
X104034708Y-45783792D01*
X104168336Y-45893458D01*
X104320791Y-45974947D01*
X104486215Y-46025128D01*
X104658250Y-46042072D01*
X105145750Y-46042072D01*
X105317785Y-46025128D01*
X105483209Y-45974947D01*
X105635664Y-45893458D01*
X105769292Y-45783792D01*
X105774508Y-45777436D01*
X105838315Y-45855185D01*
X105935006Y-45934537D01*
X106045320Y-45993502D01*
X106165018Y-46029812D01*
X106289500Y-46042072D01*
X106491250Y-46039000D01*
X106650000Y-45880250D01*
X106650000Y-44831000D01*
X106904000Y-44831000D01*
X106904000Y-45880250D01*
X107062750Y-46039000D01*
X107264500Y-46042072D01*
X107388982Y-46029812D01*
X107508680Y-45993502D01*
X107618994Y-45934537D01*
X107715685Y-45855185D01*
X107795037Y-45758494D01*
X107854002Y-45648180D01*
X107890312Y-45528482D01*
X107902572Y-45404000D01*
X107899500Y-44989750D01*
X107740750Y-44831000D01*
X106904000Y-44831000D01*
X106650000Y-44831000D01*
X106630000Y-44831000D01*
X106630000Y-44577000D01*
X106650000Y-44577000D01*
X106650000Y-42799000D01*
X106904000Y-42799000D01*
X106904000Y-44577000D01*
X107740750Y-44577000D01*
X107899500Y-44418250D01*
X107902572Y-44004000D01*
X107890312Y-43879518D01*
X107854002Y-43759820D01*
X107815613Y-43688000D01*
X107854002Y-43616180D01*
X107890312Y-43496482D01*
X107902572Y-43372000D01*
X107899500Y-42957750D01*
X107740750Y-42799000D01*
X106904000Y-42799000D01*
X106650000Y-42799000D01*
X106630000Y-42799000D01*
X106630000Y-42545000D01*
X106650000Y-42545000D01*
X106650000Y-42525000D01*
X106904000Y-42525000D01*
X106904000Y-42545000D01*
X107740750Y-42545000D01*
X107899500Y-42386250D01*
X107902572Y-41972000D01*
X107890312Y-41847518D01*
X107854002Y-41727820D01*
X107795037Y-41617506D01*
X107786898Y-41607588D01*
X107872685Y-41537185D01*
X107952037Y-41440494D01*
X108011002Y-41330180D01*
X108047312Y-41210482D01*
X108059572Y-41086000D01*
X108056500Y-40671750D01*
X107897750Y-40513000D01*
X107061000Y-40513000D01*
X107061000Y-40533000D01*
X106807000Y-40533000D01*
X106807000Y-40513000D01*
X106787000Y-40513000D01*
X106787000Y-40259000D01*
X106807000Y-40259000D01*
X106807000Y-38481000D01*
X107061000Y-38481000D01*
X107061000Y-40259000D01*
X107897750Y-40259000D01*
X108056500Y-40100250D01*
X108059572Y-39686000D01*
X108047312Y-39561518D01*
X108011002Y-39441820D01*
X107972613Y-39370000D01*
X108011002Y-39298180D01*
X108047312Y-39178482D01*
X108059572Y-39054000D01*
X108056500Y-38639750D01*
X107897750Y-38481000D01*
X107061000Y-38481000D01*
X106807000Y-38481000D01*
X106787000Y-38481000D01*
X106787000Y-38227000D01*
X106807000Y-38227000D01*
X106807000Y-36449000D01*
X107061000Y-36449000D01*
X107061000Y-38227000D01*
X107897750Y-38227000D01*
X108056500Y-38068250D01*
X108059572Y-37654000D01*
X108047312Y-37529518D01*
X108011002Y-37409820D01*
X107972613Y-37338000D01*
X108011002Y-37266180D01*
X108047312Y-37146482D01*
X108059572Y-37022000D01*
X108056500Y-36607750D01*
X107897750Y-36449000D01*
X107061000Y-36449000D01*
X106807000Y-36449000D01*
X106787000Y-36449000D01*
X106787000Y-36195000D01*
X106807000Y-36195000D01*
X106807000Y-34417000D01*
X107061000Y-34417000D01*
X107061000Y-36195000D01*
X107897750Y-36195000D01*
X108056500Y-36036250D01*
X108059572Y-35622000D01*
X108047312Y-35497518D01*
X108011002Y-35377820D01*
X107972613Y-35306000D01*
X108011002Y-35234180D01*
X108047312Y-35114482D01*
X108059572Y-34990000D01*
X108056500Y-34575750D01*
X107897750Y-34417000D01*
X107061000Y-34417000D01*
X106807000Y-34417000D01*
X106787000Y-34417000D01*
X106787000Y-34163000D01*
X106807000Y-34163000D01*
X106807000Y-34143000D01*
X107061000Y-34143000D01*
X107061000Y-34163000D01*
X107897750Y-34163000D01*
X108056500Y-34004250D01*
X108059572Y-33590000D01*
X108047312Y-33465518D01*
X108033804Y-33420987D01*
X108048185Y-33409185D01*
X108127537Y-33312494D01*
X108186502Y-33202180D01*
X108222812Y-33082482D01*
X108235072Y-32958000D01*
X108232000Y-32543750D01*
X108073250Y-32385000D01*
X107236500Y-32385000D01*
X107236500Y-32405000D01*
X106982500Y-32405000D01*
X106982500Y-32385000D01*
X106962500Y-32385000D01*
X106962500Y-32131000D01*
X106982500Y-32131000D01*
X106982500Y-31081750D01*
X106904000Y-31003250D01*
X106904000Y-30353000D01*
X107158000Y-30353000D01*
X107158000Y-31402250D01*
X107236500Y-31480750D01*
X107236500Y-32131000D01*
X108073250Y-32131000D01*
X108232000Y-31972250D01*
X108235072Y-31558000D01*
X108222812Y-31433518D01*
X108186502Y-31313820D01*
X108127537Y-31203506D01*
X108104920Y-31175947D01*
X108108002Y-31170180D01*
X108144312Y-31050482D01*
X108156572Y-30926000D01*
X108153500Y-30511750D01*
X107994750Y-30353000D01*
X107158000Y-30353000D01*
X106904000Y-30353000D01*
X106884000Y-30353000D01*
X106884000Y-30099000D01*
X106904000Y-30099000D01*
X106904000Y-29049750D01*
X107158000Y-29049750D01*
X107158000Y-30099000D01*
X107994750Y-30099000D01*
X108153500Y-29940250D01*
X108156572Y-29526000D01*
X108144312Y-29401518D01*
X108108002Y-29281820D01*
X108049037Y-29171506D01*
X107969685Y-29074815D01*
X107872994Y-28995463D01*
X107762680Y-28936498D01*
X107642982Y-28900188D01*
X107518500Y-28887928D01*
X107316750Y-28891000D01*
X107158000Y-29049750D01*
X106904000Y-29049750D01*
X106745250Y-28891000D01*
X106543500Y-28887928D01*
X106419018Y-28900188D01*
X106299320Y-28936498D01*
X106189006Y-28995463D01*
X106092315Y-29074815D01*
X106028508Y-29152564D01*
X106023292Y-29146208D01*
X105889664Y-29036542D01*
X105737209Y-28955053D01*
X105571785Y-28904872D01*
X105399750Y-28887928D01*
X104912250Y-28887928D01*
X104740215Y-28904872D01*
X104574791Y-28955053D01*
X104422336Y-29036542D01*
X104288708Y-29146208D01*
X104251948Y-29191000D01*
X102093052Y-29191000D01*
X102056292Y-29146208D01*
X101922664Y-29036542D01*
X101770209Y-28955053D01*
X101604785Y-28904872D01*
X101432750Y-28887928D01*
X100945250Y-28887928D01*
X100773215Y-28904872D01*
X100607791Y-28955053D01*
X100455336Y-29036542D01*
X100321708Y-29146208D01*
X100251500Y-29231756D01*
X100181292Y-29146208D01*
X100047664Y-29036542D01*
X99895209Y-28955053D01*
X99729785Y-28904872D01*
X99557750Y-28887928D01*
X99070250Y-28887928D01*
X98898215Y-28904872D01*
X98732791Y-28955053D01*
X98580336Y-29036542D01*
X98446708Y-29146208D01*
X98409948Y-29191000D01*
X98094835Y-29191000D01*
X98044000Y-29185993D01*
X97993164Y-29191000D01*
X97993162Y-29191000D01*
X97841105Y-29205976D01*
X97646007Y-29265159D01*
X97567741Y-29306993D01*
X97466202Y-29361266D01*
X97361765Y-29446976D01*
X97308604Y-29490604D01*
X97276197Y-29530092D01*
X96332092Y-30474198D01*
X96292605Y-30506604D01*
X96260198Y-30546092D01*
X96260197Y-30546093D01*
X96163266Y-30664203D01*
X96067160Y-30844007D01*
X96007977Y-31039105D01*
X95987994Y-31242000D01*
X95993001Y-31292838D01*
X95993001Y-31736469D01*
X95840550Y-31737300D01*
X95681800Y-31896050D01*
X95681800Y-32512000D01*
X95701800Y-32512000D01*
X95701800Y-32766000D01*
X95681800Y-32766000D01*
X95681800Y-32786000D01*
X95427800Y-32786000D01*
X95427800Y-32766000D01*
X94227650Y-32766000D01*
X94068900Y-32924750D01*
X94079124Y-33035279D01*
X94116408Y-33154677D01*
X94176270Y-33264507D01*
X94184444Y-33274303D01*
X94173363Y-33287806D01*
X94114398Y-33398120D01*
X94078088Y-33517818D01*
X94065828Y-33642300D01*
X94065828Y-34175700D01*
X94078088Y-34300182D01*
X94114398Y-34419880D01*
X94173363Y-34530194D01*
X94184693Y-34544000D01*
X94173363Y-34557806D01*
X94114398Y-34668120D01*
X94078088Y-34787818D01*
X94065828Y-34912300D01*
X94065828Y-35445700D01*
X94078088Y-35570182D01*
X94114398Y-35689880D01*
X94173363Y-35800194D01*
X94184693Y-35814000D01*
X94173363Y-35827806D01*
X94114398Y-35938120D01*
X94078088Y-36057818D01*
X94065828Y-36182300D01*
X94065828Y-36715700D01*
X94078088Y-36840182D01*
X94114398Y-36959880D01*
X94173363Y-37070194D01*
X94184693Y-37084000D01*
X94173363Y-37097806D01*
X94114398Y-37208120D01*
X94078088Y-37327818D01*
X94065828Y-37452300D01*
X94065828Y-37985700D01*
X94078088Y-38110182D01*
X94114398Y-38229880D01*
X94173363Y-38340194D01*
X94184693Y-38354000D01*
X94173363Y-38367806D01*
X94114398Y-38478120D01*
X94078088Y-38597818D01*
X94065828Y-38722300D01*
X94065828Y-39255700D01*
X94078088Y-39380182D01*
X94114398Y-39499880D01*
X94173363Y-39610194D01*
X94184693Y-39624000D01*
X94173363Y-39637806D01*
X94114398Y-39748120D01*
X94078088Y-39867818D01*
X94065828Y-39992300D01*
X94065828Y-40525700D01*
X94078088Y-40650182D01*
X94114398Y-40769880D01*
X94173363Y-40880194D01*
X94184693Y-40894000D01*
X94173363Y-40907806D01*
X94160563Y-40931753D01*
X92791907Y-39563097D01*
X92759496Y-39523604D01*
X92601897Y-39394266D01*
X92422093Y-39298159D01*
X92226995Y-39238976D01*
X92074938Y-39224000D01*
X92074928Y-39224000D01*
X92024100Y-39218994D01*
X91973272Y-39224000D01*
X91862172Y-39224000D01*
X91862172Y-38722300D01*
X91849912Y-38597818D01*
X91813602Y-38478120D01*
X91754637Y-38367806D01*
X91743556Y-38354303D01*
X91751730Y-38344507D01*
X91811592Y-38234677D01*
X91848876Y-38115279D01*
X91859100Y-38004750D01*
X91700350Y-37846000D01*
X90500200Y-37846000D01*
X90500200Y-37866000D01*
X90246200Y-37866000D01*
X90246200Y-37846000D01*
X89046050Y-37846000D01*
X88938050Y-37954000D01*
X88693711Y-37954000D01*
X88224754Y-37485043D01*
X88265000Y-37489007D01*
X88315835Y-37484000D01*
X88938050Y-37484000D01*
X89046050Y-37592000D01*
X90246200Y-37592000D01*
X90246200Y-37572000D01*
X90500200Y-37572000D01*
X90500200Y-37592000D01*
X91700350Y-37592000D01*
X91859100Y-37433250D01*
X91848876Y-37322721D01*
X91811592Y-37203323D01*
X91751730Y-37093493D01*
X91743556Y-37083697D01*
X91754637Y-37070194D01*
X91813602Y-36959880D01*
X91849912Y-36840182D01*
X91862172Y-36715700D01*
X91862172Y-36182300D01*
X91849912Y-36057818D01*
X91813602Y-35938120D01*
X91754637Y-35827806D01*
X91743307Y-35814000D01*
X91754637Y-35800194D01*
X91813602Y-35689880D01*
X91849912Y-35570182D01*
X91862172Y-35445700D01*
X91862172Y-34912300D01*
X91850029Y-34789005D01*
X91878599Y-34773734D01*
X92036198Y-34644396D01*
X92068609Y-34604903D01*
X92520004Y-34153508D01*
X92559497Y-34121097D01*
X92688835Y-33963498D01*
X92761016Y-33828457D01*
X92784942Y-33783695D01*
X92806629Y-33712203D01*
X92844125Y-33588596D01*
X92859101Y-33436539D01*
X92859101Y-33436536D01*
X92864108Y-33385701D01*
X92859101Y-33334866D01*
X92859101Y-32353250D01*
X94068900Y-32353250D01*
X94227650Y-32512000D01*
X95427800Y-32512000D01*
X95427800Y-31896050D01*
X95269050Y-31737300D01*
X94709102Y-31734249D01*
X94584524Y-31745494D01*
X94464534Y-31780827D01*
X94353743Y-31838890D01*
X94256408Y-31917452D01*
X94176270Y-32013493D01*
X94116408Y-32123323D01*
X94079124Y-32242721D01*
X94068900Y-32353250D01*
X92859101Y-32353250D01*
X92859101Y-31943134D01*
X92864108Y-31892299D01*
X92856967Y-31819797D01*
X92844125Y-31689404D01*
X92784942Y-31494306D01*
X92730935Y-31393266D01*
X92688835Y-31314501D01*
X92591904Y-31196391D01*
X92559497Y-31156903D01*
X92520009Y-31124496D01*
X91046609Y-29651097D01*
X91014198Y-29611604D01*
X90856599Y-29482266D01*
X90676795Y-29386159D01*
X90481697Y-29326976D01*
X90329640Y-29312000D01*
X90329630Y-29312000D01*
X90278802Y-29306994D01*
X90227974Y-29312000D01*
X84873835Y-29312000D01*
X84823000Y-29306993D01*
X84772165Y-29312000D01*
X84772162Y-29312000D01*
X84620105Y-29326976D01*
X84425007Y-29386159D01*
X84245203Y-29482266D01*
X84087604Y-29611604D01*
X84055193Y-29651097D01*
X84007093Y-29699197D01*
X83967605Y-29731604D01*
X83935198Y-29771092D01*
X83935197Y-29771093D01*
X83838266Y-29889203D01*
X83742160Y-30069007D01*
X83682977Y-30264105D01*
X83662994Y-30467000D01*
X83668001Y-30517838D01*
X83668000Y-37916172D01*
X83662994Y-37967000D01*
X83668000Y-38017828D01*
X83668000Y-38017837D01*
X83682976Y-38169894D01*
X83742159Y-38364992D01*
X83838266Y-38544797D01*
X83967604Y-38702396D01*
X84007097Y-38734807D01*
X84663369Y-39391080D01*
X84660816Y-39417001D01*
X84689488Y-39708112D01*
X84774402Y-39988035D01*
X84912295Y-40246015D01*
X85097867Y-40472135D01*
X85323987Y-40657707D01*
X85388524Y-40692202D01*
X85271646Y-40761823D01*
X85055413Y-40956732D01*
X84881360Y-41190081D01*
X84756176Y-41452902D01*
X84711525Y-41600111D01*
X84832846Y-41830001D01*
X86026001Y-41830001D01*
X86026001Y-41810001D01*
X86280001Y-41810001D01*
X86280001Y-41830001D01*
X86300001Y-41830001D01*
X86300001Y-42084001D01*
X86280001Y-42084001D01*
X86280001Y-43277815D01*
X86509892Y-43398482D01*
X86784253Y-43301158D01*
X87034356Y-43152179D01*
X87250589Y-42957270D01*
X87424642Y-42723921D01*
X87549826Y-42461100D01*
X87593567Y-42316890D01*
X87687202Y-42393734D01*
X87739172Y-42421512D01*
X87867007Y-42489841D01*
X88062105Y-42549024D01*
X88214162Y-42564000D01*
X88214165Y-42564000D01*
X88265000Y-42569007D01*
X88315835Y-42564000D01*
X90424038Y-42564000D01*
X90576095Y-42549024D01*
X90771193Y-42489841D01*
X90876091Y-42433772D01*
X91224100Y-42433772D01*
X91348582Y-42421512D01*
X91468280Y-42385202D01*
X91578594Y-42326237D01*
X91675285Y-42246885D01*
X91754637Y-42150194D01*
X91813602Y-42039880D01*
X91849912Y-41920182D01*
X91862172Y-41795700D01*
X91862172Y-41560782D01*
X95247389Y-44946000D01*
X82587286Y-44946000D01*
X82587286Y-48108000D01*
X81686000Y-48108000D01*
X81686000Y-42313891D01*
X84711525Y-42313891D01*
X84756176Y-42461100D01*
X84881360Y-42723921D01*
X85055413Y-42957270D01*
X85271646Y-43152179D01*
X85521749Y-43301158D01*
X85796110Y-43398482D01*
X86026001Y-43277815D01*
X86026001Y-42084001D01*
X84832846Y-42084001D01*
X84711525Y-42313891D01*
X81686000Y-42313891D01*
X81686000Y-26060000D01*
X108560001Y-26060000D01*
X108560000Y-48108000D01*
X108560000Y-48108000D01*
G37*
X108560000Y-48108000D02*
X96228715Y-48108000D01*
X96228715Y-45712651D01*
X96266205Y-45724024D01*
X96418262Y-45739000D01*
X96418271Y-45739000D01*
X96469099Y-45744006D01*
X96519927Y-45739000D01*
X98409948Y-45739000D01*
X98446708Y-45783792D01*
X98580336Y-45893458D01*
X98732791Y-45974947D01*
X98898215Y-46025128D01*
X99070250Y-46042072D01*
X99557750Y-46042072D01*
X99729785Y-46025128D01*
X99895209Y-45974947D01*
X100047664Y-45893458D01*
X100181292Y-45783792D01*
X100251500Y-45698244D01*
X100321708Y-45783792D01*
X100455336Y-45893458D01*
X100607791Y-45974947D01*
X100773215Y-46025128D01*
X100945250Y-46042072D01*
X101432750Y-46042072D01*
X101604785Y-46025128D01*
X101770209Y-45974947D01*
X101922664Y-45893458D01*
X102056292Y-45783792D01*
X102093052Y-45739000D01*
X103997948Y-45739000D01*
X104034708Y-45783792D01*
X104168336Y-45893458D01*
X104320791Y-45974947D01*
X104486215Y-46025128D01*
X104658250Y-46042072D01*
X105145750Y-46042072D01*
X105317785Y-46025128D01*
X105483209Y-45974947D01*
X105635664Y-45893458D01*
X105769292Y-45783792D01*
X105774508Y-45777436D01*
X105838315Y-45855185D01*
X105935006Y-45934537D01*
X106045320Y-45993502D01*
X106165018Y-46029812D01*
X106289500Y-46042072D01*
X106491250Y-46039000D01*
X106650000Y-45880250D01*
X106650000Y-44831000D01*
X106904000Y-44831000D01*
X106904000Y-45880250D01*
X107062750Y-46039000D01*
X107264500Y-46042072D01*
X107388982Y-46029812D01*
X107508680Y-45993502D01*
X107618994Y-45934537D01*
X107715685Y-45855185D01*
X107795037Y-45758494D01*
X107854002Y-45648180D01*
X107890312Y-45528482D01*
X107902572Y-45404000D01*
X107899500Y-44989750D01*
X107740750Y-44831000D01*
X106904000Y-44831000D01*
X106650000Y-44831000D01*
X106630000Y-44831000D01*
X106630000Y-44577000D01*
X106650000Y-44577000D01*
X106650000Y-42799000D01*
X106904000Y-42799000D01*
X106904000Y-44577000D01*
X107740750Y-44577000D01*
X107899500Y-44418250D01*
X107902572Y-44004000D01*
X107890312Y-43879518D01*
X107854002Y-43759820D01*
X107815613Y-43688000D01*
X107854002Y-43616180D01*
X107890312Y-43496482D01*
X107902572Y-43372000D01*
X107899500Y-42957750D01*
X107740750Y-42799000D01*
X106904000Y-42799000D01*
X106650000Y-42799000D01*
X106630000Y-42799000D01*
X106630000Y-42545000D01*
X106650000Y-42545000D01*
X106650000Y-42525000D01*
X106904000Y-42525000D01*
X106904000Y-42545000D01*
X107740750Y-42545000D01*
X107899500Y-42386250D01*
X107902572Y-41972000D01*
X107890312Y-41847518D01*
X107854002Y-41727820D01*
X107795037Y-41617506D01*
X107786898Y-41607588D01*
X107872685Y-41537185D01*
X107952037Y-41440494D01*
X108011002Y-41330180D01*
X108047312Y-41210482D01*
X108059572Y-41086000D01*
X108056500Y-40671750D01*
X107897750Y-40513000D01*
X107061000Y-40513000D01*
X107061000Y-40533000D01*
X106807000Y-40533000D01*
X106807000Y-40513000D01*
X106787000Y-40513000D01*
X106787000Y-40259000D01*
X106807000Y-40259000D01*
X106807000Y-38481000D01*
X107061000Y-38481000D01*
X107061000Y-40259000D01*
X107897750Y-40259000D01*
X108056500Y-40100250D01*
X108059572Y-39686000D01*
X108047312Y-39561518D01*
X108011002Y-39441820D01*
X107972613Y-39370000D01*
X108011002Y-39298180D01*
X108047312Y-39178482D01*
X108059572Y-39054000D01*
X108056500Y-38639750D01*
X107897750Y-38481000D01*
X107061000Y-38481000D01*
X106807000Y-38481000D01*
X106787000Y-38481000D01*
X106787000Y-38227000D01*
X106807000Y-38227000D01*
X106807000Y-36449000D01*
X107061000Y-36449000D01*
X107061000Y-38227000D01*
X107897750Y-38227000D01*
X108056500Y-38068250D01*
X108059572Y-37654000D01*
X108047312Y-37529518D01*
X108011002Y-37409820D01*
X107972613Y-37338000D01*
X108011002Y-37266180D01*
X108047312Y-37146482D01*
X108059572Y-37022000D01*
X108056500Y-36607750D01*
X107897750Y-36449000D01*
X107061000Y-36449000D01*
X106807000Y-36449000D01*
X106787000Y-36449000D01*
X106787000Y-36195000D01*
X106807000Y-36195000D01*
X106807000Y-34417000D01*
X107061000Y-34417000D01*
X107061000Y-36195000D01*
X107897750Y-36195000D01*
X108056500Y-36036250D01*
X108059572Y-35622000D01*
X108047312Y-35497518D01*
X108011002Y-35377820D01*
X107972613Y-35306000D01*
X108011002Y-35234180D01*
X108047312Y-35114482D01*
X108059572Y-34990000D01*
X108056500Y-34575750D01*
X107897750Y-34417000D01*
X107061000Y-34417000D01*
X106807000Y-34417000D01*
X106787000Y-34417000D01*
X106787000Y-34163000D01*
X106807000Y-34163000D01*
X106807000Y-34143000D01*
X107061000Y-34143000D01*
X107061000Y-34163000D01*
X107897750Y-34163000D01*
X108056500Y-34004250D01*
X108059572Y-33590000D01*
X108047312Y-33465518D01*
X108033804Y-33420987D01*
X108048185Y-33409185D01*
X108127537Y-33312494D01*
X108186502Y-33202180D01*
X108222812Y-33082482D01*
X108235072Y-32958000D01*
X108232000Y-32543750D01*
X108073250Y-32385000D01*
X107236500Y-32385000D01*
X107236500Y-32405000D01*
X106982500Y-32405000D01*
X106982500Y-32385000D01*
X106962500Y-32385000D01*
X106962500Y-32131000D01*
X106982500Y-32131000D01*
X106982500Y-31081750D01*
X106904000Y-31003250D01*
X106904000Y-30353000D01*
X107158000Y-30353000D01*
X107158000Y-31402250D01*
X107236500Y-31480750D01*
X107236500Y-32131000D01*
X108073250Y-32131000D01*
X108232000Y-31972250D01*
X108235072Y-31558000D01*
X108222812Y-31433518D01*
X108186502Y-31313820D01*
X108127537Y-31203506D01*
X108104920Y-31175947D01*
X108108002Y-31170180D01*
X108144312Y-31050482D01*
X108156572Y-30926000D01*
X108153500Y-30511750D01*
X107994750Y-30353000D01*
X107158000Y-30353000D01*
X106904000Y-30353000D01*
X106884000Y-30353000D01*
X106884000Y-30099000D01*
X106904000Y-30099000D01*
X106904000Y-29049750D01*
X107158000Y-29049750D01*
X107158000Y-30099000D01*
X107994750Y-30099000D01*
X108153500Y-29940250D01*
X108156572Y-29526000D01*
X108144312Y-29401518D01*
X108108002Y-29281820D01*
X108049037Y-29171506D01*
X107969685Y-29074815D01*
X107872994Y-28995463D01*
X107762680Y-28936498D01*
X107642982Y-28900188D01*
X107518500Y-28887928D01*
X107316750Y-28891000D01*
X107158000Y-29049750D01*
X106904000Y-29049750D01*
X106745250Y-28891000D01*
X106543500Y-28887928D01*
X106419018Y-28900188D01*
X106299320Y-28936498D01*
X106189006Y-28995463D01*
X106092315Y-29074815D01*
X106028508Y-29152564D01*
X106023292Y-29146208D01*
X105889664Y-29036542D01*
X105737209Y-28955053D01*
X105571785Y-28904872D01*
X105399750Y-28887928D01*
X104912250Y-28887928D01*
X104740215Y-28904872D01*
X104574791Y-28955053D01*
X104422336Y-29036542D01*
X104288708Y-29146208D01*
X104251948Y-29191000D01*
X102093052Y-29191000D01*
X102056292Y-29146208D01*
X101922664Y-29036542D01*
X101770209Y-28955053D01*
X101604785Y-28904872D01*
X101432750Y-28887928D01*
X100945250Y-28887928D01*
X100773215Y-28904872D01*
X100607791Y-28955053D01*
X100455336Y-29036542D01*
X100321708Y-29146208D01*
X100251500Y-29231756D01*
X100181292Y-29146208D01*
X100047664Y-29036542D01*
X99895209Y-28955053D01*
X99729785Y-28904872D01*
X99557750Y-28887928D01*
X99070250Y-28887928D01*
X98898215Y-28904872D01*
X98732791Y-28955053D01*
X98580336Y-29036542D01*
X98446708Y-29146208D01*
X98409948Y-29191000D01*
X98094835Y-29191000D01*
X98044000Y-29185993D01*
X97993164Y-29191000D01*
X97993162Y-29191000D01*
X97841105Y-29205976D01*
X97646007Y-29265159D01*
X97567741Y-29306993D01*
X97466202Y-29361266D01*
X97361765Y-29446976D01*
X97308604Y-29490604D01*
X97276197Y-29530092D01*
X96332092Y-30474198D01*
X96292605Y-30506604D01*
X96260198Y-30546092D01*
X96260197Y-30546093D01*
X96163266Y-30664203D01*
X96067160Y-30844007D01*
X96007977Y-31039105D01*
X95987994Y-31242000D01*
X95993001Y-31292838D01*
X95993001Y-31736469D01*
X95840550Y-31737300D01*
X95681800Y-31896050D01*
X95681800Y-32512000D01*
X95701800Y-32512000D01*
X95701800Y-32766000D01*
X95681800Y-32766000D01*
X95681800Y-32786000D01*
X95427800Y-32786000D01*
X95427800Y-32766000D01*
X94227650Y-32766000D01*
X94068900Y-32924750D01*
X94079124Y-33035279D01*
X94116408Y-33154677D01*
X94176270Y-33264507D01*
X94184444Y-33274303D01*
X94173363Y-33287806D01*
X94114398Y-33398120D01*
X94078088Y-33517818D01*
X94065828Y-33642300D01*
X94065828Y-34175700D01*
X94078088Y-34300182D01*
X94114398Y-34419880D01*
X94173363Y-34530194D01*
X94184693Y-34544000D01*
X94173363Y-34557806D01*
X94114398Y-34668120D01*
X94078088Y-34787818D01*
X94065828Y-34912300D01*
X94065828Y-35445700D01*
X94078088Y-35570182D01*
X94114398Y-35689880D01*
X94173363Y-35800194D01*
X94184693Y-35814000D01*
X94173363Y-35827806D01*
X94114398Y-35938120D01*
X94078088Y-36057818D01*
X94065828Y-36182300D01*
X94065828Y-36715700D01*
X94078088Y-36840182D01*
X94114398Y-36959880D01*
X94173363Y-37070194D01*
X94184693Y-37084000D01*
X94173363Y-37097806D01*
X94114398Y-37208120D01*
X94078088Y-37327818D01*
X94065828Y-37452300D01*
X94065828Y-37985700D01*
X94078088Y-38110182D01*
X94114398Y-38229880D01*
X94173363Y-38340194D01*
X94184693Y-38354000D01*
X94173363Y-38367806D01*
X94114398Y-38478120D01*
X94078088Y-38597818D01*
X94065828Y-38722300D01*
X94065828Y-39255700D01*
X94078088Y-39380182D01*
X94114398Y-39499880D01*
X94173363Y-39610194D01*
X94184693Y-39624000D01*
X94173363Y-39637806D01*
X94114398Y-39748120D01*
X94078088Y-39867818D01*
X94065828Y-39992300D01*
X94065828Y-40525700D01*
X94078088Y-40650182D01*
X94114398Y-40769880D01*
X94173363Y-40880194D01*
X94184693Y-40894000D01*
X94173363Y-40907806D01*
X94160563Y-40931753D01*
X92791907Y-39563097D01*
X92759496Y-39523604D01*
X92601897Y-39394266D01*
X92422093Y-39298159D01*
X92226995Y-39238976D01*
X92074938Y-39224000D01*
X92074928Y-39224000D01*
X92024100Y-39218994D01*
X91973272Y-39224000D01*
X91862172Y-39224000D01*
X91862172Y-38722300D01*
X91849912Y-38597818D01*
X91813602Y-38478120D01*
X91754637Y-38367806D01*
X91743556Y-38354303D01*
X91751730Y-38344507D01*
X91811592Y-38234677D01*
X91848876Y-38115279D01*
X91859100Y-38004750D01*
X91700350Y-37846000D01*
X90500200Y-37846000D01*
X90500200Y-37866000D01*
X90246200Y-37866000D01*
X90246200Y-37846000D01*
X89046050Y-37846000D01*
X88938050Y-37954000D01*
X88693711Y-37954000D01*
X88224754Y-37485043D01*
X88265000Y-37489007D01*
X88315835Y-37484000D01*
X88938050Y-37484000D01*
X89046050Y-37592000D01*
X90246200Y-37592000D01*
X90246200Y-37572000D01*
X90500200Y-37572000D01*
X90500200Y-37592000D01*
X91700350Y-37592000D01*
X91859100Y-37433250D01*
X91848876Y-37322721D01*
X91811592Y-37203323D01*
X91751730Y-37093493D01*
X91743556Y-37083697D01*
X91754637Y-37070194D01*
X91813602Y-36959880D01*
X91849912Y-36840182D01*
X91862172Y-36715700D01*
X91862172Y-36182300D01*
X91849912Y-36057818D01*
X91813602Y-35938120D01*
X91754637Y-35827806D01*
X91743307Y-35814000D01*
X91754637Y-35800194D01*
X91813602Y-35689880D01*
X91849912Y-35570182D01*
X91862172Y-35445700D01*
X91862172Y-34912300D01*
X91850029Y-34789005D01*
X91878599Y-34773734D01*
X92036198Y-34644396D01*
X92068609Y-34604903D01*
X92520004Y-34153508D01*
X92559497Y-34121097D01*
X92688835Y-33963498D01*
X92761016Y-33828457D01*
X92784942Y-33783695D01*
X92806629Y-33712203D01*
X92844125Y-33588596D01*
X92859101Y-33436539D01*
X92859101Y-33436536D01*
X92864108Y-33385701D01*
X92859101Y-33334866D01*
X92859101Y-32353250D01*
X94068900Y-32353250D01*
X94227650Y-32512000D01*
X95427800Y-32512000D01*
X95427800Y-31896050D01*
X95269050Y-31737300D01*
X94709102Y-31734249D01*
X94584524Y-31745494D01*
X94464534Y-31780827D01*
X94353743Y-31838890D01*
X94256408Y-31917452D01*
X94176270Y-32013493D01*
X94116408Y-32123323D01*
X94079124Y-32242721D01*
X94068900Y-32353250D01*
X92859101Y-32353250D01*
X92859101Y-31943134D01*
X92864108Y-31892299D01*
X92856967Y-31819797D01*
X92844125Y-31689404D01*
X92784942Y-31494306D01*
X92730935Y-31393266D01*
X92688835Y-31314501D01*
X92591904Y-31196391D01*
X92559497Y-31156903D01*
X92520009Y-31124496D01*
X91046609Y-29651097D01*
X91014198Y-29611604D01*
X90856599Y-29482266D01*
X90676795Y-29386159D01*
X90481697Y-29326976D01*
X90329640Y-29312000D01*
X90329630Y-29312000D01*
X90278802Y-29306994D01*
X90227974Y-29312000D01*
X84873835Y-29312000D01*
X84823000Y-29306993D01*
X84772165Y-29312000D01*
X84772162Y-29312000D01*
X84620105Y-29326976D01*
X84425007Y-29386159D01*
X84245203Y-29482266D01*
X84087604Y-29611604D01*
X84055193Y-29651097D01*
X84007093Y-29699197D01*
X83967605Y-29731604D01*
X83935198Y-29771092D01*
X83935197Y-29771093D01*
X83838266Y-29889203D01*
X83742160Y-30069007D01*
X83682977Y-30264105D01*
X83662994Y-30467000D01*
X83668001Y-30517838D01*
X83668000Y-37916172D01*
X83662994Y-37967000D01*
X83668000Y-38017828D01*
X83668000Y-38017837D01*
X83682976Y-38169894D01*
X83742159Y-38364992D01*
X83838266Y-38544797D01*
X83967604Y-38702396D01*
X84007097Y-38734807D01*
X84663369Y-39391080D01*
X84660816Y-39417001D01*
X84689488Y-39708112D01*
X84774402Y-39988035D01*
X84912295Y-40246015D01*
X85097867Y-40472135D01*
X85323987Y-40657707D01*
X85388524Y-40692202D01*
X85271646Y-40761823D01*
X85055413Y-40956732D01*
X84881360Y-41190081D01*
X84756176Y-41452902D01*
X84711525Y-41600111D01*
X84832846Y-41830001D01*
X86026001Y-41830001D01*
X86026001Y-41810001D01*
X86280001Y-41810001D01*
X86280001Y-41830001D01*
X86300001Y-41830001D01*
X86300001Y-42084001D01*
X86280001Y-42084001D01*
X86280001Y-43277815D01*
X86509892Y-43398482D01*
X86784253Y-43301158D01*
X87034356Y-43152179D01*
X87250589Y-42957270D01*
X87424642Y-42723921D01*
X87549826Y-42461100D01*
X87593567Y-42316890D01*
X87687202Y-42393734D01*
X87739172Y-42421512D01*
X87867007Y-42489841D01*
X88062105Y-42549024D01*
X88214162Y-42564000D01*
X88214165Y-42564000D01*
X88265000Y-42569007D01*
X88315835Y-42564000D01*
X90424038Y-42564000D01*
X90576095Y-42549024D01*
X90771193Y-42489841D01*
X90876091Y-42433772D01*
X91224100Y-42433772D01*
X91348582Y-42421512D01*
X91468280Y-42385202D01*
X91578594Y-42326237D01*
X91675285Y-42246885D01*
X91754637Y-42150194D01*
X91813602Y-42039880D01*
X91849912Y-41920182D01*
X91862172Y-41795700D01*
X91862172Y-41560782D01*
X95247389Y-44946000D01*
X82587286Y-44946000D01*
X82587286Y-48108000D01*
X81686000Y-48108000D01*
X81686000Y-42313891D01*
X84711525Y-42313891D01*
X84756176Y-42461100D01*
X84881360Y-42723921D01*
X85055413Y-42957270D01*
X85271646Y-43152179D01*
X85521749Y-43301158D01*
X85796110Y-43398482D01*
X86026001Y-43277815D01*
X86026001Y-42084001D01*
X84832846Y-42084001D01*
X84711525Y-42313891D01*
X81686000Y-42313891D01*
X81686000Y-26060000D01*
X108560001Y-26060000D01*
X108560000Y-48108000D01*
M02*
