G04 #@! TF.GenerationSoftware,KiCad,Pcbnew,(5.1.2)-2*
G04 #@! TF.CreationDate,2019-10-26T09:12:10-10:00*
G04 #@! TF.ProjectId,74HC595N_smd,37344843-3539-4354-9e5f-736d642e6b69,rev?*
G04 #@! TF.SameCoordinates,Original*
G04 #@! TF.FileFunction,Soldermask,Bot*
G04 #@! TF.FilePolarity,Negative*
%FSLAX46Y46*%
G04 Gerber Fmt 4.6, Leading zero omitted, Abs format (unit mm)*
G04 Created by KiCad (PCBNEW (5.1.2)-2) date 2019-10-26 09:12:10*
%MOMM*%
%LPD*%
G04 APERTURE LIST*
%ADD10C,0.100000*%
G04 APERTURE END LIST*
D10*
G36*
X86263444Y-41062520D02*
G01*
X86329628Y-41069038D01*
X86499467Y-41120558D01*
X86655992Y-41204223D01*
X86691730Y-41233553D01*
X86793187Y-41316815D01*
X86876449Y-41418272D01*
X86905779Y-41454010D01*
X86989444Y-41610535D01*
X87040964Y-41780374D01*
X87058360Y-41957001D01*
X87040964Y-42133628D01*
X86989444Y-42303467D01*
X86905779Y-42459992D01*
X86876449Y-42495730D01*
X86793187Y-42597187D01*
X86691730Y-42680449D01*
X86655992Y-42709779D01*
X86499467Y-42793444D01*
X86329628Y-42844964D01*
X86263444Y-42851482D01*
X86197261Y-42858001D01*
X86108741Y-42858001D01*
X86042558Y-42851482D01*
X85976374Y-42844964D01*
X85806535Y-42793444D01*
X85650010Y-42709779D01*
X85614272Y-42680449D01*
X85512815Y-42597187D01*
X85429553Y-42495730D01*
X85400223Y-42459992D01*
X85316558Y-42303467D01*
X85265038Y-42133628D01*
X85247642Y-41957001D01*
X85265038Y-41780374D01*
X85316558Y-41610535D01*
X85400223Y-41454010D01*
X85429553Y-41418272D01*
X85512815Y-41316815D01*
X85614272Y-41233553D01*
X85650010Y-41204223D01*
X85806535Y-41120558D01*
X85976374Y-41069038D01*
X86042558Y-41062520D01*
X86108741Y-41056001D01*
X86197261Y-41056001D01*
X86263444Y-41062520D01*
X86263444Y-41062520D01*
G37*
G36*
X86263443Y-38522519D02*
G01*
X86329628Y-38529038D01*
X86499467Y-38580558D01*
X86655992Y-38664223D01*
X86691730Y-38693553D01*
X86793187Y-38776815D01*
X86876449Y-38878272D01*
X86905779Y-38914010D01*
X86989444Y-39070535D01*
X87040964Y-39240374D01*
X87058360Y-39417001D01*
X87040964Y-39593628D01*
X86989444Y-39763467D01*
X86905779Y-39919992D01*
X86876449Y-39955730D01*
X86793187Y-40057187D01*
X86691730Y-40140449D01*
X86655992Y-40169779D01*
X86499467Y-40253444D01*
X86329628Y-40304964D01*
X86263443Y-40311483D01*
X86197261Y-40318001D01*
X86108741Y-40318001D01*
X86042559Y-40311483D01*
X85976374Y-40304964D01*
X85806535Y-40253444D01*
X85650010Y-40169779D01*
X85614272Y-40140449D01*
X85512815Y-40057187D01*
X85429553Y-39955730D01*
X85400223Y-39919992D01*
X85316558Y-39763467D01*
X85265038Y-39593628D01*
X85247642Y-39417001D01*
X85265038Y-39240374D01*
X85316558Y-39070535D01*
X85400223Y-38914010D01*
X85429553Y-38878272D01*
X85512815Y-38776815D01*
X85614272Y-38693553D01*
X85650010Y-38664223D01*
X85806535Y-38580558D01*
X85976374Y-38529038D01*
X86042559Y-38522519D01*
X86108741Y-38516001D01*
X86197261Y-38516001D01*
X86263443Y-38522519D01*
X86263443Y-38522519D01*
G37*
G36*
X86263443Y-35982519D02*
G01*
X86329628Y-35989038D01*
X86499467Y-36040558D01*
X86655992Y-36124223D01*
X86691730Y-36153553D01*
X86793187Y-36236815D01*
X86876449Y-36338272D01*
X86905779Y-36374010D01*
X86989444Y-36530535D01*
X87040964Y-36700374D01*
X87058360Y-36877001D01*
X87040964Y-37053628D01*
X86989444Y-37223467D01*
X86905779Y-37379992D01*
X86876449Y-37415730D01*
X86793187Y-37517187D01*
X86691730Y-37600449D01*
X86655992Y-37629779D01*
X86499467Y-37713444D01*
X86329628Y-37764964D01*
X86263443Y-37771483D01*
X86197261Y-37778001D01*
X86108741Y-37778001D01*
X86042559Y-37771483D01*
X85976374Y-37764964D01*
X85806535Y-37713444D01*
X85650010Y-37629779D01*
X85614272Y-37600449D01*
X85512815Y-37517187D01*
X85429553Y-37415730D01*
X85400223Y-37379992D01*
X85316558Y-37223467D01*
X85265038Y-37053628D01*
X85247642Y-36877001D01*
X85265038Y-36700374D01*
X85316558Y-36530535D01*
X85400223Y-36374010D01*
X85429553Y-36338272D01*
X85512815Y-36236815D01*
X85614272Y-36153553D01*
X85650010Y-36124223D01*
X85806535Y-36040558D01*
X85976374Y-35989038D01*
X86042559Y-35982519D01*
X86108741Y-35976001D01*
X86197261Y-35976001D01*
X86263443Y-35982519D01*
X86263443Y-35982519D01*
G37*
G36*
X86263443Y-33442519D02*
G01*
X86329628Y-33449038D01*
X86499467Y-33500558D01*
X86655992Y-33584223D01*
X86691730Y-33613553D01*
X86793187Y-33696815D01*
X86876449Y-33798272D01*
X86905779Y-33834010D01*
X86989444Y-33990535D01*
X87040964Y-34160374D01*
X87058360Y-34337001D01*
X87040964Y-34513628D01*
X86989444Y-34683467D01*
X86905779Y-34839992D01*
X86876449Y-34875730D01*
X86793187Y-34977187D01*
X86691730Y-35060449D01*
X86655992Y-35089779D01*
X86499467Y-35173444D01*
X86329628Y-35224964D01*
X86263443Y-35231483D01*
X86197261Y-35238001D01*
X86108741Y-35238001D01*
X86042559Y-35231483D01*
X85976374Y-35224964D01*
X85806535Y-35173444D01*
X85650010Y-35089779D01*
X85614272Y-35060449D01*
X85512815Y-34977187D01*
X85429553Y-34875730D01*
X85400223Y-34839992D01*
X85316558Y-34683467D01*
X85265038Y-34513628D01*
X85247642Y-34337001D01*
X85265038Y-34160374D01*
X85316558Y-33990535D01*
X85400223Y-33834010D01*
X85429553Y-33798272D01*
X85512815Y-33696815D01*
X85614272Y-33613553D01*
X85650010Y-33584223D01*
X85806535Y-33500558D01*
X85976374Y-33449038D01*
X86042559Y-33442519D01*
X86108741Y-33436001D01*
X86197261Y-33436001D01*
X86263443Y-33442519D01*
X86263443Y-33442519D01*
G37*
G36*
X87054001Y-32698001D02*
G01*
X85252001Y-32698001D01*
X85252001Y-30896001D01*
X87054001Y-30896001D01*
X87054001Y-32698001D01*
X87054001Y-32698001D01*
G37*
M02*
