  0
SECTION
  2
HEADER
  9
$ANGBASE
  50
0.0
  9
$ANGDIR
  70
  1
  9
$MEASUREMENT
  70
0
  0
ENDSEC
  0
SECTION
  2
TABLES
  0
TABLE
  2
LTYPE
  70
4
  0
LTYPE
  5
40F
  2
CONTINUOUS
  70
0
  3
Solid line
  72
65
  73
0
  40
0.0
  0
LTYPE
  5
410
  2
DASHDOT
 70
0
  3
Dash Dot ____ _ ____ _
 72
65
 73
4
 40
2.0
 49
1.25
 49
-0.25
 49
0.25
 49
-0.25
  0
LTYPE
  5
411
  2
DASHED
 70
0
  3
Dashed __ __ __ __ __
 72
65
 73
2
 40
0.75
 49
0.5
 49
-0.25
  0
LTYPE
  5
43B
  2
DOTTED
 70
0
  3
Dotted .  .  .  .
 72
65
 73
2
 40
0.2
 49
0.0
 49
-0.2
  0
ENDTAB
  0
TABLE
  2
STYLE
  70
4
  0
STYLE
  2
KICAD
  70
0
  40
0
  41
1
  42
1
  50
0
  71
0
  3
isocp.shx
  0
STYLE
  2
KICADB
  70
0
  40
0
  41
1
  42
1
  50
0
  71
0
  3
isocp.shx
  0
STYLE
  2
KICADI
  70
0
  40
0
  41
1
  42
1
  50
15
  71
0
  3
isocp.shx
  0
STYLE
  2
KICADBI
  70
0
  40
0
  41
1
  42
1
  50
15
  71
0
  3
isocp.shx
  0
ENDTAB
  0
TABLE
  2
LAYER
  70
30
  0
LAYER
  2
BLACK
  70
0
  62
7
  6
CONTINUOUS
  0
LAYER
  2
GRAY1
  70
0
  62
251
  6
CONTINUOUS
  0
LAYER
  2
GRAY2
  70
0
  62
8
  6
CONTINUOUS
  0
LAYER
  2
GRAY3
  70
0
  62
9
  6
CONTINUOUS
  0
LAYER
  2
WHITE
  70
0
  62
7
  6
CONTINUOUS
  0
LAYER
  2
LYELLOW
  70
0
  62
51
  6
CONTINUOUS
  0
LAYER
  2
BLUE1
  70
0
  62
178
  6
CONTINUOUS
  0
LAYER
  2
GREEN1
  70
0
  62
98
  6
CONTINUOUS
  0
LAYER
  2
CYAN1
  70
0
  62
138
  6
CONTINUOUS
  0
LAYER
  2
RED1
  70
0
  62
18
  6
CONTINUOUS
  0
LAYER
  2
MAGENTA1
  70
0
  62
228
  6
CONTINUOUS
  0
LAYER
  2
BROWN1
  70
0
  62
58
  6
CONTINUOUS
  0
LAYER
  2
BLUE2
  70
0
  62
5
  6
CONTINUOUS
  0
LAYER
  2
GREEN2
  70
0
  62
3
  6
CONTINUOUS
  0
LAYER
  2
CYAN2
  70
0
  62
4
  6
CONTINUOUS
  0
LAYER
  2
RED2
  70
0
  62
1
  6
CONTINUOUS
  0
LAYER
  2
MAGENTA2
  70
0
  62
6
  6
CONTINUOUS
  0
LAYER
  2
BROWN2
  70
0
  62
54
  6
CONTINUOUS
  0
LAYER
  2
BLUE3
  70
0
  62
171
  6
CONTINUOUS
  0
LAYER
  2
GREEN3
  70
0
  62
91
  6
CONTINUOUS
  0
LAYER
  2
CYAN3
  70
0
  62
131
  6
CONTINUOUS
  0
LAYER
  2
RED3
  70
0
  62
11
  6
CONTINUOUS
  0
LAYER
  2
MAGENTA3
  70
0
  62
221
  6
CONTINUOUS
  0
LAYER
  2
YELLOW3
  70
0
  62
2
  6
CONTINUOUS
  0
LAYER
  2
BLUE4
  70
0
  62
5
  6
CONTINUOUS
  0
LAYER
  2
GREEN4
  70
0
  62
3
  6
CONTINUOUS
  0
LAYER
  2
CYAN4
  70
0
  62
4
  6
CONTINUOUS
  0
LAYER
  2
RED4
  70
0
  62
1
  6
CONTINUOUS
  0
LAYER
  2
MAGENTA4
  70
0
  62
6
  6
CONTINUOUS
  0
LAYER
  2
YELLOW4
  70
0
  62
2
  6
CONTINUOUS
  0
ENDTAB
  0
ENDSEC
  0
SECTION
  2
ENTITIES
0
LINE
8
BLACK
6
CONTINUOUS
10
129.013
20
-107.783
11
129.239
21
-107.852
0
LINE
8
BLACK
6
CONTINUOUS
10
129.239
20
-107.852
11
129.448
21
-107.963
0
LINE
8
BLACK
6
CONTINUOUS
10
129.448
20
-107.963
11
129.631
21
-108.113
0
LINE
8
BLACK
6
CONTINUOUS
10
129.631
20
-108.113
11
129.781
21
-108.296
0
LINE
8
BLACK
6
CONTINUOUS
10
129.781
20
-108.296
11
129.892
21
-108.505
0
LINE
8
BLACK
6
CONTINUOUS
10
129.892
20
-108.505
11
129.961
21
-108.731
0
LINE
8
BLACK
6
CONTINUOUS
10
129.961
20
-108.731
11
129.984
21
-108.966
0
LINE
8
BLACK
6
CONTINUOUS
10
129.984
20
-108.966
11
129.961
21
-109.201
0
LINE
8
BLACK
6
CONTINUOUS
10
129.961
20
-109.201
11
129.892
21
-109.427
0
LINE
8
BLACK
6
CONTINUOUS
10
129.892
20
-109.427
11
129.781
21
-109.636
0
LINE
8
BLACK
6
CONTINUOUS
10
129.781
20
-109.636
11
129.631
21
-109.819
0
LINE
8
BLACK
6
CONTINUOUS
10
129.631
20
-109.819
11
129.448
21
-109.969
0
LINE
8
BLACK
6
CONTINUOUS
10
129.448
20
-109.969
11
129.239
21
-110.08
0
LINE
8
BLACK
6
CONTINUOUS
10
129.239
20
-110.08
11
129.013
21
-110.149
0
LINE
8
BLACK
6
CONTINUOUS
10
129.013
20
-110.149
11
128.837
21
-110.166
0
LINE
8
BLACK
6
CONTINUOUS
10
128.837
20
-110.166
11
128.719
21
-110.166
0
LINE
8
BLACK
6
CONTINUOUS
10
128.719
20
-110.166
11
128.543
21
-110.149
0
LINE
8
BLACK
6
CONTINUOUS
10
128.543
20
-110.149
11
128.317
21
-110.08
0
LINE
8
BLACK
6
CONTINUOUS
10
128.317
20
-110.08
11
128.108
21
-109.969
0
LINE
8
BLACK
6
CONTINUOUS
10
128.108
20
-109.969
11
127.925
21
-109.819
0
LINE
8
BLACK
6
CONTINUOUS
10
127.925
20
-109.819
11
127.775
21
-109.636
0
LINE
8
BLACK
6
CONTINUOUS
10
127.775
20
-109.636
11
127.664
21
-109.427
0
LINE
8
BLACK
6
CONTINUOUS
10
127.664
20
-109.427
11
127.595
21
-109.201
0
LINE
8
BLACK
6
CONTINUOUS
10
127.595
20
-109.201
11
127.572
21
-108.966
0
LINE
8
BLACK
6
CONTINUOUS
10
127.572
20
-108.966
11
127.595
21
-108.731
0
LINE
8
BLACK
6
CONTINUOUS
10
127.595
20
-108.731
11
127.664
21
-108.505
0
LINE
8
BLACK
6
CONTINUOUS
10
127.664
20
-108.505
11
127.775
21
-108.296
0
LINE
8
BLACK
6
CONTINUOUS
10
127.775
20
-108.296
11
127.925
21
-108.113
0
LINE
8
BLACK
6
CONTINUOUS
10
127.925
20
-108.113
11
128.108
21
-107.963
0
LINE
8
BLACK
6
CONTINUOUS
10
128.108
20
-107.963
11
128.317
21
-107.852
0
LINE
8
BLACK
6
CONTINUOUS
10
128.317
20
-107.852
11
128.543
21
-107.783
0
LINE
8
BLACK
6
CONTINUOUS
10
128.543
20
-107.783
11
128.719
21
-107.766
0
LINE
8
BLACK
6
CONTINUOUS
10
128.719
20
-107.766
11
128.837
21
-107.766
0
LINE
8
BLACK
6
CONTINUOUS
10
128.837
20
-107.766
11
129.013
21
-107.783
0
LINE
8
BLACK
6
CONTINUOUS
10
140.346
20
-109.866
11
138.546
21
-109.866
0
LINE
8
BLACK
6
CONTINUOUS
10
138.546
20
-109.866
11
138.546
21
-108.066
0
LINE
8
BLACK
6
CONTINUOUS
10
138.546
20
-108.066
11
140.346
21
-108.066
0
LINE
8
BLACK
6
CONTINUOUS
10
140.346
20
-108.066
11
140.346
21
-109.866
0
LINE
8
BLACK
6
CONTINUOUS
10
144.918
20
-109.866
11
143.118
21
-109.866
0
LINE
8
BLACK
6
CONTINUOUS
10
143.118
20
-109.866
11
143.118
21
-108.066
0
LINE
8
BLACK
6
CONTINUOUS
10
143.118
20
-108.066
11
144.918
21
-108.066
0
LINE
8
BLACK
6
CONTINUOUS
10
144.918
20
-108.066
11
144.918
21
-109.866
0
LINE
8
BLACK
6
CONTINUOUS
10
149.49
20
-109.866
11
147.69
21
-109.866
0
LINE
8
BLACK
6
CONTINUOUS
10
147.69
20
-109.866
11
147.69
21
-108.066
0
LINE
8
BLACK
6
CONTINUOUS
10
147.69
20
-108.066
11
149.49
21
-108.066
0
LINE
8
BLACK
6
CONTINUOUS
10
149.49
20
-108.066
11
149.49
21
-109.866
0
LINE
8
BLACK
6
CONTINUOUS
10
154.062
20
-109.866
11
152.262
21
-109.866
0
LINE
8
BLACK
6
CONTINUOUS
10
152.262
20
-109.866
11
152.262
21
-108.066
0
LINE
8
BLACK
6
CONTINUOUS
10
152.262
20
-108.066
11
154.062
21
-108.066
0
LINE
8
BLACK
6
CONTINUOUS
10
154.062
20
-108.066
11
154.062
21
-109.866
0
LINE
8
BLACK
6
CONTINUOUS
10
132.851
20
-107.085
11
133.014
21
-107.152
0
LINE
8
BLACK
6
CONTINUOUS
10
133.014
20
-107.152
11
133.162
21
-107.251
0
LINE
8
BLACK
6
CONTINUOUS
10
133.162
20
-107.251
11
133.287
21
-107.376
0
LINE
8
BLACK
6
CONTINUOUS
10
133.287
20
-107.376
11
133.386
21
-107.524
0
LINE
8
BLACK
6
CONTINUOUS
10
133.386
20
-107.524
11
133.453
21
-107.687
0
LINE
8
BLACK
6
CONTINUOUS
10
133.453
20
-107.687
11
133.488
21
-107.861
0
LINE
8
BLACK
6
CONTINUOUS
10
133.488
20
-107.861
11
133.488
21
-108.039
0
LINE
8
BLACK
6
CONTINUOUS
10
133.488
20
-108.039
11
133.453
21
-108.213
0
LINE
8
BLACK
6
CONTINUOUS
10
133.453
20
-108.213
11
133.386
21
-108.376
0
LINE
8
BLACK
6
CONTINUOUS
10
133.386
20
-108.376
11
133.287
21
-108.524
0
LINE
8
BLACK
6
CONTINUOUS
10
133.287
20
-108.524
11
133.162
21
-108.649
0
LINE
8
BLACK
6
CONTINUOUS
10
133.162
20
-108.649
11
133.014
21
-108.748
0
LINE
8
BLACK
6
CONTINUOUS
10
133.014
20
-108.748
11
132.851
21
-108.815
0
LINE
8
BLACK
6
CONTINUOUS
10
132.851
20
-108.815
11
132.677
21
-108.85
0
LINE
8
BLACK
6
CONTINUOUS
10
132.677
20
-108.85
11
132.499
21
-108.85
0
LINE
8
BLACK
6
CONTINUOUS
10
132.499
20
-108.85
11
132.325
21
-108.815
0
LINE
8
BLACK
6
CONTINUOUS
10
132.325
20
-108.815
11
132.162
21
-108.748
0
LINE
8
BLACK
6
CONTINUOUS
10
132.162
20
-108.748
11
132.014
21
-108.649
0
LINE
8
BLACK
6
CONTINUOUS
10
132.014
20
-108.649
11
131.889
21
-108.524
0
LINE
8
BLACK
6
CONTINUOUS
10
131.889
20
-108.524
11
131.79
21
-108.376
0
LINE
8
BLACK
6
CONTINUOUS
10
131.79
20
-108.376
11
131.723
21
-108.213
0
LINE
8
BLACK
6
CONTINUOUS
10
131.723
20
-108.213
11
131.688
21
-108.039
0
LINE
8
BLACK
6
CONTINUOUS
10
131.688
20
-108.039
11
131.688
21
-107.861
0
LINE
8
BLACK
6
CONTINUOUS
10
131.688
20
-107.861
11
131.723
21
-107.687
0
LINE
8
BLACK
6
CONTINUOUS
10
131.723
20
-107.687
11
131.79
21
-107.524
0
LINE
8
BLACK
6
CONTINUOUS
10
131.79
20
-107.524
11
131.889
21
-107.376
0
LINE
8
BLACK
6
CONTINUOUS
10
131.889
20
-107.376
11
132.014
21
-107.251
0
LINE
8
BLACK
6
CONTINUOUS
10
132.014
20
-107.251
11
132.162
21
-107.152
0
LINE
8
BLACK
6
CONTINUOUS
10
132.162
20
-107.152
11
132.325
21
-107.085
0
LINE
8
BLACK
6
CONTINUOUS
10
132.325
20
-107.085
11
132.499
21
-107.05
0
LINE
8
BLACK
6
CONTINUOUS
10
132.499
20
-107.05
11
132.677
21
-107.05
0
LINE
8
BLACK
6
CONTINUOUS
10
132.677
20
-107.05
11
132.851
21
-107.085
0
LINE
8
BLACK
6
CONTINUOUS
10
136.028
20
-108.85
11
134.228
21
-108.85
0
LINE
8
BLACK
6
CONTINUOUS
10
134.228
20
-108.85
11
134.228
21
-107.05
0
LINE
8
BLACK
6
CONTINUOUS
10
134.228
20
-107.05
11
136.028
21
-107.05
0
LINE
8
BLACK
6
CONTINUOUS
10
136.028
20
-107.05
11
136.028
21
-108.85
0
LINE
8
BLACK
6
CONTINUOUS
10
118.594
20
-108.688
11
115.594
21
-108.688
0
LINE
8
BLACK
6
CONTINUOUS
10
115.594
20
-108.688
11
115.594
21
-105.688
0
LINE
8
BLACK
6
CONTINUOUS
10
115.594
20
-105.688
11
118.594
21
-105.688
0
LINE
8
BLACK
6
CONTINUOUS
10
118.594
20
-105.688
11
118.594
21
-108.688
0
LINE
8
BLACK
6
CONTINUOUS
10
124.544
20
-108.288
11
122.344
21
-108.288
0
LINE
8
BLACK
6
CONTINUOUS
10
122.344
20
-108.288
11
122.344
21
-106.088
0
LINE
8
BLACK
6
CONTINUOUS
10
122.344
20
-106.088
11
124.544
21
-106.088
0
LINE
8
BLACK
6
CONTINUOUS
10
124.544
20
-106.088
11
124.544
21
-108.288
0
LINE
8
BLACK
6
CONTINUOUS
10
139.709
20
-105.561
11
139.872
21
-105.628
0
LINE
8
BLACK
6
CONTINUOUS
10
139.872
20
-105.628
11
140.02
21
-105.727
0
LINE
8
BLACK
6
CONTINUOUS
10
140.02
20
-105.727
11
140.145
21
-105.852
0
LINE
8
BLACK
6
CONTINUOUS
10
140.145
20
-105.852
11
140.244
21
-106
0
LINE
8
BLACK
6
CONTINUOUS
10
140.244
20
-106
11
140.311
21
-106.163
0
LINE
8
BLACK
6
CONTINUOUS
10
140.311
20
-106.163
11
140.346
21
-106.337
0
LINE
8
BLACK
6
CONTINUOUS
10
140.346
20
-106.337
11
140.346
21
-106.515
0
LINE
8
BLACK
6
CONTINUOUS
10
140.346
20
-106.515
11
140.311
21
-106.689
0
LINE
8
BLACK
6
CONTINUOUS
10
140.311
20
-106.689
11
140.244
21
-106.852
0
LINE
8
BLACK
6
CONTINUOUS
10
140.244
20
-106.852
11
140.145
21
-107
0
LINE
8
BLACK
6
CONTINUOUS
10
140.145
20
-107
11
140.02
21
-107.125
0
LINE
8
BLACK
6
CONTINUOUS
10
140.02
20
-107.125
11
139.872
21
-107.224
0
LINE
8
BLACK
6
CONTINUOUS
10
139.872
20
-107.224
11
139.709
21
-107.291
0
LINE
8
BLACK
6
CONTINUOUS
10
139.709
20
-107.291
11
139.535
21
-107.326
0
LINE
8
BLACK
6
CONTINUOUS
10
139.535
20
-107.326
11
139.357
21
-107.326
0
LINE
8
BLACK
6
CONTINUOUS
10
139.357
20
-107.326
11
139.183
21
-107.291
0
LINE
8
BLACK
6
CONTINUOUS
10
139.183
20
-107.291
11
139.02
21
-107.224
0
LINE
8
BLACK
6
CONTINUOUS
10
139.02
20
-107.224
11
138.872
21
-107.125
0
LINE
8
BLACK
6
CONTINUOUS
10
138.872
20
-107.125
11
138.747
21
-107
0
LINE
8
BLACK
6
CONTINUOUS
10
138.747
20
-107
11
138.648
21
-106.852
0
LINE
8
BLACK
6
CONTINUOUS
10
138.648
20
-106.852
11
138.581
21
-106.689
0
LINE
8
BLACK
6
CONTINUOUS
10
138.581
20
-106.689
11
138.546
21
-106.515
0
LINE
8
BLACK
6
CONTINUOUS
10
138.546
20
-106.515
11
138.546
21
-106.337
0
LINE
8
BLACK
6
CONTINUOUS
10
138.546
20
-106.337
11
138.581
21
-106.163
0
LINE
8
BLACK
6
CONTINUOUS
10
138.581
20
-106.163
11
138.648
21
-106
0
LINE
8
BLACK
6
CONTINUOUS
10
138.648
20
-106
11
138.747
21
-105.852
0
LINE
8
BLACK
6
CONTINUOUS
10
138.747
20
-105.852
11
138.872
21
-105.727
0
LINE
8
BLACK
6
CONTINUOUS
10
138.872
20
-105.727
11
139.02
21
-105.628
0
LINE
8
BLACK
6
CONTINUOUS
10
139.02
20
-105.628
11
139.183
21
-105.561
0
LINE
8
BLACK
6
CONTINUOUS
10
139.183
20
-105.561
11
139.357
21
-105.526
0
LINE
8
BLACK
6
CONTINUOUS
10
139.357
20
-105.526
11
139.535
21
-105.526
0
LINE
8
BLACK
6
CONTINUOUS
10
139.535
20
-105.526
11
139.709
21
-105.561
0
LINE
8
BLACK
6
CONTINUOUS
10
144.281
20
-105.561
11
144.444
21
-105.628
0
LINE
8
BLACK
6
CONTINUOUS
10
144.444
20
-105.628
11
144.592
21
-105.727
0
LINE
8
BLACK
6
CONTINUOUS
10
144.592
20
-105.727
11
144.717
21
-105.852
0
LINE
8
BLACK
6
CONTINUOUS
10
144.717
20
-105.852
11
144.816
21
-106
0
LINE
8
BLACK
6
CONTINUOUS
10
144.816
20
-106
11
144.883
21
-106.163
0
LINE
8
BLACK
6
CONTINUOUS
10
144.883
20
-106.163
11
144.918
21
-106.337
0
LINE
8
BLACK
6
CONTINUOUS
10
144.918
20
-106.337
11
144.918
21
-106.515
0
LINE
8
BLACK
6
CONTINUOUS
10
144.918
20
-106.515
11
144.883
21
-106.689
0
LINE
8
BLACK
6
CONTINUOUS
10
144.883
20
-106.689
11
144.816
21
-106.852
0
LINE
8
BLACK
6
CONTINUOUS
10
144.816
20
-106.852
11
144.717
21
-107
0
LINE
8
BLACK
6
CONTINUOUS
10
144.717
20
-107
11
144.592
21
-107.125
0
LINE
8
BLACK
6
CONTINUOUS
10
144.592
20
-107.125
11
144.444
21
-107.224
0
LINE
8
BLACK
6
CONTINUOUS
10
144.444
20
-107.224
11
144.281
21
-107.291
0
LINE
8
BLACK
6
CONTINUOUS
10
144.281
20
-107.291
11
144.107
21
-107.326
0
LINE
8
BLACK
6
CONTINUOUS
10
144.107
20
-107.326
11
143.929
21
-107.326
0
LINE
8
BLACK
6
CONTINUOUS
10
143.929
20
-107.326
11
143.755
21
-107.291
0
LINE
8
BLACK
6
CONTINUOUS
10
143.755
20
-107.291
11
143.592
21
-107.224
0
LINE
8
BLACK
6
CONTINUOUS
10
143.592
20
-107.224
11
143.444
21
-107.125
0
LINE
8
BLACK
6
CONTINUOUS
10
143.444
20
-107.125
11
143.319
21
-107
0
LINE
8
BLACK
6
CONTINUOUS
10
143.319
20
-107
11
143.22
21
-106.852
0
LINE
8
BLACK
6
CONTINUOUS
10
143.22
20
-106.852
11
143.153
21
-106.689
0
LINE
8
BLACK
6
CONTINUOUS
10
143.153
20
-106.689
11
143.118
21
-106.515
0
LINE
8
BLACK
6
CONTINUOUS
10
143.118
20
-106.515
11
143.118
21
-106.337
0
LINE
8
BLACK
6
CONTINUOUS
10
143.118
20
-106.337
11
143.153
21
-106.163
0
LINE
8
BLACK
6
CONTINUOUS
10
143.153
20
-106.163
11
143.22
21
-106
0
LINE
8
BLACK
6
CONTINUOUS
10
143.22
20
-106
11
143.319
21
-105.852
0
LINE
8
BLACK
6
CONTINUOUS
10
143.319
20
-105.852
11
143.444
21
-105.727
0
LINE
8
BLACK
6
CONTINUOUS
10
143.444
20
-105.727
11
143.592
21
-105.628
0
LINE
8
BLACK
6
CONTINUOUS
10
143.592
20
-105.628
11
143.755
21
-105.561
0
LINE
8
BLACK
6
CONTINUOUS
10
143.755
20
-105.561
11
143.929
21
-105.526
0
LINE
8
BLACK
6
CONTINUOUS
10
143.929
20
-105.526
11
144.107
21
-105.526
0
LINE
8
BLACK
6
CONTINUOUS
10
144.107
20
-105.526
11
144.281
21
-105.561
0
LINE
8
BLACK
6
CONTINUOUS
10
153.425
20
-105.561
11
153.588
21
-105.628
0
LINE
8
BLACK
6
CONTINUOUS
10
153.588
20
-105.628
11
153.736
21
-105.727
0
LINE
8
BLACK
6
CONTINUOUS
10
153.736
20
-105.727
11
153.861
21
-105.852
0
LINE
8
BLACK
6
CONTINUOUS
10
153.861
20
-105.852
11
153.96
21
-106
0
LINE
8
BLACK
6
CONTINUOUS
10
153.96
20
-106
11
154.027
21
-106.163
0
LINE
8
BLACK
6
CONTINUOUS
10
154.027
20
-106.163
11
154.062
21
-106.337
0
LINE
8
BLACK
6
CONTINUOUS
10
154.062
20
-106.337
11
154.062
21
-106.515
0
LINE
8
BLACK
6
CONTINUOUS
10
154.062
20
-106.515
11
154.027
21
-106.689
0
LINE
8
BLACK
6
CONTINUOUS
10
154.027
20
-106.689
11
153.96
21
-106.852
0
LINE
8
BLACK
6
CONTINUOUS
10
153.96
20
-106.852
11
153.861
21
-107
0
LINE
8
BLACK
6
CONTINUOUS
10
153.861
20
-107
11
153.736
21
-107.125
0
LINE
8
BLACK
6
CONTINUOUS
10
153.736
20
-107.125
11
153.588
21
-107.224
0
LINE
8
BLACK
6
CONTINUOUS
10
153.588
20
-107.224
11
153.425
21
-107.291
0
LINE
8
BLACK
6
CONTINUOUS
10
153.425
20
-107.291
11
153.251
21
-107.326
0
LINE
8
BLACK
6
CONTINUOUS
10
153.251
20
-107.326
11
153.073
21
-107.326
0
LINE
8
BLACK
6
CONTINUOUS
10
153.073
20
-107.326
11
152.899
21
-107.291
0
LINE
8
BLACK
6
CONTINUOUS
10
152.899
20
-107.291
11
152.736
21
-107.224
0
LINE
8
BLACK
6
CONTINUOUS
10
152.736
20
-107.224
11
152.588
21
-107.125
0
LINE
8
BLACK
6
CONTINUOUS
10
152.588
20
-107.125
11
152.463
21
-107
0
LINE
8
BLACK
6
CONTINUOUS
10
152.463
20
-107
11
152.364
21
-106.852
0
LINE
8
BLACK
6
CONTINUOUS
10
152.364
20
-106.852
11
152.297
21
-106.689
0
LINE
8
BLACK
6
CONTINUOUS
10
152.297
20
-106.689
11
152.262
21
-106.515
0
LINE
8
BLACK
6
CONTINUOUS
10
152.262
20
-106.515
11
152.262
21
-106.337
0
LINE
8
BLACK
6
CONTINUOUS
10
152.262
20
-106.337
11
152.297
21
-106.163
0
LINE
8
BLACK
6
CONTINUOUS
10
152.297
20
-106.163
11
152.364
21
-106
0
LINE
8
BLACK
6
CONTINUOUS
10
152.364
20
-106
11
152.463
21
-105.852
0
LINE
8
BLACK
6
CONTINUOUS
10
152.463
20
-105.852
11
152.588
21
-105.727
0
LINE
8
BLACK
6
CONTINUOUS
10
152.588
20
-105.727
11
152.736
21
-105.628
0
LINE
8
BLACK
6
CONTINUOUS
10
152.736
20
-105.628
11
152.899
21
-105.561
0
LINE
8
BLACK
6
CONTINUOUS
10
152.899
20
-105.561
11
153.073
21
-105.526
0
LINE
8
BLACK
6
CONTINUOUS
10
153.073
20
-105.526
11
153.251
21
-105.526
0
LINE
8
BLACK
6
CONTINUOUS
10
153.251
20
-105.526
11
153.425
21
-105.561
0
LINE
8
BLACK
6
CONTINUOUS
10
148.853
20
-105.561
11
149.016
21
-105.628
0
LINE
8
BLACK
6
CONTINUOUS
10
149.016
20
-105.628
11
149.164
21
-105.727
0
LINE
8
BLACK
6
CONTINUOUS
10
149.164
20
-105.727
11
149.289
21
-105.852
0
LINE
8
BLACK
6
CONTINUOUS
10
149.289
20
-105.852
11
149.388
21
-106
0
LINE
8
BLACK
6
CONTINUOUS
10
149.388
20
-106
11
149.455
21
-106.163
0
LINE
8
BLACK
6
CONTINUOUS
10
149.455
20
-106.163
11
149.49
21
-106.337
0
LINE
8
BLACK
6
CONTINUOUS
10
149.49
20
-106.337
11
149.49
21
-106.515
0
LINE
8
BLACK
6
CONTINUOUS
10
149.49
20
-106.515
11
149.455
21
-106.689
0
LINE
8
BLACK
6
CONTINUOUS
10
149.455
20
-106.689
11
149.388
21
-106.852
0
LINE
8
BLACK
6
CONTINUOUS
10
149.388
20
-106.852
11
149.289
21
-107
0
LINE
8
BLACK
6
CONTINUOUS
10
149.289
20
-107
11
149.164
21
-107.125
0
LINE
8
BLACK
6
CONTINUOUS
10
149.164
20
-107.125
11
149.016
21
-107.224
0
LINE
8
BLACK
6
CONTINUOUS
10
149.016
20
-107.224
11
148.853
21
-107.291
0
LINE
8
BLACK
6
CONTINUOUS
10
148.853
20
-107.291
11
148.679
21
-107.326
0
LINE
8
BLACK
6
CONTINUOUS
10
148.679
20
-107.326
11
148.501
21
-107.326
0
LINE
8
BLACK
6
CONTINUOUS
10
148.501
20
-107.326
11
148.327
21
-107.291
0
LINE
8
BLACK
6
CONTINUOUS
10
148.327
20
-107.291
11
148.164
21
-107.224
0
LINE
8
BLACK
6
CONTINUOUS
10
148.164
20
-107.224
11
148.016
21
-107.125
0
LINE
8
BLACK
6
CONTINUOUS
10
148.016
20
-107.125
11
147.891
21
-107
0
LINE
8
BLACK
6
CONTINUOUS
10
147.891
20
-107
11
147.792
21
-106.852
0
LINE
8
BLACK
6
CONTINUOUS
10
147.792
20
-106.852
11
147.725
21
-106.689
0
LINE
8
BLACK
6
CONTINUOUS
10
147.725
20
-106.689
11
147.69
21
-106.515
0
LINE
8
BLACK
6
CONTINUOUS
10
147.69
20
-106.515
11
147.69
21
-106.337
0
LINE
8
BLACK
6
CONTINUOUS
10
147.69
20
-106.337
11
147.725
21
-106.163
0
LINE
8
BLACK
6
CONTINUOUS
10
147.725
20
-106.163
11
147.792
21
-106
0
LINE
8
BLACK
6
CONTINUOUS
10
147.792
20
-106
11
147.891
21
-105.852
0
LINE
8
BLACK
6
CONTINUOUS
10
147.891
20
-105.852
11
148.016
21
-105.727
0
LINE
8
BLACK
6
CONTINUOUS
10
148.016
20
-105.727
11
148.164
21
-105.628
0
LINE
8
BLACK
6
CONTINUOUS
10
148.164
20
-105.628
11
148.327
21
-105.561
0
LINE
8
BLACK
6
CONTINUOUS
10
148.327
20
-105.561
11
148.501
21
-105.526
0
LINE
8
BLACK
6
CONTINUOUS
10
148.501
20
-105.526
11
148.679
21
-105.526
0
LINE
8
BLACK
6
CONTINUOUS
10
148.679
20
-105.526
11
148.853
21
-105.561
0
LINE
8
BLACK
6
CONTINUOUS
10
124.544
20
-105.748
11
122.344
21
-105.748
0
LINE
8
BLACK
6
CONTINUOUS
10
122.344
20
-105.748
11
122.344
21
-103.548
0
LINE
8
BLACK
6
CONTINUOUS
10
122.344
20
-103.548
11
124.544
21
-103.548
0
LINE
8
BLACK
6
CONTINUOUS
10
124.544
20
-103.548
11
124.544
21
-105.748
0
LINE
8
BLACK
6
CONTINUOUS
10
139.427
20
-101.687
11
139.653
21
-101.756
0
LINE
8
BLACK
6
CONTINUOUS
10
139.653
20
-101.756
11
139.862
21
-101.867
0
LINE
8
BLACK
6
CONTINUOUS
10
139.862
20
-101.867
11
140.045
21
-102.017
0
LINE
8
BLACK
6
CONTINUOUS
10
140.045
20
-102.017
11
140.195
21
-102.2
0
LINE
8
BLACK
6
CONTINUOUS
10
140.195
20
-102.2
11
140.306
21
-102.409
0
LINE
8
BLACK
6
CONTINUOUS
10
140.306
20
-102.409
11
140.375
21
-102.635
0
LINE
8
BLACK
6
CONTINUOUS
10
140.375
20
-102.635
11
140.398
21
-102.87
0
LINE
8
BLACK
6
CONTINUOUS
10
140.398
20
-102.87
11
140.375
21
-103.105
0
LINE
8
BLACK
6
CONTINUOUS
10
140.375
20
-103.105
11
140.306
21
-103.331
0
LINE
8
BLACK
6
CONTINUOUS
10
140.306
20
-103.331
11
140.195
21
-103.54
0
LINE
8
BLACK
6
CONTINUOUS
10
140.195
20
-103.54
11
140.045
21
-103.723
0
LINE
8
BLACK
6
CONTINUOUS
10
140.045
20
-103.723
11
139.862
21
-103.873
0
LINE
8
BLACK
6
CONTINUOUS
10
139.862
20
-103.873
11
139.653
21
-103.984
0
LINE
8
BLACK
6
CONTINUOUS
10
139.653
20
-103.984
11
139.427
21
-104.053
0
LINE
8
BLACK
6
CONTINUOUS
10
139.427
20
-104.053
11
139.251
21
-104.07
0
LINE
8
BLACK
6
CONTINUOUS
10
139.251
20
-104.07
11
139.133
21
-104.07
0
LINE
8
BLACK
6
CONTINUOUS
10
139.133
20
-104.07
11
138.957
21
-104.053
0
LINE
8
BLACK
6
CONTINUOUS
10
138.957
20
-104.053
11
138.731
21
-103.984
0
LINE
8
BLACK
6
CONTINUOUS
10
138.731
20
-103.984
11
138.522
21
-103.873
0
LINE
8
BLACK
6
CONTINUOUS
10
138.522
20
-103.873
11
138.339
21
-103.723
0
LINE
8
BLACK
6
CONTINUOUS
10
138.339
20
-103.723
11
138.189
21
-103.54
0
LINE
8
BLACK
6
CONTINUOUS
10
138.189
20
-103.54
11
138.078
21
-103.331
0
LINE
8
BLACK
6
CONTINUOUS
10
138.078
20
-103.331
11
138.009
21
-103.105
0
LINE
8
BLACK
6
CONTINUOUS
10
138.009
20
-103.105
11
137.986
21
-102.87
0
LINE
8
BLACK
6
CONTINUOUS
10
137.986
20
-102.87
11
138.009
21
-102.635
0
LINE
8
BLACK
6
CONTINUOUS
10
138.009
20
-102.635
11
138.078
21
-102.409
0
LINE
8
BLACK
6
CONTINUOUS
10
138.078
20
-102.409
11
138.189
21
-102.2
0
LINE
8
BLACK
6
CONTINUOUS
10
138.189
20
-102.2
11
138.339
21
-102.017
0
LINE
8
BLACK
6
CONTINUOUS
10
138.339
20
-102.017
11
138.522
21
-101.867
0
LINE
8
BLACK
6
CONTINUOUS
10
138.522
20
-101.867
11
138.731
21
-101.756
0
LINE
8
BLACK
6
CONTINUOUS
10
138.731
20
-101.756
11
138.957
21
-101.687
0
LINE
8
BLACK
6
CONTINUOUS
10
138.957
20
-101.687
11
139.133
21
-101.67
0
LINE
8
BLACK
6
CONTINUOUS
10
139.133
20
-101.67
11
139.251
21
-101.67
0
LINE
8
BLACK
6
CONTINUOUS
10
139.251
20
-101.67
11
139.427
21
-101.687
0
LINE
8
BLACK
6
CONTINUOUS
10
143.745
20
-101.687
11
143.971
21
-101.756
0
LINE
8
BLACK
6
CONTINUOUS
10
143.971
20
-101.756
11
144.18
21
-101.867
0
LINE
8
BLACK
6
CONTINUOUS
10
144.18
20
-101.867
11
144.363
21
-102.017
0
LINE
8
BLACK
6
CONTINUOUS
10
144.363
20
-102.017
11
144.513
21
-102.2
0
LINE
8
BLACK
6
CONTINUOUS
10
144.513
20
-102.2
11
144.624
21
-102.409
0
LINE
8
BLACK
6
CONTINUOUS
10
144.624
20
-102.409
11
144.693
21
-102.635
0
LINE
8
BLACK
6
CONTINUOUS
10
144.693
20
-102.635
11
144.716
21
-102.87
0
LINE
8
BLACK
6
CONTINUOUS
10
144.716
20
-102.87
11
144.693
21
-103.105
0
LINE
8
BLACK
6
CONTINUOUS
10
144.693
20
-103.105
11
144.624
21
-103.331
0
LINE
8
BLACK
6
CONTINUOUS
10
144.624
20
-103.331
11
144.513
21
-103.54
0
LINE
8
BLACK
6
CONTINUOUS
10
144.513
20
-103.54
11
144.363
21
-103.723
0
LINE
8
BLACK
6
CONTINUOUS
10
144.363
20
-103.723
11
144.18
21
-103.873
0
LINE
8
BLACK
6
CONTINUOUS
10
144.18
20
-103.873
11
143.971
21
-103.984
0
LINE
8
BLACK
6
CONTINUOUS
10
143.971
20
-103.984
11
143.745
21
-104.053
0
LINE
8
BLACK
6
CONTINUOUS
10
143.745
20
-104.053
11
143.569
21
-104.07
0
LINE
8
BLACK
6
CONTINUOUS
10
143.569
20
-104.07
11
143.451
21
-104.07
0
LINE
8
BLACK
6
CONTINUOUS
10
143.451
20
-104.07
11
143.275
21
-104.053
0
LINE
8
BLACK
6
CONTINUOUS
10
143.275
20
-104.053
11
143.049
21
-103.984
0
LINE
8
BLACK
6
CONTINUOUS
10
143.049
20
-103.984
11
142.84
21
-103.873
0
LINE
8
BLACK
6
CONTINUOUS
10
142.84
20
-103.873
11
142.657
21
-103.723
0
LINE
8
BLACK
6
CONTINUOUS
10
142.657
20
-103.723
11
142.507
21
-103.54
0
LINE
8
BLACK
6
CONTINUOUS
10
142.507
20
-103.54
11
142.396
21
-103.331
0
LINE
8
BLACK
6
CONTINUOUS
10
142.396
20
-103.331
11
142.327
21
-103.105
0
LINE
8
BLACK
6
CONTINUOUS
10
142.327
20
-103.105
11
142.304
21
-102.87
0
LINE
8
BLACK
6
CONTINUOUS
10
142.304
20
-102.87
11
142.327
21
-102.635
0
LINE
8
BLACK
6
CONTINUOUS
10
142.327
20
-102.635
11
142.396
21
-102.409
0
LINE
8
BLACK
6
CONTINUOUS
10
142.396
20
-102.409
11
142.507
21
-102.2
0
LINE
8
BLACK
6
CONTINUOUS
10
142.507
20
-102.2
11
142.657
21
-102.017
0
LINE
8
BLACK
6
CONTINUOUS
10
142.657
20
-102.017
11
142.84
21
-101.867
0
LINE
8
BLACK
6
CONTINUOUS
10
142.84
20
-101.867
11
143.049
21
-101.756
0
LINE
8
BLACK
6
CONTINUOUS
10
143.049
20
-101.756
11
143.275
21
-101.687
0
LINE
8
BLACK
6
CONTINUOUS
10
143.275
20
-101.687
11
143.451
21
-101.67
0
LINE
8
BLACK
6
CONTINUOUS
10
143.451
20
-101.67
11
143.569
21
-101.67
0
LINE
8
BLACK
6
CONTINUOUS
10
143.569
20
-101.67
11
143.745
21
-101.687
0
LINE
8
BLACK
6
CONTINUOUS
10
148.063
20
-101.687
11
148.289
21
-101.756
0
LINE
8
BLACK
6
CONTINUOUS
10
148.289
20
-101.756
11
148.498
21
-101.867
0
LINE
8
BLACK
6
CONTINUOUS
10
148.498
20
-101.867
11
148.681
21
-102.017
0
LINE
8
BLACK
6
CONTINUOUS
10
148.681
20
-102.017
11
148.831
21
-102.2
0
LINE
8
BLACK
6
CONTINUOUS
10
148.831
20
-102.2
11
148.942
21
-102.409
0
LINE
8
BLACK
6
CONTINUOUS
10
148.942
20
-102.409
11
149.011
21
-102.635
0
LINE
8
BLACK
6
CONTINUOUS
10
149.011
20
-102.635
11
149.034
21
-102.87
0
LINE
8
BLACK
6
CONTINUOUS
10
149.034
20
-102.87
11
149.011
21
-103.105
0
LINE
8
BLACK
6
CONTINUOUS
10
149.011
20
-103.105
11
148.942
21
-103.331
0
LINE
8
BLACK
6
CONTINUOUS
10
148.942
20
-103.331
11
148.831
21
-103.54
0
LINE
8
BLACK
6
CONTINUOUS
10
148.831
20
-103.54
11
148.681
21
-103.723
0
LINE
8
BLACK
6
CONTINUOUS
10
148.681
20
-103.723
11
148.498
21
-103.873
0
LINE
8
BLACK
6
CONTINUOUS
10
148.498
20
-103.873
11
148.289
21
-103.984
0
LINE
8
BLACK
6
CONTINUOUS
10
148.289
20
-103.984
11
148.063
21
-104.053
0
LINE
8
BLACK
6
CONTINUOUS
10
148.063
20
-104.053
11
147.887
21
-104.07
0
LINE
8
BLACK
6
CONTINUOUS
10
147.887
20
-104.07
11
147.769
21
-104.07
0
LINE
8
BLACK
6
CONTINUOUS
10
147.769
20
-104.07
11
147.593
21
-104.053
0
LINE
8
BLACK
6
CONTINUOUS
10
147.593
20
-104.053
11
147.367
21
-103.984
0
LINE
8
BLACK
6
CONTINUOUS
10
147.367
20
-103.984
11
147.158
21
-103.873
0
LINE
8
BLACK
6
CONTINUOUS
10
147.158
20
-103.873
11
146.975
21
-103.723
0
LINE
8
BLACK
6
CONTINUOUS
10
146.975
20
-103.723
11
146.825
21
-103.54
0
LINE
8
BLACK
6
CONTINUOUS
10
146.825
20
-103.54
11
146.714
21
-103.331
0
LINE
8
BLACK
6
CONTINUOUS
10
146.714
20
-103.331
11
146.645
21
-103.105
0
LINE
8
BLACK
6
CONTINUOUS
10
146.645
20
-103.105
11
146.622
21
-102.87
0
LINE
8
BLACK
6
CONTINUOUS
10
146.622
20
-102.87
11
146.645
21
-102.635
0
LINE
8
BLACK
6
CONTINUOUS
10
146.645
20
-102.635
11
146.714
21
-102.409
0
LINE
8
BLACK
6
CONTINUOUS
10
146.714
20
-102.409
11
146.825
21
-102.2
0
LINE
8
BLACK
6
CONTINUOUS
10
146.825
20
-102.2
11
146.975
21
-102.017
0
LINE
8
BLACK
6
CONTINUOUS
10
146.975
20
-102.017
11
147.158
21
-101.867
0
LINE
8
BLACK
6
CONTINUOUS
10
147.158
20
-101.867
11
147.367
21
-101.756
0
LINE
8
BLACK
6
CONTINUOUS
10
147.367
20
-101.756
11
147.593
21
-101.687
0
LINE
8
BLACK
6
CONTINUOUS
10
147.593
20
-101.687
11
147.769
21
-101.67
0
LINE
8
BLACK
6
CONTINUOUS
10
147.769
20
-101.67
11
147.887
21
-101.67
0
LINE
8
BLACK
6
CONTINUOUS
10
147.887
20
-101.67
11
148.063
21
-101.687
0
LINE
8
BLACK
6
CONTINUOUS
10
152.381
20
-101.687
11
152.607
21
-101.756
0
LINE
8
BLACK
6
CONTINUOUS
10
152.607
20
-101.756
11
152.816
21
-101.867
0
LINE
8
BLACK
6
CONTINUOUS
10
152.816
20
-101.867
11
152.999
21
-102.017
0
LINE
8
BLACK
6
CONTINUOUS
10
152.999
20
-102.017
11
153.149
21
-102.2
0
LINE
8
BLACK
6
CONTINUOUS
10
153.149
20
-102.2
11
153.26
21
-102.409
0
LINE
8
BLACK
6
CONTINUOUS
10
153.26
20
-102.409
11
153.329
21
-102.635
0
LINE
8
BLACK
6
CONTINUOUS
10
153.329
20
-102.635
11
153.352
21
-102.87
0
LINE
8
BLACK
6
CONTINUOUS
10
153.352
20
-102.87
11
153.329
21
-103.105
0
LINE
8
BLACK
6
CONTINUOUS
10
153.329
20
-103.105
11
153.26
21
-103.331
0
LINE
8
BLACK
6
CONTINUOUS
10
153.26
20
-103.331
11
153.149
21
-103.54
0
LINE
8
BLACK
6
CONTINUOUS
10
153.149
20
-103.54
11
152.999
21
-103.723
0
LINE
8
BLACK
6
CONTINUOUS
10
152.999
20
-103.723
11
152.816
21
-103.873
0
LINE
8
BLACK
6
CONTINUOUS
10
152.816
20
-103.873
11
152.607
21
-103.984
0
LINE
8
BLACK
6
CONTINUOUS
10
152.607
20
-103.984
11
152.381
21
-104.053
0
LINE
8
BLACK
6
CONTINUOUS
10
152.381
20
-104.053
11
152.205
21
-104.07
0
LINE
8
BLACK
6
CONTINUOUS
10
152.205
20
-104.07
11
152.087
21
-104.07
0
LINE
8
BLACK
6
CONTINUOUS
10
152.087
20
-104.07
11
151.911
21
-104.053
0
LINE
8
BLACK
6
CONTINUOUS
10
151.911
20
-104.053
11
151.685
21
-103.984
0
LINE
8
BLACK
6
CONTINUOUS
10
151.685
20
-103.984
11
151.476
21
-103.873
0
LINE
8
BLACK
6
CONTINUOUS
10
151.476
20
-103.873
11
151.293
21
-103.723
0
LINE
8
BLACK
6
CONTINUOUS
10
151.293
20
-103.723
11
151.143
21
-103.54
0
LINE
8
BLACK
6
CONTINUOUS
10
151.143
20
-103.54
11
151.032
21
-103.331
0
LINE
8
BLACK
6
CONTINUOUS
10
151.032
20
-103.331
11
150.963
21
-103.105
0
LINE
8
BLACK
6
CONTINUOUS
10
150.963
20
-103.105
11
150.94
21
-102.87
0
LINE
8
BLACK
6
CONTINUOUS
10
150.94
20
-102.87
11
150.963
21
-102.635
0
LINE
8
BLACK
6
CONTINUOUS
10
150.963
20
-102.635
11
151.032
21
-102.409
0
LINE
8
BLACK
6
CONTINUOUS
10
151.032
20
-102.409
11
151.143
21
-102.2
0
LINE
8
BLACK
6
CONTINUOUS
10
151.143
20
-102.2
11
151.293
21
-102.017
0
LINE
8
BLACK
6
CONTINUOUS
10
151.293
20
-102.017
11
151.476
21
-101.867
0
LINE
8
BLACK
6
CONTINUOUS
10
151.476
20
-101.867
11
151.685
21
-101.756
0
LINE
8
BLACK
6
CONTINUOUS
10
151.685
20
-101.756
11
151.911
21
-101.687
0
LINE
8
BLACK
6
CONTINUOUS
10
151.911
20
-101.687
11
152.087
21
-101.67
0
LINE
8
BLACK
6
CONTINUOUS
10
152.087
20
-101.67
11
152.205
21
-101.67
0
LINE
8
BLACK
6
CONTINUOUS
10
152.205
20
-101.67
11
152.381
21
-101.687
0
LINE
8
BLACK
6
CONTINUOUS
10
163.66
20
-103.97
11
161.46
21
-103.97
0
LINE
8
BLACK
6
CONTINUOUS
10
161.46
20
-103.97
11
161.46
21
-101.77
0
LINE
8
BLACK
6
CONTINUOUS
10
161.46
20
-101.77
11
163.66
21
-101.77
0
LINE
8
BLACK
6
CONTINUOUS
10
163.66
20
-101.77
11
163.66
21
-103.97
0
LINE
8
BLACK
6
CONTINUOUS
10
159.596
20
-103.97
11
157.396
21
-103.97
0
LINE
8
BLACK
6
CONTINUOUS
10
157.396
20
-103.97
11
157.396
21
-101.77
0
LINE
8
BLACK
6
CONTINUOUS
10
157.396
20
-101.77
11
159.596
21
-101.77
0
LINE
8
BLACK
6
CONTINUOUS
10
159.596
20
-101.77
11
159.596
21
-103.97
0
LINE
8
BLACK
6
CONTINUOUS
10
117.532
20
-100.666
11
117.805
21
-100.779
0
LINE
8
BLACK
6
CONTINUOUS
10
117.805
20
-100.779
11
118.05
21
-100.943
0
LINE
8
BLACK
6
CONTINUOUS
10
118.05
20
-100.943
11
118.259
21
-101.152
0
LINE
8
BLACK
6
CONTINUOUS
10
118.259
20
-101.152
11
118.423
21
-101.397
0
LINE
8
BLACK
6
CONTINUOUS
10
118.423
20
-101.397
11
118.536
21
-101.67
0
LINE
8
BLACK
6
CONTINUOUS
10
118.536
20
-101.67
11
118.594
21
-101.96
0
LINE
8
BLACK
6
CONTINUOUS
10
118.594
20
-101.96
11
118.594
21
-102.256
0
LINE
8
BLACK
6
CONTINUOUS
10
118.594
20
-102.256
11
118.536
21
-102.546
0
LINE
8
BLACK
6
CONTINUOUS
10
118.536
20
-102.546
11
118.423
21
-102.819
0
LINE
8
BLACK
6
CONTINUOUS
10
118.423
20
-102.819
11
118.259
21
-103.064
0
LINE
8
BLACK
6
CONTINUOUS
10
118.259
20
-103.064
11
118.05
21
-103.273
0
LINE
8
BLACK
6
CONTINUOUS
10
118.05
20
-103.273
11
117.805
21
-103.437
0
LINE
8
BLACK
6
CONTINUOUS
10
117.805
20
-103.437
11
117.532
21
-103.55
0
LINE
8
BLACK
6
CONTINUOUS
10
117.532
20
-103.55
11
117.242
21
-103.608
0
LINE
8
BLACK
6
CONTINUOUS
10
117.242
20
-103.608
11
116.946
21
-103.608
0
LINE
8
BLACK
6
CONTINUOUS
10
116.946
20
-103.608
11
116.656
21
-103.55
0
LINE
8
BLACK
6
CONTINUOUS
10
116.656
20
-103.55
11
116.383
21
-103.437
0
LINE
8
BLACK
6
CONTINUOUS
10
116.383
20
-103.437
11
116.138
21
-103.273
0
LINE
8
BLACK
6
CONTINUOUS
10
116.138
20
-103.273
11
115.929
21
-103.064
0
LINE
8
BLACK
6
CONTINUOUS
10
115.929
20
-103.064
11
115.765
21
-102.819
0
LINE
8
BLACK
6
CONTINUOUS
10
115.765
20
-102.819
11
115.652
21
-102.546
0
LINE
8
BLACK
6
CONTINUOUS
10
115.652
20
-102.546
11
115.594
21
-102.256
0
LINE
8
BLACK
6
CONTINUOUS
10
115.594
20
-102.256
11
115.594
21
-101.96
0
LINE
8
BLACK
6
CONTINUOUS
10
115.594
20
-101.96
11
115.652
21
-101.67
0
LINE
8
BLACK
6
CONTINUOUS
10
115.652
20
-101.67
11
115.765
21
-101.397
0
LINE
8
BLACK
6
CONTINUOUS
10
115.765
20
-101.397
11
115.929
21
-101.152
0
LINE
8
BLACK
6
CONTINUOUS
10
115.929
20
-101.152
11
116.138
21
-100.943
0
LINE
8
BLACK
6
CONTINUOUS
10
116.138
20
-100.943
11
116.383
21
-100.779
0
LINE
8
BLACK
6
CONTINUOUS
10
116.383
20
-100.779
11
116.656
21
-100.666
0
LINE
8
BLACK
6
CONTINUOUS
10
116.656
20
-100.666
11
116.946
21
-100.608
0
LINE
8
BLACK
6
CONTINUOUS
10
116.946
20
-100.608
11
117.242
21
-100.608
0
LINE
8
BLACK
6
CONTINUOUS
10
117.242
20
-100.608
11
117.532
21
-100.666
0
LINE
8
BLACK
6
CONTINUOUS
10
124.544
20
-103.208
11
122.344
21
-103.208
0
LINE
8
BLACK
6
CONTINUOUS
10
122.344
20
-103.208
11
122.344
21
-101.008
0
LINE
8
BLACK
6
CONTINUOUS
10
122.344
20
-101.008
11
124.544
21
-101.008
0
LINE
8
BLACK
6
CONTINUOUS
10
124.544
20
-101.008
11
124.544
21
-103.208
0
LINE
8
BLACK
6
CONTINUOUS
10
163.66
20
-101.43
11
161.46
21
-101.43
0
LINE
8
BLACK
6
CONTINUOUS
10
161.46
20
-101.43
11
161.46
21
-99.23
0
LINE
8
BLACK
6
CONTINUOUS
10
161.46
20
-99.23
11
163.66
21
-99.23
0
LINE
8
BLACK
6
CONTINUOUS
10
163.66
20
-99.23
11
163.66
21
-101.43
0
LINE
8
BLACK
6
CONTINUOUS
10
159.596
20
-101.43
11
157.396
21
-101.43
0
LINE
8
BLACK
6
CONTINUOUS
10
157.396
20
-101.43
11
157.396
21
-99.23
0
LINE
8
BLACK
6
CONTINUOUS
10
157.396
20
-99.23
11
159.596
21
-99.23
0
LINE
8
BLACK
6
CONTINUOUS
10
159.596
20
-99.23
11
159.596
21
-101.43
0
LINE
8
BLACK
6
CONTINUOUS
10
163.66
20
-98.89
11
161.46
21
-98.89
0
LINE
8
BLACK
6
CONTINUOUS
10
161.46
20
-98.89
11
161.46
21
-96.69
0
LINE
8
BLACK
6
CONTINUOUS
10
161.46
20
-96.69
11
163.66
21
-96.69
0
LINE
8
BLACK
6
CONTINUOUS
10
163.66
20
-96.69
11
163.66
21
-98.89
0
LINE
8
BLACK
6
CONTINUOUS
10
159.596
20
-98.89
11
157.396
21
-98.89
0
LINE
8
BLACK
6
CONTINUOUS
10
157.396
20
-98.89
11
157.396
21
-96.69
0
LINE
8
BLACK
6
CONTINUOUS
10
157.396
20
-96.69
11
159.596
21
-96.69
0
LINE
8
BLACK
6
CONTINUOUS
10
159.596
20
-96.69
11
159.596
21
-98.89
0
LINE
8
BLACK
6
CONTINUOUS
10
163.66
20
-96.35
11
161.46
21
-96.35
0
LINE
8
BLACK
6
CONTINUOUS
10
161.46
20
-96.35
11
161.46
21
-94.15
0
LINE
8
BLACK
6
CONTINUOUS
10
161.46
20
-94.15
11
163.66
21
-94.15
0
LINE
8
BLACK
6
CONTINUOUS
10
163.66
20
-94.15
11
163.66
21
-96.35
0
LINE
8
BLACK
6
CONTINUOUS
10
159.596
20
-96.35
11
157.396
21
-96.35
0
LINE
8
BLACK
6
CONTINUOUS
10
157.396
20
-96.35
11
157.396
21
-94.15
0
LINE
8
BLACK
6
CONTINUOUS
10
157.396
20
-94.15
11
159.596
21
-94.15
0
LINE
8
BLACK
6
CONTINUOUS
10
159.596
20
-94.15
11
159.596
21
-96.35
0
LINE
8
BLACK
6
CONTINUOUS
10
116.67
20
-95.588
11
114.47
21
-95.588
0
LINE
8
BLACK
6
CONTINUOUS
10
114.47
20
-95.588
11
114.47
21
-93.388
0
LINE
8
BLACK
6
CONTINUOUS
10
114.47
20
-93.388
11
116.67
21
-93.388
0
LINE
8
BLACK
6
CONTINUOUS
10
116.67
20
-93.388
11
116.67
21
-95.588
0
LINE
8
BLACK
6
CONTINUOUS
10
134.704
20
-95.334
11
132.504
21
-95.334
0
LINE
8
BLACK
6
CONTINUOUS
10
132.504
20
-95.334
11
132.504
21
-93.134
0
LINE
8
BLACK
6
CONTINUOUS
10
132.504
20
-93.134
11
134.704
21
-93.134
0
LINE
8
BLACK
6
CONTINUOUS
10
134.704
20
-93.134
11
134.704
21
-95.334
0
LINE
8
BLACK
6
CONTINUOUS
10
125.56
20
-95.334
11
123.36
21
-95.334
0
LINE
8
BLACK
6
CONTINUOUS
10
123.36
20
-95.334
11
123.36
21
-93.134
0
LINE
8
BLACK
6
CONTINUOUS
10
123.36
20
-93.134
11
125.56
21
-93.134
0
LINE
8
BLACK
6
CONTINUOUS
10
125.56
20
-93.134
11
125.56
21
-95.334
0
LINE
8
BLACK
6
CONTINUOUS
10
129.128
20
-92.5721
11
129.346
21
-92.6626
0
LINE
8
BLACK
6
CONTINUOUS
10
129.346
20
-92.6626
11
129.543
21
-92.7939
0
LINE
8
BLACK
6
CONTINUOUS
10
129.543
20
-92.7939
11
129.71
21
-92.961
0
LINE
8
BLACK
6
CONTINUOUS
10
129.71
20
-92.961
11
129.841
21
-93.1576
0
LINE
8
BLACK
6
CONTINUOUS
10
129.841
20
-93.1576
11
129.932
21
-93.376
0
LINE
8
BLACK
6
CONTINUOUS
10
129.932
20
-93.376
11
129.978
21
-93.6078
0
LINE
8
BLACK
6
CONTINUOUS
10
129.978
20
-93.6078
11
129.978
21
-93.8442
0
LINE
8
BLACK
6
CONTINUOUS
10
129.978
20
-93.8442
11
129.932
21
-94.076
0
LINE
8
BLACK
6
CONTINUOUS
10
129.932
20
-94.076
11
129.841
21
-94.2944
0
LINE
8
BLACK
6
CONTINUOUS
10
129.841
20
-94.2944
11
129.71
21
-94.491
0
LINE
8
BLACK
6
CONTINUOUS
10
129.71
20
-94.491
11
129.543
21
-94.6581
0
LINE
8
BLACK
6
CONTINUOUS
10
129.543
20
-94.6581
11
129.346
21
-94.7894
0
LINE
8
BLACK
6
CONTINUOUS
10
129.346
20
-94.7894
11
129.128
21
-94.8799
0
LINE
8
BLACK
6
CONTINUOUS
10
129.128
20
-94.8799
11
128.896
21
-94.926
0
LINE
8
BLACK
6
CONTINUOUS
10
128.896
20
-94.926
11
128.66
21
-94.926
0
LINE
8
BLACK
6
CONTINUOUS
10
128.66
20
-94.926
11
128.428
21
-94.8799
0
LINE
8
BLACK
6
CONTINUOUS
10
128.428
20
-94.8799
11
128.21
21
-94.7894
0
LINE
8
BLACK
6
CONTINUOUS
10
128.21
20
-94.7894
11
128.013
21
-94.6581
0
LINE
8
BLACK
6
CONTINUOUS
10
128.013
20
-94.6581
11
127.846
21
-94.491
0
LINE
8
BLACK
6
CONTINUOUS
10
127.846
20
-94.491
11
127.715
21
-94.2944
0
LINE
8
BLACK
6
CONTINUOUS
10
127.715
20
-94.2944
11
127.624
21
-94.076
0
LINE
8
BLACK
6
CONTINUOUS
10
127.624
20
-94.076
11
127.578
21
-93.8442
0
LINE
8
BLACK
6
CONTINUOUS
10
127.578
20
-93.8442
11
127.578
21
-93.6078
0
LINE
8
BLACK
6
CONTINUOUS
10
127.578
20
-93.6078
11
127.624
21
-93.376
0
LINE
8
BLACK
6
CONTINUOUS
10
127.624
20
-93.376
11
127.715
21
-93.1576
0
LINE
8
BLACK
6
CONTINUOUS
10
127.715
20
-93.1576
11
127.846
21
-92.961
0
LINE
8
BLACK
6
CONTINUOUS
10
127.846
20
-92.961
11
128.013
21
-92.7939
0
LINE
8
BLACK
6
CONTINUOUS
10
128.013
20
-92.7939
11
128.21
21
-92.6626
0
LINE
8
BLACK
6
CONTINUOUS
10
128.21
20
-92.6626
11
128.428
21
-92.5721
0
LINE
8
BLACK
6
CONTINUOUS
10
128.428
20
-92.5721
11
128.66
21
-92.526
0
LINE
8
BLACK
6
CONTINUOUS
10
128.66
20
-92.526
11
128.896
21
-92.526
0
LINE
8
BLACK
6
CONTINUOUS
10
128.896
20
-92.526
11
129.128
21
-92.5721
0
LINE
8
BLACK
6
CONTINUOUS
10
159.596
20
-93.81
11
157.396
21
-93.81
0
LINE
8
BLACK
6
CONTINUOUS
10
157.396
20
-93.81
11
157.396
21
-91.61
0
LINE
8
BLACK
6
CONTINUOUS
10
157.396
20
-91.61
11
159.596
21
-91.61
0
LINE
8
BLACK
6
CONTINUOUS
10
159.596
20
-91.61
11
159.596
21
-93.81
0
LINE
8
BLACK
6
CONTINUOUS
10
116.67
20
-93.048
11
114.47
21
-93.048
0
LINE
8
BLACK
6
CONTINUOUS
10
114.47
20
-93.048
11
114.47
21
-90.848
0
LINE
8
BLACK
6
CONTINUOUS
10
114.47
20
-90.848
11
116.67
21
-90.848
0
LINE
8
BLACK
6
CONTINUOUS
10
116.67
20
-90.848
11
116.67
21
-93.048
0
LINE
8
BLACK
6
CONTINUOUS
10
125.56
20
-92.794
11
123.36
21
-92.794
0
LINE
8
BLACK
6
CONTINUOUS
10
123.36
20
-92.794
11
123.36
21
-90.594
0
LINE
8
BLACK
6
CONTINUOUS
10
123.36
20
-90.594
11
125.56
21
-90.594
0
LINE
8
BLACK
6
CONTINUOUS
10
125.56
20
-90.594
11
125.56
21
-92.794
0
LINE
8
BLACK
6
CONTINUOUS
10
134.704
20
-92.794
11
132.504
21
-92.794
0
LINE
8
BLACK
6
CONTINUOUS
10
132.504
20
-92.794
11
132.504
21
-90.594
0
LINE
8
BLACK
6
CONTINUOUS
10
132.504
20
-90.594
11
134.704
21
-90.594
0
LINE
8
BLACK
6
CONTINUOUS
10
134.704
20
-90.594
11
134.704
21
-92.794
0
LINE
8
BLACK
6
CONTINUOUS
10
159.596
20
-91.27
11
157.396
21
-91.27
0
LINE
8
BLACK
6
CONTINUOUS
10
157.396
20
-91.27
11
157.396
21
-89.07
0
LINE
8
BLACK
6
CONTINUOUS
10
157.396
20
-89.07
11
159.596
21
-89.07
0
LINE
8
BLACK
6
CONTINUOUS
10
159.596
20
-89.07
11
159.596
21
-91.27
0
LINE
8
BLACK
6
CONTINUOUS
10
116.67
20
-90.508
11
114.47
21
-90.508
0
LINE
8
BLACK
6
CONTINUOUS
10
114.47
20
-90.508
11
114.47
21
-88.308
0
LINE
8
BLACK
6
CONTINUOUS
10
114.47
20
-88.308
11
116.67
21
-88.308
0
LINE
8
BLACK
6
CONTINUOUS
10
116.67
20
-88.308
11
116.67
21
-90.508
0
LINE
8
BLACK
6
CONTINUOUS
10
125.56
20
-90.254
11
123.36
21
-90.254
0
LINE
8
BLACK
6
CONTINUOUS
10
123.36
20
-90.254
11
123.36
21
-88.054
0
LINE
8
BLACK
6
CONTINUOUS
10
123.36
20
-88.054
11
125.56
21
-88.054
0
LINE
8
BLACK
6
CONTINUOUS
10
125.56
20
-88.054
11
125.56
21
-90.254
0
LINE
8
BLACK
6
CONTINUOUS
10
134.704
20
-90.254
11
132.504
21
-90.254
0
LINE
8
BLACK
6
CONTINUOUS
10
132.504
20
-90.254
11
132.504
21
-88.054
0
LINE
8
BLACK
6
CONTINUOUS
10
132.504
20
-88.054
11
134.704
21
-88.054
0
LINE
8
BLACK
6
CONTINUOUS
10
134.704
20
-88.054
11
134.704
21
-90.254
0
LINE
8
BLACK
6
CONTINUOUS
10
139.542
20
-86.4761
11
139.76
21
-86.5666
0
LINE
8
BLACK
6
CONTINUOUS
10
139.76
20
-86.5666
11
139.957
21
-86.6979
0
LINE
8
BLACK
6
CONTINUOUS
10
139.957
20
-86.6979
11
140.124
21
-86.865
0
LINE
8
BLACK
6
CONTINUOUS
10
140.124
20
-86.865
11
140.255
21
-87.0616
0
LINE
8
BLACK
6
CONTINUOUS
10
140.255
20
-87.0616
11
140.346
21
-87.28
0
LINE
8
BLACK
6
CONTINUOUS
10
140.346
20
-87.28
11
140.392
21
-87.5118
0
LINE
8
BLACK
6
CONTINUOUS
10
140.392
20
-87.5118
11
140.392
21
-87.7482
0
LINE
8
BLACK
6
CONTINUOUS
10
140.392
20
-87.7482
11
140.346
21
-87.98
0
LINE
8
BLACK
6
CONTINUOUS
10
140.346
20
-87.98
11
140.255
21
-88.1984
0
LINE
8
BLACK
6
CONTINUOUS
10
140.255
20
-88.1984
11
140.124
21
-88.395
0
LINE
8
BLACK
6
CONTINUOUS
10
140.124
20
-88.395
11
139.957
21
-88.5621
0
LINE
8
BLACK
6
CONTINUOUS
10
139.957
20
-88.5621
11
139.76
21
-88.6934
0
LINE
8
BLACK
6
CONTINUOUS
10
139.76
20
-88.6934
11
139.542
21
-88.7839
0
LINE
8
BLACK
6
CONTINUOUS
10
139.542
20
-88.7839
11
139.31
21
-88.83
0
LINE
8
BLACK
6
CONTINUOUS
10
139.31
20
-88.83
11
139.074
21
-88.83
0
LINE
8
BLACK
6
CONTINUOUS
10
139.074
20
-88.83
11
138.842
21
-88.7839
0
LINE
8
BLACK
6
CONTINUOUS
10
138.842
20
-88.7839
11
138.624
21
-88.6934
0
LINE
8
BLACK
6
CONTINUOUS
10
138.624
20
-88.6934
11
138.427
21
-88.5621
0
LINE
8
BLACK
6
CONTINUOUS
10
138.427
20
-88.5621
11
138.26
21
-88.395
0
LINE
8
BLACK
6
CONTINUOUS
10
138.26
20
-88.395
11
138.129
21
-88.1984
0
LINE
8
BLACK
6
CONTINUOUS
10
138.129
20
-88.1984
11
138.038
21
-87.98
0
LINE
8
BLACK
6
CONTINUOUS
10
138.038
20
-87.98
11
137.992
21
-87.7482
0
LINE
8
BLACK
6
CONTINUOUS
10
137.992
20
-87.7482
11
137.992
21
-87.5118
0
LINE
8
BLACK
6
CONTINUOUS
10
137.992
20
-87.5118
11
138.038
21
-87.28
0
LINE
8
BLACK
6
CONTINUOUS
10
138.038
20
-87.28
11
138.129
21
-87.0616
0
LINE
8
BLACK
6
CONTINUOUS
10
138.129
20
-87.0616
11
138.26
21
-86.865
0
LINE
8
BLACK
6
CONTINUOUS
10
138.26
20
-86.865
11
138.427
21
-86.6979
0
LINE
8
BLACK
6
CONTINUOUS
10
138.427
20
-86.6979
11
138.624
21
-86.5666
0
LINE
8
BLACK
6
CONTINUOUS
10
138.624
20
-86.5666
11
138.842
21
-86.4761
0
LINE
8
BLACK
6
CONTINUOUS
10
138.842
20
-86.4761
11
139.074
21
-86.43
0
LINE
8
BLACK
6
CONTINUOUS
10
139.074
20
-86.43
11
139.31
21
-86.43
0
LINE
8
BLACK
6
CONTINUOUS
10
139.31
20
-86.43
11
139.542
21
-86.4761
0
LINE
8
BLACK
6
CONTINUOUS
10
143.86
20
-86.4761
11
144.078
21
-86.5666
0
LINE
8
BLACK
6
CONTINUOUS
10
144.078
20
-86.5666
11
144.275
21
-86.6979
0
LINE
8
BLACK
6
CONTINUOUS
10
144.275
20
-86.6979
11
144.442
21
-86.865
0
LINE
8
BLACK
6
CONTINUOUS
10
144.442
20
-86.865
11
144.573
21
-87.0616
0
LINE
8
BLACK
6
CONTINUOUS
10
144.573
20
-87.0616
11
144.664
21
-87.28
0
LINE
8
BLACK
6
CONTINUOUS
10
144.664
20
-87.28
11
144.71
21
-87.5118
0
LINE
8
BLACK
6
CONTINUOUS
10
144.71
20
-87.5118
11
144.71
21
-87.7482
0
LINE
8
BLACK
6
CONTINUOUS
10
144.71
20
-87.7482
11
144.664
21
-87.98
0
LINE
8
BLACK
6
CONTINUOUS
10
144.664
20
-87.98
11
144.573
21
-88.1984
0
LINE
8
BLACK
6
CONTINUOUS
10
144.573
20
-88.1984
11
144.442
21
-88.395
0
LINE
8
BLACK
6
CONTINUOUS
10
144.442
20
-88.395
11
144.275
21
-88.5621
0
LINE
8
BLACK
6
CONTINUOUS
10
144.275
20
-88.5621
11
144.078
21
-88.6934
0
LINE
8
BLACK
6
CONTINUOUS
10
144.078
20
-88.6934
11
143.86
21
-88.7839
0
LINE
8
BLACK
6
CONTINUOUS
10
143.86
20
-88.7839
11
143.628
21
-88.83
0
LINE
8
BLACK
6
CONTINUOUS
10
143.628
20
-88.83
11
143.392
21
-88.83
0
LINE
8
BLACK
6
CONTINUOUS
10
143.392
20
-88.83
11
143.16
21
-88.7839
0
LINE
8
BLACK
6
CONTINUOUS
10
143.16
20
-88.7839
11
142.942
21
-88.6934
0
LINE
8
BLACK
6
CONTINUOUS
10
142.942
20
-88.6934
11
142.745
21
-88.5621
0
LINE
8
BLACK
6
CONTINUOUS
10
142.745
20
-88.5621
11
142.578
21
-88.395
0
LINE
8
BLACK
6
CONTINUOUS
10
142.578
20
-88.395
11
142.447
21
-88.1984
0
LINE
8
BLACK
6
CONTINUOUS
10
142.447
20
-88.1984
11
142.356
21
-87.98
0
LINE
8
BLACK
6
CONTINUOUS
10
142.356
20
-87.98
11
142.31
21
-87.7482
0
LINE
8
BLACK
6
CONTINUOUS
10
142.31
20
-87.7482
11
142.31
21
-87.5118
0
LINE
8
BLACK
6
CONTINUOUS
10
142.31
20
-87.5118
11
142.356
21
-87.28
0
LINE
8
BLACK
6
CONTINUOUS
10
142.356
20
-87.28
11
142.447
21
-87.0616
0
LINE
8
BLACK
6
CONTINUOUS
10
142.447
20
-87.0616
11
142.578
21
-86.865
0
LINE
8
BLACK
6
CONTINUOUS
10
142.578
20
-86.865
11
142.745
21
-86.6979
0
LINE
8
BLACK
6
CONTINUOUS
10
142.745
20
-86.6979
11
142.942
21
-86.5666
0
LINE
8
BLACK
6
CONTINUOUS
10
142.942
20
-86.5666
11
143.16
21
-86.4761
0
LINE
8
BLACK
6
CONTINUOUS
10
143.16
20
-86.4761
11
143.392
21
-86.43
0
LINE
8
BLACK
6
CONTINUOUS
10
143.392
20
-86.43
11
143.628
21
-86.43
0
LINE
8
BLACK
6
CONTINUOUS
10
143.628
20
-86.43
11
143.86
21
-86.4761
0
LINE
8
BLACK
6
CONTINUOUS
10
148.178
20
-86.4761
11
148.396
21
-86.5666
0
LINE
8
BLACK
6
CONTINUOUS
10
148.396
20
-86.5666
11
148.593
21
-86.6979
0
LINE
8
BLACK
6
CONTINUOUS
10
148.593
20
-86.6979
11
148.76
21
-86.865
0
LINE
8
BLACK
6
CONTINUOUS
10
148.76
20
-86.865
11
148.891
21
-87.0616
0
LINE
8
BLACK
6
CONTINUOUS
10
148.891
20
-87.0616
11
148.982
21
-87.28
0
LINE
8
BLACK
6
CONTINUOUS
10
148.982
20
-87.28
11
149.028
21
-87.5118
0
LINE
8
BLACK
6
CONTINUOUS
10
149.028
20
-87.5118
11
149.028
21
-87.7482
0
LINE
8
BLACK
6
CONTINUOUS
10
149.028
20
-87.7482
11
148.982
21
-87.98
0
LINE
8
BLACK
6
CONTINUOUS
10
148.982
20
-87.98
11
148.891
21
-88.1984
0
LINE
8
BLACK
6
CONTINUOUS
10
148.891
20
-88.1984
11
148.76
21
-88.395
0
LINE
8
BLACK
6
CONTINUOUS
10
148.76
20
-88.395
11
148.593
21
-88.5621
0
LINE
8
BLACK
6
CONTINUOUS
10
148.593
20
-88.5621
11
148.396
21
-88.6934
0
LINE
8
BLACK
6
CONTINUOUS
10
148.396
20
-88.6934
11
148.178
21
-88.7839
0
LINE
8
BLACK
6
CONTINUOUS
10
148.178
20
-88.7839
11
147.946
21
-88.83
0
LINE
8
BLACK
6
CONTINUOUS
10
147.946
20
-88.83
11
147.71
21
-88.83
0
LINE
8
BLACK
6
CONTINUOUS
10
147.71
20
-88.83
11
147.478
21
-88.7839
0
LINE
8
BLACK
6
CONTINUOUS
10
147.478
20
-88.7839
11
147.26
21
-88.6934
0
LINE
8
BLACK
6
CONTINUOUS
10
147.26
20
-88.6934
11
147.063
21
-88.5621
0
LINE
8
BLACK
6
CONTINUOUS
10
147.063
20
-88.5621
11
146.896
21
-88.395
0
LINE
8
BLACK
6
CONTINUOUS
10
146.896
20
-88.395
11
146.765
21
-88.1984
0
LINE
8
BLACK
6
CONTINUOUS
10
146.765
20
-88.1984
11
146.674
21
-87.98
0
LINE
8
BLACK
6
CONTINUOUS
10
146.674
20
-87.98
11
146.628
21
-87.7482
0
LINE
8
BLACK
6
CONTINUOUS
10
146.628
20
-87.7482
11
146.628
21
-87.5118
0
LINE
8
BLACK
6
CONTINUOUS
10
146.628
20
-87.5118
11
146.674
21
-87.28
0
LINE
8
BLACK
6
CONTINUOUS
10
146.674
20
-87.28
11
146.765
21
-87.0616
0
LINE
8
BLACK
6
CONTINUOUS
10
146.765
20
-87.0616
11
146.896
21
-86.865
0
LINE
8
BLACK
6
CONTINUOUS
10
146.896
20
-86.865
11
147.063
21
-86.6979
0
LINE
8
BLACK
6
CONTINUOUS
10
147.063
20
-86.6979
11
147.26
21
-86.5666
0
LINE
8
BLACK
6
CONTINUOUS
10
147.26
20
-86.5666
11
147.478
21
-86.4761
0
LINE
8
BLACK
6
CONTINUOUS
10
147.478
20
-86.4761
11
147.71
21
-86.43
0
LINE
8
BLACK
6
CONTINUOUS
10
147.71
20
-86.43
11
147.946
21
-86.43
0
LINE
8
BLACK
6
CONTINUOUS
10
147.946
20
-86.43
11
148.178
21
-86.4761
0
LINE
8
BLACK
6
CONTINUOUS
10
152.496
20
-86.4761
11
152.714
21
-86.5666
0
LINE
8
BLACK
6
CONTINUOUS
10
152.714
20
-86.5666
11
152.911
21
-86.6979
0
LINE
8
BLACK
6
CONTINUOUS
10
152.911
20
-86.6979
11
153.078
21
-86.865
0
LINE
8
BLACK
6
CONTINUOUS
10
153.078
20
-86.865
11
153.209
21
-87.0616
0
LINE
8
BLACK
6
CONTINUOUS
10
153.209
20
-87.0616
11
153.3
21
-87.28
0
LINE
8
BLACK
6
CONTINUOUS
10
153.3
20
-87.28
11
153.346
21
-87.5118
0
LINE
8
BLACK
6
CONTINUOUS
10
153.346
20
-87.5118
11
153.346
21
-87.7482
0
LINE
8
BLACK
6
CONTINUOUS
10
153.346
20
-87.7482
11
153.3
21
-87.98
0
LINE
8
BLACK
6
CONTINUOUS
10
153.3
20
-87.98
11
153.209
21
-88.1984
0
LINE
8
BLACK
6
CONTINUOUS
10
153.209
20
-88.1984
11
153.078
21
-88.395
0
LINE
8
BLACK
6
CONTINUOUS
10
153.078
20
-88.395
11
152.911
21
-88.5621
0
LINE
8
BLACK
6
CONTINUOUS
10
152.911
20
-88.5621
11
152.714
21
-88.6934
0
LINE
8
BLACK
6
CONTINUOUS
10
152.714
20
-88.6934
11
152.496
21
-88.7839
0
LINE
8
BLACK
6
CONTINUOUS
10
152.496
20
-88.7839
11
152.264
21
-88.83
0
LINE
8
BLACK
6
CONTINUOUS
10
152.264
20
-88.83
11
152.028
21
-88.83
0
LINE
8
BLACK
6
CONTINUOUS
10
152.028
20
-88.83
11
151.796
21
-88.7839
0
LINE
8
BLACK
6
CONTINUOUS
10
151.796
20
-88.7839
11
151.578
21
-88.6934
0
LINE
8
BLACK
6
CONTINUOUS
10
151.578
20
-88.6934
11
151.381
21
-88.5621
0
LINE
8
BLACK
6
CONTINUOUS
10
151.381
20
-88.5621
11
151.214
21
-88.395
0
LINE
8
BLACK
6
CONTINUOUS
10
151.214
20
-88.395
11
151.083
21
-88.1984
0
LINE
8
BLACK
6
CONTINUOUS
10
151.083
20
-88.1984
11
150.992
21
-87.98
0
LINE
8
BLACK
6
CONTINUOUS
10
150.992
20
-87.98
11
150.946
21
-87.7482
0
LINE
8
BLACK
6
CONTINUOUS
10
150.946
20
-87.7482
11
150.946
21
-87.5118
0
LINE
8
BLACK
6
CONTINUOUS
10
150.946
20
-87.5118
11
150.992
21
-87.28
0
LINE
8
BLACK
6
CONTINUOUS
10
150.992
20
-87.28
11
151.083
21
-87.0616
0
LINE
8
BLACK
6
CONTINUOUS
10
151.083
20
-87.0616
11
151.214
21
-86.865
0
LINE
8
BLACK
6
CONTINUOUS
10
151.214
20
-86.865
11
151.381
21
-86.6979
0
LINE
8
BLACK
6
CONTINUOUS
10
151.381
20
-86.6979
11
151.578
21
-86.5666
0
LINE
8
BLACK
6
CONTINUOUS
10
151.578
20
-86.5666
11
151.796
21
-86.4761
0
LINE
8
BLACK
6
CONTINUOUS
10
151.796
20
-86.4761
11
152.028
21
-86.43
0
LINE
8
BLACK
6
CONTINUOUS
10
152.028
20
-86.43
11
152.264
21
-86.43
0
LINE
8
BLACK
6
CONTINUOUS
10
152.264
20
-86.43
11
152.496
21
-86.4761
0
LINE
8
BLACK
6
CONTINUOUS
10
159.596
20
-88.73
11
157.396
21
-88.73
0
LINE
8
BLACK
6
CONTINUOUS
10
157.396
20
-88.73
11
157.396
21
-86.53
0
LINE
8
BLACK
6
CONTINUOUS
10
157.396
20
-86.53
11
159.596
21
-86.53
0
LINE
8
BLACK
6
CONTINUOUS
10
159.596
20
-86.53
11
159.596
21
-88.73
0
LINE
8
BLACK
6
CONTINUOUS
10
116.67
20
-87.968
11
114.47
21
-87.968
0
LINE
8
BLACK
6
CONTINUOUS
10
114.47
20
-87.968
11
114.47
21
-85.768
0
LINE
8
BLACK
6
CONTINUOUS
10
114.47
20
-85.768
11
116.67
21
-85.768
0
LINE
8
BLACK
6
CONTINUOUS
10
116.67
20
-85.768
11
116.67
21
-87.968
0
LINE
8
BLACK
6
CONTINUOUS
10
125.56
20
-87.714
11
123.36
21
-87.714
0
LINE
8
BLACK
6
CONTINUOUS
10
123.36
20
-87.714
11
123.36
21
-85.514
0
LINE
8
BLACK
6
CONTINUOUS
10
123.36
20
-85.514
11
125.56
21
-85.514
0
LINE
8
BLACK
6
CONTINUOUS
10
125.56
20
-85.514
11
125.56
21
-87.714
0
LINE
8
BLACK
6
CONTINUOUS
10
134.704
20
-87.714
11
132.504
21
-87.714
0
LINE
8
BLACK
6
CONTINUOUS
10
132.504
20
-87.714
11
132.504
21
-85.514
0
LINE
8
BLACK
6
CONTINUOUS
10
132.504
20
-85.514
11
134.704
21
-85.514
0
LINE
8
BLACK
6
CONTINUOUS
10
134.704
20
-85.514
11
134.704
21
-87.714
0
LINE
8
BLACK
6
CONTINUOUS
10
159.596
20
-86.19
11
157.396
21
-86.19
0
LINE
8
BLACK
6
CONTINUOUS
10
157.396
20
-86.19
11
157.396
21
-83.99
0
LINE
8
BLACK
6
CONTINUOUS
10
157.396
20
-83.99
11
159.596
21
-83.99
0
LINE
8
BLACK
6
CONTINUOUS
10
159.596
20
-83.99
11
159.596
21
-86.19
0
LINE
8
BLACK
6
CONTINUOUS
10
119.718
20
-81.618
11
117.518
21
-81.618
0
LINE
8
BLACK
6
CONTINUOUS
10
117.518
20
-81.618
11
117.518
21
-79.418
0
LINE
8
BLACK
6
CONTINUOUS
10
117.518
20
-79.418
11
119.718
21
-79.418
0
LINE
8
BLACK
6
CONTINUOUS
10
119.718
20
-79.418
11
119.718
21
-81.618
0
LINE
8
BLACK
6
CONTINUOUS
10
122.258
20
-81.618
11
120.058
21
-81.618
0
LINE
8
BLACK
6
CONTINUOUS
10
120.058
20
-81.618
11
120.058
21
-79.418
0
LINE
8
BLACK
6
CONTINUOUS
10
120.058
20
-79.418
11
122.258
21
-79.418
0
LINE
8
BLACK
6
CONTINUOUS
10
122.258
20
-79.418
11
122.258
21
-81.618
0
LINE
8
BLACK
6
CONTINUOUS
10
117.178
20
-81.618
11
114.978
21
-81.618
0
LINE
8
BLACK
6
CONTINUOUS
10
114.978
20
-81.618
11
114.978
21
-79.418
0
LINE
8
BLACK
6
CONTINUOUS
10
114.978
20
-79.418
11
117.178
21
-79.418
0
LINE
8
BLACK
6
CONTINUOUS
10
117.178
20
-79.418
11
117.178
21
-81.618
0
LINE
8
BLACK
6
CONTINUOUS
10
124.798
20
-81.618
11
122.598
21
-81.618
0
LINE
8
BLACK
6
CONTINUOUS
10
122.598
20
-81.618
11
122.598
21
-79.418
0
LINE
8
BLACK
6
CONTINUOUS
10
122.598
20
-79.418
11
124.798
21
-79.418
0
LINE
8
BLACK
6
CONTINUOUS
10
124.798
20
-79.418
11
124.798
21
-81.618
0
LINE
8
BLACK
6
CONTINUOUS
10
155.278
20
-81.618
11
153.078
21
-81.618
0
LINE
8
BLACK
6
CONTINUOUS
10
153.078
20
-81.618
11
153.078
21
-79.418
0
LINE
8
BLACK
6
CONTINUOUS
10
153.078
20
-79.418
11
155.278
21
-79.418
0
LINE
8
BLACK
6
CONTINUOUS
10
155.278
20
-79.418
11
155.278
21
-81.618
0
LINE
8
BLACK
6
CONTINUOUS
10
127.338
20
-81.618
11
125.138
21
-81.618
0
LINE
8
BLACK
6
CONTINUOUS
10
125.138
20
-81.618
11
125.138
21
-79.418
0
LINE
8
BLACK
6
CONTINUOUS
10
125.138
20
-79.418
11
127.338
21
-79.418
0
LINE
8
BLACK
6
CONTINUOUS
10
127.338
20
-79.418
11
127.338
21
-81.618
0
LINE
8
BLACK
6
CONTINUOUS
10
129.878
20
-81.618
11
127.678
21
-81.618
0
LINE
8
BLACK
6
CONTINUOUS
10
127.678
20
-81.618
11
127.678
21
-79.418
0
LINE
8
BLACK
6
CONTINUOUS
10
127.678
20
-79.418
11
129.878
21
-79.418
0
LINE
8
BLACK
6
CONTINUOUS
10
129.878
20
-79.418
11
129.878
21
-81.618
0
LINE
8
BLACK
6
CONTINUOUS
10
132.418
20
-81.618
11
130.218
21
-81.618
0
LINE
8
BLACK
6
CONTINUOUS
10
130.218
20
-81.618
11
130.218
21
-79.418
0
LINE
8
BLACK
6
CONTINUOUS
10
130.218
20
-79.418
11
132.418
21
-79.418
0
LINE
8
BLACK
6
CONTINUOUS
10
132.418
20
-79.418
11
132.418
21
-81.618
0
LINE
8
BLACK
6
CONTINUOUS
10
134.958
20
-81.618
11
132.758
21
-81.618
0
LINE
8
BLACK
6
CONTINUOUS
10
132.758
20
-81.618
11
132.758
21
-79.418
0
LINE
8
BLACK
6
CONTINUOUS
10
132.758
20
-79.418
11
134.958
21
-79.418
0
LINE
8
BLACK
6
CONTINUOUS
10
134.958
20
-79.418
11
134.958
21
-81.618
0
LINE
8
BLACK
6
CONTINUOUS
10
165.438
20
-81.618
11
163.238
21
-81.618
0
LINE
8
BLACK
6
CONTINUOUS
10
163.238
20
-81.618
11
163.238
21
-79.418
0
LINE
8
BLACK
6
CONTINUOUS
10
163.238
20
-79.418
11
165.438
21
-79.418
0
LINE
8
BLACK
6
CONTINUOUS
10
165.438
20
-79.418
11
165.438
21
-81.618
0
LINE
8
BLACK
6
CONTINUOUS
10
137.498
20
-81.618
11
135.298
21
-81.618
0
LINE
8
BLACK
6
CONTINUOUS
10
135.298
20
-81.618
11
135.298
21
-79.418
0
LINE
8
BLACK
6
CONTINUOUS
10
135.298
20
-79.418
11
137.498
21
-79.418
0
LINE
8
BLACK
6
CONTINUOUS
10
137.498
20
-79.418
11
137.498
21
-81.618
0
LINE
8
BLACK
6
CONTINUOUS
10
140.038
20
-81.618
11
137.838
21
-81.618
0
LINE
8
BLACK
6
CONTINUOUS
10
137.838
20
-81.618
11
137.838
21
-79.418
0
LINE
8
BLACK
6
CONTINUOUS
10
137.838
20
-79.418
11
140.038
21
-79.418
0
LINE
8
BLACK
6
CONTINUOUS
10
140.038
20
-79.418
11
140.038
21
-81.618
0
LINE
8
BLACK
6
CONTINUOUS
10
162.898
20
-81.618
11
160.698
21
-81.618
0
LINE
8
BLACK
6
CONTINUOUS
10
160.698
20
-81.618
11
160.698
21
-79.418
0
LINE
8
BLACK
6
CONTINUOUS
10
160.698
20
-79.418
11
162.898
21
-79.418
0
LINE
8
BLACK
6
CONTINUOUS
10
162.898
20
-79.418
11
162.898
21
-81.618
0
LINE
8
BLACK
6
CONTINUOUS
10
142.578
20
-81.618
11
140.378
21
-81.618
0
LINE
8
BLACK
6
CONTINUOUS
10
140.378
20
-81.618
11
140.378
21
-79.418
0
LINE
8
BLACK
6
CONTINUOUS
10
140.378
20
-79.418
11
142.578
21
-79.418
0
LINE
8
BLACK
6
CONTINUOUS
10
142.578
20
-79.418
11
142.578
21
-81.618
0
LINE
8
BLACK
6
CONTINUOUS
10
145.118
20
-81.618
11
142.918
21
-81.618
0
LINE
8
BLACK
6
CONTINUOUS
10
142.918
20
-81.618
11
142.918
21
-79.418
0
LINE
8
BLACK
6
CONTINUOUS
10
142.918
20
-79.418
11
145.118
21
-79.418
0
LINE
8
BLACK
6
CONTINUOUS
10
145.118
20
-79.418
11
145.118
21
-81.618
0
LINE
8
BLACK
6
CONTINUOUS
10
157.818
20
-81.618
11
155.618
21
-81.618
0
LINE
8
BLACK
6
CONTINUOUS
10
155.618
20
-81.618
11
155.618
21
-79.418
0
LINE
8
BLACK
6
CONTINUOUS
10
155.618
20
-79.418
11
157.818
21
-79.418
0
LINE
8
BLACK
6
CONTINUOUS
10
157.818
20
-79.418
11
157.818
21
-81.618
0
LINE
8
BLACK
6
CONTINUOUS
10
147.658
20
-81.618
11
145.458
21
-81.618
0
LINE
8
BLACK
6
CONTINUOUS
10
145.458
20
-81.618
11
145.458
21
-79.418
0
LINE
8
BLACK
6
CONTINUOUS
10
145.458
20
-79.418
11
147.658
21
-79.418
0
LINE
8
BLACK
6
CONTINUOUS
10
147.658
20
-79.418
11
147.658
21
-81.618
0
LINE
8
BLACK
6
CONTINUOUS
10
150.198
20
-81.618
11
147.998
21
-81.618
0
LINE
8
BLACK
6
CONTINUOUS
10
147.998
20
-81.618
11
147.998
21
-79.418
0
LINE
8
BLACK
6
CONTINUOUS
10
147.998
20
-79.418
11
150.198
21
-79.418
0
LINE
8
BLACK
6
CONTINUOUS
10
150.198
20
-79.418
11
150.198
21
-81.618
0
LINE
8
BLACK
6
CONTINUOUS
10
160.358
20
-81.618
11
158.158
21
-81.618
0
LINE
8
BLACK
6
CONTINUOUS
10
158.158
20
-81.618
11
158.158
21
-79.418
0
LINE
8
BLACK
6
CONTINUOUS
10
158.158
20
-79.418
11
160.358
21
-79.418
0
LINE
8
BLACK
6
CONTINUOUS
10
160.358
20
-79.418
11
160.358
21
-81.618
0
LINE
8
BLACK
6
CONTINUOUS
10
152.738
20
-81.618
11
150.538
21
-81.618
0
LINE
8
BLACK
6
CONTINUOUS
10
150.538
20
-81.618
11
150.538
21
-79.418
0
LINE
8
BLACK
6
CONTINUOUS
10
150.538
20
-79.418
11
152.738
21
-79.418
0
LINE
8
BLACK
6
CONTINUOUS
10
152.738
20
-79.418
11
152.738
21
-81.618
0
LINE
8
BLACK
6
CONTINUOUS
10
162.898
20
-79.078
11
160.698
21
-79.078
0
LINE
8
BLACK
6
CONTINUOUS
10
160.698
20
-79.078
11
160.698
21
-76.878
0
LINE
8
BLACK
6
CONTINUOUS
10
160.698
20
-76.878
11
162.898
21
-76.878
0
LINE
8
BLACK
6
CONTINUOUS
10
162.898
20
-76.878
11
162.898
21
-79.078
0
LINE
8
BLACK
6
CONTINUOUS
10
165.438
20
-79.078
11
163.238
21
-79.078
0
LINE
8
BLACK
6
CONTINUOUS
10
163.238
20
-79.078
11
163.238
21
-76.878
0
LINE
8
BLACK
6
CONTINUOUS
10
163.238
20
-76.878
11
165.438
21
-76.878
0
LINE
8
BLACK
6
CONTINUOUS
10
165.438
20
-76.878
11
165.438
21
-79.078
0
LINE
8
BLACK
6
CONTINUOUS
10
155.278
20
-79.078
11
153.078
21
-79.078
0
LINE
8
BLACK
6
CONTINUOUS
10
153.078
20
-79.078
11
153.078
21
-76.878
0
LINE
8
BLACK
6
CONTINUOUS
10
153.078
20
-76.878
11
155.278
21
-76.878
0
LINE
8
BLACK
6
CONTINUOUS
10
155.278
20
-76.878
11
155.278
21
-79.078
0
LINE
8
BLACK
6
CONTINUOUS
10
157.818
20
-79.078
11
155.618
21
-79.078
0
LINE
8
BLACK
6
CONTINUOUS
10
155.618
20
-79.078
11
155.618
21
-76.878
0
LINE
8
BLACK
6
CONTINUOUS
10
155.618
20
-76.878
11
157.818
21
-76.878
0
LINE
8
BLACK
6
CONTINUOUS
10
157.818
20
-76.878
11
157.818
21
-79.078
0
LINE
8
BLACK
6
CONTINUOUS
10
117.178
20
-79.078
11
114.978
21
-79.078
0
LINE
8
BLACK
6
CONTINUOUS
10
114.978
20
-79.078
11
114.978
21
-76.878
0
LINE
8
BLACK
6
CONTINUOUS
10
114.978
20
-76.878
11
117.178
21
-76.878
0
LINE
8
BLACK
6
CONTINUOUS
10
117.178
20
-76.878
11
117.178
21
-79.078
0
LINE
8
BLACK
6
CONTINUOUS
10
160.358
20
-79.078
11
158.158
21
-79.078
0
LINE
8
BLACK
6
CONTINUOUS
10
158.158
20
-79.078
11
158.158
21
-76.878
0
LINE
8
BLACK
6
CONTINUOUS
10
158.158
20
-76.878
11
160.358
21
-76.878
0
LINE
8
BLACK
6
CONTINUOUS
10
160.358
20
-76.878
11
160.358
21
-79.078
0
LINE
8
BLACK
6
CONTINUOUS
10
132.418
20
-79.078
11
130.218
21
-79.078
0
LINE
8
BLACK
6
CONTINUOUS
10
130.218
20
-79.078
11
130.218
21
-76.878
0
LINE
8
BLACK
6
CONTINUOUS
10
130.218
20
-76.878
11
132.418
21
-76.878
0
LINE
8
BLACK
6
CONTINUOUS
10
132.418
20
-76.878
11
132.418
21
-79.078
0
LINE
8
BLACK
6
CONTINUOUS
10
150.198
20
-79.078
11
147.998
21
-79.078
0
LINE
8
BLACK
6
CONTINUOUS
10
147.998
20
-79.078
11
147.998
21
-76.878
0
LINE
8
BLACK
6
CONTINUOUS
10
147.998
20
-76.878
11
150.198
21
-76.878
0
LINE
8
BLACK
6
CONTINUOUS
10
150.198
20
-76.878
11
150.198
21
-79.078
0
LINE
8
BLACK
6
CONTINUOUS
10
147.658
20
-79.078
11
145.458
21
-79.078
0
LINE
8
BLACK
6
CONTINUOUS
10
145.458
20
-79.078
11
145.458
21
-76.878
0
LINE
8
BLACK
6
CONTINUOUS
10
145.458
20
-76.878
11
147.658
21
-76.878
0
LINE
8
BLACK
6
CONTINUOUS
10
147.658
20
-76.878
11
147.658
21
-79.078
0
LINE
8
BLACK
6
CONTINUOUS
10
145.118
20
-79.078
11
142.918
21
-79.078
0
LINE
8
BLACK
6
CONTINUOUS
10
142.918
20
-79.078
11
142.918
21
-76.878
0
LINE
8
BLACK
6
CONTINUOUS
10
142.918
20
-76.878
11
145.118
21
-76.878
0
LINE
8
BLACK
6
CONTINUOUS
10
145.118
20
-76.878
11
145.118
21
-79.078
0
LINE
8
BLACK
6
CONTINUOUS
10
142.578
20
-79.078
11
140.378
21
-79.078
0
LINE
8
BLACK
6
CONTINUOUS
10
140.378
20
-79.078
11
140.378
21
-76.878
0
LINE
8
BLACK
6
CONTINUOUS
10
140.378
20
-76.878
11
142.578
21
-76.878
0
LINE
8
BLACK
6
CONTINUOUS
10
142.578
20
-76.878
11
142.578
21
-79.078
0
LINE
8
BLACK
6
CONTINUOUS
10
140.038
20
-79.078
11
137.838
21
-79.078
0
LINE
8
BLACK
6
CONTINUOUS
10
137.838
20
-79.078
11
137.838
21
-76.878
0
LINE
8
BLACK
6
CONTINUOUS
10
137.838
20
-76.878
11
140.038
21
-76.878
0
LINE
8
BLACK
6
CONTINUOUS
10
140.038
20
-76.878
11
140.038
21
-79.078
0
LINE
8
BLACK
6
CONTINUOUS
10
137.498
20
-79.078
11
135.298
21
-79.078
0
LINE
8
BLACK
6
CONTINUOUS
10
135.298
20
-79.078
11
135.298
21
-76.878
0
LINE
8
BLACK
6
CONTINUOUS
10
135.298
20
-76.878
11
137.498
21
-76.878
0
LINE
8
BLACK
6
CONTINUOUS
10
137.498
20
-76.878
11
137.498
21
-79.078
0
LINE
8
BLACK
6
CONTINUOUS
10
134.958
20
-79.078
11
132.758
21
-79.078
0
LINE
8
BLACK
6
CONTINUOUS
10
132.758
20
-79.078
11
132.758
21
-76.878
0
LINE
8
BLACK
6
CONTINUOUS
10
132.758
20
-76.878
11
134.958
21
-76.878
0
LINE
8
BLACK
6
CONTINUOUS
10
134.958
20
-76.878
11
134.958
21
-79.078
0
LINE
8
BLACK
6
CONTINUOUS
10
119.718
20
-79.078
11
117.518
21
-79.078
0
LINE
8
BLACK
6
CONTINUOUS
10
117.518
20
-79.078
11
117.518
21
-76.878
0
LINE
8
BLACK
6
CONTINUOUS
10
117.518
20
-76.878
11
119.718
21
-76.878
0
LINE
8
BLACK
6
CONTINUOUS
10
119.718
20
-76.878
11
119.718
21
-79.078
0
LINE
8
BLACK
6
CONTINUOUS
10
152.738
20
-79.078
11
150.538
21
-79.078
0
LINE
8
BLACK
6
CONTINUOUS
10
150.538
20
-79.078
11
150.538
21
-76.878
0
LINE
8
BLACK
6
CONTINUOUS
10
150.538
20
-76.878
11
152.738
21
-76.878
0
LINE
8
BLACK
6
CONTINUOUS
10
152.738
20
-76.878
11
152.738
21
-79.078
0
LINE
8
BLACK
6
CONTINUOUS
10
129.878
20
-79.078
11
127.678
21
-79.078
0
LINE
8
BLACK
6
CONTINUOUS
10
127.678
20
-79.078
11
127.678
21
-76.878
0
LINE
8
BLACK
6
CONTINUOUS
10
127.678
20
-76.878
11
129.878
21
-76.878
0
LINE
8
BLACK
6
CONTINUOUS
10
129.878
20
-76.878
11
129.878
21
-79.078
0
LINE
8
BLACK
6
CONTINUOUS
10
127.338
20
-79.078
11
125.138
21
-79.078
0
LINE
8
BLACK
6
CONTINUOUS
10
125.138
20
-79.078
11
125.138
21
-76.878
0
LINE
8
BLACK
6
CONTINUOUS
10
125.138
20
-76.878
11
127.338
21
-76.878
0
LINE
8
BLACK
6
CONTINUOUS
10
127.338
20
-76.878
11
127.338
21
-79.078
0
LINE
8
BLACK
6
CONTINUOUS
10
124.798
20
-79.078
11
122.598
21
-79.078
0
LINE
8
BLACK
6
CONTINUOUS
10
122.598
20
-79.078
11
122.598
21
-76.878
0
LINE
8
BLACK
6
CONTINUOUS
10
122.598
20
-76.878
11
124.798
21
-76.878
0
LINE
8
BLACK
6
CONTINUOUS
10
124.798
20
-76.878
11
124.798
21
-79.078
0
LINE
8
BLACK
6
CONTINUOUS
10
122.258
20
-79.078
11
120.058
21
-79.078
0
LINE
8
BLACK
6
CONTINUOUS
10
120.058
20
-79.078
11
120.058
21
-76.878
0
LINE
8
BLACK
6
CONTINUOUS
10
120.058
20
-76.878
11
122.258
21
-76.878
0
LINE
8
BLACK
6
CONTINUOUS
10
122.258
20
-76.878
11
122.258
21
-79.078
0
LINE
8
BLACK
6
CONTINUOUS
10
117.432
20
-73.744
11
115.232
21
-73.744
0
LINE
8
BLACK
6
CONTINUOUS
10
115.232
20
-73.744
11
115.232
21
-71.544
0
LINE
8
BLACK
6
CONTINUOUS
10
115.232
20
-71.544
11
117.432
21
-71.544
0
LINE
8
BLACK
6
CONTINUOUS
10
117.432
20
-71.544
11
117.432
21
-73.744
0
LINE
8
BLACK
6
CONTINUOUS
10
127.846
20
-73.49
11
125.646
21
-73.49
0
LINE
8
BLACK
6
CONTINUOUS
10
125.646
20
-73.49
11
125.646
21
-71.29
0
LINE
8
BLACK
6
CONTINUOUS
10
125.646
20
-71.29
11
127.846
21
-71.29
0
LINE
8
BLACK
6
CONTINUOUS
10
127.846
20
-71.29
11
127.846
21
-73.49
0
LINE
8
BLACK
6
CONTINUOUS
10
165.946
20
-72.728
11
163.746
21
-72.728
0
LINE
8
BLACK
6
CONTINUOUS
10
163.746
20
-72.728
11
163.746
21
-70.528
0
LINE
8
BLACK
6
CONTINUOUS
10
163.746
20
-70.528
11
165.946
21
-70.528
0
LINE
8
BLACK
6
CONTINUOUS
10
165.946
20
-70.528
11
165.946
21
-72.728
0
LINE
8
BLACK
6
CONTINUOUS
10
117.432
20
-71.204
11
115.232
21
-71.204
0
LINE
8
BLACK
6
CONTINUOUS
10
115.232
20
-71.204
11
115.232
21
-69.004
0
LINE
8
BLACK
6
CONTINUOUS
10
115.232
20
-69.004
11
117.432
21
-69.004
0
LINE
8
BLACK
6
CONTINUOUS
10
117.432
20
-69.004
11
117.432
21
-71.204
0
LINE
8
BLACK
6
CONTINUOUS
10
127.846
20
-70.95
11
125.646
21
-70.95
0
LINE
8
BLACK
6
CONTINUOUS
10
125.646
20
-70.95
11
125.646
21
-68.75
0
LINE
8
BLACK
6
CONTINUOUS
10
125.646
20
-68.75
11
127.846
21
-68.75
0
LINE
8
BLACK
6
CONTINUOUS
10
127.846
20
-68.75
11
127.846
21
-70.95
0
LINE
8
BLACK
6
CONTINUOUS
10
159.85
20
-70.442
11
157.65
21
-70.442
0
LINE
8
BLACK
6
CONTINUOUS
10
157.65
20
-70.442
11
157.65
21
-68.242
0
LINE
8
BLACK
6
CONTINUOUS
10
157.65
20
-68.242
11
159.85
21
-68.242
0
LINE
8
BLACK
6
CONTINUOUS
10
159.85
20
-68.242
11
159.85
21
-70.442
0
LINE
8
BLACK
6
CONTINUOUS
10
165.946
20
-70.188
11
163.746
21
-70.188
0
LINE
8
BLACK
6
CONTINUOUS
10
163.746
20
-70.188
11
163.746
21
-67.988
0
LINE
8
BLACK
6
CONTINUOUS
10
163.746
20
-67.988
11
165.946
21
-67.988
0
LINE
8
BLACK
6
CONTINUOUS
10
165.946
20
-67.988
11
165.946
21
-70.188
0
LINE
8
BLACK
6
CONTINUOUS
10
117.432
20
-68.664
11
115.232
21
-68.664
0
LINE
8
BLACK
6
CONTINUOUS
10
115.232
20
-68.664
11
115.232
21
-66.464
0
LINE
8
BLACK
6
CONTINUOUS
10
115.232
20
-66.464
11
117.432
21
-66.464
0
LINE
8
BLACK
6
CONTINUOUS
10
117.432
20
-66.464
11
117.432
21
-68.664
0
LINE
8
BLACK
6
CONTINUOUS
10
159.85
20
-67.902
11
157.65
21
-67.902
0
LINE
8
BLACK
6
CONTINUOUS
10
157.65
20
-67.902
11
157.65
21
-65.702
0
LINE
8
BLACK
6
CONTINUOUS
10
157.65
20
-65.702
11
159.85
21
-65.702
0
LINE
8
BLACK
6
CONTINUOUS
10
159.85
20
-65.702
11
159.85
21
-67.902
0
LINE
8
BLACK
6
CONTINUOUS
10
165.946
20
-67.648
11
163.746
21
-67.648
0
LINE
8
BLACK
6
CONTINUOUS
10
163.746
20
-67.648
11
163.746
21
-65.448
0
LINE
8
BLACK
6
CONTINUOUS
10
163.746
20
-65.448
11
165.946
21
-65.448
0
LINE
8
BLACK
6
CONTINUOUS
10
165.946
20
-65.448
11
165.946
21
-67.648
0
LINE
8
BLACK
6
CONTINUOUS
10
129.878
20
-66.632
11
127.678
21
-66.632
0
LINE
8
BLACK
6
CONTINUOUS
10
127.678
20
-66.632
11
127.678
21
-64.432
0
LINE
8
BLACK
6
CONTINUOUS
10
127.678
20
-64.432
11
129.878
21
-64.432
0
LINE
8
BLACK
6
CONTINUOUS
10
129.878
20
-64.432
11
129.878
21
-66.632
0
LINE
8
BLACK
6
CONTINUOUS
10
150.706
20
-66.632
11
148.506
21
-66.632
0
LINE
8
BLACK
6
CONTINUOUS
10
148.506
20
-66.632
11
148.506
21
-64.432
0
LINE
8
BLACK
6
CONTINUOUS
10
148.506
20
-64.432
11
150.706
21
-64.432
0
LINE
8
BLACK
6
CONTINUOUS
10
150.706
20
-64.432
11
150.706
21
-66.632
0
LINE
8
BLACK
6
CONTINUOUS
10
132.418
20
-66.632
11
130.218
21
-66.632
0
LINE
8
BLACK
6
CONTINUOUS
10
130.218
20
-66.632
11
130.218
21
-64.432
0
LINE
8
BLACK
6
CONTINUOUS
10
130.218
20
-64.432
11
132.418
21
-64.432
0
LINE
8
BLACK
6
CONTINUOUS
10
132.418
20
-64.432
11
132.418
21
-66.632
0
LINE
8
BLACK
6
CONTINUOUS
10
134.958
20
-66.632
11
132.758
21
-66.632
0
LINE
8
BLACK
6
CONTINUOUS
10
132.758
20
-66.632
11
132.758
21
-64.432
0
LINE
8
BLACK
6
CONTINUOUS
10
132.758
20
-64.432
11
134.958
21
-64.432
0
LINE
8
BLACK
6
CONTINUOUS
10
134.958
20
-64.432
11
134.958
21
-66.632
0
LINE
8
BLACK
6
CONTINUOUS
10
137.498
20
-66.632
11
135.298
21
-66.632
0
LINE
8
BLACK
6
CONTINUOUS
10
135.298
20
-66.632
11
135.298
21
-64.432
0
LINE
8
BLACK
6
CONTINUOUS
10
135.298
20
-64.432
11
137.498
21
-64.432
0
LINE
8
BLACK
6
CONTINUOUS
10
137.498
20
-64.432
11
137.498
21
-66.632
0
LINE
8
BLACK
6
CONTINUOUS
10
140.038
20
-66.632
11
137.838
21
-66.632
0
LINE
8
BLACK
6
CONTINUOUS
10
137.838
20
-66.632
11
137.838
21
-64.432
0
LINE
8
BLACK
6
CONTINUOUS
10
137.838
20
-64.432
11
140.038
21
-64.432
0
LINE
8
BLACK
6
CONTINUOUS
10
140.038
20
-64.432
11
140.038
21
-66.632
0
LINE
8
BLACK
6
CONTINUOUS
10
148.166
20
-66.632
11
145.966
21
-66.632
0
LINE
8
BLACK
6
CONTINUOUS
10
145.966
20
-66.632
11
145.966
21
-64.432
0
LINE
8
BLACK
6
CONTINUOUS
10
145.966
20
-64.432
11
148.166
21
-64.432
0
LINE
8
BLACK
6
CONTINUOUS
10
148.166
20
-64.432
11
148.166
21
-66.632
0
LINE
8
BLACK
6
CONTINUOUS
10
145.626
20
-66.632
11
143.426
21
-66.632
0
LINE
8
BLACK
6
CONTINUOUS
10
143.426
20
-66.632
11
143.426
21
-64.432
0
LINE
8
BLACK
6
CONTINUOUS
10
143.426
20
-64.432
11
145.626
21
-64.432
0
LINE
8
BLACK
6
CONTINUOUS
10
145.626
20
-64.432
11
145.626
21
-66.632
0
LINE
8
BLACK
6
CONTINUOUS
10
127.338
20
-66.632
11
125.138
21
-66.632
0
LINE
8
BLACK
6
CONTINUOUS
10
125.138
20
-66.632
11
125.138
21
-64.432
0
LINE
8
BLACK
6
CONTINUOUS
10
125.138
20
-64.432
11
127.338
21
-64.432
0
LINE
8
BLACK
6
CONTINUOUS
10
127.338
20
-64.432
11
127.338
21
-66.632
0
LINE
8
BLACK
6
CONTINUOUS
10
153.246
20
-66.632
11
151.046
21
-66.632
0
LINE
8
BLACK
6
CONTINUOUS
10
151.046
20
-66.632
11
151.046
21
-64.432
0
LINE
8
BLACK
6
CONTINUOUS
10
151.046
20
-64.432
11
153.246
21
-64.432
0
LINE
8
BLACK
6
CONTINUOUS
10
153.246
20
-64.432
11
153.246
21
-66.632
0
LINE
8
BLACK
6
CONTINUOUS
10
117.432
20
-66.124
11
115.232
21
-66.124
0
LINE
8
BLACK
6
CONTINUOUS
10
115.232
20
-66.124
11
115.232
21
-63.924
0
LINE
8
BLACK
6
CONTINUOUS
10
115.232
20
-63.924
11
117.432
21
-63.924
0
LINE
8
BLACK
6
CONTINUOUS
10
117.432
20
-63.924
11
117.432
21
-66.124
0
LINE
8
BLACK
6
CONTINUOUS
10
159.85
20
-65.362
11
157.65
21
-65.362
0
LINE
8
BLACK
6
CONTINUOUS
10
157.65
20
-65.362
11
157.65
21
-63.162
0
LINE
8
BLACK
6
CONTINUOUS
10
157.65
20
-63.162
11
159.85
21
-63.162
0
LINE
8
BLACK
6
CONTINUOUS
10
159.85
20
-63.162
11
159.85
21
-65.362
0
LINE
8
BLACK
6
CONTINUOUS
10
165.946
20
-65.108
11
163.746
21
-65.108
0
LINE
8
BLACK
6
CONTINUOUS
10
163.746
20
-65.108
11
163.746
21
-62.908
0
LINE
8
BLACK
6
CONTINUOUS
10
163.746
20
-62.908
11
165.946
21
-62.908
0
LINE
8
BLACK
6
CONTINUOUS
10
165.946
20
-62.908
11
165.946
21
-65.108
  0
ENDSEC
  0
EOF
