G04 #@! TF.GenerationSoftware,KiCad,Pcbnew,(5.1.2)-2*
G04 #@! TF.CreationDate,2020-05-16T00:08:30+07:00*
G04 #@! TF.ProjectId,noname,6e6f6e61-6d65-42e6-9b69-6361645f7063,rev?*
G04 #@! TF.SameCoordinates,Original*
G04 #@! TF.FileFunction,Legend,Bot*
G04 #@! TF.FilePolarity,Positive*
%FSLAX46Y46*%
G04 Gerber Fmt 4.6, Leading zero omitted, Abs format (unit mm)*
G04 Created by KiCad (PCBNEW (5.1.2)-2) date 2020-05-16 00:08:30*
%MOMM*%
%LPD*%
G04 APERTURE LIST*
%ADD10C,0.120000*%
%ADD11C,0.150000*%
G04 APERTURE END LIST*
D10*
X165668000Y-81848000D02*
X165668000Y-79248000D01*
X165668000Y-81848000D02*
X114748000Y-81848000D01*
X114748000Y-81848000D02*
X114748000Y-76648000D01*
X163068000Y-76648000D02*
X114748000Y-76648000D01*
X163068000Y-79248000D02*
X163068000Y-76648000D01*
X165668000Y-79248000D02*
X163068000Y-79248000D01*
X165668000Y-76648000D02*
X164338000Y-76648000D01*
X165668000Y-77978000D02*
X165668000Y-76648000D01*
D11*
X167655619Y-79581333D02*
X166941333Y-79581333D01*
X166798476Y-79628952D01*
X166703238Y-79724190D01*
X166655619Y-79867047D01*
X166655619Y-79962285D01*
X166655619Y-79057523D02*
X166655619Y-78867047D01*
X166703238Y-78771809D01*
X166750857Y-78724190D01*
X166893714Y-78628952D01*
X167084190Y-78581333D01*
X167465142Y-78581333D01*
X167560380Y-78628952D01*
X167608000Y-78676571D01*
X167655619Y-78771809D01*
X167655619Y-78962285D01*
X167608000Y-79057523D01*
X167560380Y-79105142D01*
X167465142Y-79152761D01*
X167227047Y-79152761D01*
X167131809Y-79105142D01*
X167084190Y-79057523D01*
X167036571Y-78962285D01*
X167036571Y-78771809D01*
X167084190Y-78676571D01*
X167131809Y-78628952D01*
X167227047Y-78581333D01*
M02*
