  0
SECTION
  2
HEADER
  9
$ANGBASE
  50
0.0
  9
$ANGDIR
  70
  1
  9
$MEASUREMENT
  70
0
  0
ENDSEC
  0
SECTION
  2
TABLES
  0
TABLE
  2
LTYPE
  70
4
  0
LTYPE
  5
40F
  2
CONTINUOUS
  70
0
  3
Solid line
  72
65
  73
0
  40
0.0
  0
LTYPE
  5
410
  2
DASHDOT
 70
0
  3
Dash Dot ____ _ ____ _
 72
65
 73
4
 40
2.0
 49
1.25
 49
-0.25
 49
0.25
 49
-0.25
  0
LTYPE
  5
411
  2
DASHED
 70
0
  3
Dashed __ __ __ __ __
 72
65
 73
2
 40
0.75
 49
0.5
 49
-0.25
  0
LTYPE
  5
43B
  2
DOTTED
 70
0
  3
Dotted .  .  .  .
 72
65
 73
2
 40
0.2
 49
0.0
 49
-0.2
  0
ENDTAB
  0
TABLE
  2
STYLE
  70
4
  0
STYLE
  2
KICAD
  70
0
  40
0
  41
1
  42
1
  50
0
  71
0
  3
isocp.shx
  0
STYLE
  2
KICADB
  70
0
  40
0
  41
1
  42
1
  50
0
  71
0
  3
isocp.shx
  0
STYLE
  2
KICADI
  70
0
  40
0
  41
1
  42
1
  50
15
  71
0
  3
isocp.shx
  0
STYLE
  2
KICADBI
  70
0
  40
0
  41
1
  42
1
  50
15
  71
0
  3
isocp.shx
  0
ENDTAB
  0
TABLE
  2
LAYER
  70
30
  0
LAYER
  2
BLACK
  70
0
  62
7
  6
CONTINUOUS
  0
LAYER
  2
GRAY1
  70
0
  62
251
  6
CONTINUOUS
  0
LAYER
  2
GRAY2
  70
0
  62
8
  6
CONTINUOUS
  0
LAYER
  2
GRAY3
  70
0
  62
9
  6
CONTINUOUS
  0
LAYER
  2
WHITE
  70
0
  62
7
  6
CONTINUOUS
  0
LAYER
  2
LYELLOW
  70
0
  62
51
  6
CONTINUOUS
  0
LAYER
  2
BLUE1
  70
0
  62
178
  6
CONTINUOUS
  0
LAYER
  2
GREEN1
  70
0
  62
98
  6
CONTINUOUS
  0
LAYER
  2
CYAN1
  70
0
  62
138
  6
CONTINUOUS
  0
LAYER
  2
RED1
  70
0
  62
18
  6
CONTINUOUS
  0
LAYER
  2
MAGENTA1
  70
0
  62
228
  6
CONTINUOUS
  0
LAYER
  2
BROWN1
  70
0
  62
58
  6
CONTINUOUS
  0
LAYER
  2
BLUE2
  70
0
  62
5
  6
CONTINUOUS
  0
LAYER
  2
GREEN2
  70
0
  62
3
  6
CONTINUOUS
  0
LAYER
  2
CYAN2
  70
0
  62
4
  6
CONTINUOUS
  0
LAYER
  2
RED2
  70
0
  62
1
  6
CONTINUOUS
  0
LAYER
  2
MAGENTA2
  70
0
  62
6
  6
CONTINUOUS
  0
LAYER
  2
BROWN2
  70
0
  62
54
  6
CONTINUOUS
  0
LAYER
  2
BLUE3
  70
0
  62
171
  6
CONTINUOUS
  0
LAYER
  2
GREEN3
  70
0
  62
91
  6
CONTINUOUS
  0
LAYER
  2
CYAN3
  70
0
  62
131
  6
CONTINUOUS
  0
LAYER
  2
RED3
  70
0
  62
11
  6
CONTINUOUS
  0
LAYER
  2
MAGENTA3
  70
0
  62
221
  6
CONTINUOUS
  0
LAYER
  2
YELLOW3
  70
0
  62
2
  6
CONTINUOUS
  0
LAYER
  2
BLUE4
  70
0
  62
5
  6
CONTINUOUS
  0
LAYER
  2
GREEN4
  70
0
  62
3
  6
CONTINUOUS
  0
LAYER
  2
CYAN4
  70
0
  62
4
  6
CONTINUOUS
  0
LAYER
  2
RED4
  70
0
  62
1
  6
CONTINUOUS
  0
LAYER
  2
MAGENTA4
  70
0
  62
6
  6
CONTINUOUS
  0
LAYER
  2
YELLOW4
  70
0
  62
2
  6
CONTINUOUS
  0
ENDTAB
  0
ENDSEC
  0
SECTION
  2
ENTITIES
0
LINE
8
BLACK
6
CONTINUOUS
10
108.966
20
-114.35
11
108.964
21
-114.35
0
LINE
8
BLACK
6
CONTINUOUS
10
108.964
20
-114.35
11
108.956
21
-114.349
0
LINE
8
BLACK
6
CONTINUOUS
10
108.956
20
-114.349
11
108.947
21
-114.346
0
LINE
8
BLACK
6
CONTINUOUS
10
108.947
20
-114.346
11
108.938
21
-114.342
0
LINE
8
BLACK
6
CONTINUOUS
10
108.938
20
-114.342
11
108.93
21
-114.336
0
LINE
8
BLACK
6
CONTINUOUS
10
108.93
20
-114.336
11
108.924
21
-114.328
0
LINE
8
BLACK
6
CONTINUOUS
10
108.924
20
-114.328
11
108.92
21
-114.319
0
LINE
8
BLACK
6
CONTINUOUS
10
108.92
20
-114.319
11
108.917
21
-114.31
0
LINE
8
BLACK
6
CONTINUOUS
10
108.917
20
-114.31
11
108.916
21
-114.3
0
LINE
8
BLACK
6
CONTINUOUS
10
108.916
20
-114.3
11
108.916
21
-114.298
0
LINE
8
BLACK
6
CONTINUOUS
10
108.916
20
-114.298
11
108.916
21
-57.1476
0
LINE
8
BLACK
6
CONTINUOUS
10
108.916
20
-57.1476
11
108.916
21
-57.1475
0
LINE
8
BLACK
6
CONTINUOUS
10
108.916
20
-57.1475
11
108.916
21
-56.8984
0
LINE
8
BLACK
6
CONTINUOUS
10
108.916
20
-56.8984
11
108.916
21
-56.896
0
LINE
8
BLACK
6
CONTINUOUS
10
108.916
20
-56.896
11
108.917
21
-56.8862
0
LINE
8
BLACK
6
CONTINUOUS
10
108.917
20
-56.8862
11
108.92
21
-56.8768
0
LINE
8
BLACK
6
CONTINUOUS
10
108.92
20
-56.8768
11
108.924
21
-56.8681
0
LINE
8
BLACK
6
CONTINUOUS
10
108.924
20
-56.8681
11
108.93
21
-56.8605
0
LINE
8
BLACK
6
CONTINUOUS
10
108.93
20
-56.8605
11
108.938
21
-56.8542
0
LINE
8
BLACK
6
CONTINUOUS
10
108.938
20
-56.8542
11
108.947
21
-56.8496
0
LINE
8
BLACK
6
CONTINUOUS
10
108.947
20
-56.8496
11
108.956
21
-56.8467
0
LINE
8
BLACK
6
CONTINUOUS
10
108.956
20
-56.8467
11
108.964
21
-56.846
0
LINE
8
BLACK
6
CONTINUOUS
10
108.964
20
-56.846
11
108.966
21
-56.8458
0
LINE
8
BLACK
6
CONTINUOUS
10
108.966
20
-56.8458
11
108.968
21
-56.846
0
LINE
8
BLACK
6
CONTINUOUS
10
108.968
20
-56.846
11
171.194
21
-56.846
0
LINE
8
BLACK
6
CONTINUOUS
10
171.194
20
-56.846
11
171.196
21
-56.8458
0
LINE
8
BLACK
6
CONTINUOUS
10
171.196
20
-56.8458
11
171.198
21
-56.846
0
LINE
8
BLACK
6
CONTINUOUS
10
171.198
20
-56.846
11
171.206
21
-56.8467
0
LINE
8
BLACK
6
CONTINUOUS
10
171.206
20
-56.8467
11
171.215
21
-56.8496
0
LINE
8
BLACK
6
CONTINUOUS
10
171.215
20
-56.8496
11
171.224
21
-56.8542
0
LINE
8
BLACK
6
CONTINUOUS
10
171.224
20
-56.8542
11
171.232
21
-56.8605
0
LINE
8
BLACK
6
CONTINUOUS
10
171.232
20
-56.8605
11
171.238
21
-56.8681
0
LINE
8
BLACK
6
CONTINUOUS
10
171.238
20
-56.8681
11
171.242
21
-56.8768
0
LINE
8
BLACK
6
CONTINUOUS
10
171.242
20
-56.8768
11
171.245
21
-56.8862
0
LINE
8
BLACK
6
CONTINUOUS
10
171.245
20
-56.8862
11
171.246
21
-56.896
0
LINE
8
BLACK
6
CONTINUOUS
10
171.246
20
-56.896
11
171.246
21
-56.8984
0
LINE
8
BLACK
6
CONTINUOUS
10
171.246
20
-56.8984
11
171.246
21
-114.298
0
LINE
8
BLACK
6
CONTINUOUS
10
171.246
20
-114.298
11
171.246
21
-114.3
0
LINE
8
BLACK
6
CONTINUOUS
10
171.246
20
-114.3
11
171.245
21
-114.31
0
LINE
8
BLACK
6
CONTINUOUS
10
171.245
20
-114.31
11
171.242
21
-114.319
0
LINE
8
BLACK
6
CONTINUOUS
10
171.242
20
-114.319
11
171.238
21
-114.328
0
LINE
8
BLACK
6
CONTINUOUS
10
171.238
20
-114.328
11
171.232
21
-114.336
0
LINE
8
BLACK
6
CONTINUOUS
10
171.232
20
-114.336
11
171.224
21
-114.342
0
LINE
8
BLACK
6
CONTINUOUS
10
171.224
20
-114.342
11
171.215
21
-114.346
0
LINE
8
BLACK
6
CONTINUOUS
10
171.215
20
-114.346
11
171.206
21
-114.349
0
LINE
8
BLACK
6
CONTINUOUS
10
171.206
20
-114.349
11
171.198
21
-114.35
0
LINE
8
BLACK
6
CONTINUOUS
10
171.198
20
-114.35
11
171.196
21
-114.35
0
LINE
8
BLACK
6
CONTINUOUS
10
171.196
20
-114.35
11
171.194
21
-114.35
0
LINE
8
BLACK
6
CONTINUOUS
10
171.194
20
-114.35
11
108.968
21
-114.35
0
LINE
8
BLACK
6
CONTINUOUS
10
108.968
20
-114.35
11
108.966
21
-114.35
0
LINE
8
BLACK
6
CONTINUOUS
10
171.146
20
-114.25
11
171.146
21
-56.946
0
LINE
8
BLACK
6
CONTINUOUS
10
171.146
20
-56.946
11
109.016
21
-56.946
0
LINE
8
BLACK
6
CONTINUOUS
10
109.016
20
-56.946
11
109.016
21
-114.25
0
LINE
8
BLACK
6
CONTINUOUS
10
109.016
20
-114.25
11
171.146
21
-114.25
  0
ENDSEC
  0
EOF
