G04 #@! TF.GenerationSoftware,KiCad,Pcbnew,(5.1.2)-2*
G04 #@! TF.CreationDate,2020-05-16T00:08:30+07:00*
G04 #@! TF.ProjectId,noname,6e6f6e61-6d65-42e6-9b69-6361645f7063,rev?*
G04 #@! TF.SameCoordinates,Original*
G04 #@! TF.FileFunction,Soldermask,Bot*
G04 #@! TF.FilePolarity,Negative*
%FSLAX46Y46*%
G04 Gerber Fmt 4.6, Leading zero omitted, Abs format (unit mm)*
G04 Created by KiCad (PCBNEW (5.1.2)-2) date 2020-05-16 00:08:30*
%MOMM*%
%LPD*%
G04 APERTURE LIST*
%ADD10R,1.800000X1.800000*%
%ADD11C,1.800000*%
%ADD12R,2.200000X2.200000*%
%ADD13R,3.000000X3.000000*%
%ADD14C,3.000000*%
%ADD15C,2.400000*%
%ADD16O,2.400000X2.400000*%
G04 APERTURE END LIST*
D10*
X139446000Y-108966000D03*
D11*
X139446000Y-106426000D03*
D10*
X144018000Y-108966000D03*
D11*
X144018000Y-106426000D03*
X148590000Y-106426000D03*
D10*
X148590000Y-108966000D03*
X153162000Y-108966000D03*
D11*
X153162000Y-106426000D03*
X132588000Y-107950000D03*
D10*
X135128000Y-107950000D03*
D12*
X123444000Y-102108000D03*
X123444000Y-104648000D03*
X123444000Y-107188000D03*
X126746000Y-72390000D03*
X126746000Y-69850000D03*
X115570000Y-86868000D03*
X115570000Y-89408000D03*
X115570000Y-91948000D03*
X115570000Y-94488000D03*
X124460000Y-86614000D03*
X124460000Y-89154000D03*
X124460000Y-91694000D03*
X124460000Y-94234000D03*
X133604000Y-94234000D03*
X133604000Y-91694000D03*
X133604000Y-89154000D03*
X133604000Y-86614000D03*
X116332000Y-65024000D03*
X116332000Y-67564000D03*
X116332000Y-70104000D03*
X116332000Y-72644000D03*
X138938000Y-65532000D03*
X136398000Y-65532000D03*
X133858000Y-65532000D03*
X131318000Y-65532000D03*
X128778000Y-65532000D03*
X126238000Y-65532000D03*
X164338000Y-77978000D03*
X164338000Y-80518000D03*
X161798000Y-77978000D03*
X161798000Y-80518000D03*
X159258000Y-77978000D03*
X159258000Y-80518000D03*
X156718000Y-77978000D03*
X156718000Y-80518000D03*
X154178000Y-77978000D03*
X154178000Y-80518000D03*
X151638000Y-77978000D03*
X151638000Y-80518000D03*
X149098000Y-77978000D03*
X149098000Y-80518000D03*
X146558000Y-77978000D03*
X146558000Y-80518000D03*
X144018000Y-77978000D03*
X144018000Y-80518000D03*
X141478000Y-77978000D03*
X141478000Y-80518000D03*
X138938000Y-77978000D03*
X138938000Y-80518000D03*
X136398000Y-77978000D03*
X136398000Y-80518000D03*
X133858000Y-77978000D03*
X133858000Y-80518000D03*
X131318000Y-77978000D03*
X131318000Y-80518000D03*
X128778000Y-77978000D03*
X128778000Y-80518000D03*
X126238000Y-77978000D03*
X126238000Y-80518000D03*
X123698000Y-77978000D03*
X123698000Y-80518000D03*
X121158000Y-77978000D03*
X121158000Y-80518000D03*
X118618000Y-77978000D03*
X118618000Y-80518000D03*
X116078000Y-77978000D03*
X116078000Y-80518000D03*
X158750000Y-69342000D03*
X158750000Y-66802000D03*
X158750000Y-64262000D03*
X144526000Y-65532000D03*
X147066000Y-65532000D03*
X149606000Y-65532000D03*
X152146000Y-65532000D03*
X164846000Y-71628000D03*
X164846000Y-69088000D03*
X164846000Y-66548000D03*
X164846000Y-64008000D03*
X162560000Y-102870000D03*
X162560000Y-100330000D03*
X162560000Y-97790000D03*
X162560000Y-95250000D03*
X158496000Y-85090000D03*
X158496000Y-87630000D03*
X158496000Y-90170000D03*
X158496000Y-92710000D03*
X158496000Y-95250000D03*
X158496000Y-97790000D03*
X158496000Y-100330000D03*
X158496000Y-102870000D03*
D13*
X117094000Y-107188000D03*
D14*
X117094000Y-102108000D03*
D15*
X139192000Y-87630000D03*
D16*
X139192000Y-102870000D03*
X143510000Y-102870000D03*
D15*
X143510000Y-87630000D03*
X147828000Y-87630000D03*
D16*
X147828000Y-102870000D03*
X152146000Y-102870000D03*
D15*
X152146000Y-87630000D03*
X128778000Y-93726000D03*
D16*
X128778000Y-108966000D03*
M02*
