G04 #@! TF.GenerationSoftware,KiCad,Pcbnew,(5.1.2)-2*
G04 #@! TF.CreationDate,2020-05-16T00:08:30+07:00*
G04 #@! TF.ProjectId,noname,6e6f6e61-6d65-42e6-9b69-6361645f7063,rev?*
G04 #@! TF.SameCoordinates,Original*
G04 #@! TF.FileFunction,Legend,Top*
G04 #@! TF.FilePolarity,Positive*
%FSLAX46Y46*%
G04 Gerber Fmt 4.6, Leading zero omitted, Abs format (unit mm)*
G04 Created by KiCad (PCBNEW (5.1.2)-2) date 2020-05-16 00:08:30*
%MOMM*%
%LPD*%
G04 APERTURE LIST*
%ADD10C,0.150000*%
%ADD11C,0.300000*%
%ADD12C,0.100000*%
%ADD13C,0.125000*%
%ADD14C,0.010000*%
%ADD15C,0.120000*%
G04 APERTURE END LIST*
D10*
X108966000Y-114300000D02*
X108966000Y-56896000D01*
X171196000Y-114300000D02*
X108966000Y-114300000D01*
X171196000Y-56896000D02*
X171196000Y-114300000D01*
X108966000Y-56896000D02*
X171196000Y-56896000D01*
X135707523Y-86288571D02*
X136040857Y-86288571D01*
X136183714Y-86812380D02*
X135707523Y-86812380D01*
X135707523Y-85812380D01*
X136183714Y-85812380D01*
X136659904Y-86812380D02*
X136850380Y-86812380D01*
X136945619Y-86764761D01*
X136993238Y-86717142D01*
X137088476Y-86574285D01*
X137136095Y-86383809D01*
X137136095Y-86002857D01*
X137088476Y-85907619D01*
X137040857Y-85860000D01*
X136945619Y-85812380D01*
X136755142Y-85812380D01*
X136659904Y-85860000D01*
X136612285Y-85907619D01*
X136564666Y-86002857D01*
X136564666Y-86240952D01*
X136612285Y-86336190D01*
X136659904Y-86383809D01*
X136755142Y-86431428D01*
X136945619Y-86431428D01*
X137040857Y-86383809D01*
X137088476Y-86336190D01*
X137136095Y-86240952D01*
X135707523Y-88828571D02*
X136040857Y-88828571D01*
X136183714Y-89352380D02*
X135707523Y-89352380D01*
X135707523Y-88352380D01*
X136183714Y-88352380D01*
X136517047Y-88352380D02*
X137183714Y-88352380D01*
X136755142Y-89352380D01*
X135993238Y-91622571D02*
X136136095Y-91670190D01*
X136183714Y-91717809D01*
X136231333Y-91813047D01*
X136231333Y-91955904D01*
X136183714Y-92051142D01*
X136136095Y-92098761D01*
X136040857Y-92146380D01*
X135659904Y-92146380D01*
X135659904Y-91146380D01*
X135993238Y-91146380D01*
X136088476Y-91194000D01*
X136136095Y-91241619D01*
X136183714Y-91336857D01*
X136183714Y-91432095D01*
X136136095Y-91527333D01*
X136088476Y-91574952D01*
X135993238Y-91622571D01*
X135659904Y-91622571D01*
X137183714Y-92146380D02*
X136612285Y-92146380D01*
X136898000Y-92146380D02*
X136898000Y-91146380D01*
X136802761Y-91289238D01*
X136707523Y-91384476D01*
X136612285Y-91432095D01*
X135382095Y-93686380D02*
X136001142Y-93686380D01*
X135667809Y-94067333D01*
X135810666Y-94067333D01*
X135905904Y-94114952D01*
X135953523Y-94162571D01*
X136001142Y-94257809D01*
X136001142Y-94495904D01*
X135953523Y-94591142D01*
X135905904Y-94638761D01*
X135810666Y-94686380D01*
X135524952Y-94686380D01*
X135429714Y-94638761D01*
X135382095Y-94591142D01*
X136286857Y-93686380D02*
X136620190Y-94686380D01*
X136953523Y-93686380D01*
X123444095Y-96226380D02*
X124063142Y-96226380D01*
X123729809Y-96607333D01*
X123872666Y-96607333D01*
X123967904Y-96654952D01*
X124015523Y-96702571D01*
X124063142Y-96797809D01*
X124063142Y-97035904D01*
X124015523Y-97131142D01*
X123967904Y-97178761D01*
X123872666Y-97226380D01*
X123586952Y-97226380D01*
X123491714Y-97178761D01*
X123444095Y-97131142D01*
X124348857Y-96226380D02*
X124682190Y-97226380D01*
X125015523Y-96226380D01*
X127357333Y-91622571D02*
X127690666Y-91622571D01*
X127833523Y-92146380D02*
X127357333Y-92146380D01*
X127357333Y-91146380D01*
X127833523Y-91146380D01*
X128785904Y-92146380D02*
X128214476Y-92146380D01*
X128500190Y-92146380D02*
X128500190Y-91146380D01*
X128404952Y-91289238D01*
X128309714Y-91384476D01*
X128214476Y-91432095D01*
X129738285Y-92146380D02*
X129166857Y-92146380D01*
X129452571Y-92146380D02*
X129452571Y-91146380D01*
X129357333Y-91289238D01*
X129262095Y-91384476D01*
X129166857Y-91432095D01*
X127357333Y-89082571D02*
X127690666Y-89082571D01*
X127833523Y-89606380D02*
X127357333Y-89606380D01*
X127357333Y-88606380D01*
X127833523Y-88606380D01*
X128785904Y-89606380D02*
X128214476Y-89606380D01*
X128500190Y-89606380D02*
X128500190Y-88606380D01*
X128404952Y-88749238D01*
X128309714Y-88844476D01*
X128214476Y-88892095D01*
X129119238Y-88606380D02*
X129738285Y-88606380D01*
X129404952Y-88987333D01*
X129547809Y-88987333D01*
X129643047Y-89034952D01*
X129690666Y-89082571D01*
X129738285Y-89177809D01*
X129738285Y-89415904D01*
X129690666Y-89511142D01*
X129643047Y-89558761D01*
X129547809Y-89606380D01*
X129262095Y-89606380D01*
X129166857Y-89558761D01*
X129119238Y-89511142D01*
X127357333Y-86034571D02*
X127690666Y-86034571D01*
X127833523Y-86558380D02*
X127357333Y-86558380D01*
X127357333Y-85558380D01*
X127833523Y-85558380D01*
X128785904Y-86558380D02*
X128214476Y-86558380D01*
X128500190Y-86558380D02*
X128500190Y-85558380D01*
X128404952Y-85701238D01*
X128309714Y-85796476D01*
X128214476Y-85844095D01*
X129690666Y-85558380D02*
X129214476Y-85558380D01*
X129166857Y-86034571D01*
X129214476Y-85986952D01*
X129309714Y-85939333D01*
X129547809Y-85939333D01*
X129643047Y-85986952D01*
X129690666Y-86034571D01*
X129738285Y-86129809D01*
X129738285Y-86367904D01*
X129690666Y-86463142D01*
X129643047Y-86510761D01*
X129547809Y-86558380D01*
X129309714Y-86558380D01*
X129214476Y-86510761D01*
X129166857Y-86463142D01*
X118673714Y-94940380D02*
X118673714Y-93940380D01*
X118911809Y-93940380D01*
X119054666Y-93988000D01*
X119149904Y-94083238D01*
X119197523Y-94178476D01*
X119245142Y-94368952D01*
X119245142Y-94511809D01*
X119197523Y-94702285D01*
X119149904Y-94797523D01*
X119054666Y-94892761D01*
X118911809Y-94940380D01*
X118673714Y-94940380D01*
X120197523Y-94940380D02*
X119626095Y-94940380D01*
X119911809Y-94940380D02*
X119911809Y-93940380D01*
X119816571Y-94083238D01*
X119721333Y-94178476D01*
X119626095Y-94226095D01*
X120530857Y-93940380D02*
X121149904Y-93940380D01*
X120816571Y-94321333D01*
X120959428Y-94321333D01*
X121054666Y-94368952D01*
X121102285Y-94416571D01*
X121149904Y-94511809D01*
X121149904Y-94749904D01*
X121102285Y-94845142D01*
X121054666Y-94892761D01*
X120959428Y-94940380D01*
X120673714Y-94940380D01*
X120578476Y-94892761D01*
X120530857Y-94845142D01*
X118673714Y-92400380D02*
X118673714Y-91400380D01*
X118911809Y-91400380D01*
X119054666Y-91448000D01*
X119149904Y-91543238D01*
X119197523Y-91638476D01*
X119245142Y-91828952D01*
X119245142Y-91971809D01*
X119197523Y-92162285D01*
X119149904Y-92257523D01*
X119054666Y-92352761D01*
X118911809Y-92400380D01*
X118673714Y-92400380D01*
X120197523Y-92400380D02*
X119626095Y-92400380D01*
X119911809Y-92400380D02*
X119911809Y-91400380D01*
X119816571Y-91543238D01*
X119721333Y-91638476D01*
X119626095Y-91686095D01*
X120578476Y-91495619D02*
X120626095Y-91448000D01*
X120721333Y-91400380D01*
X120959428Y-91400380D01*
X121054666Y-91448000D01*
X121102285Y-91495619D01*
X121149904Y-91590857D01*
X121149904Y-91686095D01*
X121102285Y-91828952D01*
X120530857Y-92400380D01*
X121149904Y-92400380D01*
X119213333Y-89765142D02*
X119165714Y-89812761D01*
X119022857Y-89860380D01*
X118927619Y-89860380D01*
X118784761Y-89812761D01*
X118689523Y-89717523D01*
X118641904Y-89622285D01*
X118594285Y-89431809D01*
X118594285Y-89288952D01*
X118641904Y-89098476D01*
X118689523Y-89003238D01*
X118784761Y-88908000D01*
X118927619Y-88860380D01*
X119022857Y-88860380D01*
X119165714Y-88908000D01*
X119213333Y-88955619D01*
X120070476Y-88860380D02*
X119880000Y-88860380D01*
X119784761Y-88908000D01*
X119737142Y-88955619D01*
X119641904Y-89098476D01*
X119594285Y-89288952D01*
X119594285Y-89669904D01*
X119641904Y-89765142D01*
X119689523Y-89812761D01*
X119784761Y-89860380D01*
X119975238Y-89860380D01*
X120070476Y-89812761D01*
X120118095Y-89765142D01*
X120165714Y-89669904D01*
X120165714Y-89431809D01*
X120118095Y-89336571D01*
X120070476Y-89288952D01*
X119975238Y-89241333D01*
X119784761Y-89241333D01*
X119689523Y-89288952D01*
X119641904Y-89336571D01*
X119594285Y-89431809D01*
X119213333Y-87225142D02*
X119165714Y-87272761D01*
X119022857Y-87320380D01*
X118927619Y-87320380D01*
X118784761Y-87272761D01*
X118689523Y-87177523D01*
X118641904Y-87082285D01*
X118594285Y-86891809D01*
X118594285Y-86748952D01*
X118641904Y-86558476D01*
X118689523Y-86463238D01*
X118784761Y-86368000D01*
X118927619Y-86320380D01*
X119022857Y-86320380D01*
X119165714Y-86368000D01*
X119213333Y-86415619D01*
X119546666Y-86320380D02*
X120213333Y-86320380D01*
X119784761Y-87320380D01*
D11*
X110617142Y-108418285D02*
X112902857Y-108418285D01*
X111760000Y-109561142D02*
X111760000Y-107275428D01*
X111974285Y-101726857D02*
X111974285Y-99441142D01*
D10*
X111133047Y-67746571D02*
X111275904Y-67794190D01*
X111323523Y-67841809D01*
X111371142Y-67937047D01*
X111371142Y-68079904D01*
X111323523Y-68175142D01*
X111275904Y-68222761D01*
X111180666Y-68270380D01*
X110799714Y-68270380D01*
X110799714Y-67270380D01*
X111133047Y-67270380D01*
X111228285Y-67318000D01*
X111275904Y-67365619D01*
X111323523Y-67460857D01*
X111323523Y-67556095D01*
X111275904Y-67651333D01*
X111228285Y-67698952D01*
X111133047Y-67746571D01*
X110799714Y-67746571D01*
X112323523Y-68270380D02*
X111752095Y-68270380D01*
X112037809Y-68270380D02*
X112037809Y-67270380D01*
X111942571Y-67413238D01*
X111847333Y-67508476D01*
X111752095Y-67556095D01*
X112704476Y-67365619D02*
X112752095Y-67318000D01*
X112847333Y-67270380D01*
X113085428Y-67270380D01*
X113180666Y-67318000D01*
X113228285Y-67365619D01*
X113275904Y-67460857D01*
X113275904Y-67556095D01*
X113228285Y-67698952D01*
X112656857Y-68270380D01*
X113275904Y-68270380D01*
X111133047Y-64952571D02*
X111275904Y-65000190D01*
X111323523Y-65047809D01*
X111371142Y-65143047D01*
X111371142Y-65285904D01*
X111323523Y-65381142D01*
X111275904Y-65428761D01*
X111180666Y-65476380D01*
X110799714Y-65476380D01*
X110799714Y-64476380D01*
X111133047Y-64476380D01*
X111228285Y-64524000D01*
X111275904Y-64571619D01*
X111323523Y-64666857D01*
X111323523Y-64762095D01*
X111275904Y-64857333D01*
X111228285Y-64904952D01*
X111133047Y-64952571D01*
X110799714Y-64952571D01*
X112323523Y-65476380D02*
X111752095Y-65476380D01*
X112037809Y-65476380D02*
X112037809Y-64476380D01*
X111942571Y-64619238D01*
X111847333Y-64714476D01*
X111752095Y-64762095D01*
X112942571Y-64476380D02*
X113037809Y-64476380D01*
X113133047Y-64524000D01*
X113180666Y-64571619D01*
X113228285Y-64666857D01*
X113275904Y-64857333D01*
X113275904Y-65095428D01*
X113228285Y-65285904D01*
X113180666Y-65381142D01*
X113133047Y-65428761D01*
X113037809Y-65476380D01*
X112942571Y-65476380D01*
X112847333Y-65428761D01*
X112799714Y-65381142D01*
X112752095Y-65285904D01*
X112704476Y-65095428D01*
X112704476Y-64857333D01*
X112752095Y-64666857D01*
X112799714Y-64571619D01*
X112847333Y-64524000D01*
X112942571Y-64476380D01*
X110847333Y-70286571D02*
X111180666Y-70286571D01*
X111323523Y-70810380D02*
X110847333Y-70810380D01*
X110847333Y-69810380D01*
X111323523Y-69810380D01*
X112275904Y-70810380D02*
X111704476Y-70810380D01*
X111990190Y-70810380D02*
X111990190Y-69810380D01*
X111894952Y-69953238D01*
X111799714Y-70048476D01*
X111704476Y-70096095D01*
X113133047Y-70143714D02*
X113133047Y-70810380D01*
X112894952Y-69762761D02*
X112656857Y-70477047D01*
X113275904Y-70477047D01*
X111252095Y-72398000D02*
X111156857Y-72350380D01*
X111014000Y-72350380D01*
X110871142Y-72398000D01*
X110775904Y-72493238D01*
X110728285Y-72588476D01*
X110680666Y-72778952D01*
X110680666Y-72921809D01*
X110728285Y-73112285D01*
X110775904Y-73207523D01*
X110871142Y-73302761D01*
X111014000Y-73350380D01*
X111109238Y-73350380D01*
X111252095Y-73302761D01*
X111299714Y-73255142D01*
X111299714Y-72921809D01*
X111109238Y-72921809D01*
X111728285Y-73350380D02*
X111728285Y-72350380D01*
X112299714Y-73350380D01*
X112299714Y-72350380D01*
X112775904Y-73350380D02*
X112775904Y-72350380D01*
X113014000Y-72350380D01*
X113156857Y-72398000D01*
X113252095Y-72493238D01*
X113299714Y-72588476D01*
X113347333Y-72778952D01*
X113347333Y-72921809D01*
X113299714Y-73112285D01*
X113252095Y-73207523D01*
X113156857Y-73302761D01*
X113014000Y-73350380D01*
X112775904Y-73350380D01*
X129230380Y-63396666D02*
X128230380Y-63396666D01*
X128230380Y-63015714D01*
X128278000Y-62920476D01*
X128325619Y-62872857D01*
X128420857Y-62825238D01*
X128563714Y-62825238D01*
X128658952Y-62872857D01*
X128706571Y-62920476D01*
X128754190Y-63015714D01*
X128754190Y-63396666D01*
X128944666Y-62444285D02*
X128944666Y-61968095D01*
X129230380Y-62539523D02*
X128230380Y-62206190D01*
X129230380Y-61872857D01*
X128325619Y-61587142D02*
X128278000Y-61539523D01*
X128230380Y-61444285D01*
X128230380Y-61206190D01*
X128278000Y-61110952D01*
X128325619Y-61063333D01*
X128420857Y-61015714D01*
X128516095Y-61015714D01*
X128658952Y-61063333D01*
X129230380Y-61634761D01*
X129230380Y-61015714D01*
X131770380Y-63396666D02*
X130770380Y-63396666D01*
X130770380Y-63015714D01*
X130818000Y-62920476D01*
X130865619Y-62872857D01*
X130960857Y-62825238D01*
X131103714Y-62825238D01*
X131198952Y-62872857D01*
X131246571Y-62920476D01*
X131294190Y-63015714D01*
X131294190Y-63396666D01*
X131484666Y-62444285D02*
X131484666Y-61968095D01*
X131770380Y-62539523D02*
X130770380Y-62206190D01*
X131770380Y-61872857D01*
X130770380Y-61634761D02*
X130770380Y-61015714D01*
X131151333Y-61349047D01*
X131151333Y-61206190D01*
X131198952Y-61110952D01*
X131246571Y-61063333D01*
X131341809Y-61015714D01*
X131579904Y-61015714D01*
X131675142Y-61063333D01*
X131722761Y-61110952D01*
X131770380Y-61206190D01*
X131770380Y-61491904D01*
X131722761Y-61587142D01*
X131675142Y-61634761D01*
X144946666Y-62436285D02*
X144946666Y-61960095D01*
X145232380Y-62531523D02*
X144232380Y-62198190D01*
X145232380Y-61864857D01*
X144232380Y-61341047D02*
X144232380Y-61245809D01*
X144280000Y-61150571D01*
X144327619Y-61102952D01*
X144422857Y-61055333D01*
X144613333Y-61007714D01*
X144851428Y-61007714D01*
X145041904Y-61055333D01*
X145137142Y-61102952D01*
X145184761Y-61150571D01*
X145232380Y-61245809D01*
X145232380Y-61341047D01*
X145184761Y-61436285D01*
X145137142Y-61483904D01*
X145041904Y-61531523D01*
X144851428Y-61579142D01*
X144613333Y-61579142D01*
X144422857Y-61531523D01*
X144327619Y-61483904D01*
X144280000Y-61436285D01*
X144232380Y-61341047D01*
X147486666Y-62436285D02*
X147486666Y-61960095D01*
X147772380Y-62531523D02*
X146772380Y-62198190D01*
X147772380Y-61864857D01*
X147772380Y-61007714D02*
X147772380Y-61579142D01*
X147772380Y-61293428D02*
X146772380Y-61293428D01*
X146915238Y-61388666D01*
X147010476Y-61483904D01*
X147058095Y-61579142D01*
X149597571Y-62412476D02*
X149597571Y-62079142D01*
X150121380Y-61936285D02*
X150121380Y-62412476D01*
X149121380Y-62412476D01*
X149121380Y-61936285D01*
X149121380Y-61602952D02*
X149121380Y-60983904D01*
X149502333Y-61317238D01*
X149502333Y-61174380D01*
X149549952Y-61079142D01*
X149597571Y-61031523D01*
X149692809Y-60983904D01*
X149930904Y-60983904D01*
X150026142Y-61031523D01*
X150073761Y-61079142D01*
X150121380Y-61174380D01*
X150121380Y-61460095D01*
X150073761Y-61555333D01*
X150026142Y-61602952D01*
X152074571Y-62412476D02*
X152074571Y-62079142D01*
X152598380Y-61936285D02*
X152598380Y-62412476D01*
X151598380Y-62412476D01*
X151598380Y-61936285D01*
X151693619Y-61555333D02*
X151646000Y-61507714D01*
X151598380Y-61412476D01*
X151598380Y-61174380D01*
X151646000Y-61079142D01*
X151693619Y-61031523D01*
X151788857Y-60983904D01*
X151884095Y-60983904D01*
X152026952Y-61031523D01*
X152598380Y-61602952D01*
X152598380Y-60983904D01*
D12*
X160706666Y-66774190D02*
X160706666Y-66274190D01*
X160897142Y-66274190D01*
X160944761Y-66298000D01*
X160968571Y-66321809D01*
X160992380Y-66369428D01*
X160992380Y-66440857D01*
X160968571Y-66488476D01*
X160944761Y-66512285D01*
X160897142Y-66536095D01*
X160706666Y-66536095D01*
X161373333Y-66512285D02*
X161206666Y-66512285D01*
X161206666Y-66774190D02*
X161206666Y-66274190D01*
X161444761Y-66274190D01*
X161849523Y-66274190D02*
X161754285Y-66274190D01*
X161706666Y-66298000D01*
X161682857Y-66321809D01*
X161635238Y-66393238D01*
X161611428Y-66488476D01*
X161611428Y-66678952D01*
X161635238Y-66726571D01*
X161659047Y-66750380D01*
X161706666Y-66774190D01*
X161801904Y-66774190D01*
X161849523Y-66750380D01*
X161873333Y-66726571D01*
X161897142Y-66678952D01*
X161897142Y-66559904D01*
X161873333Y-66512285D01*
X161849523Y-66488476D01*
X161801904Y-66464666D01*
X161706666Y-66464666D01*
X161659047Y-66488476D01*
X161635238Y-66512285D01*
X161611428Y-66559904D01*
D13*
X160722571Y-69568190D02*
X160722571Y-69068190D01*
X160913047Y-69068190D01*
X160960666Y-69092000D01*
X160984476Y-69115809D01*
X161008285Y-69163428D01*
X161008285Y-69234857D01*
X160984476Y-69282476D01*
X160960666Y-69306285D01*
X160913047Y-69330095D01*
X160722571Y-69330095D01*
X161198761Y-69425333D02*
X161436857Y-69425333D01*
X161151142Y-69568190D02*
X161317809Y-69068190D01*
X161484476Y-69568190D01*
X161913047Y-69568190D02*
X161627333Y-69568190D01*
X161770190Y-69568190D02*
X161770190Y-69068190D01*
X161722571Y-69139619D01*
X161674952Y-69187238D01*
X161627333Y-69211047D01*
X162341619Y-69234857D02*
X162341619Y-69568190D01*
X162222571Y-69044380D02*
X162103523Y-69401523D01*
X162413047Y-69401523D01*
D12*
X160686857Y-64488190D02*
X160686857Y-63988190D01*
X160877333Y-63988190D01*
X160924952Y-64012000D01*
X160948761Y-64035809D01*
X160972571Y-64083428D01*
X160972571Y-64154857D01*
X160948761Y-64202476D01*
X160924952Y-64226285D01*
X160877333Y-64250095D01*
X160686857Y-64250095D01*
X161472571Y-64440571D02*
X161448761Y-64464380D01*
X161377333Y-64488190D01*
X161329714Y-64488190D01*
X161258285Y-64464380D01*
X161210666Y-64416761D01*
X161186857Y-64369142D01*
X161163047Y-64273904D01*
X161163047Y-64202476D01*
X161186857Y-64107238D01*
X161210666Y-64059619D01*
X161258285Y-64012000D01*
X161329714Y-63988190D01*
X161377333Y-63988190D01*
X161448761Y-64012000D01*
X161472571Y-64035809D01*
X161948761Y-64488190D02*
X161663047Y-64488190D01*
X161805904Y-64488190D02*
X161805904Y-63988190D01*
X161758285Y-64059619D01*
X161710666Y-64107238D01*
X161663047Y-64131047D01*
X162258285Y-63988190D02*
X162305904Y-63988190D01*
X162353523Y-64012000D01*
X162377333Y-64035809D01*
X162401142Y-64083428D01*
X162424952Y-64178666D01*
X162424952Y-64297714D01*
X162401142Y-64392952D01*
X162377333Y-64440571D01*
X162353523Y-64464380D01*
X162305904Y-64488190D01*
X162258285Y-64488190D01*
X162210666Y-64464380D01*
X162186857Y-64440571D01*
X162163047Y-64392952D01*
X162139238Y-64297714D01*
X162139238Y-64178666D01*
X162163047Y-64083428D01*
X162186857Y-64035809D01*
X162210666Y-64012000D01*
X162258285Y-63988190D01*
D10*
X167687714Y-64428666D02*
X168163904Y-64428666D01*
X167592476Y-64714380D02*
X167925809Y-63714380D01*
X168259142Y-64714380D01*
X168735333Y-64142952D02*
X168640095Y-64095333D01*
X168592476Y-64047714D01*
X168544857Y-63952476D01*
X168544857Y-63904857D01*
X168592476Y-63809619D01*
X168640095Y-63762000D01*
X168735333Y-63714380D01*
X168925809Y-63714380D01*
X169021047Y-63762000D01*
X169068666Y-63809619D01*
X169116285Y-63904857D01*
X169116285Y-63952476D01*
X169068666Y-64047714D01*
X169021047Y-64095333D01*
X168925809Y-64142952D01*
X168735333Y-64142952D01*
X168640095Y-64190571D01*
X168592476Y-64238190D01*
X168544857Y-64333428D01*
X168544857Y-64523904D01*
X168592476Y-64619142D01*
X168640095Y-64666761D01*
X168735333Y-64714380D01*
X168925809Y-64714380D01*
X169021047Y-64666761D01*
X169068666Y-64619142D01*
X169116285Y-64523904D01*
X169116285Y-64333428D01*
X169068666Y-64238190D01*
X169021047Y-64190571D01*
X168925809Y-64142952D01*
X168235333Y-66968142D02*
X168187714Y-67015761D01*
X168044857Y-67063380D01*
X167949619Y-67063380D01*
X167806761Y-67015761D01*
X167711523Y-66920523D01*
X167663904Y-66825285D01*
X167616285Y-66634809D01*
X167616285Y-66491952D01*
X167663904Y-66301476D01*
X167711523Y-66206238D01*
X167806761Y-66111000D01*
X167949619Y-66063380D01*
X168044857Y-66063380D01*
X168187714Y-66111000D01*
X168235333Y-66158619D01*
X168806761Y-66491952D02*
X168711523Y-66444333D01*
X168663904Y-66396714D01*
X168616285Y-66301476D01*
X168616285Y-66253857D01*
X168663904Y-66158619D01*
X168711523Y-66111000D01*
X168806761Y-66063380D01*
X168997238Y-66063380D01*
X169092476Y-66111000D01*
X169140095Y-66158619D01*
X169187714Y-66253857D01*
X169187714Y-66301476D01*
X169140095Y-66396714D01*
X169092476Y-66444333D01*
X168997238Y-66491952D01*
X168806761Y-66491952D01*
X168711523Y-66539571D01*
X168663904Y-66587190D01*
X168616285Y-66682428D01*
X168616285Y-66872904D01*
X168663904Y-66968142D01*
X168711523Y-67015761D01*
X168806761Y-67063380D01*
X168997238Y-67063380D01*
X169092476Y-67015761D01*
X169140095Y-66968142D01*
X169187714Y-66872904D01*
X169187714Y-66682428D01*
X169140095Y-66587190D01*
X169092476Y-66539571D01*
X168997238Y-66491952D01*
X167465523Y-69317666D02*
X167941714Y-69317666D01*
X167370285Y-69603380D02*
X167703619Y-68603380D01*
X168036952Y-69603380D01*
X168894095Y-69603380D02*
X168322666Y-69603380D01*
X168608380Y-69603380D02*
X168608380Y-68603380D01*
X168513142Y-68746238D01*
X168417904Y-68841476D01*
X168322666Y-68889095D01*
X169513142Y-68603380D02*
X169608380Y-68603380D01*
X169703619Y-68651000D01*
X169751238Y-68698619D01*
X169798857Y-68793857D01*
X169846476Y-68984333D01*
X169846476Y-69222428D01*
X169798857Y-69412904D01*
X169751238Y-69508142D01*
X169703619Y-69555761D01*
X169608380Y-69603380D01*
X169513142Y-69603380D01*
X169417904Y-69555761D01*
X169370285Y-69508142D01*
X169322666Y-69412904D01*
X169275047Y-69222428D01*
X169275047Y-68984333D01*
X169322666Y-68793857D01*
X169370285Y-68698619D01*
X169417904Y-68651000D01*
X169513142Y-68603380D01*
X167894095Y-71128000D02*
X167798857Y-71080380D01*
X167656000Y-71080380D01*
X167513142Y-71128000D01*
X167417904Y-71223238D01*
X167370285Y-71318476D01*
X167322666Y-71508952D01*
X167322666Y-71651809D01*
X167370285Y-71842285D01*
X167417904Y-71937523D01*
X167513142Y-72032761D01*
X167656000Y-72080380D01*
X167751238Y-72080380D01*
X167894095Y-72032761D01*
X167941714Y-71985142D01*
X167941714Y-71651809D01*
X167751238Y-71651809D01*
X168370285Y-72080380D02*
X168370285Y-71080380D01*
X168941714Y-72080380D01*
X168941714Y-71080380D01*
X169417904Y-72080380D02*
X169417904Y-71080380D01*
X169656000Y-71080380D01*
X169798857Y-71128000D01*
X169894095Y-71223238D01*
X169941714Y-71318476D01*
X169989333Y-71508952D01*
X169989333Y-71651809D01*
X169941714Y-71842285D01*
X169894095Y-71937523D01*
X169798857Y-72032761D01*
X169656000Y-72080380D01*
X169417904Y-72080380D01*
D11*
X123318952Y-60086761D02*
X123318952Y-58086761D01*
X124461809Y-60086761D02*
X123604666Y-58943904D01*
X124461809Y-58086761D02*
X123318952Y-59229619D01*
X126080857Y-59991523D02*
X125890380Y-60086761D01*
X125509428Y-60086761D01*
X125318952Y-59991523D01*
X125223714Y-59801047D01*
X125223714Y-59039142D01*
X125318952Y-58848666D01*
X125509428Y-58753428D01*
X125890380Y-58753428D01*
X126080857Y-58848666D01*
X126176095Y-59039142D01*
X126176095Y-59229619D01*
X125223714Y-59420095D01*
X127795142Y-59991523D02*
X127604666Y-60086761D01*
X127223714Y-60086761D01*
X127033238Y-59991523D01*
X126938000Y-59801047D01*
X126938000Y-59039142D01*
X127033238Y-58848666D01*
X127223714Y-58753428D01*
X127604666Y-58753428D01*
X127795142Y-58848666D01*
X127890380Y-59039142D01*
X127890380Y-59229619D01*
X126938000Y-59420095D01*
X128747523Y-58753428D02*
X128747523Y-60753428D01*
X128747523Y-58848666D02*
X128938000Y-58753428D01*
X129318952Y-58753428D01*
X129509428Y-58848666D01*
X129604666Y-58943904D01*
X129699904Y-59134380D01*
X129699904Y-59705809D01*
X129604666Y-59896285D01*
X129509428Y-59991523D01*
X129318952Y-60086761D01*
X128938000Y-60086761D01*
X128747523Y-59991523D01*
X132080857Y-60086761D02*
X132080857Y-58086761D01*
X132747523Y-59515333D01*
X133414190Y-58086761D01*
X133414190Y-60086761D01*
X134652285Y-60086761D02*
X134461809Y-59991523D01*
X134366571Y-59896285D01*
X134271333Y-59705809D01*
X134271333Y-59134380D01*
X134366571Y-58943904D01*
X134461809Y-58848666D01*
X134652285Y-58753428D01*
X134938000Y-58753428D01*
X135128476Y-58848666D01*
X135223714Y-58943904D01*
X135318952Y-59134380D01*
X135318952Y-59705809D01*
X135223714Y-59896285D01*
X135128476Y-59991523D01*
X134938000Y-60086761D01*
X134652285Y-60086761D01*
X135985619Y-58753428D02*
X136461809Y-60086761D01*
X136938000Y-58753428D01*
X137699904Y-60086761D02*
X137699904Y-58753428D01*
X137699904Y-58086761D02*
X137604666Y-58182000D01*
X137699904Y-58277238D01*
X137795142Y-58182000D01*
X137699904Y-58086761D01*
X137699904Y-58277238D01*
X138652285Y-58753428D02*
X138652285Y-60086761D01*
X138652285Y-58943904D02*
X138747523Y-58848666D01*
X138938000Y-58753428D01*
X139223714Y-58753428D01*
X139414190Y-58848666D01*
X139509428Y-59039142D01*
X139509428Y-60086761D01*
X141318952Y-58753428D02*
X141318952Y-60372476D01*
X141223714Y-60562952D01*
X141128476Y-60658190D01*
X140938000Y-60753428D01*
X140652285Y-60753428D01*
X140461809Y-60658190D01*
X141318952Y-59991523D02*
X141128476Y-60086761D01*
X140747523Y-60086761D01*
X140557047Y-59991523D01*
X140461809Y-59896285D01*
X140366571Y-59705809D01*
X140366571Y-59134380D01*
X140461809Y-58943904D01*
X140557047Y-58848666D01*
X140747523Y-58753428D01*
X141128476Y-58753428D01*
X141318952Y-58848666D01*
X144461809Y-59039142D02*
X143795142Y-59039142D01*
X143795142Y-60086761D02*
X143795142Y-58086761D01*
X144747523Y-58086761D01*
X145795142Y-60086761D02*
X145604666Y-59991523D01*
X145509428Y-59896285D01*
X145414190Y-59705809D01*
X145414190Y-59134380D01*
X145509428Y-58943904D01*
X145604666Y-58848666D01*
X145795142Y-58753428D01*
X146080857Y-58753428D01*
X146271333Y-58848666D01*
X146366571Y-58943904D01*
X146461809Y-59134380D01*
X146461809Y-59705809D01*
X146366571Y-59896285D01*
X146271333Y-59991523D01*
X146080857Y-60086761D01*
X145795142Y-60086761D01*
X147318952Y-60086761D02*
X147318952Y-58753428D01*
X147318952Y-59134380D02*
X147414190Y-58943904D01*
X147509428Y-58848666D01*
X147699904Y-58753428D01*
X147890380Y-58753428D01*
X148366571Y-58753428D02*
X148747523Y-60086761D01*
X149128476Y-59134380D01*
X149509428Y-60086761D01*
X149890380Y-58753428D01*
X151509428Y-60086761D02*
X151509428Y-59039142D01*
X151414190Y-58848666D01*
X151223714Y-58753428D01*
X150842761Y-58753428D01*
X150652285Y-58848666D01*
X151509428Y-59991523D02*
X151318952Y-60086761D01*
X150842761Y-60086761D01*
X150652285Y-59991523D01*
X150557047Y-59801047D01*
X150557047Y-59610571D01*
X150652285Y-59420095D01*
X150842761Y-59324857D01*
X151318952Y-59324857D01*
X151509428Y-59229619D01*
X152461809Y-60086761D02*
X152461809Y-58753428D01*
X152461809Y-59134380D02*
X152557047Y-58943904D01*
X152652285Y-58848666D01*
X152842761Y-58753428D01*
X153033238Y-58753428D01*
X154557047Y-60086761D02*
X154557047Y-58086761D01*
X154557047Y-59991523D02*
X154366571Y-60086761D01*
X153985619Y-60086761D01*
X153795142Y-59991523D01*
X153699904Y-59896285D01*
X153604666Y-59705809D01*
X153604666Y-59134380D01*
X153699904Y-58943904D01*
X153795142Y-58848666D01*
X153985619Y-58753428D01*
X154366571Y-58753428D01*
X154557047Y-58848666D01*
D14*
G36*
X152282746Y-68349509D02*
G01*
X152653202Y-68461805D01*
X152965991Y-68638871D01*
X153209135Y-68874594D01*
X153321279Y-69050684D01*
X153355863Y-69137000D01*
X153417368Y-69310853D01*
X153502684Y-69562719D01*
X153608700Y-69883074D01*
X153732307Y-70262396D01*
X153870393Y-70691159D01*
X154019849Y-71159842D01*
X154177565Y-71658919D01*
X154286089Y-72004871D01*
X154445185Y-72513377D01*
X154595537Y-72993624D01*
X154734355Y-73436713D01*
X154858844Y-73833748D01*
X154966214Y-74175831D01*
X155053673Y-74454065D01*
X155118426Y-74659553D01*
X155157684Y-74783396D01*
X155168608Y-74817051D01*
X155157421Y-74842794D01*
X155094017Y-74859920D01*
X154966245Y-74869289D01*
X154761954Y-74871761D01*
X154468993Y-74868196D01*
X154450592Y-74867851D01*
X153709336Y-74853800D01*
X152860203Y-72339200D01*
X152011069Y-69824600D01*
X151720514Y-69824600D01*
X150042386Y-74879200D01*
X149262395Y-74879200D01*
X148996058Y-74876874D01*
X148771738Y-74870457D01*
X148606136Y-74860788D01*
X148515952Y-74848707D01*
X148504673Y-74841100D01*
X148523380Y-74786903D01*
X148569373Y-74644319D01*
X148639931Y-74422027D01*
X148732331Y-74128706D01*
X148843851Y-73773036D01*
X148971769Y-73363696D01*
X149113363Y-72909365D01*
X149265910Y-72418724D01*
X149400917Y-71983600D01*
X149580750Y-71407084D01*
X149749340Y-70873729D01*
X149904243Y-70390907D01*
X150043015Y-69965994D01*
X150163213Y-69606362D01*
X150262392Y-69319386D01*
X150338108Y-69112441D01*
X150387917Y-68992899D01*
X150398625Y-68973309D01*
X150629955Y-68707816D01*
X150933644Y-68505770D01*
X151299080Y-68371978D01*
X151715651Y-68311251D01*
X151866600Y-68308098D01*
X152282746Y-68349509D01*
X152282746Y-68349509D01*
G37*
X152282746Y-68349509D02*
X152653202Y-68461805D01*
X152965991Y-68638871D01*
X153209135Y-68874594D01*
X153321279Y-69050684D01*
X153355863Y-69137000D01*
X153417368Y-69310853D01*
X153502684Y-69562719D01*
X153608700Y-69883074D01*
X153732307Y-70262396D01*
X153870393Y-70691159D01*
X154019849Y-71159842D01*
X154177565Y-71658919D01*
X154286089Y-72004871D01*
X154445185Y-72513377D01*
X154595537Y-72993624D01*
X154734355Y-73436713D01*
X154858844Y-73833748D01*
X154966214Y-74175831D01*
X155053673Y-74454065D01*
X155118426Y-74659553D01*
X155157684Y-74783396D01*
X155168608Y-74817051D01*
X155157421Y-74842794D01*
X155094017Y-74859920D01*
X154966245Y-74869289D01*
X154761954Y-74871761D01*
X154468993Y-74868196D01*
X154450592Y-74867851D01*
X153709336Y-74853800D01*
X152860203Y-72339200D01*
X152011069Y-69824600D01*
X151720514Y-69824600D01*
X150042386Y-74879200D01*
X149262395Y-74879200D01*
X148996058Y-74876874D01*
X148771738Y-74870457D01*
X148606136Y-74860788D01*
X148515952Y-74848707D01*
X148504673Y-74841100D01*
X148523380Y-74786903D01*
X148569373Y-74644319D01*
X148639931Y-74422027D01*
X148732331Y-74128706D01*
X148843851Y-73773036D01*
X148971769Y-73363696D01*
X149113363Y-72909365D01*
X149265910Y-72418724D01*
X149400917Y-71983600D01*
X149580750Y-71407084D01*
X149749340Y-70873729D01*
X149904243Y-70390907D01*
X150043015Y-69965994D01*
X150163213Y-69606362D01*
X150262392Y-69319386D01*
X150338108Y-69112441D01*
X150387917Y-68992899D01*
X150398625Y-68973309D01*
X150629955Y-68707816D01*
X150933644Y-68505770D01*
X151299080Y-68371978D01*
X151715651Y-68311251D01*
X151866600Y-68308098D01*
X152282746Y-68349509D01*
G36*
X140845026Y-68322075D02*
G01*
X141250234Y-68440597D01*
X141587751Y-68634512D01*
X141859473Y-68905187D01*
X142029074Y-69174610D01*
X142065520Y-69264546D01*
X142128147Y-69440021D01*
X142213140Y-69689503D01*
X142316686Y-70001459D01*
X142434970Y-70364357D01*
X142564176Y-70766665D01*
X142700492Y-71196850D01*
X142748152Y-71348600D01*
X142883958Y-71780553D01*
X143011784Y-72184351D01*
X143128155Y-72549214D01*
X143229593Y-72864366D01*
X143312622Y-73119027D01*
X143373767Y-73302421D01*
X143409549Y-73403769D01*
X143415864Y-73418700D01*
X143434863Y-73442693D01*
X143470692Y-73461960D01*
X143533597Y-73477013D01*
X143633824Y-73488365D01*
X143781618Y-73496530D01*
X143987226Y-73502021D01*
X144260892Y-73505351D01*
X144612862Y-73507033D01*
X145053381Y-73507580D01*
X145190710Y-73507600D01*
X145686254Y-73507215D01*
X146090444Y-73505009D01*
X146413524Y-73499405D01*
X146665738Y-73488825D01*
X146857331Y-73471691D01*
X146998548Y-73446426D01*
X147099634Y-73411451D01*
X147170833Y-73365189D01*
X147222390Y-73306063D01*
X147264550Y-73232494D01*
X147287749Y-73184660D01*
X147363274Y-72939679D01*
X147342298Y-72722840D01*
X147241899Y-72549405D01*
X147112998Y-72396215D01*
X145806799Y-72380407D01*
X145405867Y-72375124D01*
X145092546Y-72369357D01*
X144852849Y-72361918D01*
X144672791Y-72351617D01*
X144538384Y-72337263D01*
X144435643Y-72317668D01*
X144350580Y-72291641D01*
X144269209Y-72257994D01*
X144246600Y-72247697D01*
X143905267Y-72035647D01*
X143614389Y-71740781D01*
X143381902Y-71372560D01*
X143254331Y-71064987D01*
X143185546Y-70767199D01*
X143156426Y-70424048D01*
X143166018Y-70070628D01*
X143213365Y-69742036D01*
X143297514Y-69473366D01*
X143297658Y-69473046D01*
X143501544Y-69117892D01*
X143762456Y-68840584D01*
X144093443Y-68627378D01*
X144107023Y-68620629D01*
X144447389Y-68453000D01*
X146493294Y-68438135D01*
X148539200Y-68423270D01*
X148539200Y-69799200D01*
X146772503Y-69799200D01*
X146282132Y-69799357D01*
X145883025Y-69800845D01*
X145564845Y-69805191D01*
X145317256Y-69813919D01*
X145129922Y-69828556D01*
X144992506Y-69850626D01*
X144894672Y-69881655D01*
X144826084Y-69923169D01*
X144776405Y-69976692D01*
X144735299Y-70043752D01*
X144703509Y-70104561D01*
X144641697Y-70301683D01*
X144636896Y-70516063D01*
X144683247Y-70717518D01*
X144774891Y-70875864D01*
X144867021Y-70946891D01*
X144941317Y-70959627D01*
X145102275Y-70973049D01*
X145334971Y-70986393D01*
X145624476Y-70998893D01*
X145955865Y-71009786D01*
X146227800Y-71016547D01*
X147497800Y-71043800D01*
X147802600Y-71193337D01*
X148012296Y-71317794D01*
X148226629Y-71478436D01*
X148344830Y-71586451D01*
X148580559Y-71897873D01*
X148738439Y-72257076D01*
X148819517Y-72647829D01*
X148824845Y-73053903D01*
X148755471Y-73459067D01*
X148612446Y-73847091D01*
X148396819Y-74201744D01*
X148158778Y-74463432D01*
X148061416Y-74552198D01*
X147973296Y-74627342D01*
X147885394Y-74689996D01*
X147788685Y-74741297D01*
X147674146Y-74782377D01*
X147532751Y-74814372D01*
X147355478Y-74838415D01*
X147133301Y-74855640D01*
X146857196Y-74867183D01*
X146518140Y-74874176D01*
X146107108Y-74877756D01*
X145615076Y-74879055D01*
X145033019Y-74879208D01*
X144850917Y-74879200D01*
X142298334Y-74879200D01*
X141934949Y-73748900D01*
X141709546Y-73047781D01*
X141513096Y-72437041D01*
X141343399Y-71910351D01*
X141198258Y-71461385D01*
X141075474Y-71083814D01*
X140972849Y-70771310D01*
X140888183Y-70517545D01*
X140819278Y-70316191D01*
X140763937Y-70160921D01*
X140719960Y-70045406D01*
X140685149Y-69963319D01*
X140657305Y-69908332D01*
X140634230Y-69874116D01*
X140613725Y-69854345D01*
X140593592Y-69842689D01*
X140574906Y-69834335D01*
X140464854Y-69809065D01*
X140379330Y-69860097D01*
X140356306Y-69897671D01*
X140320739Y-69979073D01*
X140271007Y-70109210D01*
X140205489Y-70292984D01*
X140122561Y-70535302D01*
X140020602Y-70841066D01*
X139897990Y-71215183D01*
X139753102Y-71662557D01*
X139584316Y-72188093D01*
X139390010Y-72796694D01*
X139168561Y-73493267D01*
X138958691Y-74155300D01*
X138729447Y-74879200D01*
X137939288Y-74879200D01*
X137639588Y-74878296D01*
X137427607Y-74874564D01*
X137289471Y-74866469D01*
X137211306Y-74852479D01*
X137179239Y-74831060D01*
X137179397Y-74800680D01*
X137181275Y-74795431D01*
X137202033Y-74732189D01*
X137249923Y-74581103D01*
X137322068Y-74351394D01*
X137415590Y-74052283D01*
X137527613Y-73692993D01*
X137655259Y-73282746D01*
X137795652Y-72830764D01*
X137945913Y-72346269D01*
X138025203Y-72090331D01*
X138181086Y-71587737D01*
X138330055Y-71108911D01*
X138469023Y-70663677D01*
X138594900Y-70261863D01*
X138704598Y-69913297D01*
X138795028Y-69627804D01*
X138863103Y-69415212D01*
X138905734Y-69285348D01*
X138915963Y-69256061D01*
X139070685Y-68977691D01*
X139305077Y-68735117D01*
X139600845Y-68537198D01*
X139939697Y-68392790D01*
X140303339Y-68310749D01*
X140673478Y-68299934D01*
X140845026Y-68322075D01*
X140845026Y-68322075D01*
G37*
X140845026Y-68322075D02*
X141250234Y-68440597D01*
X141587751Y-68634512D01*
X141859473Y-68905187D01*
X142029074Y-69174610D01*
X142065520Y-69264546D01*
X142128147Y-69440021D01*
X142213140Y-69689503D01*
X142316686Y-70001459D01*
X142434970Y-70364357D01*
X142564176Y-70766665D01*
X142700492Y-71196850D01*
X142748152Y-71348600D01*
X142883958Y-71780553D01*
X143011784Y-72184351D01*
X143128155Y-72549214D01*
X143229593Y-72864366D01*
X143312622Y-73119027D01*
X143373767Y-73302421D01*
X143409549Y-73403769D01*
X143415864Y-73418700D01*
X143434863Y-73442693D01*
X143470692Y-73461960D01*
X143533597Y-73477013D01*
X143633824Y-73488365D01*
X143781618Y-73496530D01*
X143987226Y-73502021D01*
X144260892Y-73505351D01*
X144612862Y-73507033D01*
X145053381Y-73507580D01*
X145190710Y-73507600D01*
X145686254Y-73507215D01*
X146090444Y-73505009D01*
X146413524Y-73499405D01*
X146665738Y-73488825D01*
X146857331Y-73471691D01*
X146998548Y-73446426D01*
X147099634Y-73411451D01*
X147170833Y-73365189D01*
X147222390Y-73306063D01*
X147264550Y-73232494D01*
X147287749Y-73184660D01*
X147363274Y-72939679D01*
X147342298Y-72722840D01*
X147241899Y-72549405D01*
X147112998Y-72396215D01*
X145806799Y-72380407D01*
X145405867Y-72375124D01*
X145092546Y-72369357D01*
X144852849Y-72361918D01*
X144672791Y-72351617D01*
X144538384Y-72337263D01*
X144435643Y-72317668D01*
X144350580Y-72291641D01*
X144269209Y-72257994D01*
X144246600Y-72247697D01*
X143905267Y-72035647D01*
X143614389Y-71740781D01*
X143381902Y-71372560D01*
X143254331Y-71064987D01*
X143185546Y-70767199D01*
X143156426Y-70424048D01*
X143166018Y-70070628D01*
X143213365Y-69742036D01*
X143297514Y-69473366D01*
X143297658Y-69473046D01*
X143501544Y-69117892D01*
X143762456Y-68840584D01*
X144093443Y-68627378D01*
X144107023Y-68620629D01*
X144447389Y-68453000D01*
X146493294Y-68438135D01*
X148539200Y-68423270D01*
X148539200Y-69799200D01*
X146772503Y-69799200D01*
X146282132Y-69799357D01*
X145883025Y-69800845D01*
X145564845Y-69805191D01*
X145317256Y-69813919D01*
X145129922Y-69828556D01*
X144992506Y-69850626D01*
X144894672Y-69881655D01*
X144826084Y-69923169D01*
X144776405Y-69976692D01*
X144735299Y-70043752D01*
X144703509Y-70104561D01*
X144641697Y-70301683D01*
X144636896Y-70516063D01*
X144683247Y-70717518D01*
X144774891Y-70875864D01*
X144867021Y-70946891D01*
X144941317Y-70959627D01*
X145102275Y-70973049D01*
X145334971Y-70986393D01*
X145624476Y-70998893D01*
X145955865Y-71009786D01*
X146227800Y-71016547D01*
X147497800Y-71043800D01*
X147802600Y-71193337D01*
X148012296Y-71317794D01*
X148226629Y-71478436D01*
X148344830Y-71586451D01*
X148580559Y-71897873D01*
X148738439Y-72257076D01*
X148819517Y-72647829D01*
X148824845Y-73053903D01*
X148755471Y-73459067D01*
X148612446Y-73847091D01*
X148396819Y-74201744D01*
X148158778Y-74463432D01*
X148061416Y-74552198D01*
X147973296Y-74627342D01*
X147885394Y-74689996D01*
X147788685Y-74741297D01*
X147674146Y-74782377D01*
X147532751Y-74814372D01*
X147355478Y-74838415D01*
X147133301Y-74855640D01*
X146857196Y-74867183D01*
X146518140Y-74874176D01*
X146107108Y-74877756D01*
X145615076Y-74879055D01*
X145033019Y-74879208D01*
X144850917Y-74879200D01*
X142298334Y-74879200D01*
X141934949Y-73748900D01*
X141709546Y-73047781D01*
X141513096Y-72437041D01*
X141343399Y-71910351D01*
X141198258Y-71461385D01*
X141075474Y-71083814D01*
X140972849Y-70771310D01*
X140888183Y-70517545D01*
X140819278Y-70316191D01*
X140763937Y-70160921D01*
X140719960Y-70045406D01*
X140685149Y-69963319D01*
X140657305Y-69908332D01*
X140634230Y-69874116D01*
X140613725Y-69854345D01*
X140593592Y-69842689D01*
X140574906Y-69834335D01*
X140464854Y-69809065D01*
X140379330Y-69860097D01*
X140356306Y-69897671D01*
X140320739Y-69979073D01*
X140271007Y-70109210D01*
X140205489Y-70292984D01*
X140122561Y-70535302D01*
X140020602Y-70841066D01*
X139897990Y-71215183D01*
X139753102Y-71662557D01*
X139584316Y-72188093D01*
X139390010Y-72796694D01*
X139168561Y-73493267D01*
X138958691Y-74155300D01*
X138729447Y-74879200D01*
X137939288Y-74879200D01*
X137639588Y-74878296D01*
X137427607Y-74874564D01*
X137289471Y-74866469D01*
X137211306Y-74852479D01*
X137179239Y-74831060D01*
X137179397Y-74800680D01*
X137181275Y-74795431D01*
X137202033Y-74732189D01*
X137249923Y-74581103D01*
X137322068Y-74351394D01*
X137415590Y-74052283D01*
X137527613Y-73692993D01*
X137655259Y-73282746D01*
X137795652Y-72830764D01*
X137945913Y-72346269D01*
X138025203Y-72090331D01*
X138181086Y-71587737D01*
X138330055Y-71108911D01*
X138469023Y-70663677D01*
X138594900Y-70261863D01*
X138704598Y-69913297D01*
X138795028Y-69627804D01*
X138863103Y-69415212D01*
X138905734Y-69285348D01*
X138915963Y-69256061D01*
X139070685Y-68977691D01*
X139305077Y-68735117D01*
X139600845Y-68537198D01*
X139939697Y-68392790D01*
X140303339Y-68310749D01*
X140673478Y-68299934D01*
X140845026Y-68322075D01*
G36*
X133015563Y-68357628D02*
G01*
X133408220Y-68502624D01*
X133750761Y-68727061D01*
X134032645Y-69026760D01*
X134084289Y-69100589D01*
X134134404Y-69184836D01*
X134186349Y-69292230D01*
X134243330Y-69432493D01*
X134308549Y-69615345D01*
X134385211Y-69850507D01*
X134476520Y-70147700D01*
X134585680Y-70516645D01*
X134715894Y-70967064D01*
X134822559Y-71340508D01*
X134947453Y-71776310D01*
X135066555Y-72186216D01*
X135176439Y-72558841D01*
X135273675Y-72882798D01*
X135354835Y-73146700D01*
X135416488Y-73339160D01*
X135455207Y-73448793D01*
X135462137Y-73464414D01*
X135534997Y-73569738D01*
X135628979Y-73602556D01*
X135702358Y-73599505D01*
X135864600Y-73583800D01*
X135915400Y-68453000D01*
X137388600Y-68453000D01*
X137388600Y-71120000D01*
X137388361Y-71715214D01*
X137387459Y-72217842D01*
X137385614Y-72636896D01*
X137382547Y-72981391D01*
X137377979Y-73260340D01*
X137371630Y-73482754D01*
X137363221Y-73657648D01*
X137352473Y-73794034D01*
X137339106Y-73900926D01*
X137322840Y-73987337D01*
X137303397Y-74062280D01*
X137296723Y-74084458D01*
X137166652Y-74372844D01*
X136973630Y-74631292D01*
X136739966Y-74835131D01*
X136512303Y-74951867D01*
X136290226Y-75001053D01*
X136004285Y-75027207D01*
X135689495Y-75030658D01*
X135380870Y-75011735D01*
X135113422Y-74970769D01*
X134992488Y-74937565D01*
X134634013Y-74763494D01*
X134334155Y-74513654D01*
X134238436Y-74400376D01*
X134195411Y-74326123D01*
X134141225Y-74198897D01*
X134073681Y-74011843D01*
X133990582Y-73758107D01*
X133889731Y-73430832D01*
X133768930Y-73023165D01*
X133625984Y-72528249D01*
X133526623Y-72179343D01*
X133399813Y-71734575D01*
X133278937Y-71315203D01*
X133167324Y-70932451D01*
X133068304Y-70597538D01*
X132985207Y-70321687D01*
X132921364Y-70116119D01*
X132880103Y-69992054D01*
X132869711Y-69965633D01*
X132764807Y-69824109D01*
X132630704Y-69761756D01*
X132490987Y-69786102D01*
X132433553Y-69826452D01*
X132410835Y-69850199D01*
X132391862Y-69882528D01*
X132376298Y-69932138D01*
X132363804Y-70007728D01*
X132354045Y-70117996D01*
X132346683Y-70271642D01*
X132341383Y-70477363D01*
X132337806Y-70743860D01*
X132335617Y-71079830D01*
X132334478Y-71493972D01*
X132334053Y-71994985D01*
X132334000Y-72397873D01*
X132334000Y-74879200D01*
X130860800Y-74879200D01*
X130861402Y-72224900D01*
X130861852Y-71595908D01*
X130863386Y-71059785D01*
X130866750Y-70607800D01*
X130872685Y-70231222D01*
X130881934Y-69921319D01*
X130895241Y-69669362D01*
X130913348Y-69466618D01*
X130937000Y-69304358D01*
X130966937Y-69173849D01*
X131003904Y-69066362D01*
X131048644Y-68973166D01*
X131101899Y-68885529D01*
X131151786Y-68812627D01*
X131360402Y-68600657D01*
X131651066Y-68443142D01*
X132026204Y-68338857D01*
X132122054Y-68322671D01*
X132583328Y-68296251D01*
X133015563Y-68357628D01*
X133015563Y-68357628D01*
G37*
X133015563Y-68357628D02*
X133408220Y-68502624D01*
X133750761Y-68727061D01*
X134032645Y-69026760D01*
X134084289Y-69100589D01*
X134134404Y-69184836D01*
X134186349Y-69292230D01*
X134243330Y-69432493D01*
X134308549Y-69615345D01*
X134385211Y-69850507D01*
X134476520Y-70147700D01*
X134585680Y-70516645D01*
X134715894Y-70967064D01*
X134822559Y-71340508D01*
X134947453Y-71776310D01*
X135066555Y-72186216D01*
X135176439Y-72558841D01*
X135273675Y-72882798D01*
X135354835Y-73146700D01*
X135416488Y-73339160D01*
X135455207Y-73448793D01*
X135462137Y-73464414D01*
X135534997Y-73569738D01*
X135628979Y-73602556D01*
X135702358Y-73599505D01*
X135864600Y-73583800D01*
X135915400Y-68453000D01*
X137388600Y-68453000D01*
X137388600Y-71120000D01*
X137388361Y-71715214D01*
X137387459Y-72217842D01*
X137385614Y-72636896D01*
X137382547Y-72981391D01*
X137377979Y-73260340D01*
X137371630Y-73482754D01*
X137363221Y-73657648D01*
X137352473Y-73794034D01*
X137339106Y-73900926D01*
X137322840Y-73987337D01*
X137303397Y-74062280D01*
X137296723Y-74084458D01*
X137166652Y-74372844D01*
X136973630Y-74631292D01*
X136739966Y-74835131D01*
X136512303Y-74951867D01*
X136290226Y-75001053D01*
X136004285Y-75027207D01*
X135689495Y-75030658D01*
X135380870Y-75011735D01*
X135113422Y-74970769D01*
X134992488Y-74937565D01*
X134634013Y-74763494D01*
X134334155Y-74513654D01*
X134238436Y-74400376D01*
X134195411Y-74326123D01*
X134141225Y-74198897D01*
X134073681Y-74011843D01*
X133990582Y-73758107D01*
X133889731Y-73430832D01*
X133768930Y-73023165D01*
X133625984Y-72528249D01*
X133526623Y-72179343D01*
X133399813Y-71734575D01*
X133278937Y-71315203D01*
X133167324Y-70932451D01*
X133068304Y-70597538D01*
X132985207Y-70321687D01*
X132921364Y-70116119D01*
X132880103Y-69992054D01*
X132869711Y-69965633D01*
X132764807Y-69824109D01*
X132630704Y-69761756D01*
X132490987Y-69786102D01*
X132433553Y-69826452D01*
X132410835Y-69850199D01*
X132391862Y-69882528D01*
X132376298Y-69932138D01*
X132363804Y-70007728D01*
X132354045Y-70117996D01*
X132346683Y-70271642D01*
X132341383Y-70477363D01*
X132337806Y-70743860D01*
X132335617Y-71079830D01*
X132334478Y-71493972D01*
X132334053Y-71994985D01*
X132334000Y-72397873D01*
X132334000Y-74879200D01*
X130860800Y-74879200D01*
X130861402Y-72224900D01*
X130861852Y-71595908D01*
X130863386Y-71059785D01*
X130866750Y-70607800D01*
X130872685Y-70231222D01*
X130881934Y-69921319D01*
X130895241Y-69669362D01*
X130913348Y-69466618D01*
X130937000Y-69304358D01*
X130966937Y-69173849D01*
X131003904Y-69066362D01*
X131048644Y-68973166D01*
X131101899Y-68885529D01*
X131151786Y-68812627D01*
X131360402Y-68600657D01*
X131651066Y-68443142D01*
X132026204Y-68338857D01*
X132122054Y-68322671D01*
X132583328Y-68296251D01*
X133015563Y-68357628D01*
D15*
X138210000Y-109256000D02*
X138366000Y-109256000D01*
X140526000Y-109256000D02*
X140682000Y-109256000D01*
X138367392Y-106023665D02*
G75*
G03X138210484Y-109256000I1078608J-1672335D01*
G01*
X140524608Y-106023665D02*
G75*
G02X140681516Y-109256000I-1078608J-1672335D01*
G01*
X138366163Y-106654870D02*
G75*
G03X138366000Y-108736961I1079837J-1041130D01*
G01*
X140525837Y-106654870D02*
G75*
G02X140526000Y-108736961I-1079837J-1041130D01*
G01*
X142782000Y-109256000D02*
X142938000Y-109256000D01*
X145098000Y-109256000D02*
X145254000Y-109256000D01*
X142939392Y-106023665D02*
G75*
G03X142782484Y-109256000I1078608J-1672335D01*
G01*
X145096608Y-106023665D02*
G75*
G02X145253516Y-109256000I-1078608J-1672335D01*
G01*
X142938163Y-106654870D02*
G75*
G03X142938000Y-108736961I1079837J-1041130D01*
G01*
X145097837Y-106654870D02*
G75*
G02X145098000Y-108736961I-1079837J-1041130D01*
G01*
X149669837Y-106654870D02*
G75*
G02X149670000Y-108736961I-1079837J-1041130D01*
G01*
X147510163Y-106654870D02*
G75*
G03X147510000Y-108736961I1079837J-1041130D01*
G01*
X149668608Y-106023665D02*
G75*
G02X149825516Y-109256000I-1078608J-1672335D01*
G01*
X147511392Y-106023665D02*
G75*
G03X147354484Y-109256000I1078608J-1672335D01*
G01*
X149670000Y-109256000D02*
X149826000Y-109256000D01*
X147354000Y-109256000D02*
X147510000Y-109256000D01*
X151926000Y-109256000D02*
X152082000Y-109256000D01*
X154242000Y-109256000D02*
X154398000Y-109256000D01*
X152083392Y-106023665D02*
G75*
G03X151926484Y-109256000I1078608J-1672335D01*
G01*
X154240608Y-106023665D02*
G75*
G02X154397516Y-109256000I-1078608J-1672335D01*
G01*
X152082163Y-106654870D02*
G75*
G03X152082000Y-108736961I1079837J-1041130D01*
G01*
X154241837Y-106654870D02*
G75*
G02X154242000Y-108736961I-1079837J-1041130D01*
G01*
X132816870Y-106870163D02*
G75*
G02X134898961Y-106870000I1041130J-1079837D01*
G01*
X132816870Y-109029837D02*
G75*
G03X134898961Y-109030000I1041130J1079837D01*
G01*
X132185665Y-106871392D02*
G75*
G02X135418000Y-106714484I1672335J-1078608D01*
G01*
X132185665Y-109028608D02*
G75*
G03X135418000Y-109185516I1672335J1078608D01*
G01*
X135418000Y-106870000D02*
X135418000Y-106714000D01*
X135418000Y-109186000D02*
X135418000Y-109030000D01*
X123444000Y-108518000D02*
X122114000Y-108518000D01*
X122114000Y-108518000D02*
X122114000Y-107188000D01*
X122114000Y-105918000D02*
X122114000Y-100778000D01*
X124774000Y-100778000D02*
X122114000Y-100778000D01*
X124774000Y-105918000D02*
X124774000Y-100778000D01*
X124774000Y-105918000D02*
X122114000Y-105918000D01*
X128076000Y-71120000D02*
X125416000Y-71120000D01*
X128076000Y-71120000D02*
X128076000Y-68520000D01*
X128076000Y-68520000D02*
X125416000Y-68520000D01*
X125416000Y-71120000D02*
X125416000Y-68520000D01*
X125416000Y-73720000D02*
X125416000Y-72390000D01*
X126746000Y-73720000D02*
X125416000Y-73720000D01*
X114240000Y-88138000D02*
X116900000Y-88138000D01*
X114240000Y-88138000D02*
X114240000Y-95818000D01*
X114240000Y-95818000D02*
X116900000Y-95818000D01*
X116900000Y-88138000D02*
X116900000Y-95818000D01*
X116900000Y-85538000D02*
X116900000Y-86868000D01*
X115570000Y-85538000D02*
X116900000Y-85538000D01*
X123130000Y-87884000D02*
X125790000Y-87884000D01*
X123130000Y-87884000D02*
X123130000Y-95564000D01*
X123130000Y-95564000D02*
X125790000Y-95564000D01*
X125790000Y-87884000D02*
X125790000Y-95564000D01*
X125790000Y-85284000D02*
X125790000Y-86614000D01*
X124460000Y-85284000D02*
X125790000Y-85284000D01*
X133604000Y-85284000D02*
X134934000Y-85284000D01*
X134934000Y-85284000D02*
X134934000Y-86614000D01*
X134934000Y-87884000D02*
X134934000Y-95564000D01*
X132274000Y-95564000D02*
X134934000Y-95564000D01*
X132274000Y-87884000D02*
X132274000Y-95564000D01*
X132274000Y-87884000D02*
X134934000Y-87884000D01*
X115002000Y-66294000D02*
X117662000Y-66294000D01*
X115002000Y-66294000D02*
X115002000Y-73974000D01*
X115002000Y-73974000D02*
X117662000Y-73974000D01*
X117662000Y-66294000D02*
X117662000Y-73974000D01*
X117662000Y-63694000D02*
X117662000Y-65024000D01*
X116332000Y-63694000D02*
X117662000Y-63694000D01*
X137668000Y-64202000D02*
X137668000Y-66862000D01*
X137668000Y-64202000D02*
X124908000Y-64202000D01*
X124908000Y-64202000D02*
X124908000Y-66862000D01*
X137668000Y-66862000D02*
X124908000Y-66862000D01*
X140268000Y-66862000D02*
X138938000Y-66862000D01*
X140268000Y-65532000D02*
X140268000Y-66862000D01*
X160080000Y-68072000D02*
X157420000Y-68072000D01*
X160080000Y-68072000D02*
X160080000Y-62932000D01*
X160080000Y-62932000D02*
X157420000Y-62932000D01*
X157420000Y-68072000D02*
X157420000Y-62932000D01*
X157420000Y-70672000D02*
X157420000Y-69342000D01*
X158750000Y-70672000D02*
X157420000Y-70672000D01*
X153476000Y-65532000D02*
X153476000Y-66862000D01*
X153476000Y-66862000D02*
X152146000Y-66862000D01*
X150876000Y-66862000D02*
X143196000Y-66862000D01*
X143196000Y-64202000D02*
X143196000Y-66862000D01*
X150876000Y-64202000D02*
X143196000Y-64202000D01*
X150876000Y-64202000D02*
X150876000Y-66862000D01*
X166176000Y-70358000D02*
X163516000Y-70358000D01*
X166176000Y-70358000D02*
X166176000Y-62678000D01*
X166176000Y-62678000D02*
X163516000Y-62678000D01*
X163516000Y-70358000D02*
X163516000Y-62678000D01*
X163516000Y-72958000D02*
X163516000Y-71628000D01*
X164846000Y-72958000D02*
X163516000Y-72958000D01*
X162560000Y-93920000D02*
X163890000Y-93920000D01*
X163890000Y-93920000D02*
X163890000Y-95250000D01*
X163890000Y-96520000D02*
X163890000Y-104200000D01*
X161230000Y-104200000D02*
X163890000Y-104200000D01*
X161230000Y-96520000D02*
X161230000Y-104200000D01*
X161230000Y-96520000D02*
X163890000Y-96520000D01*
X157166000Y-86360000D02*
X159826000Y-86360000D01*
X157166000Y-86360000D02*
X157166000Y-104200000D01*
X157166000Y-104200000D02*
X159826000Y-104200000D01*
X159826000Y-86360000D02*
X159826000Y-104200000D01*
X159826000Y-83760000D02*
X159826000Y-85090000D01*
X158496000Y-83760000D02*
X159826000Y-83760000D01*
X119634000Y-99568000D02*
X119634000Y-109728000D01*
X120904000Y-99568000D02*
X113284000Y-99568000D01*
X113284000Y-99568000D02*
X113284000Y-109728000D01*
X113284000Y-109728000D02*
X120904000Y-109728000D01*
X120904000Y-109728000D02*
X120904000Y-99568000D01*
X141112000Y-90180000D02*
X137272000Y-90180000D01*
X137272000Y-90180000D02*
X137272000Y-100320000D01*
X137272000Y-100320000D02*
X141112000Y-100320000D01*
X141112000Y-100320000D02*
X141112000Y-90180000D01*
X139192000Y-89070000D02*
X139192000Y-90180000D01*
X139192000Y-101430000D02*
X139192000Y-100320000D01*
X143510000Y-101430000D02*
X143510000Y-100320000D01*
X143510000Y-89070000D02*
X143510000Y-90180000D01*
X145430000Y-100320000D02*
X145430000Y-90180000D01*
X141590000Y-100320000D02*
X145430000Y-100320000D01*
X141590000Y-90180000D02*
X141590000Y-100320000D01*
X145430000Y-90180000D02*
X141590000Y-90180000D01*
X149748000Y-90180000D02*
X145908000Y-90180000D01*
X145908000Y-90180000D02*
X145908000Y-100320000D01*
X145908000Y-100320000D02*
X149748000Y-100320000D01*
X149748000Y-100320000D02*
X149748000Y-90180000D01*
X147828000Y-89070000D02*
X147828000Y-90180000D01*
X147828000Y-101430000D02*
X147828000Y-100320000D01*
X152146000Y-101430000D02*
X152146000Y-100320000D01*
X152146000Y-89070000D02*
X152146000Y-90180000D01*
X154066000Y-100320000D02*
X154066000Y-90180000D01*
X150226000Y-100320000D02*
X154066000Y-100320000D01*
X150226000Y-90180000D02*
X150226000Y-100320000D01*
X154066000Y-90180000D02*
X150226000Y-90180000D01*
X130698000Y-96276000D02*
X126858000Y-96276000D01*
X126858000Y-96276000D02*
X126858000Y-106416000D01*
X126858000Y-106416000D02*
X130698000Y-106416000D01*
X130698000Y-106416000D02*
X130698000Y-96276000D01*
X128778000Y-95166000D02*
X128778000Y-96276000D01*
X128778000Y-107526000D02*
X128778000Y-106416000D01*
D10*
X138207904Y-111450380D02*
X138207904Y-110450380D01*
X138588857Y-110450380D01*
X138684095Y-110498000D01*
X138731714Y-110545619D01*
X138779333Y-110640857D01*
X138779333Y-110783714D01*
X138731714Y-110878952D01*
X138684095Y-110926571D01*
X138588857Y-110974190D01*
X138207904Y-110974190D01*
X139541238Y-110926571D02*
X139684095Y-110974190D01*
X139731714Y-111021809D01*
X139779333Y-111117047D01*
X139779333Y-111259904D01*
X139731714Y-111355142D01*
X139684095Y-111402761D01*
X139588857Y-111450380D01*
X139207904Y-111450380D01*
X139207904Y-110450380D01*
X139541238Y-110450380D01*
X139636476Y-110498000D01*
X139684095Y-110545619D01*
X139731714Y-110640857D01*
X139731714Y-110736095D01*
X139684095Y-110831333D01*
X139636476Y-110878952D01*
X139541238Y-110926571D01*
X139207904Y-110926571D01*
X140684095Y-110450380D02*
X140207904Y-110450380D01*
X140160285Y-110926571D01*
X140207904Y-110878952D01*
X140303142Y-110831333D01*
X140541238Y-110831333D01*
X140636476Y-110878952D01*
X140684095Y-110926571D01*
X140731714Y-111021809D01*
X140731714Y-111259904D01*
X140684095Y-111355142D01*
X140636476Y-111402761D01*
X140541238Y-111450380D01*
X140303142Y-111450380D01*
X140207904Y-111402761D01*
X140160285Y-111355142D01*
X142779904Y-111450380D02*
X142779904Y-110450380D01*
X143160857Y-110450380D01*
X143256095Y-110498000D01*
X143303714Y-110545619D01*
X143351333Y-110640857D01*
X143351333Y-110783714D01*
X143303714Y-110878952D01*
X143256095Y-110926571D01*
X143160857Y-110974190D01*
X142779904Y-110974190D01*
X144113238Y-110926571D02*
X144256095Y-110974190D01*
X144303714Y-111021809D01*
X144351333Y-111117047D01*
X144351333Y-111259904D01*
X144303714Y-111355142D01*
X144256095Y-111402761D01*
X144160857Y-111450380D01*
X143779904Y-111450380D01*
X143779904Y-110450380D01*
X144113238Y-110450380D01*
X144208476Y-110498000D01*
X144256095Y-110545619D01*
X144303714Y-110640857D01*
X144303714Y-110736095D01*
X144256095Y-110831333D01*
X144208476Y-110878952D01*
X144113238Y-110926571D01*
X143779904Y-110926571D01*
X144684666Y-110450380D02*
X145303714Y-110450380D01*
X144970380Y-110831333D01*
X145113238Y-110831333D01*
X145208476Y-110878952D01*
X145256095Y-110926571D01*
X145303714Y-111021809D01*
X145303714Y-111259904D01*
X145256095Y-111355142D01*
X145208476Y-111402761D01*
X145113238Y-111450380D01*
X144827523Y-111450380D01*
X144732285Y-111402761D01*
X144684666Y-111355142D01*
X147351904Y-111450380D02*
X147351904Y-110450380D01*
X147732857Y-110450380D01*
X147828095Y-110498000D01*
X147875714Y-110545619D01*
X147923333Y-110640857D01*
X147923333Y-110783714D01*
X147875714Y-110878952D01*
X147828095Y-110926571D01*
X147732857Y-110974190D01*
X147351904Y-110974190D01*
X148351904Y-111450380D02*
X148351904Y-110450380D01*
X148590000Y-110450380D01*
X148732857Y-110498000D01*
X148828095Y-110593238D01*
X148875714Y-110688476D01*
X148923333Y-110878952D01*
X148923333Y-111021809D01*
X148875714Y-111212285D01*
X148828095Y-111307523D01*
X148732857Y-111402761D01*
X148590000Y-111450380D01*
X148351904Y-111450380D01*
X149780476Y-110450380D02*
X149590000Y-110450380D01*
X149494761Y-110498000D01*
X149447142Y-110545619D01*
X149351904Y-110688476D01*
X149304285Y-110878952D01*
X149304285Y-111259904D01*
X149351904Y-111355142D01*
X149399523Y-111402761D01*
X149494761Y-111450380D01*
X149685238Y-111450380D01*
X149780476Y-111402761D01*
X149828095Y-111355142D01*
X149875714Y-111259904D01*
X149875714Y-111021809D01*
X149828095Y-110926571D01*
X149780476Y-110878952D01*
X149685238Y-110831333D01*
X149494761Y-110831333D01*
X149399523Y-110878952D01*
X149351904Y-110926571D01*
X149304285Y-111021809D01*
X152177904Y-111450380D02*
X152177904Y-110450380D01*
X152558857Y-110450380D01*
X152654095Y-110498000D01*
X152701714Y-110545619D01*
X152749333Y-110640857D01*
X152749333Y-110783714D01*
X152701714Y-110878952D01*
X152654095Y-110926571D01*
X152558857Y-110974190D01*
X152177904Y-110974190D01*
X153177904Y-111450380D02*
X153177904Y-110450380D01*
X153416000Y-110450380D01*
X153558857Y-110498000D01*
X153654095Y-110593238D01*
X153701714Y-110688476D01*
X153749333Y-110878952D01*
X153749333Y-111021809D01*
X153701714Y-111212285D01*
X153654095Y-111307523D01*
X153558857Y-111402761D01*
X153416000Y-111450380D01*
X153177904Y-111450380D01*
X154606476Y-110783714D02*
X154606476Y-111450380D01*
X154368380Y-110402761D02*
X154130285Y-111117047D01*
X154749333Y-111117047D01*
X133096095Y-111362380D02*
X133000857Y-111314761D01*
X132953238Y-111219523D01*
X132953238Y-110362380D01*
X133858000Y-111314761D02*
X133762761Y-111362380D01*
X133572285Y-111362380D01*
X133477047Y-111314761D01*
X133429428Y-111219523D01*
X133429428Y-110838571D01*
X133477047Y-110743333D01*
X133572285Y-110695714D01*
X133762761Y-110695714D01*
X133858000Y-110743333D01*
X133905619Y-110838571D01*
X133905619Y-110933809D01*
X133429428Y-111029047D01*
X134762761Y-111362380D02*
X134762761Y-110362380D01*
X134762761Y-111314761D02*
X134667523Y-111362380D01*
X134477047Y-111362380D01*
X134381809Y-111314761D01*
X134334190Y-111267142D01*
X134286571Y-111171904D01*
X134286571Y-110886190D01*
X134334190Y-110790952D01*
X134381809Y-110743333D01*
X134477047Y-110695714D01*
X134667523Y-110695714D01*
X134762761Y-110743333D01*
X121301142Y-110362761D02*
X121396380Y-110410380D01*
X121586857Y-110410380D01*
X121682095Y-110362761D01*
X121729714Y-110267523D01*
X121729714Y-110219904D01*
X121682095Y-110124666D01*
X121586857Y-110077047D01*
X121444000Y-110077047D01*
X121348761Y-110029428D01*
X121301142Y-109934190D01*
X121301142Y-109886571D01*
X121348761Y-109791333D01*
X121444000Y-109743714D01*
X121586857Y-109743714D01*
X121682095Y-109791333D01*
X122063047Y-109743714D02*
X122253523Y-110410380D01*
X122444000Y-109934190D01*
X122634476Y-110410380D01*
X122824952Y-109743714D01*
X123205904Y-110410380D02*
X123205904Y-109743714D01*
X123205904Y-109410380D02*
X123158285Y-109458000D01*
X123205904Y-109505619D01*
X123253523Y-109458000D01*
X123205904Y-109410380D01*
X123205904Y-109505619D01*
X123539238Y-109743714D02*
X123920190Y-109743714D01*
X123682095Y-109410380D02*
X123682095Y-110267523D01*
X123729714Y-110362761D01*
X123824952Y-110410380D01*
X123920190Y-110410380D01*
X124682095Y-110362761D02*
X124586857Y-110410380D01*
X124396380Y-110410380D01*
X124301142Y-110362761D01*
X124253523Y-110315142D01*
X124205904Y-110219904D01*
X124205904Y-109934190D01*
X124253523Y-109838952D01*
X124301142Y-109791333D01*
X124396380Y-109743714D01*
X124586857Y-109743714D01*
X124682095Y-109791333D01*
X125110666Y-110410380D02*
X125110666Y-109410380D01*
X125539238Y-110410380D02*
X125539238Y-109886571D01*
X125491619Y-109791333D01*
X125396380Y-109743714D01*
X125253523Y-109743714D01*
X125158285Y-109791333D01*
X125110666Y-109838952D01*
X122134380Y-75286666D02*
X122848666Y-75286666D01*
X122991523Y-75334285D01*
X123086761Y-75429523D01*
X123134380Y-75572380D01*
X123134380Y-75667619D01*
X122467714Y-74381904D02*
X123134380Y-74381904D01*
X122467714Y-74810476D02*
X122991523Y-74810476D01*
X123086761Y-74762857D01*
X123134380Y-74667619D01*
X123134380Y-74524761D01*
X123086761Y-74429523D01*
X123039142Y-74381904D01*
X123134380Y-73905714D02*
X122467714Y-73905714D01*
X122562952Y-73905714D02*
X122515333Y-73858095D01*
X122467714Y-73762857D01*
X122467714Y-73620000D01*
X122515333Y-73524761D01*
X122610571Y-73477142D01*
X123134380Y-73477142D01*
X122610571Y-73477142D02*
X122515333Y-73429523D01*
X122467714Y-73334285D01*
X122467714Y-73191428D01*
X122515333Y-73096190D01*
X122610571Y-73048571D01*
X123134380Y-73048571D01*
X122467714Y-72572380D02*
X123467714Y-72572380D01*
X122515333Y-72572380D02*
X122467714Y-72477142D01*
X122467714Y-72286666D01*
X122515333Y-72191428D01*
X122562952Y-72143809D01*
X122658190Y-72096190D01*
X122943904Y-72096190D01*
X123039142Y-72143809D01*
X123086761Y-72191428D01*
X123134380Y-72286666D01*
X123134380Y-72477142D01*
X123086761Y-72572380D01*
X123086761Y-71286666D02*
X123134380Y-71381904D01*
X123134380Y-71572380D01*
X123086761Y-71667619D01*
X122991523Y-71715238D01*
X122610571Y-71715238D01*
X122515333Y-71667619D01*
X122467714Y-71572380D01*
X122467714Y-71381904D01*
X122515333Y-71286666D01*
X122610571Y-71239047D01*
X122705809Y-71239047D01*
X122801047Y-71715238D01*
X123134380Y-70810476D02*
X122467714Y-70810476D01*
X122658190Y-70810476D02*
X122562952Y-70762857D01*
X122515333Y-70715238D01*
X122467714Y-70620000D01*
X122467714Y-70524761D01*
X122134380Y-69524761D02*
X122134380Y-68905714D01*
X122515333Y-69239047D01*
X122515333Y-69096190D01*
X122562952Y-69000952D01*
X122610571Y-68953333D01*
X122705809Y-68905714D01*
X122943904Y-68905714D01*
X123039142Y-68953333D01*
X123086761Y-69000952D01*
X123134380Y-69096190D01*
X123134380Y-69381904D01*
X123086761Y-69477142D01*
X123039142Y-69524761D01*
X123039142Y-68477142D02*
X123086761Y-68429523D01*
X123134380Y-68477142D01*
X123086761Y-68524761D01*
X123039142Y-68477142D01*
X123134380Y-68477142D01*
X122134380Y-68096190D02*
X122134380Y-67477142D01*
X122515333Y-67810476D01*
X122515333Y-67667619D01*
X122562952Y-67572380D01*
X122610571Y-67524761D01*
X122705809Y-67477142D01*
X122943904Y-67477142D01*
X123039142Y-67524761D01*
X123086761Y-67572380D01*
X123134380Y-67667619D01*
X123134380Y-67953333D01*
X123086761Y-68048571D01*
X123039142Y-68096190D01*
X122134380Y-67191428D02*
X123134380Y-66858095D01*
X122134380Y-66524761D01*
X112831904Y-84026571D02*
X113165238Y-84026571D01*
X113308095Y-84550380D02*
X112831904Y-84550380D01*
X112831904Y-83550380D01*
X113308095Y-83550380D01*
X113736666Y-83883714D02*
X113736666Y-84550380D01*
X113736666Y-83978952D02*
X113784285Y-83931333D01*
X113879523Y-83883714D01*
X114022380Y-83883714D01*
X114117619Y-83931333D01*
X114165238Y-84026571D01*
X114165238Y-84550380D01*
X115070000Y-84502761D02*
X114974761Y-84550380D01*
X114784285Y-84550380D01*
X114689047Y-84502761D01*
X114641428Y-84455142D01*
X114593809Y-84359904D01*
X114593809Y-84074190D01*
X114641428Y-83978952D01*
X114689047Y-83931333D01*
X114784285Y-83883714D01*
X114974761Y-83883714D01*
X115070000Y-83931333D01*
X115641428Y-84550380D02*
X115546190Y-84502761D01*
X115498571Y-84455142D01*
X115450952Y-84359904D01*
X115450952Y-84074190D01*
X115498571Y-83978952D01*
X115546190Y-83931333D01*
X115641428Y-83883714D01*
X115784285Y-83883714D01*
X115879523Y-83931333D01*
X115927142Y-83978952D01*
X115974761Y-84074190D01*
X115974761Y-84359904D01*
X115927142Y-84455142D01*
X115879523Y-84502761D01*
X115784285Y-84550380D01*
X115641428Y-84550380D01*
X116831904Y-84550380D02*
X116831904Y-83550380D01*
X116831904Y-84502761D02*
X116736666Y-84550380D01*
X116546190Y-84550380D01*
X116450952Y-84502761D01*
X116403333Y-84455142D01*
X116355714Y-84359904D01*
X116355714Y-84074190D01*
X116403333Y-83978952D01*
X116450952Y-83931333D01*
X116546190Y-83883714D01*
X116736666Y-83883714D01*
X116831904Y-83931333D01*
X117689047Y-84502761D02*
X117593809Y-84550380D01*
X117403333Y-84550380D01*
X117308095Y-84502761D01*
X117260476Y-84407523D01*
X117260476Y-84026571D01*
X117308095Y-83931333D01*
X117403333Y-83883714D01*
X117593809Y-83883714D01*
X117689047Y-83931333D01*
X117736666Y-84026571D01*
X117736666Y-84121809D01*
X117260476Y-84217047D01*
X118165238Y-84550380D02*
X118165238Y-83883714D01*
X118165238Y-84074190D02*
X118212857Y-83978952D01*
X118260476Y-83931333D01*
X118355714Y-83883714D01*
X118450952Y-83883714D01*
X122626666Y-84296380D02*
X122626666Y-83296380D01*
X122960000Y-84010666D01*
X123293333Y-83296380D01*
X123293333Y-84296380D01*
X123912380Y-84296380D02*
X123817142Y-84248761D01*
X123769523Y-84201142D01*
X123721904Y-84105904D01*
X123721904Y-83820190D01*
X123769523Y-83724952D01*
X123817142Y-83677333D01*
X123912380Y-83629714D01*
X124055238Y-83629714D01*
X124150476Y-83677333D01*
X124198095Y-83724952D01*
X124245714Y-83820190D01*
X124245714Y-84105904D01*
X124198095Y-84201142D01*
X124150476Y-84248761D01*
X124055238Y-84296380D01*
X123912380Y-84296380D01*
X124531428Y-83629714D02*
X124912380Y-83629714D01*
X124674285Y-83296380D02*
X124674285Y-84153523D01*
X124721904Y-84248761D01*
X124817142Y-84296380D01*
X124912380Y-84296380D01*
X125388571Y-84296380D02*
X125293333Y-84248761D01*
X125245714Y-84201142D01*
X125198095Y-84105904D01*
X125198095Y-83820190D01*
X125245714Y-83724952D01*
X125293333Y-83677333D01*
X125388571Y-83629714D01*
X125531428Y-83629714D01*
X125626666Y-83677333D01*
X125674285Y-83724952D01*
X125721904Y-83820190D01*
X125721904Y-84105904D01*
X125674285Y-84201142D01*
X125626666Y-84248761D01*
X125531428Y-84296380D01*
X125388571Y-84296380D01*
X126150476Y-84296380D02*
X126150476Y-83629714D01*
X126150476Y-83820190D02*
X126198095Y-83724952D01*
X126245714Y-83677333D01*
X126340952Y-83629714D01*
X126436190Y-83629714D01*
X131770666Y-84296380D02*
X131770666Y-83296380D01*
X132104000Y-84010666D01*
X132437333Y-83296380D01*
X132437333Y-84296380D01*
X133056380Y-84296380D02*
X132961142Y-84248761D01*
X132913523Y-84201142D01*
X132865904Y-84105904D01*
X132865904Y-83820190D01*
X132913523Y-83724952D01*
X132961142Y-83677333D01*
X133056380Y-83629714D01*
X133199238Y-83629714D01*
X133294476Y-83677333D01*
X133342095Y-83724952D01*
X133389714Y-83820190D01*
X133389714Y-84105904D01*
X133342095Y-84201142D01*
X133294476Y-84248761D01*
X133199238Y-84296380D01*
X133056380Y-84296380D01*
X133675428Y-83629714D02*
X134056380Y-83629714D01*
X133818285Y-83296380D02*
X133818285Y-84153523D01*
X133865904Y-84248761D01*
X133961142Y-84296380D01*
X134056380Y-84296380D01*
X134532571Y-84296380D02*
X134437333Y-84248761D01*
X134389714Y-84201142D01*
X134342095Y-84105904D01*
X134342095Y-83820190D01*
X134389714Y-83724952D01*
X134437333Y-83677333D01*
X134532571Y-83629714D01*
X134675428Y-83629714D01*
X134770666Y-83677333D01*
X134818285Y-83724952D01*
X134865904Y-83820190D01*
X134865904Y-84105904D01*
X134818285Y-84201142D01*
X134770666Y-84248761D01*
X134675428Y-84296380D01*
X134532571Y-84296380D01*
X135294476Y-84296380D02*
X135294476Y-83629714D01*
X135294476Y-83820190D02*
X135342095Y-83724952D01*
X135389714Y-83677333D01*
X135484952Y-83629714D01*
X135580190Y-83629714D01*
X113816095Y-61666380D02*
X113816095Y-60666380D01*
X114149428Y-61380666D01*
X114482761Y-60666380D01*
X114482761Y-61666380D01*
X115149428Y-60666380D02*
X115339904Y-60666380D01*
X115435142Y-60714000D01*
X115530380Y-60809238D01*
X115578000Y-60999714D01*
X115578000Y-61333047D01*
X115530380Y-61523523D01*
X115435142Y-61618761D01*
X115339904Y-61666380D01*
X115149428Y-61666380D01*
X115054190Y-61618761D01*
X114958952Y-61523523D01*
X114911333Y-61333047D01*
X114911333Y-60999714D01*
X114958952Y-60809238D01*
X115054190Y-60714000D01*
X115149428Y-60666380D01*
X115863714Y-60666380D02*
X116435142Y-60666380D01*
X116149428Y-61666380D02*
X116149428Y-60666380D01*
X116958952Y-60666380D02*
X117149428Y-60666380D01*
X117244666Y-60714000D01*
X117339904Y-60809238D01*
X117387523Y-60999714D01*
X117387523Y-61333047D01*
X117339904Y-61523523D01*
X117244666Y-61618761D01*
X117149428Y-61666380D01*
X116958952Y-61666380D01*
X116863714Y-61618761D01*
X116768476Y-61523523D01*
X116720857Y-61333047D01*
X116720857Y-60999714D01*
X116768476Y-60809238D01*
X116863714Y-60714000D01*
X116958952Y-60666380D01*
X118387523Y-61666380D02*
X118054190Y-61190190D01*
X117816095Y-61666380D02*
X117816095Y-60666380D01*
X118197047Y-60666380D01*
X118292285Y-60714000D01*
X118339904Y-60761619D01*
X118387523Y-60856857D01*
X118387523Y-60999714D01*
X118339904Y-61094952D01*
X118292285Y-61142571D01*
X118197047Y-61190190D01*
X117816095Y-61190190D01*
X133342380Y-61936380D02*
X133342380Y-62745904D01*
X133390000Y-62841142D01*
X133437619Y-62888761D01*
X133532857Y-62936380D01*
X133723333Y-62936380D01*
X133818571Y-62888761D01*
X133866190Y-62841142D01*
X133913809Y-62745904D01*
X133913809Y-61936380D01*
X134342380Y-62888761D02*
X134485238Y-62936380D01*
X134723333Y-62936380D01*
X134818571Y-62888761D01*
X134866190Y-62841142D01*
X134913809Y-62745904D01*
X134913809Y-62650666D01*
X134866190Y-62555428D01*
X134818571Y-62507809D01*
X134723333Y-62460190D01*
X134532857Y-62412571D01*
X134437619Y-62364952D01*
X134390000Y-62317333D01*
X134342380Y-62222095D01*
X134342380Y-62126857D01*
X134390000Y-62031619D01*
X134437619Y-61984000D01*
X134532857Y-61936380D01*
X134770952Y-61936380D01*
X134913809Y-61984000D01*
X135294761Y-62650666D02*
X135770952Y-62650666D01*
X135199523Y-62936380D02*
X135532857Y-61936380D01*
X135866190Y-62936380D01*
X136770952Y-62936380D02*
X136437619Y-62460190D01*
X136199523Y-62936380D02*
X136199523Y-61936380D01*
X136580476Y-61936380D01*
X136675714Y-61984000D01*
X136723333Y-62031619D01*
X136770952Y-62126857D01*
X136770952Y-62269714D01*
X136723333Y-62364952D01*
X136675714Y-62412571D01*
X136580476Y-62460190D01*
X136199523Y-62460190D01*
X137056666Y-61936380D02*
X137628095Y-61936380D01*
X137342380Y-62936380D02*
X137342380Y-61936380D01*
X137913809Y-62031619D02*
X137961428Y-61984000D01*
X138056666Y-61936380D01*
X138294761Y-61936380D01*
X138390000Y-61984000D01*
X138437619Y-62031619D01*
X138485238Y-62126857D01*
X138485238Y-62222095D01*
X138437619Y-62364952D01*
X137866190Y-62936380D01*
X138485238Y-62936380D01*
X157980190Y-73604380D02*
X157980190Y-72604380D01*
X158361142Y-72604380D01*
X158456380Y-72652000D01*
X158504000Y-72699619D01*
X158551619Y-72794857D01*
X158551619Y-72937714D01*
X158504000Y-73032952D01*
X158456380Y-73080571D01*
X158361142Y-73128190D01*
X157980190Y-73128190D01*
X158980190Y-73604380D02*
X158980190Y-72604380D01*
X159456380Y-73604380D02*
X159456380Y-72604380D01*
X160027809Y-73604380D01*
X160027809Y-72604380D01*
X154844571Y-68270095D02*
X154844571Y-67936761D01*
X155368380Y-67793904D02*
X155368380Y-68270095D01*
X154368380Y-68270095D01*
X154368380Y-67793904D01*
X154701714Y-67365333D02*
X155368380Y-67365333D01*
X154796952Y-67365333D02*
X154749333Y-67317714D01*
X154701714Y-67222476D01*
X154701714Y-67079619D01*
X154749333Y-66984380D01*
X154844571Y-66936761D01*
X155368380Y-66936761D01*
X155320761Y-66032000D02*
X155368380Y-66127238D01*
X155368380Y-66317714D01*
X155320761Y-66412952D01*
X155273142Y-66460571D01*
X155177904Y-66508190D01*
X154892190Y-66508190D01*
X154796952Y-66460571D01*
X154749333Y-66412952D01*
X154701714Y-66317714D01*
X154701714Y-66127238D01*
X154749333Y-66032000D01*
X155368380Y-65460571D02*
X155320761Y-65555809D01*
X155273142Y-65603428D01*
X155177904Y-65651047D01*
X154892190Y-65651047D01*
X154796952Y-65603428D01*
X154749333Y-65555809D01*
X154701714Y-65460571D01*
X154701714Y-65317714D01*
X154749333Y-65222476D01*
X154796952Y-65174857D01*
X154892190Y-65127238D01*
X155177904Y-65127238D01*
X155273142Y-65174857D01*
X155320761Y-65222476D01*
X155368380Y-65317714D01*
X155368380Y-65460571D01*
X155368380Y-64270095D02*
X154368380Y-64270095D01*
X155320761Y-64270095D02*
X155368380Y-64365333D01*
X155368380Y-64555809D01*
X155320761Y-64651047D01*
X155273142Y-64698666D01*
X155177904Y-64746285D01*
X154892190Y-64746285D01*
X154796952Y-64698666D01*
X154749333Y-64651047D01*
X154701714Y-64555809D01*
X154701714Y-64365333D01*
X154749333Y-64270095D01*
X155320761Y-63412952D02*
X155368380Y-63508190D01*
X155368380Y-63698666D01*
X155320761Y-63793904D01*
X155225523Y-63841523D01*
X154844571Y-63841523D01*
X154749333Y-63793904D01*
X154701714Y-63698666D01*
X154701714Y-63508190D01*
X154749333Y-63412952D01*
X154844571Y-63365333D01*
X154939809Y-63365333D01*
X155035047Y-63841523D01*
X155368380Y-62936761D02*
X154701714Y-62936761D01*
X154892190Y-62936761D02*
X154796952Y-62889142D01*
X154749333Y-62841523D01*
X154701714Y-62746285D01*
X154701714Y-62651047D01*
X163012666Y-75382380D02*
X163012666Y-74382380D01*
X163346000Y-75096666D01*
X163679333Y-74382380D01*
X163679333Y-75382380D01*
X164298380Y-75382380D02*
X164203142Y-75334761D01*
X164155523Y-75287142D01*
X164107904Y-75191904D01*
X164107904Y-74906190D01*
X164155523Y-74810952D01*
X164203142Y-74763333D01*
X164298380Y-74715714D01*
X164441238Y-74715714D01*
X164536476Y-74763333D01*
X164584095Y-74810952D01*
X164631714Y-74906190D01*
X164631714Y-75191904D01*
X164584095Y-75287142D01*
X164536476Y-75334761D01*
X164441238Y-75382380D01*
X164298380Y-75382380D01*
X164917428Y-74715714D02*
X165298380Y-74715714D01*
X165060285Y-74382380D02*
X165060285Y-75239523D01*
X165107904Y-75334761D01*
X165203142Y-75382380D01*
X165298380Y-75382380D01*
X165774571Y-75382380D02*
X165679333Y-75334761D01*
X165631714Y-75287142D01*
X165584095Y-75191904D01*
X165584095Y-74906190D01*
X165631714Y-74810952D01*
X165679333Y-74763333D01*
X165774571Y-74715714D01*
X165917428Y-74715714D01*
X166012666Y-74763333D01*
X166060285Y-74810952D01*
X166107904Y-74906190D01*
X166107904Y-75191904D01*
X166060285Y-75287142D01*
X166012666Y-75334761D01*
X165917428Y-75382380D01*
X165774571Y-75382380D01*
X166536476Y-75382380D02*
X166536476Y-74715714D01*
X166536476Y-74906190D02*
X166584095Y-74810952D01*
X166631714Y-74763333D01*
X166726952Y-74715714D01*
X166822190Y-74715714D01*
X165060380Y-100258380D02*
X165060380Y-100067904D01*
X165108000Y-99972666D01*
X165203238Y-99877428D01*
X165393714Y-99829809D01*
X165727047Y-99829809D01*
X165917523Y-99877428D01*
X166012761Y-99972666D01*
X166060380Y-100067904D01*
X166060380Y-100258380D01*
X166012761Y-100353619D01*
X165917523Y-100448857D01*
X165727047Y-100496476D01*
X165393714Y-100496476D01*
X165203238Y-100448857D01*
X165108000Y-100353619D01*
X165060380Y-100258380D01*
X166060380Y-98925047D02*
X166060380Y-99401238D01*
X165060380Y-99401238D01*
X165536571Y-98591714D02*
X165536571Y-98258380D01*
X166060380Y-98115523D02*
X166060380Y-98591714D01*
X165060380Y-98591714D01*
X165060380Y-98115523D01*
X166060380Y-97686952D02*
X165060380Y-97686952D01*
X165060380Y-97448857D01*
X165108000Y-97306000D01*
X165203238Y-97210761D01*
X165298476Y-97163142D01*
X165488952Y-97115523D01*
X165631809Y-97115523D01*
X165822285Y-97163142D01*
X165917523Y-97210761D01*
X166012761Y-97306000D01*
X166060380Y-97448857D01*
X166060380Y-97686952D01*
X155900380Y-97749904D02*
X154900380Y-97749904D01*
X155614666Y-97416571D01*
X154900380Y-97083238D01*
X155900380Y-97083238D01*
X155900380Y-96607047D02*
X154900380Y-96607047D01*
X154900380Y-96226095D01*
X154948000Y-96130857D01*
X154995619Y-96083238D01*
X155090857Y-96035619D01*
X155233714Y-96035619D01*
X155328952Y-96083238D01*
X155376571Y-96130857D01*
X155424190Y-96226095D01*
X155424190Y-96607047D01*
X154900380Y-95607047D02*
X155709904Y-95607047D01*
X155805142Y-95559428D01*
X155852761Y-95511809D01*
X155900380Y-95416571D01*
X155900380Y-95226095D01*
X155852761Y-95130857D01*
X155805142Y-95083238D01*
X155709904Y-95035619D01*
X154900380Y-95035619D01*
X154900380Y-94130857D02*
X154900380Y-94321333D01*
X154948000Y-94416571D01*
X154995619Y-94464190D01*
X155138476Y-94559428D01*
X155328952Y-94607047D01*
X155709904Y-94607047D01*
X155805142Y-94559428D01*
X155852761Y-94511809D01*
X155900380Y-94416571D01*
X155900380Y-94226095D01*
X155852761Y-94130857D01*
X155805142Y-94083238D01*
X155709904Y-94035619D01*
X155471809Y-94035619D01*
X155376571Y-94083238D01*
X155328952Y-94130857D01*
X155281333Y-94226095D01*
X155281333Y-94416571D01*
X155328952Y-94511809D01*
X155376571Y-94559428D01*
X155471809Y-94607047D01*
X154900380Y-93416571D02*
X154900380Y-93321333D01*
X154948000Y-93226095D01*
X154995619Y-93178476D01*
X155090857Y-93130857D01*
X155281333Y-93083238D01*
X155519428Y-93083238D01*
X155709904Y-93130857D01*
X155805142Y-93178476D01*
X155852761Y-93226095D01*
X155900380Y-93321333D01*
X155900380Y-93416571D01*
X155852761Y-93511809D01*
X155805142Y-93559428D01*
X155709904Y-93607047D01*
X155519428Y-93654666D01*
X155281333Y-93654666D01*
X155090857Y-93607047D01*
X154995619Y-93559428D01*
X154948000Y-93511809D01*
X154900380Y-93416571D01*
X154900380Y-92178476D02*
X154900380Y-92654666D01*
X155376571Y-92702285D01*
X155328952Y-92654666D01*
X155281333Y-92559428D01*
X155281333Y-92321333D01*
X155328952Y-92226095D01*
X155376571Y-92178476D01*
X155471809Y-92130857D01*
X155709904Y-92130857D01*
X155805142Y-92178476D01*
X155852761Y-92226095D01*
X155900380Y-92321333D01*
X155900380Y-92559428D01*
X155852761Y-92654666D01*
X155805142Y-92702285D01*
X154900380Y-91511809D02*
X154900380Y-91416571D01*
X154948000Y-91321333D01*
X154995619Y-91273714D01*
X155090857Y-91226095D01*
X155281333Y-91178476D01*
X155519428Y-91178476D01*
X155709904Y-91226095D01*
X155805142Y-91273714D01*
X155852761Y-91321333D01*
X155900380Y-91416571D01*
X155900380Y-91511809D01*
X155852761Y-91607047D01*
X155805142Y-91654666D01*
X155709904Y-91702285D01*
X155519428Y-91749904D01*
X155281333Y-91749904D01*
X155090857Y-91702285D01*
X154995619Y-91654666D01*
X154948000Y-91607047D01*
X154900380Y-91511809D01*
X111799714Y-106576571D02*
X112799714Y-106576571D01*
X111847333Y-106576571D02*
X111799714Y-106481333D01*
X111799714Y-106290857D01*
X111847333Y-106195619D01*
X111894952Y-106148000D01*
X111990190Y-106100380D01*
X112275904Y-106100380D01*
X112371142Y-106148000D01*
X112418761Y-106195619D01*
X112466380Y-106290857D01*
X112466380Y-106481333D01*
X112418761Y-106576571D01*
X112466380Y-105528952D02*
X112418761Y-105624190D01*
X112371142Y-105671809D01*
X112275904Y-105719428D01*
X111990190Y-105719428D01*
X111894952Y-105671809D01*
X111847333Y-105624190D01*
X111799714Y-105528952D01*
X111799714Y-105386095D01*
X111847333Y-105290857D01*
X111894952Y-105243238D01*
X111990190Y-105195619D01*
X112275904Y-105195619D01*
X112371142Y-105243238D01*
X112418761Y-105290857D01*
X112466380Y-105386095D01*
X112466380Y-105528952D01*
X111799714Y-104862285D02*
X112466380Y-104671809D01*
X111990190Y-104481333D01*
X112466380Y-104290857D01*
X111799714Y-104100380D01*
X112418761Y-103338476D02*
X112466380Y-103433714D01*
X112466380Y-103624190D01*
X112418761Y-103719428D01*
X112323523Y-103767047D01*
X111942571Y-103767047D01*
X111847333Y-103719428D01*
X111799714Y-103624190D01*
X111799714Y-103433714D01*
X111847333Y-103338476D01*
X111942571Y-103290857D01*
X112037809Y-103290857D01*
X112133047Y-103767047D01*
X112466380Y-102862285D02*
X111799714Y-102862285D01*
X111990190Y-102862285D02*
X111894952Y-102814666D01*
X111847333Y-102767047D01*
X111799714Y-102671809D01*
X111799714Y-102576571D01*
X140152380Y-95464285D02*
X140152380Y-96035714D01*
X140152380Y-95750000D02*
X139152380Y-95750000D01*
X139295238Y-95845238D01*
X139390476Y-95940476D01*
X139438095Y-96035714D01*
X140152380Y-95035714D02*
X139152380Y-95035714D01*
X140152380Y-94464285D02*
X139580952Y-94892857D01*
X139152380Y-94464285D02*
X139723809Y-95035714D01*
X143962380Y-95464285D02*
X143962380Y-96035714D01*
X143962380Y-95750000D02*
X142962380Y-95750000D01*
X143105238Y-95845238D01*
X143200476Y-95940476D01*
X143248095Y-96035714D01*
X143962380Y-95035714D02*
X142962380Y-95035714D01*
X143962380Y-94464285D02*
X143390952Y-94892857D01*
X142962380Y-94464285D02*
X143533809Y-95035714D01*
X148280380Y-95464285D02*
X148280380Y-96035714D01*
X148280380Y-95750000D02*
X147280380Y-95750000D01*
X147423238Y-95845238D01*
X147518476Y-95940476D01*
X147566095Y-96035714D01*
X148280380Y-95035714D02*
X147280380Y-95035714D01*
X148280380Y-94464285D02*
X147708952Y-94892857D01*
X147280380Y-94464285D02*
X147851809Y-95035714D01*
X152598380Y-95464285D02*
X152598380Y-96035714D01*
X152598380Y-95750000D02*
X151598380Y-95750000D01*
X151741238Y-95845238D01*
X151836476Y-95940476D01*
X151884095Y-96035714D01*
X152598380Y-95035714D02*
X151598380Y-95035714D01*
X152598380Y-94464285D02*
X152026952Y-94892857D01*
X151598380Y-94464285D02*
X152169809Y-95035714D01*
X132150380Y-101560285D02*
X132150380Y-102131714D01*
X132150380Y-101846000D02*
X131150380Y-101846000D01*
X131293238Y-101941238D01*
X131388476Y-102036476D01*
X131436095Y-102131714D01*
X132150380Y-101131714D02*
X131150380Y-101131714D01*
X132150380Y-100560285D02*
X131578952Y-100988857D01*
X131150380Y-100560285D02*
X131721809Y-101131714D01*
M02*
