  0
SECTION
  2
HEADER
  9
$ANGBASE
  50
0.0
  9
$ANGDIR
  70
  1
  9
$MEASUREMENT
  70
0
  0
ENDSEC
  0
SECTION
  2
TABLES
  0
TABLE
  2
LTYPE
  70
4
  0
LTYPE
  5
40F
  2
CONTINUOUS
  70
0
  3
Solid line
  72
65
  73
0
  40
0.0
  0
LTYPE
  5
410
  2
DASHDOT
 70
0
  3
Dash Dot ____ _ ____ _
 72
65
 73
4
 40
2.0
 49
1.25
 49
-0.25
 49
0.25
 49
-0.25
  0
LTYPE
  5
411
  2
DASHED
 70
0
  3
Dashed __ __ __ __ __
 72
65
 73
2
 40
0.75
 49
0.5
 49
-0.25
  0
LTYPE
  5
43B
  2
DOTTED
 70
0
  3
Dotted .  .  .  .
 72
65
 73
2
 40
0.2
 49
0.0
 49
-0.2
  0
ENDTAB
  0
TABLE
  2
STYLE
  70
4
  0
STYLE
  2
KICAD
  70
0
  40
0
  41
1
  42
1
  50
0
  71
0
  3
isocp.shx
  0
STYLE
  2
KICADB
  70
0
  40
0
  41
1
  42
1
  50
0
  71
0
  3
isocp.shx
  0
STYLE
  2
KICADI
  70
0
  40
0
  41
1
  42
1
  50
15
  71
0
  3
isocp.shx
  0
STYLE
  2
KICADBI
  70
0
  40
0
  41
1
  42
1
  50
15
  71
0
  3
isocp.shx
  0
ENDTAB
  0
TABLE
  2
LAYER
  70
30
  0
LAYER
  2
BLACK
  70
0
  62
7
  6
CONTINUOUS
  0
LAYER
  2
GRAY1
  70
0
  62
251
  6
CONTINUOUS
  0
LAYER
  2
GRAY2
  70
0
  62
8
  6
CONTINUOUS
  0
LAYER
  2
GRAY3
  70
0
  62
9
  6
CONTINUOUS
  0
LAYER
  2
WHITE
  70
0
  62
7
  6
CONTINUOUS
  0
LAYER
  2
LYELLOW
  70
0
  62
51
  6
CONTINUOUS
  0
LAYER
  2
BLUE1
  70
0
  62
178
  6
CONTINUOUS
  0
LAYER
  2
GREEN1
  70
0
  62
98
  6
CONTINUOUS
  0
LAYER
  2
CYAN1
  70
0
  62
138
  6
CONTINUOUS
  0
LAYER
  2
RED1
  70
0
  62
18
  6
CONTINUOUS
  0
LAYER
  2
MAGENTA1
  70
0
  62
228
  6
CONTINUOUS
  0
LAYER
  2
BROWN1
  70
0
  62
58
  6
CONTINUOUS
  0
LAYER
  2
BLUE2
  70
0
  62
5
  6
CONTINUOUS
  0
LAYER
  2
GREEN2
  70
0
  62
3
  6
CONTINUOUS
  0
LAYER
  2
CYAN2
  70
0
  62
4
  6
CONTINUOUS
  0
LAYER
  2
RED2
  70
0
  62
1
  6
CONTINUOUS
  0
LAYER
  2
MAGENTA2
  70
0
  62
6
  6
CONTINUOUS
  0
LAYER
  2
BROWN2
  70
0
  62
54
  6
CONTINUOUS
  0
LAYER
  2
BLUE3
  70
0
  62
171
  6
CONTINUOUS
  0
LAYER
  2
GREEN3
  70
0
  62
91
  6
CONTINUOUS
  0
LAYER
  2
CYAN3
  70
0
  62
131
  6
CONTINUOUS
  0
LAYER
  2
RED3
  70
0
  62
11
  6
CONTINUOUS
  0
LAYER
  2
MAGENTA3
  70
0
  62
221
  6
CONTINUOUS
  0
LAYER
  2
YELLOW3
  70
0
  62
2
  6
CONTINUOUS
  0
LAYER
  2
BLUE4
  70
0
  62
5
  6
CONTINUOUS
  0
LAYER
  2
GREEN4
  70
0
  62
3
  6
CONTINUOUS
  0
LAYER
  2
CYAN4
  70
0
  62
4
  6
CONTINUOUS
  0
LAYER
  2
RED4
  70
0
  62
1
  6
CONTINUOUS
  0
LAYER
  2
MAGENTA4
  70
0
  62
6
  6
CONTINUOUS
  0
LAYER
  2
YELLOW4
  70
0
  62
2
  6
CONTINUOUS
  0
ENDTAB
  0
ENDSEC
  0
SECTION
  2
ENTITIES
0
LINE
8
BLACK
6
CONTINUOUS
10
163.071
20
-76.588
11
163.08
21
-76.5889
0
LINE
8
BLACK
6
CONTINUOUS
10
163.08
20
-76.5889
11
163.091
21
-76.5923
0
LINE
8
BLACK
6
CONTINUOUS
10
163.091
20
-76.5923
11
163.101
21
-76.5979
0
LINE
8
BLACK
6
CONTINUOUS
10
163.101
20
-76.5979
11
163.111
21
-76.6054
0
LINE
8
BLACK
6
CONTINUOUS
10
163.111
20
-76.6054
11
163.118
21
-76.6145
0
LINE
8
BLACK
6
CONTINUOUS
10
163.118
20
-76.6145
11
163.124
21
-76.6249
0
LINE
8
BLACK
6
CONTINUOUS
10
163.124
20
-76.6249
11
163.127
21
-76.6362
0
LINE
8
BLACK
6
CONTINUOUS
10
163.127
20
-76.6362
11
163.128
21
-76.648
0
LINE
8
BLACK
6
CONTINUOUS
10
163.128
20
-76.648
11
163.128
21
-76.6509
0
LINE
8
BLACK
6
CONTINUOUS
10
163.128
20
-76.6509
11
163.128
21
-79.188
0
LINE
8
BLACK
6
CONTINUOUS
10
163.128
20
-79.188
11
165.665
21
-79.188
0
LINE
8
BLACK
6
CONTINUOUS
10
165.665
20
-79.188
11
165.668
21
-79.1877
0
LINE
8
BLACK
6
CONTINUOUS
10
165.668
20
-79.1877
11
165.671
21
-79.188
0
LINE
8
BLACK
6
CONTINUOUS
10
165.671
20
-79.188
11
165.68
21
-79.1889
0
LINE
8
BLACK
6
CONTINUOUS
10
165.68
20
-79.1889
11
165.691
21
-79.1923
0
LINE
8
BLACK
6
CONTINUOUS
10
165.691
20
-79.1923
11
165.701
21
-79.1979
0
LINE
8
BLACK
6
CONTINUOUS
10
165.701
20
-79.1979
11
165.711
21
-79.2054
0
LINE
8
BLACK
6
CONTINUOUS
10
165.711
20
-79.2054
11
165.718
21
-79.2145
0
LINE
8
BLACK
6
CONTINUOUS
10
165.718
20
-79.2145
11
165.724
21
-79.2249
0
LINE
8
BLACK
6
CONTINUOUS
10
165.724
20
-79.2249
11
165.727
21
-79.2362
0
LINE
8
BLACK
6
CONTINUOUS
10
165.727
20
-79.2362
11
165.728
21
-79.248
0
LINE
8
BLACK
6
CONTINUOUS
10
165.728
20
-79.248
11
165.728
21
-79.2509
0
LINE
8
BLACK
6
CONTINUOUS
10
165.728
20
-79.2509
11
165.728
21
-81.8451
0
LINE
8
BLACK
6
CONTINUOUS
10
165.728
20
-81.8451
11
165.728
21
-81.848
0
LINE
8
BLACK
6
CONTINUOUS
10
165.728
20
-81.848
11
165.727
21
-81.8598
0
LINE
8
BLACK
6
CONTINUOUS
10
165.727
20
-81.8598
11
165.724
21
-81.8711
0
LINE
8
BLACK
6
CONTINUOUS
10
165.724
20
-81.8711
11
165.718
21
-81.8815
0
LINE
8
BLACK
6
CONTINUOUS
10
165.718
20
-81.8815
11
165.711
21
-81.8906
0
LINE
8
BLACK
6
CONTINUOUS
10
165.711
20
-81.8906
11
165.701
21
-81.8981
0
LINE
8
BLACK
6
CONTINUOUS
10
165.701
20
-81.8981
11
165.691
21
-81.9037
0
LINE
8
BLACK
6
CONTINUOUS
10
165.691
20
-81.9037
11
165.68
21
-81.9071
0
LINE
8
BLACK
6
CONTINUOUS
10
165.68
20
-81.9071
11
165.671
21
-81.908
0
LINE
8
BLACK
6
CONTINUOUS
10
165.671
20
-81.908
11
165.671
21
-81.908
0
LINE
8
BLACK
6
CONTINUOUS
10
165.671
20
-81.908
11
165.668
21
-81.9083
0
LINE
8
BLACK
6
CONTINUOUS
10
165.668
20
-81.9083
11
165.665
21
-81.908
0
LINE
8
BLACK
6
CONTINUOUS
10
165.665
20
-81.908
11
114.751
21
-81.908
0
LINE
8
BLACK
6
CONTINUOUS
10
114.751
20
-81.908
11
114.748
21
-81.9083
0
LINE
8
BLACK
6
CONTINUOUS
10
114.748
20
-81.9083
11
114.736
21
-81.9071
0
LINE
8
BLACK
6
CONTINUOUS
10
114.736
20
-81.9071
11
114.725
21
-81.9037
0
LINE
8
BLACK
6
CONTINUOUS
10
114.725
20
-81.9037
11
114.715
21
-81.8981
0
LINE
8
BLACK
6
CONTINUOUS
10
114.715
20
-81.8981
11
114.705
21
-81.8906
0
LINE
8
BLACK
6
CONTINUOUS
10
114.705
20
-81.8906
11
114.698
21
-81.8815
0
LINE
8
BLACK
6
CONTINUOUS
10
114.698
20
-81.8815
11
114.692
21
-81.8711
0
LINE
8
BLACK
6
CONTINUOUS
10
114.692
20
-81.8711
11
114.689
21
-81.8598
0
LINE
8
BLACK
6
CONTINUOUS
10
114.689
20
-81.8598
11
114.688
21
-81.848
0
LINE
8
BLACK
6
CONTINUOUS
10
114.688
20
-81.848
11
114.688
21
-81.8451
0
LINE
8
BLACK
6
CONTINUOUS
10
114.688
20
-81.8451
11
114.688
21
-76.651
0
LINE
8
BLACK
6
CONTINUOUS
10
114.688
20
-76.651
11
114.688
21
-76.648
0
LINE
8
BLACK
6
CONTINUOUS
10
114.688
20
-76.648
11
114.689
21
-76.6362
0
LINE
8
BLACK
6
CONTINUOUS
10
114.689
20
-76.6362
11
114.692
21
-76.6249
0
LINE
8
BLACK
6
CONTINUOUS
10
114.692
20
-76.6249
11
114.698
21
-76.6145
0
LINE
8
BLACK
6
CONTINUOUS
10
114.698
20
-76.6145
11
114.705
21
-76.6054
0
LINE
8
BLACK
6
CONTINUOUS
10
114.705
20
-76.6054
11
114.715
21
-76.5979
0
LINE
8
BLACK
6
CONTINUOUS
10
114.715
20
-76.5979
11
114.725
21
-76.5923
0
LINE
8
BLACK
6
CONTINUOUS
10
114.725
20
-76.5923
11
114.736
21
-76.5889
0
LINE
8
BLACK
6
CONTINUOUS
10
114.736
20
-76.5889
11
114.745
21
-76.588
0
LINE
8
BLACK
6
CONTINUOUS
10
114.745
20
-76.588
11
114.745
21
-76.588
0
LINE
8
BLACK
6
CONTINUOUS
10
114.745
20
-76.588
11
114.748
21
-76.5877
0
LINE
8
BLACK
6
CONTINUOUS
10
114.748
20
-76.5877
11
114.751
21
-76.588
0
LINE
8
BLACK
6
CONTINUOUS
10
114.751
20
-76.588
11
163.065
21
-76.588
0
LINE
8
BLACK
6
CONTINUOUS
10
163.065
20
-76.588
11
163.068
21
-76.5877
0
LINE
8
BLACK
6
CONTINUOUS
10
163.068
20
-76.5877
11
163.071
21
-76.588
0
LINE
8
BLACK
6
CONTINUOUS
10
114.808
20
-76.708
11
114.808
21
-81.788
0
LINE
8
BLACK
6
CONTINUOUS
10
114.808
20
-81.788
11
165.608
21
-81.788
0
LINE
8
BLACK
6
CONTINUOUS
10
165.608
20
-81.788
11
165.608
21
-79.308
0
LINE
8
BLACK
6
CONTINUOUS
10
165.608
20
-79.308
11
163.071
21
-79.308
0
LINE
8
BLACK
6
CONTINUOUS
10
163.071
20
-79.308
11
163.068
21
-79.3083
0
LINE
8
BLACK
6
CONTINUOUS
10
163.068
20
-79.3083
11
163.056
21
-79.3071
0
LINE
8
BLACK
6
CONTINUOUS
10
163.056
20
-79.3071
11
163.045
21
-79.3037
0
LINE
8
BLACK
6
CONTINUOUS
10
163.045
20
-79.3037
11
163.035
21
-79.2981
0
LINE
8
BLACK
6
CONTINUOUS
10
163.035
20
-79.2981
11
163.025
21
-79.2906
0
LINE
8
BLACK
6
CONTINUOUS
10
163.025
20
-79.2906
11
163.018
21
-79.2815
0
LINE
8
BLACK
6
CONTINUOUS
10
163.018
20
-79.2815
11
163.012
21
-79.2711
0
LINE
8
BLACK
6
CONTINUOUS
10
163.012
20
-79.2711
11
163.009
21
-79.2598
0
LINE
8
BLACK
6
CONTINUOUS
10
163.009
20
-79.2598
11
163.008
21
-79.248
0
LINE
8
BLACK
6
CONTINUOUS
10
163.008
20
-79.248
11
163.008
21
-79.2451
0
LINE
8
BLACK
6
CONTINUOUS
10
163.008
20
-79.2451
11
163.008
21
-76.708
0
LINE
8
BLACK
6
CONTINUOUS
10
163.008
20
-76.708
11
114.808
21
-76.708
0
LINE
8
BLACK
6
CONTINUOUS
10
167.657
20
-79.5063
11
167.671
21
-79.508
0
LINE
8
BLACK
6
CONTINUOUS
10
167.671
20
-79.508
11
167.685
21
-79.5124
0
LINE
8
BLACK
6
CONTINUOUS
10
167.685
20
-79.5124
11
167.698
21
-79.5194
0
LINE
8
BLACK
6
CONTINUOUS
10
167.698
20
-79.5194
11
167.709
21
-79.5289
0
LINE
8
BLACK
6
CONTINUOUS
10
167.709
20
-79.5289
11
167.718
21
-79.5403
0
LINE
8
BLACK
6
CONTINUOUS
10
167.718
20
-79.5403
11
167.725
21
-79.5532
0
LINE
8
BLACK
6
CONTINUOUS
10
167.725
20
-79.5532
11
167.729
21
-79.5673
0
LINE
8
BLACK
6
CONTINUOUS
10
167.729
20
-79.5673
11
167.731
21
-79.5819
0
LINE
8
BLACK
6
CONTINUOUS
10
167.731
20
-79.5819
11
167.729
21
-79.5964
0
LINE
8
BLACK
6
CONTINUOUS
10
167.729
20
-79.5964
11
167.725
21
-79.6104
0
LINE
8
BLACK
6
CONTINUOUS
10
167.725
20
-79.6104
11
167.718
21
-79.6233
0
LINE
8
BLACK
6
CONTINUOUS
10
167.718
20
-79.6233
11
167.708
21
-79.6346
0
LINE
8
BLACK
6
CONTINUOUS
10
167.708
20
-79.6346
11
167.697
21
-79.6438
0
LINE
8
BLACK
6
CONTINUOUS
10
167.697
20
-79.6438
11
167.684
21
-79.6507
0
LINE
8
BLACK
6
CONTINUOUS
10
167.684
20
-79.6507
11
167.67
21
-79.6549
0
LINE
8
BLACK
6
CONTINUOUS
10
167.67
20
-79.6549
11
167.656
21
-79.6563
0
LINE
8
BLACK
6
CONTINUOUS
10
167.656
20
-79.6563
11
166.954
21
-79.6563
0
LINE
8
BLACK
6
CONTINUOUS
10
166.954
20
-79.6563
11
166.839
21
-79.6945
0
LINE
8
BLACK
6
CONTINUOUS
10
166.839
20
-79.6945
11
166.769
21
-79.7647
0
LINE
8
BLACK
6
CONTINUOUS
10
166.769
20
-79.7647
11
166.731
21
-79.8792
0
LINE
8
BLACK
6
CONTINUOUS
10
166.731
20
-79.8792
11
166.731
21
-79.9623
0
LINE
8
BLACK
6
CONTINUOUS
10
166.731
20
-79.9623
11
166.731
21
-79.9633
0
LINE
8
BLACK
6
CONTINUOUS
10
166.731
20
-79.9633
11
166.729
21
-79.9779
0
LINE
8
BLACK
6
CONTINUOUS
10
166.729
20
-79.9779
11
166.725
21
-79.9918
0
LINE
8
BLACK
6
CONTINUOUS
10
166.725
20
-79.9918
11
166.718
21
-80.0047
0
LINE
8
BLACK
6
CONTINUOUS
10
166.718
20
-80.0047
11
166.708
21
-80.0159
0
LINE
8
BLACK
6
CONTINUOUS
10
166.708
20
-80.0159
11
166.697
21
-80.025
0
LINE
8
BLACK
6
CONTINUOUS
10
166.697
20
-80.025
11
166.684
21
-80.0318
0
LINE
8
BLACK
6
CONTINUOUS
10
166.684
20
-80.0318
11
166.67
21
-80.036
0
LINE
8
BLACK
6
CONTINUOUS
10
166.67
20
-80.036
11
166.655
21
-80.0373
0
LINE
8
BLACK
6
CONTINUOUS
10
166.655
20
-80.0373
11
166.641
21
-80.0358
0
LINE
8
BLACK
6
CONTINUOUS
10
166.641
20
-80.0358
11
166.627
21
-80.0314
0
LINE
8
BLACK
6
CONTINUOUS
10
166.627
20
-80.0314
11
166.614
21
-80.0245
0
LINE
8
BLACK
6
CONTINUOUS
10
166.614
20
-80.0245
11
166.602
21
-80.0151
0
LINE
8
BLACK
6
CONTINUOUS
10
166.602
20
-80.0151
11
166.593
21
-80.0038
0
LINE
8
BLACK
6
CONTINUOUS
10
166.593
20
-80.0038
11
166.586
21
-79.9909
0
LINE
8
BLACK
6
CONTINUOUS
10
166.586
20
-79.9909
11
166.582
21
-79.9769
0
LINE
8
BLACK
6
CONTINUOUS
10
166.582
20
-79.9769
11
166.581
21
-79.9623
0
LINE
8
BLACK
6
CONTINUOUS
10
166.581
20
-79.9623
11
166.581
21
-79.867
0
LINE
8
BLACK
6
CONTINUOUS
10
166.581
20
-79.867
11
166.581
21
-79.866
0
LINE
8
BLACK
6
CONTINUOUS
10
166.581
20
-79.866
11
166.581
21
-79.8618
0
LINE
8
BLACK
6
CONTINUOUS
10
166.581
20
-79.8618
11
166.581
21
-79.8576
0
LINE
8
BLACK
6
CONTINUOUS
10
166.581
20
-79.8576
11
166.582
21
-79.8546
0
LINE
8
BLACK
6
CONTINUOUS
10
166.582
20
-79.8546
11
166.582
21
-79.8515
0
LINE
8
BLACK
6
CONTINUOUS
10
166.582
20
-79.8515
11
166.584
21
-79.8474
0
LINE
8
BLACK
6
CONTINUOUS
10
166.584
20
-79.8474
11
166.584
21
-79.8433
0
LINE
8
BLACK
6
CONTINUOUS
10
166.584
20
-79.8433
11
166.632
21
-79.7005
0
LINE
8
BLACK
6
CONTINUOUS
10
166.632
20
-79.7005
11
166.632
21
-79.6995
0
LINE
8
BLACK
6
CONTINUOUS
10
166.632
20
-79.6995
11
166.633
21
-79.6975
0
LINE
8
BLACK
6
CONTINUOUS
10
166.633
20
-79.6975
11
166.634
21
-79.6954
0
LINE
8
BLACK
6
CONTINUOUS
10
166.634
20
-79.6954
11
166.636
21
-79.6909
0
LINE
8
BLACK
6
CONTINUOUS
10
166.636
20
-79.6909
11
166.639
21
-79.6862
0
LINE
8
BLACK
6
CONTINUOUS
10
166.639
20
-79.6862
11
166.64
21
-79.6844
0
LINE
8
BLACK
6
CONTINUOUS
10
166.64
20
-79.6844
11
166.641
21
-79.6825
0
LINE
8
BLACK
6
CONTINUOUS
10
166.641
20
-79.6825
11
166.644
21
-79.6785
0
LINE
8
BLACK
6
CONTINUOUS
10
166.644
20
-79.6785
11
166.647
21
-79.6744
0
LINE
8
BLACK
6
CONTINUOUS
10
166.647
20
-79.6744
11
166.649
21
-79.6729
0
LINE
8
BLACK
6
CONTINUOUS
10
166.649
20
-79.6729
11
166.65
21
-79.6712
0
LINE
8
BLACK
6
CONTINUOUS
10
166.65
20
-79.6712
11
166.745
21
-79.5759
0
LINE
8
BLACK
6
CONTINUOUS
10
166.745
20
-79.5759
11
166.746
21
-79.5752
0
LINE
8
BLACK
6
CONTINUOUS
10
166.746
20
-79.5752
11
166.748
21
-79.5738
0
LINE
8
BLACK
6
CONTINUOUS
10
166.748
20
-79.5738
11
166.749
21
-79.5722
0
LINE
8
BLACK
6
CONTINUOUS
10
166.749
20
-79.5722
11
166.754
21
-79.5692
0
LINE
8
BLACK
6
CONTINUOUS
10
166.754
20
-79.5692
11
166.758
21
-79.5661
0
LINE
8
BLACK
6
CONTINUOUS
10
166.758
20
-79.5661
11
166.76
21
-79.565
0
LINE
8
BLACK
6
CONTINUOUS
10
166.76
20
-79.565
11
166.761
21
-79.5638
0
LINE
8
BLACK
6
CONTINUOUS
10
166.761
20
-79.5638
11
166.766
21
-79.5617
0
LINE
8
BLACK
6
CONTINUOUS
10
166.766
20
-79.5617
11
166.771
21
-79.5593
0
LINE
8
BLACK
6
CONTINUOUS
10
166.771
20
-79.5593
11
166.773
21
-79.5587
0
LINE
8
BLACK
6
CONTINUOUS
10
166.773
20
-79.5587
11
166.775
21
-79.5578
0
LINE
8
BLACK
6
CONTINUOUS
10
166.775
20
-79.5578
11
166.918
21
-79.5102
0
LINE
8
BLACK
6
CONTINUOUS
10
166.918
20
-79.5102
11
166.919
21
-79.5099
0
LINE
8
BLACK
6
CONTINUOUS
10
166.919
20
-79.5099
11
166.923
21
-79.509
0
LINE
8
BLACK
6
CONTINUOUS
10
166.923
20
-79.509
11
166.927
21
-79.5078
0
LINE
8
BLACK
6
CONTINUOUS
10
166.927
20
-79.5078
11
166.93
21
-79.5075
0
LINE
8
BLACK
6
CONTINUOUS
10
166.93
20
-79.5075
11
166.933
21
-79.5068
0
LINE
8
BLACK
6
CONTINUOUS
10
166.933
20
-79.5068
11
166.937
21
-79.5067
0
LINE
8
BLACK
6
CONTINUOUS
10
166.937
20
-79.5067
11
166.941
21
-79.5063
0
LINE
8
BLACK
6
CONTINUOUS
10
166.941
20
-79.5063
11
167.656
21
-79.5063
0
LINE
8
BLACK
6
CONTINUOUS
10
167.656
20
-79.5063
11
167.657
21
-79.5063
0
LINE
8
BLACK
6
CONTINUOUS
10
167.466
20
-78.5063
11
167.468
21
-78.5066
0
LINE
8
BLACK
6
CONTINUOUS
10
167.468
20
-78.5066
11
167.471
21
-78.5065
0
LINE
8
BLACK
6
CONTINUOUS
10
167.471
20
-78.5065
11
167.476
21
-78.5074
0
LINE
8
BLACK
6
CONTINUOUS
10
167.476
20
-78.5074
11
167.481
21
-78.508
0
LINE
8
BLACK
6
CONTINUOUS
10
167.481
20
-78.508
11
167.483
21
-78.5086
0
LINE
8
BLACK
6
CONTINUOUS
10
167.483
20
-78.5086
11
167.485
21
-78.509
0
LINE
8
BLACK
6
CONTINUOUS
10
167.485
20
-78.509
11
167.49
21
-78.5108
0
LINE
8
BLACK
6
CONTINUOUS
10
167.49
20
-78.5108
11
167.495
21
-78.5124
0
LINE
8
BLACK
6
CONTINUOUS
10
167.495
20
-78.5124
11
167.497
21
-78.5135
0
LINE
8
BLACK
6
CONTINUOUS
10
167.497
20
-78.5135
11
167.499
21
-78.5143
0
LINE
8
BLACK
6
CONTINUOUS
10
167.499
20
-78.5143
11
167.594
21
-78.5619
0
LINE
8
BLACK
6
CONTINUOUS
10
167.594
20
-78.5619
11
167.595
21
-78.5623
0
LINE
8
BLACK
6
CONTINUOUS
10
167.595
20
-78.5623
11
167.598
21
-78.5646
0
LINE
8
BLACK
6
CONTINUOUS
10
167.598
20
-78.5646
11
167.602
21
-78.5666
0
LINE
8
BLACK
6
CONTINUOUS
10
167.602
20
-78.5666
11
167.605
21
-78.5686
0
LINE
8
BLACK
6
CONTINUOUS
10
167.605
20
-78.5686
11
167.607
21
-78.5703
0
LINE
8
BLACK
6
CONTINUOUS
10
167.607
20
-78.5703
11
167.61
21
-78.5732
0
LINE
8
BLACK
6
CONTINUOUS
10
167.61
20
-78.5732
11
167.613
21
-78.5759
0
LINE
8
BLACK
6
CONTINUOUS
10
167.613
20
-78.5759
11
167.661
21
-78.6235
0
LINE
8
BLACK
6
CONTINUOUS
10
167.661
20
-78.6235
11
167.662
21
-78.6243
0
LINE
8
BLACK
6
CONTINUOUS
10
167.662
20
-78.6243
11
167.664
21
-78.6276
0
LINE
8
BLACK
6
CONTINUOUS
10
167.664
20
-78.6276
11
167.667
21
-78.6306
0
LINE
8
BLACK
6
CONTINUOUS
10
167.667
20
-78.6306
11
167.669
21
-78.6333
0
LINE
8
BLACK
6
CONTINUOUS
10
167.669
20
-78.6333
11
167.671
21
-78.6357
0
LINE
8
BLACK
6
CONTINUOUS
10
167.671
20
-78.6357
11
167.673
21
-78.6395
0
LINE
8
BLACK
6
CONTINUOUS
10
167.673
20
-78.6395
11
167.675
21
-78.643
0
LINE
8
BLACK
6
CONTINUOUS
10
167.675
20
-78.643
11
167.723
21
-78.7383
0
LINE
8
BLACK
6
CONTINUOUS
10
167.723
20
-78.7383
11
167.723
21
-78.7392
0
LINE
8
BLACK
6
CONTINUOUS
10
167.723
20
-78.7392
11
167.724
21
-78.7413
0
LINE
8
BLACK
6
CONTINUOUS
10
167.724
20
-78.7413
11
167.725
21
-78.7432
0
LINE
8
BLACK
6
CONTINUOUS
10
167.725
20
-78.7432
11
167.726
21
-78.7481
0
LINE
8
BLACK
6
CONTINUOUS
10
167.726
20
-78.7481
11
167.728
21
-78.7529
0
LINE
8
BLACK
6
CONTINUOUS
10
167.728
20
-78.7529
11
167.729
21
-78.7551
0
LINE
8
BLACK
6
CONTINUOUS
10
167.729
20
-78.7551
11
167.729
21
-78.7572
0
LINE
8
BLACK
6
CONTINUOUS
10
167.729
20
-78.7572
11
167.73
21
-78.7623
0
LINE
8
BLACK
6
CONTINUOUS
10
167.73
20
-78.7623
11
167.73
21
-78.7674
0
LINE
8
BLACK
6
CONTINUOUS
10
167.73
20
-78.7674
11
167.73
21
-78.7696
0
LINE
8
BLACK
6
CONTINUOUS
10
167.73
20
-78.7696
11
167.731
21
-78.7718
0
LINE
8
BLACK
6
CONTINUOUS
10
167.731
20
-78.7718
11
167.731
21
-78.9623
0
LINE
8
BLACK
6
CONTINUOUS
10
167.731
20
-78.9623
11
167.731
21
-78.9633
0
LINE
8
BLACK
6
CONTINUOUS
10
167.731
20
-78.9633
11
167.73
21
-78.9655
0
LINE
8
BLACK
6
CONTINUOUS
10
167.73
20
-78.9655
11
167.73
21
-78.9677
0
LINE
8
BLACK
6
CONTINUOUS
10
167.73
20
-78.9677
11
167.73
21
-78.9728
0
LINE
8
BLACK
6
CONTINUOUS
10
167.73
20
-78.9728
11
167.729
21
-78.9779
0
LINE
8
BLACK
6
CONTINUOUS
10
167.729
20
-78.9779
11
167.728
21
-78.98
0
LINE
8
BLACK
6
CONTINUOUS
10
167.728
20
-78.98
11
167.728
21
-78.9822
0
LINE
8
BLACK
6
CONTINUOUS
10
167.728
20
-78.9822
11
167.726
21
-78.987
0
LINE
8
BLACK
6
CONTINUOUS
10
167.726
20
-78.987
11
167.725
21
-78.9918
0
LINE
8
BLACK
6
CONTINUOUS
10
167.725
20
-78.9918
11
167.723
21
-78.9938
0
LINE
8
BLACK
6
CONTINUOUS
10
167.723
20
-78.9938
11
167.723
21
-78.9958
0
LINE
8
BLACK
6
CONTINUOUS
10
167.723
20
-78.9958
11
167.675
21
-79.0911
0
LINE
8
BLACK
6
CONTINUOUS
10
167.675
20
-79.0911
11
167.675
21
-79.092
0
LINE
8
BLACK
6
CONTINUOUS
10
167.675
20
-79.092
11
167.672
21
-79.0955
0
LINE
8
BLACK
6
CONTINUOUS
10
167.672
20
-79.0955
11
167.67
21
-79.0992
0
LINE
8
BLACK
6
CONTINUOUS
10
167.67
20
-79.0992
11
167.668
21
-79.1017
0
LINE
8
BLACK
6
CONTINUOUS
10
167.668
20
-79.1017
11
167.667
21
-79.1043
0
LINE
8
BLACK
6
CONTINUOUS
10
167.667
20
-79.1043
11
167.664
21
-79.1073
0
LINE
8
BLACK
6
CONTINUOUS
10
167.664
20
-79.1073
11
167.661
21
-79.1106
0
LINE
8
BLACK
6
CONTINUOUS
10
167.661
20
-79.1106
11
167.613
21
-79.1582
0
LINE
8
BLACK
6
CONTINUOUS
10
167.613
20
-79.1582
11
167.613
21
-79.1589
0
LINE
8
BLACK
6
CONTINUOUS
10
167.613
20
-79.1589
11
167.609
21
-79.1615
0
LINE
8
BLACK
6
CONTINUOUS
10
167.609
20
-79.1615
11
167.606
21
-79.1644
0
LINE
8
BLACK
6
CONTINUOUS
10
167.606
20
-79.1644
11
167.604
21
-79.1661
0
LINE
8
BLACK
6
CONTINUOUS
10
167.604
20
-79.1661
11
167.601
21
-79.168
0
LINE
8
BLACK
6
CONTINUOUS
10
167.601
20
-79.168
11
167.597
21
-79.17
0
LINE
8
BLACK
6
CONTINUOUS
10
167.597
20
-79.17
11
167.594
21
-79.1722
0
LINE
8
BLACK
6
CONTINUOUS
10
167.594
20
-79.1722
11
167.499
21
-79.2198
0
LINE
8
BLACK
6
CONTINUOUS
10
167.499
20
-79.2198
11
167.498
21
-79.2203
0
LINE
8
BLACK
6
CONTINUOUS
10
167.498
20
-79.2203
11
167.496
21
-79.2211
0
LINE
8
BLACK
6
CONTINUOUS
10
167.496
20
-79.2211
11
167.494
21
-79.2221
0
LINE
8
BLACK
6
CONTINUOUS
10
167.494
20
-79.2221
11
167.489
21
-79.2236
0
LINE
8
BLACK
6
CONTINUOUS
10
167.489
20
-79.2236
11
167.484
21
-79.2253
0
LINE
8
BLACK
6
CONTINUOUS
10
167.484
20
-79.2253
11
167.482
21
-79.2257
0
LINE
8
BLACK
6
CONTINUOUS
10
167.482
20
-79.2257
11
167.48
21
-79.2263
0
LINE
8
BLACK
6
CONTINUOUS
10
167.48
20
-79.2263
11
167.475
21
-79.2268
0
LINE
8
BLACK
6
CONTINUOUS
10
167.475
20
-79.2268
11
167.47
21
-79.2276
0
LINE
8
BLACK
6
CONTINUOUS
10
167.47
20
-79.2276
11
167.467
21
-79.2275
0
LINE
8
BLACK
6
CONTINUOUS
10
167.467
20
-79.2275
11
167.465
21
-79.2278
0
LINE
8
BLACK
6
CONTINUOUS
10
167.465
20
-79.2278
11
167.227
21
-79.2278
0
LINE
8
BLACK
6
CONTINUOUS
10
167.227
20
-79.2278
11
167.226
21
-79.2278
0
LINE
8
BLACK
6
CONTINUOUS
10
167.226
20
-79.2278
11
167.224
21
-79.2275
0
LINE
8
BLACK
6
CONTINUOUS
10
167.224
20
-79.2275
11
167.222
21
-79.2276
0
LINE
8
BLACK
6
CONTINUOUS
10
167.222
20
-79.2276
11
167.217
21
-79.2267
0
LINE
8
BLACK
6
CONTINUOUS
10
167.217
20
-79.2267
11
167.211
21
-79.2261
0
LINE
8
BLACK
6
CONTINUOUS
10
167.211
20
-79.2261
11
167.209
21
-79.2255
0
LINE
8
BLACK
6
CONTINUOUS
10
167.209
20
-79.2255
11
167.207
21
-79.2251
0
LINE
8
BLACK
6
CONTINUOUS
10
167.207
20
-79.2251
11
167.202
21
-79.2232
0
LINE
8
BLACK
6
CONTINUOUS
10
167.202
20
-79.2232
11
167.198
21
-79.2217
0
LINE
8
BLACK
6
CONTINUOUS
10
167.198
20
-79.2217
11
167.196
21
-79.2206
0
LINE
8
BLACK
6
CONTINUOUS
10
167.196
20
-79.2206
11
167.194
21
-79.2198
0
LINE
8
BLACK
6
CONTINUOUS
10
167.194
20
-79.2198
11
167.098
21
-79.1722
0
LINE
8
BLACK
6
CONTINUOUS
10
167.098
20
-79.1722
11
167.097
21
-79.1718
0
LINE
8
BLACK
6
CONTINUOUS
10
167.097
20
-79.1718
11
167.094
21
-79.1695
0
LINE
8
BLACK
6
CONTINUOUS
10
167.094
20
-79.1695
11
167.09
21
-79.1675
0
LINE
8
BLACK
6
CONTINUOUS
10
167.09
20
-79.1675
11
167.088
21
-79.1655
0
LINE
8
BLACK
6
CONTINUOUS
10
167.088
20
-79.1655
11
167.085
21
-79.1638
0
LINE
8
BLACK
6
CONTINUOUS
10
167.085
20
-79.1638
11
167.082
21
-79.1608
0
LINE
8
BLACK
6
CONTINUOUS
10
167.082
20
-79.1608
11
167.079
21
-79.1582
0
LINE
8
BLACK
6
CONTINUOUS
10
167.079
20
-79.1582
11
167.031
21
-79.1106
0
LINE
8
BLACK
6
CONTINUOUS
10
167.031
20
-79.1106
11
167.03
21
-79.1098
0
LINE
8
BLACK
6
CONTINUOUS
10
167.03
20
-79.1098
11
167.028
21
-79.1065
0
LINE
8
BLACK
6
CONTINUOUS
10
167.028
20
-79.1065
11
167.025
21
-79.1035
0
LINE
8
BLACK
6
CONTINUOUS
10
167.025
20
-79.1035
11
167.023
21
-79.1008
0
LINE
8
BLACK
6
CONTINUOUS
10
167.023
20
-79.1008
11
167.021
21
-79.0984
0
LINE
8
BLACK
6
CONTINUOUS
10
167.021
20
-79.0984
11
167.019
21
-79.0946
0
LINE
8
BLACK
6
CONTINUOUS
10
167.019
20
-79.0946
11
167.017
21
-79.0911
0
LINE
8
BLACK
6
CONTINUOUS
10
167.017
20
-79.0911
11
166.969
21
-78.9958
0
LINE
8
BLACK
6
CONTINUOUS
10
166.969
20
-78.9958
11
166.969
21
-78.9949
0
LINE
8
BLACK
6
CONTINUOUS
10
166.969
20
-78.9949
11
166.968
21
-78.9928
0
LINE
8
BLACK
6
CONTINUOUS
10
166.968
20
-78.9928
11
166.967
21
-78.9909
0
LINE
8
BLACK
6
CONTINUOUS
10
166.967
20
-78.9909
11
166.966
21
-78.986
0
LINE
8
BLACK
6
CONTINUOUS
10
166.966
20
-78.986
11
166.964
21
-78.9811
0
LINE
8
BLACK
6
CONTINUOUS
10
166.964
20
-78.9811
11
166.964
21
-78.979
0
LINE
8
BLACK
6
CONTINUOUS
10
166.964
20
-78.979
11
166.963
21
-78.9769
0
LINE
8
BLACK
6
CONTINUOUS
10
166.963
20
-78.9769
11
166.962
21
-78.9717
0
LINE
8
BLACK
6
CONTINUOUS
10
166.962
20
-78.9717
11
166.962
21
-78.9667
0
LINE
8
BLACK
6
CONTINUOUS
10
166.962
20
-78.9667
11
166.962
21
-78.9645
0
LINE
8
BLACK
6
CONTINUOUS
10
166.962
20
-78.9645
11
166.962
21
-78.9623
0
LINE
8
BLACK
6
CONTINUOUS
10
166.962
20
-78.9623
11
166.962
21
-78.7718
0
LINE
8
BLACK
6
CONTINUOUS
10
166.962
20
-78.7718
11
166.962
21
-78.7708
0
LINE
8
BLACK
6
CONTINUOUS
10
166.962
20
-78.7708
11
166.962
21
-78.7686
0
LINE
8
BLACK
6
CONTINUOUS
10
166.962
20
-78.7686
11
166.962
21
-78.7664
0
LINE
8
BLACK
6
CONTINUOUS
10
166.962
20
-78.7664
11
166.963
21
-78.7613
0
LINE
8
BLACK
6
CONTINUOUS
10
166.963
20
-78.7613
11
166.963
21
-78.7562
0
LINE
8
BLACK
6
CONTINUOUS
10
166.963
20
-78.7562
11
166.964
21
-78.7541
0
LINE
8
BLACK
6
CONTINUOUS
10
166.964
20
-78.7541
11
166.964
21
-78.7519
0
LINE
8
BLACK
6
CONTINUOUS
10
166.964
20
-78.7519
11
166.966
21
-78.7471
0
LINE
8
BLACK
6
CONTINUOUS
10
166.966
20
-78.7471
11
166.968
21
-78.7423
0
LINE
8
BLACK
6
CONTINUOUS
10
166.968
20
-78.7423
11
166.969
21
-78.7403
0
LINE
8
BLACK
6
CONTINUOUS
10
166.969
20
-78.7403
11
166.969
21
-78.7383
0
LINE
8
BLACK
6
CONTINUOUS
10
166.969
20
-78.7383
11
166.999
21
-78.68
0
LINE
8
BLACK
6
CONTINUOUS
10
166.999
20
-78.68
11
166.925
21
-78.6986
0
LINE
8
BLACK
6
CONTINUOUS
10
166.925
20
-78.6986
11
166.799
21
-78.7825
0
LINE
8
BLACK
6
CONTINUOUS
10
166.799
20
-78.7825
11
166.765
21
-78.8162
0
LINE
8
BLACK
6
CONTINUOUS
10
166.765
20
-78.8162
11
166.731
21
-78.8848
0
LINE
8
BLACK
6
CONTINUOUS
10
166.731
20
-78.8848
11
166.731
21
-79.0575
0
LINE
8
BLACK
6
CONTINUOUS
10
166.731
20
-79.0575
11
166.731
21
-79.0586
0
LINE
8
BLACK
6
CONTINUOUS
10
166.731
20
-79.0586
11
166.729
21
-79.0731
0
LINE
8
BLACK
6
CONTINUOUS
10
166.729
20
-79.0731
11
166.725
21
-79.0871
0
LINE
8
BLACK
6
CONTINUOUS
10
166.725
20
-79.0871
11
166.718
21
-79.0999
0
LINE
8
BLACK
6
CONTINUOUS
10
166.718
20
-79.0999
11
166.708
21
-79.1111
0
LINE
8
BLACK
6
CONTINUOUS
10
166.708
20
-79.1111
11
166.697
21
-79.1203
0
LINE
8
BLACK
6
CONTINUOUS
10
166.697
20
-79.1203
11
166.684
21
-79.1271
0
LINE
8
BLACK
6
CONTINUOUS
10
166.684
20
-79.1271
11
166.67
21
-79.1312
0
LINE
8
BLACK
6
CONTINUOUS
10
166.67
20
-79.1312
11
166.655
21
-79.1325
0
LINE
8
BLACK
6
CONTINUOUS
10
166.655
20
-79.1325
11
166.641
21
-79.131
0
LINE
8
BLACK
6
CONTINUOUS
10
166.641
20
-79.131
11
166.627
21
-79.1267
0
LINE
8
BLACK
6
CONTINUOUS
10
166.627
20
-79.1267
11
166.614
21
-79.1197
0
LINE
8
BLACK
6
CONTINUOUS
10
166.614
20
-79.1197
11
166.602
21
-79.1104
0
LINE
8
BLACK
6
CONTINUOUS
10
166.602
20
-79.1104
11
166.593
21
-79.099
0
LINE
8
BLACK
6
CONTINUOUS
10
166.593
20
-79.099
11
166.586
21
-79.0861
0
LINE
8
BLACK
6
CONTINUOUS
10
166.586
20
-79.0861
11
166.582
21
-79.0721
0
LINE
8
BLACK
6
CONTINUOUS
10
166.582
20
-79.0721
11
166.581
21
-79.0575
0
LINE
8
BLACK
6
CONTINUOUS
10
166.581
20
-79.0575
11
166.581
21
-78.867
0
LINE
8
BLACK
6
CONTINUOUS
10
166.581
20
-78.867
11
166.581
21
-78.866
0
LINE
8
BLACK
6
CONTINUOUS
10
166.581
20
-78.866
11
166.581
21
-78.8638
0
LINE
8
BLACK
6
CONTINUOUS
10
166.581
20
-78.8638
11
166.581
21
-78.8616
0
LINE
8
BLACK
6
CONTINUOUS
10
166.581
20
-78.8616
11
166.582
21
-78.8565
0
LINE
8
BLACK
6
CONTINUOUS
10
166.582
20
-78.8565
11
166.582
21
-78.8515
0
LINE
8
BLACK
6
CONTINUOUS
10
166.582
20
-78.8515
11
166.583
21
-78.8494
0
LINE
8
BLACK
6
CONTINUOUS
10
166.583
20
-78.8494
11
166.583
21
-78.8472
0
LINE
8
BLACK
6
CONTINUOUS
10
166.583
20
-78.8472
11
166.585
21
-78.8424
0
LINE
8
BLACK
6
CONTINUOUS
10
166.585
20
-78.8424
11
166.587
21
-78.8375
0
LINE
8
BLACK
6
CONTINUOUS
10
166.587
20
-78.8375
11
166.588
21
-78.8356
0
LINE
8
BLACK
6
CONTINUOUS
10
166.588
20
-78.8356
11
166.589
21
-78.8335
0
LINE
8
BLACK
6
CONTINUOUS
10
166.589
20
-78.8335
11
166.636
21
-78.7383
0
LINE
8
BLACK
6
CONTINUOUS
10
166.636
20
-78.7383
11
166.637
21
-78.7373
0
LINE
8
BLACK
6
CONTINUOUS
10
166.637
20
-78.7373
11
166.639
21
-78.7338
0
LINE
8
BLACK
6
CONTINUOUS
10
166.639
20
-78.7338
11
166.641
21
-78.7301
0
LINE
8
BLACK
6
CONTINUOUS
10
166.641
20
-78.7301
11
166.643
21
-78.7277
0
LINE
8
BLACK
6
CONTINUOUS
10
166.643
20
-78.7277
11
166.645
21
-78.7251
0
LINE
8
BLACK
6
CONTINUOUS
10
166.645
20
-78.7251
11
166.648
21
-78.722
0
LINE
8
BLACK
6
CONTINUOUS
10
166.648
20
-78.722
11
166.65
21
-78.7188
0
LINE
8
BLACK
6
CONTINUOUS
10
166.65
20
-78.7188
11
166.698
21
-78.6712
0
LINE
8
BLACK
6
CONTINUOUS
10
166.698
20
-78.6712
11
166.698
21
-78.6711
0
LINE
8
BLACK
6
CONTINUOUS
10
166.698
20
-78.6711
11
166.698
21
-78.6711
0
LINE
8
BLACK
6
CONTINUOUS
10
166.698
20
-78.6711
11
166.698
21
-78.671
0
LINE
8
BLACK
6
CONTINUOUS
10
166.698
20
-78.671
11
166.699
21
-78.6704
0
LINE
8
BLACK
6
CONTINUOUS
10
166.699
20
-78.6704
11
166.704
21
-78.6662
0
LINE
8
BLACK
6
CONTINUOUS
10
166.704
20
-78.6662
11
166.709
21
-78.6618
0
LINE
8
BLACK
6
CONTINUOUS
10
166.709
20
-78.6618
11
166.852
21
-78.5665
0
LINE
8
BLACK
6
CONTINUOUS
10
166.852
20
-78.5665
11
166.853
21
-78.566
0
LINE
8
BLACK
6
CONTINUOUS
10
166.853
20
-78.566
11
166.857
21
-78.5637
0
LINE
8
BLACK
6
CONTINUOUS
10
166.857
20
-78.5637
11
166.862
21
-78.5611
0
LINE
8
BLACK
6
CONTINUOUS
10
166.862
20
-78.5611
11
166.864
21
-78.5603
0
LINE
8
BLACK
6
CONTINUOUS
10
166.864
20
-78.5603
11
166.866
21
-78.5593
0
LINE
8
BLACK
6
CONTINUOUS
10
166.866
20
-78.5593
11
166.871
21
-78.5579
0
LINE
8
BLACK
6
CONTINUOUS
10
166.871
20
-78.5579
11
166.876
21
-78.5562
0
LINE
8
BLACK
6
CONTINUOUS
10
166.876
20
-78.5562
11
167.066
21
-78.5086
0
LINE
8
BLACK
6
CONTINUOUS
10
167.066
20
-78.5086
11
167.067
21
-78.5083
0
LINE
8
BLACK
6
CONTINUOUS
10
167.067
20
-78.5083
11
167.068
21
-78.5081
0
LINE
8
BLACK
6
CONTINUOUS
10
167.068
20
-78.5081
11
167.07
21
-78.5078
0
LINE
8
BLACK
6
CONTINUOUS
10
167.07
20
-78.5078
11
167.076
21
-78.5072
0
LINE
8
BLACK
6
CONTINUOUS
10
167.076
20
-78.5072
11
167.082
21
-78.5064
0
LINE
8
BLACK
6
CONTINUOUS
10
167.082
20
-78.5064
11
167.083
21
-78.5065
0
LINE
8
BLACK
6
CONTINUOUS
10
167.083
20
-78.5065
11
167.084
21
-78.5063
0
LINE
8
BLACK
6
CONTINUOUS
10
167.084
20
-78.5063
11
167.465
21
-78.5063
0
LINE
8
BLACK
6
CONTINUOUS
10
167.465
20
-78.5063
11
167.466
21
-78.5063
0
LINE
8
BLACK
6
CONTINUOUS
10
167.245
20
-78.6563
11
167.176
21
-78.6906
0
LINE
8
BLACK
6
CONTINUOUS
10
167.176
20
-78.6906
11
167.146
21
-78.721
0
LINE
8
BLACK
6
CONTINUOUS
10
167.146
20
-78.721
11
167.112
21
-78.7895
0
LINE
8
BLACK
6
CONTINUOUS
10
167.112
20
-78.7895
11
167.112
21
-78.9446
0
LINE
8
BLACK
6
CONTINUOUS
10
167.112
20
-78.9446
11
167.146
21
-79.0131
0
LINE
8
BLACK
6
CONTINUOUS
10
167.146
20
-79.0131
11
167.176
21
-79.0435
0
LINE
8
BLACK
6
CONTINUOUS
10
167.176
20
-79.0435
11
167.245
21
-79.0778
0
LINE
8
BLACK
6
CONTINUOUS
10
167.245
20
-79.0778
11
167.447
21
-79.0778
0
LINE
8
BLACK
6
CONTINUOUS
10
167.447
20
-79.0778
11
167.516
21
-79.0435
0
LINE
8
BLACK
6
CONTINUOUS
10
167.516
20
-79.0435
11
167.546
21
-79.0131
0
LINE
8
BLACK
6
CONTINUOUS
10
167.546
20
-79.0131
11
167.581
21
-78.9446
0
LINE
8
BLACK
6
CONTINUOUS
10
167.581
20
-78.9446
11
167.581
21
-78.7895
0
LINE
8
BLACK
6
CONTINUOUS
10
167.581
20
-78.7895
11
167.546
21
-78.721
0
LINE
8
BLACK
6
CONTINUOUS
10
167.546
20
-78.721
11
167.516
21
-78.6906
0
LINE
8
BLACK
6
CONTINUOUS
10
167.516
20
-78.6906
11
167.447
21
-78.6563
0
LINE
8
BLACK
6
CONTINUOUS
10
167.447
20
-78.6563
11
167.245
21
-78.6563
0
LINE
8
BLACK
6
CONTINUOUS
10
165.671
20
-76.588
11
165.68
21
-76.5889
0
LINE
8
BLACK
6
CONTINUOUS
10
165.68
20
-76.5889
11
165.691
21
-76.5923
0
LINE
8
BLACK
6
CONTINUOUS
10
165.691
20
-76.5923
11
165.701
21
-76.5979
0
LINE
8
BLACK
6
CONTINUOUS
10
165.701
20
-76.5979
11
165.711
21
-76.6054
0
LINE
8
BLACK
6
CONTINUOUS
10
165.711
20
-76.6054
11
165.718
21
-76.6145
0
LINE
8
BLACK
6
CONTINUOUS
10
165.718
20
-76.6145
11
165.724
21
-76.6249
0
LINE
8
BLACK
6
CONTINUOUS
10
165.724
20
-76.6249
11
165.727
21
-76.6362
0
LINE
8
BLACK
6
CONTINUOUS
10
165.727
20
-76.6362
11
165.728
21
-76.648
0
LINE
8
BLACK
6
CONTINUOUS
10
165.728
20
-76.648
11
165.728
21
-76.6509
0
LINE
8
BLACK
6
CONTINUOUS
10
165.728
20
-76.6509
11
165.728
21
-77.9809
0
LINE
8
BLACK
6
CONTINUOUS
10
165.728
20
-77.9809
11
165.727
21
-77.9898
0
LINE
8
BLACK
6
CONTINUOUS
10
165.727
20
-77.9898
11
165.724
21
-78.0011
0
LINE
8
BLACK
6
CONTINUOUS
10
165.724
20
-78.0011
11
165.718
21
-78.0115
0
LINE
8
BLACK
6
CONTINUOUS
10
165.718
20
-78.0115
11
165.711
21
-78.0206
0
LINE
8
BLACK
6
CONTINUOUS
10
165.711
20
-78.0206
11
165.701
21
-78.0281
0
LINE
8
BLACK
6
CONTINUOUS
10
165.701
20
-78.0281
11
165.691
21
-78.0337
0
LINE
8
BLACK
6
CONTINUOUS
10
165.691
20
-78.0337
11
165.68
21
-78.0371
0
LINE
8
BLACK
6
CONTINUOUS
10
165.68
20
-78.0371
11
165.668
21
-78.0383
0
LINE
8
BLACK
6
CONTINUOUS
10
165.668
20
-78.0383
11
165.656
21
-78.0371
0
LINE
8
BLACK
6
CONTINUOUS
10
165.656
20
-78.0371
11
165.645
21
-78.0337
0
LINE
8
BLACK
6
CONTINUOUS
10
165.645
20
-78.0337
11
165.635
21
-78.0281
0
LINE
8
BLACK
6
CONTINUOUS
10
165.635
20
-78.0281
11
165.625
21
-78.0206
0
LINE
8
BLACK
6
CONTINUOUS
10
165.625
20
-78.0206
11
165.618
21
-78.0115
0
LINE
8
BLACK
6
CONTINUOUS
10
165.618
20
-78.0115
11
165.612
21
-78.0011
0
LINE
8
BLACK
6
CONTINUOUS
10
165.612
20
-78.0011
11
165.609
21
-77.9898
0
LINE
8
BLACK
6
CONTINUOUS
10
165.609
20
-77.9898
11
165.608
21
-77.9809
0
LINE
8
BLACK
6
CONTINUOUS
10
165.608
20
-77.9809
11
165.608
21
-76.708
0
LINE
8
BLACK
6
CONTINUOUS
10
165.608
20
-76.708
11
164.335
21
-76.708
0
LINE
8
BLACK
6
CONTINUOUS
10
164.335
20
-76.708
11
164.326
21
-76.7071
0
LINE
8
BLACK
6
CONTINUOUS
10
164.326
20
-76.7071
11
164.315
21
-76.7037
0
LINE
8
BLACK
6
CONTINUOUS
10
164.315
20
-76.7037
11
164.305
21
-76.6981
0
LINE
8
BLACK
6
CONTINUOUS
10
164.305
20
-76.6981
11
164.295
21
-76.6906
0
LINE
8
BLACK
6
CONTINUOUS
10
164.295
20
-76.6906
11
164.288
21
-76.6815
0
LINE
8
BLACK
6
CONTINUOUS
10
164.288
20
-76.6815
11
164.282
21
-76.6711
0
LINE
8
BLACK
6
CONTINUOUS
10
164.282
20
-76.6711
11
164.279
21
-76.6598
0
LINE
8
BLACK
6
CONTINUOUS
10
164.279
20
-76.6598
11
164.278
21
-76.648
0
LINE
8
BLACK
6
CONTINUOUS
10
164.278
20
-76.648
11
164.279
21
-76.6362
0
LINE
8
BLACK
6
CONTINUOUS
10
164.279
20
-76.6362
11
164.282
21
-76.6249
0
LINE
8
BLACK
6
CONTINUOUS
10
164.282
20
-76.6249
11
164.288
21
-76.6145
0
LINE
8
BLACK
6
CONTINUOUS
10
164.288
20
-76.6145
11
164.295
21
-76.6054
0
LINE
8
BLACK
6
CONTINUOUS
10
164.295
20
-76.6054
11
164.305
21
-76.5979
0
LINE
8
BLACK
6
CONTINUOUS
10
164.305
20
-76.5979
11
164.315
21
-76.5923
0
LINE
8
BLACK
6
CONTINUOUS
10
164.315
20
-76.5923
11
164.326
21
-76.5889
0
LINE
8
BLACK
6
CONTINUOUS
10
164.326
20
-76.5889
11
164.335
21
-76.588
0
LINE
8
BLACK
6
CONTINUOUS
10
164.335
20
-76.588
11
165.665
21
-76.588
0
LINE
8
BLACK
6
CONTINUOUS
10
165.665
20
-76.588
11
165.668
21
-76.5877
0
LINE
8
BLACK
6
CONTINUOUS
10
165.668
20
-76.5877
11
165.671
21
-76.588
  0
ENDSEC
  0
EOF
