  0
SECTION
  2
HEADER
  9
$ANGBASE
  50
0.0
  9
$ANGDIR
  70
  1
  9
$MEASUREMENT
  70
0
  0
ENDSEC
  0
SECTION
  2
TABLES
  0
TABLE
  2
LTYPE
  70
4
  0
LTYPE
  5
40F
  2
CONTINUOUS
  70
0
  3
Solid line
  72
65
  73
0
  40
0.0
  0
LTYPE
  5
410
  2
DASHDOT
 70
0
  3
Dash Dot ____ _ ____ _
 72
65
 73
4
 40
2.0
 49
1.25
 49
-0.25
 49
0.25
 49
-0.25
  0
LTYPE
  5
411
  2
DASHED
 70
0
  3
Dashed __ __ __ __ __
 72
65
 73
2
 40
0.75
 49
0.5
 49
-0.25
  0
LTYPE
  5
43B
  2
DOTTED
 70
0
  3
Dotted .  .  .  .
 72
65
 73
2
 40
0.2
 49
0.0
 49
-0.2
  0
ENDTAB
  0
TABLE
  2
STYLE
  70
4
  0
STYLE
  2
KICAD
  70
0
  40
0
  41
1
  42
1
  50
0
  71
0
  3
isocp.shx
  0
STYLE
  2
KICADB
  70
0
  40
0
  41
1
  42
1
  50
0
  71
0
  3
isocp.shx
  0
STYLE
  2
KICADI
  70
0
  40
0
  41
1
  42
1
  50
15
  71
0
  3
isocp.shx
  0
STYLE
  2
KICADBI
  70
0
  40
0
  41
1
  42
1
  50
15
  71
0
  3
isocp.shx
  0
ENDTAB
  0
TABLE
  2
LAYER
  70
30
  0
LAYER
  2
BLACK
  70
0
  62
7
  6
CONTINUOUS
  0
LAYER
  2
GRAY1
  70
0
  62
251
  6
CONTINUOUS
  0
LAYER
  2
GRAY2
  70
0
  62
8
  6
CONTINUOUS
  0
LAYER
  2
GRAY3
  70
0
  62
9
  6
CONTINUOUS
  0
LAYER
  2
WHITE
  70
0
  62
7
  6
CONTINUOUS
  0
LAYER
  2
LYELLOW
  70
0
  62
51
  6
CONTINUOUS
  0
LAYER
  2
BLUE1
  70
0
  62
178
  6
CONTINUOUS
  0
LAYER
  2
GREEN1
  70
0
  62
98
  6
CONTINUOUS
  0
LAYER
  2
CYAN1
  70
0
  62
138
  6
CONTINUOUS
  0
LAYER
  2
RED1
  70
0
  62
18
  6
CONTINUOUS
  0
LAYER
  2
MAGENTA1
  70
0
  62
228
  6
CONTINUOUS
  0
LAYER
  2
BROWN1
  70
0
  62
58
  6
CONTINUOUS
  0
LAYER
  2
BLUE2
  70
0
  62
5
  6
CONTINUOUS
  0
LAYER
  2
GREEN2
  70
0
  62
3
  6
CONTINUOUS
  0
LAYER
  2
CYAN2
  70
0
  62
4
  6
CONTINUOUS
  0
LAYER
  2
RED2
  70
0
  62
1
  6
CONTINUOUS
  0
LAYER
  2
MAGENTA2
  70
0
  62
6
  6
CONTINUOUS
  0
LAYER
  2
BROWN2
  70
0
  62
54
  6
CONTINUOUS
  0
LAYER
  2
BLUE3
  70
0
  62
171
  6
CONTINUOUS
  0
LAYER
  2
GREEN3
  70
0
  62
91
  6
CONTINUOUS
  0
LAYER
  2
CYAN3
  70
0
  62
131
  6
CONTINUOUS
  0
LAYER
  2
RED3
  70
0
  62
11
  6
CONTINUOUS
  0
LAYER
  2
MAGENTA3
  70
0
  62
221
  6
CONTINUOUS
  0
LAYER
  2
YELLOW3
  70
0
  62
2
  6
CONTINUOUS
  0
LAYER
  2
BLUE4
  70
0
  62
5
  6
CONTINUOUS
  0
LAYER
  2
GREEN4
  70
0
  62
3
  6
CONTINUOUS
  0
LAYER
  2
CYAN4
  70
0
  62
4
  6
CONTINUOUS
  0
LAYER
  2
RED4
  70
0
  62
1
  6
CONTINUOUS
  0
LAYER
  2
MAGENTA4
  70
0
  62
6
  6
CONTINUOUS
  0
LAYER
  2
YELLOW4
  70
0
  62
2
  6
CONTINUOUS
  0
ENDTAB
  0
ENDSEC
  0
SECTION
  2
ENTITIES
0
LINE
8
BLACK
6
CONTINUOUS
10
112.343
20
-110.091
11
112.707
21
-110.242
0
LINE
8
BLACK
6
CONTINUOUS
10
112.707
20
-110.242
11
113.035
21
-110.46
0
LINE
8
BLACK
6
CONTINUOUS
10
113.035
20
-110.46
11
113.314
21
-110.739
0
LINE
8
BLACK
6
CONTINUOUS
10
113.314
20
-110.739
11
113.532
21
-111.067
0
LINE
8
BLACK
6
CONTINUOUS
10
113.532
20
-111.067
11
113.683
21
-111.431
0
LINE
8
BLACK
6
CONTINUOUS
10
113.683
20
-111.431
11
113.76
21
-111.817
0
LINE
8
BLACK
6
CONTINUOUS
10
113.76
20
-111.817
11
113.76
21
-112.211
0
LINE
8
BLACK
6
CONTINUOUS
10
113.76
20
-112.211
11
113.683
21
-112.597
0
LINE
8
BLACK
6
CONTINUOUS
10
113.683
20
-112.597
11
113.532
21
-112.961
0
LINE
8
BLACK
6
CONTINUOUS
10
113.532
20
-112.961
11
113.314
21
-113.289
0
LINE
8
BLACK
6
CONTINUOUS
10
113.314
20
-113.289
11
113.035
21
-113.568
0
LINE
8
BLACK
6
CONTINUOUS
10
113.035
20
-113.568
11
112.707
21
-113.786
0
LINE
8
BLACK
6
CONTINUOUS
10
112.707
20
-113.786
11
112.343
21
-113.937
0
LINE
8
BLACK
6
CONTINUOUS
10
112.343
20
-113.937
11
111.957
21
-114.014
0
LINE
8
BLACK
6
CONTINUOUS
10
111.957
20
-114.014
11
111.563
21
-114.014
0
LINE
8
BLACK
6
CONTINUOUS
10
111.563
20
-114.014
11
111.177
21
-113.937
0
LINE
8
BLACK
6
CONTINUOUS
10
111.177
20
-113.937
11
110.813
21
-113.786
0
LINE
8
BLACK
6
CONTINUOUS
10
110.813
20
-113.786
11
110.485
21
-113.568
0
LINE
8
BLACK
6
CONTINUOUS
10
110.485
20
-113.568
11
110.206
21
-113.289
0
LINE
8
BLACK
6
CONTINUOUS
10
110.206
20
-113.289
11
109.988
21
-112.961
0
LINE
8
BLACK
6
CONTINUOUS
10
109.988
20
-112.961
11
109.837
21
-112.597
0
LINE
8
BLACK
6
CONTINUOUS
10
109.837
20
-112.597
11
109.76
21
-112.211
0
LINE
8
BLACK
6
CONTINUOUS
10
109.76
20
-112.211
11
109.76
21
-111.817
0
LINE
8
BLACK
6
CONTINUOUS
10
109.76
20
-111.817
11
109.837
21
-111.431
0
LINE
8
BLACK
6
CONTINUOUS
10
109.837
20
-111.431
11
109.988
21
-111.067
0
LINE
8
BLACK
6
CONTINUOUS
10
109.988
20
-111.067
11
110.206
21
-110.739
0
LINE
8
BLACK
6
CONTINUOUS
10
110.206
20
-110.739
11
110.485
21
-110.46
0
LINE
8
BLACK
6
CONTINUOUS
10
110.485
20
-110.46
11
110.813
21
-110.242
0
LINE
8
BLACK
6
CONTINUOUS
10
110.813
20
-110.242
11
111.177
21
-110.091
0
LINE
8
BLACK
6
CONTINUOUS
10
111.177
20
-110.091
11
111.563
21
-110.014
0
LINE
8
BLACK
6
CONTINUOUS
10
111.563
20
-110.014
11
111.957
21
-110.014
0
LINE
8
BLACK
6
CONTINUOUS
10
111.957
20
-110.014
11
112.343
21
-110.091
0
LINE
8
BLACK
6
CONTINUOUS
10
167.245
20
-106.843
11
167.791
21
-107.069
0
LINE
8
BLACK
6
CONTINUOUS
10
167.791
20
-107.069
11
168.282
21
-107.398
0
LINE
8
BLACK
6
CONTINUOUS
10
168.282
20
-107.398
11
168.7
21
-107.816
0
LINE
8
BLACK
6
CONTINUOUS
10
168.7
20
-107.816
11
169.029
21
-108.307
0
LINE
8
BLACK
6
CONTINUOUS
10
169.029
20
-108.307
11
169.255
21
-108.853
0
LINE
8
BLACK
6
CONTINUOUS
10
169.255
20
-108.853
11
169.37
21
-109.433
0
LINE
8
BLACK
6
CONTINUOUS
10
169.37
20
-109.433
11
169.37
21
-110.023
0
LINE
8
BLACK
6
CONTINUOUS
10
169.37
20
-110.023
11
169.255
21
-110.603
0
LINE
8
BLACK
6
CONTINUOUS
10
169.255
20
-110.603
11
169.029
21
-111.149
0
LINE
8
BLACK
6
CONTINUOUS
10
169.029
20
-111.149
11
168.7
21
-111.64
0
LINE
8
BLACK
6
CONTINUOUS
10
168.7
20
-111.64
11
168.282
21
-112.058
0
LINE
8
BLACK
6
CONTINUOUS
10
168.282
20
-112.058
11
167.791
21
-112.387
0
LINE
8
BLACK
6
CONTINUOUS
10
167.791
20
-112.387
11
167.245
21
-112.613
0
LINE
8
BLACK
6
CONTINUOUS
10
167.245
20
-112.613
11
166.665
21
-112.728
0
LINE
8
BLACK
6
CONTINUOUS
10
166.665
20
-112.728
11
166.075
21
-112.728
0
LINE
8
BLACK
6
CONTINUOUS
10
166.075
20
-112.728
11
165.495
21
-112.613
0
LINE
8
BLACK
6
CONTINUOUS
10
165.495
20
-112.613
11
164.949
21
-112.387
0
LINE
8
BLACK
6
CONTINUOUS
10
164.949
20
-112.387
11
164.458
21
-112.058
0
LINE
8
BLACK
6
CONTINUOUS
10
164.458
20
-112.058
11
164.04
21
-111.64
0
LINE
8
BLACK
6
CONTINUOUS
10
164.04
20
-111.64
11
163.711
21
-111.149
0
LINE
8
BLACK
6
CONTINUOUS
10
163.711
20
-111.149
11
163.485
21
-110.603
0
LINE
8
BLACK
6
CONTINUOUS
10
163.485
20
-110.603
11
163.37
21
-110.023
0
LINE
8
BLACK
6
CONTINUOUS
10
163.37
20
-110.023
11
163.37
21
-109.433
0
LINE
8
BLACK
6
CONTINUOUS
10
163.37
20
-109.433
11
163.485
21
-108.853
0
LINE
8
BLACK
6
CONTINUOUS
10
163.485
20
-108.853
11
163.711
21
-108.307
0
LINE
8
BLACK
6
CONTINUOUS
10
163.711
20
-108.307
11
164.04
21
-107.816
0
LINE
8
BLACK
6
CONTINUOUS
10
164.04
20
-107.816
11
164.458
21
-107.398
0
LINE
8
BLACK
6
CONTINUOUS
10
164.458
20
-107.398
11
164.949
21
-107.069
0
LINE
8
BLACK
6
CONTINUOUS
10
164.949
20
-107.069
11
165.495
21
-106.843
0
LINE
8
BLACK
6
CONTINUOUS
10
165.495
20
-106.843
11
166.075
21
-106.728
0
LINE
8
BLACK
6
CONTINUOUS
10
166.075
20
-106.728
11
166.665
21
-106.728
0
LINE
8
BLACK
6
CONTINUOUS
10
166.665
20
-106.728
11
167.245
21
-106.843
0
LINE
8
BLACK
6
CONTINUOUS
10
154.062
20
-109.866
11
152.262
21
-109.866
0
LINE
8
BLACK
6
CONTINUOUS
10
152.262
20
-109.866
11
152.262
21
-109.466
0
LINE
8
BLACK
6
CONTINUOUS
10
152.262
20
-109.466
11
149.49
21
-109.466
0
LINE
8
BLACK
6
CONTINUOUS
10
149.49
20
-109.466
11
149.49
21
-109.866
0
LINE
8
BLACK
6
CONTINUOUS
10
149.49
20
-109.866
11
147.69
21
-109.866
0
LINE
8
BLACK
6
CONTINUOUS
10
147.69
20
-109.866
11
147.69
21
-109.466
0
LINE
8
BLACK
6
CONTINUOUS
10
147.69
20
-109.466
11
144.918
21
-109.466
0
LINE
8
BLACK
6
CONTINUOUS
10
144.918
20
-109.466
11
144.918
21
-109.866
0
LINE
8
BLACK
6
CONTINUOUS
10
144.918
20
-109.866
11
143.118
21
-109.866
0
LINE
8
BLACK
6
CONTINUOUS
10
143.118
20
-109.866
11
143.118
21
-109.466
0
LINE
8
BLACK
6
CONTINUOUS
10
143.118
20
-109.466
11
140.346
21
-109.466
0
LINE
8
BLACK
6
CONTINUOUS
10
140.346
20
-109.466
11
140.346
21
-109.866
0
LINE
8
BLACK
6
CONTINUOUS
10
140.346
20
-109.866
11
138.546
21
-109.866
0
LINE
8
BLACK
6
CONTINUOUS
10
138.546
20
-109.866
11
138.546
21
-108.773
0
LINE
8
BLACK
6
CONTINUOUS
10
138.546
20
-108.773
11
138.223
21
-108.45
0
LINE
8
BLACK
6
CONTINUOUS
10
138.223
20
-108.45
11
136.028
21
-108.45
0
LINE
8
BLACK
6
CONTINUOUS
10
136.028
20
-108.45
11
136.028
21
-108.85
0
LINE
8
BLACK
6
CONTINUOUS
10
136.028
20
-108.85
11
135.628
21
-108.85
0
LINE
8
BLACK
6
CONTINUOUS
10
135.628
20
-108.85
11
135.628
21
-109.825
0
LINE
8
BLACK
6
CONTINUOUS
10
135.628
20
-109.825
11
135.63
21
-109.85
0
LINE
8
BLACK
6
CONTINUOUS
10
135.63
20
-109.85
11
135.628
21
-109.875
0
LINE
8
BLACK
6
CONTINUOUS
10
135.628
20
-109.875
11
135.628
21
-109.875
0
LINE
8
BLACK
6
CONTINUOUS
10
135.628
20
-109.875
11
135.621
21
-109.948
0
LINE
8
BLACK
6
CONTINUOUS
10
135.621
20
-109.948
11
135.592
21
-110.042
0
LINE
8
BLACK
6
CONTINUOUS
10
135.592
20
-110.042
11
135.546
21
-110.129
0
LINE
8
BLACK
6
CONTINUOUS
10
135.546
20
-110.129
11
135.483
21
-110.205
0
LINE
8
BLACK
6
CONTINUOUS
10
135.483
20
-110.205
11
135.464
21
-110.221
0
LINE
8
BLACK
6
CONTINUOUS
10
135.464
20
-110.221
11
134.483
21
-111.202
0
LINE
8
BLACK
6
CONTINUOUS
10
134.483
20
-111.202
11
134.467
21
-111.221
0
LINE
8
BLACK
6
CONTINUOUS
10
134.467
20
-111.221
11
134.391
21
-111.284
0
LINE
8
BLACK
6
CONTINUOUS
10
134.391
20
-111.284
11
134.304
21
-111.33
0
LINE
8
BLACK
6
CONTINUOUS
10
134.304
20
-111.33
11
134.21
21
-111.359
0
LINE
8
BLACK
6
CONTINUOUS
10
134.21
20
-111.359
11
134.137
21
-111.366
0
LINE
8
BLACK
6
CONTINUOUS
10
134.137
20
-111.366
11
134.112
21
-111.368
0
LINE
8
BLACK
6
CONTINUOUS
10
134.112
20
-111.368
11
134.087
21
-111.366
0
LINE
8
BLACK
6
CONTINUOUS
10
134.087
20
-111.366
11
116.537
21
-111.366
0
LINE
8
BLACK
6
CONTINUOUS
10
116.537
20
-111.366
11
116.512
21
-111.368
0
LINE
8
BLACK
6
CONTINUOUS
10
116.512
20
-111.368
11
116.414
21
-111.359
0
LINE
8
BLACK
6
CONTINUOUS
10
116.414
20
-111.359
11
116.32
21
-111.33
0
LINE
8
BLACK
6
CONTINUOUS
10
116.32
20
-111.33
11
116.233
21
-111.284
0
LINE
8
BLACK
6
CONTINUOUS
10
116.233
20
-111.284
11
116.157
21
-111.221
0
LINE
8
BLACK
6
CONTINUOUS
10
116.157
20
-111.221
11
116.141
21
-111.202
0
LINE
8
BLACK
6
CONTINUOUS
10
116.141
20
-111.202
11
114.558
21
-109.619
0
LINE
8
BLACK
6
CONTINUOUS
10
114.558
20
-109.619
11
114.539
21
-109.603
0
LINE
8
BLACK
6
CONTINUOUS
10
114.539
20
-109.603
11
114.476
21
-109.527
0
LINE
8
BLACK
6
CONTINUOUS
10
114.476
20
-109.527
11
114.43
21
-109.44
0
LINE
8
BLACK
6
CONTINUOUS
10
114.43
20
-109.44
11
114.401
21
-109.346
0
LINE
8
BLACK
6
CONTINUOUS
10
114.401
20
-109.346
11
114.392
21
-109.248
0
LINE
8
BLACK
6
CONTINUOUS
10
114.392
20
-109.248
11
114.394
21
-109.223
0
LINE
8
BLACK
6
CONTINUOUS
10
114.394
20
-109.223
11
114.394
21
-102.211
0
LINE
8
BLACK
6
CONTINUOUS
10
114.394
20
-102.211
11
114.392
21
-102.187
0
LINE
8
BLACK
6
CONTINUOUS
10
114.392
20
-102.187
11
114.401
21
-102.089
0
LINE
8
BLACK
6
CONTINUOUS
10
114.401
20
-102.089
11
114.425
21
-102.01
0
LINE
8
BLACK
6
CONTINUOUS
10
114.425
20
-102.01
11
114.43
21
-101.994
0
LINE
8
BLACK
6
CONTINUOUS
10
114.43
20
-101.994
11
114.476
21
-101.908
0
LINE
8
BLACK
6
CONTINUOUS
10
114.476
20
-101.908
11
114.539
21
-101.831
0
LINE
8
BLACK
6
CONTINUOUS
10
114.539
20
-101.831
11
114.558
21
-101.816
0
LINE
8
BLACK
6
CONTINUOUS
10
114.558
20
-101.816
11
114.602
21
-101.772
0
LINE
8
BLACK
6
CONTINUOUS
10
114.602
20
-101.772
11
114.617
21
-101.753
0
LINE
8
BLACK
6
CONTINUOUS
10
114.617
20
-101.753
11
114.694
21
-101.69
0
LINE
8
BLACK
6
CONTINUOUS
10
114.694
20
-101.69
11
114.78
21
-101.644
0
LINE
8
BLACK
6
CONTINUOUS
10
114.78
20
-101.644
11
114.875
21
-101.615
0
LINE
8
BLACK
6
CONTINUOUS
10
114.875
20
-101.615
11
114.948
21
-101.608
0
LINE
8
BLACK
6
CONTINUOUS
10
114.948
20
-101.608
11
114.973
21
-101.606
0
LINE
8
BLACK
6
CONTINUOUS
10
114.973
20
-101.606
11
114.997
21
-101.608
0
LINE
8
BLACK
6
CONTINUOUS
10
114.997
20
-101.608
11
115.678
21
-101.608
0
LINE
8
BLACK
6
CONTINUOUS
10
115.678
20
-101.608
11
115.765
21
-101.397
0
LINE
8
BLACK
6
CONTINUOUS
10
115.765
20
-101.397
11
115.929
21
-101.152
0
LINE
8
BLACK
6
CONTINUOUS
10
115.929
20
-101.152
11
116.138
21
-100.943
0
LINE
8
BLACK
6
CONTINUOUS
10
116.138
20
-100.943
11
116.383
21
-100.779
0
LINE
8
BLACK
6
CONTINUOUS
10
116.383
20
-100.779
11
116.656
21
-100.666
0
LINE
8
BLACK
6
CONTINUOUS
10
116.656
20
-100.666
11
116.946
21
-100.608
0
LINE
8
BLACK
6
CONTINUOUS
10
116.946
20
-100.608
11
117.242
21
-100.608
0
LINE
8
BLACK
6
CONTINUOUS
10
117.242
20
-100.608
11
117.532
21
-100.666
0
LINE
8
BLACK
6
CONTINUOUS
10
117.532
20
-100.666
11
117.805
21
-100.779
0
LINE
8
BLACK
6
CONTINUOUS
10
117.805
20
-100.779
11
118.05
21
-100.943
0
LINE
8
BLACK
6
CONTINUOUS
10
118.05
20
-100.943
11
118.259
21
-101.152
0
LINE
8
BLACK
6
CONTINUOUS
10
118.259
20
-101.152
11
118.423
21
-101.397
0
LINE
8
BLACK
6
CONTINUOUS
10
118.423
20
-101.397
11
118.536
21
-101.67
0
LINE
8
BLACK
6
CONTINUOUS
10
118.536
20
-101.67
11
118.594
21
-101.96
0
LINE
8
BLACK
6
CONTINUOUS
10
118.594
20
-101.96
11
118.594
21
-102.256
0
LINE
8
BLACK
6
CONTINUOUS
10
118.594
20
-102.256
11
118.536
21
-102.546
0
LINE
8
BLACK
6
CONTINUOUS
10
118.536
20
-102.546
11
118.423
21
-102.819
0
LINE
8
BLACK
6
CONTINUOUS
10
118.423
20
-102.819
11
118.259
21
-103.064
0
LINE
8
BLACK
6
CONTINUOUS
10
118.259
20
-103.064
11
118.05
21
-103.273
0
LINE
8
BLACK
6
CONTINUOUS
10
118.05
20
-103.273
11
117.805
21
-103.437
0
LINE
8
BLACK
6
CONTINUOUS
10
117.805
20
-103.437
11
117.532
21
-103.55
0
LINE
8
BLACK
6
CONTINUOUS
10
117.532
20
-103.55
11
117.242
21
-103.608
0
LINE
8
BLACK
6
CONTINUOUS
10
117.242
20
-103.608
11
116.946
21
-103.608
0
LINE
8
BLACK
6
CONTINUOUS
10
116.946
20
-103.608
11
116.656
21
-103.55
0
LINE
8
BLACK
6
CONTINUOUS
10
116.656
20
-103.55
11
116.383
21
-103.437
0
LINE
8
BLACK
6
CONTINUOUS
10
116.383
20
-103.437
11
116.138
21
-103.273
0
LINE
8
BLACK
6
CONTINUOUS
10
116.138
20
-103.273
11
115.929
21
-103.064
0
LINE
8
BLACK
6
CONTINUOUS
10
115.929
20
-103.064
11
115.765
21
-102.819
0
LINE
8
BLACK
6
CONTINUOUS
10
115.765
20
-102.819
11
115.678
21
-102.608
0
LINE
8
BLACK
6
CONTINUOUS
10
115.678
20
-102.608
11
115.394
21
-102.608
0
LINE
8
BLACK
6
CONTINUOUS
10
115.394
20
-102.608
11
115.394
21
-109.041
0
LINE
8
BLACK
6
CONTINUOUS
10
115.394
20
-109.041
11
116.719
21
-110.366
0
LINE
8
BLACK
6
CONTINUOUS
10
116.719
20
-110.366
11
133.905
21
-110.366
0
LINE
8
BLACK
6
CONTINUOUS
10
133.905
20
-110.366
11
134.628
21
-109.643
0
LINE
8
BLACK
6
CONTINUOUS
10
134.628
20
-109.643
11
134.628
21
-108.85
0
LINE
8
BLACK
6
CONTINUOUS
10
134.628
20
-108.85
11
134.228
21
-108.85
0
LINE
8
BLACK
6
CONTINUOUS
10
134.228
20
-108.85
11
134.228
21
-107.05
0
LINE
8
BLACK
6
CONTINUOUS
10
134.228
20
-107.05
11
136.028
21
-107.05
0
LINE
8
BLACK
6
CONTINUOUS
10
136.028
20
-107.05
11
136.028
21
-107.45
0
LINE
8
BLACK
6
CONTINUOUS
10
136.028
20
-107.45
11
138.405
21
-107.45
0
LINE
8
BLACK
6
CONTINUOUS
10
138.405
20
-107.45
11
138.43
21
-107.448
0
LINE
8
BLACK
6
CONTINUOUS
10
138.43
20
-107.448
11
138.455
21
-107.45
0
LINE
8
BLACK
6
CONTINUOUS
10
138.455
20
-107.45
11
138.528
21
-107.457
0
LINE
8
BLACK
6
CONTINUOUS
10
138.528
20
-107.457
11
138.622
21
-107.486
0
LINE
8
BLACK
6
CONTINUOUS
10
138.622
20
-107.486
11
138.709
21
-107.532
0
LINE
8
BLACK
6
CONTINUOUS
10
138.709
20
-107.532
11
138.785
21
-107.595
0
LINE
8
BLACK
6
CONTINUOUS
10
138.785
20
-107.595
11
138.801
21
-107.614
0
LINE
8
BLACK
6
CONTINUOUS
10
138.801
20
-107.614
11
139.253
21
-108.066
0
LINE
8
BLACK
6
CONTINUOUS
10
139.253
20
-108.066
11
140.346
21
-108.066
0
LINE
8
BLACK
6
CONTINUOUS
10
140.346
20
-108.066
11
140.346
21
-108.466
0
LINE
8
BLACK
6
CONTINUOUS
10
140.346
20
-108.466
11
143.118
21
-108.466
0
LINE
8
BLACK
6
CONTINUOUS
10
143.118
20
-108.466
11
143.118
21
-108.066
0
LINE
8
BLACK
6
CONTINUOUS
10
143.118
20
-108.066
11
144.918
21
-108.066
0
LINE
8
BLACK
6
CONTINUOUS
10
144.918
20
-108.066
11
144.918
21
-108.466
0
LINE
8
BLACK
6
CONTINUOUS
10
144.918
20
-108.466
11
147.69
21
-108.466
0
LINE
8
BLACK
6
CONTINUOUS
10
147.69
20
-108.466
11
147.69
21
-108.066
0
LINE
8
BLACK
6
CONTINUOUS
10
147.69
20
-108.066
11
149.49
21
-108.066
0
LINE
8
BLACK
6
CONTINUOUS
10
149.49
20
-108.066
11
149.49
21
-108.466
0
LINE
8
BLACK
6
CONTINUOUS
10
149.49
20
-108.466
11
152.262
21
-108.466
0
LINE
8
BLACK
6
CONTINUOUS
10
152.262
20
-108.466
11
152.262
21
-108.066
0
LINE
8
BLACK
6
CONTINUOUS
10
152.262
20
-108.066
11
154.062
21
-108.066
0
LINE
8
BLACK
6
CONTINUOUS
10
154.062
20
-108.066
11
154.062
21
-108.466
0
LINE
8
BLACK
6
CONTINUOUS
10
154.062
20
-108.466
11
159.717
21
-108.466
0
LINE
8
BLACK
6
CONTINUOUS
10
159.717
20
-108.466
11
163.86
21
-104.323
0
LINE
8
BLACK
6
CONTINUOUS
10
163.86
20
-104.323
11
163.86
21
-101.417
0
LINE
8
BLACK
6
CONTINUOUS
10
163.86
20
-101.417
11
163.66
21
-101.217
0
LINE
8
BLACK
6
CONTINUOUS
10
163.66
20
-101.217
11
163.66
21
-101.43
0
LINE
8
BLACK
6
CONTINUOUS
10
163.66
20
-101.43
11
161.46
21
-101.43
0
LINE
8
BLACK
6
CONTINUOUS
10
161.46
20
-101.43
11
161.46
21
-100.83
0
LINE
8
BLACK
6
CONTINUOUS
10
161.46
20
-100.83
11
159.596
21
-100.83
0
LINE
8
BLACK
6
CONTINUOUS
10
159.596
20
-100.83
11
159.596
21
-101.43
0
LINE
8
BLACK
6
CONTINUOUS
10
159.596
20
-101.43
11
157.396
21
-101.43
0
LINE
8
BLACK
6
CONTINUOUS
10
157.396
20
-101.43
11
157.396
21
-99.23
0
LINE
8
BLACK
6
CONTINUOUS
10
157.396
20
-99.23
11
159.596
21
-99.23
0
LINE
8
BLACK
6
CONTINUOUS
10
159.596
20
-99.23
11
159.596
21
-99.83
0
LINE
8
BLACK
6
CONTINUOUS
10
159.596
20
-99.83
11
161.46
21
-99.83
0
LINE
8
BLACK
6
CONTINUOUS
10
161.46
20
-99.83
11
161.46
21
-99.23
0
LINE
8
BLACK
6
CONTINUOUS
10
161.46
20
-99.23
11
163.66
21
-99.23
0
LINE
8
BLACK
6
CONTINUOUS
10
163.66
20
-99.23
11
163.66
21
-99.83
0
LINE
8
BLACK
6
CONTINUOUS
10
163.66
20
-99.83
11
164.453
21
-99.83
0
LINE
8
BLACK
6
CONTINUOUS
10
164.453
20
-99.83
11
165.06
21
-99.2229
0
LINE
8
BLACK
6
CONTINUOUS
10
165.06
20
-99.2229
11
165.06
21
-84.0471
0
LINE
8
BLACK
6
CONTINUOUS
10
165.06
20
-84.0471
11
164.002
21
-82.9889
0
LINE
8
BLACK
6
CONTINUOUS
10
164.002
20
-82.9889
11
163.983
21
-82.9733
0
LINE
8
BLACK
6
CONTINUOUS
10
163.983
20
-82.9733
11
163.92
21
-82.8971
0
LINE
8
BLACK
6
CONTINUOUS
10
163.92
20
-82.8971
11
163.874
21
-82.8103
0
LINE
8
BLACK
6
CONTINUOUS
10
163.874
20
-82.8103
11
163.87
21
-82.7984
0
LINE
8
BLACK
6
CONTINUOUS
10
163.87
20
-82.7984
11
163.845
21
-82.716
0
LINE
8
BLACK
6
CONTINUOUS
10
163.845
20
-82.716
11
163.836
21
-82.618
0
LINE
8
BLACK
6
CONTINUOUS
10
163.836
20
-82.618
11
163.838
21
-82.5934
0
LINE
8
BLACK
6
CONTINUOUS
10
163.838
20
-82.5934
11
163.838
21
-81.618
0
LINE
8
BLACK
6
CONTINUOUS
10
163.838
20
-81.618
11
163.238
21
-81.618
0
LINE
8
BLACK
6
CONTINUOUS
10
163.238
20
-81.618
11
163.238
21
-79.418
0
LINE
8
BLACK
6
CONTINUOUS
10
163.238
20
-79.418
11
165.438
21
-79.418
0
LINE
8
BLACK
6
CONTINUOUS
10
165.438
20
-79.418
11
165.438
21
-80.018
0
LINE
8
BLACK
6
CONTINUOUS
10
165.438
20
-80.018
11
166.231
21
-80.018
0
LINE
8
BLACK
6
CONTINUOUS
10
166.231
20
-80.018
11
167.346
21
-78.9029
0
LINE
8
BLACK
6
CONTINUOUS
10
167.346
20
-78.9029
11
167.346
21
-62.058
0
LINE
8
BLACK
6
CONTINUOUS
10
167.346
20
-62.058
11
166.796
21
-61.508
0
LINE
8
BLACK
6
CONTINUOUS
10
166.796
20
-61.508
11
141.569
21
-61.508
0
LINE
8
BLACK
6
CONTINUOUS
10
141.569
20
-61.508
11
139.438
21
-63.6391
0
LINE
8
BLACK
6
CONTINUOUS
10
139.438
20
-63.6391
11
139.438
21
-64.432
0
LINE
8
BLACK
6
CONTINUOUS
10
139.438
20
-64.432
11
140.038
21
-64.432
0
LINE
8
BLACK
6
CONTINUOUS
10
140.038
20
-64.432
11
140.038
21
-66.632
0
LINE
8
BLACK
6
CONTINUOUS
10
140.038
20
-66.632
11
137.838
21
-66.632
0
LINE
8
BLACK
6
CONTINUOUS
10
137.838
20
-66.632
11
137.838
21
-64.432
0
LINE
8
BLACK
6
CONTINUOUS
10
137.838
20
-64.432
11
138.438
21
-64.432
0
LINE
8
BLACK
6
CONTINUOUS
10
138.438
20
-64.432
11
138.438
21
-63.4566
0
LINE
8
BLACK
6
CONTINUOUS
10
138.438
20
-63.4566
11
138.436
21
-63.432
0
LINE
8
BLACK
6
CONTINUOUS
10
138.436
20
-63.432
11
138.445
21
-63.334
0
LINE
8
BLACK
6
CONTINUOUS
10
138.445
20
-63.334
11
138.474
21
-63.2397
0
LINE
8
BLACK
6
CONTINUOUS
10
138.474
20
-63.2397
11
138.476
21
-63.235
0
LINE
8
BLACK
6
CONTINUOUS
10
138.476
20
-63.235
11
138.52
21
-63.1529
0
LINE
8
BLACK
6
CONTINUOUS
10
138.52
20
-63.1529
11
138.583
21
-63.0767
0
LINE
8
BLACK
6
CONTINUOUS
10
138.583
20
-63.0767
11
138.602
21
-63.0611
0
LINE
8
BLACK
6
CONTINUOUS
10
138.602
20
-63.0611
11
140.991
21
-60.6718
0
LINE
8
BLACK
6
CONTINUOUS
10
140.991
20
-60.6718
11
141.007
21
-60.6527
0
LINE
8
BLACK
6
CONTINUOUS
10
141.007
20
-60.6527
11
141.026
21
-60.6371
0
LINE
8
BLACK
6
CONTINUOUS
10
141.026
20
-60.6371
11
141.026
21
-60.6371
0
LINE
8
BLACK
6
CONTINUOUS
10
141.026
20
-60.6371
11
141.083
21
-60.5902
0
LINE
8
BLACK
6
CONTINUOUS
10
141.083
20
-60.5902
11
141.17
21
-60.5438
0
LINE
8
BLACK
6
CONTINUOUS
10
141.17
20
-60.5438
11
141.17
21
-60.5438
0
LINE
8
BLACK
6
CONTINUOUS
10
141.17
20
-60.5438
11
141.264
21
-60.5152
0
LINE
8
BLACK
6
CONTINUOUS
10
141.264
20
-60.5152
11
141.337
21
-60.508
0
LINE
8
BLACK
6
CONTINUOUS
10
141.337
20
-60.508
11
141.362
21
-60.5056
0
LINE
8
BLACK
6
CONTINUOUS
10
141.362
20
-60.5056
11
141.387
21
-60.508
0
LINE
8
BLACK
6
CONTINUOUS
10
141.387
20
-60.508
11
166.978
21
-60.508
0
LINE
8
BLACK
6
CONTINUOUS
10
166.978
20
-60.508
11
167.003
21
-60.5056
0
LINE
8
BLACK
6
CONTINUOUS
10
167.003
20
-60.5056
11
167.101
21
-60.5152
0
LINE
8
BLACK
6
CONTINUOUS
10
167.101
20
-60.5152
11
167.195
21
-60.5438
0
LINE
8
BLACK
6
CONTINUOUS
10
167.195
20
-60.5438
11
167.195
21
-60.5438
0
LINE
8
BLACK
6
CONTINUOUS
10
167.195
20
-60.5438
11
167.282
21
-60.5902
0
LINE
8
BLACK
6
CONTINUOUS
10
167.282
20
-60.5902
11
167.358
21
-60.6527
0
LINE
8
BLACK
6
CONTINUOUS
10
167.358
20
-60.6527
11
167.374
21
-60.6718
0
LINE
8
BLACK
6
CONTINUOUS
10
167.374
20
-60.6718
11
168.182
21
-61.48
0
LINE
8
BLACK
6
CONTINUOUS
10
168.182
20
-61.48
11
168.201
21
-61.4957
0
LINE
8
BLACK
6
CONTINUOUS
10
168.201
20
-61.4957
11
168.264
21
-61.5718
0
LINE
8
BLACK
6
CONTINUOUS
10
168.264
20
-61.5718
11
168.31
21
-61.6587
0
LINE
8
BLACK
6
CONTINUOUS
10
168.31
20
-61.6587
11
168.331
21
-61.726
0
LINE
8
BLACK
6
CONTINUOUS
10
168.331
20
-61.726
11
168.339
21
-61.7529
0
LINE
8
BLACK
6
CONTINUOUS
10
168.339
20
-61.7529
11
168.348
21
-61.8509
0
LINE
8
BLACK
6
CONTINUOUS
10
168.348
20
-61.8509
11
168.346
21
-61.8755
0
LINE
8
BLACK
6
CONTINUOUS
10
168.346
20
-61.8755
11
168.346
21
-79.0854
0
LINE
8
BLACK
6
CONTINUOUS
10
168.346
20
-79.0854
11
168.348
21
-79.11
0
LINE
8
BLACK
6
CONTINUOUS
10
168.348
20
-79.11
11
168.346
21
-79.1345
0
LINE
8
BLACK
6
CONTINUOUS
10
168.346
20
-79.1345
11
168.346
21
-79.1345
0
LINE
8
BLACK
6
CONTINUOUS
10
168.346
20
-79.1345
11
168.339
21
-79.208
0
LINE
8
BLACK
6
CONTINUOUS
10
168.339
20
-79.208
11
168.31
21
-79.3023
0
LINE
8
BLACK
6
CONTINUOUS
10
168.31
20
-79.3023
11
168.264
21
-79.3891
0
LINE
8
BLACK
6
CONTINUOUS
10
168.264
20
-79.3891
11
168.201
21
-79.4653
0
LINE
8
BLACK
6
CONTINUOUS
10
168.201
20
-79.4653
11
168.182
21
-79.4809
0
LINE
8
BLACK
6
CONTINUOUS
10
168.182
20
-79.4809
11
166.809
21
-80.8542
0
LINE
8
BLACK
6
CONTINUOUS
10
166.809
20
-80.8542
11
166.793
21
-80.8733
0
LINE
8
BLACK
6
CONTINUOUS
10
166.793
20
-80.8733
11
166.717
21
-80.9357
0
LINE
8
BLACK
6
CONTINUOUS
10
166.717
20
-80.9357
11
166.63
21
-80.9822
0
LINE
8
BLACK
6
CONTINUOUS
10
166.63
20
-80.9822
11
166.536
21
-81.0108
0
LINE
8
BLACK
6
CONTINUOUS
10
166.536
20
-81.0108
11
166.463
21
-81.018
0
LINE
8
BLACK
6
CONTINUOUS
10
166.463
20
-81.018
11
166.438
21
-81.0204
0
LINE
8
BLACK
6
CONTINUOUS
10
166.438
20
-81.0204
11
166.413
21
-81.018
0
LINE
8
BLACK
6
CONTINUOUS
10
166.413
20
-81.018
11
165.438
21
-81.018
0
LINE
8
BLACK
6
CONTINUOUS
10
165.438
20
-81.018
11
165.438
21
-81.618
0
LINE
8
BLACK
6
CONTINUOUS
10
165.438
20
-81.618
11
164.838
21
-81.618
0
LINE
8
BLACK
6
CONTINUOUS
10
164.838
20
-81.618
11
164.838
21
-82.4109
0
LINE
8
BLACK
6
CONTINUOUS
10
164.838
20
-82.4109
11
165.896
21
-83.4691
0
LINE
8
BLACK
6
CONTINUOUS
10
165.896
20
-83.4691
11
165.915
21
-83.4847
0
LINE
8
BLACK
6
CONTINUOUS
10
165.915
20
-83.4847
11
165.978
21
-83.5609
0
LINE
8
BLACK
6
CONTINUOUS
10
165.978
20
-83.5609
11
166.024
21
-83.6477
0
LINE
8
BLACK
6
CONTINUOUS
10
166.024
20
-83.6477
11
166.03
21
-83.6673
0
LINE
8
BLACK
6
CONTINUOUS
10
166.03
20
-83.6673
11
166.053
21
-83.742
0
LINE
8
BLACK
6
CONTINUOUS
10
166.053
20
-83.742
11
166.062
21
-83.84
0
LINE
8
BLACK
6
CONTINUOUS
10
166.062
20
-83.84
11
166.06
21
-83.8646
0
LINE
8
BLACK
6
CONTINUOUS
10
166.06
20
-83.8646
11
166.06
21
-99.4054
0
LINE
8
BLACK
6
CONTINUOUS
10
166.06
20
-99.4054
11
166.062
21
-99.43
0
LINE
8
BLACK
6
CONTINUOUS
10
166.062
20
-99.43
11
166.06
21
-99.4545
0
LINE
8
BLACK
6
CONTINUOUS
10
166.06
20
-99.4545
11
166.053
21
-99.528
0
LINE
8
BLACK
6
CONTINUOUS
10
166.053
20
-99.528
11
166.024
21
-99.6223
0
LINE
8
BLACK
6
CONTINUOUS
10
166.024
20
-99.6223
11
165.978
21
-99.7091
0
LINE
8
BLACK
6
CONTINUOUS
10
165.978
20
-99.7091
11
165.915
21
-99.7853
0
LINE
8
BLACK
6
CONTINUOUS
10
165.915
20
-99.7853
11
165.896
21
-99.8009
0
LINE
8
BLACK
6
CONTINUOUS
10
165.896
20
-99.8009
11
165.031
21
-100.666
0
LINE
8
BLACK
6
CONTINUOUS
10
165.031
20
-100.666
11
165.015
21
-100.685
0
LINE
8
BLACK
6
CONTINUOUS
10
165.015
20
-100.685
11
164.939
21
-100.748
0
LINE
8
BLACK
6
CONTINUOUS
10
164.939
20
-100.748
11
164.852
21
-100.794
0
LINE
8
BLACK
6
CONTINUOUS
10
164.852
20
-100.794
11
164.758
21
-100.823
0
LINE
8
BLACK
6
CONTINUOUS
10
164.758
20
-100.823
11
164.687
21
-100.83
0
LINE
8
BLACK
6
CONTINUOUS
10
164.687
20
-100.83
11
164.696
21
-100.839
0
LINE
8
BLACK
6
CONTINUOUS
10
164.696
20
-100.839
11
164.715
21
-100.855
0
LINE
8
BLACK
6
CONTINUOUS
10
164.715
20
-100.855
11
164.778
21
-100.931
0
LINE
8
BLACK
6
CONTINUOUS
10
164.778
20
-100.931
11
164.824
21
-101.018
0
LINE
8
BLACK
6
CONTINUOUS
10
164.824
20
-101.018
11
164.853
21
-101.112
0
LINE
8
BLACK
6
CONTINUOUS
10
164.853
20
-101.112
11
164.862
21
-101.21
0
LINE
8
BLACK
6
CONTINUOUS
10
164.862
20
-101.21
11
164.86
21
-101.235
0
LINE
8
BLACK
6
CONTINUOUS
10
164.86
20
-101.235
11
164.86
21
-104.505
0
LINE
8
BLACK
6
CONTINUOUS
10
164.86
20
-104.505
11
164.862
21
-104.53
0
LINE
8
BLACK
6
CONTINUOUS
10
164.862
20
-104.53
11
164.86
21
-104.555
0
LINE
8
BLACK
6
CONTINUOUS
10
164.86
20
-104.555
11
164.853
21
-104.628
0
LINE
8
BLACK
6
CONTINUOUS
10
164.853
20
-104.628
11
164.824
21
-104.722
0
LINE
8
BLACK
6
CONTINUOUS
10
164.824
20
-104.722
11
164.778
21
-104.809
0
LINE
8
BLACK
6
CONTINUOUS
10
164.778
20
-104.809
11
164.715
21
-104.885
0
LINE
8
BLACK
6
CONTINUOUS
10
164.715
20
-104.885
11
164.696
21
-104.901
0
LINE
8
BLACK
6
CONTINUOUS
10
164.696
20
-104.901
11
160.295
21
-109.302
0
LINE
8
BLACK
6
CONTINUOUS
10
160.295
20
-109.302
11
160.279
21
-109.321
0
LINE
8
BLACK
6
CONTINUOUS
10
160.279
20
-109.321
11
160.203
21
-109.384
0
LINE
8
BLACK
6
CONTINUOUS
10
160.203
20
-109.384
11
160.116
21
-109.43
0
LINE
8
BLACK
6
CONTINUOUS
10
160.116
20
-109.43
11
160.022
21
-109.459
0
LINE
8
BLACK
6
CONTINUOUS
10
160.022
20
-109.459
11
159.949
21
-109.466
0
LINE
8
BLACK
6
CONTINUOUS
10
159.949
20
-109.466
11
159.924
21
-109.468
0
LINE
8
BLACK
6
CONTINUOUS
10
159.924
20
-109.468
11
159.899
21
-109.466
0
LINE
8
BLACK
6
CONTINUOUS
10
159.899
20
-109.466
11
154.062
21
-109.466
0
LINE
8
BLACK
6
CONTINUOUS
10
154.062
20
-109.466
11
154.062
21
-109.866
0
LINE
8
BLACK
6
CONTINUOUS
10
132.851
20
-107.085
11
133.014
21
-107.152
0
LINE
8
BLACK
6
CONTINUOUS
10
133.014
20
-107.152
11
133.162
21
-107.251
0
LINE
8
BLACK
6
CONTINUOUS
10
133.162
20
-107.251
11
133.287
21
-107.376
0
LINE
8
BLACK
6
CONTINUOUS
10
133.287
20
-107.376
11
133.386
21
-107.524
0
LINE
8
BLACK
6
CONTINUOUS
10
133.386
20
-107.524
11
133.453
21
-107.687
0
LINE
8
BLACK
6
CONTINUOUS
10
133.453
20
-107.687
11
133.488
21
-107.861
0
LINE
8
BLACK
6
CONTINUOUS
10
133.488
20
-107.861
11
133.488
21
-108.039
0
LINE
8
BLACK
6
CONTINUOUS
10
133.488
20
-108.039
11
133.453
21
-108.213
0
LINE
8
BLACK
6
CONTINUOUS
10
133.453
20
-108.213
11
133.386
21
-108.376
0
LINE
8
BLACK
6
CONTINUOUS
10
133.386
20
-108.376
11
133.287
21
-108.524
0
LINE
8
BLACK
6
CONTINUOUS
10
133.287
20
-108.524
11
133.162
21
-108.649
0
LINE
8
BLACK
6
CONTINUOUS
10
133.162
20
-108.649
11
133.014
21
-108.748
0
LINE
8
BLACK
6
CONTINUOUS
10
133.014
20
-108.748
11
132.851
21
-108.815
0
LINE
8
BLACK
6
CONTINUOUS
10
132.851
20
-108.815
11
132.677
21
-108.85
0
LINE
8
BLACK
6
CONTINUOUS
10
132.677
20
-108.85
11
132.499
21
-108.85
0
LINE
8
BLACK
6
CONTINUOUS
10
132.499
20
-108.85
11
132.412
21
-108.833
0
LINE
8
BLACK
6
CONTINUOUS
10
132.412
20
-108.833
11
131.943
21
-109.302
0
LINE
8
BLACK
6
CONTINUOUS
10
131.943
20
-109.302
11
131.927
21
-109.321
0
LINE
8
BLACK
6
CONTINUOUS
10
131.927
20
-109.321
11
131.851
21
-109.384
0
LINE
8
BLACK
6
CONTINUOUS
10
131.851
20
-109.384
11
131.764
21
-109.43
0
LINE
8
BLACK
6
CONTINUOUS
10
131.764
20
-109.43
11
131.67
21
-109.459
0
LINE
8
BLACK
6
CONTINUOUS
10
131.67
20
-109.459
11
131.597
21
-109.466
0
LINE
8
BLACK
6
CONTINUOUS
10
131.597
20
-109.466
11
131.572
21
-109.468
0
LINE
8
BLACK
6
CONTINUOUS
10
131.572
20
-109.468
11
131.547
21
-109.466
0
LINE
8
BLACK
6
CONTINUOUS
10
131.547
20
-109.466
11
129.871
21
-109.466
0
LINE
8
BLACK
6
CONTINUOUS
10
129.871
20
-109.466
11
129.781
21
-109.636
0
LINE
8
BLACK
6
CONTINUOUS
10
129.781
20
-109.636
11
129.631
21
-109.819
0
LINE
8
BLACK
6
CONTINUOUS
10
129.631
20
-109.819
11
129.448
21
-109.969
0
LINE
8
BLACK
6
CONTINUOUS
10
129.448
20
-109.969
11
129.239
21
-110.08
0
LINE
8
BLACK
6
CONTINUOUS
10
129.239
20
-110.08
11
129.013
21
-110.149
0
LINE
8
BLACK
6
CONTINUOUS
10
129.013
20
-110.149
11
128.837
21
-110.166
0
LINE
8
BLACK
6
CONTINUOUS
10
128.837
20
-110.166
11
128.719
21
-110.166
0
LINE
8
BLACK
6
CONTINUOUS
10
128.719
20
-110.166
11
128.543
21
-110.149
0
LINE
8
BLACK
6
CONTINUOUS
10
128.543
20
-110.149
11
128.317
21
-110.08
0
LINE
8
BLACK
6
CONTINUOUS
10
128.317
20
-110.08
11
128.108
21
-109.969
0
LINE
8
BLACK
6
CONTINUOUS
10
128.108
20
-109.969
11
127.925
21
-109.819
0
LINE
8
BLACK
6
CONTINUOUS
10
127.925
20
-109.819
11
127.775
21
-109.636
0
LINE
8
BLACK
6
CONTINUOUS
10
127.775
20
-109.636
11
127.664
21
-109.427
0
LINE
8
BLACK
6
CONTINUOUS
10
127.664
20
-109.427
11
127.595
21
-109.201
0
LINE
8
BLACK
6
CONTINUOUS
10
127.595
20
-109.201
11
127.572
21
-108.966
0
LINE
8
BLACK
6
CONTINUOUS
10
127.572
20
-108.966
11
127.595
21
-108.731
0
LINE
8
BLACK
6
CONTINUOUS
10
127.595
20
-108.731
11
127.664
21
-108.505
0
LINE
8
BLACK
6
CONTINUOUS
10
127.664
20
-108.505
11
127.775
21
-108.296
0
LINE
8
BLACK
6
CONTINUOUS
10
127.775
20
-108.296
11
127.925
21
-108.113
0
LINE
8
BLACK
6
CONTINUOUS
10
127.925
20
-108.113
11
128.108
21
-107.963
0
LINE
8
BLACK
6
CONTINUOUS
10
128.108
20
-107.963
11
128.317
21
-107.852
0
LINE
8
BLACK
6
CONTINUOUS
10
128.317
20
-107.852
11
128.543
21
-107.783
0
LINE
8
BLACK
6
CONTINUOUS
10
128.543
20
-107.783
11
128.719
21
-107.766
0
LINE
8
BLACK
6
CONTINUOUS
10
128.719
20
-107.766
11
128.837
21
-107.766
0
LINE
8
BLACK
6
CONTINUOUS
10
128.837
20
-107.766
11
129.013
21
-107.783
0
LINE
8
BLACK
6
CONTINUOUS
10
129.013
20
-107.783
11
129.239
21
-107.852
0
LINE
8
BLACK
6
CONTINUOUS
10
129.239
20
-107.852
11
129.448
21
-107.963
0
LINE
8
BLACK
6
CONTINUOUS
10
129.448
20
-107.963
11
129.631
21
-108.113
0
LINE
8
BLACK
6
CONTINUOUS
10
129.631
20
-108.113
11
129.781
21
-108.296
0
LINE
8
BLACK
6
CONTINUOUS
10
129.781
20
-108.296
11
129.871
21
-108.466
0
LINE
8
BLACK
6
CONTINUOUS
10
129.871
20
-108.466
11
131.365
21
-108.466
0
LINE
8
BLACK
6
CONTINUOUS
10
131.365
20
-108.466
11
131.705
21
-108.126
0
LINE
8
BLACK
6
CONTINUOUS
10
131.705
20
-108.126
11
131.688
21
-108.039
0
LINE
8
BLACK
6
CONTINUOUS
10
131.688
20
-108.039
11
131.688
21
-107.861
0
LINE
8
BLACK
6
CONTINUOUS
10
131.688
20
-107.861
11
131.723
21
-107.687
0
LINE
8
BLACK
6
CONTINUOUS
10
131.723
20
-107.687
11
131.79
21
-107.524
0
LINE
8
BLACK
6
CONTINUOUS
10
131.79
20
-107.524
11
131.889
21
-107.376
0
LINE
8
BLACK
6
CONTINUOUS
10
131.889
20
-107.376
11
132.014
21
-107.251
0
LINE
8
BLACK
6
CONTINUOUS
10
132.014
20
-107.251
11
132.162
21
-107.152
0
LINE
8
BLACK
6
CONTINUOUS
10
132.162
20
-107.152
11
132.325
21
-107.085
0
LINE
8
BLACK
6
CONTINUOUS
10
132.325
20
-107.085
11
132.499
21
-107.05
0
LINE
8
BLACK
6
CONTINUOUS
10
132.499
20
-107.05
11
132.677
21
-107.05
0
LINE
8
BLACK
6
CONTINUOUS
10
132.677
20
-107.05
11
132.851
21
-107.085
0
LINE
8
BLACK
6
CONTINUOUS
10
124.544
20
-105.748
11
122.344
21
-105.748
0
LINE
8
BLACK
6
CONTINUOUS
10
122.344
20
-105.748
11
122.344
21
-105.148
0
LINE
8
BLACK
6
CONTINUOUS
10
122.344
20
-105.148
11
119.841
21
-105.148
0
LINE
8
BLACK
6
CONTINUOUS
10
119.841
20
-105.148
11
118.594
21
-106.395
0
LINE
8
BLACK
6
CONTINUOUS
10
118.594
20
-106.395
11
118.594
21
-108.688
0
LINE
8
BLACK
6
CONTINUOUS
10
118.594
20
-108.688
11
115.594
21
-108.688
0
LINE
8
BLACK
6
CONTINUOUS
10
115.594
20
-108.688
11
115.594
21
-105.688
0
LINE
8
BLACK
6
CONTINUOUS
10
115.594
20
-105.688
11
117.887
21
-105.688
0
LINE
8
BLACK
6
CONTINUOUS
10
117.887
20
-105.688
11
119.263
21
-104.312
0
LINE
8
BLACK
6
CONTINUOUS
10
119.263
20
-104.312
11
119.279
21
-104.293
0
LINE
8
BLACK
6
CONTINUOUS
10
119.279
20
-104.293
11
119.355
21
-104.23
0
LINE
8
BLACK
6
CONTINUOUS
10
119.355
20
-104.23
11
119.442
21
-104.184
0
LINE
8
BLACK
6
CONTINUOUS
10
119.442
20
-104.184
11
119.536
21
-104.155
0
LINE
8
BLACK
6
CONTINUOUS
10
119.536
20
-104.155
11
119.609
21
-104.148
0
LINE
8
BLACK
6
CONTINUOUS
10
119.609
20
-104.148
11
119.609
21
-104.148
0
LINE
8
BLACK
6
CONTINUOUS
10
119.609
20
-104.148
11
119.634
21
-104.146
0
LINE
8
BLACK
6
CONTINUOUS
10
119.634
20
-104.146
11
119.659
21
-104.148
0
LINE
8
BLACK
6
CONTINUOUS
10
119.659
20
-104.148
11
122.344
21
-104.148
0
LINE
8
BLACK
6
CONTINUOUS
10
122.344
20
-104.148
11
122.344
21
-103.548
0
LINE
8
BLACK
6
CONTINUOUS
10
122.344
20
-103.548
11
124.544
21
-103.548
0
LINE
8
BLACK
6
CONTINUOUS
10
124.544
20
-103.548
11
124.544
21
-105.748
0
LINE
8
BLACK
6
CONTINUOUS
10
124.544
20
-108.288
11
122.344
21
-108.288
0
LINE
8
BLACK
6
CONTINUOUS
10
122.344
20
-108.288
11
122.344
21
-106.088
0
LINE
8
BLACK
6
CONTINUOUS
10
122.344
20
-106.088
11
124.544
21
-106.088
0
LINE
8
BLACK
6
CONTINUOUS
10
124.544
20
-106.088
11
124.544
21
-108.288
0
LINE
8
BLACK
6
CONTINUOUS
10
139.427
20
-101.687
11
139.653
21
-101.756
0
LINE
8
BLACK
6
CONTINUOUS
10
139.653
20
-101.756
11
139.862
21
-101.867
0
LINE
8
BLACK
6
CONTINUOUS
10
139.862
20
-101.867
11
140.045
21
-102.017
0
LINE
8
BLACK
6
CONTINUOUS
10
140.045
20
-102.017
11
140.195
21
-102.2
0
LINE
8
BLACK
6
CONTINUOUS
10
140.195
20
-102.2
11
140.306
21
-102.409
0
LINE
8
BLACK
6
CONTINUOUS
10
140.306
20
-102.409
11
140.375
21
-102.635
0
LINE
8
BLACK
6
CONTINUOUS
10
140.375
20
-102.635
11
140.398
21
-102.87
0
LINE
8
BLACK
6
CONTINUOUS
10
140.398
20
-102.87
11
140.375
21
-103.105
0
LINE
8
BLACK
6
CONTINUOUS
10
140.375
20
-103.105
11
140.306
21
-103.331
0
LINE
8
BLACK
6
CONTINUOUS
10
140.306
20
-103.331
11
140.195
21
-103.54
0
LINE
8
BLACK
6
CONTINUOUS
10
140.195
20
-103.54
11
140.045
21
-103.723
0
LINE
8
BLACK
6
CONTINUOUS
10
140.045
20
-103.723
11
139.862
21
-103.873
0
LINE
8
BLACK
6
CONTINUOUS
10
139.862
20
-103.873
11
139.692
21
-103.963
0
LINE
8
BLACK
6
CONTINUOUS
10
139.692
20
-103.963
11
139.692
21
-105.557
0
LINE
8
BLACK
6
CONTINUOUS
10
139.692
20
-105.557
11
139.709
21
-105.561
0
LINE
8
BLACK
6
CONTINUOUS
10
139.709
20
-105.561
11
139.872
21
-105.628
0
LINE
8
BLACK
6
CONTINUOUS
10
139.872
20
-105.628
11
140.02
21
-105.727
0
LINE
8
BLACK
6
CONTINUOUS
10
140.02
20
-105.727
11
140.145
21
-105.852
0
LINE
8
BLACK
6
CONTINUOUS
10
140.145
20
-105.852
11
140.244
21
-106
0
LINE
8
BLACK
6
CONTINUOUS
10
140.244
20
-106
11
140.311
21
-106.163
0
LINE
8
BLACK
6
CONTINUOUS
10
140.311
20
-106.163
11
140.346
21
-106.337
0
LINE
8
BLACK
6
CONTINUOUS
10
140.346
20
-106.337
11
140.346
21
-106.515
0
LINE
8
BLACK
6
CONTINUOUS
10
140.346
20
-106.515
11
140.311
21
-106.689
0
LINE
8
BLACK
6
CONTINUOUS
10
140.311
20
-106.689
11
140.244
21
-106.852
0
LINE
8
BLACK
6
CONTINUOUS
10
140.244
20
-106.852
11
140.145
21
-107
0
LINE
8
BLACK
6
CONTINUOUS
10
140.145
20
-107
11
140.02
21
-107.125
0
LINE
8
BLACK
6
CONTINUOUS
10
140.02
20
-107.125
11
139.872
21
-107.224
0
LINE
8
BLACK
6
CONTINUOUS
10
139.872
20
-107.224
11
139.709
21
-107.291
0
LINE
8
BLACK
6
CONTINUOUS
10
139.709
20
-107.291
11
139.535
21
-107.326
0
LINE
8
BLACK
6
CONTINUOUS
10
139.535
20
-107.326
11
139.357
21
-107.326
0
LINE
8
BLACK
6
CONTINUOUS
10
139.357
20
-107.326
11
139.183
21
-107.291
0
LINE
8
BLACK
6
CONTINUOUS
10
139.183
20
-107.291
11
139.02
21
-107.224
0
LINE
8
BLACK
6
CONTINUOUS
10
139.02
20
-107.224
11
138.872
21
-107.125
0
LINE
8
BLACK
6
CONTINUOUS
10
138.872
20
-107.125
11
138.747
21
-107
0
LINE
8
BLACK
6
CONTINUOUS
10
138.747
20
-107
11
138.648
21
-106.852
0
LINE
8
BLACK
6
CONTINUOUS
10
138.648
20
-106.852
11
138.581
21
-106.689
0
LINE
8
BLACK
6
CONTINUOUS
10
138.581
20
-106.689
11
138.546
21
-106.515
0
LINE
8
BLACK
6
CONTINUOUS
10
138.546
20
-106.515
11
138.546
21
-106.337
0
LINE
8
BLACK
6
CONTINUOUS
10
138.546
20
-106.337
11
138.581
21
-106.163
0
LINE
8
BLACK
6
CONTINUOUS
10
138.581
20
-106.163
11
138.648
21
-106
0
LINE
8
BLACK
6
CONTINUOUS
10
138.648
20
-106
11
138.692
21
-105.934
0
LINE
8
BLACK
6
CONTINUOUS
10
138.692
20
-105.934
11
138.692
21
-103.963
0
LINE
8
BLACK
6
CONTINUOUS
10
138.692
20
-103.963
11
138.522
21
-103.873
0
LINE
8
BLACK
6
CONTINUOUS
10
138.522
20
-103.873
11
138.339
21
-103.723
0
LINE
8
BLACK
6
CONTINUOUS
10
138.339
20
-103.723
11
138.189
21
-103.54
0
LINE
8
BLACK
6
CONTINUOUS
10
138.189
20
-103.54
11
138.078
21
-103.331
0
LINE
8
BLACK
6
CONTINUOUS
10
138.078
20
-103.331
11
138.009
21
-103.105
0
LINE
8
BLACK
6
CONTINUOUS
10
138.009
20
-103.105
11
137.986
21
-102.87
0
LINE
8
BLACK
6
CONTINUOUS
10
137.986
20
-102.87
11
138.009
21
-102.635
0
LINE
8
BLACK
6
CONTINUOUS
10
138.009
20
-102.635
11
138.078
21
-102.409
0
LINE
8
BLACK
6
CONTINUOUS
10
138.078
20
-102.409
11
138.189
21
-102.2
0
LINE
8
BLACK
6
CONTINUOUS
10
138.189
20
-102.2
11
138.339
21
-102.017
0
LINE
8
BLACK
6
CONTINUOUS
10
138.339
20
-102.017
11
138.522
21
-101.867
0
LINE
8
BLACK
6
CONTINUOUS
10
138.522
20
-101.867
11
138.731
21
-101.756
0
LINE
8
BLACK
6
CONTINUOUS
10
138.731
20
-101.756
11
138.957
21
-101.687
0
LINE
8
BLACK
6
CONTINUOUS
10
138.957
20
-101.687
11
139.133
21
-101.67
0
LINE
8
BLACK
6
CONTINUOUS
10
139.133
20
-101.67
11
139.251
21
-101.67
0
LINE
8
BLACK
6
CONTINUOUS
10
139.251
20
-101.67
11
139.427
21
-101.687
0
LINE
8
BLACK
6
CONTINUOUS
10
152.381
20
-101.687
11
152.607
21
-101.756
0
LINE
8
BLACK
6
CONTINUOUS
10
152.607
20
-101.756
11
152.816
21
-101.867
0
LINE
8
BLACK
6
CONTINUOUS
10
152.816
20
-101.867
11
152.999
21
-102.017
0
LINE
8
BLACK
6
CONTINUOUS
10
152.999
20
-102.017
11
153.149
21
-102.2
0
LINE
8
BLACK
6
CONTINUOUS
10
153.149
20
-102.2
11
153.26
21
-102.409
0
LINE
8
BLACK
6
CONTINUOUS
10
153.26
20
-102.409
11
153.329
21
-102.635
0
LINE
8
BLACK
6
CONTINUOUS
10
153.329
20
-102.635
11
153.352
21
-102.87
0
LINE
8
BLACK
6
CONTINUOUS
10
153.352
20
-102.87
11
153.329
21
-103.105
0
LINE
8
BLACK
6
CONTINUOUS
10
153.329
20
-103.105
11
153.26
21
-103.331
0
LINE
8
BLACK
6
CONTINUOUS
10
153.26
20
-103.331
11
153.149
21
-103.54
0
LINE
8
BLACK
6
CONTINUOUS
10
153.149
20
-103.54
11
152.999
21
-103.723
0
LINE
8
BLACK
6
CONTINUOUS
10
152.999
20
-103.723
11
152.816
21
-103.873
0
LINE
8
BLACK
6
CONTINUOUS
10
152.816
20
-103.873
11
152.646
21
-103.963
0
LINE
8
BLACK
6
CONTINUOUS
10
152.646
20
-103.963
11
152.646
21
-105.203
0
LINE
8
BLACK
6
CONTINUOUS
10
152.646
20
-105.203
11
152.986
21
-105.543
0
LINE
8
BLACK
6
CONTINUOUS
10
152.986
20
-105.543
11
153.073
21
-105.526
0
LINE
8
BLACK
6
CONTINUOUS
10
153.073
20
-105.526
11
153.251
21
-105.526
0
LINE
8
BLACK
6
CONTINUOUS
10
153.251
20
-105.526
11
153.425
21
-105.561
0
LINE
8
BLACK
6
CONTINUOUS
10
153.425
20
-105.561
11
153.588
21
-105.628
0
LINE
8
BLACK
6
CONTINUOUS
10
153.588
20
-105.628
11
153.736
21
-105.727
0
LINE
8
BLACK
6
CONTINUOUS
10
153.736
20
-105.727
11
153.861
21
-105.852
0
LINE
8
BLACK
6
CONTINUOUS
10
153.861
20
-105.852
11
153.96
21
-106
0
LINE
8
BLACK
6
CONTINUOUS
10
153.96
20
-106
11
154.027
21
-106.163
0
LINE
8
BLACK
6
CONTINUOUS
10
154.027
20
-106.163
11
154.062
21
-106.337
0
LINE
8
BLACK
6
CONTINUOUS
10
154.062
20
-106.337
11
154.062
21
-106.515
0
LINE
8
BLACK
6
CONTINUOUS
10
154.062
20
-106.515
11
154.027
21
-106.689
0
LINE
8
BLACK
6
CONTINUOUS
10
154.027
20
-106.689
11
153.96
21
-106.852
0
LINE
8
BLACK
6
CONTINUOUS
10
153.96
20
-106.852
11
153.861
21
-107
0
LINE
8
BLACK
6
CONTINUOUS
10
153.861
20
-107
11
153.736
21
-107.125
0
LINE
8
BLACK
6
CONTINUOUS
10
153.736
20
-107.125
11
153.588
21
-107.224
0
LINE
8
BLACK
6
CONTINUOUS
10
153.588
20
-107.224
11
153.425
21
-107.291
0
LINE
8
BLACK
6
CONTINUOUS
10
153.425
20
-107.291
11
153.251
21
-107.326
0
LINE
8
BLACK
6
CONTINUOUS
10
153.251
20
-107.326
11
153.073
21
-107.326
0
LINE
8
BLACK
6
CONTINUOUS
10
153.073
20
-107.326
11
152.899
21
-107.291
0
LINE
8
BLACK
6
CONTINUOUS
10
152.899
20
-107.291
11
152.736
21
-107.224
0
LINE
8
BLACK
6
CONTINUOUS
10
152.736
20
-107.224
11
152.588
21
-107.125
0
LINE
8
BLACK
6
CONTINUOUS
10
152.588
20
-107.125
11
152.463
21
-107
0
LINE
8
BLACK
6
CONTINUOUS
10
152.463
20
-107
11
152.364
21
-106.852
0
LINE
8
BLACK
6
CONTINUOUS
10
152.364
20
-106.852
11
152.297
21
-106.689
0
LINE
8
BLACK
6
CONTINUOUS
10
152.297
20
-106.689
11
152.262
21
-106.515
0
LINE
8
BLACK
6
CONTINUOUS
10
152.262
20
-106.515
11
152.262
21
-106.337
0
LINE
8
BLACK
6
CONTINUOUS
10
152.262
20
-106.337
11
152.279
21
-106.25
0
LINE
8
BLACK
6
CONTINUOUS
10
152.279
20
-106.25
11
151.81
21
-105.781
0
LINE
8
BLACK
6
CONTINUOUS
10
151.81
20
-105.781
11
151.791
21
-105.765
0
LINE
8
BLACK
6
CONTINUOUS
10
151.791
20
-105.765
11
151.728
21
-105.689
0
LINE
8
BLACK
6
CONTINUOUS
10
151.728
20
-105.689
11
151.682
21
-105.602
0
LINE
8
BLACK
6
CONTINUOUS
10
151.682
20
-105.602
11
151.653
21
-105.508
0
LINE
8
BLACK
6
CONTINUOUS
10
151.653
20
-105.508
11
151.644
21
-105.41
0
LINE
8
BLACK
6
CONTINUOUS
10
151.644
20
-105.41
11
151.646
21
-105.385
0
LINE
8
BLACK
6
CONTINUOUS
10
151.646
20
-105.385
11
151.646
21
-103.963
0
LINE
8
BLACK
6
CONTINUOUS
10
151.646
20
-103.963
11
151.476
21
-103.873
0
LINE
8
BLACK
6
CONTINUOUS
10
151.476
20
-103.873
11
151.293
21
-103.723
0
LINE
8
BLACK
6
CONTINUOUS
10
151.293
20
-103.723
11
151.143
21
-103.54
0
LINE
8
BLACK
6
CONTINUOUS
10
151.143
20
-103.54
11
151.032
21
-103.331
0
LINE
8
BLACK
6
CONTINUOUS
10
151.032
20
-103.331
11
150.963
21
-103.105
0
LINE
8
BLACK
6
CONTINUOUS
10
150.963
20
-103.105
11
150.94
21
-102.87
0
LINE
8
BLACK
6
CONTINUOUS
10
150.94
20
-102.87
11
150.963
21
-102.635
0
LINE
8
BLACK
6
CONTINUOUS
10
150.963
20
-102.635
11
151.032
21
-102.409
0
LINE
8
BLACK
6
CONTINUOUS
10
151.032
20
-102.409
11
151.143
21
-102.2
0
LINE
8
BLACK
6
CONTINUOUS
10
151.143
20
-102.2
11
151.293
21
-102.017
0
LINE
8
BLACK
6
CONTINUOUS
10
151.293
20
-102.017
11
151.476
21
-101.867
0
LINE
8
BLACK
6
CONTINUOUS
10
151.476
20
-101.867
11
151.685
21
-101.756
0
LINE
8
BLACK
6
CONTINUOUS
10
151.685
20
-101.756
11
151.911
21
-101.687
0
LINE
8
BLACK
6
CONTINUOUS
10
151.911
20
-101.687
11
152.087
21
-101.67
0
LINE
8
BLACK
6
CONTINUOUS
10
152.087
20
-101.67
11
152.205
21
-101.67
0
LINE
8
BLACK
6
CONTINUOUS
10
152.205
20
-101.67
11
152.381
21
-101.687
0
LINE
8
BLACK
6
CONTINUOUS
10
148.063
20
-101.687
11
148.289
21
-101.756
0
LINE
8
BLACK
6
CONTINUOUS
10
148.289
20
-101.756
11
148.498
21
-101.867
0
LINE
8
BLACK
6
CONTINUOUS
10
148.498
20
-101.867
11
148.681
21
-102.017
0
LINE
8
BLACK
6
CONTINUOUS
10
148.681
20
-102.017
11
148.831
21
-102.2
0
LINE
8
BLACK
6
CONTINUOUS
10
148.831
20
-102.2
11
148.942
21
-102.409
0
LINE
8
BLACK
6
CONTINUOUS
10
148.942
20
-102.409
11
149.011
21
-102.635
0
LINE
8
BLACK
6
CONTINUOUS
10
149.011
20
-102.635
11
149.034
21
-102.87
0
LINE
8
BLACK
6
CONTINUOUS
10
149.034
20
-102.87
11
149.011
21
-103.105
0
LINE
8
BLACK
6
CONTINUOUS
10
149.011
20
-103.105
11
148.942
21
-103.331
0
LINE
8
BLACK
6
CONTINUOUS
10
148.942
20
-103.331
11
148.831
21
-103.54
0
LINE
8
BLACK
6
CONTINUOUS
10
148.831
20
-103.54
11
148.681
21
-103.723
0
LINE
8
BLACK
6
CONTINUOUS
10
148.681
20
-103.723
11
148.498
21
-103.873
0
LINE
8
BLACK
6
CONTINUOUS
10
148.498
20
-103.873
11
148.328
21
-103.963
0
LINE
8
BLACK
6
CONTINUOUS
10
148.328
20
-103.963
11
148.328
21
-105.457
0
LINE
8
BLACK
6
CONTINUOUS
10
148.328
20
-105.457
11
148.414
21
-105.543
0
LINE
8
BLACK
6
CONTINUOUS
10
148.414
20
-105.543
11
148.501
21
-105.526
0
LINE
8
BLACK
6
CONTINUOUS
10
148.501
20
-105.526
11
148.679
21
-105.526
0
LINE
8
BLACK
6
CONTINUOUS
10
148.679
20
-105.526
11
148.853
21
-105.561
0
LINE
8
BLACK
6
CONTINUOUS
10
148.853
20
-105.561
11
149.016
21
-105.628
0
LINE
8
BLACK
6
CONTINUOUS
10
149.016
20
-105.628
11
149.164
21
-105.727
0
LINE
8
BLACK
6
CONTINUOUS
10
149.164
20
-105.727
11
149.289
21
-105.852
0
LINE
8
BLACK
6
CONTINUOUS
10
149.289
20
-105.852
11
149.388
21
-106
0
LINE
8
BLACK
6
CONTINUOUS
10
149.388
20
-106
11
149.455
21
-106.163
0
LINE
8
BLACK
6
CONTINUOUS
10
149.455
20
-106.163
11
149.49
21
-106.337
0
LINE
8
BLACK
6
CONTINUOUS
10
149.49
20
-106.337
11
149.49
21
-106.515
0
LINE
8
BLACK
6
CONTINUOUS
10
149.49
20
-106.515
11
149.455
21
-106.689
0
LINE
8
BLACK
6
CONTINUOUS
10
149.455
20
-106.689
11
149.388
21
-106.852
0
LINE
8
BLACK
6
CONTINUOUS
10
149.388
20
-106.852
11
149.289
21
-107
0
LINE
8
BLACK
6
CONTINUOUS
10
149.289
20
-107
11
149.164
21
-107.125
0
LINE
8
BLACK
6
CONTINUOUS
10
149.164
20
-107.125
11
149.016
21
-107.224
0
LINE
8
BLACK
6
CONTINUOUS
10
149.016
20
-107.224
11
148.853
21
-107.291
0
LINE
8
BLACK
6
CONTINUOUS
10
148.853
20
-107.291
11
148.679
21
-107.326
0
LINE
8
BLACK
6
CONTINUOUS
10
148.679
20
-107.326
11
148.501
21
-107.326
0
LINE
8
BLACK
6
CONTINUOUS
10
148.501
20
-107.326
11
148.327
21
-107.291
0
LINE
8
BLACK
6
CONTINUOUS
10
148.327
20
-107.291
11
148.164
21
-107.224
0
LINE
8
BLACK
6
CONTINUOUS
10
148.164
20
-107.224
11
148.016
21
-107.125
0
LINE
8
BLACK
6
CONTINUOUS
10
148.016
20
-107.125
11
147.891
21
-107
0
LINE
8
BLACK
6
CONTINUOUS
10
147.891
20
-107
11
147.792
21
-106.852
0
LINE
8
BLACK
6
CONTINUOUS
10
147.792
20
-106.852
11
147.725
21
-106.689
0
LINE
8
BLACK
6
CONTINUOUS
10
147.725
20
-106.689
11
147.69
21
-106.515
0
LINE
8
BLACK
6
CONTINUOUS
10
147.69
20
-106.515
11
147.69
21
-106.337
0
LINE
8
BLACK
6
CONTINUOUS
10
147.69
20
-106.337
11
147.707
21
-106.25
0
LINE
8
BLACK
6
CONTINUOUS
10
147.707
20
-106.25
11
147.492
21
-106.035
0
LINE
8
BLACK
6
CONTINUOUS
10
147.492
20
-106.035
11
147.473
21
-106.019
0
LINE
8
BLACK
6
CONTINUOUS
10
147.473
20
-106.019
11
147.41
21
-105.943
0
LINE
8
BLACK
6
CONTINUOUS
10
147.41
20
-105.943
11
147.364
21
-105.856
0
LINE
8
BLACK
6
CONTINUOUS
10
147.364
20
-105.856
11
147.355
21
-105.828
0
LINE
8
BLACK
6
CONTINUOUS
10
147.355
20
-105.828
11
147.335
21
-105.762
0
LINE
8
BLACK
6
CONTINUOUS
10
147.335
20
-105.762
11
147.326
21
-105.664
0
LINE
8
BLACK
6
CONTINUOUS
10
147.326
20
-105.664
11
147.328
21
-105.639
0
LINE
8
BLACK
6
CONTINUOUS
10
147.328
20
-105.639
11
147.328
21
-103.963
0
LINE
8
BLACK
6
CONTINUOUS
10
147.328
20
-103.963
11
147.158
21
-103.873
0
LINE
8
BLACK
6
CONTINUOUS
10
147.158
20
-103.873
11
146.975
21
-103.723
0
LINE
8
BLACK
6
CONTINUOUS
10
146.975
20
-103.723
11
146.825
21
-103.54
0
LINE
8
BLACK
6
CONTINUOUS
10
146.825
20
-103.54
11
146.714
21
-103.331
0
LINE
8
BLACK
6
CONTINUOUS
10
146.714
20
-103.331
11
146.645
21
-103.105
0
LINE
8
BLACK
6
CONTINUOUS
10
146.645
20
-103.105
11
146.622
21
-102.87
0
LINE
8
BLACK
6
CONTINUOUS
10
146.622
20
-102.87
11
146.645
21
-102.635
0
LINE
8
BLACK
6
CONTINUOUS
10
146.645
20
-102.635
11
146.714
21
-102.409
0
LINE
8
BLACK
6
CONTINUOUS
10
146.714
20
-102.409
11
146.825
21
-102.2
0
LINE
8
BLACK
6
CONTINUOUS
10
146.825
20
-102.2
11
146.975
21
-102.017
0
LINE
8
BLACK
6
CONTINUOUS
10
146.975
20
-102.017
11
147.158
21
-101.867
0
LINE
8
BLACK
6
CONTINUOUS
10
147.158
20
-101.867
11
147.367
21
-101.756
0
LINE
8
BLACK
6
CONTINUOUS
10
147.367
20
-101.756
11
147.593
21
-101.687
0
LINE
8
BLACK
6
CONTINUOUS
10
147.593
20
-101.687
11
147.769
21
-101.67
0
LINE
8
BLACK
6
CONTINUOUS
10
147.769
20
-101.67
11
147.887
21
-101.67
0
LINE
8
BLACK
6
CONTINUOUS
10
147.887
20
-101.67
11
148.063
21
-101.687
0
LINE
8
BLACK
6
CONTINUOUS
10
143.745
20
-101.687
11
143.971
21
-101.756
0
LINE
8
BLACK
6
CONTINUOUS
10
143.971
20
-101.756
11
144.18
21
-101.867
0
LINE
8
BLACK
6
CONTINUOUS
10
144.18
20
-101.867
11
144.363
21
-102.017
0
LINE
8
BLACK
6
CONTINUOUS
10
144.363
20
-102.017
11
144.513
21
-102.2
0
LINE
8
BLACK
6
CONTINUOUS
10
144.513
20
-102.2
11
144.624
21
-102.409
0
LINE
8
BLACK
6
CONTINUOUS
10
144.624
20
-102.409
11
144.693
21
-102.635
0
LINE
8
BLACK
6
CONTINUOUS
10
144.693
20
-102.635
11
144.716
21
-102.87
0
LINE
8
BLACK
6
CONTINUOUS
10
144.716
20
-102.87
11
144.693
21
-103.105
0
LINE
8
BLACK
6
CONTINUOUS
10
144.693
20
-103.105
11
144.624
21
-103.331
0
LINE
8
BLACK
6
CONTINUOUS
10
144.624
20
-103.331
11
144.513
21
-103.54
0
LINE
8
BLACK
6
CONTINUOUS
10
144.513
20
-103.54
11
144.363
21
-103.723
0
LINE
8
BLACK
6
CONTINUOUS
10
144.363
20
-103.723
11
144.18
21
-103.873
0
LINE
8
BLACK
6
CONTINUOUS
10
144.18
20
-103.873
11
144.01
21
-103.963
0
LINE
8
BLACK
6
CONTINUOUS
10
144.01
20
-103.963
11
144.01
21
-105.526
0
LINE
8
BLACK
6
CONTINUOUS
10
144.01
20
-105.526
11
144.107
21
-105.526
0
LINE
8
BLACK
6
CONTINUOUS
10
144.107
20
-105.526
11
144.281
21
-105.561
0
LINE
8
BLACK
6
CONTINUOUS
10
144.281
20
-105.561
11
144.444
21
-105.628
0
LINE
8
BLACK
6
CONTINUOUS
10
144.444
20
-105.628
11
144.592
21
-105.727
0
LINE
8
BLACK
6
CONTINUOUS
10
144.592
20
-105.727
11
144.717
21
-105.852
0
LINE
8
BLACK
6
CONTINUOUS
10
144.717
20
-105.852
11
144.816
21
-106
0
LINE
8
BLACK
6
CONTINUOUS
10
144.816
20
-106
11
144.883
21
-106.163
0
LINE
8
BLACK
6
CONTINUOUS
10
144.883
20
-106.163
11
144.918
21
-106.337
0
LINE
8
BLACK
6
CONTINUOUS
10
144.918
20
-106.337
11
144.918
21
-106.515
0
LINE
8
BLACK
6
CONTINUOUS
10
144.918
20
-106.515
11
144.883
21
-106.689
0
LINE
8
BLACK
6
CONTINUOUS
10
144.883
20
-106.689
11
144.816
21
-106.852
0
LINE
8
BLACK
6
CONTINUOUS
10
144.816
20
-106.852
11
144.717
21
-107
0
LINE
8
BLACK
6
CONTINUOUS
10
144.717
20
-107
11
144.592
21
-107.125
0
LINE
8
BLACK
6
CONTINUOUS
10
144.592
20
-107.125
11
144.444
21
-107.224
0
LINE
8
BLACK
6
CONTINUOUS
10
144.444
20
-107.224
11
144.281
21
-107.291
0
LINE
8
BLACK
6
CONTINUOUS
10
144.281
20
-107.291
11
144.107
21
-107.326
0
LINE
8
BLACK
6
CONTINUOUS
10
144.107
20
-107.326
11
143.929
21
-107.326
0
LINE
8
BLACK
6
CONTINUOUS
10
143.929
20
-107.326
11
143.755
21
-107.291
0
LINE
8
BLACK
6
CONTINUOUS
10
143.755
20
-107.291
11
143.592
21
-107.224
0
LINE
8
BLACK
6
CONTINUOUS
10
143.592
20
-107.224
11
143.444
21
-107.125
0
LINE
8
BLACK
6
CONTINUOUS
10
143.444
20
-107.125
11
143.319
21
-107
0
LINE
8
BLACK
6
CONTINUOUS
10
143.319
20
-107
11
143.22
21
-106.852
0
LINE
8
BLACK
6
CONTINUOUS
10
143.22
20
-106.852
11
143.153
21
-106.689
0
LINE
8
BLACK
6
CONTINUOUS
10
143.153
20
-106.689
11
143.118
21
-106.515
0
LINE
8
BLACK
6
CONTINUOUS
10
143.118
20
-106.515
11
143.118
21
-106.337
0
LINE
8
BLACK
6
CONTINUOUS
10
143.118
20
-106.337
11
143.135
21
-106.25
0
LINE
8
BLACK
6
CONTINUOUS
10
143.135
20
-106.25
11
143.092
21
-106.197
0
LINE
8
BLACK
6
CONTINUOUS
10
143.092
20
-106.197
11
143.046
21
-106.11
0
LINE
8
BLACK
6
CONTINUOUS
10
143.046
20
-106.11
11
143.037
21
-106.082
0
LINE
8
BLACK
6
CONTINUOUS
10
143.037
20
-106.082
11
143.017
21
-106.016
0
LINE
8
BLACK
6
CONTINUOUS
10
143.017
20
-106.016
11
143.008
21
-105.918
0
LINE
8
BLACK
6
CONTINUOUS
10
143.008
20
-105.918
11
143.01
21
-105.893
0
LINE
8
BLACK
6
CONTINUOUS
10
143.01
20
-105.893
11
143.01
21
-103.963
0
LINE
8
BLACK
6
CONTINUOUS
10
143.01
20
-103.963
11
142.84
21
-103.873
0
LINE
8
BLACK
6
CONTINUOUS
10
142.84
20
-103.873
11
142.657
21
-103.723
0
LINE
8
BLACK
6
CONTINUOUS
10
142.657
20
-103.723
11
142.507
21
-103.54
0
LINE
8
BLACK
6
CONTINUOUS
10
142.507
20
-103.54
11
142.396
21
-103.331
0
LINE
8
BLACK
6
CONTINUOUS
10
142.396
20
-103.331
11
142.327
21
-103.105
0
LINE
8
BLACK
6
CONTINUOUS
10
142.327
20
-103.105
11
142.304
21
-102.87
0
LINE
8
BLACK
6
CONTINUOUS
10
142.304
20
-102.87
11
142.327
21
-102.635
0
LINE
8
BLACK
6
CONTINUOUS
10
142.327
20
-102.635
11
142.396
21
-102.409
0
LINE
8
BLACK
6
CONTINUOUS
10
142.396
20
-102.409
11
142.507
21
-102.2
0
LINE
8
BLACK
6
CONTINUOUS
10
142.507
20
-102.2
11
142.657
21
-102.017
0
LINE
8
BLACK
6
CONTINUOUS
10
142.657
20
-102.017
11
142.84
21
-101.867
0
LINE
8
BLACK
6
CONTINUOUS
10
142.84
20
-101.867
11
143.049
21
-101.756
0
LINE
8
BLACK
6
CONTINUOUS
10
143.049
20
-101.756
11
143.275
21
-101.687
0
LINE
8
BLACK
6
CONTINUOUS
10
143.275
20
-101.687
11
143.451
21
-101.67
0
LINE
8
BLACK
6
CONTINUOUS
10
143.451
20
-101.67
11
143.569
21
-101.67
0
LINE
8
BLACK
6
CONTINUOUS
10
143.569
20
-101.67
11
143.745
21
-101.687
0
LINE
8
BLACK
6
CONTINUOUS
10
147.76
20
-93.7316
11
147.785
21
-93.734
0
LINE
8
BLACK
6
CONTINUOUS
10
147.785
20
-93.734
11
147.858
21
-93.7412
0
LINE
8
BLACK
6
CONTINUOUS
10
147.858
20
-93.7412
11
147.952
21
-93.7698
0
LINE
8
BLACK
6
CONTINUOUS
10
147.952
20
-93.7698
11
148.039
21
-93.8163
0
LINE
8
BLACK
6
CONTINUOUS
10
148.039
20
-93.8163
11
148.115
21
-93.8787
0
LINE
8
BLACK
6
CONTINUOUS
10
148.115
20
-93.8787
11
148.131
21
-93.8978
0
LINE
8
BLACK
6
CONTINUOUS
10
148.131
20
-93.8978
11
156.603
21
-102.37
0
LINE
8
BLACK
6
CONTINUOUS
10
156.603
20
-102.37
11
157.396
21
-102.37
0
LINE
8
BLACK
6
CONTINUOUS
10
157.396
20
-102.37
11
157.396
21
-101.77
0
LINE
8
BLACK
6
CONTINUOUS
10
157.396
20
-101.77
11
159.596
21
-101.77
0
LINE
8
BLACK
6
CONTINUOUS
10
159.596
20
-101.77
11
159.596
21
-102.37
0
LINE
8
BLACK
6
CONTINUOUS
10
159.596
20
-102.37
11
161.46
21
-102.37
0
LINE
8
BLACK
6
CONTINUOUS
10
161.46
20
-102.37
11
161.46
21
-101.77
0
LINE
8
BLACK
6
CONTINUOUS
10
161.46
20
-101.77
11
163.66
21
-101.77
0
LINE
8
BLACK
6
CONTINUOUS
10
163.66
20
-101.77
11
163.66
21
-103.97
0
LINE
8
BLACK
6
CONTINUOUS
10
163.66
20
-103.97
11
161.46
21
-103.97
0
LINE
8
BLACK
6
CONTINUOUS
10
161.46
20
-103.97
11
161.46
21
-103.37
0
LINE
8
BLACK
6
CONTINUOUS
10
161.46
20
-103.37
11
159.596
21
-103.37
0
LINE
8
BLACK
6
CONTINUOUS
10
159.596
20
-103.37
11
159.596
21
-103.97
0
LINE
8
BLACK
6
CONTINUOUS
10
159.596
20
-103.97
11
157.396
21
-103.97
0
LINE
8
BLACK
6
CONTINUOUS
10
157.396
20
-103.97
11
157.396
21
-103.37
0
LINE
8
BLACK
6
CONTINUOUS
10
157.396
20
-103.37
11
156.421
21
-103.37
0
LINE
8
BLACK
6
CONTINUOUS
10
156.421
20
-103.37
11
156.396
21
-103.372
0
LINE
8
BLACK
6
CONTINUOUS
10
156.396
20
-103.372
11
156.371
21
-103.37
0
LINE
8
BLACK
6
CONTINUOUS
10
156.371
20
-103.37
11
156.371
21
-103.37
0
LINE
8
BLACK
6
CONTINUOUS
10
156.371
20
-103.37
11
156.298
21
-103.363
0
LINE
8
BLACK
6
CONTINUOUS
10
156.298
20
-103.363
11
156.204
21
-103.334
0
LINE
8
BLACK
6
CONTINUOUS
10
156.204
20
-103.334
11
156.117
21
-103.288
0
LINE
8
BLACK
6
CONTINUOUS
10
156.117
20
-103.288
11
156.041
21
-103.225
0
LINE
8
BLACK
6
CONTINUOUS
10
156.041
20
-103.225
11
156.025
21
-103.206
0
LINE
8
BLACK
6
CONTINUOUS
10
156.025
20
-103.206
11
147.553
21
-94.734
0
LINE
8
BLACK
6
CONTINUOUS
10
147.553
20
-94.734
11
134.704
21
-94.734
0
LINE
8
BLACK
6
CONTINUOUS
10
134.704
20
-94.734
11
134.704
21
-95.334
0
LINE
8
BLACK
6
CONTINUOUS
10
134.704
20
-95.334
11
132.504
21
-95.334
0
LINE
8
BLACK
6
CONTINUOUS
10
132.504
20
-95.334
11
132.504
21
-94.734
0
LINE
8
BLACK
6
CONTINUOUS
10
132.504
20
-94.734
11
129.429
21
-94.734
0
LINE
8
BLACK
6
CONTINUOUS
10
129.429
20
-94.734
11
129.346
21
-94.7894
0
LINE
8
BLACK
6
CONTINUOUS
10
129.346
20
-94.7894
11
129.128
21
-94.8799
0
LINE
8
BLACK
6
CONTINUOUS
10
129.128
20
-94.8799
11
128.896
21
-94.926
0
LINE
8
BLACK
6
CONTINUOUS
10
128.896
20
-94.926
11
128.66
21
-94.926
0
LINE
8
BLACK
6
CONTINUOUS
10
128.66
20
-94.926
11
128.428
21
-94.8799
0
LINE
8
BLACK
6
CONTINUOUS
10
128.428
20
-94.8799
11
128.21
21
-94.7894
0
LINE
8
BLACK
6
CONTINUOUS
10
128.21
20
-94.7894
11
128.127
21
-94.734
0
LINE
8
BLACK
6
CONTINUOUS
10
128.127
20
-94.734
11
125.56
21
-94.734
0
LINE
8
BLACK
6
CONTINUOUS
10
125.56
20
-94.734
11
125.56
21
-95.334
0
LINE
8
BLACK
6
CONTINUOUS
10
125.56
20
-95.334
11
124.96
21
-95.334
0
LINE
8
BLACK
6
CONTINUOUS
10
124.96
20
-95.334
11
124.96
21
-101.067
0
LINE
8
BLACK
6
CONTINUOUS
10
124.96
20
-101.067
11
124.962
21
-101.092
0
LINE
8
BLACK
6
CONTINUOUS
10
124.962
20
-101.092
11
124.96
21
-101.117
0
LINE
8
BLACK
6
CONTINUOUS
10
124.96
20
-101.117
11
124.953
21
-101.19
0
LINE
8
BLACK
6
CONTINUOUS
10
124.953
20
-101.19
11
124.924
21
-101.284
0
LINE
8
BLACK
6
CONTINUOUS
10
124.924
20
-101.284
11
124.878
21
-101.371
0
LINE
8
BLACK
6
CONTINUOUS
10
124.878
20
-101.371
11
124.815
21
-101.447
0
LINE
8
BLACK
6
CONTINUOUS
10
124.815
20
-101.447
11
124.796
21
-101.463
0
LINE
8
BLACK
6
CONTINUOUS
10
124.796
20
-101.463
11
124.544
21
-101.715
0
LINE
8
BLACK
6
CONTINUOUS
10
124.544
20
-101.715
11
124.544
21
-103.208
0
LINE
8
BLACK
6
CONTINUOUS
10
124.544
20
-103.208
11
122.344
21
-103.208
0
LINE
8
BLACK
6
CONTINUOUS
10
122.344
20
-103.208
11
122.344
21
-101.008
0
LINE
8
BLACK
6
CONTINUOUS
10
122.344
20
-101.008
11
123.837
21
-101.008
0
LINE
8
BLACK
6
CONTINUOUS
10
123.837
20
-101.008
11
123.96
21
-100.885
0
LINE
8
BLACK
6
CONTINUOUS
10
123.96
20
-100.885
11
123.96
21
-95.334
0
LINE
8
BLACK
6
CONTINUOUS
10
123.96
20
-95.334
11
123.36
21
-95.334
0
LINE
8
BLACK
6
CONTINUOUS
10
123.36
20
-95.334
11
123.36
21
-94.734
0
LINE
8
BLACK
6
CONTINUOUS
10
123.36
20
-94.734
11
122.567
21
-94.734
0
LINE
8
BLACK
6
CONTINUOUS
10
122.567
20
-94.734
11
120.677
21
-96.6242
0
LINE
8
BLACK
6
CONTINUOUS
10
120.677
20
-96.6242
11
120.661
21
-96.6433
0
LINE
8
BLACK
6
CONTINUOUS
10
120.661
20
-96.6433
11
120.585
21
-96.7057
0
LINE
8
BLACK
6
CONTINUOUS
10
120.585
20
-96.7057
11
120.498
21
-96.7522
0
LINE
8
BLACK
6
CONTINUOUS
10
120.498
20
-96.7522
11
120.404
21
-96.7808
0
LINE
8
BLACK
6
CONTINUOUS
10
120.404
20
-96.7808
11
120.331
21
-96.788
0
LINE
8
BLACK
6
CONTINUOUS
10
120.331
20
-96.788
11
120.306
21
-96.7904
0
LINE
8
BLACK
6
CONTINUOUS
10
120.306
20
-96.7904
11
120.281
21
-96.788
0
LINE
8
BLACK
6
CONTINUOUS
10
120.281
20
-96.788
11
113.935
21
-96.788
0
LINE
8
BLACK
6
CONTINUOUS
10
113.935
20
-96.788
11
113.91
21
-96.7904
0
LINE
8
BLACK
6
CONTINUOUS
10
113.91
20
-96.7904
11
113.885
21
-96.788
0
LINE
8
BLACK
6
CONTINUOUS
10
113.885
20
-96.788
11
113.885
21
-96.788
0
LINE
8
BLACK
6
CONTINUOUS
10
113.885
20
-96.788
11
113.812
21
-96.7808
0
LINE
8
BLACK
6
CONTINUOUS
10
113.812
20
-96.7808
11
113.718
21
-96.7522
0
LINE
8
BLACK
6
CONTINUOUS
10
113.718
20
-96.7522
11
113.631
21
-96.7057
0
LINE
8
BLACK
6
CONTINUOUS
10
113.631
20
-96.7057
11
113.555
21
-96.6433
0
LINE
8
BLACK
6
CONTINUOUS
10
113.555
20
-96.6433
11
113.539
21
-96.6242
0
LINE
8
BLACK
6
CONTINUOUS
10
113.539
20
-96.6242
11
112.796
21
-95.8809
0
LINE
8
BLACK
6
CONTINUOUS
10
112.796
20
-95.8809
11
112.777
21
-95.8653
0
LINE
8
BLACK
6
CONTINUOUS
10
112.777
20
-95.8653
11
112.714
21
-95.7891
0
LINE
8
BLACK
6
CONTINUOUS
10
112.714
20
-95.7891
11
112.668
21
-95.7023
0
LINE
8
BLACK
6
CONTINUOUS
10
112.668
20
-95.7023
11
112.657
21
-95.6677
0
LINE
8
BLACK
6
CONTINUOUS
10
112.657
20
-95.6677
11
112.639
21
-95.608
0
LINE
8
BLACK
6
CONTINUOUS
10
112.639
20
-95.608
11
112.63
21
-95.51
0
LINE
8
BLACK
6
CONTINUOUS
10
112.63
20
-95.51
11
112.632
21
-95.4854
0
LINE
8
BLACK
6
CONTINUOUS
10
112.632
20
-95.4854
11
112.632
21
-62.7701
0
LINE
8
BLACK
6
CONTINUOUS
10
112.632
20
-62.7701
11
112.63
21
-62.7455
0
LINE
8
BLACK
6
CONTINUOUS
10
112.63
20
-62.7455
11
112.639
21
-62.6475
0
LINE
8
BLACK
6
CONTINUOUS
10
112.639
20
-62.6475
11
112.664
21
-62.567
0
LINE
8
BLACK
6
CONTINUOUS
10
112.664
20
-62.567
11
112.668
21
-62.5533
0
LINE
8
BLACK
6
CONTINUOUS
10
112.668
20
-62.5533
11
112.714
21
-62.4664
0
LINE
8
BLACK
6
CONTINUOUS
10
112.714
20
-62.4664
11
112.777
21
-62.3903
0
LINE
8
BLACK
6
CONTINUOUS
10
112.777
20
-62.3903
11
112.796
21
-62.3746
0
LINE
8
BLACK
6
CONTINUOUS
10
112.796
20
-62.3746
11
113.641
21
-61.5297
0
LINE
8
BLACK
6
CONTINUOUS
10
113.641
20
-61.5297
11
113.691
21
-61.4687
0
LINE
8
BLACK
6
CONTINUOUS
10
113.691
20
-61.4687
11
113.767
21
-61.4062
0
LINE
8
BLACK
6
CONTINUOUS
10
113.767
20
-61.4062
11
113.854
21
-61.3598
0
LINE
8
BLACK
6
CONTINUOUS
10
113.854
20
-61.3598
11
113.948
21
-61.3312
0
LINE
8
BLACK
6
CONTINUOUS
10
113.948
20
-61.3312
11
114.021
21
-61.324
0
LINE
8
BLACK
6
CONTINUOUS
10
114.021
20
-61.324
11
114.029
21
-61.324
0
LINE
8
BLACK
6
CONTINUOUS
10
114.029
20
-61.324
11
114.054
21
-61.3216
0
LINE
8
BLACK
6
CONTINUOUS
10
114.054
20
-61.3216
11
114.078
21
-61.324
0
LINE
8
BLACK
6
CONTINUOUS
10
114.078
20
-61.324
11
132.225
21
-61.324
0
LINE
8
BLACK
6
CONTINUOUS
10
132.225
20
-61.324
11
132.25
21
-61.3216
0
LINE
8
BLACK
6
CONTINUOUS
10
132.25
20
-61.3216
11
132.348
21
-61.3312
0
LINE
8
BLACK
6
CONTINUOUS
10
132.348
20
-61.3312
11
132.442
21
-61.3598
0
LINE
8
BLACK
6
CONTINUOUS
10
132.442
20
-61.3598
11
132.529
21
-61.4062
0
LINE
8
BLACK
6
CONTINUOUS
10
132.529
20
-61.4062
11
132.586
21
-61.4531
0
LINE
8
BLACK
6
CONTINUOUS
10
132.586
20
-61.4531
11
134.194
21
-63.0611
0
LINE
8
BLACK
6
CONTINUOUS
10
134.194
20
-63.0611
11
134.213
21
-63.0767
0
LINE
8
BLACK
6
CONTINUOUS
10
134.213
20
-63.0767
11
134.276
21
-63.1529
0
LINE
8
BLACK
6
CONTINUOUS
10
134.276
20
-63.1529
11
134.322
21
-63.2397
0
LINE
8
BLACK
6
CONTINUOUS
10
134.322
20
-63.2397
11
134.338
21
-63.2907
0
LINE
8
BLACK
6
CONTINUOUS
10
134.338
20
-63.2907
11
134.351
21
-63.334
0
LINE
8
BLACK
6
CONTINUOUS
10
134.351
20
-63.334
11
134.36
21
-63.432
0
LINE
8
BLACK
6
CONTINUOUS
10
134.36
20
-63.432
11
134.358
21
-63.4566
0
LINE
8
BLACK
6
CONTINUOUS
10
134.358
20
-63.4566
11
134.358
21
-64.0955
0
LINE
8
BLACK
6
CONTINUOUS
10
134.358
20
-64.0955
11
134.359
21
-64.097
0
LINE
8
BLACK
6
CONTINUOUS
10
134.359
20
-64.097
11
134.415
21
-64.2013
0
LINE
8
BLACK
6
CONTINUOUS
10
134.415
20
-64.2013
11
134.449
21
-64.3144
0
LINE
8
BLACK
6
CONTINUOUS
10
134.449
20
-64.3144
11
134.458
21
-64.4025
0
LINE
8
BLACK
6
CONTINUOUS
10
134.458
20
-64.4025
11
134.458
21
-64.4025
0
LINE
8
BLACK
6
CONTINUOUS
10
134.458
20
-64.4025
11
134.461
21
-64.432
0
LINE
8
BLACK
6
CONTINUOUS
10
134.461
20
-64.432
11
134.461
21
-64.432
0
LINE
8
BLACK
6
CONTINUOUS
10
134.461
20
-64.432
11
134.958
21
-64.432
0
LINE
8
BLACK
6
CONTINUOUS
10
134.958
20
-64.432
11
134.958
21
-66.632
0
LINE
8
BLACK
6
CONTINUOUS
10
134.958
20
-66.632
11
132.758
21
-66.632
0
LINE
8
BLACK
6
CONTINUOUS
10
132.758
20
-66.632
11
132.758
21
-64.432
0
LINE
8
BLACK
6
CONTINUOUS
10
132.758
20
-64.432
11
133.009
21
-64.432
0
LINE
8
BLACK
6
CONTINUOUS
10
133.009
20
-64.432
11
132.809
21
-64.232
0
LINE
8
BLACK
6
CONTINUOUS
10
132.809
20
-64.232
11
124.938
21
-64.232
0
LINE
8
BLACK
6
CONTINUOUS
10
124.938
20
-64.232
11
124.938
21
-67.1616
0
LINE
8
BLACK
6
CONTINUOUS
10
124.938
20
-67.1616
11
126.526
21
-68.75
0
LINE
8
BLACK
6
CONTINUOUS
10
126.526
20
-68.75
11
127.846
21
-68.75
0
LINE
8
BLACK
6
CONTINUOUS
10
127.846
20
-68.75
11
127.846
21
-70.95
0
LINE
8
BLACK
6
CONTINUOUS
10
127.846
20
-70.95
11
125.646
21
-70.95
0
LINE
8
BLACK
6
CONTINUOUS
10
125.646
20
-70.95
11
125.646
21
-69.5666
0
LINE
8
BLACK
6
CONTINUOUS
10
125.646
20
-69.5666
11
123.935
21
-67.8552
0
LINE
8
BLACK
6
CONTINUOUS
10
123.935
20
-67.8552
11
123.912
21
-67.8364
0
LINE
8
BLACK
6
CONTINUOUS
10
123.912
20
-67.8364
11
123.837
21
-67.745
0
LINE
8
BLACK
6
CONTINUOUS
10
123.837
20
-67.745
11
123.781
21
-67.6408
0
LINE
8
BLACK
6
CONTINUOUS
10
123.781
20
-67.6408
11
123.769
21
-67.6013
0
LINE
8
BLACK
6
CONTINUOUS
10
123.769
20
-67.6013
11
123.747
21
-67.5277
0
LINE
8
BLACK
6
CONTINUOUS
10
123.747
20
-67.5277
11
123.735
21
-67.4101
0
LINE
8
BLACK
6
CONTINUOUS
10
123.735
20
-67.4101
11
123.738
21
-67.3806
0
LINE
8
BLACK
6
CONTINUOUS
10
123.738
20
-67.3806
11
123.738
21
-63.8215
0
LINE
8
BLACK
6
CONTINUOUS
10
123.738
20
-63.8215
11
123.735
21
-63.792
0
LINE
8
BLACK
6
CONTINUOUS
10
123.735
20
-63.792
11
123.747
21
-63.6744
0
LINE
8
BLACK
6
CONTINUOUS
10
123.747
20
-63.6744
11
123.758
21
-63.6371
0
LINE
8
BLACK
6
CONTINUOUS
10
123.758
20
-63.6371
11
123.781
21
-63.5613
0
LINE
8
BLACK
6
CONTINUOUS
10
123.781
20
-63.5613
11
123.837
21
-63.457
0
LINE
8
BLACK
6
CONTINUOUS
10
123.837
20
-63.457
11
123.912
21
-63.3657
0
LINE
8
BLACK
6
CONTINUOUS
10
123.912
20
-63.3657
11
123.935
21
-63.3469
0
LINE
8
BLACK
6
CONTINUOUS
10
123.935
20
-63.3469
11
124.053
21
-63.2286
0
LINE
8
BLACK
6
CONTINUOUS
10
124.053
20
-63.2286
11
124.072
21
-63.2057
0
LINE
8
BLACK
6
CONTINUOUS
10
124.072
20
-63.2057
11
124.163
21
-63.1307
0
LINE
8
BLACK
6
CONTINUOUS
10
124.163
20
-63.1307
11
124.267
21
-63.075
0
LINE
8
BLACK
6
CONTINUOUS
10
124.267
20
-63.075
11
124.38
21
-63.0407
0
LINE
8
BLACK
6
CONTINUOUS
10
124.38
20
-63.0407
11
124.498
21
-63.0291
0
LINE
8
BLACK
6
CONTINUOUS
10
124.498
20
-63.0291
11
124.527
21
-63.032
0
LINE
8
BLACK
6
CONTINUOUS
10
124.527
20
-63.032
11
132.751
21
-63.032
0
LINE
8
BLACK
6
CONTINUOUS
10
132.751
20
-63.032
11
132.043
21
-62.324
0
LINE
8
BLACK
6
CONTINUOUS
10
132.043
20
-62.324
11
114.261
21
-62.324
0
LINE
8
BLACK
6
CONTINUOUS
10
114.261
20
-62.324
11
113.632
21
-62.9526
0
LINE
8
BLACK
6
CONTINUOUS
10
113.632
20
-62.9526
11
113.632
21
-95.3029
0
LINE
8
BLACK
6
CONTINUOUS
10
113.632
20
-95.3029
11
114.117
21
-95.788
0
LINE
8
BLACK
6
CONTINUOUS
10
114.117
20
-95.788
11
120.099
21
-95.788
0
LINE
8
BLACK
6
CONTINUOUS
10
120.099
20
-95.788
11
121.989
21
-93.8978
0
LINE
8
BLACK
6
CONTINUOUS
10
121.989
20
-93.8978
11
122.005
21
-93.8787
0
LINE
8
BLACK
6
CONTINUOUS
10
122.005
20
-93.8787
11
122.081
21
-93.8163
0
LINE
8
BLACK
6
CONTINUOUS
10
122.081
20
-93.8163
11
122.168
21
-93.7698
0
LINE
8
BLACK
6
CONTINUOUS
10
122.168
20
-93.7698
11
122.262
21
-93.7412
0
LINE
8
BLACK
6
CONTINUOUS
10
122.262
20
-93.7412
11
122.335
21
-93.734
0
LINE
8
BLACK
6
CONTINUOUS
10
122.335
20
-93.734
11
122.335
21
-93.734
0
LINE
8
BLACK
6
CONTINUOUS
10
122.335
20
-93.734
11
122.36
21
-93.7316
0
LINE
8
BLACK
6
CONTINUOUS
10
122.36
20
-93.7316
11
122.385
21
-93.734
0
LINE
8
BLACK
6
CONTINUOUS
10
122.385
20
-93.734
11
123.36
21
-93.734
0
LINE
8
BLACK
6
CONTINUOUS
10
123.36
20
-93.734
11
123.36
21
-93.134
0
LINE
8
BLACK
6
CONTINUOUS
10
123.36
20
-93.134
11
125.56
21
-93.134
0
LINE
8
BLACK
6
CONTINUOUS
10
125.56
20
-93.134
11
125.56
21
-93.734
0
LINE
8
BLACK
6
CONTINUOUS
10
125.56
20
-93.734
11
127.578
21
-93.734
0
LINE
8
BLACK
6
CONTINUOUS
10
127.578
20
-93.734
11
127.578
21
-93.6078
0
LINE
8
BLACK
6
CONTINUOUS
10
127.578
20
-93.6078
11
127.624
21
-93.376
0
LINE
8
BLACK
6
CONTINUOUS
10
127.624
20
-93.376
11
127.715
21
-93.1576
0
LINE
8
BLACK
6
CONTINUOUS
10
127.715
20
-93.1576
11
127.846
21
-92.961
0
LINE
8
BLACK
6
CONTINUOUS
10
127.846
20
-92.961
11
128.013
21
-92.7939
0
LINE
8
BLACK
6
CONTINUOUS
10
128.013
20
-92.7939
11
128.21
21
-92.6626
0
LINE
8
BLACK
6
CONTINUOUS
10
128.21
20
-92.6626
11
128.428
21
-92.5721
0
LINE
8
BLACK
6
CONTINUOUS
10
128.428
20
-92.5721
11
128.66
21
-92.526
0
LINE
8
BLACK
6
CONTINUOUS
10
128.66
20
-92.526
11
128.896
21
-92.526
0
LINE
8
BLACK
6
CONTINUOUS
10
128.896
20
-92.526
11
129.128
21
-92.5721
0
LINE
8
BLACK
6
CONTINUOUS
10
129.128
20
-92.5721
11
129.346
21
-92.6626
0
LINE
8
BLACK
6
CONTINUOUS
10
129.346
20
-92.6626
11
129.543
21
-92.7939
0
LINE
8
BLACK
6
CONTINUOUS
10
129.543
20
-92.7939
11
129.71
21
-92.961
0
LINE
8
BLACK
6
CONTINUOUS
10
129.71
20
-92.961
11
129.841
21
-93.1576
0
LINE
8
BLACK
6
CONTINUOUS
10
129.841
20
-93.1576
11
129.932
21
-93.376
0
LINE
8
BLACK
6
CONTINUOUS
10
129.932
20
-93.376
11
129.978
21
-93.6078
0
LINE
8
BLACK
6
CONTINUOUS
10
129.978
20
-93.6078
11
129.978
21
-93.734
0
LINE
8
BLACK
6
CONTINUOUS
10
129.978
20
-93.734
11
132.504
21
-93.734
0
LINE
8
BLACK
6
CONTINUOUS
10
132.504
20
-93.734
11
132.504
21
-93.134
0
LINE
8
BLACK
6
CONTINUOUS
10
132.504
20
-93.134
11
134.704
21
-93.134
0
LINE
8
BLACK
6
CONTINUOUS
10
134.704
20
-93.134
11
134.704
21
-93.734
0
LINE
8
BLACK
6
CONTINUOUS
10
134.704
20
-93.734
11
147.735
21
-93.734
0
LINE
8
BLACK
6
CONTINUOUS
10
147.735
20
-93.734
11
147.76
21
-93.7316
0
LINE
8
BLACK
6
CONTINUOUS
10
162.898
20
-81.618
11
162.298
21
-81.618
0
LINE
8
BLACK
6
CONTINUOUS
10
162.298
20
-81.618
11
162.298
21
-83.2538
0
LINE
8
BLACK
6
CONTINUOUS
10
162.298
20
-83.2538
11
164.696
21
-85.652
0
LINE
8
BLACK
6
CONTINUOUS
10
164.696
20
-85.652
11
164.715
21
-85.6677
0
LINE
8
BLACK
6
CONTINUOUS
10
164.715
20
-85.6677
11
164.778
21
-85.7438
0
LINE
8
BLACK
6
CONTINUOUS
10
164.778
20
-85.7438
11
164.824
21
-85.8307
0
LINE
8
BLACK
6
CONTINUOUS
10
164.824
20
-85.8307
11
164.851
21
-85.92
0
LINE
8
BLACK
6
CONTINUOUS
10
164.851
20
-85.92
11
164.853
21
-85.9249
0
LINE
8
BLACK
6
CONTINUOUS
10
164.853
20
-85.9249
11
164.862
21
-86.0229
0
LINE
8
BLACK
6
CONTINUOUS
10
164.862
20
-86.0229
11
164.86
21
-86.0475
0
LINE
8
BLACK
6
CONTINUOUS
10
164.86
20
-86.0475
11
164.86
21
-96.8854
0
LINE
8
BLACK
6
CONTINUOUS
10
164.86
20
-96.8854
11
164.862
21
-96.91
0
LINE
8
BLACK
6
CONTINUOUS
10
164.862
20
-96.91
11
164.86
21
-96.9346
0
LINE
8
BLACK
6
CONTINUOUS
10
164.86
20
-96.9346
11
164.853
21
-97.008
0
LINE
8
BLACK
6
CONTINUOUS
10
164.853
20
-97.008
11
164.824
21
-97.1023
0
LINE
8
BLACK
6
CONTINUOUS
10
164.824
20
-97.1023
11
164.778
21
-97.1891
0
LINE
8
BLACK
6
CONTINUOUS
10
164.778
20
-97.1891
11
164.715
21
-97.2653
0
LINE
8
BLACK
6
CONTINUOUS
10
164.715
20
-97.2653
11
164.696
21
-97.2809
0
LINE
8
BLACK
6
CONTINUOUS
10
164.696
20
-97.2809
11
163.851
21
-98.1262
0
LINE
8
BLACK
6
CONTINUOUS
10
163.851
20
-98.1262
11
163.835
21
-98.1453
0
LINE
8
BLACK
6
CONTINUOUS
10
163.835
20
-98.1453
11
163.759
21
-98.2077
0
LINE
8
BLACK
6
CONTINUOUS
10
163.759
20
-98.2077
11
163.672
21
-98.2542
0
LINE
8
BLACK
6
CONTINUOUS
10
163.672
20
-98.2542
11
163.66
21
-98.2579
0
LINE
8
BLACK
6
CONTINUOUS
10
163.66
20
-98.2579
11
163.66
21
-98.89
0
LINE
8
BLACK
6
CONTINUOUS
10
163.66
20
-98.89
11
161.46
21
-98.89
0
LINE
8
BLACK
6
CONTINUOUS
10
161.46
20
-98.89
11
161.46
21
-98.29
0
LINE
8
BLACK
6
CONTINUOUS
10
161.46
20
-98.29
11
159.596
21
-98.29
0
LINE
8
BLACK
6
CONTINUOUS
10
159.596
20
-98.29
11
159.596
21
-98.89
0
LINE
8
BLACK
6
CONTINUOUS
10
159.596
20
-98.89
11
157.396
21
-98.89
0
LINE
8
BLACK
6
CONTINUOUS
10
157.396
20
-98.89
11
157.396
21
-96.69
0
LINE
8
BLACK
6
CONTINUOUS
10
157.396
20
-96.69
11
159.596
21
-96.69
0
LINE
8
BLACK
6
CONTINUOUS
10
159.596
20
-96.69
11
159.596
21
-97.29
0
LINE
8
BLACK
6
CONTINUOUS
10
159.596
20
-97.29
11
161.46
21
-97.29
0
LINE
8
BLACK
6
CONTINUOUS
10
161.46
20
-97.29
11
161.46
21
-96.69
0
LINE
8
BLACK
6
CONTINUOUS
10
161.46
20
-96.69
11
163.66
21
-96.69
0
LINE
8
BLACK
6
CONTINUOUS
10
163.66
20
-96.69
11
163.66
21
-96.9029
0
LINE
8
BLACK
6
CONTINUOUS
10
163.66
20
-96.9029
11
163.86
21
-96.7029
0
LINE
8
BLACK
6
CONTINUOUS
10
163.86
20
-96.7029
11
163.86
21
-86.23
0
LINE
8
BLACK
6
CONTINUOUS
10
163.86
20
-86.23
11
161.462
21
-83.8319
0
LINE
8
BLACK
6
CONTINUOUS
10
161.462
20
-83.8319
11
161.443
21
-83.8162
0
LINE
8
BLACK
6
CONTINUOUS
10
161.443
20
-83.8162
11
161.38
21
-83.7401
0
LINE
8
BLACK
6
CONTINUOUS
10
161.38
20
-83.7401
11
161.334
21
-83.6532
0
LINE
8
BLACK
6
CONTINUOUS
10
161.334
20
-83.6532
11
161.326
21
-83.6277
0
LINE
8
BLACK
6
CONTINUOUS
10
161.326
20
-83.6277
11
161.305
21
-83.5589
0
LINE
8
BLACK
6
CONTINUOUS
10
161.305
20
-83.5589
11
161.296
21
-83.4609
0
LINE
8
BLACK
6
CONTINUOUS
10
161.296
20
-83.4609
11
161.298
21
-83.4364
0
LINE
8
BLACK
6
CONTINUOUS
10
161.298
20
-83.4364
11
161.298
21
-81.618
0
LINE
8
BLACK
6
CONTINUOUS
10
161.298
20
-81.618
11
160.698
21
-81.618
0
LINE
8
BLACK
6
CONTINUOUS
10
160.698
20
-81.618
11
160.698
21
-79.418
0
LINE
8
BLACK
6
CONTINUOUS
10
160.698
20
-79.418
11
162.898
21
-79.418
0
LINE
8
BLACK
6
CONTINUOUS
10
162.898
20
-79.418
11
162.898
21
-81.618
0
LINE
8
BLACK
6
CONTINUOUS
10
163.66
20
-94.15
11
163.66
21
-96.35
0
LINE
8
BLACK
6
CONTINUOUS
10
163.66
20
-96.35
11
161.46
21
-96.35
0
LINE
8
BLACK
6
CONTINUOUS
10
161.46
20
-96.35
11
161.46
21
-95.75
0
LINE
8
BLACK
6
CONTINUOUS
10
161.46
20
-95.75
11
159.596
21
-95.75
0
LINE
8
BLACK
6
CONTINUOUS
10
159.596
20
-95.75
11
159.596
21
-96.35
0
LINE
8
BLACK
6
CONTINUOUS
10
159.596
20
-96.35
11
157.396
21
-96.35
0
LINE
8
BLACK
6
CONTINUOUS
10
157.396
20
-96.35
11
157.396
21
-94.15
0
LINE
8
BLACK
6
CONTINUOUS
10
157.396
20
-94.15
11
159.596
21
-94.15
0
LINE
8
BLACK
6
CONTINUOUS
10
159.596
20
-94.15
11
159.596
21
-94.75
0
LINE
8
BLACK
6
CONTINUOUS
10
159.596
20
-94.75
11
161.46
21
-94.75
0
LINE
8
BLACK
6
CONTINUOUS
10
161.46
20
-94.75
11
161.46
21
-94.15
0
LINE
8
BLACK
6
CONTINUOUS
10
161.46
20
-94.15
11
162.06
21
-94.15
0
LINE
8
BLACK
6
CONTINUOUS
10
162.06
20
-94.15
11
162.06
21
-93.1254
0
LINE
8
BLACK
6
CONTINUOUS
10
162.06
20
-93.1254
11
162.06
21
-93.1254
0
LINE
8
BLACK
6
CONTINUOUS
10
162.06
20
-93.1254
11
162.06
21
-86.1271
0
LINE
8
BLACK
6
CONTINUOUS
10
162.06
20
-86.1271
11
158.922
21
-82.9889
0
LINE
8
BLACK
6
CONTINUOUS
10
158.922
20
-82.9889
11
158.903
21
-82.9733
0
LINE
8
BLACK
6
CONTINUOUS
10
158.903
20
-82.9733
11
158.84
21
-82.8971
0
LINE
8
BLACK
6
CONTINUOUS
10
158.84
20
-82.8971
11
158.794
21
-82.8103
0
LINE
8
BLACK
6
CONTINUOUS
10
158.794
20
-82.8103
11
158.79
21
-82.7984
0
LINE
8
BLACK
6
CONTINUOUS
10
158.79
20
-82.7984
11
158.765
21
-82.716
0
LINE
8
BLACK
6
CONTINUOUS
10
158.765
20
-82.716
11
158.756
21
-82.618
0
LINE
8
BLACK
6
CONTINUOUS
10
158.756
20
-82.618
11
158.758
21
-82.5934
0
LINE
8
BLACK
6
CONTINUOUS
10
158.758
20
-82.5934
11
158.758
21
-81.618
0
LINE
8
BLACK
6
CONTINUOUS
10
158.758
20
-81.618
11
158.158
21
-81.618
0
LINE
8
BLACK
6
CONTINUOUS
10
158.158
20
-81.618
11
158.158
21
-79.418
0
LINE
8
BLACK
6
CONTINUOUS
10
158.158
20
-79.418
11
160.358
21
-79.418
0
LINE
8
BLACK
6
CONTINUOUS
10
160.358
20
-79.418
11
160.358
21
-81.618
0
LINE
8
BLACK
6
CONTINUOUS
10
160.358
20
-81.618
11
159.758
21
-81.618
0
LINE
8
BLACK
6
CONTINUOUS
10
159.758
20
-81.618
11
159.758
21
-82.4109
0
LINE
8
BLACK
6
CONTINUOUS
10
159.758
20
-82.4109
11
162.896
21
-85.5491
0
LINE
8
BLACK
6
CONTINUOUS
10
162.896
20
-85.5491
11
162.915
21
-85.5647
0
LINE
8
BLACK
6
CONTINUOUS
10
162.915
20
-85.5647
11
162.978
21
-85.6409
0
LINE
8
BLACK
6
CONTINUOUS
10
162.978
20
-85.6409
11
163.024
21
-85.7277
0
LINE
8
BLACK
6
CONTINUOUS
10
163.024
20
-85.7277
11
163.053
21
-85.822
0
LINE
8
BLACK
6
CONTINUOUS
10
163.053
20
-85.822
11
163.058
21
-85.8771
0
LINE
8
BLACK
6
CONTINUOUS
10
163.058
20
-85.8771
11
163.062
21
-85.92
0
LINE
8
BLACK
6
CONTINUOUS
10
163.062
20
-85.92
11
163.06
21
-85.9446
0
LINE
8
BLACK
6
CONTINUOUS
10
163.06
20
-85.9446
11
163.06
21
-94.15
0
LINE
8
BLACK
6
CONTINUOUS
10
163.06
20
-94.15
11
163.66
21
-94.15
0
LINE
8
BLACK
6
CONTINUOUS
10
127.338
20
-81.618
11
126.706
21
-81.618
0
LINE
8
BLACK
6
CONTINUOUS
10
126.706
20
-81.618
11
126.702
21
-81.6303
0
LINE
8
BLACK
6
CONTINUOUS
10
126.702
20
-81.6303
11
126.656
21
-81.7171
0
LINE
8
BLACK
6
CONTINUOUS
10
126.656
20
-81.7171
11
126.593
21
-81.7933
0
LINE
8
BLACK
6
CONTINUOUS
10
126.593
20
-81.7933
11
126.574
21
-81.8089
0
LINE
8
BLACK
6
CONTINUOUS
10
126.574
20
-81.8089
11
120.756
21
-87.6271
0
LINE
8
BLACK
6
CONTINUOUS
10
120.756
20
-87.6271
11
120.756
21
-91.8774
0
LINE
8
BLACK
6
CONTINUOUS
10
120.756
20
-91.8774
11
120.758
21
-91.902
0
LINE
8
BLACK
6
CONTINUOUS
10
120.758
20
-91.902
11
120.756
21
-91.9265
0
LINE
8
BLACK
6
CONTINUOUS
10
120.756
20
-91.9265
11
120.749
21
-92
0
LINE
8
BLACK
6
CONTINUOUS
10
120.749
20
-92
11
120.72
21
-92.0942
0
LINE
8
BLACK
6
CONTINUOUS
10
120.72
20
-92.0942
11
120.674
21
-92.1811
0
LINE
8
BLACK
6
CONTINUOUS
10
120.674
20
-92.1811
11
120.611
21
-92.2572
0
LINE
8
BLACK
6
CONTINUOUS
10
120.611
20
-92.2572
11
120.592
21
-92.2729
0
LINE
8
BLACK
6
CONTINUOUS
10
120.592
20
-92.2729
11
118.041
21
-94.8242
0
LINE
8
BLACK
6
CONTINUOUS
10
118.041
20
-94.8242
11
118.025
21
-94.8433
0
LINE
8
BLACK
6
CONTINUOUS
10
118.025
20
-94.8433
11
117.949
21
-94.9057
0
LINE
8
BLACK
6
CONTINUOUS
10
117.949
20
-94.9057
11
117.862
21
-94.9522
0
LINE
8
BLACK
6
CONTINUOUS
10
117.862
20
-94.9522
11
117.768
21
-94.9808
0
LINE
8
BLACK
6
CONTINUOUS
10
117.768
20
-94.9808
11
117.695
21
-94.988
0
LINE
8
BLACK
6
CONTINUOUS
10
117.695
20
-94.988
11
117.67
21
-94.9904
0
LINE
8
BLACK
6
CONTINUOUS
10
117.67
20
-94.9904
11
117.645
21
-94.988
0
LINE
8
BLACK
6
CONTINUOUS
10
117.645
20
-94.988
11
116.67
21
-94.988
0
LINE
8
BLACK
6
CONTINUOUS
10
116.67
20
-94.988
11
116.67
21
-95.588
0
LINE
8
BLACK
6
CONTINUOUS
10
116.67
20
-95.588
11
114.47
21
-95.588
0
LINE
8
BLACK
6
CONTINUOUS
10
114.47
20
-95.588
11
114.47
21
-93.388
0
LINE
8
BLACK
6
CONTINUOUS
10
114.47
20
-93.388
11
116.67
21
-93.388
0
LINE
8
BLACK
6
CONTINUOUS
10
116.67
20
-93.388
11
116.67
21
-93.988
0
LINE
8
BLACK
6
CONTINUOUS
10
116.67
20
-93.988
11
117.463
21
-93.988
0
LINE
8
BLACK
6
CONTINUOUS
10
117.463
20
-93.988
11
119.756
21
-91.6949
0
LINE
8
BLACK
6
CONTINUOUS
10
119.756
20
-91.6949
11
119.756
21
-87.4445
0
LINE
8
BLACK
6
CONTINUOUS
10
119.756
20
-87.4445
11
119.754
21
-87.42
0
LINE
8
BLACK
6
CONTINUOUS
10
119.754
20
-87.42
11
119.763
21
-87.322
0
LINE
8
BLACK
6
CONTINUOUS
10
119.763
20
-87.322
11
119.783
21
-87.2583
0
LINE
8
BLACK
6
CONTINUOUS
10
119.783
20
-87.2583
11
119.792
21
-87.2277
0
LINE
8
BLACK
6
CONTINUOUS
10
119.792
20
-87.2277
11
119.838
21
-87.1409
0
LINE
8
BLACK
6
CONTINUOUS
10
119.838
20
-87.1409
11
119.901
21
-87.0647
0
LINE
8
BLACK
6
CONTINUOUS
10
119.901
20
-87.0647
11
119.92
21
-87.0491
0
LINE
8
BLACK
6
CONTINUOUS
10
119.92
20
-87.0491
11
125.351
21
-81.618
0
LINE
8
BLACK
6
CONTINUOUS
10
125.351
20
-81.618
11
125.138
21
-81.618
0
LINE
8
BLACK
6
CONTINUOUS
10
125.138
20
-81.618
11
125.138
21
-79.418
0
LINE
8
BLACK
6
CONTINUOUS
10
125.138
20
-79.418
11
127.338
21
-79.418
0
LINE
8
BLACK
6
CONTINUOUS
10
127.338
20
-79.418
11
127.338
21
-81.618
0
LINE
8
BLACK
6
CONTINUOUS
10
159.596
20
-93.81
11
157.396
21
-93.81
0
LINE
8
BLACK
6
CONTINUOUS
10
157.396
20
-93.81
11
157.396
21
-91.61
0
LINE
8
BLACK
6
CONTINUOUS
10
157.396
20
-91.61
11
159.596
21
-91.61
0
LINE
8
BLACK
6
CONTINUOUS
10
159.596
20
-91.61
11
159.596
21
-93.81
0
LINE
8
BLACK
6
CONTINUOUS
10
124.798
20
-81.618
11
124.166
21
-81.618
0
LINE
8
BLACK
6
CONTINUOUS
10
124.166
20
-81.618
11
124.162
21
-81.6303
0
LINE
8
BLACK
6
CONTINUOUS
10
124.162
20
-81.6303
11
124.116
21
-81.7171
0
LINE
8
BLACK
6
CONTINUOUS
10
124.116
20
-81.7171
11
124.053
21
-81.7933
0
LINE
8
BLACK
6
CONTINUOUS
10
124.053
20
-81.7933
11
124.034
21
-81.8089
0
LINE
8
BLACK
6
CONTINUOUS
10
124.034
20
-81.8089
11
119.556
21
-86.2871
0
LINE
8
BLACK
6
CONTINUOUS
10
119.556
20
-86.2871
11
119.556
21
-90.5374
0
LINE
8
BLACK
6
CONTINUOUS
10
119.556
20
-90.5374
11
119.558
21
-90.562
0
LINE
8
BLACK
6
CONTINUOUS
10
119.558
20
-90.562
11
119.556
21
-90.5865
0
LINE
8
BLACK
6
CONTINUOUS
10
119.556
20
-90.5865
11
119.556
21
-90.5866
0
LINE
8
BLACK
6
CONTINUOUS
10
119.556
20
-90.5866
11
119.549
21
-90.66
0
LINE
8
BLACK
6
CONTINUOUS
10
119.549
20
-90.66
11
119.52
21
-90.7543
0
LINE
8
BLACK
6
CONTINUOUS
10
119.52
20
-90.7543
11
119.474
21
-90.8411
0
LINE
8
BLACK
6
CONTINUOUS
10
119.474
20
-90.8411
11
119.411
21
-90.9173
0
LINE
8
BLACK
6
CONTINUOUS
10
119.411
20
-90.9173
11
119.392
21
-90.9329
0
LINE
8
BLACK
6
CONTINUOUS
10
119.392
20
-90.9329
11
118.041
21
-92.2842
0
LINE
8
BLACK
6
CONTINUOUS
10
118.041
20
-92.2842
11
118.025
21
-92.3033
0
LINE
8
BLACK
6
CONTINUOUS
10
118.025
20
-92.3033
11
117.949
21
-92.3657
0
LINE
8
BLACK
6
CONTINUOUS
10
117.949
20
-92.3657
11
117.862
21
-92.4122
0
LINE
8
BLACK
6
CONTINUOUS
10
117.862
20
-92.4122
11
117.768
21
-92.4408
0
LINE
8
BLACK
6
CONTINUOUS
10
117.768
20
-92.4408
11
117.695
21
-92.448
0
LINE
8
BLACK
6
CONTINUOUS
10
117.695
20
-92.448
11
117.67
21
-92.4504
0
LINE
8
BLACK
6
CONTINUOUS
10
117.67
20
-92.4504
11
117.645
21
-92.448
0
LINE
8
BLACK
6
CONTINUOUS
10
117.645
20
-92.448
11
116.67
21
-92.448
0
LINE
8
BLACK
6
CONTINUOUS
10
116.67
20
-92.448
11
116.67
21
-93.048
0
LINE
8
BLACK
6
CONTINUOUS
10
116.67
20
-93.048
11
114.47
21
-93.048
0
LINE
8
BLACK
6
CONTINUOUS
10
114.47
20
-93.048
11
114.47
21
-90.848
0
LINE
8
BLACK
6
CONTINUOUS
10
114.47
20
-90.848
11
116.67
21
-90.848
0
LINE
8
BLACK
6
CONTINUOUS
10
116.67
20
-90.848
11
116.67
21
-91.448
0
LINE
8
BLACK
6
CONTINUOUS
10
116.67
20
-91.448
11
117.463
21
-91.448
0
LINE
8
BLACK
6
CONTINUOUS
10
117.463
20
-91.448
11
118.556
21
-90.3549
0
LINE
8
BLACK
6
CONTINUOUS
10
118.556
20
-90.3549
11
118.556
21
-86.1046
0
LINE
8
BLACK
6
CONTINUOUS
10
118.556
20
-86.1046
11
118.554
21
-86.08
0
LINE
8
BLACK
6
CONTINUOUS
10
118.554
20
-86.08
11
118.563
21
-85.982
0
LINE
8
BLACK
6
CONTINUOUS
10
118.563
20
-85.982
11
118.577
21
-85.9372
0
LINE
8
BLACK
6
CONTINUOUS
10
118.577
20
-85.9372
11
118.592
21
-85.8877
0
LINE
8
BLACK
6
CONTINUOUS
10
118.592
20
-85.8877
11
118.638
21
-85.8009
0
LINE
8
BLACK
6
CONTINUOUS
10
118.638
20
-85.8009
11
118.701
21
-85.7247
0
LINE
8
BLACK
6
CONTINUOUS
10
118.701
20
-85.7247
11
118.72
21
-85.7091
0
LINE
8
BLACK
6
CONTINUOUS
10
118.72
20
-85.7091
11
122.811
21
-81.618
0
LINE
8
BLACK
6
CONTINUOUS
10
122.811
20
-81.618
11
122.598
21
-81.618
0
LINE
8
BLACK
6
CONTINUOUS
10
122.598
20
-81.618
11
122.598
21
-79.418
0
LINE
8
BLACK
6
CONTINUOUS
10
122.598
20
-79.418
11
124.798
21
-79.418
0
LINE
8
BLACK
6
CONTINUOUS
10
124.798
20
-79.418
11
124.798
21
-81.618
0
LINE
8
BLACK
6
CONTINUOUS
10
142.578
20
-81.618
11
141.978
21
-81.618
0
LINE
8
BLACK
6
CONTINUOUS
10
141.978
20
-81.618
11
141.978
21
-82.5935
0
LINE
8
BLACK
6
CONTINUOUS
10
141.978
20
-82.5935
11
141.98
21
-82.618
0
LINE
8
BLACK
6
CONTINUOUS
10
141.98
20
-82.618
11
141.978
21
-82.6426
0
LINE
8
BLACK
6
CONTINUOUS
10
141.978
20
-82.6426
11
141.978
21
-82.6426
0
LINE
8
BLACK
6
CONTINUOUS
10
141.978
20
-82.6426
11
141.971
21
-82.716
0
LINE
8
BLACK
6
CONTINUOUS
10
141.971
20
-82.716
11
141.942
21
-82.8103
0
LINE
8
BLACK
6
CONTINUOUS
10
141.942
20
-82.8103
11
141.896
21
-82.8971
0
LINE
8
BLACK
6
CONTINUOUS
10
141.896
20
-82.8971
11
141.833
21
-82.9733
0
LINE
8
BLACK
6
CONTINUOUS
10
141.833
20
-82.9733
11
141.814
21
-82.9889
0
LINE
8
BLACK
6
CONTINUOUS
10
141.814
20
-82.9889
11
137.792
21
-87.0111
0
LINE
8
BLACK
6
CONTINUOUS
10
137.792
20
-87.0111
11
137.792
21
-90.5214
0
LINE
8
BLACK
6
CONTINUOUS
10
137.792
20
-90.5214
11
137.794
21
-90.546
0
LINE
8
BLACK
6
CONTINUOUS
10
137.794
20
-90.546
11
137.792
21
-90.5706
0
LINE
8
BLACK
6
CONTINUOUS
10
137.792
20
-90.5706
11
137.785
21
-90.644
0
LINE
8
BLACK
6
CONTINUOUS
10
137.785
20
-90.644
11
137.756
21
-90.7383
0
LINE
8
BLACK
6
CONTINUOUS
10
137.756
20
-90.7383
11
137.71
21
-90.8251
0
LINE
8
BLACK
6
CONTINUOUS
10
137.71
20
-90.8251
11
137.647
21
-90.9013
0
LINE
8
BLACK
6
CONTINUOUS
10
137.647
20
-90.9013
11
137.628
21
-90.9169
0
LINE
8
BLACK
6
CONTINUOUS
10
137.628
20
-90.9169
11
136.515
21
-92.0302
0
LINE
8
BLACK
6
CONTINUOUS
10
136.515
20
-92.0302
11
136.499
21
-92.0493
0
LINE
8
BLACK
6
CONTINUOUS
10
136.499
20
-92.0493
11
136.423
21
-92.1117
0
LINE
8
BLACK
6
CONTINUOUS
10
136.423
20
-92.1117
11
136.336
21
-92.1582
0
LINE
8
BLACK
6
CONTINUOUS
10
136.336
20
-92.1582
11
136.242
21
-92.1868
0
LINE
8
BLACK
6
CONTINUOUS
10
136.242
20
-92.1868
11
136.169
21
-92.194
0
LINE
8
BLACK
6
CONTINUOUS
10
136.169
20
-92.194
11
136.144
21
-92.1964
0
LINE
8
BLACK
6
CONTINUOUS
10
136.144
20
-92.1964
11
136.119
21
-92.194
0
LINE
8
BLACK
6
CONTINUOUS
10
136.119
20
-92.194
11
134.704
21
-92.194
0
LINE
8
BLACK
6
CONTINUOUS
10
134.704
20
-92.194
11
134.704
21
-92.794
0
LINE
8
BLACK
6
CONTINUOUS
10
134.704
20
-92.794
11
132.504
21
-92.794
0
LINE
8
BLACK
6
CONTINUOUS
10
132.504
20
-92.794
11
132.504
21
-90.594
0
LINE
8
BLACK
6
CONTINUOUS
10
132.504
20
-90.594
11
134.704
21
-90.594
0
LINE
8
BLACK
6
CONTINUOUS
10
134.704
20
-90.594
11
134.704
21
-91.194
0
LINE
8
BLACK
6
CONTINUOUS
10
134.704
20
-91.194
11
135.937
21
-91.194
0
LINE
8
BLACK
6
CONTINUOUS
10
135.937
20
-91.194
11
136.792
21
-90.3389
0
LINE
8
BLACK
6
CONTINUOUS
10
136.792
20
-90.3389
11
136.792
21
-86.8286
0
LINE
8
BLACK
6
CONTINUOUS
10
136.792
20
-86.8286
11
136.79
21
-86.804
0
LINE
8
BLACK
6
CONTINUOUS
10
136.79
20
-86.804
11
136.799
21
-86.706
0
LINE
8
BLACK
6
CONTINUOUS
10
136.799
20
-86.706
11
136.825
21
-86.6223
0
LINE
8
BLACK
6
CONTINUOUS
10
136.825
20
-86.6223
11
136.828
21
-86.6117
0
LINE
8
BLACK
6
CONTINUOUS
10
136.828
20
-86.6117
11
136.874
21
-86.5249
0
LINE
8
BLACK
6
CONTINUOUS
10
136.874
20
-86.5249
11
136.937
21
-86.4487
0
LINE
8
BLACK
6
CONTINUOUS
10
136.937
20
-86.4487
11
136.956
21
-86.4331
0
LINE
8
BLACK
6
CONTINUOUS
10
136.956
20
-86.4331
11
140.978
21
-82.4109
0
LINE
8
BLACK
6
CONTINUOUS
10
140.978
20
-82.4109
11
140.978
21
-81.618
0
LINE
8
BLACK
6
CONTINUOUS
10
140.978
20
-81.618
11
140.378
21
-81.618
0
LINE
8
BLACK
6
CONTINUOUS
10
140.378
20
-81.618
11
140.378
21
-79.418
0
LINE
8
BLACK
6
CONTINUOUS
10
140.378
20
-79.418
11
142.578
21
-79.418
0
LINE
8
BLACK
6
CONTINUOUS
10
142.578
20
-79.418
11
142.578
21
-81.618
0
LINE
8
BLACK
6
CONTINUOUS
10
134.958
20
-81.618
11
134.358
21
-81.618
0
LINE
8
BLACK
6
CONTINUOUS
10
134.358
20
-81.618
11
134.358
21
-82.5254
0
LINE
8
BLACK
6
CONTINUOUS
10
134.358
20
-82.5254
11
134.36
21
-82.55
0
LINE
8
BLACK
6
CONTINUOUS
10
134.36
20
-82.55
11
134.358
21
-82.5746
0
LINE
8
BLACK
6
CONTINUOUS
10
134.358
20
-82.5746
11
134.358
21
-82.5746
0
LINE
8
BLACK
6
CONTINUOUS
10
134.358
20
-82.5746
11
134.351
21
-82.648
0
LINE
8
BLACK
6
CONTINUOUS
10
134.351
20
-82.648
11
134.322
21
-82.7423
0
LINE
8
BLACK
6
CONTINUOUS
10
134.322
20
-82.7423
11
134.276
21
-82.8291
0
LINE
8
BLACK
6
CONTINUOUS
10
134.276
20
-82.8291
11
134.213
21
-82.9053
0
LINE
8
BLACK
6
CONTINUOUS
10
134.213
20
-82.9053
11
134.194
21
-82.9209
0
LINE
8
BLACK
6
CONTINUOUS
10
134.194
20
-82.9209
11
126.76
21
-90.3551
0
LINE
8
BLACK
6
CONTINUOUS
10
126.76
20
-90.3551
11
126.76
21
-90.7894
0
LINE
8
BLACK
6
CONTINUOUS
10
126.76
20
-90.7894
11
126.762
21
-90.814
0
LINE
8
BLACK
6
CONTINUOUS
10
126.762
20
-90.814
11
126.76
21
-90.8386
0
LINE
8
BLACK
6
CONTINUOUS
10
126.76
20
-90.8386
11
126.753
21
-90.912
0
LINE
8
BLACK
6
CONTINUOUS
10
126.753
20
-90.912
11
126.724
21
-91.0063
0
LINE
8
BLACK
6
CONTINUOUS
10
126.724
20
-91.0063
11
126.678
21
-91.0931
0
LINE
8
BLACK
6
CONTINUOUS
10
126.678
20
-91.0931
11
126.615
21
-91.1693
0
LINE
8
BLACK
6
CONTINUOUS
10
126.615
20
-91.1693
11
126.596
21
-91.1849
0
LINE
8
BLACK
6
CONTINUOUS
10
126.596
20
-91.1849
11
125.751
21
-92.0302
0
LINE
8
BLACK
6
CONTINUOUS
10
125.751
20
-92.0302
11
125.735
21
-92.0493
0
LINE
8
BLACK
6
CONTINUOUS
10
125.735
20
-92.0493
11
125.659
21
-92.1117
0
LINE
8
BLACK
6
CONTINUOUS
10
125.659
20
-92.1117
11
125.572
21
-92.1582
0
LINE
8
BLACK
6
CONTINUOUS
10
125.572
20
-92.1582
11
125.56
21
-92.1619
0
LINE
8
BLACK
6
CONTINUOUS
10
125.56
20
-92.1619
11
125.56
21
-92.794
0
LINE
8
BLACK
6
CONTINUOUS
10
125.56
20
-92.794
11
123.36
21
-92.794
0
LINE
8
BLACK
6
CONTINUOUS
10
123.36
20
-92.794
11
123.36
21
-90.594
0
LINE
8
BLACK
6
CONTINUOUS
10
123.36
20
-90.594
11
125.56
21
-90.594
0
LINE
8
BLACK
6
CONTINUOUS
10
125.56
20
-90.594
11
125.56
21
-90.8069
0
LINE
8
BLACK
6
CONTINUOUS
10
125.56
20
-90.8069
11
125.76
21
-90.6069
0
LINE
8
BLACK
6
CONTINUOUS
10
125.76
20
-90.6069
11
125.76
21
-90.1726
0
LINE
8
BLACK
6
CONTINUOUS
10
125.76
20
-90.1726
11
125.758
21
-90.148
0
LINE
8
BLACK
6
CONTINUOUS
10
125.758
20
-90.148
11
125.767
21
-90.05
0
LINE
8
BLACK
6
CONTINUOUS
10
125.767
20
-90.05
11
125.776
21
-90.0214
0
LINE
8
BLACK
6
CONTINUOUS
10
125.776
20
-90.0214
11
125.796
21
-89.9557
0
LINE
8
BLACK
6
CONTINUOUS
10
125.796
20
-89.9557
11
125.842
21
-89.8689
0
LINE
8
BLACK
6
CONTINUOUS
10
125.842
20
-89.8689
11
125.905
21
-89.7927
0
LINE
8
BLACK
6
CONTINUOUS
10
125.905
20
-89.7927
11
125.924
21
-89.7771
0
LINE
8
BLACK
6
CONTINUOUS
10
125.924
20
-89.7771
11
133.358
21
-82.3429
0
LINE
8
BLACK
6
CONTINUOUS
10
133.358
20
-82.3429
11
133.358
21
-81.618
0
LINE
8
BLACK
6
CONTINUOUS
10
133.358
20
-81.618
11
132.758
21
-81.618
0
LINE
8
BLACK
6
CONTINUOUS
10
132.758
20
-81.618
11
132.758
21
-79.418
0
LINE
8
BLACK
6
CONTINUOUS
10
132.758
20
-79.418
11
134.958
21
-79.418
0
LINE
8
BLACK
6
CONTINUOUS
10
134.958
20
-79.418
11
134.958
21
-81.618
0
LINE
8
BLACK
6
CONTINUOUS
10
159.596
20
-91.27
11
157.396
21
-91.27
0
LINE
8
BLACK
6
CONTINUOUS
10
157.396
20
-91.27
11
157.396
21
-89.07
0
LINE
8
BLACK
6
CONTINUOUS
10
157.396
20
-89.07
11
159.596
21
-89.07
0
LINE
8
BLACK
6
CONTINUOUS
10
159.596
20
-89.07
11
159.596
21
-91.27
0
LINE
8
BLACK
6
CONTINUOUS
10
122.258
20
-81.618
11
121.626
21
-81.618
0
LINE
8
BLACK
6
CONTINUOUS
10
121.626
20
-81.618
11
121.622
21
-81.6303
0
LINE
8
BLACK
6
CONTINUOUS
10
121.622
20
-81.6303
11
121.576
21
-81.7171
0
LINE
8
BLACK
6
CONTINUOUS
10
121.576
20
-81.7171
11
121.513
21
-81.7933
0
LINE
8
BLACK
6
CONTINUOUS
10
121.513
20
-81.7933
11
121.494
21
-81.8089
0
LINE
8
BLACK
6
CONTINUOUS
10
121.494
20
-81.8089
11
118.356
21
-84.9471
0
LINE
8
BLACK
6
CONTINUOUS
10
118.356
20
-84.9471
11
118.356
21
-89.1974
0
LINE
8
BLACK
6
CONTINUOUS
10
118.356
20
-89.1974
11
118.358
21
-89.222
0
LINE
8
BLACK
6
CONTINUOUS
10
118.358
20
-89.222
11
118.356
21
-89.2466
0
LINE
8
BLACK
6
CONTINUOUS
10
118.356
20
-89.2466
11
118.349
21
-89.32
0
LINE
8
BLACK
6
CONTINUOUS
10
118.349
20
-89.32
11
118.32
21
-89.4143
0
LINE
8
BLACK
6
CONTINUOUS
10
118.32
20
-89.4143
11
118.274
21
-89.5011
0
LINE
8
BLACK
6
CONTINUOUS
10
118.274
20
-89.5011
11
118.211
21
-89.5773
0
LINE
8
BLACK
6
CONTINUOUS
10
118.211
20
-89.5773
11
118.192
21
-89.5929
0
LINE
8
BLACK
6
CONTINUOUS
10
118.192
20
-89.5929
11
118.041
21
-89.7442
0
LINE
8
BLACK
6
CONTINUOUS
10
118.041
20
-89.7442
11
118.025
21
-89.7633
0
LINE
8
BLACK
6
CONTINUOUS
10
118.025
20
-89.7633
11
117.949
21
-89.8257
0
LINE
8
BLACK
6
CONTINUOUS
10
117.949
20
-89.8257
11
117.862
21
-89.8722
0
LINE
8
BLACK
6
CONTINUOUS
10
117.862
20
-89.8722
11
117.768
21
-89.9008
0
LINE
8
BLACK
6
CONTINUOUS
10
117.768
20
-89.9008
11
117.695
21
-89.908
0
LINE
8
BLACK
6
CONTINUOUS
10
117.695
20
-89.908
11
117.67
21
-89.9104
0
LINE
8
BLACK
6
CONTINUOUS
10
117.67
20
-89.9104
11
117.645
21
-89.908
0
LINE
8
BLACK
6
CONTINUOUS
10
117.645
20
-89.908
11
116.67
21
-89.908
0
LINE
8
BLACK
6
CONTINUOUS
10
116.67
20
-89.908
11
116.67
21
-90.508
0
LINE
8
BLACK
6
CONTINUOUS
10
116.67
20
-90.508
11
114.47
21
-90.508
0
LINE
8
BLACK
6
CONTINUOUS
10
114.47
20
-90.508
11
114.47
21
-88.308
0
LINE
8
BLACK
6
CONTINUOUS
10
114.47
20
-88.308
11
116.67
21
-88.308
0
LINE
8
BLACK
6
CONTINUOUS
10
116.67
20
-88.308
11
116.67
21
-88.908
0
LINE
8
BLACK
6
CONTINUOUS
10
116.67
20
-88.908
11
117.356
21
-88.908
0
LINE
8
BLACK
6
CONTINUOUS
10
117.356
20
-88.908
11
117.356
21
-84.7646
0
LINE
8
BLACK
6
CONTINUOUS
10
117.356
20
-84.7646
11
117.354
21
-84.74
0
LINE
8
BLACK
6
CONTINUOUS
10
117.354
20
-84.74
11
117.363
21
-84.642
0
LINE
8
BLACK
6
CONTINUOUS
10
117.363
20
-84.642
11
117.381
21
-84.584
0
LINE
8
BLACK
6
CONTINUOUS
10
117.381
20
-84.584
11
117.392
21
-84.5477
0
LINE
8
BLACK
6
CONTINUOUS
10
117.392
20
-84.5477
11
117.438
21
-84.4609
0
LINE
8
BLACK
6
CONTINUOUS
10
117.438
20
-84.4609
11
117.501
21
-84.3847
0
LINE
8
BLACK
6
CONTINUOUS
10
117.501
20
-84.3847
11
117.52
21
-84.3691
0
LINE
8
BLACK
6
CONTINUOUS
10
117.52
20
-84.3691
11
120.271
21
-81.618
0
LINE
8
BLACK
6
CONTINUOUS
10
120.271
20
-81.618
11
120.058
21
-81.618
0
LINE
8
BLACK
6
CONTINUOUS
10
120.058
20
-81.618
11
120.058
21
-79.418
0
LINE
8
BLACK
6
CONTINUOUS
10
120.058
20
-79.418
11
122.258
21
-79.418
0
LINE
8
BLACK
6
CONTINUOUS
10
122.258
20
-79.418
11
122.258
21
-81.618
0
LINE
8
BLACK
6
CONTINUOUS
10
132.418
20
-81.618
11
131.818
21
-81.618
0
LINE
8
BLACK
6
CONTINUOUS
10
131.818
20
-81.618
11
131.818
21
-82.5934
0
LINE
8
BLACK
6
CONTINUOUS
10
131.818
20
-82.5934
11
131.82
21
-82.618
0
LINE
8
BLACK
6
CONTINUOUS
10
131.82
20
-82.618
11
131.818
21
-82.6426
0
LINE
8
BLACK
6
CONTINUOUS
10
131.818
20
-82.6426
11
131.811
21
-82.716
0
LINE
8
BLACK
6
CONTINUOUS
10
131.811
20
-82.716
11
131.782
21
-82.8103
0
LINE
8
BLACK
6
CONTINUOUS
10
131.782
20
-82.8103
11
131.736
21
-82.8971
0
LINE
8
BLACK
6
CONTINUOUS
10
131.736
20
-82.8971
11
131.673
21
-82.9733
0
LINE
8
BLACK
6
CONTINUOUS
10
131.673
20
-82.9733
11
131.654
21
-82.9889
0
LINE
8
BLACK
6
CONTINUOUS
10
131.654
20
-82.9889
11
126.76
21
-87.8831
0
LINE
8
BLACK
6
CONTINUOUS
10
126.76
20
-87.8831
11
126.76
21
-88.2494
0
LINE
8
BLACK
6
CONTINUOUS
10
126.76
20
-88.2494
11
126.762
21
-88.274
0
LINE
8
BLACK
6
CONTINUOUS
10
126.762
20
-88.274
11
126.76
21
-88.2986
0
LINE
8
BLACK
6
CONTINUOUS
10
126.76
20
-88.2986
11
126.753
21
-88.372
0
LINE
8
BLACK
6
CONTINUOUS
10
126.753
20
-88.372
11
126.724
21
-88.4663
0
LINE
8
BLACK
6
CONTINUOUS
10
126.724
20
-88.4663
11
126.678
21
-88.5531
0
LINE
8
BLACK
6
CONTINUOUS
10
126.678
20
-88.5531
11
126.615
21
-88.6293
0
LINE
8
BLACK
6
CONTINUOUS
10
126.615
20
-88.6293
11
126.596
21
-88.6449
0
LINE
8
BLACK
6
CONTINUOUS
10
126.596
20
-88.6449
11
125.751
21
-89.4902
0
LINE
8
BLACK
6
CONTINUOUS
10
125.751
20
-89.4902
11
125.735
21
-89.5093
0
LINE
8
BLACK
6
CONTINUOUS
10
125.735
20
-89.5093
11
125.659
21
-89.5717
0
LINE
8
BLACK
6
CONTINUOUS
10
125.659
20
-89.5717
11
125.572
21
-89.6182
0
LINE
8
BLACK
6
CONTINUOUS
10
125.572
20
-89.6182
11
125.56
21
-89.6219
0
LINE
8
BLACK
6
CONTINUOUS
10
125.56
20
-89.6219
11
125.56
21
-90.254
0
LINE
8
BLACK
6
CONTINUOUS
10
125.56
20
-90.254
11
123.36
21
-90.254
0
LINE
8
BLACK
6
CONTINUOUS
10
123.36
20
-90.254
11
123.36
21
-88.054
0
LINE
8
BLACK
6
CONTINUOUS
10
123.36
20
-88.054
11
125.56
21
-88.054
0
LINE
8
BLACK
6
CONTINUOUS
10
125.56
20
-88.054
11
125.56
21
-88.2669
0
LINE
8
BLACK
6
CONTINUOUS
10
125.56
20
-88.2669
11
125.76
21
-88.0669
0
LINE
8
BLACK
6
CONTINUOUS
10
125.76
20
-88.0669
11
125.76
21
-87.7006
0
LINE
8
BLACK
6
CONTINUOUS
10
125.76
20
-87.7006
11
125.758
21
-87.676
0
LINE
8
BLACK
6
CONTINUOUS
10
125.758
20
-87.676
11
125.767
21
-87.578
0
LINE
8
BLACK
6
CONTINUOUS
10
125.767
20
-87.578
11
125.787
21
-87.5118
0
LINE
8
BLACK
6
CONTINUOUS
10
125.787
20
-87.5118
11
125.796
21
-87.4837
0
LINE
8
BLACK
6
CONTINUOUS
10
125.796
20
-87.4837
11
125.842
21
-87.3969
0
LINE
8
BLACK
6
CONTINUOUS
10
125.842
20
-87.3969
11
125.905
21
-87.3207
0
LINE
8
BLACK
6
CONTINUOUS
10
125.905
20
-87.3207
11
125.924
21
-87.3051
0
LINE
8
BLACK
6
CONTINUOUS
10
125.924
20
-87.3051
11
130.818
21
-82.4109
0
LINE
8
BLACK
6
CONTINUOUS
10
130.818
20
-82.4109
11
130.818
21
-81.618
0
LINE
8
BLACK
6
CONTINUOUS
10
130.818
20
-81.618
11
130.218
21
-81.618
0
LINE
8
BLACK
6
CONTINUOUS
10
130.218
20
-81.618
11
130.218
21
-79.418
0
LINE
8
BLACK
6
CONTINUOUS
10
130.218
20
-79.418
11
132.418
21
-79.418
0
LINE
8
BLACK
6
CONTINUOUS
10
132.418
20
-79.418
11
132.418
21
-81.618
0
LINE
8
BLACK
6
CONTINUOUS
10
140.038
20
-81.618
11
139.438
21
-81.618
0
LINE
8
BLACK
6
CONTINUOUS
10
139.438
20
-81.618
11
139.438
21
-83.4364
0
LINE
8
BLACK
6
CONTINUOUS
10
139.438
20
-83.4364
11
139.44
21
-83.4609
0
LINE
8
BLACK
6
CONTINUOUS
10
139.44
20
-83.4609
11
139.438
21
-83.4855
0
LINE
8
BLACK
6
CONTINUOUS
10
139.438
20
-83.4855
11
139.438
21
-83.4855
0
LINE
8
BLACK
6
CONTINUOUS
10
139.438
20
-83.4855
11
139.431
21
-83.5589
0
LINE
8
BLACK
6
CONTINUOUS
10
139.431
20
-83.5589
11
139.402
21
-83.6532
0
LINE
8
BLACK
6
CONTINUOUS
10
139.402
20
-83.6532
11
139.356
21
-83.7401
0
LINE
8
BLACK
6
CONTINUOUS
10
139.356
20
-83.7401
11
139.293
21
-83.8162
0
LINE
8
BLACK
6
CONTINUOUS
10
139.293
20
-83.8162
11
139.274
21
-83.8319
0
LINE
8
BLACK
6
CONTINUOUS
10
139.274
20
-83.8319
11
136.592
21
-86.514
0
LINE
8
BLACK
6
CONTINUOUS
10
136.592
20
-86.514
11
136.592
21
-88.7415
0
LINE
8
BLACK
6
CONTINUOUS
10
136.592
20
-88.7415
11
136.594
21
-88.766
0
LINE
8
BLACK
6
CONTINUOUS
10
136.594
20
-88.766
11
136.592
21
-88.7906
0
LINE
8
BLACK
6
CONTINUOUS
10
136.592
20
-88.7906
11
136.592
21
-88.7906
0
LINE
8
BLACK
6
CONTINUOUS
10
136.592
20
-88.7906
11
136.585
21
-88.864
0
LINE
8
BLACK
6
CONTINUOUS
10
136.585
20
-88.864
11
136.556
21
-88.9583
0
LINE
8
BLACK
6
CONTINUOUS
10
136.556
20
-88.9583
11
136.51
21
-89.0451
0
LINE
8
BLACK
6
CONTINUOUS
10
136.51
20
-89.0451
11
136.447
21
-89.1213
0
LINE
8
BLACK
6
CONTINUOUS
10
136.447
20
-89.1213
11
136.428
21
-89.1369
0
LINE
8
BLACK
6
CONTINUOUS
10
136.428
20
-89.1369
11
136.075
21
-89.4902
0
LINE
8
BLACK
6
CONTINUOUS
10
136.075
20
-89.4902
11
136.059
21
-89.5093
0
LINE
8
BLACK
6
CONTINUOUS
10
136.059
20
-89.5093
11
135.983
21
-89.5717
0
LINE
8
BLACK
6
CONTINUOUS
10
135.983
20
-89.5717
11
135.896
21
-89.6182
0
LINE
8
BLACK
6
CONTINUOUS
10
135.896
20
-89.6182
11
135.802
21
-89.6468
0
LINE
8
BLACK
6
CONTINUOUS
10
135.802
20
-89.6468
11
135.729
21
-89.654
0
LINE
8
BLACK
6
CONTINUOUS
10
135.729
20
-89.654
11
135.704
21
-89.6564
0
LINE
8
BLACK
6
CONTINUOUS
10
135.704
20
-89.6564
11
135.679
21
-89.654
0
LINE
8
BLACK
6
CONTINUOUS
10
135.679
20
-89.654
11
134.704
21
-89.654
0
LINE
8
BLACK
6
CONTINUOUS
10
134.704
20
-89.654
11
134.704
21
-90.254
0
LINE
8
BLACK
6
CONTINUOUS
10
134.704
20
-90.254
11
132.504
21
-90.254
0
LINE
8
BLACK
6
CONTINUOUS
10
132.504
20
-90.254
11
132.504
21
-88.054
0
LINE
8
BLACK
6
CONTINUOUS
10
132.504
20
-88.054
11
134.704
21
-88.054
0
LINE
8
BLACK
6
CONTINUOUS
10
134.704
20
-88.054
11
134.704
21
-88.654
0
LINE
8
BLACK
6
CONTINUOUS
10
134.704
20
-88.654
11
135.497
21
-88.654
0
LINE
8
BLACK
6
CONTINUOUS
10
135.497
20
-88.654
11
135.592
21
-88.5589
0
LINE
8
BLACK
6
CONTINUOUS
10
135.592
20
-88.5589
11
135.592
21
-86.3315
0
LINE
8
BLACK
6
CONTINUOUS
10
135.592
20
-86.3315
11
135.59
21
-86.3069
0
LINE
8
BLACK
6
CONTINUOUS
10
135.59
20
-86.3069
11
135.599
21
-86.2089
0
LINE
8
BLACK
6
CONTINUOUS
10
135.599
20
-86.2089
11
135.617
21
-86.1509
0
LINE
8
BLACK
6
CONTINUOUS
10
135.617
20
-86.1509
11
135.628
21
-86.1147
0
LINE
8
BLACK
6
CONTINUOUS
10
135.628
20
-86.1147
11
135.674
21
-86.0278
0
LINE
8
BLACK
6
CONTINUOUS
10
135.674
20
-86.0278
11
135.737
21
-85.9517
0
LINE
8
BLACK
6
CONTINUOUS
10
135.737
20
-85.9517
11
135.756
21
-85.936
0
LINE
8
BLACK
6
CONTINUOUS
10
135.756
20
-85.936
11
138.438
21
-83.2538
0
LINE
8
BLACK
6
CONTINUOUS
10
138.438
20
-83.2538
11
138.438
21
-81.618
0
LINE
8
BLACK
6
CONTINUOUS
10
138.438
20
-81.618
11
137.838
21
-81.618
0
LINE
8
BLACK
6
CONTINUOUS
10
137.838
20
-81.618
11
137.838
21
-79.418
0
LINE
8
BLACK
6
CONTINUOUS
10
137.838
20
-79.418
11
140.038
21
-79.418
0
LINE
8
BLACK
6
CONTINUOUS
10
140.038
20
-79.418
11
140.038
21
-81.618
0
LINE
8
BLACK
6
CONTINUOUS
10
147.658
20
-81.618
11
147.026
21
-81.618
0
LINE
8
BLACK
6
CONTINUOUS
10
147.026
20
-81.618
11
147.022
21
-81.6303
0
LINE
8
BLACK
6
CONTINUOUS
10
147.022
20
-81.6303
11
146.976
21
-81.7171
0
LINE
8
BLACK
6
CONTINUOUS
10
146.976
20
-81.7171
11
146.913
21
-81.7933
0
LINE
8
BLACK
6
CONTINUOUS
10
146.913
20
-81.7933
11
146.894
21
-81.8089
0
LINE
8
BLACK
6
CONTINUOUS
10
146.894
20
-81.8089
11
141.937
21
-86.7662
0
LINE
8
BLACK
6
CONTINUOUS
10
141.937
20
-86.7662
11
141.921
21
-86.7853
0
LINE
8
BLACK
6
CONTINUOUS
10
141.921
20
-86.7853
11
141.845
21
-86.8477
0
LINE
8
BLACK
6
CONTINUOUS
10
141.845
20
-86.8477
11
141.758
21
-86.8942
0
LINE
8
BLACK
6
CONTINUOUS
10
141.758
20
-86.8942
11
141.664
21
-86.9228
0
LINE
8
BLACK
6
CONTINUOUS
10
141.664
20
-86.9228
11
141.591
21
-86.93
0
LINE
8
BLACK
6
CONTINUOUS
10
141.591
20
-86.93
11
141.566
21
-86.9324
0
LINE
8
BLACK
6
CONTINUOUS
10
141.566
20
-86.9324
11
141.541
21
-86.93
0
LINE
8
BLACK
6
CONTINUOUS
10
141.541
20
-86.93
11
140.599
21
-86.93
0
LINE
8
BLACK
6
CONTINUOUS
10
140.599
20
-86.93
11
140.318
21
-87.2116
0
LINE
8
BLACK
6
CONTINUOUS
10
140.318
20
-87.2116
11
140.346
21
-87.28
0
LINE
8
BLACK
6
CONTINUOUS
10
140.346
20
-87.28
11
140.392
21
-87.5118
0
LINE
8
BLACK
6
CONTINUOUS
10
140.392
20
-87.5118
11
140.392
21
-87.7482
0
LINE
8
BLACK
6
CONTINUOUS
10
140.392
20
-87.7482
11
140.346
21
-87.98
0
LINE
8
BLACK
6
CONTINUOUS
10
140.346
20
-87.98
11
140.255
21
-88.1984
0
LINE
8
BLACK
6
CONTINUOUS
10
140.255
20
-88.1984
11
140.124
21
-88.395
0
LINE
8
BLACK
6
CONTINUOUS
10
140.124
20
-88.395
11
139.957
21
-88.5621
0
LINE
8
BLACK
6
CONTINUOUS
10
139.957
20
-88.5621
11
139.76
21
-88.6934
0
LINE
8
BLACK
6
CONTINUOUS
10
139.76
20
-88.6934
11
139.542
21
-88.7839
0
LINE
8
BLACK
6
CONTINUOUS
10
139.542
20
-88.7839
11
139.31
21
-88.83
0
LINE
8
BLACK
6
CONTINUOUS
10
139.31
20
-88.83
11
139.074
21
-88.83
0
LINE
8
BLACK
6
CONTINUOUS
10
139.074
20
-88.83
11
138.842
21
-88.7839
0
LINE
8
BLACK
6
CONTINUOUS
10
138.842
20
-88.7839
11
138.624
21
-88.6934
0
LINE
8
BLACK
6
CONTINUOUS
10
138.624
20
-88.6934
11
138.427
21
-88.5621
0
LINE
8
BLACK
6
CONTINUOUS
10
138.427
20
-88.5621
11
138.26
21
-88.395
0
LINE
8
BLACK
6
CONTINUOUS
10
138.26
20
-88.395
11
138.129
21
-88.1984
0
LINE
8
BLACK
6
CONTINUOUS
10
138.129
20
-88.1984
11
138.038
21
-87.98
0
LINE
8
BLACK
6
CONTINUOUS
10
138.038
20
-87.98
11
137.992
21
-87.7482
0
LINE
8
BLACK
6
CONTINUOUS
10
137.992
20
-87.7482
11
137.992
21
-87.5118
0
LINE
8
BLACK
6
CONTINUOUS
10
137.992
20
-87.5118
11
138.038
21
-87.28
0
LINE
8
BLACK
6
CONTINUOUS
10
138.038
20
-87.28
11
138.129
21
-87.0616
0
LINE
8
BLACK
6
CONTINUOUS
10
138.129
20
-87.0616
11
138.26
21
-86.865
0
LINE
8
BLACK
6
CONTINUOUS
10
138.26
20
-86.865
11
138.427
21
-86.6979
0
LINE
8
BLACK
6
CONTINUOUS
10
138.427
20
-86.6979
11
138.624
21
-86.5666
0
LINE
8
BLACK
6
CONTINUOUS
10
138.624
20
-86.5666
11
138.842
21
-86.4761
0
LINE
8
BLACK
6
CONTINUOUS
10
138.842
20
-86.4761
11
139.074
21
-86.43
0
LINE
8
BLACK
6
CONTINUOUS
10
139.074
20
-86.43
11
139.31
21
-86.43
0
LINE
8
BLACK
6
CONTINUOUS
10
139.31
20
-86.43
11
139.542
21
-86.4761
0
LINE
8
BLACK
6
CONTINUOUS
10
139.542
20
-86.4761
11
139.61
21
-86.5045
0
LINE
8
BLACK
6
CONTINUOUS
10
139.61
20
-86.5045
11
140.021
21
-86.0938
0
LINE
8
BLACK
6
CONTINUOUS
10
140.021
20
-86.0938
11
140.037
21
-86.0747
0
LINE
8
BLACK
6
CONTINUOUS
10
140.037
20
-86.0747
11
140.113
21
-86.0123
0
LINE
8
BLACK
6
CONTINUOUS
10
140.113
20
-86.0123
11
140.2
21
-85.9658
0
LINE
8
BLACK
6
CONTINUOUS
10
140.2
20
-85.9658
11
140.294
21
-85.9372
0
LINE
8
BLACK
6
CONTINUOUS
10
140.294
20
-85.9372
11
140.392
21
-85.9276
0
LINE
8
BLACK
6
CONTINUOUS
10
140.392
20
-85.9276
11
140.417
21
-85.93
0
LINE
8
BLACK
6
CONTINUOUS
10
140.417
20
-85.93
11
141.359
21
-85.93
0
LINE
8
BLACK
6
CONTINUOUS
10
141.359
20
-85.93
11
145.671
21
-81.618
0
LINE
8
BLACK
6
CONTINUOUS
10
145.671
20
-81.618
11
145.458
21
-81.618
0
LINE
8
BLACK
6
CONTINUOUS
10
145.458
20
-81.618
11
145.458
21
-79.418
0
LINE
8
BLACK
6
CONTINUOUS
10
145.458
20
-79.418
11
147.658
21
-79.418
0
LINE
8
BLACK
6
CONTINUOUS
10
147.658
20
-79.418
11
147.658
21
-81.618
0
LINE
8
BLACK
6
CONTINUOUS
10
155.278
20
-81.618
11
154.678
21
-81.618
0
LINE
8
BLACK
6
CONTINUOUS
10
154.678
20
-81.618
11
154.678
21
-85.5734
0
LINE
8
BLACK
6
CONTINUOUS
10
154.678
20
-85.5734
11
154.68
21
-85.598
0
LINE
8
BLACK
6
CONTINUOUS
10
154.68
20
-85.598
11
154.674
21
-85.6622
0
LINE
8
BLACK
6
CONTINUOUS
10
154.674
20
-85.6622
11
154.671
21
-85.696
0
LINE
8
BLACK
6
CONTINUOUS
10
154.671
20
-85.696
11
154.642
21
-85.7903
0
LINE
8
BLACK
6
CONTINUOUS
10
154.642
20
-85.7903
11
154.596
21
-85.8771
0
LINE
8
BLACK
6
CONTINUOUS
10
154.596
20
-85.8771
11
154.533
21
-85.9533
0
LINE
8
BLACK
6
CONTINUOUS
10
154.533
20
-85.9533
11
154.514
21
-85.9689
0
LINE
8
BLACK
6
CONTINUOUS
10
154.514
20
-85.9689
11
153.272
21
-87.2116
0
LINE
8
BLACK
6
CONTINUOUS
10
153.272
20
-87.2116
11
153.3
21
-87.28
0
LINE
8
BLACK
6
CONTINUOUS
10
153.3
20
-87.28
11
153.346
21
-87.5118
0
LINE
8
BLACK
6
CONTINUOUS
10
153.346
20
-87.5118
11
153.346
21
-87.7482
0
LINE
8
BLACK
6
CONTINUOUS
10
153.346
20
-87.7482
11
153.3
21
-87.98
0
LINE
8
BLACK
6
CONTINUOUS
10
153.3
20
-87.98
11
153.209
21
-88.1984
0
LINE
8
BLACK
6
CONTINUOUS
10
153.209
20
-88.1984
11
153.078
21
-88.395
0
LINE
8
BLACK
6
CONTINUOUS
10
153.078
20
-88.395
11
152.911
21
-88.5621
0
LINE
8
BLACK
6
CONTINUOUS
10
152.911
20
-88.5621
11
152.714
21
-88.6934
0
LINE
8
BLACK
6
CONTINUOUS
10
152.714
20
-88.6934
11
152.496
21
-88.7839
0
LINE
8
BLACK
6
CONTINUOUS
10
152.496
20
-88.7839
11
152.264
21
-88.83
0
LINE
8
BLACK
6
CONTINUOUS
10
152.264
20
-88.83
11
152.028
21
-88.83
0
LINE
8
BLACK
6
CONTINUOUS
10
152.028
20
-88.83
11
151.796
21
-88.7839
0
LINE
8
BLACK
6
CONTINUOUS
10
151.796
20
-88.7839
11
151.578
21
-88.6934
0
LINE
8
BLACK
6
CONTINUOUS
10
151.578
20
-88.6934
11
151.381
21
-88.5621
0
LINE
8
BLACK
6
CONTINUOUS
10
151.381
20
-88.5621
11
151.214
21
-88.395
0
LINE
8
BLACK
6
CONTINUOUS
10
151.214
20
-88.395
11
151.083
21
-88.1984
0
LINE
8
BLACK
6
CONTINUOUS
10
151.083
20
-88.1984
11
150.992
21
-87.98
0
LINE
8
BLACK
6
CONTINUOUS
10
150.992
20
-87.98
11
150.946
21
-87.7482
0
LINE
8
BLACK
6
CONTINUOUS
10
150.946
20
-87.7482
11
150.946
21
-87.5118
0
LINE
8
BLACK
6
CONTINUOUS
10
150.946
20
-87.5118
11
150.992
21
-87.28
0
LINE
8
BLACK
6
CONTINUOUS
10
150.992
20
-87.28
11
151.083
21
-87.0616
0
LINE
8
BLACK
6
CONTINUOUS
10
151.083
20
-87.0616
11
151.214
21
-86.865
0
LINE
8
BLACK
6
CONTINUOUS
10
151.214
20
-86.865
11
151.381
21
-86.6979
0
LINE
8
BLACK
6
CONTINUOUS
10
151.381
20
-86.6979
11
151.578
21
-86.5666
0
LINE
8
BLACK
6
CONTINUOUS
10
151.578
20
-86.5666
11
151.796
21
-86.4761
0
LINE
8
BLACK
6
CONTINUOUS
10
151.796
20
-86.4761
11
152.028
21
-86.43
0
LINE
8
BLACK
6
CONTINUOUS
10
152.028
20
-86.43
11
152.264
21
-86.43
0
LINE
8
BLACK
6
CONTINUOUS
10
152.264
20
-86.43
11
152.496
21
-86.4761
0
LINE
8
BLACK
6
CONTINUOUS
10
152.496
20
-86.4761
11
152.564
21
-86.5045
0
LINE
8
BLACK
6
CONTINUOUS
10
152.564
20
-86.5045
11
153.678
21
-85.3909
0
LINE
8
BLACK
6
CONTINUOUS
10
153.678
20
-85.3909
11
153.678
21
-81.618
0
LINE
8
BLACK
6
CONTINUOUS
10
153.678
20
-81.618
11
153.078
21
-81.618
0
LINE
8
BLACK
6
CONTINUOUS
10
153.078
20
-81.618
11
153.078
21
-79.418
0
LINE
8
BLACK
6
CONTINUOUS
10
153.078
20
-79.418
11
155.278
21
-79.418
0
LINE
8
BLACK
6
CONTINUOUS
10
155.278
20
-79.418
11
155.278
21
-81.618
0
LINE
8
BLACK
6
CONTINUOUS
10
150.198
20
-81.618
11
149.598
21
-81.618
0
LINE
8
BLACK
6
CONTINUOUS
10
149.598
20
-81.618
11
149.598
21
-82.0175
0
LINE
8
BLACK
6
CONTINUOUS
10
149.598
20
-82.0175
11
149.6
21
-82.042
0
LINE
8
BLACK
6
CONTINUOUS
10
149.6
20
-82.042
11
149.598
21
-82.0666
0
LINE
8
BLACK
6
CONTINUOUS
10
149.598
20
-82.0666
11
149.598
21
-82.0666
0
LINE
8
BLACK
6
CONTINUOUS
10
149.598
20
-82.0666
11
149.591
21
-82.14
0
LINE
8
BLACK
6
CONTINUOUS
10
149.591
20
-82.14
11
149.562
21
-82.2343
0
LINE
8
BLACK
6
CONTINUOUS
10
149.562
20
-82.2343
11
149.516
21
-82.3211
0
LINE
8
BLACK
6
CONTINUOUS
10
149.516
20
-82.3211
11
149.453
21
-82.3973
0
LINE
8
BLACK
6
CONTINUOUS
10
149.453
20
-82.3973
11
149.434
21
-82.4129
0
LINE
8
BLACK
6
CONTINUOUS
10
149.434
20
-82.4129
11
144.636
21
-87.2116
0
LINE
8
BLACK
6
CONTINUOUS
10
144.636
20
-87.2116
11
144.664
21
-87.28
0
LINE
8
BLACK
6
CONTINUOUS
10
144.664
20
-87.28
11
144.71
21
-87.5118
0
LINE
8
BLACK
6
CONTINUOUS
10
144.71
20
-87.5118
11
144.71
21
-87.7482
0
LINE
8
BLACK
6
CONTINUOUS
10
144.71
20
-87.7482
11
144.664
21
-87.98
0
LINE
8
BLACK
6
CONTINUOUS
10
144.664
20
-87.98
11
144.573
21
-88.1984
0
LINE
8
BLACK
6
CONTINUOUS
10
144.573
20
-88.1984
11
144.442
21
-88.395
0
LINE
8
BLACK
6
CONTINUOUS
10
144.442
20
-88.395
11
144.275
21
-88.5621
0
LINE
8
BLACK
6
CONTINUOUS
10
144.275
20
-88.5621
11
144.078
21
-88.6934
0
LINE
8
BLACK
6
CONTINUOUS
10
144.078
20
-88.6934
11
143.86
21
-88.7839
0
LINE
8
BLACK
6
CONTINUOUS
10
143.86
20
-88.7839
11
143.628
21
-88.83
0
LINE
8
BLACK
6
CONTINUOUS
10
143.628
20
-88.83
11
143.392
21
-88.83
0
LINE
8
BLACK
6
CONTINUOUS
10
143.392
20
-88.83
11
143.16
21
-88.7839
0
LINE
8
BLACK
6
CONTINUOUS
10
143.16
20
-88.7839
11
142.942
21
-88.6934
0
LINE
8
BLACK
6
CONTINUOUS
10
142.942
20
-88.6934
11
142.745
21
-88.5621
0
LINE
8
BLACK
6
CONTINUOUS
10
142.745
20
-88.5621
11
142.578
21
-88.395
0
LINE
8
BLACK
6
CONTINUOUS
10
142.578
20
-88.395
11
142.447
21
-88.1984
0
LINE
8
BLACK
6
CONTINUOUS
10
142.447
20
-88.1984
11
142.356
21
-87.98
0
LINE
8
BLACK
6
CONTINUOUS
10
142.356
20
-87.98
11
142.31
21
-87.7482
0
LINE
8
BLACK
6
CONTINUOUS
10
142.31
20
-87.7482
11
142.31
21
-87.5118
0
LINE
8
BLACK
6
CONTINUOUS
10
142.31
20
-87.5118
11
142.356
21
-87.28
0
LINE
8
BLACK
6
CONTINUOUS
10
142.356
20
-87.28
11
142.447
21
-87.0616
0
LINE
8
BLACK
6
CONTINUOUS
10
142.447
20
-87.0616
11
142.578
21
-86.865
0
LINE
8
BLACK
6
CONTINUOUS
10
142.578
20
-86.865
11
142.745
21
-86.6979
0
LINE
8
BLACK
6
CONTINUOUS
10
142.745
20
-86.6979
11
142.942
21
-86.5666
0
LINE
8
BLACK
6
CONTINUOUS
10
142.942
20
-86.5666
11
143.16
21
-86.4761
0
LINE
8
BLACK
6
CONTINUOUS
10
143.16
20
-86.4761
11
143.392
21
-86.43
0
LINE
8
BLACK
6
CONTINUOUS
10
143.392
20
-86.43
11
143.628
21
-86.43
0
LINE
8
BLACK
6
CONTINUOUS
10
143.628
20
-86.43
11
143.86
21
-86.4761
0
LINE
8
BLACK
6
CONTINUOUS
10
143.86
20
-86.4761
11
143.928
21
-86.5045
0
LINE
8
BLACK
6
CONTINUOUS
10
143.928
20
-86.5045
11
148.598
21
-81.8349
0
LINE
8
BLACK
6
CONTINUOUS
10
148.598
20
-81.8349
11
148.598
21
-81.618
0
LINE
8
BLACK
6
CONTINUOUS
10
148.598
20
-81.618
11
147.998
21
-81.618
0
LINE
8
BLACK
6
CONTINUOUS
10
147.998
20
-81.618
11
147.998
21
-79.418
0
LINE
8
BLACK
6
CONTINUOUS
10
147.998
20
-79.418
11
150.198
21
-79.418
0
LINE
8
BLACK
6
CONTINUOUS
10
150.198
20
-79.418
11
150.198
21
-81.618
0
LINE
8
BLACK
6
CONTINUOUS
10
152.738
20
-81.618
11
152.138
21
-81.618
0
LINE
8
BLACK
6
CONTINUOUS
10
152.138
20
-81.618
11
152.138
21
-83.7954
0
LINE
8
BLACK
6
CONTINUOUS
10
152.138
20
-83.7954
11
152.14
21
-83.82
0
LINE
8
BLACK
6
CONTINUOUS
10
152.14
20
-83.82
11
152.138
21
-83.8446
0
LINE
8
BLACK
6
CONTINUOUS
10
152.138
20
-83.8446
11
152.131
21
-83.918
0
LINE
8
BLACK
6
CONTINUOUS
10
152.131
20
-83.918
11
152.102
21
-84.0123
0
LINE
8
BLACK
6
CONTINUOUS
10
152.102
20
-84.0123
11
152.056
21
-84.0991
0
LINE
8
BLACK
6
CONTINUOUS
10
152.056
20
-84.0991
11
151.993
21
-84.1753
0
LINE
8
BLACK
6
CONTINUOUS
10
151.993
20
-84.1753
11
151.974
21
-84.1909
0
LINE
8
BLACK
6
CONTINUOUS
10
151.974
20
-84.1909
11
148.954
21
-87.2116
0
LINE
8
BLACK
6
CONTINUOUS
10
148.954
20
-87.2116
11
148.982
21
-87.28
0
LINE
8
BLACK
6
CONTINUOUS
10
148.982
20
-87.28
11
149.028
21
-87.5118
0
LINE
8
BLACK
6
CONTINUOUS
10
149.028
20
-87.5118
11
149.028
21
-87.7482
0
LINE
8
BLACK
6
CONTINUOUS
10
149.028
20
-87.7482
11
148.982
21
-87.98
0
LINE
8
BLACK
6
CONTINUOUS
10
148.982
20
-87.98
11
148.891
21
-88.1984
0
LINE
8
BLACK
6
CONTINUOUS
10
148.891
20
-88.1984
11
148.76
21
-88.395
0
LINE
8
BLACK
6
CONTINUOUS
10
148.76
20
-88.395
11
148.593
21
-88.5621
0
LINE
8
BLACK
6
CONTINUOUS
10
148.593
20
-88.5621
11
148.396
21
-88.6934
0
LINE
8
BLACK
6
CONTINUOUS
10
148.396
20
-88.6934
11
148.178
21
-88.7839
0
LINE
8
BLACK
6
CONTINUOUS
10
148.178
20
-88.7839
11
147.946
21
-88.83
0
LINE
8
BLACK
6
CONTINUOUS
10
147.946
20
-88.83
11
147.71
21
-88.83
0
LINE
8
BLACK
6
CONTINUOUS
10
147.71
20
-88.83
11
147.478
21
-88.7839
0
LINE
8
BLACK
6
CONTINUOUS
10
147.478
20
-88.7839
11
147.26
21
-88.6934
0
LINE
8
BLACK
6
CONTINUOUS
10
147.26
20
-88.6934
11
147.063
21
-88.5621
0
LINE
8
BLACK
6
CONTINUOUS
10
147.063
20
-88.5621
11
146.896
21
-88.395
0
LINE
8
BLACK
6
CONTINUOUS
10
146.896
20
-88.395
11
146.765
21
-88.1984
0
LINE
8
BLACK
6
CONTINUOUS
10
146.765
20
-88.1984
11
146.674
21
-87.98
0
LINE
8
BLACK
6
CONTINUOUS
10
146.674
20
-87.98
11
146.628
21
-87.7482
0
LINE
8
BLACK
6
CONTINUOUS
10
146.628
20
-87.7482
11
146.628
21
-87.5118
0
LINE
8
BLACK
6
CONTINUOUS
10
146.628
20
-87.5118
11
146.674
21
-87.28
0
LINE
8
BLACK
6
CONTINUOUS
10
146.674
20
-87.28
11
146.765
21
-87.0616
0
LINE
8
BLACK
6
CONTINUOUS
10
146.765
20
-87.0616
11
146.896
21
-86.865
0
LINE
8
BLACK
6
CONTINUOUS
10
146.896
20
-86.865
11
147.063
21
-86.6979
0
LINE
8
BLACK
6
CONTINUOUS
10
147.063
20
-86.6979
11
147.26
21
-86.5666
0
LINE
8
BLACK
6
CONTINUOUS
10
147.26
20
-86.5666
11
147.478
21
-86.4761
0
LINE
8
BLACK
6
CONTINUOUS
10
147.478
20
-86.4761
11
147.71
21
-86.43
0
LINE
8
BLACK
6
CONTINUOUS
10
147.71
20
-86.43
11
147.946
21
-86.43
0
LINE
8
BLACK
6
CONTINUOUS
10
147.946
20
-86.43
11
148.178
21
-86.4761
0
LINE
8
BLACK
6
CONTINUOUS
10
148.178
20
-86.4761
11
148.246
21
-86.5045
0
LINE
8
BLACK
6
CONTINUOUS
10
148.246
20
-86.5045
11
151.138
21
-83.6129
0
LINE
8
BLACK
6
CONTINUOUS
10
151.138
20
-83.6129
11
151.138
21
-81.618
0
LINE
8
BLACK
6
CONTINUOUS
10
151.138
20
-81.618
11
150.538
21
-81.618
0
LINE
8
BLACK
6
CONTINUOUS
10
150.538
20
-81.618
11
150.538
21
-79.418
0
LINE
8
BLACK
6
CONTINUOUS
10
150.538
20
-79.418
11
152.738
21
-79.418
0
LINE
8
BLACK
6
CONTINUOUS
10
152.738
20
-79.418
11
152.738
21
-81.618
0
LINE
8
BLACK
6
CONTINUOUS
10
159.596
20
-88.73
11
157.396
21
-88.73
0
LINE
8
BLACK
6
CONTINUOUS
10
157.396
20
-88.73
11
157.396
21
-86.53
0
LINE
8
BLACK
6
CONTINUOUS
10
157.396
20
-86.53
11
159.596
21
-86.53
0
LINE
8
BLACK
6
CONTINUOUS
10
159.596
20
-86.53
11
159.596
21
-88.73
0
LINE
8
BLACK
6
CONTINUOUS
10
119.718
20
-81.618
11
119.086
21
-81.618
0
LINE
8
BLACK
6
CONTINUOUS
10
119.086
20
-81.618
11
119.082
21
-81.6303
0
LINE
8
BLACK
6
CONTINUOUS
10
119.082
20
-81.6303
11
119.036
21
-81.7171
0
LINE
8
BLACK
6
CONTINUOUS
10
119.036
20
-81.7171
11
118.973
21
-81.7933
0
LINE
8
BLACK
6
CONTINUOUS
10
118.973
20
-81.7933
11
118.954
21
-81.8089
0
LINE
8
BLACK
6
CONTINUOUS
10
118.954
20
-81.8089
11
116.07
21
-84.6931
0
LINE
8
BLACK
6
CONTINUOUS
10
116.07
20
-84.6931
11
116.07
21
-85.768
0
LINE
8
BLACK
6
CONTINUOUS
10
116.07
20
-85.768
11
116.67
21
-85.768
0
LINE
8
BLACK
6
CONTINUOUS
10
116.67
20
-85.768
11
116.67
21
-87.968
0
LINE
8
BLACK
6
CONTINUOUS
10
116.67
20
-87.968
11
114.47
21
-87.968
0
LINE
8
BLACK
6
CONTINUOUS
10
114.47
20
-87.968
11
114.47
21
-85.768
0
LINE
8
BLACK
6
CONTINUOUS
10
114.47
20
-85.768
11
115.07
21
-85.768
0
LINE
8
BLACK
6
CONTINUOUS
10
115.07
20
-85.768
11
115.07
21
-84.5106
0
LINE
8
BLACK
6
CONTINUOUS
10
115.07
20
-84.5106
11
115.068
21
-84.486
0
LINE
8
BLACK
6
CONTINUOUS
10
115.068
20
-84.486
11
115.077
21
-84.388
0
LINE
8
BLACK
6
CONTINUOUS
10
115.077
20
-84.388
11
115.094
21
-84.3328
0
LINE
8
BLACK
6
CONTINUOUS
10
115.094
20
-84.3328
11
115.106
21
-84.2937
0
LINE
8
BLACK
6
CONTINUOUS
10
115.106
20
-84.2937
11
115.152
21
-84.2069
0
LINE
8
BLACK
6
CONTINUOUS
10
115.152
20
-84.2069
11
115.215
21
-84.1307
0
LINE
8
BLACK
6
CONTINUOUS
10
115.215
20
-84.1307
11
115.234
21
-84.1151
0
LINE
8
BLACK
6
CONTINUOUS
10
115.234
20
-84.1151
11
117.731
21
-81.618
0
LINE
8
BLACK
6
CONTINUOUS
10
117.731
20
-81.618
11
117.518
21
-81.618
0
LINE
8
BLACK
6
CONTINUOUS
10
117.518
20
-81.618
11
117.518
21
-79.418
0
LINE
8
BLACK
6
CONTINUOUS
10
117.518
20
-79.418
11
119.718
21
-79.418
0
LINE
8
BLACK
6
CONTINUOUS
10
119.718
20
-79.418
11
119.718
21
-81.618
0
LINE
8
BLACK
6
CONTINUOUS
10
137.498
20
-81.618
11
136.898
21
-81.618
0
LINE
8
BLACK
6
CONTINUOUS
10
136.898
20
-81.618
11
136.898
21
-83.7954
0
LINE
8
BLACK
6
CONTINUOUS
10
136.898
20
-83.7954
11
136.9
21
-83.82
0
LINE
8
BLACK
6
CONTINUOUS
10
136.9
20
-83.82
11
136.898
21
-83.8446
0
LINE
8
BLACK
6
CONTINUOUS
10
136.898
20
-83.8446
11
136.891
21
-83.918
0
LINE
8
BLACK
6
CONTINUOUS
10
136.891
20
-83.918
11
136.862
21
-84.0123
0
LINE
8
BLACK
6
CONTINUOUS
10
136.862
20
-84.0123
11
136.816
21
-84.0991
0
LINE
8
BLACK
6
CONTINUOUS
10
136.816
20
-84.0991
11
136.753
21
-84.1753
0
LINE
8
BLACK
6
CONTINUOUS
10
136.753
20
-84.1753
11
136.734
21
-84.1909
0
LINE
8
BLACK
6
CONTINUOUS
10
136.734
20
-84.1909
11
134.704
21
-86.2211
0
LINE
8
BLACK
6
CONTINUOUS
10
134.704
20
-86.2211
11
134.704
21
-87.714
0
LINE
8
BLACK
6
CONTINUOUS
10
134.704
20
-87.714
11
132.504
21
-87.714
0
LINE
8
BLACK
6
CONTINUOUS
10
132.504
20
-87.714
11
132.504
21
-85.514
0
LINE
8
BLACK
6
CONTINUOUS
10
132.504
20
-85.514
11
133.997
21
-85.514
0
LINE
8
BLACK
6
CONTINUOUS
10
133.997
20
-85.514
11
135.898
21
-83.6129
0
LINE
8
BLACK
6
CONTINUOUS
10
135.898
20
-83.6129
11
135.898
21
-81.618
0
LINE
8
BLACK
6
CONTINUOUS
10
135.898
20
-81.618
11
135.298
21
-81.618
0
LINE
8
BLACK
6
CONTINUOUS
10
135.298
20
-81.618
11
135.298
21
-79.418
0
LINE
8
BLACK
6
CONTINUOUS
10
135.298
20
-79.418
11
137.498
21
-79.418
0
LINE
8
BLACK
6
CONTINUOUS
10
137.498
20
-79.418
11
137.498
21
-81.618
0
LINE
8
BLACK
6
CONTINUOUS
10
129.878
20
-81.618
11
129.278
21
-81.618
0
LINE
8
BLACK
6
CONTINUOUS
10
129.278
20
-81.618
11
129.278
21
-82.2714
0
LINE
8
BLACK
6
CONTINUOUS
10
129.278
20
-82.2714
11
129.28
21
-82.296
0
LINE
8
BLACK
6
CONTINUOUS
10
129.28
20
-82.296
11
129.278
21
-82.3206
0
LINE
8
BLACK
6
CONTINUOUS
10
129.278
20
-82.3206
11
129.278
21
-82.3206
0
LINE
8
BLACK
6
CONTINUOUS
10
129.278
20
-82.3206
11
129.271
21
-82.394
0
LINE
8
BLACK
6
CONTINUOUS
10
129.271
20
-82.394
11
129.242
21
-82.4883
0
LINE
8
BLACK
6
CONTINUOUS
10
129.242
20
-82.4883
11
129.196
21
-82.5751
0
LINE
8
BLACK
6
CONTINUOUS
10
129.196
20
-82.5751
11
129.133
21
-82.6513
0
LINE
8
BLACK
6
CONTINUOUS
10
129.133
20
-82.6513
11
129.114
21
-82.6669
0
LINE
8
BLACK
6
CONTINUOUS
10
129.114
20
-82.6669
11
125.56
21
-86.2211
0
LINE
8
BLACK
6
CONTINUOUS
10
125.56
20
-86.2211
11
125.56
21
-87.714
0
LINE
8
BLACK
6
CONTINUOUS
10
125.56
20
-87.714
11
123.36
21
-87.714
0
LINE
8
BLACK
6
CONTINUOUS
10
123.36
20
-87.714
11
123.36
21
-85.514
0
LINE
8
BLACK
6
CONTINUOUS
10
123.36
20
-85.514
11
124.853
21
-85.514
0
LINE
8
BLACK
6
CONTINUOUS
10
124.853
20
-85.514
11
128.278
21
-82.0889
0
LINE
8
BLACK
6
CONTINUOUS
10
128.278
20
-82.0889
11
128.278
21
-81.618
0
LINE
8
BLACK
6
CONTINUOUS
10
128.278
20
-81.618
11
127.678
21
-81.618
0
LINE
8
BLACK
6
CONTINUOUS
10
127.678
20
-81.618
11
127.678
21
-79.418
0
LINE
8
BLACK
6
CONTINUOUS
10
127.678
20
-79.418
11
129.878
21
-79.418
0
LINE
8
BLACK
6
CONTINUOUS
10
129.878
20
-79.418
11
129.878
21
-81.618
0
LINE
8
BLACK
6
CONTINUOUS
10
157.818
20
-81.618
11
157.218
21
-81.618
0
LINE
8
BLACK
6
CONTINUOUS
10
157.218
20
-81.618
11
157.218
21
-83.1049
0
LINE
8
BLACK
6
CONTINUOUS
10
157.218
20
-83.1049
11
158.103
21
-83.99
0
LINE
8
BLACK
6
CONTINUOUS
10
158.103
20
-83.99
11
159.596
21
-83.99
0
LINE
8
BLACK
6
CONTINUOUS
10
159.596
20
-83.99
11
159.596
21
-86.19
0
LINE
8
BLACK
6
CONTINUOUS
10
159.596
20
-86.19
11
157.396
21
-86.19
0
LINE
8
BLACK
6
CONTINUOUS
10
157.396
20
-86.19
11
157.396
21
-84.6971
0
LINE
8
BLACK
6
CONTINUOUS
10
157.396
20
-84.6971
11
156.382
21
-83.6829
0
LINE
8
BLACK
6
CONTINUOUS
10
156.382
20
-83.6829
11
156.363
21
-83.6673
0
LINE
8
BLACK
6
CONTINUOUS
10
156.363
20
-83.6673
11
156.3
21
-83.5911
0
LINE
8
BLACK
6
CONTINUOUS
10
156.3
20
-83.5911
11
156.254
21
-83.5043
0
LINE
8
BLACK
6
CONTINUOUS
10
156.254
20
-83.5043
11
156.248
21
-83.4847
0
LINE
8
BLACK
6
CONTINUOUS
10
156.248
20
-83.4847
11
156.225
21
-83.41
0
LINE
8
BLACK
6
CONTINUOUS
10
156.225
20
-83.41
11
156.216
21
-83.312
0
LINE
8
BLACK
6
CONTINUOUS
10
156.216
20
-83.312
11
156.218
21
-83.2874
0
LINE
8
BLACK
6
CONTINUOUS
10
156.218
20
-83.2874
11
156.218
21
-81.618
0
LINE
8
BLACK
6
CONTINUOUS
10
156.218
20
-81.618
11
155.618
21
-81.618
0
LINE
8
BLACK
6
CONTINUOUS
10
155.618
20
-81.618
11
155.618
21
-79.418
0
LINE
8
BLACK
6
CONTINUOUS
10
155.618
20
-79.418
11
157.818
21
-79.418
0
LINE
8
BLACK
6
CONTINUOUS
10
157.818
20
-79.418
11
157.818
21
-81.618
0
LINE
8
BLACK
6
CONTINUOUS
10
145.118
20
-81.618
11
142.918
21
-81.618
0
LINE
8
BLACK
6
CONTINUOUS
10
142.918
20
-81.618
11
142.918
21
-79.418
0
LINE
8
BLACK
6
CONTINUOUS
10
142.918
20
-79.418
11
145.118
21
-79.418
0
LINE
8
BLACK
6
CONTINUOUS
10
145.118
20
-79.418
11
145.118
21
-81.618
0
LINE
8
BLACK
6
CONTINUOUS
10
117.432
20
-73.744
11
116.932
21
-73.744
0
LINE
8
BLACK
6
CONTINUOUS
10
116.932
20
-73.744
11
116.932
21
-76.878
0
LINE
8
BLACK
6
CONTINUOUS
10
116.932
20
-76.878
11
117.178
21
-76.878
0
LINE
8
BLACK
6
CONTINUOUS
10
117.178
20
-76.878
11
117.178
21
-79.078
0
LINE
8
BLACK
6
CONTINUOUS
10
117.178
20
-79.078
11
116.678
21
-79.078
0
LINE
8
BLACK
6
CONTINUOUS
10
116.678
20
-79.078
11
116.678
21
-79.418
0
LINE
8
BLACK
6
CONTINUOUS
10
116.678
20
-79.418
11
117.178
21
-79.418
0
LINE
8
BLACK
6
CONTINUOUS
10
117.178
20
-79.418
11
117.178
21
-81.618
0
LINE
8
BLACK
6
CONTINUOUS
10
117.178
20
-81.618
11
114.978
21
-81.618
0
LINE
8
BLACK
6
CONTINUOUS
10
114.978
20
-81.618
11
114.978
21
-79.418
0
LINE
8
BLACK
6
CONTINUOUS
10
114.978
20
-79.418
11
115.478
21
-79.418
0
LINE
8
BLACK
6
CONTINUOUS
10
115.478
20
-79.418
11
115.478
21
-79.078
0
LINE
8
BLACK
6
CONTINUOUS
10
115.478
20
-79.078
11
114.978
21
-79.078
0
LINE
8
BLACK
6
CONTINUOUS
10
114.978
20
-79.078
11
114.978
21
-76.878
0
LINE
8
BLACK
6
CONTINUOUS
10
114.978
20
-76.878
11
115.732
21
-76.878
0
LINE
8
BLACK
6
CONTINUOUS
10
115.732
20
-76.878
11
115.732
21
-73.744
0
LINE
8
BLACK
6
CONTINUOUS
10
115.732
20
-73.744
11
115.232
21
-73.744
0
LINE
8
BLACK
6
CONTINUOUS
10
115.232
20
-73.744
11
115.232
21
-71.544
0
LINE
8
BLACK
6
CONTINUOUS
10
115.232
20
-71.544
11
117.432
21
-71.544
0
LINE
8
BLACK
6
CONTINUOUS
10
117.432
20
-71.544
11
117.432
21
-73.744
0
LINE
8
BLACK
6
CONTINUOUS
10
140.038
20
-76.878
11
140.038
21
-79.078
0
LINE
8
BLACK
6
CONTINUOUS
10
140.038
20
-79.078
11
137.838
21
-79.078
0
LINE
8
BLACK
6
CONTINUOUS
10
137.838
20
-79.078
11
137.838
21
-76.878
0
LINE
8
BLACK
6
CONTINUOUS
10
137.838
20
-76.878
11
138.338
21
-76.878
0
LINE
8
BLACK
6
CONTINUOUS
10
138.338
20
-76.878
11
138.338
21
-75.6485
0
LINE
8
BLACK
6
CONTINUOUS
10
138.338
20
-75.6485
11
138.338
21
-75.6485
0
LINE
8
BLACK
6
CONTINUOUS
10
138.338
20
-75.6485
11
138.338
21
-73.4495
0
LINE
8
BLACK
6
CONTINUOUS
10
138.338
20
-73.4495
11
138.335
21
-73.42
0
LINE
8
BLACK
6
CONTINUOUS
10
138.335
20
-73.42
11
138.347
21
-73.3024
0
LINE
8
BLACK
6
CONTINUOUS
10
138.347
20
-73.3024
11
138.365
21
-73.2414
0
LINE
8
BLACK
6
CONTINUOUS
10
138.365
20
-73.2414
11
138.381
21
-73.1893
0
LINE
8
BLACK
6
CONTINUOUS
10
138.381
20
-73.1893
11
138.437
21
-73.085
0
LINE
8
BLACK
6
CONTINUOUS
10
138.437
20
-73.085
11
138.512
21
-72.9937
0
LINE
8
BLACK
6
CONTINUOUS
10
138.512
20
-72.9937
11
138.535
21
-72.9749
0
LINE
8
BLACK
6
CONTINUOUS
10
138.535
20
-72.9749
11
143.926
21
-67.5835
0
LINE
8
BLACK
6
CONTINUOUS
10
143.926
20
-67.5835
11
143.926
21
-66.632
0
LINE
8
BLACK
6
CONTINUOUS
10
143.926
20
-66.632
11
143.426
21
-66.632
0
LINE
8
BLACK
6
CONTINUOUS
10
143.426
20
-66.632
11
143.426
21
-64.432
0
LINE
8
BLACK
6
CONTINUOUS
10
143.426
20
-64.432
11
145.626
21
-64.432
0
LINE
8
BLACK
6
CONTINUOUS
10
145.626
20
-64.432
11
145.626
21
-66.632
0
LINE
8
BLACK
6
CONTINUOUS
10
145.626
20
-66.632
11
145.126
21
-66.632
0
LINE
8
BLACK
6
CONTINUOUS
10
145.126
20
-66.632
11
145.126
21
-67.8025
0
LINE
8
BLACK
6
CONTINUOUS
10
145.126
20
-67.8025
11
145.129
21
-67.832
0
LINE
8
BLACK
6
CONTINUOUS
10
145.129
20
-67.832
11
145.122
21
-67.899
0
LINE
8
BLACK
6
CONTINUOUS
10
145.122
20
-67.899
11
145.117
21
-67.9496
0
LINE
8
BLACK
6
CONTINUOUS
10
145.117
20
-67.9496
11
145.083
21
-68.0627
0
LINE
8
BLACK
6
CONTINUOUS
10
145.083
20
-68.0627
11
145.027
21
-68.167
0
LINE
8
BLACK
6
CONTINUOUS
10
145.027
20
-68.167
11
145.006
21
-68.193
0
LINE
8
BLACK
6
CONTINUOUS
10
145.006
20
-68.193
11
144.971
21
-68.2354
0
LINE
8
BLACK
6
CONTINUOUS
10
144.971
20
-68.2354
11
144.952
21
-68.2583
0
LINE
8
BLACK
6
CONTINUOUS
10
144.952
20
-68.2583
11
144.929
21
-68.2771
0
LINE
8
BLACK
6
CONTINUOUS
10
144.929
20
-68.2771
11
139.538
21
-73.6685
0
LINE
8
BLACK
6
CONTINUOUS
10
139.538
20
-73.6685
11
139.538
21
-76.878
0
LINE
8
BLACK
6
CONTINUOUS
10
139.538
20
-76.878
11
140.038
21
-76.878
0
LINE
8
BLACK
6
CONTINUOUS
10
134.958
20
-76.878
11
134.958
21
-79.078
0
LINE
8
BLACK
6
CONTINUOUS
10
134.958
20
-79.078
11
132.758
21
-79.078
0
LINE
8
BLACK
6
CONTINUOUS
10
132.758
20
-79.078
11
132.758
21
-76.878
0
LINE
8
BLACK
6
CONTINUOUS
10
132.758
20
-76.878
11
133.258
21
-76.878
0
LINE
8
BLACK
6
CONTINUOUS
10
133.258
20
-76.878
11
133.258
21
-75.6485
0
LINE
8
BLACK
6
CONTINUOUS
10
133.258
20
-75.6485
11
133.258
21
-75.6485
0
LINE
8
BLACK
6
CONTINUOUS
10
133.258
20
-75.6485
11
133.258
21
-73.1605
0
LINE
8
BLACK
6
CONTINUOUS
10
133.258
20
-73.1605
11
128.375
21
-68.2771
0
LINE
8
BLACK
6
CONTINUOUS
10
128.375
20
-68.2771
11
128.352
21
-68.2583
0
LINE
8
BLACK
6
CONTINUOUS
10
128.352
20
-68.2583
11
128.277
21
-68.167
0
LINE
8
BLACK
6
CONTINUOUS
10
128.277
20
-68.167
11
128.221
21
-68.0627
0
LINE
8
BLACK
6
CONTINUOUS
10
128.221
20
-68.0627
11
128.219
21
-68.0571
0
LINE
8
BLACK
6
CONTINUOUS
10
128.219
20
-68.0571
11
128.187
21
-67.9496
0
LINE
8
BLACK
6
CONTINUOUS
10
128.187
20
-67.9496
11
128.175
21
-67.832
0
LINE
8
BLACK
6
CONTINUOUS
10
128.175
20
-67.832
11
128.178
21
-67.8025
0
LINE
8
BLACK
6
CONTINUOUS
10
128.178
20
-67.8025
11
128.178
21
-66.632
0
LINE
8
BLACK
6
CONTINUOUS
10
128.178
20
-66.632
11
127.678
21
-66.632
0
LINE
8
BLACK
6
CONTINUOUS
10
127.678
20
-66.632
11
127.678
21
-64.432
0
LINE
8
BLACK
6
CONTINUOUS
10
127.678
20
-64.432
11
129.878
21
-64.432
0
LINE
8
BLACK
6
CONTINUOUS
10
129.878
20
-64.432
11
129.878
21
-66.632
0
LINE
8
BLACK
6
CONTINUOUS
10
129.878
20
-66.632
11
129.378
21
-66.632
0
LINE
8
BLACK
6
CONTINUOUS
10
129.378
20
-66.632
11
129.378
21
-67.5835
0
LINE
8
BLACK
6
CONTINUOUS
10
129.378
20
-67.5835
11
134.261
21
-72.4669
0
LINE
8
BLACK
6
CONTINUOUS
10
134.261
20
-72.4669
11
134.284
21
-72.4857
0
LINE
8
BLACK
6
CONTINUOUS
10
134.284
20
-72.4857
11
134.359
21
-72.577
0
LINE
8
BLACK
6
CONTINUOUS
10
134.359
20
-72.577
11
134.38
21
-72.6152
0
LINE
8
BLACK
6
CONTINUOUS
10
134.38
20
-72.6152
11
134.415
21
-72.6813
0
LINE
8
BLACK
6
CONTINUOUS
10
134.415
20
-72.6813
11
134.449
21
-72.7944
0
LINE
8
BLACK
6
CONTINUOUS
10
134.449
20
-72.7944
11
134.461
21
-72.912
0
LINE
8
BLACK
6
CONTINUOUS
10
134.461
20
-72.912
11
134.458
21
-72.9415
0
LINE
8
BLACK
6
CONTINUOUS
10
134.458
20
-72.9415
11
134.458
21
-76.878
0
LINE
8
BLACK
6
CONTINUOUS
10
134.458
20
-76.878
11
134.958
21
-76.878
0
LINE
8
BLACK
6
CONTINUOUS
10
137.498
20
-76.878
11
137.498
21
-79.078
0
LINE
8
BLACK
6
CONTINUOUS
10
137.498
20
-79.078
11
135.298
21
-79.078
0
LINE
8
BLACK
6
CONTINUOUS
10
135.298
20
-79.078
11
135.298
21
-76.878
0
LINE
8
BLACK
6
CONTINUOUS
10
135.298
20
-76.878
11
135.798
21
-76.878
0
LINE
8
BLACK
6
CONTINUOUS
10
135.798
20
-76.878
11
135.798
21
-75.6485
0
LINE
8
BLACK
6
CONTINUOUS
10
135.798
20
-75.6485
11
135.798
21
-75.6485
0
LINE
8
BLACK
6
CONTINUOUS
10
135.798
20
-75.6485
11
135.798
21
-73.7206
0
LINE
8
BLACK
6
CONTINUOUS
10
135.798
20
-73.7206
11
130.915
21
-68.8372
0
LINE
8
BLACK
6
CONTINUOUS
10
130.915
20
-68.8372
11
130.892
21
-68.8184
0
LINE
8
BLACK
6
CONTINUOUS
10
130.892
20
-68.8184
11
130.817
21
-68.727
0
LINE
8
BLACK
6
CONTINUOUS
10
130.817
20
-68.727
11
130.761
21
-68.6228
0
LINE
8
BLACK
6
CONTINUOUS
10
130.761
20
-68.6228
11
130.727
21
-68.5097
0
LINE
8
BLACK
6
CONTINUOUS
10
130.727
20
-68.5097
11
130.715
21
-68.3921
0
LINE
8
BLACK
6
CONTINUOUS
10
130.715
20
-68.3921
11
130.718
21
-68.3626
0
LINE
8
BLACK
6
CONTINUOUS
10
130.718
20
-68.3626
11
130.718
21
-66.632
0
LINE
8
BLACK
6
CONTINUOUS
10
130.718
20
-66.632
11
130.218
21
-66.632
0
LINE
8
BLACK
6
CONTINUOUS
10
130.218
20
-66.632
11
130.218
21
-64.432
0
LINE
8
BLACK
6
CONTINUOUS
10
130.218
20
-64.432
11
132.418
21
-64.432
0
LINE
8
BLACK
6
CONTINUOUS
10
132.418
20
-64.432
11
132.418
21
-66.632
0
LINE
8
BLACK
6
CONTINUOUS
10
132.418
20
-66.632
11
131.918
21
-66.632
0
LINE
8
BLACK
6
CONTINUOUS
10
131.918
20
-66.632
11
131.918
21
-68.1436
0
LINE
8
BLACK
6
CONTINUOUS
10
131.918
20
-68.1436
11
136.801
21
-73.027
0
LINE
8
BLACK
6
CONTINUOUS
10
136.801
20
-73.027
11
136.824
21
-73.0458
0
LINE
8
BLACK
6
CONTINUOUS
10
136.824
20
-73.0458
11
136.899
21
-73.1371
0
LINE
8
BLACK
6
CONTINUOUS
10
136.899
20
-73.1371
11
136.927
21
-73.1893
0
LINE
8
BLACK
6
CONTINUOUS
10
136.927
20
-73.1893
11
136.955
21
-73.2414
0
LINE
8
BLACK
6
CONTINUOUS
10
136.955
20
-73.2414
11
136.989
21
-73.3545
0
LINE
8
BLACK
6
CONTINUOUS
10
136.989
20
-73.3545
11
137.001
21
-73.4721
0
LINE
8
BLACK
6
CONTINUOUS
10
137.001
20
-73.4721
11
136.998
21
-73.5016
0
LINE
8
BLACK
6
CONTINUOUS
10
136.998
20
-73.5016
11
136.998
21
-76.878
0
LINE
8
BLACK
6
CONTINUOUS
10
136.998
20
-76.878
11
137.498
21
-76.878
0
LINE
8
BLACK
6
CONTINUOUS
10
148.166
20
-66.632
11
147.666
21
-66.632
0
LINE
8
BLACK
6
CONTINUOUS
10
147.666
20
-66.632
11
147.666
21
-67.8025
0
LINE
8
BLACK
6
CONTINUOUS
10
147.666
20
-67.8025
11
147.669
21
-67.832
0
LINE
8
BLACK
6
CONTINUOUS
10
147.669
20
-67.832
11
147.662
21
-67.899
0
LINE
8
BLACK
6
CONTINUOUS
10
147.662
20
-67.899
11
147.657
21
-67.9496
0
LINE
8
BLACK
6
CONTINUOUS
10
147.657
20
-67.9496
11
147.623
21
-68.0627
0
LINE
8
BLACK
6
CONTINUOUS
10
147.623
20
-68.0627
11
147.567
21
-68.167
0
LINE
8
BLACK
6
CONTINUOUS
10
147.567
20
-68.167
11
147.546
21
-68.193
0
LINE
8
BLACK
6
CONTINUOUS
10
147.546
20
-68.193
11
147.511
21
-68.2354
0
LINE
8
BLACK
6
CONTINUOUS
10
147.511
20
-68.2354
11
147.492
21
-68.2583
0
LINE
8
BLACK
6
CONTINUOUS
10
147.492
20
-68.2583
11
147.469
21
-68.2771
0
LINE
8
BLACK
6
CONTINUOUS
10
147.469
20
-68.2771
11
142.078
21
-73.6685
0
LINE
8
BLACK
6
CONTINUOUS
10
142.078
20
-73.6685
11
142.078
21
-76.878
0
LINE
8
BLACK
6
CONTINUOUS
10
142.078
20
-76.878
11
142.578
21
-76.878
0
LINE
8
BLACK
6
CONTINUOUS
10
142.578
20
-76.878
11
142.578
21
-79.078
0
LINE
8
BLACK
6
CONTINUOUS
10
142.578
20
-79.078
11
140.378
21
-79.078
0
LINE
8
BLACK
6
CONTINUOUS
10
140.378
20
-79.078
11
140.378
21
-76.878
0
LINE
8
BLACK
6
CONTINUOUS
10
140.378
20
-76.878
11
140.878
21
-76.878
0
LINE
8
BLACK
6
CONTINUOUS
10
140.878
20
-76.878
11
140.878
21
-73.4495
0
LINE
8
BLACK
6
CONTINUOUS
10
140.878
20
-73.4495
11
140.875
21
-73.42
0
LINE
8
BLACK
6
CONTINUOUS
10
140.875
20
-73.42
11
140.887
21
-73.3024
0
LINE
8
BLACK
6
CONTINUOUS
10
140.887
20
-73.3024
11
140.905
21
-73.2414
0
LINE
8
BLACK
6
CONTINUOUS
10
140.905
20
-73.2414
11
140.921
21
-73.1893
0
LINE
8
BLACK
6
CONTINUOUS
10
140.921
20
-73.1893
11
140.977
21
-73.085
0
LINE
8
BLACK
6
CONTINUOUS
10
140.977
20
-73.085
11
141.052
21
-72.9937
0
LINE
8
BLACK
6
CONTINUOUS
10
141.052
20
-72.9937
11
141.075
21
-72.9749
0
LINE
8
BLACK
6
CONTINUOUS
10
141.075
20
-72.9749
11
146.466
21
-67.5835
0
LINE
8
BLACK
6
CONTINUOUS
10
146.466
20
-67.5835
11
146.466
21
-66.632
0
LINE
8
BLACK
6
CONTINUOUS
10
146.466
20
-66.632
11
145.966
21
-66.632
0
LINE
8
BLACK
6
CONTINUOUS
10
145.966
20
-66.632
11
145.966
21
-64.432
0
LINE
8
BLACK
6
CONTINUOUS
10
145.966
20
-64.432
11
148.166
21
-64.432
0
LINE
8
BLACK
6
CONTINUOUS
10
148.166
20
-64.432
11
148.166
21
-66.632
0
LINE
8
BLACK
6
CONTINUOUS
10
132.418
20
-79.078
11
130.218
21
-79.078
0
LINE
8
BLACK
6
CONTINUOUS
10
130.218
20
-79.078
11
130.218
21
-76.878
0
LINE
8
BLACK
6
CONTINUOUS
10
130.218
20
-76.878
11
132.418
21
-76.878
0
LINE
8
BLACK
6
CONTINUOUS
10
132.418
20
-76.878
11
132.418
21
-79.078
0
LINE
8
BLACK
6
CONTINUOUS
10
127.846
20
-73.49
11
127.346
21
-73.49
0
LINE
8
BLACK
6
CONTINUOUS
10
127.346
20
-73.49
11
127.346
21
-77.4405
0
LINE
8
BLACK
6
CONTINUOUS
10
127.346
20
-77.4405
11
127.349
21
-77.47
0
LINE
8
BLACK
6
CONTINUOUS
10
127.349
20
-77.47
11
127.346
21
-77.4995
0
LINE
8
BLACK
6
CONTINUOUS
10
127.346
20
-77.4995
11
127.346
21
-77.4995
0
LINE
8
BLACK
6
CONTINUOUS
10
127.346
20
-77.4995
11
127.338
21
-77.5807
0
LINE
8
BLACK
6
CONTINUOUS
10
127.338
20
-77.5807
11
127.338
21
-79.078
0
LINE
8
BLACK
6
CONTINUOUS
10
127.338
20
-79.078
11
125.138
21
-79.078
0
LINE
8
BLACK
6
CONTINUOUS
10
125.138
20
-79.078
11
125.138
21
-76.878
0
LINE
8
BLACK
6
CONTINUOUS
10
125.138
20
-76.878
11
126.146
21
-76.878
0
LINE
8
BLACK
6
CONTINUOUS
10
126.146
20
-76.878
11
126.146
21
-73.49
0
LINE
8
BLACK
6
CONTINUOUS
10
126.146
20
-73.49
11
125.646
21
-73.49
0
LINE
8
BLACK
6
CONTINUOUS
10
125.646
20
-73.49
11
125.646
21
-71.29
0
LINE
8
BLACK
6
CONTINUOUS
10
125.646
20
-71.29
11
127.846
21
-71.29
0
LINE
8
BLACK
6
CONTINUOUS
10
127.846
20
-71.29
11
127.846
21
-73.49
0
LINE
8
BLACK
6
CONTINUOUS
10
129.878
20
-79.078
11
127.678
21
-79.078
0
LINE
8
BLACK
6
CONTINUOUS
10
127.678
20
-79.078
11
127.678
21
-76.878
0
LINE
8
BLACK
6
CONTINUOUS
10
127.678
20
-76.878
11
129.878
21
-76.878
0
LINE
8
BLACK
6
CONTINUOUS
10
129.878
20
-76.878
11
129.878
21
-79.078
0
LINE
8
BLACK
6
CONTINUOUS
10
124.798
20
-76.878
11
124.798
21
-79.078
0
LINE
8
BLACK
6
CONTINUOUS
10
124.798
20
-79.078
11
122.598
21
-79.078
0
LINE
8
BLACK
6
CONTINUOUS
10
122.598
20
-79.078
11
122.598
21
-76.878
0
LINE
8
BLACK
6
CONTINUOUS
10
122.598
20
-76.878
11
123.098
21
-76.878
0
LINE
8
BLACK
6
CONTINUOUS
10
123.098
20
-76.878
11
123.098
21
-75.6485
0
LINE
8
BLACK
6
CONTINUOUS
10
123.098
20
-75.6485
11
123.098
21
-75.6485
0
LINE
8
BLACK
6
CONTINUOUS
10
123.098
20
-75.6485
11
123.098
21
-68.9985
0
LINE
8
BLACK
6
CONTINUOUS
10
123.098
20
-68.9985
11
117.823
21
-63.724
0
LINE
8
BLACK
6
CONTINUOUS
10
117.823
20
-63.724
11
115.032
21
-63.724
0
LINE
8
BLACK
6
CONTINUOUS
10
115.032
20
-63.724
11
115.032
21
-69.0555
0
LINE
8
BLACK
6
CONTINUOUS
10
115.032
20
-69.0555
11
115.232
21
-69.2555
0
LINE
8
BLACK
6
CONTINUOUS
10
115.232
20
-69.2555
11
115.232
21
-69.004
0
LINE
8
BLACK
6
CONTINUOUS
10
115.232
20
-69.004
11
117.432
21
-69.004
0
LINE
8
BLACK
6
CONTINUOUS
10
117.432
20
-69.004
11
117.432
21
-71.204
0
LINE
8
BLACK
6
CONTINUOUS
10
117.432
20
-71.204
11
115.232
21
-71.204
0
LINE
8
BLACK
6
CONTINUOUS
10
115.232
20
-71.204
11
115.232
21
-70.7069
0
LINE
8
BLACK
6
CONTINUOUS
10
115.232
20
-70.7069
11
115.232
21
-70.7069
0
LINE
8
BLACK
6
CONTINUOUS
10
115.232
20
-70.7069
11
115.203
21
-70.704
0
LINE
8
BLACK
6
CONTINUOUS
10
115.203
20
-70.704
11
115.203
21
-70.704
0
LINE
8
BLACK
6
CONTINUOUS
10
115.203
20
-70.704
11
115.126
21
-70.6964
0
LINE
8
BLACK
6
CONTINUOUS
10
115.126
20
-70.6964
11
115.114
21
-70.6953
0
LINE
8
BLACK
6
CONTINUOUS
10
115.114
20
-70.6953
11
115.08
21
-70.6849
0
LINE
8
BLACK
6
CONTINUOUS
10
115.08
20
-70.6849
11
115.001
21
-70.661
0
LINE
8
BLACK
6
CONTINUOUS
10
115.001
20
-70.661
11
114.897
21
-70.6053
0
LINE
8
BLACK
6
CONTINUOUS
10
114.897
20
-70.6053
11
114.806
21
-70.5303
0
LINE
8
BLACK
6
CONTINUOUS
10
114.806
20
-70.5303
11
114.787
21
-70.5074
0
LINE
8
BLACK
6
CONTINUOUS
10
114.787
20
-70.5074
11
114.029
21
-69.7491
0
LINE
8
BLACK
6
CONTINUOUS
10
114.029
20
-69.7491
11
114.006
21
-69.7303
0
LINE
8
BLACK
6
CONTINUOUS
10
114.006
20
-69.7303
11
113.931
21
-69.639
0
LINE
8
BLACK
6
CONTINUOUS
10
113.931
20
-69.639
11
113.875
21
-69.5347
0
LINE
8
BLACK
6
CONTINUOUS
10
113.875
20
-69.5347
11
113.841
21
-69.4216
0
LINE
8
BLACK
6
CONTINUOUS
10
113.841
20
-69.4216
11
113.832
21
-69.3335
0
LINE
8
BLACK
6
CONTINUOUS
10
113.832
20
-69.3335
11
113.829
21
-69.304
0
LINE
8
BLACK
6
CONTINUOUS
10
113.829
20
-69.304
11
113.832
21
-69.2745
0
LINE
8
BLACK
6
CONTINUOUS
10
113.832
20
-69.2745
11
113.832
21
-63.3135
0
LINE
8
BLACK
6
CONTINUOUS
10
113.832
20
-63.3135
11
113.829
21
-63.284
0
LINE
8
BLACK
6
CONTINUOUS
10
113.829
20
-63.284
11
113.841
21
-63.1664
0
LINE
8
BLACK
6
CONTINUOUS
10
113.841
20
-63.1664
11
113.875
21
-63.0533
0
LINE
8
BLACK
6
CONTINUOUS
10
113.875
20
-63.0533
11
113.886
21
-63.032
0
LINE
8
BLACK
6
CONTINUOUS
10
113.886
20
-63.032
11
113.931
21
-62.949
0
LINE
8
BLACK
6
CONTINUOUS
10
113.931
20
-62.949
11
114.006
21
-62.8577
0
LINE
8
BLACK
6
CONTINUOUS
10
114.006
20
-62.8577
11
114.029
21
-62.8389
0
LINE
8
BLACK
6
CONTINUOUS
10
114.029
20
-62.8389
11
114.147
21
-62.7206
0
LINE
8
BLACK
6
CONTINUOUS
10
114.147
20
-62.7206
11
114.166
21
-62.6977
0
LINE
8
BLACK
6
CONTINUOUS
10
114.166
20
-62.6977
11
114.257
21
-62.6227
0
LINE
8
BLACK
6
CONTINUOUS
10
114.257
20
-62.6227
11
114.361
21
-62.567
0
LINE
8
BLACK
6
CONTINUOUS
10
114.361
20
-62.567
11
114.474
21
-62.5327
0
LINE
8
BLACK
6
CONTINUOUS
10
114.474
20
-62.5327
11
114.592
21
-62.5211
0
LINE
8
BLACK
6
CONTINUOUS
10
114.592
20
-62.5211
11
114.621
21
-62.524
0
LINE
8
BLACK
6
CONTINUOUS
10
114.621
20
-62.524
11
118.043
21
-62.524
0
LINE
8
BLACK
6
CONTINUOUS
10
118.043
20
-62.524
11
118.072
21
-62.5211
0
LINE
8
BLACK
6
CONTINUOUS
10
118.072
20
-62.5211
11
118.101
21
-62.524
0
LINE
8
BLACK
6
CONTINUOUS
10
118.101
20
-62.524
11
118.19
21
-62.5327
0
LINE
8
BLACK
6
CONTINUOUS
10
118.19
20
-62.5327
11
118.303
21
-62.567
0
LINE
8
BLACK
6
CONTINUOUS
10
118.303
20
-62.567
11
118.407
21
-62.6227
0
LINE
8
BLACK
6
CONTINUOUS
10
118.407
20
-62.6227
11
118.498
21
-62.6977
0
LINE
8
BLACK
6
CONTINUOUS
10
118.498
20
-62.6977
11
118.517
21
-62.7206
0
LINE
8
BLACK
6
CONTINUOUS
10
118.517
20
-62.7206
11
124.101
21
-68.3049
0
LINE
8
BLACK
6
CONTINUOUS
10
124.101
20
-68.3049
11
124.124
21
-68.3237
0
LINE
8
BLACK
6
CONTINUOUS
10
124.124
20
-68.3237
11
124.199
21
-68.415
0
LINE
8
BLACK
6
CONTINUOUS
10
124.199
20
-68.415
11
124.255
21
-68.5193
0
LINE
8
BLACK
6
CONTINUOUS
10
124.255
20
-68.5193
11
124.278
21
-68.5952
0
LINE
8
BLACK
6
CONTINUOUS
10
124.278
20
-68.5952
11
124.289
21
-68.6324
0
LINE
8
BLACK
6
CONTINUOUS
10
124.289
20
-68.6324
11
124.301
21
-68.75
0
LINE
8
BLACK
6
CONTINUOUS
10
124.301
20
-68.75
11
124.298
21
-68.7795
0
LINE
8
BLACK
6
CONTINUOUS
10
124.298
20
-68.7795
11
124.298
21
-76.878
0
LINE
8
BLACK
6
CONTINUOUS
10
124.298
20
-76.878
11
124.798
21
-76.878
0
LINE
8
BLACK
6
CONTINUOUS
10
122.258
20
-76.878
11
122.258
21
-79.078
0
LINE
8
BLACK
6
CONTINUOUS
10
122.258
20
-79.078
11
120.058
21
-79.078
0
LINE
8
BLACK
6
CONTINUOUS
10
120.058
20
-79.078
11
120.058
21
-76.878
0
LINE
8
BLACK
6
CONTINUOUS
10
120.058
20
-76.878
11
120.558
21
-76.878
0
LINE
8
BLACK
6
CONTINUOUS
10
120.558
20
-76.878
11
120.558
21
-75.6485
0
LINE
8
BLACK
6
CONTINUOUS
10
120.558
20
-75.6485
11
120.558
21
-75.6485
0
LINE
8
BLACK
6
CONTINUOUS
10
120.558
20
-75.6485
11
120.558
21
-68.9985
0
LINE
8
BLACK
6
CONTINUOUS
10
120.558
20
-68.9985
11
117.432
21
-65.8725
0
LINE
8
BLACK
6
CONTINUOUS
10
117.432
20
-65.8725
11
117.432
21
-66.124
0
LINE
8
BLACK
6
CONTINUOUS
10
117.432
20
-66.124
11
115.232
21
-66.124
0
LINE
8
BLACK
6
CONTINUOUS
10
115.232
20
-66.124
11
115.232
21
-63.924
0
LINE
8
BLACK
6
CONTINUOUS
10
115.232
20
-63.924
11
117.432
21
-63.924
0
LINE
8
BLACK
6
CONTINUOUS
10
117.432
20
-63.924
11
117.432
21
-64.4211
0
LINE
8
BLACK
6
CONTINUOUS
10
117.432
20
-64.4211
11
117.432
21
-64.4211
0
LINE
8
BLACK
6
CONTINUOUS
10
117.432
20
-64.4211
11
117.461
21
-64.424
0
LINE
8
BLACK
6
CONTINUOUS
10
117.461
20
-64.424
11
117.55
21
-64.4327
0
LINE
8
BLACK
6
CONTINUOUS
10
117.55
20
-64.4327
11
117.663
21
-64.467
0
LINE
8
BLACK
6
CONTINUOUS
10
117.663
20
-64.467
11
117.767
21
-64.5227
0
LINE
8
BLACK
6
CONTINUOUS
10
117.767
20
-64.5227
11
117.858
21
-64.5977
0
LINE
8
BLACK
6
CONTINUOUS
10
117.858
20
-64.5977
11
117.877
21
-64.6206
0
LINE
8
BLACK
6
CONTINUOUS
10
117.877
20
-64.6206
11
121.561
21
-68.3049
0
LINE
8
BLACK
6
CONTINUOUS
10
121.561
20
-68.3049
11
121.584
21
-68.3237
0
LINE
8
BLACK
6
CONTINUOUS
10
121.584
20
-68.3237
11
121.659
21
-68.415
0
LINE
8
BLACK
6
CONTINUOUS
10
121.659
20
-68.415
11
121.715
21
-68.5193
0
LINE
8
BLACK
6
CONTINUOUS
10
121.715
20
-68.5193
11
121.738
21
-68.5952
0
LINE
8
BLACK
6
CONTINUOUS
10
121.738
20
-68.5952
11
121.749
21
-68.6324
0
LINE
8
BLACK
6
CONTINUOUS
10
121.749
20
-68.6324
11
121.761
21
-68.75
0
LINE
8
BLACK
6
CONTINUOUS
10
121.761
20
-68.75
11
121.758
21
-68.7795
0
LINE
8
BLACK
6
CONTINUOUS
10
121.758
20
-68.7795
11
121.758
21
-76.878
0
LINE
8
BLACK
6
CONTINUOUS
10
121.758
20
-76.878
11
122.258
21
-76.878
0
LINE
8
BLACK
6
CONTINUOUS
10
145.118
20
-76.878
11
145.118
21
-79.078
0
LINE
8
BLACK
6
CONTINUOUS
10
145.118
20
-79.078
11
142.918
21
-79.078
0
LINE
8
BLACK
6
CONTINUOUS
10
142.918
20
-79.078
11
142.918
21
-76.878
0
LINE
8
BLACK
6
CONTINUOUS
10
142.918
20
-76.878
11
143.418
21
-76.878
0
LINE
8
BLACK
6
CONTINUOUS
10
143.418
20
-76.878
11
143.418
21
-75.6485
0
LINE
8
BLACK
6
CONTINUOUS
10
143.418
20
-75.6485
11
143.418
21
-75.6485
0
LINE
8
BLACK
6
CONTINUOUS
10
143.418
20
-75.6485
11
143.418
21
-73.4495
0
LINE
8
BLACK
6
CONTINUOUS
10
143.418
20
-73.4495
11
143.415
21
-73.42
0
LINE
8
BLACK
6
CONTINUOUS
10
143.415
20
-73.42
11
143.427
21
-73.3024
0
LINE
8
BLACK
6
CONTINUOUS
10
143.427
20
-73.3024
11
143.445
21
-73.2414
0
LINE
8
BLACK
6
CONTINUOUS
10
143.445
20
-73.2414
11
143.461
21
-73.1893
0
LINE
8
BLACK
6
CONTINUOUS
10
143.461
20
-73.1893
11
143.517
21
-73.085
0
LINE
8
BLACK
6
CONTINUOUS
10
143.517
20
-73.085
11
143.592
21
-72.9937
0
LINE
8
BLACK
6
CONTINUOUS
10
143.592
20
-72.9937
11
143.615
21
-72.9749
0
LINE
8
BLACK
6
CONTINUOUS
10
143.615
20
-72.9749
11
149.006
21
-67.5835
0
LINE
8
BLACK
6
CONTINUOUS
10
149.006
20
-67.5835
11
149.006
21
-66.632
0
LINE
8
BLACK
6
CONTINUOUS
10
149.006
20
-66.632
11
148.506
21
-66.632
0
LINE
8
BLACK
6
CONTINUOUS
10
148.506
20
-66.632
11
148.506
21
-64.432
0
LINE
8
BLACK
6
CONTINUOUS
10
148.506
20
-64.432
11
150.706
21
-64.432
0
LINE
8
BLACK
6
CONTINUOUS
10
150.706
20
-64.432
11
150.706
21
-66.632
0
LINE
8
BLACK
6
CONTINUOUS
10
150.706
20
-66.632
11
150.206
21
-66.632
0
LINE
8
BLACK
6
CONTINUOUS
10
150.206
20
-66.632
11
150.206
21
-67.8025
0
LINE
8
BLACK
6
CONTINUOUS
10
150.206
20
-67.8025
11
150.209
21
-67.832
0
LINE
8
BLACK
6
CONTINUOUS
10
150.209
20
-67.832
11
150.202
21
-67.899
0
LINE
8
BLACK
6
CONTINUOUS
10
150.202
20
-67.899
11
150.197
21
-67.9496
0
LINE
8
BLACK
6
CONTINUOUS
10
150.197
20
-67.9496
11
150.163
21
-68.0627
0
LINE
8
BLACK
6
CONTINUOUS
10
150.163
20
-68.0627
11
150.107
21
-68.167
0
LINE
8
BLACK
6
CONTINUOUS
10
150.107
20
-68.167
11
150.086
21
-68.193
0
LINE
8
BLACK
6
CONTINUOUS
10
150.086
20
-68.193
11
150.051
21
-68.2354
0
LINE
8
BLACK
6
CONTINUOUS
10
150.051
20
-68.2354
11
150.032
21
-68.2583
0
LINE
8
BLACK
6
CONTINUOUS
10
150.032
20
-68.2583
11
150.009
21
-68.2771
0
LINE
8
BLACK
6
CONTINUOUS
10
150.009
20
-68.2771
11
144.618
21
-73.6685
0
LINE
8
BLACK
6
CONTINUOUS
10
144.618
20
-73.6685
11
144.618
21
-76.878
0
LINE
8
BLACK
6
CONTINUOUS
10
144.618
20
-76.878
11
145.118
21
-76.878
0
LINE
8
BLACK
6
CONTINUOUS
10
147.658
20
-76.878
11
147.658
21
-79.078
0
LINE
8
BLACK
6
CONTINUOUS
10
147.658
20
-79.078
11
145.458
21
-79.078
0
LINE
8
BLACK
6
CONTINUOUS
10
145.458
20
-79.078
11
145.458
21
-76.878
0
LINE
8
BLACK
6
CONTINUOUS
10
145.458
20
-76.878
11
145.958
21
-76.878
0
LINE
8
BLACK
6
CONTINUOUS
10
145.958
20
-76.878
11
145.958
21
-75.6485
0
LINE
8
BLACK
6
CONTINUOUS
10
145.958
20
-75.6485
11
145.958
21
-75.6485
0
LINE
8
BLACK
6
CONTINUOUS
10
145.958
20
-75.6485
11
145.958
21
-73.4495
0
LINE
8
BLACK
6
CONTINUOUS
10
145.958
20
-73.4495
11
145.955
21
-73.42
0
LINE
8
BLACK
6
CONTINUOUS
10
145.955
20
-73.42
11
145.967
21
-73.3024
0
LINE
8
BLACK
6
CONTINUOUS
10
145.967
20
-73.3024
11
145.985
21
-73.2414
0
LINE
8
BLACK
6
CONTINUOUS
10
145.985
20
-73.2414
11
146.001
21
-73.1893
0
LINE
8
BLACK
6
CONTINUOUS
10
146.001
20
-73.1893
11
146.057
21
-73.085
0
LINE
8
BLACK
6
CONTINUOUS
10
146.057
20
-73.085
11
146.132
21
-72.9937
0
LINE
8
BLACK
6
CONTINUOUS
10
146.132
20
-72.9937
11
146.155
21
-72.9749
0
LINE
8
BLACK
6
CONTINUOUS
10
146.155
20
-72.9749
11
151.546
21
-67.5835
0
LINE
8
BLACK
6
CONTINUOUS
10
151.546
20
-67.5835
11
151.546
21
-66.632
0
LINE
8
BLACK
6
CONTINUOUS
10
151.546
20
-66.632
11
151.046
21
-66.632
0
LINE
8
BLACK
6
CONTINUOUS
10
151.046
20
-66.632
11
151.046
21
-64.432
0
LINE
8
BLACK
6
CONTINUOUS
10
151.046
20
-64.432
11
153.246
21
-64.432
0
LINE
8
BLACK
6
CONTINUOUS
10
153.246
20
-64.432
11
153.246
21
-66.632
0
LINE
8
BLACK
6
CONTINUOUS
10
153.246
20
-66.632
11
152.746
21
-66.632
0
LINE
8
BLACK
6
CONTINUOUS
10
152.746
20
-66.632
11
152.746
21
-67.8025
0
LINE
8
BLACK
6
CONTINUOUS
10
152.746
20
-67.8025
11
152.749
21
-67.832
0
LINE
8
BLACK
6
CONTINUOUS
10
152.749
20
-67.832
11
152.742
21
-67.899
0
LINE
8
BLACK
6
CONTINUOUS
10
152.742
20
-67.899
11
152.737
21
-67.9496
0
LINE
8
BLACK
6
CONTINUOUS
10
152.737
20
-67.9496
11
152.703
21
-68.0627
0
LINE
8
BLACK
6
CONTINUOUS
10
152.703
20
-68.0627
11
152.647
21
-68.167
0
LINE
8
BLACK
6
CONTINUOUS
10
152.647
20
-68.167
11
152.626
21
-68.193
0
LINE
8
BLACK
6
CONTINUOUS
10
152.626
20
-68.193
11
152.591
21
-68.2354
0
LINE
8
BLACK
6
CONTINUOUS
10
152.591
20
-68.2354
11
152.572
21
-68.2583
0
LINE
8
BLACK
6
CONTINUOUS
10
152.572
20
-68.2583
11
152.549
21
-68.2771
0
LINE
8
BLACK
6
CONTINUOUS
10
152.549
20
-68.2771
11
147.158
21
-73.6685
0
LINE
8
BLACK
6
CONTINUOUS
10
147.158
20
-73.6685
11
147.158
21
-76.878
0
LINE
8
BLACK
6
CONTINUOUS
10
147.158
20
-76.878
11
147.658
21
-76.878
0
LINE
8
BLACK
6
CONTINUOUS
10
119.718
20
-76.878
11
119.718
21
-79.078
0
LINE
8
BLACK
6
CONTINUOUS
10
119.718
20
-79.078
11
117.518
21
-79.078
0
LINE
8
BLACK
6
CONTINUOUS
10
117.518
20
-79.078
11
117.518
21
-76.878
0
LINE
8
BLACK
6
CONTINUOUS
10
117.518
20
-76.878
11
118.018
21
-76.878
0
LINE
8
BLACK
6
CONTINUOUS
10
118.018
20
-76.878
11
118.018
21
-75.6485
0
LINE
8
BLACK
6
CONTINUOUS
10
118.018
20
-75.6485
11
118.018
21
-75.6485
0
LINE
8
BLACK
6
CONTINUOUS
10
118.018
20
-75.6485
11
118.018
21
-68.9985
0
LINE
8
BLACK
6
CONTINUOUS
10
118.018
20
-68.9985
11
117.432
21
-68.4125
0
LINE
8
BLACK
6
CONTINUOUS
10
117.432
20
-68.4125
11
117.432
21
-68.664
0
LINE
8
BLACK
6
CONTINUOUS
10
117.432
20
-68.664
11
115.232
21
-68.664
0
LINE
8
BLACK
6
CONTINUOUS
10
115.232
20
-68.664
11
115.232
21
-66.464
0
LINE
8
BLACK
6
CONTINUOUS
10
115.232
20
-66.464
11
117.432
21
-66.464
0
LINE
8
BLACK
6
CONTINUOUS
10
117.432
20
-66.464
11
117.432
21
-66.9611
0
LINE
8
BLACK
6
CONTINUOUS
10
117.432
20
-66.9611
11
117.432
21
-66.9611
0
LINE
8
BLACK
6
CONTINUOUS
10
117.432
20
-66.9611
11
117.461
21
-66.964
0
LINE
8
BLACK
6
CONTINUOUS
10
117.461
20
-66.964
11
117.55
21
-66.9727
0
LINE
8
BLACK
6
CONTINUOUS
10
117.55
20
-66.9727
11
117.663
21
-67.007
0
LINE
8
BLACK
6
CONTINUOUS
10
117.663
20
-67.007
11
117.767
21
-67.0627
0
LINE
8
BLACK
6
CONTINUOUS
10
117.767
20
-67.0627
11
117.858
21
-67.1377
0
LINE
8
BLACK
6
CONTINUOUS
10
117.858
20
-67.1377
11
117.877
21
-67.1606
0
LINE
8
BLACK
6
CONTINUOUS
10
117.877
20
-67.1606
11
119.021
21
-68.3049
0
LINE
8
BLACK
6
CONTINUOUS
10
119.021
20
-68.3049
11
119.044
21
-68.3237
0
LINE
8
BLACK
6
CONTINUOUS
10
119.044
20
-68.3237
11
119.119
21
-68.415
0
LINE
8
BLACK
6
CONTINUOUS
10
119.119
20
-68.415
11
119.175
21
-68.5193
0
LINE
8
BLACK
6
CONTINUOUS
10
119.175
20
-68.5193
11
119.209
21
-68.6324
0
LINE
8
BLACK
6
CONTINUOUS
10
119.209
20
-68.6324
11
119.218
21
-68.7205
0
LINE
8
BLACK
6
CONTINUOUS
10
119.218
20
-68.7205
11
119.218
21
-68.7205
0
LINE
8
BLACK
6
CONTINUOUS
10
119.218
20
-68.7205
11
119.221
21
-68.75
0
LINE
8
BLACK
6
CONTINUOUS
10
119.221
20
-68.75
11
119.218
21
-68.7795
0
LINE
8
BLACK
6
CONTINUOUS
10
119.218
20
-68.7795
11
119.218
21
-76.878
0
LINE
8
BLACK
6
CONTINUOUS
10
119.218
20
-76.878
11
119.718
21
-76.878
0
LINE
8
BLACK
6
CONTINUOUS
10
165.946
20
-72.728
11
165.346
21
-72.728
0
LINE
8
BLACK
6
CONTINUOUS
10
165.346
20
-72.728
11
165.346
21
-76.878
0
LINE
8
BLACK
6
CONTINUOUS
10
165.346
20
-76.878
11
165.438
21
-76.878
0
LINE
8
BLACK
6
CONTINUOUS
10
165.438
20
-76.878
11
165.438
21
-79.078
0
LINE
8
BLACK
6
CONTINUOUS
10
165.438
20
-79.078
11
163.238
21
-79.078
0
LINE
8
BLACK
6
CONTINUOUS
10
163.238
20
-79.078
11
163.238
21
-76.878
0
LINE
8
BLACK
6
CONTINUOUS
10
163.238
20
-76.878
11
164.346
21
-76.878
0
LINE
8
BLACK
6
CONTINUOUS
10
164.346
20
-76.878
11
164.346
21
-72.728
0
LINE
8
BLACK
6
CONTINUOUS
10
164.346
20
-72.728
11
163.746
21
-72.728
0
LINE
8
BLACK
6
CONTINUOUS
10
163.746
20
-72.728
11
163.746
21
-70.528
0
LINE
8
BLACK
6
CONTINUOUS
10
163.746
20
-70.528
11
165.946
21
-70.528
0
LINE
8
BLACK
6
CONTINUOUS
10
165.946
20
-70.528
11
165.946
21
-72.728
0
LINE
8
BLACK
6
CONTINUOUS
10
159.85
20
-65.362
11
157.65
21
-65.362
0
LINE
8
BLACK
6
CONTINUOUS
10
157.65
20
-65.362
11
157.65
21
-64.862
0
LINE
8
BLACK
6
CONTINUOUS
10
157.65
20
-64.862
11
155.286
21
-64.862
0
LINE
8
BLACK
6
CONTINUOUS
10
155.286
20
-64.862
11
155.286
21
-67.7885
0
LINE
8
BLACK
6
CONTINUOUS
10
155.286
20
-67.7885
11
155.289
21
-67.818
0
LINE
8
BLACK
6
CONTINUOUS
10
155.289
20
-67.818
11
155.277
21
-67.9356
0
LINE
8
BLACK
6
CONTINUOUS
10
155.277
20
-67.9356
11
155.273
21
-67.9496
0
LINE
8
BLACK
6
CONTINUOUS
10
155.273
20
-67.9496
11
155.243
21
-68.0487
0
LINE
8
BLACK
6
CONTINUOUS
10
155.243
20
-68.0487
11
155.187
21
-68.153
0
LINE
8
BLACK
6
CONTINUOUS
10
155.187
20
-68.153
11
155.112
21
-68.2443
0
LINE
8
BLACK
6
CONTINUOUS
10
155.112
20
-68.2443
11
155.089
21
-68.2631
0
LINE
8
BLACK
6
CONTINUOUS
10
155.089
20
-68.2631
11
149.698
21
-73.6545
0
LINE
8
BLACK
6
CONTINUOUS
10
149.698
20
-73.6545
11
149.698
21
-76.878
0
LINE
8
BLACK
6
CONTINUOUS
10
149.698
20
-76.878
11
150.198
21
-76.878
0
LINE
8
BLACK
6
CONTINUOUS
10
150.198
20
-76.878
11
150.198
21
-79.078
0
LINE
8
BLACK
6
CONTINUOUS
10
150.198
20
-79.078
11
147.998
21
-79.078
0
LINE
8
BLACK
6
CONTINUOUS
10
147.998
20
-79.078
11
147.998
21
-76.878
0
LINE
8
BLACK
6
CONTINUOUS
10
147.998
20
-76.878
11
148.498
21
-76.878
0
LINE
8
BLACK
6
CONTINUOUS
10
148.498
20
-76.878
11
148.498
21
-73.4355
0
LINE
8
BLACK
6
CONTINUOUS
10
148.498
20
-73.4355
11
148.495
21
-73.406
0
LINE
8
BLACK
6
CONTINUOUS
10
148.495
20
-73.406
11
148.507
21
-73.2884
0
LINE
8
BLACK
6
CONTINUOUS
10
148.507
20
-73.2884
11
148.512
21
-73.2722
0
LINE
8
BLACK
6
CONTINUOUS
10
148.512
20
-73.2722
11
148.541
21
-73.1753
0
LINE
8
BLACK
6
CONTINUOUS
10
148.541
20
-73.1753
11
148.597
21
-73.071
0
LINE
8
BLACK
6
CONTINUOUS
10
148.597
20
-73.071
11
148.672
21
-72.9797
0
LINE
8
BLACK
6
CONTINUOUS
10
148.672
20
-72.9797
11
148.695
21
-72.9609
0
LINE
8
BLACK
6
CONTINUOUS
10
148.695
20
-72.9609
11
154.086
21
-67.5695
0
LINE
8
BLACK
6
CONTINUOUS
10
154.086
20
-67.5695
11
154.086
21
-64.2915
0
LINE
8
BLACK
6
CONTINUOUS
10
154.086
20
-64.2915
11
154.083
21
-64.262
0
LINE
8
BLACK
6
CONTINUOUS
10
154.083
20
-64.262
11
154.095
21
-64.1444
0
LINE
8
BLACK
6
CONTINUOUS
10
154.095
20
-64.1444
11
154.129
21
-64.0313
0
LINE
8
BLACK
6
CONTINUOUS
10
154.129
20
-64.0313
11
154.185
21
-63.927
0
LINE
8
BLACK
6
CONTINUOUS
10
154.185
20
-63.927
11
154.26
21
-63.8357
0
LINE
8
BLACK
6
CONTINUOUS
10
154.26
20
-63.8357
11
154.351
21
-63.7607
0
LINE
8
BLACK
6
CONTINUOUS
10
154.351
20
-63.7607
11
154.455
21
-63.705
0
LINE
8
BLACK
6
CONTINUOUS
10
154.455
20
-63.705
11
154.568
21
-63.6707
0
LINE
8
BLACK
6
CONTINUOUS
10
154.568
20
-63.6707
11
154.657
21
-63.662
0
LINE
8
BLACK
6
CONTINUOUS
10
154.657
20
-63.662
11
154.686
21
-63.6591
0
LINE
8
BLACK
6
CONTINUOUS
10
154.686
20
-63.6591
11
154.715
21
-63.662
0
LINE
8
BLACK
6
CONTINUOUS
10
154.715
20
-63.662
11
157.65
21
-63.662
0
LINE
8
BLACK
6
CONTINUOUS
10
157.65
20
-63.662
11
157.65
21
-63.162
0
LINE
8
BLACK
6
CONTINUOUS
10
157.65
20
-63.162
11
159.85
21
-63.162
0
LINE
8
BLACK
6
CONTINUOUS
10
159.85
20
-63.162
11
159.85
21
-65.362
0
LINE
8
BLACK
6
CONTINUOUS
10
159.85
20
-67.902
11
157.65
21
-67.902
0
LINE
8
BLACK
6
CONTINUOUS
10
157.65
20
-67.902
11
157.65
21
-67.6824
0
LINE
8
BLACK
6
CONTINUOUS
10
157.65
20
-67.6824
11
152.238
21
-73.0944
0
LINE
8
BLACK
6
CONTINUOUS
10
152.238
20
-73.0944
11
152.238
21
-76.878
0
LINE
8
BLACK
6
CONTINUOUS
10
152.238
20
-76.878
11
152.738
21
-76.878
0
LINE
8
BLACK
6
CONTINUOUS
10
152.738
20
-76.878
11
152.738
21
-79.078
0
LINE
8
BLACK
6
CONTINUOUS
10
152.738
20
-79.078
11
150.538
21
-79.078
0
LINE
8
BLACK
6
CONTINUOUS
10
150.538
20
-79.078
11
150.538
21
-76.878
0
LINE
8
BLACK
6
CONTINUOUS
10
150.538
20
-76.878
11
151.038
21
-76.878
0
LINE
8
BLACK
6
CONTINUOUS
10
151.038
20
-76.878
11
151.038
21
-72.8754
0
LINE
8
BLACK
6
CONTINUOUS
10
151.038
20
-72.8754
11
151.035
21
-72.8459
0
LINE
8
BLACK
6
CONTINUOUS
10
151.035
20
-72.8459
11
151.047
21
-72.7283
0
LINE
8
BLACK
6
CONTINUOUS
10
151.047
20
-72.7283
11
151.061
21
-72.6813
0
LINE
8
BLACK
6
CONTINUOUS
10
151.061
20
-72.6813
11
151.081
21
-72.6152
0
LINE
8
BLACK
6
CONTINUOUS
10
151.081
20
-72.6152
11
151.137
21
-72.511
0
LINE
8
BLACK
6
CONTINUOUS
10
151.137
20
-72.511
11
151.212
21
-72.4196
0
LINE
8
BLACK
6
CONTINUOUS
10
151.212
20
-72.4196
11
151.235
21
-72.4008
0
LINE
8
BLACK
6
CONTINUOUS
10
151.235
20
-72.4008
11
157.237
21
-66.3986
0
LINE
8
BLACK
6
CONTINUOUS
10
157.237
20
-66.3986
11
157.256
21
-66.3757
0
LINE
8
BLACK
6
CONTINUOUS
10
157.256
20
-66.3757
11
157.347
21
-66.3007
0
LINE
8
BLACK
6
CONTINUOUS
10
157.347
20
-66.3007
11
157.451
21
-66.245
0
LINE
8
BLACK
6
CONTINUOUS
10
157.451
20
-66.245
11
157.564
21
-66.2107
0
LINE
8
BLACK
6
CONTINUOUS
10
157.564
20
-66.2107
11
157.65
21
-66.2022
0
LINE
8
BLACK
6
CONTINUOUS
10
157.65
20
-66.2022
11
157.65
21
-65.702
0
LINE
8
BLACK
6
CONTINUOUS
10
157.65
20
-65.702
11
159.85
21
-65.702
0
LINE
8
BLACK
6
CONTINUOUS
10
159.85
20
-65.702
11
159.85
21
-67.902
0
LINE
8
BLACK
6
CONTINUOUS
10
159.85
20
-70.442
11
157.65
21
-70.442
0
LINE
8
BLACK
6
CONTINUOUS
10
157.65
20
-70.442
11
157.65
21
-69.942
0
LINE
8
BLACK
6
CONTINUOUS
10
157.65
20
-69.942
11
157.37
21
-69.942
0
LINE
8
BLACK
6
CONTINUOUS
10
157.37
20
-69.942
11
154.778
21
-72.5344
0
LINE
8
BLACK
6
CONTINUOUS
10
154.778
20
-72.5344
11
154.778
21
-76.878
0
LINE
8
BLACK
6
CONTINUOUS
10
154.778
20
-76.878
11
155.278
21
-76.878
0
LINE
8
BLACK
6
CONTINUOUS
10
155.278
20
-76.878
11
155.278
21
-79.078
0
LINE
8
BLACK
6
CONTINUOUS
10
155.278
20
-79.078
11
153.078
21
-79.078
0
LINE
8
BLACK
6
CONTINUOUS
10
153.078
20
-79.078
11
153.078
21
-76.878
0
LINE
8
BLACK
6
CONTINUOUS
10
153.078
20
-76.878
11
153.578
21
-76.878
0
LINE
8
BLACK
6
CONTINUOUS
10
153.578
20
-76.878
11
153.578
21
-72.3153
0
LINE
8
BLACK
6
CONTINUOUS
10
153.578
20
-72.3153
11
153.575
21
-72.2858
0
LINE
8
BLACK
6
CONTINUOUS
10
153.575
20
-72.2858
11
153.587
21
-72.1682
0
LINE
8
BLACK
6
CONTINUOUS
10
153.587
20
-72.1682
11
153.601
21
-72.1223
0
LINE
8
BLACK
6
CONTINUOUS
10
153.601
20
-72.1223
11
153.621
21
-72.0551
0
LINE
8
BLACK
6
CONTINUOUS
10
153.621
20
-72.0551
11
153.677
21
-71.9509
0
LINE
8
BLACK
6
CONTINUOUS
10
153.677
20
-71.9509
11
153.752
21
-71.8595
0
LINE
8
BLACK
6
CONTINUOUS
10
153.752
20
-71.8595
11
153.775
21
-71.8407
0
LINE
8
BLACK
6
CONTINUOUS
10
153.775
20
-71.8407
11
156.677
21
-68.9386
0
LINE
8
BLACK
6
CONTINUOUS
10
156.677
20
-68.9386
11
156.696
21
-68.9157
0
LINE
8
BLACK
6
CONTINUOUS
10
156.696
20
-68.9157
11
156.787
21
-68.8407
0
LINE
8
BLACK
6
CONTINUOUS
10
156.787
20
-68.8407
11
156.891
21
-68.785
0
LINE
8
BLACK
6
CONTINUOUS
10
156.891
20
-68.785
11
156.97
21
-68.7611
0
LINE
8
BLACK
6
CONTINUOUS
10
156.97
20
-68.7611
11
157.004
21
-68.7507
0
LINE
8
BLACK
6
CONTINUOUS
10
157.004
20
-68.7507
11
157.122
21
-68.7391
0
LINE
8
BLACK
6
CONTINUOUS
10
157.122
20
-68.7391
11
157.151
21
-68.742
0
LINE
8
BLACK
6
CONTINUOUS
10
157.151
20
-68.742
11
157.65
21
-68.742
0
LINE
8
BLACK
6
CONTINUOUS
10
157.65
20
-68.742
11
157.65
21
-68.242
0
LINE
8
BLACK
6
CONTINUOUS
10
157.65
20
-68.242
11
159.85
21
-68.242
0
LINE
8
BLACK
6
CONTINUOUS
10
159.85
20
-68.242
11
159.85
21
-70.442
0
LINE
8
BLACK
6
CONTINUOUS
10
157.818
20
-76.878
11
157.818
21
-79.078
0
LINE
8
BLACK
6
CONTINUOUS
10
157.818
20
-79.078
11
155.618
21
-79.078
0
LINE
8
BLACK
6
CONTINUOUS
10
155.618
20
-79.078
11
155.618
21
-76.878
0
LINE
8
BLACK
6
CONTINUOUS
10
155.618
20
-76.878
11
156.218
21
-76.878
0
LINE
8
BLACK
6
CONTINUOUS
10
156.218
20
-76.878
11
156.218
21
-75.8534
0
LINE
8
BLACK
6
CONTINUOUS
10
156.218
20
-75.8534
11
156.218
21
-75.8534
0
LINE
8
BLACK
6
CONTINUOUS
10
156.218
20
-75.8534
11
156.218
21
-74.8586
0
LINE
8
BLACK
6
CONTINUOUS
10
156.218
20
-74.8586
11
156.216
21
-74.834
0
LINE
8
BLACK
6
CONTINUOUS
10
156.216
20
-74.834
11
156.225
21
-74.736
0
LINE
8
BLACK
6
CONTINUOUS
10
156.225
20
-74.736
11
156.236
21
-74.7011
0
LINE
8
BLACK
6
CONTINUOUS
10
156.236
20
-74.7011
11
156.254
21
-74.6417
0
LINE
8
BLACK
6
CONTINUOUS
10
156.254
20
-74.6417
11
156.3
21
-74.5549
0
LINE
8
BLACK
6
CONTINUOUS
10
156.3
20
-74.5549
11
156.363
21
-74.4787
0
LINE
8
BLACK
6
CONTINUOUS
10
156.363
20
-74.4787
11
156.382
21
-74.4631
0
LINE
8
BLACK
6
CONTINUOUS
10
156.382
20
-74.4631
11
160.05
21
-70.7949
0
LINE
8
BLACK
6
CONTINUOUS
10
160.05
20
-70.7949
11
160.05
21
-64.0106
0
LINE
8
BLACK
6
CONTINUOUS
10
160.05
20
-64.0106
11
160.048
21
-63.986
0
LINE
8
BLACK
6
CONTINUOUS
10
160.048
20
-63.986
11
160.057
21
-63.888
0
LINE
8
BLACK
6
CONTINUOUS
10
160.057
20
-63.888
11
160.069
21
-63.8497
0
LINE
8
BLACK
6
CONTINUOUS
10
160.069
20
-63.8497
11
160.086
21
-63.7937
0
LINE
8
BLACK
6
CONTINUOUS
10
160.086
20
-63.7937
11
160.132
21
-63.7069
0
LINE
8
BLACK
6
CONTINUOUS
10
160.132
20
-63.7069
11
160.195
21
-63.6307
0
LINE
8
BLACK
6
CONTINUOUS
10
160.195
20
-63.6307
11
160.214
21
-63.6151
0
LINE
8
BLACK
6
CONTINUOUS
10
160.214
20
-63.6151
11
161.957
21
-61.8718
0
LINE
8
BLACK
6
CONTINUOUS
10
161.957
20
-61.8718
11
161.973
21
-61.8527
0
LINE
8
BLACK
6
CONTINUOUS
10
161.973
20
-61.8527
11
162.049
21
-61.7903
0
LINE
8
BLACK
6
CONTINUOUS
10
162.049
20
-61.7903
11
162.136
21
-61.7438
0
LINE
8
BLACK
6
CONTINUOUS
10
162.136
20
-61.7438
11
162.23
21
-61.7152
0
LINE
8
BLACK
6
CONTINUOUS
10
162.23
20
-61.7152
11
162.303
21
-61.708
0
LINE
8
BLACK
6
CONTINUOUS
10
162.303
20
-61.708
11
162.328
21
-61.7056
0
LINE
8
BLACK
6
CONTINUOUS
10
162.328
20
-61.7056
11
162.353
21
-61.708
0
LINE
8
BLACK
6
CONTINUOUS
10
162.353
20
-61.708
11
166.481
21
-61.708
0
LINE
8
BLACK
6
CONTINUOUS
10
166.481
20
-61.708
11
166.506
21
-61.7056
0
LINE
8
BLACK
6
CONTINUOUS
10
166.506
20
-61.7056
11
166.531
21
-61.708
0
LINE
8
BLACK
6
CONTINUOUS
10
166.531
20
-61.708
11
166.604
21
-61.7152
0
LINE
8
BLACK
6
CONTINUOUS
10
166.604
20
-61.7152
11
166.698
21
-61.7438
0
LINE
8
BLACK
6
CONTINUOUS
10
166.698
20
-61.7438
11
166.785
21
-61.7903
0
LINE
8
BLACK
6
CONTINUOUS
10
166.785
20
-61.7903
11
166.861
21
-61.8527
0
LINE
8
BLACK
6
CONTINUOUS
10
166.861
20
-61.8527
11
166.877
21
-61.8718
0
LINE
8
BLACK
6
CONTINUOUS
10
166.877
20
-61.8718
11
166.982
21
-61.9771
0
LINE
8
BLACK
6
CONTINUOUS
10
166.982
20
-61.9771
11
167.001
21
-61.9927
0
LINE
8
BLACK
6
CONTINUOUS
10
167.001
20
-61.9927
11
167.064
21
-62.0689
0
LINE
8
BLACK
6
CONTINUOUS
10
167.064
20
-62.0689
11
167.11
21
-62.1557
0
LINE
8
BLACK
6
CONTINUOUS
10
167.11
20
-62.1557
11
167.13
21
-62.2219
0
LINE
8
BLACK
6
CONTINUOUS
10
167.13
20
-62.2219
11
167.139
21
-62.25
0
LINE
8
BLACK
6
CONTINUOUS
10
167.139
20
-62.25
11
167.148
21
-62.348
0
LINE
8
BLACK
6
CONTINUOUS
10
167.148
20
-62.348
11
167.146
21
-62.3726
0
LINE
8
BLACK
6
CONTINUOUS
10
167.146
20
-62.3726
11
167.146
21
-68.1834
0
LINE
8
BLACK
6
CONTINUOUS
10
167.146
20
-68.1834
11
167.148
21
-68.208
0
LINE
8
BLACK
6
CONTINUOUS
10
167.148
20
-68.208
11
167.146
21
-68.2326
0
LINE
8
BLACK
6
CONTINUOUS
10
167.146
20
-68.2326
11
167.146
21
-68.2326
0
LINE
8
BLACK
6
CONTINUOUS
10
167.146
20
-68.2326
11
167.139
21
-68.306
0
LINE
8
BLACK
6
CONTINUOUS
10
167.139
20
-68.306
11
167.11
21
-68.4003
0
LINE
8
BLACK
6
CONTINUOUS
10
167.11
20
-68.4003
11
167.064
21
-68.4871
0
LINE
8
BLACK
6
CONTINUOUS
10
167.064
20
-68.4871
11
167.001
21
-68.5633
0
LINE
8
BLACK
6
CONTINUOUS
10
167.001
20
-68.5633
11
166.982
21
-68.5789
0
LINE
8
BLACK
6
CONTINUOUS
10
166.982
20
-68.5789
11
166.137
21
-69.4242
0
LINE
8
BLACK
6
CONTINUOUS
10
166.137
20
-69.4242
11
166.121
21
-69.4433
0
LINE
8
BLACK
6
CONTINUOUS
10
166.121
20
-69.4433
11
166.045
21
-69.5057
0
LINE
8
BLACK
6
CONTINUOUS
10
166.045
20
-69.5057
11
165.958
21
-69.5522
0
LINE
8
BLACK
6
CONTINUOUS
10
165.958
20
-69.5522
11
165.946
21
-69.5559
0
LINE
8
BLACK
6
CONTINUOUS
10
165.946
20
-69.5559
11
165.946
21
-70.188
0
LINE
8
BLACK
6
CONTINUOUS
10
165.946
20
-70.188
11
163.746
21
-70.188
0
LINE
8
BLACK
6
CONTINUOUS
10
163.746
20
-70.188
11
163.746
21
-67.988
0
LINE
8
BLACK
6
CONTINUOUS
10
163.746
20
-67.988
11
165.946
21
-67.988
0
LINE
8
BLACK
6
CONTINUOUS
10
165.946
20
-67.988
11
165.946
21
-68.2009
0
LINE
8
BLACK
6
CONTINUOUS
10
165.946
20
-68.2009
11
166.146
21
-68.0009
0
LINE
8
BLACK
6
CONTINUOUS
10
166.146
20
-68.0009
11
166.146
21
-62.708
0
LINE
8
BLACK
6
CONTINUOUS
10
166.146
20
-62.708
11
162.535
21
-62.708
0
LINE
8
BLACK
6
CONTINUOUS
10
162.535
20
-62.708
11
161.05
21
-64.1931
0
LINE
8
BLACK
6
CONTINUOUS
10
161.05
20
-64.1931
11
161.05
21
-70.9774
0
LINE
8
BLACK
6
CONTINUOUS
10
161.05
20
-70.9774
11
161.052
21
-71.002
0
LINE
8
BLACK
6
CONTINUOUS
10
161.052
20
-71.002
11
161.05
21
-71.0266
0
LINE
8
BLACK
6
CONTINUOUS
10
161.05
20
-71.0266
11
161.043
21
-71.1
0
LINE
8
BLACK
6
CONTINUOUS
10
161.043
20
-71.1
11
161.014
21
-71.1943
0
LINE
8
BLACK
6
CONTINUOUS
10
161.014
20
-71.1943
11
160.968
21
-71.2811
0
LINE
8
BLACK
6
CONTINUOUS
10
160.968
20
-71.2811
11
160.905
21
-71.3573
0
LINE
8
BLACK
6
CONTINUOUS
10
160.905
20
-71.3573
11
160.886
21
-71.3729
0
LINE
8
BLACK
6
CONTINUOUS
10
160.886
20
-71.3729
11
157.218
21
-75.0411
0
LINE
8
BLACK
6
CONTINUOUS
10
157.218
20
-75.0411
11
157.218
21
-76.878
0
LINE
8
BLACK
6
CONTINUOUS
10
157.218
20
-76.878
11
157.818
21
-76.878
0
LINE
8
BLACK
6
CONTINUOUS
10
160.358
20
-76.878
11
160.358
21
-79.078
0
LINE
8
BLACK
6
CONTINUOUS
10
160.358
20
-79.078
11
158.158
21
-79.078
0
LINE
8
BLACK
6
CONTINUOUS
10
158.158
20
-79.078
11
158.158
21
-76.878
0
LINE
8
BLACK
6
CONTINUOUS
10
158.158
20
-76.878
11
158.758
21
-76.878
0
LINE
8
BLACK
6
CONTINUOUS
10
158.758
20
-76.878
11
158.758
21
-75.8534
0
LINE
8
BLACK
6
CONTINUOUS
10
158.758
20
-75.8534
11
158.758
21
-75.8534
0
LINE
8
BLACK
6
CONTINUOUS
10
158.758
20
-75.8534
11
158.758
21
-74.4466
0
LINE
8
BLACK
6
CONTINUOUS
10
158.758
20
-74.4466
11
158.756
21
-74.422
0
LINE
8
BLACK
6
CONTINUOUS
10
158.756
20
-74.422
11
158.765
21
-74.324
0
LINE
8
BLACK
6
CONTINUOUS
10
158.765
20
-74.324
11
158.784
21
-74.2618
0
LINE
8
BLACK
6
CONTINUOUS
10
158.784
20
-74.2618
11
158.794
21
-74.2297
0
LINE
8
BLACK
6
CONTINUOUS
10
158.794
20
-74.2297
11
158.84
21
-74.1429
0
LINE
8
BLACK
6
CONTINUOUS
10
158.84
20
-74.1429
11
158.903
21
-74.0667
0
LINE
8
BLACK
6
CONTINUOUS
10
158.903
20
-74.0667
11
158.922
21
-74.0511
0
LINE
8
BLACK
6
CONTINUOUS
10
158.922
20
-74.0511
11
161.25
21
-71.7229
0
LINE
8
BLACK
6
CONTINUOUS
10
161.25
20
-71.7229
11
161.25
21
-64.5885
0
LINE
8
BLACK
6
CONTINUOUS
10
161.25
20
-64.5885
11
161.248
21
-64.564
0
LINE
8
BLACK
6
CONTINUOUS
10
161.248
20
-64.564
11
161.257
21
-64.466
0
LINE
8
BLACK
6
CONTINUOUS
10
161.257
20
-64.466
11
161.267
21
-64.4327
0
LINE
8
BLACK
6
CONTINUOUS
10
161.267
20
-64.4327
11
161.286
21
-64.3717
0
LINE
8
BLACK
6
CONTINUOUS
10
161.286
20
-64.3717
11
161.332
21
-64.2849
0
LINE
8
BLACK
6
CONTINUOUS
10
161.332
20
-64.2849
11
161.395
21
-64.2087
0
LINE
8
BLACK
6
CONTINUOUS
10
161.395
20
-64.2087
11
161.414
21
-64.1931
0
LINE
8
BLACK
6
CONTINUOUS
10
161.414
20
-64.1931
11
161.935
21
-63.6718
0
LINE
8
BLACK
6
CONTINUOUS
10
161.935
20
-63.6718
11
161.951
21
-63.6527
0
LINE
8
BLACK
6
CONTINUOUS
10
161.951
20
-63.6527
11
162.027
21
-63.5903
0
LINE
8
BLACK
6
CONTINUOUS
10
162.027
20
-63.5903
11
162.114
21
-63.5438
0
LINE
8
BLACK
6
CONTINUOUS
10
162.114
20
-63.5438
11
162.208
21
-63.5152
0
LINE
8
BLACK
6
CONTINUOUS
10
162.208
20
-63.5152
11
162.281
21
-63.508
0
LINE
8
BLACK
6
CONTINUOUS
10
162.281
20
-63.508
11
162.281
21
-63.508
0
LINE
8
BLACK
6
CONTINUOUS
10
162.281
20
-63.508
11
162.306
21
-63.5056
0
LINE
8
BLACK
6
CONTINUOUS
10
162.306
20
-63.5056
11
162.331
21
-63.508
0
LINE
8
BLACK
6
CONTINUOUS
10
162.331
20
-63.508
11
163.746
21
-63.508
0
LINE
8
BLACK
6
CONTINUOUS
10
163.746
20
-63.508
11
163.746
21
-62.908
0
LINE
8
BLACK
6
CONTINUOUS
10
163.746
20
-62.908
11
165.946
21
-62.908
0
LINE
8
BLACK
6
CONTINUOUS
10
165.946
20
-62.908
11
165.946
21
-65.108
0
LINE
8
BLACK
6
CONTINUOUS
10
165.946
20
-65.108
11
163.746
21
-65.108
0
LINE
8
BLACK
6
CONTINUOUS
10
163.746
20
-65.108
11
163.746
21
-64.508
0
LINE
8
BLACK
6
CONTINUOUS
10
163.746
20
-64.508
11
162.513
21
-64.508
0
LINE
8
BLACK
6
CONTINUOUS
10
162.513
20
-64.508
11
162.25
21
-64.7711
0
LINE
8
BLACK
6
CONTINUOUS
10
162.25
20
-64.7711
11
162.25
21
-71.9054
0
LINE
8
BLACK
6
CONTINUOUS
10
162.25
20
-71.9054
11
162.252
21
-71.93
0
LINE
8
BLACK
6
CONTINUOUS
10
162.252
20
-71.93
11
162.25
21
-71.9545
0
LINE
8
BLACK
6
CONTINUOUS
10
162.25
20
-71.9545
11
162.243
21
-72.028
0
LINE
8
BLACK
6
CONTINUOUS
10
162.243
20
-72.028
11
162.214
21
-72.1223
0
LINE
8
BLACK
6
CONTINUOUS
10
162.214
20
-72.1223
11
162.168
21
-72.2091
0
LINE
8
BLACK
6
CONTINUOUS
10
162.168
20
-72.2091
11
162.105
21
-72.2853
0
LINE
8
BLACK
6
CONTINUOUS
10
162.105
20
-72.2853
11
162.086
21
-72.3009
0
LINE
8
BLACK
6
CONTINUOUS
10
162.086
20
-72.3009
11
159.758
21
-74.6291
0
LINE
8
BLACK
6
CONTINUOUS
10
159.758
20
-74.6291
11
159.758
21
-76.878
0
LINE
8
BLACK
6
CONTINUOUS
10
159.758
20
-76.878
11
160.358
21
-76.878
0
LINE
8
BLACK
6
CONTINUOUS
10
165.946
20
-67.648
11
163.746
21
-67.648
0
LINE
8
BLACK
6
CONTINUOUS
10
163.746
20
-67.648
11
163.746
21
-67.4351
0
LINE
8
BLACK
6
CONTINUOUS
10
163.746
20
-67.4351
11
163.45
21
-67.7311
0
LINE
8
BLACK
6
CONTINUOUS
10
163.45
20
-67.7311
11
163.45
21
-74.7014
0
LINE
8
BLACK
6
CONTINUOUS
10
163.45
20
-74.7014
11
163.452
21
-74.726
0
LINE
8
BLACK
6
CONTINUOUS
10
163.452
20
-74.726
11
163.45
21
-74.7505
0
LINE
8
BLACK
6
CONTINUOUS
10
163.45
20
-74.7505
11
163.443
21
-74.824
0
LINE
8
BLACK
6
CONTINUOUS
10
163.443
20
-74.824
11
163.414
21
-74.9182
0
LINE
8
BLACK
6
CONTINUOUS
10
163.414
20
-74.9182
11
163.368
21
-75.0051
0
LINE
8
BLACK
6
CONTINUOUS
10
163.368
20
-75.0051
11
163.305
21
-75.0812
0
LINE
8
BLACK
6
CONTINUOUS
10
163.305
20
-75.0812
11
163.286
21
-75.0969
0
LINE
8
BLACK
6
CONTINUOUS
10
163.286
20
-75.0969
11
162.298
21
-76.0851
0
LINE
8
BLACK
6
CONTINUOUS
10
162.298
20
-76.0851
11
162.298
21
-76.878
0
LINE
8
BLACK
6
CONTINUOUS
10
162.298
20
-76.878
11
162.898
21
-76.878
0
LINE
8
BLACK
6
CONTINUOUS
10
162.898
20
-76.878
11
162.898
21
-79.078
0
LINE
8
BLACK
6
CONTINUOUS
10
162.898
20
-79.078
11
160.698
21
-79.078
0
LINE
8
BLACK
6
CONTINUOUS
10
160.698
20
-79.078
11
160.698
21
-76.878
0
LINE
8
BLACK
6
CONTINUOUS
10
160.698
20
-76.878
11
161.298
21
-76.878
0
LINE
8
BLACK
6
CONTINUOUS
10
161.298
20
-76.878
11
161.298
21
-75.9026
0
LINE
8
BLACK
6
CONTINUOUS
10
161.298
20
-75.9026
11
161.296
21
-75.878
0
LINE
8
BLACK
6
CONTINUOUS
10
161.296
20
-75.878
11
161.305
21
-75.78
0
LINE
8
BLACK
6
CONTINUOUS
10
161.305
20
-75.78
11
161.314
21
-75.7514
0
LINE
8
BLACK
6
CONTINUOUS
10
161.314
20
-75.7514
11
161.334
21
-75.6857
0
LINE
8
BLACK
6
CONTINUOUS
10
161.334
20
-75.6857
11
161.38
21
-75.5989
0
LINE
8
BLACK
6
CONTINUOUS
10
161.38
20
-75.5989
11
161.443
21
-75.5227
0
LINE
8
BLACK
6
CONTINUOUS
10
161.443
20
-75.5227
11
161.462
21
-75.5071
0
LINE
8
BLACK
6
CONTINUOUS
10
161.462
20
-75.5071
11
162.45
21
-74.5189
0
LINE
8
BLACK
6
CONTINUOUS
10
162.45
20
-74.5189
11
162.45
21
-67.5485
0
LINE
8
BLACK
6
CONTINUOUS
10
162.45
20
-67.5485
11
162.448
21
-67.524
0
LINE
8
BLACK
6
CONTINUOUS
10
162.448
20
-67.524
11
162.457
21
-67.426
0
LINE
8
BLACK
6
CONTINUOUS
10
162.457
20
-67.426
11
162.478
21
-67.359
0
LINE
8
BLACK
6
CONTINUOUS
10
162.478
20
-67.359
11
162.486
21
-67.3317
0
LINE
8
BLACK
6
CONTINUOUS
10
162.486
20
-67.3317
11
162.532
21
-67.2448
0
LINE
8
BLACK
6
CONTINUOUS
10
162.532
20
-67.2448
11
162.595
21
-67.1687
0
LINE
8
BLACK
6
CONTINUOUS
10
162.595
20
-67.1687
11
162.614
21
-67.153
0
LINE
8
BLACK
6
CONTINUOUS
10
162.614
20
-67.153
11
163.555
21
-66.2118
0
LINE
8
BLACK
6
CONTINUOUS
10
163.555
20
-66.2118
11
163.571
21
-66.1927
0
LINE
8
BLACK
6
CONTINUOUS
10
163.571
20
-66.1927
11
163.647
21
-66.1303
0
LINE
8
BLACK
6
CONTINUOUS
10
163.647
20
-66.1303
11
163.734
21
-66.0838
0
LINE
8
BLACK
6
CONTINUOUS
10
163.734
20
-66.0838
11
163.746
21
-66.0801
0
LINE
8
BLACK
6
CONTINUOUS
10
163.746
20
-66.0801
11
163.746
21
-65.448
0
LINE
8
BLACK
6
CONTINUOUS
10
163.746
20
-65.448
11
165.946
21
-65.448
0
LINE
8
BLACK
6
CONTINUOUS
10
165.946
20
-65.448
11
165.946
21
-67.648
0
LINE
8
BLACK
6
CONTINUOUS
10
137.498
20
-66.632
11
135.298
21
-66.632
0
LINE
8
BLACK
6
CONTINUOUS
10
135.298
20
-66.632
11
135.298
21
-64.432
0
LINE
8
BLACK
6
CONTINUOUS
10
135.298
20
-64.432
11
137.498
21
-64.432
0
LINE
8
BLACK
6
CONTINUOUS
10
137.498
20
-64.432
11
137.498
21
-66.632
0
LINE
8
BLACK
6
CONTINUOUS
10
127.338
20
-66.632
11
125.138
21
-66.632
0
LINE
8
BLACK
6
CONTINUOUS
10
125.138
20
-66.632
11
125.138
21
-64.432
0
LINE
8
BLACK
6
CONTINUOUS
10
125.138
20
-64.432
11
127.338
21
-64.432
0
LINE
8
BLACK
6
CONTINUOUS
10
127.338
20
-64.432
11
127.338
21
-66.632
0
LINE
8
BLACK
6
CONTINUOUS
10
112.343
20
-57.7669
11
112.707
21
-57.9176
0
LINE
8
BLACK
6
CONTINUOUS
10
112.707
20
-57.9176
11
113.035
21
-58.1365
0
LINE
8
BLACK
6
CONTINUOUS
10
113.035
20
-58.1365
11
113.314
21
-58.4151
0
LINE
8
BLACK
6
CONTINUOUS
10
113.314
20
-58.4151
11
113.532
21
-58.7426
0
LINE
8
BLACK
6
CONTINUOUS
10
113.532
20
-58.7426
11
113.683
21
-59.1066
0
LINE
8
BLACK
6
CONTINUOUS
10
113.683
20
-59.1066
11
113.76
21
-59.493
0
LINE
8
BLACK
6
CONTINUOUS
10
113.76
20
-59.493
11
113.76
21
-59.887
0
LINE
8
BLACK
6
CONTINUOUS
10
113.76
20
-59.887
11
113.683
21
-60.2734
0
LINE
8
BLACK
6
CONTINUOUS
10
113.683
20
-60.2734
11
113.532
21
-60.6374
0
LINE
8
BLACK
6
CONTINUOUS
10
113.532
20
-60.6374
11
113.314
21
-60.9649
0
LINE
8
BLACK
6
CONTINUOUS
10
113.314
20
-60.9649
11
113.035
21
-61.2435
0
LINE
8
BLACK
6
CONTINUOUS
10
113.035
20
-61.2435
11
112.707
21
-61.4624
0
LINE
8
BLACK
6
CONTINUOUS
10
112.707
20
-61.4624
11
112.343
21
-61.6131
0
LINE
8
BLACK
6
CONTINUOUS
10
112.343
20
-61.6131
11
111.957
21
-61.69
0
LINE
8
BLACK
6
CONTINUOUS
10
111.957
20
-61.69
11
111.563
21
-61.69
0
LINE
8
BLACK
6
CONTINUOUS
10
111.563
20
-61.69
11
111.177
21
-61.6131
0
LINE
8
BLACK
6
CONTINUOUS
10
111.177
20
-61.6131
11
110.813
21
-61.4624
0
LINE
8
BLACK
6
CONTINUOUS
10
110.813
20
-61.4624
11
110.485
21
-61.2435
0
LINE
8
BLACK
6
CONTINUOUS
10
110.485
20
-61.2435
11
110.206
21
-60.9649
0
LINE
8
BLACK
6
CONTINUOUS
10
110.206
20
-60.9649
11
109.988
21
-60.6374
0
LINE
8
BLACK
6
CONTINUOUS
10
109.988
20
-60.6374
11
109.837
21
-60.2734
0
LINE
8
BLACK
6
CONTINUOUS
10
109.837
20
-60.2734
11
109.76
21
-59.887
0
LINE
8
BLACK
6
CONTINUOUS
10
109.76
20
-59.887
11
109.76
21
-59.493
0
LINE
8
BLACK
6
CONTINUOUS
10
109.76
20
-59.493
11
109.837
21
-59.1066
0
LINE
8
BLACK
6
CONTINUOUS
10
109.837
20
-59.1066
11
109.988
21
-58.7426
0
LINE
8
BLACK
6
CONTINUOUS
10
109.988
20
-58.7426
11
110.206
21
-58.4151
0
LINE
8
BLACK
6
CONTINUOUS
10
110.206
20
-58.4151
11
110.485
21
-58.1365
0
LINE
8
BLACK
6
CONTINUOUS
10
110.485
20
-58.1365
11
110.813
21
-57.9176
0
LINE
8
BLACK
6
CONTINUOUS
10
110.813
20
-57.9176
11
111.177
21
-57.7669
0
LINE
8
BLACK
6
CONTINUOUS
10
111.177
20
-57.7669
11
111.563
21
-57.69
0
LINE
8
BLACK
6
CONTINUOUS
10
111.563
20
-57.69
11
111.957
21
-57.69
0
LINE
8
BLACK
6
CONTINUOUS
10
111.957
20
-57.69
11
112.343
21
-57.7669
0
LINE
8
BLACK
6
CONTINUOUS
10
169.493
20
-57.2589
11
169.857
21
-57.4096
0
LINE
8
BLACK
6
CONTINUOUS
10
169.857
20
-57.4096
11
170.185
21
-57.6285
0
LINE
8
BLACK
6
CONTINUOUS
10
170.185
20
-57.6285
11
170.464
21
-57.9071
0
LINE
8
BLACK
6
CONTINUOUS
10
170.464
20
-57.9071
11
170.682
21
-58.2346
0
LINE
8
BLACK
6
CONTINUOUS
10
170.682
20
-58.2346
11
170.833
21
-58.5986
0
LINE
8
BLACK
6
CONTINUOUS
10
170.833
20
-58.5986
11
170.91
21
-58.985
0
LINE
8
BLACK
6
CONTINUOUS
10
170.91
20
-58.985
11
170.91
21
-59.379
0
LINE
8
BLACK
6
CONTINUOUS
10
170.91
20
-59.379
11
170.833
21
-59.7654
0
LINE
8
BLACK
6
CONTINUOUS
10
170.833
20
-59.7654
11
170.682
21
-60.1294
0
LINE
8
BLACK
6
CONTINUOUS
10
170.682
20
-60.1294
11
170.464
21
-60.4569
0
LINE
8
BLACK
6
CONTINUOUS
10
170.464
20
-60.4569
11
170.185
21
-60.7355
0
LINE
8
BLACK
6
CONTINUOUS
10
170.185
20
-60.7355
11
169.857
21
-60.9544
0
LINE
8
BLACK
6
CONTINUOUS
10
169.857
20
-60.9544
11
169.493
21
-61.1051
0
LINE
8
BLACK
6
CONTINUOUS
10
169.493
20
-61.1051
11
169.107
21
-61.182
0
LINE
8
BLACK
6
CONTINUOUS
10
169.107
20
-61.182
11
168.713
21
-61.182
0
LINE
8
BLACK
6
CONTINUOUS
10
168.713
20
-61.182
11
168.327
21
-61.1051
0
LINE
8
BLACK
6
CONTINUOUS
10
168.327
20
-61.1051
11
167.963
21
-60.9544
0
LINE
8
BLACK
6
CONTINUOUS
10
167.963
20
-60.9544
11
167.635
21
-60.7355
0
LINE
8
BLACK
6
CONTINUOUS
10
167.635
20
-60.7355
11
167.356
21
-60.4569
0
LINE
8
BLACK
6
CONTINUOUS
10
167.356
20
-60.4569
11
167.138
21
-60.1294
0
LINE
8
BLACK
6
CONTINUOUS
10
167.138
20
-60.1294
11
166.987
21
-59.7654
0
LINE
8
BLACK
6
CONTINUOUS
10
166.987
20
-59.7654
11
166.91
21
-59.379
0
LINE
8
BLACK
6
CONTINUOUS
10
166.91
20
-59.379
11
166.91
21
-58.985
0
LINE
8
BLACK
6
CONTINUOUS
10
166.91
20
-58.985
11
166.987
21
-58.5986
0
LINE
8
BLACK
6
CONTINUOUS
10
166.987
20
-58.5986
11
167.138
21
-58.2346
0
LINE
8
BLACK
6
CONTINUOUS
10
167.138
20
-58.2346
11
167.356
21
-57.9071
0
LINE
8
BLACK
6
CONTINUOUS
10
167.356
20
-57.9071
11
167.635
21
-57.6285
0
LINE
8
BLACK
6
CONTINUOUS
10
167.635
20
-57.6285
11
167.963
21
-57.4096
0
LINE
8
BLACK
6
CONTINUOUS
10
167.963
20
-57.4096
11
168.327
21
-57.2589
0
LINE
8
BLACK
6
CONTINUOUS
10
168.327
20
-57.2589
11
168.713
21
-57.182
0
LINE
8
BLACK
6
CONTINUOUS
10
168.713
20
-57.182
11
169.107
21
-57.182
0
LINE
8
BLACK
6
CONTINUOUS
10
169.107
20
-57.182
11
169.493
21
-57.2589
0
CIRCLE
8
BLACK
10
166.37
20
-109.728
40
1
0
CIRCLE
8
BLACK
10
168.91
20
-59.182
40
1
0
CIRCLE
8
BLACK
10
111.76
20
-59.69
40
1
0
CIRCLE
8
BLACK
10
111.76
20
-112.014
40
1
  0
ENDSEC
  0
EOF
