M48
; DRILL file {KiCad (5.1.2)-2} date 5/16/2020 12:08:36 AM
; FORMAT={2:4/ absolute / inch / suppress leading zeros}
; #@! TF.CreationDate,2020-05-16T00:08:36+07:00
; #@! TF.GenerationSoftware,Kicad,Pcbnew,(5.1.2)-2
FMAT,2
INCH,TZ
T1C0.0354
T2C0.0394
T3C0.0472
T4C0.0598
T5C0.0787
%
G90
G05
T1
X60300Y-41900
X60300Y-42900
X52200Y-42500
X53200Y-42500
X54900Y-41900
X54900Y-42900
X58500Y-41900
X58500Y-42900
X56700Y-41900
X56700Y-42900
T2
X64900Y-25200
X64900Y-26200
X64900Y-27200
X64900Y-28200
X49900Y-27500
X49900Y-28500
X62500Y-25300
X62500Y-26300
X62500Y-27300
X52600Y-34100
X52600Y-35100
X52600Y-36100
X52600Y-37100
X49000Y-34100
X49000Y-35100
X49000Y-36100
X49000Y-37100
X62400Y-33500
X62400Y-34500
X62400Y-35500
X62400Y-36500
X62400Y-37500
X62400Y-38500
X62400Y-39500
X62400Y-40500
X45500Y-34200
X45500Y-35200
X45500Y-36200
X45500Y-37200
X48600Y-40200
X48600Y-41200
X48600Y-42200
X64000Y-37500
X64000Y-38500
X64000Y-39500
X64000Y-40500
X56900Y-25800
X57900Y-25800
X58900Y-25800
X59900Y-25800
X49700Y-25800
X50700Y-25800
X51700Y-25800
X52700Y-25800
X53700Y-25800
X54700Y-25800
X45700Y-30700
X45700Y-31700
X46700Y-30700
X46700Y-31700
X47700Y-30700
X47700Y-31700
X48700Y-30700
X48700Y-31700
X49700Y-30700
X49700Y-31700
X50700Y-30700
X50700Y-31700
X51700Y-30700
X51700Y-31700
X52700Y-30700
X52700Y-31700
X53700Y-30700
X53700Y-31700
X54700Y-30700
X54700Y-31700
X55700Y-30700
X55700Y-31700
X56700Y-30700
X56700Y-31700
X57700Y-30700
X57700Y-31700
X58700Y-30700
X58700Y-31700
X59700Y-30700
X59700Y-31700
X60700Y-30700
X60700Y-31700
X61700Y-30700
X61700Y-31700
X62700Y-30700
X62700Y-31700
X63700Y-30700
X63700Y-31700
X64700Y-30700
X64700Y-31700
X45800Y-25600
X45800Y-26600
X45800Y-27600
X45800Y-28600
T3
X54800Y-34500
X54800Y-40500
X56500Y-34500
X56500Y-40500
X50700Y-36900
X50700Y-42900
X59900Y-34500
X59900Y-40500
X58200Y-34500
X58200Y-40500
T4
X46100Y-40200
X46100Y-42200
T5
X44000Y-23500
X44000Y-44100
X65500Y-43200
X66500Y-23300
T0
M30
