  0
SECTION
  2
HEADER
  9
$ANGBASE
  50
0.0
  9
$ANGDIR
  70
  1
  9
$MEASUREMENT
  70
0
  0
ENDSEC
  0
SECTION
  2
TABLES
  0
TABLE
  2
LTYPE
  70
4
  0
LTYPE
  5
40F
  2
CONTINUOUS
  70
0
  3
Solid line
  72
65
  73
0
  40
0.0
  0
LTYPE
  5
410
  2
DASHDOT
 70
0
  3
Dash Dot ____ _ ____ _
 72
65
 73
4
 40
2.0
 49
1.25
 49
-0.25
 49
0.25
 49
-0.25
  0
LTYPE
  5
411
  2
DASHED
 70
0
  3
Dashed __ __ __ __ __
 72
65
 73
2
 40
0.75
 49
0.5
 49
-0.25
  0
LTYPE
  5
43B
  2
DOTTED
 70
0
  3
Dotted .  .  .  .
 72
65
 73
2
 40
0.2
 49
0.0
 49
-0.2
  0
ENDTAB
  0
TABLE
  2
STYLE
  70
4
  0
STYLE
  2
KICAD
  70
0
  40
0
  41
1
  42
1
  50
0
  71
0
  3
isocp.shx
  0
STYLE
  2
KICADB
  70
0
  40
0
  41
1
  42
1
  50
0
  71
0
  3
isocp.shx
  0
STYLE
  2
KICADI
  70
0
  40
0
  41
1
  42
1
  50
15
  71
0
  3
isocp.shx
  0
STYLE
  2
KICADBI
  70
0
  40
0
  41
1
  42
1
  50
15
  71
0
  3
isocp.shx
  0
ENDTAB
  0
TABLE
  2
LAYER
  70
30
  0
LAYER
  2
BLACK
  70
0
  62
7
  6
CONTINUOUS
  0
LAYER
  2
GRAY1
  70
0
  62
251
  6
CONTINUOUS
  0
LAYER
  2
GRAY2
  70
0
  62
8
  6
CONTINUOUS
  0
LAYER
  2
GRAY3
  70
0
  62
9
  6
CONTINUOUS
  0
LAYER
  2
WHITE
  70
0
  62
7
  6
CONTINUOUS
  0
LAYER
  2
LYELLOW
  70
0
  62
51
  6
CONTINUOUS
  0
LAYER
  2
BLUE1
  70
0
  62
178
  6
CONTINUOUS
  0
LAYER
  2
GREEN1
  70
0
  62
98
  6
CONTINUOUS
  0
LAYER
  2
CYAN1
  70
0
  62
138
  6
CONTINUOUS
  0
LAYER
  2
RED1
  70
0
  62
18
  6
CONTINUOUS
  0
LAYER
  2
MAGENTA1
  70
0
  62
228
  6
CONTINUOUS
  0
LAYER
  2
BROWN1
  70
0
  62
58
  6
CONTINUOUS
  0
LAYER
  2
BLUE2
  70
0
  62
5
  6
CONTINUOUS
  0
LAYER
  2
GREEN2
  70
0
  62
3
  6
CONTINUOUS
  0
LAYER
  2
CYAN2
  70
0
  62
4
  6
CONTINUOUS
  0
LAYER
  2
RED2
  70
0
  62
1
  6
CONTINUOUS
  0
LAYER
  2
MAGENTA2
  70
0
  62
6
  6
CONTINUOUS
  0
LAYER
  2
BROWN2
  70
0
  62
54
  6
CONTINUOUS
  0
LAYER
  2
BLUE3
  70
0
  62
171
  6
CONTINUOUS
  0
LAYER
  2
GREEN3
  70
0
  62
91
  6
CONTINUOUS
  0
LAYER
  2
CYAN3
  70
0
  62
131
  6
CONTINUOUS
  0
LAYER
  2
RED3
  70
0
  62
11
  6
CONTINUOUS
  0
LAYER
  2
MAGENTA3
  70
0
  62
221
  6
CONTINUOUS
  0
LAYER
  2
YELLOW3
  70
0
  62
2
  6
CONTINUOUS
  0
LAYER
  2
BLUE4
  70
0
  62
5
  6
CONTINUOUS
  0
LAYER
  2
GREEN4
  70
0
  62
3
  6
CONTINUOUS
  0
LAYER
  2
CYAN4
  70
0
  62
4
  6
CONTINUOUS
  0
LAYER
  2
RED4
  70
0
  62
1
  6
CONTINUOUS
  0
LAYER
  2
MAGENTA4
  70
0
  62
6
  6
CONTINUOUS
  0
LAYER
  2
YELLOW4
  70
0
  62
2
  6
CONTINUOUS
  0
ENDTAB
  0
ENDSEC
  0
SECTION
  2
ENTITIES
0
LINE
8
BLACK
6
CONTINUOUS
10
122.937
20
-68.555
11
122.941
21
-68.5554
0
LINE
8
BLACK
6
CONTINUOUS
10
122.941
20
-68.5554
11
122.946
21
-68.5568
0
LINE
8
BLACK
6
CONTINUOUS
10
122.946
20
-68.5568
11
122.95
21
-68.5591
0
LINE
8
BLACK
6
CONTINUOUS
10
122.95
20
-68.5591
11
122.954
21
-68.5622
0
LINE
8
BLACK
6
CONTINUOUS
10
122.954
20
-68.5622
11
122.957
21
-68.566
0
LINE
8
BLACK
6
CONTINUOUS
10
122.957
20
-68.566
11
122.959
21
-68.5704
0
LINE
8
BLACK
6
CONTINUOUS
10
122.959
20
-68.5704
11
122.961
21
-68.5751
0
LINE
8
BLACK
6
CONTINUOUS
10
122.961
20
-68.5751
11
122.961
21
-68.58
0
LINE
8
BLACK
6
CONTINUOUS
10
122.961
20
-68.58
11
122.961
21
-68.5812
0
LINE
8
BLACK
6
CONTINUOUS
10
122.961
20
-68.5812
11
122.961
21
-95.5028
0
LINE
8
BLACK
6
CONTINUOUS
10
122.961
20
-95.5028
11
122.961
21
-95.504
0
LINE
8
BLACK
6
CONTINUOUS
10
122.961
20
-95.504
11
122.961
21
-95.5089
0
LINE
8
BLACK
6
CONTINUOUS
10
122.961
20
-95.5089
11
122.959
21
-95.5136
0
LINE
8
BLACK
6
CONTINUOUS
10
122.959
20
-95.5136
11
122.957
21
-95.518
0
LINE
8
BLACK
6
CONTINUOUS
10
122.957
20
-95.518
11
122.954
21
-95.5218
0
LINE
8
BLACK
6
CONTINUOUS
10
122.954
20
-95.5218
11
122.95
21
-95.5249
0
LINE
8
BLACK
6
CONTINUOUS
10
122.95
20
-95.5249
11
122.946
21
-95.5272
0
LINE
8
BLACK
6
CONTINUOUS
10
122.946
20
-95.5272
11
122.941
21
-95.5286
0
LINE
8
BLACK
6
CONTINUOUS
10
122.941
20
-95.5286
11
122.937
21
-95.529
0
LINE
8
BLACK
6
CONTINUOUS
10
122.937
20
-95.529
11
122.937
21
-95.529
0
LINE
8
BLACK
6
CONTINUOUS
10
122.937
20
-95.529
11
122.936
21
-95.5291
0
LINE
8
BLACK
6
CONTINUOUS
10
122.936
20
-95.5291
11
122.935
21
-95.529
0
LINE
8
BLACK
6
CONTINUOUS
10
122.935
20
-95.529
11
84.3292
21
-95.529
0
LINE
8
BLACK
6
CONTINUOUS
10
84.3292
20
-95.529
11
84.328
21
-95.5291
0
LINE
8
BLACK
6
CONTINUOUS
10
84.328
20
-95.5291
11
84.3268
21
-95.529
0
LINE
8
BLACK
6
CONTINUOUS
10
84.3268
20
-95.529
11
84.3268
21
-95.529
0
LINE
8
BLACK
6
CONTINUOUS
10
84.3268
20
-95.529
11
84.3231
21
-95.5286
0
LINE
8
BLACK
6
CONTINUOUS
10
84.3231
20
-95.5286
11
84.3184
21
-95.5272
0
LINE
8
BLACK
6
CONTINUOUS
10
84.3184
20
-95.5272
11
84.314
21
-95.5249
0
LINE
8
BLACK
6
CONTINUOUS
10
84.314
20
-95.5249
11
84.3102
21
-95.5218
0
LINE
8
BLACK
6
CONTINUOUS
10
84.3102
20
-95.5218
11
84.3071
21
-95.518
0
LINE
8
BLACK
6
CONTINUOUS
10
84.3071
20
-95.518
11
84.3048
21
-95.5136
0
LINE
8
BLACK
6
CONTINUOUS
10
84.3048
20
-95.5136
11
84.3034
21
-95.5089
0
LINE
8
BLACK
6
CONTINUOUS
10
84.3034
20
-95.5089
11
84.3029
21
-95.504
0
LINE
8
BLACK
6
CONTINUOUS
10
84.3029
20
-95.504
11
84.303
21
-95.5028
0
LINE
8
BLACK
6
CONTINUOUS
10
84.303
20
-95.5028
11
84.303
21
-69.0868
0
LINE
8
BLACK
6
CONTINUOUS
10
84.303
20
-69.0868
11
84.303
21
-69.0868
0
LINE
8
BLACK
6
CONTINUOUS
10
84.303
20
-69.0868
11
84.303
21
-68.5812
0
LINE
8
BLACK
6
CONTINUOUS
10
84.303
20
-68.5812
11
84.3029
21
-68.58
0
LINE
8
BLACK
6
CONTINUOUS
10
84.3029
20
-68.58
11
84.3034
21
-68.5751
0
LINE
8
BLACK
6
CONTINUOUS
10
84.3034
20
-68.5751
11
84.3048
21
-68.5704
0
LINE
8
BLACK
6
CONTINUOUS
10
84.3048
20
-68.5704
11
84.3071
21
-68.566
0
LINE
8
BLACK
6
CONTINUOUS
10
84.3071
20
-68.566
11
84.3102
21
-68.5622
0
LINE
8
BLACK
6
CONTINUOUS
10
84.3102
20
-68.5622
11
84.314
21
-68.5591
0
LINE
8
BLACK
6
CONTINUOUS
10
84.314
20
-68.5591
11
84.3184
21
-68.5568
0
LINE
8
BLACK
6
CONTINUOUS
10
84.3184
20
-68.5568
11
84.3231
21
-68.5554
0
LINE
8
BLACK
6
CONTINUOUS
10
84.3231
20
-68.5554
11
84.3268
21
-68.555
0
LINE
8
BLACK
6
CONTINUOUS
10
84.3268
20
-68.555
11
84.328
21
-68.5549
0
LINE
8
BLACK
6
CONTINUOUS
10
84.328
20
-68.5549
11
84.3292
21
-68.555
0
LINE
8
BLACK
6
CONTINUOUS
10
84.3292
20
-68.555
11
122.935
21
-68.555
0
LINE
8
BLACK
6
CONTINUOUS
10
122.935
20
-68.555
11
122.936
21
-68.5549
0
LINE
8
BLACK
6
CONTINUOUS
10
122.936
20
-68.5549
11
122.937
21
-68.555
0
LINE
8
BLACK
6
CONTINUOUS
10
122.911
20
-95.479
11
122.911
21
-68.605
0
LINE
8
BLACK
6
CONTINUOUS
10
122.911
20
-68.605
11
84.353
21
-68.605
0
LINE
8
BLACK
6
CONTINUOUS
10
84.353
20
-68.605
11
84.353
21
-95.479
0
LINE
8
BLACK
6
CONTINUOUS
10
84.353
20
-95.479
11
122.911
21
-95.479
  0
ENDSEC
  0
EOF
