  0
SECTION
  2
HEADER
  9
$ANGBASE
  50
0.0
  9
$ANGDIR
  70
  1
  9
$MEASUREMENT
  70
0
  0
ENDSEC
  0
SECTION
  2
TABLES
  0
TABLE
  2
LTYPE
  70
4
  0
LTYPE
  5
40F
  2
CONTINUOUS
  70
0
  3
Solid line
  72
65
  73
0
  40
0.0
  0
LTYPE
  5
410
  2
DASHDOT
 70
0
  3
Dash Dot ____ _ ____ _
 72
65
 73
4
 40
2.0
 49
1.25
 49
-0.25
 49
0.25
 49
-0.25
  0
LTYPE
  5
411
  2
DASHED
 70
0
  3
Dashed __ __ __ __ __
 72
65
 73
2
 40
0.75
 49
0.5
 49
-0.25
  0
LTYPE
  5
43B
  2
DOTTED
 70
0
  3
Dotted .  .  .  .
 72
65
 73
2
 40
0.2
 49
0.0
 49
-0.2
  0
ENDTAB
  0
TABLE
  2
STYLE
  70
4
  0
STYLE
  2
KICAD
  70
0
  40
0
  41
1
  42
1
  50
0
  71
0
  3
isocp.shx
  0
STYLE
  2
KICADB
  70
0
  40
0
  41
1
  42
1
  50
0
  71
0
  3
isocp.shx
  0
STYLE
  2
KICADI
  70
0
  40
0
  41
1
  42
1
  50
15
  71
0
  3
isocp.shx
  0
STYLE
  2
KICADBI
  70
0
  40
0
  41
1
  42
1
  50
15
  71
0
  3
isocp.shx
  0
ENDTAB
  0
TABLE
  2
LAYER
  70
30
  0
LAYER
  2
BLACK
  70
0
  62
7
  6
CONTINUOUS
  0
LAYER
  2
GRAY1
  70
0
  62
251
  6
CONTINUOUS
  0
LAYER
  2
GRAY2
  70
0
  62
8
  6
CONTINUOUS
  0
LAYER
  2
GRAY3
  70
0
  62
9
  6
CONTINUOUS
  0
LAYER
  2
WHITE
  70
0
  62
7
  6
CONTINUOUS
  0
LAYER
  2
LYELLOW
  70
0
  62
51
  6
CONTINUOUS
  0
LAYER
  2
BLUE1
  70
0
  62
178
  6
CONTINUOUS
  0
LAYER
  2
GREEN1
  70
0
  62
98
  6
CONTINUOUS
  0
LAYER
  2
CYAN1
  70
0
  62
138
  6
CONTINUOUS
  0
LAYER
  2
RED1
  70
0
  62
18
  6
CONTINUOUS
  0
LAYER
  2
MAGENTA1
  70
0
  62
228
  6
CONTINUOUS
  0
LAYER
  2
BROWN1
  70
0
  62
58
  6
CONTINUOUS
  0
LAYER
  2
BLUE2
  70
0
  62
5
  6
CONTINUOUS
  0
LAYER
  2
GREEN2
  70
0
  62
3
  6
CONTINUOUS
  0
LAYER
  2
CYAN2
  70
0
  62
4
  6
CONTINUOUS
  0
LAYER
  2
RED2
  70
0
  62
1
  6
CONTINUOUS
  0
LAYER
  2
MAGENTA2
  70
0
  62
6
  6
CONTINUOUS
  0
LAYER
  2
BROWN2
  70
0
  62
54
  6
CONTINUOUS
  0
LAYER
  2
BLUE3
  70
0
  62
171
  6
CONTINUOUS
  0
LAYER
  2
GREEN3
  70
0
  62
91
  6
CONTINUOUS
  0
LAYER
  2
CYAN3
  70
0
  62
131
  6
CONTINUOUS
  0
LAYER
  2
RED3
  70
0
  62
11
  6
CONTINUOUS
  0
LAYER
  2
MAGENTA3
  70
0
  62
221
  6
CONTINUOUS
  0
LAYER
  2
YELLOW3
  70
0
  62
2
  6
CONTINUOUS
  0
LAYER
  2
BLUE4
  70
0
  62
5
  6
CONTINUOUS
  0
LAYER
  2
GREEN4
  70
0
  62
3
  6
CONTINUOUS
  0
LAYER
  2
CYAN4
  70
0
  62
4
  6
CONTINUOUS
  0
LAYER
  2
RED4
  70
0
  62
1
  6
CONTINUOUS
  0
LAYER
  2
MAGENTA4
  70
0
  62
6
  6
CONTINUOUS
  0
LAYER
  2
YELLOW4
  70
0
  62
2
  6
CONTINUOUS
  0
ENDTAB
  0
ENDSEC
  0
SECTION
  2
ENTITIES
0
LINE
8
BLACK
6
CONTINUOUS
10
99.6183
20
-61.6201
11
99.6649
21
-61.6345
0
LINE
8
BLACK
6
CONTINUOUS
10
99.6649
20
-61.6345
11
99.7078
21
-61.6577
0
LINE
8
BLACK
6
CONTINUOUS
10
99.7078
20
-61.6577
11
99.7454
21
-61.6888
0
LINE
8
BLACK
6
CONTINUOUS
10
99.7454
20
-61.6888
11
99.7762
21
-61.7266
0
LINE
8
BLACK
6
CONTINUOUS
10
99.7762
20
-61.7266
11
99.7991
21
-61.7697
0
LINE
8
BLACK
6
CONTINUOUS
10
99.7991
20
-61.7697
11
99.8132
21
-61.8164
0
LINE
8
BLACK
6
CONTINUOUS
10
99.8132
20
-61.8164
11
99.818
21
-61.865
0
LINE
8
BLACK
6
CONTINUOUS
10
99.818
20
-61.865
11
99.818
21
-62.3769
0
LINE
8
BLACK
6
CONTINUOUS
10
99.818
20
-62.3769
11
100.33
21
-62.3769
0
LINE
8
BLACK
6
CONTINUOUS
10
100.33
20
-62.3769
11
100.333
21
-62.3769
0
LINE
8
BLACK
6
CONTINUOUS
10
100.333
20
-62.3769
11
100.382
21
-62.3823
0
LINE
8
BLACK
6
CONTINUOUS
10
100.382
20
-62.3823
11
100.428
21
-62.3971
0
LINE
8
BLACK
6
CONTINUOUS
10
100.428
20
-62.3971
11
100.471
21
-62.4206
0
LINE
8
BLACK
6
CONTINUOUS
10
100.471
20
-62.4206
11
100.509
21
-62.4519
0
LINE
8
BLACK
6
CONTINUOUS
10
100.509
20
-62.4519
11
100.539
21
-62.49
0
LINE
8
BLACK
6
CONTINUOUS
10
100.539
20
-62.49
11
100.562
21
-62.5332
0
LINE
8
BLACK
6
CONTINUOUS
10
100.562
20
-62.5332
11
100.575
21
-62.58
0
LINE
8
BLACK
6
CONTINUOUS
10
100.575
20
-62.58
11
100.58
21
-62.6286
0
LINE
8
BLACK
6
CONTINUOUS
10
100.58
20
-62.6286
11
100.575
21
-62.6771
0
LINE
8
BLACK
6
CONTINUOUS
10
100.575
20
-62.6771
11
100.56
21
-62.7237
0
LINE
8
BLACK
6
CONTINUOUS
10
100.56
20
-62.7237
11
100.537
21
-62.7667
0
LINE
8
BLACK
6
CONTINUOUS
10
100.537
20
-62.7667
11
100.506
21
-62.8042
0
LINE
8
BLACK
6
CONTINUOUS
10
100.506
20
-62.8042
11
100.468
21
-62.8351
0
LINE
8
BLACK
6
CONTINUOUS
10
100.468
20
-62.8351
11
100.425
21
-62.858
0
LINE
8
BLACK
6
CONTINUOUS
10
100.425
20
-62.858
11
100.378
21
-62.8721
0
LINE
8
BLACK
6
CONTINUOUS
10
100.378
20
-62.8721
11
100.33
21
-62.8769
0
LINE
8
BLACK
6
CONTINUOUS
10
100.33
20
-62.8769
11
99.818
21
-62.8769
0
LINE
8
BLACK
6
CONTINUOUS
10
99.818
20
-62.8769
11
99.818
21
-63.3888
0
LINE
8
BLACK
6
CONTINUOUS
10
99.818
20
-63.3888
11
99.818
21
-63.3923
0
LINE
8
BLACK
6
CONTINUOUS
10
99.818
20
-63.3923
11
99.8125
21
-63.4407
0
LINE
8
BLACK
6
CONTINUOUS
10
99.8125
20
-63.4407
11
99.7978
21
-63.4872
0
LINE
8
BLACK
6
CONTINUOUS
10
99.7978
20
-63.4872
11
99.7743
21
-63.53
0
LINE
8
BLACK
6
CONTINUOUS
10
99.7743
20
-63.53
11
99.7429
21
-63.5674
0
LINE
8
BLACK
6
CONTINUOUS
10
99.7429
20
-63.5674
11
99.7049
21
-63.598
0
LINE
8
BLACK
6
CONTINUOUS
10
99.7049
20
-63.598
11
99.6617
21
-63.6206
0
LINE
8
BLACK
6
CONTINUOUS
10
99.6617
20
-63.6206
11
99.6148
21
-63.6343
0
LINE
8
BLACK
6
CONTINUOUS
10
99.6148
20
-63.6343
11
99.5663
21
-63.6388
0
LINE
8
BLACK
6
CONTINUOUS
10
99.5663
20
-63.6388
11
99.5177
21
-63.6337
0
LINE
8
BLACK
6
CONTINUOUS
10
99.5177
20
-63.6337
11
99.4711
21
-63.6192
0
LINE
8
BLACK
6
CONTINUOUS
10
99.4711
20
-63.6192
11
99.4282
21
-63.596
0
LINE
8
BLACK
6
CONTINUOUS
10
99.4282
20
-63.596
11
99.3906
21
-63.5649
0
LINE
8
BLACK
6
CONTINUOUS
10
99.3906
20
-63.5649
11
99.3598
21
-63.5271
0
LINE
8
BLACK
6
CONTINUOUS
10
99.3598
20
-63.5271
11
99.3369
21
-63.484
0
LINE
8
BLACK
6
CONTINUOUS
10
99.3369
20
-63.484
11
99.3228
21
-63.4373
0
LINE
8
BLACK
6
CONTINUOUS
10
99.3228
20
-63.4373
11
99.318
21
-63.3888
0
LINE
8
BLACK
6
CONTINUOUS
10
99.318
20
-63.3888
11
99.318
21
-62.8769
0
LINE
8
BLACK
6
CONTINUOUS
10
99.318
20
-62.8769
11
98.8061
21
-62.8769
0
LINE
8
BLACK
6
CONTINUOUS
10
98.8061
20
-62.8769
11
98.8026
21
-62.8768
0
LINE
8
BLACK
6
CONTINUOUS
10
98.8026
20
-62.8768
11
98.7541
21
-62.8714
0
LINE
8
BLACK
6
CONTINUOUS
10
98.7541
20
-62.8714
11
98.7076
21
-62.8566
0
LINE
8
BLACK
6
CONTINUOUS
10
98.7076
20
-62.8566
11
98.6649
21
-62.8331
0
LINE
8
BLACK
6
CONTINUOUS
10
98.6649
20
-62.8331
11
98.6275
21
-62.8018
0
LINE
8
BLACK
6
CONTINUOUS
10
98.6275
20
-62.8018
11
98.5969
21
-62.7637
0
LINE
8
BLACK
6
CONTINUOUS
10
98.5969
20
-62.7637
11
98.5743
21
-62.7205
0
LINE
8
BLACK
6
CONTINUOUS
10
98.5743
20
-62.7205
11
98.5605
21
-62.6737
0
LINE
8
BLACK
6
CONTINUOUS
10
98.5605
20
-62.6737
11
98.5561
21
-62.6251
0
LINE
8
BLACK
6
CONTINUOUS
10
98.5561
20
-62.6251
11
98.5612
21
-62.5766
0
LINE
8
BLACK
6
CONTINUOUS
10
98.5612
20
-62.5766
11
98.5756
21
-62.53
0
LINE
8
BLACK
6
CONTINUOUS
10
98.5756
20
-62.53
11
98.5988
21
-62.4871
0
LINE
8
BLACK
6
CONTINUOUS
10
98.5988
20
-62.4871
11
98.6299
21
-62.4495
0
LINE
8
BLACK
6
CONTINUOUS
10
98.6299
20
-62.4495
11
98.6677
21
-62.4186
0
LINE
8
BLACK
6
CONTINUOUS
10
98.6677
20
-62.4186
11
98.7108
21
-62.3957
0
LINE
8
BLACK
6
CONTINUOUS
10
98.7108
20
-62.3957
11
98.7575
21
-62.3816
0
LINE
8
BLACK
6
CONTINUOUS
10
98.7575
20
-62.3816
11
98.8061
21
-62.3769
0
LINE
8
BLACK
6
CONTINUOUS
10
98.8061
20
-62.3769
11
99.318
21
-62.3769
0
LINE
8
BLACK
6
CONTINUOUS
10
99.318
20
-62.3769
11
99.318
21
-61.865
0
LINE
8
BLACK
6
CONTINUOUS
10
99.318
20
-61.865
11
99.318
21
-61.8615
0
LINE
8
BLACK
6
CONTINUOUS
10
99.318
20
-61.8615
11
99.3235
21
-61.813
0
LINE
8
BLACK
6
CONTINUOUS
10
99.3235
20
-61.813
11
99.3382
21
-61.7665
0
LINE
8
BLACK
6
CONTINUOUS
10
99.3382
20
-61.7665
11
99.3617
21
-61.7237
0
LINE
8
BLACK
6
CONTINUOUS
10
99.3617
20
-61.7237
11
99.3931
21
-61.6863
0
LINE
8
BLACK
6
CONTINUOUS
10
99.3931
20
-61.6863
11
99.4311
21
-61.6558
0
LINE
8
BLACK
6
CONTINUOUS
10
99.4311
20
-61.6558
11
99.4743
21
-61.6332
0
LINE
8
BLACK
6
CONTINUOUS
10
99.4743
20
-61.6332
11
99.5212
21
-61.6194
0
LINE
8
BLACK
6
CONTINUOUS
10
99.5212
20
-61.6194
11
99.5697
21
-61.615
0
LINE
8
BLACK
6
CONTINUOUS
10
99.5697
20
-61.615
11
99.6183
21
-61.6201
0
LINE
8
BLACK
6
CONTINUOUS
10
170.484
20
-58.0641
11
170.531
21
-58.0785
0
LINE
8
BLACK
6
CONTINUOUS
10
170.531
20
-58.0785
11
170.574
21
-58.1017
0
LINE
8
BLACK
6
CONTINUOUS
10
170.574
20
-58.1017
11
170.611
21
-58.1328
0
LINE
8
BLACK
6
CONTINUOUS
10
170.611
20
-58.1328
11
170.642
21
-58.1706
0
LINE
8
BLACK
6
CONTINUOUS
10
170.642
20
-58.1706
11
170.665
21
-58.2137
0
LINE
8
BLACK
6
CONTINUOUS
10
170.665
20
-58.2137
11
170.679
21
-58.2604
0
LINE
8
BLACK
6
CONTINUOUS
10
170.679
20
-58.2604
11
170.684
21
-58.309
0
LINE
8
BLACK
6
CONTINUOUS
10
170.684
20
-58.309
11
170.684
21
-58.8209
0
LINE
8
BLACK
6
CONTINUOUS
10
170.684
20
-58.8209
11
171.196
21
-58.8209
0
LINE
8
BLACK
6
CONTINUOUS
10
171.196
20
-58.8209
11
171.199
21
-58.8209
0
LINE
8
BLACK
6
CONTINUOUS
10
171.199
20
-58.8209
11
171.248
21
-58.8263
0
LINE
8
BLACK
6
CONTINUOUS
10
171.248
20
-58.8263
11
171.294
21
-58.8411
0
LINE
8
BLACK
6
CONTINUOUS
10
171.294
20
-58.8411
11
171.337
21
-58.8646
0
LINE
8
BLACK
6
CONTINUOUS
10
171.337
20
-58.8646
11
171.375
21
-58.8959
0
LINE
8
BLACK
6
CONTINUOUS
10
171.375
20
-58.8959
11
171.405
21
-58.934
0
LINE
8
BLACK
6
CONTINUOUS
10
171.405
20
-58.934
11
171.428
21
-58.9772
0
LINE
8
BLACK
6
CONTINUOUS
10
171.428
20
-58.9772
11
171.441
21
-59.024
0
LINE
8
BLACK
6
CONTINUOUS
10
171.441
20
-59.024
11
171.446
21
-59.0726
0
LINE
8
BLACK
6
CONTINUOUS
10
171.446
20
-59.0726
11
171.441
21
-59.1211
0
LINE
8
BLACK
6
CONTINUOUS
10
171.441
20
-59.1211
11
171.426
21
-59.1677
0
LINE
8
BLACK
6
CONTINUOUS
10
171.426
20
-59.1677
11
171.403
21
-59.2107
0
LINE
8
BLACK
6
CONTINUOUS
10
171.403
20
-59.2107
11
171.372
21
-59.2482
0
LINE
8
BLACK
6
CONTINUOUS
10
171.372
20
-59.2482
11
171.334
21
-59.2791
0
LINE
8
BLACK
6
CONTINUOUS
10
171.334
20
-59.2791
11
171.291
21
-59.302
0
LINE
8
BLACK
6
CONTINUOUS
10
171.291
20
-59.302
11
171.244
21
-59.3161
0
LINE
8
BLACK
6
CONTINUOUS
10
171.244
20
-59.3161
11
171.196
21
-59.3209
0
LINE
8
BLACK
6
CONTINUOUS
10
171.196
20
-59.3209
11
170.684
21
-59.3209
0
LINE
8
BLACK
6
CONTINUOUS
10
170.684
20
-59.3209
11
170.684
21
-59.8328
0
LINE
8
BLACK
6
CONTINUOUS
10
170.684
20
-59.8328
11
170.684
21
-59.8363
0
LINE
8
BLACK
6
CONTINUOUS
10
170.684
20
-59.8363
11
170.679
21
-59.8847
0
LINE
8
BLACK
6
CONTINUOUS
10
170.679
20
-59.8847
11
170.664
21
-59.9312
0
LINE
8
BLACK
6
CONTINUOUS
10
170.664
20
-59.9312
11
170.64
21
-59.974
0
LINE
8
BLACK
6
CONTINUOUS
10
170.64
20
-59.974
11
170.609
21
-60.0114
0
LINE
8
BLACK
6
CONTINUOUS
10
170.609
20
-60.0114
11
170.571
21
-60.042
0
LINE
8
BLACK
6
CONTINUOUS
10
170.571
20
-60.042
11
170.528
21
-60.0646
0
LINE
8
BLACK
6
CONTINUOUS
10
170.528
20
-60.0646
11
170.481
21
-60.0783
0
LINE
8
BLACK
6
CONTINUOUS
10
170.481
20
-60.0783
11
170.432
21
-60.0828
0
LINE
8
BLACK
6
CONTINUOUS
10
170.432
20
-60.0828
11
170.384
21
-60.0777
0
LINE
8
BLACK
6
CONTINUOUS
10
170.384
20
-60.0777
11
170.337
21
-60.0632
0
LINE
8
BLACK
6
CONTINUOUS
10
170.337
20
-60.0632
11
170.294
21
-60.04
0
LINE
8
BLACK
6
CONTINUOUS
10
170.294
20
-60.04
11
170.257
21
-60.0089
0
LINE
8
BLACK
6
CONTINUOUS
10
170.257
20
-60.0089
11
170.226
21
-59.9711
0
LINE
8
BLACK
6
CONTINUOUS
10
170.226
20
-59.9711
11
170.203
21
-59.928
0
LINE
8
BLACK
6
CONTINUOUS
10
170.203
20
-59.928
11
170.189
21
-59.8813
0
LINE
8
BLACK
6
CONTINUOUS
10
170.189
20
-59.8813
11
170.184
21
-59.8328
0
LINE
8
BLACK
6
CONTINUOUS
10
170.184
20
-59.8328
11
170.184
21
-59.3209
0
LINE
8
BLACK
6
CONTINUOUS
10
170.184
20
-59.3209
11
169.672
21
-59.3209
0
LINE
8
BLACK
6
CONTINUOUS
10
169.672
20
-59.3209
11
169.669
21
-59.3208
0
LINE
8
BLACK
6
CONTINUOUS
10
169.669
20
-59.3208
11
169.62
21
-59.3154
0
LINE
8
BLACK
6
CONTINUOUS
10
169.62
20
-59.3154
11
169.574
21
-59.3006
0
LINE
8
BLACK
6
CONTINUOUS
10
169.574
20
-59.3006
11
169.531
21
-59.2771
0
LINE
8
BLACK
6
CONTINUOUS
10
169.531
20
-59.2771
11
169.493
21
-59.2458
0
LINE
8
BLACK
6
CONTINUOUS
10
169.493
20
-59.2458
11
169.463
21
-59.2077
0
LINE
8
BLACK
6
CONTINUOUS
10
169.463
20
-59.2077
11
169.44
21
-59.1645
0
LINE
8
BLACK
6
CONTINUOUS
10
169.44
20
-59.1645
11
169.427
21
-59.1177
0
LINE
8
BLACK
6
CONTINUOUS
10
169.427
20
-59.1177
11
169.422
21
-59.0691
0
LINE
8
BLACK
6
CONTINUOUS
10
169.422
20
-59.0691
11
169.427
21
-59.0206
0
LINE
8
BLACK
6
CONTINUOUS
10
169.427
20
-59.0206
11
169.442
21
-58.974
0
LINE
8
BLACK
6
CONTINUOUS
10
169.442
20
-58.974
11
169.465
21
-58.9311
0
LINE
8
BLACK
6
CONTINUOUS
10
169.465
20
-58.9311
11
169.496
21
-58.8935
0
LINE
8
BLACK
6
CONTINUOUS
10
169.496
20
-58.8935
11
169.534
21
-58.8626
0
LINE
8
BLACK
6
CONTINUOUS
10
169.534
20
-58.8626
11
169.577
21
-58.8397
0
LINE
8
BLACK
6
CONTINUOUS
10
169.577
20
-58.8397
11
169.624
21
-58.8256
0
LINE
8
BLACK
6
CONTINUOUS
10
169.624
20
-58.8256
11
169.672
21
-58.8209
0
LINE
8
BLACK
6
CONTINUOUS
10
169.672
20
-58.8209
11
170.184
21
-58.8209
0
LINE
8
BLACK
6
CONTINUOUS
10
170.184
20
-58.8209
11
170.184
21
-58.309
0
LINE
8
BLACK
6
CONTINUOUS
10
170.184
20
-58.309
11
170.184
21
-58.3055
0
LINE
8
BLACK
6
CONTINUOUS
10
170.184
20
-58.3055
11
170.189
21
-58.257
0
LINE
8
BLACK
6
CONTINUOUS
10
170.189
20
-58.257
11
170.204
21
-58.2105
0
LINE
8
BLACK
6
CONTINUOUS
10
170.204
20
-58.2105
11
170.228
21
-58.1677
0
LINE
8
BLACK
6
CONTINUOUS
10
170.228
20
-58.1677
11
170.259
21
-58.1303
0
LINE
8
BLACK
6
CONTINUOUS
10
170.259
20
-58.1303
11
170.297
21
-58.0998
0
LINE
8
BLACK
6
CONTINUOUS
10
170.297
20
-58.0998
11
170.34
21
-58.0772
0
LINE
8
BLACK
6
CONTINUOUS
10
170.34
20
-58.0772
11
170.387
21
-58.0634
0
LINE
8
BLACK
6
CONTINUOUS
10
170.387
20
-58.0634
11
170.436
21
-58.059
0
LINE
8
BLACK
6
CONTINUOUS
10
170.436
20
-58.059
11
170.484
21
-58.0641
0
LINE
8
BLACK
6
CONTINUOUS
10
170.627
20
-51.5712
11
170.674
21
-51.5856
0
LINE
8
BLACK
6
CONTINUOUS
10
170.674
20
-51.5856
11
170.717
21
-51.6088
0
LINE
8
BLACK
6
CONTINUOUS
10
170.717
20
-51.6088
11
170.754
21
-51.6399
0
LINE
8
BLACK
6
CONTINUOUS
10
170.754
20
-51.6399
11
170.785
21
-51.6777
0
LINE
8
BLACK
6
CONTINUOUS
10
170.785
20
-51.6777
11
170.808
21
-51.7208
0
LINE
8
BLACK
6
CONTINUOUS
10
170.808
20
-51.7208
11
170.822
21
-51.7675
0
LINE
8
BLACK
6
CONTINUOUS
10
170.822
20
-51.7675
11
170.827
21
-51.8161
0
LINE
8
BLACK
6
CONTINUOUS
10
170.827
20
-51.8161
11
170.827
21
-53.3399
0
LINE
8
BLACK
6
CONTINUOUS
10
170.827
20
-53.3399
11
170.827
21
-53.3434
0
LINE
8
BLACK
6
CONTINUOUS
10
170.827
20
-53.3434
11
170.821
21
-53.3919
0
LINE
8
BLACK
6
CONTINUOUS
10
170.821
20
-53.3919
11
170.807
21
-53.4384
0
LINE
8
BLACK
6
CONTINUOUS
10
170.807
20
-53.4384
11
170.783
21
-53.4811
0
LINE
8
BLACK
6
CONTINUOUS
10
170.783
20
-53.4811
11
170.752
21
-53.5185
0
LINE
8
BLACK
6
CONTINUOUS
10
170.752
20
-53.5185
11
170.714
21
-53.5491
0
LINE
8
BLACK
6
CONTINUOUS
10
170.714
20
-53.5491
11
170.671
21
-53.5717
0
LINE
8
BLACK
6
CONTINUOUS
10
170.671
20
-53.5717
11
170.624
21
-53.5855
0
LINE
8
BLACK
6
CONTINUOUS
10
170.624
20
-53.5855
11
170.575
21
-53.5899
0
LINE
8
BLACK
6
CONTINUOUS
10
170.575
20
-53.5899
11
170.527
21
-53.5848
0
LINE
8
BLACK
6
CONTINUOUS
10
170.527
20
-53.5848
11
170.48
21
-53.5704
0
LINE
8
BLACK
6
CONTINUOUS
10
170.48
20
-53.5704
11
170.437
21
-53.5472
0
LINE
8
BLACK
6
CONTINUOUS
10
170.437
20
-53.5472
11
170.399
21
-53.5161
0
LINE
8
BLACK
6
CONTINUOUS
10
170.399
20
-53.5161
11
170.369
21
-53.4783
0
LINE
8
BLACK
6
CONTINUOUS
10
170.369
20
-53.4783
11
170.346
21
-53.4352
0
LINE
8
BLACK
6
CONTINUOUS
10
170.346
20
-53.4352
11
170.332
21
-53.3885
0
LINE
8
BLACK
6
CONTINUOUS
10
170.332
20
-53.3885
11
170.327
21
-53.3399
0
LINE
8
BLACK
6
CONTINUOUS
10
170.327
20
-53.3399
11
170.327
21
-51.8161
0
LINE
8
BLACK
6
CONTINUOUS
10
170.327
20
-51.8161
11
170.327
21
-51.8126
0
LINE
8
BLACK
6
CONTINUOUS
10
170.327
20
-51.8126
11
170.332
21
-51.7641
0
LINE
8
BLACK
6
CONTINUOUS
10
170.332
20
-51.7641
11
170.347
21
-51.7176
0
LINE
8
BLACK
6
CONTINUOUS
10
170.347
20
-51.7176
11
170.371
21
-51.6749
0
LINE
8
BLACK
6
CONTINUOUS
10
170.371
20
-51.6749
11
170.402
21
-51.6375
0
LINE
8
BLACK
6
CONTINUOUS
10
170.402
20
-51.6375
11
170.44
21
-51.6069
0
LINE
8
BLACK
6
CONTINUOUS
10
170.44
20
-51.6069
11
170.483
21
-51.5843
0
LINE
8
BLACK
6
CONTINUOUS
10
170.483
20
-51.5843
11
170.53
21
-51.5705
0
LINE
8
BLACK
6
CONTINUOUS
10
170.53
20
-51.5705
11
170.579
21
-51.5661
0
LINE
8
BLACK
6
CONTINUOUS
10
170.579
20
-51.5661
11
170.627
21
-51.5712
0
LINE
8
BLACK
6
CONTINUOUS
10
99.7611
20
-46.9992
11
99.8077
21
-47.0136
0
LINE
8
BLACK
6
CONTINUOUS
10
99.8077
20
-47.0136
11
99.8507
21
-47.0368
0
LINE
8
BLACK
6
CONTINUOUS
10
99.8507
20
-47.0368
11
99.8882
21
-47.0679
0
LINE
8
BLACK
6
CONTINUOUS
10
99.8882
20
-47.0679
11
99.9191
21
-47.1057
0
LINE
8
BLACK
6
CONTINUOUS
10
99.9191
20
-47.1057
11
99.942
21
-47.1488
0
LINE
8
BLACK
6
CONTINUOUS
10
99.942
20
-47.1488
11
99.9561
21
-47.1955
0
LINE
8
BLACK
6
CONTINUOUS
10
99.9561
20
-47.1955
11
99.9609
21
-47.2441
0
LINE
8
BLACK
6
CONTINUOUS
10
99.9609
20
-47.2441
11
99.9609
21
-48.7679
0
LINE
8
BLACK
6
CONTINUOUS
10
99.9609
20
-48.7679
11
99.9608
21
-48.7714
0
LINE
8
BLACK
6
CONTINUOUS
10
99.9608
20
-48.7714
11
99.9554
21
-48.8199
0
LINE
8
BLACK
6
CONTINUOUS
10
99.9554
20
-48.8199
11
99.9406
21
-48.8664
0
LINE
8
BLACK
6
CONTINUOUS
10
99.9406
20
-48.8664
11
99.9171
21
-48.9091
0
LINE
8
BLACK
6
CONTINUOUS
10
99.9171
20
-48.9091
11
99.8858
21
-48.9465
0
LINE
8
BLACK
6
CONTINUOUS
10
99.8858
20
-48.9465
11
99.8477
21
-48.9771
0
LINE
8
BLACK
6
CONTINUOUS
10
99.8477
20
-48.9771
11
99.8045
21
-48.9997
0
LINE
8
BLACK
6
CONTINUOUS
10
99.8045
20
-48.9997
11
99.7577
21
-49.0135
0
LINE
8
BLACK
6
CONTINUOUS
10
99.7577
20
-49.0135
11
99.7091
21
-49.0179
0
LINE
8
BLACK
6
CONTINUOUS
10
99.7091
20
-49.0179
11
99.6606
21
-49.0128
0
LINE
8
BLACK
6
CONTINUOUS
10
99.6606
20
-49.0128
11
99.614
21
-48.9984
0
LINE
8
BLACK
6
CONTINUOUS
10
99.614
20
-48.9984
11
99.5711
21
-48.9752
0
LINE
8
BLACK
6
CONTINUOUS
10
99.5711
20
-48.9752
11
99.5335
21
-48.9441
0
LINE
8
BLACK
6
CONTINUOUS
10
99.5335
20
-48.9441
11
99.5026
21
-48.9063
0
LINE
8
BLACK
6
CONTINUOUS
10
99.5026
20
-48.9063
11
99.4797
21
-48.8632
0
LINE
8
BLACK
6
CONTINUOUS
10
99.4797
20
-48.8632
11
99.4656
21
-48.8165
0
LINE
8
BLACK
6
CONTINUOUS
10
99.4656
20
-48.8165
11
99.4609
21
-48.7679
0
LINE
8
BLACK
6
CONTINUOUS
10
99.4609
20
-48.7679
11
99.4609
21
-47.2441
0
LINE
8
BLACK
6
CONTINUOUS
10
99.4609
20
-47.2441
11
99.4609
21
-47.2406
0
LINE
8
BLACK
6
CONTINUOUS
10
99.4609
20
-47.2406
11
99.4663
21
-47.1921
0
LINE
8
BLACK
6
CONTINUOUS
10
99.4663
20
-47.1921
11
99.4811
21
-47.1456
0
LINE
8
BLACK
6
CONTINUOUS
10
99.4811
20
-47.1456
11
99.5046
21
-47.1029
0
LINE
8
BLACK
6
CONTINUOUS
10
99.5046
20
-47.1029
11
99.5359
21
-47.0655
0
LINE
8
BLACK
6
CONTINUOUS
10
99.5359
20
-47.0655
11
99.574
21
-47.0349
0
LINE
8
BLACK
6
CONTINUOUS
10
99.574
20
-47.0349
11
99.6172
21
-47.0123
0
LINE
8
BLACK
6
CONTINUOUS
10
99.6172
20
-47.0123
11
99.664
21
-46.9985
0
LINE
8
BLACK
6
CONTINUOUS
10
99.664
20
-46.9985
11
99.7126
21
-46.9941
0
LINE
8
BLACK
6
CONTINUOUS
10
99.7126
20
-46.9941
11
99.7611
21
-46.9992
  0
ENDSEC
  0
EOF
