G04 #@! TF.GenerationSoftware,KiCad,Pcbnew,(5.1.2)-2*
G04 #@! TF.CreationDate,2019-10-31T11:57:37-10:00*
G04 #@! TF.ProjectId,buck converter,6275636b-2063-46f6-9e76-65727465722e,rev?*
G04 #@! TF.SameCoordinates,Original*
G04 #@! TF.FileFunction,Copper,L2,Bot*
G04 #@! TF.FilePolarity,Positive*
%FSLAX46Y46*%
G04 Gerber Fmt 4.6, Leading zero omitted, Abs format (unit mm)*
G04 Created by KiCad (PCBNEW (5.1.2)-2) date 2019-10-31 11:57:37*
%MOMM*%
%LPD*%
G04 APERTURE LIST*
%ADD10R,1.600000X1.600000*%
%ADD11C,1.600000*%
%ADD12O,2.400000X2.400000*%
%ADD13R,2.400000X2.400000*%
%ADD14R,1.800000X1.800000*%
%ADD15C,1.800000*%
%ADD16R,3.000000X3.000000*%
%ADD17C,3.000000*%
%ADD18C,2.400000*%
%ADD19R,1.275000X2.000000*%
%ADD20O,1.275000X2.000000*%
%ADD21O,1.600000X1.600000*%
%ADD22C,0.700000*%
%ADD23C,0.254000*%
G04 APERTURE END LIST*
D10*
X108966000Y-48768000D03*
D11*
X106966000Y-48768000D03*
X152908000Y-53626000D03*
D10*
X152908000Y-55626000D03*
D12*
X117094000Y-62992000D03*
D13*
X106934000Y-62992000D03*
X134366000Y-55626000D03*
D12*
X144526000Y-55626000D03*
D14*
X114046000Y-49022000D03*
D15*
X116586000Y-49022000D03*
X152908000Y-46736000D03*
D14*
X152908000Y-49276000D03*
D16*
X99822000Y-57912000D03*
D17*
X99822000Y-52832000D03*
X164592000Y-58166000D03*
D16*
X164592000Y-53086000D03*
D18*
X135890000Y-63246000D03*
D12*
X143510000Y-63246000D03*
X116332000Y-56388000D03*
D18*
X108712000Y-56388000D03*
X136144000Y-48514000D03*
D12*
X143764000Y-48514000D03*
D15*
X123524000Y-50038000D03*
X126024000Y-50038000D03*
X128524000Y-50038000D03*
D19*
X122994000Y-62230000D03*
D20*
X124694000Y-62230000D03*
X126394000Y-62230000D03*
X128094000Y-62230000D03*
X129794000Y-62230000D03*
D11*
X150622000Y-62992000D03*
D21*
X153162000Y-62992000D03*
D22*
X108966000Y-56134000D02*
X108712000Y-56388000D01*
X108966000Y-48768000D02*
X108966000Y-56134000D01*
X105034000Y-62992000D02*
X106934000Y-62992000D01*
X102702000Y-62992000D02*
X105034000Y-62992000D01*
X99822000Y-60112000D02*
X102702000Y-62992000D01*
X99822000Y-57912000D02*
X99822000Y-60112000D01*
X106934000Y-58166000D02*
X106934000Y-62992000D01*
X108712000Y-56388000D02*
X106934000Y-58166000D01*
X122994000Y-63950000D02*
X122994000Y-62230000D01*
X121412000Y-65532000D02*
X122994000Y-63950000D01*
X113030000Y-65532000D02*
X121412000Y-65532000D01*
X108712000Y-56388000D02*
X108712000Y-61214000D01*
X108712000Y-61214000D02*
X113030000Y-65532000D01*
X99822000Y-52832000D02*
X99822000Y-50292000D01*
X101346000Y-48768000D02*
X106966000Y-48768000D01*
X99822000Y-50292000D02*
X101346000Y-48768000D01*
X114046000Y-47422000D02*
X112598000Y-45974000D01*
X114046000Y-49022000D02*
X114046000Y-47422000D01*
X112598000Y-45974000D02*
X107950000Y-45974000D01*
X106966000Y-46958000D02*
X106966000Y-48768000D01*
X107950000Y-45974000D02*
X106966000Y-46958000D01*
X114046000Y-59944000D02*
X117094000Y-62992000D01*
X114046000Y-49022000D02*
X114046000Y-59944000D01*
X126394000Y-61867500D02*
X126394000Y-62230000D01*
X125056500Y-60530000D02*
X126394000Y-61867500D01*
X119556000Y-60530000D02*
X125056500Y-60530000D01*
X117094000Y-62992000D02*
X119556000Y-60530000D01*
X164052000Y-53626000D02*
X164592000Y-53086000D01*
X152908000Y-53626000D02*
X164052000Y-53626000D01*
X152908000Y-49276000D02*
X152908000Y-53626000D01*
X146526000Y-53626000D02*
X152908000Y-53626000D01*
X144526000Y-55626000D02*
X146526000Y-53626000D01*
X131131500Y-62230000D02*
X129794000Y-62230000D01*
X133897501Y-64996001D02*
X131131500Y-62230000D01*
X141759999Y-64996001D02*
X133897501Y-64996001D01*
X143510000Y-63246000D02*
X141759999Y-64996001D01*
X144526000Y-53928944D02*
X137333056Y-46736000D01*
X144526000Y-55626000D02*
X144526000Y-53928944D01*
X141812944Y-63246000D02*
X143510000Y-63246000D01*
X138595998Y-63246000D02*
X141812944Y-63246000D01*
X132615999Y-57266001D02*
X138595998Y-63246000D01*
X132615999Y-49451999D02*
X132615999Y-57266001D01*
X135331998Y-46736000D02*
X132615999Y-49451999D01*
X137333056Y-46736000D02*
X135331998Y-46736000D01*
X153162000Y-55880000D02*
X152908000Y-55626000D01*
X153162000Y-62992000D02*
X153162000Y-55880000D01*
X161887320Y-62992000D02*
X153162000Y-62992000D01*
X164592000Y-58166000D02*
X164592000Y-60287320D01*
X164592000Y-60287320D02*
X161887320Y-62992000D01*
X123524000Y-47324000D02*
X123524000Y-50038000D01*
X167132000Y-55626000D02*
X167132000Y-51635998D01*
X167132000Y-51635998D02*
X160782001Y-45285999D01*
X164592000Y-58166000D02*
X167132000Y-55626000D01*
X160782001Y-45285999D02*
X125402001Y-45285999D01*
X125402001Y-45285999D02*
X123444000Y-47244000D01*
X123444000Y-47244000D02*
X123524000Y-47324000D01*
X134366000Y-50292000D02*
X134366000Y-55626000D01*
X136144000Y-48514000D02*
X134366000Y-50292000D01*
X149822001Y-63791999D02*
X150622000Y-62992000D01*
X147717990Y-65896010D02*
X149822001Y-63791999D01*
X126660010Y-65896010D02*
X147717990Y-65896010D01*
X124694000Y-63930000D02*
X126660010Y-65896010D01*
X124694000Y-62230000D02*
X124694000Y-63930000D01*
X149490630Y-62992000D02*
X150622000Y-62992000D01*
X145846002Y-62992000D02*
X149490630Y-62992000D01*
X138480002Y-55626000D02*
X145846002Y-62992000D01*
X134366000Y-55626000D02*
X138480002Y-55626000D01*
X116332000Y-49276000D02*
X116586000Y-49022000D01*
X116332000Y-56388000D02*
X116332000Y-49276000D01*
X145542000Y-46736000D02*
X143764000Y-48514000D01*
X152908000Y-46736000D02*
X145542000Y-46736000D01*
X126024000Y-50038000D02*
X128524000Y-50038000D01*
X128524000Y-51310792D02*
X128016000Y-51818792D01*
X128524000Y-50038000D02*
X128524000Y-51310792D01*
X128016000Y-51818792D02*
X128094000Y-51896792D01*
X130558944Y-59612000D02*
X128094000Y-59612000D01*
X134192944Y-63246000D02*
X130558944Y-59612000D01*
X135890000Y-63246000D02*
X134192944Y-63246000D01*
X128094000Y-51896792D02*
X128094000Y-59612000D01*
X128094000Y-59612000D02*
X128094000Y-62230000D01*
D23*
G36*
X172847000Y-43025159D02*
G01*
X172847000Y-68453000D01*
X94869000Y-68453000D01*
X94869000Y-56412000D01*
X97683928Y-56412000D01*
X97683928Y-59412000D01*
X97696188Y-59536482D01*
X97732498Y-59656180D01*
X97791463Y-59766494D01*
X97870815Y-59863185D01*
X97967506Y-59942537D01*
X98077820Y-60001502D01*
X98197518Y-60037812D01*
X98322000Y-60050072D01*
X98837001Y-60050072D01*
X98837001Y-60063610D01*
X98832235Y-60112000D01*
X98851253Y-60305093D01*
X98907576Y-60490766D01*
X98907577Y-60490767D01*
X98999041Y-60661884D01*
X99122131Y-60811870D01*
X99159711Y-60842711D01*
X101971284Y-63654284D01*
X102002130Y-63691870D01*
X102152116Y-63814960D01*
X102323233Y-63906424D01*
X102508906Y-63962747D01*
X102701999Y-63981765D01*
X102750379Y-63977000D01*
X105095928Y-63977000D01*
X105095928Y-64192000D01*
X105108188Y-64316482D01*
X105144498Y-64436180D01*
X105203463Y-64546494D01*
X105282815Y-64643185D01*
X105379506Y-64722537D01*
X105489820Y-64781502D01*
X105609518Y-64817812D01*
X105734000Y-64830072D01*
X108134000Y-64830072D01*
X108258482Y-64817812D01*
X108378180Y-64781502D01*
X108488494Y-64722537D01*
X108585185Y-64643185D01*
X108664537Y-64546494D01*
X108723502Y-64436180D01*
X108759812Y-64316482D01*
X108772072Y-64192000D01*
X108772072Y-62667072D01*
X112299284Y-66194284D01*
X112330130Y-66231870D01*
X112480116Y-66354960D01*
X112650240Y-66445893D01*
X112651233Y-66446424D01*
X112836905Y-66502747D01*
X113029999Y-66521765D01*
X113078379Y-66517000D01*
X121363620Y-66517000D01*
X121412000Y-66521765D01*
X121460380Y-66517000D01*
X121605094Y-66502747D01*
X121790767Y-66446424D01*
X121961884Y-66354960D01*
X122111870Y-66231870D01*
X122142716Y-66194285D01*
X123656290Y-64680711D01*
X123693870Y-64649870D01*
X123816960Y-64499884D01*
X123849346Y-64439295D01*
X123871041Y-64479884D01*
X123994131Y-64629870D01*
X124031711Y-64660711D01*
X125929299Y-66558300D01*
X125960140Y-66595880D01*
X126110126Y-66718970D01*
X126281243Y-66810434D01*
X126466916Y-66866757D01*
X126660009Y-66885775D01*
X126708389Y-66881010D01*
X147669610Y-66881010D01*
X147717990Y-66885775D01*
X147766370Y-66881010D01*
X147911084Y-66866757D01*
X148096757Y-66810434D01*
X148267874Y-66718970D01*
X148417860Y-66595880D01*
X148448706Y-66558294D01*
X150552711Y-64454290D01*
X150552716Y-64454284D01*
X150580000Y-64427000D01*
X150763335Y-64427000D01*
X151040574Y-64371853D01*
X151301727Y-64263680D01*
X151536759Y-64106637D01*
X151736637Y-63906759D01*
X151893680Y-63671727D01*
X151895650Y-63666971D01*
X151963068Y-63793101D01*
X152142392Y-64011608D01*
X152360899Y-64190932D01*
X152610192Y-64324182D01*
X152880691Y-64406236D01*
X153091508Y-64427000D01*
X153232492Y-64427000D01*
X153443309Y-64406236D01*
X153713808Y-64324182D01*
X153963101Y-64190932D01*
X154181608Y-64011608D01*
X154210010Y-63977000D01*
X161838940Y-63977000D01*
X161887320Y-63981765D01*
X161935700Y-63977000D01*
X162080414Y-63962747D01*
X162266087Y-63906424D01*
X162437204Y-63814960D01*
X162587190Y-63691870D01*
X162618036Y-63654284D01*
X165254284Y-61018036D01*
X165291870Y-60987190D01*
X165414960Y-60837204D01*
X165506424Y-60666087D01*
X165562747Y-60480414D01*
X165577000Y-60335700D01*
X165581765Y-60287321D01*
X165577000Y-60238941D01*
X165577000Y-60068907D01*
X165603302Y-60058012D01*
X165952983Y-59824363D01*
X166250363Y-59526983D01*
X166484012Y-59177302D01*
X166644953Y-58788756D01*
X166727000Y-58376279D01*
X166727000Y-57955721D01*
X166644953Y-57543244D01*
X166634058Y-57516942D01*
X167794284Y-56356716D01*
X167831870Y-56325870D01*
X167954960Y-56175884D01*
X168046424Y-56004767D01*
X168102747Y-55819094D01*
X168117000Y-55674380D01*
X168117000Y-55674379D01*
X168121765Y-55626001D01*
X168117000Y-55577623D01*
X168117000Y-51684378D01*
X168121765Y-51635998D01*
X168102747Y-51442904D01*
X168046424Y-51257231D01*
X167954960Y-51086114D01*
X167907074Y-51027765D01*
X167831870Y-50936128D01*
X167794290Y-50905287D01*
X161512717Y-44623715D01*
X161481871Y-44586129D01*
X161331885Y-44463039D01*
X161160768Y-44371575D01*
X160975095Y-44315252D01*
X160830381Y-44300999D01*
X160782001Y-44296234D01*
X160733621Y-44300999D01*
X125450381Y-44300999D01*
X125402001Y-44296234D01*
X125353621Y-44300999D01*
X125208907Y-44315252D01*
X125023234Y-44371575D01*
X124852117Y-44463039D01*
X124702131Y-44586129D01*
X124671290Y-44623709D01*
X122781705Y-46513295D01*
X122744131Y-46544131D01*
X122713294Y-46581706D01*
X122713290Y-46581710D01*
X122633447Y-46679000D01*
X122621041Y-46694117D01*
X122529576Y-46865234D01*
X122473253Y-47050907D01*
X122454235Y-47244000D01*
X122473253Y-47437093D01*
X122529576Y-47622766D01*
X122539000Y-47640397D01*
X122539001Y-48852182D01*
X122331688Y-49059495D01*
X122163701Y-49310905D01*
X122047989Y-49590257D01*
X121989000Y-49886816D01*
X121989000Y-50189184D01*
X122047989Y-50485743D01*
X122163701Y-50765095D01*
X122331688Y-51016505D01*
X122545495Y-51230312D01*
X122796905Y-51398299D01*
X123076257Y-51514011D01*
X123372816Y-51573000D01*
X123675184Y-51573000D01*
X123971743Y-51514011D01*
X124251095Y-51398299D01*
X124502505Y-51230312D01*
X124716312Y-51016505D01*
X124774000Y-50930169D01*
X124831688Y-51016505D01*
X125045495Y-51230312D01*
X125296905Y-51398299D01*
X125576257Y-51514011D01*
X125872816Y-51573000D01*
X126175184Y-51573000D01*
X126471743Y-51514011D01*
X126751095Y-51398299D01*
X127002505Y-51230312D01*
X127209817Y-51023000D01*
X127338183Y-51023000D01*
X127378488Y-51063305D01*
X127353706Y-51088086D01*
X127316131Y-51118923D01*
X127285294Y-51156498D01*
X127285290Y-51156502D01*
X127223737Y-51231506D01*
X127193041Y-51268909D01*
X127101576Y-51440026D01*
X127045253Y-51625699D01*
X127026235Y-51818792D01*
X127045253Y-52011885D01*
X127101576Y-52197558D01*
X127109000Y-52211447D01*
X127109001Y-59563610D01*
X127104235Y-59612000D01*
X127109000Y-59660380D01*
X127109000Y-60814612D01*
X126995367Y-60738898D01*
X126763633Y-60643263D01*
X126717505Y-60636809D01*
X126521000Y-60761015D01*
X126521000Y-62103000D01*
X126541000Y-62103000D01*
X126541000Y-62357000D01*
X126521000Y-62357000D01*
X126521000Y-63698985D01*
X126717505Y-63823191D01*
X126763633Y-63816737D01*
X126995367Y-63721102D01*
X127203991Y-63582095D01*
X127244609Y-63541583D01*
X127383617Y-63655664D01*
X127604680Y-63773825D01*
X127844547Y-63846588D01*
X128094000Y-63871157D01*
X128343454Y-63846588D01*
X128583321Y-63773825D01*
X128804384Y-63655664D01*
X128943392Y-63541583D01*
X128984009Y-63582095D01*
X129192633Y-63721102D01*
X129424367Y-63816737D01*
X129470495Y-63823191D01*
X129667000Y-63698985D01*
X129667000Y-62357000D01*
X129921000Y-62357000D01*
X129921000Y-63698985D01*
X130117505Y-63823191D01*
X130163633Y-63816737D01*
X130395367Y-63721102D01*
X130603991Y-63582095D01*
X130781488Y-63405059D01*
X130921036Y-63196797D01*
X131017273Y-62965312D01*
X131066500Y-62719500D01*
X131066500Y-62357000D01*
X129921000Y-62357000D01*
X129667000Y-62357000D01*
X129647000Y-62357000D01*
X129647000Y-62103000D01*
X129667000Y-62103000D01*
X129667000Y-62083000D01*
X129921000Y-62083000D01*
X129921000Y-62103000D01*
X131066500Y-62103000D01*
X131066500Y-61740500D01*
X131017273Y-61494688D01*
X130994959Y-61441015D01*
X133462228Y-63908284D01*
X133493074Y-63945870D01*
X133643060Y-64068960D01*
X133744336Y-64123093D01*
X133814177Y-64160424D01*
X133999850Y-64216747D01*
X134192943Y-64235765D01*
X134241323Y-64231000D01*
X134341220Y-64231000D01*
X134464662Y-64415744D01*
X134720256Y-64671338D01*
X135020801Y-64872156D01*
X135114603Y-64911010D01*
X127068011Y-64911010D01*
X125938160Y-63781160D01*
X126024367Y-63816737D01*
X126070495Y-63823191D01*
X126267000Y-63698985D01*
X126267000Y-62357000D01*
X126247000Y-62357000D01*
X126247000Y-62103000D01*
X126267000Y-62103000D01*
X126267000Y-60761015D01*
X126070495Y-60636809D01*
X126024367Y-60643263D01*
X125792633Y-60738898D01*
X125584009Y-60877905D01*
X125543392Y-60918417D01*
X125404383Y-60804336D01*
X125183320Y-60686175D01*
X124943453Y-60613412D01*
X124694000Y-60588843D01*
X124444546Y-60613412D01*
X124204679Y-60686175D01*
X124062442Y-60762202D01*
X123985994Y-60699463D01*
X123875680Y-60640498D01*
X123755982Y-60604188D01*
X123631500Y-60591928D01*
X122356500Y-60591928D01*
X122232018Y-60604188D01*
X122112320Y-60640498D01*
X122002006Y-60699463D01*
X121905315Y-60778815D01*
X121825963Y-60875506D01*
X121766998Y-60985820D01*
X121730688Y-61105518D01*
X121718428Y-61230000D01*
X121718428Y-63230000D01*
X121730688Y-63354482D01*
X121766998Y-63474180D01*
X121825963Y-63584494D01*
X121889313Y-63661686D01*
X121004000Y-64547000D01*
X118053302Y-64547000D01*
X118158774Y-64486489D01*
X118429875Y-64250046D01*
X118649639Y-63965257D01*
X118809621Y-63643066D01*
X118882195Y-63403805D01*
X118765432Y-63119000D01*
X117221000Y-63119000D01*
X117221000Y-63139000D01*
X116967000Y-63139000D01*
X116967000Y-63119000D01*
X115422568Y-63119000D01*
X115305805Y-63403805D01*
X115378379Y-63643066D01*
X115538361Y-63965257D01*
X115758125Y-64250046D01*
X116029226Y-64486489D01*
X116134698Y-64547000D01*
X113438000Y-64547000D01*
X111471195Y-62580195D01*
X115305805Y-62580195D01*
X115422568Y-62865000D01*
X116967000Y-62865000D01*
X116967000Y-61320146D01*
X117221000Y-61320146D01*
X117221000Y-62865000D01*
X118765432Y-62865000D01*
X118882195Y-62580195D01*
X118809621Y-62340934D01*
X118649639Y-62018743D01*
X118429875Y-61733954D01*
X118158774Y-61497511D01*
X117846754Y-61318500D01*
X117505806Y-61203801D01*
X117221000Y-61320146D01*
X116967000Y-61320146D01*
X116682194Y-61203801D01*
X116341246Y-61318500D01*
X116029226Y-61497511D01*
X115758125Y-61733954D01*
X115538361Y-62018743D01*
X115378379Y-62340934D01*
X115305805Y-62580195D01*
X111471195Y-62580195D01*
X109697000Y-60806000D01*
X109697000Y-57936780D01*
X109881744Y-57813338D01*
X110137338Y-57557744D01*
X110338156Y-57257199D01*
X110476482Y-56923250D01*
X110547000Y-56568732D01*
X110547000Y-56207268D01*
X110476482Y-55852750D01*
X110338156Y-55518801D01*
X110137338Y-55218256D01*
X109951000Y-55031918D01*
X109951000Y-50175454D01*
X110010180Y-50157502D01*
X110120494Y-50098537D01*
X110217185Y-50019185D01*
X110296537Y-49922494D01*
X110296801Y-49922000D01*
X112507928Y-49922000D01*
X112520188Y-50046482D01*
X112556498Y-50166180D01*
X112615463Y-50276494D01*
X112694815Y-50373185D01*
X112791506Y-50452537D01*
X112901820Y-50511502D01*
X113021518Y-50547812D01*
X113146000Y-50560072D01*
X113760250Y-50557000D01*
X113919000Y-50398250D01*
X113919000Y-49149000D01*
X112669750Y-49149000D01*
X112511000Y-49307750D01*
X112507928Y-49922000D01*
X110296801Y-49922000D01*
X110355502Y-49812180D01*
X110391812Y-49692482D01*
X110404072Y-49568000D01*
X110404072Y-48122000D01*
X112507928Y-48122000D01*
X112511000Y-48736250D01*
X112669750Y-48895000D01*
X113919000Y-48895000D01*
X113919000Y-47645750D01*
X114173000Y-47645750D01*
X114173000Y-48895000D01*
X114193000Y-48895000D01*
X114193000Y-49149000D01*
X114173000Y-49149000D01*
X114173000Y-50398250D01*
X114331750Y-50557000D01*
X114946000Y-50560072D01*
X115070482Y-50547812D01*
X115190180Y-50511502D01*
X115300494Y-50452537D01*
X115347001Y-50414370D01*
X115347000Y-54833809D01*
X115307596Y-54854871D01*
X115028181Y-55084181D01*
X114798871Y-55363596D01*
X114628479Y-55682378D01*
X114523552Y-56028277D01*
X114488122Y-56388000D01*
X114523552Y-56747723D01*
X114628479Y-57093622D01*
X114798871Y-57412404D01*
X115028181Y-57691819D01*
X115307596Y-57921129D01*
X115626378Y-58091521D01*
X115972277Y-58196448D01*
X116241861Y-58223000D01*
X116422139Y-58223000D01*
X116691723Y-58196448D01*
X117037622Y-58091521D01*
X117356404Y-57921129D01*
X117635819Y-57691819D01*
X117865129Y-57412404D01*
X118035521Y-57093622D01*
X118140448Y-56747723D01*
X118175878Y-56388000D01*
X118140448Y-56028277D01*
X118035521Y-55682378D01*
X117865129Y-55363596D01*
X117635819Y-55084181D01*
X117356404Y-54854871D01*
X117317000Y-54833809D01*
X117317000Y-50379690D01*
X117564505Y-50214312D01*
X117778312Y-50000505D01*
X117946299Y-49749095D01*
X118062011Y-49469743D01*
X118121000Y-49173184D01*
X118121000Y-48870816D01*
X118062011Y-48574257D01*
X117946299Y-48294905D01*
X117778312Y-48043495D01*
X117564505Y-47829688D01*
X117313095Y-47661701D01*
X117033743Y-47545989D01*
X116737184Y-47487000D01*
X116434816Y-47487000D01*
X116138257Y-47545989D01*
X115858905Y-47661701D01*
X115607495Y-47829688D01*
X115541056Y-47896127D01*
X115535502Y-47877820D01*
X115476537Y-47767506D01*
X115397185Y-47670815D01*
X115300494Y-47591463D01*
X115190180Y-47532498D01*
X115070482Y-47496188D01*
X114946000Y-47483928D01*
X114331750Y-47487000D01*
X114173000Y-47645750D01*
X113919000Y-47645750D01*
X113760250Y-47487000D01*
X113146000Y-47483928D01*
X113021518Y-47496188D01*
X112901820Y-47532498D01*
X112791506Y-47591463D01*
X112694815Y-47670815D01*
X112615463Y-47767506D01*
X112556498Y-47877820D01*
X112520188Y-47997518D01*
X112507928Y-48122000D01*
X110404072Y-48122000D01*
X110404072Y-47968000D01*
X110391812Y-47843518D01*
X110355502Y-47723820D01*
X110296537Y-47613506D01*
X110217185Y-47516815D01*
X110120494Y-47437463D01*
X110010180Y-47378498D01*
X109890482Y-47342188D01*
X109766000Y-47329928D01*
X108166000Y-47329928D01*
X108041518Y-47342188D01*
X107921820Y-47378498D01*
X107811506Y-47437463D01*
X107714815Y-47516815D01*
X107704193Y-47529758D01*
X107452004Y-47410429D01*
X107177816Y-47341700D01*
X106895488Y-47327783D01*
X106615870Y-47369213D01*
X106349708Y-47464397D01*
X106224486Y-47531329D01*
X106152903Y-47775298D01*
X106966000Y-48588395D01*
X106980143Y-48574253D01*
X107159748Y-48753858D01*
X107145605Y-48768000D01*
X107159748Y-48782143D01*
X106980143Y-48961748D01*
X106966000Y-48947605D01*
X106152903Y-49760702D01*
X106224486Y-50004671D01*
X106479996Y-50125571D01*
X106754184Y-50194300D01*
X107036512Y-50208217D01*
X107316130Y-50166787D01*
X107582292Y-50071603D01*
X107704309Y-50006384D01*
X107714815Y-50019185D01*
X107811506Y-50098537D01*
X107921820Y-50157502D01*
X107981000Y-50175454D01*
X107981001Y-54704600D01*
X107842801Y-54761844D01*
X107542256Y-54962662D01*
X107286662Y-55218256D01*
X107085844Y-55518801D01*
X106947518Y-55852750D01*
X106877000Y-56207268D01*
X106877000Y-56568732D01*
X106920347Y-56786653D01*
X106271716Y-57435284D01*
X106234130Y-57466130D01*
X106111040Y-57616116D01*
X106019577Y-57787233D01*
X106019576Y-57787234D01*
X105963253Y-57972907D01*
X105944235Y-58166000D01*
X105949000Y-58214380D01*
X105949001Y-61153928D01*
X105734000Y-61153928D01*
X105609518Y-61166188D01*
X105489820Y-61202498D01*
X105379506Y-61261463D01*
X105282815Y-61340815D01*
X105203463Y-61437506D01*
X105144498Y-61547820D01*
X105108188Y-61667518D01*
X105095928Y-61792000D01*
X105095928Y-62007000D01*
X103110000Y-62007000D01*
X101153072Y-60050072D01*
X101322000Y-60050072D01*
X101446482Y-60037812D01*
X101566180Y-60001502D01*
X101676494Y-59942537D01*
X101773185Y-59863185D01*
X101852537Y-59766494D01*
X101911502Y-59656180D01*
X101947812Y-59536482D01*
X101960072Y-59412000D01*
X101960072Y-56412000D01*
X101947812Y-56287518D01*
X101911502Y-56167820D01*
X101852537Y-56057506D01*
X101773185Y-55960815D01*
X101676494Y-55881463D01*
X101566180Y-55822498D01*
X101446482Y-55786188D01*
X101322000Y-55773928D01*
X98322000Y-55773928D01*
X98197518Y-55786188D01*
X98077820Y-55822498D01*
X97967506Y-55881463D01*
X97870815Y-55960815D01*
X97791463Y-56057506D01*
X97732498Y-56167820D01*
X97696188Y-56287518D01*
X97683928Y-56412000D01*
X94869000Y-56412000D01*
X94869000Y-54323653D01*
X98509952Y-54323653D01*
X98665962Y-54639214D01*
X99040745Y-54830020D01*
X99445551Y-54944044D01*
X99864824Y-54976902D01*
X100282451Y-54927334D01*
X100682383Y-54797243D01*
X100978038Y-54639214D01*
X101134048Y-54323653D01*
X99822000Y-53011605D01*
X98509952Y-54323653D01*
X94869000Y-54323653D01*
X94869000Y-52874824D01*
X97677098Y-52874824D01*
X97726666Y-53292451D01*
X97856757Y-53692383D01*
X98014786Y-53988038D01*
X98330347Y-54144048D01*
X99642395Y-52832000D01*
X100001605Y-52832000D01*
X101313653Y-54144048D01*
X101629214Y-53988038D01*
X101820020Y-53613255D01*
X101934044Y-53208449D01*
X101966902Y-52789176D01*
X101917334Y-52371549D01*
X101787243Y-51971617D01*
X101629214Y-51675962D01*
X101313653Y-51519952D01*
X100001605Y-52832000D01*
X99642395Y-52832000D01*
X98330347Y-51519952D01*
X98014786Y-51675962D01*
X97823980Y-52050745D01*
X97709956Y-52455551D01*
X97677098Y-52874824D01*
X94869000Y-52874824D01*
X94869000Y-51340347D01*
X98509952Y-51340347D01*
X99822000Y-52652395D01*
X101134048Y-51340347D01*
X100978038Y-51024786D01*
X100603255Y-50833980D01*
X100198449Y-50719956D01*
X99779176Y-50687098D01*
X99361549Y-50736666D01*
X98961617Y-50866757D01*
X98665962Y-51024786D01*
X98509952Y-51340347D01*
X94869000Y-51340347D01*
X94869000Y-48838512D01*
X105525783Y-48838512D01*
X105567213Y-49118130D01*
X105662397Y-49384292D01*
X105729329Y-49509514D01*
X105973298Y-49581097D01*
X106786395Y-48768000D01*
X105973298Y-47954903D01*
X105729329Y-48026486D01*
X105608429Y-48281996D01*
X105539700Y-48556184D01*
X105525783Y-48838512D01*
X94869000Y-48838512D01*
X94869000Y-43052583D01*
X171942571Y-42799051D01*
X172847000Y-43025159D01*
X172847000Y-43025159D01*
G37*
X172847000Y-43025159D02*
X172847000Y-68453000D01*
X94869000Y-68453000D01*
X94869000Y-56412000D01*
X97683928Y-56412000D01*
X97683928Y-59412000D01*
X97696188Y-59536482D01*
X97732498Y-59656180D01*
X97791463Y-59766494D01*
X97870815Y-59863185D01*
X97967506Y-59942537D01*
X98077820Y-60001502D01*
X98197518Y-60037812D01*
X98322000Y-60050072D01*
X98837001Y-60050072D01*
X98837001Y-60063610D01*
X98832235Y-60112000D01*
X98851253Y-60305093D01*
X98907576Y-60490766D01*
X98907577Y-60490767D01*
X98999041Y-60661884D01*
X99122131Y-60811870D01*
X99159711Y-60842711D01*
X101971284Y-63654284D01*
X102002130Y-63691870D01*
X102152116Y-63814960D01*
X102323233Y-63906424D01*
X102508906Y-63962747D01*
X102701999Y-63981765D01*
X102750379Y-63977000D01*
X105095928Y-63977000D01*
X105095928Y-64192000D01*
X105108188Y-64316482D01*
X105144498Y-64436180D01*
X105203463Y-64546494D01*
X105282815Y-64643185D01*
X105379506Y-64722537D01*
X105489820Y-64781502D01*
X105609518Y-64817812D01*
X105734000Y-64830072D01*
X108134000Y-64830072D01*
X108258482Y-64817812D01*
X108378180Y-64781502D01*
X108488494Y-64722537D01*
X108585185Y-64643185D01*
X108664537Y-64546494D01*
X108723502Y-64436180D01*
X108759812Y-64316482D01*
X108772072Y-64192000D01*
X108772072Y-62667072D01*
X112299284Y-66194284D01*
X112330130Y-66231870D01*
X112480116Y-66354960D01*
X112650240Y-66445893D01*
X112651233Y-66446424D01*
X112836905Y-66502747D01*
X113029999Y-66521765D01*
X113078379Y-66517000D01*
X121363620Y-66517000D01*
X121412000Y-66521765D01*
X121460380Y-66517000D01*
X121605094Y-66502747D01*
X121790767Y-66446424D01*
X121961884Y-66354960D01*
X122111870Y-66231870D01*
X122142716Y-66194285D01*
X123656290Y-64680711D01*
X123693870Y-64649870D01*
X123816960Y-64499884D01*
X123849346Y-64439295D01*
X123871041Y-64479884D01*
X123994131Y-64629870D01*
X124031711Y-64660711D01*
X125929299Y-66558300D01*
X125960140Y-66595880D01*
X126110126Y-66718970D01*
X126281243Y-66810434D01*
X126466916Y-66866757D01*
X126660009Y-66885775D01*
X126708389Y-66881010D01*
X147669610Y-66881010D01*
X147717990Y-66885775D01*
X147766370Y-66881010D01*
X147911084Y-66866757D01*
X148096757Y-66810434D01*
X148267874Y-66718970D01*
X148417860Y-66595880D01*
X148448706Y-66558294D01*
X150552711Y-64454290D01*
X150552716Y-64454284D01*
X150580000Y-64427000D01*
X150763335Y-64427000D01*
X151040574Y-64371853D01*
X151301727Y-64263680D01*
X151536759Y-64106637D01*
X151736637Y-63906759D01*
X151893680Y-63671727D01*
X151895650Y-63666971D01*
X151963068Y-63793101D01*
X152142392Y-64011608D01*
X152360899Y-64190932D01*
X152610192Y-64324182D01*
X152880691Y-64406236D01*
X153091508Y-64427000D01*
X153232492Y-64427000D01*
X153443309Y-64406236D01*
X153713808Y-64324182D01*
X153963101Y-64190932D01*
X154181608Y-64011608D01*
X154210010Y-63977000D01*
X161838940Y-63977000D01*
X161887320Y-63981765D01*
X161935700Y-63977000D01*
X162080414Y-63962747D01*
X162266087Y-63906424D01*
X162437204Y-63814960D01*
X162587190Y-63691870D01*
X162618036Y-63654284D01*
X165254284Y-61018036D01*
X165291870Y-60987190D01*
X165414960Y-60837204D01*
X165506424Y-60666087D01*
X165562747Y-60480414D01*
X165577000Y-60335700D01*
X165581765Y-60287321D01*
X165577000Y-60238941D01*
X165577000Y-60068907D01*
X165603302Y-60058012D01*
X165952983Y-59824363D01*
X166250363Y-59526983D01*
X166484012Y-59177302D01*
X166644953Y-58788756D01*
X166727000Y-58376279D01*
X166727000Y-57955721D01*
X166644953Y-57543244D01*
X166634058Y-57516942D01*
X167794284Y-56356716D01*
X167831870Y-56325870D01*
X167954960Y-56175884D01*
X168046424Y-56004767D01*
X168102747Y-55819094D01*
X168117000Y-55674380D01*
X168117000Y-55674379D01*
X168121765Y-55626001D01*
X168117000Y-55577623D01*
X168117000Y-51684378D01*
X168121765Y-51635998D01*
X168102747Y-51442904D01*
X168046424Y-51257231D01*
X167954960Y-51086114D01*
X167907074Y-51027765D01*
X167831870Y-50936128D01*
X167794290Y-50905287D01*
X161512717Y-44623715D01*
X161481871Y-44586129D01*
X161331885Y-44463039D01*
X161160768Y-44371575D01*
X160975095Y-44315252D01*
X160830381Y-44300999D01*
X160782001Y-44296234D01*
X160733621Y-44300999D01*
X125450381Y-44300999D01*
X125402001Y-44296234D01*
X125353621Y-44300999D01*
X125208907Y-44315252D01*
X125023234Y-44371575D01*
X124852117Y-44463039D01*
X124702131Y-44586129D01*
X124671290Y-44623709D01*
X122781705Y-46513295D01*
X122744131Y-46544131D01*
X122713294Y-46581706D01*
X122713290Y-46581710D01*
X122633447Y-46679000D01*
X122621041Y-46694117D01*
X122529576Y-46865234D01*
X122473253Y-47050907D01*
X122454235Y-47244000D01*
X122473253Y-47437093D01*
X122529576Y-47622766D01*
X122539000Y-47640397D01*
X122539001Y-48852182D01*
X122331688Y-49059495D01*
X122163701Y-49310905D01*
X122047989Y-49590257D01*
X121989000Y-49886816D01*
X121989000Y-50189184D01*
X122047989Y-50485743D01*
X122163701Y-50765095D01*
X122331688Y-51016505D01*
X122545495Y-51230312D01*
X122796905Y-51398299D01*
X123076257Y-51514011D01*
X123372816Y-51573000D01*
X123675184Y-51573000D01*
X123971743Y-51514011D01*
X124251095Y-51398299D01*
X124502505Y-51230312D01*
X124716312Y-51016505D01*
X124774000Y-50930169D01*
X124831688Y-51016505D01*
X125045495Y-51230312D01*
X125296905Y-51398299D01*
X125576257Y-51514011D01*
X125872816Y-51573000D01*
X126175184Y-51573000D01*
X126471743Y-51514011D01*
X126751095Y-51398299D01*
X127002505Y-51230312D01*
X127209817Y-51023000D01*
X127338183Y-51023000D01*
X127378488Y-51063305D01*
X127353706Y-51088086D01*
X127316131Y-51118923D01*
X127285294Y-51156498D01*
X127285290Y-51156502D01*
X127223737Y-51231506D01*
X127193041Y-51268909D01*
X127101576Y-51440026D01*
X127045253Y-51625699D01*
X127026235Y-51818792D01*
X127045253Y-52011885D01*
X127101576Y-52197558D01*
X127109000Y-52211447D01*
X127109001Y-59563610D01*
X127104235Y-59612000D01*
X127109000Y-59660380D01*
X127109000Y-60814612D01*
X126995367Y-60738898D01*
X126763633Y-60643263D01*
X126717505Y-60636809D01*
X126521000Y-60761015D01*
X126521000Y-62103000D01*
X126541000Y-62103000D01*
X126541000Y-62357000D01*
X126521000Y-62357000D01*
X126521000Y-63698985D01*
X126717505Y-63823191D01*
X126763633Y-63816737D01*
X126995367Y-63721102D01*
X127203991Y-63582095D01*
X127244609Y-63541583D01*
X127383617Y-63655664D01*
X127604680Y-63773825D01*
X127844547Y-63846588D01*
X128094000Y-63871157D01*
X128343454Y-63846588D01*
X128583321Y-63773825D01*
X128804384Y-63655664D01*
X128943392Y-63541583D01*
X128984009Y-63582095D01*
X129192633Y-63721102D01*
X129424367Y-63816737D01*
X129470495Y-63823191D01*
X129667000Y-63698985D01*
X129667000Y-62357000D01*
X129921000Y-62357000D01*
X129921000Y-63698985D01*
X130117505Y-63823191D01*
X130163633Y-63816737D01*
X130395367Y-63721102D01*
X130603991Y-63582095D01*
X130781488Y-63405059D01*
X130921036Y-63196797D01*
X131017273Y-62965312D01*
X131066500Y-62719500D01*
X131066500Y-62357000D01*
X129921000Y-62357000D01*
X129667000Y-62357000D01*
X129647000Y-62357000D01*
X129647000Y-62103000D01*
X129667000Y-62103000D01*
X129667000Y-62083000D01*
X129921000Y-62083000D01*
X129921000Y-62103000D01*
X131066500Y-62103000D01*
X131066500Y-61740500D01*
X131017273Y-61494688D01*
X130994959Y-61441015D01*
X133462228Y-63908284D01*
X133493074Y-63945870D01*
X133643060Y-64068960D01*
X133744336Y-64123093D01*
X133814177Y-64160424D01*
X133999850Y-64216747D01*
X134192943Y-64235765D01*
X134241323Y-64231000D01*
X134341220Y-64231000D01*
X134464662Y-64415744D01*
X134720256Y-64671338D01*
X135020801Y-64872156D01*
X135114603Y-64911010D01*
X127068011Y-64911010D01*
X125938160Y-63781160D01*
X126024367Y-63816737D01*
X126070495Y-63823191D01*
X126267000Y-63698985D01*
X126267000Y-62357000D01*
X126247000Y-62357000D01*
X126247000Y-62103000D01*
X126267000Y-62103000D01*
X126267000Y-60761015D01*
X126070495Y-60636809D01*
X126024367Y-60643263D01*
X125792633Y-60738898D01*
X125584009Y-60877905D01*
X125543392Y-60918417D01*
X125404383Y-60804336D01*
X125183320Y-60686175D01*
X124943453Y-60613412D01*
X124694000Y-60588843D01*
X124444546Y-60613412D01*
X124204679Y-60686175D01*
X124062442Y-60762202D01*
X123985994Y-60699463D01*
X123875680Y-60640498D01*
X123755982Y-60604188D01*
X123631500Y-60591928D01*
X122356500Y-60591928D01*
X122232018Y-60604188D01*
X122112320Y-60640498D01*
X122002006Y-60699463D01*
X121905315Y-60778815D01*
X121825963Y-60875506D01*
X121766998Y-60985820D01*
X121730688Y-61105518D01*
X121718428Y-61230000D01*
X121718428Y-63230000D01*
X121730688Y-63354482D01*
X121766998Y-63474180D01*
X121825963Y-63584494D01*
X121889313Y-63661686D01*
X121004000Y-64547000D01*
X118053302Y-64547000D01*
X118158774Y-64486489D01*
X118429875Y-64250046D01*
X118649639Y-63965257D01*
X118809621Y-63643066D01*
X118882195Y-63403805D01*
X118765432Y-63119000D01*
X117221000Y-63119000D01*
X117221000Y-63139000D01*
X116967000Y-63139000D01*
X116967000Y-63119000D01*
X115422568Y-63119000D01*
X115305805Y-63403805D01*
X115378379Y-63643066D01*
X115538361Y-63965257D01*
X115758125Y-64250046D01*
X116029226Y-64486489D01*
X116134698Y-64547000D01*
X113438000Y-64547000D01*
X111471195Y-62580195D01*
X115305805Y-62580195D01*
X115422568Y-62865000D01*
X116967000Y-62865000D01*
X116967000Y-61320146D01*
X117221000Y-61320146D01*
X117221000Y-62865000D01*
X118765432Y-62865000D01*
X118882195Y-62580195D01*
X118809621Y-62340934D01*
X118649639Y-62018743D01*
X118429875Y-61733954D01*
X118158774Y-61497511D01*
X117846754Y-61318500D01*
X117505806Y-61203801D01*
X117221000Y-61320146D01*
X116967000Y-61320146D01*
X116682194Y-61203801D01*
X116341246Y-61318500D01*
X116029226Y-61497511D01*
X115758125Y-61733954D01*
X115538361Y-62018743D01*
X115378379Y-62340934D01*
X115305805Y-62580195D01*
X111471195Y-62580195D01*
X109697000Y-60806000D01*
X109697000Y-57936780D01*
X109881744Y-57813338D01*
X110137338Y-57557744D01*
X110338156Y-57257199D01*
X110476482Y-56923250D01*
X110547000Y-56568732D01*
X110547000Y-56207268D01*
X110476482Y-55852750D01*
X110338156Y-55518801D01*
X110137338Y-55218256D01*
X109951000Y-55031918D01*
X109951000Y-50175454D01*
X110010180Y-50157502D01*
X110120494Y-50098537D01*
X110217185Y-50019185D01*
X110296537Y-49922494D01*
X110296801Y-49922000D01*
X112507928Y-49922000D01*
X112520188Y-50046482D01*
X112556498Y-50166180D01*
X112615463Y-50276494D01*
X112694815Y-50373185D01*
X112791506Y-50452537D01*
X112901820Y-50511502D01*
X113021518Y-50547812D01*
X113146000Y-50560072D01*
X113760250Y-50557000D01*
X113919000Y-50398250D01*
X113919000Y-49149000D01*
X112669750Y-49149000D01*
X112511000Y-49307750D01*
X112507928Y-49922000D01*
X110296801Y-49922000D01*
X110355502Y-49812180D01*
X110391812Y-49692482D01*
X110404072Y-49568000D01*
X110404072Y-48122000D01*
X112507928Y-48122000D01*
X112511000Y-48736250D01*
X112669750Y-48895000D01*
X113919000Y-48895000D01*
X113919000Y-47645750D01*
X114173000Y-47645750D01*
X114173000Y-48895000D01*
X114193000Y-48895000D01*
X114193000Y-49149000D01*
X114173000Y-49149000D01*
X114173000Y-50398250D01*
X114331750Y-50557000D01*
X114946000Y-50560072D01*
X115070482Y-50547812D01*
X115190180Y-50511502D01*
X115300494Y-50452537D01*
X115347001Y-50414370D01*
X115347000Y-54833809D01*
X115307596Y-54854871D01*
X115028181Y-55084181D01*
X114798871Y-55363596D01*
X114628479Y-55682378D01*
X114523552Y-56028277D01*
X114488122Y-56388000D01*
X114523552Y-56747723D01*
X114628479Y-57093622D01*
X114798871Y-57412404D01*
X115028181Y-57691819D01*
X115307596Y-57921129D01*
X115626378Y-58091521D01*
X115972277Y-58196448D01*
X116241861Y-58223000D01*
X116422139Y-58223000D01*
X116691723Y-58196448D01*
X117037622Y-58091521D01*
X117356404Y-57921129D01*
X117635819Y-57691819D01*
X117865129Y-57412404D01*
X118035521Y-57093622D01*
X118140448Y-56747723D01*
X118175878Y-56388000D01*
X118140448Y-56028277D01*
X118035521Y-55682378D01*
X117865129Y-55363596D01*
X117635819Y-55084181D01*
X117356404Y-54854871D01*
X117317000Y-54833809D01*
X117317000Y-50379690D01*
X117564505Y-50214312D01*
X117778312Y-50000505D01*
X117946299Y-49749095D01*
X118062011Y-49469743D01*
X118121000Y-49173184D01*
X118121000Y-48870816D01*
X118062011Y-48574257D01*
X117946299Y-48294905D01*
X117778312Y-48043495D01*
X117564505Y-47829688D01*
X117313095Y-47661701D01*
X117033743Y-47545989D01*
X116737184Y-47487000D01*
X116434816Y-47487000D01*
X116138257Y-47545989D01*
X115858905Y-47661701D01*
X115607495Y-47829688D01*
X115541056Y-47896127D01*
X115535502Y-47877820D01*
X115476537Y-47767506D01*
X115397185Y-47670815D01*
X115300494Y-47591463D01*
X115190180Y-47532498D01*
X115070482Y-47496188D01*
X114946000Y-47483928D01*
X114331750Y-47487000D01*
X114173000Y-47645750D01*
X113919000Y-47645750D01*
X113760250Y-47487000D01*
X113146000Y-47483928D01*
X113021518Y-47496188D01*
X112901820Y-47532498D01*
X112791506Y-47591463D01*
X112694815Y-47670815D01*
X112615463Y-47767506D01*
X112556498Y-47877820D01*
X112520188Y-47997518D01*
X112507928Y-48122000D01*
X110404072Y-48122000D01*
X110404072Y-47968000D01*
X110391812Y-47843518D01*
X110355502Y-47723820D01*
X110296537Y-47613506D01*
X110217185Y-47516815D01*
X110120494Y-47437463D01*
X110010180Y-47378498D01*
X109890482Y-47342188D01*
X109766000Y-47329928D01*
X108166000Y-47329928D01*
X108041518Y-47342188D01*
X107921820Y-47378498D01*
X107811506Y-47437463D01*
X107714815Y-47516815D01*
X107704193Y-47529758D01*
X107452004Y-47410429D01*
X107177816Y-47341700D01*
X106895488Y-47327783D01*
X106615870Y-47369213D01*
X106349708Y-47464397D01*
X106224486Y-47531329D01*
X106152903Y-47775298D01*
X106966000Y-48588395D01*
X106980143Y-48574253D01*
X107159748Y-48753858D01*
X107145605Y-48768000D01*
X107159748Y-48782143D01*
X106980143Y-48961748D01*
X106966000Y-48947605D01*
X106152903Y-49760702D01*
X106224486Y-50004671D01*
X106479996Y-50125571D01*
X106754184Y-50194300D01*
X107036512Y-50208217D01*
X107316130Y-50166787D01*
X107582292Y-50071603D01*
X107704309Y-50006384D01*
X107714815Y-50019185D01*
X107811506Y-50098537D01*
X107921820Y-50157502D01*
X107981000Y-50175454D01*
X107981001Y-54704600D01*
X107842801Y-54761844D01*
X107542256Y-54962662D01*
X107286662Y-55218256D01*
X107085844Y-55518801D01*
X106947518Y-55852750D01*
X106877000Y-56207268D01*
X106877000Y-56568732D01*
X106920347Y-56786653D01*
X106271716Y-57435284D01*
X106234130Y-57466130D01*
X106111040Y-57616116D01*
X106019577Y-57787233D01*
X106019576Y-57787234D01*
X105963253Y-57972907D01*
X105944235Y-58166000D01*
X105949000Y-58214380D01*
X105949001Y-61153928D01*
X105734000Y-61153928D01*
X105609518Y-61166188D01*
X105489820Y-61202498D01*
X105379506Y-61261463D01*
X105282815Y-61340815D01*
X105203463Y-61437506D01*
X105144498Y-61547820D01*
X105108188Y-61667518D01*
X105095928Y-61792000D01*
X105095928Y-62007000D01*
X103110000Y-62007000D01*
X101153072Y-60050072D01*
X101322000Y-60050072D01*
X101446482Y-60037812D01*
X101566180Y-60001502D01*
X101676494Y-59942537D01*
X101773185Y-59863185D01*
X101852537Y-59766494D01*
X101911502Y-59656180D01*
X101947812Y-59536482D01*
X101960072Y-59412000D01*
X101960072Y-56412000D01*
X101947812Y-56287518D01*
X101911502Y-56167820D01*
X101852537Y-56057506D01*
X101773185Y-55960815D01*
X101676494Y-55881463D01*
X101566180Y-55822498D01*
X101446482Y-55786188D01*
X101322000Y-55773928D01*
X98322000Y-55773928D01*
X98197518Y-55786188D01*
X98077820Y-55822498D01*
X97967506Y-55881463D01*
X97870815Y-55960815D01*
X97791463Y-56057506D01*
X97732498Y-56167820D01*
X97696188Y-56287518D01*
X97683928Y-56412000D01*
X94869000Y-56412000D01*
X94869000Y-54323653D01*
X98509952Y-54323653D01*
X98665962Y-54639214D01*
X99040745Y-54830020D01*
X99445551Y-54944044D01*
X99864824Y-54976902D01*
X100282451Y-54927334D01*
X100682383Y-54797243D01*
X100978038Y-54639214D01*
X101134048Y-54323653D01*
X99822000Y-53011605D01*
X98509952Y-54323653D01*
X94869000Y-54323653D01*
X94869000Y-52874824D01*
X97677098Y-52874824D01*
X97726666Y-53292451D01*
X97856757Y-53692383D01*
X98014786Y-53988038D01*
X98330347Y-54144048D01*
X99642395Y-52832000D01*
X100001605Y-52832000D01*
X101313653Y-54144048D01*
X101629214Y-53988038D01*
X101820020Y-53613255D01*
X101934044Y-53208449D01*
X101966902Y-52789176D01*
X101917334Y-52371549D01*
X101787243Y-51971617D01*
X101629214Y-51675962D01*
X101313653Y-51519952D01*
X100001605Y-52832000D01*
X99642395Y-52832000D01*
X98330347Y-51519952D01*
X98014786Y-51675962D01*
X97823980Y-52050745D01*
X97709956Y-52455551D01*
X97677098Y-52874824D01*
X94869000Y-52874824D01*
X94869000Y-51340347D01*
X98509952Y-51340347D01*
X99822000Y-52652395D01*
X101134048Y-51340347D01*
X100978038Y-51024786D01*
X100603255Y-50833980D01*
X100198449Y-50719956D01*
X99779176Y-50687098D01*
X99361549Y-50736666D01*
X98961617Y-50866757D01*
X98665962Y-51024786D01*
X98509952Y-51340347D01*
X94869000Y-51340347D01*
X94869000Y-48838512D01*
X105525783Y-48838512D01*
X105567213Y-49118130D01*
X105662397Y-49384292D01*
X105729329Y-49509514D01*
X105973298Y-49581097D01*
X106786395Y-48768000D01*
X105973298Y-47954903D01*
X105729329Y-48026486D01*
X105608429Y-48281996D01*
X105539700Y-48556184D01*
X105525783Y-48838512D01*
X94869000Y-48838512D01*
X94869000Y-43052583D01*
X171942571Y-42799051D01*
X172847000Y-43025159D01*
G36*
X144166478Y-46718522D02*
G01*
X144123723Y-46705552D01*
X143854139Y-46679000D01*
X143673861Y-46679000D01*
X143404277Y-46705552D01*
X143058378Y-46810479D01*
X142739596Y-46980871D01*
X142460181Y-47210181D01*
X142230871Y-47489596D01*
X142060479Y-47808378D01*
X141955552Y-48154277D01*
X141920122Y-48514000D01*
X141955552Y-48873723D01*
X142060479Y-49219622D01*
X142230871Y-49538404D01*
X142460181Y-49817819D01*
X142739596Y-50047129D01*
X143058378Y-50217521D01*
X143404277Y-50322448D01*
X143673861Y-50349000D01*
X143854139Y-50349000D01*
X144123723Y-50322448D01*
X144469622Y-50217521D01*
X144547302Y-50176000D01*
X151369928Y-50176000D01*
X151382188Y-50300482D01*
X151418498Y-50420180D01*
X151477463Y-50530494D01*
X151556815Y-50627185D01*
X151653506Y-50706537D01*
X151763820Y-50765502D01*
X151883518Y-50801812D01*
X152008000Y-50814072D01*
X152622250Y-50811000D01*
X152781000Y-50652250D01*
X152781000Y-49403000D01*
X153035000Y-49403000D01*
X153035000Y-50652250D01*
X153193750Y-50811000D01*
X153808000Y-50814072D01*
X153932482Y-50801812D01*
X154052180Y-50765502D01*
X154162494Y-50706537D01*
X154259185Y-50627185D01*
X154338537Y-50530494D01*
X154397502Y-50420180D01*
X154433812Y-50300482D01*
X154446072Y-50176000D01*
X154443000Y-49561750D01*
X154284250Y-49403000D01*
X153035000Y-49403000D01*
X152781000Y-49403000D01*
X151531750Y-49403000D01*
X151373000Y-49561750D01*
X151369928Y-50176000D01*
X144547302Y-50176000D01*
X144788404Y-50047129D01*
X145067819Y-49817819D01*
X145297129Y-49538404D01*
X145467521Y-49219622D01*
X145572448Y-48873723D01*
X145607878Y-48514000D01*
X145572448Y-48154277D01*
X145559478Y-48111522D01*
X145950001Y-47721000D01*
X151722183Y-47721000D01*
X151782127Y-47780944D01*
X151763820Y-47786498D01*
X151653506Y-47845463D01*
X151556815Y-47924815D01*
X151477463Y-48021506D01*
X151418498Y-48131820D01*
X151382188Y-48251518D01*
X151369928Y-48376000D01*
X151373000Y-48990250D01*
X151531750Y-49149000D01*
X152781000Y-49149000D01*
X152781000Y-49129000D01*
X153035000Y-49129000D01*
X153035000Y-49149000D01*
X154284250Y-49149000D01*
X154443000Y-48990250D01*
X154446072Y-48376000D01*
X154433812Y-48251518D01*
X154397502Y-48131820D01*
X154338537Y-48021506D01*
X154259185Y-47924815D01*
X154162494Y-47845463D01*
X154052180Y-47786498D01*
X154033873Y-47780944D01*
X154100312Y-47714505D01*
X154268299Y-47463095D01*
X154384011Y-47183743D01*
X154443000Y-46887184D01*
X154443000Y-46584816D01*
X154384011Y-46288257D01*
X154376862Y-46270999D01*
X160374001Y-46270999D01*
X165053556Y-50950555D01*
X164877750Y-50951000D01*
X164719000Y-51109750D01*
X164719000Y-52959000D01*
X164739000Y-52959000D01*
X164739000Y-53213000D01*
X164719000Y-53213000D01*
X164719000Y-55062250D01*
X164877750Y-55221000D01*
X166092000Y-55224072D01*
X166146273Y-55218727D01*
X165241058Y-56123942D01*
X165214756Y-56113047D01*
X164802279Y-56031000D01*
X164381721Y-56031000D01*
X163969244Y-56113047D01*
X163580698Y-56273988D01*
X163231017Y-56507637D01*
X162933637Y-56805017D01*
X162699988Y-57154698D01*
X162539047Y-57543244D01*
X162457000Y-57955721D01*
X162457000Y-58376279D01*
X162539047Y-58788756D01*
X162699988Y-59177302D01*
X162933637Y-59526983D01*
X163231017Y-59824363D01*
X163489347Y-59996973D01*
X161479320Y-62007000D01*
X154210010Y-62007000D01*
X154181608Y-61972392D01*
X154147000Y-61943990D01*
X154147000Y-56887185D01*
X154159185Y-56877185D01*
X154238537Y-56780494D01*
X154297502Y-56670180D01*
X154333812Y-56550482D01*
X154346072Y-56426000D01*
X154346072Y-54826000D01*
X154333812Y-54701518D01*
X154298770Y-54586000D01*
X162453928Y-54586000D01*
X162466188Y-54710482D01*
X162502498Y-54830180D01*
X162561463Y-54940494D01*
X162640815Y-55037185D01*
X162737506Y-55116537D01*
X162847820Y-55175502D01*
X162967518Y-55211812D01*
X163092000Y-55224072D01*
X164306250Y-55221000D01*
X164465000Y-55062250D01*
X164465000Y-53213000D01*
X162615750Y-53213000D01*
X162457000Y-53371750D01*
X162453928Y-54586000D01*
X154298770Y-54586000D01*
X154297502Y-54581820D01*
X154238537Y-54471506D01*
X154159185Y-54374815D01*
X154146242Y-54364193D01*
X154265571Y-54112004D01*
X154334300Y-53837816D01*
X154348217Y-53555488D01*
X154306787Y-53275870D01*
X154211603Y-53009708D01*
X154144671Y-52884486D01*
X153900702Y-52812903D01*
X153087605Y-53626000D01*
X153101748Y-53640143D01*
X152922143Y-53819748D01*
X152908000Y-53805605D01*
X152893858Y-53819748D01*
X152714253Y-53640143D01*
X152728395Y-53626000D01*
X151915298Y-52812903D01*
X151671329Y-52884486D01*
X151550429Y-53139996D01*
X151481700Y-53414184D01*
X151467783Y-53696512D01*
X151509213Y-53976130D01*
X151604397Y-54242292D01*
X151669616Y-54364309D01*
X151656815Y-54374815D01*
X151577463Y-54471506D01*
X151518498Y-54581820D01*
X151482188Y-54701518D01*
X151469928Y-54826000D01*
X151469928Y-56426000D01*
X151482188Y-56550482D01*
X151518498Y-56670180D01*
X151577463Y-56780494D01*
X151656815Y-56877185D01*
X151753506Y-56956537D01*
X151863820Y-57015502D01*
X151983518Y-57051812D01*
X152108000Y-57064072D01*
X152177001Y-57064072D01*
X152177000Y-61943990D01*
X152142392Y-61972392D01*
X151963068Y-62190899D01*
X151895650Y-62317029D01*
X151893680Y-62312273D01*
X151736637Y-62077241D01*
X151536759Y-61877363D01*
X151301727Y-61720320D01*
X151040574Y-61612147D01*
X150763335Y-61557000D01*
X150480665Y-61557000D01*
X150203426Y-61612147D01*
X149942273Y-61720320D01*
X149707241Y-61877363D01*
X149577604Y-62007000D01*
X146254002Y-62007000D01*
X140284807Y-56037805D01*
X142737805Y-56037805D01*
X142810379Y-56277066D01*
X142970361Y-56599257D01*
X143190125Y-56884046D01*
X143461226Y-57120489D01*
X143773246Y-57299500D01*
X144114194Y-57414199D01*
X144399000Y-57297854D01*
X144399000Y-55753000D01*
X144653000Y-55753000D01*
X144653000Y-57297854D01*
X144937806Y-57414199D01*
X145278754Y-57299500D01*
X145590774Y-57120489D01*
X145861875Y-56884046D01*
X146081639Y-56599257D01*
X146241621Y-56277066D01*
X146314195Y-56037805D01*
X146197432Y-55753000D01*
X144653000Y-55753000D01*
X144399000Y-55753000D01*
X142854568Y-55753000D01*
X142737805Y-56037805D01*
X140284807Y-56037805D01*
X139461197Y-55214195D01*
X142737805Y-55214195D01*
X142854568Y-55499000D01*
X144399000Y-55499000D01*
X144399000Y-53954146D01*
X144653000Y-53954146D01*
X144653000Y-55499000D01*
X146197432Y-55499000D01*
X146314195Y-55214195D01*
X146241621Y-54974934D01*
X146081639Y-54652743D01*
X145861875Y-54367954D01*
X145590774Y-54131511D01*
X145278754Y-53952500D01*
X144937806Y-53837801D01*
X144653000Y-53954146D01*
X144399000Y-53954146D01*
X144114194Y-53837801D01*
X143773246Y-53952500D01*
X143461226Y-54131511D01*
X143190125Y-54367954D01*
X142970361Y-54652743D01*
X142810379Y-54974934D01*
X142737805Y-55214195D01*
X139461197Y-55214195D01*
X139210718Y-54963716D01*
X139179872Y-54926130D01*
X139029886Y-54803040D01*
X138858769Y-54711576D01*
X138673096Y-54655253D01*
X138528382Y-54641000D01*
X138480002Y-54636235D01*
X138431622Y-54641000D01*
X136204072Y-54641000D01*
X136204072Y-54426000D01*
X136191812Y-54301518D01*
X136155502Y-54181820D01*
X136096537Y-54071506D01*
X136017185Y-53974815D01*
X135920494Y-53895463D01*
X135810180Y-53836498D01*
X135690482Y-53800188D01*
X135566000Y-53787928D01*
X135351000Y-53787928D01*
X135351000Y-52633298D01*
X152094903Y-52633298D01*
X152908000Y-53446395D01*
X153721097Y-52633298D01*
X153649514Y-52389329D01*
X153394004Y-52268429D01*
X153119816Y-52199700D01*
X152837488Y-52185783D01*
X152557870Y-52227213D01*
X152291708Y-52322397D01*
X152166486Y-52389329D01*
X152094903Y-52633298D01*
X135351000Y-52633298D01*
X135351000Y-51586000D01*
X162453928Y-51586000D01*
X162457000Y-52800250D01*
X162615750Y-52959000D01*
X164465000Y-52959000D01*
X164465000Y-51109750D01*
X164306250Y-50951000D01*
X163092000Y-50947928D01*
X162967518Y-50960188D01*
X162847820Y-50996498D01*
X162737506Y-51055463D01*
X162640815Y-51134815D01*
X162561463Y-51231506D01*
X162502498Y-51341820D01*
X162466188Y-51461518D01*
X162453928Y-51586000D01*
X135351000Y-51586000D01*
X135351000Y-50700000D01*
X135745347Y-50305653D01*
X135963268Y-50349000D01*
X136324732Y-50349000D01*
X136679250Y-50278482D01*
X137013199Y-50140156D01*
X137313744Y-49939338D01*
X137569338Y-49683744D01*
X137770156Y-49383199D01*
X137908482Y-49049250D01*
X137979000Y-48694732D01*
X137979000Y-48333268D01*
X137908482Y-47978750D01*
X137770156Y-47644801D01*
X137569338Y-47344256D01*
X137313744Y-47088662D01*
X137013199Y-46887844D01*
X136679250Y-46749518D01*
X136324732Y-46679000D01*
X135963268Y-46679000D01*
X135608750Y-46749518D01*
X135274801Y-46887844D01*
X134974256Y-47088662D01*
X134718662Y-47344256D01*
X134517844Y-47644801D01*
X134379518Y-47978750D01*
X134309000Y-48333268D01*
X134309000Y-48694732D01*
X134352347Y-48912653D01*
X133703716Y-49561284D01*
X133666130Y-49592130D01*
X133543040Y-49742116D01*
X133465697Y-49886816D01*
X133451576Y-49913234D01*
X133395253Y-50098907D01*
X133376235Y-50292000D01*
X133381000Y-50340380D01*
X133381001Y-53787928D01*
X133166000Y-53787928D01*
X133041518Y-53800188D01*
X132921820Y-53836498D01*
X132811506Y-53895463D01*
X132714815Y-53974815D01*
X132635463Y-54071506D01*
X132576498Y-54181820D01*
X132540188Y-54301518D01*
X132527928Y-54426000D01*
X132527928Y-56826000D01*
X132540188Y-56950482D01*
X132576498Y-57070180D01*
X132635463Y-57180494D01*
X132714815Y-57277185D01*
X132811506Y-57356537D01*
X132921820Y-57415502D01*
X133041518Y-57451812D01*
X133166000Y-57464072D01*
X135566000Y-57464072D01*
X135690482Y-57451812D01*
X135810180Y-57415502D01*
X135920494Y-57356537D01*
X136017185Y-57277185D01*
X136096537Y-57180494D01*
X136155502Y-57070180D01*
X136191812Y-56950482D01*
X136204072Y-56826000D01*
X136204072Y-56611000D01*
X138072002Y-56611000D01*
X142963961Y-61502959D01*
X142757246Y-61572500D01*
X142445226Y-61751511D01*
X142174125Y-61987954D01*
X141954361Y-62272743D01*
X141794379Y-62594934D01*
X141721805Y-62834195D01*
X141838568Y-63119000D01*
X143383000Y-63119000D01*
X143383000Y-63099000D01*
X143637000Y-63099000D01*
X143637000Y-63119000D01*
X143657000Y-63119000D01*
X143657000Y-63373000D01*
X143637000Y-63373000D01*
X143637000Y-63393000D01*
X143383000Y-63393000D01*
X143383000Y-63373000D01*
X141838568Y-63373000D01*
X141721805Y-63657805D01*
X141794379Y-63897066D01*
X141954361Y-64219257D01*
X142174125Y-64504046D01*
X142445226Y-64740489D01*
X142742448Y-64911010D01*
X136665397Y-64911010D01*
X136759199Y-64872156D01*
X137059744Y-64671338D01*
X137315338Y-64415744D01*
X137516156Y-64115199D01*
X137654482Y-63781250D01*
X137725000Y-63426732D01*
X137725000Y-63065268D01*
X137654482Y-62710750D01*
X137516156Y-62376801D01*
X137315338Y-62076256D01*
X137059744Y-61820662D01*
X136759199Y-61619844D01*
X136425250Y-61481518D01*
X136070732Y-61411000D01*
X135709268Y-61411000D01*
X135354750Y-61481518D01*
X135020801Y-61619844D01*
X134720256Y-61820662D01*
X134464662Y-62076256D01*
X134445251Y-62105307D01*
X131289660Y-58949716D01*
X131258814Y-58912130D01*
X131108828Y-58789040D01*
X130937711Y-58697576D01*
X130752038Y-58641253D01*
X130607324Y-58627000D01*
X130558944Y-58622235D01*
X130510564Y-58627000D01*
X129079000Y-58627000D01*
X129079000Y-52148791D01*
X129186279Y-52041512D01*
X129223870Y-52010662D01*
X129346960Y-51860676D01*
X129438424Y-51689559D01*
X129494747Y-51503886D01*
X129509000Y-51359172D01*
X129509000Y-51359171D01*
X129513765Y-51310793D01*
X129509000Y-51262415D01*
X129509000Y-51223817D01*
X129716312Y-51016505D01*
X129884299Y-50765095D01*
X130000011Y-50485743D01*
X130059000Y-50189184D01*
X130059000Y-49886816D01*
X130000011Y-49590257D01*
X129884299Y-49310905D01*
X129716312Y-49059495D01*
X129502505Y-48845688D01*
X129251095Y-48677701D01*
X128971743Y-48561989D01*
X128675184Y-48503000D01*
X128372816Y-48503000D01*
X128076257Y-48561989D01*
X127796905Y-48677701D01*
X127545495Y-48845688D01*
X127338183Y-49053000D01*
X127209817Y-49053000D01*
X127002505Y-48845688D01*
X126751095Y-48677701D01*
X126471743Y-48561989D01*
X126175184Y-48503000D01*
X125872816Y-48503000D01*
X125576257Y-48561989D01*
X125296905Y-48677701D01*
X125045495Y-48845688D01*
X124831688Y-49059495D01*
X124774000Y-49145831D01*
X124716312Y-49059495D01*
X124509000Y-48852183D01*
X124509000Y-47572000D01*
X125810002Y-46270999D01*
X144614000Y-46270999D01*
X144166478Y-46718522D01*
X144166478Y-46718522D01*
G37*
X144166478Y-46718522D02*
X144123723Y-46705552D01*
X143854139Y-46679000D01*
X143673861Y-46679000D01*
X143404277Y-46705552D01*
X143058378Y-46810479D01*
X142739596Y-46980871D01*
X142460181Y-47210181D01*
X142230871Y-47489596D01*
X142060479Y-47808378D01*
X141955552Y-48154277D01*
X141920122Y-48514000D01*
X141955552Y-48873723D01*
X142060479Y-49219622D01*
X142230871Y-49538404D01*
X142460181Y-49817819D01*
X142739596Y-50047129D01*
X143058378Y-50217521D01*
X143404277Y-50322448D01*
X143673861Y-50349000D01*
X143854139Y-50349000D01*
X144123723Y-50322448D01*
X144469622Y-50217521D01*
X144547302Y-50176000D01*
X151369928Y-50176000D01*
X151382188Y-50300482D01*
X151418498Y-50420180D01*
X151477463Y-50530494D01*
X151556815Y-50627185D01*
X151653506Y-50706537D01*
X151763820Y-50765502D01*
X151883518Y-50801812D01*
X152008000Y-50814072D01*
X152622250Y-50811000D01*
X152781000Y-50652250D01*
X152781000Y-49403000D01*
X153035000Y-49403000D01*
X153035000Y-50652250D01*
X153193750Y-50811000D01*
X153808000Y-50814072D01*
X153932482Y-50801812D01*
X154052180Y-50765502D01*
X154162494Y-50706537D01*
X154259185Y-50627185D01*
X154338537Y-50530494D01*
X154397502Y-50420180D01*
X154433812Y-50300482D01*
X154446072Y-50176000D01*
X154443000Y-49561750D01*
X154284250Y-49403000D01*
X153035000Y-49403000D01*
X152781000Y-49403000D01*
X151531750Y-49403000D01*
X151373000Y-49561750D01*
X151369928Y-50176000D01*
X144547302Y-50176000D01*
X144788404Y-50047129D01*
X145067819Y-49817819D01*
X145297129Y-49538404D01*
X145467521Y-49219622D01*
X145572448Y-48873723D01*
X145607878Y-48514000D01*
X145572448Y-48154277D01*
X145559478Y-48111522D01*
X145950001Y-47721000D01*
X151722183Y-47721000D01*
X151782127Y-47780944D01*
X151763820Y-47786498D01*
X151653506Y-47845463D01*
X151556815Y-47924815D01*
X151477463Y-48021506D01*
X151418498Y-48131820D01*
X151382188Y-48251518D01*
X151369928Y-48376000D01*
X151373000Y-48990250D01*
X151531750Y-49149000D01*
X152781000Y-49149000D01*
X152781000Y-49129000D01*
X153035000Y-49129000D01*
X153035000Y-49149000D01*
X154284250Y-49149000D01*
X154443000Y-48990250D01*
X154446072Y-48376000D01*
X154433812Y-48251518D01*
X154397502Y-48131820D01*
X154338537Y-48021506D01*
X154259185Y-47924815D01*
X154162494Y-47845463D01*
X154052180Y-47786498D01*
X154033873Y-47780944D01*
X154100312Y-47714505D01*
X154268299Y-47463095D01*
X154384011Y-47183743D01*
X154443000Y-46887184D01*
X154443000Y-46584816D01*
X154384011Y-46288257D01*
X154376862Y-46270999D01*
X160374001Y-46270999D01*
X165053556Y-50950555D01*
X164877750Y-50951000D01*
X164719000Y-51109750D01*
X164719000Y-52959000D01*
X164739000Y-52959000D01*
X164739000Y-53213000D01*
X164719000Y-53213000D01*
X164719000Y-55062250D01*
X164877750Y-55221000D01*
X166092000Y-55224072D01*
X166146273Y-55218727D01*
X165241058Y-56123942D01*
X165214756Y-56113047D01*
X164802279Y-56031000D01*
X164381721Y-56031000D01*
X163969244Y-56113047D01*
X163580698Y-56273988D01*
X163231017Y-56507637D01*
X162933637Y-56805017D01*
X162699988Y-57154698D01*
X162539047Y-57543244D01*
X162457000Y-57955721D01*
X162457000Y-58376279D01*
X162539047Y-58788756D01*
X162699988Y-59177302D01*
X162933637Y-59526983D01*
X163231017Y-59824363D01*
X163489347Y-59996973D01*
X161479320Y-62007000D01*
X154210010Y-62007000D01*
X154181608Y-61972392D01*
X154147000Y-61943990D01*
X154147000Y-56887185D01*
X154159185Y-56877185D01*
X154238537Y-56780494D01*
X154297502Y-56670180D01*
X154333812Y-56550482D01*
X154346072Y-56426000D01*
X154346072Y-54826000D01*
X154333812Y-54701518D01*
X154298770Y-54586000D01*
X162453928Y-54586000D01*
X162466188Y-54710482D01*
X162502498Y-54830180D01*
X162561463Y-54940494D01*
X162640815Y-55037185D01*
X162737506Y-55116537D01*
X162847820Y-55175502D01*
X162967518Y-55211812D01*
X163092000Y-55224072D01*
X164306250Y-55221000D01*
X164465000Y-55062250D01*
X164465000Y-53213000D01*
X162615750Y-53213000D01*
X162457000Y-53371750D01*
X162453928Y-54586000D01*
X154298770Y-54586000D01*
X154297502Y-54581820D01*
X154238537Y-54471506D01*
X154159185Y-54374815D01*
X154146242Y-54364193D01*
X154265571Y-54112004D01*
X154334300Y-53837816D01*
X154348217Y-53555488D01*
X154306787Y-53275870D01*
X154211603Y-53009708D01*
X154144671Y-52884486D01*
X153900702Y-52812903D01*
X153087605Y-53626000D01*
X153101748Y-53640143D01*
X152922143Y-53819748D01*
X152908000Y-53805605D01*
X152893858Y-53819748D01*
X152714253Y-53640143D01*
X152728395Y-53626000D01*
X151915298Y-52812903D01*
X151671329Y-52884486D01*
X151550429Y-53139996D01*
X151481700Y-53414184D01*
X151467783Y-53696512D01*
X151509213Y-53976130D01*
X151604397Y-54242292D01*
X151669616Y-54364309D01*
X151656815Y-54374815D01*
X151577463Y-54471506D01*
X151518498Y-54581820D01*
X151482188Y-54701518D01*
X151469928Y-54826000D01*
X151469928Y-56426000D01*
X151482188Y-56550482D01*
X151518498Y-56670180D01*
X151577463Y-56780494D01*
X151656815Y-56877185D01*
X151753506Y-56956537D01*
X151863820Y-57015502D01*
X151983518Y-57051812D01*
X152108000Y-57064072D01*
X152177001Y-57064072D01*
X152177000Y-61943990D01*
X152142392Y-61972392D01*
X151963068Y-62190899D01*
X151895650Y-62317029D01*
X151893680Y-62312273D01*
X151736637Y-62077241D01*
X151536759Y-61877363D01*
X151301727Y-61720320D01*
X151040574Y-61612147D01*
X150763335Y-61557000D01*
X150480665Y-61557000D01*
X150203426Y-61612147D01*
X149942273Y-61720320D01*
X149707241Y-61877363D01*
X149577604Y-62007000D01*
X146254002Y-62007000D01*
X140284807Y-56037805D01*
X142737805Y-56037805D01*
X142810379Y-56277066D01*
X142970361Y-56599257D01*
X143190125Y-56884046D01*
X143461226Y-57120489D01*
X143773246Y-57299500D01*
X144114194Y-57414199D01*
X144399000Y-57297854D01*
X144399000Y-55753000D01*
X144653000Y-55753000D01*
X144653000Y-57297854D01*
X144937806Y-57414199D01*
X145278754Y-57299500D01*
X145590774Y-57120489D01*
X145861875Y-56884046D01*
X146081639Y-56599257D01*
X146241621Y-56277066D01*
X146314195Y-56037805D01*
X146197432Y-55753000D01*
X144653000Y-55753000D01*
X144399000Y-55753000D01*
X142854568Y-55753000D01*
X142737805Y-56037805D01*
X140284807Y-56037805D01*
X139461197Y-55214195D01*
X142737805Y-55214195D01*
X142854568Y-55499000D01*
X144399000Y-55499000D01*
X144399000Y-53954146D01*
X144653000Y-53954146D01*
X144653000Y-55499000D01*
X146197432Y-55499000D01*
X146314195Y-55214195D01*
X146241621Y-54974934D01*
X146081639Y-54652743D01*
X145861875Y-54367954D01*
X145590774Y-54131511D01*
X145278754Y-53952500D01*
X144937806Y-53837801D01*
X144653000Y-53954146D01*
X144399000Y-53954146D01*
X144114194Y-53837801D01*
X143773246Y-53952500D01*
X143461226Y-54131511D01*
X143190125Y-54367954D01*
X142970361Y-54652743D01*
X142810379Y-54974934D01*
X142737805Y-55214195D01*
X139461197Y-55214195D01*
X139210718Y-54963716D01*
X139179872Y-54926130D01*
X139029886Y-54803040D01*
X138858769Y-54711576D01*
X138673096Y-54655253D01*
X138528382Y-54641000D01*
X138480002Y-54636235D01*
X138431622Y-54641000D01*
X136204072Y-54641000D01*
X136204072Y-54426000D01*
X136191812Y-54301518D01*
X136155502Y-54181820D01*
X136096537Y-54071506D01*
X136017185Y-53974815D01*
X135920494Y-53895463D01*
X135810180Y-53836498D01*
X135690482Y-53800188D01*
X135566000Y-53787928D01*
X135351000Y-53787928D01*
X135351000Y-52633298D01*
X152094903Y-52633298D01*
X152908000Y-53446395D01*
X153721097Y-52633298D01*
X153649514Y-52389329D01*
X153394004Y-52268429D01*
X153119816Y-52199700D01*
X152837488Y-52185783D01*
X152557870Y-52227213D01*
X152291708Y-52322397D01*
X152166486Y-52389329D01*
X152094903Y-52633298D01*
X135351000Y-52633298D01*
X135351000Y-51586000D01*
X162453928Y-51586000D01*
X162457000Y-52800250D01*
X162615750Y-52959000D01*
X164465000Y-52959000D01*
X164465000Y-51109750D01*
X164306250Y-50951000D01*
X163092000Y-50947928D01*
X162967518Y-50960188D01*
X162847820Y-50996498D01*
X162737506Y-51055463D01*
X162640815Y-51134815D01*
X162561463Y-51231506D01*
X162502498Y-51341820D01*
X162466188Y-51461518D01*
X162453928Y-51586000D01*
X135351000Y-51586000D01*
X135351000Y-50700000D01*
X135745347Y-50305653D01*
X135963268Y-50349000D01*
X136324732Y-50349000D01*
X136679250Y-50278482D01*
X137013199Y-50140156D01*
X137313744Y-49939338D01*
X137569338Y-49683744D01*
X137770156Y-49383199D01*
X137908482Y-49049250D01*
X137979000Y-48694732D01*
X137979000Y-48333268D01*
X137908482Y-47978750D01*
X137770156Y-47644801D01*
X137569338Y-47344256D01*
X137313744Y-47088662D01*
X137013199Y-46887844D01*
X136679250Y-46749518D01*
X136324732Y-46679000D01*
X135963268Y-46679000D01*
X135608750Y-46749518D01*
X135274801Y-46887844D01*
X134974256Y-47088662D01*
X134718662Y-47344256D01*
X134517844Y-47644801D01*
X134379518Y-47978750D01*
X134309000Y-48333268D01*
X134309000Y-48694732D01*
X134352347Y-48912653D01*
X133703716Y-49561284D01*
X133666130Y-49592130D01*
X133543040Y-49742116D01*
X133465697Y-49886816D01*
X133451576Y-49913234D01*
X133395253Y-50098907D01*
X133376235Y-50292000D01*
X133381000Y-50340380D01*
X133381001Y-53787928D01*
X133166000Y-53787928D01*
X133041518Y-53800188D01*
X132921820Y-53836498D01*
X132811506Y-53895463D01*
X132714815Y-53974815D01*
X132635463Y-54071506D01*
X132576498Y-54181820D01*
X132540188Y-54301518D01*
X132527928Y-54426000D01*
X132527928Y-56826000D01*
X132540188Y-56950482D01*
X132576498Y-57070180D01*
X132635463Y-57180494D01*
X132714815Y-57277185D01*
X132811506Y-57356537D01*
X132921820Y-57415502D01*
X133041518Y-57451812D01*
X133166000Y-57464072D01*
X135566000Y-57464072D01*
X135690482Y-57451812D01*
X135810180Y-57415502D01*
X135920494Y-57356537D01*
X136017185Y-57277185D01*
X136096537Y-57180494D01*
X136155502Y-57070180D01*
X136191812Y-56950482D01*
X136204072Y-56826000D01*
X136204072Y-56611000D01*
X138072002Y-56611000D01*
X142963961Y-61502959D01*
X142757246Y-61572500D01*
X142445226Y-61751511D01*
X142174125Y-61987954D01*
X141954361Y-62272743D01*
X141794379Y-62594934D01*
X141721805Y-62834195D01*
X141838568Y-63119000D01*
X143383000Y-63119000D01*
X143383000Y-63099000D01*
X143637000Y-63099000D01*
X143637000Y-63119000D01*
X143657000Y-63119000D01*
X143657000Y-63373000D01*
X143637000Y-63373000D01*
X143637000Y-63393000D01*
X143383000Y-63393000D01*
X143383000Y-63373000D01*
X141838568Y-63373000D01*
X141721805Y-63657805D01*
X141794379Y-63897066D01*
X141954361Y-64219257D01*
X142174125Y-64504046D01*
X142445226Y-64740489D01*
X142742448Y-64911010D01*
X136665397Y-64911010D01*
X136759199Y-64872156D01*
X137059744Y-64671338D01*
X137315338Y-64415744D01*
X137516156Y-64115199D01*
X137654482Y-63781250D01*
X137725000Y-63426732D01*
X137725000Y-63065268D01*
X137654482Y-62710750D01*
X137516156Y-62376801D01*
X137315338Y-62076256D01*
X137059744Y-61820662D01*
X136759199Y-61619844D01*
X136425250Y-61481518D01*
X136070732Y-61411000D01*
X135709268Y-61411000D01*
X135354750Y-61481518D01*
X135020801Y-61619844D01*
X134720256Y-61820662D01*
X134464662Y-62076256D01*
X134445251Y-62105307D01*
X131289660Y-58949716D01*
X131258814Y-58912130D01*
X131108828Y-58789040D01*
X130937711Y-58697576D01*
X130752038Y-58641253D01*
X130607324Y-58627000D01*
X130558944Y-58622235D01*
X130510564Y-58627000D01*
X129079000Y-58627000D01*
X129079000Y-52148791D01*
X129186279Y-52041512D01*
X129223870Y-52010662D01*
X129346960Y-51860676D01*
X129438424Y-51689559D01*
X129494747Y-51503886D01*
X129509000Y-51359172D01*
X129509000Y-51359171D01*
X129513765Y-51310793D01*
X129509000Y-51262415D01*
X129509000Y-51223817D01*
X129716312Y-51016505D01*
X129884299Y-50765095D01*
X130000011Y-50485743D01*
X130059000Y-50189184D01*
X130059000Y-49886816D01*
X130000011Y-49590257D01*
X129884299Y-49310905D01*
X129716312Y-49059495D01*
X129502505Y-48845688D01*
X129251095Y-48677701D01*
X128971743Y-48561989D01*
X128675184Y-48503000D01*
X128372816Y-48503000D01*
X128076257Y-48561989D01*
X127796905Y-48677701D01*
X127545495Y-48845688D01*
X127338183Y-49053000D01*
X127209817Y-49053000D01*
X127002505Y-48845688D01*
X126751095Y-48677701D01*
X126471743Y-48561989D01*
X126175184Y-48503000D01*
X125872816Y-48503000D01*
X125576257Y-48561989D01*
X125296905Y-48677701D01*
X125045495Y-48845688D01*
X124831688Y-49059495D01*
X124774000Y-49145831D01*
X124716312Y-49059495D01*
X124509000Y-48852183D01*
X124509000Y-47572000D01*
X125810002Y-46270999D01*
X144614000Y-46270999D01*
X144166478Y-46718522D01*
M02*
