G04 #@! TF.GenerationSoftware,KiCad,Pcbnew,(5.1.2)-2*
G04 #@! TF.CreationDate,2019-10-31T11:57:37-10:00*
G04 #@! TF.ProjectId,buck converter,6275636b-2063-46f6-9e76-65727465722e,rev?*
G04 #@! TF.SameCoordinates,Original*
G04 #@! TF.FileFunction,Legend,Top*
G04 #@! TF.FilePolarity,Positive*
%FSLAX46Y46*%
G04 Gerber Fmt 4.6, Leading zero omitted, Abs format (unit mm)*
G04 Created by KiCad (PCBNEW (5.1.2)-2) date 2019-10-31 11:57:37*
%MOMM*%
%LPD*%
G04 APERTURE LIST*
%ADD10C,0.120000*%
%ADD11C,0.150000*%
G04 APERTURE END LIST*
D10*
X110586000Y-48768000D02*
G75*
G03X110586000Y-48768000I-2620000J0D01*
G01*
X107966000Y-47728000D02*
X107966000Y-46188000D01*
X107966000Y-51348000D02*
X107966000Y-49808000D01*
X107926000Y-47728000D02*
X107926000Y-46188000D01*
X107926000Y-51348000D02*
X107926000Y-49808000D01*
X107886000Y-51347000D02*
X107886000Y-49808000D01*
X107886000Y-47728000D02*
X107886000Y-46189000D01*
X107846000Y-51346000D02*
X107846000Y-49808000D01*
X107846000Y-47728000D02*
X107846000Y-46190000D01*
X107806000Y-51344000D02*
X107806000Y-49808000D01*
X107806000Y-47728000D02*
X107806000Y-46192000D01*
X107766000Y-51341000D02*
X107766000Y-49808000D01*
X107766000Y-47728000D02*
X107766000Y-46195000D01*
X107726000Y-51337000D02*
X107726000Y-49808000D01*
X107726000Y-47728000D02*
X107726000Y-46199000D01*
X107686000Y-51333000D02*
X107686000Y-49808000D01*
X107686000Y-47728000D02*
X107686000Y-46203000D01*
X107646000Y-51329000D02*
X107646000Y-49808000D01*
X107646000Y-47728000D02*
X107646000Y-46207000D01*
X107606000Y-51324000D02*
X107606000Y-49808000D01*
X107606000Y-47728000D02*
X107606000Y-46212000D01*
X107566000Y-51318000D02*
X107566000Y-49808000D01*
X107566000Y-47728000D02*
X107566000Y-46218000D01*
X107526000Y-51311000D02*
X107526000Y-49808000D01*
X107526000Y-47728000D02*
X107526000Y-46225000D01*
X107486000Y-51304000D02*
X107486000Y-49808000D01*
X107486000Y-47728000D02*
X107486000Y-46232000D01*
X107446000Y-51296000D02*
X107446000Y-49808000D01*
X107446000Y-47728000D02*
X107446000Y-46240000D01*
X107406000Y-51288000D02*
X107406000Y-49808000D01*
X107406000Y-47728000D02*
X107406000Y-46248000D01*
X107366000Y-51279000D02*
X107366000Y-49808000D01*
X107366000Y-47728000D02*
X107366000Y-46257000D01*
X107326000Y-51269000D02*
X107326000Y-49808000D01*
X107326000Y-47728000D02*
X107326000Y-46267000D01*
X107286000Y-51259000D02*
X107286000Y-49808000D01*
X107286000Y-47728000D02*
X107286000Y-46277000D01*
X107245000Y-51248000D02*
X107245000Y-49808000D01*
X107245000Y-47728000D02*
X107245000Y-46288000D01*
X107205000Y-51236000D02*
X107205000Y-49808000D01*
X107205000Y-47728000D02*
X107205000Y-46300000D01*
X107165000Y-51223000D02*
X107165000Y-49808000D01*
X107165000Y-47728000D02*
X107165000Y-46313000D01*
X107125000Y-51210000D02*
X107125000Y-49808000D01*
X107125000Y-47728000D02*
X107125000Y-46326000D01*
X107085000Y-51196000D02*
X107085000Y-49808000D01*
X107085000Y-47728000D02*
X107085000Y-46340000D01*
X107045000Y-51182000D02*
X107045000Y-49808000D01*
X107045000Y-47728000D02*
X107045000Y-46354000D01*
X107005000Y-51166000D02*
X107005000Y-49808000D01*
X107005000Y-47728000D02*
X107005000Y-46370000D01*
X106965000Y-51150000D02*
X106965000Y-49808000D01*
X106965000Y-47728000D02*
X106965000Y-46386000D01*
X106925000Y-51133000D02*
X106925000Y-49808000D01*
X106925000Y-47728000D02*
X106925000Y-46403000D01*
X106885000Y-51116000D02*
X106885000Y-49808000D01*
X106885000Y-47728000D02*
X106885000Y-46420000D01*
X106845000Y-51097000D02*
X106845000Y-49808000D01*
X106845000Y-47728000D02*
X106845000Y-46439000D01*
X106805000Y-51078000D02*
X106805000Y-49808000D01*
X106805000Y-47728000D02*
X106805000Y-46458000D01*
X106765000Y-51058000D02*
X106765000Y-49808000D01*
X106765000Y-47728000D02*
X106765000Y-46478000D01*
X106725000Y-51036000D02*
X106725000Y-49808000D01*
X106725000Y-47728000D02*
X106725000Y-46500000D01*
X106685000Y-51015000D02*
X106685000Y-49808000D01*
X106685000Y-47728000D02*
X106685000Y-46521000D01*
X106645000Y-50992000D02*
X106645000Y-49808000D01*
X106645000Y-47728000D02*
X106645000Y-46544000D01*
X106605000Y-50968000D02*
X106605000Y-49808000D01*
X106605000Y-47728000D02*
X106605000Y-46568000D01*
X106565000Y-50943000D02*
X106565000Y-49808000D01*
X106565000Y-47728000D02*
X106565000Y-46593000D01*
X106525000Y-50917000D02*
X106525000Y-49808000D01*
X106525000Y-47728000D02*
X106525000Y-46619000D01*
X106485000Y-50890000D02*
X106485000Y-49808000D01*
X106485000Y-47728000D02*
X106485000Y-46646000D01*
X106445000Y-50863000D02*
X106445000Y-49808000D01*
X106445000Y-47728000D02*
X106445000Y-46673000D01*
X106405000Y-50833000D02*
X106405000Y-49808000D01*
X106405000Y-47728000D02*
X106405000Y-46703000D01*
X106365000Y-50803000D02*
X106365000Y-49808000D01*
X106365000Y-47728000D02*
X106365000Y-46733000D01*
X106325000Y-50772000D02*
X106325000Y-49808000D01*
X106325000Y-47728000D02*
X106325000Y-46764000D01*
X106285000Y-50739000D02*
X106285000Y-49808000D01*
X106285000Y-47728000D02*
X106285000Y-46797000D01*
X106245000Y-50705000D02*
X106245000Y-49808000D01*
X106245000Y-47728000D02*
X106245000Y-46831000D01*
X106205000Y-50669000D02*
X106205000Y-49808000D01*
X106205000Y-47728000D02*
X106205000Y-46867000D01*
X106165000Y-50632000D02*
X106165000Y-49808000D01*
X106165000Y-47728000D02*
X106165000Y-46904000D01*
X106125000Y-50594000D02*
X106125000Y-49808000D01*
X106125000Y-47728000D02*
X106125000Y-46942000D01*
X106085000Y-50553000D02*
X106085000Y-49808000D01*
X106085000Y-47728000D02*
X106085000Y-46983000D01*
X106045000Y-50511000D02*
X106045000Y-49808000D01*
X106045000Y-47728000D02*
X106045000Y-47025000D01*
X106005000Y-50467000D02*
X106005000Y-49808000D01*
X106005000Y-47728000D02*
X106005000Y-47069000D01*
X105965000Y-50421000D02*
X105965000Y-49808000D01*
X105965000Y-47728000D02*
X105965000Y-47115000D01*
X105925000Y-50373000D02*
X105925000Y-47163000D01*
X105885000Y-50322000D02*
X105885000Y-47214000D01*
X105845000Y-50268000D02*
X105845000Y-47268000D01*
X105805000Y-50211000D02*
X105805000Y-47325000D01*
X105765000Y-50151000D02*
X105765000Y-47385000D01*
X105725000Y-50087000D02*
X105725000Y-47449000D01*
X105685000Y-50019000D02*
X105685000Y-47517000D01*
X105645000Y-49946000D02*
X105645000Y-47590000D01*
X105605000Y-49866000D02*
X105605000Y-47670000D01*
X105565000Y-49779000D02*
X105565000Y-47757000D01*
X105525000Y-49683000D02*
X105525000Y-47853000D01*
X105485000Y-49573000D02*
X105485000Y-47963000D01*
X105445000Y-49445000D02*
X105445000Y-48091000D01*
X105405000Y-49286000D02*
X105405000Y-48250000D01*
X105365000Y-49052000D02*
X105365000Y-48484000D01*
X110770775Y-50243000D02*
X110270775Y-50243000D01*
X110520775Y-50493000D02*
X110520775Y-49993000D01*
X151183000Y-57180775D02*
X151683000Y-57180775D01*
X151433000Y-57430775D02*
X151433000Y-56930775D01*
X152624000Y-52025000D02*
X153192000Y-52025000D01*
X152390000Y-52065000D02*
X153426000Y-52065000D01*
X152231000Y-52105000D02*
X153585000Y-52105000D01*
X152103000Y-52145000D02*
X153713000Y-52145000D01*
X151993000Y-52185000D02*
X153823000Y-52185000D01*
X151897000Y-52225000D02*
X153919000Y-52225000D01*
X151810000Y-52265000D02*
X154006000Y-52265000D01*
X151730000Y-52305000D02*
X154086000Y-52305000D01*
X151657000Y-52345000D02*
X154159000Y-52345000D01*
X151589000Y-52385000D02*
X154227000Y-52385000D01*
X151525000Y-52425000D02*
X154291000Y-52425000D01*
X151465000Y-52465000D02*
X154351000Y-52465000D01*
X151408000Y-52505000D02*
X154408000Y-52505000D01*
X151354000Y-52545000D02*
X154462000Y-52545000D01*
X151303000Y-52585000D02*
X154513000Y-52585000D01*
X153948000Y-52625000D02*
X154561000Y-52625000D01*
X151255000Y-52625000D02*
X151868000Y-52625000D01*
X153948000Y-52665000D02*
X154607000Y-52665000D01*
X151209000Y-52665000D02*
X151868000Y-52665000D01*
X153948000Y-52705000D02*
X154651000Y-52705000D01*
X151165000Y-52705000D02*
X151868000Y-52705000D01*
X153948000Y-52745000D02*
X154693000Y-52745000D01*
X151123000Y-52745000D02*
X151868000Y-52745000D01*
X153948000Y-52785000D02*
X154734000Y-52785000D01*
X151082000Y-52785000D02*
X151868000Y-52785000D01*
X153948000Y-52825000D02*
X154772000Y-52825000D01*
X151044000Y-52825000D02*
X151868000Y-52825000D01*
X153948000Y-52865000D02*
X154809000Y-52865000D01*
X151007000Y-52865000D02*
X151868000Y-52865000D01*
X153948000Y-52905000D02*
X154845000Y-52905000D01*
X150971000Y-52905000D02*
X151868000Y-52905000D01*
X153948000Y-52945000D02*
X154879000Y-52945000D01*
X150937000Y-52945000D02*
X151868000Y-52945000D01*
X153948000Y-52985000D02*
X154912000Y-52985000D01*
X150904000Y-52985000D02*
X151868000Y-52985000D01*
X153948000Y-53025000D02*
X154943000Y-53025000D01*
X150873000Y-53025000D02*
X151868000Y-53025000D01*
X153948000Y-53065000D02*
X154973000Y-53065000D01*
X150843000Y-53065000D02*
X151868000Y-53065000D01*
X153948000Y-53105000D02*
X155003000Y-53105000D01*
X150813000Y-53105000D02*
X151868000Y-53105000D01*
X153948000Y-53145000D02*
X155030000Y-53145000D01*
X150786000Y-53145000D02*
X151868000Y-53145000D01*
X153948000Y-53185000D02*
X155057000Y-53185000D01*
X150759000Y-53185000D02*
X151868000Y-53185000D01*
X153948000Y-53225000D02*
X155083000Y-53225000D01*
X150733000Y-53225000D02*
X151868000Y-53225000D01*
X153948000Y-53265000D02*
X155108000Y-53265000D01*
X150708000Y-53265000D02*
X151868000Y-53265000D01*
X153948000Y-53305000D02*
X155132000Y-53305000D01*
X150684000Y-53305000D02*
X151868000Y-53305000D01*
X153948000Y-53345000D02*
X155155000Y-53345000D01*
X150661000Y-53345000D02*
X151868000Y-53345000D01*
X153948000Y-53385000D02*
X155176000Y-53385000D01*
X150640000Y-53385000D02*
X151868000Y-53385000D01*
X153948000Y-53425000D02*
X155198000Y-53425000D01*
X150618000Y-53425000D02*
X151868000Y-53425000D01*
X153948000Y-53465000D02*
X155218000Y-53465000D01*
X150598000Y-53465000D02*
X151868000Y-53465000D01*
X153948000Y-53505000D02*
X155237000Y-53505000D01*
X150579000Y-53505000D02*
X151868000Y-53505000D01*
X153948000Y-53545000D02*
X155256000Y-53545000D01*
X150560000Y-53545000D02*
X151868000Y-53545000D01*
X153948000Y-53585000D02*
X155273000Y-53585000D01*
X150543000Y-53585000D02*
X151868000Y-53585000D01*
X153948000Y-53625000D02*
X155290000Y-53625000D01*
X150526000Y-53625000D02*
X151868000Y-53625000D01*
X153948000Y-53665000D02*
X155306000Y-53665000D01*
X150510000Y-53665000D02*
X151868000Y-53665000D01*
X153948000Y-53705000D02*
X155322000Y-53705000D01*
X150494000Y-53705000D02*
X151868000Y-53705000D01*
X153948000Y-53745000D02*
X155336000Y-53745000D01*
X150480000Y-53745000D02*
X151868000Y-53745000D01*
X153948000Y-53785000D02*
X155350000Y-53785000D01*
X150466000Y-53785000D02*
X151868000Y-53785000D01*
X153948000Y-53825000D02*
X155363000Y-53825000D01*
X150453000Y-53825000D02*
X151868000Y-53825000D01*
X153948000Y-53865000D02*
X155376000Y-53865000D01*
X150440000Y-53865000D02*
X151868000Y-53865000D01*
X153948000Y-53905000D02*
X155388000Y-53905000D01*
X150428000Y-53905000D02*
X151868000Y-53905000D01*
X153948000Y-53946000D02*
X155399000Y-53946000D01*
X150417000Y-53946000D02*
X151868000Y-53946000D01*
X153948000Y-53986000D02*
X155409000Y-53986000D01*
X150407000Y-53986000D02*
X151868000Y-53986000D01*
X153948000Y-54026000D02*
X155419000Y-54026000D01*
X150397000Y-54026000D02*
X151868000Y-54026000D01*
X153948000Y-54066000D02*
X155428000Y-54066000D01*
X150388000Y-54066000D02*
X151868000Y-54066000D01*
X153948000Y-54106000D02*
X155436000Y-54106000D01*
X150380000Y-54106000D02*
X151868000Y-54106000D01*
X153948000Y-54146000D02*
X155444000Y-54146000D01*
X150372000Y-54146000D02*
X151868000Y-54146000D01*
X153948000Y-54186000D02*
X155451000Y-54186000D01*
X150365000Y-54186000D02*
X151868000Y-54186000D01*
X153948000Y-54226000D02*
X155458000Y-54226000D01*
X150358000Y-54226000D02*
X151868000Y-54226000D01*
X153948000Y-54266000D02*
X155464000Y-54266000D01*
X150352000Y-54266000D02*
X151868000Y-54266000D01*
X153948000Y-54306000D02*
X155469000Y-54306000D01*
X150347000Y-54306000D02*
X151868000Y-54306000D01*
X153948000Y-54346000D02*
X155473000Y-54346000D01*
X150343000Y-54346000D02*
X151868000Y-54346000D01*
X153948000Y-54386000D02*
X155477000Y-54386000D01*
X150339000Y-54386000D02*
X151868000Y-54386000D01*
X153948000Y-54426000D02*
X155481000Y-54426000D01*
X150335000Y-54426000D02*
X151868000Y-54426000D01*
X153948000Y-54466000D02*
X155484000Y-54466000D01*
X150332000Y-54466000D02*
X151868000Y-54466000D01*
X153948000Y-54506000D02*
X155486000Y-54506000D01*
X150330000Y-54506000D02*
X151868000Y-54506000D01*
X153948000Y-54546000D02*
X155487000Y-54546000D01*
X150329000Y-54546000D02*
X151868000Y-54546000D01*
X150328000Y-54586000D02*
X151868000Y-54586000D01*
X153948000Y-54586000D02*
X155488000Y-54586000D01*
X150328000Y-54626000D02*
X151868000Y-54626000D01*
X153948000Y-54626000D02*
X155488000Y-54626000D01*
X155528000Y-54626000D02*
G75*
G03X155528000Y-54626000I-2620000J0D01*
G01*
X109234000Y-61072000D02*
X109234000Y-64912000D01*
X109474000Y-61072000D02*
X109474000Y-64912000D01*
X109354000Y-61072000D02*
X109354000Y-64912000D01*
X115934000Y-64912000D02*
X115934000Y-64432000D01*
X108094000Y-64912000D02*
X115934000Y-64912000D01*
X108094000Y-64432000D02*
X108094000Y-64912000D01*
X115934000Y-61072000D02*
X115934000Y-61552000D01*
X108094000Y-61072000D02*
X115934000Y-61072000D01*
X108094000Y-61552000D02*
X108094000Y-61072000D01*
X135526000Y-54186000D02*
X135526000Y-53706000D01*
X135526000Y-53706000D02*
X143366000Y-53706000D01*
X143366000Y-53706000D02*
X143366000Y-54186000D01*
X135526000Y-57066000D02*
X135526000Y-57546000D01*
X135526000Y-57546000D02*
X143366000Y-57546000D01*
X143366000Y-57546000D02*
X143366000Y-57066000D01*
X136786000Y-53706000D02*
X136786000Y-57546000D01*
X136906000Y-53706000D02*
X136906000Y-57546000D01*
X136666000Y-53706000D02*
X136666000Y-57546000D01*
X118306000Y-49022462D02*
G75*
G03X112756000Y-47477170I-2990000J462D01*
G01*
X118306000Y-49021538D02*
G75*
G02X112756000Y-50566830I-2990000J-462D01*
G01*
X117816000Y-49022000D02*
G75*
G03X117816000Y-49022000I-2500000J0D01*
G01*
X112756000Y-47477000D02*
X112756000Y-50567000D01*
X151363000Y-50566000D02*
X154453000Y-50566000D01*
X155408000Y-48006000D02*
G75*
G03X155408000Y-48006000I-2500000J0D01*
G01*
X152907538Y-45016000D02*
G75*
G02X154452830Y-50566000I462J-2990000D01*
G01*
X152908462Y-45016000D02*
G75*
G03X151363170Y-50566000I-462J-2990000D01*
G01*
X102362000Y-50292000D02*
X102362000Y-60452000D01*
X103632000Y-50292000D02*
X96012000Y-50292000D01*
X96012000Y-50292000D02*
X96012000Y-60452000D01*
X96012000Y-60452000D02*
X103632000Y-60452000D01*
X103632000Y-60452000D02*
X103632000Y-50292000D01*
X160782000Y-50546000D02*
X160782000Y-60706000D01*
X168402000Y-50546000D02*
X160782000Y-50546000D01*
X168402000Y-60706000D02*
X168402000Y-50546000D01*
X160782000Y-60706000D02*
X168402000Y-60706000D01*
X162052000Y-60706000D02*
X162052000Y-50546000D01*
X138510000Y-63246000D02*
G75*
G03X138510000Y-63246000I-2620000J0D01*
G01*
X138510000Y-63246000D02*
X142010000Y-63246000D01*
X111332000Y-56388000D02*
X114832000Y-56388000D01*
X111332000Y-56388000D02*
G75*
G03X111332000Y-56388000I-2620000J0D01*
G01*
X138764000Y-48514000D02*
G75*
G03X138764000Y-48514000I-2620000J0D01*
G01*
X138764000Y-48514000D02*
X142264000Y-48514000D01*
X121154000Y-52208000D02*
X121154000Y-44918000D01*
X130894000Y-52208000D02*
X130894000Y-44918000D01*
X121154000Y-52208000D02*
X130894000Y-52208000D01*
X121154000Y-44918000D02*
X130894000Y-44918000D01*
X122404000Y-44918000D02*
X122404000Y-39918000D01*
X129644000Y-44918000D02*
X129644000Y-39918000D01*
X122404000Y-44918000D02*
X129644000Y-44918000D01*
X122404000Y-39918000D02*
X129644000Y-39918000D01*
X122904000Y-39918000D02*
X122904000Y-29918000D01*
X129144000Y-39918000D02*
X129144000Y-29918000D01*
X122904000Y-39918000D02*
X129144000Y-39918000D01*
X122904000Y-29918000D02*
X129144000Y-29918000D01*
X121273000Y-59460000D02*
X131514000Y-59460000D01*
X121273000Y-64201000D02*
X131514000Y-64201000D01*
X121273000Y-59460000D02*
X121273000Y-64201000D01*
X131514000Y-59460000D02*
X131514000Y-64201000D01*
X121273000Y-61000000D02*
X131514000Y-61000000D01*
X152134118Y-63912000D02*
G75*
G02X152134118Y-62072000I-1512118J920000D01*
G01*
D11*
X107799333Y-52875142D02*
X107751714Y-52922761D01*
X107608857Y-52970380D01*
X107513619Y-52970380D01*
X107370761Y-52922761D01*
X107275523Y-52827523D01*
X107227904Y-52732285D01*
X107180285Y-52541809D01*
X107180285Y-52398952D01*
X107227904Y-52208476D01*
X107275523Y-52113238D01*
X107370761Y-52018000D01*
X107513619Y-51970380D01*
X107608857Y-51970380D01*
X107751714Y-52018000D01*
X107799333Y-52065619D01*
X108751714Y-52970380D02*
X108180285Y-52970380D01*
X108466000Y-52970380D02*
X108466000Y-51970380D01*
X108370761Y-52113238D01*
X108275523Y-52208476D01*
X108180285Y-52256095D01*
X149515142Y-54792666D02*
X149562761Y-54840285D01*
X149610380Y-54983142D01*
X149610380Y-55078380D01*
X149562761Y-55221238D01*
X149467523Y-55316476D01*
X149372285Y-55364095D01*
X149181809Y-55411714D01*
X149038952Y-55411714D01*
X148848476Y-55364095D01*
X148753238Y-55316476D01*
X148658000Y-55221238D01*
X148610380Y-55078380D01*
X148610380Y-54983142D01*
X148658000Y-54840285D01*
X148705619Y-54792666D01*
X148705619Y-54411714D02*
X148658000Y-54364095D01*
X148610380Y-54268857D01*
X148610380Y-54030761D01*
X148658000Y-53935523D01*
X148705619Y-53887904D01*
X148800857Y-53840285D01*
X148896095Y-53840285D01*
X149038952Y-53887904D01*
X149610380Y-54459333D01*
X149610380Y-53840285D01*
X111275904Y-60524380D02*
X111275904Y-59524380D01*
X111514000Y-59524380D01*
X111656857Y-59572000D01*
X111752095Y-59667238D01*
X111799714Y-59762476D01*
X111847333Y-59952952D01*
X111847333Y-60095809D01*
X111799714Y-60286285D01*
X111752095Y-60381523D01*
X111656857Y-60476761D01*
X111514000Y-60524380D01*
X111275904Y-60524380D01*
X112799714Y-60524380D02*
X112228285Y-60524380D01*
X112514000Y-60524380D02*
X112514000Y-59524380D01*
X112418761Y-59667238D01*
X112323523Y-59762476D01*
X112228285Y-59810095D01*
X106672095Y-61244380D02*
X106672095Y-60244380D01*
X107243523Y-61244380D02*
X106814952Y-60672952D01*
X107243523Y-60244380D02*
X106672095Y-60815809D01*
X138707904Y-53158380D02*
X138707904Y-52158380D01*
X138946000Y-52158380D01*
X139088857Y-52206000D01*
X139184095Y-52301238D01*
X139231714Y-52396476D01*
X139279333Y-52586952D01*
X139279333Y-52729809D01*
X139231714Y-52920285D01*
X139184095Y-53015523D01*
X139088857Y-53110761D01*
X138946000Y-53158380D01*
X138707904Y-53158380D01*
X139660285Y-52253619D02*
X139707904Y-52206000D01*
X139803142Y-52158380D01*
X140041238Y-52158380D01*
X140136476Y-52206000D01*
X140184095Y-52253619D01*
X140231714Y-52348857D01*
X140231714Y-52444095D01*
X140184095Y-52586952D01*
X139612666Y-53158380D01*
X140231714Y-53158380D01*
X134104095Y-53878380D02*
X134104095Y-52878380D01*
X134675523Y-53878380D02*
X134246952Y-53306952D01*
X134675523Y-52878380D02*
X134104095Y-53449809D01*
X114577904Y-45514380D02*
X114577904Y-44514380D01*
X114816000Y-44514380D01*
X114958857Y-44562000D01*
X115054095Y-44657238D01*
X115101714Y-44752476D01*
X115149333Y-44942952D01*
X115149333Y-45085809D01*
X115101714Y-45276285D01*
X115054095Y-45371523D01*
X114958857Y-45466761D01*
X114816000Y-45514380D01*
X114577904Y-45514380D01*
X115482666Y-44514380D02*
X116101714Y-44514380D01*
X115768380Y-44895333D01*
X115911238Y-44895333D01*
X116006476Y-44942952D01*
X116054095Y-44990571D01*
X116101714Y-45085809D01*
X116101714Y-45323904D01*
X116054095Y-45419142D01*
X116006476Y-45466761D01*
X115911238Y-45514380D01*
X115625523Y-45514380D01*
X115530285Y-45466761D01*
X115482666Y-45419142D01*
X149400380Y-48744095D02*
X148400380Y-48744095D01*
X148400380Y-48506000D01*
X148448000Y-48363142D01*
X148543238Y-48267904D01*
X148638476Y-48220285D01*
X148828952Y-48172666D01*
X148971809Y-48172666D01*
X149162285Y-48220285D01*
X149257523Y-48267904D01*
X149352761Y-48363142D01*
X149400380Y-48506000D01*
X149400380Y-48744095D01*
X148733714Y-47315523D02*
X149400380Y-47315523D01*
X148352761Y-47553619D02*
X149067047Y-47791714D01*
X149067047Y-47172666D01*
X96226380Y-55451333D02*
X96940666Y-55451333D01*
X97083523Y-55498952D01*
X97178761Y-55594190D01*
X97226380Y-55737047D01*
X97226380Y-55832285D01*
X97226380Y-54451333D02*
X97226380Y-55022761D01*
X97226380Y-54737047D02*
X96226380Y-54737047D01*
X96369238Y-54832285D01*
X96464476Y-54927523D01*
X96512095Y-55022761D01*
X169124380Y-55959333D02*
X169838666Y-55959333D01*
X169981523Y-56006952D01*
X170076761Y-56102190D01*
X170124380Y-56245047D01*
X170124380Y-56340285D01*
X169219619Y-55530761D02*
X169172000Y-55483142D01*
X169124380Y-55387904D01*
X169124380Y-55149809D01*
X169172000Y-55054571D01*
X169219619Y-55006952D01*
X169314857Y-54959333D01*
X169410095Y-54959333D01*
X169552952Y-55006952D01*
X170124380Y-55578380D01*
X170124380Y-54959333D01*
X139533333Y-60078380D02*
X139200000Y-59602190D01*
X138961904Y-60078380D02*
X138961904Y-59078380D01*
X139342857Y-59078380D01*
X139438095Y-59126000D01*
X139485714Y-59173619D01*
X139533333Y-59268857D01*
X139533333Y-59411714D01*
X139485714Y-59506952D01*
X139438095Y-59554571D01*
X139342857Y-59602190D01*
X138961904Y-59602190D01*
X140485714Y-60078380D02*
X139914285Y-60078380D01*
X140200000Y-60078380D02*
X140200000Y-59078380D01*
X140104761Y-59221238D01*
X140009523Y-59316476D01*
X139914285Y-59364095D01*
X112355333Y-53220380D02*
X112022000Y-52744190D01*
X111783904Y-53220380D02*
X111783904Y-52220380D01*
X112164857Y-52220380D01*
X112260095Y-52268000D01*
X112307714Y-52315619D01*
X112355333Y-52410857D01*
X112355333Y-52553714D01*
X112307714Y-52648952D01*
X112260095Y-52696571D01*
X112164857Y-52744190D01*
X111783904Y-52744190D01*
X112736285Y-52315619D02*
X112783904Y-52268000D01*
X112879142Y-52220380D01*
X113117238Y-52220380D01*
X113212476Y-52268000D01*
X113260095Y-52315619D01*
X113307714Y-52410857D01*
X113307714Y-52506095D01*
X113260095Y-52648952D01*
X112688666Y-53220380D01*
X113307714Y-53220380D01*
X139787333Y-45346380D02*
X139454000Y-44870190D01*
X139215904Y-45346380D02*
X139215904Y-44346380D01*
X139596857Y-44346380D01*
X139692095Y-44394000D01*
X139739714Y-44441619D01*
X139787333Y-44536857D01*
X139787333Y-44679714D01*
X139739714Y-44774952D01*
X139692095Y-44822571D01*
X139596857Y-44870190D01*
X139215904Y-44870190D01*
X140120666Y-44346380D02*
X140739714Y-44346380D01*
X140406380Y-44727333D01*
X140549238Y-44727333D01*
X140644476Y-44774952D01*
X140692095Y-44822571D01*
X140739714Y-44917809D01*
X140739714Y-45155904D01*
X140692095Y-45251142D01*
X140644476Y-45298761D01*
X140549238Y-45346380D01*
X140263523Y-45346380D01*
X140168285Y-45298761D01*
X140120666Y-45251142D01*
X120476380Y-50633238D02*
X120000190Y-50966571D01*
X120476380Y-51204666D02*
X119476380Y-51204666D01*
X119476380Y-50823714D01*
X119524000Y-50728476D01*
X119571619Y-50680857D01*
X119666857Y-50633238D01*
X119809714Y-50633238D01*
X119904952Y-50680857D01*
X119952571Y-50728476D01*
X120000190Y-50823714D01*
X120000190Y-51204666D01*
X119476380Y-50347523D02*
X120476380Y-50014190D01*
X119476380Y-49680857D01*
X120476380Y-48823714D02*
X120476380Y-49395142D01*
X120476380Y-49109428D02*
X119476380Y-49109428D01*
X119619238Y-49204666D01*
X119714476Y-49299904D01*
X119762095Y-49395142D01*
X125632095Y-57912380D02*
X125632095Y-58721904D01*
X125679714Y-58817142D01*
X125727333Y-58864761D01*
X125822571Y-58912380D01*
X126013047Y-58912380D01*
X126108285Y-58864761D01*
X126155904Y-58817142D01*
X126203523Y-58721904D01*
X126203523Y-57912380D01*
X127203523Y-58912380D02*
X126632095Y-58912380D01*
X126917809Y-58912380D02*
X126917809Y-57912380D01*
X126822571Y-58055238D01*
X126727333Y-58150476D01*
X126632095Y-58198095D01*
X151725333Y-60674380D02*
X151249142Y-60674380D01*
X151249142Y-59674380D01*
X152582476Y-60674380D02*
X152011047Y-60674380D01*
X152296761Y-60674380D02*
X152296761Y-59674380D01*
X152201523Y-59817238D01*
X152106285Y-59912476D01*
X152011047Y-59960095D01*
M02*
