M48
; DRILL file {KiCad (5.1.2)-2} date 10/31/2019 11:57:46 AM
; FORMAT={2:4/ absolute / inch / suppress leading zeros}
; #@! TF.CreationDate,2019-10-31T11:57:46-10:00
; #@! TF.GenerationSoftware,Kicad,Pcbnew,(5.1.2)-2
FMAT,2
INCH,TZ
T1C0.0315
T2C0.0354
T3C0.0394
T4C0.0433
T5C0.0472
T6C0.0598
%
G90
G05
T1
X60200Y-21113
X60200Y-21900
X59300Y-24800
X60300Y-24800
X42113Y-19200
X42900Y-19200
T2
X60200Y-18400
X60200Y-19400
X44900Y-19300
X45900Y-19300
T3
X48631Y-19700
X49616Y-19700
X50600Y-19700
T4
X48423Y-24500
X49092Y-24500
X49761Y-24500
X50431Y-24500
X51100Y-24500
T5
X53500Y-24900
X56500Y-24900
X52900Y-21900
X56900Y-21900
X53600Y-19100
X56600Y-19100
X42100Y-24800
X46100Y-24800
X42800Y-22200
X45800Y-22200
T6
X39300Y-20800
X39300Y-22800
X64800Y-20900
X64800Y-22900
T0
M30
