  0
SECTION
  2
HEADER
  9
$ANGBASE
  50
0.0
  9
$ANGDIR
  70
  1
  9
$MEASUREMENT
  70
0
  0
ENDSEC
  0
SECTION
  2
TABLES
  0
TABLE
  2
LTYPE
  70
4
  0
LTYPE
  5
40F
  2
CONTINUOUS
  70
0
  3
Solid line
  72
65
  73
0
  40
0.0
  0
LTYPE
  5
410
  2
DASHDOT
 70
0
  3
Dash Dot ____ _ ____ _
 72
65
 73
4
 40
2.0
 49
1.25
 49
-0.25
 49
0.25
 49
-0.25
  0
LTYPE
  5
411
  2
DASHED
 70
0
  3
Dashed __ __ __ __ __
 72
65
 73
2
 40
0.75
 49
0.5
 49
-0.25
  0
LTYPE
  5
43B
  2
DOTTED
 70
0
  3
Dotted .  .  .  .
 72
65
 73
2
 40
0.2
 49
0.0
 49
-0.2
  0
ENDTAB
  0
TABLE
  2
STYLE
  70
4
  0
STYLE
  2
KICAD
  70
0
  40
0
  41
1
  42
1
  50
0
  71
0
  3
isocp.shx
  0
STYLE
  2
KICADB
  70
0
  40
0
  41
1
  42
1
  50
0
  71
0
  3
isocp.shx
  0
STYLE
  2
KICADI
  70
0
  40
0
  41
1
  42
1
  50
15
  71
0
  3
isocp.shx
  0
STYLE
  2
KICADBI
  70
0
  40
0
  41
1
  42
1
  50
15
  71
0
  3
isocp.shx
  0
ENDTAB
  0
TABLE
  2
LAYER
  70
30
  0
LAYER
  2
BLACK
  70
0
  62
7
  6
CONTINUOUS
  0
LAYER
  2
GRAY1
  70
0
  62
251
  6
CONTINUOUS
  0
LAYER
  2
GRAY2
  70
0
  62
8
  6
CONTINUOUS
  0
LAYER
  2
GRAY3
  70
0
  62
9
  6
CONTINUOUS
  0
LAYER
  2
WHITE
  70
0
  62
7
  6
CONTINUOUS
  0
LAYER
  2
LYELLOW
  70
0
  62
51
  6
CONTINUOUS
  0
LAYER
  2
BLUE1
  70
0
  62
178
  6
CONTINUOUS
  0
LAYER
  2
GREEN1
  70
0
  62
98
  6
CONTINUOUS
  0
LAYER
  2
CYAN1
  70
0
  62
138
  6
CONTINUOUS
  0
LAYER
  2
RED1
  70
0
  62
18
  6
CONTINUOUS
  0
LAYER
  2
MAGENTA1
  70
0
  62
228
  6
CONTINUOUS
  0
LAYER
  2
BROWN1
  70
0
  62
58
  6
CONTINUOUS
  0
LAYER
  2
BLUE2
  70
0
  62
5
  6
CONTINUOUS
  0
LAYER
  2
GREEN2
  70
0
  62
3
  6
CONTINUOUS
  0
LAYER
  2
CYAN2
  70
0
  62
4
  6
CONTINUOUS
  0
LAYER
  2
RED2
  70
0
  62
1
  6
CONTINUOUS
  0
LAYER
  2
MAGENTA2
  70
0
  62
6
  6
CONTINUOUS
  0
LAYER
  2
BROWN2
  70
0
  62
54
  6
CONTINUOUS
  0
LAYER
  2
BLUE3
  70
0
  62
171
  6
CONTINUOUS
  0
LAYER
  2
GREEN3
  70
0
  62
91
  6
CONTINUOUS
  0
LAYER
  2
CYAN3
  70
0
  62
131
  6
CONTINUOUS
  0
LAYER
  2
RED3
  70
0
  62
11
  6
CONTINUOUS
  0
LAYER
  2
MAGENTA3
  70
0
  62
221
  6
CONTINUOUS
  0
LAYER
  2
YELLOW3
  70
0
  62
2
  6
CONTINUOUS
  0
LAYER
  2
BLUE4
  70
0
  62
5
  6
CONTINUOUS
  0
LAYER
  2
GREEN4
  70
0
  62
3
  6
CONTINUOUS
  0
LAYER
  2
CYAN4
  70
0
  62
4
  6
CONTINUOUS
  0
LAYER
  2
RED4
  70
0
  62
1
  6
CONTINUOUS
  0
LAYER
  2
MAGENTA4
  70
0
  62
6
  6
CONTINUOUS
  0
LAYER
  2
YELLOW4
  70
0
  62
2
  6
CONTINUOUS
  0
ENDTAB
  0
ENDSEC
  0
SECTION
  2
ENTITIES
0
LINE
8
BLACK
6
CONTINUOUS
10
143.755
20
-62.0131
11
143.991
21
-62.0846
0
LINE
8
BLACK
6
CONTINUOUS
10
143.991
20
-62.0846
11
144.208
21
-62.2008
0
LINE
8
BLACK
6
CONTINUOUS
10
144.208
20
-62.2008
11
144.399
21
-62.3571
0
LINE
8
BLACK
6
CONTINUOUS
10
144.399
20
-62.3571
11
144.555
21
-62.5476
0
LINE
8
BLACK
6
CONTINUOUS
10
144.555
20
-62.5476
11
144.671
21
-62.7649
0
LINE
8
BLACK
6
CONTINUOUS
10
144.671
20
-62.7649
11
144.743
21
-63.0008
0
LINE
8
BLACK
6
CONTINUOUS
10
144.743
20
-63.0008
11
144.767
21
-63.246
0
LINE
8
BLACK
6
CONTINUOUS
10
144.767
20
-63.246
11
144.743
21
-63.4912
0
LINE
8
BLACK
6
CONTINUOUS
10
144.743
20
-63.4912
11
144.671
21
-63.7271
0
LINE
8
BLACK
6
CONTINUOUS
10
144.671
20
-63.7271
11
144.555
21
-63.9444
0
LINE
8
BLACK
6
CONTINUOUS
10
144.555
20
-63.9444
11
144.399
21
-64.1349
0
LINE
8
BLACK
6
CONTINUOUS
10
144.399
20
-64.1349
11
144.208
21
-64.2912
0
LINE
8
BLACK
6
CONTINUOUS
10
144.208
20
-64.2912
11
143.991
21
-64.4074
0
LINE
8
BLACK
6
CONTINUOUS
10
143.991
20
-64.4074
11
143.755
21
-64.4789
0
LINE
8
BLACK
6
CONTINUOUS
10
143.755
20
-64.4789
11
143.571
21
-64.497
0
LINE
8
BLACK
6
CONTINUOUS
10
143.571
20
-64.497
11
143.449
21
-64.497
0
LINE
8
BLACK
6
CONTINUOUS
10
143.449
20
-64.497
11
143.265
21
-64.4789
0
LINE
8
BLACK
6
CONTINUOUS
10
143.265
20
-64.4789
11
143.029
21
-64.4074
0
LINE
8
BLACK
6
CONTINUOUS
10
143.029
20
-64.4074
11
142.812
21
-64.2912
0
LINE
8
BLACK
6
CONTINUOUS
10
142.812
20
-64.2912
11
142.621
21
-64.1349
0
LINE
8
BLACK
6
CONTINUOUS
10
142.621
20
-64.1349
11
142.465
21
-63.9444
0
LINE
8
BLACK
6
CONTINUOUS
10
142.465
20
-63.9444
11
142.349
21
-63.7271
0
LINE
8
BLACK
6
CONTINUOUS
10
142.349
20
-63.7271
11
142.277
21
-63.4912
0
LINE
8
BLACK
6
CONTINUOUS
10
142.277
20
-63.4912
11
142.253
21
-63.246
0
LINE
8
BLACK
6
CONTINUOUS
10
142.253
20
-63.246
11
142.277
21
-63.0008
0
LINE
8
BLACK
6
CONTINUOUS
10
142.277
20
-63.0008
11
142.349
21
-62.7649
0
LINE
8
BLACK
6
CONTINUOUS
10
142.349
20
-62.7649
11
142.465
21
-62.5476
0
LINE
8
BLACK
6
CONTINUOUS
10
142.465
20
-62.5476
11
142.621
21
-62.3571
0
LINE
8
BLACK
6
CONTINUOUS
10
142.621
20
-62.3571
11
142.812
21
-62.2008
0
LINE
8
BLACK
6
CONTINUOUS
10
142.812
20
-62.2008
11
143.029
21
-62.0846
0
LINE
8
BLACK
6
CONTINUOUS
10
143.029
20
-62.0846
11
143.265
21
-62.0131
0
LINE
8
BLACK
6
CONTINUOUS
10
143.265
20
-62.0131
11
143.449
21
-61.995
0
LINE
8
BLACK
6
CONTINUOUS
10
143.449
20
-61.995
11
143.571
21
-61.995
0
LINE
8
BLACK
6
CONTINUOUS
10
143.571
20
-61.995
11
143.755
21
-62.0131
0
LINE
8
BLACK
6
CONTINUOUS
10
136.255
20
-62.0431
11
136.4
21
-62.1031
0
LINE
8
BLACK
6
CONTINUOUS
10
136.4
20
-62.1031
11
136.483
21
-62.1374
0
LINE
8
BLACK
6
CONTINUOUS
10
136.483
20
-62.1374
11
136.687
21
-62.2743
0
LINE
8
BLACK
6
CONTINUOUS
10
136.687
20
-62.2743
11
136.862
21
-62.4485
0
LINE
8
BLACK
6
CONTINUOUS
10
136.862
20
-62.4485
11
136.999
21
-62.6534
0
LINE
8
BLACK
6
CONTINUOUS
10
136.999
20
-62.6534
11
136.999
21
-62.6534
0
LINE
8
BLACK
6
CONTINUOUS
10
136.999
20
-62.6534
11
137.093
21
-62.8811
0
LINE
8
BLACK
6
CONTINUOUS
10
137.093
20
-62.8811
11
137.141
21
-63.1228
0
LINE
8
BLACK
6
CONTINUOUS
10
137.141
20
-63.1228
11
137.141
21
-63.3692
0
LINE
8
BLACK
6
CONTINUOUS
10
137.141
20
-63.3692
11
137.093
21
-63.6109
0
LINE
8
BLACK
6
CONTINUOUS
10
137.093
20
-63.6109
11
137.01
21
-63.8103
0
LINE
8
BLACK
6
CONTINUOUS
10
137.01
20
-63.8103
11
136.999
21
-63.8386
0
LINE
8
BLACK
6
CONTINUOUS
10
136.999
20
-63.8386
11
136.862
21
-64.0435
0
LINE
8
BLACK
6
CONTINUOUS
10
136.862
20
-64.0435
11
136.687
21
-64.2177
0
LINE
8
BLACK
6
CONTINUOUS
10
136.687
20
-64.2177
11
136.483
21
-64.3546
0
LINE
8
BLACK
6
CONTINUOUS
10
136.483
20
-64.3546
11
136.483
21
-64.3546
0
LINE
8
BLACK
6
CONTINUOUS
10
136.483
20
-64.3546
11
136.483
21
-64.3546
0
LINE
8
BLACK
6
CONTINUOUS
10
136.483
20
-64.3546
11
136.255
21
-64.4489
0
LINE
8
BLACK
6
CONTINUOUS
10
136.255
20
-64.4489
11
136.013
21
-64.497
0
LINE
8
BLACK
6
CONTINUOUS
10
136.013
20
-64.497
11
135.767
21
-64.497
0
LINE
8
BLACK
6
CONTINUOUS
10
135.767
20
-64.497
11
135.525
21
-64.4489
0
LINE
8
BLACK
6
CONTINUOUS
10
135.525
20
-64.4489
11
135.297
21
-64.3546
0
LINE
8
BLACK
6
CONTINUOUS
10
135.297
20
-64.3546
11
135.297
21
-64.3546
0
LINE
8
BLACK
6
CONTINUOUS
10
135.297
20
-64.3546
11
135.297
21
-64.3546
0
LINE
8
BLACK
6
CONTINUOUS
10
135.297
20
-64.3546
11
135.093
21
-64.2177
0
LINE
8
BLACK
6
CONTINUOUS
10
135.093
20
-64.2177
11
134.918
21
-64.0435
0
LINE
8
BLACK
6
CONTINUOUS
10
134.918
20
-64.0435
11
134.781
21
-63.8386
0
LINE
8
BLACK
6
CONTINUOUS
10
134.781
20
-63.8386
11
134.77
21
-63.8103
0
LINE
8
BLACK
6
CONTINUOUS
10
134.77
20
-63.8103
11
134.687
21
-63.6109
0
LINE
8
BLACK
6
CONTINUOUS
10
134.687
20
-63.6109
11
134.639
21
-63.3692
0
LINE
8
BLACK
6
CONTINUOUS
10
134.639
20
-63.3692
11
134.639
21
-63.1228
0
LINE
8
BLACK
6
CONTINUOUS
10
134.639
20
-63.1228
11
134.687
21
-62.8811
0
LINE
8
BLACK
6
CONTINUOUS
10
134.687
20
-62.8811
11
134.781
21
-62.6534
0
LINE
8
BLACK
6
CONTINUOUS
10
134.781
20
-62.6534
11
134.781
21
-62.6534
0
LINE
8
BLACK
6
CONTINUOUS
10
134.781
20
-62.6534
11
134.918
21
-62.4485
0
LINE
8
BLACK
6
CONTINUOUS
10
134.918
20
-62.4485
11
135.093
21
-62.2743
0
LINE
8
BLACK
6
CONTINUOUS
10
135.093
20
-62.2743
11
135.297
21
-62.1374
0
LINE
8
BLACK
6
CONTINUOUS
10
135.297
20
-62.1374
11
135.38
21
-62.1031
0
LINE
8
BLACK
6
CONTINUOUS
10
135.38
20
-62.1031
11
135.525
21
-62.0431
0
LINE
8
BLACK
6
CONTINUOUS
10
135.525
20
-62.0431
11
135.767
21
-61.995
0
LINE
8
BLACK
6
CONTINUOUS
10
135.767
20
-61.995
11
136.013
21
-61.995
0
LINE
8
BLACK
6
CONTINUOUS
10
136.013
20
-61.995
11
136.255
21
-62.0431
0
LINE
8
BLACK
6
CONTINUOUS
10
117.339
20
-61.7591
11
117.575
21
-61.8306
0
LINE
8
BLACK
6
CONTINUOUS
10
117.575
20
-61.8306
11
117.792
21
-61.9468
0
LINE
8
BLACK
6
CONTINUOUS
10
117.792
20
-61.9468
11
117.983
21
-62.1031
0
LINE
8
BLACK
6
CONTINUOUS
10
117.983
20
-62.1031
11
118.139
21
-62.2936
0
LINE
8
BLACK
6
CONTINUOUS
10
118.139
20
-62.2936
11
118.255
21
-62.5109
0
LINE
8
BLACK
6
CONTINUOUS
10
118.255
20
-62.5109
11
118.327
21
-62.7468
0
LINE
8
BLACK
6
CONTINUOUS
10
118.327
20
-62.7468
11
118.351
21
-62.992
0
LINE
8
BLACK
6
CONTINUOUS
10
118.351
20
-62.992
11
118.327
21
-63.2372
0
LINE
8
BLACK
6
CONTINUOUS
10
118.327
20
-63.2372
11
118.255
21
-63.4731
0
LINE
8
BLACK
6
CONTINUOUS
10
118.255
20
-63.4731
11
118.139
21
-63.6904
0
LINE
8
BLACK
6
CONTINUOUS
10
118.139
20
-63.6904
11
117.983
21
-63.8809
0
LINE
8
BLACK
6
CONTINUOUS
10
117.983
20
-63.8809
11
117.792
21
-64.0372
0
LINE
8
BLACK
6
CONTINUOUS
10
117.792
20
-64.0372
11
117.575
21
-64.1534
0
LINE
8
BLACK
6
CONTINUOUS
10
117.575
20
-64.1534
11
117.339
21
-64.2249
0
LINE
8
BLACK
6
CONTINUOUS
10
117.339
20
-64.2249
11
117.155
21
-64.243
0
LINE
8
BLACK
6
CONTINUOUS
10
117.155
20
-64.243
11
117.033
21
-64.243
0
LINE
8
BLACK
6
CONTINUOUS
10
117.033
20
-64.243
11
116.849
21
-64.2249
0
LINE
8
BLACK
6
CONTINUOUS
10
116.849
20
-64.2249
11
116.613
21
-64.1534
0
LINE
8
BLACK
6
CONTINUOUS
10
116.613
20
-64.1534
11
116.396
21
-64.0372
0
LINE
8
BLACK
6
CONTINUOUS
10
116.396
20
-64.0372
11
116.205
21
-63.8809
0
LINE
8
BLACK
6
CONTINUOUS
10
116.205
20
-63.8809
11
116.049
21
-63.6904
0
LINE
8
BLACK
6
CONTINUOUS
10
116.049
20
-63.6904
11
115.933
21
-63.4731
0
LINE
8
BLACK
6
CONTINUOUS
10
115.933
20
-63.4731
11
115.861
21
-63.2372
0
LINE
8
BLACK
6
CONTINUOUS
10
115.861
20
-63.2372
11
115.837
21
-62.992
0
LINE
8
BLACK
6
CONTINUOUS
10
115.837
20
-62.992
11
115.861
21
-62.7468
0
LINE
8
BLACK
6
CONTINUOUS
10
115.861
20
-62.7468
11
115.933
21
-62.5109
0
LINE
8
BLACK
6
CONTINUOUS
10
115.933
20
-62.5109
11
116.049
21
-62.2936
0
LINE
8
BLACK
6
CONTINUOUS
10
116.049
20
-62.2936
11
116.205
21
-62.1031
0
LINE
8
BLACK
6
CONTINUOUS
10
116.205
20
-62.1031
11
116.396
21
-61.9468
0
LINE
8
BLACK
6
CONTINUOUS
10
116.396
20
-61.9468
11
116.613
21
-61.8306
0
LINE
8
BLACK
6
CONTINUOUS
10
116.613
20
-61.8306
11
116.849
21
-61.7591
0
LINE
8
BLACK
6
CONTINUOUS
10
116.849
20
-61.7591
11
117.033
21
-61.741
0
LINE
8
BLACK
6
CONTINUOUS
10
117.033
20
-61.741
11
117.155
21
-61.741
0
LINE
8
BLACK
6
CONTINUOUS
10
117.155
20
-61.741
11
117.339
21
-61.7591
0
LINE
8
BLACK
6
CONTINUOUS
10
108.185
20
-64.243
11
105.683
21
-64.243
0
LINE
8
BLACK
6
CONTINUOUS
10
105.683
20
-64.243
11
105.683
21
-61.741
0
LINE
8
BLACK
6
CONTINUOUS
10
105.683
20
-61.741
11
108.185
21
-61.741
0
LINE
8
BLACK
6
CONTINUOUS
10
108.185
20
-61.741
11
108.185
21
-64.243
0
LINE
8
BLACK
6
CONTINUOUS
10
153.329
20
-62.1533
11
153.489
21
-62.202
0
LINE
8
BLACK
6
CONTINUOUS
10
153.489
20
-62.202
11
153.556
21
-62.2379
0
LINE
8
BLACK
6
CONTINUOUS
10
153.556
20
-62.2379
11
153.637
21
-62.281
0
LINE
8
BLACK
6
CONTINUOUS
10
153.637
20
-62.281
11
153.767
21
-62.3873
0
LINE
8
BLACK
6
CONTINUOUS
10
153.767
20
-62.3873
11
153.873
21
-62.5169
0
LINE
8
BLACK
6
CONTINUOUS
10
153.873
20
-62.5169
11
153.873
21
-62.5169
0
LINE
8
BLACK
6
CONTINUOUS
10
153.873
20
-62.5169
11
153.952
21
-62.6648
0
LINE
8
BLACK
6
CONTINUOUS
10
153.952
20
-62.6648
11
154.001
21
-62.8252
0
LINE
8
BLACK
6
CONTINUOUS
10
154.001
20
-62.8252
11
154.017
21
-62.992
0
LINE
8
BLACK
6
CONTINUOUS
10
154.017
20
-62.992
11
154.001
21
-63.1588
0
LINE
8
BLACK
6
CONTINUOUS
10
154.001
20
-63.1588
11
153.952
21
-63.3192
0
LINE
8
BLACK
6
CONTINUOUS
10
153.952
20
-63.3192
11
153.911
21
-63.3951
0
LINE
8
BLACK
6
CONTINUOUS
10
153.911
20
-63.3951
11
153.873
21
-63.4671
0
LINE
8
BLACK
6
CONTINUOUS
10
153.873
20
-63.4671
11
153.767
21
-63.5967
0
LINE
8
BLACK
6
CONTINUOUS
10
153.767
20
-63.5967
11
153.637
21
-63.703
0
LINE
8
BLACK
6
CONTINUOUS
10
153.637
20
-63.703
11
153.637
21
-63.703
0
LINE
8
BLACK
6
CONTINUOUS
10
153.637
20
-63.703
11
153.489
21
-63.782
0
LINE
8
BLACK
6
CONTINUOUS
10
153.489
20
-63.782
11
153.329
21
-63.8307
0
LINE
8
BLACK
6
CONTINUOUS
10
153.329
20
-63.8307
11
153.204
21
-63.843
0
LINE
8
BLACK
6
CONTINUOUS
10
153.204
20
-63.843
11
153.12
21
-63.843
0
LINE
8
BLACK
6
CONTINUOUS
10
153.12
20
-63.843
11
152.995
21
-63.8307
0
LINE
8
BLACK
6
CONTINUOUS
10
152.995
20
-63.8307
11
152.835
21
-63.782
0
LINE
8
BLACK
6
CONTINUOUS
10
152.835
20
-63.782
11
152.687
21
-63.703
0
LINE
8
BLACK
6
CONTINUOUS
10
152.687
20
-63.703
11
152.687
21
-63.703
0
LINE
8
BLACK
6
CONTINUOUS
10
152.687
20
-63.703
11
152.557
21
-63.5967
0
LINE
8
BLACK
6
CONTINUOUS
10
152.557
20
-63.5967
11
152.451
21
-63.4671
0
LINE
8
BLACK
6
CONTINUOUS
10
152.451
20
-63.4671
11
152.413
21
-63.3951
0
LINE
8
BLACK
6
CONTINUOUS
10
152.413
20
-63.3951
11
152.372
21
-63.3192
0
LINE
8
BLACK
6
CONTINUOUS
10
152.372
20
-63.3192
11
152.323
21
-63.1588
0
LINE
8
BLACK
6
CONTINUOUS
10
152.323
20
-63.1588
11
152.307
21
-62.992
0
LINE
8
BLACK
6
CONTINUOUS
10
152.307
20
-62.992
11
152.323
21
-62.8252
0
LINE
8
BLACK
6
CONTINUOUS
10
152.323
20
-62.8252
11
152.372
21
-62.6648
0
LINE
8
BLACK
6
CONTINUOUS
10
152.372
20
-62.6648
11
152.451
21
-62.5169
0
LINE
8
BLACK
6
CONTINUOUS
10
152.451
20
-62.5169
11
152.451
21
-62.5169
0
LINE
8
BLACK
6
CONTINUOUS
10
152.451
20
-62.5169
11
152.557
21
-62.3873
0
LINE
8
BLACK
6
CONTINUOUS
10
152.557
20
-62.3873
11
152.687
21
-62.281
0
LINE
8
BLACK
6
CONTINUOUS
10
152.687
20
-62.281
11
152.768
21
-62.2379
0
LINE
8
BLACK
6
CONTINUOUS
10
152.768
20
-62.2379
11
152.835
21
-62.202
0
LINE
8
BLACK
6
CONTINUOUS
10
152.835
20
-62.202
11
152.995
21
-62.1533
0
LINE
8
BLACK
6
CONTINUOUS
10
152.995
20
-62.1533
11
153.12
21
-62.141
0
LINE
8
BLACK
6
CONTINUOUS
10
153.12
20
-62.141
11
153.204
21
-62.141
0
LINE
8
BLACK
6
CONTINUOUS
10
153.204
20
-62.141
11
153.329
21
-62.1533
0
LINE
8
BLACK
6
CONTINUOUS
10
150.87
20
-62.1737
11
151.025
21
-62.2379
0
LINE
8
BLACK
6
CONTINUOUS
10
151.025
20
-62.2379
11
151.164
21
-62.331
0
LINE
8
BLACK
6
CONTINUOUS
10
151.164
20
-62.331
11
151.283
21
-62.4495
0
LINE
8
BLACK
6
CONTINUOUS
10
151.283
20
-62.4495
11
151.376
21
-62.5889
0
LINE
8
BLACK
6
CONTINUOUS
10
151.376
20
-62.5889
11
151.44
21
-62.7438
0
LINE
8
BLACK
6
CONTINUOUS
10
151.44
20
-62.7438
11
151.473
21
-62.9082
0
LINE
8
BLACK
6
CONTINUOUS
10
151.473
20
-62.9082
11
151.473
21
-63.0758
0
LINE
8
BLACK
6
CONTINUOUS
10
151.473
20
-63.0758
11
151.44
21
-63.2402
0
LINE
8
BLACK
6
CONTINUOUS
10
151.44
20
-63.2402
11
151.376
21
-63.3951
0
LINE
8
BLACK
6
CONTINUOUS
10
151.376
20
-63.3951
11
151.283
21
-63.5345
0
LINE
8
BLACK
6
CONTINUOUS
10
151.283
20
-63.5345
11
151.164
21
-63.653
0
LINE
8
BLACK
6
CONTINUOUS
10
151.164
20
-63.653
11
151.025
21
-63.7461
0
LINE
8
BLACK
6
CONTINUOUS
10
151.025
20
-63.7461
11
150.87
21
-63.8103
0
LINE
8
BLACK
6
CONTINUOUS
10
150.87
20
-63.8103
11
150.706
21
-63.843
0
LINE
8
BLACK
6
CONTINUOUS
10
150.706
20
-63.843
11
150.538
21
-63.843
0
LINE
8
BLACK
6
CONTINUOUS
10
150.538
20
-63.843
11
150.374
21
-63.8103
0
LINE
8
BLACK
6
CONTINUOUS
10
150.374
20
-63.8103
11
150.219
21
-63.7461
0
LINE
8
BLACK
6
CONTINUOUS
10
150.219
20
-63.7461
11
150.08
21
-63.653
0
LINE
8
BLACK
6
CONTINUOUS
10
150.08
20
-63.653
11
149.961
21
-63.5345
0
LINE
8
BLACK
6
CONTINUOUS
10
149.961
20
-63.5345
11
149.868
21
-63.3951
0
LINE
8
BLACK
6
CONTINUOUS
10
149.868
20
-63.3951
11
149.804
21
-63.2402
0
LINE
8
BLACK
6
CONTINUOUS
10
149.804
20
-63.2402
11
149.771
21
-63.0758
0
LINE
8
BLACK
6
CONTINUOUS
10
149.771
20
-63.0758
11
149.771
21
-62.9082
0
LINE
8
BLACK
6
CONTINUOUS
10
149.771
20
-62.9082
11
149.804
21
-62.7438
0
LINE
8
BLACK
6
CONTINUOUS
10
149.804
20
-62.7438
11
149.868
21
-62.5889
0
LINE
8
BLACK
6
CONTINUOUS
10
149.868
20
-62.5889
11
149.961
21
-62.4495
0
LINE
8
BLACK
6
CONTINUOUS
10
149.961
20
-62.4495
11
150.08
21
-62.331
0
LINE
8
BLACK
6
CONTINUOUS
10
150.08
20
-62.331
11
150.219
21
-62.2379
0
LINE
8
BLACK
6
CONTINUOUS
10
150.219
20
-62.2379
11
150.374
21
-62.1737
0
LINE
8
BLACK
6
CONTINUOUS
10
150.374
20
-62.1737
11
150.538
21
-62.141
0
LINE
8
BLACK
6
CONTINUOUS
10
150.538
20
-62.141
11
150.706
21
-62.141
0
LINE
8
BLACK
6
CONTINUOUS
10
150.706
20
-62.141
11
150.87
21
-62.1737
0
LINE
8
BLACK
6
CONTINUOUS
10
128.229
20
-61.189
11
128.359
21
-61.2283
0
LINE
8
BLACK
6
CONTINUOUS
10
128.359
20
-61.2283
11
128.408
21
-61.2547
0
LINE
8
BLACK
6
CONTINUOUS
10
128.408
20
-61.2547
11
128.478
21
-61.2923
0
LINE
8
BLACK
6
CONTINUOUS
10
128.478
20
-61.2923
11
128.583
21
-61.3783
0
LINE
8
BLACK
6
CONTINUOUS
10
128.583
20
-61.3783
11
128.669
21
-61.4831
0
LINE
8
BLACK
6
CONTINUOUS
10
128.669
20
-61.4831
11
128.707
21
-61.5534
0
LINE
8
BLACK
6
CONTINUOUS
10
128.707
20
-61.5534
11
128.733
21
-61.6027
0
LINE
8
BLACK
6
CONTINUOUS
10
128.733
20
-61.6027
11
128.773
21
-61.7325
0
LINE
8
BLACK
6
CONTINUOUS
10
128.773
20
-61.7325
11
128.782
21
-61.8337
0
LINE
8
BLACK
6
CONTINUOUS
10
128.782
20
-61.8337
11
128.782
21
-62.6263
0
LINE
8
BLACK
6
CONTINUOUS
10
128.782
20
-62.6263
11
128.773
21
-62.7275
0
LINE
8
BLACK
6
CONTINUOUS
10
128.773
20
-62.7275
11
128.733
21
-62.8573
0
LINE
8
BLACK
6
CONTINUOUS
10
128.733
20
-62.8573
11
128.733
21
-62.8573
0
LINE
8
BLACK
6
CONTINUOUS
10
128.733
20
-62.8573
11
128.669
21
-62.9769
0
LINE
8
BLACK
6
CONTINUOUS
10
128.669
20
-62.9769
11
128.583
21
-63.0817
0
LINE
8
BLACK
6
CONTINUOUS
10
128.583
20
-63.0817
11
128.478
21
-63.1677
0
LINE
8
BLACK
6
CONTINUOUS
10
128.478
20
-63.1677
11
128.408
21
-63.2053
0
LINE
8
BLACK
6
CONTINUOUS
10
128.408
20
-63.2053
11
128.359
21
-63.2317
0
LINE
8
BLACK
6
CONTINUOUS
10
128.359
20
-63.2317
11
128.229
21
-63.271
0
LINE
8
BLACK
6
CONTINUOUS
10
128.229
20
-63.271
11
128.094
21
-63.2843
0
LINE
8
BLACK
6
CONTINUOUS
10
128.094
20
-63.2843
11
127.959
21
-63.271
0
LINE
8
BLACK
6
CONTINUOUS
10
127.959
20
-63.271
11
127.829
21
-63.2317
0
LINE
8
BLACK
6
CONTINUOUS
10
127.829
20
-63.2317
11
127.78
21
-63.2053
0
LINE
8
BLACK
6
CONTINUOUS
10
127.78
20
-63.2053
11
127.71
21
-63.1677
0
LINE
8
BLACK
6
CONTINUOUS
10
127.71
20
-63.1677
11
127.605
21
-63.0817
0
LINE
8
BLACK
6
CONTINUOUS
10
127.605
20
-63.0817
11
127.519
21
-62.9769
0
LINE
8
BLACK
6
CONTINUOUS
10
127.519
20
-62.9769
11
127.455
21
-62.8573
0
LINE
8
BLACK
6
CONTINUOUS
10
127.455
20
-62.8573
11
127.415
21
-62.7275
0
LINE
8
BLACK
6
CONTINUOUS
10
127.415
20
-62.7275
11
127.405
21
-62.6263
0
LINE
8
BLACK
6
CONTINUOUS
10
127.405
20
-62.6263
11
127.405
21
-61.8337
0
LINE
8
BLACK
6
CONTINUOUS
10
127.405
20
-61.8337
11
127.415
21
-61.7325
0
LINE
8
BLACK
6
CONTINUOUS
10
127.415
20
-61.7325
11
127.415
21
-61.7325
0
LINE
8
BLACK
6
CONTINUOUS
10
127.415
20
-61.7325
11
127.455
21
-61.6027
0
LINE
8
BLACK
6
CONTINUOUS
10
127.455
20
-61.6027
11
127.519
21
-61.4831
0
LINE
8
BLACK
6
CONTINUOUS
10
127.519
20
-61.4831
11
127.519
21
-61.4831
0
LINE
8
BLACK
6
CONTINUOUS
10
127.519
20
-61.4831
11
127.605
21
-61.3783
0
LINE
8
BLACK
6
CONTINUOUS
10
127.605
20
-61.3783
11
127.71
21
-61.2923
0
LINE
8
BLACK
6
CONTINUOUS
10
127.71
20
-61.2923
11
127.78
21
-61.2547
0
LINE
8
BLACK
6
CONTINUOUS
10
127.78
20
-61.2547
11
127.829
21
-61.2283
0
LINE
8
BLACK
6
CONTINUOUS
10
127.829
20
-61.2283
11
127.959
21
-61.189
0
LINE
8
BLACK
6
CONTINUOUS
10
127.959
20
-61.189
11
128.094
21
-61.1757
0
LINE
8
BLACK
6
CONTINUOUS
10
128.094
20
-61.1757
11
128.229
21
-61.189
0
LINE
8
BLACK
6
CONTINUOUS
10
129.929
20
-61.189
11
130.059
21
-61.2283
0
LINE
8
BLACK
6
CONTINUOUS
10
130.059
20
-61.2283
11
130.108
21
-61.2547
0
LINE
8
BLACK
6
CONTINUOUS
10
130.108
20
-61.2547
11
130.178
21
-61.2923
0
LINE
8
BLACK
6
CONTINUOUS
10
130.178
20
-61.2923
11
130.283
21
-61.3783
0
LINE
8
BLACK
6
CONTINUOUS
10
130.283
20
-61.3783
11
130.369
21
-61.4831
0
LINE
8
BLACK
6
CONTINUOUS
10
130.369
20
-61.4831
11
130.407
21
-61.5534
0
LINE
8
BLACK
6
CONTINUOUS
10
130.407
20
-61.5534
11
130.433
21
-61.6027
0
LINE
8
BLACK
6
CONTINUOUS
10
130.433
20
-61.6027
11
130.473
21
-61.7325
0
LINE
8
BLACK
6
CONTINUOUS
10
130.473
20
-61.7325
11
130.482
21
-61.8337
0
LINE
8
BLACK
6
CONTINUOUS
10
130.482
20
-61.8337
11
130.482
21
-62.6263
0
LINE
8
BLACK
6
CONTINUOUS
10
130.482
20
-62.6263
11
130.473
21
-62.7275
0
LINE
8
BLACK
6
CONTINUOUS
10
130.473
20
-62.7275
11
130.433
21
-62.8573
0
LINE
8
BLACK
6
CONTINUOUS
10
130.433
20
-62.8573
11
130.433
21
-62.8573
0
LINE
8
BLACK
6
CONTINUOUS
10
130.433
20
-62.8573
11
130.369
21
-62.9769
0
LINE
8
BLACK
6
CONTINUOUS
10
130.369
20
-62.9769
11
130.283
21
-63.0817
0
LINE
8
BLACK
6
CONTINUOUS
10
130.283
20
-63.0817
11
130.178
21
-63.1677
0
LINE
8
BLACK
6
CONTINUOUS
10
130.178
20
-63.1677
11
130.108
21
-63.2053
0
LINE
8
BLACK
6
CONTINUOUS
10
130.108
20
-63.2053
11
130.059
21
-63.2317
0
LINE
8
BLACK
6
CONTINUOUS
10
130.059
20
-63.2317
11
129.929
21
-63.271
0
LINE
8
BLACK
6
CONTINUOUS
10
129.929
20
-63.271
11
129.794
21
-63.2843
0
LINE
8
BLACK
6
CONTINUOUS
10
129.794
20
-63.2843
11
129.659
21
-63.271
0
LINE
8
BLACK
6
CONTINUOUS
10
129.659
20
-63.271
11
129.529
21
-63.2317
0
LINE
8
BLACK
6
CONTINUOUS
10
129.529
20
-63.2317
11
129.48
21
-63.2053
0
LINE
8
BLACK
6
CONTINUOUS
10
129.48
20
-63.2053
11
129.41
21
-63.1677
0
LINE
8
BLACK
6
CONTINUOUS
10
129.41
20
-63.1677
11
129.305
21
-63.0817
0
LINE
8
BLACK
6
CONTINUOUS
10
129.305
20
-63.0817
11
129.219
21
-62.9769
0
LINE
8
BLACK
6
CONTINUOUS
10
129.219
20
-62.9769
11
129.155
21
-62.8573
0
LINE
8
BLACK
6
CONTINUOUS
10
129.155
20
-62.8573
11
129.115
21
-62.7275
0
LINE
8
BLACK
6
CONTINUOUS
10
129.115
20
-62.7275
11
129.106
21
-62.6263
0
LINE
8
BLACK
6
CONTINUOUS
10
129.106
20
-62.6263
11
129.106
21
-61.8337
0
LINE
8
BLACK
6
CONTINUOUS
10
129.106
20
-61.8337
11
129.115
21
-61.7325
0
LINE
8
BLACK
6
CONTINUOUS
10
129.115
20
-61.7325
11
129.115
21
-61.7325
0
LINE
8
BLACK
6
CONTINUOUS
10
129.115
20
-61.7325
11
129.155
21
-61.6027
0
LINE
8
BLACK
6
CONTINUOUS
10
129.155
20
-61.6027
11
129.219
21
-61.4831
0
LINE
8
BLACK
6
CONTINUOUS
10
129.219
20
-61.4831
11
129.219
21
-61.4831
0
LINE
8
BLACK
6
CONTINUOUS
10
129.219
20
-61.4831
11
129.305
21
-61.3783
0
LINE
8
BLACK
6
CONTINUOUS
10
129.305
20
-61.3783
11
129.41
21
-61.2923
0
LINE
8
BLACK
6
CONTINUOUS
10
129.41
20
-61.2923
11
129.48
21
-61.2547
0
LINE
8
BLACK
6
CONTINUOUS
10
129.48
20
-61.2547
11
129.529
21
-61.2283
0
LINE
8
BLACK
6
CONTINUOUS
10
129.529
20
-61.2283
11
129.659
21
-61.189
0
LINE
8
BLACK
6
CONTINUOUS
10
129.659
20
-61.189
11
129.794
21
-61.1757
0
LINE
8
BLACK
6
CONTINUOUS
10
129.794
20
-61.1757
11
129.929
21
-61.189
0
LINE
8
BLACK
6
CONTINUOUS
10
126.529
20
-61.189
11
126.659
21
-61.2283
0
LINE
8
BLACK
6
CONTINUOUS
10
126.659
20
-61.2283
11
126.708
21
-61.2547
0
LINE
8
BLACK
6
CONTINUOUS
10
126.708
20
-61.2547
11
126.778
21
-61.2923
0
LINE
8
BLACK
6
CONTINUOUS
10
126.778
20
-61.2923
11
126.883
21
-61.3783
0
LINE
8
BLACK
6
CONTINUOUS
10
126.883
20
-61.3783
11
126.969
21
-61.4831
0
LINE
8
BLACK
6
CONTINUOUS
10
126.969
20
-61.4831
11
127.007
21
-61.5534
0
LINE
8
BLACK
6
CONTINUOUS
10
127.007
20
-61.5534
11
127.033
21
-61.6027
0
LINE
8
BLACK
6
CONTINUOUS
10
127.033
20
-61.6027
11
127.073
21
-61.7325
0
LINE
8
BLACK
6
CONTINUOUS
10
127.073
20
-61.7325
11
127.082
21
-61.8337
0
LINE
8
BLACK
6
CONTINUOUS
10
127.082
20
-61.8337
11
127.082
21
-62.6263
0
LINE
8
BLACK
6
CONTINUOUS
10
127.082
20
-62.6263
11
127.073
21
-62.7275
0
LINE
8
BLACK
6
CONTINUOUS
10
127.073
20
-62.7275
11
127.033
21
-62.8573
0
LINE
8
BLACK
6
CONTINUOUS
10
127.033
20
-62.8573
11
127.033
21
-62.8573
0
LINE
8
BLACK
6
CONTINUOUS
10
127.033
20
-62.8573
11
126.969
21
-62.9769
0
LINE
8
BLACK
6
CONTINUOUS
10
126.969
20
-62.9769
11
126.883
21
-63.0817
0
LINE
8
BLACK
6
CONTINUOUS
10
126.883
20
-63.0817
11
126.778
21
-63.1677
0
LINE
8
BLACK
6
CONTINUOUS
10
126.778
20
-63.1677
11
126.708
21
-63.2053
0
LINE
8
BLACK
6
CONTINUOUS
10
126.708
20
-63.2053
11
126.659
21
-63.2317
0
LINE
8
BLACK
6
CONTINUOUS
10
126.659
20
-63.2317
11
126.529
21
-63.271
0
LINE
8
BLACK
6
CONTINUOUS
10
126.529
20
-63.271
11
126.394
21
-63.2843
0
LINE
8
BLACK
6
CONTINUOUS
10
126.394
20
-63.2843
11
126.259
21
-63.271
0
LINE
8
BLACK
6
CONTINUOUS
10
126.259
20
-63.271
11
126.129
21
-63.2317
0
LINE
8
BLACK
6
CONTINUOUS
10
126.129
20
-63.2317
11
126.08
21
-63.2053
0
LINE
8
BLACK
6
CONTINUOUS
10
126.08
20
-63.2053
11
126.01
21
-63.1677
0
LINE
8
BLACK
6
CONTINUOUS
10
126.01
20
-63.1677
11
125.905
21
-63.0817
0
LINE
8
BLACK
6
CONTINUOUS
10
125.905
20
-63.0817
11
125.819
21
-62.9769
0
LINE
8
BLACK
6
CONTINUOUS
10
125.819
20
-62.9769
11
125.755
21
-62.8573
0
LINE
8
BLACK
6
CONTINUOUS
10
125.755
20
-62.8573
11
125.715
21
-62.7275
0
LINE
8
BLACK
6
CONTINUOUS
10
125.715
20
-62.7275
11
125.706
21
-62.6263
0
LINE
8
BLACK
6
CONTINUOUS
10
125.706
20
-62.6263
11
125.706
21
-61.8337
0
LINE
8
BLACK
6
CONTINUOUS
10
125.706
20
-61.8337
11
125.715
21
-61.7325
0
LINE
8
BLACK
6
CONTINUOUS
10
125.715
20
-61.7325
11
125.715
21
-61.7325
0
LINE
8
BLACK
6
CONTINUOUS
10
125.715
20
-61.7325
11
125.755
21
-61.6027
0
LINE
8
BLACK
6
CONTINUOUS
10
125.755
20
-61.6027
11
125.819
21
-61.4831
0
LINE
8
BLACK
6
CONTINUOUS
10
125.819
20
-61.4831
11
125.819
21
-61.4831
0
LINE
8
BLACK
6
CONTINUOUS
10
125.819
20
-61.4831
11
125.905
21
-61.3783
0
LINE
8
BLACK
6
CONTINUOUS
10
125.905
20
-61.3783
11
126.01
21
-61.2923
0
LINE
8
BLACK
6
CONTINUOUS
10
126.01
20
-61.2923
11
126.08
21
-61.2547
0
LINE
8
BLACK
6
CONTINUOUS
10
126.08
20
-61.2547
11
126.129
21
-61.2283
0
LINE
8
BLACK
6
CONTINUOUS
10
126.129
20
-61.2283
11
126.259
21
-61.189
0
LINE
8
BLACK
6
CONTINUOUS
10
126.259
20
-61.189
11
126.394
21
-61.1757
0
LINE
8
BLACK
6
CONTINUOUS
10
126.394
20
-61.1757
11
126.529
21
-61.189
0
LINE
8
BLACK
6
CONTINUOUS
10
124.829
20
-61.189
11
124.959
21
-61.2283
0
LINE
8
BLACK
6
CONTINUOUS
10
124.959
20
-61.2283
11
125.008
21
-61.2547
0
LINE
8
BLACK
6
CONTINUOUS
10
125.008
20
-61.2547
11
125.078
21
-61.2923
0
LINE
8
BLACK
6
CONTINUOUS
10
125.078
20
-61.2923
11
125.183
21
-61.3783
0
LINE
8
BLACK
6
CONTINUOUS
10
125.183
20
-61.3783
11
125.269
21
-61.4831
0
LINE
8
BLACK
6
CONTINUOUS
10
125.269
20
-61.4831
11
125.307
21
-61.5534
0
LINE
8
BLACK
6
CONTINUOUS
10
125.307
20
-61.5534
11
125.333
21
-61.6027
0
LINE
8
BLACK
6
CONTINUOUS
10
125.333
20
-61.6027
11
125.373
21
-61.7325
0
LINE
8
BLACK
6
CONTINUOUS
10
125.373
20
-61.7325
11
125.382
21
-61.8337
0
LINE
8
BLACK
6
CONTINUOUS
10
125.382
20
-61.8337
11
125.382
21
-62.6263
0
LINE
8
BLACK
6
CONTINUOUS
10
125.382
20
-62.6263
11
125.373
21
-62.7275
0
LINE
8
BLACK
6
CONTINUOUS
10
125.373
20
-62.7275
11
125.333
21
-62.8573
0
LINE
8
BLACK
6
CONTINUOUS
10
125.333
20
-62.8573
11
125.333
21
-62.8573
0
LINE
8
BLACK
6
CONTINUOUS
10
125.333
20
-62.8573
11
125.269
21
-62.9769
0
LINE
8
BLACK
6
CONTINUOUS
10
125.269
20
-62.9769
11
125.183
21
-63.0817
0
LINE
8
BLACK
6
CONTINUOUS
10
125.183
20
-63.0817
11
125.078
21
-63.1677
0
LINE
8
BLACK
6
CONTINUOUS
10
125.078
20
-63.1677
11
125.008
21
-63.2053
0
LINE
8
BLACK
6
CONTINUOUS
10
125.008
20
-63.2053
11
124.959
21
-63.2317
0
LINE
8
BLACK
6
CONTINUOUS
10
124.959
20
-63.2317
11
124.829
21
-63.271
0
LINE
8
BLACK
6
CONTINUOUS
10
124.829
20
-63.271
11
124.694
21
-63.2843
0
LINE
8
BLACK
6
CONTINUOUS
10
124.694
20
-63.2843
11
124.559
21
-63.271
0
LINE
8
BLACK
6
CONTINUOUS
10
124.559
20
-63.271
11
124.429
21
-63.2317
0
LINE
8
BLACK
6
CONTINUOUS
10
124.429
20
-63.2317
11
124.38
21
-63.2053
0
LINE
8
BLACK
6
CONTINUOUS
10
124.38
20
-63.2053
11
124.31
21
-63.1677
0
LINE
8
BLACK
6
CONTINUOUS
10
124.31
20
-63.1677
11
124.205
21
-63.0817
0
LINE
8
BLACK
6
CONTINUOUS
10
124.205
20
-63.0817
11
124.119
21
-62.9769
0
LINE
8
BLACK
6
CONTINUOUS
10
124.119
20
-62.9769
11
124.055
21
-62.8573
0
LINE
8
BLACK
6
CONTINUOUS
10
124.055
20
-62.8573
11
124.015
21
-62.7275
0
LINE
8
BLACK
6
CONTINUOUS
10
124.015
20
-62.7275
11
124.005
21
-62.6263
0
LINE
8
BLACK
6
CONTINUOUS
10
124.005
20
-62.6263
11
124.005
21
-61.8337
0
LINE
8
BLACK
6
CONTINUOUS
10
124.005
20
-61.8337
11
124.015
21
-61.7325
0
LINE
8
BLACK
6
CONTINUOUS
10
124.015
20
-61.7325
11
124.015
21
-61.7325
0
LINE
8
BLACK
6
CONTINUOUS
10
124.015
20
-61.7325
11
124.055
21
-61.6027
0
LINE
8
BLACK
6
CONTINUOUS
10
124.055
20
-61.6027
11
124.119
21
-61.4831
0
LINE
8
BLACK
6
CONTINUOUS
10
124.119
20
-61.4831
11
124.119
21
-61.4831
0
LINE
8
BLACK
6
CONTINUOUS
10
124.119
20
-61.4831
11
124.205
21
-61.3783
0
LINE
8
BLACK
6
CONTINUOUS
10
124.205
20
-61.3783
11
124.31
21
-61.2923
0
LINE
8
BLACK
6
CONTINUOUS
10
124.31
20
-61.2923
11
124.38
21
-61.2547
0
LINE
8
BLACK
6
CONTINUOUS
10
124.38
20
-61.2547
11
124.429
21
-61.2283
0
LINE
8
BLACK
6
CONTINUOUS
10
124.429
20
-61.2283
11
124.559
21
-61.189
0
LINE
8
BLACK
6
CONTINUOUS
10
124.559
20
-61.189
11
124.694
21
-61.1757
0
LINE
8
BLACK
6
CONTINUOUS
10
124.694
20
-61.1757
11
124.829
21
-61.189
0
LINE
8
BLACK
6
CONTINUOUS
10
123.682
20
-63.281
11
122.305
21
-63.281
0
LINE
8
BLACK
6
CONTINUOUS
10
122.305
20
-63.281
11
122.305
21
-61.179
0
LINE
8
BLACK
6
CONTINUOUS
10
122.305
20
-61.179
11
123.682
21
-61.179
0
LINE
8
BLACK
6
CONTINUOUS
10
123.682
20
-61.179
11
123.682
21
-63.281
0
LINE
8
BLACK
6
CONTINUOUS
10
164.836
20
-56.6332
11
165.044
21
-56.6746
0
LINE
8
BLACK
6
CONTINUOUS
10
165.044
20
-56.6746
11
165.327
21
-56.7915
0
LINE
8
BLACK
6
CONTINUOUS
10
165.327
20
-56.7915
11
165.581
21
-56.9613
0
LINE
8
BLACK
6
CONTINUOUS
10
165.581
20
-56.9613
11
165.797
21
-57.1773
0
LINE
8
BLACK
6
CONTINUOUS
10
165.797
20
-57.1773
11
165.966
21
-57.4313
0
LINE
8
BLACK
6
CONTINUOUS
10
165.966
20
-57.4313
11
166.083
21
-57.7136
0
LINE
8
BLACK
6
CONTINUOUS
10
166.083
20
-57.7136
11
166.143
21
-58.0132
0
LINE
8
BLACK
6
CONTINUOUS
10
166.143
20
-58.0132
11
166.143
21
-58.3188
0
LINE
8
BLACK
6
CONTINUOUS
10
166.143
20
-58.3188
11
166.083
21
-58.6184
0
LINE
8
BLACK
6
CONTINUOUS
10
166.083
20
-58.6184
11
165.966
21
-58.9007
0
LINE
8
BLACK
6
CONTINUOUS
10
165.966
20
-58.9007
11
165.797
21
-59.1547
0
LINE
8
BLACK
6
CONTINUOUS
10
165.797
20
-59.1547
11
165.581
21
-59.3707
0
LINE
8
BLACK
6
CONTINUOUS
10
165.581
20
-59.3707
11
165.327
21
-59.5405
0
LINE
8
BLACK
6
CONTINUOUS
10
165.327
20
-59.5405
11
165.044
21
-59.6574
0
LINE
8
BLACK
6
CONTINUOUS
10
165.044
20
-59.6574
11
164.895
21
-59.6872
0
LINE
8
BLACK
6
CONTINUOUS
10
164.895
20
-59.6872
11
164.745
21
-59.717
0
LINE
8
BLACK
6
CONTINUOUS
10
164.745
20
-59.717
11
164.439
21
-59.717
0
LINE
8
BLACK
6
CONTINUOUS
10
164.439
20
-59.717
11
164.289
21
-59.6872
0
LINE
8
BLACK
6
CONTINUOUS
10
164.289
20
-59.6872
11
164.14
21
-59.6574
0
LINE
8
BLACK
6
CONTINUOUS
10
164.14
20
-59.6574
11
163.857
21
-59.5405
0
LINE
8
BLACK
6
CONTINUOUS
10
163.857
20
-59.5405
11
163.603
21
-59.3707
0
LINE
8
BLACK
6
CONTINUOUS
10
163.603
20
-59.3707
11
163.387
21
-59.1547
0
LINE
8
BLACK
6
CONTINUOUS
10
163.387
20
-59.1547
11
163.218
21
-58.9007
0
LINE
8
BLACK
6
CONTINUOUS
10
163.218
20
-58.9007
11
163.101
21
-58.6184
0
LINE
8
BLACK
6
CONTINUOUS
10
163.101
20
-58.6184
11
163.041
21
-58.3188
0
LINE
8
BLACK
6
CONTINUOUS
10
163.041
20
-58.3188
11
163.041
21
-58.0132
0
LINE
8
BLACK
6
CONTINUOUS
10
163.041
20
-58.0132
11
163.101
21
-57.7136
0
LINE
8
BLACK
6
CONTINUOUS
10
163.101
20
-57.7136
11
163.218
21
-57.4313
0
LINE
8
BLACK
6
CONTINUOUS
10
163.218
20
-57.4313
11
163.387
21
-57.1773
0
LINE
8
BLACK
6
CONTINUOUS
10
163.387
20
-57.1773
11
163.603
21
-56.9613
0
LINE
8
BLACK
6
CONTINUOUS
10
163.603
20
-56.9613
11
163.857
21
-56.7915
0
LINE
8
BLACK
6
CONTINUOUS
10
163.857
20
-56.7915
11
164.14
21
-56.6746
0
LINE
8
BLACK
6
CONTINUOUS
10
164.14
20
-56.6746
11
164.348
21
-56.6332
0
LINE
8
BLACK
6
CONTINUOUS
10
164.348
20
-56.6332
11
164.439
21
-56.615
0
LINE
8
BLACK
6
CONTINUOUS
10
164.439
20
-56.615
11
164.745
21
-56.615
0
LINE
8
BLACK
6
CONTINUOUS
10
164.745
20
-56.615
11
164.836
21
-56.6332
0
LINE
8
BLACK
6
CONTINUOUS
10
101.373
20
-59.463
11
98.271
21
-59.463
0
LINE
8
BLACK
6
CONTINUOUS
10
98.271
20
-59.463
11
98.271
21
-56.361
0
LINE
8
BLACK
6
CONTINUOUS
10
98.271
20
-56.361
11
101.373
21
-56.361
0
LINE
8
BLACK
6
CONTINUOUS
10
101.373
20
-56.361
11
101.373
21
-59.463
0
LINE
8
BLACK
6
CONTINUOUS
10
116.577
20
-55.1551
11
116.813
21
-55.2266
0
LINE
8
BLACK
6
CONTINUOUS
10
116.813
20
-55.2266
11
117.03
21
-55.3428
0
LINE
8
BLACK
6
CONTINUOUS
10
117.03
20
-55.3428
11
117.221
21
-55.4991
0
LINE
8
BLACK
6
CONTINUOUS
10
117.221
20
-55.4991
11
117.377
21
-55.6896
0
LINE
8
BLACK
6
CONTINUOUS
10
117.377
20
-55.6896
11
117.493
21
-55.9069
0
LINE
8
BLACK
6
CONTINUOUS
10
117.493
20
-55.9069
11
117.565
21
-56.1428
0
LINE
8
BLACK
6
CONTINUOUS
10
117.565
20
-56.1428
11
117.589
21
-56.388
0
LINE
8
BLACK
6
CONTINUOUS
10
117.589
20
-56.388
11
117.565
21
-56.6332
0
LINE
8
BLACK
6
CONTINUOUS
10
117.565
20
-56.6332
11
117.493
21
-56.8691
0
LINE
8
BLACK
6
CONTINUOUS
10
117.493
20
-56.8691
11
117.377
21
-57.0864
0
LINE
8
BLACK
6
CONTINUOUS
10
117.377
20
-57.0864
11
117.221
21
-57.2769
0
LINE
8
BLACK
6
CONTINUOUS
10
117.221
20
-57.2769
11
117.03
21
-57.4332
0
LINE
8
BLACK
6
CONTINUOUS
10
117.03
20
-57.4332
11
116.813
21
-57.5494
0
LINE
8
BLACK
6
CONTINUOUS
10
116.813
20
-57.5494
11
116.577
21
-57.6209
0
LINE
8
BLACK
6
CONTINUOUS
10
116.577
20
-57.6209
11
116.393
21
-57.639
0
LINE
8
BLACK
6
CONTINUOUS
10
116.393
20
-57.639
11
116.271
21
-57.639
0
LINE
8
BLACK
6
CONTINUOUS
10
116.271
20
-57.639
11
116.087
21
-57.6209
0
LINE
8
BLACK
6
CONTINUOUS
10
116.087
20
-57.6209
11
115.851
21
-57.5494
0
LINE
8
BLACK
6
CONTINUOUS
10
115.851
20
-57.5494
11
115.634
21
-57.4332
0
LINE
8
BLACK
6
CONTINUOUS
10
115.634
20
-57.4332
11
115.443
21
-57.2769
0
LINE
8
BLACK
6
CONTINUOUS
10
115.443
20
-57.2769
11
115.287
21
-57.0864
0
LINE
8
BLACK
6
CONTINUOUS
10
115.287
20
-57.0864
11
115.171
21
-56.8691
0
LINE
8
BLACK
6
CONTINUOUS
10
115.171
20
-56.8691
11
115.099
21
-56.6332
0
LINE
8
BLACK
6
CONTINUOUS
10
115.099
20
-56.6332
11
115.075
21
-56.388
0
LINE
8
BLACK
6
CONTINUOUS
10
115.075
20
-56.388
11
115.099
21
-56.1428
0
LINE
8
BLACK
6
CONTINUOUS
10
115.099
20
-56.1428
11
115.171
21
-55.9069
0
LINE
8
BLACK
6
CONTINUOUS
10
115.171
20
-55.9069
11
115.287
21
-55.6896
0
LINE
8
BLACK
6
CONTINUOUS
10
115.287
20
-55.6896
11
115.443
21
-55.4991
0
LINE
8
BLACK
6
CONTINUOUS
10
115.443
20
-55.4991
11
115.634
21
-55.3428
0
LINE
8
BLACK
6
CONTINUOUS
10
115.634
20
-55.3428
11
115.851
21
-55.2266
0
LINE
8
BLACK
6
CONTINUOUS
10
115.851
20
-55.2266
11
116.087
21
-55.1551
0
LINE
8
BLACK
6
CONTINUOUS
10
116.087
20
-55.1551
11
116.271
21
-55.137
0
LINE
8
BLACK
6
CONTINUOUS
10
116.271
20
-55.137
11
116.393
21
-55.137
0
LINE
8
BLACK
6
CONTINUOUS
10
116.393
20
-55.137
11
116.577
21
-55.1551
0
LINE
8
BLACK
6
CONTINUOUS
10
109.077
20
-55.1851
11
109.177
21
-55.2266
0
LINE
8
BLACK
6
CONTINUOUS
10
109.177
20
-55.2266
11
109.305
21
-55.2794
0
LINE
8
BLACK
6
CONTINUOUS
10
109.305
20
-55.2794
11
109.509
21
-55.4163
0
LINE
8
BLACK
6
CONTINUOUS
10
109.509
20
-55.4163
11
109.684
21
-55.5905
0
LINE
8
BLACK
6
CONTINUOUS
10
109.684
20
-55.5905
11
109.75
21
-55.6896
0
LINE
8
BLACK
6
CONTINUOUS
10
109.75
20
-55.6896
11
109.821
21
-55.7954
0
LINE
8
BLACK
6
CONTINUOUS
10
109.821
20
-55.7954
11
109.915
21
-56.0231
0
LINE
8
BLACK
6
CONTINUOUS
10
109.915
20
-56.0231
11
109.963
21
-56.2648
0
LINE
8
BLACK
6
CONTINUOUS
10
109.963
20
-56.2648
11
109.963
21
-56.5112
0
LINE
8
BLACK
6
CONTINUOUS
10
109.963
20
-56.5112
11
109.915
21
-56.7529
0
LINE
8
BLACK
6
CONTINUOUS
10
109.915
20
-56.7529
11
109.864
21
-56.877
0
LINE
8
BLACK
6
CONTINUOUS
10
109.864
20
-56.877
11
109.821
21
-56.9806
0
LINE
8
BLACK
6
CONTINUOUS
10
109.821
20
-56.9806
11
109.684
21
-57.1855
0
LINE
8
BLACK
6
CONTINUOUS
10
109.684
20
-57.1855
11
109.509
21
-57.3597
0
LINE
8
BLACK
6
CONTINUOUS
10
109.509
20
-57.3597
11
109.305
21
-57.4966
0
LINE
8
BLACK
6
CONTINUOUS
10
109.305
20
-57.4966
11
109.305
21
-57.4966
0
LINE
8
BLACK
6
CONTINUOUS
10
109.305
20
-57.4966
11
109.305
21
-57.4966
0
LINE
8
BLACK
6
CONTINUOUS
10
109.305
20
-57.4966
11
109.077
21
-57.5909
0
LINE
8
BLACK
6
CONTINUOUS
10
109.077
20
-57.5909
11
108.835
21
-57.639
0
LINE
8
BLACK
6
CONTINUOUS
10
108.835
20
-57.639
11
108.589
21
-57.639
0
LINE
8
BLACK
6
CONTINUOUS
10
108.589
20
-57.639
11
108.347
21
-57.5909
0
LINE
8
BLACK
6
CONTINUOUS
10
108.347
20
-57.5909
11
108.119
21
-57.4966
0
LINE
8
BLACK
6
CONTINUOUS
10
108.119
20
-57.4966
11
108.119
21
-57.4966
0
LINE
8
BLACK
6
CONTINUOUS
10
108.119
20
-57.4966
11
108.119
21
-57.4966
0
LINE
8
BLACK
6
CONTINUOUS
10
108.119
20
-57.4966
11
107.915
21
-57.3597
0
LINE
8
BLACK
6
CONTINUOUS
10
107.915
20
-57.3597
11
107.74
21
-57.1855
0
LINE
8
BLACK
6
CONTINUOUS
10
107.74
20
-57.1855
11
107.603
21
-56.9806
0
LINE
8
BLACK
6
CONTINUOUS
10
107.603
20
-56.9806
11
107.56
21
-56.877
0
LINE
8
BLACK
6
CONTINUOUS
10
107.56
20
-56.877
11
107.509
21
-56.7529
0
LINE
8
BLACK
6
CONTINUOUS
10
107.509
20
-56.7529
11
107.461
21
-56.5112
0
LINE
8
BLACK
6
CONTINUOUS
10
107.461
20
-56.5112
11
107.461
21
-56.2648
0
LINE
8
BLACK
6
CONTINUOUS
10
107.461
20
-56.2648
11
107.509
21
-56.0231
0
LINE
8
BLACK
6
CONTINUOUS
10
107.509
20
-56.0231
11
107.603
21
-55.7954
0
LINE
8
BLACK
6
CONTINUOUS
10
107.603
20
-55.7954
11
107.674
21
-55.6896
0
LINE
8
BLACK
6
CONTINUOUS
10
107.674
20
-55.6896
11
107.74
21
-55.5905
0
LINE
8
BLACK
6
CONTINUOUS
10
107.74
20
-55.5905
11
107.915
21
-55.4163
0
LINE
8
BLACK
6
CONTINUOUS
10
107.915
20
-55.4163
11
108.119
21
-55.2794
0
LINE
8
BLACK
6
CONTINUOUS
10
108.119
20
-55.2794
11
108.247
21
-55.2266
0
LINE
8
BLACK
6
CONTINUOUS
10
108.247
20
-55.2266
11
108.347
21
-55.1851
0
LINE
8
BLACK
6
CONTINUOUS
10
108.347
20
-55.1851
11
108.589
21
-55.137
0
LINE
8
BLACK
6
CONTINUOUS
10
108.589
20
-55.137
11
108.835
21
-55.137
0
LINE
8
BLACK
6
CONTINUOUS
10
108.835
20
-55.137
11
109.077
21
-55.1851
0
LINE
8
BLACK
6
CONTINUOUS
10
135.617
20
-56.877
11
133.115
21
-56.877
0
LINE
8
BLACK
6
CONTINUOUS
10
133.115
20
-56.877
11
133.115
21
-54.375
0
LINE
8
BLACK
6
CONTINUOUS
10
133.115
20
-54.375
11
135.617
21
-54.375
0
LINE
8
BLACK
6
CONTINUOUS
10
135.617
20
-54.375
11
135.617
21
-56.877
0
LINE
8
BLACK
6
CONTINUOUS
10
144.771
20
-54.3931
11
145.007
21
-54.4646
0
LINE
8
BLACK
6
CONTINUOUS
10
145.007
20
-54.4646
11
145.224
21
-54.5808
0
LINE
8
BLACK
6
CONTINUOUS
10
145.224
20
-54.5808
11
145.415
21
-54.7371
0
LINE
8
BLACK
6
CONTINUOUS
10
145.415
20
-54.7371
11
145.571
21
-54.9276
0
LINE
8
BLACK
6
CONTINUOUS
10
145.571
20
-54.9276
11
145.687
21
-55.1449
0
LINE
8
BLACK
6
CONTINUOUS
10
145.687
20
-55.1449
11
145.759
21
-55.3808
0
LINE
8
BLACK
6
CONTINUOUS
10
145.759
20
-55.3808
11
145.783
21
-55.626
0
LINE
8
BLACK
6
CONTINUOUS
10
145.783
20
-55.626
11
145.759
21
-55.8712
0
LINE
8
BLACK
6
CONTINUOUS
10
145.759
20
-55.8712
11
145.687
21
-56.1071
0
LINE
8
BLACK
6
CONTINUOUS
10
145.687
20
-56.1071
11
145.571
21
-56.3244
0
LINE
8
BLACK
6
CONTINUOUS
10
145.571
20
-56.3244
11
145.415
21
-56.5149
0
LINE
8
BLACK
6
CONTINUOUS
10
145.415
20
-56.5149
11
145.224
21
-56.6712
0
LINE
8
BLACK
6
CONTINUOUS
10
145.224
20
-56.6712
11
145.007
21
-56.7874
0
LINE
8
BLACK
6
CONTINUOUS
10
145.007
20
-56.7874
11
144.771
21
-56.8589
0
LINE
8
BLACK
6
CONTINUOUS
10
144.771
20
-56.8589
11
144.587
21
-56.877
0
LINE
8
BLACK
6
CONTINUOUS
10
144.587
20
-56.877
11
144.465
21
-56.877
0
LINE
8
BLACK
6
CONTINUOUS
10
144.465
20
-56.877
11
144.281
21
-56.8589
0
LINE
8
BLACK
6
CONTINUOUS
10
144.281
20
-56.8589
11
144.045
21
-56.7874
0
LINE
8
BLACK
6
CONTINUOUS
10
144.045
20
-56.7874
11
143.828
21
-56.6712
0
LINE
8
BLACK
6
CONTINUOUS
10
143.828
20
-56.6712
11
143.637
21
-56.5149
0
LINE
8
BLACK
6
CONTINUOUS
10
143.637
20
-56.5149
11
143.481
21
-56.3244
0
LINE
8
BLACK
6
CONTINUOUS
10
143.481
20
-56.3244
11
143.365
21
-56.1071
0
LINE
8
BLACK
6
CONTINUOUS
10
143.365
20
-56.1071
11
143.293
21
-55.8712
0
LINE
8
BLACK
6
CONTINUOUS
10
143.293
20
-55.8712
11
143.269
21
-55.626
0
LINE
8
BLACK
6
CONTINUOUS
10
143.269
20
-55.626
11
143.293
21
-55.3808
0
LINE
8
BLACK
6
CONTINUOUS
10
143.293
20
-55.3808
11
143.365
21
-55.1449
0
LINE
8
BLACK
6
CONTINUOUS
10
143.365
20
-55.1449
11
143.481
21
-54.9276
0
LINE
8
BLACK
6
CONTINUOUS
10
143.481
20
-54.9276
11
143.637
21
-54.7371
0
LINE
8
BLACK
6
CONTINUOUS
10
143.637
20
-54.7371
11
143.828
21
-54.5808
0
LINE
8
BLACK
6
CONTINUOUS
10
143.828
20
-54.5808
11
144.045
21
-54.4646
0
LINE
8
BLACK
6
CONTINUOUS
10
144.045
20
-54.4646
11
144.281
21
-54.3931
0
LINE
8
BLACK
6
CONTINUOUS
10
144.281
20
-54.3931
11
144.465
21
-54.375
0
LINE
8
BLACK
6
CONTINUOUS
10
144.465
20
-54.375
11
144.587
21
-54.375
0
LINE
8
BLACK
6
CONTINUOUS
10
144.587
20
-54.375
11
144.771
21
-54.3931
0
LINE
8
BLACK
6
CONTINUOUS
10
153.759
20
-56.477
11
152.057
21
-56.477
0
LINE
8
BLACK
6
CONTINUOUS
10
152.057
20
-56.477
11
152.057
21
-54.775
0
LINE
8
BLACK
6
CONTINUOUS
10
152.057
20
-54.775
11
153.759
21
-54.775
0
LINE
8
BLACK
6
CONTINUOUS
10
153.759
20
-54.775
11
153.759
21
-56.477
0
LINE
8
BLACK
6
CONTINUOUS
10
166.143
20
-54.637
11
163.041
21
-54.637
0
LINE
8
BLACK
6
CONTINUOUS
10
163.041
20
-54.637
11
163.041
21
-51.535
0
LINE
8
BLACK
6
CONTINUOUS
10
163.041
20
-51.535
11
166.143
21
-51.535
0
LINE
8
BLACK
6
CONTINUOUS
10
166.143
20
-51.535
11
166.143
21
-54.637
0
LINE
8
BLACK
6
CONTINUOUS
10
153.156
20
-52.8077
11
153.311
21
-52.8719
0
LINE
8
BLACK
6
CONTINUOUS
10
153.311
20
-52.8719
11
153.45
21
-52.965
0
LINE
8
BLACK
6
CONTINUOUS
10
153.45
20
-52.965
11
153.569
21
-53.0835
0
LINE
8
BLACK
6
CONTINUOUS
10
153.569
20
-53.0835
11
153.662
21
-53.2229
0
LINE
8
BLACK
6
CONTINUOUS
10
153.662
20
-53.2229
11
153.726
21
-53.3778
0
LINE
8
BLACK
6
CONTINUOUS
10
153.726
20
-53.3778
11
153.759
21
-53.5422
0
LINE
8
BLACK
6
CONTINUOUS
10
153.759
20
-53.5422
11
153.759
21
-53.7098
0
LINE
8
BLACK
6
CONTINUOUS
10
153.759
20
-53.7098
11
153.726
21
-53.8742
0
LINE
8
BLACK
6
CONTINUOUS
10
153.726
20
-53.8742
11
153.662
21
-54.0291
0
LINE
8
BLACK
6
CONTINUOUS
10
153.662
20
-54.0291
11
153.569
21
-54.1685
0
LINE
8
BLACK
6
CONTINUOUS
10
153.569
20
-54.1685
11
153.45
21
-54.287
0
LINE
8
BLACK
6
CONTINUOUS
10
153.45
20
-54.287
11
153.311
21
-54.3801
0
LINE
8
BLACK
6
CONTINUOUS
10
153.311
20
-54.3801
11
153.156
21
-54.4443
0
LINE
8
BLACK
6
CONTINUOUS
10
153.156
20
-54.4443
11
152.992
21
-54.477
0
LINE
8
BLACK
6
CONTINUOUS
10
152.992
20
-54.477
11
152.824
21
-54.477
0
LINE
8
BLACK
6
CONTINUOUS
10
152.824
20
-54.477
11
152.66
21
-54.4443
0
LINE
8
BLACK
6
CONTINUOUS
10
152.66
20
-54.4443
11
152.505
21
-54.3801
0
LINE
8
BLACK
6
CONTINUOUS
10
152.505
20
-54.3801
11
152.366
21
-54.287
0
LINE
8
BLACK
6
CONTINUOUS
10
152.366
20
-54.287
11
152.247
21
-54.1685
0
LINE
8
BLACK
6
CONTINUOUS
10
152.247
20
-54.1685
11
152.154
21
-54.0291
0
LINE
8
BLACK
6
CONTINUOUS
10
152.154
20
-54.0291
11
152.09
21
-53.8742
0
LINE
8
BLACK
6
CONTINUOUS
10
152.09
20
-53.8742
11
152.057
21
-53.7098
0
LINE
8
BLACK
6
CONTINUOUS
10
152.057
20
-53.7098
11
152.057
21
-53.5422
0
LINE
8
BLACK
6
CONTINUOUS
10
152.057
20
-53.5422
11
152.09
21
-53.3778
0
LINE
8
BLACK
6
CONTINUOUS
10
152.09
20
-53.3778
11
152.154
21
-53.2229
0
LINE
8
BLACK
6
CONTINUOUS
10
152.154
20
-53.2229
11
152.247
21
-53.0835
0
LINE
8
BLACK
6
CONTINUOUS
10
152.247
20
-53.0835
11
152.366
21
-52.965
0
LINE
8
BLACK
6
CONTINUOUS
10
152.366
20
-52.965
11
152.505
21
-52.8719
0
LINE
8
BLACK
6
CONTINUOUS
10
152.505
20
-52.8719
11
152.66
21
-52.8077
0
LINE
8
BLACK
6
CONTINUOUS
10
152.66
20
-52.8077
11
152.824
21
-52.775
0
LINE
8
BLACK
6
CONTINUOUS
10
152.824
20
-52.775
11
152.992
21
-52.775
0
LINE
8
BLACK
6
CONTINUOUS
10
152.992
20
-52.775
11
153.156
21
-52.8077
0
LINE
8
BLACK
6
CONTINUOUS
10
100.125
20
-51.3108
11
100.274
21
-51.3406
0
LINE
8
BLACK
6
CONTINUOUS
10
100.274
20
-51.3406
11
100.557
21
-51.4575
0
LINE
8
BLACK
6
CONTINUOUS
10
100.557
20
-51.4575
11
100.811
21
-51.6273
0
LINE
8
BLACK
6
CONTINUOUS
10
100.811
20
-51.6273
11
101.027
21
-51.8433
0
LINE
8
BLACK
6
CONTINUOUS
10
101.027
20
-51.8433
11
101.196
21
-52.0973
0
LINE
8
BLACK
6
CONTINUOUS
10
101.196
20
-52.0973
11
101.313
21
-52.3796
0
LINE
8
BLACK
6
CONTINUOUS
10
101.313
20
-52.3796
11
101.313
21
-52.3796
0
LINE
8
BLACK
6
CONTINUOUS
10
101.313
20
-52.3796
11
101.373
21
-52.6792
0
LINE
8
BLACK
6
CONTINUOUS
10
101.373
20
-52.6792
11
101.373
21
-52.9848
0
LINE
8
BLACK
6
CONTINUOUS
10
101.373
20
-52.9848
11
101.343
21
-53.1346
0
LINE
8
BLACK
6
CONTINUOUS
10
101.343
20
-53.1346
11
101.313
21
-53.2844
0
LINE
8
BLACK
6
CONTINUOUS
10
101.313
20
-53.2844
11
101.196
21
-53.5667
0
LINE
8
BLACK
6
CONTINUOUS
10
101.196
20
-53.5667
11
101.027
21
-53.8207
0
LINE
8
BLACK
6
CONTINUOUS
10
101.027
20
-53.8207
11
100.811
21
-54.0367
0
LINE
8
BLACK
6
CONTINUOUS
10
100.811
20
-54.0367
11
100.557
21
-54.2065
0
LINE
8
BLACK
6
CONTINUOUS
10
100.557
20
-54.2065
11
100.274
21
-54.3234
0
LINE
8
BLACK
6
CONTINUOUS
10
100.274
20
-54.3234
11
100.125
21
-54.3532
0
LINE
8
BLACK
6
CONTINUOUS
10
100.125
20
-54.3532
11
99.9748
21
-54.383
0
LINE
8
BLACK
6
CONTINUOUS
10
99.9748
20
-54.383
11
99.6692
21
-54.383
0
LINE
8
BLACK
6
CONTINUOUS
10
99.6692
20
-54.383
11
99.5194
21
-54.3532
0
LINE
8
BLACK
6
CONTINUOUS
10
99.5194
20
-54.3532
11
99.3696
21
-54.3234
0
LINE
8
BLACK
6
CONTINUOUS
10
99.3696
20
-54.3234
11
99.0873
21
-54.2065
0
LINE
8
BLACK
6
CONTINUOUS
10
99.0873
20
-54.2065
11
98.8333
21
-54.0367
0
LINE
8
BLACK
6
CONTINUOUS
10
98.8333
20
-54.0367
11
98.6173
21
-53.8207
0
LINE
8
BLACK
6
CONTINUOUS
10
98.6173
20
-53.8207
11
98.4475
21
-53.5667
0
LINE
8
BLACK
6
CONTINUOUS
10
98.4475
20
-53.5667
11
98.3306
21
-53.2844
0
LINE
8
BLACK
6
CONTINUOUS
10
98.3306
20
-53.2844
11
98.3008
21
-53.1346
0
LINE
8
BLACK
6
CONTINUOUS
10
98.3008
20
-53.1346
11
98.271
21
-52.9848
0
LINE
8
BLACK
6
CONTINUOUS
10
98.271
20
-52.9848
11
98.271
21
-52.6792
0
LINE
8
BLACK
6
CONTINUOUS
10
98.271
20
-52.6792
11
98.3306
21
-52.3796
0
LINE
8
BLACK
6
CONTINUOUS
10
98.3306
20
-52.3796
11
98.3306
21
-52.3796
0
LINE
8
BLACK
6
CONTINUOUS
10
98.3306
20
-52.3796
11
98.4475
21
-52.0973
0
LINE
8
BLACK
6
CONTINUOUS
10
98.4475
20
-52.0973
11
98.6173
21
-51.8433
0
LINE
8
BLACK
6
CONTINUOUS
10
98.6173
20
-51.8433
11
98.8333
21
-51.6273
0
LINE
8
BLACK
6
CONTINUOUS
10
98.8333
20
-51.6273
11
99.0873
21
-51.4575
0
LINE
8
BLACK
6
CONTINUOUS
10
99.0873
20
-51.4575
11
99.3696
21
-51.3406
0
LINE
8
BLACK
6
CONTINUOUS
10
99.3696
20
-51.3406
11
99.5194
21
-51.3108
0
LINE
8
BLACK
6
CONTINUOUS
10
99.5194
20
-51.3108
11
99.6692
21
-51.281
0
LINE
8
BLACK
6
CONTINUOUS
10
99.6692
20
-51.281
11
99.9748
21
-51.281
0
LINE
8
BLACK
6
CONTINUOUS
10
99.9748
20
-51.281
11
100.125
21
-51.3108
0
LINE
8
BLACK
6
CONTINUOUS
10
123.801
20
-49.1235
11
123.974
21
-49.1952
0
LINE
8
BLACK
6
CONTINUOUS
10
123.974
20
-49.1952
11
124
21
-49.2124
0
LINE
8
BLACK
6
CONTINUOUS
10
124
20
-49.2124
11
124.13
21
-49.2993
0
LINE
8
BLACK
6
CONTINUOUS
10
124.13
20
-49.2993
11
124.263
21
-49.4318
0
LINE
8
BLACK
6
CONTINUOUS
10
124.263
20
-49.4318
11
124.263
21
-49.4318
0
LINE
8
BLACK
6
CONTINUOUS
10
124.263
20
-49.4318
11
124.367
21
-49.5875
0
LINE
8
BLACK
6
CONTINUOUS
10
124.367
20
-49.5875
11
124.438
21
-49.7606
0
LINE
8
BLACK
6
CONTINUOUS
10
124.438
20
-49.7606
11
124.475
21
-49.9443
0
LINE
8
BLACK
6
CONTINUOUS
10
124.475
20
-49.9443
11
124.475
21
-50.1317
0
LINE
8
BLACK
6
CONTINUOUS
10
124.475
20
-50.1317
11
124.438
21
-50.3154
0
LINE
8
BLACK
6
CONTINUOUS
10
124.438
20
-50.3154
11
124.367
21
-50.4885
0
LINE
8
BLACK
6
CONTINUOUS
10
124.367
20
-50.4885
11
124.367
21
-50.4885
0
LINE
8
BLACK
6
CONTINUOUS
10
124.367
20
-50.4885
11
124.263
21
-50.6442
0
LINE
8
BLACK
6
CONTINUOUS
10
124.263
20
-50.6442
11
124.13
21
-50.7767
0
LINE
8
BLACK
6
CONTINUOUS
10
124.13
20
-50.7767
11
124.052
21
-50.8291
0
LINE
8
BLACK
6
CONTINUOUS
10
124.052
20
-50.8291
11
123.974
21
-50.8808
0
LINE
8
BLACK
6
CONTINUOUS
10
123.974
20
-50.8808
11
123.801
21
-50.9525
0
LINE
8
BLACK
6
CONTINUOUS
10
123.801
20
-50.9525
11
123.618
21
-50.989
0
LINE
8
BLACK
6
CONTINUOUS
10
123.618
20
-50.989
11
123.43
21
-50.989
0
LINE
8
BLACK
6
CONTINUOUS
10
123.43
20
-50.989
11
123.247
21
-50.9525
0
LINE
8
BLACK
6
CONTINUOUS
10
123.247
20
-50.9525
11
123.074
21
-50.8808
0
LINE
8
BLACK
6
CONTINUOUS
10
123.074
20
-50.8808
11
122.996
21
-50.8291
0
LINE
8
BLACK
6
CONTINUOUS
10
122.996
20
-50.8291
11
122.918
21
-50.7767
0
LINE
8
BLACK
6
CONTINUOUS
10
122.918
20
-50.7767
11
122.785
21
-50.6442
0
LINE
8
BLACK
6
CONTINUOUS
10
122.785
20
-50.6442
11
122.681
21
-50.4885
0
LINE
8
BLACK
6
CONTINUOUS
10
122.681
20
-50.4885
11
122.681
21
-50.4885
0
LINE
8
BLACK
6
CONTINUOUS
10
122.681
20
-50.4885
11
122.61
21
-50.3154
0
LINE
8
BLACK
6
CONTINUOUS
10
122.61
20
-50.3154
11
122.573
21
-50.1317
0
LINE
8
BLACK
6
CONTINUOUS
10
122.573
20
-50.1317
11
122.573
21
-49.9443
0
LINE
8
BLACK
6
CONTINUOUS
10
122.573
20
-49.9443
11
122.61
21
-49.7606
0
LINE
8
BLACK
6
CONTINUOUS
10
122.61
20
-49.7606
11
122.681
21
-49.5875
0
LINE
8
BLACK
6
CONTINUOUS
10
122.681
20
-49.5875
11
122.785
21
-49.4318
0
LINE
8
BLACK
6
CONTINUOUS
10
122.785
20
-49.4318
11
122.785
21
-49.4318
0
LINE
8
BLACK
6
CONTINUOUS
10
122.785
20
-49.4318
11
122.918
21
-49.2993
0
LINE
8
BLACK
6
CONTINUOUS
10
122.918
20
-49.2993
11
123.048
21
-49.2124
0
LINE
8
BLACK
6
CONTINUOUS
10
123.048
20
-49.2124
11
123.074
21
-49.1952
0
LINE
8
BLACK
6
CONTINUOUS
10
123.074
20
-49.1952
11
123.247
21
-49.1235
0
LINE
8
BLACK
6
CONTINUOUS
10
123.247
20
-49.1235
11
123.43
21
-49.087
0
LINE
8
BLACK
6
CONTINUOUS
10
123.43
20
-49.087
11
123.618
21
-49.087
0
LINE
8
BLACK
6
CONTINUOUS
10
123.618
20
-49.087
11
123.801
21
-49.1235
0
LINE
8
BLACK
6
CONTINUOUS
10
126.301
20
-49.1235
11
126.474
21
-49.1952
0
LINE
8
BLACK
6
CONTINUOUS
10
126.474
20
-49.1952
11
126.5
21
-49.2124
0
LINE
8
BLACK
6
CONTINUOUS
10
126.5
20
-49.2124
11
126.63
21
-49.2993
0
LINE
8
BLACK
6
CONTINUOUS
10
126.63
20
-49.2993
11
126.763
21
-49.4318
0
LINE
8
BLACK
6
CONTINUOUS
10
126.763
20
-49.4318
11
126.763
21
-49.4318
0
LINE
8
BLACK
6
CONTINUOUS
10
126.763
20
-49.4318
11
126.867
21
-49.5875
0
LINE
8
BLACK
6
CONTINUOUS
10
126.867
20
-49.5875
11
126.938
21
-49.7606
0
LINE
8
BLACK
6
CONTINUOUS
10
126.938
20
-49.7606
11
126.975
21
-49.9443
0
LINE
8
BLACK
6
CONTINUOUS
10
126.975
20
-49.9443
11
126.975
21
-50.1317
0
LINE
8
BLACK
6
CONTINUOUS
10
126.975
20
-50.1317
11
126.938
21
-50.3154
0
LINE
8
BLACK
6
CONTINUOUS
10
126.938
20
-50.3154
11
126.867
21
-50.4885
0
LINE
8
BLACK
6
CONTINUOUS
10
126.867
20
-50.4885
11
126.867
21
-50.4885
0
LINE
8
BLACK
6
CONTINUOUS
10
126.867
20
-50.4885
11
126.763
21
-50.6442
0
LINE
8
BLACK
6
CONTINUOUS
10
126.763
20
-50.6442
11
126.63
21
-50.7767
0
LINE
8
BLACK
6
CONTINUOUS
10
126.63
20
-50.7767
11
126.552
21
-50.8291
0
LINE
8
BLACK
6
CONTINUOUS
10
126.552
20
-50.8291
11
126.474
21
-50.8808
0
LINE
8
BLACK
6
CONTINUOUS
10
126.474
20
-50.8808
11
126.301
21
-50.9525
0
LINE
8
BLACK
6
CONTINUOUS
10
126.301
20
-50.9525
11
126.118
21
-50.989
0
LINE
8
BLACK
6
CONTINUOUS
10
126.118
20
-50.989
11
125.93
21
-50.989
0
LINE
8
BLACK
6
CONTINUOUS
10
125.93
20
-50.989
11
125.747
21
-50.9525
0
LINE
8
BLACK
6
CONTINUOUS
10
125.747
20
-50.9525
11
125.574
21
-50.8808
0
LINE
8
BLACK
6
CONTINUOUS
10
125.574
20
-50.8808
11
125.496
21
-50.8291
0
LINE
8
BLACK
6
CONTINUOUS
10
125.496
20
-50.8291
11
125.418
21
-50.7767
0
LINE
8
BLACK
6
CONTINUOUS
10
125.418
20
-50.7767
11
125.285
21
-50.6442
0
LINE
8
BLACK
6
CONTINUOUS
10
125.285
20
-50.6442
11
125.181
21
-50.4885
0
LINE
8
BLACK
6
CONTINUOUS
10
125.181
20
-50.4885
11
125.181
21
-50.4885
0
LINE
8
BLACK
6
CONTINUOUS
10
125.181
20
-50.4885
11
125.11
21
-50.3154
0
LINE
8
BLACK
6
CONTINUOUS
10
125.11
20
-50.3154
11
125.073
21
-50.1317
0
LINE
8
BLACK
6
CONTINUOUS
10
125.073
20
-50.1317
11
125.073
21
-49.9443
0
LINE
8
BLACK
6
CONTINUOUS
10
125.073
20
-49.9443
11
125.11
21
-49.7606
0
LINE
8
BLACK
6
CONTINUOUS
10
125.11
20
-49.7606
11
125.181
21
-49.5875
0
LINE
8
BLACK
6
CONTINUOUS
10
125.181
20
-49.5875
11
125.285
21
-49.4318
0
LINE
8
BLACK
6
CONTINUOUS
10
125.285
20
-49.4318
11
125.285
21
-49.4318
0
LINE
8
BLACK
6
CONTINUOUS
10
125.285
20
-49.4318
11
125.418
21
-49.2993
0
LINE
8
BLACK
6
CONTINUOUS
10
125.418
20
-49.2993
11
125.548
21
-49.2124
0
LINE
8
BLACK
6
CONTINUOUS
10
125.548
20
-49.2124
11
125.574
21
-49.1952
0
LINE
8
BLACK
6
CONTINUOUS
10
125.574
20
-49.1952
11
125.747
21
-49.1235
0
LINE
8
BLACK
6
CONTINUOUS
10
125.747
20
-49.1235
11
125.93
21
-49.087
0
LINE
8
BLACK
6
CONTINUOUS
10
125.93
20
-49.087
11
126.118
21
-49.087
0
LINE
8
BLACK
6
CONTINUOUS
10
126.118
20
-49.087
11
126.301
21
-49.1235
0
LINE
8
BLACK
6
CONTINUOUS
10
128.801
20
-49.1235
11
128.974
21
-49.1952
0
LINE
8
BLACK
6
CONTINUOUS
10
128.974
20
-49.1952
11
129
21
-49.2124
0
LINE
8
BLACK
6
CONTINUOUS
10
129
20
-49.2124
11
129.13
21
-49.2993
0
LINE
8
BLACK
6
CONTINUOUS
10
129.13
20
-49.2993
11
129.263
21
-49.4318
0
LINE
8
BLACK
6
CONTINUOUS
10
129.263
20
-49.4318
11
129.263
21
-49.4318
0
LINE
8
BLACK
6
CONTINUOUS
10
129.263
20
-49.4318
11
129.367
21
-49.5875
0
LINE
8
BLACK
6
CONTINUOUS
10
129.367
20
-49.5875
11
129.438
21
-49.7606
0
LINE
8
BLACK
6
CONTINUOUS
10
129.438
20
-49.7606
11
129.475
21
-49.9443
0
LINE
8
BLACK
6
CONTINUOUS
10
129.475
20
-49.9443
11
129.475
21
-50.1317
0
LINE
8
BLACK
6
CONTINUOUS
10
129.475
20
-50.1317
11
129.438
21
-50.3154
0
LINE
8
BLACK
6
CONTINUOUS
10
129.438
20
-50.3154
11
129.367
21
-50.4885
0
LINE
8
BLACK
6
CONTINUOUS
10
129.367
20
-50.4885
11
129.367
21
-50.4885
0
LINE
8
BLACK
6
CONTINUOUS
10
129.367
20
-50.4885
11
129.263
21
-50.6442
0
LINE
8
BLACK
6
CONTINUOUS
10
129.263
20
-50.6442
11
129.13
21
-50.7767
0
LINE
8
BLACK
6
CONTINUOUS
10
129.13
20
-50.7767
11
129.052
21
-50.8291
0
LINE
8
BLACK
6
CONTINUOUS
10
129.052
20
-50.8291
11
128.974
21
-50.8808
0
LINE
8
BLACK
6
CONTINUOUS
10
128.974
20
-50.8808
11
128.801
21
-50.9525
0
LINE
8
BLACK
6
CONTINUOUS
10
128.801
20
-50.9525
11
128.618
21
-50.989
0
LINE
8
BLACK
6
CONTINUOUS
10
128.618
20
-50.989
11
128.43
21
-50.989
0
LINE
8
BLACK
6
CONTINUOUS
10
128.43
20
-50.989
11
128.247
21
-50.9525
0
LINE
8
BLACK
6
CONTINUOUS
10
128.247
20
-50.9525
11
128.074
21
-50.8808
0
LINE
8
BLACK
6
CONTINUOUS
10
128.074
20
-50.8808
11
127.996
21
-50.8291
0
LINE
8
BLACK
6
CONTINUOUS
10
127.996
20
-50.8291
11
127.918
21
-50.7767
0
LINE
8
BLACK
6
CONTINUOUS
10
127.918
20
-50.7767
11
127.785
21
-50.6442
0
LINE
8
BLACK
6
CONTINUOUS
10
127.785
20
-50.6442
11
127.681
21
-50.4885
0
LINE
8
BLACK
6
CONTINUOUS
10
127.681
20
-50.4885
11
127.681
21
-50.4885
0
LINE
8
BLACK
6
CONTINUOUS
10
127.681
20
-50.4885
11
127.61
21
-50.3154
0
LINE
8
BLACK
6
CONTINUOUS
10
127.61
20
-50.3154
11
127.573
21
-50.1317
0
LINE
8
BLACK
6
CONTINUOUS
10
127.573
20
-50.1317
11
127.573
21
-49.9443
0
LINE
8
BLACK
6
CONTINUOUS
10
127.573
20
-49.9443
11
127.61
21
-49.7606
0
LINE
8
BLACK
6
CONTINUOUS
10
127.61
20
-49.7606
11
127.681
21
-49.5875
0
LINE
8
BLACK
6
CONTINUOUS
10
127.681
20
-49.5875
11
127.785
21
-49.4318
0
LINE
8
BLACK
6
CONTINUOUS
10
127.785
20
-49.4318
11
127.785
21
-49.4318
0
LINE
8
BLACK
6
CONTINUOUS
10
127.785
20
-49.4318
11
127.918
21
-49.2993
0
LINE
8
BLACK
6
CONTINUOUS
10
127.918
20
-49.2993
11
128.048
21
-49.2124
0
LINE
8
BLACK
6
CONTINUOUS
10
128.048
20
-49.2124
11
128.074
21
-49.1952
0
LINE
8
BLACK
6
CONTINUOUS
10
128.074
20
-49.1952
11
128.247
21
-49.1235
0
LINE
8
BLACK
6
CONTINUOUS
10
128.247
20
-49.1235
11
128.43
21
-49.087
0
LINE
8
BLACK
6
CONTINUOUS
10
128.43
20
-49.087
11
128.618
21
-49.087
0
LINE
8
BLACK
6
CONTINUOUS
10
128.618
20
-49.087
11
128.801
21
-49.1235
0
LINE
8
BLACK
6
CONTINUOUS
10
153.859
20
-50.227
11
151.957
21
-50.227
0
LINE
8
BLACK
6
CONTINUOUS
10
151.957
20
-50.227
11
151.957
21
-48.325
0
LINE
8
BLACK
6
CONTINUOUS
10
151.957
20
-48.325
11
153.859
21
-48.325
0
LINE
8
BLACK
6
CONTINUOUS
10
153.859
20
-48.325
11
153.859
21
-50.227
0
LINE
8
BLACK
6
CONTINUOUS
10
116.863
20
-48.1075
11
117.036
21
-48.1792
0
LINE
8
BLACK
6
CONTINUOUS
10
117.036
20
-48.1792
11
117.036
21
-48.1792
0
LINE
8
BLACK
6
CONTINUOUS
10
117.036
20
-48.1792
11
117.192
21
-48.2833
0
LINE
8
BLACK
6
CONTINUOUS
10
117.192
20
-48.2833
11
117.325
21
-48.4158
0
LINE
8
BLACK
6
CONTINUOUS
10
117.325
20
-48.4158
11
117.325
21
-48.4158
0
LINE
8
BLACK
6
CONTINUOUS
10
117.325
20
-48.4158
11
117.429
21
-48.5715
0
LINE
8
BLACK
6
CONTINUOUS
10
117.429
20
-48.5715
11
117.5
21
-48.7446
0
LINE
8
BLACK
6
CONTINUOUS
10
117.5
20
-48.7446
11
117.537
21
-48.9283
0
LINE
8
BLACK
6
CONTINUOUS
10
117.537
20
-48.9283
11
117.537
21
-49.1157
0
LINE
8
BLACK
6
CONTINUOUS
10
117.537
20
-49.1157
11
117.5
21
-49.2994
0
LINE
8
BLACK
6
CONTINUOUS
10
117.5
20
-49.2994
11
117.429
21
-49.4725
0
LINE
8
BLACK
6
CONTINUOUS
10
117.429
20
-49.4725
11
117.396
21
-49.5221
0
LINE
8
BLACK
6
CONTINUOUS
10
117.396
20
-49.5221
11
117.325
21
-49.6282
0
LINE
8
BLACK
6
CONTINUOUS
10
117.325
20
-49.6282
11
117.192
21
-49.7607
0
LINE
8
BLACK
6
CONTINUOUS
10
117.192
20
-49.7607
11
117.114
21
-49.8131
0
LINE
8
BLACK
6
CONTINUOUS
10
117.114
20
-49.8131
11
117.036
21
-49.8648
0
LINE
8
BLACK
6
CONTINUOUS
10
117.036
20
-49.8648
11
116.863
21
-49.9365
0
LINE
8
BLACK
6
CONTINUOUS
10
116.863
20
-49.9365
11
116.68
21
-49.973
0
LINE
8
BLACK
6
CONTINUOUS
10
116.68
20
-49.973
11
116.492
21
-49.973
0
LINE
8
BLACK
6
CONTINUOUS
10
116.492
20
-49.973
11
116.309
21
-49.9365
0
LINE
8
BLACK
6
CONTINUOUS
10
116.309
20
-49.9365
11
116.136
21
-49.8648
0
LINE
8
BLACK
6
CONTINUOUS
10
116.136
20
-49.8648
11
116.058
21
-49.8131
0
LINE
8
BLACK
6
CONTINUOUS
10
116.058
20
-49.8131
11
115.98
21
-49.7607
0
LINE
8
BLACK
6
CONTINUOUS
10
115.98
20
-49.7607
11
115.847
21
-49.6282
0
LINE
8
BLACK
6
CONTINUOUS
10
115.847
20
-49.6282
11
115.776
21
-49.5221
0
LINE
8
BLACK
6
CONTINUOUS
10
115.776
20
-49.5221
11
115.743
21
-49.4725
0
LINE
8
BLACK
6
CONTINUOUS
10
115.743
20
-49.4725
11
115.672
21
-49.2994
0
LINE
8
BLACK
6
CONTINUOUS
10
115.672
20
-49.2994
11
115.635
21
-49.1157
0
LINE
8
BLACK
6
CONTINUOUS
10
115.635
20
-49.1157
11
115.635
21
-48.9283
0
LINE
8
BLACK
6
CONTINUOUS
10
115.635
20
-48.9283
11
115.672
21
-48.7446
0
LINE
8
BLACK
6
CONTINUOUS
10
115.672
20
-48.7446
11
115.743
21
-48.5715
0
LINE
8
BLACK
6
CONTINUOUS
10
115.743
20
-48.5715
11
115.847
21
-48.4158
0
LINE
8
BLACK
6
CONTINUOUS
10
115.847
20
-48.4158
11
115.847
21
-48.4158
0
LINE
8
BLACK
6
CONTINUOUS
10
115.847
20
-48.4158
11
115.98
21
-48.2833
0
LINE
8
BLACK
6
CONTINUOUS
10
115.98
20
-48.2833
11
116.136
21
-48.1792
0
LINE
8
BLACK
6
CONTINUOUS
10
116.136
20
-48.1792
11
116.136
21
-48.1792
0
LINE
8
BLACK
6
CONTINUOUS
10
116.136
20
-48.1792
11
116.309
21
-48.1075
0
LINE
8
BLACK
6
CONTINUOUS
10
116.309
20
-48.1075
11
116.492
21
-48.071
0
LINE
8
BLACK
6
CONTINUOUS
10
116.492
20
-48.071
11
116.68
21
-48.071
0
LINE
8
BLACK
6
CONTINUOUS
10
116.68
20
-48.071
11
116.863
21
-48.1075
0
LINE
8
BLACK
6
CONTINUOUS
10
114.997
20
-49.973
11
113.095
21
-49.973
0
LINE
8
BLACK
6
CONTINUOUS
10
113.095
20
-49.973
11
113.095
21
-48.071
0
LINE
8
BLACK
6
CONTINUOUS
10
113.095
20
-48.071
11
114.997
21
-48.071
0
LINE
8
BLACK
6
CONTINUOUS
10
114.997
20
-48.071
11
114.997
21
-49.973
0
LINE
8
BLACK
6
CONTINUOUS
10
136.509
20
-47.3111
11
136.609
21
-47.3526
0
LINE
8
BLACK
6
CONTINUOUS
10
136.609
20
-47.3526
11
136.737
21
-47.4054
0
LINE
8
BLACK
6
CONTINUOUS
10
136.737
20
-47.4054
11
136.941
21
-47.5423
0
LINE
8
BLACK
6
CONTINUOUS
10
136.941
20
-47.5423
11
137.116
21
-47.7165
0
LINE
8
BLACK
6
CONTINUOUS
10
137.116
20
-47.7165
11
137.253
21
-47.9214
0
LINE
8
BLACK
6
CONTINUOUS
10
137.253
20
-47.9214
11
137.253
21
-47.9214
0
LINE
8
BLACK
6
CONTINUOUS
10
137.253
20
-47.9214
11
137.347
21
-48.1491
0
LINE
8
BLACK
6
CONTINUOUS
10
137.347
20
-48.1491
11
137.395
21
-48.3908
0
LINE
8
BLACK
6
CONTINUOUS
10
137.395
20
-48.3908
11
137.395
21
-48.6372
0
LINE
8
BLACK
6
CONTINUOUS
10
137.395
20
-48.6372
11
137.371
21
-48.7592
0
LINE
8
BLACK
6
CONTINUOUS
10
137.371
20
-48.7592
11
137.347
21
-48.8789
0
LINE
8
BLACK
6
CONTINUOUS
10
137.347
20
-48.8789
11
137.253
21
-49.1066
0
LINE
8
BLACK
6
CONTINUOUS
10
137.253
20
-49.1066
11
137.116
21
-49.3115
0
LINE
8
BLACK
6
CONTINUOUS
10
137.116
20
-49.3115
11
136.941
21
-49.4857
0
LINE
8
BLACK
6
CONTINUOUS
10
136.941
20
-49.4857
11
136.737
21
-49.6226
0
LINE
8
BLACK
6
CONTINUOUS
10
136.737
20
-49.6226
11
136.737
21
-49.6226
0
LINE
8
BLACK
6
CONTINUOUS
10
136.737
20
-49.6226
11
136.737
21
-49.6226
0
LINE
8
BLACK
6
CONTINUOUS
10
136.737
20
-49.6226
11
136.509
21
-49.7169
0
LINE
8
BLACK
6
CONTINUOUS
10
136.509
20
-49.7169
11
136.267
21
-49.765
0
LINE
8
BLACK
6
CONTINUOUS
10
136.267
20
-49.765
11
136.021
21
-49.765
0
LINE
8
BLACK
6
CONTINUOUS
10
136.021
20
-49.765
11
135.779
21
-49.7169
0
LINE
8
BLACK
6
CONTINUOUS
10
135.779
20
-49.7169
11
135.551
21
-49.6226
0
LINE
8
BLACK
6
CONTINUOUS
10
135.551
20
-49.6226
11
135.551
21
-49.6226
0
LINE
8
BLACK
6
CONTINUOUS
10
135.551
20
-49.6226
11
135.551
21
-49.6226
0
LINE
8
BLACK
6
CONTINUOUS
10
135.551
20
-49.6226
11
135.347
21
-49.4857
0
LINE
8
BLACK
6
CONTINUOUS
10
135.347
20
-49.4857
11
135.172
21
-49.3115
0
LINE
8
BLACK
6
CONTINUOUS
10
135.172
20
-49.3115
11
135.035
21
-49.1066
0
LINE
8
BLACK
6
CONTINUOUS
10
135.035
20
-49.1066
11
134.941
21
-48.8789
0
LINE
8
BLACK
6
CONTINUOUS
10
134.941
20
-48.8789
11
134.917
21
-48.7592
0
LINE
8
BLACK
6
CONTINUOUS
10
134.917
20
-48.7592
11
134.893
21
-48.6372
0
LINE
8
BLACK
6
CONTINUOUS
10
134.893
20
-48.6372
11
134.893
21
-48.3908
0
LINE
8
BLACK
6
CONTINUOUS
10
134.893
20
-48.3908
11
134.941
21
-48.1491
0
LINE
8
BLACK
6
CONTINUOUS
10
134.941
20
-48.1491
11
135.035
21
-47.9214
0
LINE
8
BLACK
6
CONTINUOUS
10
135.035
20
-47.9214
11
135.035
21
-47.9214
0
LINE
8
BLACK
6
CONTINUOUS
10
135.035
20
-47.9214
11
135.172
21
-47.7165
0
LINE
8
BLACK
6
CONTINUOUS
10
135.172
20
-47.7165
11
135.347
21
-47.5423
0
LINE
8
BLACK
6
CONTINUOUS
10
135.347
20
-47.5423
11
135.551
21
-47.4054
0
LINE
8
BLACK
6
CONTINUOUS
10
135.551
20
-47.4054
11
135.679
21
-47.3526
0
LINE
8
BLACK
6
CONTINUOUS
10
135.679
20
-47.3526
11
135.779
21
-47.3111
0
LINE
8
BLACK
6
CONTINUOUS
10
135.779
20
-47.3111
11
136.021
21
-47.263
0
LINE
8
BLACK
6
CONTINUOUS
10
136.021
20
-47.263
11
136.267
21
-47.263
0
LINE
8
BLACK
6
CONTINUOUS
10
136.267
20
-47.263
11
136.509
21
-47.3111
0
LINE
8
BLACK
6
CONTINUOUS
10
144.009
20
-47.2811
11
144.245
21
-47.3526
0
LINE
8
BLACK
6
CONTINUOUS
10
144.245
20
-47.3526
11
144.462
21
-47.4688
0
LINE
8
BLACK
6
CONTINUOUS
10
144.462
20
-47.4688
11
144.653
21
-47.6251
0
LINE
8
BLACK
6
CONTINUOUS
10
144.653
20
-47.6251
11
144.809
21
-47.8156
0
LINE
8
BLACK
6
CONTINUOUS
10
144.809
20
-47.8156
11
144.925
21
-48.0329
0
LINE
8
BLACK
6
CONTINUOUS
10
144.925
20
-48.0329
11
144.997
21
-48.2688
0
LINE
8
BLACK
6
CONTINUOUS
10
144.997
20
-48.2688
11
145.021
21
-48.514
0
LINE
8
BLACK
6
CONTINUOUS
10
145.021
20
-48.514
11
144.997
21
-48.7592
0
LINE
8
BLACK
6
CONTINUOUS
10
144.997
20
-48.7592
11
144.925
21
-48.9951
0
LINE
8
BLACK
6
CONTINUOUS
10
144.925
20
-48.9951
11
144.809
21
-49.2124
0
LINE
8
BLACK
6
CONTINUOUS
10
144.809
20
-49.2124
11
144.653
21
-49.4029
0
LINE
8
BLACK
6
CONTINUOUS
10
144.653
20
-49.4029
11
144.462
21
-49.5592
0
LINE
8
BLACK
6
CONTINUOUS
10
144.462
20
-49.5592
11
144.245
21
-49.6754
0
LINE
8
BLACK
6
CONTINUOUS
10
144.245
20
-49.6754
11
144.009
21
-49.7469
0
LINE
8
BLACK
6
CONTINUOUS
10
144.009
20
-49.7469
11
143.825
21
-49.765
0
LINE
8
BLACK
6
CONTINUOUS
10
143.825
20
-49.765
11
143.703
21
-49.765
0
LINE
8
BLACK
6
CONTINUOUS
10
143.703
20
-49.765
11
143.519
21
-49.7469
0
LINE
8
BLACK
6
CONTINUOUS
10
143.519
20
-49.7469
11
143.283
21
-49.6754
0
LINE
8
BLACK
6
CONTINUOUS
10
143.283
20
-49.6754
11
143.066
21
-49.5592
0
LINE
8
BLACK
6
CONTINUOUS
10
143.066
20
-49.5592
11
142.875
21
-49.4029
0
LINE
8
BLACK
6
CONTINUOUS
10
142.875
20
-49.4029
11
142.719
21
-49.2124
0
LINE
8
BLACK
6
CONTINUOUS
10
142.719
20
-49.2124
11
142.603
21
-48.9951
0
LINE
8
BLACK
6
CONTINUOUS
10
142.603
20
-48.9951
11
142.531
21
-48.7592
0
LINE
8
BLACK
6
CONTINUOUS
10
142.531
20
-48.7592
11
142.507
21
-48.514
0
LINE
8
BLACK
6
CONTINUOUS
10
142.507
20
-48.514
11
142.531
21
-48.2688
0
LINE
8
BLACK
6
CONTINUOUS
10
142.531
20
-48.2688
11
142.603
21
-48.0329
0
LINE
8
BLACK
6
CONTINUOUS
10
142.603
20
-48.0329
11
142.719
21
-47.8156
0
LINE
8
BLACK
6
CONTINUOUS
10
142.719
20
-47.8156
11
142.875
21
-47.6251
0
LINE
8
BLACK
6
CONTINUOUS
10
142.875
20
-47.6251
11
143.066
21
-47.4688
0
LINE
8
BLACK
6
CONTINUOUS
10
143.066
20
-47.4688
11
143.283
21
-47.3526
0
LINE
8
BLACK
6
CONTINUOUS
10
143.283
20
-47.3526
11
143.519
21
-47.2811
0
LINE
8
BLACK
6
CONTINUOUS
10
143.519
20
-47.2811
11
143.703
21
-47.263
0
LINE
8
BLACK
6
CONTINUOUS
10
143.703
20
-47.263
11
143.825
21
-47.263
0
LINE
8
BLACK
6
CONTINUOUS
10
143.825
20
-47.263
11
144.009
21
-47.2811
0
LINE
8
BLACK
6
CONTINUOUS
10
107.214
20
-47.9497
11
107.369
21
-48.0139
0
LINE
8
BLACK
6
CONTINUOUS
10
107.369
20
-48.0139
11
107.508
21
-48.107
0
LINE
8
BLACK
6
CONTINUOUS
10
107.508
20
-48.107
11
107.627
21
-48.2255
0
LINE
8
BLACK
6
CONTINUOUS
10
107.627
20
-48.2255
11
107.72
21
-48.3649
0
LINE
8
BLACK
6
CONTINUOUS
10
107.72
20
-48.3649
11
107.784
21
-48.5198
0
LINE
8
BLACK
6
CONTINUOUS
10
107.784
20
-48.5198
11
107.817
21
-48.6842
0
LINE
8
BLACK
6
CONTINUOUS
10
107.817
20
-48.6842
11
107.817
21
-48.8518
0
LINE
8
BLACK
6
CONTINUOUS
10
107.817
20
-48.8518
11
107.784
21
-49.0162
0
LINE
8
BLACK
6
CONTINUOUS
10
107.784
20
-49.0162
11
107.72
21
-49.1711
0
LINE
8
BLACK
6
CONTINUOUS
10
107.72
20
-49.1711
11
107.627
21
-49.3105
0
LINE
8
BLACK
6
CONTINUOUS
10
107.627
20
-49.3105
11
107.508
21
-49.429
0
LINE
8
BLACK
6
CONTINUOUS
10
107.508
20
-49.429
11
107.369
21
-49.5221
0
LINE
8
BLACK
6
CONTINUOUS
10
107.369
20
-49.5221
11
107.214
21
-49.5863
0
LINE
8
BLACK
6
CONTINUOUS
10
107.214
20
-49.5863
11
107.05
21
-49.619
0
LINE
8
BLACK
6
CONTINUOUS
10
107.05
20
-49.619
11
106.882
21
-49.619
0
LINE
8
BLACK
6
CONTINUOUS
10
106.882
20
-49.619
11
106.718
21
-49.5863
0
LINE
8
BLACK
6
CONTINUOUS
10
106.718
20
-49.5863
11
106.563
21
-49.5221
0
LINE
8
BLACK
6
CONTINUOUS
10
106.563
20
-49.5221
11
106.424
21
-49.429
0
LINE
8
BLACK
6
CONTINUOUS
10
106.424
20
-49.429
11
106.305
21
-49.3105
0
LINE
8
BLACK
6
CONTINUOUS
10
106.305
20
-49.3105
11
106.212
21
-49.1711
0
LINE
8
BLACK
6
CONTINUOUS
10
106.212
20
-49.1711
11
106.148
21
-49.0162
0
LINE
8
BLACK
6
CONTINUOUS
10
106.148
20
-49.0162
11
106.115
21
-48.8518
0
LINE
8
BLACK
6
CONTINUOUS
10
106.115
20
-48.8518
11
106.115
21
-48.6842
0
LINE
8
BLACK
6
CONTINUOUS
10
106.115
20
-48.6842
11
106.148
21
-48.5198
0
LINE
8
BLACK
6
CONTINUOUS
10
106.148
20
-48.5198
11
106.212
21
-48.3649
0
LINE
8
BLACK
6
CONTINUOUS
10
106.212
20
-48.3649
11
106.305
21
-48.2255
0
LINE
8
BLACK
6
CONTINUOUS
10
106.305
20
-48.2255
11
106.424
21
-48.107
0
LINE
8
BLACK
6
CONTINUOUS
10
106.424
20
-48.107
11
106.563
21
-48.0139
0
LINE
8
BLACK
6
CONTINUOUS
10
106.563
20
-48.0139
11
106.718
21
-47.9497
0
LINE
8
BLACK
6
CONTINUOUS
10
106.718
20
-47.9497
11
106.882
21
-47.917
0
LINE
8
BLACK
6
CONTINUOUS
10
106.882
20
-47.917
11
107.05
21
-47.917
0
LINE
8
BLACK
6
CONTINUOUS
10
107.05
20
-47.917
11
107.214
21
-47.9497
0
LINE
8
BLACK
6
CONTINUOUS
10
109.817
20
-49.619
11
108.115
21
-49.619
0
LINE
8
BLACK
6
CONTINUOUS
10
108.115
20
-49.619
11
108.115
21
-47.917
0
LINE
8
BLACK
6
CONTINUOUS
10
108.115
20
-47.917
11
109.817
21
-47.917
0
LINE
8
BLACK
6
CONTINUOUS
10
109.817
20
-47.917
11
109.817
21
-49.619
0
LINE
8
BLACK
6
CONTINUOUS
10
153.185
20
-45.8215
11
153.358
21
-45.8932
0
LINE
8
BLACK
6
CONTINUOUS
10
153.358
20
-45.8932
11
153.358
21
-45.8932
0
LINE
8
BLACK
6
CONTINUOUS
10
153.358
20
-45.8932
11
153.514
21
-45.9973
0
LINE
8
BLACK
6
CONTINUOUS
10
153.514
20
-45.9973
11
153.647
21
-46.1298
0
LINE
8
BLACK
6
CONTINUOUS
10
153.647
20
-46.1298
11
153.647
21
-46.1298
0
LINE
8
BLACK
6
CONTINUOUS
10
153.647
20
-46.1298
11
153.751
21
-46.2855
0
LINE
8
BLACK
6
CONTINUOUS
10
153.751
20
-46.2855
11
153.822
21
-46.4586
0
LINE
8
BLACK
6
CONTINUOUS
10
153.822
20
-46.4586
11
153.859
21
-46.6423
0
LINE
8
BLACK
6
CONTINUOUS
10
153.859
20
-46.6423
11
153.859
21
-46.8297
0
LINE
8
BLACK
6
CONTINUOUS
10
153.859
20
-46.8297
11
153.822
21
-47.0134
0
LINE
8
BLACK
6
CONTINUOUS
10
153.822
20
-47.0134
11
153.751
21
-47.1865
0
LINE
8
BLACK
6
CONTINUOUS
10
153.751
20
-47.1865
11
153.751
21
-47.1865
0
LINE
8
BLACK
6
CONTINUOUS
10
153.751
20
-47.1865
11
153.647
21
-47.3422
0
LINE
8
BLACK
6
CONTINUOUS
10
153.647
20
-47.3422
11
153.514
21
-47.4747
0
LINE
8
BLACK
6
CONTINUOUS
10
153.514
20
-47.4747
11
153.436
21
-47.5271
0
LINE
8
BLACK
6
CONTINUOUS
10
153.436
20
-47.5271
11
153.358
21
-47.5788
0
LINE
8
BLACK
6
CONTINUOUS
10
153.358
20
-47.5788
11
153.185
21
-47.6505
0
LINE
8
BLACK
6
CONTINUOUS
10
153.185
20
-47.6505
11
153.002
21
-47.687
0
LINE
8
BLACK
6
CONTINUOUS
10
153.002
20
-47.687
11
152.814
21
-47.687
0
LINE
8
BLACK
6
CONTINUOUS
10
152.814
20
-47.687
11
152.631
21
-47.6505
0
LINE
8
BLACK
6
CONTINUOUS
10
152.631
20
-47.6505
11
152.458
21
-47.5788
0
LINE
8
BLACK
6
CONTINUOUS
10
152.458
20
-47.5788
11
152.38
21
-47.5271
0
LINE
8
BLACK
6
CONTINUOUS
10
152.38
20
-47.5271
11
152.302
21
-47.4747
0
LINE
8
BLACK
6
CONTINUOUS
10
152.302
20
-47.4747
11
152.169
21
-47.3422
0
LINE
8
BLACK
6
CONTINUOUS
10
152.169
20
-47.3422
11
152.065
21
-47.1865
0
LINE
8
BLACK
6
CONTINUOUS
10
152.065
20
-47.1865
11
152.065
21
-47.1865
0
LINE
8
BLACK
6
CONTINUOUS
10
152.065
20
-47.1865
11
151.994
21
-47.0134
0
LINE
8
BLACK
6
CONTINUOUS
10
151.994
20
-47.0134
11
151.957
21
-46.8297
0
LINE
8
BLACK
6
CONTINUOUS
10
151.957
20
-46.8297
11
151.957
21
-46.6423
0
LINE
8
BLACK
6
CONTINUOUS
10
151.957
20
-46.6423
11
151.994
21
-46.4586
0
LINE
8
BLACK
6
CONTINUOUS
10
151.994
20
-46.4586
11
152.065
21
-46.2855
0
LINE
8
BLACK
6
CONTINUOUS
10
152.065
20
-46.2855
11
152.169
21
-46.1298
0
LINE
8
BLACK
6
CONTINUOUS
10
152.169
20
-46.1298
11
152.169
21
-46.1298
0
LINE
8
BLACK
6
CONTINUOUS
10
152.169
20
-46.1298
11
152.302
21
-45.9973
0
LINE
8
BLACK
6
CONTINUOUS
10
152.302
20
-45.9973
11
152.458
21
-45.8932
0
LINE
8
BLACK
6
CONTINUOUS
10
152.458
20
-45.8932
11
152.458
21
-45.8932
0
LINE
8
BLACK
6
CONTINUOUS
10
152.458
20
-45.8932
11
152.631
21
-45.8215
0
LINE
8
BLACK
6
CONTINUOUS
10
152.631
20
-45.8215
11
152.814
21
-45.785
0
LINE
8
BLACK
6
CONTINUOUS
10
152.814
20
-45.785
11
153.002
21
-45.785
0
LINE
8
BLACK
6
CONTINUOUS
10
153.002
20
-45.785
11
153.185
21
-45.8215
  0
ENDSEC
  0
EOF
