  0
SECTION
  2
HEADER
  9
$ANGBASE
  50
0.0
  9
$ANGDIR
  70
  1
  9
$MEASUREMENT
  70
0
  0
ENDSEC
  0
SECTION
  2
TABLES
  0
TABLE
  2
LTYPE
  70
4
  0
LTYPE
  5
40F
  2
CONTINUOUS
  70
0
  3
Solid line
  72
65
  73
0
  40
0.0
  0
LTYPE
  5
410
  2
DASHDOT
 70
0
  3
Dash Dot ____ _ ____ _
 72
65
 73
4
 40
2.0
 49
1.25
 49
-0.25
 49
0.25
 49
-0.25
  0
LTYPE
  5
411
  2
DASHED
 70
0
  3
Dashed __ __ __ __ __
 72
65
 73
2
 40
0.75
 49
0.5
 49
-0.25
  0
LTYPE
  5
43B
  2
DOTTED
 70
0
  3
Dotted .  .  .  .
 72
65
 73
2
 40
0.2
 49
0.0
 49
-0.2
  0
ENDTAB
  0
TABLE
  2
STYLE
  70
4
  0
STYLE
  2
KICAD
  70
0
  40
0
  41
1
  42
1
  50
0
  71
0
  3
isocp.shx
  0
STYLE
  2
KICADB
  70
0
  40
0
  41
1
  42
1
  50
0
  71
0
  3
isocp.shx
  0
STYLE
  2
KICADI
  70
0
  40
0
  41
1
  42
1
  50
15
  71
0
  3
isocp.shx
  0
STYLE
  2
KICADBI
  70
0
  40
0
  41
1
  42
1
  50
15
  71
0
  3
isocp.shx
  0
ENDTAB
  0
TABLE
  2
LAYER
  70
30
  0
LAYER
  2
BLACK
  70
0
  62
7
  6
CONTINUOUS
  0
LAYER
  2
GRAY1
  70
0
  62
251
  6
CONTINUOUS
  0
LAYER
  2
GRAY2
  70
0
  62
8
  6
CONTINUOUS
  0
LAYER
  2
GRAY3
  70
0
  62
9
  6
CONTINUOUS
  0
LAYER
  2
WHITE
  70
0
  62
7
  6
CONTINUOUS
  0
LAYER
  2
LYELLOW
  70
0
  62
51
  6
CONTINUOUS
  0
LAYER
  2
BLUE1
  70
0
  62
178
  6
CONTINUOUS
  0
LAYER
  2
GREEN1
  70
0
  62
98
  6
CONTINUOUS
  0
LAYER
  2
CYAN1
  70
0
  62
138
  6
CONTINUOUS
  0
LAYER
  2
RED1
  70
0
  62
18
  6
CONTINUOUS
  0
LAYER
  2
MAGENTA1
  70
0
  62
228
  6
CONTINUOUS
  0
LAYER
  2
BROWN1
  70
0
  62
58
  6
CONTINUOUS
  0
LAYER
  2
BLUE2
  70
0
  62
5
  6
CONTINUOUS
  0
LAYER
  2
GREEN2
  70
0
  62
3
  6
CONTINUOUS
  0
LAYER
  2
CYAN2
  70
0
  62
4
  6
CONTINUOUS
  0
LAYER
  2
RED2
  70
0
  62
1
  6
CONTINUOUS
  0
LAYER
  2
MAGENTA2
  70
0
  62
6
  6
CONTINUOUS
  0
LAYER
  2
BROWN2
  70
0
  62
54
  6
CONTINUOUS
  0
LAYER
  2
BLUE3
  70
0
  62
171
  6
CONTINUOUS
  0
LAYER
  2
GREEN3
  70
0
  62
91
  6
CONTINUOUS
  0
LAYER
  2
CYAN3
  70
0
  62
131
  6
CONTINUOUS
  0
LAYER
  2
RED3
  70
0
  62
11
  6
CONTINUOUS
  0
LAYER
  2
MAGENTA3
  70
0
  62
221
  6
CONTINUOUS
  0
LAYER
  2
YELLOW3
  70
0
  62
2
  6
CONTINUOUS
  0
LAYER
  2
BLUE4
  70
0
  62
5
  6
CONTINUOUS
  0
LAYER
  2
GREEN4
  70
0
  62
3
  6
CONTINUOUS
  0
LAYER
  2
CYAN4
  70
0
  62
4
  6
CONTINUOUS
  0
LAYER
  2
RED4
  70
0
  62
1
  6
CONTINUOUS
  0
LAYER
  2
MAGENTA4
  70
0
  62
6
  6
CONTINUOUS
  0
LAYER
  2
YELLOW4
  70
0
  62
2
  6
CONTINUOUS
  0
ENDTAB
  0
ENDSEC
  0
SECTION
  2
ENTITIES
0
LINE
8
BLACK
6
CONTINUOUS
10
143.745
20
-62.0634
11
143.971
21
-62.132
0
LINE
8
BLACK
6
CONTINUOUS
10
143.971
20
-62.132
11
144.18
21
-62.2434
0
LINE
8
BLACK
6
CONTINUOUS
10
144.18
20
-62.2434
11
144.363
21
-62.3934
0
LINE
8
BLACK
6
CONTINUOUS
10
144.363
20
-62.3934
11
144.513
21
-62.5761
0
LINE
8
BLACK
6
CONTINUOUS
10
144.513
20
-62.5761
11
144.624
21
-62.7846
0
LINE
8
BLACK
6
CONTINUOUS
10
144.624
20
-62.7846
11
144.693
21
-63.0108
0
LINE
8
BLACK
6
CONTINUOUS
10
144.693
20
-63.0108
11
144.716
21
-63.246
0
LINE
8
BLACK
6
CONTINUOUS
10
144.716
20
-63.246
11
144.693
21
-63.4812
0
LINE
8
BLACK
6
CONTINUOUS
10
144.693
20
-63.4812
11
144.624
21
-63.7074
0
LINE
8
BLACK
6
CONTINUOUS
10
144.624
20
-63.7074
11
144.513
21
-63.9159
0
LINE
8
BLACK
6
CONTINUOUS
10
144.513
20
-63.9159
11
144.363
21
-64.0986
0
LINE
8
BLACK
6
CONTINUOUS
10
144.363
20
-64.0986
11
144.18
21
-64.2486
0
LINE
8
BLACK
6
CONTINUOUS
10
144.18
20
-64.2486
11
143.971
21
-64.36
0
LINE
8
BLACK
6
CONTINUOUS
10
143.971
20
-64.36
11
143.745
21
-64.4286
0
LINE
8
BLACK
6
CONTINUOUS
10
143.745
20
-64.4286
11
143.569
21
-64.446
0
LINE
8
BLACK
6
CONTINUOUS
10
143.569
20
-64.446
11
143.451
21
-64.446
0
LINE
8
BLACK
6
CONTINUOUS
10
143.451
20
-64.446
11
143.275
21
-64.4286
0
LINE
8
BLACK
6
CONTINUOUS
10
143.275
20
-64.4286
11
143.049
21
-64.36
0
LINE
8
BLACK
6
CONTINUOUS
10
143.049
20
-64.36
11
142.84
21
-64.2486
0
LINE
8
BLACK
6
CONTINUOUS
10
142.84
20
-64.2486
11
142.657
21
-64.0986
0
LINE
8
BLACK
6
CONTINUOUS
10
142.657
20
-64.0986
11
142.507
21
-63.9159
0
LINE
8
BLACK
6
CONTINUOUS
10
142.507
20
-63.9159
11
142.396
21
-63.7074
0
LINE
8
BLACK
6
CONTINUOUS
10
142.396
20
-63.7074
11
142.327
21
-63.4812
0
LINE
8
BLACK
6
CONTINUOUS
10
142.327
20
-63.4812
11
142.304
21
-63.246
0
LINE
8
BLACK
6
CONTINUOUS
10
142.304
20
-63.246
11
142.327
21
-63.0108
0
LINE
8
BLACK
6
CONTINUOUS
10
142.327
20
-63.0108
11
142.396
21
-62.7846
0
LINE
8
BLACK
6
CONTINUOUS
10
142.396
20
-62.7846
11
142.507
21
-62.5761
0
LINE
8
BLACK
6
CONTINUOUS
10
142.507
20
-62.5761
11
142.657
21
-62.3934
0
LINE
8
BLACK
6
CONTINUOUS
10
142.657
20
-62.3934
11
142.84
21
-62.2434
0
LINE
8
BLACK
6
CONTINUOUS
10
142.84
20
-62.2434
11
143.049
21
-62.132
0
LINE
8
BLACK
6
CONTINUOUS
10
143.049
20
-62.132
11
143.275
21
-62.0634
0
LINE
8
BLACK
6
CONTINUOUS
10
143.275
20
-62.0634
11
143.451
21
-62.046
0
LINE
8
BLACK
6
CONTINUOUS
10
143.451
20
-62.046
11
143.569
21
-62.046
0
LINE
8
BLACK
6
CONTINUOUS
10
143.569
20
-62.046
11
143.745
21
-62.0634
0
LINE
8
BLACK
6
CONTINUOUS
10
136.24
20
-62.0921
11
136.458
21
-62.1826
0
LINE
8
BLACK
6
CONTINUOUS
10
136.458
20
-62.1826
11
136.655
21
-62.3139
0
LINE
8
BLACK
6
CONTINUOUS
10
136.655
20
-62.3139
11
136.822
21
-62.481
0
LINE
8
BLACK
6
CONTINUOUS
10
136.822
20
-62.481
11
136.953
21
-62.6776
0
LINE
8
BLACK
6
CONTINUOUS
10
136.953
20
-62.6776
11
137.044
21
-62.896
0
LINE
8
BLACK
6
CONTINUOUS
10
137.044
20
-62.896
11
137.09
21
-63.1278
0
LINE
8
BLACK
6
CONTINUOUS
10
137.09
20
-63.1278
11
137.09
21
-63.3642
0
LINE
8
BLACK
6
CONTINUOUS
10
137.09
20
-63.3642
11
137.044
21
-63.596
0
LINE
8
BLACK
6
CONTINUOUS
10
137.044
20
-63.596
11
136.953
21
-63.8144
0
LINE
8
BLACK
6
CONTINUOUS
10
136.953
20
-63.8144
11
136.822
21
-64.011
0
LINE
8
BLACK
6
CONTINUOUS
10
136.822
20
-64.011
11
136.655
21
-64.1781
0
LINE
8
BLACK
6
CONTINUOUS
10
136.655
20
-64.1781
11
136.458
21
-64.3094
0
LINE
8
BLACK
6
CONTINUOUS
10
136.458
20
-64.3094
11
136.24
21
-64.3999
0
LINE
8
BLACK
6
CONTINUOUS
10
136.24
20
-64.3999
11
136.008
21
-64.446
0
LINE
8
BLACK
6
CONTINUOUS
10
136.008
20
-64.446
11
135.772
21
-64.446
0
LINE
8
BLACK
6
CONTINUOUS
10
135.772
20
-64.446
11
135.54
21
-64.3999
0
LINE
8
BLACK
6
CONTINUOUS
10
135.54
20
-64.3999
11
135.322
21
-64.3094
0
LINE
8
BLACK
6
CONTINUOUS
10
135.322
20
-64.3094
11
135.125
21
-64.1781
0
LINE
8
BLACK
6
CONTINUOUS
10
135.125
20
-64.1781
11
134.958
21
-64.011
0
LINE
8
BLACK
6
CONTINUOUS
10
134.958
20
-64.011
11
134.827
21
-63.8144
0
LINE
8
BLACK
6
CONTINUOUS
10
134.827
20
-63.8144
11
134.736
21
-63.596
0
LINE
8
BLACK
6
CONTINUOUS
10
134.736
20
-63.596
11
134.69
21
-63.3642
0
LINE
8
BLACK
6
CONTINUOUS
10
134.69
20
-63.3642
11
134.69
21
-63.1278
0
LINE
8
BLACK
6
CONTINUOUS
10
134.69
20
-63.1278
11
134.736
21
-62.896
0
LINE
8
BLACK
6
CONTINUOUS
10
134.736
20
-62.896
11
134.827
21
-62.6776
0
LINE
8
BLACK
6
CONTINUOUS
10
134.827
20
-62.6776
11
134.958
21
-62.481
0
LINE
8
BLACK
6
CONTINUOUS
10
134.958
20
-62.481
11
135.125
21
-62.3139
0
LINE
8
BLACK
6
CONTINUOUS
10
135.125
20
-62.3139
11
135.322
21
-62.1826
0
LINE
8
BLACK
6
CONTINUOUS
10
135.322
20
-62.1826
11
135.54
21
-62.0921
0
LINE
8
BLACK
6
CONTINUOUS
10
135.54
20
-62.0921
11
135.772
21
-62.046
0
LINE
8
BLACK
6
CONTINUOUS
10
135.772
20
-62.046
11
136.008
21
-62.046
0
LINE
8
BLACK
6
CONTINUOUS
10
136.008
20
-62.046
11
136.24
21
-62.0921
0
LINE
8
BLACK
6
CONTINUOUS
10
117.329
20
-61.8094
11
117.555
21
-61.878
0
LINE
8
BLACK
6
CONTINUOUS
10
117.555
20
-61.878
11
117.764
21
-61.9894
0
LINE
8
BLACK
6
CONTINUOUS
10
117.764
20
-61.9894
11
117.947
21
-62.1394
0
LINE
8
BLACK
6
CONTINUOUS
10
117.947
20
-62.1394
11
118.097
21
-62.3221
0
LINE
8
BLACK
6
CONTINUOUS
10
118.097
20
-62.3221
11
118.208
21
-62.5306
0
LINE
8
BLACK
6
CONTINUOUS
10
118.208
20
-62.5306
11
118.277
21
-62.7568
0
LINE
8
BLACK
6
CONTINUOUS
10
118.277
20
-62.7568
11
118.3
21
-62.992
0
LINE
8
BLACK
6
CONTINUOUS
10
118.3
20
-62.992
11
118.277
21
-63.2272
0
LINE
8
BLACK
6
CONTINUOUS
10
118.277
20
-63.2272
11
118.208
21
-63.4534
0
LINE
8
BLACK
6
CONTINUOUS
10
118.208
20
-63.4534
11
118.097
21
-63.6619
0
LINE
8
BLACK
6
CONTINUOUS
10
118.097
20
-63.6619
11
117.947
21
-63.8446
0
LINE
8
BLACK
6
CONTINUOUS
10
117.947
20
-63.8446
11
117.764
21
-63.9946
0
LINE
8
BLACK
6
CONTINUOUS
10
117.764
20
-63.9946
11
117.555
21
-64.106
0
LINE
8
BLACK
6
CONTINUOUS
10
117.555
20
-64.106
11
117.329
21
-64.1746
0
LINE
8
BLACK
6
CONTINUOUS
10
117.329
20
-64.1746
11
117.153
21
-64.192
0
LINE
8
BLACK
6
CONTINUOUS
10
117.153
20
-64.192
11
117.035
21
-64.192
0
LINE
8
BLACK
6
CONTINUOUS
10
117.035
20
-64.192
11
116.859
21
-64.1746
0
LINE
8
BLACK
6
CONTINUOUS
10
116.859
20
-64.1746
11
116.633
21
-64.106
0
LINE
8
BLACK
6
CONTINUOUS
10
116.633
20
-64.106
11
116.424
21
-63.9946
0
LINE
8
BLACK
6
CONTINUOUS
10
116.424
20
-63.9946
11
116.241
21
-63.8446
0
LINE
8
BLACK
6
CONTINUOUS
10
116.241
20
-63.8446
11
116.091
21
-63.6619
0
LINE
8
BLACK
6
CONTINUOUS
10
116.091
20
-63.6619
11
115.98
21
-63.4534
0
LINE
8
BLACK
6
CONTINUOUS
10
115.98
20
-63.4534
11
115.911
21
-63.2272
0
LINE
8
BLACK
6
CONTINUOUS
10
115.911
20
-63.2272
11
115.888
21
-62.992
0
LINE
8
BLACK
6
CONTINUOUS
10
115.888
20
-62.992
11
115.911
21
-62.7568
0
LINE
8
BLACK
6
CONTINUOUS
10
115.911
20
-62.7568
11
115.98
21
-62.5306
0
LINE
8
BLACK
6
CONTINUOUS
10
115.98
20
-62.5306
11
116.091
21
-62.3221
0
LINE
8
BLACK
6
CONTINUOUS
10
116.091
20
-62.3221
11
116.241
21
-62.1394
0
LINE
8
BLACK
6
CONTINUOUS
10
116.241
20
-62.1394
11
116.424
21
-61.9894
0
LINE
8
BLACK
6
CONTINUOUS
10
116.424
20
-61.9894
11
116.633
21
-61.878
0
LINE
8
BLACK
6
CONTINUOUS
10
116.633
20
-61.878
11
116.859
21
-61.8094
0
LINE
8
BLACK
6
CONTINUOUS
10
116.859
20
-61.8094
11
117.035
21
-61.792
0
LINE
8
BLACK
6
CONTINUOUS
10
117.035
20
-61.792
11
117.153
21
-61.792
0
LINE
8
BLACK
6
CONTINUOUS
10
117.153
20
-61.792
11
117.329
21
-61.8094
0
LINE
8
BLACK
6
CONTINUOUS
10
108.134
20
-64.192
11
105.734
21
-64.192
0
LINE
8
BLACK
6
CONTINUOUS
10
105.734
20
-64.192
11
105.734
21
-61.792
0
LINE
8
BLACK
6
CONTINUOUS
10
105.734
20
-61.792
11
108.134
21
-61.792
0
LINE
8
BLACK
6
CONTINUOUS
10
108.134
20
-61.792
11
108.134
21
-64.192
0
LINE
8
BLACK
6
CONTINUOUS
10
153.319
20
-62.2036
11
153.47
21
-62.2493
0
LINE
8
BLACK
6
CONTINUOUS
10
153.47
20
-62.2493
11
153.609
21
-62.3236
0
LINE
8
BLACK
6
CONTINUOUS
10
153.609
20
-62.3236
11
153.73
21
-62.4236
0
LINE
8
BLACK
6
CONTINUOUS
10
153.73
20
-62.4236
11
153.83
21
-62.5454
0
LINE
8
BLACK
6
CONTINUOUS
10
153.83
20
-62.5454
11
153.905
21
-62.6844
0
LINE
8
BLACK
6
CONTINUOUS
10
153.905
20
-62.6844
11
153.95
21
-62.8352
0
LINE
8
BLACK
6
CONTINUOUS
10
153.95
20
-62.8352
11
153.966
21
-62.992
0
LINE
8
BLACK
6
CONTINUOUS
10
153.966
20
-62.992
11
153.95
21
-63.1488
0
LINE
8
BLACK
6
CONTINUOUS
10
153.95
20
-63.1488
11
153.905
21
-63.2996
0
LINE
8
BLACK
6
CONTINUOUS
10
153.905
20
-63.2996
11
153.83
21
-63.4386
0
LINE
8
BLACK
6
CONTINUOUS
10
153.83
20
-63.4386
11
153.73
21
-63.5604
0
LINE
8
BLACK
6
CONTINUOUS
10
153.73
20
-63.5604
11
153.609
21
-63.6604
0
LINE
8
BLACK
6
CONTINUOUS
10
153.609
20
-63.6604
11
153.47
21
-63.7347
0
LINE
8
BLACK
6
CONTINUOUS
10
153.47
20
-63.7347
11
153.319
21
-63.7804
0
LINE
8
BLACK
6
CONTINUOUS
10
153.319
20
-63.7804
11
153.201
21
-63.792
0
LINE
8
BLACK
6
CONTINUOUS
10
153.201
20
-63.792
11
153.123
21
-63.792
0
LINE
8
BLACK
6
CONTINUOUS
10
153.123
20
-63.792
11
153.005
21
-63.7804
0
LINE
8
BLACK
6
CONTINUOUS
10
153.005
20
-63.7804
11
152.854
21
-63.7347
0
LINE
8
BLACK
6
CONTINUOUS
10
152.854
20
-63.7347
11
152.715
21
-63.6604
0
LINE
8
BLACK
6
CONTINUOUS
10
152.715
20
-63.6604
11
152.594
21
-63.5604
0
LINE
8
BLACK
6
CONTINUOUS
10
152.594
20
-63.5604
11
152.494
21
-63.4386
0
LINE
8
BLACK
6
CONTINUOUS
10
152.494
20
-63.4386
11
152.419
21
-63.2996
0
LINE
8
BLACK
6
CONTINUOUS
10
152.419
20
-63.2996
11
152.374
21
-63.1488
0
LINE
8
BLACK
6
CONTINUOUS
10
152.374
20
-63.1488
11
152.358
21
-62.992
0
LINE
8
BLACK
6
CONTINUOUS
10
152.358
20
-62.992
11
152.374
21
-62.8352
0
LINE
8
BLACK
6
CONTINUOUS
10
152.374
20
-62.8352
11
152.419
21
-62.6844
0
LINE
8
BLACK
6
CONTINUOUS
10
152.419
20
-62.6844
11
152.494
21
-62.5454
0
LINE
8
BLACK
6
CONTINUOUS
10
152.494
20
-62.5454
11
152.594
21
-62.4236
0
LINE
8
BLACK
6
CONTINUOUS
10
152.594
20
-62.4236
11
152.715
21
-62.3236
0
LINE
8
BLACK
6
CONTINUOUS
10
152.715
20
-62.3236
11
152.854
21
-62.2493
0
LINE
8
BLACK
6
CONTINUOUS
10
152.854
20
-62.2493
11
153.005
21
-62.2036
0
LINE
8
BLACK
6
CONTINUOUS
10
153.005
20
-62.2036
11
153.123
21
-62.192
0
LINE
8
BLACK
6
CONTINUOUS
10
153.123
20
-62.192
11
153.201
21
-62.192
0
LINE
8
BLACK
6
CONTINUOUS
10
153.201
20
-62.192
11
153.319
21
-62.2036
0
LINE
8
BLACK
6
CONTINUOUS
10
150.855
20
-62.2227
11
151.001
21
-62.283
0
LINE
8
BLACK
6
CONTINUOUS
10
151.001
20
-62.283
11
151.132
21
-62.3706
0
LINE
8
BLACK
6
CONTINUOUS
10
151.132
20
-62.3706
11
151.243
21
-62.482
0
LINE
8
BLACK
6
CONTINUOUS
10
151.243
20
-62.482
11
151.331
21
-62.6131
0
LINE
8
BLACK
6
CONTINUOUS
10
151.331
20
-62.6131
11
151.391
21
-62.7586
0
LINE
8
BLACK
6
CONTINUOUS
10
151.391
20
-62.7586
11
151.422
21
-62.9132
0
LINE
8
BLACK
6
CONTINUOUS
10
151.422
20
-62.9132
11
151.422
21
-63.0708
0
LINE
8
BLACK
6
CONTINUOUS
10
151.422
20
-63.0708
11
151.391
21
-63.2254
0
LINE
8
BLACK
6
CONTINUOUS
10
151.391
20
-63.2254
11
151.331
21
-63.3709
0
LINE
8
BLACK
6
CONTINUOUS
10
151.331
20
-63.3709
11
151.243
21
-63.502
0
LINE
8
BLACK
6
CONTINUOUS
10
151.243
20
-63.502
11
151.132
21
-63.6134
0
LINE
8
BLACK
6
CONTINUOUS
10
151.132
20
-63.6134
11
151.001
21
-63.701
0
LINE
8
BLACK
6
CONTINUOUS
10
151.001
20
-63.701
11
150.855
21
-63.7613
0
LINE
8
BLACK
6
CONTINUOUS
10
150.855
20
-63.7613
11
150.701
21
-63.792
0
LINE
8
BLACK
6
CONTINUOUS
10
150.701
20
-63.792
11
150.543
21
-63.792
0
LINE
8
BLACK
6
CONTINUOUS
10
150.543
20
-63.792
11
150.389
21
-63.7613
0
LINE
8
BLACK
6
CONTINUOUS
10
150.389
20
-63.7613
11
150.243
21
-63.701
0
LINE
8
BLACK
6
CONTINUOUS
10
150.243
20
-63.701
11
150.112
21
-63.6134
0
LINE
8
BLACK
6
CONTINUOUS
10
150.112
20
-63.6134
11
150.001
21
-63.502
0
LINE
8
BLACK
6
CONTINUOUS
10
150.001
20
-63.502
11
149.913
21
-63.3709
0
LINE
8
BLACK
6
CONTINUOUS
10
149.913
20
-63.3709
11
149.853
21
-63.2254
0
LINE
8
BLACK
6
CONTINUOUS
10
149.853
20
-63.2254
11
149.822
21
-63.0708
0
LINE
8
BLACK
6
CONTINUOUS
10
149.822
20
-63.0708
11
149.822
21
-62.9132
0
LINE
8
BLACK
6
CONTINUOUS
10
149.822
20
-62.9132
11
149.853
21
-62.7586
0
LINE
8
BLACK
6
CONTINUOUS
10
149.853
20
-62.7586
11
149.913
21
-62.6131
0
LINE
8
BLACK
6
CONTINUOUS
10
149.913
20
-62.6131
11
150.001
21
-62.482
0
LINE
8
BLACK
6
CONTINUOUS
10
150.001
20
-62.482
11
150.112
21
-62.3706
0
LINE
8
BLACK
6
CONTINUOUS
10
150.112
20
-62.3706
11
150.243
21
-62.283
0
LINE
8
BLACK
6
CONTINUOUS
10
150.243
20
-62.283
11
150.389
21
-62.2227
0
LINE
8
BLACK
6
CONTINUOUS
10
150.389
20
-62.2227
11
150.543
21
-62.192
0
LINE
8
BLACK
6
CONTINUOUS
10
150.543
20
-62.192
11
150.701
21
-62.192
0
LINE
8
BLACK
6
CONTINUOUS
10
150.701
20
-62.192
11
150.855
21
-62.2227
0
LINE
8
BLACK
6
CONTINUOUS
10
129.919
20
-61.2392
11
130.039
21
-61.2757
0
LINE
8
BLACK
6
CONTINUOUS
10
130.039
20
-61.2757
11
130.15
21
-61.3349
0
LINE
8
BLACK
6
CONTINUOUS
10
130.15
20
-61.3349
11
130.247
21
-61.4145
0
LINE
8
BLACK
6
CONTINUOUS
10
130.247
20
-61.4145
11
130.327
21
-61.5116
0
LINE
8
BLACK
6
CONTINUOUS
10
130.327
20
-61.5116
11
130.386
21
-61.6224
0
LINE
8
BLACK
6
CONTINUOUS
10
130.386
20
-61.6224
11
130.422
21
-61.7425
0
LINE
8
BLACK
6
CONTINUOUS
10
130.422
20
-61.7425
11
130.431
21
-61.8362
0
LINE
8
BLACK
6
CONTINUOUS
10
130.431
20
-61.8362
11
130.431
21
-62.6238
0
LINE
8
BLACK
6
CONTINUOUS
10
130.431
20
-62.6238
11
130.422
21
-62.7175
0
LINE
8
BLACK
6
CONTINUOUS
10
130.422
20
-62.7175
11
130.386
21
-62.8376
0
LINE
8
BLACK
6
CONTINUOUS
10
130.386
20
-62.8376
11
130.327
21
-62.9484
0
LINE
8
BLACK
6
CONTINUOUS
10
130.327
20
-62.9484
11
130.247
21
-63.0455
0
LINE
8
BLACK
6
CONTINUOUS
10
130.247
20
-63.0455
11
130.15
21
-63.1251
0
LINE
8
BLACK
6
CONTINUOUS
10
130.15
20
-63.1251
11
130.039
21
-63.1843
0
LINE
8
BLACK
6
CONTINUOUS
10
130.039
20
-63.1843
11
129.919
21
-63.2208
0
LINE
8
BLACK
6
CONTINUOUS
10
129.919
20
-63.2208
11
129.794
21
-63.2331
0
LINE
8
BLACK
6
CONTINUOUS
10
129.794
20
-63.2331
11
129.669
21
-63.2208
0
LINE
8
BLACK
6
CONTINUOUS
10
129.669
20
-63.2208
11
129.549
21
-63.1843
0
LINE
8
BLACK
6
CONTINUOUS
10
129.549
20
-63.1843
11
129.438
21
-63.1251
0
LINE
8
BLACK
6
CONTINUOUS
10
129.438
20
-63.1251
11
129.341
21
-63.0455
0
LINE
8
BLACK
6
CONTINUOUS
10
129.341
20
-63.0455
11
129.261
21
-62.9484
0
LINE
8
BLACK
6
CONTINUOUS
10
129.261
20
-62.9484
11
129.202
21
-62.8376
0
LINE
8
BLACK
6
CONTINUOUS
10
129.202
20
-62.8376
11
129.166
21
-62.7175
0
LINE
8
BLACK
6
CONTINUOUS
10
129.166
20
-62.7175
11
129.156
21
-62.6238
0
LINE
8
BLACK
6
CONTINUOUS
10
129.156
20
-62.6238
11
129.156
21
-61.8362
0
LINE
8
BLACK
6
CONTINUOUS
10
129.156
20
-61.8362
11
129.166
21
-61.7425
0
LINE
8
BLACK
6
CONTINUOUS
10
129.166
20
-61.7425
11
129.202
21
-61.6224
0
LINE
8
BLACK
6
CONTINUOUS
10
129.202
20
-61.6224
11
129.261
21
-61.5116
0
LINE
8
BLACK
6
CONTINUOUS
10
129.261
20
-61.5116
11
129.341
21
-61.4145
0
LINE
8
BLACK
6
CONTINUOUS
10
129.341
20
-61.4145
11
129.438
21
-61.3349
0
LINE
8
BLACK
6
CONTINUOUS
10
129.438
20
-61.3349
11
129.549
21
-61.2757
0
LINE
8
BLACK
6
CONTINUOUS
10
129.549
20
-61.2757
11
129.669
21
-61.2392
0
LINE
8
BLACK
6
CONTINUOUS
10
129.669
20
-61.2392
11
129.794
21
-61.2269
0
LINE
8
BLACK
6
CONTINUOUS
10
129.794
20
-61.2269
11
129.919
21
-61.2392
0
LINE
8
BLACK
6
CONTINUOUS
10
128.219
20
-61.2392
11
128.339
21
-61.2757
0
LINE
8
BLACK
6
CONTINUOUS
10
128.339
20
-61.2757
11
128.45
21
-61.3349
0
LINE
8
BLACK
6
CONTINUOUS
10
128.45
20
-61.3349
11
128.547
21
-61.4145
0
LINE
8
BLACK
6
CONTINUOUS
10
128.547
20
-61.4145
11
128.627
21
-61.5116
0
LINE
8
BLACK
6
CONTINUOUS
10
128.627
20
-61.5116
11
128.686
21
-61.6224
0
LINE
8
BLACK
6
CONTINUOUS
10
128.686
20
-61.6224
11
128.722
21
-61.7425
0
LINE
8
BLACK
6
CONTINUOUS
10
128.722
20
-61.7425
11
128.731
21
-61.8362
0
LINE
8
BLACK
6
CONTINUOUS
10
128.731
20
-61.8362
11
128.731
21
-62.6238
0
LINE
8
BLACK
6
CONTINUOUS
10
128.731
20
-62.6238
11
128.722
21
-62.7175
0
LINE
8
BLACK
6
CONTINUOUS
10
128.722
20
-62.7175
11
128.686
21
-62.8376
0
LINE
8
BLACK
6
CONTINUOUS
10
128.686
20
-62.8376
11
128.627
21
-62.9484
0
LINE
8
BLACK
6
CONTINUOUS
10
128.627
20
-62.9484
11
128.547
21
-63.0455
0
LINE
8
BLACK
6
CONTINUOUS
10
128.547
20
-63.0455
11
128.45
21
-63.1251
0
LINE
8
BLACK
6
CONTINUOUS
10
128.45
20
-63.1251
11
128.339
21
-63.1843
0
LINE
8
BLACK
6
CONTINUOUS
10
128.339
20
-63.1843
11
128.219
21
-63.2208
0
LINE
8
BLACK
6
CONTINUOUS
10
128.219
20
-63.2208
11
128.094
21
-63.2331
0
LINE
8
BLACK
6
CONTINUOUS
10
128.094
20
-63.2331
11
127.969
21
-63.2208
0
LINE
8
BLACK
6
CONTINUOUS
10
127.969
20
-63.2208
11
127.849
21
-63.1843
0
LINE
8
BLACK
6
CONTINUOUS
10
127.849
20
-63.1843
11
127.738
21
-63.1251
0
LINE
8
BLACK
6
CONTINUOUS
10
127.738
20
-63.1251
11
127.641
21
-63.0455
0
LINE
8
BLACK
6
CONTINUOUS
10
127.641
20
-63.0455
11
127.561
21
-62.9484
0
LINE
8
BLACK
6
CONTINUOUS
10
127.561
20
-62.9484
11
127.502
21
-62.8376
0
LINE
8
BLACK
6
CONTINUOUS
10
127.502
20
-62.8376
11
127.466
21
-62.7175
0
LINE
8
BLACK
6
CONTINUOUS
10
127.466
20
-62.7175
11
127.456
21
-62.6238
0
LINE
8
BLACK
6
CONTINUOUS
10
127.456
20
-62.6238
11
127.456
21
-61.8362
0
LINE
8
BLACK
6
CONTINUOUS
10
127.456
20
-61.8362
11
127.466
21
-61.7425
0
LINE
8
BLACK
6
CONTINUOUS
10
127.466
20
-61.7425
11
127.502
21
-61.6224
0
LINE
8
BLACK
6
CONTINUOUS
10
127.502
20
-61.6224
11
127.561
21
-61.5116
0
LINE
8
BLACK
6
CONTINUOUS
10
127.561
20
-61.5116
11
127.641
21
-61.4145
0
LINE
8
BLACK
6
CONTINUOUS
10
127.641
20
-61.4145
11
127.738
21
-61.3349
0
LINE
8
BLACK
6
CONTINUOUS
10
127.738
20
-61.3349
11
127.849
21
-61.2757
0
LINE
8
BLACK
6
CONTINUOUS
10
127.849
20
-61.2757
11
127.969
21
-61.2392
0
LINE
8
BLACK
6
CONTINUOUS
10
127.969
20
-61.2392
11
128.094
21
-61.2269
0
LINE
8
BLACK
6
CONTINUOUS
10
128.094
20
-61.2269
11
128.219
21
-61.2392
0
LINE
8
BLACK
6
CONTINUOUS
10
126.519
20
-61.2392
11
126.639
21
-61.2757
0
LINE
8
BLACK
6
CONTINUOUS
10
126.639
20
-61.2757
11
126.75
21
-61.3349
0
LINE
8
BLACK
6
CONTINUOUS
10
126.75
20
-61.3349
11
126.847
21
-61.4145
0
LINE
8
BLACK
6
CONTINUOUS
10
126.847
20
-61.4145
11
126.927
21
-61.5116
0
LINE
8
BLACK
6
CONTINUOUS
10
126.927
20
-61.5116
11
126.986
21
-61.6224
0
LINE
8
BLACK
6
CONTINUOUS
10
126.986
20
-61.6224
11
127.022
21
-61.7425
0
LINE
8
BLACK
6
CONTINUOUS
10
127.022
20
-61.7425
11
127.031
21
-61.8362
0
LINE
8
BLACK
6
CONTINUOUS
10
127.031
20
-61.8362
11
127.031
21
-62.6238
0
LINE
8
BLACK
6
CONTINUOUS
10
127.031
20
-62.6238
11
127.022
21
-62.7175
0
LINE
8
BLACK
6
CONTINUOUS
10
127.022
20
-62.7175
11
126.986
21
-62.8376
0
LINE
8
BLACK
6
CONTINUOUS
10
126.986
20
-62.8376
11
126.927
21
-62.9484
0
LINE
8
BLACK
6
CONTINUOUS
10
126.927
20
-62.9484
11
126.847
21
-63.0455
0
LINE
8
BLACK
6
CONTINUOUS
10
126.847
20
-63.0455
11
126.75
21
-63.1251
0
LINE
8
BLACK
6
CONTINUOUS
10
126.75
20
-63.1251
11
126.639
21
-63.1843
0
LINE
8
BLACK
6
CONTINUOUS
10
126.639
20
-63.1843
11
126.519
21
-63.2208
0
LINE
8
BLACK
6
CONTINUOUS
10
126.519
20
-63.2208
11
126.394
21
-63.2331
0
LINE
8
BLACK
6
CONTINUOUS
10
126.394
20
-63.2331
11
126.269
21
-63.2208
0
LINE
8
BLACK
6
CONTINUOUS
10
126.269
20
-63.2208
11
126.149
21
-63.1843
0
LINE
8
BLACK
6
CONTINUOUS
10
126.149
20
-63.1843
11
126.038
21
-63.1251
0
LINE
8
BLACK
6
CONTINUOUS
10
126.038
20
-63.1251
11
125.941
21
-63.0455
0
LINE
8
BLACK
6
CONTINUOUS
10
125.941
20
-63.0455
11
125.861
21
-62.9484
0
LINE
8
BLACK
6
CONTINUOUS
10
125.861
20
-62.9484
11
125.802
21
-62.8376
0
LINE
8
BLACK
6
CONTINUOUS
10
125.802
20
-62.8376
11
125.766
21
-62.7175
0
LINE
8
BLACK
6
CONTINUOUS
10
125.766
20
-62.7175
11
125.756
21
-62.6238
0
LINE
8
BLACK
6
CONTINUOUS
10
125.756
20
-62.6238
11
125.756
21
-61.8362
0
LINE
8
BLACK
6
CONTINUOUS
10
125.756
20
-61.8362
11
125.766
21
-61.7425
0
LINE
8
BLACK
6
CONTINUOUS
10
125.766
20
-61.7425
11
125.802
21
-61.6224
0
LINE
8
BLACK
6
CONTINUOUS
10
125.802
20
-61.6224
11
125.861
21
-61.5116
0
LINE
8
BLACK
6
CONTINUOUS
10
125.861
20
-61.5116
11
125.941
21
-61.4145
0
LINE
8
BLACK
6
CONTINUOUS
10
125.941
20
-61.4145
11
126.038
21
-61.3349
0
LINE
8
BLACK
6
CONTINUOUS
10
126.038
20
-61.3349
11
126.149
21
-61.2757
0
LINE
8
BLACK
6
CONTINUOUS
10
126.149
20
-61.2757
11
126.269
21
-61.2392
0
LINE
8
BLACK
6
CONTINUOUS
10
126.269
20
-61.2392
11
126.394
21
-61.2269
0
LINE
8
BLACK
6
CONTINUOUS
10
126.394
20
-61.2269
11
126.519
21
-61.2392
0
LINE
8
BLACK
6
CONTINUOUS
10
124.819
20
-61.2392
11
124.939
21
-61.2757
0
LINE
8
BLACK
6
CONTINUOUS
10
124.939
20
-61.2757
11
125.05
21
-61.3349
0
LINE
8
BLACK
6
CONTINUOUS
10
125.05
20
-61.3349
11
125.147
21
-61.4145
0
LINE
8
BLACK
6
CONTINUOUS
10
125.147
20
-61.4145
11
125.227
21
-61.5116
0
LINE
8
BLACK
6
CONTINUOUS
10
125.227
20
-61.5116
11
125.286
21
-61.6224
0
LINE
8
BLACK
6
CONTINUOUS
10
125.286
20
-61.6224
11
125.322
21
-61.7425
0
LINE
8
BLACK
6
CONTINUOUS
10
125.322
20
-61.7425
11
125.331
21
-61.8362
0
LINE
8
BLACK
6
CONTINUOUS
10
125.331
20
-61.8362
11
125.331
21
-62.6238
0
LINE
8
BLACK
6
CONTINUOUS
10
125.331
20
-62.6238
11
125.322
21
-62.7175
0
LINE
8
BLACK
6
CONTINUOUS
10
125.322
20
-62.7175
11
125.286
21
-62.8376
0
LINE
8
BLACK
6
CONTINUOUS
10
125.286
20
-62.8376
11
125.227
21
-62.9484
0
LINE
8
BLACK
6
CONTINUOUS
10
125.227
20
-62.9484
11
125.147
21
-63.0455
0
LINE
8
BLACK
6
CONTINUOUS
10
125.147
20
-63.0455
11
125.05
21
-63.1251
0
LINE
8
BLACK
6
CONTINUOUS
10
125.05
20
-63.1251
11
124.939
21
-63.1843
0
LINE
8
BLACK
6
CONTINUOUS
10
124.939
20
-63.1843
11
124.819
21
-63.2208
0
LINE
8
BLACK
6
CONTINUOUS
10
124.819
20
-63.2208
11
124.694
21
-63.2331
0
LINE
8
BLACK
6
CONTINUOUS
10
124.694
20
-63.2331
11
124.569
21
-63.2208
0
LINE
8
BLACK
6
CONTINUOUS
10
124.569
20
-63.2208
11
124.449
21
-63.1843
0
LINE
8
BLACK
6
CONTINUOUS
10
124.449
20
-63.1843
11
124.338
21
-63.1251
0
LINE
8
BLACK
6
CONTINUOUS
10
124.338
20
-63.1251
11
124.241
21
-63.0455
0
LINE
8
BLACK
6
CONTINUOUS
10
124.241
20
-63.0455
11
124.161
21
-62.9484
0
LINE
8
BLACK
6
CONTINUOUS
10
124.161
20
-62.9484
11
124.102
21
-62.8376
0
LINE
8
BLACK
6
CONTINUOUS
10
124.102
20
-62.8376
11
124.066
21
-62.7175
0
LINE
8
BLACK
6
CONTINUOUS
10
124.066
20
-62.7175
11
124.056
21
-62.6238
0
LINE
8
BLACK
6
CONTINUOUS
10
124.056
20
-62.6238
11
124.056
21
-61.8362
0
LINE
8
BLACK
6
CONTINUOUS
10
124.056
20
-61.8362
11
124.066
21
-61.7425
0
LINE
8
BLACK
6
CONTINUOUS
10
124.066
20
-61.7425
11
124.102
21
-61.6224
0
LINE
8
BLACK
6
CONTINUOUS
10
124.102
20
-61.6224
11
124.161
21
-61.5116
0
LINE
8
BLACK
6
CONTINUOUS
10
124.161
20
-61.5116
11
124.241
21
-61.4145
0
LINE
8
BLACK
6
CONTINUOUS
10
124.241
20
-61.4145
11
124.338
21
-61.3349
0
LINE
8
BLACK
6
CONTINUOUS
10
124.338
20
-61.3349
11
124.449
21
-61.2757
0
LINE
8
BLACK
6
CONTINUOUS
10
124.449
20
-61.2757
11
124.569
21
-61.2392
0
LINE
8
BLACK
6
CONTINUOUS
10
124.569
20
-61.2392
11
124.694
21
-61.2269
0
LINE
8
BLACK
6
CONTINUOUS
10
124.694
20
-61.2269
11
124.819
21
-61.2392
0
LINE
8
BLACK
6
CONTINUOUS
10
123.631
20
-63.23
11
122.356
21
-63.23
0
LINE
8
BLACK
6
CONTINUOUS
10
122.356
20
-63.23
11
122.356
21
-61.23
0
LINE
8
BLACK
6
CONTINUOUS
10
122.356
20
-61.23
11
123.631
21
-61.23
0
LINE
8
BLACK
6
CONTINUOUS
10
123.631
20
-61.23
11
123.631
21
-63.23
0
LINE
8
BLACK
6
CONTINUOUS
10
165.03
20
-56.7236
11
165.303
21
-56.8367
0
LINE
8
BLACK
6
CONTINUOUS
10
165.303
20
-56.8367
11
165.548
21
-57.0009
0
LINE
8
BLACK
6
CONTINUOUS
10
165.548
20
-57.0009
11
165.757
21
-57.2098
0
LINE
8
BLACK
6
CONTINUOUS
10
165.757
20
-57.2098
11
165.921
21
-57.4555
0
LINE
8
BLACK
6
CONTINUOUS
10
165.921
20
-57.4555
11
166.034
21
-57.7285
0
LINE
8
BLACK
6
CONTINUOUS
10
166.034
20
-57.7285
11
166.092
21
-58.0183
0
LINE
8
BLACK
6
CONTINUOUS
10
166.092
20
-58.0183
11
166.092
21
-58.3137
0
LINE
8
BLACK
6
CONTINUOUS
10
166.092
20
-58.3137
11
166.034
21
-58.6035
0
LINE
8
BLACK
6
CONTINUOUS
10
166.034
20
-58.6035
11
165.921
21
-58.8765
0
LINE
8
BLACK
6
CONTINUOUS
10
165.921
20
-58.8765
11
165.757
21
-59.1222
0
LINE
8
BLACK
6
CONTINUOUS
10
165.757
20
-59.1222
11
165.548
21
-59.3311
0
LINE
8
BLACK
6
CONTINUOUS
10
165.548
20
-59.3311
11
165.303
21
-59.4953
0
LINE
8
BLACK
6
CONTINUOUS
10
165.303
20
-59.4953
11
165.03
21
-59.6084
0
LINE
8
BLACK
6
CONTINUOUS
10
165.03
20
-59.6084
11
164.74
21
-59.666
0
LINE
8
BLACK
6
CONTINUOUS
10
164.74
20
-59.666
11
164.444
21
-59.666
0
LINE
8
BLACK
6
CONTINUOUS
10
164.444
20
-59.666
11
164.154
21
-59.6084
0
LINE
8
BLACK
6
CONTINUOUS
10
164.154
20
-59.6084
11
163.881
21
-59.4953
0
LINE
8
BLACK
6
CONTINUOUS
10
163.881
20
-59.4953
11
163.636
21
-59.3311
0
LINE
8
BLACK
6
CONTINUOUS
10
163.636
20
-59.3311
11
163.427
21
-59.1222
0
LINE
8
BLACK
6
CONTINUOUS
10
163.427
20
-59.1222
11
163.263
21
-58.8765
0
LINE
8
BLACK
6
CONTINUOUS
10
163.263
20
-58.8765
11
163.15
21
-58.6035
0
LINE
8
BLACK
6
CONTINUOUS
10
163.15
20
-58.6035
11
163.092
21
-58.3137
0
LINE
8
BLACK
6
CONTINUOUS
10
163.092
20
-58.3137
11
163.092
21
-58.0183
0
LINE
8
BLACK
6
CONTINUOUS
10
163.092
20
-58.0183
11
163.15
21
-57.7285
0
LINE
8
BLACK
6
CONTINUOUS
10
163.15
20
-57.7285
11
163.263
21
-57.4555
0
LINE
8
BLACK
6
CONTINUOUS
10
163.263
20
-57.4555
11
163.427
21
-57.2098
0
LINE
8
BLACK
6
CONTINUOUS
10
163.427
20
-57.2098
11
163.636
21
-57.0009
0
LINE
8
BLACK
6
CONTINUOUS
10
163.636
20
-57.0009
11
163.881
21
-56.8367
0
LINE
8
BLACK
6
CONTINUOUS
10
163.881
20
-56.8367
11
164.154
21
-56.7236
0
LINE
8
BLACK
6
CONTINUOUS
10
164.154
20
-56.7236
11
164.444
21
-56.666
0
LINE
8
BLACK
6
CONTINUOUS
10
164.444
20
-56.666
11
164.74
21
-56.666
0
LINE
8
BLACK
6
CONTINUOUS
10
164.74
20
-56.666
11
165.03
21
-56.7236
0
LINE
8
BLACK
6
CONTINUOUS
10
101.322
20
-59.412
11
98.322
21
-59.412
0
LINE
8
BLACK
6
CONTINUOUS
10
98.322
20
-59.412
11
98.322
21
-56.412
0
LINE
8
BLACK
6
CONTINUOUS
10
98.322
20
-56.412
11
101.322
21
-56.412
0
LINE
8
BLACK
6
CONTINUOUS
10
101.322
20
-56.412
11
101.322
21
-59.412
0
LINE
8
BLACK
6
CONTINUOUS
10
109.062
20
-55.2341
11
109.28
21
-55.3246
0
LINE
8
BLACK
6
CONTINUOUS
10
109.28
20
-55.3246
11
109.477
21
-55.4559
0
LINE
8
BLACK
6
CONTINUOUS
10
109.477
20
-55.4559
11
109.644
21
-55.623
0
LINE
8
BLACK
6
CONTINUOUS
10
109.644
20
-55.623
11
109.775
21
-55.8196
0
LINE
8
BLACK
6
CONTINUOUS
10
109.775
20
-55.8196
11
109.866
21
-56.038
0
LINE
8
BLACK
6
CONTINUOUS
10
109.866
20
-56.038
11
109.912
21
-56.2698
0
LINE
8
BLACK
6
CONTINUOUS
10
109.912
20
-56.2698
11
109.912
21
-56.5062
0
LINE
8
BLACK
6
CONTINUOUS
10
109.912
20
-56.5062
11
109.866
21
-56.738
0
LINE
8
BLACK
6
CONTINUOUS
10
109.866
20
-56.738
11
109.775
21
-56.9564
0
LINE
8
BLACK
6
CONTINUOUS
10
109.775
20
-56.9564
11
109.644
21
-57.153
0
LINE
8
BLACK
6
CONTINUOUS
10
109.644
20
-57.153
11
109.477
21
-57.3201
0
LINE
8
BLACK
6
CONTINUOUS
10
109.477
20
-57.3201
11
109.28
21
-57.4514
0
LINE
8
BLACK
6
CONTINUOUS
10
109.28
20
-57.4514
11
109.062
21
-57.5419
0
LINE
8
BLACK
6
CONTINUOUS
10
109.062
20
-57.5419
11
108.83
21
-57.588
0
LINE
8
BLACK
6
CONTINUOUS
10
108.83
20
-57.588
11
108.594
21
-57.588
0
LINE
8
BLACK
6
CONTINUOUS
10
108.594
20
-57.588
11
108.362
21
-57.5419
0
LINE
8
BLACK
6
CONTINUOUS
10
108.362
20
-57.5419
11
108.144
21
-57.4514
0
LINE
8
BLACK
6
CONTINUOUS
10
108.144
20
-57.4514
11
107.947
21
-57.3201
0
LINE
8
BLACK
6
CONTINUOUS
10
107.947
20
-57.3201
11
107.78
21
-57.153
0
LINE
8
BLACK
6
CONTINUOUS
10
107.78
20
-57.153
11
107.649
21
-56.9564
0
LINE
8
BLACK
6
CONTINUOUS
10
107.649
20
-56.9564
11
107.558
21
-56.738
0
LINE
8
BLACK
6
CONTINUOUS
10
107.558
20
-56.738
11
107.512
21
-56.5062
0
LINE
8
BLACK
6
CONTINUOUS
10
107.512
20
-56.5062
11
107.512
21
-56.2698
0
LINE
8
BLACK
6
CONTINUOUS
10
107.512
20
-56.2698
11
107.558
21
-56.038
0
LINE
8
BLACK
6
CONTINUOUS
10
107.558
20
-56.038
11
107.649
21
-55.8196
0
LINE
8
BLACK
6
CONTINUOUS
10
107.649
20
-55.8196
11
107.78
21
-55.623
0
LINE
8
BLACK
6
CONTINUOUS
10
107.78
20
-55.623
11
107.947
21
-55.4559
0
LINE
8
BLACK
6
CONTINUOUS
10
107.947
20
-55.4559
11
108.144
21
-55.3246
0
LINE
8
BLACK
6
CONTINUOUS
10
108.144
20
-55.3246
11
108.362
21
-55.2341
0
LINE
8
BLACK
6
CONTINUOUS
10
108.362
20
-55.2341
11
108.594
21
-55.188
0
LINE
8
BLACK
6
CONTINUOUS
10
108.594
20
-55.188
11
108.83
21
-55.188
0
LINE
8
BLACK
6
CONTINUOUS
10
108.83
20
-55.188
11
109.062
21
-55.2341
0
LINE
8
BLACK
6
CONTINUOUS
10
116.567
20
-55.2054
11
116.793
21
-55.274
0
LINE
8
BLACK
6
CONTINUOUS
10
116.793
20
-55.274
11
117.002
21
-55.3854
0
LINE
8
BLACK
6
CONTINUOUS
10
117.002
20
-55.3854
11
117.185
21
-55.5354
0
LINE
8
BLACK
6
CONTINUOUS
10
117.185
20
-55.5354
11
117.335
21
-55.7181
0
LINE
8
BLACK
6
CONTINUOUS
10
117.335
20
-55.7181
11
117.446
21
-55.9266
0
LINE
8
BLACK
6
CONTINUOUS
10
117.446
20
-55.9266
11
117.515
21
-56.1528
0
LINE
8
BLACK
6
CONTINUOUS
10
117.515
20
-56.1528
11
117.538
21
-56.388
0
LINE
8
BLACK
6
CONTINUOUS
10
117.538
20
-56.388
11
117.515
21
-56.6232
0
LINE
8
BLACK
6
CONTINUOUS
10
117.515
20
-56.6232
11
117.446
21
-56.8494
0
LINE
8
BLACK
6
CONTINUOUS
10
117.446
20
-56.8494
11
117.335
21
-57.0579
0
LINE
8
BLACK
6
CONTINUOUS
10
117.335
20
-57.0579
11
117.185
21
-57.2406
0
LINE
8
BLACK
6
CONTINUOUS
10
117.185
20
-57.2406
11
117.002
21
-57.3906
0
LINE
8
BLACK
6
CONTINUOUS
10
117.002
20
-57.3906
11
116.793
21
-57.502
0
LINE
8
BLACK
6
CONTINUOUS
10
116.793
20
-57.502
11
116.567
21
-57.5706
0
LINE
8
BLACK
6
CONTINUOUS
10
116.567
20
-57.5706
11
116.391
21
-57.588
0
LINE
8
BLACK
6
CONTINUOUS
10
116.391
20
-57.588
11
116.273
21
-57.588
0
LINE
8
BLACK
6
CONTINUOUS
10
116.273
20
-57.588
11
116.097
21
-57.5706
0
LINE
8
BLACK
6
CONTINUOUS
10
116.097
20
-57.5706
11
115.871
21
-57.502
0
LINE
8
BLACK
6
CONTINUOUS
10
115.871
20
-57.502
11
115.662
21
-57.3906
0
LINE
8
BLACK
6
CONTINUOUS
10
115.662
20
-57.3906
11
115.479
21
-57.2406
0
LINE
8
BLACK
6
CONTINUOUS
10
115.479
20
-57.2406
11
115.329
21
-57.0579
0
LINE
8
BLACK
6
CONTINUOUS
10
115.329
20
-57.0579
11
115.218
21
-56.8494
0
LINE
8
BLACK
6
CONTINUOUS
10
115.218
20
-56.8494
11
115.149
21
-56.6232
0
LINE
8
BLACK
6
CONTINUOUS
10
115.149
20
-56.6232
11
115.126
21
-56.388
0
LINE
8
BLACK
6
CONTINUOUS
10
115.126
20
-56.388
11
115.149
21
-56.1528
0
LINE
8
BLACK
6
CONTINUOUS
10
115.149
20
-56.1528
11
115.218
21
-55.9266
0
LINE
8
BLACK
6
CONTINUOUS
10
115.218
20
-55.9266
11
115.329
21
-55.7181
0
LINE
8
BLACK
6
CONTINUOUS
10
115.329
20
-55.7181
11
115.479
21
-55.5354
0
LINE
8
BLACK
6
CONTINUOUS
10
115.479
20
-55.5354
11
115.662
21
-55.3854
0
LINE
8
BLACK
6
CONTINUOUS
10
115.662
20
-55.3854
11
115.871
21
-55.274
0
LINE
8
BLACK
6
CONTINUOUS
10
115.871
20
-55.274
11
116.097
21
-55.2054
0
LINE
8
BLACK
6
CONTINUOUS
10
116.097
20
-55.2054
11
116.273
21
-55.188
0
LINE
8
BLACK
6
CONTINUOUS
10
116.273
20
-55.188
11
116.391
21
-55.188
0
LINE
8
BLACK
6
CONTINUOUS
10
116.391
20
-55.188
11
116.567
21
-55.2054
0
LINE
8
BLACK
6
CONTINUOUS
10
144.761
20
-54.4434
11
144.987
21
-54.512
0
LINE
8
BLACK
6
CONTINUOUS
10
144.987
20
-54.512
11
145.196
21
-54.6234
0
LINE
8
BLACK
6
CONTINUOUS
10
145.196
20
-54.6234
11
145.379
21
-54.7734
0
LINE
8
BLACK
6
CONTINUOUS
10
145.379
20
-54.7734
11
145.529
21
-54.9561
0
LINE
8
BLACK
6
CONTINUOUS
10
145.529
20
-54.9561
11
145.64
21
-55.1646
0
LINE
8
BLACK
6
CONTINUOUS
10
145.64
20
-55.1646
11
145.709
21
-55.3908
0
LINE
8
BLACK
6
CONTINUOUS
10
145.709
20
-55.3908
11
145.732
21
-55.626
0
LINE
8
BLACK
6
CONTINUOUS
10
145.732
20
-55.626
11
145.709
21
-55.8612
0
LINE
8
BLACK
6
CONTINUOUS
10
145.709
20
-55.8612
11
145.64
21
-56.0874
0
LINE
8
BLACK
6
CONTINUOUS
10
145.64
20
-56.0874
11
145.529
21
-56.2959
0
LINE
8
BLACK
6
CONTINUOUS
10
145.529
20
-56.2959
11
145.379
21
-56.4786
0
LINE
8
BLACK
6
CONTINUOUS
10
145.379
20
-56.4786
11
145.196
21
-56.6286
0
LINE
8
BLACK
6
CONTINUOUS
10
145.196
20
-56.6286
11
144.987
21
-56.74
0
LINE
8
BLACK
6
CONTINUOUS
10
144.987
20
-56.74
11
144.761
21
-56.8086
0
LINE
8
BLACK
6
CONTINUOUS
10
144.761
20
-56.8086
11
144.585
21
-56.826
0
LINE
8
BLACK
6
CONTINUOUS
10
144.585
20
-56.826
11
144.467
21
-56.826
0
LINE
8
BLACK
6
CONTINUOUS
10
144.467
20
-56.826
11
144.291
21
-56.8086
0
LINE
8
BLACK
6
CONTINUOUS
10
144.291
20
-56.8086
11
144.065
21
-56.74
0
LINE
8
BLACK
6
CONTINUOUS
10
144.065
20
-56.74
11
143.856
21
-56.6286
0
LINE
8
BLACK
6
CONTINUOUS
10
143.856
20
-56.6286
11
143.673
21
-56.4786
0
LINE
8
BLACK
6
CONTINUOUS
10
143.673
20
-56.4786
11
143.523
21
-56.2959
0
LINE
8
BLACK
6
CONTINUOUS
10
143.523
20
-56.2959
11
143.412
21
-56.0874
0
LINE
8
BLACK
6
CONTINUOUS
10
143.412
20
-56.0874
11
143.343
21
-55.8612
0
LINE
8
BLACK
6
CONTINUOUS
10
143.343
20
-55.8612
11
143.32
21
-55.626
0
LINE
8
BLACK
6
CONTINUOUS
10
143.32
20
-55.626
11
143.343
21
-55.3908
0
LINE
8
BLACK
6
CONTINUOUS
10
143.343
20
-55.3908
11
143.412
21
-55.1646
0
LINE
8
BLACK
6
CONTINUOUS
10
143.412
20
-55.1646
11
143.523
21
-54.9561
0
LINE
8
BLACK
6
CONTINUOUS
10
143.523
20
-54.9561
11
143.673
21
-54.7734
0
LINE
8
BLACK
6
CONTINUOUS
10
143.673
20
-54.7734
11
143.856
21
-54.6234
0
LINE
8
BLACK
6
CONTINUOUS
10
143.856
20
-54.6234
11
144.065
21
-54.512
0
LINE
8
BLACK
6
CONTINUOUS
10
144.065
20
-54.512
11
144.291
21
-54.4434
0
LINE
8
BLACK
6
CONTINUOUS
10
144.291
20
-54.4434
11
144.467
21
-54.426
0
LINE
8
BLACK
6
CONTINUOUS
10
144.467
20
-54.426
11
144.585
21
-54.426
0
LINE
8
BLACK
6
CONTINUOUS
10
144.585
20
-54.426
11
144.761
21
-54.4434
0
LINE
8
BLACK
6
CONTINUOUS
10
135.566
20
-56.826
11
133.166
21
-56.826
0
LINE
8
BLACK
6
CONTINUOUS
10
133.166
20
-56.826
11
133.166
21
-54.426
0
LINE
8
BLACK
6
CONTINUOUS
10
133.166
20
-54.426
11
135.566
21
-54.426
0
LINE
8
BLACK
6
CONTINUOUS
10
135.566
20
-54.426
11
135.566
21
-56.826
0
LINE
8
BLACK
6
CONTINUOUS
10
153.708
20
-56.426
11
152.108
21
-56.426
0
LINE
8
BLACK
6
CONTINUOUS
10
152.108
20
-56.426
11
152.108
21
-54.826
0
LINE
8
BLACK
6
CONTINUOUS
10
152.108
20
-54.826
11
153.708
21
-54.826
0
LINE
8
BLACK
6
CONTINUOUS
10
153.708
20
-54.826
11
153.708
21
-56.426
0
LINE
8
BLACK
6
CONTINUOUS
10
166.092
20
-54.586
11
163.092
21
-54.586
0
LINE
8
BLACK
6
CONTINUOUS
10
163.092
20
-54.586
11
163.092
21
-51.586
0
LINE
8
BLACK
6
CONTINUOUS
10
163.092
20
-51.586
11
166.092
21
-51.586
0
LINE
8
BLACK
6
CONTINUOUS
10
166.092
20
-51.586
11
166.092
21
-54.586
0
LINE
8
BLACK
6
CONTINUOUS
10
153.141
20
-52.8567
11
153.287
21
-52.917
0
LINE
8
BLACK
6
CONTINUOUS
10
153.287
20
-52.917
11
153.418
21
-53.0046
0
LINE
8
BLACK
6
CONTINUOUS
10
153.418
20
-53.0046
11
153.529
21
-53.116
0
LINE
8
BLACK
6
CONTINUOUS
10
153.529
20
-53.116
11
153.617
21
-53.2471
0
LINE
8
BLACK
6
CONTINUOUS
10
153.617
20
-53.2471
11
153.677
21
-53.3926
0
LINE
8
BLACK
6
CONTINUOUS
10
153.677
20
-53.3926
11
153.708
21
-53.5472
0
LINE
8
BLACK
6
CONTINUOUS
10
153.708
20
-53.5472
11
153.708
21
-53.7048
0
LINE
8
BLACK
6
CONTINUOUS
10
153.708
20
-53.7048
11
153.677
21
-53.8594
0
LINE
8
BLACK
6
CONTINUOUS
10
153.677
20
-53.8594
11
153.617
21
-54.0049
0
LINE
8
BLACK
6
CONTINUOUS
10
153.617
20
-54.0049
11
153.529
21
-54.136
0
LINE
8
BLACK
6
CONTINUOUS
10
153.529
20
-54.136
11
153.418
21
-54.2474
0
LINE
8
BLACK
6
CONTINUOUS
10
153.418
20
-54.2474
11
153.287
21
-54.335
0
LINE
8
BLACK
6
CONTINUOUS
10
153.287
20
-54.335
11
153.141
21
-54.3953
0
LINE
8
BLACK
6
CONTINUOUS
10
153.141
20
-54.3953
11
152.987
21
-54.426
0
LINE
8
BLACK
6
CONTINUOUS
10
152.987
20
-54.426
11
152.829
21
-54.426
0
LINE
8
BLACK
6
CONTINUOUS
10
152.829
20
-54.426
11
152.675
21
-54.3953
0
LINE
8
BLACK
6
CONTINUOUS
10
152.675
20
-54.3953
11
152.529
21
-54.335
0
LINE
8
BLACK
6
CONTINUOUS
10
152.529
20
-54.335
11
152.398
21
-54.2474
0
LINE
8
BLACK
6
CONTINUOUS
10
152.398
20
-54.2474
11
152.287
21
-54.136
0
LINE
8
BLACK
6
CONTINUOUS
10
152.287
20
-54.136
11
152.199
21
-54.0049
0
LINE
8
BLACK
6
CONTINUOUS
10
152.199
20
-54.0049
11
152.139
21
-53.8594
0
LINE
8
BLACK
6
CONTINUOUS
10
152.139
20
-53.8594
11
152.108
21
-53.7048
0
LINE
8
BLACK
6
CONTINUOUS
10
152.108
20
-53.7048
11
152.108
21
-53.5472
0
LINE
8
BLACK
6
CONTINUOUS
10
152.108
20
-53.5472
11
152.139
21
-53.3926
0
LINE
8
BLACK
6
CONTINUOUS
10
152.139
20
-53.3926
11
152.199
21
-53.2471
0
LINE
8
BLACK
6
CONTINUOUS
10
152.199
20
-53.2471
11
152.287
21
-53.116
0
LINE
8
BLACK
6
CONTINUOUS
10
152.287
20
-53.116
11
152.398
21
-53.0046
0
LINE
8
BLACK
6
CONTINUOUS
10
152.398
20
-53.0046
11
152.529
21
-52.917
0
LINE
8
BLACK
6
CONTINUOUS
10
152.529
20
-52.917
11
152.675
21
-52.8567
0
LINE
8
BLACK
6
CONTINUOUS
10
152.675
20
-52.8567
11
152.829
21
-52.826
0
LINE
8
BLACK
6
CONTINUOUS
10
152.829
20
-52.826
11
152.987
21
-52.826
0
LINE
8
BLACK
6
CONTINUOUS
10
152.987
20
-52.826
11
153.141
21
-52.8567
0
LINE
8
BLACK
6
CONTINUOUS
10
100.26
20
-51.3896
11
100.533
21
-51.5027
0
LINE
8
BLACK
6
CONTINUOUS
10
100.533
20
-51.5027
11
100.778
21
-51.6669
0
LINE
8
BLACK
6
CONTINUOUS
10
100.778
20
-51.6669
11
100.987
21
-51.8758
0
LINE
8
BLACK
6
CONTINUOUS
10
100.987
20
-51.8758
11
101.151
21
-52.1215
0
LINE
8
BLACK
6
CONTINUOUS
10
101.151
20
-52.1215
11
101.264
21
-52.3945
0
LINE
8
BLACK
6
CONTINUOUS
10
101.264
20
-52.3945
11
101.322
21
-52.6843
0
LINE
8
BLACK
6
CONTINUOUS
10
101.322
20
-52.6843
11
101.322
21
-52.9797
0
LINE
8
BLACK
6
CONTINUOUS
10
101.322
20
-52.9797
11
101.264
21
-53.2695
0
LINE
8
BLACK
6
CONTINUOUS
10
101.264
20
-53.2695
11
101.151
21
-53.5425
0
LINE
8
BLACK
6
CONTINUOUS
10
101.151
20
-53.5425
11
100.987
21
-53.7882
0
LINE
8
BLACK
6
CONTINUOUS
10
100.987
20
-53.7882
11
100.778
21
-53.9971
0
LINE
8
BLACK
6
CONTINUOUS
10
100.778
20
-53.9971
11
100.533
21
-54.1613
0
LINE
8
BLACK
6
CONTINUOUS
10
100.533
20
-54.1613
11
100.26
21
-54.2744
0
LINE
8
BLACK
6
CONTINUOUS
10
100.26
20
-54.2744
11
99.9697
21
-54.332
0
LINE
8
BLACK
6
CONTINUOUS
10
99.9697
20
-54.332
11
99.6743
21
-54.332
0
LINE
8
BLACK
6
CONTINUOUS
10
99.6743
20
-54.332
11
99.3845
21
-54.2744
0
LINE
8
BLACK
6
CONTINUOUS
10
99.3845
20
-54.2744
11
99.1115
21
-54.1613
0
LINE
8
BLACK
6
CONTINUOUS
10
99.1115
20
-54.1613
11
98.8658
21
-53.9971
0
LINE
8
BLACK
6
CONTINUOUS
10
98.8658
20
-53.9971
11
98.6569
21
-53.7882
0
LINE
8
BLACK
6
CONTINUOUS
10
98.6569
20
-53.7882
11
98.4927
21
-53.5425
0
LINE
8
BLACK
6
CONTINUOUS
10
98.4927
20
-53.5425
11
98.3796
21
-53.2695
0
LINE
8
BLACK
6
CONTINUOUS
10
98.3796
20
-53.2695
11
98.322
21
-52.9797
0
LINE
8
BLACK
6
CONTINUOUS
10
98.322
20
-52.9797
11
98.322
21
-52.6843
0
LINE
8
BLACK
6
CONTINUOUS
10
98.322
20
-52.6843
11
98.3796
21
-52.3945
0
LINE
8
BLACK
6
CONTINUOUS
10
98.3796
20
-52.3945
11
98.4927
21
-52.1215
0
LINE
8
BLACK
6
CONTINUOUS
10
98.4927
20
-52.1215
11
98.6569
21
-51.8758
0
LINE
8
BLACK
6
CONTINUOUS
10
98.6569
20
-51.8758
11
98.8658
21
-51.6669
0
LINE
8
BLACK
6
CONTINUOUS
10
98.8658
20
-51.6669
11
99.1115
21
-51.5027
0
LINE
8
BLACK
6
CONTINUOUS
10
99.1115
20
-51.5027
11
99.3845
21
-51.3896
0
LINE
8
BLACK
6
CONTINUOUS
10
99.3845
20
-51.3896
11
99.6743
21
-51.332
0
LINE
8
BLACK
6
CONTINUOUS
10
99.6743
20
-51.332
11
99.9697
21
-51.332
0
LINE
8
BLACK
6
CONTINUOUS
10
99.9697
20
-51.332
11
100.26
21
-51.3896
0
LINE
8
BLACK
6
CONTINUOUS
10
123.787
20
-49.1726
11
123.95
21
-49.2404
0
LINE
8
BLACK
6
CONTINUOUS
10
123.95
20
-49.2404
11
124.098
21
-49.3389
0
LINE
8
BLACK
6
CONTINUOUS
10
124.098
20
-49.3389
11
124.223
21
-49.4643
0
LINE
8
BLACK
6
CONTINUOUS
10
124.223
20
-49.4643
11
124.322
21
-49.6117
0
LINE
8
BLACK
6
CONTINUOUS
10
124.322
20
-49.6117
11
124.389
21
-49.7755
0
LINE
8
BLACK
6
CONTINUOUS
10
124.389
20
-49.7755
11
124.424
21
-49.9494
0
LINE
8
BLACK
6
CONTINUOUS
10
124.424
20
-49.9494
11
124.424
21
-50.1266
0
LINE
8
BLACK
6
CONTINUOUS
10
124.424
20
-50.1266
11
124.389
21
-50.3005
0
LINE
8
BLACK
6
CONTINUOUS
10
124.389
20
-50.3005
11
124.322
21
-50.4643
0
LINE
8
BLACK
6
CONTINUOUS
10
124.322
20
-50.4643
11
124.223
21
-50.6117
0
LINE
8
BLACK
6
CONTINUOUS
10
124.223
20
-50.6117
11
124.098
21
-50.7371
0
LINE
8
BLACK
6
CONTINUOUS
10
124.098
20
-50.7371
11
123.95
21
-50.8356
0
LINE
8
BLACK
6
CONTINUOUS
10
123.95
20
-50.8356
11
123.787
21
-50.9034
0
LINE
8
BLACK
6
CONTINUOUS
10
123.787
20
-50.9034
11
123.613
21
-50.938
0
LINE
8
BLACK
6
CONTINUOUS
10
123.613
20
-50.938
11
123.435
21
-50.938
0
LINE
8
BLACK
6
CONTINUOUS
10
123.435
20
-50.938
11
123.261
21
-50.9034
0
LINE
8
BLACK
6
CONTINUOUS
10
123.261
20
-50.9034
11
123.098
21
-50.8356
0
LINE
8
BLACK
6
CONTINUOUS
10
123.098
20
-50.8356
11
122.95
21
-50.7371
0
LINE
8
BLACK
6
CONTINUOUS
10
122.95
20
-50.7371
11
122.825
21
-50.6117
0
LINE
8
BLACK
6
CONTINUOUS
10
122.825
20
-50.6117
11
122.726
21
-50.4643
0
LINE
8
BLACK
6
CONTINUOUS
10
122.726
20
-50.4643
11
122.659
21
-50.3005
0
LINE
8
BLACK
6
CONTINUOUS
10
122.659
20
-50.3005
11
122.624
21
-50.1266
0
LINE
8
BLACK
6
CONTINUOUS
10
122.624
20
-50.1266
11
122.624
21
-49.9494
0
LINE
8
BLACK
6
CONTINUOUS
10
122.624
20
-49.9494
11
122.659
21
-49.7755
0
LINE
8
BLACK
6
CONTINUOUS
10
122.659
20
-49.7755
11
122.726
21
-49.6117
0
LINE
8
BLACK
6
CONTINUOUS
10
122.726
20
-49.6117
11
122.825
21
-49.4643
0
LINE
8
BLACK
6
CONTINUOUS
10
122.825
20
-49.4643
11
122.95
21
-49.3389
0
LINE
8
BLACK
6
CONTINUOUS
10
122.95
20
-49.3389
11
123.098
21
-49.2404
0
LINE
8
BLACK
6
CONTINUOUS
10
123.098
20
-49.2404
11
123.261
21
-49.1726
0
LINE
8
BLACK
6
CONTINUOUS
10
123.261
20
-49.1726
11
123.435
21
-49.138
0
LINE
8
BLACK
6
CONTINUOUS
10
123.435
20
-49.138
11
123.613
21
-49.138
0
LINE
8
BLACK
6
CONTINUOUS
10
123.613
20
-49.138
11
123.787
21
-49.1726
0
LINE
8
BLACK
6
CONTINUOUS
10
126.287
20
-49.1726
11
126.45
21
-49.2404
0
LINE
8
BLACK
6
CONTINUOUS
10
126.45
20
-49.2404
11
126.598
21
-49.3389
0
LINE
8
BLACK
6
CONTINUOUS
10
126.598
20
-49.3389
11
126.723
21
-49.4643
0
LINE
8
BLACK
6
CONTINUOUS
10
126.723
20
-49.4643
11
126.822
21
-49.6117
0
LINE
8
BLACK
6
CONTINUOUS
10
126.822
20
-49.6117
11
126.889
21
-49.7755
0
LINE
8
BLACK
6
CONTINUOUS
10
126.889
20
-49.7755
11
126.924
21
-49.9494
0
LINE
8
BLACK
6
CONTINUOUS
10
126.924
20
-49.9494
11
126.924
21
-50.1266
0
LINE
8
BLACK
6
CONTINUOUS
10
126.924
20
-50.1266
11
126.889
21
-50.3005
0
LINE
8
BLACK
6
CONTINUOUS
10
126.889
20
-50.3005
11
126.822
21
-50.4643
0
LINE
8
BLACK
6
CONTINUOUS
10
126.822
20
-50.4643
11
126.723
21
-50.6117
0
LINE
8
BLACK
6
CONTINUOUS
10
126.723
20
-50.6117
11
126.598
21
-50.7371
0
LINE
8
BLACK
6
CONTINUOUS
10
126.598
20
-50.7371
11
126.45
21
-50.8356
0
LINE
8
BLACK
6
CONTINUOUS
10
126.45
20
-50.8356
11
126.287
21
-50.9034
0
LINE
8
BLACK
6
CONTINUOUS
10
126.287
20
-50.9034
11
126.113
21
-50.938
0
LINE
8
BLACK
6
CONTINUOUS
10
126.113
20
-50.938
11
125.935
21
-50.938
0
LINE
8
BLACK
6
CONTINUOUS
10
125.935
20
-50.938
11
125.761
21
-50.9034
0
LINE
8
BLACK
6
CONTINUOUS
10
125.761
20
-50.9034
11
125.598
21
-50.8356
0
LINE
8
BLACK
6
CONTINUOUS
10
125.598
20
-50.8356
11
125.45
21
-50.7371
0
LINE
8
BLACK
6
CONTINUOUS
10
125.45
20
-50.7371
11
125.325
21
-50.6117
0
LINE
8
BLACK
6
CONTINUOUS
10
125.325
20
-50.6117
11
125.226
21
-50.4643
0
LINE
8
BLACK
6
CONTINUOUS
10
125.226
20
-50.4643
11
125.159
21
-50.3005
0
LINE
8
BLACK
6
CONTINUOUS
10
125.159
20
-50.3005
11
125.124
21
-50.1266
0
LINE
8
BLACK
6
CONTINUOUS
10
125.124
20
-50.1266
11
125.124
21
-49.9494
0
LINE
8
BLACK
6
CONTINUOUS
10
125.124
20
-49.9494
11
125.159
21
-49.7755
0
LINE
8
BLACK
6
CONTINUOUS
10
125.159
20
-49.7755
11
125.226
21
-49.6117
0
LINE
8
BLACK
6
CONTINUOUS
10
125.226
20
-49.6117
11
125.325
21
-49.4643
0
LINE
8
BLACK
6
CONTINUOUS
10
125.325
20
-49.4643
11
125.45
21
-49.3389
0
LINE
8
BLACK
6
CONTINUOUS
10
125.45
20
-49.3389
11
125.598
21
-49.2404
0
LINE
8
BLACK
6
CONTINUOUS
10
125.598
20
-49.2404
11
125.761
21
-49.1726
0
LINE
8
BLACK
6
CONTINUOUS
10
125.761
20
-49.1726
11
125.935
21
-49.138
0
LINE
8
BLACK
6
CONTINUOUS
10
125.935
20
-49.138
11
126.113
21
-49.138
0
LINE
8
BLACK
6
CONTINUOUS
10
126.113
20
-49.138
11
126.287
21
-49.1726
0
LINE
8
BLACK
6
CONTINUOUS
10
128.787
20
-49.1726
11
128.95
21
-49.2404
0
LINE
8
BLACK
6
CONTINUOUS
10
128.95
20
-49.2404
11
129.098
21
-49.3389
0
LINE
8
BLACK
6
CONTINUOUS
10
129.098
20
-49.3389
11
129.223
21
-49.4643
0
LINE
8
BLACK
6
CONTINUOUS
10
129.223
20
-49.4643
11
129.322
21
-49.6117
0
LINE
8
BLACK
6
CONTINUOUS
10
129.322
20
-49.6117
11
129.389
21
-49.7755
0
LINE
8
BLACK
6
CONTINUOUS
10
129.389
20
-49.7755
11
129.424
21
-49.9494
0
LINE
8
BLACK
6
CONTINUOUS
10
129.424
20
-49.9494
11
129.424
21
-50.1266
0
LINE
8
BLACK
6
CONTINUOUS
10
129.424
20
-50.1266
11
129.389
21
-50.3005
0
LINE
8
BLACK
6
CONTINUOUS
10
129.389
20
-50.3005
11
129.322
21
-50.4643
0
LINE
8
BLACK
6
CONTINUOUS
10
129.322
20
-50.4643
11
129.223
21
-50.6117
0
LINE
8
BLACK
6
CONTINUOUS
10
129.223
20
-50.6117
11
129.098
21
-50.7371
0
LINE
8
BLACK
6
CONTINUOUS
10
129.098
20
-50.7371
11
128.95
21
-50.8356
0
LINE
8
BLACK
6
CONTINUOUS
10
128.95
20
-50.8356
11
128.787
21
-50.9034
0
LINE
8
BLACK
6
CONTINUOUS
10
128.787
20
-50.9034
11
128.613
21
-50.938
0
LINE
8
BLACK
6
CONTINUOUS
10
128.613
20
-50.938
11
128.435
21
-50.938
0
LINE
8
BLACK
6
CONTINUOUS
10
128.435
20
-50.938
11
128.261
21
-50.9034
0
LINE
8
BLACK
6
CONTINUOUS
10
128.261
20
-50.9034
11
128.098
21
-50.8356
0
LINE
8
BLACK
6
CONTINUOUS
10
128.098
20
-50.8356
11
127.95
21
-50.7371
0
LINE
8
BLACK
6
CONTINUOUS
10
127.95
20
-50.7371
11
127.825
21
-50.6117
0
LINE
8
BLACK
6
CONTINUOUS
10
127.825
20
-50.6117
11
127.726
21
-50.4643
0
LINE
8
BLACK
6
CONTINUOUS
10
127.726
20
-50.4643
11
127.659
21
-50.3005
0
LINE
8
BLACK
6
CONTINUOUS
10
127.659
20
-50.3005
11
127.624
21
-50.1266
0
LINE
8
BLACK
6
CONTINUOUS
10
127.624
20
-50.1266
11
127.624
21
-49.9494
0
LINE
8
BLACK
6
CONTINUOUS
10
127.624
20
-49.9494
11
127.659
21
-49.7755
0
LINE
8
BLACK
6
CONTINUOUS
10
127.659
20
-49.7755
11
127.726
21
-49.6117
0
LINE
8
BLACK
6
CONTINUOUS
10
127.726
20
-49.6117
11
127.825
21
-49.4643
0
LINE
8
BLACK
6
CONTINUOUS
10
127.825
20
-49.4643
11
127.95
21
-49.3389
0
LINE
8
BLACK
6
CONTINUOUS
10
127.95
20
-49.3389
11
128.098
21
-49.2404
0
LINE
8
BLACK
6
CONTINUOUS
10
128.098
20
-49.2404
11
128.261
21
-49.1726
0
LINE
8
BLACK
6
CONTINUOUS
10
128.261
20
-49.1726
11
128.435
21
-49.138
0
LINE
8
BLACK
6
CONTINUOUS
10
128.435
20
-49.138
11
128.613
21
-49.138
0
LINE
8
BLACK
6
CONTINUOUS
10
128.613
20
-49.138
11
128.787
21
-49.1726
0
LINE
8
BLACK
6
CONTINUOUS
10
153.808
20
-50.176
11
152.008
21
-50.176
0
LINE
8
BLACK
6
CONTINUOUS
10
152.008
20
-50.176
11
152.008
21
-48.376
0
LINE
8
BLACK
6
CONTINUOUS
10
152.008
20
-48.376
11
153.808
21
-48.376
0
LINE
8
BLACK
6
CONTINUOUS
10
153.808
20
-48.376
11
153.808
21
-50.176
0
LINE
8
BLACK
6
CONTINUOUS
10
116.849
20
-48.1566
11
117.012
21
-48.2244
0
LINE
8
BLACK
6
CONTINUOUS
10
117.012
20
-48.2244
11
117.16
21
-48.3229
0
LINE
8
BLACK
6
CONTINUOUS
10
117.16
20
-48.3229
11
117.285
21
-48.4483
0
LINE
8
BLACK
6
CONTINUOUS
10
117.285
20
-48.4483
11
117.384
21
-48.5957
0
LINE
8
BLACK
6
CONTINUOUS
10
117.384
20
-48.5957
11
117.451
21
-48.7595
0
LINE
8
BLACK
6
CONTINUOUS
10
117.451
20
-48.7595
11
117.486
21
-48.9334
0
LINE
8
BLACK
6
CONTINUOUS
10
117.486
20
-48.9334
11
117.486
21
-49.1106
0
LINE
8
BLACK
6
CONTINUOUS
10
117.486
20
-49.1106
11
117.451
21
-49.2845
0
LINE
8
BLACK
6
CONTINUOUS
10
117.451
20
-49.2845
11
117.384
21
-49.4483
0
LINE
8
BLACK
6
CONTINUOUS
10
117.384
20
-49.4483
11
117.285
21
-49.5957
0
LINE
8
BLACK
6
CONTINUOUS
10
117.285
20
-49.5957
11
117.16
21
-49.7211
0
LINE
8
BLACK
6
CONTINUOUS
10
117.16
20
-49.7211
11
117.012
21
-49.8196
0
LINE
8
BLACK
6
CONTINUOUS
10
117.012
20
-49.8196
11
116.849
21
-49.8874
0
LINE
8
BLACK
6
CONTINUOUS
10
116.849
20
-49.8874
11
116.675
21
-49.922
0
LINE
8
BLACK
6
CONTINUOUS
10
116.675
20
-49.922
11
116.497
21
-49.922
0
LINE
8
BLACK
6
CONTINUOUS
10
116.497
20
-49.922
11
116.323
21
-49.8874
0
LINE
8
BLACK
6
CONTINUOUS
10
116.323
20
-49.8874
11
116.16
21
-49.8196
0
LINE
8
BLACK
6
CONTINUOUS
10
116.16
20
-49.8196
11
116.012
21
-49.7211
0
LINE
8
BLACK
6
CONTINUOUS
10
116.012
20
-49.7211
11
115.887
21
-49.5957
0
LINE
8
BLACK
6
CONTINUOUS
10
115.887
20
-49.5957
11
115.788
21
-49.4483
0
LINE
8
BLACK
6
CONTINUOUS
10
115.788
20
-49.4483
11
115.721
21
-49.2845
0
LINE
8
BLACK
6
CONTINUOUS
10
115.721
20
-49.2845
11
115.686
21
-49.1106
0
LINE
8
BLACK
6
CONTINUOUS
10
115.686
20
-49.1106
11
115.686
21
-48.9334
0
LINE
8
BLACK
6
CONTINUOUS
10
115.686
20
-48.9334
11
115.721
21
-48.7595
0
LINE
8
BLACK
6
CONTINUOUS
10
115.721
20
-48.7595
11
115.788
21
-48.5957
0
LINE
8
BLACK
6
CONTINUOUS
10
115.788
20
-48.5957
11
115.887
21
-48.4483
0
LINE
8
BLACK
6
CONTINUOUS
10
115.887
20
-48.4483
11
116.012
21
-48.3229
0
LINE
8
BLACK
6
CONTINUOUS
10
116.012
20
-48.3229
11
116.16
21
-48.2244
0
LINE
8
BLACK
6
CONTINUOUS
10
116.16
20
-48.2244
11
116.323
21
-48.1566
0
LINE
8
BLACK
6
CONTINUOUS
10
116.323
20
-48.1566
11
116.497
21
-48.122
0
LINE
8
BLACK
6
CONTINUOUS
10
116.497
20
-48.122
11
116.675
21
-48.122
0
LINE
8
BLACK
6
CONTINUOUS
10
116.675
20
-48.122
11
116.849
21
-48.1566
0
LINE
8
BLACK
6
CONTINUOUS
10
114.946
20
-49.922
11
113.146
21
-49.922
0
LINE
8
BLACK
6
CONTINUOUS
10
113.146
20
-49.922
11
113.146
21
-48.122
0
LINE
8
BLACK
6
CONTINUOUS
10
113.146
20
-48.122
11
114.946
21
-48.122
0
LINE
8
BLACK
6
CONTINUOUS
10
114.946
20
-48.122
11
114.946
21
-49.922
0
LINE
8
BLACK
6
CONTINUOUS
10
136.494
20
-47.3601
11
136.712
21
-47.4506
0
LINE
8
BLACK
6
CONTINUOUS
10
136.712
20
-47.4506
11
136.909
21
-47.5819
0
LINE
8
BLACK
6
CONTINUOUS
10
136.909
20
-47.5819
11
137.076
21
-47.749
0
LINE
8
BLACK
6
CONTINUOUS
10
137.076
20
-47.749
11
137.207
21
-47.9456
0
LINE
8
BLACK
6
CONTINUOUS
10
137.207
20
-47.9456
11
137.298
21
-48.164
0
LINE
8
BLACK
6
CONTINUOUS
10
137.298
20
-48.164
11
137.344
21
-48.3958
0
LINE
8
BLACK
6
CONTINUOUS
10
137.344
20
-48.3958
11
137.344
21
-48.6322
0
LINE
8
BLACK
6
CONTINUOUS
10
137.344
20
-48.6322
11
137.298
21
-48.864
0
LINE
8
BLACK
6
CONTINUOUS
10
137.298
20
-48.864
11
137.207
21
-49.0824
0
LINE
8
BLACK
6
CONTINUOUS
10
137.207
20
-49.0824
11
137.076
21
-49.279
0
LINE
8
BLACK
6
CONTINUOUS
10
137.076
20
-49.279
11
136.909
21
-49.4461
0
LINE
8
BLACK
6
CONTINUOUS
10
136.909
20
-49.4461
11
136.712
21
-49.5774
0
LINE
8
BLACK
6
CONTINUOUS
10
136.712
20
-49.5774
11
136.494
21
-49.6679
0
LINE
8
BLACK
6
CONTINUOUS
10
136.494
20
-49.6679
11
136.262
21
-49.714
0
LINE
8
BLACK
6
CONTINUOUS
10
136.262
20
-49.714
11
136.026
21
-49.714
0
LINE
8
BLACK
6
CONTINUOUS
10
136.026
20
-49.714
11
135.794
21
-49.6679
0
LINE
8
BLACK
6
CONTINUOUS
10
135.794
20
-49.6679
11
135.576
21
-49.5774
0
LINE
8
BLACK
6
CONTINUOUS
10
135.576
20
-49.5774
11
135.379
21
-49.4461
0
LINE
8
BLACK
6
CONTINUOUS
10
135.379
20
-49.4461
11
135.212
21
-49.279
0
LINE
8
BLACK
6
CONTINUOUS
10
135.212
20
-49.279
11
135.081
21
-49.0824
0
LINE
8
BLACK
6
CONTINUOUS
10
135.081
20
-49.0824
11
134.99
21
-48.864
0
LINE
8
BLACK
6
CONTINUOUS
10
134.99
20
-48.864
11
134.944
21
-48.6322
0
LINE
8
BLACK
6
CONTINUOUS
10
134.944
20
-48.6322
11
134.944
21
-48.3958
0
LINE
8
BLACK
6
CONTINUOUS
10
134.944
20
-48.3958
11
134.99
21
-48.164
0
LINE
8
BLACK
6
CONTINUOUS
10
134.99
20
-48.164
11
135.081
21
-47.9456
0
LINE
8
BLACK
6
CONTINUOUS
10
135.081
20
-47.9456
11
135.212
21
-47.749
0
LINE
8
BLACK
6
CONTINUOUS
10
135.212
20
-47.749
11
135.379
21
-47.5819
0
LINE
8
BLACK
6
CONTINUOUS
10
135.379
20
-47.5819
11
135.576
21
-47.4506
0
LINE
8
BLACK
6
CONTINUOUS
10
135.576
20
-47.4506
11
135.794
21
-47.3601
0
LINE
8
BLACK
6
CONTINUOUS
10
135.794
20
-47.3601
11
136.026
21
-47.314
0
LINE
8
BLACK
6
CONTINUOUS
10
136.026
20
-47.314
11
136.262
21
-47.314
0
LINE
8
BLACK
6
CONTINUOUS
10
136.262
20
-47.314
11
136.494
21
-47.3601
0
LINE
8
BLACK
6
CONTINUOUS
10
143.999
20
-47.3314
11
144.225
21
-47.4
0
LINE
8
BLACK
6
CONTINUOUS
10
144.225
20
-47.4
11
144.434
21
-47.5114
0
LINE
8
BLACK
6
CONTINUOUS
10
144.434
20
-47.5114
11
144.617
21
-47.6614
0
LINE
8
BLACK
6
CONTINUOUS
10
144.617
20
-47.6614
11
144.767
21
-47.8441
0
LINE
8
BLACK
6
CONTINUOUS
10
144.767
20
-47.8441
11
144.878
21
-48.0526
0
LINE
8
BLACK
6
CONTINUOUS
10
144.878
20
-48.0526
11
144.947
21
-48.2788
0
LINE
8
BLACK
6
CONTINUOUS
10
144.947
20
-48.2788
11
144.97
21
-48.514
0
LINE
8
BLACK
6
CONTINUOUS
10
144.97
20
-48.514
11
144.947
21
-48.7492
0
LINE
8
BLACK
6
CONTINUOUS
10
144.947
20
-48.7492
11
144.878
21
-48.9754
0
LINE
8
BLACK
6
CONTINUOUS
10
144.878
20
-48.9754
11
144.767
21
-49.1839
0
LINE
8
BLACK
6
CONTINUOUS
10
144.767
20
-49.1839
11
144.617
21
-49.3666
0
LINE
8
BLACK
6
CONTINUOUS
10
144.617
20
-49.3666
11
144.434
21
-49.5166
0
LINE
8
BLACK
6
CONTINUOUS
10
144.434
20
-49.5166
11
144.225
21
-49.628
0
LINE
8
BLACK
6
CONTINUOUS
10
144.225
20
-49.628
11
143.999
21
-49.6966
0
LINE
8
BLACK
6
CONTINUOUS
10
143.999
20
-49.6966
11
143.823
21
-49.714
0
LINE
8
BLACK
6
CONTINUOUS
10
143.823
20
-49.714
11
143.705
21
-49.714
0
LINE
8
BLACK
6
CONTINUOUS
10
143.705
20
-49.714
11
143.529
21
-49.6966
0
LINE
8
BLACK
6
CONTINUOUS
10
143.529
20
-49.6966
11
143.303
21
-49.628
0
LINE
8
BLACK
6
CONTINUOUS
10
143.303
20
-49.628
11
143.094
21
-49.5166
0
LINE
8
BLACK
6
CONTINUOUS
10
143.094
20
-49.5166
11
142.911
21
-49.3666
0
LINE
8
BLACK
6
CONTINUOUS
10
142.911
20
-49.3666
11
142.761
21
-49.1839
0
LINE
8
BLACK
6
CONTINUOUS
10
142.761
20
-49.1839
11
142.65
21
-48.9754
0
LINE
8
BLACK
6
CONTINUOUS
10
142.65
20
-48.9754
11
142.581
21
-48.7492
0
LINE
8
BLACK
6
CONTINUOUS
10
142.581
20
-48.7492
11
142.558
21
-48.514
0
LINE
8
BLACK
6
CONTINUOUS
10
142.558
20
-48.514
11
142.581
21
-48.2788
0
LINE
8
BLACK
6
CONTINUOUS
10
142.581
20
-48.2788
11
142.65
21
-48.0526
0
LINE
8
BLACK
6
CONTINUOUS
10
142.65
20
-48.0526
11
142.761
21
-47.8441
0
LINE
8
BLACK
6
CONTINUOUS
10
142.761
20
-47.8441
11
142.911
21
-47.6614
0
LINE
8
BLACK
6
CONTINUOUS
10
142.911
20
-47.6614
11
143.094
21
-47.5114
0
LINE
8
BLACK
6
CONTINUOUS
10
143.094
20
-47.5114
11
143.303
21
-47.4
0
LINE
8
BLACK
6
CONTINUOUS
10
143.303
20
-47.4
11
143.529
21
-47.3314
0
LINE
8
BLACK
6
CONTINUOUS
10
143.529
20
-47.3314
11
143.705
21
-47.314
0
LINE
8
BLACK
6
CONTINUOUS
10
143.705
20
-47.314
11
143.823
21
-47.314
0
LINE
8
BLACK
6
CONTINUOUS
10
143.823
20
-47.314
11
143.999
21
-47.3314
0
LINE
8
BLACK
6
CONTINUOUS
10
107.199
20
-47.9987
11
107.345
21
-48.059
0
LINE
8
BLACK
6
CONTINUOUS
10
107.345
20
-48.059
11
107.476
21
-48.1466
0
LINE
8
BLACK
6
CONTINUOUS
10
107.476
20
-48.1466
11
107.587
21
-48.258
0
LINE
8
BLACK
6
CONTINUOUS
10
107.587
20
-48.258
11
107.675
21
-48.3891
0
LINE
8
BLACK
6
CONTINUOUS
10
107.675
20
-48.3891
11
107.735
21
-48.5346
0
LINE
8
BLACK
6
CONTINUOUS
10
107.735
20
-48.5346
11
107.766
21
-48.6892
0
LINE
8
BLACK
6
CONTINUOUS
10
107.766
20
-48.6892
11
107.766
21
-48.8468
0
LINE
8
BLACK
6
CONTINUOUS
10
107.766
20
-48.8468
11
107.735
21
-49.0014
0
LINE
8
BLACK
6
CONTINUOUS
10
107.735
20
-49.0014
11
107.675
21
-49.1469
0
LINE
8
BLACK
6
CONTINUOUS
10
107.675
20
-49.1469
11
107.587
21
-49.278
0
LINE
8
BLACK
6
CONTINUOUS
10
107.587
20
-49.278
11
107.476
21
-49.3894
0
LINE
8
BLACK
6
CONTINUOUS
10
107.476
20
-49.3894
11
107.345
21
-49.477
0
LINE
8
BLACK
6
CONTINUOUS
10
107.345
20
-49.477
11
107.199
21
-49.5373
0
LINE
8
BLACK
6
CONTINUOUS
10
107.199
20
-49.5373
11
107.045
21
-49.568
0
LINE
8
BLACK
6
CONTINUOUS
10
107.045
20
-49.568
11
106.887
21
-49.568
0
LINE
8
BLACK
6
CONTINUOUS
10
106.887
20
-49.568
11
106.733
21
-49.5373
0
LINE
8
BLACK
6
CONTINUOUS
10
106.733
20
-49.5373
11
106.587
21
-49.477
0
LINE
8
BLACK
6
CONTINUOUS
10
106.587
20
-49.477
11
106.456
21
-49.3894
0
LINE
8
BLACK
6
CONTINUOUS
10
106.456
20
-49.3894
11
106.345
21
-49.278
0
LINE
8
BLACK
6
CONTINUOUS
10
106.345
20
-49.278
11
106.257
21
-49.1469
0
LINE
8
BLACK
6
CONTINUOUS
10
106.257
20
-49.1469
11
106.197
21
-49.0014
0
LINE
8
BLACK
6
CONTINUOUS
10
106.197
20
-49.0014
11
106.166
21
-48.8468
0
LINE
8
BLACK
6
CONTINUOUS
10
106.166
20
-48.8468
11
106.166
21
-48.6892
0
LINE
8
BLACK
6
CONTINUOUS
10
106.166
20
-48.6892
11
106.197
21
-48.5346
0
LINE
8
BLACK
6
CONTINUOUS
10
106.197
20
-48.5346
11
106.257
21
-48.3891
0
LINE
8
BLACK
6
CONTINUOUS
10
106.257
20
-48.3891
11
106.345
21
-48.258
0
LINE
8
BLACK
6
CONTINUOUS
10
106.345
20
-48.258
11
106.456
21
-48.1466
0
LINE
8
BLACK
6
CONTINUOUS
10
106.456
20
-48.1466
11
106.587
21
-48.059
0
LINE
8
BLACK
6
CONTINUOUS
10
106.587
20
-48.059
11
106.733
21
-47.9987
0
LINE
8
BLACK
6
CONTINUOUS
10
106.733
20
-47.9987
11
106.887
21
-47.968
0
LINE
8
BLACK
6
CONTINUOUS
10
106.887
20
-47.968
11
107.045
21
-47.968
0
LINE
8
BLACK
6
CONTINUOUS
10
107.045
20
-47.968
11
107.199
21
-47.9987
0
LINE
8
BLACK
6
CONTINUOUS
10
109.766
20
-49.568
11
108.166
21
-49.568
0
LINE
8
BLACK
6
CONTINUOUS
10
108.166
20
-49.568
11
108.166
21
-47.968
0
LINE
8
BLACK
6
CONTINUOUS
10
108.166
20
-47.968
11
109.766
21
-47.968
0
LINE
8
BLACK
6
CONTINUOUS
10
109.766
20
-47.968
11
109.766
21
-49.568
0
LINE
8
BLACK
6
CONTINUOUS
10
153.171
20
-45.8706
11
153.334
21
-45.9384
0
LINE
8
BLACK
6
CONTINUOUS
10
153.334
20
-45.9384
11
153.482
21
-46.0369
0
LINE
8
BLACK
6
CONTINUOUS
10
153.482
20
-46.0369
11
153.607
21
-46.1623
0
LINE
8
BLACK
6
CONTINUOUS
10
153.607
20
-46.1623
11
153.706
21
-46.3097
0
LINE
8
BLACK
6
CONTINUOUS
10
153.706
20
-46.3097
11
153.773
21
-46.4735
0
LINE
8
BLACK
6
CONTINUOUS
10
153.773
20
-46.4735
11
153.808
21
-46.6474
0
LINE
8
BLACK
6
CONTINUOUS
10
153.808
20
-46.6474
11
153.808
21
-46.8246
0
LINE
8
BLACK
6
CONTINUOUS
10
153.808
20
-46.8246
11
153.773
21
-46.9985
0
LINE
8
BLACK
6
CONTINUOUS
10
153.773
20
-46.9985
11
153.706
21
-47.1623
0
LINE
8
BLACK
6
CONTINUOUS
10
153.706
20
-47.1623
11
153.607
21
-47.3097
0
LINE
8
BLACK
6
CONTINUOUS
10
153.607
20
-47.3097
11
153.482
21
-47.4351
0
LINE
8
BLACK
6
CONTINUOUS
10
153.482
20
-47.4351
11
153.334
21
-47.5336
0
LINE
8
BLACK
6
CONTINUOUS
10
153.334
20
-47.5336
11
153.171
21
-47.6014
0
LINE
8
BLACK
6
CONTINUOUS
10
153.171
20
-47.6014
11
152.997
21
-47.636
0
LINE
8
BLACK
6
CONTINUOUS
10
152.997
20
-47.636
11
152.819
21
-47.636
0
LINE
8
BLACK
6
CONTINUOUS
10
152.819
20
-47.636
11
152.645
21
-47.6014
0
LINE
8
BLACK
6
CONTINUOUS
10
152.645
20
-47.6014
11
152.482
21
-47.5336
0
LINE
8
BLACK
6
CONTINUOUS
10
152.482
20
-47.5336
11
152.334
21
-47.4351
0
LINE
8
BLACK
6
CONTINUOUS
10
152.334
20
-47.4351
11
152.209
21
-47.3097
0
LINE
8
BLACK
6
CONTINUOUS
10
152.209
20
-47.3097
11
152.11
21
-47.1623
0
LINE
8
BLACK
6
CONTINUOUS
10
152.11
20
-47.1623
11
152.043
21
-46.9985
0
LINE
8
BLACK
6
CONTINUOUS
10
152.043
20
-46.9985
11
152.008
21
-46.8246
0
LINE
8
BLACK
6
CONTINUOUS
10
152.008
20
-46.8246
11
152.008
21
-46.6474
0
LINE
8
BLACK
6
CONTINUOUS
10
152.008
20
-46.6474
11
152.043
21
-46.4735
0
LINE
8
BLACK
6
CONTINUOUS
10
152.043
20
-46.4735
11
152.11
21
-46.3097
0
LINE
8
BLACK
6
CONTINUOUS
10
152.11
20
-46.3097
11
152.209
21
-46.1623
0
LINE
8
BLACK
6
CONTINUOUS
10
152.209
20
-46.1623
11
152.334
21
-46.0369
0
LINE
8
BLACK
6
CONTINUOUS
10
152.334
20
-46.0369
11
152.482
21
-45.9384
0
LINE
8
BLACK
6
CONTINUOUS
10
152.482
20
-45.9384
11
152.645
21
-45.8706
0
LINE
8
BLACK
6
CONTINUOUS
10
152.645
20
-45.8706
11
152.819
21
-45.836
0
LINE
8
BLACK
6
CONTINUOUS
10
152.819
20
-45.836
11
152.997
21
-45.836
0
LINE
8
BLACK
6
CONTINUOUS
10
152.997
20
-45.836
11
153.171
21
-45.8706
  0
ENDSEC
  0
EOF
