G04 #@! TF.GenerationSoftware,KiCad,Pcbnew,(5.1.2)-2*
G04 #@! TF.CreationDate,2020-04-22T12:52:17+07:00*
G04 #@! TF.ProjectId,power_vedal,706f7765-725f-4766-9564-616c2e6b6963,rev?*
G04 #@! TF.SameCoordinates,Original*
G04 #@! TF.FileFunction,Soldermask,Top*
G04 #@! TF.FilePolarity,Negative*
%FSLAX46Y46*%
G04 Gerber Fmt 4.6, Leading zero omitted, Abs format (unit mm)*
G04 Created by KiCad (PCBNEW (5.1.2)-2) date 2020-04-22 12:52:17*
%MOMM*%
%LPD*%
G04 APERTURE LIST*
%ADD10C,0.100000*%
G04 APERTURE END LIST*
D10*
G36*
X131007001Y-90263001D02*
G01*
X128405001Y-90263001D01*
X128405001Y-87661001D01*
X131007001Y-87661001D01*
X131007001Y-90263001D01*
X131007001Y-90263001D01*
G37*
G36*
X84007001Y-90263001D02*
G01*
X81405001Y-90263001D01*
X81405001Y-87661001D01*
X84007001Y-87661001D01*
X84007001Y-90263001D01*
X84007001Y-90263001D01*
G37*
G36*
X144653000Y-89535000D02*
G01*
X141351000Y-89535000D01*
X141351000Y-86233000D01*
X144653000Y-86233000D01*
X144653000Y-89535000D01*
X144653000Y-89535000D01*
G37*
G36*
X76897000Y-87311000D02*
G01*
X74995000Y-87311000D01*
X74995000Y-85409000D01*
X76897000Y-85409000D01*
X76897000Y-87311000D01*
X76897000Y-87311000D01*
G37*
G36*
X76223395Y-82905546D02*
G01*
X76396466Y-82977234D01*
X76396467Y-82977235D01*
X76552227Y-83081310D01*
X76684690Y-83213773D01*
X76684691Y-83213775D01*
X76788766Y-83369534D01*
X76860454Y-83542605D01*
X76897000Y-83726333D01*
X76897000Y-83913667D01*
X76860454Y-84097395D01*
X76788766Y-84270466D01*
X76788765Y-84270467D01*
X76684690Y-84426227D01*
X76552227Y-84558690D01*
X76473818Y-84611081D01*
X76396466Y-84662766D01*
X76223395Y-84734454D01*
X76039667Y-84771000D01*
X75852333Y-84771000D01*
X75668605Y-84734454D01*
X75495534Y-84662766D01*
X75418182Y-84611081D01*
X75339773Y-84558690D01*
X75207310Y-84426227D01*
X75103235Y-84270467D01*
X75103234Y-84270466D01*
X75031546Y-84097395D01*
X74995000Y-83913667D01*
X74995000Y-83726333D01*
X75031546Y-83542605D01*
X75103234Y-83369534D01*
X75207309Y-83213775D01*
X75207310Y-83213773D01*
X75339773Y-83081310D01*
X75495533Y-82977235D01*
X75495534Y-82977234D01*
X75668605Y-82905546D01*
X75852333Y-82869000D01*
X76039667Y-82869000D01*
X76223395Y-82905546D01*
X76223395Y-82905546D01*
G37*
G36*
X144653000Y-80035000D02*
G01*
X141351000Y-80035000D01*
X141351000Y-76733000D01*
X144653000Y-76733000D01*
X144653000Y-80035000D01*
X144653000Y-80035000D01*
G37*
G36*
X77207239Y-76999101D02*
G01*
X77443053Y-77070634D01*
X77660381Y-77186799D01*
X77850871Y-77343129D01*
X78007201Y-77533619D01*
X78123366Y-77750947D01*
X78194899Y-77986761D01*
X78219053Y-78232000D01*
X78194899Y-78477239D01*
X78123366Y-78713053D01*
X78007201Y-78930381D01*
X77850871Y-79120871D01*
X77660381Y-79277201D01*
X77443053Y-79393366D01*
X77207239Y-79464899D01*
X77023457Y-79483000D01*
X76900543Y-79483000D01*
X76716761Y-79464899D01*
X76480947Y-79393366D01*
X76263619Y-79277201D01*
X76073129Y-79120871D01*
X75916799Y-78930381D01*
X75800634Y-78713053D01*
X75729101Y-78477239D01*
X75704947Y-78232000D01*
X75729101Y-77986761D01*
X75800634Y-77750947D01*
X75916799Y-77533619D01*
X76073129Y-77343129D01*
X76263619Y-77186799D01*
X76480947Y-77070634D01*
X76716761Y-76999101D01*
X76900543Y-76981000D01*
X77023457Y-76981000D01*
X77207239Y-76999101D01*
X77207239Y-76999101D01*
G37*
G36*
X72325000Y-77659000D02*
G01*
X70423000Y-77659000D01*
X70423000Y-75757000D01*
X72325000Y-75757000D01*
X72325000Y-77659000D01*
X72325000Y-77659000D01*
G37*
G36*
X72325000Y-72659000D02*
G01*
X70423000Y-72659000D01*
X70423000Y-70757000D01*
X72325000Y-70757000D01*
X72325000Y-72659000D01*
X72325000Y-72659000D01*
G37*
G36*
X144653000Y-70535000D02*
G01*
X141351000Y-70535000D01*
X141351000Y-67233000D01*
X144653000Y-67233000D01*
X144653000Y-70535000D01*
X144653000Y-70535000D01*
G37*
G36*
X131007001Y-68263001D02*
G01*
X128405001Y-68263001D01*
X128405001Y-65661001D01*
X131007001Y-65661001D01*
X131007001Y-68263001D01*
X131007001Y-68263001D01*
G37*
G36*
X84007001Y-68263001D02*
G01*
X81405001Y-68263001D01*
X81405001Y-65661001D01*
X84007001Y-65661001D01*
X84007001Y-68263001D01*
X84007001Y-68263001D01*
G37*
G36*
X131007001Y-62223001D02*
G01*
X128405001Y-62223001D01*
X128405001Y-59621001D01*
X131007001Y-59621001D01*
X131007001Y-62223001D01*
X131007001Y-62223001D01*
G37*
G36*
X84007001Y-62223001D02*
G01*
X81405001Y-62223001D01*
X81405001Y-59621001D01*
X84007001Y-59621001D01*
X84007001Y-62223001D01*
X84007001Y-62223001D01*
G37*
G36*
X144653000Y-61035000D02*
G01*
X141351000Y-61035000D01*
X141351000Y-57733000D01*
X144653000Y-57733000D01*
X144653000Y-61035000D01*
X144653000Y-61035000D01*
G37*
G36*
X77326903Y-56709075D02*
G01*
X77554571Y-56803378D01*
X77759466Y-56940285D01*
X77933715Y-57114534D01*
X78070622Y-57319429D01*
X78164925Y-57547097D01*
X78213000Y-57788787D01*
X78213000Y-58035213D01*
X78164925Y-58276903D01*
X78070622Y-58504571D01*
X77933715Y-58709466D01*
X77759466Y-58883715D01*
X77554571Y-59020622D01*
X77554570Y-59020623D01*
X77554569Y-59020623D01*
X77326903Y-59114925D01*
X77085214Y-59163000D01*
X76838786Y-59163000D01*
X76597097Y-59114925D01*
X76369431Y-59020623D01*
X76369430Y-59020623D01*
X76369429Y-59020622D01*
X76164534Y-58883715D01*
X75990285Y-58709466D01*
X75853378Y-58504571D01*
X75759075Y-58276903D01*
X75711000Y-58035213D01*
X75711000Y-57788787D01*
X75759075Y-57547097D01*
X75853378Y-57319429D01*
X75990285Y-57114534D01*
X76164534Y-56940285D01*
X76369429Y-56803378D01*
X76597097Y-56709075D01*
X76838786Y-56661000D01*
X77085214Y-56661000D01*
X77326903Y-56709075D01*
X77326903Y-56709075D01*
G37*
G36*
X72325000Y-57659000D02*
G01*
X70423000Y-57659000D01*
X70423000Y-55757000D01*
X72325000Y-55757000D01*
X72325000Y-57659000D01*
X72325000Y-57659000D01*
G37*
G36*
X77181059Y-52077860D02*
G01*
X77317732Y-52134472D01*
X77440735Y-52216660D01*
X77545340Y-52321265D01*
X77627528Y-52444268D01*
X77684140Y-52580941D01*
X77713000Y-52726033D01*
X77713000Y-52873967D01*
X77684140Y-53019059D01*
X77627528Y-53155732D01*
X77545340Y-53278735D01*
X77440735Y-53383340D01*
X77317732Y-53465528D01*
X77317731Y-53465529D01*
X77317730Y-53465529D01*
X77181059Y-53522140D01*
X77035968Y-53551000D01*
X76888032Y-53551000D01*
X76742941Y-53522140D01*
X76606270Y-53465529D01*
X76606269Y-53465529D01*
X76606268Y-53465528D01*
X76483265Y-53383340D01*
X76378660Y-53278735D01*
X76296472Y-53155732D01*
X76239860Y-53019059D01*
X76211000Y-52873967D01*
X76211000Y-52726033D01*
X76239860Y-52580941D01*
X76296472Y-52444268D01*
X76378660Y-52321265D01*
X76483265Y-52216660D01*
X76606268Y-52134472D01*
X76742941Y-52077860D01*
X76888032Y-52049000D01*
X77035968Y-52049000D01*
X77181059Y-52077860D01*
X77181059Y-52077860D01*
G37*
G36*
X72325000Y-52659000D02*
G01*
X70423000Y-52659000D01*
X70423000Y-50757000D01*
X72325000Y-50757000D01*
X72325000Y-52659000D01*
X72325000Y-52659000D01*
G37*
G36*
X77181059Y-50077860D02*
G01*
X77317732Y-50134472D01*
X77440735Y-50216660D01*
X77545340Y-50321265D01*
X77627528Y-50444268D01*
X77684140Y-50580941D01*
X77713000Y-50726033D01*
X77713000Y-50873967D01*
X77684140Y-51019059D01*
X77627528Y-51155732D01*
X77545340Y-51278735D01*
X77440735Y-51383340D01*
X77317732Y-51465528D01*
X77317731Y-51465529D01*
X77317730Y-51465529D01*
X77181059Y-51522140D01*
X77035968Y-51551000D01*
X76888032Y-51551000D01*
X76742941Y-51522140D01*
X76606270Y-51465529D01*
X76606269Y-51465529D01*
X76606268Y-51465528D01*
X76483265Y-51383340D01*
X76378660Y-51278735D01*
X76296472Y-51155732D01*
X76239860Y-51019059D01*
X76211000Y-50873967D01*
X76211000Y-50726033D01*
X76239860Y-50580941D01*
X76296472Y-50444268D01*
X76378660Y-50321265D01*
X76483265Y-50216660D01*
X76606268Y-50134472D01*
X76742941Y-50077860D01*
X76888032Y-50049000D01*
X77035968Y-50049000D01*
X77181059Y-50077860D01*
X77181059Y-50077860D01*
G37*
G36*
X144653000Y-51535000D02*
G01*
X141351000Y-51535000D01*
X141351000Y-48233000D01*
X144653000Y-48233000D01*
X144653000Y-51535000D01*
X144653000Y-51535000D01*
G37*
G36*
X77010585Y-41658802D02*
G01*
X77160410Y-41688604D01*
X77442674Y-41805521D01*
X77696705Y-41975259D01*
X77912741Y-42191295D01*
X78082479Y-42445326D01*
X78199396Y-42727590D01*
X78259000Y-43027240D01*
X78259000Y-43332760D01*
X78199396Y-43632410D01*
X78082479Y-43914674D01*
X77912741Y-44168705D01*
X77696705Y-44384741D01*
X77442674Y-44554479D01*
X77160410Y-44671396D01*
X77010585Y-44701198D01*
X76860761Y-44731000D01*
X76555239Y-44731000D01*
X76405415Y-44701198D01*
X76255590Y-44671396D01*
X75973326Y-44554479D01*
X75719295Y-44384741D01*
X75503259Y-44168705D01*
X75333521Y-43914674D01*
X75216604Y-43632410D01*
X75157000Y-43332760D01*
X75157000Y-43027240D01*
X75216604Y-42727590D01*
X75333521Y-42445326D01*
X75503259Y-42191295D01*
X75719295Y-41975259D01*
X75973326Y-41805521D01*
X76255590Y-41688604D01*
X76405415Y-41658802D01*
X76555239Y-41629000D01*
X76860761Y-41629000D01*
X77010585Y-41658802D01*
X77010585Y-41658802D01*
G37*
G36*
X73179000Y-44731000D02*
G01*
X70077000Y-44731000D01*
X70077000Y-41629000D01*
X73179000Y-41629000D01*
X73179000Y-44731000D01*
X73179000Y-44731000D01*
G37*
G36*
X144653000Y-42135000D02*
G01*
X141351000Y-42135000D01*
X141351000Y-38833000D01*
X144653000Y-38833000D01*
X144653000Y-42135000D01*
X144653000Y-42135000D01*
G37*
G36*
X131007001Y-40223001D02*
G01*
X128405001Y-40223001D01*
X128405001Y-37621001D01*
X131007001Y-37621001D01*
X131007001Y-40223001D01*
X131007001Y-40223001D01*
G37*
G36*
X84007001Y-40223001D02*
G01*
X81405001Y-40223001D01*
X81405001Y-37621001D01*
X84007001Y-37621001D01*
X84007001Y-40223001D01*
X84007001Y-40223001D01*
G37*
M02*
