G04 #@! TF.GenerationSoftware,KiCad,Pcbnew,(5.1.2)-2*
G04 #@! TF.CreationDate,2020-04-22T12:52:17+07:00*
G04 #@! TF.ProjectId,power_vedal,706f7765-725f-4766-9564-616c2e6b6963,rev?*
G04 #@! TF.SameCoordinates,Original*
G04 #@! TF.FileFunction,Copper,L2,Bot*
G04 #@! TF.FilePolarity,Positive*
%FSLAX46Y46*%
G04 Gerber Fmt 4.6, Leading zero omitted, Abs format (unit mm)*
G04 Created by KiCad (PCBNEW (5.1.2)-2) date 2020-04-22 12:52:17*
%MOMM*%
%LPD*%
G04 APERTURE LIST*
%ADD10C,1.400000*%
%ADD11R,1.800000X1.800000*%
%ADD12C,1.800000*%
%ADD13R,3.000000X3.000000*%
%ADD14C,3.000000*%
%ADD15R,2.500000X2.500000*%
%ADD16C,2.400000*%
%ADD17O,2.400000X2.400000*%
%ADD18R,3.200000X3.200000*%
%ADD19C,1.500000*%
G04 APERTURE END LIST*
D10*
X76962000Y-50800000D03*
X76962000Y-52800000D03*
D11*
X75946000Y-86360000D03*
D12*
X75946000Y-83820000D03*
D13*
X71628000Y-43180000D03*
D14*
X76708000Y-43180000D03*
D15*
X82706001Y-38922001D03*
X82706001Y-60922001D03*
X129706001Y-38922001D03*
X129706001Y-60922001D03*
X129706001Y-88962001D03*
X129706001Y-66962001D03*
X82706001Y-88962001D03*
X82706001Y-66962001D03*
D16*
X76962000Y-57912000D03*
D17*
X76962000Y-78232000D03*
D11*
X71374000Y-76708000D03*
X71374000Y-71708000D03*
X71374000Y-56708000D03*
X71374000Y-51708000D03*
D18*
X143002000Y-87884000D03*
X143002000Y-78384000D03*
X143002000Y-68884000D03*
X143002000Y-59384000D03*
X143002000Y-49884000D03*
X143002000Y-40484000D03*
D19*
X82706001Y-45055999D02*
X76962000Y-50800000D01*
X82706001Y-38922001D02*
X82706001Y-45055999D01*
X76962000Y-57912000D02*
X76962000Y-65024000D01*
X78900001Y-66962001D02*
X82706001Y-66962001D01*
X76962000Y-65024000D02*
X78900001Y-66962001D01*
X77951949Y-50800000D02*
X80010000Y-52858051D01*
X76962000Y-50800000D02*
X77951949Y-50800000D01*
X80010000Y-52858051D02*
X80010000Y-56896000D01*
X78994000Y-57912000D02*
X76962000Y-57912000D01*
X80010000Y-56896000D02*
X78994000Y-57912000D01*
X76119999Y-66962001D02*
X71374000Y-71708000D01*
X82706001Y-66962001D02*
X76119999Y-66962001D01*
X71374000Y-71708000D02*
X71374000Y-76708000D01*
X139902000Y-40484000D02*
X143002000Y-40484000D01*
X136140000Y-36722000D02*
X139902000Y-40484000D01*
X87656002Y-36722000D02*
X136140000Y-36722000D01*
X85456001Y-38922001D02*
X87656002Y-36722000D01*
X82706001Y-38922001D02*
X85456001Y-38922001D01*
X75972051Y-52800000D02*
X76962000Y-52800000D01*
X75261991Y-52089940D02*
X75972051Y-52800000D01*
X75261991Y-44626009D02*
X75261991Y-52089940D01*
X76708000Y-43180000D02*
X75261991Y-44626009D01*
X80104000Y-86360000D02*
X82706001Y-88962001D01*
X75946000Y-86360000D02*
X80104000Y-86360000D01*
X85456001Y-88962001D02*
X82706001Y-88962001D01*
X86868000Y-87550002D02*
X85456001Y-88962001D01*
X86868000Y-62334000D02*
X86868000Y-87550002D01*
X85456001Y-60922001D02*
X86868000Y-62334000D01*
X82706001Y-60922001D02*
X85456001Y-60922001D01*
X73914000Y-55848000D02*
X73914000Y-64262000D01*
X76962000Y-52800000D02*
X73914000Y-55848000D01*
X73914000Y-64262000D02*
X68834000Y-69342000D01*
X68834000Y-69342000D02*
X68834000Y-82550000D01*
X72644000Y-86360000D02*
X75946000Y-86360000D01*
X68834000Y-82550000D02*
X72644000Y-86360000D01*
X143002000Y-49884000D02*
X88800000Y-49884000D01*
X82706001Y-55977999D02*
X82706001Y-60922001D01*
X88800000Y-49884000D02*
X82706001Y-55977999D01*
X76962000Y-82804000D02*
X75946000Y-83820000D01*
X76962000Y-78232000D02*
X76962000Y-82804000D01*
X71628000Y-51454000D02*
X71374000Y-51708000D01*
X71628000Y-43180000D02*
X71628000Y-51454000D01*
X71374000Y-51708000D02*
X71374000Y-56708000D01*
X146102000Y-59384000D02*
X143002000Y-59384000D01*
X129706001Y-38922001D02*
X129706001Y-41672001D01*
X132738000Y-44704000D02*
X145796000Y-44704000D01*
X145796000Y-44704000D02*
X147320000Y-46228000D01*
X129706001Y-41672001D02*
X132738000Y-44704000D01*
X147320000Y-46228000D02*
X147320000Y-58166000D01*
X147320000Y-58166000D02*
X146102000Y-59384000D01*
X143002000Y-65784000D02*
X143002000Y-68884000D01*
X138140001Y-60922001D02*
X143002000Y-65784000D01*
X129706001Y-60922001D02*
X138140001Y-60922001D01*
X141923999Y-88962001D02*
X143002000Y-87884000D01*
X129706001Y-88962001D02*
X141923999Y-88962001D01*
X139902000Y-78384000D02*
X143002000Y-78384000D01*
X138378000Y-78384000D02*
X139902000Y-78384000D01*
X129706001Y-69712001D02*
X138378000Y-78384000D01*
X129706001Y-66962001D02*
X129706001Y-69712001D01*
M02*
