  0
SECTION
  2
HEADER
  9
$ANGBASE
  50
0.0
  9
$ANGDIR
  70
  1
  9
$MEASUREMENT
  70
0
  0
ENDSEC
  0
SECTION
  2
TABLES
  0
TABLE
  2
LTYPE
  70
4
  0
LTYPE
  5
40F
  2
CONTINUOUS
  70
0
  3
Solid line
  72
65
  73
0
  40
0.0
  0
LTYPE
  5
410
  2
DASHDOT
 70
0
  3
Dash Dot ____ _ ____ _
 72
65
 73
4
 40
2.0
 49
1.25
 49
-0.25
 49
0.25
 49
-0.25
  0
LTYPE
  5
411
  2
DASHED
 70
0
  3
Dashed __ __ __ __ __
 72
65
 73
2
 40
0.75
 49
0.5
 49
-0.25
  0
LTYPE
  5
43B
  2
DOTTED
 70
0
  3
Dotted .  .  .  .
 72
65
 73
2
 40
0.2
 49
0.0
 49
-0.2
  0
ENDTAB
  0
TABLE
  2
STYLE
  70
4
  0
STYLE
  2
KICAD
  70
0
  40
0
  41
1
  42
1
  50
0
  71
0
  3
isocp.shx
  0
STYLE
  2
KICADB
  70
0
  40
0
  41
1
  42
1
  50
0
  71
0
  3
isocp.shx
  0
STYLE
  2
KICADI
  70
0
  40
0
  41
1
  42
1
  50
15
  71
0
  3
isocp.shx
  0
STYLE
  2
KICADBI
  70
0
  40
0
  41
1
  42
1
  50
15
  71
0
  3
isocp.shx
  0
ENDTAB
  0
TABLE
  2
LAYER
  70
30
  0
LAYER
  2
BLACK
  70
0
  62
7
  6
CONTINUOUS
  0
LAYER
  2
GRAY1
  70
0
  62
251
  6
CONTINUOUS
  0
LAYER
  2
GRAY2
  70
0
  62
8
  6
CONTINUOUS
  0
LAYER
  2
GRAY3
  70
0
  62
9
  6
CONTINUOUS
  0
LAYER
  2
WHITE
  70
0
  62
7
  6
CONTINUOUS
  0
LAYER
  2
LYELLOW
  70
0
  62
51
  6
CONTINUOUS
  0
LAYER
  2
BLUE1
  70
0
  62
178
  6
CONTINUOUS
  0
LAYER
  2
GREEN1
  70
0
  62
98
  6
CONTINUOUS
  0
LAYER
  2
CYAN1
  70
0
  62
138
  6
CONTINUOUS
  0
LAYER
  2
RED1
  70
0
  62
18
  6
CONTINUOUS
  0
LAYER
  2
MAGENTA1
  70
0
  62
228
  6
CONTINUOUS
  0
LAYER
  2
BROWN1
  70
0
  62
58
  6
CONTINUOUS
  0
LAYER
  2
BLUE2
  70
0
  62
5
  6
CONTINUOUS
  0
LAYER
  2
GREEN2
  70
0
  62
3
  6
CONTINUOUS
  0
LAYER
  2
CYAN2
  70
0
  62
4
  6
CONTINUOUS
  0
LAYER
  2
RED2
  70
0
  62
1
  6
CONTINUOUS
  0
LAYER
  2
MAGENTA2
  70
0
  62
6
  6
CONTINUOUS
  0
LAYER
  2
BROWN2
  70
0
  62
54
  6
CONTINUOUS
  0
LAYER
  2
BLUE3
  70
0
  62
171
  6
CONTINUOUS
  0
LAYER
  2
GREEN3
  70
0
  62
91
  6
CONTINUOUS
  0
LAYER
  2
CYAN3
  70
0
  62
131
  6
CONTINUOUS
  0
LAYER
  2
RED3
  70
0
  62
11
  6
CONTINUOUS
  0
LAYER
  2
MAGENTA3
  70
0
  62
221
  6
CONTINUOUS
  0
LAYER
  2
YELLOW3
  70
0
  62
2
  6
CONTINUOUS
  0
LAYER
  2
BLUE4
  70
0
  62
5
  6
CONTINUOUS
  0
LAYER
  2
GREEN4
  70
0
  62
3
  6
CONTINUOUS
  0
LAYER
  2
CYAN4
  70
0
  62
4
  6
CONTINUOUS
  0
LAYER
  2
RED4
  70
0
  62
1
  6
CONTINUOUS
  0
LAYER
  2
MAGENTA4
  70
0
  62
6
  6
CONTINUOUS
  0
LAYER
  2
YELLOW4
  70
0
  62
2
  6
CONTINUOUS
  0
ENDTAB
  0
ENDSEC
  0
SECTION
  2
ENTITIES
0
LINE
8
BLACK
6
CONTINUOUS
10
144.602
20
-89.484
11
142.466
21
-89.484
0
LINE
8
BLACK
6
CONTINUOUS
10
142.466
20
-89.484
11
142.457
21
-89.4949
0
LINE
8
BLACK
6
CONTINUOUS
10
142.457
20
-89.4949
11
142.343
21
-89.5886
0
LINE
8
BLACK
6
CONTINUOUS
10
142.343
20
-89.5886
11
142.212
21
-89.6583
0
LINE
8
BLACK
6
CONTINUOUS
10
142.212
20
-89.6583
11
142.071
21
-89.7011
0
LINE
8
BLACK
6
CONTINUOUS
10
142.071
20
-89.7011
11
141.961
21
-89.712
0
LINE
8
BLACK
6
CONTINUOUS
10
141.961
20
-89.712
11
141.961
21
-89.712
0
LINE
8
BLACK
6
CONTINUOUS
10
141.961
20
-89.712
11
141.924
21
-89.7156
0
LINE
8
BLACK
6
CONTINUOUS
10
141.924
20
-89.7156
11
141.887
21
-89.712
0
LINE
8
BLACK
6
CONTINUOUS
10
141.887
20
-89.712
11
130.956
21
-89.712
0
LINE
8
BLACK
6
CONTINUOUS
10
130.956
20
-89.712
11
130.956
21
-90.212
0
LINE
8
BLACK
6
CONTINUOUS
10
130.956
20
-90.212
11
128.456
21
-90.212
0
LINE
8
BLACK
6
CONTINUOUS
10
128.456
20
-90.212
11
128.456
21
-87.712
0
LINE
8
BLACK
6
CONTINUOUS
10
128.456
20
-87.712
11
130.956
21
-87.712
0
LINE
8
BLACK
6
CONTINUOUS
10
130.956
20
-87.712
11
130.956
21
-88.212
0
LINE
8
BLACK
6
CONTINUOUS
10
130.956
20
-88.212
11
141.402
21
-88.212
0
LINE
8
BLACK
6
CONTINUOUS
10
141.402
20
-88.212
11
141.402
21
-86.284
0
LINE
8
BLACK
6
CONTINUOUS
10
141.402
20
-86.284
11
144.602
21
-86.284
0
LINE
8
BLACK
6
CONTINUOUS
10
144.602
20
-86.284
11
144.602
21
-89.484
0
LINE
8
BLACK
6
CONTINUOUS
10
77.1455
20
-41.7376
11
77.4185
21
-41.8507
0
LINE
8
BLACK
6
CONTINUOUS
10
77.4185
20
-41.8507
11
77.6642
21
-42.0149
0
LINE
8
BLACK
6
CONTINUOUS
10
77.6642
20
-42.0149
11
77.8731
21
-42.2238
0
LINE
8
BLACK
6
CONTINUOUS
10
77.8731
20
-42.2238
11
78.0373
21
-42.4695
0
LINE
8
BLACK
6
CONTINUOUS
10
78.0373
20
-42.4695
11
78.1504
21
-42.7425
0
LINE
8
BLACK
6
CONTINUOUS
10
78.1504
20
-42.7425
11
78.208
21
-43.0323
0
LINE
8
BLACK
6
CONTINUOUS
10
78.208
20
-43.0323
11
78.208
21
-43.3277
0
LINE
8
BLACK
6
CONTINUOUS
10
78.208
20
-43.3277
11
78.1504
21
-43.6175
0
LINE
8
BLACK
6
CONTINUOUS
10
78.1504
20
-43.6175
11
78.0373
21
-43.8905
0
LINE
8
BLACK
6
CONTINUOUS
10
78.0373
20
-43.8905
11
77.8731
21
-44.1362
0
LINE
8
BLACK
6
CONTINUOUS
10
77.8731
20
-44.1362
11
77.6642
21
-44.3451
0
LINE
8
BLACK
6
CONTINUOUS
10
77.6642
20
-44.3451
11
77.4185
21
-44.5093
0
LINE
8
BLACK
6
CONTINUOUS
10
77.4185
20
-44.5093
11
77.1455
21
-44.6224
0
LINE
8
BLACK
6
CONTINUOUS
10
77.1455
20
-44.6224
11
76.8557
21
-44.68
0
LINE
8
BLACK
6
CONTINUOUS
10
76.8557
20
-44.68
11
76.5603
21
-44.68
0
LINE
8
BLACK
6
CONTINUOUS
10
76.5603
20
-44.68
11
76.317
21
-44.6316
0
LINE
8
BLACK
6
CONTINUOUS
10
76.317
20
-44.6316
11
76.012
21
-44.9367
0
LINE
8
BLACK
6
CONTINUOUS
10
76.012
20
-44.9367
11
76.012
21
-51.7793
0
LINE
8
BLACK
6
CONTINUOUS
10
76.012
20
-51.7793
11
76.2827
21
-52.05
0
LINE
8
BLACK
6
CONTINUOUS
10
76.2827
20
-52.05
11
76.9252
21
-52.05
0
LINE
8
BLACK
6
CONTINUOUS
10
76.9252
20
-52.05
11
76.962
21
-52.0464
0
LINE
8
BLACK
6
CONTINUOUS
10
76.962
20
-52.0464
11
76.9988
21
-52.05
0
LINE
8
BLACK
6
CONTINUOUS
10
76.9988
20
-52.05
11
76.9988
21
-52.05
0
LINE
8
BLACK
6
CONTINUOUS
10
76.9988
20
-52.05
11
77.109
21
-52.0609
0
LINE
8
BLACK
6
CONTINUOUS
10
77.109
20
-52.0609
11
77.2504
21
-52.1037
0
LINE
8
BLACK
6
CONTINUOUS
10
77.2504
20
-52.1037
11
77.3807
21
-52.1734
0
LINE
8
BLACK
6
CONTINUOUS
10
77.3807
20
-52.1734
11
77.4949
21
-52.2671
0
LINE
8
BLACK
6
CONTINUOUS
10
77.4949
20
-52.2671
11
77.5886
21
-52.3813
0
LINE
8
BLACK
6
CONTINUOUS
10
77.5886
20
-52.3813
11
77.6583
21
-52.5116
0
LINE
8
BLACK
6
CONTINUOUS
10
77.6583
20
-52.5116
11
77.7011
21
-52.653
0
LINE
8
BLACK
6
CONTINUOUS
10
77.7011
20
-52.653
11
77.7156
21
-52.8
0
LINE
8
BLACK
6
CONTINUOUS
10
77.7156
20
-52.8
11
77.7011
21
-52.947
0
LINE
8
BLACK
6
CONTINUOUS
10
77.7011
20
-52.947
11
77.6583
21
-53.0884
0
LINE
8
BLACK
6
CONTINUOUS
10
77.6583
20
-53.0884
11
77.5886
21
-53.2187
0
LINE
8
BLACK
6
CONTINUOUS
10
77.5886
20
-53.2187
11
77.4949
21
-53.3329
0
LINE
8
BLACK
6
CONTINUOUS
10
77.4949
20
-53.3329
11
77.4663
21
-53.3564
0
LINE
8
BLACK
6
CONTINUOUS
10
77.4663
20
-53.3564
11
74.664
21
-56.1587
0
LINE
8
BLACK
6
CONTINUOUS
10
74.664
20
-56.1587
11
74.664
21
-64.2252
0
LINE
8
BLACK
6
CONTINUOUS
10
74.664
20
-64.2252
11
74.6676
21
-64.262
0
LINE
8
BLACK
6
CONTINUOUS
10
74.6676
20
-64.262
11
74.664
21
-64.2988
0
LINE
8
BLACK
6
CONTINUOUS
10
74.664
20
-64.2988
11
74.664
21
-64.2988
0
LINE
8
BLACK
6
CONTINUOUS
10
74.664
20
-64.2988
11
74.6531
21
-64.409
0
LINE
8
BLACK
6
CONTINUOUS
10
74.6531
20
-64.409
11
74.6103
21
-64.5504
0
LINE
8
BLACK
6
CONTINUOUS
10
74.6103
20
-64.5504
11
74.5406
21
-64.6807
0
LINE
8
BLACK
6
CONTINUOUS
10
74.5406
20
-64.6807
11
74.4469
21
-64.7949
0
LINE
8
BLACK
6
CONTINUOUS
10
74.4469
20
-64.7949
11
74.4183
21
-64.8184
0
LINE
8
BLACK
6
CONTINUOUS
10
74.4183
20
-64.8184
11
69.584
21
-69.6527
0
LINE
8
BLACK
6
CONTINUOUS
10
69.584
20
-69.6527
11
69.584
21
-82.2393
0
LINE
8
BLACK
6
CONTINUOUS
10
69.584
20
-82.2393
11
72.9547
21
-85.61
0
LINE
8
BLACK
6
CONTINUOUS
10
72.9547
20
-85.61
11
75.046
21
-85.61
0
LINE
8
BLACK
6
CONTINUOUS
10
75.046
20
-85.61
11
75.046
21
-85.46
0
LINE
8
BLACK
6
CONTINUOUS
10
75.046
20
-85.46
11
76.846
21
-85.46
0
LINE
8
BLACK
6
CONTINUOUS
10
76.846
20
-85.46
11
76.846
21
-85.61
0
LINE
8
BLACK
6
CONTINUOUS
10
76.846
20
-85.61
11
80.0672
21
-85.61
0
LINE
8
BLACK
6
CONTINUOUS
10
80.0672
20
-85.61
11
80.104
21
-85.6064
0
LINE
8
BLACK
6
CONTINUOUS
10
80.104
20
-85.6064
11
80.1408
21
-85.61
0
LINE
8
BLACK
6
CONTINUOUS
10
80.1408
20
-85.61
11
80.1408
21
-85.61
0
LINE
8
BLACK
6
CONTINUOUS
10
80.1408
20
-85.61
11
80.251
21
-85.6209
0
LINE
8
BLACK
6
CONTINUOUS
10
80.251
20
-85.6209
11
80.3924
21
-85.6637
0
LINE
8
BLACK
6
CONTINUOUS
10
80.3924
20
-85.6637
11
80.5227
21
-85.7334
0
LINE
8
BLACK
6
CONTINUOUS
10
80.5227
20
-85.7334
11
80.6369
21
-85.8271
0
LINE
8
BLACK
6
CONTINUOUS
10
80.6369
20
-85.8271
11
80.6604
21
-85.8557
0
LINE
8
BLACK
6
CONTINUOUS
10
80.6604
20
-85.8557
11
82.5167
21
-87.712
0
LINE
8
BLACK
6
CONTINUOUS
10
82.5167
20
-87.712
11
83.956
21
-87.712
0
LINE
8
BLACK
6
CONTINUOUS
10
83.956
20
-87.712
11
83.956
21
-88.212
0
LINE
8
BLACK
6
CONTINUOUS
10
83.956
20
-88.212
11
85.1453
21
-88.212
0
LINE
8
BLACK
6
CONTINUOUS
10
85.1453
20
-88.212
11
86.118
21
-87.2393
0
LINE
8
BLACK
6
CONTINUOUS
10
86.118
20
-87.2393
11
86.118
21
-62.6447
0
LINE
8
BLACK
6
CONTINUOUS
10
86.118
20
-62.6447
11
85.1453
21
-61.672
0
LINE
8
BLACK
6
CONTINUOUS
10
85.1453
20
-61.672
11
83.956
21
-61.672
0
LINE
8
BLACK
6
CONTINUOUS
10
83.956
20
-61.672
11
83.956
21
-62.172
0
LINE
8
BLACK
6
CONTINUOUS
10
83.956
20
-62.172
11
81.456
21
-62.172
0
LINE
8
BLACK
6
CONTINUOUS
10
81.456
20
-62.172
11
81.456
21
-59.672
0
LINE
8
BLACK
6
CONTINUOUS
10
81.456
20
-59.672
11
81.956
21
-59.672
0
LINE
8
BLACK
6
CONTINUOUS
10
81.956
20
-59.672
11
81.956
21
-56.0148
0
LINE
8
BLACK
6
CONTINUOUS
10
81.956
20
-56.0148
11
81.9524
21
-55.978
0
LINE
8
BLACK
6
CONTINUOUS
10
81.9524
20
-55.978
11
81.956
21
-55.9412
0
LINE
8
BLACK
6
CONTINUOUS
10
81.956
20
-55.9412
11
81.956
21
-55.9412
0
LINE
8
BLACK
6
CONTINUOUS
10
81.956
20
-55.9412
11
81.9669
21
-55.831
0
LINE
8
BLACK
6
CONTINUOUS
10
81.9669
20
-55.831
11
82.0097
21
-55.6896
0
LINE
8
BLACK
6
CONTINUOUS
10
82.0097
20
-55.6896
11
82.0794
21
-55.5593
0
LINE
8
BLACK
6
CONTINUOUS
10
82.0794
20
-55.5593
11
82.1731
21
-55.4451
0
LINE
8
BLACK
6
CONTINUOUS
10
82.1731
20
-55.4451
11
82.2017
21
-55.4216
0
LINE
8
BLACK
6
CONTINUOUS
10
82.2017
20
-55.4216
11
88.2436
21
-49.3797
0
LINE
8
BLACK
6
CONTINUOUS
10
88.2436
20
-49.3797
11
88.2671
21
-49.3511
0
LINE
8
BLACK
6
CONTINUOUS
10
88.2671
20
-49.3511
11
88.3813
21
-49.2574
0
LINE
8
BLACK
6
CONTINUOUS
10
88.3813
20
-49.2574
11
88.5116
21
-49.1877
0
LINE
8
BLACK
6
CONTINUOUS
10
88.5116
20
-49.1877
11
88.653
21
-49.1449
0
LINE
8
BLACK
6
CONTINUOUS
10
88.653
20
-49.1449
11
88.7632
21
-49.134
0
LINE
8
BLACK
6
CONTINUOUS
10
88.7632
20
-49.134
11
88.7632
21
-49.134
0
LINE
8
BLACK
6
CONTINUOUS
10
88.7632
20
-49.134
11
88.8
21
-49.1304
0
LINE
8
BLACK
6
CONTINUOUS
10
88.8
20
-49.1304
11
88.8368
21
-49.134
0
LINE
8
BLACK
6
CONTINUOUS
10
88.8368
20
-49.134
11
141.402
21
-49.134
0
LINE
8
BLACK
6
CONTINUOUS
10
141.402
20
-49.134
11
141.402
21
-48.284
0
LINE
8
BLACK
6
CONTINUOUS
10
141.402
20
-48.284
11
144.602
21
-48.284
0
LINE
8
BLACK
6
CONTINUOUS
10
144.602
20
-48.284
11
144.602
21
-51.484
0
LINE
8
BLACK
6
CONTINUOUS
10
144.602
20
-51.484
11
141.402
21
-51.484
0
LINE
8
BLACK
6
CONTINUOUS
10
141.402
20
-51.484
11
141.402
21
-50.634
0
LINE
8
BLACK
6
CONTINUOUS
10
141.402
20
-50.634
11
89.1107
21
-50.634
0
LINE
8
BLACK
6
CONTINUOUS
10
89.1107
20
-50.634
11
83.456
21
-56.2887
0
LINE
8
BLACK
6
CONTINUOUS
10
83.456
20
-56.2887
11
83.456
21
-59.672
0
LINE
8
BLACK
6
CONTINUOUS
10
83.456
20
-59.672
11
83.956
21
-59.672
0
LINE
8
BLACK
6
CONTINUOUS
10
83.956
20
-59.672
11
83.956
21
-60.172
0
LINE
8
BLACK
6
CONTINUOUS
10
83.956
20
-60.172
11
85.4192
21
-60.172
0
LINE
8
BLACK
6
CONTINUOUS
10
85.4192
20
-60.172
11
85.456
21
-60.1684
0
LINE
8
BLACK
6
CONTINUOUS
10
85.456
20
-60.1684
11
85.4928
21
-60.172
0
LINE
8
BLACK
6
CONTINUOUS
10
85.4928
20
-60.172
11
85.4928
21
-60.172
0
LINE
8
BLACK
6
CONTINUOUS
10
85.4928
20
-60.172
11
85.603
21
-60.1829
0
LINE
8
BLACK
6
CONTINUOUS
10
85.603
20
-60.1829
11
85.7444
21
-60.2257
0
LINE
8
BLACK
6
CONTINUOUS
10
85.7444
20
-60.2257
11
85.8747
21
-60.2954
0
LINE
8
BLACK
6
CONTINUOUS
10
85.8747
20
-60.2954
11
85.9889
21
-60.3891
0
LINE
8
BLACK
6
CONTINUOUS
10
85.9889
20
-60.3891
11
86.0124
21
-60.4177
0
LINE
8
BLACK
6
CONTINUOUS
10
86.0124
20
-60.4177
11
87.3723
21
-61.7776
0
LINE
8
BLACK
6
CONTINUOUS
10
87.3723
20
-61.7776
11
87.4009
21
-61.8011
0
LINE
8
BLACK
6
CONTINUOUS
10
87.4009
20
-61.8011
11
87.4946
21
-61.9153
0
LINE
8
BLACK
6
CONTINUOUS
10
87.4946
20
-61.9153
11
87.5643
21
-62.0456
0
LINE
8
BLACK
6
CONTINUOUS
10
87.5643
20
-62.0456
11
87.6071
21
-62.187
0
LINE
8
BLACK
6
CONTINUOUS
10
87.6071
20
-62.187
11
87.618
21
-62.2972
0
LINE
8
BLACK
6
CONTINUOUS
10
87.618
20
-62.2972
11
87.618
21
-62.2972
0
LINE
8
BLACK
6
CONTINUOUS
10
87.618
20
-62.2972
11
87.6216
21
-62.334
0
LINE
8
BLACK
6
CONTINUOUS
10
87.6216
20
-62.334
11
87.618
21
-62.3708
0
LINE
8
BLACK
6
CONTINUOUS
10
87.618
20
-62.3708
11
87.618
21
-87.5132
0
LINE
8
BLACK
6
CONTINUOUS
10
87.618
20
-87.5132
11
87.6216
21
-87.55
0
LINE
8
BLACK
6
CONTINUOUS
10
87.6216
20
-87.55
11
87.618
21
-87.5868
0
LINE
8
BLACK
6
CONTINUOUS
10
87.618
20
-87.5868
11
87.618
21
-87.5868
0
LINE
8
BLACK
6
CONTINUOUS
10
87.618
20
-87.5868
11
87.6071
21
-87.697
0
LINE
8
BLACK
6
CONTINUOUS
10
87.6071
20
-87.697
11
87.5643
21
-87.8384
0
LINE
8
BLACK
6
CONTINUOUS
10
87.5643
20
-87.8384
11
87.4946
21
-87.9687
0
LINE
8
BLACK
6
CONTINUOUS
10
87.4946
20
-87.9687
11
87.4009
21
-88.0829
0
LINE
8
BLACK
6
CONTINUOUS
10
87.4009
20
-88.0829
11
87.3723
21
-88.1064
0
LINE
8
BLACK
6
CONTINUOUS
10
87.3723
20
-88.1064
11
86.0124
21
-89.4663
0
LINE
8
BLACK
6
CONTINUOUS
10
86.0124
20
-89.4663
11
85.9889
21
-89.4949
0
LINE
8
BLACK
6
CONTINUOUS
10
85.9889
20
-89.4949
11
85.8747
21
-89.5886
0
LINE
8
BLACK
6
CONTINUOUS
10
85.8747
20
-89.5886
11
85.7444
21
-89.6583
0
LINE
8
BLACK
6
CONTINUOUS
10
85.7444
20
-89.6583
11
85.603
21
-89.7011
0
LINE
8
BLACK
6
CONTINUOUS
10
85.603
20
-89.7011
11
85.4928
21
-89.712
0
LINE
8
BLACK
6
CONTINUOUS
10
85.4928
20
-89.712
11
85.4928
21
-89.712
0
LINE
8
BLACK
6
CONTINUOUS
10
85.4928
20
-89.712
11
85.456
21
-89.7156
0
LINE
8
BLACK
6
CONTINUOUS
10
85.456
20
-89.7156
11
85.4192
21
-89.712
0
LINE
8
BLACK
6
CONTINUOUS
10
85.4192
20
-89.712
11
83.956
21
-89.712
0
LINE
8
BLACK
6
CONTINUOUS
10
83.956
20
-89.712
11
83.956
21
-90.212
0
LINE
8
BLACK
6
CONTINUOUS
10
83.956
20
-90.212
11
81.456
21
-90.212
0
LINE
8
BLACK
6
CONTINUOUS
10
81.456
20
-90.212
11
81.456
21
-88.7727
0
LINE
8
BLACK
6
CONTINUOUS
10
81.456
20
-88.7727
11
79.7933
21
-87.11
0
LINE
8
BLACK
6
CONTINUOUS
10
79.7933
20
-87.11
11
76.846
21
-87.11
0
LINE
8
BLACK
6
CONTINUOUS
10
76.846
20
-87.11
11
76.846
21
-87.26
0
LINE
8
BLACK
6
CONTINUOUS
10
76.846
20
-87.26
11
75.046
21
-87.26
0
LINE
8
BLACK
6
CONTINUOUS
10
75.046
20
-87.26
11
75.046
21
-87.11
0
LINE
8
BLACK
6
CONTINUOUS
10
75.046
20
-87.11
11
72.6808
21
-87.11
0
LINE
8
BLACK
6
CONTINUOUS
10
72.6808
20
-87.11
11
72.644
21
-87.1136
0
LINE
8
BLACK
6
CONTINUOUS
10
72.644
20
-87.1136
11
72.6072
21
-87.11
0
LINE
8
BLACK
6
CONTINUOUS
10
72.6072
20
-87.11
11
72.6072
21
-87.11
0
LINE
8
BLACK
6
CONTINUOUS
10
72.6072
20
-87.11
11
72.497
21
-87.0991
0
LINE
8
BLACK
6
CONTINUOUS
10
72.497
20
-87.0991
11
72.3556
21
-87.0563
0
LINE
8
BLACK
6
CONTINUOUS
10
72.3556
20
-87.0563
11
72.2253
21
-86.9866
0
LINE
8
BLACK
6
CONTINUOUS
10
72.2253
20
-86.9866
11
72.1397
21
-86.9164
0
LINE
8
BLACK
6
CONTINUOUS
10
72.1397
20
-86.9164
11
72.1397
21
-86.9164
0
LINE
8
BLACK
6
CONTINUOUS
10
72.1397
20
-86.9164
11
72.1111
21
-86.8929
0
LINE
8
BLACK
6
CONTINUOUS
10
72.1111
20
-86.8929
11
72.0876
21
-86.8643
0
LINE
8
BLACK
6
CONTINUOUS
10
72.0876
20
-86.8643
11
68.3297
21
-83.1064
0
LINE
8
BLACK
6
CONTINUOUS
10
68.3297
20
-83.1064
11
68.3011
21
-83.0829
0
LINE
8
BLACK
6
CONTINUOUS
10
68.3011
20
-83.0829
11
68.2776
21
-83.0543
0
LINE
8
BLACK
6
CONTINUOUS
10
68.2776
20
-83.0543
11
68.2776
21
-83.0543
0
LINE
8
BLACK
6
CONTINUOUS
10
68.2776
20
-83.0543
11
68.2501
21
-83.0208
0
LINE
8
BLACK
6
CONTINUOUS
10
68.2501
20
-83.0208
11
68.2074
21
-82.9687
0
LINE
8
BLACK
6
CONTINUOUS
10
68.2074
20
-82.9687
11
68.1377
21
-82.8384
0
LINE
8
BLACK
6
CONTINUOUS
10
68.1377
20
-82.8384
11
68.1377
21
-82.8384
0
LINE
8
BLACK
6
CONTINUOUS
10
68.1377
20
-82.8384
11
68.0949
21
-82.697
0
LINE
8
BLACK
6
CONTINUOUS
10
68.0949
20
-82.697
11
68.0804
21
-82.55
0
LINE
8
BLACK
6
CONTINUOUS
10
68.0804
20
-82.55
11
68.084
21
-82.5132
0
LINE
8
BLACK
6
CONTINUOUS
10
68.084
20
-82.5132
11
68.084
21
-69.3788
0
LINE
8
BLACK
6
CONTINUOUS
10
68.084
20
-69.3788
11
68.0804
21
-69.342
0
LINE
8
BLACK
6
CONTINUOUS
10
68.0804
20
-69.342
11
68.084
21
-69.3052
0
LINE
8
BLACK
6
CONTINUOUS
10
68.084
20
-69.3052
11
68.084
21
-69.3052
0
LINE
8
BLACK
6
CONTINUOUS
10
68.084
20
-69.3052
11
68.0949
21
-69.195
0
LINE
8
BLACK
6
CONTINUOUS
10
68.0949
20
-69.195
11
68.1377
21
-69.0536
0
LINE
8
BLACK
6
CONTINUOUS
10
68.1377
20
-69.0536
11
68.2074
21
-68.9233
0
LINE
8
BLACK
6
CONTINUOUS
10
68.2074
20
-68.9233
11
68.3011
21
-68.8091
0
LINE
8
BLACK
6
CONTINUOUS
10
68.3011
20
-68.8091
11
68.3297
21
-68.7856
0
LINE
8
BLACK
6
CONTINUOUS
10
68.3297
20
-68.7856
11
73.164
21
-63.9513
0
LINE
8
BLACK
6
CONTINUOUS
10
73.164
20
-63.9513
11
73.164
21
-55.8848
0
LINE
8
BLACK
6
CONTINUOUS
10
73.164
20
-55.8848
11
73.1604
21
-55.848
0
LINE
8
BLACK
6
CONTINUOUS
10
73.1604
20
-55.848
11
73.164
21
-55.8112
0
LINE
8
BLACK
6
CONTINUOUS
10
73.164
20
-55.8112
11
73.164
21
-55.8112
0
LINE
8
BLACK
6
CONTINUOUS
10
73.164
20
-55.8112
11
73.1749
21
-55.701
0
LINE
8
BLACK
6
CONTINUOUS
10
73.1749
20
-55.701
11
73.2177
21
-55.5596
0
LINE
8
BLACK
6
CONTINUOUS
10
73.2177
20
-55.5596
11
73.2874
21
-55.4293
0
LINE
8
BLACK
6
CONTINUOUS
10
73.2874
20
-55.4293
11
73.3811
21
-55.3151
0
LINE
8
BLACK
6
CONTINUOUS
10
73.3811
20
-55.3151
11
73.4097
21
-55.2916
0
LINE
8
BLACK
6
CONTINUOUS
10
73.4097
20
-55.2916
11
75.4064
21
-53.295
0
LINE
8
BLACK
6
CONTINUOUS
10
75.4064
20
-53.295
11
74.7577
21
-52.6463
0
LINE
8
BLACK
6
CONTINUOUS
10
74.7577
20
-52.6463
11
74.7291
21
-52.6228
0
LINE
8
BLACK
6
CONTINUOUS
10
74.7291
20
-52.6228
11
74.7056
21
-52.5942
0
LINE
8
BLACK
6
CONTINUOUS
10
74.7056
20
-52.5942
11
74.7056
21
-52.5942
0
LINE
8
BLACK
6
CONTINUOUS
10
74.7056
20
-52.5942
11
74.6781
21
-52.5607
0
LINE
8
BLACK
6
CONTINUOUS
10
74.6781
20
-52.5607
11
74.6354
21
-52.5086
0
LINE
8
BLACK
6
CONTINUOUS
10
74.6354
20
-52.5086
11
74.5796
21
-52.4043
0
LINE
8
BLACK
6
CONTINUOUS
10
74.5796
20
-52.4043
11
74.5657
21
-52.3783
0
LINE
8
BLACK
6
CONTINUOUS
10
74.5657
20
-52.3783
11
74.5228
21
-52.237
0
LINE
8
BLACK
6
CONTINUOUS
10
74.5228
20
-52.237
11
74.5084
21
-52.0899
0
LINE
8
BLACK
6
CONTINUOUS
10
74.5084
20
-52.0899
11
74.512
21
-52.0531
0
LINE
8
BLACK
6
CONTINUOUS
10
74.512
20
-52.0531
11
74.512
21
-44.6628
0
LINE
8
BLACK
6
CONTINUOUS
10
74.512
20
-44.6628
11
74.5084
21
-44.626
0
LINE
8
BLACK
6
CONTINUOUS
10
74.5084
20
-44.626
11
74.512
21
-44.5892
0
LINE
8
BLACK
6
CONTINUOUS
10
74.512
20
-44.5892
11
74.512
21
-44.5892
0
LINE
8
BLACK
6
CONTINUOUS
10
74.512
20
-44.5892
11
74.5228
21
-44.479
0
LINE
8
BLACK
6
CONTINUOUS
10
74.5228
20
-44.479
11
74.5657
21
-44.3376
0
LINE
8
BLACK
6
CONTINUOUS
10
74.5657
20
-44.3376
11
74.6354
21
-44.2073
0
LINE
8
BLACK
6
CONTINUOUS
10
74.6354
20
-44.2073
11
74.7291
21
-44.0931
0
LINE
8
BLACK
6
CONTINUOUS
10
74.7291
20
-44.0931
11
74.7577
21
-44.0696
0
LINE
8
BLACK
6
CONTINUOUS
10
74.7577
20
-44.0696
11
75.2564
21
-43.571
0
LINE
8
BLACK
6
CONTINUOUS
10
75.2564
20
-43.571
11
75.208
21
-43.3277
0
LINE
8
BLACK
6
CONTINUOUS
10
75.208
20
-43.3277
11
75.208
21
-43.0323
0
LINE
8
BLACK
6
CONTINUOUS
10
75.208
20
-43.0323
11
75.2656
21
-42.7425
0
LINE
8
BLACK
6
CONTINUOUS
10
75.2656
20
-42.7425
11
75.3787
21
-42.4695
0
LINE
8
BLACK
6
CONTINUOUS
10
75.3787
20
-42.4695
11
75.5429
21
-42.2238
0
LINE
8
BLACK
6
CONTINUOUS
10
75.5429
20
-42.2238
11
75.7518
21
-42.0149
0
LINE
8
BLACK
6
CONTINUOUS
10
75.7518
20
-42.0149
11
75.9975
21
-41.8507
0
LINE
8
BLACK
6
CONTINUOUS
10
75.9975
20
-41.8507
11
76.2705
21
-41.7376
0
LINE
8
BLACK
6
CONTINUOUS
10
76.2705
20
-41.7376
11
76.5603
21
-41.68
0
LINE
8
BLACK
6
CONTINUOUS
10
76.5603
20
-41.68
11
76.8557
21
-41.68
0
LINE
8
BLACK
6
CONTINUOUS
10
76.8557
20
-41.68
11
77.1455
21
-41.7376
0
LINE
8
BLACK
6
CONTINUOUS
10
77.1972
20
-77.0494
11
77.4234
21
-77.118
0
LINE
8
BLACK
6
CONTINUOUS
10
77.4234
20
-77.118
11
77.6319
21
-77.2294
0
LINE
8
BLACK
6
CONTINUOUS
10
77.6319
20
-77.2294
11
77.8146
21
-77.3794
0
LINE
8
BLACK
6
CONTINUOUS
10
77.8146
20
-77.3794
11
77.9646
21
-77.5621
0
LINE
8
BLACK
6
CONTINUOUS
10
77.9646
20
-77.5621
11
78.076
21
-77.7706
0
LINE
8
BLACK
6
CONTINUOUS
10
78.076
20
-77.7706
11
78.1446
21
-77.9968
0
LINE
8
BLACK
6
CONTINUOUS
10
78.1446
20
-77.9968
11
78.1678
21
-78.232
0
LINE
8
BLACK
6
CONTINUOUS
10
78.1678
20
-78.232
11
78.1446
21
-78.4672
0
LINE
8
BLACK
6
CONTINUOUS
10
78.1446
20
-78.4672
11
78.076
21
-78.6934
0
LINE
8
BLACK
6
CONTINUOUS
10
78.076
20
-78.6934
11
77.9646
21
-78.9019
0
LINE
8
BLACK
6
CONTINUOUS
10
77.9646
20
-78.9019
11
77.8146
21
-79.0846
0
LINE
8
BLACK
6
CONTINUOUS
10
77.8146
20
-79.0846
11
77.712
21
-79.1689
0
LINE
8
BLACK
6
CONTINUOUS
10
77.712
20
-79.1689
11
77.712
21
-82.7672
0
LINE
8
BLACK
6
CONTINUOUS
10
77.712
20
-82.7672
11
77.7156
21
-82.804
0
LINE
8
BLACK
6
CONTINUOUS
10
77.7156
20
-82.804
11
77.712
21
-82.8408
0
LINE
8
BLACK
6
CONTINUOUS
10
77.712
20
-82.8408
11
77.712
21
-82.8408
0
LINE
8
BLACK
6
CONTINUOUS
10
77.712
20
-82.8408
11
77.7011
21
-82.951
0
LINE
8
BLACK
6
CONTINUOUS
10
77.7011
20
-82.951
11
77.6583
21
-83.0924
0
LINE
8
BLACK
6
CONTINUOUS
10
77.6583
20
-83.0924
11
77.5886
21
-83.2227
0
LINE
8
BLACK
6
CONTINUOUS
10
77.5886
20
-83.2227
11
77.4949
21
-83.3369
0
LINE
8
BLACK
6
CONTINUOUS
10
77.4949
20
-83.3369
11
77.4663
21
-83.3604
0
LINE
8
BLACK
6
CONTINUOUS
10
77.4663
20
-83.3604
11
76.8281
21
-83.9985
0
LINE
8
BLACK
6
CONTINUOUS
10
76.8281
20
-83.9985
11
76.8114
21
-84.0825
0
LINE
8
BLACK
6
CONTINUOUS
10
76.8114
20
-84.0825
11
76.7436
21
-84.2463
0
LINE
8
BLACK
6
CONTINUOUS
10
76.7436
20
-84.2463
11
76.6451
21
-84.3937
0
LINE
8
BLACK
6
CONTINUOUS
10
76.6451
20
-84.3937
11
76.5197
21
-84.5191
0
LINE
8
BLACK
6
CONTINUOUS
10
76.5197
20
-84.5191
11
76.3723
21
-84.6176
0
LINE
8
BLACK
6
CONTINUOUS
10
76.3723
20
-84.6176
11
76.2085
21
-84.6854
0
LINE
8
BLACK
6
CONTINUOUS
10
76.2085
20
-84.6854
11
76.0346
21
-84.72
0
LINE
8
BLACK
6
CONTINUOUS
10
76.0346
20
-84.72
11
75.8574
21
-84.72
0
LINE
8
BLACK
6
CONTINUOUS
10
75.8574
20
-84.72
11
75.6835
21
-84.6854
0
LINE
8
BLACK
6
CONTINUOUS
10
75.6835
20
-84.6854
11
75.5197
21
-84.6176
0
LINE
8
BLACK
6
CONTINUOUS
10
75.5197
20
-84.6176
11
75.3723
21
-84.5191
0
LINE
8
BLACK
6
CONTINUOUS
10
75.3723
20
-84.5191
11
75.2469
21
-84.3937
0
LINE
8
BLACK
6
CONTINUOUS
10
75.2469
20
-84.3937
11
75.1484
21
-84.2463
0
LINE
8
BLACK
6
CONTINUOUS
10
75.1484
20
-84.2463
11
75.0806
21
-84.0825
0
LINE
8
BLACK
6
CONTINUOUS
10
75.0806
20
-84.0825
11
75.046
21
-83.9086
0
LINE
8
BLACK
6
CONTINUOUS
10
75.046
20
-83.9086
11
75.046
21
-83.7314
0
LINE
8
BLACK
6
CONTINUOUS
10
75.046
20
-83.7314
11
75.0806
21
-83.5575
0
LINE
8
BLACK
6
CONTINUOUS
10
75.0806
20
-83.5575
11
75.1484
21
-83.3937
0
LINE
8
BLACK
6
CONTINUOUS
10
75.1484
20
-83.3937
11
75.2469
21
-83.2463
0
LINE
8
BLACK
6
CONTINUOUS
10
75.2469
20
-83.2463
11
75.3723
21
-83.1209
0
LINE
8
BLACK
6
CONTINUOUS
10
75.3723
20
-83.1209
11
75.5197
21
-83.0224
0
LINE
8
BLACK
6
CONTINUOUS
10
75.5197
20
-83.0224
11
75.6835
21
-82.9546
0
LINE
8
BLACK
6
CONTINUOUS
10
75.6835
20
-82.9546
11
75.7675
21
-82.9379
0
LINE
8
BLACK
6
CONTINUOUS
10
75.7675
20
-82.9379
11
76.212
21
-82.4933
0
LINE
8
BLACK
6
CONTINUOUS
10
76.212
20
-82.4933
11
76.212
21
-79.1689
0
LINE
8
BLACK
6
CONTINUOUS
10
76.212
20
-79.1689
11
76.1094
21
-79.0846
0
LINE
8
BLACK
6
CONTINUOUS
10
76.1094
20
-79.0846
11
75.9594
21
-78.9019
0
LINE
8
BLACK
6
CONTINUOUS
10
75.9594
20
-78.9019
11
75.848
21
-78.6934
0
LINE
8
BLACK
6
CONTINUOUS
10
75.848
20
-78.6934
11
75.7794
21
-78.4672
0
LINE
8
BLACK
6
CONTINUOUS
10
75.7794
20
-78.4672
11
75.7562
21
-78.232
0
LINE
8
BLACK
6
CONTINUOUS
10
75.7562
20
-78.232
11
75.7794
21
-77.9968
0
LINE
8
BLACK
6
CONTINUOUS
10
75.7794
20
-77.9968
11
75.848
21
-77.7706
0
LINE
8
BLACK
6
CONTINUOUS
10
75.848
20
-77.7706
11
75.9594
21
-77.5621
0
LINE
8
BLACK
6
CONTINUOUS
10
75.9594
20
-77.5621
11
76.1094
21
-77.3794
0
LINE
8
BLACK
6
CONTINUOUS
10
76.1094
20
-77.3794
11
76.2921
21
-77.2294
0
LINE
8
BLACK
6
CONTINUOUS
10
76.2921
20
-77.2294
11
76.5006
21
-77.118
0
LINE
8
BLACK
6
CONTINUOUS
10
76.5006
20
-77.118
11
76.7268
21
-77.0494
0
LINE
8
BLACK
6
CONTINUOUS
10
76.7268
20
-77.0494
11
76.903
21
-77.032
0
LINE
8
BLACK
6
CONTINUOUS
10
76.903
20
-77.032
11
77.0209
21
-77.032
0
LINE
8
BLACK
6
CONTINUOUS
10
77.0209
20
-77.032
11
77.1972
21
-77.0494
0
LINE
8
BLACK
6
CONTINUOUS
10
141.402
20
-76.784
11
144.602
21
-76.784
0
LINE
8
BLACK
6
CONTINUOUS
10
144.602
20
-76.784
11
144.602
21
-79.984
0
LINE
8
BLACK
6
CONTINUOUS
10
144.602
20
-79.984
11
141.402
21
-79.984
0
LINE
8
BLACK
6
CONTINUOUS
10
141.402
20
-79.984
11
141.402
21
-79.134
0
LINE
8
BLACK
6
CONTINUOUS
10
141.402
20
-79.134
11
138.415
21
-79.134
0
LINE
8
BLACK
6
CONTINUOUS
10
138.415
20
-79.134
11
138.378
21
-79.1376
0
LINE
8
BLACK
6
CONTINUOUS
10
138.378
20
-79.1376
11
138.341
21
-79.134
0
LINE
8
BLACK
6
CONTINUOUS
10
138.341
20
-79.134
11
138.341
21
-79.134
0
LINE
8
BLACK
6
CONTINUOUS
10
138.341
20
-79.134
11
138.231
21
-79.1231
0
LINE
8
BLACK
6
CONTINUOUS
10
138.231
20
-79.1231
11
138.09
21
-79.0803
0
LINE
8
BLACK
6
CONTINUOUS
10
138.09
20
-79.0803
11
137.959
21
-79.0106
0
LINE
8
BLACK
6
CONTINUOUS
10
137.959
20
-79.0106
11
137.845
21
-78.9169
0
LINE
8
BLACK
6
CONTINUOUS
10
137.845
20
-78.9169
11
137.822
21
-78.8883
0
LINE
8
BLACK
6
CONTINUOUS
10
137.822
20
-78.8883
11
129.202
21
-70.2684
0
LINE
8
BLACK
6
CONTINUOUS
10
129.202
20
-70.2684
11
129.173
21
-70.2449
0
LINE
8
BLACK
6
CONTINUOUS
10
129.173
20
-70.2449
11
129.15
21
-70.2163
0
LINE
8
BLACK
6
CONTINUOUS
10
129.15
20
-70.2163
11
129.15
21
-70.2163
0
LINE
8
BLACK
6
CONTINUOUS
10
129.15
20
-70.2163
11
129.122
21
-70.1828
0
LINE
8
BLACK
6
CONTINUOUS
10
129.122
20
-70.1828
11
129.079
21
-70.1307
0
LINE
8
BLACK
6
CONTINUOUS
10
129.079
20
-70.1307
11
129.01
21
-70.0004
0
LINE
8
BLACK
6
CONTINUOUS
10
129.01
20
-70.0004
11
129.01
21
-70.0004
0
LINE
8
BLACK
6
CONTINUOUS
10
129.01
20
-70.0004
11
128.967
21
-69.859
0
LINE
8
BLACK
6
CONTINUOUS
10
128.967
20
-69.859
11
128.952
21
-69.712
0
LINE
8
BLACK
6
CONTINUOUS
10
128.952
20
-69.712
11
128.956
21
-69.6752
0
LINE
8
BLACK
6
CONTINUOUS
10
128.956
20
-69.6752
11
128.956
21
-68.212
0
LINE
8
BLACK
6
CONTINUOUS
10
128.956
20
-68.212
11
128.456
21
-68.212
0
LINE
8
BLACK
6
CONTINUOUS
10
128.456
20
-68.212
11
128.456
21
-65.712
0
LINE
8
BLACK
6
CONTINUOUS
10
128.456
20
-65.712
11
130.956
21
-65.712
0
LINE
8
BLACK
6
CONTINUOUS
10
130.956
20
-65.712
11
130.956
21
-68.212
0
LINE
8
BLACK
6
CONTINUOUS
10
130.956
20
-68.212
11
130.456
21
-68.212
0
LINE
8
BLACK
6
CONTINUOUS
10
130.456
20
-68.212
11
130.456
21
-69.4013
0
LINE
8
BLACK
6
CONTINUOUS
10
130.456
20
-69.4013
11
138.689
21
-77.634
0
LINE
8
BLACK
6
CONTINUOUS
10
138.689
20
-77.634
11
141.402
21
-77.634
0
LINE
8
BLACK
6
CONTINUOUS
10
141.402
20
-77.634
11
141.402
21
-76.784
0
LINE
8
BLACK
6
CONTINUOUS
10
72.274
20
-71.8687
11
72.274
21
-72.608
0
LINE
8
BLACK
6
CONTINUOUS
10
72.274
20
-72.608
11
72.124
21
-72.608
0
LINE
8
BLACK
6
CONTINUOUS
10
72.124
20
-72.608
11
72.124
21
-75.808
0
LINE
8
BLACK
6
CONTINUOUS
10
72.124
20
-75.808
11
72.274
21
-75.808
0
LINE
8
BLACK
6
CONTINUOUS
10
72.274
20
-75.808
11
72.274
21
-77.608
0
LINE
8
BLACK
6
CONTINUOUS
10
72.274
20
-77.608
11
70.474
21
-77.608
0
LINE
8
BLACK
6
CONTINUOUS
10
70.474
20
-77.608
11
70.474
21
-75.808
0
LINE
8
BLACK
6
CONTINUOUS
10
70.474
20
-75.808
11
70.624
21
-75.808
0
LINE
8
BLACK
6
CONTINUOUS
10
70.624
20
-75.808
11
70.624
21
-72.608
0
LINE
8
BLACK
6
CONTINUOUS
10
70.624
20
-72.608
11
70.474
21
-72.608
0
LINE
8
BLACK
6
CONTINUOUS
10
70.474
20
-72.608
11
70.474
21
-70.808
0
LINE
8
BLACK
6
CONTINUOUS
10
70.474
20
-70.808
11
71.2133
21
-70.808
0
LINE
8
BLACK
6
CONTINUOUS
10
71.2133
20
-70.808
11
75.5636
21
-66.4577
0
LINE
8
BLACK
6
CONTINUOUS
10
75.5636
20
-66.4577
11
75.5871
21
-66.4291
0
LINE
8
BLACK
6
CONTINUOUS
10
75.5871
20
-66.4291
11
75.7013
21
-66.3354
0
LINE
8
BLACK
6
CONTINUOUS
10
75.7013
20
-66.3354
11
75.8316
21
-66.2657
0
LINE
8
BLACK
6
CONTINUOUS
10
75.8316
20
-66.2657
11
75.973
21
-66.2229
0
LINE
8
BLACK
6
CONTINUOUS
10
75.973
20
-66.2229
11
76.0832
21
-66.212
0
LINE
8
BLACK
6
CONTINUOUS
10
76.0832
20
-66.212
11
76.0832
21
-66.212
0
LINE
8
BLACK
6
CONTINUOUS
10
76.0832
20
-66.212
11
76.12
21
-66.2084
0
LINE
8
BLACK
6
CONTINUOUS
10
76.12
20
-66.2084
11
76.1568
21
-66.212
0
LINE
8
BLACK
6
CONTINUOUS
10
76.1568
20
-66.212
11
77.0893
21
-66.212
0
LINE
8
BLACK
6
CONTINUOUS
10
77.0893
20
-66.212
11
76.4577
21
-65.5804
0
LINE
8
BLACK
6
CONTINUOUS
10
76.4577
20
-65.5804
11
76.4291
21
-65.5569
0
LINE
8
BLACK
6
CONTINUOUS
10
76.4291
20
-65.5569
11
76.4056
21
-65.5283
0
LINE
8
BLACK
6
CONTINUOUS
10
76.4056
20
-65.5283
11
76.4056
21
-65.5283
0
LINE
8
BLACK
6
CONTINUOUS
10
76.4056
20
-65.5283
11
76.3781
21
-65.4948
0
LINE
8
BLACK
6
CONTINUOUS
10
76.3781
20
-65.4948
11
76.3354
21
-65.4427
0
LINE
8
BLACK
6
CONTINUOUS
10
76.3354
20
-65.4427
11
76.2657
21
-65.3124
0
LINE
8
BLACK
6
CONTINUOUS
10
76.2657
20
-65.3124
11
76.2657
21
-65.3124
0
LINE
8
BLACK
6
CONTINUOUS
10
76.2657
20
-65.3124
11
76.2229
21
-65.171
0
LINE
8
BLACK
6
CONTINUOUS
10
76.2229
20
-65.171
11
76.2084
21
-65.024
0
LINE
8
BLACK
6
CONTINUOUS
10
76.2084
20
-65.024
11
76.212
21
-64.9872
0
LINE
8
BLACK
6
CONTINUOUS
10
76.212
20
-64.9872
11
76.212
21
-58.8541
0
LINE
8
BLACK
6
CONTINUOUS
10
76.212
20
-58.8541
11
76.197
21
-58.8441
0
LINE
8
BLACK
6
CONTINUOUS
10
76.197
20
-58.8441
11
76.0299
21
-58.677
0
LINE
8
BLACK
6
CONTINUOUS
10
76.0299
20
-58.677
11
75.8986
21
-58.4804
0
LINE
8
BLACK
6
CONTINUOUS
10
75.8986
20
-58.4804
11
75.8081
21
-58.262
0
LINE
8
BLACK
6
CONTINUOUS
10
75.8081
20
-58.262
11
75.762
21
-58.0302
0
LINE
8
BLACK
6
CONTINUOUS
10
75.762
20
-58.0302
11
75.762
21
-57.7938
0
LINE
8
BLACK
6
CONTINUOUS
10
75.762
20
-57.7938
11
75.8081
21
-57.562
0
LINE
8
BLACK
6
CONTINUOUS
10
75.8081
20
-57.562
11
75.8986
21
-57.3436
0
LINE
8
BLACK
6
CONTINUOUS
10
75.8986
20
-57.3436
11
76.0299
21
-57.147
0
LINE
8
BLACK
6
CONTINUOUS
10
76.0299
20
-57.147
11
76.197
21
-56.9799
0
LINE
8
BLACK
6
CONTINUOUS
10
76.197
20
-56.9799
11
76.3936
21
-56.8486
0
LINE
8
BLACK
6
CONTINUOUS
10
76.3936
20
-56.8486
11
76.612
21
-56.7581
0
LINE
8
BLACK
6
CONTINUOUS
10
76.612
20
-56.7581
11
76.8438
21
-56.712
0
LINE
8
BLACK
6
CONTINUOUS
10
76.8438
20
-56.712
11
77.0802
21
-56.712
0
LINE
8
BLACK
6
CONTINUOUS
10
77.0802
20
-56.712
11
77.312
21
-56.7581
0
LINE
8
BLACK
6
CONTINUOUS
10
77.312
20
-56.7581
11
77.5304
21
-56.8486
0
LINE
8
BLACK
6
CONTINUOUS
10
77.5304
20
-56.8486
11
77.727
21
-56.9799
0
LINE
8
BLACK
6
CONTINUOUS
10
77.727
20
-56.9799
11
77.8941
21
-57.147
0
LINE
8
BLACK
6
CONTINUOUS
10
77.8941
20
-57.147
11
77.9041
21
-57.162
0
LINE
8
BLACK
6
CONTINUOUS
10
77.9041
20
-57.162
11
78.6833
21
-57.162
0
LINE
8
BLACK
6
CONTINUOUS
10
78.6833
20
-57.162
11
79.26
21
-56.5853
0
LINE
8
BLACK
6
CONTINUOUS
10
79.26
20
-56.5853
11
79.26
21
-53.1687
0
LINE
8
BLACK
6
CONTINUOUS
10
79.26
20
-53.1687
11
77.6413
21
-51.55
0
LINE
8
BLACK
6
CONTINUOUS
10
77.6413
20
-51.55
11
76.9988
21
-51.55
0
LINE
8
BLACK
6
CONTINUOUS
10
76.9988
20
-51.55
11
76.962
21
-51.5536
0
LINE
8
BLACK
6
CONTINUOUS
10
76.962
20
-51.5536
11
76.9252
21
-51.55
0
LINE
8
BLACK
6
CONTINUOUS
10
76.9252
20
-51.55
11
76.9252
21
-51.55
0
LINE
8
BLACK
6
CONTINUOUS
10
76.9252
20
-51.55
11
76.815
21
-51.5391
0
LINE
8
BLACK
6
CONTINUOUS
10
76.815
20
-51.5391
11
76.6736
21
-51.4963
0
LINE
8
BLACK
6
CONTINUOUS
10
76.6736
20
-51.4963
11
76.5433
21
-51.4266
0
LINE
8
BLACK
6
CONTINUOUS
10
76.5433
20
-51.4266
11
76.4291
21
-51.3329
0
LINE
8
BLACK
6
CONTINUOUS
10
76.4291
20
-51.3329
11
76.3354
21
-51.2187
0
LINE
8
BLACK
6
CONTINUOUS
10
76.3354
20
-51.2187
11
76.2657
21
-51.0884
0
LINE
8
BLACK
6
CONTINUOUS
10
76.2657
20
-51.0884
11
76.2229
21
-50.947
0
LINE
8
BLACK
6
CONTINUOUS
10
76.2229
20
-50.947
11
76.2084
21
-50.8
0
LINE
8
BLACK
6
CONTINUOUS
10
76.2084
20
-50.8
11
76.2229
21
-50.653
0
LINE
8
BLACK
6
CONTINUOUS
10
76.2229
20
-50.653
11
76.2657
21
-50.5116
0
LINE
8
BLACK
6
CONTINUOUS
10
76.2657
20
-50.5116
11
76.3354
21
-50.3813
0
LINE
8
BLACK
6
CONTINUOUS
10
76.3354
20
-50.3813
11
76.4291
21
-50.2671
0
LINE
8
BLACK
6
CONTINUOUS
10
76.4291
20
-50.2671
11
76.4577
21
-50.2436
0
LINE
8
BLACK
6
CONTINUOUS
10
76.4577
20
-50.2436
11
81.956
21
-44.7453
0
LINE
8
BLACK
6
CONTINUOUS
10
81.956
20
-44.7453
11
81.956
21
-40.172
0
LINE
8
BLACK
6
CONTINUOUS
10
81.956
20
-40.172
11
81.456
21
-40.172
0
LINE
8
BLACK
6
CONTINUOUS
10
81.456
20
-40.172
11
81.456
21
-37.672
0
LINE
8
BLACK
6
CONTINUOUS
10
81.456
20
-37.672
11
83.956
21
-37.672
0
LINE
8
BLACK
6
CONTINUOUS
10
83.956
20
-37.672
11
83.956
21
-38.172
0
LINE
8
BLACK
6
CONTINUOUS
10
83.956
20
-38.172
11
85.1453
21
-38.172
0
LINE
8
BLACK
6
CONTINUOUS
10
85.1453
20
-38.172
11
87.0996
21
-36.2177
0
LINE
8
BLACK
6
CONTINUOUS
10
87.0996
20
-36.2177
11
87.1231
21
-36.1891
0
LINE
8
BLACK
6
CONTINUOUS
10
87.1231
20
-36.1891
11
87.2373
21
-36.0954
0
LINE
8
BLACK
6
CONTINUOUS
10
87.2373
20
-36.0954
11
87.3676
21
-36.0257
0
LINE
8
BLACK
6
CONTINUOUS
10
87.3676
20
-36.0257
11
87.4761
21
-35.9928
0
LINE
8
BLACK
6
CONTINUOUS
10
87.4761
20
-35.9928
11
87.509
21
-35.9829
0
LINE
8
BLACK
6
CONTINUOUS
10
87.509
20
-35.9829
11
87.5238
21
-35.9814
0
LINE
8
BLACK
6
CONTINUOUS
10
87.5238
20
-35.9814
11
87.6192
21
-35.972
0
LINE
8
BLACK
6
CONTINUOUS
10
87.6192
20
-35.972
11
87.6192
21
-35.972
0
LINE
8
BLACK
6
CONTINUOUS
10
87.6192
20
-35.972
11
87.656
21
-35.9684
0
LINE
8
BLACK
6
CONTINUOUS
10
87.656
20
-35.9684
11
87.6928
21
-35.972
0
LINE
8
BLACK
6
CONTINUOUS
10
87.6928
20
-35.972
11
136.103
21
-35.972
0
LINE
8
BLACK
6
CONTINUOUS
10
136.103
20
-35.972
11
136.14
21
-35.9684
0
LINE
8
BLACK
6
CONTINUOUS
10
136.14
20
-35.9684
11
136.177
21
-35.972
0
LINE
8
BLACK
6
CONTINUOUS
10
136.177
20
-35.972
11
136.177
21
-35.972
0
LINE
8
BLACK
6
CONTINUOUS
10
136.177
20
-35.972
11
136.287
21
-35.9829
0
LINE
8
BLACK
6
CONTINUOUS
10
136.287
20
-35.9829
11
136.428
21
-36.0257
0
LINE
8
BLACK
6
CONTINUOUS
10
136.428
20
-36.0257
11
136.559
21
-36.0954
0
LINE
8
BLACK
6
CONTINUOUS
10
136.559
20
-36.0954
11
136.673
21
-36.1891
0
LINE
8
BLACK
6
CONTINUOUS
10
136.673
20
-36.1891
11
136.696
21
-36.2177
0
LINE
8
BLACK
6
CONTINUOUS
10
136.696
20
-36.2177
11
140.213
21
-39.734
0
LINE
8
BLACK
6
CONTINUOUS
10
140.213
20
-39.734
11
141.402
21
-39.734
0
LINE
8
BLACK
6
CONTINUOUS
10
141.402
20
-39.734
11
141.402
21
-38.884
0
LINE
8
BLACK
6
CONTINUOUS
10
141.402
20
-38.884
11
144.602
21
-38.884
0
LINE
8
BLACK
6
CONTINUOUS
10
144.602
20
-38.884
11
144.602
21
-42.084
0
LINE
8
BLACK
6
CONTINUOUS
10
144.602
20
-42.084
11
141.402
21
-42.084
0
LINE
8
BLACK
6
CONTINUOUS
10
141.402
20
-42.084
11
141.402
21
-41.234
0
LINE
8
BLACK
6
CONTINUOUS
10
141.402
20
-41.234
11
139.939
21
-41.234
0
LINE
8
BLACK
6
CONTINUOUS
10
139.939
20
-41.234
11
139.902
21
-41.2376
0
LINE
8
BLACK
6
CONTINUOUS
10
139.902
20
-41.2376
11
139.865
21
-41.234
0
LINE
8
BLACK
6
CONTINUOUS
10
139.865
20
-41.234
11
139.865
21
-41.234
0
LINE
8
BLACK
6
CONTINUOUS
10
139.865
20
-41.234
11
139.755
21
-41.2231
0
LINE
8
BLACK
6
CONTINUOUS
10
139.755
20
-41.2231
11
139.614
21
-41.1803
0
LINE
8
BLACK
6
CONTINUOUS
10
139.614
20
-41.1803
11
139.483
21
-41.1106
0
LINE
8
BLACK
6
CONTINUOUS
10
139.483
20
-41.1106
11
139.472
21
-41.1013
0
LINE
8
BLACK
6
CONTINUOUS
10
139.472
20
-41.1013
11
139.398
21
-41.0404
0
LINE
8
BLACK
6
CONTINUOUS
10
139.398
20
-41.0404
11
139.398
21
-41.0404
0
LINE
8
BLACK
6
CONTINUOUS
10
139.398
20
-41.0404
11
139.369
21
-41.0169
0
LINE
8
BLACK
6
CONTINUOUS
10
139.369
20
-41.0169
11
139.346
21
-40.9883
0
LINE
8
BLACK
6
CONTINUOUS
10
139.346
20
-40.9883
11
135.829
21
-37.472
0
LINE
8
BLACK
6
CONTINUOUS
10
135.829
20
-37.472
11
87.9667
21
-37.472
0
LINE
8
BLACK
6
CONTINUOUS
10
87.9667
20
-37.472
11
86.0124
21
-39.4263
0
LINE
8
BLACK
6
CONTINUOUS
10
86.0124
20
-39.4263
11
85.9889
21
-39.4549
0
LINE
8
BLACK
6
CONTINUOUS
10
85.9889
20
-39.4549
11
85.8747
21
-39.5486
0
LINE
8
BLACK
6
CONTINUOUS
10
85.8747
20
-39.5486
11
85.7444
21
-39.6183
0
LINE
8
BLACK
6
CONTINUOUS
10
85.7444
20
-39.6183
11
85.603
21
-39.6611
0
LINE
8
BLACK
6
CONTINUOUS
10
85.603
20
-39.6611
11
85.4928
21
-39.672
0
LINE
8
BLACK
6
CONTINUOUS
10
85.4928
20
-39.672
11
85.4928
21
-39.672
0
LINE
8
BLACK
6
CONTINUOUS
10
85.4928
20
-39.672
11
85.456
21
-39.6756
0
LINE
8
BLACK
6
CONTINUOUS
10
85.456
20
-39.6756
11
85.4192
21
-39.672
0
LINE
8
BLACK
6
CONTINUOUS
10
85.4192
20
-39.672
11
83.956
21
-39.672
0
LINE
8
BLACK
6
CONTINUOUS
10
83.956
20
-39.672
11
83.956
21
-40.172
0
LINE
8
BLACK
6
CONTINUOUS
10
83.956
20
-40.172
11
83.456
21
-40.172
0
LINE
8
BLACK
6
CONTINUOUS
10
83.456
20
-40.172
11
83.456
21
-45.0192
0
LINE
8
BLACK
6
CONTINUOUS
10
83.456
20
-45.0192
11
83.4596
21
-45.056
0
LINE
8
BLACK
6
CONTINUOUS
10
83.4596
20
-45.056
11
83.456
21
-45.0928
0
LINE
8
BLACK
6
CONTINUOUS
10
83.456
20
-45.0928
11
83.456
21
-45.0928
0
LINE
8
BLACK
6
CONTINUOUS
10
83.456
20
-45.0928
11
83.4451
21
-45.203
0
LINE
8
BLACK
6
CONTINUOUS
10
83.4451
20
-45.203
11
83.4023
21
-45.3444
0
LINE
8
BLACK
6
CONTINUOUS
10
83.4023
20
-45.3444
11
83.3326
21
-45.4747
0
LINE
8
BLACK
6
CONTINUOUS
10
83.3326
20
-45.4747
11
83.2389
21
-45.5889
0
LINE
8
BLACK
6
CONTINUOUS
10
83.2389
20
-45.5889
11
83.2103
21
-45.6124
0
LINE
8
BLACK
6
CONTINUOUS
10
83.2103
20
-45.6124
11
78.5176
21
-50.305
0
LINE
8
BLACK
6
CONTINUOUS
10
78.5176
20
-50.305
11
80.5143
21
-52.3017
0
LINE
8
BLACK
6
CONTINUOUS
10
80.5143
20
-52.3017
11
80.5429
21
-52.3252
0
LINE
8
BLACK
6
CONTINUOUS
10
80.5429
20
-52.3252
11
80.5664
21
-52.3538
0
LINE
8
BLACK
6
CONTINUOUS
10
80.5664
20
-52.3538
11
80.5664
21
-52.3538
0
LINE
8
BLACK
6
CONTINUOUS
10
80.5664
20
-52.3538
11
80.6366
21
-52.4394
0
LINE
8
BLACK
6
CONTINUOUS
10
80.6366
20
-52.4394
11
80.7063
21
-52.5696
0
LINE
8
BLACK
6
CONTINUOUS
10
80.7063
20
-52.5696
11
80.7491
21
-52.711
0
LINE
8
BLACK
6
CONTINUOUS
10
80.7491
20
-52.711
11
80.76
21
-52.8212
0
LINE
8
BLACK
6
CONTINUOUS
10
80.76
20
-52.8212
11
80.76
21
-52.8212
0
LINE
8
BLACK
6
CONTINUOUS
10
80.76
20
-52.8212
11
80.7636
21
-52.8581
0
LINE
8
BLACK
6
CONTINUOUS
10
80.7636
20
-52.8581
11
80.76
21
-52.8949
0
LINE
8
BLACK
6
CONTINUOUS
10
80.76
20
-52.8949
11
80.76
21
-56.8592
0
LINE
8
BLACK
6
CONTINUOUS
10
80.76
20
-56.8592
11
80.7636
21
-56.896
0
LINE
8
BLACK
6
CONTINUOUS
10
80.7636
20
-56.896
11
80.76
21
-56.9328
0
LINE
8
BLACK
6
CONTINUOUS
10
80.76
20
-56.9328
11
80.76
21
-56.9328
0
LINE
8
BLACK
6
CONTINUOUS
10
80.76
20
-56.9328
11
80.7491
21
-57.043
0
LINE
8
BLACK
6
CONTINUOUS
10
80.7491
20
-57.043
11
80.7063
21
-57.1844
0
LINE
8
BLACK
6
CONTINUOUS
10
80.7063
20
-57.1844
11
80.6366
21
-57.3147
0
LINE
8
BLACK
6
CONTINUOUS
10
80.6366
20
-57.3147
11
80.5429
21
-57.4289
0
LINE
8
BLACK
6
CONTINUOUS
10
80.5429
20
-57.4289
11
80.5143
21
-57.4524
0
LINE
8
BLACK
6
CONTINUOUS
10
80.5143
20
-57.4524
11
79.5504
21
-58.4163
0
LINE
8
BLACK
6
CONTINUOUS
10
79.5504
20
-58.4163
11
79.5269
21
-58.4449
0
LINE
8
BLACK
6
CONTINUOUS
10
79.5269
20
-58.4449
11
79.4127
21
-58.5386
0
LINE
8
BLACK
6
CONTINUOUS
10
79.4127
20
-58.5386
11
79.2824
21
-58.6083
0
LINE
8
BLACK
6
CONTINUOUS
10
79.2824
20
-58.6083
11
79.141
21
-58.6511
0
LINE
8
BLACK
6
CONTINUOUS
10
79.141
20
-58.6511
11
79.0308
21
-58.662
0
LINE
8
BLACK
6
CONTINUOUS
10
79.0308
20
-58.662
11
79.0308
21
-58.662
0
LINE
8
BLACK
6
CONTINUOUS
10
79.0308
20
-58.662
11
78.994
21
-58.6656
0
LINE
8
BLACK
6
CONTINUOUS
10
78.994
20
-58.6656
11
78.9572
21
-58.662
0
LINE
8
BLACK
6
CONTINUOUS
10
78.9572
20
-58.662
11
77.9041
21
-58.662
0
LINE
8
BLACK
6
CONTINUOUS
10
77.9041
20
-58.662
11
77.8941
21
-58.677
0
LINE
8
BLACK
6
CONTINUOUS
10
77.8941
20
-58.677
11
77.727
21
-58.8441
0
LINE
8
BLACK
6
CONTINUOUS
10
77.727
20
-58.8441
11
77.712
21
-58.8541
0
LINE
8
BLACK
6
CONTINUOUS
10
77.712
20
-58.8541
11
77.712
21
-64.7133
0
LINE
8
BLACK
6
CONTINUOUS
10
77.712
20
-64.7133
11
79.2107
21
-66.212
0
LINE
8
BLACK
6
CONTINUOUS
10
79.2107
20
-66.212
11
81.456
21
-66.212
0
LINE
8
BLACK
6
CONTINUOUS
10
81.456
20
-66.212
11
81.456
21
-65.712
0
LINE
8
BLACK
6
CONTINUOUS
10
81.456
20
-65.712
11
83.956
21
-65.712
0
LINE
8
BLACK
6
CONTINUOUS
10
83.956
20
-65.712
11
83.956
21
-68.212
0
LINE
8
BLACK
6
CONTINUOUS
10
83.956
20
-68.212
11
81.456
21
-68.212
0
LINE
8
BLACK
6
CONTINUOUS
10
81.456
20
-68.212
11
81.456
21
-67.712
0
LINE
8
BLACK
6
CONTINUOUS
10
81.456
20
-67.712
11
78.9368
21
-67.712
0
LINE
8
BLACK
6
CONTINUOUS
10
78.9368
20
-67.712
11
78.9
21
-67.7156
0
LINE
8
BLACK
6
CONTINUOUS
10
78.9
20
-67.7156
11
78.8632
21
-67.712
0
LINE
8
BLACK
6
CONTINUOUS
10
78.8632
20
-67.712
11
76.4307
21
-67.712
0
LINE
8
BLACK
6
CONTINUOUS
10
76.4307
20
-67.712
11
72.274
21
-71.8687
0
LINE
8
BLACK
6
CONTINUOUS
10
130.956
20
-60.172
11
138.103
21
-60.172
0
LINE
8
BLACK
6
CONTINUOUS
10
138.103
20
-60.172
11
138.14
21
-60.1684
0
LINE
8
BLACK
6
CONTINUOUS
10
138.14
20
-60.1684
11
138.177
21
-60.172
0
LINE
8
BLACK
6
CONTINUOUS
10
138.177
20
-60.172
11
138.177
21
-60.172
0
LINE
8
BLACK
6
CONTINUOUS
10
138.177
20
-60.172
11
138.287
21
-60.1829
0
LINE
8
BLACK
6
CONTINUOUS
10
138.287
20
-60.1829
11
138.428
21
-60.2257
0
LINE
8
BLACK
6
CONTINUOUS
10
138.428
20
-60.2257
11
138.559
21
-60.2954
0
LINE
8
BLACK
6
CONTINUOUS
10
138.559
20
-60.2954
11
138.673
21
-60.3891
0
LINE
8
BLACK
6
CONTINUOUS
10
138.673
20
-60.3891
11
138.696
21
-60.4177
0
LINE
8
BLACK
6
CONTINUOUS
10
138.696
20
-60.4177
11
143.506
21
-65.2276
0
LINE
8
BLACK
6
CONTINUOUS
10
143.506
20
-65.2276
11
143.535
21
-65.2511
0
LINE
8
BLACK
6
CONTINUOUS
10
143.535
20
-65.2511
11
143.629
21
-65.3653
0
LINE
8
BLACK
6
CONTINUOUS
10
143.629
20
-65.3653
11
143.698
21
-65.4956
0
LINE
8
BLACK
6
CONTINUOUS
10
143.698
20
-65.4956
11
143.741
21
-65.637
0
LINE
8
BLACK
6
CONTINUOUS
10
143.741
20
-65.637
11
143.752
21
-65.7472
0
LINE
8
BLACK
6
CONTINUOUS
10
143.752
20
-65.7472
11
143.752
21
-65.7472
0
LINE
8
BLACK
6
CONTINUOUS
10
143.752
20
-65.7472
11
143.756
21
-65.784
0
LINE
8
BLACK
6
CONTINUOUS
10
143.756
20
-65.784
11
143.752
21
-65.8208
0
LINE
8
BLACK
6
CONTINUOUS
10
143.752
20
-65.8208
11
143.752
21
-67.284
0
LINE
8
BLACK
6
CONTINUOUS
10
143.752
20
-67.284
11
144.602
21
-67.284
0
LINE
8
BLACK
6
CONTINUOUS
10
144.602
20
-67.284
11
144.602
21
-70.484
0
LINE
8
BLACK
6
CONTINUOUS
10
144.602
20
-70.484
11
141.402
21
-70.484
0
LINE
8
BLACK
6
CONTINUOUS
10
141.402
20
-70.484
11
141.402
21
-67.284
0
LINE
8
BLACK
6
CONTINUOUS
10
141.402
20
-67.284
11
142.252
21
-67.284
0
LINE
8
BLACK
6
CONTINUOUS
10
142.252
20
-67.284
11
142.252
21
-66.0947
0
LINE
8
BLACK
6
CONTINUOUS
10
142.252
20
-66.0947
11
137.829
21
-61.672
0
LINE
8
BLACK
6
CONTINUOUS
10
137.829
20
-61.672
11
130.956
21
-61.672
0
LINE
8
BLACK
6
CONTINUOUS
10
130.956
20
-61.672
11
130.956
21
-62.172
0
LINE
8
BLACK
6
CONTINUOUS
10
130.956
20
-62.172
11
128.456
21
-62.172
0
LINE
8
BLACK
6
CONTINUOUS
10
128.456
20
-62.172
11
128.456
21
-59.672
0
LINE
8
BLACK
6
CONTINUOUS
10
128.456
20
-59.672
11
130.956
21
-59.672
0
LINE
8
BLACK
6
CONTINUOUS
10
130.956
20
-59.672
11
130.956
21
-60.172
0
LINE
8
BLACK
6
CONTINUOUS
10
130.956
20
-40.172
11
130.456
21
-40.172
0
LINE
8
BLACK
6
CONTINUOUS
10
130.456
20
-40.172
11
130.456
21
-41.3613
0
LINE
8
BLACK
6
CONTINUOUS
10
130.456
20
-41.3613
11
133.049
21
-43.954
0
LINE
8
BLACK
6
CONTINUOUS
10
133.049
20
-43.954
11
145.759
21
-43.954
0
LINE
8
BLACK
6
CONTINUOUS
10
145.759
20
-43.954
11
145.796
21
-43.9504
0
LINE
8
BLACK
6
CONTINUOUS
10
145.796
20
-43.9504
11
145.833
21
-43.954
0
LINE
8
BLACK
6
CONTINUOUS
10
145.833
20
-43.954
11
145.833
21
-43.954
0
LINE
8
BLACK
6
CONTINUOUS
10
145.833
20
-43.954
11
145.943
21
-43.9649
0
LINE
8
BLACK
6
CONTINUOUS
10
145.943
20
-43.9649
11
146.084
21
-44.0077
0
LINE
8
BLACK
6
CONTINUOUS
10
146.084
20
-44.0077
11
146.215
21
-44.0774
0
LINE
8
BLACK
6
CONTINUOUS
10
146.215
20
-44.0774
11
146.329
21
-44.1711
0
LINE
8
BLACK
6
CONTINUOUS
10
146.329
20
-44.1711
11
146.352
21
-44.1997
0
LINE
8
BLACK
6
CONTINUOUS
10
146.352
20
-44.1997
11
147.824
21
-45.6716
0
LINE
8
BLACK
6
CONTINUOUS
10
147.824
20
-45.6716
11
147.853
21
-45.6951
0
LINE
8
BLACK
6
CONTINUOUS
10
147.853
20
-45.6951
11
147.876
21
-45.7237
0
LINE
8
BLACK
6
CONTINUOUS
10
147.876
20
-45.7237
11
147.876
21
-45.7237
0
LINE
8
BLACK
6
CONTINUOUS
10
147.876
20
-45.7237
11
147.935
21
-45.7951
0
LINE
8
BLACK
6
CONTINUOUS
10
147.935
20
-45.7951
11
147.947
21
-45.8093
0
LINE
8
BLACK
6
CONTINUOUS
10
147.947
20
-45.8093
11
148.016
21
-45.9396
0
LINE
8
BLACK
6
CONTINUOUS
10
148.016
20
-45.9396
11
148.059
21
-46.081
0
LINE
8
BLACK
6
CONTINUOUS
10
148.059
20
-46.081
11
148.07
21
-46.1912
0
LINE
8
BLACK
6
CONTINUOUS
10
148.07
20
-46.1912
11
148.07
21
-46.1912
0
LINE
8
BLACK
6
CONTINUOUS
10
148.07
20
-46.1912
11
148.074
21
-46.228
0
LINE
8
BLACK
6
CONTINUOUS
10
148.074
20
-46.228
11
148.07
21
-46.2648
0
LINE
8
BLACK
6
CONTINUOUS
10
148.07
20
-46.2648
11
148.07
21
-58.1292
0
LINE
8
BLACK
6
CONTINUOUS
10
148.07
20
-58.1292
11
148.074
21
-58.166
0
LINE
8
BLACK
6
CONTINUOUS
10
148.074
20
-58.166
11
148.07
21
-58.2028
0
LINE
8
BLACK
6
CONTINUOUS
10
148.07
20
-58.2028
11
148.07
21
-58.2028
0
LINE
8
BLACK
6
CONTINUOUS
10
148.07
20
-58.2028
11
148.059
21
-58.313
0
LINE
8
BLACK
6
CONTINUOUS
10
148.059
20
-58.313
11
148.016
21
-58.4544
0
LINE
8
BLACK
6
CONTINUOUS
10
148.016
20
-58.4544
11
147.947
21
-58.5847
0
LINE
8
BLACK
6
CONTINUOUS
10
147.947
20
-58.5847
11
147.853
21
-58.6989
0
LINE
8
BLACK
6
CONTINUOUS
10
147.853
20
-58.6989
11
147.824
21
-58.7224
0
LINE
8
BLACK
6
CONTINUOUS
10
147.824
20
-58.7224
11
146.658
21
-59.8883
0
LINE
8
BLACK
6
CONTINUOUS
10
146.658
20
-59.8883
11
146.635
21
-59.9169
0
LINE
8
BLACK
6
CONTINUOUS
10
146.635
20
-59.9169
11
146.521
21
-60.0106
0
LINE
8
BLACK
6
CONTINUOUS
10
146.521
20
-60.0106
11
146.39
21
-60.0803
0
LINE
8
BLACK
6
CONTINUOUS
10
146.39
20
-60.0803
11
146.249
21
-60.1231
0
LINE
8
BLACK
6
CONTINUOUS
10
146.249
20
-60.1231
11
146.139
21
-60.134
0
LINE
8
BLACK
6
CONTINUOUS
10
146.139
20
-60.134
11
146.139
21
-60.134
0
LINE
8
BLACK
6
CONTINUOUS
10
146.139
20
-60.134
11
146.102
21
-60.1376
0
LINE
8
BLACK
6
CONTINUOUS
10
146.102
20
-60.1376
11
146.065
21
-60.134
0
LINE
8
BLACK
6
CONTINUOUS
10
146.065
20
-60.134
11
144.602
21
-60.134
0
LINE
8
BLACK
6
CONTINUOUS
10
144.602
20
-60.134
11
144.602
21
-60.984
0
LINE
8
BLACK
6
CONTINUOUS
10
144.602
20
-60.984
11
141.402
21
-60.984
0
LINE
8
BLACK
6
CONTINUOUS
10
141.402
20
-60.984
11
141.402
21
-57.784
0
LINE
8
BLACK
6
CONTINUOUS
10
141.402
20
-57.784
11
144.602
21
-57.784
0
LINE
8
BLACK
6
CONTINUOUS
10
144.602
20
-57.784
11
144.602
21
-58.634
0
LINE
8
BLACK
6
CONTINUOUS
10
144.602
20
-58.634
11
145.791
21
-58.634
0
LINE
8
BLACK
6
CONTINUOUS
10
145.791
20
-58.634
11
146.57
21
-57.8553
0
LINE
8
BLACK
6
CONTINUOUS
10
146.57
20
-57.8553
11
146.57
21
-46.5387
0
LINE
8
BLACK
6
CONTINUOUS
10
146.57
20
-46.5387
11
145.485
21
-45.454
0
LINE
8
BLACK
6
CONTINUOUS
10
145.485
20
-45.454
11
132.775
21
-45.454
0
LINE
8
BLACK
6
CONTINUOUS
10
132.775
20
-45.454
11
132.738
21
-45.4576
0
LINE
8
BLACK
6
CONTINUOUS
10
132.738
20
-45.4576
11
132.701
21
-45.454
0
LINE
8
BLACK
6
CONTINUOUS
10
132.701
20
-45.454
11
132.701
21
-45.454
0
LINE
8
BLACK
6
CONTINUOUS
10
132.701
20
-45.454
11
132.591
21
-45.4431
0
LINE
8
BLACK
6
CONTINUOUS
10
132.591
20
-45.4431
11
132.45
21
-45.4003
0
LINE
8
BLACK
6
CONTINUOUS
10
132.45
20
-45.4003
11
132.319
21
-45.3306
0
LINE
8
BLACK
6
CONTINUOUS
10
132.319
20
-45.3306
11
132.205
21
-45.2369
0
LINE
8
BLACK
6
CONTINUOUS
10
132.205
20
-45.2369
11
132.182
21
-45.2083
0
LINE
8
BLACK
6
CONTINUOUS
10
132.182
20
-45.2083
11
129.202
21
-42.2284
0
LINE
8
BLACK
6
CONTINUOUS
10
129.202
20
-42.2284
11
129.173
21
-42.2049
0
LINE
8
BLACK
6
CONTINUOUS
10
129.173
20
-42.2049
11
129.15
21
-42.1763
0
LINE
8
BLACK
6
CONTINUOUS
10
129.15
20
-42.1763
11
129.15
21
-42.1763
0
LINE
8
BLACK
6
CONTINUOUS
10
129.15
20
-42.1763
11
129.122
21
-42.1428
0
LINE
8
BLACK
6
CONTINUOUS
10
129.122
20
-42.1428
11
129.079
21
-42.0907
0
LINE
8
BLACK
6
CONTINUOUS
10
129.079
20
-42.0907
11
129.01
21
-41.9604
0
LINE
8
BLACK
6
CONTINUOUS
10
129.01
20
-41.9604
11
129.01
21
-41.9604
0
LINE
8
BLACK
6
CONTINUOUS
10
129.01
20
-41.9604
11
128.967
21
-41.819
0
LINE
8
BLACK
6
CONTINUOUS
10
128.967
20
-41.819
11
128.952
21
-41.672
0
LINE
8
BLACK
6
CONTINUOUS
10
128.952
20
-41.672
11
128.956
21
-41.6352
0
LINE
8
BLACK
6
CONTINUOUS
10
128.956
20
-41.6352
11
128.956
21
-40.172
0
LINE
8
BLACK
6
CONTINUOUS
10
128.956
20
-40.172
11
128.456
21
-40.172
0
LINE
8
BLACK
6
CONTINUOUS
10
128.456
20
-40.172
11
128.456
21
-37.672
0
LINE
8
BLACK
6
CONTINUOUS
10
128.456
20
-37.672
11
130.956
21
-37.672
0
LINE
8
BLACK
6
CONTINUOUS
10
130.956
20
-37.672
11
130.956
21
-40.172
0
LINE
8
BLACK
6
CONTINUOUS
10
73.128
20
-44.68
11
72.378
21
-44.68
0
LINE
8
BLACK
6
CONTINUOUS
10
72.378
20
-44.68
11
72.378
21
-51.4172
0
LINE
8
BLACK
6
CONTINUOUS
10
72.378
20
-51.4172
11
72.3816
21
-51.454
0
LINE
8
BLACK
6
CONTINUOUS
10
72.3816
20
-51.454
11
72.378
21
-51.4908
0
LINE
8
BLACK
6
CONTINUOUS
10
72.378
20
-51.4908
11
72.378
21
-51.4908
0
LINE
8
BLACK
6
CONTINUOUS
10
72.378
20
-51.4908
11
72.3671
21
-51.601
0
LINE
8
BLACK
6
CONTINUOUS
10
72.3671
20
-51.601
11
72.3243
21
-51.7424
0
LINE
8
BLACK
6
CONTINUOUS
10
72.3243
20
-51.7424
11
72.274
21
-51.8364
0
LINE
8
BLACK
6
CONTINUOUS
10
72.274
20
-51.8364
11
72.274
21
-52.608
0
LINE
8
BLACK
6
CONTINUOUS
10
72.274
20
-52.608
11
72.124
21
-52.608
0
LINE
8
BLACK
6
CONTINUOUS
10
72.124
20
-52.608
11
72.124
21
-55.808
0
LINE
8
BLACK
6
CONTINUOUS
10
72.124
20
-55.808
11
72.274
21
-55.808
0
LINE
8
BLACK
6
CONTINUOUS
10
72.274
20
-55.808
11
72.274
21
-57.608
0
LINE
8
BLACK
6
CONTINUOUS
10
72.274
20
-57.608
11
70.474
21
-57.608
0
LINE
8
BLACK
6
CONTINUOUS
10
70.474
20
-57.608
11
70.474
21
-55.808
0
LINE
8
BLACK
6
CONTINUOUS
10
70.474
20
-55.808
11
70.624
21
-55.808
0
LINE
8
BLACK
6
CONTINUOUS
10
70.624
20
-55.808
11
70.624
21
-52.608
0
LINE
8
BLACK
6
CONTINUOUS
10
70.624
20
-52.608
11
70.474
21
-52.608
0
LINE
8
BLACK
6
CONTINUOUS
10
70.474
20
-52.608
11
70.474
21
-50.808
0
LINE
8
BLACK
6
CONTINUOUS
10
70.474
20
-50.808
11
70.878
21
-50.808
0
LINE
8
BLACK
6
CONTINUOUS
10
70.878
20
-50.808
11
70.878
21
-44.68
0
LINE
8
BLACK
6
CONTINUOUS
10
70.878
20
-44.68
11
70.128
21
-44.68
0
LINE
8
BLACK
6
CONTINUOUS
10
70.128
20
-44.68
11
70.128
21
-41.68
0
LINE
8
BLACK
6
CONTINUOUS
10
70.128
20
-41.68
11
73.128
21
-41.68
0
LINE
8
BLACK
6
CONTINUOUS
10
73.128
20
-41.68
11
73.128
21
-44.68
  0
ENDSEC
  0
EOF
