M48
; DRILL file {KiCad (5.1.2)-2} date 4/22/2020 12:52:20 PM
; FORMAT={2:4/ absolute / inch / suppress leading zeros}
; #@! TF.CreationDate,2020-04-22T12:52:20+07:00
; #@! TF.GenerationSoftware,Kicad,Pcbnew,(5.1.2)-2
FMAT,2
INCH,TZ
T1C0.0236
T2C0.0354
T3C0.0394
T4C0.0472
T5C0.0551
T6C0.0598
%
G90
G05
T1
X30300Y-20000
X30300Y-20787
T2
X29900Y-33000
X29900Y-34000
T3
X28100Y-20357
X28100Y-22326
X28100Y-28231
X28100Y-30200
T4
X30300Y-22800
X30300Y-30800
X32561Y-15324
X32561Y-23985
X51065Y-15324
X51065Y-23985
X32561Y-26363
X32561Y-35024
X51065Y-26363
X51065Y-35024
T5
X56300Y-15939
X56300Y-19639
X56300Y-23380
X56300Y-27120
X56300Y-30860
X56300Y-34600
T6
X28200Y-17000
X30200Y-17000
T0
M30
