  0
SECTION
  2
HEADER
  9
$ANGBASE
  50
0.0
  9
$ANGDIR
  70
  1
  9
$MEASUREMENT
  70
0
  0
ENDSEC
  0
SECTION
  2
TABLES
  0
TABLE
  2
LTYPE
  70
4
  0
LTYPE
  5
40F
  2
CONTINUOUS
  70
0
  3
Solid line
  72
65
  73
0
  40
0.0
  0
LTYPE
  5
410
  2
DASHDOT
 70
0
  3
Dash Dot ____ _ ____ _
 72
65
 73
4
 40
2.0
 49
1.25
 49
-0.25
 49
0.25
 49
-0.25
  0
LTYPE
  5
411
  2
DASHED
 70
0
  3
Dashed __ __ __ __ __
 72
65
 73
2
 40
0.75
 49
0.5
 49
-0.25
  0
LTYPE
  5
43B
  2
DOTTED
 70
0
  3
Dotted .  .  .  .
 72
65
 73
2
 40
0.2
 49
0.0
 49
-0.2
  0
ENDTAB
  0
TABLE
  2
STYLE
  70
4
  0
STYLE
  2
KICAD
  70
0
  40
0
  41
1
  42
1
  50
0
  71
0
  3
isocp.shx
  0
STYLE
  2
KICADB
  70
0
  40
0
  41
1
  42
1
  50
0
  71
0
  3
isocp.shx
  0
STYLE
  2
KICADI
  70
0
  40
0
  41
1
  42
1
  50
15
  71
0
  3
isocp.shx
  0
STYLE
  2
KICADBI
  70
0
  40
0
  41
1
  42
1
  50
15
  71
0
  3
isocp.shx
  0
ENDTAB
  0
TABLE
  2
LAYER
  70
30
  0
LAYER
  2
BLACK
  70
0
  62
7
  6
CONTINUOUS
  0
LAYER
  2
GRAY1
  70
0
  62
251
  6
CONTINUOUS
  0
LAYER
  2
GRAY2
  70
0
  62
8
  6
CONTINUOUS
  0
LAYER
  2
GRAY3
  70
0
  62
9
  6
CONTINUOUS
  0
LAYER
  2
WHITE
  70
0
  62
7
  6
CONTINUOUS
  0
LAYER
  2
LYELLOW
  70
0
  62
51
  6
CONTINUOUS
  0
LAYER
  2
BLUE1
  70
0
  62
178
  6
CONTINUOUS
  0
LAYER
  2
GREEN1
  70
0
  62
98
  6
CONTINUOUS
  0
LAYER
  2
CYAN1
  70
0
  62
138
  6
CONTINUOUS
  0
LAYER
  2
RED1
  70
0
  62
18
  6
CONTINUOUS
  0
LAYER
  2
MAGENTA1
  70
0
  62
228
  6
CONTINUOUS
  0
LAYER
  2
BROWN1
  70
0
  62
58
  6
CONTINUOUS
  0
LAYER
  2
BLUE2
  70
0
  62
5
  6
CONTINUOUS
  0
LAYER
  2
GREEN2
  70
0
  62
3
  6
CONTINUOUS
  0
LAYER
  2
CYAN2
  70
0
  62
4
  6
CONTINUOUS
  0
LAYER
  2
RED2
  70
0
  62
1
  6
CONTINUOUS
  0
LAYER
  2
MAGENTA2
  70
0
  62
6
  6
CONTINUOUS
  0
LAYER
  2
BROWN2
  70
0
  62
54
  6
CONTINUOUS
  0
LAYER
  2
BLUE3
  70
0
  62
171
  6
CONTINUOUS
  0
LAYER
  2
GREEN3
  70
0
  62
91
  6
CONTINUOUS
  0
LAYER
  2
CYAN3
  70
0
  62
131
  6
CONTINUOUS
  0
LAYER
  2
RED3
  70
0
  62
11
  6
CONTINUOUS
  0
LAYER
  2
MAGENTA3
  70
0
  62
221
  6
CONTINUOUS
  0
LAYER
  2
YELLOW3
  70
0
  62
2
  6
CONTINUOUS
  0
LAYER
  2
BLUE4
  70
0
  62
5
  6
CONTINUOUS
  0
LAYER
  2
GREEN4
  70
0
  62
3
  6
CONTINUOUS
  0
LAYER
  2
CYAN4
  70
0
  62
4
  6
CONTINUOUS
  0
LAYER
  2
RED4
  70
0
  62
1
  6
CONTINUOUS
  0
LAYER
  2
MAGENTA4
  70
0
  62
6
  6
CONTINUOUS
  0
LAYER
  2
YELLOW4
  70
0
  62
2
  6
CONTINUOUS
  0
ENDTAB
  0
ENDSEC
  0
SECTION
  2
ENTITIES
0
LINE
8
BLACK
6
CONTINUOUS
10
130.956
20
-90.212
11
128.456
21
-90.212
0
LINE
8
BLACK
6
CONTINUOUS
10
128.456
20
-90.212
11
128.456
21
-87.712
0
LINE
8
BLACK
6
CONTINUOUS
10
128.456
20
-87.712
11
130.956
21
-87.712
0
LINE
8
BLACK
6
CONTINUOUS
10
130.956
20
-87.712
11
130.956
21
-90.212
0
LINE
8
BLACK
6
CONTINUOUS
10
83.956
20
-90.212
11
81.456
21
-90.212
0
LINE
8
BLACK
6
CONTINUOUS
10
81.456
20
-90.212
11
81.456
21
-87.712
0
LINE
8
BLACK
6
CONTINUOUS
10
81.456
20
-87.712
11
83.956
21
-87.712
0
LINE
8
BLACK
6
CONTINUOUS
10
83.956
20
-87.712
11
83.956
21
-90.212
0
LINE
8
BLACK
6
CONTINUOUS
10
144.602
20
-89.484
11
141.402
21
-89.484
0
LINE
8
BLACK
6
CONTINUOUS
10
141.402
20
-89.484
11
141.402
21
-86.284
0
LINE
8
BLACK
6
CONTINUOUS
10
141.402
20
-86.284
11
144.602
21
-86.284
0
LINE
8
BLACK
6
CONTINUOUS
10
144.602
20
-86.284
11
144.602
21
-89.484
0
LINE
8
BLACK
6
CONTINUOUS
10
76.846
20
-87.26
11
75.046
21
-87.26
0
LINE
8
BLACK
6
CONTINUOUS
10
75.046
20
-87.26
11
75.046
21
-85.46
0
LINE
8
BLACK
6
CONTINUOUS
10
75.046
20
-85.46
11
76.846
21
-85.46
0
LINE
8
BLACK
6
CONTINUOUS
10
76.846
20
-85.46
11
76.846
21
-87.26
0
LINE
8
BLACK
6
CONTINUOUS
10
76.2085
20
-82.9546
11
76.3723
21
-83.0224
0
LINE
8
BLACK
6
CONTINUOUS
10
76.3723
20
-83.0224
11
76.5197
21
-83.1209
0
LINE
8
BLACK
6
CONTINUOUS
10
76.5197
20
-83.1209
11
76.6451
21
-83.2463
0
LINE
8
BLACK
6
CONTINUOUS
10
76.6451
20
-83.2463
11
76.7436
21
-83.3937
0
LINE
8
BLACK
6
CONTINUOUS
10
76.7436
20
-83.3937
11
76.8114
21
-83.5575
0
LINE
8
BLACK
6
CONTINUOUS
10
76.8114
20
-83.5575
11
76.846
21
-83.7314
0
LINE
8
BLACK
6
CONTINUOUS
10
76.846
20
-83.7314
11
76.846
21
-83.9086
0
LINE
8
BLACK
6
CONTINUOUS
10
76.846
20
-83.9086
11
76.8114
21
-84.0825
0
LINE
8
BLACK
6
CONTINUOUS
10
76.8114
20
-84.0825
11
76.7436
21
-84.2463
0
LINE
8
BLACK
6
CONTINUOUS
10
76.7436
20
-84.2463
11
76.6451
21
-84.3937
0
LINE
8
BLACK
6
CONTINUOUS
10
76.6451
20
-84.3937
11
76.5197
21
-84.5191
0
LINE
8
BLACK
6
CONTINUOUS
10
76.5197
20
-84.5191
11
76.3723
21
-84.6176
0
LINE
8
BLACK
6
CONTINUOUS
10
76.3723
20
-84.6176
11
76.2085
21
-84.6854
0
LINE
8
BLACK
6
CONTINUOUS
10
76.2085
20
-84.6854
11
76.0346
21
-84.72
0
LINE
8
BLACK
6
CONTINUOUS
10
76.0346
20
-84.72
11
75.8574
21
-84.72
0
LINE
8
BLACK
6
CONTINUOUS
10
75.8574
20
-84.72
11
75.6835
21
-84.6854
0
LINE
8
BLACK
6
CONTINUOUS
10
75.6835
20
-84.6854
11
75.5197
21
-84.6176
0
LINE
8
BLACK
6
CONTINUOUS
10
75.5197
20
-84.6176
11
75.3723
21
-84.5191
0
LINE
8
BLACK
6
CONTINUOUS
10
75.3723
20
-84.5191
11
75.2469
21
-84.3937
0
LINE
8
BLACK
6
CONTINUOUS
10
75.2469
20
-84.3937
11
75.1484
21
-84.2463
0
LINE
8
BLACK
6
CONTINUOUS
10
75.1484
20
-84.2463
11
75.0806
21
-84.0825
0
LINE
8
BLACK
6
CONTINUOUS
10
75.0806
20
-84.0825
11
75.046
21
-83.9086
0
LINE
8
BLACK
6
CONTINUOUS
10
75.046
20
-83.9086
11
75.046
21
-83.7314
0
LINE
8
BLACK
6
CONTINUOUS
10
75.046
20
-83.7314
11
75.0806
21
-83.5575
0
LINE
8
BLACK
6
CONTINUOUS
10
75.0806
20
-83.5575
11
75.1484
21
-83.3937
0
LINE
8
BLACK
6
CONTINUOUS
10
75.1484
20
-83.3937
11
75.2469
21
-83.2463
0
LINE
8
BLACK
6
CONTINUOUS
10
75.2469
20
-83.2463
11
75.3723
21
-83.1209
0
LINE
8
BLACK
6
CONTINUOUS
10
75.3723
20
-83.1209
11
75.5197
21
-83.0224
0
LINE
8
BLACK
6
CONTINUOUS
10
75.5197
20
-83.0224
11
75.6835
21
-82.9546
0
LINE
8
BLACK
6
CONTINUOUS
10
75.6835
20
-82.9546
11
75.8574
21
-82.92
0
LINE
8
BLACK
6
CONTINUOUS
10
75.8574
20
-82.92
11
76.0346
21
-82.92
0
LINE
8
BLACK
6
CONTINUOUS
10
76.0346
20
-82.92
11
76.2085
21
-82.9546
0
LINE
8
BLACK
6
CONTINUOUS
10
144.602
20
-79.984
11
141.402
21
-79.984
0
LINE
8
BLACK
6
CONTINUOUS
10
141.402
20
-79.984
11
141.402
21
-76.784
0
LINE
8
BLACK
6
CONTINUOUS
10
141.402
20
-76.784
11
144.602
21
-76.784
0
LINE
8
BLACK
6
CONTINUOUS
10
144.602
20
-76.784
11
144.602
21
-79.984
0
LINE
8
BLACK
6
CONTINUOUS
10
77.1972
20
-77.0494
11
77.4234
21
-77.118
0
LINE
8
BLACK
6
CONTINUOUS
10
77.4234
20
-77.118
11
77.6319
21
-77.2294
0
LINE
8
BLACK
6
CONTINUOUS
10
77.6319
20
-77.2294
11
77.8146
21
-77.3794
0
LINE
8
BLACK
6
CONTINUOUS
10
77.8146
20
-77.3794
11
77.9646
21
-77.5621
0
LINE
8
BLACK
6
CONTINUOUS
10
77.9646
20
-77.5621
11
78.076
21
-77.7706
0
LINE
8
BLACK
6
CONTINUOUS
10
78.076
20
-77.7706
11
78.1446
21
-77.9968
0
LINE
8
BLACK
6
CONTINUOUS
10
78.1446
20
-77.9968
11
78.1678
21
-78.232
0
LINE
8
BLACK
6
CONTINUOUS
10
78.1678
20
-78.232
11
78.1446
21
-78.4672
0
LINE
8
BLACK
6
CONTINUOUS
10
78.1446
20
-78.4672
11
78.076
21
-78.6934
0
LINE
8
BLACK
6
CONTINUOUS
10
78.076
20
-78.6934
11
77.9646
21
-78.9019
0
LINE
8
BLACK
6
CONTINUOUS
10
77.9646
20
-78.9019
11
77.8146
21
-79.0846
0
LINE
8
BLACK
6
CONTINUOUS
10
77.8146
20
-79.0846
11
77.6319
21
-79.2346
0
LINE
8
BLACK
6
CONTINUOUS
10
77.6319
20
-79.2346
11
77.4234
21
-79.346
0
LINE
8
BLACK
6
CONTINUOUS
10
77.4234
20
-79.346
11
77.1972
21
-79.4146
0
LINE
8
BLACK
6
CONTINUOUS
10
77.1972
20
-79.4146
11
77.0209
21
-79.432
0
LINE
8
BLACK
6
CONTINUOUS
10
77.0209
20
-79.432
11
76.903
21
-79.432
0
LINE
8
BLACK
6
CONTINUOUS
10
76.903
20
-79.432
11
76.7268
21
-79.4146
0
LINE
8
BLACK
6
CONTINUOUS
10
76.7268
20
-79.4146
11
76.5006
21
-79.346
0
LINE
8
BLACK
6
CONTINUOUS
10
76.5006
20
-79.346
11
76.2921
21
-79.2346
0
LINE
8
BLACK
6
CONTINUOUS
10
76.2921
20
-79.2346
11
76.1094
21
-79.0846
0
LINE
8
BLACK
6
CONTINUOUS
10
76.1094
20
-79.0846
11
75.9594
21
-78.9019
0
LINE
8
BLACK
6
CONTINUOUS
10
75.9594
20
-78.9019
11
75.848
21
-78.6934
0
LINE
8
BLACK
6
CONTINUOUS
10
75.848
20
-78.6934
11
75.7794
21
-78.4672
0
LINE
8
BLACK
6
CONTINUOUS
10
75.7794
20
-78.4672
11
75.7562
21
-78.232
0
LINE
8
BLACK
6
CONTINUOUS
10
75.7562
20
-78.232
11
75.7794
21
-77.9968
0
LINE
8
BLACK
6
CONTINUOUS
10
75.7794
20
-77.9968
11
75.848
21
-77.7706
0
LINE
8
BLACK
6
CONTINUOUS
10
75.848
20
-77.7706
11
75.9594
21
-77.5621
0
LINE
8
BLACK
6
CONTINUOUS
10
75.9594
20
-77.5621
11
76.1094
21
-77.3794
0
LINE
8
BLACK
6
CONTINUOUS
10
76.1094
20
-77.3794
11
76.2921
21
-77.2294
0
LINE
8
BLACK
6
CONTINUOUS
10
76.2921
20
-77.2294
11
76.5006
21
-77.118
0
LINE
8
BLACK
6
CONTINUOUS
10
76.5006
20
-77.118
11
76.7268
21
-77.0494
0
LINE
8
BLACK
6
CONTINUOUS
10
76.7268
20
-77.0494
11
76.903
21
-77.032
0
LINE
8
BLACK
6
CONTINUOUS
10
76.903
20
-77.032
11
77.0209
21
-77.032
0
LINE
8
BLACK
6
CONTINUOUS
10
77.0209
20
-77.032
11
77.1972
21
-77.0494
0
LINE
8
BLACK
6
CONTINUOUS
10
72.274
20
-77.608
11
70.474
21
-77.608
0
LINE
8
BLACK
6
CONTINUOUS
10
70.474
20
-77.608
11
70.474
21
-75.808
0
LINE
8
BLACK
6
CONTINUOUS
10
70.474
20
-75.808
11
72.274
21
-75.808
0
LINE
8
BLACK
6
CONTINUOUS
10
72.274
20
-75.808
11
72.274
21
-77.608
0
LINE
8
BLACK
6
CONTINUOUS
10
72.274
20
-72.608
11
70.474
21
-72.608
0
LINE
8
BLACK
6
CONTINUOUS
10
70.474
20
-72.608
11
70.474
21
-70.808
0
LINE
8
BLACK
6
CONTINUOUS
10
70.474
20
-70.808
11
72.274
21
-70.808
0
LINE
8
BLACK
6
CONTINUOUS
10
72.274
20
-70.808
11
72.274
21
-72.608
0
LINE
8
BLACK
6
CONTINUOUS
10
144.602
20
-70.484
11
141.402
21
-70.484
0
LINE
8
BLACK
6
CONTINUOUS
10
141.402
20
-70.484
11
141.402
21
-67.284
0
LINE
8
BLACK
6
CONTINUOUS
10
141.402
20
-67.284
11
144.602
21
-67.284
0
LINE
8
BLACK
6
CONTINUOUS
10
144.602
20
-67.284
11
144.602
21
-70.484
0
LINE
8
BLACK
6
CONTINUOUS
10
83.956
20
-68.212
11
81.456
21
-68.212
0
LINE
8
BLACK
6
CONTINUOUS
10
81.456
20
-68.212
11
81.456
21
-65.712
0
LINE
8
BLACK
6
CONTINUOUS
10
81.456
20
-65.712
11
83.956
21
-65.712
0
LINE
8
BLACK
6
CONTINUOUS
10
83.956
20
-65.712
11
83.956
21
-68.212
0
LINE
8
BLACK
6
CONTINUOUS
10
130.956
20
-68.212
11
128.456
21
-68.212
0
LINE
8
BLACK
6
CONTINUOUS
10
128.456
20
-68.212
11
128.456
21
-65.712
0
LINE
8
BLACK
6
CONTINUOUS
10
128.456
20
-65.712
11
130.956
21
-65.712
0
LINE
8
BLACK
6
CONTINUOUS
10
130.956
20
-65.712
11
130.956
21
-68.212
0
LINE
8
BLACK
6
CONTINUOUS
10
130.956
20
-62.172
11
128.456
21
-62.172
0
LINE
8
BLACK
6
CONTINUOUS
10
128.456
20
-62.172
11
128.456
21
-59.672
0
LINE
8
BLACK
6
CONTINUOUS
10
128.456
20
-59.672
11
130.956
21
-59.672
0
LINE
8
BLACK
6
CONTINUOUS
10
130.956
20
-59.672
11
130.956
21
-62.172
0
LINE
8
BLACK
6
CONTINUOUS
10
83.956
20
-62.172
11
81.456
21
-62.172
0
LINE
8
BLACK
6
CONTINUOUS
10
81.456
20
-62.172
11
81.456
21
-59.672
0
LINE
8
BLACK
6
CONTINUOUS
10
81.456
20
-59.672
11
83.956
21
-59.672
0
LINE
8
BLACK
6
CONTINUOUS
10
83.956
20
-59.672
11
83.956
21
-62.172
0
LINE
8
BLACK
6
CONTINUOUS
10
144.602
20
-60.984
11
141.402
21
-60.984
0
LINE
8
BLACK
6
CONTINUOUS
10
141.402
20
-60.984
11
141.402
21
-57.784
0
LINE
8
BLACK
6
CONTINUOUS
10
141.402
20
-57.784
11
144.602
21
-57.784
0
LINE
8
BLACK
6
CONTINUOUS
10
144.602
20
-57.784
11
144.602
21
-60.984
0
LINE
8
BLACK
6
CONTINUOUS
10
77.312
20
-56.7581
11
77.5304
21
-56.8486
0
LINE
8
BLACK
6
CONTINUOUS
10
77.5304
20
-56.8486
11
77.727
21
-56.9799
0
LINE
8
BLACK
6
CONTINUOUS
10
77.727
20
-56.9799
11
77.8941
21
-57.147
0
LINE
8
BLACK
6
CONTINUOUS
10
77.8941
20
-57.147
11
78.0254
21
-57.3436
0
LINE
8
BLACK
6
CONTINUOUS
10
78.0254
20
-57.3436
11
78.1159
21
-57.562
0
LINE
8
BLACK
6
CONTINUOUS
10
78.1159
20
-57.562
11
78.162
21
-57.7938
0
LINE
8
BLACK
6
CONTINUOUS
10
78.162
20
-57.7938
11
78.162
21
-58.0302
0
LINE
8
BLACK
6
CONTINUOUS
10
78.162
20
-58.0302
11
78.1159
21
-58.262
0
LINE
8
BLACK
6
CONTINUOUS
10
78.1159
20
-58.262
11
78.0254
21
-58.4804
0
LINE
8
BLACK
6
CONTINUOUS
10
78.0254
20
-58.4804
11
77.8941
21
-58.677
0
LINE
8
BLACK
6
CONTINUOUS
10
77.8941
20
-58.677
11
77.727
21
-58.8441
0
LINE
8
BLACK
6
CONTINUOUS
10
77.727
20
-58.8441
11
77.5304
21
-58.9754
0
LINE
8
BLACK
6
CONTINUOUS
10
77.5304
20
-58.9754
11
77.312
21
-59.0659
0
LINE
8
BLACK
6
CONTINUOUS
10
77.312
20
-59.0659
11
77.0802
21
-59.112
0
LINE
8
BLACK
6
CONTINUOUS
10
77.0802
20
-59.112
11
76.8438
21
-59.112
0
LINE
8
BLACK
6
CONTINUOUS
10
76.8438
20
-59.112
11
76.612
21
-59.0659
0
LINE
8
BLACK
6
CONTINUOUS
10
76.612
20
-59.0659
11
76.3936
21
-58.9754
0
LINE
8
BLACK
6
CONTINUOUS
10
76.3936
20
-58.9754
11
76.197
21
-58.8441
0
LINE
8
BLACK
6
CONTINUOUS
10
76.197
20
-58.8441
11
76.0299
21
-58.677
0
LINE
8
BLACK
6
CONTINUOUS
10
76.0299
20
-58.677
11
75.8986
21
-58.4804
0
LINE
8
BLACK
6
CONTINUOUS
10
75.8986
20
-58.4804
11
75.8081
21
-58.262
0
LINE
8
BLACK
6
CONTINUOUS
10
75.8081
20
-58.262
11
75.762
21
-58.0302
0
LINE
8
BLACK
6
CONTINUOUS
10
75.762
20
-58.0302
11
75.762
21
-57.7938
0
LINE
8
BLACK
6
CONTINUOUS
10
75.762
20
-57.7938
11
75.8081
21
-57.562
0
LINE
8
BLACK
6
CONTINUOUS
10
75.8081
20
-57.562
11
75.8986
21
-57.3436
0
LINE
8
BLACK
6
CONTINUOUS
10
75.8986
20
-57.3436
11
76.0299
21
-57.147
0
LINE
8
BLACK
6
CONTINUOUS
10
76.0299
20
-57.147
11
76.197
21
-56.9799
0
LINE
8
BLACK
6
CONTINUOUS
10
76.197
20
-56.9799
11
76.3936
21
-56.8486
0
LINE
8
BLACK
6
CONTINUOUS
10
76.3936
20
-56.8486
11
76.612
21
-56.7581
0
LINE
8
BLACK
6
CONTINUOUS
10
76.612
20
-56.7581
11
76.8438
21
-56.712
0
LINE
8
BLACK
6
CONTINUOUS
10
76.8438
20
-56.712
11
77.0802
21
-56.712
0
LINE
8
BLACK
6
CONTINUOUS
10
77.0802
20
-56.712
11
77.312
21
-56.7581
0
LINE
8
BLACK
6
CONTINUOUS
10
72.274
20
-57.608
11
70.474
21
-57.608
0
LINE
8
BLACK
6
CONTINUOUS
10
70.474
20
-57.608
11
70.474
21
-55.808
0
LINE
8
BLACK
6
CONTINUOUS
10
70.474
20
-55.808
11
72.274
21
-55.808
0
LINE
8
BLACK
6
CONTINUOUS
10
72.274
20
-55.808
11
72.274
21
-57.608
0
LINE
8
BLACK
6
CONTINUOUS
10
77.1662
20
-52.1269
11
77.2936
21
-52.1797
0
LINE
8
BLACK
6
CONTINUOUS
10
77.2936
20
-52.1797
11
77.4082
21
-52.2563
0
LINE
8
BLACK
6
CONTINUOUS
10
77.4082
20
-52.2563
11
77.5057
21
-52.3538
0
LINE
8
BLACK
6
CONTINUOUS
10
77.5057
20
-52.3538
11
77.5823
21
-52.4684
0
LINE
8
BLACK
6
CONTINUOUS
10
77.5823
20
-52.4684
11
77.6351
21
-52.5958
0
LINE
8
BLACK
6
CONTINUOUS
10
77.6351
20
-52.5958
11
77.662
21
-52.7311
0
LINE
8
BLACK
6
CONTINUOUS
10
77.662
20
-52.7311
11
77.662
21
-52.8689
0
LINE
8
BLACK
6
CONTINUOUS
10
77.662
20
-52.8689
11
77.6351
21
-53.0042
0
LINE
8
BLACK
6
CONTINUOUS
10
77.6351
20
-53.0042
11
77.5823
21
-53.1316
0
LINE
8
BLACK
6
CONTINUOUS
10
77.5823
20
-53.1316
11
77.5057
21
-53.2462
0
LINE
8
BLACK
6
CONTINUOUS
10
77.5057
20
-53.2462
11
77.4082
21
-53.3437
0
LINE
8
BLACK
6
CONTINUOUS
10
77.4082
20
-53.3437
11
77.2936
21
-53.4203
0
LINE
8
BLACK
6
CONTINUOUS
10
77.2936
20
-53.4203
11
77.1662
21
-53.4731
0
LINE
8
BLACK
6
CONTINUOUS
10
77.1662
20
-53.4731
11
77.0309
21
-53.5
0
LINE
8
BLACK
6
CONTINUOUS
10
77.0309
20
-53.5
11
76.8931
21
-53.5
0
LINE
8
BLACK
6
CONTINUOUS
10
76.8931
20
-53.5
11
76.7578
21
-53.4731
0
LINE
8
BLACK
6
CONTINUOUS
10
76.7578
20
-53.4731
11
76.6304
21
-53.4203
0
LINE
8
BLACK
6
CONTINUOUS
10
76.6304
20
-53.4203
11
76.5158
21
-53.3437
0
LINE
8
BLACK
6
CONTINUOUS
10
76.5158
20
-53.3437
11
76.4183
21
-53.2462
0
LINE
8
BLACK
6
CONTINUOUS
10
76.4183
20
-53.2462
11
76.3417
21
-53.1316
0
LINE
8
BLACK
6
CONTINUOUS
10
76.3417
20
-53.1316
11
76.2889
21
-53.0042
0
LINE
8
BLACK
6
CONTINUOUS
10
76.2889
20
-53.0042
11
76.262
21
-52.8689
0
LINE
8
BLACK
6
CONTINUOUS
10
76.262
20
-52.8689
11
76.262
21
-52.7311
0
LINE
8
BLACK
6
CONTINUOUS
10
76.262
20
-52.7311
11
76.2889
21
-52.5958
0
LINE
8
BLACK
6
CONTINUOUS
10
76.2889
20
-52.5958
11
76.3417
21
-52.4684
0
LINE
8
BLACK
6
CONTINUOUS
10
76.3417
20
-52.4684
11
76.4183
21
-52.3538
0
LINE
8
BLACK
6
CONTINUOUS
10
76.4183
20
-52.3538
11
76.5158
21
-52.2563
0
LINE
8
BLACK
6
CONTINUOUS
10
76.5158
20
-52.2563
11
76.6304
21
-52.1797
0
LINE
8
BLACK
6
CONTINUOUS
10
76.6304
20
-52.1797
11
76.7578
21
-52.1269
0
LINE
8
BLACK
6
CONTINUOUS
10
76.7578
20
-52.1269
11
76.8931
21
-52.1
0
LINE
8
BLACK
6
CONTINUOUS
10
76.8931
20
-52.1
11
77.0309
21
-52.1
0
LINE
8
BLACK
6
CONTINUOUS
10
77.0309
20
-52.1
11
77.1662
21
-52.1269
0
LINE
8
BLACK
6
CONTINUOUS
10
72.274
20
-52.608
11
70.474
21
-52.608
0
LINE
8
BLACK
6
CONTINUOUS
10
70.474
20
-52.608
11
70.474
21
-50.808
0
LINE
8
BLACK
6
CONTINUOUS
10
70.474
20
-50.808
11
72.274
21
-50.808
0
LINE
8
BLACK
6
CONTINUOUS
10
72.274
20
-50.808
11
72.274
21
-52.608
0
LINE
8
BLACK
6
CONTINUOUS
10
77.1662
20
-50.1269
11
77.2936
21
-50.1797
0
LINE
8
BLACK
6
CONTINUOUS
10
77.2936
20
-50.1797
11
77.4082
21
-50.2563
0
LINE
8
BLACK
6
CONTINUOUS
10
77.4082
20
-50.2563
11
77.5057
21
-50.3538
0
LINE
8
BLACK
6
CONTINUOUS
10
77.5057
20
-50.3538
11
77.5823
21
-50.4684
0
LINE
8
BLACK
6
CONTINUOUS
10
77.5823
20
-50.4684
11
77.6351
21
-50.5958
0
LINE
8
BLACK
6
CONTINUOUS
10
77.6351
20
-50.5958
11
77.662
21
-50.7311
0
LINE
8
BLACK
6
CONTINUOUS
10
77.662
20
-50.7311
11
77.662
21
-50.8689
0
LINE
8
BLACK
6
CONTINUOUS
10
77.662
20
-50.8689
11
77.6351
21
-51.0042
0
LINE
8
BLACK
6
CONTINUOUS
10
77.6351
20
-51.0042
11
77.5823
21
-51.1316
0
LINE
8
BLACK
6
CONTINUOUS
10
77.5823
20
-51.1316
11
77.5057
21
-51.2462
0
LINE
8
BLACK
6
CONTINUOUS
10
77.5057
20
-51.2462
11
77.4082
21
-51.3437
0
LINE
8
BLACK
6
CONTINUOUS
10
77.4082
20
-51.3437
11
77.2936
21
-51.4203
0
LINE
8
BLACK
6
CONTINUOUS
10
77.2936
20
-51.4203
11
77.1662
21
-51.4731
0
LINE
8
BLACK
6
CONTINUOUS
10
77.1662
20
-51.4731
11
77.0309
21
-51.5
0
LINE
8
BLACK
6
CONTINUOUS
10
77.0309
20
-51.5
11
76.8931
21
-51.5
0
LINE
8
BLACK
6
CONTINUOUS
10
76.8931
20
-51.5
11
76.7578
21
-51.4731
0
LINE
8
BLACK
6
CONTINUOUS
10
76.7578
20
-51.4731
11
76.6304
21
-51.4203
0
LINE
8
BLACK
6
CONTINUOUS
10
76.6304
20
-51.4203
11
76.5158
21
-51.3437
0
LINE
8
BLACK
6
CONTINUOUS
10
76.5158
20
-51.3437
11
76.4183
21
-51.2462
0
LINE
8
BLACK
6
CONTINUOUS
10
76.4183
20
-51.2462
11
76.3417
21
-51.1316
0
LINE
8
BLACK
6
CONTINUOUS
10
76.3417
20
-51.1316
11
76.2889
21
-51.0042
0
LINE
8
BLACK
6
CONTINUOUS
10
76.2889
20
-51.0042
11
76.262
21
-50.8689
0
LINE
8
BLACK
6
CONTINUOUS
10
76.262
20
-50.8689
11
76.262
21
-50.7311
0
LINE
8
BLACK
6
CONTINUOUS
10
76.262
20
-50.7311
11
76.2889
21
-50.5958
0
LINE
8
BLACK
6
CONTINUOUS
10
76.2889
20
-50.5958
11
76.3417
21
-50.4684
0
LINE
8
BLACK
6
CONTINUOUS
10
76.3417
20
-50.4684
11
76.4183
21
-50.3538
0
LINE
8
BLACK
6
CONTINUOUS
10
76.4183
20
-50.3538
11
76.5158
21
-50.2563
0
LINE
8
BLACK
6
CONTINUOUS
10
76.5158
20
-50.2563
11
76.6304
21
-50.1797
0
LINE
8
BLACK
6
CONTINUOUS
10
76.6304
20
-50.1797
11
76.7578
21
-50.1269
0
LINE
8
BLACK
6
CONTINUOUS
10
76.7578
20
-50.1269
11
76.8931
21
-50.1
0
LINE
8
BLACK
6
CONTINUOUS
10
76.8931
20
-50.1
11
77.0309
21
-50.1
0
LINE
8
BLACK
6
CONTINUOUS
10
77.0309
20
-50.1
11
77.1662
21
-50.1269
0
LINE
8
BLACK
6
CONTINUOUS
10
144.602
20
-51.484
11
141.402
21
-51.484
0
LINE
8
BLACK
6
CONTINUOUS
10
141.402
20
-51.484
11
141.402
21
-48.284
0
LINE
8
BLACK
6
CONTINUOUS
10
141.402
20
-48.284
11
144.602
21
-48.284
0
LINE
8
BLACK
6
CONTINUOUS
10
144.602
20
-48.284
11
144.602
21
-51.484
0
LINE
8
BLACK
6
CONTINUOUS
10
77.1455
20
-41.7376
11
77.4185
21
-41.8507
0
LINE
8
BLACK
6
CONTINUOUS
10
77.4185
20
-41.8507
11
77.6642
21
-42.0149
0
LINE
8
BLACK
6
CONTINUOUS
10
77.6642
20
-42.0149
11
77.8731
21
-42.2238
0
LINE
8
BLACK
6
CONTINUOUS
10
77.8731
20
-42.2238
11
78.0373
21
-42.4695
0
LINE
8
BLACK
6
CONTINUOUS
10
78.0373
20
-42.4695
11
78.1504
21
-42.7425
0
LINE
8
BLACK
6
CONTINUOUS
10
78.1504
20
-42.7425
11
78.208
21
-43.0323
0
LINE
8
BLACK
6
CONTINUOUS
10
78.208
20
-43.0323
11
78.208
21
-43.3277
0
LINE
8
BLACK
6
CONTINUOUS
10
78.208
20
-43.3277
11
78.1504
21
-43.6175
0
LINE
8
BLACK
6
CONTINUOUS
10
78.1504
20
-43.6175
11
78.0373
21
-43.8905
0
LINE
8
BLACK
6
CONTINUOUS
10
78.0373
20
-43.8905
11
77.8731
21
-44.1362
0
LINE
8
BLACK
6
CONTINUOUS
10
77.8731
20
-44.1362
11
77.6642
21
-44.3451
0
LINE
8
BLACK
6
CONTINUOUS
10
77.6642
20
-44.3451
11
77.4185
21
-44.5093
0
LINE
8
BLACK
6
CONTINUOUS
10
77.4185
20
-44.5093
11
77.1455
21
-44.6224
0
LINE
8
BLACK
6
CONTINUOUS
10
77.1455
20
-44.6224
11
76.8557
21
-44.68
0
LINE
8
BLACK
6
CONTINUOUS
10
76.8557
20
-44.68
11
76.5603
21
-44.68
0
LINE
8
BLACK
6
CONTINUOUS
10
76.5603
20
-44.68
11
76.2705
21
-44.6224
0
LINE
8
BLACK
6
CONTINUOUS
10
76.2705
20
-44.6224
11
75.9975
21
-44.5093
0
LINE
8
BLACK
6
CONTINUOUS
10
75.9975
20
-44.5093
11
75.7518
21
-44.3451
0
LINE
8
BLACK
6
CONTINUOUS
10
75.7518
20
-44.3451
11
75.5429
21
-44.1362
0
LINE
8
BLACK
6
CONTINUOUS
10
75.5429
20
-44.1362
11
75.3787
21
-43.8905
0
LINE
8
BLACK
6
CONTINUOUS
10
75.3787
20
-43.8905
11
75.2656
21
-43.6175
0
LINE
8
BLACK
6
CONTINUOUS
10
75.2656
20
-43.6175
11
75.208
21
-43.3277
0
LINE
8
BLACK
6
CONTINUOUS
10
75.208
20
-43.3277
11
75.208
21
-43.0323
0
LINE
8
BLACK
6
CONTINUOUS
10
75.208
20
-43.0323
11
75.2656
21
-42.7425
0
LINE
8
BLACK
6
CONTINUOUS
10
75.2656
20
-42.7425
11
75.3787
21
-42.4695
0
LINE
8
BLACK
6
CONTINUOUS
10
75.3787
20
-42.4695
11
75.5429
21
-42.2238
0
LINE
8
BLACK
6
CONTINUOUS
10
75.5429
20
-42.2238
11
75.7518
21
-42.0149
0
LINE
8
BLACK
6
CONTINUOUS
10
75.7518
20
-42.0149
11
75.9975
21
-41.8507
0
LINE
8
BLACK
6
CONTINUOUS
10
75.9975
20
-41.8507
11
76.2705
21
-41.7376
0
LINE
8
BLACK
6
CONTINUOUS
10
76.2705
20
-41.7376
11
76.5603
21
-41.68
0
LINE
8
BLACK
6
CONTINUOUS
10
76.5603
20
-41.68
11
76.8557
21
-41.68
0
LINE
8
BLACK
6
CONTINUOUS
10
76.8557
20
-41.68
11
77.1455
21
-41.7376
0
LINE
8
BLACK
6
CONTINUOUS
10
73.128
20
-44.68
11
70.128
21
-44.68
0
LINE
8
BLACK
6
CONTINUOUS
10
70.128
20
-44.68
11
70.128
21
-41.68
0
LINE
8
BLACK
6
CONTINUOUS
10
70.128
20
-41.68
11
73.128
21
-41.68
0
LINE
8
BLACK
6
CONTINUOUS
10
73.128
20
-41.68
11
73.128
21
-44.68
0
LINE
8
BLACK
6
CONTINUOUS
10
144.602
20
-42.084
11
141.402
21
-42.084
0
LINE
8
BLACK
6
CONTINUOUS
10
141.402
20
-42.084
11
141.402
21
-38.884
0
LINE
8
BLACK
6
CONTINUOUS
10
141.402
20
-38.884
11
144.602
21
-38.884
0
LINE
8
BLACK
6
CONTINUOUS
10
144.602
20
-38.884
11
144.602
21
-42.084
0
LINE
8
BLACK
6
CONTINUOUS
10
130.956
20
-40.172
11
128.456
21
-40.172
0
LINE
8
BLACK
6
CONTINUOUS
10
128.456
20
-40.172
11
128.456
21
-37.672
0
LINE
8
BLACK
6
CONTINUOUS
10
128.456
20
-37.672
11
130.956
21
-37.672
0
LINE
8
BLACK
6
CONTINUOUS
10
130.956
20
-37.672
11
130.956
21
-40.172
0
LINE
8
BLACK
6
CONTINUOUS
10
83.956
20
-40.172
11
81.456
21
-40.172
0
LINE
8
BLACK
6
CONTINUOUS
10
81.456
20
-40.172
11
81.456
21
-37.672
0
LINE
8
BLACK
6
CONTINUOUS
10
81.456
20
-37.672
11
83.956
21
-37.672
0
LINE
8
BLACK
6
CONTINUOUS
10
83.956
20
-37.672
11
83.956
21
-40.172
  0
ENDSEC
  0
EOF
