  0
SECTION
  2
HEADER
  9
$ANGBASE
  50
0.0
  9
$ANGDIR
  70
  1
  9
$MEASUREMENT
  70
0
  0
ENDSEC
  0
SECTION
  2
TABLES
  0
TABLE
  2
LTYPE
  70
4
  0
LTYPE
  5
40F
  2
CONTINUOUS
  70
0
  3
Solid line
  72
65
  73
0
  40
0.0
  0
LTYPE
  5
410
  2
DASHDOT
 70
0
  3
Dash Dot ____ _ ____ _
 72
65
 73
4
 40
2.0
 49
1.25
 49
-0.25
 49
0.25
 49
-0.25
  0
LTYPE
  5
411
  2
DASHED
 70
0
  3
Dashed __ __ __ __ __
 72
65
 73
2
 40
0.75
 49
0.5
 49
-0.25
  0
LTYPE
  5
43B
  2
DOTTED
 70
0
  3
Dotted .  .  .  .
 72
65
 73
2
 40
0.2
 49
0.0
 49
-0.2
  0
ENDTAB
  0
TABLE
  2
STYLE
  70
4
  0
STYLE
  2
KICAD
  70
0
  40
0
  41
1
  42
1
  50
0
  71
0
  3
isocp.shx
  0
STYLE
  2
KICADB
  70
0
  40
0
  41
1
  42
1
  50
0
  71
0
  3
isocp.shx
  0
STYLE
  2
KICADI
  70
0
  40
0
  41
1
  42
1
  50
15
  71
0
  3
isocp.shx
  0
STYLE
  2
KICADBI
  70
0
  40
0
  41
1
  42
1
  50
15
  71
0
  3
isocp.shx
  0
ENDTAB
  0
TABLE
  2
LAYER
  70
30
  0
LAYER
  2
BLACK
  70
0
  62
7
  6
CONTINUOUS
  0
LAYER
  2
GRAY1
  70
0
  62
251
  6
CONTINUOUS
  0
LAYER
  2
GRAY2
  70
0
  62
8
  6
CONTINUOUS
  0
LAYER
  2
GRAY3
  70
0
  62
9
  6
CONTINUOUS
  0
LAYER
  2
WHITE
  70
0
  62
7
  6
CONTINUOUS
  0
LAYER
  2
LYELLOW
  70
0
  62
51
  6
CONTINUOUS
  0
LAYER
  2
BLUE1
  70
0
  62
178
  6
CONTINUOUS
  0
LAYER
  2
GREEN1
  70
0
  62
98
  6
CONTINUOUS
  0
LAYER
  2
CYAN1
  70
0
  62
138
  6
CONTINUOUS
  0
LAYER
  2
RED1
  70
0
  62
18
  6
CONTINUOUS
  0
LAYER
  2
MAGENTA1
  70
0
  62
228
  6
CONTINUOUS
  0
LAYER
  2
BROWN1
  70
0
  62
58
  6
CONTINUOUS
  0
LAYER
  2
BLUE2
  70
0
  62
5
  6
CONTINUOUS
  0
LAYER
  2
GREEN2
  70
0
  62
3
  6
CONTINUOUS
  0
LAYER
  2
CYAN2
  70
0
  62
4
  6
CONTINUOUS
  0
LAYER
  2
RED2
  70
0
  62
1
  6
CONTINUOUS
  0
LAYER
  2
MAGENTA2
  70
0
  62
6
  6
CONTINUOUS
  0
LAYER
  2
BROWN2
  70
0
  62
54
  6
CONTINUOUS
  0
LAYER
  2
BLUE3
  70
0
  62
171
  6
CONTINUOUS
  0
LAYER
  2
GREEN3
  70
0
  62
91
  6
CONTINUOUS
  0
LAYER
  2
CYAN3
  70
0
  62
131
  6
CONTINUOUS
  0
LAYER
  2
RED3
  70
0
  62
11
  6
CONTINUOUS
  0
LAYER
  2
MAGENTA3
  70
0
  62
221
  6
CONTINUOUS
  0
LAYER
  2
YELLOW3
  70
0
  62
2
  6
CONTINUOUS
  0
LAYER
  2
BLUE4
  70
0
  62
5
  6
CONTINUOUS
  0
LAYER
  2
GREEN4
  70
0
  62
3
  6
CONTINUOUS
  0
LAYER
  2
CYAN4
  70
0
  62
4
  6
CONTINUOUS
  0
LAYER
  2
RED4
  70
0
  62
1
  6
CONTINUOUS
  0
LAYER
  2
MAGENTA4
  70
0
  62
6
  6
CONTINUOUS
  0
LAYER
  2
YELLOW4
  70
0
  62
2
  6
CONTINUOUS
  0
ENDTAB
  0
ENDSEC
  0
SECTION
  2
ENTITIES
0
LINE
8
BLACK
6
CONTINUOUS
10
156.489
20
-93.98
11
156.489
21
-93.9812
0
LINE
8
BLACK
6
CONTINUOUS
10
156.489
20
-93.9812
11
156.489
21
-93.9849
0
LINE
8
BLACK
6
CONTINUOUS
10
156.489
20
-93.9849
11
156.487
21
-93.9896
0
LINE
8
BLACK
6
CONTINUOUS
10
156.487
20
-93.9896
11
156.485
21
-93.994
0
LINE
8
BLACK
6
CONTINUOUS
10
156.485
20
-93.994
11
156.482
21
-93.9978
0
LINE
8
BLACK
6
CONTINUOUS
10
156.482
20
-93.9978
11
156.478
21
-94.0009
0
LINE
8
BLACK
6
CONTINUOUS
10
156.478
20
-94.0009
11
156.474
21
-94.0032
0
LINE
8
BLACK
6
CONTINUOUS
10
156.474
20
-94.0032
11
156.469
21
-94.0046
0
LINE
8
BLACK
6
CONTINUOUS
10
156.469
20
-94.0046
11
156.464
21
-94.0051
0
LINE
8
BLACK
6
CONTINUOUS
10
156.464
20
-94.0051
11
156.463
21
-94.005
0
LINE
8
BLACK
6
CONTINUOUS
10
156.463
20
-94.005
11
66.8032
21
-94.005
0
LINE
8
BLACK
6
CONTINUOUS
10
66.8032
20
-94.005
11
66.802
21
-94.0051
0
LINE
8
BLACK
6
CONTINUOUS
10
66.802
20
-94.0051
11
66.8008
21
-94.005
0
LINE
8
BLACK
6
CONTINUOUS
10
66.8008
20
-94.005
11
66.8008
21
-94.005
0
LINE
8
BLACK
6
CONTINUOUS
10
66.8008
20
-94.005
11
66.7971
21
-94.0046
0
LINE
8
BLACK
6
CONTINUOUS
10
66.7971
20
-94.0046
11
66.7924
21
-94.0032
0
LINE
8
BLACK
6
CONTINUOUS
10
66.7924
20
-94.0032
11
66.788
21
-94.0009
0
LINE
8
BLACK
6
CONTINUOUS
10
66.788
20
-94.0009
11
66.7842
21
-93.9978
0
LINE
8
BLACK
6
CONTINUOUS
10
66.7842
20
-93.9978
11
66.7811
21
-93.994
0
LINE
8
BLACK
6
CONTINUOUS
10
66.7811
20
-93.994
11
66.7788
21
-93.9896
0
LINE
8
BLACK
6
CONTINUOUS
10
66.7788
20
-93.9896
11
66.7774
21
-93.9849
0
LINE
8
BLACK
6
CONTINUOUS
10
66.7774
20
-93.9849
11
66.7769
21
-93.98
0
LINE
8
BLACK
6
CONTINUOUS
10
66.7769
20
-93.98
11
66.777
21
-93.9788
0
LINE
8
BLACK
6
CONTINUOUS
10
66.777
20
-93.9788
11
66.777
21
-35.3048
0
LINE
8
BLACK
6
CONTINUOUS
10
66.777
20
-35.3048
11
66.777
21
-35.3048
0
LINE
8
BLACK
6
CONTINUOUS
10
66.777
20
-35.3048
11
66.777
21
-34.2912
0
LINE
8
BLACK
6
CONTINUOUS
10
66.777
20
-34.2912
11
66.7769
21
-34.29
0
LINE
8
BLACK
6
CONTINUOUS
10
66.7769
20
-34.29
11
66.7774
21
-34.2851
0
LINE
8
BLACK
6
CONTINUOUS
10
66.7774
20
-34.2851
11
66.7788
21
-34.2804
0
LINE
8
BLACK
6
CONTINUOUS
10
66.7788
20
-34.2804
11
66.7811
21
-34.276
0
LINE
8
BLACK
6
CONTINUOUS
10
66.7811
20
-34.276
11
66.7842
21
-34.2722
0
LINE
8
BLACK
6
CONTINUOUS
10
66.7842
20
-34.2722
11
66.788
21
-34.2691
0
LINE
8
BLACK
6
CONTINUOUS
10
66.788
20
-34.2691
11
66.7924
21
-34.2668
0
LINE
8
BLACK
6
CONTINUOUS
10
66.7924
20
-34.2668
11
66.7971
21
-34.2654
0
LINE
8
BLACK
6
CONTINUOUS
10
66.7971
20
-34.2654
11
66.8008
21
-34.265
0
LINE
8
BLACK
6
CONTINUOUS
10
66.8008
20
-34.265
11
66.802
21
-34.2649
0
LINE
8
BLACK
6
CONTINUOUS
10
66.802
20
-34.2649
11
66.8032
21
-34.265
0
LINE
8
BLACK
6
CONTINUOUS
10
66.8032
20
-34.265
11
156.463
21
-34.265
0
LINE
8
BLACK
6
CONTINUOUS
10
156.463
20
-34.265
11
156.464
21
-34.2649
0
LINE
8
BLACK
6
CONTINUOUS
10
156.464
20
-34.2649
11
156.465
21
-34.265
0
LINE
8
BLACK
6
CONTINUOUS
10
156.465
20
-34.265
11
156.465
21
-34.265
0
LINE
8
BLACK
6
CONTINUOUS
10
156.465
20
-34.265
11
156.469
21
-34.2654
0
LINE
8
BLACK
6
CONTINUOUS
10
156.469
20
-34.2654
11
156.474
21
-34.2668
0
LINE
8
BLACK
6
CONTINUOUS
10
156.474
20
-34.2668
11
156.478
21
-34.2691
0
LINE
8
BLACK
6
CONTINUOUS
10
156.478
20
-34.2691
11
156.482
21
-34.2722
0
LINE
8
BLACK
6
CONTINUOUS
10
156.482
20
-34.2722
11
156.485
21
-34.276
0
LINE
8
BLACK
6
CONTINUOUS
10
156.485
20
-34.276
11
156.487
21
-34.2804
0
LINE
8
BLACK
6
CONTINUOUS
10
156.487
20
-34.2804
11
156.489
21
-34.2851
0
LINE
8
BLACK
6
CONTINUOUS
10
156.489
20
-34.2851
11
156.489
21
-34.29
0
LINE
8
BLACK
6
CONTINUOUS
10
156.489
20
-34.29
11
156.489
21
-34.2912
0
LINE
8
BLACK
6
CONTINUOUS
10
156.489
20
-34.2912
11
156.489
21
-93.9788
0
LINE
8
BLACK
6
CONTINUOUS
10
156.489
20
-93.9788
11
156.489
21
-93.98
0
LINE
8
BLACK
6
CONTINUOUS
10
66.827
20
-93.955
11
156.439
21
-93.955
0
LINE
8
BLACK
6
CONTINUOUS
10
156.439
20
-93.955
11
156.439
21
-93.7248
0
LINE
8
BLACK
6
CONTINUOUS
10
156.439
20
-93.7248
11
156.439
21
-93.7248
0
LINE
8
BLACK
6
CONTINUOUS
10
156.439
20
-93.7248
11
156.439
21
-34.315
0
LINE
8
BLACK
6
CONTINUOUS
10
156.439
20
-34.315
11
66.827
21
-34.315
0
LINE
8
BLACK
6
CONTINUOUS
10
66.827
20
-34.315
11
66.827
21
-93.955
  0
ENDSEC
  0
EOF
