  0
SECTION
  2
HEADER
  9
$ANGBASE
  50
0.0
  9
$ANGDIR
  70
  1
  9
$MEASUREMENT
  70
0
  0
ENDSEC
  0
SECTION
  2
TABLES
  0
TABLE
  2
LTYPE
  70
4
  0
LTYPE
  5
40F
  2
CONTINUOUS
  70
0
  3
Solid line
  72
65
  73
0
  40
0.0
  0
LTYPE
  5
410
  2
DASHDOT
 70
0
  3
Dash Dot ____ _ ____ _
 72
65
 73
4
 40
2.0
 49
1.25
 49
-0.25
 49
0.25
 49
-0.25
  0
LTYPE
  5
411
  2
DASHED
 70
0
  3
Dashed __ __ __ __ __
 72
65
 73
2
 40
0.75
 49
0.5
 49
-0.25
  0
LTYPE
  5
43B
  2
DOTTED
 70
0
  3
Dotted .  .  .  .
 72
65
 73
2
 40
0.2
 49
0.0
 49
-0.2
  0
ENDTAB
  0
TABLE
  2
STYLE
  70
4
  0
STYLE
  2
KICAD
  70
0
  40
0
  41
1
  42
1
  50
0
  71
0
  3
isocp.shx
  0
STYLE
  2
KICADB
  70
0
  40
0
  41
1
  42
1
  50
0
  71
0
  3
isocp.shx
  0
STYLE
  2
KICADI
  70
0
  40
0
  41
1
  42
1
  50
15
  71
0
  3
isocp.shx
  0
STYLE
  2
KICADBI
  70
0
  40
0
  41
1
  42
1
  50
15
  71
0
  3
isocp.shx
  0
ENDTAB
  0
TABLE
  2
LAYER
  70
30
  0
LAYER
  2
BLACK
  70
0
  62
7
  6
CONTINUOUS
  0
LAYER
  2
GRAY1
  70
0
  62
251
  6
CONTINUOUS
  0
LAYER
  2
GRAY2
  70
0
  62
8
  6
CONTINUOUS
  0
LAYER
  2
GRAY3
  70
0
  62
9
  6
CONTINUOUS
  0
LAYER
  2
WHITE
  70
0
  62
7
  6
CONTINUOUS
  0
LAYER
  2
LYELLOW
  70
0
  62
51
  6
CONTINUOUS
  0
LAYER
  2
BLUE1
  70
0
  62
178
  6
CONTINUOUS
  0
LAYER
  2
GREEN1
  70
0
  62
98
  6
CONTINUOUS
  0
LAYER
  2
CYAN1
  70
0
  62
138
  6
CONTINUOUS
  0
LAYER
  2
RED1
  70
0
  62
18
  6
CONTINUOUS
  0
LAYER
  2
MAGENTA1
  70
0
  62
228
  6
CONTINUOUS
  0
LAYER
  2
BROWN1
  70
0
  62
58
  6
CONTINUOUS
  0
LAYER
  2
BLUE2
  70
0
  62
5
  6
CONTINUOUS
  0
LAYER
  2
GREEN2
  70
0
  62
3
  6
CONTINUOUS
  0
LAYER
  2
CYAN2
  70
0
  62
4
  6
CONTINUOUS
  0
LAYER
  2
RED2
  70
0
  62
1
  6
CONTINUOUS
  0
LAYER
  2
MAGENTA2
  70
0
  62
6
  6
CONTINUOUS
  0
LAYER
  2
BROWN2
  70
0
  62
54
  6
CONTINUOUS
  0
LAYER
  2
BLUE3
  70
0
  62
171
  6
CONTINUOUS
  0
LAYER
  2
GREEN3
  70
0
  62
91
  6
CONTINUOUS
  0
LAYER
  2
CYAN3
  70
0
  62
131
  6
CONTINUOUS
  0
LAYER
  2
RED3
  70
0
  62
11
  6
CONTINUOUS
  0
LAYER
  2
MAGENTA3
  70
0
  62
221
  6
CONTINUOUS
  0
LAYER
  2
YELLOW3
  70
0
  62
2
  6
CONTINUOUS
  0
LAYER
  2
BLUE4
  70
0
  62
5
  6
CONTINUOUS
  0
LAYER
  2
GREEN4
  70
0
  62
3
  6
CONTINUOUS
  0
LAYER
  2
CYAN4
  70
0
  62
4
  6
CONTINUOUS
  0
LAYER
  2
RED4
  70
0
  62
1
  6
CONTINUOUS
  0
LAYER
  2
MAGENTA4
  70
0
  62
6
  6
CONTINUOUS
  0
LAYER
  2
YELLOW4
  70
0
  62
2
  6
CONTINUOUS
  0
ENDTAB
  0
ENDSEC
  0
SECTION
  2
ENTITIES
0
LINE
8
BLACK
6
CONTINUOUS
10
131.007
20
-90.263
11
128.405
21
-90.263
0
LINE
8
BLACK
6
CONTINUOUS
10
128.405
20
-90.263
11
128.405
21
-87.661
0
LINE
8
BLACK
6
CONTINUOUS
10
128.405
20
-87.661
11
131.007
21
-87.661
0
LINE
8
BLACK
6
CONTINUOUS
10
131.007
20
-87.661
11
131.007
21
-90.263
0
LINE
8
BLACK
6
CONTINUOUS
10
84.007
20
-90.263
11
81.405
21
-90.263
0
LINE
8
BLACK
6
CONTINUOUS
10
81.405
20
-90.263
11
81.405
21
-87.661
0
LINE
8
BLACK
6
CONTINUOUS
10
81.405
20
-87.661
11
84.007
21
-87.661
0
LINE
8
BLACK
6
CONTINUOUS
10
84.007
20
-87.661
11
84.007
21
-90.263
0
LINE
8
BLACK
6
CONTINUOUS
10
144.653
20
-89.535
11
141.351
21
-89.535
0
LINE
8
BLACK
6
CONTINUOUS
10
141.351
20
-89.535
11
141.351
21
-86.233
0
LINE
8
BLACK
6
CONTINUOUS
10
141.351
20
-86.233
11
144.653
21
-86.233
0
LINE
8
BLACK
6
CONTINUOUS
10
144.653
20
-86.233
11
144.653
21
-89.535
0
LINE
8
BLACK
6
CONTINUOUS
10
76.897
20
-87.311
11
74.995
21
-87.311
0
LINE
8
BLACK
6
CONTINUOUS
10
74.995
20
-87.311
11
74.995
21
-85.409
0
LINE
8
BLACK
6
CONTINUOUS
10
74.995
20
-85.409
11
76.897
21
-85.409
0
LINE
8
BLACK
6
CONTINUOUS
10
76.897
20
-85.409
11
76.897
21
-87.311
0
LINE
8
BLACK
6
CONTINUOUS
10
76.2234
20
-82.9055
11
76.3965
21
-82.9772
0
LINE
8
BLACK
6
CONTINUOUS
10
76.3965
20
-82.9772
11
76.3965
21
-82.9772
0
LINE
8
BLACK
6
CONTINUOUS
10
76.3965
20
-82.9772
11
76.5522
21
-83.0813
0
LINE
8
BLACK
6
CONTINUOUS
10
76.5522
20
-83.0813
11
76.6847
21
-83.2138
0
LINE
8
BLACK
6
CONTINUOUS
10
76.6847
20
-83.2138
11
76.6847
21
-83.2138
0
LINE
8
BLACK
6
CONTINUOUS
10
76.6847
20
-83.2138
11
76.7888
21
-83.3695
0
LINE
8
BLACK
6
CONTINUOUS
10
76.7888
20
-83.3695
11
76.8605
21
-83.5426
0
LINE
8
BLACK
6
CONTINUOUS
10
76.8605
20
-83.5426
11
76.897
21
-83.7263
0
LINE
8
BLACK
6
CONTINUOUS
10
76.897
20
-83.7263
11
76.897
21
-83.9137
0
LINE
8
BLACK
6
CONTINUOUS
10
76.897
20
-83.9137
11
76.8605
21
-84.0974
0
LINE
8
BLACK
6
CONTINUOUS
10
76.8605
20
-84.0974
11
76.7888
21
-84.2705
0
LINE
8
BLACK
6
CONTINUOUS
10
76.7888
20
-84.2705
11
76.7888
21
-84.2705
0
LINE
8
BLACK
6
CONTINUOUS
10
76.7888
20
-84.2705
11
76.6847
21
-84.4262
0
LINE
8
BLACK
6
CONTINUOUS
10
76.6847
20
-84.4262
11
76.5522
21
-84.5587
0
LINE
8
BLACK
6
CONTINUOUS
10
76.5522
20
-84.5587
11
76.4738
21
-84.6111
0
LINE
8
BLACK
6
CONTINUOUS
10
76.4738
20
-84.6111
11
76.3965
21
-84.6628
0
LINE
8
BLACK
6
CONTINUOUS
10
76.3965
20
-84.6628
11
76.2234
21
-84.7345
0
LINE
8
BLACK
6
CONTINUOUS
10
76.2234
20
-84.7345
11
76.0397
21
-84.771
0
LINE
8
BLACK
6
CONTINUOUS
10
76.0397
20
-84.771
11
75.8523
21
-84.771
0
LINE
8
BLACK
6
CONTINUOUS
10
75.8523
20
-84.771
11
75.6686
21
-84.7345
0
LINE
8
BLACK
6
CONTINUOUS
10
75.6686
20
-84.7345
11
75.4955
21
-84.6628
0
LINE
8
BLACK
6
CONTINUOUS
10
75.4955
20
-84.6628
11
75.4182
21
-84.6111
0
LINE
8
BLACK
6
CONTINUOUS
10
75.4182
20
-84.6111
11
75.3398
21
-84.5587
0
LINE
8
BLACK
6
CONTINUOUS
10
75.3398
20
-84.5587
11
75.2073
21
-84.4262
0
LINE
8
BLACK
6
CONTINUOUS
10
75.2073
20
-84.4262
11
75.1032
21
-84.2705
0
LINE
8
BLACK
6
CONTINUOUS
10
75.1032
20
-84.2705
11
75.1032
21
-84.2705
0
LINE
8
BLACK
6
CONTINUOUS
10
75.1032
20
-84.2705
11
75.0315
21
-84.0974
0
LINE
8
BLACK
6
CONTINUOUS
10
75.0315
20
-84.0974
11
74.995
21
-83.9137
0
LINE
8
BLACK
6
CONTINUOUS
10
74.995
20
-83.9137
11
74.995
21
-83.7263
0
LINE
8
BLACK
6
CONTINUOUS
10
74.995
20
-83.7263
11
75.0315
21
-83.5426
0
LINE
8
BLACK
6
CONTINUOUS
10
75.0315
20
-83.5426
11
75.1032
21
-83.3695
0
LINE
8
BLACK
6
CONTINUOUS
10
75.1032
20
-83.3695
11
75.2073
21
-83.2138
0
LINE
8
BLACK
6
CONTINUOUS
10
75.2073
20
-83.2138
11
75.2073
21
-83.2138
0
LINE
8
BLACK
6
CONTINUOUS
10
75.2073
20
-83.2138
11
75.3398
21
-83.0813
0
LINE
8
BLACK
6
CONTINUOUS
10
75.3398
20
-83.0813
11
75.4955
21
-82.9772
0
LINE
8
BLACK
6
CONTINUOUS
10
75.4955
20
-82.9772
11
75.4955
21
-82.9772
0
LINE
8
BLACK
6
CONTINUOUS
10
75.4955
20
-82.9772
11
75.6686
21
-82.9055
0
LINE
8
BLACK
6
CONTINUOUS
10
75.6686
20
-82.9055
11
75.8523
21
-82.869
0
LINE
8
BLACK
6
CONTINUOUS
10
75.8523
20
-82.869
11
76.0397
21
-82.869
0
LINE
8
BLACK
6
CONTINUOUS
10
76.0397
20
-82.869
11
76.2234
21
-82.9055
0
LINE
8
BLACK
6
CONTINUOUS
10
144.653
20
-80.035
11
141.351
21
-80.035
0
LINE
8
BLACK
6
CONTINUOUS
10
141.351
20
-80.035
11
141.351
21
-76.733
0
LINE
8
BLACK
6
CONTINUOUS
10
141.351
20
-76.733
11
144.653
21
-76.733
0
LINE
8
BLACK
6
CONTINUOUS
10
144.653
20
-76.733
11
144.653
21
-80.035
0
LINE
8
BLACK
6
CONTINUOUS
10
77.2072
20
-76.9991
11
77.4431
21
-77.0706
0
LINE
8
BLACK
6
CONTINUOUS
10
77.4431
20
-77.0706
11
77.6604
21
-77.1868
0
LINE
8
BLACK
6
CONTINUOUS
10
77.6604
20
-77.1868
11
77.8509
21
-77.3431
0
LINE
8
BLACK
6
CONTINUOUS
10
77.8509
20
-77.3431
11
78.0072
21
-77.5336
0
LINE
8
BLACK
6
CONTINUOUS
10
78.0072
20
-77.5336
11
78.1234
21
-77.7509
0
LINE
8
BLACK
6
CONTINUOUS
10
78.1234
20
-77.7509
11
78.1949
21
-77.9868
0
LINE
8
BLACK
6
CONTINUOUS
10
78.1949
20
-77.9868
11
78.2191
21
-78.232
0
LINE
8
BLACK
6
CONTINUOUS
10
78.2191
20
-78.232
11
78.1949
21
-78.4772
0
LINE
8
BLACK
6
CONTINUOUS
10
78.1949
20
-78.4772
11
78.1234
21
-78.7131
0
LINE
8
BLACK
6
CONTINUOUS
10
78.1234
20
-78.7131
11
78.0072
21
-78.9304
0
LINE
8
BLACK
6
CONTINUOUS
10
78.0072
20
-78.9304
11
77.8509
21
-79.1209
0
LINE
8
BLACK
6
CONTINUOUS
10
77.8509
20
-79.1209
11
77.6604
21
-79.2772
0
LINE
8
BLACK
6
CONTINUOUS
10
77.6604
20
-79.2772
11
77.4431
21
-79.3934
0
LINE
8
BLACK
6
CONTINUOUS
10
77.4431
20
-79.3934
11
77.2072
21
-79.4649
0
LINE
8
BLACK
6
CONTINUOUS
10
77.2072
20
-79.4649
11
77.0235
21
-79.483
0
LINE
8
BLACK
6
CONTINUOUS
10
77.0235
20
-79.483
11
76.9005
21
-79.483
0
LINE
8
BLACK
6
CONTINUOUS
10
76.9005
20
-79.483
11
76.7168
21
-79.4649
0
LINE
8
BLACK
6
CONTINUOUS
10
76.7168
20
-79.4649
11
76.4809
21
-79.3934
0
LINE
8
BLACK
6
CONTINUOUS
10
76.4809
20
-79.3934
11
76.2636
21
-79.2772
0
LINE
8
BLACK
6
CONTINUOUS
10
76.2636
20
-79.2772
11
76.0731
21
-79.1209
0
LINE
8
BLACK
6
CONTINUOUS
10
76.0731
20
-79.1209
11
75.9168
21
-78.9304
0
LINE
8
BLACK
6
CONTINUOUS
10
75.9168
20
-78.9304
11
75.8006
21
-78.7131
0
LINE
8
BLACK
6
CONTINUOUS
10
75.8006
20
-78.7131
11
75.7291
21
-78.4772
0
LINE
8
BLACK
6
CONTINUOUS
10
75.7291
20
-78.4772
11
75.7049
21
-78.232
0
LINE
8
BLACK
6
CONTINUOUS
10
75.7049
20
-78.232
11
75.7291
21
-77.9868
0
LINE
8
BLACK
6
CONTINUOUS
10
75.7291
20
-77.9868
11
75.8006
21
-77.7509
0
LINE
8
BLACK
6
CONTINUOUS
10
75.8006
20
-77.7509
11
75.9168
21
-77.5336
0
LINE
8
BLACK
6
CONTINUOUS
10
75.9168
20
-77.5336
11
76.0731
21
-77.3431
0
LINE
8
BLACK
6
CONTINUOUS
10
76.0731
20
-77.3431
11
76.2636
21
-77.1868
0
LINE
8
BLACK
6
CONTINUOUS
10
76.2636
20
-77.1868
11
76.4809
21
-77.0706
0
LINE
8
BLACK
6
CONTINUOUS
10
76.4809
20
-77.0706
11
76.7168
21
-76.9991
0
LINE
8
BLACK
6
CONTINUOUS
10
76.7168
20
-76.9991
11
76.9005
21
-76.981
0
LINE
8
BLACK
6
CONTINUOUS
10
76.9005
20
-76.981
11
77.0235
21
-76.981
0
LINE
8
BLACK
6
CONTINUOUS
10
77.0235
20
-76.981
11
77.2072
21
-76.9991
0
LINE
8
BLACK
6
CONTINUOUS
10
72.325
20
-77.659
11
70.423
21
-77.659
0
LINE
8
BLACK
6
CONTINUOUS
10
70.423
20
-77.659
11
70.423
21
-75.757
0
LINE
8
BLACK
6
CONTINUOUS
10
70.423
20
-75.757
11
72.325
21
-75.757
0
LINE
8
BLACK
6
CONTINUOUS
10
72.325
20
-75.757
11
72.325
21
-77.659
0
LINE
8
BLACK
6
CONTINUOUS
10
72.325
20
-72.659
11
70.423
21
-72.659
0
LINE
8
BLACK
6
CONTINUOUS
10
70.423
20
-72.659
11
70.423
21
-70.757
0
LINE
8
BLACK
6
CONTINUOUS
10
70.423
20
-70.757
11
72.325
21
-70.757
0
LINE
8
BLACK
6
CONTINUOUS
10
72.325
20
-70.757
11
72.325
21
-72.659
0
LINE
8
BLACK
6
CONTINUOUS
10
144.653
20
-70.535
11
141.351
21
-70.535
0
LINE
8
BLACK
6
CONTINUOUS
10
141.351
20
-70.535
11
141.351
21
-67.233
0
LINE
8
BLACK
6
CONTINUOUS
10
141.351
20
-67.233
11
144.653
21
-67.233
0
LINE
8
BLACK
6
CONTINUOUS
10
144.653
20
-67.233
11
144.653
21
-70.535
0
LINE
8
BLACK
6
CONTINUOUS
10
131.007
20
-68.263
11
128.405
21
-68.263
0
LINE
8
BLACK
6
CONTINUOUS
10
128.405
20
-68.263
11
128.405
21
-65.661
0
LINE
8
BLACK
6
CONTINUOUS
10
128.405
20
-65.661
11
131.007
21
-65.661
0
LINE
8
BLACK
6
CONTINUOUS
10
131.007
20
-65.661
11
131.007
21
-68.263
0
LINE
8
BLACK
6
CONTINUOUS
10
84.007
20
-68.263
11
81.405
21
-68.263
0
LINE
8
BLACK
6
CONTINUOUS
10
81.405
20
-68.263
11
81.405
21
-65.661
0
LINE
8
BLACK
6
CONTINUOUS
10
81.405
20
-65.661
11
84.007
21
-65.661
0
LINE
8
BLACK
6
CONTINUOUS
10
84.007
20
-65.661
11
84.007
21
-68.263
0
LINE
8
BLACK
6
CONTINUOUS
10
131.007
20
-62.223
11
128.405
21
-62.223
0
LINE
8
BLACK
6
CONTINUOUS
10
128.405
20
-62.223
11
128.405
21
-59.621
0
LINE
8
BLACK
6
CONTINUOUS
10
128.405
20
-59.621
11
131.007
21
-59.621
0
LINE
8
BLACK
6
CONTINUOUS
10
131.007
20
-59.621
11
131.007
21
-62.223
0
LINE
8
BLACK
6
CONTINUOUS
10
84.007
20
-62.223
11
81.405
21
-62.223
0
LINE
8
BLACK
6
CONTINUOUS
10
81.405
20
-62.223
11
81.405
21
-59.621
0
LINE
8
BLACK
6
CONTINUOUS
10
81.405
20
-59.621
11
84.007
21
-59.621
0
LINE
8
BLACK
6
CONTINUOUS
10
84.007
20
-59.621
11
84.007
21
-62.223
0
LINE
8
BLACK
6
CONTINUOUS
10
144.653
20
-61.035
11
141.351
21
-61.035
0
LINE
8
BLACK
6
CONTINUOUS
10
141.351
20
-61.035
11
141.351
21
-57.733
0
LINE
8
BLACK
6
CONTINUOUS
10
141.351
20
-57.733
11
144.653
21
-57.733
0
LINE
8
BLACK
6
CONTINUOUS
10
144.653
20
-57.733
11
144.653
21
-61.035
0
LINE
8
BLACK
6
CONTINUOUS
10
77.3269
20
-56.7091
11
77.5546
21
-56.8034
0
LINE
8
BLACK
6
CONTINUOUS
10
77.5546
20
-56.8034
11
77.7595
21
-56.9403
0
LINE
8
BLACK
6
CONTINUOUS
10
77.7595
20
-56.9403
11
77.9337
21
-57.1145
0
LINE
8
BLACK
6
CONTINUOUS
10
77.9337
20
-57.1145
11
78.0706
21
-57.3194
0
LINE
8
BLACK
6
CONTINUOUS
10
78.0706
20
-57.3194
11
78.1649
21
-57.5471
0
LINE
8
BLACK
6
CONTINUOUS
10
78.1649
20
-57.5471
11
78.213
21
-57.7888
0
LINE
8
BLACK
6
CONTINUOUS
10
78.213
20
-57.7888
11
78.213
21
-58.0352
0
LINE
8
BLACK
6
CONTINUOUS
10
78.213
20
-58.0352
11
78.1649
21
-58.2769
0
LINE
8
BLACK
6
CONTINUOUS
10
78.1649
20
-58.2769
11
78.0706
21
-58.5046
0
LINE
8
BLACK
6
CONTINUOUS
10
78.0706
20
-58.5046
11
77.9337
21
-58.7095
0
LINE
8
BLACK
6
CONTINUOUS
10
77.9337
20
-58.7095
11
77.7595
21
-58.8837
0
LINE
8
BLACK
6
CONTINUOUS
10
77.7595
20
-58.8837
11
77.5546
21
-59.0206
0
LINE
8
BLACK
6
CONTINUOUS
10
77.5546
20
-59.0206
11
77.5546
21
-59.0206
0
LINE
8
BLACK
6
CONTINUOUS
10
77.5546
20
-59.0206
11
77.5546
21
-59.0206
0
LINE
8
BLACK
6
CONTINUOUS
10
77.5546
20
-59.0206
11
77.3269
21
-59.1149
0
LINE
8
BLACK
6
CONTINUOUS
10
77.3269
20
-59.1149
11
77.0852
21
-59.163
0
LINE
8
BLACK
6
CONTINUOUS
10
77.0852
20
-59.163
11
76.8388
21
-59.163
0
LINE
8
BLACK
6
CONTINUOUS
10
76.8388
20
-59.163
11
76.5971
21
-59.1149
0
LINE
8
BLACK
6
CONTINUOUS
10
76.5971
20
-59.1149
11
76.3694
21
-59.0206
0
LINE
8
BLACK
6
CONTINUOUS
10
76.3694
20
-59.0206
11
76.3694
21
-59.0206
0
LINE
8
BLACK
6
CONTINUOUS
10
76.3694
20
-59.0206
11
76.3694
21
-59.0206
0
LINE
8
BLACK
6
CONTINUOUS
10
76.3694
20
-59.0206
11
76.1645
21
-58.8837
0
LINE
8
BLACK
6
CONTINUOUS
10
76.1645
20
-58.8837
11
75.9903
21
-58.7095
0
LINE
8
BLACK
6
CONTINUOUS
10
75.9903
20
-58.7095
11
75.8534
21
-58.5046
0
LINE
8
BLACK
6
CONTINUOUS
10
75.8534
20
-58.5046
11
75.7591
21
-58.2769
0
LINE
8
BLACK
6
CONTINUOUS
10
75.7591
20
-58.2769
11
75.711
21
-58.0352
0
LINE
8
BLACK
6
CONTINUOUS
10
75.711
20
-58.0352
11
75.711
21
-57.7888
0
LINE
8
BLACK
6
CONTINUOUS
10
75.711
20
-57.7888
11
75.7591
21
-57.5471
0
LINE
8
BLACK
6
CONTINUOUS
10
75.7591
20
-57.5471
11
75.8534
21
-57.3194
0
LINE
8
BLACK
6
CONTINUOUS
10
75.8534
20
-57.3194
11
75.9903
21
-57.1145
0
LINE
8
BLACK
6
CONTINUOUS
10
75.9903
20
-57.1145
11
76.1645
21
-56.9403
0
LINE
8
BLACK
6
CONTINUOUS
10
76.1645
20
-56.9403
11
76.3694
21
-56.8034
0
LINE
8
BLACK
6
CONTINUOUS
10
76.3694
20
-56.8034
11
76.5971
21
-56.7091
0
LINE
8
BLACK
6
CONTINUOUS
10
76.5971
20
-56.7091
11
76.8388
21
-56.661
0
LINE
8
BLACK
6
CONTINUOUS
10
76.8388
20
-56.661
11
77.0852
21
-56.661
0
LINE
8
BLACK
6
CONTINUOUS
10
77.0852
20
-56.661
11
77.3269
21
-56.7091
0
LINE
8
BLACK
6
CONTINUOUS
10
72.325
20
-57.659
11
70.423
21
-57.659
0
LINE
8
BLACK
6
CONTINUOUS
10
70.423
20
-57.659
11
70.423
21
-55.757
0
LINE
8
BLACK
6
CONTINUOUS
10
70.423
20
-55.757
11
72.325
21
-55.757
0
LINE
8
BLACK
6
CONTINUOUS
10
72.325
20
-55.757
11
72.325
21
-57.659
0
LINE
8
BLACK
6
CONTINUOUS
10
77.1811
20
-52.0779
11
77.3177
21
-52.1345
0
LINE
8
BLACK
6
CONTINUOUS
10
77.3177
20
-52.1345
11
77.4407
21
-52.2167
0
LINE
8
BLACK
6
CONTINUOUS
10
77.4407
20
-52.2167
11
77.5453
21
-52.3213
0
LINE
8
BLACK
6
CONTINUOUS
10
77.5453
20
-52.3213
11
77.6275
21
-52.4443
0
LINE
8
BLACK
6
CONTINUOUS
10
77.6275
20
-52.4443
11
77.6841
21
-52.5809
0
LINE
8
BLACK
6
CONTINUOUS
10
77.6841
20
-52.5809
11
77.713
21
-52.726
0
LINE
8
BLACK
6
CONTINUOUS
10
77.713
20
-52.726
11
77.713
21
-52.874
0
LINE
8
BLACK
6
CONTINUOUS
10
77.713
20
-52.874
11
77.6841
21
-53.0191
0
LINE
8
BLACK
6
CONTINUOUS
10
77.6841
20
-53.0191
11
77.6275
21
-53.1557
0
LINE
8
BLACK
6
CONTINUOUS
10
77.6275
20
-53.1557
11
77.5453
21
-53.2787
0
LINE
8
BLACK
6
CONTINUOUS
10
77.5453
20
-53.2787
11
77.4407
21
-53.3833
0
LINE
8
BLACK
6
CONTINUOUS
10
77.4407
20
-53.3833
11
77.3177
21
-53.4655
0
LINE
8
BLACK
6
CONTINUOUS
10
77.3177
20
-53.4655
11
77.3177
21
-53.4655
0
LINE
8
BLACK
6
CONTINUOUS
10
77.3177
20
-53.4655
11
77.3177
21
-53.4655
0
LINE
8
BLACK
6
CONTINUOUS
10
77.3177
20
-53.4655
11
77.1811
21
-53.5221
0
LINE
8
BLACK
6
CONTINUOUS
10
77.1811
20
-53.5221
11
77.036
21
-53.551
0
LINE
8
BLACK
6
CONTINUOUS
10
77.036
20
-53.551
11
76.888
21
-53.551
0
LINE
8
BLACK
6
CONTINUOUS
10
76.888
20
-53.551
11
76.7429
21
-53.5221
0
LINE
8
BLACK
6
CONTINUOUS
10
76.7429
20
-53.5221
11
76.6063
21
-53.4655
0
LINE
8
BLACK
6
CONTINUOUS
10
76.6063
20
-53.4655
11
76.6063
21
-53.4655
0
LINE
8
BLACK
6
CONTINUOUS
10
76.6063
20
-53.4655
11
76.6063
21
-53.4655
0
LINE
8
BLACK
6
CONTINUOUS
10
76.6063
20
-53.4655
11
76.4833
21
-53.3833
0
LINE
8
BLACK
6
CONTINUOUS
10
76.4833
20
-53.3833
11
76.3787
21
-53.2787
0
LINE
8
BLACK
6
CONTINUOUS
10
76.3787
20
-53.2787
11
76.2965
21
-53.1557
0
LINE
8
BLACK
6
CONTINUOUS
10
76.2965
20
-53.1557
11
76.2399
21
-53.0191
0
LINE
8
BLACK
6
CONTINUOUS
10
76.2399
20
-53.0191
11
76.211
21
-52.874
0
LINE
8
BLACK
6
CONTINUOUS
10
76.211
20
-52.874
11
76.211
21
-52.726
0
LINE
8
BLACK
6
CONTINUOUS
10
76.211
20
-52.726
11
76.2399
21
-52.5809
0
LINE
8
BLACK
6
CONTINUOUS
10
76.2399
20
-52.5809
11
76.2965
21
-52.4443
0
LINE
8
BLACK
6
CONTINUOUS
10
76.2965
20
-52.4443
11
76.3787
21
-52.3213
0
LINE
8
BLACK
6
CONTINUOUS
10
76.3787
20
-52.3213
11
76.4833
21
-52.2167
0
LINE
8
BLACK
6
CONTINUOUS
10
76.4833
20
-52.2167
11
76.6063
21
-52.1345
0
LINE
8
BLACK
6
CONTINUOUS
10
76.6063
20
-52.1345
11
76.7429
21
-52.0779
0
LINE
8
BLACK
6
CONTINUOUS
10
76.7429
20
-52.0779
11
76.888
21
-52.049
0
LINE
8
BLACK
6
CONTINUOUS
10
76.888
20
-52.049
11
77.036
21
-52.049
0
LINE
8
BLACK
6
CONTINUOUS
10
77.036
20
-52.049
11
77.1811
21
-52.0779
0
LINE
8
BLACK
6
CONTINUOUS
10
72.325
20
-52.659
11
70.423
21
-52.659
0
LINE
8
BLACK
6
CONTINUOUS
10
70.423
20
-52.659
11
70.423
21
-50.757
0
LINE
8
BLACK
6
CONTINUOUS
10
70.423
20
-50.757
11
72.325
21
-50.757
0
LINE
8
BLACK
6
CONTINUOUS
10
72.325
20
-50.757
11
72.325
21
-52.659
0
LINE
8
BLACK
6
CONTINUOUS
10
77.1811
20
-50.0779
11
77.3177
21
-50.1345
0
LINE
8
BLACK
6
CONTINUOUS
10
77.3177
20
-50.1345
11
77.4407
21
-50.2167
0
LINE
8
BLACK
6
CONTINUOUS
10
77.4407
20
-50.2167
11
77.5453
21
-50.3213
0
LINE
8
BLACK
6
CONTINUOUS
10
77.5453
20
-50.3213
11
77.6275
21
-50.4443
0
LINE
8
BLACK
6
CONTINUOUS
10
77.6275
20
-50.4443
11
77.6841
21
-50.5809
0
LINE
8
BLACK
6
CONTINUOUS
10
77.6841
20
-50.5809
11
77.713
21
-50.726
0
LINE
8
BLACK
6
CONTINUOUS
10
77.713
20
-50.726
11
77.713
21
-50.874
0
LINE
8
BLACK
6
CONTINUOUS
10
77.713
20
-50.874
11
77.6841
21
-51.0191
0
LINE
8
BLACK
6
CONTINUOUS
10
77.6841
20
-51.0191
11
77.6275
21
-51.1557
0
LINE
8
BLACK
6
CONTINUOUS
10
77.6275
20
-51.1557
11
77.5453
21
-51.2787
0
LINE
8
BLACK
6
CONTINUOUS
10
77.5453
20
-51.2787
11
77.4407
21
-51.3833
0
LINE
8
BLACK
6
CONTINUOUS
10
77.4407
20
-51.3833
11
77.3177
21
-51.4655
0
LINE
8
BLACK
6
CONTINUOUS
10
77.3177
20
-51.4655
11
77.3177
21
-51.4655
0
LINE
8
BLACK
6
CONTINUOUS
10
77.3177
20
-51.4655
11
77.3177
21
-51.4655
0
LINE
8
BLACK
6
CONTINUOUS
10
77.3177
20
-51.4655
11
77.1811
21
-51.5221
0
LINE
8
BLACK
6
CONTINUOUS
10
77.1811
20
-51.5221
11
77.036
21
-51.551
0
LINE
8
BLACK
6
CONTINUOUS
10
77.036
20
-51.551
11
76.888
21
-51.551
0
LINE
8
BLACK
6
CONTINUOUS
10
76.888
20
-51.551
11
76.7429
21
-51.5221
0
LINE
8
BLACK
6
CONTINUOUS
10
76.7429
20
-51.5221
11
76.6063
21
-51.4655
0
LINE
8
BLACK
6
CONTINUOUS
10
76.6063
20
-51.4655
11
76.6063
21
-51.4655
0
LINE
8
BLACK
6
CONTINUOUS
10
76.6063
20
-51.4655
11
76.6063
21
-51.4655
0
LINE
8
BLACK
6
CONTINUOUS
10
76.6063
20
-51.4655
11
76.4833
21
-51.3833
0
LINE
8
BLACK
6
CONTINUOUS
10
76.4833
20
-51.3833
11
76.3787
21
-51.2787
0
LINE
8
BLACK
6
CONTINUOUS
10
76.3787
20
-51.2787
11
76.2965
21
-51.1557
0
LINE
8
BLACK
6
CONTINUOUS
10
76.2965
20
-51.1557
11
76.2399
21
-51.0191
0
LINE
8
BLACK
6
CONTINUOUS
10
76.2399
20
-51.0191
11
76.211
21
-50.874
0
LINE
8
BLACK
6
CONTINUOUS
10
76.211
20
-50.874
11
76.211
21
-50.726
0
LINE
8
BLACK
6
CONTINUOUS
10
76.211
20
-50.726
11
76.2399
21
-50.5809
0
LINE
8
BLACK
6
CONTINUOUS
10
76.2399
20
-50.5809
11
76.2965
21
-50.4443
0
LINE
8
BLACK
6
CONTINUOUS
10
76.2965
20
-50.4443
11
76.3787
21
-50.3213
0
LINE
8
BLACK
6
CONTINUOUS
10
76.3787
20
-50.3213
11
76.4833
21
-50.2167
0
LINE
8
BLACK
6
CONTINUOUS
10
76.4833
20
-50.2167
11
76.6063
21
-50.1345
0
LINE
8
BLACK
6
CONTINUOUS
10
76.6063
20
-50.1345
11
76.7429
21
-50.0779
0
LINE
8
BLACK
6
CONTINUOUS
10
76.7429
20
-50.0779
11
76.888
21
-50.049
0
LINE
8
BLACK
6
CONTINUOUS
10
76.888
20
-50.049
11
77.036
21
-50.049
0
LINE
8
BLACK
6
CONTINUOUS
10
77.036
20
-50.049
11
77.1811
21
-50.0779
0
LINE
8
BLACK
6
CONTINUOUS
10
144.653
20
-51.535
11
141.351
21
-51.535
0
LINE
8
BLACK
6
CONTINUOUS
10
141.351
20
-51.535
11
141.351
21
-48.233
0
LINE
8
BLACK
6
CONTINUOUS
10
141.351
20
-48.233
11
144.653
21
-48.233
0
LINE
8
BLACK
6
CONTINUOUS
10
144.653
20
-48.233
11
144.653
21
-51.535
0
LINE
8
BLACK
6
CONTINUOUS
10
77.0106
20
-41.6588
11
77.1604
21
-41.6886
0
LINE
8
BLACK
6
CONTINUOUS
10
77.1604
20
-41.6886
11
77.4427
21
-41.8055
0
LINE
8
BLACK
6
CONTINUOUS
10
77.4427
20
-41.8055
11
77.6967
21
-41.9753
0
LINE
8
BLACK
6
CONTINUOUS
10
77.6967
20
-41.9753
11
77.9127
21
-42.1913
0
LINE
8
BLACK
6
CONTINUOUS
10
77.9127
20
-42.1913
11
78.0825
21
-42.4453
0
LINE
8
BLACK
6
CONTINUOUS
10
78.0825
20
-42.4453
11
78.1994
21
-42.7276
0
LINE
8
BLACK
6
CONTINUOUS
10
78.1994
20
-42.7276
11
78.259
21
-43.0272
0
LINE
8
BLACK
6
CONTINUOUS
10
78.259
20
-43.0272
11
78.259
21
-43.3328
0
LINE
8
BLACK
6
CONTINUOUS
10
78.259
20
-43.3328
11
78.1994
21
-43.6324
0
LINE
8
BLACK
6
CONTINUOUS
10
78.1994
20
-43.6324
11
78.0825
21
-43.9147
0
LINE
8
BLACK
6
CONTINUOUS
10
78.0825
20
-43.9147
11
77.9127
21
-44.1687
0
LINE
8
BLACK
6
CONTINUOUS
10
77.9127
20
-44.1687
11
77.6967
21
-44.3847
0
LINE
8
BLACK
6
CONTINUOUS
10
77.6967
20
-44.3847
11
77.4427
21
-44.5545
0
LINE
8
BLACK
6
CONTINUOUS
10
77.4427
20
-44.5545
11
77.1604
21
-44.6714
0
LINE
8
BLACK
6
CONTINUOUS
10
77.1604
20
-44.6714
11
77.0106
21
-44.7012
0
LINE
8
BLACK
6
CONTINUOUS
10
77.0106
20
-44.7012
11
76.8608
21
-44.731
0
LINE
8
BLACK
6
CONTINUOUS
10
76.8608
20
-44.731
11
76.5552
21
-44.731
0
LINE
8
BLACK
6
CONTINUOUS
10
76.5552
20
-44.731
11
76.4054
21
-44.7012
0
LINE
8
BLACK
6
CONTINUOUS
10
76.4054
20
-44.7012
11
76.2556
21
-44.6714
0
LINE
8
BLACK
6
CONTINUOUS
10
76.2556
20
-44.6714
11
75.9733
21
-44.5545
0
LINE
8
BLACK
6
CONTINUOUS
10
75.9733
20
-44.5545
11
75.7193
21
-44.3847
0
LINE
8
BLACK
6
CONTINUOUS
10
75.7193
20
-44.3847
11
75.5033
21
-44.1687
0
LINE
8
BLACK
6
CONTINUOUS
10
75.5033
20
-44.1687
11
75.3335
21
-43.9147
0
LINE
8
BLACK
6
CONTINUOUS
10
75.3335
20
-43.9147
11
75.2166
21
-43.6324
0
LINE
8
BLACK
6
CONTINUOUS
10
75.2166
20
-43.6324
11
75.157
21
-43.3328
0
LINE
8
BLACK
6
CONTINUOUS
10
75.157
20
-43.3328
11
75.157
21
-43.0272
0
LINE
8
BLACK
6
CONTINUOUS
10
75.157
20
-43.0272
11
75.2166
21
-42.7276
0
LINE
8
BLACK
6
CONTINUOUS
10
75.2166
20
-42.7276
11
75.3335
21
-42.4453
0
LINE
8
BLACK
6
CONTINUOUS
10
75.3335
20
-42.4453
11
75.5033
21
-42.1913
0
LINE
8
BLACK
6
CONTINUOUS
10
75.5033
20
-42.1913
11
75.7193
21
-41.9753
0
LINE
8
BLACK
6
CONTINUOUS
10
75.7193
20
-41.9753
11
75.9733
21
-41.8055
0
LINE
8
BLACK
6
CONTINUOUS
10
75.9733
20
-41.8055
11
76.2556
21
-41.6886
0
LINE
8
BLACK
6
CONTINUOUS
10
76.2556
20
-41.6886
11
76.4054
21
-41.6588
0
LINE
8
BLACK
6
CONTINUOUS
10
76.4054
20
-41.6588
11
76.5552
21
-41.629
0
LINE
8
BLACK
6
CONTINUOUS
10
76.5552
20
-41.629
11
76.8608
21
-41.629
0
LINE
8
BLACK
6
CONTINUOUS
10
76.8608
20
-41.629
11
77.0106
21
-41.6588
0
LINE
8
BLACK
6
CONTINUOUS
10
73.179
20
-44.731
11
70.077
21
-44.731
0
LINE
8
BLACK
6
CONTINUOUS
10
70.077
20
-44.731
11
70.077
21
-41.629
0
LINE
8
BLACK
6
CONTINUOUS
10
70.077
20
-41.629
11
73.179
21
-41.629
0
LINE
8
BLACK
6
CONTINUOUS
10
73.179
20
-41.629
11
73.179
21
-44.731
0
LINE
8
BLACK
6
CONTINUOUS
10
144.653
20
-42.135
11
141.351
21
-42.135
0
LINE
8
BLACK
6
CONTINUOUS
10
141.351
20
-42.135
11
141.351
21
-38.833
0
LINE
8
BLACK
6
CONTINUOUS
10
141.351
20
-38.833
11
144.653
21
-38.833
0
LINE
8
BLACK
6
CONTINUOUS
10
144.653
20
-38.833
11
144.653
21
-42.135
0
LINE
8
BLACK
6
CONTINUOUS
10
131.007
20
-40.223
11
128.405
21
-40.223
0
LINE
8
BLACK
6
CONTINUOUS
10
128.405
20
-40.223
11
128.405
21
-37.621
0
LINE
8
BLACK
6
CONTINUOUS
10
128.405
20
-37.621
11
131.007
21
-37.621
0
LINE
8
BLACK
6
CONTINUOUS
10
131.007
20
-37.621
11
131.007
21
-40.223
0
LINE
8
BLACK
6
CONTINUOUS
10
84.007
20
-40.223
11
81.405
21
-40.223
0
LINE
8
BLACK
6
CONTINUOUS
10
81.405
20
-40.223
11
81.405
21
-37.621
0
LINE
8
BLACK
6
CONTINUOUS
10
81.405
20
-37.621
11
84.007
21
-37.621
0
LINE
8
BLACK
6
CONTINUOUS
10
84.007
20
-37.621
11
84.007
21
-40.223
  0
ENDSEC
  0
EOF
