M48
; DRILL file {KiCad (5.1.4)-1} date 11/19/2020 1:50:32 PM
; FORMAT={-:-/ absolute / inch / decimal}
; #@! TF.CreationDate,2020-11-19T13:50:32+07:00
; #@! TF.GenerationSoftware,Kicad,Pcbnew,(5.1.4)-1
; #@! TF.FileFunction,Plated,1,2,PTH
FMAT,2
INCH
T1C0.0362
T2C0.0787
T3C0.0906
%
G90
G05
T1
X2.975Y-1.25
X2.975Y-1.3484
X2.975Y-1.4272
X2.975Y-1.5256
X2.975Y-2.9
X2.975Y-2.9984
X2.975Y-3.0772
X2.975Y-3.1756
X2.975Y-2.1
X2.975Y-2.1984
X2.975Y-2.2772
X2.975Y-2.3756
X3.3266Y-3.55
X3.3266Y-3.6287
X3.425Y-3.55
X3.425Y-3.6287
X4.1516Y-3.55
X4.1516Y-3.6287
X4.25Y-3.55
X4.25Y-3.6287
X4.9266Y-3.55
X4.9266Y-3.6287
X5.025Y-3.55
X5.025Y-3.6287
T2
X2.55Y-4.025
X5.2Y-1.25
T3
X3.1388Y-3.7354
X3.6128Y-3.7354
X3.9638Y-3.7354
X4.4378Y-3.7354
X4.7388Y-3.7354
X5.2128Y-3.7354
X2.8683Y-1.1291
X2.8683Y-1.6465
X2.8683Y-2.7791
X2.8683Y-3.2965
X2.8683Y-1.9791
X2.8683Y-2.4965
T0
M30
