  0
SECTION
  2
HEADER
  9
$ANGBASE
  50
0.0
  9
$ANGDIR
  70
  1
  9
$MEASUREMENT
  70
0
  0
ENDSEC
  0
SECTION
  2
TABLES
  0
TABLE
  2
LTYPE
  70
4
  0
LTYPE
  5
40F
  2
CONTINUOUS
  70
0
  3
Solid line
  72
65
  73
0
  40
0.0
  0
LTYPE
  5
410
  2
DASHDOT
 70
0
  3
Dash Dot ____ _ ____ _
 72
65
 73
4
 40
2.0
 49
1.25
 49
-0.25
 49
0.25
 49
-0.25
  0
LTYPE
  5
411
  2
DASHED
 70
0
  3
Dashed __ __ __ __ __
 72
65
 73
2
 40
0.75
 49
0.5
 49
-0.25
  0
LTYPE
  5
43B
  2
DOTTED
 70
0
  3
Dotted .  .  .  .
 72
65
 73
2
 40
0.2
 49
0.0
 49
-0.2
  0
ENDTAB
  0
TABLE
  2
STYLE
  70
4
  0
STYLE
  2
KICAD
  70
0
  40
0
  41
1
  42
1
  50
0
  71
0
  3
isocp.shx
  0
STYLE
  2
KICADB
  70
0
  40
0
  41
1
  42
1
  50
0
  71
0
  3
isocp.shx
  0
STYLE
  2
KICADI
  70
0
  40
0
  41
1
  42
1
  50
15
  71
0
  3
isocp.shx
  0
STYLE
  2
KICADBI
  70
0
  40
0
  41
1
  42
1
  50
15
  71
0
  3
isocp.shx
  0
ENDTAB
  0
TABLE
  2
LAYER
  70
30
  0
LAYER
  2
BLACK
  70
0
  62
7
  6
CONTINUOUS
  0
LAYER
  2
GRAY1
  70
0
  62
251
  6
CONTINUOUS
  0
LAYER
  2
GRAY2
  70
0
  62
8
  6
CONTINUOUS
  0
LAYER
  2
GRAY3
  70
0
  62
9
  6
CONTINUOUS
  0
LAYER
  2
WHITE
  70
0
  62
7
  6
CONTINUOUS
  0
LAYER
  2
LYELLOW
  70
0
  62
51
  6
CONTINUOUS
  0
LAYER
  2
BLUE1
  70
0
  62
178
  6
CONTINUOUS
  0
LAYER
  2
GREEN1
  70
0
  62
98
  6
CONTINUOUS
  0
LAYER
  2
CYAN1
  70
0
  62
138
  6
CONTINUOUS
  0
LAYER
  2
RED1
  70
0
  62
18
  6
CONTINUOUS
  0
LAYER
  2
MAGENTA1
  70
0
  62
228
  6
CONTINUOUS
  0
LAYER
  2
BROWN1
  70
0
  62
58
  6
CONTINUOUS
  0
LAYER
  2
BLUE2
  70
0
  62
5
  6
CONTINUOUS
  0
LAYER
  2
GREEN2
  70
0
  62
3
  6
CONTINUOUS
  0
LAYER
  2
CYAN2
  70
0
  62
4
  6
CONTINUOUS
  0
LAYER
  2
RED2
  70
0
  62
1
  6
CONTINUOUS
  0
LAYER
  2
MAGENTA2
  70
0
  62
6
  6
CONTINUOUS
  0
LAYER
  2
BROWN2
  70
0
  62
54
  6
CONTINUOUS
  0
LAYER
  2
BLUE3
  70
0
  62
171
  6
CONTINUOUS
  0
LAYER
  2
GREEN3
  70
0
  62
91
  6
CONTINUOUS
  0
LAYER
  2
CYAN3
  70
0
  62
131
  6
CONTINUOUS
  0
LAYER
  2
RED3
  70
0
  62
11
  6
CONTINUOUS
  0
LAYER
  2
MAGENTA3
  70
0
  62
221
  6
CONTINUOUS
  0
LAYER
  2
YELLOW3
  70
0
  62
2
  6
CONTINUOUS
  0
LAYER
  2
BLUE4
  70
0
  62
5
  6
CONTINUOUS
  0
LAYER
  2
GREEN4
  70
0
  62
3
  6
CONTINUOUS
  0
LAYER
  2
CYAN4
  70
0
  62
4
  6
CONTINUOUS
  0
LAYER
  2
RED4
  70
0
  62
1
  6
CONTINUOUS
  0
LAYER
  2
MAGENTA4
  70
0
  62
6
  6
CONTINUOUS
  0
LAYER
  2
YELLOW4
  70
0
  62
2
  6
CONTINUOUS
  0
ENDTAB
  0
ENDSEC
  0
SECTION
  2
ENTITIES
0
LINE
8
BLACK
6
CONTINUOUS
10
156.211
20
-71.095
11
156.215
21
-71.0954
0
LINE
8
BLACK
6
CONTINUOUS
10
156.215
20
-71.0954
11
156.22
21
-71.0968
0
LINE
8
BLACK
6
CONTINUOUS
10
156.22
20
-71.0968
11
156.224
21
-71.0991
0
LINE
8
BLACK
6
CONTINUOUS
10
156.224
20
-71.0991
11
156.228
21
-71.1022
0
LINE
8
BLACK
6
CONTINUOUS
10
156.228
20
-71.1022
11
156.231
21
-71.106
0
LINE
8
BLACK
6
CONTINUOUS
10
156.231
20
-71.106
11
156.233
21
-71.1104
0
LINE
8
BLACK
6
CONTINUOUS
10
156.233
20
-71.1104
11
156.235
21
-71.1151
0
LINE
8
BLACK
6
CONTINUOUS
10
156.235
20
-71.1151
11
156.235
21
-71.12
0
LINE
8
BLACK
6
CONTINUOUS
10
156.235
20
-71.12
11
156.235
21
-71.1212
0
LINE
8
BLACK
6
CONTINUOUS
10
156.235
20
-71.1212
11
156.235
21
-140.969
0
LINE
8
BLACK
6
CONTINUOUS
10
156.235
20
-140.969
11
156.235
21
-140.97
0
LINE
8
BLACK
6
CONTINUOUS
10
156.235
20
-140.97
11
156.235
21
-140.975
0
LINE
8
BLACK
6
CONTINUOUS
10
156.235
20
-140.975
11
156.233
21
-140.98
0
LINE
8
BLACK
6
CONTINUOUS
10
156.233
20
-140.98
11
156.231
21
-140.984
0
LINE
8
BLACK
6
CONTINUOUS
10
156.231
20
-140.984
11
156.228
21
-140.988
0
LINE
8
BLACK
6
CONTINUOUS
10
156.228
20
-140.988
11
156.224
21
-140.991
0
LINE
8
BLACK
6
CONTINUOUS
10
156.224
20
-140.991
11
156.22
21
-140.993
0
LINE
8
BLACK
6
CONTINUOUS
10
156.22
20
-140.993
11
156.215
21
-140.995
0
LINE
8
BLACK
6
CONTINUOUS
10
156.215
20
-140.995
11
156.211
21
-140.995
0
LINE
8
BLACK
6
CONTINUOUS
10
156.211
20
-140.995
11
156.211
21
-140.995
0
LINE
8
BLACK
6
CONTINUOUS
10
156.211
20
-140.995
11
156.21
21
-140.995
0
LINE
8
BLACK
6
CONTINUOUS
10
156.21
20
-140.995
11
156.209
21
-140.995
0
LINE
8
BLACK
6
CONTINUOUS
10
156.209
20
-140.995
11
72.3912
21
-140.995
0
LINE
8
BLACK
6
CONTINUOUS
10
72.3912
20
-140.995
11
72.39
21
-140.995
0
LINE
8
BLACK
6
CONTINUOUS
10
72.39
20
-140.995
11
72.3888
21
-140.995
0
LINE
8
BLACK
6
CONTINUOUS
10
72.3888
20
-140.995
11
72.3888
21
-140.995
0
LINE
8
BLACK
6
CONTINUOUS
10
72.3888
20
-140.995
11
72.3851
21
-140.995
0
LINE
8
BLACK
6
CONTINUOUS
10
72.3851
20
-140.995
11
72.3804
21
-140.993
0
LINE
8
BLACK
6
CONTINUOUS
10
72.3804
20
-140.993
11
72.376
21
-140.991
0
LINE
8
BLACK
6
CONTINUOUS
10
72.376
20
-140.991
11
72.3722
21
-140.988
0
LINE
8
BLACK
6
CONTINUOUS
10
72.3722
20
-140.988
11
72.3691
21
-140.984
0
LINE
8
BLACK
6
CONTINUOUS
10
72.3691
20
-140.984
11
72.3668
21
-140.98
0
LINE
8
BLACK
6
CONTINUOUS
10
72.3668
20
-140.98
11
72.3654
21
-140.975
0
LINE
8
BLACK
6
CONTINUOUS
10
72.3654
20
-140.975
11
72.3649
21
-140.97
0
LINE
8
BLACK
6
CONTINUOUS
10
72.3649
20
-140.97
11
72.365
21
-140.969
0
LINE
8
BLACK
6
CONTINUOUS
10
72.365
20
-140.969
11
72.365
21
-73.6588
0
LINE
8
BLACK
6
CONTINUOUS
10
72.365
20
-73.6588
11
72.365
21
-73.6588
0
LINE
8
BLACK
6
CONTINUOUS
10
72.365
20
-73.6588
11
72.365
21
-71.1212
0
LINE
8
BLACK
6
CONTINUOUS
10
72.365
20
-71.1212
11
72.3649
21
-71.12
0
LINE
8
BLACK
6
CONTINUOUS
10
72.3649
20
-71.12
11
72.3654
21
-71.1151
0
LINE
8
BLACK
6
CONTINUOUS
10
72.3654
20
-71.1151
11
72.3668
21
-71.1104
0
LINE
8
BLACK
6
CONTINUOUS
10
72.3668
20
-71.1104
11
72.3691
21
-71.106
0
LINE
8
BLACK
6
CONTINUOUS
10
72.3691
20
-71.106
11
72.3722
21
-71.1022
0
LINE
8
BLACK
6
CONTINUOUS
10
72.3722
20
-71.1022
11
72.376
21
-71.0991
0
LINE
8
BLACK
6
CONTINUOUS
10
72.376
20
-71.0991
11
72.3804
21
-71.0968
0
LINE
8
BLACK
6
CONTINUOUS
10
72.3804
20
-71.0968
11
72.3851
21
-71.0954
0
LINE
8
BLACK
6
CONTINUOUS
10
72.3851
20
-71.0954
11
72.3888
21
-71.095
0
LINE
8
BLACK
6
CONTINUOUS
10
72.3888
20
-71.095
11
72.39
21
-71.0949
0
LINE
8
BLACK
6
CONTINUOUS
10
72.39
20
-71.0949
11
72.3912
21
-71.095
0
LINE
8
BLACK
6
CONTINUOUS
10
72.3912
20
-71.095
11
156.209
21
-71.095
0
LINE
8
BLACK
6
CONTINUOUS
10
156.209
20
-71.095
11
156.21
21
-71.0949
0
LINE
8
BLACK
6
CONTINUOUS
10
156.21
20
-71.0949
11
156.211
21
-71.095
0
LINE
8
BLACK
6
CONTINUOUS
10
156.185
20
-140.945
11
156.185
21
-71.145
0
LINE
8
BLACK
6
CONTINUOUS
10
156.185
20
-71.145
11
72.415
21
-71.145
0
LINE
8
BLACK
6
CONTINUOUS
10
72.415
20
-71.145
11
72.415
21
-140.945
0
LINE
8
BLACK
6
CONTINUOUS
10
72.415
20
-140.945
11
156.185
21
-140.945
0
LINE
8
BLACK
6
CONTINUOUS
10
83.182
20
-112.458
11
83.184
21
-112.458
0
LINE
8
BLACK
6
CONTINUOUS
10
83.184
20
-112.458
11
83.184
21
-112.458
0
LINE
8
BLACK
6
CONTINUOUS
10
83.184
20
-112.458
11
83.184
21
-112.458
0
LINE
8
BLACK
6
CONTINUOUS
10
83.184
20
-112.458
11
83.1864
21
-112.459
0
LINE
8
BLACK
6
CONTINUOUS
10
83.1864
20
-112.459
11
83.1886
21
-112.459
0
LINE
8
BLACK
6
CONTINUOUS
10
83.1886
20
-112.459
11
83.1886
21
-112.459
0
LINE
8
BLACK
6
CONTINUOUS
10
83.1886
20
-112.459
11
83.1887
21
-112.459
0
LINE
8
BLACK
6
CONTINUOUS
10
83.1887
20
-112.459
11
83.1904
21
-112.46
0
LINE
8
BLACK
6
CONTINUOUS
10
83.1904
20
-112.46
11
83.1929
21
-112.462
0
LINE
8
BLACK
6
CONTINUOUS
10
83.1929
20
-112.462
11
83.1929
21
-112.462
0
LINE
8
BLACK
6
CONTINUOUS
10
83.1929
20
-112.462
11
83.1929
21
-112.462
0
LINE
8
BLACK
6
CONTINUOUS
10
83.1929
20
-112.462
11
83.1945
21
-112.463
0
LINE
8
BLACK
6
CONTINUOUS
10
83.1945
20
-112.463
11
83.1967
21
-112.465
0
LINE
8
BLACK
6
CONTINUOUS
10
83.1967
20
-112.465
11
83.1967
21
-112.465
0
LINE
8
BLACK
6
CONTINUOUS
10
83.1967
20
-112.465
11
83.1967
21
-112.465
0
LINE
8
BLACK
6
CONTINUOUS
10
83.1967
20
-112.465
11
83.1981
21
-112.467
0
LINE
8
BLACK
6
CONTINUOUS
10
83.1981
20
-112.467
11
83.1998
21
-112.469
0
LINE
8
BLACK
6
CONTINUOUS
10
83.1998
20
-112.469
11
83.1998
21
-112.469
0
LINE
8
BLACK
6
CONTINUOUS
10
83.1998
20
-112.469
11
83.1998
21
-112.469
0
LINE
8
BLACK
6
CONTINUOUS
10
83.1998
20
-112.469
11
83.2009
21
-112.471
0
LINE
8
BLACK
6
CONTINUOUS
10
83.2009
20
-112.471
11
83.202
21
-112.473
0
LINE
8
BLACK
6
CONTINUOUS
10
83.202
20
-112.473
11
83.202
21
-112.473
0
LINE
8
BLACK
6
CONTINUOUS
10
83.202
20
-112.473
11
83.2021
21
-112.473
0
LINE
8
BLACK
6
CONTINUOUS
10
83.2021
20
-112.473
11
83.2027
21
-112.475
0
LINE
8
BLACK
6
CONTINUOUS
10
83.2027
20
-112.475
11
83.2035
21
-112.478
0
LINE
8
BLACK
6
CONTINUOUS
10
83.2035
20
-112.478
11
83.2035
21
-112.478
0
LINE
8
BLACK
6
CONTINUOUS
10
83.2035
20
-112.478
11
83.2035
21
-112.478
0
LINE
8
BLACK
6
CONTINUOUS
10
83.2035
20
-112.478
11
83.2037
21
-112.48
0
LINE
8
BLACK
6
CONTINUOUS
10
83.2037
20
-112.48
11
83.2039
21
-112.482
0
LINE
8
BLACK
6
CONTINUOUS
10
83.2039
20
-112.482
11
83.2039
21
-113.457
0
LINE
8
BLACK
6
CONTINUOUS
10
83.2039
20
-113.457
11
83.4646
21
-113.457
0
LINE
8
BLACK
6
CONTINUOUS
10
83.4646
20
-113.457
11
83.465
21
-113.457
0
LINE
8
BLACK
6
CONTINUOUS
10
83.465
20
-113.457
11
83.4698
21
-113.458
0
LINE
8
BLACK
6
CONTINUOUS
10
83.4698
20
-113.458
11
83.4745
21
-113.459
0
LINE
8
BLACK
6
CONTINUOUS
10
83.4745
20
-113.459
11
83.4788
21
-113.462
0
LINE
8
BLACK
6
CONTINUOUS
10
83.4788
20
-113.462
11
83.4825
21
-113.465
0
LINE
8
BLACK
6
CONTINUOUS
10
83.4825
20
-113.465
11
83.4856
21
-113.469
0
LINE
8
BLACK
6
CONTINUOUS
10
83.4856
20
-113.469
11
83.4878
21
-113.473
0
LINE
8
BLACK
6
CONTINUOUS
10
83.4878
20
-113.473
11
83.4892
21
-113.478
0
LINE
8
BLACK
6
CONTINUOUS
10
83.4892
20
-113.478
11
83.4896
21
-113.483
0
LINE
8
BLACK
6
CONTINUOUS
10
83.4896
20
-113.483
11
83.4891
21
-113.487
0
LINE
8
BLACK
6
CONTINUOUS
10
83.4891
20
-113.487
11
83.4877
21
-113.492
0
LINE
8
BLACK
6
CONTINUOUS
10
83.4877
20
-113.492
11
83.4854
21
-113.496
0
LINE
8
BLACK
6
CONTINUOUS
10
83.4854
20
-113.496
11
83.4823
21
-113.5
0
LINE
8
BLACK
6
CONTINUOUS
10
83.4823
20
-113.5
11
83.4785
21
-113.503
0
LINE
8
BLACK
6
CONTINUOUS
10
83.4785
20
-113.503
11
83.4742
21
-113.505
0
LINE
8
BLACK
6
CONTINUOUS
10
83.4742
20
-113.505
11
83.4695
21
-113.507
0
LINE
8
BLACK
6
CONTINUOUS
10
83.4695
20
-113.507
11
83.4646
21
-113.507
0
LINE
8
BLACK
6
CONTINUOUS
10
83.4646
20
-113.507
11
82.8932
21
-113.507
0
LINE
8
BLACK
6
CONTINUOUS
10
82.8932
20
-113.507
11
82.8929
21
-113.507
0
LINE
8
BLACK
6
CONTINUOUS
10
82.8929
20
-113.507
11
82.888
21
-113.507
0
LINE
8
BLACK
6
CONTINUOUS
10
82.888
20
-113.507
11
82.8834
21
-113.505
0
LINE
8
BLACK
6
CONTINUOUS
10
82.8834
20
-113.505
11
82.8791
21
-113.503
0
LINE
8
BLACK
6
CONTINUOUS
10
82.8791
20
-113.503
11
82.8754
21
-113.5
0
LINE
8
BLACK
6
CONTINUOUS
10
82.8754
20
-113.5
11
82.8723
21
-113.496
0
LINE
8
BLACK
6
CONTINUOUS
10
82.8723
20
-113.496
11
82.87
21
-113.492
0
LINE
8
BLACK
6
CONTINUOUS
10
82.87
20
-113.492
11
82.8687
21
-113.487
0
LINE
8
BLACK
6
CONTINUOUS
10
82.8687
20
-113.487
11
82.8682
21
-113.482
0
LINE
8
BLACK
6
CONTINUOUS
10
82.8682
20
-113.482
11
82.8687
21
-113.477
0
LINE
8
BLACK
6
CONTINUOUS
10
82.8687
20
-113.477
11
82.8702
21
-113.473
0
LINE
8
BLACK
6
CONTINUOUS
10
82.8702
20
-113.473
11
82.8725
21
-113.468
0
LINE
8
BLACK
6
CONTINUOUS
10
82.8725
20
-113.468
11
82.8756
21
-113.465
0
LINE
8
BLACK
6
CONTINUOUS
10
82.8756
20
-113.465
11
82.8794
21
-113.462
0
LINE
8
BLACK
6
CONTINUOUS
10
82.8794
20
-113.462
11
82.8837
21
-113.459
0
LINE
8
BLACK
6
CONTINUOUS
10
82.8837
20
-113.459
11
82.8884
21
-113.458
0
LINE
8
BLACK
6
CONTINUOUS
10
82.8884
20
-113.458
11
82.8932
21
-113.457
0
LINE
8
BLACK
6
CONTINUOUS
10
82.8932
20
-113.457
11
83.1539
21
-113.457
0
LINE
8
BLACK
6
CONTINUOUS
10
83.1539
20
-113.457
11
83.1539
21
-112.565
0
LINE
8
BLACK
6
CONTINUOUS
10
83.1539
20
-112.565
11
83.1045
21
-112.639
0
LINE
8
BLACK
6
CONTINUOUS
10
83.1045
20
-112.639
11
83.1043
21
-112.639
0
LINE
8
BLACK
6
CONTINUOUS
10
83.1043
20
-112.639
11
83.1028
21
-112.641
0
LINE
8
BLACK
6
CONTINUOUS
10
83.1028
20
-112.641
11
83.1014
21
-112.643
0
LINE
8
BLACK
6
CONTINUOUS
10
83.1014
20
-112.643
11
83.0061
21
-112.738
0
LINE
8
BLACK
6
CONTINUOUS
10
83.0061
20
-112.738
11
83.0059
21
-112.738
0
LINE
8
BLACK
6
CONTINUOUS
10
83.0059
20
-112.738
11
83.0048
21
-112.739
0
LINE
8
BLACK
6
CONTINUOUS
10
83.0048
20
-112.739
11
83.0038
21
-112.74
0
LINE
8
BLACK
6
CONTINUOUS
10
83.0038
20
-112.74
11
83.0029
21
-112.741
0
LINE
8
BLACK
6
CONTINUOUS
10
83.0029
20
-112.741
11
83.0021
21
-112.741
0
LINE
8
BLACK
6
CONTINUOUS
10
83.0021
20
-112.741
11
83.0008
21
-112.742
0
LINE
8
BLACK
6
CONTINUOUS
10
83.0008
20
-112.742
11
82.9996
21
-112.743
0
LINE
8
BLACK
6
CONTINUOUS
10
82.9996
20
-112.743
11
82.9044
21
-112.79
0
LINE
8
BLACK
6
CONTINUOUS
10
82.9044
20
-112.79
11
82.9041
21
-112.791
0
LINE
8
BLACK
6
CONTINUOUS
10
82.9041
20
-112.791
11
82.8995
21
-112.792
0
LINE
8
BLACK
6
CONTINUOUS
10
82.8995
20
-112.792
11
82.8947
21
-112.793
0
LINE
8
BLACK
6
CONTINUOUS
10
82.8947
20
-112.793
11
82.8898
21
-112.793
0
LINE
8
BLACK
6
CONTINUOUS
10
82.8898
20
-112.793
11
82.8851
21
-112.792
0
LINE
8
BLACK
6
CONTINUOUS
10
82.8851
20
-112.792
11
82.8806
21
-112.79
0
LINE
8
BLACK
6
CONTINUOUS
10
82.8806
20
-112.79
11
82.8767
21
-112.787
0
LINE
8
BLACK
6
CONTINUOUS
10
82.8767
20
-112.787
11
82.8733
21
-112.783
0
LINE
8
BLACK
6
CONTINUOUS
10
82.8733
20
-112.783
11
82.8708
21
-112.779
0
LINE
8
BLACK
6
CONTINUOUS
10
82.8708
20
-112.779
11
82.8691
21
-112.775
0
LINE
8
BLACK
6
CONTINUOUS
10
82.8691
20
-112.775
11
82.8683
21
-112.77
0
LINE
8
BLACK
6
CONTINUOUS
10
82.8683
20
-112.77
11
82.8684
21
-112.765
0
LINE
8
BLACK
6
CONTINUOUS
10
82.8684
20
-112.765
11
82.8695
21
-112.76
0
LINE
8
BLACK
6
CONTINUOUS
10
82.8695
20
-112.76
11
82.8715
21
-112.756
0
LINE
8
BLACK
6
CONTINUOUS
10
82.8715
20
-112.756
11
82.8744
21
-112.752
0
LINE
8
BLACK
6
CONTINUOUS
10
82.8744
20
-112.752
11
82.8779
21
-112.748
0
LINE
8
BLACK
6
CONTINUOUS
10
82.8779
20
-112.748
11
82.882
21
-112.746
0
LINE
8
BLACK
6
CONTINUOUS
10
82.882
20
-112.746
11
82.9736
21
-112.7
0
LINE
8
BLACK
6
CONTINUOUS
10
82.9736
20
-112.7
11
83.0643
21
-112.609
0
LINE
8
BLACK
6
CONTINUOUS
10
83.0643
20
-112.609
11
83.1581
21
-112.469
0
LINE
8
BLACK
6
CONTINUOUS
10
83.1581
20
-112.469
11
83.1583
21
-112.468
0
LINE
8
BLACK
6
CONTINUOUS
10
83.1583
20
-112.468
11
83.1601
21
-112.466
0
LINE
8
BLACK
6
CONTINUOUS
10
83.1601
20
-112.466
11
83.1614
21
-112.465
0
LINE
8
BLACK
6
CONTINUOUS
10
83.1614
20
-112.465
11
83.1615
21
-112.465
0
LINE
8
BLACK
6
CONTINUOUS
10
83.1615
20
-112.465
11
83.1615
21
-112.464
0
LINE
8
BLACK
6
CONTINUOUS
10
83.1615
20
-112.464
11
83.1636
21
-112.463
0
LINE
8
BLACK
6
CONTINUOUS
10
83.1636
20
-112.463
11
83.1652
21
-112.461
0
LINE
8
BLACK
6
CONTINUOUS
10
83.1652
20
-112.461
11
83.1653
21
-112.461
0
LINE
8
BLACK
6
CONTINUOUS
10
83.1653
20
-112.461
11
83.1653
21
-112.461
0
LINE
8
BLACK
6
CONTINUOUS
10
83.1653
20
-112.461
11
83.1674
21
-112.46
0
LINE
8
BLACK
6
CONTINUOUS
10
83.1674
20
-112.46
11
83.1696
21
-112.459
0
LINE
8
BLACK
6
CONTINUOUS
10
83.1696
20
-112.459
11
83.1696
21
-112.459
0
LINE
8
BLACK
6
CONTINUOUS
10
83.1696
20
-112.459
11
83.1696
21
-112.459
0
LINE
8
BLACK
6
CONTINUOUS
10
83.1696
20
-112.459
11
83.1719
21
-112.459
0
LINE
8
BLACK
6
CONTINUOUS
10
83.1719
20
-112.459
11
83.1742
21
-112.458
0
LINE
8
BLACK
6
CONTINUOUS
10
83.1742
20
-112.458
11
83.1743
21
-112.458
0
LINE
8
BLACK
6
CONTINUOUS
10
83.1743
20
-112.458
11
83.1743
21
-112.458
0
LINE
8
BLACK
6
CONTINUOUS
10
83.1743
20
-112.458
11
83.177
21
-112.458
0
LINE
8
BLACK
6
CONTINUOUS
10
83.177
20
-112.458
11
83.1791
21
-112.457
0
LINE
8
BLACK
6
CONTINUOUS
10
83.1791
20
-112.457
11
83.1791
21
-112.457
0
LINE
8
BLACK
6
CONTINUOUS
10
83.1791
20
-112.457
11
83.1791
21
-112.457
0
LINE
8
BLACK
6
CONTINUOUS
10
83.1791
20
-112.457
11
83.182
21
-112.458
0
LINE
8
BLACK
6
CONTINUOUS
10
93.342
20
-112.458
11
93.344
21
-112.458
0
LINE
8
BLACK
6
CONTINUOUS
10
93.344
20
-112.458
11
93.344
21
-112.458
0
LINE
8
BLACK
6
CONTINUOUS
10
93.344
20
-112.458
11
93.344
21
-112.458
0
LINE
8
BLACK
6
CONTINUOUS
10
93.344
20
-112.458
11
93.3464
21
-112.459
0
LINE
8
BLACK
6
CONTINUOUS
10
93.3464
20
-112.459
11
93.3486
21
-112.459
0
LINE
8
BLACK
6
CONTINUOUS
10
93.3486
20
-112.459
11
93.3486
21
-112.459
0
LINE
8
BLACK
6
CONTINUOUS
10
93.3486
20
-112.459
11
93.3487
21
-112.459
0
LINE
8
BLACK
6
CONTINUOUS
10
93.3487
20
-112.459
11
93.3504
21
-112.46
0
LINE
8
BLACK
6
CONTINUOUS
10
93.3504
20
-112.46
11
93.3529
21
-112.462
0
LINE
8
BLACK
6
CONTINUOUS
10
93.3529
20
-112.462
11
93.3529
21
-112.462
0
LINE
8
BLACK
6
CONTINUOUS
10
93.3529
20
-112.462
11
93.3529
21
-112.462
0
LINE
8
BLACK
6
CONTINUOUS
10
93.3529
20
-112.462
11
93.3545
21
-112.463
0
LINE
8
BLACK
6
CONTINUOUS
10
93.3545
20
-112.463
11
93.3567
21
-112.465
0
LINE
8
BLACK
6
CONTINUOUS
10
93.3567
20
-112.465
11
93.3567
21
-112.465
0
LINE
8
BLACK
6
CONTINUOUS
10
93.3567
20
-112.465
11
93.3567
21
-112.465
0
LINE
8
BLACK
6
CONTINUOUS
10
93.3567
20
-112.465
11
93.3581
21
-112.467
0
LINE
8
BLACK
6
CONTINUOUS
10
93.3581
20
-112.467
11
93.3598
21
-112.469
0
LINE
8
BLACK
6
CONTINUOUS
10
93.3598
20
-112.469
11
93.3598
21
-112.469
0
LINE
8
BLACK
6
CONTINUOUS
10
93.3598
20
-112.469
11
93.3598
21
-112.469
0
LINE
8
BLACK
6
CONTINUOUS
10
93.3598
20
-112.469
11
93.3609
21
-112.471
0
LINE
8
BLACK
6
CONTINUOUS
10
93.3609
20
-112.471
11
93.362
21
-112.473
0
LINE
8
BLACK
6
CONTINUOUS
10
93.362
20
-112.473
11
93.362
21
-112.473
0
LINE
8
BLACK
6
CONTINUOUS
10
93.362
20
-112.473
11
93.3621
21
-112.473
0
LINE
8
BLACK
6
CONTINUOUS
10
93.3621
20
-112.473
11
93.3627
21
-112.475
0
LINE
8
BLACK
6
CONTINUOUS
10
93.3627
20
-112.475
11
93.3635
21
-112.478
0
LINE
8
BLACK
6
CONTINUOUS
10
93.3635
20
-112.478
11
93.3635
21
-112.478
0
LINE
8
BLACK
6
CONTINUOUS
10
93.3635
20
-112.478
11
93.3635
21
-112.478
0
LINE
8
BLACK
6
CONTINUOUS
10
93.3635
20
-112.478
11
93.3637
21
-112.48
0
LINE
8
BLACK
6
CONTINUOUS
10
93.3637
20
-112.48
11
93.3639
21
-112.482
0
LINE
8
BLACK
6
CONTINUOUS
10
93.3639
20
-112.482
11
93.3639
21
-113.457
0
LINE
8
BLACK
6
CONTINUOUS
10
93.3639
20
-113.457
11
93.6246
21
-113.457
0
LINE
8
BLACK
6
CONTINUOUS
10
93.6246
20
-113.457
11
93.625
21
-113.457
0
LINE
8
BLACK
6
CONTINUOUS
10
93.625
20
-113.457
11
93.6298
21
-113.458
0
LINE
8
BLACK
6
CONTINUOUS
10
93.6298
20
-113.458
11
93.6345
21
-113.459
0
LINE
8
BLACK
6
CONTINUOUS
10
93.6345
20
-113.459
11
93.6388
21
-113.462
0
LINE
8
BLACK
6
CONTINUOUS
10
93.6388
20
-113.462
11
93.6425
21
-113.465
0
LINE
8
BLACK
6
CONTINUOUS
10
93.6425
20
-113.465
11
93.6456
21
-113.469
0
LINE
8
BLACK
6
CONTINUOUS
10
93.6456
20
-113.469
11
93.6478
21
-113.473
0
LINE
8
BLACK
6
CONTINUOUS
10
93.6478
20
-113.473
11
93.6492
21
-113.478
0
LINE
8
BLACK
6
CONTINUOUS
10
93.6492
20
-113.478
11
93.6496
21
-113.483
0
LINE
8
BLACK
6
CONTINUOUS
10
93.6496
20
-113.483
11
93.6491
21
-113.487
0
LINE
8
BLACK
6
CONTINUOUS
10
93.6491
20
-113.487
11
93.6477
21
-113.492
0
LINE
8
BLACK
6
CONTINUOUS
10
93.6477
20
-113.492
11
93.6454
21
-113.496
0
LINE
8
BLACK
6
CONTINUOUS
10
93.6454
20
-113.496
11
93.6423
21
-113.5
0
LINE
8
BLACK
6
CONTINUOUS
10
93.6423
20
-113.5
11
93.6385
21
-113.503
0
LINE
8
BLACK
6
CONTINUOUS
10
93.6385
20
-113.503
11
93.6342
21
-113.505
0
LINE
8
BLACK
6
CONTINUOUS
10
93.6342
20
-113.505
11
93.6295
21
-113.507
0
LINE
8
BLACK
6
CONTINUOUS
10
93.6295
20
-113.507
11
93.6246
21
-113.507
0
LINE
8
BLACK
6
CONTINUOUS
10
93.6246
20
-113.507
11
93.0532
21
-113.507
0
LINE
8
BLACK
6
CONTINUOUS
10
93.0532
20
-113.507
11
93.0529
21
-113.507
0
LINE
8
BLACK
6
CONTINUOUS
10
93.0529
20
-113.507
11
93.048
21
-113.507
0
LINE
8
BLACK
6
CONTINUOUS
10
93.048
20
-113.507
11
93.0434
21
-113.505
0
LINE
8
BLACK
6
CONTINUOUS
10
93.0434
20
-113.505
11
93.0391
21
-113.503
0
LINE
8
BLACK
6
CONTINUOUS
10
93.0391
20
-113.503
11
93.0354
21
-113.5
0
LINE
8
BLACK
6
CONTINUOUS
10
93.0354
20
-113.5
11
93.0323
21
-113.496
0
LINE
8
BLACK
6
CONTINUOUS
10
93.0323
20
-113.496
11
93.03
21
-113.492
0
LINE
8
BLACK
6
CONTINUOUS
10
93.03
20
-113.492
11
93.0287
21
-113.487
0
LINE
8
BLACK
6
CONTINUOUS
10
93.0287
20
-113.487
11
93.0282
21
-113.482
0
LINE
8
BLACK
6
CONTINUOUS
10
93.0282
20
-113.482
11
93.0287
21
-113.477
0
LINE
8
BLACK
6
CONTINUOUS
10
93.0287
20
-113.477
11
93.0302
21
-113.473
0
LINE
8
BLACK
6
CONTINUOUS
10
93.0302
20
-113.473
11
93.0325
21
-113.468
0
LINE
8
BLACK
6
CONTINUOUS
10
93.0325
20
-113.468
11
93.0356
21
-113.465
0
LINE
8
BLACK
6
CONTINUOUS
10
93.0356
20
-113.465
11
93.0394
21
-113.462
0
LINE
8
BLACK
6
CONTINUOUS
10
93.0394
20
-113.462
11
93.0437
21
-113.459
0
LINE
8
BLACK
6
CONTINUOUS
10
93.0437
20
-113.459
11
93.0484
21
-113.458
0
LINE
8
BLACK
6
CONTINUOUS
10
93.0484
20
-113.458
11
93.0532
21
-113.457
0
LINE
8
BLACK
6
CONTINUOUS
10
93.0532
20
-113.457
11
93.3139
21
-113.457
0
LINE
8
BLACK
6
CONTINUOUS
10
93.3139
20
-113.457
11
93.3139
21
-112.565
0
LINE
8
BLACK
6
CONTINUOUS
10
93.3139
20
-112.565
11
93.2645
21
-112.639
0
LINE
8
BLACK
6
CONTINUOUS
10
93.2645
20
-112.639
11
93.2643
21
-112.639
0
LINE
8
BLACK
6
CONTINUOUS
10
93.2643
20
-112.639
11
93.2628
21
-112.641
0
LINE
8
BLACK
6
CONTINUOUS
10
93.2628
20
-112.641
11
93.2614
21
-112.643
0
LINE
8
BLACK
6
CONTINUOUS
10
93.2614
20
-112.643
11
93.1661
21
-112.738
0
LINE
8
BLACK
6
CONTINUOUS
10
93.1661
20
-112.738
11
93.1659
21
-112.738
0
LINE
8
BLACK
6
CONTINUOUS
10
93.1659
20
-112.738
11
93.1648
21
-112.739
0
LINE
8
BLACK
6
CONTINUOUS
10
93.1648
20
-112.739
11
93.1638
21
-112.74
0
LINE
8
BLACK
6
CONTINUOUS
10
93.1638
20
-112.74
11
93.1629
21
-112.741
0
LINE
8
BLACK
6
CONTINUOUS
10
93.1629
20
-112.741
11
93.1621
21
-112.741
0
LINE
8
BLACK
6
CONTINUOUS
10
93.1621
20
-112.741
11
93.1608
21
-112.742
0
LINE
8
BLACK
6
CONTINUOUS
10
93.1608
20
-112.742
11
93.1596
21
-112.743
0
LINE
8
BLACK
6
CONTINUOUS
10
93.1596
20
-112.743
11
93.0644
21
-112.79
0
LINE
8
BLACK
6
CONTINUOUS
10
93.0644
20
-112.79
11
93.0641
21
-112.791
0
LINE
8
BLACK
6
CONTINUOUS
10
93.0641
20
-112.791
11
93.0595
21
-112.792
0
LINE
8
BLACK
6
CONTINUOUS
10
93.0595
20
-112.792
11
93.0547
21
-112.793
0
LINE
8
BLACK
6
CONTINUOUS
10
93.0547
20
-112.793
11
93.0498
21
-112.793
0
LINE
8
BLACK
6
CONTINUOUS
10
93.0498
20
-112.793
11
93.0451
21
-112.792
0
LINE
8
BLACK
6
CONTINUOUS
10
93.0451
20
-112.792
11
93.0406
21
-112.79
0
LINE
8
BLACK
6
CONTINUOUS
10
93.0406
20
-112.79
11
93.0367
21
-112.787
0
LINE
8
BLACK
6
CONTINUOUS
10
93.0367
20
-112.787
11
93.0333
21
-112.783
0
LINE
8
BLACK
6
CONTINUOUS
10
93.0333
20
-112.783
11
93.0308
21
-112.779
0
LINE
8
BLACK
6
CONTINUOUS
10
93.0308
20
-112.779
11
93.0291
21
-112.775
0
LINE
8
BLACK
6
CONTINUOUS
10
93.0291
20
-112.775
11
93.0283
21
-112.77
0
LINE
8
BLACK
6
CONTINUOUS
10
93.0283
20
-112.77
11
93.0284
21
-112.765
0
LINE
8
BLACK
6
CONTINUOUS
10
93.0284
20
-112.765
11
93.0295
21
-112.76
0
LINE
8
BLACK
6
CONTINUOUS
10
93.0295
20
-112.76
11
93.0315
21
-112.756
0
LINE
8
BLACK
6
CONTINUOUS
10
93.0315
20
-112.756
11
93.0344
21
-112.752
0
LINE
8
BLACK
6
CONTINUOUS
10
93.0344
20
-112.752
11
93.0379
21
-112.748
0
LINE
8
BLACK
6
CONTINUOUS
10
93.0379
20
-112.748
11
93.042
21
-112.746
0
LINE
8
BLACK
6
CONTINUOUS
10
93.042
20
-112.746
11
93.1336
21
-112.7
0
LINE
8
BLACK
6
CONTINUOUS
10
93.1336
20
-112.7
11
93.2243
21
-112.609
0
LINE
8
BLACK
6
CONTINUOUS
10
93.2243
20
-112.609
11
93.3181
21
-112.469
0
LINE
8
BLACK
6
CONTINUOUS
10
93.3181
20
-112.469
11
93.3183
21
-112.468
0
LINE
8
BLACK
6
CONTINUOUS
10
93.3183
20
-112.468
11
93.3201
21
-112.466
0
LINE
8
BLACK
6
CONTINUOUS
10
93.3201
20
-112.466
11
93.3214
21
-112.465
0
LINE
8
BLACK
6
CONTINUOUS
10
93.3214
20
-112.465
11
93.3215
21
-112.465
0
LINE
8
BLACK
6
CONTINUOUS
10
93.3215
20
-112.465
11
93.3215
21
-112.464
0
LINE
8
BLACK
6
CONTINUOUS
10
93.3215
20
-112.464
11
93.3236
21
-112.463
0
LINE
8
BLACK
6
CONTINUOUS
10
93.3236
20
-112.463
11
93.3252
21
-112.461
0
LINE
8
BLACK
6
CONTINUOUS
10
93.3252
20
-112.461
11
93.3253
21
-112.461
0
LINE
8
BLACK
6
CONTINUOUS
10
93.3253
20
-112.461
11
93.3253
21
-112.461
0
LINE
8
BLACK
6
CONTINUOUS
10
93.3253
20
-112.461
11
93.3274
21
-112.46
0
LINE
8
BLACK
6
CONTINUOUS
10
93.3274
20
-112.46
11
93.3296
21
-112.459
0
LINE
8
BLACK
6
CONTINUOUS
10
93.3296
20
-112.459
11
93.3296
21
-112.459
0
LINE
8
BLACK
6
CONTINUOUS
10
93.3296
20
-112.459
11
93.3296
21
-112.459
0
LINE
8
BLACK
6
CONTINUOUS
10
93.3296
20
-112.459
11
93.3319
21
-112.459
0
LINE
8
BLACK
6
CONTINUOUS
10
93.3319
20
-112.459
11
93.3342
21
-112.458
0
LINE
8
BLACK
6
CONTINUOUS
10
93.3342
20
-112.458
11
93.3343
21
-112.458
0
LINE
8
BLACK
6
CONTINUOUS
10
93.3343
20
-112.458
11
93.3343
21
-112.458
0
LINE
8
BLACK
6
CONTINUOUS
10
93.3343
20
-112.458
11
93.337
21
-112.458
0
LINE
8
BLACK
6
CONTINUOUS
10
93.337
20
-112.458
11
93.3391
21
-112.457
0
LINE
8
BLACK
6
CONTINUOUS
10
93.3391
20
-112.457
11
93.3391
21
-112.457
0
LINE
8
BLACK
6
CONTINUOUS
10
93.3391
20
-112.457
11
93.3391
21
-112.457
0
LINE
8
BLACK
6
CONTINUOUS
10
93.3391
20
-112.457
11
93.342
21
-112.458
0
LINE
8
BLACK
6
CONTINUOUS
10
95.9796
20
-112.457
11
95.9803
21
-112.457
0
LINE
8
BLACK
6
CONTINUOUS
10
95.9803
20
-112.457
11
95.9811
21
-112.457
0
LINE
8
BLACK
6
CONTINUOUS
10
95.9811
20
-112.457
11
95.9827
21
-112.458
0
LINE
8
BLACK
6
CONTINUOUS
10
95.9827
20
-112.458
11
95.9844
21
-112.458
0
LINE
8
BLACK
6
CONTINUOUS
10
95.9844
20
-112.458
11
95.9851
21
-112.458
0
LINE
8
BLACK
6
CONTINUOUS
10
95.9851
20
-112.458
11
95.9859
21
-112.458
0
LINE
8
BLACK
6
CONTINUOUS
10
95.9859
20
-112.458
11
95.9875
21
-112.459
0
LINE
8
BLACK
6
CONTINUOUS
10
95.9875
20
-112.459
11
95.9891
21
-112.459
0
LINE
8
BLACK
6
CONTINUOUS
10
95.9891
20
-112.459
11
95.9897
21
-112.46
0
LINE
8
BLACK
6
CONTINUOUS
10
95.9897
20
-112.46
11
95.9904
21
-112.46
0
LINE
8
BLACK
6
CONTINUOUS
10
95.9904
20
-112.46
11
96.0857
21
-112.508
0
LINE
8
BLACK
6
CONTINUOUS
10
96.0857
20
-112.508
11
96.086
21
-112.508
0
LINE
8
BLACK
6
CONTINUOUS
10
96.086
20
-112.508
11
96.0872
21
-112.509
0
LINE
8
BLACK
6
CONTINUOUS
10
96.0872
20
-112.509
11
96.0884
21
-112.509
0
LINE
8
BLACK
6
CONTINUOUS
10
96.0884
20
-112.509
11
96.0892
21
-112.51
0
LINE
8
BLACK
6
CONTINUOUS
10
96.0892
20
-112.51
11
96.0901
21
-112.51
0
LINE
8
BLACK
6
CONTINUOUS
10
96.0901
20
-112.51
11
96.0911
21
-112.511
0
LINE
8
BLACK
6
CONTINUOUS
10
96.0911
20
-112.511
11
96.0922
21
-112.512
0
LINE
8
BLACK
6
CONTINUOUS
10
96.0922
20
-112.512
11
96.1398
21
-112.56
0
LINE
8
BLACK
6
CONTINUOUS
10
96.1398
20
-112.56
11
96.14
21
-112.56
0
LINE
8
BLACK
6
CONTINUOUS
10
96.14
20
-112.56
11
96.1409
21
-112.561
0
LINE
8
BLACK
6
CONTINUOUS
10
96.1409
20
-112.561
11
96.1419
21
-112.562
0
LINE
8
BLACK
6
CONTINUOUS
10
96.1419
20
-112.562
11
96.1424
21
-112.563
0
LINE
8
BLACK
6
CONTINUOUS
10
96.1424
20
-112.563
11
96.1431
21
-112.564
0
LINE
8
BLACK
6
CONTINUOUS
10
96.1431
20
-112.564
11
96.1437
21
-112.565
0
LINE
8
BLACK
6
CONTINUOUS
10
96.1437
20
-112.565
11
96.1445
21
-112.566
0
LINE
8
BLACK
6
CONTINUOUS
10
96.1445
20
-112.566
11
96.1921
21
-112.662
0
LINE
8
BLACK
6
CONTINUOUS
10
96.1921
20
-112.662
11
96.1922
21
-112.662
0
LINE
8
BLACK
6
CONTINUOUS
10
96.1922
20
-112.662
11
96.1925
21
-112.663
0
LINE
8
BLACK
6
CONTINUOUS
10
96.1925
20
-112.663
11
96.1928
21
-112.663
0
LINE
8
BLACK
6
CONTINUOUS
10
96.1928
20
-112.663
11
96.1933
21
-112.665
0
LINE
8
BLACK
6
CONTINUOUS
10
96.1933
20
-112.665
11
96.1939
21
-112.667
0
LINE
8
BLACK
6
CONTINUOUS
10
96.1939
20
-112.667
11
96.194
21
-112.667
0
LINE
8
BLACK
6
CONTINUOUS
10
96.194
20
-112.667
11
96.1942
21
-112.668
0
LINE
8
BLACK
6
CONTINUOUS
10
96.1942
20
-112.668
11
96.1944
21
-112.67
0
LINE
8
BLACK
6
CONTINUOUS
10
96.1944
20
-112.67
11
96.1947
21
-112.671
0
LINE
8
BLACK
6
CONTINUOUS
10
96.1947
20
-112.671
11
96.1946
21
-112.672
0
LINE
8
BLACK
6
CONTINUOUS
10
96.1946
20
-112.672
11
96.1947
21
-112.673
0
LINE
8
BLACK
6
CONTINUOUS
10
96.1947
20
-112.673
11
96.1947
21
-112.768
0
LINE
8
BLACK
6
CONTINUOUS
10
96.1947
20
-112.768
11
96.1947
21
-112.768
0
LINE
8
BLACK
6
CONTINUOUS
10
96.1947
20
-112.768
11
96.1946
21
-112.77
0
LINE
8
BLACK
6
CONTINUOUS
10
96.1946
20
-112.77
11
96.1945
21
-112.771
0
LINE
8
BLACK
6
CONTINUOUS
10
96.1945
20
-112.771
11
96.1943
21
-112.772
0
LINE
8
BLACK
6
CONTINUOUS
10
96.1943
20
-112.772
11
96.1942
21
-112.773
0
LINE
8
BLACK
6
CONTINUOUS
10
96.1942
20
-112.773
11
96.1937
21
-112.775
0
LINE
8
BLACK
6
CONTINUOUS
10
96.1937
20
-112.775
11
96.1934
21
-112.776
0
LINE
8
BLACK
6
CONTINUOUS
10
96.1934
20
-112.776
11
96.1458
21
-112.919
0
LINE
8
BLACK
6
CONTINUOUS
10
96.1458
20
-112.919
11
96.1457
21
-112.919
0
LINE
8
BLACK
6
CONTINUOUS
10
96.1457
20
-112.919
11
96.1454
21
-112.92
0
LINE
8
BLACK
6
CONTINUOUS
10
96.1454
20
-112.92
11
96.1452
21
-112.921
0
LINE
8
BLACK
6
CONTINUOUS
10
96.1452
20
-112.921
11
96.1444
21
-112.922
0
LINE
8
BLACK
6
CONTINUOUS
10
96.1444
20
-112.922
11
96.1437
21
-112.924
0
LINE
8
BLACK
6
CONTINUOUS
10
96.1437
20
-112.924
11
96.1432
21
-112.924
0
LINE
8
BLACK
6
CONTINUOUS
10
96.1432
20
-112.924
11
96.1429
21
-112.925
0
LINE
8
BLACK
6
CONTINUOUS
10
96.1429
20
-112.925
11
96.1418
21
-112.926
0
LINE
8
BLACK
6
CONTINUOUS
10
96.1418
20
-112.926
11
96.1408
21
-112.928
0
LINE
8
BLACK
6
CONTINUOUS
10
96.1408
20
-112.928
11
96.1402
21
-112.928
0
LINE
8
BLACK
6
CONTINUOUS
10
96.1402
20
-112.928
11
96.1398
21
-112.929
0
LINE
8
BLACK
6
CONTINUOUS
10
96.1398
20
-112.929
11
95.611
21
-113.457
0
LINE
8
BLACK
6
CONTINUOUS
10
95.611
20
-113.457
11
96.1697
21
-113.457
0
LINE
8
BLACK
6
CONTINUOUS
10
96.1697
20
-113.457
11
96.1701
21
-113.457
0
LINE
8
BLACK
6
CONTINUOUS
10
96.1701
20
-113.457
11
96.1749
21
-113.458
0
LINE
8
BLACK
6
CONTINUOUS
10
96.1749
20
-113.458
11
96.1796
21
-113.459
0
LINE
8
BLACK
6
CONTINUOUS
10
96.1796
20
-113.459
11
96.1838
21
-113.462
0
LINE
8
BLACK
6
CONTINUOUS
10
96.1838
20
-113.462
11
96.1876
21
-113.465
0
LINE
8
BLACK
6
CONTINUOUS
10
96.1876
20
-113.465
11
96.1906
21
-113.469
0
LINE
8
BLACK
6
CONTINUOUS
10
96.1906
20
-113.469
11
96.1929
21
-113.473
0
LINE
8
BLACK
6
CONTINUOUS
10
96.1929
20
-113.473
11
96.1943
21
-113.478
0
LINE
8
BLACK
6
CONTINUOUS
10
96.1943
20
-113.478
11
96.1947
21
-113.483
0
LINE
8
BLACK
6
CONTINUOUS
10
96.1947
20
-113.483
11
96.1942
21
-113.487
0
LINE
8
BLACK
6
CONTINUOUS
10
96.1942
20
-113.487
11
96.1928
21
-113.492
0
LINE
8
BLACK
6
CONTINUOUS
10
96.1928
20
-113.492
11
96.1904
21
-113.496
0
LINE
8
BLACK
6
CONTINUOUS
10
96.1904
20
-113.496
11
96.1873
21
-113.5
0
LINE
8
BLACK
6
CONTINUOUS
10
96.1873
20
-113.5
11
96.1836
21
-113.503
0
LINE
8
BLACK
6
CONTINUOUS
10
96.1836
20
-113.503
11
96.1792
21
-113.505
0
LINE
8
BLACK
6
CONTINUOUS
10
96.1792
20
-113.505
11
96.1746
21
-113.507
0
LINE
8
BLACK
6
CONTINUOUS
10
96.1746
20
-113.507
11
96.1697
21
-113.507
0
LINE
8
BLACK
6
CONTINUOUS
10
96.1697
20
-113.507
11
95.5507
21
-113.507
0
LINE
8
BLACK
6
CONTINUOUS
10
95.5507
20
-113.507
11
95.5504
21
-113.507
0
LINE
8
BLACK
6
CONTINUOUS
10
95.5504
20
-113.507
11
95.5504
21
-113.507
0
LINE
8
BLACK
6
CONTINUOUS
10
95.5504
20
-113.507
11
95.5504
21
-113.507
0
LINE
8
BLACK
6
CONTINUOUS
10
95.5504
20
-113.507
11
95.5503
21
-113.507
0
LINE
8
BLACK
6
CONTINUOUS
10
95.5503
20
-113.507
11
95.5479
21
-113.507
0
LINE
8
BLACK
6
CONTINUOUS
10
95.5479
20
-113.507
11
95.5456
21
-113.507
0
LINE
8
BLACK
6
CONTINUOUS
10
95.5456
20
-113.507
11
95.5455
21
-113.507
0
LINE
8
BLACK
6
CONTINUOUS
10
95.5455
20
-113.507
11
95.5455
21
-113.507
0
LINE
8
BLACK
6
CONTINUOUS
10
95.5455
20
-113.507
11
95.5433
21
-113.506
0
LINE
8
BLACK
6
CONTINUOUS
10
95.5433
20
-113.506
11
95.5409
21
-113.505
0
LINE
8
BLACK
6
CONTINUOUS
10
95.5409
20
-113.505
11
95.5409
21
-113.505
0
LINE
8
BLACK
6
CONTINUOUS
10
95.5409
20
-113.505
11
95.5408
21
-113.505
0
LINE
8
BLACK
6
CONTINUOUS
10
95.5408
20
-113.505
11
95.5388
21
-113.504
0
LINE
8
BLACK
6
CONTINUOUS
10
95.5388
20
-113.504
11
95.5366
21
-113.503
0
LINE
8
BLACK
6
CONTINUOUS
10
95.5366
20
-113.503
11
95.5366
21
-113.503
0
LINE
8
BLACK
6
CONTINUOUS
10
95.5366
20
-113.503
11
95.5365
21
-113.503
0
LINE
8
BLACK
6
CONTINUOUS
10
95.5365
20
-113.503
11
95.5346
21
-113.501
0
LINE
8
BLACK
6
CONTINUOUS
10
95.5346
20
-113.501
11
95.5329
21
-113.5
0
LINE
8
BLACK
6
CONTINUOUS
10
95.5329
20
-113.5
11
95.5328
21
-113.5
0
LINE
8
BLACK
6
CONTINUOUS
10
95.5328
20
-113.5
11
95.5328
21
-113.5
0
LINE
8
BLACK
6
CONTINUOUS
10
95.5328
20
-113.5
11
95.5312
21
-113.498
0
LINE
8
BLACK
6
CONTINUOUS
10
95.5312
20
-113.498
11
95.5298
21
-113.496
0
LINE
8
BLACK
6
CONTINUOUS
10
95.5298
20
-113.496
11
95.5298
21
-113.496
0
LINE
8
BLACK
6
CONTINUOUS
10
95.5298
20
-113.496
11
95.5298
21
-113.496
0
LINE
8
BLACK
6
CONTINUOUS
10
95.5298
20
-113.496
11
95.5286
21
-113.494
0
LINE
8
BLACK
6
CONTINUOUS
10
95.5286
20
-113.494
11
95.5275
21
-113.492
0
LINE
8
BLACK
6
CONTINUOUS
10
95.5275
20
-113.492
11
95.5275
21
-113.492
0
LINE
8
BLACK
6
CONTINUOUS
10
95.5275
20
-113.492
11
95.5275
21
-113.492
0
LINE
8
BLACK
6
CONTINUOUS
10
95.5275
20
-113.492
11
95.5268
21
-113.489
0
LINE
8
BLACK
6
CONTINUOUS
10
95.5268
20
-113.489
11
95.5261
21
-113.487
0
LINE
8
BLACK
6
CONTINUOUS
10
95.5261
20
-113.487
11
95.5261
21
-113.487
0
LINE
8
BLACK
6
CONTINUOUS
10
95.5261
20
-113.487
11
95.5261
21
-113.487
0
LINE
8
BLACK
6
CONTINUOUS
10
95.5261
20
-113.487
11
95.5259
21
-113.485
0
LINE
8
BLACK
6
CONTINUOUS
10
95.5259
20
-113.485
11
95.5257
21
-113.482
0
LINE
8
BLACK
6
CONTINUOUS
10
95.5257
20
-113.482
11
95.5257
21
-113.482
0
LINE
8
BLACK
6
CONTINUOUS
10
95.5257
20
-113.482
11
95.5257
21
-113.482
0
LINE
8
BLACK
6
CONTINUOUS
10
95.5257
20
-113.482
11
95.5259
21
-113.48
0
LINE
8
BLACK
6
CONTINUOUS
10
95.5259
20
-113.48
11
95.5262
21
-113.477
0
LINE
8
BLACK
6
CONTINUOUS
10
95.5262
20
-113.477
11
95.5262
21
-113.477
0
LINE
8
BLACK
6
CONTINUOUS
10
95.5262
20
-113.477
11
95.5262
21
-113.477
0
LINE
8
BLACK
6
CONTINUOUS
10
95.5262
20
-113.477
11
95.5269
21
-113.475
0
LINE
8
BLACK
6
CONTINUOUS
10
95.5269
20
-113.475
11
95.5276
21
-113.473
0
LINE
8
BLACK
6
CONTINUOUS
10
95.5276
20
-113.473
11
95.5276
21
-113.473
0
LINE
8
BLACK
6
CONTINUOUS
10
95.5276
20
-113.473
11
95.5276
21
-113.473
0
LINE
8
BLACK
6
CONTINUOUS
10
95.5276
20
-113.473
11
95.5288
21
-113.471
0
LINE
8
BLACK
6
CONTINUOUS
10
95.5288
20
-113.471
11
95.5299
21
-113.468
0
LINE
8
BLACK
6
CONTINUOUS
10
95.5299
20
-113.468
11
95.5299
21
-113.468
0
LINE
8
BLACK
6
CONTINUOUS
10
95.5299
20
-113.468
11
95.5299
21
-113.468
0
LINE
8
BLACK
6
CONTINUOUS
10
95.5299
20
-113.468
11
95.5314
21
-113.467
0
LINE
8
BLACK
6
CONTINUOUS
10
95.5314
20
-113.467
11
95.533
21
-113.465
0
LINE
8
BLACK
6
CONTINUOUS
10
95.533
20
-113.465
11
96.1003
21
-112.897
0
LINE
8
BLACK
6
CONTINUOUS
10
96.1003
20
-112.897
11
96.1447
21
-112.764
0
LINE
8
BLACK
6
CONTINUOUS
10
96.1447
20
-112.764
11
96.1447
21
-112.679
0
LINE
8
BLACK
6
CONTINUOUS
10
96.1447
20
-112.679
11
96.1016
21
-112.592
0
LINE
8
BLACK
6
CONTINUOUS
10
96.1016
20
-112.592
11
96.0597
21
-112.551
0
LINE
8
BLACK
6
CONTINUOUS
10
96.0597
20
-112.551
11
95.9733
21
-112.507
0
LINE
8
BLACK
6
CONTINUOUS
10
95.9733
20
-112.507
11
95.7471
21
-112.507
0
LINE
8
BLACK
6
CONTINUOUS
10
95.7471
20
-112.507
11
95.6607
21
-112.551
0
LINE
8
BLACK
6
CONTINUOUS
10
95.6607
20
-112.551
11
95.616
21
-112.595
0
LINE
8
BLACK
6
CONTINUOUS
10
95.616
20
-112.595
11
95.6157
21
-112.596
0
LINE
8
BLACK
6
CONTINUOUS
10
95.6157
20
-112.596
11
95.6119
21
-112.599
0
LINE
8
BLACK
6
CONTINUOUS
10
95.6119
20
-112.599
11
95.6076
21
-112.601
0
LINE
8
BLACK
6
CONTINUOUS
10
95.6076
20
-112.601
11
95.6029
21
-112.602
0
LINE
8
BLACK
6
CONTINUOUS
10
95.6029
20
-112.602
11
95.598
21
-112.603
0
LINE
8
BLACK
6
CONTINUOUS
10
95.598
20
-112.603
11
95.5932
21
-112.602
0
LINE
8
BLACK
6
CONTINUOUS
10
95.5932
20
-112.602
11
95.5885
21
-112.601
0
LINE
8
BLACK
6
CONTINUOUS
10
95.5885
20
-112.601
11
95.5842
21
-112.598
0
LINE
8
BLACK
6
CONTINUOUS
10
95.5842
20
-112.598
11
95.5805
21
-112.595
0
LINE
8
BLACK
6
CONTINUOUS
10
95.5805
20
-112.595
11
95.5774
21
-112.591
0
LINE
8
BLACK
6
CONTINUOUS
10
95.5774
20
-112.591
11
95.5751
21
-112.587
0
LINE
8
BLACK
6
CONTINUOUS
10
95.5751
20
-112.587
11
95.5738
21
-112.582
0
LINE
8
BLACK
6
CONTINUOUS
10
95.5738
20
-112.582
11
95.5733
21
-112.578
0
LINE
8
BLACK
6
CONTINUOUS
10
95.5733
20
-112.578
11
95.5738
21
-112.573
0
LINE
8
BLACK
6
CONTINUOUS
10
95.5738
20
-112.573
11
95.5752
21
-112.568
0
LINE
8
BLACK
6
CONTINUOUS
10
95.5752
20
-112.568
11
95.5775
21
-112.564
0
LINE
8
BLACK
6
CONTINUOUS
10
95.5775
20
-112.564
11
95.5806
21
-112.56
0
LINE
8
BLACK
6
CONTINUOUS
10
95.5806
20
-112.56
11
95.6282
21
-112.512
0
LINE
8
BLACK
6
CONTINUOUS
10
95.6282
20
-112.512
11
95.6285
21
-112.512
0
LINE
8
BLACK
6
CONTINUOUS
10
95.6285
20
-112.512
11
95.6296
21
-112.511
0
LINE
8
BLACK
6
CONTINUOUS
10
95.6296
20
-112.511
11
95.6306
21
-112.51
0
LINE
8
BLACK
6
CONTINUOUS
10
95.6306
20
-112.51
11
95.6315
21
-112.51
0
LINE
8
BLACK
6
CONTINUOUS
10
95.6315
20
-112.51
11
95.6323
21
-112.509
0
LINE
8
BLACK
6
CONTINUOUS
10
95.6323
20
-112.509
11
95.6335
21
-112.508
0
LINE
8
BLACK
6
CONTINUOUS
10
95.6335
20
-112.508
11
95.6347
21
-112.508
0
LINE
8
BLACK
6
CONTINUOUS
10
95.6347
20
-112.508
11
95.73
21
-112.46
0
LINE
8
BLACK
6
CONTINUOUS
10
95.73
20
-112.46
11
95.7303
21
-112.46
0
LINE
8
BLACK
6
CONTINUOUS
10
95.7303
20
-112.46
11
95.731
21
-112.46
0
LINE
8
BLACK
6
CONTINUOUS
10
95.731
20
-112.46
11
95.7316
21
-112.459
0
LINE
8
BLACK
6
CONTINUOUS
10
95.7316
20
-112.459
11
95.7333
21
-112.459
0
LINE
8
BLACK
6
CONTINUOUS
10
95.7333
20
-112.459
11
95.7349
21
-112.458
0
LINE
8
BLACK
6
CONTINUOUS
10
95.7349
20
-112.458
11
95.7356
21
-112.458
0
LINE
8
BLACK
6
CONTINUOUS
10
95.7356
20
-112.458
11
95.7363
21
-112.458
0
LINE
8
BLACK
6
CONTINUOUS
10
95.7363
20
-112.458
11
95.738
21
-112.458
0
LINE
8
BLACK
6
CONTINUOUS
10
95.738
20
-112.458
11
95.7397
21
-112.457
0
LINE
8
BLACK
6
CONTINUOUS
10
95.7397
20
-112.457
11
95.7404
21
-112.457
0
LINE
8
BLACK
6
CONTINUOUS
10
95.7404
20
-112.457
11
95.7411
21
-112.457
0
LINE
8
BLACK
6
CONTINUOUS
10
95.7411
20
-112.457
11
95.9792
21
-112.457
0
LINE
8
BLACK
6
CONTINUOUS
10
95.9792
20
-112.457
11
95.9796
21
-112.457
0
LINE
8
BLACK
6
CONTINUOUS
10
98.7115
20
-112.457
11
98.7131
21
-112.458
0
LINE
8
BLACK
6
CONTINUOUS
10
98.7131
20
-112.458
11
98.7146
21
-112.458
0
LINE
8
BLACK
6
CONTINUOUS
10
98.7146
20
-112.458
11
98.7155
21
-112.458
0
LINE
8
BLACK
6
CONTINUOUS
10
98.7155
20
-112.458
11
98.7163
21
-112.458
0
LINE
8
BLACK
6
CONTINUOUS
10
98.7163
20
-112.458
11
98.7178
21
-112.458
0
LINE
8
BLACK
6
CONTINUOUS
10
98.7178
20
-112.458
11
98.7193
21
-112.459
0
LINE
8
BLACK
6
CONTINUOUS
10
98.7193
20
-112.459
11
98.7201
21
-112.459
0
LINE
8
BLACK
6
CONTINUOUS
10
98.7201
20
-112.459
11
98.721
21
-112.459
0
LINE
8
BLACK
6
CONTINUOUS
10
98.721
20
-112.459
11
98.7224
21
-112.46
0
LINE
8
BLACK
6
CONTINUOUS
10
98.7224
20
-112.46
11
98.7238
21
-112.461
0
LINE
8
BLACK
6
CONTINUOUS
10
98.7238
20
-112.461
11
98.7245
21
-112.461
0
LINE
8
BLACK
6
CONTINUOUS
10
98.7245
20
-112.461
11
98.7253
21
-112.462
0
LINE
8
BLACK
6
CONTINUOUS
10
98.7253
20
-112.462
11
98.7265
21
-112.463
0
LINE
8
BLACK
6
CONTINUOUS
10
98.7265
20
-112.463
11
98.7277
21
-112.464
0
LINE
8
BLACK
6
CONTINUOUS
10
98.7277
20
-112.464
11
98.7283
21
-112.464
0
LINE
8
BLACK
6
CONTINUOUS
10
98.7283
20
-112.464
11
98.729
21
-112.465
0
LINE
8
BLACK
6
CONTINUOUS
10
98.729
20
-112.465
11
98.73
21
-112.466
0
LINE
8
BLACK
6
CONTINUOUS
10
98.73
20
-112.466
11
98.731
21
-112.467
0
LINE
8
BLACK
6
CONTINUOUS
10
98.731
20
-112.467
11
98.7315
21
-112.468
0
LINE
8
BLACK
6
CONTINUOUS
10
98.7315
20
-112.468
11
98.7321
21
-112.469
0
LINE
8
BLACK
6
CONTINUOUS
10
98.7321
20
-112.469
11
98.7328
21
-112.47
0
LINE
8
BLACK
6
CONTINUOUS
10
98.7328
20
-112.47
11
98.7336
21
-112.471
0
LINE
8
BLACK
6
CONTINUOUS
10
98.7336
20
-112.471
11
98.7339
21
-112.472
0
LINE
8
BLACK
6
CONTINUOUS
10
98.7339
20
-112.472
11
98.7343
21
-112.473
0
LINE
8
BLACK
6
CONTINUOUS
10
98.7343
20
-112.473
11
98.7348
21
-112.475
0
LINE
8
BLACK
6
CONTINUOUS
10
98.7348
20
-112.475
11
98.7353
21
-112.476
0
LINE
8
BLACK
6
CONTINUOUS
10
98.7353
20
-112.476
11
98.7354
21
-112.477
0
LINE
8
BLACK
6
CONTINUOUS
10
98.7354
20
-112.477
11
98.7357
21
-112.478
0
LINE
8
BLACK
6
CONTINUOUS
10
98.7357
20
-112.478
11
98.7358
21
-112.479
0
LINE
8
BLACK
6
CONTINUOUS
10
98.7358
20
-112.479
11
98.7361
21
-112.481
0
LINE
8
BLACK
6
CONTINUOUS
10
98.7361
20
-112.481
11
98.7361
21
-112.482
0
LINE
8
BLACK
6
CONTINUOUS
10
98.7361
20
-112.482
11
98.7361
21
-112.483
0
LINE
8
BLACK
6
CONTINUOUS
10
98.7361
20
-112.483
11
98.736
21
-112.484
0
LINE
8
BLACK
6
CONTINUOUS
10
98.736
20
-112.484
11
98.7359
21
-112.486
0
LINE
8
BLACK
6
CONTINUOUS
10
98.7359
20
-112.486
11
98.7357
21
-112.487
0
LINE
8
BLACK
6
CONTINUOUS
10
98.7357
20
-112.487
11
98.7356
21
-112.487
0
LINE
8
BLACK
6
CONTINUOUS
10
98.7356
20
-112.487
11
98.7352
21
-112.489
0
LINE
8
BLACK
6
CONTINUOUS
10
98.7352
20
-112.489
11
98.7348
21
-112.49
0
LINE
8
BLACK
6
CONTINUOUS
10
98.7348
20
-112.49
11
98.7344
21
-112.491
0
LINE
8
BLACK
6
CONTINUOUS
10
98.7344
20
-112.491
11
98.7342
21
-112.492
0
LINE
8
BLACK
6
CONTINUOUS
10
98.7342
20
-112.492
11
98.7334
21
-112.493
0
LINE
8
BLACK
6
CONTINUOUS
10
98.7334
20
-112.493
11
98.7328
21
-112.495
0
LINE
8
BLACK
6
CONTINUOUS
10
98.7328
20
-112.495
11
98.7323
21
-112.496
0
LINE
8
BLACK
6
CONTINUOUS
10
98.7323
20
-112.496
11
98.7319
21
-112.496
0
LINE
8
BLACK
6
CONTINUOUS
10
98.7319
20
-112.496
11
98.7309
21
-112.498
0
LINE
8
BLACK
6
CONTINUOUS
10
98.7309
20
-112.498
11
98.7299
21
-112.499
0
LINE
8
BLACK
6
CONTINUOUS
10
98.7299
20
-112.499
11
98.4329
21
-112.838
0
LINE
8
BLACK
6
CONTINUOUS
10
98.4329
20
-112.838
11
98.5207
21
-112.838
0
LINE
8
BLACK
6
CONTINUOUS
10
98.5207
20
-112.838
11
98.521
21
-112.838
0
LINE
8
BLACK
6
CONTINUOUS
10
98.521
20
-112.838
11
98.5217
21
-112.838
0
LINE
8
BLACK
6
CONTINUOUS
10
98.5217
20
-112.838
11
98.5225
21
-112.838
0
LINE
8
BLACK
6
CONTINUOUS
10
98.5225
20
-112.838
11
98.5242
21
-112.839
0
LINE
8
BLACK
6
CONTINUOUS
10
98.5242
20
-112.839
11
98.5259
21
-112.839
0
LINE
8
BLACK
6
CONTINUOUS
10
98.5259
20
-112.839
11
98.5266
21
-112.839
0
LINE
8
BLACK
6
CONTINUOUS
10
98.5266
20
-112.839
11
98.5273
21
-112.839
0
LINE
8
BLACK
6
CONTINUOUS
10
98.5273
20
-112.839
11
98.5289
21
-112.84
0
LINE
8
BLACK
6
CONTINUOUS
10
98.5289
20
-112.84
11
98.5305
21
-112.84
0
LINE
8
BLACK
6
CONTINUOUS
10
98.5305
20
-112.84
11
98.5311
21
-112.841
0
LINE
8
BLACK
6
CONTINUOUS
10
98.5311
20
-112.841
11
98.5318
21
-112.841
0
LINE
8
BLACK
6
CONTINUOUS
10
98.5318
20
-112.841
11
98.6271
21
-112.889
0
LINE
8
BLACK
6
CONTINUOUS
10
98.6271
20
-112.889
11
98.6274
21
-112.889
0
LINE
8
BLACK
6
CONTINUOUS
10
98.6274
20
-112.889
11
98.6286
21
-112.89
0
LINE
8
BLACK
6
CONTINUOUS
10
98.6286
20
-112.89
11
98.6298
21
-112.89
0
LINE
8
BLACK
6
CONTINUOUS
10
98.6298
20
-112.89
11
98.6306
21
-112.891
0
LINE
8
BLACK
6
CONTINUOUS
10
98.6306
20
-112.891
11
98.6315
21
-112.891
0
LINE
8
BLACK
6
CONTINUOUS
10
98.6315
20
-112.891
11
98.6325
21
-112.892
0
LINE
8
BLACK
6
CONTINUOUS
10
98.6325
20
-112.892
11
98.6336
21
-112.893
0
LINE
8
BLACK
6
CONTINUOUS
10
98.6336
20
-112.893
11
98.6812
21
-112.941
0
LINE
8
BLACK
6
CONTINUOUS
10
98.6812
20
-112.941
11
98.6814
21
-112.941
0
LINE
8
BLACK
6
CONTINUOUS
10
98.6814
20
-112.941
11
98.6823
21
-112.942
0
LINE
8
BLACK
6
CONTINUOUS
10
98.6823
20
-112.942
11
98.6833
21
-112.943
0
LINE
8
BLACK
6
CONTINUOUS
10
98.6833
20
-112.943
11
98.6838
21
-112.944
0
LINE
8
BLACK
6
CONTINUOUS
10
98.6838
20
-112.944
11
98.6845
21
-112.945
0
LINE
8
BLACK
6
CONTINUOUS
10
98.6845
20
-112.945
11
98.6851
21
-112.946
0
LINE
8
BLACK
6
CONTINUOUS
10
98.6851
20
-112.946
11
98.6859
21
-112.947
0
LINE
8
BLACK
6
CONTINUOUS
10
98.6859
20
-112.947
11
98.7335
21
-113.043
0
LINE
8
BLACK
6
CONTINUOUS
10
98.7335
20
-113.043
11
98.7336
21
-113.043
0
LINE
8
BLACK
6
CONTINUOUS
10
98.7336
20
-113.043
11
98.7339
21
-113.044
0
LINE
8
BLACK
6
CONTINUOUS
10
98.7339
20
-113.044
11
98.7342
21
-113.044
0
LINE
8
BLACK
6
CONTINUOUS
10
98.7342
20
-113.044
11
98.7347
21
-113.046
0
LINE
8
BLACK
6
CONTINUOUS
10
98.7347
20
-113.046
11
98.7353
21
-113.048
0
LINE
8
BLACK
6
CONTINUOUS
10
98.7353
20
-113.048
11
98.7354
21
-113.048
0
LINE
8
BLACK
6
CONTINUOUS
10
98.7354
20
-113.048
11
98.7357
21
-113.049
0
LINE
8
BLACK
6
CONTINUOUS
10
98.7357
20
-113.049
11
98.7358
21
-113.051
0
LINE
8
BLACK
6
CONTINUOUS
10
98.7358
20
-113.051
11
98.7361
21
-113.052
0
LINE
8
BLACK
6
CONTINUOUS
10
98.7361
20
-113.052
11
98.7361
21
-113.053
0
LINE
8
BLACK
6
CONTINUOUS
10
98.7361
20
-113.053
11
98.7361
21
-113.054
0
LINE
8
BLACK
6
CONTINUOUS
10
98.7361
20
-113.054
11
98.7361
21
-113.292
0
LINE
8
BLACK
6
CONTINUOUS
10
98.7361
20
-113.292
11
98.7361
21
-113.292
0
LINE
8
BLACK
6
CONTINUOUS
10
98.7361
20
-113.292
11
98.736
21
-113.293
0
LINE
8
BLACK
6
CONTINUOUS
10
98.736
20
-113.293
11
98.7361
21
-113.294
0
LINE
8
BLACK
6
CONTINUOUS
10
98.7361
20
-113.294
11
98.7358
21
-113.295
0
LINE
8
BLACK
6
CONTINUOUS
10
98.7358
20
-113.295
11
98.7356
21
-113.297
0
LINE
8
BLACK
6
CONTINUOUS
10
98.7356
20
-113.297
11
98.7354
21
-113.298
0
LINE
8
BLACK
6
CONTINUOUS
10
98.7354
20
-113.298
11
98.7352
21
-113.299
0
LINE
8
BLACK
6
CONTINUOUS
10
98.7352
20
-113.299
11
98.7346
21
-113.3
0
LINE
8
BLACK
6
CONTINUOUS
10
98.7346
20
-113.3
11
98.7341
21
-113.302
0
LINE
8
BLACK
6
CONTINUOUS
10
98.7341
20
-113.302
11
98.7338
21
-113.302
0
LINE
8
BLACK
6
CONTINUOUS
10
98.7338
20
-113.302
11
98.7335
21
-113.303
0
LINE
8
BLACK
6
CONTINUOUS
10
98.7335
20
-113.303
11
98.6859
21
-113.398
0
LINE
8
BLACK
6
CONTINUOUS
10
98.6859
20
-113.398
11
98.6857
21
-113.399
0
LINE
8
BLACK
6
CONTINUOUS
10
98.6857
20
-113.399
11
98.6849
21
-113.4
0
LINE
8
BLACK
6
CONTINUOUS
10
98.6849
20
-113.4
11
98.6843
21
-113.401
0
LINE
8
BLACK
6
CONTINUOUS
10
98.6843
20
-113.401
11
98.6836
21
-113.402
0
LINE
8
BLACK
6
CONTINUOUS
10
98.6836
20
-113.402
11
98.6831
21
-113.403
0
LINE
8
BLACK
6
CONTINUOUS
10
98.6831
20
-113.403
11
98.6821
21
-113.404
0
LINE
8
BLACK
6
CONTINUOUS
10
98.6821
20
-113.404
11
98.6812
21
-113.405
0
LINE
8
BLACK
6
CONTINUOUS
10
98.6812
20
-113.405
11
98.6336
21
-113.452
0
LINE
8
BLACK
6
CONTINUOUS
10
98.6336
20
-113.452
11
98.6333
21
-113.453
0
LINE
8
BLACK
6
CONTINUOUS
10
98.6333
20
-113.453
11
98.6322
21
-113.454
0
LINE
8
BLACK
6
CONTINUOUS
10
98.6322
20
-113.454
11
98.6312
21
-113.455
0
LINE
8
BLACK
6
CONTINUOUS
10
98.6312
20
-113.455
11
98.6303
21
-113.455
0
LINE
8
BLACK
6
CONTINUOUS
10
98.6303
20
-113.455
11
98.6295
21
-113.456
0
LINE
8
BLACK
6
CONTINUOUS
10
98.6295
20
-113.456
11
98.6283
21
-113.456
0
LINE
8
BLACK
6
CONTINUOUS
10
98.6283
20
-113.456
11
98.6271
21
-113.457
0
LINE
8
BLACK
6
CONTINUOUS
10
98.6271
20
-113.457
11
98.5318
21
-113.505
0
LINE
8
BLACK
6
CONTINUOUS
10
98.5318
20
-113.505
11
98.5315
21
-113.505
0
LINE
8
BLACK
6
CONTINUOUS
10
98.5315
20
-113.505
11
98.5308
21
-113.505
0
LINE
8
BLACK
6
CONTINUOUS
10
98.5308
20
-113.505
11
98.5302
21
-113.505
0
LINE
8
BLACK
6
CONTINUOUS
10
98.5302
20
-113.505
11
98.5285
21
-113.506
0
LINE
8
BLACK
6
CONTINUOUS
10
98.5285
20
-113.506
11
98.5269
21
-113.507
0
LINE
8
BLACK
6
CONTINUOUS
10
98.5269
20
-113.507
11
98.5262
21
-113.507
0
LINE
8
BLACK
6
CONTINUOUS
10
98.5262
20
-113.507
11
98.5255
21
-113.507
0
LINE
8
BLACK
6
CONTINUOUS
10
98.5255
20
-113.507
11
98.5238
21
-113.507
0
LINE
8
BLACK
6
CONTINUOUS
10
98.5238
20
-113.507
11
98.5221
21
-113.507
0
LINE
8
BLACK
6
CONTINUOUS
10
98.5221
20
-113.507
11
98.5214
21
-113.507
0
LINE
8
BLACK
6
CONTINUOUS
10
98.5214
20
-113.507
11
98.5207
21
-113.507
0
LINE
8
BLACK
6
CONTINUOUS
10
98.5207
20
-113.507
11
98.2349
21
-113.507
0
LINE
8
BLACK
6
CONTINUOUS
10
98.2349
20
-113.507
11
98.2346
21
-113.507
0
LINE
8
BLACK
6
CONTINUOUS
10
98.2346
20
-113.507
11
98.2339
21
-113.507
0
LINE
8
BLACK
6
CONTINUOUS
10
98.2339
20
-113.507
11
98.2331
21
-113.507
0
LINE
8
BLACK
6
CONTINUOUS
10
98.2331
20
-113.507
11
98.2315
21
-113.507
0
LINE
8
BLACK
6
CONTINUOUS
10
98.2315
20
-113.507
11
98.2297
21
-113.507
0
LINE
8
BLACK
6
CONTINUOUS
10
98.2297
20
-113.507
11
98.229
21
-113.507
0
LINE
8
BLACK
6
CONTINUOUS
10
98.229
20
-113.507
11
98.2283
21
-113.506
0
LINE
8
BLACK
6
CONTINUOUS
10
98.2283
20
-113.506
11
98.2267
21
-113.506
0
LINE
8
BLACK
6
CONTINUOUS
10
98.2267
20
-113.506
11
98.2251
21
-113.505
0
LINE
8
BLACK
6
CONTINUOUS
10
98.2251
20
-113.505
11
98.2245
21
-113.505
0
LINE
8
BLACK
6
CONTINUOUS
10
98.2245
20
-113.505
11
98.2238
21
-113.505
0
LINE
8
BLACK
6
CONTINUOUS
10
98.2238
20
-113.505
11
98.1285
21
-113.457
0
LINE
8
BLACK
6
CONTINUOUS
10
98.1285
20
-113.457
11
98.1282
21
-113.457
0
LINE
8
BLACK
6
CONTINUOUS
10
98.1282
20
-113.457
11
98.127
21
-113.456
0
LINE
8
BLACK
6
CONTINUOUS
10
98.127
20
-113.456
11
98.1258
21
-113.456
0
LINE
8
BLACK
6
CONTINUOUS
10
98.1258
20
-113.456
11
98.125
21
-113.455
0
LINE
8
BLACK
6
CONTINUOUS
10
98.125
20
-113.455
11
98.1241
21
-113.454
0
LINE
8
BLACK
6
CONTINUOUS
10
98.1241
20
-113.454
11
98.1231
21
-113.453
0
LINE
8
BLACK
6
CONTINUOUS
10
98.1231
20
-113.453
11
98.122
21
-113.452
0
LINE
8
BLACK
6
CONTINUOUS
10
98.122
20
-113.452
11
98.0744
21
-113.405
0
LINE
8
BLACK
6
CONTINUOUS
10
98.0744
20
-113.405
11
98.0742
21
-113.405
0
LINE
8
BLACK
6
CONTINUOUS
10
98.0742
20
-113.405
11
98.0711
21
-113.401
0
LINE
8
BLACK
6
CONTINUOUS
10
98.0711
20
-113.401
11
98.0689
21
-113.396
0
LINE
8
BLACK
6
CONTINUOUS
10
98.0689
20
-113.396
11
98.0675
21
-113.392
0
LINE
8
BLACK
6
CONTINUOUS
10
98.0675
20
-113.392
11
98.0671
21
-113.387
0
LINE
8
BLACK
6
CONTINUOUS
10
98.0671
20
-113.387
11
98.0676
21
-113.382
0
LINE
8
BLACK
6
CONTINUOUS
10
98.0676
20
-113.382
11
98.0691
21
-113.377
0
LINE
8
BLACK
6
CONTINUOUS
10
98.0691
20
-113.377
11
98.0714
21
-113.373
0
LINE
8
BLACK
6
CONTINUOUS
10
98.0714
20
-113.373
11
98.0745
21
-113.369
0
LINE
8
BLACK
6
CONTINUOUS
10
98.0745
20
-113.369
11
98.0783
21
-113.366
0
LINE
8
BLACK
6
CONTINUOUS
10
98.0783
20
-113.366
11
98.0826
21
-113.364
0
LINE
8
BLACK
6
CONTINUOUS
10
98.0826
20
-113.364
11
98.0873
21
-113.363
0
LINE
8
BLACK
6
CONTINUOUS
10
98.0873
20
-113.363
11
98.0922
21
-113.362
0
LINE
8
BLACK
6
CONTINUOUS
10
98.0922
20
-113.362
11
98.097
21
-113.363
0
LINE
8
BLACK
6
CONTINUOUS
10
98.097
20
-113.363
11
98.1017
21
-113.364
0
LINE
8
BLACK
6
CONTINUOUS
10
98.1017
20
-113.364
11
98.106
21
-113.366
0
LINE
8
BLACK
6
CONTINUOUS
10
98.106
20
-113.366
11
98.1098
21
-113.369
0
LINE
8
BLACK
6
CONTINUOUS
10
98.1098
20
-113.369
11
98.1545
21
-113.414
0
LINE
8
BLACK
6
CONTINUOUS
10
98.1545
20
-113.414
11
98.2408
21
-113.457
0
LINE
8
BLACK
6
CONTINUOUS
10
98.2408
20
-113.457
11
98.5148
21
-113.457
0
LINE
8
BLACK
6
CONTINUOUS
10
98.5148
20
-113.457
11
98.6011
21
-113.414
0
LINE
8
BLACK
6
CONTINUOUS
10
98.6011
20
-113.414
11
98.643
21
-113.372
0
LINE
8
BLACK
6
CONTINUOUS
10
98.643
20
-113.372
11
98.6861
21
-113.286
0
LINE
8
BLACK
6
CONTINUOUS
10
98.6861
20
-113.286
11
98.6861
21
-113.06
0
LINE
8
BLACK
6
CONTINUOUS
10
98.6861
20
-113.06
11
98.643
21
-112.973
0
LINE
8
BLACK
6
CONTINUOUS
10
98.643
20
-112.973
11
98.6011
21
-112.931
0
LINE
8
BLACK
6
CONTINUOUS
10
98.6011
20
-112.931
11
98.5148
21
-112.888
0
LINE
8
BLACK
6
CONTINUOUS
10
98.5148
20
-112.888
11
98.3778
21
-112.888
0
LINE
8
BLACK
6
CONTINUOUS
10
98.3778
20
-112.888
11
98.3775
21
-112.888
0
LINE
8
BLACK
6
CONTINUOUS
10
98.3775
20
-112.888
11
98.3759
21
-112.888
0
LINE
8
BLACK
6
CONTINUOUS
10
98.3759
20
-112.888
11
98.3743
21
-112.888
0
LINE
8
BLACK
6
CONTINUOUS
10
98.3743
20
-112.888
11
98.3735
21
-112.888
0
LINE
8
BLACK
6
CONTINUOUS
10
98.3735
20
-112.888
11
98.3726
21
-112.888
0
LINE
8
BLACK
6
CONTINUOUS
10
98.3726
20
-112.888
11
98.3711
21
-112.887
0
LINE
8
BLACK
6
CONTINUOUS
10
98.3711
20
-112.887
11
98.3696
21
-112.887
0
LINE
8
BLACK
6
CONTINUOUS
10
98.3696
20
-112.887
11
98.3688
21
-112.887
0
LINE
8
BLACK
6
CONTINUOUS
10
98.3688
20
-112.887
11
98.368
21
-112.886
0
LINE
8
BLACK
6
CONTINUOUS
10
98.368
20
-112.886
11
98.3666
21
-112.886
0
LINE
8
BLACK
6
CONTINUOUS
10
98.3666
20
-112.886
11
98.3652
21
-112.885
0
LINE
8
BLACK
6
CONTINUOUS
10
98.3652
20
-112.885
11
98.3644
21
-112.884
0
LINE
8
BLACK
6
CONTINUOUS
10
98.3644
20
-112.884
11
98.3637
21
-112.884
0
LINE
8
BLACK
6
CONTINUOUS
10
98.3637
20
-112.884
11
98.3625
21
-112.883
0
LINE
8
BLACK
6
CONTINUOUS
10
98.3625
20
-112.883
11
98.3612
21
-112.882
0
LINE
8
BLACK
6
CONTINUOUS
10
98.3612
20
-112.882
11
98.3606
21
-112.881
0
LINE
8
BLACK
6
CONTINUOUS
10
98.3606
20
-112.881
11
98.3599
21
-112.881
0
LINE
8
BLACK
6
CONTINUOUS
10
98.3599
20
-112.881
11
98.359
21
-112.88
0
LINE
8
BLACK
6
CONTINUOUS
10
98.359
20
-112.88
11
98.3579
21
-112.878
0
LINE
8
BLACK
6
CONTINUOUS
10
98.3579
20
-112.878
11
98.3574
21
-112.878
0
LINE
8
BLACK
6
CONTINUOUS
10
98.3574
20
-112.878
11
98.3569
21
-112.877
0
LINE
8
BLACK
6
CONTINUOUS
10
98.3569
20
-112.877
11
98.3562
21
-112.876
0
LINE
8
BLACK
6
CONTINUOUS
10
98.3562
20
-112.876
11
98.3553
21
-112.874
0
LINE
8
BLACK
6
CONTINUOUS
10
98.3553
20
-112.874
11
98.355
21
-112.873
0
LINE
8
BLACK
6
CONTINUOUS
10
98.355
20
-112.873
11
98.3546
21
-112.873
0
LINE
8
BLACK
6
CONTINUOUS
10
98.3546
20
-112.873
11
98.3542
21
-112.871
0
LINE
8
BLACK
6
CONTINUOUS
10
98.3542
20
-112.871
11
98.3536
21
-112.87
0
LINE
8
BLACK
6
CONTINUOUS
10
98.3536
20
-112.87
11
98.3535
21
-112.869
0
LINE
8
BLACK
6
CONTINUOUS
10
98.3535
20
-112.869
11
98.3532
21
-112.868
0
LINE
8
BLACK
6
CONTINUOUS
10
98.3532
20
-112.868
11
98.3531
21
-112.866
0
LINE
8
BLACK
6
CONTINUOUS
10
98.3531
20
-112.866
11
98.3528
21
-112.865
0
LINE
8
BLACK
6
CONTINUOUS
10
98.3528
20
-112.865
11
98.3529
21
-112.864
0
LINE
8
BLACK
6
CONTINUOUS
10
98.3529
20
-112.864
11
98.3528
21
-112.863
0
LINE
8
BLACK
6
CONTINUOUS
10
98.3528
20
-112.863
11
98.353
21
-112.862
0
LINE
8
BLACK
6
CONTINUOUS
10
98.353
20
-112.862
11
98.353
21
-112.86
0
LINE
8
BLACK
6
CONTINUOUS
10
98.353
20
-112.86
11
98.3532
21
-112.859
0
LINE
8
BLACK
6
CONTINUOUS
10
98.3532
20
-112.859
11
98.3533
21
-112.858
0
LINE
8
BLACK
6
CONTINUOUS
10
98.3533
20
-112.858
11
98.3538
21
-112.857
0
LINE
8
BLACK
6
CONTINUOUS
10
98.3538
20
-112.857
11
98.3541
21
-112.855
0
LINE
8
BLACK
6
CONTINUOUS
10
98.3541
20
-112.855
11
98.3545
21
-112.854
0
LINE
8
BLACK
6
CONTINUOUS
10
98.3545
20
-112.854
11
98.3548
21
-112.854
0
LINE
8
BLACK
6
CONTINUOUS
10
98.3548
20
-112.854
11
98.3555
21
-112.852
0
LINE
8
BLACK
6
CONTINUOUS
10
98.3555
20
-112.852
11
98.3561
21
-112.851
0
LINE
8
BLACK
6
CONTINUOUS
10
98.3561
20
-112.851
11
98.3567
21
-112.85
0
LINE
8
BLACK
6
CONTINUOUS
10
98.3567
20
-112.85
11
98.3571
21
-112.849
0
LINE
8
BLACK
6
CONTINUOUS
10
98.3571
20
-112.849
11
98.3581
21
-112.848
0
LINE
8
BLACK
6
CONTINUOUS
10
98.3581
20
-112.848
11
98.359
21
-112.847
0
LINE
8
BLACK
6
CONTINUOUS
10
98.359
20
-112.847
11
98.656
21
-112.507
0
LINE
8
BLACK
6
CONTINUOUS
10
98.656
20
-112.507
11
98.0921
21
-112.507
0
LINE
8
BLACK
6
CONTINUOUS
10
98.0921
20
-112.507
11
98.0917
21
-112.507
0
LINE
8
BLACK
6
CONTINUOUS
10
98.0917
20
-112.507
11
98.0869
21
-112.507
0
LINE
8
BLACK
6
CONTINUOUS
10
98.0869
20
-112.507
11
98.0822
21
-112.505
0
LINE
8
BLACK
6
CONTINUOUS
10
98.0822
20
-112.505
11
98.078
21
-112.503
0
LINE
8
BLACK
6
CONTINUOUS
10
98.078
20
-112.503
11
98.0742
21
-112.5
0
LINE
8
BLACK
6
CONTINUOUS
10
98.0742
20
-112.5
11
98.0712
21
-112.496
0
LINE
8
BLACK
6
CONTINUOUS
10
98.0712
20
-112.496
11
98.0689
21
-112.492
0
LINE
8
BLACK
6
CONTINUOUS
10
98.0689
20
-112.492
11
98.0675
21
-112.487
0
LINE
8
BLACK
6
CONTINUOUS
10
98.0675
20
-112.487
11
98.0671
21
-112.482
0
LINE
8
BLACK
6
CONTINUOUS
10
98.0671
20
-112.482
11
98.0676
21
-112.477
0
LINE
8
BLACK
6
CONTINUOUS
10
98.0676
20
-112.477
11
98.069
21
-112.473
0
LINE
8
BLACK
6
CONTINUOUS
10
98.069
20
-112.473
11
98.0714
21
-112.468
0
LINE
8
BLACK
6
CONTINUOUS
10
98.0714
20
-112.468
11
98.0745
21
-112.465
0
LINE
8
BLACK
6
CONTINUOUS
10
98.0745
20
-112.465
11
98.0783
21
-112.462
0
LINE
8
BLACK
6
CONTINUOUS
10
98.0783
20
-112.462
11
98.0826
21
-112.459
0
LINE
8
BLACK
6
CONTINUOUS
10
98.0826
20
-112.459
11
98.0872
21
-112.458
0
LINE
8
BLACK
6
CONTINUOUS
10
98.0872
20
-112.458
11
98.0921
21
-112.457
0
LINE
8
BLACK
6
CONTINUOUS
10
98.0921
20
-112.457
11
98.7111
21
-112.457
0
LINE
8
BLACK
6
CONTINUOUS
10
98.7111
20
-112.457
11
98.7115
21
-112.457
0
LINE
8
BLACK
6
CONTINUOUS
10
88.5515
20
-112.457
11
88.5531
21
-112.458
0
LINE
8
BLACK
6
CONTINUOUS
10
88.5531
20
-112.458
11
88.5546
21
-112.458
0
LINE
8
BLACK
6
CONTINUOUS
10
88.5546
20
-112.458
11
88.5555
21
-112.458
0
LINE
8
BLACK
6
CONTINUOUS
10
88.5555
20
-112.458
11
88.5563
21
-112.458
0
LINE
8
BLACK
6
CONTINUOUS
10
88.5563
20
-112.458
11
88.5578
21
-112.458
0
LINE
8
BLACK
6
CONTINUOUS
10
88.5578
20
-112.458
11
88.5593
21
-112.459
0
LINE
8
BLACK
6
CONTINUOUS
10
88.5593
20
-112.459
11
88.5601
21
-112.459
0
LINE
8
BLACK
6
CONTINUOUS
10
88.5601
20
-112.459
11
88.561
21
-112.459
0
LINE
8
BLACK
6
CONTINUOUS
10
88.561
20
-112.459
11
88.5624
21
-112.46
0
LINE
8
BLACK
6
CONTINUOUS
10
88.5624
20
-112.46
11
88.5638
21
-112.461
0
LINE
8
BLACK
6
CONTINUOUS
10
88.5638
20
-112.461
11
88.5645
21
-112.461
0
LINE
8
BLACK
6
CONTINUOUS
10
88.5645
20
-112.461
11
88.5653
21
-112.462
0
LINE
8
BLACK
6
CONTINUOUS
10
88.5653
20
-112.462
11
88.5665
21
-112.463
0
LINE
8
BLACK
6
CONTINUOUS
10
88.5665
20
-112.463
11
88.5677
21
-112.464
0
LINE
8
BLACK
6
CONTINUOUS
10
88.5677
20
-112.464
11
88.5683
21
-112.464
0
LINE
8
BLACK
6
CONTINUOUS
10
88.5683
20
-112.464
11
88.569
21
-112.465
0
LINE
8
BLACK
6
CONTINUOUS
10
88.569
20
-112.465
11
88.57
21
-112.466
0
LINE
8
BLACK
6
CONTINUOUS
10
88.57
20
-112.466
11
88.571
21
-112.467
0
LINE
8
BLACK
6
CONTINUOUS
10
88.571
20
-112.467
11
88.5715
21
-112.468
0
LINE
8
BLACK
6
CONTINUOUS
10
88.5715
20
-112.468
11
88.5721
21
-112.469
0
LINE
8
BLACK
6
CONTINUOUS
10
88.5721
20
-112.469
11
88.5728
21
-112.47
0
LINE
8
BLACK
6
CONTINUOUS
10
88.5728
20
-112.47
11
88.5736
21
-112.471
0
LINE
8
BLACK
6
CONTINUOUS
10
88.5736
20
-112.471
11
88.5739
21
-112.472
0
LINE
8
BLACK
6
CONTINUOUS
10
88.5739
20
-112.472
11
88.5743
21
-112.473
0
LINE
8
BLACK
6
CONTINUOUS
10
88.5743
20
-112.473
11
88.5748
21
-112.475
0
LINE
8
BLACK
6
CONTINUOUS
10
88.5748
20
-112.475
11
88.5753
21
-112.476
0
LINE
8
BLACK
6
CONTINUOUS
10
88.5753
20
-112.476
11
88.5754
21
-112.477
0
LINE
8
BLACK
6
CONTINUOUS
10
88.5754
20
-112.477
11
88.5757
21
-112.478
0
LINE
8
BLACK
6
CONTINUOUS
10
88.5757
20
-112.478
11
88.5758
21
-112.479
0
LINE
8
BLACK
6
CONTINUOUS
10
88.5758
20
-112.479
11
88.5761
21
-112.481
0
LINE
8
BLACK
6
CONTINUOUS
10
88.5761
20
-112.481
11
88.5761
21
-112.482
0
LINE
8
BLACK
6
CONTINUOUS
10
88.5761
20
-112.482
11
88.5761
21
-112.483
0
LINE
8
BLACK
6
CONTINUOUS
10
88.5761
20
-112.483
11
88.576
21
-112.484
0
LINE
8
BLACK
6
CONTINUOUS
10
88.576
20
-112.484
11
88.5759
21
-112.486
0
LINE
8
BLACK
6
CONTINUOUS
10
88.5759
20
-112.486
11
88.5757
21
-112.487
0
LINE
8
BLACK
6
CONTINUOUS
10
88.5757
20
-112.487
11
88.5756
21
-112.487
0
LINE
8
BLACK
6
CONTINUOUS
10
88.5756
20
-112.487
11
88.5752
21
-112.489
0
LINE
8
BLACK
6
CONTINUOUS
10
88.5752
20
-112.489
11
88.5748
21
-112.49
0
LINE
8
BLACK
6
CONTINUOUS
10
88.5748
20
-112.49
11
88.5744
21
-112.491
0
LINE
8
BLACK
6
CONTINUOUS
10
88.5744
20
-112.491
11
88.5742
21
-112.492
0
LINE
8
BLACK
6
CONTINUOUS
10
88.5742
20
-112.492
11
88.5734
21
-112.493
0
LINE
8
BLACK
6
CONTINUOUS
10
88.5734
20
-112.493
11
88.5728
21
-112.495
0
LINE
8
BLACK
6
CONTINUOUS
10
88.5728
20
-112.495
11
88.5723
21
-112.496
0
LINE
8
BLACK
6
CONTINUOUS
10
88.5723
20
-112.496
11
88.5719
21
-112.496
0
LINE
8
BLACK
6
CONTINUOUS
10
88.5719
20
-112.496
11
88.5709
21
-112.498
0
LINE
8
BLACK
6
CONTINUOUS
10
88.5709
20
-112.498
11
88.5699
21
-112.499
0
LINE
8
BLACK
6
CONTINUOUS
10
88.5699
20
-112.499
11
88.2729
21
-112.838
0
LINE
8
BLACK
6
CONTINUOUS
10
88.2729
20
-112.838
11
88.3607
21
-112.838
0
LINE
8
BLACK
6
CONTINUOUS
10
88.3607
20
-112.838
11
88.361
21
-112.838
0
LINE
8
BLACK
6
CONTINUOUS
10
88.361
20
-112.838
11
88.3617
21
-112.838
0
LINE
8
BLACK
6
CONTINUOUS
10
88.3617
20
-112.838
11
88.3625
21
-112.838
0
LINE
8
BLACK
6
CONTINUOUS
10
88.3625
20
-112.838
11
88.3642
21
-112.839
0
LINE
8
BLACK
6
CONTINUOUS
10
88.3642
20
-112.839
11
88.3659
21
-112.839
0
LINE
8
BLACK
6
CONTINUOUS
10
88.3659
20
-112.839
11
88.3666
21
-112.839
0
LINE
8
BLACK
6
CONTINUOUS
10
88.3666
20
-112.839
11
88.3673
21
-112.839
0
LINE
8
BLACK
6
CONTINUOUS
10
88.3673
20
-112.839
11
88.3689
21
-112.84
0
LINE
8
BLACK
6
CONTINUOUS
10
88.3689
20
-112.84
11
88.3705
21
-112.84
0
LINE
8
BLACK
6
CONTINUOUS
10
88.3705
20
-112.84
11
88.3711
21
-112.841
0
LINE
8
BLACK
6
CONTINUOUS
10
88.3711
20
-112.841
11
88.3718
21
-112.841
0
LINE
8
BLACK
6
CONTINUOUS
10
88.3718
20
-112.841
11
88.4671
21
-112.889
0
LINE
8
BLACK
6
CONTINUOUS
10
88.4671
20
-112.889
11
88.4674
21
-112.889
0
LINE
8
BLACK
6
CONTINUOUS
10
88.4674
20
-112.889
11
88.4686
21
-112.89
0
LINE
8
BLACK
6
CONTINUOUS
10
88.4686
20
-112.89
11
88.4698
21
-112.89
0
LINE
8
BLACK
6
CONTINUOUS
10
88.4698
20
-112.89
11
88.4706
21
-112.891
0
LINE
8
BLACK
6
CONTINUOUS
10
88.4706
20
-112.891
11
88.4715
21
-112.891
0
LINE
8
BLACK
6
CONTINUOUS
10
88.4715
20
-112.891
11
88.4725
21
-112.892
0
LINE
8
BLACK
6
CONTINUOUS
10
88.4725
20
-112.892
11
88.4736
21
-112.893
0
LINE
8
BLACK
6
CONTINUOUS
10
88.4736
20
-112.893
11
88.5212
21
-112.941
0
LINE
8
BLACK
6
CONTINUOUS
10
88.5212
20
-112.941
11
88.5214
21
-112.941
0
LINE
8
BLACK
6
CONTINUOUS
10
88.5214
20
-112.941
11
88.5223
21
-112.942
0
LINE
8
BLACK
6
CONTINUOUS
10
88.5223
20
-112.942
11
88.5233
21
-112.943
0
LINE
8
BLACK
6
CONTINUOUS
10
88.5233
20
-112.943
11
88.5238
21
-112.944
0
LINE
8
BLACK
6
CONTINUOUS
10
88.5238
20
-112.944
11
88.5245
21
-112.945
0
LINE
8
BLACK
6
CONTINUOUS
10
88.5245
20
-112.945
11
88.5251
21
-112.946
0
LINE
8
BLACK
6
CONTINUOUS
10
88.5251
20
-112.946
11
88.5259
21
-112.947
0
LINE
8
BLACK
6
CONTINUOUS
10
88.5259
20
-112.947
11
88.5735
21
-113.043
0
LINE
8
BLACK
6
CONTINUOUS
10
88.5735
20
-113.043
11
88.5736
21
-113.043
0
LINE
8
BLACK
6
CONTINUOUS
10
88.5736
20
-113.043
11
88.5739
21
-113.044
0
LINE
8
BLACK
6
CONTINUOUS
10
88.5739
20
-113.044
11
88.5742
21
-113.044
0
LINE
8
BLACK
6
CONTINUOUS
10
88.5742
20
-113.044
11
88.5747
21
-113.046
0
LINE
8
BLACK
6
CONTINUOUS
10
88.5747
20
-113.046
11
88.5753
21
-113.048
0
LINE
8
BLACK
6
CONTINUOUS
10
88.5753
20
-113.048
11
88.5754
21
-113.048
0
LINE
8
BLACK
6
CONTINUOUS
10
88.5754
20
-113.048
11
88.5757
21
-113.049
0
LINE
8
BLACK
6
CONTINUOUS
10
88.5757
20
-113.049
11
88.5758
21
-113.051
0
LINE
8
BLACK
6
CONTINUOUS
10
88.5758
20
-113.051
11
88.5761
21
-113.052
0
LINE
8
BLACK
6
CONTINUOUS
10
88.5761
20
-113.052
11
88.5761
21
-113.053
0
LINE
8
BLACK
6
CONTINUOUS
10
88.5761
20
-113.053
11
88.5761
21
-113.054
0
LINE
8
BLACK
6
CONTINUOUS
10
88.5761
20
-113.054
11
88.5761
21
-113.292
0
LINE
8
BLACK
6
CONTINUOUS
10
88.5761
20
-113.292
11
88.5761
21
-113.292
0
LINE
8
BLACK
6
CONTINUOUS
10
88.5761
20
-113.292
11
88.576
21
-113.293
0
LINE
8
BLACK
6
CONTINUOUS
10
88.576
20
-113.293
11
88.5761
21
-113.294
0
LINE
8
BLACK
6
CONTINUOUS
10
88.5761
20
-113.294
11
88.5758
21
-113.295
0
LINE
8
BLACK
6
CONTINUOUS
10
88.5758
20
-113.295
11
88.5756
21
-113.297
0
LINE
8
BLACK
6
CONTINUOUS
10
88.5756
20
-113.297
11
88.5754
21
-113.298
0
LINE
8
BLACK
6
CONTINUOUS
10
88.5754
20
-113.298
11
88.5752
21
-113.299
0
LINE
8
BLACK
6
CONTINUOUS
10
88.5752
20
-113.299
11
88.5746
21
-113.3
0
LINE
8
BLACK
6
CONTINUOUS
10
88.5746
20
-113.3
11
88.5741
21
-113.302
0
LINE
8
BLACK
6
CONTINUOUS
10
88.5741
20
-113.302
11
88.5738
21
-113.302
0
LINE
8
BLACK
6
CONTINUOUS
10
88.5738
20
-113.302
11
88.5735
21
-113.303
0
LINE
8
BLACK
6
CONTINUOUS
10
88.5735
20
-113.303
11
88.5259
21
-113.398
0
LINE
8
BLACK
6
CONTINUOUS
10
88.5259
20
-113.398
11
88.5257
21
-113.399
0
LINE
8
BLACK
6
CONTINUOUS
10
88.5257
20
-113.399
11
88.5249
21
-113.4
0
LINE
8
BLACK
6
CONTINUOUS
10
88.5249
20
-113.4
11
88.5243
21
-113.401
0
LINE
8
BLACK
6
CONTINUOUS
10
88.5243
20
-113.401
11
88.5236
21
-113.402
0
LINE
8
BLACK
6
CONTINUOUS
10
88.5236
20
-113.402
11
88.5231
21
-113.403
0
LINE
8
BLACK
6
CONTINUOUS
10
88.5231
20
-113.403
11
88.5221
21
-113.404
0
LINE
8
BLACK
6
CONTINUOUS
10
88.5221
20
-113.404
11
88.5212
21
-113.405
0
LINE
8
BLACK
6
CONTINUOUS
10
88.5212
20
-113.405
11
88.4736
21
-113.452
0
LINE
8
BLACK
6
CONTINUOUS
10
88.4736
20
-113.452
11
88.4733
21
-113.453
0
LINE
8
BLACK
6
CONTINUOUS
10
88.4733
20
-113.453
11
88.4722
21
-113.454
0
LINE
8
BLACK
6
CONTINUOUS
10
88.4722
20
-113.454
11
88.4712
21
-113.455
0
LINE
8
BLACK
6
CONTINUOUS
10
88.4712
20
-113.455
11
88.4703
21
-113.455
0
LINE
8
BLACK
6
CONTINUOUS
10
88.4703
20
-113.455
11
88.4695
21
-113.456
0
LINE
8
BLACK
6
CONTINUOUS
10
88.4695
20
-113.456
11
88.4683
21
-113.456
0
LINE
8
BLACK
6
CONTINUOUS
10
88.4683
20
-113.456
11
88.4671
21
-113.457
0
LINE
8
BLACK
6
CONTINUOUS
10
88.4671
20
-113.457
11
88.3718
21
-113.505
0
LINE
8
BLACK
6
CONTINUOUS
10
88.3718
20
-113.505
11
88.3715
21
-113.505
0
LINE
8
BLACK
6
CONTINUOUS
10
88.3715
20
-113.505
11
88.3708
21
-113.505
0
LINE
8
BLACK
6
CONTINUOUS
10
88.3708
20
-113.505
11
88.3702
21
-113.505
0
LINE
8
BLACK
6
CONTINUOUS
10
88.3702
20
-113.505
11
88.3685
21
-113.506
0
LINE
8
BLACK
6
CONTINUOUS
10
88.3685
20
-113.506
11
88.3669
21
-113.507
0
LINE
8
BLACK
6
CONTINUOUS
10
88.3669
20
-113.507
11
88.3662
21
-113.507
0
LINE
8
BLACK
6
CONTINUOUS
10
88.3662
20
-113.507
11
88.3655
21
-113.507
0
LINE
8
BLACK
6
CONTINUOUS
10
88.3655
20
-113.507
11
88.3638
21
-113.507
0
LINE
8
BLACK
6
CONTINUOUS
10
88.3638
20
-113.507
11
88.3621
21
-113.507
0
LINE
8
BLACK
6
CONTINUOUS
10
88.3621
20
-113.507
11
88.3614
21
-113.507
0
LINE
8
BLACK
6
CONTINUOUS
10
88.3614
20
-113.507
11
88.3607
21
-113.507
0
LINE
8
BLACK
6
CONTINUOUS
10
88.3607
20
-113.507
11
88.0749
21
-113.507
0
LINE
8
BLACK
6
CONTINUOUS
10
88.0749
20
-113.507
11
88.0746
21
-113.507
0
LINE
8
BLACK
6
CONTINUOUS
10
88.0746
20
-113.507
11
88.0739
21
-113.507
0
LINE
8
BLACK
6
CONTINUOUS
10
88.0739
20
-113.507
11
88.0731
21
-113.507
0
LINE
8
BLACK
6
CONTINUOUS
10
88.0731
20
-113.507
11
88.0715
21
-113.507
0
LINE
8
BLACK
6
CONTINUOUS
10
88.0715
20
-113.507
11
88.0697
21
-113.507
0
LINE
8
BLACK
6
CONTINUOUS
10
88.0697
20
-113.507
11
88.069
21
-113.507
0
LINE
8
BLACK
6
CONTINUOUS
10
88.069
20
-113.507
11
88.0683
21
-113.506
0
LINE
8
BLACK
6
CONTINUOUS
10
88.0683
20
-113.506
11
88.0667
21
-113.506
0
LINE
8
BLACK
6
CONTINUOUS
10
88.0667
20
-113.506
11
88.0651
21
-113.505
0
LINE
8
BLACK
6
CONTINUOUS
10
88.0651
20
-113.505
11
88.0645
21
-113.505
0
LINE
8
BLACK
6
CONTINUOUS
10
88.0645
20
-113.505
11
88.0638
21
-113.505
0
LINE
8
BLACK
6
CONTINUOUS
10
88.0638
20
-113.505
11
87.9685
21
-113.457
0
LINE
8
BLACK
6
CONTINUOUS
10
87.9685
20
-113.457
11
87.9682
21
-113.457
0
LINE
8
BLACK
6
CONTINUOUS
10
87.9682
20
-113.457
11
87.967
21
-113.456
0
LINE
8
BLACK
6
CONTINUOUS
10
87.967
20
-113.456
11
87.9658
21
-113.456
0
LINE
8
BLACK
6
CONTINUOUS
10
87.9658
20
-113.456
11
87.965
21
-113.455
0
LINE
8
BLACK
6
CONTINUOUS
10
87.965
20
-113.455
11
87.9641
21
-113.454
0
LINE
8
BLACK
6
CONTINUOUS
10
87.9641
20
-113.454
11
87.9631
21
-113.453
0
LINE
8
BLACK
6
CONTINUOUS
10
87.9631
20
-113.453
11
87.962
21
-113.452
0
LINE
8
BLACK
6
CONTINUOUS
10
87.962
20
-113.452
11
87.9144
21
-113.405
0
LINE
8
BLACK
6
CONTINUOUS
10
87.9144
20
-113.405
11
87.9142
21
-113.405
0
LINE
8
BLACK
6
CONTINUOUS
10
87.9142
20
-113.405
11
87.9111
21
-113.401
0
LINE
8
BLACK
6
CONTINUOUS
10
87.9111
20
-113.401
11
87.9089
21
-113.396
0
LINE
8
BLACK
6
CONTINUOUS
10
87.9089
20
-113.396
11
87.9075
21
-113.392
0
LINE
8
BLACK
6
CONTINUOUS
10
87.9075
20
-113.392
11
87.9071
21
-113.387
0
LINE
8
BLACK
6
CONTINUOUS
10
87.9071
20
-113.387
11
87.9076
21
-113.382
0
LINE
8
BLACK
6
CONTINUOUS
10
87.9076
20
-113.382
11
87.9091
21
-113.377
0
LINE
8
BLACK
6
CONTINUOUS
10
87.9091
20
-113.377
11
87.9114
21
-113.373
0
LINE
8
BLACK
6
CONTINUOUS
10
87.9114
20
-113.373
11
87.9145
21
-113.369
0
LINE
8
BLACK
6
CONTINUOUS
10
87.9145
20
-113.369
11
87.9183
21
-113.366
0
LINE
8
BLACK
6
CONTINUOUS
10
87.9183
20
-113.366
11
87.9226
21
-113.364
0
LINE
8
BLACK
6
CONTINUOUS
10
87.9226
20
-113.364
11
87.9273
21
-113.363
0
LINE
8
BLACK
6
CONTINUOUS
10
87.9273
20
-113.363
11
87.9322
21
-113.362
0
LINE
8
BLACK
6
CONTINUOUS
10
87.9322
20
-113.362
11
87.937
21
-113.363
0
LINE
8
BLACK
6
CONTINUOUS
10
87.937
20
-113.363
11
87.9417
21
-113.364
0
LINE
8
BLACK
6
CONTINUOUS
10
87.9417
20
-113.364
11
87.946
21
-113.366
0
LINE
8
BLACK
6
CONTINUOUS
10
87.946
20
-113.366
11
87.9498
21
-113.369
0
LINE
8
BLACK
6
CONTINUOUS
10
87.9498
20
-113.369
11
87.9945
21
-113.414
0
LINE
8
BLACK
6
CONTINUOUS
10
87.9945
20
-113.414
11
88.0808
21
-113.457
0
LINE
8
BLACK
6
CONTINUOUS
10
88.0808
20
-113.457
11
88.3548
21
-113.457
0
LINE
8
BLACK
6
CONTINUOUS
10
88.3548
20
-113.457
11
88.4411
21
-113.414
0
LINE
8
BLACK
6
CONTINUOUS
10
88.4411
20
-113.414
11
88.483
21
-113.372
0
LINE
8
BLACK
6
CONTINUOUS
10
88.483
20
-113.372
11
88.5261
21
-113.286
0
LINE
8
BLACK
6
CONTINUOUS
10
88.5261
20
-113.286
11
88.5261
21
-113.06
0
LINE
8
BLACK
6
CONTINUOUS
10
88.5261
20
-113.06
11
88.483
21
-112.973
0
LINE
8
BLACK
6
CONTINUOUS
10
88.483
20
-112.973
11
88.4411
21
-112.931
0
LINE
8
BLACK
6
CONTINUOUS
10
88.4411
20
-112.931
11
88.3548
21
-112.888
0
LINE
8
BLACK
6
CONTINUOUS
10
88.3548
20
-112.888
11
88.2178
21
-112.888
0
LINE
8
BLACK
6
CONTINUOUS
10
88.2178
20
-112.888
11
88.2175
21
-112.888
0
LINE
8
BLACK
6
CONTINUOUS
10
88.2175
20
-112.888
11
88.2159
21
-112.888
0
LINE
8
BLACK
6
CONTINUOUS
10
88.2159
20
-112.888
11
88.2143
21
-112.888
0
LINE
8
BLACK
6
CONTINUOUS
10
88.2143
20
-112.888
11
88.2135
21
-112.888
0
LINE
8
BLACK
6
CONTINUOUS
10
88.2135
20
-112.888
11
88.2126
21
-112.888
0
LINE
8
BLACK
6
CONTINUOUS
10
88.2126
20
-112.888
11
88.2111
21
-112.887
0
LINE
8
BLACK
6
CONTINUOUS
10
88.2111
20
-112.887
11
88.2096
21
-112.887
0
LINE
8
BLACK
6
CONTINUOUS
10
88.2096
20
-112.887
11
88.2088
21
-112.887
0
LINE
8
BLACK
6
CONTINUOUS
10
88.2088
20
-112.887
11
88.208
21
-112.886
0
LINE
8
BLACK
6
CONTINUOUS
10
88.208
20
-112.886
11
88.2066
21
-112.886
0
LINE
8
BLACK
6
CONTINUOUS
10
88.2066
20
-112.886
11
88.2052
21
-112.885
0
LINE
8
BLACK
6
CONTINUOUS
10
88.2052
20
-112.885
11
88.2044
21
-112.884
0
LINE
8
BLACK
6
CONTINUOUS
10
88.2044
20
-112.884
11
88.2037
21
-112.884
0
LINE
8
BLACK
6
CONTINUOUS
10
88.2037
20
-112.884
11
88.2025
21
-112.883
0
LINE
8
BLACK
6
CONTINUOUS
10
88.2025
20
-112.883
11
88.2012
21
-112.882
0
LINE
8
BLACK
6
CONTINUOUS
10
88.2012
20
-112.882
11
88.2006
21
-112.881
0
LINE
8
BLACK
6
CONTINUOUS
10
88.2006
20
-112.881
11
88.1999
21
-112.881
0
LINE
8
BLACK
6
CONTINUOUS
10
88.1999
20
-112.881
11
88.199
21
-112.88
0
LINE
8
BLACK
6
CONTINUOUS
10
88.199
20
-112.88
11
88.1979
21
-112.878
0
LINE
8
BLACK
6
CONTINUOUS
10
88.1979
20
-112.878
11
88.1974
21
-112.878
0
LINE
8
BLACK
6
CONTINUOUS
10
88.1974
20
-112.878
11
88.1969
21
-112.877
0
LINE
8
BLACK
6
CONTINUOUS
10
88.1969
20
-112.877
11
88.1962
21
-112.876
0
LINE
8
BLACK
6
CONTINUOUS
10
88.1962
20
-112.876
11
88.1953
21
-112.874
0
LINE
8
BLACK
6
CONTINUOUS
10
88.1953
20
-112.874
11
88.195
21
-112.873
0
LINE
8
BLACK
6
CONTINUOUS
10
88.195
20
-112.873
11
88.1946
21
-112.873
0
LINE
8
BLACK
6
CONTINUOUS
10
88.1946
20
-112.873
11
88.1942
21
-112.871
0
LINE
8
BLACK
6
CONTINUOUS
10
88.1942
20
-112.871
11
88.1936
21
-112.87
0
LINE
8
BLACK
6
CONTINUOUS
10
88.1936
20
-112.87
11
88.1935
21
-112.869
0
LINE
8
BLACK
6
CONTINUOUS
10
88.1935
20
-112.869
11
88.1932
21
-112.868
0
LINE
8
BLACK
6
CONTINUOUS
10
88.1932
20
-112.868
11
88.1931
21
-112.866
0
LINE
8
BLACK
6
CONTINUOUS
10
88.1931
20
-112.866
11
88.1928
21
-112.865
0
LINE
8
BLACK
6
CONTINUOUS
10
88.1928
20
-112.865
11
88.1929
21
-112.864
0
LINE
8
BLACK
6
CONTINUOUS
10
88.1929
20
-112.864
11
88.1928
21
-112.863
0
LINE
8
BLACK
6
CONTINUOUS
10
88.1928
20
-112.863
11
88.193
21
-112.862
0
LINE
8
BLACK
6
CONTINUOUS
10
88.193
20
-112.862
11
88.193
21
-112.86
0
LINE
8
BLACK
6
CONTINUOUS
10
88.193
20
-112.86
11
88.1932
21
-112.859
0
LINE
8
BLACK
6
CONTINUOUS
10
88.1932
20
-112.859
11
88.1933
21
-112.858
0
LINE
8
BLACK
6
CONTINUOUS
10
88.1933
20
-112.858
11
88.1938
21
-112.857
0
LINE
8
BLACK
6
CONTINUOUS
10
88.1938
20
-112.857
11
88.1941
21
-112.855
0
LINE
8
BLACK
6
CONTINUOUS
10
88.1941
20
-112.855
11
88.1945
21
-112.854
0
LINE
8
BLACK
6
CONTINUOUS
10
88.1945
20
-112.854
11
88.1948
21
-112.854
0
LINE
8
BLACK
6
CONTINUOUS
10
88.1948
20
-112.854
11
88.1955
21
-112.852
0
LINE
8
BLACK
6
CONTINUOUS
10
88.1955
20
-112.852
11
88.1961
21
-112.851
0
LINE
8
BLACK
6
CONTINUOUS
10
88.1961
20
-112.851
11
88.1967
21
-112.85
0
LINE
8
BLACK
6
CONTINUOUS
10
88.1967
20
-112.85
11
88.1971
21
-112.849
0
LINE
8
BLACK
6
CONTINUOUS
10
88.1971
20
-112.849
11
88.1981
21
-112.848
0
LINE
8
BLACK
6
CONTINUOUS
10
88.1981
20
-112.848
11
88.199
21
-112.847
0
LINE
8
BLACK
6
CONTINUOUS
10
88.199
20
-112.847
11
88.496
21
-112.507
0
LINE
8
BLACK
6
CONTINUOUS
10
88.496
20
-112.507
11
87.9321
21
-112.507
0
LINE
8
BLACK
6
CONTINUOUS
10
87.9321
20
-112.507
11
87.9317
21
-112.507
0
LINE
8
BLACK
6
CONTINUOUS
10
87.9317
20
-112.507
11
87.9269
21
-112.507
0
LINE
8
BLACK
6
CONTINUOUS
10
87.9269
20
-112.507
11
87.9222
21
-112.505
0
LINE
8
BLACK
6
CONTINUOUS
10
87.9222
20
-112.505
11
87.918
21
-112.503
0
LINE
8
BLACK
6
CONTINUOUS
10
87.918
20
-112.503
11
87.9142
21
-112.5
0
LINE
8
BLACK
6
CONTINUOUS
10
87.9142
20
-112.5
11
87.9112
21
-112.496
0
LINE
8
BLACK
6
CONTINUOUS
10
87.9112
20
-112.496
11
87.9089
21
-112.492
0
LINE
8
BLACK
6
CONTINUOUS
10
87.9089
20
-112.492
11
87.9075
21
-112.487
0
LINE
8
BLACK
6
CONTINUOUS
10
87.9075
20
-112.487
11
87.9071
21
-112.482
0
LINE
8
BLACK
6
CONTINUOUS
10
87.9071
20
-112.482
11
87.9076
21
-112.477
0
LINE
8
BLACK
6
CONTINUOUS
10
87.9076
20
-112.477
11
87.909
21
-112.473
0
LINE
8
BLACK
6
CONTINUOUS
10
87.909
20
-112.473
11
87.9114
21
-112.468
0
LINE
8
BLACK
6
CONTINUOUS
10
87.9114
20
-112.468
11
87.9145
21
-112.465
0
LINE
8
BLACK
6
CONTINUOUS
10
87.9145
20
-112.465
11
87.9183
21
-112.462
0
LINE
8
BLACK
6
CONTINUOUS
10
87.9183
20
-112.462
11
87.9226
21
-112.459
0
LINE
8
BLACK
6
CONTINUOUS
10
87.9226
20
-112.459
11
87.9272
21
-112.458
0
LINE
8
BLACK
6
CONTINUOUS
10
87.9272
20
-112.458
11
87.9321
21
-112.457
0
LINE
8
BLACK
6
CONTINUOUS
10
87.9321
20
-112.457
11
88.5511
21
-112.457
0
LINE
8
BLACK
6
CONTINUOUS
10
88.5511
20
-112.457
11
88.5515
21
-112.457
0
LINE
8
BLACK
6
CONTINUOUS
10
85.8196
20
-112.457
11
85.8203
21
-112.457
0
LINE
8
BLACK
6
CONTINUOUS
10
85.8203
20
-112.457
11
85.8211
21
-112.457
0
LINE
8
BLACK
6
CONTINUOUS
10
85.8211
20
-112.457
11
85.8227
21
-112.458
0
LINE
8
BLACK
6
CONTINUOUS
10
85.8227
20
-112.458
11
85.8244
21
-112.458
0
LINE
8
BLACK
6
CONTINUOUS
10
85.8244
20
-112.458
11
85.8251
21
-112.458
0
LINE
8
BLACK
6
CONTINUOUS
10
85.8251
20
-112.458
11
85.8259
21
-112.458
0
LINE
8
BLACK
6
CONTINUOUS
10
85.8259
20
-112.458
11
85.8275
21
-112.459
0
LINE
8
BLACK
6
CONTINUOUS
10
85.8275
20
-112.459
11
85.8291
21
-112.459
0
LINE
8
BLACK
6
CONTINUOUS
10
85.8291
20
-112.459
11
85.8297
21
-112.46
0
LINE
8
BLACK
6
CONTINUOUS
10
85.8297
20
-112.46
11
85.8304
21
-112.46
0
LINE
8
BLACK
6
CONTINUOUS
10
85.8304
20
-112.46
11
85.9257
21
-112.508
0
LINE
8
BLACK
6
CONTINUOUS
10
85.9257
20
-112.508
11
85.926
21
-112.508
0
LINE
8
BLACK
6
CONTINUOUS
10
85.926
20
-112.508
11
85.9272
21
-112.509
0
LINE
8
BLACK
6
CONTINUOUS
10
85.9272
20
-112.509
11
85.9284
21
-112.509
0
LINE
8
BLACK
6
CONTINUOUS
10
85.9284
20
-112.509
11
85.9292
21
-112.51
0
LINE
8
BLACK
6
CONTINUOUS
10
85.9292
20
-112.51
11
85.9301
21
-112.51
0
LINE
8
BLACK
6
CONTINUOUS
10
85.9301
20
-112.51
11
85.9311
21
-112.511
0
LINE
8
BLACK
6
CONTINUOUS
10
85.9311
20
-112.511
11
85.9322
21
-112.512
0
LINE
8
BLACK
6
CONTINUOUS
10
85.9322
20
-112.512
11
85.9798
21
-112.56
0
LINE
8
BLACK
6
CONTINUOUS
10
85.9798
20
-112.56
11
85.98
21
-112.56
0
LINE
8
BLACK
6
CONTINUOUS
10
85.98
20
-112.56
11
85.9809
21
-112.561
0
LINE
8
BLACK
6
CONTINUOUS
10
85.9809
20
-112.561
11
85.9819
21
-112.562
0
LINE
8
BLACK
6
CONTINUOUS
10
85.9819
20
-112.562
11
85.9824
21
-112.563
0
LINE
8
BLACK
6
CONTINUOUS
10
85.9824
20
-112.563
11
85.9831
21
-112.564
0
LINE
8
BLACK
6
CONTINUOUS
10
85.9831
20
-112.564
11
85.9837
21
-112.565
0
LINE
8
BLACK
6
CONTINUOUS
10
85.9837
20
-112.565
11
85.9845
21
-112.566
0
LINE
8
BLACK
6
CONTINUOUS
10
85.9845
20
-112.566
11
86.0321
21
-112.662
0
LINE
8
BLACK
6
CONTINUOUS
10
86.0321
20
-112.662
11
86.0322
21
-112.662
0
LINE
8
BLACK
6
CONTINUOUS
10
86.0322
20
-112.662
11
86.0325
21
-112.663
0
LINE
8
BLACK
6
CONTINUOUS
10
86.0325
20
-112.663
11
86.0328
21
-112.663
0
LINE
8
BLACK
6
CONTINUOUS
10
86.0328
20
-112.663
11
86.0333
21
-112.665
0
LINE
8
BLACK
6
CONTINUOUS
10
86.0333
20
-112.665
11
86.0339
21
-112.667
0
LINE
8
BLACK
6
CONTINUOUS
10
86.0339
20
-112.667
11
86.034
21
-112.667
0
LINE
8
BLACK
6
CONTINUOUS
10
86.034
20
-112.667
11
86.0342
21
-112.668
0
LINE
8
BLACK
6
CONTINUOUS
10
86.0342
20
-112.668
11
86.0344
21
-112.67
0
LINE
8
BLACK
6
CONTINUOUS
10
86.0344
20
-112.67
11
86.0347
21
-112.671
0
LINE
8
BLACK
6
CONTINUOUS
10
86.0347
20
-112.671
11
86.0346
21
-112.672
0
LINE
8
BLACK
6
CONTINUOUS
10
86.0346
20
-112.672
11
86.0347
21
-112.673
0
LINE
8
BLACK
6
CONTINUOUS
10
86.0347
20
-112.673
11
86.0347
21
-112.768
0
LINE
8
BLACK
6
CONTINUOUS
10
86.0347
20
-112.768
11
86.0347
21
-112.768
0
LINE
8
BLACK
6
CONTINUOUS
10
86.0347
20
-112.768
11
86.0346
21
-112.77
0
LINE
8
BLACK
6
CONTINUOUS
10
86.0346
20
-112.77
11
86.0345
21
-112.771
0
LINE
8
BLACK
6
CONTINUOUS
10
86.0345
20
-112.771
11
86.0343
21
-112.772
0
LINE
8
BLACK
6
CONTINUOUS
10
86.0343
20
-112.772
11
86.0342
21
-112.773
0
LINE
8
BLACK
6
CONTINUOUS
10
86.0342
20
-112.773
11
86.0337
21
-112.775
0
LINE
8
BLACK
6
CONTINUOUS
10
86.0337
20
-112.775
11
86.0334
21
-112.776
0
LINE
8
BLACK
6
CONTINUOUS
10
86.0334
20
-112.776
11
85.9858
21
-112.919
0
LINE
8
BLACK
6
CONTINUOUS
10
85.9858
20
-112.919
11
85.9857
21
-112.919
0
LINE
8
BLACK
6
CONTINUOUS
10
85.9857
20
-112.919
11
85.9854
21
-112.92
0
LINE
8
BLACK
6
CONTINUOUS
10
85.9854
20
-112.92
11
85.9852
21
-112.921
0
LINE
8
BLACK
6
CONTINUOUS
10
85.9852
20
-112.921
11
85.9844
21
-112.922
0
LINE
8
BLACK
6
CONTINUOUS
10
85.9844
20
-112.922
11
85.9837
21
-112.924
0
LINE
8
BLACK
6
CONTINUOUS
10
85.9837
20
-112.924
11
85.9832
21
-112.924
0
LINE
8
BLACK
6
CONTINUOUS
10
85.9832
20
-112.924
11
85.9829
21
-112.925
0
LINE
8
BLACK
6
CONTINUOUS
10
85.9829
20
-112.925
11
85.9818
21
-112.926
0
LINE
8
BLACK
6
CONTINUOUS
10
85.9818
20
-112.926
11
85.9808
21
-112.928
0
LINE
8
BLACK
6
CONTINUOUS
10
85.9808
20
-112.928
11
85.9802
21
-112.928
0
LINE
8
BLACK
6
CONTINUOUS
10
85.9802
20
-112.928
11
85.9798
21
-112.929
0
LINE
8
BLACK
6
CONTINUOUS
10
85.9798
20
-112.929
11
85.451
21
-113.457
0
LINE
8
BLACK
6
CONTINUOUS
10
85.451
20
-113.457
11
86.0097
21
-113.457
0
LINE
8
BLACK
6
CONTINUOUS
10
86.0097
20
-113.457
11
86.0101
21
-113.457
0
LINE
8
BLACK
6
CONTINUOUS
10
86.0101
20
-113.457
11
86.0149
21
-113.458
0
LINE
8
BLACK
6
CONTINUOUS
10
86.0149
20
-113.458
11
86.0196
21
-113.459
0
LINE
8
BLACK
6
CONTINUOUS
10
86.0196
20
-113.459
11
86.0238
21
-113.462
0
LINE
8
BLACK
6
CONTINUOUS
10
86.0238
20
-113.462
11
86.0276
21
-113.465
0
LINE
8
BLACK
6
CONTINUOUS
10
86.0276
20
-113.465
11
86.0306
21
-113.469
0
LINE
8
BLACK
6
CONTINUOUS
10
86.0306
20
-113.469
11
86.0329
21
-113.473
0
LINE
8
BLACK
6
CONTINUOUS
10
86.0329
20
-113.473
11
86.0343
21
-113.478
0
LINE
8
BLACK
6
CONTINUOUS
10
86.0343
20
-113.478
11
86.0347
21
-113.483
0
LINE
8
BLACK
6
CONTINUOUS
10
86.0347
20
-113.483
11
86.0342
21
-113.487
0
LINE
8
BLACK
6
CONTINUOUS
10
86.0342
20
-113.487
11
86.0328
21
-113.492
0
LINE
8
BLACK
6
CONTINUOUS
10
86.0328
20
-113.492
11
86.0304
21
-113.496
0
LINE
8
BLACK
6
CONTINUOUS
10
86.0304
20
-113.496
11
86.0273
21
-113.5
0
LINE
8
BLACK
6
CONTINUOUS
10
86.0273
20
-113.5
11
86.0236
21
-113.503
0
LINE
8
BLACK
6
CONTINUOUS
10
86.0236
20
-113.503
11
86.0192
21
-113.505
0
LINE
8
BLACK
6
CONTINUOUS
10
86.0192
20
-113.505
11
86.0146
21
-113.507
0
LINE
8
BLACK
6
CONTINUOUS
10
86.0146
20
-113.507
11
86.0097
21
-113.507
0
LINE
8
BLACK
6
CONTINUOUS
10
86.0097
20
-113.507
11
85.3907
21
-113.507
0
LINE
8
BLACK
6
CONTINUOUS
10
85.3907
20
-113.507
11
85.3904
21
-113.507
0
LINE
8
BLACK
6
CONTINUOUS
10
85.3904
20
-113.507
11
85.3904
21
-113.507
0
LINE
8
BLACK
6
CONTINUOUS
10
85.3904
20
-113.507
11
85.3904
21
-113.507
0
LINE
8
BLACK
6
CONTINUOUS
10
85.3904
20
-113.507
11
85.3903
21
-113.507
0
LINE
8
BLACK
6
CONTINUOUS
10
85.3903
20
-113.507
11
85.3879
21
-113.507
0
LINE
8
BLACK
6
CONTINUOUS
10
85.3879
20
-113.507
11
85.3856
21
-113.507
0
LINE
8
BLACK
6
CONTINUOUS
10
85.3856
20
-113.507
11
85.3855
21
-113.507
0
LINE
8
BLACK
6
CONTINUOUS
10
85.3855
20
-113.507
11
85.3855
21
-113.507
0
LINE
8
BLACK
6
CONTINUOUS
10
85.3855
20
-113.507
11
85.3833
21
-113.506
0
LINE
8
BLACK
6
CONTINUOUS
10
85.3833
20
-113.506
11
85.3809
21
-113.505
0
LINE
8
BLACK
6
CONTINUOUS
10
85.3809
20
-113.505
11
85.3809
21
-113.505
0
LINE
8
BLACK
6
CONTINUOUS
10
85.3809
20
-113.505
11
85.3808
21
-113.505
0
LINE
8
BLACK
6
CONTINUOUS
10
85.3808
20
-113.505
11
85.3788
21
-113.504
0
LINE
8
BLACK
6
CONTINUOUS
10
85.3788
20
-113.504
11
85.3766
21
-113.503
0
LINE
8
BLACK
6
CONTINUOUS
10
85.3766
20
-113.503
11
85.3766
21
-113.503
0
LINE
8
BLACK
6
CONTINUOUS
10
85.3766
20
-113.503
11
85.3765
21
-113.503
0
LINE
8
BLACK
6
CONTINUOUS
10
85.3765
20
-113.503
11
85.3746
21
-113.501
0
LINE
8
BLACK
6
CONTINUOUS
10
85.3746
20
-113.501
11
85.3729
21
-113.5
0
LINE
8
BLACK
6
CONTINUOUS
10
85.3729
20
-113.5
11
85.3728
21
-113.5
0
LINE
8
BLACK
6
CONTINUOUS
10
85.3728
20
-113.5
11
85.3728
21
-113.5
0
LINE
8
BLACK
6
CONTINUOUS
10
85.3728
20
-113.5
11
85.3712
21
-113.498
0
LINE
8
BLACK
6
CONTINUOUS
10
85.3712
20
-113.498
11
85.3698
21
-113.496
0
LINE
8
BLACK
6
CONTINUOUS
10
85.3698
20
-113.496
11
85.3698
21
-113.496
0
LINE
8
BLACK
6
CONTINUOUS
10
85.3698
20
-113.496
11
85.3698
21
-113.496
0
LINE
8
BLACK
6
CONTINUOUS
10
85.3698
20
-113.496
11
85.3686
21
-113.494
0
LINE
8
BLACK
6
CONTINUOUS
10
85.3686
20
-113.494
11
85.3675
21
-113.492
0
LINE
8
BLACK
6
CONTINUOUS
10
85.3675
20
-113.492
11
85.3675
21
-113.492
0
LINE
8
BLACK
6
CONTINUOUS
10
85.3675
20
-113.492
11
85.3675
21
-113.492
0
LINE
8
BLACK
6
CONTINUOUS
10
85.3675
20
-113.492
11
85.3668
21
-113.489
0
LINE
8
BLACK
6
CONTINUOUS
10
85.3668
20
-113.489
11
85.3661
21
-113.487
0
LINE
8
BLACK
6
CONTINUOUS
10
85.3661
20
-113.487
11
85.3661
21
-113.487
0
LINE
8
BLACK
6
CONTINUOUS
10
85.3661
20
-113.487
11
85.3661
21
-113.487
0
LINE
8
BLACK
6
CONTINUOUS
10
85.3661
20
-113.487
11
85.3659
21
-113.485
0
LINE
8
BLACK
6
CONTINUOUS
10
85.3659
20
-113.485
11
85.3657
21
-113.482
0
LINE
8
BLACK
6
CONTINUOUS
10
85.3657
20
-113.482
11
85.3657
21
-113.482
0
LINE
8
BLACK
6
CONTINUOUS
10
85.3657
20
-113.482
11
85.3657
21
-113.482
0
LINE
8
BLACK
6
CONTINUOUS
10
85.3657
20
-113.482
11
85.3659
21
-113.48
0
LINE
8
BLACK
6
CONTINUOUS
10
85.3659
20
-113.48
11
85.3662
21
-113.477
0
LINE
8
BLACK
6
CONTINUOUS
10
85.3662
20
-113.477
11
85.3662
21
-113.477
0
LINE
8
BLACK
6
CONTINUOUS
10
85.3662
20
-113.477
11
85.3662
21
-113.477
0
LINE
8
BLACK
6
CONTINUOUS
10
85.3662
20
-113.477
11
85.3669
21
-113.475
0
LINE
8
BLACK
6
CONTINUOUS
10
85.3669
20
-113.475
11
85.3676
21
-113.473
0
LINE
8
BLACK
6
CONTINUOUS
10
85.3676
20
-113.473
11
85.3676
21
-113.473
0
LINE
8
BLACK
6
CONTINUOUS
10
85.3676
20
-113.473
11
85.3676
21
-113.473
0
LINE
8
BLACK
6
CONTINUOUS
10
85.3676
20
-113.473
11
85.3688
21
-113.471
0
LINE
8
BLACK
6
CONTINUOUS
10
85.3688
20
-113.471
11
85.3699
21
-113.468
0
LINE
8
BLACK
6
CONTINUOUS
10
85.3699
20
-113.468
11
85.3699
21
-113.468
0
LINE
8
BLACK
6
CONTINUOUS
10
85.3699
20
-113.468
11
85.3699
21
-113.468
0
LINE
8
BLACK
6
CONTINUOUS
10
85.3699
20
-113.468
11
85.3714
21
-113.467
0
LINE
8
BLACK
6
CONTINUOUS
10
85.3714
20
-113.467
11
85.373
21
-113.465
0
LINE
8
BLACK
6
CONTINUOUS
10
85.373
20
-113.465
11
85.9403
21
-112.897
0
LINE
8
BLACK
6
CONTINUOUS
10
85.9403
20
-112.897
11
85.9847
21
-112.764
0
LINE
8
BLACK
6
CONTINUOUS
10
85.9847
20
-112.764
11
85.9847
21
-112.679
0
LINE
8
BLACK
6
CONTINUOUS
10
85.9847
20
-112.679
11
85.9416
21
-112.592
0
LINE
8
BLACK
6
CONTINUOUS
10
85.9416
20
-112.592
11
85.8997
21
-112.551
0
LINE
8
BLACK
6
CONTINUOUS
10
85.8997
20
-112.551
11
85.8133
21
-112.507
0
LINE
8
BLACK
6
CONTINUOUS
10
85.8133
20
-112.507
11
85.587
21
-112.507
0
LINE
8
BLACK
6
CONTINUOUS
10
85.587
20
-112.507
11
85.5007
21
-112.551
0
LINE
8
BLACK
6
CONTINUOUS
10
85.5007
20
-112.551
11
85.456
21
-112.595
0
LINE
8
BLACK
6
CONTINUOUS
10
85.456
20
-112.595
11
85.4557
21
-112.596
0
LINE
8
BLACK
6
CONTINUOUS
10
85.4557
20
-112.596
11
85.4519
21
-112.599
0
LINE
8
BLACK
6
CONTINUOUS
10
85.4519
20
-112.599
11
85.4476
21
-112.601
0
LINE
8
BLACK
6
CONTINUOUS
10
85.4476
20
-112.601
11
85.4429
21
-112.602
0
LINE
8
BLACK
6
CONTINUOUS
10
85.4429
20
-112.602
11
85.438
21
-112.603
0
LINE
8
BLACK
6
CONTINUOUS
10
85.438
20
-112.603
11
85.4332
21
-112.602
0
LINE
8
BLACK
6
CONTINUOUS
10
85.4332
20
-112.602
11
85.4285
21
-112.601
0
LINE
8
BLACK
6
CONTINUOUS
10
85.4285
20
-112.601
11
85.4242
21
-112.598
0
LINE
8
BLACK
6
CONTINUOUS
10
85.4242
20
-112.598
11
85.4205
21
-112.595
0
LINE
8
BLACK
6
CONTINUOUS
10
85.4205
20
-112.595
11
85.4174
21
-112.591
0
LINE
8
BLACK
6
CONTINUOUS
10
85.4174
20
-112.591
11
85.4151
21
-112.587
0
LINE
8
BLACK
6
CONTINUOUS
10
85.4151
20
-112.587
11
85.4138
21
-112.582
0
LINE
8
BLACK
6
CONTINUOUS
10
85.4138
20
-112.582
11
85.4133
21
-112.578
0
LINE
8
BLACK
6
CONTINUOUS
10
85.4133
20
-112.578
11
85.4138
21
-112.573
0
LINE
8
BLACK
6
CONTINUOUS
10
85.4138
20
-112.573
11
85.4152
21
-112.568
0
LINE
8
BLACK
6
CONTINUOUS
10
85.4152
20
-112.568
11
85.4175
21
-112.564
0
LINE
8
BLACK
6
CONTINUOUS
10
85.4175
20
-112.564
11
85.4206
21
-112.56
0
LINE
8
BLACK
6
CONTINUOUS
10
85.4206
20
-112.56
11
85.4682
21
-112.512
0
LINE
8
BLACK
6
CONTINUOUS
10
85.4682
20
-112.512
11
85.4685
21
-112.512
0
LINE
8
BLACK
6
CONTINUOUS
10
85.4685
20
-112.512
11
85.4696
21
-112.511
0
LINE
8
BLACK
6
CONTINUOUS
10
85.4696
20
-112.511
11
85.4706
21
-112.51
0
LINE
8
BLACK
6
CONTINUOUS
10
85.4706
20
-112.51
11
85.4715
21
-112.51
0
LINE
8
BLACK
6
CONTINUOUS
10
85.4715
20
-112.51
11
85.4723
21
-112.509
0
LINE
8
BLACK
6
CONTINUOUS
10
85.4723
20
-112.509
11
85.4735
21
-112.508
0
LINE
8
BLACK
6
CONTINUOUS
10
85.4735
20
-112.508
11
85.4747
21
-112.508
0
LINE
8
BLACK
6
CONTINUOUS
10
85.4747
20
-112.508
11
85.57
21
-112.46
0
LINE
8
BLACK
6
CONTINUOUS
10
85.57
20
-112.46
11
85.5703
21
-112.46
0
LINE
8
BLACK
6
CONTINUOUS
10
85.5703
20
-112.46
11
85.571
21
-112.46
0
LINE
8
BLACK
6
CONTINUOUS
10
85.571
20
-112.46
11
85.5716
21
-112.459
0
LINE
8
BLACK
6
CONTINUOUS
10
85.5716
20
-112.459
11
85.5733
21
-112.459
0
LINE
8
BLACK
6
CONTINUOUS
10
85.5733
20
-112.459
11
85.5749
21
-112.458
0
LINE
8
BLACK
6
CONTINUOUS
10
85.5749
20
-112.458
11
85.5756
21
-112.458
0
LINE
8
BLACK
6
CONTINUOUS
10
85.5756
20
-112.458
11
85.5763
21
-112.458
0
LINE
8
BLACK
6
CONTINUOUS
10
85.5763
20
-112.458
11
85.578
21
-112.458
0
LINE
8
BLACK
6
CONTINUOUS
10
85.578
20
-112.458
11
85.5797
21
-112.457
0
LINE
8
BLACK
6
CONTINUOUS
10
85.5797
20
-112.457
11
85.5804
21
-112.457
0
LINE
8
BLACK
6
CONTINUOUS
10
85.5804
20
-112.457
11
85.5811
21
-112.457
0
LINE
8
BLACK
6
CONTINUOUS
10
85.5811
20
-112.457
11
85.8192
21
-112.457
0
LINE
8
BLACK
6
CONTINUOUS
10
85.8192
20
-112.457
11
85.8196
21
-112.457
  0
ENDSEC
  0
EOF
