G04 #@! TF.GenerationSoftware,KiCad,Pcbnew,(5.1.2)-2*
G04 #@! TF.CreationDate,2019-10-06T07:22:37-10:00*
G04 #@! TF.ProjectId,differential_robot(v1),64696666-6572-4656-9e74-69616c5f726f,rev?*
G04 #@! TF.SameCoordinates,Original*
G04 #@! TF.FileFunction,Profile,NP*
%FSLAX46Y46*%
G04 Gerber Fmt 4.6, Leading zero omitted, Abs format (unit mm)*
G04 Created by KiCad (PCBNEW (5.1.2)-2) date 2019-10-06 07:22:37*
%MOMM*%
%LPD*%
G04 APERTURE LIST*
%ADD10C,0.050000*%
G04 APERTURE END LIST*
D10*
X72390000Y-71120000D02*
X72390000Y-73660000D01*
X156210000Y-71120000D02*
X72390000Y-71120000D01*
X156210000Y-140970000D02*
X156210000Y-71120000D01*
X72390000Y-140970000D02*
X156210000Y-140970000D01*
X72390000Y-73660000D02*
X72390000Y-140970000D01*
X83464644Y-113482380D02*
X82893215Y-113482380D01*
X83178930Y-113482380D02*
X83178930Y-112482380D01*
X83083691Y-112625238D01*
X82988453Y-112720476D01*
X82893215Y-112768095D01*
X85438292Y-112577619D02*
X85485911Y-112530000D01*
X85581149Y-112482380D01*
X85819245Y-112482380D01*
X85914483Y-112530000D01*
X85962102Y-112577619D01*
X86009721Y-112672857D01*
X86009721Y-112768095D01*
X85962102Y-112910952D01*
X85390673Y-113482380D01*
X86009721Y-113482380D01*
X87932086Y-112482380D02*
X88551134Y-112482380D01*
X88217800Y-112863333D01*
X88360658Y-112863333D01*
X88455896Y-112910952D01*
X88503515Y-112958571D01*
X88551134Y-113053809D01*
X88551134Y-113291904D01*
X88503515Y-113387142D01*
X88455896Y-113434761D01*
X88360658Y-113482380D01*
X88074943Y-113482380D01*
X87979705Y-113434761D01*
X87932086Y-113387142D01*
X98092086Y-112482380D02*
X98711134Y-112482380D01*
X98377800Y-112863333D01*
X98520658Y-112863333D01*
X98615896Y-112910952D01*
X98663515Y-112958571D01*
X98711134Y-113053809D01*
X98711134Y-113291904D01*
X98663515Y-113387142D01*
X98615896Y-113434761D01*
X98520658Y-113482380D01*
X98234943Y-113482380D01*
X98139705Y-113434761D01*
X98092086Y-113387142D01*
X95598292Y-112577619D02*
X95645911Y-112530000D01*
X95741149Y-112482380D01*
X95979245Y-112482380D01*
X96074483Y-112530000D01*
X96122102Y-112577619D01*
X96169721Y-112672857D01*
X96169721Y-112768095D01*
X96122102Y-112910952D01*
X95550673Y-113482380D01*
X96169721Y-113482380D01*
X93624644Y-113482380D02*
X93053215Y-113482380D01*
X93338930Y-113482380D02*
X93338930Y-112482380D01*
X93243691Y-112625238D01*
X93148453Y-112720476D01*
X93053215Y-112768095D01*
M02*
