  0
SECTION
  2
HEADER
  9
$ANGBASE
  50
0.0
  9
$ANGDIR
  70
  1
  9
$MEASUREMENT
  70
0
  0
ENDSEC
  0
SECTION
  2
TABLES
  0
TABLE
  2
LTYPE
  70
4
  0
LTYPE
  5
40F
  2
CONTINUOUS
  70
0
  3
Solid line
  72
65
  73
0
  40
0.0
  0
LTYPE
  5
410
  2
DASHDOT
 70
0
  3
Dash Dot ____ _ ____ _
 72
65
 73
4
 40
2.0
 49
1.25
 49
-0.25
 49
0.25
 49
-0.25
  0
LTYPE
  5
411
  2
DASHED
 70
0
  3
Dashed __ __ __ __ __
 72
65
 73
2
 40
0.75
 49
0.5
 49
-0.25
  0
LTYPE
  5
43B
  2
DOTTED
 70
0
  3
Dotted .  .  .  .
 72
65
 73
2
 40
0.2
 49
0.0
 49
-0.2
  0
ENDTAB
  0
TABLE
  2
STYLE
  70
4
  0
STYLE
  2
KICAD
  70
0
  40
0
  41
1
  42
1
  50
0
  71
0
  3
isocp.shx
  0
STYLE
  2
KICADB
  70
0
  40
0
  41
1
  42
1
  50
0
  71
0
  3
isocp.shx
  0
STYLE
  2
KICADI
  70
0
  40
0
  41
1
  42
1
  50
15
  71
0
  3
isocp.shx
  0
STYLE
  2
KICADBI
  70
0
  40
0
  41
1
  42
1
  50
15
  71
0
  3
isocp.shx
  0
ENDTAB
  0
TABLE
  2
LAYER
  70
30
  0
LAYER
  2
BLACK
  70
0
  62
7
  6
CONTINUOUS
  0
LAYER
  2
GRAY1
  70
0
  62
251
  6
CONTINUOUS
  0
LAYER
  2
GRAY2
  70
0
  62
8
  6
CONTINUOUS
  0
LAYER
  2
GRAY3
  70
0
  62
9
  6
CONTINUOUS
  0
LAYER
  2
WHITE
  70
0
  62
7
  6
CONTINUOUS
  0
LAYER
  2
LYELLOW
  70
0
  62
51
  6
CONTINUOUS
  0
LAYER
  2
BLUE1
  70
0
  62
178
  6
CONTINUOUS
  0
LAYER
  2
GREEN1
  70
0
  62
98
  6
CONTINUOUS
  0
LAYER
  2
CYAN1
  70
0
  62
138
  6
CONTINUOUS
  0
LAYER
  2
RED1
  70
0
  62
18
  6
CONTINUOUS
  0
LAYER
  2
MAGENTA1
  70
0
  62
228
  6
CONTINUOUS
  0
LAYER
  2
BROWN1
  70
0
  62
58
  6
CONTINUOUS
  0
LAYER
  2
BLUE2
  70
0
  62
5
  6
CONTINUOUS
  0
LAYER
  2
GREEN2
  70
0
  62
3
  6
CONTINUOUS
  0
LAYER
  2
CYAN2
  70
0
  62
4
  6
CONTINUOUS
  0
LAYER
  2
RED2
  70
0
  62
1
  6
CONTINUOUS
  0
LAYER
  2
MAGENTA2
  70
0
  62
6
  6
CONTINUOUS
  0
LAYER
  2
BROWN2
  70
0
  62
54
  6
CONTINUOUS
  0
LAYER
  2
BLUE3
  70
0
  62
171
  6
CONTINUOUS
  0
LAYER
  2
GREEN3
  70
0
  62
91
  6
CONTINUOUS
  0
LAYER
  2
CYAN3
  70
0
  62
131
  6
CONTINUOUS
  0
LAYER
  2
RED3
  70
0
  62
11
  6
CONTINUOUS
  0
LAYER
  2
MAGENTA3
  70
0
  62
221
  6
CONTINUOUS
  0
LAYER
  2
YELLOW3
  70
0
  62
2
  6
CONTINUOUS
  0
LAYER
  2
BLUE4
  70
0
  62
5
  6
CONTINUOUS
  0
LAYER
  2
GREEN4
  70
0
  62
3
  6
CONTINUOUS
  0
LAYER
  2
CYAN4
  70
0
  62
4
  6
CONTINUOUS
  0
LAYER
  2
RED4
  70
0
  62
1
  6
CONTINUOUS
  0
LAYER
  2
MAGENTA4
  70
0
  62
6
  6
CONTINUOUS
  0
LAYER
  2
YELLOW4
  70
0
  62
2
  6
CONTINUOUS
  0
ENDTAB
  0
ENDSEC
  0
SECTION
  2
ENTITIES
0
LINE
8
BLACK
6
CONTINUOUS
10
106.847
20
-131.242
11
107.007
21
-131.291
0
LINE
8
BLACK
6
CONTINUOUS
10
107.007
20
-131.291
11
107.155
21
-131.37
0
LINE
8
BLACK
6
CONTINUOUS
10
107.155
20
-131.37
11
107.284
21
-131.476
0
LINE
8
BLACK
6
CONTINUOUS
10
107.284
20
-131.476
11
107.39
21
-131.605
0
LINE
8
BLACK
6
CONTINUOUS
10
107.39
20
-131.605
11
107.469
21
-131.753
0
LINE
8
BLACK
6
CONTINUOUS
10
107.469
20
-131.753
11
107.518
21
-131.913
0
LINE
8
BLACK
6
CONTINUOUS
10
107.518
20
-131.913
11
107.534
21
-132.08
0
LINE
8
BLACK
6
CONTINUOUS
10
107.534
20
-132.08
11
107.518
21
-132.247
0
LINE
8
BLACK
6
CONTINUOUS
10
107.518
20
-132.247
11
107.469
21
-132.407
0
LINE
8
BLACK
6
CONTINUOUS
10
107.469
20
-132.407
11
107.39
21
-132.555
0
LINE
8
BLACK
6
CONTINUOUS
10
107.39
20
-132.555
11
107.284
21
-132.684
0
LINE
8
BLACK
6
CONTINUOUS
10
107.284
20
-132.684
11
107.155
21
-132.79
0
LINE
8
BLACK
6
CONTINUOUS
10
107.155
20
-132.79
11
107.007
21
-132.869
0
LINE
8
BLACK
6
CONTINUOUS
10
107.007
20
-132.869
11
106.847
21
-132.918
0
LINE
8
BLACK
6
CONTINUOUS
10
106.847
20
-132.918
11
106.722
21
-132.93
0
LINE
8
BLACK
6
CONTINUOUS
10
106.722
20
-132.93
11
106.638
21
-132.93
0
LINE
8
BLACK
6
CONTINUOUS
10
106.638
20
-132.93
11
106.513
21
-132.918
0
LINE
8
BLACK
6
CONTINUOUS
10
106.513
20
-132.918
11
106.353
21
-132.869
0
LINE
8
BLACK
6
CONTINUOUS
10
106.353
20
-132.869
11
106.205
21
-132.79
0
LINE
8
BLACK
6
CONTINUOUS
10
106.205
20
-132.79
11
106.076
21
-132.684
0
LINE
8
BLACK
6
CONTINUOUS
10
106.076
20
-132.684
11
105.97
21
-132.555
0
LINE
8
BLACK
6
CONTINUOUS
10
105.97
20
-132.555
11
105.891
21
-132.407
0
LINE
8
BLACK
6
CONTINUOUS
10
105.891
20
-132.407
11
105.842
21
-132.247
0
LINE
8
BLACK
6
CONTINUOUS
10
105.842
20
-132.247
11
105.826
21
-132.08
0
LINE
8
BLACK
6
CONTINUOUS
10
105.826
20
-132.08
11
105.842
21
-131.913
0
LINE
8
BLACK
6
CONTINUOUS
10
105.842
20
-131.913
11
105.891
21
-131.753
0
LINE
8
BLACK
6
CONTINUOUS
10
105.891
20
-131.753
11
105.97
21
-131.605
0
LINE
8
BLACK
6
CONTINUOUS
10
105.97
20
-131.605
11
106.076
21
-131.476
0
LINE
8
BLACK
6
CONTINUOUS
10
106.076
20
-131.476
11
106.205
21
-131.37
0
LINE
8
BLACK
6
CONTINUOUS
10
106.205
20
-131.37
11
106.353
21
-131.291
0
LINE
8
BLACK
6
CONTINUOUS
10
106.353
20
-131.291
11
106.513
21
-131.242
0
LINE
8
BLACK
6
CONTINUOUS
10
106.513
20
-131.242
11
106.638
21
-131.23
0
LINE
8
BLACK
6
CONTINUOUS
10
106.638
20
-131.23
11
106.722
21
-131.23
0
LINE
8
BLACK
6
CONTINUOUS
10
106.722
20
-131.23
11
106.847
21
-131.242
0
LINE
8
BLACK
6
CONTINUOUS
10
132.727
20
-131.341
11
132.868
21
-131.384
0
LINE
8
BLACK
6
CONTINUOUS
10
132.868
20
-131.384
11
132.999
21
-131.453
0
LINE
8
BLACK
6
CONTINUOUS
10
132.999
20
-131.453
11
133.113
21
-131.547
0
LINE
8
BLACK
6
CONTINUOUS
10
133.113
20
-131.547
11
133.207
21
-131.661
0
LINE
8
BLACK
6
CONTINUOUS
10
133.207
20
-131.661
11
133.276
21
-131.792
0
LINE
8
BLACK
6
CONTINUOUS
10
133.276
20
-131.792
11
133.319
21
-131.933
0
LINE
8
BLACK
6
CONTINUOUS
10
133.319
20
-131.933
11
133.334
21
-132.08
0
LINE
8
BLACK
6
CONTINUOUS
10
133.334
20
-132.08
11
133.319
21
-132.227
0
LINE
8
BLACK
6
CONTINUOUS
10
133.319
20
-132.227
11
133.276
21
-132.368
0
LINE
8
BLACK
6
CONTINUOUS
10
133.276
20
-132.368
11
133.207
21
-132.499
0
LINE
8
BLACK
6
CONTINUOUS
10
133.207
20
-132.499
11
133.113
21
-132.613
0
LINE
8
BLACK
6
CONTINUOUS
10
133.113
20
-132.613
11
132.999
21
-132.707
0
LINE
8
BLACK
6
CONTINUOUS
10
132.999
20
-132.707
11
132.868
21
-132.776
0
LINE
8
BLACK
6
CONTINUOUS
10
132.868
20
-132.776
11
132.727
21
-132.819
0
LINE
8
BLACK
6
CONTINUOUS
10
132.727
20
-132.819
11
132.617
21
-132.83
0
LINE
8
BLACK
6
CONTINUOUS
10
132.617
20
-132.83
11
131.543
21
-132.83
0
LINE
8
BLACK
6
CONTINUOUS
10
131.543
20
-132.83
11
131.433
21
-132.819
0
LINE
8
BLACK
6
CONTINUOUS
10
131.433
20
-132.819
11
131.292
21
-132.776
0
LINE
8
BLACK
6
CONTINUOUS
10
131.292
20
-132.776
11
131.161
21
-132.707
0
LINE
8
BLACK
6
CONTINUOUS
10
131.161
20
-132.707
11
131.047
21
-132.613
0
LINE
8
BLACK
6
CONTINUOUS
10
131.047
20
-132.613
11
130.953
21
-132.499
0
LINE
8
BLACK
6
CONTINUOUS
10
130.953
20
-132.499
11
130.884
21
-132.368
0
LINE
8
BLACK
6
CONTINUOUS
10
130.884
20
-132.368
11
130.841
21
-132.227
0
LINE
8
BLACK
6
CONTINUOUS
10
130.841
20
-132.227
11
130.826
21
-132.08
0
LINE
8
BLACK
6
CONTINUOUS
10
130.826
20
-132.08
11
130.841
21
-131.933
0
LINE
8
BLACK
6
CONTINUOUS
10
130.841
20
-131.933
11
130.884
21
-131.792
0
LINE
8
BLACK
6
CONTINUOUS
10
130.884
20
-131.792
11
130.953
21
-131.661
0
LINE
8
BLACK
6
CONTINUOUS
10
130.953
20
-131.661
11
131.047
21
-131.547
0
LINE
8
BLACK
6
CONTINUOUS
10
131.047
20
-131.547
11
131.161
21
-131.453
0
LINE
8
BLACK
6
CONTINUOUS
10
131.161
20
-131.453
11
131.292
21
-131.384
0
LINE
8
BLACK
6
CONTINUOUS
10
131.292
20
-131.384
11
131.433
21
-131.341
0
LINE
8
BLACK
6
CONTINUOUS
10
131.433
20
-131.341
11
131.543
21
-131.33
0
LINE
8
BLACK
6
CONTINUOUS
10
131.543
20
-131.33
11
132.617
21
-131.33
0
LINE
8
BLACK
6
CONTINUOUS
10
132.617
20
-131.33
11
132.727
21
-131.341
0
LINE
8
BLACK
6
CONTINUOUS
10
140.347
20
-131.341
11
140.488
21
-131.384
0
LINE
8
BLACK
6
CONTINUOUS
10
140.488
20
-131.384
11
140.619
21
-131.453
0
LINE
8
BLACK
6
CONTINUOUS
10
140.619
20
-131.453
11
140.733
21
-131.547
0
LINE
8
BLACK
6
CONTINUOUS
10
140.733
20
-131.547
11
140.827
21
-131.661
0
LINE
8
BLACK
6
CONTINUOUS
10
140.827
20
-131.661
11
140.896
21
-131.792
0
LINE
8
BLACK
6
CONTINUOUS
10
140.896
20
-131.792
11
140.939
21
-131.933
0
LINE
8
BLACK
6
CONTINUOUS
10
140.939
20
-131.933
11
140.954
21
-132.08
0
LINE
8
BLACK
6
CONTINUOUS
10
140.954
20
-132.08
11
140.939
21
-132.227
0
LINE
8
BLACK
6
CONTINUOUS
10
140.939
20
-132.227
11
140.896
21
-132.368
0
LINE
8
BLACK
6
CONTINUOUS
10
140.896
20
-132.368
11
140.827
21
-132.499
0
LINE
8
BLACK
6
CONTINUOUS
10
140.827
20
-132.499
11
140.733
21
-132.613
0
LINE
8
BLACK
6
CONTINUOUS
10
140.733
20
-132.613
11
140.619
21
-132.707
0
LINE
8
BLACK
6
CONTINUOUS
10
140.619
20
-132.707
11
140.488
21
-132.776
0
LINE
8
BLACK
6
CONTINUOUS
10
140.488
20
-132.776
11
140.347
21
-132.819
0
LINE
8
BLACK
6
CONTINUOUS
10
140.347
20
-132.819
11
140.237
21
-132.83
0
LINE
8
BLACK
6
CONTINUOUS
10
140.237
20
-132.83
11
139.163
21
-132.83
0
LINE
8
BLACK
6
CONTINUOUS
10
139.163
20
-132.83
11
139.053
21
-132.819
0
LINE
8
BLACK
6
CONTINUOUS
10
139.053
20
-132.819
11
138.912
21
-132.776
0
LINE
8
BLACK
6
CONTINUOUS
10
138.912
20
-132.776
11
138.781
21
-132.707
0
LINE
8
BLACK
6
CONTINUOUS
10
138.781
20
-132.707
11
138.667
21
-132.613
0
LINE
8
BLACK
6
CONTINUOUS
10
138.667
20
-132.613
11
138.573
21
-132.499
0
LINE
8
BLACK
6
CONTINUOUS
10
138.573
20
-132.499
11
138.504
21
-132.368
0
LINE
8
BLACK
6
CONTINUOUS
10
138.504
20
-132.368
11
138.461
21
-132.227
0
LINE
8
BLACK
6
CONTINUOUS
10
138.461
20
-132.227
11
138.446
21
-132.08
0
LINE
8
BLACK
6
CONTINUOUS
10
138.446
20
-132.08
11
138.461
21
-131.933
0
LINE
8
BLACK
6
CONTINUOUS
10
138.461
20
-131.933
11
138.504
21
-131.792
0
LINE
8
BLACK
6
CONTINUOUS
10
138.504
20
-131.792
11
138.573
21
-131.661
0
LINE
8
BLACK
6
CONTINUOUS
10
138.573
20
-131.661
11
138.667
21
-131.547
0
LINE
8
BLACK
6
CONTINUOUS
10
138.667
20
-131.547
11
138.781
21
-131.453
0
LINE
8
BLACK
6
CONTINUOUS
10
138.781
20
-131.453
11
138.912
21
-131.384
0
LINE
8
BLACK
6
CONTINUOUS
10
138.912
20
-131.384
11
139.053
21
-131.341
0
LINE
8
BLACK
6
CONTINUOUS
10
139.053
20
-131.341
11
139.163
21
-131.33
0
LINE
8
BLACK
6
CONTINUOUS
10
139.163
20
-131.33
11
140.237
21
-131.33
0
LINE
8
BLACK
6
CONTINUOUS
10
140.237
20
-131.33
11
140.347
21
-131.341
0
LINE
8
BLACK
6
CONTINUOUS
10
106.847
20
-128.702
11
107.007
21
-128.751
0
LINE
8
BLACK
6
CONTINUOUS
10
107.007
20
-128.751
11
107.155
21
-128.83
0
LINE
8
BLACK
6
CONTINUOUS
10
107.155
20
-128.83
11
107.284
21
-128.936
0
LINE
8
BLACK
6
CONTINUOUS
10
107.284
20
-128.936
11
107.39
21
-129.065
0
LINE
8
BLACK
6
CONTINUOUS
10
107.39
20
-129.065
11
107.469
21
-129.213
0
LINE
8
BLACK
6
CONTINUOUS
10
107.469
20
-129.213
11
107.518
21
-129.373
0
LINE
8
BLACK
6
CONTINUOUS
10
107.518
20
-129.373
11
107.534
21
-129.54
0
LINE
8
BLACK
6
CONTINUOUS
10
107.534
20
-129.54
11
107.518
21
-129.707
0
LINE
8
BLACK
6
CONTINUOUS
10
107.518
20
-129.707
11
107.469
21
-129.867
0
LINE
8
BLACK
6
CONTINUOUS
10
107.469
20
-129.867
11
107.39
21
-130.015
0
LINE
8
BLACK
6
CONTINUOUS
10
107.39
20
-130.015
11
107.284
21
-130.144
0
LINE
8
BLACK
6
CONTINUOUS
10
107.284
20
-130.144
11
107.155
21
-130.25
0
LINE
8
BLACK
6
CONTINUOUS
10
107.155
20
-130.25
11
107.007
21
-130.329
0
LINE
8
BLACK
6
CONTINUOUS
10
107.007
20
-130.329
11
106.847
21
-130.378
0
LINE
8
BLACK
6
CONTINUOUS
10
106.847
20
-130.378
11
106.722
21
-130.39
0
LINE
8
BLACK
6
CONTINUOUS
10
106.722
20
-130.39
11
106.638
21
-130.39
0
LINE
8
BLACK
6
CONTINUOUS
10
106.638
20
-130.39
11
106.513
21
-130.378
0
LINE
8
BLACK
6
CONTINUOUS
10
106.513
20
-130.378
11
106.353
21
-130.329
0
LINE
8
BLACK
6
CONTINUOUS
10
106.353
20
-130.329
11
106.205
21
-130.25
0
LINE
8
BLACK
6
CONTINUOUS
10
106.205
20
-130.25
11
106.076
21
-130.144
0
LINE
8
BLACK
6
CONTINUOUS
10
106.076
20
-130.144
11
105.97
21
-130.015
0
LINE
8
BLACK
6
CONTINUOUS
10
105.97
20
-130.015
11
105.891
21
-129.867
0
LINE
8
BLACK
6
CONTINUOUS
10
105.891
20
-129.867
11
105.842
21
-129.707
0
LINE
8
BLACK
6
CONTINUOUS
10
105.842
20
-129.707
11
105.826
21
-129.54
0
LINE
8
BLACK
6
CONTINUOUS
10
105.826
20
-129.54
11
105.842
21
-129.373
0
LINE
8
BLACK
6
CONTINUOUS
10
105.842
20
-129.373
11
105.891
21
-129.213
0
LINE
8
BLACK
6
CONTINUOUS
10
105.891
20
-129.213
11
105.97
21
-129.065
0
LINE
8
BLACK
6
CONTINUOUS
10
105.97
20
-129.065
11
106.076
21
-128.936
0
LINE
8
BLACK
6
CONTINUOUS
10
106.076
20
-128.936
11
106.205
21
-128.83
0
LINE
8
BLACK
6
CONTINUOUS
10
106.205
20
-128.83
11
106.353
21
-128.751
0
LINE
8
BLACK
6
CONTINUOUS
10
106.353
20
-128.751
11
106.513
21
-128.702
0
LINE
8
BLACK
6
CONTINUOUS
10
106.513
20
-128.702
11
106.638
21
-128.69
0
LINE
8
BLACK
6
CONTINUOUS
10
106.638
20
-128.69
11
106.722
21
-128.69
0
LINE
8
BLACK
6
CONTINUOUS
10
106.722
20
-128.69
11
106.847
21
-128.702
0
LINE
8
BLACK
6
CONTINUOUS
10
132.727
20
-128.801
11
132.868
21
-128.844
0
LINE
8
BLACK
6
CONTINUOUS
10
132.868
20
-128.844
11
132.999
21
-128.913
0
LINE
8
BLACK
6
CONTINUOUS
10
132.999
20
-128.913
11
133.113
21
-129.007
0
LINE
8
BLACK
6
CONTINUOUS
10
133.113
20
-129.007
11
133.207
21
-129.121
0
LINE
8
BLACK
6
CONTINUOUS
10
133.207
20
-129.121
11
133.276
21
-129.252
0
LINE
8
BLACK
6
CONTINUOUS
10
133.276
20
-129.252
11
133.319
21
-129.393
0
LINE
8
BLACK
6
CONTINUOUS
10
133.319
20
-129.393
11
133.334
21
-129.54
0
LINE
8
BLACK
6
CONTINUOUS
10
133.334
20
-129.54
11
133.319
21
-129.687
0
LINE
8
BLACK
6
CONTINUOUS
10
133.319
20
-129.687
11
133.276
21
-129.828
0
LINE
8
BLACK
6
CONTINUOUS
10
133.276
20
-129.828
11
133.207
21
-129.959
0
LINE
8
BLACK
6
CONTINUOUS
10
133.207
20
-129.959
11
133.113
21
-130.073
0
LINE
8
BLACK
6
CONTINUOUS
10
133.113
20
-130.073
11
132.999
21
-130.167
0
LINE
8
BLACK
6
CONTINUOUS
10
132.999
20
-130.167
11
132.868
21
-130.236
0
LINE
8
BLACK
6
CONTINUOUS
10
132.868
20
-130.236
11
132.727
21
-130.279
0
LINE
8
BLACK
6
CONTINUOUS
10
132.727
20
-130.279
11
132.617
21
-130.29
0
LINE
8
BLACK
6
CONTINUOUS
10
132.617
20
-130.29
11
131.543
21
-130.29
0
LINE
8
BLACK
6
CONTINUOUS
10
131.543
20
-130.29
11
131.433
21
-130.279
0
LINE
8
BLACK
6
CONTINUOUS
10
131.433
20
-130.279
11
131.292
21
-130.236
0
LINE
8
BLACK
6
CONTINUOUS
10
131.292
20
-130.236
11
131.161
21
-130.167
0
LINE
8
BLACK
6
CONTINUOUS
10
131.161
20
-130.167
11
131.047
21
-130.073
0
LINE
8
BLACK
6
CONTINUOUS
10
131.047
20
-130.073
11
130.953
21
-129.959
0
LINE
8
BLACK
6
CONTINUOUS
10
130.953
20
-129.959
11
130.884
21
-129.828
0
LINE
8
BLACK
6
CONTINUOUS
10
130.884
20
-129.828
11
130.841
21
-129.687
0
LINE
8
BLACK
6
CONTINUOUS
10
130.841
20
-129.687
11
130.826
21
-129.54
0
LINE
8
BLACK
6
CONTINUOUS
10
130.826
20
-129.54
11
130.841
21
-129.393
0
LINE
8
BLACK
6
CONTINUOUS
10
130.841
20
-129.393
11
130.884
21
-129.252
0
LINE
8
BLACK
6
CONTINUOUS
10
130.884
20
-129.252
11
130.953
21
-129.121
0
LINE
8
BLACK
6
CONTINUOUS
10
130.953
20
-129.121
11
131.047
21
-129.007
0
LINE
8
BLACK
6
CONTINUOUS
10
131.047
20
-129.007
11
131.161
21
-128.913
0
LINE
8
BLACK
6
CONTINUOUS
10
131.161
20
-128.913
11
131.292
21
-128.844
0
LINE
8
BLACK
6
CONTINUOUS
10
131.292
20
-128.844
11
131.433
21
-128.801
0
LINE
8
BLACK
6
CONTINUOUS
10
131.433
20
-128.801
11
131.543
21
-128.79
0
LINE
8
BLACK
6
CONTINUOUS
10
131.543
20
-128.79
11
132.617
21
-128.79
0
LINE
8
BLACK
6
CONTINUOUS
10
132.617
20
-128.79
11
132.727
21
-128.801
0
LINE
8
BLACK
6
CONTINUOUS
10
140.347
20
-128.801
11
140.488
21
-128.844
0
LINE
8
BLACK
6
CONTINUOUS
10
140.488
20
-128.844
11
140.619
21
-128.913
0
LINE
8
BLACK
6
CONTINUOUS
10
140.619
20
-128.913
11
140.733
21
-129.007
0
LINE
8
BLACK
6
CONTINUOUS
10
140.733
20
-129.007
11
140.827
21
-129.121
0
LINE
8
BLACK
6
CONTINUOUS
10
140.827
20
-129.121
11
140.896
21
-129.252
0
LINE
8
BLACK
6
CONTINUOUS
10
140.896
20
-129.252
11
140.939
21
-129.393
0
LINE
8
BLACK
6
CONTINUOUS
10
140.939
20
-129.393
11
140.954
21
-129.54
0
LINE
8
BLACK
6
CONTINUOUS
10
140.954
20
-129.54
11
140.939
21
-129.687
0
LINE
8
BLACK
6
CONTINUOUS
10
140.939
20
-129.687
11
140.896
21
-129.828
0
LINE
8
BLACK
6
CONTINUOUS
10
140.896
20
-129.828
11
140.827
21
-129.959
0
LINE
8
BLACK
6
CONTINUOUS
10
140.827
20
-129.959
11
140.733
21
-130.073
0
LINE
8
BLACK
6
CONTINUOUS
10
140.733
20
-130.073
11
140.619
21
-130.167
0
LINE
8
BLACK
6
CONTINUOUS
10
140.619
20
-130.167
11
140.488
21
-130.236
0
LINE
8
BLACK
6
CONTINUOUS
10
140.488
20
-130.236
11
140.347
21
-130.279
0
LINE
8
BLACK
6
CONTINUOUS
10
140.347
20
-130.279
11
140.237
21
-130.29
0
LINE
8
BLACK
6
CONTINUOUS
10
140.237
20
-130.29
11
139.163
21
-130.29
0
LINE
8
BLACK
6
CONTINUOUS
10
139.163
20
-130.29
11
139.053
21
-130.279
0
LINE
8
BLACK
6
CONTINUOUS
10
139.053
20
-130.279
11
138.912
21
-130.236
0
LINE
8
BLACK
6
CONTINUOUS
10
138.912
20
-130.236
11
138.781
21
-130.167
0
LINE
8
BLACK
6
CONTINUOUS
10
138.781
20
-130.167
11
138.667
21
-130.073
0
LINE
8
BLACK
6
CONTINUOUS
10
138.667
20
-130.073
11
138.573
21
-129.959
0
LINE
8
BLACK
6
CONTINUOUS
10
138.573
20
-129.959
11
138.504
21
-129.828
0
LINE
8
BLACK
6
CONTINUOUS
10
138.504
20
-129.828
11
138.461
21
-129.687
0
LINE
8
BLACK
6
CONTINUOUS
10
138.461
20
-129.687
11
138.446
21
-129.54
0
LINE
8
BLACK
6
CONTINUOUS
10
138.446
20
-129.54
11
138.461
21
-129.393
0
LINE
8
BLACK
6
CONTINUOUS
10
138.461
20
-129.393
11
138.504
21
-129.252
0
LINE
8
BLACK
6
CONTINUOUS
10
138.504
20
-129.252
11
138.573
21
-129.121
0
LINE
8
BLACK
6
CONTINUOUS
10
138.573
20
-129.121
11
138.667
21
-129.007
0
LINE
8
BLACK
6
CONTINUOUS
10
138.667
20
-129.007
11
138.781
21
-128.913
0
LINE
8
BLACK
6
CONTINUOUS
10
138.781
20
-128.913
11
138.912
21
-128.844
0
LINE
8
BLACK
6
CONTINUOUS
10
138.912
20
-128.844
11
139.053
21
-128.801
0
LINE
8
BLACK
6
CONTINUOUS
10
139.053
20
-128.801
11
139.163
21
-128.79
0
LINE
8
BLACK
6
CONTINUOUS
10
139.163
20
-128.79
11
140.237
21
-128.79
0
LINE
8
BLACK
6
CONTINUOUS
10
140.237
20
-128.79
11
140.347
21
-128.801
0
LINE
8
BLACK
6
CONTINUOUS
10
147.967
20
-127.531
11
148.108
21
-127.574
0
LINE
8
BLACK
6
CONTINUOUS
10
148.108
20
-127.574
11
148.239
21
-127.643
0
LINE
8
BLACK
6
CONTINUOUS
10
148.239
20
-127.643
11
148.353
21
-127.737
0
LINE
8
BLACK
6
CONTINUOUS
10
148.353
20
-127.737
11
148.447
21
-127.851
0
LINE
8
BLACK
6
CONTINUOUS
10
148.447
20
-127.851
11
148.516
21
-127.982
0
LINE
8
BLACK
6
CONTINUOUS
10
148.516
20
-127.982
11
148.559
21
-128.123
0
LINE
8
BLACK
6
CONTINUOUS
10
148.559
20
-128.123
11
148.574
21
-128.27
0
LINE
8
BLACK
6
CONTINUOUS
10
148.574
20
-128.27
11
148.559
21
-128.417
0
LINE
8
BLACK
6
CONTINUOUS
10
148.559
20
-128.417
11
148.516
21
-128.558
0
LINE
8
BLACK
6
CONTINUOUS
10
148.516
20
-128.558
11
148.447
21
-128.689
0
LINE
8
BLACK
6
CONTINUOUS
10
148.447
20
-128.689
11
148.353
21
-128.803
0
LINE
8
BLACK
6
CONTINUOUS
10
148.353
20
-128.803
11
148.239
21
-128.897
0
LINE
8
BLACK
6
CONTINUOUS
10
148.239
20
-128.897
11
148.108
21
-128.966
0
LINE
8
BLACK
6
CONTINUOUS
10
148.108
20
-128.966
11
147.967
21
-129.009
0
LINE
8
BLACK
6
CONTINUOUS
10
147.967
20
-129.009
11
147.857
21
-129.02
0
LINE
8
BLACK
6
CONTINUOUS
10
147.857
20
-129.02
11
146.783
21
-129.02
0
LINE
8
BLACK
6
CONTINUOUS
10
146.783
20
-129.02
11
146.673
21
-129.009
0
LINE
8
BLACK
6
CONTINUOUS
10
146.673
20
-129.009
11
146.532
21
-128.966
0
LINE
8
BLACK
6
CONTINUOUS
10
146.532
20
-128.966
11
146.401
21
-128.897
0
LINE
8
BLACK
6
CONTINUOUS
10
146.401
20
-128.897
11
146.287
21
-128.803
0
LINE
8
BLACK
6
CONTINUOUS
10
146.287
20
-128.803
11
146.193
21
-128.689
0
LINE
8
BLACK
6
CONTINUOUS
10
146.193
20
-128.689
11
146.124
21
-128.558
0
LINE
8
BLACK
6
CONTINUOUS
10
146.124
20
-128.558
11
146.081
21
-128.417
0
LINE
8
BLACK
6
CONTINUOUS
10
146.081
20
-128.417
11
146.066
21
-128.27
0
LINE
8
BLACK
6
CONTINUOUS
10
146.066
20
-128.27
11
146.081
21
-128.123
0
LINE
8
BLACK
6
CONTINUOUS
10
146.081
20
-128.123
11
146.124
21
-127.982
0
LINE
8
BLACK
6
CONTINUOUS
10
146.124
20
-127.982
11
146.193
21
-127.851
0
LINE
8
BLACK
6
CONTINUOUS
10
146.193
20
-127.851
11
146.287
21
-127.737
0
LINE
8
BLACK
6
CONTINUOUS
10
146.287
20
-127.737
11
146.401
21
-127.643
0
LINE
8
BLACK
6
CONTINUOUS
10
146.401
20
-127.643
11
146.532
21
-127.574
0
LINE
8
BLACK
6
CONTINUOUS
10
146.532
20
-127.574
11
146.673
21
-127.531
0
LINE
8
BLACK
6
CONTINUOUS
10
146.673
20
-127.531
11
146.783
21
-127.52
0
LINE
8
BLACK
6
CONTINUOUS
10
146.783
20
-127.52
11
147.857
21
-127.52
0
LINE
8
BLACK
6
CONTINUOUS
10
147.857
20
-127.52
11
147.967
21
-127.531
0
LINE
8
BLACK
6
CONTINUOUS
10
126.73
20
-128.97
11
124.73
21
-128.97
0
LINE
8
BLACK
6
CONTINUOUS
10
124.73
20
-128.97
11
124.73
21
-127.57
0
LINE
8
BLACK
6
CONTINUOUS
10
124.73
20
-127.57
11
126.73
21
-127.57
0
LINE
8
BLACK
6
CONTINUOUS
10
126.73
20
-127.57
11
126.73
21
-128.97
0
LINE
8
BLACK
6
CONTINUOUS
10
106.847
20
-126.162
11
107.007
21
-126.211
0
LINE
8
BLACK
6
CONTINUOUS
10
107.007
20
-126.211
11
107.155
21
-126.29
0
LINE
8
BLACK
6
CONTINUOUS
10
107.155
20
-126.29
11
107.284
21
-126.396
0
LINE
8
BLACK
6
CONTINUOUS
10
107.284
20
-126.396
11
107.39
21
-126.525
0
LINE
8
BLACK
6
CONTINUOUS
10
107.39
20
-126.525
11
107.469
21
-126.673
0
LINE
8
BLACK
6
CONTINUOUS
10
107.469
20
-126.673
11
107.518
21
-126.833
0
LINE
8
BLACK
6
CONTINUOUS
10
107.518
20
-126.833
11
107.534
21
-127
0
LINE
8
BLACK
6
CONTINUOUS
10
107.534
20
-127
11
107.518
21
-127.167
0
LINE
8
BLACK
6
CONTINUOUS
10
107.518
20
-127.167
11
107.469
21
-127.327
0
LINE
8
BLACK
6
CONTINUOUS
10
107.469
20
-127.327
11
107.39
21
-127.475
0
LINE
8
BLACK
6
CONTINUOUS
10
107.39
20
-127.475
11
107.284
21
-127.604
0
LINE
8
BLACK
6
CONTINUOUS
10
107.284
20
-127.604
11
107.155
21
-127.71
0
LINE
8
BLACK
6
CONTINUOUS
10
107.155
20
-127.71
11
107.007
21
-127.789
0
LINE
8
BLACK
6
CONTINUOUS
10
107.007
20
-127.789
11
106.847
21
-127.838
0
LINE
8
BLACK
6
CONTINUOUS
10
106.847
20
-127.838
11
106.722
21
-127.85
0
LINE
8
BLACK
6
CONTINUOUS
10
106.722
20
-127.85
11
106.638
21
-127.85
0
LINE
8
BLACK
6
CONTINUOUS
10
106.638
20
-127.85
11
106.513
21
-127.838
0
LINE
8
BLACK
6
CONTINUOUS
10
106.513
20
-127.838
11
106.353
21
-127.789
0
LINE
8
BLACK
6
CONTINUOUS
10
106.353
20
-127.789
11
106.205
21
-127.71
0
LINE
8
BLACK
6
CONTINUOUS
10
106.205
20
-127.71
11
106.076
21
-127.604
0
LINE
8
BLACK
6
CONTINUOUS
10
106.076
20
-127.604
11
105.97
21
-127.475
0
LINE
8
BLACK
6
CONTINUOUS
10
105.97
20
-127.475
11
105.891
21
-127.327
0
LINE
8
BLACK
6
CONTINUOUS
10
105.891
20
-127.327
11
105.842
21
-127.167
0
LINE
8
BLACK
6
CONTINUOUS
10
105.842
20
-127.167
11
105.826
21
-127
0
LINE
8
BLACK
6
CONTINUOUS
10
105.826
20
-127
11
105.842
21
-126.833
0
LINE
8
BLACK
6
CONTINUOUS
10
105.842
20
-126.833
11
105.891
21
-126.673
0
LINE
8
BLACK
6
CONTINUOUS
10
105.891
20
-126.673
11
105.97
21
-126.525
0
LINE
8
BLACK
6
CONTINUOUS
10
105.97
20
-126.525
11
106.076
21
-126.396
0
LINE
8
BLACK
6
CONTINUOUS
10
106.076
20
-126.396
11
106.205
21
-126.29
0
LINE
8
BLACK
6
CONTINUOUS
10
106.205
20
-126.29
11
106.353
21
-126.211
0
LINE
8
BLACK
6
CONTINUOUS
10
106.353
20
-126.211
11
106.513
21
-126.162
0
LINE
8
BLACK
6
CONTINUOUS
10
106.513
20
-126.162
11
106.638
21
-126.15
0
LINE
8
BLACK
6
CONTINUOUS
10
106.638
20
-126.15
11
106.722
21
-126.15
0
LINE
8
BLACK
6
CONTINUOUS
10
106.722
20
-126.15
11
106.847
21
-126.162
0
LINE
8
BLACK
6
CONTINUOUS
10
102.4
20
-127.8
11
100.8
21
-127.8
0
LINE
8
BLACK
6
CONTINUOUS
10
100.8
20
-127.8
11
100.8
21
-126.2
0
LINE
8
BLACK
6
CONTINUOUS
10
100.8
20
-126.2
11
102.4
21
-126.2
0
LINE
8
BLACK
6
CONTINUOUS
10
102.4
20
-126.2
11
102.4
21
-127.8
0
LINE
8
BLACK
6
CONTINUOUS
10
99.3334
20
-126.231
11
99.4789
21
-126.291
0
LINE
8
BLACK
6
CONTINUOUS
10
99.4789
20
-126.291
11
99.61
21
-126.379
0
LINE
8
BLACK
6
CONTINUOUS
10
99.61
20
-126.379
11
99.7214
21
-126.49
0
LINE
8
BLACK
6
CONTINUOUS
10
99.7214
20
-126.49
11
99.809
21
-126.621
0
LINE
8
BLACK
6
CONTINUOUS
10
99.809
20
-126.621
11
99.8693
21
-126.767
0
LINE
8
BLACK
6
CONTINUOUS
10
99.8693
20
-126.767
11
99.9
21
-126.921
0
LINE
8
BLACK
6
CONTINUOUS
10
99.9
20
-126.921
11
99.9
21
-127.079
0
LINE
8
BLACK
6
CONTINUOUS
10
99.9
20
-127.079
11
99.8693
21
-127.233
0
LINE
8
BLACK
6
CONTINUOUS
10
99.8693
20
-127.233
11
99.809
21
-127.379
0
LINE
8
BLACK
6
CONTINUOUS
10
99.809
20
-127.379
11
99.7214
21
-127.51
0
LINE
8
BLACK
6
CONTINUOUS
10
99.7214
20
-127.51
11
99.61
21
-127.621
0
LINE
8
BLACK
6
CONTINUOUS
10
99.61
20
-127.621
11
99.4789
21
-127.709
0
LINE
8
BLACK
6
CONTINUOUS
10
99.4789
20
-127.709
11
99.3334
21
-127.769
0
LINE
8
BLACK
6
CONTINUOUS
10
99.3334
20
-127.769
11
99.1788
21
-127.8
0
LINE
8
BLACK
6
CONTINUOUS
10
99.1788
20
-127.8
11
99.0212
21
-127.8
0
LINE
8
BLACK
6
CONTINUOUS
10
99.0212
20
-127.8
11
98.8666
21
-127.769
0
LINE
8
BLACK
6
CONTINUOUS
10
98.8666
20
-127.769
11
98.7211
21
-127.709
0
LINE
8
BLACK
6
CONTINUOUS
10
98.7211
20
-127.709
11
98.59
21
-127.621
0
LINE
8
BLACK
6
CONTINUOUS
10
98.59
20
-127.621
11
98.4786
21
-127.51
0
LINE
8
BLACK
6
CONTINUOUS
10
98.4786
20
-127.51
11
98.391
21
-127.379
0
LINE
8
BLACK
6
CONTINUOUS
10
98.391
20
-127.379
11
98.3307
21
-127.233
0
LINE
8
BLACK
6
CONTINUOUS
10
98.3307
20
-127.233
11
98.3
21
-127.079
0
LINE
8
BLACK
6
CONTINUOUS
10
98.3
20
-127.079
11
98.3
21
-126.921
0
LINE
8
BLACK
6
CONTINUOUS
10
98.3
20
-126.921
11
98.3307
21
-126.767
0
LINE
8
BLACK
6
CONTINUOUS
10
98.3307
20
-126.767
11
98.391
21
-126.621
0
LINE
8
BLACK
6
CONTINUOUS
10
98.391
20
-126.621
11
98.4786
21
-126.49
0
LINE
8
BLACK
6
CONTINUOUS
10
98.4786
20
-126.49
11
98.59
21
-126.379
0
LINE
8
BLACK
6
CONTINUOUS
10
98.59
20
-126.379
11
98.7211
21
-126.291
0
LINE
8
BLACK
6
CONTINUOUS
10
98.7211
20
-126.291
11
98.8666
21
-126.231
0
LINE
8
BLACK
6
CONTINUOUS
10
98.8666
20
-126.231
11
99.0212
21
-126.2
0
LINE
8
BLACK
6
CONTINUOUS
10
99.0212
20
-126.2
11
99.1788
21
-126.2
0
LINE
8
BLACK
6
CONTINUOUS
10
99.1788
20
-126.2
11
99.3334
21
-126.231
0
LINE
8
BLACK
6
CONTINUOUS
10
96.7534
20
-126.231
11
96.8989
21
-126.291
0
LINE
8
BLACK
6
CONTINUOUS
10
96.8989
20
-126.291
11
97.03
21
-126.379
0
LINE
8
BLACK
6
CONTINUOUS
10
97.03
20
-126.379
11
97.1414
21
-126.49
0
LINE
8
BLACK
6
CONTINUOUS
10
97.1414
20
-126.49
11
97.229
21
-126.621
0
LINE
8
BLACK
6
CONTINUOUS
10
97.229
20
-126.621
11
97.2893
21
-126.767
0
LINE
8
BLACK
6
CONTINUOUS
10
97.2893
20
-126.767
11
97.32
21
-126.921
0
LINE
8
BLACK
6
CONTINUOUS
10
97.32
20
-126.921
11
97.32
21
-127.079
0
LINE
8
BLACK
6
CONTINUOUS
10
97.32
20
-127.079
11
97.2893
21
-127.233
0
LINE
8
BLACK
6
CONTINUOUS
10
97.2893
20
-127.233
11
97.229
21
-127.379
0
LINE
8
BLACK
6
CONTINUOUS
10
97.229
20
-127.379
11
97.1414
21
-127.51
0
LINE
8
BLACK
6
CONTINUOUS
10
97.1414
20
-127.51
11
97.03
21
-127.621
0
LINE
8
BLACK
6
CONTINUOUS
10
97.03
20
-127.621
11
96.8989
21
-127.709
0
LINE
8
BLACK
6
CONTINUOUS
10
96.8989
20
-127.709
11
96.7534
21
-127.769
0
LINE
8
BLACK
6
CONTINUOUS
10
96.7534
20
-127.769
11
96.5988
21
-127.8
0
LINE
8
BLACK
6
CONTINUOUS
10
96.5988
20
-127.8
11
96.4412
21
-127.8
0
LINE
8
BLACK
6
CONTINUOUS
10
96.4412
20
-127.8
11
96.2866
21
-127.769
0
LINE
8
BLACK
6
CONTINUOUS
10
96.2866
20
-127.769
11
96.1411
21
-127.709
0
LINE
8
BLACK
6
CONTINUOUS
10
96.1411
20
-127.709
11
96.01
21
-127.621
0
LINE
8
BLACK
6
CONTINUOUS
10
96.01
20
-127.621
11
95.8986
21
-127.51
0
LINE
8
BLACK
6
CONTINUOUS
10
95.8986
20
-127.51
11
95.811
21
-127.379
0
LINE
8
BLACK
6
CONTINUOUS
10
95.811
20
-127.379
11
95.7507
21
-127.233
0
LINE
8
BLACK
6
CONTINUOUS
10
95.7507
20
-127.233
11
95.72
21
-127.079
0
LINE
8
BLACK
6
CONTINUOUS
10
95.72
20
-127.079
11
95.72
21
-126.921
0
LINE
8
BLACK
6
CONTINUOUS
10
95.72
20
-126.921
11
95.7507
21
-126.767
0
LINE
8
BLACK
6
CONTINUOUS
10
95.7507
20
-126.767
11
95.811
21
-126.621
0
LINE
8
BLACK
6
CONTINUOUS
10
95.811
20
-126.621
11
95.8986
21
-126.49
0
LINE
8
BLACK
6
CONTINUOUS
10
95.8986
20
-126.49
11
96.01
21
-126.379
0
LINE
8
BLACK
6
CONTINUOUS
10
96.01
20
-126.379
11
96.1411
21
-126.291
0
LINE
8
BLACK
6
CONTINUOUS
10
96.1411
20
-126.291
11
96.2866
21
-126.231
0
LINE
8
BLACK
6
CONTINUOUS
10
96.2866
20
-126.231
11
96.4412
21
-126.2
0
LINE
8
BLACK
6
CONTINUOUS
10
96.4412
20
-126.2
11
96.5988
21
-126.2
0
LINE
8
BLACK
6
CONTINUOUS
10
96.5988
20
-126.2
11
96.7534
21
-126.231
0
LINE
8
BLACK
6
CONTINUOUS
10
94.82
20
-127.8
11
93.22
21
-127.8
0
LINE
8
BLACK
6
CONTINUOUS
10
93.22
20
-127.8
11
93.22
21
-126.2
0
LINE
8
BLACK
6
CONTINUOUS
10
93.22
20
-126.2
11
94.82
21
-126.2
0
LINE
8
BLACK
6
CONTINUOUS
10
94.82
20
-126.2
11
94.82
21
-127.8
0
LINE
8
BLACK
6
CONTINUOUS
10
88.47
20
-127.8
11
86.87
21
-127.8
0
LINE
8
BLACK
6
CONTINUOUS
10
86.87
20
-127.8
11
86.87
21
-126.2
0
LINE
8
BLACK
6
CONTINUOUS
10
86.87
20
-126.2
11
88.47
21
-126.2
0
LINE
8
BLACK
6
CONTINUOUS
10
88.47
20
-126.2
11
88.47
21
-127.8
0
LINE
8
BLACK
6
CONTINUOUS
10
90.4034
20
-126.231
11
90.5489
21
-126.291
0
LINE
8
BLACK
6
CONTINUOUS
10
90.5489
20
-126.291
11
90.68
21
-126.379
0
LINE
8
BLACK
6
CONTINUOUS
10
90.68
20
-126.379
11
90.7914
21
-126.49
0
LINE
8
BLACK
6
CONTINUOUS
10
90.7914
20
-126.49
11
90.879
21
-126.621
0
LINE
8
BLACK
6
CONTINUOUS
10
90.879
20
-126.621
11
90.9393
21
-126.767
0
LINE
8
BLACK
6
CONTINUOUS
10
90.9393
20
-126.767
11
90.97
21
-126.921
0
LINE
8
BLACK
6
CONTINUOUS
10
90.97
20
-126.921
11
90.97
21
-127.079
0
LINE
8
BLACK
6
CONTINUOUS
10
90.97
20
-127.079
11
90.9393
21
-127.233
0
LINE
8
BLACK
6
CONTINUOUS
10
90.9393
20
-127.233
11
90.879
21
-127.379
0
LINE
8
BLACK
6
CONTINUOUS
10
90.879
20
-127.379
11
90.7914
21
-127.51
0
LINE
8
BLACK
6
CONTINUOUS
10
90.7914
20
-127.51
11
90.68
21
-127.621
0
LINE
8
BLACK
6
CONTINUOUS
10
90.68
20
-127.621
11
90.5489
21
-127.709
0
LINE
8
BLACK
6
CONTINUOUS
10
90.5489
20
-127.709
11
90.4034
21
-127.769
0
LINE
8
BLACK
6
CONTINUOUS
10
90.4034
20
-127.769
11
90.2488
21
-127.8
0
LINE
8
BLACK
6
CONTINUOUS
10
90.2488
20
-127.8
11
90.0912
21
-127.8
0
LINE
8
BLACK
6
CONTINUOUS
10
90.0912
20
-127.8
11
89.9366
21
-127.769
0
LINE
8
BLACK
6
CONTINUOUS
10
89.9366
20
-127.769
11
89.7911
21
-127.709
0
LINE
8
BLACK
6
CONTINUOUS
10
89.7911
20
-127.709
11
89.66
21
-127.621
0
LINE
8
BLACK
6
CONTINUOUS
10
89.66
20
-127.621
11
89.5486
21
-127.51
0
LINE
8
BLACK
6
CONTINUOUS
10
89.5486
20
-127.51
11
89.461
21
-127.379
0
LINE
8
BLACK
6
CONTINUOUS
10
89.461
20
-127.379
11
89.4007
21
-127.233
0
LINE
8
BLACK
6
CONTINUOUS
10
89.4007
20
-127.233
11
89.37
21
-127.079
0
LINE
8
BLACK
6
CONTINUOUS
10
89.37
20
-127.079
11
89.37
21
-126.921
0
LINE
8
BLACK
6
CONTINUOUS
10
89.37
20
-126.921
11
89.4007
21
-126.767
0
LINE
8
BLACK
6
CONTINUOUS
10
89.4007
20
-126.767
11
89.461
21
-126.621
0
LINE
8
BLACK
6
CONTINUOUS
10
89.461
20
-126.621
11
89.5486
21
-126.49
0
LINE
8
BLACK
6
CONTINUOUS
10
89.5486
20
-126.49
11
89.66
21
-126.379
0
LINE
8
BLACK
6
CONTINUOUS
10
89.66
20
-126.379
11
89.7911
21
-126.291
0
LINE
8
BLACK
6
CONTINUOUS
10
89.7911
20
-126.291
11
89.9366
21
-126.231
0
LINE
8
BLACK
6
CONTINUOUS
10
89.9366
20
-126.231
11
90.0912
21
-126.2
0
LINE
8
BLACK
6
CONTINUOUS
10
90.0912
20
-126.2
11
90.2488
21
-126.2
0
LINE
8
BLACK
6
CONTINUOUS
10
90.2488
20
-126.2
11
90.4034
21
-126.231
0
LINE
8
BLACK
6
CONTINUOUS
10
85.2834
20
-126.231
11
85.4289
21
-126.291
0
LINE
8
BLACK
6
CONTINUOUS
10
85.4289
20
-126.291
11
85.56
21
-126.379
0
LINE
8
BLACK
6
CONTINUOUS
10
85.56
20
-126.379
11
85.6714
21
-126.49
0
LINE
8
BLACK
6
CONTINUOUS
10
85.6714
20
-126.49
11
85.759
21
-126.621
0
LINE
8
BLACK
6
CONTINUOUS
10
85.759
20
-126.621
11
85.8193
21
-126.767
0
LINE
8
BLACK
6
CONTINUOUS
10
85.8193
20
-126.767
11
85.85
21
-126.921
0
LINE
8
BLACK
6
CONTINUOUS
10
85.85
20
-126.921
11
85.85
21
-127.079
0
LINE
8
BLACK
6
CONTINUOUS
10
85.85
20
-127.079
11
85.8193
21
-127.233
0
LINE
8
BLACK
6
CONTINUOUS
10
85.8193
20
-127.233
11
85.759
21
-127.379
0
LINE
8
BLACK
6
CONTINUOUS
10
85.759
20
-127.379
11
85.6714
21
-127.51
0
LINE
8
BLACK
6
CONTINUOUS
10
85.6714
20
-127.51
11
85.56
21
-127.621
0
LINE
8
BLACK
6
CONTINUOUS
10
85.56
20
-127.621
11
85.4289
21
-127.709
0
LINE
8
BLACK
6
CONTINUOUS
10
85.4289
20
-127.709
11
85.2834
21
-127.769
0
LINE
8
BLACK
6
CONTINUOUS
10
85.2834
20
-127.769
11
85.1288
21
-127.8
0
LINE
8
BLACK
6
CONTINUOUS
10
85.1288
20
-127.8
11
84.9712
21
-127.8
0
LINE
8
BLACK
6
CONTINUOUS
10
84.9712
20
-127.8
11
84.8166
21
-127.769
0
LINE
8
BLACK
6
CONTINUOUS
10
84.8166
20
-127.769
11
84.6711
21
-127.709
0
LINE
8
BLACK
6
CONTINUOUS
10
84.6711
20
-127.709
11
84.54
21
-127.621
0
LINE
8
BLACK
6
CONTINUOUS
10
84.54
20
-127.621
11
84.4286
21
-127.51
0
LINE
8
BLACK
6
CONTINUOUS
10
84.4286
20
-127.51
11
84.341
21
-127.379
0
LINE
8
BLACK
6
CONTINUOUS
10
84.341
20
-127.379
11
84.2807
21
-127.233
0
LINE
8
BLACK
6
CONTINUOUS
10
84.2807
20
-127.233
11
84.25
21
-127.079
0
LINE
8
BLACK
6
CONTINUOUS
10
84.25
20
-127.079
11
84.25
21
-126.921
0
LINE
8
BLACK
6
CONTINUOUS
10
84.25
20
-126.921
11
84.2807
21
-126.767
0
LINE
8
BLACK
6
CONTINUOUS
10
84.2807
20
-126.767
11
84.341
21
-126.621
0
LINE
8
BLACK
6
CONTINUOUS
10
84.341
20
-126.621
11
84.4286
21
-126.49
0
LINE
8
BLACK
6
CONTINUOUS
10
84.4286
20
-126.49
11
84.54
21
-126.379
0
LINE
8
BLACK
6
CONTINUOUS
10
84.54
20
-126.379
11
84.6711
21
-126.291
0
LINE
8
BLACK
6
CONTINUOUS
10
84.6711
20
-126.291
11
84.8166
21
-126.231
0
LINE
8
BLACK
6
CONTINUOUS
10
84.8166
20
-126.231
11
84.9712
21
-126.2
0
LINE
8
BLACK
6
CONTINUOUS
10
84.9712
20
-126.2
11
85.1288
21
-126.2
0
LINE
8
BLACK
6
CONTINUOUS
10
85.1288
20
-126.2
11
85.2834
21
-126.231
0
LINE
8
BLACK
6
CONTINUOUS
10
83.35
20
-127.8
11
81.75
21
-127.8
0
LINE
8
BLACK
6
CONTINUOUS
10
81.75
20
-127.8
11
81.75
21
-126.2
0
LINE
8
BLACK
6
CONTINUOUS
10
81.75
20
-126.2
11
83.35
21
-126.2
0
LINE
8
BLACK
6
CONTINUOUS
10
83.35
20
-126.2
11
83.35
21
-127.8
0
LINE
8
BLACK
6
CONTINUOUS
10
140.347
20
-126.261
11
140.488
21
-126.304
0
LINE
8
BLACK
6
CONTINUOUS
10
140.488
20
-126.304
11
140.619
21
-126.373
0
LINE
8
BLACK
6
CONTINUOUS
10
140.619
20
-126.373
11
140.733
21
-126.467
0
LINE
8
BLACK
6
CONTINUOUS
10
140.733
20
-126.467
11
140.827
21
-126.581
0
LINE
8
BLACK
6
CONTINUOUS
10
140.827
20
-126.581
11
140.896
21
-126.712
0
LINE
8
BLACK
6
CONTINUOUS
10
140.896
20
-126.712
11
140.939
21
-126.853
0
LINE
8
BLACK
6
CONTINUOUS
10
140.939
20
-126.853
11
140.954
21
-127
0
LINE
8
BLACK
6
CONTINUOUS
10
140.954
20
-127
11
140.939
21
-127.147
0
LINE
8
BLACK
6
CONTINUOUS
10
140.939
20
-127.147
11
140.896
21
-127.288
0
LINE
8
BLACK
6
CONTINUOUS
10
140.896
20
-127.288
11
140.827
21
-127.419
0
LINE
8
BLACK
6
CONTINUOUS
10
140.827
20
-127.419
11
140.733
21
-127.533
0
LINE
8
BLACK
6
CONTINUOUS
10
140.733
20
-127.533
11
140.619
21
-127.627
0
LINE
8
BLACK
6
CONTINUOUS
10
140.619
20
-127.627
11
140.488
21
-127.696
0
LINE
8
BLACK
6
CONTINUOUS
10
140.488
20
-127.696
11
140.347
21
-127.739
0
LINE
8
BLACK
6
CONTINUOUS
10
140.347
20
-127.739
11
140.237
21
-127.75
0
LINE
8
BLACK
6
CONTINUOUS
10
140.237
20
-127.75
11
139.163
21
-127.75
0
LINE
8
BLACK
6
CONTINUOUS
10
139.163
20
-127.75
11
139.053
21
-127.739
0
LINE
8
BLACK
6
CONTINUOUS
10
139.053
20
-127.739
11
138.912
21
-127.696
0
LINE
8
BLACK
6
CONTINUOUS
10
138.912
20
-127.696
11
138.781
21
-127.627
0
LINE
8
BLACK
6
CONTINUOUS
10
138.781
20
-127.627
11
138.667
21
-127.533
0
LINE
8
BLACK
6
CONTINUOUS
10
138.667
20
-127.533
11
138.573
21
-127.419
0
LINE
8
BLACK
6
CONTINUOUS
10
138.573
20
-127.419
11
138.504
21
-127.288
0
LINE
8
BLACK
6
CONTINUOUS
10
138.504
20
-127.288
11
138.461
21
-127.147
0
LINE
8
BLACK
6
CONTINUOUS
10
138.461
20
-127.147
11
138.446
21
-127
0
LINE
8
BLACK
6
CONTINUOUS
10
138.446
20
-127
11
138.461
21
-126.853
0
LINE
8
BLACK
6
CONTINUOUS
10
138.461
20
-126.853
11
138.504
21
-126.712
0
LINE
8
BLACK
6
CONTINUOUS
10
138.504
20
-126.712
11
138.573
21
-126.581
0
LINE
8
BLACK
6
CONTINUOUS
10
138.573
20
-126.581
11
138.667
21
-126.467
0
LINE
8
BLACK
6
CONTINUOUS
10
138.667
20
-126.467
11
138.781
21
-126.373
0
LINE
8
BLACK
6
CONTINUOUS
10
138.781
20
-126.373
11
138.912
21
-126.304
0
LINE
8
BLACK
6
CONTINUOUS
10
138.912
20
-126.304
11
139.053
21
-126.261
0
LINE
8
BLACK
6
CONTINUOUS
10
139.053
20
-126.261
11
139.163
21
-126.25
0
LINE
8
BLACK
6
CONTINUOUS
10
139.163
20
-126.25
11
140.237
21
-126.25
0
LINE
8
BLACK
6
CONTINUOUS
10
140.237
20
-126.25
11
140.347
21
-126.261
0
LINE
8
BLACK
6
CONTINUOUS
10
132.727
20
-126.261
11
132.868
21
-126.304
0
LINE
8
BLACK
6
CONTINUOUS
10
132.868
20
-126.304
11
132.999
21
-126.373
0
LINE
8
BLACK
6
CONTINUOUS
10
132.999
20
-126.373
11
133.113
21
-126.467
0
LINE
8
BLACK
6
CONTINUOUS
10
133.113
20
-126.467
11
133.207
21
-126.581
0
LINE
8
BLACK
6
CONTINUOUS
10
133.207
20
-126.581
11
133.276
21
-126.712
0
LINE
8
BLACK
6
CONTINUOUS
10
133.276
20
-126.712
11
133.319
21
-126.853
0
LINE
8
BLACK
6
CONTINUOUS
10
133.319
20
-126.853
11
133.334
21
-127
0
LINE
8
BLACK
6
CONTINUOUS
10
133.334
20
-127
11
133.319
21
-127.147
0
LINE
8
BLACK
6
CONTINUOUS
10
133.319
20
-127.147
11
133.276
21
-127.288
0
LINE
8
BLACK
6
CONTINUOUS
10
133.276
20
-127.288
11
133.207
21
-127.419
0
LINE
8
BLACK
6
CONTINUOUS
10
133.207
20
-127.419
11
133.113
21
-127.533
0
LINE
8
BLACK
6
CONTINUOUS
10
133.113
20
-127.533
11
132.999
21
-127.627
0
LINE
8
BLACK
6
CONTINUOUS
10
132.999
20
-127.627
11
132.868
21
-127.696
0
LINE
8
BLACK
6
CONTINUOUS
10
132.868
20
-127.696
11
132.727
21
-127.739
0
LINE
8
BLACK
6
CONTINUOUS
10
132.727
20
-127.739
11
132.617
21
-127.75
0
LINE
8
BLACK
6
CONTINUOUS
10
132.617
20
-127.75
11
131.543
21
-127.75
0
LINE
8
BLACK
6
CONTINUOUS
10
131.543
20
-127.75
11
131.433
21
-127.739
0
LINE
8
BLACK
6
CONTINUOUS
10
131.433
20
-127.739
11
131.292
21
-127.696
0
LINE
8
BLACK
6
CONTINUOUS
10
131.292
20
-127.696
11
131.161
21
-127.627
0
LINE
8
BLACK
6
CONTINUOUS
10
131.161
20
-127.627
11
131.047
21
-127.533
0
LINE
8
BLACK
6
CONTINUOUS
10
131.047
20
-127.533
11
130.953
21
-127.419
0
LINE
8
BLACK
6
CONTINUOUS
10
130.953
20
-127.419
11
130.884
21
-127.288
0
LINE
8
BLACK
6
CONTINUOUS
10
130.884
20
-127.288
11
130.841
21
-127.147
0
LINE
8
BLACK
6
CONTINUOUS
10
130.841
20
-127.147
11
130.826
21
-127
0
LINE
8
BLACK
6
CONTINUOUS
10
130.826
20
-127
11
130.841
21
-126.853
0
LINE
8
BLACK
6
CONTINUOUS
10
130.841
20
-126.853
11
130.884
21
-126.712
0
LINE
8
BLACK
6
CONTINUOUS
10
130.884
20
-126.712
11
130.953
21
-126.581
0
LINE
8
BLACK
6
CONTINUOUS
10
130.953
20
-126.581
11
131.047
21
-126.467
0
LINE
8
BLACK
6
CONTINUOUS
10
131.047
20
-126.467
11
131.161
21
-126.373
0
LINE
8
BLACK
6
CONTINUOUS
10
131.161
20
-126.373
11
131.292
21
-126.304
0
LINE
8
BLACK
6
CONTINUOUS
10
131.292
20
-126.304
11
131.433
21
-126.261
0
LINE
8
BLACK
6
CONTINUOUS
10
131.433
20
-126.261
11
131.543
21
-126.25
0
LINE
8
BLACK
6
CONTINUOUS
10
131.543
20
-126.25
11
132.617
21
-126.25
0
LINE
8
BLACK
6
CONTINUOUS
10
132.617
20
-126.25
11
132.727
21
-126.261
0
LINE
8
BLACK
6
CONTINUOUS
10
147.967
20
-124.991
11
148.108
21
-125.034
0
LINE
8
BLACK
6
CONTINUOUS
10
148.108
20
-125.034
11
148.239
21
-125.103
0
LINE
8
BLACK
6
CONTINUOUS
10
148.239
20
-125.103
11
148.353
21
-125.197
0
LINE
8
BLACK
6
CONTINUOUS
10
148.353
20
-125.197
11
148.447
21
-125.311
0
LINE
8
BLACK
6
CONTINUOUS
10
148.447
20
-125.311
11
148.516
21
-125.442
0
LINE
8
BLACK
6
CONTINUOUS
10
148.516
20
-125.442
11
148.559
21
-125.583
0
LINE
8
BLACK
6
CONTINUOUS
10
148.559
20
-125.583
11
148.574
21
-125.73
0
LINE
8
BLACK
6
CONTINUOUS
10
148.574
20
-125.73
11
148.559
21
-125.877
0
LINE
8
BLACK
6
CONTINUOUS
10
148.559
20
-125.877
11
148.516
21
-126.018
0
LINE
8
BLACK
6
CONTINUOUS
10
148.516
20
-126.018
11
148.447
21
-126.149
0
LINE
8
BLACK
6
CONTINUOUS
10
148.447
20
-126.149
11
148.353
21
-126.263
0
LINE
8
BLACK
6
CONTINUOUS
10
148.353
20
-126.263
11
148.239
21
-126.357
0
LINE
8
BLACK
6
CONTINUOUS
10
148.239
20
-126.357
11
148.108
21
-126.426
0
LINE
8
BLACK
6
CONTINUOUS
10
148.108
20
-126.426
11
147.967
21
-126.469
0
LINE
8
BLACK
6
CONTINUOUS
10
147.967
20
-126.469
11
147.857
21
-126.48
0
LINE
8
BLACK
6
CONTINUOUS
10
147.857
20
-126.48
11
146.783
21
-126.48
0
LINE
8
BLACK
6
CONTINUOUS
10
146.783
20
-126.48
11
146.673
21
-126.469
0
LINE
8
BLACK
6
CONTINUOUS
10
146.673
20
-126.469
11
146.532
21
-126.426
0
LINE
8
BLACK
6
CONTINUOUS
10
146.532
20
-126.426
11
146.401
21
-126.357
0
LINE
8
BLACK
6
CONTINUOUS
10
146.401
20
-126.357
11
146.287
21
-126.263
0
LINE
8
BLACK
6
CONTINUOUS
10
146.287
20
-126.263
11
146.193
21
-126.149
0
LINE
8
BLACK
6
CONTINUOUS
10
146.193
20
-126.149
11
146.124
21
-126.018
0
LINE
8
BLACK
6
CONTINUOUS
10
146.124
20
-126.018
11
146.081
21
-125.877
0
LINE
8
BLACK
6
CONTINUOUS
10
146.081
20
-125.877
11
146.066
21
-125.73
0
LINE
8
BLACK
6
CONTINUOUS
10
146.066
20
-125.73
11
146.081
21
-125.583
0
LINE
8
BLACK
6
CONTINUOUS
10
146.081
20
-125.583
11
146.124
21
-125.442
0
LINE
8
BLACK
6
CONTINUOUS
10
146.124
20
-125.442
11
146.193
21
-125.311
0
LINE
8
BLACK
6
CONTINUOUS
10
146.193
20
-125.311
11
146.287
21
-125.197
0
LINE
8
BLACK
6
CONTINUOUS
10
146.287
20
-125.197
11
146.401
21
-125.103
0
LINE
8
BLACK
6
CONTINUOUS
10
146.401
20
-125.103
11
146.532
21
-125.034
0
LINE
8
BLACK
6
CONTINUOUS
10
146.532
20
-125.034
11
146.673
21
-124.991
0
LINE
8
BLACK
6
CONTINUOUS
10
146.673
20
-124.991
11
146.783
21
-124.98
0
LINE
8
BLACK
6
CONTINUOUS
10
146.783
20
-124.98
11
147.857
21
-124.98
0
LINE
8
BLACK
6
CONTINUOUS
10
147.857
20
-124.98
11
147.967
21
-124.991
0
LINE
8
BLACK
6
CONTINUOUS
10
126.73
20
-126.43
11
124.73
21
-126.43
0
LINE
8
BLACK
6
CONTINUOUS
10
124.73
20
-126.43
11
124.73
21
-125.03
0
LINE
8
BLACK
6
CONTINUOUS
10
124.73
20
-125.03
11
126.73
21
-125.03
0
LINE
8
BLACK
6
CONTINUOUS
10
126.73
20
-125.03
11
126.73
21
-126.43
0
LINE
8
BLACK
6
CONTINUOUS
10
106.847
20
-123.622
11
107.007
21
-123.671
0
LINE
8
BLACK
6
CONTINUOUS
10
107.007
20
-123.671
11
107.155
21
-123.75
0
LINE
8
BLACK
6
CONTINUOUS
10
107.155
20
-123.75
11
107.284
21
-123.856
0
LINE
8
BLACK
6
CONTINUOUS
10
107.284
20
-123.856
11
107.39
21
-123.985
0
LINE
8
BLACK
6
CONTINUOUS
10
107.39
20
-123.985
11
107.469
21
-124.133
0
LINE
8
BLACK
6
CONTINUOUS
10
107.469
20
-124.133
11
107.518
21
-124.293
0
LINE
8
BLACK
6
CONTINUOUS
10
107.518
20
-124.293
11
107.534
21
-124.46
0
LINE
8
BLACK
6
CONTINUOUS
10
107.534
20
-124.46
11
107.518
21
-124.627
0
LINE
8
BLACK
6
CONTINUOUS
10
107.518
20
-124.627
11
107.469
21
-124.787
0
LINE
8
BLACK
6
CONTINUOUS
10
107.469
20
-124.787
11
107.39
21
-124.935
0
LINE
8
BLACK
6
CONTINUOUS
10
107.39
20
-124.935
11
107.284
21
-125.064
0
LINE
8
BLACK
6
CONTINUOUS
10
107.284
20
-125.064
11
107.155
21
-125.17
0
LINE
8
BLACK
6
CONTINUOUS
10
107.155
20
-125.17
11
107.007
21
-125.249
0
LINE
8
BLACK
6
CONTINUOUS
10
107.007
20
-125.249
11
106.847
21
-125.298
0
LINE
8
BLACK
6
CONTINUOUS
10
106.847
20
-125.298
11
106.722
21
-125.31
0
LINE
8
BLACK
6
CONTINUOUS
10
106.722
20
-125.31
11
106.638
21
-125.31
0
LINE
8
BLACK
6
CONTINUOUS
10
106.638
20
-125.31
11
106.513
21
-125.298
0
LINE
8
BLACK
6
CONTINUOUS
10
106.513
20
-125.298
11
106.353
21
-125.249
0
LINE
8
BLACK
6
CONTINUOUS
10
106.353
20
-125.249
11
106.205
21
-125.17
0
LINE
8
BLACK
6
CONTINUOUS
10
106.205
20
-125.17
11
106.076
21
-125.064
0
LINE
8
BLACK
6
CONTINUOUS
10
106.076
20
-125.064
11
105.97
21
-124.935
0
LINE
8
BLACK
6
CONTINUOUS
10
105.97
20
-124.935
11
105.891
21
-124.787
0
LINE
8
BLACK
6
CONTINUOUS
10
105.891
20
-124.787
11
105.842
21
-124.627
0
LINE
8
BLACK
6
CONTINUOUS
10
105.842
20
-124.627
11
105.826
21
-124.46
0
LINE
8
BLACK
6
CONTINUOUS
10
105.826
20
-124.46
11
105.842
21
-124.293
0
LINE
8
BLACK
6
CONTINUOUS
10
105.842
20
-124.293
11
105.891
21
-124.133
0
LINE
8
BLACK
6
CONTINUOUS
10
105.891
20
-124.133
11
105.97
21
-123.985
0
LINE
8
BLACK
6
CONTINUOUS
10
105.97
20
-123.985
11
106.076
21
-123.856
0
LINE
8
BLACK
6
CONTINUOUS
10
106.076
20
-123.856
11
106.205
21
-123.75
0
LINE
8
BLACK
6
CONTINUOUS
10
106.205
20
-123.75
11
106.353
21
-123.671
0
LINE
8
BLACK
6
CONTINUOUS
10
106.353
20
-123.671
11
106.513
21
-123.622
0
LINE
8
BLACK
6
CONTINUOUS
10
106.513
20
-123.622
11
106.638
21
-123.61
0
LINE
8
BLACK
6
CONTINUOUS
10
106.638
20
-123.61
11
106.722
21
-123.61
0
LINE
8
BLACK
6
CONTINUOUS
10
106.722
20
-123.61
11
106.847
21
-123.622
0
LINE
8
BLACK
6
CONTINUOUS
10
132.727
20
-123.721
11
132.868
21
-123.764
0
LINE
8
BLACK
6
CONTINUOUS
10
132.868
20
-123.764
11
132.999
21
-123.833
0
LINE
8
BLACK
6
CONTINUOUS
10
132.999
20
-123.833
11
133.113
21
-123.927
0
LINE
8
BLACK
6
CONTINUOUS
10
133.113
20
-123.927
11
133.207
21
-124.041
0
LINE
8
BLACK
6
CONTINUOUS
10
133.207
20
-124.041
11
133.276
21
-124.172
0
LINE
8
BLACK
6
CONTINUOUS
10
133.276
20
-124.172
11
133.319
21
-124.313
0
LINE
8
BLACK
6
CONTINUOUS
10
133.319
20
-124.313
11
133.334
21
-124.46
0
LINE
8
BLACK
6
CONTINUOUS
10
133.334
20
-124.46
11
133.319
21
-124.607
0
LINE
8
BLACK
6
CONTINUOUS
10
133.319
20
-124.607
11
133.276
21
-124.748
0
LINE
8
BLACK
6
CONTINUOUS
10
133.276
20
-124.748
11
133.207
21
-124.879
0
LINE
8
BLACK
6
CONTINUOUS
10
133.207
20
-124.879
11
133.113
21
-124.993
0
LINE
8
BLACK
6
CONTINUOUS
10
133.113
20
-124.993
11
132.999
21
-125.087
0
LINE
8
BLACK
6
CONTINUOUS
10
132.999
20
-125.087
11
132.868
21
-125.156
0
LINE
8
BLACK
6
CONTINUOUS
10
132.868
20
-125.156
11
132.727
21
-125.199
0
LINE
8
BLACK
6
CONTINUOUS
10
132.727
20
-125.199
11
132.617
21
-125.21
0
LINE
8
BLACK
6
CONTINUOUS
10
132.617
20
-125.21
11
131.543
21
-125.21
0
LINE
8
BLACK
6
CONTINUOUS
10
131.543
20
-125.21
11
131.433
21
-125.199
0
LINE
8
BLACK
6
CONTINUOUS
10
131.433
20
-125.199
11
131.292
21
-125.156
0
LINE
8
BLACK
6
CONTINUOUS
10
131.292
20
-125.156
11
131.161
21
-125.087
0
LINE
8
BLACK
6
CONTINUOUS
10
131.161
20
-125.087
11
131.047
21
-124.993
0
LINE
8
BLACK
6
CONTINUOUS
10
131.047
20
-124.993
11
130.953
21
-124.879
0
LINE
8
BLACK
6
CONTINUOUS
10
130.953
20
-124.879
11
130.884
21
-124.748
0
LINE
8
BLACK
6
CONTINUOUS
10
130.884
20
-124.748
11
130.841
21
-124.607
0
LINE
8
BLACK
6
CONTINUOUS
10
130.841
20
-124.607
11
130.826
21
-124.46
0
LINE
8
BLACK
6
CONTINUOUS
10
130.826
20
-124.46
11
130.841
21
-124.313
0
LINE
8
BLACK
6
CONTINUOUS
10
130.841
20
-124.313
11
130.884
21
-124.172
0
LINE
8
BLACK
6
CONTINUOUS
10
130.884
20
-124.172
11
130.953
21
-124.041
0
LINE
8
BLACK
6
CONTINUOUS
10
130.953
20
-124.041
11
131.047
21
-123.927
0
LINE
8
BLACK
6
CONTINUOUS
10
131.047
20
-123.927
11
131.161
21
-123.833
0
LINE
8
BLACK
6
CONTINUOUS
10
131.161
20
-123.833
11
131.292
21
-123.764
0
LINE
8
BLACK
6
CONTINUOUS
10
131.292
20
-123.764
11
131.433
21
-123.721
0
LINE
8
BLACK
6
CONTINUOUS
10
131.433
20
-123.721
11
131.543
21
-123.71
0
LINE
8
BLACK
6
CONTINUOUS
10
131.543
20
-123.71
11
132.617
21
-123.71
0
LINE
8
BLACK
6
CONTINUOUS
10
132.617
20
-123.71
11
132.727
21
-123.721
0
LINE
8
BLACK
6
CONTINUOUS
10
140.347
20
-123.721
11
140.488
21
-123.764
0
LINE
8
BLACK
6
CONTINUOUS
10
140.488
20
-123.764
11
140.619
21
-123.833
0
LINE
8
BLACK
6
CONTINUOUS
10
140.619
20
-123.833
11
140.733
21
-123.927
0
LINE
8
BLACK
6
CONTINUOUS
10
140.733
20
-123.927
11
140.827
21
-124.041
0
LINE
8
BLACK
6
CONTINUOUS
10
140.827
20
-124.041
11
140.896
21
-124.172
0
LINE
8
BLACK
6
CONTINUOUS
10
140.896
20
-124.172
11
140.939
21
-124.313
0
LINE
8
BLACK
6
CONTINUOUS
10
140.939
20
-124.313
11
140.954
21
-124.46
0
LINE
8
BLACK
6
CONTINUOUS
10
140.954
20
-124.46
11
140.939
21
-124.607
0
LINE
8
BLACK
6
CONTINUOUS
10
140.939
20
-124.607
11
140.896
21
-124.748
0
LINE
8
BLACK
6
CONTINUOUS
10
140.896
20
-124.748
11
140.827
21
-124.879
0
LINE
8
BLACK
6
CONTINUOUS
10
140.827
20
-124.879
11
140.733
21
-124.993
0
LINE
8
BLACK
6
CONTINUOUS
10
140.733
20
-124.993
11
140.619
21
-125.087
0
LINE
8
BLACK
6
CONTINUOUS
10
140.619
20
-125.087
11
140.488
21
-125.156
0
LINE
8
BLACK
6
CONTINUOUS
10
140.488
20
-125.156
11
140.347
21
-125.199
0
LINE
8
BLACK
6
CONTINUOUS
10
140.347
20
-125.199
11
140.237
21
-125.21
0
LINE
8
BLACK
6
CONTINUOUS
10
140.237
20
-125.21
11
139.163
21
-125.21
0
LINE
8
BLACK
6
CONTINUOUS
10
139.163
20
-125.21
11
139.053
21
-125.199
0
LINE
8
BLACK
6
CONTINUOUS
10
139.053
20
-125.199
11
138.912
21
-125.156
0
LINE
8
BLACK
6
CONTINUOUS
10
138.912
20
-125.156
11
138.781
21
-125.087
0
LINE
8
BLACK
6
CONTINUOUS
10
138.781
20
-125.087
11
138.667
21
-124.993
0
LINE
8
BLACK
6
CONTINUOUS
10
138.667
20
-124.993
11
138.573
21
-124.879
0
LINE
8
BLACK
6
CONTINUOUS
10
138.573
20
-124.879
11
138.504
21
-124.748
0
LINE
8
BLACK
6
CONTINUOUS
10
138.504
20
-124.748
11
138.461
21
-124.607
0
LINE
8
BLACK
6
CONTINUOUS
10
138.461
20
-124.607
11
138.446
21
-124.46
0
LINE
8
BLACK
6
CONTINUOUS
10
138.446
20
-124.46
11
138.461
21
-124.313
0
LINE
8
BLACK
6
CONTINUOUS
10
138.461
20
-124.313
11
138.504
21
-124.172
0
LINE
8
BLACK
6
CONTINUOUS
10
138.504
20
-124.172
11
138.573
21
-124.041
0
LINE
8
BLACK
6
CONTINUOUS
10
138.573
20
-124.041
11
138.667
21
-123.927
0
LINE
8
BLACK
6
CONTINUOUS
10
138.667
20
-123.927
11
138.781
21
-123.833
0
LINE
8
BLACK
6
CONTINUOUS
10
138.781
20
-123.833
11
138.912
21
-123.764
0
LINE
8
BLACK
6
CONTINUOUS
10
138.912
20
-123.764
11
139.053
21
-123.721
0
LINE
8
BLACK
6
CONTINUOUS
10
139.053
20
-123.721
11
139.163
21
-123.71
0
LINE
8
BLACK
6
CONTINUOUS
10
139.163
20
-123.71
11
140.237
21
-123.71
0
LINE
8
BLACK
6
CONTINUOUS
10
140.237
20
-123.71
11
140.347
21
-123.721
0
LINE
8
BLACK
6
CONTINUOUS
10
147.967
20
-122.451
11
148.108
21
-122.494
0
LINE
8
BLACK
6
CONTINUOUS
10
148.108
20
-122.494
11
148.239
21
-122.563
0
LINE
8
BLACK
6
CONTINUOUS
10
148.239
20
-122.563
11
148.353
21
-122.657
0
LINE
8
BLACK
6
CONTINUOUS
10
148.353
20
-122.657
11
148.447
21
-122.771
0
LINE
8
BLACK
6
CONTINUOUS
10
148.447
20
-122.771
11
148.516
21
-122.902
0
LINE
8
BLACK
6
CONTINUOUS
10
148.516
20
-122.902
11
148.559
21
-123.043
0
LINE
8
BLACK
6
CONTINUOUS
10
148.559
20
-123.043
11
148.574
21
-123.19
0
LINE
8
BLACK
6
CONTINUOUS
10
148.574
20
-123.19
11
148.559
21
-123.337
0
LINE
8
BLACK
6
CONTINUOUS
10
148.559
20
-123.337
11
148.516
21
-123.478
0
LINE
8
BLACK
6
CONTINUOUS
10
148.516
20
-123.478
11
148.447
21
-123.609
0
LINE
8
BLACK
6
CONTINUOUS
10
148.447
20
-123.609
11
148.353
21
-123.723
0
LINE
8
BLACK
6
CONTINUOUS
10
148.353
20
-123.723
11
148.239
21
-123.817
0
LINE
8
BLACK
6
CONTINUOUS
10
148.239
20
-123.817
11
148.108
21
-123.886
0
LINE
8
BLACK
6
CONTINUOUS
10
148.108
20
-123.886
11
147.967
21
-123.929
0
LINE
8
BLACK
6
CONTINUOUS
10
147.967
20
-123.929
11
147.857
21
-123.94
0
LINE
8
BLACK
6
CONTINUOUS
10
147.857
20
-123.94
11
146.783
21
-123.94
0
LINE
8
BLACK
6
CONTINUOUS
10
146.783
20
-123.94
11
146.673
21
-123.929
0
LINE
8
BLACK
6
CONTINUOUS
10
146.673
20
-123.929
11
146.532
21
-123.886
0
LINE
8
BLACK
6
CONTINUOUS
10
146.532
20
-123.886
11
146.401
21
-123.817
0
LINE
8
BLACK
6
CONTINUOUS
10
146.401
20
-123.817
11
146.287
21
-123.723
0
LINE
8
BLACK
6
CONTINUOUS
10
146.287
20
-123.723
11
146.193
21
-123.609
0
LINE
8
BLACK
6
CONTINUOUS
10
146.193
20
-123.609
11
146.124
21
-123.478
0
LINE
8
BLACK
6
CONTINUOUS
10
146.124
20
-123.478
11
146.081
21
-123.337
0
LINE
8
BLACK
6
CONTINUOUS
10
146.081
20
-123.337
11
146.066
21
-123.19
0
LINE
8
BLACK
6
CONTINUOUS
10
146.066
20
-123.19
11
146.081
21
-123.043
0
LINE
8
BLACK
6
CONTINUOUS
10
146.081
20
-123.043
11
146.124
21
-122.902
0
LINE
8
BLACK
6
CONTINUOUS
10
146.124
20
-122.902
11
146.193
21
-122.771
0
LINE
8
BLACK
6
CONTINUOUS
10
146.193
20
-122.771
11
146.287
21
-122.657
0
LINE
8
BLACK
6
CONTINUOUS
10
146.287
20
-122.657
11
146.401
21
-122.563
0
LINE
8
BLACK
6
CONTINUOUS
10
146.401
20
-122.563
11
146.532
21
-122.494
0
LINE
8
BLACK
6
CONTINUOUS
10
146.532
20
-122.494
11
146.673
21
-122.451
0
LINE
8
BLACK
6
CONTINUOUS
10
146.673
20
-122.451
11
146.783
21
-122.44
0
LINE
8
BLACK
6
CONTINUOUS
10
146.783
20
-122.44
11
147.857
21
-122.44
0
LINE
8
BLACK
6
CONTINUOUS
10
147.857
20
-122.44
11
147.967
21
-122.451
0
LINE
8
BLACK
6
CONTINUOUS
10
126.73
20
-123.89
11
124.73
21
-123.89
0
LINE
8
BLACK
6
CONTINUOUS
10
124.73
20
-123.89
11
124.73
21
-122.49
0
LINE
8
BLACK
6
CONTINUOUS
10
124.73
20
-122.49
11
126.73
21
-122.49
0
LINE
8
BLACK
6
CONTINUOUS
10
126.73
20
-122.49
11
126.73
21
-123.89
0
LINE
8
BLACK
6
CONTINUOUS
10
106.847
20
-121.082
11
107.007
21
-121.131
0
LINE
8
BLACK
6
CONTINUOUS
10
107.007
20
-121.131
11
107.155
21
-121.21
0
LINE
8
BLACK
6
CONTINUOUS
10
107.155
20
-121.21
11
107.284
21
-121.316
0
LINE
8
BLACK
6
CONTINUOUS
10
107.284
20
-121.316
11
107.39
21
-121.445
0
LINE
8
BLACK
6
CONTINUOUS
10
107.39
20
-121.445
11
107.469
21
-121.593
0
LINE
8
BLACK
6
CONTINUOUS
10
107.469
20
-121.593
11
107.518
21
-121.753
0
LINE
8
BLACK
6
CONTINUOUS
10
107.518
20
-121.753
11
107.534
21
-121.92
0
LINE
8
BLACK
6
CONTINUOUS
10
107.534
20
-121.92
11
107.518
21
-122.087
0
LINE
8
BLACK
6
CONTINUOUS
10
107.518
20
-122.087
11
107.469
21
-122.247
0
LINE
8
BLACK
6
CONTINUOUS
10
107.469
20
-122.247
11
107.39
21
-122.395
0
LINE
8
BLACK
6
CONTINUOUS
10
107.39
20
-122.395
11
107.284
21
-122.524
0
LINE
8
BLACK
6
CONTINUOUS
10
107.284
20
-122.524
11
107.155
21
-122.63
0
LINE
8
BLACK
6
CONTINUOUS
10
107.155
20
-122.63
11
107.007
21
-122.709
0
LINE
8
BLACK
6
CONTINUOUS
10
107.007
20
-122.709
11
106.847
21
-122.758
0
LINE
8
BLACK
6
CONTINUOUS
10
106.847
20
-122.758
11
106.722
21
-122.77
0
LINE
8
BLACK
6
CONTINUOUS
10
106.722
20
-122.77
11
106.638
21
-122.77
0
LINE
8
BLACK
6
CONTINUOUS
10
106.638
20
-122.77
11
106.513
21
-122.758
0
LINE
8
BLACK
6
CONTINUOUS
10
106.513
20
-122.758
11
106.353
21
-122.709
0
LINE
8
BLACK
6
CONTINUOUS
10
106.353
20
-122.709
11
106.205
21
-122.63
0
LINE
8
BLACK
6
CONTINUOUS
10
106.205
20
-122.63
11
106.076
21
-122.524
0
LINE
8
BLACK
6
CONTINUOUS
10
106.076
20
-122.524
11
105.97
21
-122.395
0
LINE
8
BLACK
6
CONTINUOUS
10
105.97
20
-122.395
11
105.891
21
-122.247
0
LINE
8
BLACK
6
CONTINUOUS
10
105.891
20
-122.247
11
105.842
21
-122.087
0
LINE
8
BLACK
6
CONTINUOUS
10
105.842
20
-122.087
11
105.826
21
-121.92
0
LINE
8
BLACK
6
CONTINUOUS
10
105.826
20
-121.92
11
105.842
21
-121.753
0
LINE
8
BLACK
6
CONTINUOUS
10
105.842
20
-121.753
11
105.891
21
-121.593
0
LINE
8
BLACK
6
CONTINUOUS
10
105.891
20
-121.593
11
105.97
21
-121.445
0
LINE
8
BLACK
6
CONTINUOUS
10
105.97
20
-121.445
11
106.076
21
-121.316
0
LINE
8
BLACK
6
CONTINUOUS
10
106.076
20
-121.316
11
106.205
21
-121.21
0
LINE
8
BLACK
6
CONTINUOUS
10
106.205
20
-121.21
11
106.353
21
-121.131
0
LINE
8
BLACK
6
CONTINUOUS
10
106.353
20
-121.131
11
106.513
21
-121.082
0
LINE
8
BLACK
6
CONTINUOUS
10
106.513
20
-121.082
11
106.638
21
-121.07
0
LINE
8
BLACK
6
CONTINUOUS
10
106.638
20
-121.07
11
106.722
21
-121.07
0
LINE
8
BLACK
6
CONTINUOUS
10
106.722
20
-121.07
11
106.847
21
-121.082
0
LINE
8
BLACK
6
CONTINUOUS
10
140.347
20
-121.181
11
140.488
21
-121.224
0
LINE
8
BLACK
6
CONTINUOUS
10
140.488
20
-121.224
11
140.619
21
-121.293
0
LINE
8
BLACK
6
CONTINUOUS
10
140.619
20
-121.293
11
140.733
21
-121.387
0
LINE
8
BLACK
6
CONTINUOUS
10
140.733
20
-121.387
11
140.827
21
-121.501
0
LINE
8
BLACK
6
CONTINUOUS
10
140.827
20
-121.501
11
140.896
21
-121.632
0
LINE
8
BLACK
6
CONTINUOUS
10
140.896
20
-121.632
11
140.939
21
-121.773
0
LINE
8
BLACK
6
CONTINUOUS
10
140.939
20
-121.773
11
140.954
21
-121.92
0
LINE
8
BLACK
6
CONTINUOUS
10
140.954
20
-121.92
11
140.939
21
-122.067
0
LINE
8
BLACK
6
CONTINUOUS
10
140.939
20
-122.067
11
140.896
21
-122.208
0
LINE
8
BLACK
6
CONTINUOUS
10
140.896
20
-122.208
11
140.827
21
-122.339
0
LINE
8
BLACK
6
CONTINUOUS
10
140.827
20
-122.339
11
140.733
21
-122.453
0
LINE
8
BLACK
6
CONTINUOUS
10
140.733
20
-122.453
11
140.619
21
-122.547
0
LINE
8
BLACK
6
CONTINUOUS
10
140.619
20
-122.547
11
140.488
21
-122.616
0
LINE
8
BLACK
6
CONTINUOUS
10
140.488
20
-122.616
11
140.347
21
-122.659
0
LINE
8
BLACK
6
CONTINUOUS
10
140.347
20
-122.659
11
140.237
21
-122.67
0
LINE
8
BLACK
6
CONTINUOUS
10
140.237
20
-122.67
11
139.163
21
-122.67
0
LINE
8
BLACK
6
CONTINUOUS
10
139.163
20
-122.67
11
139.053
21
-122.659
0
LINE
8
BLACK
6
CONTINUOUS
10
139.053
20
-122.659
11
138.912
21
-122.616
0
LINE
8
BLACK
6
CONTINUOUS
10
138.912
20
-122.616
11
138.781
21
-122.547
0
LINE
8
BLACK
6
CONTINUOUS
10
138.781
20
-122.547
11
138.667
21
-122.453
0
LINE
8
BLACK
6
CONTINUOUS
10
138.667
20
-122.453
11
138.573
21
-122.339
0
LINE
8
BLACK
6
CONTINUOUS
10
138.573
20
-122.339
11
138.504
21
-122.208
0
LINE
8
BLACK
6
CONTINUOUS
10
138.504
20
-122.208
11
138.461
21
-122.067
0
LINE
8
BLACK
6
CONTINUOUS
10
138.461
20
-122.067
11
138.446
21
-121.92
0
LINE
8
BLACK
6
CONTINUOUS
10
138.446
20
-121.92
11
138.461
21
-121.773
0
LINE
8
BLACK
6
CONTINUOUS
10
138.461
20
-121.773
11
138.504
21
-121.632
0
LINE
8
BLACK
6
CONTINUOUS
10
138.504
20
-121.632
11
138.573
21
-121.501
0
LINE
8
BLACK
6
CONTINUOUS
10
138.573
20
-121.501
11
138.667
21
-121.387
0
LINE
8
BLACK
6
CONTINUOUS
10
138.667
20
-121.387
11
138.781
21
-121.293
0
LINE
8
BLACK
6
CONTINUOUS
10
138.781
20
-121.293
11
138.912
21
-121.224
0
LINE
8
BLACK
6
CONTINUOUS
10
138.912
20
-121.224
11
139.053
21
-121.181
0
LINE
8
BLACK
6
CONTINUOUS
10
139.053
20
-121.181
11
139.163
21
-121.17
0
LINE
8
BLACK
6
CONTINUOUS
10
139.163
20
-121.17
11
140.237
21
-121.17
0
LINE
8
BLACK
6
CONTINUOUS
10
140.237
20
-121.17
11
140.347
21
-121.181
0
LINE
8
BLACK
6
CONTINUOUS
10
132.727
20
-121.181
11
132.868
21
-121.224
0
LINE
8
BLACK
6
CONTINUOUS
10
132.868
20
-121.224
11
132.999
21
-121.293
0
LINE
8
BLACK
6
CONTINUOUS
10
132.999
20
-121.293
11
133.113
21
-121.387
0
LINE
8
BLACK
6
CONTINUOUS
10
133.113
20
-121.387
11
133.207
21
-121.501
0
LINE
8
BLACK
6
CONTINUOUS
10
133.207
20
-121.501
11
133.276
21
-121.632
0
LINE
8
BLACK
6
CONTINUOUS
10
133.276
20
-121.632
11
133.319
21
-121.773
0
LINE
8
BLACK
6
CONTINUOUS
10
133.319
20
-121.773
11
133.334
21
-121.92
0
LINE
8
BLACK
6
CONTINUOUS
10
133.334
20
-121.92
11
133.319
21
-122.067
0
LINE
8
BLACK
6
CONTINUOUS
10
133.319
20
-122.067
11
133.276
21
-122.208
0
LINE
8
BLACK
6
CONTINUOUS
10
133.276
20
-122.208
11
133.207
21
-122.339
0
LINE
8
BLACK
6
CONTINUOUS
10
133.207
20
-122.339
11
133.113
21
-122.453
0
LINE
8
BLACK
6
CONTINUOUS
10
133.113
20
-122.453
11
132.999
21
-122.547
0
LINE
8
BLACK
6
CONTINUOUS
10
132.999
20
-122.547
11
132.868
21
-122.616
0
LINE
8
BLACK
6
CONTINUOUS
10
132.868
20
-122.616
11
132.727
21
-122.659
0
LINE
8
BLACK
6
CONTINUOUS
10
132.727
20
-122.659
11
132.617
21
-122.67
0
LINE
8
BLACK
6
CONTINUOUS
10
132.617
20
-122.67
11
131.543
21
-122.67
0
LINE
8
BLACK
6
CONTINUOUS
10
131.543
20
-122.67
11
131.433
21
-122.659
0
LINE
8
BLACK
6
CONTINUOUS
10
131.433
20
-122.659
11
131.292
21
-122.616
0
LINE
8
BLACK
6
CONTINUOUS
10
131.292
20
-122.616
11
131.161
21
-122.547
0
LINE
8
BLACK
6
CONTINUOUS
10
131.161
20
-122.547
11
131.047
21
-122.453
0
LINE
8
BLACK
6
CONTINUOUS
10
131.047
20
-122.453
11
130.953
21
-122.339
0
LINE
8
BLACK
6
CONTINUOUS
10
130.953
20
-122.339
11
130.884
21
-122.208
0
LINE
8
BLACK
6
CONTINUOUS
10
130.884
20
-122.208
11
130.841
21
-122.067
0
LINE
8
BLACK
6
CONTINUOUS
10
130.841
20
-122.067
11
130.826
21
-121.92
0
LINE
8
BLACK
6
CONTINUOUS
10
130.826
20
-121.92
11
130.841
21
-121.773
0
LINE
8
BLACK
6
CONTINUOUS
10
130.841
20
-121.773
11
130.884
21
-121.632
0
LINE
8
BLACK
6
CONTINUOUS
10
130.884
20
-121.632
11
130.953
21
-121.501
0
LINE
8
BLACK
6
CONTINUOUS
10
130.953
20
-121.501
11
131.047
21
-121.387
0
LINE
8
BLACK
6
CONTINUOUS
10
131.047
20
-121.387
11
131.161
21
-121.293
0
LINE
8
BLACK
6
CONTINUOUS
10
131.161
20
-121.293
11
131.292
21
-121.224
0
LINE
8
BLACK
6
CONTINUOUS
10
131.292
20
-121.224
11
131.433
21
-121.181
0
LINE
8
BLACK
6
CONTINUOUS
10
131.433
20
-121.181
11
131.543
21
-121.17
0
LINE
8
BLACK
6
CONTINUOUS
10
131.543
20
-121.17
11
132.617
21
-121.17
0
LINE
8
BLACK
6
CONTINUOUS
10
132.617
20
-121.17
11
132.727
21
-121.181
0
LINE
8
BLACK
6
CONTINUOUS
10
147.967
20
-119.911
11
148.108
21
-119.954
0
LINE
8
BLACK
6
CONTINUOUS
10
148.108
20
-119.954
11
148.239
21
-120.023
0
LINE
8
BLACK
6
CONTINUOUS
10
148.239
20
-120.023
11
148.353
21
-120.117
0
LINE
8
BLACK
6
CONTINUOUS
10
148.353
20
-120.117
11
148.447
21
-120.231
0
LINE
8
BLACK
6
CONTINUOUS
10
148.447
20
-120.231
11
148.516
21
-120.362
0
LINE
8
BLACK
6
CONTINUOUS
10
148.516
20
-120.362
11
148.559
21
-120.503
0
LINE
8
BLACK
6
CONTINUOUS
10
148.559
20
-120.503
11
148.574
21
-120.65
0
LINE
8
BLACK
6
CONTINUOUS
10
148.574
20
-120.65
11
148.559
21
-120.797
0
LINE
8
BLACK
6
CONTINUOUS
10
148.559
20
-120.797
11
148.516
21
-120.938
0
LINE
8
BLACK
6
CONTINUOUS
10
148.516
20
-120.938
11
148.447
21
-121.069
0
LINE
8
BLACK
6
CONTINUOUS
10
148.447
20
-121.069
11
148.353
21
-121.183
0
LINE
8
BLACK
6
CONTINUOUS
10
148.353
20
-121.183
11
148.239
21
-121.277
0
LINE
8
BLACK
6
CONTINUOUS
10
148.239
20
-121.277
11
148.108
21
-121.346
0
LINE
8
BLACK
6
CONTINUOUS
10
148.108
20
-121.346
11
147.967
21
-121.389
0
LINE
8
BLACK
6
CONTINUOUS
10
147.967
20
-121.389
11
147.857
21
-121.4
0
LINE
8
BLACK
6
CONTINUOUS
10
147.857
20
-121.4
11
146.783
21
-121.4
0
LINE
8
BLACK
6
CONTINUOUS
10
146.783
20
-121.4
11
146.673
21
-121.389
0
LINE
8
BLACK
6
CONTINUOUS
10
146.673
20
-121.389
11
146.532
21
-121.346
0
LINE
8
BLACK
6
CONTINUOUS
10
146.532
20
-121.346
11
146.401
21
-121.277
0
LINE
8
BLACK
6
CONTINUOUS
10
146.401
20
-121.277
11
146.287
21
-121.183
0
LINE
8
BLACK
6
CONTINUOUS
10
146.287
20
-121.183
11
146.193
21
-121.069
0
LINE
8
BLACK
6
CONTINUOUS
10
146.193
20
-121.069
11
146.124
21
-120.938
0
LINE
8
BLACK
6
CONTINUOUS
10
146.124
20
-120.938
11
146.081
21
-120.797
0
LINE
8
BLACK
6
CONTINUOUS
10
146.081
20
-120.797
11
146.066
21
-120.65
0
LINE
8
BLACK
6
CONTINUOUS
10
146.066
20
-120.65
11
146.081
21
-120.503
0
LINE
8
BLACK
6
CONTINUOUS
10
146.081
20
-120.503
11
146.124
21
-120.362
0
LINE
8
BLACK
6
CONTINUOUS
10
146.124
20
-120.362
11
146.193
21
-120.231
0
LINE
8
BLACK
6
CONTINUOUS
10
146.193
20
-120.231
11
146.287
21
-120.117
0
LINE
8
BLACK
6
CONTINUOUS
10
146.287
20
-120.117
11
146.401
21
-120.023
0
LINE
8
BLACK
6
CONTINUOUS
10
146.401
20
-120.023
11
146.532
21
-119.954
0
LINE
8
BLACK
6
CONTINUOUS
10
146.532
20
-119.954
11
146.673
21
-119.911
0
LINE
8
BLACK
6
CONTINUOUS
10
146.673
20
-119.911
11
146.783
21
-119.9
0
LINE
8
BLACK
6
CONTINUOUS
10
146.783
20
-119.9
11
147.857
21
-119.9
0
LINE
8
BLACK
6
CONTINUOUS
10
147.857
20
-119.9
11
147.967
21
-119.911
0
LINE
8
BLACK
6
CONTINUOUS
10
126.73
20
-121.35
11
124.73
21
-121.35
0
LINE
8
BLACK
6
CONTINUOUS
10
124.73
20
-121.35
11
124.73
21
-119.95
0
LINE
8
BLACK
6
CONTINUOUS
10
124.73
20
-119.95
11
126.73
21
-119.95
0
LINE
8
BLACK
6
CONTINUOUS
10
126.73
20
-119.95
11
126.73
21
-121.35
0
LINE
8
BLACK
6
CONTINUOUS
10
83.9843
20
-117.716
11
84.1423
21
-117.764
0
LINE
8
BLACK
6
CONTINUOUS
10
84.1423
20
-117.764
11
84.2879
21
-117.841
0
LINE
8
BLACK
6
CONTINUOUS
10
84.2879
20
-117.841
11
84.4156
21
-117.946
0
LINE
8
BLACK
6
CONTINUOUS
10
84.4156
20
-117.946
11
84.5203
21
-118.074
0
LINE
8
BLACK
6
CONTINUOUS
10
84.5203
20
-118.074
11
84.5981
21
-118.219
0
LINE
8
BLACK
6
CONTINUOUS
10
84.5981
20
-118.219
11
84.6461
21
-118.377
0
LINE
8
BLACK
6
CONTINUOUS
10
84.6461
20
-118.377
11
84.6582
21
-118.501
0
LINE
8
BLACK
6
CONTINUOUS
10
84.6582
20
-118.501
11
84.6582
21
-120.259
0
LINE
8
BLACK
6
CONTINUOUS
10
84.6582
20
-120.259
11
84.6461
21
-120.383
0
LINE
8
BLACK
6
CONTINUOUS
10
84.6461
20
-120.383
11
84.5981
21
-120.541
0
LINE
8
BLACK
6
CONTINUOUS
10
84.5981
20
-120.541
11
84.5203
21
-120.686
0
LINE
8
BLACK
6
CONTINUOUS
10
84.5203
20
-120.686
11
84.4156
21
-120.814
0
LINE
8
BLACK
6
CONTINUOUS
10
84.4156
20
-120.814
11
84.2879
21
-120.919
0
LINE
8
BLACK
6
CONTINUOUS
10
84.2879
20
-120.919
11
84.1423
21
-120.996
0
LINE
8
BLACK
6
CONTINUOUS
10
84.1423
20
-120.996
11
83.9843
21
-121.044
0
LINE
8
BLACK
6
CONTINUOUS
10
83.9843
20
-121.044
11
83.82
21
-121.06
0
LINE
8
BLACK
6
CONTINUOUS
10
83.82
20
-121.06
11
83.6557
21
-121.044
0
LINE
8
BLACK
6
CONTINUOUS
10
83.6557
20
-121.044
11
83.4977
21
-120.996
0
LINE
8
BLACK
6
CONTINUOUS
10
83.4977
20
-120.996
11
83.3521
21
-120.919
0
LINE
8
BLACK
6
CONTINUOUS
10
83.3521
20
-120.919
11
83.2244
21
-120.814
0
LINE
8
BLACK
6
CONTINUOUS
10
83.2244
20
-120.814
11
83.1197
21
-120.686
0
LINE
8
BLACK
6
CONTINUOUS
10
83.1197
20
-120.686
11
83.0419
21
-120.541
0
LINE
8
BLACK
6
CONTINUOUS
10
83.0419
20
-120.541
11
82.9939
21
-120.383
0
LINE
8
BLACK
6
CONTINUOUS
10
82.9939
20
-120.383
11
82.9818
21
-120.259
0
LINE
8
BLACK
6
CONTINUOUS
10
82.9818
20
-120.259
11
82.9818
21
-118.501
0
LINE
8
BLACK
6
CONTINUOUS
10
82.9818
20
-118.501
11
82.9939
21
-118.377
0
LINE
8
BLACK
6
CONTINUOUS
10
82.9939
20
-118.377
11
83.0419
21
-118.219
0
LINE
8
BLACK
6
CONTINUOUS
10
83.0419
20
-118.219
11
83.1197
21
-118.074
0
LINE
8
BLACK
6
CONTINUOUS
10
83.1197
20
-118.074
11
83.2244
21
-117.946
0
LINE
8
BLACK
6
CONTINUOUS
10
83.2244
20
-117.946
11
83.3521
21
-117.841
0
LINE
8
BLACK
6
CONTINUOUS
10
83.3521
20
-117.841
11
83.4977
21
-117.764
0
LINE
8
BLACK
6
CONTINUOUS
10
83.4977
20
-117.764
11
83.6557
21
-117.716
0
LINE
8
BLACK
6
CONTINUOUS
10
83.6557
20
-117.716
11
83.82
21
-117.7
0
LINE
8
BLACK
6
CONTINUOUS
10
83.82
20
-117.7
11
83.9843
21
-117.716
0
LINE
8
BLACK
6
CONTINUOUS
10
99.2243
20
-117.716
11
99.3823
21
-117.764
0
LINE
8
BLACK
6
CONTINUOUS
10
99.3823
20
-117.764
11
99.5279
21
-117.841
0
LINE
8
BLACK
6
CONTINUOUS
10
99.5279
20
-117.841
11
99.6556
21
-117.946
0
LINE
8
BLACK
6
CONTINUOUS
10
99.6556
20
-117.946
11
99.7603
21
-118.074
0
LINE
8
BLACK
6
CONTINUOUS
10
99.7603
20
-118.074
11
99.8381
21
-118.219
0
LINE
8
BLACK
6
CONTINUOUS
10
99.8381
20
-118.219
11
99.8861
21
-118.377
0
LINE
8
BLACK
6
CONTINUOUS
10
99.8861
20
-118.377
11
99.8982
21
-118.501
0
LINE
8
BLACK
6
CONTINUOUS
10
99.8982
20
-118.501
11
99.8982
21
-120.259
0
LINE
8
BLACK
6
CONTINUOUS
10
99.8982
20
-120.259
11
99.8861
21
-120.383
0
LINE
8
BLACK
6
CONTINUOUS
10
99.8861
20
-120.383
11
99.8381
21
-120.541
0
LINE
8
BLACK
6
CONTINUOUS
10
99.8381
20
-120.541
11
99.7603
21
-120.686
0
LINE
8
BLACK
6
CONTINUOUS
10
99.7603
20
-120.686
11
99.6556
21
-120.814
0
LINE
8
BLACK
6
CONTINUOUS
10
99.6556
20
-120.814
11
99.5279
21
-120.919
0
LINE
8
BLACK
6
CONTINUOUS
10
99.5279
20
-120.919
11
99.3823
21
-120.996
0
LINE
8
BLACK
6
CONTINUOUS
10
99.3823
20
-120.996
11
99.2243
21
-121.044
0
LINE
8
BLACK
6
CONTINUOUS
10
99.2243
20
-121.044
11
99.06
21
-121.06
0
LINE
8
BLACK
6
CONTINUOUS
10
99.06
20
-121.06
11
98.8957
21
-121.044
0
LINE
8
BLACK
6
CONTINUOUS
10
98.8957
20
-121.044
11
98.7377
21
-120.996
0
LINE
8
BLACK
6
CONTINUOUS
10
98.7377
20
-120.996
11
98.5921
21
-120.919
0
LINE
8
BLACK
6
CONTINUOUS
10
98.5921
20
-120.919
11
98.4644
21
-120.814
0
LINE
8
BLACK
6
CONTINUOUS
10
98.4644
20
-120.814
11
98.3597
21
-120.686
0
LINE
8
BLACK
6
CONTINUOUS
10
98.3597
20
-120.686
11
98.2819
21
-120.541
0
LINE
8
BLACK
6
CONTINUOUS
10
98.2819
20
-120.541
11
98.2339
21
-120.383
0
LINE
8
BLACK
6
CONTINUOUS
10
98.2339
20
-120.383
11
98.2218
21
-120.259
0
LINE
8
BLACK
6
CONTINUOUS
10
98.2218
20
-120.259
11
98.2218
21
-118.501
0
LINE
8
BLACK
6
CONTINUOUS
10
98.2218
20
-118.501
11
98.2339
21
-118.377
0
LINE
8
BLACK
6
CONTINUOUS
10
98.2339
20
-118.377
11
98.2819
21
-118.219
0
LINE
8
BLACK
6
CONTINUOUS
10
98.2819
20
-118.219
11
98.3597
21
-118.074
0
LINE
8
BLACK
6
CONTINUOUS
10
98.3597
20
-118.074
11
98.4644
21
-117.946
0
LINE
8
BLACK
6
CONTINUOUS
10
98.4644
20
-117.946
11
98.5921
21
-117.841
0
LINE
8
BLACK
6
CONTINUOUS
10
98.5921
20
-117.841
11
98.7377
21
-117.764
0
LINE
8
BLACK
6
CONTINUOUS
10
98.7377
20
-117.764
11
98.8957
21
-117.716
0
LINE
8
BLACK
6
CONTINUOUS
10
98.8957
20
-117.716
11
99.06
21
-117.7
0
LINE
8
BLACK
6
CONTINUOUS
10
99.06
20
-117.7
11
99.2243
21
-117.716
0
LINE
8
BLACK
6
CONTINUOUS
10
89.0643
20
-117.716
11
89.2223
21
-117.764
0
LINE
8
BLACK
6
CONTINUOUS
10
89.2223
20
-117.764
11
89.3679
21
-117.841
0
LINE
8
BLACK
6
CONTINUOUS
10
89.3679
20
-117.841
11
89.4956
21
-117.946
0
LINE
8
BLACK
6
CONTINUOUS
10
89.4956
20
-117.946
11
89.6003
21
-118.074
0
LINE
8
BLACK
6
CONTINUOUS
10
89.6003
20
-118.074
11
89.6781
21
-118.219
0
LINE
8
BLACK
6
CONTINUOUS
10
89.6781
20
-118.219
11
89.7261
21
-118.377
0
LINE
8
BLACK
6
CONTINUOUS
10
89.7261
20
-118.377
11
89.7382
21
-118.501
0
LINE
8
BLACK
6
CONTINUOUS
10
89.7382
20
-118.501
11
89.7382
21
-120.259
0
LINE
8
BLACK
6
CONTINUOUS
10
89.7382
20
-120.259
11
89.7261
21
-120.383
0
LINE
8
BLACK
6
CONTINUOUS
10
89.7261
20
-120.383
11
89.6781
21
-120.541
0
LINE
8
BLACK
6
CONTINUOUS
10
89.6781
20
-120.541
11
89.6003
21
-120.686
0
LINE
8
BLACK
6
CONTINUOUS
10
89.6003
20
-120.686
11
89.4956
21
-120.814
0
LINE
8
BLACK
6
CONTINUOUS
10
89.4956
20
-120.814
11
89.3679
21
-120.919
0
LINE
8
BLACK
6
CONTINUOUS
10
89.3679
20
-120.919
11
89.2223
21
-120.996
0
LINE
8
BLACK
6
CONTINUOUS
10
89.2223
20
-120.996
11
89.0643
21
-121.044
0
LINE
8
BLACK
6
CONTINUOUS
10
89.0643
20
-121.044
11
88.9
21
-121.06
0
LINE
8
BLACK
6
CONTINUOUS
10
88.9
20
-121.06
11
88.7357
21
-121.044
0
LINE
8
BLACK
6
CONTINUOUS
10
88.7357
20
-121.044
11
88.5777
21
-120.996
0
LINE
8
BLACK
6
CONTINUOUS
10
88.5777
20
-120.996
11
88.4321
21
-120.919
0
LINE
8
BLACK
6
CONTINUOUS
10
88.4321
20
-120.919
11
88.3044
21
-120.814
0
LINE
8
BLACK
6
CONTINUOUS
10
88.3044
20
-120.814
11
88.1997
21
-120.686
0
LINE
8
BLACK
6
CONTINUOUS
10
88.1997
20
-120.686
11
88.1219
21
-120.541
0
LINE
8
BLACK
6
CONTINUOUS
10
88.1219
20
-120.541
11
88.0739
21
-120.383
0
LINE
8
BLACK
6
CONTINUOUS
10
88.0739
20
-120.383
11
88.0618
21
-120.259
0
LINE
8
BLACK
6
CONTINUOUS
10
88.0618
20
-120.259
11
88.0618
21
-118.501
0
LINE
8
BLACK
6
CONTINUOUS
10
88.0618
20
-118.501
11
88.0739
21
-118.377
0
LINE
8
BLACK
6
CONTINUOUS
10
88.0739
20
-118.377
11
88.1219
21
-118.219
0
LINE
8
BLACK
6
CONTINUOUS
10
88.1219
20
-118.219
11
88.1997
21
-118.074
0
LINE
8
BLACK
6
CONTINUOUS
10
88.1997
20
-118.074
11
88.3044
21
-117.946
0
LINE
8
BLACK
6
CONTINUOUS
10
88.3044
20
-117.946
11
88.4321
21
-117.841
0
LINE
8
BLACK
6
CONTINUOUS
10
88.4321
20
-117.841
11
88.5777
21
-117.764
0
LINE
8
BLACK
6
CONTINUOUS
10
88.5777
20
-117.764
11
88.7357
21
-117.716
0
LINE
8
BLACK
6
CONTINUOUS
10
88.7357
20
-117.716
11
88.9
21
-117.7
0
LINE
8
BLACK
6
CONTINUOUS
10
88.9
20
-117.7
11
89.0643
21
-117.716
0
LINE
8
BLACK
6
CONTINUOUS
10
86.5243
20
-117.716
11
86.6823
21
-117.764
0
LINE
8
BLACK
6
CONTINUOUS
10
86.6823
20
-117.764
11
86.8279
21
-117.841
0
LINE
8
BLACK
6
CONTINUOUS
10
86.8279
20
-117.841
11
86.9556
21
-117.946
0
LINE
8
BLACK
6
CONTINUOUS
10
86.9556
20
-117.946
11
87.0603
21
-118.074
0
LINE
8
BLACK
6
CONTINUOUS
10
87.0603
20
-118.074
11
87.1381
21
-118.219
0
LINE
8
BLACK
6
CONTINUOUS
10
87.1381
20
-118.219
11
87.1861
21
-118.377
0
LINE
8
BLACK
6
CONTINUOUS
10
87.1861
20
-118.377
11
87.1982
21
-118.501
0
LINE
8
BLACK
6
CONTINUOUS
10
87.1982
20
-118.501
11
87.1982
21
-120.259
0
LINE
8
BLACK
6
CONTINUOUS
10
87.1982
20
-120.259
11
87.1861
21
-120.383
0
LINE
8
BLACK
6
CONTINUOUS
10
87.1861
20
-120.383
11
87.1381
21
-120.541
0
LINE
8
BLACK
6
CONTINUOUS
10
87.1381
20
-120.541
11
87.0603
21
-120.686
0
LINE
8
BLACK
6
CONTINUOUS
10
87.0603
20
-120.686
11
86.9556
21
-120.814
0
LINE
8
BLACK
6
CONTINUOUS
10
86.9556
20
-120.814
11
86.8279
21
-120.919
0
LINE
8
BLACK
6
CONTINUOUS
10
86.8279
20
-120.919
11
86.6823
21
-120.996
0
LINE
8
BLACK
6
CONTINUOUS
10
86.6823
20
-120.996
11
86.5243
21
-121.044
0
LINE
8
BLACK
6
CONTINUOUS
10
86.5243
20
-121.044
11
86.36
21
-121.06
0
LINE
8
BLACK
6
CONTINUOUS
10
86.36
20
-121.06
11
86.1957
21
-121.044
0
LINE
8
BLACK
6
CONTINUOUS
10
86.1957
20
-121.044
11
86.0377
21
-120.996
0
LINE
8
BLACK
6
CONTINUOUS
10
86.0377
20
-120.996
11
85.8921
21
-120.919
0
LINE
8
BLACK
6
CONTINUOUS
10
85.8921
20
-120.919
11
85.7644
21
-120.814
0
LINE
8
BLACK
6
CONTINUOUS
10
85.7644
20
-120.814
11
85.6597
21
-120.686
0
LINE
8
BLACK
6
CONTINUOUS
10
85.6597
20
-120.686
11
85.5819
21
-120.541
0
LINE
8
BLACK
6
CONTINUOUS
10
85.5819
20
-120.541
11
85.5339
21
-120.383
0
LINE
8
BLACK
6
CONTINUOUS
10
85.5339
20
-120.383
11
85.5218
21
-120.259
0
LINE
8
BLACK
6
CONTINUOUS
10
85.5218
20
-120.259
11
85.5218
21
-118.501
0
LINE
8
BLACK
6
CONTINUOUS
10
85.5218
20
-118.501
11
85.5339
21
-118.377
0
LINE
8
BLACK
6
CONTINUOUS
10
85.5339
20
-118.377
11
85.5819
21
-118.219
0
LINE
8
BLACK
6
CONTINUOUS
10
85.5819
20
-118.219
11
85.6597
21
-118.074
0
LINE
8
BLACK
6
CONTINUOUS
10
85.6597
20
-118.074
11
85.7644
21
-117.946
0
LINE
8
BLACK
6
CONTINUOUS
10
85.7644
20
-117.946
11
85.8921
21
-117.841
0
LINE
8
BLACK
6
CONTINUOUS
10
85.8921
20
-117.841
11
86.0377
21
-117.764
0
LINE
8
BLACK
6
CONTINUOUS
10
86.0377
20
-117.764
11
86.1957
21
-117.716
0
LINE
8
BLACK
6
CONTINUOUS
10
86.1957
20
-117.716
11
86.36
21
-117.7
0
LINE
8
BLACK
6
CONTINUOUS
10
86.36
20
-117.7
11
86.5243
21
-117.716
0
LINE
8
BLACK
6
CONTINUOUS
10
94.1443
20
-117.716
11
94.3023
21
-117.764
0
LINE
8
BLACK
6
CONTINUOUS
10
94.3023
20
-117.764
11
94.4479
21
-117.841
0
LINE
8
BLACK
6
CONTINUOUS
10
94.4479
20
-117.841
11
94.5756
21
-117.946
0
LINE
8
BLACK
6
CONTINUOUS
10
94.5756
20
-117.946
11
94.6803
21
-118.074
0
LINE
8
BLACK
6
CONTINUOUS
10
94.6803
20
-118.074
11
94.7581
21
-118.219
0
LINE
8
BLACK
6
CONTINUOUS
10
94.7581
20
-118.219
11
94.8061
21
-118.377
0
LINE
8
BLACK
6
CONTINUOUS
10
94.8061
20
-118.377
11
94.8182
21
-118.501
0
LINE
8
BLACK
6
CONTINUOUS
10
94.8182
20
-118.501
11
94.8182
21
-120.259
0
LINE
8
BLACK
6
CONTINUOUS
10
94.8182
20
-120.259
11
94.8061
21
-120.383
0
LINE
8
BLACK
6
CONTINUOUS
10
94.8061
20
-120.383
11
94.7581
21
-120.541
0
LINE
8
BLACK
6
CONTINUOUS
10
94.7581
20
-120.541
11
94.6803
21
-120.686
0
LINE
8
BLACK
6
CONTINUOUS
10
94.6803
20
-120.686
11
94.5756
21
-120.814
0
LINE
8
BLACK
6
CONTINUOUS
10
94.5756
20
-120.814
11
94.4479
21
-120.919
0
LINE
8
BLACK
6
CONTINUOUS
10
94.4479
20
-120.919
11
94.3023
21
-120.996
0
LINE
8
BLACK
6
CONTINUOUS
10
94.3023
20
-120.996
11
94.1443
21
-121.044
0
LINE
8
BLACK
6
CONTINUOUS
10
94.1443
20
-121.044
11
93.98
21
-121.06
0
LINE
8
BLACK
6
CONTINUOUS
10
93.98
20
-121.06
11
93.8157
21
-121.044
0
LINE
8
BLACK
6
CONTINUOUS
10
93.8157
20
-121.044
11
93.6577
21
-120.996
0
LINE
8
BLACK
6
CONTINUOUS
10
93.6577
20
-120.996
11
93.5121
21
-120.919
0
LINE
8
BLACK
6
CONTINUOUS
10
93.5121
20
-120.919
11
93.3844
21
-120.814
0
LINE
8
BLACK
6
CONTINUOUS
10
93.3844
20
-120.814
11
93.2797
21
-120.686
0
LINE
8
BLACK
6
CONTINUOUS
10
93.2797
20
-120.686
11
93.2019
21
-120.541
0
LINE
8
BLACK
6
CONTINUOUS
10
93.2019
20
-120.541
11
93.1539
21
-120.383
0
LINE
8
BLACK
6
CONTINUOUS
10
93.1539
20
-120.383
11
93.1418
21
-120.259
0
LINE
8
BLACK
6
CONTINUOUS
10
93.1418
20
-120.259
11
93.1418
21
-118.501
0
LINE
8
BLACK
6
CONTINUOUS
10
93.1418
20
-118.501
11
93.1539
21
-118.377
0
LINE
8
BLACK
6
CONTINUOUS
10
93.1539
20
-118.377
11
93.2019
21
-118.219
0
LINE
8
BLACK
6
CONTINUOUS
10
93.2019
20
-118.219
11
93.2797
21
-118.074
0
LINE
8
BLACK
6
CONTINUOUS
10
93.2797
20
-118.074
11
93.3844
21
-117.946
0
LINE
8
BLACK
6
CONTINUOUS
10
93.3844
20
-117.946
11
93.5121
21
-117.841
0
LINE
8
BLACK
6
CONTINUOUS
10
93.5121
20
-117.841
11
93.6577
21
-117.764
0
LINE
8
BLACK
6
CONTINUOUS
10
93.6577
20
-117.764
11
93.8157
21
-117.716
0
LINE
8
BLACK
6
CONTINUOUS
10
93.8157
20
-117.716
11
93.98
21
-117.7
0
LINE
8
BLACK
6
CONTINUOUS
10
93.98
20
-117.7
11
94.1443
21
-117.716
0
LINE
8
BLACK
6
CONTINUOUS
10
96.6843
20
-117.716
11
96.8423
21
-117.764
0
LINE
8
BLACK
6
CONTINUOUS
10
96.8423
20
-117.764
11
96.9879
21
-117.841
0
LINE
8
BLACK
6
CONTINUOUS
10
96.9879
20
-117.841
11
97.1156
21
-117.946
0
LINE
8
BLACK
6
CONTINUOUS
10
97.1156
20
-117.946
11
97.2203
21
-118.074
0
LINE
8
BLACK
6
CONTINUOUS
10
97.2203
20
-118.074
11
97.2981
21
-118.219
0
LINE
8
BLACK
6
CONTINUOUS
10
97.2981
20
-118.219
11
97.3461
21
-118.377
0
LINE
8
BLACK
6
CONTINUOUS
10
97.3461
20
-118.377
11
97.3582
21
-118.501
0
LINE
8
BLACK
6
CONTINUOUS
10
97.3582
20
-118.501
11
97.3582
21
-120.259
0
LINE
8
BLACK
6
CONTINUOUS
10
97.3582
20
-120.259
11
97.3461
21
-120.383
0
LINE
8
BLACK
6
CONTINUOUS
10
97.3461
20
-120.383
11
97.2981
21
-120.541
0
LINE
8
BLACK
6
CONTINUOUS
10
97.2981
20
-120.541
11
97.2203
21
-120.686
0
LINE
8
BLACK
6
CONTINUOUS
10
97.2203
20
-120.686
11
97.1156
21
-120.814
0
LINE
8
BLACK
6
CONTINUOUS
10
97.1156
20
-120.814
11
96.9879
21
-120.919
0
LINE
8
BLACK
6
CONTINUOUS
10
96.9879
20
-120.919
11
96.8423
21
-120.996
0
LINE
8
BLACK
6
CONTINUOUS
10
96.8423
20
-120.996
11
96.6843
21
-121.044
0
LINE
8
BLACK
6
CONTINUOUS
10
96.6843
20
-121.044
11
96.52
21
-121.06
0
LINE
8
BLACK
6
CONTINUOUS
10
96.52
20
-121.06
11
96.3557
21
-121.044
0
LINE
8
BLACK
6
CONTINUOUS
10
96.3557
20
-121.044
11
96.1977
21
-120.996
0
LINE
8
BLACK
6
CONTINUOUS
10
96.1977
20
-120.996
11
96.0521
21
-120.919
0
LINE
8
BLACK
6
CONTINUOUS
10
96.0521
20
-120.919
11
95.9244
21
-120.814
0
LINE
8
BLACK
6
CONTINUOUS
10
95.9244
20
-120.814
11
95.8197
21
-120.686
0
LINE
8
BLACK
6
CONTINUOUS
10
95.8197
20
-120.686
11
95.7419
21
-120.541
0
LINE
8
BLACK
6
CONTINUOUS
10
95.7419
20
-120.541
11
95.6939
21
-120.383
0
LINE
8
BLACK
6
CONTINUOUS
10
95.6939
20
-120.383
11
95.6818
21
-120.259
0
LINE
8
BLACK
6
CONTINUOUS
10
95.6818
20
-120.259
11
95.6818
21
-118.501
0
LINE
8
BLACK
6
CONTINUOUS
10
95.6818
20
-118.501
11
95.6939
21
-118.377
0
LINE
8
BLACK
6
CONTINUOUS
10
95.6939
20
-118.377
11
95.7419
21
-118.219
0
LINE
8
BLACK
6
CONTINUOUS
10
95.7419
20
-118.219
11
95.8197
21
-118.074
0
LINE
8
BLACK
6
CONTINUOUS
10
95.8197
20
-118.074
11
95.9244
21
-117.946
0
LINE
8
BLACK
6
CONTINUOUS
10
95.9244
20
-117.946
11
96.0521
21
-117.841
0
LINE
8
BLACK
6
CONTINUOUS
10
96.0521
20
-117.841
11
96.1977
21
-117.764
0
LINE
8
BLACK
6
CONTINUOUS
10
96.1977
20
-117.764
11
96.3557
21
-117.716
0
LINE
8
BLACK
6
CONTINUOUS
10
96.3557
20
-117.716
11
96.52
21
-117.7
0
LINE
8
BLACK
6
CONTINUOUS
10
96.52
20
-117.7
11
96.6843
21
-117.716
0
LINE
8
BLACK
6
CONTINUOUS
10
106.847
20
-118.542
11
107.007
21
-118.591
0
LINE
8
BLACK
6
CONTINUOUS
10
107.007
20
-118.591
11
107.155
21
-118.67
0
LINE
8
BLACK
6
CONTINUOUS
10
107.155
20
-118.67
11
107.284
21
-118.776
0
LINE
8
BLACK
6
CONTINUOUS
10
107.284
20
-118.776
11
107.39
21
-118.905
0
LINE
8
BLACK
6
CONTINUOUS
10
107.39
20
-118.905
11
107.469
21
-119.053
0
LINE
8
BLACK
6
CONTINUOUS
10
107.469
20
-119.053
11
107.518
21
-119.213
0
LINE
8
BLACK
6
CONTINUOUS
10
107.518
20
-119.213
11
107.534
21
-119.38
0
LINE
8
BLACK
6
CONTINUOUS
10
107.534
20
-119.38
11
107.518
21
-119.547
0
LINE
8
BLACK
6
CONTINUOUS
10
107.518
20
-119.547
11
107.469
21
-119.707
0
LINE
8
BLACK
6
CONTINUOUS
10
107.469
20
-119.707
11
107.39
21
-119.855
0
LINE
8
BLACK
6
CONTINUOUS
10
107.39
20
-119.855
11
107.284
21
-119.984
0
LINE
8
BLACK
6
CONTINUOUS
10
107.284
20
-119.984
11
107.155
21
-120.09
0
LINE
8
BLACK
6
CONTINUOUS
10
107.155
20
-120.09
11
107.007
21
-120.169
0
LINE
8
BLACK
6
CONTINUOUS
10
107.007
20
-120.169
11
106.847
21
-120.218
0
LINE
8
BLACK
6
CONTINUOUS
10
106.847
20
-120.218
11
106.722
21
-120.23
0
LINE
8
BLACK
6
CONTINUOUS
10
106.722
20
-120.23
11
106.638
21
-120.23
0
LINE
8
BLACK
6
CONTINUOUS
10
106.638
20
-120.23
11
106.513
21
-120.218
0
LINE
8
BLACK
6
CONTINUOUS
10
106.513
20
-120.218
11
106.353
21
-120.169
0
LINE
8
BLACK
6
CONTINUOUS
10
106.353
20
-120.169
11
106.205
21
-120.09
0
LINE
8
BLACK
6
CONTINUOUS
10
106.205
20
-120.09
11
106.076
21
-119.984
0
LINE
8
BLACK
6
CONTINUOUS
10
106.076
20
-119.984
11
105.97
21
-119.855
0
LINE
8
BLACK
6
CONTINUOUS
10
105.97
20
-119.855
11
105.891
21
-119.707
0
LINE
8
BLACK
6
CONTINUOUS
10
105.891
20
-119.707
11
105.842
21
-119.547
0
LINE
8
BLACK
6
CONTINUOUS
10
105.842
20
-119.547
11
105.826
21
-119.38
0
LINE
8
BLACK
6
CONTINUOUS
10
105.826
20
-119.38
11
105.842
21
-119.213
0
LINE
8
BLACK
6
CONTINUOUS
10
105.842
20
-119.213
11
105.891
21
-119.053
0
LINE
8
BLACK
6
CONTINUOUS
10
105.891
20
-119.053
11
105.97
21
-118.905
0
LINE
8
BLACK
6
CONTINUOUS
10
105.97
20
-118.905
11
106.076
21
-118.776
0
LINE
8
BLACK
6
CONTINUOUS
10
106.076
20
-118.776
11
106.205
21
-118.67
0
LINE
8
BLACK
6
CONTINUOUS
10
106.205
20
-118.67
11
106.353
21
-118.591
0
LINE
8
BLACK
6
CONTINUOUS
10
106.353
20
-118.591
11
106.513
21
-118.542
0
LINE
8
BLACK
6
CONTINUOUS
10
106.513
20
-118.542
11
106.638
21
-118.53
0
LINE
8
BLACK
6
CONTINUOUS
10
106.638
20
-118.53
11
106.722
21
-118.53
0
LINE
8
BLACK
6
CONTINUOUS
10
106.722
20
-118.53
11
106.847
21
-118.542
0
LINE
8
BLACK
6
CONTINUOUS
10
140.347
20
-118.641
11
140.488
21
-118.684
0
LINE
8
BLACK
6
CONTINUOUS
10
140.488
20
-118.684
11
140.619
21
-118.753
0
LINE
8
BLACK
6
CONTINUOUS
10
140.619
20
-118.753
11
140.733
21
-118.847
0
LINE
8
BLACK
6
CONTINUOUS
10
140.733
20
-118.847
11
140.827
21
-118.961
0
LINE
8
BLACK
6
CONTINUOUS
10
140.827
20
-118.961
11
140.896
21
-119.092
0
LINE
8
BLACK
6
CONTINUOUS
10
140.896
20
-119.092
11
140.939
21
-119.233
0
LINE
8
BLACK
6
CONTINUOUS
10
140.939
20
-119.233
11
140.954
21
-119.38
0
LINE
8
BLACK
6
CONTINUOUS
10
140.954
20
-119.38
11
140.939
21
-119.527
0
LINE
8
BLACK
6
CONTINUOUS
10
140.939
20
-119.527
11
140.896
21
-119.668
0
LINE
8
BLACK
6
CONTINUOUS
10
140.896
20
-119.668
11
140.827
21
-119.799
0
LINE
8
BLACK
6
CONTINUOUS
10
140.827
20
-119.799
11
140.733
21
-119.913
0
LINE
8
BLACK
6
CONTINUOUS
10
140.733
20
-119.913
11
140.619
21
-120.007
0
LINE
8
BLACK
6
CONTINUOUS
10
140.619
20
-120.007
11
140.488
21
-120.076
0
LINE
8
BLACK
6
CONTINUOUS
10
140.488
20
-120.076
11
140.347
21
-120.119
0
LINE
8
BLACK
6
CONTINUOUS
10
140.347
20
-120.119
11
140.237
21
-120.13
0
LINE
8
BLACK
6
CONTINUOUS
10
140.237
20
-120.13
11
139.163
21
-120.13
0
LINE
8
BLACK
6
CONTINUOUS
10
139.163
20
-120.13
11
139.053
21
-120.119
0
LINE
8
BLACK
6
CONTINUOUS
10
139.053
20
-120.119
11
138.912
21
-120.076
0
LINE
8
BLACK
6
CONTINUOUS
10
138.912
20
-120.076
11
138.781
21
-120.007
0
LINE
8
BLACK
6
CONTINUOUS
10
138.781
20
-120.007
11
138.667
21
-119.913
0
LINE
8
BLACK
6
CONTINUOUS
10
138.667
20
-119.913
11
138.573
21
-119.799
0
LINE
8
BLACK
6
CONTINUOUS
10
138.573
20
-119.799
11
138.504
21
-119.668
0
LINE
8
BLACK
6
CONTINUOUS
10
138.504
20
-119.668
11
138.461
21
-119.527
0
LINE
8
BLACK
6
CONTINUOUS
10
138.461
20
-119.527
11
138.446
21
-119.38
0
LINE
8
BLACK
6
CONTINUOUS
10
138.446
20
-119.38
11
138.461
21
-119.233
0
LINE
8
BLACK
6
CONTINUOUS
10
138.461
20
-119.233
11
138.504
21
-119.092
0
LINE
8
BLACK
6
CONTINUOUS
10
138.504
20
-119.092
11
138.573
21
-118.961
0
LINE
8
BLACK
6
CONTINUOUS
10
138.573
20
-118.961
11
138.667
21
-118.847
0
LINE
8
BLACK
6
CONTINUOUS
10
138.667
20
-118.847
11
138.781
21
-118.753
0
LINE
8
BLACK
6
CONTINUOUS
10
138.781
20
-118.753
11
138.912
21
-118.684
0
LINE
8
BLACK
6
CONTINUOUS
10
138.912
20
-118.684
11
139.053
21
-118.641
0
LINE
8
BLACK
6
CONTINUOUS
10
139.053
20
-118.641
11
139.163
21
-118.63
0
LINE
8
BLACK
6
CONTINUOUS
10
139.163
20
-118.63
11
140.237
21
-118.63
0
LINE
8
BLACK
6
CONTINUOUS
10
140.237
20
-118.63
11
140.347
21
-118.641
0
LINE
8
BLACK
6
CONTINUOUS
10
132.727
20
-118.641
11
132.868
21
-118.684
0
LINE
8
BLACK
6
CONTINUOUS
10
132.868
20
-118.684
11
132.999
21
-118.753
0
LINE
8
BLACK
6
CONTINUOUS
10
132.999
20
-118.753
11
133.113
21
-118.847
0
LINE
8
BLACK
6
CONTINUOUS
10
133.113
20
-118.847
11
133.207
21
-118.961
0
LINE
8
BLACK
6
CONTINUOUS
10
133.207
20
-118.961
11
133.276
21
-119.092
0
LINE
8
BLACK
6
CONTINUOUS
10
133.276
20
-119.092
11
133.319
21
-119.233
0
LINE
8
BLACK
6
CONTINUOUS
10
133.319
20
-119.233
11
133.334
21
-119.38
0
LINE
8
BLACK
6
CONTINUOUS
10
133.334
20
-119.38
11
133.319
21
-119.527
0
LINE
8
BLACK
6
CONTINUOUS
10
133.319
20
-119.527
11
133.276
21
-119.668
0
LINE
8
BLACK
6
CONTINUOUS
10
133.276
20
-119.668
11
133.207
21
-119.799
0
LINE
8
BLACK
6
CONTINUOUS
10
133.207
20
-119.799
11
133.113
21
-119.913
0
LINE
8
BLACK
6
CONTINUOUS
10
133.113
20
-119.913
11
132.999
21
-120.007
0
LINE
8
BLACK
6
CONTINUOUS
10
132.999
20
-120.007
11
132.868
21
-120.076
0
LINE
8
BLACK
6
CONTINUOUS
10
132.868
20
-120.076
11
132.727
21
-120.119
0
LINE
8
BLACK
6
CONTINUOUS
10
132.727
20
-120.119
11
132.617
21
-120.13
0
LINE
8
BLACK
6
CONTINUOUS
10
132.617
20
-120.13
11
131.543
21
-120.13
0
LINE
8
BLACK
6
CONTINUOUS
10
131.543
20
-120.13
11
131.433
21
-120.119
0
LINE
8
BLACK
6
CONTINUOUS
10
131.433
20
-120.119
11
131.292
21
-120.076
0
LINE
8
BLACK
6
CONTINUOUS
10
131.292
20
-120.076
11
131.161
21
-120.007
0
LINE
8
BLACK
6
CONTINUOUS
10
131.161
20
-120.007
11
131.047
21
-119.913
0
LINE
8
BLACK
6
CONTINUOUS
10
131.047
20
-119.913
11
130.953
21
-119.799
0
LINE
8
BLACK
6
CONTINUOUS
10
130.953
20
-119.799
11
130.884
21
-119.668
0
LINE
8
BLACK
6
CONTINUOUS
10
130.884
20
-119.668
11
130.841
21
-119.527
0
LINE
8
BLACK
6
CONTINUOUS
10
130.841
20
-119.527
11
130.826
21
-119.38
0
LINE
8
BLACK
6
CONTINUOUS
10
130.826
20
-119.38
11
130.841
21
-119.233
0
LINE
8
BLACK
6
CONTINUOUS
10
130.841
20
-119.233
11
130.884
21
-119.092
0
LINE
8
BLACK
6
CONTINUOUS
10
130.884
20
-119.092
11
130.953
21
-118.961
0
LINE
8
BLACK
6
CONTINUOUS
10
130.953
20
-118.961
11
131.047
21
-118.847
0
LINE
8
BLACK
6
CONTINUOUS
10
131.047
20
-118.847
11
131.161
21
-118.753
0
LINE
8
BLACK
6
CONTINUOUS
10
131.161
20
-118.753
11
131.292
21
-118.684
0
LINE
8
BLACK
6
CONTINUOUS
10
131.292
20
-118.684
11
131.433
21
-118.641
0
LINE
8
BLACK
6
CONTINUOUS
10
131.433
20
-118.641
11
131.543
21
-118.63
0
LINE
8
BLACK
6
CONTINUOUS
10
131.543
20
-118.63
11
132.617
21
-118.63
0
LINE
8
BLACK
6
CONTINUOUS
10
132.617
20
-118.63
11
132.727
21
-118.641
0
LINE
8
BLACK
6
CONTINUOUS
10
147.967
20
-117.371
11
148.108
21
-117.414
0
LINE
8
BLACK
6
CONTINUOUS
10
148.108
20
-117.414
11
148.239
21
-117.483
0
LINE
8
BLACK
6
CONTINUOUS
10
148.239
20
-117.483
11
148.353
21
-117.577
0
LINE
8
BLACK
6
CONTINUOUS
10
148.353
20
-117.577
11
148.447
21
-117.691
0
LINE
8
BLACK
6
CONTINUOUS
10
148.447
20
-117.691
11
148.516
21
-117.822
0
LINE
8
BLACK
6
CONTINUOUS
10
148.516
20
-117.822
11
148.559
21
-117.963
0
LINE
8
BLACK
6
CONTINUOUS
10
148.559
20
-117.963
11
148.574
21
-118.11
0
LINE
8
BLACK
6
CONTINUOUS
10
148.574
20
-118.11
11
148.559
21
-118.257
0
LINE
8
BLACK
6
CONTINUOUS
10
148.559
20
-118.257
11
148.516
21
-118.398
0
LINE
8
BLACK
6
CONTINUOUS
10
148.516
20
-118.398
11
148.447
21
-118.529
0
LINE
8
BLACK
6
CONTINUOUS
10
148.447
20
-118.529
11
148.353
21
-118.643
0
LINE
8
BLACK
6
CONTINUOUS
10
148.353
20
-118.643
11
148.239
21
-118.737
0
LINE
8
BLACK
6
CONTINUOUS
10
148.239
20
-118.737
11
148.108
21
-118.806
0
LINE
8
BLACK
6
CONTINUOUS
10
148.108
20
-118.806
11
147.967
21
-118.849
0
LINE
8
BLACK
6
CONTINUOUS
10
147.967
20
-118.849
11
147.857
21
-118.86
0
LINE
8
BLACK
6
CONTINUOUS
10
147.857
20
-118.86
11
146.783
21
-118.86
0
LINE
8
BLACK
6
CONTINUOUS
10
146.783
20
-118.86
11
146.673
21
-118.849
0
LINE
8
BLACK
6
CONTINUOUS
10
146.673
20
-118.849
11
146.532
21
-118.806
0
LINE
8
BLACK
6
CONTINUOUS
10
146.532
20
-118.806
11
146.401
21
-118.737
0
LINE
8
BLACK
6
CONTINUOUS
10
146.401
20
-118.737
11
146.287
21
-118.643
0
LINE
8
BLACK
6
CONTINUOUS
10
146.287
20
-118.643
11
146.193
21
-118.529
0
LINE
8
BLACK
6
CONTINUOUS
10
146.193
20
-118.529
11
146.124
21
-118.398
0
LINE
8
BLACK
6
CONTINUOUS
10
146.124
20
-118.398
11
146.081
21
-118.257
0
LINE
8
BLACK
6
CONTINUOUS
10
146.081
20
-118.257
11
146.066
21
-118.11
0
LINE
8
BLACK
6
CONTINUOUS
10
146.066
20
-118.11
11
146.081
21
-117.963
0
LINE
8
BLACK
6
CONTINUOUS
10
146.081
20
-117.963
11
146.124
21
-117.822
0
LINE
8
BLACK
6
CONTINUOUS
10
146.124
20
-117.822
11
146.193
21
-117.691
0
LINE
8
BLACK
6
CONTINUOUS
10
146.193
20
-117.691
11
146.287
21
-117.577
0
LINE
8
BLACK
6
CONTINUOUS
10
146.287
20
-117.577
11
146.401
21
-117.483
0
LINE
8
BLACK
6
CONTINUOUS
10
146.401
20
-117.483
11
146.532
21
-117.414
0
LINE
8
BLACK
6
CONTINUOUS
10
146.532
20
-117.414
11
146.673
21
-117.371
0
LINE
8
BLACK
6
CONTINUOUS
10
146.673
20
-117.371
11
146.783
21
-117.36
0
LINE
8
BLACK
6
CONTINUOUS
10
146.783
20
-117.36
11
147.857
21
-117.36
0
LINE
8
BLACK
6
CONTINUOUS
10
147.857
20
-117.36
11
147.967
21
-117.371
0
LINE
8
BLACK
6
CONTINUOUS
10
126.73
20
-118.81
11
124.73
21
-118.81
0
LINE
8
BLACK
6
CONTINUOUS
10
124.73
20
-118.81
11
124.73
21
-117.41
0
LINE
8
BLACK
6
CONTINUOUS
10
124.73
20
-117.41
11
126.73
21
-117.41
0
LINE
8
BLACK
6
CONTINUOUS
10
126.73
20
-117.41
11
126.73
21
-118.81
0
LINE
8
BLACK
6
CONTINUOUS
10
106.847
20
-116.002
11
107.007
21
-116.051
0
LINE
8
BLACK
6
CONTINUOUS
10
107.007
20
-116.051
11
107.155
21
-116.13
0
LINE
8
BLACK
6
CONTINUOUS
10
107.155
20
-116.13
11
107.284
21
-116.236
0
LINE
8
BLACK
6
CONTINUOUS
10
107.284
20
-116.236
11
107.39
21
-116.365
0
LINE
8
BLACK
6
CONTINUOUS
10
107.39
20
-116.365
11
107.469
21
-116.513
0
LINE
8
BLACK
6
CONTINUOUS
10
107.469
20
-116.513
11
107.518
21
-116.673
0
LINE
8
BLACK
6
CONTINUOUS
10
107.518
20
-116.673
11
107.534
21
-116.84
0
LINE
8
BLACK
6
CONTINUOUS
10
107.534
20
-116.84
11
107.518
21
-117.007
0
LINE
8
BLACK
6
CONTINUOUS
10
107.518
20
-117.007
11
107.469
21
-117.167
0
LINE
8
BLACK
6
CONTINUOUS
10
107.469
20
-117.167
11
107.39
21
-117.315
0
LINE
8
BLACK
6
CONTINUOUS
10
107.39
20
-117.315
11
107.284
21
-117.444
0
LINE
8
BLACK
6
CONTINUOUS
10
107.284
20
-117.444
11
107.155
21
-117.55
0
LINE
8
BLACK
6
CONTINUOUS
10
107.155
20
-117.55
11
107.007
21
-117.629
0
LINE
8
BLACK
6
CONTINUOUS
10
107.007
20
-117.629
11
106.847
21
-117.678
0
LINE
8
BLACK
6
CONTINUOUS
10
106.847
20
-117.678
11
106.722
21
-117.69
0
LINE
8
BLACK
6
CONTINUOUS
10
106.722
20
-117.69
11
106.638
21
-117.69
0
LINE
8
BLACK
6
CONTINUOUS
10
106.638
20
-117.69
11
106.513
21
-117.678
0
LINE
8
BLACK
6
CONTINUOUS
10
106.513
20
-117.678
11
106.353
21
-117.629
0
LINE
8
BLACK
6
CONTINUOUS
10
106.353
20
-117.629
11
106.205
21
-117.55
0
LINE
8
BLACK
6
CONTINUOUS
10
106.205
20
-117.55
11
106.076
21
-117.444
0
LINE
8
BLACK
6
CONTINUOUS
10
106.076
20
-117.444
11
105.97
21
-117.315
0
LINE
8
BLACK
6
CONTINUOUS
10
105.97
20
-117.315
11
105.891
21
-117.167
0
LINE
8
BLACK
6
CONTINUOUS
10
105.891
20
-117.167
11
105.842
21
-117.007
0
LINE
8
BLACK
6
CONTINUOUS
10
105.842
20
-117.007
11
105.826
21
-116.84
0
LINE
8
BLACK
6
CONTINUOUS
10
105.826
20
-116.84
11
105.842
21
-116.673
0
LINE
8
BLACK
6
CONTINUOUS
10
105.842
20
-116.673
11
105.891
21
-116.513
0
LINE
8
BLACK
6
CONTINUOUS
10
105.891
20
-116.513
11
105.97
21
-116.365
0
LINE
8
BLACK
6
CONTINUOUS
10
105.97
20
-116.365
11
106.076
21
-116.236
0
LINE
8
BLACK
6
CONTINUOUS
10
106.076
20
-116.236
11
106.205
21
-116.13
0
LINE
8
BLACK
6
CONTINUOUS
10
106.205
20
-116.13
11
106.353
21
-116.051
0
LINE
8
BLACK
6
CONTINUOUS
10
106.353
20
-116.051
11
106.513
21
-116.002
0
LINE
8
BLACK
6
CONTINUOUS
10
106.513
20
-116.002
11
106.638
21
-115.99
0
LINE
8
BLACK
6
CONTINUOUS
10
106.638
20
-115.99
11
106.722
21
-115.99
0
LINE
8
BLACK
6
CONTINUOUS
10
106.722
20
-115.99
11
106.847
21
-116.002
0
LINE
8
BLACK
6
CONTINUOUS
10
140.347
20
-116.101
11
140.488
21
-116.144
0
LINE
8
BLACK
6
CONTINUOUS
10
140.488
20
-116.144
11
140.619
21
-116.213
0
LINE
8
BLACK
6
CONTINUOUS
10
140.619
20
-116.213
11
140.733
21
-116.307
0
LINE
8
BLACK
6
CONTINUOUS
10
140.733
20
-116.307
11
140.827
21
-116.421
0
LINE
8
BLACK
6
CONTINUOUS
10
140.827
20
-116.421
11
140.896
21
-116.552
0
LINE
8
BLACK
6
CONTINUOUS
10
140.896
20
-116.552
11
140.939
21
-116.693
0
LINE
8
BLACK
6
CONTINUOUS
10
140.939
20
-116.693
11
140.954
21
-116.84
0
LINE
8
BLACK
6
CONTINUOUS
10
140.954
20
-116.84
11
140.939
21
-116.987
0
LINE
8
BLACK
6
CONTINUOUS
10
140.939
20
-116.987
11
140.896
21
-117.128
0
LINE
8
BLACK
6
CONTINUOUS
10
140.896
20
-117.128
11
140.827
21
-117.259
0
LINE
8
BLACK
6
CONTINUOUS
10
140.827
20
-117.259
11
140.733
21
-117.373
0
LINE
8
BLACK
6
CONTINUOUS
10
140.733
20
-117.373
11
140.619
21
-117.467
0
LINE
8
BLACK
6
CONTINUOUS
10
140.619
20
-117.467
11
140.488
21
-117.536
0
LINE
8
BLACK
6
CONTINUOUS
10
140.488
20
-117.536
11
140.347
21
-117.579
0
LINE
8
BLACK
6
CONTINUOUS
10
140.347
20
-117.579
11
140.237
21
-117.59
0
LINE
8
BLACK
6
CONTINUOUS
10
140.237
20
-117.59
11
139.163
21
-117.59
0
LINE
8
BLACK
6
CONTINUOUS
10
139.163
20
-117.59
11
139.053
21
-117.579
0
LINE
8
BLACK
6
CONTINUOUS
10
139.053
20
-117.579
11
138.912
21
-117.536
0
LINE
8
BLACK
6
CONTINUOUS
10
138.912
20
-117.536
11
138.781
21
-117.467
0
LINE
8
BLACK
6
CONTINUOUS
10
138.781
20
-117.467
11
138.667
21
-117.373
0
LINE
8
BLACK
6
CONTINUOUS
10
138.667
20
-117.373
11
138.573
21
-117.259
0
LINE
8
BLACK
6
CONTINUOUS
10
138.573
20
-117.259
11
138.504
21
-117.128
0
LINE
8
BLACK
6
CONTINUOUS
10
138.504
20
-117.128
11
138.461
21
-116.987
0
LINE
8
BLACK
6
CONTINUOUS
10
138.461
20
-116.987
11
138.446
21
-116.84
0
LINE
8
BLACK
6
CONTINUOUS
10
138.446
20
-116.84
11
138.461
21
-116.693
0
LINE
8
BLACK
6
CONTINUOUS
10
138.461
20
-116.693
11
138.504
21
-116.552
0
LINE
8
BLACK
6
CONTINUOUS
10
138.504
20
-116.552
11
138.573
21
-116.421
0
LINE
8
BLACK
6
CONTINUOUS
10
138.573
20
-116.421
11
138.667
21
-116.307
0
LINE
8
BLACK
6
CONTINUOUS
10
138.667
20
-116.307
11
138.781
21
-116.213
0
LINE
8
BLACK
6
CONTINUOUS
10
138.781
20
-116.213
11
138.912
21
-116.144
0
LINE
8
BLACK
6
CONTINUOUS
10
138.912
20
-116.144
11
139.053
21
-116.101
0
LINE
8
BLACK
6
CONTINUOUS
10
139.053
20
-116.101
11
139.163
21
-116.09
0
LINE
8
BLACK
6
CONTINUOUS
10
139.163
20
-116.09
11
140.237
21
-116.09
0
LINE
8
BLACK
6
CONTINUOUS
10
140.237
20
-116.09
11
140.347
21
-116.101
0
LINE
8
BLACK
6
CONTINUOUS
10
132.727
20
-116.101
11
132.868
21
-116.144
0
LINE
8
BLACK
6
CONTINUOUS
10
132.868
20
-116.144
11
132.999
21
-116.213
0
LINE
8
BLACK
6
CONTINUOUS
10
132.999
20
-116.213
11
133.113
21
-116.307
0
LINE
8
BLACK
6
CONTINUOUS
10
133.113
20
-116.307
11
133.207
21
-116.421
0
LINE
8
BLACK
6
CONTINUOUS
10
133.207
20
-116.421
11
133.276
21
-116.552
0
LINE
8
BLACK
6
CONTINUOUS
10
133.276
20
-116.552
11
133.319
21
-116.693
0
LINE
8
BLACK
6
CONTINUOUS
10
133.319
20
-116.693
11
133.334
21
-116.84
0
LINE
8
BLACK
6
CONTINUOUS
10
133.334
20
-116.84
11
133.319
21
-116.987
0
LINE
8
BLACK
6
CONTINUOUS
10
133.319
20
-116.987
11
133.276
21
-117.128
0
LINE
8
BLACK
6
CONTINUOUS
10
133.276
20
-117.128
11
133.207
21
-117.259
0
LINE
8
BLACK
6
CONTINUOUS
10
133.207
20
-117.259
11
133.113
21
-117.373
0
LINE
8
BLACK
6
CONTINUOUS
10
133.113
20
-117.373
11
132.999
21
-117.467
0
LINE
8
BLACK
6
CONTINUOUS
10
132.999
20
-117.467
11
132.868
21
-117.536
0
LINE
8
BLACK
6
CONTINUOUS
10
132.868
20
-117.536
11
132.727
21
-117.579
0
LINE
8
BLACK
6
CONTINUOUS
10
132.727
20
-117.579
11
132.617
21
-117.59
0
LINE
8
BLACK
6
CONTINUOUS
10
132.617
20
-117.59
11
131.543
21
-117.59
0
LINE
8
BLACK
6
CONTINUOUS
10
131.543
20
-117.59
11
131.433
21
-117.579
0
LINE
8
BLACK
6
CONTINUOUS
10
131.433
20
-117.579
11
131.292
21
-117.536
0
LINE
8
BLACK
6
CONTINUOUS
10
131.292
20
-117.536
11
131.161
21
-117.467
0
LINE
8
BLACK
6
CONTINUOUS
10
131.161
20
-117.467
11
131.047
21
-117.373
0
LINE
8
BLACK
6
CONTINUOUS
10
131.047
20
-117.373
11
130.953
21
-117.259
0
LINE
8
BLACK
6
CONTINUOUS
10
130.953
20
-117.259
11
130.884
21
-117.128
0
LINE
8
BLACK
6
CONTINUOUS
10
130.884
20
-117.128
11
130.841
21
-116.987
0
LINE
8
BLACK
6
CONTINUOUS
10
130.841
20
-116.987
11
130.826
21
-116.84
0
LINE
8
BLACK
6
CONTINUOUS
10
130.826
20
-116.84
11
130.841
21
-116.693
0
LINE
8
BLACK
6
CONTINUOUS
10
130.841
20
-116.693
11
130.884
21
-116.552
0
LINE
8
BLACK
6
CONTINUOUS
10
130.884
20
-116.552
11
130.953
21
-116.421
0
LINE
8
BLACK
6
CONTINUOUS
10
130.953
20
-116.421
11
131.047
21
-116.307
0
LINE
8
BLACK
6
CONTINUOUS
10
131.047
20
-116.307
11
131.161
21
-116.213
0
LINE
8
BLACK
6
CONTINUOUS
10
131.161
20
-116.213
11
131.292
21
-116.144
0
LINE
8
BLACK
6
CONTINUOUS
10
131.292
20
-116.144
11
131.433
21
-116.101
0
LINE
8
BLACK
6
CONTINUOUS
10
131.433
20
-116.101
11
131.543
21
-116.09
0
LINE
8
BLACK
6
CONTINUOUS
10
131.543
20
-116.09
11
132.617
21
-116.09
0
LINE
8
BLACK
6
CONTINUOUS
10
132.617
20
-116.09
11
132.727
21
-116.101
0
LINE
8
BLACK
6
CONTINUOUS
10
84.1117
20
-109.528
11
84.2937
21
-109.604
0
LINE
8
BLACK
6
CONTINUOUS
10
84.2937
20
-109.604
11
84.4575
21
-109.713
0
LINE
8
BLACK
6
CONTINUOUS
10
84.4575
20
-109.713
11
84.5968
21
-109.853
0
LINE
8
BLACK
6
CONTINUOUS
10
84.5968
20
-109.853
11
84.7062
21
-110.016
0
LINE
8
BLACK
6
CONTINUOUS
10
84.7062
20
-110.016
11
84.7816
21
-110.198
0
LINE
8
BLACK
6
CONTINUOUS
10
84.7816
20
-110.198
11
84.82
21
-110.392
0
LINE
8
BLACK
6
CONTINUOUS
10
84.82
20
-110.392
11
84.82
21
-110.588
0
LINE
8
BLACK
6
CONTINUOUS
10
84.82
20
-110.588
11
84.7816
21
-110.782
0
LINE
8
BLACK
6
CONTINUOUS
10
84.7816
20
-110.782
11
84.7062
21
-110.964
0
LINE
8
BLACK
6
CONTINUOUS
10
84.7062
20
-110.964
11
84.5968
21
-111.127
0
LINE
8
BLACK
6
CONTINUOUS
10
84.5968
20
-111.127
11
84.4575
21
-111.267
0
LINE
8
BLACK
6
CONTINUOUS
10
84.4575
20
-111.267
11
84.32
21
-111.359
0
LINE
8
BLACK
6
CONTINUOUS
10
84.32
20
-111.359
11
84.32
21
-115.133
0
LINE
8
BLACK
6
CONTINUOUS
10
84.32
20
-115.133
11
84.4575
21
-115.225
0
LINE
8
BLACK
6
CONTINUOUS
10
84.4575
20
-115.225
11
84.5968
21
-115.364
0
LINE
8
BLACK
6
CONTINUOUS
10
84.5968
20
-115.364
11
84.7062
21
-115.528
0
LINE
8
BLACK
6
CONTINUOUS
10
84.7062
20
-115.528
11
84.7816
21
-115.71
0
LINE
8
BLACK
6
CONTINUOUS
10
84.7816
20
-115.71
11
84.82
21
-115.903
0
LINE
8
BLACK
6
CONTINUOUS
10
84.82
20
-115.903
11
84.82
21
-116.1
0
LINE
8
BLACK
6
CONTINUOUS
10
84.82
20
-116.1
11
84.7816
21
-116.293
0
LINE
8
BLACK
6
CONTINUOUS
10
84.7816
20
-116.293
11
84.7062
21
-116.475
0
LINE
8
BLACK
6
CONTINUOUS
10
84.7062
20
-116.475
11
84.5968
21
-116.639
0
LINE
8
BLACK
6
CONTINUOUS
10
84.5968
20
-116.639
11
84.4575
21
-116.779
0
LINE
8
BLACK
6
CONTINUOUS
10
84.4575
20
-116.779
11
84.2937
21
-116.888
0
LINE
8
BLACK
6
CONTINUOUS
10
84.2937
20
-116.888
11
84.1117
21
-116.963
0
LINE
8
BLACK
6
CONTINUOUS
10
84.1117
20
-116.963
11
83.9185
21
-117.002
0
LINE
8
BLACK
6
CONTINUOUS
10
83.9185
20
-117.002
11
83.7215
21
-117.002
0
LINE
8
BLACK
6
CONTINUOUS
10
83.7215
20
-117.002
11
83.5283
21
-116.963
0
LINE
8
BLACK
6
CONTINUOUS
10
83.5283
20
-116.963
11
83.3463
21
-116.888
0
LINE
8
BLACK
6
CONTINUOUS
10
83.3463
20
-116.888
11
83.1825
21
-116.779
0
LINE
8
BLACK
6
CONTINUOUS
10
83.1825
20
-116.779
11
83.0432
21
-116.639
0
LINE
8
BLACK
6
CONTINUOUS
10
83.0432
20
-116.639
11
82.9338
21
-116.475
0
LINE
8
BLACK
6
CONTINUOUS
10
82.9338
20
-116.475
11
82.8584
21
-116.293
0
LINE
8
BLACK
6
CONTINUOUS
10
82.8584
20
-116.293
11
82.82
21
-116.1
0
LINE
8
BLACK
6
CONTINUOUS
10
82.82
20
-116.1
11
82.82
21
-115.903
0
LINE
8
BLACK
6
CONTINUOUS
10
82.82
20
-115.903
11
82.8584
21
-115.71
0
LINE
8
BLACK
6
CONTINUOUS
10
82.8584
20
-115.71
11
82.9338
21
-115.528
0
LINE
8
BLACK
6
CONTINUOUS
10
82.9338
20
-115.528
11
83.0432
21
-115.364
0
LINE
8
BLACK
6
CONTINUOUS
10
83.0432
20
-115.364
11
83.1825
21
-115.225
0
LINE
8
BLACK
6
CONTINUOUS
10
83.1825
20
-115.225
11
83.32
21
-115.133
0
LINE
8
BLACK
6
CONTINUOUS
10
83.32
20
-115.133
11
83.32
21
-111.359
0
LINE
8
BLACK
6
CONTINUOUS
10
83.32
20
-111.359
11
83.1825
21
-111.267
0
LINE
8
BLACK
6
CONTINUOUS
10
83.1825
20
-111.267
11
83.0432
21
-111.127
0
LINE
8
BLACK
6
CONTINUOUS
10
83.0432
20
-111.127
11
82.9338
21
-110.964
0
LINE
8
BLACK
6
CONTINUOUS
10
82.9338
20
-110.964
11
82.8584
21
-110.782
0
LINE
8
BLACK
6
CONTINUOUS
10
82.8584
20
-110.782
11
82.82
21
-110.588
0
LINE
8
BLACK
6
CONTINUOUS
10
82.82
20
-110.588
11
82.82
21
-110.392
0
LINE
8
BLACK
6
CONTINUOUS
10
82.82
20
-110.392
11
82.8584
21
-110.198
0
LINE
8
BLACK
6
CONTINUOUS
10
82.8584
20
-110.198
11
82.9338
21
-110.016
0
LINE
8
BLACK
6
CONTINUOUS
10
82.9338
20
-110.016
11
83.0432
21
-109.853
0
LINE
8
BLACK
6
CONTINUOUS
10
83.0432
20
-109.853
11
83.1825
21
-109.713
0
LINE
8
BLACK
6
CONTINUOUS
10
83.1825
20
-109.713
11
83.3463
21
-109.604
0
LINE
8
BLACK
6
CONTINUOUS
10
83.3463
20
-109.604
11
83.5283
21
-109.528
0
LINE
8
BLACK
6
CONTINUOUS
10
83.5283
20
-109.528
11
83.7215
21
-109.49
0
LINE
8
BLACK
6
CONTINUOUS
10
83.7215
20
-109.49
11
83.9185
21
-109.49
0
LINE
8
BLACK
6
CONTINUOUS
10
83.9185
20
-109.49
11
84.1117
21
-109.528
0
LINE
8
BLACK
6
CONTINUOUS
10
126.58
20
-116.42
11
124.88
21
-116.42
0
LINE
8
BLACK
6
CONTINUOUS
10
124.88
20
-116.42
11
124.88
21
-114.72
0
LINE
8
BLACK
6
CONTINUOUS
10
124.88
20
-114.72
11
126.58
21
-114.72
0
LINE
8
BLACK
6
CONTINUOUS
10
126.58
20
-114.72
11
126.58
21
-116.42
0
LINE
8
BLACK
6
CONTINUOUS
10
148.17
20
-116.42
11
146.47
21
-116.42
0
LINE
8
BLACK
6
CONTINUOUS
10
146.47
20
-116.42
11
146.47
21
-114.72
0
LINE
8
BLACK
6
CONTINUOUS
10
146.47
20
-114.72
11
148.17
21
-114.72
0
LINE
8
BLACK
6
CONTINUOUS
10
148.17
20
-114.72
11
148.17
21
-116.42
0
LINE
8
BLACK
6
CONTINUOUS
10
107.53
20
-115.15
11
105.83
21
-115.15
0
LINE
8
BLACK
6
CONTINUOUS
10
105.83
20
-115.15
11
105.83
21
-113.45
0
LINE
8
BLACK
6
CONTINUOUS
10
105.83
20
-113.45
11
107.53
21
-113.45
0
LINE
8
BLACK
6
CONTINUOUS
10
107.53
20
-113.45
11
107.53
21
-115.15
0
LINE
8
BLACK
6
CONTINUOUS
10
132.88
20
-115.1
11
131.28
21
-115.1
0
LINE
8
BLACK
6
CONTINUOUS
10
131.28
20
-115.1
11
131.28
21
-113.5
0
LINE
8
BLACK
6
CONTINUOUS
10
131.28
20
-113.5
11
132.88
21
-113.5
0
LINE
8
BLACK
6
CONTINUOUS
10
132.88
20
-113.5
11
132.88
21
-115.1
0
LINE
8
BLACK
6
CONTINUOUS
10
140.347
20
-113.561
11
140.488
21
-113.604
0
LINE
8
BLACK
6
CONTINUOUS
10
140.488
20
-113.604
11
140.619
21
-113.673
0
LINE
8
BLACK
6
CONTINUOUS
10
140.619
20
-113.673
11
140.733
21
-113.767
0
LINE
8
BLACK
6
CONTINUOUS
10
140.733
20
-113.767
11
140.827
21
-113.881
0
LINE
8
BLACK
6
CONTINUOUS
10
140.827
20
-113.881
11
140.896
21
-114.012
0
LINE
8
BLACK
6
CONTINUOUS
10
140.896
20
-114.012
11
140.939
21
-114.153
0
LINE
8
BLACK
6
CONTINUOUS
10
140.939
20
-114.153
11
140.954
21
-114.3
0
LINE
8
BLACK
6
CONTINUOUS
10
140.954
20
-114.3
11
140.939
21
-114.447
0
LINE
8
BLACK
6
CONTINUOUS
10
140.939
20
-114.447
11
140.896
21
-114.588
0
LINE
8
BLACK
6
CONTINUOUS
10
140.896
20
-114.588
11
140.827
21
-114.719
0
LINE
8
BLACK
6
CONTINUOUS
10
140.827
20
-114.719
11
140.733
21
-114.833
0
LINE
8
BLACK
6
CONTINUOUS
10
140.733
20
-114.833
11
140.619
21
-114.927
0
LINE
8
BLACK
6
CONTINUOUS
10
140.619
20
-114.927
11
140.488
21
-114.996
0
LINE
8
BLACK
6
CONTINUOUS
10
140.488
20
-114.996
11
140.347
21
-115.039
0
LINE
8
BLACK
6
CONTINUOUS
10
140.347
20
-115.039
11
140.237
21
-115.05
0
LINE
8
BLACK
6
CONTINUOUS
10
140.237
20
-115.05
11
139.163
21
-115.05
0
LINE
8
BLACK
6
CONTINUOUS
10
139.163
20
-115.05
11
139.053
21
-115.039
0
LINE
8
BLACK
6
CONTINUOUS
10
139.053
20
-115.039
11
138.912
21
-114.996
0
LINE
8
BLACK
6
CONTINUOUS
10
138.912
20
-114.996
11
138.781
21
-114.927
0
LINE
8
BLACK
6
CONTINUOUS
10
138.781
20
-114.927
11
138.667
21
-114.833
0
LINE
8
BLACK
6
CONTINUOUS
10
138.667
20
-114.833
11
138.573
21
-114.719
0
LINE
8
BLACK
6
CONTINUOUS
10
138.573
20
-114.719
11
138.504
21
-114.588
0
LINE
8
BLACK
6
CONTINUOUS
10
138.504
20
-114.588
11
138.461
21
-114.447
0
LINE
8
BLACK
6
CONTINUOUS
10
138.461
20
-114.447
11
138.446
21
-114.3
0
LINE
8
BLACK
6
CONTINUOUS
10
138.446
20
-114.3
11
138.461
21
-114.153
0
LINE
8
BLACK
6
CONTINUOUS
10
138.461
20
-114.153
11
138.504
21
-114.012
0
LINE
8
BLACK
6
CONTINUOUS
10
138.504
20
-114.012
11
138.573
21
-113.881
0
LINE
8
BLACK
6
CONTINUOUS
10
138.573
20
-113.881
11
138.667
21
-113.767
0
LINE
8
BLACK
6
CONTINUOUS
10
138.667
20
-113.767
11
138.781
21
-113.673
0
LINE
8
BLACK
6
CONTINUOUS
10
138.781
20
-113.673
11
138.912
21
-113.604
0
LINE
8
BLACK
6
CONTINUOUS
10
138.912
20
-113.604
11
139.053
21
-113.561
0
LINE
8
BLACK
6
CONTINUOUS
10
139.053
20
-113.561
11
139.163
21
-113.55
0
LINE
8
BLACK
6
CONTINUOUS
10
139.163
20
-113.55
11
140.237
21
-113.55
0
LINE
8
BLACK
6
CONTINUOUS
10
140.237
20
-113.55
11
140.347
21
-113.561
0
LINE
8
BLACK
6
CONTINUOUS
10
112.51
20
-107.93
11
111.01
21
-107.93
0
LINE
8
BLACK
6
CONTINUOUS
10
111.01
20
-107.93
11
111.01
21
-105.43
0
LINE
8
BLACK
6
CONTINUOUS
10
111.01
20
-105.43
11
112.51
21
-105.43
0
LINE
8
BLACK
6
CONTINUOUS
10
112.51
20
-105.43
11
112.51
21
-107.93
0
LINE
8
BLACK
6
CONTINUOUS
10
87.11
20
-107.93
11
85.61
21
-107.93
0
LINE
8
BLACK
6
CONTINUOUS
10
85.61
20
-107.93
11
85.61
21
-105.43
0
LINE
8
BLACK
6
CONTINUOUS
10
85.61
20
-105.43
11
87.11
21
-105.43
0
LINE
8
BLACK
6
CONTINUOUS
10
87.11
20
-105.43
11
87.11
21
-107.93
0
LINE
8
BLACK
6
CONTINUOUS
10
89.65
20
-107.93
11
88.15
21
-107.93
0
LINE
8
BLACK
6
CONTINUOUS
10
88.15
20
-107.93
11
88.15
21
-105.43
0
LINE
8
BLACK
6
CONTINUOUS
10
88.15
20
-105.43
11
89.65
21
-105.43
0
LINE
8
BLACK
6
CONTINUOUS
10
89.65
20
-105.43
11
89.65
21
-107.93
0
LINE
8
BLACK
6
CONTINUOUS
10
92.19
20
-107.93
11
90.69
21
-107.93
0
LINE
8
BLACK
6
CONTINUOUS
10
90.69
20
-107.93
11
90.69
21
-105.43
0
LINE
8
BLACK
6
CONTINUOUS
10
90.69
20
-105.43
11
92.19
21
-105.43
0
LINE
8
BLACK
6
CONTINUOUS
10
92.19
20
-105.43
11
92.19
21
-107.93
0
LINE
8
BLACK
6
CONTINUOUS
10
94.73
20
-107.93
11
93.23
21
-107.93
0
LINE
8
BLACK
6
CONTINUOUS
10
93.23
20
-107.93
11
93.23
21
-105.43
0
LINE
8
BLACK
6
CONTINUOUS
10
93.23
20
-105.43
11
94.73
21
-105.43
0
LINE
8
BLACK
6
CONTINUOUS
10
94.73
20
-105.43
11
94.73
21
-107.93
0
LINE
8
BLACK
6
CONTINUOUS
10
97.27
20
-107.93
11
95.77
21
-107.93
0
LINE
8
BLACK
6
CONTINUOUS
10
95.77
20
-107.93
11
95.77
21
-105.43
0
LINE
8
BLACK
6
CONTINUOUS
10
95.77
20
-105.43
11
97.27
21
-105.43
0
LINE
8
BLACK
6
CONTINUOUS
10
97.27
20
-105.43
11
97.27
21
-107.93
0
LINE
8
BLACK
6
CONTINUOUS
10
99.81
20
-107.93
11
98.31
21
-107.93
0
LINE
8
BLACK
6
CONTINUOUS
10
98.31
20
-107.93
11
98.31
21
-105.43
0
LINE
8
BLACK
6
CONTINUOUS
10
98.31
20
-105.43
11
99.81
21
-105.43
0
LINE
8
BLACK
6
CONTINUOUS
10
99.81
20
-105.43
11
99.81
21
-107.93
0
LINE
8
BLACK
6
CONTINUOUS
10
102.35
20
-107.93
11
100.85
21
-107.93
0
LINE
8
BLACK
6
CONTINUOUS
10
100.85
20
-107.93
11
100.85
21
-105.43
0
LINE
8
BLACK
6
CONTINUOUS
10
100.85
20
-105.43
11
102.35
21
-105.43
0
LINE
8
BLACK
6
CONTINUOUS
10
102.35
20
-105.43
11
102.35
21
-107.93
0
LINE
8
BLACK
6
CONTINUOUS
10
104.89
20
-107.93
11
103.39
21
-107.93
0
LINE
8
BLACK
6
CONTINUOUS
10
103.39
20
-107.93
11
103.39
21
-105.43
0
LINE
8
BLACK
6
CONTINUOUS
10
103.39
20
-105.43
11
104.89
21
-105.43
0
LINE
8
BLACK
6
CONTINUOUS
10
104.89
20
-105.43
11
104.89
21
-107.93
0
LINE
8
BLACK
6
CONTINUOUS
10
107.43
20
-107.93
11
105.93
21
-107.93
0
LINE
8
BLACK
6
CONTINUOUS
10
105.93
20
-107.93
11
105.93
21
-105.43
0
LINE
8
BLACK
6
CONTINUOUS
10
105.93
20
-105.43
11
107.43
21
-105.43
0
LINE
8
BLACK
6
CONTINUOUS
10
107.43
20
-105.43
11
107.43
21
-107.93
0
LINE
8
BLACK
6
CONTINUOUS
10
109.97
20
-107.93
11
108.47
21
-107.93
0
LINE
8
BLACK
6
CONTINUOUS
10
108.47
20
-107.93
11
108.47
21
-105.43
0
LINE
8
BLACK
6
CONTINUOUS
10
108.47
20
-105.43
11
109.97
21
-105.43
0
LINE
8
BLACK
6
CONTINUOUS
10
109.97
20
-105.43
11
109.97
21
-107.93
0
LINE
8
BLACK
6
CONTINUOUS
10
115.05
20
-107.93
11
113.55
21
-107.93
0
LINE
8
BLACK
6
CONTINUOUS
10
113.55
20
-107.93
11
113.55
21
-105.43
0
LINE
8
BLACK
6
CONTINUOUS
10
113.55
20
-105.43
11
115.05
21
-105.43
0
LINE
8
BLACK
6
CONTINUOUS
10
115.05
20
-105.43
11
115.05
21
-107.93
0
LINE
8
BLACK
6
CONTINUOUS
10
140.45
20
-107.93
11
138.95
21
-107.93
0
LINE
8
BLACK
6
CONTINUOUS
10
138.95
20
-107.93
11
138.95
21
-105.43
0
LINE
8
BLACK
6
CONTINUOUS
10
138.95
20
-105.43
11
140.45
21
-105.43
0
LINE
8
BLACK
6
CONTINUOUS
10
140.45
20
-105.43
11
140.45
21
-107.93
0
LINE
8
BLACK
6
CONTINUOUS
10
137.91
20
-107.93
11
136.41
21
-107.93
0
LINE
8
BLACK
6
CONTINUOUS
10
136.41
20
-107.93
11
136.41
21
-105.43
0
LINE
8
BLACK
6
CONTINUOUS
10
136.41
20
-105.43
11
137.91
21
-105.43
0
LINE
8
BLACK
6
CONTINUOUS
10
137.91
20
-105.43
11
137.91
21
-107.93
0
LINE
8
BLACK
6
CONTINUOUS
10
135.37
20
-107.93
11
133.87
21
-107.93
0
LINE
8
BLACK
6
CONTINUOUS
10
133.87
20
-107.93
11
133.87
21
-105.43
0
LINE
8
BLACK
6
CONTINUOUS
10
133.87
20
-105.43
11
135.37
21
-105.43
0
LINE
8
BLACK
6
CONTINUOUS
10
135.37
20
-105.43
11
135.37
21
-107.93
0
LINE
8
BLACK
6
CONTINUOUS
10
117.59
20
-107.93
11
116.09
21
-107.93
0
LINE
8
BLACK
6
CONTINUOUS
10
116.09
20
-107.93
11
116.09
21
-105.43
0
LINE
8
BLACK
6
CONTINUOUS
10
116.09
20
-105.43
11
117.59
21
-105.43
0
LINE
8
BLACK
6
CONTINUOUS
10
117.59
20
-105.43
11
117.59
21
-107.93
0
LINE
8
BLACK
6
CONTINUOUS
10
120.13
20
-107.93
11
118.63
21
-107.93
0
LINE
8
BLACK
6
CONTINUOUS
10
118.63
20
-107.93
11
118.63
21
-105.43
0
LINE
8
BLACK
6
CONTINUOUS
10
118.63
20
-105.43
11
120.13
21
-105.43
0
LINE
8
BLACK
6
CONTINUOUS
10
120.13
20
-105.43
11
120.13
21
-107.93
0
LINE
8
BLACK
6
CONTINUOUS
10
132.83
20
-107.93
11
131.33
21
-107.93
0
LINE
8
BLACK
6
CONTINUOUS
10
131.33
20
-107.93
11
131.33
21
-105.43
0
LINE
8
BLACK
6
CONTINUOUS
10
131.33
20
-105.43
11
132.83
21
-105.43
0
LINE
8
BLACK
6
CONTINUOUS
10
132.83
20
-105.43
11
132.83
21
-107.93
0
LINE
8
BLACK
6
CONTINUOUS
10
130.29
20
-107.93
11
128.79
21
-107.93
0
LINE
8
BLACK
6
CONTINUOUS
10
128.79
20
-107.93
11
128.79
21
-105.43
0
LINE
8
BLACK
6
CONTINUOUS
10
128.79
20
-105.43
11
130.29
21
-105.43
0
LINE
8
BLACK
6
CONTINUOUS
10
130.29
20
-105.43
11
130.29
21
-107.93
0
LINE
8
BLACK
6
CONTINUOUS
10
127.75
20
-107.93
11
126.25
21
-107.93
0
LINE
8
BLACK
6
CONTINUOUS
10
126.25
20
-107.93
11
126.25
21
-105.43
0
LINE
8
BLACK
6
CONTINUOUS
10
126.25
20
-105.43
11
127.75
21
-105.43
0
LINE
8
BLACK
6
CONTINUOUS
10
127.75
20
-105.43
11
127.75
21
-107.93
0
LINE
8
BLACK
6
CONTINUOUS
10
125.11
20
-107.78
11
123.81
21
-107.78
0
LINE
8
BLACK
6
CONTINUOUS
10
123.81
20
-107.78
11
123.81
21
-105.58
0
LINE
8
BLACK
6
CONTINUOUS
10
123.81
20
-105.58
11
125.11
21
-105.58
0
LINE
8
BLACK
6
CONTINUOUS
10
125.11
20
-105.58
11
125.11
21
-107.78
0
LINE
8
BLACK
6
CONTINUOUS
10
122.57
20
-107.78
11
121.27
21
-107.78
0
LINE
8
BLACK
6
CONTINUOUS
10
121.27
20
-107.78
11
121.27
21
-105.58
0
LINE
8
BLACK
6
CONTINUOUS
10
121.27
20
-105.58
11
122.57
21
-105.58
0
LINE
8
BLACK
6
CONTINUOUS
10
122.57
20
-105.58
11
122.57
21
-107.78
0
LINE
8
BLACK
6
CONTINUOUS
10
84.62
20
-107.48
11
83.02
21
-107.48
0
LINE
8
BLACK
6
CONTINUOUS
10
83.02
20
-107.48
11
83.02
21
-105.88
0
LINE
8
BLACK
6
CONTINUOUS
10
83.02
20
-105.88
11
84.62
21
-105.88
0
LINE
8
BLACK
6
CONTINUOUS
10
84.62
20
-105.88
11
84.62
21
-107.48
0
LINE
8
BLACK
6
CONTINUOUS
10
142.473
20
-105.911
11
142.619
21
-105.971
0
LINE
8
BLACK
6
CONTINUOUS
10
142.619
20
-105.971
11
142.75
21
-106.059
0
LINE
8
BLACK
6
CONTINUOUS
10
142.75
20
-106.059
11
142.861
21
-106.17
0
LINE
8
BLACK
6
CONTINUOUS
10
142.861
20
-106.17
11
142.949
21
-106.301
0
LINE
8
BLACK
6
CONTINUOUS
10
142.949
20
-106.301
11
143.009
21
-106.447
0
LINE
8
BLACK
6
CONTINUOUS
10
143.009
20
-106.447
11
143.04
21
-106.601
0
LINE
8
BLACK
6
CONTINUOUS
10
143.04
20
-106.601
11
143.04
21
-106.759
0
LINE
8
BLACK
6
CONTINUOUS
10
143.04
20
-106.759
11
143.009
21
-106.913
0
LINE
8
BLACK
6
CONTINUOUS
10
143.009
20
-106.913
11
142.949
21
-107.059
0
LINE
8
BLACK
6
CONTINUOUS
10
142.949
20
-107.059
11
142.861
21
-107.19
0
LINE
8
BLACK
6
CONTINUOUS
10
142.861
20
-107.19
11
142.75
21
-107.301
0
LINE
8
BLACK
6
CONTINUOUS
10
142.75
20
-107.301
11
142.619
21
-107.389
0
LINE
8
BLACK
6
CONTINUOUS
10
142.619
20
-107.389
11
142.473
21
-107.449
0
LINE
8
BLACK
6
CONTINUOUS
10
142.473
20
-107.449
11
142.319
21
-107.48
0
LINE
8
BLACK
6
CONTINUOUS
10
142.319
20
-107.48
11
142.161
21
-107.48
0
LINE
8
BLACK
6
CONTINUOUS
10
142.161
20
-107.48
11
142.007
21
-107.449
0
LINE
8
BLACK
6
CONTINUOUS
10
142.007
20
-107.449
11
141.861
21
-107.389
0
LINE
8
BLACK
6
CONTINUOUS
10
141.861
20
-107.389
11
141.73
21
-107.301
0
LINE
8
BLACK
6
CONTINUOUS
10
141.73
20
-107.301
11
141.619
21
-107.19
0
LINE
8
BLACK
6
CONTINUOUS
10
141.619
20
-107.19
11
141.531
21
-107.059
0
LINE
8
BLACK
6
CONTINUOUS
10
141.531
20
-107.059
11
141.471
21
-106.913
0
LINE
8
BLACK
6
CONTINUOUS
10
141.471
20
-106.913
11
141.44
21
-106.759
0
LINE
8
BLACK
6
CONTINUOUS
10
141.44
20
-106.759
11
141.44
21
-106.601
0
LINE
8
BLACK
6
CONTINUOUS
10
141.44
20
-106.601
11
141.471
21
-106.447
0
LINE
8
BLACK
6
CONTINUOUS
10
141.471
20
-106.447
11
141.531
21
-106.301
0
LINE
8
BLACK
6
CONTINUOUS
10
141.531
20
-106.301
11
141.619
21
-106.17
0
LINE
8
BLACK
6
CONTINUOUS
10
141.619
20
-106.17
11
141.73
21
-106.059
0
LINE
8
BLACK
6
CONTINUOUS
10
141.73
20
-106.059
11
141.861
21
-105.971
0
LINE
8
BLACK
6
CONTINUOUS
10
141.861
20
-105.971
11
142.007
21
-105.911
0
LINE
8
BLACK
6
CONTINUOUS
10
142.007
20
-105.911
11
142.161
21
-105.88
0
LINE
8
BLACK
6
CONTINUOUS
10
142.161
20
-105.88
11
142.319
21
-105.88
0
LINE
8
BLACK
6
CONTINUOUS
10
142.319
20
-105.88
11
142.473
21
-105.911
0
LINE
8
BLACK
6
CONTINUOUS
10
129.773
20
-103.371
11
129.919
21
-103.431
0
LINE
8
BLACK
6
CONTINUOUS
10
129.919
20
-103.431
11
130.05
21
-103.519
0
LINE
8
BLACK
6
CONTINUOUS
10
130.05
20
-103.519
11
130.161
21
-103.63
0
LINE
8
BLACK
6
CONTINUOUS
10
130.161
20
-103.63
11
130.249
21
-103.761
0
LINE
8
BLACK
6
CONTINUOUS
10
130.249
20
-103.761
11
130.309
21
-103.907
0
LINE
8
BLACK
6
CONTINUOUS
10
130.309
20
-103.907
11
130.34
21
-104.061
0
LINE
8
BLACK
6
CONTINUOUS
10
130.34
20
-104.061
11
130.34
21
-104.219
0
LINE
8
BLACK
6
CONTINUOUS
10
130.34
20
-104.219
11
130.309
21
-104.373
0
LINE
8
BLACK
6
CONTINUOUS
10
130.309
20
-104.373
11
130.249
21
-104.519
0
LINE
8
BLACK
6
CONTINUOUS
10
130.249
20
-104.519
11
130.161
21
-104.65
0
LINE
8
BLACK
6
CONTINUOUS
10
130.161
20
-104.65
11
130.05
21
-104.761
0
LINE
8
BLACK
6
CONTINUOUS
10
130.05
20
-104.761
11
129.919
21
-104.849
0
LINE
8
BLACK
6
CONTINUOUS
10
129.919
20
-104.849
11
129.773
21
-104.909
0
LINE
8
BLACK
6
CONTINUOUS
10
129.773
20
-104.909
11
129.619
21
-104.94
0
LINE
8
BLACK
6
CONTINUOUS
10
129.619
20
-104.94
11
129.461
21
-104.94
0
LINE
8
BLACK
6
CONTINUOUS
10
129.461
20
-104.94
11
129.307
21
-104.909
0
LINE
8
BLACK
6
CONTINUOUS
10
129.307
20
-104.909
11
129.161
21
-104.849
0
LINE
8
BLACK
6
CONTINUOUS
10
129.161
20
-104.849
11
129.03
21
-104.761
0
LINE
8
BLACK
6
CONTINUOUS
10
129.03
20
-104.761
11
128.919
21
-104.65
0
LINE
8
BLACK
6
CONTINUOUS
10
128.919
20
-104.65
11
128.831
21
-104.519
0
LINE
8
BLACK
6
CONTINUOUS
10
128.831
20
-104.519
11
128.771
21
-104.373
0
LINE
8
BLACK
6
CONTINUOUS
10
128.771
20
-104.373
11
128.74
21
-104.219
0
LINE
8
BLACK
6
CONTINUOUS
10
128.74
20
-104.219
11
128.74
21
-104.061
0
LINE
8
BLACK
6
CONTINUOUS
10
128.74
20
-104.061
11
128.771
21
-103.907
0
LINE
8
BLACK
6
CONTINUOUS
10
128.771
20
-103.907
11
128.831
21
-103.761
0
LINE
8
BLACK
6
CONTINUOUS
10
128.831
20
-103.761
11
128.919
21
-103.63
0
LINE
8
BLACK
6
CONTINUOUS
10
128.919
20
-103.63
11
129.03
21
-103.519
0
LINE
8
BLACK
6
CONTINUOUS
10
129.03
20
-103.519
11
129.161
21
-103.431
0
LINE
8
BLACK
6
CONTINUOUS
10
129.161
20
-103.431
11
129.307
21
-103.371
0
LINE
8
BLACK
6
CONTINUOUS
10
129.307
20
-103.371
11
129.461
21
-103.34
0
LINE
8
BLACK
6
CONTINUOUS
10
129.461
20
-103.34
11
129.619
21
-103.34
0
LINE
8
BLACK
6
CONTINUOUS
10
129.619
20
-103.34
11
129.773
21
-103.371
0
LINE
8
BLACK
6
CONTINUOUS
10
100.563
20
-102.911
11
100.709
21
-102.971
0
LINE
8
BLACK
6
CONTINUOUS
10
100.709
20
-102.971
11
100.84
21
-103.059
0
LINE
8
BLACK
6
CONTINUOUS
10
100.84
20
-103.059
11
100.951
21
-103.17
0
LINE
8
BLACK
6
CONTINUOUS
10
100.951
20
-103.17
11
101.039
21
-103.301
0
LINE
8
BLACK
6
CONTINUOUS
10
101.039
20
-103.301
11
101.099
21
-103.447
0
LINE
8
BLACK
6
CONTINUOUS
10
101.099
20
-103.447
11
101.13
21
-103.601
0
LINE
8
BLACK
6
CONTINUOUS
10
101.13
20
-103.601
11
101.13
21
-103.759
0
LINE
8
BLACK
6
CONTINUOUS
10
101.13
20
-103.759
11
101.099
21
-103.913
0
LINE
8
BLACK
6
CONTINUOUS
10
101.099
20
-103.913
11
101.039
21
-104.059
0
LINE
8
BLACK
6
CONTINUOUS
10
101.039
20
-104.059
11
100.951
21
-104.19
0
LINE
8
BLACK
6
CONTINUOUS
10
100.951
20
-104.19
11
100.84
21
-104.301
0
LINE
8
BLACK
6
CONTINUOUS
10
100.84
20
-104.301
11
100.709
21
-104.389
0
LINE
8
BLACK
6
CONTINUOUS
10
100.709
20
-104.389
11
100.563
21
-104.449
0
LINE
8
BLACK
6
CONTINUOUS
10
100.563
20
-104.449
11
100.409
21
-104.48
0
LINE
8
BLACK
6
CONTINUOUS
10
100.409
20
-104.48
11
100.251
21
-104.48
0
LINE
8
BLACK
6
CONTINUOUS
10
100.251
20
-104.48
11
100.097
21
-104.449
0
LINE
8
BLACK
6
CONTINUOUS
10
100.097
20
-104.449
11
99.9511
21
-104.389
0
LINE
8
BLACK
6
CONTINUOUS
10
99.9511
20
-104.389
11
99.82
21
-104.301
0
LINE
8
BLACK
6
CONTINUOUS
10
99.82
20
-104.301
11
99.7086
21
-104.19
0
LINE
8
BLACK
6
CONTINUOUS
10
99.7086
20
-104.19
11
99.621
21
-104.059
0
LINE
8
BLACK
6
CONTINUOUS
10
99.621
20
-104.059
11
99.5607
21
-103.913
0
LINE
8
BLACK
6
CONTINUOUS
10
99.5607
20
-103.913
11
99.53
21
-103.759
0
LINE
8
BLACK
6
CONTINUOUS
10
99.53
20
-103.759
11
99.53
21
-103.601
0
LINE
8
BLACK
6
CONTINUOUS
10
99.53
20
-103.601
11
99.5607
21
-103.447
0
LINE
8
BLACK
6
CONTINUOUS
10
99.5607
20
-103.447
11
99.621
21
-103.301
0
LINE
8
BLACK
6
CONTINUOUS
10
99.621
20
-103.301
11
99.7086
21
-103.17
0
LINE
8
BLACK
6
CONTINUOUS
10
99.7086
20
-103.17
11
99.82
21
-103.059
0
LINE
8
BLACK
6
CONTINUOUS
10
99.82
20
-103.059
11
99.9511
21
-102.971
0
LINE
8
BLACK
6
CONTINUOUS
10
99.9511
20
-102.971
11
100.097
21
-102.911
0
LINE
8
BLACK
6
CONTINUOUS
10
100.097
20
-102.911
11
100.251
21
-102.88
0
LINE
8
BLACK
6
CONTINUOUS
10
100.251
20
-102.88
11
100.409
21
-102.88
0
LINE
8
BLACK
6
CONTINUOUS
10
100.409
20
-102.88
11
100.563
21
-102.911
0
LINE
8
BLACK
6
CONTINUOUS
10
98.0234
20
-102.911
11
98.1689
21
-102.971
0
LINE
8
BLACK
6
CONTINUOUS
10
98.1689
20
-102.971
11
98.3
21
-103.059
0
LINE
8
BLACK
6
CONTINUOUS
10
98.3
20
-103.059
11
98.4114
21
-103.17
0
LINE
8
BLACK
6
CONTINUOUS
10
98.4114
20
-103.17
11
98.499
21
-103.301
0
LINE
8
BLACK
6
CONTINUOUS
10
98.499
20
-103.301
11
98.5593
21
-103.447
0
LINE
8
BLACK
6
CONTINUOUS
10
98.5593
20
-103.447
11
98.59
21
-103.601
0
LINE
8
BLACK
6
CONTINUOUS
10
98.59
20
-103.601
11
98.59
21
-103.759
0
LINE
8
BLACK
6
CONTINUOUS
10
98.59
20
-103.759
11
98.5593
21
-103.913
0
LINE
8
BLACK
6
CONTINUOUS
10
98.5593
20
-103.913
11
98.499
21
-104.059
0
LINE
8
BLACK
6
CONTINUOUS
10
98.499
20
-104.059
11
98.4114
21
-104.19
0
LINE
8
BLACK
6
CONTINUOUS
10
98.4114
20
-104.19
11
98.3
21
-104.301
0
LINE
8
BLACK
6
CONTINUOUS
10
98.3
20
-104.301
11
98.1689
21
-104.389
0
LINE
8
BLACK
6
CONTINUOUS
10
98.1689
20
-104.389
11
98.0234
21
-104.449
0
LINE
8
BLACK
6
CONTINUOUS
10
98.0234
20
-104.449
11
97.8688
21
-104.48
0
LINE
8
BLACK
6
CONTINUOUS
10
97.8688
20
-104.48
11
97.7112
21
-104.48
0
LINE
8
BLACK
6
CONTINUOUS
10
97.7112
20
-104.48
11
97.5566
21
-104.449
0
LINE
8
BLACK
6
CONTINUOUS
10
97.5566
20
-104.449
11
97.4111
21
-104.389
0
LINE
8
BLACK
6
CONTINUOUS
10
97.4111
20
-104.389
11
97.28
21
-104.301
0
LINE
8
BLACK
6
CONTINUOUS
10
97.28
20
-104.301
11
97.1686
21
-104.19
0
LINE
8
BLACK
6
CONTINUOUS
10
97.1686
20
-104.19
11
97.081
21
-104.059
0
LINE
8
BLACK
6
CONTINUOUS
10
97.081
20
-104.059
11
97.0207
21
-103.913
0
LINE
8
BLACK
6
CONTINUOUS
10
97.0207
20
-103.913
11
96.99
21
-103.759
0
LINE
8
BLACK
6
CONTINUOUS
10
96.99
20
-103.759
11
96.99
21
-103.601
0
LINE
8
BLACK
6
CONTINUOUS
10
96.99
20
-103.601
11
97.0207
21
-103.447
0
LINE
8
BLACK
6
CONTINUOUS
10
97.0207
20
-103.447
11
97.081
21
-103.301
0
LINE
8
BLACK
6
CONTINUOUS
10
97.081
20
-103.301
11
97.1686
21
-103.17
0
LINE
8
BLACK
6
CONTINUOUS
10
97.1686
20
-103.17
11
97.28
21
-103.059
0
LINE
8
BLACK
6
CONTINUOUS
10
97.28
20
-103.059
11
97.4111
21
-102.971
0
LINE
8
BLACK
6
CONTINUOUS
10
97.4111
20
-102.971
11
97.5566
21
-102.911
0
LINE
8
BLACK
6
CONTINUOUS
10
97.5566
20
-102.911
11
97.7112
21
-102.88
0
LINE
8
BLACK
6
CONTINUOUS
10
97.7112
20
-102.88
11
97.8688
21
-102.88
0
LINE
8
BLACK
6
CONTINUOUS
10
97.8688
20
-102.88
11
98.0234
21
-102.911
0
LINE
8
BLACK
6
CONTINUOUS
10
95.4834
20
-102.911
11
95.6289
21
-102.971
0
LINE
8
BLACK
6
CONTINUOUS
10
95.6289
20
-102.971
11
95.76
21
-103.059
0
LINE
8
BLACK
6
CONTINUOUS
10
95.76
20
-103.059
11
95.8714
21
-103.17
0
LINE
8
BLACK
6
CONTINUOUS
10
95.8714
20
-103.17
11
95.959
21
-103.301
0
LINE
8
BLACK
6
CONTINUOUS
10
95.959
20
-103.301
11
96.0193
21
-103.447
0
LINE
8
BLACK
6
CONTINUOUS
10
96.0193
20
-103.447
11
96.05
21
-103.601
0
LINE
8
BLACK
6
CONTINUOUS
10
96.05
20
-103.601
11
96.05
21
-103.759
0
LINE
8
BLACK
6
CONTINUOUS
10
96.05
20
-103.759
11
96.0193
21
-103.913
0
LINE
8
BLACK
6
CONTINUOUS
10
96.0193
20
-103.913
11
95.959
21
-104.059
0
LINE
8
BLACK
6
CONTINUOUS
10
95.959
20
-104.059
11
95.8714
21
-104.19
0
LINE
8
BLACK
6
CONTINUOUS
10
95.8714
20
-104.19
11
95.76
21
-104.301
0
LINE
8
BLACK
6
CONTINUOUS
10
95.76
20
-104.301
11
95.6289
21
-104.389
0
LINE
8
BLACK
6
CONTINUOUS
10
95.6289
20
-104.389
11
95.4834
21
-104.449
0
LINE
8
BLACK
6
CONTINUOUS
10
95.4834
20
-104.449
11
95.3288
21
-104.48
0
LINE
8
BLACK
6
CONTINUOUS
10
95.3288
20
-104.48
11
95.1712
21
-104.48
0
LINE
8
BLACK
6
CONTINUOUS
10
95.1712
20
-104.48
11
95.0166
21
-104.449
0
LINE
8
BLACK
6
CONTINUOUS
10
95.0166
20
-104.449
11
94.8711
21
-104.389
0
LINE
8
BLACK
6
CONTINUOUS
10
94.8711
20
-104.389
11
94.74
21
-104.301
0
LINE
8
BLACK
6
CONTINUOUS
10
94.74
20
-104.301
11
94.6286
21
-104.19
0
LINE
8
BLACK
6
CONTINUOUS
10
94.6286
20
-104.19
11
94.541
21
-104.059
0
LINE
8
BLACK
6
CONTINUOUS
10
94.541
20
-104.059
11
94.4807
21
-103.913
0
LINE
8
BLACK
6
CONTINUOUS
10
94.4807
20
-103.913
11
94.45
21
-103.759
0
LINE
8
BLACK
6
CONTINUOUS
10
94.45
20
-103.759
11
94.45
21
-103.601
0
LINE
8
BLACK
6
CONTINUOUS
10
94.45
20
-103.601
11
94.4807
21
-103.447
0
LINE
8
BLACK
6
CONTINUOUS
10
94.4807
20
-103.447
11
94.541
21
-103.301
0
LINE
8
BLACK
6
CONTINUOUS
10
94.541
20
-103.301
11
94.6286
21
-103.17
0
LINE
8
BLACK
6
CONTINUOUS
10
94.6286
20
-103.17
11
94.74
21
-103.059
0
LINE
8
BLACK
6
CONTINUOUS
10
94.74
20
-103.059
11
94.8711
21
-102.971
0
LINE
8
BLACK
6
CONTINUOUS
10
94.8711
20
-102.971
11
95.0166
21
-102.911
0
LINE
8
BLACK
6
CONTINUOUS
10
95.0166
20
-102.911
11
95.1712
21
-102.88
0
LINE
8
BLACK
6
CONTINUOUS
10
95.1712
20
-102.88
11
95.3288
21
-102.88
0
LINE
8
BLACK
6
CONTINUOUS
10
95.3288
20
-102.88
11
95.4834
21
-102.911
0
LINE
8
BLACK
6
CONTINUOUS
10
92.9434
20
-102.911
11
93.0889
21
-102.971
0
LINE
8
BLACK
6
CONTINUOUS
10
93.0889
20
-102.971
11
93.22
21
-103.059
0
LINE
8
BLACK
6
CONTINUOUS
10
93.22
20
-103.059
11
93.3314
21
-103.17
0
LINE
8
BLACK
6
CONTINUOUS
10
93.3314
20
-103.17
11
93.419
21
-103.301
0
LINE
8
BLACK
6
CONTINUOUS
10
93.419
20
-103.301
11
93.4793
21
-103.447
0
LINE
8
BLACK
6
CONTINUOUS
10
93.4793
20
-103.447
11
93.51
21
-103.601
0
LINE
8
BLACK
6
CONTINUOUS
10
93.51
20
-103.601
11
93.51
21
-103.759
0
LINE
8
BLACK
6
CONTINUOUS
10
93.51
20
-103.759
11
93.4793
21
-103.913
0
LINE
8
BLACK
6
CONTINUOUS
10
93.4793
20
-103.913
11
93.419
21
-104.059
0
LINE
8
BLACK
6
CONTINUOUS
10
93.419
20
-104.059
11
93.3314
21
-104.19
0
LINE
8
BLACK
6
CONTINUOUS
10
93.3314
20
-104.19
11
93.22
21
-104.301
0
LINE
8
BLACK
6
CONTINUOUS
10
93.22
20
-104.301
11
93.0889
21
-104.389
0
LINE
8
BLACK
6
CONTINUOUS
10
93.0889
20
-104.389
11
92.9434
21
-104.449
0
LINE
8
BLACK
6
CONTINUOUS
10
92.9434
20
-104.449
11
92.7888
21
-104.48
0
LINE
8
BLACK
6
CONTINUOUS
10
92.7888
20
-104.48
11
92.6312
21
-104.48
0
LINE
8
BLACK
6
CONTINUOUS
10
92.6312
20
-104.48
11
92.4766
21
-104.449
0
LINE
8
BLACK
6
CONTINUOUS
10
92.4766
20
-104.449
11
92.3311
21
-104.389
0
LINE
8
BLACK
6
CONTINUOUS
10
92.3311
20
-104.389
11
92.2
21
-104.301
0
LINE
8
BLACK
6
CONTINUOUS
10
92.2
20
-104.301
11
92.0886
21
-104.19
0
LINE
8
BLACK
6
CONTINUOUS
10
92.0886
20
-104.19
11
92.001
21
-104.059
0
LINE
8
BLACK
6
CONTINUOUS
10
92.001
20
-104.059
11
91.9407
21
-103.913
0
LINE
8
BLACK
6
CONTINUOUS
10
91.9407
20
-103.913
11
91.91
21
-103.759
0
LINE
8
BLACK
6
CONTINUOUS
10
91.91
20
-103.759
11
91.91
21
-103.601
0
LINE
8
BLACK
6
CONTINUOUS
10
91.91
20
-103.601
11
91.9407
21
-103.447
0
LINE
8
BLACK
6
CONTINUOUS
10
91.9407
20
-103.447
11
92.001
21
-103.301
0
LINE
8
BLACK
6
CONTINUOUS
10
92.001
20
-103.301
11
92.0886
21
-103.17
0
LINE
8
BLACK
6
CONTINUOUS
10
92.0886
20
-103.17
11
92.2
21
-103.059
0
LINE
8
BLACK
6
CONTINUOUS
10
92.2
20
-103.059
11
92.3311
21
-102.971
0
LINE
8
BLACK
6
CONTINUOUS
10
92.3311
20
-102.971
11
92.4766
21
-102.911
0
LINE
8
BLACK
6
CONTINUOUS
10
92.4766
20
-102.911
11
92.6312
21
-102.88
0
LINE
8
BLACK
6
CONTINUOUS
10
92.6312
20
-102.88
11
92.7888
21
-102.88
0
LINE
8
BLACK
6
CONTINUOUS
10
92.7888
20
-102.88
11
92.9434
21
-102.911
0
LINE
8
BLACK
6
CONTINUOUS
10
90.4034
20
-102.911
11
90.5489
21
-102.971
0
LINE
8
BLACK
6
CONTINUOUS
10
90.5489
20
-102.971
11
90.68
21
-103.059
0
LINE
8
BLACK
6
CONTINUOUS
10
90.68
20
-103.059
11
90.7914
21
-103.17
0
LINE
8
BLACK
6
CONTINUOUS
10
90.7914
20
-103.17
11
90.879
21
-103.301
0
LINE
8
BLACK
6
CONTINUOUS
10
90.879
20
-103.301
11
90.9393
21
-103.447
0
LINE
8
BLACK
6
CONTINUOUS
10
90.9393
20
-103.447
11
90.97
21
-103.601
0
LINE
8
BLACK
6
CONTINUOUS
10
90.97
20
-103.601
11
90.97
21
-103.759
0
LINE
8
BLACK
6
CONTINUOUS
10
90.97
20
-103.759
11
90.9393
21
-103.913
0
LINE
8
BLACK
6
CONTINUOUS
10
90.9393
20
-103.913
11
90.879
21
-104.059
0
LINE
8
BLACK
6
CONTINUOUS
10
90.879
20
-104.059
11
90.7914
21
-104.19
0
LINE
8
BLACK
6
CONTINUOUS
10
90.7914
20
-104.19
11
90.68
21
-104.301
0
LINE
8
BLACK
6
CONTINUOUS
10
90.68
20
-104.301
11
90.5489
21
-104.389
0
LINE
8
BLACK
6
CONTINUOUS
10
90.5489
20
-104.389
11
90.4034
21
-104.449
0
LINE
8
BLACK
6
CONTINUOUS
10
90.4034
20
-104.449
11
90.2488
21
-104.48
0
LINE
8
BLACK
6
CONTINUOUS
10
90.2488
20
-104.48
11
90.0912
21
-104.48
0
LINE
8
BLACK
6
CONTINUOUS
10
90.0912
20
-104.48
11
89.9366
21
-104.449
0
LINE
8
BLACK
6
CONTINUOUS
10
89.9366
20
-104.449
11
89.7911
21
-104.389
0
LINE
8
BLACK
6
CONTINUOUS
10
89.7911
20
-104.389
11
89.66
21
-104.301
0
LINE
8
BLACK
6
CONTINUOUS
10
89.66
20
-104.301
11
89.5486
21
-104.19
0
LINE
8
BLACK
6
CONTINUOUS
10
89.5486
20
-104.19
11
89.461
21
-104.059
0
LINE
8
BLACK
6
CONTINUOUS
10
89.461
20
-104.059
11
89.4007
21
-103.913
0
LINE
8
BLACK
6
CONTINUOUS
10
89.4007
20
-103.913
11
89.37
21
-103.759
0
LINE
8
BLACK
6
CONTINUOUS
10
89.37
20
-103.759
11
89.37
21
-103.601
0
LINE
8
BLACK
6
CONTINUOUS
10
89.37
20
-103.601
11
89.4007
21
-103.447
0
LINE
8
BLACK
6
CONTINUOUS
10
89.4007
20
-103.447
11
89.461
21
-103.301
0
LINE
8
BLACK
6
CONTINUOUS
10
89.461
20
-103.301
11
89.5486
21
-103.17
0
LINE
8
BLACK
6
CONTINUOUS
10
89.5486
20
-103.17
11
89.66
21
-103.059
0
LINE
8
BLACK
6
CONTINUOUS
10
89.66
20
-103.059
11
89.7911
21
-102.971
0
LINE
8
BLACK
6
CONTINUOUS
10
89.7911
20
-102.971
11
89.9366
21
-102.911
0
LINE
8
BLACK
6
CONTINUOUS
10
89.9366
20
-102.911
11
90.0912
21
-102.88
0
LINE
8
BLACK
6
CONTINUOUS
10
90.0912
20
-102.88
11
90.2488
21
-102.88
0
LINE
8
BLACK
6
CONTINUOUS
10
90.2488
20
-102.88
11
90.4034
21
-102.911
0
LINE
8
BLACK
6
CONTINUOUS
10
86.8416
20
-100.266
11
87.142
21
-100.391
0
LINE
8
BLACK
6
CONTINUOUS
10
87.142
20
-100.391
11
87.4125
21
-100.572
0
LINE
8
BLACK
6
CONTINUOUS
10
87.4125
20
-100.572
11
87.6424
21
-100.802
0
LINE
8
BLACK
6
CONTINUOUS
10
87.6424
20
-100.802
11
87.8231
21
-101.072
0
LINE
8
BLACK
6
CONTINUOUS
10
87.8231
20
-101.072
11
87.9476
21
-101.372
0
LINE
8
BLACK
6
CONTINUOUS
10
87.9476
20
-101.372
11
88.011
21
-101.691
0
LINE
8
BLACK
6
CONTINUOUS
10
88.011
20
-101.691
11
88.011
21
-102.017
0
LINE
8
BLACK
6
CONTINUOUS
10
88.011
20
-102.017
11
87.9476
21
-102.336
0
LINE
8
BLACK
6
CONTINUOUS
10
87.9476
20
-102.336
11
87.8231
21
-102.636
0
LINE
8
BLACK
6
CONTINUOUS
10
87.8231
20
-102.636
11
87.6424
21
-102.906
0
LINE
8
BLACK
6
CONTINUOUS
10
87.6424
20
-102.906
11
87.4125
21
-103.136
0
LINE
8
BLACK
6
CONTINUOUS
10
87.4125
20
-103.136
11
87.142
21
-103.317
0
LINE
8
BLACK
6
CONTINUOUS
10
87.142
20
-103.317
11
86.8416
21
-103.442
0
LINE
8
BLACK
6
CONTINUOUS
10
86.8416
20
-103.442
11
86.5226
21
-103.505
0
LINE
8
BLACK
6
CONTINUOUS
10
86.5226
20
-103.505
11
86.1974
21
-103.505
0
LINE
8
BLACK
6
CONTINUOUS
10
86.1974
20
-103.505
11
85.8784
21
-103.442
0
LINE
8
BLACK
6
CONTINUOUS
10
85.8784
20
-103.442
11
85.578
21
-103.317
0
LINE
8
BLACK
6
CONTINUOUS
10
85.578
20
-103.317
11
85.3075
21
-103.136
0
LINE
8
BLACK
6
CONTINUOUS
10
85.3075
20
-103.136
11
85.0776
21
-102.906
0
LINE
8
BLACK
6
CONTINUOUS
10
85.0776
20
-102.906
11
84.8969
21
-102.636
0
LINE
8
BLACK
6
CONTINUOUS
10
84.8969
20
-102.636
11
84.7724
21
-102.336
0
LINE
8
BLACK
6
CONTINUOUS
10
84.7724
20
-102.336
11
84.709
21
-102.017
0
LINE
8
BLACK
6
CONTINUOUS
10
84.709
20
-102.017
11
84.709
21
-101.691
0
LINE
8
BLACK
6
CONTINUOUS
10
84.709
20
-101.691
11
84.7724
21
-101.372
0
LINE
8
BLACK
6
CONTINUOUS
10
84.7724
20
-101.372
11
84.8969
21
-101.072
0
LINE
8
BLACK
6
CONTINUOUS
10
84.8969
20
-101.072
11
85.0776
21
-100.802
0
LINE
8
BLACK
6
CONTINUOUS
10
85.0776
20
-100.802
11
85.3075
21
-100.572
0
LINE
8
BLACK
6
CONTINUOUS
10
85.3075
20
-100.572
11
85.578
21
-100.391
0
LINE
8
BLACK
6
CONTINUOUS
10
85.578
20
-100.391
11
85.8784
21
-100.266
0
LINE
8
BLACK
6
CONTINUOUS
10
85.8784
20
-100.266
11
86.1974
21
-100.203
0
LINE
8
BLACK
6
CONTINUOUS
10
86.1974
20
-100.203
11
86.5226
21
-100.203
0
LINE
8
BLACK
6
CONTINUOUS
10
86.5226
20
-100.203
11
86.8416
21
-100.266
0
LINE
8
BLACK
6
CONTINUOUS
10
96.8117
20
-100.892
11
96.9937
21
-100.968
0
LINE
8
BLACK
6
CONTINUOUS
10
96.9937
20
-100.968
11
97.1575
21
-101.077
0
LINE
8
BLACK
6
CONTINUOUS
10
97.1575
20
-101.077
11
97.2968
21
-101.217
0
LINE
8
BLACK
6
CONTINUOUS
10
97.2968
20
-101.217
11
97.4062
21
-101.38
0
LINE
8
BLACK
6
CONTINUOUS
10
97.4062
20
-101.38
11
97.4816
21
-101.562
0
LINE
8
BLACK
6
CONTINUOUS
10
97.4816
20
-101.562
11
97.52
21
-101.756
0
LINE
8
BLACK
6
CONTINUOUS
10
97.52
20
-101.756
11
97.52
21
-101.952
0
LINE
8
BLACK
6
CONTINUOUS
10
97.52
20
-101.952
11
97.4816
21
-102.146
0
LINE
8
BLACK
6
CONTINUOUS
10
97.4816
20
-102.146
11
97.4062
21
-102.328
0
LINE
8
BLACK
6
CONTINUOUS
10
97.4062
20
-102.328
11
97.2968
21
-102.491
0
LINE
8
BLACK
6
CONTINUOUS
10
97.2968
20
-102.491
11
97.1575
21
-102.631
0
LINE
8
BLACK
6
CONTINUOUS
10
97.1575
20
-102.631
11
96.9937
21
-102.74
0
LINE
8
BLACK
6
CONTINUOUS
10
96.9937
20
-102.74
11
96.8117
21
-102.816
0
LINE
8
BLACK
6
CONTINUOUS
10
96.8117
20
-102.816
11
96.6185
21
-102.854
0
LINE
8
BLACK
6
CONTINUOUS
10
96.6185
20
-102.854
11
96.4215
21
-102.854
0
LINE
8
BLACK
6
CONTINUOUS
10
96.4215
20
-102.854
11
96.2283
21
-102.816
0
LINE
8
BLACK
6
CONTINUOUS
10
96.2283
20
-102.816
11
96.0463
21
-102.74
0
LINE
8
BLACK
6
CONTINUOUS
10
96.0463
20
-102.74
11
95.8825
21
-102.631
0
LINE
8
BLACK
6
CONTINUOUS
10
95.8825
20
-102.631
11
95.7432
21
-102.491
0
LINE
8
BLACK
6
CONTINUOUS
10
95.7432
20
-102.491
11
95.6338
21
-102.328
0
LINE
8
BLACK
6
CONTINUOUS
10
95.6338
20
-102.328
11
95.5584
21
-102.146
0
LINE
8
BLACK
6
CONTINUOUS
10
95.5584
20
-102.146
11
95.52
21
-101.952
0
LINE
8
BLACK
6
CONTINUOUS
10
95.52
20
-101.952
11
95.52
21
-101.756
0
LINE
8
BLACK
6
CONTINUOUS
10
95.52
20
-101.756
11
95.5584
21
-101.562
0
LINE
8
BLACK
6
CONTINUOUS
10
95.5584
20
-101.562
11
95.6338
21
-101.38
0
LINE
8
BLACK
6
CONTINUOUS
10
95.6338
20
-101.38
11
95.7432
21
-101.217
0
LINE
8
BLACK
6
CONTINUOUS
10
95.7432
20
-101.217
11
95.8825
21
-101.077
0
LINE
8
BLACK
6
CONTINUOUS
10
95.8825
20
-101.077
11
96.0463
21
-100.968
0
LINE
8
BLACK
6
CONTINUOUS
10
96.0463
20
-100.968
11
96.2283
21
-100.892
0
LINE
8
BLACK
6
CONTINUOUS
10
96.2283
20
-100.892
11
96.4215
21
-100.854
0
LINE
8
BLACK
6
CONTINUOUS
10
96.4215
20
-100.854
11
96.6185
21
-100.854
0
LINE
8
BLACK
6
CONTINUOUS
10
96.6185
20
-100.854
11
96.8117
21
-100.892
0
LINE
8
BLACK
6
CONTINUOUS
10
129.773
20
-100.831
11
129.919
21
-100.891
0
LINE
8
BLACK
6
CONTINUOUS
10
129.919
20
-100.891
11
130.05
21
-100.979
0
LINE
8
BLACK
6
CONTINUOUS
10
130.05
20
-100.979
11
130.161
21
-101.09
0
LINE
8
BLACK
6
CONTINUOUS
10
130.161
20
-101.09
11
130.249
21
-101.221
0
LINE
8
BLACK
6
CONTINUOUS
10
130.249
20
-101.221
11
130.309
21
-101.367
0
LINE
8
BLACK
6
CONTINUOUS
10
130.309
20
-101.367
11
130.34
21
-101.521
0
LINE
8
BLACK
6
CONTINUOUS
10
130.34
20
-101.521
11
130.34
21
-101.679
0
LINE
8
BLACK
6
CONTINUOUS
10
130.34
20
-101.679
11
130.309
21
-101.833
0
LINE
8
BLACK
6
CONTINUOUS
10
130.309
20
-101.833
11
130.249
21
-101.979
0
LINE
8
BLACK
6
CONTINUOUS
10
130.249
20
-101.979
11
130.161
21
-102.11
0
LINE
8
BLACK
6
CONTINUOUS
10
130.161
20
-102.11
11
130.05
21
-102.221
0
LINE
8
BLACK
6
CONTINUOUS
10
130.05
20
-102.221
11
129.919
21
-102.309
0
LINE
8
BLACK
6
CONTINUOUS
10
129.919
20
-102.309
11
129.773
21
-102.369
0
LINE
8
BLACK
6
CONTINUOUS
10
129.773
20
-102.369
11
129.619
21
-102.4
0
LINE
8
BLACK
6
CONTINUOUS
10
129.619
20
-102.4
11
129.461
21
-102.4
0
LINE
8
BLACK
6
CONTINUOUS
10
129.461
20
-102.4
11
129.307
21
-102.369
0
LINE
8
BLACK
6
CONTINUOUS
10
129.307
20
-102.369
11
129.161
21
-102.309
0
LINE
8
BLACK
6
CONTINUOUS
10
129.161
20
-102.309
11
129.03
21
-102.221
0
LINE
8
BLACK
6
CONTINUOUS
10
129.03
20
-102.221
11
128.919
21
-102.11
0
LINE
8
BLACK
6
CONTINUOUS
10
128.919
20
-102.11
11
128.831
21
-101.979
0
LINE
8
BLACK
6
CONTINUOUS
10
128.831
20
-101.979
11
128.771
21
-101.833
0
LINE
8
BLACK
6
CONTINUOUS
10
128.771
20
-101.833
11
128.74
21
-101.679
0
LINE
8
BLACK
6
CONTINUOUS
10
128.74
20
-101.679
11
128.74
21
-101.521
0
LINE
8
BLACK
6
CONTINUOUS
10
128.74
20
-101.521
11
128.771
21
-101.367
0
LINE
8
BLACK
6
CONTINUOUS
10
128.771
20
-101.367
11
128.831
21
-101.221
0
LINE
8
BLACK
6
CONTINUOUS
10
128.831
20
-101.221
11
128.919
21
-101.09
0
LINE
8
BLACK
6
CONTINUOUS
10
128.919
20
-101.09
11
129.03
21
-100.979
0
LINE
8
BLACK
6
CONTINUOUS
10
129.03
20
-100.979
11
129.161
21
-100.891
0
LINE
8
BLACK
6
CONTINUOUS
10
129.161
20
-100.891
11
129.307
21
-100.831
0
LINE
8
BLACK
6
CONTINUOUS
10
129.307
20
-100.831
11
129.461
21
-100.8
0
LINE
8
BLACK
6
CONTINUOUS
10
129.461
20
-100.8
11
129.619
21
-100.8
0
LINE
8
BLACK
6
CONTINUOUS
10
129.619
20
-100.8
11
129.773
21
-100.831
0
LINE
8
BLACK
6
CONTINUOUS
10
129.773
20
-98.2907
11
129.919
21
-98.351
0
LINE
8
BLACK
6
CONTINUOUS
10
129.919
20
-98.351
11
130.05
21
-98.4386
0
LINE
8
BLACK
6
CONTINUOUS
10
130.05
20
-98.4386
11
130.161
21
-98.55
0
LINE
8
BLACK
6
CONTINUOUS
10
130.161
20
-98.55
11
130.249
21
-98.6811
0
LINE
8
BLACK
6
CONTINUOUS
10
130.249
20
-98.6811
11
130.309
21
-98.8266
0
LINE
8
BLACK
6
CONTINUOUS
10
130.309
20
-98.8266
11
130.34
21
-98.9812
0
LINE
8
BLACK
6
CONTINUOUS
10
130.34
20
-98.9812
11
130.34
21
-99.1388
0
LINE
8
BLACK
6
CONTINUOUS
10
130.34
20
-99.1388
11
130.309
21
-99.2934
0
LINE
8
BLACK
6
CONTINUOUS
10
130.309
20
-99.2934
11
130.249
21
-99.4389
0
LINE
8
BLACK
6
CONTINUOUS
10
130.249
20
-99.4389
11
130.161
21
-99.57
0
LINE
8
BLACK
6
CONTINUOUS
10
130.161
20
-99.57
11
130.05
21
-99.6814
0
LINE
8
BLACK
6
CONTINUOUS
10
130.05
20
-99.6814
11
129.919
21
-99.769
0
LINE
8
BLACK
6
CONTINUOUS
10
129.919
20
-99.769
11
129.773
21
-99.8293
0
LINE
8
BLACK
6
CONTINUOUS
10
129.773
20
-99.8293
11
129.619
21
-99.86
0
LINE
8
BLACK
6
CONTINUOUS
10
129.619
20
-99.86
11
129.461
21
-99.86
0
LINE
8
BLACK
6
CONTINUOUS
10
129.461
20
-99.86
11
129.307
21
-99.8293
0
LINE
8
BLACK
6
CONTINUOUS
10
129.307
20
-99.8293
11
129.161
21
-99.769
0
LINE
8
BLACK
6
CONTINUOUS
10
129.161
20
-99.769
11
129.03
21
-99.6814
0
LINE
8
BLACK
6
CONTINUOUS
10
129.03
20
-99.6814
11
128.919
21
-99.57
0
LINE
8
BLACK
6
CONTINUOUS
10
128.919
20
-99.57
11
128.831
21
-99.4389
0
LINE
8
BLACK
6
CONTINUOUS
10
128.831
20
-99.4389
11
128.771
21
-99.2934
0
LINE
8
BLACK
6
CONTINUOUS
10
128.771
20
-99.2934
11
128.74
21
-99.1388
0
LINE
8
BLACK
6
CONTINUOUS
10
128.74
20
-99.1388
11
128.74
21
-98.9812
0
LINE
8
BLACK
6
CONTINUOUS
10
128.74
20
-98.9812
11
128.771
21
-98.8266
0
LINE
8
BLACK
6
CONTINUOUS
10
128.771
20
-98.8266
11
128.831
21
-98.6811
0
LINE
8
BLACK
6
CONTINUOUS
10
128.831
20
-98.6811
11
128.919
21
-98.55
0
LINE
8
BLACK
6
CONTINUOUS
10
128.919
20
-98.55
11
129.03
21
-98.4386
0
LINE
8
BLACK
6
CONTINUOUS
10
129.03
20
-98.4386
11
129.161
21
-98.351
0
LINE
8
BLACK
6
CONTINUOUS
10
129.161
20
-98.351
11
129.307
21
-98.2907
0
LINE
8
BLACK
6
CONTINUOUS
10
129.307
20
-98.2907
11
129.461
21
-98.26
0
LINE
8
BLACK
6
CONTINUOUS
10
129.461
20
-98.26
11
129.619
21
-98.26
0
LINE
8
BLACK
6
CONTINUOUS
10
129.619
20
-98.26
11
129.773
21
-98.2907
0
LINE
8
BLACK
6
CONTINUOUS
10
129.773
20
-95.7507
11
129.919
21
-95.811
0
LINE
8
BLACK
6
CONTINUOUS
10
129.919
20
-95.811
11
130.05
21
-95.8986
0
LINE
8
BLACK
6
CONTINUOUS
10
130.05
20
-95.8986
11
130.161
21
-96.01
0
LINE
8
BLACK
6
CONTINUOUS
10
130.161
20
-96.01
11
130.249
21
-96.1411
0
LINE
8
BLACK
6
CONTINUOUS
10
130.249
20
-96.1411
11
130.309
21
-96.2866
0
LINE
8
BLACK
6
CONTINUOUS
10
130.309
20
-96.2866
11
130.34
21
-96.4412
0
LINE
8
BLACK
6
CONTINUOUS
10
130.34
20
-96.4412
11
130.34
21
-96.5988
0
LINE
8
BLACK
6
CONTINUOUS
10
130.34
20
-96.5988
11
130.309
21
-96.7534
0
LINE
8
BLACK
6
CONTINUOUS
10
130.309
20
-96.7534
11
130.249
21
-96.8989
0
LINE
8
BLACK
6
CONTINUOUS
10
130.249
20
-96.8989
11
130.161
21
-97.03
0
LINE
8
BLACK
6
CONTINUOUS
10
130.161
20
-97.03
11
130.05
21
-97.1414
0
LINE
8
BLACK
6
CONTINUOUS
10
130.05
20
-97.1414
11
129.919
21
-97.229
0
LINE
8
BLACK
6
CONTINUOUS
10
129.919
20
-97.229
11
129.773
21
-97.2893
0
LINE
8
BLACK
6
CONTINUOUS
10
129.773
20
-97.2893
11
129.619
21
-97.32
0
LINE
8
BLACK
6
CONTINUOUS
10
129.619
20
-97.32
11
129.461
21
-97.32
0
LINE
8
BLACK
6
CONTINUOUS
10
129.461
20
-97.32
11
129.307
21
-97.2893
0
LINE
8
BLACK
6
CONTINUOUS
10
129.307
20
-97.2893
11
129.161
21
-97.229
0
LINE
8
BLACK
6
CONTINUOUS
10
129.161
20
-97.229
11
129.03
21
-97.1414
0
LINE
8
BLACK
6
CONTINUOUS
10
129.03
20
-97.1414
11
128.919
21
-97.03
0
LINE
8
BLACK
6
CONTINUOUS
10
128.919
20
-97.03
11
128.831
21
-96.8989
0
LINE
8
BLACK
6
CONTINUOUS
10
128.831
20
-96.8989
11
128.771
21
-96.7534
0
LINE
8
BLACK
6
CONTINUOUS
10
128.771
20
-96.7534
11
128.74
21
-96.5988
0
LINE
8
BLACK
6
CONTINUOUS
10
128.74
20
-96.5988
11
128.74
21
-96.4412
0
LINE
8
BLACK
6
CONTINUOUS
10
128.74
20
-96.4412
11
128.771
21
-96.2866
0
LINE
8
BLACK
6
CONTINUOUS
10
128.771
20
-96.2866
11
128.831
21
-96.1411
0
LINE
8
BLACK
6
CONTINUOUS
10
128.831
20
-96.1411
11
128.919
21
-96.01
0
LINE
8
BLACK
6
CONTINUOUS
10
128.919
20
-96.01
11
129.03
21
-95.8986
0
LINE
8
BLACK
6
CONTINUOUS
10
129.03
20
-95.8986
11
129.161
21
-95.811
0
LINE
8
BLACK
6
CONTINUOUS
10
129.161
20
-95.811
11
129.307
21
-95.7507
0
LINE
8
BLACK
6
CONTINUOUS
10
129.307
20
-95.7507
11
129.461
21
-95.72
0
LINE
8
BLACK
6
CONTINUOUS
10
129.461
20
-95.72
11
129.619
21
-95.72
0
LINE
8
BLACK
6
CONTINUOUS
10
129.619
20
-95.72
11
129.773
21
-95.7507
0
LINE
8
BLACK
6
CONTINUOUS
10
96.7534
20
-93.2107
11
96.8989
21
-93.271
0
LINE
8
BLACK
6
CONTINUOUS
10
96.8989
20
-93.271
11
97.03
21
-93.3586
0
LINE
8
BLACK
6
CONTINUOUS
10
97.03
20
-93.3586
11
97.1414
21
-93.47
0
LINE
8
BLACK
6
CONTINUOUS
10
97.1414
20
-93.47
11
97.229
21
-93.6011
0
LINE
8
BLACK
6
CONTINUOUS
10
97.229
20
-93.6011
11
97.2893
21
-93.7466
0
LINE
8
BLACK
6
CONTINUOUS
10
97.2893
20
-93.7466
11
97.32
21
-93.9012
0
LINE
8
BLACK
6
CONTINUOUS
10
97.32
20
-93.9012
11
97.32
21
-94.0588
0
LINE
8
BLACK
6
CONTINUOUS
10
97.32
20
-94.0588
11
97.2893
21
-94.2134
0
LINE
8
BLACK
6
CONTINUOUS
10
97.2893
20
-94.2134
11
97.229
21
-94.3589
0
LINE
8
BLACK
6
CONTINUOUS
10
97.229
20
-94.3589
11
97.1414
21
-94.49
0
LINE
8
BLACK
6
CONTINUOUS
10
97.1414
20
-94.49
11
97.03
21
-94.6014
0
LINE
8
BLACK
6
CONTINUOUS
10
97.03
20
-94.6014
11
96.8989
21
-94.689
0
LINE
8
BLACK
6
CONTINUOUS
10
96.8989
20
-94.689
11
96.7534
21
-94.7493
0
LINE
8
BLACK
6
CONTINUOUS
10
96.7534
20
-94.7493
11
96.5988
21
-94.78
0
LINE
8
BLACK
6
CONTINUOUS
10
96.5988
20
-94.78
11
96.4412
21
-94.78
0
LINE
8
BLACK
6
CONTINUOUS
10
96.4412
20
-94.78
11
96.2866
21
-94.7493
0
LINE
8
BLACK
6
CONTINUOUS
10
96.2866
20
-94.7493
11
96.1411
21
-94.689
0
LINE
8
BLACK
6
CONTINUOUS
10
96.1411
20
-94.689
11
96.01
21
-94.6014
0
LINE
8
BLACK
6
CONTINUOUS
10
96.01
20
-94.6014
11
95.8986
21
-94.49
0
LINE
8
BLACK
6
CONTINUOUS
10
95.8986
20
-94.49
11
95.811
21
-94.3589
0
LINE
8
BLACK
6
CONTINUOUS
10
95.811
20
-94.3589
11
95.7507
21
-94.2134
0
LINE
8
BLACK
6
CONTINUOUS
10
95.7507
20
-94.2134
11
95.72
21
-94.0588
0
LINE
8
BLACK
6
CONTINUOUS
10
95.72
20
-94.0588
11
95.72
21
-93.9012
0
LINE
8
BLACK
6
CONTINUOUS
10
95.72
20
-93.9012
11
95.7507
21
-93.7466
0
LINE
8
BLACK
6
CONTINUOUS
10
95.7507
20
-93.7466
11
95.811
21
-93.6011
0
LINE
8
BLACK
6
CONTINUOUS
10
95.811
20
-93.6011
11
95.8986
21
-93.47
0
LINE
8
BLACK
6
CONTINUOUS
10
95.8986
20
-93.47
11
96.01
21
-93.3586
0
LINE
8
BLACK
6
CONTINUOUS
10
96.01
20
-93.3586
11
96.1411
21
-93.271
0
LINE
8
BLACK
6
CONTINUOUS
10
96.1411
20
-93.271
11
96.2866
21
-93.2107
0
LINE
8
BLACK
6
CONTINUOUS
10
96.2866
20
-93.2107
11
96.4412
21
-93.18
0
LINE
8
BLACK
6
CONTINUOUS
10
96.4412
20
-93.18
11
96.5988
21
-93.18
0
LINE
8
BLACK
6
CONTINUOUS
10
96.5988
20
-93.18
11
96.7534
21
-93.2107
0
LINE
8
BLACK
6
CONTINUOUS
10
129.773
20
-93.2107
11
129.919
21
-93.271
0
LINE
8
BLACK
6
CONTINUOUS
10
129.919
20
-93.271
11
130.05
21
-93.3586
0
LINE
8
BLACK
6
CONTINUOUS
10
130.05
20
-93.3586
11
130.161
21
-93.47
0
LINE
8
BLACK
6
CONTINUOUS
10
130.161
20
-93.47
11
130.249
21
-93.6011
0
LINE
8
BLACK
6
CONTINUOUS
10
130.249
20
-93.6011
11
130.309
21
-93.7466
0
LINE
8
BLACK
6
CONTINUOUS
10
130.309
20
-93.7466
11
130.34
21
-93.9012
0
LINE
8
BLACK
6
CONTINUOUS
10
130.34
20
-93.9012
11
130.34
21
-94.0588
0
LINE
8
BLACK
6
CONTINUOUS
10
130.34
20
-94.0588
11
130.309
21
-94.2134
0
LINE
8
BLACK
6
CONTINUOUS
10
130.309
20
-94.2134
11
130.249
21
-94.3589
0
LINE
8
BLACK
6
CONTINUOUS
10
130.249
20
-94.3589
11
130.161
21
-94.49
0
LINE
8
BLACK
6
CONTINUOUS
10
130.161
20
-94.49
11
130.05
21
-94.6014
0
LINE
8
BLACK
6
CONTINUOUS
10
130.05
20
-94.6014
11
129.919
21
-94.689
0
LINE
8
BLACK
6
CONTINUOUS
10
129.919
20
-94.689
11
129.773
21
-94.7493
0
LINE
8
BLACK
6
CONTINUOUS
10
129.773
20
-94.7493
11
129.619
21
-94.78
0
LINE
8
BLACK
6
CONTINUOUS
10
129.619
20
-94.78
11
129.461
21
-94.78
0
LINE
8
BLACK
6
CONTINUOUS
10
129.461
20
-94.78
11
129.307
21
-94.7493
0
LINE
8
BLACK
6
CONTINUOUS
10
129.307
20
-94.7493
11
129.161
21
-94.689
0
LINE
8
BLACK
6
CONTINUOUS
10
129.161
20
-94.689
11
129.03
21
-94.6014
0
LINE
8
BLACK
6
CONTINUOUS
10
129.03
20
-94.6014
11
128.919
21
-94.49
0
LINE
8
BLACK
6
CONTINUOUS
10
128.919
20
-94.49
11
128.831
21
-94.3589
0
LINE
8
BLACK
6
CONTINUOUS
10
128.831
20
-94.3589
11
128.771
21
-94.2134
0
LINE
8
BLACK
6
CONTINUOUS
10
128.771
20
-94.2134
11
128.74
21
-94.0588
0
LINE
8
BLACK
6
CONTINUOUS
10
128.74
20
-94.0588
11
128.74
21
-93.9012
0
LINE
8
BLACK
6
CONTINUOUS
10
128.74
20
-93.9012
11
128.771
21
-93.7466
0
LINE
8
BLACK
6
CONTINUOUS
10
128.771
20
-93.7466
11
128.831
21
-93.6011
0
LINE
8
BLACK
6
CONTINUOUS
10
128.831
20
-93.6011
11
128.919
21
-93.47
0
LINE
8
BLACK
6
CONTINUOUS
10
128.919
20
-93.47
11
129.03
21
-93.3586
0
LINE
8
BLACK
6
CONTINUOUS
10
129.03
20
-93.3586
11
129.161
21
-93.271
0
LINE
8
BLACK
6
CONTINUOUS
10
129.161
20
-93.271
11
129.307
21
-93.2107
0
LINE
8
BLACK
6
CONTINUOUS
10
129.307
20
-93.2107
11
129.461
21
-93.18
0
LINE
8
BLACK
6
CONTINUOUS
10
129.461
20
-93.18
11
129.619
21
-93.18
0
LINE
8
BLACK
6
CONTINUOUS
10
129.619
20
-93.18
11
129.773
21
-93.2107
0
LINE
8
BLACK
6
CONTINUOUS
10
86.5934
20
-93.2107
11
86.7389
21
-93.271
0
LINE
8
BLACK
6
CONTINUOUS
10
86.7389
20
-93.271
11
86.87
21
-93.3586
0
LINE
8
BLACK
6
CONTINUOUS
10
86.87
20
-93.3586
11
86.9814
21
-93.47
0
LINE
8
BLACK
6
CONTINUOUS
10
86.9814
20
-93.47
11
87.069
21
-93.6011
0
LINE
8
BLACK
6
CONTINUOUS
10
87.069
20
-93.6011
11
87.1293
21
-93.7466
0
LINE
8
BLACK
6
CONTINUOUS
10
87.1293
20
-93.7466
11
87.16
21
-93.9012
0
LINE
8
BLACK
6
CONTINUOUS
10
87.16
20
-93.9012
11
87.16
21
-94.0588
0
LINE
8
BLACK
6
CONTINUOUS
10
87.16
20
-94.0588
11
87.1293
21
-94.2134
0
LINE
8
BLACK
6
CONTINUOUS
10
87.1293
20
-94.2134
11
87.069
21
-94.3589
0
LINE
8
BLACK
6
CONTINUOUS
10
87.069
20
-94.3589
11
86.9814
21
-94.49
0
LINE
8
BLACK
6
CONTINUOUS
10
86.9814
20
-94.49
11
86.87
21
-94.6014
0
LINE
8
BLACK
6
CONTINUOUS
10
86.87
20
-94.6014
11
86.7389
21
-94.689
0
LINE
8
BLACK
6
CONTINUOUS
10
86.7389
20
-94.689
11
86.5934
21
-94.7493
0
LINE
8
BLACK
6
CONTINUOUS
10
86.5934
20
-94.7493
11
86.4388
21
-94.78
0
LINE
8
BLACK
6
CONTINUOUS
10
86.4388
20
-94.78
11
86.2812
21
-94.78
0
LINE
8
BLACK
6
CONTINUOUS
10
86.2812
20
-94.78
11
86.1266
21
-94.7493
0
LINE
8
BLACK
6
CONTINUOUS
10
86.1266
20
-94.7493
11
85.9811
21
-94.689
0
LINE
8
BLACK
6
CONTINUOUS
10
85.9811
20
-94.689
11
85.85
21
-94.6014
0
LINE
8
BLACK
6
CONTINUOUS
10
85.85
20
-94.6014
11
85.7386
21
-94.49
0
LINE
8
BLACK
6
CONTINUOUS
10
85.7386
20
-94.49
11
85.651
21
-94.3589
0
LINE
8
BLACK
6
CONTINUOUS
10
85.651
20
-94.3589
11
85.5907
21
-94.2134
0
LINE
8
BLACK
6
CONTINUOUS
10
85.5907
20
-94.2134
11
85.56
21
-94.0588
0
LINE
8
BLACK
6
CONTINUOUS
10
85.56
20
-94.0588
11
85.56
21
-93.9012
0
LINE
8
BLACK
6
CONTINUOUS
10
85.56
20
-93.9012
11
85.5907
21
-93.7466
0
LINE
8
BLACK
6
CONTINUOUS
10
85.5907
20
-93.7466
11
85.651
21
-93.6011
0
LINE
8
BLACK
6
CONTINUOUS
10
85.651
20
-93.6011
11
85.7386
21
-93.47
0
LINE
8
BLACK
6
CONTINUOUS
10
85.7386
20
-93.47
11
85.85
21
-93.3586
0
LINE
8
BLACK
6
CONTINUOUS
10
85.85
20
-93.3586
11
85.9811
21
-93.271
0
LINE
8
BLACK
6
CONTINUOUS
10
85.9811
20
-93.271
11
86.1266
21
-93.2107
0
LINE
8
BLACK
6
CONTINUOUS
10
86.1266
20
-93.2107
11
86.2812
21
-93.18
0
LINE
8
BLACK
6
CONTINUOUS
10
86.2812
20
-93.18
11
86.4388
21
-93.18
0
LINE
8
BLACK
6
CONTINUOUS
10
86.4388
20
-93.18
11
86.5934
21
-93.2107
0
LINE
8
BLACK
6
CONTINUOUS
10
91.6734
20
-93.2107
11
91.8189
21
-93.271
0
LINE
8
BLACK
6
CONTINUOUS
10
91.8189
20
-93.271
11
91.95
21
-93.3586
0
LINE
8
BLACK
6
CONTINUOUS
10
91.95
20
-93.3586
11
92.0614
21
-93.47
0
LINE
8
BLACK
6
CONTINUOUS
10
92.0614
20
-93.47
11
92.149
21
-93.6011
0
LINE
8
BLACK
6
CONTINUOUS
10
92.149
20
-93.6011
11
92.2093
21
-93.7466
0
LINE
8
BLACK
6
CONTINUOUS
10
92.2093
20
-93.7466
11
92.24
21
-93.9012
0
LINE
8
BLACK
6
CONTINUOUS
10
92.24
20
-93.9012
11
92.24
21
-94.0588
0
LINE
8
BLACK
6
CONTINUOUS
10
92.24
20
-94.0588
11
92.2093
21
-94.2134
0
LINE
8
BLACK
6
CONTINUOUS
10
92.2093
20
-94.2134
11
92.149
21
-94.3589
0
LINE
8
BLACK
6
CONTINUOUS
10
92.149
20
-94.3589
11
92.0614
21
-94.49
0
LINE
8
BLACK
6
CONTINUOUS
10
92.0614
20
-94.49
11
91.95
21
-94.6014
0
LINE
8
BLACK
6
CONTINUOUS
10
91.95
20
-94.6014
11
91.8189
21
-94.689
0
LINE
8
BLACK
6
CONTINUOUS
10
91.8189
20
-94.689
11
91.6734
21
-94.7493
0
LINE
8
BLACK
6
CONTINUOUS
10
91.6734
20
-94.7493
11
91.5188
21
-94.78
0
LINE
8
BLACK
6
CONTINUOUS
10
91.5188
20
-94.78
11
91.3612
21
-94.78
0
LINE
8
BLACK
6
CONTINUOUS
10
91.3612
20
-94.78
11
91.2066
21
-94.7493
0
LINE
8
BLACK
6
CONTINUOUS
10
91.2066
20
-94.7493
11
91.0611
21
-94.689
0
LINE
8
BLACK
6
CONTINUOUS
10
91.0611
20
-94.689
11
90.93
21
-94.6014
0
LINE
8
BLACK
6
CONTINUOUS
10
90.93
20
-94.6014
11
90.8186
21
-94.49
0
LINE
8
BLACK
6
CONTINUOUS
10
90.8186
20
-94.49
11
90.731
21
-94.3589
0
LINE
8
BLACK
6
CONTINUOUS
10
90.731
20
-94.3589
11
90.6707
21
-94.2134
0
LINE
8
BLACK
6
CONTINUOUS
10
90.6707
20
-94.2134
11
90.64
21
-94.0588
0
LINE
8
BLACK
6
CONTINUOUS
10
90.64
20
-94.0588
11
90.64
21
-93.9012
0
LINE
8
BLACK
6
CONTINUOUS
10
90.64
20
-93.9012
11
90.6707
21
-93.7466
0
LINE
8
BLACK
6
CONTINUOUS
10
90.6707
20
-93.7466
11
90.731
21
-93.6011
0
LINE
8
BLACK
6
CONTINUOUS
10
90.731
20
-93.6011
11
90.8186
21
-93.47
0
LINE
8
BLACK
6
CONTINUOUS
10
90.8186
20
-93.47
11
90.93
21
-93.3586
0
LINE
8
BLACK
6
CONTINUOUS
10
90.93
20
-93.3586
11
91.0611
21
-93.271
0
LINE
8
BLACK
6
CONTINUOUS
10
91.0611
20
-93.271
11
91.2066
21
-93.2107
0
LINE
8
BLACK
6
CONTINUOUS
10
91.2066
20
-93.2107
11
91.3612
21
-93.18
0
LINE
8
BLACK
6
CONTINUOUS
10
91.3612
20
-93.18
11
91.5188
21
-93.18
0
LINE
8
BLACK
6
CONTINUOUS
10
91.5188
20
-93.18
11
91.6734
21
-93.2107
0
LINE
8
BLACK
6
CONTINUOUS
10
94.2134
20
-93.2107
11
94.3589
21
-93.271
0
LINE
8
BLACK
6
CONTINUOUS
10
94.3589
20
-93.271
11
94.49
21
-93.3586
0
LINE
8
BLACK
6
CONTINUOUS
10
94.49
20
-93.3586
11
94.6014
21
-93.47
0
LINE
8
BLACK
6
CONTINUOUS
10
94.6014
20
-93.47
11
94.689
21
-93.6011
0
LINE
8
BLACK
6
CONTINUOUS
10
94.689
20
-93.6011
11
94.7493
21
-93.7466
0
LINE
8
BLACK
6
CONTINUOUS
10
94.7493
20
-93.7466
11
94.78
21
-93.9012
0
LINE
8
BLACK
6
CONTINUOUS
10
94.78
20
-93.9012
11
94.78
21
-94.0588
0
LINE
8
BLACK
6
CONTINUOUS
10
94.78
20
-94.0588
11
94.7493
21
-94.2134
0
LINE
8
BLACK
6
CONTINUOUS
10
94.7493
20
-94.2134
11
94.689
21
-94.3589
0
LINE
8
BLACK
6
CONTINUOUS
10
94.689
20
-94.3589
11
94.6014
21
-94.49
0
LINE
8
BLACK
6
CONTINUOUS
10
94.6014
20
-94.49
11
94.49
21
-94.6014
0
LINE
8
BLACK
6
CONTINUOUS
10
94.49
20
-94.6014
11
94.3589
21
-94.689
0
LINE
8
BLACK
6
CONTINUOUS
10
94.3589
20
-94.689
11
94.2134
21
-94.7493
0
LINE
8
BLACK
6
CONTINUOUS
10
94.2134
20
-94.7493
11
94.0588
21
-94.78
0
LINE
8
BLACK
6
CONTINUOUS
10
94.0588
20
-94.78
11
93.9012
21
-94.78
0
LINE
8
BLACK
6
CONTINUOUS
10
93.9012
20
-94.78
11
93.7466
21
-94.7493
0
LINE
8
BLACK
6
CONTINUOUS
10
93.7466
20
-94.7493
11
93.6011
21
-94.689
0
LINE
8
BLACK
6
CONTINUOUS
10
93.6011
20
-94.689
11
93.47
21
-94.6014
0
LINE
8
BLACK
6
CONTINUOUS
10
93.47
20
-94.6014
11
93.3586
21
-94.49
0
LINE
8
BLACK
6
CONTINUOUS
10
93.3586
20
-94.49
11
93.271
21
-94.3589
0
LINE
8
BLACK
6
CONTINUOUS
10
93.271
20
-94.3589
11
93.2107
21
-94.2134
0
LINE
8
BLACK
6
CONTINUOUS
10
93.2107
20
-94.2134
11
93.18
21
-94.0588
0
LINE
8
BLACK
6
CONTINUOUS
10
93.18
20
-94.0588
11
93.18
21
-93.9012
0
LINE
8
BLACK
6
CONTINUOUS
10
93.18
20
-93.9012
11
93.2107
21
-93.7466
0
LINE
8
BLACK
6
CONTINUOUS
10
93.2107
20
-93.7466
11
93.271
21
-93.6011
0
LINE
8
BLACK
6
CONTINUOUS
10
93.271
20
-93.6011
11
93.3586
21
-93.47
0
LINE
8
BLACK
6
CONTINUOUS
10
93.3586
20
-93.47
11
93.47
21
-93.3586
0
LINE
8
BLACK
6
CONTINUOUS
10
93.47
20
-93.3586
11
93.6011
21
-93.271
0
LINE
8
BLACK
6
CONTINUOUS
10
93.6011
20
-93.271
11
93.7466
21
-93.2107
0
LINE
8
BLACK
6
CONTINUOUS
10
93.7466
20
-93.2107
11
93.9012
21
-93.18
0
LINE
8
BLACK
6
CONTINUOUS
10
93.9012
20
-93.18
11
94.0588
21
-93.18
0
LINE
8
BLACK
6
CONTINUOUS
10
94.0588
20
-93.18
11
94.2134
21
-93.2107
0
LINE
8
BLACK
6
CONTINUOUS
10
127.75
20
-92.69
11
126.25
21
-92.69
0
LINE
8
BLACK
6
CONTINUOUS
10
126.25
20
-92.69
11
126.25
21
-90.19
0
LINE
8
BLACK
6
CONTINUOUS
10
126.25
20
-90.19
11
127.75
21
-90.19
0
LINE
8
BLACK
6
CONTINUOUS
10
127.75
20
-90.19
11
127.75
21
-92.69
0
LINE
8
BLACK
6
CONTINUOUS
10
142.99
20
-92.69
11
141.49
21
-92.69
0
LINE
8
BLACK
6
CONTINUOUS
10
141.49
20
-92.69
11
141.49
21
-90.19
0
LINE
8
BLACK
6
CONTINUOUS
10
141.49
20
-90.19
11
142.99
21
-90.19
0
LINE
8
BLACK
6
CONTINUOUS
10
142.99
20
-90.19
11
142.99
21
-92.69
0
LINE
8
BLACK
6
CONTINUOUS
10
140.45
20
-92.69
11
138.95
21
-92.69
0
LINE
8
BLACK
6
CONTINUOUS
10
138.95
20
-92.69
11
138.95
21
-90.19
0
LINE
8
BLACK
6
CONTINUOUS
10
138.95
20
-90.19
11
140.45
21
-90.19
0
LINE
8
BLACK
6
CONTINUOUS
10
140.45
20
-90.19
11
140.45
21
-92.69
0
LINE
8
BLACK
6
CONTINUOUS
10
137.91
20
-92.69
11
136.41
21
-92.69
0
LINE
8
BLACK
6
CONTINUOUS
10
136.41
20
-92.69
11
136.41
21
-90.19
0
LINE
8
BLACK
6
CONTINUOUS
10
136.41
20
-90.19
11
137.91
21
-90.19
0
LINE
8
BLACK
6
CONTINUOUS
10
137.91
20
-90.19
11
137.91
21
-92.69
0
LINE
8
BLACK
6
CONTINUOUS
10
135.37
20
-92.69
11
133.87
21
-92.69
0
LINE
8
BLACK
6
CONTINUOUS
10
133.87
20
-92.69
11
133.87
21
-90.19
0
LINE
8
BLACK
6
CONTINUOUS
10
133.87
20
-90.19
11
135.37
21
-90.19
0
LINE
8
BLACK
6
CONTINUOUS
10
135.37
20
-90.19
11
135.37
21
-92.69
0
LINE
8
BLACK
6
CONTINUOUS
10
97.27
20
-92.69
11
95.77
21
-92.69
0
LINE
8
BLACK
6
CONTINUOUS
10
95.77
20
-92.69
11
95.77
21
-90.19
0
LINE
8
BLACK
6
CONTINUOUS
10
95.77
20
-90.19
11
97.27
21
-90.19
0
LINE
8
BLACK
6
CONTINUOUS
10
97.27
20
-90.19
11
97.27
21
-92.69
0
LINE
8
BLACK
6
CONTINUOUS
10
109.97
20
-92.69
11
108.47
21
-92.69
0
LINE
8
BLACK
6
CONTINUOUS
10
108.47
20
-92.69
11
108.47
21
-90.19
0
LINE
8
BLACK
6
CONTINUOUS
10
108.47
20
-90.19
11
109.97
21
-90.19
0
LINE
8
BLACK
6
CONTINUOUS
10
109.97
20
-90.19
11
109.97
21
-92.69
0
LINE
8
BLACK
6
CONTINUOUS
10
112.51
20
-92.69
11
111.01
21
-92.69
0
LINE
8
BLACK
6
CONTINUOUS
10
111.01
20
-92.69
11
111.01
21
-90.19
0
LINE
8
BLACK
6
CONTINUOUS
10
111.01
20
-90.19
11
112.51
21
-90.19
0
LINE
8
BLACK
6
CONTINUOUS
10
112.51
20
-90.19
11
112.51
21
-92.69
0
LINE
8
BLACK
6
CONTINUOUS
10
115.05
20
-92.69
11
113.55
21
-92.69
0
LINE
8
BLACK
6
CONTINUOUS
10
113.55
20
-92.69
11
113.55
21
-90.19
0
LINE
8
BLACK
6
CONTINUOUS
10
113.55
20
-90.19
11
115.05
21
-90.19
0
LINE
8
BLACK
6
CONTINUOUS
10
115.05
20
-90.19
11
115.05
21
-92.69
0
LINE
8
BLACK
6
CONTINUOUS
10
117.59
20
-92.69
11
116.09
21
-92.69
0
LINE
8
BLACK
6
CONTINUOUS
10
116.09
20
-92.69
11
116.09
21
-90.19
0
LINE
8
BLACK
6
CONTINUOUS
10
116.09
20
-90.19
11
117.59
21
-90.19
0
LINE
8
BLACK
6
CONTINUOUS
10
117.59
20
-90.19
11
117.59
21
-92.69
0
LINE
8
BLACK
6
CONTINUOUS
10
120.13
20
-92.69
11
118.63
21
-92.69
0
LINE
8
BLACK
6
CONTINUOUS
10
118.63
20
-92.69
11
118.63
21
-90.19
0
LINE
8
BLACK
6
CONTINUOUS
10
118.63
20
-90.19
11
120.13
21
-90.19
0
LINE
8
BLACK
6
CONTINUOUS
10
120.13
20
-90.19
11
120.13
21
-92.69
0
LINE
8
BLACK
6
CONTINUOUS
10
122.67
20
-92.69
11
121.17
21
-92.69
0
LINE
8
BLACK
6
CONTINUOUS
10
121.17
20
-92.69
11
121.17
21
-90.19
0
LINE
8
BLACK
6
CONTINUOUS
10
121.17
20
-90.19
11
122.67
21
-90.19
0
LINE
8
BLACK
6
CONTINUOUS
10
122.67
20
-90.19
11
122.67
21
-92.69
0
LINE
8
BLACK
6
CONTINUOUS
10
104.89
20
-92.69
11
103.39
21
-92.69
0
LINE
8
BLACK
6
CONTINUOUS
10
103.39
20
-92.69
11
103.39
21
-90.19
0
LINE
8
BLACK
6
CONTINUOUS
10
103.39
20
-90.19
11
104.89
21
-90.19
0
LINE
8
BLACK
6
CONTINUOUS
10
104.89
20
-90.19
11
104.89
21
-92.69
0
LINE
8
BLACK
6
CONTINUOUS
10
102.35
20
-92.69
11
100.85
21
-92.69
0
LINE
8
BLACK
6
CONTINUOUS
10
100.85
20
-92.69
11
100.85
21
-90.19
0
LINE
8
BLACK
6
CONTINUOUS
10
100.85
20
-90.19
11
102.35
21
-90.19
0
LINE
8
BLACK
6
CONTINUOUS
10
102.35
20
-90.19
11
102.35
21
-92.69
0
LINE
8
BLACK
6
CONTINUOUS
10
99.81
20
-92.69
11
98.31
21
-92.69
0
LINE
8
BLACK
6
CONTINUOUS
10
98.31
20
-92.69
11
98.31
21
-90.19
0
LINE
8
BLACK
6
CONTINUOUS
10
98.31
20
-90.19
11
99.81
21
-90.19
0
LINE
8
BLACK
6
CONTINUOUS
10
99.81
20
-90.19
11
99.81
21
-92.69
0
LINE
8
BLACK
6
CONTINUOUS
10
132.83
20
-92.69
11
131.33
21
-92.69
0
LINE
8
BLACK
6
CONTINUOUS
10
131.33
20
-92.69
11
131.33
21
-90.19
0
LINE
8
BLACK
6
CONTINUOUS
10
131.33
20
-90.19
11
132.83
21
-90.19
0
LINE
8
BLACK
6
CONTINUOUS
10
132.83
20
-90.19
11
132.83
21
-92.69
0
LINE
8
BLACK
6
CONTINUOUS
10
94.73
20
-92.69
11
93.23
21
-92.69
0
LINE
8
BLACK
6
CONTINUOUS
10
93.23
20
-92.69
11
93.23
21
-90.19
0
LINE
8
BLACK
6
CONTINUOUS
10
93.23
20
-90.19
11
94.73
21
-90.19
0
LINE
8
BLACK
6
CONTINUOUS
10
94.73
20
-90.19
11
94.73
21
-92.69
0
LINE
8
BLACK
6
CONTINUOUS
10
92.19
20
-92.69
11
90.69
21
-92.69
0
LINE
8
BLACK
6
CONTINUOUS
10
90.69
20
-92.69
11
90.69
21
-90.19
0
LINE
8
BLACK
6
CONTINUOUS
10
90.69
20
-90.19
11
92.19
21
-90.19
0
LINE
8
BLACK
6
CONTINUOUS
10
92.19
20
-90.19
11
92.19
21
-92.69
0
LINE
8
BLACK
6
CONTINUOUS
10
89.65
20
-92.69
11
88.15
21
-92.69
0
LINE
8
BLACK
6
CONTINUOUS
10
88.15
20
-92.69
11
88.15
21
-90.19
0
LINE
8
BLACK
6
CONTINUOUS
10
88.15
20
-90.19
11
89.65
21
-90.19
0
LINE
8
BLACK
6
CONTINUOUS
10
89.65
20
-90.19
11
89.65
21
-92.69
0
LINE
8
BLACK
6
CONTINUOUS
10
87.11
20
-92.69
11
85.61
21
-92.69
0
LINE
8
BLACK
6
CONTINUOUS
10
85.61
20
-92.69
11
85.61
21
-90.19
0
LINE
8
BLACK
6
CONTINUOUS
10
85.61
20
-90.19
11
87.11
21
-90.19
0
LINE
8
BLACK
6
CONTINUOUS
10
87.11
20
-90.19
11
87.11
21
-92.69
0
LINE
8
BLACK
6
CONTINUOUS
10
84.57
20
-92.69
11
83.07
21
-92.69
0
LINE
8
BLACK
6
CONTINUOUS
10
83.07
20
-92.69
11
83.07
21
-90.19
0
LINE
8
BLACK
6
CONTINUOUS
10
83.07
20
-90.19
11
84.57
21
-90.19
0
LINE
8
BLACK
6
CONTINUOUS
10
84.57
20
-90.19
11
84.57
21
-92.69
0
LINE
8
BLACK
6
CONTINUOUS
10
125.21
20
-92.69
11
123.71
21
-92.69
0
LINE
8
BLACK
6
CONTINUOUS
10
123.71
20
-92.69
11
123.71
21
-90.19
0
LINE
8
BLACK
6
CONTINUOUS
10
123.71
20
-90.19
11
125.21
21
-90.19
0
LINE
8
BLACK
6
CONTINUOUS
10
125.21
20
-90.19
11
125.21
21
-92.69
0
LINE
8
BLACK
6
CONTINUOUS
10
107.43
20
-92.69
11
105.93
21
-92.69
0
LINE
8
BLACK
6
CONTINUOUS
10
105.93
20
-92.69
11
105.93
21
-90.19
0
LINE
8
BLACK
6
CONTINUOUS
10
105.93
20
-90.19
11
107.43
21
-90.19
0
LINE
8
BLACK
6
CONTINUOUS
10
107.43
20
-90.19
11
107.43
21
-92.69
0
LINE
8
BLACK
6
CONTINUOUS
10
129.773
20
-90.6707
11
129.919
21
-90.731
0
LINE
8
BLACK
6
CONTINUOUS
10
129.919
20
-90.731
11
130.05
21
-90.8186
0
LINE
8
BLACK
6
CONTINUOUS
10
130.05
20
-90.8186
11
130.161
21
-90.93
0
LINE
8
BLACK
6
CONTINUOUS
10
130.161
20
-90.93
11
130.249
21
-91.0611
0
LINE
8
BLACK
6
CONTINUOUS
10
130.249
20
-91.0611
11
130.309
21
-91.2066
0
LINE
8
BLACK
6
CONTINUOUS
10
130.309
20
-91.2066
11
130.34
21
-91.3612
0
LINE
8
BLACK
6
CONTINUOUS
10
130.34
20
-91.3612
11
130.34
21
-91.5188
0
LINE
8
BLACK
6
CONTINUOUS
10
130.34
20
-91.5188
11
130.309
21
-91.6734
0
LINE
8
BLACK
6
CONTINUOUS
10
130.309
20
-91.6734
11
130.249
21
-91.8189
0
LINE
8
BLACK
6
CONTINUOUS
10
130.249
20
-91.8189
11
130.161
21
-91.95
0
LINE
8
BLACK
6
CONTINUOUS
10
130.161
20
-91.95
11
130.05
21
-92.0614
0
LINE
8
BLACK
6
CONTINUOUS
10
130.05
20
-92.0614
11
129.919
21
-92.149
0
LINE
8
BLACK
6
CONTINUOUS
10
129.919
20
-92.149
11
129.773
21
-92.2093
0
LINE
8
BLACK
6
CONTINUOUS
10
129.773
20
-92.2093
11
129.619
21
-92.24
0
LINE
8
BLACK
6
CONTINUOUS
10
129.619
20
-92.24
11
129.461
21
-92.24
0
LINE
8
BLACK
6
CONTINUOUS
10
129.461
20
-92.24
11
129.307
21
-92.2093
0
LINE
8
BLACK
6
CONTINUOUS
10
129.307
20
-92.2093
11
129.161
21
-92.149
0
LINE
8
BLACK
6
CONTINUOUS
10
129.161
20
-92.149
11
129.03
21
-92.0614
0
LINE
8
BLACK
6
CONTINUOUS
10
129.03
20
-92.0614
11
128.919
21
-91.95
0
LINE
8
BLACK
6
CONTINUOUS
10
128.919
20
-91.95
11
128.831
21
-91.8189
0
LINE
8
BLACK
6
CONTINUOUS
10
128.831
20
-91.8189
11
128.771
21
-91.6734
0
LINE
8
BLACK
6
CONTINUOUS
10
128.771
20
-91.6734
11
128.74
21
-91.5188
0
LINE
8
BLACK
6
CONTINUOUS
10
128.74
20
-91.5188
11
128.74
21
-91.3612
0
LINE
8
BLACK
6
CONTINUOUS
10
128.74
20
-91.3612
11
128.771
21
-91.2066
0
LINE
8
BLACK
6
CONTINUOUS
10
128.771
20
-91.2066
11
128.831
21
-91.0611
0
LINE
8
BLACK
6
CONTINUOUS
10
128.831
20
-91.0611
11
128.919
21
-90.93
0
LINE
8
BLACK
6
CONTINUOUS
10
128.919
20
-90.93
11
129.03
21
-90.8186
0
LINE
8
BLACK
6
CONTINUOUS
10
129.03
20
-90.8186
11
129.161
21
-90.731
0
LINE
8
BLACK
6
CONTINUOUS
10
129.161
20
-90.731
11
129.307
21
-90.6707
0
LINE
8
BLACK
6
CONTINUOUS
10
129.307
20
-90.6707
11
129.461
21
-90.64
0
LINE
8
BLACK
6
CONTINUOUS
10
129.461
20
-90.64
11
129.619
21
-90.64
0
LINE
8
BLACK
6
CONTINUOUS
10
129.619
20
-90.64
11
129.773
21
-90.6707
0
LINE
8
BLACK
6
CONTINUOUS
10
104.307
20
-80.4423
11
104.467
21
-80.4909
0
LINE
8
BLACK
6
CONTINUOUS
10
104.467
20
-80.4909
11
104.615
21
-80.5698
0
LINE
8
BLACK
6
CONTINUOUS
10
104.615
20
-80.5698
11
104.744
21
-80.6761
0
LINE
8
BLACK
6
CONTINUOUS
10
104.744
20
-80.6761
11
104.85
21
-80.8055
0
LINE
8
BLACK
6
CONTINUOUS
10
104.85
20
-80.8055
11
104.929
21
-80.9531
0
LINE
8
BLACK
6
CONTINUOUS
10
104.929
20
-80.9531
11
104.978
21
-81.1134
0
LINE
8
BLACK
6
CONTINUOUS
10
104.978
20
-81.1134
11
104.994
21
-81.28
0
LINE
8
BLACK
6
CONTINUOUS
10
104.994
20
-81.28
11
104.978
21
-81.4466
0
LINE
8
BLACK
6
CONTINUOUS
10
104.978
20
-81.4466
11
104.929
21
-81.6069
0
LINE
8
BLACK
6
CONTINUOUS
10
104.929
20
-81.6069
11
104.85
21
-81.7545
0
LINE
8
BLACK
6
CONTINUOUS
10
104.85
20
-81.7545
11
104.744
21
-81.8839
0
LINE
8
BLACK
6
CONTINUOUS
10
104.744
20
-81.8839
11
104.615
21
-81.9902
0
LINE
8
BLACK
6
CONTINUOUS
10
104.615
20
-81.9902
11
104.467
21
-82.0691
0
LINE
8
BLACK
6
CONTINUOUS
10
104.467
20
-82.0691
11
104.307
21
-82.1177
0
LINE
8
BLACK
6
CONTINUOUS
10
104.307
20
-82.1177
11
104.182
21
-82.13
0
LINE
8
BLACK
6
CONTINUOUS
10
104.182
20
-82.13
11
104.098
21
-82.13
0
LINE
8
BLACK
6
CONTINUOUS
10
104.098
20
-82.13
11
103.973
21
-82.1177
0
LINE
8
BLACK
6
CONTINUOUS
10
103.973
20
-82.1177
11
103.813
21
-82.0691
0
LINE
8
BLACK
6
CONTINUOUS
10
103.813
20
-82.0691
11
103.665
21
-81.9902
0
LINE
8
BLACK
6
CONTINUOUS
10
103.665
20
-81.9902
11
103.536
21
-81.8839
0
LINE
8
BLACK
6
CONTINUOUS
10
103.536
20
-81.8839
11
103.43
21
-81.7545
0
LINE
8
BLACK
6
CONTINUOUS
10
103.43
20
-81.7545
11
103.351
21
-81.6069
0
LINE
8
BLACK
6
CONTINUOUS
10
103.351
20
-81.6069
11
103.302
21
-81.4466
0
LINE
8
BLACK
6
CONTINUOUS
10
103.302
20
-81.4466
11
103.286
21
-81.28
0
LINE
8
BLACK
6
CONTINUOUS
10
103.286
20
-81.28
11
103.302
21
-81.1134
0
LINE
8
BLACK
6
CONTINUOUS
10
103.302
20
-81.1134
11
103.351
21
-80.9531
0
LINE
8
BLACK
6
CONTINUOUS
10
103.351
20
-80.9531
11
103.43
21
-80.8055
0
LINE
8
BLACK
6
CONTINUOUS
10
103.43
20
-80.8055
11
103.536
21
-80.6761
0
LINE
8
BLACK
6
CONTINUOUS
10
103.536
20
-80.6761
11
103.665
21
-80.5698
0
LINE
8
BLACK
6
CONTINUOUS
10
103.665
20
-80.5698
11
103.813
21
-80.4909
0
LINE
8
BLACK
6
CONTINUOUS
10
103.813
20
-80.4909
11
103.973
21
-80.4423
0
LINE
8
BLACK
6
CONTINUOUS
10
103.973
20
-80.4423
11
104.098
21
-80.43
0
LINE
8
BLACK
6
CONTINUOUS
10
104.098
20
-80.43
11
104.182
21
-80.43
0
LINE
8
BLACK
6
CONTINUOUS
10
104.182
20
-80.43
11
104.307
21
-80.4423
0
LINE
8
BLACK
6
CONTINUOUS
10
117.007
20
-80.4423
11
117.167
21
-80.4909
0
LINE
8
BLACK
6
CONTINUOUS
10
117.167
20
-80.4909
11
117.315
21
-80.5698
0
LINE
8
BLACK
6
CONTINUOUS
10
117.315
20
-80.5698
11
117.444
21
-80.6761
0
LINE
8
BLACK
6
CONTINUOUS
10
117.444
20
-80.6761
11
117.55
21
-80.8055
0
LINE
8
BLACK
6
CONTINUOUS
10
117.55
20
-80.8055
11
117.629
21
-80.9531
0
LINE
8
BLACK
6
CONTINUOUS
10
117.629
20
-80.9531
11
117.678
21
-81.1134
0
LINE
8
BLACK
6
CONTINUOUS
10
117.678
20
-81.1134
11
117.694
21
-81.28
0
LINE
8
BLACK
6
CONTINUOUS
10
117.694
20
-81.28
11
117.678
21
-81.4466
0
LINE
8
BLACK
6
CONTINUOUS
10
117.678
20
-81.4466
11
117.629
21
-81.6069
0
LINE
8
BLACK
6
CONTINUOUS
10
117.629
20
-81.6069
11
117.55
21
-81.7545
0
LINE
8
BLACK
6
CONTINUOUS
10
117.55
20
-81.7545
11
117.444
21
-81.8839
0
LINE
8
BLACK
6
CONTINUOUS
10
117.444
20
-81.8839
11
117.315
21
-81.9902
0
LINE
8
BLACK
6
CONTINUOUS
10
117.315
20
-81.9902
11
117.167
21
-82.0691
0
LINE
8
BLACK
6
CONTINUOUS
10
117.167
20
-82.0691
11
117.007
21
-82.1177
0
LINE
8
BLACK
6
CONTINUOUS
10
117.007
20
-82.1177
11
116.882
21
-82.13
0
LINE
8
BLACK
6
CONTINUOUS
10
116.882
20
-82.13
11
116.798
21
-82.13
0
LINE
8
BLACK
6
CONTINUOUS
10
116.798
20
-82.13
11
116.673
21
-82.1177
0
LINE
8
BLACK
6
CONTINUOUS
10
116.673
20
-82.1177
11
116.513
21
-82.0691
0
LINE
8
BLACK
6
CONTINUOUS
10
116.513
20
-82.0691
11
116.365
21
-81.9902
0
LINE
8
BLACK
6
CONTINUOUS
10
116.365
20
-81.9902
11
116.236
21
-81.8839
0
LINE
8
BLACK
6
CONTINUOUS
10
116.236
20
-81.8839
11
116.13
21
-81.7545
0
LINE
8
BLACK
6
CONTINUOUS
10
116.13
20
-81.7545
11
116.051
21
-81.6069
0
LINE
8
BLACK
6
CONTINUOUS
10
116.051
20
-81.6069
11
116.002
21
-81.4466
0
LINE
8
BLACK
6
CONTINUOUS
10
116.002
20
-81.4466
11
115.986
21
-81.28
0
LINE
8
BLACK
6
CONTINUOUS
10
115.986
20
-81.28
11
116.002
21
-81.1134
0
LINE
8
BLACK
6
CONTINUOUS
10
116.002
20
-81.1134
11
116.051
21
-80.9531
0
LINE
8
BLACK
6
CONTINUOUS
10
116.051
20
-80.9531
11
116.13
21
-80.8055
0
LINE
8
BLACK
6
CONTINUOUS
10
116.13
20
-80.8055
11
116.236
21
-80.6761
0
LINE
8
BLACK
6
CONTINUOUS
10
116.236
20
-80.6761
11
116.365
21
-80.5698
0
LINE
8
BLACK
6
CONTINUOUS
10
116.365
20
-80.5698
11
116.513
21
-80.4909
0
LINE
8
BLACK
6
CONTINUOUS
10
116.513
20
-80.4909
11
116.673
21
-80.4423
0
LINE
8
BLACK
6
CONTINUOUS
10
116.673
20
-80.4423
11
116.798
21
-80.43
0
LINE
8
BLACK
6
CONTINUOUS
10
116.798
20
-80.43
11
116.882
21
-80.43
0
LINE
8
BLACK
6
CONTINUOUS
10
116.882
20
-80.43
11
117.007
21
-80.4423
0
LINE
8
BLACK
6
CONTINUOUS
10
120.23
20
-82.13
11
118.53
21
-82.13
0
LINE
8
BLACK
6
CONTINUOUS
10
118.53
20
-82.13
11
118.53
21
-80.43
0
LINE
8
BLACK
6
CONTINUOUS
10
118.53
20
-80.43
11
120.23
21
-80.43
0
LINE
8
BLACK
6
CONTINUOUS
10
120.23
20
-80.43
11
120.23
21
-82.13
0
LINE
8
BLACK
6
CONTINUOUS
10
114.467
20
-80.4423
11
114.627
21
-80.4909
0
LINE
8
BLACK
6
CONTINUOUS
10
114.627
20
-80.4909
11
114.775
21
-80.5698
0
LINE
8
BLACK
6
CONTINUOUS
10
114.775
20
-80.5698
11
114.904
21
-80.6761
0
LINE
8
BLACK
6
CONTINUOUS
10
114.904
20
-80.6761
11
115.01
21
-80.8055
0
LINE
8
BLACK
6
CONTINUOUS
10
115.01
20
-80.8055
11
115.089
21
-80.9531
0
LINE
8
BLACK
6
CONTINUOUS
10
115.089
20
-80.9531
11
115.138
21
-81.1134
0
LINE
8
BLACK
6
CONTINUOUS
10
115.138
20
-81.1134
11
115.154
21
-81.28
0
LINE
8
BLACK
6
CONTINUOUS
10
115.154
20
-81.28
11
115.138
21
-81.4466
0
LINE
8
BLACK
6
CONTINUOUS
10
115.138
20
-81.4466
11
115.089
21
-81.6069
0
LINE
8
BLACK
6
CONTINUOUS
10
115.089
20
-81.6069
11
115.01
21
-81.7545
0
LINE
8
BLACK
6
CONTINUOUS
10
115.01
20
-81.7545
11
114.904
21
-81.8839
0
LINE
8
BLACK
6
CONTINUOUS
10
114.904
20
-81.8839
11
114.775
21
-81.9902
0
LINE
8
BLACK
6
CONTINUOUS
10
114.775
20
-81.9902
11
114.627
21
-82.0691
0
LINE
8
BLACK
6
CONTINUOUS
10
114.627
20
-82.0691
11
114.467
21
-82.1177
0
LINE
8
BLACK
6
CONTINUOUS
10
114.467
20
-82.1177
11
114.342
21
-82.13
0
LINE
8
BLACK
6
CONTINUOUS
10
114.342
20
-82.13
11
114.258
21
-82.13
0
LINE
8
BLACK
6
CONTINUOUS
10
114.258
20
-82.13
11
114.133
21
-82.1177
0
LINE
8
BLACK
6
CONTINUOUS
10
114.133
20
-82.1177
11
113.973
21
-82.0691
0
LINE
8
BLACK
6
CONTINUOUS
10
113.973
20
-82.0691
11
113.825
21
-81.9902
0
LINE
8
BLACK
6
CONTINUOUS
10
113.825
20
-81.9902
11
113.696
21
-81.8839
0
LINE
8
BLACK
6
CONTINUOUS
10
113.696
20
-81.8839
11
113.59
21
-81.7545
0
LINE
8
BLACK
6
CONTINUOUS
10
113.59
20
-81.7545
11
113.511
21
-81.6069
0
LINE
8
BLACK
6
CONTINUOUS
10
113.511
20
-81.6069
11
113.462
21
-81.4466
0
LINE
8
BLACK
6
CONTINUOUS
10
113.462
20
-81.4466
11
113.446
21
-81.28
0
LINE
8
BLACK
6
CONTINUOUS
10
113.446
20
-81.28
11
113.462
21
-81.1134
0
LINE
8
BLACK
6
CONTINUOUS
10
113.462
20
-81.1134
11
113.511
21
-80.9531
0
LINE
8
BLACK
6
CONTINUOUS
10
113.511
20
-80.9531
11
113.59
21
-80.8055
0
LINE
8
BLACK
6
CONTINUOUS
10
113.59
20
-80.8055
11
113.696
21
-80.6761
0
LINE
8
BLACK
6
CONTINUOUS
10
113.696
20
-80.6761
11
113.825
21
-80.5698
0
LINE
8
BLACK
6
CONTINUOUS
10
113.825
20
-80.5698
11
113.973
21
-80.4909
0
LINE
8
BLACK
6
CONTINUOUS
10
113.973
20
-80.4909
11
114.133
21
-80.4423
0
LINE
8
BLACK
6
CONTINUOUS
10
114.133
20
-80.4423
11
114.258
21
-80.43
0
LINE
8
BLACK
6
CONTINUOUS
10
114.258
20
-80.43
11
114.342
21
-80.43
0
LINE
8
BLACK
6
CONTINUOUS
10
114.342
20
-80.43
11
114.467
21
-80.4423
0
LINE
8
BLACK
6
CONTINUOUS
10
111.927
20
-80.4423
11
112.087
21
-80.4909
0
LINE
8
BLACK
6
CONTINUOUS
10
112.087
20
-80.4909
11
112.235
21
-80.5698
0
LINE
8
BLACK
6
CONTINUOUS
10
112.235
20
-80.5698
11
112.364
21
-80.6761
0
LINE
8
BLACK
6
CONTINUOUS
10
112.364
20
-80.6761
11
112.47
21
-80.8055
0
LINE
8
BLACK
6
CONTINUOUS
10
112.47
20
-80.8055
11
112.549
21
-80.9531
0
LINE
8
BLACK
6
CONTINUOUS
10
112.549
20
-80.9531
11
112.598
21
-81.1134
0
LINE
8
BLACK
6
CONTINUOUS
10
112.598
20
-81.1134
11
112.614
21
-81.28
0
LINE
8
BLACK
6
CONTINUOUS
10
112.614
20
-81.28
11
112.598
21
-81.4466
0
LINE
8
BLACK
6
CONTINUOUS
10
112.598
20
-81.4466
11
112.549
21
-81.6069
0
LINE
8
BLACK
6
CONTINUOUS
10
112.549
20
-81.6069
11
112.47
21
-81.7545
0
LINE
8
BLACK
6
CONTINUOUS
10
112.47
20
-81.7545
11
112.364
21
-81.8839
0
LINE
8
BLACK
6
CONTINUOUS
10
112.364
20
-81.8839
11
112.235
21
-81.9902
0
LINE
8
BLACK
6
CONTINUOUS
10
112.235
20
-81.9902
11
112.087
21
-82.0691
0
LINE
8
BLACK
6
CONTINUOUS
10
112.087
20
-82.0691
11
111.927
21
-82.1177
0
LINE
8
BLACK
6
CONTINUOUS
10
111.927
20
-82.1177
11
111.802
21
-82.13
0
LINE
8
BLACK
6
CONTINUOUS
10
111.802
20
-82.13
11
111.718
21
-82.13
0
LINE
8
BLACK
6
CONTINUOUS
10
111.718
20
-82.13
11
111.593
21
-82.1177
0
LINE
8
BLACK
6
CONTINUOUS
10
111.593
20
-82.1177
11
111.433
21
-82.0691
0
LINE
8
BLACK
6
CONTINUOUS
10
111.433
20
-82.0691
11
111.285
21
-81.9902
0
LINE
8
BLACK
6
CONTINUOUS
10
111.285
20
-81.9902
11
111.156
21
-81.8839
0
LINE
8
BLACK
6
CONTINUOUS
10
111.156
20
-81.8839
11
111.05
21
-81.7545
0
LINE
8
BLACK
6
CONTINUOUS
10
111.05
20
-81.7545
11
110.971
21
-81.6069
0
LINE
8
BLACK
6
CONTINUOUS
10
110.971
20
-81.6069
11
110.922
21
-81.4466
0
LINE
8
BLACK
6
CONTINUOUS
10
110.922
20
-81.4466
11
110.906
21
-81.28
0
LINE
8
BLACK
6
CONTINUOUS
10
110.906
20
-81.28
11
110.922
21
-81.1134
0
LINE
8
BLACK
6
CONTINUOUS
10
110.922
20
-81.1134
11
110.971
21
-80.9531
0
LINE
8
BLACK
6
CONTINUOUS
10
110.971
20
-80.9531
11
111.05
21
-80.8055
0
LINE
8
BLACK
6
CONTINUOUS
10
111.05
20
-80.8055
11
111.156
21
-80.6761
0
LINE
8
BLACK
6
CONTINUOUS
10
111.156
20
-80.6761
11
111.285
21
-80.5698
0
LINE
8
BLACK
6
CONTINUOUS
10
111.285
20
-80.5698
11
111.433
21
-80.4909
0
LINE
8
BLACK
6
CONTINUOUS
10
111.433
20
-80.4909
11
111.593
21
-80.4423
0
LINE
8
BLACK
6
CONTINUOUS
10
111.593
20
-80.4423
11
111.718
21
-80.43
0
LINE
8
BLACK
6
CONTINUOUS
10
111.718
20
-80.43
11
111.802
21
-80.43
0
LINE
8
BLACK
6
CONTINUOUS
10
111.802
20
-80.43
11
111.927
21
-80.4423
0
LINE
8
BLACK
6
CONTINUOUS
10
99.91
20
-82.13
11
98.21
21
-82.13
0
LINE
8
BLACK
6
CONTINUOUS
10
98.21
20
-82.13
11
98.21
21
-80.43
0
LINE
8
BLACK
6
CONTINUOUS
10
98.21
20
-80.43
11
99.91
21
-80.43
0
LINE
8
BLACK
6
CONTINUOUS
10
99.91
20
-80.43
11
99.91
21
-82.13
0
LINE
8
BLACK
6
CONTINUOUS
10
101.767
20
-80.4423
11
101.927
21
-80.4909
0
LINE
8
BLACK
6
CONTINUOUS
10
101.927
20
-80.4909
11
102.075
21
-80.5698
0
LINE
8
BLACK
6
CONTINUOUS
10
102.075
20
-80.5698
11
102.204
21
-80.6761
0
LINE
8
BLACK
6
CONTINUOUS
10
102.204
20
-80.6761
11
102.31
21
-80.8055
0
LINE
8
BLACK
6
CONTINUOUS
10
102.31
20
-80.8055
11
102.389
21
-80.9531
0
LINE
8
BLACK
6
CONTINUOUS
10
102.389
20
-80.9531
11
102.438
21
-81.1134
0
LINE
8
BLACK
6
CONTINUOUS
10
102.438
20
-81.1134
11
102.454
21
-81.28
0
LINE
8
BLACK
6
CONTINUOUS
10
102.454
20
-81.28
11
102.438
21
-81.4466
0
LINE
8
BLACK
6
CONTINUOUS
10
102.438
20
-81.4466
11
102.389
21
-81.6069
0
LINE
8
BLACK
6
CONTINUOUS
10
102.389
20
-81.6069
11
102.31
21
-81.7545
0
LINE
8
BLACK
6
CONTINUOUS
10
102.31
20
-81.7545
11
102.204
21
-81.8839
0
LINE
8
BLACK
6
CONTINUOUS
10
102.204
20
-81.8839
11
102.075
21
-81.9902
0
LINE
8
BLACK
6
CONTINUOUS
10
102.075
20
-81.9902
11
101.927
21
-82.0691
0
LINE
8
BLACK
6
CONTINUOUS
10
101.927
20
-82.0691
11
101.767
21
-82.1177
0
LINE
8
BLACK
6
CONTINUOUS
10
101.767
20
-82.1177
11
101.642
21
-82.13
0
LINE
8
BLACK
6
CONTINUOUS
10
101.642
20
-82.13
11
101.558
21
-82.13
0
LINE
8
BLACK
6
CONTINUOUS
10
101.558
20
-82.13
11
101.433
21
-82.1177
0
LINE
8
BLACK
6
CONTINUOUS
10
101.433
20
-82.1177
11
101.273
21
-82.0691
0
LINE
8
BLACK
6
CONTINUOUS
10
101.273
20
-82.0691
11
101.125
21
-81.9902
0
LINE
8
BLACK
6
CONTINUOUS
10
101.125
20
-81.9902
11
100.996
21
-81.8839
0
LINE
8
BLACK
6
CONTINUOUS
10
100.996
20
-81.8839
11
100.89
21
-81.7545
0
LINE
8
BLACK
6
CONTINUOUS
10
100.89
20
-81.7545
11
100.811
21
-81.6069
0
LINE
8
BLACK
6
CONTINUOUS
10
100.811
20
-81.6069
11
100.762
21
-81.4466
0
LINE
8
BLACK
6
CONTINUOUS
10
100.762
20
-81.4466
11
100.746
21
-81.28
0
LINE
8
BLACK
6
CONTINUOUS
10
100.746
20
-81.28
11
100.762
21
-81.1134
0
LINE
8
BLACK
6
CONTINUOUS
10
100.762
20
-81.1134
11
100.811
21
-80.9531
0
LINE
8
BLACK
6
CONTINUOUS
10
100.811
20
-80.9531
11
100.89
21
-80.8055
0
LINE
8
BLACK
6
CONTINUOUS
10
100.89
20
-80.8055
11
100.996
21
-80.6761
0
LINE
8
BLACK
6
CONTINUOUS
10
100.996
20
-80.6761
11
101.125
21
-80.5698
0
LINE
8
BLACK
6
CONTINUOUS
10
101.125
20
-80.5698
11
101.273
21
-80.4909
0
LINE
8
BLACK
6
CONTINUOUS
10
101.273
20
-80.4909
11
101.433
21
-80.4423
0
LINE
8
BLACK
6
CONTINUOUS
10
101.433
20
-80.4423
11
101.558
21
-80.43
0
LINE
8
BLACK
6
CONTINUOUS
10
101.558
20
-80.43
11
101.642
21
-80.43
0
LINE
8
BLACK
6
CONTINUOUS
10
101.642
20
-80.43
11
101.767
21
-80.4423
0
LINE
8
BLACK
6
CONTINUOUS
10
106.847
20
-80.4423
11
107.007
21
-80.4909
0
LINE
8
BLACK
6
CONTINUOUS
10
107.007
20
-80.4909
11
107.155
21
-80.5698
0
LINE
8
BLACK
6
CONTINUOUS
10
107.155
20
-80.5698
11
107.284
21
-80.6761
0
LINE
8
BLACK
6
CONTINUOUS
10
107.284
20
-80.6761
11
107.39
21
-80.8055
0
LINE
8
BLACK
6
CONTINUOUS
10
107.39
20
-80.8055
11
107.469
21
-80.9531
0
LINE
8
BLACK
6
CONTINUOUS
10
107.469
20
-80.9531
11
107.518
21
-81.1134
0
LINE
8
BLACK
6
CONTINUOUS
10
107.518
20
-81.1134
11
107.534
21
-81.28
0
LINE
8
BLACK
6
CONTINUOUS
10
107.534
20
-81.28
11
107.518
21
-81.4466
0
LINE
8
BLACK
6
CONTINUOUS
10
107.518
20
-81.4466
11
107.469
21
-81.6069
0
LINE
8
BLACK
6
CONTINUOUS
10
107.469
20
-81.6069
11
107.39
21
-81.7545
0
LINE
8
BLACK
6
CONTINUOUS
10
107.39
20
-81.7545
11
107.284
21
-81.8839
0
LINE
8
BLACK
6
CONTINUOUS
10
107.284
20
-81.8839
11
107.155
21
-81.9902
0
LINE
8
BLACK
6
CONTINUOUS
10
107.155
20
-81.9902
11
107.007
21
-82.0691
0
LINE
8
BLACK
6
CONTINUOUS
10
107.007
20
-82.0691
11
106.847
21
-82.1177
0
LINE
8
BLACK
6
CONTINUOUS
10
106.847
20
-82.1177
11
106.722
21
-82.13
0
LINE
8
BLACK
6
CONTINUOUS
10
106.722
20
-82.13
11
106.638
21
-82.13
0
LINE
8
BLACK
6
CONTINUOUS
10
106.638
20
-82.13
11
106.513
21
-82.1177
0
LINE
8
BLACK
6
CONTINUOUS
10
106.513
20
-82.1177
11
106.353
21
-82.0691
0
LINE
8
BLACK
6
CONTINUOUS
10
106.353
20
-82.0691
11
106.205
21
-81.9902
0
LINE
8
BLACK
6
CONTINUOUS
10
106.205
20
-81.9902
11
106.076
21
-81.8839
0
LINE
8
BLACK
6
CONTINUOUS
10
106.076
20
-81.8839
11
105.97
21
-81.7545
0
LINE
8
BLACK
6
CONTINUOUS
10
105.97
20
-81.7545
11
105.891
21
-81.6069
0
LINE
8
BLACK
6
CONTINUOUS
10
105.891
20
-81.6069
11
105.842
21
-81.4466
0
LINE
8
BLACK
6
CONTINUOUS
10
105.842
20
-81.4466
11
105.826
21
-81.28
0
LINE
8
BLACK
6
CONTINUOUS
10
105.826
20
-81.28
11
105.842
21
-81.1134
0
LINE
8
BLACK
6
CONTINUOUS
10
105.842
20
-81.1134
11
105.891
21
-80.9531
0
LINE
8
BLACK
6
CONTINUOUS
10
105.891
20
-80.9531
11
105.97
21
-80.8055
0
LINE
8
BLACK
6
CONTINUOUS
10
105.97
20
-80.8055
11
106.076
21
-80.6761
0
LINE
8
BLACK
6
CONTINUOUS
10
106.076
20
-80.6761
11
106.205
21
-80.5698
0
LINE
8
BLACK
6
CONTINUOUS
10
106.205
20
-80.5698
11
106.353
21
-80.4909
0
LINE
8
BLACK
6
CONTINUOUS
10
106.353
20
-80.4909
11
106.513
21
-80.4423
0
LINE
8
BLACK
6
CONTINUOUS
10
106.513
20
-80.4423
11
106.638
21
-80.43
0
LINE
8
BLACK
6
CONTINUOUS
10
106.638
20
-80.43
11
106.722
21
-80.43
0
LINE
8
BLACK
6
CONTINUOUS
10
106.722
20
-80.43
11
106.847
21
-80.4423
0
LINE
8
BLACK
6
CONTINUOUS
10
88.0675
20
-77.2976
11
88.3405
21
-77.4107
0
LINE
8
BLACK
6
CONTINUOUS
10
88.3405
20
-77.4107
11
88.5862
21
-77.5749
0
LINE
8
BLACK
6
CONTINUOUS
10
88.5862
20
-77.5749
11
88.7951
21
-77.7838
0
LINE
8
BLACK
6
CONTINUOUS
10
88.7951
20
-77.7838
11
88.9593
21
-78.0295
0
LINE
8
BLACK
6
CONTINUOUS
10
88.9593
20
-78.0295
11
89.0724
21
-78.3025
0
LINE
8
BLACK
6
CONTINUOUS
10
89.0724
20
-78.3025
11
89.13
21
-78.5923
0
LINE
8
BLACK
6
CONTINUOUS
10
89.13
20
-78.5923
11
89.13
21
-78.8877
0
LINE
8
BLACK
6
CONTINUOUS
10
89.13
20
-78.8877
11
89.0724
21
-79.1775
0
LINE
8
BLACK
6
CONTINUOUS
10
89.0724
20
-79.1775
11
88.9593
21
-79.4505
0
LINE
8
BLACK
6
CONTINUOUS
10
88.9593
20
-79.4505
11
88.7951
21
-79.6962
0
LINE
8
BLACK
6
CONTINUOUS
10
88.7951
20
-79.6962
11
88.5862
21
-79.9051
0
LINE
8
BLACK
6
CONTINUOUS
10
88.5862
20
-79.9051
11
88.3405
21
-80.0693
0
LINE
8
BLACK
6
CONTINUOUS
10
88.3405
20
-80.0693
11
88.0675
21
-80.1824
0
LINE
8
BLACK
6
CONTINUOUS
10
88.0675
20
-80.1824
11
87.7777
21
-80.24
0
LINE
8
BLACK
6
CONTINUOUS
10
87.7777
20
-80.24
11
87.4823
21
-80.24
0
LINE
8
BLACK
6
CONTINUOUS
10
87.4823
20
-80.24
11
87.1925
21
-80.1824
0
LINE
8
BLACK
6
CONTINUOUS
10
87.1925
20
-80.1824
11
86.9195
21
-80.0693
0
LINE
8
BLACK
6
CONTINUOUS
10
86.9195
20
-80.0693
11
86.6738
21
-79.9051
0
LINE
8
BLACK
6
CONTINUOUS
10
86.6738
20
-79.9051
11
86.4649
21
-79.6962
0
LINE
8
BLACK
6
CONTINUOUS
10
86.4649
20
-79.6962
11
86.3007
21
-79.4505
0
LINE
8
BLACK
6
CONTINUOUS
10
86.3007
20
-79.4505
11
86.1876
21
-79.1775
0
LINE
8
BLACK
6
CONTINUOUS
10
86.1876
20
-79.1775
11
86.13
21
-78.8877
0
LINE
8
BLACK
6
CONTINUOUS
10
86.13
20
-78.8877
11
86.13
21
-78.5923
0
LINE
8
BLACK
6
CONTINUOUS
10
86.13
20
-78.5923
11
86.1876
21
-78.3025
0
LINE
8
BLACK
6
CONTINUOUS
10
86.1876
20
-78.3025
11
86.3007
21
-78.0295
0
LINE
8
BLACK
6
CONTINUOUS
10
86.3007
20
-78.0295
11
86.4649
21
-77.7838
0
LINE
8
BLACK
6
CONTINUOUS
10
86.4649
20
-77.7838
11
86.6738
21
-77.5749
0
LINE
8
BLACK
6
CONTINUOUS
10
86.6738
20
-77.5749
11
86.9195
21
-77.4107
0
LINE
8
BLACK
6
CONTINUOUS
10
86.9195
20
-77.4107
11
87.1925
21
-77.2976
0
LINE
8
BLACK
6
CONTINUOUS
10
87.1925
20
-77.2976
11
87.4823
21
-77.24
0
LINE
8
BLACK
6
CONTINUOUS
10
87.4823
20
-77.24
11
87.7777
21
-77.24
0
LINE
8
BLACK
6
CONTINUOUS
10
87.7777
20
-77.24
11
88.0675
21
-77.2976
0
LINE
8
BLACK
6
CONTINUOUS
10
84.05
20
-80.24
11
81.05
21
-80.24
0
LINE
8
BLACK
6
CONTINUOUS
10
81.05
20
-80.24
11
81.05
21
-77.24
0
LINE
8
BLACK
6
CONTINUOUS
10
81.05
20
-77.24
11
84.05
21
-77.24
0
LINE
8
BLACK
6
CONTINUOUS
10
84.05
20
-77.24
11
84.05
21
-80.24
0
CIRCLE
8
BLACK
10
83.82
20
-116.002
40
0.4
0
CIRCLE
8
BLACK
10
83.82
20
-110.49
40
0.4
  0
ENDSEC
  0
EOF
