G04 #@! TF.GenerationSoftware,KiCad,Pcbnew,(5.1.2)-2*
G04 #@! TF.CreationDate,2019-10-06T07:22:37-10:00*
G04 #@! TF.ProjectId,differential_robot(v1),64696666-6572-4656-9e74-69616c5f726f,rev?*
G04 #@! TF.SameCoordinates,Original*
G04 #@! TF.FileFunction,Legend,Top*
G04 #@! TF.FilePolarity,Positive*
%FSLAX46Y46*%
G04 Gerber Fmt 4.6, Leading zero omitted, Abs format (unit mm)*
G04 Created by KiCad (PCBNEW (5.1.2)-2) date 2019-10-06 07:22:37*
%MOMM*%
%LPD*%
G04 APERTURE LIST*
%ADD10C,0.500000*%
%ADD11C,0.625000*%
%ADD12C,0.150000*%
%ADD13C,0.120000*%
%ADD14C,0.100000*%
%ADD15C,0.127000*%
%ADD16C,0.050800*%
%ADD17C,0.050000*%
G04 APERTURE END LIST*
D10*
X125778571Y-77104761D02*
X125778571Y-75104761D01*
X126445238Y-76533333D01*
X127111904Y-75104761D01*
X127111904Y-77104761D01*
X128350000Y-77104761D02*
X128159523Y-77009523D01*
X128064285Y-76914285D01*
X127969047Y-76723809D01*
X127969047Y-76152380D01*
X128064285Y-75961904D01*
X128159523Y-75866666D01*
X128350000Y-75771428D01*
X128635714Y-75771428D01*
X128826190Y-75866666D01*
X128921428Y-75961904D01*
X129016666Y-76152380D01*
X129016666Y-76723809D01*
X128921428Y-76914285D01*
X128826190Y-77009523D01*
X128635714Y-77104761D01*
X128350000Y-77104761D01*
X129873809Y-75771428D02*
X129873809Y-77104761D01*
X129873809Y-75961904D02*
X129969047Y-75866666D01*
X130159523Y-75771428D01*
X130445238Y-75771428D01*
X130635714Y-75866666D01*
X130730952Y-76057142D01*
X130730952Y-77104761D01*
X131588095Y-77009523D02*
X131778571Y-77104761D01*
X132159523Y-77104761D01*
X132350000Y-77009523D01*
X132445238Y-76819047D01*
X132445238Y-76723809D01*
X132350000Y-76533333D01*
X132159523Y-76438095D01*
X131873809Y-76438095D01*
X131683333Y-76342857D01*
X131588095Y-76152380D01*
X131588095Y-76057142D01*
X131683333Y-75866666D01*
X131873809Y-75771428D01*
X132159523Y-75771428D01*
X132350000Y-75866666D01*
X133016666Y-75771428D02*
X133778571Y-75771428D01*
X133302380Y-75104761D02*
X133302380Y-76819047D01*
X133397619Y-77009523D01*
X133588095Y-77104761D01*
X133778571Y-77104761D01*
X135207142Y-77009523D02*
X135016666Y-77104761D01*
X134635714Y-77104761D01*
X134445238Y-77009523D01*
X134350000Y-76819047D01*
X134350000Y-76057142D01*
X134445238Y-75866666D01*
X134635714Y-75771428D01*
X135016666Y-75771428D01*
X135207142Y-75866666D01*
X135302380Y-76057142D01*
X135302380Y-76247619D01*
X134350000Y-76438095D01*
X136159523Y-77104761D02*
X136159523Y-75771428D01*
X136159523Y-76152380D02*
X136254761Y-75961904D01*
X136350000Y-75866666D01*
X136540476Y-75771428D01*
X136730952Y-75771428D01*
X137397619Y-77104761D02*
X137397619Y-75104761D01*
X138064285Y-75104761D02*
X139207142Y-75104761D01*
X138635714Y-77104761D02*
X138635714Y-75104761D01*
X141016666Y-76914285D02*
X140921428Y-77009523D01*
X140635714Y-77104761D01*
X140445238Y-77104761D01*
X140159523Y-77009523D01*
X139969047Y-76819047D01*
X139873809Y-76628571D01*
X139778571Y-76247619D01*
X139778571Y-75961904D01*
X139873809Y-75580952D01*
X139969047Y-75390476D01*
X140159523Y-75200000D01*
X140445238Y-75104761D01*
X140635714Y-75104761D01*
X140921428Y-75200000D01*
X141016666Y-75295238D01*
X88138095Y-72532857D02*
X89661904Y-72532857D01*
D11*
X81597619Y-72568571D02*
X83502380Y-72568571D01*
X82550000Y-73520952D02*
X82550000Y-71616190D01*
D12*
X74580952Y-136064761D02*
X75247619Y-138064761D01*
X75914285Y-136064761D01*
X77628571Y-138064761D02*
X76485714Y-138064761D01*
X77057142Y-138064761D02*
X77057142Y-136064761D01*
X76866666Y-136350476D01*
X76676190Y-136540952D01*
X76485714Y-136636190D01*
D13*
X136890000Y-112970000D02*
G75*
G02X134890000Y-112970000I-1000000J0D01*
G01*
X134890000Y-112970000D02*
X133240000Y-112970000D01*
X133240000Y-112970000D02*
X133240000Y-133410000D01*
X133240000Y-133410000D02*
X138540000Y-133410000D01*
X138540000Y-133410000D02*
X138540000Y-112970000D01*
X138540000Y-112970000D02*
X136890000Y-112970000D01*
X81680260Y-128060000D02*
G75*
G03X81680259Y-125940000I2119740J1060000D01*
G01*
X81262712Y-125665000D02*
X81712712Y-125665000D01*
X81487712Y-125440000D02*
X81487712Y-125890000D01*
X86607712Y-125440000D02*
X86607712Y-125890000D01*
X86382712Y-125665000D02*
X86832712Y-125665000D01*
X86800260Y-128060000D02*
G75*
G03X86800259Y-125940000I2119740J1060000D01*
G01*
X93150260Y-128060000D02*
G75*
G03X93150259Y-125940000I2119740J1060000D01*
G01*
X92732712Y-125665000D02*
X93182712Y-125665000D01*
X92957712Y-125440000D02*
X92957712Y-125890000D01*
X102662288Y-128560000D02*
X102662288Y-128110000D01*
X102887288Y-128335000D02*
X102437288Y-128335000D01*
X102469740Y-125940000D02*
G75*
G03X102469741Y-128060000I-2119740J-1060000D01*
G01*
X124400000Y-116840000D02*
X127060000Y-116840000D01*
X124400000Y-116840000D02*
X124400000Y-129600000D01*
X124400000Y-129600000D02*
X127060000Y-129600000D01*
X127060000Y-116840000D02*
X127060000Y-129600000D01*
X127060000Y-114240000D02*
X127060000Y-115570000D01*
X125730000Y-114240000D02*
X127060000Y-114240000D01*
X90170000Y-81280000D02*
X80010000Y-81280000D01*
X90170000Y-82550000D02*
X90170000Y-74930000D01*
X90170000Y-74930000D02*
X80010000Y-74930000D01*
X80010000Y-74930000D02*
X80010000Y-82550000D01*
X80010000Y-82550000D02*
X90170000Y-82550000D01*
X147320000Y-114240000D02*
X148650000Y-114240000D01*
X148650000Y-114240000D02*
X148650000Y-115570000D01*
X148650000Y-116840000D02*
X148650000Y-129600000D01*
X145990000Y-129600000D02*
X148650000Y-129600000D01*
X145990000Y-116840000D02*
X145990000Y-129600000D01*
X145990000Y-116840000D02*
X148650000Y-116840000D01*
X105350000Y-115570000D02*
X108010000Y-115570000D01*
X105350000Y-115570000D02*
X105350000Y-133410000D01*
X105350000Y-133410000D02*
X108010000Y-133410000D01*
X108010000Y-115570000D02*
X108010000Y-133410000D01*
X108010000Y-112970000D02*
X108010000Y-114300000D01*
X106680000Y-112970000D02*
X108010000Y-112970000D01*
X118110000Y-79950000D02*
X118110000Y-82610000D01*
X118110000Y-79950000D02*
X110430000Y-79950000D01*
X110430000Y-79950000D02*
X110430000Y-82610000D01*
X118110000Y-82610000D02*
X110430000Y-82610000D01*
X120710000Y-82610000D02*
X119380000Y-82610000D01*
X120710000Y-81280000D02*
X120710000Y-82610000D01*
X97730000Y-81280000D02*
X97730000Y-79950000D01*
X97730000Y-79950000D02*
X99060000Y-79950000D01*
X100330000Y-79950000D02*
X108010000Y-79950000D01*
X108010000Y-82610000D02*
X108010000Y-79950000D01*
X100330000Y-82610000D02*
X108010000Y-82610000D01*
X100330000Y-82610000D02*
X100330000Y-79950000D01*
D14*
G36*
X114300000Y-95250000D02*
G01*
X114554000Y-95504000D01*
X114173000Y-95758000D01*
X113919000Y-95504000D01*
X114300000Y-95250000D01*
G37*
X114300000Y-95250000D02*
X114554000Y-95504000D01*
X114173000Y-95758000D01*
X113919000Y-95504000D01*
X114300000Y-95250000D01*
G36*
X114427000Y-94488000D02*
G01*
X114681000Y-94742000D01*
X114300000Y-94996000D01*
X114046000Y-94742000D01*
X114427000Y-94488000D01*
G37*
X114427000Y-94488000D02*
X114681000Y-94742000D01*
X114300000Y-94996000D01*
X114046000Y-94742000D01*
X114427000Y-94488000D01*
G36*
X114681000Y-95631000D02*
G01*
X114935000Y-95885000D01*
X114554000Y-96139000D01*
X114300000Y-95885000D01*
X114681000Y-95631000D01*
G37*
X114681000Y-95631000D02*
X114935000Y-95885000D01*
X114554000Y-96139000D01*
X114300000Y-95885000D01*
X114681000Y-95631000D01*
G36*
X114173000Y-96012000D02*
G01*
X114427000Y-96266000D01*
X114046000Y-96520000D01*
X113792000Y-96266000D01*
X114173000Y-96012000D01*
G37*
X114173000Y-96012000D02*
X114427000Y-96266000D01*
X114046000Y-96520000D01*
X113792000Y-96266000D01*
X114173000Y-96012000D01*
G36*
X114808000Y-94869000D02*
G01*
X115062000Y-95123000D01*
X114681000Y-95377000D01*
X114427000Y-95123000D01*
X114808000Y-94869000D01*
G37*
X114808000Y-94869000D02*
X115062000Y-95123000D01*
X114681000Y-95377000D01*
X114427000Y-95123000D01*
X114808000Y-94869000D01*
G36*
X113665000Y-96393000D02*
G01*
X113919000Y-96647000D01*
X113538000Y-96901000D01*
X113284000Y-96647000D01*
X113665000Y-96393000D01*
G37*
X113665000Y-96393000D02*
X113919000Y-96647000D01*
X113538000Y-96901000D01*
X113284000Y-96647000D01*
X113665000Y-96393000D01*
G36*
X113792000Y-95631000D02*
G01*
X114046000Y-95885000D01*
X113665000Y-96139000D01*
X113411000Y-95885000D01*
X113792000Y-95631000D01*
G37*
X113792000Y-95631000D02*
X114046000Y-95885000D01*
X113665000Y-96139000D01*
X113411000Y-95885000D01*
X113792000Y-95631000D01*
G36*
X114046000Y-94107000D02*
G01*
X114300000Y-94361000D01*
X113919000Y-94615000D01*
X113665000Y-94361000D01*
X114046000Y-94107000D01*
G37*
X114046000Y-94107000D02*
X114300000Y-94361000D01*
X113919000Y-94615000D01*
X113665000Y-94361000D01*
X114046000Y-94107000D01*
D12*
X82550000Y-107950000D02*
X82550000Y-90170000D01*
X143510000Y-90170000D02*
X143510000Y-107950000D01*
X124460000Y-96520000D02*
X127000000Y-96520000D01*
X124460000Y-101600000D02*
X124460000Y-96520000D01*
X127000000Y-101600000D02*
X124460000Y-101600000D01*
X127000000Y-96520000D02*
X127000000Y-101600000D01*
X87630000Y-102870000D02*
X82550000Y-102870000D01*
X87630000Y-95250000D02*
X82550000Y-95250000D01*
X87630000Y-102870000D02*
X87630000Y-95250000D01*
X81280000Y-95250000D02*
X82550000Y-95250000D01*
X81280000Y-102870000D02*
X81280000Y-95250000D01*
X82550000Y-102870000D02*
X81280000Y-102870000D01*
X82550000Y-107950000D02*
X143510000Y-107950000D01*
X143510000Y-90170000D02*
X82550000Y-90170000D01*
X130810000Y-105410000D02*
X143510000Y-105410000D01*
X130810000Y-92710000D02*
X130810000Y-105410000D01*
X143510000Y-92710000D02*
X130810000Y-92710000D01*
X142240000Y-93980000D02*
X143510000Y-92710000D01*
X142240000Y-104140000D02*
X142240000Y-93980000D01*
X143510000Y-105410000D02*
X142240000Y-104140000D01*
X142240000Y-93980000D02*
X143510000Y-93980000D01*
X142240000Y-95250000D02*
X143510000Y-95250000D01*
X142240000Y-96520000D02*
X143510000Y-96520000D01*
X142240000Y-97790000D02*
X143510000Y-97790000D01*
X142240000Y-99060000D02*
X143510000Y-99060000D01*
X142240000Y-100330000D02*
X143510000Y-100330000D01*
X142240000Y-101600000D02*
X143510000Y-101600000D01*
X142240000Y-102870000D02*
X143510000Y-102870000D01*
X142240000Y-104140000D02*
X143510000Y-104140000D01*
X107950000Y-92710000D02*
X120650000Y-92710000D01*
X107950000Y-105410000D02*
X120650000Y-105410000D01*
X107950000Y-92710000D02*
X107950000Y-105410000D01*
X120650000Y-105410000D02*
X120650000Y-92710000D01*
X106680000Y-101600000D02*
X106680000Y-104140000D01*
X102870000Y-101600000D02*
X106680000Y-101600000D01*
X102870000Y-104140000D02*
X102870000Y-101600000D01*
X106680000Y-104140000D02*
X102870000Y-104140000D01*
X101600000Y-95250000D02*
X99060000Y-95250000D01*
X101600000Y-97790000D02*
X101600000Y-95250000D01*
X99060000Y-97790000D02*
X101600000Y-97790000D01*
X99060000Y-95250000D02*
X99060000Y-97790000D01*
D15*
X81153000Y-114300000D02*
X91567000Y-114300000D01*
X91567000Y-98425000D02*
X81153000Y-98425000D01*
X91567000Y-114300000D02*
X91567000Y-101854000D01*
X91567000Y-100330000D02*
X91567000Y-98425000D01*
X81153000Y-114300000D02*
X81153000Y-101854000D01*
X81153000Y-100330000D02*
X81153000Y-98425000D01*
D16*
X81788000Y-113665000D02*
X90932000Y-113665000D01*
X90932000Y-105410000D02*
X90932000Y-113665000D01*
X90932000Y-105410000D02*
X81788000Y-105410000D01*
X81788000Y-113665000D02*
X81788000Y-105410000D01*
D15*
X88163400Y-101854000D02*
G75*
G03X88163400Y-101854000I-1803400J0D01*
G01*
D14*
G36*
X88519740Y-117094000D02*
G01*
X89281000Y-117094000D01*
X89281000Y-117730610D01*
X88519740Y-117730610D01*
X88519740Y-117094000D01*
G37*
G36*
X85978823Y-117094000D02*
G01*
X86741000Y-117094000D01*
X86741000Y-117731190D01*
X85978823Y-117731190D01*
X85978823Y-117094000D01*
G37*
G36*
X83437710Y-117094000D02*
G01*
X84201000Y-117094000D01*
X84201000Y-117731080D01*
X83437710Y-117731080D01*
X83437710Y-117094000D01*
G37*
G36*
X83179460Y-114300000D02*
G01*
X84455000Y-114300000D01*
X84455000Y-117101090D01*
X83179460Y-117101090D01*
X83179460Y-114300000D01*
G37*
G36*
X85724119Y-114300000D02*
G01*
X86995000Y-114300000D01*
X86995000Y-117099640D01*
X85724119Y-117099640D01*
X85724119Y-114300000D01*
G37*
G36*
X88267130Y-114300000D02*
G01*
X89535000Y-114300000D01*
X89535000Y-117098550D01*
X88267130Y-117098550D01*
X88267130Y-114300000D01*
G37*
G36*
X98427130Y-114300000D02*
G01*
X99695000Y-114300000D01*
X99695000Y-117098550D01*
X98427130Y-117098550D01*
X98427130Y-114300000D01*
G37*
G36*
X95884119Y-114300000D02*
G01*
X97155000Y-114300000D01*
X97155000Y-117099640D01*
X95884119Y-117099640D01*
X95884119Y-114300000D01*
G37*
G36*
X93339460Y-114300000D02*
G01*
X94615000Y-114300000D01*
X94615000Y-117101090D01*
X93339460Y-117101090D01*
X93339460Y-114300000D01*
G37*
G36*
X93597710Y-117094000D02*
G01*
X94361000Y-117094000D01*
X94361000Y-117731080D01*
X93597710Y-117731080D01*
X93597710Y-117094000D01*
G37*
G36*
X96138823Y-117094000D02*
G01*
X96901000Y-117094000D01*
X96901000Y-117731190D01*
X96138823Y-117731190D01*
X96138823Y-117094000D01*
G37*
G36*
X98679740Y-117094000D02*
G01*
X99441000Y-117094000D01*
X99441000Y-117730610D01*
X98679740Y-117730610D01*
X98679740Y-117094000D01*
G37*
D15*
X98323400Y-101854000D02*
G75*
G03X98323400Y-101854000I-1803400J0D01*
G01*
D16*
X91948000Y-113665000D02*
X91948000Y-105410000D01*
X101092000Y-105410000D02*
X91948000Y-105410000D01*
X101092000Y-105410000D02*
X101092000Y-113665000D01*
X91948000Y-113665000D02*
X101092000Y-113665000D01*
D15*
X91313000Y-100330000D02*
X91313000Y-98425000D01*
X91313000Y-114300000D02*
X91313000Y-101854000D01*
X101727000Y-100330000D02*
X101727000Y-98425000D01*
X101727000Y-114300000D02*
X101727000Y-101854000D01*
X101727000Y-98425000D02*
X91313000Y-98425000D01*
X91313000Y-114300000D02*
X101727000Y-114300000D01*
D12*
X135128095Y-111422380D02*
X135128095Y-112231904D01*
X135175714Y-112327142D01*
X135223333Y-112374761D01*
X135318571Y-112422380D01*
X135509047Y-112422380D01*
X135604285Y-112374761D01*
X135651904Y-112327142D01*
X135699523Y-112231904D01*
X135699523Y-111422380D01*
X136128095Y-111517619D02*
X136175714Y-111470000D01*
X136270952Y-111422380D01*
X136509047Y-111422380D01*
X136604285Y-111470000D01*
X136651904Y-111517619D01*
X136699523Y-111612857D01*
X136699523Y-111708095D01*
X136651904Y-111850952D01*
X136080476Y-112422380D01*
X136699523Y-112422380D01*
X83633333Y-123857142D02*
X83585714Y-123904761D01*
X83442857Y-123952380D01*
X83347619Y-123952380D01*
X83204761Y-123904761D01*
X83109523Y-123809523D01*
X83061904Y-123714285D01*
X83014285Y-123523809D01*
X83014285Y-123380952D01*
X83061904Y-123190476D01*
X83109523Y-123095238D01*
X83204761Y-123000000D01*
X83347619Y-122952380D01*
X83442857Y-122952380D01*
X83585714Y-123000000D01*
X83633333Y-123047619D01*
X84585714Y-123952380D02*
X84014285Y-123952380D01*
X84300000Y-123952380D02*
X84300000Y-122952380D01*
X84204761Y-123095238D01*
X84109523Y-123190476D01*
X84014285Y-123238095D01*
X88753333Y-123857142D02*
X88705714Y-123904761D01*
X88562857Y-123952380D01*
X88467619Y-123952380D01*
X88324761Y-123904761D01*
X88229523Y-123809523D01*
X88181904Y-123714285D01*
X88134285Y-123523809D01*
X88134285Y-123380952D01*
X88181904Y-123190476D01*
X88229523Y-123095238D01*
X88324761Y-123000000D01*
X88467619Y-122952380D01*
X88562857Y-122952380D01*
X88705714Y-123000000D01*
X88753333Y-123047619D01*
X89134285Y-123047619D02*
X89181904Y-123000000D01*
X89277142Y-122952380D01*
X89515238Y-122952380D01*
X89610476Y-123000000D01*
X89658095Y-123047619D01*
X89705714Y-123142857D01*
X89705714Y-123238095D01*
X89658095Y-123380952D01*
X89086666Y-123952380D01*
X89705714Y-123952380D01*
X95103333Y-123857142D02*
X95055714Y-123904761D01*
X94912857Y-123952380D01*
X94817619Y-123952380D01*
X94674761Y-123904761D01*
X94579523Y-123809523D01*
X94531904Y-123714285D01*
X94484285Y-123523809D01*
X94484285Y-123380952D01*
X94531904Y-123190476D01*
X94579523Y-123095238D01*
X94674761Y-123000000D01*
X94817619Y-122952380D01*
X94912857Y-122952380D01*
X95055714Y-123000000D01*
X95103333Y-123047619D01*
X95436666Y-122952380D02*
X96055714Y-122952380D01*
X95722380Y-123333333D01*
X95865238Y-123333333D01*
X95960476Y-123380952D01*
X96008095Y-123428571D01*
X96055714Y-123523809D01*
X96055714Y-123761904D01*
X96008095Y-123857142D01*
X95960476Y-123904761D01*
X95865238Y-123952380D01*
X95579523Y-123952380D01*
X95484285Y-123904761D01*
X95436666Y-123857142D01*
X100183333Y-130857142D02*
X100135714Y-130904761D01*
X99992857Y-130952380D01*
X99897619Y-130952380D01*
X99754761Y-130904761D01*
X99659523Y-130809523D01*
X99611904Y-130714285D01*
X99564285Y-130523809D01*
X99564285Y-130380952D01*
X99611904Y-130190476D01*
X99659523Y-130095238D01*
X99754761Y-130000000D01*
X99897619Y-129952380D01*
X99992857Y-129952380D01*
X100135714Y-130000000D01*
X100183333Y-130047619D01*
X101040476Y-130285714D02*
X101040476Y-130952380D01*
X100802380Y-129904761D02*
X100564285Y-130619047D01*
X101183333Y-130619047D01*
X125396666Y-112252380D02*
X125396666Y-112966666D01*
X125349047Y-113109523D01*
X125253809Y-113204761D01*
X125110952Y-113252380D01*
X125015714Y-113252380D01*
X126396666Y-113252380D02*
X125825238Y-113252380D01*
X126110952Y-113252380D02*
X126110952Y-112252380D01*
X126015714Y-112395238D01*
X125920476Y-112490476D01*
X125825238Y-112538095D01*
X84756666Y-73112380D02*
X84756666Y-73826666D01*
X84709047Y-73969523D01*
X84613809Y-74064761D01*
X84470952Y-74112380D01*
X84375714Y-74112380D01*
X85185238Y-73207619D02*
X85232857Y-73160000D01*
X85328095Y-73112380D01*
X85566190Y-73112380D01*
X85661428Y-73160000D01*
X85709047Y-73207619D01*
X85756666Y-73302857D01*
X85756666Y-73398095D01*
X85709047Y-73540952D01*
X85137619Y-74112380D01*
X85756666Y-74112380D01*
X146986666Y-112252380D02*
X146986666Y-112966666D01*
X146939047Y-113109523D01*
X146843809Y-113204761D01*
X146700952Y-113252380D01*
X146605714Y-113252380D01*
X147367619Y-112252380D02*
X147986666Y-112252380D01*
X147653333Y-112633333D01*
X147796190Y-112633333D01*
X147891428Y-112680952D01*
X147939047Y-112728571D01*
X147986666Y-112823809D01*
X147986666Y-113061904D01*
X147939047Y-113157142D01*
X147891428Y-113204761D01*
X147796190Y-113252380D01*
X147510476Y-113252380D01*
X147415238Y-113204761D01*
X147367619Y-113157142D01*
X106346666Y-110982380D02*
X106346666Y-111696666D01*
X106299047Y-111839523D01*
X106203809Y-111934761D01*
X106060952Y-111982380D01*
X105965714Y-111982380D01*
X107251428Y-111315714D02*
X107251428Y-111982380D01*
X107013333Y-110934761D02*
X106775238Y-111649047D01*
X107394285Y-111649047D01*
X121602380Y-81613333D02*
X122316666Y-81613333D01*
X122459523Y-81660952D01*
X122554761Y-81756190D01*
X122602380Y-81899047D01*
X122602380Y-81994285D01*
X121602380Y-80660952D02*
X121602380Y-81137142D01*
X122078571Y-81184761D01*
X122030952Y-81137142D01*
X121983333Y-81041904D01*
X121983333Y-80803809D01*
X122030952Y-80708571D01*
X122078571Y-80660952D01*
X122173809Y-80613333D01*
X122411904Y-80613333D01*
X122507142Y-80660952D01*
X122554761Y-80708571D01*
X122602380Y-80803809D01*
X122602380Y-81041904D01*
X122554761Y-81137142D01*
X122507142Y-81184761D01*
X95742380Y-81613333D02*
X96456666Y-81613333D01*
X96599523Y-81660952D01*
X96694761Y-81756190D01*
X96742380Y-81899047D01*
X96742380Y-81994285D01*
X95742380Y-80708571D02*
X95742380Y-80899047D01*
X95790000Y-80994285D01*
X95837619Y-81041904D01*
X95980476Y-81137142D01*
X96170952Y-81184761D01*
X96551904Y-81184761D01*
X96647142Y-81137142D01*
X96694761Y-81089523D01*
X96742380Y-80994285D01*
X96742380Y-80803809D01*
X96694761Y-80708571D01*
X96647142Y-80660952D01*
X96551904Y-80613333D01*
X96313809Y-80613333D01*
X96218571Y-80660952D01*
X96170952Y-80708571D01*
X96123333Y-80803809D01*
X96123333Y-80994285D01*
X96170952Y-81089523D01*
X96218571Y-81137142D01*
X96313809Y-81184761D01*
X112268095Y-88352380D02*
X112268095Y-89161904D01*
X112315714Y-89257142D01*
X112363333Y-89304761D01*
X112458571Y-89352380D01*
X112649047Y-89352380D01*
X112744285Y-89304761D01*
X112791904Y-89257142D01*
X112839523Y-89161904D01*
X112839523Y-88352380D01*
X113839523Y-89352380D02*
X113268095Y-89352380D01*
X113553809Y-89352380D02*
X113553809Y-88352380D01*
X113458571Y-88495238D01*
X113363333Y-88590476D01*
X113268095Y-88638095D01*
X109700000Y-100519666D02*
X109700000Y-99819666D01*
X109933333Y-100319666D01*
X110166666Y-99819666D01*
X110166666Y-100519666D01*
X110500000Y-100519666D02*
X110500000Y-99819666D01*
X110900000Y-100519666D02*
X110600000Y-100119666D01*
X110900000Y-99819666D02*
X110500000Y-100219666D01*
X111500000Y-99819666D02*
X111366666Y-99819666D01*
X111300000Y-99853000D01*
X111266666Y-99886333D01*
X111200000Y-99986333D01*
X111166666Y-100119666D01*
X111166666Y-100386333D01*
X111200000Y-100453000D01*
X111233333Y-100486333D01*
X111300000Y-100519666D01*
X111433333Y-100519666D01*
X111500000Y-100486333D01*
X111533333Y-100453000D01*
X111566666Y-100386333D01*
X111566666Y-100219666D01*
X111533333Y-100153000D01*
X111500000Y-100119666D01*
X111433333Y-100086333D01*
X111300000Y-100086333D01*
X111233333Y-100119666D01*
X111200000Y-100153000D01*
X111166666Y-100219666D01*
X112166666Y-100053000D02*
X112166666Y-100519666D01*
X112000000Y-99786333D02*
X111833333Y-100286333D01*
X112266666Y-100286333D01*
X112766666Y-100153000D02*
X112533333Y-100153000D01*
X112533333Y-100519666D02*
X112533333Y-99819666D01*
X112866666Y-99819666D01*
X113066666Y-99819666D02*
X113533333Y-100519666D01*
X113533333Y-99819666D02*
X113066666Y-100519666D01*
X114133333Y-99819666D02*
X113800000Y-99819666D01*
X113766666Y-100153000D01*
X113800000Y-100119666D01*
X113866666Y-100086333D01*
X114033333Y-100086333D01*
X114100000Y-100119666D01*
X114133333Y-100153000D01*
X114166666Y-100219666D01*
X114166666Y-100386333D01*
X114133333Y-100453000D01*
X114100000Y-100486333D01*
X114033333Y-100519666D01*
X113866666Y-100519666D01*
X113800000Y-100486333D01*
X113766666Y-100453000D01*
X114833333Y-100519666D02*
X114433333Y-100519666D01*
X114633333Y-100519666D02*
X114633333Y-99819666D01*
X114566666Y-99919666D01*
X114500000Y-99986333D01*
X114433333Y-100019666D01*
X115100000Y-99886333D02*
X115133333Y-99853000D01*
X115200000Y-99819666D01*
X115366666Y-99819666D01*
X115433333Y-99853000D01*
X115466666Y-99886333D01*
X115500000Y-99953000D01*
X115500000Y-100019666D01*
X115466666Y-100119666D01*
X115066666Y-100519666D01*
X115500000Y-100519666D01*
X115700000Y-99819666D02*
X115933333Y-100519666D01*
X116166666Y-99819666D01*
X116400000Y-100519666D02*
X116400000Y-99819666D01*
X116633333Y-100319666D01*
X116866666Y-99819666D01*
X116866666Y-100519666D01*
X117200000Y-100519666D02*
X117200000Y-99819666D01*
X117366666Y-99819666D01*
X117466666Y-99853000D01*
X117533333Y-99919666D01*
X117566666Y-99986333D01*
X117600000Y-100119666D01*
X117600000Y-100219666D01*
X117566666Y-100353000D01*
X117533333Y-100419666D01*
X117466666Y-100486333D01*
X117366666Y-100519666D01*
X117200000Y-100519666D01*
X118266666Y-100519666D02*
X117866666Y-100519666D01*
X118066666Y-100519666D02*
X118066666Y-99819666D01*
X118000000Y-99919666D01*
X117933333Y-99986333D01*
X117866666Y-100019666D01*
X118533333Y-99886333D02*
X118566666Y-99853000D01*
X118633333Y-99819666D01*
X118800000Y-99819666D01*
X118866666Y-99853000D01*
X118900000Y-99886333D01*
X118933333Y-99953000D01*
X118933333Y-100019666D01*
X118900000Y-100119666D01*
X118500000Y-100519666D01*
X118933333Y-100519666D01*
X109250000Y-99376666D02*
X109250000Y-98676666D01*
X109483333Y-99176666D01*
X109716666Y-98676666D01*
X109716666Y-99376666D01*
X110050000Y-99376666D02*
X110050000Y-98676666D01*
X110450000Y-99376666D02*
X110150000Y-98976666D01*
X110450000Y-98676666D02*
X110050000Y-99076666D01*
X111050000Y-98676666D02*
X110916666Y-98676666D01*
X110850000Y-98710000D01*
X110816666Y-98743333D01*
X110750000Y-98843333D01*
X110716666Y-98976666D01*
X110716666Y-99243333D01*
X110750000Y-99310000D01*
X110783333Y-99343333D01*
X110850000Y-99376666D01*
X110983333Y-99376666D01*
X111050000Y-99343333D01*
X111083333Y-99310000D01*
X111116666Y-99243333D01*
X111116666Y-99076666D01*
X111083333Y-99010000D01*
X111050000Y-98976666D01*
X110983333Y-98943333D01*
X110850000Y-98943333D01*
X110783333Y-98976666D01*
X110750000Y-99010000D01*
X110716666Y-99076666D01*
X111716666Y-98676666D02*
X111583333Y-98676666D01*
X111516666Y-98710000D01*
X111483333Y-98743333D01*
X111416666Y-98843333D01*
X111383333Y-98976666D01*
X111383333Y-99243333D01*
X111416666Y-99310000D01*
X111450000Y-99343333D01*
X111516666Y-99376666D01*
X111650000Y-99376666D01*
X111716666Y-99343333D01*
X111750000Y-99310000D01*
X111783333Y-99243333D01*
X111783333Y-99076666D01*
X111750000Y-99010000D01*
X111716666Y-98976666D01*
X111650000Y-98943333D01*
X111516666Y-98943333D01*
X111450000Y-98976666D01*
X111416666Y-99010000D01*
X111383333Y-99076666D01*
X112316666Y-99010000D02*
X112083333Y-99010000D01*
X112083333Y-99376666D02*
X112083333Y-98676666D01*
X112416666Y-98676666D01*
X112616666Y-98676666D02*
X113083333Y-99376666D01*
X113083333Y-98676666D02*
X112616666Y-99376666D01*
X113716666Y-99376666D02*
X113316666Y-99376666D01*
X113516666Y-99376666D02*
X113516666Y-98676666D01*
X113450000Y-98776666D01*
X113383333Y-98843333D01*
X113316666Y-98876666D01*
X114016666Y-99376666D02*
X114016666Y-98676666D01*
X114250000Y-99176666D01*
X114483333Y-98676666D01*
X114483333Y-99376666D01*
X115050000Y-99010000D02*
X115150000Y-99043333D01*
X115183333Y-99076666D01*
X115216666Y-99143333D01*
X115216666Y-99243333D01*
X115183333Y-99310000D01*
X115150000Y-99343333D01*
X115083333Y-99376666D01*
X114816666Y-99376666D01*
X114816666Y-98676666D01*
X115050000Y-98676666D01*
X115116666Y-98710000D01*
X115150000Y-98743333D01*
X115183333Y-98810000D01*
X115183333Y-98876666D01*
X115150000Y-98943333D01*
X115116666Y-98976666D01*
X115050000Y-99010000D01*
X114816666Y-99010000D01*
X115416666Y-98676666D02*
X115650000Y-99376666D01*
X115883333Y-98676666D01*
X116116666Y-99376666D02*
X116116666Y-98676666D01*
X116350000Y-99176666D01*
X116583333Y-98676666D01*
X116583333Y-99376666D01*
X116916666Y-99376666D02*
X116916666Y-98676666D01*
X117083333Y-98676666D01*
X117183333Y-98710000D01*
X117250000Y-98776666D01*
X117283333Y-98843333D01*
X117316666Y-98976666D01*
X117316666Y-99076666D01*
X117283333Y-99210000D01*
X117250000Y-99276666D01*
X117183333Y-99343333D01*
X117083333Y-99376666D01*
X116916666Y-99376666D01*
X117983333Y-99376666D02*
X117583333Y-99376666D01*
X117783333Y-99376666D02*
X117783333Y-98676666D01*
X117716666Y-98776666D01*
X117650000Y-98843333D01*
X117583333Y-98876666D01*
X118383333Y-98976666D02*
X118316666Y-98943333D01*
X118283333Y-98910000D01*
X118250000Y-98843333D01*
X118250000Y-98810000D01*
X118283333Y-98743333D01*
X118316666Y-98710000D01*
X118383333Y-98676666D01*
X118516666Y-98676666D01*
X118583333Y-98710000D01*
X118616666Y-98743333D01*
X118650000Y-98810000D01*
X118650000Y-98843333D01*
X118616666Y-98910000D01*
X118583333Y-98943333D01*
X118516666Y-98976666D01*
X118383333Y-98976666D01*
X118316666Y-99010000D01*
X118283333Y-99043333D01*
X118250000Y-99110000D01*
X118250000Y-99243333D01*
X118283333Y-99310000D01*
X118316666Y-99343333D01*
X118383333Y-99376666D01*
X118516666Y-99376666D01*
X118583333Y-99343333D01*
X118616666Y-99310000D01*
X118650000Y-99243333D01*
X118650000Y-99110000D01*
X118616666Y-99043333D01*
X118583333Y-99010000D01*
X118516666Y-98976666D01*
X119450000Y-98643333D02*
X118850000Y-99543333D01*
D17*
X85037391Y-106157280D02*
X85037391Y-107292273D01*
X85104155Y-107425802D01*
X85170920Y-107492566D01*
X85304448Y-107559330D01*
X85571505Y-107559330D01*
X85705034Y-107492566D01*
X85771798Y-107425802D01*
X85838562Y-107292273D01*
X85838562Y-106157280D01*
X86372677Y-106157280D02*
X87240612Y-106157280D01*
X86773262Y-106691395D01*
X86973555Y-106691395D01*
X87107084Y-106758159D01*
X87173848Y-106824923D01*
X87240612Y-106958452D01*
X87240612Y-107292273D01*
X87173848Y-107425802D01*
X87107084Y-107492566D01*
X86973555Y-107559330D01*
X86572970Y-107559330D01*
X86439441Y-107492566D01*
X86372677Y-107425802D01*
X80029887Y-110232212D02*
X79362716Y-110232212D01*
X79362716Y-108831152D01*
X80496907Y-110232212D02*
X80496907Y-108831152D01*
X80963927Y-109831910D01*
X81430947Y-108831152D01*
X81430947Y-110232212D01*
X81964685Y-108831152D02*
X82898725Y-108831152D01*
X82298270Y-110232212D01*
X83632613Y-109431607D02*
X83499179Y-109364890D01*
X83432462Y-109298172D01*
X83365745Y-109164738D01*
X83365745Y-109098021D01*
X83432462Y-108964587D01*
X83499179Y-108897870D01*
X83632613Y-108831152D01*
X83899482Y-108831152D01*
X84032916Y-108897870D01*
X84099633Y-108964587D01*
X84166350Y-109098021D01*
X84166350Y-109164738D01*
X84099633Y-109298172D01*
X84032916Y-109364890D01*
X83899482Y-109431607D01*
X83632613Y-109431607D01*
X83499179Y-109498324D01*
X83432462Y-109565041D01*
X83365745Y-109698475D01*
X83365745Y-109965344D01*
X83432462Y-110098778D01*
X83499179Y-110165495D01*
X83632613Y-110232212D01*
X83899482Y-110232212D01*
X84032916Y-110165495D01*
X84099633Y-110098778D01*
X84166350Y-109965344D01*
X84166350Y-109698475D01*
X84099633Y-109565041D01*
X84032916Y-109498324D01*
X83899482Y-109431607D01*
X85033673Y-108831152D02*
X85167107Y-108831152D01*
X85300542Y-108897870D01*
X85367259Y-108964587D01*
X85433976Y-109098021D01*
X85500693Y-109364890D01*
X85500693Y-109698475D01*
X85433976Y-109965344D01*
X85367259Y-110098778D01*
X85300542Y-110165495D01*
X85167107Y-110232212D01*
X85033673Y-110232212D01*
X84900239Y-110165495D01*
X84833522Y-110098778D01*
X84766805Y-109965344D01*
X84700087Y-109698475D01*
X84700087Y-109364890D01*
X84766805Y-109098021D01*
X84833522Y-108964587D01*
X84900239Y-108897870D01*
X85033673Y-108831152D01*
X86768319Y-108831152D02*
X86101147Y-108831152D01*
X86034430Y-109498324D01*
X86101147Y-109431607D01*
X86234582Y-109364890D01*
X86568167Y-109364890D01*
X86701602Y-109431607D01*
X86768319Y-109498324D01*
X86835036Y-109631758D01*
X86835036Y-109965344D01*
X86768319Y-110098778D01*
X86701602Y-110165495D01*
X86568167Y-110232212D01*
X86234582Y-110232212D01*
X86101147Y-110165495D01*
X86034430Y-110098778D01*
X87101905Y-110365647D02*
X88169379Y-110365647D01*
X88302813Y-108831152D02*
X89103419Y-108831152D01*
X88703116Y-110232212D02*
X88703116Y-108831152D01*
X89837307Y-108831152D02*
X90104176Y-108831152D01*
X90237610Y-108897870D01*
X90371045Y-109031304D01*
X90437762Y-109298172D01*
X90437762Y-109765192D01*
X90371045Y-110032061D01*
X90237610Y-110165495D01*
X90104176Y-110232212D01*
X89837307Y-110232212D01*
X89703873Y-110165495D01*
X89570439Y-110032061D01*
X89503722Y-109765192D01*
X89503722Y-109298172D01*
X89570439Y-109031304D01*
X89703873Y-108897870D01*
X89837307Y-108831152D01*
X90971499Y-108964587D02*
X91038216Y-108897870D01*
X91171650Y-108831152D01*
X91505236Y-108831152D01*
X91638670Y-108897870D01*
X91705387Y-108964587D01*
X91772105Y-109098021D01*
X91772105Y-109231455D01*
X91705387Y-109431607D01*
X90904782Y-110232212D01*
X91772105Y-110232212D01*
X92305842Y-108964587D02*
X92372559Y-108897870D01*
X92505993Y-108831152D01*
X92839579Y-108831152D01*
X92973013Y-108897870D01*
X93039730Y-108964587D01*
X93106447Y-109098021D01*
X93106447Y-109231455D01*
X93039730Y-109431607D01*
X92239125Y-110232212D01*
X93106447Y-110232212D01*
X93973770Y-108831152D02*
X94107205Y-108831152D01*
X94240639Y-108897870D01*
X94307356Y-108964587D01*
X94374073Y-109098021D01*
X94440790Y-109364890D01*
X94440790Y-109698475D01*
X94374073Y-109965344D01*
X94307356Y-110098778D01*
X94240639Y-110165495D01*
X94107205Y-110232212D01*
X93973770Y-110232212D01*
X93840336Y-110165495D01*
X93773619Y-110098778D01*
X93706902Y-109965344D01*
X93640185Y-109698475D01*
X93640185Y-109364890D01*
X93706902Y-109098021D01*
X93773619Y-108964587D01*
X93840336Y-108897870D01*
X93973770Y-108831152D01*
X95197391Y-106157280D02*
X95197391Y-107292273D01*
X95264155Y-107425802D01*
X95330920Y-107492566D01*
X95464448Y-107559330D01*
X95731505Y-107559330D01*
X95865034Y-107492566D01*
X95931798Y-107425802D01*
X95998562Y-107292273D01*
X95998562Y-106157280D01*
X97267084Y-106624630D02*
X97267084Y-107559330D01*
X96933262Y-106090516D02*
X96599441Y-107091980D01*
X97467377Y-107091980D01*
X94793370Y-110232212D02*
X94126199Y-110232212D01*
X94126199Y-108831152D01*
X95126956Y-108831152D02*
X96060996Y-108831152D01*
X95460542Y-110232212D01*
X96794885Y-109431607D02*
X96661450Y-109364890D01*
X96594733Y-109298172D01*
X96528016Y-109164738D01*
X96528016Y-109098021D01*
X96594733Y-108964587D01*
X96661450Y-108897870D01*
X96794885Y-108831152D01*
X97061753Y-108831152D01*
X97195187Y-108897870D01*
X97261905Y-108964587D01*
X97328622Y-109098021D01*
X97328622Y-109164738D01*
X97261905Y-109298172D01*
X97195187Y-109364890D01*
X97061753Y-109431607D01*
X96794885Y-109431607D01*
X96661450Y-109498324D01*
X96594733Y-109565041D01*
X96528016Y-109698475D01*
X96528016Y-109965344D01*
X96594733Y-110098778D01*
X96661450Y-110165495D01*
X96794885Y-110232212D01*
X97061753Y-110232212D01*
X97195187Y-110165495D01*
X97261905Y-110098778D01*
X97328622Y-109965344D01*
X97328622Y-109698475D01*
X97261905Y-109565041D01*
X97195187Y-109498324D01*
X97061753Y-109431607D01*
X98195945Y-108831152D02*
X98329379Y-108831152D01*
X98462813Y-108897870D01*
X98529530Y-108964587D01*
X98596247Y-109098021D01*
X98662965Y-109364890D01*
X98662965Y-109698475D01*
X98596247Y-109965344D01*
X98529530Y-110098778D01*
X98462813Y-110165495D01*
X98329379Y-110232212D01*
X98195945Y-110232212D01*
X98062510Y-110165495D01*
X97995793Y-110098778D01*
X97929076Y-109965344D01*
X97862359Y-109698475D01*
X97862359Y-109364890D01*
X97929076Y-109098021D01*
X97995793Y-108964587D01*
X98062510Y-108897870D01*
X98195945Y-108831152D01*
X99330136Y-110232212D02*
X99597005Y-110232212D01*
X99730439Y-110165495D01*
X99797156Y-110098778D01*
X99930590Y-109898627D01*
X99997307Y-109631758D01*
X99997307Y-109098021D01*
X99930590Y-108964587D01*
X99863873Y-108897870D01*
X99730439Y-108831152D01*
X99463570Y-108831152D01*
X99330136Y-108897870D01*
X99263419Y-108964587D01*
X99196702Y-109098021D01*
X99196702Y-109431607D01*
X99263419Y-109565041D01*
X99330136Y-109631758D01*
X99463570Y-109698475D01*
X99730439Y-109698475D01*
X99863873Y-109631758D01*
X99930590Y-109565041D01*
X99997307Y-109431607D01*
M02*
