G04 #@! TF.GenerationSoftware,KiCad,Pcbnew,(5.1.2)-2*
G04 #@! TF.CreationDate,2019-10-06T07:22:37-10:00*
G04 #@! TF.ProjectId,differential_robot(v1),64696666-6572-4656-9e74-69616c5f726f,rev?*
G04 #@! TF.SameCoordinates,Original*
G04 #@! TF.FileFunction,Copper,L2,Bot*
G04 #@! TF.FilePolarity,Positive*
%FSLAX46Y46*%
G04 Gerber Fmt 4.6, Leading zero omitted, Abs format (unit mm)*
G04 Created by KiCad (PCBNEW (5.1.2)-2) date 2019-10-06 07:22:37*
%MOMM*%
%LPD*%
G04 APERTURE LIST*
%ADD10R,1.600000X1.600000*%
%ADD11O,2.500000X1.500000*%
%ADD12C,1.600000*%
%ADD13R,1.700000X1.700000*%
%ADD14R,2.000000X1.400000*%
%ADD15R,3.000000X3.000000*%
%ADD16C,3.000000*%
%ADD17O,1.700000X1.700000*%
%ADD18R,1.500000X2.500000*%
%ADD19R,1.300000X2.200000*%
%ADD20O,1.676400X3.352800*%
%ADD21C,2.000000*%
%ADD22C,1.000000*%
%ADD23C,0.700000*%
%ADD24C,0.500000*%
%ADD25C,0.254000*%
G04 APERTURE END LIST*
D10*
X132080000Y-114300000D03*
D11*
X139700000Y-132080000D03*
X132080000Y-116840000D03*
X139700000Y-129540000D03*
X132080000Y-119380000D03*
X139700000Y-127000000D03*
X132080000Y-121920000D03*
X139700000Y-124460000D03*
X132080000Y-124460000D03*
X139700000Y-121920000D03*
X132080000Y-127000000D03*
X139700000Y-119380000D03*
X132080000Y-129540000D03*
X139700000Y-116840000D03*
X132080000Y-132080000D03*
X139700000Y-114300000D03*
D10*
X82550000Y-127000000D03*
D12*
X85050000Y-127000000D03*
X90170000Y-127000000D03*
D10*
X87670000Y-127000000D03*
X94020000Y-127000000D03*
D12*
X96520000Y-127000000D03*
X99100000Y-127000000D03*
D10*
X101600000Y-127000000D03*
D13*
X125730000Y-115570000D03*
D14*
X125730000Y-118110000D03*
X125730000Y-120650000D03*
X125730000Y-123190000D03*
X125730000Y-125730000D03*
X125730000Y-128270000D03*
D15*
X82550000Y-78740000D03*
D16*
X87630000Y-78740000D03*
D11*
X147320000Y-128270000D03*
X147320000Y-125730000D03*
X147320000Y-123190000D03*
X147320000Y-120650000D03*
X147320000Y-118110000D03*
D13*
X147320000Y-115570000D03*
X106680000Y-114300000D03*
D17*
X106680000Y-116840000D03*
X106680000Y-119380000D03*
X106680000Y-121920000D03*
X106680000Y-124460000D03*
X106680000Y-127000000D03*
X106680000Y-129540000D03*
X106680000Y-132080000D03*
D13*
X119380000Y-81280000D03*
D17*
X116840000Y-81280000D03*
X114300000Y-81280000D03*
X111760000Y-81280000D03*
X106680000Y-81280000D03*
X104140000Y-81280000D03*
X101600000Y-81280000D03*
D13*
X99060000Y-81280000D03*
D12*
X100330000Y-103680000D03*
X97790000Y-103680000D03*
X95250000Y-103680000D03*
X92710000Y-103680000D03*
X90170000Y-103680000D03*
X96520000Y-93980000D03*
X93980000Y-93980000D03*
X91440000Y-93980000D03*
X86360000Y-93980000D03*
D18*
X83820000Y-91440000D03*
X86360000Y-91440000D03*
X88900000Y-91440000D03*
X91440000Y-91440000D03*
X93980000Y-91440000D03*
X96520000Y-91440000D03*
X99060000Y-91440000D03*
X101600000Y-91440000D03*
X104140000Y-91440000D03*
X106680000Y-91440000D03*
X109220000Y-91440000D03*
X111760000Y-91440000D03*
X114300000Y-91440000D03*
X116840000Y-91440000D03*
X119380000Y-91440000D03*
X121920000Y-91440000D03*
D10*
X83820000Y-106680000D03*
D18*
X86360000Y-106680000D03*
X88900000Y-106680000D03*
X91440000Y-106680000D03*
X93980000Y-106680000D03*
X96520000Y-106680000D03*
X99060000Y-106680000D03*
X101600000Y-106680000D03*
X104140000Y-106680000D03*
X106680000Y-106680000D03*
X109220000Y-106680000D03*
X111760000Y-106680000D03*
X114300000Y-106680000D03*
X124460000Y-91440000D03*
X127000000Y-91440000D03*
D12*
X129540000Y-91440000D03*
D18*
X132080000Y-91440000D03*
X134620000Y-91440000D03*
X137160000Y-91440000D03*
X139700000Y-91440000D03*
X142240000Y-91440000D03*
D12*
X129540000Y-93980000D03*
X129540000Y-96520000D03*
X129540000Y-99060000D03*
X129540000Y-101600000D03*
X129540000Y-104140000D03*
X142240000Y-106680000D03*
D18*
X139700000Y-106680000D03*
X137160000Y-106680000D03*
X134620000Y-106680000D03*
X116840000Y-106680000D03*
X119380000Y-106680000D03*
D19*
X121920000Y-106680000D03*
D18*
X132080000Y-106680000D03*
X129540000Y-106680000D03*
X127000000Y-106680000D03*
D19*
X124460000Y-106680000D03*
D20*
X83820000Y-119380000D03*
X86360000Y-119380000D03*
X88900000Y-119380000D03*
X99060000Y-119380000D03*
X96520000Y-119380000D03*
X93980000Y-119380000D03*
D21*
X83820000Y-116001800D03*
X83820000Y-110490000D03*
D22*
X80010000Y-119380000D02*
X83820000Y-119380000D01*
X77470000Y-116840000D02*
X80010000Y-119380000D01*
X77470000Y-81320000D02*
X77470000Y-116840000D01*
X82550000Y-78740000D02*
X80050000Y-78740000D01*
X80050000Y-78740000D02*
X77470000Y-81320000D01*
X80750000Y-127000000D02*
X82550000Y-127000000D01*
X80010000Y-126260000D02*
X80750000Y-127000000D01*
X80010000Y-121351800D02*
X80010000Y-126260000D01*
X81981800Y-119380000D02*
X80010000Y-121351800D01*
X83820000Y-119380000D02*
X81981800Y-119380000D01*
X82550000Y-128800000D02*
X85830000Y-132080000D01*
X82550000Y-127000000D02*
X82550000Y-128800000D01*
X94020000Y-128800000D02*
X94020000Y-127000000D01*
X90740000Y-132080000D02*
X94020000Y-128800000D01*
X85830000Y-132080000D02*
X90740000Y-132080000D01*
X93980000Y-126960000D02*
X94020000Y-127000000D01*
X93980000Y-119380000D02*
X93980000Y-126960000D01*
D23*
X125430000Y-123190000D02*
X125730000Y-123190000D01*
X124030000Y-124590000D02*
X125430000Y-123190000D01*
X124030000Y-126720002D02*
X124030000Y-124590000D01*
X124289999Y-126980001D02*
X124030000Y-126720002D01*
X127234937Y-126980001D02*
X124289999Y-126980001D01*
X132080000Y-122134938D02*
X127234937Y-126980001D01*
X132080000Y-121920000D02*
X132080000Y-122134938D01*
D24*
X124030000Y-129080002D02*
X124030000Y-126720002D01*
X125690008Y-130740010D02*
X124030000Y-129080002D01*
X147047060Y-130740010D02*
X125690008Y-130740010D01*
X149020010Y-128767060D02*
X147047060Y-130740010D01*
X147820000Y-123190000D02*
X149020010Y-124390010D01*
X147320000Y-123190000D02*
X147820000Y-123190000D01*
X139700000Y-121920000D02*
X139700000Y-124460000D01*
X148659990Y-126930010D02*
X149020010Y-126569990D01*
X142670010Y-126930010D02*
X148659990Y-126930010D01*
X140200000Y-124460000D02*
X142670010Y-126930010D01*
X139700000Y-124460000D02*
X140200000Y-124460000D01*
X149020010Y-124390010D02*
X149020010Y-126569990D01*
X149020010Y-126569990D02*
X149020010Y-128767060D01*
X132080000Y-121920000D02*
X132080000Y-124460000D01*
D23*
X83820000Y-108180000D02*
X83820000Y-106680000D01*
X84120001Y-108480001D02*
X83820000Y-108180000D01*
X103550003Y-108480001D02*
X84120001Y-108480001D01*
X108080001Y-113009999D02*
X103550003Y-108480001D01*
X108080001Y-115439999D02*
X108080001Y-113009999D01*
X106680000Y-116840000D02*
X108080001Y-115439999D01*
X96520000Y-119380000D02*
X96520000Y-127000000D01*
X90170000Y-127000000D02*
X90170000Y-128270000D01*
X85849999Y-127799999D02*
X85050000Y-127000000D01*
X86400001Y-128350001D02*
X85849999Y-127799999D01*
X90089999Y-128350001D02*
X86400001Y-128350001D01*
X90170000Y-128270000D02*
X90089999Y-128350001D01*
X96520000Y-124420000D02*
X99100000Y-127000000D01*
X96520000Y-119380000D02*
X96520000Y-124420000D01*
X86360000Y-125690000D02*
X85050000Y-127000000D01*
X86360000Y-119380000D02*
X86360000Y-125690000D01*
D22*
X90969999Y-126200001D02*
X90170000Y-127000000D01*
X90969999Y-117372864D02*
X90969999Y-126200001D01*
X93548200Y-115570000D02*
X92772863Y-115570000D01*
X96520000Y-118541800D02*
X93548200Y-115570000D01*
D23*
X102950001Y-132128941D02*
X102950001Y-118190001D01*
X105501070Y-134680010D02*
X102950001Y-132128941D01*
X125430000Y-123190000D02*
X113939989Y-134680011D01*
X113939989Y-134680011D02*
X105501070Y-134680010D01*
X102950001Y-118190001D02*
X100330000Y-115570000D01*
X96520000Y-118541800D02*
X96520000Y-119380000D01*
X99491800Y-115570000D02*
X96520000Y-118541800D01*
X100330000Y-115570000D02*
X99491800Y-115570000D01*
D22*
X92772863Y-115570000D02*
X90969999Y-117372864D01*
X86360000Y-118541800D02*
X83820000Y-116001800D01*
X86360000Y-119380000D02*
X86360000Y-118541800D01*
X83820000Y-116001800D02*
X83820000Y-116001800D01*
X83820000Y-106680000D02*
X83820000Y-110490000D01*
X83820000Y-110490000D02*
X83820000Y-110490000D01*
X88900000Y-119380000D02*
X88900000Y-123190000D01*
X87670000Y-124420000D02*
X87670000Y-127000000D01*
X88900000Y-123190000D02*
X87670000Y-124420000D01*
X81280000Y-91440000D02*
X83820000Y-91440000D01*
X88900000Y-116840000D02*
X85090000Y-113030000D01*
X88900000Y-119380000D02*
X88900000Y-116840000D01*
X85090000Y-113030000D02*
X82550000Y-113030000D01*
X82550000Y-113030000D02*
X80010000Y-110490000D01*
X80010000Y-110490000D02*
X80010000Y-92710000D01*
X80010000Y-92710000D02*
X81280000Y-91440000D01*
X146050000Y-120650000D02*
X147320000Y-120650000D01*
X139700000Y-114300000D02*
X146050000Y-120650000D01*
D23*
X111760000Y-81280000D02*
X114300000Y-81280000D01*
X114300000Y-81280000D02*
X116840000Y-81280000D01*
X116840000Y-81280000D02*
X119380000Y-81280000D01*
D22*
X149570000Y-120650000D02*
X147320000Y-120650000D01*
X151060010Y-119159990D02*
X149570000Y-120650000D01*
X151060010Y-97000008D02*
X151060010Y-119159990D01*
X135340002Y-81280000D02*
X151060010Y-97000008D01*
X119380000Y-81280000D02*
X135340002Y-81280000D01*
X104830000Y-114300000D02*
X106680000Y-114300000D01*
D24*
X112609999Y-82129999D02*
X111760000Y-81280000D01*
X112960001Y-93050001D02*
X112960001Y-82480001D01*
X93379999Y-95230001D02*
X110780001Y-95230001D01*
X92729999Y-94580001D02*
X93379999Y-95230001D01*
X110780001Y-95230001D02*
X112960001Y-93050001D01*
X92729999Y-89919997D02*
X92729999Y-94580001D01*
X112960001Y-82480001D02*
X112609999Y-82129999D01*
X92550001Y-89739999D02*
X92729999Y-89919997D01*
X85020001Y-89739999D02*
X92550001Y-89739999D01*
X83820000Y-90940000D02*
X85020001Y-89739999D01*
X83820000Y-91440000D02*
X83820000Y-90940000D01*
D22*
X104140000Y-131834002D02*
X104140000Y-114300000D01*
X105935999Y-133630001D02*
X104140000Y-131834002D01*
X110749999Y-133630001D02*
X105935999Y-133630001D01*
X123730000Y-120650000D02*
X110749999Y-133630001D01*
X125730000Y-120650000D02*
X123730000Y-120650000D01*
X104140000Y-114300000D02*
X104830000Y-114300000D01*
X88900000Y-116703600D02*
X91303600Y-114300000D01*
X88900000Y-119380000D02*
X88900000Y-116703600D01*
X91303600Y-114300000D02*
X104140000Y-114300000D01*
X99060000Y-120218200D02*
X101600000Y-122758200D01*
X99060000Y-119380000D02*
X99060000Y-120218200D01*
X101600000Y-122758200D02*
X101600000Y-127000000D01*
X101600000Y-128800000D02*
X101600000Y-127000000D01*
X101600000Y-132263878D02*
X101600000Y-128800000D01*
X105066141Y-135730019D02*
X101600000Y-132263878D01*
X126179981Y-135730019D02*
X105066141Y-135730019D01*
X129830000Y-132080000D02*
X126179981Y-135730019D01*
X132080000Y-132080000D02*
X129830000Y-132080000D01*
X125730000Y-115570000D02*
X118110000Y-115570000D01*
X111760000Y-109220000D02*
X111760000Y-106680000D01*
X118110000Y-115570000D02*
X111760000Y-109220000D01*
X125730000Y-118110000D02*
X127000000Y-118110000D01*
X127280001Y-114159999D02*
X126150002Y-113030000D01*
X127000000Y-118110000D02*
X127280001Y-117829999D01*
X127280001Y-117829999D02*
X127280001Y-114159999D01*
X126150002Y-113030000D02*
X118110000Y-113030000D01*
X114300000Y-109220000D02*
X114300000Y-106680000D01*
X118110000Y-113030000D02*
X114300000Y-109220000D01*
X132080000Y-119380000D02*
X128270000Y-123190000D01*
X126932081Y-125730000D02*
X125730000Y-125730000D01*
X127000000Y-125730000D02*
X126932081Y-125730000D01*
X128270000Y-124460000D02*
X127000000Y-125730000D01*
X128270000Y-123190000D02*
X128270000Y-124460000D01*
X132080000Y-127000000D02*
X129540000Y-127000000D01*
X128270000Y-128270000D02*
X125730000Y-128270000D01*
X129540000Y-127000000D02*
X128270000Y-128270000D01*
X145070000Y-125730000D02*
X143510000Y-124170000D01*
X147320000Y-125730000D02*
X145070000Y-125730000D01*
X140200000Y-119380000D02*
X139700000Y-119380000D01*
X143510000Y-122690000D02*
X140200000Y-119380000D01*
X143510000Y-124170000D02*
X143510000Y-122690000D01*
X140970000Y-128270000D02*
X139700000Y-127000000D01*
X147320000Y-128270000D02*
X140970000Y-128270000D01*
X147320000Y-118110000D02*
X149860000Y-118110000D01*
X149860000Y-118110000D02*
X149860000Y-114300000D01*
X149860000Y-114300000D02*
X147320000Y-111760000D01*
X144780000Y-111760000D02*
X139700000Y-106680000D01*
X147320000Y-111760000D02*
X144780000Y-111760000D01*
X137160000Y-107260000D02*
X137160000Y-106680000D01*
X145470000Y-115570000D02*
X137160000Y-107260000D01*
X147320000Y-115570000D02*
X145470000Y-115570000D01*
X104140000Y-107180000D02*
X104140000Y-106680000D01*
X106680000Y-119380000D02*
X107950000Y-119380000D01*
X109220000Y-118110000D02*
X109220000Y-112324140D01*
X109220000Y-112324140D02*
X106569989Y-109674129D01*
X106569989Y-109674129D02*
X106569989Y-109609989D01*
X107950000Y-119380000D02*
X109220000Y-118110000D01*
X106569989Y-109609989D02*
X104140000Y-107180000D01*
X106680000Y-107950000D02*
X106680000Y-106680000D01*
X106680000Y-121920000D02*
X109220000Y-121920000D01*
X109220000Y-121920000D02*
X110490000Y-120650000D01*
X110490000Y-120650000D02*
X110490000Y-111897070D01*
X110490000Y-111897070D02*
X107769999Y-109177069D01*
X107769999Y-109177069D02*
X107769999Y-109039999D01*
X107769999Y-109039999D02*
X106680000Y-107950000D01*
X107529999Y-131230001D02*
X106680000Y-132080000D01*
X111690009Y-127069991D02*
X107529999Y-131230001D01*
X111690009Y-111400009D02*
X111690009Y-127069991D01*
X109220000Y-108930000D02*
X111690009Y-111400009D01*
X109220000Y-106680000D02*
X109220000Y-108930000D01*
D23*
X130177746Y-114300000D02*
X126367746Y-110490000D01*
X132080000Y-114300000D02*
X130177746Y-114300000D01*
X123120001Y-105139999D02*
X114500002Y-96520000D01*
X123120001Y-108080003D02*
X123120001Y-105139999D01*
X126367746Y-110490000D02*
X125529998Y-110490000D01*
X125529998Y-110490000D02*
X123120001Y-108080003D01*
X91440000Y-91890002D02*
X91440000Y-91440000D01*
X90089999Y-93240003D02*
X91440000Y-91890002D01*
X90089999Y-94628001D02*
X90089999Y-93240003D01*
X91981998Y-96520000D02*
X90089999Y-94628001D01*
X114500002Y-96520000D02*
X91981998Y-96520000D01*
X76419990Y-131029990D02*
X76419990Y-78520010D01*
X82170029Y-136780029D02*
X76419990Y-131029990D01*
X133049971Y-136780029D02*
X82170029Y-136780029D01*
X139700000Y-132080000D02*
X137750000Y-132080000D01*
X137750000Y-132080000D02*
X133049971Y-136780029D01*
X76419990Y-78520010D02*
X80010000Y-74930000D01*
X80010000Y-74930000D02*
X91440000Y-74930000D01*
X93980000Y-77470000D02*
X93980000Y-91440000D01*
X91440000Y-74930000D02*
X93980000Y-77470000D01*
X121920000Y-107950000D02*
X121920000Y-106680000D01*
X121920000Y-111760000D02*
X121920000Y-107950000D01*
X126364940Y-111760000D02*
X121920000Y-111760000D01*
X132080000Y-116840000D02*
X131444940Y-116840000D01*
X131444940Y-116840000D02*
X126364940Y-111760000D01*
D22*
X139700000Y-116840000D02*
X139200000Y-116840000D01*
X129540000Y-107180000D02*
X129540000Y-106680000D01*
X134529979Y-110399979D02*
X131074119Y-110399979D01*
X137749990Y-113619990D02*
X134529979Y-110399979D01*
X137749990Y-114900613D02*
X137749990Y-113619990D01*
X139700000Y-116840000D02*
X139689377Y-116840000D01*
X139689377Y-116840000D02*
X137749990Y-114900613D01*
X131074119Y-110399979D02*
X129082070Y-108407930D01*
X129540000Y-107950000D02*
X129540000Y-106680000D01*
X129082070Y-108407930D02*
X129540000Y-107950000D01*
X139700000Y-129540000D02*
X139200000Y-129540000D01*
X137450000Y-129540000D02*
X135230020Y-127320020D01*
X139700000Y-129540000D02*
X137450000Y-129540000D01*
X135230020Y-127320020D02*
X135230019Y-112892947D01*
X135230019Y-112892947D02*
X133937061Y-111599989D01*
X133937061Y-111599989D02*
X130577059Y-111599989D01*
X127000000Y-108022930D02*
X127000000Y-106680000D01*
X130577059Y-111599989D02*
X127000000Y-108022930D01*
D23*
X132580000Y-129540000D02*
X132080000Y-129540000D01*
X134030000Y-128090000D02*
X132580000Y-129540000D01*
X134030000Y-113659998D02*
X134030000Y-128090000D01*
X133320001Y-112949999D02*
X134030000Y-113659998D01*
X130229999Y-112949999D02*
X133320001Y-112949999D01*
X124460000Y-107180000D02*
X130229999Y-112949999D01*
X124460000Y-106680000D02*
X124460000Y-107180000D01*
D25*
G36*
X155550000Y-140310000D02*
G01*
X73050000Y-140310000D01*
X73050000Y-78520010D01*
X75430225Y-78520010D01*
X75434991Y-78568400D01*
X75434990Y-130981610D01*
X75430225Y-131029990D01*
X75438032Y-131109253D01*
X75449243Y-131223083D01*
X75505566Y-131408756D01*
X75597030Y-131579874D01*
X75720120Y-131729860D01*
X75757706Y-131760706D01*
X81439313Y-137442313D01*
X81470159Y-137479899D01*
X81620145Y-137602989D01*
X81791262Y-137694453D01*
X81976935Y-137750776D01*
X82170028Y-137769794D01*
X82218408Y-137765029D01*
X133001591Y-137765029D01*
X133049971Y-137769794D01*
X133098351Y-137765029D01*
X133243065Y-137750776D01*
X133428738Y-137694453D01*
X133599855Y-137602989D01*
X133749841Y-137479899D01*
X133780687Y-137442313D01*
X138158001Y-133065000D01*
X138217039Y-133065000D01*
X138426812Y-133237157D01*
X138667419Y-133365764D01*
X138928493Y-133444960D01*
X139131963Y-133465000D01*
X140268037Y-133465000D01*
X140471507Y-133444960D01*
X140732581Y-133365764D01*
X140973188Y-133237157D01*
X141184081Y-133064081D01*
X141357157Y-132853188D01*
X141485764Y-132612581D01*
X141564960Y-132351507D01*
X141591701Y-132080000D01*
X141564960Y-131808493D01*
X141485764Y-131547419D01*
X141357157Y-131306812D01*
X141184081Y-131095919D01*
X140973188Y-130922843D01*
X140762073Y-130810000D01*
X140973188Y-130697157D01*
X141184081Y-130524081D01*
X141357157Y-130313188D01*
X141485764Y-130072581D01*
X141564960Y-129811507D01*
X141591701Y-129540000D01*
X141578405Y-129405000D01*
X146019814Y-129405000D01*
X146046812Y-129427157D01*
X146287419Y-129555764D01*
X146548493Y-129634960D01*
X146751963Y-129655000D01*
X147888037Y-129655000D01*
X148091507Y-129634960D01*
X148352581Y-129555764D01*
X148593188Y-129427157D01*
X148804081Y-129254081D01*
X148977157Y-129043188D01*
X149105764Y-128802581D01*
X149184960Y-128541507D01*
X149211701Y-128270000D01*
X149184960Y-127998493D01*
X149105764Y-127737419D01*
X148977157Y-127496812D01*
X148804081Y-127285919D01*
X148593188Y-127112843D01*
X148382073Y-127000000D01*
X148593188Y-126887157D01*
X148804081Y-126714081D01*
X148977157Y-126503188D01*
X149105764Y-126262581D01*
X149184960Y-126001507D01*
X149211701Y-125730000D01*
X149184960Y-125458493D01*
X149105764Y-125197419D01*
X148977157Y-124956812D01*
X148804081Y-124745919D01*
X148593188Y-124572843D01*
X148377422Y-124457514D01*
X148467349Y-124420972D01*
X148695061Y-124271028D01*
X148889145Y-124079540D01*
X149042142Y-123853868D01*
X149148173Y-123602684D01*
X149162318Y-123531185D01*
X149039656Y-123317000D01*
X147447000Y-123317000D01*
X147447000Y-123337000D01*
X147193000Y-123337000D01*
X147193000Y-123317000D01*
X145600344Y-123317000D01*
X145477682Y-123531185D01*
X145491827Y-123602684D01*
X145597858Y-123853868D01*
X145750855Y-124079540D01*
X145944939Y-124271028D01*
X146172651Y-124420972D01*
X146262578Y-124457514D01*
X146046812Y-124572843D01*
X146019814Y-124595000D01*
X145540132Y-124595000D01*
X144645000Y-123699869D01*
X144645000Y-122745752D01*
X144650491Y-122690000D01*
X144628577Y-122467501D01*
X144563676Y-122253553D01*
X144458284Y-122056377D01*
X144402227Y-121988072D01*
X144316449Y-121883551D01*
X144273141Y-121848009D01*
X141568383Y-119143252D01*
X141564960Y-119108493D01*
X141485764Y-118847419D01*
X141357157Y-118606812D01*
X141184081Y-118395919D01*
X140973188Y-118222843D01*
X140762073Y-118110000D01*
X140973188Y-117997157D01*
X141184081Y-117824081D01*
X141357157Y-117613188D01*
X141374887Y-117580018D01*
X145208009Y-121413141D01*
X145243551Y-121456449D01*
X145416377Y-121598284D01*
X145613553Y-121703676D01*
X145777705Y-121753471D01*
X145827500Y-121768577D01*
X146023300Y-121787861D01*
X146046812Y-121807157D01*
X146262578Y-121922486D01*
X146172651Y-121959028D01*
X145944939Y-122108972D01*
X145750855Y-122300460D01*
X145597858Y-122526132D01*
X145491827Y-122777316D01*
X145477682Y-122848815D01*
X145600344Y-123063000D01*
X147193000Y-123063000D01*
X147193000Y-123043000D01*
X147447000Y-123043000D01*
X147447000Y-123063000D01*
X149039656Y-123063000D01*
X149162318Y-122848815D01*
X149148173Y-122777316D01*
X149042142Y-122526132D01*
X148889145Y-122300460D01*
X148695061Y-122108972D01*
X148467349Y-121959028D01*
X148377422Y-121922486D01*
X148593188Y-121807157D01*
X148620186Y-121785000D01*
X149514249Y-121785000D01*
X149570000Y-121790491D01*
X149625751Y-121785000D01*
X149625752Y-121785000D01*
X149792499Y-121768577D01*
X150006447Y-121703676D01*
X150203623Y-121598284D01*
X150376449Y-121456449D01*
X150411996Y-121413135D01*
X151823150Y-120001982D01*
X151866459Y-119966439D01*
X152008294Y-119793613D01*
X152113686Y-119596437D01*
X152178587Y-119382489D01*
X152195010Y-119215742D01*
X152195010Y-119215733D01*
X152200500Y-119159991D01*
X152195010Y-119104249D01*
X152195010Y-97055760D01*
X152200501Y-97000008D01*
X152178587Y-96777509D01*
X152113686Y-96563561D01*
X152008294Y-96366385D01*
X151901999Y-96236864D01*
X151901997Y-96236862D01*
X151866459Y-96193559D01*
X151823156Y-96158021D01*
X136181998Y-80516865D01*
X136146451Y-80473551D01*
X135973625Y-80331716D01*
X135776449Y-80226324D01*
X135562501Y-80161423D01*
X135395754Y-80145000D01*
X135395753Y-80145000D01*
X135340002Y-80139509D01*
X135284251Y-80145000D01*
X120797683Y-80145000D01*
X120760537Y-80075506D01*
X120681185Y-79978815D01*
X120584494Y-79899463D01*
X120474180Y-79840498D01*
X120354482Y-79804188D01*
X120230000Y-79791928D01*
X118530000Y-79791928D01*
X118405518Y-79804188D01*
X118285820Y-79840498D01*
X118175506Y-79899463D01*
X118078815Y-79978815D01*
X117999463Y-80075506D01*
X117940498Y-80185820D01*
X117919607Y-80254687D01*
X117895134Y-80224866D01*
X117669014Y-80039294D01*
X117411034Y-79901401D01*
X117131111Y-79816487D01*
X116912950Y-79795000D01*
X116767050Y-79795000D01*
X116548889Y-79816487D01*
X116268966Y-79901401D01*
X116010986Y-80039294D01*
X115784866Y-80224866D01*
X115727308Y-80295000D01*
X115412692Y-80295000D01*
X115355134Y-80224866D01*
X115129014Y-80039294D01*
X114871034Y-79901401D01*
X114591111Y-79816487D01*
X114372950Y-79795000D01*
X114227050Y-79795000D01*
X114008889Y-79816487D01*
X113728966Y-79901401D01*
X113470986Y-80039294D01*
X113244866Y-80224866D01*
X113187308Y-80295000D01*
X112872692Y-80295000D01*
X112815134Y-80224866D01*
X112589014Y-80039294D01*
X112331034Y-79901401D01*
X112051111Y-79816487D01*
X111832950Y-79795000D01*
X111687050Y-79795000D01*
X111468889Y-79816487D01*
X111188966Y-79901401D01*
X110930986Y-80039294D01*
X110704866Y-80224866D01*
X110519294Y-80450986D01*
X110381401Y-80708966D01*
X110296487Y-80988889D01*
X110267815Y-81280000D01*
X110296487Y-81571111D01*
X110381401Y-81851034D01*
X110519294Y-82109014D01*
X110704866Y-82335134D01*
X110930986Y-82520706D01*
X111188966Y-82658599D01*
X111468889Y-82743513D01*
X111687050Y-82765000D01*
X111832950Y-82765000D01*
X111979033Y-82750612D01*
X112014952Y-82786531D01*
X112014958Y-82786536D01*
X112075002Y-82846580D01*
X112075001Y-89551928D01*
X111010000Y-89551928D01*
X110885518Y-89564188D01*
X110765820Y-89600498D01*
X110655506Y-89659463D01*
X110558815Y-89738815D01*
X110490000Y-89822667D01*
X110421185Y-89738815D01*
X110324494Y-89659463D01*
X110214180Y-89600498D01*
X110094482Y-89564188D01*
X109970000Y-89551928D01*
X108470000Y-89551928D01*
X108345518Y-89564188D01*
X108225820Y-89600498D01*
X108115506Y-89659463D01*
X108018815Y-89738815D01*
X107950000Y-89822667D01*
X107881185Y-89738815D01*
X107784494Y-89659463D01*
X107674180Y-89600498D01*
X107554482Y-89564188D01*
X107430000Y-89551928D01*
X105930000Y-89551928D01*
X105805518Y-89564188D01*
X105685820Y-89600498D01*
X105575506Y-89659463D01*
X105478815Y-89738815D01*
X105410000Y-89822667D01*
X105341185Y-89738815D01*
X105244494Y-89659463D01*
X105134180Y-89600498D01*
X105014482Y-89564188D01*
X104890000Y-89551928D01*
X103390000Y-89551928D01*
X103265518Y-89564188D01*
X103145820Y-89600498D01*
X103035506Y-89659463D01*
X102938815Y-89738815D01*
X102870000Y-89822667D01*
X102801185Y-89738815D01*
X102704494Y-89659463D01*
X102594180Y-89600498D01*
X102474482Y-89564188D01*
X102350000Y-89551928D01*
X100850000Y-89551928D01*
X100725518Y-89564188D01*
X100605820Y-89600498D01*
X100495506Y-89659463D01*
X100398815Y-89738815D01*
X100330000Y-89822667D01*
X100261185Y-89738815D01*
X100164494Y-89659463D01*
X100054180Y-89600498D01*
X99934482Y-89564188D01*
X99810000Y-89551928D01*
X98310000Y-89551928D01*
X98185518Y-89564188D01*
X98065820Y-89600498D01*
X97955506Y-89659463D01*
X97858815Y-89738815D01*
X97790000Y-89822667D01*
X97721185Y-89738815D01*
X97624494Y-89659463D01*
X97514180Y-89600498D01*
X97394482Y-89564188D01*
X97270000Y-89551928D01*
X95770000Y-89551928D01*
X95645518Y-89564188D01*
X95525820Y-89600498D01*
X95415506Y-89659463D01*
X95318815Y-89738815D01*
X95250000Y-89822667D01*
X95181185Y-89738815D01*
X95084494Y-89659463D01*
X94974180Y-89600498D01*
X94965000Y-89597713D01*
X94965000Y-82130000D01*
X97571928Y-82130000D01*
X97584188Y-82254482D01*
X97620498Y-82374180D01*
X97679463Y-82484494D01*
X97758815Y-82581185D01*
X97855506Y-82660537D01*
X97965820Y-82719502D01*
X98085518Y-82755812D01*
X98210000Y-82768072D01*
X98774250Y-82765000D01*
X98933000Y-82606250D01*
X98933000Y-81407000D01*
X99187000Y-81407000D01*
X99187000Y-82606250D01*
X99345750Y-82765000D01*
X99910000Y-82768072D01*
X100034482Y-82755812D01*
X100154180Y-82719502D01*
X100264494Y-82660537D01*
X100361185Y-82581185D01*
X100440537Y-82484494D01*
X100499502Y-82374180D01*
X100523966Y-82293534D01*
X100599731Y-82377588D01*
X100833080Y-82551641D01*
X101095901Y-82676825D01*
X101243110Y-82721476D01*
X101473000Y-82600155D01*
X101473000Y-81407000D01*
X101727000Y-81407000D01*
X101727000Y-82600155D01*
X101956890Y-82721476D01*
X102104099Y-82676825D01*
X102366920Y-82551641D01*
X102600269Y-82377588D01*
X102795178Y-82161355D01*
X102870000Y-82035745D01*
X102944822Y-82161355D01*
X103139731Y-82377588D01*
X103373080Y-82551641D01*
X103635901Y-82676825D01*
X103783110Y-82721476D01*
X104013000Y-82600155D01*
X104013000Y-81407000D01*
X104267000Y-81407000D01*
X104267000Y-82600155D01*
X104496890Y-82721476D01*
X104644099Y-82676825D01*
X104906920Y-82551641D01*
X105140269Y-82377588D01*
X105335178Y-82161355D01*
X105410000Y-82035745D01*
X105484822Y-82161355D01*
X105679731Y-82377588D01*
X105913080Y-82551641D01*
X106175901Y-82676825D01*
X106323110Y-82721476D01*
X106553000Y-82600155D01*
X106553000Y-81407000D01*
X106807000Y-81407000D01*
X106807000Y-82600155D01*
X107036890Y-82721476D01*
X107184099Y-82676825D01*
X107446920Y-82551641D01*
X107680269Y-82377588D01*
X107875178Y-82161355D01*
X108024157Y-81911252D01*
X108121481Y-81636891D01*
X108000814Y-81407000D01*
X106807000Y-81407000D01*
X106553000Y-81407000D01*
X104267000Y-81407000D01*
X104013000Y-81407000D01*
X101727000Y-81407000D01*
X101473000Y-81407000D01*
X99187000Y-81407000D01*
X98933000Y-81407000D01*
X97733750Y-81407000D01*
X97575000Y-81565750D01*
X97571928Y-82130000D01*
X94965000Y-82130000D01*
X94965000Y-80430000D01*
X97571928Y-80430000D01*
X97575000Y-80994250D01*
X97733750Y-81153000D01*
X98933000Y-81153000D01*
X98933000Y-79953750D01*
X99187000Y-79953750D01*
X99187000Y-81153000D01*
X101473000Y-81153000D01*
X101473000Y-79959845D01*
X101727000Y-79959845D01*
X101727000Y-81153000D01*
X104013000Y-81153000D01*
X104013000Y-79959845D01*
X104267000Y-79959845D01*
X104267000Y-81153000D01*
X106553000Y-81153000D01*
X106553000Y-79959845D01*
X106807000Y-79959845D01*
X106807000Y-81153000D01*
X108000814Y-81153000D01*
X108121481Y-80923109D01*
X108024157Y-80648748D01*
X107875178Y-80398645D01*
X107680269Y-80182412D01*
X107446920Y-80008359D01*
X107184099Y-79883175D01*
X107036890Y-79838524D01*
X106807000Y-79959845D01*
X106553000Y-79959845D01*
X106323110Y-79838524D01*
X106175901Y-79883175D01*
X105913080Y-80008359D01*
X105679731Y-80182412D01*
X105484822Y-80398645D01*
X105410000Y-80524255D01*
X105335178Y-80398645D01*
X105140269Y-80182412D01*
X104906920Y-80008359D01*
X104644099Y-79883175D01*
X104496890Y-79838524D01*
X104267000Y-79959845D01*
X104013000Y-79959845D01*
X103783110Y-79838524D01*
X103635901Y-79883175D01*
X103373080Y-80008359D01*
X103139731Y-80182412D01*
X102944822Y-80398645D01*
X102870000Y-80524255D01*
X102795178Y-80398645D01*
X102600269Y-80182412D01*
X102366920Y-80008359D01*
X102104099Y-79883175D01*
X101956890Y-79838524D01*
X101727000Y-79959845D01*
X101473000Y-79959845D01*
X101243110Y-79838524D01*
X101095901Y-79883175D01*
X100833080Y-80008359D01*
X100599731Y-80182412D01*
X100523966Y-80266466D01*
X100499502Y-80185820D01*
X100440537Y-80075506D01*
X100361185Y-79978815D01*
X100264494Y-79899463D01*
X100154180Y-79840498D01*
X100034482Y-79804188D01*
X99910000Y-79791928D01*
X99345750Y-79795000D01*
X99187000Y-79953750D01*
X98933000Y-79953750D01*
X98774250Y-79795000D01*
X98210000Y-79791928D01*
X98085518Y-79804188D01*
X97965820Y-79840498D01*
X97855506Y-79899463D01*
X97758815Y-79978815D01*
X97679463Y-80075506D01*
X97620498Y-80185820D01*
X97584188Y-80305518D01*
X97571928Y-80430000D01*
X94965000Y-80430000D01*
X94965000Y-77518377D01*
X94969765Y-77469999D01*
X94965000Y-77421620D01*
X94950747Y-77276906D01*
X94894424Y-77091233D01*
X94802960Y-76920116D01*
X94679870Y-76770130D01*
X94642284Y-76739284D01*
X92170716Y-74267716D01*
X92139870Y-74230130D01*
X91989884Y-74107040D01*
X91818767Y-74015576D01*
X91633094Y-73959253D01*
X91488380Y-73945000D01*
X91440000Y-73940235D01*
X91391620Y-73945000D01*
X80058380Y-73945000D01*
X80010000Y-73940235D01*
X79961620Y-73945000D01*
X79816906Y-73959253D01*
X79631233Y-74015576D01*
X79460116Y-74107040D01*
X79310130Y-74230130D01*
X79279289Y-74267710D01*
X75757701Y-77789299D01*
X75720121Y-77820140D01*
X75597031Y-77970126D01*
X75548142Y-78061591D01*
X75505566Y-78141244D01*
X75449243Y-78326917D01*
X75430225Y-78520010D01*
X73050000Y-78520010D01*
X73050000Y-71780000D01*
X155550001Y-71780000D01*
X155550000Y-140310000D01*
X155550000Y-140310000D01*
G37*
X155550000Y-140310000D02*
X73050000Y-140310000D01*
X73050000Y-78520010D01*
X75430225Y-78520010D01*
X75434991Y-78568400D01*
X75434990Y-130981610D01*
X75430225Y-131029990D01*
X75438032Y-131109253D01*
X75449243Y-131223083D01*
X75505566Y-131408756D01*
X75597030Y-131579874D01*
X75720120Y-131729860D01*
X75757706Y-131760706D01*
X81439313Y-137442313D01*
X81470159Y-137479899D01*
X81620145Y-137602989D01*
X81791262Y-137694453D01*
X81976935Y-137750776D01*
X82170028Y-137769794D01*
X82218408Y-137765029D01*
X133001591Y-137765029D01*
X133049971Y-137769794D01*
X133098351Y-137765029D01*
X133243065Y-137750776D01*
X133428738Y-137694453D01*
X133599855Y-137602989D01*
X133749841Y-137479899D01*
X133780687Y-137442313D01*
X138158001Y-133065000D01*
X138217039Y-133065000D01*
X138426812Y-133237157D01*
X138667419Y-133365764D01*
X138928493Y-133444960D01*
X139131963Y-133465000D01*
X140268037Y-133465000D01*
X140471507Y-133444960D01*
X140732581Y-133365764D01*
X140973188Y-133237157D01*
X141184081Y-133064081D01*
X141357157Y-132853188D01*
X141485764Y-132612581D01*
X141564960Y-132351507D01*
X141591701Y-132080000D01*
X141564960Y-131808493D01*
X141485764Y-131547419D01*
X141357157Y-131306812D01*
X141184081Y-131095919D01*
X140973188Y-130922843D01*
X140762073Y-130810000D01*
X140973188Y-130697157D01*
X141184081Y-130524081D01*
X141357157Y-130313188D01*
X141485764Y-130072581D01*
X141564960Y-129811507D01*
X141591701Y-129540000D01*
X141578405Y-129405000D01*
X146019814Y-129405000D01*
X146046812Y-129427157D01*
X146287419Y-129555764D01*
X146548493Y-129634960D01*
X146751963Y-129655000D01*
X147888037Y-129655000D01*
X148091507Y-129634960D01*
X148352581Y-129555764D01*
X148593188Y-129427157D01*
X148804081Y-129254081D01*
X148977157Y-129043188D01*
X149105764Y-128802581D01*
X149184960Y-128541507D01*
X149211701Y-128270000D01*
X149184960Y-127998493D01*
X149105764Y-127737419D01*
X148977157Y-127496812D01*
X148804081Y-127285919D01*
X148593188Y-127112843D01*
X148382073Y-127000000D01*
X148593188Y-126887157D01*
X148804081Y-126714081D01*
X148977157Y-126503188D01*
X149105764Y-126262581D01*
X149184960Y-126001507D01*
X149211701Y-125730000D01*
X149184960Y-125458493D01*
X149105764Y-125197419D01*
X148977157Y-124956812D01*
X148804081Y-124745919D01*
X148593188Y-124572843D01*
X148377422Y-124457514D01*
X148467349Y-124420972D01*
X148695061Y-124271028D01*
X148889145Y-124079540D01*
X149042142Y-123853868D01*
X149148173Y-123602684D01*
X149162318Y-123531185D01*
X149039656Y-123317000D01*
X147447000Y-123317000D01*
X147447000Y-123337000D01*
X147193000Y-123337000D01*
X147193000Y-123317000D01*
X145600344Y-123317000D01*
X145477682Y-123531185D01*
X145491827Y-123602684D01*
X145597858Y-123853868D01*
X145750855Y-124079540D01*
X145944939Y-124271028D01*
X146172651Y-124420972D01*
X146262578Y-124457514D01*
X146046812Y-124572843D01*
X146019814Y-124595000D01*
X145540132Y-124595000D01*
X144645000Y-123699869D01*
X144645000Y-122745752D01*
X144650491Y-122690000D01*
X144628577Y-122467501D01*
X144563676Y-122253553D01*
X144458284Y-122056377D01*
X144402227Y-121988072D01*
X144316449Y-121883551D01*
X144273141Y-121848009D01*
X141568383Y-119143252D01*
X141564960Y-119108493D01*
X141485764Y-118847419D01*
X141357157Y-118606812D01*
X141184081Y-118395919D01*
X140973188Y-118222843D01*
X140762073Y-118110000D01*
X140973188Y-117997157D01*
X141184081Y-117824081D01*
X141357157Y-117613188D01*
X141374887Y-117580018D01*
X145208009Y-121413141D01*
X145243551Y-121456449D01*
X145416377Y-121598284D01*
X145613553Y-121703676D01*
X145777705Y-121753471D01*
X145827500Y-121768577D01*
X146023300Y-121787861D01*
X146046812Y-121807157D01*
X146262578Y-121922486D01*
X146172651Y-121959028D01*
X145944939Y-122108972D01*
X145750855Y-122300460D01*
X145597858Y-122526132D01*
X145491827Y-122777316D01*
X145477682Y-122848815D01*
X145600344Y-123063000D01*
X147193000Y-123063000D01*
X147193000Y-123043000D01*
X147447000Y-123043000D01*
X147447000Y-123063000D01*
X149039656Y-123063000D01*
X149162318Y-122848815D01*
X149148173Y-122777316D01*
X149042142Y-122526132D01*
X148889145Y-122300460D01*
X148695061Y-122108972D01*
X148467349Y-121959028D01*
X148377422Y-121922486D01*
X148593188Y-121807157D01*
X148620186Y-121785000D01*
X149514249Y-121785000D01*
X149570000Y-121790491D01*
X149625751Y-121785000D01*
X149625752Y-121785000D01*
X149792499Y-121768577D01*
X150006447Y-121703676D01*
X150203623Y-121598284D01*
X150376449Y-121456449D01*
X150411996Y-121413135D01*
X151823150Y-120001982D01*
X151866459Y-119966439D01*
X152008294Y-119793613D01*
X152113686Y-119596437D01*
X152178587Y-119382489D01*
X152195010Y-119215742D01*
X152195010Y-119215733D01*
X152200500Y-119159991D01*
X152195010Y-119104249D01*
X152195010Y-97055760D01*
X152200501Y-97000008D01*
X152178587Y-96777509D01*
X152113686Y-96563561D01*
X152008294Y-96366385D01*
X151901999Y-96236864D01*
X151901997Y-96236862D01*
X151866459Y-96193559D01*
X151823156Y-96158021D01*
X136181998Y-80516865D01*
X136146451Y-80473551D01*
X135973625Y-80331716D01*
X135776449Y-80226324D01*
X135562501Y-80161423D01*
X135395754Y-80145000D01*
X135395753Y-80145000D01*
X135340002Y-80139509D01*
X135284251Y-80145000D01*
X120797683Y-80145000D01*
X120760537Y-80075506D01*
X120681185Y-79978815D01*
X120584494Y-79899463D01*
X120474180Y-79840498D01*
X120354482Y-79804188D01*
X120230000Y-79791928D01*
X118530000Y-79791928D01*
X118405518Y-79804188D01*
X118285820Y-79840498D01*
X118175506Y-79899463D01*
X118078815Y-79978815D01*
X117999463Y-80075506D01*
X117940498Y-80185820D01*
X117919607Y-80254687D01*
X117895134Y-80224866D01*
X117669014Y-80039294D01*
X117411034Y-79901401D01*
X117131111Y-79816487D01*
X116912950Y-79795000D01*
X116767050Y-79795000D01*
X116548889Y-79816487D01*
X116268966Y-79901401D01*
X116010986Y-80039294D01*
X115784866Y-80224866D01*
X115727308Y-80295000D01*
X115412692Y-80295000D01*
X115355134Y-80224866D01*
X115129014Y-80039294D01*
X114871034Y-79901401D01*
X114591111Y-79816487D01*
X114372950Y-79795000D01*
X114227050Y-79795000D01*
X114008889Y-79816487D01*
X113728966Y-79901401D01*
X113470986Y-80039294D01*
X113244866Y-80224866D01*
X113187308Y-80295000D01*
X112872692Y-80295000D01*
X112815134Y-80224866D01*
X112589014Y-80039294D01*
X112331034Y-79901401D01*
X112051111Y-79816487D01*
X111832950Y-79795000D01*
X111687050Y-79795000D01*
X111468889Y-79816487D01*
X111188966Y-79901401D01*
X110930986Y-80039294D01*
X110704866Y-80224866D01*
X110519294Y-80450986D01*
X110381401Y-80708966D01*
X110296487Y-80988889D01*
X110267815Y-81280000D01*
X110296487Y-81571111D01*
X110381401Y-81851034D01*
X110519294Y-82109014D01*
X110704866Y-82335134D01*
X110930986Y-82520706D01*
X111188966Y-82658599D01*
X111468889Y-82743513D01*
X111687050Y-82765000D01*
X111832950Y-82765000D01*
X111979033Y-82750612D01*
X112014952Y-82786531D01*
X112014958Y-82786536D01*
X112075002Y-82846580D01*
X112075001Y-89551928D01*
X111010000Y-89551928D01*
X110885518Y-89564188D01*
X110765820Y-89600498D01*
X110655506Y-89659463D01*
X110558815Y-89738815D01*
X110490000Y-89822667D01*
X110421185Y-89738815D01*
X110324494Y-89659463D01*
X110214180Y-89600498D01*
X110094482Y-89564188D01*
X109970000Y-89551928D01*
X108470000Y-89551928D01*
X108345518Y-89564188D01*
X108225820Y-89600498D01*
X108115506Y-89659463D01*
X108018815Y-89738815D01*
X107950000Y-89822667D01*
X107881185Y-89738815D01*
X107784494Y-89659463D01*
X107674180Y-89600498D01*
X107554482Y-89564188D01*
X107430000Y-89551928D01*
X105930000Y-89551928D01*
X105805518Y-89564188D01*
X105685820Y-89600498D01*
X105575506Y-89659463D01*
X105478815Y-89738815D01*
X105410000Y-89822667D01*
X105341185Y-89738815D01*
X105244494Y-89659463D01*
X105134180Y-89600498D01*
X105014482Y-89564188D01*
X104890000Y-89551928D01*
X103390000Y-89551928D01*
X103265518Y-89564188D01*
X103145820Y-89600498D01*
X103035506Y-89659463D01*
X102938815Y-89738815D01*
X102870000Y-89822667D01*
X102801185Y-89738815D01*
X102704494Y-89659463D01*
X102594180Y-89600498D01*
X102474482Y-89564188D01*
X102350000Y-89551928D01*
X100850000Y-89551928D01*
X100725518Y-89564188D01*
X100605820Y-89600498D01*
X100495506Y-89659463D01*
X100398815Y-89738815D01*
X100330000Y-89822667D01*
X100261185Y-89738815D01*
X100164494Y-89659463D01*
X100054180Y-89600498D01*
X99934482Y-89564188D01*
X99810000Y-89551928D01*
X98310000Y-89551928D01*
X98185518Y-89564188D01*
X98065820Y-89600498D01*
X97955506Y-89659463D01*
X97858815Y-89738815D01*
X97790000Y-89822667D01*
X97721185Y-89738815D01*
X97624494Y-89659463D01*
X97514180Y-89600498D01*
X97394482Y-89564188D01*
X97270000Y-89551928D01*
X95770000Y-89551928D01*
X95645518Y-89564188D01*
X95525820Y-89600498D01*
X95415506Y-89659463D01*
X95318815Y-89738815D01*
X95250000Y-89822667D01*
X95181185Y-89738815D01*
X95084494Y-89659463D01*
X94974180Y-89600498D01*
X94965000Y-89597713D01*
X94965000Y-82130000D01*
X97571928Y-82130000D01*
X97584188Y-82254482D01*
X97620498Y-82374180D01*
X97679463Y-82484494D01*
X97758815Y-82581185D01*
X97855506Y-82660537D01*
X97965820Y-82719502D01*
X98085518Y-82755812D01*
X98210000Y-82768072D01*
X98774250Y-82765000D01*
X98933000Y-82606250D01*
X98933000Y-81407000D01*
X99187000Y-81407000D01*
X99187000Y-82606250D01*
X99345750Y-82765000D01*
X99910000Y-82768072D01*
X100034482Y-82755812D01*
X100154180Y-82719502D01*
X100264494Y-82660537D01*
X100361185Y-82581185D01*
X100440537Y-82484494D01*
X100499502Y-82374180D01*
X100523966Y-82293534D01*
X100599731Y-82377588D01*
X100833080Y-82551641D01*
X101095901Y-82676825D01*
X101243110Y-82721476D01*
X101473000Y-82600155D01*
X101473000Y-81407000D01*
X101727000Y-81407000D01*
X101727000Y-82600155D01*
X101956890Y-82721476D01*
X102104099Y-82676825D01*
X102366920Y-82551641D01*
X102600269Y-82377588D01*
X102795178Y-82161355D01*
X102870000Y-82035745D01*
X102944822Y-82161355D01*
X103139731Y-82377588D01*
X103373080Y-82551641D01*
X103635901Y-82676825D01*
X103783110Y-82721476D01*
X104013000Y-82600155D01*
X104013000Y-81407000D01*
X104267000Y-81407000D01*
X104267000Y-82600155D01*
X104496890Y-82721476D01*
X104644099Y-82676825D01*
X104906920Y-82551641D01*
X105140269Y-82377588D01*
X105335178Y-82161355D01*
X105410000Y-82035745D01*
X105484822Y-82161355D01*
X105679731Y-82377588D01*
X105913080Y-82551641D01*
X106175901Y-82676825D01*
X106323110Y-82721476D01*
X106553000Y-82600155D01*
X106553000Y-81407000D01*
X106807000Y-81407000D01*
X106807000Y-82600155D01*
X107036890Y-82721476D01*
X107184099Y-82676825D01*
X107446920Y-82551641D01*
X107680269Y-82377588D01*
X107875178Y-82161355D01*
X108024157Y-81911252D01*
X108121481Y-81636891D01*
X108000814Y-81407000D01*
X106807000Y-81407000D01*
X106553000Y-81407000D01*
X104267000Y-81407000D01*
X104013000Y-81407000D01*
X101727000Y-81407000D01*
X101473000Y-81407000D01*
X99187000Y-81407000D01*
X98933000Y-81407000D01*
X97733750Y-81407000D01*
X97575000Y-81565750D01*
X97571928Y-82130000D01*
X94965000Y-82130000D01*
X94965000Y-80430000D01*
X97571928Y-80430000D01*
X97575000Y-80994250D01*
X97733750Y-81153000D01*
X98933000Y-81153000D01*
X98933000Y-79953750D01*
X99187000Y-79953750D01*
X99187000Y-81153000D01*
X101473000Y-81153000D01*
X101473000Y-79959845D01*
X101727000Y-79959845D01*
X101727000Y-81153000D01*
X104013000Y-81153000D01*
X104013000Y-79959845D01*
X104267000Y-79959845D01*
X104267000Y-81153000D01*
X106553000Y-81153000D01*
X106553000Y-79959845D01*
X106807000Y-79959845D01*
X106807000Y-81153000D01*
X108000814Y-81153000D01*
X108121481Y-80923109D01*
X108024157Y-80648748D01*
X107875178Y-80398645D01*
X107680269Y-80182412D01*
X107446920Y-80008359D01*
X107184099Y-79883175D01*
X107036890Y-79838524D01*
X106807000Y-79959845D01*
X106553000Y-79959845D01*
X106323110Y-79838524D01*
X106175901Y-79883175D01*
X105913080Y-80008359D01*
X105679731Y-80182412D01*
X105484822Y-80398645D01*
X105410000Y-80524255D01*
X105335178Y-80398645D01*
X105140269Y-80182412D01*
X104906920Y-80008359D01*
X104644099Y-79883175D01*
X104496890Y-79838524D01*
X104267000Y-79959845D01*
X104013000Y-79959845D01*
X103783110Y-79838524D01*
X103635901Y-79883175D01*
X103373080Y-80008359D01*
X103139731Y-80182412D01*
X102944822Y-80398645D01*
X102870000Y-80524255D01*
X102795178Y-80398645D01*
X102600269Y-80182412D01*
X102366920Y-80008359D01*
X102104099Y-79883175D01*
X101956890Y-79838524D01*
X101727000Y-79959845D01*
X101473000Y-79959845D01*
X101243110Y-79838524D01*
X101095901Y-79883175D01*
X100833080Y-80008359D01*
X100599731Y-80182412D01*
X100523966Y-80266466D01*
X100499502Y-80185820D01*
X100440537Y-80075506D01*
X100361185Y-79978815D01*
X100264494Y-79899463D01*
X100154180Y-79840498D01*
X100034482Y-79804188D01*
X99910000Y-79791928D01*
X99345750Y-79795000D01*
X99187000Y-79953750D01*
X98933000Y-79953750D01*
X98774250Y-79795000D01*
X98210000Y-79791928D01*
X98085518Y-79804188D01*
X97965820Y-79840498D01*
X97855506Y-79899463D01*
X97758815Y-79978815D01*
X97679463Y-80075506D01*
X97620498Y-80185820D01*
X97584188Y-80305518D01*
X97571928Y-80430000D01*
X94965000Y-80430000D01*
X94965000Y-77518377D01*
X94969765Y-77469999D01*
X94965000Y-77421620D01*
X94950747Y-77276906D01*
X94894424Y-77091233D01*
X94802960Y-76920116D01*
X94679870Y-76770130D01*
X94642284Y-76739284D01*
X92170716Y-74267716D01*
X92139870Y-74230130D01*
X91989884Y-74107040D01*
X91818767Y-74015576D01*
X91633094Y-73959253D01*
X91488380Y-73945000D01*
X91440000Y-73940235D01*
X91391620Y-73945000D01*
X80058380Y-73945000D01*
X80010000Y-73940235D01*
X79961620Y-73945000D01*
X79816906Y-73959253D01*
X79631233Y-74015576D01*
X79460116Y-74107040D01*
X79310130Y-74230130D01*
X79279289Y-74267710D01*
X75757701Y-77789299D01*
X75720121Y-77820140D01*
X75597031Y-77970126D01*
X75548142Y-78061591D01*
X75505566Y-78141244D01*
X75449243Y-78326917D01*
X75430225Y-78520010D01*
X73050000Y-78520010D01*
X73050000Y-71780000D01*
X155550001Y-71780000D01*
X155550000Y-140310000D01*
G36*
X92995000Y-77878000D02*
G01*
X92995001Y-88974366D01*
X92890314Y-88918410D01*
X92723491Y-88867804D01*
X92593478Y-88854999D01*
X92593470Y-88854999D01*
X92550001Y-88850718D01*
X92506532Y-88854999D01*
X85063470Y-88854999D01*
X85020001Y-88850718D01*
X84976532Y-88854999D01*
X84976524Y-88854999D01*
X84846511Y-88867804D01*
X84679687Y-88918410D01*
X84525942Y-89000588D01*
X84424954Y-89083467D01*
X84424952Y-89083469D01*
X84391184Y-89111182D01*
X84363471Y-89144950D01*
X83956493Y-89551928D01*
X83070000Y-89551928D01*
X82945518Y-89564188D01*
X82825820Y-89600498D01*
X82715506Y-89659463D01*
X82618815Y-89738815D01*
X82539463Y-89835506D01*
X82480498Y-89945820D01*
X82444188Y-90065518D01*
X82431928Y-90190000D01*
X82431928Y-90305000D01*
X81335743Y-90305000D01*
X81279999Y-90299510D01*
X81224255Y-90305000D01*
X81224248Y-90305000D01*
X81078493Y-90319356D01*
X81057500Y-90321423D01*
X81012596Y-90335045D01*
X80843553Y-90386324D01*
X80646377Y-90491716D01*
X80473551Y-90633551D01*
X80438008Y-90676860D01*
X79246860Y-91868009D01*
X79203552Y-91903551D01*
X79061717Y-92076377D01*
X79058126Y-92083096D01*
X78956324Y-92273554D01*
X78891423Y-92487502D01*
X78869509Y-92710000D01*
X78875001Y-92765762D01*
X78875000Y-110434249D01*
X78869509Y-110490000D01*
X78875000Y-110545751D01*
X78891423Y-110712498D01*
X78956324Y-110926446D01*
X79061716Y-111123623D01*
X79203551Y-111296449D01*
X79246865Y-111331996D01*
X81708009Y-113793141D01*
X81743551Y-113836449D01*
X81916377Y-113978284D01*
X82042740Y-114045826D01*
X82042740Y-114482500D01*
X84315121Y-114482500D01*
X84315121Y-114165000D01*
X84587817Y-114165000D01*
X84587817Y-114482500D01*
X84937369Y-114482500D01*
X87765001Y-117310134D01*
X87765001Y-117602583D01*
X87669152Y-117719375D01*
X87629171Y-117794174D01*
X87514363Y-117617737D01*
X87311906Y-117410288D01*
X87072868Y-117246322D01*
X86806435Y-117132141D01*
X86715038Y-117112021D01*
X86487000Y-117233500D01*
X86487000Y-119253000D01*
X86507000Y-119253000D01*
X86507000Y-119507000D01*
X86487000Y-119507000D01*
X86487000Y-121526500D01*
X86715038Y-121647979D01*
X86806435Y-121627859D01*
X87072868Y-121513678D01*
X87311906Y-121349712D01*
X87514363Y-121142263D01*
X87629171Y-120965825D01*
X87669153Y-121040626D01*
X87765000Y-121157416D01*
X87765001Y-122719867D01*
X86906864Y-123578005D01*
X86863551Y-123613551D01*
X86721716Y-123786377D01*
X86616325Y-123983553D01*
X86616324Y-123983554D01*
X86551423Y-124197502D01*
X86529509Y-124420000D01*
X86535000Y-124475752D01*
X86535000Y-125659043D01*
X86515506Y-125669463D01*
X86418815Y-125748815D01*
X86339463Y-125845506D01*
X86280498Y-125955820D01*
X86244188Y-126075518D01*
X86231928Y-126200000D01*
X86231928Y-126242424D01*
X86042702Y-126186903D01*
X85229605Y-127000000D01*
X86042702Y-127813097D01*
X86231928Y-127757576D01*
X86231928Y-127800000D01*
X86244188Y-127924482D01*
X86280498Y-128044180D01*
X86339463Y-128154494D01*
X86418815Y-128251185D01*
X86515506Y-128330537D01*
X86625820Y-128389502D01*
X86745518Y-128425812D01*
X86870000Y-128438072D01*
X88470000Y-128438072D01*
X88594482Y-128425812D01*
X88714180Y-128389502D01*
X88824494Y-128330537D01*
X88921185Y-128251185D01*
X89000537Y-128154494D01*
X89059502Y-128044180D01*
X89075117Y-127992702D01*
X89356903Y-127992702D01*
X89428486Y-128236671D01*
X89683996Y-128357571D01*
X89958184Y-128426300D01*
X90240512Y-128440217D01*
X90520130Y-128398787D01*
X90786292Y-128303603D01*
X90911514Y-128236671D01*
X90983097Y-127992702D01*
X90170000Y-127179605D01*
X89356903Y-127992702D01*
X89075117Y-127992702D01*
X89095812Y-127924482D01*
X89108072Y-127800000D01*
X89108072Y-127792785D01*
X89177298Y-127813097D01*
X89990395Y-127000000D01*
X90349605Y-127000000D01*
X91162702Y-127813097D01*
X91406671Y-127741514D01*
X91527571Y-127486004D01*
X91596300Y-127211816D01*
X91610217Y-126929488D01*
X91568787Y-126649870D01*
X91473603Y-126383708D01*
X91406671Y-126258486D01*
X91162702Y-126186903D01*
X90349605Y-127000000D01*
X89990395Y-127000000D01*
X89177298Y-126186903D01*
X89108072Y-126207215D01*
X89108072Y-126200000D01*
X89095812Y-126075518D01*
X89075118Y-126007298D01*
X89356903Y-126007298D01*
X90170000Y-126820395D01*
X90983097Y-126007298D01*
X90911514Y-125763329D01*
X90656004Y-125642429D01*
X90381816Y-125573700D01*
X90099488Y-125559783D01*
X89819870Y-125601213D01*
X89553708Y-125696397D01*
X89428486Y-125763329D01*
X89356903Y-126007298D01*
X89075118Y-126007298D01*
X89059502Y-125955820D01*
X89000537Y-125845506D01*
X88921185Y-125748815D01*
X88824494Y-125669463D01*
X88805000Y-125659043D01*
X88805000Y-124890132D01*
X89663146Y-124031987D01*
X89706449Y-123996449D01*
X89804663Y-123876776D01*
X89848284Y-123823623D01*
X89953676Y-123626447D01*
X90018577Y-123412499D01*
X90040491Y-123190000D01*
X90035000Y-123134248D01*
X90035000Y-121157417D01*
X90130848Y-121040626D01*
X90267645Y-120784697D01*
X90351884Y-120506998D01*
X90373200Y-120290572D01*
X90373200Y-118469428D01*
X90351884Y-118253002D01*
X90267645Y-117975303D01*
X90130848Y-117719374D01*
X90035000Y-117602584D01*
X90035000Y-117173731D01*
X91773733Y-115435000D01*
X103005001Y-115435000D01*
X103005000Y-126006911D01*
X102989502Y-125955820D01*
X102930537Y-125845506D01*
X102851185Y-125748815D01*
X102754494Y-125669463D01*
X102735000Y-125659043D01*
X102735000Y-122813941D01*
X102740490Y-122758199D01*
X102735000Y-122702457D01*
X102735000Y-122702448D01*
X102718577Y-122535701D01*
X102653676Y-122321753D01*
X102548284Y-122124577D01*
X102406449Y-121951751D01*
X102363141Y-121916209D01*
X100533200Y-120086269D01*
X100533200Y-118469428D01*
X100511884Y-118253002D01*
X100427645Y-117975303D01*
X100290848Y-117719374D01*
X100106749Y-117495050D01*
X99882425Y-117310952D01*
X99626496Y-117174155D01*
X99348797Y-117089916D01*
X99060000Y-117061472D01*
X98771202Y-117089916D01*
X98493503Y-117174155D01*
X98237574Y-117310952D01*
X98013250Y-117495051D01*
X97829152Y-117719375D01*
X97789171Y-117794174D01*
X97674363Y-117617737D01*
X97471906Y-117410288D01*
X97232868Y-117246322D01*
X96966435Y-117132141D01*
X96875038Y-117112021D01*
X96647000Y-117233500D01*
X96647000Y-119253000D01*
X96667000Y-119253000D01*
X96667000Y-119507000D01*
X96647000Y-119507000D01*
X96647000Y-121526500D01*
X96875038Y-121647979D01*
X96966435Y-121627859D01*
X97232868Y-121513678D01*
X97471906Y-121349712D01*
X97674363Y-121142263D01*
X97789171Y-120965825D01*
X97829153Y-121040626D01*
X98013251Y-121264950D01*
X98237575Y-121449048D01*
X98493504Y-121585845D01*
X98771203Y-121670084D01*
X98921562Y-121684893D01*
X100465000Y-123228332D01*
X100465001Y-125659043D01*
X100445506Y-125669463D01*
X100348815Y-125748815D01*
X100269463Y-125845506D01*
X100210498Y-125955820D01*
X100174188Y-126075518D01*
X100161928Y-126200000D01*
X100161928Y-126207215D01*
X100092702Y-126186903D01*
X99279605Y-127000000D01*
X100092702Y-127813097D01*
X100161928Y-127792785D01*
X100161928Y-127800000D01*
X100174188Y-127924482D01*
X100210498Y-128044180D01*
X100269463Y-128154494D01*
X100348815Y-128251185D01*
X100445506Y-128330537D01*
X100465000Y-128340957D01*
X100465000Y-128855751D01*
X100465001Y-128855761D01*
X100465000Y-132208126D01*
X100459509Y-132263878D01*
X100470070Y-132371111D01*
X100481423Y-132486376D01*
X100546324Y-132700324D01*
X100651716Y-132897501D01*
X100793551Y-133070327D01*
X100836865Y-133105874D01*
X103526018Y-135795029D01*
X82578029Y-135795029D01*
X77404990Y-130621990D01*
X77404990Y-118380121D01*
X79168009Y-120143141D01*
X79203551Y-120186449D01*
X79376377Y-120328284D01*
X79410269Y-120346400D01*
X79246865Y-120509804D01*
X79203551Y-120545351D01*
X79061716Y-120718177D01*
X78979230Y-120872500D01*
X78956324Y-120915354D01*
X78891423Y-121129302D01*
X78869509Y-121351800D01*
X78875000Y-121407552D01*
X78875001Y-126204239D01*
X78869509Y-126260000D01*
X78891423Y-126482498D01*
X78956324Y-126696446D01*
X78973454Y-126728493D01*
X79061717Y-126893623D01*
X79203552Y-127066449D01*
X79246860Y-127101991D01*
X79908004Y-127763135D01*
X79943551Y-127806449D01*
X80116377Y-127948284D01*
X80302000Y-128047501D01*
X80313553Y-128053676D01*
X80527501Y-128118577D01*
X80749999Y-128140491D01*
X80805751Y-128135000D01*
X81209043Y-128135000D01*
X81219463Y-128154494D01*
X81298815Y-128251185D01*
X81395506Y-128330537D01*
X81415000Y-128340957D01*
X81415000Y-128744248D01*
X81409509Y-128800000D01*
X81431423Y-129022498D01*
X81496324Y-129236446D01*
X81513454Y-129268493D01*
X81601717Y-129433623D01*
X81743552Y-129606449D01*
X81786860Y-129641991D01*
X84988009Y-132843141D01*
X85023551Y-132886449D01*
X85196377Y-133028284D01*
X85393553Y-133133676D01*
X85607501Y-133198577D01*
X85774248Y-133215000D01*
X85774257Y-133215000D01*
X85829999Y-133220490D01*
X85885741Y-133215000D01*
X90684249Y-133215000D01*
X90740000Y-133220491D01*
X90795751Y-133215000D01*
X90795752Y-133215000D01*
X90962499Y-133198577D01*
X91176447Y-133133676D01*
X91373623Y-133028284D01*
X91546449Y-132886449D01*
X91581996Y-132843135D01*
X94783141Y-129641991D01*
X94826449Y-129606449D01*
X94968284Y-129433623D01*
X95073676Y-129236447D01*
X95138577Y-129022499D01*
X95155000Y-128855752D01*
X95155000Y-128855743D01*
X95160490Y-128800001D01*
X95155000Y-128744259D01*
X95155000Y-128340957D01*
X95174494Y-128330537D01*
X95271185Y-128251185D01*
X95350537Y-128154494D01*
X95409502Y-128044180D01*
X95425117Y-127992702D01*
X95706903Y-127992702D01*
X95778486Y-128236671D01*
X96033996Y-128357571D01*
X96308184Y-128426300D01*
X96590512Y-128440217D01*
X96870130Y-128398787D01*
X97136292Y-128303603D01*
X97261514Y-128236671D01*
X97333097Y-127992702D01*
X98286903Y-127992702D01*
X98358486Y-128236671D01*
X98613996Y-128357571D01*
X98888184Y-128426300D01*
X99170512Y-128440217D01*
X99450130Y-128398787D01*
X99716292Y-128303603D01*
X99841514Y-128236671D01*
X99913097Y-127992702D01*
X99100000Y-127179605D01*
X98286903Y-127992702D01*
X97333097Y-127992702D01*
X96520000Y-127179605D01*
X95706903Y-127992702D01*
X95425117Y-127992702D01*
X95445812Y-127924482D01*
X95458072Y-127800000D01*
X95458072Y-127792785D01*
X95527298Y-127813097D01*
X96340395Y-127000000D01*
X96699605Y-127000000D01*
X97512702Y-127813097D01*
X97756671Y-127741514D01*
X97806754Y-127635669D01*
X97863329Y-127741514D01*
X98107298Y-127813097D01*
X98920395Y-127000000D01*
X98107298Y-126186903D01*
X97863329Y-126258486D01*
X97813246Y-126364331D01*
X97756671Y-126258486D01*
X97512702Y-126186903D01*
X96699605Y-127000000D01*
X96340395Y-127000000D01*
X95527298Y-126186903D01*
X95458072Y-126207215D01*
X95458072Y-126200000D01*
X95445812Y-126075518D01*
X95425118Y-126007298D01*
X95706903Y-126007298D01*
X96520000Y-126820395D01*
X97333097Y-126007298D01*
X98286903Y-126007298D01*
X99100000Y-126820395D01*
X99913097Y-126007298D01*
X99841514Y-125763329D01*
X99586004Y-125642429D01*
X99311816Y-125573700D01*
X99029488Y-125559783D01*
X98749870Y-125601213D01*
X98483708Y-125696397D01*
X98358486Y-125763329D01*
X98286903Y-126007298D01*
X97333097Y-126007298D01*
X97261514Y-125763329D01*
X97006004Y-125642429D01*
X96731816Y-125573700D01*
X96449488Y-125559783D01*
X96169870Y-125601213D01*
X95903708Y-125696397D01*
X95778486Y-125763329D01*
X95706903Y-126007298D01*
X95425118Y-126007298D01*
X95409502Y-125955820D01*
X95350537Y-125845506D01*
X95271185Y-125748815D01*
X95174494Y-125669463D01*
X95115000Y-125637662D01*
X95115000Y-121157417D01*
X95210848Y-121040626D01*
X95250829Y-120965826D01*
X95365637Y-121142263D01*
X95568094Y-121349712D01*
X95807132Y-121513678D01*
X96073565Y-121627859D01*
X96164962Y-121647979D01*
X96393000Y-121526500D01*
X96393000Y-119507000D01*
X96373000Y-119507000D01*
X96373000Y-119253000D01*
X96393000Y-119253000D01*
X96393000Y-117233500D01*
X96164962Y-117112021D01*
X96073565Y-117132141D01*
X95807132Y-117246322D01*
X95568094Y-117410288D01*
X95365637Y-117617737D01*
X95250829Y-117794174D01*
X95210848Y-117719374D01*
X95026749Y-117495050D01*
X94802425Y-117310952D01*
X94546496Y-117174155D01*
X94268797Y-117089916D01*
X93980000Y-117061472D01*
X93691202Y-117089916D01*
X93413503Y-117174155D01*
X93157574Y-117310952D01*
X92933250Y-117495051D01*
X92749152Y-117719375D01*
X92612355Y-117975304D01*
X92528116Y-118253003D01*
X92506800Y-118469429D01*
X92506800Y-120290572D01*
X92528117Y-120506998D01*
X92612356Y-120784697D01*
X92749153Y-121040626D01*
X92845000Y-121157416D01*
X92845001Y-125686291D01*
X92768815Y-125748815D01*
X92689463Y-125845506D01*
X92630498Y-125955820D01*
X92594188Y-126075518D01*
X92581928Y-126200000D01*
X92581928Y-127800000D01*
X92594188Y-127924482D01*
X92630498Y-128044180D01*
X92689463Y-128154494D01*
X92768815Y-128251185D01*
X92865506Y-128330537D01*
X92877774Y-128337094D01*
X90269869Y-130945000D01*
X86300132Y-130945000D01*
X83692226Y-128337095D01*
X83704494Y-128330537D01*
X83801185Y-128251185D01*
X83880537Y-128154494D01*
X83939502Y-128044180D01*
X83955117Y-127992702D01*
X84236903Y-127992702D01*
X84308486Y-128236671D01*
X84563996Y-128357571D01*
X84838184Y-128426300D01*
X85120512Y-128440217D01*
X85400130Y-128398787D01*
X85666292Y-128303603D01*
X85791514Y-128236671D01*
X85863097Y-127992702D01*
X85050000Y-127179605D01*
X84236903Y-127992702D01*
X83955117Y-127992702D01*
X83975812Y-127924482D01*
X83988072Y-127800000D01*
X83988072Y-127792785D01*
X84057298Y-127813097D01*
X84870395Y-127000000D01*
X84057298Y-126186903D01*
X83988072Y-126207215D01*
X83988072Y-126200000D01*
X83975812Y-126075518D01*
X83955118Y-126007298D01*
X84236903Y-126007298D01*
X85050000Y-126820395D01*
X85863097Y-126007298D01*
X85791514Y-125763329D01*
X85536004Y-125642429D01*
X85261816Y-125573700D01*
X84979488Y-125559783D01*
X84699870Y-125601213D01*
X84433708Y-125696397D01*
X84308486Y-125763329D01*
X84236903Y-126007298D01*
X83955118Y-126007298D01*
X83939502Y-125955820D01*
X83880537Y-125845506D01*
X83801185Y-125748815D01*
X83704494Y-125669463D01*
X83594180Y-125610498D01*
X83474482Y-125574188D01*
X83350000Y-125561928D01*
X81750000Y-125561928D01*
X81625518Y-125574188D01*
X81505820Y-125610498D01*
X81395506Y-125669463D01*
X81298815Y-125748815D01*
X81219463Y-125845506D01*
X81212905Y-125857774D01*
X81145000Y-125789869D01*
X81145000Y-121821931D01*
X82389487Y-120577445D01*
X82452356Y-120784697D01*
X82589153Y-121040626D01*
X82773251Y-121264950D01*
X82997575Y-121449048D01*
X83253504Y-121585845D01*
X83531203Y-121670084D01*
X83820000Y-121698528D01*
X84108798Y-121670084D01*
X84386497Y-121585845D01*
X84642426Y-121449048D01*
X84866750Y-121264950D01*
X85050848Y-121040626D01*
X85090829Y-120965826D01*
X85205637Y-121142263D01*
X85408094Y-121349712D01*
X85647132Y-121513678D01*
X85913565Y-121627859D01*
X86004962Y-121647979D01*
X86233000Y-121526500D01*
X86233000Y-119507000D01*
X86213000Y-119507000D01*
X86213000Y-119253000D01*
X86233000Y-119253000D01*
X86233000Y-117233500D01*
X86004962Y-117112021D01*
X85913565Y-117132141D01*
X85647132Y-117246322D01*
X85408094Y-117410288D01*
X85205637Y-117617737D01*
X85090829Y-117794174D01*
X85050848Y-117719374D01*
X84866749Y-117495050D01*
X84642425Y-117310952D01*
X84386496Y-117174155D01*
X84108797Y-117089916D01*
X83820000Y-117061472D01*
X83531202Y-117089916D01*
X83253503Y-117174155D01*
X82997574Y-117310952D01*
X82773250Y-117495051D01*
X82589152Y-117719375D01*
X82452355Y-117975304D01*
X82370544Y-118245000D01*
X82037541Y-118245000D01*
X81981799Y-118239510D01*
X81926057Y-118245000D01*
X80480132Y-118245000D01*
X78605000Y-116369869D01*
X78605000Y-81790131D01*
X80411928Y-79983204D01*
X80411928Y-80240000D01*
X80424188Y-80364482D01*
X80460498Y-80484180D01*
X80519463Y-80594494D01*
X80598815Y-80691185D01*
X80695506Y-80770537D01*
X80805820Y-80829502D01*
X80925518Y-80865812D01*
X81050000Y-80878072D01*
X84050000Y-80878072D01*
X84174482Y-80865812D01*
X84294180Y-80829502D01*
X84404494Y-80770537D01*
X84501185Y-80691185D01*
X84580537Y-80594494D01*
X84639502Y-80484180D01*
X84675812Y-80364482D01*
X84688072Y-80240000D01*
X84688072Y-80231653D01*
X86317952Y-80231653D01*
X86473962Y-80547214D01*
X86848745Y-80738020D01*
X87253551Y-80852044D01*
X87672824Y-80884902D01*
X88090451Y-80835334D01*
X88490383Y-80705243D01*
X88786038Y-80547214D01*
X88942048Y-80231653D01*
X87630000Y-78919605D01*
X86317952Y-80231653D01*
X84688072Y-80231653D01*
X84688072Y-78782824D01*
X85485098Y-78782824D01*
X85534666Y-79200451D01*
X85664757Y-79600383D01*
X85822786Y-79896038D01*
X86138347Y-80052048D01*
X87450395Y-78740000D01*
X87809605Y-78740000D01*
X89121653Y-80052048D01*
X89437214Y-79896038D01*
X89628020Y-79521255D01*
X89742044Y-79116449D01*
X89774902Y-78697176D01*
X89725334Y-78279549D01*
X89595243Y-77879617D01*
X89437214Y-77583962D01*
X89121653Y-77427952D01*
X87809605Y-78740000D01*
X87450395Y-78740000D01*
X86138347Y-77427952D01*
X85822786Y-77583962D01*
X85631980Y-77958745D01*
X85517956Y-78363551D01*
X85485098Y-78782824D01*
X84688072Y-78782824D01*
X84688072Y-77248347D01*
X86317952Y-77248347D01*
X87630000Y-78560395D01*
X88942048Y-77248347D01*
X88786038Y-76932786D01*
X88411255Y-76741980D01*
X88006449Y-76627956D01*
X87587176Y-76595098D01*
X87169549Y-76644666D01*
X86769617Y-76774757D01*
X86473962Y-76932786D01*
X86317952Y-77248347D01*
X84688072Y-77248347D01*
X84688072Y-77240000D01*
X84675812Y-77115518D01*
X84639502Y-76995820D01*
X84580537Y-76885506D01*
X84501185Y-76788815D01*
X84404494Y-76709463D01*
X84294180Y-76650498D01*
X84174482Y-76614188D01*
X84050000Y-76601928D01*
X81050000Y-76601928D01*
X80925518Y-76614188D01*
X80805820Y-76650498D01*
X80695506Y-76709463D01*
X80598815Y-76788815D01*
X80519463Y-76885506D01*
X80460498Y-76995820D01*
X80424188Y-77115518D01*
X80411928Y-77240000D01*
X80411928Y-77605000D01*
X80105751Y-77605000D01*
X80050000Y-77599509D01*
X79994248Y-77605000D01*
X79827501Y-77621423D01*
X79613553Y-77686324D01*
X79416377Y-77791716D01*
X79243551Y-77933551D01*
X79208009Y-77976859D01*
X77404990Y-79779879D01*
X77404990Y-78928010D01*
X80418001Y-75915000D01*
X91032000Y-75915000D01*
X92995000Y-77878000D01*
X92995000Y-77878000D01*
G37*
X92995000Y-77878000D02*
X92995001Y-88974366D01*
X92890314Y-88918410D01*
X92723491Y-88867804D01*
X92593478Y-88854999D01*
X92593470Y-88854999D01*
X92550001Y-88850718D01*
X92506532Y-88854999D01*
X85063470Y-88854999D01*
X85020001Y-88850718D01*
X84976532Y-88854999D01*
X84976524Y-88854999D01*
X84846511Y-88867804D01*
X84679687Y-88918410D01*
X84525942Y-89000588D01*
X84424954Y-89083467D01*
X84424952Y-89083469D01*
X84391184Y-89111182D01*
X84363471Y-89144950D01*
X83956493Y-89551928D01*
X83070000Y-89551928D01*
X82945518Y-89564188D01*
X82825820Y-89600498D01*
X82715506Y-89659463D01*
X82618815Y-89738815D01*
X82539463Y-89835506D01*
X82480498Y-89945820D01*
X82444188Y-90065518D01*
X82431928Y-90190000D01*
X82431928Y-90305000D01*
X81335743Y-90305000D01*
X81279999Y-90299510D01*
X81224255Y-90305000D01*
X81224248Y-90305000D01*
X81078493Y-90319356D01*
X81057500Y-90321423D01*
X81012596Y-90335045D01*
X80843553Y-90386324D01*
X80646377Y-90491716D01*
X80473551Y-90633551D01*
X80438008Y-90676860D01*
X79246860Y-91868009D01*
X79203552Y-91903551D01*
X79061717Y-92076377D01*
X79058126Y-92083096D01*
X78956324Y-92273554D01*
X78891423Y-92487502D01*
X78869509Y-92710000D01*
X78875001Y-92765762D01*
X78875000Y-110434249D01*
X78869509Y-110490000D01*
X78875000Y-110545751D01*
X78891423Y-110712498D01*
X78956324Y-110926446D01*
X79061716Y-111123623D01*
X79203551Y-111296449D01*
X79246865Y-111331996D01*
X81708009Y-113793141D01*
X81743551Y-113836449D01*
X81916377Y-113978284D01*
X82042740Y-114045826D01*
X82042740Y-114482500D01*
X84315121Y-114482500D01*
X84315121Y-114165000D01*
X84587817Y-114165000D01*
X84587817Y-114482500D01*
X84937369Y-114482500D01*
X87765001Y-117310134D01*
X87765001Y-117602583D01*
X87669152Y-117719375D01*
X87629171Y-117794174D01*
X87514363Y-117617737D01*
X87311906Y-117410288D01*
X87072868Y-117246322D01*
X86806435Y-117132141D01*
X86715038Y-117112021D01*
X86487000Y-117233500D01*
X86487000Y-119253000D01*
X86507000Y-119253000D01*
X86507000Y-119507000D01*
X86487000Y-119507000D01*
X86487000Y-121526500D01*
X86715038Y-121647979D01*
X86806435Y-121627859D01*
X87072868Y-121513678D01*
X87311906Y-121349712D01*
X87514363Y-121142263D01*
X87629171Y-120965825D01*
X87669153Y-121040626D01*
X87765000Y-121157416D01*
X87765001Y-122719867D01*
X86906864Y-123578005D01*
X86863551Y-123613551D01*
X86721716Y-123786377D01*
X86616325Y-123983553D01*
X86616324Y-123983554D01*
X86551423Y-124197502D01*
X86529509Y-124420000D01*
X86535000Y-124475752D01*
X86535000Y-125659043D01*
X86515506Y-125669463D01*
X86418815Y-125748815D01*
X86339463Y-125845506D01*
X86280498Y-125955820D01*
X86244188Y-126075518D01*
X86231928Y-126200000D01*
X86231928Y-126242424D01*
X86042702Y-126186903D01*
X85229605Y-127000000D01*
X86042702Y-127813097D01*
X86231928Y-127757576D01*
X86231928Y-127800000D01*
X86244188Y-127924482D01*
X86280498Y-128044180D01*
X86339463Y-128154494D01*
X86418815Y-128251185D01*
X86515506Y-128330537D01*
X86625820Y-128389502D01*
X86745518Y-128425812D01*
X86870000Y-128438072D01*
X88470000Y-128438072D01*
X88594482Y-128425812D01*
X88714180Y-128389502D01*
X88824494Y-128330537D01*
X88921185Y-128251185D01*
X89000537Y-128154494D01*
X89059502Y-128044180D01*
X89075117Y-127992702D01*
X89356903Y-127992702D01*
X89428486Y-128236671D01*
X89683996Y-128357571D01*
X89958184Y-128426300D01*
X90240512Y-128440217D01*
X90520130Y-128398787D01*
X90786292Y-128303603D01*
X90911514Y-128236671D01*
X90983097Y-127992702D01*
X90170000Y-127179605D01*
X89356903Y-127992702D01*
X89075117Y-127992702D01*
X89095812Y-127924482D01*
X89108072Y-127800000D01*
X89108072Y-127792785D01*
X89177298Y-127813097D01*
X89990395Y-127000000D01*
X90349605Y-127000000D01*
X91162702Y-127813097D01*
X91406671Y-127741514D01*
X91527571Y-127486004D01*
X91596300Y-127211816D01*
X91610217Y-126929488D01*
X91568787Y-126649870D01*
X91473603Y-126383708D01*
X91406671Y-126258486D01*
X91162702Y-126186903D01*
X90349605Y-127000000D01*
X89990395Y-127000000D01*
X89177298Y-126186903D01*
X89108072Y-126207215D01*
X89108072Y-126200000D01*
X89095812Y-126075518D01*
X89075118Y-126007298D01*
X89356903Y-126007298D01*
X90170000Y-126820395D01*
X90983097Y-126007298D01*
X90911514Y-125763329D01*
X90656004Y-125642429D01*
X90381816Y-125573700D01*
X90099488Y-125559783D01*
X89819870Y-125601213D01*
X89553708Y-125696397D01*
X89428486Y-125763329D01*
X89356903Y-126007298D01*
X89075118Y-126007298D01*
X89059502Y-125955820D01*
X89000537Y-125845506D01*
X88921185Y-125748815D01*
X88824494Y-125669463D01*
X88805000Y-125659043D01*
X88805000Y-124890132D01*
X89663146Y-124031987D01*
X89706449Y-123996449D01*
X89804663Y-123876776D01*
X89848284Y-123823623D01*
X89953676Y-123626447D01*
X90018577Y-123412499D01*
X90040491Y-123190000D01*
X90035000Y-123134248D01*
X90035000Y-121157417D01*
X90130848Y-121040626D01*
X90267645Y-120784697D01*
X90351884Y-120506998D01*
X90373200Y-120290572D01*
X90373200Y-118469428D01*
X90351884Y-118253002D01*
X90267645Y-117975303D01*
X90130848Y-117719374D01*
X90035000Y-117602584D01*
X90035000Y-117173731D01*
X91773733Y-115435000D01*
X103005001Y-115435000D01*
X103005000Y-126006911D01*
X102989502Y-125955820D01*
X102930537Y-125845506D01*
X102851185Y-125748815D01*
X102754494Y-125669463D01*
X102735000Y-125659043D01*
X102735000Y-122813941D01*
X102740490Y-122758199D01*
X102735000Y-122702457D01*
X102735000Y-122702448D01*
X102718577Y-122535701D01*
X102653676Y-122321753D01*
X102548284Y-122124577D01*
X102406449Y-121951751D01*
X102363141Y-121916209D01*
X100533200Y-120086269D01*
X100533200Y-118469428D01*
X100511884Y-118253002D01*
X100427645Y-117975303D01*
X100290848Y-117719374D01*
X100106749Y-117495050D01*
X99882425Y-117310952D01*
X99626496Y-117174155D01*
X99348797Y-117089916D01*
X99060000Y-117061472D01*
X98771202Y-117089916D01*
X98493503Y-117174155D01*
X98237574Y-117310952D01*
X98013250Y-117495051D01*
X97829152Y-117719375D01*
X97789171Y-117794174D01*
X97674363Y-117617737D01*
X97471906Y-117410288D01*
X97232868Y-117246322D01*
X96966435Y-117132141D01*
X96875038Y-117112021D01*
X96647000Y-117233500D01*
X96647000Y-119253000D01*
X96667000Y-119253000D01*
X96667000Y-119507000D01*
X96647000Y-119507000D01*
X96647000Y-121526500D01*
X96875038Y-121647979D01*
X96966435Y-121627859D01*
X97232868Y-121513678D01*
X97471906Y-121349712D01*
X97674363Y-121142263D01*
X97789171Y-120965825D01*
X97829153Y-121040626D01*
X98013251Y-121264950D01*
X98237575Y-121449048D01*
X98493504Y-121585845D01*
X98771203Y-121670084D01*
X98921562Y-121684893D01*
X100465000Y-123228332D01*
X100465001Y-125659043D01*
X100445506Y-125669463D01*
X100348815Y-125748815D01*
X100269463Y-125845506D01*
X100210498Y-125955820D01*
X100174188Y-126075518D01*
X100161928Y-126200000D01*
X100161928Y-126207215D01*
X100092702Y-126186903D01*
X99279605Y-127000000D01*
X100092702Y-127813097D01*
X100161928Y-127792785D01*
X100161928Y-127800000D01*
X100174188Y-127924482D01*
X100210498Y-128044180D01*
X100269463Y-128154494D01*
X100348815Y-128251185D01*
X100445506Y-128330537D01*
X100465000Y-128340957D01*
X100465000Y-128855751D01*
X100465001Y-128855761D01*
X100465000Y-132208126D01*
X100459509Y-132263878D01*
X100470070Y-132371111D01*
X100481423Y-132486376D01*
X100546324Y-132700324D01*
X100651716Y-132897501D01*
X100793551Y-133070327D01*
X100836865Y-133105874D01*
X103526018Y-135795029D01*
X82578029Y-135795029D01*
X77404990Y-130621990D01*
X77404990Y-118380121D01*
X79168009Y-120143141D01*
X79203551Y-120186449D01*
X79376377Y-120328284D01*
X79410269Y-120346400D01*
X79246865Y-120509804D01*
X79203551Y-120545351D01*
X79061716Y-120718177D01*
X78979230Y-120872500D01*
X78956324Y-120915354D01*
X78891423Y-121129302D01*
X78869509Y-121351800D01*
X78875000Y-121407552D01*
X78875001Y-126204239D01*
X78869509Y-126260000D01*
X78891423Y-126482498D01*
X78956324Y-126696446D01*
X78973454Y-126728493D01*
X79061717Y-126893623D01*
X79203552Y-127066449D01*
X79246860Y-127101991D01*
X79908004Y-127763135D01*
X79943551Y-127806449D01*
X80116377Y-127948284D01*
X80302000Y-128047501D01*
X80313553Y-128053676D01*
X80527501Y-128118577D01*
X80749999Y-128140491D01*
X80805751Y-128135000D01*
X81209043Y-128135000D01*
X81219463Y-128154494D01*
X81298815Y-128251185D01*
X81395506Y-128330537D01*
X81415000Y-128340957D01*
X81415000Y-128744248D01*
X81409509Y-128800000D01*
X81431423Y-129022498D01*
X81496324Y-129236446D01*
X81513454Y-129268493D01*
X81601717Y-129433623D01*
X81743552Y-129606449D01*
X81786860Y-129641991D01*
X84988009Y-132843141D01*
X85023551Y-132886449D01*
X85196377Y-133028284D01*
X85393553Y-133133676D01*
X85607501Y-133198577D01*
X85774248Y-133215000D01*
X85774257Y-133215000D01*
X85829999Y-133220490D01*
X85885741Y-133215000D01*
X90684249Y-133215000D01*
X90740000Y-133220491D01*
X90795751Y-133215000D01*
X90795752Y-133215000D01*
X90962499Y-133198577D01*
X91176447Y-133133676D01*
X91373623Y-133028284D01*
X91546449Y-132886449D01*
X91581996Y-132843135D01*
X94783141Y-129641991D01*
X94826449Y-129606449D01*
X94968284Y-129433623D01*
X95073676Y-129236447D01*
X95138577Y-129022499D01*
X95155000Y-128855752D01*
X95155000Y-128855743D01*
X95160490Y-128800001D01*
X95155000Y-128744259D01*
X95155000Y-128340957D01*
X95174494Y-128330537D01*
X95271185Y-128251185D01*
X95350537Y-128154494D01*
X95409502Y-128044180D01*
X95425117Y-127992702D01*
X95706903Y-127992702D01*
X95778486Y-128236671D01*
X96033996Y-128357571D01*
X96308184Y-128426300D01*
X96590512Y-128440217D01*
X96870130Y-128398787D01*
X97136292Y-128303603D01*
X97261514Y-128236671D01*
X97333097Y-127992702D01*
X98286903Y-127992702D01*
X98358486Y-128236671D01*
X98613996Y-128357571D01*
X98888184Y-128426300D01*
X99170512Y-128440217D01*
X99450130Y-128398787D01*
X99716292Y-128303603D01*
X99841514Y-128236671D01*
X99913097Y-127992702D01*
X99100000Y-127179605D01*
X98286903Y-127992702D01*
X97333097Y-127992702D01*
X96520000Y-127179605D01*
X95706903Y-127992702D01*
X95425117Y-127992702D01*
X95445812Y-127924482D01*
X95458072Y-127800000D01*
X95458072Y-127792785D01*
X95527298Y-127813097D01*
X96340395Y-127000000D01*
X96699605Y-127000000D01*
X97512702Y-127813097D01*
X97756671Y-127741514D01*
X97806754Y-127635669D01*
X97863329Y-127741514D01*
X98107298Y-127813097D01*
X98920395Y-127000000D01*
X98107298Y-126186903D01*
X97863329Y-126258486D01*
X97813246Y-126364331D01*
X97756671Y-126258486D01*
X97512702Y-126186903D01*
X96699605Y-127000000D01*
X96340395Y-127000000D01*
X95527298Y-126186903D01*
X95458072Y-126207215D01*
X95458072Y-126200000D01*
X95445812Y-126075518D01*
X95425118Y-126007298D01*
X95706903Y-126007298D01*
X96520000Y-126820395D01*
X97333097Y-126007298D01*
X98286903Y-126007298D01*
X99100000Y-126820395D01*
X99913097Y-126007298D01*
X99841514Y-125763329D01*
X99586004Y-125642429D01*
X99311816Y-125573700D01*
X99029488Y-125559783D01*
X98749870Y-125601213D01*
X98483708Y-125696397D01*
X98358486Y-125763329D01*
X98286903Y-126007298D01*
X97333097Y-126007298D01*
X97261514Y-125763329D01*
X97006004Y-125642429D01*
X96731816Y-125573700D01*
X96449488Y-125559783D01*
X96169870Y-125601213D01*
X95903708Y-125696397D01*
X95778486Y-125763329D01*
X95706903Y-126007298D01*
X95425118Y-126007298D01*
X95409502Y-125955820D01*
X95350537Y-125845506D01*
X95271185Y-125748815D01*
X95174494Y-125669463D01*
X95115000Y-125637662D01*
X95115000Y-121157417D01*
X95210848Y-121040626D01*
X95250829Y-120965826D01*
X95365637Y-121142263D01*
X95568094Y-121349712D01*
X95807132Y-121513678D01*
X96073565Y-121627859D01*
X96164962Y-121647979D01*
X96393000Y-121526500D01*
X96393000Y-119507000D01*
X96373000Y-119507000D01*
X96373000Y-119253000D01*
X96393000Y-119253000D01*
X96393000Y-117233500D01*
X96164962Y-117112021D01*
X96073565Y-117132141D01*
X95807132Y-117246322D01*
X95568094Y-117410288D01*
X95365637Y-117617737D01*
X95250829Y-117794174D01*
X95210848Y-117719374D01*
X95026749Y-117495050D01*
X94802425Y-117310952D01*
X94546496Y-117174155D01*
X94268797Y-117089916D01*
X93980000Y-117061472D01*
X93691202Y-117089916D01*
X93413503Y-117174155D01*
X93157574Y-117310952D01*
X92933250Y-117495051D01*
X92749152Y-117719375D01*
X92612355Y-117975304D01*
X92528116Y-118253003D01*
X92506800Y-118469429D01*
X92506800Y-120290572D01*
X92528117Y-120506998D01*
X92612356Y-120784697D01*
X92749153Y-121040626D01*
X92845000Y-121157416D01*
X92845001Y-125686291D01*
X92768815Y-125748815D01*
X92689463Y-125845506D01*
X92630498Y-125955820D01*
X92594188Y-126075518D01*
X92581928Y-126200000D01*
X92581928Y-127800000D01*
X92594188Y-127924482D01*
X92630498Y-128044180D01*
X92689463Y-128154494D01*
X92768815Y-128251185D01*
X92865506Y-128330537D01*
X92877774Y-128337094D01*
X90269869Y-130945000D01*
X86300132Y-130945000D01*
X83692226Y-128337095D01*
X83704494Y-128330537D01*
X83801185Y-128251185D01*
X83880537Y-128154494D01*
X83939502Y-128044180D01*
X83955117Y-127992702D01*
X84236903Y-127992702D01*
X84308486Y-128236671D01*
X84563996Y-128357571D01*
X84838184Y-128426300D01*
X85120512Y-128440217D01*
X85400130Y-128398787D01*
X85666292Y-128303603D01*
X85791514Y-128236671D01*
X85863097Y-127992702D01*
X85050000Y-127179605D01*
X84236903Y-127992702D01*
X83955117Y-127992702D01*
X83975812Y-127924482D01*
X83988072Y-127800000D01*
X83988072Y-127792785D01*
X84057298Y-127813097D01*
X84870395Y-127000000D01*
X84057298Y-126186903D01*
X83988072Y-126207215D01*
X83988072Y-126200000D01*
X83975812Y-126075518D01*
X83955118Y-126007298D01*
X84236903Y-126007298D01*
X85050000Y-126820395D01*
X85863097Y-126007298D01*
X85791514Y-125763329D01*
X85536004Y-125642429D01*
X85261816Y-125573700D01*
X84979488Y-125559783D01*
X84699870Y-125601213D01*
X84433708Y-125696397D01*
X84308486Y-125763329D01*
X84236903Y-126007298D01*
X83955118Y-126007298D01*
X83939502Y-125955820D01*
X83880537Y-125845506D01*
X83801185Y-125748815D01*
X83704494Y-125669463D01*
X83594180Y-125610498D01*
X83474482Y-125574188D01*
X83350000Y-125561928D01*
X81750000Y-125561928D01*
X81625518Y-125574188D01*
X81505820Y-125610498D01*
X81395506Y-125669463D01*
X81298815Y-125748815D01*
X81219463Y-125845506D01*
X81212905Y-125857774D01*
X81145000Y-125789869D01*
X81145000Y-121821931D01*
X82389487Y-120577445D01*
X82452356Y-120784697D01*
X82589153Y-121040626D01*
X82773251Y-121264950D01*
X82997575Y-121449048D01*
X83253504Y-121585845D01*
X83531203Y-121670084D01*
X83820000Y-121698528D01*
X84108798Y-121670084D01*
X84386497Y-121585845D01*
X84642426Y-121449048D01*
X84866750Y-121264950D01*
X85050848Y-121040626D01*
X85090829Y-120965826D01*
X85205637Y-121142263D01*
X85408094Y-121349712D01*
X85647132Y-121513678D01*
X85913565Y-121627859D01*
X86004962Y-121647979D01*
X86233000Y-121526500D01*
X86233000Y-119507000D01*
X86213000Y-119507000D01*
X86213000Y-119253000D01*
X86233000Y-119253000D01*
X86233000Y-117233500D01*
X86004962Y-117112021D01*
X85913565Y-117132141D01*
X85647132Y-117246322D01*
X85408094Y-117410288D01*
X85205637Y-117617737D01*
X85090829Y-117794174D01*
X85050848Y-117719374D01*
X84866749Y-117495050D01*
X84642425Y-117310952D01*
X84386496Y-117174155D01*
X84108797Y-117089916D01*
X83820000Y-117061472D01*
X83531202Y-117089916D01*
X83253503Y-117174155D01*
X82997574Y-117310952D01*
X82773250Y-117495051D01*
X82589152Y-117719375D01*
X82452355Y-117975304D01*
X82370544Y-118245000D01*
X82037541Y-118245000D01*
X81981799Y-118239510D01*
X81926057Y-118245000D01*
X80480132Y-118245000D01*
X78605000Y-116369869D01*
X78605000Y-81790131D01*
X80411928Y-79983204D01*
X80411928Y-80240000D01*
X80424188Y-80364482D01*
X80460498Y-80484180D01*
X80519463Y-80594494D01*
X80598815Y-80691185D01*
X80695506Y-80770537D01*
X80805820Y-80829502D01*
X80925518Y-80865812D01*
X81050000Y-80878072D01*
X84050000Y-80878072D01*
X84174482Y-80865812D01*
X84294180Y-80829502D01*
X84404494Y-80770537D01*
X84501185Y-80691185D01*
X84580537Y-80594494D01*
X84639502Y-80484180D01*
X84675812Y-80364482D01*
X84688072Y-80240000D01*
X84688072Y-80231653D01*
X86317952Y-80231653D01*
X86473962Y-80547214D01*
X86848745Y-80738020D01*
X87253551Y-80852044D01*
X87672824Y-80884902D01*
X88090451Y-80835334D01*
X88490383Y-80705243D01*
X88786038Y-80547214D01*
X88942048Y-80231653D01*
X87630000Y-78919605D01*
X86317952Y-80231653D01*
X84688072Y-80231653D01*
X84688072Y-78782824D01*
X85485098Y-78782824D01*
X85534666Y-79200451D01*
X85664757Y-79600383D01*
X85822786Y-79896038D01*
X86138347Y-80052048D01*
X87450395Y-78740000D01*
X87809605Y-78740000D01*
X89121653Y-80052048D01*
X89437214Y-79896038D01*
X89628020Y-79521255D01*
X89742044Y-79116449D01*
X89774902Y-78697176D01*
X89725334Y-78279549D01*
X89595243Y-77879617D01*
X89437214Y-77583962D01*
X89121653Y-77427952D01*
X87809605Y-78740000D01*
X87450395Y-78740000D01*
X86138347Y-77427952D01*
X85822786Y-77583962D01*
X85631980Y-77958745D01*
X85517956Y-78363551D01*
X85485098Y-78782824D01*
X84688072Y-78782824D01*
X84688072Y-77248347D01*
X86317952Y-77248347D01*
X87630000Y-78560395D01*
X88942048Y-77248347D01*
X88786038Y-76932786D01*
X88411255Y-76741980D01*
X88006449Y-76627956D01*
X87587176Y-76595098D01*
X87169549Y-76644666D01*
X86769617Y-76774757D01*
X86473962Y-76932786D01*
X86317952Y-77248347D01*
X84688072Y-77248347D01*
X84688072Y-77240000D01*
X84675812Y-77115518D01*
X84639502Y-76995820D01*
X84580537Y-76885506D01*
X84501185Y-76788815D01*
X84404494Y-76709463D01*
X84294180Y-76650498D01*
X84174482Y-76614188D01*
X84050000Y-76601928D01*
X81050000Y-76601928D01*
X80925518Y-76614188D01*
X80805820Y-76650498D01*
X80695506Y-76709463D01*
X80598815Y-76788815D01*
X80519463Y-76885506D01*
X80460498Y-76995820D01*
X80424188Y-77115518D01*
X80411928Y-77240000D01*
X80411928Y-77605000D01*
X80105751Y-77605000D01*
X80050000Y-77599509D01*
X79994248Y-77605000D01*
X79827501Y-77621423D01*
X79613553Y-77686324D01*
X79416377Y-77791716D01*
X79243551Y-77933551D01*
X79208009Y-77976859D01*
X77404990Y-79779879D01*
X77404990Y-78928010D01*
X80418001Y-75915000D01*
X91032000Y-75915000D01*
X92995000Y-77878000D01*
G36*
X124278815Y-121801185D02*
G01*
X124375506Y-121880537D01*
X124449335Y-121920000D01*
X124375506Y-121959463D01*
X124278815Y-122038815D01*
X124199463Y-122135506D01*
X124140498Y-122245820D01*
X124104188Y-122365518D01*
X124091928Y-122490000D01*
X124095000Y-122904250D01*
X124253750Y-123063000D01*
X125603000Y-123063000D01*
X125603000Y-123043000D01*
X125857000Y-123043000D01*
X125857000Y-123063000D01*
X125877000Y-123063000D01*
X125877000Y-123317000D01*
X125857000Y-123317000D01*
X125857000Y-123337000D01*
X125603000Y-123337000D01*
X125603000Y-123317000D01*
X124253750Y-123317000D01*
X124095000Y-123475750D01*
X124091928Y-123890000D01*
X124104188Y-124014482D01*
X124140498Y-124134180D01*
X124199463Y-124244494D01*
X124278815Y-124341185D01*
X124375506Y-124420537D01*
X124449335Y-124460000D01*
X124375506Y-124499463D01*
X124278815Y-124578815D01*
X124199463Y-124675506D01*
X124140498Y-124785820D01*
X124104188Y-124905518D01*
X124091928Y-125030000D01*
X124091928Y-126430000D01*
X124104188Y-126554482D01*
X124140498Y-126674180D01*
X124199463Y-126784494D01*
X124278815Y-126881185D01*
X124375506Y-126960537D01*
X124449335Y-127000000D01*
X124375506Y-127039463D01*
X124278815Y-127118815D01*
X124199463Y-127215506D01*
X124140498Y-127325820D01*
X124104188Y-127445518D01*
X124091928Y-127570000D01*
X124091928Y-128970000D01*
X124104188Y-129094482D01*
X124140498Y-129214180D01*
X124199463Y-129324494D01*
X124278815Y-129421185D01*
X124375506Y-129500537D01*
X124485820Y-129559502D01*
X124605518Y-129595812D01*
X124730000Y-129608072D01*
X126730000Y-129608072D01*
X126854482Y-129595812D01*
X126974180Y-129559502D01*
X127084494Y-129500537D01*
X127181185Y-129421185D01*
X127194468Y-129405000D01*
X128214249Y-129405000D01*
X128270000Y-129410491D01*
X128325751Y-129405000D01*
X128325752Y-129405000D01*
X128492499Y-129388577D01*
X128706447Y-129323676D01*
X128903623Y-129218284D01*
X129076449Y-129076449D01*
X129111996Y-129033135D01*
X130010132Y-128135000D01*
X130779814Y-128135000D01*
X130806812Y-128157157D01*
X131017927Y-128270000D01*
X130806812Y-128382843D01*
X130595919Y-128555919D01*
X130422843Y-128766812D01*
X130294236Y-129007419D01*
X130215040Y-129268493D01*
X130188299Y-129540000D01*
X130215040Y-129811507D01*
X130294236Y-130072581D01*
X130422843Y-130313188D01*
X130595919Y-130524081D01*
X130806812Y-130697157D01*
X131017927Y-130810000D01*
X130806812Y-130922843D01*
X130779814Y-130945000D01*
X129885741Y-130945000D01*
X129829999Y-130939510D01*
X129774257Y-130945000D01*
X129774248Y-130945000D01*
X129607501Y-130961423D01*
X129393553Y-131026324D01*
X129196377Y-131131716D01*
X129023551Y-131273551D01*
X128988011Y-131316857D01*
X125709850Y-134595019D01*
X111352315Y-134595019D01*
X111383622Y-134578285D01*
X111556448Y-134436450D01*
X111591995Y-134393136D01*
X124200132Y-121785000D01*
X124265532Y-121785000D01*
X124278815Y-121801185D01*
X124278815Y-121801185D01*
G37*
X124278815Y-121801185D02*
X124375506Y-121880537D01*
X124449335Y-121920000D01*
X124375506Y-121959463D01*
X124278815Y-122038815D01*
X124199463Y-122135506D01*
X124140498Y-122245820D01*
X124104188Y-122365518D01*
X124091928Y-122490000D01*
X124095000Y-122904250D01*
X124253750Y-123063000D01*
X125603000Y-123063000D01*
X125603000Y-123043000D01*
X125857000Y-123043000D01*
X125857000Y-123063000D01*
X125877000Y-123063000D01*
X125877000Y-123317000D01*
X125857000Y-123317000D01*
X125857000Y-123337000D01*
X125603000Y-123337000D01*
X125603000Y-123317000D01*
X124253750Y-123317000D01*
X124095000Y-123475750D01*
X124091928Y-123890000D01*
X124104188Y-124014482D01*
X124140498Y-124134180D01*
X124199463Y-124244494D01*
X124278815Y-124341185D01*
X124375506Y-124420537D01*
X124449335Y-124460000D01*
X124375506Y-124499463D01*
X124278815Y-124578815D01*
X124199463Y-124675506D01*
X124140498Y-124785820D01*
X124104188Y-124905518D01*
X124091928Y-125030000D01*
X124091928Y-126430000D01*
X124104188Y-126554482D01*
X124140498Y-126674180D01*
X124199463Y-126784494D01*
X124278815Y-126881185D01*
X124375506Y-126960537D01*
X124449335Y-127000000D01*
X124375506Y-127039463D01*
X124278815Y-127118815D01*
X124199463Y-127215506D01*
X124140498Y-127325820D01*
X124104188Y-127445518D01*
X124091928Y-127570000D01*
X124091928Y-128970000D01*
X124104188Y-129094482D01*
X124140498Y-129214180D01*
X124199463Y-129324494D01*
X124278815Y-129421185D01*
X124375506Y-129500537D01*
X124485820Y-129559502D01*
X124605518Y-129595812D01*
X124730000Y-129608072D01*
X126730000Y-129608072D01*
X126854482Y-129595812D01*
X126974180Y-129559502D01*
X127084494Y-129500537D01*
X127181185Y-129421185D01*
X127194468Y-129405000D01*
X128214249Y-129405000D01*
X128270000Y-129410491D01*
X128325751Y-129405000D01*
X128325752Y-129405000D01*
X128492499Y-129388577D01*
X128706447Y-129323676D01*
X128903623Y-129218284D01*
X129076449Y-129076449D01*
X129111996Y-129033135D01*
X130010132Y-128135000D01*
X130779814Y-128135000D01*
X130806812Y-128157157D01*
X131017927Y-128270000D01*
X130806812Y-128382843D01*
X130595919Y-128555919D01*
X130422843Y-128766812D01*
X130294236Y-129007419D01*
X130215040Y-129268493D01*
X130188299Y-129540000D01*
X130215040Y-129811507D01*
X130294236Y-130072581D01*
X130422843Y-130313188D01*
X130595919Y-130524081D01*
X130806812Y-130697157D01*
X131017927Y-130810000D01*
X130806812Y-130922843D01*
X130779814Y-130945000D01*
X129885741Y-130945000D01*
X129829999Y-130939510D01*
X129774257Y-130945000D01*
X129774248Y-130945000D01*
X129607501Y-130961423D01*
X129393553Y-131026324D01*
X129196377Y-131131716D01*
X129023551Y-131273551D01*
X128988011Y-131316857D01*
X125709850Y-134595019D01*
X111352315Y-134595019D01*
X111383622Y-134578285D01*
X111556448Y-134436450D01*
X111591995Y-134393136D01*
X124200132Y-121785000D01*
X124265532Y-121785000D01*
X124278815Y-121801185D01*
G36*
X103005000Y-131778251D02*
G01*
X102999509Y-131834002D01*
X103005000Y-131889753D01*
X103021423Y-132056500D01*
X103031730Y-132090476D01*
X102735000Y-131793747D01*
X102735000Y-128340957D01*
X102754494Y-128330537D01*
X102851185Y-128251185D01*
X102930537Y-128154494D01*
X102989502Y-128044180D01*
X103005000Y-127993089D01*
X103005000Y-131778251D01*
X103005000Y-131778251D01*
G37*
X103005000Y-131778251D02*
X102999509Y-131834002D01*
X103005000Y-131889753D01*
X103021423Y-132056500D01*
X103031730Y-132090476D01*
X102735000Y-131793747D01*
X102735000Y-128340957D01*
X102754494Y-128330537D01*
X102851185Y-128251185D01*
X102930537Y-128154494D01*
X102989502Y-128044180D01*
X103005000Y-127993089D01*
X103005000Y-131778251D01*
G36*
X136614990Y-114090122D02*
G01*
X136614990Y-114844862D01*
X136609499Y-114900613D01*
X136614990Y-114956364D01*
X136631413Y-115123111D01*
X136696314Y-115337059D01*
X136801706Y-115534236D01*
X136943541Y-115707062D01*
X136986855Y-115742609D01*
X137833040Y-116588795D01*
X137808299Y-116840000D01*
X137835040Y-117111507D01*
X137914236Y-117372581D01*
X138042843Y-117613188D01*
X138215919Y-117824081D01*
X138426812Y-117997157D01*
X138637927Y-118110000D01*
X138426812Y-118222843D01*
X138215919Y-118395919D01*
X138042843Y-118606812D01*
X137914236Y-118847419D01*
X137835040Y-119108493D01*
X137808299Y-119380000D01*
X137835040Y-119651507D01*
X137914236Y-119912581D01*
X138042843Y-120153188D01*
X138215919Y-120364081D01*
X138426812Y-120537157D01*
X138642578Y-120652486D01*
X138552651Y-120689028D01*
X138324939Y-120838972D01*
X138130855Y-121030460D01*
X137977858Y-121256132D01*
X137871827Y-121507316D01*
X137857682Y-121578815D01*
X137980344Y-121793000D01*
X139573000Y-121793000D01*
X139573000Y-121773000D01*
X139827000Y-121773000D01*
X139827000Y-121793000D01*
X139847000Y-121793000D01*
X139847000Y-122047000D01*
X139827000Y-122047000D01*
X139827000Y-124333000D01*
X141419656Y-124333000D01*
X141542318Y-124118815D01*
X141528173Y-124047316D01*
X141422142Y-123796132D01*
X141269145Y-123570460D01*
X141075061Y-123378972D01*
X140847349Y-123229028D01*
X140751303Y-123190000D01*
X140847349Y-123150972D01*
X141075061Y-123001028D01*
X141269145Y-122809540D01*
X141422142Y-122583868D01*
X141528173Y-122332684D01*
X141531374Y-122316505D01*
X142375000Y-123160132D01*
X142375000Y-124114249D01*
X142369509Y-124170000D01*
X142375000Y-124225751D01*
X142391423Y-124392498D01*
X142456324Y-124606446D01*
X142561716Y-124803623D01*
X142703551Y-124976449D01*
X142746865Y-125011996D01*
X144228009Y-126493140D01*
X144263551Y-126536449D01*
X144436377Y-126678284D01*
X144633553Y-126783676D01*
X144797705Y-126833471D01*
X144847500Y-126848577D01*
X145069999Y-126870491D01*
X145125751Y-126865000D01*
X146019814Y-126865000D01*
X146046812Y-126887157D01*
X146257927Y-127000000D01*
X146046812Y-127112843D01*
X146019814Y-127135000D01*
X141578405Y-127135000D01*
X141591701Y-127000000D01*
X141564960Y-126728493D01*
X141485764Y-126467419D01*
X141357157Y-126226812D01*
X141184081Y-126015919D01*
X140973188Y-125842843D01*
X140757422Y-125727514D01*
X140847349Y-125690972D01*
X141075061Y-125541028D01*
X141269145Y-125349540D01*
X141422142Y-125123868D01*
X141528173Y-124872684D01*
X141542318Y-124801185D01*
X141419656Y-124587000D01*
X139827000Y-124587000D01*
X139827000Y-124607000D01*
X139573000Y-124607000D01*
X139573000Y-124587000D01*
X137980344Y-124587000D01*
X137857682Y-124801185D01*
X137871827Y-124872684D01*
X137977858Y-125123868D01*
X138130855Y-125349540D01*
X138324939Y-125541028D01*
X138552651Y-125690972D01*
X138642578Y-125727514D01*
X138426812Y-125842843D01*
X138215919Y-126015919D01*
X138042843Y-126226812D01*
X137914236Y-126467419D01*
X137835040Y-126728493D01*
X137808299Y-127000000D01*
X137835040Y-127271507D01*
X137914236Y-127532581D01*
X138042843Y-127773188D01*
X138215919Y-127984081D01*
X138426812Y-128157157D01*
X138637927Y-128270000D01*
X138426812Y-128382843D01*
X138399814Y-128405000D01*
X137920132Y-128405000D01*
X136365020Y-126849889D01*
X136365020Y-122261185D01*
X137857682Y-122261185D01*
X137871827Y-122332684D01*
X137977858Y-122583868D01*
X138130855Y-122809540D01*
X138324939Y-123001028D01*
X138552651Y-123150972D01*
X138648697Y-123190000D01*
X138552651Y-123229028D01*
X138324939Y-123378972D01*
X138130855Y-123570460D01*
X137977858Y-123796132D01*
X137871827Y-124047316D01*
X137857682Y-124118815D01*
X137980344Y-124333000D01*
X139573000Y-124333000D01*
X139573000Y-122047000D01*
X137980344Y-122047000D01*
X137857682Y-122261185D01*
X136365020Y-122261185D01*
X136365018Y-113840150D01*
X136614990Y-114090122D01*
X136614990Y-114090122D01*
G37*
X136614990Y-114090122D02*
X136614990Y-114844862D01*
X136609499Y-114900613D01*
X136614990Y-114956364D01*
X136631413Y-115123111D01*
X136696314Y-115337059D01*
X136801706Y-115534236D01*
X136943541Y-115707062D01*
X136986855Y-115742609D01*
X137833040Y-116588795D01*
X137808299Y-116840000D01*
X137835040Y-117111507D01*
X137914236Y-117372581D01*
X138042843Y-117613188D01*
X138215919Y-117824081D01*
X138426812Y-117997157D01*
X138637927Y-118110000D01*
X138426812Y-118222843D01*
X138215919Y-118395919D01*
X138042843Y-118606812D01*
X137914236Y-118847419D01*
X137835040Y-119108493D01*
X137808299Y-119380000D01*
X137835040Y-119651507D01*
X137914236Y-119912581D01*
X138042843Y-120153188D01*
X138215919Y-120364081D01*
X138426812Y-120537157D01*
X138642578Y-120652486D01*
X138552651Y-120689028D01*
X138324939Y-120838972D01*
X138130855Y-121030460D01*
X137977858Y-121256132D01*
X137871827Y-121507316D01*
X137857682Y-121578815D01*
X137980344Y-121793000D01*
X139573000Y-121793000D01*
X139573000Y-121773000D01*
X139827000Y-121773000D01*
X139827000Y-121793000D01*
X139847000Y-121793000D01*
X139847000Y-122047000D01*
X139827000Y-122047000D01*
X139827000Y-124333000D01*
X141419656Y-124333000D01*
X141542318Y-124118815D01*
X141528173Y-124047316D01*
X141422142Y-123796132D01*
X141269145Y-123570460D01*
X141075061Y-123378972D01*
X140847349Y-123229028D01*
X140751303Y-123190000D01*
X140847349Y-123150972D01*
X141075061Y-123001028D01*
X141269145Y-122809540D01*
X141422142Y-122583868D01*
X141528173Y-122332684D01*
X141531374Y-122316505D01*
X142375000Y-123160132D01*
X142375000Y-124114249D01*
X142369509Y-124170000D01*
X142375000Y-124225751D01*
X142391423Y-124392498D01*
X142456324Y-124606446D01*
X142561716Y-124803623D01*
X142703551Y-124976449D01*
X142746865Y-125011996D01*
X144228009Y-126493140D01*
X144263551Y-126536449D01*
X144436377Y-126678284D01*
X144633553Y-126783676D01*
X144797705Y-126833471D01*
X144847500Y-126848577D01*
X145069999Y-126870491D01*
X145125751Y-126865000D01*
X146019814Y-126865000D01*
X146046812Y-126887157D01*
X146257927Y-127000000D01*
X146046812Y-127112843D01*
X146019814Y-127135000D01*
X141578405Y-127135000D01*
X141591701Y-127000000D01*
X141564960Y-126728493D01*
X141485764Y-126467419D01*
X141357157Y-126226812D01*
X141184081Y-126015919D01*
X140973188Y-125842843D01*
X140757422Y-125727514D01*
X140847349Y-125690972D01*
X141075061Y-125541028D01*
X141269145Y-125349540D01*
X141422142Y-125123868D01*
X141528173Y-124872684D01*
X141542318Y-124801185D01*
X141419656Y-124587000D01*
X139827000Y-124587000D01*
X139827000Y-124607000D01*
X139573000Y-124607000D01*
X139573000Y-124587000D01*
X137980344Y-124587000D01*
X137857682Y-124801185D01*
X137871827Y-124872684D01*
X137977858Y-125123868D01*
X138130855Y-125349540D01*
X138324939Y-125541028D01*
X138552651Y-125690972D01*
X138642578Y-125727514D01*
X138426812Y-125842843D01*
X138215919Y-126015919D01*
X138042843Y-126226812D01*
X137914236Y-126467419D01*
X137835040Y-126728493D01*
X137808299Y-127000000D01*
X137835040Y-127271507D01*
X137914236Y-127532581D01*
X138042843Y-127773188D01*
X138215919Y-127984081D01*
X138426812Y-128157157D01*
X138637927Y-128270000D01*
X138426812Y-128382843D01*
X138399814Y-128405000D01*
X137920132Y-128405000D01*
X136365020Y-126849889D01*
X136365020Y-122261185D01*
X137857682Y-122261185D01*
X137871827Y-122332684D01*
X137977858Y-122583868D01*
X138130855Y-122809540D01*
X138324939Y-123001028D01*
X138552651Y-123150972D01*
X138648697Y-123190000D01*
X138552651Y-123229028D01*
X138324939Y-123378972D01*
X138130855Y-123570460D01*
X137977858Y-123796132D01*
X137871827Y-124047316D01*
X137857682Y-124118815D01*
X137980344Y-124333000D01*
X139573000Y-124333000D01*
X139573000Y-122047000D01*
X137980344Y-122047000D01*
X137857682Y-122261185D01*
X136365020Y-122261185D01*
X136365018Y-113840150D01*
X136614990Y-114090122D01*
G36*
X132207000Y-121793000D02*
G01*
X132227000Y-121793000D01*
X132227000Y-122047000D01*
X132207000Y-122047000D01*
X132207000Y-124333000D01*
X132227000Y-124333000D01*
X132227000Y-124587000D01*
X132207000Y-124587000D01*
X132207000Y-124607000D01*
X131953000Y-124607000D01*
X131953000Y-124587000D01*
X130360344Y-124587000D01*
X130237682Y-124801185D01*
X130251827Y-124872684D01*
X130357858Y-125123868D01*
X130510855Y-125349540D01*
X130704939Y-125541028D01*
X130932651Y-125690972D01*
X131022578Y-125727514D01*
X130806812Y-125842843D01*
X130779814Y-125865000D01*
X129595743Y-125865000D01*
X129539999Y-125859510D01*
X129484255Y-125865000D01*
X129484248Y-125865000D01*
X129338493Y-125879356D01*
X129317500Y-125881423D01*
X129267705Y-125896529D01*
X129103553Y-125946324D01*
X128906377Y-126051716D01*
X128733551Y-126193551D01*
X128698011Y-126236857D01*
X127799869Y-127135000D01*
X127194468Y-127135000D01*
X127181185Y-127118815D01*
X127084494Y-127039463D01*
X127010665Y-127000000D01*
X127084494Y-126960537D01*
X127181185Y-126881185D01*
X127206666Y-126850136D01*
X127222499Y-126848577D01*
X127436447Y-126783676D01*
X127633623Y-126678284D01*
X127806449Y-126536449D01*
X127841996Y-126493135D01*
X129033140Y-125301992D01*
X129076449Y-125266449D01*
X129218284Y-125093623D01*
X129323676Y-124896447D01*
X129388577Y-124682499D01*
X129405000Y-124515752D01*
X129405000Y-124515745D01*
X129410490Y-124460001D01*
X129405000Y-124404257D01*
X129405000Y-123660131D01*
X130407719Y-122657413D01*
X130510855Y-122809540D01*
X130704939Y-123001028D01*
X130932651Y-123150972D01*
X131028697Y-123190000D01*
X130932651Y-123229028D01*
X130704939Y-123378972D01*
X130510855Y-123570460D01*
X130357858Y-123796132D01*
X130251827Y-124047316D01*
X130237682Y-124118815D01*
X130360344Y-124333000D01*
X131953000Y-124333000D01*
X131953000Y-122047000D01*
X131933000Y-122047000D01*
X131933000Y-121793000D01*
X131953000Y-121793000D01*
X131953000Y-121773000D01*
X132207000Y-121773000D01*
X132207000Y-121793000D01*
X132207000Y-121793000D01*
G37*
X132207000Y-121793000D02*
X132227000Y-121793000D01*
X132227000Y-122047000D01*
X132207000Y-122047000D01*
X132207000Y-124333000D01*
X132227000Y-124333000D01*
X132227000Y-124587000D01*
X132207000Y-124587000D01*
X132207000Y-124607000D01*
X131953000Y-124607000D01*
X131953000Y-124587000D01*
X130360344Y-124587000D01*
X130237682Y-124801185D01*
X130251827Y-124872684D01*
X130357858Y-125123868D01*
X130510855Y-125349540D01*
X130704939Y-125541028D01*
X130932651Y-125690972D01*
X131022578Y-125727514D01*
X130806812Y-125842843D01*
X130779814Y-125865000D01*
X129595743Y-125865000D01*
X129539999Y-125859510D01*
X129484255Y-125865000D01*
X129484248Y-125865000D01*
X129338493Y-125879356D01*
X129317500Y-125881423D01*
X129267705Y-125896529D01*
X129103553Y-125946324D01*
X128906377Y-126051716D01*
X128733551Y-126193551D01*
X128698011Y-126236857D01*
X127799869Y-127135000D01*
X127194468Y-127135000D01*
X127181185Y-127118815D01*
X127084494Y-127039463D01*
X127010665Y-127000000D01*
X127084494Y-126960537D01*
X127181185Y-126881185D01*
X127206666Y-126850136D01*
X127222499Y-126848577D01*
X127436447Y-126783676D01*
X127633623Y-126678284D01*
X127806449Y-126536449D01*
X127841996Y-126493135D01*
X129033140Y-125301992D01*
X129076449Y-125266449D01*
X129218284Y-125093623D01*
X129323676Y-124896447D01*
X129388577Y-124682499D01*
X129405000Y-124515752D01*
X129405000Y-124515745D01*
X129410490Y-124460001D01*
X129405000Y-124404257D01*
X129405000Y-123660131D01*
X130407719Y-122657413D01*
X130510855Y-122809540D01*
X130704939Y-123001028D01*
X130932651Y-123150972D01*
X131028697Y-123190000D01*
X130932651Y-123229028D01*
X130704939Y-123378972D01*
X130510855Y-123570460D01*
X130357858Y-123796132D01*
X130251827Y-124047316D01*
X130237682Y-124118815D01*
X130360344Y-124333000D01*
X131953000Y-124333000D01*
X131953000Y-122047000D01*
X131933000Y-122047000D01*
X131933000Y-121793000D01*
X131953000Y-121793000D01*
X131953000Y-121773000D01*
X132207000Y-121773000D01*
X132207000Y-121793000D01*
G36*
X106807000Y-116713000D02*
G01*
X106827000Y-116713000D01*
X106827000Y-116967000D01*
X106807000Y-116967000D01*
X106807000Y-116987000D01*
X106553000Y-116987000D01*
X106553000Y-116967000D01*
X106533000Y-116967000D01*
X106533000Y-116713000D01*
X106553000Y-116713000D01*
X106553000Y-116693000D01*
X106807000Y-116693000D01*
X106807000Y-116713000D01*
X106807000Y-116713000D01*
G37*
X106807000Y-116713000D02*
X106827000Y-116713000D01*
X106827000Y-116967000D01*
X106807000Y-116967000D01*
X106807000Y-116987000D01*
X106553000Y-116987000D01*
X106553000Y-116967000D01*
X106533000Y-116967000D01*
X106533000Y-116713000D01*
X106553000Y-116713000D01*
X106553000Y-116693000D01*
X106807000Y-116693000D01*
X106807000Y-116713000D01*
G36*
X108085000Y-116362853D02*
G01*
X108076825Y-116335901D01*
X107951641Y-116073080D01*
X107777588Y-115839731D01*
X107693534Y-115763966D01*
X107774180Y-115739502D01*
X107884494Y-115680537D01*
X107981185Y-115601185D01*
X108060537Y-115504494D01*
X108085000Y-115458727D01*
X108085000Y-116362853D01*
X108085000Y-116362853D01*
G37*
X108085000Y-116362853D02*
X108076825Y-116335901D01*
X107951641Y-116073080D01*
X107777588Y-115839731D01*
X107693534Y-115763966D01*
X107774180Y-115739502D01*
X107884494Y-115680537D01*
X107981185Y-115601185D01*
X108060537Y-115504494D01*
X108085000Y-115458727D01*
X108085000Y-116362853D01*
G36*
X82431928Y-92690000D02*
G01*
X82444188Y-92814482D01*
X82480498Y-92934180D01*
X82539463Y-93044494D01*
X82618815Y-93141185D01*
X82715506Y-93220537D01*
X82825820Y-93279502D01*
X82945518Y-93315812D01*
X83070000Y-93328072D01*
X84570000Y-93328072D01*
X84694482Y-93315812D01*
X84814180Y-93279502D01*
X84924494Y-93220537D01*
X85021185Y-93141185D01*
X85090000Y-93057333D01*
X85158815Y-93141185D01*
X85181939Y-93160162D01*
X85088320Y-93300273D01*
X84980147Y-93561426D01*
X84925000Y-93838665D01*
X84925000Y-94121335D01*
X84980147Y-94398574D01*
X85088320Y-94659727D01*
X85245363Y-94894759D01*
X85445241Y-95094637D01*
X85680273Y-95251680D01*
X85941426Y-95359853D01*
X86218665Y-95415000D01*
X86501335Y-95415000D01*
X86778574Y-95359853D01*
X87039727Y-95251680D01*
X87274759Y-95094637D01*
X87474637Y-94894759D01*
X87631680Y-94659727D01*
X87739853Y-94398574D01*
X87795000Y-94121335D01*
X87795000Y-93838665D01*
X87739853Y-93561426D01*
X87631680Y-93300273D01*
X87538061Y-93160162D01*
X87561185Y-93141185D01*
X87630000Y-93057333D01*
X87698815Y-93141185D01*
X87795506Y-93220537D01*
X87905820Y-93279502D01*
X88025518Y-93315812D01*
X88150000Y-93328072D01*
X89105000Y-93328072D01*
X89104999Y-94579620D01*
X89100234Y-94628001D01*
X89104999Y-94676380D01*
X89119252Y-94821094D01*
X89175575Y-95006767D01*
X89267039Y-95177885D01*
X89390129Y-95327871D01*
X89427715Y-95358717D01*
X91251287Y-97182290D01*
X91282128Y-97219870D01*
X91319707Y-97250710D01*
X91432114Y-97342960D01*
X91603231Y-97434424D01*
X91788904Y-97490747D01*
X91981998Y-97509765D01*
X92030378Y-97505000D01*
X114092002Y-97505000D01*
X121528930Y-104941928D01*
X121270000Y-104941928D01*
X121145518Y-104954188D01*
X121025820Y-104990498D01*
X120915506Y-105049463D01*
X120818815Y-105128815D01*
X120739463Y-105225506D01*
X120734409Y-105234961D01*
X120719502Y-105185820D01*
X120660537Y-105075506D01*
X120581185Y-104978815D01*
X120484494Y-104899463D01*
X120374180Y-104840498D01*
X120254482Y-104804188D01*
X120130000Y-104791928D01*
X118630000Y-104791928D01*
X118505518Y-104804188D01*
X118385820Y-104840498D01*
X118275506Y-104899463D01*
X118178815Y-104978815D01*
X118110000Y-105062667D01*
X118041185Y-104978815D01*
X117944494Y-104899463D01*
X117834180Y-104840498D01*
X117714482Y-104804188D01*
X117590000Y-104791928D01*
X116090000Y-104791928D01*
X115965518Y-104804188D01*
X115845820Y-104840498D01*
X115735506Y-104899463D01*
X115638815Y-104978815D01*
X115570000Y-105062667D01*
X115501185Y-104978815D01*
X115404494Y-104899463D01*
X115294180Y-104840498D01*
X115174482Y-104804188D01*
X115050000Y-104791928D01*
X113550000Y-104791928D01*
X113425518Y-104804188D01*
X113305820Y-104840498D01*
X113195506Y-104899463D01*
X113098815Y-104978815D01*
X113030000Y-105062667D01*
X112961185Y-104978815D01*
X112864494Y-104899463D01*
X112754180Y-104840498D01*
X112634482Y-104804188D01*
X112510000Y-104791928D01*
X111010000Y-104791928D01*
X110885518Y-104804188D01*
X110765820Y-104840498D01*
X110655506Y-104899463D01*
X110558815Y-104978815D01*
X110490000Y-105062667D01*
X110421185Y-104978815D01*
X110324494Y-104899463D01*
X110214180Y-104840498D01*
X110094482Y-104804188D01*
X109970000Y-104791928D01*
X108470000Y-104791928D01*
X108345518Y-104804188D01*
X108225820Y-104840498D01*
X108115506Y-104899463D01*
X108018815Y-104978815D01*
X107950000Y-105062667D01*
X107881185Y-104978815D01*
X107784494Y-104899463D01*
X107674180Y-104840498D01*
X107554482Y-104804188D01*
X107430000Y-104791928D01*
X105930000Y-104791928D01*
X105805518Y-104804188D01*
X105685820Y-104840498D01*
X105575506Y-104899463D01*
X105478815Y-104978815D01*
X105410000Y-105062667D01*
X105341185Y-104978815D01*
X105244494Y-104899463D01*
X105134180Y-104840498D01*
X105014482Y-104804188D01*
X104890000Y-104791928D01*
X103390000Y-104791928D01*
X103265518Y-104804188D01*
X103145820Y-104840498D01*
X103035506Y-104899463D01*
X102938815Y-104978815D01*
X102870000Y-105062667D01*
X102801185Y-104978815D01*
X102704494Y-104899463D01*
X102594180Y-104840498D01*
X102474482Y-104804188D01*
X102350000Y-104791928D01*
X101247468Y-104791928D01*
X101444637Y-104594759D01*
X101601680Y-104359727D01*
X101709853Y-104098574D01*
X101765000Y-103821335D01*
X101765000Y-103538665D01*
X101709853Y-103261426D01*
X101601680Y-103000273D01*
X101444637Y-102765241D01*
X101244759Y-102565363D01*
X101009727Y-102408320D01*
X100748574Y-102300147D01*
X100471335Y-102245000D01*
X100188665Y-102245000D01*
X99911426Y-102300147D01*
X99650273Y-102408320D01*
X99415241Y-102565363D01*
X99215363Y-102765241D01*
X99060000Y-102997759D01*
X98904637Y-102765241D01*
X98704759Y-102565363D01*
X98469727Y-102408320D01*
X98208574Y-102300147D01*
X98102485Y-102279044D01*
X98155000Y-102015033D01*
X98155000Y-101692967D01*
X98092168Y-101377088D01*
X97968918Y-101079537D01*
X97789987Y-100811748D01*
X97562252Y-100584013D01*
X97294463Y-100405082D01*
X96996912Y-100281832D01*
X96681033Y-100219000D01*
X96358967Y-100219000D01*
X96043088Y-100281832D01*
X95745537Y-100405082D01*
X95477748Y-100584013D01*
X95250013Y-100811748D01*
X95071082Y-101079537D01*
X94947832Y-101377088D01*
X94885000Y-101692967D01*
X94885000Y-102015033D01*
X94937515Y-102279044D01*
X94831426Y-102300147D01*
X94570273Y-102408320D01*
X94335241Y-102565363D01*
X94135363Y-102765241D01*
X93980000Y-102997759D01*
X93824637Y-102765241D01*
X93624759Y-102565363D01*
X93389727Y-102408320D01*
X93128574Y-102300147D01*
X92851335Y-102245000D01*
X92568665Y-102245000D01*
X92291426Y-102300147D01*
X92030273Y-102408320D01*
X91795241Y-102565363D01*
X91595363Y-102765241D01*
X91440000Y-102997759D01*
X91284637Y-102765241D01*
X91084759Y-102565363D01*
X90849727Y-102408320D01*
X90588574Y-102300147D01*
X90311335Y-102245000D01*
X90028665Y-102245000D01*
X89751426Y-102300147D01*
X89490273Y-102408320D01*
X89255241Y-102565363D01*
X89055363Y-102765241D01*
X88898320Y-103000273D01*
X88790147Y-103261426D01*
X88735000Y-103538665D01*
X88735000Y-103821335D01*
X88790147Y-104098574D01*
X88898320Y-104359727D01*
X89055363Y-104594759D01*
X89252532Y-104791928D01*
X88150000Y-104791928D01*
X88025518Y-104804188D01*
X87905820Y-104840498D01*
X87795506Y-104899463D01*
X87698815Y-104978815D01*
X87630000Y-105062667D01*
X87561185Y-104978815D01*
X87464494Y-104899463D01*
X87354180Y-104840498D01*
X87234482Y-104804188D01*
X87110000Y-104791928D01*
X85610000Y-104791928D01*
X85485518Y-104804188D01*
X85365820Y-104840498D01*
X85255506Y-104899463D01*
X85158815Y-104978815D01*
X85079463Y-105075506D01*
X85020498Y-105185820D01*
X84984188Y-105305518D01*
X84979459Y-105353537D01*
X84974494Y-105349463D01*
X84864180Y-105290498D01*
X84744482Y-105254188D01*
X84620000Y-105241928D01*
X84105750Y-105245000D01*
X83947000Y-105403750D01*
X83947000Y-106553000D01*
X83967000Y-106553000D01*
X83967000Y-106807000D01*
X83947000Y-106807000D01*
X83947000Y-107956250D01*
X84105750Y-108115000D01*
X84620000Y-108118072D01*
X84744482Y-108105812D01*
X84864180Y-108069502D01*
X84974494Y-108010537D01*
X84979459Y-108006463D01*
X84984188Y-108054482D01*
X85020498Y-108174180D01*
X85079463Y-108284494D01*
X85158815Y-108381185D01*
X85255506Y-108460537D01*
X85365820Y-108519502D01*
X85485518Y-108555812D01*
X85610000Y-108568072D01*
X87110000Y-108568072D01*
X87234482Y-108555812D01*
X87354180Y-108519502D01*
X87464494Y-108460537D01*
X87561185Y-108381185D01*
X87630000Y-108297333D01*
X87698815Y-108381185D01*
X87795506Y-108460537D01*
X87905820Y-108519502D01*
X88025518Y-108555812D01*
X88150000Y-108568072D01*
X89650000Y-108568072D01*
X89774482Y-108555812D01*
X89894180Y-108519502D01*
X90004494Y-108460537D01*
X90101185Y-108381185D01*
X90170000Y-108297333D01*
X90238815Y-108381185D01*
X90335506Y-108460537D01*
X90445820Y-108519502D01*
X90565518Y-108555812D01*
X90690000Y-108568072D01*
X92190000Y-108568072D01*
X92314482Y-108555812D01*
X92434180Y-108519502D01*
X92544494Y-108460537D01*
X92641185Y-108381185D01*
X92710000Y-108297333D01*
X92778815Y-108381185D01*
X92875506Y-108460537D01*
X92985820Y-108519502D01*
X93105518Y-108555812D01*
X93230000Y-108568072D01*
X94730000Y-108568072D01*
X94854482Y-108555812D01*
X94974180Y-108519502D01*
X95084494Y-108460537D01*
X95181185Y-108381185D01*
X95250000Y-108297333D01*
X95318815Y-108381185D01*
X95415506Y-108460537D01*
X95525820Y-108519502D01*
X95645518Y-108555812D01*
X95770000Y-108568072D01*
X97270000Y-108568072D01*
X97394482Y-108555812D01*
X97514180Y-108519502D01*
X97624494Y-108460537D01*
X97721185Y-108381185D01*
X97790000Y-108297333D01*
X97858815Y-108381185D01*
X97955506Y-108460537D01*
X98065820Y-108519502D01*
X98185518Y-108555812D01*
X98310000Y-108568072D01*
X99810000Y-108568072D01*
X99934482Y-108555812D01*
X100054180Y-108519502D01*
X100164494Y-108460537D01*
X100261185Y-108381185D01*
X100330000Y-108297333D01*
X100398815Y-108381185D01*
X100495506Y-108460537D01*
X100605820Y-108519502D01*
X100725518Y-108555812D01*
X100850000Y-108568072D01*
X102350000Y-108568072D01*
X102474482Y-108555812D01*
X102594180Y-108519502D01*
X102704494Y-108460537D01*
X102801185Y-108381185D01*
X102870000Y-108297333D01*
X102938815Y-108381185D01*
X103035506Y-108460537D01*
X103145820Y-108519502D01*
X103265518Y-108555812D01*
X103390000Y-108568072D01*
X103922941Y-108568072D01*
X105574724Y-110219856D01*
X105621705Y-110307752D01*
X105763540Y-110480578D01*
X105806854Y-110516125D01*
X108085001Y-112794273D01*
X108085001Y-113141274D01*
X108060537Y-113095506D01*
X107981185Y-112998815D01*
X107884494Y-112919463D01*
X107774180Y-112860498D01*
X107654482Y-112824188D01*
X107530000Y-112811928D01*
X105830000Y-112811928D01*
X105705518Y-112824188D01*
X105585820Y-112860498D01*
X105475506Y-112919463D01*
X105378815Y-112998815D01*
X105299463Y-113095506D01*
X105262317Y-113165000D01*
X104195752Y-113165000D01*
X104140000Y-113159509D01*
X104084249Y-113165000D01*
X99561611Y-113165000D01*
X99561611Y-111662500D01*
X97289230Y-111662500D01*
X97289230Y-113165000D01*
X97020198Y-113165000D01*
X97020198Y-111662500D01*
X94747817Y-111662500D01*
X94747817Y-113165000D01*
X94475121Y-113165000D01*
X94475121Y-111662500D01*
X92202740Y-111662500D01*
X92202740Y-113165000D01*
X91359352Y-113165000D01*
X91303600Y-113159509D01*
X91081101Y-113181423D01*
X90867153Y-113246324D01*
X90669977Y-113351716D01*
X90540456Y-113458011D01*
X90540455Y-113458012D01*
X90497151Y-113493551D01*
X90461613Y-113536854D01*
X88831800Y-115166668D01*
X88147632Y-114482500D01*
X89401611Y-114482500D01*
X89401611Y-111662500D01*
X87129230Y-111662500D01*
X87129230Y-113464098D01*
X86860198Y-113195066D01*
X86860198Y-111662500D01*
X84587817Y-111662500D01*
X84587817Y-111895000D01*
X84315121Y-111895000D01*
X84315121Y-111662500D01*
X82787632Y-111662500D01*
X81145000Y-110019869D01*
X81145000Y-107480000D01*
X82381928Y-107480000D01*
X82394188Y-107604482D01*
X82430498Y-107724180D01*
X82489463Y-107834494D01*
X82568815Y-107931185D01*
X82665506Y-108010537D01*
X82775820Y-108069502D01*
X82895518Y-108105812D01*
X83020000Y-108118072D01*
X83534250Y-108115000D01*
X83693000Y-107956250D01*
X83693000Y-106807000D01*
X82543750Y-106807000D01*
X82385000Y-106965750D01*
X82381928Y-107480000D01*
X81145000Y-107480000D01*
X81145000Y-105880000D01*
X82381928Y-105880000D01*
X82385000Y-106394250D01*
X82543750Y-106553000D01*
X83693000Y-106553000D01*
X83693000Y-105403750D01*
X83534250Y-105245000D01*
X83020000Y-105241928D01*
X82895518Y-105254188D01*
X82775820Y-105290498D01*
X82665506Y-105349463D01*
X82568815Y-105428815D01*
X82489463Y-105525506D01*
X82430498Y-105635820D01*
X82394188Y-105755518D01*
X82381928Y-105880000D01*
X81145000Y-105880000D01*
X81145000Y-101628849D01*
X84074000Y-101628849D01*
X84074000Y-102079151D01*
X84161850Y-102520802D01*
X84334173Y-102936827D01*
X84584348Y-103311240D01*
X84902760Y-103629652D01*
X85277173Y-103879827D01*
X85693198Y-104052150D01*
X86134849Y-104140000D01*
X86585151Y-104140000D01*
X87026802Y-104052150D01*
X87442827Y-103879827D01*
X87817240Y-103629652D01*
X88135652Y-103311240D01*
X88385827Y-102936827D01*
X88558150Y-102520802D01*
X88646000Y-102079151D01*
X88646000Y-101628849D01*
X88558150Y-101187198D01*
X88385827Y-100771173D01*
X88135652Y-100396760D01*
X87817240Y-100078348D01*
X87442827Y-99828173D01*
X87026802Y-99655850D01*
X86585151Y-99568000D01*
X86134849Y-99568000D01*
X85693198Y-99655850D01*
X85277173Y-99828173D01*
X84902760Y-100078348D01*
X84584348Y-100396760D01*
X84334173Y-100771173D01*
X84161850Y-101187198D01*
X84074000Y-101628849D01*
X81145000Y-101628849D01*
X81145000Y-93180131D01*
X81750132Y-92575000D01*
X82431928Y-92575000D01*
X82431928Y-92690000D01*
X82431928Y-92690000D01*
G37*
X82431928Y-92690000D02*
X82444188Y-92814482D01*
X82480498Y-92934180D01*
X82539463Y-93044494D01*
X82618815Y-93141185D01*
X82715506Y-93220537D01*
X82825820Y-93279502D01*
X82945518Y-93315812D01*
X83070000Y-93328072D01*
X84570000Y-93328072D01*
X84694482Y-93315812D01*
X84814180Y-93279502D01*
X84924494Y-93220537D01*
X85021185Y-93141185D01*
X85090000Y-93057333D01*
X85158815Y-93141185D01*
X85181939Y-93160162D01*
X85088320Y-93300273D01*
X84980147Y-93561426D01*
X84925000Y-93838665D01*
X84925000Y-94121335D01*
X84980147Y-94398574D01*
X85088320Y-94659727D01*
X85245363Y-94894759D01*
X85445241Y-95094637D01*
X85680273Y-95251680D01*
X85941426Y-95359853D01*
X86218665Y-95415000D01*
X86501335Y-95415000D01*
X86778574Y-95359853D01*
X87039727Y-95251680D01*
X87274759Y-95094637D01*
X87474637Y-94894759D01*
X87631680Y-94659727D01*
X87739853Y-94398574D01*
X87795000Y-94121335D01*
X87795000Y-93838665D01*
X87739853Y-93561426D01*
X87631680Y-93300273D01*
X87538061Y-93160162D01*
X87561185Y-93141185D01*
X87630000Y-93057333D01*
X87698815Y-93141185D01*
X87795506Y-93220537D01*
X87905820Y-93279502D01*
X88025518Y-93315812D01*
X88150000Y-93328072D01*
X89105000Y-93328072D01*
X89104999Y-94579620D01*
X89100234Y-94628001D01*
X89104999Y-94676380D01*
X89119252Y-94821094D01*
X89175575Y-95006767D01*
X89267039Y-95177885D01*
X89390129Y-95327871D01*
X89427715Y-95358717D01*
X91251287Y-97182290D01*
X91282128Y-97219870D01*
X91319707Y-97250710D01*
X91432114Y-97342960D01*
X91603231Y-97434424D01*
X91788904Y-97490747D01*
X91981998Y-97509765D01*
X92030378Y-97505000D01*
X114092002Y-97505000D01*
X121528930Y-104941928D01*
X121270000Y-104941928D01*
X121145518Y-104954188D01*
X121025820Y-104990498D01*
X120915506Y-105049463D01*
X120818815Y-105128815D01*
X120739463Y-105225506D01*
X120734409Y-105234961D01*
X120719502Y-105185820D01*
X120660537Y-105075506D01*
X120581185Y-104978815D01*
X120484494Y-104899463D01*
X120374180Y-104840498D01*
X120254482Y-104804188D01*
X120130000Y-104791928D01*
X118630000Y-104791928D01*
X118505518Y-104804188D01*
X118385820Y-104840498D01*
X118275506Y-104899463D01*
X118178815Y-104978815D01*
X118110000Y-105062667D01*
X118041185Y-104978815D01*
X117944494Y-104899463D01*
X117834180Y-104840498D01*
X117714482Y-104804188D01*
X117590000Y-104791928D01*
X116090000Y-104791928D01*
X115965518Y-104804188D01*
X115845820Y-104840498D01*
X115735506Y-104899463D01*
X115638815Y-104978815D01*
X115570000Y-105062667D01*
X115501185Y-104978815D01*
X115404494Y-104899463D01*
X115294180Y-104840498D01*
X115174482Y-104804188D01*
X115050000Y-104791928D01*
X113550000Y-104791928D01*
X113425518Y-104804188D01*
X113305820Y-104840498D01*
X113195506Y-104899463D01*
X113098815Y-104978815D01*
X113030000Y-105062667D01*
X112961185Y-104978815D01*
X112864494Y-104899463D01*
X112754180Y-104840498D01*
X112634482Y-104804188D01*
X112510000Y-104791928D01*
X111010000Y-104791928D01*
X110885518Y-104804188D01*
X110765820Y-104840498D01*
X110655506Y-104899463D01*
X110558815Y-104978815D01*
X110490000Y-105062667D01*
X110421185Y-104978815D01*
X110324494Y-104899463D01*
X110214180Y-104840498D01*
X110094482Y-104804188D01*
X109970000Y-104791928D01*
X108470000Y-104791928D01*
X108345518Y-104804188D01*
X108225820Y-104840498D01*
X108115506Y-104899463D01*
X108018815Y-104978815D01*
X107950000Y-105062667D01*
X107881185Y-104978815D01*
X107784494Y-104899463D01*
X107674180Y-104840498D01*
X107554482Y-104804188D01*
X107430000Y-104791928D01*
X105930000Y-104791928D01*
X105805518Y-104804188D01*
X105685820Y-104840498D01*
X105575506Y-104899463D01*
X105478815Y-104978815D01*
X105410000Y-105062667D01*
X105341185Y-104978815D01*
X105244494Y-104899463D01*
X105134180Y-104840498D01*
X105014482Y-104804188D01*
X104890000Y-104791928D01*
X103390000Y-104791928D01*
X103265518Y-104804188D01*
X103145820Y-104840498D01*
X103035506Y-104899463D01*
X102938815Y-104978815D01*
X102870000Y-105062667D01*
X102801185Y-104978815D01*
X102704494Y-104899463D01*
X102594180Y-104840498D01*
X102474482Y-104804188D01*
X102350000Y-104791928D01*
X101247468Y-104791928D01*
X101444637Y-104594759D01*
X101601680Y-104359727D01*
X101709853Y-104098574D01*
X101765000Y-103821335D01*
X101765000Y-103538665D01*
X101709853Y-103261426D01*
X101601680Y-103000273D01*
X101444637Y-102765241D01*
X101244759Y-102565363D01*
X101009727Y-102408320D01*
X100748574Y-102300147D01*
X100471335Y-102245000D01*
X100188665Y-102245000D01*
X99911426Y-102300147D01*
X99650273Y-102408320D01*
X99415241Y-102565363D01*
X99215363Y-102765241D01*
X99060000Y-102997759D01*
X98904637Y-102765241D01*
X98704759Y-102565363D01*
X98469727Y-102408320D01*
X98208574Y-102300147D01*
X98102485Y-102279044D01*
X98155000Y-102015033D01*
X98155000Y-101692967D01*
X98092168Y-101377088D01*
X97968918Y-101079537D01*
X97789987Y-100811748D01*
X97562252Y-100584013D01*
X97294463Y-100405082D01*
X96996912Y-100281832D01*
X96681033Y-100219000D01*
X96358967Y-100219000D01*
X96043088Y-100281832D01*
X95745537Y-100405082D01*
X95477748Y-100584013D01*
X95250013Y-100811748D01*
X95071082Y-101079537D01*
X94947832Y-101377088D01*
X94885000Y-101692967D01*
X94885000Y-102015033D01*
X94937515Y-102279044D01*
X94831426Y-102300147D01*
X94570273Y-102408320D01*
X94335241Y-102565363D01*
X94135363Y-102765241D01*
X93980000Y-102997759D01*
X93824637Y-102765241D01*
X93624759Y-102565363D01*
X93389727Y-102408320D01*
X93128574Y-102300147D01*
X92851335Y-102245000D01*
X92568665Y-102245000D01*
X92291426Y-102300147D01*
X92030273Y-102408320D01*
X91795241Y-102565363D01*
X91595363Y-102765241D01*
X91440000Y-102997759D01*
X91284637Y-102765241D01*
X91084759Y-102565363D01*
X90849727Y-102408320D01*
X90588574Y-102300147D01*
X90311335Y-102245000D01*
X90028665Y-102245000D01*
X89751426Y-102300147D01*
X89490273Y-102408320D01*
X89255241Y-102565363D01*
X89055363Y-102765241D01*
X88898320Y-103000273D01*
X88790147Y-103261426D01*
X88735000Y-103538665D01*
X88735000Y-103821335D01*
X88790147Y-104098574D01*
X88898320Y-104359727D01*
X89055363Y-104594759D01*
X89252532Y-104791928D01*
X88150000Y-104791928D01*
X88025518Y-104804188D01*
X87905820Y-104840498D01*
X87795506Y-104899463D01*
X87698815Y-104978815D01*
X87630000Y-105062667D01*
X87561185Y-104978815D01*
X87464494Y-104899463D01*
X87354180Y-104840498D01*
X87234482Y-104804188D01*
X87110000Y-104791928D01*
X85610000Y-104791928D01*
X85485518Y-104804188D01*
X85365820Y-104840498D01*
X85255506Y-104899463D01*
X85158815Y-104978815D01*
X85079463Y-105075506D01*
X85020498Y-105185820D01*
X84984188Y-105305518D01*
X84979459Y-105353537D01*
X84974494Y-105349463D01*
X84864180Y-105290498D01*
X84744482Y-105254188D01*
X84620000Y-105241928D01*
X84105750Y-105245000D01*
X83947000Y-105403750D01*
X83947000Y-106553000D01*
X83967000Y-106553000D01*
X83967000Y-106807000D01*
X83947000Y-106807000D01*
X83947000Y-107956250D01*
X84105750Y-108115000D01*
X84620000Y-108118072D01*
X84744482Y-108105812D01*
X84864180Y-108069502D01*
X84974494Y-108010537D01*
X84979459Y-108006463D01*
X84984188Y-108054482D01*
X85020498Y-108174180D01*
X85079463Y-108284494D01*
X85158815Y-108381185D01*
X85255506Y-108460537D01*
X85365820Y-108519502D01*
X85485518Y-108555812D01*
X85610000Y-108568072D01*
X87110000Y-108568072D01*
X87234482Y-108555812D01*
X87354180Y-108519502D01*
X87464494Y-108460537D01*
X87561185Y-108381185D01*
X87630000Y-108297333D01*
X87698815Y-108381185D01*
X87795506Y-108460537D01*
X87905820Y-108519502D01*
X88025518Y-108555812D01*
X88150000Y-108568072D01*
X89650000Y-108568072D01*
X89774482Y-108555812D01*
X89894180Y-108519502D01*
X90004494Y-108460537D01*
X90101185Y-108381185D01*
X90170000Y-108297333D01*
X90238815Y-108381185D01*
X90335506Y-108460537D01*
X90445820Y-108519502D01*
X90565518Y-108555812D01*
X90690000Y-108568072D01*
X92190000Y-108568072D01*
X92314482Y-108555812D01*
X92434180Y-108519502D01*
X92544494Y-108460537D01*
X92641185Y-108381185D01*
X92710000Y-108297333D01*
X92778815Y-108381185D01*
X92875506Y-108460537D01*
X92985820Y-108519502D01*
X93105518Y-108555812D01*
X93230000Y-108568072D01*
X94730000Y-108568072D01*
X94854482Y-108555812D01*
X94974180Y-108519502D01*
X95084494Y-108460537D01*
X95181185Y-108381185D01*
X95250000Y-108297333D01*
X95318815Y-108381185D01*
X95415506Y-108460537D01*
X95525820Y-108519502D01*
X95645518Y-108555812D01*
X95770000Y-108568072D01*
X97270000Y-108568072D01*
X97394482Y-108555812D01*
X97514180Y-108519502D01*
X97624494Y-108460537D01*
X97721185Y-108381185D01*
X97790000Y-108297333D01*
X97858815Y-108381185D01*
X97955506Y-108460537D01*
X98065820Y-108519502D01*
X98185518Y-108555812D01*
X98310000Y-108568072D01*
X99810000Y-108568072D01*
X99934482Y-108555812D01*
X100054180Y-108519502D01*
X100164494Y-108460537D01*
X100261185Y-108381185D01*
X100330000Y-108297333D01*
X100398815Y-108381185D01*
X100495506Y-108460537D01*
X100605820Y-108519502D01*
X100725518Y-108555812D01*
X100850000Y-108568072D01*
X102350000Y-108568072D01*
X102474482Y-108555812D01*
X102594180Y-108519502D01*
X102704494Y-108460537D01*
X102801185Y-108381185D01*
X102870000Y-108297333D01*
X102938815Y-108381185D01*
X103035506Y-108460537D01*
X103145820Y-108519502D01*
X103265518Y-108555812D01*
X103390000Y-108568072D01*
X103922941Y-108568072D01*
X105574724Y-110219856D01*
X105621705Y-110307752D01*
X105763540Y-110480578D01*
X105806854Y-110516125D01*
X108085001Y-112794273D01*
X108085001Y-113141274D01*
X108060537Y-113095506D01*
X107981185Y-112998815D01*
X107884494Y-112919463D01*
X107774180Y-112860498D01*
X107654482Y-112824188D01*
X107530000Y-112811928D01*
X105830000Y-112811928D01*
X105705518Y-112824188D01*
X105585820Y-112860498D01*
X105475506Y-112919463D01*
X105378815Y-112998815D01*
X105299463Y-113095506D01*
X105262317Y-113165000D01*
X104195752Y-113165000D01*
X104140000Y-113159509D01*
X104084249Y-113165000D01*
X99561611Y-113165000D01*
X99561611Y-111662500D01*
X97289230Y-111662500D01*
X97289230Y-113165000D01*
X97020198Y-113165000D01*
X97020198Y-111662500D01*
X94747817Y-111662500D01*
X94747817Y-113165000D01*
X94475121Y-113165000D01*
X94475121Y-111662500D01*
X92202740Y-111662500D01*
X92202740Y-113165000D01*
X91359352Y-113165000D01*
X91303600Y-113159509D01*
X91081101Y-113181423D01*
X90867153Y-113246324D01*
X90669977Y-113351716D01*
X90540456Y-113458011D01*
X90540455Y-113458012D01*
X90497151Y-113493551D01*
X90461613Y-113536854D01*
X88831800Y-115166668D01*
X88147632Y-114482500D01*
X89401611Y-114482500D01*
X89401611Y-111662500D01*
X87129230Y-111662500D01*
X87129230Y-113464098D01*
X86860198Y-113195066D01*
X86860198Y-111662500D01*
X84587817Y-111662500D01*
X84587817Y-111895000D01*
X84315121Y-111895000D01*
X84315121Y-111662500D01*
X82787632Y-111662500D01*
X81145000Y-110019869D01*
X81145000Y-107480000D01*
X82381928Y-107480000D01*
X82394188Y-107604482D01*
X82430498Y-107724180D01*
X82489463Y-107834494D01*
X82568815Y-107931185D01*
X82665506Y-108010537D01*
X82775820Y-108069502D01*
X82895518Y-108105812D01*
X83020000Y-108118072D01*
X83534250Y-108115000D01*
X83693000Y-107956250D01*
X83693000Y-106807000D01*
X82543750Y-106807000D01*
X82385000Y-106965750D01*
X82381928Y-107480000D01*
X81145000Y-107480000D01*
X81145000Y-105880000D01*
X82381928Y-105880000D01*
X82385000Y-106394250D01*
X82543750Y-106553000D01*
X83693000Y-106553000D01*
X83693000Y-105403750D01*
X83534250Y-105245000D01*
X83020000Y-105241928D01*
X82895518Y-105254188D01*
X82775820Y-105290498D01*
X82665506Y-105349463D01*
X82568815Y-105428815D01*
X82489463Y-105525506D01*
X82430498Y-105635820D01*
X82394188Y-105755518D01*
X82381928Y-105880000D01*
X81145000Y-105880000D01*
X81145000Y-101628849D01*
X84074000Y-101628849D01*
X84074000Y-102079151D01*
X84161850Y-102520802D01*
X84334173Y-102936827D01*
X84584348Y-103311240D01*
X84902760Y-103629652D01*
X85277173Y-103879827D01*
X85693198Y-104052150D01*
X86134849Y-104140000D01*
X86585151Y-104140000D01*
X87026802Y-104052150D01*
X87442827Y-103879827D01*
X87817240Y-103629652D01*
X88135652Y-103311240D01*
X88385827Y-102936827D01*
X88558150Y-102520802D01*
X88646000Y-102079151D01*
X88646000Y-101628849D01*
X88558150Y-101187198D01*
X88385827Y-100771173D01*
X88135652Y-100396760D01*
X87817240Y-100078348D01*
X87442827Y-99828173D01*
X87026802Y-99655850D01*
X86585151Y-99568000D01*
X86134849Y-99568000D01*
X85693198Y-99655850D01*
X85277173Y-99828173D01*
X84902760Y-100078348D01*
X84584348Y-100396760D01*
X84334173Y-100771173D01*
X84161850Y-101187198D01*
X84074000Y-101628849D01*
X81145000Y-101628849D01*
X81145000Y-93180131D01*
X81750132Y-92575000D01*
X82431928Y-92575000D01*
X82431928Y-92690000D01*
M02*
