G04 #@! TF.GenerationSoftware,KiCad,Pcbnew,(5.1.2)-2*
G04 #@! TF.CreationDate,2019-10-06T07:15:54-10:00*
G04 #@! TF.ProjectId,differential_robot(v1),64696666-6572-4656-9e74-69616c5f726f,rev?*
G04 #@! TF.SameCoordinates,Original*
G04 #@! TF.FileFunction,Soldermask,Top*
G04 #@! TF.FilePolarity,Negative*
%FSLAX46Y46*%
G04 Gerber Fmt 4.6, Leading zero omitted, Abs format (unit mm)*
G04 Created by KiCad (PCBNEW (5.1.2)-2) date 2019-10-06 07:15:54*
%MOMM*%
%LPD*%
G04 APERTURE LIST*
%ADD10C,0.100000*%
G04 APERTURE END LIST*
D10*
G36*
X106790442Y-131185518D02*
G01*
X106856627Y-131192037D01*
X107026466Y-131243557D01*
X107182991Y-131327222D01*
X107218729Y-131356552D01*
X107320186Y-131439814D01*
X107403448Y-131541271D01*
X107432778Y-131577009D01*
X107516443Y-131733534D01*
X107567963Y-131903373D01*
X107585359Y-132080000D01*
X107567963Y-132256627D01*
X107516443Y-132426466D01*
X107432778Y-132582991D01*
X107403448Y-132618729D01*
X107320186Y-132720186D01*
X107218729Y-132803448D01*
X107182991Y-132832778D01*
X107026466Y-132916443D01*
X106856627Y-132967963D01*
X106790443Y-132974481D01*
X106724260Y-132981000D01*
X106635740Y-132981000D01*
X106569557Y-132974481D01*
X106503373Y-132967963D01*
X106333534Y-132916443D01*
X106177009Y-132832778D01*
X106141271Y-132803448D01*
X106039814Y-132720186D01*
X105956552Y-132618729D01*
X105927222Y-132582991D01*
X105843557Y-132426466D01*
X105792037Y-132256627D01*
X105774641Y-132080000D01*
X105792037Y-131903373D01*
X105843557Y-131733534D01*
X105927222Y-131577009D01*
X105956552Y-131541271D01*
X106039814Y-131439814D01*
X106141271Y-131356552D01*
X106177009Y-131327222D01*
X106333534Y-131243557D01*
X106503373Y-131192037D01*
X106569558Y-131185518D01*
X106635740Y-131179000D01*
X106724260Y-131179000D01*
X106790442Y-131185518D01*
X106790442Y-131185518D01*
G37*
G36*
X140278571Y-131282863D02*
G01*
X140357023Y-131290590D01*
X140457682Y-131321125D01*
X140508013Y-131336392D01*
X140647165Y-131410771D01*
X140769133Y-131510867D01*
X140869229Y-131632835D01*
X140943608Y-131771987D01*
X140943608Y-131771988D01*
X140989410Y-131922977D01*
X141004875Y-132080000D01*
X140989410Y-132237023D01*
X140983463Y-132256627D01*
X140943608Y-132388013D01*
X140869229Y-132527165D01*
X140769133Y-132649133D01*
X140647165Y-132749229D01*
X140508013Y-132823608D01*
X140457682Y-132838875D01*
X140357023Y-132869410D01*
X140278571Y-132877137D01*
X140239346Y-132881000D01*
X139160654Y-132881000D01*
X139121429Y-132877137D01*
X139042977Y-132869410D01*
X138942318Y-132838875D01*
X138891987Y-132823608D01*
X138752835Y-132749229D01*
X138630867Y-132649133D01*
X138530771Y-132527165D01*
X138456392Y-132388013D01*
X138416537Y-132256627D01*
X138410590Y-132237023D01*
X138395125Y-132080000D01*
X138410590Y-131922977D01*
X138456392Y-131771988D01*
X138456392Y-131771987D01*
X138530771Y-131632835D01*
X138630867Y-131510867D01*
X138752835Y-131410771D01*
X138891987Y-131336392D01*
X138942318Y-131321125D01*
X139042977Y-131290590D01*
X139121429Y-131282863D01*
X139160654Y-131279000D01*
X140239346Y-131279000D01*
X140278571Y-131282863D01*
X140278571Y-131282863D01*
G37*
G36*
X132658571Y-131282863D02*
G01*
X132737023Y-131290590D01*
X132837682Y-131321125D01*
X132888013Y-131336392D01*
X133027165Y-131410771D01*
X133149133Y-131510867D01*
X133249229Y-131632835D01*
X133323608Y-131771987D01*
X133323608Y-131771988D01*
X133369410Y-131922977D01*
X133384875Y-132080000D01*
X133369410Y-132237023D01*
X133363463Y-132256627D01*
X133323608Y-132388013D01*
X133249229Y-132527165D01*
X133149133Y-132649133D01*
X133027165Y-132749229D01*
X132888013Y-132823608D01*
X132837682Y-132838875D01*
X132737023Y-132869410D01*
X132658571Y-132877137D01*
X132619346Y-132881000D01*
X131540654Y-132881000D01*
X131501429Y-132877137D01*
X131422977Y-132869410D01*
X131322318Y-132838875D01*
X131271987Y-132823608D01*
X131132835Y-132749229D01*
X131010867Y-132649133D01*
X130910771Y-132527165D01*
X130836392Y-132388013D01*
X130796537Y-132256627D01*
X130790590Y-132237023D01*
X130775125Y-132080000D01*
X130790590Y-131922977D01*
X130836392Y-131771988D01*
X130836392Y-131771987D01*
X130910771Y-131632835D01*
X131010867Y-131510867D01*
X131132835Y-131410771D01*
X131271987Y-131336392D01*
X131322318Y-131321125D01*
X131422977Y-131290590D01*
X131501429Y-131282863D01*
X131540654Y-131279000D01*
X132619346Y-131279000D01*
X132658571Y-131282863D01*
X132658571Y-131282863D01*
G37*
G36*
X106790443Y-128645519D02*
G01*
X106856627Y-128652037D01*
X107026466Y-128703557D01*
X107182991Y-128787222D01*
X107218729Y-128816552D01*
X107320186Y-128899814D01*
X107403448Y-129001271D01*
X107432778Y-129037009D01*
X107516443Y-129193534D01*
X107567963Y-129363373D01*
X107585359Y-129540000D01*
X107567963Y-129716627D01*
X107516443Y-129886466D01*
X107432778Y-130042991D01*
X107403448Y-130078729D01*
X107320186Y-130180186D01*
X107218729Y-130263448D01*
X107182991Y-130292778D01*
X107026466Y-130376443D01*
X106856627Y-130427963D01*
X106790443Y-130434481D01*
X106724260Y-130441000D01*
X106635740Y-130441000D01*
X106569557Y-130434481D01*
X106503373Y-130427963D01*
X106333534Y-130376443D01*
X106177009Y-130292778D01*
X106141271Y-130263448D01*
X106039814Y-130180186D01*
X105956552Y-130078729D01*
X105927222Y-130042991D01*
X105843557Y-129886466D01*
X105792037Y-129716627D01*
X105774641Y-129540000D01*
X105792037Y-129363373D01*
X105843557Y-129193534D01*
X105927222Y-129037009D01*
X105956552Y-129001271D01*
X106039814Y-128899814D01*
X106141271Y-128816552D01*
X106177009Y-128787222D01*
X106333534Y-128703557D01*
X106503373Y-128652037D01*
X106569557Y-128645519D01*
X106635740Y-128639000D01*
X106724260Y-128639000D01*
X106790443Y-128645519D01*
X106790443Y-128645519D01*
G37*
G36*
X140278571Y-128742863D02*
G01*
X140357023Y-128750590D01*
X140457682Y-128781125D01*
X140508013Y-128796392D01*
X140647165Y-128870771D01*
X140769133Y-128970867D01*
X140869229Y-129092835D01*
X140943608Y-129231987D01*
X140943608Y-129231988D01*
X140989410Y-129382977D01*
X141004875Y-129540000D01*
X140989410Y-129697023D01*
X140983463Y-129716627D01*
X140943608Y-129848013D01*
X140869229Y-129987165D01*
X140769133Y-130109133D01*
X140647165Y-130209229D01*
X140508013Y-130283608D01*
X140457682Y-130298875D01*
X140357023Y-130329410D01*
X140278571Y-130337137D01*
X140239346Y-130341000D01*
X139160654Y-130341000D01*
X139121429Y-130337137D01*
X139042977Y-130329410D01*
X138942318Y-130298875D01*
X138891987Y-130283608D01*
X138752835Y-130209229D01*
X138630867Y-130109133D01*
X138530771Y-129987165D01*
X138456392Y-129848013D01*
X138416537Y-129716627D01*
X138410590Y-129697023D01*
X138395125Y-129540000D01*
X138410590Y-129382977D01*
X138456392Y-129231988D01*
X138456392Y-129231987D01*
X138530771Y-129092835D01*
X138630867Y-128970867D01*
X138752835Y-128870771D01*
X138891987Y-128796392D01*
X138942318Y-128781125D01*
X139042977Y-128750590D01*
X139121429Y-128742863D01*
X139160654Y-128739000D01*
X140239346Y-128739000D01*
X140278571Y-128742863D01*
X140278571Y-128742863D01*
G37*
G36*
X132658571Y-128742863D02*
G01*
X132737023Y-128750590D01*
X132837682Y-128781125D01*
X132888013Y-128796392D01*
X133027165Y-128870771D01*
X133149133Y-128970867D01*
X133249229Y-129092835D01*
X133323608Y-129231987D01*
X133323608Y-129231988D01*
X133369410Y-129382977D01*
X133384875Y-129540000D01*
X133369410Y-129697023D01*
X133363463Y-129716627D01*
X133323608Y-129848013D01*
X133249229Y-129987165D01*
X133149133Y-130109133D01*
X133027165Y-130209229D01*
X132888013Y-130283608D01*
X132837682Y-130298875D01*
X132737023Y-130329410D01*
X132658571Y-130337137D01*
X132619346Y-130341000D01*
X131540654Y-130341000D01*
X131501429Y-130337137D01*
X131422977Y-130329410D01*
X131322318Y-130298875D01*
X131271987Y-130283608D01*
X131132835Y-130209229D01*
X131010867Y-130109133D01*
X130910771Y-129987165D01*
X130836392Y-129848013D01*
X130796537Y-129716627D01*
X130790590Y-129697023D01*
X130775125Y-129540000D01*
X130790590Y-129382977D01*
X130836392Y-129231988D01*
X130836392Y-129231987D01*
X130910771Y-129092835D01*
X131010867Y-128970867D01*
X131132835Y-128870771D01*
X131271987Y-128796392D01*
X131322318Y-128781125D01*
X131422977Y-128750590D01*
X131501429Y-128742863D01*
X131540654Y-128739000D01*
X132619346Y-128739000D01*
X132658571Y-128742863D01*
X132658571Y-128742863D01*
G37*
G36*
X147898571Y-127472863D02*
G01*
X147977023Y-127480590D01*
X148050869Y-127502991D01*
X148128013Y-127526392D01*
X148267165Y-127600771D01*
X148389133Y-127700867D01*
X148489229Y-127822835D01*
X148563608Y-127961987D01*
X148563608Y-127961988D01*
X148609410Y-128112977D01*
X148624875Y-128270000D01*
X148609410Y-128427023D01*
X148578875Y-128527682D01*
X148563608Y-128578013D01*
X148489229Y-128717165D01*
X148389133Y-128839133D01*
X148267165Y-128939229D01*
X148128013Y-129013608D01*
X148103644Y-129021000D01*
X147977023Y-129059410D01*
X147898571Y-129067137D01*
X147859346Y-129071000D01*
X146780654Y-129071000D01*
X146741429Y-129067137D01*
X146662977Y-129059410D01*
X146536356Y-129021000D01*
X146511987Y-129013608D01*
X146372835Y-128939229D01*
X146250867Y-128839133D01*
X146150771Y-128717165D01*
X146076392Y-128578013D01*
X146061125Y-128527682D01*
X146030590Y-128427023D01*
X146015125Y-128270000D01*
X146030590Y-128112977D01*
X146076392Y-127961988D01*
X146076392Y-127961987D01*
X146150771Y-127822835D01*
X146250867Y-127700867D01*
X146372835Y-127600771D01*
X146511987Y-127526392D01*
X146589131Y-127502991D01*
X146662977Y-127480590D01*
X146741429Y-127472863D01*
X146780654Y-127469000D01*
X147859346Y-127469000D01*
X147898571Y-127472863D01*
X147898571Y-127472863D01*
G37*
G36*
X126781000Y-129021000D02*
G01*
X124679000Y-129021000D01*
X124679000Y-127519000D01*
X126781000Y-127519000D01*
X126781000Y-129021000D01*
X126781000Y-129021000D01*
G37*
G36*
X106790443Y-126105519D02*
G01*
X106856627Y-126112037D01*
X107026466Y-126163557D01*
X107182991Y-126247222D01*
X107218729Y-126276552D01*
X107320186Y-126359814D01*
X107400369Y-126457519D01*
X107432778Y-126497009D01*
X107516443Y-126653534D01*
X107567963Y-126823373D01*
X107585359Y-127000000D01*
X107567963Y-127176627D01*
X107516443Y-127346466D01*
X107432778Y-127502991D01*
X107413573Y-127526392D01*
X107320186Y-127640186D01*
X107218729Y-127723448D01*
X107182991Y-127752778D01*
X107026466Y-127836443D01*
X106856627Y-127887963D01*
X106790442Y-127894482D01*
X106724260Y-127901000D01*
X106635740Y-127901000D01*
X106569558Y-127894482D01*
X106503373Y-127887963D01*
X106333534Y-127836443D01*
X106177009Y-127752778D01*
X106141271Y-127723448D01*
X106039814Y-127640186D01*
X105946427Y-127526392D01*
X105927222Y-127502991D01*
X105843557Y-127346466D01*
X105792037Y-127176627D01*
X105774641Y-127000000D01*
X105792037Y-126823373D01*
X105843557Y-126653534D01*
X105927222Y-126497009D01*
X105959631Y-126457519D01*
X106039814Y-126359814D01*
X106141271Y-126276552D01*
X106177009Y-126247222D01*
X106333534Y-126163557D01*
X106503373Y-126112037D01*
X106569557Y-126105519D01*
X106635740Y-126099000D01*
X106724260Y-126099000D01*
X106790443Y-126105519D01*
X106790443Y-126105519D01*
G37*
G36*
X83401000Y-127851000D02*
G01*
X81699000Y-127851000D01*
X81699000Y-126149000D01*
X83401000Y-126149000D01*
X83401000Y-127851000D01*
X83401000Y-127851000D01*
G37*
G36*
X90418228Y-126181703D02*
G01*
X90573100Y-126245853D01*
X90712481Y-126338985D01*
X90831015Y-126457519D01*
X90924147Y-126596900D01*
X90988297Y-126751772D01*
X91021000Y-126916184D01*
X91021000Y-127083816D01*
X90988297Y-127248228D01*
X90924147Y-127403100D01*
X90831015Y-127542481D01*
X90712481Y-127661015D01*
X90573100Y-127754147D01*
X90418228Y-127818297D01*
X90253816Y-127851000D01*
X90086184Y-127851000D01*
X89921772Y-127818297D01*
X89766900Y-127754147D01*
X89627519Y-127661015D01*
X89508985Y-127542481D01*
X89415853Y-127403100D01*
X89351703Y-127248228D01*
X89319000Y-127083816D01*
X89319000Y-126916184D01*
X89351703Y-126751772D01*
X89415853Y-126596900D01*
X89508985Y-126457519D01*
X89627519Y-126338985D01*
X89766900Y-126245853D01*
X89921772Y-126181703D01*
X90086184Y-126149000D01*
X90253816Y-126149000D01*
X90418228Y-126181703D01*
X90418228Y-126181703D01*
G37*
G36*
X88521000Y-127851000D02*
G01*
X86819000Y-127851000D01*
X86819000Y-126149000D01*
X88521000Y-126149000D01*
X88521000Y-127851000D01*
X88521000Y-127851000D01*
G37*
G36*
X94871000Y-127851000D02*
G01*
X93169000Y-127851000D01*
X93169000Y-126149000D01*
X94871000Y-126149000D01*
X94871000Y-127851000D01*
X94871000Y-127851000D01*
G37*
G36*
X99348228Y-126181703D02*
G01*
X99503100Y-126245853D01*
X99642481Y-126338985D01*
X99761015Y-126457519D01*
X99854147Y-126596900D01*
X99918297Y-126751772D01*
X99951000Y-126916184D01*
X99951000Y-127083816D01*
X99918297Y-127248228D01*
X99854147Y-127403100D01*
X99761015Y-127542481D01*
X99642481Y-127661015D01*
X99503100Y-127754147D01*
X99348228Y-127818297D01*
X99183816Y-127851000D01*
X99016184Y-127851000D01*
X98851772Y-127818297D01*
X98696900Y-127754147D01*
X98557519Y-127661015D01*
X98438985Y-127542481D01*
X98345853Y-127403100D01*
X98281703Y-127248228D01*
X98249000Y-127083816D01*
X98249000Y-126916184D01*
X98281703Y-126751772D01*
X98345853Y-126596900D01*
X98438985Y-126457519D01*
X98557519Y-126338985D01*
X98696900Y-126245853D01*
X98851772Y-126181703D01*
X99016184Y-126149000D01*
X99183816Y-126149000D01*
X99348228Y-126181703D01*
X99348228Y-126181703D01*
G37*
G36*
X102451000Y-127851000D02*
G01*
X100749000Y-127851000D01*
X100749000Y-126149000D01*
X102451000Y-126149000D01*
X102451000Y-127851000D01*
X102451000Y-127851000D01*
G37*
G36*
X85298228Y-126181703D02*
G01*
X85453100Y-126245853D01*
X85592481Y-126338985D01*
X85711015Y-126457519D01*
X85804147Y-126596900D01*
X85868297Y-126751772D01*
X85901000Y-126916184D01*
X85901000Y-127083816D01*
X85868297Y-127248228D01*
X85804147Y-127403100D01*
X85711015Y-127542481D01*
X85592481Y-127661015D01*
X85453100Y-127754147D01*
X85298228Y-127818297D01*
X85133816Y-127851000D01*
X84966184Y-127851000D01*
X84801772Y-127818297D01*
X84646900Y-127754147D01*
X84507519Y-127661015D01*
X84388985Y-127542481D01*
X84295853Y-127403100D01*
X84231703Y-127248228D01*
X84199000Y-127083816D01*
X84199000Y-126916184D01*
X84231703Y-126751772D01*
X84295853Y-126596900D01*
X84388985Y-126457519D01*
X84507519Y-126338985D01*
X84646900Y-126245853D01*
X84801772Y-126181703D01*
X84966184Y-126149000D01*
X85133816Y-126149000D01*
X85298228Y-126181703D01*
X85298228Y-126181703D01*
G37*
G36*
X96768228Y-126181703D02*
G01*
X96923100Y-126245853D01*
X97062481Y-126338985D01*
X97181015Y-126457519D01*
X97274147Y-126596900D01*
X97338297Y-126751772D01*
X97371000Y-126916184D01*
X97371000Y-127083816D01*
X97338297Y-127248228D01*
X97274147Y-127403100D01*
X97181015Y-127542481D01*
X97062481Y-127661015D01*
X96923100Y-127754147D01*
X96768228Y-127818297D01*
X96603816Y-127851000D01*
X96436184Y-127851000D01*
X96271772Y-127818297D01*
X96116900Y-127754147D01*
X95977519Y-127661015D01*
X95858985Y-127542481D01*
X95765853Y-127403100D01*
X95701703Y-127248228D01*
X95669000Y-127083816D01*
X95669000Y-126916184D01*
X95701703Y-126751772D01*
X95765853Y-126596900D01*
X95858985Y-126457519D01*
X95977519Y-126338985D01*
X96116900Y-126245853D01*
X96271772Y-126181703D01*
X96436184Y-126149000D01*
X96603816Y-126149000D01*
X96768228Y-126181703D01*
X96768228Y-126181703D01*
G37*
G36*
X132658571Y-126202863D02*
G01*
X132737023Y-126210590D01*
X132837682Y-126241125D01*
X132888013Y-126256392D01*
X133027165Y-126330771D01*
X133149133Y-126430867D01*
X133249229Y-126552835D01*
X133323608Y-126691987D01*
X133323608Y-126691988D01*
X133369410Y-126842977D01*
X133384875Y-127000000D01*
X133369410Y-127157023D01*
X133363463Y-127176627D01*
X133323608Y-127308013D01*
X133249229Y-127447165D01*
X133149133Y-127569133D01*
X133027165Y-127669229D01*
X132888013Y-127743608D01*
X132837682Y-127758875D01*
X132737023Y-127789410D01*
X132658571Y-127797137D01*
X132619346Y-127801000D01*
X131540654Y-127801000D01*
X131501429Y-127797137D01*
X131422977Y-127789410D01*
X131322318Y-127758875D01*
X131271987Y-127743608D01*
X131132835Y-127669229D01*
X131010867Y-127569133D01*
X130910771Y-127447165D01*
X130836392Y-127308013D01*
X130796537Y-127176627D01*
X130790590Y-127157023D01*
X130775125Y-127000000D01*
X130790590Y-126842977D01*
X130836392Y-126691988D01*
X130836392Y-126691987D01*
X130910771Y-126552835D01*
X131010867Y-126430867D01*
X131132835Y-126330771D01*
X131271987Y-126256392D01*
X131322318Y-126241125D01*
X131422977Y-126210590D01*
X131501429Y-126202863D01*
X131540654Y-126199000D01*
X132619346Y-126199000D01*
X132658571Y-126202863D01*
X132658571Y-126202863D01*
G37*
G36*
X140278571Y-126202863D02*
G01*
X140357023Y-126210590D01*
X140457682Y-126241125D01*
X140508013Y-126256392D01*
X140647165Y-126330771D01*
X140769133Y-126430867D01*
X140869229Y-126552835D01*
X140943608Y-126691987D01*
X140943608Y-126691988D01*
X140989410Y-126842977D01*
X141004875Y-127000000D01*
X140989410Y-127157023D01*
X140983463Y-127176627D01*
X140943608Y-127308013D01*
X140869229Y-127447165D01*
X140769133Y-127569133D01*
X140647165Y-127669229D01*
X140508013Y-127743608D01*
X140457682Y-127758875D01*
X140357023Y-127789410D01*
X140278571Y-127797137D01*
X140239346Y-127801000D01*
X139160654Y-127801000D01*
X139121429Y-127797137D01*
X139042977Y-127789410D01*
X138942318Y-127758875D01*
X138891987Y-127743608D01*
X138752835Y-127669229D01*
X138630867Y-127569133D01*
X138530771Y-127447165D01*
X138456392Y-127308013D01*
X138416537Y-127176627D01*
X138410590Y-127157023D01*
X138395125Y-127000000D01*
X138410590Y-126842977D01*
X138456392Y-126691988D01*
X138456392Y-126691987D01*
X138530771Y-126552835D01*
X138630867Y-126430867D01*
X138752835Y-126330771D01*
X138891987Y-126256392D01*
X138942318Y-126241125D01*
X139042977Y-126210590D01*
X139121429Y-126202863D01*
X139160654Y-126199000D01*
X140239346Y-126199000D01*
X140278571Y-126202863D01*
X140278571Y-126202863D01*
G37*
G36*
X147898571Y-124932863D02*
G01*
X147977023Y-124940590D01*
X148050869Y-124962991D01*
X148128013Y-124986392D01*
X148267165Y-125060771D01*
X148389133Y-125160867D01*
X148489229Y-125282835D01*
X148563608Y-125421987D01*
X148563608Y-125421988D01*
X148609410Y-125572977D01*
X148624875Y-125730000D01*
X148609410Y-125887023D01*
X148578875Y-125987682D01*
X148563608Y-126038013D01*
X148489229Y-126177165D01*
X148389133Y-126299133D01*
X148267165Y-126399229D01*
X148128013Y-126473608D01*
X148103644Y-126481000D01*
X147977023Y-126519410D01*
X147898571Y-126527137D01*
X147859346Y-126531000D01*
X146780654Y-126531000D01*
X146741429Y-126527137D01*
X146662977Y-126519410D01*
X146536356Y-126481000D01*
X146511987Y-126473608D01*
X146372835Y-126399229D01*
X146250867Y-126299133D01*
X146150771Y-126177165D01*
X146076392Y-126038013D01*
X146061125Y-125987682D01*
X146030590Y-125887023D01*
X146015125Y-125730000D01*
X146030590Y-125572977D01*
X146076392Y-125421988D01*
X146076392Y-125421987D01*
X146150771Y-125282835D01*
X146250867Y-125160867D01*
X146372835Y-125060771D01*
X146511987Y-124986392D01*
X146589131Y-124962991D01*
X146662977Y-124940590D01*
X146741429Y-124932863D01*
X146780654Y-124929000D01*
X147859346Y-124929000D01*
X147898571Y-124932863D01*
X147898571Y-124932863D01*
G37*
G36*
X126781000Y-126481000D02*
G01*
X124679000Y-126481000D01*
X124679000Y-124979000D01*
X126781000Y-124979000D01*
X126781000Y-126481000D01*
X126781000Y-126481000D01*
G37*
G36*
X106790442Y-123565518D02*
G01*
X106856627Y-123572037D01*
X107026466Y-123623557D01*
X107182991Y-123707222D01*
X107218729Y-123736552D01*
X107320186Y-123819814D01*
X107403448Y-123921271D01*
X107432778Y-123957009D01*
X107516443Y-124113534D01*
X107567963Y-124283373D01*
X107585359Y-124460000D01*
X107567963Y-124636627D01*
X107516443Y-124806466D01*
X107432778Y-124962991D01*
X107413573Y-124986392D01*
X107320186Y-125100186D01*
X107218729Y-125183448D01*
X107182991Y-125212778D01*
X107026466Y-125296443D01*
X106856627Y-125347963D01*
X106790442Y-125354482D01*
X106724260Y-125361000D01*
X106635740Y-125361000D01*
X106569558Y-125354482D01*
X106503373Y-125347963D01*
X106333534Y-125296443D01*
X106177009Y-125212778D01*
X106141271Y-125183448D01*
X106039814Y-125100186D01*
X105946427Y-124986392D01*
X105927222Y-124962991D01*
X105843557Y-124806466D01*
X105792037Y-124636627D01*
X105774641Y-124460000D01*
X105792037Y-124283373D01*
X105843557Y-124113534D01*
X105927222Y-123957009D01*
X105956552Y-123921271D01*
X106039814Y-123819814D01*
X106141271Y-123736552D01*
X106177009Y-123707222D01*
X106333534Y-123623557D01*
X106503373Y-123572037D01*
X106569558Y-123565518D01*
X106635740Y-123559000D01*
X106724260Y-123559000D01*
X106790442Y-123565518D01*
X106790442Y-123565518D01*
G37*
G36*
X140278571Y-123662863D02*
G01*
X140357023Y-123670590D01*
X140457682Y-123701125D01*
X140508013Y-123716392D01*
X140647165Y-123790771D01*
X140769133Y-123890867D01*
X140869229Y-124012835D01*
X140943608Y-124151987D01*
X140943608Y-124151988D01*
X140989410Y-124302977D01*
X141004875Y-124460000D01*
X140989410Y-124617023D01*
X140983463Y-124636627D01*
X140943608Y-124768013D01*
X140869229Y-124907165D01*
X140769133Y-125029133D01*
X140647165Y-125129229D01*
X140508013Y-125203608D01*
X140457682Y-125218875D01*
X140357023Y-125249410D01*
X140278571Y-125257137D01*
X140239346Y-125261000D01*
X139160654Y-125261000D01*
X139121429Y-125257137D01*
X139042977Y-125249410D01*
X138942318Y-125218875D01*
X138891987Y-125203608D01*
X138752835Y-125129229D01*
X138630867Y-125029133D01*
X138530771Y-124907165D01*
X138456392Y-124768013D01*
X138416537Y-124636627D01*
X138410590Y-124617023D01*
X138395125Y-124460000D01*
X138410590Y-124302977D01*
X138456392Y-124151988D01*
X138456392Y-124151987D01*
X138530771Y-124012835D01*
X138630867Y-123890867D01*
X138752835Y-123790771D01*
X138891987Y-123716392D01*
X138942318Y-123701125D01*
X139042977Y-123670590D01*
X139121429Y-123662863D01*
X139160654Y-123659000D01*
X140239346Y-123659000D01*
X140278571Y-123662863D01*
X140278571Y-123662863D01*
G37*
G36*
X132658571Y-123662863D02*
G01*
X132737023Y-123670590D01*
X132837682Y-123701125D01*
X132888013Y-123716392D01*
X133027165Y-123790771D01*
X133149133Y-123890867D01*
X133249229Y-124012835D01*
X133323608Y-124151987D01*
X133323608Y-124151988D01*
X133369410Y-124302977D01*
X133384875Y-124460000D01*
X133369410Y-124617023D01*
X133363463Y-124636627D01*
X133323608Y-124768013D01*
X133249229Y-124907165D01*
X133149133Y-125029133D01*
X133027165Y-125129229D01*
X132888013Y-125203608D01*
X132837682Y-125218875D01*
X132737023Y-125249410D01*
X132658571Y-125257137D01*
X132619346Y-125261000D01*
X131540654Y-125261000D01*
X131501429Y-125257137D01*
X131422977Y-125249410D01*
X131322318Y-125218875D01*
X131271987Y-125203608D01*
X131132835Y-125129229D01*
X131010867Y-125029133D01*
X130910771Y-124907165D01*
X130836392Y-124768013D01*
X130796537Y-124636627D01*
X130790590Y-124617023D01*
X130775125Y-124460000D01*
X130790590Y-124302977D01*
X130836392Y-124151988D01*
X130836392Y-124151987D01*
X130910771Y-124012835D01*
X131010867Y-123890867D01*
X131132835Y-123790771D01*
X131271987Y-123716392D01*
X131322318Y-123701125D01*
X131422977Y-123670590D01*
X131501429Y-123662863D01*
X131540654Y-123659000D01*
X132619346Y-123659000D01*
X132658571Y-123662863D01*
X132658571Y-123662863D01*
G37*
G36*
X147898571Y-122392863D02*
G01*
X147977023Y-122400590D01*
X148050869Y-122422991D01*
X148128013Y-122446392D01*
X148267165Y-122520771D01*
X148389133Y-122620867D01*
X148489229Y-122742835D01*
X148563608Y-122881987D01*
X148563608Y-122881988D01*
X148609410Y-123032977D01*
X148624875Y-123190000D01*
X148609410Y-123347023D01*
X148578875Y-123447682D01*
X148563608Y-123498013D01*
X148489229Y-123637165D01*
X148389133Y-123759133D01*
X148267165Y-123859229D01*
X148128013Y-123933608D01*
X148103644Y-123941000D01*
X147977023Y-123979410D01*
X147898571Y-123987137D01*
X147859346Y-123991000D01*
X146780654Y-123991000D01*
X146741429Y-123987137D01*
X146662977Y-123979410D01*
X146536356Y-123941000D01*
X146511987Y-123933608D01*
X146372835Y-123859229D01*
X146250867Y-123759133D01*
X146150771Y-123637165D01*
X146076392Y-123498013D01*
X146061125Y-123447682D01*
X146030590Y-123347023D01*
X146015125Y-123190000D01*
X146030590Y-123032977D01*
X146076392Y-122881988D01*
X146076392Y-122881987D01*
X146150771Y-122742835D01*
X146250867Y-122620867D01*
X146372835Y-122520771D01*
X146511987Y-122446392D01*
X146589131Y-122422991D01*
X146662977Y-122400590D01*
X146741429Y-122392863D01*
X146780654Y-122389000D01*
X147859346Y-122389000D01*
X147898571Y-122392863D01*
X147898571Y-122392863D01*
G37*
G36*
X126781000Y-123941000D02*
G01*
X124679000Y-123941000D01*
X124679000Y-122439000D01*
X126781000Y-122439000D01*
X126781000Y-123941000D01*
X126781000Y-123941000D01*
G37*
G36*
X106790442Y-121025518D02*
G01*
X106856627Y-121032037D01*
X107026466Y-121083557D01*
X107182991Y-121167222D01*
X107218729Y-121196552D01*
X107320186Y-121279814D01*
X107403448Y-121381271D01*
X107432778Y-121417009D01*
X107516443Y-121573534D01*
X107567963Y-121743373D01*
X107585359Y-121920000D01*
X107567963Y-122096627D01*
X107516443Y-122266466D01*
X107432778Y-122422991D01*
X107413573Y-122446392D01*
X107320186Y-122560186D01*
X107218729Y-122643448D01*
X107182991Y-122672778D01*
X107026466Y-122756443D01*
X106856627Y-122807963D01*
X106790443Y-122814481D01*
X106724260Y-122821000D01*
X106635740Y-122821000D01*
X106569557Y-122814481D01*
X106503373Y-122807963D01*
X106333534Y-122756443D01*
X106177009Y-122672778D01*
X106141271Y-122643448D01*
X106039814Y-122560186D01*
X105946427Y-122446392D01*
X105927222Y-122422991D01*
X105843557Y-122266466D01*
X105792037Y-122096627D01*
X105774641Y-121920000D01*
X105792037Y-121743373D01*
X105843557Y-121573534D01*
X105927222Y-121417009D01*
X105956552Y-121381271D01*
X106039814Y-121279814D01*
X106141271Y-121196552D01*
X106177009Y-121167222D01*
X106333534Y-121083557D01*
X106503373Y-121032037D01*
X106569558Y-121025518D01*
X106635740Y-121019000D01*
X106724260Y-121019000D01*
X106790442Y-121025518D01*
X106790442Y-121025518D01*
G37*
G36*
X140278571Y-121122863D02*
G01*
X140357023Y-121130590D01*
X140457682Y-121161125D01*
X140508013Y-121176392D01*
X140647165Y-121250771D01*
X140769133Y-121350867D01*
X140869229Y-121472835D01*
X140943608Y-121611987D01*
X140943608Y-121611988D01*
X140989410Y-121762977D01*
X141004875Y-121920000D01*
X140989410Y-122077023D01*
X140983463Y-122096627D01*
X140943608Y-122228013D01*
X140869229Y-122367165D01*
X140769133Y-122489133D01*
X140647165Y-122589229D01*
X140508013Y-122663608D01*
X140457682Y-122678875D01*
X140357023Y-122709410D01*
X140278571Y-122717137D01*
X140239346Y-122721000D01*
X139160654Y-122721000D01*
X139121429Y-122717137D01*
X139042977Y-122709410D01*
X138942318Y-122678875D01*
X138891987Y-122663608D01*
X138752835Y-122589229D01*
X138630867Y-122489133D01*
X138530771Y-122367165D01*
X138456392Y-122228013D01*
X138416537Y-122096627D01*
X138410590Y-122077023D01*
X138395125Y-121920000D01*
X138410590Y-121762977D01*
X138456392Y-121611988D01*
X138456392Y-121611987D01*
X138530771Y-121472835D01*
X138630867Y-121350867D01*
X138752835Y-121250771D01*
X138891987Y-121176392D01*
X138942318Y-121161125D01*
X139042977Y-121130590D01*
X139121429Y-121122863D01*
X139160654Y-121119000D01*
X140239346Y-121119000D01*
X140278571Y-121122863D01*
X140278571Y-121122863D01*
G37*
G36*
X132658571Y-121122863D02*
G01*
X132737023Y-121130590D01*
X132837682Y-121161125D01*
X132888013Y-121176392D01*
X133027165Y-121250771D01*
X133149133Y-121350867D01*
X133249229Y-121472835D01*
X133323608Y-121611987D01*
X133323608Y-121611988D01*
X133369410Y-121762977D01*
X133384875Y-121920000D01*
X133369410Y-122077023D01*
X133363463Y-122096627D01*
X133323608Y-122228013D01*
X133249229Y-122367165D01*
X133149133Y-122489133D01*
X133027165Y-122589229D01*
X132888013Y-122663608D01*
X132837682Y-122678875D01*
X132737023Y-122709410D01*
X132658571Y-122717137D01*
X132619346Y-122721000D01*
X131540654Y-122721000D01*
X131501429Y-122717137D01*
X131422977Y-122709410D01*
X131322318Y-122678875D01*
X131271987Y-122663608D01*
X131132835Y-122589229D01*
X131010867Y-122489133D01*
X130910771Y-122367165D01*
X130836392Y-122228013D01*
X130796537Y-122096627D01*
X130790590Y-122077023D01*
X130775125Y-121920000D01*
X130790590Y-121762977D01*
X130836392Y-121611988D01*
X130836392Y-121611987D01*
X130910771Y-121472835D01*
X131010867Y-121350867D01*
X131132835Y-121250771D01*
X131271987Y-121176392D01*
X131322318Y-121161125D01*
X131422977Y-121130590D01*
X131501429Y-121122863D01*
X131540654Y-121119000D01*
X132619346Y-121119000D01*
X132658571Y-121122863D01*
X132658571Y-121122863D01*
G37*
G36*
X147898571Y-119852863D02*
G01*
X147977023Y-119860590D01*
X148050869Y-119882991D01*
X148128013Y-119906392D01*
X148267165Y-119980771D01*
X148389133Y-120080867D01*
X148489229Y-120202835D01*
X148563608Y-120341987D01*
X148563608Y-120341988D01*
X148609410Y-120492977D01*
X148624875Y-120650000D01*
X148609410Y-120807023D01*
X148578875Y-120907682D01*
X148563608Y-120958013D01*
X148489229Y-121097165D01*
X148389133Y-121219133D01*
X148267165Y-121319229D01*
X148128013Y-121393608D01*
X148103644Y-121401000D01*
X147977023Y-121439410D01*
X147898571Y-121447137D01*
X147859346Y-121451000D01*
X146780654Y-121451000D01*
X146741429Y-121447137D01*
X146662977Y-121439410D01*
X146536356Y-121401000D01*
X146511987Y-121393608D01*
X146372835Y-121319229D01*
X146250867Y-121219133D01*
X146150771Y-121097165D01*
X146076392Y-120958013D01*
X146061125Y-120907682D01*
X146030590Y-120807023D01*
X146015125Y-120650000D01*
X146030590Y-120492977D01*
X146076392Y-120341988D01*
X146076392Y-120341987D01*
X146150771Y-120202835D01*
X146250867Y-120080867D01*
X146372835Y-119980771D01*
X146511987Y-119906392D01*
X146589131Y-119882991D01*
X146662977Y-119860590D01*
X146741429Y-119852863D01*
X146780654Y-119849000D01*
X147859346Y-119849000D01*
X147898571Y-119852863D01*
X147898571Y-119852863D01*
G37*
G36*
X126781000Y-121401000D02*
G01*
X124679000Y-121401000D01*
X124679000Y-119899000D01*
X126781000Y-119899000D01*
X126781000Y-121401000D01*
X126781000Y-121401000D01*
G37*
G36*
X83994313Y-117665466D02*
G01*
X84161927Y-117716312D01*
X84208115Y-117741000D01*
X84316403Y-117798880D01*
X84451801Y-117909999D01*
X84562923Y-118045401D01*
X84645487Y-118199869D01*
X84645488Y-118199872D01*
X84696334Y-118367486D01*
X84709200Y-118498120D01*
X84709200Y-120261880D01*
X84696334Y-120392514D01*
X84645488Y-120560128D01*
X84645487Y-120560131D01*
X84562923Y-120714599D01*
X84451801Y-120850001D01*
X84316399Y-120961123D01*
X84161931Y-121043687D01*
X84161928Y-121043688D01*
X83994314Y-121094534D01*
X83820000Y-121111702D01*
X83645687Y-121094534D01*
X83478073Y-121043688D01*
X83478070Y-121043687D01*
X83323602Y-120961123D01*
X83188200Y-120850001D01*
X83077078Y-120714599D01*
X82994514Y-120560131D01*
X82994513Y-120560128D01*
X82943667Y-120392514D01*
X82930801Y-120261880D01*
X82930800Y-118498121D01*
X82943666Y-118367487D01*
X82994512Y-118199873D01*
X83077078Y-118045401D01*
X83077080Y-118045397D01*
X83188199Y-117909999D01*
X83323601Y-117798877D01*
X83478069Y-117716313D01*
X83478072Y-117716312D01*
X83645686Y-117665466D01*
X83820000Y-117648298D01*
X83994313Y-117665466D01*
X83994313Y-117665466D01*
G37*
G36*
X86534313Y-117665466D02*
G01*
X86701927Y-117716312D01*
X86748115Y-117741000D01*
X86856403Y-117798880D01*
X86991801Y-117909999D01*
X87102923Y-118045401D01*
X87185487Y-118199869D01*
X87185488Y-118199872D01*
X87236334Y-118367486D01*
X87249200Y-118498120D01*
X87249200Y-120261880D01*
X87236334Y-120392514D01*
X87185488Y-120560128D01*
X87185487Y-120560131D01*
X87102923Y-120714599D01*
X86991801Y-120850001D01*
X86856399Y-120961123D01*
X86701931Y-121043687D01*
X86701928Y-121043688D01*
X86534314Y-121094534D01*
X86360000Y-121111702D01*
X86185687Y-121094534D01*
X86018073Y-121043688D01*
X86018070Y-121043687D01*
X85863602Y-120961123D01*
X85728200Y-120850001D01*
X85617078Y-120714599D01*
X85534514Y-120560131D01*
X85534513Y-120560128D01*
X85483667Y-120392514D01*
X85470801Y-120261880D01*
X85470800Y-118498121D01*
X85483666Y-118367487D01*
X85534512Y-118199873D01*
X85617078Y-118045401D01*
X85617080Y-118045397D01*
X85728199Y-117909999D01*
X85863601Y-117798877D01*
X86018069Y-117716313D01*
X86018072Y-117716312D01*
X86185686Y-117665466D01*
X86360000Y-117648298D01*
X86534313Y-117665466D01*
X86534313Y-117665466D01*
G37*
G36*
X89074313Y-117665466D02*
G01*
X89241927Y-117716312D01*
X89288115Y-117741000D01*
X89396403Y-117798880D01*
X89531801Y-117909999D01*
X89642923Y-118045401D01*
X89725487Y-118199869D01*
X89725488Y-118199872D01*
X89776334Y-118367486D01*
X89789200Y-118498120D01*
X89789200Y-120261880D01*
X89776334Y-120392514D01*
X89725488Y-120560128D01*
X89725487Y-120560131D01*
X89642923Y-120714599D01*
X89531801Y-120850001D01*
X89396399Y-120961123D01*
X89241931Y-121043687D01*
X89241928Y-121043688D01*
X89074314Y-121094534D01*
X88900000Y-121111702D01*
X88725687Y-121094534D01*
X88558073Y-121043688D01*
X88558070Y-121043687D01*
X88403602Y-120961123D01*
X88268200Y-120850001D01*
X88157078Y-120714599D01*
X88074514Y-120560131D01*
X88074513Y-120560128D01*
X88023667Y-120392514D01*
X88010801Y-120261880D01*
X88010800Y-118498121D01*
X88023666Y-118367487D01*
X88074512Y-118199873D01*
X88157078Y-118045401D01*
X88157080Y-118045397D01*
X88268199Y-117909999D01*
X88403601Y-117798877D01*
X88558069Y-117716313D01*
X88558072Y-117716312D01*
X88725686Y-117665466D01*
X88900000Y-117648298D01*
X89074313Y-117665466D01*
X89074313Y-117665466D01*
G37*
G36*
X99234313Y-117665466D02*
G01*
X99401927Y-117716312D01*
X99448115Y-117741000D01*
X99556403Y-117798880D01*
X99691801Y-117909999D01*
X99802923Y-118045401D01*
X99885487Y-118199869D01*
X99885488Y-118199872D01*
X99936334Y-118367486D01*
X99949200Y-118498120D01*
X99949200Y-120261880D01*
X99936334Y-120392514D01*
X99885488Y-120560128D01*
X99885487Y-120560131D01*
X99802923Y-120714599D01*
X99691801Y-120850001D01*
X99556399Y-120961123D01*
X99401931Y-121043687D01*
X99401928Y-121043688D01*
X99234314Y-121094534D01*
X99060000Y-121111702D01*
X98885687Y-121094534D01*
X98718073Y-121043688D01*
X98718070Y-121043687D01*
X98563602Y-120961123D01*
X98428200Y-120850001D01*
X98317078Y-120714599D01*
X98234514Y-120560131D01*
X98234513Y-120560128D01*
X98183667Y-120392514D01*
X98170801Y-120261880D01*
X98170800Y-118498121D01*
X98183666Y-118367487D01*
X98234512Y-118199873D01*
X98317078Y-118045401D01*
X98317080Y-118045397D01*
X98428199Y-117909999D01*
X98563601Y-117798877D01*
X98718069Y-117716313D01*
X98718072Y-117716312D01*
X98885686Y-117665466D01*
X99060000Y-117648298D01*
X99234313Y-117665466D01*
X99234313Y-117665466D01*
G37*
G36*
X96694313Y-117665466D02*
G01*
X96861927Y-117716312D01*
X96908115Y-117741000D01*
X97016403Y-117798880D01*
X97151801Y-117909999D01*
X97262923Y-118045401D01*
X97345487Y-118199869D01*
X97345488Y-118199872D01*
X97396334Y-118367486D01*
X97409200Y-118498120D01*
X97409200Y-120261880D01*
X97396334Y-120392514D01*
X97345488Y-120560128D01*
X97345487Y-120560131D01*
X97262923Y-120714599D01*
X97151801Y-120850001D01*
X97016399Y-120961123D01*
X96861931Y-121043687D01*
X96861928Y-121043688D01*
X96694314Y-121094534D01*
X96520000Y-121111702D01*
X96345687Y-121094534D01*
X96178073Y-121043688D01*
X96178070Y-121043687D01*
X96023602Y-120961123D01*
X95888200Y-120850001D01*
X95777078Y-120714599D01*
X95694514Y-120560131D01*
X95694513Y-120560128D01*
X95643667Y-120392514D01*
X95630801Y-120261880D01*
X95630800Y-118498121D01*
X95643666Y-118367487D01*
X95694512Y-118199873D01*
X95777078Y-118045401D01*
X95777080Y-118045397D01*
X95888199Y-117909999D01*
X96023601Y-117798877D01*
X96178069Y-117716313D01*
X96178072Y-117716312D01*
X96345686Y-117665466D01*
X96520000Y-117648298D01*
X96694313Y-117665466D01*
X96694313Y-117665466D01*
G37*
G36*
X94154313Y-117665466D02*
G01*
X94321927Y-117716312D01*
X94368115Y-117741000D01*
X94476403Y-117798880D01*
X94611801Y-117909999D01*
X94722923Y-118045401D01*
X94805487Y-118199869D01*
X94805488Y-118199872D01*
X94856334Y-118367486D01*
X94869200Y-118498120D01*
X94869200Y-120261880D01*
X94856334Y-120392514D01*
X94805488Y-120560128D01*
X94805487Y-120560131D01*
X94722923Y-120714599D01*
X94611801Y-120850001D01*
X94476399Y-120961123D01*
X94321931Y-121043687D01*
X94321928Y-121043688D01*
X94154314Y-121094534D01*
X93980000Y-121111702D01*
X93805687Y-121094534D01*
X93638073Y-121043688D01*
X93638070Y-121043687D01*
X93483602Y-120961123D01*
X93348200Y-120850001D01*
X93237078Y-120714599D01*
X93154514Y-120560131D01*
X93154513Y-120560128D01*
X93103667Y-120392514D01*
X93090801Y-120261880D01*
X93090800Y-118498121D01*
X93103666Y-118367487D01*
X93154512Y-118199873D01*
X93237078Y-118045401D01*
X93237080Y-118045397D01*
X93348199Y-117909999D01*
X93483601Y-117798877D01*
X93638069Y-117716313D01*
X93638072Y-117716312D01*
X93805686Y-117665466D01*
X93980000Y-117648298D01*
X94154313Y-117665466D01*
X94154313Y-117665466D01*
G37*
G36*
X106790442Y-118485518D02*
G01*
X106856627Y-118492037D01*
X107026466Y-118543557D01*
X107182991Y-118627222D01*
X107218729Y-118656552D01*
X107320186Y-118739814D01*
X107403448Y-118841271D01*
X107432778Y-118877009D01*
X107516443Y-119033534D01*
X107567963Y-119203373D01*
X107585359Y-119380000D01*
X107567963Y-119556627D01*
X107516443Y-119726466D01*
X107432778Y-119882991D01*
X107413573Y-119906392D01*
X107320186Y-120020186D01*
X107218729Y-120103448D01*
X107182991Y-120132778D01*
X107026466Y-120216443D01*
X106856627Y-120267963D01*
X106790442Y-120274482D01*
X106724260Y-120281000D01*
X106635740Y-120281000D01*
X106569558Y-120274482D01*
X106503373Y-120267963D01*
X106333534Y-120216443D01*
X106177009Y-120132778D01*
X106141271Y-120103448D01*
X106039814Y-120020186D01*
X105946427Y-119906392D01*
X105927222Y-119882991D01*
X105843557Y-119726466D01*
X105792037Y-119556627D01*
X105774641Y-119380000D01*
X105792037Y-119203373D01*
X105843557Y-119033534D01*
X105927222Y-118877009D01*
X105956552Y-118841271D01*
X106039814Y-118739814D01*
X106141271Y-118656552D01*
X106177009Y-118627222D01*
X106333534Y-118543557D01*
X106503373Y-118492037D01*
X106569558Y-118485518D01*
X106635740Y-118479000D01*
X106724260Y-118479000D01*
X106790442Y-118485518D01*
X106790442Y-118485518D01*
G37*
G36*
X140278571Y-118582863D02*
G01*
X140357023Y-118590590D01*
X140457682Y-118621125D01*
X140508013Y-118636392D01*
X140647165Y-118710771D01*
X140769133Y-118810867D01*
X140869229Y-118932835D01*
X140943608Y-119071987D01*
X140943608Y-119071988D01*
X140989410Y-119222977D01*
X141004875Y-119380000D01*
X140989410Y-119537023D01*
X140983463Y-119556627D01*
X140943608Y-119688013D01*
X140869229Y-119827165D01*
X140769133Y-119949133D01*
X140647165Y-120049229D01*
X140508013Y-120123608D01*
X140457682Y-120138875D01*
X140357023Y-120169410D01*
X140278571Y-120177137D01*
X140239346Y-120181000D01*
X139160654Y-120181000D01*
X139121429Y-120177137D01*
X139042977Y-120169410D01*
X138942318Y-120138875D01*
X138891987Y-120123608D01*
X138752835Y-120049229D01*
X138630867Y-119949133D01*
X138530771Y-119827165D01*
X138456392Y-119688013D01*
X138416537Y-119556627D01*
X138410590Y-119537023D01*
X138395125Y-119380000D01*
X138410590Y-119222977D01*
X138456392Y-119071988D01*
X138456392Y-119071987D01*
X138530771Y-118932835D01*
X138630867Y-118810867D01*
X138752835Y-118710771D01*
X138891987Y-118636392D01*
X138942318Y-118621125D01*
X139042977Y-118590590D01*
X139121429Y-118582863D01*
X139160654Y-118579000D01*
X140239346Y-118579000D01*
X140278571Y-118582863D01*
X140278571Y-118582863D01*
G37*
G36*
X132658571Y-118582863D02*
G01*
X132737023Y-118590590D01*
X132837682Y-118621125D01*
X132888013Y-118636392D01*
X133027165Y-118710771D01*
X133149133Y-118810867D01*
X133249229Y-118932835D01*
X133323608Y-119071987D01*
X133323608Y-119071988D01*
X133369410Y-119222977D01*
X133384875Y-119380000D01*
X133369410Y-119537023D01*
X133363463Y-119556627D01*
X133323608Y-119688013D01*
X133249229Y-119827165D01*
X133149133Y-119949133D01*
X133027165Y-120049229D01*
X132888013Y-120123608D01*
X132837682Y-120138875D01*
X132737023Y-120169410D01*
X132658571Y-120177137D01*
X132619346Y-120181000D01*
X131540654Y-120181000D01*
X131501429Y-120177137D01*
X131422977Y-120169410D01*
X131322318Y-120138875D01*
X131271987Y-120123608D01*
X131132835Y-120049229D01*
X131010867Y-119949133D01*
X130910771Y-119827165D01*
X130836392Y-119688013D01*
X130796537Y-119556627D01*
X130790590Y-119537023D01*
X130775125Y-119380000D01*
X130790590Y-119222977D01*
X130836392Y-119071988D01*
X130836392Y-119071987D01*
X130910771Y-118932835D01*
X131010867Y-118810867D01*
X131132835Y-118710771D01*
X131271987Y-118636392D01*
X131322318Y-118621125D01*
X131422977Y-118590590D01*
X131501429Y-118582863D01*
X131540654Y-118579000D01*
X132619346Y-118579000D01*
X132658571Y-118582863D01*
X132658571Y-118582863D01*
G37*
G36*
X147898571Y-117312863D02*
G01*
X147977023Y-117320590D01*
X148050869Y-117342991D01*
X148128013Y-117366392D01*
X148267165Y-117440771D01*
X148389133Y-117540867D01*
X148489229Y-117662835D01*
X148563608Y-117801987D01*
X148563608Y-117801988D01*
X148609410Y-117952977D01*
X148624875Y-118110000D01*
X148609410Y-118267023D01*
X148578935Y-118367486D01*
X148563608Y-118418013D01*
X148489229Y-118557165D01*
X148389133Y-118679133D01*
X148267165Y-118779229D01*
X148128013Y-118853608D01*
X148103644Y-118861000D01*
X147977023Y-118899410D01*
X147898571Y-118907137D01*
X147859346Y-118911000D01*
X146780654Y-118911000D01*
X146741429Y-118907137D01*
X146662977Y-118899410D01*
X146536356Y-118861000D01*
X146511987Y-118853608D01*
X146372835Y-118779229D01*
X146250867Y-118679133D01*
X146150771Y-118557165D01*
X146076392Y-118418013D01*
X146061065Y-118367486D01*
X146030590Y-118267023D01*
X146015125Y-118110000D01*
X146030590Y-117952977D01*
X146076392Y-117801988D01*
X146076392Y-117801987D01*
X146150771Y-117662835D01*
X146250867Y-117540867D01*
X146372835Y-117440771D01*
X146511987Y-117366392D01*
X146589131Y-117342991D01*
X146662977Y-117320590D01*
X146741429Y-117312863D01*
X146780654Y-117309000D01*
X147859346Y-117309000D01*
X147898571Y-117312863D01*
X147898571Y-117312863D01*
G37*
G36*
X126781000Y-118861000D02*
G01*
X124679000Y-118861000D01*
X124679000Y-117359000D01*
X126781000Y-117359000D01*
X126781000Y-118861000D01*
X126781000Y-118861000D01*
G37*
G36*
X106790442Y-115945518D02*
G01*
X106856627Y-115952037D01*
X107026466Y-116003557D01*
X107182991Y-116087222D01*
X107218729Y-116116552D01*
X107320186Y-116199814D01*
X107403448Y-116301271D01*
X107432778Y-116337009D01*
X107516443Y-116493534D01*
X107567963Y-116663373D01*
X107585359Y-116840000D01*
X107567963Y-117016627D01*
X107516443Y-117186466D01*
X107432778Y-117342991D01*
X107413573Y-117366392D01*
X107320186Y-117480186D01*
X107218729Y-117563448D01*
X107182991Y-117592778D01*
X107026466Y-117676443D01*
X106856627Y-117727963D01*
X106790442Y-117734482D01*
X106724260Y-117741000D01*
X106635740Y-117741000D01*
X106569558Y-117734482D01*
X106503373Y-117727963D01*
X106333534Y-117676443D01*
X106177009Y-117592778D01*
X106141271Y-117563448D01*
X106039814Y-117480186D01*
X105946427Y-117366392D01*
X105927222Y-117342991D01*
X105843557Y-117186466D01*
X105792037Y-117016627D01*
X105774641Y-116840000D01*
X105792037Y-116663373D01*
X105843557Y-116493534D01*
X105927222Y-116337009D01*
X105956552Y-116301271D01*
X106039814Y-116199814D01*
X106141271Y-116116552D01*
X106177009Y-116087222D01*
X106333534Y-116003557D01*
X106503373Y-115952037D01*
X106569558Y-115945518D01*
X106635740Y-115939000D01*
X106724260Y-115939000D01*
X106790442Y-115945518D01*
X106790442Y-115945518D01*
G37*
G36*
X132658571Y-116042863D02*
G01*
X132737023Y-116050590D01*
X132837682Y-116081125D01*
X132888013Y-116096392D01*
X133027165Y-116170771D01*
X133149133Y-116270867D01*
X133249229Y-116392835D01*
X133323608Y-116531987D01*
X133323608Y-116531988D01*
X133369410Y-116682977D01*
X133384875Y-116840000D01*
X133369410Y-116997023D01*
X133363463Y-117016627D01*
X133323608Y-117148013D01*
X133249229Y-117287165D01*
X133149133Y-117409133D01*
X133027165Y-117509229D01*
X132888013Y-117583608D01*
X132837682Y-117598875D01*
X132737023Y-117629410D01*
X132658571Y-117637137D01*
X132619346Y-117641000D01*
X131540654Y-117641000D01*
X131501429Y-117637137D01*
X131422977Y-117629410D01*
X131322318Y-117598875D01*
X131271987Y-117583608D01*
X131132835Y-117509229D01*
X131010867Y-117409133D01*
X130910771Y-117287165D01*
X130836392Y-117148013D01*
X130796537Y-117016627D01*
X130790590Y-116997023D01*
X130775125Y-116840000D01*
X130790590Y-116682977D01*
X130836392Y-116531988D01*
X130836392Y-116531987D01*
X130910771Y-116392835D01*
X131010867Y-116270867D01*
X131132835Y-116170771D01*
X131271987Y-116096392D01*
X131322318Y-116081125D01*
X131422977Y-116050590D01*
X131501429Y-116042863D01*
X131540654Y-116039000D01*
X132619346Y-116039000D01*
X132658571Y-116042863D01*
X132658571Y-116042863D01*
G37*
G36*
X140278571Y-116042863D02*
G01*
X140357023Y-116050590D01*
X140457682Y-116081125D01*
X140508013Y-116096392D01*
X140647165Y-116170771D01*
X140769133Y-116270867D01*
X140869229Y-116392835D01*
X140943608Y-116531987D01*
X140943608Y-116531988D01*
X140989410Y-116682977D01*
X141004875Y-116840000D01*
X140989410Y-116997023D01*
X140983463Y-117016627D01*
X140943608Y-117148013D01*
X140869229Y-117287165D01*
X140769133Y-117409133D01*
X140647165Y-117509229D01*
X140508013Y-117583608D01*
X140457682Y-117598875D01*
X140357023Y-117629410D01*
X140278571Y-117637137D01*
X140239346Y-117641000D01*
X139160654Y-117641000D01*
X139121429Y-117637137D01*
X139042977Y-117629410D01*
X138942318Y-117598875D01*
X138891987Y-117583608D01*
X138752835Y-117509229D01*
X138630867Y-117409133D01*
X138530771Y-117287165D01*
X138456392Y-117148013D01*
X138416537Y-117016627D01*
X138410590Y-116997023D01*
X138395125Y-116840000D01*
X138410590Y-116682977D01*
X138456392Y-116531988D01*
X138456392Y-116531987D01*
X138530771Y-116392835D01*
X138630867Y-116270867D01*
X138752835Y-116170771D01*
X138891987Y-116096392D01*
X138942318Y-116081125D01*
X139042977Y-116050590D01*
X139121429Y-116042863D01*
X139160654Y-116039000D01*
X140239346Y-116039000D01*
X140278571Y-116042863D01*
X140278571Y-116042863D01*
G37*
G36*
X148221000Y-116471000D02*
G01*
X146419000Y-116471000D01*
X146419000Y-114669000D01*
X148221000Y-114669000D01*
X148221000Y-116471000D01*
X148221000Y-116471000D01*
G37*
G36*
X126631000Y-116471000D02*
G01*
X124829000Y-116471000D01*
X124829000Y-114669000D01*
X126631000Y-114669000D01*
X126631000Y-116471000D01*
X126631000Y-116471000D01*
G37*
G36*
X107581000Y-115201000D02*
G01*
X105779000Y-115201000D01*
X105779000Y-113399000D01*
X107581000Y-113399000D01*
X107581000Y-115201000D01*
X107581000Y-115201000D01*
G37*
G36*
X132931000Y-115151000D02*
G01*
X131229000Y-115151000D01*
X131229000Y-113449000D01*
X132931000Y-113449000D01*
X132931000Y-115151000D01*
X132931000Y-115151000D01*
G37*
G36*
X140278571Y-113502863D02*
G01*
X140357023Y-113510590D01*
X140457682Y-113541125D01*
X140508013Y-113556392D01*
X140647165Y-113630771D01*
X140769133Y-113730867D01*
X140869229Y-113852835D01*
X140943608Y-113991987D01*
X140943608Y-113991988D01*
X140989410Y-114142977D01*
X141004875Y-114300000D01*
X140989410Y-114457023D01*
X140958875Y-114557682D01*
X140943608Y-114608013D01*
X140869229Y-114747165D01*
X140769133Y-114869133D01*
X140647165Y-114969229D01*
X140508013Y-115043608D01*
X140457682Y-115058875D01*
X140357023Y-115089410D01*
X140278571Y-115097137D01*
X140239346Y-115101000D01*
X139160654Y-115101000D01*
X139121429Y-115097137D01*
X139042977Y-115089410D01*
X138942318Y-115058875D01*
X138891987Y-115043608D01*
X138752835Y-114969229D01*
X138630867Y-114869133D01*
X138530771Y-114747165D01*
X138456392Y-114608013D01*
X138441125Y-114557682D01*
X138410590Y-114457023D01*
X138395125Y-114300000D01*
X138410590Y-114142977D01*
X138456392Y-113991988D01*
X138456392Y-113991987D01*
X138530771Y-113852835D01*
X138630867Y-113730867D01*
X138752835Y-113630771D01*
X138891987Y-113556392D01*
X138942318Y-113541125D01*
X139042977Y-113510590D01*
X139121429Y-113502863D01*
X139160654Y-113499000D01*
X140239346Y-113499000D01*
X140278571Y-113502863D01*
X140278571Y-113502863D01*
G37*
G36*
X89701000Y-107981000D02*
G01*
X88099000Y-107981000D01*
X88099000Y-105379000D01*
X89701000Y-105379000D01*
X89701000Y-107981000D01*
X89701000Y-107981000D01*
G37*
G36*
X140501000Y-107981000D02*
G01*
X138899000Y-107981000D01*
X138899000Y-105379000D01*
X140501000Y-105379000D01*
X140501000Y-107981000D01*
X140501000Y-107981000D01*
G37*
G36*
X137961000Y-107981000D02*
G01*
X136359000Y-107981000D01*
X136359000Y-105379000D01*
X137961000Y-105379000D01*
X137961000Y-107981000D01*
X137961000Y-107981000D01*
G37*
G36*
X135421000Y-107981000D02*
G01*
X133819000Y-107981000D01*
X133819000Y-105379000D01*
X135421000Y-105379000D01*
X135421000Y-107981000D01*
X135421000Y-107981000D01*
G37*
G36*
X132881000Y-107981000D02*
G01*
X131279000Y-107981000D01*
X131279000Y-105379000D01*
X132881000Y-105379000D01*
X132881000Y-107981000D01*
X132881000Y-107981000D01*
G37*
G36*
X130341000Y-107981000D02*
G01*
X128739000Y-107981000D01*
X128739000Y-105379000D01*
X130341000Y-105379000D01*
X130341000Y-107981000D01*
X130341000Y-107981000D01*
G37*
G36*
X127801000Y-107981000D02*
G01*
X126199000Y-107981000D01*
X126199000Y-105379000D01*
X127801000Y-105379000D01*
X127801000Y-107981000D01*
X127801000Y-107981000D01*
G37*
G36*
X120181000Y-107981000D02*
G01*
X118579000Y-107981000D01*
X118579000Y-105379000D01*
X120181000Y-105379000D01*
X120181000Y-107981000D01*
X120181000Y-107981000D01*
G37*
G36*
X117641000Y-107981000D02*
G01*
X116039000Y-107981000D01*
X116039000Y-105379000D01*
X117641000Y-105379000D01*
X117641000Y-107981000D01*
X117641000Y-107981000D01*
G37*
G36*
X115101000Y-107981000D02*
G01*
X113499000Y-107981000D01*
X113499000Y-105379000D01*
X115101000Y-105379000D01*
X115101000Y-107981000D01*
X115101000Y-107981000D01*
G37*
G36*
X110021000Y-107981000D02*
G01*
X108419000Y-107981000D01*
X108419000Y-105379000D01*
X110021000Y-105379000D01*
X110021000Y-107981000D01*
X110021000Y-107981000D01*
G37*
G36*
X112561000Y-107981000D02*
G01*
X110959000Y-107981000D01*
X110959000Y-105379000D01*
X112561000Y-105379000D01*
X112561000Y-107981000D01*
X112561000Y-107981000D01*
G37*
G36*
X92241000Y-107981000D02*
G01*
X90639000Y-107981000D01*
X90639000Y-105379000D01*
X92241000Y-105379000D01*
X92241000Y-107981000D01*
X92241000Y-107981000D01*
G37*
G36*
X87161000Y-107981000D02*
G01*
X85559000Y-107981000D01*
X85559000Y-105379000D01*
X87161000Y-105379000D01*
X87161000Y-107981000D01*
X87161000Y-107981000D01*
G37*
G36*
X94781000Y-107981000D02*
G01*
X93179000Y-107981000D01*
X93179000Y-105379000D01*
X94781000Y-105379000D01*
X94781000Y-107981000D01*
X94781000Y-107981000D01*
G37*
G36*
X97321000Y-107981000D02*
G01*
X95719000Y-107981000D01*
X95719000Y-105379000D01*
X97321000Y-105379000D01*
X97321000Y-107981000D01*
X97321000Y-107981000D01*
G37*
G36*
X99861000Y-107981000D02*
G01*
X98259000Y-107981000D01*
X98259000Y-105379000D01*
X99861000Y-105379000D01*
X99861000Y-107981000D01*
X99861000Y-107981000D01*
G37*
G36*
X102401000Y-107981000D02*
G01*
X100799000Y-107981000D01*
X100799000Y-105379000D01*
X102401000Y-105379000D01*
X102401000Y-107981000D01*
X102401000Y-107981000D01*
G37*
G36*
X104941000Y-107981000D02*
G01*
X103339000Y-107981000D01*
X103339000Y-105379000D01*
X104941000Y-105379000D01*
X104941000Y-107981000D01*
X104941000Y-107981000D01*
G37*
G36*
X107481000Y-107981000D02*
G01*
X105879000Y-107981000D01*
X105879000Y-105379000D01*
X107481000Y-105379000D01*
X107481000Y-107981000D01*
X107481000Y-107981000D01*
G37*
G36*
X125161000Y-107831000D02*
G01*
X123759000Y-107831000D01*
X123759000Y-105529000D01*
X125161000Y-105529000D01*
X125161000Y-107831000D01*
X125161000Y-107831000D01*
G37*
G36*
X122621000Y-107831000D02*
G01*
X121219000Y-107831000D01*
X121219000Y-105529000D01*
X122621000Y-105529000D01*
X122621000Y-107831000D01*
X122621000Y-107831000D01*
G37*
G36*
X84671000Y-107531000D02*
G01*
X82969000Y-107531000D01*
X82969000Y-105829000D01*
X84671000Y-105829000D01*
X84671000Y-107531000D01*
X84671000Y-107531000D01*
G37*
G36*
X142488228Y-105861703D02*
G01*
X142643100Y-105925853D01*
X142782481Y-106018985D01*
X142901015Y-106137519D01*
X142994147Y-106276900D01*
X143058297Y-106431772D01*
X143091000Y-106596184D01*
X143091000Y-106763816D01*
X143058297Y-106928228D01*
X142994147Y-107083100D01*
X142901015Y-107222481D01*
X142782481Y-107341015D01*
X142643100Y-107434147D01*
X142488228Y-107498297D01*
X142323816Y-107531000D01*
X142156184Y-107531000D01*
X141991772Y-107498297D01*
X141836900Y-107434147D01*
X141697519Y-107341015D01*
X141578985Y-107222481D01*
X141485853Y-107083100D01*
X141421703Y-106928228D01*
X141389000Y-106763816D01*
X141389000Y-106596184D01*
X141421703Y-106431772D01*
X141485853Y-106276900D01*
X141578985Y-106137519D01*
X141697519Y-106018985D01*
X141836900Y-105925853D01*
X141991772Y-105861703D01*
X142156184Y-105829000D01*
X142323816Y-105829000D01*
X142488228Y-105861703D01*
X142488228Y-105861703D01*
G37*
G36*
X129788228Y-103321703D02*
G01*
X129943100Y-103385853D01*
X130082481Y-103478985D01*
X130201015Y-103597519D01*
X130294147Y-103736900D01*
X130358297Y-103891772D01*
X130391000Y-104056184D01*
X130391000Y-104223816D01*
X130358297Y-104388228D01*
X130294147Y-104543100D01*
X130201015Y-104682481D01*
X130082481Y-104801015D01*
X129943100Y-104894147D01*
X129788228Y-104958297D01*
X129623816Y-104991000D01*
X129456184Y-104991000D01*
X129291772Y-104958297D01*
X129136900Y-104894147D01*
X128997519Y-104801015D01*
X128878985Y-104682481D01*
X128785853Y-104543100D01*
X128721703Y-104388228D01*
X128689000Y-104223816D01*
X128689000Y-104056184D01*
X128721703Y-103891772D01*
X128785853Y-103736900D01*
X128878985Y-103597519D01*
X128997519Y-103478985D01*
X129136900Y-103385853D01*
X129291772Y-103321703D01*
X129456184Y-103289000D01*
X129623816Y-103289000D01*
X129788228Y-103321703D01*
X129788228Y-103321703D01*
G37*
G36*
X98038228Y-102861703D02*
G01*
X98193100Y-102925853D01*
X98332481Y-103018985D01*
X98451015Y-103137519D01*
X98544147Y-103276900D01*
X98608297Y-103431772D01*
X98641000Y-103596184D01*
X98641000Y-103763816D01*
X98608297Y-103928228D01*
X98544147Y-104083100D01*
X98451015Y-104222481D01*
X98332481Y-104341015D01*
X98193100Y-104434147D01*
X98038228Y-104498297D01*
X97873816Y-104531000D01*
X97706184Y-104531000D01*
X97541772Y-104498297D01*
X97386900Y-104434147D01*
X97247519Y-104341015D01*
X97128985Y-104222481D01*
X97035853Y-104083100D01*
X96971703Y-103928228D01*
X96939000Y-103763816D01*
X96939000Y-103596184D01*
X96971703Y-103431772D01*
X97035853Y-103276900D01*
X97128985Y-103137519D01*
X97247519Y-103018985D01*
X97386900Y-102925853D01*
X97541772Y-102861703D01*
X97706184Y-102829000D01*
X97873816Y-102829000D01*
X98038228Y-102861703D01*
X98038228Y-102861703D01*
G37*
G36*
X95498228Y-102861703D02*
G01*
X95653100Y-102925853D01*
X95792481Y-103018985D01*
X95911015Y-103137519D01*
X96004147Y-103276900D01*
X96068297Y-103431772D01*
X96101000Y-103596184D01*
X96101000Y-103763816D01*
X96068297Y-103928228D01*
X96004147Y-104083100D01*
X95911015Y-104222481D01*
X95792481Y-104341015D01*
X95653100Y-104434147D01*
X95498228Y-104498297D01*
X95333816Y-104531000D01*
X95166184Y-104531000D01*
X95001772Y-104498297D01*
X94846900Y-104434147D01*
X94707519Y-104341015D01*
X94588985Y-104222481D01*
X94495853Y-104083100D01*
X94431703Y-103928228D01*
X94399000Y-103763816D01*
X94399000Y-103596184D01*
X94431703Y-103431772D01*
X94495853Y-103276900D01*
X94588985Y-103137519D01*
X94707519Y-103018985D01*
X94846900Y-102925853D01*
X95001772Y-102861703D01*
X95166184Y-102829000D01*
X95333816Y-102829000D01*
X95498228Y-102861703D01*
X95498228Y-102861703D01*
G37*
G36*
X100578228Y-102861703D02*
G01*
X100733100Y-102925853D01*
X100872481Y-103018985D01*
X100991015Y-103137519D01*
X101084147Y-103276900D01*
X101148297Y-103431772D01*
X101181000Y-103596184D01*
X101181000Y-103763816D01*
X101148297Y-103928228D01*
X101084147Y-104083100D01*
X100991015Y-104222481D01*
X100872481Y-104341015D01*
X100733100Y-104434147D01*
X100578228Y-104498297D01*
X100413816Y-104531000D01*
X100246184Y-104531000D01*
X100081772Y-104498297D01*
X99926900Y-104434147D01*
X99787519Y-104341015D01*
X99668985Y-104222481D01*
X99575853Y-104083100D01*
X99511703Y-103928228D01*
X99479000Y-103763816D01*
X99479000Y-103596184D01*
X99511703Y-103431772D01*
X99575853Y-103276900D01*
X99668985Y-103137519D01*
X99787519Y-103018985D01*
X99926900Y-102925853D01*
X100081772Y-102861703D01*
X100246184Y-102829000D01*
X100413816Y-102829000D01*
X100578228Y-102861703D01*
X100578228Y-102861703D01*
G37*
G36*
X92958228Y-102861703D02*
G01*
X93113100Y-102925853D01*
X93252481Y-103018985D01*
X93371015Y-103137519D01*
X93464147Y-103276900D01*
X93528297Y-103431772D01*
X93561000Y-103596184D01*
X93561000Y-103763816D01*
X93528297Y-103928228D01*
X93464147Y-104083100D01*
X93371015Y-104222481D01*
X93252481Y-104341015D01*
X93113100Y-104434147D01*
X92958228Y-104498297D01*
X92793816Y-104531000D01*
X92626184Y-104531000D01*
X92461772Y-104498297D01*
X92306900Y-104434147D01*
X92167519Y-104341015D01*
X92048985Y-104222481D01*
X91955853Y-104083100D01*
X91891703Y-103928228D01*
X91859000Y-103763816D01*
X91859000Y-103596184D01*
X91891703Y-103431772D01*
X91955853Y-103276900D01*
X92048985Y-103137519D01*
X92167519Y-103018985D01*
X92306900Y-102925853D01*
X92461772Y-102861703D01*
X92626184Y-102829000D01*
X92793816Y-102829000D01*
X92958228Y-102861703D01*
X92958228Y-102861703D01*
G37*
G36*
X90418228Y-102861703D02*
G01*
X90573100Y-102925853D01*
X90712481Y-103018985D01*
X90831015Y-103137519D01*
X90924147Y-103276900D01*
X90988297Y-103431772D01*
X91021000Y-103596184D01*
X91021000Y-103763816D01*
X90988297Y-103928228D01*
X90924147Y-104083100D01*
X90831015Y-104222481D01*
X90712481Y-104341015D01*
X90573100Y-104434147D01*
X90418228Y-104498297D01*
X90253816Y-104531000D01*
X90086184Y-104531000D01*
X89921772Y-104498297D01*
X89766900Y-104434147D01*
X89627519Y-104341015D01*
X89508985Y-104222481D01*
X89415853Y-104083100D01*
X89351703Y-103928228D01*
X89319000Y-103763816D01*
X89319000Y-103596184D01*
X89351703Y-103431772D01*
X89415853Y-103276900D01*
X89508985Y-103137519D01*
X89627519Y-103018985D01*
X89766900Y-102925853D01*
X89921772Y-102861703D01*
X90086184Y-102829000D01*
X90253816Y-102829000D01*
X90418228Y-102861703D01*
X90418228Y-102861703D01*
G37*
G36*
X86746847Y-100195605D02*
G01*
X86856455Y-100217407D01*
X87166199Y-100345707D01*
X87444962Y-100531970D01*
X87682030Y-100769038D01*
X87868293Y-101047801D01*
X87996021Y-101356165D01*
X87996593Y-101357546D01*
X88062000Y-101686366D01*
X88062000Y-102021634D01*
X88018395Y-102240847D01*
X87996593Y-102350455D01*
X87868293Y-102660199D01*
X87682030Y-102938962D01*
X87444962Y-103176030D01*
X87166199Y-103362293D01*
X86856455Y-103490593D01*
X86746847Y-103512395D01*
X86527634Y-103556000D01*
X86192366Y-103556000D01*
X85973153Y-103512395D01*
X85863545Y-103490593D01*
X85553801Y-103362293D01*
X85275038Y-103176030D01*
X85037970Y-102938962D01*
X84851707Y-102660199D01*
X84723407Y-102350455D01*
X84701605Y-102240847D01*
X84658000Y-102021634D01*
X84658000Y-101686366D01*
X84723407Y-101357546D01*
X84723979Y-101356165D01*
X84851707Y-101047801D01*
X85037970Y-100769038D01*
X85275038Y-100531970D01*
X85553801Y-100345707D01*
X85863545Y-100217407D01*
X85973153Y-100195605D01*
X86192366Y-100152000D01*
X86527634Y-100152000D01*
X86746847Y-100195605D01*
X86746847Y-100195605D01*
G37*
G36*
X96826564Y-100843389D02*
G01*
X97017833Y-100922615D01*
X97017835Y-100922616D01*
X97189973Y-101037635D01*
X97336365Y-101184027D01*
X97448449Y-101351772D01*
X97451385Y-101356167D01*
X97530611Y-101547436D01*
X97571000Y-101750484D01*
X97571000Y-101957516D01*
X97530611Y-102160564D01*
X97489003Y-102261015D01*
X97451384Y-102351835D01*
X97336365Y-102523973D01*
X97189973Y-102670365D01*
X97017835Y-102785384D01*
X97017834Y-102785385D01*
X97017833Y-102785385D01*
X96826564Y-102864611D01*
X96623516Y-102905000D01*
X96416484Y-102905000D01*
X96213436Y-102864611D01*
X96022167Y-102785385D01*
X96022166Y-102785385D01*
X96022165Y-102785384D01*
X95850027Y-102670365D01*
X95703635Y-102523973D01*
X95588616Y-102351835D01*
X95550997Y-102261015D01*
X95509389Y-102160564D01*
X95469000Y-101957516D01*
X95469000Y-101750484D01*
X95509389Y-101547436D01*
X95588615Y-101356167D01*
X95591552Y-101351772D01*
X95703635Y-101184027D01*
X95850027Y-101037635D01*
X96022165Y-100922616D01*
X96022167Y-100922615D01*
X96213436Y-100843389D01*
X96416484Y-100803000D01*
X96623516Y-100803000D01*
X96826564Y-100843389D01*
X96826564Y-100843389D01*
G37*
G36*
X129788228Y-100781703D02*
G01*
X129943100Y-100845853D01*
X130082481Y-100938985D01*
X130201015Y-101057519D01*
X130294147Y-101196900D01*
X130358297Y-101351772D01*
X130391000Y-101516184D01*
X130391000Y-101683816D01*
X130358297Y-101848228D01*
X130294147Y-102003100D01*
X130201015Y-102142481D01*
X130082481Y-102261015D01*
X129943100Y-102354147D01*
X129788228Y-102418297D01*
X129623816Y-102451000D01*
X129456184Y-102451000D01*
X129291772Y-102418297D01*
X129136900Y-102354147D01*
X128997519Y-102261015D01*
X128878985Y-102142481D01*
X128785853Y-102003100D01*
X128721703Y-101848228D01*
X128689000Y-101683816D01*
X128689000Y-101516184D01*
X128721703Y-101351772D01*
X128785853Y-101196900D01*
X128878985Y-101057519D01*
X128997519Y-100938985D01*
X129136900Y-100845853D01*
X129291772Y-100781703D01*
X129456184Y-100749000D01*
X129623816Y-100749000D01*
X129788228Y-100781703D01*
X129788228Y-100781703D01*
G37*
G36*
X129788228Y-98241703D02*
G01*
X129943100Y-98305853D01*
X130082481Y-98398985D01*
X130201015Y-98517519D01*
X130294147Y-98656900D01*
X130358297Y-98811772D01*
X130391000Y-98976184D01*
X130391000Y-99143816D01*
X130358297Y-99308228D01*
X130294147Y-99463100D01*
X130201015Y-99602481D01*
X130082481Y-99721015D01*
X129943100Y-99814147D01*
X129788228Y-99878297D01*
X129623816Y-99911000D01*
X129456184Y-99911000D01*
X129291772Y-99878297D01*
X129136900Y-99814147D01*
X128997519Y-99721015D01*
X128878985Y-99602481D01*
X128785853Y-99463100D01*
X128721703Y-99308228D01*
X128689000Y-99143816D01*
X128689000Y-98976184D01*
X128721703Y-98811772D01*
X128785853Y-98656900D01*
X128878985Y-98517519D01*
X128997519Y-98398985D01*
X129136900Y-98305853D01*
X129291772Y-98241703D01*
X129456184Y-98209000D01*
X129623816Y-98209000D01*
X129788228Y-98241703D01*
X129788228Y-98241703D01*
G37*
G36*
X129788228Y-95701703D02*
G01*
X129943100Y-95765853D01*
X130082481Y-95858985D01*
X130201015Y-95977519D01*
X130294147Y-96116900D01*
X130358297Y-96271772D01*
X130391000Y-96436184D01*
X130391000Y-96603816D01*
X130358297Y-96768228D01*
X130294147Y-96923100D01*
X130201015Y-97062481D01*
X130082481Y-97181015D01*
X129943100Y-97274147D01*
X129788228Y-97338297D01*
X129623816Y-97371000D01*
X129456184Y-97371000D01*
X129291772Y-97338297D01*
X129136900Y-97274147D01*
X128997519Y-97181015D01*
X128878985Y-97062481D01*
X128785853Y-96923100D01*
X128721703Y-96768228D01*
X128689000Y-96603816D01*
X128689000Y-96436184D01*
X128721703Y-96271772D01*
X128785853Y-96116900D01*
X128878985Y-95977519D01*
X128997519Y-95858985D01*
X129136900Y-95765853D01*
X129291772Y-95701703D01*
X129456184Y-95669000D01*
X129623816Y-95669000D01*
X129788228Y-95701703D01*
X129788228Y-95701703D01*
G37*
G36*
X129788228Y-93161703D02*
G01*
X129943100Y-93225853D01*
X130082481Y-93318985D01*
X130201015Y-93437519D01*
X130294147Y-93576900D01*
X130358297Y-93731772D01*
X130391000Y-93896184D01*
X130391000Y-94063816D01*
X130358297Y-94228228D01*
X130294147Y-94383100D01*
X130201015Y-94522481D01*
X130082481Y-94641015D01*
X129943100Y-94734147D01*
X129788228Y-94798297D01*
X129623816Y-94831000D01*
X129456184Y-94831000D01*
X129291772Y-94798297D01*
X129136900Y-94734147D01*
X128997519Y-94641015D01*
X128878985Y-94522481D01*
X128785853Y-94383100D01*
X128721703Y-94228228D01*
X128689000Y-94063816D01*
X128689000Y-93896184D01*
X128721703Y-93731772D01*
X128785853Y-93576900D01*
X128878985Y-93437519D01*
X128997519Y-93318985D01*
X129136900Y-93225853D01*
X129291772Y-93161703D01*
X129456184Y-93129000D01*
X129623816Y-93129000D01*
X129788228Y-93161703D01*
X129788228Y-93161703D01*
G37*
G36*
X94228228Y-93161703D02*
G01*
X94383100Y-93225853D01*
X94522481Y-93318985D01*
X94641015Y-93437519D01*
X94734147Y-93576900D01*
X94798297Y-93731772D01*
X94831000Y-93896184D01*
X94831000Y-94063816D01*
X94798297Y-94228228D01*
X94734147Y-94383100D01*
X94641015Y-94522481D01*
X94522481Y-94641015D01*
X94383100Y-94734147D01*
X94228228Y-94798297D01*
X94063816Y-94831000D01*
X93896184Y-94831000D01*
X93731772Y-94798297D01*
X93576900Y-94734147D01*
X93437519Y-94641015D01*
X93318985Y-94522481D01*
X93225853Y-94383100D01*
X93161703Y-94228228D01*
X93129000Y-94063816D01*
X93129000Y-93896184D01*
X93161703Y-93731772D01*
X93225853Y-93576900D01*
X93318985Y-93437519D01*
X93437519Y-93318985D01*
X93576900Y-93225853D01*
X93731772Y-93161703D01*
X93896184Y-93129000D01*
X94063816Y-93129000D01*
X94228228Y-93161703D01*
X94228228Y-93161703D01*
G37*
G36*
X86608228Y-93161703D02*
G01*
X86763100Y-93225853D01*
X86902481Y-93318985D01*
X87021015Y-93437519D01*
X87114147Y-93576900D01*
X87178297Y-93731772D01*
X87211000Y-93896184D01*
X87211000Y-94063816D01*
X87178297Y-94228228D01*
X87114147Y-94383100D01*
X87021015Y-94522481D01*
X86902481Y-94641015D01*
X86763100Y-94734147D01*
X86608228Y-94798297D01*
X86443816Y-94831000D01*
X86276184Y-94831000D01*
X86111772Y-94798297D01*
X85956900Y-94734147D01*
X85817519Y-94641015D01*
X85698985Y-94522481D01*
X85605853Y-94383100D01*
X85541703Y-94228228D01*
X85509000Y-94063816D01*
X85509000Y-93896184D01*
X85541703Y-93731772D01*
X85605853Y-93576900D01*
X85698985Y-93437519D01*
X85817519Y-93318985D01*
X85956900Y-93225853D01*
X86111772Y-93161703D01*
X86276184Y-93129000D01*
X86443816Y-93129000D01*
X86608228Y-93161703D01*
X86608228Y-93161703D01*
G37*
G36*
X91688228Y-93161703D02*
G01*
X91843100Y-93225853D01*
X91982481Y-93318985D01*
X92101015Y-93437519D01*
X92194147Y-93576900D01*
X92258297Y-93731772D01*
X92291000Y-93896184D01*
X92291000Y-94063816D01*
X92258297Y-94228228D01*
X92194147Y-94383100D01*
X92101015Y-94522481D01*
X91982481Y-94641015D01*
X91843100Y-94734147D01*
X91688228Y-94798297D01*
X91523816Y-94831000D01*
X91356184Y-94831000D01*
X91191772Y-94798297D01*
X91036900Y-94734147D01*
X90897519Y-94641015D01*
X90778985Y-94522481D01*
X90685853Y-94383100D01*
X90621703Y-94228228D01*
X90589000Y-94063816D01*
X90589000Y-93896184D01*
X90621703Y-93731772D01*
X90685853Y-93576900D01*
X90778985Y-93437519D01*
X90897519Y-93318985D01*
X91036900Y-93225853D01*
X91191772Y-93161703D01*
X91356184Y-93129000D01*
X91523816Y-93129000D01*
X91688228Y-93161703D01*
X91688228Y-93161703D01*
G37*
G36*
X96768228Y-93161703D02*
G01*
X96923100Y-93225853D01*
X97062481Y-93318985D01*
X97181015Y-93437519D01*
X97274147Y-93576900D01*
X97338297Y-93731772D01*
X97371000Y-93896184D01*
X97371000Y-94063816D01*
X97338297Y-94228228D01*
X97274147Y-94383100D01*
X97181015Y-94522481D01*
X97062481Y-94641015D01*
X96923100Y-94734147D01*
X96768228Y-94798297D01*
X96603816Y-94831000D01*
X96436184Y-94831000D01*
X96271772Y-94798297D01*
X96116900Y-94734147D01*
X95977519Y-94641015D01*
X95858985Y-94522481D01*
X95765853Y-94383100D01*
X95701703Y-94228228D01*
X95669000Y-94063816D01*
X95669000Y-93896184D01*
X95701703Y-93731772D01*
X95765853Y-93576900D01*
X95858985Y-93437519D01*
X95977519Y-93318985D01*
X96116900Y-93225853D01*
X96271772Y-93161703D01*
X96436184Y-93129000D01*
X96603816Y-93129000D01*
X96768228Y-93161703D01*
X96768228Y-93161703D01*
G37*
G36*
X117641000Y-92741000D02*
G01*
X116039000Y-92741000D01*
X116039000Y-90139000D01*
X117641000Y-90139000D01*
X117641000Y-92741000D01*
X117641000Y-92741000D01*
G37*
G36*
X97321000Y-92741000D02*
G01*
X95719000Y-92741000D01*
X95719000Y-90139000D01*
X97321000Y-90139000D01*
X97321000Y-92741000D01*
X97321000Y-92741000D01*
G37*
G36*
X99861000Y-92741000D02*
G01*
X98259000Y-92741000D01*
X98259000Y-90139000D01*
X99861000Y-90139000D01*
X99861000Y-92741000D01*
X99861000Y-92741000D01*
G37*
G36*
X102401000Y-92741000D02*
G01*
X100799000Y-92741000D01*
X100799000Y-90139000D01*
X102401000Y-90139000D01*
X102401000Y-92741000D01*
X102401000Y-92741000D01*
G37*
G36*
X104941000Y-92741000D02*
G01*
X103339000Y-92741000D01*
X103339000Y-90139000D01*
X104941000Y-90139000D01*
X104941000Y-92741000D01*
X104941000Y-92741000D01*
G37*
G36*
X107481000Y-92741000D02*
G01*
X105879000Y-92741000D01*
X105879000Y-90139000D01*
X107481000Y-90139000D01*
X107481000Y-92741000D01*
X107481000Y-92741000D01*
G37*
G36*
X110021000Y-92741000D02*
G01*
X108419000Y-92741000D01*
X108419000Y-90139000D01*
X110021000Y-90139000D01*
X110021000Y-92741000D01*
X110021000Y-92741000D01*
G37*
G36*
X112561000Y-92741000D02*
G01*
X110959000Y-92741000D01*
X110959000Y-90139000D01*
X112561000Y-90139000D01*
X112561000Y-92741000D01*
X112561000Y-92741000D01*
G37*
G36*
X115101000Y-92741000D02*
G01*
X113499000Y-92741000D01*
X113499000Y-90139000D01*
X115101000Y-90139000D01*
X115101000Y-92741000D01*
X115101000Y-92741000D01*
G37*
G36*
X87161000Y-92741000D02*
G01*
X85559000Y-92741000D01*
X85559000Y-90139000D01*
X87161000Y-90139000D01*
X87161000Y-92741000D01*
X87161000Y-92741000D01*
G37*
G36*
X122721000Y-92741000D02*
G01*
X121119000Y-92741000D01*
X121119000Y-90139000D01*
X122721000Y-90139000D01*
X122721000Y-92741000D01*
X122721000Y-92741000D01*
G37*
G36*
X120181000Y-92741000D02*
G01*
X118579000Y-92741000D01*
X118579000Y-90139000D01*
X120181000Y-90139000D01*
X120181000Y-92741000D01*
X120181000Y-92741000D01*
G37*
G36*
X140501000Y-92741000D02*
G01*
X138899000Y-92741000D01*
X138899000Y-90139000D01*
X140501000Y-90139000D01*
X140501000Y-92741000D01*
X140501000Y-92741000D01*
G37*
G36*
X137961000Y-92741000D02*
G01*
X136359000Y-92741000D01*
X136359000Y-90139000D01*
X137961000Y-90139000D01*
X137961000Y-92741000D01*
X137961000Y-92741000D01*
G37*
G36*
X135421000Y-92741000D02*
G01*
X133819000Y-92741000D01*
X133819000Y-90139000D01*
X135421000Y-90139000D01*
X135421000Y-92741000D01*
X135421000Y-92741000D01*
G37*
G36*
X132881000Y-92741000D02*
G01*
X131279000Y-92741000D01*
X131279000Y-90139000D01*
X132881000Y-90139000D01*
X132881000Y-92741000D01*
X132881000Y-92741000D01*
G37*
G36*
X127801000Y-92741000D02*
G01*
X126199000Y-92741000D01*
X126199000Y-90139000D01*
X127801000Y-90139000D01*
X127801000Y-92741000D01*
X127801000Y-92741000D01*
G37*
G36*
X125261000Y-92741000D02*
G01*
X123659000Y-92741000D01*
X123659000Y-90139000D01*
X125261000Y-90139000D01*
X125261000Y-92741000D01*
X125261000Y-92741000D01*
G37*
G36*
X92241000Y-92741000D02*
G01*
X90639000Y-92741000D01*
X90639000Y-90139000D01*
X92241000Y-90139000D01*
X92241000Y-92741000D01*
X92241000Y-92741000D01*
G37*
G36*
X89701000Y-92741000D02*
G01*
X88099000Y-92741000D01*
X88099000Y-90139000D01*
X89701000Y-90139000D01*
X89701000Y-92741000D01*
X89701000Y-92741000D01*
G37*
G36*
X84621000Y-92741000D02*
G01*
X83019000Y-92741000D01*
X83019000Y-90139000D01*
X84621000Y-90139000D01*
X84621000Y-92741000D01*
X84621000Y-92741000D01*
G37*
G36*
X94781000Y-92741000D02*
G01*
X93179000Y-92741000D01*
X93179000Y-90139000D01*
X94781000Y-90139000D01*
X94781000Y-92741000D01*
X94781000Y-92741000D01*
G37*
G36*
X143041000Y-92741000D02*
G01*
X141439000Y-92741000D01*
X141439000Y-90139000D01*
X143041000Y-90139000D01*
X143041000Y-92741000D01*
X143041000Y-92741000D01*
G37*
G36*
X129788228Y-90621703D02*
G01*
X129943100Y-90685853D01*
X130082481Y-90778985D01*
X130201015Y-90897519D01*
X130294147Y-91036900D01*
X130358297Y-91191772D01*
X130391000Y-91356184D01*
X130391000Y-91523816D01*
X130358297Y-91688228D01*
X130294147Y-91843100D01*
X130201015Y-91982481D01*
X130082481Y-92101015D01*
X129943100Y-92194147D01*
X129788228Y-92258297D01*
X129623816Y-92291000D01*
X129456184Y-92291000D01*
X129291772Y-92258297D01*
X129136900Y-92194147D01*
X128997519Y-92101015D01*
X128878985Y-91982481D01*
X128785853Y-91843100D01*
X128721703Y-91688228D01*
X128689000Y-91523816D01*
X128689000Y-91356184D01*
X128721703Y-91191772D01*
X128785853Y-91036900D01*
X128878985Y-90897519D01*
X128997519Y-90778985D01*
X129136900Y-90685853D01*
X129291772Y-90621703D01*
X129456184Y-90589000D01*
X129623816Y-90589000D01*
X129788228Y-90621703D01*
X129788228Y-90621703D01*
G37*
G36*
X104250442Y-80385518D02*
G01*
X104316627Y-80392037D01*
X104486466Y-80443557D01*
X104642991Y-80527222D01*
X104678729Y-80556552D01*
X104780186Y-80639814D01*
X104863448Y-80741271D01*
X104892778Y-80777009D01*
X104976443Y-80933534D01*
X105027963Y-81103373D01*
X105045359Y-81280000D01*
X105027963Y-81456627D01*
X104976443Y-81626466D01*
X104892778Y-81782991D01*
X104863448Y-81818729D01*
X104780186Y-81920186D01*
X104678729Y-82003448D01*
X104642991Y-82032778D01*
X104486466Y-82116443D01*
X104316627Y-82167963D01*
X104250443Y-82174481D01*
X104184260Y-82181000D01*
X104095740Y-82181000D01*
X104029557Y-82174481D01*
X103963373Y-82167963D01*
X103793534Y-82116443D01*
X103637009Y-82032778D01*
X103601271Y-82003448D01*
X103499814Y-81920186D01*
X103416552Y-81818729D01*
X103387222Y-81782991D01*
X103303557Y-81626466D01*
X103252037Y-81456627D01*
X103234641Y-81280000D01*
X103252037Y-81103373D01*
X103303557Y-80933534D01*
X103387222Y-80777009D01*
X103416552Y-80741271D01*
X103499814Y-80639814D01*
X103601271Y-80556552D01*
X103637009Y-80527222D01*
X103793534Y-80443557D01*
X103963373Y-80392037D01*
X104029558Y-80385518D01*
X104095740Y-80379000D01*
X104184260Y-80379000D01*
X104250442Y-80385518D01*
X104250442Y-80385518D01*
G37*
G36*
X106790442Y-80385518D02*
G01*
X106856627Y-80392037D01*
X107026466Y-80443557D01*
X107182991Y-80527222D01*
X107218729Y-80556552D01*
X107320186Y-80639814D01*
X107403448Y-80741271D01*
X107432778Y-80777009D01*
X107516443Y-80933534D01*
X107567963Y-81103373D01*
X107585359Y-81280000D01*
X107567963Y-81456627D01*
X107516443Y-81626466D01*
X107432778Y-81782991D01*
X107403448Y-81818729D01*
X107320186Y-81920186D01*
X107218729Y-82003448D01*
X107182991Y-82032778D01*
X107026466Y-82116443D01*
X106856627Y-82167963D01*
X106790443Y-82174481D01*
X106724260Y-82181000D01*
X106635740Y-82181000D01*
X106569557Y-82174481D01*
X106503373Y-82167963D01*
X106333534Y-82116443D01*
X106177009Y-82032778D01*
X106141271Y-82003448D01*
X106039814Y-81920186D01*
X105956552Y-81818729D01*
X105927222Y-81782991D01*
X105843557Y-81626466D01*
X105792037Y-81456627D01*
X105774641Y-81280000D01*
X105792037Y-81103373D01*
X105843557Y-80933534D01*
X105927222Y-80777009D01*
X105956552Y-80741271D01*
X106039814Y-80639814D01*
X106141271Y-80556552D01*
X106177009Y-80527222D01*
X106333534Y-80443557D01*
X106503373Y-80392037D01*
X106569558Y-80385518D01*
X106635740Y-80379000D01*
X106724260Y-80379000D01*
X106790442Y-80385518D01*
X106790442Y-80385518D01*
G37*
G36*
X111870442Y-80385518D02*
G01*
X111936627Y-80392037D01*
X112106466Y-80443557D01*
X112262991Y-80527222D01*
X112298729Y-80556552D01*
X112400186Y-80639814D01*
X112483448Y-80741271D01*
X112512778Y-80777009D01*
X112596443Y-80933534D01*
X112647963Y-81103373D01*
X112665359Y-81280000D01*
X112647963Y-81456627D01*
X112596443Y-81626466D01*
X112512778Y-81782991D01*
X112483448Y-81818729D01*
X112400186Y-81920186D01*
X112298729Y-82003448D01*
X112262991Y-82032778D01*
X112106466Y-82116443D01*
X111936627Y-82167963D01*
X111870443Y-82174481D01*
X111804260Y-82181000D01*
X111715740Y-82181000D01*
X111649557Y-82174481D01*
X111583373Y-82167963D01*
X111413534Y-82116443D01*
X111257009Y-82032778D01*
X111221271Y-82003448D01*
X111119814Y-81920186D01*
X111036552Y-81818729D01*
X111007222Y-81782991D01*
X110923557Y-81626466D01*
X110872037Y-81456627D01*
X110854641Y-81280000D01*
X110872037Y-81103373D01*
X110923557Y-80933534D01*
X111007222Y-80777009D01*
X111036552Y-80741271D01*
X111119814Y-80639814D01*
X111221271Y-80556552D01*
X111257009Y-80527222D01*
X111413534Y-80443557D01*
X111583373Y-80392037D01*
X111649558Y-80385518D01*
X111715740Y-80379000D01*
X111804260Y-80379000D01*
X111870442Y-80385518D01*
X111870442Y-80385518D01*
G37*
G36*
X114410442Y-80385518D02*
G01*
X114476627Y-80392037D01*
X114646466Y-80443557D01*
X114802991Y-80527222D01*
X114838729Y-80556552D01*
X114940186Y-80639814D01*
X115023448Y-80741271D01*
X115052778Y-80777009D01*
X115136443Y-80933534D01*
X115187963Y-81103373D01*
X115205359Y-81280000D01*
X115187963Y-81456627D01*
X115136443Y-81626466D01*
X115052778Y-81782991D01*
X115023448Y-81818729D01*
X114940186Y-81920186D01*
X114838729Y-82003448D01*
X114802991Y-82032778D01*
X114646466Y-82116443D01*
X114476627Y-82167963D01*
X114410443Y-82174481D01*
X114344260Y-82181000D01*
X114255740Y-82181000D01*
X114189557Y-82174481D01*
X114123373Y-82167963D01*
X113953534Y-82116443D01*
X113797009Y-82032778D01*
X113761271Y-82003448D01*
X113659814Y-81920186D01*
X113576552Y-81818729D01*
X113547222Y-81782991D01*
X113463557Y-81626466D01*
X113412037Y-81456627D01*
X113394641Y-81280000D01*
X113412037Y-81103373D01*
X113463557Y-80933534D01*
X113547222Y-80777009D01*
X113576552Y-80741271D01*
X113659814Y-80639814D01*
X113761271Y-80556552D01*
X113797009Y-80527222D01*
X113953534Y-80443557D01*
X114123373Y-80392037D01*
X114189558Y-80385518D01*
X114255740Y-80379000D01*
X114344260Y-80379000D01*
X114410442Y-80385518D01*
X114410442Y-80385518D01*
G37*
G36*
X116950442Y-80385518D02*
G01*
X117016627Y-80392037D01*
X117186466Y-80443557D01*
X117342991Y-80527222D01*
X117378729Y-80556552D01*
X117480186Y-80639814D01*
X117563448Y-80741271D01*
X117592778Y-80777009D01*
X117676443Y-80933534D01*
X117727963Y-81103373D01*
X117745359Y-81280000D01*
X117727963Y-81456627D01*
X117676443Y-81626466D01*
X117592778Y-81782991D01*
X117563448Y-81818729D01*
X117480186Y-81920186D01*
X117378729Y-82003448D01*
X117342991Y-82032778D01*
X117186466Y-82116443D01*
X117016627Y-82167963D01*
X116950443Y-82174481D01*
X116884260Y-82181000D01*
X116795740Y-82181000D01*
X116729557Y-82174481D01*
X116663373Y-82167963D01*
X116493534Y-82116443D01*
X116337009Y-82032778D01*
X116301271Y-82003448D01*
X116199814Y-81920186D01*
X116116552Y-81818729D01*
X116087222Y-81782991D01*
X116003557Y-81626466D01*
X115952037Y-81456627D01*
X115934641Y-81280000D01*
X115952037Y-81103373D01*
X116003557Y-80933534D01*
X116087222Y-80777009D01*
X116116552Y-80741271D01*
X116199814Y-80639814D01*
X116301271Y-80556552D01*
X116337009Y-80527222D01*
X116493534Y-80443557D01*
X116663373Y-80392037D01*
X116729558Y-80385518D01*
X116795740Y-80379000D01*
X116884260Y-80379000D01*
X116950442Y-80385518D01*
X116950442Y-80385518D01*
G37*
G36*
X120281000Y-82181000D02*
G01*
X118479000Y-82181000D01*
X118479000Y-80379000D01*
X120281000Y-80379000D01*
X120281000Y-82181000D01*
X120281000Y-82181000D01*
G37*
G36*
X101710442Y-80385518D02*
G01*
X101776627Y-80392037D01*
X101946466Y-80443557D01*
X102102991Y-80527222D01*
X102138729Y-80556552D01*
X102240186Y-80639814D01*
X102323448Y-80741271D01*
X102352778Y-80777009D01*
X102436443Y-80933534D01*
X102487963Y-81103373D01*
X102505359Y-81280000D01*
X102487963Y-81456627D01*
X102436443Y-81626466D01*
X102352778Y-81782991D01*
X102323448Y-81818729D01*
X102240186Y-81920186D01*
X102138729Y-82003448D01*
X102102991Y-82032778D01*
X101946466Y-82116443D01*
X101776627Y-82167963D01*
X101710443Y-82174481D01*
X101644260Y-82181000D01*
X101555740Y-82181000D01*
X101489557Y-82174481D01*
X101423373Y-82167963D01*
X101253534Y-82116443D01*
X101097009Y-82032778D01*
X101061271Y-82003448D01*
X100959814Y-81920186D01*
X100876552Y-81818729D01*
X100847222Y-81782991D01*
X100763557Y-81626466D01*
X100712037Y-81456627D01*
X100694641Y-81280000D01*
X100712037Y-81103373D01*
X100763557Y-80933534D01*
X100847222Y-80777009D01*
X100876552Y-80741271D01*
X100959814Y-80639814D01*
X101061271Y-80556552D01*
X101097009Y-80527222D01*
X101253534Y-80443557D01*
X101423373Y-80392037D01*
X101489558Y-80385518D01*
X101555740Y-80379000D01*
X101644260Y-80379000D01*
X101710442Y-80385518D01*
X101710442Y-80385518D01*
G37*
G36*
X99961000Y-82181000D02*
G01*
X98159000Y-82181000D01*
X98159000Y-80379000D01*
X99961000Y-80379000D01*
X99961000Y-82181000D01*
X99961000Y-82181000D01*
G37*
G36*
X84101000Y-80291000D02*
G01*
X80999000Y-80291000D01*
X80999000Y-77189000D01*
X84101000Y-77189000D01*
X84101000Y-80291000D01*
X84101000Y-80291000D01*
G37*
G36*
X87932585Y-77218802D02*
G01*
X88082410Y-77248604D01*
X88364674Y-77365521D01*
X88618705Y-77535259D01*
X88834741Y-77751295D01*
X89004479Y-78005326D01*
X89121396Y-78287590D01*
X89181000Y-78587240D01*
X89181000Y-78892760D01*
X89121396Y-79192410D01*
X89004479Y-79474674D01*
X88834741Y-79728705D01*
X88618705Y-79944741D01*
X88364674Y-80114479D01*
X88082410Y-80231396D01*
X87932585Y-80261198D01*
X87782761Y-80291000D01*
X87477239Y-80291000D01*
X87327415Y-80261198D01*
X87177590Y-80231396D01*
X86895326Y-80114479D01*
X86641295Y-79944741D01*
X86425259Y-79728705D01*
X86255521Y-79474674D01*
X86138604Y-79192410D01*
X86079000Y-78892760D01*
X86079000Y-78587240D01*
X86138604Y-78287590D01*
X86255521Y-78005326D01*
X86425259Y-77751295D01*
X86641295Y-77535259D01*
X86895326Y-77365521D01*
X87177590Y-77248604D01*
X87327415Y-77218802D01*
X87477239Y-77189000D01*
X87782761Y-77189000D01*
X87932585Y-77218802D01*
X87932585Y-77218802D01*
G37*
M02*
