M48
; DRILL file {KiCad (5.1.2)-2} date 10/6/2019 7:22:41 AM
; FORMAT={2:4/ absolute / inch / suppress leading zeros}
; #@! TF.CreationDate,2019-10-06T07:22:41-10:00
; #@! TF.GenerationSoftware,Kicad,Pcbnew,(5.1.2)-2
FMAT,2
INCH,TZ
T1C0.0315
T2C0.0394
T3C0.0433
T4C0.0440
T5C0.0598
T6C0.0787
T7C0.1300
%
G90
G05
T1
X33000Y-43500
X33000Y-45670
X52000Y-45000
X52000Y-46000
X52000Y-47000
X52000Y-48000
X52000Y-49000
X52000Y-50000
X52000Y-51000
X52000Y-52000
X55000Y-45000
X55000Y-46000
X55000Y-47000
X55000Y-48000
X55000Y-49000
X55000Y-50000
X55000Y-51000
X55000Y-52000
X39016Y-50000
X40000Y-50000
X37016Y-50000
X38000Y-50000
X32500Y-50000
X33484Y-50000
X34516Y-50000
X35500Y-50000
X58000Y-46500
X58000Y-47500
X58000Y-48500
X58000Y-49500
X58000Y-50500
T2
X42000Y-45000
X42000Y-46000
X42000Y-47000
X42000Y-48000
X42000Y-49000
X42000Y-50000
X42000Y-51000
X42000Y-52000
X58000Y-45500
X39000Y-32000
X40000Y-32000
X41000Y-32000
X42000Y-32000
X49500Y-45500
X49500Y-46500
X49500Y-47500
X49500Y-48500
X49500Y-49500
X49500Y-50500
X44000Y-32000
X45000Y-32000
X46000Y-32000
X47000Y-32000
T3
X33000Y-36000
X33000Y-42000
X34000Y-36000
X34000Y-37000
X34000Y-42000
X35000Y-36000
X35000Y-42000
X35500Y-40819
X36000Y-36000
X36000Y-37000
X36000Y-42000
X36500Y-40819
X37000Y-36000
X37000Y-37000
X37000Y-42000
X37500Y-40819
X38000Y-36000
X38000Y-37000
X38000Y-42000
X38500Y-40819
X39000Y-36000
X39000Y-42000
X39500Y-40819
X40000Y-36000
X40000Y-42000
X41000Y-36000
X41000Y-42000
X42000Y-36000
X42000Y-42000
X43000Y-36000
X43000Y-42000
X44000Y-36000
X44000Y-42000
X45000Y-36000
X45000Y-42000
X46000Y-36000
X46000Y-42000
X47000Y-36000
X47000Y-42000
X48000Y-36000
X48000Y-42000
X49000Y-36000
X49000Y-42000
X50000Y-36000
X50000Y-42000
X51000Y-36000
X51000Y-37000
X51000Y-38000
X51000Y-39000
X51000Y-40000
X51000Y-41000
X51000Y-42000
X52000Y-36000
X52000Y-42000
X53000Y-36000
X53000Y-42000
X54000Y-36000
X54000Y-42000
X55000Y-36000
X55000Y-42000
X56000Y-36000
X56000Y-42000
T4
X33000Y-47000
X34000Y-47000
X35000Y-47000
X37000Y-47000
X38000Y-47000
X39000Y-47000
T5
X32500Y-31000
X34500Y-31000
T6
X38000Y-40100
T7
X34000Y-40100
T0
M30
