G04 #@! TF.GenerationSoftware,KiCad,Pcbnew,(5.1.2)-2*
G04 #@! TF.CreationDate,2020-01-26T17:06:09+07:00*
G04 #@! TF.ProjectId,power_electronic,706f7765-725f-4656-9c65-6374726f6e69,rev?*
G04 #@! TF.SameCoordinates,Original*
G04 #@! TF.FileFunction,Copper,L1,Top*
G04 #@! TF.FilePolarity,Positive*
%FSLAX46Y46*%
G04 Gerber Fmt 4.6, Leading zero omitted, Abs format (unit mm)*
G04 Created by KiCad (PCBNEW (5.1.2)-2) date 2020-01-26 17:06:09*
%MOMM*%
%LPD*%
G04 APERTURE LIST*
%ADD10R,5.000000X3.000000*%
%ADD11R,1.600000X1.600000*%
%ADD12C,1.600000*%
%ADD13R,1.600000X2.000000*%
%ADD14R,2.400000X2.400000*%
%ADD15O,2.400000X2.400000*%
%ADD16C,1.800000*%
%ADD17R,1.800000X1.800000*%
%ADD18R,3.000000X3.000000*%
%ADD19C,3.000000*%
%ADD20R,2.000000X1.600000*%
%ADD21R,2.000000X1.300000*%
%ADD22C,2.400000*%
%ADD23R,3.500000X5.000000*%
%ADD24R,5.000000X3.500000*%
%ADD25R,2.000000X1.275000*%
%ADD26O,2.000000X1.275000*%
%ADD27R,1.000000X2.000000*%
%ADD28R,1.300000X2.000000*%
%ADD29R,1.200000X2.000000*%
%ADD30C,2.000000*%
G04 APERTURE END LIST*
D10*
X92710000Y-86614000D03*
X92710000Y-91614000D03*
D11*
X141478000Y-105664000D03*
D12*
X143478000Y-105664000D03*
X142748000Y-76232000D03*
D11*
X142748000Y-78232000D03*
D12*
X151892000Y-127508000D03*
D11*
X151892000Y-125508000D03*
X158750000Y-70104000D03*
D12*
X158750000Y-72104000D03*
D13*
X109220000Y-108966000D03*
X106720000Y-108966000D03*
D12*
X116840000Y-83352000D03*
X116840000Y-85852000D03*
D13*
X111546000Y-108966000D03*
X114046000Y-108966000D03*
X119126000Y-108966000D03*
X116626000Y-108966000D03*
D14*
X143510000Y-85852000D03*
D15*
X143510000Y-101092000D03*
X143256000Y-51054000D03*
D14*
X143256000Y-66294000D03*
D16*
X152400000Y-133350000D03*
D17*
X152400000Y-130810000D03*
D16*
X143002000Y-72390000D03*
D17*
X143002000Y-69850000D03*
X142240000Y-129032000D03*
D16*
X142240000Y-131572000D03*
D17*
X153416000Y-69342000D03*
D16*
X153416000Y-66802000D03*
D18*
X107950000Y-54102000D03*
D19*
X102870000Y-54102000D03*
X166624000Y-76200000D03*
X166624000Y-71120000D03*
D18*
X166624000Y-81280000D03*
D19*
X166624000Y-66040000D03*
X93218000Y-78740000D03*
D18*
X93218000Y-63500000D03*
D19*
X93218000Y-73660000D03*
X93218000Y-68580000D03*
X92710000Y-116078000D03*
X92710000Y-121158000D03*
D18*
X92710000Y-110998000D03*
D19*
X92710000Y-126238000D03*
X165354000Y-110236000D03*
D18*
X165354000Y-125476000D03*
D19*
X165354000Y-115316000D03*
X165354000Y-120396000D03*
D20*
X102362000Y-113284000D03*
X102362000Y-115824000D03*
X102362000Y-118364000D03*
X102362000Y-120904000D03*
D13*
X90932000Y-102108000D03*
X93472000Y-102108000D03*
X96012000Y-102108000D03*
X98552000Y-102108000D03*
X101092000Y-102108000D03*
X103632000Y-102108000D03*
D20*
X102616000Y-74422000D03*
X102616000Y-71882000D03*
X102616000Y-69342000D03*
X102616000Y-66802000D03*
D21*
X151892000Y-122682000D03*
X151892000Y-120142000D03*
D20*
X148590000Y-55118000D03*
X148590000Y-52578000D03*
D22*
X136906000Y-94488000D03*
D15*
X136906000Y-107188000D03*
X136906000Y-91440000D03*
D22*
X136906000Y-78740000D03*
X157226000Y-119634000D03*
D15*
X157226000Y-132334000D03*
X148844000Y-98806000D03*
D22*
X148844000Y-86106000D03*
X147574000Y-119634000D03*
D15*
X147574000Y-132334000D03*
X148844000Y-58928000D03*
D22*
X148844000Y-71628000D03*
D15*
X119126000Y-100838000D03*
D22*
X131826000Y-100838000D03*
D15*
X133350000Y-85090000D03*
D22*
X120650000Y-85090000D03*
X132842000Y-80010000D03*
D15*
X120142000Y-80010000D03*
D22*
X99568000Y-85344000D03*
D15*
X112268000Y-85344000D03*
D22*
X112268000Y-80010000D03*
D15*
X99568000Y-80010000D03*
D20*
X155956000Y-114554000D03*
X155956000Y-112014000D03*
X155956000Y-109474000D03*
X155956000Y-82042000D03*
X155956000Y-79502000D03*
D21*
X155956000Y-76962000D03*
D23*
X127428000Y-54610000D03*
X122428000Y-54610000D03*
D24*
X156464000Y-51562000D03*
X156464000Y-56562000D03*
X156210000Y-93218000D03*
X156210000Y-98218000D03*
D25*
X149098000Y-115570000D03*
D26*
X149098000Y-113870000D03*
X149098000Y-112170000D03*
X149098000Y-110470000D03*
X149098000Y-108770000D03*
X149098000Y-75750000D03*
X149098000Y-77450000D03*
X149098000Y-79150000D03*
X149098000Y-80850000D03*
D25*
X149098000Y-82550000D03*
D13*
X99822000Y-97028000D03*
X132842000Y-89408000D03*
X102362000Y-97028000D03*
X130302000Y-89408000D03*
X104902000Y-97028000D03*
X127762000Y-89408000D03*
D27*
X107442000Y-97028000D03*
D28*
X125222000Y-89408000D03*
D29*
X109982000Y-97028000D03*
D28*
X122682000Y-89408000D03*
D13*
X112522000Y-97028000D03*
X120142000Y-89408000D03*
X115062000Y-97028000D03*
X117602000Y-89408000D03*
X117602000Y-97028000D03*
X115062000Y-89408000D03*
X120142000Y-97028000D03*
X112522000Y-89408000D03*
X122682000Y-97028000D03*
X109982000Y-89408000D03*
X125222000Y-97028000D03*
X107442000Y-89408000D03*
D29*
X127762000Y-97028000D03*
D13*
X104902000Y-89408000D03*
X130302000Y-97028000D03*
X102362000Y-89408000D03*
X132842000Y-97028000D03*
X99822000Y-89408000D03*
X124460000Y-106172000D03*
X129340000Y-106172000D03*
D30*
X107442000Y-104830000D03*
X107442000Y-100330000D03*
X113942000Y-104830000D03*
X113942000Y-100330000D03*
D15*
X142240000Y-109982000D03*
D14*
X142240000Y-125222000D03*
X152654000Y-88138000D03*
D15*
X167894000Y-88138000D03*
M02*
