G04 #@! TF.GenerationSoftware,KiCad,Pcbnew,(5.1.2)-2*
G04 #@! TF.CreationDate,2020-01-26T17:06:09+07:00*
G04 #@! TF.ProjectId,power_electronic,706f7765-725f-4656-9c65-6374726f6e69,rev?*
G04 #@! TF.SameCoordinates,Original*
G04 #@! TF.FileFunction,Soldermask,Top*
G04 #@! TF.FilePolarity,Negative*
%FSLAX46Y46*%
G04 Gerber Fmt 4.6, Leading zero omitted, Abs format (unit mm)*
G04 Created by KiCad (PCBNEW (5.1.2)-2) date 2020-01-26 17:06:09*
%MOMM*%
%LPD*%
G04 APERTURE LIST*
%ADD10C,0.100000*%
G04 APERTURE END LIST*
D10*
G36*
X152677395Y-132435546D02*
G01*
X152850466Y-132507234D01*
X152850467Y-132507235D01*
X153006227Y-132611310D01*
X153138690Y-132743773D01*
X153138691Y-132743775D01*
X153242766Y-132899534D01*
X153314454Y-133072605D01*
X153351000Y-133256333D01*
X153351000Y-133443667D01*
X153314454Y-133627395D01*
X153242766Y-133800466D01*
X153242765Y-133800467D01*
X153138690Y-133956227D01*
X153006227Y-134088690D01*
X152927818Y-134141081D01*
X152850466Y-134192766D01*
X152677395Y-134264454D01*
X152493667Y-134301000D01*
X152306333Y-134301000D01*
X152122605Y-134264454D01*
X151949534Y-134192766D01*
X151872182Y-134141081D01*
X151793773Y-134088690D01*
X151661310Y-133956227D01*
X151557235Y-133800467D01*
X151557234Y-133800466D01*
X151485546Y-133627395D01*
X151449000Y-133443667D01*
X151449000Y-133256333D01*
X151485546Y-133072605D01*
X151557234Y-132899534D01*
X151661309Y-132743775D01*
X151661310Y-132743773D01*
X151793773Y-132611310D01*
X151949533Y-132507235D01*
X151949534Y-132507234D01*
X152122605Y-132435546D01*
X152306333Y-132399000D01*
X152493667Y-132399000D01*
X152677395Y-132435546D01*
X152677395Y-132435546D01*
G37*
G36*
X157471239Y-131101101D02*
G01*
X157707053Y-131172634D01*
X157924381Y-131288799D01*
X158114871Y-131445129D01*
X158271201Y-131635619D01*
X158387366Y-131852947D01*
X158458899Y-132088761D01*
X158483053Y-132334000D01*
X158458899Y-132579239D01*
X158387366Y-132815053D01*
X158271201Y-133032381D01*
X158114871Y-133222871D01*
X157924381Y-133379201D01*
X157707053Y-133495366D01*
X157471239Y-133566899D01*
X157287457Y-133585000D01*
X157164543Y-133585000D01*
X156980761Y-133566899D01*
X156744947Y-133495366D01*
X156527619Y-133379201D01*
X156337129Y-133222871D01*
X156180799Y-133032381D01*
X156064634Y-132815053D01*
X155993101Y-132579239D01*
X155968947Y-132334000D01*
X155993101Y-132088761D01*
X156064634Y-131852947D01*
X156180799Y-131635619D01*
X156337129Y-131445129D01*
X156527619Y-131288799D01*
X156744947Y-131172634D01*
X156980761Y-131101101D01*
X157164543Y-131083000D01*
X157287457Y-131083000D01*
X157471239Y-131101101D01*
X157471239Y-131101101D01*
G37*
G36*
X147819239Y-131101101D02*
G01*
X148055053Y-131172634D01*
X148272381Y-131288799D01*
X148462871Y-131445129D01*
X148619201Y-131635619D01*
X148735366Y-131852947D01*
X148806899Y-132088761D01*
X148831053Y-132334000D01*
X148806899Y-132579239D01*
X148735366Y-132815053D01*
X148619201Y-133032381D01*
X148462871Y-133222871D01*
X148272381Y-133379201D01*
X148055053Y-133495366D01*
X147819239Y-133566899D01*
X147635457Y-133585000D01*
X147512543Y-133585000D01*
X147328761Y-133566899D01*
X147092947Y-133495366D01*
X146875619Y-133379201D01*
X146685129Y-133222871D01*
X146528799Y-133032381D01*
X146412634Y-132815053D01*
X146341101Y-132579239D01*
X146316947Y-132334000D01*
X146341101Y-132088761D01*
X146412634Y-131852947D01*
X146528799Y-131635619D01*
X146685129Y-131445129D01*
X146875619Y-131288799D01*
X147092947Y-131172634D01*
X147328761Y-131101101D01*
X147512543Y-131083000D01*
X147635457Y-131083000D01*
X147819239Y-131101101D01*
X147819239Y-131101101D01*
G37*
G36*
X142517395Y-130657546D02*
G01*
X142690466Y-130729234D01*
X142690467Y-130729235D01*
X142846227Y-130833310D01*
X142978690Y-130965773D01*
X142978691Y-130965775D01*
X143082766Y-131121534D01*
X143154454Y-131294605D01*
X143191000Y-131478333D01*
X143191000Y-131665667D01*
X143154454Y-131849395D01*
X143082766Y-132022466D01*
X143082765Y-132022467D01*
X142978690Y-132178227D01*
X142846227Y-132310690D01*
X142811341Y-132334000D01*
X142690466Y-132414766D01*
X142517395Y-132486454D01*
X142333667Y-132523000D01*
X142146333Y-132523000D01*
X141962605Y-132486454D01*
X141789534Y-132414766D01*
X141668659Y-132334000D01*
X141633773Y-132310690D01*
X141501310Y-132178227D01*
X141397235Y-132022467D01*
X141397234Y-132022466D01*
X141325546Y-131849395D01*
X141289000Y-131665667D01*
X141289000Y-131478333D01*
X141325546Y-131294605D01*
X141397234Y-131121534D01*
X141501309Y-130965775D01*
X141501310Y-130965773D01*
X141633773Y-130833310D01*
X141789533Y-130729235D01*
X141789534Y-130729234D01*
X141962605Y-130657546D01*
X142146333Y-130621000D01*
X142333667Y-130621000D01*
X142517395Y-130657546D01*
X142517395Y-130657546D01*
G37*
G36*
X153351000Y-131761000D02*
G01*
X151449000Y-131761000D01*
X151449000Y-129859000D01*
X153351000Y-129859000D01*
X153351000Y-131761000D01*
X153351000Y-131761000D01*
G37*
G36*
X143191000Y-129983000D02*
G01*
X141289000Y-129983000D01*
X141289000Y-128081000D01*
X143191000Y-128081000D01*
X143191000Y-129983000D01*
X143191000Y-129983000D01*
G37*
G36*
X152140228Y-126689703D02*
G01*
X152295100Y-126753853D01*
X152434481Y-126846985D01*
X152553015Y-126965519D01*
X152646147Y-127104900D01*
X152710297Y-127259772D01*
X152743000Y-127424184D01*
X152743000Y-127591816D01*
X152710297Y-127756228D01*
X152646147Y-127911100D01*
X152553015Y-128050481D01*
X152434481Y-128169015D01*
X152295100Y-128262147D01*
X152140228Y-128326297D01*
X151975816Y-128359000D01*
X151808184Y-128359000D01*
X151643772Y-128326297D01*
X151488900Y-128262147D01*
X151349519Y-128169015D01*
X151230985Y-128050481D01*
X151137853Y-127911100D01*
X151073703Y-127756228D01*
X151041000Y-127591816D01*
X151041000Y-127424184D01*
X151073703Y-127259772D01*
X151137853Y-127104900D01*
X151230985Y-126965519D01*
X151349519Y-126846985D01*
X151488900Y-126753853D01*
X151643772Y-126689703D01*
X151808184Y-126657000D01*
X151975816Y-126657000D01*
X152140228Y-126689703D01*
X152140228Y-126689703D01*
G37*
G36*
X93012585Y-124716802D02*
G01*
X93162410Y-124746604D01*
X93444674Y-124863521D01*
X93698705Y-125033259D01*
X93914741Y-125249295D01*
X94084479Y-125503326D01*
X94201396Y-125785590D01*
X94201396Y-125785591D01*
X94261000Y-126085239D01*
X94261000Y-126390761D01*
X94231198Y-126540585D01*
X94201396Y-126690410D01*
X94084479Y-126972674D01*
X93914741Y-127226705D01*
X93698705Y-127442741D01*
X93444674Y-127612479D01*
X93162410Y-127729396D01*
X93027516Y-127756228D01*
X92862761Y-127789000D01*
X92557239Y-127789000D01*
X92392484Y-127756228D01*
X92257590Y-127729396D01*
X91975326Y-127612479D01*
X91721295Y-127442741D01*
X91505259Y-127226705D01*
X91335521Y-126972674D01*
X91218604Y-126690410D01*
X91188802Y-126540585D01*
X91159000Y-126390761D01*
X91159000Y-126085239D01*
X91218604Y-125785591D01*
X91218604Y-125785590D01*
X91335521Y-125503326D01*
X91505259Y-125249295D01*
X91721295Y-125033259D01*
X91975326Y-124863521D01*
X92257590Y-124746604D01*
X92407415Y-124716802D01*
X92557239Y-124687000D01*
X92862761Y-124687000D01*
X93012585Y-124716802D01*
X93012585Y-124716802D01*
G37*
G36*
X166905000Y-127027000D02*
G01*
X163803000Y-127027000D01*
X163803000Y-123925000D01*
X166905000Y-123925000D01*
X166905000Y-127027000D01*
X166905000Y-127027000D01*
G37*
G36*
X143491000Y-126473000D02*
G01*
X140989000Y-126473000D01*
X140989000Y-123971000D01*
X143491000Y-123971000D01*
X143491000Y-126473000D01*
X143491000Y-126473000D01*
G37*
G36*
X152743000Y-126359000D02*
G01*
X151041000Y-126359000D01*
X151041000Y-124657000D01*
X152743000Y-124657000D01*
X152743000Y-126359000D01*
X152743000Y-126359000D01*
G37*
G36*
X152943000Y-123383000D02*
G01*
X150841000Y-123383000D01*
X150841000Y-121981000D01*
X152943000Y-121981000D01*
X152943000Y-123383000D01*
X152943000Y-123383000D01*
G37*
G36*
X93012585Y-119636802D02*
G01*
X93162410Y-119666604D01*
X93444674Y-119783521D01*
X93698705Y-119953259D01*
X93914741Y-120169295D01*
X94084479Y-120423326D01*
X94201396Y-120705590D01*
X94229804Y-120848409D01*
X94261000Y-121005239D01*
X94261000Y-121310761D01*
X94231198Y-121460585D01*
X94201396Y-121610410D01*
X94084479Y-121892674D01*
X93914741Y-122146705D01*
X93698705Y-122362741D01*
X93444674Y-122532479D01*
X93162410Y-122649396D01*
X93012585Y-122679198D01*
X92862761Y-122709000D01*
X92557239Y-122709000D01*
X92407415Y-122679198D01*
X92257590Y-122649396D01*
X91975326Y-122532479D01*
X91721295Y-122362741D01*
X91505259Y-122146705D01*
X91335521Y-121892674D01*
X91218604Y-121610410D01*
X91188802Y-121460585D01*
X91159000Y-121310761D01*
X91159000Y-121005239D01*
X91190196Y-120848409D01*
X91218604Y-120705590D01*
X91335521Y-120423326D01*
X91505259Y-120169295D01*
X91721295Y-119953259D01*
X91975326Y-119783521D01*
X92257590Y-119666604D01*
X92407415Y-119636802D01*
X92557239Y-119607000D01*
X92862761Y-119607000D01*
X93012585Y-119636802D01*
X93012585Y-119636802D01*
G37*
G36*
X165656585Y-118874802D02*
G01*
X165806410Y-118904604D01*
X166088674Y-119021521D01*
X166342705Y-119191259D01*
X166558741Y-119407295D01*
X166728479Y-119661326D01*
X166845396Y-119943590D01*
X166845396Y-119943591D01*
X166901685Y-120226571D01*
X166905000Y-120243240D01*
X166905000Y-120548760D01*
X166845396Y-120848410D01*
X166728479Y-121130674D01*
X166558741Y-121384705D01*
X166342705Y-121600741D01*
X166088674Y-121770479D01*
X165806410Y-121887396D01*
X165656585Y-121917198D01*
X165506761Y-121947000D01*
X165201239Y-121947000D01*
X165051415Y-121917198D01*
X164901590Y-121887396D01*
X164619326Y-121770479D01*
X164365295Y-121600741D01*
X164149259Y-121384705D01*
X163979521Y-121130674D01*
X163862604Y-120848410D01*
X163803000Y-120548760D01*
X163803000Y-120243240D01*
X163806316Y-120226571D01*
X163862604Y-119943591D01*
X163862604Y-119943590D01*
X163979521Y-119661326D01*
X164149259Y-119407295D01*
X164365295Y-119191259D01*
X164619326Y-119021521D01*
X164901590Y-118904604D01*
X165051415Y-118874802D01*
X165201239Y-118845000D01*
X165506761Y-118845000D01*
X165656585Y-118874802D01*
X165656585Y-118874802D01*
G37*
G36*
X103413000Y-121755000D02*
G01*
X101311000Y-121755000D01*
X101311000Y-120053000D01*
X103413000Y-120053000D01*
X103413000Y-121755000D01*
X103413000Y-121755000D01*
G37*
G36*
X147938903Y-118431075D02*
G01*
X148166571Y-118525378D01*
X148371466Y-118662285D01*
X148545715Y-118836534D01*
X148591198Y-118904604D01*
X148682623Y-119041431D01*
X148776925Y-119269097D01*
X148825000Y-119510786D01*
X148825000Y-119757214D01*
X148776925Y-119998903D01*
X148706347Y-120169295D01*
X148682622Y-120226571D01*
X148545715Y-120431466D01*
X148371466Y-120605715D01*
X148166571Y-120742622D01*
X148166570Y-120742623D01*
X148166569Y-120742623D01*
X147938903Y-120836925D01*
X147697214Y-120885000D01*
X147450786Y-120885000D01*
X147209097Y-120836925D01*
X146981431Y-120742623D01*
X146981430Y-120742623D01*
X146981429Y-120742622D01*
X146776534Y-120605715D01*
X146602285Y-120431466D01*
X146465378Y-120226571D01*
X146441654Y-120169295D01*
X146371075Y-119998903D01*
X146323000Y-119757214D01*
X146323000Y-119510786D01*
X146371075Y-119269097D01*
X146465377Y-119041431D01*
X146556802Y-118904604D01*
X146602285Y-118836534D01*
X146776534Y-118662285D01*
X146981429Y-118525378D01*
X147209097Y-118431075D01*
X147450786Y-118383000D01*
X147697214Y-118383000D01*
X147938903Y-118431075D01*
X147938903Y-118431075D01*
G37*
G36*
X157590903Y-118431075D02*
G01*
X157818571Y-118525378D01*
X158023466Y-118662285D01*
X158197715Y-118836534D01*
X158243198Y-118904604D01*
X158334623Y-119041431D01*
X158428925Y-119269097D01*
X158477000Y-119510786D01*
X158477000Y-119757214D01*
X158428925Y-119998903D01*
X158358347Y-120169295D01*
X158334622Y-120226571D01*
X158197715Y-120431466D01*
X158023466Y-120605715D01*
X157818571Y-120742622D01*
X157818570Y-120742623D01*
X157818569Y-120742623D01*
X157590903Y-120836925D01*
X157349214Y-120885000D01*
X157102786Y-120885000D01*
X156861097Y-120836925D01*
X156633431Y-120742623D01*
X156633430Y-120742623D01*
X156633429Y-120742622D01*
X156428534Y-120605715D01*
X156254285Y-120431466D01*
X156117378Y-120226571D01*
X156093654Y-120169295D01*
X156023075Y-119998903D01*
X155975000Y-119757214D01*
X155975000Y-119510786D01*
X156023075Y-119269097D01*
X156117377Y-119041431D01*
X156208802Y-118904604D01*
X156254285Y-118836534D01*
X156428534Y-118662285D01*
X156633429Y-118525378D01*
X156861097Y-118431075D01*
X157102786Y-118383000D01*
X157349214Y-118383000D01*
X157590903Y-118431075D01*
X157590903Y-118431075D01*
G37*
G36*
X152943000Y-120843000D02*
G01*
X150841000Y-120843000D01*
X150841000Y-119441000D01*
X152943000Y-119441000D01*
X152943000Y-120843000D01*
X152943000Y-120843000D01*
G37*
G36*
X103413000Y-119215000D02*
G01*
X101311000Y-119215000D01*
X101311000Y-117513000D01*
X103413000Y-117513000D01*
X103413000Y-119215000D01*
X103413000Y-119215000D01*
G37*
G36*
X92971039Y-114548538D02*
G01*
X93162410Y-114586604D01*
X93444674Y-114703521D01*
X93698705Y-114873259D01*
X93914741Y-115089295D01*
X94084479Y-115343326D01*
X94201396Y-115625590D01*
X94201396Y-115625591D01*
X94261000Y-115925239D01*
X94261000Y-116230761D01*
X94231198Y-116380585D01*
X94201396Y-116530410D01*
X94084479Y-116812674D01*
X93914741Y-117066705D01*
X93698705Y-117282741D01*
X93444674Y-117452479D01*
X93162410Y-117569396D01*
X93012585Y-117599198D01*
X92862761Y-117629000D01*
X92557239Y-117629000D01*
X92407415Y-117599198D01*
X92257590Y-117569396D01*
X91975326Y-117452479D01*
X91721295Y-117282741D01*
X91505259Y-117066705D01*
X91335521Y-116812674D01*
X91218604Y-116530410D01*
X91188802Y-116380585D01*
X91159000Y-116230761D01*
X91159000Y-115925239D01*
X91218604Y-115625591D01*
X91218604Y-115625590D01*
X91335521Y-115343326D01*
X91505259Y-115089295D01*
X91721295Y-114873259D01*
X91975326Y-114703521D01*
X92257590Y-114586604D01*
X92448961Y-114548538D01*
X92557239Y-114527000D01*
X92862761Y-114527000D01*
X92971039Y-114548538D01*
X92971039Y-114548538D01*
G37*
G36*
X165656585Y-113794802D02*
G01*
X165806410Y-113824604D01*
X166088674Y-113941521D01*
X166342705Y-114111259D01*
X166558741Y-114327295D01*
X166728479Y-114581326D01*
X166845396Y-114863590D01*
X166867159Y-114973000D01*
X166890292Y-115089295D01*
X166905000Y-115163240D01*
X166905000Y-115468760D01*
X166845396Y-115768410D01*
X166728479Y-116050674D01*
X166558741Y-116304705D01*
X166342705Y-116520741D01*
X166088674Y-116690479D01*
X165806410Y-116807396D01*
X165656585Y-116837198D01*
X165506761Y-116867000D01*
X165201239Y-116867000D01*
X165051415Y-116837198D01*
X164901590Y-116807396D01*
X164619326Y-116690479D01*
X164365295Y-116520741D01*
X164149259Y-116304705D01*
X163979521Y-116050674D01*
X163862604Y-115768410D01*
X163803000Y-115468760D01*
X163803000Y-115163240D01*
X163817709Y-115089295D01*
X163840841Y-114973000D01*
X163862604Y-114863590D01*
X163979521Y-114581326D01*
X164149259Y-114327295D01*
X164365295Y-114111259D01*
X164619326Y-113941521D01*
X164901590Y-113824604D01*
X165051415Y-113794802D01*
X165201239Y-113765000D01*
X165506761Y-113765000D01*
X165656585Y-113794802D01*
X165656585Y-113794802D01*
G37*
G36*
X103413000Y-116675000D02*
G01*
X101311000Y-116675000D01*
X101311000Y-114973000D01*
X103413000Y-114973000D01*
X103413000Y-116675000D01*
X103413000Y-116675000D01*
G37*
G36*
X150149000Y-116258500D02*
G01*
X148047000Y-116258500D01*
X148047000Y-114881500D01*
X150149000Y-114881500D01*
X150149000Y-116258500D01*
X150149000Y-116258500D01*
G37*
G36*
X157007000Y-115405000D02*
G01*
X154905000Y-115405000D01*
X154905000Y-113703000D01*
X157007000Y-113703000D01*
X157007000Y-115405000D01*
X157007000Y-115405000D01*
G37*
G36*
X149514551Y-113183492D02*
G01*
X149595470Y-113191462D01*
X149725252Y-113230831D01*
X149774645Y-113257233D01*
X149844860Y-113294763D01*
X149949699Y-113380801D01*
X150035736Y-113485639D01*
X150099669Y-113605248D01*
X150139038Y-113735030D01*
X150152331Y-113870000D01*
X150139038Y-114004970D01*
X150099669Y-114134752D01*
X150099666Y-114134757D01*
X150035737Y-114254360D01*
X149949699Y-114359199D01*
X149844860Y-114445237D01*
X149774645Y-114482767D01*
X149725252Y-114509169D01*
X149595470Y-114548538D01*
X149514551Y-114556508D01*
X149494322Y-114558500D01*
X148701678Y-114558500D01*
X148681449Y-114556508D01*
X148600530Y-114548538D01*
X148470748Y-114509169D01*
X148421355Y-114482767D01*
X148351140Y-114445237D01*
X148246301Y-114359199D01*
X148160263Y-114254360D01*
X148096334Y-114134757D01*
X148096331Y-114134752D01*
X148056962Y-114004970D01*
X148043669Y-113870000D01*
X148056962Y-113735030D01*
X148096331Y-113605248D01*
X148160264Y-113485639D01*
X148246301Y-113380801D01*
X148351140Y-113294763D01*
X148421355Y-113257233D01*
X148470748Y-113230831D01*
X148600530Y-113191462D01*
X148681449Y-113183492D01*
X148701678Y-113181500D01*
X149494322Y-113181500D01*
X149514551Y-113183492D01*
X149514551Y-113183492D01*
G37*
G36*
X103413000Y-114135000D02*
G01*
X101311000Y-114135000D01*
X101311000Y-112433000D01*
X103413000Y-112433000D01*
X103413000Y-114135000D01*
X103413000Y-114135000D01*
G37*
G36*
X157007000Y-112865000D02*
G01*
X154905000Y-112865000D01*
X154905000Y-111163000D01*
X157007000Y-111163000D01*
X157007000Y-112865000D01*
X157007000Y-112865000D01*
G37*
G36*
X149514551Y-111483492D02*
G01*
X149595470Y-111491462D01*
X149725252Y-111530831D01*
X149774645Y-111557233D01*
X149844860Y-111594763D01*
X149949699Y-111680801D01*
X150035737Y-111785640D01*
X150073267Y-111855855D01*
X150099669Y-111905248D01*
X150139038Y-112035030D01*
X150152331Y-112170000D01*
X150139038Y-112304970D01*
X150099669Y-112434752D01*
X150099666Y-112434757D01*
X150035737Y-112554360D01*
X149949699Y-112659199D01*
X149844860Y-112745237D01*
X149774645Y-112782767D01*
X149725252Y-112809169D01*
X149595470Y-112848538D01*
X149514551Y-112856508D01*
X149494322Y-112858500D01*
X148701678Y-112858500D01*
X148681449Y-112856508D01*
X148600530Y-112848538D01*
X148470748Y-112809169D01*
X148421355Y-112782767D01*
X148351140Y-112745237D01*
X148246301Y-112659199D01*
X148160263Y-112554360D01*
X148096334Y-112434757D01*
X148096331Y-112434752D01*
X148056962Y-112304970D01*
X148043669Y-112170000D01*
X148056962Y-112035030D01*
X148096331Y-111905248D01*
X148122733Y-111855855D01*
X148160263Y-111785640D01*
X148246301Y-111680801D01*
X148351140Y-111594763D01*
X148421355Y-111557233D01*
X148470748Y-111530831D01*
X148600530Y-111491462D01*
X148681449Y-111483492D01*
X148701678Y-111481500D01*
X149494322Y-111481500D01*
X149514551Y-111483492D01*
X149514551Y-111483492D01*
G37*
G36*
X94261000Y-112549000D02*
G01*
X91159000Y-112549000D01*
X91159000Y-109447000D01*
X94261000Y-109447000D01*
X94261000Y-112549000D01*
X94261000Y-112549000D01*
G37*
G36*
X165656585Y-108714802D02*
G01*
X165806410Y-108744604D01*
X166088674Y-108861521D01*
X166342705Y-109031259D01*
X166558741Y-109247295D01*
X166728479Y-109501326D01*
X166845396Y-109783590D01*
X166905000Y-110083240D01*
X166905000Y-110388760D01*
X166845396Y-110688410D01*
X166728479Y-110970674D01*
X166558741Y-111224705D01*
X166342705Y-111440741D01*
X166088674Y-111610479D01*
X165806410Y-111727396D01*
X165656585Y-111757198D01*
X165506761Y-111787000D01*
X165201239Y-111787000D01*
X165051415Y-111757198D01*
X164901590Y-111727396D01*
X164619326Y-111610479D01*
X164365295Y-111440741D01*
X164149259Y-111224705D01*
X163979521Y-110970674D01*
X163862604Y-110688410D01*
X163803000Y-110388760D01*
X163803000Y-110083240D01*
X163862604Y-109783590D01*
X163979521Y-109501326D01*
X164149259Y-109247295D01*
X164365295Y-109031259D01*
X164619326Y-108861521D01*
X164901590Y-108744604D01*
X165051415Y-108714802D01*
X165201239Y-108685000D01*
X165506761Y-108685000D01*
X165656585Y-108714802D01*
X165656585Y-108714802D01*
G37*
G36*
X142485239Y-108749101D02*
G01*
X142721053Y-108820634D01*
X142938381Y-108936799D01*
X143128871Y-109093129D01*
X143285201Y-109283619D01*
X143401366Y-109500947D01*
X143472899Y-109736761D01*
X143497053Y-109982000D01*
X143472899Y-110227239D01*
X143401366Y-110463053D01*
X143285201Y-110680381D01*
X143128871Y-110870871D01*
X142938381Y-111027201D01*
X142721053Y-111143366D01*
X142485239Y-111214899D01*
X142301457Y-111233000D01*
X142178543Y-111233000D01*
X141994761Y-111214899D01*
X141758947Y-111143366D01*
X141541619Y-111027201D01*
X141351129Y-110870871D01*
X141194799Y-110680381D01*
X141078634Y-110463053D01*
X141007101Y-110227239D01*
X140982947Y-109982000D01*
X141007101Y-109736761D01*
X141078634Y-109500947D01*
X141194799Y-109283619D01*
X141351129Y-109093129D01*
X141541619Y-108936799D01*
X141758947Y-108820634D01*
X141994761Y-108749101D01*
X142178543Y-108731000D01*
X142301457Y-108731000D01*
X142485239Y-108749101D01*
X142485239Y-108749101D01*
G37*
G36*
X149514551Y-109783492D02*
G01*
X149595470Y-109791462D01*
X149725252Y-109830831D01*
X149774645Y-109857233D01*
X149844860Y-109894763D01*
X149949699Y-109980801D01*
X150033767Y-110083240D01*
X150035736Y-110085639D01*
X150099669Y-110205248D01*
X150139038Y-110335030D01*
X150152331Y-110470000D01*
X150139038Y-110604970D01*
X150099669Y-110734752D01*
X150099666Y-110734757D01*
X150035737Y-110854360D01*
X149949699Y-110959199D01*
X149844860Y-111045237D01*
X149774645Y-111082767D01*
X149725252Y-111109169D01*
X149595470Y-111148538D01*
X149514551Y-111156508D01*
X149494322Y-111158500D01*
X148701678Y-111158500D01*
X148681449Y-111156508D01*
X148600530Y-111148538D01*
X148470748Y-111109169D01*
X148421355Y-111082767D01*
X148351140Y-111045237D01*
X148246301Y-110959199D01*
X148160263Y-110854360D01*
X148096334Y-110734757D01*
X148096331Y-110734752D01*
X148056962Y-110604970D01*
X148043669Y-110470000D01*
X148056962Y-110335030D01*
X148096331Y-110205248D01*
X148160264Y-110085639D01*
X148162233Y-110083240D01*
X148246301Y-109980801D01*
X148351140Y-109894763D01*
X148421355Y-109857233D01*
X148470748Y-109830831D01*
X148600530Y-109791462D01*
X148681449Y-109783492D01*
X148701678Y-109781500D01*
X149494322Y-109781500D01*
X149514551Y-109783492D01*
X149514551Y-109783492D01*
G37*
G36*
X157007000Y-110325000D02*
G01*
X154905000Y-110325000D01*
X154905000Y-108623000D01*
X157007000Y-108623000D01*
X157007000Y-110325000D01*
X157007000Y-110325000D01*
G37*
G36*
X107571000Y-110017000D02*
G01*
X105869000Y-110017000D01*
X105869000Y-107915000D01*
X107571000Y-107915000D01*
X107571000Y-110017000D01*
X107571000Y-110017000D01*
G37*
G36*
X110071000Y-110017000D02*
G01*
X108369000Y-110017000D01*
X108369000Y-107915000D01*
X110071000Y-107915000D01*
X110071000Y-110017000D01*
X110071000Y-110017000D01*
G37*
G36*
X112397000Y-110017000D02*
G01*
X110695000Y-110017000D01*
X110695000Y-107915000D01*
X112397000Y-107915000D01*
X112397000Y-110017000D01*
X112397000Y-110017000D01*
G37*
G36*
X117477000Y-110017000D02*
G01*
X115775000Y-110017000D01*
X115775000Y-107915000D01*
X117477000Y-107915000D01*
X117477000Y-110017000D01*
X117477000Y-110017000D01*
G37*
G36*
X114897000Y-110017000D02*
G01*
X113195000Y-110017000D01*
X113195000Y-107915000D01*
X114897000Y-107915000D01*
X114897000Y-110017000D01*
X114897000Y-110017000D01*
G37*
G36*
X119977000Y-110017000D02*
G01*
X118275000Y-110017000D01*
X118275000Y-107915000D01*
X119977000Y-107915000D01*
X119977000Y-110017000D01*
X119977000Y-110017000D01*
G37*
G36*
X149514551Y-108083492D02*
G01*
X149595470Y-108091462D01*
X149725252Y-108130831D01*
X149774645Y-108157233D01*
X149844860Y-108194763D01*
X149949699Y-108280801D01*
X150035736Y-108385639D01*
X150099669Y-108505248D01*
X150139038Y-108635030D01*
X150152331Y-108770000D01*
X150139038Y-108904970D01*
X150099669Y-109034752D01*
X150099666Y-109034757D01*
X150035737Y-109154360D01*
X149949699Y-109259199D01*
X149844860Y-109345237D01*
X149774645Y-109382767D01*
X149725252Y-109409169D01*
X149595470Y-109448538D01*
X149514551Y-109456508D01*
X149494322Y-109458500D01*
X148701678Y-109458500D01*
X148681449Y-109456508D01*
X148600530Y-109448538D01*
X148470748Y-109409169D01*
X148421355Y-109382767D01*
X148351140Y-109345237D01*
X148246301Y-109259199D01*
X148160263Y-109154360D01*
X148096334Y-109034757D01*
X148096331Y-109034752D01*
X148056962Y-108904970D01*
X148043669Y-108770000D01*
X148056962Y-108635030D01*
X148096331Y-108505248D01*
X148160264Y-108385639D01*
X148246301Y-108280801D01*
X148351140Y-108194763D01*
X148421355Y-108157233D01*
X148470748Y-108130831D01*
X148600530Y-108091462D01*
X148681449Y-108083492D01*
X148701678Y-108081500D01*
X149494322Y-108081500D01*
X149514551Y-108083492D01*
X149514551Y-108083492D01*
G37*
G36*
X137151239Y-105955101D02*
G01*
X137387053Y-106026634D01*
X137604381Y-106142799D01*
X137794871Y-106299129D01*
X137951201Y-106489619D01*
X138067366Y-106706947D01*
X138138899Y-106942761D01*
X138163053Y-107188000D01*
X138138899Y-107433239D01*
X138067366Y-107669053D01*
X137951201Y-107886381D01*
X137794871Y-108076871D01*
X137604381Y-108233201D01*
X137387053Y-108349366D01*
X137151239Y-108420899D01*
X136967457Y-108439000D01*
X136844543Y-108439000D01*
X136660761Y-108420899D01*
X136424947Y-108349366D01*
X136207619Y-108233201D01*
X136017129Y-108076871D01*
X135860799Y-107886381D01*
X135744634Y-107669053D01*
X135673101Y-107433239D01*
X135648947Y-107188000D01*
X135673101Y-106942761D01*
X135744634Y-106706947D01*
X135860799Y-106489619D01*
X136017129Y-106299129D01*
X136207619Y-106142799D01*
X136424947Y-106026634D01*
X136660761Y-105955101D01*
X136844543Y-105937000D01*
X136967457Y-105937000D01*
X137151239Y-105955101D01*
X137151239Y-105955101D01*
G37*
G36*
X130191000Y-107223000D02*
G01*
X128489000Y-107223000D01*
X128489000Y-105121000D01*
X130191000Y-105121000D01*
X130191000Y-107223000D01*
X130191000Y-107223000D01*
G37*
G36*
X125311000Y-107223000D02*
G01*
X123609000Y-107223000D01*
X123609000Y-105121000D01*
X125311000Y-105121000D01*
X125311000Y-107223000D01*
X125311000Y-107223000D01*
G37*
G36*
X143726228Y-104845703D02*
G01*
X143881100Y-104909853D01*
X144020481Y-105002985D01*
X144139015Y-105121519D01*
X144232147Y-105260900D01*
X144296297Y-105415772D01*
X144329000Y-105580184D01*
X144329000Y-105747816D01*
X144296297Y-105912228D01*
X144232147Y-106067100D01*
X144139015Y-106206481D01*
X144020481Y-106325015D01*
X143881100Y-106418147D01*
X143726228Y-106482297D01*
X143561816Y-106515000D01*
X143394184Y-106515000D01*
X143229772Y-106482297D01*
X143074900Y-106418147D01*
X142935519Y-106325015D01*
X142816985Y-106206481D01*
X142723853Y-106067100D01*
X142659703Y-105912228D01*
X142627000Y-105747816D01*
X142627000Y-105580184D01*
X142659703Y-105415772D01*
X142723853Y-105260900D01*
X142816985Y-105121519D01*
X142935519Y-105002985D01*
X143074900Y-104909853D01*
X143229772Y-104845703D01*
X143394184Y-104813000D01*
X143561816Y-104813000D01*
X143726228Y-104845703D01*
X143726228Y-104845703D01*
G37*
G36*
X142329000Y-106515000D02*
G01*
X140627000Y-106515000D01*
X140627000Y-104813000D01*
X142329000Y-104813000D01*
X142329000Y-106515000D01*
X142329000Y-106515000D01*
G37*
G36*
X107748564Y-103819389D02*
G01*
X107939833Y-103898615D01*
X107939835Y-103898616D01*
X108111973Y-104013635D01*
X108258365Y-104160027D01*
X108373385Y-104332167D01*
X108452611Y-104523436D01*
X108493000Y-104726484D01*
X108493000Y-104933516D01*
X108452611Y-105136564D01*
X108401109Y-105260900D01*
X108373384Y-105327835D01*
X108258365Y-105499973D01*
X108111973Y-105646365D01*
X107939835Y-105761384D01*
X107939834Y-105761385D01*
X107939833Y-105761385D01*
X107748564Y-105840611D01*
X107545516Y-105881000D01*
X107338484Y-105881000D01*
X107135436Y-105840611D01*
X106944167Y-105761385D01*
X106944166Y-105761385D01*
X106944165Y-105761384D01*
X106772027Y-105646365D01*
X106625635Y-105499973D01*
X106510616Y-105327835D01*
X106482891Y-105260900D01*
X106431389Y-105136564D01*
X106391000Y-104933516D01*
X106391000Y-104726484D01*
X106431389Y-104523436D01*
X106510615Y-104332167D01*
X106625635Y-104160027D01*
X106772027Y-104013635D01*
X106944165Y-103898616D01*
X106944167Y-103898615D01*
X107135436Y-103819389D01*
X107338484Y-103779000D01*
X107545516Y-103779000D01*
X107748564Y-103819389D01*
X107748564Y-103819389D01*
G37*
G36*
X114248564Y-103819389D02*
G01*
X114439833Y-103898615D01*
X114439835Y-103898616D01*
X114611973Y-104013635D01*
X114758365Y-104160027D01*
X114873385Y-104332167D01*
X114952611Y-104523436D01*
X114993000Y-104726484D01*
X114993000Y-104933516D01*
X114952611Y-105136564D01*
X114901109Y-105260900D01*
X114873384Y-105327835D01*
X114758365Y-105499973D01*
X114611973Y-105646365D01*
X114439835Y-105761384D01*
X114439834Y-105761385D01*
X114439833Y-105761385D01*
X114248564Y-105840611D01*
X114045516Y-105881000D01*
X113838484Y-105881000D01*
X113635436Y-105840611D01*
X113444167Y-105761385D01*
X113444166Y-105761385D01*
X113444165Y-105761384D01*
X113272027Y-105646365D01*
X113125635Y-105499973D01*
X113010616Y-105327835D01*
X112982891Y-105260900D01*
X112931389Y-105136564D01*
X112891000Y-104933516D01*
X112891000Y-104726484D01*
X112931389Y-104523436D01*
X113010615Y-104332167D01*
X113125635Y-104160027D01*
X113272027Y-104013635D01*
X113444165Y-103898616D01*
X113444167Y-103898615D01*
X113635436Y-103819389D01*
X113838484Y-103779000D01*
X114045516Y-103779000D01*
X114248564Y-103819389D01*
X114248564Y-103819389D01*
G37*
G36*
X94323000Y-103159000D02*
G01*
X92621000Y-103159000D01*
X92621000Y-101057000D01*
X94323000Y-101057000D01*
X94323000Y-103159000D01*
X94323000Y-103159000D01*
G37*
G36*
X99403000Y-103159000D02*
G01*
X97701000Y-103159000D01*
X97701000Y-101057000D01*
X99403000Y-101057000D01*
X99403000Y-103159000D01*
X99403000Y-103159000D01*
G37*
G36*
X96863000Y-103159000D02*
G01*
X95161000Y-103159000D01*
X95161000Y-101057000D01*
X96863000Y-101057000D01*
X96863000Y-103159000D01*
X96863000Y-103159000D01*
G37*
G36*
X91783000Y-103159000D02*
G01*
X90081000Y-103159000D01*
X90081000Y-101057000D01*
X91783000Y-101057000D01*
X91783000Y-103159000D01*
X91783000Y-103159000D01*
G37*
G36*
X104483000Y-103159000D02*
G01*
X102781000Y-103159000D01*
X102781000Y-101057000D01*
X104483000Y-101057000D01*
X104483000Y-103159000D01*
X104483000Y-103159000D01*
G37*
G36*
X101943000Y-103159000D02*
G01*
X100241000Y-103159000D01*
X100241000Y-101057000D01*
X101943000Y-101057000D01*
X101943000Y-103159000D01*
X101943000Y-103159000D01*
G37*
G36*
X143755239Y-99859101D02*
G01*
X143991053Y-99930634D01*
X144208381Y-100046799D01*
X144398871Y-100203129D01*
X144555201Y-100393619D01*
X144671366Y-100610947D01*
X144742899Y-100846761D01*
X144767053Y-101092000D01*
X144742899Y-101337239D01*
X144671366Y-101573053D01*
X144555201Y-101790381D01*
X144398871Y-101980871D01*
X144208381Y-102137201D01*
X143991053Y-102253366D01*
X143755239Y-102324899D01*
X143571457Y-102343000D01*
X143448543Y-102343000D01*
X143264761Y-102324899D01*
X143028947Y-102253366D01*
X142811619Y-102137201D01*
X142621129Y-101980871D01*
X142464799Y-101790381D01*
X142348634Y-101573053D01*
X142277101Y-101337239D01*
X142252947Y-101092000D01*
X142277101Y-100846761D01*
X142348634Y-100610947D01*
X142464799Y-100393619D01*
X142621129Y-100203129D01*
X142811619Y-100046799D01*
X143028947Y-99930634D01*
X143264761Y-99859101D01*
X143448543Y-99841000D01*
X143571457Y-99841000D01*
X143755239Y-99859101D01*
X143755239Y-99859101D01*
G37*
G36*
X132190903Y-99635075D02*
G01*
X132291236Y-99676634D01*
X132418571Y-99729378D01*
X132623466Y-99866285D01*
X132797715Y-100040534D01*
X132934622Y-100245429D01*
X132934623Y-100245431D01*
X133028925Y-100473097D01*
X133056345Y-100610944D01*
X133077000Y-100714787D01*
X133077000Y-100961213D01*
X133028925Y-101202903D01*
X132934622Y-101430571D01*
X132797715Y-101635466D01*
X132623466Y-101809715D01*
X132418571Y-101946622D01*
X132418570Y-101946623D01*
X132418569Y-101946623D01*
X132190903Y-102040925D01*
X131949214Y-102089000D01*
X131702786Y-102089000D01*
X131461097Y-102040925D01*
X131233431Y-101946623D01*
X131233430Y-101946623D01*
X131233429Y-101946622D01*
X131028534Y-101809715D01*
X130854285Y-101635466D01*
X130717378Y-101430571D01*
X130623075Y-101202903D01*
X130575000Y-100961213D01*
X130575000Y-100714787D01*
X130595656Y-100610944D01*
X130623075Y-100473097D01*
X130717377Y-100245431D01*
X130717378Y-100245429D01*
X130854285Y-100040534D01*
X131028534Y-99866285D01*
X131233429Y-99729378D01*
X131360765Y-99676634D01*
X131461097Y-99635075D01*
X131702786Y-99587000D01*
X131949214Y-99587000D01*
X132190903Y-99635075D01*
X132190903Y-99635075D01*
G37*
G36*
X119371239Y-99605101D02*
G01*
X119607053Y-99676634D01*
X119824381Y-99792799D01*
X120014871Y-99949129D01*
X120171201Y-100139619D01*
X120287366Y-100356947D01*
X120358899Y-100592761D01*
X120383053Y-100838000D01*
X120358899Y-101083239D01*
X120287366Y-101319053D01*
X120171201Y-101536381D01*
X120014871Y-101726871D01*
X119824381Y-101883201D01*
X119607053Y-101999366D01*
X119371239Y-102070899D01*
X119187457Y-102089000D01*
X119064543Y-102089000D01*
X118880761Y-102070899D01*
X118644947Y-101999366D01*
X118427619Y-101883201D01*
X118237129Y-101726871D01*
X118080799Y-101536381D01*
X117964634Y-101319053D01*
X117893101Y-101083239D01*
X117868947Y-100838000D01*
X117893101Y-100592761D01*
X117964634Y-100356947D01*
X118080799Y-100139619D01*
X118237129Y-99949129D01*
X118427619Y-99792799D01*
X118644947Y-99676634D01*
X118880761Y-99605101D01*
X119064543Y-99587000D01*
X119187457Y-99587000D01*
X119371239Y-99605101D01*
X119371239Y-99605101D01*
G37*
G36*
X114248564Y-99319389D02*
G01*
X114439833Y-99398615D01*
X114439835Y-99398616D01*
X114598122Y-99504380D01*
X114611973Y-99513635D01*
X114758365Y-99660027D01*
X114873385Y-99832167D01*
X114952611Y-100023436D01*
X114993000Y-100226484D01*
X114993000Y-100433516D01*
X114952611Y-100636564D01*
X114920210Y-100714786D01*
X114873384Y-100827835D01*
X114758365Y-100999973D01*
X114611973Y-101146365D01*
X114439835Y-101261384D01*
X114439834Y-101261385D01*
X114439833Y-101261385D01*
X114248564Y-101340611D01*
X114045516Y-101381000D01*
X113838484Y-101381000D01*
X113635436Y-101340611D01*
X113444167Y-101261385D01*
X113444166Y-101261385D01*
X113444165Y-101261384D01*
X113272027Y-101146365D01*
X113125635Y-100999973D01*
X113010616Y-100827835D01*
X112963790Y-100714786D01*
X112931389Y-100636564D01*
X112891000Y-100433516D01*
X112891000Y-100226484D01*
X112931389Y-100023436D01*
X113010615Y-99832167D01*
X113125635Y-99660027D01*
X113272027Y-99513635D01*
X113285878Y-99504380D01*
X113444165Y-99398616D01*
X113444167Y-99398615D01*
X113635436Y-99319389D01*
X113838484Y-99279000D01*
X114045516Y-99279000D01*
X114248564Y-99319389D01*
X114248564Y-99319389D01*
G37*
G36*
X107748564Y-99319389D02*
G01*
X107939833Y-99398615D01*
X107939835Y-99398616D01*
X108098122Y-99504380D01*
X108111973Y-99513635D01*
X108258365Y-99660027D01*
X108373385Y-99832167D01*
X108452611Y-100023436D01*
X108493000Y-100226484D01*
X108493000Y-100433516D01*
X108452611Y-100636564D01*
X108420210Y-100714786D01*
X108373384Y-100827835D01*
X108258365Y-100999973D01*
X108111973Y-101146365D01*
X107939835Y-101261384D01*
X107939834Y-101261385D01*
X107939833Y-101261385D01*
X107748564Y-101340611D01*
X107545516Y-101381000D01*
X107338484Y-101381000D01*
X107135436Y-101340611D01*
X106944167Y-101261385D01*
X106944166Y-101261385D01*
X106944165Y-101261384D01*
X106772027Y-101146365D01*
X106625635Y-100999973D01*
X106510616Y-100827835D01*
X106463790Y-100714786D01*
X106431389Y-100636564D01*
X106391000Y-100433516D01*
X106391000Y-100226484D01*
X106431389Y-100023436D01*
X106510615Y-99832167D01*
X106625635Y-99660027D01*
X106772027Y-99513635D01*
X106785878Y-99504380D01*
X106944165Y-99398616D01*
X106944167Y-99398615D01*
X107135436Y-99319389D01*
X107338484Y-99279000D01*
X107545516Y-99279000D01*
X107748564Y-99319389D01*
X107748564Y-99319389D01*
G37*
G36*
X149089239Y-97573101D02*
G01*
X149325053Y-97644634D01*
X149542381Y-97760799D01*
X149732871Y-97917129D01*
X149889201Y-98107619D01*
X150005366Y-98324947D01*
X150076899Y-98560761D01*
X150101053Y-98806000D01*
X150076899Y-99051239D01*
X150005366Y-99287053D01*
X149889201Y-99504381D01*
X149732871Y-99694871D01*
X149542381Y-99851201D01*
X149325053Y-99967366D01*
X149089239Y-100038899D01*
X148905457Y-100057000D01*
X148782543Y-100057000D01*
X148598761Y-100038899D01*
X148362947Y-99967366D01*
X148145619Y-99851201D01*
X147955129Y-99694871D01*
X147798799Y-99504381D01*
X147682634Y-99287053D01*
X147611101Y-99051239D01*
X147586947Y-98806000D01*
X147611101Y-98560761D01*
X147682634Y-98324947D01*
X147798799Y-98107619D01*
X147955129Y-97917129D01*
X148145619Y-97760799D01*
X148362947Y-97644634D01*
X148598761Y-97573101D01*
X148782543Y-97555000D01*
X148905457Y-97555000D01*
X149089239Y-97573101D01*
X149089239Y-97573101D01*
G37*
G36*
X158761000Y-100019000D02*
G01*
X153659000Y-100019000D01*
X153659000Y-96417000D01*
X158761000Y-96417000D01*
X158761000Y-100019000D01*
X158761000Y-100019000D01*
G37*
G36*
X107993000Y-98079000D02*
G01*
X106891000Y-98079000D01*
X106891000Y-95977000D01*
X107993000Y-95977000D01*
X107993000Y-98079000D01*
X107993000Y-98079000D01*
G37*
G36*
X126073000Y-98079000D02*
G01*
X124371000Y-98079000D01*
X124371000Y-95977000D01*
X126073000Y-95977000D01*
X126073000Y-98079000D01*
X126073000Y-98079000D01*
G37*
G36*
X128413000Y-98079000D02*
G01*
X127111000Y-98079000D01*
X127111000Y-95977000D01*
X128413000Y-95977000D01*
X128413000Y-98079000D01*
X128413000Y-98079000D01*
G37*
G36*
X131153000Y-98079000D02*
G01*
X129451000Y-98079000D01*
X129451000Y-95977000D01*
X131153000Y-95977000D01*
X131153000Y-98079000D01*
X131153000Y-98079000D01*
G37*
G36*
X133693000Y-98079000D02*
G01*
X131991000Y-98079000D01*
X131991000Y-95977000D01*
X133693000Y-95977000D01*
X133693000Y-98079000D01*
X133693000Y-98079000D01*
G37*
G36*
X123533000Y-98079000D02*
G01*
X121831000Y-98079000D01*
X121831000Y-95977000D01*
X123533000Y-95977000D01*
X123533000Y-98079000D01*
X123533000Y-98079000D01*
G37*
G36*
X120993000Y-98079000D02*
G01*
X119291000Y-98079000D01*
X119291000Y-95977000D01*
X120993000Y-95977000D01*
X120993000Y-98079000D01*
X120993000Y-98079000D01*
G37*
G36*
X118453000Y-98079000D02*
G01*
X116751000Y-98079000D01*
X116751000Y-95977000D01*
X118453000Y-95977000D01*
X118453000Y-98079000D01*
X118453000Y-98079000D01*
G37*
G36*
X113373000Y-98079000D02*
G01*
X111671000Y-98079000D01*
X111671000Y-95977000D01*
X113373000Y-95977000D01*
X113373000Y-98079000D01*
X113373000Y-98079000D01*
G37*
G36*
X110633000Y-98079000D02*
G01*
X109331000Y-98079000D01*
X109331000Y-95977000D01*
X110633000Y-95977000D01*
X110633000Y-98079000D01*
X110633000Y-98079000D01*
G37*
G36*
X105753000Y-98079000D02*
G01*
X104051000Y-98079000D01*
X104051000Y-95977000D01*
X105753000Y-95977000D01*
X105753000Y-98079000D01*
X105753000Y-98079000D01*
G37*
G36*
X103213000Y-98079000D02*
G01*
X101511000Y-98079000D01*
X101511000Y-95977000D01*
X103213000Y-95977000D01*
X103213000Y-98079000D01*
X103213000Y-98079000D01*
G37*
G36*
X100673000Y-98079000D02*
G01*
X98971000Y-98079000D01*
X98971000Y-95977000D01*
X100673000Y-95977000D01*
X100673000Y-98079000D01*
X100673000Y-98079000D01*
G37*
G36*
X115913000Y-98079000D02*
G01*
X114211000Y-98079000D01*
X114211000Y-95977000D01*
X115913000Y-95977000D01*
X115913000Y-98079000D01*
X115913000Y-98079000D01*
G37*
G36*
X137270903Y-93285075D02*
G01*
X137498571Y-93379378D01*
X137703466Y-93516285D01*
X137877715Y-93690534D01*
X137877716Y-93690536D01*
X138014623Y-93895431D01*
X138108925Y-94123097D01*
X138157000Y-94364786D01*
X138157000Y-94611214D01*
X138108925Y-94852903D01*
X138040126Y-95019000D01*
X138014622Y-95080571D01*
X137877715Y-95285466D01*
X137703466Y-95459715D01*
X137498571Y-95596622D01*
X137498570Y-95596623D01*
X137498569Y-95596623D01*
X137270903Y-95690925D01*
X137029214Y-95739000D01*
X136782786Y-95739000D01*
X136541097Y-95690925D01*
X136313431Y-95596623D01*
X136313430Y-95596623D01*
X136313429Y-95596622D01*
X136108534Y-95459715D01*
X135934285Y-95285466D01*
X135797378Y-95080571D01*
X135771875Y-95019000D01*
X135703075Y-94852903D01*
X135655000Y-94611214D01*
X135655000Y-94364786D01*
X135703075Y-94123097D01*
X135797377Y-93895431D01*
X135934284Y-93690536D01*
X135934285Y-93690534D01*
X136108534Y-93516285D01*
X136313429Y-93379378D01*
X136541097Y-93285075D01*
X136782786Y-93237000D01*
X137029214Y-93237000D01*
X137270903Y-93285075D01*
X137270903Y-93285075D01*
G37*
G36*
X158761000Y-95019000D02*
G01*
X153659000Y-95019000D01*
X153659000Y-91417000D01*
X158761000Y-91417000D01*
X158761000Y-95019000D01*
X158761000Y-95019000D01*
G37*
G36*
X95261000Y-93165000D02*
G01*
X90159000Y-93165000D01*
X90159000Y-90063000D01*
X95261000Y-90063000D01*
X95261000Y-93165000D01*
X95261000Y-93165000D01*
G37*
G36*
X137151239Y-90207101D02*
G01*
X137387053Y-90278634D01*
X137604381Y-90394799D01*
X137794871Y-90551129D01*
X137951201Y-90741619D01*
X138067366Y-90958947D01*
X138138899Y-91194761D01*
X138163053Y-91440000D01*
X138138899Y-91685239D01*
X138067366Y-91921053D01*
X137951201Y-92138381D01*
X137794871Y-92328871D01*
X137604381Y-92485201D01*
X137387053Y-92601366D01*
X137151239Y-92672899D01*
X136967457Y-92691000D01*
X136844543Y-92691000D01*
X136660761Y-92672899D01*
X136424947Y-92601366D01*
X136207619Y-92485201D01*
X136017129Y-92328871D01*
X135860799Y-92138381D01*
X135744634Y-91921053D01*
X135673101Y-91685239D01*
X135648947Y-91440000D01*
X135673101Y-91194761D01*
X135744634Y-90958947D01*
X135860799Y-90741619D01*
X136017129Y-90551129D01*
X136207619Y-90394799D01*
X136424947Y-90278634D01*
X136660761Y-90207101D01*
X136844543Y-90189000D01*
X136967457Y-90189000D01*
X137151239Y-90207101D01*
X137151239Y-90207101D01*
G37*
G36*
X115913000Y-90459000D02*
G01*
X114211000Y-90459000D01*
X114211000Y-88357000D01*
X115913000Y-88357000D01*
X115913000Y-90459000D01*
X115913000Y-90459000D01*
G37*
G36*
X100673000Y-90459000D02*
G01*
X98971000Y-90459000D01*
X98971000Y-88357000D01*
X100673000Y-88357000D01*
X100673000Y-90459000D01*
X100673000Y-90459000D01*
G37*
G36*
X103213000Y-90459000D02*
G01*
X101511000Y-90459000D01*
X101511000Y-88357000D01*
X103213000Y-88357000D01*
X103213000Y-90459000D01*
X103213000Y-90459000D01*
G37*
G36*
X105753000Y-90459000D02*
G01*
X104051000Y-90459000D01*
X104051000Y-88357000D01*
X105753000Y-88357000D01*
X105753000Y-90459000D01*
X105753000Y-90459000D01*
G37*
G36*
X108293000Y-90459000D02*
G01*
X106591000Y-90459000D01*
X106591000Y-88357000D01*
X108293000Y-88357000D01*
X108293000Y-90459000D01*
X108293000Y-90459000D01*
G37*
G36*
X110833000Y-90459000D02*
G01*
X109131000Y-90459000D01*
X109131000Y-88357000D01*
X110833000Y-88357000D01*
X110833000Y-90459000D01*
X110833000Y-90459000D01*
G37*
G36*
X118453000Y-90459000D02*
G01*
X116751000Y-90459000D01*
X116751000Y-88357000D01*
X118453000Y-88357000D01*
X118453000Y-90459000D01*
X118453000Y-90459000D01*
G37*
G36*
X120993000Y-90459000D02*
G01*
X119291000Y-90459000D01*
X119291000Y-88357000D01*
X120993000Y-88357000D01*
X120993000Y-90459000D01*
X120993000Y-90459000D01*
G37*
G36*
X123383000Y-90459000D02*
G01*
X121981000Y-90459000D01*
X121981000Y-88357000D01*
X123383000Y-88357000D01*
X123383000Y-90459000D01*
X123383000Y-90459000D01*
G37*
G36*
X125923000Y-90459000D02*
G01*
X124521000Y-90459000D01*
X124521000Y-88357000D01*
X125923000Y-88357000D01*
X125923000Y-90459000D01*
X125923000Y-90459000D01*
G37*
G36*
X128613000Y-90459000D02*
G01*
X126911000Y-90459000D01*
X126911000Y-88357000D01*
X128613000Y-88357000D01*
X128613000Y-90459000D01*
X128613000Y-90459000D01*
G37*
G36*
X133693000Y-90459000D02*
G01*
X131991000Y-90459000D01*
X131991000Y-88357000D01*
X133693000Y-88357000D01*
X133693000Y-90459000D01*
X133693000Y-90459000D01*
G37*
G36*
X131153000Y-90459000D02*
G01*
X129451000Y-90459000D01*
X129451000Y-88357000D01*
X131153000Y-88357000D01*
X131153000Y-90459000D01*
X131153000Y-90459000D01*
G37*
G36*
X113373000Y-90459000D02*
G01*
X111671000Y-90459000D01*
X111671000Y-88357000D01*
X113373000Y-88357000D01*
X113373000Y-90459000D01*
X113373000Y-90459000D01*
G37*
G36*
X153905000Y-89389000D02*
G01*
X151403000Y-89389000D01*
X151403000Y-86887000D01*
X153905000Y-86887000D01*
X153905000Y-89389000D01*
X153905000Y-89389000D01*
G37*
G36*
X168139239Y-86905101D02*
G01*
X168375053Y-86976634D01*
X168592381Y-87092799D01*
X168782871Y-87249129D01*
X168939201Y-87439619D01*
X169055366Y-87656947D01*
X169126899Y-87892761D01*
X169151053Y-88138000D01*
X169126899Y-88383239D01*
X169055366Y-88619053D01*
X168939201Y-88836381D01*
X168782871Y-89026871D01*
X168592381Y-89183201D01*
X168375053Y-89299366D01*
X168139239Y-89370899D01*
X167955457Y-89389000D01*
X167832543Y-89389000D01*
X167648761Y-89370899D01*
X167412947Y-89299366D01*
X167195619Y-89183201D01*
X167005129Y-89026871D01*
X166848799Y-88836381D01*
X166732634Y-88619053D01*
X166661101Y-88383239D01*
X166636947Y-88138000D01*
X166661101Y-87892761D01*
X166732634Y-87656947D01*
X166848799Y-87439619D01*
X167005129Y-87249129D01*
X167195619Y-87092799D01*
X167412947Y-86976634D01*
X167648761Y-86905101D01*
X167832543Y-86887000D01*
X167955457Y-86887000D01*
X168139239Y-86905101D01*
X168139239Y-86905101D01*
G37*
G36*
X95261000Y-88165000D02*
G01*
X90159000Y-88165000D01*
X90159000Y-85063000D01*
X95261000Y-85063000D01*
X95261000Y-88165000D01*
X95261000Y-88165000D01*
G37*
G36*
X149208903Y-84903075D02*
G01*
X149362716Y-84966786D01*
X149436571Y-84997378D01*
X149641466Y-85134285D01*
X149815715Y-85308534D01*
X149909505Y-85448900D01*
X149952623Y-85513431D01*
X150046925Y-85741097D01*
X150095000Y-85982786D01*
X150095000Y-86229214D01*
X150046925Y-86470903D01*
X149964334Y-86670297D01*
X149952622Y-86698571D01*
X149815715Y-86903466D01*
X149641466Y-87077715D01*
X149436571Y-87214622D01*
X149436570Y-87214623D01*
X149436569Y-87214623D01*
X149208903Y-87308925D01*
X148967214Y-87357000D01*
X148720786Y-87357000D01*
X148479097Y-87308925D01*
X148251431Y-87214623D01*
X148251430Y-87214623D01*
X148251429Y-87214622D01*
X148046534Y-87077715D01*
X147872285Y-86903466D01*
X147735378Y-86698571D01*
X147723667Y-86670297D01*
X147641075Y-86470903D01*
X147593000Y-86229214D01*
X147593000Y-85982786D01*
X147641075Y-85741097D01*
X147735377Y-85513431D01*
X147778495Y-85448900D01*
X147872285Y-85308534D01*
X148046534Y-85134285D01*
X148251429Y-84997378D01*
X148325285Y-84966786D01*
X148479097Y-84903075D01*
X148720786Y-84855000D01*
X148967214Y-84855000D01*
X149208903Y-84903075D01*
X149208903Y-84903075D01*
G37*
G36*
X144761000Y-87103000D02*
G01*
X142259000Y-87103000D01*
X142259000Y-84601000D01*
X144761000Y-84601000D01*
X144761000Y-87103000D01*
X144761000Y-87103000D01*
G37*
G36*
X117088228Y-85033703D02*
G01*
X117243100Y-85097853D01*
X117382481Y-85190985D01*
X117501015Y-85309519D01*
X117594147Y-85448900D01*
X117658297Y-85603772D01*
X117691000Y-85768184D01*
X117691000Y-85935816D01*
X117658297Y-86100228D01*
X117594147Y-86255100D01*
X117501015Y-86394481D01*
X117382481Y-86513015D01*
X117243100Y-86606147D01*
X117088228Y-86670297D01*
X116923816Y-86703000D01*
X116756184Y-86703000D01*
X116591772Y-86670297D01*
X116436900Y-86606147D01*
X116297519Y-86513015D01*
X116178985Y-86394481D01*
X116085853Y-86255100D01*
X116021703Y-86100228D01*
X115989000Y-85935816D01*
X115989000Y-85768184D01*
X116021703Y-85603772D01*
X116085853Y-85448900D01*
X116178985Y-85309519D01*
X116297519Y-85190985D01*
X116436900Y-85097853D01*
X116591772Y-85033703D01*
X116756184Y-85001000D01*
X116923816Y-85001000D01*
X117088228Y-85033703D01*
X117088228Y-85033703D01*
G37*
G36*
X99932903Y-84141075D02*
G01*
X100082404Y-84203000D01*
X100160571Y-84235378D01*
X100365466Y-84372285D01*
X100539715Y-84546534D01*
X100605922Y-84645620D01*
X100676623Y-84751431D01*
X100770925Y-84979097D01*
X100819000Y-85220786D01*
X100819000Y-85467214D01*
X100794728Y-85589237D01*
X100770925Y-85708903D01*
X100676622Y-85936571D01*
X100539715Y-86141466D01*
X100365466Y-86315715D01*
X100160571Y-86452622D01*
X100160570Y-86452623D01*
X100160569Y-86452623D01*
X99932903Y-86546925D01*
X99691214Y-86595000D01*
X99444786Y-86595000D01*
X99203097Y-86546925D01*
X98975431Y-86452623D01*
X98975430Y-86452623D01*
X98975429Y-86452622D01*
X98770534Y-86315715D01*
X98596285Y-86141466D01*
X98459378Y-85936571D01*
X98365075Y-85708903D01*
X98341272Y-85589237D01*
X98317000Y-85467214D01*
X98317000Y-85220786D01*
X98365075Y-84979097D01*
X98459377Y-84751431D01*
X98530078Y-84645620D01*
X98596285Y-84546534D01*
X98770534Y-84372285D01*
X98975429Y-84235378D01*
X99053597Y-84203000D01*
X99203097Y-84141075D01*
X99444786Y-84093000D01*
X99691214Y-84093000D01*
X99932903Y-84141075D01*
X99932903Y-84141075D01*
G37*
G36*
X112513239Y-84111101D02*
G01*
X112749053Y-84182634D01*
X112966381Y-84298799D01*
X113156871Y-84455129D01*
X113313201Y-84645619D01*
X113429366Y-84862947D01*
X113500899Y-85098761D01*
X113525053Y-85344000D01*
X113500899Y-85589239D01*
X113429366Y-85825053D01*
X113313201Y-86042381D01*
X113156871Y-86232871D01*
X112966381Y-86389201D01*
X112749053Y-86505366D01*
X112513239Y-86576899D01*
X112329457Y-86595000D01*
X112206543Y-86595000D01*
X112022761Y-86576899D01*
X111786947Y-86505366D01*
X111569619Y-86389201D01*
X111379129Y-86232871D01*
X111222799Y-86042381D01*
X111106634Y-85825053D01*
X111035101Y-85589239D01*
X111010947Y-85344000D01*
X111035101Y-85098761D01*
X111106634Y-84862947D01*
X111222799Y-84645619D01*
X111379129Y-84455129D01*
X111569619Y-84298799D01*
X111786947Y-84182634D01*
X112022761Y-84111101D01*
X112206543Y-84093000D01*
X112329457Y-84093000D01*
X112513239Y-84111101D01*
X112513239Y-84111101D01*
G37*
G36*
X121014903Y-83887075D02*
G01*
X121115236Y-83928634D01*
X121242571Y-83981378D01*
X121447466Y-84118285D01*
X121621715Y-84292534D01*
X121758622Y-84497429D01*
X121758623Y-84497431D01*
X121852925Y-84725097D01*
X121901000Y-84966786D01*
X121901000Y-85213214D01*
X121876728Y-85335237D01*
X121852925Y-85454903D01*
X121758622Y-85682571D01*
X121621715Y-85887466D01*
X121447466Y-86061715D01*
X121242571Y-86198622D01*
X121242570Y-86198623D01*
X121242569Y-86198623D01*
X121014903Y-86292925D01*
X120773214Y-86341000D01*
X120526786Y-86341000D01*
X120285097Y-86292925D01*
X120057431Y-86198623D01*
X120057430Y-86198623D01*
X120057429Y-86198622D01*
X119852534Y-86061715D01*
X119678285Y-85887466D01*
X119541378Y-85682571D01*
X119447075Y-85454903D01*
X119423272Y-85335237D01*
X119399000Y-85213214D01*
X119399000Y-84966786D01*
X119447075Y-84725097D01*
X119541377Y-84497431D01*
X119541378Y-84497429D01*
X119678285Y-84292534D01*
X119852534Y-84118285D01*
X120057429Y-83981378D01*
X120184765Y-83928634D01*
X120285097Y-83887075D01*
X120526786Y-83839000D01*
X120773214Y-83839000D01*
X121014903Y-83887075D01*
X121014903Y-83887075D01*
G37*
G36*
X133595239Y-83857101D02*
G01*
X133831053Y-83928634D01*
X134048381Y-84044799D01*
X134238871Y-84201129D01*
X134395201Y-84391619D01*
X134511366Y-84608947D01*
X134582899Y-84844761D01*
X134607053Y-85090000D01*
X134582899Y-85335239D01*
X134511366Y-85571053D01*
X134395201Y-85788381D01*
X134238871Y-85978871D01*
X134048381Y-86135201D01*
X133831053Y-86251366D01*
X133595239Y-86322899D01*
X133411457Y-86341000D01*
X133288543Y-86341000D01*
X133104761Y-86322899D01*
X132868947Y-86251366D01*
X132651619Y-86135201D01*
X132461129Y-85978871D01*
X132304799Y-85788381D01*
X132188634Y-85571053D01*
X132117101Y-85335239D01*
X132092947Y-85090000D01*
X132117101Y-84844761D01*
X132188634Y-84608947D01*
X132304799Y-84391619D01*
X132461129Y-84201129D01*
X132651619Y-84044799D01*
X132868947Y-83928634D01*
X133104761Y-83857101D01*
X133288543Y-83839000D01*
X133411457Y-83839000D01*
X133595239Y-83857101D01*
X133595239Y-83857101D01*
G37*
G36*
X117088228Y-82533703D02*
G01*
X117243100Y-82597853D01*
X117382481Y-82690985D01*
X117501015Y-82809519D01*
X117594147Y-82948900D01*
X117658297Y-83103772D01*
X117691000Y-83268184D01*
X117691000Y-83435816D01*
X117658297Y-83600228D01*
X117594147Y-83755100D01*
X117501015Y-83894481D01*
X117382481Y-84013015D01*
X117243100Y-84106147D01*
X117088228Y-84170297D01*
X116923816Y-84203000D01*
X116756184Y-84203000D01*
X116591772Y-84170297D01*
X116436900Y-84106147D01*
X116297519Y-84013015D01*
X116178985Y-83894481D01*
X116085853Y-83755100D01*
X116021703Y-83600228D01*
X115989000Y-83435816D01*
X115989000Y-83268184D01*
X116021703Y-83103772D01*
X116085853Y-82948900D01*
X116178985Y-82809519D01*
X116297519Y-82690985D01*
X116436900Y-82597853D01*
X116591772Y-82533703D01*
X116756184Y-82501000D01*
X116923816Y-82501000D01*
X117088228Y-82533703D01*
X117088228Y-82533703D01*
G37*
G36*
X150149000Y-83238500D02*
G01*
X148047000Y-83238500D01*
X148047000Y-81861500D01*
X150149000Y-81861500D01*
X150149000Y-83238500D01*
X150149000Y-83238500D01*
G37*
G36*
X157007000Y-82893000D02*
G01*
X154905000Y-82893000D01*
X154905000Y-81191000D01*
X157007000Y-81191000D01*
X157007000Y-82893000D01*
X157007000Y-82893000D01*
G37*
G36*
X168175000Y-82831000D02*
G01*
X165073000Y-82831000D01*
X165073000Y-79729000D01*
X168175000Y-79729000D01*
X168175000Y-82831000D01*
X168175000Y-82831000D01*
G37*
G36*
X149514551Y-80163492D02*
G01*
X149595470Y-80171462D01*
X149725252Y-80210831D01*
X149763726Y-80231396D01*
X149844860Y-80274763D01*
X149949699Y-80360801D01*
X150035737Y-80465640D01*
X150049322Y-80491056D01*
X150099669Y-80585248D01*
X150139038Y-80715030D01*
X150152331Y-80850000D01*
X150139038Y-80984970D01*
X150099669Y-81114752D01*
X150099666Y-81114757D01*
X150035737Y-81234360D01*
X149949699Y-81339199D01*
X149844860Y-81425237D01*
X149774645Y-81462767D01*
X149725252Y-81489169D01*
X149595470Y-81528538D01*
X149514551Y-81536508D01*
X149494322Y-81538500D01*
X148701678Y-81538500D01*
X148681449Y-81536508D01*
X148600530Y-81528538D01*
X148470748Y-81489169D01*
X148421355Y-81462767D01*
X148351140Y-81425237D01*
X148246301Y-81339199D01*
X148160263Y-81234360D01*
X148096334Y-81114757D01*
X148096331Y-81114752D01*
X148056962Y-80984970D01*
X148043669Y-80850000D01*
X148056962Y-80715030D01*
X148096331Y-80585248D01*
X148146678Y-80491056D01*
X148160263Y-80465640D01*
X148246301Y-80360801D01*
X148351140Y-80274763D01*
X148432274Y-80231396D01*
X148470748Y-80210831D01*
X148600530Y-80171462D01*
X148681449Y-80163492D01*
X148701678Y-80161500D01*
X149494322Y-80161500D01*
X149514551Y-80163492D01*
X149514551Y-80163492D01*
G37*
G36*
X112632903Y-78807075D02*
G01*
X112839766Y-78892760D01*
X112860571Y-78901378D01*
X113065466Y-79038285D01*
X113239715Y-79212534D01*
X113376622Y-79417429D01*
X113376623Y-79417431D01*
X113470925Y-79645097D01*
X113519000Y-79886786D01*
X113519000Y-80133214D01*
X113470925Y-80374903D01*
X113383798Y-80585248D01*
X113376622Y-80602571D01*
X113239715Y-80807466D01*
X113065466Y-80981715D01*
X112860571Y-81118622D01*
X112860570Y-81118623D01*
X112860569Y-81118623D01*
X112632903Y-81212925D01*
X112391214Y-81261000D01*
X112144786Y-81261000D01*
X111903097Y-81212925D01*
X111675431Y-81118623D01*
X111675430Y-81118623D01*
X111675429Y-81118622D01*
X111470534Y-80981715D01*
X111296285Y-80807466D01*
X111159378Y-80602571D01*
X111152203Y-80585248D01*
X111065075Y-80374903D01*
X111017000Y-80133214D01*
X111017000Y-79886786D01*
X111065075Y-79645097D01*
X111159377Y-79417431D01*
X111159378Y-79417429D01*
X111296285Y-79212534D01*
X111470534Y-79038285D01*
X111675429Y-78901378D01*
X111696235Y-78892760D01*
X111903097Y-78807075D01*
X112144786Y-78759000D01*
X112391214Y-78759000D01*
X112632903Y-78807075D01*
X112632903Y-78807075D01*
G37*
G36*
X99813239Y-78777101D02*
G01*
X100049053Y-78848634D01*
X100266381Y-78964799D01*
X100456871Y-79121129D01*
X100613201Y-79311619D01*
X100729366Y-79528947D01*
X100800899Y-79764761D01*
X100825053Y-80010000D01*
X100800899Y-80255239D01*
X100729366Y-80491053D01*
X100613201Y-80708381D01*
X100456871Y-80898871D01*
X100266381Y-81055201D01*
X100049053Y-81171366D01*
X99813239Y-81242899D01*
X99629457Y-81261000D01*
X99506543Y-81261000D01*
X99322761Y-81242899D01*
X99086947Y-81171366D01*
X98869619Y-81055201D01*
X98679129Y-80898871D01*
X98522799Y-80708381D01*
X98406634Y-80491053D01*
X98335101Y-80255239D01*
X98310947Y-80010000D01*
X98335101Y-79764761D01*
X98406634Y-79528947D01*
X98522799Y-79311619D01*
X98679129Y-79121129D01*
X98869619Y-78964799D01*
X99086947Y-78848634D01*
X99322761Y-78777101D01*
X99506543Y-78759000D01*
X99629457Y-78759000D01*
X99813239Y-78777101D01*
X99813239Y-78777101D01*
G37*
G36*
X120387239Y-78777101D02*
G01*
X120623053Y-78848634D01*
X120840381Y-78964799D01*
X121030871Y-79121129D01*
X121187201Y-79311619D01*
X121303366Y-79528947D01*
X121374899Y-79764761D01*
X121399053Y-80010000D01*
X121374899Y-80255239D01*
X121303366Y-80491053D01*
X121187201Y-80708381D01*
X121030871Y-80898871D01*
X120840381Y-81055201D01*
X120623053Y-81171366D01*
X120387239Y-81242899D01*
X120203457Y-81261000D01*
X120080543Y-81261000D01*
X119896761Y-81242899D01*
X119660947Y-81171366D01*
X119443619Y-81055201D01*
X119253129Y-80898871D01*
X119096799Y-80708381D01*
X118980634Y-80491053D01*
X118909101Y-80255239D01*
X118884947Y-80010000D01*
X118909101Y-79764761D01*
X118980634Y-79528947D01*
X119096799Y-79311619D01*
X119253129Y-79121129D01*
X119443619Y-78964799D01*
X119660947Y-78848634D01*
X119896761Y-78777101D01*
X120080543Y-78759000D01*
X120203457Y-78759000D01*
X120387239Y-78777101D01*
X120387239Y-78777101D01*
G37*
G36*
X133206903Y-78807075D02*
G01*
X133413766Y-78892760D01*
X133434571Y-78901378D01*
X133639466Y-79038285D01*
X133813715Y-79212534D01*
X133950622Y-79417429D01*
X133950623Y-79417431D01*
X134044925Y-79645097D01*
X134093000Y-79886786D01*
X134093000Y-80133214D01*
X134044925Y-80374903D01*
X133957798Y-80585248D01*
X133950622Y-80602571D01*
X133813715Y-80807466D01*
X133639466Y-80981715D01*
X133434571Y-81118622D01*
X133434570Y-81118623D01*
X133434569Y-81118623D01*
X133206903Y-81212925D01*
X132965214Y-81261000D01*
X132718786Y-81261000D01*
X132477097Y-81212925D01*
X132249431Y-81118623D01*
X132249430Y-81118623D01*
X132249429Y-81118622D01*
X132044534Y-80981715D01*
X131870285Y-80807466D01*
X131733378Y-80602571D01*
X131726203Y-80585248D01*
X131639075Y-80374903D01*
X131591000Y-80133214D01*
X131591000Y-79886786D01*
X131639075Y-79645097D01*
X131733377Y-79417431D01*
X131733378Y-79417429D01*
X131870285Y-79212534D01*
X132044534Y-79038285D01*
X132249429Y-78901378D01*
X132270235Y-78892760D01*
X132477097Y-78807075D01*
X132718786Y-78759000D01*
X132965214Y-78759000D01*
X133206903Y-78807075D01*
X133206903Y-78807075D01*
G37*
G36*
X157007000Y-80353000D02*
G01*
X154905000Y-80353000D01*
X154905000Y-78651000D01*
X157007000Y-78651000D01*
X157007000Y-80353000D01*
X157007000Y-80353000D01*
G37*
G36*
X93520585Y-77218802D02*
G01*
X93670410Y-77248604D01*
X93952674Y-77365521D01*
X94206705Y-77535259D01*
X94422741Y-77751295D01*
X94592479Y-78005326D01*
X94709396Y-78287590D01*
X94709396Y-78287591D01*
X94766519Y-78574764D01*
X94769000Y-78587240D01*
X94769000Y-78892760D01*
X94709396Y-79192410D01*
X94592479Y-79474674D01*
X94422741Y-79728705D01*
X94206705Y-79944741D01*
X93952674Y-80114479D01*
X93670410Y-80231396D01*
X93550553Y-80255237D01*
X93370761Y-80291000D01*
X93065239Y-80291000D01*
X92885447Y-80255237D01*
X92765590Y-80231396D01*
X92483326Y-80114479D01*
X92229295Y-79944741D01*
X92013259Y-79728705D01*
X91843521Y-79474674D01*
X91726604Y-79192410D01*
X91667000Y-78892760D01*
X91667000Y-78587240D01*
X91669482Y-78574764D01*
X91726604Y-78287591D01*
X91726604Y-78287590D01*
X91843521Y-78005326D01*
X92013259Y-77751295D01*
X92229295Y-77535259D01*
X92483326Y-77365521D01*
X92765590Y-77248604D01*
X92915415Y-77218802D01*
X93065239Y-77189000D01*
X93370761Y-77189000D01*
X93520585Y-77218802D01*
X93520585Y-77218802D01*
G37*
G36*
X137270903Y-77537075D02*
G01*
X137386523Y-77584966D01*
X137498571Y-77631378D01*
X137703466Y-77768285D01*
X137877715Y-77942534D01*
X138014622Y-78147429D01*
X138014623Y-78147431D01*
X138108925Y-78375097D01*
X138157000Y-78616786D01*
X138157000Y-78863214D01*
X138108925Y-79104903D01*
X138072679Y-79192410D01*
X138014622Y-79332571D01*
X137877715Y-79537466D01*
X137703466Y-79711715D01*
X137498571Y-79848622D01*
X137498570Y-79848623D01*
X137498569Y-79848623D01*
X137270903Y-79942925D01*
X137029214Y-79991000D01*
X136782786Y-79991000D01*
X136541097Y-79942925D01*
X136313431Y-79848623D01*
X136313430Y-79848623D01*
X136313429Y-79848622D01*
X136108534Y-79711715D01*
X135934285Y-79537466D01*
X135797378Y-79332571D01*
X135739322Y-79192410D01*
X135703075Y-79104903D01*
X135655000Y-78863214D01*
X135655000Y-78616786D01*
X135703075Y-78375097D01*
X135797377Y-78147431D01*
X135797378Y-78147429D01*
X135934285Y-77942534D01*
X136108534Y-77768285D01*
X136313429Y-77631378D01*
X136425478Y-77584966D01*
X136541097Y-77537075D01*
X136782786Y-77489000D01*
X137029214Y-77489000D01*
X137270903Y-77537075D01*
X137270903Y-77537075D01*
G37*
G36*
X149514551Y-78463492D02*
G01*
X149595470Y-78471462D01*
X149725252Y-78510831D01*
X149774645Y-78537233D01*
X149844860Y-78574763D01*
X149949699Y-78660801D01*
X150035736Y-78765639D01*
X150099669Y-78885248D01*
X150139038Y-79015030D01*
X150152331Y-79150000D01*
X150139038Y-79284970D01*
X150099669Y-79414752D01*
X150099666Y-79414757D01*
X150035737Y-79534360D01*
X149949699Y-79639199D01*
X149844860Y-79725237D01*
X149774645Y-79762767D01*
X149725252Y-79789169D01*
X149595470Y-79828538D01*
X149514551Y-79836508D01*
X149494322Y-79838500D01*
X148701678Y-79838500D01*
X148681449Y-79836508D01*
X148600530Y-79828538D01*
X148470748Y-79789169D01*
X148421355Y-79762767D01*
X148351140Y-79725237D01*
X148246301Y-79639199D01*
X148160263Y-79534360D01*
X148096334Y-79414757D01*
X148096331Y-79414752D01*
X148056962Y-79284970D01*
X148043669Y-79150000D01*
X148056962Y-79015030D01*
X148096331Y-78885248D01*
X148160264Y-78765639D01*
X148246301Y-78660801D01*
X148351140Y-78574763D01*
X148421355Y-78537233D01*
X148470748Y-78510831D01*
X148600530Y-78471462D01*
X148681449Y-78463492D01*
X148701678Y-78461500D01*
X149494322Y-78461500D01*
X149514551Y-78463492D01*
X149514551Y-78463492D01*
G37*
G36*
X143599000Y-79083000D02*
G01*
X141897000Y-79083000D01*
X141897000Y-77381000D01*
X143599000Y-77381000D01*
X143599000Y-79083000D01*
X143599000Y-79083000D01*
G37*
G36*
X149514551Y-76763492D02*
G01*
X149595470Y-76771462D01*
X149725252Y-76810831D01*
X149774645Y-76837233D01*
X149844860Y-76874763D01*
X149949699Y-76960801D01*
X150023145Y-77050297D01*
X150035736Y-77065639D01*
X150099669Y-77185248D01*
X150139038Y-77315030D01*
X150152331Y-77450000D01*
X150139038Y-77584970D01*
X150099669Y-77714752D01*
X150099666Y-77714757D01*
X150035737Y-77834360D01*
X149949699Y-77939199D01*
X149844860Y-78025237D01*
X149774645Y-78062767D01*
X149725252Y-78089169D01*
X149595470Y-78128538D01*
X149514551Y-78136508D01*
X149494322Y-78138500D01*
X148701678Y-78138500D01*
X148681449Y-78136508D01*
X148600530Y-78128538D01*
X148470748Y-78089169D01*
X148421355Y-78062767D01*
X148351140Y-78025237D01*
X148246301Y-77939199D01*
X148160263Y-77834360D01*
X148096334Y-77714757D01*
X148096331Y-77714752D01*
X148056962Y-77584970D01*
X148043669Y-77450000D01*
X148056962Y-77315030D01*
X148096331Y-77185248D01*
X148160264Y-77065639D01*
X148172855Y-77050297D01*
X148246301Y-76960801D01*
X148351140Y-76874763D01*
X148421355Y-76837233D01*
X148470748Y-76810831D01*
X148600530Y-76771462D01*
X148681449Y-76763492D01*
X148701678Y-76761500D01*
X149494322Y-76761500D01*
X149514551Y-76763492D01*
X149514551Y-76763492D01*
G37*
G36*
X166926585Y-74678802D02*
G01*
X167076410Y-74708604D01*
X167358674Y-74825521D01*
X167612705Y-74995259D01*
X167828741Y-75211295D01*
X167998479Y-75465326D01*
X168115396Y-75747590D01*
X168131570Y-75828903D01*
X168175000Y-76047239D01*
X168175000Y-76352761D01*
X168167758Y-76389169D01*
X168115396Y-76652410D01*
X167998479Y-76934674D01*
X167828741Y-77188705D01*
X167612705Y-77404741D01*
X167358674Y-77574479D01*
X167076410Y-77691396D01*
X166958991Y-77714752D01*
X166776761Y-77751000D01*
X166471239Y-77751000D01*
X166289009Y-77714752D01*
X166171590Y-77691396D01*
X165889326Y-77574479D01*
X165635295Y-77404741D01*
X165419259Y-77188705D01*
X165249521Y-76934674D01*
X165132604Y-76652410D01*
X165080242Y-76389169D01*
X165073000Y-76352761D01*
X165073000Y-76047239D01*
X165116430Y-75828903D01*
X165132604Y-75747590D01*
X165249521Y-75465326D01*
X165419259Y-75211295D01*
X165635295Y-74995259D01*
X165889326Y-74825521D01*
X166171590Y-74708604D01*
X166321415Y-74678802D01*
X166471239Y-74649000D01*
X166776761Y-74649000D01*
X166926585Y-74678802D01*
X166926585Y-74678802D01*
G37*
G36*
X157007000Y-77663000D02*
G01*
X154905000Y-77663000D01*
X154905000Y-76261000D01*
X157007000Y-76261000D01*
X157007000Y-77663000D01*
X157007000Y-77663000D01*
G37*
G36*
X142996228Y-75413703D02*
G01*
X143151100Y-75477853D01*
X143290481Y-75570985D01*
X143409015Y-75689519D01*
X143502147Y-75828900D01*
X143566297Y-75983772D01*
X143599000Y-76148184D01*
X143599000Y-76315816D01*
X143566297Y-76480228D01*
X143502147Y-76635100D01*
X143409015Y-76774481D01*
X143290481Y-76893015D01*
X143151100Y-76986147D01*
X142996228Y-77050297D01*
X142831816Y-77083000D01*
X142664184Y-77083000D01*
X142499772Y-77050297D01*
X142344900Y-76986147D01*
X142205519Y-76893015D01*
X142086985Y-76774481D01*
X141993853Y-76635100D01*
X141929703Y-76480228D01*
X141897000Y-76315816D01*
X141897000Y-76148184D01*
X141929703Y-75983772D01*
X141993853Y-75828900D01*
X142086985Y-75689519D01*
X142205519Y-75570985D01*
X142344900Y-75477853D01*
X142499772Y-75413703D01*
X142664184Y-75381000D01*
X142831816Y-75381000D01*
X142996228Y-75413703D01*
X142996228Y-75413703D01*
G37*
G36*
X149514551Y-75063492D02*
G01*
X149595470Y-75071462D01*
X149725252Y-75110831D01*
X149774645Y-75137233D01*
X149844860Y-75174763D01*
X149949699Y-75260801D01*
X150035736Y-75365639D01*
X150099669Y-75485248D01*
X150139038Y-75615030D01*
X150152331Y-75750000D01*
X150139038Y-75884970D01*
X150099669Y-76014752D01*
X150099666Y-76014757D01*
X150035737Y-76134360D01*
X149949699Y-76239199D01*
X149844860Y-76325237D01*
X149793368Y-76352760D01*
X149725252Y-76389169D01*
X149595470Y-76428538D01*
X149514551Y-76436508D01*
X149494322Y-76438500D01*
X148701678Y-76438500D01*
X148681449Y-76436508D01*
X148600530Y-76428538D01*
X148470748Y-76389169D01*
X148402632Y-76352760D01*
X148351140Y-76325237D01*
X148246301Y-76239199D01*
X148160263Y-76134360D01*
X148096334Y-76014757D01*
X148096331Y-76014752D01*
X148056962Y-75884970D01*
X148043669Y-75750000D01*
X148056962Y-75615030D01*
X148096331Y-75485248D01*
X148160264Y-75365639D01*
X148246301Y-75260801D01*
X148351140Y-75174763D01*
X148421355Y-75137233D01*
X148470748Y-75110831D01*
X148600530Y-75071462D01*
X148681449Y-75063492D01*
X148701678Y-75061500D01*
X149494322Y-75061500D01*
X149514551Y-75063492D01*
X149514551Y-75063492D01*
G37*
G36*
X103667000Y-75273000D02*
G01*
X101565000Y-75273000D01*
X101565000Y-73571000D01*
X103667000Y-73571000D01*
X103667000Y-75273000D01*
X103667000Y-75273000D01*
G37*
G36*
X93388879Y-72112604D02*
G01*
X93670410Y-72168604D01*
X93952674Y-72285521D01*
X94206705Y-72455259D01*
X94422741Y-72671295D01*
X94592479Y-72925326D01*
X94709396Y-73207590D01*
X94769000Y-73507240D01*
X94769000Y-73812760D01*
X94709396Y-74112410D01*
X94592479Y-74394674D01*
X94422741Y-74648705D01*
X94206705Y-74864741D01*
X93952674Y-75034479D01*
X93670410Y-75151396D01*
X93552936Y-75174763D01*
X93370761Y-75211000D01*
X93065239Y-75211000D01*
X92883064Y-75174763D01*
X92765590Y-75151396D01*
X92483326Y-75034479D01*
X92229295Y-74864741D01*
X92013259Y-74648705D01*
X91843521Y-74394674D01*
X91726604Y-74112410D01*
X91667000Y-73812760D01*
X91667000Y-73507240D01*
X91726604Y-73207590D01*
X91843521Y-72925326D01*
X92013259Y-72671295D01*
X92229295Y-72455259D01*
X92483326Y-72285521D01*
X92765590Y-72168604D01*
X93047121Y-72112604D01*
X93065239Y-72109000D01*
X93370761Y-72109000D01*
X93388879Y-72112604D01*
X93388879Y-72112604D01*
G37*
G36*
X143279395Y-71475546D02*
G01*
X143452466Y-71547234D01*
X143452467Y-71547235D01*
X143608227Y-71651310D01*
X143740690Y-71783773D01*
X143740691Y-71783775D01*
X143844766Y-71939534D01*
X143916454Y-72112605D01*
X143953000Y-72296333D01*
X143953000Y-72483667D01*
X143916454Y-72667395D01*
X143844766Y-72840466D01*
X143844765Y-72840467D01*
X143740690Y-72996227D01*
X143608227Y-73128690D01*
X143529818Y-73181081D01*
X143452466Y-73232766D01*
X143279395Y-73304454D01*
X143095667Y-73341000D01*
X142908333Y-73341000D01*
X142724605Y-73304454D01*
X142551534Y-73232766D01*
X142474182Y-73181081D01*
X142395773Y-73128690D01*
X142263310Y-72996227D01*
X142159235Y-72840467D01*
X142159234Y-72840466D01*
X142087546Y-72667395D01*
X142051000Y-72483667D01*
X142051000Y-72296333D01*
X142087546Y-72112605D01*
X142159234Y-71939534D01*
X142263309Y-71783775D01*
X142263310Y-71783773D01*
X142395773Y-71651310D01*
X142551533Y-71547235D01*
X142551534Y-71547234D01*
X142724605Y-71475546D01*
X142908333Y-71439000D01*
X143095667Y-71439000D01*
X143279395Y-71475546D01*
X143279395Y-71475546D01*
G37*
G36*
X158998228Y-71285703D02*
G01*
X159153100Y-71349853D01*
X159292481Y-71442985D01*
X159411015Y-71561519D01*
X159504147Y-71700900D01*
X159568297Y-71855772D01*
X159601000Y-72020184D01*
X159601000Y-72187816D01*
X159568297Y-72352228D01*
X159504147Y-72507100D01*
X159411015Y-72646481D01*
X159292481Y-72765015D01*
X159153100Y-72858147D01*
X158998228Y-72922297D01*
X158833816Y-72955000D01*
X158666184Y-72955000D01*
X158501772Y-72922297D01*
X158346900Y-72858147D01*
X158207519Y-72765015D01*
X158088985Y-72646481D01*
X157995853Y-72507100D01*
X157931703Y-72352228D01*
X157899000Y-72187816D01*
X157899000Y-72020184D01*
X157931703Y-71855772D01*
X157995853Y-71700900D01*
X158088985Y-71561519D01*
X158207519Y-71442985D01*
X158346900Y-71349853D01*
X158501772Y-71285703D01*
X158666184Y-71253000D01*
X158833816Y-71253000D01*
X158998228Y-71285703D01*
X158998228Y-71285703D01*
G37*
G36*
X149208903Y-70425075D02*
G01*
X149436571Y-70519378D01*
X149641466Y-70656285D01*
X149815715Y-70830534D01*
X149952622Y-71035429D01*
X149952623Y-71035431D01*
X150046925Y-71263097D01*
X150095000Y-71504786D01*
X150095000Y-71751214D01*
X150046925Y-71992903D01*
X149974148Y-72168604D01*
X149952622Y-72220571D01*
X149815715Y-72425466D01*
X149641466Y-72599715D01*
X149436571Y-72736622D01*
X149436570Y-72736623D01*
X149436569Y-72736623D01*
X149208903Y-72830925D01*
X148967214Y-72879000D01*
X148720786Y-72879000D01*
X148479097Y-72830925D01*
X148251431Y-72736623D01*
X148251430Y-72736623D01*
X148251429Y-72736622D01*
X148046534Y-72599715D01*
X147872285Y-72425466D01*
X147735378Y-72220571D01*
X147713853Y-72168604D01*
X147641075Y-71992903D01*
X147593000Y-71751214D01*
X147593000Y-71504786D01*
X147641075Y-71263097D01*
X147735377Y-71035431D01*
X147735378Y-71035429D01*
X147872285Y-70830534D01*
X148046534Y-70656285D01*
X148251429Y-70519378D01*
X148479097Y-70425075D01*
X148720786Y-70377000D01*
X148967214Y-70377000D01*
X149208903Y-70425075D01*
X149208903Y-70425075D01*
G37*
G36*
X103667000Y-72733000D02*
G01*
X101565000Y-72733000D01*
X101565000Y-71031000D01*
X103667000Y-71031000D01*
X103667000Y-72733000D01*
X103667000Y-72733000D01*
G37*
G36*
X166926585Y-69598802D02*
G01*
X167076410Y-69628604D01*
X167358674Y-69745521D01*
X167612705Y-69915259D01*
X167828741Y-70131295D01*
X167998479Y-70385326D01*
X168110713Y-70656285D01*
X168115396Y-70667591D01*
X168175000Y-70967239D01*
X168175000Y-71272761D01*
X168159665Y-71349853D01*
X168115396Y-71572410D01*
X167998479Y-71854674D01*
X167828741Y-72108705D01*
X167612705Y-72324741D01*
X167358674Y-72494479D01*
X167076410Y-72611396D01*
X166926585Y-72641198D01*
X166776761Y-72671000D01*
X166471239Y-72671000D01*
X166321415Y-72641198D01*
X166171590Y-72611396D01*
X165889326Y-72494479D01*
X165635295Y-72324741D01*
X165419259Y-72108705D01*
X165249521Y-71854674D01*
X165132604Y-71572410D01*
X165088335Y-71349853D01*
X165073000Y-71272761D01*
X165073000Y-70967239D01*
X165132604Y-70667591D01*
X165137287Y-70656285D01*
X165249521Y-70385326D01*
X165419259Y-70131295D01*
X165635295Y-69915259D01*
X165889326Y-69745521D01*
X166171590Y-69628604D01*
X166321415Y-69598802D01*
X166471239Y-69569000D01*
X166776761Y-69569000D01*
X166926585Y-69598802D01*
X166926585Y-69598802D01*
G37*
G36*
X159601000Y-70955000D02*
G01*
X157899000Y-70955000D01*
X157899000Y-69253000D01*
X159601000Y-69253000D01*
X159601000Y-70955000D01*
X159601000Y-70955000D01*
G37*
G36*
X143953000Y-70801000D02*
G01*
X142051000Y-70801000D01*
X142051000Y-68899000D01*
X143953000Y-68899000D01*
X143953000Y-70801000D01*
X143953000Y-70801000D01*
G37*
G36*
X154367000Y-70293000D02*
G01*
X152465000Y-70293000D01*
X152465000Y-68391000D01*
X154367000Y-68391000D01*
X154367000Y-70293000D01*
X154367000Y-70293000D01*
G37*
G36*
X103667000Y-70193000D02*
G01*
X101565000Y-70193000D01*
X101565000Y-68491000D01*
X103667000Y-68491000D01*
X103667000Y-70193000D01*
X103667000Y-70193000D01*
G37*
G36*
X93520585Y-67058802D02*
G01*
X93670410Y-67088604D01*
X93952674Y-67205521D01*
X94206705Y-67375259D01*
X94422741Y-67591295D01*
X94592479Y-67845326D01*
X94709396Y-68127590D01*
X94709396Y-68127591D01*
X94761792Y-68391000D01*
X94769000Y-68427240D01*
X94769000Y-68732760D01*
X94709396Y-69032410D01*
X94592479Y-69314674D01*
X94422741Y-69568705D01*
X94206705Y-69784741D01*
X93952674Y-69954479D01*
X93670410Y-70071396D01*
X93520585Y-70101198D01*
X93370761Y-70131000D01*
X93065239Y-70131000D01*
X92915415Y-70101198D01*
X92765590Y-70071396D01*
X92483326Y-69954479D01*
X92229295Y-69784741D01*
X92013259Y-69568705D01*
X91843521Y-69314674D01*
X91726604Y-69032410D01*
X91667000Y-68732760D01*
X91667000Y-68427240D01*
X91674209Y-68391000D01*
X91726604Y-68127591D01*
X91726604Y-68127590D01*
X91843521Y-67845326D01*
X92013259Y-67591295D01*
X92229295Y-67375259D01*
X92483326Y-67205521D01*
X92765590Y-67088604D01*
X92915415Y-67058802D01*
X93065239Y-67029000D01*
X93370761Y-67029000D01*
X93520585Y-67058802D01*
X93520585Y-67058802D01*
G37*
G36*
X153693395Y-65887546D02*
G01*
X153866466Y-65959234D01*
X153866467Y-65959235D01*
X154022227Y-66063310D01*
X154154690Y-66195773D01*
X154154691Y-66195775D01*
X154258766Y-66351534D01*
X154330454Y-66524605D01*
X154367000Y-66708333D01*
X154367000Y-66895667D01*
X154330454Y-67079395D01*
X154258766Y-67252466D01*
X154258765Y-67252467D01*
X154154690Y-67408227D01*
X154022227Y-67540690D01*
X153946932Y-67591000D01*
X153866466Y-67644766D01*
X153693395Y-67716454D01*
X153509667Y-67753000D01*
X153322333Y-67753000D01*
X153138605Y-67716454D01*
X152965534Y-67644766D01*
X152885068Y-67591000D01*
X152809773Y-67540690D01*
X152677310Y-67408227D01*
X152573235Y-67252467D01*
X152573234Y-67252466D01*
X152501546Y-67079395D01*
X152465000Y-66895667D01*
X152465000Y-66708333D01*
X152501546Y-66524605D01*
X152573234Y-66351534D01*
X152677309Y-66195775D01*
X152677310Y-66195773D01*
X152809773Y-66063310D01*
X152965533Y-65959235D01*
X152965534Y-65959234D01*
X153138605Y-65887546D01*
X153322333Y-65851000D01*
X153509667Y-65851000D01*
X153693395Y-65887546D01*
X153693395Y-65887546D01*
G37*
G36*
X103667000Y-67653000D02*
G01*
X101565000Y-67653000D01*
X101565000Y-65951000D01*
X103667000Y-65951000D01*
X103667000Y-67653000D01*
X103667000Y-67653000D01*
G37*
G36*
X166926585Y-64518802D02*
G01*
X167076410Y-64548604D01*
X167358674Y-64665521D01*
X167612705Y-64835259D01*
X167828741Y-65051295D01*
X167998479Y-65305326D01*
X168115396Y-65587590D01*
X168115396Y-65587591D01*
X168167792Y-65851000D01*
X168175000Y-65887240D01*
X168175000Y-66192760D01*
X168115396Y-66492410D01*
X167998479Y-66774674D01*
X167828741Y-67028705D01*
X167612705Y-67244741D01*
X167358674Y-67414479D01*
X167076410Y-67531396D01*
X166926585Y-67561198D01*
X166776761Y-67591000D01*
X166471239Y-67591000D01*
X166321415Y-67561198D01*
X166171590Y-67531396D01*
X165889326Y-67414479D01*
X165635295Y-67244741D01*
X165419259Y-67028705D01*
X165249521Y-66774674D01*
X165132604Y-66492410D01*
X165073000Y-66192760D01*
X165073000Y-65887240D01*
X165080209Y-65851000D01*
X165132604Y-65587591D01*
X165132604Y-65587590D01*
X165249521Y-65305326D01*
X165419259Y-65051295D01*
X165635295Y-64835259D01*
X165889326Y-64665521D01*
X166171590Y-64548604D01*
X166321415Y-64518802D01*
X166471239Y-64489000D01*
X166776761Y-64489000D01*
X166926585Y-64518802D01*
X166926585Y-64518802D01*
G37*
G36*
X144507000Y-67545000D02*
G01*
X142005000Y-67545000D01*
X142005000Y-65043000D01*
X144507000Y-65043000D01*
X144507000Y-67545000D01*
X144507000Y-67545000D01*
G37*
G36*
X94769000Y-65051000D02*
G01*
X91667000Y-65051000D01*
X91667000Y-61949000D01*
X94769000Y-61949000D01*
X94769000Y-65051000D01*
X94769000Y-65051000D01*
G37*
G36*
X149089239Y-57695101D02*
G01*
X149325053Y-57766634D01*
X149542381Y-57882799D01*
X149732871Y-58039129D01*
X149889201Y-58229619D01*
X150005366Y-58446947D01*
X150076899Y-58682761D01*
X150101053Y-58928000D01*
X150076899Y-59173239D01*
X150005366Y-59409053D01*
X149889201Y-59626381D01*
X149732871Y-59816871D01*
X149542381Y-59973201D01*
X149325053Y-60089366D01*
X149089239Y-60160899D01*
X148905457Y-60179000D01*
X148782543Y-60179000D01*
X148598761Y-60160899D01*
X148362947Y-60089366D01*
X148145619Y-59973201D01*
X147955129Y-59816871D01*
X147798799Y-59626381D01*
X147682634Y-59409053D01*
X147611101Y-59173239D01*
X147586947Y-58928000D01*
X147611101Y-58682761D01*
X147682634Y-58446947D01*
X147798799Y-58229619D01*
X147955129Y-58039129D01*
X148145619Y-57882799D01*
X148362947Y-57766634D01*
X148598761Y-57695101D01*
X148782543Y-57677000D01*
X148905457Y-57677000D01*
X149089239Y-57695101D01*
X149089239Y-57695101D01*
G37*
G36*
X159015000Y-58363000D02*
G01*
X153913000Y-58363000D01*
X153913000Y-54761000D01*
X159015000Y-54761000D01*
X159015000Y-58363000D01*
X159015000Y-58363000D01*
G37*
G36*
X124229000Y-57161000D02*
G01*
X120627000Y-57161000D01*
X120627000Y-52059000D01*
X124229000Y-52059000D01*
X124229000Y-57161000D01*
X124229000Y-57161000D01*
G37*
G36*
X129229000Y-57161000D02*
G01*
X125627000Y-57161000D01*
X125627000Y-52059000D01*
X129229000Y-52059000D01*
X129229000Y-57161000D01*
X129229000Y-57161000D01*
G37*
G36*
X149641000Y-55969000D02*
G01*
X147539000Y-55969000D01*
X147539000Y-54267000D01*
X149641000Y-54267000D01*
X149641000Y-55969000D01*
X149641000Y-55969000D01*
G37*
G36*
X109501000Y-55653000D02*
G01*
X106399000Y-55653000D01*
X106399000Y-52551000D01*
X109501000Y-52551000D01*
X109501000Y-55653000D01*
X109501000Y-55653000D01*
G37*
G36*
X103172585Y-52580802D02*
G01*
X103322410Y-52610604D01*
X103604674Y-52727521D01*
X103858705Y-52897259D01*
X104074741Y-53113295D01*
X104244479Y-53367326D01*
X104361396Y-53649590D01*
X104421000Y-53949240D01*
X104421000Y-54254760D01*
X104361396Y-54554410D01*
X104244479Y-54836674D01*
X104074741Y-55090705D01*
X103858705Y-55306741D01*
X103604674Y-55476479D01*
X103322410Y-55593396D01*
X103172585Y-55623198D01*
X103022761Y-55653000D01*
X102717239Y-55653000D01*
X102567415Y-55623198D01*
X102417590Y-55593396D01*
X102135326Y-55476479D01*
X101881295Y-55306741D01*
X101665259Y-55090705D01*
X101495521Y-54836674D01*
X101378604Y-54554410D01*
X101319000Y-54254760D01*
X101319000Y-53949240D01*
X101378604Y-53649590D01*
X101495521Y-53367326D01*
X101665259Y-53113295D01*
X101881295Y-52897259D01*
X102135326Y-52727521D01*
X102417590Y-52610604D01*
X102567415Y-52580802D01*
X102717239Y-52551000D01*
X103022761Y-52551000D01*
X103172585Y-52580802D01*
X103172585Y-52580802D01*
G37*
G36*
X149641000Y-53429000D02*
G01*
X147539000Y-53429000D01*
X147539000Y-51727000D01*
X149641000Y-51727000D01*
X149641000Y-53429000D01*
X149641000Y-53429000D01*
G37*
G36*
X159015000Y-53363000D02*
G01*
X153913000Y-53363000D01*
X153913000Y-49761000D01*
X159015000Y-49761000D01*
X159015000Y-53363000D01*
X159015000Y-53363000D01*
G37*
G36*
X143501239Y-49821101D02*
G01*
X143737053Y-49892634D01*
X143954381Y-50008799D01*
X144144871Y-50165129D01*
X144301201Y-50355619D01*
X144417366Y-50572947D01*
X144488899Y-50808761D01*
X144513053Y-51054000D01*
X144488899Y-51299239D01*
X144417366Y-51535053D01*
X144301201Y-51752381D01*
X144144871Y-51942871D01*
X143954381Y-52099201D01*
X143737053Y-52215366D01*
X143501239Y-52286899D01*
X143317457Y-52305000D01*
X143194543Y-52305000D01*
X143010761Y-52286899D01*
X142774947Y-52215366D01*
X142557619Y-52099201D01*
X142367129Y-51942871D01*
X142210799Y-51752381D01*
X142094634Y-51535053D01*
X142023101Y-51299239D01*
X141998947Y-51054000D01*
X142023101Y-50808761D01*
X142094634Y-50572947D01*
X142210799Y-50355619D01*
X142367129Y-50165129D01*
X142557619Y-50008799D01*
X142774947Y-49892634D01*
X143010761Y-49821101D01*
X143194543Y-49803000D01*
X143317457Y-49803000D01*
X143501239Y-49821101D01*
X143501239Y-49821101D01*
G37*
M02*
