G04 #@! TF.GenerationSoftware,KiCad,Pcbnew,(5.1.2)-2*
G04 #@! TF.CreationDate,2020-01-26T17:06:09+07:00*
G04 #@! TF.ProjectId,power_electronic,706f7765-725f-4656-9c65-6374726f6e69,rev?*
G04 #@! TF.SameCoordinates,Original*
G04 #@! TF.FileFunction,Legend,Top*
G04 #@! TF.FilePolarity,Positive*
%FSLAX46Y46*%
G04 Gerber Fmt 4.6, Leading zero omitted, Abs format (unit mm)*
G04 Created by KiCad (PCBNEW (5.1.2)-2) date 2020-01-26 17:06:09*
%MOMM*%
%LPD*%
G04 APERTURE LIST*
%ADD10C,0.500000*%
%ADD11C,0.750000*%
%ADD12C,1.000000*%
%ADD13C,0.120000*%
%ADD14C,0.375000*%
%ADD15C,0.150000*%
G04 APERTURE END LIST*
D10*
X86124666Y-139080761D02*
X86124666Y-137080761D01*
X86600857Y-137080761D01*
X86886571Y-137176000D01*
X87077047Y-137366476D01*
X87172285Y-137556952D01*
X87267523Y-137937904D01*
X87267523Y-138223619D01*
X87172285Y-138604571D01*
X87077047Y-138795047D01*
X86886571Y-138985523D01*
X86600857Y-139080761D01*
X86124666Y-139080761D01*
X88886571Y-138985523D02*
X88696095Y-139080761D01*
X88315142Y-139080761D01*
X88124666Y-138985523D01*
X88029428Y-138795047D01*
X88029428Y-138033142D01*
X88124666Y-137842666D01*
X88315142Y-137747428D01*
X88696095Y-137747428D01*
X88886571Y-137842666D01*
X88981809Y-138033142D01*
X88981809Y-138223619D01*
X88029428Y-138414095D01*
X89743714Y-138985523D02*
X89934190Y-139080761D01*
X90315142Y-139080761D01*
X90505619Y-138985523D01*
X90600857Y-138795047D01*
X90600857Y-138699809D01*
X90505619Y-138509333D01*
X90315142Y-138414095D01*
X90029428Y-138414095D01*
X89838952Y-138318857D01*
X89743714Y-138128380D01*
X89743714Y-138033142D01*
X89838952Y-137842666D01*
X90029428Y-137747428D01*
X90315142Y-137747428D01*
X90505619Y-137842666D01*
X91458000Y-139080761D02*
X91458000Y-137747428D01*
X91458000Y-137080761D02*
X91362761Y-137176000D01*
X91458000Y-137271238D01*
X91553238Y-137176000D01*
X91458000Y-137080761D01*
X91458000Y-137271238D01*
X93267523Y-137747428D02*
X93267523Y-139366476D01*
X93172285Y-139556952D01*
X93077047Y-139652190D01*
X92886571Y-139747428D01*
X92600857Y-139747428D01*
X92410380Y-139652190D01*
X93267523Y-138985523D02*
X93077047Y-139080761D01*
X92696095Y-139080761D01*
X92505619Y-138985523D01*
X92410380Y-138890285D01*
X92315142Y-138699809D01*
X92315142Y-138128380D01*
X92410380Y-137937904D01*
X92505619Y-137842666D01*
X92696095Y-137747428D01*
X93077047Y-137747428D01*
X93267523Y-137842666D01*
X94219904Y-137747428D02*
X94219904Y-139080761D01*
X94219904Y-137937904D02*
X94315142Y-137842666D01*
X94505619Y-137747428D01*
X94791333Y-137747428D01*
X94981809Y-137842666D01*
X95077047Y-138033142D01*
X95077047Y-139080761D01*
X96791333Y-138985523D02*
X96600857Y-139080761D01*
X96219904Y-139080761D01*
X96029428Y-138985523D01*
X95934190Y-138795047D01*
X95934190Y-138033142D01*
X96029428Y-137842666D01*
X96219904Y-137747428D01*
X96600857Y-137747428D01*
X96791333Y-137842666D01*
X96886571Y-138033142D01*
X96886571Y-138223619D01*
X95934190Y-138414095D01*
X98600857Y-139080761D02*
X98600857Y-137080761D01*
X98600857Y-138985523D02*
X98410380Y-139080761D01*
X98029428Y-139080761D01*
X97838952Y-138985523D01*
X97743714Y-138890285D01*
X97648476Y-138699809D01*
X97648476Y-138128380D01*
X97743714Y-137937904D01*
X97838952Y-137842666D01*
X98029428Y-137747428D01*
X98410380Y-137747428D01*
X98600857Y-137842666D01*
X101077047Y-139080761D02*
X101077047Y-137080761D01*
X101077047Y-137842666D02*
X101267523Y-137747428D01*
X101648476Y-137747428D01*
X101838952Y-137842666D01*
X101934190Y-137937904D01*
X102029428Y-138128380D01*
X102029428Y-138699809D01*
X101934190Y-138890285D01*
X101838952Y-138985523D01*
X101648476Y-139080761D01*
X101267523Y-139080761D01*
X101077047Y-138985523D01*
X102696095Y-137747428D02*
X103172285Y-139080761D01*
X103648476Y-137747428D02*
X103172285Y-139080761D01*
X102981809Y-139556952D01*
X102886571Y-139652190D01*
X102696095Y-139747428D01*
X104410380Y-138890285D02*
X104505619Y-138985523D01*
X104410380Y-139080761D01*
X104315142Y-138985523D01*
X104410380Y-138890285D01*
X104410380Y-139080761D01*
X104410380Y-137842666D02*
X104505619Y-137937904D01*
X104410380Y-138033142D01*
X104315142Y-137937904D01*
X104410380Y-137842666D01*
X104410380Y-138033142D01*
X106600857Y-137080761D02*
X107743714Y-137080761D01*
X107172285Y-139080761D02*
X107172285Y-137080761D01*
X109267523Y-139080761D02*
X109267523Y-138033142D01*
X109172285Y-137842666D01*
X108981809Y-137747428D01*
X108600857Y-137747428D01*
X108410380Y-137842666D01*
X109267523Y-138985523D02*
X109077047Y-139080761D01*
X108600857Y-139080761D01*
X108410380Y-138985523D01*
X108315142Y-138795047D01*
X108315142Y-138604571D01*
X108410380Y-138414095D01*
X108600857Y-138318857D01*
X109077047Y-138318857D01*
X109267523Y-138223619D01*
X111077047Y-139080761D02*
X111077047Y-137080761D01*
X111077047Y-138985523D02*
X110886571Y-139080761D01*
X110505619Y-139080761D01*
X110315142Y-138985523D01*
X110219904Y-138890285D01*
X110124666Y-138699809D01*
X110124666Y-138128380D01*
X110219904Y-137937904D01*
X110315142Y-137842666D01*
X110505619Y-137747428D01*
X110886571Y-137747428D01*
X111077047Y-137842666D01*
X112886571Y-139080761D02*
X112886571Y-138033142D01*
X112791333Y-137842666D01*
X112600857Y-137747428D01*
X112219904Y-137747428D01*
X112029428Y-137842666D01*
X112886571Y-138985523D02*
X112696095Y-139080761D01*
X112219904Y-139080761D01*
X112029428Y-138985523D01*
X111934190Y-138795047D01*
X111934190Y-138604571D01*
X112029428Y-138414095D01*
X112219904Y-138318857D01*
X112696095Y-138318857D01*
X112886571Y-138223619D01*
X113743714Y-138985523D02*
X113934190Y-139080761D01*
X114315142Y-139080761D01*
X114505619Y-138985523D01*
X114600857Y-138795047D01*
X114600857Y-138699809D01*
X114505619Y-138509333D01*
X114315142Y-138414095D01*
X114029428Y-138414095D01*
X113838952Y-138318857D01*
X113743714Y-138128380D01*
X113743714Y-138033142D01*
X113838952Y-137842666D01*
X114029428Y-137747428D01*
X114315142Y-137747428D01*
X114505619Y-137842666D01*
X115458000Y-139080761D02*
X115458000Y-137080761D01*
X116315142Y-139080761D02*
X116315142Y-138033142D01*
X116219904Y-137842666D01*
X116029428Y-137747428D01*
X115743714Y-137747428D01*
X115553238Y-137842666D01*
X115458000Y-137937904D01*
X117267523Y-139080761D02*
X117267523Y-137747428D01*
X117267523Y-137080761D02*
X117172285Y-137176000D01*
X117267523Y-137271238D01*
X117362761Y-137176000D01*
X117267523Y-137080761D01*
X117267523Y-137271238D01*
X119743714Y-139080761D02*
X119743714Y-137080761D01*
X119743714Y-138033142D02*
X120886571Y-138033142D01*
X120886571Y-139080761D02*
X120886571Y-137080761D01*
X122696095Y-139080761D02*
X122696095Y-138033142D01*
X122600857Y-137842666D01*
X122410380Y-137747428D01*
X122029428Y-137747428D01*
X121838952Y-137842666D01*
X122696095Y-138985523D02*
X122505619Y-139080761D01*
X122029428Y-139080761D01*
X121838952Y-138985523D01*
X121743714Y-138795047D01*
X121743714Y-138604571D01*
X121838952Y-138414095D01*
X122029428Y-138318857D01*
X122505619Y-138318857D01*
X122696095Y-138223619D01*
X123648476Y-139080761D02*
X123648476Y-137747428D01*
X123648476Y-137937904D02*
X123743714Y-137842666D01*
X123934190Y-137747428D01*
X124219904Y-137747428D01*
X124410380Y-137842666D01*
X124505619Y-138033142D01*
X124505619Y-139080761D01*
X124505619Y-138033142D02*
X124600857Y-137842666D01*
X124791333Y-137747428D01*
X125077047Y-137747428D01*
X125267523Y-137842666D01*
X125362761Y-138033142D01*
X125362761Y-139080761D01*
X127172285Y-139080761D02*
X127172285Y-138033142D01*
X127077047Y-137842666D01*
X126886571Y-137747428D01*
X126505619Y-137747428D01*
X126315142Y-137842666D01*
X127172285Y-138985523D02*
X126981809Y-139080761D01*
X126505619Y-139080761D01*
X126315142Y-138985523D01*
X126219904Y-138795047D01*
X126219904Y-138604571D01*
X126315142Y-138414095D01*
X126505619Y-138318857D01*
X126981809Y-138318857D01*
X127172285Y-138223619D01*
X128981809Y-139080761D02*
X128981809Y-137080761D01*
X128981809Y-138985523D02*
X128791333Y-139080761D01*
X128410380Y-139080761D01*
X128219904Y-138985523D01*
X128124666Y-138890285D01*
X128029428Y-138699809D01*
X128029428Y-138128380D01*
X128124666Y-137937904D01*
X128219904Y-137842666D01*
X128410380Y-137747428D01*
X128791333Y-137747428D01*
X128981809Y-137842666D01*
X130791333Y-139080761D02*
X130791333Y-138033142D01*
X130696095Y-137842666D01*
X130505619Y-137747428D01*
X130124666Y-137747428D01*
X129934190Y-137842666D01*
X130791333Y-138985523D02*
X130600857Y-139080761D01*
X130124666Y-139080761D01*
X129934190Y-138985523D01*
X129838952Y-138795047D01*
X129838952Y-138604571D01*
X129934190Y-138414095D01*
X130124666Y-138318857D01*
X130600857Y-138318857D01*
X130791333Y-138223619D01*
X166735428Y-136025142D02*
X167735428Y-139025142D01*
X168735428Y-136025142D01*
X171306857Y-139025142D02*
X169592571Y-139025142D01*
X170449714Y-139025142D02*
X170449714Y-136025142D01*
X170164000Y-136453714D01*
X169878285Y-136739428D01*
X169592571Y-136882285D01*
X106807142Y-48474285D02*
X109092857Y-48474285D01*
X107950000Y-49617142D02*
X107950000Y-47331428D01*
X101727142Y-48728285D02*
X104012857Y-48728285D01*
X86360095Y-78628857D02*
X87883904Y-78628857D01*
X87122000Y-79390761D02*
X87122000Y-77866952D01*
X87264857Y-74675904D02*
X87264857Y-73152095D01*
X86614095Y-68468857D02*
X88137904Y-68468857D01*
X87376000Y-69230761D02*
X87376000Y-67706952D01*
X87264857Y-64261904D02*
X87264857Y-62738095D01*
X118016000Y-63642761D02*
X118016000Y-61642761D01*
X118682666Y-63071333D01*
X119349333Y-61642761D01*
X119349333Y-63642761D01*
X121158857Y-63642761D02*
X121158857Y-62595142D01*
X121063619Y-62404666D01*
X120873142Y-62309428D01*
X120492190Y-62309428D01*
X120301714Y-62404666D01*
X121158857Y-63547523D02*
X120968380Y-63642761D01*
X120492190Y-63642761D01*
X120301714Y-63547523D01*
X120206476Y-63357047D01*
X120206476Y-63166571D01*
X120301714Y-62976095D01*
X120492190Y-62880857D01*
X120968380Y-62880857D01*
X121158857Y-62785619D01*
X122016000Y-63547523D02*
X122206476Y-63642761D01*
X122587428Y-63642761D01*
X122777904Y-63547523D01*
X122873142Y-63357047D01*
X122873142Y-63261809D01*
X122777904Y-63071333D01*
X122587428Y-62976095D01*
X122301714Y-62976095D01*
X122111238Y-62880857D01*
X122016000Y-62690380D01*
X122016000Y-62595142D01*
X122111238Y-62404666D01*
X122301714Y-62309428D01*
X122587428Y-62309428D01*
X122777904Y-62404666D01*
X123444571Y-62309428D02*
X124206476Y-62309428D01*
X123730285Y-61642761D02*
X123730285Y-63357047D01*
X123825523Y-63547523D01*
X124016000Y-63642761D01*
X124206476Y-63642761D01*
X125635047Y-63547523D02*
X125444571Y-63642761D01*
X125063619Y-63642761D01*
X124873142Y-63547523D01*
X124777904Y-63357047D01*
X124777904Y-62595142D01*
X124873142Y-62404666D01*
X125063619Y-62309428D01*
X125444571Y-62309428D01*
X125635047Y-62404666D01*
X125730285Y-62595142D01*
X125730285Y-62785619D01*
X124777904Y-62976095D01*
X126587428Y-63642761D02*
X126587428Y-62309428D01*
X126587428Y-62690380D02*
X126682666Y-62499904D01*
X126777904Y-62404666D01*
X126968380Y-62309428D01*
X127158857Y-62309428D01*
X129254095Y-63547523D02*
X129539809Y-63642761D01*
X130016000Y-63642761D01*
X130206476Y-63547523D01*
X130301714Y-63452285D01*
X130396952Y-63261809D01*
X130396952Y-63071333D01*
X130301714Y-62880857D01*
X130206476Y-62785619D01*
X130016000Y-62690380D01*
X129635047Y-62595142D01*
X129444571Y-62499904D01*
X129349333Y-62404666D01*
X129254095Y-62214190D01*
X129254095Y-62023714D01*
X129349333Y-61833238D01*
X129444571Y-61738000D01*
X129635047Y-61642761D01*
X130111238Y-61642761D01*
X130396952Y-61738000D01*
X131063619Y-62309428D02*
X131444571Y-63642761D01*
X131825523Y-62690380D01*
X132206476Y-63642761D01*
X132587428Y-62309428D01*
X133349333Y-63642761D02*
X133349333Y-62309428D01*
X133349333Y-61642761D02*
X133254095Y-61738000D01*
X133349333Y-61833238D01*
X133444571Y-61738000D01*
X133349333Y-61642761D01*
X133349333Y-61833238D01*
X134016000Y-62309428D02*
X134777904Y-62309428D01*
X134301714Y-61642761D02*
X134301714Y-63357047D01*
X134396952Y-63547523D01*
X134587428Y-63642761D01*
X134777904Y-63642761D01*
X136301714Y-63547523D02*
X136111238Y-63642761D01*
X135730285Y-63642761D01*
X135539809Y-63547523D01*
X135444571Y-63452285D01*
X135349333Y-63261809D01*
X135349333Y-62690380D01*
X135444571Y-62499904D01*
X135539809Y-62404666D01*
X135730285Y-62309428D01*
X136111238Y-62309428D01*
X136301714Y-62404666D01*
X137158857Y-63642761D02*
X137158857Y-61642761D01*
X138016000Y-63642761D02*
X138016000Y-62595142D01*
X137920761Y-62404666D01*
X137730285Y-62309428D01*
X137444571Y-62309428D01*
X137254095Y-62404666D01*
X137158857Y-62499904D01*
X170815142Y-66254285D02*
X173100857Y-66254285D01*
X171958000Y-67397142D02*
X171958000Y-65111428D01*
X171918285Y-72262857D02*
X171918285Y-69977142D01*
X170815142Y-76414285D02*
X173100857Y-76414285D01*
X171958000Y-77557142D02*
X171958000Y-75271428D01*
X171918285Y-82168857D02*
X171918285Y-79883142D01*
X162480761Y-101948761D02*
X162480761Y-102901142D01*
X163433142Y-102996380D01*
X163337904Y-102901142D01*
X163242666Y-102710666D01*
X163242666Y-102234476D01*
X163337904Y-102044000D01*
X163433142Y-101948761D01*
X163623619Y-101853523D01*
X164099809Y-101853523D01*
X164290285Y-101948761D01*
X164385523Y-102044000D01*
X164480761Y-102234476D01*
X164480761Y-102710666D01*
X164385523Y-102901142D01*
X164290285Y-102996380D01*
X162480761Y-101282095D02*
X164480761Y-100615428D01*
X162480761Y-99948761D01*
X162480761Y-97377333D02*
X162480761Y-96996380D01*
X162576000Y-96805904D01*
X162766476Y-96615428D01*
X163147428Y-96520190D01*
X163814095Y-96520190D01*
X164195047Y-96615428D01*
X164385523Y-96805904D01*
X164480761Y-96996380D01*
X164480761Y-97377333D01*
X164385523Y-97567809D01*
X164195047Y-97758285D01*
X163814095Y-97853523D01*
X163147428Y-97853523D01*
X162766476Y-97758285D01*
X162576000Y-97567809D01*
X162480761Y-97377333D01*
X163433142Y-94996380D02*
X163433142Y-95663047D01*
X164480761Y-95663047D02*
X162480761Y-95663047D01*
X162480761Y-94710666D01*
X163433142Y-93282095D02*
X163433142Y-93948761D01*
X164480761Y-93948761D02*
X162480761Y-93948761D01*
X162480761Y-92996380D01*
D11*
X170902285Y-126618857D02*
X170902285Y-124333142D01*
X169799142Y-120610285D02*
X172084857Y-120610285D01*
X170942000Y-121753142D02*
X170942000Y-119467428D01*
X169799142Y-110704285D02*
X172084857Y-110704285D01*
X170942000Y-111847142D02*
X170942000Y-109561428D01*
X170902285Y-116204857D02*
X170902285Y-113919142D01*
X85217142Y-126452285D02*
X87502857Y-126452285D01*
X86360000Y-127595142D02*
X86360000Y-125309428D01*
X86320285Y-122300857D02*
X86320285Y-120015142D01*
X85217142Y-116292285D02*
X87502857Y-116292285D01*
X86360000Y-117435142D02*
X86360000Y-115149428D01*
X86574285Y-112394857D02*
X86574285Y-110109142D01*
D12*
X102459142Y-132365523D02*
X102459142Y-128365523D01*
X103792476Y-131222666D01*
X105125809Y-128365523D01*
X105125809Y-132365523D01*
X107602000Y-132365523D02*
X107221047Y-132175047D01*
X107030571Y-131984571D01*
X106840095Y-131603619D01*
X106840095Y-130460761D01*
X107030571Y-130079809D01*
X107221047Y-129889333D01*
X107602000Y-129698857D01*
X108173428Y-129698857D01*
X108554380Y-129889333D01*
X108744857Y-130079809D01*
X108935333Y-130460761D01*
X108935333Y-131603619D01*
X108744857Y-131984571D01*
X108554380Y-132175047D01*
X108173428Y-132365523D01*
X107602000Y-132365523D01*
X110649619Y-129698857D02*
X110649619Y-132365523D01*
X110649619Y-130079809D02*
X110840095Y-129889333D01*
X111221047Y-129698857D01*
X111792476Y-129698857D01*
X112173428Y-129889333D01*
X112363904Y-130270285D01*
X112363904Y-132365523D01*
X114078190Y-132175047D02*
X114459142Y-132365523D01*
X115221047Y-132365523D01*
X115602000Y-132175047D01*
X115792476Y-131794095D01*
X115792476Y-131603619D01*
X115602000Y-131222666D01*
X115221047Y-131032190D01*
X114649619Y-131032190D01*
X114268666Y-130841714D01*
X114078190Y-130460761D01*
X114078190Y-130270285D01*
X114268666Y-129889333D01*
X114649619Y-129698857D01*
X115221047Y-129698857D01*
X115602000Y-129889333D01*
X116935333Y-129698857D02*
X118459142Y-129698857D01*
X117506761Y-128365523D02*
X117506761Y-131794095D01*
X117697238Y-132175047D01*
X118078190Y-132365523D01*
X118459142Y-132365523D01*
X121316285Y-132175047D02*
X120935333Y-132365523D01*
X120173428Y-132365523D01*
X119792476Y-132175047D01*
X119602000Y-131794095D01*
X119602000Y-130270285D01*
X119792476Y-129889333D01*
X120173428Y-129698857D01*
X120935333Y-129698857D01*
X121316285Y-129889333D01*
X121506761Y-130270285D01*
X121506761Y-130651238D01*
X119602000Y-131032190D01*
X123221047Y-132365523D02*
X123221047Y-129698857D01*
X123221047Y-130460761D02*
X123411523Y-130079809D01*
X123602000Y-129889333D01*
X123982952Y-129698857D01*
X124363904Y-129698857D01*
X125697238Y-132365523D02*
X125697238Y-128365523D01*
X127030571Y-128365523D02*
X129316285Y-128365523D01*
X128173428Y-132365523D02*
X128173428Y-128365523D01*
X132935333Y-131984571D02*
X132744857Y-132175047D01*
X132173428Y-132365523D01*
X131792476Y-132365523D01*
X131221047Y-132175047D01*
X130840095Y-131794095D01*
X130649619Y-131413142D01*
X130459142Y-130651238D01*
X130459142Y-130079809D01*
X130649619Y-129317904D01*
X130840095Y-128936952D01*
X131221047Y-128556000D01*
X131792476Y-128365523D01*
X132173428Y-128365523D01*
X132744857Y-128556000D01*
X132935333Y-128746476D01*
D13*
X87630000Y-84582000D02*
X97630000Y-84582000D01*
X87630000Y-84582000D02*
X87630000Y-99568000D01*
X87630000Y-99568000D02*
X97790000Y-99568000D01*
X97790000Y-99568000D02*
X97790000Y-84582000D01*
X97790000Y-84582000D02*
X97630000Y-84582000D01*
X145098000Y-105664000D02*
G75*
G03X145098000Y-105664000I-2620000J0D01*
G01*
X142478000Y-106704000D02*
X142478000Y-108244000D01*
X142478000Y-103084000D02*
X142478000Y-104624000D01*
X142518000Y-106704000D02*
X142518000Y-108244000D01*
X142518000Y-103084000D02*
X142518000Y-104624000D01*
X142558000Y-103085000D02*
X142558000Y-104624000D01*
X142558000Y-106704000D02*
X142558000Y-108243000D01*
X142598000Y-103086000D02*
X142598000Y-104624000D01*
X142598000Y-106704000D02*
X142598000Y-108242000D01*
X142638000Y-103088000D02*
X142638000Y-104624000D01*
X142638000Y-106704000D02*
X142638000Y-108240000D01*
X142678000Y-103091000D02*
X142678000Y-104624000D01*
X142678000Y-106704000D02*
X142678000Y-108237000D01*
X142718000Y-103095000D02*
X142718000Y-104624000D01*
X142718000Y-106704000D02*
X142718000Y-108233000D01*
X142758000Y-103099000D02*
X142758000Y-104624000D01*
X142758000Y-106704000D02*
X142758000Y-108229000D01*
X142798000Y-103103000D02*
X142798000Y-104624000D01*
X142798000Y-106704000D02*
X142798000Y-108225000D01*
X142838000Y-103108000D02*
X142838000Y-104624000D01*
X142838000Y-106704000D02*
X142838000Y-108220000D01*
X142878000Y-103114000D02*
X142878000Y-104624000D01*
X142878000Y-106704000D02*
X142878000Y-108214000D01*
X142918000Y-103121000D02*
X142918000Y-104624000D01*
X142918000Y-106704000D02*
X142918000Y-108207000D01*
X142958000Y-103128000D02*
X142958000Y-104624000D01*
X142958000Y-106704000D02*
X142958000Y-108200000D01*
X142998000Y-103136000D02*
X142998000Y-104624000D01*
X142998000Y-106704000D02*
X142998000Y-108192000D01*
X143038000Y-103144000D02*
X143038000Y-104624000D01*
X143038000Y-106704000D02*
X143038000Y-108184000D01*
X143078000Y-103153000D02*
X143078000Y-104624000D01*
X143078000Y-106704000D02*
X143078000Y-108175000D01*
X143118000Y-103163000D02*
X143118000Y-104624000D01*
X143118000Y-106704000D02*
X143118000Y-108165000D01*
X143158000Y-103173000D02*
X143158000Y-104624000D01*
X143158000Y-106704000D02*
X143158000Y-108155000D01*
X143199000Y-103184000D02*
X143199000Y-104624000D01*
X143199000Y-106704000D02*
X143199000Y-108144000D01*
X143239000Y-103196000D02*
X143239000Y-104624000D01*
X143239000Y-106704000D02*
X143239000Y-108132000D01*
X143279000Y-103209000D02*
X143279000Y-104624000D01*
X143279000Y-106704000D02*
X143279000Y-108119000D01*
X143319000Y-103222000D02*
X143319000Y-104624000D01*
X143319000Y-106704000D02*
X143319000Y-108106000D01*
X143359000Y-103236000D02*
X143359000Y-104624000D01*
X143359000Y-106704000D02*
X143359000Y-108092000D01*
X143399000Y-103250000D02*
X143399000Y-104624000D01*
X143399000Y-106704000D02*
X143399000Y-108078000D01*
X143439000Y-103266000D02*
X143439000Y-104624000D01*
X143439000Y-106704000D02*
X143439000Y-108062000D01*
X143479000Y-103282000D02*
X143479000Y-104624000D01*
X143479000Y-106704000D02*
X143479000Y-108046000D01*
X143519000Y-103299000D02*
X143519000Y-104624000D01*
X143519000Y-106704000D02*
X143519000Y-108029000D01*
X143559000Y-103316000D02*
X143559000Y-104624000D01*
X143559000Y-106704000D02*
X143559000Y-108012000D01*
X143599000Y-103335000D02*
X143599000Y-104624000D01*
X143599000Y-106704000D02*
X143599000Y-107993000D01*
X143639000Y-103354000D02*
X143639000Y-104624000D01*
X143639000Y-106704000D02*
X143639000Y-107974000D01*
X143679000Y-103374000D02*
X143679000Y-104624000D01*
X143679000Y-106704000D02*
X143679000Y-107954000D01*
X143719000Y-103396000D02*
X143719000Y-104624000D01*
X143719000Y-106704000D02*
X143719000Y-107932000D01*
X143759000Y-103417000D02*
X143759000Y-104624000D01*
X143759000Y-106704000D02*
X143759000Y-107911000D01*
X143799000Y-103440000D02*
X143799000Y-104624000D01*
X143799000Y-106704000D02*
X143799000Y-107888000D01*
X143839000Y-103464000D02*
X143839000Y-104624000D01*
X143839000Y-106704000D02*
X143839000Y-107864000D01*
X143879000Y-103489000D02*
X143879000Y-104624000D01*
X143879000Y-106704000D02*
X143879000Y-107839000D01*
X143919000Y-103515000D02*
X143919000Y-104624000D01*
X143919000Y-106704000D02*
X143919000Y-107813000D01*
X143959000Y-103542000D02*
X143959000Y-104624000D01*
X143959000Y-106704000D02*
X143959000Y-107786000D01*
X143999000Y-103569000D02*
X143999000Y-104624000D01*
X143999000Y-106704000D02*
X143999000Y-107759000D01*
X144039000Y-103599000D02*
X144039000Y-104624000D01*
X144039000Y-106704000D02*
X144039000Y-107729000D01*
X144079000Y-103629000D02*
X144079000Y-104624000D01*
X144079000Y-106704000D02*
X144079000Y-107699000D01*
X144119000Y-103660000D02*
X144119000Y-104624000D01*
X144119000Y-106704000D02*
X144119000Y-107668000D01*
X144159000Y-103693000D02*
X144159000Y-104624000D01*
X144159000Y-106704000D02*
X144159000Y-107635000D01*
X144199000Y-103727000D02*
X144199000Y-104624000D01*
X144199000Y-106704000D02*
X144199000Y-107601000D01*
X144239000Y-103763000D02*
X144239000Y-104624000D01*
X144239000Y-106704000D02*
X144239000Y-107565000D01*
X144279000Y-103800000D02*
X144279000Y-104624000D01*
X144279000Y-106704000D02*
X144279000Y-107528000D01*
X144319000Y-103838000D02*
X144319000Y-104624000D01*
X144319000Y-106704000D02*
X144319000Y-107490000D01*
X144359000Y-103879000D02*
X144359000Y-104624000D01*
X144359000Y-106704000D02*
X144359000Y-107449000D01*
X144399000Y-103921000D02*
X144399000Y-104624000D01*
X144399000Y-106704000D02*
X144399000Y-107407000D01*
X144439000Y-103965000D02*
X144439000Y-104624000D01*
X144439000Y-106704000D02*
X144439000Y-107363000D01*
X144479000Y-104011000D02*
X144479000Y-104624000D01*
X144479000Y-106704000D02*
X144479000Y-107317000D01*
X144519000Y-104059000D02*
X144519000Y-107269000D01*
X144559000Y-104110000D02*
X144559000Y-107218000D01*
X144599000Y-104164000D02*
X144599000Y-107164000D01*
X144639000Y-104221000D02*
X144639000Y-107107000D01*
X144679000Y-104281000D02*
X144679000Y-107047000D01*
X144719000Y-104345000D02*
X144719000Y-106983000D01*
X144759000Y-104413000D02*
X144759000Y-106915000D01*
X144799000Y-104486000D02*
X144799000Y-106842000D01*
X144839000Y-104566000D02*
X144839000Y-106762000D01*
X144879000Y-104653000D02*
X144879000Y-106675000D01*
X144919000Y-104749000D02*
X144919000Y-106579000D01*
X144959000Y-104859000D02*
X144959000Y-106469000D01*
X144999000Y-104987000D02*
X144999000Y-106341000D01*
X145039000Y-105146000D02*
X145039000Y-106182000D01*
X145079000Y-105380000D02*
X145079000Y-105948000D01*
X139673225Y-104189000D02*
X140173225Y-104189000D01*
X139923225Y-103939000D02*
X139923225Y-104439000D01*
X141023000Y-79786775D02*
X141523000Y-79786775D01*
X141273000Y-80036775D02*
X141273000Y-79536775D01*
X142464000Y-74631000D02*
X143032000Y-74631000D01*
X142230000Y-74671000D02*
X143266000Y-74671000D01*
X142071000Y-74711000D02*
X143425000Y-74711000D01*
X141943000Y-74751000D02*
X143553000Y-74751000D01*
X141833000Y-74791000D02*
X143663000Y-74791000D01*
X141737000Y-74831000D02*
X143759000Y-74831000D01*
X141650000Y-74871000D02*
X143846000Y-74871000D01*
X141570000Y-74911000D02*
X143926000Y-74911000D01*
X141497000Y-74951000D02*
X143999000Y-74951000D01*
X141429000Y-74991000D02*
X144067000Y-74991000D01*
X141365000Y-75031000D02*
X144131000Y-75031000D01*
X141305000Y-75071000D02*
X144191000Y-75071000D01*
X141248000Y-75111000D02*
X144248000Y-75111000D01*
X141194000Y-75151000D02*
X144302000Y-75151000D01*
X141143000Y-75191000D02*
X144353000Y-75191000D01*
X143788000Y-75231000D02*
X144401000Y-75231000D01*
X141095000Y-75231000D02*
X141708000Y-75231000D01*
X143788000Y-75271000D02*
X144447000Y-75271000D01*
X141049000Y-75271000D02*
X141708000Y-75271000D01*
X143788000Y-75311000D02*
X144491000Y-75311000D01*
X141005000Y-75311000D02*
X141708000Y-75311000D01*
X143788000Y-75351000D02*
X144533000Y-75351000D01*
X140963000Y-75351000D02*
X141708000Y-75351000D01*
X143788000Y-75391000D02*
X144574000Y-75391000D01*
X140922000Y-75391000D02*
X141708000Y-75391000D01*
X143788000Y-75431000D02*
X144612000Y-75431000D01*
X140884000Y-75431000D02*
X141708000Y-75431000D01*
X143788000Y-75471000D02*
X144649000Y-75471000D01*
X140847000Y-75471000D02*
X141708000Y-75471000D01*
X143788000Y-75511000D02*
X144685000Y-75511000D01*
X140811000Y-75511000D02*
X141708000Y-75511000D01*
X143788000Y-75551000D02*
X144719000Y-75551000D01*
X140777000Y-75551000D02*
X141708000Y-75551000D01*
X143788000Y-75591000D02*
X144752000Y-75591000D01*
X140744000Y-75591000D02*
X141708000Y-75591000D01*
X143788000Y-75631000D02*
X144783000Y-75631000D01*
X140713000Y-75631000D02*
X141708000Y-75631000D01*
X143788000Y-75671000D02*
X144813000Y-75671000D01*
X140683000Y-75671000D02*
X141708000Y-75671000D01*
X143788000Y-75711000D02*
X144843000Y-75711000D01*
X140653000Y-75711000D02*
X141708000Y-75711000D01*
X143788000Y-75751000D02*
X144870000Y-75751000D01*
X140626000Y-75751000D02*
X141708000Y-75751000D01*
X143788000Y-75791000D02*
X144897000Y-75791000D01*
X140599000Y-75791000D02*
X141708000Y-75791000D01*
X143788000Y-75831000D02*
X144923000Y-75831000D01*
X140573000Y-75831000D02*
X141708000Y-75831000D01*
X143788000Y-75871000D02*
X144948000Y-75871000D01*
X140548000Y-75871000D02*
X141708000Y-75871000D01*
X143788000Y-75911000D02*
X144972000Y-75911000D01*
X140524000Y-75911000D02*
X141708000Y-75911000D01*
X143788000Y-75951000D02*
X144995000Y-75951000D01*
X140501000Y-75951000D02*
X141708000Y-75951000D01*
X143788000Y-75991000D02*
X145016000Y-75991000D01*
X140480000Y-75991000D02*
X141708000Y-75991000D01*
X143788000Y-76031000D02*
X145038000Y-76031000D01*
X140458000Y-76031000D02*
X141708000Y-76031000D01*
X143788000Y-76071000D02*
X145058000Y-76071000D01*
X140438000Y-76071000D02*
X141708000Y-76071000D01*
X143788000Y-76111000D02*
X145077000Y-76111000D01*
X140419000Y-76111000D02*
X141708000Y-76111000D01*
X143788000Y-76151000D02*
X145096000Y-76151000D01*
X140400000Y-76151000D02*
X141708000Y-76151000D01*
X143788000Y-76191000D02*
X145113000Y-76191000D01*
X140383000Y-76191000D02*
X141708000Y-76191000D01*
X143788000Y-76231000D02*
X145130000Y-76231000D01*
X140366000Y-76231000D02*
X141708000Y-76231000D01*
X143788000Y-76271000D02*
X145146000Y-76271000D01*
X140350000Y-76271000D02*
X141708000Y-76271000D01*
X143788000Y-76311000D02*
X145162000Y-76311000D01*
X140334000Y-76311000D02*
X141708000Y-76311000D01*
X143788000Y-76351000D02*
X145176000Y-76351000D01*
X140320000Y-76351000D02*
X141708000Y-76351000D01*
X143788000Y-76391000D02*
X145190000Y-76391000D01*
X140306000Y-76391000D02*
X141708000Y-76391000D01*
X143788000Y-76431000D02*
X145203000Y-76431000D01*
X140293000Y-76431000D02*
X141708000Y-76431000D01*
X143788000Y-76471000D02*
X145216000Y-76471000D01*
X140280000Y-76471000D02*
X141708000Y-76471000D01*
X143788000Y-76511000D02*
X145228000Y-76511000D01*
X140268000Y-76511000D02*
X141708000Y-76511000D01*
X143788000Y-76552000D02*
X145239000Y-76552000D01*
X140257000Y-76552000D02*
X141708000Y-76552000D01*
X143788000Y-76592000D02*
X145249000Y-76592000D01*
X140247000Y-76592000D02*
X141708000Y-76592000D01*
X143788000Y-76632000D02*
X145259000Y-76632000D01*
X140237000Y-76632000D02*
X141708000Y-76632000D01*
X143788000Y-76672000D02*
X145268000Y-76672000D01*
X140228000Y-76672000D02*
X141708000Y-76672000D01*
X143788000Y-76712000D02*
X145276000Y-76712000D01*
X140220000Y-76712000D02*
X141708000Y-76712000D01*
X143788000Y-76752000D02*
X145284000Y-76752000D01*
X140212000Y-76752000D02*
X141708000Y-76752000D01*
X143788000Y-76792000D02*
X145291000Y-76792000D01*
X140205000Y-76792000D02*
X141708000Y-76792000D01*
X143788000Y-76832000D02*
X145298000Y-76832000D01*
X140198000Y-76832000D02*
X141708000Y-76832000D01*
X143788000Y-76872000D02*
X145304000Y-76872000D01*
X140192000Y-76872000D02*
X141708000Y-76872000D01*
X143788000Y-76912000D02*
X145309000Y-76912000D01*
X140187000Y-76912000D02*
X141708000Y-76912000D01*
X143788000Y-76952000D02*
X145313000Y-76952000D01*
X140183000Y-76952000D02*
X141708000Y-76952000D01*
X143788000Y-76992000D02*
X145317000Y-76992000D01*
X140179000Y-76992000D02*
X141708000Y-76992000D01*
X143788000Y-77032000D02*
X145321000Y-77032000D01*
X140175000Y-77032000D02*
X141708000Y-77032000D01*
X143788000Y-77072000D02*
X145324000Y-77072000D01*
X140172000Y-77072000D02*
X141708000Y-77072000D01*
X143788000Y-77112000D02*
X145326000Y-77112000D01*
X140170000Y-77112000D02*
X141708000Y-77112000D01*
X143788000Y-77152000D02*
X145327000Y-77152000D01*
X140169000Y-77152000D02*
X141708000Y-77152000D01*
X140168000Y-77192000D02*
X141708000Y-77192000D01*
X143788000Y-77192000D02*
X145328000Y-77192000D01*
X140168000Y-77232000D02*
X141708000Y-77232000D01*
X143788000Y-77232000D02*
X145328000Y-77232000D01*
X145368000Y-77232000D02*
G75*
G03X145368000Y-77232000I-2620000J0D01*
G01*
X153617000Y-123953225D02*
X153117000Y-123953225D01*
X153367000Y-123703225D02*
X153367000Y-124203225D01*
X152176000Y-129109000D02*
X151608000Y-129109000D01*
X152410000Y-129069000D02*
X151374000Y-129069000D01*
X152569000Y-129029000D02*
X151215000Y-129029000D01*
X152697000Y-128989000D02*
X151087000Y-128989000D01*
X152807000Y-128949000D02*
X150977000Y-128949000D01*
X152903000Y-128909000D02*
X150881000Y-128909000D01*
X152990000Y-128869000D02*
X150794000Y-128869000D01*
X153070000Y-128829000D02*
X150714000Y-128829000D01*
X153143000Y-128789000D02*
X150641000Y-128789000D01*
X153211000Y-128749000D02*
X150573000Y-128749000D01*
X153275000Y-128709000D02*
X150509000Y-128709000D01*
X153335000Y-128669000D02*
X150449000Y-128669000D01*
X153392000Y-128629000D02*
X150392000Y-128629000D01*
X153446000Y-128589000D02*
X150338000Y-128589000D01*
X153497000Y-128549000D02*
X150287000Y-128549000D01*
X150852000Y-128509000D02*
X150239000Y-128509000D01*
X153545000Y-128509000D02*
X152932000Y-128509000D01*
X150852000Y-128469000D02*
X150193000Y-128469000D01*
X153591000Y-128469000D02*
X152932000Y-128469000D01*
X150852000Y-128429000D02*
X150149000Y-128429000D01*
X153635000Y-128429000D02*
X152932000Y-128429000D01*
X150852000Y-128389000D02*
X150107000Y-128389000D01*
X153677000Y-128389000D02*
X152932000Y-128389000D01*
X150852000Y-128349000D02*
X150066000Y-128349000D01*
X153718000Y-128349000D02*
X152932000Y-128349000D01*
X150852000Y-128309000D02*
X150028000Y-128309000D01*
X153756000Y-128309000D02*
X152932000Y-128309000D01*
X150852000Y-128269000D02*
X149991000Y-128269000D01*
X153793000Y-128269000D02*
X152932000Y-128269000D01*
X150852000Y-128229000D02*
X149955000Y-128229000D01*
X153829000Y-128229000D02*
X152932000Y-128229000D01*
X150852000Y-128189000D02*
X149921000Y-128189000D01*
X153863000Y-128189000D02*
X152932000Y-128189000D01*
X150852000Y-128149000D02*
X149888000Y-128149000D01*
X153896000Y-128149000D02*
X152932000Y-128149000D01*
X150852000Y-128109000D02*
X149857000Y-128109000D01*
X153927000Y-128109000D02*
X152932000Y-128109000D01*
X150852000Y-128069000D02*
X149827000Y-128069000D01*
X153957000Y-128069000D02*
X152932000Y-128069000D01*
X150852000Y-128029000D02*
X149797000Y-128029000D01*
X153987000Y-128029000D02*
X152932000Y-128029000D01*
X150852000Y-127989000D02*
X149770000Y-127989000D01*
X154014000Y-127989000D02*
X152932000Y-127989000D01*
X150852000Y-127949000D02*
X149743000Y-127949000D01*
X154041000Y-127949000D02*
X152932000Y-127949000D01*
X150852000Y-127909000D02*
X149717000Y-127909000D01*
X154067000Y-127909000D02*
X152932000Y-127909000D01*
X150852000Y-127869000D02*
X149692000Y-127869000D01*
X154092000Y-127869000D02*
X152932000Y-127869000D01*
X150852000Y-127829000D02*
X149668000Y-127829000D01*
X154116000Y-127829000D02*
X152932000Y-127829000D01*
X150852000Y-127789000D02*
X149645000Y-127789000D01*
X154139000Y-127789000D02*
X152932000Y-127789000D01*
X150852000Y-127749000D02*
X149624000Y-127749000D01*
X154160000Y-127749000D02*
X152932000Y-127749000D01*
X150852000Y-127709000D02*
X149602000Y-127709000D01*
X154182000Y-127709000D02*
X152932000Y-127709000D01*
X150852000Y-127669000D02*
X149582000Y-127669000D01*
X154202000Y-127669000D02*
X152932000Y-127669000D01*
X150852000Y-127629000D02*
X149563000Y-127629000D01*
X154221000Y-127629000D02*
X152932000Y-127629000D01*
X150852000Y-127589000D02*
X149544000Y-127589000D01*
X154240000Y-127589000D02*
X152932000Y-127589000D01*
X150852000Y-127549000D02*
X149527000Y-127549000D01*
X154257000Y-127549000D02*
X152932000Y-127549000D01*
X150852000Y-127509000D02*
X149510000Y-127509000D01*
X154274000Y-127509000D02*
X152932000Y-127509000D01*
X150852000Y-127469000D02*
X149494000Y-127469000D01*
X154290000Y-127469000D02*
X152932000Y-127469000D01*
X150852000Y-127429000D02*
X149478000Y-127429000D01*
X154306000Y-127429000D02*
X152932000Y-127429000D01*
X150852000Y-127389000D02*
X149464000Y-127389000D01*
X154320000Y-127389000D02*
X152932000Y-127389000D01*
X150852000Y-127349000D02*
X149450000Y-127349000D01*
X154334000Y-127349000D02*
X152932000Y-127349000D01*
X150852000Y-127309000D02*
X149437000Y-127309000D01*
X154347000Y-127309000D02*
X152932000Y-127309000D01*
X150852000Y-127269000D02*
X149424000Y-127269000D01*
X154360000Y-127269000D02*
X152932000Y-127269000D01*
X150852000Y-127229000D02*
X149412000Y-127229000D01*
X154372000Y-127229000D02*
X152932000Y-127229000D01*
X150852000Y-127188000D02*
X149401000Y-127188000D01*
X154383000Y-127188000D02*
X152932000Y-127188000D01*
X150852000Y-127148000D02*
X149391000Y-127148000D01*
X154393000Y-127148000D02*
X152932000Y-127148000D01*
X150852000Y-127108000D02*
X149381000Y-127108000D01*
X154403000Y-127108000D02*
X152932000Y-127108000D01*
X150852000Y-127068000D02*
X149372000Y-127068000D01*
X154412000Y-127068000D02*
X152932000Y-127068000D01*
X150852000Y-127028000D02*
X149364000Y-127028000D01*
X154420000Y-127028000D02*
X152932000Y-127028000D01*
X150852000Y-126988000D02*
X149356000Y-126988000D01*
X154428000Y-126988000D02*
X152932000Y-126988000D01*
X150852000Y-126948000D02*
X149349000Y-126948000D01*
X154435000Y-126948000D02*
X152932000Y-126948000D01*
X150852000Y-126908000D02*
X149342000Y-126908000D01*
X154442000Y-126908000D02*
X152932000Y-126908000D01*
X150852000Y-126868000D02*
X149336000Y-126868000D01*
X154448000Y-126868000D02*
X152932000Y-126868000D01*
X150852000Y-126828000D02*
X149331000Y-126828000D01*
X154453000Y-126828000D02*
X152932000Y-126828000D01*
X150852000Y-126788000D02*
X149327000Y-126788000D01*
X154457000Y-126788000D02*
X152932000Y-126788000D01*
X150852000Y-126748000D02*
X149323000Y-126748000D01*
X154461000Y-126748000D02*
X152932000Y-126748000D01*
X150852000Y-126708000D02*
X149319000Y-126708000D01*
X154465000Y-126708000D02*
X152932000Y-126708000D01*
X150852000Y-126668000D02*
X149316000Y-126668000D01*
X154468000Y-126668000D02*
X152932000Y-126668000D01*
X150852000Y-126628000D02*
X149314000Y-126628000D01*
X154470000Y-126628000D02*
X152932000Y-126628000D01*
X150852000Y-126588000D02*
X149313000Y-126588000D01*
X154471000Y-126588000D02*
X152932000Y-126588000D01*
X154472000Y-126548000D02*
X152932000Y-126548000D01*
X150852000Y-126548000D02*
X149312000Y-126548000D01*
X154472000Y-126508000D02*
X152932000Y-126508000D01*
X150852000Y-126508000D02*
X149312000Y-126508000D01*
X154512000Y-126508000D02*
G75*
G03X154512000Y-126508000I-2620000J0D01*
G01*
X161370000Y-71104000D02*
G75*
G03X161370000Y-71104000I-2620000J0D01*
G01*
X157710000Y-71104000D02*
X156170000Y-71104000D01*
X161330000Y-71104000D02*
X159790000Y-71104000D01*
X157710000Y-71144000D02*
X156170000Y-71144000D01*
X161330000Y-71144000D02*
X159790000Y-71144000D01*
X161329000Y-71184000D02*
X159790000Y-71184000D01*
X157710000Y-71184000D02*
X156171000Y-71184000D01*
X161328000Y-71224000D02*
X159790000Y-71224000D01*
X157710000Y-71224000D02*
X156172000Y-71224000D01*
X161326000Y-71264000D02*
X159790000Y-71264000D01*
X157710000Y-71264000D02*
X156174000Y-71264000D01*
X161323000Y-71304000D02*
X159790000Y-71304000D01*
X157710000Y-71304000D02*
X156177000Y-71304000D01*
X161319000Y-71344000D02*
X159790000Y-71344000D01*
X157710000Y-71344000D02*
X156181000Y-71344000D01*
X161315000Y-71384000D02*
X159790000Y-71384000D01*
X157710000Y-71384000D02*
X156185000Y-71384000D01*
X161311000Y-71424000D02*
X159790000Y-71424000D01*
X157710000Y-71424000D02*
X156189000Y-71424000D01*
X161306000Y-71464000D02*
X159790000Y-71464000D01*
X157710000Y-71464000D02*
X156194000Y-71464000D01*
X161300000Y-71504000D02*
X159790000Y-71504000D01*
X157710000Y-71504000D02*
X156200000Y-71504000D01*
X161293000Y-71544000D02*
X159790000Y-71544000D01*
X157710000Y-71544000D02*
X156207000Y-71544000D01*
X161286000Y-71584000D02*
X159790000Y-71584000D01*
X157710000Y-71584000D02*
X156214000Y-71584000D01*
X161278000Y-71624000D02*
X159790000Y-71624000D01*
X157710000Y-71624000D02*
X156222000Y-71624000D01*
X161270000Y-71664000D02*
X159790000Y-71664000D01*
X157710000Y-71664000D02*
X156230000Y-71664000D01*
X161261000Y-71704000D02*
X159790000Y-71704000D01*
X157710000Y-71704000D02*
X156239000Y-71704000D01*
X161251000Y-71744000D02*
X159790000Y-71744000D01*
X157710000Y-71744000D02*
X156249000Y-71744000D01*
X161241000Y-71784000D02*
X159790000Y-71784000D01*
X157710000Y-71784000D02*
X156259000Y-71784000D01*
X161230000Y-71825000D02*
X159790000Y-71825000D01*
X157710000Y-71825000D02*
X156270000Y-71825000D01*
X161218000Y-71865000D02*
X159790000Y-71865000D01*
X157710000Y-71865000D02*
X156282000Y-71865000D01*
X161205000Y-71905000D02*
X159790000Y-71905000D01*
X157710000Y-71905000D02*
X156295000Y-71905000D01*
X161192000Y-71945000D02*
X159790000Y-71945000D01*
X157710000Y-71945000D02*
X156308000Y-71945000D01*
X161178000Y-71985000D02*
X159790000Y-71985000D01*
X157710000Y-71985000D02*
X156322000Y-71985000D01*
X161164000Y-72025000D02*
X159790000Y-72025000D01*
X157710000Y-72025000D02*
X156336000Y-72025000D01*
X161148000Y-72065000D02*
X159790000Y-72065000D01*
X157710000Y-72065000D02*
X156352000Y-72065000D01*
X161132000Y-72105000D02*
X159790000Y-72105000D01*
X157710000Y-72105000D02*
X156368000Y-72105000D01*
X161115000Y-72145000D02*
X159790000Y-72145000D01*
X157710000Y-72145000D02*
X156385000Y-72145000D01*
X161098000Y-72185000D02*
X159790000Y-72185000D01*
X157710000Y-72185000D02*
X156402000Y-72185000D01*
X161079000Y-72225000D02*
X159790000Y-72225000D01*
X157710000Y-72225000D02*
X156421000Y-72225000D01*
X161060000Y-72265000D02*
X159790000Y-72265000D01*
X157710000Y-72265000D02*
X156440000Y-72265000D01*
X161040000Y-72305000D02*
X159790000Y-72305000D01*
X157710000Y-72305000D02*
X156460000Y-72305000D01*
X161018000Y-72345000D02*
X159790000Y-72345000D01*
X157710000Y-72345000D02*
X156482000Y-72345000D01*
X160997000Y-72385000D02*
X159790000Y-72385000D01*
X157710000Y-72385000D02*
X156503000Y-72385000D01*
X160974000Y-72425000D02*
X159790000Y-72425000D01*
X157710000Y-72425000D02*
X156526000Y-72425000D01*
X160950000Y-72465000D02*
X159790000Y-72465000D01*
X157710000Y-72465000D02*
X156550000Y-72465000D01*
X160925000Y-72505000D02*
X159790000Y-72505000D01*
X157710000Y-72505000D02*
X156575000Y-72505000D01*
X160899000Y-72545000D02*
X159790000Y-72545000D01*
X157710000Y-72545000D02*
X156601000Y-72545000D01*
X160872000Y-72585000D02*
X159790000Y-72585000D01*
X157710000Y-72585000D02*
X156628000Y-72585000D01*
X160845000Y-72625000D02*
X159790000Y-72625000D01*
X157710000Y-72625000D02*
X156655000Y-72625000D01*
X160815000Y-72665000D02*
X159790000Y-72665000D01*
X157710000Y-72665000D02*
X156685000Y-72665000D01*
X160785000Y-72705000D02*
X159790000Y-72705000D01*
X157710000Y-72705000D02*
X156715000Y-72705000D01*
X160754000Y-72745000D02*
X159790000Y-72745000D01*
X157710000Y-72745000D02*
X156746000Y-72745000D01*
X160721000Y-72785000D02*
X159790000Y-72785000D01*
X157710000Y-72785000D02*
X156779000Y-72785000D01*
X160687000Y-72825000D02*
X159790000Y-72825000D01*
X157710000Y-72825000D02*
X156813000Y-72825000D01*
X160651000Y-72865000D02*
X159790000Y-72865000D01*
X157710000Y-72865000D02*
X156849000Y-72865000D01*
X160614000Y-72905000D02*
X159790000Y-72905000D01*
X157710000Y-72905000D02*
X156886000Y-72905000D01*
X160576000Y-72945000D02*
X159790000Y-72945000D01*
X157710000Y-72945000D02*
X156924000Y-72945000D01*
X160535000Y-72985000D02*
X159790000Y-72985000D01*
X157710000Y-72985000D02*
X156965000Y-72985000D01*
X160493000Y-73025000D02*
X159790000Y-73025000D01*
X157710000Y-73025000D02*
X157007000Y-73025000D01*
X160449000Y-73065000D02*
X159790000Y-73065000D01*
X157710000Y-73065000D02*
X157051000Y-73065000D01*
X160403000Y-73105000D02*
X159790000Y-73105000D01*
X157710000Y-73105000D02*
X157097000Y-73105000D01*
X160355000Y-73145000D02*
X157145000Y-73145000D01*
X160304000Y-73185000D02*
X157196000Y-73185000D01*
X160250000Y-73225000D02*
X157250000Y-73225000D01*
X160193000Y-73265000D02*
X157307000Y-73265000D01*
X160133000Y-73305000D02*
X157367000Y-73305000D01*
X160069000Y-73345000D02*
X157431000Y-73345000D01*
X160001000Y-73385000D02*
X157499000Y-73385000D01*
X159928000Y-73425000D02*
X157572000Y-73425000D01*
X159848000Y-73465000D02*
X157652000Y-73465000D01*
X159761000Y-73505000D02*
X157739000Y-73505000D01*
X159665000Y-73545000D02*
X157835000Y-73545000D01*
X159555000Y-73585000D02*
X157945000Y-73585000D01*
X159427000Y-73625000D02*
X158073000Y-73625000D01*
X159268000Y-73665000D02*
X158232000Y-73665000D01*
X159034000Y-73705000D02*
X158466000Y-73705000D01*
X160225000Y-68299225D02*
X160225000Y-68799225D01*
X160475000Y-68549225D02*
X159975000Y-68549225D01*
X108599000Y-109886000D02*
X107341000Y-109886000D01*
X108599000Y-108046000D02*
X107341000Y-108046000D01*
X117760000Y-85231000D02*
X117760000Y-83973000D01*
X115920000Y-85231000D02*
X115920000Y-83973000D01*
X112167000Y-108046000D02*
X113425000Y-108046000D01*
X112167000Y-109886000D02*
X113425000Y-109886000D01*
X117247000Y-109886000D02*
X118505000Y-109886000D01*
X117247000Y-108046000D02*
X118505000Y-108046000D01*
X146295000Y-88592000D02*
X140725000Y-88592000D01*
X140725000Y-88592000D02*
X140725000Y-98352000D01*
X140725000Y-98352000D02*
X146295000Y-98352000D01*
X146295000Y-98352000D02*
X146295000Y-88592000D01*
X143510000Y-87292000D02*
X143510000Y-88592000D01*
X143510000Y-99652000D02*
X143510000Y-98352000D01*
X146295000Y-90140000D02*
X140725000Y-90140000D01*
X146295000Y-90260000D02*
X140725000Y-90260000D01*
X146295000Y-90020000D02*
X140725000Y-90020000D01*
X140471000Y-62126000D02*
X146041000Y-62126000D01*
X140471000Y-61886000D02*
X146041000Y-61886000D01*
X140471000Y-62006000D02*
X146041000Y-62006000D01*
X143256000Y-52494000D02*
X143256000Y-53794000D01*
X143256000Y-64854000D02*
X143256000Y-63554000D01*
X140471000Y-53794000D02*
X140471000Y-63554000D01*
X146041000Y-53794000D02*
X140471000Y-53794000D01*
X146041000Y-63554000D02*
X146041000Y-53794000D01*
X140471000Y-63554000D02*
X146041000Y-63554000D01*
X153945000Y-129520000D02*
X150855000Y-129520000D01*
X154900000Y-132080000D02*
G75*
G03X154900000Y-132080000I-2500000J0D01*
G01*
X152400462Y-135070000D02*
G75*
G02X150855170Y-129520000I-462J2990000D01*
G01*
X152399538Y-135070000D02*
G75*
G03X153944830Y-129520000I462J2990000D01*
G01*
X144547000Y-68560000D02*
X141457000Y-68560000D01*
X145502000Y-71120000D02*
G75*
G03X145502000Y-71120000I-2500000J0D01*
G01*
X143002462Y-74110000D02*
G75*
G02X141457170Y-68560000I-462J2990000D01*
G01*
X143001538Y-74110000D02*
G75*
G03X144546830Y-68560000I462J2990000D01*
G01*
X142239538Y-133292000D02*
G75*
G03X143784830Y-127742000I462J2990000D01*
G01*
X142240462Y-133292000D02*
G75*
G02X140695170Y-127742000I-462J2990000D01*
G01*
X144740000Y-130302000D02*
G75*
G03X144740000Y-130302000I-2500000J0D01*
G01*
X143785000Y-127742000D02*
X140695000Y-127742000D01*
X153416462Y-65082000D02*
G75*
G03X151871170Y-70632000I-462J-2990000D01*
G01*
X153415538Y-65082000D02*
G75*
G02X154960830Y-70632000I462J-2990000D01*
G01*
X155916000Y-68072000D02*
G75*
G03X155916000Y-68072000I-2500000J0D01*
G01*
X151871000Y-70632000D02*
X154961000Y-70632000D01*
X100330000Y-51562000D02*
X110490000Y-51562000D01*
X100330000Y-50292000D02*
X100330000Y-57912000D01*
X100330000Y-57912000D02*
X110490000Y-57912000D01*
X110490000Y-57912000D02*
X110490000Y-50292000D01*
X110490000Y-50292000D02*
X100330000Y-50292000D01*
X162814000Y-83820000D02*
X170434000Y-83820000D01*
X170434000Y-63500000D02*
X162814000Y-63500000D01*
X169164000Y-63500000D02*
X169164000Y-83820000D01*
X162814000Y-83820000D02*
X162814000Y-63500000D01*
X170434000Y-83820000D02*
X170434000Y-63500000D01*
X89408000Y-60960000D02*
X89408000Y-81280000D01*
X97028000Y-60960000D02*
X97028000Y-81280000D01*
X90678000Y-81280000D02*
X90678000Y-60960000D01*
X89408000Y-81280000D02*
X97028000Y-81280000D01*
X97028000Y-60960000D02*
X89408000Y-60960000D01*
X96520000Y-108458000D02*
X88900000Y-108458000D01*
X88900000Y-128778000D02*
X96520000Y-128778000D01*
X90170000Y-128778000D02*
X90170000Y-108458000D01*
X96520000Y-108458000D02*
X96520000Y-128778000D01*
X88900000Y-108458000D02*
X88900000Y-128778000D01*
X169164000Y-128016000D02*
X169164000Y-107696000D01*
X161544000Y-128016000D02*
X161544000Y-107696000D01*
X167894000Y-107696000D02*
X167894000Y-128016000D01*
X169164000Y-107696000D02*
X161544000Y-107696000D01*
X161544000Y-128016000D02*
X169164000Y-128016000D01*
X101032000Y-114554000D02*
X103692000Y-114554000D01*
X101032000Y-114554000D02*
X101032000Y-122234000D01*
X101032000Y-122234000D02*
X103692000Y-122234000D01*
X103692000Y-114554000D02*
X103692000Y-122234000D01*
X103692000Y-111954000D02*
X103692000Y-113284000D01*
X102362000Y-111954000D02*
X103692000Y-111954000D01*
X92202000Y-103438000D02*
X92202000Y-100778000D01*
X92202000Y-103438000D02*
X104962000Y-103438000D01*
X104962000Y-103438000D02*
X104962000Y-100778000D01*
X92202000Y-100778000D02*
X104962000Y-100778000D01*
X89602000Y-100778000D02*
X90932000Y-100778000D01*
X89602000Y-102108000D02*
X89602000Y-100778000D01*
X102616000Y-65472000D02*
X103946000Y-65472000D01*
X103946000Y-65472000D02*
X103946000Y-66802000D01*
X103946000Y-68072000D02*
X103946000Y-75752000D01*
X101286000Y-75752000D02*
X103946000Y-75752000D01*
X101286000Y-68072000D02*
X101286000Y-75752000D01*
X101286000Y-68072000D02*
X103946000Y-68072000D01*
X150972000Y-121654118D02*
G75*
G02X152812000Y-121654118I920000J1512118D01*
G01*
X149510000Y-53605882D02*
G75*
G02X147670000Y-53605882I-920000J-1512118D01*
G01*
X138346000Y-95768000D02*
X138826000Y-95768000D01*
X138826000Y-95768000D02*
X138826000Y-105908000D01*
X138826000Y-105908000D02*
X138346000Y-105908000D01*
X135466000Y-95768000D02*
X134986000Y-95768000D01*
X134986000Y-95768000D02*
X134986000Y-105908000D01*
X134986000Y-105908000D02*
X135466000Y-105908000D01*
X134986000Y-90160000D02*
X135466000Y-90160000D01*
X134986000Y-80020000D02*
X134986000Y-90160000D01*
X135466000Y-80020000D02*
X134986000Y-80020000D01*
X138826000Y-90160000D02*
X138346000Y-90160000D01*
X138826000Y-80020000D02*
X138826000Y-90160000D01*
X138346000Y-80020000D02*
X138826000Y-80020000D01*
X158666000Y-120914000D02*
X159146000Y-120914000D01*
X159146000Y-120914000D02*
X159146000Y-131054000D01*
X159146000Y-131054000D02*
X158666000Y-131054000D01*
X155786000Y-120914000D02*
X155306000Y-120914000D01*
X155306000Y-120914000D02*
X155306000Y-131054000D01*
X155306000Y-131054000D02*
X155786000Y-131054000D01*
X146924000Y-97526000D02*
X147404000Y-97526000D01*
X146924000Y-87386000D02*
X146924000Y-97526000D01*
X147404000Y-87386000D02*
X146924000Y-87386000D01*
X150764000Y-97526000D02*
X150284000Y-97526000D01*
X150764000Y-87386000D02*
X150764000Y-97526000D01*
X150284000Y-87386000D02*
X150764000Y-87386000D01*
X149014000Y-120914000D02*
X149494000Y-120914000D01*
X149494000Y-120914000D02*
X149494000Y-131054000D01*
X149494000Y-131054000D02*
X149014000Y-131054000D01*
X146134000Y-120914000D02*
X145654000Y-120914000D01*
X145654000Y-120914000D02*
X145654000Y-131054000D01*
X145654000Y-131054000D02*
X146134000Y-131054000D01*
X150764000Y-60208000D02*
X150284000Y-60208000D01*
X150764000Y-70348000D02*
X150764000Y-60208000D01*
X150284000Y-70348000D02*
X150764000Y-70348000D01*
X146924000Y-60208000D02*
X147404000Y-60208000D01*
X146924000Y-70348000D02*
X146924000Y-60208000D01*
X147404000Y-70348000D02*
X146924000Y-70348000D01*
X120406000Y-98918000D02*
X120406000Y-99398000D01*
X130546000Y-98918000D02*
X120406000Y-98918000D01*
X130546000Y-99398000D02*
X130546000Y-98918000D01*
X120406000Y-102758000D02*
X120406000Y-102278000D01*
X130546000Y-102758000D02*
X120406000Y-102758000D01*
X130546000Y-102278000D02*
X130546000Y-102758000D01*
X132070000Y-87010000D02*
X132070000Y-86530000D01*
X121930000Y-87010000D02*
X132070000Y-87010000D01*
X121930000Y-86530000D02*
X121930000Y-87010000D01*
X132070000Y-83170000D02*
X132070000Y-83650000D01*
X121930000Y-83170000D02*
X132070000Y-83170000D01*
X121930000Y-83650000D02*
X121930000Y-83170000D01*
X131562000Y-81450000D02*
X131562000Y-81930000D01*
X131562000Y-81930000D02*
X121422000Y-81930000D01*
X121422000Y-81930000D02*
X121422000Y-81450000D01*
X131562000Y-78570000D02*
X131562000Y-78090000D01*
X131562000Y-78090000D02*
X121422000Y-78090000D01*
X121422000Y-78090000D02*
X121422000Y-78570000D01*
X100848000Y-83904000D02*
X100848000Y-83424000D01*
X100848000Y-83424000D02*
X110988000Y-83424000D01*
X110988000Y-83424000D02*
X110988000Y-83904000D01*
X100848000Y-86784000D02*
X100848000Y-87264000D01*
X100848000Y-87264000D02*
X110988000Y-87264000D01*
X110988000Y-87264000D02*
X110988000Y-86784000D01*
X110988000Y-81450000D02*
X110988000Y-81930000D01*
X110988000Y-81930000D02*
X100848000Y-81930000D01*
X100848000Y-81930000D02*
X100848000Y-81450000D01*
X110988000Y-78570000D02*
X110988000Y-78090000D01*
X110988000Y-78090000D02*
X100848000Y-78090000D01*
X100848000Y-78090000D02*
X100848000Y-78570000D01*
X153426000Y-107129000D02*
X158496000Y-107129000D01*
X153426000Y-116899000D02*
X158496000Y-116899000D01*
X158496000Y-116899000D02*
X158496000Y-107129000D01*
X153426000Y-116899000D02*
X153426000Y-107129000D01*
X158486000Y-74617000D02*
X158486000Y-84387000D01*
X153416000Y-74617000D02*
X153416000Y-84387000D01*
X158486000Y-74617000D02*
X153416000Y-74617000D01*
X158486000Y-84387000D02*
X153416000Y-84387000D01*
X120396000Y-49530000D02*
X120396000Y-49690000D01*
X135382000Y-49530000D02*
X120396000Y-49530000D01*
X135382000Y-59690000D02*
X135382000Y-49530000D01*
X120396000Y-59690000D02*
X135382000Y-59690000D01*
X120396000Y-59690000D02*
X120396000Y-49690000D01*
X151384000Y-49530000D02*
X161384000Y-49530000D01*
X151384000Y-49530000D02*
X151384000Y-64516000D01*
X151384000Y-64516000D02*
X161544000Y-64516000D01*
X161544000Y-64516000D02*
X161544000Y-49530000D01*
X161544000Y-49530000D02*
X161384000Y-49530000D01*
X151130000Y-91186000D02*
X161130000Y-91186000D01*
X151130000Y-91186000D02*
X151130000Y-106172000D01*
X151130000Y-106172000D02*
X161290000Y-106172000D01*
X161290000Y-106172000D02*
X161290000Y-91186000D01*
X161290000Y-91186000D02*
X161130000Y-91186000D01*
X146328000Y-117291000D02*
X146328000Y-107050000D01*
X151069000Y-117291000D02*
X151069000Y-107050000D01*
X146328000Y-117291000D02*
X151069000Y-117291000D01*
X146328000Y-107050000D02*
X151069000Y-107050000D01*
X147868000Y-117291000D02*
X147868000Y-107050000D01*
X147868000Y-84271000D02*
X147868000Y-74030000D01*
X146328000Y-74030000D02*
X151069000Y-74030000D01*
X146328000Y-84271000D02*
X151069000Y-84271000D01*
X151069000Y-84271000D02*
X151069000Y-74030000D01*
X146328000Y-84271000D02*
X146328000Y-74030000D01*
X98492000Y-92218000D02*
G75*
G02X98492000Y-94218000I0J-1000000D01*
G01*
X98492000Y-94218000D02*
X98492000Y-95868000D01*
X98492000Y-95868000D02*
X134172000Y-95868000D01*
X134172000Y-95868000D02*
X134172000Y-90568000D01*
X134172000Y-90568000D02*
X98492000Y-90568000D01*
X98492000Y-90568000D02*
X98492000Y-92218000D01*
X123700000Y-103647000D02*
X130100000Y-103647000D01*
X123700000Y-108697000D02*
X130100000Y-108697000D01*
X123700000Y-108697000D02*
G75*
G02X123700000Y-103647000I0J2525000D01*
G01*
X130100000Y-108697000D02*
G75*
G03X130100000Y-103647000I0J2525000D01*
G01*
X108442000Y-105830000D02*
X112942000Y-105830000D01*
X107192000Y-101830000D02*
X107192000Y-103330000D01*
X112942000Y-99330000D02*
X108442000Y-99330000D01*
X114192000Y-103330000D02*
X114192000Y-101830000D01*
X139455000Y-121054000D02*
X145025000Y-121054000D01*
X139455000Y-120814000D02*
X145025000Y-120814000D01*
X139455000Y-120934000D02*
X145025000Y-120934000D01*
X142240000Y-111422000D02*
X142240000Y-112722000D01*
X142240000Y-123782000D02*
X142240000Y-122482000D01*
X139455000Y-112722000D02*
X139455000Y-122482000D01*
X145025000Y-112722000D02*
X139455000Y-112722000D01*
X145025000Y-122482000D02*
X145025000Y-112722000D01*
X139455000Y-122482000D02*
X145025000Y-122482000D01*
X155394000Y-85353000D02*
X155394000Y-90923000D01*
X155394000Y-90923000D02*
X165154000Y-90923000D01*
X165154000Y-90923000D02*
X165154000Y-85353000D01*
X165154000Y-85353000D02*
X155394000Y-85353000D01*
X154094000Y-88138000D02*
X155394000Y-88138000D01*
X166454000Y-88138000D02*
X165154000Y-88138000D01*
X156942000Y-85353000D02*
X156942000Y-90923000D01*
X157062000Y-85353000D02*
X157062000Y-90923000D01*
X156822000Y-85353000D02*
X156822000Y-90923000D01*
D14*
X86102000Y-97721714D02*
X86102000Y-97007428D01*
X86530571Y-97864571D02*
X85030571Y-97364571D01*
X86530571Y-96864571D01*
X86530571Y-96364571D02*
X85530571Y-96364571D01*
X85816285Y-96364571D02*
X85673428Y-96293142D01*
X85602000Y-96221714D01*
X85530571Y-96078857D01*
X85530571Y-95936000D01*
X86530571Y-94793142D02*
X85030571Y-94793142D01*
X86459142Y-94793142D02*
X86530571Y-94936000D01*
X86530571Y-95221714D01*
X86459142Y-95364571D01*
X86387714Y-95436000D01*
X86244857Y-95507428D01*
X85816285Y-95507428D01*
X85673428Y-95436000D01*
X85602000Y-95364571D01*
X85530571Y-95221714D01*
X85530571Y-94936000D01*
X85602000Y-94793142D01*
X85530571Y-93436000D02*
X86530571Y-93436000D01*
X85530571Y-94078857D02*
X86316285Y-94078857D01*
X86459142Y-94007428D01*
X86530571Y-93864571D01*
X86530571Y-93650285D01*
X86459142Y-93507428D01*
X86387714Y-93436000D01*
X86530571Y-92721714D02*
X85530571Y-92721714D01*
X85030571Y-92721714D02*
X85102000Y-92793142D01*
X85173428Y-92721714D01*
X85102000Y-92650285D01*
X85030571Y-92721714D01*
X85173428Y-92721714D01*
X85530571Y-92007428D02*
X86530571Y-92007428D01*
X85673428Y-92007428D02*
X85602000Y-91936000D01*
X85530571Y-91793142D01*
X85530571Y-91578857D01*
X85602000Y-91436000D01*
X85744857Y-91364571D01*
X86530571Y-91364571D01*
X86530571Y-90436000D02*
X86459142Y-90578857D01*
X86387714Y-90650285D01*
X86244857Y-90721714D01*
X85816285Y-90721714D01*
X85673428Y-90650285D01*
X85602000Y-90578857D01*
X85530571Y-90436000D01*
X85530571Y-90221714D01*
X85602000Y-90078857D01*
X85673428Y-90007428D01*
X85816285Y-89936000D01*
X86244857Y-89936000D01*
X86387714Y-90007428D01*
X86459142Y-90078857D01*
X86530571Y-90221714D01*
X86530571Y-90436000D01*
X85030571Y-87864571D02*
X85030571Y-87578857D01*
X85102000Y-87436000D01*
X85244857Y-87293142D01*
X85530571Y-87221714D01*
X86030571Y-87221714D01*
X86316285Y-87293142D01*
X86459142Y-87436000D01*
X86530571Y-87578857D01*
X86530571Y-87864571D01*
X86459142Y-88007428D01*
X86316285Y-88150285D01*
X86030571Y-88221714D01*
X85530571Y-88221714D01*
X85244857Y-88150285D01*
X85102000Y-88007428D01*
X85030571Y-87864571D01*
X85744857Y-86078857D02*
X85744857Y-86578857D01*
X86530571Y-86578857D02*
X85030571Y-86578857D01*
X85030571Y-85864571D01*
X85744857Y-84793142D02*
X85744857Y-85293142D01*
X86530571Y-85293142D02*
X85030571Y-85293142D01*
X85030571Y-84578857D01*
D15*
X142311333Y-102271142D02*
X142263714Y-102318761D01*
X142120857Y-102366380D01*
X142025619Y-102366380D01*
X141882761Y-102318761D01*
X141787523Y-102223523D01*
X141739904Y-102128285D01*
X141692285Y-101937809D01*
X141692285Y-101794952D01*
X141739904Y-101604476D01*
X141787523Y-101509238D01*
X141882761Y-101414000D01*
X142025619Y-101366380D01*
X142120857Y-101366380D01*
X142263714Y-101414000D01*
X142311333Y-101461619D01*
X143263714Y-102366380D02*
X142692285Y-102366380D01*
X142978000Y-102366380D02*
X142978000Y-101366380D01*
X142882761Y-101509238D01*
X142787523Y-101604476D01*
X142692285Y-101652095D01*
X138545619Y-79208190D02*
X138498000Y-79160571D01*
X138450380Y-79065333D01*
X138450380Y-78827238D01*
X138498000Y-78732000D01*
X138545619Y-78684380D01*
X138640857Y-78636761D01*
X138736095Y-78636761D01*
X138878952Y-78684380D01*
X139450380Y-79255809D01*
X139450380Y-78636761D01*
X138545619Y-78255809D02*
X138498000Y-78208190D01*
X138450380Y-78112952D01*
X138450380Y-77874857D01*
X138498000Y-77779619D01*
X138545619Y-77732000D01*
X138640857Y-77684380D01*
X138736095Y-77684380D01*
X138878952Y-77732000D01*
X139450380Y-78303428D01*
X139450380Y-77684380D01*
X138450380Y-77065333D02*
X138450380Y-76970095D01*
X138498000Y-76874857D01*
X138545619Y-76827238D01*
X138640857Y-76779619D01*
X138831333Y-76732000D01*
X139069428Y-76732000D01*
X139259904Y-76779619D01*
X139355142Y-76827238D01*
X139402761Y-76874857D01*
X139450380Y-76970095D01*
X139450380Y-77065333D01*
X139402761Y-77160571D01*
X139355142Y-77208190D01*
X139259904Y-77255809D01*
X139069428Y-77303428D01*
X138831333Y-77303428D01*
X138640857Y-77255809D01*
X138545619Y-77208190D01*
X138498000Y-77160571D01*
X138450380Y-77065333D01*
X138783714Y-75874857D02*
X139450380Y-75874857D01*
X138783714Y-76303428D02*
X139307523Y-76303428D01*
X139402761Y-76255809D01*
X139450380Y-76160571D01*
X139450380Y-76017714D01*
X139402761Y-75922476D01*
X139355142Y-75874857D01*
X138783714Y-75541523D02*
X138783714Y-75160571D01*
X139450380Y-75398666D02*
X138593238Y-75398666D01*
X138498000Y-75351047D01*
X138450380Y-75255809D01*
X138450380Y-75160571D01*
X149407619Y-128428476D02*
X149360000Y-128380857D01*
X149312380Y-128285619D01*
X149312380Y-128047523D01*
X149360000Y-127952285D01*
X149407619Y-127904666D01*
X149502857Y-127857047D01*
X149598095Y-127857047D01*
X149740952Y-127904666D01*
X150312380Y-128476095D01*
X150312380Y-127857047D01*
X149407619Y-127476095D02*
X149360000Y-127428476D01*
X149312380Y-127333238D01*
X149312380Y-127095142D01*
X149360000Y-126999904D01*
X149407619Y-126952285D01*
X149502857Y-126904666D01*
X149598095Y-126904666D01*
X149740952Y-126952285D01*
X150312380Y-127523714D01*
X150312380Y-126904666D01*
X149312380Y-126285619D02*
X149312380Y-126190380D01*
X149360000Y-126095142D01*
X149407619Y-126047523D01*
X149502857Y-125999904D01*
X149693333Y-125952285D01*
X149931428Y-125952285D01*
X150121904Y-125999904D01*
X150217142Y-126047523D01*
X150264761Y-126095142D01*
X150312380Y-126190380D01*
X150312380Y-126285619D01*
X150264761Y-126380857D01*
X150217142Y-126428476D01*
X150121904Y-126476095D01*
X149931428Y-126523714D01*
X149693333Y-126523714D01*
X149502857Y-126476095D01*
X149407619Y-126428476D01*
X149360000Y-126380857D01*
X149312380Y-126285619D01*
X149312380Y-125523714D02*
X150121904Y-125523714D01*
X150217142Y-125476095D01*
X150264761Y-125428476D01*
X150312380Y-125333238D01*
X150312380Y-125142761D01*
X150264761Y-125047523D01*
X150217142Y-124999904D01*
X150121904Y-124952285D01*
X149312380Y-124952285D01*
X149788571Y-124142761D02*
X149788571Y-124476095D01*
X150312380Y-124476095D02*
X149312380Y-124476095D01*
X149312380Y-123999904D01*
X162047619Y-73294476D02*
X162000000Y-73246857D01*
X161952380Y-73151619D01*
X161952380Y-72913523D01*
X162000000Y-72818285D01*
X162047619Y-72770666D01*
X162142857Y-72723047D01*
X162238095Y-72723047D01*
X162380952Y-72770666D01*
X162952380Y-73342095D01*
X162952380Y-72723047D01*
X162047619Y-72342095D02*
X162000000Y-72294476D01*
X161952380Y-72199238D01*
X161952380Y-71961142D01*
X162000000Y-71865904D01*
X162047619Y-71818285D01*
X162142857Y-71770666D01*
X162238095Y-71770666D01*
X162380952Y-71818285D01*
X162952380Y-72389714D01*
X162952380Y-71770666D01*
X161952380Y-71151619D02*
X161952380Y-71056380D01*
X162000000Y-70961142D01*
X162047619Y-70913523D01*
X162142857Y-70865904D01*
X162333333Y-70818285D01*
X162571428Y-70818285D01*
X162761904Y-70865904D01*
X162857142Y-70913523D01*
X162904761Y-70961142D01*
X162952380Y-71056380D01*
X162952380Y-71151619D01*
X162904761Y-71246857D01*
X162857142Y-71294476D01*
X162761904Y-71342095D01*
X162571428Y-71389714D01*
X162333333Y-71389714D01*
X162142857Y-71342095D01*
X162047619Y-71294476D01*
X162000000Y-71246857D01*
X161952380Y-71151619D01*
X161952380Y-70389714D02*
X162761904Y-70389714D01*
X162857142Y-70342095D01*
X162904761Y-70294476D01*
X162952380Y-70199238D01*
X162952380Y-70008761D01*
X162904761Y-69913523D01*
X162857142Y-69865904D01*
X162761904Y-69818285D01*
X161952380Y-69818285D01*
X162428571Y-69008761D02*
X162428571Y-69342095D01*
X162952380Y-69342095D02*
X161952380Y-69342095D01*
X161952380Y-68865904D01*
X106255714Y-106640380D02*
X106350952Y-106640380D01*
X106446190Y-106688000D01*
X106493809Y-106735619D01*
X106541428Y-106830857D01*
X106589047Y-107021333D01*
X106589047Y-107259428D01*
X106541428Y-107449904D01*
X106493809Y-107545142D01*
X106446190Y-107592761D01*
X106350952Y-107640380D01*
X106255714Y-107640380D01*
X106160476Y-107592761D01*
X106112857Y-107545142D01*
X106065238Y-107449904D01*
X106017619Y-107259428D01*
X106017619Y-107021333D01*
X106065238Y-106830857D01*
X106112857Y-106735619D01*
X106160476Y-106688000D01*
X106255714Y-106640380D01*
X107017619Y-107545142D02*
X107065238Y-107592761D01*
X107017619Y-107640380D01*
X106970000Y-107592761D01*
X107017619Y-107545142D01*
X107017619Y-107640380D01*
X108017619Y-107640380D02*
X107446190Y-107640380D01*
X107731904Y-107640380D02*
X107731904Y-106640380D01*
X107636666Y-106783238D01*
X107541428Y-106878476D01*
X107446190Y-106926095D01*
X108446190Y-106640380D02*
X108446190Y-107449904D01*
X108493809Y-107545142D01*
X108541428Y-107592761D01*
X108636666Y-107640380D01*
X108827142Y-107640380D01*
X108922380Y-107592761D01*
X108970000Y-107545142D01*
X109017619Y-107449904D01*
X109017619Y-106640380D01*
X109827142Y-107116571D02*
X109493809Y-107116571D01*
X109493809Y-107640380D02*
X109493809Y-106640380D01*
X109970000Y-106640380D01*
X114242380Y-86316285D02*
X114242380Y-86221047D01*
X114290000Y-86125809D01*
X114337619Y-86078190D01*
X114432857Y-86030571D01*
X114623333Y-85982952D01*
X114861428Y-85982952D01*
X115051904Y-86030571D01*
X115147142Y-86078190D01*
X115194761Y-86125809D01*
X115242380Y-86221047D01*
X115242380Y-86316285D01*
X115194761Y-86411523D01*
X115147142Y-86459142D01*
X115051904Y-86506761D01*
X114861428Y-86554380D01*
X114623333Y-86554380D01*
X114432857Y-86506761D01*
X114337619Y-86459142D01*
X114290000Y-86411523D01*
X114242380Y-86316285D01*
X115147142Y-85554380D02*
X115194761Y-85506761D01*
X115242380Y-85554380D01*
X115194761Y-85602000D01*
X115147142Y-85554380D01*
X115242380Y-85554380D01*
X115242380Y-84554380D02*
X115242380Y-85125809D01*
X115242380Y-84840095D02*
X114242380Y-84840095D01*
X114385238Y-84935333D01*
X114480476Y-85030571D01*
X114528095Y-85125809D01*
X114242380Y-84125809D02*
X115051904Y-84125809D01*
X115147142Y-84078190D01*
X115194761Y-84030571D01*
X115242380Y-83935333D01*
X115242380Y-83744857D01*
X115194761Y-83649619D01*
X115147142Y-83602000D01*
X115051904Y-83554380D01*
X114242380Y-83554380D01*
X114718571Y-82744857D02*
X114718571Y-83078190D01*
X115242380Y-83078190D02*
X114242380Y-83078190D01*
X114242380Y-82602000D01*
X111105523Y-106463619D02*
X111153142Y-106416000D01*
X111248380Y-106368380D01*
X111486476Y-106368380D01*
X111581714Y-106416000D01*
X111629333Y-106463619D01*
X111676952Y-106558857D01*
X111676952Y-106654095D01*
X111629333Y-106796952D01*
X111057904Y-107368380D01*
X111676952Y-107368380D01*
X112057904Y-106463619D02*
X112105523Y-106416000D01*
X112200761Y-106368380D01*
X112438857Y-106368380D01*
X112534095Y-106416000D01*
X112581714Y-106463619D01*
X112629333Y-106558857D01*
X112629333Y-106654095D01*
X112581714Y-106796952D01*
X112010285Y-107368380D01*
X112629333Y-107368380D01*
X113057904Y-107368380D02*
X113057904Y-106368380D01*
X113438857Y-106368380D01*
X113534095Y-106416000D01*
X113581714Y-106463619D01*
X113629333Y-106558857D01*
X113629333Y-106701714D01*
X113581714Y-106796952D01*
X113534095Y-106844571D01*
X113438857Y-106892190D01*
X113057904Y-106892190D01*
X114391238Y-106844571D02*
X114057904Y-106844571D01*
X114057904Y-107368380D02*
X114057904Y-106368380D01*
X114534095Y-106368380D01*
X116185523Y-106463619D02*
X116233142Y-106416000D01*
X116328380Y-106368380D01*
X116566476Y-106368380D01*
X116661714Y-106416000D01*
X116709333Y-106463619D01*
X116756952Y-106558857D01*
X116756952Y-106654095D01*
X116709333Y-106796952D01*
X116137904Y-107368380D01*
X116756952Y-107368380D01*
X117137904Y-106463619D02*
X117185523Y-106416000D01*
X117280761Y-106368380D01*
X117518857Y-106368380D01*
X117614095Y-106416000D01*
X117661714Y-106463619D01*
X117709333Y-106558857D01*
X117709333Y-106654095D01*
X117661714Y-106796952D01*
X117090285Y-107368380D01*
X117709333Y-107368380D01*
X118137904Y-107368380D02*
X118137904Y-106368380D01*
X118518857Y-106368380D01*
X118614095Y-106416000D01*
X118661714Y-106463619D01*
X118709333Y-106558857D01*
X118709333Y-106701714D01*
X118661714Y-106796952D01*
X118614095Y-106844571D01*
X118518857Y-106892190D01*
X118137904Y-106892190D01*
X119471238Y-106844571D02*
X119137904Y-106844571D01*
X119137904Y-107368380D02*
X119137904Y-106368380D01*
X119614095Y-106368380D01*
X147747380Y-94210095D02*
X146747380Y-94210095D01*
X146747380Y-93972000D01*
X146795000Y-93829142D01*
X146890238Y-93733904D01*
X146985476Y-93686285D01*
X147175952Y-93638666D01*
X147318809Y-93638666D01*
X147509285Y-93686285D01*
X147604523Y-93733904D01*
X147699761Y-93829142D01*
X147747380Y-93972000D01*
X147747380Y-94210095D01*
X147747380Y-92686285D02*
X147747380Y-93257714D01*
X147747380Y-92972000D02*
X146747380Y-92972000D01*
X146890238Y-93067238D01*
X146985476Y-93162476D01*
X147033095Y-93257714D01*
X146162380Y-86113904D02*
X145162380Y-86113904D01*
X146162380Y-85542476D02*
X145590952Y-85971047D01*
X145162380Y-85542476D02*
X145733809Y-86113904D01*
X139923380Y-60031142D02*
X138923380Y-60031142D01*
X139875761Y-60031142D02*
X139923380Y-60126380D01*
X139923380Y-60316857D01*
X139875761Y-60412095D01*
X139828142Y-60459714D01*
X139732904Y-60507333D01*
X139447190Y-60507333D01*
X139351952Y-60459714D01*
X139304333Y-60412095D01*
X139256714Y-60316857D01*
X139256714Y-60126380D01*
X139304333Y-60031142D01*
X139923380Y-59554952D02*
X139256714Y-59554952D01*
X138923380Y-59554952D02*
X138971000Y-59602571D01*
X139018619Y-59554952D01*
X138971000Y-59507333D01*
X138923380Y-59554952D01*
X139018619Y-59554952D01*
X139923380Y-58935904D02*
X139875761Y-59031142D01*
X139828142Y-59078761D01*
X139732904Y-59126380D01*
X139447190Y-59126380D01*
X139351952Y-59078761D01*
X139304333Y-59031142D01*
X139256714Y-58935904D01*
X139256714Y-58793047D01*
X139304333Y-58697809D01*
X139351952Y-58650190D01*
X139447190Y-58602571D01*
X139732904Y-58602571D01*
X139828142Y-58650190D01*
X139875761Y-58697809D01*
X139923380Y-58793047D01*
X139923380Y-58935904D01*
X139923380Y-57745428D02*
X138923380Y-57745428D01*
X139875761Y-57745428D02*
X139923380Y-57840666D01*
X139923380Y-58031142D01*
X139875761Y-58126380D01*
X139828142Y-58174000D01*
X139732904Y-58221619D01*
X139447190Y-58221619D01*
X139351952Y-58174000D01*
X139304333Y-58126380D01*
X139256714Y-58031142D01*
X139256714Y-57840666D01*
X139304333Y-57745428D01*
X139875761Y-56888285D02*
X139923380Y-56983523D01*
X139923380Y-57174000D01*
X139875761Y-57269238D01*
X139780523Y-57316857D01*
X139399571Y-57316857D01*
X139304333Y-57269238D01*
X139256714Y-57174000D01*
X139256714Y-56983523D01*
X139304333Y-56888285D01*
X139399571Y-56840666D01*
X139494809Y-56840666D01*
X139590047Y-57316857D01*
X141508380Y-66555904D02*
X140508380Y-66555904D01*
X141508380Y-65984476D02*
X140936952Y-66413047D01*
X140508380Y-65984476D02*
X141079809Y-66555904D01*
X155812380Y-133080000D02*
X155812380Y-132889523D01*
X155860000Y-132794285D01*
X155955238Y-132699047D01*
X156145714Y-132651428D01*
X156479047Y-132651428D01*
X156669523Y-132699047D01*
X156764761Y-132794285D01*
X156812380Y-132889523D01*
X156812380Y-133080000D01*
X156764761Y-133175238D01*
X156669523Y-133270476D01*
X156479047Y-133318095D01*
X156145714Y-133318095D01*
X155955238Y-133270476D01*
X155860000Y-133175238D01*
X155812380Y-133080000D01*
X155812380Y-132222857D02*
X156621904Y-132222857D01*
X156717142Y-132175238D01*
X156764761Y-132127619D01*
X156812380Y-132032380D01*
X156812380Y-131841904D01*
X156764761Y-131746666D01*
X156717142Y-131699047D01*
X156621904Y-131651428D01*
X155812380Y-131651428D01*
X155812380Y-131318095D02*
X155812380Y-130746666D01*
X156812380Y-131032380D02*
X155812380Y-131032380D01*
X147414380Y-71762857D02*
X147414380Y-72239047D01*
X146414380Y-72239047D01*
X146890571Y-71429523D02*
X146890571Y-71096190D01*
X147414380Y-70953333D02*
X147414380Y-71429523D01*
X146414380Y-71429523D01*
X146414380Y-70953333D01*
X147414380Y-70524761D02*
X146414380Y-70524761D01*
X146414380Y-70286666D01*
X146462000Y-70143809D01*
X146557238Y-70048571D01*
X146652476Y-70000952D01*
X146842952Y-69953333D01*
X146985809Y-69953333D01*
X147176285Y-70000952D01*
X147271523Y-70048571D01*
X147366761Y-70143809D01*
X147414380Y-70286666D01*
X147414380Y-70524761D01*
X146652380Y-130825809D02*
X145652380Y-130825809D01*
X146652380Y-130349619D02*
X145652380Y-130349619D01*
X146652380Y-129778190D01*
X145652380Y-129778190D01*
X149908380Y-68714857D02*
X149908380Y-69191047D01*
X148908380Y-69191047D01*
X149384571Y-68381523D02*
X149384571Y-68048190D01*
X149908380Y-67905333D02*
X149908380Y-68381523D01*
X148908380Y-68381523D01*
X148908380Y-67905333D01*
X149908380Y-67476761D02*
X148908380Y-67476761D01*
X148908380Y-67238666D01*
X148956000Y-67095809D01*
X149051238Y-67000571D01*
X149146476Y-66952952D01*
X149336952Y-66905333D01*
X149479809Y-66905333D01*
X149670285Y-66952952D01*
X149765523Y-67000571D01*
X149860761Y-67095809D01*
X149908380Y-67238666D01*
X149908380Y-67476761D01*
D10*
X98759238Y-61610761D02*
X98759238Y-59610761D01*
X99521142Y-59610761D01*
X99711619Y-59706000D01*
X99806857Y-59801238D01*
X99902095Y-59991714D01*
X99902095Y-60277428D01*
X99806857Y-60467904D01*
X99711619Y-60563142D01*
X99521142Y-60658380D01*
X98759238Y-60658380D01*
X101140190Y-59610761D02*
X101521142Y-59610761D01*
X101711619Y-59706000D01*
X101902095Y-59896476D01*
X101997333Y-60277428D01*
X101997333Y-60944095D01*
X101902095Y-61325047D01*
X101711619Y-61515523D01*
X101521142Y-61610761D01*
X101140190Y-61610761D01*
X100949714Y-61515523D01*
X100759238Y-61325047D01*
X100664000Y-60944095D01*
X100664000Y-60277428D01*
X100759238Y-59896476D01*
X100949714Y-59706000D01*
X101140190Y-59610761D01*
X102664000Y-59610761D02*
X103140190Y-61610761D01*
X103521142Y-60182190D01*
X103902095Y-61610761D01*
X104378285Y-59610761D01*
X105140190Y-60563142D02*
X105806857Y-60563142D01*
X106092571Y-61610761D02*
X105140190Y-61610761D01*
X105140190Y-59610761D01*
X106092571Y-59610761D01*
X108092571Y-61610761D02*
X107425904Y-60658380D01*
X106949714Y-61610761D02*
X106949714Y-59610761D01*
X107711619Y-59610761D01*
X107902095Y-59706000D01*
X107997333Y-59801238D01*
X108092571Y-59991714D01*
X108092571Y-60277428D01*
X107997333Y-60467904D01*
X107902095Y-60563142D01*
X107711619Y-60658380D01*
X106949714Y-60658380D01*
X110473523Y-61610761D02*
X110473523Y-59610761D01*
X111425904Y-61610761D02*
X111425904Y-59610761D01*
X112568761Y-61610761D01*
X112568761Y-59610761D01*
X161885142Y-80089142D02*
X161885142Y-81803428D01*
X161885142Y-80946285D02*
X158885142Y-80946285D01*
X159313714Y-81232000D01*
X159599428Y-81517714D01*
X159742285Y-81803428D01*
X159170857Y-78946285D02*
X159028000Y-78803428D01*
X158885142Y-78517714D01*
X158885142Y-77803428D01*
X159028000Y-77517714D01*
X159170857Y-77374857D01*
X159456571Y-77232000D01*
X159742285Y-77232000D01*
X160170857Y-77374857D01*
X161885142Y-79089142D01*
X161885142Y-77232000D01*
X158885142Y-76374857D02*
X161885142Y-75374857D01*
X158885142Y-74374857D01*
X99710761Y-72612095D02*
X99710761Y-73754952D01*
X99710761Y-73183523D02*
X97710761Y-73183523D01*
X97996476Y-73374000D01*
X98186952Y-73564476D01*
X98282190Y-73754952D01*
X97901238Y-71850190D02*
X97806000Y-71754952D01*
X97710761Y-71564476D01*
X97710761Y-71088285D01*
X97806000Y-70897809D01*
X97901238Y-70802571D01*
X98091714Y-70707333D01*
X98282190Y-70707333D01*
X98567904Y-70802571D01*
X99710761Y-71945428D01*
X99710761Y-70707333D01*
X97710761Y-70135904D02*
X99710761Y-69469238D01*
X97710761Y-68802571D01*
D15*
X97163142Y-119169428D02*
X97163142Y-120598000D01*
X98591714Y-120740857D01*
X98448857Y-120598000D01*
X98306000Y-120312285D01*
X98306000Y-119598000D01*
X98448857Y-119312285D01*
X98591714Y-119169428D01*
X98877428Y-119026571D01*
X99591714Y-119026571D01*
X99877428Y-119169428D01*
X100020285Y-119312285D01*
X100163142Y-119598000D01*
X100163142Y-120312285D01*
X100020285Y-120598000D01*
X99877428Y-120740857D01*
X97163142Y-118169428D02*
X100163142Y-117169428D01*
X97163142Y-116169428D01*
D11*
X158911142Y-118447428D02*
X158911142Y-119876000D01*
X160339714Y-120018857D01*
X160196857Y-119876000D01*
X160054000Y-119590285D01*
X160054000Y-118876000D01*
X160196857Y-118590285D01*
X160339714Y-118447428D01*
X160625428Y-118304571D01*
X161339714Y-118304571D01*
X161625428Y-118447428D01*
X161768285Y-118590285D01*
X161911142Y-118876000D01*
X161911142Y-119590285D01*
X161768285Y-119876000D01*
X161625428Y-120018857D01*
X158911142Y-117447428D02*
X161911142Y-116447428D01*
X158911142Y-115447428D01*
D15*
X99623904Y-109966380D02*
X99814380Y-109966380D01*
X99909619Y-110014000D01*
X100004857Y-110109238D01*
X100052476Y-110299714D01*
X100052476Y-110633047D01*
X100004857Y-110823523D01*
X99909619Y-110918761D01*
X99814380Y-110966380D01*
X99623904Y-110966380D01*
X99528666Y-110918761D01*
X99433428Y-110823523D01*
X99385809Y-110633047D01*
X99385809Y-110299714D01*
X99433428Y-110109238D01*
X99528666Y-110014000D01*
X99623904Y-109966380D01*
X100957238Y-110966380D02*
X100481047Y-110966380D01*
X100481047Y-109966380D01*
X101290571Y-110442571D02*
X101623904Y-110442571D01*
X101766761Y-110966380D02*
X101290571Y-110966380D01*
X101290571Y-109966380D01*
X101766761Y-109966380D01*
X102195333Y-110966380D02*
X102195333Y-109966380D01*
X102433428Y-109966380D01*
X102576285Y-110014000D01*
X102671523Y-110109238D01*
X102719142Y-110204476D01*
X102766761Y-110394952D01*
X102766761Y-110537809D01*
X102719142Y-110728285D01*
X102671523Y-110823523D01*
X102576285Y-110918761D01*
X102433428Y-110966380D01*
X102195333Y-110966380D01*
X104433428Y-109966380D02*
X103957238Y-109966380D01*
X103909619Y-110442571D01*
X103957238Y-110394952D01*
X104052476Y-110347333D01*
X104290571Y-110347333D01*
X104385809Y-110394952D01*
X104433428Y-110442571D01*
X104481047Y-110537809D01*
X104481047Y-110775904D01*
X104433428Y-110871142D01*
X104385809Y-110918761D01*
X104290571Y-110966380D01*
X104052476Y-110966380D01*
X103957238Y-110918761D01*
X103909619Y-110871142D01*
X104766761Y-109966380D02*
X105100095Y-110966380D01*
X105433428Y-109966380D01*
X87614380Y-102917523D02*
X88328666Y-102917523D01*
X88471523Y-102965142D01*
X88566761Y-103060380D01*
X88614380Y-103203238D01*
X88614380Y-103298476D01*
X88614380Y-101917523D02*
X88614380Y-102488952D01*
X88614380Y-102203238D02*
X87614380Y-102203238D01*
X87757238Y-102298476D01*
X87852476Y-102393714D01*
X87900095Y-102488952D01*
X88614380Y-100965142D02*
X88614380Y-101536571D01*
X88614380Y-101250857D02*
X87614380Y-101250857D01*
X87757238Y-101346095D01*
X87852476Y-101441333D01*
X87900095Y-101536571D01*
X99401714Y-63484380D02*
X99592190Y-63484380D01*
X99687428Y-63532000D01*
X99782666Y-63627238D01*
X99830285Y-63817714D01*
X99830285Y-64151047D01*
X99782666Y-64341523D01*
X99687428Y-64436761D01*
X99592190Y-64484380D01*
X99401714Y-64484380D01*
X99306476Y-64436761D01*
X99211238Y-64341523D01*
X99163619Y-64151047D01*
X99163619Y-63817714D01*
X99211238Y-63627238D01*
X99306476Y-63532000D01*
X99401714Y-63484380D01*
X100735047Y-64484380D02*
X100258857Y-64484380D01*
X100258857Y-63484380D01*
X101068380Y-63960571D02*
X101401714Y-63960571D01*
X101544571Y-64484380D02*
X101068380Y-64484380D01*
X101068380Y-63484380D01*
X101544571Y-63484380D01*
X101973142Y-64484380D02*
X101973142Y-63484380D01*
X102211238Y-63484380D01*
X102354095Y-63532000D01*
X102449333Y-63627238D01*
X102496952Y-63722476D01*
X102544571Y-63912952D01*
X102544571Y-64055809D01*
X102496952Y-64246285D01*
X102449333Y-64341523D01*
X102354095Y-64436761D01*
X102211238Y-64484380D01*
X101973142Y-64484380D01*
X104258857Y-64484380D02*
X103687428Y-64484380D01*
X103973142Y-64484380D02*
X103973142Y-63484380D01*
X103877904Y-63627238D01*
X103782666Y-63722476D01*
X103687428Y-63770095D01*
X104639809Y-63579619D02*
X104687428Y-63532000D01*
X104782666Y-63484380D01*
X105020761Y-63484380D01*
X105116000Y-63532000D01*
X105163619Y-63579619D01*
X105211238Y-63674857D01*
X105211238Y-63770095D01*
X105163619Y-63912952D01*
X104592190Y-64484380D01*
X105211238Y-64484380D01*
X105496952Y-63484380D02*
X105830285Y-64484380D01*
X106163619Y-63484380D01*
X155114380Y-122602476D02*
X155114380Y-123173904D01*
X155114380Y-122888190D02*
X154114380Y-122888190D01*
X154257238Y-122983428D01*
X154352476Y-123078666D01*
X154400095Y-123173904D01*
X154114380Y-121983428D02*
X154114380Y-121888190D01*
X154162000Y-121792952D01*
X154209619Y-121745333D01*
X154304857Y-121697714D01*
X154495333Y-121650095D01*
X154733428Y-121650095D01*
X154923904Y-121697714D01*
X155019142Y-121745333D01*
X155066761Y-121792952D01*
X155114380Y-121888190D01*
X155114380Y-121983428D01*
X155066761Y-122078666D01*
X155019142Y-122126285D01*
X154923904Y-122173904D01*
X154733428Y-122221523D01*
X154495333Y-122221523D01*
X154304857Y-122173904D01*
X154209619Y-122126285D01*
X154162000Y-122078666D01*
X154114380Y-121983428D01*
X154114380Y-121031047D02*
X154114380Y-120935809D01*
X154162000Y-120840571D01*
X154209619Y-120792952D01*
X154304857Y-120745333D01*
X154495333Y-120697714D01*
X154733428Y-120697714D01*
X154923904Y-120745333D01*
X155019142Y-120792952D01*
X155066761Y-120840571D01*
X155114380Y-120935809D01*
X155114380Y-121031047D01*
X155066761Y-121126285D01*
X155019142Y-121173904D01*
X154923904Y-121221523D01*
X154733428Y-121269142D01*
X154495333Y-121269142D01*
X154304857Y-121221523D01*
X154209619Y-121173904D01*
X154162000Y-121126285D01*
X154114380Y-121031047D01*
X155114380Y-120269142D02*
X154114380Y-120269142D01*
X154590571Y-120269142D02*
X154590571Y-119697714D01*
X155114380Y-119697714D02*
X154114380Y-119697714D01*
X146272380Y-55038476D02*
X146272380Y-55609904D01*
X146272380Y-55324190D02*
X145272380Y-55324190D01*
X145415238Y-55419428D01*
X145510476Y-55514666D01*
X145558095Y-55609904D01*
X145272380Y-54419428D02*
X145272380Y-54324190D01*
X145320000Y-54228952D01*
X145367619Y-54181333D01*
X145462857Y-54133714D01*
X145653333Y-54086095D01*
X145891428Y-54086095D01*
X146081904Y-54133714D01*
X146177142Y-54181333D01*
X146224761Y-54228952D01*
X146272380Y-54324190D01*
X146272380Y-54419428D01*
X146224761Y-54514666D01*
X146177142Y-54562285D01*
X146081904Y-54609904D01*
X145891428Y-54657523D01*
X145653333Y-54657523D01*
X145462857Y-54609904D01*
X145367619Y-54562285D01*
X145320000Y-54514666D01*
X145272380Y-54419428D01*
X145272380Y-53467047D02*
X145272380Y-53371809D01*
X145320000Y-53276571D01*
X145367619Y-53228952D01*
X145462857Y-53181333D01*
X145653333Y-53133714D01*
X145891428Y-53133714D01*
X146081904Y-53181333D01*
X146177142Y-53228952D01*
X146224761Y-53276571D01*
X146272380Y-53371809D01*
X146272380Y-53467047D01*
X146224761Y-53562285D01*
X146177142Y-53609904D01*
X146081904Y-53657523D01*
X145891428Y-53705142D01*
X145653333Y-53705142D01*
X145462857Y-53657523D01*
X145367619Y-53609904D01*
X145320000Y-53562285D01*
X145272380Y-53467047D01*
X146272380Y-52705142D02*
X145272380Y-52705142D01*
X145748571Y-52705142D02*
X145748571Y-52133714D01*
X146272380Y-52133714D02*
X145272380Y-52133714D01*
X140278380Y-100957047D02*
X140278380Y-101528476D01*
X140278380Y-101242761D02*
X139278380Y-101242761D01*
X139421238Y-101338000D01*
X139516476Y-101433238D01*
X139564095Y-101528476D01*
X140278380Y-100528476D02*
X139278380Y-100528476D01*
X139897428Y-100433238D02*
X140278380Y-100147523D01*
X139611714Y-100147523D02*
X139992666Y-100528476D01*
X140278380Y-85209047D02*
X140278380Y-85780476D01*
X140278380Y-85494761D02*
X139278380Y-85494761D01*
X139421238Y-85590000D01*
X139516476Y-85685238D01*
X139564095Y-85780476D01*
X140278380Y-84780476D02*
X139278380Y-84780476D01*
X139897428Y-84685238D02*
X140278380Y-84399523D01*
X139611714Y-84399523D02*
X139992666Y-84780476D01*
X160059714Y-126999904D02*
X160726380Y-126999904D01*
X159678761Y-127238000D02*
X160393047Y-127476095D01*
X160393047Y-126857047D01*
X159726380Y-126571333D02*
X159726380Y-125904666D01*
X160726380Y-126333238D01*
X159726380Y-125333238D02*
X159726380Y-125238000D01*
X159774000Y-125142761D01*
X159821619Y-125095142D01*
X159916857Y-125047523D01*
X160107333Y-124999904D01*
X160345428Y-124999904D01*
X160535904Y-125047523D01*
X160631142Y-125095142D01*
X160678761Y-125142761D01*
X160726380Y-125238000D01*
X160726380Y-125333238D01*
X160678761Y-125428476D01*
X160631142Y-125476095D01*
X160535904Y-125523714D01*
X160345428Y-125571333D01*
X160107333Y-125571333D01*
X159916857Y-125523714D01*
X159821619Y-125476095D01*
X159774000Y-125428476D01*
X159726380Y-125333238D01*
X152216380Y-92622666D02*
X151740190Y-92956000D01*
X152216380Y-93194095D02*
X151216380Y-93194095D01*
X151216380Y-92813142D01*
X151264000Y-92717904D01*
X151311619Y-92670285D01*
X151406857Y-92622666D01*
X151549714Y-92622666D01*
X151644952Y-92670285D01*
X151692571Y-92717904D01*
X151740190Y-92813142D01*
X151740190Y-93194095D01*
X151549714Y-91765523D02*
X152216380Y-91765523D01*
X151168761Y-92003619D02*
X151883047Y-92241714D01*
X151883047Y-91622666D01*
X145232380Y-127214285D02*
X145232380Y-127785714D01*
X145232380Y-127500000D02*
X144232380Y-127500000D01*
X144375238Y-127595238D01*
X144470476Y-127690476D01*
X144518095Y-127785714D01*
X145232380Y-126785714D02*
X144232380Y-126785714D01*
X145232380Y-126214285D02*
X144660952Y-126642857D01*
X144232380Y-126214285D02*
X144803809Y-126785714D01*
X146376380Y-65492285D02*
X146376380Y-66063714D01*
X146376380Y-65778000D02*
X145376380Y-65778000D01*
X145519238Y-65873238D01*
X145614476Y-65968476D01*
X145662095Y-66063714D01*
X146376380Y-65063714D02*
X145376380Y-65063714D01*
X146376380Y-64492285D02*
X145804952Y-64920857D01*
X145376380Y-64492285D02*
X145947809Y-65063714D01*
X124531523Y-100274380D02*
X123960095Y-100274380D01*
X124245809Y-100274380D02*
X124245809Y-99274380D01*
X124150571Y-99417238D01*
X124055333Y-99512476D01*
X123960095Y-99560095D01*
X125150571Y-99274380D02*
X125245809Y-99274380D01*
X125341047Y-99322000D01*
X125388666Y-99369619D01*
X125436285Y-99464857D01*
X125483904Y-99655333D01*
X125483904Y-99893428D01*
X125436285Y-100083904D01*
X125388666Y-100179142D01*
X125341047Y-100226761D01*
X125245809Y-100274380D01*
X125150571Y-100274380D01*
X125055333Y-100226761D01*
X125007714Y-100179142D01*
X124960095Y-100083904D01*
X124912476Y-99893428D01*
X124912476Y-99655333D01*
X124960095Y-99464857D01*
X125007714Y-99369619D01*
X125055333Y-99322000D01*
X125150571Y-99274380D01*
X125912476Y-100274380D02*
X125912476Y-99274380D01*
X126483904Y-100274380D02*
X126055333Y-99702952D01*
X126483904Y-99274380D02*
X125912476Y-99845809D01*
X126206285Y-82748380D02*
X125634857Y-82748380D01*
X125920571Y-82748380D02*
X125920571Y-81748380D01*
X125825333Y-81891238D01*
X125730095Y-81986476D01*
X125634857Y-82034095D01*
X126634857Y-82748380D02*
X126634857Y-81748380D01*
X126968190Y-82462666D01*
X127301523Y-81748380D01*
X127301523Y-82748380D01*
X125325333Y-77414380D02*
X124753904Y-77414380D01*
X125039619Y-77414380D02*
X125039619Y-76414380D01*
X124944380Y-76557238D01*
X124849142Y-76652476D01*
X124753904Y-76700095D01*
X125944380Y-76414380D02*
X126039619Y-76414380D01*
X126134857Y-76462000D01*
X126182476Y-76509619D01*
X126230095Y-76604857D01*
X126277714Y-76795333D01*
X126277714Y-77033428D01*
X126230095Y-77223904D01*
X126182476Y-77319142D01*
X126134857Y-77366761D01*
X126039619Y-77414380D01*
X125944380Y-77414380D01*
X125849142Y-77366761D01*
X125801523Y-77319142D01*
X125753904Y-77223904D01*
X125706285Y-77033428D01*
X125706285Y-76795333D01*
X125753904Y-76604857D01*
X125801523Y-76509619D01*
X125849142Y-76462000D01*
X125944380Y-76414380D01*
X126896761Y-76414380D02*
X126992000Y-76414380D01*
X127087238Y-76462000D01*
X127134857Y-76509619D01*
X127182476Y-76604857D01*
X127230095Y-76795333D01*
X127230095Y-77033428D01*
X127182476Y-77223904D01*
X127134857Y-77319142D01*
X127087238Y-77366761D01*
X126992000Y-77414380D01*
X126896761Y-77414380D01*
X126801523Y-77366761D01*
X126753904Y-77319142D01*
X126706285Y-77223904D01*
X126658666Y-77033428D01*
X126658666Y-76795333D01*
X126706285Y-76604857D01*
X126753904Y-76509619D01*
X126801523Y-76462000D01*
X126896761Y-76414380D01*
X127658666Y-77414380D02*
X127658666Y-76414380D01*
X128230095Y-77414380D02*
X127801523Y-76842952D01*
X128230095Y-76414380D02*
X127658666Y-76985809D01*
X105632285Y-83256380D02*
X105060857Y-83256380D01*
X105346571Y-83256380D02*
X105346571Y-82256380D01*
X105251333Y-82399238D01*
X105156095Y-82494476D01*
X105060857Y-82542095D01*
X106060857Y-83256380D02*
X106060857Y-82256380D01*
X106394190Y-82970666D01*
X106727523Y-82256380D01*
X106727523Y-83256380D01*
X104751333Y-77668380D02*
X104179904Y-77668380D01*
X104465619Y-77668380D02*
X104465619Y-76668380D01*
X104370380Y-76811238D01*
X104275142Y-76906476D01*
X104179904Y-76954095D01*
X105370380Y-76668380D02*
X105465619Y-76668380D01*
X105560857Y-76716000D01*
X105608476Y-76763619D01*
X105656095Y-76858857D01*
X105703714Y-77049333D01*
X105703714Y-77287428D01*
X105656095Y-77477904D01*
X105608476Y-77573142D01*
X105560857Y-77620761D01*
X105465619Y-77668380D01*
X105370380Y-77668380D01*
X105275142Y-77620761D01*
X105227523Y-77573142D01*
X105179904Y-77477904D01*
X105132285Y-77287428D01*
X105132285Y-77049333D01*
X105179904Y-76858857D01*
X105227523Y-76763619D01*
X105275142Y-76716000D01*
X105370380Y-76668380D01*
X106322761Y-76668380D02*
X106418000Y-76668380D01*
X106513238Y-76716000D01*
X106560857Y-76763619D01*
X106608476Y-76858857D01*
X106656095Y-77049333D01*
X106656095Y-77287428D01*
X106608476Y-77477904D01*
X106560857Y-77573142D01*
X106513238Y-77620761D01*
X106418000Y-77668380D01*
X106322761Y-77668380D01*
X106227523Y-77620761D01*
X106179904Y-77573142D01*
X106132285Y-77477904D01*
X106084666Y-77287428D01*
X106084666Y-77049333D01*
X106132285Y-76858857D01*
X106179904Y-76763619D01*
X106227523Y-76716000D01*
X106322761Y-76668380D01*
X107084666Y-77668380D02*
X107084666Y-76668380D01*
X107656095Y-77668380D02*
X107227523Y-77096952D01*
X107656095Y-76668380D02*
X107084666Y-77239809D01*
X152748380Y-112704476D02*
X152748380Y-113275904D01*
X152748380Y-112990190D02*
X151748380Y-112990190D01*
X151891238Y-113085428D01*
X151986476Y-113180666D01*
X152034095Y-113275904D01*
X151748380Y-112085428D02*
X151748380Y-111990190D01*
X151796000Y-111894952D01*
X151843619Y-111847333D01*
X151938857Y-111799714D01*
X152129333Y-111752095D01*
X152367428Y-111752095D01*
X152557904Y-111799714D01*
X152653142Y-111847333D01*
X152700761Y-111894952D01*
X152748380Y-111990190D01*
X152748380Y-112085428D01*
X152700761Y-112180666D01*
X152653142Y-112228285D01*
X152557904Y-112275904D01*
X152367428Y-112323523D01*
X152129333Y-112323523D01*
X151938857Y-112275904D01*
X151843619Y-112228285D01*
X151796000Y-112180666D01*
X151748380Y-112085428D01*
X152748380Y-111323523D02*
X151748380Y-111323523D01*
X152748380Y-110752095D02*
X152176952Y-111180666D01*
X151748380Y-110752095D02*
X152319809Y-111323523D01*
X152852380Y-80954476D02*
X152852380Y-81525904D01*
X152852380Y-81240190D02*
X151852380Y-81240190D01*
X151995238Y-81335428D01*
X152090476Y-81430666D01*
X152138095Y-81525904D01*
X151852380Y-80335428D02*
X151852380Y-80240190D01*
X151900000Y-80144952D01*
X151947619Y-80097333D01*
X152042857Y-80049714D01*
X152233333Y-80002095D01*
X152471428Y-80002095D01*
X152661904Y-80049714D01*
X152757142Y-80097333D01*
X152804761Y-80144952D01*
X152852380Y-80240190D01*
X152852380Y-80335428D01*
X152804761Y-80430666D01*
X152757142Y-80478285D01*
X152661904Y-80525904D01*
X152471428Y-80573523D01*
X152233333Y-80573523D01*
X152042857Y-80525904D01*
X151947619Y-80478285D01*
X151900000Y-80430666D01*
X151852380Y-80335428D01*
X152852380Y-79573523D02*
X151852380Y-79573523D01*
X152852380Y-79002095D02*
X152280952Y-79430666D01*
X151852380Y-79002095D02*
X152423809Y-79573523D01*
X119276761Y-55689333D02*
X119324380Y-55546476D01*
X119324380Y-55308380D01*
X119276761Y-55213142D01*
X119229142Y-55165523D01*
X119133904Y-55117904D01*
X119038666Y-55117904D01*
X118943428Y-55165523D01*
X118895809Y-55213142D01*
X118848190Y-55308380D01*
X118800571Y-55498857D01*
X118752952Y-55594095D01*
X118705333Y-55641714D01*
X118610095Y-55689333D01*
X118514857Y-55689333D01*
X118419619Y-55641714D01*
X118372000Y-55594095D01*
X118324380Y-55498857D01*
X118324380Y-55260761D01*
X118372000Y-55117904D01*
X118324380Y-54784571D02*
X119324380Y-54546476D01*
X118610095Y-54356000D01*
X119324380Y-54165523D01*
X118324380Y-53927428D01*
X119324380Y-53022666D02*
X119324380Y-53594095D01*
X119324380Y-53308380D02*
X118324380Y-53308380D01*
X118467238Y-53403619D01*
X118562476Y-53498857D01*
X118610095Y-53594095D01*
D10*
X164734761Y-60895904D02*
X164734761Y-62038761D01*
X164734761Y-61467333D02*
X162734761Y-61467333D01*
X163020476Y-61657809D01*
X163210952Y-61848285D01*
X163306190Y-62038761D01*
X162925238Y-60134000D02*
X162830000Y-60038761D01*
X162734761Y-59848285D01*
X162734761Y-59372095D01*
X162830000Y-59181619D01*
X162925238Y-59086380D01*
X163115714Y-58991142D01*
X163306190Y-58991142D01*
X163591904Y-59086380D01*
X164734761Y-60229238D01*
X164734761Y-58991142D01*
X162734761Y-58419714D02*
X164734761Y-57753047D01*
X162734761Y-57086380D01*
X162734761Y-54514952D02*
X162734761Y-54134000D01*
X162830000Y-53943523D01*
X163020476Y-53753047D01*
X163401428Y-53657809D01*
X164068095Y-53657809D01*
X164449047Y-53753047D01*
X164639523Y-53943523D01*
X164734761Y-54134000D01*
X164734761Y-54514952D01*
X164639523Y-54705428D01*
X164449047Y-54895904D01*
X164068095Y-54991142D01*
X163401428Y-54991142D01*
X163020476Y-54895904D01*
X162830000Y-54705428D01*
X162734761Y-54514952D01*
X163687142Y-52134000D02*
X163687142Y-52800666D01*
X164734761Y-52800666D02*
X162734761Y-52800666D01*
X162734761Y-51848285D01*
X163687142Y-50419714D02*
X163687142Y-51086380D01*
X164734761Y-51086380D02*
X162734761Y-51086380D01*
X162734761Y-50134000D01*
D15*
X153860666Y-102432761D02*
X154003523Y-102480380D01*
X154241619Y-102480380D01*
X154336857Y-102432761D01*
X154384476Y-102385142D01*
X154432095Y-102289904D01*
X154432095Y-102194666D01*
X154384476Y-102099428D01*
X154336857Y-102051809D01*
X154241619Y-102004190D01*
X154051142Y-101956571D01*
X153955904Y-101908952D01*
X153908285Y-101861333D01*
X153860666Y-101766095D01*
X153860666Y-101670857D01*
X153908285Y-101575619D01*
X153955904Y-101528000D01*
X154051142Y-101480380D01*
X154289238Y-101480380D01*
X154432095Y-101528000D01*
X154765428Y-101480380D02*
X155003523Y-102480380D01*
X155194000Y-101766095D01*
X155384476Y-102480380D01*
X155622571Y-101480380D01*
X155908285Y-101480380D02*
X156527333Y-101480380D01*
X156194000Y-101861333D01*
X156336857Y-101861333D01*
X156432095Y-101908952D01*
X156479714Y-101956571D01*
X156527333Y-102051809D01*
X156527333Y-102289904D01*
X156479714Y-102385142D01*
X156432095Y-102432761D01*
X156336857Y-102480380D01*
X156051142Y-102480380D01*
X155955904Y-102432761D01*
X155908285Y-102385142D01*
X144780380Y-112931904D02*
X145589904Y-112931904D01*
X145685142Y-112884285D01*
X145732761Y-112836666D01*
X145780380Y-112741428D01*
X145780380Y-112550952D01*
X145732761Y-112455714D01*
X145685142Y-112408095D01*
X145589904Y-112360476D01*
X144780380Y-112360476D01*
X145780380Y-111360476D02*
X145780380Y-111931904D01*
X145780380Y-111646190D02*
X144780380Y-111646190D01*
X144923238Y-111741428D01*
X145018476Y-111836666D01*
X145066095Y-111931904D01*
X145740380Y-83954666D02*
X145740380Y-84430857D01*
X144740380Y-84430857D01*
X145740380Y-83621333D02*
X144740380Y-83621333D01*
X145454666Y-83288000D01*
X144740380Y-82954666D01*
X145740380Y-82954666D01*
X144835619Y-82526095D02*
X144788000Y-82478476D01*
X144740380Y-82383238D01*
X144740380Y-82145142D01*
X144788000Y-82049904D01*
X144835619Y-82002285D01*
X144930857Y-81954666D01*
X145026095Y-81954666D01*
X145168952Y-82002285D01*
X145740380Y-82573714D01*
X145740380Y-81954666D01*
X144740380Y-81049904D02*
X144740380Y-81526095D01*
X145216571Y-81573714D01*
X145168952Y-81526095D01*
X145121333Y-81430857D01*
X145121333Y-81192761D01*
X145168952Y-81097523D01*
X145216571Y-81049904D01*
X145311809Y-81002285D01*
X145549904Y-81002285D01*
X145645142Y-81049904D01*
X145692761Y-81097523D01*
X145740380Y-81192761D01*
X145740380Y-81430857D01*
X145692761Y-81526095D01*
X145645142Y-81573714D01*
X145740380Y-80526095D02*
X145740380Y-80335619D01*
X145692761Y-80240380D01*
X145645142Y-80192761D01*
X145502285Y-80097523D01*
X145311809Y-80049904D01*
X144930857Y-80049904D01*
X144835619Y-80097523D01*
X144788000Y-80145142D01*
X144740380Y-80240380D01*
X144740380Y-80430857D01*
X144788000Y-80526095D01*
X144835619Y-80573714D01*
X144930857Y-80621333D01*
X145168952Y-80621333D01*
X145264190Y-80573714D01*
X145311809Y-80526095D01*
X145359428Y-80430857D01*
X145359428Y-80240380D01*
X145311809Y-80145142D01*
X145264190Y-80097523D01*
X145168952Y-80049904D01*
X144740380Y-79192761D02*
X144740380Y-79383238D01*
X144788000Y-79478476D01*
X144835619Y-79526095D01*
X144978476Y-79621333D01*
X145168952Y-79668952D01*
X145549904Y-79668952D01*
X145645142Y-79621333D01*
X145692761Y-79573714D01*
X145740380Y-79478476D01*
X145740380Y-79288000D01*
X145692761Y-79192761D01*
X145645142Y-79145142D01*
X145549904Y-79097523D01*
X145311809Y-79097523D01*
X145216571Y-79145142D01*
X145168952Y-79192761D01*
X145121333Y-79288000D01*
X145121333Y-79478476D01*
X145168952Y-79573714D01*
X145216571Y-79621333D01*
X145311809Y-79668952D01*
X96944380Y-93979904D02*
X97753904Y-93979904D01*
X97849142Y-93932285D01*
X97896761Y-93884666D01*
X97944380Y-93789428D01*
X97944380Y-93598952D01*
X97896761Y-93503714D01*
X97849142Y-93456095D01*
X97753904Y-93408476D01*
X96944380Y-93408476D01*
X96944380Y-93027523D02*
X96944380Y-92408476D01*
X97325333Y-92741809D01*
X97325333Y-92598952D01*
X97372952Y-92503714D01*
X97420571Y-92456095D01*
X97515809Y-92408476D01*
X97753904Y-92408476D01*
X97849142Y-92456095D01*
X97896761Y-92503714D01*
X97944380Y-92598952D01*
X97944380Y-92884666D01*
X97896761Y-92979904D01*
X97849142Y-93027523D01*
X125280952Y-103099380D02*
X124709523Y-103099380D01*
X124995238Y-103099380D02*
X124995238Y-102099380D01*
X124900000Y-102242238D01*
X124804761Y-102337476D01*
X124709523Y-102385095D01*
X126138095Y-102099380D02*
X125947619Y-102099380D01*
X125852380Y-102147000D01*
X125804761Y-102194619D01*
X125709523Y-102337476D01*
X125661904Y-102527952D01*
X125661904Y-102908904D01*
X125709523Y-103004142D01*
X125757142Y-103051761D01*
X125852380Y-103099380D01*
X126042857Y-103099380D01*
X126138095Y-103051761D01*
X126185714Y-103004142D01*
X126233333Y-102908904D01*
X126233333Y-102670809D01*
X126185714Y-102575571D01*
X126138095Y-102527952D01*
X126042857Y-102480333D01*
X125852380Y-102480333D01*
X125757142Y-102527952D01*
X125709523Y-102575571D01*
X125661904Y-102670809D01*
X126661904Y-103099380D02*
X126661904Y-102099380D01*
X126995238Y-102813666D01*
X127328571Y-102099380D01*
X127328571Y-103099380D01*
X127804761Y-103099380D02*
X127804761Y-102099380D01*
X128233333Y-103099380D02*
X128233333Y-102575571D01*
X128185714Y-102480333D01*
X128090476Y-102432714D01*
X127947619Y-102432714D01*
X127852380Y-102480333D01*
X127804761Y-102527952D01*
X128614285Y-102432714D02*
X129138095Y-102432714D01*
X128614285Y-103099380D01*
X129138095Y-103099380D01*
X109291619Y-99512380D02*
X108958285Y-99036190D01*
X108720190Y-99512380D02*
X108720190Y-98512380D01*
X109101142Y-98512380D01*
X109196380Y-98560000D01*
X109244000Y-98607619D01*
X109291619Y-98702857D01*
X109291619Y-98845714D01*
X109244000Y-98940952D01*
X109196380Y-98988571D01*
X109101142Y-99036190D01*
X108720190Y-99036190D01*
X109720190Y-98988571D02*
X110053523Y-98988571D01*
X110196380Y-99512380D02*
X109720190Y-99512380D01*
X109720190Y-98512380D01*
X110196380Y-98512380D01*
X110577333Y-99464761D02*
X110720190Y-99512380D01*
X110958285Y-99512380D01*
X111053523Y-99464761D01*
X111101142Y-99417142D01*
X111148761Y-99321904D01*
X111148761Y-99226666D01*
X111101142Y-99131428D01*
X111053523Y-99083809D01*
X110958285Y-99036190D01*
X110767809Y-98988571D01*
X110672571Y-98940952D01*
X110624952Y-98893333D01*
X110577333Y-98798095D01*
X110577333Y-98702857D01*
X110624952Y-98607619D01*
X110672571Y-98560000D01*
X110767809Y-98512380D01*
X111005904Y-98512380D01*
X111148761Y-98560000D01*
X111577333Y-98988571D02*
X111910666Y-98988571D01*
X112053523Y-99512380D02*
X111577333Y-99512380D01*
X111577333Y-98512380D01*
X112053523Y-98512380D01*
X112339238Y-98512380D02*
X112910666Y-98512380D01*
X112624952Y-99512380D02*
X112624952Y-98512380D01*
X138907380Y-117816285D02*
X138907380Y-118387714D01*
X138907380Y-118102000D02*
X137907380Y-118102000D01*
X138050238Y-118197238D01*
X138145476Y-118292476D01*
X138193095Y-118387714D01*
X138907380Y-117387714D02*
X137907380Y-117387714D01*
X138907380Y-116816285D02*
X138335952Y-117244857D01*
X137907380Y-116816285D02*
X138478809Y-117387714D01*
X140492380Y-125483904D02*
X139492380Y-125483904D01*
X140492380Y-124912476D02*
X139920952Y-125341047D01*
X139492380Y-124912476D02*
X140063809Y-125483904D01*
X159535904Y-84805380D02*
X159535904Y-83805380D01*
X159774000Y-83805380D01*
X159916857Y-83853000D01*
X160012095Y-83948238D01*
X160059714Y-84043476D01*
X160107333Y-84233952D01*
X160107333Y-84376809D01*
X160059714Y-84567285D01*
X160012095Y-84662523D01*
X159916857Y-84757761D01*
X159774000Y-84805380D01*
X159535904Y-84805380D01*
X160964476Y-83805380D02*
X160774000Y-83805380D01*
X160678761Y-83853000D01*
X160631142Y-83900619D01*
X160535904Y-84043476D01*
X160488285Y-84233952D01*
X160488285Y-84614904D01*
X160535904Y-84710142D01*
X160583523Y-84757761D01*
X160678761Y-84805380D01*
X160869238Y-84805380D01*
X160964476Y-84757761D01*
X161012095Y-84710142D01*
X161059714Y-84614904D01*
X161059714Y-84376809D01*
X161012095Y-84281571D01*
X160964476Y-84233952D01*
X160869238Y-84186333D01*
X160678761Y-84186333D01*
X160583523Y-84233952D01*
X160535904Y-84281571D01*
X160488285Y-84376809D01*
X152392095Y-86390380D02*
X152392095Y-85390380D01*
X152963523Y-86390380D02*
X152534952Y-85818952D01*
X152963523Y-85390380D02*
X152392095Y-85961809D01*
M02*
